<svg width="24" height="24" viewBox="0 0 24 24" fill="none" xmlns="http://www.w3.org/2000/svg">
<path d="M10.7012 17H12.5605L9.06055 7.13574H7.07129L3.57129 17H5.38965L6.23047 14.4502H9.86035L10.7012 17ZM8.02148 8.87891H8.06934L9.44336 13.0898H6.64062L8.02148 8.87891ZM16.4297 15.6533C16.0742 15.6533 15.7643 15.5622 15.5 15.3799C15.2357 15.193 15.0306 14.9287 14.8848 14.5869C14.7435 14.2406 14.6729 13.8304 14.6729 13.3564C14.6729 12.8779 14.7435 12.4655 14.8848 12.1191C15.0306 11.7728 15.2357 11.5062 15.5 11.3193C15.7643 11.1279 16.0742 11.0322 16.4297 11.0322C16.7943 11.0322 17.1087 11.1279 17.373 11.3193C17.6419 11.5107 17.8493 11.7819 17.9951 12.1328C18.1455 12.4792 18.2207 12.887 18.2207 13.3564C18.2207 13.8258 18.1455 14.2337 17.9951 14.5801C17.8493 14.9219 17.6419 15.1862 17.373 15.373C17.1087 15.5599 16.7943 15.6533 16.4297 15.6533ZM16.4229 19.7344C17.1292 19.7344 17.7445 19.6159 18.2686 19.3789C18.7926 19.1465 19.1982 18.8161 19.4854 18.3877C19.777 17.9593 19.9229 17.458 19.9229 16.8838V9.75391H18.2549V10.998H18.2275C18.0908 10.7201 17.9085 10.4785 17.6807 10.2734C17.4528 10.0684 17.193 9.91113 16.9014 9.80176C16.6097 9.68783 16.2907 9.63086 15.9443 9.63086C15.3291 9.63086 14.7936 9.78353 14.3379 10.0889C13.8867 10.3896 13.5381 10.818 13.292 11.374C13.0505 11.9255 12.9297 12.584 12.9297 13.3496C12.9297 14.1016 13.0527 14.7533 13.2988 15.3047C13.5495 15.8516 13.8981 16.2731 14.3447 16.5693C14.7913 16.861 15.3132 17.0068 15.9102 17.0068C16.2611 17.0068 16.5846 16.9544 16.8809 16.8496C17.1771 16.7402 17.4368 16.5876 17.6602 16.3916C17.8835 16.1911 18.0566 15.9632 18.1797 15.708H18.2207V16.9316C18.2207 17.3919 18.068 17.7633 17.7627 18.0459C17.4574 18.333 17.029 18.4766 16.4775 18.4766C16.0765 18.4766 15.7301 18.39 15.4385 18.2168C15.1514 18.0482 14.96 17.8249 14.8643 17.5469H13.1758C13.235 17.9661 13.4082 18.3398 13.6953 18.668C13.9824 19.0007 14.3584 19.2604 14.8232 19.4473C15.2926 19.6387 15.8258 19.7344 16.4229 19.7344Z" fill="white"/>
</svg>
