<svg width="24" height="24" viewBox="0 0 24 24" fill="none" xmlns="http://www.w3.org/2000/svg">
<path d="M11.8564 17H12.4375L8.68457 7.13574H8.1377L4.37793 17H4.96582L6.18945 13.7119H10.626L11.8564 17ZM8.39062 7.83984H8.4248L10.4551 13.2266H6.36719L8.39062 7.83984ZM15.8555 16.6104C15.3542 16.6104 14.9121 16.4782 14.5293 16.2139C14.151 15.945 13.8548 15.5736 13.6406 15.0996C13.4264 14.6257 13.3193 14.0742 13.3193 13.4453C13.3193 12.8073 13.4264 12.2513 13.6406 11.7773C13.8548 11.2988 14.151 10.9274 14.5293 10.6631C14.9121 10.3942 15.3542 10.2598 15.8555 10.2598C16.3613 10.2598 16.8079 10.3942 17.1953 10.6631C17.5872 10.932 17.8926 11.3057 18.1113 11.7842C18.3301 12.2581 18.4395 12.8096 18.4395 13.4385C18.4395 14.0628 18.3301 14.6143 18.1113 15.0928C17.8926 15.5713 17.5872 15.945 17.1953 16.2139C16.8079 16.4782 16.3613 16.6104 15.8555 16.6104ZM15.999 19.5635C16.6097 19.5635 17.1361 19.4541 17.5781 19.2354C18.0202 19.0166 18.362 18.7067 18.6035 18.3057C18.8451 17.9092 18.9658 17.4466 18.9658 16.918V9.89062H18.4668V11.7979H18.4531C18.3392 11.415 18.1546 11.071 17.8994 10.7656C17.6488 10.4603 17.3434 10.221 16.9834 10.0479C16.6279 9.87012 16.2314 9.78125 15.7939 9.78125C15.1969 9.78125 14.6729 9.93392 14.2217 10.2393C13.7705 10.5446 13.4173 10.973 13.1621 11.5244C12.9115 12.0713 12.7861 12.7093 12.7861 13.4385C12.7861 14.1631 12.9115 14.8011 13.1621 15.3525C13.4128 15.8994 13.7637 16.3255 14.2148 16.6309C14.666 16.9362 15.1901 17.0889 15.7871 17.0889C16.2246 17.0889 16.6211 17.0023 16.9766 16.8291C17.3366 16.6514 17.6419 16.4121 17.8926 16.1113C18.1432 15.8105 18.3187 15.4779 18.4189 15.1133H18.4395V16.9385C18.4395 17.5856 18.2207 18.1074 17.7832 18.5039C17.3503 18.9004 16.7646 19.0986 16.0264 19.0986C15.4157 19.0986 14.9098 18.9688 14.5088 18.709C14.1123 18.4492 13.8548 18.1302 13.7363 17.752H13.1895C13.2578 18.0846 13.415 18.3877 13.6611 18.6611C13.9072 18.9391 14.2308 19.1579 14.6318 19.3174C15.0329 19.4814 15.4886 19.5635 15.999 19.5635Z" fill="white"/>
</svg>
