<svg width="24" height="24" viewBox="0 0 24 24" fill="none" xmlns="http://www.w3.org/2000/svg">
<path d="M12.9297 16C12.9297 15.7904 12.8613 15.6764 12.7246 15.6582C12.679 15.6491 12.6335 15.6445 12.5879 15.6445H12.1504L8.97852 7.79688H8.25391L5.21875 15.6445H4.35742V16H6.81836C6.81836 15.7995 6.75911 15.6855 6.64062 15.6582C6.58594 15.6491 6.53125 15.6445 6.47656 15.6445H5.76562L6.77734 12.9922H9.58008L10.6055 15.6445H9.68945V16H12.9297ZM9.41602 12.5957H6.92773L8.17188 9.35546L9.41602 12.5957ZM14.9258 12.2129C14.9258 11.2103 15.1628 10.6133 15.6367 10.4219C15.7826 10.3672 15.9466 10.3398 16.1289 10.3398C16.7578 10.3398 17.1315 10.6771 17.25 11.3516C17.2956 11.5885 17.3184 11.8711 17.3184 12.1992C17.3184 13.2018 17.0951 13.8079 16.6484 14.0176C16.4935 14.0814 16.3158 14.1133 16.1152 14.1133C15.4863 14.1133 15.1081 13.7578 14.9805 13.0469C14.944 12.819 14.9258 12.541 14.9258 12.2129ZM16.1562 9.99804C15.2357 9.99804 14.5293 10.2943 14.0371 10.8867C13.7272 11.2604 13.5723 11.7025 13.5723 12.2129C13.5723 12.8874 13.9004 13.4616 14.5566 13.9355C14.6387 13.9993 14.7207 14.054 14.8027 14.0996C14.265 14.0996 13.9095 14.3411 13.7363 14.8242C13.6816 14.9701 13.6543 15.1204 13.6543 15.2754C13.6634 15.7402 13.8457 16.1003 14.2012 16.3555C13.9277 16.6471 13.791 16.9479 13.791 17.2578C13.791 17.7591 14.0964 18.1328 14.707 18.3789C15.1172 18.543 15.6094 18.625 16.1836 18.625C17.6146 18.625 18.5488 18.2832 18.9863 17.5996C19.1322 17.3809 19.2051 17.1439 19.2051 16.8887C19.2051 16.041 18.7311 15.5579 17.7832 15.4395C17.6556 15.4212 17.5326 15.4121 17.4141 15.4121L14.7891 15.3574C14.4245 15.3301 14.2376 15.1706 14.2285 14.8789C14.2285 14.6602 14.3607 14.5234 14.625 14.4688C14.6888 14.4596 14.748 14.4551 14.8027 14.4551L16.0742 14.4688H16.1152C16.9993 14.4688 17.6921 14.168 18.1934 13.5664C18.5124 13.1654 18.6719 12.7051 18.6719 12.1855C18.6628 11.4928 18.403 10.946 17.8926 10.5449C18.0202 10.235 18.2116 10.0755 18.4668 10.0664C18.5853 10.0664 18.7266 10.1393 18.8906 10.2852C19 10.3854 19.1048 10.4355 19.2051 10.4355C19.4512 10.4355 19.597 10.3125 19.6426 10.0664C19.6517 10.0299 19.6562 9.99805 19.6562 9.9707C19.6562 9.66992 19.5104 9.46028 19.2188 9.34179C19.1003 9.29621 18.9772 9.27344 18.8496 9.27344C18.4121 9.27344 18.0612 9.48763 17.7969 9.91602C17.7148 10.0527 17.651 10.1986 17.6055 10.3535C17.1771 10.1165 16.694 9.99804 16.1562 9.99804ZM16.1836 18.2695C15.1901 18.2695 14.5749 18.0234 14.3379 17.5312C14.2832 17.4219 14.2559 17.3079 14.2559 17.1895C14.265 16.9616 14.3561 16.7383 14.5293 16.5195C14.6842 16.5742 14.8529 16.6016 15.0352 16.6016L17.4141 16.6289C18.0521 16.6289 18.4167 16.7611 18.5078 17.0254C18.5352 17.0983 18.5488 17.1758 18.5488 17.2578C18.5488 17.668 18.1615 17.9642 17.3867 18.1465C17.0221 18.2285 16.6211 18.2695 16.1836 18.2695Z" fill="white"/>
</svg>
