<svg width="24" height="24" viewBox="0 0 24 24" fill="none" xmlns="http://www.w3.org/2000/svg">
<path d="M10.7292 12.746L10.6872 12.76C10.4165 12.788 10.1178 12.8487 9.79115 12.942C9.47382 13.026 9.17982 13.1007 8.90915 13.166L8.57315 13.964C8.47049 14.0573 8.38649 14.1647 8.32115 14.286C8.25582 14.398 8.19982 14.5147 8.15315 14.636C8.15315 14.6827 8.12049 14.7853 8.05515 14.944C7.99915 15.1027 7.92449 15.266 7.83115 15.434C7.74715 15.602 7.65849 15.756 7.56515 15.896C7.47182 16.036 7.39715 16.106 7.34115 16.106C7.30382 16.0873 7.27115 16.064 7.24315 16.036C7.20582 16.008 7.18249 15.9707 7.17315 15.924C7.15449 15.7933 7.16382 15.6627 7.20115 15.532C7.22915 15.4013 7.23382 15.2707 7.21515 15.14C7.21515 15.0933 7.20582 15.0467 7.18715 15C7.15915 14.9627 7.13115 14.93 7.10315 14.902L7.11715 14.804C7.18249 14.6733 7.25715 14.566 7.34115 14.482C7.43449 14.398 7.51382 14.3047 7.57915 14.202C7.67249 14.0433 7.74715 13.88 7.80315 13.712C7.85915 13.5347 7.92915 13.3667 8.01315 13.208L7.85915 13.222C7.81249 13.1847 7.77982 13.138 7.76115 13.082C7.75182 13.026 7.74715 12.9747 7.74715 12.928C7.73782 12.8907 7.73782 12.8487 7.74715 12.802C7.75649 12.7553 7.78449 12.7227 7.83115 12.704H8.01315C8.15315 12.6853 8.26049 12.6107 8.33515 12.48C8.42849 12.312 8.50315 12.1113 8.55915 11.878C8.62449 11.6447 8.68049 11.402 8.72715 11.15C8.78315 10.898 8.83449 10.6507 8.88115 10.408C8.92782 10.1653 8.98382 9.94599 9.04915 9.74999C9.17049 9.37666 9.32915 9.02666 9.52515 8.69999C9.72115 8.36399 9.92649 8.03266 10.1412 7.70599C10.1505 7.65932 10.1738 7.61732 10.2112 7.57999C10.2578 7.53332 10.3045 7.50066 10.3512 7.48199L10.4352 7.49599L10.4912 7.46799L11.0372 7.56599C11.2145 7.63132 11.3452 7.73399 11.4292 7.87399C11.5132 8.01399 11.5738 8.17266 11.6112 8.34999C11.6485 8.51799 11.6672 8.69532 11.6672 8.88199C11.6672 9.05932 11.6765 9.22266 11.6952 9.37199C11.7138 9.49332 11.7465 9.61932 11.7932 9.74999C11.8398 9.88066 11.8725 10.0067 11.8912 10.128C11.9098 10.3333 11.9098 10.5527 11.8912 10.786C11.8818 11.0193 11.8772 11.2387 11.8772 11.444C11.8772 11.4907 11.8818 11.542 11.8912 11.598C11.9005 11.6447 11.9098 11.6913 11.9192 11.738C11.9752 11.7287 12.0312 11.7147 12.0872 11.696C12.1432 11.668 12.1945 11.6447 12.2412 11.626L12.3252 11.794C12.3065 11.8687 12.2598 11.92 12.1852 11.948C12.1198 11.9667 12.0638 11.9947 12.0172 12.032L11.9472 12.13H11.9192L11.8912 12.088L11.9052 12.046C11.9238 12.158 11.9472 12.2887 11.9752 12.438C12.0125 12.578 12.0405 12.7227 12.0592 12.872C12.0872 13.0213 12.1058 13.166 12.1152 13.306C12.1245 13.446 12.1245 13.572 12.1152 13.684L12.1432 13.74C12.1618 14.104 12.2318 14.4587 12.3532 14.804C12.4745 15.1493 12.5585 15.4993 12.6052 15.854C12.6145 15.9007 12.6005 15.9427 12.5632 15.98C12.5352 16.0173 12.5118 16.0593 12.4932 16.106L12.4092 16.19C12.3438 16.1993 12.2878 16.218 12.2412 16.246C12.2038 16.2833 12.1572 16.3067 12.1012 16.316C12.0172 16.3253 11.9238 16.302 11.8212 16.246C11.7278 16.19 11.6345 16.1247 11.5412 16.05C11.4478 15.9753 11.3592 15.896 11.2752 15.812C11.2005 15.728 11.1352 15.6627 11.0792 15.616C11.0138 15.448 10.9392 15.2427 10.8552 15C10.7805 14.7573 10.7338 14.5427 10.7152 14.356C10.6872 14.0853 10.6732 13.8193 10.6732 13.558C10.6732 13.2873 10.6918 13.0167 10.7292 12.746ZM10.6312 12.06C10.6125 11.9853 10.5938 11.9153 10.5752 11.85C10.5658 11.7753 10.5565 11.7007 10.5472 11.626C10.5098 11.3273 10.5005 11.0193 10.5192 10.702C10.5472 10.3753 10.5472 10.0627 10.5192 9.76399C10.5005 9.62399 10.4678 9.48866 10.4212 9.35799C10.3838 9.21799 10.3418 9.08266 10.2952 8.95199C10.2112 9.20399 10.1038 9.48399 9.97315 9.79199C9.85182 10.0907 9.73049 10.3987 9.60915 10.716C9.48782 11.0333 9.37582 11.346 9.27315 11.654C9.17982 11.962 9.12849 12.242 9.11915 12.494C9.35249 12.4753 9.61382 12.4287 9.90315 12.354C10.1925 12.27 10.4352 12.172 10.6312 12.06ZM16.9712 9.83399C16.9339 9.87132 16.8779 9.90399 16.8032 9.93199C16.7752 9.94132 16.7425 9.94599 16.7052 9.94599C16.6772 9.93666 16.6445 9.93199 16.6072 9.93199C16.5699 9.93199 16.5465 9.91799 16.5372 9.88999C16.5185 9.88066 16.4999 9.87599 16.4812 9.87599C16.4719 9.86666 16.4579 9.85266 16.4392 9.83399C16.4579 9.82466 16.4672 9.81999 16.4672 9.81999C16.4859 9.80132 16.4952 9.77799 16.4952 9.74999C16.4859 9.66599 16.4625 9.58199 16.4252 9.49799C16.3879 9.40466 16.3085 9.30666 16.1872 9.20399L16.0752 9.14799C16.0472 9.13866 16.0192 9.13866 15.9912 9.14799C15.9539 9.14799 15.9212 9.15266 15.8932 9.16199C15.8652 9.16199 15.8325 9.17132 15.7952 9.18999C15.7392 9.20866 15.6739 9.22732 15.5992 9.24599C15.5805 9.26466 15.5619 9.27399 15.5432 9.27399C15.4965 9.29266 15.4499 9.31132 15.4032 9.32999C15.3659 9.34866 15.3239 9.37666 15.2772 9.41399C15.2585 9.41399 15.2492 9.42332 15.2492 9.44199L15.1512 9.52599C15.0952 9.55399 15.0392 9.58666 14.9832 9.62399C14.9365 9.66132 14.8899 9.70332 14.8432 9.74999C14.7965 9.79666 14.7545 9.84799 14.7172 9.90399C14.6892 9.95999 14.6565 10.0113 14.6192 10.058C14.6005 10.0767 14.5819 10.1047 14.5632 10.142C14.5445 10.1607 14.5305 10.1793 14.5212 10.198C14.5212 10.2167 14.5119 10.2353 14.4932 10.254L14.3812 10.534C14.3159 10.6927 14.2599 10.8607 14.2132 11.038C14.1665 11.206 14.1339 11.374 14.1152 11.542C14.1059 11.5887 14.0965 11.6353 14.0872 11.682C14.0872 11.7193 14.0872 11.766 14.0872 11.822C14.0779 11.8967 14.0732 11.9713 14.0732 12.046C14.0732 12.1113 14.0639 12.1813 14.0452 12.256C14.0452 12.3213 14.0499 12.3867 14.0592 12.452C14.0685 12.508 14.0825 12.564 14.1012 12.62C14.1199 12.7133 14.1385 12.788 14.1572 12.844C14.1945 12.9653 14.2319 13.0587 14.2692 13.124C14.2692 13.1333 14.2645 13.1427 14.2552 13.152C14.2552 13.152 14.2552 13.1567 14.2552 13.166L14.3252 13.264C14.3252 13.292 14.3252 13.306 14.3252 13.306L14.3672 13.39C14.3765 13.4273 14.3859 13.46 14.3952 13.488C14.4045 13.516 14.4185 13.5487 14.4372 13.586C14.4465 13.586 14.4512 13.5907 14.4512 13.6C14.5072 13.6093 14.5632 13.656 14.6192 13.74C14.6845 13.824 14.7592 13.8987 14.8432 13.964C14.9272 14.02 15.0252 14.0433 15.1372 14.034C15.2492 14.0247 15.3892 13.9313 15.5572 13.754L15.8092 13.432C15.8559 13.3573 15.8979 13.2873 15.9352 13.222C15.9725 13.1567 16.0145 13.096 16.0612 13.04L16.1452 12.9C16.1639 12.8813 16.1732 12.8627 16.1732 12.844C16.1825 12.8253 16.1965 12.8067 16.2152 12.788L16.2992 12.606H16.2152L16.1872 12.578C16.0939 12.578 16.0052 12.5733 15.9212 12.564C15.8372 12.5453 15.7579 12.536 15.6832 12.536C15.6645 12.5453 15.6505 12.55 15.6412 12.55C15.6412 12.5407 15.6365 12.536 15.6272 12.536C15.6085 12.536 15.5945 12.5407 15.5852 12.55C15.5852 12.55 15.5759 12.5453 15.5572 12.536C15.5479 12.5453 15.5292 12.5453 15.5012 12.536C15.4732 12.536 15.4592 12.5267 15.4592 12.508C15.4499 12.508 15.4312 12.494 15.4032 12.466C15.3939 12.466 15.3892 12.4567 15.3892 12.438C15.3612 12.3727 15.3519 12.312 15.3612 12.256C15.3612 12.2467 15.3612 12.2373 15.3612 12.228C15.3705 12.2187 15.3752 12.2047 15.3752 12.186C15.4219 12.102 15.4965 12.0227 15.5992 11.948C15.6739 11.9013 15.7485 11.8593 15.8232 11.822C15.8979 11.7847 15.9725 11.7473 16.0472 11.71C16.0939 11.6913 16.1405 11.6773 16.1872 11.668C16.2432 11.6587 16.2945 11.6493 16.3412 11.64L16.5652 11.584L16.8032 11.542C16.8405 11.5327 16.8919 11.528 16.9572 11.528H16.9992C17.0459 11.528 17.0832 11.5373 17.1112 11.556C17.1485 11.5747 17.1859 11.5933 17.2232 11.612C17.2792 11.6587 17.3259 11.7333 17.3632 11.836C17.3632 11.8547 17.3632 11.8687 17.3632 11.878C17.3725 11.8873 17.3772 11.9013 17.3772 11.92C17.4052 11.948 17.4192 11.9713 17.4192 11.99C17.4472 12.046 17.4612 12.1113 17.4612 12.186C17.4612 12.214 17.4612 12.242 17.4612 12.27C17.4705 12.2887 17.4752 12.312 17.4752 12.34C17.4752 12.4147 17.4705 12.466 17.4612 12.494C17.4519 12.5687 17.4239 12.6573 17.3772 12.76C17.3585 12.8627 17.3305 12.9607 17.2932 13.054C17.2652 13.1473 17.2372 13.2453 17.2092 13.348C17.1905 13.3947 17.1625 13.4693 17.1252 13.572C17.0972 13.6653 17.0645 13.7633 17.0272 13.866C16.9992 13.9687 16.9665 14.0713 16.9292 14.174C16.8919 14.2673 16.8639 14.3373 16.8452 14.384C16.8452 14.412 16.8405 14.4353 16.8312 14.454C16.8312 14.4727 16.8265 14.496 16.8172 14.524C16.8172 14.5427 16.8172 14.5613 16.8172 14.58V14.706C16.7145 15.154 16.5512 15.2847 16.3272 15.098L16.0752 15C16.0005 15.0187 15.9492 15.0233 15.9212 15.014C15.9025 15.0047 15.8745 14.9627 15.8372 14.888C15.8279 14.86 15.8232 14.818 15.8232 14.762C15.8325 14.706 15.8419 14.65 15.8512 14.594C15.8605 14.5287 15.8652 14.4727 15.8652 14.426C15.8652 14.37 15.8605 14.342 15.8512 14.342L15.6412 14.552C15.5945 14.5893 15.5479 14.6267 15.5012 14.664C15.4639 14.692 15.4219 14.7293 15.3752 14.776L15.2352 14.86L15.1652 14.902L15.0532 14.958C15.0345 14.958 15.0159 14.9673 14.9972 14.986C14.9879 14.986 14.9785 14.9907 14.9692 15C14.9599 15 14.9505 15 14.9412 15C14.9319 15.0093 14.9225 15.0093 14.9132 15C14.9132 15 14.9085 15.0047 14.8992 15.014C14.8432 15.0327 14.7872 15.0467 14.7312 15.056C14.6845 15.0747 14.6379 15.0887 14.5912 15.098C14.5539 15.1073 14.5165 15.112 14.4792 15.112C14.4419 15.112 14.4045 15.112 14.3672 15.112C14.2832 15.112 14.2039 15.1027 14.1292 15.084C14.0545 15.0653 13.9799 15.0373 13.9052 15C13.8305 14.972 13.7699 14.9347 13.7232 14.888C13.6672 14.8413 13.6159 14.7947 13.5692 14.748C13.5319 14.692 13.4899 14.636 13.4432 14.58L13.3172 14.398C13.2612 14.2767 13.2099 14.1507 13.1632 14.02C13.1165 13.8893 13.0839 13.7587 13.0652 13.628C13.0185 13.4413 12.9905 13.2547 12.9812 13.068C12.9812 13.0307 12.9765 12.998 12.9672 12.97C12.9672 12.9327 12.9672 12.9 12.9672 12.872V12.802C12.9672 12.7553 12.9625 12.7133 12.9532 12.676C12.9532 12.6293 12.9532 12.5827 12.9532 12.536C12.9439 12.508 12.9392 12.48 12.9392 12.452C12.9392 12.4147 12.9392 12.382 12.9392 12.354C12.9392 12.3353 12.9392 12.312 12.9392 12.284C12.9485 12.256 12.9532 12.2327 12.9532 12.214C12.9532 12.1113 12.9532 12.018 12.9532 11.934C12.9625 11.8407 12.9719 11.752 12.9812 11.668C12.9905 11.6213 12.9999 11.5793 13.0092 11.542C13.0185 11.4953 13.0232 11.4487 13.0232 11.402C13.0325 11.3367 13.0465 11.276 13.0652 11.22C13.0839 11.164 13.1025 11.1033 13.1212 11.038C13.1492 10.9167 13.1912 10.7767 13.2472 10.618C13.2659 10.5713 13.2845 10.5247 13.3032 10.478C13.3219 10.4313 13.3405 10.3893 13.3592 10.352L13.4012 10.282L13.4712 10.142C13.5179 10.0673 13.5645 9.98332 13.6112 9.88999C13.6579 9.79666 13.7045 9.71266 13.7512 9.63799L13.8912 9.39999L13.9192 9.34399C13.9379 9.32532 13.9519 9.31132 13.9612 9.30199C13.9799 9.28332 13.9985 9.26466 14.0172 9.24599C14.0919 9.16199 14.1665 9.08266 14.2412 9.00799C14.3252 8.92399 14.4092 8.85399 14.4932 8.79799C14.5305 8.77932 14.5632 8.76066 14.5912 8.74199C14.6285 8.72332 14.6659 8.70466 14.7032 8.68599C14.8339 8.61132 14.9505 8.55999 15.0532 8.53199C15.1092 8.51332 15.1559 8.50399 15.1932 8.50399C15.2025 8.49466 15.2072 8.48999 15.2072 8.48999H15.2212C15.2585 8.47132 15.2912 8.46199 15.3192 8.46199C15.3659 8.45266 15.4079 8.44799 15.4452 8.44799C15.4825 8.43866 15.5245 8.43399 15.5712 8.43399C15.7299 8.43399 15.9025 8.46199 16.0892 8.51799C16.2012 8.55532 16.3225 8.60666 16.4532 8.67199C16.6119 8.74666 16.7332 8.83532 16.8172 8.93799H16.8312C16.9059 9.01266 16.9572 9.11999 16.9852 9.25999C17.0039 9.31599 17.0132 9.36266 17.0132 9.39999C17.0412 9.47466 17.0505 9.54466 17.0412 9.60999V9.66599C17.0412 9.69399 17.0319 9.72666 17.0132 9.76399L16.9712 9.83399Z" fill="white"/>
</svg>
