<svg width="24" height="24" viewBox="0 0 24 24" fill="none" xmlns="http://www.w3.org/2000/svg">
<path d="M7.3038 14.004L5.7918 16.944C5.7638 16.9813 5.7358 17 5.7078 17H4.7138C4.64847 17 4.6298 16.972 4.6578 16.916L9.1378 8.32C9.15647 8.28267 9.17514 8.23133 9.1938 8.166C9.2218 8.09133 9.25447 7.97467 9.2918 7.816C9.2918 7.76933 9.31047 7.746 9.3478 7.746H10.6498C10.6871 7.746 10.7105 7.76933 10.7198 7.816L12.2458 16.916C12.2458 16.972 12.2225 17 12.1758 17H11.2378C11.1818 17 11.1445 16.9767 11.1258 16.93L10.6358 14.004H7.3038ZM10.5238 12.982C10.3185 11.7687 10.1598 10.8213 10.0478 10.14C9.94514 9.45867 9.88447 8.98267 9.8658 8.712H9.8518C9.80514 8.84267 9.70247 9.076 9.5438 9.412C9.38514 9.748 9.20314 10.126 8.9978 10.546C8.8018 10.966 8.5918 11.3953 8.3678 11.834C8.1438 12.2727 7.9478 12.6553 7.7798 12.982H10.5238ZM12.8509 18.862C12.8509 18.806 12.8789 18.7967 12.9349 18.834C13.1775 18.9553 13.4389 19.0487 13.7189 19.114C14.0082 19.1887 14.3069 19.226 14.6149 19.226C15.3055 19.226 15.8655 19.0393 16.2949 18.666C16.5282 18.4607 16.7102 18.1993 16.8409 17.882C16.9809 17.5647 17.1115 17.126 17.2329 16.566C16.8409 16.79 16.3695 16.902 15.8189 16.902C15.4642 16.902 15.1375 16.8507 14.8389 16.748C14.5495 16.636 14.2929 16.4727 14.0689 16.258C13.8542 16.0433 13.6862 15.7727 13.5649 15.446C13.4435 15.1193 13.3829 14.7367 13.3829 14.298C13.3829 13.7567 13.4809 13.2293 13.6769 12.716C13.8822 12.2027 14.1669 11.75 14.5309 11.358C14.9042 10.966 15.3522 10.6533 15.8749 10.42C16.3975 10.1773 16.9809 10.056 17.6249 10.056C18.0449 10.056 18.3995 10.0887 18.6889 10.154C18.9875 10.21 19.2349 10.2707 19.4309 10.336C19.4775 10.364 19.4962 10.4013 19.4869 10.448C19.4495 10.5507 19.4169 10.6487 19.3889 10.742C19.3702 10.8353 19.3515 10.9333 19.3329 11.036L18.4369 16.048C18.3809 16.3467 18.3295 16.6033 18.2829 16.818C18.2455 17.0327 18.2035 17.224 18.1569 17.392C18.1102 17.56 18.0635 17.7047 18.0169 17.826C17.9702 17.9567 17.9189 18.0827 17.8629 18.204C17.6855 18.596 17.4755 18.9227 17.2329 19.184C16.9902 19.4453 16.7242 19.6507 16.4349 19.8C16.1455 19.9587 15.8375 20.066 15.5109 20.122C15.1935 20.1873 14.8669 20.22 14.5309 20.22C14.1762 20.22 13.8402 20.1873 13.5229 20.122C13.2055 20.0567 12.9209 19.9587 12.6689 19.828C12.6222 19.8 12.6082 19.7627 12.6269 19.716L12.8509 18.862ZM18.2129 11.12C18.1569 11.092 18.0542 11.0687 17.9049 11.05C17.7649 11.022 17.6062 11.008 17.4289 11.008C17.0275 11.008 16.6495 11.092 16.2949 11.26C15.9402 11.4187 15.6275 11.6427 15.3569 11.932C15.0955 12.212 14.8855 12.5433 14.7269 12.926C14.5775 13.3087 14.5029 13.7193 14.5029 14.158C14.5029 14.41 14.5309 14.6433 14.5869 14.858C14.6429 15.0727 14.7362 15.264 14.8669 15.432C14.9975 15.5907 15.1655 15.7167 15.3709 15.81C15.5855 15.894 15.8469 15.936 16.1549 15.936C16.3322 15.936 16.5282 15.9127 16.7429 15.866C16.9669 15.8193 17.1955 15.7213 17.4289 15.572L18.2129 11.12Z" fill="white"/>
</svg>
