<svg width="24" height="24" viewBox="0 0 24 24" fill="none" xmlns="http://www.w3.org/2000/svg">
<path d="M9.9052 14.018L10.9972 16.916C11.0112 16.972 11.0532 17 11.1092 17H12.2712C12.3412 17 12.3552 16.958 12.3272 16.888C11.1932 13.878 10.0592 10.812 8.9252 7.81597C8.9112 7.75997 8.8972 7.74597 8.8412 7.74597H7.3712C7.3292 7.74597 7.28719 7.77397 7.28719 7.82997C7.2732 8.22197 7.23119 8.33397 7.18919 8.44597C6.25119 10.896 4.85119 14.662 4.02519 16.888C3.99719 16.958 4.0252 17 4.0952 17H5.1732C5.2432 17 5.2712 16.972 5.2992 16.902L6.34919 14.018H9.9052ZM6.65719 12.996C7.18919 11.456 7.8752 9.64997 8.0992 8.78197H8.1132C8.3932 9.71997 9.2892 12.072 9.5972 12.996H6.65719ZM18.0338 12.45C18.0338 13.402 17.4318 13.934 16.5498 13.934C15.6538 13.934 15.0658 13.388 15.0658 12.45C15.0658 11.526 15.7098 10.966 16.5778 10.966C17.5718 10.966 18.0338 11.568 18.0338 12.45ZM19.0278 18.134C19.0278 18.806 18.4118 19.534 16.8578 19.534C15.4858 19.534 14.7438 18.876 14.7438 18.19C14.7438 17.742 15.2058 17.252 15.6538 17.014C15.8638 16.972 16.2418 16.944 16.7038 16.944C18.0338 16.944 19.0278 17.168 19.0278 18.134ZM16.6058 10.112C14.8978 10.112 13.8618 11.12 13.8618 12.464C13.8618 13.57 14.3938 14.158 14.8838 14.424C14.7438 14.648 14.6038 15.082 14.6038 15.376C14.6038 15.74 14.7298 16.118 14.9398 16.398C13.9878 17.056 13.5958 17.672 13.5958 18.232C13.5958 19.492 14.7998 20.458 16.8018 20.458C18.9578 20.458 20.2458 19.352 20.2458 18.008C20.2458 16.412 18.8598 15.95 16.8578 15.95C16.4938 15.95 16.1578 15.978 15.9898 15.978C15.8358 15.838 15.7238 15.558 15.7238 15.306C15.7238 15.124 15.7938 14.83 15.8918 14.704C16.0458 14.746 16.3118 14.788 16.6058 14.788C18.0618 14.788 19.2238 14.018 19.2238 12.478C19.2238 11.764 18.9998 11.386 18.7758 11.148L20.0498 11.19C20.1058 11.19 20.1338 11.176 20.1338 11.12V10.336C20.1338 10.28 20.1058 10.252 20.0498 10.252H18.0338C17.9358 10.252 17.8518 10.238 17.7258 10.21C17.4878 10.154 17.1098 10.112 16.6058 10.112Z" fill="white"/>
</svg>
