<svg width="24" height="24" viewBox="0 0 24 24" fill="none" xmlns="http://www.w3.org/2000/svg">
<path d="M10.3089 13.836H7.39689L6.47289 17H5.38089L8.26489 7.20001H9.42689L12.4089 17H11.2749L10.3089 13.836ZM7.66289 12.8H10.0569L8.83889 8.82401L7.66289 12.8ZM16.3897 19.156C17.0244 18.9787 17.3417 18.5307 17.3417 17.812V16.37C17.0244 16.902 16.469 17.168 15.6757 17.168C14.8544 17.168 14.215 16.944 13.7577 16.496C13.3004 16.048 13.0717 15.3947 13.0717 14.536V12.45C13.0717 11.6287 13.3097 10.994 13.7857 10.546C14.271 10.0887 14.9197 9.86001 15.7317 9.86001C16.105 9.86001 16.4317 9.92534 16.7117 10.056C17.001 10.1773 17.225 10.3593 17.3837 10.602L17.4257 9.98601H18.3497V17.896C18.3497 18.484 18.2144 18.9413 17.9437 19.268C17.6824 19.5947 17.2484 19.8187 16.6417 19.94L16.3897 19.156ZM17.3417 12.38C17.3417 11.8667 17.183 11.4793 16.8657 11.218C16.5577 10.9473 16.161 10.812 15.6757 10.812C15.2184 10.812 14.8357 10.9567 14.5277 11.246C14.229 11.526 14.0797 11.9507 14.0797 12.52V14.564C14.0797 15.096 14.2197 15.5067 14.4997 15.796C14.7797 16.076 15.1717 16.216 15.6757 16.216C16.1797 16.216 16.581 16.0573 16.8797 15.74C17.1877 15.4133 17.3417 14.9467 17.3417 14.34V12.38Z" fill="white"/>
</svg>
