<svg width="24" height="24" viewBox="0 0 24 24" fill="none" xmlns="http://www.w3.org/2000/svg">
<path d="M11.4567 17.154C11.1674 17.154 10.9201 17.0327 10.7147 16.79C10.5187 16.538 10.3274 16.1273 10.1407 15.558C10.0474 15.278 9.96807 15.0073 9.90273 14.746C9.84673 14.4753 9.80473 14.214 9.77673 13.962C9.6554 14.1487 9.5434 14.2747 9.44073 14.34C9.3474 14.396 9.2074 14.424 9.02073 14.424C8.5634 14.424 8.07807 14.4193 7.56473 14.41C7.0514 14.3913 6.59407 14.3773 6.19273 14.368C6.17407 14.536 6.1554 14.7087 6.13673 14.886C6.1274 15.054 6.12273 15.222 6.12273 15.39C6.12273 15.5393 6.1274 15.6887 6.13673 15.838C6.1554 15.9873 6.1694 16.132 6.17873 16.272C6.20673 16.5333 6.10407 16.7433 5.87073 16.902C5.6374 17.0607 5.34807 17.14 5.00273 17.14C4.70407 17.14 4.55473 17.0093 4.55473 16.748C4.55473 16.5893 4.59673 16.3513 4.68073 16.034C4.7274 15.8193 4.76473 15.6373 4.79273 15.488C4.82073 15.3293 4.83473 15.2033 4.83473 15.11C4.83473 14.8487 4.7554 14.6713 4.59673 14.578C4.46607 14.5033 4.40073 14.4053 4.40073 14.284C4.40073 14.172 4.42407 14.0367 4.47073 13.878C4.52673 13.7193 4.59673 13.5747 4.68073 13.444C4.76473 13.304 4.84407 13.206 4.91873 13.15C4.98407 13.1127 5.0634 13.08 5.15673 13.052C5.25007 13.024 5.36673 13.0053 5.50673 12.996C5.87073 11.9507 6.27673 11.05 6.72473 10.294C7.18207 9.52869 7.6674 8.94069 8.18073 8.53002C8.69407 8.11002 9.21673 7.90002 9.74873 7.90002C10.0754 7.90002 10.3134 8.01202 10.4627 8.23602C10.6121 8.45069 10.6867 8.81469 10.6867 9.32802V9.95802C10.6867 10.9007 10.7567 11.7687 10.8967 12.562C11.0367 13.3553 11.2094 13.9993 11.4147 14.494C11.6201 15.0167 11.9047 15.446 12.2687 15.782C12.3807 15.8753 12.4554 15.9593 12.4927 16.034C12.5301 16.0993 12.5487 16.1693 12.5487 16.244C12.5487 16.384 12.4927 16.524 12.3807 16.664C12.2781 16.804 12.1427 16.9207 11.9747 17.014C11.8067 17.1073 11.6341 17.154 11.4567 17.154ZM6.61273 12.912C7.07007 12.8933 7.4714 12.8793 7.81673 12.87C8.16207 12.8513 8.4514 12.842 8.68473 12.842H9.66473C9.64607 12.5807 9.6274 12.3053 9.60873 12.016C9.5994 11.7267 9.59473 11.4233 9.59473 11.106V10.294C9.59473 10.0233 9.56207 9.84602 9.49673 9.76202C9.44073 9.66869 9.32873 9.62202 9.16073 9.62202C8.7034 9.62202 8.24607 9.92069 7.78873 10.518C7.3314 11.1153 6.9394 11.9133 6.61273 12.912ZM14.8569 20.864C14.1569 20.864 13.6015 20.7193 13.1909 20.43C12.7802 20.1407 12.5749 19.7673 12.5749 19.31C12.5749 18.974 12.6775 18.6753 12.8829 18.414C13.0975 18.1527 13.3775 18.022 13.7229 18.022C13.9189 18.022 14.0169 18.078 14.0169 18.19C14.0169 18.2553 14.0029 18.33 13.9749 18.414C13.9562 18.498 13.9469 18.582 13.9469 18.666C13.9469 18.9273 14.0962 19.1187 14.3949 19.24C14.6935 19.3707 15.0529 19.436 15.4729 19.436C15.7342 19.436 16.0002 19.408 16.2709 19.352C16.5415 19.296 16.7655 19.2073 16.9429 19.086C17.1295 18.974 17.2229 18.82 17.2229 18.624C17.2229 18.4093 17.1155 18.2507 16.9009 18.148C16.6862 18.0453 16.4155 17.966 16.0889 17.91C15.7622 17.8633 15.4262 17.8167 15.0809 17.77C14.7449 17.7327 14.4555 17.6673 14.2129 17.574C13.9049 17.4713 13.6762 17.3453 13.5269 17.196C13.3775 17.0467 13.3029 16.8553 13.3029 16.622C13.3029 16.1833 13.5689 15.8333 14.1009 15.572C13.7929 15.4133 13.5595 15.1893 13.4009 14.9C13.2515 14.6107 13.1769 14.2887 13.1769 13.934C13.1769 13.4767 13.2935 13.0473 13.5269 12.646C13.7695 12.2447 14.1242 11.918 14.5909 11.666C15.0669 11.4047 15.6595 11.274 16.3689 11.274C16.6862 11.274 17.0082 11.3067 17.3349 11.372C17.6615 11.428 17.9322 11.54 18.1469 11.708C18.3709 11.8667 18.4829 12.1 18.4829 12.408C18.4829 12.52 18.4595 12.646 18.4129 12.786C18.3662 12.9167 18.2775 12.982 18.1469 12.982C18.0909 12.982 18.0162 12.9727 17.9229 12.954C17.8295 12.926 17.7455 12.9027 17.6709 12.884C17.6895 12.9773 17.7035 13.08 17.7129 13.192C17.7315 13.304 17.7409 13.4207 17.7409 13.542C17.7409 14.0927 17.5542 14.592 17.1809 15.04C16.8075 15.4787 16.2615 15.74 15.5429 15.824C15.2815 15.8427 15.0855 15.8753 14.9549 15.922C14.8335 15.9593 14.7729 16.0293 14.7729 16.132C14.7729 16.2253 14.8289 16.2953 14.9409 16.342C15.0529 16.3793 15.1975 16.4073 15.3749 16.426C15.9442 16.4727 16.4482 16.552 16.8869 16.664C17.3255 16.776 17.6662 16.9533 17.9089 17.196C18.1609 17.448 18.2869 17.8027 18.2869 18.26C18.2869 18.792 18.1282 19.2493 17.8109 19.632C17.5029 20.024 17.0875 20.3273 16.5649 20.542C16.0422 20.7567 15.4729 20.864 14.8569 20.864ZM15.3889 14.606C15.8182 14.606 16.1542 14.4893 16.3969 14.256C16.6395 14.0227 16.7609 13.7193 16.7609 13.346C16.7609 13.2433 16.7515 13.1407 16.7329 13.038C16.7142 12.926 16.6955 12.8327 16.6769 12.758C16.5275 12.7113 16.3829 12.6833 16.2429 12.674C16.1029 12.6553 15.9675 12.646 15.8369 12.646C15.3422 12.646 14.9549 12.7393 14.6749 12.926C14.3949 13.1127 14.2549 13.3693 14.2549 13.696C14.2549 13.9853 14.3575 14.2093 14.5629 14.368C14.7682 14.5267 15.0435 14.606 15.3889 14.606Z" fill="white"/>
</svg>
