<svg width="24" height="24" viewBox="0 0 24 24" fill="none" xmlns="http://www.w3.org/2000/svg">
<path d="M11.8308 16H11.5088L11.3268 15.398L10.4448 13.018H6.21679L5.26479 15.398L5.06879 16H4.73279L8.28879 7.08197H8.56879L11.8308 16ZM8.44279 7.55797H8.38679L6.32879 12.738H10.3468L8.44279 7.55797ZM16.296 9.08397C16.632 9.08397 16.9774 9.1353 17.332 9.23797C17.6867 9.3313 18.032 9.4713 18.368 9.65797L18.284 9.90997H18.214C17.5234 9.53664 16.884 9.34997 16.296 9.34997C15.2974 9.34997 14.5274 9.63464 13.986 10.204C13.454 10.764 13.188 11.576 13.188 12.64C13.188 13.6573 13.4214 14.4367 13.888 14.978C14.3547 15.5193 15.022 15.79 15.89 15.79C16.2447 15.79 16.5714 15.7713 16.87 15.734C17.1687 15.6873 17.5514 15.6033 18.018 15.482V13.438L18.298 13.41V15.678C17.7754 15.818 17.346 15.916 17.01 15.972C16.674 16.0187 16.3007 16.042 15.89 16.042C14.9287 16.042 14.1867 15.748 13.664 15.16C13.1507 14.572 12.894 13.7273 12.894 12.626C12.894 11.4873 13.188 10.6147 13.776 10.008C14.364 9.39197 15.204 9.08397 16.296 9.08397Z" fill="white"/>
</svg>
