<svg width="24" height="24" viewBox="0 0 24 24" fill="none" xmlns="http://www.w3.org/2000/svg">
<path d="M11.826 16H10.678L10.468 15.104L9.96399 13.564L7.94799 13.522L6.12799 13.564L5.58199 15.048L5.35799 16H4.23799L7.52799 7.026H8.82999L11.826 16ZM9.65599 12.612L8.19999 8.188H8.10199L6.47799 12.612L8.04599 12.64L9.65599 12.612ZM18.9257 10.134C18.6364 10.218 18.2071 10.316 17.6377 10.428L17.6097 10.484C17.8151 10.8107 17.9177 11.2073 17.9177 11.674C17.9177 12.3553 17.6891 12.8967 17.2317 13.298C16.7837 13.6993 16.1724 13.9 15.3977 13.9C15.0897 13.9 14.8004 13.8627 14.5297 13.788C14.3711 13.9093 14.2637 14.0073 14.2077 14.082C14.1517 14.1567 14.1237 14.2407 14.1237 14.334C14.1237 14.53 14.2451 14.67 14.4877 14.754C14.7304 14.8287 15.1271 14.908 15.6777 14.992C16.2191 15.0667 16.6624 15.1507 17.0077 15.244C17.3531 15.3373 17.6517 15.4913 17.9037 15.706C18.1557 15.9113 18.2817 16.2007 18.2817 16.574C18.2817 16.966 18.1464 17.3253 17.8757 17.652C17.6144 17.9787 17.2504 18.2353 16.7837 18.422C16.3264 18.6087 15.8224 18.702 15.2717 18.702C14.5251 18.702 13.9417 18.5293 13.5217 18.184C13.1111 17.848 12.9057 17.4093 12.9057 16.868C13.1297 16.42 13.5404 16.014 14.1377 15.65V15.58C13.8017 15.4773 13.5404 15.342 13.3537 15.174C13.1764 14.9967 13.0877 14.7587 13.0877 14.46C13.2837 14.1333 13.5684 13.8487 13.9417 13.606V13.55C13.6431 13.3633 13.4144 13.1207 13.2557 12.822C13.1064 12.514 13.0317 12.1593 13.0317 11.758C13.0317 11.058 13.2557 10.512 13.7037 10.12C14.1611 9.71867 14.7677 9.518 15.5237 9.518C16.0184 9.518 16.4384 9.602 16.7837 9.77C17.4277 9.64867 18.1044 9.49 18.8137 9.294L18.9257 9.378V10.134ZM15.4537 13.144C15.9204 13.144 16.2797 13.0133 16.5317 12.752C16.7931 12.4907 16.9237 12.1267 16.9237 11.66C16.9237 11.212 16.8024 10.8667 16.5597 10.624C16.3171 10.3813 15.9671 10.26 15.5097 10.26C15.0431 10.26 14.6791 10.386 14.4177 10.638C14.1564 10.89 14.0257 11.2493 14.0257 11.716C14.0257 12.164 14.1471 12.514 14.3897 12.766C14.6417 13.018 14.9964 13.144 15.4537 13.144ZM17.3017 16.784C17.3017 16.476 17.1431 16.2613 16.8257 16.14C16.5177 16.0187 16.0464 15.9113 15.4117 15.818L14.9637 15.748C14.6091 15.9627 14.3384 16.168 14.1517 16.364C13.9744 16.56 13.8857 16.7653 13.8857 16.98C13.8857 17.2507 14.0164 17.4747 14.2777 17.652C14.5484 17.8293 14.9217 17.918 15.3977 17.918C15.9391 17.918 16.3917 17.806 16.7557 17.582C17.1197 17.3673 17.3017 17.1013 17.3017 16.784Z" fill="white"/>
</svg>
