<svg width="24" height="24" viewBox="0 0 24 24" fill="none" xmlns="http://www.w3.org/2000/svg">
<path d="M8.62164 17.042L8.67764 16.496C9.15364 16.4587 9.4803 16.4027 9.65764 16.328C9.83497 16.2533 9.92364 16.132 9.92364 15.964C9.92364 15.7773 9.88164 15.5533 9.79764 15.292L9.33564 13.766C9.11164 13.7567 8.6263 13.752 7.87964 13.752C7.43164 13.752 6.92297 13.7893 6.35364 13.864L5.83564 15.32C5.75164 15.572 5.70964 15.754 5.70964 15.866C5.70964 16.0713 5.77497 16.2207 5.90564 16.314C6.0363 16.398 6.25097 16.44 6.54964 16.44H7.34764L7.37564 16.496L7.29164 17.098C7.17964 17.0887 6.92297 17.07 6.52164 17.042C6.1203 17.014 5.7283 17 5.34564 17C5.0003 17 4.6783 17.0047 4.37964 17.014C4.0903 17.0233 3.89897 17.0327 3.80563 17.042L3.91763 16.384C4.17897 16.356 4.38897 16.2673 4.54764 16.118C4.7063 15.9593 4.8603 15.6887 5.00964 15.306L7.73964 8.152L8.62164 7.914H8.73364C8.78964 8.138 8.92964 8.656 9.15364 9.468C9.38697 10.28 9.66697 11.2413 9.99364 12.352C10.3296 13.4627 10.6516 14.4847 10.9596 15.418C11.0716 15.7633 11.221 16.006 11.4076 16.146C11.5943 16.286 11.893 16.3747 12.3036 16.412L12.3316 16.468L12.2336 17.042C12.1216 17.042 11.9163 17.0327 11.6176 17.014C11.3283 17.0047 11.039 17 10.7496 17C10.3016 17 9.86764 17.0187 9.44764 17.056C9.03697 17.0933 8.77564 17.1213 8.66364 17.14L8.62164 17.042ZM7.83764 13.178C8.17364 13.178 8.60764 13.1547 9.13964 13.108L8.03364 9.44H7.93564L6.60564 13.178H7.83764ZM16.0027 17.126C14.976 17.126 14.1547 16.8227 13.5387 16.216C12.932 15.6 12.6287 14.774 12.6287 13.738C12.6287 12.9727 12.7967 12.3007 13.1327 11.722C13.4687 11.1433 13.94 10.6953 14.5467 10.378C15.1627 10.0607 15.872 9.902 16.6747 9.902C16.964 9.902 17.272 9.92067 17.5987 9.958C17.9347 9.99533 18.2194 10.0373 18.4527 10.084C18.6954 10.1307 18.8494 10.1587 18.9147 10.168L18.9707 10.252C18.9614 10.2987 18.9334 10.4107 18.8867 10.588C18.8494 10.756 18.8074 10.98 18.7607 11.26C18.7234 11.5307 18.6954 11.82 18.6767 12.128L17.9907 12.184C17.9907 12.1467 17.9954 12.0767 18.0047 11.974C18.014 11.862 18.0187 11.736 18.0187 11.596C18.0187 11.2693 17.8927 11.036 17.6407 10.896C17.3887 10.7467 16.978 10.672 16.4087 10.672C15.578 10.672 14.9387 10.9053 14.4907 11.372C14.052 11.8293 13.8327 12.4967 13.8327 13.374C13.8327 14.3167 14.052 15.0633 14.4907 15.614C14.9294 16.1553 15.522 16.426 16.2687 16.426C16.53 16.426 16.768 16.398 16.9827 16.342C17.1974 16.286 17.3654 16.23 17.4867 16.174C17.6174 16.118 17.6967 16.0807 17.7247 16.062V14.83C17.7247 14.5967 17.6827 14.4427 17.5987 14.368C17.524 14.2933 17.3654 14.256 17.1227 14.256H16.3807L16.3527 14.2L16.4647 13.584C16.502 13.584 16.6747 13.5887 16.9827 13.598C17.3 13.6073 17.622 13.612 17.9487 13.612C18.1634 13.612 18.3734 13.6073 18.5787 13.598C18.7934 13.5793 18.9287 13.5653 18.9847 13.556L19.0407 13.864C18.8914 13.976 18.7887 14.1487 18.7327 14.382C18.686 14.6153 18.6627 15.0167 18.6627 15.586C18.6627 16.006 18.686 16.3233 18.7327 16.538L18.6627 16.65C18.5974 16.678 18.4434 16.7293 18.2007 16.804C17.9674 16.8787 17.6547 16.9487 17.2627 17.014C16.8707 17.0887 16.4507 17.126 16.0027 17.126Z" fill="white"/>
</svg>
