<svg width="24" height="24" viewBox="0 0 24 24" fill="none" xmlns="http://www.w3.org/2000/svg">
<path d="M3.00391 17L6.53125 6.9375H8.1582L11.6582 17H9.96289L9.23828 14.9082H5.45117L4.71289 17H3.00391ZM5.83398 13.8008H8.8418L7.35156 9.45312L5.83398 13.8008ZM15.2676 17.998C15.3587 18.153 15.4727 18.2806 15.6094 18.3809C15.7552 18.4811 15.901 18.5586 16.0469 18.6133C16.2018 18.668 16.3522 18.7044 16.498 18.7227C16.653 18.75 16.7897 18.7637 16.9082 18.7637C17.4733 18.7637 17.9154 18.5996 18.2344 18.2715C18.5534 17.9434 18.7129 17.3828 18.7129 16.5898V16.2344V16.207L18.7266 16.1387C18.7266 16.1296 18.722 16.1204 18.7129 16.1113C18.7129 16.1022 18.7129 16.0931 18.7129 16.084C18.6855 16.2025 18.6035 16.321 18.4668 16.4395C18.3392 16.5579 18.1751 16.6673 17.9746 16.7676C17.7741 16.8587 17.5462 16.9316 17.291 16.9863C17.0358 17.041 16.7715 17.0684 16.498 17.0684C15.9876 17.0684 15.541 16.959 15.1582 16.7402C14.7754 16.5124 14.4564 16.2116 14.2012 15.8379C13.946 15.4642 13.7591 15.0358 13.6406 14.5527C13.5221 14.0697 13.4629 13.5638 13.4629 13.0352C13.4629 12.3242 13.5586 11.7272 13.75 11.2441C13.9505 10.7611 14.2012 10.3691 14.502 10.0684C14.8118 9.75846 15.1536 9.53971 15.5273 9.41211C15.9102 9.28451 16.2839 9.2207 16.6484 9.2207C17.0951 9.2207 17.5007 9.29818 17.8652 9.45312C18.2389 9.60807 18.5215 9.81315 18.7129 10.0684L18.8906 9.28906H20.3672L20.3535 17C20.3171 17.556 20.2031 18.0299 20.0117 18.4219C19.8294 18.8138 19.5924 19.1374 19.3008 19.3926C19.0091 19.6478 18.6719 19.8301 18.2891 19.9395C17.9062 20.0488 17.4961 20.1035 17.0586 20.1035C16.5482 20.1035 16.0423 20.0124 15.541 19.8301C15.0488 19.6569 14.6387 19.3607 14.3105 18.9414L15.2676 17.998ZM18.8223 13.0898C18.8223 12.7253 18.7767 12.388 18.6855 12.0781C18.5944 11.7682 18.4714 11.4948 18.3164 11.2578C18.1615 11.0208 17.9701 10.834 17.7422 10.6973C17.5143 10.5605 17.2682 10.4922 17.0039 10.4922C16.7305 10.4922 16.4798 10.5651 16.252 10.7109C16.0332 10.8477 15.8464 11.0345 15.6914 11.2715C15.5365 11.5085 15.418 11.7865 15.3359 12.1055C15.2539 12.4245 15.2129 12.7617 15.2129 13.1172C15.2129 13.4818 15.2539 13.8281 15.3359 14.1562C15.4271 14.4753 15.5501 14.7533 15.7051 14.9902C15.8691 15.2272 16.0605 15.4186 16.2793 15.5645C16.5072 15.7012 16.7578 15.7695 17.0312 15.7695C17.3138 15.7695 17.5645 15.7012 17.7832 15.5645C18.002 15.4186 18.1842 15.2272 18.3301 14.9902C18.485 14.7441 18.6035 14.457 18.6855 14.1289C18.7767 13.8008 18.8223 13.4544 18.8223 13.0898Z" fill="white"/>
</svg>
