<svg width="24" height="24" viewBox="0 0 24 24" fill="none" xmlns="http://www.w3.org/2000/svg">
<path d="M11.2663 7.52199C11.1356 8.17532 11.0469 8.84732 11.0003 9.53799C10.9536 10.2287 10.9303 11.3393 10.9303 12.87C10.9303 14.4007 10.9909 15.614 11.1123 16.51C11.6069 16.5567 12.1203 16.6453 12.6523 16.776L12.6103 17.112C11.9196 17.0373 11.1683 17 10.3563 17C9.55358 17 8.90491 17.0373 8.41025 17.112L8.35425 16.762C8.77425 16.6313 9.22225 16.5333 9.69825 16.468C9.77291 15.852 9.82425 14.858 9.85225 13.486C9.36691 13.43 8.83025 13.402 8.24225 13.402C7.66358 13.402 7.17358 13.43 6.77225 13.486C6.54825 14.4007 6.43625 15.1333 6.43625 15.684C6.43625 16.2347 6.63691 16.6267 7.03825 16.86L6.98225 17.056C6.69291 17.0187 6.20291 17 5.51225 17C4.83091 17 4.21491 17.0373 3.66425 17.112L3.60825 16.762C4.02825 16.6313 4.47625 16.5333 4.95225 16.468L7.16425 8.62799C6.06291 8.62799 5.35825 8.77732 5.05025 9.07599C4.98491 9.20666 4.95225 9.41199 4.95225 9.69199C4.95225 9.97199 4.99891 10.1633 5.09225 10.266L5.07825 10.364C4.84491 10.504 4.61158 10.7 4.37825 10.952C4.26625 10.9427 4.17758 10.896 4.11225 10.812C4.03758 10.728 4.00025 10.63 4.00025 10.518C4.00025 10.0607 4.27558 9.51466 4.82625 8.87999C5.37691 8.24532 5.89025 7.84399 6.36625 7.67599C7.77558 7.83466 9.20358 7.96999 10.6503 8.08199C10.7809 7.91399 10.8883 7.69932 10.9723 7.43799L11.2663 7.52199ZM6.92625 12.786C7.34625 12.8513 7.84091 12.884 8.41025 12.884C8.98891 12.884 9.46958 12.8513 9.85225 12.786C9.85225 11.134 9.82891 9.78532 9.78225 8.73999L9.74025 8.69799C9.25491 8.65132 8.65291 8.62799 7.93425 8.62799L6.92625 12.786ZM16.5111 16.188C16.9125 16.188 17.3091 16.0713 17.7011 15.838L17.6311 14.34C17.3698 14.256 17.0525 14.1813 16.6791 14.116L16.7211 13.822C16.9451 13.8407 17.1085 13.85 17.2111 13.85C17.8551 13.85 18.4385 13.6773 18.9611 13.332L19.1011 13.584C18.9891 13.6867 18.8865 13.794 18.7931 13.906C18.6625 15.1753 18.5785 16.2207 18.5411 17.042H18.2471C18.1725 16.6967 18.0605 16.412 17.9111 16.188C17.3698 16.664 16.8238 16.9907 16.2731 17.168C15.3678 17.168 14.6585 16.8833 14.1451 16.314C13.6318 15.7353 13.3751 14.9607 13.3751 13.99C13.3751 13.01 13.6785 12.0907 14.2851 11.232C14.8918 10.3733 15.6665 9.80866 16.6091 9.53799C17.2905 9.53799 18.0605 9.60799 18.9191 9.74799L18.9051 10.056C18.7278 10.056 18.5598 10.0887 18.4011 10.154C18.2238 10.574 18.1071 11.0733 18.0511 11.652H17.7011C17.6265 11.3347 17.5891 11.008 17.5891 10.672C17.2345 10.4947 16.8145 10.406 16.3291 10.406C15.8438 10.406 15.4425 10.5367 15.1251 10.798C14.7518 11.4793 14.5651 12.2867 14.5651 13.22C14.5651 14.144 14.7005 14.872 14.9711 15.404C15.2511 15.9267 15.7645 16.188 16.5111 16.188Z" fill="white"/>
</svg>
