<svg width="24" height="24" viewBox="0 0 24 24" fill="none" xmlns="http://www.w3.org/2000/svg">
<path d="M5.67929 16L8.32529 7.72601H10.6633L10.9433 16H9.12329L9.09529 14.474H7.89129L7.42929 16H5.67929ZM8.01729 13.662H9.17929L9.24929 9.16801L8.01729 13.662ZM13.513 17.666C13.3824 17.666 13.2237 17.6613 13.037 17.652C12.8504 17.6427 12.6684 17.6287 12.491 17.61C12.3137 17.5913 12.1597 17.5727 12.029 17.554C11.9077 17.5447 11.833 17.5353 11.805 17.526L11.917 16.672C12.0477 16.6907 12.2297 16.7093 12.463 16.728C12.6964 16.756 12.897 16.77 13.065 16.77C13.177 16.77 13.2984 16.7607 13.429 16.742C13.569 16.7233 13.7044 16.6813 13.835 16.616C13.9657 16.5507 14.0777 16.448 14.171 16.308C14.2737 16.1773 14.339 15.9907 14.367 15.748L14.507 14.754C14.4417 14.866 14.3577 14.992 14.255 15.132C14.1524 15.2627 14.0077 15.3747 13.821 15.468C13.6437 15.5613 13.3964 15.608 13.079 15.608C12.8924 15.608 12.7104 15.5893 12.533 15.552C12.365 15.5147 12.2204 15.4307 12.099 15.3C11.9777 15.1693 11.8937 14.964 11.847 14.684C11.8097 14.3947 11.8284 14.0073 11.903 13.522L12.309 10.568C12.3744 10.1013 12.505 9.75601 12.701 9.53201C12.897 9.30801 13.1164 9.16334 13.359 9.09801C13.6017 9.02334 13.8257 8.98601 14.031 8.98601C14.227 8.98601 14.409 9.00001 14.577 9.02801C14.745 9.05601 14.885 9.11201 14.997 9.19601C15.1184 9.28001 15.193 9.41534 15.221 9.60201L15.473 9.08401H16.901L16.061 14.964C16.0237 15.3 15.9537 15.6313 15.851 15.958C15.7484 16.2753 15.599 16.56 15.403 16.812C15.2164 17.0733 14.969 17.2787 14.661 17.428C14.353 17.5867 13.9704 17.666 13.513 17.666ZM13.905 14.656C14.0637 14.656 14.1897 14.6187 14.283 14.544C14.3857 14.46 14.465 14.348 14.521 14.208C14.5864 14.0587 14.6284 13.9047 14.647 13.746L15.123 10.26C15.1044 10.2133 15.0764 10.1667 15.039 10.12C15.0017 10.0733 14.9457 10.036 14.871 10.008C14.7964 9.97068 14.6937 9.95201 14.563 9.95201C14.3764 9.95201 14.2224 10.008 14.101 10.12C13.989 10.2227 13.919 10.414 13.891 10.694L13.443 13.942C13.415 14.1007 13.415 14.2313 13.443 14.334C13.471 14.4273 13.5084 14.4973 13.555 14.544C13.611 14.5907 13.667 14.6233 13.723 14.642C13.7884 14.6513 13.849 14.656 13.905 14.656Z" fill="white"/>
</svg>
