<svg width="24" height="24" viewBox="0 0 24 24" fill="none" xmlns="http://www.w3.org/2000/svg">
<path d="M10.7448 17C10.5955 17 10.4835 16.972 10.4088 16.916C10.3435 16.86 10.3108 16.7667 10.3108 16.636V14.802C10.1895 14.718 9.96082 14.6433 9.62482 14.578C9.28882 14.5127 8.97149 14.4707 8.67282 14.452C8.57016 14.648 8.49549 14.886 8.44882 15.166L8.39282 15.446C8.38349 15.5113 8.35549 15.656 8.30882 15.88C8.26216 16.104 8.21082 16.3 8.15482 16.468C8.09882 16.6267 8.04282 16.7527 7.98682 16.846C7.63216 16.846 7.42682 16.7527 7.37082 16.566C7.47349 16.4167 7.59016 15.978 7.72082 15.25L8.18282 12.688C8.38816 11.4747 8.57482 10.4387 8.74282 9.58001C8.92016 8.72134 9.10682 8.00268 9.30282 7.42401C9.51749 6.78001 9.72282 6.45801 9.91882 6.45801C10.1148 6.45801 10.2641 6.49534 10.3668 6.57001C10.3668 6.94334 10.4555 7.84401 10.6328 9.27201C10.8195 10.672 10.9128 11.6287 10.9128 12.142C10.9128 12.6367 10.9641 13.346 11.0668 14.27C11.1601 15.2127 11.2068 15.964 11.2068 16.524C11.2068 16.8413 11.0528 17 10.7448 17ZM10.0168 13.99C10.0915 13.99 10.1848 13.976 10.2968 13.948C10.2688 13.5373 10.2221 13.0287 10.1568 12.422C9.94216 10.3127 9.83482 9.02001 9.83482 8.54401V8.43201C9.74149 8.52534 9.61082 8.95001 9.44282 9.70601C9.28416 10.4527 9.13482 11.2553 8.99482 12.114C8.85482 12.9727 8.78016 13.542 8.77082 13.822C9.16282 13.934 9.57816 13.99 10.0168 13.99ZM14.7013 17.112C14.44 17.112 14.202 17.0653 13.9873 16.972C13.7727 16.8693 13.5907 16.7387 13.4413 16.58C13.32 16.4493 13.208 16.258 13.1053 16.006C13.0027 15.754 12.928 15.5113 12.8813 15.278C12.8347 15.1007 12.7973 14.844 12.7693 14.508C12.7413 14.172 12.7227 13.8827 12.7133 13.64V12.828V12.268C12.7133 11.7267 12.7227 11.2833 12.7413 10.938C12.76 10.518 12.8207 10.0747 12.9233 9.60801C13.0073 9.18801 13.152 8.81934 13.3573 8.50201C13.5533 8.18468 13.8287 7.96534 14.1833 7.84401C14.3513 7.77868 14.5473 7.74601 14.7713 7.74601C15.1727 7.74601 15.3733 7.86268 15.3733 8.09601C15.3733 8.20801 15.3267 8.30134 15.2333 8.37601C15.1493 8.44134 15.0467 8.47401 14.9253 8.47401C14.8693 8.47401 14.818 8.46934 14.7713 8.46001C14.734 8.45068 14.6873 8.44601 14.6313 8.44601C14.4727 8.44601 14.3327 8.53001 14.2113 8.69801C14.09 8.86601 13.9873 9.09934 13.9033 9.39801C13.754 9.97668 13.6513 10.6067 13.5953 11.288C13.558 11.9227 13.5393 12.394 13.5393 12.702C13.5393 13.0193 13.5533 13.4533 13.5813 14.004C13.6187 14.5173 13.698 14.9653 13.8193 15.348C13.8847 15.572 13.9593 15.754 14.0433 15.894C14.1367 16.0247 14.2533 16.1367 14.3933 16.23C14.552 16.3327 14.7153 16.384 14.8833 16.384C15.3313 16.384 15.5553 15.6373 15.5553 14.144V13.5C15.49 13.472 15.3827 13.458 15.2333 13.458H15.1073H14.9533C14.6267 13.458 14.4633 13.3507 14.4633 13.136C14.4633 13.0053 14.5053 12.9073 14.5893 12.842C14.6827 12.7673 14.7993 12.73 14.9393 12.73V12.744H15.1353C15.9753 12.744 16.3953 12.8887 16.3953 13.178C16.3953 13.262 16.372 13.43 16.3253 13.682C16.2693 13.906 16.2413 14.074 16.2413 14.186C16.2413 14.3447 16.2553 14.592 16.2833 14.928L16.3113 15.67C16.3113 16.118 16.1527 16.4727 15.8353 16.734C15.5273 16.986 15.1493 17.112 14.7013 17.112Z" fill="white"/>
</svg>
