<svg width="24" height="24" viewBox="0 0 24 24" fill="none" xmlns="http://www.w3.org/2000/svg">
<path d="M5.48137 13.166L8.39337 6.47399C8.44004 6.38066 8.5147 6.27332 8.61737 6.15199C8.72937 6.02132 8.8227 5.95599 8.89737 5.95599C9.05604 5.95599 9.15404 5.98399 9.19137 6.03999L11.9914 12.97C12.0847 13.1753 12.1547 13.3573 12.2014 13.516C12.248 13.6653 12.304 13.8147 12.3694 13.964C12.4534 14.1507 12.57 14.286 12.7194 14.37C12.878 14.454 13.0274 14.5053 13.1674 14.524C13.3167 14.5427 13.41 14.552 13.4474 14.552C13.4847 14.6173 13.5034 14.7107 13.5034 14.832C13.5127 14.9533 13.5034 15.028 13.4754 15.056C13.2047 15.0373 12.906 15.014 12.5794 14.986C12.2527 14.958 11.94 14.944 11.6414 14.944C11.436 14.944 11.2027 14.9533 10.9414 14.972C10.68 14.9813 10.428 14.9953 10.1854 15.014C9.95204 15.0327 9.75137 15.0467 9.58337 15.056C9.5647 15.028 9.5507 14.9767 9.54137 14.902C9.53204 14.818 9.53204 14.7387 9.54137 14.664C9.5507 14.5893 9.5647 14.552 9.58337 14.552C9.7047 14.552 9.8447 14.5333 10.0034 14.496C10.1714 14.4493 10.302 14.384 10.3954 14.3C10.47 14.2347 10.5074 14.16 10.5074 14.076C10.5074 14.048 10.4794 13.964 10.4234 13.824C10.3674 13.6747 10.2974 13.4973 10.2134 13.292C10.1387 13.0867 10.0594 12.886 9.97537 12.69C9.9007 12.4847 9.83537 12.3167 9.77937 12.186C9.72337 12.0553 9.69537 11.99 9.69537 11.99C9.69537 11.99 9.68137 11.9807 9.65337 11.962C9.6347 11.9433 9.61604 11.934 9.59737 11.934C9.40137 11.9247 9.21004 11.92 9.02337 11.92C8.84604 11.92 8.6827 11.92 8.53337 11.92C8.4867 11.92 8.44004 11.92 8.39337 11.92C8.35604 11.92 8.3187 11.92 8.28137 11.92C8.00137 11.92 7.75404 11.92 7.53937 11.92C7.33404 11.92 7.11004 11.9247 6.86737 11.934C6.83004 11.934 6.79737 11.9573 6.76937 12.004C6.76937 12.004 6.7367 12.074 6.67137 12.214C6.61537 12.354 6.55004 12.5127 6.47537 12.69C6.4007 12.8673 6.33537 13.0213 6.27937 13.152C6.21404 13.32 6.14404 13.5067 6.06937 13.712C6.00404 13.9173 5.97137 14.0433 5.97137 14.09C5.97137 14.202 6.0507 14.2953 6.20937 14.37C6.36804 14.4353 6.53137 14.482 6.69937 14.51C6.8767 14.538 6.98404 14.552 7.02137 14.552C7.06804 14.5987 7.0867 14.6873 7.07737 14.818C7.06804 14.9487 7.05404 15.028 7.03537 15.056C6.80204 15.028 6.57337 15.0047 6.34937 14.986C6.12537 14.958 5.86404 14.944 5.56537 14.944C5.24804 14.944 4.97737 14.958 4.75337 14.986C4.5387 15.0047 4.31004 15.028 4.06737 15.056C4.03937 15.028 4.0207 14.958 4.01137 14.846C4.00204 14.734 4.01137 14.6407 4.03937 14.566C4.09537 14.566 4.1887 14.5473 4.31937 14.51C4.45937 14.4633 4.5947 14.4073 4.72537 14.342C4.86537 14.2767 4.9587 14.2067 5.00537 14.132C5.1267 13.9453 5.21537 13.7867 5.27137 13.656C5.32737 13.516 5.39737 13.3527 5.48137 13.166ZM8.22537 8.48999L7.06337 11.178C7.06337 11.178 7.06337 11.1873 7.06337 11.206C7.0727 11.2153 7.08204 11.22 7.09137 11.22C7.23137 11.2293 7.41804 11.2387 7.65137 11.248C7.8847 11.2573 8.07604 11.262 8.22537 11.262C8.44004 11.262 8.62204 11.262 8.77137 11.262C8.93004 11.2527 9.11204 11.2433 9.31737 11.234C9.33604 11.234 9.34537 11.2247 9.34537 11.206C9.3547 11.1873 9.35937 11.178 9.35937 11.178L8.22537 8.48999ZM17.7372 13.684C18.1572 13.7027 18.5025 13.8053 18.7732 13.992C19.0438 14.1787 19.2398 14.3887 19.3612 14.622C19.4918 14.846 19.5572 15.0373 19.5572 15.196C19.5572 15.6067 19.4545 15.98 19.2492 16.316C19.0438 16.6613 18.7685 16.9553 18.4232 17.198C18.0778 17.45 17.6858 17.6413 17.2472 17.772C16.8178 17.912 16.3698 17.982 15.9032 17.982C15.2312 17.982 14.6805 17.8327 14.2512 17.534C13.8218 17.2447 13.6072 16.8713 13.6072 16.414C13.6072 16.2273 13.6678 16.05 13.7892 15.882C13.9198 15.714 14.0738 15.56 14.2512 15.42C14.4285 15.28 14.6012 15.168 14.7692 15.084C14.5358 15.0187 14.3398 14.8507 14.1812 14.58C14.0318 14.3093 13.9572 14.0293 13.9572 13.74C13.9572 13.656 14.0132 13.558 14.1252 13.446C14.2465 13.3247 14.3958 13.2033 14.5732 13.082C14.7505 12.9513 14.9232 12.8393 15.0912 12.746C14.6992 12.5873 14.3865 12.354 14.1532 12.046C13.9292 11.7287 13.8172 11.374 13.8172 10.982C13.8172 10.5993 13.9245 10.254 14.1392 9.94599C14.3632 9.63799 14.6618 9.39532 15.0352 9.21799C15.4085 9.03132 15.8285 8.93799 16.2952 8.93799C16.6032 8.93799 16.8738 8.96599 17.1072 9.02199C17.3498 9.06866 17.5645 9.15732 17.7512 9.28799C17.7792 9.31599 17.8072 9.32999 17.8352 9.32999L19.5432 9.16199C19.5618 9.17132 19.5898 9.18999 19.6272 9.21799C19.6738 9.23666 19.6972 9.26932 19.6972 9.31599C19.6972 9.34399 19.6785 9.40932 19.6412 9.51199C19.6038 9.61466 19.5572 9.71266 19.5012 9.80599C19.4545 9.89932 19.4078 9.96466 19.3612 10.002C19.2118 9.98332 19.0905 9.96932 18.9972 9.95999C18.9038 9.95066 18.7685 9.93666 18.5912 9.91799C18.5352 9.91799 18.5072 9.93199 18.5072 9.95999C18.6192 10.1093 18.6938 10.2587 18.7312 10.408C18.7778 10.5573 18.8012 10.7253 18.8012 10.912C18.8012 11.2853 18.6938 11.6307 18.4792 11.948C18.2645 12.256 17.9705 12.5033 17.5972 12.69C17.2238 12.8767 16.7992 12.97 16.3232 12.97C16.2018 12.97 16.0805 12.9653 15.9592 12.956C15.8378 12.9467 15.7212 12.9327 15.6092 12.914C15.5345 12.9793 15.4598 13.0493 15.3852 13.124C15.3198 13.1893 15.2872 13.2593 15.2872 13.334C15.2872 13.4367 15.3525 13.5207 15.4832 13.586C15.6232 13.642 15.7725 13.67 15.9312 13.67C15.9965 13.67 16.0618 13.67 16.1272 13.67C16.1925 13.67 16.2625 13.67 16.3372 13.67C16.5705 13.67 16.8178 13.67 17.0792 13.67C17.3405 13.67 17.5598 13.6747 17.7372 13.684ZM16.8412 15.196H15.3292C15.2825 15.252 15.2358 15.3267 15.1892 15.42C15.1425 15.5133 15.1192 15.6393 15.1192 15.798C15.1192 16.246 15.2732 16.5913 15.5812 16.834C15.8892 17.086 16.2812 17.212 16.7572 17.212C17.1958 17.212 17.5318 17.1467 17.7652 17.016C17.9985 16.8947 18.1572 16.7453 18.2412 16.568C18.3252 16.3907 18.3672 16.2273 18.3672 16.078C18.3672 15.7887 18.2225 15.5693 17.9332 15.42C17.6438 15.2707 17.2798 15.196 16.8412 15.196ZM16.2252 9.45599C15.9918 9.45599 15.8192 9.52599 15.7072 9.66599C15.6045 9.80599 15.5392 9.97866 15.5112 10.184C15.4832 10.3893 15.4692 10.5947 15.4692 10.8C15.4692 11.052 15.5018 11.3087 15.5672 11.57C15.6325 11.822 15.7352 12.0367 15.8752 12.214C16.0245 12.382 16.2158 12.466 16.4492 12.466C16.6825 12.466 16.8458 12.4007 16.9392 12.27C17.0325 12.13 17.0885 11.962 17.1072 11.766C17.1258 11.57 17.1352 11.374 17.1352 11.178C17.1352 11.15 17.1352 11.1267 17.1352 11.108C17.1352 10.856 17.1072 10.604 17.0512 10.352C17.0045 10.0907 16.9158 9.87599 16.7852 9.70799C16.6545 9.53999 16.4678 9.45599 16.2252 9.45599Z" fill="white"/>
</svg>
