<svg width="24" height="24" viewBox="0 0 24 24" fill="none" xmlns="http://www.w3.org/2000/svg">
<path d="M2.88359 17H6.49559V16.3L5.25659 16.09L6.12459 13.479L8.13359 8.29197L10.2476 13.514L11.1506 16.083L9.89759 16.3V17H13.7756V16.3L12.5296 16.055L11.2206 12.807L8.73559 6.44397H7.88159L5.33359 13.22L4.19959 16.055L2.88359 16.3V17ZM5.56459 13.864H10.9406L10.7236 13.024L8.33659 13.101L5.85859 13.031L5.56459 13.864ZM13.7676 18.848C13.7676 19.38 14.0569 19.8093 14.6356 20.136C15.2189 20.4627 16.0543 20.626 17.1416 20.626C18.5929 20.626 19.5986 20.395 20.1586 19.933C20.7186 19.471 20.9986 18.911 20.9986 18.253C20.9986 17.693 20.7139 17.3033 20.1446 17.084C19.5799 16.8693 18.7003 16.762 17.5056 16.762C16.5723 16.762 15.9376 16.6943 15.6016 16.559C15.2656 16.4237 15.0976 16.2393 15.0976 16.006C15.0976 15.7727 15.1746 15.5907 15.3286 15.46C15.4826 15.3247 15.6949 15.1893 15.9656 15.054L15.6086 14.585C15.2119 14.7017 14.8759 14.9023 14.6006 15.187C14.3253 15.467 14.1876 15.8217 14.1876 16.251C14.1876 16.853 14.4933 17.2777 15.1046 17.525C15.7206 17.777 16.4626 17.903 17.3306 17.903C18.4879 17.903 19.2113 17.9473 19.5006 18.036C19.7899 18.1247 19.9346 18.3393 19.9346 18.68C19.9346 19.0813 19.7223 19.3823 19.2976 19.583C18.8729 19.7883 18.1939 19.891 17.2606 19.891C16.3553 19.891 15.6879 19.7697 15.2586 19.527C14.8293 19.289 14.6146 18.9997 14.6146 18.659C14.6146 18.3837 14.6823 18.1597 14.8176 17.987C14.9529 17.8143 15.1163 17.658 15.3076 17.518L14.9226 17.259C14.5913 17.4363 14.3159 17.6463 14.0966 17.889C13.8773 18.1317 13.7676 18.4513 13.7676 18.848ZM14.3346 12.597C14.3346 13.4603 14.6029 14.158 15.1396 14.69C15.6763 15.2173 16.3739 15.481 17.2326 15.481C18.0819 15.481 18.7679 15.194 19.2906 14.62C19.8179 14.046 20.0816 13.36 20.0816 12.562C20.0816 11.7127 19.8156 11.0477 19.2836 10.567C18.7516 10.0863 18.0563 9.84597 17.1976 9.84597C16.3436 9.84597 15.6529 10.105 15.1256 10.623C14.5983 11.141 14.3346 11.799 14.3346 12.597ZM15.5596 12.527C15.5596 11.9017 15.7043 11.4327 15.9936 11.12C16.2829 10.8027 16.6889 10.644 17.2116 10.644C17.7016 10.644 18.0959 10.8213 18.3946 11.176C18.6933 11.526 18.8426 12.002 18.8426 12.604C18.8426 13.3367 18.7003 13.8803 18.4156 14.235C18.1309 14.5897 17.7249 14.767 17.1976 14.767C16.7076 14.767 16.3109 14.5757 16.0076 14.193C15.7089 13.8057 15.5596 13.2503 15.5596 12.527ZM17.9676 10.525L21.1036 10.945V9.99997H17.8626L17.9676 10.525Z" fill="white"/>
</svg>
