<svg width="24" height="24" viewBox="0 0 24 24" fill="none" xmlns="http://www.w3.org/2000/svg">
<path d="M4.448 17L7.318 8.05402H8.746L11.616 17H10.734L8.123 8.65602H7.941L5.337 17H4.448ZM5.981 14.186V13.458H10.076V14.186H5.981ZM15.425 14.991C14.529 14.991 13.8406 14.7927 13.36 14.396C12.884 13.9947 12.646 13.416 12.646 12.66V12.422C12.646 11.9553 12.737 11.5493 12.919 11.204C13.1056 10.8587 13.402 10.5857 13.808 10.385C14.214 10.1843 14.746 10.077 15.404 10.063L18.799 9.97202V10.651L16.559 10.595V10.616C16.937 10.6767 17.2426 10.7933 17.476 10.966C17.7093 11.1387 17.8796 11.3557 17.987 11.617C18.0943 11.8783 18.148 12.177 18.148 12.513V12.751C18.148 13.4837 17.917 14.0413 17.455 14.424C16.9976 14.802 16.321 14.991 15.425 14.991ZM15.383 18.925H15.53C15.978 18.925 16.3653 18.89 16.692 18.82C17.0186 18.7547 17.273 18.645 17.455 18.491C17.637 18.337 17.728 18.1317 17.728 17.875V17.854C17.728 17.56 17.623 17.3313 17.413 17.168C17.203 17.0093 16.846 16.909 16.342 16.867L14.452 16.699L14.746 16.692C14.4426 16.734 14.1743 16.7993 13.941 16.888C13.7123 16.9767 13.5303 17.098 13.395 17.252C13.2643 17.406 13.199 17.5997 13.199 17.833V17.847C13.199 18.1177 13.29 18.3323 13.472 18.491C13.654 18.6497 13.9083 18.7617 14.235 18.827C14.5616 18.8923 14.9443 18.925 15.383 18.925ZM15.334 19.618C14.7413 19.618 14.2256 19.5667 13.787 19.464C13.3483 19.3613 13.0076 19.1933 12.765 18.96C12.527 18.7313 12.408 18.421 12.408 18.029V18.001C12.408 17.707 12.4803 17.462 12.625 17.266C12.7743 17.0747 12.975 16.9253 13.227 16.818C13.479 16.7107 13.7543 16.6407 14.053 16.608L14.046 16.587C13.612 16.531 13.2946 16.426 13.094 16.272C12.8933 16.1133 12.793 15.9033 12.793 15.642V15.635C12.793 15.4623 12.8326 15.313 12.912 15.187C12.996 15.061 13.1243 14.963 13.297 14.893C13.4696 14.823 13.6936 14.781 13.969 14.767V14.641L15.096 14.942L14.564 14.928C14.1953 14.9327 13.9386 14.9793 13.794 15.068C13.654 15.152 13.584 15.2757 13.584 15.439V15.446C13.584 15.6233 13.6796 15.7587 13.871 15.852C14.0623 15.9407 14.3936 16.0083 14.865 16.055L16.51 16.223C17.2193 16.293 17.7326 16.461 18.05 16.727C18.372 16.9883 18.533 17.364 18.533 17.854V17.882C18.533 18.2927 18.4093 18.624 18.162 18.876C17.9146 19.1327 17.5646 19.3193 17.112 19.436C16.6593 19.5573 16.1273 19.618 15.516 19.618H15.334ZM15.418 14.354C15.8426 14.354 16.1973 14.291 16.482 14.165C16.7666 14.0343 16.9813 13.8407 17.126 13.584C17.2706 13.3273 17.343 13.0147 17.343 12.646V12.401C17.343 12.037 17.2706 11.729 17.126 11.477C16.986 11.2203 16.776 11.0267 16.496 10.896C16.2206 10.7653 15.873 10.7 15.453 10.7H15.404C14.942 10.7 14.5663 10.7723 14.277 10.917C13.9923 11.057 13.7846 11.2553 13.654 11.512C13.5233 11.7687 13.458 12.0673 13.458 12.408V12.639C13.458 13.0123 13.5303 13.3273 13.675 13.584C13.8196 13.836 14.0366 14.0273 14.326 14.158C14.6153 14.2887 14.9793 14.354 15.418 14.354Z" fill="white"/>
</svg>
