<svg width="24" height="24" viewBox="0 0 24 24" fill="none" xmlns="http://www.w3.org/2000/svg">
<path d="M5.94478 16H4.76878L7.56878 7.05396H9.40278L12.2098 16H11.0338L8.57678 7.83795H8.40178L5.94478 16ZM10.5228 13.361H6.44878V12.395H10.5228V13.361ZM15.9805 13.956C15.0518 13.956 14.3378 13.753 13.8385 13.347C13.3438 12.941 13.0965 12.36 13.0965 11.604V11.429C13.0965 10.9577 13.1922 10.547 13.3835 10.197C13.5795 9.84695 13.8898 9.57396 14.3145 9.37796C14.7392 9.17729 15.2945 9.06763 15.9805 9.04895L19.4665 8.93696V9.83296L17.4085 9.76295L17.4015 9.81196C17.7235 9.87729 17.9872 9.98928 18.1925 10.148C18.3978 10.3067 18.5495 10.505 18.6475 10.743C18.7502 10.981 18.8015 11.2587 18.8015 11.576V11.73C18.8015 12.4533 18.5635 13.0063 18.0875 13.389C17.6115 13.767 16.9092 13.956 15.9805 13.956ZM15.9315 17.722H16.0925C16.5125 17.722 16.8718 17.6893 17.1705 17.624C17.4738 17.5633 17.7072 17.4653 17.8705 17.33C18.0338 17.1947 18.1155 17.015 18.1155 16.791V16.763C18.1155 16.5017 18.0198 16.301 17.8285 16.161C17.6418 16.0257 17.3198 15.937 16.8625 15.895L14.9305 15.72L15.2525 15.706C14.9912 15.7433 14.7602 15.804 14.5595 15.888C14.3635 15.972 14.2095 16.0817 14.0975 16.217C13.9855 16.357 13.9295 16.5297 13.9295 16.735V16.749C13.9295 16.987 14.0112 17.1783 14.1745 17.323C14.3378 17.4677 14.5688 17.5703 14.8675 17.631C15.1662 17.6917 15.5208 17.722 15.9315 17.722ZM16.0715 18.625H15.8685C15.2525 18.625 14.7205 18.5713 14.2725 18.464C13.8292 18.3613 13.4838 18.191 13.2365 17.953C12.9938 17.7197 12.8725 17.4047 12.8725 17.008V16.98C12.8725 16.7 12.9378 16.4667 13.0685 16.28C13.2038 16.0933 13.3835 15.9463 13.6075 15.839C13.8362 15.7317 14.0905 15.6593 14.3705 15.622L14.3635 15.58C13.9808 15.5147 13.6985 15.4027 13.5165 15.244C13.3345 15.0807 13.2435 14.8707 13.2435 14.614V14.607C13.2435 14.4297 13.2832 14.278 13.3625 14.152C13.4465 14.026 13.5702 13.9257 13.7335 13.851C13.9015 13.7763 14.1138 13.7297 14.3705 13.711V13.571L15.6725 13.9L15.1405 13.886C14.8232 13.8907 14.6038 13.9303 14.4825 14.005C14.3612 14.075 14.3005 14.1823 14.3005 14.327V14.334C14.3005 14.488 14.3868 14.6047 14.5595 14.684C14.7322 14.7633 15.0262 14.8263 15.4415 14.873L17.1005 15.041C17.8238 15.1157 18.3512 15.2907 18.6825 15.566C19.0138 15.8367 19.1795 16.238 19.1795 16.77V16.805C19.1795 17.2297 19.0535 17.5773 18.8015 17.848C18.5495 18.1187 18.1925 18.3147 17.7305 18.436C17.2685 18.562 16.7155 18.625 16.0715 18.625ZM15.9665 13.116C16.3585 13.116 16.6828 13.06 16.9395 12.948C17.2008 12.8313 17.3968 12.6587 17.5275 12.43C17.6628 12.1967 17.7305 11.912 17.7305 11.576V11.408C17.7305 11.0813 17.6652 10.8037 17.5345 10.575C17.4085 10.3463 17.2172 10.1737 16.9605 10.057C16.7038 9.93563 16.3818 9.87496 15.9945 9.87496H15.9525C15.5325 9.87496 15.1895 9.94029 14.9235 10.071C14.6622 10.197 14.4708 10.3767 14.3495 10.61C14.2328 10.8387 14.1745 11.107 14.1745 11.415V11.576C14.1745 11.912 14.2398 12.1943 14.3705 12.423C14.5058 12.6517 14.7065 12.8243 14.9725 12.941C15.2385 13.0577 15.5698 13.116 15.9665 13.116Z" fill="white"/>
</svg>
