<svg width="24" height="24" viewBox="0 0 24 24" fill="none" xmlns="http://www.w3.org/2000/svg">
<path d="M3.91628 16.0001H4.82628L5.76427 13.1861H9.84527L10.7833 16.0001H11.6863L8.44527 6.52905H7.16427L3.91628 16.0001ZM5.92528 12.5771L7.80128 7.06805H7.81527L9.68427 12.5771H5.92528ZM15.4418 19.2341C16.0764 19.2341 16.6178 19.1314 17.0658 18.9261C17.5184 18.7254 17.8848 18.3778 18.1648 17.8831C18.4448 17.3931 18.5848 16.7281 18.5848 15.8881V7.71205H17.9268L17.7238 9.44105V15.9511C17.7238 16.9731 17.5184 17.6801 17.1078 18.0721C16.7018 18.4641 16.1534 18.6601 15.4628 18.6601C15.0474 18.6601 14.6788 18.5901 14.3568 18.4501C14.0394 18.3101 13.7898 18.0931 13.6078 17.7991C13.4258 17.5051 13.3161 17.1038 13.2788 16.5951H12.4248C12.4854 17.5658 12.7888 18.2471 13.3348 18.6391C13.8808 19.0358 14.5831 19.2341 15.4418 19.2341ZM15.1058 16.0561C15.9598 16.0561 16.6714 15.8368 17.2408 15.3981C17.8101 14.9548 18.0948 14.4951 18.0948 14.0191L17.7238 13.4311C17.7238 13.9258 17.4951 14.3831 17.0378 14.8031C16.5804 15.2231 16.0228 15.4331 15.3648 15.4331C14.6881 15.4331 14.1444 15.1741 13.7338 14.6561C13.3278 14.1381 13.1248 13.2001 13.1248 11.8421C13.1248 10.4841 13.3278 9.54605 13.7338 9.02805C14.1444 8.51005 14.6881 8.25105 15.3648 8.25105C16.0228 8.25105 16.5804 8.46105 17.0378 8.88105C17.4951 9.30105 17.7238 9.75838 17.7238 10.2531L18.0878 9.67905C18.0878 9.22638 17.8031 8.77138 17.2338 8.31405C16.6644 7.85672 15.9528 7.62805 15.0988 7.62805C14.1794 7.62805 13.4748 7.96172 12.9848 8.62905C12.4948 9.29172 12.2498 10.3628 12.2498 11.8421C12.2498 13.3121 12.4948 14.3831 12.9848 15.0551C13.4794 15.7224 14.1864 16.0561 15.1058 16.0561Z" fill="white"/>
</svg>
