<svg width="24" height="24" viewBox="0 0 24 24" fill="none" xmlns="http://www.w3.org/2000/svg">
<path d="M3.93387 16.0001H4.55687L6.06187 13.0881H10.3039L10.7869 16.0001H11.4099L9.78587 6.52905H8.89687L3.93387 16.0001ZM6.26487 12.6611L9.27487 6.90705H9.28887L10.2689 12.6611H6.26487ZM14.4859 19.2201C15.0786 19.2201 15.6036 19.1198 16.0609 18.9191C16.5183 18.7231 16.9196 18.3824 17.2649 17.8971C17.6103 17.4164 17.8576 16.7654 18.0069 15.9441L19.4559 7.71205H18.9939L18.5599 9.46205L17.4119 15.9791C17.2253 17.0291 16.8823 17.7641 16.3829 18.1841C15.8836 18.6041 15.2723 18.8141 14.5489 18.8141C14.1149 18.8141 13.7416 18.7394 13.4289 18.5901C13.1209 18.4408 12.9039 18.2121 12.7779 17.9041C12.6519 17.5961 12.6076 17.1714 12.6449 16.6301H12.0639C11.9706 17.5821 12.1433 18.2518 12.5819 18.6391C13.0253 19.0264 13.6599 19.2201 14.4859 19.2201ZM14.7729 16.0561C15.6036 16.0561 16.3293 15.8391 16.9499 15.4051C17.5706 14.9664 17.9206 14.5184 17.9999 14.0611L17.8459 13.5431C17.7573 14.0471 17.4353 14.5184 16.8799 14.9571C16.3246 15.3958 15.7039 15.6151 15.0179 15.6151C14.3086 15.6151 13.7929 15.3421 13.4709 14.7961C13.1489 14.2454 13.1023 13.2608 13.3309 11.8421C13.5596 10.4188 13.9423 9.43405 14.4789 8.88805C15.0203 8.33738 15.6433 8.06205 16.3479 8.06205C17.0339 8.06205 17.5776 8.28372 17.9789 8.72705C18.3803 9.16572 18.5343 9.63472 18.4409 10.1341L18.7699 9.65105C18.8446 9.21705 18.6509 8.77138 18.1889 8.31405C17.7316 7.85205 17.0876 7.62105 16.2569 7.62105C15.3796 7.62105 14.6329 7.94772 14.0169 8.60105C13.4009 9.24972 12.9739 10.3301 12.7359 11.8421C12.4979 13.3448 12.5586 14.4228 12.9179 15.0761C13.2773 15.7294 13.8956 16.0561 14.7729 16.0561Z" fill="white"/>
</svg>
