<svg width="24" height="24" viewBox="0 0 24 24" fill="none" xmlns="http://www.w3.org/2000/svg">
<path d="M2.46649 17L6.07849 7.38196H9.08849L12.7005 17H10.0265L9.45249 15.334H5.61649L5.04249 17H2.46649ZM6.21849 13.458H8.83649L8.15049 11.428C8.11316 11.3253 8.06649 11.1993 8.01049 11.05C7.96383 10.8913 7.91249 10.728 7.85649 10.56C7.80983 10.3827 7.76316 10.2053 7.71649 10.028C7.66983 9.85063 7.62316 9.69663 7.57649 9.56596H7.47849C7.44116 9.74329 7.38516 9.94396 7.31049 10.168C7.24516 10.392 7.17516 10.616 7.10049 10.84C7.03516 11.064 6.97449 11.26 6.91849 11.428L6.21849 13.458ZM14.8578 19.758C14.5311 19.758 14.2231 19.6833 13.9338 19.534C13.6445 19.394 13.4111 19.1887 13.2338 18.918C13.0658 18.6567 12.9818 18.3487 12.9818 17.994C12.9818 17.602 13.0985 17.2707 13.3318 17C13.5745 16.7387 13.8451 16.5427 14.1438 16.412C13.9291 16.272 13.7518 16.0993 13.6118 15.894C13.4811 15.6793 13.4158 15.4413 13.4158 15.18C13.4158 14.816 13.5511 14.508 13.8218 14.256C14.0925 14.004 14.4098 13.836 14.7738 13.752C14.4378 13.5373 14.1625 13.2713 13.9478 12.954C13.7425 12.6367 13.6398 12.282 13.6398 11.89C13.6398 11.3207 13.7891 10.8587 14.0878 10.504C14.3958 10.1493 14.8158 9.88796 15.3478 9.71996C15.8798 9.54263 16.4865 9.45396 17.1678 9.45396C17.4385 9.45396 17.6811 9.46796 17.8958 9.49596C18.1198 9.51463 18.3205 9.54729 18.4978 9.59396C18.8711 9.36996 19.1278 9.13663 19.2678 8.89396C19.4078 8.65129 19.4825 8.45529 19.4918 8.30596H21.4938C21.4938 8.67929 21.4285 8.99663 21.2978 9.25796C21.1671 9.50996 20.9805 9.71529 20.7378 9.87396C20.4951 10.0327 20.2058 10.154 19.8698 10.238C20.1218 10.4433 20.3178 10.6907 20.4578 10.98C20.5978 11.26 20.6678 11.5633 20.6678 11.89C20.6678 12.422 20.5325 12.87 20.2618 13.234C20.0005 13.5887 19.6365 13.8593 19.1698 14.046C18.7031 14.2327 18.1665 14.326 17.5598 14.326H16.4678C16.2065 14.326 16.0105 14.368 15.8798 14.452C15.7585 14.5267 15.6978 14.6293 15.6978 14.76C15.6978 14.8813 15.7538 14.9887 15.8658 15.082C15.9778 15.166 16.1691 15.208 16.4398 15.208H19.2818C20.0005 15.208 20.5511 15.4133 20.9338 15.824C21.3165 16.2253 21.5078 16.7387 21.5078 17.364C21.5078 17.84 21.3771 18.2553 21.1158 18.61C20.8545 18.974 20.5045 19.254 20.0658 19.45C19.6365 19.6553 19.1558 19.758 18.6238 19.758H14.8578ZM15.9638 18.358H18.3858C18.5445 18.358 18.6845 18.3253 18.8058 18.26C18.9271 18.204 19.0205 18.12 19.0858 18.008C19.1605 17.9053 19.1978 17.784 19.1978 17.644C19.1978 17.4107 19.1231 17.2333 18.9738 17.112C18.8245 16.9907 18.6425 16.93 18.4278 16.93H15.9638C15.7491 16.93 15.5671 16.9907 15.4178 17.112C15.2778 17.2427 15.2078 17.4153 15.2078 17.63C15.2078 17.8447 15.2778 18.0173 15.4178 18.148C15.5671 18.288 15.7491 18.358 15.9638 18.358ZM17.1538 12.982C17.5551 12.982 17.8631 12.8887 18.0778 12.702C18.3018 12.5153 18.4138 12.2447 18.4138 11.89C18.4138 11.526 18.3018 11.2553 18.0778 11.078C17.8631 10.8913 17.5551 10.798 17.1538 10.798C16.7711 10.798 16.4678 10.8913 16.2438 11.078C16.0198 11.2553 15.9078 11.526 15.9078 11.89C15.9078 12.1233 15.9545 12.324 16.0478 12.492C16.1411 12.6507 16.2811 12.772 16.4678 12.856C16.6545 12.94 16.8831 12.982 17.1538 12.982Z" fill="white"/>
</svg>
