<svg width="24" height="24" viewBox="0 0 24 24" fill="none" xmlns="http://www.w3.org/2000/svg">
<path d="M2.47137 17L6.20937 7.396H8.50537L12.2574 17H10.2834L9.51337 14.956H5.11737L4.34737 17H2.47137ZM5.69137 13.416H8.92537L7.95937 10.812C7.92203 10.7187 7.87537 10.602 7.81937 10.462C7.7727 10.3127 7.72137 10.154 7.66537 9.986C7.60937 9.80867 7.55337 9.63133 7.49737 9.454C7.44137 9.27667 7.39003 9.118 7.34337 8.978H7.27337C7.21737 9.16467 7.14737 9.37933 7.06337 9.622C6.9887 9.86467 6.91403 10.0933 6.83937 10.308C6.7647 10.5227 6.70403 10.6907 6.65737 10.812L5.69137 13.416ZM14.4551 19.548C14.1285 19.548 13.8205 19.4827 13.5311 19.352C13.2418 19.2213 13.0085 19.0253 12.8311 18.764C12.6538 18.512 12.5651 18.1993 12.5651 17.826C12.5651 17.4153 12.6818 17.0933 12.9151 16.86C13.1578 16.6173 13.4238 16.4353 13.7131 16.314C13.4985 16.202 13.3211 16.0527 13.1811 15.866C13.0505 15.6793 12.9851 15.4553 12.9851 15.194C12.9851 14.8393 13.1158 14.5593 13.3771 14.354C13.6385 14.1393 13.9371 13.9993 14.2731 13.934C13.9278 13.7193 13.6618 13.444 13.4751 13.108C13.2978 12.772 13.2091 12.3893 13.2091 11.96C13.2091 11.4467 13.3305 11.008 13.5731 10.644C13.8251 10.2707 14.1891 9.98133 14.6651 9.776C15.1411 9.57067 15.7151 9.468 16.3871 9.468C16.6578 9.468 16.9191 9.48667 17.1711 9.524C17.4231 9.56133 17.6518 9.61733 17.8571 9.692C18.1838 9.496 18.4078 9.27667 18.5291 9.034C18.6505 8.782 18.7158 8.57667 18.7251 8.418H20.3911C20.3911 8.74467 20.3258 9.034 20.1951 9.286C20.0738 9.538 19.9011 9.748 19.6771 9.916C19.4531 10.0747 19.1825 10.1913 18.8651 10.266C19.0985 10.4713 19.2758 10.7187 19.3971 11.008C19.5185 11.2973 19.5791 11.6147 19.5791 11.96C19.5791 12.4733 19.4578 12.9167 19.2151 13.29C18.9818 13.6633 18.6318 13.9527 18.1651 14.158C17.7078 14.3633 17.1431 14.466 16.4711 14.466H15.3371C15.1411 14.466 14.9871 14.508 14.8751 14.592C14.7725 14.676 14.7211 14.7927 14.7211 14.942C14.7211 15.0633 14.7678 15.1707 14.8611 15.264C14.9638 15.3573 15.1038 15.404 15.2811 15.404H18.5011C19.0518 15.404 19.5045 15.586 19.8591 15.95C20.2231 16.3047 20.4051 16.762 20.4051 17.322C20.4051 17.742 20.2931 18.12 20.0691 18.456C19.8545 18.792 19.5511 19.058 19.1591 19.254C18.7671 19.45 18.3098 19.548 17.7871 19.548H14.4551ZM15.0711 18.316H17.7731C17.9505 18.316 18.1045 18.2833 18.2351 18.218C18.3751 18.162 18.4825 18.078 18.5571 17.966C18.6411 17.854 18.6831 17.728 18.6831 17.588C18.6831 17.3453 18.6038 17.1633 18.4451 17.042C18.2958 16.9207 18.1091 16.86 17.8851 16.86H15.0711C14.8471 16.86 14.6605 16.9253 14.5111 17.056C14.3618 17.196 14.2871 17.3733 14.2871 17.588C14.2871 17.8027 14.3571 17.9753 14.4971 18.106C14.6465 18.246 14.8378 18.316 15.0711 18.316ZM16.4011 13.262C16.8958 13.262 17.2645 13.15 17.5071 12.926C17.7591 12.6927 17.8851 12.3707 17.8851 11.96C17.8851 11.5493 17.7591 11.232 17.5071 11.008C17.2645 10.784 16.8958 10.672 16.4011 10.672C15.9065 10.672 15.5331 10.784 15.2811 11.008C15.0385 11.232 14.9171 11.5493 14.9171 11.96C14.9171 12.2307 14.9685 12.464 15.0711 12.66C15.1831 12.856 15.3465 13.0053 15.5611 13.108C15.7851 13.2107 16.0651 13.262 16.4011 13.262Z" fill="white"/>
</svg>
