<svg width="24" height="24" viewBox="0 0 24 24" fill="none" xmlns="http://www.w3.org/2000/svg">
<path d="M3.41406 17L7.2627 6.97852H8.69141L12.793 17H11.2822L10.1133 13.9648H5.92285L4.82227 17H3.41406ZM6.30566 12.8848H9.70312L8.65723 10.1094C8.33822 9.26628 8.10124 8.57357 7.94629 8.03125C7.81868 8.67383 7.63867 9.31185 7.40625 9.94531L6.30566 12.8848ZM13.4697 17.6016L14.666 17.7793C14.7161 18.1484 14.8551 18.4173 15.083 18.5859C15.3883 18.8138 15.8053 18.9277 16.334 18.9277C16.9036 18.9277 17.3434 18.8138 17.6533 18.5859C17.9632 18.3581 18.1729 18.0391 18.2822 17.6289C18.346 17.3783 18.3757 16.8519 18.3711 16.0498C17.8333 16.6833 17.1634 17 16.3613 17C15.3633 17 14.5908 16.64 14.0439 15.9199C13.4971 15.1999 13.2236 14.3363 13.2236 13.3291C13.2236 12.6364 13.349 11.9984 13.5996 11.415C13.8503 10.8271 14.2126 10.3737 14.6865 10.0547C15.165 9.73568 15.7256 9.57617 16.3682 9.57617C17.2249 9.57617 17.9313 9.92253 18.4873 10.6152V9.74023H19.6221V16.0156C19.6221 17.1458 19.5059 17.9456 19.2734 18.415C19.0456 18.889 18.681 19.2627 18.1797 19.5361C17.6829 19.8096 17.07 19.9463 16.3408 19.9463C15.4749 19.9463 14.7754 19.7503 14.2422 19.3584C13.709 18.971 13.4515 18.3854 13.4697 17.6016ZM14.4883 13.2402C14.4883 14.1927 14.6774 14.8877 15.0557 15.3252C15.4339 15.7627 15.9079 15.9814 16.4775 15.9814C17.0426 15.9814 17.5166 15.765 17.8994 15.332C18.2822 14.8945 18.4736 14.2109 18.4736 13.2812C18.4736 12.3926 18.2754 11.7227 17.8789 11.2715C17.487 10.8203 17.013 10.5947 16.457 10.5947C15.9102 10.5947 15.4453 10.818 15.0625 11.2646C14.6797 11.7067 14.4883 12.3652 14.4883 13.2402Z" fill="white"/>
</svg>
