<svg width="24" height="24" viewBox="0 0 24 24" fill="none" xmlns="http://www.w3.org/2000/svg">
<path d="M5.80664 14.1836L4.16602 17H2.74414L8.54102 7.36816H10.0244L12.0205 17H10.6875L10.1748 14.1836H5.80664ZM9.1084 8.35254C9.0765 8.41178 9.04004 8.48014 8.99902 8.55762C8.95801 8.63509 8.91016 8.72396 8.85547 8.82422L6.38086 13.165H9.9834L9.28613 9.38477C9.25423 9.21159 9.22461 9.03841 9.19727 8.86523C9.16992 8.69206 9.1403 8.52116 9.1084 8.35254ZM15.4863 19.9053C14.7161 19.9053 14.1055 19.7617 13.6543 19.4746C13.2077 19.1875 12.9229 18.7568 12.7998 18.1826L13.9141 17.8955C14.069 18.611 14.6022 18.9688 15.5137 18.9688C16.1608 18.9688 16.6621 18.8001 17.0176 18.4629C17.373 18.1302 17.6237 17.5811 17.7695 16.8154C17.806 16.6149 17.8447 16.4167 17.8857 16.2207C17.9268 16.0202 17.9655 15.8219 18.002 15.626H17.9883C17.7103 16.027 17.4619 16.3187 17.2432 16.501C17.0244 16.6787 16.7783 16.8154 16.5049 16.9111C16.236 17.0068 15.9261 17.0547 15.5752 17.0547C14.8779 17.0547 14.3151 16.8268 13.8867 16.3711C13.4629 15.9108 13.251 15.3024 13.251 14.5459C13.251 14.1403 13.2897 13.7096 13.3672 13.2539C13.4447 12.7982 13.554 12.3584 13.6953 11.9346C13.8411 11.5107 14.012 11.1439 14.208 10.834C14.5042 10.3691 14.8643 10.0273 15.2881 9.80859C15.7119 9.58529 16.2132 9.47363 16.792 9.47363C17.3434 9.47363 17.8083 9.60352 18.1865 9.86328C18.5693 10.123 18.8154 10.458 18.9248 10.8682H18.9385C18.9613 10.7542 18.9954 10.6038 19.041 10.417C19.0866 10.2256 19.1322 10.0501 19.1777 9.89062C19.2233 9.72656 19.2529 9.63086 19.2666 9.60352H20.4355L20.3057 10.1641L20.1006 11.1348L19 16.7881C18.7812 17.891 18.3893 18.6862 17.8242 19.1738C17.2591 19.6615 16.4798 19.9053 15.4863 19.9053ZM14.543 14.4502C14.543 15.5804 15.0146 16.1455 15.958 16.1455C16.4502 16.1455 16.8968 15.9655 17.2979 15.6055C17.6989 15.25 18.0088 14.7601 18.2275 14.1357C18.4508 13.5114 18.5625 12.862 18.5625 12.1875C18.5625 11.6178 18.4167 11.1758 18.125 10.8613C17.8333 10.5423 17.4323 10.3828 16.9219 10.3828C16.5117 10.3828 16.1699 10.4671 15.8965 10.6357C15.623 10.8044 15.3929 11.0687 15.2061 11.4287C15.083 11.6657 14.9714 11.9642 14.8711 12.3242C14.7708 12.6797 14.6911 13.0465 14.6318 13.4248C14.5726 13.8031 14.543 14.1449 14.543 14.4502Z" fill="white"/>
</svg>
