<svg width="24" height="24" viewBox="0 0 24 24" fill="none" xmlns="http://www.w3.org/2000/svg">
<path d="M5.38184 14.5391L4.52734 17H2.51074L6.02441 7.36816H8.40332L11.9033 17H9.90723L9.05273 14.5391H5.38184ZM7.21387 8.85156C7.16829 9.03385 7.10449 9.2526 7.02246 9.50781C6.94043 9.76302 6.88118 9.94303 6.84473 10.0479L5.83301 13.0215H8.60156L7.5625 9.98633C7.4987 9.79948 7.43945 9.61035 7.38477 9.41895C7.33008 9.22754 7.27311 9.03841 7.21387 8.85156ZM16.3535 19.9668C15.4512 19.9668 14.7243 19.7936 14.1729 19.4473C13.626 19.1055 13.2887 18.6156 13.1611 17.9775L15.082 17.752C15.1504 18.0482 15.2962 18.2806 15.5195 18.4492C15.7474 18.6178 16.0436 18.7021 16.4082 18.7021C16.9414 18.7021 17.3311 18.5381 17.5771 18.21C17.8232 17.8818 17.9463 17.3942 17.9463 16.7471L17.96 15.626H17.9463C17.7367 16.0817 17.4336 16.4235 17.0371 16.6514C16.6406 16.8747 16.1507 16.9863 15.5674 16.9863C14.7061 16.9863 14.0384 16.6628 13.5645 16.0156C13.0905 15.3685 12.8535 14.4434 12.8535 13.2402C12.8535 12.0326 13.0973 11.1006 13.585 10.4443C14.0726 9.78809 14.7812 9.45996 15.7109 9.45996C16.2487 9.45996 16.7021 9.57161 17.0713 9.79492C17.445 10.0137 17.7367 10.3464 17.9463 10.793H17.9805C17.9805 10.6836 17.985 10.5469 17.9941 10.3828C18.0033 10.2188 18.0146 10.0615 18.0283 9.91113C18.0465 9.76074 18.0625 9.6582 18.0762 9.60352H19.8945C19.8672 10.0957 19.8535 10.6654 19.8535 11.3125V16.7744C19.8535 17.8271 19.555 18.6224 18.958 19.1602C18.361 19.6979 17.4928 19.9668 16.3535 19.9668ZM17.96 13.1992C17.96 12.4382 17.8232 11.8457 17.5498 11.4219C17.2809 10.9935 16.8958 10.7793 16.3945 10.7793C15.8841 10.7793 15.499 10.9844 15.2393 11.3945C14.984 11.8047 14.8564 12.4199 14.8564 13.2402C14.8564 14.0423 14.9818 14.6462 15.2324 15.0518C15.4876 15.4528 15.8704 15.6533 16.3809 15.6533C16.8913 15.6533 17.2809 15.4414 17.5498 15.0176C17.8232 14.5892 17.96 13.9831 17.96 13.1992Z" fill="white"/>
</svg>
