<svg width="24" height="24" viewBox="0 0 24 24" fill="none" xmlns="http://www.w3.org/2000/svg">
<path d="M11.9237 15.23C12.0263 15.538 12.1383 15.7573 12.2597 15.888C12.101 16.0653 11.8817 16.154 11.6017 16.154C11.4243 16.154 11.2703 16.112 11.1397 16.028C11.009 15.9533 10.925 15.8413 10.8877 15.692L10.0337 12.92H6.36567L5.66567 15.258C5.60967 15.4633 5.58167 15.6173 5.58167 15.72C5.58167 15.8693 5.60967 15.9767 5.66567 16.042C5.46967 16.1167 5.26433 16.154 5.04967 16.154C4.62033 16.154 4.40567 15.9813 4.40567 15.636C4.40567 15.5147 4.45233 15.3047 4.54567 15.006L7.51367 6.29797C7.82167 6.17664 8.12967 6.11597 8.43767 6.11597C8.80167 6.11597 9.02567 6.25597 9.10967 6.53597L11.9237 15.23ZM9.83767 12.248L8.18567 6.87197L6.57567 12.248H9.83767ZM15.4348 19.262C14.7535 19.262 14.1841 19.1173 13.7268 18.828C13.2788 18.548 13.0548 18.1327 13.0548 17.582C13.0548 17.274 13.1341 17.022 13.2928 16.826C13.4608 16.6393 13.6708 16.546 13.9228 16.546C14.1841 16.546 14.3708 16.616 14.4828 16.756C14.2215 16.952 14.0908 17.2367 14.0908 17.61C14.0908 17.9927 14.2168 18.282 14.4688 18.478C14.7208 18.6833 15.0568 18.786 15.4768 18.786C16.2701 18.786 16.8535 18.4967 17.2268 17.918C17.6095 17.3487 17.8008 16.4993 17.8008 15.37V14.418C17.6328 14.9407 17.3481 15.3467 16.9468 15.636C16.5455 15.916 16.0555 16.056 15.4768 16.056C13.8248 16.056 12.9988 14.88 12.9988 12.528C12.9988 11.4547 13.2321 10.5493 13.6988 9.81197C14.1748 9.07464 15.0055 8.70597 16.1908 8.70597C16.7135 8.70597 17.2175 8.78064 17.7028 8.92997C18.1975 9.06997 18.5988 9.3033 18.9068 9.62997V15.37C18.9068 17.9647 17.7495 19.262 15.4348 19.262ZM15.7708 15.44C16.4615 15.44 16.9701 15.1553 17.2968 14.586C17.6235 14.0167 17.7915 13.3307 17.8008 12.528L17.8148 9.74197C17.6561 9.57397 17.4321 9.44797 17.1428 9.36397C16.8535 9.27064 16.5315 9.22397 16.1768 9.22397C15.4021 9.22397 14.8748 9.53664 14.5948 10.162C14.3241 10.7873 14.1888 11.6133 14.1888 12.64C14.1888 13.6293 14.3148 14.3433 14.5668 14.782C14.8281 15.2207 15.2295 15.44 15.7708 15.44Z" fill="white"/>
</svg>
