<svg width="24" height="24" viewBox="0 0 24 24" fill="none" xmlns="http://www.w3.org/2000/svg">
<path d="M5.49291 17.028C5.06358 17.028 4.84891 16.9253 4.84891 16.72C4.84891 16.692 4.86291 16.6407 4.89091 16.566C4.91891 16.4913 4.94224 16.4213 4.96091 16.356L8.05491 7.564C8.14824 7.30267 8.44691 7.172 8.95091 7.172H9.73491C10.2482 7.172 10.5236 7.30267 10.5609 7.564L11.8629 16.468C11.8722 16.496 11.8769 16.5427 11.8769 16.608C11.8769 16.6547 11.8722 16.692 11.8629 16.72C11.8442 16.9253 11.6342 17.028 11.2329 17.028H10.5469C10.1082 17.028 9.87024 16.93 9.83291 16.734L9.65091 15.026H7.46691L6.90691 16.734C6.86024 16.93 6.63158 17.028 6.22091 17.028H5.49291ZM9.53891 13.318L9.24491 10.35C9.20758 9.88333 9.18891 9.52867 9.18891 9.286H9.11891C8.99758 9.79 8.90424 10.1447 8.83891 10.35L7.88691 13.318H9.53891ZM17.7413 9.65C18.2919 9.65 18.5673 9.76667 18.5673 10L17.9513 15.852C17.8019 17.2613 17.4799 18.2973 16.9853 18.96C16.4999 19.632 15.7859 19.968 14.8433 19.968C14.2459 19.968 13.7326 19.884 13.3033 19.716C12.8833 19.5573 12.6546 19.352 12.6173 19.1C12.5986 18.9507 12.5893 18.8107 12.5893 18.68C12.5893 18.4467 12.6126 18.2507 12.6593 18.092C12.7059 17.9333 12.7806 17.854 12.8833 17.854C12.9299 17.854 13.0186 17.8913 13.1493 17.966C13.3453 18.0687 13.5366 18.1527 13.7233 18.218C13.9099 18.2927 14.1293 18.33 14.3813 18.33C14.7919 18.33 15.1186 18.1853 15.3613 17.896C15.6039 17.6067 15.7486 17.182 15.7953 16.622L15.8373 16.216C15.6693 16.44 15.4733 16.6173 15.2493 16.748C15.0346 16.8787 14.8013 16.944 14.5493 16.944C13.8586 16.944 13.3639 16.6733 13.0653 16.132C12.7759 15.5907 12.6313 14.8907 12.6313 14.032C12.6313 12.772 12.8506 11.7127 13.2893 10.854C13.7373 9.99533 14.4093 9.566 15.3053 9.566C15.8186 9.566 16.2713 9.80867 16.6633 10.294C16.7193 10.1073 16.7706 9.97667 16.8173 9.902C16.8733 9.818 16.9573 9.75733 17.0693 9.72C17.1813 9.67333 17.3493 9.65 17.5733 9.65H17.7413ZM16.2293 12.45C16.2946 11.974 16.3459 11.652 16.3833 11.484C16.2153 11.2973 16.0286 11.204 15.8233 11.204C15.4126 11.204 15.1233 11.4793 14.9553 12.03C14.7873 12.5713 14.7033 13.2247 14.7033 13.99C14.7033 14.4007 14.7499 14.7133 14.8433 14.928C14.9366 15.1427 15.0906 15.25 15.3053 15.25C15.4453 15.25 15.5666 15.2033 15.6693 15.11C15.7813 15.0073 15.8933 14.8627 16.0053 14.676L16.2293 12.45Z" fill="white"/>
</svg>
