<svg width="24" height="24" viewBox="0 0 24 24" fill="none" xmlns="http://www.w3.org/2000/svg">
<path d="M4.35977 15.8739C4.74243 14.4179 5.17177 12.9292 5.64777 11.4079C6.1331 9.87728 6.6091 8.51462 7.07577 7.31995H10.0578C10.5244 8.51462 10.9958 9.87728 11.4718 11.4079C11.9571 12.9292 12.3911 14.4179 12.7738 15.8739L10.5898 15.9999C10.4404 15.4772 10.2444 14.6932 10.0018 13.6479H7.13177C6.84243 14.7492 6.64643 15.5332 6.54377 15.9999L4.35977 15.8739ZM9.48377 11.7859C9.2411 10.9459 8.97043 10.0872 8.67177 9.20995H8.46177C8.18177 9.98462 7.90643 10.8432 7.63577 11.7859H9.48377ZM16.7269 18.7579C16.2136 18.7579 15.7282 18.7066 15.2709 18.6039C14.8136 18.5012 14.4262 18.3612 14.1089 18.1839L14.4309 16.4619C14.7576 16.6019 15.1076 16.7139 15.4809 16.7979C15.8636 16.8819 16.2416 16.9239 16.6149 16.9239C16.9976 16.9239 17.2916 16.9052 17.4969 16.8679C17.7116 16.8399 17.9402 16.7792 18.1829 16.6859V15.9719L18.2249 15.1879H18.1129C17.8422 15.4586 17.5622 15.6546 17.2729 15.7759C16.9929 15.8879 16.6429 15.9439 16.2229 15.9439C15.3456 15.9439 14.7016 15.6732 14.2909 15.1319C13.8896 14.5812 13.6889 13.8346 13.6889 12.8919C13.6889 11.7252 13.8989 10.8292 14.3189 10.2039C14.7389 9.56928 15.4156 9.25195 16.3489 9.25195C16.8249 9.25195 17.1982 9.33595 17.4689 9.50395C17.7396 9.67195 17.9869 9.91928 18.2109 10.2459H18.3089L18.3929 9.39195H20.1569V16.6579C20.1569 17.3859 19.8489 17.9179 19.2329 18.2539C18.6169 18.5899 17.7816 18.7579 16.7269 18.7579ZM16.7689 13.9979C17.0769 13.9979 17.3242 13.9559 17.5109 13.8719C17.6976 13.7879 17.8889 13.6432 18.0849 13.4379V11.8139C17.9262 11.6272 17.7442 11.4872 17.5389 11.3939C17.3429 11.2912 17.1002 11.2399 16.8109 11.2399C16.4656 11.2399 16.2089 11.3472 16.0409 11.5619C15.8822 11.7766 15.8029 12.1499 15.8029 12.6819C15.8029 13.5592 16.1249 13.9979 16.7689 13.9979Z" fill="white"/>
</svg>
