<svg width="24" height="24" viewBox="0 0 24 24" fill="none" xmlns="http://www.w3.org/2000/svg">
<path d="M2.56024 16.9999L6.10224 7.64795H8.53824L12.0802 16.9999H9.67224L9.11224 15.3339H5.52824L4.96824 16.9999H2.56024ZM6.13024 13.5419H8.51024L7.30624 9.98595L6.13024 13.5419ZM16.2583 19.8419C15.8756 19.8419 15.4883 19.7906 15.0963 19.6879C14.7043 19.5946 14.3403 19.4266 14.0042 19.1839C13.6683 18.9412 13.3929 18.61 13.1783 18.1899L14.9143 17.5599C15.0449 17.8119 15.2316 17.9846 15.4743 18.0779C15.7169 18.1712 15.9596 18.2179 16.2023 18.2179C16.6503 18.2179 17.0096 18.1106 17.2803 17.8959C17.5509 17.6906 17.6863 17.3593 17.6863 16.9019V15.6559C17.3876 16.0292 17.0423 16.3046 16.6503 16.4819C16.2676 16.6593 15.8803 16.7479 15.4883 16.7479C14.9843 16.7479 14.5036 16.6126 14.0463 16.3419C13.5889 16.0712 13.2156 15.6839 12.9263 15.1799C12.6369 14.6759 12.4923 14.0739 12.4923 13.3739C12.4923 12.5619 12.6369 11.8992 12.9263 11.3859C13.2156 10.8632 13.5843 10.4759 14.0323 10.2239C14.4803 9.97195 14.9423 9.84595 15.4183 9.84595C15.8569 9.84595 16.2769 9.94395 16.6783 10.1399C17.0889 10.3359 17.4249 10.6252 17.6863 11.0079L17.9663 10.0559H19.8003V16.4819C19.8003 17.6392 19.4876 18.4887 18.8623 19.03C18.2369 19.5712 17.3689 19.8419 16.2583 19.8419ZM16.2443 15.0959C16.5243 15.0959 16.7763 15.0447 17.0003 14.9419C17.2336 14.8299 17.4203 14.6432 17.5603 14.3819C17.7003 14.1206 17.7703 13.7659 17.7703 13.3179C17.7703 12.6366 17.6163 12.1652 17.3083 11.9039C17.0096 11.6426 16.6549 11.5119 16.2443 11.5119C15.8243 11.5119 15.4603 11.6519 15.1523 11.9319C14.8536 12.2119 14.7043 12.6552 14.7043 13.2619C14.7043 13.8779 14.8536 14.3399 15.1523 14.6479C15.4603 14.9466 15.8243 15.0959 16.2443 15.0959Z" fill="white"/>
</svg>
