<svg width="24" height="24" viewBox="0 0 24 24" fill="none" xmlns="http://www.w3.org/2000/svg">
<path d="M12.2364 16.91C11.9844 17.078 11.6904 17.2133 11.3544 17.316C11.0277 17.4187 10.6264 17.5027 10.1504 17.568C10.057 16.812 9.94971 16.1073 9.82838 15.454C9.71638 14.7913 9.59038 14.166 9.45038 13.578C8.84371 13.578 8.26504 13.5967 7.71438 13.634C7.17304 13.662 6.65971 13.7087 6.17438 13.774C5.97838 14.278 5.78704 14.7447 5.60038 15.174C5.41371 15.6033 5.22238 16.0047 5.02638 16.378C4.67171 16.3127 4.34038 16.2007 4.03238 16.042C3.73371 15.8833 3.49104 15.692 3.30438 15.468C4.07904 14.0587 4.73238 12.6633 5.26438 11.282C5.79638 9.89134 6.32838 8.16001 6.86038 6.08801C7.22438 6.09734 7.55104 6.12068 7.84038 6.15801C8.12971 6.18601 8.44238 6.23734 8.77838 6.31201C9.61838 7.77734 10.3184 9.37334 10.8784 11.1C11.4477 12.8173 11.9004 14.754 12.2364 16.91ZM7.78438 8.52401C7.61638 9.19601 7.43904 9.84934 7.25238 10.484C7.07504 11.1187 6.88838 11.7253 6.69238 12.304C7.12171 12.248 7.53238 12.206 7.92438 12.178C8.31638 12.1407 8.69904 12.1173 9.07238 12.108C8.88571 11.4547 8.68504 10.8293 8.47038 10.232C8.25571 9.63468 8.02704 9.06534 7.78438 8.52401ZM14.9302 12.178C14.9302 12.9247 15.0422 13.5173 15.2662 13.956C15.4902 14.3947 15.7795 14.614 16.1342 14.614C16.2928 14.614 16.4375 14.5487 16.5682 14.418C16.7082 14.2873 16.8295 14.0913 16.9322 13.83C16.9228 13.1767 16.8808 12.5 16.8062 11.8C16.7315 11.0907 16.6335 10.456 16.5122 9.89601C16.4468 9.88668 16.3815 9.87734 16.3162 9.86801C16.2508 9.85868 16.1855 9.85401 16.1202 9.85401C15.7188 9.85401 15.4202 10.0453 15.2242 10.428C15.0282 10.8107 14.9302 11.394 14.9302 12.178ZM19.0182 13.634C19.0182 15.5287 18.7148 16.9707 18.1082 17.96C17.5108 18.9587 16.6568 19.458 15.5462 19.458C14.7902 19.458 14.1882 19.248 13.7402 18.828C13.2922 18.4173 13.0402 17.8807 12.9842 17.218C13.2175 17.0407 13.4882 16.8913 13.7962 16.77C14.1042 16.6487 14.4168 16.5647 14.7342 16.518C14.8182 17.1153 14.9348 17.5447 15.0842 17.806C15.2428 18.0767 15.4528 18.212 15.7142 18.212C16.0408 18.212 16.3022 17.9647 16.4982 17.47C16.6942 16.9753 16.8248 16.238 16.8902 15.258C16.7128 15.4913 16.5122 15.664 16.2882 15.776C16.0642 15.888 15.8168 15.944 15.5462 15.944C14.7342 15.944 14.0808 15.636 13.5862 15.02C13.1008 14.3947 12.8582 13.5687 12.8582 12.542C12.8582 11.2633 13.1615 10.2833 13.7682 9.60201C14.3842 8.91134 15.2662 8.56601 16.4142 8.56601C16.7222 8.56601 17.0675 8.60334 17.4502 8.67801C17.8328 8.74334 18.1875 8.83201 18.5142 8.94401C18.6542 9.43868 18.7708 10.148 18.8642 11.072C18.9668 11.9867 19.0182 12.8407 19.0182 13.634Z" fill="white"/>
</svg>
