<svg width="24" height="24" viewBox="0 0 24 24" fill="none" xmlns="http://www.w3.org/2000/svg">
<path d="M7.53586 12.478L6.93386 17.14L5.96786 17.014L7.08786 8.40396C7.40519 8.32929 7.69919 8.28263 7.96986 8.26396C8.24986 8.24529 8.45519 8.23596 8.58586 8.23596C8.72586 8.23596 8.93586 8.24529 9.21586 8.26396C9.49586 8.28263 9.79453 8.32929 10.1119 8.40396L11.2039 17.014L10.2379 17.14L9.63586 12.478H7.53586ZM8.58586 9.13196C8.37119 9.13196 8.16119 9.15529 7.95586 9.20196L7.64786 11.582H9.50986L9.22986 9.20196C9.01519 9.15529 8.80052 9.13196 8.58586 9.13196ZM16.7402 11.904V13.066C16.7402 13.7473 16.5349 14.2933 16.1242 14.704C15.7229 15.1147 15.1629 15.32 14.4442 15.32C14.3789 15.32 14.3135 15.32 14.2482 15.32C14.1829 15.3107 14.1269 15.3013 14.0802 15.292V16.16H14.8222C15.2049 16.16 15.5735 16.2113 15.9282 16.314C16.2922 16.4167 16.5862 16.5987 16.8102 16.86C17.0435 17.1213 17.1602 17.49 17.1602 17.966V18.302L17.6362 18.876C17.2442 19.2307 16.7915 19.4967 16.2782 19.674C15.7742 19.8607 15.2422 19.954 14.6822 19.954C13.6089 19.954 12.6849 19.646 11.9102 19.03L12.3862 18.316C12.8249 18.6333 13.2075 18.8433 13.5342 18.946C13.8702 19.058 14.2529 19.114 14.6822 19.114C15.0462 19.114 15.3589 19.072 15.6202 18.988C15.8815 18.904 16.0962 18.806 16.2642 18.694V18.4C16.2642 17.9333 16.1662 17.5833 15.9702 17.35C15.7835 17.1167 15.4009 17 14.8222 17H13.1702V15.082C12.8342 14.9233 12.5775 14.6807 12.4002 14.354C12.2229 14.0273 12.1342 13.6447 12.1342 13.206V12.716C12.1342 12.2307 12.2462 11.8293 12.4702 11.512C12.6942 11.1947 12.9929 10.9567 13.3662 10.798C13.7489 10.6393 14.1689 10.56 14.6262 10.56C15.2329 10.56 15.7369 10.6347 16.1382 10.784C16.5395 10.924 16.8475 11.05 17.0622 11.162L16.7402 11.904ZM15.8442 11.666C15.6855 11.5913 15.4989 11.5307 15.2842 11.484C15.0695 11.428 14.8222 11.4 14.5422 11.4C14.1035 11.4 13.7395 11.5167 13.4502 11.75C13.1702 11.974 13.0302 12.296 13.0302 12.716V13.206C13.0302 13.6073 13.1562 13.92 13.4082 14.144C13.6695 14.368 14.0055 14.48 14.4162 14.48C14.8455 14.48 15.1862 14.3587 15.4382 14.116C15.6902 13.8733 15.8255 13.5187 15.8442 13.052V11.666Z" fill="white"/>
</svg>
