<svg width="24" height="24" viewBox="0 0 24 24" fill="none" xmlns="http://www.w3.org/2000/svg">
<path d="M9.1416 12.7822V12.6865C9.1416 11.8434 8.98438 10.793 8.66992 9.53516L8.64941 9.4668H8.62891C8.61979 9.4668 8.59701 9.50326 8.56055 9.57617L8.41016 9.85645L8.38965 9.9043L8.3418 9.98633L8.30078 10.0684L8.27344 10.1094L8.22559 10.1982C7.30046 11.7842 6.83789 12.6774 6.83789 12.8779V12.9053C6.83789 12.9554 7.17513 12.9805 7.84961 12.9805H8.7041C8.99577 12.9805 9.1416 12.9144 9.1416 12.7822ZM8.94336 7.40234C9.22591 7.40234 9.44466 7.46615 9.59961 7.59375C9.75911 7.72135 9.89128 7.94922 9.99609 8.27734C10.1009 8.60547 10.3083 9.70605 10.6182 11.5791C10.9326 13.4476 11.1035 14.4479 11.1309 14.5801C11.1628 14.7077 11.238 14.8877 11.3564 15.1201C11.4749 15.348 11.5342 15.5553 11.5342 15.7422V15.9131C11.5342 16.2139 11.3815 16.5055 11.0762 16.7881C10.9486 16.9066 10.7321 16.9658 10.4268 16.9658C10.126 16.9658 9.86621 16.9089 9.64746 16.7949C9.51074 16.7266 9.44238 16.5921 9.44238 16.3916L9.46973 16.0977C9.47884 15.9928 9.4834 15.8356 9.4834 15.626C9.4834 14.9788 9.39681 14.5527 9.22363 14.3477C9.11426 14.2155 8.80436 14.1494 8.29395 14.1494L7.9248 14.1631C7.80176 14.1676 7.67871 14.1699 7.55566 14.1699C6.80371 14.1699 6.33887 14.2406 6.16113 14.3818C5.9834 14.5186 5.76009 14.9128 5.49121 15.5645C5.39551 15.7923 5.32943 16.0179 5.29297 16.2412C5.25651 16.46 5.21777 16.6012 5.17676 16.665C5.04004 16.8747 4.7347 16.9795 4.26074 16.9795H4.08984C3.91211 16.9795 3.76172 16.9385 3.63867 16.8564C3.51562 16.7699 3.4541 16.5898 3.4541 16.3164C3.4541 16.043 3.57487 15.7559 3.81641 15.4551C4.42708 14.694 5.11979 13.5046 5.89453 11.8867C6.66927 10.2643 7.36198 8.97461 7.97266 8.01758C8.23242 7.60742 8.55599 7.40234 8.94336 7.40234ZM17.7275 12.3105C17.7275 11.7637 17.3835 11.4902 16.6953 11.4902H16.6338L16.5654 11.4971C16.0687 11.4971 15.6517 11.7272 15.3145 12.1875C14.8405 12.8346 14.6035 13.4749 14.6035 14.1084V14.2246C14.6035 14.7624 14.6969 15.2044 14.8838 15.5508C15.0251 15.8105 15.2507 15.9404 15.5605 15.9404H15.7246C15.8978 15.9404 16.137 15.8516 16.4424 15.6738C16.7523 15.4915 16.9847 15.2614 17.1396 14.9834C17.5316 14.2861 17.7275 13.4795 17.7275 12.5635V12.3105ZM13.0449 14.5527C13.0449 14.0788 13.1361 13.5752 13.3184 13.042C13.5007 12.5088 13.7604 12.0553 14.0977 11.6816C14.8132 10.8887 15.6403 10.4922 16.5791 10.4922C16.9118 10.4922 17.2422 10.5492 17.5703 10.6631C17.8984 10.777 18.099 10.834 18.1719 10.834C18.2493 10.834 18.3724 10.7907 18.541 10.7041C18.7096 10.6175 18.8783 10.5742 19.0469 10.5742C19.4661 10.5742 19.6758 10.7155 19.6758 10.998V11.1484C19.6758 11.3353 19.5322 11.8981 19.2451 12.8369C19.1904 13.0238 19.0264 13.8532 18.7529 15.3252C18.4795 16.7926 18.2402 17.7314 18.0352 18.1416C17.7207 18.7705 17.2878 19.2422 16.7363 19.5566C16.1895 19.8757 15.5902 20.0352 14.9385 20.0352H14.7402C14.1842 20.0352 13.724 19.9235 13.3594 19.7002C12.9993 19.4769 12.8193 19.2354 12.8193 18.9756C12.8193 18.8525 12.8877 18.7204 13.0244 18.5791C13.1657 18.4424 13.3115 18.374 13.4619 18.374C13.6123 18.374 13.863 18.4515 14.2139 18.6064C14.5648 18.7614 14.8542 18.8389 15.082 18.8389C15.6335 18.8389 16.0664 18.6064 16.3809 18.1416C16.6999 17.6813 16.8594 17.1003 16.8594 16.3984L16.8389 16.3301C16.7751 16.3301 16.6566 16.3734 16.4834 16.46C15.9456 16.7288 15.417 16.8633 14.8975 16.8633C14.3779 16.8633 13.9382 16.6582 13.5781 16.248C13.2227 15.8333 13.0449 15.2682 13.0449 14.5527Z" fill="white"/>
</svg>
