<svg width="24" height="24" viewBox="0 0 24 24" fill="none" xmlns="http://www.w3.org/2000/svg">
<path d="M4.78052 15.124L5.18652 13.234H10.9405L10.5345 15.124H4.78052ZM7.45452 7.22803H10.9125L11.3185 17H9.03652L8.93852 11.456L8.91052 8.85203L7.74852 11.456L5.27052 17H2.91852L7.45452 7.22803ZM19.374 10.028L19.584 9.21603H21.684L20.144 16.524C19.9107 17.616 19.4347 18.4093 18.716 18.904C17.9973 19.408 17.1107 19.66 16.056 19.66C15.356 19.66 14.7353 19.5713 14.194 19.394C13.662 19.226 13.2467 18.9553 12.948 18.582C12.6493 18.218 12.4953 17.7467 12.486 17.168H14.754C14.7727 17.4387 14.9033 17.6253 15.146 17.728C15.398 17.84 15.7247 17.896 16.126 17.896C16.7233 17.896 17.1527 17.7747 17.414 17.532C17.6753 17.2987 17.8527 16.9673 17.946 16.538L18.086 15.866C17.834 16.146 17.5587 16.356 17.26 16.496C16.9707 16.6267 16.6347 16.692 16.252 16.692C15.5893 16.692 15.0247 16.5427 14.558 16.244C14.1007 15.9453 13.7507 15.5533 13.508 15.068C13.2653 14.5827 13.144 14.06 13.144 13.5C13.144 12.828 13.2373 12.2213 13.424 11.68C13.6107 11.1293 13.8813 10.6627 14.236 10.28C14.6 9.88803 15.0387 9.58936 15.552 9.38403C16.0653 9.16936 16.6487 9.06203 17.302 9.06203C17.7127 9.06203 18.1093 9.1507 18.492 9.32803C18.8747 9.49603 19.1687 9.72936 19.374 10.028ZM16.784 15.012C17.1947 15.012 17.54 14.886 17.82 14.634C18.1 14.382 18.3473 14.0553 18.562 13.654L18.884 12.1C18.8467 11.6893 18.6927 11.3627 18.422 11.12C18.1607 10.868 17.8013 10.742 17.344 10.742C16.9147 10.742 16.5507 10.8633 16.252 11.106C15.9627 11.3393 15.7387 11.6473 15.58 12.03C15.4307 12.4127 15.356 12.828 15.356 13.276C15.356 13.808 15.482 14.2327 15.734 14.55C15.986 14.858 16.336 15.012 16.784 15.012Z" fill="white"/>
</svg>
