<svg width="24" height="24" viewBox="0 0 24 24" fill="none" xmlns="http://www.w3.org/2000/svg">
<path d="M4.14453 13.948L4.27053 13.332H9.45053L9.32453 13.948H4.14453ZM7.77053 7.22803H8.55453L10.1225 17H9.46453L8.27453 9.49603L8.05053 7.88603L7.18253 9.49603L2.88453 17H2.14253L7.77053 7.22803ZM19.116 10.798L19.466 9.38403H20.04L18.528 16.482C18.3133 17.49 17.9027 18.2693 17.296 18.82C16.6987 19.38 15.896 19.66 14.888 19.66C14.272 19.66 13.7307 19.5667 13.264 19.38C12.7973 19.1933 12.4333 18.9133 12.172 18.54C11.9107 18.176 11.78 17.7187 11.78 17.168H12.438C12.4473 17.7653 12.662 18.232 13.082 18.568C13.5113 18.904 14.1227 19.072 14.916 19.072C15.7187 19.072 16.372 18.848 16.876 18.4C17.38 17.9613 17.716 17.322 17.884 16.482L18.192 14.97C17.8373 15.4367 17.4127 15.8007 16.918 16.062C16.4327 16.3233 15.9053 16.454 15.336 16.454C14.72 16.454 14.1927 16.328 13.754 16.076C13.3153 15.824 12.9793 15.4787 12.746 15.04C12.522 14.592 12.41 14.0787 12.41 13.5C12.41 12.8653 12.508 12.2867 12.704 11.764C12.9 11.2413 13.1753 10.7933 13.53 10.42C13.8847 10.0373 14.3047 9.74336 14.79 9.53803C15.2847 9.32336 15.826 9.21603 16.414 9.21603C17.0673 9.21603 17.6273 9.3607 18.094 9.65003C18.57 9.93936 18.9107 10.322 19.116 10.798ZM15.364 15.922C16.0267 15.922 16.624 15.726 17.156 15.334C17.688 14.942 18.1267 14.4193 18.472 13.766L18.92 11.596C18.7987 11.0173 18.5047 10.5647 18.038 10.238C17.5713 9.91136 17.0207 9.74803 16.386 9.74803C15.7327 9.74803 15.154 9.9067 14.65 10.224C14.1553 10.5413 13.7633 10.98 13.474 11.54C13.194 12.0907 13.054 12.7347 13.054 13.472C13.054 14.2 13.2593 14.7927 13.67 15.25C14.0807 15.698 14.6453 15.922 15.364 15.922Z" fill="white"/>
</svg>
