<svg width="24" height="24" viewBox="0 0 24 24" fill="none" xmlns="http://www.w3.org/2000/svg">
<path d="M3.68401 17L6.64501 7.89999L6.89001 6.49999L8.40901 6.35999L11.895 17H10.495L9.45901 13.85H5.99401L4.97201 17H3.68401ZM7.72301 7.47999L7.47101 9.29999L6.33701 12.8H9.11601L7.97501 9.29999L7.72301 7.47999ZM18.0255 16.055L17.4165 16.825C17.3745 16.853 17.3138 16.8833 17.2345 16.916C17.1598 16.9487 17.0665 16.979 16.9545 17.007C16.8425 17.0397 16.7118 17.0653 16.5625 17.084C16.4131 17.1073 16.2475 17.119 16.0655 17.119C15.6408 17.119 15.2441 17.0163 14.8755 16.811C14.5115 16.601 14.1941 16.3187 13.9235 15.964C13.6528 15.6047 13.4405 15.187 13.2865 14.711C13.1325 14.2303 13.0555 13.7217 13.0555 13.185C13.0555 12.639 13.1255 12.1233 13.2655 11.638C13.4055 11.1527 13.6155 10.728 13.8955 10.364C14.1755 9.99999 14.5231 9.71299 14.9385 9.50299C15.3538 9.28832 15.8368 9.18098 16.3875 9.18098C16.5601 9.18098 16.7281 9.18798 16.8915 9.20198C17.0595 9.21598 17.2158 9.24866 17.3605 9.29999L18.0255 10.294V9.15999L19.3555 9.29999V17.322C19.3555 17.7793 19.2761 18.2087 19.1175 18.61C18.9635 19.0113 18.7395 19.359 18.4455 19.653C18.1515 19.9517 17.7921 20.1873 17.3675 20.36C16.9475 20.5327 16.4715 20.619 15.9395 20.619C15.5708 20.619 15.2465 20.5723 14.9665 20.479C14.6911 20.3857 14.4555 20.283 14.2595 20.171C14.0355 20.0403 13.8418 19.8887 13.6785 19.716L14.3645 18.946C14.4998 19.0487 14.6515 19.142 14.8195 19.226C14.9641 19.296 15.1321 19.359 15.3235 19.415C15.5148 19.471 15.7225 19.499 15.9465 19.499C16.2358 19.499 16.5065 19.4383 16.7585 19.317C17.0105 19.2003 17.2298 19.0393 17.4165 18.834C17.6078 18.6287 17.7571 18.386 17.8645 18.106C17.9718 17.8307 18.0255 17.5343 18.0255 17.217V16.055ZM18.0255 11.162C17.8995 11.0033 17.7525 10.861 17.5845 10.735C17.4398 10.6277 17.2648 10.5297 17.0595 10.441C16.8541 10.3477 16.6185 10.301 16.3525 10.301C16.0725 10.301 15.8298 10.3453 15.6245 10.434C15.4191 10.5227 15.2418 10.6417 15.0925 10.791C14.9478 10.9403 14.8288 11.1153 14.7355 11.316C14.6468 11.512 14.5745 11.722 14.5185 11.946C14.4671 12.1653 14.4321 12.3893 14.4135 12.618C14.3948 12.842 14.3855 13.059 14.3855 13.269C14.3855 13.6657 14.4275 14.032 14.5115 14.368C14.6001 14.6993 14.7215 14.9863 14.8755 15.229C15.0341 15.467 15.2231 15.6537 15.4425 15.789C15.6665 15.9243 15.9115 15.992 16.1775 15.992C16.4155 15.992 16.6278 15.9663 16.8145 15.915C17.0011 15.8637 17.1691 15.796 17.3185 15.712C17.4678 15.6233 17.5985 15.5253 17.7105 15.418C17.8271 15.306 17.9321 15.1917 18.0255 15.075V11.162Z" fill="white"/>
</svg>
