<svg width="24" height="24" viewBox="0 0 24 24" fill="none" xmlns="http://www.w3.org/2000/svg">
<path d="M8.30383 7.36997H8.24783C8.10783 7.76197 7.93983 8.22864 7.74383 8.76997C7.55716 9.3113 7.36116 9.8713 7.15583 10.45C6.95983 11.0193 6.77316 11.5513 6.59583 12.046L6.52583 12.256C6.46983 12.424 6.39983 12.634 6.31583 12.886C6.23183 13.138 6.14316 13.404 6.04983 13.684C5.95649 13.9547 5.86783 14.2113 5.78383 14.454C5.69983 14.6873 5.63449 14.8787 5.58783 15.028C5.52249 15.056 5.45249 15.0747 5.37783 15.084C5.31249 15.1027 5.22849 15.112 5.12583 15.112C4.97649 15.112 4.84116 15.0747 4.71983 15C4.60783 14.916 4.55183 14.7853 4.55183 14.608C4.55183 14.524 4.56583 14.44 4.59383 14.356C4.62183 14.2627 4.65449 14.1647 4.69183 14.062C4.80383 13.7447 4.93916 13.3573 5.09783 12.9C5.26583 12.4427 5.44783 11.9433 5.64383 11.402C5.83983 10.8607 6.04516 10.3053 6.25983 9.73597C6.47449 9.16664 6.68449 8.6113 6.88983 8.06997C7.09516 7.52864 7.28649 7.03397 7.46383 6.58597C7.53849 6.54864 7.65049 6.5113 7.79983 6.47397C7.94916 6.43664 8.10316 6.41797 8.26183 6.41797C8.44849 6.41797 8.62583 6.44597 8.79383 6.50197C8.97116 6.55797 9.08316 6.6513 9.12983 6.78197C9.35383 7.3233 9.59183 7.9393 9.84383 8.62997C10.1052 9.3113 10.3665 10.0253 10.6278 10.772C10.8892 11.5093 11.1365 12.228 11.3698 12.928C11.6125 13.628 11.8272 14.2627 12.0138 14.832C11.9485 14.916 11.8598 14.9813 11.7478 15.028C11.6452 15.084 11.5285 15.112 11.3978 15.112C11.2205 15.112 11.0852 15.0747 10.9918 15C10.8985 14.916 10.8192 14.7807 10.7538 14.594L9.98383 12.312L9.87183 11.92C9.68516 11.3507 9.48916 10.7767 9.28383 10.198C9.08783 9.6193 8.90116 9.08264 8.72383 8.58797C8.55583 8.0933 8.41583 7.6873 8.30383 7.36997ZM5.97983 12.732L6.34383 11.794H10.2498L10.4738 12.732H5.97983ZM16.0866 14.804C15.5453 14.804 15.046 14.7013 14.5886 14.496C14.1313 14.2813 13.7626 13.936 13.4826 13.46C13.2026 12.984 13.0626 12.354 13.0626 11.57C13.0626 10.8607 13.198 10.268 13.4686 9.79197C13.7486 9.31597 14.1313 8.95664 14.6166 8.71397C15.102 8.4713 15.6573 8.34997 16.2826 8.34997C16.712 8.34997 17.104 8.40597 17.4586 8.51797C17.8226 8.62064 18.126 8.7513 18.3686 8.90997C18.5086 9.0033 18.6206 9.11064 18.7046 9.23197C18.798 9.34397 18.8446 9.48397 18.8446 9.65197V13.978H17.7246V9.66597C17.566 9.5633 17.3653 9.47464 17.1226 9.39997C16.8893 9.31597 16.6093 9.27397 16.2826 9.27397C15.6573 9.27397 15.1533 9.4653 14.7706 9.84797C14.388 10.2307 14.1966 10.8 14.1966 11.556C14.1966 12.396 14.388 12.9933 14.7706 13.348C15.1626 13.7027 15.6433 13.88 16.2126 13.88C16.6233 13.88 16.9546 13.81 17.2066 13.67C17.4586 13.53 17.6593 13.376 17.8086 13.208L17.8646 14.202C17.7246 14.3513 17.5006 14.4913 17.1926 14.622C16.894 14.7433 16.5253 14.804 16.0866 14.804ZM17.7246 15.21V13.74H18.8446V15.28C18.8446 15.896 18.7093 16.3907 18.4386 16.764C18.1773 17.1373 17.8133 17.408 17.3466 17.576C16.8893 17.744 16.3713 17.828 15.7926 17.828C15.326 17.828 14.9246 17.7767 14.5886 17.674C14.2526 17.5713 14.024 17.4873 13.9026 17.422C13.6226 17.2633 13.4826 17.0627 13.4826 16.82C13.4826 16.6893 13.5106 16.5773 13.5666 16.484C13.632 16.4 13.7113 16.3347 13.8046 16.288C14.0006 16.4373 14.276 16.5727 14.6306 16.694C14.9946 16.8247 15.382 16.89 15.7926 16.89C16.418 16.89 16.894 16.7547 17.2206 16.484C17.5566 16.2133 17.7246 15.7887 17.7246 15.21Z" fill="white"/>
</svg>
