<svg width="24" height="24" viewBox="0 0 24 24" fill="none" xmlns="http://www.w3.org/2000/svg">
<path d="M5.88982 7.76798C6.04848 7.67465 6.28648 7.58598 6.60382 7.50198C6.93048 7.41798 7.25715 7.37598 7.58382 7.37598C8.05049 7.37598 8.46115 7.44598 8.81582 7.58598C9.17982 7.71665 9.41315 7.92665 9.51582 8.21598C9.68382 8.70131 9.86582 9.26598 10.0618 9.90998C10.2578 10.554 10.4538 11.2213 10.6498 11.912C10.8458 12.5933 11.0372 13.27 11.2238 13.942C11.4105 14.6047 11.5738 15.1927 11.7138 15.706C11.6018 15.8367 11.4338 15.9393 11.2098 16.014C10.9858 16.098 10.7198 16.14 10.4118 16.14C10.1878 16.14 9.99649 16.1213 9.83782 16.084C9.68848 16.0467 9.56249 15.9907 9.45982 15.916C9.36649 15.8413 9.28715 15.7433 9.22182 15.622C9.16582 15.5007 9.11449 15.3607 9.06782 15.202L8.81582 14.236H6.28182C6.20715 14.516 6.13249 14.8053 6.05782 15.104C5.98315 15.4027 5.90848 15.692 5.83382 15.972C5.70315 16.0187 5.56315 16.056 5.41382 16.084C5.27382 16.1213 5.10115 16.14 4.89582 16.14C4.41982 16.14 4.06515 16.0607 3.83182 15.902C3.60782 15.734 3.49582 15.5053 3.49582 15.216C3.49582 15.0853 3.51448 14.9547 3.55182 14.824C3.58915 14.6933 3.63115 14.5393 3.67782 14.362C3.74315 14.11 3.83182 13.7973 3.94382 13.424C4.06515 13.0507 4.19582 12.6493 4.33582 12.22C4.47582 11.7813 4.62515 11.3333 4.78382 10.876C4.94248 10.4187 5.09182 9.98931 5.23182 9.58798C5.37182 9.17731 5.49782 8.81331 5.60982 8.49598C5.73115 8.17865 5.82448 7.93598 5.88982 7.76798ZM7.56982 9.57398C7.43915 9.96598 7.28982 10.4047 7.12182 10.89C6.96315 11.366 6.81849 11.8513 6.68782 12.346H8.42382C8.29315 11.842 8.15782 11.352 8.01782 10.876C7.88715 10.3907 7.76582 9.95665 7.65382 9.57398H7.56982ZM15.9288 8.98598C16.4608 8.98598 16.9415 9.05598 17.3708 9.19598C17.8095 9.32665 18.1781 9.49931 18.4768 9.71398C18.6635 9.84465 18.8081 9.98931 18.9108 10.148C19.0228 10.3067 19.0788 10.512 19.0788 10.764V15.664C19.0788 16.1587 18.9855 16.5833 18.7988 16.938C18.6121 17.302 18.3555 17.6007 18.0288 17.834C17.7115 18.0767 17.3335 18.254 16.8948 18.366C16.4655 18.478 16.0035 18.534 15.5088 18.534C14.6595 18.534 13.9921 18.4173 13.5068 18.184C13.0215 17.96 12.7788 17.5913 12.7788 17.078C12.7788 16.8633 12.8208 16.672 12.9048 16.504C12.9981 16.3453 13.1008 16.224 13.2128 16.14C13.4835 16.2893 13.7868 16.4153 14.1228 16.518C14.4681 16.6207 14.8228 16.672 15.1868 16.672C15.6908 16.672 16.0921 16.588 16.3908 16.42C16.6895 16.252 16.8388 15.9813 16.8388 15.608V15.384C16.4561 15.552 15.9895 15.636 15.4388 15.636C15.0188 15.636 14.6175 15.5753 14.2348 15.454C13.8615 15.3233 13.5301 15.1273 13.2408 14.866C12.9608 14.5953 12.7321 14.25 12.5548 13.83C12.3868 13.41 12.3028 12.9107 12.3028 12.332C12.3028 11.7627 12.3915 11.268 12.5688 10.848C12.7555 10.428 13.0075 10.0827 13.3248 9.81198C13.6515 9.53198 14.0341 9.32665 14.4728 9.19598C14.9208 9.05598 15.4061 8.98598 15.9288 8.98598ZM16.7968 11.016C16.7315 10.9787 16.6335 10.9413 16.5028 10.904C16.3815 10.8667 16.2275 10.848 16.0408 10.848C15.5835 10.848 15.2381 10.9787 15.0048 11.24C14.7808 11.492 14.6688 11.856 14.6688 12.332C14.6688 12.8733 14.7808 13.2653 15.0048 13.508C15.2381 13.7413 15.5321 13.858 15.8868 13.858C16.2695 13.858 16.5728 13.7693 16.7968 13.592V11.016Z" fill="white"/>
</svg>
