<svg width="24" height="24" viewBox="0 0 24 24" fill="none" xmlns="http://www.w3.org/2000/svg">
<path d="M7.7254 9.00001H7.6554C7.55274 9.31734 7.42674 9.68601 7.2774 10.106C7.12807 10.526 6.97407 10.9647 6.8154 11.422C6.66607 11.87 6.5214 12.3087 6.3814 12.738L6.1994 13.662C6.1434 13.8393 6.08274 14.0353 6.0174 14.25C5.95207 14.4647 5.88674 14.6793 5.8214 14.894C5.75607 15.1087 5.69074 15.314 5.6254 15.51C5.5694 15.6967 5.52274 15.86 5.4854 16C5.39207 16.0373 5.2894 16.07 5.1774 16.098C5.0654 16.126 4.93007 16.14 4.7714 16.14C4.45407 16.14 4.20674 16.0793 4.0294 15.958C3.85207 15.8273 3.7634 15.6453 3.7634 15.412C3.7634 15.3 3.7774 15.1927 3.8054 15.09C3.84274 14.978 3.88474 14.852 3.9314 14.712C4.02474 14.404 4.14607 14.0167 4.2954 13.55C4.45407 13.0833 4.62674 12.5793 4.8134 12.038C5.0094 11.4873 5.2054 10.9413 5.4014 10.4C5.5974 9.85868 5.78407 9.35001 5.9614 8.87401C6.13874 8.39801 6.28807 8.00134 6.4094 7.68401C6.53074 7.61868 6.71274 7.55334 6.9554 7.48801C7.19807 7.42268 7.43607 7.39001 7.6694 7.39001C8.0054 7.39001 8.30874 7.44134 8.5794 7.54401C8.85007 7.63734 9.02274 7.79602 9.0974 8.02002C9.2934 8.52402 9.5034 9.10735 9.7274 9.77002C9.9514 10.4327 10.1754 11.1233 10.3994 11.842C10.6327 12.5607 10.8521 13.2607 11.0574 13.942C11.2721 14.614 11.4587 15.2207 11.6174 15.762C11.5334 15.8647 11.4074 15.9487 11.2394 16.014C11.0714 16.0887 10.8754 16.126 10.6514 16.126C10.3247 16.126 10.0914 16.07 9.9514 15.958C9.82074 15.8367 9.71807 15.6453 9.6434 15.384L9.0974 13.592L8.8874 12.654C8.75674 12.1967 8.61674 11.744 8.4674 11.296C8.31807 10.8387 8.17807 10.414 8.0474 10.022C7.92607 9.62069 7.81874 9.28001 7.7254 9.00001ZM5.3874 13.998L6.0594 12.556H9.5454L9.7974 13.998H5.3874ZM15.516 15.762C14.9653 15.762 14.4566 15.6547 13.99 15.44C13.5233 15.2253 13.1453 14.88 12.856 14.404C12.576 13.9187 12.436 13.2793 12.436 12.486C12.436 11.758 12.5806 11.1467 12.87 10.652C13.1593 10.1573 13.5606 9.78401 14.074 9.53201C14.5873 9.28001 15.1846 9.15402 15.866 9.15402C16.3513 9.15402 16.7946 9.21935 17.196 9.35002C17.6066 9.47135 17.9333 9.61135 18.176 9.77002C18.344 9.88202 18.4746 10.008 18.568 10.148C18.6706 10.288 18.722 10.4653 18.722 10.68V15.048H17V10.848C16.8693 10.7733 16.7153 10.708 16.538 10.652C16.37 10.596 16.1646 10.568 15.922 10.568C15.4086 10.568 14.9933 10.7267 14.676 11.044C14.368 11.352 14.214 11.8327 14.214 12.486C14.214 13.1953 14.3633 13.69 14.662 13.97C14.97 14.25 15.3526 14.39 15.81 14.39C16.146 14.39 16.4213 14.334 16.636 14.222C16.86 14.1007 17.0466 13.9653 17.196 13.816L17.266 15.272C17.0793 15.4027 16.8413 15.5193 16.552 15.622C16.272 15.7153 15.9266 15.762 15.516 15.762ZM17.014 16.014V14.656H18.722V16.084C18.722 16.7187 18.5726 17.2367 18.274 17.638C17.9846 18.0393 17.588 18.3333 17.084 18.52C16.5893 18.7067 16.0293 18.8 15.404 18.8C14.928 18.8 14.508 18.7533 14.144 18.66C13.78 18.576 13.5093 18.478 13.332 18.366C13.024 18.17 12.87 17.9087 12.87 17.582C12.87 17.4047 12.9073 17.246 12.982 17.106C13.0566 16.9753 13.1453 16.8773 13.248 16.812C13.4813 16.9613 13.7706 17.092 14.116 17.204C14.4706 17.3253 14.844 17.386 15.236 17.386C15.796 17.386 16.23 17.274 16.538 17.05C16.8553 16.8353 17.014 16.49 17.014 16.014Z" fill="white"/>
</svg>
