<svg width="24" height="24" viewBox="0 0 24 24" fill="none" xmlns="http://www.w3.org/2000/svg">
<path d="M7.66876 8.91605C7.55676 9.24272 7.42142 9.62538 7.26276 10.0641C7.11342 10.5028 6.95942 10.9554 6.80076 11.4221C6.64209 11.8888 6.48809 12.3414 6.33876 12.7801L6.17076 13.6061C6.11476 13.7834 6.05409 13.9841 5.98876 14.2081C5.92342 14.4228 5.85342 14.6421 5.77876 14.8661C5.71342 15.0901 5.64809 15.3001 5.58276 15.4961C5.51742 15.6921 5.46609 15.8648 5.42876 16.0141C5.33542 16.0421 5.23276 16.0654 5.12076 16.0841C5.01809 16.1121 4.89209 16.1261 4.74276 16.1261C4.45342 16.1261 4.22476 16.0701 4.05676 15.9581C3.88876 15.8368 3.80476 15.6641 3.80476 15.4401C3.80476 15.3374 3.81876 15.2348 3.84676 15.1321C3.88409 15.0201 3.92142 14.8941 3.95876 14.7541C4.05209 14.4461 4.17809 14.0588 4.33676 13.5921C4.49542 13.1254 4.66809 12.6214 4.85476 12.0801C5.05076 11.5388 5.24676 10.9974 5.44276 10.4561C5.64809 9.90538 5.83942 9.38738 6.01676 8.90205C6.19409 8.41672 6.34809 8.00605 6.47876 7.67005C6.59076 7.60472 6.75876 7.54405 6.98276 7.48805C7.21609 7.43205 7.44942 7.40405 7.68276 7.40405C8.00009 7.40405 8.28476 7.45072 8.53676 7.54405C8.79809 7.62805 8.96142 7.77272 9.02676 7.97805C9.23209 8.49138 9.44676 9.08405 9.67076 9.75605C9.89476 10.4188 10.1234 11.1094 10.3568 11.8281C10.5901 12.5468 10.8141 13.2468 11.0288 13.9281C11.2434 14.6094 11.4348 15.2254 11.6028 15.7761C11.5188 15.8788 11.3974 15.9628 11.2388 16.0281C11.0801 16.0934 10.8934 16.1261 10.6788 16.1261C10.3801 16.1261 10.1608 16.0701 10.0208 15.9581C9.89009 15.8461 9.79209 15.6641 9.72676 15.4121L9.13876 13.5641L8.95676 12.6961C8.80742 12.2201 8.65809 11.7488 8.50876 11.2821C8.35942 10.8061 8.21476 10.3674 8.07476 9.96605C7.94409 9.55538 7.83209 9.20538 7.73876 8.91605H7.66876ZM6.03076 12.5981H9.55876L9.82476 13.9561H5.40076L6.03076 12.5981ZM15.53 15.7621C14.9793 15.7621 14.4706 15.6594 14.004 15.4541C13.5373 15.2394 13.164 14.8894 12.884 14.4041C12.604 13.9188 12.464 13.2841 12.464 12.5001C12.464 11.7721 12.604 11.1654 12.884 10.6801C13.1733 10.1854 13.5746 9.81205 14.088 9.56005C14.6013 9.30805 15.194 9.18205 15.866 9.18205C16.342 9.18205 16.7806 9.24272 17.182 9.36405C17.5833 9.48538 17.9053 9.62538 18.148 9.78405C18.3066 9.89605 18.4326 10.0221 18.526 10.1621C18.6286 10.3021 18.68 10.4748 18.68 10.6801V15.0481H17.028V10.8201C16.8973 10.7454 16.7433 10.6801 16.566 10.6241C16.3886 10.5588 16.1693 10.5261 15.908 10.5261C15.3853 10.5261 14.9606 10.6894 14.634 11.0161C14.3073 11.3334 14.144 11.8234 14.144 12.4861C14.144 13.2141 14.3026 13.7274 14.62 14.0261C14.9373 14.3154 15.3293 14.4601 15.796 14.4601C16.1506 14.4601 16.4353 14.3994 16.65 14.2781C16.874 14.1568 17.0606 14.0214 17.21 13.8721L17.28 15.2581C17.1026 15.3888 16.8693 15.5054 16.58 15.6081C16.2906 15.7108 15.9406 15.7621 15.53 15.7621ZM17.056 14.6701H18.68V16.1121C18.68 16.7468 18.5353 17.2601 18.246 17.6521C17.9566 18.0534 17.56 18.3428 17.056 18.5201C16.5613 18.7068 16.006 18.8001 15.39 18.8001C14.914 18.8001 14.494 18.7534 14.13 18.6601C13.7753 18.5668 13.514 18.4688 13.346 18.3661C13.038 18.1794 12.884 17.9274 12.884 17.6101C12.884 17.4421 12.9213 17.2928 12.996 17.1621C13.0706 17.0408 13.1593 16.9474 13.262 16.8821C13.4953 17.0314 13.7846 17.1621 14.13 17.2741C14.4846 17.3861 14.858 17.4421 15.25 17.4421C15.8193 17.4421 16.2626 17.3301 16.58 17.1061C16.8973 16.8821 17.056 16.5274 17.056 16.0421V14.6701Z" fill="white"/>
</svg>
