<svg width="24" height="24" viewBox="0 0 24 24" fill="none" xmlns="http://www.w3.org/2000/svg">
<path d="M5.24624 15.58C5.13424 15.7667 4.97557 15.8973 4.77024 15.972C4.57424 16.0467 4.39691 16.0467 4.23824 15.972C4.07024 15.8973 3.96757 15.7713 3.93024 15.594C3.89291 15.4073 3.93024 15.2253 4.04224 15.048C4.32224 14.5907 4.70957 13.9187 5.20424 13.032C5.69891 12.1453 6.04424 11.5387 6.24024 11.212C6.34291 11.0253 6.74891 10.3627 7.45824 9.22397C8.13957 8.10397 8.67624 7.19397 9.06824 6.49397C9.17091 6.3073 9.31557 6.17197 9.50224 6.08797C9.69824 5.99464 9.88491 5.98064 10.0623 6.04597C10.1369 6.07397 10.2023 6.11597 10.2583 6.17197C10.4263 6.2373 10.5289 6.3633 10.5663 6.54997L12.2463 15.02C12.2836 15.2067 12.2463 15.3933 12.1343 15.58C12.0223 15.7573 11.8636 15.8833 11.6583 15.958C11.4623 16.0327 11.2896 16.0327 11.1403 15.958C10.9909 15.8833 10.8976 15.7573 10.8603 15.58L10.3703 12.934C10.3329 12.9527 10.2909 12.962 10.2443 12.962C8.94691 13.0087 7.76624 13.032 6.70224 13.032C6.02091 14.264 5.53557 15.1133 5.24624 15.58ZM7.54224 11.604C8.32624 11.5947 9.17557 11.576 10.0903 11.548L9.47424 8.48197L7.54224 11.604ZM15.0854 18.884C14.3294 18.884 13.7041 18.7067 13.2094 18.352C12.7241 17.9973 12.4814 17.5353 12.4814 16.966C12.4814 16.714 12.5701 16.504 12.7474 16.336C12.9247 16.1773 13.1207 16.098 13.3354 16.098C13.4847 16.098 13.6154 16.14 13.7274 16.224C13.8394 16.308 13.9001 16.4293 13.9094 16.588V16.896C13.9094 17.1013 14.0307 17.26 14.2734 17.372C14.5254 17.484 14.8334 17.54 15.1974 17.54C15.5614 17.54 15.9114 17.4607 16.2474 17.302C16.5927 17.1433 16.8867 16.9287 17.1294 16.658C17.3907 16.3593 17.5961 15.93 17.7454 15.37C17.1947 15.8087 16.5834 16.028 15.9114 16.028C15.3514 16.028 14.8707 15.9067 14.4694 15.664C14.0681 15.412 13.7601 15.076 13.5454 14.656C13.3401 14.2267 13.2374 13.7507 13.2374 13.228C13.2374 12.4347 13.4101 11.6833 13.7554 10.974C14.1101 10.2647 14.5814 9.6953 15.1694 9.26597C15.7667 8.8273 16.4061 8.60797 17.0874 8.60797C17.4981 8.60797 17.8527 8.67797 18.1514 8.81797C18.4501 8.95797 18.6741 9.14464 18.8234 9.37797C18.9821 8.8553 19.2481 8.59397 19.6214 8.59397C19.8174 8.59397 19.9761 8.66397 20.0974 8.80397C20.2187 8.94397 20.2654 9.1353 20.2374 9.37797C20.1067 10.3673 19.8781 11.702 19.5514 13.382C19.3647 14.2873 19.1687 15.0667 18.9634 15.72C18.7021 16.5787 18.3241 17.2833 17.8294 17.834C17.5307 18.1607 17.1201 18.4173 16.5974 18.604C16.0841 18.7907 15.5801 18.884 15.0854 18.884ZM16.3314 14.67C16.8634 14.67 17.2834 14.5347 17.5914 14.264C17.8994 13.984 18.1047 13.564 18.2074 13.004C18.2914 12.5933 18.3661 12.178 18.4314 11.758L18.5014 11.31C18.5107 11.1513 18.4687 10.9973 18.3754 10.848C18.2821 10.6987 18.1374 10.54 17.9414 10.372C17.8574 10.288 17.7174 10.2087 17.5214 10.134C17.3347 10.0593 17.1294 10.022 16.9054 10.022C16.5321 10.022 16.1447 10.1807 15.7434 10.498C15.4074 10.7687 15.1414 11.1373 14.9454 11.604C14.7587 12.0707 14.6654 12.57 14.6654 13.102C14.6654 13.6247 14.8147 14.0167 15.1134 14.278C15.4214 14.5393 15.8274 14.67 16.3314 14.67Z" fill="white"/>
</svg>
