<svg width="24" height="24" viewBox="0 0 24 24" fill="none" xmlns="http://www.w3.org/2000/svg">
<path d="M11.6413 17C11.5573 17 11.5013 16.9627 11.4733 16.888L10.8293 14.914C10.82 14.886 10.8013 14.872 10.7733 14.872H6.18131C6.15331 14.872 6.13465 14.886 6.12531 14.914L5.48131 16.888C5.45331 16.9627 5.39731 17 5.31331 17H5.17331C5.07065 17 5.03331 16.9487 5.06131 16.846L8.19731 7.31195C8.22531 7.23728 8.28131 7.19995 8.36531 7.19995H8.56131C8.64531 7.19995 8.70131 7.23728 8.72931 7.31195L11.8793 16.846L11.8933 16.902C11.8933 16.9673 11.8513 17 11.7673 17H11.6413ZM6.26531 14.424C6.25598 14.4427 6.25598 14.4613 6.26531 14.48C6.28398 14.4893 6.30265 14.494 6.32131 14.494H10.6193C10.638 14.494 10.652 14.4893 10.6613 14.48C10.6706 14.4613 10.6706 14.4427 10.6613 14.424L8.50531 7.85795C8.49598 7.83928 8.48198 7.82995 8.46331 7.82995C8.44465 7.82995 8.43065 7.83928 8.42131 7.85795L6.26531 14.424ZM17.8966 10.126C17.8966 10.0327 17.9432 9.98595 18.0366 9.98595H18.1766C18.2699 9.98595 18.3166 10.0327 18.3166 10.126V16.958C18.3166 17.9193 18.0366 18.638 17.4766 19.114C16.9166 19.5993 16.0812 19.828 14.9706 19.8C14.8772 19.8 14.8306 19.7533 14.8306 19.66V19.534C14.8306 19.4407 14.8819 19.394 14.9846 19.394C15.9832 19.4127 16.7159 19.2167 17.1826 18.806C17.6586 18.3953 17.8966 17.7793 17.8966 16.958V16.02C17.8966 15.992 17.8872 15.978 17.8686 15.978C17.8592 15.9687 17.8452 15.9733 17.8266 15.992C17.6212 16.3373 17.3459 16.608 17.0006 16.804C16.6646 17 16.2679 17.098 15.8106 17.098C15.1946 17.098 14.6672 16.9347 14.2286 16.608C13.7992 16.272 13.5146 15.824 13.3746 15.264C13.2719 14.8907 13.2206 14.3073 13.2206 13.514C13.2206 12.6833 13.2719 12.0813 13.3746 11.708C13.5146 11.1667 13.7992 10.728 14.2286 10.392C14.6579 10.0467 15.1806 9.87395 15.7966 9.87395C16.2539 9.87395 16.6552 9.97195 17.0006 10.168C17.3552 10.3547 17.6306 10.6207 17.8266 10.966C17.8452 10.9847 17.8592 10.994 17.8686 10.994C17.8872 10.9847 17.8966 10.966 17.8966 10.938V10.126ZM17.8406 15.068C17.8592 14.9187 17.8732 14.7367 17.8826 14.522C17.8919 14.3073 17.8966 13.9667 17.8966 13.5C17.8966 13.0333 17.8919 12.6927 17.8826 12.478C17.8732 12.2633 17.8592 12.0767 17.8406 11.918C17.7659 11.442 17.5512 11.05 17.1966 10.742C16.8419 10.4247 16.3939 10.266 15.8526 10.266C15.3206 10.266 14.8679 10.42 14.4946 10.728C14.1306 11.036 13.8879 11.4327 13.7666 11.918C13.6826 12.254 13.6406 12.772 13.6406 13.472C13.6406 14.2373 13.6826 14.7693 13.7666 15.068C13.8692 15.544 14.1072 15.9407 14.4806 16.258C14.8539 16.566 15.3112 16.72 15.8526 16.72C16.4032 16.72 16.8512 16.5613 17.1966 16.244C17.5512 15.9267 17.7659 15.5347 17.8406 15.068Z" fill="white"/>
</svg>
