<svg width="24" height="24" viewBox="0 0 24 24" fill="none" xmlns="http://www.w3.org/2000/svg">
<path d="M11.4142 17C11.3302 17 11.2789 16.9627 11.2602 16.888L10.7282 14.956C10.7189 14.928 10.6955 14.914 10.6582 14.914H6.9902C6.95286 14.914 6.92953 14.928 6.9202 14.956L6.4022 16.874C6.38353 16.958 6.3322 17 6.2482 17H5.9822C5.93553 17 5.8982 16.986 5.8702 16.958C5.85153 16.93 5.84686 16.8927 5.8562 16.846L8.4882 7.31195C8.50686 7.23728 8.5582 7.19995 8.6422 7.19995H8.9922C9.0762 7.19995 9.12753 7.23728 9.1462 7.31195L11.8062 16.846L11.8202 16.888C11.8202 16.9627 11.7735 17 11.6802 17H11.4142ZM7.0742 14.396C7.06486 14.4053 7.06486 14.4193 7.0742 14.438C7.09286 14.4473 7.11153 14.452 7.1302 14.452H10.5182C10.5369 14.452 10.5509 14.4473 10.5602 14.438C10.5789 14.4193 10.5835 14.4053 10.5742 14.396L8.8522 8.06795C8.84286 8.04928 8.83353 8.03995 8.8242 8.03995C8.81486 8.03995 8.80553 8.04928 8.7962 8.06795L7.0742 14.396ZM16.9693 10.112C16.9693 10.0187 17.016 9.97195 17.1093 9.97195H17.3893C17.4827 9.97195 17.5293 10.0187 17.5293 10.112V16.93C17.5293 17.9007 17.2773 18.6287 16.7733 19.114C16.2693 19.5993 15.5133 19.828 14.5053 19.8C14.412 19.8 14.3653 19.7533 14.3653 19.66V19.436C14.3653 19.3427 14.412 19.296 14.5053 19.296C15.364 19.3053 15.9893 19.1093 16.3813 18.708C16.7733 18.316 16.9693 17.7187 16.9693 16.916V16.188C16.9693 16.16 16.96 16.146 16.9413 16.146C16.932 16.146 16.918 16.1553 16.8993 16.174C16.7313 16.4633 16.498 16.6873 16.1993 16.846C15.91 17.0047 15.574 17.084 15.1913 17.084C14.6033 17.084 14.1087 16.9067 13.7073 16.552C13.3153 16.1973 13.082 15.726 13.0073 15.138C12.9607 14.7647 12.9373 14.2187 12.9373 13.5C12.9373 12.7533 12.9607 12.1887 13.0073 11.806C13.082 11.2273 13.3153 10.7607 13.7073 10.406C14.0993 10.042 14.5893 9.85995 15.1773 9.85995C15.56 9.85995 15.896 9.93928 16.1853 10.098C16.484 10.2567 16.722 10.4853 16.8993 10.784C16.918 10.8027 16.932 10.812 16.9413 10.812C16.96 10.812 16.9693 10.798 16.9693 10.77V10.112ZM16.9413 15.012C16.96 14.76 16.9693 14.2653 16.9693 13.528V13.444C16.9693 12.7067 16.96 12.2027 16.9413 11.932C16.904 11.4747 16.736 11.0967 16.4373 10.798C16.1387 10.4993 15.7513 10.35 15.2753 10.35C14.8087 10.35 14.4167 10.4993 14.0993 10.798C13.7913 11.0967 13.6047 11.4747 13.5393 11.932C13.502 12.4733 13.4833 12.9867 13.4833 13.472C13.4833 14.032 13.502 14.5453 13.5393 15.012C13.586 15.4693 13.768 15.8473 14.0853 16.146C14.412 16.4447 14.8133 16.594 15.2893 16.594C15.7653 16.594 16.148 16.4447 16.4373 16.146C16.736 15.8473 16.904 15.4693 16.9413 15.012Z" fill="white"/>
</svg>
