<svg width="24" height="24" viewBox="0 0 24 24" fill="none" xmlns="http://www.w3.org/2000/svg">
<path d="M2.14597 17.042L2.25797 16.692L2.55197 16.664C3.0373 16.6173 3.4013 16.4727 3.64397 16.23C3.88663 15.9873 4.10597 15.7213 4.30197 15.432L10.238 6.86401L10.546 7.06001V15.404C10.546 15.656 10.5646 15.8707 10.602 16.048C10.6393 16.2253 10.728 16.3653 10.868 16.468C11.0173 16.5613 11.26 16.6267 11.596 16.664L11.862 16.692L11.75 17.042L9.71997 17L7.68997 17.042L7.80197 16.692L8.09597 16.664C8.50663 16.6173 8.82397 16.5193 9.04797 16.37C9.2813 16.2113 9.39797 15.88 9.39797 15.376V13.388H6.19197L4.76397 15.446C4.55863 15.7447 4.45597 15.9827 4.45597 16.16C4.45597 16.44 4.7593 16.608 5.36597 16.664L5.63197 16.692L5.51997 17.042L3.86797 17L2.14597 17.042ZM6.44397 13.024H9.39797V8.74001L6.44397 13.024ZM15.9095 15.124C15.6108 15.124 15.3448 15.096 15.1115 15.04C14.8875 14.9747 14.6868 14.8907 14.5095 14.788C14.0988 14.9467 13.7908 15.1193 13.5855 15.306C13.3895 15.4927 13.2915 15.6793 13.2915 15.866C13.2915 16.006 13.3615 16.1367 13.5015 16.258C13.6415 16.37 13.8842 16.4493 14.2295 16.496L15.9095 16.706C16.4415 16.7713 16.8568 16.8927 17.1555 17.07C17.4635 17.2567 17.6782 17.476 17.7995 17.728C17.9302 17.98 17.9955 18.2553 17.9955 18.554C17.9955 18.75 17.9535 18.988 17.8695 19.268C17.7855 19.548 17.6268 19.8233 17.3935 20.094C17.1602 20.374 16.8288 20.6027 16.3995 20.78C15.9795 20.9667 15.4242 21.06 14.7335 21.06C14.0428 21.06 13.4735 20.948 13.0255 20.724C12.5868 20.5093 12.2648 20.248 12.0595 19.94C11.8448 19.632 11.7375 19.3427 11.7375 19.072C11.7375 18.82 11.8075 18.6053 11.9475 18.428C12.0875 18.2507 12.2602 18.162 12.4655 18.162C12.6802 18.162 12.8295 18.2227 12.9135 18.344C12.9975 18.4747 13.0395 18.6053 13.0395 18.736C13.0395 18.9133 12.9928 19.0813 12.8995 19.24C12.8155 19.3987 12.7735 19.5713 12.7735 19.758C12.7735 19.8793 12.8295 20.0193 12.9415 20.178C13.0535 20.3367 13.2542 20.472 13.5435 20.584C13.8422 20.696 14.2528 20.752 14.7755 20.752C15.3448 20.752 15.8208 20.6633 16.2035 20.486C16.5862 20.3087 16.8755 20.0753 17.0715 19.786C17.2675 19.506 17.3655 19.2073 17.3655 18.89C17.3655 18.638 17.2722 18.3953 17.0855 18.162C16.8988 17.938 16.5722 17.7933 16.1055 17.728L14.2995 17.49C13.7675 17.4153 13.3662 17.266 13.0955 17.042C12.8248 16.818 12.6895 16.5427 12.6895 16.216C12.6895 15.8893 12.8108 15.586 13.0535 15.306C13.3055 15.026 13.6975 14.7787 14.2295 14.564C14.0335 14.3773 13.8888 14.1627 13.7955 13.92C13.7115 13.6773 13.6695 13.4347 13.6695 13.192C13.6695 12.716 13.7955 12.2867 14.0475 11.904C14.2995 11.5213 14.6402 11.218 15.0695 10.994C15.4988 10.77 15.9748 10.658 16.4975 10.658C16.7868 10.658 17.0482 10.6953 17.2815 10.77C17.5148 10.8353 17.7155 10.9287 17.8835 11.05C18.0702 10.826 18.3082 10.6487 18.5975 10.518C18.8868 10.378 19.1622 10.308 19.4235 10.308C19.7315 10.308 19.9788 10.3873 20.1655 10.546C20.3522 10.7047 20.4455 10.9007 20.4455 11.134C20.4455 11.274 20.3942 11.4047 20.2915 11.526C20.1982 11.6473 20.0582 11.708 19.8715 11.708C19.7222 11.708 19.5868 11.6613 19.4655 11.568C19.3442 11.4747 19.2835 11.3393 19.2835 11.162C19.2835 11.0313 19.2602 10.924 19.2135 10.84C19.1762 10.756 19.0922 10.714 18.9615 10.714C18.8588 10.714 18.7422 10.7513 18.6115 10.826C18.4902 10.9007 18.3268 11.0407 18.1215 11.246C18.2988 11.4327 18.4295 11.6427 18.5135 11.876C18.6068 12.1093 18.6535 12.3473 18.6535 12.59C18.6535 13.066 18.5228 13.4953 18.2615 13.878C18.0002 14.2607 17.6595 14.564 17.2395 14.788C16.8288 15.012 16.3855 15.124 15.9095 15.124ZM15.7695 14.788C16.0962 14.788 16.3808 14.704 16.6235 14.536C16.8662 14.368 17.0668 14.158 17.2255 13.906C17.3842 13.6447 17.5008 13.3693 17.5755 13.08C17.6595 12.7907 17.7015 12.52 17.7015 12.268C17.7015 11.8947 17.5942 11.5913 17.3795 11.358C17.1742 11.1153 16.8895 10.994 16.5255 10.994C16.1242 10.994 15.7788 11.1247 15.4895 11.386C15.2095 11.6473 14.9948 11.974 14.8455 12.366C14.6962 12.7487 14.6215 13.1267 14.6215 13.5C14.6215 13.8733 14.7242 14.1813 14.9295 14.424C15.1442 14.6667 15.4242 14.788 15.7695 14.788Z" fill="white"/>
</svg>
