<svg width="24" height="24" viewBox="0 0 24 24" fill="none" xmlns="http://www.w3.org/2000/svg">
<path d="M6.79102 17L9.15625 7.18359H9.58691L12.0137 17H11.7061L11.1318 14.6895H7.64551L7.07129 17H6.79102ZM7.7002 14.4092H11.0703L9.36816 7.55273L7.7002 14.4092ZM13.0801 14.5938V9.61035C13.0801 9.25944 13.1165 8.93815 13.1895 8.64648C13.2669 8.35482 13.3831 8.09505 13.5381 7.86719C13.6976 7.63477 13.9118 7.45475 14.1807 7.32715C14.4495 7.19499 14.764 7.12891 15.124 7.12891C15.4886 7.12891 15.8053 7.19499 16.0742 7.32715C16.3431 7.45475 16.5573 7.63477 16.7168 7.86719C16.8763 8.09505 16.9925 8.35482 17.0654 8.64648C17.1429 8.93815 17.1816 9.25944 17.1816 9.61035V10.2529H16.874V9.59668C16.874 8.94499 16.735 8.41862 16.457 8.01758C16.179 7.61198 15.7393 7.40918 15.1377 7.40918C14.8232 7.40918 14.5498 7.46615 14.3174 7.58008C14.085 7.69401 13.9027 7.85352 13.7705 8.05859C13.6383 8.26367 13.5404 8.49382 13.4766 8.74902C13.4173 9.00423 13.3877 9.28678 13.3877 9.59668V14.6074C13.3877 14.9173 13.4173 15.1999 13.4766 15.4551C13.5404 15.7057 13.6383 15.9336 13.7705 16.1387C13.9027 16.3392 14.085 16.4964 14.3174 16.6104C14.5498 16.7197 14.8232 16.7744 15.1377 16.7744C15.4476 16.7744 15.7165 16.7197 15.9443 16.6104C16.1768 16.4964 16.359 16.3392 16.4912 16.1387C16.6234 15.9336 16.7191 15.7057 16.7783 15.4551C16.8421 15.1999 16.874 14.9173 16.874 14.6074V12.3789H15.3496V12.0986H17.1816V14.5938C17.1816 14.9447 17.1429 15.266 17.0654 15.5576C16.9925 15.8493 16.8763 16.1113 16.7168 16.3438C16.5573 16.5716 16.3431 16.7493 16.0742 16.877C15.8053 17.0046 15.4886 17.0684 15.124 17.0684C14.764 17.0684 14.4495 17.0046 14.1807 16.877C13.9118 16.7493 13.6976 16.5716 13.5381 16.3438C13.3831 16.1113 13.2669 15.8493 13.1895 15.5576C13.1165 15.266 13.0801 14.9447 13.0801 14.5938Z" fill="white"/>
</svg>
