<svg width="24" height="24" viewBox="0 0 24 24" fill="none" xmlns="http://www.w3.org/2000/svg">
<path d="M4.30603 17.0001L8.46403 7.50806H8.67403L12.832 17.0001H11.306L10.256 14.4801H6.09803L5.06203 17.0001H4.30603ZM6.30803 13.9481H10.032L8.18403 9.41206L6.30803 13.9481ZM14.8187 15.7401C14.8187 15.9174 14.9494 16.0388 15.2107 16.1041C15.4814 16.1694 15.9947 16.2021 16.7507 16.2021C17.5067 16.2021 18.1134 16.2861 18.5707 16.4541C19.028 16.6221 19.2567 16.9394 19.2567 17.4061C19.2567 18.0968 18.916 18.7174 18.2347 19.2681C17.5627 19.8281 16.7367 20.1081 15.7567 20.1081C15.0474 20.1081 14.464 19.9728 14.0067 19.7021C13.5587 19.4408 13.3347 19.0628 13.3347 18.5681C13.3347 17.8681 13.7174 17.3501 14.4827 17.0141C14.0534 16.8554 13.8387 16.5614 13.8387 16.1321C13.8387 15.6934 14.1747 15.2174 14.8467 14.7041C14.1467 14.3401 13.7967 13.7474 13.7967 12.9261C13.7967 12.0954 14.0534 11.4841 14.5667 11.0921C15.0894 10.7001 15.6727 10.5041 16.3167 10.5041C16.774 10.5041 17.2127 10.6301 17.6327 10.8821L18.8647 10.5321L19.1447 11.1341L18.2767 11.5681C18.454 11.8761 18.5427 12.2354 18.5427 12.6461C18.5427 13.0568 18.4587 13.4208 18.2907 13.7381C18.132 14.0461 17.922 14.2841 17.6607 14.4521C17.138 14.7881 16.5734 14.9561 15.9667 14.9561C15.8734 14.9561 15.7427 14.9468 15.5747 14.9281C15.416 14.9748 15.248 15.0774 15.0707 15.2361C14.9027 15.3948 14.8187 15.5628 14.8187 15.7401ZM17.4367 12.7721C17.4367 12.2868 17.306 11.8668 17.0447 11.5121C16.7927 11.1481 16.4754 10.9661 16.0927 10.9661C15.7194 10.9661 15.4207 11.1294 15.1967 11.4561C14.9727 11.7828 14.8607 12.2074 14.8607 12.7301C14.8607 13.2434 14.9867 13.6728 15.2387 14.0181C15.4907 14.3541 15.794 14.5221 16.1487 14.5221C17.0074 14.5221 17.4367 13.9388 17.4367 12.7721ZM15.9807 19.4641C16.7554 19.4641 17.4134 19.2494 17.9547 18.8201C18.496 18.3908 18.7667 17.9614 18.7667 17.5321C18.2907 17.3361 17.6234 17.2381 16.7647 17.2381C15.9154 17.2381 15.3274 17.2101 15.0007 17.1541C14.59 17.4994 14.3847 17.8681 14.3847 18.2601C14.3847 19.0628 14.9167 19.4641 15.9807 19.4641Z" fill="white"/>
</svg>
