<svg width="24" height="24" viewBox="0 0 24 24" fill="none" xmlns="http://www.w3.org/2000/svg">
<path d="M4.15787 17.126C3.79387 17.126 3.49987 17.0373 3.27587 16.86C3.05187 16.6733 2.9072 16.4353 2.84187 16.146L3.66787 15.698C3.69587 15.8193 3.74253 15.9173 3.80787 15.992C3.88253 16.0573 3.96653 16.09 4.05987 16.09C4.1532 16.09 4.23253 16.0573 4.29787 15.992C4.3632 15.9173 4.42387 15.8147 4.47986 15.684L7.97987 7.36804H8.45587L12.5579 17.014H11.3399L10.0519 13.92H6.41187L5.41787 16.3C5.3152 16.552 5.14253 16.7527 4.89987 16.902C4.6572 17.0513 4.40987 17.126 4.15787 17.126ZM9.57587 12.884L8.23187 9.32804L8.20387 9.11804L8.18987 9.32804L6.83187 12.884H9.57587ZM17.2218 20.808C16.8205 20.808 16.4518 20.71 16.1158 20.514C15.7798 20.3273 15.5092 20.066 15.3038 19.73C15.1078 19.4033 15.0098 19.044 15.0098 18.652C15.0098 17.9987 15.2618 17.448 15.7658 17C15.0005 16.776 14.4078 16.3653 13.9878 15.768C13.5772 15.1707 13.3718 14.438 13.3718 13.57C13.3718 12.8327 13.5212 12.1747 13.8198 11.596C14.1185 11.0173 14.5292 10.5693 15.0518 10.252C15.5838 9.92537 16.1905 9.76204 16.8718 9.76204L17.7398 9.79004L18.5378 9.88804H19.4898V18.344C19.4898 19.0813 19.2798 19.674 18.8598 20.122C18.4398 20.5793 17.8938 20.808 17.2218 20.808ZM16.4098 16.062C16.8298 16.062 17.2358 15.894 17.6278 15.558C17.8425 15.3807 18.0152 15.1847 18.1458 14.97C18.2765 14.7553 18.3418 14.564 18.3418 14.396V10.812L17.2498 10.798H16.8158C16.3865 10.798 15.9945 10.9147 15.6398 11.148C15.2945 11.3813 15.0192 11.7033 14.8138 12.114C14.6178 12.5153 14.5198 12.968 14.5198 13.472C14.5198 13.9387 14.6038 14.3727 14.7718 14.774C14.9492 15.166 15.1825 15.4787 15.4718 15.712C15.7612 15.9453 16.0738 16.062 16.4098 16.062ZM17.2778 19.772C17.6045 19.772 17.8612 19.646 18.0478 19.394C18.2438 19.142 18.3418 18.806 18.3418 18.386V16.09C18.3232 16.118 18.2765 16.1833 18.2018 16.286C18.1272 16.3793 18.0478 16.468 17.9638 16.552C17.7492 16.7573 17.3618 17.028 16.8018 17.364C16.3538 17.6347 16.1298 18.064 16.1298 18.652C16.1298 18.9507 16.2418 19.212 16.4658 19.436C16.6992 19.66 16.9698 19.772 17.2778 19.772Z" fill="white"/>
</svg>
