<svg width="24" height="24" viewBox="0 0 24 24" fill="none" xmlns="http://www.w3.org/2000/svg">
<path d="M6.23084 15.986L4.55084 16.07C4.28017 16.07 4.14484 16.0093 4.14484 15.888C4.14484 15.7667 4.29884 15.6593 4.60684 15.566C5.16684 15.398 5.56817 15.0387 5.81084 14.488C6.69751 12.444 7.57018 10.2507 8.42884 7.90801C8.55018 7.60934 8.61084 7.39468 8.61084 7.26401C8.61084 7.15201 8.61551 7.09601 8.62484 7.09601C8.95151 6.98401 9.14751 6.89068 9.21284 6.81601C9.24084 6.77868 9.26417 6.75068 9.28284 6.73201C9.30151 6.70401 9.31551 6.68068 9.32484 6.66201C9.37151 6.57801 9.40418 6.53601 9.42284 6.53601C9.46951 6.53601 9.51618 6.60134 9.56284 6.73201C9.90818 7.81468 10.2862 8.98134 10.6969 10.232C11.1169 11.4733 11.5695 12.7987 12.0549 14.208C12.2322 14.7213 12.4282 15.0713 12.6429 15.258C12.8669 15.4353 13.1375 15.552 13.4549 15.608C13.7722 15.664 13.9309 15.7713 13.9309 15.93C13.9309 16.0233 13.7955 16.07 13.5249 16.07L11.5789 15.986L10.1089 16C9.83818 16 9.70284 15.944 9.70284 15.832C9.70284 15.692 9.85684 15.6033 10.1649 15.566C10.7342 15.4727 11.0189 15.2627 11.0189 14.936C11.0189 14.6747 10.8415 13.942 10.4869 12.738C10.4589 12.6353 10.3329 12.584 10.1089 12.584H7.43484C7.33218 12.584 7.25284 12.668 7.19684 12.836C6.82351 13.9 6.63684 14.544 6.63684 14.768C6.63684 14.9733 6.71151 15.146 6.86084 15.286C7.01951 15.4167 7.23417 15.5193 7.50484 15.594C7.77551 15.6687 7.91084 15.7573 7.91084 15.86C7.91084 15.9627 7.77551 16.014 7.50484 16.014L6.23084 15.986ZM7.54684 11.884C7.54684 11.9493 7.64484 11.982 7.84084 11.982H10.0109C10.1415 11.982 10.2069 11.9587 10.2069 11.912L10.1789 11.772L9.07284 8.42601C9.01684 8.25801 8.97951 8.17401 8.96084 8.17401C8.93284 8.17401 8.89084 8.25334 8.83484 8.41201L7.57484 11.772L7.54684 11.884ZM19.5952 17.078C19.5952 17.4513 19.5018 17.8153 19.3152 18.17C19.1285 18.5247 18.8812 18.842 18.5732 19.122C18.2745 19.4113 17.9432 19.64 17.5792 19.808C17.2152 19.976 16.8558 20.06 16.5012 20.06C16.0252 20.06 15.5912 20.004 15.1992 19.892C14.8072 19.78 14.4898 19.6073 14.2472 19.374C14.0138 19.1407 13.8972 18.8373 13.8972 18.464C13.8972 18.1747 13.9672 17.9227 14.1072 17.708C14.2565 17.5027 14.5038 17.2927 14.8492 17.078C15.1758 16.8727 15.4138 16.658 15.5632 16.434C15.2458 16.3687 14.9565 16.2473 14.6952 16.07C14.4338 15.902 14.3032 15.6733 14.3032 15.384C14.3032 15.2067 14.4105 15.034 14.6252 14.866C14.6905 14.81 14.7792 14.754 14.8912 14.698C15.1432 14.5487 15.3298 14.39 15.4512 14.222C15.3298 14.194 15.1525 14.0727 14.9192 13.858C14.4618 13.4287 14.2332 12.9107 14.2332 12.304C14.2332 11.8933 14.3498 11.5293 14.5832 11.212C14.8165 10.8947 15.1245 10.6427 15.5072 10.456C15.8898 10.2693 16.2958 10.176 16.7252 10.176C16.8465 10.176 16.9725 10.19 17.1032 10.218C17.2432 10.246 17.3925 10.2833 17.5512 10.33C18.1578 10.5167 18.6292 10.61 18.9652 10.61L19.4132 10.596H19.5812C19.6558 10.596 19.7165 10.61 19.7632 10.638C19.8098 10.666 19.8332 10.7407 19.8332 10.862C19.8332 11.03 19.7912 11.114 19.7072 11.114C19.3712 11.114 19.1752 11.1233 19.1192 11.142L19.0072 11.184C18.9698 11.2027 18.9372 11.2167 18.9092 11.226C18.8718 11.31 18.8532 11.5247 18.8532 11.87C18.8532 12.3367 18.7505 12.7707 18.5452 13.172C18.3398 13.5733 18.0598 13.9 17.7052 14.152C17.3505 14.3947 16.9492 14.516 16.5012 14.516C16.2118 14.516 15.9598 14.46 15.7452 14.348C15.3345 14.6747 15.1292 14.9033 15.1292 15.034C15.1292 15.3327 15.5772 15.524 16.4732 15.608C17.7052 15.72 18.4192 15.8227 18.6152 15.916C18.7552 15.972 18.8998 16.0373 19.0492 16.112C19.2078 16.196 19.3385 16.308 19.4412 16.448C19.5438 16.5973 19.5952 16.8073 19.5952 17.078ZM15.3252 12.276C15.3252 12.556 15.3812 12.8313 15.4932 13.102C15.6052 13.3633 15.7592 13.5827 15.9552 13.76C16.1512 13.9373 16.3705 14.026 16.6132 14.026C16.8558 14.026 17.0705 13.9467 17.2572 13.788C17.4532 13.6293 17.6025 13.4193 17.7052 13.158C17.8172 12.8873 17.8732 12.6027 17.8732 12.304C17.8732 12.0053 17.8125 11.7253 17.6912 11.464C17.5792 11.2027 17.4252 10.9927 17.2292 10.834C17.0332 10.6753 16.8092 10.596 16.5572 10.596C16.3145 10.596 16.0998 10.68 15.9132 10.848C15.7265 11.0067 15.5818 11.2167 15.4792 11.478C15.3765 11.73 15.3252 11.996 15.3252 12.276ZM14.8912 17.876C14.8912 18.352 15.0498 18.7393 15.3672 19.038C15.6938 19.346 16.1325 19.5 16.6832 19.5C17.0565 19.5 17.3972 19.4113 17.7052 19.234C18.0132 19.066 18.2605 18.8327 18.4472 18.534C18.6432 18.2353 18.7412 17.8993 18.7412 17.526C18.7412 17.2927 18.6245 17.0967 18.3912 16.938C18.1672 16.7793 17.8965 16.6673 17.5792 16.602C17.2525 16.546 16.8092 16.504 16.2492 16.476H15.9272C15.8712 16.5133 15.7825 16.5833 15.6612 16.686C15.5492 16.798 15.4045 16.9427 15.2272 17.12C15.0032 17.3813 14.8912 17.6333 14.8912 17.876Z" fill="white"/>
</svg>
