<svg width="24" height="24" viewBox="0 0 24 24" fill="none" xmlns="http://www.w3.org/2000/svg">
<path d="M8.75977 14.6416H7.05078L6.97559 15.2705C6.97559 15.2842 6.97103 15.3047 6.96191 15.332C6.92546 15.4642 6.90723 15.5827 6.90723 15.6875C6.90723 15.8516 7.01432 15.9906 7.22852 16.1045C7.34245 16.1637 7.41309 16.2253 7.44043 16.2891C7.46777 16.3529 7.48145 16.4577 7.48145 16.6035C7.48145 16.7904 7.47005 16.9043 7.44727 16.9453C7.42904 16.9818 7.38118 17 7.30371 17H5.49902C5.39876 17 5.34863 16.8952 5.34863 16.6855C5.34863 16.4349 5.42839 16.2321 5.58789 16.0771C5.73828 15.9359 5.82487 15.7855 5.84766 15.626L7.1123 7.58008C7.13509 7.45703 7.14648 7.34993 7.14648 7.25879C7.14648 7.11751 7.0485 6.99219 6.85254 6.88281C6.76139 6.82812 6.71582 6.70736 6.71582 6.52051C6.71582 6.26986 6.72949 6.11491 6.75684 6.05566C6.78418 5.99642 6.8571 5.9668 6.97559 5.9668H9.58691C9.74642 5.9668 9.85807 6.04199 9.92188 6.19238C9.98568 6.34277 10.0495 6.6709 10.1133 7.17676C10.1406 7.37272 10.168 7.56641 10.1953 7.75781L11.3164 15.2705C11.3711 15.6351 11.5055 15.9131 11.7197 16.1045C11.779 16.1546 11.8177 16.1956 11.8359 16.2275C11.8542 16.2549 11.8633 16.3438 11.8633 16.4941C11.8633 16.7266 11.8473 16.8701 11.8154 16.9248C11.7835 16.9749 11.7152 17 11.6104 17H8.56836C8.47721 17 8.43164 16.9134 8.43164 16.7402C8.43164 16.5215 8.44303 16.3848 8.46582 16.3301C8.48861 16.2754 8.55469 16.2116 8.66406 16.1387C8.82357 16.0384 8.90332 15.9108 8.90332 15.7559C8.90332 15.5964 8.85547 15.2249 8.75977 14.6416ZM7.93945 8.54395L7.18066 13.8555H8.68457L7.93945 8.54395ZM16.2178 7.66211C16.3682 7.51172 16.4434 7.39323 16.4434 7.30664C16.4434 7.18359 16.3522 7.06966 16.1699 6.96484C15.9238 6.81901 15.8008 6.64128 15.8008 6.43164C15.8008 6.00781 16.0924 5.7959 16.6758 5.7959C17.0312 5.7959 17.291 5.86882 17.4551 6.01465C17.6191 6.16048 17.7012 6.33822 17.7012 6.54785C17.7012 6.94889 17.4049 7.42057 16.8125 7.96289C17.8197 8.67839 18.3232 9.65592 18.3232 10.8955C18.3232 11.9574 18.0316 12.7982 17.4482 13.418C16.8695 14.0378 16.1995 14.3477 15.4385 14.3477C15.2015 14.3477 14.9417 14.3089 14.6592 14.2314C14.5042 14.195 14.388 14.1768 14.3105 14.1768C14.1647 14.1768 14.0098 14.2314 13.8457 14.3408C13.6862 14.4502 13.6064 14.5687 13.6064 14.6963C13.6064 14.9196 13.8548 15.0312 14.3516 15.0312H16.2178C16.8831 15.0312 17.4277 15.168 17.8516 15.4414C18.2754 15.7148 18.4873 16.1546 18.4873 16.7607C18.4873 18.0459 17.3936 18.6885 15.2061 18.6885C14.363 18.6885 13.6839 18.6042 13.1689 18.4355C12.6585 18.2669 12.4033 18.0003 12.4033 17.6357C12.4033 17.4398 12.4557 17.2848 12.5605 17.1709C12.6654 17.0615 12.8499 16.9408 13.1143 16.8086C13.1507 16.7904 13.2054 16.763 13.2783 16.7266C12.654 16.4531 12.3418 15.9997 12.3418 15.3662C12.3418 14.6507 12.7884 14.1152 13.6816 13.7598C12.8385 13.0944 12.417 12.1921 12.417 11.0527C12.417 10.0365 12.7018 9.2002 13.2715 8.54395C13.8457 7.88314 14.5407 7.55273 15.3564 7.55273C15.5889 7.55273 15.876 7.58919 16.2178 7.66211ZM15.8691 9.37793C15.8691 8.78548 15.7051 8.48926 15.377 8.48926C15.2129 8.48926 15.083 8.58496 14.9873 8.77637C14.8916 8.96322 14.8438 9.16374 14.8438 9.37793V12.7754C14.8438 12.9622 14.8893 13.1195 14.9805 13.2471C15.0762 13.3701 15.1969 13.4316 15.3428 13.4316C15.4977 13.4316 15.623 13.3656 15.7188 13.2334C15.819 13.0967 15.8691 12.9235 15.8691 12.7139V9.37793ZM14.1738 16.9658C13.8776 17.0843 13.7295 17.2301 13.7295 17.4033C13.7295 17.5765 13.8343 17.7064 14.0439 17.793C14.2581 17.8796 14.6979 17.9229 15.3633 17.9229C16.5117 17.9229 17.0859 17.7223 17.0859 17.3213C17.0859 17.0934 16.8923 16.9795 16.5049 16.9795H14.6113C14.4609 16.9795 14.3151 16.9749 14.1738 16.9658Z" fill="white"/>
</svg>
