<svg width="24" height="24" viewBox="0 0 24 24" fill="none" xmlns="http://www.w3.org/2000/svg">
<g clip-path="url(#clip0_267_1365)">
<path d="M6.79306 9.64304C6.89572 9.48437 6.97972 9.34437 7.04506 9.22304C7.11506 9.10171 7.17572 9.04104 7.22706 9.04104C7.28772 9.04104 7.31806 9.09471 7.31806 9.20204C7.32272 9.30937 7.34372 9.46337 7.38106 9.66404L7.80806 12.205C7.84072 12.3823 7.82906 12.4827 7.77306 12.506C7.72172 12.5247 7.59806 12.534 7.40206 12.534H5.40006C5.12472 12.534 4.99639 12.5013 5.01506 12.436C5.03372 12.366 5.08739 12.2633 5.17606 12.128L6.79306 9.64304ZM-0.556946 16.734C-0.556946 16.86 -0.538279 16.937 -0.500946 16.965C-0.463613 16.9883 -0.381946 17 -0.255946 17H3.85306C4.00706 17 4.10039 16.979 4.13306 16.937C4.16572 16.895 4.18206 16.797 4.18206 16.643V15.719C4.18206 15.6023 4.16339 15.523 4.12606 15.481C4.08872 15.4343 4.01639 15.411 3.90906 15.411H3.41206C3.20672 15.411 3.09939 15.3947 3.09006 15.362C3.08539 15.3293 3.12039 15.2547 3.19506 15.138L3.76906 14.256C3.83906 14.1487 3.90439 14.0833 3.96506 14.06C4.02572 14.0367 4.14472 14.025 4.32206 14.025H7.66806C7.85939 14.025 7.98772 14.0367 8.05306 14.06C8.11839 14.0833 8.16506 14.1767 8.19306 14.34L8.32606 15.138C8.34939 15.2593 8.35172 15.3363 8.33306 15.369C8.31906 15.397 8.23739 15.411 8.08806 15.411H7.24806C7.08939 15.411 6.99139 15.439 6.95406 15.495C6.92139 15.551 6.90506 15.6513 6.90506 15.796V16.741C6.90506 16.853 6.92372 16.9253 6.96106 16.958C6.99839 16.986 7.07072 17 7.17806 17H12.54C12.666 17 12.743 16.9813 12.771 16.944C12.8037 16.9067 12.82 16.825 12.82 16.699V15.67C12.82 15.558 12.8014 15.488 12.764 15.46C12.7314 15.4273 12.6637 15.411 12.561 15.411H11.665C11.5064 15.411 11.4084 15.397 11.371 15.369C11.3384 15.341 11.3104 15.2617 11.287 15.131L9.62806 6.78704C9.60006 6.64237 9.57439 6.53504 9.55106 6.46504C9.52772 6.39504 9.47872 6.34837 9.40406 6.32504C9.32939 6.30171 9.20339 6.29004 9.02606 6.29004H7.53506C7.35306 6.29004 7.23872 6.31337 7.19206 6.36004C7.14539 6.40671 7.08706 6.48371 7.01706 6.59104L1.31206 15.18C1.26072 15.2593 1.21872 15.3177 1.18606 15.355C1.15339 15.3923 1.06706 15.411 0.927054 15.411H-0.290946C-0.398279 15.411 -0.468279 15.425 -0.500946 15.453C-0.538279 15.481 -0.556946 15.5487 -0.556946 15.656V16.734ZM12.9596 19.17C12.9596 19.52 13.0996 19.807 13.3796 20.031C13.6596 20.2597 14.0563 20.4253 14.5696 20.528C15.0829 20.6353 15.6896 20.689 16.3896 20.689C17.0476 20.689 17.6753 20.6213 18.2726 20.486C18.8746 20.3553 19.4113 20.1523 19.8826 19.877C20.3539 19.6017 20.7273 19.2517 21.0026 18.827C21.2779 18.4023 21.4156 17.9007 21.4156 17.322C21.4156 16.9067 21.3293 16.566 21.1566 16.3C20.9886 16.034 20.7459 15.8357 20.4286 15.705C20.1113 15.5743 19.7286 15.509 19.2806 15.509C19.1826 15.509 19.0356 15.5113 18.8396 15.516C18.6483 15.516 18.4406 15.516 18.2166 15.516C17.9973 15.516 17.7919 15.5183 17.6006 15.523C17.4139 15.523 17.2763 15.523 17.1876 15.523C16.9356 15.523 16.7489 15.4973 16.6276 15.446C16.5063 15.39 16.4456 15.3107 16.4456 15.208C16.4456 15.1193 16.4713 15.0353 16.5226 14.956C16.5739 14.8767 16.6393 14.8043 16.7186 14.739C16.8073 14.655 16.8913 14.6107 16.9706 14.606C17.0546 14.5967 17.1689 14.6013 17.3136 14.62C17.4163 14.634 17.5189 14.6433 17.6216 14.648C17.7243 14.6527 17.8293 14.655 17.9366 14.655C18.4126 14.655 18.8793 14.5827 19.3366 14.438C19.7939 14.2933 20.2069 14.0833 20.5756 13.808C20.9443 13.528 21.2383 13.192 21.4576 12.8C21.6816 12.4033 21.7936 11.9577 21.7936 11.463C21.7936 11.0383 21.6839 10.6813 21.4646 10.392C21.2453 10.098 20.9443 9.87637 20.5616 9.72704C20.4963 9.69904 20.4566 9.67571 20.4426 9.65704C20.4333 9.63837 20.4379 9.59171 20.4566 9.51704C20.5406 9.19037 20.6526 8.92437 20.7926 8.71904C20.9326 8.51371 21.0656 8.41104 21.1916 8.41104C21.2569 8.41104 21.2733 8.42971 21.2406 8.46704C21.2079 8.49971 21.1636 8.56037 21.1076 8.64904C21.0516 8.73304 21.0236 8.85204 21.0236 9.00604C21.0236 9.30004 21.1426 9.53571 21.3806 9.71304C21.6233 9.89037 21.8939 9.97904 22.1926 9.97904C22.5519 9.97904 22.8319 9.86237 23.0326 9.62904C23.2379 9.39571 23.3406 9.13437 23.3406 8.84504C23.3406 8.61171 23.2729 8.39004 23.1376 8.18004C23.0069 7.96537 22.8156 7.79037 22.5636 7.65504C22.3116 7.51504 22.0036 7.44504 21.6396 7.44504C21.2569 7.44504 20.9303 7.53604 20.6596 7.71804C20.3936 7.90004 20.1743 8.13571 20.0016 8.42504C19.8289 8.71437 19.6959 9.01771 19.6026 9.33504C19.5793 9.40971 19.5536 9.45871 19.5256 9.48204C19.4976 9.50071 19.4486 9.50771 19.3786 9.50304C19.3039 9.48437 19.2176 9.47504 19.1196 9.47504C18.6483 9.47504 18.1769 9.54737 17.7056 9.69204C17.2343 9.83671 16.8049 10.0467 16.4176 10.322C16.0303 10.5927 15.7176 10.924 15.4796 11.316C15.2463 11.708 15.1296 12.1513 15.1296 12.646C15.1296 12.9307 15.1833 13.185 15.2906 13.409C15.3979 13.633 15.5449 13.829 15.7316 13.997C15.8856 14.1277 15.9626 14.2023 15.9626 14.221C15.9626 14.235 15.8623 14.291 15.6616 14.389C15.2883 14.5663 14.9709 14.7997 14.7096 15.089C14.4483 15.3783 14.3176 15.726 14.3176 16.132C14.3176 16.4353 14.4179 16.7013 14.6186 16.93C14.7026 17.0233 14.7679 17.0863 14.8146 17.119C14.8613 17.1517 14.8706 17.1773 14.8426 17.196C14.8146 17.2193 14.7283 17.2637 14.5836 17.329C14.2896 17.4503 14.0213 17.5997 13.7786 17.777C13.5313 17.959 13.3329 18.1643 13.1836 18.393C13.0343 18.6263 12.9596 18.8853 12.9596 19.17ZM15.7386 17.742C15.8179 17.6673 15.8856 17.623 15.9416 17.609C15.9976 17.5997 16.0933 17.602 16.2286 17.616C16.3126 17.6253 16.3966 17.63 16.4806 17.63C16.5693 17.6347 16.6579 17.637 16.7466 17.637C16.8493 17.637 16.9893 17.637 17.1666 17.637C17.3439 17.637 17.5189 17.637 17.6916 17.637C17.8643 17.637 17.9996 17.637 18.0976 17.637C18.5083 17.637 18.7999 17.672 18.9726 17.742C19.1453 17.812 19.2316 17.9497 19.2316 18.155C19.2316 18.3743 19.1686 18.5657 19.0426 18.729C18.9213 18.8923 18.7509 19.0253 18.5316 19.128C18.3123 19.2353 18.0579 19.3147 17.7686 19.366C17.4793 19.4173 17.1713 19.443 16.8446 19.443C16.5506 19.443 16.2869 19.4197 16.0536 19.373C15.8203 19.3263 15.6359 19.2493 15.5006 19.142C15.3653 19.0393 15.2976 18.8947 15.2976 18.708C15.2976 18.5587 15.3349 18.3977 15.4096 18.225C15.4843 18.0523 15.5939 17.8913 15.7386 17.742ZM17.5586 12.835C17.5586 12.4897 17.6169 12.142 17.7336 11.792C17.8503 11.4373 18.0089 11.1433 18.2096 10.91C18.4149 10.672 18.6459 10.553 18.9026 10.553C19.0613 10.553 19.1803 10.588 19.2596 10.658C19.3436 10.728 19.3996 10.8213 19.4276 10.938C19.4556 11.05 19.4696 11.1713 19.4696 11.302C19.4696 11.6473 19.4136 11.995 19.3016 12.345C19.1896 12.695 19.0333 12.989 18.8326 13.227C18.6366 13.465 18.4103 13.584 18.1536 13.584C17.9949 13.584 17.8736 13.5513 17.7896 13.486C17.7056 13.4207 17.6449 13.332 17.6076 13.22C17.5749 13.1033 17.5586 12.975 17.5586 12.835Z" fill="white"/>
</g>
<defs>
<clipPath id="clip0_267_1365">
<rect width="24" height="24" fill="white"/>
</clipPath>
</defs>
</svg>
