<svg width="24" height="24" viewBox="0 0 24 24" fill="none" xmlns="http://www.w3.org/2000/svg">
<path d="M8.05282 8.54404C8.14148 8.40404 8.21382 8.28037 8.26982 8.17304C8.32582 8.06571 8.37249 8.01204 8.40982 8.01204C8.46115 8.01204 8.49382 8.05171 8.50782 8.13104C8.52182 8.20571 8.54282 8.33404 8.57082 8.51604L9.23582 12.828C9.25915 12.9773 9.26149 13.0683 9.24282 13.101C9.22882 13.1337 9.13315 13.15 8.95582 13.15H5.46982C5.25048 13.15 5.15948 13.122 5.19682 13.066C5.23882 13.01 5.29482 12.926 5.36482 12.814L8.05282 8.54404ZM0.723816 16.762C0.723816 16.8647 0.730816 16.93 0.744816 16.958C0.754149 16.986 0.812483 17 0.919816 17H4.36382C4.48515 17 4.56215 16.986 4.59482 16.958C4.62748 16.9253 4.64382 16.8507 4.64382 16.734V16.426C4.64382 16.342 4.62282 16.2883 4.58082 16.265C4.54348 16.2417 4.48515 16.23 4.40582 16.23H3.56582C3.42115 16.23 3.33948 16.209 3.32082 16.167C3.30682 16.125 3.32315 16.0667 3.36982 15.992L4.58082 14.06C4.62282 13.99 4.67415 13.9503 4.73482 13.941C4.80015 13.927 4.89115 13.92 5.00782 13.92H9.02582C9.16115 13.92 9.25682 13.9223 9.31282 13.927C9.37349 13.9317 9.41315 13.9947 9.43182 14.116L9.71182 15.95C9.73515 16.0807 9.72815 16.16 9.69082 16.188C9.65349 16.216 9.55782 16.23 9.40382 16.23H8.55682C8.44482 16.23 8.37015 16.2393 8.33282 16.258C8.30015 16.2767 8.28382 16.342 8.28382 16.454V16.769C8.28382 16.8577 8.29082 16.9183 8.30482 16.951C8.32349 16.9837 8.37715 17 8.46582 17H12.4978C12.6052 17 12.6752 16.986 12.7078 16.958C12.7452 16.93 12.7638 16.8647 12.7638 16.762V16.482C12.7638 16.3747 12.7498 16.307 12.7218 16.279C12.6938 16.2463 12.6285 16.23 12.5258 16.23H11.7138C11.5132 16.23 11.3825 16.2137 11.3218 16.181C11.2658 16.1483 11.2215 16.048 11.1888 15.88L9.51582 6.54204C9.50649 6.47204 9.49015 6.41837 9.46682 6.38104C9.44815 6.34371 9.41549 6.32037 9.36882 6.31104C9.32682 6.29704 9.26382 6.29004 9.17982 6.29004H8.72482C8.60815 6.29004 8.52882 6.30637 8.48682 6.33904C8.44949 6.37171 8.40982 6.42071 8.36782 6.48604L2.32682 15.992C2.28015 16.0667 2.24048 16.125 2.20782 16.167C2.17982 16.209 2.10048 16.23 1.96982 16.23H0.933816C0.831149 16.23 0.770483 16.2487 0.751816 16.286C0.733149 16.3233 0.723816 16.3933 0.723816 16.496V16.762ZM13.1193 19.17C13.1193 19.5667 13.236 19.87 13.4693 20.08C13.698 20.2947 14.0083 20.4417 14.4003 20.521C14.7923 20.6003 15.2286 20.64 15.7093 20.64C16.3066 20.64 16.8736 20.5677 17.4103 20.423C17.947 20.283 18.423 20.087 18.8383 19.835C19.2583 19.583 19.5873 19.289 19.8253 18.953C20.068 18.617 20.1893 18.2553 20.1893 17.868C20.1893 17.3733 20.0983 16.993 19.9163 16.727C19.7343 16.461 19.4776 16.2767 19.1463 16.174C18.8196 16.0713 18.4346 16.02 17.9913 16.02C17.8933 16.02 17.7883 16.0223 17.6763 16.027C17.5643 16.027 17.45 16.027 17.3333 16.027C17.2213 16.027 17.1116 16.0293 17.0043 16.034C16.9016 16.034 16.806 16.034 16.7173 16.034C16.3346 16.034 16.0126 16.0177 15.7513 15.985C15.49 15.9523 15.3593 15.8427 15.3593 15.656C15.3593 15.4927 15.4293 15.3363 15.5693 15.187C15.714 15.0377 15.8843 14.9117 16.0803 14.809C16.1923 14.7483 16.2856 14.7157 16.3603 14.711C16.435 14.7017 16.5446 14.7063 16.6893 14.725C16.7826 14.739 16.8806 14.7483 16.9833 14.753C17.0906 14.7577 17.198 14.76 17.3053 14.76C17.7626 14.76 18.1966 14.669 18.6073 14.487C19.018 14.305 19.382 14.0577 19.6993 13.745C20.0166 13.4323 20.2663 13.08 20.4483 12.688C20.6303 12.296 20.7213 11.89 20.7213 11.47C20.7213 11.106 20.6583 10.7933 20.5323 10.532C20.4063 10.2707 20.215 10.063 19.9583 9.90904C19.9116 9.88104 19.8813 9.86237 19.8673 9.85304C19.8533 9.83904 19.858 9.80171 19.8813 9.74104C19.998 9.44704 20.1193 9.21137 20.2453 9.03404C20.3713 8.85671 20.4926 8.76804 20.6093 8.76804C20.642 8.76804 20.6606 8.78437 20.6653 8.81704C20.67 8.84504 20.6676 8.88937 20.6583 8.95004C20.6536 9.00604 20.6513 9.07604 20.6513 9.16004C20.6513 9.33271 20.7143 9.47971 20.8403 9.60104C20.9663 9.71771 21.1273 9.77604 21.3233 9.77604C21.5333 9.77604 21.7083 9.70837 21.8483 9.57304C21.993 9.43304 22.0653 9.24404 22.0653 9.00604C22.0653 8.81004 22.0186 8.63737 21.9253 8.48804C21.832 8.33871 21.706 8.22204 21.5473 8.13804C21.3933 8.05404 21.2206 8.01204 21.0293 8.01204C20.768 8.01204 20.5416 8.08437 20.3503 8.22904C20.159 8.36904 19.991 8.55804 19.8463 8.79604C19.7063 9.03404 19.5756 9.29771 19.4543 9.58704C19.4356 9.63837 19.417 9.66871 19.3983 9.67804C19.3843 9.68271 19.347 9.67804 19.2863 9.66404C19.0343 9.60804 18.7473 9.58004 18.4253 9.58004C17.968 9.58004 17.527 9.67104 17.1023 9.85304C16.6776 10.035 16.2973 10.2823 15.9613 10.595C15.6253 10.9077 15.3593 11.26 15.1633 11.652C14.9673 12.044 14.8693 12.45 14.8693 12.87C14.8693 13.1827 14.923 13.4557 15.0303 13.689C15.1376 13.9223 15.2916 14.1183 15.4923 14.277C15.6276 14.3797 15.7 14.4357 15.7093 14.445C15.7186 14.4543 15.6393 14.4987 15.4713 14.578C15.1073 14.746 14.8156 14.963 14.5963 15.229C14.377 15.495 14.2673 15.7867 14.2673 16.104C14.2673 16.3513 14.328 16.5497 14.4493 16.699C14.538 16.8063 14.6103 16.874 14.6663 16.902C14.7223 16.93 14.7363 16.9557 14.7083 16.979C14.685 16.9977 14.5986 17.056 14.4493 17.154C14.2346 17.2893 14.027 17.4597 13.8263 17.665C13.621 17.875 13.453 18.1083 13.3223 18.365C13.187 18.6217 13.1193 18.89 13.1193 19.17ZM15.1703 17.294C15.2636 17.196 15.3453 17.14 15.4153 17.126C15.4853 17.112 15.6113 17.1097 15.7933 17.119C15.9006 17.1237 16.0126 17.126 16.1293 17.126C16.2506 17.126 16.372 17.126 16.4933 17.126C16.596 17.126 16.743 17.126 16.9343 17.126C17.1303 17.126 17.324 17.126 17.5153 17.126C17.7066 17.126 17.8513 17.126 17.9493 17.126C18.4066 17.126 18.7286 17.1843 18.9153 17.301C19.102 17.4177 19.1953 17.63 19.1953 17.938C19.1953 18.2367 19.0973 18.505 18.9013 18.743C18.71 18.981 18.451 19.184 18.1243 19.352C17.8023 19.52 17.4453 19.6483 17.0533 19.737C16.6613 19.8257 16.2646 19.87 15.8633 19.87C15.6486 19.87 15.4316 19.8397 15.2123 19.779C14.9976 19.723 14.8156 19.6297 14.6663 19.499C14.5216 19.373 14.4493 19.2027 14.4493 18.988C14.4493 18.7873 14.5053 18.5237 14.6173 18.197C14.7293 17.8703 14.9136 17.5693 15.1703 17.294ZM16.1993 13.01C16.1993 12.5247 16.2973 12.0627 16.4933 11.624C16.694 11.1853 16.9623 10.8283 17.2983 10.553C17.6343 10.2777 18.01 10.14 18.4253 10.14C18.7473 10.14 18.976 10.2077 19.1113 10.343C19.2466 10.4737 19.326 10.6323 19.3493 10.819C19.3773 11.001 19.3913 11.1713 19.3913 11.33C19.3913 11.8153 19.3026 12.2773 19.1253 12.716C18.9526 13.1547 18.71 13.5117 18.3973 13.787C18.0846 14.0623 17.7206 14.2 17.3053 14.2C16.9833 14.2 16.743 14.144 16.5843 14.032C16.4303 13.92 16.3276 13.773 16.2763 13.591C16.225 13.409 16.1993 13.2153 16.1993 13.01Z" fill="white"/>
</svg>
