<svg width="24" height="24" viewBox="0 0 24 24" fill="none" xmlns="http://www.w3.org/2000/svg">
<path d="M8.03931 8.99204C8.13265 8.84737 8.20965 8.71904 8.27031 8.60704C8.33098 8.49037 8.38231 8.43204 8.42431 8.43204C8.48498 8.43204 8.51998 8.47871 8.52931 8.57204C8.53865 8.66071 8.55731 8.79837 8.58531 8.98504L9.15231 12.569C9.18031 12.7323 9.17798 12.828 9.14531 12.856C9.11731 12.884 9.00998 12.898 8.82331 12.898H5.94631C5.70365 12.898 5.59631 12.8677 5.62431 12.807C5.65698 12.7463 5.71298 12.6553 5.79231 12.534L8.03931 8.99204ZM0.703308 16.748C0.703308 16.86 0.714975 16.93 0.738308 16.958C0.756975 16.986 0.824642 17 0.941308 17H4.65831C4.79365 17 4.87765 16.9837 4.91031 16.951C4.94298 16.9137 4.95931 16.8297 4.95931 16.699V16.139C4.95931 16.041 4.93831 15.9757 4.89631 15.943C4.85898 15.9103 4.79598 15.894 4.70731 15.894H4.00731C3.83931 15.894 3.74831 15.8753 3.73431 15.838C3.72031 15.8007 3.74365 15.7353 3.80431 15.642L4.74931 14.137C4.80531 14.053 4.86365 14.004 4.92431 13.99C4.98498 13.9713 5.08765 13.962 5.23231 13.962H8.97031C9.12898 13.962 9.23865 13.969 9.29931 13.983C9.36465 13.997 9.40665 14.0717 9.42531 14.207L9.64931 15.621C9.67265 15.747 9.66798 15.824 9.63531 15.852C9.60731 15.88 9.51865 15.894 9.36931 15.894H8.52231C8.39165 15.894 8.30765 15.9127 8.27031 15.95C8.23765 15.9827 8.22131 16.062 8.22131 16.188V16.762C8.22131 16.86 8.23298 16.9253 8.25631 16.958C8.28431 16.986 8.34498 17 8.43831 17H13.0163C13.133 17 13.2076 16.9837 13.2403 16.951C13.273 16.9183 13.2893 16.846 13.2893 16.734V16.153C13.2893 16.041 13.273 15.971 13.2403 15.943C13.2123 15.9103 13.147 15.894 13.0443 15.894H12.1973C12.0153 15.894 11.8986 15.88 11.8473 15.852C11.8006 15.8193 11.761 15.726 11.7283 15.572L10.0623 6.64004C10.0483 6.54204 10.0296 6.46737 10.0063 6.41604C9.98298 6.36471 9.94331 6.33204 9.88731 6.31804C9.83131 6.29937 9.74265 6.29004 9.62131 6.29004H8.73931C8.59465 6.29004 8.50131 6.30871 8.45931 6.34604C8.41731 6.38337 8.37065 6.44404 8.31931 6.52804L2.41831 15.663C2.36698 15.7377 2.32498 15.796 2.29231 15.838C2.26431 15.8753 2.18265 15.894 2.04731 15.894H0.934308C0.831642 15.894 0.768642 15.9127 0.745308 15.95C0.717308 15.9827 0.703308 16.0503 0.703308 16.153V16.748ZM13.55 19.17C13.55 19.548 13.676 19.8443 13.928 20.059C14.1753 20.2783 14.5206 20.4323 14.964 20.521C15.4073 20.6143 15.9136 20.661 16.483 20.661C17.1036 20.661 17.694 20.591 18.254 20.451C18.8186 20.311 19.3203 20.1103 19.759 19.849C20.2023 19.5877 20.55 19.2703 20.802 18.897C21.0586 18.5283 21.187 18.1107 21.187 17.644C21.187 17.182 21.0983 16.818 20.921 16.552C20.7436 16.286 20.4916 16.097 20.165 15.985C19.843 15.8683 19.4603 15.81 19.017 15.81C18.919 15.81 18.7953 15.8123 18.646 15.817C18.5013 15.817 18.3496 15.817 18.191 15.817C18.0323 15.817 17.883 15.8193 17.743 15.824C17.6076 15.824 17.4956 15.824 17.407 15.824C17.0756 15.824 16.8073 15.803 16.602 15.761C16.4013 15.719 16.301 15.6233 16.301 15.474C16.301 15.3387 16.3523 15.2127 16.455 15.096C16.5623 14.9747 16.6883 14.8697 16.833 14.781C16.9356 14.711 17.0266 14.6737 17.106 14.669C17.1853 14.6597 17.2973 14.6643 17.442 14.683C17.5353 14.697 17.6333 14.7063 17.736 14.711C17.8433 14.7157 17.9506 14.718 18.058 14.718C18.5246 14.718 18.9726 14.634 19.402 14.466C19.8313 14.298 20.214 14.067 20.55 13.773C20.8906 13.4743 21.159 13.129 21.355 12.737C21.5556 12.3403 21.656 11.9157 21.656 11.463C21.656 11.0757 21.572 10.7467 21.404 10.476C21.2406 10.2007 21.0073 9.98604 20.704 9.83204C20.648 9.80404 20.613 9.78304 20.599 9.76904C20.585 9.75504 20.5896 9.71537 20.613 9.65004C20.7156 9.34204 20.8323 9.09471 20.963 8.90804C21.0936 8.71671 21.2196 8.62104 21.341 8.62104C21.3876 8.62104 21.4063 8.63737 21.397 8.67004C21.3876 8.70271 21.369 8.75404 21.341 8.82404C21.313 8.89404 21.299 8.98504 21.299 9.09704C21.299 9.32104 21.3853 9.50537 21.558 9.65004C21.7306 9.79004 21.936 9.86004 22.174 9.86004C22.4446 9.86004 22.664 9.77137 22.832 9.59404C23 9.41671 23.084 9.19737 23.084 8.93604C23.084 8.72604 23.028 8.53471 22.916 8.36204C22.8086 8.18471 22.657 8.04471 22.461 7.94204C22.265 7.83471 22.0363 7.78104 21.775 7.78104C21.4623 7.78104 21.194 7.86037 20.97 8.01904C20.7506 8.17771 20.564 8.38771 20.41 8.64904C20.256 8.90571 20.123 9.18337 20.011 9.48204C19.9876 9.54271 19.9666 9.58004 19.948 9.59404C19.9293 9.60804 19.8873 9.60804 19.822 9.59404C19.64 9.55671 19.4346 9.53804 19.206 9.53804C18.744 9.53804 18.289 9.62204 17.841 9.79004C17.3976 9.95337 16.9963 10.1843 16.637 10.483C16.2823 10.7817 16 11.127 15.79 11.519C15.58 11.9063 15.475 12.3263 15.475 12.779C15.475 13.0777 15.5263 13.3437 15.629 13.577C15.7363 13.8057 15.888 14.0017 16.084 14.165C16.2286 14.277 16.3033 14.34 16.308 14.354C16.3126 14.3633 16.224 14.4123 16.042 14.501C15.6733 14.6737 15.37 14.8977 15.132 15.173C14.8986 15.4483 14.782 15.7633 14.782 16.118C14.782 16.3887 14.859 16.6127 15.013 16.79C15.1016 16.8927 15.1716 16.9603 15.223 16.993C15.2743 17.021 15.286 17.0443 15.258 17.063C15.23 17.0863 15.1436 17.14 14.999 17.224C14.7516 17.3547 14.5183 17.518 14.299 17.714C14.0796 17.91 13.9 18.1317 13.76 18.379C13.62 18.6263 13.55 18.89 13.55 19.17ZM15.902 17.476C15.986 17.3873 16.0606 17.336 16.126 17.322C16.1913 17.3127 16.3056 17.3127 16.469 17.322C16.567 17.3267 16.6673 17.329 16.77 17.329C16.8773 17.3337 16.9846 17.336 17.092 17.336C17.1946 17.336 17.3393 17.336 17.526 17.336C17.7126 17.336 17.897 17.336 18.079 17.336C18.2656 17.336 18.408 17.336 18.506 17.336C18.9446 17.336 19.2526 17.385 19.43 17.483C19.612 17.581 19.703 17.763 19.703 18.029C19.703 18.295 19.6213 18.5307 19.458 18.736C19.2946 18.946 19.0706 19.121 18.786 19.261C18.506 19.401 18.191 19.5083 17.841 19.583C17.491 19.6577 17.1316 19.695 16.763 19.695C16.5156 19.695 16.28 19.667 16.056 19.611C15.832 19.5597 15.6476 19.4733 15.503 19.352C15.363 19.2353 15.293 19.0767 15.293 18.876C15.293 18.694 15.3396 18.47 15.433 18.204C15.531 17.9427 15.6873 17.7 15.902 17.476ZM17.253 12.94C17.253 12.5107 17.3346 12.0953 17.498 11.694C17.6613 11.288 17.883 10.9567 18.163 10.7C18.4476 10.4387 18.765 10.308 19.115 10.308C19.3716 10.308 19.556 10.3617 19.668 10.469C19.78 10.5763 19.85 10.7093 19.878 10.868C19.906 11.022 19.92 11.1713 19.92 11.316C19.92 11.7453 19.8453 12.163 19.696 12.569C19.5466 12.9703 19.339 13.3017 19.073 13.563C18.807 13.8197 18.499 13.948 18.149 13.948C17.8923 13.948 17.701 13.9013 17.575 13.808C17.449 13.7147 17.3626 13.591 17.316 13.437C17.274 13.283 17.253 13.1173 17.253 12.94Z" fill="white"/>
</svg>
