<svg width="24" height="24" viewBox="0 0 24 24" fill="none" xmlns="http://www.w3.org/2000/svg">
<path d="M1.6946 16.9999L7.5186 6.63989H9.5346L10.9486 16.9999H9.35259L9.0446 14.6759H4.7886L3.5006 16.9999H1.6946ZM5.6006 13.2199H8.8626L8.24659 8.44589L5.6006 13.2199ZM15.1774 19.9539C14.524 19.9539 13.992 19.8699 13.5814 19.7019C13.1707 19.5339 12.8534 19.3239 12.6294 19.0719C12.4147 18.8292 12.2607 18.5819 12.1674 18.3299C12.0834 18.0872 12.032 17.8819 12.0134 17.7139C12.004 17.5459 11.9994 17.4619 11.9994 17.4619H13.5814C13.5814 17.4619 13.5907 17.5179 13.6094 17.6299C13.628 17.7512 13.684 17.8866 13.7774 18.0359C13.8707 18.1946 14.0294 18.3299 14.2534 18.4419C14.4774 18.5632 14.79 18.6239 15.1914 18.6239C15.686 18.6239 16.1014 18.5259 16.4374 18.3299C16.7734 18.1432 17.0394 17.8959 17.2354 17.5879C17.4314 17.2799 17.5667 16.9439 17.6414 16.5799L17.7674 16.0199H17.6834C17.6834 16.0199 17.6367 16.0666 17.5434 16.1599C17.4594 16.2532 17.3287 16.3652 17.1514 16.4959C16.974 16.6172 16.75 16.7246 16.4794 16.8179C16.2087 16.9112 15.8867 16.9579 15.5134 16.9579C14.86 16.9579 14.3234 16.8132 13.9034 16.5239C13.4834 16.2252 13.1707 15.8379 12.9654 15.3619C12.76 14.8859 12.6574 14.3726 12.6574 13.8219C12.6574 13.3086 12.7414 12.7952 12.9094 12.2819C13.0774 11.7592 13.3294 11.2832 13.6654 10.8539C14.0014 10.4246 14.4074 10.0839 14.8834 9.83189C15.3687 9.57056 15.9194 9.43989 16.5354 9.43989C16.9554 9.43989 17.31 9.50522 17.5994 9.63589C17.8887 9.76656 18.122 9.92056 18.2994 10.0979C18.4767 10.2752 18.6027 10.4292 18.6774 10.5599C18.7614 10.6906 18.8034 10.7559 18.8034 10.7559H18.8734L19.1254 9.57989H20.7354L19.2374 16.6079C19.004 17.7279 18.5374 18.5632 17.8374 19.1139C17.1374 19.6739 16.2507 19.9539 15.1774 19.9539ZM16.0314 15.6419C16.5354 15.6419 16.9647 15.4972 17.3194 15.2079C17.6834 14.9186 17.9587 14.5546 18.1454 14.1159C18.332 13.6679 18.4254 13.2199 18.4254 12.7719C18.4254 12.4172 18.36 12.0859 18.2294 11.7779C18.108 11.4699 17.9167 11.2226 17.6554 11.0359C17.4034 10.8492 17.0767 10.7559 16.6754 10.7559C16.162 10.7559 15.7234 10.9006 15.3594 11.1899C15.0047 11.4792 14.7294 11.8479 14.5334 12.2959C14.3467 12.7346 14.2534 13.1779 14.2534 13.6259C14.2534 13.9806 14.314 14.3119 14.4354 14.6199C14.566 14.9279 14.762 15.1752 15.0234 15.3619C15.2847 15.5486 15.6207 15.6419 16.0314 15.6419Z" fill="white"/>
</svg>
