<svg width="24" height="24" viewBox="0 0 24 24" fill="none" xmlns="http://www.w3.org/2000/svg">
<path d="M3.00403 16.9999L6.71403 6.63989H7.66603L11.376 16.9999H10.55L9.51403 14.1159H4.86603L3.83003 16.9999H3.00403ZM5.10403 13.4159H9.27603L7.19003 7.56389L5.10403 13.4159ZM16.315 19.9399C15.727 19.9399 15.237 19.8606 14.845 19.7019C14.4623 19.5432 14.1543 19.3426 13.921 19.0999C13.6876 18.8666 13.515 18.6332 13.403 18.3999C13.291 18.1666 13.2163 17.9659 13.179 17.7979C13.151 17.6392 13.137 17.5599 13.137 17.5599H13.907C13.907 17.5599 13.9163 17.6159 13.935 17.7279C13.963 17.8492 14.019 17.9892 14.103 18.1479C14.187 18.3159 14.3176 18.4839 14.495 18.6519C14.6723 18.8199 14.9056 18.9599 15.195 19.0719C15.4936 19.1839 15.867 19.2399 16.315 19.2399C16.8096 19.2399 17.2156 19.1606 17.533 19.0019C17.8596 18.8432 18.1116 18.6332 18.289 18.3719C18.4756 18.1106 18.6063 17.8259 18.681 17.5179C18.7556 17.2192 18.793 16.9252 18.793 16.6359V15.4319H18.723C18.639 15.5999 18.4943 15.8099 18.289 16.0619C18.0836 16.3139 17.799 16.5379 17.435 16.7339C17.071 16.9299 16.609 17.0279 16.049 17.0279C15.4983 17.0279 15.013 16.9206 14.593 16.7059C14.173 16.4912 13.823 16.2019 13.543 15.8379C13.2723 15.4739 13.067 15.0679 12.927 14.6199C12.787 14.1626 12.717 13.7006 12.717 13.2339C12.717 12.7579 12.787 12.2959 12.927 11.8479C13.067 11.3999 13.2723 10.9939 13.543 10.6299C13.823 10.2659 14.173 9.97656 14.593 9.76189C15.013 9.54722 15.4983 9.43989 16.049 9.43989C16.609 9.43989 17.071 9.53789 17.435 9.73389C17.799 9.92989 18.0836 10.1539 18.289 10.4059C18.4943 10.6579 18.639 10.8679 18.723 11.0359H18.793V9.57989H19.549V16.6359C19.549 17.6812 19.255 18.4932 18.667 19.0719C18.0883 19.6506 17.3043 19.9399 16.315 19.9399ZM16.147 16.3279C16.735 16.3279 17.225 16.1786 17.617 15.8799C18.009 15.5812 18.303 15.1939 18.499 14.7179C18.695 14.2419 18.793 13.7472 18.793 13.2339C18.793 12.7112 18.695 12.2166 18.499 11.7499C18.303 11.2739 18.009 10.8866 17.617 10.5879C17.225 10.2892 16.735 10.1399 16.147 10.1399C15.559 10.1399 15.0643 10.2892 14.663 10.5879C14.271 10.8866 13.977 11.2739 13.781 11.7499C13.585 12.2166 13.487 12.7112 13.487 13.2339C13.487 13.7472 13.585 14.2419 13.781 14.7179C13.977 15.1939 14.271 15.5812 14.663 15.8799C15.0643 16.1786 15.559 16.3279 16.147 16.3279Z" fill="white"/>
</svg>
