<svg width="24" height="24" viewBox="0 0 24 24" fill="none" xmlns="http://www.w3.org/2000/svg">
<path d="M1.63791 16.9999L7.32191 6.63989H10.5559L11.8439 16.9999H9.43591L9.22591 15.1099H5.30591L4.29791 16.9999H1.63791ZM6.39791 13.0379H9.01591L8.56791 8.97789L6.39791 13.0379ZM16.0039 19.9959C15.2946 19.9959 14.7206 19.9072 14.2819 19.7299C13.8432 19.5619 13.5026 19.3472 13.2599 19.0859C13.0172 18.8246 12.8446 18.5632 12.7419 18.3019C12.6392 18.0499 12.5832 17.8352 12.5739 17.6579C12.5552 17.4899 12.5459 17.4059 12.5459 17.4059H14.8559C14.8559 17.4059 14.8652 17.4432 14.8839 17.5179C14.9026 17.5926 14.9492 17.6766 15.0239 17.7699C15.1079 17.8726 15.2292 17.9612 15.3879 18.0359C15.5559 18.1106 15.7846 18.1479 16.0739 18.1479C16.5872 18.1479 17.0026 18.0032 17.3199 17.7139C17.6466 17.4246 17.8566 17.0512 17.9499 16.5939L18.0899 15.9079H17.9919C17.9919 15.9079 17.9499 15.9546 17.8659 16.0479C17.7912 16.1412 17.6746 16.2486 17.5159 16.3699C17.3572 16.4912 17.1519 16.5986 16.8999 16.6919C16.6479 16.7759 16.3539 16.8179 16.0179 16.8179C15.3739 16.8179 14.8419 16.6732 14.4219 16.3839C14.0112 16.0852 13.7032 15.7026 13.4979 15.2359C13.2926 14.7599 13.1899 14.2512 13.1899 13.7099C13.1899 13.2059 13.2739 12.7019 13.4419 12.1979C13.6099 11.6939 13.8526 11.2366 14.1699 10.8259C14.4872 10.4059 14.8746 10.0699 15.3319 9.81789C15.7986 9.56589 16.3306 9.43989 16.9279 9.43989C17.3572 9.43989 17.7119 9.50522 17.9919 9.63589C18.2719 9.76656 18.4912 9.91589 18.6499 10.0839C18.8179 10.2519 18.9346 10.4012 18.9999 10.5319C19.0652 10.6626 19.0979 10.7279 19.0979 10.7279H19.2099L19.4479 9.57989H21.8279L20.3299 16.7199C20.1152 17.7372 19.6579 18.5352 18.9579 19.1139C18.2579 19.7019 17.2732 19.9959 16.0039 19.9959ZM16.9559 14.9839C17.3292 14.9839 17.6466 14.8766 17.9079 14.6619C18.1786 14.4379 18.3792 14.1579 18.5099 13.8219C18.6499 13.4859 18.7199 13.1499 18.7199 12.8139C18.7199 12.4032 18.6126 12.0439 18.3979 11.7359C18.1926 11.4279 17.8659 11.2739 17.4179 11.2739C17.0539 11.2739 16.7366 11.3859 16.4659 11.6099C16.2046 11.8246 16.0039 12.0999 15.8639 12.4359C15.7332 12.7719 15.6679 13.1079 15.6679 13.4439C15.6679 13.8546 15.7706 14.2139 15.9759 14.5219C16.1812 14.8299 16.5079 14.9839 16.9559 14.9839Z" fill="white"/>
</svg>
