<svg width="24" height="24" viewBox="0 0 24 24" fill="none" xmlns="http://www.w3.org/2000/svg">
<path d="M10.14 14.438H6.56996L5.26796 17H3.54596L8.75396 7.19995H10.35L12.31 17H10.588L10.14 14.438ZM9.90196 13.122L9.22996 9.31395H9.15996L7.22796 13.122H9.90196ZM16.0388 20.052C15.5348 20.052 15.1148 19.982 14.7788 19.842L14.9888 18.47C15.0821 18.498 15.2314 18.526 15.4368 18.554C15.6514 18.5913 15.8568 18.61 16.0528 18.61C16.7248 18.61 17.2428 18.414 17.6068 18.022C17.9801 17.6393 18.2134 17.154 18.3068 16.566L18.4888 15.474H18.3768C18.1434 15.8473 17.8074 16.1833 17.3688 16.482C16.9394 16.7713 16.4168 16.916 15.8008 16.916C15.0261 16.916 14.4241 16.664 13.9948 16.16C13.5654 15.656 13.3508 14.9793 13.3508 14.13C13.3508 13.262 13.5141 12.4687 13.8408 11.75C14.1768 11.0313 14.6248 10.462 15.1848 10.042C15.7541 9.62195 16.3748 9.41195 17.0468 9.41195C17.6628 9.41195 18.1434 9.57062 18.4888 9.88795C18.8434 10.2053 19.0628 10.546 19.1468 10.91H19.2448L19.4688 9.62195H21.1768L20.0148 16.566C19.9308 17.0607 19.7534 17.5693 19.4828 18.092C19.2121 18.6147 18.7921 19.072 18.2228 19.464C17.6534 19.856 16.9254 20.052 16.0388 20.052ZM16.6268 15.516C17.0468 15.516 17.4341 15.3807 17.7888 15.11C18.1434 14.83 18.4188 14.466 18.6148 14.018C18.8201 13.5607 18.9228 13.0753 18.9228 12.562C18.9228 12.058 18.7968 11.6427 18.5448 11.316C18.3021 10.98 17.9288 10.812 17.4248 10.812C16.9954 10.812 16.6034 10.9473 16.2488 11.218C15.9034 11.4793 15.6328 11.8387 15.4368 12.296C15.2408 12.744 15.1428 13.234 15.1428 13.766C15.1428 14.2793 15.2641 14.6993 15.5068 15.026C15.7494 15.3527 16.1228 15.516 16.6268 15.516Z" fill="white"/>
</svg>
