<svg width="24" height="24" viewBox="0 0 24 24" fill="none" xmlns="http://www.w3.org/2000/svg">
<path d="M7.57697 17L8.62697 5.80005H10.3595L11.413 17H11.273L10.2405 5.91905H8.74947L7.71347 17H7.57697ZM8.12647 17L8.46596 13.3355H10.524L10.8635 17H10.727L10.4085 13.4545H8.58147L8.26297 17H8.12647ZM7.84997 17L8.87196 6.03455H10.118L11.14 17H11L10.6465 13.227H8.34347L7.98997 17H7.84997ZM8.34347 13.108H10.6325L10.3455 9.94055L9.99896 6.15355H8.99097L8.63747 9.94055L8.34347 13.108ZM8.49747 12.982L8.77397 9.94055L9.10296 6.26905H9.88347L10.216 9.94055L10.489 12.982H8.49747ZM8.64796 12.8665H10.3385L10.0795 9.94055L9.75746 6.38805H9.23247L8.91396 9.94055L8.64796 12.8665ZM14.2996 19.1595C13.6533 19.1595 13.1773 19.0638 12.8716 18.8725C12.5659 18.6835 12.3968 18.3755 12.3641 17.9485C12.3618 17.8972 12.3606 17.8482 12.3606 17.8015C12.3606 17.7548 12.3618 17.6988 12.3641 17.6335C12.3781 17.3302 12.4504 17.098 12.5811 16.937C12.7118 16.7737 12.9124 16.6582 13.1831 16.5905V16.559C12.9964 16.5007 12.8588 16.4213 12.7701 16.321C12.6838 16.2183 12.6383 16.076 12.6336 15.894C12.6313 15.845 12.6301 15.7995 12.6301 15.7575C12.6301 15.7132 12.6313 15.6677 12.6336 15.621C12.6359 15.4063 12.6861 15.2313 12.7841 15.096C12.8844 14.9583 13.0384 14.8638 13.2461 14.8125V14.781C13.0478 14.711 12.8914 14.5757 12.7771 14.375C12.6628 14.1743 12.5963 13.9037 12.5776 13.563C12.5659 13.2807 12.5566 13.0007 12.5496 12.723C12.5426 12.4453 12.5391 12.1653 12.5391 11.883C12.5414 11.5983 12.5449 11.3067 12.5496 11.008C12.5566 10.707 12.5648 10.3943 12.5741 10.07C12.5928 9.51472 12.7339 9.11688 12.9976 8.87655C13.2636 8.63388 13.6894 8.51255 14.2751 8.51255C14.6881 8.51255 15.0008 8.57322 15.2131 8.69455C15.4254 8.81588 15.5689 9.01188 15.6436 9.28255H15.6786C15.7439 9.14955 15.8373 9.03172 15.9586 8.92905C16.0799 8.82638 16.2164 8.74588 16.3681 8.68755C16.5221 8.62922 16.6761 8.60005 16.8301 8.60005V8.71905C16.5384 8.71672 16.2888 8.79255 16.0811 8.94655C15.8734 9.09822 15.7358 9.27788 15.6681 9.48555H15.6296C15.5619 9.17988 15.4231 8.95938 15.2131 8.82405C15.0054 8.68872 14.6928 8.62105 14.2751 8.62105C13.7361 8.62105 13.3441 8.73305 13.0991 8.95705C12.8541 9.17872 12.7246 9.54855 12.7106 10.0665C12.6966 10.5028 12.6861 10.9147 12.6791 11.302C12.6744 11.687 12.6744 12.0638 12.6791 12.4325C12.6838 12.7988 12.6943 13.1745 12.7106 13.5595C12.7293 13.9188 12.8039 14.1988 12.9346 14.3995C13.0653 14.6002 13.2484 14.7297 13.4841 14.788V14.8195C13.2204 14.8732 13.0326 14.963 12.9206 15.089C12.8109 15.215 12.7549 15.3923 12.7526 15.621C12.7503 15.67 12.7491 15.7155 12.7491 15.7575C12.7491 15.7972 12.7503 15.8438 12.7526 15.8975C12.7573 16.0795 12.8121 16.2218 12.9171 16.3245C13.0244 16.4248 13.2029 16.503 13.4526 16.559V16.5975C13.1119 16.6418 12.8693 16.7457 12.7246 16.909C12.5823 17.0723 12.5041 17.3138 12.4901 17.6335C12.4854 17.7012 12.4819 17.7548 12.4796 17.7945C12.4796 17.8365 12.4819 17.8878 12.4866 17.9485C12.5169 18.3382 12.6721 18.6193 12.9521 18.792C13.2321 18.9647 13.6813 19.051 14.2996 19.051C14.9459 19.051 15.4114 18.9588 15.6961 18.7745C15.9808 18.5925 16.1324 18.2903 16.1511 17.868C16.1558 17.805 16.1569 17.7467 16.1546 17.693C16.1546 17.6417 16.1523 17.5822 16.1476 17.5145C16.1219 17.1575 15.9668 16.895 15.6821 16.727C15.3974 16.5567 14.9413 16.4598 14.3136 16.4365C14.0266 16.4225 13.7944 16.3957 13.6171 16.356C13.4421 16.3163 13.3138 16.2592 13.2321 16.1845C13.1528 16.1098 13.1108 16.0142 13.1061 15.8975C13.1038 15.8485 13.1026 15.8007 13.1026 15.754C13.1026 15.7073 13.1026 15.663 13.1026 15.621C13.1096 15.39 13.2029 15.2278 13.3826 15.1345C13.5646 15.0388 13.8621 14.991 14.2751 14.991C14.8211 14.991 15.2119 14.8767 15.4476 14.648C15.6856 14.417 15.8139 14.0495 15.8326 13.5455C15.8489 13.1558 15.8571 12.7942 15.8571 12.4605C15.8594 12.1268 15.8571 11.778 15.8501 11.414C15.8431 11.05 15.8349 10.63 15.8256 10.154C15.8209 9.83672 15.9073 9.57422 16.0846 9.36655C16.2643 9.15655 16.5128 9.05272 16.8301 9.05505V9.16705C16.5268 9.16705 16.3028 9.26855 16.1581 9.47155C16.0134 9.67455 15.9446 9.92188 15.9516 10.2135C15.9609 10.6452 15.9691 11.0395 15.9761 11.3965C15.9854 11.7535 15.9901 12.1035 15.9901 12.4465C15.9901 12.7895 15.9819 13.1593 15.9656 13.556C15.9423 14.1043 15.8011 14.4998 15.5421 14.7425C15.2831 14.9828 14.8608 15.103 14.2751 15.103C14.0418 15.103 13.8481 15.1182 13.6941 15.1485C13.5401 15.1765 13.4234 15.2278 13.3441 15.3025C13.2671 15.3772 13.2263 15.4845 13.2216 15.6245C13.2216 15.6618 13.2216 15.7027 13.2216 15.747C13.2216 15.7913 13.2228 15.8357 13.2251 15.88C13.2298 15.9827 13.2706 16.0655 13.3476 16.1285C13.4269 16.1892 13.5471 16.2347 13.7081 16.265C13.8691 16.293 14.0721 16.3128 14.3171 16.3245C14.9868 16.3525 15.4709 16.4587 15.7696 16.643C16.0706 16.8273 16.2374 17.119 16.2701 17.518C16.2748 17.5833 16.2771 17.6428 16.2771 17.6965C16.2794 17.7525 16.2783 17.8097 16.2736 17.868C16.2549 18.3253 16.0928 18.6543 15.7871 18.855C15.4814 19.058 14.9856 19.1595 14.2996 19.1595ZM14.2996 18.841C14.6659 18.841 14.9669 18.8083 15.2026 18.743C15.4406 18.6777 15.6168 18.5738 15.7311 18.4315C15.8478 18.2915 15.9073 18.1072 15.9096 17.8785C15.9119 17.8108 15.9131 17.7502 15.9131 17.6965C15.9131 17.6452 15.9108 17.5845 15.9061 17.5145C15.8991 17.3302 15.8396 17.1762 15.7276 17.0525C15.6179 16.9288 15.4476 16.8332 15.2166 16.7655C14.9856 16.6978 14.6858 16.6558 14.3171 16.6395C13.7664 16.6138 13.3686 16.6803 13.1236 16.839C12.8809 16.9953 12.7491 17.2613 12.7281 17.637C12.7234 17.7 12.7199 17.7537 12.7176 17.798C12.7176 17.8423 12.7199 17.8948 12.7246 17.9555C12.7433 18.2728 12.8763 18.4992 13.1236 18.6345C13.3733 18.7722 13.7653 18.841 14.2996 18.841ZM14.2996 18.736C13.7863 18.736 13.4188 18.673 13.1971 18.547C12.9778 18.4233 12.8599 18.2238 12.8436 17.9485C12.8413 17.8972 12.8401 17.8493 12.8401 17.805C12.8424 17.7607 12.8448 17.7035 12.8471 17.6335C12.8588 17.2625 12.9859 17.014 13.2286 16.888C13.4713 16.762 13.8329 16.7107 14.3136 16.734C14.6566 16.748 14.9343 16.7853 15.1466 16.846C15.3589 16.9067 15.5153 16.9918 15.6156 17.1015C15.7183 17.2112 15.7754 17.3488 15.7871 17.5145C15.7941 17.5915 15.7964 17.6557 15.7941 17.707C15.7941 17.7583 15.7929 17.8132 15.7906 17.8715C15.7766 18.1795 15.6541 18.4 15.4231 18.533C15.1921 18.6683 14.8176 18.736 14.2996 18.736ZM14.2996 18.6275C14.6169 18.6275 14.8736 18.6018 15.0696 18.5505C15.2679 18.4992 15.4149 18.4175 15.5106 18.3055C15.6063 18.1935 15.6576 18.0477 15.6646 17.868C15.6669 17.8097 15.6681 17.7525 15.6681 17.6965C15.6681 17.6405 15.6669 17.5798 15.6646 17.5145C15.6576 17.3722 15.6086 17.2543 15.5176 17.161C15.4289 17.07 15.2854 16.9988 15.0871 16.9475C14.8911 16.8938 14.6274 16.8565 14.2961 16.8355C13.8388 16.8052 13.5051 16.8565 13.2951 16.9895C13.0874 17.1202 12.9789 17.3348 12.9696 17.6335C12.9673 17.6965 12.9661 17.7513 12.9661 17.798C12.9661 17.847 12.9661 17.8972 12.9661 17.9485C12.9731 18.1772 13.0793 18.3475 13.2846 18.4595C13.4923 18.5715 13.8306 18.6275 14.2996 18.6275ZM14.2996 18.9495C13.7209 18.9495 13.2974 18.8713 13.0291 18.715C12.7631 18.561 12.6208 18.3055 12.6021 17.9485C12.5998 17.8925 12.5986 17.8423 12.5986 17.798C12.5986 17.756 12.5998 17.7012 12.6021 17.6335C12.6114 17.3022 12.7071 17.0572 12.8891 16.8985C13.0711 16.7375 13.3593 16.636 13.7536 16.594V16.5625C13.4456 16.5228 13.2216 16.4517 13.0816 16.349C12.9439 16.2463 12.8716 16.0958 12.8646 15.8975C12.8646 15.8438 12.8646 15.796 12.8646 15.754C12.8646 15.712 12.8646 15.6677 12.8646 15.621C12.8669 15.3807 12.9416 15.1963 13.0886 15.068C13.2356 14.9373 13.4468 14.8545 13.7221 14.8195V14.795C13.4538 14.746 13.2438 14.6212 13.0921 14.4205C12.9428 14.2198 12.8611 13.9317 12.8471 13.556C12.8308 13.1873 12.8203 12.8187 12.8156 12.45C12.8109 12.0813 12.8109 11.7022 12.8156 11.3125C12.8226 10.9205 12.8319 10.5063 12.8436 10.07C12.8576 9.58938 12.9778 9.24638 13.2041 9.04105C13.4328 8.83338 13.7898 8.72955 14.2751 8.72955C14.7254 8.72955 15.0544 8.81938 15.2621 8.99905C15.4698 9.17638 15.5853 9.46572 15.6086 9.86705H15.6436C15.6739 9.65938 15.7404 9.47855 15.8431 9.32455C15.9458 9.16822 16.0811 9.04688 16.2491 8.96055C16.4171 8.87422 16.6108 8.82872 16.8301 8.82405V8.94305C16.4754 8.94072 16.1966 9.05622 15.9936 9.28955C15.7906 9.52288 15.6926 9.79472 15.6996 10.105C15.7113 10.5717 15.7194 10.9952 15.7241 11.3755C15.7288 11.7535 15.7288 12.1175 15.7241 12.4675C15.7194 12.8152 15.7101 13.1768 15.6961 13.5525C15.6774 14.0215 15.5584 14.361 15.3391 14.571C15.1198 14.781 14.7639 14.8848 14.2716 14.8825C13.9823 14.8825 13.7431 14.907 13.5541 14.956C13.3674 15.0027 13.2274 15.0797 13.1341 15.187C13.0408 15.292 12.9918 15.4343 12.9871 15.614C12.9848 15.663 12.9836 15.7108 12.9836 15.7575C12.9859 15.8018 12.9871 15.8473 12.9871 15.894C12.9964 16.1133 13.1061 16.2697 13.3161 16.363C13.5261 16.454 13.8574 16.5088 14.3101 16.5275C14.6858 16.5438 14.9984 16.5882 15.2481 16.6605C15.5001 16.7305 15.6903 16.8355 15.8186 16.9755C15.9493 17.1132 16.0193 17.2928 16.0286 17.5145C16.0333 17.5775 16.0356 17.637 16.0356 17.693C16.0356 17.749 16.0356 17.8073 16.0356 17.868C16.0263 18.2577 15.8828 18.5353 15.6051 18.701C15.3274 18.8667 14.8923 18.9495 14.2996 18.9495ZM14.2751 14.7705C14.7208 14.7705 15.0416 14.6737 15.2376 14.48C15.4359 14.284 15.5433 13.9737 15.5596 13.549C15.5759 13.1687 15.5853 12.8047 15.5876 12.457C15.5899 12.107 15.5876 11.7407 15.5806 11.358C15.5759 10.973 15.5654 10.5367 15.5491 10.049C15.5351 9.60338 15.4231 9.29072 15.2131 9.11105C15.0054 8.93138 14.6928 8.84155 14.2751 8.84155C13.8084 8.84155 13.4783 8.94072 13.2846 9.13905C13.0909 9.33738 12.9894 9.64888 12.9801 10.0735C12.9661 10.7292 12.9579 11.3288 12.9556 11.8725C12.9533 12.4138 12.9614 12.9785 12.9801 13.5665C12.9941 13.9888 13.1026 14.2957 13.3056 14.487C13.5109 14.676 13.8341 14.7705 14.2751 14.7705ZM14.2751 14.662C13.8738 14.662 13.5821 14.5745 13.4001 14.3995C13.2204 14.2222 13.1248 13.9422 13.1131 13.5595C13.0968 12.9902 13.0898 12.4302 13.0921 11.8795C13.0944 11.3265 13.1014 10.7245 13.1131 10.0735C13.1224 9.67222 13.2169 9.38522 13.3966 9.21255C13.5786 9.03755 13.8714 8.95005 14.2751 8.95005C14.6648 8.95005 14.9483 9.03638 15.1256 9.20905C15.3053 9.38172 15.4009 9.65938 15.4126 10.042C15.4289 10.5343 15.4394 10.9742 15.4441 11.3615C15.4511 11.7465 15.4523 12.1128 15.4476 12.4605C15.4453 12.8058 15.4371 13.1663 15.4231 13.542C15.4114 13.9177 15.3181 14.1988 15.1431 14.3855C14.9681 14.5698 14.6788 14.662 14.2751 14.662ZM14.2751 14.55C14.6181 14.55 14.8689 14.4695 15.0276 14.3085C15.1886 14.1475 15.2749 13.8897 15.2866 13.535C15.2983 13.171 15.3053 12.8163 15.3076 12.471C15.3123 12.1233 15.3111 11.7547 15.3041 11.365C15.2994 10.973 15.2901 10.5308 15.2761 10.0385C15.2644 9.68855 15.1758 9.43772 15.0101 9.28605C14.8468 9.13438 14.6018 9.05855 14.2751 9.05855C13.9251 9.05855 13.6684 9.13672 13.5051 9.29305C13.3418 9.44938 13.2554 9.71072 13.2461 10.077C13.2344 10.7117 13.2263 11.3067 13.2216 11.862C13.2169 12.4173 13.2251 12.9832 13.2461 13.5595C13.2601 13.9048 13.3476 14.1568 13.5086 14.3155C13.6696 14.4718 13.9251 14.55 14.2751 14.55Z" fill="white"/>
</svg>
