<svg width="24" height="24" viewBox="0 0 24 24" fill="none" xmlns="http://www.w3.org/2000/svg">
<path d="M7.58749 17L8.63749 5.80005H10.3875L10.4435 6.43705H9.20449L8.86149 10.525L8.65849 12.842H9.91849L9.75049 13.479H8.60249L8.28749 17H7.58749ZM10.7235 17L10.1495 10.497L9.84149 6.96205H10.4715L11.4235 17H10.7235ZM13.9353 19.142C13.4686 19.114 13.0953 19.0113 12.8153 18.834C12.5399 18.6567 12.3929 18.3813 12.3743 18.008C12.3743 17.9613 12.3719 17.9147 12.3673 17.868C12.3673 17.826 12.3696 17.7817 12.3743 17.735C12.3743 17.4503 12.4723 17.2357 12.6683 17.091C12.8643 16.9463 13.0626 16.8577 13.2633 16.825V16.671C12.8433 16.5263 12.6309 16.2953 12.6263 15.978C12.6216 15.9313 12.6193 15.8963 12.6193 15.873C12.6239 15.8497 12.6263 15.8193 12.6263 15.782C12.6263 15.6 12.6916 15.4437 12.8223 15.313C12.9529 15.1823 13.0976 15.103 13.2563 15.075V14.907C13.0276 14.795 12.8596 14.6293 12.7523 14.41C12.6496 14.186 12.5889 13.9013 12.5703 13.556C12.5563 13.2107 12.5469 12.905 12.5423 12.639C12.5376 12.373 12.5353 12.1163 12.5353 11.869C12.5399 11.6217 12.5446 11.3557 12.5493 11.071C12.5539 10.7817 12.5609 10.4457 12.5703 10.063C12.5889 9.56838 12.7033 9.19972 12.9133 8.95705C13.1279 8.71438 13.4686 8.56972 13.9353 8.52305V9.09705C13.6926 9.12972 13.5176 9.22072 13.4103 9.37005C13.3076 9.51472 13.2516 9.73872 13.2423 10.042C13.2329 10.35 13.2259 10.721 13.2213 11.155C13.2166 11.589 13.2143 12.0253 13.2143 12.464C13.2189 12.9027 13.2283 13.2783 13.2423 13.591C13.2563 13.8897 13.3239 14.109 13.4453 14.249C13.5666 14.389 13.7393 14.4777 13.9633 14.515V15.103C13.7066 15.1217 13.5176 15.1823 13.3963 15.285C13.2749 15.3877 13.2143 15.5207 13.2143 15.684C13.2143 15.698 13.2143 15.7143 13.2143 15.733C13.2143 15.747 13.2143 15.761 13.2143 15.775C13.2143 15.929 13.2726 16.048 13.3893 16.132C13.5106 16.2113 13.6926 16.265 13.9353 16.293V16.832C13.6553 16.8413 13.4243 16.8997 13.2423 17.007C13.0603 17.119 12.9669 17.3197 12.9623 17.609C12.9623 17.6417 12.9623 17.6813 12.9623 17.728C12.9623 17.7747 12.9623 17.8237 12.9623 17.875C12.9669 18.1457 13.0579 18.3323 13.2353 18.435C13.4126 18.5423 13.6459 18.603 13.9353 18.617V19.142ZM14.6003 19.142V18.631C14.9129 18.6077 15.1649 18.5423 15.3563 18.435C15.5523 18.3323 15.6596 18.1387 15.6783 17.854C15.6783 17.812 15.6783 17.7677 15.6783 17.721C15.6783 17.679 15.6759 17.6347 15.6713 17.588C15.6573 17.294 15.5499 17.1027 15.3493 17.014C15.1533 16.93 14.9036 16.874 14.6003 16.846V16.335C15.1323 16.377 15.5429 16.4867 15.8323 16.664C16.1216 16.8367 16.2709 17.1423 16.2803 17.581C16.2803 17.6277 16.2803 17.6767 16.2803 17.728C16.2849 17.784 16.2849 17.8353 16.2803 17.882C16.2709 18.3347 16.1099 18.652 15.7973 18.834C15.4846 19.016 15.0856 19.1187 14.6003 19.142ZM14.6003 15.082V14.515C14.8196 14.4777 14.9829 14.3913 15.0903 14.256C15.2023 14.116 15.2653 13.8873 15.2793 13.57C15.2933 13.2293 15.3003 12.8513 15.3003 12.436C15.3049 12.0207 15.3026 11.6007 15.2933 11.176C15.2886 10.7513 15.2793 10.3617 15.2653 10.007C15.2513 9.71305 15.1953 9.49605 15.0973 9.35605C15.0039 9.21605 14.8383 9.12972 14.6003 9.09705V8.52305C15.2396 8.57905 15.6433 8.83805 15.8113 9.30005H15.9653C15.9746 9.08538 16.0609 8.91505 16.2243 8.78905C16.3923 8.66305 16.5929 8.60005 16.8263 8.60005V9.16705H16.7073C16.4833 9.16705 16.3036 9.26272 16.1683 9.45405C16.0329 9.64072 15.9653 9.91838 15.9653 10.287V10.63C15.9746 11.022 15.9793 11.3697 15.9793 11.673C15.9839 11.9717 15.9839 12.268 15.9793 12.562C15.9746 12.856 15.9653 13.1873 15.9513 13.556C15.9279 14.046 15.8136 14.4123 15.6083 14.655C15.4076 14.8977 15.0716 15.04 14.6003 15.082Z" fill="white"/>
</svg>
