<svg width="24" height="24" viewBox="0 0 24 24" fill="none" xmlns="http://www.w3.org/2000/svg">
<path d="M5.38239 17L6.76139 5.80005H9.72238L9.89039 7.22105H7.96539L7.81139 10.364L7.53139 12.821H8.59539L8.22438 14.249H7.37739L7.02739 17H5.38239ZM9.42839 17L8.68639 10.357L8.55339 7.86505H9.93938L11.0664 17H9.42839ZM14.0228 19.583C13.3601 19.5503 12.8725 19.429 12.5598 19.219C12.2471 19.009 12.0605 18.736 11.9998 18.4C11.9905 18.3393 11.9811 18.267 11.9718 18.183C11.9671 18.1037 11.9695 18.0313 11.9788 17.966C12.0068 17.7327 12.1025 17.5367 12.2658 17.378C12.4338 17.2193 12.6625 17.119 12.9518 17.077V16.832C12.3918 16.7293 12.0861 16.4727 12.0348 16.062C12.0255 15.9733 12.0208 15.9057 12.0208 15.859C12.0255 15.8077 12.0301 15.7517 12.0348 15.691C12.0535 15.4997 12.1468 15.3293 12.3148 15.18C12.4828 15.026 12.6998 14.935 12.9658 14.907V14.662C12.6205 14.5127 12.3638 14.277 12.1958 13.955C12.0278 13.633 11.9275 13.2247 11.8948 12.73C11.8855 12.5153 11.8785 12.324 11.8738 12.156C11.8691 11.9833 11.8668 11.8223 11.8668 11.673C11.8715 11.519 11.8761 11.3603 11.8808 11.197C11.8855 11.0337 11.8901 10.854 11.8948 10.658C11.9461 9.94405 12.1351 9.41672 12.4618 9.07605C12.7931 8.73538 13.3135 8.54172 14.0228 8.49505V9.74805C13.8408 9.79005 13.7031 9.87172 13.6098 9.99305C13.5211 10.1143 13.4745 10.28 13.4698 10.49C13.4605 10.7513 13.4535 11.022 13.4488 11.302C13.4441 11.582 13.4418 11.8597 13.4418 12.135C13.4465 12.4057 13.4558 12.6623 13.4698 12.905C13.4791 13.115 13.5305 13.2807 13.6238 13.402C13.7218 13.5187 13.8571 13.6003 14.0298 13.647V14.928C13.7731 14.9467 13.5911 14.9933 13.4838 15.068C13.3811 15.138 13.3298 15.2383 13.3298 15.369C13.3298 15.3737 13.3298 15.383 13.3298 15.397C13.3298 15.4063 13.3298 15.4157 13.3298 15.425C13.3298 15.551 13.3765 15.6467 13.4698 15.712C13.5631 15.7727 13.7475 15.8147 14.0228 15.838V16.951C13.7568 16.9743 13.5468 17.0303 13.3928 17.119C13.2435 17.2123 13.1548 17.35 13.1268 17.532C13.1081 17.588 13.0988 17.6487 13.0988 17.714C13.1035 17.784 13.1128 17.8447 13.1268 17.896C13.1595 18.0827 13.2505 18.218 13.3998 18.302C13.5538 18.386 13.7615 18.4397 14.0228 18.463V19.583ZM14.8558 19.576V18.463C15.1451 18.435 15.3808 18.3743 15.5628 18.281C15.7448 18.1923 15.8568 18.057 15.8988 17.875C15.9221 17.805 15.9315 17.7397 15.9268 17.679C15.9268 17.6183 15.9128 17.553 15.8848 17.483C15.8475 17.301 15.7378 17.1727 15.5558 17.098C15.3738 17.0233 15.1405 16.9743 14.8558 16.951V15.873C15.6071 15.9197 16.1741 16.0713 16.5568 16.328C16.9441 16.58 17.1728 16.9533 17.2428 17.448C17.2521 17.5133 17.2591 17.5927 17.2638 17.686C17.2685 17.784 17.2615 17.8867 17.2428 17.994C17.1728 18.54 16.9185 18.9297 16.4798 19.163C16.0458 19.401 15.5045 19.5387 14.8558 19.576ZM14.8558 14.9V13.647C15.0191 13.5957 15.1451 13.514 15.2338 13.402C15.3225 13.29 15.3738 13.1337 15.3878 12.933C15.4018 12.6903 15.4088 12.4313 15.4088 12.156C15.4135 11.876 15.4135 11.5913 15.4088 11.302C15.4041 11.0127 15.3948 10.7303 15.3808 10.455C15.3668 10.259 15.3178 10.1027 15.2338 9.98605C15.1545 9.86938 15.0285 9.79005 14.8558 9.74805V8.49505C15.7378 8.55105 16.3281 8.84738 16.6268 9.38405H16.8718C16.8998 9.12272 17.0001 8.92905 17.1728 8.80305C17.3501 8.67238 17.5951 8.60472 17.9078 8.60005V9.82505H17.7188C17.4855 9.82505 17.3011 9.89038 17.1658 10.021C17.0351 10.147 16.9698 10.364 16.9698 10.672V11.05C16.9745 11.26 16.9768 11.449 16.9768 11.617C16.9768 11.785 16.9745 11.9553 16.9698 12.128C16.9698 12.3007 16.9651 12.5013 16.9558 12.73C16.9138 13.4393 16.7318 13.9667 16.4098 14.312C16.0878 14.6527 15.5698 14.8487 14.8558 14.9Z" fill="white"/>
</svg>
