<svg width="24" height="24" viewBox="0 0 24 24" fill="none" xmlns="http://www.w3.org/2000/svg">
<path d="M7.62587 17L8.86487 5.80005H10.7969L12.0359 17H10.9369L10.6499 13.864H9.01187L8.72487 17H7.62587ZM9.11687 12.898H10.5519L10.3279 10.448L10.0339 6.76605H9.64187L9.34787 10.448L9.11687 12.898ZM14.8911 19.345C14.2658 19.345 13.7758 19.2493 13.4211 19.058C13.0711 18.8713 12.8751 18.568 12.8331 18.148C12.8331 18.106 12.8284 18.0547 12.8191 17.994C12.8144 17.938 12.8144 17.8773 12.8191 17.812C12.8378 17.5507 12.9288 17.343 13.0921 17.189C13.2554 17.0397 13.4514 16.9487 13.6801 16.916V16.713C13.4701 16.6523 13.3068 16.5637 13.1901 16.447C13.0734 16.3257 13.0081 16.1717 12.9941 15.985C12.9894 15.943 12.9871 15.901 12.9871 15.859C12.9871 15.817 12.9894 15.7727 12.9941 15.726C13.0081 15.53 13.0828 15.3667 13.2181 15.236C13.3581 15.1053 13.5238 15.0283 13.7151 15.005V14.802C13.4538 14.676 13.2578 14.4823 13.1271 14.221C13.0011 13.9597 12.9264 13.6213 12.9031 13.206C12.8984 12.9213 12.8938 12.667 12.8891 12.443C12.8844 12.2143 12.8821 11.9973 12.8821 11.792C12.8821 11.5867 12.8844 11.3673 12.8891 11.134C12.8938 10.896 12.8984 10.623 12.9031 10.315C12.9264 9.89038 13.0034 9.54505 13.1341 9.27905C13.2694 9.00838 13.4748 8.81238 13.7501 8.69105C14.0301 8.56505 14.3988 8.50205 14.8561 8.50205C15.3274 8.50205 15.6984 8.56738 15.9691 8.69805C16.2444 8.82872 16.4474 9.03872 16.5781 9.32805H16.7811C16.7998 9.08072 16.8814 8.89872 17.0261 8.78205C17.1754 8.66072 17.3831 8.60005 17.6491 8.60005V9.44705H17.4251C17.2431 9.44705 17.0984 9.52405 16.9911 9.67805C16.8838 9.82738 16.8254 10.0607 16.8161 10.378L16.8091 11.113C16.8138 11.2997 16.8161 11.477 16.8161 11.645C16.8161 11.8083 16.8161 11.9693 16.8161 12.128C16.8161 12.2867 16.8138 12.4523 16.8091 12.625C16.8091 12.7977 16.8044 12.9913 16.7951 13.206C16.7718 13.64 16.6924 13.99 16.5571 14.256C16.4218 14.522 16.2164 14.7157 15.9411 14.837C15.6658 14.9537 15.3018 15.012 14.8491 15.012C14.4851 15.0073 14.2238 15.0493 14.0651 15.138C13.9111 15.222 13.8341 15.3597 13.8341 15.551V15.621C13.8388 15.7423 13.8714 15.838 13.9321 15.908C13.9974 15.9733 14.1071 16.0247 14.2611 16.062C14.4151 16.0947 14.6298 16.1157 14.9051 16.125C15.5958 16.1437 16.1184 16.2557 16.4731 16.461C16.8278 16.6663 17.0284 17.021 17.0751 17.525C17.0798 17.5903 17.0821 17.6557 17.0821 17.721C17.0821 17.7863 17.0798 17.8587 17.0751 17.938C17.0471 18.288 16.9421 18.5657 16.7601 18.771C16.5781 18.9763 16.3261 19.1233 16.0041 19.212C15.6868 19.3007 15.3158 19.345 14.8911 19.345ZM14.9121 18.533C15.1501 18.533 15.3578 18.5143 15.5351 18.477C15.7124 18.4397 15.8524 18.372 15.9551 18.274C16.0578 18.1807 16.1161 18.0477 16.1301 17.875C16.1394 17.8143 16.1418 17.7583 16.1371 17.707C16.1371 17.6603 16.1348 17.609 16.1301 17.553C16.1114 17.3757 16.0508 17.245 15.9481 17.161C15.8454 17.077 15.7054 17.0187 15.5281 16.986C15.3554 16.9533 15.1501 16.9323 14.9121 16.923C14.5574 16.9043 14.2821 16.9393 14.0861 17.028C13.8901 17.1213 13.7804 17.301 13.7571 17.567C13.7524 17.6137 13.7501 17.665 13.7501 17.721C13.7501 17.777 13.7524 17.8283 13.7571 17.875C13.7711 18.057 13.8248 18.1947 13.9181 18.288C14.0161 18.386 14.1468 18.4513 14.3101 18.484C14.4781 18.5167 14.6788 18.533 14.9121 18.533ZM14.8491 14.172C15.1664 14.172 15.3881 14.109 15.5141 13.983C15.6448 13.8523 15.7171 13.633 15.7311 13.325C15.7404 13.0963 15.7474 12.8537 15.7521 12.597C15.7614 12.3357 15.7661 12.0697 15.7661 11.799C15.7661 11.5237 15.7614 11.2507 15.7521 10.98C15.7474 10.7047 15.7404 10.4433 15.7311 10.196C15.7171 9.87872 15.6448 9.65705 15.5141 9.53105C15.3834 9.40505 15.1618 9.34205 14.8491 9.34205C14.5364 9.34205 14.3124 9.40505 14.1771 9.53105C14.0418 9.65705 13.9671 9.88105 13.9531 10.203C13.9438 10.4783 13.9368 10.7537 13.9321 11.029C13.9274 11.2997 13.9251 11.568 13.9251 11.834C13.9251 12.0953 13.9274 12.3497 13.9321 12.597C13.9368 12.8443 13.9438 13.0823 13.9531 13.311C13.9718 13.619 14.0464 13.8407 14.1771 13.976C14.3078 14.1067 14.5318 14.172 14.8491 14.172Z" fill="white"/>
</svg>
