<svg width="24" height="24" viewBox="0 0 24 24" fill="none" xmlns="http://www.w3.org/2000/svg">
<path d="M13.992 15.9461V16.9698H10.002V15.9461H11.0579L10.4776 15.1239H6.66491L6.07648 15.9461H7.14855V16.9698H3.15048V15.9461H4.65782L7.36618 12.4559H6.278V11.4402H10.8564V12.4559H9.7763L12.4847 15.9461H13.992ZM9.84079 14.2211L8.59139 12.4559H8.55915L7.3017 14.2211H9.84079ZM19.8953 16.0428C20.4111 16.0428 20.8115 16.1422 21.0963 16.3411C21.3811 16.5399 21.5235 16.8166 21.5235 17.1713C21.5235 17.526 21.3462 17.8269 20.9915 18.0741C20.6422 18.3213 20.1505 18.5094 19.5164 18.6383C18.8823 18.7673 18.1515 18.8318 17.3239 18.8318C16.6683 18.8318 16.1095 18.7727 15.6473 18.6545C15.1906 18.5416 14.8466 18.3831 14.6156 18.1789C14.3845 17.9801 14.269 17.7517 14.269 17.4937C14.269 17.3164 14.3066 17.1552 14.3818 17.0101C14.4624 16.865 14.5726 16.7414 14.7123 16.6393C14.5403 16.4674 14.4544 16.2605 14.4544 16.0186C14.4544 15.8521 14.5081 15.6908 14.6156 15.535C14.7284 15.3792 14.8762 15.2475 15.0589 15.14C14.8225 14.9358 14.7042 14.6994 14.7042 14.4307C14.7042 13.9901 14.9917 13.6542 15.5667 13.4231C16.1417 13.1867 16.894 13.0685 17.8237 13.0685C18.5814 13.0685 19.2128 13.1437 19.7179 13.2942C19.7878 12.8696 19.9812 12.5526 20.2983 12.343C20.6153 12.1281 20.9727 12.0098 21.3704 11.9883V13.0362C20.8276 13.0255 20.4676 13.1867 20.2902 13.5199C20.7255 13.7509 20.9431 14.0545 20.9431 14.4307C20.9431 14.8714 20.6556 15.2099 20.0807 15.4463C19.5057 15.6774 18.7533 15.7929 17.8237 15.7929C16.9746 15.7929 16.276 15.6962 15.7279 15.5028C15.6205 15.5995 15.5667 15.7043 15.5667 15.8171C15.5667 15.973 15.6634 16.0912 15.8569 16.1718C16.0557 16.247 16.3808 16.2846 16.8322 16.2846C17.0687 16.2846 17.3669 16.2658 17.727 16.2282C18.087 16.1906 18.3046 16.1691 18.3799 16.1637C19.0731 16.0831 19.5782 16.0428 19.8953 16.0428ZM17.8237 13.8584C17.2379 13.8584 16.7758 13.9041 16.4373 13.9954C16.0987 14.0868 15.9294 14.2319 15.9294 14.4307C15.9294 14.6242 16.0987 14.7693 16.4373 14.866C16.7812 14.9573 17.2433 15.003 17.8237 15.003C18.404 15.003 18.8635 14.9573 19.202 14.866C19.546 14.7693 19.7179 14.6242 19.7179 14.4307C19.7179 14.2319 19.5487 14.0868 19.2101 13.9954C18.8716 13.9041 18.4094 13.8584 17.8237 13.8584ZM17.3239 17.9613C17.9634 17.9613 18.5061 17.9263 18.9522 17.8565C19.4036 17.792 19.7394 17.7087 19.9597 17.6066C20.1854 17.5045 20.2983 17.3943 20.2983 17.2761C20.2983 17.1686 20.2526 17.0907 20.1613 17.0423C20.0753 16.994 19.9329 16.9698 19.734 16.9698C19.5782 16.9698 19.3633 16.9832 19.0892 17.0101C18.8151 17.0423 18.6459 17.0611 18.5814 17.0665C17.7861 17.1633 17.1788 17.2116 16.7597 17.2116C16.2546 17.2116 15.8193 17.1552 15.4539 17.0423C15.427 17.1122 15.4136 17.1821 15.4136 17.2519C15.4136 17.4561 15.5801 17.6254 15.9133 17.7597C16.2465 17.8941 16.7167 17.9613 17.3239 17.9613Z" fill="white"/>
</svg>
