<svg width="24" height="24" viewBox="0 0 24 24" fill="none" xmlns="http://www.w3.org/2000/svg">
<path d="M14.0048 16.1234V16.9698H10.1034V16.1234H11.2883L10.5387 15.0594H6.6051L5.84741 16.1234H7.03232V16.9698H3.12292V16.1234H4.67862L7.57238 12.2785H6.3391V11.4402H10.7886V12.2785H9.56335L12.4652 16.1234H14.0048ZM10.0148 14.3098L8.58802 12.2785H8.56383L7.12904 14.3098H10.0148ZM19.8591 16.1073C20.3535 16.1073 20.7404 16.204 21.0198 16.3975C21.3046 16.5856 21.447 16.8516 21.447 17.1955C21.447 17.5394 21.2751 17.8323 20.9311 18.0741C20.5872 18.3159 20.109 18.4986 19.4964 18.6222C18.8837 18.7458 18.1771 18.8076 17.3764 18.8076C16.7154 18.8076 16.1566 18.7512 15.6998 18.6383C15.243 18.5255 14.9018 18.3697 14.6761 18.1708C14.4504 17.972 14.3376 17.7463 14.3376 17.4937C14.3376 17.1498 14.4907 16.8677 14.797 16.6474C14.5982 16.4754 14.4988 16.2658 14.4988 16.0186C14.4988 15.8467 14.5579 15.6828 14.6761 15.5269C14.7943 15.3657 14.9475 15.2341 15.1356 15.132C14.9152 14.9278 14.8051 14.694 14.8051 14.4307C14.8051 13.9901 15.0845 13.6542 15.6434 13.4231C16.2023 13.1867 16.9304 13.0685 17.8278 13.0685C18.5909 13.0685 19.225 13.1518 19.7301 13.3183C19.8053 12.9046 19.9934 12.5929 20.2944 12.3833C20.5953 12.1737 20.9392 12.0609 21.3261 12.0448V12.9153C20.7404 12.9153 20.3642 13.1141 20.1976 13.5118C20.6329 13.7429 20.8505 14.0492 20.8505 14.4307C20.8505 14.8714 20.5684 15.2099 20.0042 15.4463C19.4453 15.6828 18.7198 15.801 17.8278 15.801C16.9143 15.801 16.1915 15.6855 15.6595 15.4544C15.4983 15.5673 15.4177 15.6989 15.4177 15.8494C15.4177 16.204 15.853 16.3814 16.7235 16.3814C16.9653 16.3814 17.2716 16.3599 17.6424 16.3169C18.0132 16.2739 18.2335 16.2497 18.3034 16.2443C19.0342 16.153 19.5528 16.1073 19.8591 16.1073ZM17.8278 13.7375C17.2152 13.7375 16.7262 13.7939 16.3608 13.9068C15.9954 14.0196 15.8127 14.1943 15.8127 14.4307C15.8127 14.6618 15.9954 14.8364 16.3608 14.9546C16.7316 15.0729 17.2206 15.132 17.8278 15.132C18.435 15.132 18.9214 15.0729 19.2868 14.9546C19.6576 14.8364 19.843 14.6618 19.843 14.4307C19.843 14.1943 19.6603 14.0196 19.2948 13.9068C18.9294 13.7939 18.4404 13.7375 17.8278 13.7375ZM17.3764 18.0822C18.0213 18.0822 18.5721 18.0445 19.0288 17.9693C19.491 17.8995 19.8403 17.8027 20.0767 17.6791C20.3185 17.5609 20.4394 17.4266 20.4394 17.2761C20.4394 17.1418 20.3803 17.0423 20.2621 16.9779C20.1493 16.9134 19.9719 16.8811 19.7301 16.8811C19.5582 16.8811 19.319 16.8999 19.0127 16.9376C18.7118 16.9698 18.5291 16.9886 18.4646 16.994C18.0508 17.0423 17.7042 17.08 17.4248 17.1068C17.1507 17.1337 16.8982 17.1471 16.6671 17.1471C16.1727 17.1471 15.7482 17.088 15.3935 16.9698C15.3183 17.0611 15.2807 17.1713 15.2807 17.3003C15.2807 17.526 15.458 17.7114 15.8127 17.8565C16.1727 18.0069 16.6939 18.0822 17.3764 18.0822Z" fill="white"/>
</svg>
