<svg width="24" height="24" viewBox="0 0 24 24" fill="none" xmlns="http://www.w3.org/2000/svg">
<path d="M9.80669 13.906H5.38269L4.24869 17H2.84869L6.83869 6.26196H8.35069L12.3547 17H10.9547L9.80669 13.906ZM9.34469 12.688L7.59469 7.95596L5.84469 12.688H9.34469ZM20.4806 9.25796V17.154C20.4806 18.2087 20.2333 19.03 19.7386 19.618C19.2533 20.2153 18.3993 20.514 17.1766 20.514C16.5793 20.514 16.0613 20.4767 15.6226 20.402C15.1933 20.3273 14.7499 20.1967 14.2926 20.01V18.708C14.7219 18.904 15.1513 19.0487 15.5806 19.142C16.0099 19.2447 16.4066 19.296 16.7706 19.296C17.4426 19.296 17.9513 19.2073 18.2966 19.03C18.6419 18.862 18.8706 18.6147 18.9826 18.288C19.1039 17.9707 19.1646 17.546 19.1646 17.014V16.02C18.4273 16.6453 17.6806 16.958 16.9246 16.958C15.8793 16.958 15.0439 16.6173 14.4186 15.936C13.8026 15.2547 13.4946 14.2747 13.4946 12.996C13.4946 11.708 13.8073 10.728 14.4326 10.056C15.0579 9.37463 15.8886 9.03396 16.9246 9.03396C17.6713 9.03396 18.4179 9.35129 19.1646 9.98596V9.25796H20.4806ZM17.1066 15.74C17.7879 15.74 18.4739 15.4507 19.1646 14.872V11.134C18.4926 10.5553 17.8066 10.266 17.1066 10.266C16.3786 10.266 15.8186 10.5087 15.4266 10.994C15.0439 11.47 14.8526 12.1373 14.8526 12.996C14.8526 13.8827 15.0439 14.564 15.4266 15.04C15.8093 15.5067 16.3693 15.74 17.1066 15.74Z" fill="white"/>
</svg>
