<svg width="24" height="24" viewBox="0 0 24 24" fill="none" xmlns="http://www.w3.org/2000/svg">
<path d="M12.4077 16.384L12.1417 16.09L13.2757 16.398L13.1917 17H9.80374L9.90174 16.398L11.3157 16.118L11.2317 16.314L10.8677 14.06L10.9797 14.242H6.89174L7.11574 14.06L6.00974 16.3L5.96774 16.132L7.29774 16.398L7.18574 17H3.92374L4.03574 16.398L5.25374 16.104L4.91774 16.356L9.60774 7.24195L10.7557 7.19995L12.4077 16.384ZM7.32574 13.598L7.25574 13.402H10.9237L10.8117 13.626L9.88774 7.89995L10.1537 7.91395L7.32574 13.598ZM16.2902 20.346C15.8982 20.346 15.4922 20.304 15.0722 20.22C14.6522 20.136 14.2369 20.0287 13.8262 19.898L14.0642 19.072C14.4656 19.212 14.8529 19.3193 15.2262 19.394C15.6089 19.4687 15.9542 19.506 16.2622 19.506C16.6636 19.506 17.0042 19.45 17.2842 19.338C17.5736 19.226 17.8116 19.0673 17.9982 18.862C18.1942 18.6567 18.3482 18.4093 18.4602 18.12C18.5816 17.84 18.6702 17.5367 18.7262 17.21L19.1742 14.256L19.5382 13.752C19.3236 14.5173 19.0202 15.152 18.6282 15.656C18.2456 16.1507 17.8302 16.5193 17.3822 16.762C16.9436 17.0047 16.5236 17.126 16.1222 17.126C15.7676 17.126 15.4409 17.0327 15.1422 16.846C14.8436 16.65 14.6056 16.3513 14.4282 15.95C14.2509 15.5487 14.1622 15.026 14.1622 14.382C14.1622 13.71 14.2649 13.08 14.4702 12.492C14.6756 11.904 14.9602 11.386 15.3242 10.938C15.6976 10.4807 16.1316 10.126 16.6262 9.87395C17.1302 9.61262 17.6716 9.48195 18.2502 9.48195C18.5956 9.48195 18.9549 9.53795 19.3282 9.64995C19.7109 9.76195 20.1029 9.94395 20.5042 10.196L20.0282 10.112L20.2942 9.60795H20.9102L19.7062 17.182C19.6222 17.7607 19.4729 18.2507 19.2582 18.652C19.0529 19.0627 18.8009 19.3893 18.5022 19.632C18.2036 19.884 17.8676 20.066 17.4942 20.178C17.1209 20.29 16.7196 20.346 16.2902 20.346ZM16.5142 16.216C16.7662 16.216 17.0369 16.1413 17.3262 15.992C17.6156 15.8333 17.8956 15.6 18.1662 15.292C18.4369 14.984 18.6749 14.5967 18.8802 14.13C19.0949 13.654 19.2536 13.0987 19.3562 12.464L19.6782 10.476L19.8742 10.882C19.5849 10.6953 19.3002 10.56 19.0202 10.476C18.7496 10.3827 18.4836 10.336 18.2222 10.336C17.7929 10.336 17.3962 10.4433 17.0322 10.658C16.6776 10.8633 16.3696 11.148 16.1082 11.512C15.8469 11.876 15.6416 12.296 15.4922 12.772C15.3522 13.248 15.2822 13.7473 15.2822 14.27C15.2822 14.9513 15.3989 15.446 15.6322 15.754C15.8656 16.062 16.1596 16.216 16.5142 16.216Z" fill="white"/>
</svg>
