<svg width="24" height="24" viewBox="0 0 24 24" fill="none" xmlns="http://www.w3.org/2000/svg">
<path d="M12.0661 15.7541L11.4921 15.1101L12.4301 15.6001L12.2061 17.0001H8.20213L8.42613 15.6001L9.23813 15.1661L9.12613 15.5441L8.95813 14.1301L9.11213 14.4801H6.10213L6.46613 14.1581L5.85013 15.5301L5.83613 15.2221L6.56413 15.6001L6.34013 17.0001H2.60213L2.82613 15.6001L3.94613 15.1381L3.19013 15.6841L7.60013 7.08807L10.4701 7.01807L12.0661 15.7541ZM7.02613 12.9261L6.92813 12.5201H9.01413L8.83213 12.9961L8.31413 8.53007L9.00013 8.54407L7.02613 12.9261ZM15.1108 20.4301C14.5881 20.4301 14.0795 20.3788 13.5848 20.2761C13.0995 20.1828 12.6655 20.0708 12.2828 19.9401L12.8148 18.0781C13.1881 18.1994 13.5661 18.2928 13.9488 18.3581C14.3408 18.4234 14.6861 18.4561 14.9848 18.4561C15.4795 18.4561 15.8715 18.3814 16.1608 18.2321C16.4501 18.0921 16.6648 17.9194 16.8048 17.7141C16.9541 17.5088 17.0568 17.2988 17.1128 17.0841C17.1688 16.8788 17.2061 16.7154 17.2248 16.5941L17.4628 14.9701L18.3728 13.4581C18.2701 14.2514 18.0415 14.9281 17.6868 15.4881C17.3321 16.0481 16.9168 16.4774 16.4408 16.7761C15.9648 17.0654 15.4935 17.2101 15.0268 17.2101C14.6535 17.2101 14.3035 17.1121 13.9768 16.9161C13.6501 16.7108 13.3888 16.3981 13.1928 15.9781C12.9968 15.5581 12.8988 15.0074 12.8988 14.3261C12.8988 13.6261 13.0108 12.9681 13.2348 12.3521C13.4588 11.7361 13.7715 11.1948 14.1728 10.7281C14.5835 10.2614 15.0595 9.8974 15.6008 9.63607C16.1421 9.3654 16.7255 9.23007 17.3508 9.23007C17.7988 9.23007 18.2515 9.3094 18.7088 9.46807C19.1755 9.6174 19.6281 9.8554 20.0668 10.1821L18.8908 9.86007L19.3108 9.45407L20.7528 9.44007L19.6328 16.5661C19.5115 17.3221 19.3015 17.9474 19.0028 18.4421C18.7135 18.9461 18.3588 19.3428 17.9388 19.6321C17.5188 19.9214 17.0661 20.1268 16.5808 20.2481C16.0955 20.3694 15.6055 20.4301 15.1108 20.4301ZM16.1748 15.0401C16.3241 15.0401 16.4688 14.9888 16.6088 14.8861C16.7488 14.7741 16.8748 14.6201 16.9868 14.4241C17.1081 14.2188 17.2155 13.9761 17.3088 13.6961C17.4021 13.4161 17.4768 13.1034 17.5328 12.7581L17.8408 10.8541L18.2748 11.7081C18.0975 11.5494 17.9295 11.4328 17.7708 11.3581C17.6121 11.2834 17.4535 11.2461 17.2948 11.2461C17.0521 11.2461 16.8281 11.3254 16.6228 11.4841C16.4268 11.6428 16.2541 11.8574 16.1048 12.1281C15.9555 12.3894 15.8388 12.6834 15.7548 13.0101C15.6801 13.3368 15.6428 13.6681 15.6428 14.0041C15.6428 14.3494 15.6848 14.6108 15.7688 14.7881C15.8621 14.9561 15.9975 15.0401 16.1748 15.0401Z" fill="white"/>
</svg>
