<svg width="24" height="24" viewBox="0 0 24 24" fill="none" xmlns="http://www.w3.org/2000/svg">
<path d="M7.7002 5.95312H9.29297L11.8701 17.3486H10.1748L9.55957 14.3545H7.43359L6.81836 17.3486H5.12305L7.7002 5.95312ZM9.33398 12.9395L8.79395 9.74708C8.6709 9.0407 8.58203 8.37305 8.52734 7.74414H8.46582C8.40658 8.36849 8.34049 8.90625 8.26758 9.35742C8.24479 9.48503 8.22428 9.61492 8.20605 9.74708L7.65918 12.9395H9.33398ZM18.2822 9.09083V15.2363C18.2822 16.3255 18.1068 17.1185 17.7559 17.6152C17.5827 17.8613 17.3366 18.071 17.0176 18.2441C16.5117 18.5267 16.0013 18.668 15.4863 18.668C14.3333 18.668 13.4128 18.3171 12.7246 17.6152L13.4014 16.3848C13.9984 16.9818 14.6592 17.2803 15.3838 17.2803C15.8122 17.2803 16.1517 17.082 16.4023 16.6855C16.6029 16.3574 16.7031 15.945 16.7031 15.4482V14.8467C16.6165 15.0654 16.5003 15.234 16.3545 15.3525C16.0446 15.6032 15.6846 15.7285 15.2744 15.7285C14.7139 15.7285 14.2057 15.512 13.75 15.0791C13.0391 14.4092 12.6836 13.4886 12.6836 12.3174C12.6836 11.3649 12.9365 10.5537 13.4424 9.88379C13.9574 9.20475 14.584 8.86523 15.3223 8.86523C15.696 8.86523 16.0446 8.97462 16.3682 9.19337C16.5824 9.3392 16.7601 9.52833 16.9014 9.76075L17.0244 9.09083H18.2822ZM16.7031 11.4697C16.6302 11.1644 16.5208 10.916 16.375 10.7246C16.138 10.4193 15.8532 10.2666 15.5205 10.2666C15.2334 10.2666 14.9759 10.4215 14.748 10.7314C14.4473 11.1416 14.2969 11.6748 14.2969 12.3311C14.2969 12.9691 14.4336 13.4795 14.707 13.8623C14.9349 14.1813 15.2015 14.3408 15.5068 14.3408C15.8304 14.3408 16.1152 14.1882 16.3613 13.8828C16.5299 13.6732 16.6439 13.4111 16.7031 13.0967V11.4697Z" fill="white"/>
</svg>
