<svg width="24" height="24" viewBox="0 0 24 24" fill="none" xmlns="http://www.w3.org/2000/svg">
<path d="M6.89453 5.95312H8.71289L13.1426 17.3486H11.1807L10.0186 14.2451H5.5957L4.43359 17.3486H2.47168L6.89453 5.95312ZM9.52637 12.7754L8.4668 9.89062C8.16602 9.07943 7.9541 8.36393 7.83105 7.74414H7.77637C7.65788 8.36393 7.44824 9.07943 7.14746 9.89062L6.08105 12.7754H9.52637ZM21.4209 9.09083V15.2363C21.4209 16.3255 21.1315 17.1618 20.5527 17.7451C19.9421 18.3604 19.0443 18.668 17.8594 18.668C16.3737 18.668 15.1615 18.3171 14.2227 17.6152L15.0088 16.3301C15.7562 16.9271 16.6631 17.2256 17.7295 17.2256C18.9964 17.2256 19.6299 16.6331 19.6299 15.4482V14.8467C19.0921 15.4346 18.4062 15.7285 17.5723 15.7285C16.6471 15.7285 15.8542 15.4323 15.1934 14.8398C14.4551 14.1836 14.0859 13.3473 14.0859 12.3311C14.0859 11.6201 14.2933 10.9684 14.708 10.376C15.1045 9.80633 15.624 9.38932 16.2666 9.125C16.6904 8.95182 17.1302 8.86523 17.5859 8.86523C18.4427 8.86523 19.1559 9.16374 19.7256 9.76075L19.9375 9.09083H21.4209ZM19.6299 11.4971C19.2197 10.7132 18.6068 10.3213 17.791 10.3213C17.194 10.3213 16.7292 10.5195 16.3965 10.916C16.0866 11.2806 15.9316 11.75 15.9316 12.3242C15.9316 12.8939 16.0866 13.3564 16.3965 13.7119C16.7292 14.0947 17.1895 14.2861 17.7773 14.2861C18.6478 14.2861 19.2653 13.8805 19.6299 13.0693V11.4971Z" fill="white"/>
</svg>
