<svg width="24" height="24" viewBox="0 0 24 24" fill="none" xmlns="http://www.w3.org/2000/svg">
<path d="M5.497 16.9999H4.237L7.709 8.22192H8.941L12.371 16.9999H11.111L10.313 14.8859H6.295L5.497 16.9999ZM8.297 9.31392C8.20367 9.64059 8.09167 9.98592 7.961 10.3499C7.83967 10.7139 7.71367 11.0779 7.583 11.4419L6.687 13.8359H9.921L9.025 11.4419C8.83833 10.9286 8.689 10.5132 8.577 10.1959C8.47433 9.87859 8.381 9.58459 8.297 9.31392ZM16.0798 19.2679C15.6131 19.2679 15.1745 19.2352 14.7638 19.1699C14.3625 19.1139 14.0311 19.0346 13.7698 18.9319V17.9099C13.9845 17.9939 14.2971 18.0639 14.7078 18.1199C15.1278 18.1759 15.5431 18.2039 15.9538 18.2039C16.6538 18.2039 17.1391 18.0639 17.4098 17.7839C17.6805 17.5132 17.8158 17.0279 17.8158 16.3279V15.8939C17.4705 16.0992 17.1018 16.2579 16.7098 16.3699C16.3178 16.4726 15.9211 16.5239 15.5198 16.5239C14.5958 16.5239 13.9331 16.2672 13.5318 15.7539C13.1398 15.2406 12.9438 14.4006 12.9438 13.2339C12.9438 12.0486 13.1958 11.2039 13.6998 10.6999C14.2131 10.1959 15.0811 9.94392 16.3038 9.94392C16.7425 9.94392 17.2138 9.97192 17.7178 10.0279C18.2218 10.0746 18.6371 10.1352 18.9638 10.2099V16.0059C18.9638 17.2192 18.7491 18.0639 18.3198 18.5399C17.8905 19.0252 17.1438 19.2679 16.0798 19.2679ZM16.3038 10.9799C15.4078 10.9799 14.8151 11.1339 14.5258 11.4419C14.2365 11.7499 14.0918 12.3472 14.0918 13.2339C14.0918 14.0739 14.2131 14.6572 14.4558 14.9839C14.7078 15.3012 15.1885 15.4599 15.8978 15.4599C16.2058 15.4599 16.5231 15.4179 16.8498 15.3339C17.1858 15.2406 17.5078 15.1146 17.8158 14.9559V11.1339C17.5918 11.0872 17.3491 11.0499 17.0878 11.0219C16.8358 10.9939 16.5745 10.9799 16.3038 10.9799Z" fill="white"/>
</svg>
