<svg width="24" height="24" viewBox="0 0 24 24" fill="none" xmlns="http://www.w3.org/2000/svg">
<path d="M8.65625 13.4365H5.77148L5.38184 14.373C5.23145 14.7467 5.15625 15.0179 5.15625 15.1865C5.15625 15.4281 5.38411 15.5488 5.83984 15.5488H6.3457V16H3.39258V15.5488H3.65918C4.01009 15.5488 4.24707 15.4896 4.37012 15.3711C4.49316 15.2526 4.64355 14.9769 4.82129 14.5439L8.02734 6.66211H8.43066L11.7939 15.5488H12.7441V16H8.23242V15.5488H9.45605L8.65625 13.4365ZM5.96973 12.9648H8.47168L7.26855 9.78613L5.96973 12.9648ZM18.3633 11.1807C18.6322 11.4906 18.7666 11.8506 18.7666 12.2607C18.7666 12.8486 18.516 13.3271 18.0146 13.6963C17.5179 14.0654 16.9574 14.25 16.333 14.25C16.1644 14.25 15.9775 14.2386 15.7725 14.2158C15.5674 14.193 15.3714 14.1816 15.1846 14.1816C14.7926 14.1816 14.4873 14.2523 14.2686 14.3936C14.0544 14.5303 13.9473 14.6875 13.9473 14.8652C13.9473 15.0977 14.1478 15.2139 14.5488 15.2139C14.8314 15.2139 15.2324 15.1888 15.752 15.1387C16.2715 15.0885 16.8525 15.0635 17.4951 15.0635C18.7347 15.0635 19.3545 15.6514 19.3545 16.8271C19.3545 17.6976 19.0355 18.3766 18.3975 18.8643C17.764 19.3519 16.9437 19.5957 15.9365 19.5957C15.1253 19.5957 14.4736 19.4521 13.9814 19.165C13.4938 18.8779 13.25 18.5042 13.25 18.0439C13.25 17.6885 13.5576 17.2783 14.1729 16.8135C13.6032 16.6266 13.3184 16.1868 13.3184 15.4941C13.3184 14.6738 13.7718 14.1475 14.6787 13.915C13.9769 13.5003 13.626 12.958 13.626 12.2881C13.626 11.7822 13.8516 11.3311 14.3027 10.9346C14.7539 10.5335 15.3919 10.333 16.2168 10.333C16.9915 10.333 17.6364 10.5426 18.1514 10.9619C18.3473 10.4287 18.6367 10.1621 19.0195 10.1621C19.4115 10.1621 19.6074 10.3854 19.6074 10.832C19.6074 11.224 19.4661 11.4199 19.1836 11.4199C19.0651 11.4199 18.958 11.3584 18.8623 11.2354C18.7666 11.1077 18.6732 11.0439 18.582 11.0439C18.5137 11.0439 18.4408 11.0895 18.3633 11.1807ZM16.2168 13.9014C16.5449 13.9014 16.7454 13.7829 16.8184 13.5459C16.8958 13.3089 16.9346 12.8623 16.9346 12.2061C16.9346 11.5999 16.8936 11.1898 16.8115 10.9756C16.734 10.7614 16.5221 10.6543 16.1758 10.6543C15.8978 10.6543 15.7064 10.7454 15.6016 10.9277C15.5013 11.11 15.4512 11.5931 15.4512 12.377C15.4512 13.0742 15.5173 13.5026 15.6494 13.6621C15.7861 13.8216 15.9753 13.9014 16.2168 13.9014ZM14.5352 16.8818C14.3802 17.2236 14.3027 17.5039 14.3027 17.7227C14.3027 18.2103 14.485 18.5771 14.8496 18.8232C15.2188 19.0693 15.6973 19.1924 16.2852 19.1924C17.0371 19.1924 17.6364 19.0078 18.083 18.6387C18.5296 18.2741 18.7529 17.8662 18.7529 17.415C18.7529 17.0049 18.4909 16.7998 17.9668 16.7998L15.0957 16.9365C14.9954 16.9365 14.8086 16.9183 14.5352 16.8818Z" fill="white"/>
</svg>
