<svg width="24" height="24" viewBox="0 0 24 24" fill="none" xmlns="http://www.w3.org/2000/svg">
<path d="M3.61012 17.0001L9.78412 6.29712H10.2111L11.5341 17.0001H9.83312L8.93712 8.19412L3.86912 17.0001H3.61012ZM2.52512 17.0001V16.7761H5.60512V17.0001H2.52512ZM8.22312 17.0001V16.7761H12.5211V17.0001H8.22312ZM5.73112 13.6821V13.4651H10.3581V13.6821H5.73112ZM15.605 20.6401C14.9284 20.6401 14.3847 20.5631 13.974 20.4091C13.5634 20.2551 13.267 20.0474 13.085 19.7861C12.903 19.5248 12.812 19.2378 12.812 18.9251C12.812 18.6544 12.8937 18.4024 13.057 18.1691C13.2157 17.9404 13.4164 17.7374 13.659 17.5601C13.9064 17.3874 14.1607 17.2521 14.422 17.1541C14.688 17.0561 14.926 17.0071 15.136 17.0071H15.437C15.1244 17.0584 14.8537 17.1751 14.625 17.3571C14.3964 17.5391 14.2214 17.7654 14.1 18.0361C13.9787 18.3068 13.918 18.6008 13.918 18.9181C13.918 19.3708 14.0534 19.7278 14.324 19.9891C14.5994 20.2551 15.0194 20.3881 15.584 20.3881C16.116 20.3881 16.6154 20.3251 17.082 20.1991C17.5487 20.0778 17.957 19.9051 18.307 19.6811C18.657 19.4618 18.93 19.2051 19.126 18.9111C19.322 18.6218 19.42 18.3091 19.42 17.9731C19.42 17.7024 19.3314 17.5088 19.154 17.3921C18.9767 17.2801 18.7387 17.2241 18.44 17.2241C18.3514 17.2241 18.2114 17.2241 18.02 17.2241C17.8287 17.2241 17.6117 17.2241 17.369 17.2241C17.131 17.2241 16.8954 17.2241 16.662 17.2241C16.4334 17.2241 16.2304 17.2241 16.053 17.2241C15.8757 17.2241 15.7567 17.2241 15.696 17.2241C15.276 17.2241 14.9097 17.1658 14.597 17.0491C14.289 16.9371 14.0487 16.7784 13.876 16.5731C13.708 16.3678 13.624 16.1298 13.624 15.8591C13.624 15.6211 13.6894 15.4064 13.82 15.2151C13.9507 15.0191 14.1304 14.8488 14.359 14.7041C14.5877 14.5594 14.8537 14.4498 15.157 14.3751C15.465 14.2958 15.794 14.2561 16.144 14.2561L16.13 14.3961C15.682 14.3961 15.339 14.4941 15.101 14.6901C14.8677 14.8861 14.751 15.0914 14.751 15.3061C14.751 15.5068 14.821 15.6631 14.961 15.7751C15.101 15.8824 15.276 15.9571 15.486 15.9991C15.696 16.0411 15.9084 16.0621 16.123 16.0621C16.2864 16.0621 16.4847 16.0621 16.718 16.0621C16.956 16.0574 17.1894 16.0551 17.418 16.0551C17.6467 16.0504 17.8264 16.0481 17.957 16.0481C18.4984 16.0481 18.9487 16.1601 19.308 16.3841C19.6674 16.6034 19.847 17.0048 19.847 17.5881C19.847 18.0968 19.721 18.5424 19.469 18.9251C19.2217 19.3078 18.888 19.6251 18.468 19.8771C18.0527 20.1338 17.5954 20.3251 17.096 20.4511C16.5967 20.5771 16.0997 20.6401 15.605 20.6401ZM17.131 14.7601C16.7297 14.7601 16.3704 14.6831 16.053 14.5291C15.7357 14.3751 15.486 14.1558 15.304 13.8711C15.122 13.5864 15.031 13.2458 15.031 12.8491C15.031 12.4011 15.1594 11.9951 15.416 11.6311C15.6774 11.2624 16.0204 10.9708 16.445 10.7561C16.8744 10.5368 17.3364 10.4271 17.831 10.4271C18.2324 10.4271 18.5894 10.5088 18.902 10.6721C19.2194 10.8354 19.469 11.0664 19.651 11.3651C19.833 11.6591 19.924 12.0044 19.924 12.4011C19.924 12.8444 19.7934 13.2458 19.532 13.6051C19.2754 13.9598 18.9347 14.2421 18.51 14.4521C18.09 14.6574 17.6304 14.7601 17.131 14.7601ZM16.97 14.5361C17.1474 14.5361 17.3224 14.4731 17.495 14.3471C17.6677 14.2164 17.831 14.0438 17.985 13.8291C18.1437 13.6144 18.2814 13.3788 18.398 13.1221C18.5147 12.8654 18.6057 12.6064 18.671 12.3451C18.741 12.0838 18.776 11.8434 18.776 11.6241C18.776 11.3441 18.713 11.1131 18.587 10.9311C18.461 10.7444 18.2627 10.6511 17.992 10.6511C17.81 10.6511 17.6327 10.7164 17.46 10.8471C17.2874 10.9731 17.124 11.1434 16.97 11.3581C16.816 11.5681 16.6784 11.8014 16.557 12.0581C16.4404 12.3148 16.347 12.5738 16.277 12.8351C16.2117 13.0964 16.179 13.3368 16.179 13.5561C16.179 13.8314 16.242 14.0648 16.368 14.2561C16.494 14.4428 16.6947 14.5361 16.97 14.5361ZM20.834 10.4901C21.0954 10.4901 21.3124 10.5718 21.485 10.7351C21.6624 10.8938 21.751 11.1061 21.751 11.3721C21.751 11.5821 21.6857 11.7641 21.555 11.9181C21.429 12.0674 21.2587 12.1421 21.044 12.1421C20.8527 12.1421 20.6847 12.0814 20.54 11.9601C20.3954 11.8341 20.323 11.6661 20.323 11.4561C20.323 11.2834 20.3744 11.1411 20.477 11.0291C20.5844 10.9124 20.715 10.8424 20.869 10.8191C20.9764 10.8331 21.0767 10.8704 21.17 10.9311C21.268 10.9918 21.345 11.0758 21.401 11.1831C21.359 11.0338 21.275 10.9194 21.149 10.8401C21.0277 10.7561 20.8924 10.7141 20.743 10.7141C20.5377 10.7141 20.344 10.7724 20.162 10.8891C19.9847 11.0011 19.8144 11.1644 19.651 11.3791C19.4924 11.5891 19.3407 11.8388 19.196 12.1281L19.035 12.0371C19.2824 11.5191 19.553 11.1318 19.847 10.8751C20.141 10.6184 20.47 10.4901 20.834 10.4901Z" fill="white"/>
</svg>
