<svg width="24" height="24" viewBox="0 0 24 24" fill="none" xmlns="http://www.w3.org/2000/svg">
<path d="M5.44932 17.0001H2.57932L2.64932 16.5101H3.46132L8.37532 7.62012H9.35532L11.7353 16.5101H12.5473L12.4773 17.0001H8.33332L8.40332 16.5101H9.22932L9.36932 16.3701L7.74532 10.0701H7.67532L4.21732 16.3701L4.35732 16.5101H5.51932L5.44932 17.0001ZM5.44932 13.4301H10.0133L9.94332 13.9201H5.37932L5.44932 13.4301ZM12.486 18.7781C12.486 18.4328 12.5886 18.1481 12.794 17.9241C12.9993 17.7001 13.242 17.5881 13.522 17.5881C13.7366 17.5881 13.9233 17.6581 14.082 17.7981C14.2406 17.9381 14.32 18.1434 14.32 18.4141C14.32 18.7034 14.2266 18.9601 14.04 19.1841C13.8626 19.4174 13.6433 19.5528 13.382 19.5901C13.5126 19.7581 13.69 19.8934 13.914 19.9961C14.138 20.0988 14.4086 20.1501 14.726 20.1501C15.202 20.1501 15.622 20.0241 15.986 19.7721C16.35 19.5294 16.6486 19.1794 16.882 18.7221C17.1246 18.2648 17.288 17.7141 17.372 17.0701L17.484 16.2161C17.2693 16.5054 17.008 16.7341 16.7 16.9021C16.392 17.0608 16.0513 17.1401 15.678 17.1401C15.23 17.1401 14.8146 17.0328 14.432 16.8181C14.0493 16.6034 13.7413 16.2721 13.508 15.8241C13.2746 15.3761 13.158 14.8021 13.158 14.1021C13.158 13.5048 13.2513 12.9634 13.438 12.4781C13.634 11.9928 13.8906 11.5774 14.208 11.2321C14.5253 10.8774 14.8753 10.6068 15.258 10.4201C15.65 10.2334 16.0373 10.1401 16.42 10.1401C16.784 10.1401 17.0873 10.2148 17.33 10.3641C17.582 10.5041 17.7826 10.6814 17.932 10.8961C18.0813 11.1014 18.184 11.3068 18.24 11.5121L18.898 10.2801H20.228L19.29 16.9861C19.2246 17.4434 19.0986 17.8868 18.912 18.3161C18.7346 18.7548 18.4826 19.1468 18.156 19.4921C17.8386 19.8468 17.4373 20.1268 16.952 20.3321C16.4666 20.5374 15.888 20.6401 15.216 20.6401C14.544 20.6401 14.0073 20.5421 13.606 20.3461C13.214 20.1501 12.9293 19.9074 12.752 19.6181C12.5746 19.3288 12.486 19.0488 12.486 18.7781ZM15.258 14.3121C15.258 15.0214 15.356 15.5441 15.552 15.8801C15.7573 16.2068 16.0046 16.3701 16.294 16.3701C16.6113 16.3701 16.8913 16.2114 17.134 15.8941C17.386 15.5674 17.5866 15.1428 17.736 14.6201C17.8853 14.0974 17.96 13.5421 17.96 12.9541C17.96 12.2448 17.862 11.7268 17.666 11.4001C17.47 11.0734 17.2226 10.9101 16.924 10.9101C16.616 10.9101 16.336 11.0734 16.084 11.4001C15.832 11.7174 15.6313 12.1328 15.482 12.6461C15.3326 13.1594 15.258 13.7148 15.258 14.3121Z" fill="white"/>
</svg>
