<svg width="24" height="24" viewBox="0 0 24 24" fill="none" xmlns="http://www.w3.org/2000/svg">
<path d="M3.47269 17.0001V16.5101H4.28469L7.72869 7.62012H8.77869L12.0827 16.5101H13.0067V17.0001H9.47869V16.5101H10.3607L10.4587 16.4261L7.84069 9.20212H7.77069L4.98469 16.4261L5.06869 16.5101H6.23069V17.0001H3.47269ZM5.72669 13.7101V13.2201H9.99669V13.7101H5.72669ZM16.6931 10.3501C17.1691 10.3501 17.6311 10.4341 18.0791 10.6021C18.5271 10.7608 18.8957 11.0081 19.1851 11.3441C19.4744 11.6708 19.6191 12.0861 19.6191 12.5901C19.6191 13.0941 19.4744 13.5141 19.1851 13.8501C18.8957 14.1768 18.5271 14.4241 18.0791 14.5921C17.6311 14.7508 17.1691 14.8301 16.6931 14.8301C16.2357 14.8301 15.7831 14.7508 15.3351 14.5921C14.8964 14.4241 14.5371 14.1768 14.2571 13.8501C13.9771 13.5141 13.8371 13.0941 13.8371 12.5901C13.8371 12.0861 13.9771 11.6708 14.2571 11.3441C14.5371 11.0081 14.8964 10.7608 15.3351 10.6021C15.7831 10.4341 16.2357 10.3501 16.6931 10.3501ZM16.7771 14.3401C17.1691 14.3401 17.5051 14.1954 17.7851 13.9061C18.0744 13.6168 18.2191 13.2061 18.2191 12.6741C18.2191 12.2541 18.1397 11.9088 17.9811 11.6381C17.8224 11.3674 17.6217 11.1668 17.3791 11.0361C17.1364 10.9054 16.8844 10.8401 16.6231 10.8401C16.2124 10.8401 15.8764 10.9941 15.6151 11.3021C15.3631 11.6008 15.2371 12.0068 15.2371 12.5201C15.2371 12.9308 15.3117 13.2714 15.4611 13.5421C15.6104 13.8128 15.8017 14.0134 16.0351 14.1441C16.2684 14.2748 16.5157 14.3401 16.7771 14.3401ZM14.9711 15.3901C14.9711 15.6141 15.0644 15.7774 15.2511 15.8801C15.4471 15.9828 15.7037 16.0574 16.0211 16.1041C16.3477 16.1414 16.6977 16.1741 17.0711 16.2021C17.4537 16.2208 17.8364 16.2534 18.2191 16.3001C18.6017 16.3468 18.9517 16.4308 19.2691 16.5521C19.5864 16.6734 19.8384 16.8554 20.0251 17.0981C20.2211 17.3501 20.3191 17.6814 20.3191 18.0921C20.3191 18.8574 19.9971 19.4734 19.3531 19.9401C18.7184 20.4068 17.8317 20.6401 16.6931 20.6401C16.3477 20.6401 15.9977 20.6121 15.6431 20.5561C15.2884 20.5001 14.9617 20.3974 14.6631 20.2481C14.3737 20.1081 14.1404 19.9168 13.9631 19.6741C13.7857 19.4314 13.6971 19.1234 13.6971 18.7501C13.6971 18.3581 13.8184 18.0221 14.0611 17.7421C14.3131 17.4621 14.6677 17.2334 15.1251 17.0561L15.5031 17.1821C15.2791 17.3781 15.1297 17.5928 15.0551 17.8261C14.9804 18.0594 14.9431 18.2881 14.9431 18.5121C14.9431 18.9881 15.1017 19.3801 15.4191 19.6881C15.7457 19.9961 16.2217 20.1501 16.8471 20.1501C17.3137 20.1501 17.7337 20.0848 18.1071 19.9541C18.4897 19.8328 18.7931 19.6554 19.0171 19.4221C19.2504 19.1888 19.3671 18.9041 19.3671 18.5681C19.3671 18.2881 19.2691 18.0734 19.0731 17.9241C18.8771 17.7841 18.6157 17.6814 18.2891 17.6161C17.9717 17.5601 17.6217 17.5181 17.2391 17.4901C16.8564 17.4621 16.4737 17.4248 16.0911 17.3781C15.7084 17.3408 15.3537 17.2708 15.0271 17.1681C14.7097 17.0748 14.4531 16.9254 14.2571 16.7201C14.0704 16.5148 13.9771 16.2301 13.9771 15.8661C13.9771 15.4648 14.0891 15.1474 14.3131 14.9141C14.5464 14.6714 14.8171 14.4754 15.1251 14.3261L15.4471 14.5361C15.2697 14.6574 15.1437 14.8021 15.0691 14.9701C15.0037 15.1288 14.9711 15.2688 14.9711 15.3901ZM17.7991 10.6021C18.0231 10.2194 18.2891 9.90212 18.5971 9.65012C18.9144 9.39812 19.2364 9.27212 19.5631 9.27212C19.8431 9.27212 20.0437 9.35145 20.1651 9.51012C20.2957 9.65945 20.3611 9.82279 20.3611 10.0001C20.3611 10.1868 20.2957 10.3454 20.1651 10.4761C20.0344 10.6068 19.8757 10.6721 19.6891 10.6721C19.5024 10.6721 19.3437 10.6068 19.2131 10.4761C19.0917 10.3454 19.0311 10.1868 19.0311 10.0001C19.0311 9.92545 19.0544 9.84145 19.1011 9.74812C19.1571 9.65479 19.2131 9.58012 19.2691 9.52412L19.2551 9.90212C19.1057 9.94879 18.9377 10.0514 18.7511 10.2101C18.5644 10.3688 18.3871 10.5974 18.2191 10.8961L17.7991 10.6021Z" fill="white"/>
</svg>
