<svg width="24" height="24" viewBox="0 0 24 24" fill="none" xmlns="http://www.w3.org/2000/svg">
<path d="M10.8027 11.42C10.8757 11.42 10.9167 11.4155 10.9258 11.4063C10.9349 11.3972 10.9531 11.3927 10.9805 11.3927C11.0807 11.3471 11.1354 11.3243 11.1445 11.3243C11.1536 11.3152 11.1673 11.3015 11.1855 11.2833C11.2585 11.2742 11.3132 11.2514 11.3496 11.2149C11.3861 11.1785 11.4408 11.1557 11.5137 11.1466C11.541 11.1284 11.5592 11.1101 11.5684 11.0919C11.5866 11.0646 11.6139 11.0418 11.6504 11.0235C11.7142 10.9415 11.7552 10.8959 11.7734 10.8868C11.7917 10.8686 11.7917 10.8549 11.7734 10.8458C11.8008 10.8276 11.819 10.8093 11.8281 10.7911C11.8464 10.7729 11.8691 10.7547 11.8965 10.7364C11.8965 10.6909 11.9056 10.6544 11.9238 10.6271C11.9512 10.5906 11.974 10.5541 11.9922 10.5177C11.9466 10.3901 11.8965 10.3126 11.8418 10.2853C11.7962 10.2579 11.737 10.2488 11.6641 10.2579C11.5273 10.3217 11.4499 10.3946 11.4316 10.4767C11.3496 10.5587 11.2995 10.6088 11.2812 10.6271C11.263 10.6362 11.2448 10.6407 11.2266 10.6407C11.181 10.6498 11.14 10.6407 11.1035 10.6134C11.0762 10.5769 11.0397 10.5405 10.9941 10.504C11.0033 10.4584 11.0169 10.4265 11.0352 10.4083C11.0625 10.3901 11.0716 10.3582 11.0625 10.3126C11.1081 10.3035 11.14 10.2534 11.1582 10.1622C11.2311 10.0711 11.2721 10.0255 11.2812 10.0255C11.3815 9.94344 11.4453 9.90242 11.4727 9.90242C11.5091 9.90242 11.541 9.88419 11.5684 9.84774C11.6139 9.86597 11.6504 9.87052 11.6777 9.86141C11.7051 9.85229 11.737 9.84774 11.7734 9.84774C11.8008 9.85685 11.8281 9.87052 11.8555 9.88875C11.8919 9.89787 11.9238 9.90698 11.9512 9.9161C12.015 9.96167 12.056 9.98446 12.0742 9.98446C12.0924 9.97534 12.1061 9.97534 12.1152 9.98446C12.1608 10.0118 12.1882 10.0483 12.1973 10.0939C12.2155 10.1394 12.2474 10.1759 12.293 10.2032C12.3203 10.3035 12.3249 10.3673 12.3066 10.3946C12.2975 10.422 12.293 10.4493 12.293 10.4767C12.293 10.504 12.293 10.5313 12.293 10.5587C12.3021 10.5769 12.3021 10.5997 12.293 10.6271C12.2656 10.6726 12.252 10.7091 12.252 10.7364C12.252 10.7547 12.2474 10.7729 12.2383 10.7911C12.2292 10.8093 12.2109 10.8276 12.1836 10.8458C12.1562 10.864 12.1517 10.8914 12.1699 10.9278C12.1243 10.9552 12.0879 10.9962 12.0605 11.0509C12.0423 11.0965 12.0195 11.1375 11.9922 11.1739C11.9375 11.2286 11.8919 11.2605 11.8555 11.2696C11.8372 11.297 11.819 11.3198 11.8008 11.338C11.7826 11.3562 11.7643 11.3744 11.7461 11.3927C11.6641 11.4291 11.6276 11.4565 11.6367 11.4747C11.6458 11.4929 11.6413 11.5066 11.623 11.5157C11.5046 11.534 11.4089 11.5841 11.3359 11.6661C11.2357 11.6843 11.14 11.7162 11.0488 11.7618C10.9668 11.7983 10.8757 11.8256 10.7754 11.8439C10.7298 11.9532 10.707 12.0353 10.707 12.0899C10.707 12.1355 10.7025 12.1811 10.6934 12.2267C10.6842 12.2722 10.6706 12.3224 10.6523 12.3771C10.6341 12.4226 10.625 12.4682 10.625 12.5138C10.6068 12.6231 10.5931 12.7052 10.584 12.7599C10.5749 12.8146 10.5658 12.8692 10.5566 12.9239C10.5475 12.9513 10.543 12.9786 10.543 13.006C10.543 13.0333 10.5384 13.0698 10.5293 13.1153C10.5202 13.1974 10.5111 13.2521 10.502 13.2794C10.4928 13.3067 10.4883 13.3432 10.4883 13.3888C10.4701 13.5255 10.4609 13.603 10.4609 13.6212C10.4609 13.7123 10.4564 13.7716 10.4473 13.7989C10.4382 13.8263 10.4336 13.8582 10.4336 13.8946C10.4427 13.9675 10.4427 14.0131 10.4336 14.0313C10.4245 14.0405 10.4199 14.0541 10.4199 14.0724C10.429 14.1179 10.429 14.1635 10.4199 14.2091C10.4108 14.2455 10.4062 14.2774 10.4062 14.3048C10.4154 14.405 10.4245 14.4552 10.4336 14.4552C10.4245 14.5646 10.4199 14.6284 10.4199 14.6466C10.429 14.6557 10.4336 14.6694 10.4336 14.6876C10.4245 14.8152 10.429 14.9018 10.4473 14.9474C10.4655 14.9929 10.4792 15.0385 10.4883 15.0841C10.5339 15.1479 10.5566 15.1843 10.5566 15.1935C10.5566 15.2026 10.5612 15.2117 10.5703 15.2208C10.6341 15.3211 10.6751 15.3758 10.6934 15.3849C10.7116 15.3849 10.7253 15.394 10.7344 15.4122C10.7708 15.4304 10.8027 15.4532 10.8301 15.4806C10.8665 15.4988 10.9076 15.5216 10.9531 15.5489C11.0443 15.5854 11.1081 15.5991 11.1445 15.5899C11.181 15.5808 11.222 15.5854 11.2676 15.6036C11.2949 15.5945 11.3177 15.5808 11.3359 15.5626C11.3542 15.5444 11.3861 15.5398 11.4316 15.5489C11.4954 15.5125 11.5365 15.4851 11.5547 15.4669C11.5729 15.4487 11.5911 15.4304 11.6094 15.4122C11.6276 15.394 11.6413 15.3758 11.6504 15.3575C11.6686 15.3302 11.696 15.3165 11.7324 15.3165C11.7871 15.2254 11.819 15.1616 11.8281 15.1251C11.8372 15.0886 11.86 15.0613 11.8965 15.0431C11.9056 14.9975 11.9147 14.9519 11.9238 14.9063C11.9421 14.8517 11.9421 14.8015 11.9238 14.756C11.8509 14.6739 11.8053 14.6238 11.7871 14.6056C11.778 14.5873 11.7643 14.5737 11.7461 14.5646C11.7005 14.5646 11.6549 14.5691 11.6094 14.5782C11.5729 14.5782 11.541 14.5965 11.5137 14.6329C11.5319 14.6967 11.5273 14.756 11.5 14.8106C11.4727 14.8653 11.4499 14.92 11.4316 14.9747C11.3861 15.0021 11.3314 15.0157 11.2676 15.0157C11.2038 15.0157 11.1673 14.9793 11.1582 14.9063C11.0853 14.8334 11.0579 14.7833 11.0762 14.756C11.1035 14.7195 11.1217 14.683 11.1309 14.6466C11.1217 14.601 11.1217 14.5691 11.1309 14.5509C11.14 14.5327 11.1491 14.5144 11.1582 14.4962C11.1764 14.4597 11.1947 14.4233 11.2129 14.3868C11.2402 14.3504 11.263 14.3093 11.2812 14.2638C11.3177 14.2455 11.3542 14.2319 11.3906 14.2228C11.4271 14.2045 11.459 14.1817 11.4863 14.1544C11.5501 14.1635 11.6003 14.159 11.6367 14.1407C11.6823 14.1225 11.7279 14.1225 11.7734 14.1407C11.8646 14.1863 11.9102 14.2136 11.9102 14.2228C11.9193 14.2319 11.9329 14.241 11.9512 14.2501C12.0423 14.3139 12.097 14.364 12.1152 14.4005C12.1699 14.4278 12.2064 14.478 12.2246 14.5509C12.2428 14.6147 12.2702 14.6694 12.3066 14.7149C12.2702 14.7787 12.2702 14.8425 12.3066 14.9063C12.2702 14.961 12.2565 15.0248 12.2656 15.0978C12.2109 15.1798 12.1699 15.2345 12.1426 15.2618L12.0742 15.4122C12.0378 15.4669 12.0104 15.5125 11.9922 15.5489C11.901 15.6036 11.8464 15.6629 11.8281 15.7267C11.7917 15.7722 11.7598 15.7996 11.7324 15.8087C11.7142 15.8178 11.7005 15.8315 11.6914 15.8497C11.5638 15.8771 11.4772 15.9044 11.4316 15.9317C11.3952 15.9591 11.3542 15.9773 11.3086 15.9864C11.2083 15.9955 11.1491 16.0047 11.1309 16.0138C11.1126 16.0229 11.0944 16.0229 11.0762 16.0138C10.985 15.9773 10.9258 15.9545 10.8984 15.9454C10.8802 15.9363 10.8711 15.9409 10.8711 15.9591C10.7982 15.9226 10.7572 15.8998 10.748 15.8907C10.748 15.8816 10.7389 15.8725 10.7207 15.8634C10.6842 15.8452 10.6478 15.8269 10.6113 15.8087C10.5749 15.7905 10.5384 15.7631 10.502 15.7267C10.4473 15.672 10.4199 15.631 10.4199 15.6036C10.4199 15.5763 10.4017 15.5626 10.3652 15.5626C10.2923 15.4806 10.2422 15.4168 10.2148 15.3712C10.1966 15.3256 10.1647 15.2937 10.1191 15.2755C10.1009 15.2026 10.0872 15.1524 10.0781 15.1251C10.0781 15.0886 10.0781 15.0522 10.0781 15.0157C10.0872 14.961 10.0872 14.9291 10.0781 14.92C10.069 14.9018 10.0645 14.8836 10.0645 14.8653C10.0645 14.838 10.0645 14.8152 10.0645 14.797C10.0736 14.7696 10.0781 14.7423 10.0781 14.7149C10.0781 14.6694 10.0736 14.6329 10.0645 14.6056C10.0553 14.5691 10.0508 14.5281 10.0508 14.4825C10.0508 14.4369 10.0553 14.3959 10.0645 14.3595C10.0736 14.3139 10.0781 14.2683 10.0781 14.2228C10.0872 14.1772 10.0918 14.1271 10.0918 14.0724C10.1009 14.0086 10.1055 13.9493 10.1055 13.8946C10.0964 13.8126 10.0964 13.7579 10.1055 13.7306C10.1146 13.7032 10.1191 13.6759 10.1191 13.6485C10.1465 13.5574 10.1556 13.5027 10.1465 13.4845C10.1465 13.4571 10.1465 13.4343 10.1465 13.4161C10.1829 13.325 10.1966 13.2794 10.1875 13.2794C10.1784 13.2794 10.1738 13.2748 10.1738 13.2657C10.1921 13.2019 10.2012 13.1609 10.2012 13.1427C10.2012 13.1153 10.2103 13.0925 10.2285 13.0743C10.2103 12.9923 10.2103 12.9194 10.2285 12.8556C10.2467 12.7918 10.265 12.7189 10.2832 12.6368C10.2832 12.6004 10.2786 12.5639 10.2695 12.5274C10.2695 12.491 10.2786 12.45 10.2969 12.4044L10.3516 12.1446C10.3607 12.1173 10.3698 12.0945 10.3789 12.0763C10.3971 12.0489 10.4017 12.0125 10.3926 11.9669C10.3014 11.9487 10.2148 11.9578 10.1328 11.9942C10.0508 12.0307 9.97331 12.0398 9.90039 12.0216C9.88216 12.0307 9.85938 12.0444 9.83203 12.0626C9.8138 12.0808 9.79102 12.0945 9.76367 12.1036C9.73633 12.1127 9.70443 12.1173 9.66797 12.1173C9.64062 12.1173 9.61328 12.1218 9.58594 12.131C9.53125 12.1492 9.48112 12.1629 9.43555 12.172C9.4082 12.1811 9.38086 12.1902 9.35352 12.1993C9.32617 12.2084 9.30339 12.1948 9.28516 12.1583C9.2487 12.1765 9.20768 12.1856 9.16211 12.1856C9.11654 12.1856 9.07096 12.1902 9.02539 12.1993C8.94336 12.2449 8.88411 12.2631 8.84766 12.254C8.8112 12.2449 8.76107 12.2494 8.69727 12.2677C8.59701 12.295 8.54232 12.3087 8.5332 12.3087C8.52409 12.2996 8.51042 12.2996 8.49219 12.3087C8.39193 12.3452 8.32357 12.3588 8.28711 12.3497C8.25065 12.3406 8.21875 12.3543 8.19141 12.3907C8.1276 12.3907 8.08659 12.3953 8.06836 12.4044C8.05013 12.4135 8.0319 12.4272 8.01367 12.4454C7.94987 12.4454 7.90885 12.4545 7.89062 12.4728C7.8724 12.4819 7.84961 12.491 7.82227 12.5001C7.69466 12.5183 7.60807 12.5411 7.5625 12.5685C7.52604 12.5867 7.4987 12.6049 7.48047 12.6231C7.39844 12.6231 7.34831 12.6323 7.33008 12.6505C7.32096 12.6961 7.32552 12.7416 7.34375 12.7872C7.37109 12.8237 7.38932 12.8601 7.39844 12.8966C7.38932 12.9968 7.39844 13.0652 7.42578 13.1017C7.4349 13.129 7.4349 13.1563 7.42578 13.1837C7.42578 13.211 7.43034 13.2384 7.43945 13.2657C7.44857 13.2931 7.45768 13.3204 7.4668 13.3478C7.47591 13.366 7.48503 13.3933 7.49414 13.4298C7.49414 13.4571 7.48958 13.4845 7.48047 13.5118C7.48047 13.5392 7.48047 13.5619 7.48047 13.5802C7.48047 13.6075 7.48047 13.6394 7.48047 13.6759C7.48047 13.7032 7.48503 13.7351 7.49414 13.7716C7.52148 13.8627 7.53516 13.9311 7.53516 13.9767C7.53516 14.0131 7.54427 14.0496 7.5625 14.086C7.55339 14.1134 7.54883 14.1362 7.54883 14.1544C7.54883 14.1635 7.54883 14.1909 7.54883 14.2364C7.54883 14.3093 7.55339 14.3504 7.5625 14.3595C7.57161 14.3686 7.57617 14.3777 7.57617 14.3868C7.58529 14.478 7.58073 14.5646 7.5625 14.6466C7.55339 14.7195 7.55794 14.7924 7.57617 14.8653C7.54883 15.0021 7.5306 15.1023 7.52148 15.1661C7.52148 15.2208 7.51237 15.2709 7.49414 15.3165C7.48503 15.3894 7.47591 15.435 7.4668 15.4532C7.4668 15.4623 7.45768 15.4715 7.43945 15.4806C7.43034 15.5717 7.39844 15.6446 7.34375 15.6993C7.28906 15.7449 7.25716 15.8087 7.24805 15.8907C7.22982 15.9545 7.20247 15.9955 7.16602 16.0138C7.12956 16.032 7.11589 16.0639 7.125 16.1095C7.04297 16.155 6.98828 16.1869 6.96094 16.2052C6.93359 16.2234 6.91081 16.2553 6.89258 16.3009C6.84701 16.31 6.81055 16.3237 6.7832 16.3419C6.76497 16.3601 6.74219 16.3784 6.71484 16.3966C6.5599 16.4604 6.44141 16.4832 6.35938 16.4649C6.26823 16.4467 6.2181 16.4376 6.20898 16.4376C6.14518 16.4194 6.10417 16.4103 6.08594 16.4103C6.07682 16.4194 6.06315 16.4194 6.04492 16.4103C5.9082 16.3373 5.83984 16.2781 5.83984 16.2325C5.75781 16.2052 5.71224 16.1642 5.70312 16.1095L5.55273 15.9728C5.54362 15.909 5.52995 15.8634 5.51172 15.836C5.5026 15.7996 5.48893 15.7722 5.4707 15.754C5.48893 15.672 5.48893 15.6264 5.4707 15.6173C5.46159 15.5991 5.44792 15.5808 5.42969 15.5626C5.39323 15.4441 5.37956 15.3849 5.38867 15.3849C5.4069 15.3849 5.41602 15.3758 5.41602 15.3575C5.38867 15.3119 5.375 15.2709 5.375 15.2345C5.375 15.1889 5.36133 15.1433 5.33398 15.0978C5.37044 15.0248 5.375 14.9793 5.34766 14.961C5.32031 14.9428 5.30664 14.9291 5.30664 14.92C5.31576 14.838 5.32487 14.797 5.33398 14.797C5.3431 14.7879 5.34766 14.7742 5.34766 14.756C5.34766 14.7286 5.34766 14.6967 5.34766 14.6603C5.33854 14.6238 5.33854 14.5965 5.34766 14.5782C5.36589 14.5327 5.375 14.5008 5.375 14.4825C5.36589 14.4643 5.35677 14.4461 5.34766 14.4278C5.35677 14.4096 5.36589 14.3914 5.375 14.3731C5.375 14.3458 5.37956 14.3093 5.38867 14.2638C5.39779 14.1909 5.39779 14.1498 5.38867 14.1407C5.38867 14.1316 5.38867 14.1179 5.38867 14.0997C5.42513 13.9903 5.45247 13.9174 5.4707 13.881C5.48893 13.8354 5.50716 13.7898 5.52539 13.7442C5.58919 13.644 5.62109 13.5939 5.62109 13.5939C5.65755 13.5392 5.68945 13.5027 5.7168 13.4845C5.74414 13.4571 5.75781 13.4252 5.75781 13.3888C5.84896 13.3067 5.89909 13.2566 5.9082 13.2384C5.92643 13.2202 5.94466 13.2065 5.96289 13.1974C6.03581 13.1244 6.07682 13.088 6.08594 13.088C6.09505 13.0789 6.10417 13.0743 6.11328 13.0743C6.23177 12.9558 6.35482 12.8692 6.48242 12.8146C6.54622 12.7416 6.57812 12.7143 6.57812 12.7325C6.57812 12.7416 6.58724 12.7371 6.60547 12.7189C6.6237 12.6915 6.64193 12.6733 6.66016 12.6642C6.6875 12.6459 6.71029 12.6186 6.72852 12.5821C6.77409 12.5821 6.80599 12.5685 6.82422 12.5411C6.84245 12.5138 6.87891 12.5001 6.93359 12.5001C6.92448 12.3998 6.91992 12.3497 6.91992 12.3497C6.92904 12.3406 6.93359 12.3315 6.93359 12.3224C6.91536 12.2221 6.90625 12.1583 6.90625 12.131C6.91536 12.1036 6.90169 12.0808 6.86523 12.0626C6.90169 11.9806 6.88346 11.9122 6.81055 11.8575C6.81966 11.7937 6.82422 11.7527 6.82422 11.7345C6.82422 11.7162 6.8151 11.7026 6.79688 11.6935C6.79688 11.6205 6.79688 11.5567 6.79688 11.5021C6.80599 11.4474 6.80599 11.3836 6.79688 11.3106C6.78776 11.2651 6.77409 11.2286 6.75586 11.2013C6.74674 11.1648 6.74219 11.1238 6.74219 11.0782C6.7513 10.978 6.74674 10.9005 6.72852 10.8458C6.72852 10.782 6.72396 10.7455 6.71484 10.7364C6.70573 10.7182 6.71029 10.7 6.72852 10.6817C6.71029 10.5997 6.69661 10.5405 6.6875 10.504C6.6875 10.4675 6.69661 10.4265 6.71484 10.381C6.6875 10.2989 6.67839 10.2397 6.6875 10.2032C6.70573 10.1668 6.71484 10.1349 6.71484 10.1075C6.6875 9.99813 6.67839 9.93432 6.6875 9.9161C6.69661 9.89787 6.70573 9.87508 6.71484 9.84774C6.71484 9.74748 6.71029 9.66544 6.70117 9.60164C6.70117 9.53784 6.70573 9.49227 6.71484 9.46492C6.70573 9.37378 6.70117 9.29175 6.70117 9.21883C6.70117 9.1368 6.70117 9.06388 6.70117 9.00008C6.70117 8.97274 6.69661 8.94539 6.6875 8.91805C6.6875 8.8907 6.6875 8.86792 6.6875 8.84969C6.6875 8.82235 6.69206 8.79956 6.70117 8.78133C6.71029 8.75399 6.7194 8.72209 6.72852 8.68563C6.73763 8.64005 6.73763 8.59904 6.72852 8.56258C6.72852 8.51701 6.74219 8.48055 6.76953 8.4532C6.76042 8.38029 6.75586 8.30737 6.75586 8.23446C6.75586 8.15242 6.76953 8.07495 6.79688 8.00203L6.90625 7.79696C6.92448 7.76961 6.92448 7.73771 6.90625 7.70125C6.89714 7.65568 6.90169 7.61011 6.91992 7.56453C6.95638 7.5463 6.97461 7.5144 6.97461 7.46883C6.98372 7.42326 7.00195 7.39136 7.0293 7.37313C7.06576 7.2911 7.08398 7.24552 7.08398 7.23641C7.0931 7.21818 7.10677 7.21362 7.125 7.22274C7.14323 7.16805 7.16602 7.13159 7.19336 7.11336C7.22982 7.08602 7.26628 7.05412 7.30273 7.01766C7.30273 6.94474 7.33464 6.8855 7.39844 6.83992C7.4349 6.76701 7.46224 6.72143 7.48047 6.7032C7.4987 6.68498 7.51693 6.66675 7.53516 6.64852C7.59896 6.55737 7.64453 6.50268 7.67188 6.48446C7.69922 6.45711 7.71745 6.42521 7.72656 6.38875C7.79948 6.33406 7.86328 6.30216 7.91797 6.29305C8.05469 6.21102 8.14128 6.16089 8.17773 6.14266C8.24154 6.08797 8.30078 6.04696 8.35547 6.01961C8.41016 6.00138 8.44661 5.99227 8.46484 5.99227C8.48307 5.98315 8.5013 5.9786 8.51953 5.9786C8.66536 5.95125 8.76107 5.93302 8.80664 5.92391C8.85221 5.91479 8.9069 5.91024 8.9707 5.91024C9.04362 5.87378 9.08464 5.86466 9.09375 5.88289C9.10286 5.90112 9.11654 5.91479 9.13477 5.92391C9.23503 5.92391 9.28516 5.92847 9.28516 5.93758C9.28516 5.94669 9.29427 5.95125 9.3125 5.95125C9.44922 5.99682 9.54948 6.01961 9.61328 6.01961C9.71354 6.0743 9.75911 6.1062 9.75 6.11531C9.74089 6.11531 9.74544 6.11987 9.76367 6.12899C9.82747 6.15633 9.86849 6.18367 9.88672 6.21102C9.90495 6.22925 9.92318 6.24748 9.94141 6.2657C9.99609 6.30216 10.0371 6.33406 10.0645 6.36141C10.11 6.40698 10.151 6.448 10.1875 6.48446C10.224 6.52091 10.2695 6.54826 10.3242 6.56649C10.3698 6.63029 10.4108 6.6713 10.4473 6.68953C10.4837 6.79891 10.4974 6.85815 10.4883 6.86727C10.4883 6.86727 10.4928 6.87638 10.502 6.89461C10.5111 6.91284 10.5202 6.93563 10.5293 6.96297C10.5475 6.99031 10.5612 7.02222 10.5703 7.05867C10.5794 7.08602 10.584 7.12248 10.584 7.16805C10.5931 7.20451 10.6068 7.24097 10.625 7.27742C10.6432 7.36857 10.6569 7.4187 10.666 7.42781C10.6842 7.43693 10.6842 7.4506 10.666 7.46883C10.6842 7.54175 10.6979 7.59188 10.707 7.61922C10.7253 7.64656 10.7253 7.67391 10.707 7.70125C10.7253 7.81063 10.7389 7.87443 10.748 7.89266C10.7663 7.90177 10.7799 7.91544 10.7891 7.93367C10.7799 7.97013 10.7799 8.00659 10.7891 8.04305C10.7982 8.07039 10.8073 8.10229 10.8164 8.13875C10.8346 8.24813 10.8438 8.30281 10.8438 8.30281C10.8529 8.34839 10.862 8.39852 10.8711 8.4532C10.8802 8.49878 10.8848 8.54891 10.8848 8.6036C10.8939 8.63094 10.8984 8.66284 10.8984 8.6993C10.8984 8.72664 10.8984 8.75399 10.8984 8.78133C10.9349 8.84513 10.9531 8.90438 10.9531 8.95906C10.9714 9.07755 10.985 9.17326 10.9941 9.24617C11.0033 9.30998 10.9941 9.36011 10.9668 9.39656C10.9941 9.43302 11.0033 9.47404 10.9941 9.51961C10.9941 9.55607 11.0078 9.59253 11.0352 9.62899C11.026 9.68367 11.0124 9.7338 10.9941 9.77938C10.985 9.81584 10.9805 9.87508 10.9805 9.95711C10.9714 10.0574 10.9714 10.1121 10.9805 10.1212C10.9896 10.1303 10.9896 10.144 10.9805 10.1622C10.9531 10.2442 10.9395 10.2944 10.9395 10.3126C10.9486 10.3673 10.9486 10.4129 10.9395 10.4493C10.9303 10.4858 10.9349 10.5177 10.9531 10.545C10.9349 10.6088 10.9212 10.659 10.9121 10.6954C10.903 10.7319 10.8939 10.7729 10.8848 10.8185C10.8848 10.8458 10.8848 10.8777 10.8848 10.9142C10.8939 10.9415 10.8939 10.9689 10.8848 10.9962C10.8665 11.0691 10.8574 11.1147 10.8574 11.1329C10.8665 11.142 10.8665 11.1557 10.8574 11.1739C10.8301 11.2468 10.8164 11.3015 10.8164 11.338C10.8255 11.3653 10.821 11.3927 10.8027 11.42ZM7.34375 12.2267C7.4349 12.1993 7.48958 12.1811 7.50781 12.172C7.54427 12.1629 7.57617 12.1537 7.60352 12.1446C7.63086 12.1355 7.66276 12.131 7.69922 12.131C7.72656 12.1127 7.75391 12.0991 7.78125 12.0899C7.81771 12.0717 7.85417 12.058 7.89062 12.0489C7.97266 12.0489 8.01367 12.0444 8.01367 12.0353C8.02279 12.0261 8.0319 12.0216 8.04102 12.0216C8.15951 11.9851 8.23242 11.9669 8.25977 11.9669C8.28711 11.9578 8.31445 11.9441 8.3418 11.9259C8.38737 11.9441 8.42839 11.9396 8.46484 11.9122C8.5013 11.8849 8.5332 11.8758 8.56055 11.8849C8.61523 11.8758 8.65625 11.8712 8.68359 11.8712C8.72005 11.8712 8.75651 11.8621 8.79297 11.8439L9.02539 11.8575C9.08919 11.8393 9.12565 11.8347 9.13477 11.8439C9.14388 11.8439 9.15755 11.8439 9.17578 11.8439C9.25781 11.8074 9.30339 11.7937 9.3125 11.8028C9.32161 11.8028 9.33073 11.8028 9.33984 11.8028C9.42188 11.7937 9.47656 11.7846 9.50391 11.7755C9.54036 11.7573 9.57682 11.7527 9.61328 11.7618C9.64974 11.7254 9.6862 11.7117 9.72266 11.7208C9.76823 11.7208 9.8138 11.7117 9.85938 11.6935C9.92318 11.657 9.96419 11.6388 9.98242 11.6388C10.0007 11.6388 10.0189 11.6297 10.0371 11.6114C10.1738 11.6023 10.2695 11.5886 10.3242 11.5704C10.3789 11.5522 10.429 11.5385 10.4746 11.5294C10.5202 11.4747 10.5247 11.4063 10.4883 11.3243C10.5156 11.2241 10.5247 11.1739 10.5156 11.1739C10.5156 11.1648 10.5202 11.1511 10.5293 11.1329C10.5384 11.0235 10.5475 10.9643 10.5566 10.9552C10.5658 10.9461 10.5703 10.9369 10.5703 10.9278C10.5521 10.8093 10.5475 10.741 10.5566 10.7228C10.5749 10.6954 10.5931 10.6681 10.6113 10.6407C10.6022 10.5405 10.6022 10.4903 10.6113 10.4903C10.6204 10.4812 10.625 10.4675 10.625 10.4493C10.6341 10.3855 10.6341 10.3354 10.625 10.2989C10.625 10.2625 10.625 10.2397 10.625 10.2306C10.6432 10.1759 10.6478 10.1394 10.6387 10.1212C10.6387 10.103 10.6387 10.0847 10.6387 10.0665C10.6387 10.0209 10.6432 9.97078 10.6523 9.9161C10.6615 9.85229 10.666 9.79305 10.666 9.73836C10.666 9.66544 10.6569 9.59709 10.6387 9.53328C10.6296 9.46037 10.6387 9.40112 10.666 9.35555C10.6478 9.28263 10.6387 9.21883 10.6387 9.16414C10.6387 9.10946 10.625 9.05477 10.5977 9.00008C10.6068 8.93628 10.6022 8.90438 10.584 8.90438C10.5658 8.89526 10.5612 8.87703 10.5703 8.84969C10.5521 8.72209 10.5475 8.62638 10.5566 8.56258C10.5658 8.49878 10.5612 8.43498 10.543 8.37117C10.5065 8.28003 10.4883 8.22534 10.4883 8.20711C10.4701 8.17977 10.4609 8.15698 10.4609 8.13875C10.4701 8.11141 10.4701 8.07951 10.4609 8.04305C10.4336 7.96102 10.4199 7.91089 10.4199 7.89266C10.429 7.86531 10.4336 7.83797 10.4336 7.81063C10.388 7.62834 10.347 7.50073 10.3105 7.42781C10.2832 7.3549 10.2604 7.26831 10.2422 7.16805C10.1875 7.0769 10.151 7.02677 10.1328 7.01766C10.1146 7.00854 10.0964 6.99943 10.0781 6.99031C10.0872 6.9174 10.069 6.87182 10.0234 6.8536C9.98698 6.82625 9.95508 6.79435 9.92773 6.75789C9.89128 6.67586 9.85938 6.62573 9.83203 6.6075C9.8138 6.58016 9.79102 6.55281 9.76367 6.52547C9.73633 6.50724 9.70898 6.48901 9.68164 6.47078C9.66341 6.45255 9.64518 6.43432 9.62695 6.4161C9.54492 6.40698 9.49935 6.39331 9.49023 6.37508C9.48112 6.34774 9.46745 6.32951 9.44922 6.32039C9.15755 6.23836 8.94336 6.21102 8.80664 6.23836L8.60156 6.29305C8.49219 6.33862 8.42383 6.37052 8.39648 6.38875C8.37826 6.39787 8.36003 6.40698 8.3418 6.4161C8.24154 6.48901 8.17773 6.53459 8.15039 6.55281C8.13216 6.57104 8.10938 6.58016 8.08203 6.58016C8.07292 6.61662 8.05013 6.64396 8.01367 6.66219C7.98633 6.68042 7.95898 6.69865 7.93164 6.71688C7.91341 6.73511 7.89518 6.75789 7.87695 6.78524C7.85872 6.81258 7.83138 6.83081 7.79492 6.83992C7.73112 6.91284 7.6901 6.96297 7.67188 6.99031C7.66276 7.01766 7.63997 7.03589 7.60352 7.045C7.57617 7.09969 7.54883 7.15438 7.52148 7.20906C7.49414 7.25464 7.45312 7.2911 7.39844 7.31844L7.23438 7.68758C7.21615 7.80607 7.19336 7.87443 7.16602 7.89266C7.14779 7.90177 7.14779 7.91544 7.16602 7.93367C7.14779 7.99748 7.12956 8.05672 7.11133 8.11141C7.0931 8.15698 7.0931 8.20711 7.11133 8.2618C7.0931 8.28003 7.08398 8.30737 7.08398 8.34383C7.0931 8.37117 7.0931 8.40307 7.08398 8.43953C7.08398 8.47599 7.07943 8.51245 7.07031 8.54891C7.0612 8.57625 7.05664 8.6036 7.05664 8.63094C7.06576 8.72209 7.0612 8.78589 7.04297 8.82235C7.03385 8.89526 7.03841 8.96362 7.05664 9.02742C7.07487 9.08211 7.07943 9.11857 7.07031 9.1368C7.05208 9.21883 7.04753 9.27352 7.05664 9.30086C7.06576 9.3282 7.06576 9.35555 7.05664 9.38289C7.06576 9.5743 7.06576 9.72013 7.05664 9.82039C7.03841 9.90242 7.0293 9.95711 7.0293 9.98446C7.03841 10.0118 7.04297 10.0346 7.04297 10.0528C7.04297 10.0984 7.03841 10.144 7.0293 10.1896C7.02018 10.226 7.02474 10.267 7.04297 10.3126C7.02474 10.422 7.02018 10.4858 7.0293 10.504C7.04753 10.5131 7.05664 10.5268 7.05664 10.545C7.07487 10.6453 7.07943 10.7182 7.07031 10.7638C7.07031 10.8002 7.07031 10.8504 7.07031 10.9142C7.09766 10.9506 7.11133 10.9916 7.11133 11.0372C7.12044 11.0828 7.125 11.1284 7.125 11.1739C7.14323 11.2742 7.14779 11.3243 7.13867 11.3243C7.12956 11.3243 7.125 11.3334 7.125 11.3517C7.14323 11.4428 7.1569 11.5294 7.16602 11.6114C7.17513 11.6935 7.17969 11.7573 7.17969 11.8028C7.19792 11.894 7.20703 11.9578 7.20703 11.9942C7.20703 12.0216 7.21159 12.0444 7.2207 12.0626C7.23893 12.0808 7.2526 12.1127 7.26172 12.1583C7.27995 12.1948 7.29362 12.2312 7.30273 12.2677L7.34375 12.2267ZM6.96094 12.8966C6.91536 12.9422 6.85612 12.9786 6.7832 13.006C6.7194 13.0333 6.66927 13.0743 6.63281 13.129C6.58724 13.129 6.55534 13.1427 6.53711 13.17C6.52799 13.1974 6.50521 13.2156 6.46875 13.2247C6.38672 13.2794 6.33659 13.3295 6.31836 13.3751C6.30013 13.4116 6.25911 13.4298 6.19531 13.4298C6.1224 13.5027 6.08138 13.5483 6.07227 13.5665C6.06315 13.5847 6.04948 13.5939 6.03125 13.5939C5.98568 13.685 5.95378 13.7442 5.93555 13.7716C5.91732 13.7898 5.89909 13.808 5.88086 13.8263C5.82617 13.9083 5.79883 13.9675 5.79883 14.004C5.79883 14.0405 5.78516 14.0633 5.75781 14.0724C5.73958 14.1817 5.72591 14.2729 5.7168 14.3458C5.70768 14.4187 5.70312 14.4962 5.70312 14.5782C5.69401 14.6147 5.68945 14.6557 5.68945 14.7013C5.69857 14.7377 5.70312 14.7651 5.70312 14.7833C5.70312 14.8015 5.69857 14.8289 5.68945 14.8653C5.68945 14.9018 5.69857 14.9291 5.7168 14.9474C5.70768 15.0294 5.70768 15.0841 5.7168 15.1114C5.72591 15.1297 5.72591 15.1616 5.7168 15.2071C5.73503 15.2254 5.74414 15.2481 5.74414 15.2755C5.75326 15.3028 5.76693 15.3302 5.78516 15.3575C5.7487 15.4396 5.75326 15.5125 5.79883 15.5763C5.8444 15.631 5.8763 15.6948 5.89453 15.7677C5.96745 15.8679 6.00391 15.9272 6.00391 15.9454C6.01302 15.9636 6.02669 15.9819 6.04492 16.0001C6.11784 16.0366 6.19076 16.0639 6.26367 16.0821C6.30924 16.073 6.34115 16.073 6.35938 16.0821C6.3776 16.0912 6.39583 16.1004 6.41406 16.1095C6.48698 16.1004 6.53255 16.0867 6.55078 16.0685C6.56901 16.0593 6.58724 16.0639 6.60547 16.0821C6.66927 16.0092 6.71029 15.9682 6.72852 15.9591C6.74674 15.9409 6.76497 15.9226 6.7832 15.9044C6.81055 15.8862 6.83789 15.8679 6.86523 15.8497C6.89258 15.795 6.90625 15.7586 6.90625 15.7403C6.91536 15.713 6.93359 15.7084 6.96094 15.7267C6.98828 15.6537 7.00651 15.6173 7.01562 15.6173C7.02474 15.6082 7.0293 15.5991 7.0293 15.5899C7.0931 15.4897 7.12044 15.4259 7.11133 15.3985C7.11133 15.3712 7.12044 15.3575 7.13867 15.3575C7.17513 15.239 7.1888 15.1433 7.17969 15.0704C7.17969 14.9884 7.17969 14.9109 7.17969 14.838C7.1888 14.8106 7.19336 14.7833 7.19336 14.756C7.19336 14.7286 7.19336 14.7058 7.19336 14.6876C7.21159 14.6511 7.21615 14.6192 7.20703 14.5919C7.20703 14.5646 7.20247 14.5281 7.19336 14.4825C7.19336 14.4369 7.19792 14.3914 7.20703 14.3458C7.21615 14.2911 7.2207 14.2364 7.2207 14.1817C7.21159 14.1544 7.20247 14.1271 7.19336 14.0997C7.18424 14.0633 7.17513 14.0313 7.16602 14.004C7.1569 13.9493 7.15234 13.8946 7.15234 13.8399C7.15234 13.7853 7.14779 13.7351 7.13867 13.6896C7.12044 13.5802 7.11133 13.5164 7.11133 13.4981C7.12044 13.4799 7.12044 13.4617 7.11133 13.4435C7.0931 13.3705 7.08398 13.3295 7.08398 13.3204C7.0931 13.3022 7.0931 13.284 7.08398 13.2657C7.07487 13.1655 7.06576 13.0925 7.05664 13.047C7.04753 13.0014 7.03385 12.9558 7.01562 12.9103L6.96094 12.8966ZM16.2168 12.3087C16.2806 12.2905 16.3262 12.2586 16.3535 12.213C16.39 12.1674 16.4492 12.1401 16.5312 12.131C16.6042 12.0854 16.6543 12.0717 16.6816 12.0899C16.709 12.1082 16.7363 12.1082 16.7637 12.0899C16.791 12.1082 16.8138 12.1264 16.832 12.1446C16.8594 12.1629 16.8867 12.1765 16.9141 12.1856C16.9323 12.2312 16.9551 12.2677 16.9824 12.295C17.0189 12.3133 17.0508 12.336 17.0781 12.3634C17.151 12.4728 17.1829 12.5366 17.1738 12.5548C17.2285 12.6642 17.2513 12.7462 17.2422 12.8009C17.2331 12.8556 17.2422 12.8966 17.2695 12.9239C17.2513 12.9513 17.2331 13.0014 17.2148 13.0743C17.1966 13.1108 17.1875 13.1518 17.1875 13.1974C17.1875 13.2429 17.1829 13.2885 17.1738 13.3341C17.1374 13.4252 17.11 13.4708 17.0918 13.4708C17.0645 13.5528 17.0508 13.6121 17.0508 13.6485C17.0143 13.767 16.987 13.8399 16.9688 13.8673C16.9596 13.8946 16.9551 13.9311 16.9551 13.9767C16.9186 14.0131 16.8867 14.0769 16.8594 14.1681C16.8138 14.2319 16.7819 14.282 16.7637 14.3185C16.7454 14.3458 16.7272 14.3777 16.709 14.4142C16.6543 14.5327 16.6133 14.5919 16.5859 14.5919C16.5768 14.6375 16.5677 14.6785 16.5586 14.7149C16.5495 14.7514 16.5449 14.7924 16.5449 14.838C16.554 14.9383 16.5632 14.9929 16.5723 15.0021C16.5723 15.0841 16.5768 15.1388 16.5859 15.1661C16.6042 15.1935 16.6133 15.2162 16.6133 15.2345L16.627 15.3849C16.6452 15.4304 16.6589 15.4623 16.668 15.4806C16.6862 15.4897 16.6999 15.5034 16.709 15.5216C16.7272 15.5489 16.7363 15.5763 16.7363 15.6036C16.7363 15.631 16.7454 15.6583 16.7637 15.6856C16.7637 15.7677 16.7682 15.8178 16.7773 15.836C16.7865 15.8452 16.7956 15.8588 16.8047 15.8771C16.8229 15.9044 16.8275 15.9363 16.8184 15.9728C16.8184 16.0001 16.8275 16.0229 16.8457 16.0411C16.8366 16.0958 16.8366 16.1596 16.8457 16.2325C16.8548 16.3054 16.8685 16.3692 16.8867 16.4239C16.8776 16.5151 16.8776 16.5743 16.8867 16.6017C16.9049 16.629 16.9141 16.6563 16.9141 16.6837C16.9232 16.7293 16.9186 16.7885 16.9004 16.8614C16.9004 16.907 16.9004 16.9435 16.9004 16.9708C16.9095 17.0073 16.9141 17.0437 16.9141 17.0802C16.9049 17.1804 16.9049 17.2306 16.9141 17.2306C16.9232 17.2397 16.9277 17.2534 16.9277 17.2716C16.9186 17.3263 16.9186 17.3582 16.9277 17.3673C16.9368 17.3855 16.9414 17.4037 16.9414 17.422C16.9232 17.5131 16.9141 17.5633 16.9141 17.5724C16.9232 17.5906 16.9277 17.6088 16.9277 17.6271C16.9186 17.7182 16.9141 17.7683 16.9141 17.7774C16.9049 17.8412 16.8913 17.8914 16.873 17.9278C16.8639 17.9643 16.8594 17.9962 16.8594 18.0235C16.8685 18.0509 16.8594 18.0737 16.832 18.0919C16.8138 18.1739 16.8001 18.2241 16.791 18.2423C16.7819 18.2605 16.7773 18.2879 16.7773 18.3243C16.7227 18.4246 16.6862 18.5066 16.668 18.5704C16.6497 18.6433 16.6361 18.7117 16.627 18.7755C16.5723 18.8484 16.5312 18.9031 16.5039 18.9396C16.4766 18.9851 16.472 19.0216 16.4902 19.0489C16.4355 19.131 16.3991 19.1765 16.3809 19.1856C16.3626 19.1948 16.3535 19.213 16.3535 19.2403C16.3171 19.2677 16.2852 19.295 16.2578 19.3224C16.2396 19.3588 16.2168 19.3907 16.1895 19.4181C16.1621 19.491 16.1393 19.5366 16.1211 19.5548L15.957 19.7189C15.875 19.8282 15.8294 19.892 15.8203 19.9103C15.7747 19.9103 15.7428 19.9148 15.7246 19.9239C15.7155 19.9422 15.6973 19.9513 15.6699 19.9513C15.5879 20.006 15.5469 20.0424 15.5469 20.0606L15.3965 20.0743C15.3053 20.1108 15.2598 20.1244 15.2598 20.1153C15.2598 20.1153 15.2552 20.1153 15.2461 20.1153C15.1276 20.1244 15.0365 20.1336 14.9727 20.1427C14.9089 20.1518 14.8496 20.1518 14.7949 20.1427C14.7493 20.1244 14.7129 20.1153 14.6855 20.1153C14.6582 20.1244 14.6263 20.129 14.5898 20.129C14.5169 20.129 14.4759 20.1244 14.4668 20.1153C14.4577 20.1062 14.444 20.1017 14.4258 20.1017C14.3802 20.0925 14.3438 20.088 14.3164 20.088C14.2891 20.0971 14.2572 20.1017 14.2207 20.1017C14.1934 20.0834 14.166 20.0652 14.1387 20.047C14.1204 20.0379 14.0885 20.0333 14.043 20.0333C14.0247 20.0151 14.002 19.9923 13.9746 19.9649C13.9564 19.9467 13.9245 19.9376 13.8789 19.9376C13.8698 19.9103 13.8561 19.8875 13.8379 19.8692C13.8197 19.851 13.8014 19.8328 13.7832 19.8146C13.7194 19.7416 13.6829 19.7052 13.6738 19.7052C13.61 19.614 13.569 19.5502 13.5508 19.5138C13.5143 19.4955 13.487 19.4636 13.4688 19.4181C13.4505 19.3816 13.4277 19.3543 13.4004 19.336C13.3822 19.2631 13.3685 19.1902 13.3594 19.1173C13.3503 19.0535 13.3229 18.9988 13.2773 18.9532C13.2591 18.853 13.2546 18.7983 13.2637 18.7892C13.2728 18.7892 13.2819 18.78 13.291 18.7618C13.2728 18.6251 13.2728 18.4884 13.291 18.3517C13.3184 18.2149 13.3457 18.0828 13.373 17.9552C13.4277 17.8093 13.4779 17.7182 13.5234 17.6817C13.569 17.6453 13.5964 17.5906 13.6055 17.5177C13.651 17.4994 13.6784 17.4675 13.6875 17.422C13.6966 17.3855 13.724 17.3582 13.7695 17.3399C13.7786 17.3035 13.7923 17.2761 13.8105 17.2579C13.8288 17.2397 13.847 17.2169 13.8652 17.1896C13.9382 17.1166 13.9837 17.0802 14.002 17.0802C14.1022 17.0164 14.1569 16.989 14.166 16.9981C14.1751 17.0073 14.1934 17.0073 14.2207 16.9981C14.3118 16.9526 14.3665 16.9298 14.3848 16.9298C14.403 16.9298 14.4167 16.9161 14.4258 16.8888C14.4987 16.907 14.5534 16.9161 14.5898 16.9161C14.6445 16.9343 14.6947 16.9389 14.7402 16.9298C14.7949 16.9298 14.8451 16.9343 14.8906 16.9435C14.9362 16.9799 14.9772 17.0073 15.0137 17.0255C15.0501 17.0437 15.0775 17.0711 15.0957 17.1075C15.1595 17.1349 15.2005 17.1577 15.2188 17.1759C15.237 17.1941 15.2552 17.2123 15.2734 17.2306C15.3464 17.2944 15.3919 17.3354 15.4102 17.3536C15.4284 17.3718 15.4466 17.4037 15.4648 17.4493C15.4831 17.4858 15.4922 17.5177 15.4922 17.545C15.4922 17.5815 15.5013 17.6225 15.5195 17.6681C15.5469 17.7501 15.5605 17.8002 15.5605 17.8185C15.5605 17.8458 15.5651 17.8686 15.5742 17.8868C15.5742 17.9324 15.5742 17.9825 15.5742 18.0372C15.5742 18.101 15.5651 18.1511 15.5469 18.1876C15.5104 18.2149 15.4876 18.2377 15.4785 18.256C15.4694 18.2742 15.4512 18.2879 15.4238 18.297C15.3874 18.3608 15.36 18.3972 15.3418 18.4063C15.3236 18.4246 15.3053 18.4428 15.2871 18.461C15.1868 18.5522 15.0911 18.6479 15 18.7481C14.9544 18.739 14.918 18.7436 14.8906 18.7618C14.8633 18.7892 14.8359 18.7937 14.8086 18.7755C14.6901 18.7846 14.6263 18.7709 14.6172 18.7345C14.6081 18.698 14.5944 18.6707 14.5762 18.6524C14.5853 18.6069 14.5944 18.5659 14.6035 18.5294C14.6126 18.5021 14.6081 18.4656 14.5898 18.42C14.6901 18.3653 14.7539 18.3334 14.7812 18.3243C14.8086 18.3243 14.8314 18.3243 14.8496 18.3243C14.9316 18.297 14.9818 18.2696 15 18.2423C15.0182 18.2241 15.041 18.2058 15.0684 18.1876C15.1322 18.0235 15.1504 17.9142 15.123 17.8595C15.0957 17.8048 15.0866 17.7319 15.0957 17.6407C15.0775 17.6134 15.0592 17.5906 15.041 17.5724C15.0228 17.5541 15.0046 17.5313 14.9863 17.504C14.9225 17.4493 14.8724 17.4129 14.8359 17.3946C14.8086 17.3764 14.7858 17.3582 14.7676 17.3399C14.722 17.3582 14.6673 17.3627 14.6035 17.3536C14.5488 17.3445 14.4987 17.3354 14.4531 17.3263C14.3711 17.3445 14.321 17.3582 14.3027 17.3673C14.2845 17.3855 14.2663 17.3992 14.248 17.4083C14.1387 17.4994 14.084 17.5541 14.084 17.5724C14.0111 17.5906 13.9655 17.6271 13.9473 17.6817C13.929 17.7455 13.8926 17.7911 13.8379 17.8185C13.8105 17.9278 13.7786 17.9916 13.7422 18.0099C13.7422 18.0646 13.7331 18.1056 13.7148 18.1329C13.6966 18.1694 13.6921 18.2149 13.7012 18.2696C13.6921 18.379 13.6784 18.4565 13.6602 18.5021C13.651 18.5476 13.6419 18.5978 13.6328 18.6524C13.6602 18.6889 13.6693 18.7299 13.6602 18.7755C13.6602 18.8211 13.6647 18.8666 13.6738 18.9122C13.6829 18.9487 13.6966 18.9806 13.7148 19.0079C13.7331 19.0353 13.7376 19.0672 13.7285 19.1036C13.7832 19.213 13.8197 19.2722 13.8379 19.2813C13.8652 19.2996 13.8789 19.3315 13.8789 19.3771C13.9792 19.4317 14.0339 19.4682 14.043 19.4864C14.0521 19.5047 14.0749 19.5138 14.1113 19.5138C14.1204 19.5593 14.1478 19.6049 14.1934 19.6505C14.2207 19.6596 14.248 19.6687 14.2754 19.6778C14.3027 19.6869 14.3255 19.7006 14.3438 19.7189C14.3711 19.7006 14.3984 19.7006 14.4258 19.7189C14.4622 19.7371 14.4987 19.7462 14.5352 19.7462C14.5625 19.7462 14.5898 19.7416 14.6172 19.7325C14.6536 19.7325 14.681 19.7462 14.6992 19.7735C14.7721 19.7462 14.8496 19.7462 14.9316 19.7735C15.0137 19.8009 15.0911 19.7918 15.1641 19.7462C15.3008 19.7006 15.3919 19.6733 15.4375 19.6642C15.4831 19.655 15.5195 19.6277 15.5469 19.5821C15.6471 19.5274 15.7201 19.4773 15.7656 19.4317C15.8112 19.3862 15.8385 19.3178 15.8477 19.2267C15.9115 19.2267 15.9388 19.213 15.9297 19.1856C15.9297 19.1583 15.9388 19.1355 15.957 19.1173C16.0026 19.1173 16.0299 19.0991 16.0391 19.0626C16.0482 19.0353 16.0664 19.0125 16.0938 18.9942C16.1302 18.9122 16.153 18.853 16.1621 18.8165C16.1803 18.7892 16.1986 18.7664 16.2168 18.7481C16.235 18.657 16.2487 18.5978 16.2578 18.5704C16.2669 18.5431 16.2852 18.5294 16.3125 18.5294C16.3125 18.4929 16.3171 18.4656 16.3262 18.4474C16.3444 18.4383 16.349 18.4109 16.3398 18.3653C16.3672 18.3471 16.3854 18.3198 16.3945 18.2833C16.4128 18.2468 16.431 18.2104 16.4492 18.1739C16.4857 18.0554 16.4993 17.9916 16.4902 17.9825C16.4811 17.9825 16.472 17.9734 16.4629 17.9552C16.4993 17.8276 16.5312 17.7364 16.5586 17.6817C16.5312 17.6362 16.5176 17.586 16.5176 17.5313C16.5267 17.4858 16.5312 17.4311 16.5312 17.3673C16.5312 17.3308 16.5267 17.2989 16.5176 17.2716C16.5176 17.2442 16.5176 17.2123 16.5176 17.1759C16.5267 17.0939 16.5221 17.0392 16.5039 17.0118C16.4948 16.9936 16.4993 16.9754 16.5176 16.9571C16.5085 16.7748 16.4993 16.6244 16.4902 16.506C16.4811 16.3875 16.4538 16.2781 16.4082 16.1778C16.4082 16.0776 16.3945 15.991 16.3672 15.9181C16.3398 15.836 16.3125 15.754 16.2852 15.672C16.2487 15.517 16.2259 15.4259 16.2168 15.3985C16.2077 15.3621 16.194 15.3211 16.1758 15.2755C16.0938 15.3211 16.0482 15.3439 16.0391 15.3439C16.0299 15.3439 16.0208 15.353 16.0117 15.3712C15.9661 15.3894 15.9206 15.4304 15.875 15.4942C15.7474 15.5489 15.6654 15.5899 15.6289 15.6173C15.5924 15.6355 15.5514 15.6492 15.5059 15.6583C15.4785 15.6765 15.4512 15.6948 15.4238 15.713C15.4056 15.7312 15.3783 15.7494 15.3418 15.7677C15.2507 15.7859 15.2005 15.795 15.1914 15.795C15.1185 15.8224 15.0684 15.836 15.041 15.836C15.0228 15.8269 15.0046 15.8269 14.9863 15.836C14.8861 15.8634 14.8268 15.8771 14.8086 15.8771C14.7448 15.8679 14.7038 15.8679 14.6855 15.8771C14.6673 15.8771 14.6445 15.8816 14.6172 15.8907C14.5898 15.8725 14.5488 15.8679 14.4941 15.8771C14.4486 15.8771 14.403 15.8725 14.3574 15.8634C14.2845 15.8543 14.207 15.8452 14.125 15.836C14.043 15.8178 13.9792 15.7859 13.9336 15.7403C13.8607 15.7039 13.8105 15.6811 13.7832 15.672C13.765 15.6537 13.7467 15.6355 13.7285 15.6173C13.6465 15.5535 13.5736 15.5216 13.5098 15.5216C13.4915 15.476 13.4596 15.4441 13.4141 15.4259C13.3776 15.4077 13.3548 15.3712 13.3457 15.3165C13.3001 15.3074 13.2682 15.2892 13.25 15.2618C13.2318 15.2254 13.1999 15.198 13.1543 15.1798C13.1087 15.0795 13.0723 15.0021 13.0449 14.9474C13.0176 14.8927 12.9811 14.8425 12.9355 14.797C12.9355 14.7696 12.9264 14.7332 12.9082 14.6876C12.8991 14.642 12.8854 14.6056 12.8672 14.5782C12.849 14.5418 12.8353 14.5099 12.8262 14.4825C12.8262 14.4461 12.8171 14.4187 12.7988 14.4005C12.8171 14.3093 12.8216 14.2228 12.8125 14.1407C12.8034 14.0587 12.8034 13.9675 12.8125 13.8673C12.8398 13.7761 12.8535 13.7123 12.8535 13.6759C12.8626 13.6303 12.8626 13.5939 12.8535 13.5665C12.8626 13.5483 12.8763 13.5209 12.8945 13.4845C12.9219 13.448 12.931 13.4207 12.9219 13.4024C12.9583 13.3569 12.9811 13.3159 12.9902 13.2794C13.0085 13.2338 13.0312 13.2019 13.0586 13.1837C13.0677 13.1472 13.0723 13.1199 13.0723 13.1017C13.0814 13.0743 13.0951 13.0515 13.1133 13.0333C13.1406 12.9422 13.1816 12.8784 13.2363 12.8419C13.2272 12.769 13.2363 12.7143 13.2637 12.6778C13.3001 12.6414 13.3275 12.6004 13.3457 12.5548C13.4095 12.5092 13.4551 12.4864 13.4824 12.4864C13.528 12.4409 13.5736 12.3816 13.6191 12.3087C13.6829 12.2813 13.7331 12.2358 13.7695 12.172C13.8424 12.1537 13.8926 12.1218 13.9199 12.0763C13.9655 12.0763 14.0065 12.0672 14.043 12.0489C14.0794 12.0216 14.1159 11.9988 14.1523 11.9806C14.1888 11.9897 14.2207 11.9851 14.248 11.9669C14.2754 11.9487 14.3027 11.9304 14.3301 11.9122C14.4395 11.8666 14.5078 11.8439 14.5352 11.8439C14.5716 11.8439 14.599 11.8393 14.6172 11.8302L14.7812 11.8028C14.8542 11.7937 14.8952 11.7846 14.9043 11.7755C14.9134 11.7664 14.9271 11.7709 14.9453 11.7892C14.9635 11.7983 14.9909 11.7983 15.0273 11.7892C15.0729 11.78 15.1139 11.7892 15.1504 11.8165C15.2507 11.8074 15.3099 11.8119 15.3281 11.8302C15.3555 11.8393 15.3783 11.8439 15.3965 11.8439C15.4147 11.8894 15.4831 11.9213 15.6016 11.9396C15.6471 11.9851 15.7018 12.017 15.7656 12.0353C15.8294 12.0535 15.8796 12.0854 15.916 12.131C16.0072 12.1856 16.071 12.2267 16.1074 12.254C16.1439 12.2722 16.1803 12.2905 16.2168 12.3087ZM15.7656 12.5411C15.6836 12.4591 15.6335 12.4135 15.6152 12.4044C15.6061 12.3862 15.5833 12.3771 15.5469 12.3771C15.5195 12.3588 15.4694 12.3315 15.3965 12.295C15.3236 12.2677 15.2826 12.254 15.2734 12.254C15.2734 12.2449 15.2643 12.2358 15.2461 12.2267C15.2188 12.2084 15.1914 12.1993 15.1641 12.1993C15.1367 12.1993 15.1094 12.1948 15.082 12.1856C15.0547 12.1856 15.0273 12.1811 15 12.172C14.9727 12.1629 14.9499 12.1583 14.9316 12.1583C14.8314 12.1765 14.7812 12.1856 14.7812 12.1856C14.7812 12.1765 14.7721 12.172 14.7539 12.172C14.7083 12.1811 14.6719 12.1993 14.6445 12.2267C14.6172 12.2449 14.5807 12.2449 14.5352 12.2267C14.4076 12.2722 14.3164 12.3224 14.2617 12.3771C14.207 12.4317 14.1296 12.4682 14.0293 12.4864C14.0111 12.532 13.9746 12.5639 13.9199 12.5821C13.8652 12.5912 13.8288 12.614 13.8105 12.6505C13.7923 12.6687 13.7741 12.6961 13.7559 12.7325C13.7467 12.769 13.7331 12.7963 13.7148 12.8146C13.6966 12.8328 13.6784 12.851 13.6602 12.8692C13.6419 12.8875 13.6191 12.9057 13.5918 12.9239L13.5371 13.1017C13.4915 13.1381 13.4596 13.1837 13.4414 13.2384C13.4323 13.284 13.4049 13.3204 13.3594 13.3478C13.3594 13.3933 13.3457 13.4389 13.3184 13.4845C13.3001 13.5209 13.3001 13.5574 13.3184 13.5939C13.2819 13.6759 13.2591 13.7306 13.25 13.7579C13.2409 13.7761 13.2409 13.8035 13.25 13.8399C13.2135 13.8855 13.1908 13.9448 13.1816 14.0177C13.1816 14.0815 13.1908 14.1362 13.209 14.1817C13.2181 14.2547 13.2272 14.2957 13.2363 14.3048C13.2454 14.3139 13.2546 14.3276 13.2637 14.3458C13.2637 14.3731 13.2637 14.4005 13.2637 14.4278C13.2728 14.4552 13.2728 14.478 13.2637 14.4962C13.2819 14.5235 13.291 14.5509 13.291 14.5782C13.3001 14.6056 13.3138 14.6238 13.332 14.6329C13.3594 14.6785 13.3776 14.7104 13.3867 14.7286C13.3958 14.7377 13.4004 14.756 13.4004 14.7833C13.4642 14.8471 13.5098 14.8927 13.5371 14.92C13.5736 14.9474 13.6009 14.9838 13.6191 15.0294C13.7103 15.1205 13.7741 15.1798 13.8105 15.2071C13.847 15.2345 13.8743 15.2618 13.8926 15.2892C13.9837 15.3256 14.0339 15.3484 14.043 15.3575C14.0521 15.3575 14.0703 15.3575 14.0977 15.3575C14.1615 15.394 14.2116 15.4213 14.248 15.4396C14.2845 15.4578 14.3164 15.4578 14.3438 15.4396C14.4531 15.476 14.5306 15.4988 14.5762 15.5079C14.6217 15.5079 14.6673 15.5079 14.7129 15.5079C14.7858 15.4897 14.8496 15.4897 14.9043 15.5079C15.0046 15.4715 15.0638 15.4532 15.082 15.4532C15.1094 15.4532 15.1322 15.4487 15.1504 15.4396C15.2233 15.4122 15.2689 15.394 15.2871 15.3849C15.3145 15.3758 15.3418 15.3666 15.3691 15.3575C15.4329 15.3302 15.4785 15.3074 15.5059 15.2892C15.5332 15.2618 15.5697 15.2481 15.6152 15.2481C15.6335 15.2299 15.6517 15.2071 15.6699 15.1798C15.6882 15.1524 15.7109 15.1297 15.7383 15.1114C15.8477 15.0294 15.9069 14.9884 15.916 14.9884C15.9707 14.9246 15.998 14.8881 15.998 14.879C15.998 14.8699 16.0026 14.8608 16.0117 14.8517C16.0755 14.7514 16.1074 14.7013 16.1074 14.7013C16.0892 14.6648 16.0801 14.6147 16.0801 14.5509C16.0801 14.4871 16.0618 14.4415 16.0254 14.4142C16.0163 14.3139 16.0117 14.2638 16.0117 14.2638C16.0208 14.2638 16.0254 14.2592 16.0254 14.2501C15.9889 14.159 15.9707 14.0997 15.9707 14.0724C15.9798 14.0359 15.9798 14.0086 15.9707 13.9903C15.9342 13.881 15.9206 13.7944 15.9297 13.7306C15.8841 13.6212 15.8659 13.5528 15.875 13.5255C15.8841 13.4981 15.8887 13.4708 15.8887 13.4435C15.8704 13.3067 15.8568 13.2156 15.8477 13.17C15.8477 13.1153 15.8477 13.0606 15.8477 13.006C15.875 12.9057 15.8796 12.8282 15.8613 12.7735C15.8613 12.6186 15.8294 12.5411 15.7656 12.5411ZM16.5176 14.0587C16.5632 14.0131 16.5859 13.9812 16.5859 13.963C16.5859 13.9356 16.5905 13.9129 16.5996 13.8946C16.6543 13.8035 16.6771 13.7488 16.668 13.7306C16.6589 13.7032 16.6589 13.6804 16.668 13.6622C16.7135 13.5711 16.7363 13.5164 16.7363 13.4981C16.7363 13.4708 16.7409 13.448 16.75 13.4298C16.7956 13.3204 16.8184 13.2612 16.8184 13.2521C16.8548 13.1609 16.873 13.1062 16.873 13.088C16.8639 13.0606 16.8639 13.0151 16.873 12.9513C16.8822 12.8784 16.8822 12.8054 16.873 12.7325L16.7363 12.5821C16.627 12.5548 16.5495 12.5457 16.5039 12.5548C16.4583 12.5639 16.4355 12.5958 16.4355 12.6505C16.4629 12.7599 16.4674 12.8282 16.4492 12.8556C16.431 12.8738 16.4173 12.9011 16.4082 12.9376C16.3079 13.047 16.2624 13.1244 16.2715 13.17C16.2806 13.2156 16.2806 13.2703 16.2715 13.3341C16.2988 13.4252 16.3079 13.4754 16.2988 13.4845C16.2897 13.4936 16.2897 13.5073 16.2988 13.5255C16.2988 13.5528 16.3034 13.5802 16.3125 13.6075C16.3216 13.6349 16.3307 13.6622 16.3398 13.6896C16.3398 13.7625 16.3444 13.8126 16.3535 13.8399C16.3991 13.9311 16.4128 13.9812 16.3945 13.9903C16.3854 13.9903 16.39 13.9994 16.4082 14.0177L16.5176 14.0587Z" fill="white"/>
</svg>
