<svg width="24" height="24" viewBox="0 0 24 24" fill="none" xmlns="http://www.w3.org/2000/svg">
<path d="M3.61203 17L8.57503 7.19995H10.059L11.564 17H9.96803L9.59003 14.361L9.36603 13.157L8.82003 8.78895L9.20503 8.85195L7.16803 13.143L6.50303 14.375L5.20803 17H3.61203ZM5.88703 14.473L6.65003 13.045H9.84903L10.108 14.473H5.88703ZM14.9821 15.411C14.2775 15.411 13.7291 15.215 13.3371 14.823C12.9451 14.431 12.7491 13.871 12.7491 13.143C12.7491 12.597 12.8775 12.0813 13.1341 11.596C13.3908 11.1107 13.7525 10.7163 14.2191 10.413C14.6905 10.105 15.2458 9.95095 15.8851 9.95095C16.5665 9.95095 17.1055 10.154 17.5021 10.56C17.9035 10.9613 18.1041 11.5167 18.1041 12.226C18.1041 12.6227 18.0295 13.01 17.8801 13.388C17.7355 13.766 17.5255 14.109 17.2501 14.417C16.9795 14.7203 16.6528 14.963 16.2701 15.145C15.8875 15.3223 15.4581 15.411 14.9821 15.411ZM15.1571 14.312C15.4885 14.312 15.7731 14.2187 16.0111 14.032C16.2538 13.8453 16.4381 13.6003 16.5641 13.297C16.6948 12.9937 16.7601 12.6693 16.7601 12.324C16.7601 11.918 16.6691 11.6077 16.4871 11.393C16.3051 11.1783 16.0391 11.071 15.6891 11.071C15.3531 11.071 15.0661 11.1643 14.8281 11.351C14.5901 11.533 14.4081 11.7733 14.2821 12.072C14.1561 12.366 14.0931 12.688 14.0931 13.038C14.0931 13.444 14.1841 13.759 14.3661 13.983C14.5481 14.2023 14.8118 14.312 15.1571 14.312ZM14.3521 20.5C13.6848 20.5 13.1528 20.409 12.7561 20.227C12.3595 20.045 12.0748 19.814 11.9021 19.534C11.7248 19.2587 11.6361 18.981 11.6361 18.701C11.6361 18.4817 11.6875 18.2553 11.7901 18.022C11.8928 17.7887 12.0561 17.5647 12.2801 17.35C12.5041 17.14 12.7981 16.9603 13.1621 16.811L14.1701 17.203C13.9601 17.259 13.7595 17.3477 13.5681 17.469C13.3815 17.595 13.2251 17.742 13.0991 17.91C12.9778 18.078 12.9171 18.2623 12.9171 18.463C12.9171 18.7383 13.0525 18.9647 13.3231 19.142C13.5938 19.324 13.9811 19.415 14.4851 19.415C14.8771 19.415 15.2225 19.3613 15.5211 19.254C15.8198 19.1513 16.0531 19.016 16.2211 18.848C16.3938 18.68 16.4801 18.498 16.4801 18.302C16.4801 18.0733 16.3868 17.8983 16.2001 17.777C16.0135 17.6603 15.7708 17.5693 15.4721 17.504C15.1735 17.4433 14.8561 17.385 14.5201 17.329C14.1888 17.2777 13.8738 17.2077 13.5751 17.119C13.2765 17.035 13.0338 16.9113 12.8471 16.748C12.6605 16.5847 12.5671 16.3583 12.5671 16.069C12.5671 15.873 12.6465 15.6653 12.8051 15.446C12.9685 15.2267 13.2251 15.04 13.5751 14.886L14.3381 15.25C14.2355 15.3013 14.1491 15.3643 14.0791 15.439C14.0091 15.509 13.9741 15.593 13.9741 15.691C13.9741 15.8497 14.1071 15.9687 14.3731 16.048C14.6391 16.1227 15.0451 16.209 15.5911 16.307C15.8058 16.349 16.0438 16.405 16.3051 16.475C16.5665 16.5403 16.8161 16.636 17.0541 16.762C17.2921 16.888 17.4858 17.056 17.6351 17.266C17.7891 17.476 17.8661 17.7467 17.8661 18.078C17.8661 18.498 17.7238 18.8923 17.4391 19.261C17.1591 19.6297 16.7555 19.9283 16.2281 20.157C15.7055 20.3857 15.0801 20.5 14.3521 20.5ZM17.7541 11.106L17.2711 10.462C17.4345 10.3593 17.6538 10.2683 17.9291 10.189C18.2045 10.105 18.5078 10.063 18.8391 10.063H19.1541L18.8741 11.008H18.3771C18.3305 11.008 18.2418 11.015 18.1111 11.029C17.9851 11.043 17.8661 11.0687 17.7541 11.106Z" fill="white"/>
</svg>
