<svg width="24" height="24" viewBox="0 0 24 24" fill="none" xmlns="http://www.w3.org/2000/svg">
<path d="M8.23975 12.6599L5.80375 12.6459C4.80508 14.4566 4.24508 15.4599 4.12375 15.6559C4.00242 15.8519 3.88575 16.0712 3.77375 16.3139C3.51242 16.8832 3.29775 17.1679 3.12975 17.1679C2.72842 17.1679 2.44375 17.0746 2.27575 16.8879C2.26642 16.8692 2.26175 16.8412 2.26175 16.8039C2.26175 16.7666 2.28975 16.6966 2.34575 16.5939C2.41108 16.4819 2.50908 16.3326 2.63975 16.1459C2.77975 15.9592 2.87308 15.8286 2.91975 15.7539C4.03975 13.7659 5.05242 12.0019 5.95775 10.4619C6.87242 8.91256 7.39042 8.02122 7.51175 7.78789C7.64242 7.54522 7.75442 7.36322 7.84775 7.24189C8.01575 7.13922 8.20708 7.08789 8.42175 7.08789C8.64575 7.08789 8.79042 7.09722 8.85575 7.11589C8.92108 7.13456 8.97708 7.17189 9.02375 7.22789C9.07042 7.27456 9.10308 7.31656 9.12175 7.35389C9.14975 7.39122 9.18708 7.46122 9.23375 7.56389C9.28042 7.66656 9.35508 7.82989 9.45775 8.05389C9.56042 8.27789 9.89175 8.92656 10.4518 9.99989C11.0118 11.0639 11.3851 11.8059 11.5718 12.2259C11.7584 12.6459 11.9404 13.0612 12.1178 13.4719C12.4911 14.3212 12.8271 15.0166 13.1258 15.5579C13.4338 16.0899 13.5878 16.4399 13.5878 16.6079C13.5878 16.7106 13.4431 16.8319 13.1538 16.9719C12.8738 17.1026 12.6778 17.1679 12.5658 17.1679C12.3698 17.1679 12.1878 16.9159 12.0198 16.4119L11.7538 15.8799C11.5764 15.4972 11.3384 14.9979 11.0398 14.3819C10.7411 13.7566 10.4564 13.1686 10.1858 12.6179C9.97108 12.6272 9.75175 12.6319 9.52775 12.6319C9.31308 12.6506 8.88375 12.6599 8.23975 12.6599ZM6.33575 11.6939L7.86175 11.6799H9.73775C9.64442 11.4932 9.53242 11.2599 9.40175 10.9799C9.28042 10.6999 9.20575 10.5412 9.17775 10.5039C9.15908 10.4572 9.12642 10.3826 9.07975 10.2799C9.03308 10.1772 8.98642 10.0792 8.93975 9.98589C8.89308 9.89256 8.83708 9.78056 8.77175 9.64989C8.71575 9.51922 8.65975 9.40256 8.60375 9.29989C8.54775 9.18789 8.49175 9.08522 8.43575 8.99189C8.31442 8.77722 8.23042 8.66989 8.18375 8.66989C8.13708 8.66989 8.07642 8.72122 8.00175 8.82389C7.92708 8.91722 7.83842 9.04322 7.73575 9.20189C7.64242 9.36056 7.55375 9.51456 7.46975 9.66389C7.21775 10.1306 7.06842 10.3966 7.02175 10.4619C6.98442 10.5272 6.93308 10.6159 6.86775 10.7279C6.81175 10.8399 6.72775 10.9892 6.61575 11.1759C6.51308 11.3626 6.41975 11.5352 6.33575 11.6939ZM16.0662 12.7999C16.0662 13.6212 16.4349 14.0319 17.1722 14.0319C17.5269 14.0319 17.7975 13.9106 17.9842 13.6679C18.1802 13.4252 18.2782 13.0986 18.2782 12.6879C18.2782 12.2679 18.1802 11.9599 17.9842 11.7639C17.7975 11.5586 17.5362 11.4559 17.2002 11.4559C16.8642 11.4559 16.5889 11.5772 16.3742 11.8199C16.1689 12.0532 16.0662 12.3799 16.0662 12.7999ZM16.9342 17.5179H16.6542C16.4862 17.5179 16.2342 17.4806 15.8982 17.4059C15.6089 17.4059 15.4642 17.7652 15.4642 18.4839C15.4642 19.3706 16.1269 19.8372 17.4522 19.8839C18.0589 19.8839 18.5395 19.7626 18.8942 19.5199C19.2489 19.2866 19.4262 18.9412 19.4262 18.4839C19.4262 18.0546 19.2069 17.7839 18.7682 17.6719C18.3949 17.5692 17.7835 17.5179 16.9342 17.5179ZM19.3142 12.0859C19.3515 12.3099 19.3702 12.4546 19.3702 12.5199C19.3702 13.1452 19.1509 13.6959 18.7122 14.1719C18.5815 14.3119 18.3482 14.4566 18.0122 14.6059C17.6762 14.7552 17.3122 14.8392 16.9202 14.8579C16.5562 14.8579 16.3275 14.8812 16.2342 14.9279C16.1409 14.9652 16.0615 15.0026 15.9962 15.0399C15.9402 15.0772 15.8982 15.1239 15.8702 15.1799C15.7955 15.3106 15.7582 15.4506 15.7582 15.5999C15.7582 15.7399 15.7862 15.8566 15.8422 15.9499C15.9075 16.0339 15.9682 16.0992 16.0242 16.1459C16.0895 16.1832 16.1969 16.2159 16.3462 16.2439C16.5702 16.2719 17.0182 16.2952 17.6902 16.3139C18.3622 16.3232 18.8802 16.3652 19.2442 16.4399C20.2802 16.6732 20.7982 17.2659 20.7982 18.2179C20.7982 18.7032 20.6162 19.1372 20.2522 19.5199C19.8975 19.9026 19.4589 20.1826 18.9362 20.3599C18.4229 20.5466 17.9375 20.6399 17.4802 20.6399C17.0322 20.6399 16.6495 20.6119 16.3322 20.5559C16.0149 20.4999 15.6975 20.4066 15.3802 20.2759C15.0722 20.1452 14.8249 19.9492 14.6382 19.6879C14.4515 19.4359 14.3582 19.1372 14.3582 18.7919C14.3582 18.4466 14.4422 18.1246 14.6102 17.8259C14.7782 17.5366 14.9695 17.3172 15.1842 17.1679C14.7735 16.8132 14.5682 16.4352 14.5682 16.0339C14.5682 15.8192 14.6102 15.6279 14.6942 15.4599C14.7782 15.2919 14.8622 15.1706 14.9462 15.0959C15.0395 15.0212 15.1609 14.9372 15.3102 14.8439C15.4689 14.7506 15.5762 14.6806 15.6322 14.6339C15.4549 14.4939 15.3149 14.3726 15.2122 14.2699C15.1189 14.1672 15.0115 13.9899 14.8902 13.7379C14.7782 13.4766 14.7222 13.1872 14.7222 12.8699C14.7222 12.2446 14.9695 11.7406 15.4642 11.3579C15.9682 10.9752 16.5982 10.7839 17.3542 10.7839C18.1195 10.7839 18.6562 10.9659 18.9642 11.3299C19.5615 10.9192 20.0702 10.7139 20.4902 10.7139C20.6209 10.7139 20.7189 10.8026 20.7842 10.9799C20.8589 11.1572 20.8962 11.3346 20.8962 11.5119C20.8962 11.6799 20.8729 11.7872 20.8262 11.8339C20.7795 11.8712 20.6955 11.8899 20.5742 11.8899C20.0702 11.8899 19.6502 11.9552 19.3142 12.0859Z" fill="white"/>
</svg>
