<svg width="24" height="24" viewBox="0 0 24 24" fill="none" xmlns="http://www.w3.org/2000/svg">
<path d="M4.43918 17L7.02918 7.354H9.70318L12.2932 17H10.9352L10.3052 14.69H6.41318L5.78318 17H4.43918ZM6.67918 13.542H10.0532L8.70918 8.474H8.02318L6.67918 13.542ZM16.3194 20.262C15.582 20.262 14.9847 20.2013 14.5274 20.08C14.07 19.9587 13.734 19.744 13.5194 19.436C13.3047 19.1373 13.1974 18.722 13.1974 18.19C13.1974 17.9193 13.2347 17.686 13.3094 17.49C13.3934 17.3033 13.5147 17.1307 13.6734 16.972C13.8414 16.804 14.0467 16.6313 14.2894 16.454C14.1587 16.3607 14.056 16.2253 13.9814 16.048C13.916 15.8707 13.8834 15.6747 13.8834 15.46C13.8834 15.3573 13.9394 15.194 14.0514 14.97C14.1634 14.746 14.2754 14.5453 14.3874 14.368C14.1914 14.2747 14.0094 14.1487 13.8414 13.99C13.6827 13.822 13.552 13.598 13.4494 13.318C13.3467 13.038 13.2954 12.6833 13.2954 12.254C13.2954 11.386 13.538 10.77 14.0234 10.406C14.518 10.0327 15.176 9.846 15.9974 9.846C16.2494 9.846 16.5154 9.86467 16.7954 9.902C17.0754 9.93933 17.2947 9.98133 17.4534 10.028L19.5954 9.972V10.994L18.3494 10.966C18.4707 11.0873 18.5687 11.2507 18.6434 11.456C18.7274 11.6613 18.7694 11.9273 18.7694 12.254C18.7694 12.87 18.6667 13.3553 18.4614 13.71C18.256 14.0553 17.9434 14.298 17.5234 14.438C17.1127 14.5687 16.5947 14.634 15.9694 14.634C15.904 14.634 15.7967 14.6293 15.6474 14.62C15.5074 14.6013 15.4 14.5873 15.3254 14.578C15.2694 14.6993 15.2134 14.8393 15.1574 14.998C15.1107 15.1473 15.0874 15.2547 15.0874 15.32C15.0874 15.4787 15.12 15.6 15.1854 15.684C15.26 15.768 15.414 15.824 15.6474 15.852C15.89 15.88 16.268 15.894 16.7814 15.894C17.4534 15.894 17.99 15.9547 18.3914 16.076C18.7927 16.188 19.0774 16.3933 19.2454 16.692C19.4134 16.9813 19.4974 17.406 19.4974 17.966C19.4974 18.778 19.2174 19.3613 18.6574 19.716C18.0974 20.08 17.318 20.262 16.3194 20.262ZM16.3054 19.212C16.9587 19.212 17.4394 19.1233 17.7474 18.946C18.0554 18.7687 18.2094 18.4747 18.2094 18.064C18.2094 17.7467 18.158 17.5133 18.0554 17.364C17.962 17.2147 17.794 17.1167 17.5514 17.07C17.3087 17.0233 16.9867 17 16.5854 17C16.5014 17 16.3847 17 16.2354 17C16.0954 16.9907 15.946 16.986 15.7874 16.986C15.638 16.9767 15.5027 16.9673 15.3814 16.958C15.26 16.9487 15.176 16.944 15.1294 16.944C14.868 17.1307 14.686 17.2987 14.5834 17.448C14.4807 17.6067 14.4294 17.8073 14.4294 18.05C14.4294 18.33 14.4854 18.554 14.5974 18.722C14.7094 18.8993 14.9007 19.0253 15.1714 19.1C15.442 19.1747 15.82 19.212 16.3054 19.212ZM15.9974 13.654C16.5387 13.654 16.9214 13.5467 17.1454 13.332C17.3787 13.1173 17.4954 12.758 17.4954 12.254C17.4954 11.75 17.3787 11.3907 17.1454 11.176C16.9214 10.9613 16.5387 10.854 15.9974 10.854C15.4934 10.854 15.1294 10.9613 14.9054 11.176C14.6907 11.3907 14.5834 11.75 14.5834 12.254C14.5834 12.758 14.6907 13.1173 14.9054 13.332C15.1294 13.5467 15.4934 13.654 15.9974 13.654Z" fill="white"/>
</svg>
