<svg width="24" height="24" viewBox="0 0 24 24" fill="none" xmlns="http://www.w3.org/2000/svg">
<path d="M8.80664 14.1084H5.8877L5.66211 14.7578C5.59831 14.9401 5.5459 15.1178 5.50488 15.291C5.46387 15.4596 5.44336 15.6396 5.44336 15.8311C5.44336 16.2777 5.68034 16.5169 6.1543 16.5488V17H3.23535V16.5488C3.40397 16.5306 3.55208 16.4714 3.67969 16.3711C3.80729 16.2708 3.9235 16.1341 4.02832 15.9609C4.13314 15.7878 4.24479 15.5394 4.36328 15.2158L7.21387 7.62109H9.03906L11.2949 15.2773C11.3952 15.6191 11.4795 15.863 11.5479 16.0088C11.6162 16.1501 11.7051 16.2663 11.8145 16.3574C11.9238 16.444 12.0765 16.5078 12.2725 16.5488V17H8.49902V16.5488C8.736 16.5215 8.91146 16.4554 9.02539 16.3506C9.13932 16.2458 9.19629 16.0977 9.19629 15.9062C9.19629 15.765 9.18034 15.6077 9.14844 15.4346C9.11654 15.2614 9.06413 15.0426 8.99121 14.7783L8.80664 14.1084ZM6.14746 13.3086H8.6084L7.51465 9.45996L6.14746 13.3086ZM19.6211 11.1348L18.4521 11.0049L18.4248 11.0801C18.5524 11.2077 18.6572 11.3831 18.7393 11.6064C18.8258 11.8252 18.8691 12.0895 18.8691 12.3994C18.8691 13.1924 18.6276 13.7939 18.1445 14.2041C17.666 14.6143 16.9596 14.8193 16.0254 14.8193C15.5742 14.8193 15.2051 14.7783 14.918 14.6963C14.6901 14.9014 14.5762 15.1224 14.5762 15.3594C14.5762 15.4961 14.6035 15.6009 14.6582 15.6738C14.7174 15.7467 14.8154 15.8037 14.9521 15.8447C15.0889 15.8812 15.2826 15.8994 15.5332 15.8994H17.2285C17.9896 15.8994 18.5592 16.0475 18.9375 16.3438C19.3158 16.64 19.5049 17.1003 19.5049 17.7246C19.5049 18.2122 19.3659 18.6315 19.0879 18.9824C18.8145 19.3333 18.4202 19.5999 17.9053 19.7822C17.3903 19.9691 16.7796 20.0625 16.0732 20.0625C15.5583 20.0625 15.0911 20.0397 14.6719 19.9941C14.2526 19.9486 13.8949 19.8643 13.5986 19.7412C13.3024 19.6227 13.0723 19.4587 12.9082 19.249C12.7487 19.0394 12.6689 18.7728 12.6689 18.4492C12.6689 18.1895 12.751 17.9502 12.915 17.7314C13.0791 17.5127 13.3092 17.3258 13.6055 17.1709C13.4141 17.0342 13.2751 16.877 13.1885 16.6992C13.1019 16.5215 13.0586 16.3027 13.0586 16.043C13.0586 15.8288 13.1019 15.6283 13.1885 15.4414C13.2796 15.2546 13.3981 15.0859 13.5439 14.9355C13.6943 14.7806 13.888 14.612 14.125 14.4297C13.7695 14.2292 13.5007 13.9671 13.3184 13.6436C13.1361 13.3154 13.0449 12.9326 13.0449 12.4951C13.0449 12.0713 13.1201 11.709 13.2705 11.4082C13.4255 11.1029 13.6351 10.8545 13.8994 10.6631C14.1683 10.4717 14.4827 10.3327 14.8428 10.2461C15.2074 10.1549 15.5993 10.1094 16.0186 10.1094C16.251 10.1094 16.4561 10.1208 16.6338 10.1436C16.8115 10.1663 16.9847 10.1914 17.1533 10.2188H19.6211V11.1348ZM15.0068 12.4131C15.0068 12.9873 15.0866 13.4157 15.2461 13.6982C15.4102 13.9762 15.6654 14.1152 16.0117 14.1152C16.3262 14.1152 16.5654 13.9854 16.7295 13.7256C16.8981 13.4658 16.9824 13.0693 16.9824 12.5361C16.9824 11.9756 16.9004 11.5495 16.7363 11.2578C16.5768 10.9616 16.3307 10.8135 15.998 10.8135C15.6608 10.8135 15.4102 10.9456 15.2461 11.21C15.0866 11.4697 15.0068 11.8708 15.0068 12.4131ZM14.7607 17.4375C14.5967 17.5651 14.4714 17.7041 14.3848 17.8545C14.3027 18.0049 14.2617 18.1781 14.2617 18.374C14.2617 18.7021 14.403 18.9437 14.6855 19.0986C14.9727 19.2581 15.4238 19.3379 16.0391 19.3379C16.6133 19.3379 17.0485 19.2422 17.3447 19.0508C17.6455 18.8594 17.7959 18.5905 17.7959 18.2441C17.7959 18.0892 17.7686 17.957 17.7139 17.8477C17.6592 17.7383 17.5521 17.6471 17.3926 17.5742C17.2331 17.5013 17.0075 17.4648 16.7158 17.4648H15.54C15.2074 17.4648 14.9476 17.4557 14.7607 17.4375Z" fill="white"/>
</svg>
