<svg width="24" height="24" viewBox="0 0 24 24" fill="none" xmlns="http://www.w3.org/2000/svg">
<path d="M11.2409 7.2959C11.3529 7.2959 11.4338 7.30212 11.4835 7.31457C12.3173 6.40612 13.1075 5.9519 13.8542 5.9519C14.2898 5.9519 14.7004 6.07012 15.0862 6.30657C15.1858 6.39368 15.2044 6.51812 15.1422 6.6799C15.0924 6.84168 14.9866 6.98479 14.8249 7.10923C14.6631 7.23368 14.5386 7.27101 14.4515 7.22123V7.2399C14.24 7.11546 14.0658 7.05323 13.9289 7.05323C13.5929 7.05323 13.2133 7.24612 12.7902 7.6319C13.3502 7.94301 13.6302 8.50301 13.6302 9.3119C13.6302 9.84701 13.4995 10.5937 13.2382 11.5519L12.6222 13.7919C12.4604 14.3021 12.3795 14.6941 12.3795 14.9679C12.3795 15.2541 12.4418 15.4035 12.5662 15.4159C12.7031 15.4532 12.8835 15.2852 13.1075 14.9119C13.344 14.5261 13.5618 14.047 13.7609 13.4746C13.8729 13.2008 14.0969 13.1012 14.4329 13.1759C14.8186 13.2879 14.9618 13.4995 14.8622 13.8106C14.5884 14.5697 14.1902 15.2479 13.6675 15.8452C13.1573 16.4301 12.6346 16.7039 12.0995 16.6666C11.4151 16.5795 11.0729 16.0755 11.0729 15.1546C11.0729 14.6817 11.1475 14.2275 11.2969 13.7919L11.5209 13.0079H9.57953C9.01953 14.2523 8.42842 15.223 7.8062 15.9199C7.19642 16.6043 6.54309 16.9155 5.8462 16.8532C5.24886 16.8035 4.78842 16.5981 4.46486 16.2372C4.15375 15.8639 3.9982 15.4221 3.9982 14.9119C3.9982 14.4763 4.14131 14.047 4.42753 13.6239C4.56442 13.4746 4.7262 13.4123 4.91286 13.4372C5.11198 13.4621 5.2862 13.5555 5.43553 13.7172C5.58486 13.8666 5.61598 14.0097 5.52886 14.1466C5.40442 14.3083 5.3422 14.5448 5.3422 14.8559C5.3422 15.3786 5.55375 15.6586 5.97686 15.6959C6.62398 15.7457 7.50131 14.5075 8.60886 11.9812C9.21864 10.5626 9.89064 9.35546 10.6249 8.3599C9.7662 8.39723 8.97598 8.59012 8.2542 8.93857C7.53242 9.27457 6.97864 9.7039 6.59286 10.2266C6.28175 10.7617 6.1262 11.2843 6.1262 11.7946C6.1262 12.3795 6.39998 12.7155 6.94753 12.8026C7.07198 12.815 7.1342 12.9208 7.1342 13.1199C7.14664 13.319 7.09686 13.5057 6.98486 13.6799C6.88531 13.8541 6.76709 13.935 6.6302 13.9226C6.13242 13.8852 5.70931 13.6426 5.36086 13.1946C5.01242 12.7466 4.8382 12.2177 4.8382 11.6079C4.8382 10.9235 5.06842 10.2763 5.52886 9.66657C6.06398 8.94479 6.87909 8.3599 7.9742 7.9119C9.06931 7.45146 10.1582 7.24612 11.2409 7.2959ZM11.9875 8.5279C11.3653 9.33679 10.7306 10.4381 10.0835 11.8319H11.8382L11.9315 11.5332C12.2178 10.3883 12.3609 9.63546 12.3609 9.27457C12.3609 8.90123 12.2364 8.65234 11.9875 8.5279ZM13.8681 12.8026C14.1418 11.7697 14.6209 10.9981 15.3054 10.4879C15.9898 9.96523 16.6805 9.79101 17.3774 9.96523C17.7009 10.0772 17.9809 10.2577 18.2174 10.5066C18.3045 10.1955 18.3854 10.0088 18.4601 9.94657C18.5347 9.88435 18.7089 9.85323 18.9827 9.85323H19.0761C19.3747 9.85323 19.5427 9.90301 19.5801 10.0026C19.6298 10.1021 19.5987 10.3075 19.4867 10.6186L18.5161 13.7919C18.3045 14.5386 18.0618 15.2666 17.7881 15.9759C18.4476 15.5403 19.0263 14.719 19.5241 13.5119C19.5863 13.3501 19.6609 13.2506 19.7481 13.2132C19.8352 13.1759 19.9845 13.1759 20.1961 13.2132C20.5569 13.3128 20.7001 13.5119 20.6254 13.8106C20.2396 14.8559 19.7418 15.671 19.1321 16.2559C18.5347 16.8283 17.8752 17.1768 17.1534 17.3012C16.4441 18.5457 15.5916 19.1679 14.5961 19.1679C14.1107 19.1679 13.7125 18.9999 13.4014 18.6639C13.0778 18.3403 13.0032 17.9483 13.1774 17.4879C13.5009 16.7163 14.5587 16.3181 16.3507 16.2932L16.5747 15.7892C16.2138 15.9883 15.8592 16.0879 15.5107 16.0879C14.9507 16.0879 14.5152 15.9199 14.2041 15.5839C13.8929 15.2355 13.7312 14.8186 13.7187 14.3332C13.6938 13.8479 13.7436 13.3377 13.8681 12.8026ZM17.4894 12.9519L17.5081 12.9146C17.5703 12.6408 17.6014 12.423 17.6014 12.2612C17.6014 11.6017 17.4085 11.2159 17.0227 11.1039C16.6618 11.0168 16.3072 11.1475 15.9587 11.4959C15.6227 11.8443 15.3552 12.3483 15.1561 13.0079C15.0814 13.2319 15.0316 13.4746 15.0067 13.7359C14.9943 13.9848 15.0441 14.2275 15.1561 14.4639C15.2805 14.7003 15.4796 14.8186 15.7534 14.8186C16.1018 14.8186 16.4441 14.607 16.7801 14.1839C17.1285 13.7608 17.3649 13.3501 17.4894 12.9519ZM14.8201 17.9359C15.1436 17.9235 15.4547 17.7368 15.7534 17.3759C14.9445 17.4132 14.5027 17.5439 14.4281 17.7679C14.4032 17.8177 14.4343 17.8612 14.5214 17.8986C14.6209 17.9359 14.7205 17.9483 14.8201 17.9359Z" fill="white"/>
</svg>
