<svg width="24" height="24" viewBox="0 0 24 24" fill="none" xmlns="http://www.w3.org/2000/svg">
<path d="M2.85254 16.501C2.91178 16.3825 2.97331 16.2503 3.03711 16.1045C3.10091 15.9541 3.16016 15.7923 3.21484 15.6191L3.39941 15.168C3.31738 15.0449 3.23307 14.9128 3.14648 14.7715C3.06445 14.6257 2.98926 14.4775 2.9209 14.3271C2.85254 14.1768 2.79557 14.0264 2.75 13.876C2.70898 13.7256 2.68848 13.5798 2.68848 13.4385C2.68848 13.4294 2.72266 13.4225 2.79102 13.418C2.86393 13.4089 2.9528 13.402 3.05762 13.3975C3.16699 13.3929 3.2832 13.3906 3.40625 13.3906C3.53385 13.3861 3.65007 13.3838 3.75488 13.3838C3.86426 13.3792 3.95312 13.377 4.02148 13.377C4.0944 13.3724 4.13086 13.3701 4.13086 13.3701C4.23568 13.0967 4.33822 12.8369 4.43848 12.5908C4.53874 12.3447 4.639 12.0964 4.73926 11.8457C4.83952 11.5951 4.93978 11.3398 5.04004 11.0801C5.1403 10.8158 5.24056 10.5332 5.34082 10.2324C5.53223 9.66732 5.71908 9.17057 5.90137 8.74219C6.08366 8.3138 6.25456 7.91504 6.41406 7.5459C6.43229 7.50033 6.46191 7.45931 6.50293 7.42285C6.5485 7.38184 6.59635 7.34766 6.64648 7.32031C6.69661 7.29297 6.74447 7.27018 6.79004 7.25195C6.84017 7.23372 6.87891 7.22005 6.90625 7.21094C6.92448 7.20638 6.99284 7.18587 7.11133 7.14941C7.23438 7.11296 7.37337 7.07422 7.52832 7.0332C7.68327 6.99219 7.83594 6.95573 7.98633 6.92383C8.14128 6.89193 8.26432 6.87598 8.35547 6.87598H8.47852C8.55143 6.87598 8.61979 6.89421 8.68359 6.93066C8.75195 6.96257 8.79753 7.02865 8.82031 7.12891C9.03906 7.68945 9.27148 8.30241 9.51758 8.96777C9.76823 9.62858 10.012 10.3577 10.249 11.1553C10.3766 11.5837 10.502 11.9893 10.625 12.3721C10.748 12.7549 10.8711 13.1286 10.9941 13.4932C11.1172 13.8577 11.2402 14.2223 11.3633 14.5869C11.4909 14.9515 11.6208 15.3275 11.7529 15.7148C11.7939 15.8789 11.835 16.0088 11.876 16.1045C11.9215 16.2002 11.9626 16.2754 11.999 16.3301C12.0355 16.3848 12.0651 16.4258 12.0879 16.4531C12.1107 16.4759 12.1221 16.501 12.1221 16.5283C12.1221 16.5557 12.0788 16.583 11.9922 16.6104L10.5225 17.0889C10.4131 17.1299 10.3014 17.1709 10.1875 17.2119C10.0736 17.2529 9.96647 17.2894 9.86621 17.3213C9.76595 17.3532 9.67708 17.3783 9.59961 17.3965C9.52669 17.4193 9.47428 17.4307 9.44238 17.4307H9.40137C9.33757 17.4307 9.29199 17.4102 9.26465 17.3691C9.2373 17.3327 9.21908 17.2962 9.20996 17.2598C9.16439 17.1094 9.11882 16.9749 9.07324 16.8564C9.02767 16.7334 8.9821 16.6126 8.93652 16.4941C8.89551 16.3711 8.85221 16.2412 8.80664 16.1045C8.76562 15.9678 8.72461 15.806 8.68359 15.6191C8.67448 15.5964 8.64941 15.5781 8.6084 15.5645C8.56738 15.5462 8.51725 15.5326 8.45801 15.5234C8.40332 15.5143 8.34408 15.5098 8.28027 15.5098C8.21647 15.5052 8.15723 15.5029 8.10254 15.5029C7.92936 15.5029 7.78809 15.5052 7.67871 15.5098C7.57389 15.5098 7.48047 15.512 7.39844 15.5166C7.31641 15.5166 7.23665 15.5189 7.15918 15.5234C7.08626 15.5234 6.99512 15.5234 6.88574 15.5234C6.75358 15.5234 6.61686 15.5234 6.47559 15.5234C6.33887 15.5189 6.21354 15.5143 6.09961 15.5098L5.70996 15.4961C5.59147 15.8242 5.47298 16.1318 5.35449 16.4189C5.236 16.7061 5.1084 17.0023 4.97168 17.3076C4.96257 17.3441 4.93978 17.3737 4.90332 17.3965C4.87142 17.4193 4.83724 17.4307 4.80078 17.4307C4.77344 17.4307 4.75749 17.4284 4.75293 17.4238C4.31087 17.2643 3.93945 17.1071 3.63867 16.9521C3.33789 16.7972 3.07585 16.6468 2.85254 16.501ZM7.45996 10.3555C7.35059 10.7611 7.24121 11.1302 7.13184 11.4629C7.02702 11.791 6.92904 12.0827 6.83789 12.3379C6.7513 12.5931 6.67611 12.8096 6.6123 12.9873C6.5485 13.1605 6.50293 13.2949 6.47559 13.3906V13.4521C6.47559 13.4795 6.47331 13.4977 6.46875 13.5068H8.10938C8.05924 13.2835 8.00456 13.0579 7.94531 12.8301C7.89062 12.6022 7.83594 12.363 7.78125 12.1123C7.72656 11.8617 7.67188 11.5928 7.61719 11.3057C7.5625 11.0186 7.51009 10.7018 7.45996 10.3555ZM17.5498 12.126C17.5042 12.0212 17.4404 11.9141 17.3584 11.8047C17.2809 11.6953 17.1898 11.5951 17.085 11.5039C16.9801 11.4128 16.8662 11.3398 16.7432 11.2852C16.6201 11.2259 16.4902 11.1963 16.3535 11.1963C16.1667 11.1963 15.9912 11.2738 15.8271 11.4287C15.6631 11.5837 15.5195 11.791 15.3965 12.0508C15.2734 12.306 15.1755 12.5999 15.1025 12.9326C15.0342 13.2607 15 13.6025 15 13.958C15 14.1768 15.0182 14.3841 15.0547 14.5801C15.0957 14.7715 15.1572 14.9401 15.2393 15.0859C15.3213 15.2318 15.4261 15.348 15.5537 15.4346C15.6859 15.5212 15.8431 15.5645 16.0254 15.5645C16.2988 15.5645 16.5495 15.4801 16.7773 15.3115C17.0052 15.1383 17.1989 14.915 17.3584 14.6416C17.363 14.5459 17.3698 14.432 17.3789 14.2998C17.388 14.1676 17.3994 14.0081 17.4131 13.8213C17.4268 13.6299 17.4427 13.4066 17.4609 13.1514C17.4837 12.8916 17.5111 12.584 17.543 12.2285L17.5498 12.126ZM19.8125 16.2549C19.7669 16.7061 19.6644 17.1276 19.5049 17.5195C19.3454 17.9115 19.1426 18.2692 18.8965 18.5928C18.6549 18.9209 18.377 19.2126 18.0625 19.4678C17.7526 19.7275 17.4222 19.9463 17.0713 20.124C16.7249 20.3018 16.3672 20.4362 15.998 20.5273C15.6289 20.623 15.2643 20.6709 14.9043 20.6709C14.7129 20.6709 14.5169 20.6641 14.3164 20.6504C14.1159 20.6367 13.9199 20.6094 13.7285 20.5684C13.5371 20.5319 13.3548 20.4772 13.1816 20.4043C13.0085 20.3359 12.8535 20.2471 12.7168 20.1377V20.1309C12.7168 20.1081 12.7327 20.0283 12.7646 19.8916C12.8011 19.7549 12.8421 19.5931 12.8877 19.4062C12.9378 19.224 12.988 19.0348 13.0381 18.8389C13.0928 18.6429 13.1383 18.4743 13.1748 18.333C13.193 18.2692 13.2113 18.2259 13.2295 18.2031C13.2477 18.1803 13.2682 18.1689 13.291 18.1689C13.3184 18.1689 13.3343 18.1712 13.3389 18.1758C13.471 18.2624 13.5941 18.333 13.708 18.3877C13.8265 18.4469 13.9495 18.4925 14.0771 18.5244C14.2093 18.5609 14.3529 18.5859 14.5078 18.5996C14.6628 18.6133 14.8428 18.6201 15.0479 18.6201C15.3669 18.6201 15.6494 18.5586 15.8955 18.4355C16.1416 18.3125 16.3535 18.153 16.5312 17.957C16.709 17.7611 16.8503 17.5446 16.9551 17.3076C17.0645 17.0752 17.1396 16.8451 17.1807 16.6172C16.8525 16.8359 16.5199 17.0137 16.1826 17.1504C15.8454 17.2871 15.5059 17.3555 15.1641 17.3555C14.6947 17.3555 14.2891 17.2598 13.9473 17.0684C13.6055 16.8815 13.3229 16.6286 13.0996 16.3096C12.8763 15.9906 12.71 15.626 12.6006 15.2158C12.4958 14.8011 12.4434 14.3682 12.4434 13.917C12.4434 13.5615 12.4753 13.2038 12.5391 12.8438C12.6074 12.4792 12.7054 12.1283 12.833 11.791C12.9652 11.4538 13.127 11.1393 13.3184 10.8477C13.5098 10.5514 13.7308 10.2939 13.9814 10.0752C14.2321 9.85645 14.5101 9.68555 14.8154 9.5625C15.1208 9.4349 15.4535 9.37109 15.8135 9.37109C16.2054 9.37109 16.5677 9.45768 16.9004 9.63086C17.2376 9.80404 17.543 10.0182 17.8164 10.2734C17.8255 10.1914 17.8324 10.1276 17.8369 10.082C17.8415 10.0319 17.8529 9.99316 17.8711 9.96582C17.8893 9.93848 17.9189 9.91797 17.96 9.9043C18.0055 9.89062 18.0693 9.87467 18.1514 9.85645C18.2015 9.84733 18.2926 9.8291 18.4248 9.80176C18.557 9.76986 18.7142 9.7334 18.8965 9.69238C19.0788 9.65137 19.2793 9.60807 19.498 9.5625C19.7168 9.51693 19.9378 9.46908 20.1611 9.41895C20.2158 9.40527 20.266 9.39844 20.3115 9.39844C20.4528 9.39844 20.5234 9.48958 20.5234 9.67188C20.5234 9.69466 20.5234 9.71745 20.5234 9.74023C20.5234 9.75846 20.5212 9.77897 20.5166 9.80176L19.8125 16.2549Z" fill="white"/>
</svg>
