<svg width="24" height="24" viewBox="0 0 24 24" fill="none" xmlns="http://www.w3.org/2000/svg">
<path d="M3.03606 17.0141C3.0174 16.8648 3.0174 16.7154 3.03606 16.5661C3.2974 16.5381 3.5074 16.5054 3.66606 16.4681C3.82473 16.4308 3.96006 16.3653 4.07206 16.272C4.18406 16.1693 4.2914 16.0201 4.39406 15.8241C4.49673 15.6188 4.61806 15.3341 4.75806 14.9701L7.78206 7.21405C7.88473 7.17672 8.00606 7.14872 8.14606 7.13005C8.2954 7.11138 8.4214 7.10205 8.52406 7.10205L11.5341 15.0961C11.6647 15.4321 11.7721 15.6981 11.8561 15.8941C11.9401 16.0808 12.0334 16.2161 12.1361 16.3C12.2387 16.384 12.3694 16.4448 12.5281 16.4821C12.6867 16.5101 12.9061 16.5381 13.1861 16.5661C13.2047 16.7154 13.2047 16.8648 13.1861 17.0141C12.8594 17.0141 12.5234 17.0094 12.1781 17.0001C11.8327 16.9908 11.4874 16.9861 11.1421 16.9861C10.7874 16.9861 10.4281 16.9908 10.0641 17.0001C9.7094 17.0094 9.35473 17.0141 9.00006 17.0141C8.97206 16.8741 8.97206 16.7248 9.00006 16.5661C9.4574 16.5194 9.77473 16.4774 9.95206 16.4401C10.1294 16.3934 10.2181 16.2814 10.2181 16.1041C10.2181 16.0294 10.2041 15.9454 10.1761 15.8521C10.1481 15.7588 10.1107 15.6421 10.0641 15.5021L9.26606 13.3461H6.11606L5.41606 15.2781C5.35073 15.4554 5.2994 15.6048 5.26206 15.7261C5.23406 15.8381 5.22006 15.9408 5.22006 16.0341C5.22006 16.2394 5.3134 16.3701 5.50006 16.4261C5.69606 16.4728 6.0134 16.5194 6.45206 16.5661C6.47073 16.7248 6.47073 16.8741 6.45206 17.0141C6.13473 17.0141 5.82206 17.0094 5.51406 17.0001C5.20606 16.9908 4.8934 16.9861 4.57606 16.9861C4.31473 16.9861 4.06273 16.9908 3.82006 17.0001C3.5774 17.0094 3.31606 17.0141 3.03606 17.0141ZM6.32606 12.7581H9.05606L7.68406 9.03405L6.32606 12.7581ZM16.038 20.5701C15.2167 20.5701 14.554 20.4254 14.05 20.1361C13.546 19.8468 13.294 19.4453 13.294 18.932C13.294 18.5307 13.434 18.1994 13.714 17.9381C13.994 17.6768 14.3393 17.4153 14.75 17.154C14.386 17.0701 14.1107 16.9254 13.924 16.72C13.7373 16.5054 13.644 16.2534 13.644 15.9641C13.644 15.4601 14.0127 14.9514 14.75 14.4381C14.442 14.2421 14.1947 13.9901 14.008 13.6821C13.8213 13.3648 13.728 13.0008 13.728 12.5901C13.728 12.0768 13.8587 11.6381 14.12 11.2741C14.3907 10.9008 14.7407 10.6161 15.17 10.4201C15.6087 10.2148 16.0753 10.1121 16.57 10.1121C17.298 10.1121 17.9047 10.3128 18.39 10.7141C18.894 10.3128 19.3887 10.1121 19.874 10.1121C20.1167 10.1121 20.308 10.1681 20.448 10.2801C20.588 10.3828 20.658 10.5368 20.658 10.7421C20.658 10.9474 20.5927 11.1108 20.462 11.2321C20.3313 11.3534 20.1727 11.4141 19.986 11.4141C19.8087 11.4141 19.6547 11.3628 19.524 11.2601C19.4027 11.1481 19.3233 10.9941 19.286 10.7981C19.1553 10.8261 19.048 10.8588 18.964 10.8961C18.8893 10.9334 18.8007 10.9848 18.698 11.0501C19.0153 11.4514 19.174 11.9274 19.174 12.4781C19.174 12.9914 19.048 13.4301 18.796 13.7941C18.544 14.1488 18.208 14.4241 17.788 14.6201C17.3773 14.8068 16.9247 14.9001 16.43 14.9001C15.9633 14.9001 15.5293 14.8161 15.128 14.6481C14.8947 14.8814 14.778 15.1288 14.778 15.3901C14.778 15.6234 14.8667 15.7728 15.044 15.8381C15.2213 15.8941 15.548 15.9221 16.024 15.9221C16.2387 15.9221 16.4953 15.9221 16.794 15.9221C17.0927 15.9128 17.312 15.9081 17.452 15.9081C18.3853 15.9081 19.0573 16.0761 19.468 16.4121C19.8787 16.7388 20.084 17.1914 20.084 17.7701C20.084 18.2274 19.972 18.6288 19.748 18.9741C19.524 19.3288 19.2207 19.6228 18.838 19.8561C18.4553 20.0988 18.0213 20.2761 17.536 20.3881C17.06 20.5094 16.5607 20.5701 16.038 20.5701ZM15.352 17.2241C14.848 17.6441 14.596 18.0874 14.596 18.5541C14.596 18.8808 14.694 19.1467 14.89 19.352C15.086 19.5574 15.3427 19.7067 15.66 19.8C15.9773 19.8933 16.3133 19.9401 16.668 19.9401C16.9853 19.9401 17.3167 19.8933 17.662 19.8C18.0073 19.7067 18.3013 19.5387 18.544 19.2961C18.7867 19.0627 18.908 18.7314 18.908 18.3021C18.908 17.9101 18.768 17.6301 18.488 17.4621C18.2173 17.2941 17.7087 17.21 16.962 17.21C16.7847 17.21 16.5653 17.21 16.304 17.21C16.0427 17.2193 15.7533 17.2241 15.436 17.2241C15.408 17.2241 15.38 17.2241 15.352 17.2241ZM16.458 14.4101C16.8687 14.4101 17.1813 14.2468 17.396 13.9201C17.62 13.5841 17.732 13.1221 17.732 12.5341C17.732 11.9368 17.62 11.4654 17.396 11.1201C17.172 10.7748 16.8453 10.6021 16.416 10.6021C16.0147 10.6021 15.702 10.7654 15.478 11.0921C15.2633 11.4094 15.156 11.8621 15.156 12.4501C15.156 13.0474 15.268 13.5234 15.492 13.8781C15.7253 14.2328 16.0473 14.4101 16.458 14.4101Z" fill="white"/>
</svg>
