<svg width="24" height="24" viewBox="0 0 24 24" fill="none" xmlns="http://www.w3.org/2000/svg">
<path d="M6.96717 7.19995H8.11517L11.6012 17H10.4952L9.58517 14.354H5.49717L4.58717 17H3.48117L6.96717 7.19995ZM9.27717 13.43L7.55517 8.43195H7.52717L5.81917 13.43H9.27717ZM18.7477 10.028V18.778L17.4737 20.052H14.0157L12.9377 18.974V18.12H13.9737V18.638L14.4637 19.128H17.0117L17.7117 18.442V15.838L16.4237 17H13.8757L12.5877 15.712V11.316L13.8757 10.028H16.5217L17.7397 11.246V10.028H18.7477ZM17.7117 12.422L16.2417 10.952H14.3237L13.6237 11.638V15.39L14.3237 16.076H16.2557L17.7117 14.718V12.422Z" fill="white"/>
</svg>
