<svg width="24" height="24" viewBox="0 0 24 24" fill="none" xmlns="http://www.w3.org/2000/svg">
<path d="M8.49427 6.23389C9.13827 6.23389 9.48827 6.37856 9.54427 6.66789L10.4963 10.9659L11.4623 16.6919C11.4809 16.7852 11.4903 16.8739 11.4903 16.9579C11.4903 17.0326 11.4669 17.0932 11.4203 17.1399C11.3736 17.1959 11.2149 17.2239 10.9443 17.2239C10.1136 17.2239 9.67027 17.0466 9.61427 16.6919L9.12427 13.8079H7.16427L6.73027 16.7059C6.70227 16.9019 6.66493 17.0326 6.61827 17.0979C6.58093 17.1632 6.52493 17.2006 6.45027 17.2099C6.3756 17.2192 6.25427 17.2239 6.08627 17.2239H5.69427C5.3676 17.2239 5.16227 17.2052 5.07827 17.1679C4.87293 17.0932 4.75627 17.0092 4.72827 16.9159C4.71893 16.8692 4.71427 16.8272 4.71427 16.7899C4.71427 16.7526 4.81227 16.1366 5.00827 14.9419C5.20427 13.7472 5.44227 12.3239 5.72227 10.6719C6.0116 9.01989 6.19827 7.93722 6.28227 7.42389C6.3756 6.91056 6.42693 6.62122 6.43627 6.55589C6.4736 6.34122 7.1596 6.23389 8.49427 6.23389ZM8.07427 8.06789L7.43027 12.1139H8.81627L8.07427 8.06789ZM15.4251 17.6719L14.2351 17.6859C13.6565 17.6859 13.3065 17.6392 13.1851 17.5459C13.0731 17.4526 13.0171 17.3406 13.0171 17.2099C13.0171 17.0792 13.0405 16.9346 13.0871 16.7759L13.5771 15.2919C13.1291 15.0959 12.8071 14.7739 12.6111 14.3259C12.4151 13.8779 12.3171 13.3179 12.3171 12.6459C12.3171 11.9739 12.3591 11.4652 12.4431 11.1199C12.5271 10.7746 12.6858 10.5039 12.9191 10.3079C13.1618 10.1119 13.4465 9.98589 13.7731 9.92989C14.0998 9.86456 14.5478 9.83189 15.1171 9.83189H18.1691C18.3185 9.83189 18.3931 10.0186 18.3931 10.3919C18.3931 10.5786 18.3185 10.6906 18.1691 10.7279L18.1271 10.7419L17.5251 10.8539C17.7865 11.2832 17.9171 11.8386 17.9171 12.5199C17.9171 13.5932 17.7071 14.3679 17.2871 14.8439C16.8765 15.3106 16.1531 15.5439 15.1171 15.5439H14.8091L14.6831 16.2019C15.7378 16.2206 16.4238 16.2579 16.7411 16.3139C17.0585 16.3699 17.2778 16.4352 17.3991 16.5099C17.5205 16.5846 17.6325 16.6966 17.7351 16.8459C17.8471 16.9952 17.9125 17.1679 17.9311 17.3639C17.9591 17.5599 17.9731 17.8166 17.9731 18.1339C17.9731 18.9086 17.7585 19.4732 17.3291 19.8279C16.8998 20.1826 16.1345 20.3599 15.0331 20.3599C14.5198 20.3599 13.8758 20.2852 13.1011 20.1359C12.9611 20.1079 12.8911 19.8699 12.8911 19.4219C12.8911 18.9739 12.9565 18.7499 13.0871 18.7499C13.0871 18.7499 13.0918 18.7499 13.1011 18.7499H13.1151C13.9551 18.8432 14.6225 18.8899 15.1171 18.8899C15.6211 18.8899 15.9338 18.8526 16.0551 18.7779C16.1765 18.7032 16.2371 18.5166 16.2371 18.2179C16.2371 17.9286 16.1811 17.7652 16.0691 17.7279C15.9665 17.6906 15.7518 17.6719 15.4251 17.6719ZM15.4671 11.1759C14.8605 11.1759 14.4918 11.2412 14.3611 11.3719C14.2398 11.4932 14.1791 11.8432 14.1791 12.4219C14.1791 12.9912 14.2025 13.4066 14.2491 13.6679C14.3051 13.9199 14.3611 14.0692 14.4171 14.1159C14.4731 14.1532 14.6085 14.1719 14.8231 14.1719C15.0471 14.1719 15.2245 14.1672 15.3551 14.1579C15.4951 14.1392 15.6211 14.0692 15.7331 13.9479C15.8451 13.8266 15.9058 13.6679 15.9151 13.4719C15.9338 13.2759 15.9431 12.9679 15.9431 12.5479C15.9431 12.1279 15.9151 11.8152 15.8591 11.6099C15.8125 11.3952 15.7611 11.2692 15.7051 11.2319C15.6491 11.1946 15.5698 11.1759 15.4671 11.1759Z" fill="white"/>
</svg>
