<svg width="24" height="24" viewBox="0 0 24 24" fill="none" xmlns="http://www.w3.org/2000/svg">
<path d="M11.8749 16.6081H11.3009L8.45888 7.38207C8.41688 7.25607 8.33288 7.20007 8.22088 7.20007H5.15488C5.05688 7.20007 4.97288 7.28407 4.97288 7.39607C4.97288 7.50807 5.05688 7.59207 5.15488 7.59207H5.96688L3.05488 16.6081H2.27088C2.17288 16.6081 2.08888 16.7061 2.08888 16.8041C2.08888 16.9161 2.17288 17.0001 2.27088 17.0001H4.42688C4.52488 17.0001 4.60888 16.9161 4.60888 16.8041C4.60888 16.7061 4.52488 16.6081 4.42688 16.6081H3.48888L4.25888 14.2281H8.31888L9.06088 16.6081H8.27688C8.17888 16.6081 8.09488 16.7061 8.09488 16.8041C8.09488 16.9161 8.17888 17.0001 8.27688 17.0001H11.8749C11.9729 17.0001 12.0569 16.9161 12.0569 16.8041C12.0569 16.7061 11.9729 16.6081 11.8749 16.6081ZM6.72288 7.59207H8.09488L10.8669 16.6081H9.49488L6.72288 7.59207ZM4.38488 13.8361L6.34488 7.80207L8.20688 13.8361H4.38488ZM21.5722 12.6461H18.2682C18.1422 12.6461 18.0722 12.7441 18.0722 12.8421C18.0722 12.9401 18.1422 13.0381 18.2682 13.0381H18.9822V16.4821C18.3942 16.7201 17.7502 16.8321 17.0642 16.8321C16.0982 16.8321 15.2442 16.6081 14.5442 16.2021V7.99807C15.2442 7.59207 16.0982 7.36807 17.0502 7.36807H17.0642C18.1702 7.36807 20.0602 7.70407 20.0602 9.21607V9.48207C20.0602 9.62207 20.1722 9.69207 20.2702 9.69207C20.3682 9.69207 20.4802 9.62207 20.4802 9.48207V7.18607C20.4802 7.06007 20.3682 6.99007 20.2702 6.99007C20.1722 6.99007 20.0602 7.06007 20.0602 7.18607V8.04007C19.3882 7.24207 18.0442 6.97607 17.0642 6.97607H17.0502C14.0262 6.97607 11.9962 9.03407 11.9962 12.1001C11.9962 15.1661 14.0262 17.2241 17.0642 17.2241C18.6742 17.2241 20.1442 16.6221 21.0822 15.3901C21.1382 15.3061 21.1662 15.2361 21.1662 15.1381V13.0381H21.5722C21.7122 13.0381 21.7822 12.9401 21.7822 12.8421C21.7822 12.7441 21.7122 12.6461 21.5722 12.6461ZM12.3882 12.1001C12.3882 10.4341 13.0322 9.09007 14.1242 8.26407V15.9221C13.0322 15.1101 12.3882 13.7661 12.3882 12.1001ZM20.7462 15.1801C20.3682 15.6561 19.9202 16.0201 19.4022 16.3001V13.0381H20.7462V15.1801Z" fill="white"/>
</svg>
