<svg width="24" height="24" viewBox="0 0 24 24" fill="none" xmlns="http://www.w3.org/2000/svg">
<path d="M6.0174 17.0281C5.3734 17.0281 4.86473 16.7154 4.4914 16.0901C4.1274 15.4648 3.91273 14.6434 3.8474 13.6261C3.77273 12.3661 3.90807 11.2554 4.2534 10.2941C4.60807 9.32344 5.14007 8.56744 5.8494 8.02611C6.55873 7.48478 7.4034 7.21411 8.3834 7.21411C9.37273 7.21411 10.2174 7.48478 10.9174 8.02611C11.6267 8.56744 12.1541 9.31878 12.4994 10.2801C12.8541 11.2414 12.9894 12.3568 12.9054 13.6261C12.8401 14.6714 12.6207 15.4974 12.2474 16.1041C11.8834 16.7108 11.3794 17.0141 10.7354 17.0141C10.3714 17.0141 10.0914 16.9488 9.8954 16.8181C9.6994 16.6781 9.5594 16.5054 9.4754 16.3001C9.40073 16.0854 9.3634 15.8708 9.3634 15.6561C9.3634 15.4321 9.3774 15.2408 9.4054 15.0821C9.10673 15.0914 8.75673 15.1008 8.3554 15.1101C7.95407 15.1101 7.61807 15.1008 7.3474 15.0821C7.3754 15.2408 7.3894 15.4321 7.3894 15.6561C7.3894 15.8708 7.3474 16.0854 7.2634 16.3001C7.18873 16.5054 7.0534 16.6781 6.8574 16.8181C6.6614 16.9581 6.3814 17.0281 6.0174 17.0281ZM7.2494 12.5901C7.98673 12.5621 8.72407 12.5621 9.4614 12.5901C9.50807 12.2634 9.5034 11.9508 9.4474 11.6521C9.3914 11.3534 9.27473 11.1108 9.0974 10.9241C8.92007 10.7374 8.66807 10.6441 8.3414 10.6441C8.01473 10.6441 7.76273 10.7374 7.5854 10.9241C7.4174 11.1108 7.3054 11.3534 7.2494 11.6521C7.20273 11.9414 7.20273 12.2541 7.2494 12.5901ZM16.6745 19.3941C16.1518 19.3941 15.7131 19.2914 15.3585 19.0861C15.0038 18.8901 14.8265 18.6194 14.8265 18.2741C14.8265 17.9194 14.9805 17.6441 15.2885 17.4481C15.5965 17.2521 15.9698 17.1914 16.4085 17.2661C16.9218 17.3408 17.3791 17.3081 17.7805 17.1681C18.1911 17.0374 18.4338 16.8368 18.5085 16.5661C18.3591 16.6501 18.1538 16.7201 17.8925 16.7761C17.6311 16.8321 17.3371 16.8601 17.0105 16.8601C16.3758 16.8601 15.8391 16.7668 15.4005 16.5801C14.9711 16.3841 14.6258 16.1368 14.3645 15.8381C14.1031 15.5301 13.9118 15.2081 13.7905 14.8721C13.6785 14.5268 13.6225 14.2094 13.6225 13.9201C13.6225 13.1548 13.7858 12.5108 14.1125 11.9881C14.4485 11.4654 14.8731 11.0688 15.3865 10.7981C15.8998 10.5274 16.4271 10.3921 16.9685 10.3921C17.1458 10.3921 17.3558 10.4061 17.5985 10.4341C17.8505 10.4528 18.0651 10.4854 18.2425 10.5321C18.3171 10.2988 18.4385 10.1074 18.6065 9.95811C18.7838 9.80878 19.0638 9.73411 19.4465 9.73411C19.7825 9.73411 20.0625 9.85078 20.2865 10.0841C20.5105 10.3081 20.6878 10.6161 20.8185 11.0081C20.9491 11.3908 21.0425 11.8201 21.0985 12.2961C21.1545 12.7628 21.1778 13.2481 21.1685 13.7521C21.1685 14.2468 21.1451 14.7134 21.0985 15.1521C21.0051 16.0201 20.7671 16.7714 20.3845 17.4061C20.0018 18.0408 19.4931 18.5308 18.8585 18.8761C18.2331 19.2214 17.5051 19.3941 16.6745 19.3941ZM17.1925 14.7601C17.4818 14.7601 17.7338 14.6528 17.9485 14.4381C18.1631 14.2234 18.2705 13.9761 18.2705 13.6961C18.2705 13.4068 18.1631 13.1548 17.9485 12.9401C17.7338 12.7254 17.4818 12.6181 17.1925 12.6181C16.9031 12.6181 16.6511 12.7254 16.4365 12.9401C16.2311 13.1548 16.1285 13.4068 16.1285 13.6961C16.1285 13.9761 16.2311 14.2234 16.4365 14.4381C16.6511 14.6528 16.9031 14.7601 17.1925 14.7601Z" fill="white"/>
</svg>
