<svg width="24" height="24" viewBox="0 0 24 24" fill="none" xmlns="http://www.w3.org/2000/svg">
<path d="M9.80331 15.11H5.98131L5.30931 17H3.22331L6.70931 7.396H9.28531L12.7713 17H10.5033L9.80331 15.11ZM6.56931 13.472H9.22931C8.87465 12.4173 8.44531 11.162 7.94131 9.706H7.87131L6.56931 13.472ZM18.631 15.376C19.2843 15.376 19.7836 15.5627 20.129 15.936C20.4836 16.3 20.661 16.7807 20.661 17.378C20.661 17.8073 20.5396 18.1947 20.297 18.54C20.0543 18.8853 19.723 19.1513 19.303 19.338C18.8923 19.534 18.435 19.632 17.931 19.632H14.977C14.4076 19.632 13.927 19.4733 13.535 19.156C13.1523 18.848 12.961 18.4187 12.961 17.868C12.961 17.532 13.059 17.2287 13.255 16.958C13.4603 16.678 13.717 16.468 14.025 16.328C13.8103 16.188 13.647 16.0153 13.535 15.81C13.423 15.6047 13.367 15.3807 13.367 15.138C13.367 14.7927 13.479 14.494 13.703 14.242C13.927 13.9807 14.2163 13.794 14.571 13.682C14.2536 13.486 14.0063 13.2387 13.829 12.94C13.6516 12.632 13.563 12.3053 13.563 11.96C13.563 11.2973 13.8196 10.756 14.333 10.336C14.8556 9.916 15.6163 9.706 16.615 9.706H16.839C17.2776 9.706 17.6696 9.762 18.015 9.874C18.3976 9.65 18.6636 9.42133 18.813 9.188C18.9623 8.95467 19.0463 8.74467 19.065 8.558H20.661C20.661 9.54733 20.1663 10.1633 19.177 10.406L19.163 10.448C19.6576 10.868 19.905 11.372 19.905 11.96C19.905 12.3707 19.7883 12.7487 19.555 13.094C19.3216 13.43 18.9903 13.7007 18.561 13.906C18.141 14.102 17.6556 14.2 17.105 14.2H16.139C15.859 14.2 15.6396 14.2607 15.481 14.382C15.3316 14.5033 15.257 14.6387 15.257 14.788C15.257 14.9747 15.327 15.1193 15.467 15.222C15.6163 15.3247 15.8403 15.376 16.139 15.376H18.631ZM15.523 11.96C15.523 12.2867 15.6396 12.5433 15.873 12.73C16.1063 12.9073 16.4003 12.996 16.755 12.996C17.119 12.996 17.4176 12.9073 17.651 12.73C17.8843 12.5433 18.001 12.2867 18.001 11.96C18.001 11.6333 17.8843 11.3813 17.651 11.204C17.4176 11.0173 17.119 10.924 16.755 10.924C16.4003 10.924 16.1063 11.0173 15.873 11.204C15.6396 11.3813 15.523 11.6333 15.523 11.96ZM17.875 18.372C18.1176 18.372 18.3276 18.2973 18.505 18.148C18.6823 18.008 18.771 17.84 18.771 17.644C18.771 17.4573 18.6963 17.2987 18.547 17.168C18.3976 17.0467 18.2016 16.986 17.959 16.986H15.523C15.3176 16.986 15.1403 17.0513 14.991 17.182C14.8416 17.322 14.767 17.4853 14.767 17.672C14.767 17.8587 14.8416 18.022 14.991 18.162C15.1403 18.302 15.3176 18.372 15.523 18.372H17.875Z" fill="white"/>
</svg>
