<svg width="24" height="24" viewBox="0 0 24 24" fill="none" xmlns="http://www.w3.org/2000/svg">
<path d="M7.16027 16.7199L7.76227 16.6639C7.89294 16.6452 7.95827 16.5939 7.95827 16.5099C7.95827 16.4632 7.94427 16.4072 7.91627 16.3419L6.99227 14.2979H3.74427L2.90427 16.3419C2.87627 16.4072 2.86227 16.4632 2.86227 16.5099C2.86227 16.5939 2.92761 16.6452 3.05827 16.6639L3.66027 16.7199V16.9999H1.53227V16.7199L2.05027 16.6639C2.16227 16.6546 2.24161 16.6266 2.28827 16.5799C2.33494 16.5332 2.38627 16.4492 2.44227 16.3279L6.32027 7.0459H6.76827L10.8703 16.3279C10.9263 16.4492 10.9776 16.5332 11.0243 16.5799C11.0709 16.6266 11.1503 16.6546 11.2623 16.6639L11.7803 16.7199V16.9999H7.16027V16.7199ZM6.81027 13.8779L5.29827 10.5319L3.91227 13.8779H6.81027ZM20.3144 10.2939C19.941 10.1912 19.6144 10.1399 19.3344 10.1399C19.073 10.1399 18.863 10.1912 18.7044 10.2939C19.8897 10.6299 20.4824 11.3019 20.4824 12.3099C20.4824 13.1219 20.1604 13.7099 19.5164 14.0739C18.8724 14.4286 17.9624 14.6059 16.7864 14.6059C16.1237 14.6059 15.5497 14.5452 15.0644 14.4239C14.775 14.4426 14.5184 14.4939 14.2944 14.5779C14.0797 14.6526 13.9724 14.7552 13.9724 14.8859C13.9724 15.0259 14.033 15.1332 14.1544 15.2079C14.2757 15.2732 14.467 15.3292 14.7284 15.3759C14.9897 15.4132 15.4237 15.4599 16.0304 15.5159L18.4104 15.7399C19.0824 15.8052 19.6144 15.9126 20.0064 16.0619C20.4077 16.2019 20.697 16.4119 20.8744 16.6919C21.061 16.9626 21.1544 17.3219 21.1544 17.7699C21.1544 18.3672 20.935 18.8572 20.4964 19.2399C20.067 19.6319 19.5117 19.9166 18.8304 20.0939C18.149 20.2712 17.421 20.3599 16.6464 20.3599C15.5357 20.3599 14.621 20.2059 13.9024 19.8979C13.193 19.5992 12.8384 19.1419 12.8384 18.5259C12.8384 18.1339 12.9924 17.8306 13.3004 17.6159C13.6084 17.4012 14.0144 17.2612 14.5184 17.1959C13.4544 16.9439 12.9224 16.4446 12.9224 15.6979C12.9224 14.8859 13.417 14.3912 14.4064 14.2139C13.529 13.8312 13.0904 13.1966 13.0904 12.3099C13.0904 11.4979 13.4077 10.9192 14.0424 10.5739C14.6864 10.2286 15.601 10.0559 16.7864 10.0559C17.3557 10.0746 17.8504 10.1212 18.2704 10.1959C18.541 9.78523 18.919 9.44923 19.4044 9.1879C19.8897 8.91723 20.473 8.7819 21.1544 8.7819L20.8184 10.3919H20.6644L20.3144 10.2939ZM16.7864 14.2559C17.225 14.2559 17.519 14.1019 17.6684 13.7939C17.827 13.4766 17.9064 12.9819 17.9064 12.3099C17.9064 11.6659 17.827 11.1899 17.6684 10.8819C17.519 10.5646 17.225 10.4059 16.7864 10.4059C16.3477 10.4059 16.049 10.5646 15.8904 10.8819C15.741 11.1899 15.6664 11.6659 15.6664 12.3099C15.6664 12.9819 15.741 13.4766 15.8904 13.7939C16.049 14.1019 16.3477 14.2559 16.7864 14.2559ZM15.9744 17.4339C15.4797 17.3686 15.1344 17.3172 14.9384 17.2799C14.817 17.5412 14.7564 17.8726 14.7564 18.2739C14.7564 18.8526 14.8964 19.2819 15.1764 19.5619C15.4564 19.8419 15.979 19.9819 16.7444 19.9819C17.6404 19.9819 18.3357 19.8699 18.8304 19.6459C19.325 19.4312 19.5724 19.1092 19.5724 18.6799C19.5724 18.4372 19.521 18.2506 19.4184 18.1199C19.325 17.9986 19.1664 17.9006 18.9424 17.8259C18.7184 17.7606 18.387 17.7046 17.9484 17.6579L15.9744 17.4339Z" fill="white"/>
</svg>
