<svg width="24" height="24" viewBox="0 0 24 24" fill="none" xmlns="http://www.w3.org/2000/svg">
<path d="M12.4844 16.7949C12.498 16.8268 12.5049 16.8587 12.5049 16.8906C12.5049 16.9772 12.4502 17.0205 12.3408 17.0205H11.8076C11.7757 17.0205 11.7438 17.0068 11.7119 16.9795C11.68 16.9521 11.6549 16.9157 11.6367 16.8701L10.6455 14.416H5.55273L4.56836 16.8633C4.55013 16.9089 4.52279 16.9453 4.48633 16.9727C4.45443 17 4.42025 17.0137 4.38379 17.0137H3.86426C3.75488 17.0137 3.7002 16.9727 3.7002 16.8906C3.7002 16.8587 3.70703 16.8268 3.7207 16.7949L7.70605 7.14941C7.72428 7.10384 7.75163 7.06738 7.78809 7.04004C7.82454 7.0127 7.86328 6.99902 7.9043 6.99902H8.30078C8.3418 6.99902 8.38053 7.01497 8.41699 7.04688C8.45345 7.07422 8.48079 7.11068 8.49902 7.15625L12.4844 16.7949ZM10.3584 13.7051L8.10254 8.09961L5.83984 13.7051H10.3584ZM17.4404 16.9521C18.1377 16.9521 18.6686 17.0889 19.0332 17.3623C19.4023 17.6403 19.5869 18.0368 19.5869 18.5518C19.5869 18.9574 19.4661 19.306 19.2246 19.5977C18.9831 19.8939 18.6367 20.1195 18.1855 20.2744C17.7389 20.4339 17.2103 20.5137 16.5996 20.5137C16.1348 20.5137 15.6699 20.4772 15.2051 20.4043C14.7402 20.3314 14.3506 20.2174 14.0361 20.0625C14.0042 20.0488 13.9792 20.026 13.9609 19.9941C13.9427 19.9668 13.9336 19.9372 13.9336 19.9053C13.9336 19.8825 13.9404 19.8574 13.9541 19.8301L14.1045 19.4678C14.141 19.4085 14.1888 19.3789 14.248 19.3789C14.2617 19.3789 14.2822 19.3835 14.3096 19.3926C14.6012 19.5247 14.9544 19.625 15.3691 19.6934C15.7884 19.7663 16.1986 19.8027 16.5996 19.8027C17.306 19.8027 17.862 19.6956 18.2676 19.4814C18.6732 19.2718 18.876 18.9801 18.876 18.6064C18.876 17.9684 18.3975 17.6494 17.4404 17.6494H15.5195C15.1823 17.6494 14.8792 17.5902 14.6104 17.4717C14.346 17.3577 14.1364 17.1982 13.9814 16.9932C13.8311 16.7835 13.7559 16.5443 13.7559 16.2754C13.7559 15.9974 13.8265 15.7467 13.9678 15.5234C14.1136 15.3001 14.3027 15.1429 14.5352 15.0518C14.3392 14.833 14.1865 14.5869 14.0771 14.3135C13.9678 14.0355 13.9131 13.7438 13.9131 13.4385C13.9131 12.9736 14.0179 12.5544 14.2275 12.1807C14.4417 11.8024 14.7334 11.5062 15.1025 11.292C15.4717 11.0778 15.8841 10.9707 16.3398 10.9707C16.431 10.9707 16.5609 10.9844 16.7295 11.0117C16.8981 11.0391 17.0622 11.0778 17.2217 11.1279H19.0059C19.056 11.1279 19.097 11.1439 19.1289 11.1758C19.1654 11.2077 19.1836 11.251 19.1836 11.3057V11.6133C19.1836 11.6634 19.1654 11.7067 19.1289 11.7432C19.097 11.7751 19.056 11.791 19.0059 11.791L18.1172 11.7979C18.3223 11.9893 18.4886 12.2262 18.6162 12.5088C18.7484 12.7868 18.8145 13.0967 18.8145 13.4385C18.8145 13.8896 18.7051 14.3021 18.4863 14.6758C18.2721 15.0449 17.9759 15.3366 17.5977 15.5508C17.2194 15.765 16.7979 15.8721 16.333 15.8721C15.8727 15.8721 15.4398 15.7422 15.0342 15.4824C14.8701 15.528 14.7357 15.6214 14.6309 15.7627C14.526 15.8994 14.4736 16.0566 14.4736 16.2344C14.4736 16.4395 14.5739 16.6104 14.7744 16.7471C14.9749 16.8838 15.2233 16.9521 15.5195 16.9521H17.4404ZM16.3467 11.7021C16.0322 11.7021 15.7451 11.7796 15.4854 11.9346C15.2301 12.085 15.0273 12.2923 14.877 12.5566C14.7266 12.821 14.6514 13.1126 14.6514 13.4316C14.6514 13.7461 14.7243 14.0332 14.8701 14.293C15.0205 14.5527 15.2256 14.7578 15.4854 14.9082C15.7451 15.0586 16.0299 15.1338 16.3398 15.1338C16.6589 15.1338 16.9505 15.0586 17.2148 14.9082C17.4837 14.7578 17.6934 14.5527 17.8438 14.293C17.9987 14.0332 18.0762 13.7484 18.0762 13.4385C18.0762 13.1195 17.9987 12.8278 17.8438 12.5635C17.6934 12.2946 17.486 12.085 17.2217 11.9346C16.9574 11.7796 16.6657 11.7021 16.3467 11.7021Z" fill="white"/>
</svg>
