<svg width="24" height="24" viewBox="0 0 24 24" fill="none" xmlns="http://www.w3.org/2000/svg">
<path d="M10.4346 14.0742C10.0882 14.1198 9.52767 14.1699 8.75293 14.2246C7.9873 14.2702 7.42676 14.3271 7.07129 14.3955C6.24642 15.7627 5.72461 16.5648 5.50586 16.8018C5.29167 17.0387 5.02507 17.1572 4.70605 17.1572C4.45996 17.1572 4.25488 17.082 4.09082 16.9316C3.93132 16.7812 3.85156 16.599 3.85156 16.3848C3.85156 16.1432 4.31868 15.307 5.25293 13.876C5.22559 13.8076 5.21191 13.7461 5.21191 13.6914C5.21191 13.3542 5.46484 13.1126 5.9707 12.9668C9.0332 8.91536 10.7786 6.88965 11.207 6.88965C11.6947 6.88965 11.984 7.19271 12.0752 7.79883C12.0752 8.64648 12.1322 9.95898 12.2461 11.7363C12.36 13.5137 12.4398 14.5026 12.4854 14.7031C12.5309 14.9036 12.5902 15.1383 12.6631 15.4072C12.7406 15.7217 12.7793 15.9701 12.7793 16.1523C12.7793 16.4303 12.6608 16.6764 12.4238 16.8906C12.1914 17.1048 11.9294 17.2119 11.6377 17.2119C11.068 17.2119 10.667 16.166 10.4346 14.0742ZM10.1953 10.1982C9.58919 11.0277 8.9694 11.8571 8.33594 12.6865C8.56836 12.641 8.89876 12.6045 9.32715 12.5771C9.82845 12.5498 10.1452 12.527 10.2773 12.5088C10.2773 11.9072 10.25 11.137 10.1953 10.1982ZM18.3232 16.6377C17.7992 17.1117 17.1839 17.3486 16.4775 17.3486C15.6481 17.3486 15.001 17.1117 14.5361 16.6377C14.0758 16.1637 13.8457 15.5645 13.8457 14.8398C13.8457 13.6139 14.2946 12.502 15.1924 11.5039C16.0902 10.5013 17.3206 10 18.8838 10C19.7451 10 20.333 10.2096 20.6475 10.6289C21.1305 10.6882 21.3721 10.9502 21.3721 11.415C21.3721 11.6748 21.2467 12.1784 20.9961 12.9258C20.6543 13.9466 20.3604 15.0768 20.1143 16.3164C19.8135 17.9935 19.2985 19.167 18.5693 19.8369C17.8402 20.5114 16.8148 20.8486 15.4932 20.8486C13.8389 20.8486 13.0117 20.541 13.0117 19.9258C13.0117 19.6797 13.1006 19.4564 13.2783 19.2559C13.4515 19.0599 13.6908 18.9619 13.9961 18.9619C14.2103 18.9619 14.4997 18.9984 14.8643 19.0713C15.2607 19.1579 15.598 19.2012 15.876 19.2012C16.5368 19.2012 17.0586 18.9984 17.4414 18.5928C17.8242 18.1872 18.1182 17.5355 18.3232 16.6377ZM19.417 11.832C19.1162 11.6452 18.8314 11.5518 18.5625 11.5518C17.6784 11.5518 16.988 11.8685 16.4912 12.502C15.9945 13.1354 15.7461 13.8418 15.7461 14.6211C15.7461 15.3685 16.0833 15.7422 16.7578 15.7422C17.0996 15.7422 17.4688 15.5622 17.8652 15.2021C18.2663 14.8421 18.5397 14.4867 18.6855 14.1357C18.8359 13.7848 19.0798 13.0169 19.417 11.832Z" fill="white"/>
</svg>
