<svg width="24" height="24" viewBox="0 0 24 24" fill="none" xmlns="http://www.w3.org/2000/svg">
<path d="M2.6433 17.0001C2.92796 16.4541 3.2243 15.8848 3.5323 15.2921C3.8403 14.6994 4.1343 14.1324 4.4143 13.5911L6.1853 10.1751C6.48863 9.58707 6.76863 9.0434 7.0253 8.54407C7.28663 8.04474 7.5503 7.53607 7.8163 7.01807H11.5193C11.566 7.53607 11.6126 8.04007 11.6593 8.53007C11.7106 9.02007 11.7643 9.57074 11.8203 10.1821L12.1563 13.6541C12.2123 14.1861 12.2683 14.7461 12.3243 15.3341C12.3803 15.9174 12.434 16.4728 12.4853 17.0001H9.6503C9.62696 16.5008 9.60363 15.9898 9.5803 15.4671C9.55696 14.9398 9.53596 14.4358 9.5173 13.9551L9.3143 9.42607H9.1183L7.0953 13.9271C6.8713 14.4218 6.6403 14.9328 6.4023 15.4601C6.1643 15.9874 5.9333 16.5008 5.7093 17.0001H2.6433ZM5.7583 15.1521L6.5143 13.0171H10.6373L10.4623 15.1521H5.7583ZM15.6698 19.8701C15.2731 19.8701 14.8788 19.8374 14.4868 19.7721C14.0994 19.7068 13.7541 19.5994 13.4508 19.4501C13.1521 19.3054 12.9281 19.1118 12.7787 18.8691C12.6294 18.6311 12.5944 18.3324 12.6737 17.9731C12.7251 17.7258 12.8441 17.5228 13.0307 17.3641C13.2174 17.2101 13.4251 17.0934 13.6538 17.0141C13.8871 16.9348 14.0994 16.8788 14.2908 16.8461V16.6921C14.1881 16.6454 14.0761 16.5731 13.9548 16.4751C13.8381 16.3724 13.7448 16.2418 13.6748 16.0831C13.6094 15.9198 13.6001 15.7238 13.6468 15.4951C13.6888 15.2804 13.7774 15.1054 13.9128 14.9701C14.0481 14.8348 14.2021 14.7274 14.3748 14.6481C14.5521 14.5688 14.7271 14.5058 14.8998 14.4591V14.2911C14.7084 14.1744 14.5311 14.0344 14.3678 13.8711C14.2091 13.7078 14.0738 13.5234 13.9618 13.3181C13.8498 13.1081 13.7751 12.8818 13.7378 12.6391C13.7004 12.3918 13.7098 12.1234 13.7658 11.8341C13.8451 11.4514 14.0014 11.1061 14.2348 10.7981C14.4728 10.4854 14.7971 10.2381 15.2078 10.0561C15.6184 9.87407 16.1224 9.78307 16.7198 9.78307C17.1211 9.78307 17.4478 9.79707 17.6998 9.82507C17.9564 9.85307 18.1991 9.88107 18.4278 9.90907C18.6564 9.93707 18.9271 9.95107 19.2398 9.95107H21.3818L21.0388 11.5681C20.6188 11.5681 20.2198 11.5681 19.8418 11.5681C19.4684 11.5681 19.0858 11.5681 18.6938 11.5681L19.3868 10.7561C19.6388 11.0174 19.8044 11.2951 19.8838 11.5891C19.9678 11.8831 19.9724 12.2051 19.8978 12.5551C19.8044 12.9938 19.6154 13.3461 19.3308 13.6121C19.0508 13.8734 18.7194 14.0718 18.3368 14.2071C17.9541 14.3424 17.5668 14.4404 17.1748 14.5011C16.8668 14.5431 16.6264 14.5898 16.4538 14.6411C16.2811 14.6924 16.1831 14.7694 16.1598 14.8721C16.1411 14.9514 16.1574 15.0144 16.2088 15.0611C16.2648 15.1078 16.3418 15.1404 16.4398 15.1591C16.5378 15.1778 16.6451 15.1871 16.7618 15.1871H17.3428C17.8748 15.1871 18.3344 15.2734 18.7218 15.4461C19.1138 15.6188 19.3984 15.8754 19.5758 16.2161C19.7578 16.5568 19.7951 16.9791 19.6878 17.4831C19.5944 17.9358 19.4148 18.3138 19.1488 18.6171C18.8874 18.9204 18.5701 19.1631 18.1968 19.3451C17.8281 19.5318 17.4244 19.6648 16.9858 19.7441C16.5518 19.8281 16.1131 19.8701 15.6698 19.8701ZM15.9708 18.2251C16.2228 18.2251 16.4398 18.1971 16.6218 18.1411C16.8084 18.0898 16.9531 18.0244 17.0558 17.9451C17.1631 17.8704 17.2261 17.7911 17.2448 17.7071C17.2634 17.6184 17.2494 17.5274 17.2028 17.4341C17.1608 17.3454 17.0581 17.2708 16.8948 17.2101C16.7314 17.1494 16.4841 17.1191 16.1528 17.1191H15.9428C15.8168 17.1238 15.6721 17.1424 15.5088 17.1751C15.3454 17.2078 15.1984 17.2614 15.0678 17.3361C14.9371 17.4154 14.8601 17.5228 14.8368 17.6581C14.8181 17.7374 14.8321 17.8121 14.8788 17.8821C14.9254 17.9521 14.9978 18.0104 15.0958 18.0571C15.1984 18.1084 15.3221 18.1481 15.4668 18.1761C15.6161 18.2088 15.7841 18.2251 15.9708 18.2251ZM16.6428 13.2271C16.7641 13.2178 16.8808 13.2014 16.9928 13.1781C17.1094 13.1548 17.2168 13.1198 17.3148 13.0731C17.4128 13.0264 17.4968 12.9634 17.5668 12.8841C17.6368 12.8048 17.6834 12.7114 17.7068 12.6041C17.7394 12.4688 17.7254 12.3428 17.6648 12.2261C17.6088 12.1094 17.5131 12.0161 17.3778 11.9461C17.2471 11.8714 17.0791 11.8341 16.8738 11.8341C16.7338 11.8341 16.6054 11.8551 16.4888 11.8971C16.3721 11.9391 16.2741 12.0021 16.1948 12.0861C16.1154 12.1654 16.0641 12.2681 16.0408 12.3941C16.0128 12.5201 16.0244 12.6391 16.0758 12.7511C16.1318 12.8584 16.2111 12.9541 16.3138 13.0381C16.4164 13.1174 16.5261 13.1804 16.6428 13.2271Z" fill="white"/>
</svg>
