<svg width="24" height="24" viewBox="0 0 24 24" fill="none" xmlns="http://www.w3.org/2000/svg">
<path d="M3.98401 17.0001C4.30601 16.4588 4.64434 15.8918 4.99901 15.2991C5.35367 14.7018 5.69201 14.1348 6.01401 13.5981L8.05801 10.1681C8.40801 9.58007 8.73001 9.03874 9.02401 8.54407C9.32267 8.04474 9.62601 7.53607 9.93401 7.01807H10.606C10.69 7.50807 10.7763 8.00507 10.865 8.50907C10.9537 9.01307 11.0493 9.57074 11.152 10.1821L11.74 13.5981C11.838 14.1581 11.9383 14.7344 12.041 15.3271C12.1437 15.9151 12.2393 16.4728 12.328 17.0001H11.866C11.7633 16.3841 11.6537 15.7424 11.537 15.0751C11.425 14.4078 11.3153 13.7708 11.208 13.1641L10.242 7.52207H10.158L6.79801 13.1501C6.42934 13.7708 6.04901 14.4101 5.65701 15.0681C5.26501 15.7214 4.88001 16.3654 4.50201 17.0001H3.98401ZM6.00001 14.1581L6.08401 13.7381H11.614L11.53 14.1581H6.00001ZM15.6801 19.8141C15.3115 19.8141 14.9638 19.7698 14.6371 19.6811C14.3105 19.5971 14.0281 19.4734 13.7901 19.3101C13.5568 19.1468 13.3865 18.9438 13.2791 18.7011C13.1718 18.4631 13.1508 18.1901 13.2161 17.8821C13.2861 17.5554 13.4261 17.2918 13.6361 17.0911C13.8508 16.8904 14.0818 16.7411 14.3291 16.6431C14.5765 16.5404 14.7888 16.4728 14.9661 16.4401V16.3841C14.8915 16.3514 14.8028 16.2931 14.7001 16.2091C14.5975 16.1204 14.5158 16.0038 14.4551 15.8591C14.3945 15.7098 14.3875 15.5301 14.4341 15.3201C14.4761 15.1428 14.5485 14.9911 14.6511 14.8651C14.7585 14.7391 14.8915 14.6341 15.0501 14.5501C15.2135 14.4661 15.4001 14.4008 15.6101 14.3541V14.2841C15.4981 14.2328 15.3628 14.1464 15.2041 14.0251C15.0455 13.9038 14.8938 13.7451 14.7491 13.5491C14.6091 13.3531 14.5065 13.1198 14.4411 12.8491C14.3805 12.5738 14.3875 12.2588 14.4621 11.9041C14.5555 11.4561 14.7328 11.0874 14.9941 10.7981C15.2555 10.5088 15.5728 10.2941 15.9461 10.1541C16.3241 10.0141 16.7301 9.94407 17.1641 9.94407C17.3741 9.94407 17.5538 9.95574 17.7031 9.97907C17.8525 10.0024 18.0018 10.0258 18.1511 10.0491C18.3051 10.0724 18.4895 10.0841 18.7041 10.0841H21.1961L21.1121 10.4901C20.6455 10.4901 20.1811 10.4901 19.7191 10.4901C19.2571 10.4901 18.7975 10.4901 18.3401 10.4901L18.4521 10.3361C18.8955 10.6208 19.1848 10.9521 19.3201 11.3301C19.4601 11.7081 19.4881 12.1001 19.4041 12.5061C19.3108 12.9354 19.1405 13.2901 18.8931 13.5701C18.6458 13.8454 18.3355 14.0624 17.9621 14.2211C17.5935 14.3751 17.1781 14.4848 16.7161 14.5501C16.1141 14.6341 15.6638 14.7298 15.3651 14.8371C15.0711 14.9398 14.8961 15.1148 14.8401 15.3621C14.8121 15.4974 14.8261 15.6328 14.8821 15.7681C14.9381 15.8988 15.0641 16.0084 15.2601 16.0971C15.4608 16.1858 15.7595 16.2301 16.1561 16.2301H16.6181C17.2575 16.2301 17.7685 16.3048 18.1511 16.4541C18.5338 16.6034 18.7975 16.8064 18.9421 17.0631C19.0868 17.3198 19.1241 17.6114 19.0541 17.9381C18.9888 18.2508 18.8488 18.5238 18.6341 18.7571C18.4195 18.9904 18.1535 19.1841 17.8361 19.3381C17.5235 19.4968 17.1805 19.6158 16.8071 19.6951C16.4385 19.7744 16.0628 19.8141 15.6801 19.8141ZM15.6801 19.3661C16.2915 19.3661 16.8048 19.2914 17.2201 19.1421C17.6401 18.9974 17.9668 18.8108 18.2001 18.5821C18.4335 18.3581 18.5781 18.1248 18.6341 17.8821C18.6855 17.6534 18.6621 17.4458 18.5641 17.2591C18.4708 17.0771 18.2655 16.9324 17.9481 16.8251C17.6308 16.7178 17.1641 16.6641 16.5481 16.6641H16.2541C15.8715 16.6641 15.4911 16.7061 15.1131 16.7901C14.7398 16.8694 14.4178 17.0001 14.1471 17.1821C13.8811 17.3641 13.7155 17.6068 13.6501 17.9101C13.5895 18.1901 13.6128 18.4234 13.7201 18.6101C13.8275 18.7968 13.9861 18.9461 14.1961 19.0581C14.4108 19.1701 14.6488 19.2494 14.9101 19.2961C15.1715 19.3428 15.4281 19.3661 15.6801 19.3661ZM16.3941 14.1861C16.6508 14.1534 16.9121 14.1091 17.1781 14.0531C17.4488 13.9971 17.7055 13.9084 17.9481 13.7871C18.1908 13.6658 18.4031 13.4954 18.5851 13.2761C18.7671 13.0521 18.8955 12.7628 18.9701 12.4081C19.0541 12.0114 19.0168 11.6614 18.8581 11.3581C18.7041 11.0548 18.4708 10.8191 18.1581 10.6511C17.8455 10.4784 17.5001 10.3921 17.1221 10.3921C16.7395 10.3921 16.3918 10.4481 16.0791 10.5601C15.7711 10.6674 15.5121 10.8401 15.3021 11.0781C15.0968 11.3114 14.9568 11.6148 14.8821 11.9881C14.7981 12.3988 14.8215 12.7558 14.9521 13.0591C15.0828 13.3578 15.2788 13.6028 15.5401 13.7941C15.8015 13.9808 16.0861 14.1114 16.3941 14.1861Z" fill="white"/>
</svg>
