<svg width="24" height="24" viewBox="0 0 24 24" fill="none" xmlns="http://www.w3.org/2000/svg">
<path d="M3.62932 17.0001C3.83465 16.4588 4.04932 15.8941 4.27332 15.3061C4.49732 14.7134 4.71199 14.1488 4.91732 13.6121L6.21932 10.1891C6.45265 9.57774 6.66265 9.0224 6.84932 8.52307C7.04065 8.02374 7.23199 7.52207 7.42332 7.01807H8.38232C8.57365 7.52674 8.76265 8.0284 8.94932 8.52307C9.13599 9.01774 9.34599 9.5754 9.57932 10.1961L10.8673 13.6331C11.0727 14.1838 11.285 14.7508 11.5043 15.3341C11.7237 15.9128 11.9313 16.4681 12.1273 17.0001H11.3923C11.1683 16.3888 10.935 15.7588 10.6923 15.1101C10.4497 14.4614 10.2233 13.8478 10.0133 13.2691L7.94832 7.71807H7.85032L5.77832 13.2201C5.54965 13.8221 5.31399 14.4498 5.07132 15.1031C4.82865 15.7518 4.59065 16.3841 4.35732 17.0001H3.62932ZM5.17632 14.2631L5.21132 13.6611H10.5943L10.6223 14.2631H5.17632ZM15.7575 19.8351C15.2488 19.8351 14.8241 19.7861 14.4835 19.6881C14.1475 19.5901 13.8815 19.4594 13.6855 19.2961C13.4895 19.1374 13.3495 18.9601 13.2655 18.7641C13.1815 18.5681 13.1395 18.3721 13.1395 18.1761C13.1395 17.8588 13.2188 17.5904 13.3775 17.3711C13.5361 17.1564 13.7228 16.9861 13.9375 16.8601C14.1521 16.7294 14.3435 16.6408 14.5115 16.5941V16.5171C14.4275 16.4938 14.3271 16.4448 14.2105 16.3701C14.0938 16.2954 13.9911 16.1904 13.9025 16.0551C13.8138 15.9151 13.7695 15.7401 13.7695 15.5301C13.7695 15.3528 13.8045 15.1964 13.8745 15.0611C13.9491 14.9258 14.0541 14.8091 14.1895 14.7111C14.3295 14.6084 14.4951 14.5221 14.6865 14.4521V14.3751C14.5931 14.3424 14.4601 14.2794 14.2875 14.1861C14.1148 14.0881 13.9375 13.9504 13.7555 13.7731C13.5735 13.5958 13.4195 13.3741 13.2935 13.1081C13.1675 12.8421 13.1045 12.5294 13.1045 12.1701C13.1045 11.7081 13.2165 11.3091 13.4405 10.9731C13.6645 10.6371 13.9701 10.3804 14.3575 10.2031C14.7495 10.0211 15.1881 9.93007 15.6735 9.93007C15.8741 9.93007 16.0491 9.94174 16.1985 9.96507C16.3478 9.9884 16.5018 10.0118 16.6605 10.0351C16.8191 10.0584 17.0128 10.0701 17.2415 10.0701H19.5305V10.6161C19.0545 10.6161 18.5855 10.6161 18.1235 10.6161C17.6661 10.6161 17.2065 10.6161 16.7445 10.6161L16.9475 10.2871C17.4188 10.4878 17.7548 10.7584 17.9555 11.0991C18.1608 11.4398 18.2635 11.8131 18.2635 12.2191C18.2635 12.6671 18.1725 13.0451 17.9905 13.3531C17.8131 13.6564 17.5541 13.9038 17.2135 14.0951C16.8775 14.2864 16.4761 14.4381 16.0095 14.5501C15.4588 14.6808 15.0481 14.8068 14.7775 14.9281C14.5115 15.0448 14.3785 15.2244 14.3785 15.4671C14.3785 15.6351 14.4321 15.7658 14.5395 15.8591C14.6468 15.9524 14.8195 16.0201 15.0575 16.0621C15.2955 16.1041 15.6105 16.1251 16.0025 16.1251H16.3175C16.9895 16.1251 17.5261 16.1764 17.9275 16.2791C18.3335 16.3771 18.6275 16.5334 18.8095 16.7481C18.9915 16.9628 19.0825 17.2428 19.0825 17.5881C19.0825 17.9521 18.9821 18.2741 18.7815 18.5541C18.5855 18.8341 18.3218 19.0674 17.9905 19.2541C17.6638 19.4454 17.3068 19.5901 16.9195 19.6881C16.5321 19.7861 16.1448 19.8351 15.7575 19.8351ZM15.7715 19.2331C16.3548 19.2331 16.8448 19.1491 17.2415 18.9811C17.6381 18.8131 17.9368 18.6078 18.1375 18.3651C18.3428 18.1224 18.4455 17.8891 18.4455 17.6651C18.4455 17.4411 18.3871 17.2591 18.2705 17.1191C18.1538 16.9838 17.9368 16.8834 17.6195 16.8181C17.3021 16.7528 16.8448 16.7201 16.2475 16.7201H15.9605C15.5918 16.7201 15.2395 16.7761 14.9035 16.8881C14.5721 17.0001 14.2991 17.1564 14.0845 17.3571C13.8745 17.5624 13.7695 17.8074 13.7695 18.0921C13.7695 18.2414 13.8021 18.3838 13.8675 18.5191C13.9328 18.6591 14.0401 18.7828 14.1895 18.8901C14.3435 18.9974 14.5488 19.0814 14.8055 19.1421C15.0668 19.2028 15.3888 19.2331 15.7715 19.2331ZM15.5685 14.0741C15.7831 14.0274 16.0071 13.9691 16.2405 13.8991C16.4785 13.8291 16.7025 13.7311 16.9125 13.6051C17.1271 13.4791 17.2998 13.3064 17.4305 13.0871C17.5658 12.8631 17.6335 12.5808 17.6335 12.2401C17.6335 11.8341 17.5261 11.5074 17.3115 11.2601C17.1015 11.0081 16.8471 10.8261 16.5485 10.7141C16.2498 10.5974 15.9675 10.5391 15.7015 10.5391C15.3468 10.5391 15.0201 10.5974 14.7215 10.7141C14.4228 10.8308 14.1825 11.0104 14.0005 11.2531C13.8231 11.4958 13.7345 11.8084 13.7345 12.1911C13.7345 12.5831 13.8255 12.9098 14.0075 13.1711C14.1895 13.4324 14.4181 13.6378 14.6935 13.7871C14.9735 13.9364 15.2651 14.0321 15.5685 14.0741Z" fill="white"/>
</svg>
