<svg width="24" height="24" viewBox="0 0 24 24" fill="none" xmlns="http://www.w3.org/2000/svg">
<path d="M11.0577 16C10.983 15.9907 10.8943 15.986 10.7917 15.986C10.689 15.9767 10.5863 15.9627 10.4837 15.944C10.465 15.944 10.4417 15.93 10.4137 15.902C10.395 15.874 10.3857 15.8507 10.3857 15.832C10.3857 15.7853 10.4137 15.7527 10.4697 15.734C10.5257 15.7153 10.5723 15.6827 10.6097 15.636C10.6563 15.58 10.661 15.5193 10.6237 15.454L10.4697 15.062C10.3297 14.7633 10.2037 14.46 10.0917 14.152C9.97968 13.844 9.88635 13.5407 9.81168 13.242C9.78368 13.1393 9.75568 13.0367 9.72768 12.934C9.69968 12.8313 9.67635 12.724 9.65768 12.612C9.57368 12.472 9.46635 12.388 9.33568 12.36C9.23301 12.332 9.12101 12.2993 8.99968 12.262C8.87835 12.2247 8.76168 12.206 8.64968 12.206C8.46301 12.2247 8.27635 12.2293 8.08968 12.22C7.91235 12.2107 7.73035 12.178 7.54368 12.122C7.49701 12.1033 7.43635 12.1173 7.36168 12.164C7.29635 12.2107 7.25435 12.2667 7.23568 12.332C7.21701 12.3693 7.20301 12.416 7.19368 12.472C7.19368 12.528 7.18901 12.5747 7.17968 12.612C7.15168 12.7987 7.11435 12.962 7.06768 13.102C6.92768 13.438 6.82035 13.7833 6.74568 14.138C6.67101 14.4833 6.59635 14.8333 6.52168 15.188C6.50301 15.272 6.51701 15.3467 6.56368 15.412C6.61035 15.4773 6.68501 15.51 6.78768 15.51C6.89035 15.51 6.98835 15.5053 7.08168 15.496C7.17501 15.4867 7.25901 15.4867 7.33368 15.496C7.38035 15.496 7.41768 15.5053 7.44568 15.524C7.48301 15.5427 7.52035 15.5613 7.55768 15.58C7.56701 15.5893 7.56701 15.6267 7.55768 15.692C7.55768 15.7107 7.54368 15.72 7.51568 15.72C7.45968 15.7387 7.39901 15.748 7.33368 15.748C7.26835 15.748 7.20768 15.7527 7.15168 15.762C6.99301 15.7713 6.84368 15.7947 6.70368 15.832C6.56368 15.86 6.43301 15.9253 6.31168 16.028C6.29301 16.056 6.25568 16.07 6.19968 16.07C6.14368 16.0793 6.10635 16.07 6.08768 16.042C5.96635 15.9113 5.82635 15.8367 5.66768 15.818C5.51835 15.7993 5.36901 15.7667 5.21968 15.72C5.20101 15.7013 5.19168 15.6687 5.19168 15.622C5.19168 15.6033 5.20101 15.5847 5.21968 15.566C5.31301 15.5287 5.38301 15.5053 5.42968 15.496C5.50435 15.4867 5.56968 15.4867 5.62568 15.496C5.69101 15.496 5.76101 15.4867 5.83568 15.468C5.87301 15.4587 5.90568 15.4353 5.93368 15.398C5.96168 15.3513 5.98501 15.3187 6.00368 15.3C6.02235 15.2813 6.03168 15.258 6.03168 15.23C6.04101 15.1927 6.05035 15.16 6.05968 15.132C6.14368 14.656 6.25568 14.1847 6.39568 13.718C6.54501 13.242 6.66635 12.7567 6.75968 12.262C6.83435 11.954 6.90435 11.646 6.96968 11.338C7.03501 11.0207 7.10035 10.6987 7.16568 10.372C7.22168 10.12 7.27301 9.86803 7.31968 9.61603C7.37568 9.3547 7.44101 9.0887 7.51568 8.81803C7.56235 8.6687 7.61368 8.51936 7.66968 8.37003C7.73501 8.2207 7.80035 8.0667 7.86568 7.90803C7.93101 7.74936 8.00101 7.59536 8.07568 7.44603C8.15035 7.2967 8.20168 7.1287 8.22968 6.94203C8.24835 6.83936 8.29501 6.7647 8.36968 6.71803C8.44435 6.66203 8.53301 6.63403 8.63568 6.63403C8.69168 6.6527 8.73835 6.67136 8.77568 6.69003C8.82235 6.69936 8.86901 6.72736 8.91568 6.77403C8.95301 6.7927 8.98101 6.8207 8.99968 6.85803C9.01835 6.89536 9.03701 6.92803 9.05568 6.95603C9.10235 7.06803 9.14901 7.18003 9.19568 7.29203C9.24235 7.40403 9.28435 7.51603 9.32168 7.62803C9.54568 8.2907 9.76501 8.95336 9.97968 9.61603C10.2037 10.2693 10.395 10.9367 10.5537 11.618C10.6657 12.0753 10.787 12.528 10.9177 12.976C11.0483 13.424 11.1977 13.872 11.3657 14.32C11.4403 14.516 11.5103 14.7167 11.5757 14.922C11.6503 15.118 11.6877 15.328 11.6877 15.552C11.6877 15.5707 11.697 15.5893 11.7157 15.608C11.7437 15.6267 11.767 15.65 11.7857 15.678L12.4157 15.762C12.4343 15.762 12.453 15.7993 12.4717 15.874C12.4717 15.8833 12.467 15.8927 12.4577 15.902C12.4483 15.9113 12.4437 15.9207 12.4437 15.93C12.4437 15.9393 12.439 15.944 12.4297 15.944C12.327 15.9627 12.229 15.9767 12.1357 15.986C12.0423 15.986 11.9537 16 11.8697 16.028C11.739 16.1027 11.6083 16.14 11.4777 16.14C11.3563 16.1493 11.2163 16.1027 11.0577 16ZM8.69168 11.87C8.78501 11.8513 8.87835 11.842 8.97168 11.842C9.06501 11.8327 9.15835 11.814 9.25168 11.786C9.27035 11.7673 9.28901 11.744 9.30768 11.716C9.33568 11.6787 9.36368 11.646 9.39168 11.618C9.41035 11.5993 9.41501 11.576 9.40568 11.548C9.39635 11.5107 9.38701 11.478 9.37768 11.45C9.33101 11.2633 9.27501 11.0907 9.20968 10.932C9.14435 10.764 9.14435 10.5727 9.20968 10.358C9.22835 10.33 9.20968 10.2787 9.15368 10.204C9.06035 10.0173 8.98568 9.86336 8.92968 9.74203C8.88301 9.6207 8.84568 9.5087 8.81768 9.40603C8.79901 9.30336 8.78501 9.19603 8.77568 9.08403C8.76635 8.9627 8.75701 8.8087 8.74768 8.62203C8.73835 8.49136 8.67301 8.41203 8.55168 8.38403C8.42101 8.36536 8.31835 8.37936 8.24368 8.42603C8.19701 8.49136 8.15968 8.55203 8.13168 8.60803C8.10368 8.66403 8.08035 8.72936 8.06168 8.80403C8.01501 9.08403 7.95435 9.35936 7.87968 9.63003C7.80501 9.89136 7.73501 10.1527 7.66968 10.414C7.62301 10.5073 7.59035 10.5913 7.57168 10.666C7.55301 10.7407 7.53435 10.8107 7.51568 10.876C7.49701 10.9973 7.48768 11.1233 7.48768 11.254C7.48768 11.3847 7.48768 11.506 7.48768 11.618C7.48768 11.6367 7.49701 11.66 7.51568 11.688C7.54368 11.716 7.56701 11.73 7.58568 11.73C7.77235 11.7487 7.95435 11.7813 8.13168 11.828C8.31835 11.8747 8.50501 11.8887 8.69168 11.87ZM15.6077 15.594C15.5517 15.6033 15.4723 15.608 15.3697 15.608C15.2763 15.608 15.1877 15.622 15.1037 15.65C14.9543 15.7247 14.8003 15.762 14.6417 15.762C14.4923 15.762 14.343 15.72 14.1937 15.636C14.1003 15.5893 14.0163 15.5893 13.9417 15.636C13.8763 15.6827 13.8157 15.7387 13.7597 15.804C13.657 15.916 13.615 16.042 13.6337 16.182C13.6617 16.3313 13.713 16.4433 13.7877 16.518C14.105 16.7887 14.4597 16.98 14.8517 17.092C14.9823 17.12 15.1177 17.1433 15.2577 17.162C15.407 17.19 15.561 17.2133 15.7197 17.232C15.9343 17.2787 16.135 17.3393 16.3217 17.414C16.5083 17.4887 16.695 17.596 16.8817 17.736C17.255 17.9693 17.4837 18.2867 17.5677 18.688C17.5677 18.7253 17.5723 18.7627 17.5817 18.8C17.591 18.8467 17.591 18.884 17.5817 18.912C17.507 19.2387 17.409 19.542 17.2877 19.822C17.1663 20.1113 16.9843 20.3727 16.7417 20.606C16.695 20.634 16.653 20.662 16.6157 20.69C16.5877 20.718 16.555 20.732 16.5177 20.732C16.2937 20.7413 16.065 20.76 15.8317 20.788C15.6077 20.8253 15.379 20.8673 15.1457 20.914C15.0803 20.9233 15.0057 20.928 14.9217 20.928C14.847 20.928 14.7723 20.928 14.6977 20.928C14.483 20.9467 14.301 20.9047 14.1517 20.802C14.105 20.7833 14.0537 20.7647 13.9977 20.746C13.951 20.7273 13.9043 20.6993 13.8577 20.662C13.615 20.5687 13.4377 20.4287 13.3257 20.242C13.2137 20.0647 13.1483 19.85 13.1297 19.598C13.1297 19.5047 13.1297 19.4113 13.1297 19.318C13.1297 19.234 13.1343 19.15 13.1437 19.066C13.181 18.758 13.3117 18.4873 13.5357 18.254C13.5637 18.2167 13.5963 18.1793 13.6337 18.142C13.6803 18.1047 13.727 18.072 13.7737 18.044C13.9043 17.9227 13.9697 17.8247 13.9697 17.75C13.979 17.6847 13.9137 17.582 13.7737 17.442C13.0923 16.8727 12.957 16.1867 13.3677 15.384C13.4143 15.2907 13.4283 15.216 13.4097 15.16C13.4003 15.0947 13.3723 15.0247 13.3257 14.95C13.2697 14.8753 13.2137 14.796 13.1577 14.712C13.1017 14.628 13.0503 14.544 13.0037 14.46C12.9477 14.3853 12.9057 14.2967 12.8777 14.194C12.8497 14.0913 12.8263 13.9887 12.8077 13.886C12.7797 13.6713 12.761 13.4613 12.7517 13.256C12.7517 13.0413 12.775 12.8267 12.8217 12.612C12.859 12.4533 12.887 12.304 12.9057 12.164C12.9243 12.0147 12.957 11.87 13.0037 11.73C13.0597 11.45 13.1623 11.1933 13.3117 10.96C13.4703 10.7267 13.657 10.5167 13.8717 10.33C14.0117 10.218 14.1563 10.1247 14.3057 10.05C14.4643 9.97536 14.637 9.93803 14.8237 9.93803C14.889 9.93803 14.9543 9.93803 15.0197 9.93803C15.085 9.9287 15.155 9.9287 15.2297 9.93803C15.491 9.99403 15.7523 10.0453 16.0137 10.092C16.2843 10.1293 16.5457 10.1993 16.7977 10.302C16.9377 10.3673 17.0777 10.414 17.2177 10.442C17.3577 10.4607 17.5023 10.4 17.6517 10.26C17.6983 10.1947 17.7637 10.1573 17.8477 10.148C17.9317 10.1387 18.011 10.1387 18.0857 10.148C18.1603 10.1573 18.221 10.1713 18.2677 10.19C18.3143 10.2087 18.361 10.232 18.4077 10.26C18.4917 10.3253 18.5663 10.4093 18.6317 10.512C18.7063 10.6147 18.753 10.7313 18.7717 10.862C18.8277 10.9647 18.809 11.0533 18.7157 11.128C18.6877 11.1747 18.6503 11.2167 18.6037 11.254C18.5663 11.282 18.529 11.3147 18.4917 11.352C18.277 11.52 18.1137 11.5013 18.0017 11.296C17.955 11.24 17.9083 11.1793 17.8617 11.114C17.8243 11.0393 17.7823 10.9787 17.7357 10.932C17.7263 10.9133 17.703 10.904 17.6657 10.904C17.6563 10.9227 17.647 10.9367 17.6377 10.946C17.6283 10.9553 17.6237 10.9647 17.6237 10.974C17.6237 11.0393 17.6283 11.1047 17.6377 11.17C17.647 11.226 17.6563 11.2867 17.6657 11.352C17.7123 11.4733 17.7403 11.5807 17.7497 11.674C17.8803 12.15 17.9037 12.6073 17.8197 13.046C17.7357 13.4753 17.6003 13.9093 17.4137 14.348C17.3577 14.4787 17.2783 14.5953 17.1757 14.698C17.073 14.8007 16.9843 14.9173 16.9097 15.048C16.8537 15.1413 16.7837 15.2207 16.6997 15.286C16.6157 15.3513 16.527 15.4073 16.4337 15.454C16.3123 15.538 16.1863 15.5847 16.0557 15.594C15.925 15.6033 15.7757 15.6033 15.6077 15.594ZM16.6857 12.178C16.7323 12.01 16.751 11.8467 16.7417 11.688C16.7323 11.52 16.709 11.3567 16.6717 11.198C16.653 11.1513 16.6343 11.1047 16.6157 11.058C16.597 11.002 16.569 10.96 16.5317 10.932C16.3823 10.6893 16.1583 10.5447 15.8597 10.498C15.7103 10.4607 15.5563 10.4373 15.3977 10.428C15.2483 10.4093 15.085 10.4187 14.9077 10.456C14.7957 10.4933 14.6883 10.5447 14.5857 10.61C14.4923 10.6753 14.4177 10.7687 14.3617 10.89C14.231 11.1327 14.1377 11.408 14.0817 11.716C14.0537 11.856 14.0257 12.0007 13.9977 12.15C13.9697 12.29 13.9323 12.4347 13.8857 12.584C13.783 12.92 13.7503 13.256 13.7877 13.592C13.825 13.9187 13.8857 14.2453 13.9697 14.572C14.0257 14.824 14.1563 15.006 14.3617 15.118C14.567 15.23 14.805 15.258 15.0757 15.202C15.1597 15.1927 15.239 15.1787 15.3137 15.16C15.3883 15.132 15.4677 15.1273 15.5517 15.146C15.7103 15.146 15.8363 15.1087 15.9297 15.034C16.023 14.95 16.1117 14.8427 16.1957 14.712C16.2797 14.5533 16.3543 14.39 16.4197 14.222C16.4943 14.054 16.5457 13.8767 16.5737 13.69C16.6017 13.4193 16.639 13.1627 16.6857 12.92C16.7417 12.668 16.7417 12.4207 16.6857 12.178ZM16.0137 20.284C16.5083 20.2 16.8163 19.934 16.9377 19.486C16.947 19.4673 16.9517 19.4533 16.9517 19.444C16.9517 19.4347 16.9563 19.4253 16.9657 19.416C17.0217 19.164 17.0123 18.9727 16.9377 18.842C16.8723 18.7113 16.737 18.5993 16.5317 18.506C16.4663 18.4687 16.3917 18.4407 16.3077 18.422C16.1397 18.3567 15.9717 18.3007 15.8037 18.254C15.6357 18.2073 15.4677 18.156 15.2997 18.1C15.085 18.0347 14.889 18.0767 14.7117 18.226C14.6463 18.2727 14.5857 18.3287 14.5297 18.394C14.4737 18.4593 14.4083 18.5153 14.3337 18.562C14.147 18.6927 14.0117 18.8513 13.9277 19.038C13.853 19.234 13.797 19.4347 13.7597 19.64C13.713 19.9293 13.839 20.1487 14.1377 20.298C14.259 20.3447 14.385 20.3773 14.5157 20.396C14.6557 20.424 14.833 20.438 15.0477 20.438L16.0137 20.284Z" fill="white"/>
</svg>
