<svg width="24" height="24" viewBox="0 0 24 24" fill="none" xmlns="http://www.w3.org/2000/svg">
<path d="M11.9659 16.384C11.9659 16.44 11.9612 16.496 11.9519 16.552C11.9519 16.5986 11.9472 16.65 11.9379 16.7059C11.9099 16.874 11.8119 16.9627 11.6439 16.972C11.5692 16.9907 11.5179 16.9767 11.4899 16.93C11.4619 16.874 11.4385 16.8087 11.4199 16.7339C11.3732 16.5847 11.3172 16.4399 11.2519 16.2999C11.1959 16.1599 11.1539 16.02 11.1259 15.88C11.0792 15.6653 11.0465 15.446 11.0279 15.222C11.0092 14.9887 10.9905 14.7553 10.9719 14.522C10.9252 14.2047 10.8832 13.8686 10.8459 13.5139C10.8179 13.3366 10.7572 13.2152 10.6639 13.1499C10.5705 13.0752 10.4399 13.0426 10.2719 13.0519C10.1972 13.0613 10.1319 13.0752 10.0759 13.0939C10.0199 13.1033 9.95921 13.1079 9.89388 13.1079C9.75388 13.1079 9.64188 13.1126 9.55788 13.1219C9.48321 13.1312 9.42254 13.1547 9.37588 13.192C9.33854 13.2293 9.31054 13.2899 9.29188 13.3739C9.27321 13.4486 9.25921 13.556 9.24988 13.696C9.22188 13.9479 9.19854 14.1999 9.17988 14.4519C9.17054 14.6946 9.15654 14.942 9.13788 15.194C9.11921 15.4087 9.10521 15.6187 9.09587 15.824C9.08654 16.02 9.07254 16.2207 9.05388 16.426C9.04454 16.4727 9.03521 16.5287 9.02588 16.594C9.01654 16.65 8.99788 16.6919 8.96988 16.7199C8.92321 16.7666 8.86254 16.8133 8.78788 16.86C8.72254 16.9067 8.66188 16.93 8.60588 16.93C8.55921 16.93 8.51254 16.8973 8.46588 16.832C8.41921 16.7573 8.37721 16.6919 8.33988 16.636C8.32121 16.5986 8.31188 16.5567 8.31188 16.51C8.32121 16.4633 8.32588 16.4167 8.32588 16.37C8.36321 16.0807 8.39588 15.7959 8.42388 15.516C8.45188 15.2267 8.46588 14.9326 8.46588 14.6339C8.47521 14.3632 8.50321 14.0973 8.54988 13.836C8.59654 13.5653 8.62921 13.2947 8.64788 13.024C8.69454 12.6972 8.73188 12.3752 8.75988 12.0579C8.79721 11.7312 8.83921 11.4093 8.88588 11.092C8.89521 11.0173 8.89988 10.952 8.89988 10.896C8.90921 10.8307 8.92321 10.7652 8.94188 10.6999C9.04454 10.4012 9.11921 10.098 9.16588 9.78995C9.21254 9.47262 9.24521 9.15528 9.26388 8.83795C9.27321 8.67928 9.31054 8.52062 9.37588 8.36195C9.44121 8.20328 9.50188 8.04462 9.55788 7.88595C9.58588 7.80195 9.61854 7.72728 9.65588 7.66195C9.70254 7.58728 9.74454 7.51728 9.78188 7.45195C9.86588 7.29328 9.98254 7.19528 10.1319 7.15795C10.2812 7.12062 10.4212 7.16262 10.5519 7.28395C10.6079 7.33062 10.6452 7.39595 10.6639 7.47995C10.7105 7.77862 10.7525 8.07728 10.7899 8.37595C10.8272 8.66528 10.8692 8.95462 10.9159 9.24395C10.9345 9.40262 10.9625 9.56128 10.9999 9.71995C11.0465 9.87862 11.0839 10.0373 11.1119 10.196C11.1585 10.4667 11.2005 10.7467 11.2379 11.036C11.2845 11.3253 11.3312 11.6147 11.3779 11.904C11.4245 12.2867 11.4712 12.66 11.5179 13.024C11.5645 13.3879 11.6112 13.7659 11.6579 14.1579L11.9939 16.384H11.9659ZM10.2719 10.0559C10.2812 10.0466 10.2999 10.0419 10.3279 10.0419C10.2999 9.82728 10.2765 9.61262 10.2579 9.39795C10.2392 9.18328 10.2159 8.97328 10.1879 8.76795C10.1785 8.73995 10.1599 8.71195 10.1319 8.68395C10.1039 8.65595 10.0805 8.62328 10.0619 8.58595C10.0432 8.63262 10.0245 8.69328 10.0059 8.76795C9.99654 8.81462 9.99188 8.86128 9.99188 8.90795C10.0012 8.95462 9.99654 9.00128 9.97788 9.04795C9.84721 9.50528 9.75388 9.96262 9.69788 10.42C9.65121 10.8773 9.59521 11.3299 9.52988 11.7779C9.48321 12.0299 9.50654 12.1979 9.59988 12.2819C9.69321 12.3659 9.86588 12.38 10.1179 12.324C10.1739 12.3053 10.2299 12.2912 10.2859 12.2819C10.3419 12.2632 10.3932 12.2352 10.4399 12.1979C10.4772 12.1792 10.5099 12.1513 10.5379 12.114C10.5659 12.0767 10.5752 12.0346 10.5659 11.9879C10.5659 11.8572 10.5565 11.7359 10.5379 11.6239C10.5285 11.5026 10.5145 11.3767 10.4959 11.246C10.4585 11.0407 10.4212 10.84 10.3839 10.644C10.3465 10.4387 10.3092 10.2427 10.2719 10.0559ZM15.5527 11.064C15.5341 11.316 15.5154 11.5586 15.4967 11.7919C15.4781 12.0159 15.4641 12.2352 15.4547 12.4499C15.4361 12.9632 15.4174 13.4766 15.3987 13.9899C15.3894 14.5032 15.3754 15.0167 15.3567 15.53L15.2727 17.42C15.2634 17.5227 15.2634 17.6207 15.2727 17.714C15.2821 17.8073 15.2821 17.9052 15.2727 18.0079C15.2634 18.2879 15.2214 18.5912 15.1467 18.9179C15.0814 19.2446 14.9694 19.5386 14.8107 19.7999C14.6521 20.0707 14.4467 20.2853 14.1947 20.444C13.9521 20.6027 13.6534 20.6539 13.2987 20.5979C13.1027 20.5793 12.9161 20.4767 12.7387 20.29C12.5707 20.1033 12.4447 19.9073 12.3607 19.702C12.2861 19.5059 12.2721 19.338 12.3187 19.198C12.3654 19.0673 12.5101 19.0393 12.7527 19.114C12.8461 19.142 12.9254 19.1887 12.9907 19.254C13.0654 19.3287 13.1401 19.3987 13.2147 19.464C13.2894 19.5387 13.3687 19.5993 13.4527 19.646C13.5367 19.6926 13.6347 19.7066 13.7467 19.688C13.9054 19.66 14.0314 19.5573 14.1247 19.3799C14.2274 19.2026 14.3021 19.044 14.3487 18.9039C14.3954 18.7359 14.4234 18.5633 14.4327 18.386C14.4421 18.2086 14.4421 18.0267 14.4327 17.84C14.4327 17.6627 14.4281 17.4807 14.4187 17.294C14.4187 17.1167 14.4281 16.9392 14.4467 16.7619C14.3161 16.8179 14.1994 16.874 14.0967 16.93C14.0034 16.9767 13.9007 17.014 13.7887 17.042C13.6861 17.0793 13.5741 17.0933 13.4527 17.084C13.3407 17.084 13.2101 17.0467 13.0607 16.972C12.7714 16.832 12.5801 16.6172 12.4867 16.3279C12.3934 16.0292 12.3467 15.7073 12.3467 15.362C12.3467 15.0073 12.3701 14.6527 12.4167 14.298C12.4634 13.9433 12.4821 13.6399 12.4727 13.3879C12.4634 13.0332 12.4681 12.6833 12.4867 12.338C12.5054 11.9927 12.5521 11.6473 12.6267 11.3019C12.7481 10.7139 13.0934 10.294 13.6627 10.0419C13.8307 9.96728 14.0034 9.91595 14.1807 9.88795C14.3581 9.86928 14.5121 9.89262 14.6427 9.95795C14.7174 10.0047 14.7827 10.0373 14.8387 10.0559C14.9041 10.0652 14.9787 10.0606 15.0627 10.0419C15.1841 10.0139 15.2681 10.042 15.3147 10.126C15.3707 10.21 15.4127 10.294 15.4407 10.378C15.4781 10.49 15.5014 10.6112 15.5107 10.7419C15.5201 10.8632 15.5341 10.9707 15.5527 11.064ZM13.2007 15.684C13.2007 15.796 13.2101 15.8987 13.2287 15.992C13.2567 16.0852 13.3221 16.1553 13.4247 16.202C13.5274 16.2579 13.6254 16.2952 13.7187 16.3139C13.8214 16.3232 13.9194 16.2907 14.0127 16.216C14.1714 16.1132 14.3067 15.992 14.4187 15.852C14.5401 15.712 14.5914 15.544 14.5727 15.3479C14.5541 15.1332 14.5541 14.928 14.5727 14.732C14.6007 14.5267 14.6241 14.3212 14.6427 14.116C14.6707 13.7706 14.6941 13.4299 14.7127 13.0939C14.7407 12.7579 14.7641 12.422 14.7827 12.086C14.7827 11.946 14.7734 11.8013 14.7547 11.652C14.7361 11.5027 14.7174 11.3533 14.6987 11.204C14.6894 11.1573 14.6707 11.1153 14.6427 11.078C14.6147 11.0407 14.5821 11.0032 14.5447 10.9659C14.1341 10.6579 13.7981 10.7139 13.5367 11.1339C13.4061 11.3207 13.3221 11.5259 13.2847 11.7499C13.2567 11.9739 13.2334 12.1932 13.2147 12.4079C13.1961 12.6786 13.1867 12.9493 13.1867 13.22C13.1961 13.4813 13.2007 13.7472 13.2007 14.0179V15.684Z" fill="white"/>
</svg>
