<svg width="24" height="24" viewBox="0 0 24 24" fill="none" xmlns="http://www.w3.org/2000/svg">
<path d="M13.3691 15.8321C13.4157 15.8321 13.4391 15.8601 13.4391 15.9161C13.4391 15.9721 13.4157 16.0001 13.3691 16.0001C13.1824 16.0001 12.8931 15.9908 12.5011 15.9721C12.0904 15.9534 11.7964 15.9441 11.6191 15.9441C11.3857 15.9441 11.1011 15.9534 10.7651 15.9721C10.4477 15.9908 10.1957 16.0001 10.0091 16.0001C9.97172 16.0001 9.95305 15.9721 9.95305 15.9161C9.95305 15.8601 9.97172 15.8321 10.0091 15.8321C10.2517 15.8321 10.4244 15.8088 10.5271 15.7621C10.6391 15.7061 10.6951 15.6128 10.6951 15.4821C10.6951 15.3234 10.6017 15.0574 10.4151 14.6841L9.46306 12.7941H6.01905L5.47305 14.0121C5.35172 14.2828 5.29105 14.5348 5.29105 14.7681C5.29105 15.1041 5.40772 15.3654 5.64105 15.5521C5.88372 15.7388 6.20572 15.8321 6.60705 15.8321C6.65372 15.8321 6.67705 15.8601 6.67705 15.9161C6.67705 15.9721 6.65372 16.0001 6.60705 16.0001C6.43905 16.0001 6.19639 15.9908 5.87905 15.9721C5.52439 15.9534 5.21639 15.9441 4.95505 15.9441C4.70305 15.9441 4.39972 15.9534 4.04505 15.9721C3.72772 15.9908 3.47105 16.0001 3.27505 16.0001C3.23772 16.0001 3.21905 15.9721 3.21905 15.9161C3.21905 15.8601 3.23772 15.8321 3.27505 15.8321C3.53639 15.8321 3.75572 15.7808 3.93305 15.6781C4.11039 15.5661 4.28772 15.3748 4.46505 15.1041C4.64239 14.8241 4.85239 14.4134 5.09505 13.8721L8.13306 7.1941C8.15172 7.1661 8.19372 7.1521 8.25906 7.1521C8.33372 7.1521 8.37572 7.1661 8.38506 7.1941L11.8851 14.0821C12.2117 14.7448 12.4824 15.2021 12.6971 15.4541C12.9117 15.7061 13.1357 15.8321 13.3691 15.8321ZM6.20105 12.4021H9.25305L7.64306 9.2101L6.20105 12.4021ZM16.8525 15.4261C17.4032 15.4354 17.8512 15.4681 18.1965 15.5241C18.5512 15.5801 18.8452 15.7201 19.0785 15.9441C19.3212 16.1588 19.4425 16.4901 19.4425 16.9381C19.4425 17.4608 19.2792 17.9508 18.9525 18.4081C18.6352 18.8748 18.2012 19.2481 17.6505 19.5281C17.1092 19.8081 16.5259 19.9481 15.9005 19.9481C15.2565 19.9481 14.7292 19.7988 14.3185 19.5001C13.9079 19.2108 13.7025 18.8281 13.7025 18.3521C13.7025 17.6988 14.1739 17.0641 15.1165 16.4481C14.4445 16.3174 14.1085 15.9814 14.1085 15.4401C14.1085 14.8614 14.4352 14.3528 15.0885 13.9141C14.7339 13.7461 14.4539 13.5128 14.2485 13.2141C14.0525 12.9061 13.9545 12.5841 13.9545 12.2481C13.9545 11.8748 14.0759 11.5574 14.3185 11.2961C14.5612 11.0348 14.8692 10.8388 15.2425 10.7081C15.6252 10.5681 16.0125 10.4981 16.4045 10.4981C16.9925 10.4981 17.4965 10.6474 17.9165 10.9461C18.4019 10.6194 18.9059 10.4561 19.4285 10.4561C19.5032 10.4561 19.5405 10.5868 19.5405 10.8481C19.5405 10.9881 19.5219 11.1374 19.4845 11.2961C19.4472 11.4454 19.4099 11.5061 19.3725 11.4781C18.9899 11.3194 18.6445 11.2401 18.3365 11.2401H18.2245C18.4765 11.5388 18.6025 11.8748 18.6025 12.2481C18.6025 12.6214 18.4812 12.9528 18.2385 13.2421C17.9959 13.5314 17.6832 13.7554 17.3005 13.9141C16.9272 14.0634 16.5399 14.1381 16.1385 14.1381C15.8492 14.1381 15.5832 14.0961 15.3405 14.0121C15.1912 14.1708 15.1165 14.3714 15.1165 14.6141C15.1165 14.8661 15.1819 15.0481 15.3125 15.1601C15.4525 15.2721 15.6345 15.3421 15.8585 15.3701C16.0825 15.3981 16.4139 15.4168 16.8525 15.4261ZM15.9425 10.7641C15.5225 10.7641 15.3125 11.1188 15.3125 11.8281C15.3125 12.2201 15.3685 12.5748 15.4805 12.8921C15.5925 13.2001 15.7372 13.4428 15.9145 13.6201C16.1012 13.7974 16.2972 13.8861 16.5025 13.8861C16.7079 13.8861 16.8805 13.7834 17.0205 13.5781C17.1605 13.3728 17.2305 13.0601 17.2305 12.6401C17.2305 12.2388 17.1652 11.8981 17.0345 11.6181C16.9039 11.3288 16.7359 11.1141 16.5305 10.9741C16.3345 10.8341 16.1385 10.7641 15.9425 10.7641ZM16.7405 19.5001C17.2165 19.5001 17.5945 19.3508 17.8745 19.0521C18.1545 18.7534 18.2945 18.3474 18.2945 17.8341C18.2945 17.4328 18.2059 17.1388 18.0285 16.9521C17.8605 16.7748 17.6365 16.6628 17.3565 16.6161C17.0859 16.5788 16.6892 16.5554 16.1665 16.5461C16.0825 16.5461 15.9659 16.5414 15.8165 16.5321C15.6672 16.5228 15.5412 16.5134 15.4385 16.5041C15.1212 16.7374 14.9625 17.1108 14.9625 17.6241C14.9625 18.2214 15.1352 18.6834 15.4805 19.0101C15.8352 19.3368 16.2552 19.5001 16.7405 19.5001Z" fill="white"/>
</svg>
