<svg width="24" height="24" viewBox="0 0 24 24" fill="none" xmlns="http://www.w3.org/2000/svg">
<path d="M13.16 15.832C13.1974 15.832 13.216 15.86 13.216 15.916C13.216 15.972 13.1974 16 13.16 16C12.9827 16 12.698 15.9907 12.306 15.972C11.9327 15.9533 11.6574 15.944 11.48 15.944C11.2654 15.944 10.9994 15.9533 10.682 15.972C10.3647 15.9907 10.1267 16 9.96805 16C9.93072 16 9.91205 15.972 9.91205 15.916C9.91205 15.86 9.93072 15.832 9.96805 15.832C10.2854 15.832 10.514 15.804 10.654 15.748C10.794 15.6827 10.864 15.5707 10.864 15.412C10.864 15.2533 10.794 15.034 10.654 14.754L9.08605 11.506H6.51005L5.36205 14.152C5.23138 14.46 5.16605 14.7167 5.16605 14.922C5.16605 15.5287 5.61872 15.832 6.52405 15.832C6.57072 15.832 6.59405 15.86 6.59405 15.916C6.59405 15.972 6.57072 16 6.52405 16C6.35605 16 6.11338 15.9907 5.79605 15.972C5.44138 15.9533 5.13338 15.944 4.87205 15.944C4.62938 15.944 4.34005 15.9533 4.00405 15.972C3.70538 15.9907 3.46272 16 3.27605 16C3.23872 16 3.22005 15.972 3.22005 15.916C3.22005 15.86 3.23872 15.832 3.27605 15.832C3.53738 15.832 3.75672 15.7807 3.93405 15.678C4.12072 15.5753 4.29805 15.398 4.46605 15.146C4.63405 14.894 4.82538 14.5207 5.04005 14.026L8.02205 7.15198C8.03138 7.12398 8.06405 7.10998 8.12005 7.10998C8.17605 7.10065 8.20872 7.11465 8.21805 7.15198L11.592 14.082C11.9094 14.7633 12.18 15.2253 12.404 15.468C12.628 15.7107 12.88 15.832 13.16 15.832ZM6.63605 11.184H8.93205L7.72805 8.66398L6.63605 11.184ZM18.6348 10.456C18.6441 10.4467 18.6581 10.442 18.6768 10.442C18.6955 10.442 18.7141 10.4513 18.7328 10.47C18.7608 10.4793 18.7748 10.4887 18.7748 10.498V16.98C18.7748 17.8667 18.5228 18.5807 18.0188 19.122C17.5148 19.6633 16.8148 19.934 15.9188 19.934C15.3401 19.934 14.8688 19.836 14.5048 19.64C14.1408 19.4533 13.9588 19.2013 13.9588 18.884C13.9588 18.6973 14.0101 18.5573 14.1128 18.464C14.2155 18.38 14.3368 18.338 14.4768 18.338C14.6448 18.338 14.7801 18.38 14.8828 18.464C14.9855 18.5573 15.0928 18.6973 15.2048 18.884C15.3728 19.136 15.5408 19.3227 15.7088 19.444C15.8768 19.5747 16.1288 19.64 16.4648 19.64C16.8848 19.64 17.2161 19.472 17.4588 19.136C17.7015 18.8093 17.8228 18.2027 17.8228 17.316V15.062C17.4961 15.398 17.1601 15.664 16.8148 15.86C16.4788 16.056 16.1101 16.154 15.7088 16.154C15.1301 16.154 14.6448 15.944 14.2528 15.524C13.8608 15.0947 13.6648 14.4973 13.6648 13.732C13.6648 13.06 13.8188 12.472 14.1268 11.968C14.4441 11.464 14.8455 11.0813 15.3308 10.82C15.8255 10.5493 16.3295 10.414 16.8428 10.414C17.3375 10.414 17.7901 10.5493 18.2008 10.82C18.3875 10.7267 18.5321 10.6053 18.6348 10.456ZM16.2548 15.594C16.7495 15.594 17.2721 15.3373 17.8228 14.824V11.912C17.8228 11.5667 17.6921 11.2773 17.4308 11.044C17.1695 10.8107 16.8568 10.694 16.4928 10.694C15.9701 10.694 15.5501 10.9367 15.2328 11.422C14.9155 11.9073 14.7568 12.5327 14.7568 13.298C14.7568 13.998 14.8875 14.558 15.1488 14.978C15.4195 15.3887 15.7881 15.594 16.2548 15.594Z" fill="white"/>
</svg>
