<svg width="24" height="24" viewBox="0 0 24 24" fill="none" xmlns="http://www.w3.org/2000/svg">
<path d="M10.4834 13.7441H7.0791L6.55273 14.5986H6.89453C7.20898 14.5986 7.4209 14.6465 7.53027 14.7422C7.63965 14.8379 7.69434 14.9746 7.69434 15.1523C7.69434 15.4349 7.5599 15.6696 7.29102 15.8564C7.14974 15.9521 6.9196 16 6.60059 16H4.70703C4.39714 16 4.1875 15.9521 4.07812 15.8564C3.96419 15.7562 3.90723 15.6195 3.90723 15.4463C3.90723 15.2093 4.00065 15.0065 4.1875 14.8379C4.37891 14.6693 4.66374 14.5895 5.04199 14.5986L8.41211 9.11621H7.48926C7.17936 9.11621 6.96745 9.06836 6.85352 8.97266C6.74414 8.8724 6.68945 8.7334 6.68945 8.55566C6.68945 8.27767 6.82161 8.04525 7.08594 7.8584C7.23177 7.75814 7.46647 7.70801 7.79004 7.70801H10.8184L12.1445 14.5986C12.4635 14.5895 12.6823 14.6351 12.8008 14.7354C12.9193 14.8356 12.9785 14.9746 12.9785 15.1523C12.9785 15.4349 12.8418 15.6696 12.5684 15.8564C12.4316 15.9521 12.2015 16 11.8779 16H9.99121C9.68132 16 9.4694 15.9521 9.35547 15.8564C9.24609 15.7562 9.19141 15.6195 9.19141 15.4463C9.19141 15.1683 9.32357 14.9359 9.58789 14.749C9.73372 14.6488 9.96842 14.5986 10.292 14.5986H10.6338L10.4834 13.7441ZM10.1963 12.3428L9.65625 9.56738L7.93359 12.3428H10.1963ZM19.3086 10.0664L19.5615 9.79297H21.2021C21.5166 9.79297 21.7285 9.8431 21.8379 9.94336C21.9518 10.0391 22.0088 10.1758 22.0088 10.3535C22.0088 10.6224 21.8789 10.8503 21.6191 11.0371C21.4733 11.1419 21.2363 11.1943 20.9082 11.1943H20.6689L19.582 16.2939C19.4772 16.777 19.2835 17.2008 19.001 17.5654C18.723 17.9346 18.3379 18.2536 17.8457 18.5225C17.3535 18.7913 16.8408 18.9258 16.3076 18.9258H14.7217C14.4118 18.9258 14.1999 18.8779 14.0859 18.7822C13.9766 18.6865 13.9219 18.5498 13.9219 18.3721C13.9219 18.0895 14.0563 17.8548 14.3252 17.668C14.4665 17.5723 14.6966 17.5244 15.0156 17.5244H16.5605C16.9889 17.5244 17.3467 17.4082 17.6338 17.1758C17.9209 16.9479 18.1032 16.654 18.1807 16.2939L18.3242 15.6104C17.9733 15.8109 17.6247 15.9613 17.2783 16.0615C16.9365 16.1618 16.597 16.2119 16.2598 16.2119C15.4395 16.2119 14.7786 15.9704 14.2773 15.4873C13.7806 14.9997 13.5322 14.3867 13.5322 13.6484C13.5322 12.9876 13.7122 12.3382 14.0723 11.7002C14.4368 11.0622 14.9495 10.5518 15.6104 10.1689C16.2757 9.78158 16.9661 9.58789 17.6816 9.58789C17.9779 9.58789 18.2445 9.62435 18.4814 9.69727C18.723 9.76562 18.9987 9.88867 19.3086 10.0664ZM16.5332 14.8037C17.1621 14.8037 17.7204 14.569 18.208 14.0996C18.6956 13.6257 18.9395 13.0924 18.9395 12.5C18.9395 12.0762 18.7913 11.7184 18.4951 11.4268C18.1989 11.1351 17.8275 10.9893 17.3809 10.9893C16.752 10.9893 16.1937 11.2285 15.7061 11.707C15.2184 12.181 14.9746 12.7051 14.9746 13.2793C14.9746 13.7168 15.1204 14.0814 15.4121 14.373C15.7083 14.6602 16.082 14.8037 16.5332 14.8037Z" fill="white"/>
</svg>
