<svg width="24" height="24" viewBox="0 0 24 24" fill="none" xmlns="http://www.w3.org/2000/svg">
<path d="M3.69336 17L3.78906 16.4395L4.52734 16.248L8.79297 9.24804L9.79102 8.72852L11.2129 16.248L11.8691 16.4395L11.7051 17H8.76562L8.84766 16.4395L9.73633 16.248L9.38086 14.2793L9.3125 13.8418L8.64258 10.2598L8.9707 10.1504L6.85156 13.8418L6.60547 14.252L5.4707 16.248L6.27734 16.4395L6.12695 17H3.69336ZM6.23633 14.5254L6.38672 13.7461C6.5599 13.7552 6.78776 13.7643 7.07031 13.7734C7.35286 13.7826 7.70378 13.7871 8.12305 13.7871C8.52409 13.7871 8.87044 13.7826 9.16211 13.7734C9.45378 13.7643 9.68164 13.7552 9.8457 13.7461L9.68164 14.5117C9.4082 14.5117 9.12565 14.5072 8.83398 14.498C8.55143 14.4889 8.26432 14.4844 7.97266 14.4844C7.67188 14.4844 7.38021 14.4889 7.09766 14.498C6.82422 14.5072 6.53711 14.5163 6.23633 14.5254ZM14.4258 20.1172C13.8607 20.1172 13.3822 20.0488 12.9902 19.9121C12.5983 19.7845 12.3021 19.6068 12.1016 19.3789C11.8919 19.151 11.7871 18.9049 11.7871 18.6406C11.7871 18.3034 11.9421 17.9889 12.252 17.6973C12.5527 17.4147 13.0039 17.1823 13.6055 17L14.1797 17.1367C13.806 17.3099 13.5189 17.5059 13.3184 17.7246C13.1178 17.9525 13.0176 18.2077 13.0176 18.4902C13.0176 18.7819 13.1452 19.0234 13.4004 19.2148C13.6647 19.4154 14.0703 19.5156 14.6172 19.5156C14.9818 19.5156 15.3053 19.4564 15.5879 19.3379C15.8704 19.2285 16.0938 19.0736 16.2578 18.873C16.4219 18.6816 16.5039 18.472 16.5039 18.2441C16.5039 18.0254 16.4219 17.8613 16.2578 17.752C16.1029 17.6426 15.8021 17.5469 15.3555 17.4648L13.8379 17.1504L13.7012 17.0957C13.373 17.0319 13.1178 16.9271 12.9355 16.7812C12.7624 16.6354 12.6758 16.4531 12.6758 16.2344C12.6758 15.9701 12.8216 15.7194 13.1133 15.4824C13.4049 15.2454 13.8424 15.0586 14.4258 14.9219L14.6445 15.2363C14.4258 15.2819 14.2526 15.3594 14.125 15.4688C13.9974 15.569 13.9336 15.6738 13.9336 15.7832C13.9336 15.8652 13.9701 15.9336 14.043 15.9883C14.1159 16.0339 14.2435 16.0794 14.4258 16.125L16.0117 16.5078C16.6042 16.6445 17.0234 16.8132 17.2695 17.0137C17.5156 17.2142 17.6387 17.4967 17.6387 17.8613C17.6387 18.2624 17.4883 18.6315 17.1875 18.9688C16.8958 19.3151 16.5085 19.5931 16.0254 19.8027C15.5423 20.0124 15.0091 20.1172 14.4258 20.1172ZM15.1641 15.3184C14.5534 15.3184 14.0658 15.168 13.7012 14.8672C13.3366 14.5573 13.1543 14.1471 13.1543 13.6367C13.1543 13.1445 13.2819 12.6979 13.5371 12.2969C13.7923 11.8958 14.1296 11.5768 14.5488 11.3398C14.9772 11.0938 15.4466 10.9707 15.957 10.9707C16.349 10.9707 16.6908 11.0482 16.9824 11.2031C17.2741 11.349 17.4974 11.554 17.6523 11.8184C17.8164 12.0736 17.8984 12.3698 17.8984 12.707C17.8984 13.181 17.7708 13.6185 17.5156 14.0195C17.2695 14.4115 16.9368 14.7259 16.5176 14.9629C16.1074 15.1999 15.6562 15.3184 15.1641 15.3184ZM15.3281 14.7031C15.5651 14.7031 15.7793 14.6165 15.9707 14.4434C16.1712 14.2611 16.3307 14.0195 16.4492 13.7188C16.5677 13.4089 16.627 13.0671 16.627 12.6934C16.627 12.3379 16.554 12.0645 16.4082 11.873C16.2715 11.6725 16.0892 11.5723 15.8613 11.5723C15.6152 11.5723 15.3874 11.6634 15.1777 11.8457C14.9681 12.028 14.7995 12.2741 14.6719 12.584C14.5534 12.8848 14.4941 13.2174 14.4941 13.582C14.4941 13.9375 14.5716 14.2155 14.7266 14.416C14.8906 14.6074 15.0911 14.7031 15.3281 14.7031ZM18.8281 12.0234L17.2695 11.9004L16.8184 11.3398L19.0332 11.1074L18.8281 12.0234Z" fill="white"/>
</svg>
