<svg width="24" height="24" viewBox="0 0 24 24" fill="none" xmlns="http://www.w3.org/2000/svg">
<path d="M5.45773 17L9.55973 7.19995H11.3797L12.0377 17H10.7777L10.5817 14.48H7.78173L6.71773 17H5.45773ZM8.17373 13.5H10.5537L10.2457 8.59995H10.1897L8.17373 13.5ZM14.5825 19.94C14.3025 19.94 14.0085 19.9073 13.7005 19.842C13.4018 19.786 13.1545 19.7253 12.9585 19.66L13.0565 19.1H14.4565C15.0911 19.1 15.5811 18.932 15.9265 18.596C16.2811 18.2693 16.5331 17.6673 16.6825 16.79C16.4585 16.8927 16.2298 16.9767 15.9965 17.042C15.7631 17.1073 15.5065 17.14 15.2265 17.14C14.7411 17.14 14.3445 17.0327 14.0365 16.818C13.7285 16.594 13.5278 16.2207 13.4345 15.698C13.3505 15.166 13.3925 14.4333 13.5605 13.5C13.7285 12.5667 13.9525 11.8387 14.2325 11.316C14.5125 10.784 14.8718 10.4107 15.3105 10.196C15.7585 9.97195 16.2951 9.85995 16.9205 9.85995C17.3405 9.85995 17.7278 9.89728 18.0825 9.97195C18.4371 10.0373 18.7731 10.14 19.0905 10.28L18.0125 16.44C17.8538 17.3267 17.6298 18.022 17.3405 18.526C17.0605 19.0393 16.6918 19.4033 16.2345 19.618C15.7865 19.8327 15.2358 19.94 14.5825 19.94ZM15.7865 16.3C15.9638 16.3 16.1505 16.272 16.3465 16.216C16.5425 16.1507 16.7011 16.0853 16.8225 16.02L17.7605 10.7H16.7805C16.4818 10.7 16.2065 10.7793 15.9545 10.938C15.7118 11.0873 15.4925 11.3673 15.2965 11.778C15.1098 12.1793 14.9511 12.7533 14.8205 13.5C14.6898 14.2467 14.6431 14.8253 14.6805 15.236C14.7271 15.6373 14.8485 15.9173 15.0445 16.076C15.2405 16.2253 15.4878 16.3 15.7865 16.3Z" fill="white"/>
</svg>
