<svg width="24" height="24" viewBox="0 0 24 24" fill="none" xmlns="http://www.w3.org/2000/svg">
<path d="M5.45773 17L7.83773 7.19995H9.65773L12.0377 17H10.7777L10.1477 14.48H7.34773L6.71773 17H5.45773ZM7.55773 13.5H9.93773L8.77573 8.59995H8.71973L7.55773 13.5ZM15.1145 19.94C14.8345 19.94 14.5358 19.9073 14.2185 19.842C13.9105 19.786 13.6491 19.7253 13.4345 19.66V19.1H14.8345C15.4691 19.1 15.9311 18.932 16.2205 18.596C16.5098 18.2693 16.6545 17.6673 16.6545 16.79C16.4491 16.8927 16.2345 16.9767 16.0105 17.042C15.7865 17.1073 15.5345 17.14 15.2545 17.14C14.7691 17.14 14.3538 17.0327 14.0085 16.818C13.6631 16.594 13.3971 16.2207 13.2105 15.698C13.0331 15.166 12.9445 14.4333 12.9445 13.5C12.9445 12.5667 13.0378 11.8387 13.2245 11.316C13.4205 10.784 13.7191 10.4107 14.1205 10.196C14.5311 9.97195 15.0491 9.85995 15.6745 9.85995C16.0945 9.85995 16.4865 9.89728 16.8505 9.97195C17.2145 10.0373 17.5691 10.14 17.9145 10.28V16.44C17.9145 17.3267 17.8165 18.022 17.6205 18.526C17.4245 19.0393 17.1211 19.4033 16.7105 19.618C16.2998 19.8327 15.7678 19.94 15.1145 19.94ZM15.6745 16.3C15.8518 16.3 16.0338 16.272 16.2205 16.216C16.4071 16.1507 16.5518 16.0853 16.6545 16.02V10.7H15.6745C15.3758 10.7 15.1145 10.7793 14.8905 10.938C14.6665 11.0873 14.4938 11.3673 14.3725 11.778C14.2605 12.1793 14.2045 12.7533 14.2045 13.5C14.2045 14.2467 14.2605 14.8253 14.3725 15.236C14.4938 15.6373 14.6665 15.9173 14.8905 16.076C15.1145 16.2253 15.3758 16.3 15.6745 16.3Z" fill="white"/>
</svg>
