<svg width="24" height="24" viewBox="0 0 24 24" fill="none" xmlns="http://www.w3.org/2000/svg">
<path d="M5.76021 17.2181C5.48021 17.0688 5.30288 16.9148 5.22821 16.7561C5.15354 16.5974 5.11621 16.4621 5.11621 16.3501C5.11621 16.0981 5.20488 15.7621 5.38221 15.3421C5.56888 14.9128 5.81621 14.4228 6.12421 13.8721C6.43221 13.3214 6.78221 12.7474 7.17421 12.1501C6.88488 12.1314 6.60954 12.1174 6.34821 12.1081C6.08688 12.0988 5.75088 12.0941 5.34021 12.0941H5.11621C5.24688 11.7581 5.45221 11.5248 5.73221 11.3941C6.02154 11.2541 6.35754 11.1841 6.74021 11.1841C6.89888 11.1841 7.06221 11.1934 7.23021 11.2121C7.40754 11.2308 7.58954 11.2494 7.77621 11.2681C8.24288 10.5961 8.70021 9.96142 9.14821 9.36409C9.60554 8.76676 10.0349 8.23009 10.4362 7.75409C10.8469 7.26876 11.2109 6.87209 11.5282 6.56409C11.9762 6.11609 12.3029 5.89209 12.5082 5.89209C12.6389 5.89209 12.7835 5.94342 12.9422 6.04609C13.1102 6.14876 13.2829 6.27942 13.4602 6.43809C13.3669 6.51276 13.2455 6.70409 13.0962 7.01209C12.9562 7.32009 12.8022 7.71209 12.6342 8.18809C12.4755 8.65476 12.3122 9.16809 12.1442 9.72809C11.9855 10.2881 11.8409 10.8574 11.7102 11.4361C11.5795 12.0148 11.4722 12.5701 11.3882 13.1021C11.3135 13.6248 11.2762 14.0868 11.2762 14.4881C11.2762 14.8614 11.3135 15.1414 11.3882 15.3281C11.4629 15.5054 11.5889 15.5941 11.7662 15.5941C11.9809 15.5941 12.2469 15.4308 12.5642 15.1041C12.8815 14.7774 13.2362 14.2454 13.6282 13.5081L13.8802 13.7741C13.5909 14.5394 13.2129 15.1694 12.7462 15.6641C12.2889 16.1588 11.7989 16.4061 11.2762 16.4061C10.8282 16.4061 10.5109 16.2148 10.3242 15.8321C10.1375 15.4401 10.0442 14.9081 10.0442 14.2361C10.0442 14.0214 10.0582 13.7788 10.0862 13.5081C10.1142 13.2374 10.1609 12.9014 10.2262 12.5001C9.81554 12.4348 9.45154 12.3834 9.13421 12.3461C8.81688 12.3088 8.51354 12.2714 8.22421 12.2341C7.77621 13.0274 7.34221 13.8488 6.92221 14.6981C6.50221 15.5474 6.11488 16.3874 5.76021 17.2181ZM10.3662 11.8141C10.4875 11.2634 10.6275 10.7081 10.7862 10.1481C10.9542 9.57876 11.1269 9.03742 11.3042 8.52409C11.4909 8.00142 11.6729 7.53476 11.8502 7.12409C11.5702 7.34809 11.2575 7.67009 10.9122 8.09009C10.5669 8.51009 10.2029 9.00476 9.82021 9.57409C9.44688 10.1434 9.06421 10.7641 8.67221 11.4361C8.95221 11.4921 9.23221 11.5528 9.51221 11.6181C9.79221 11.6834 10.0769 11.7488 10.3662 11.8141ZM13.9373 19.9201C13.704 19.9201 13.4846 19.8501 13.2793 19.7101C13.0833 19.5701 12.9853 19.3414 12.9853 19.0241C12.9853 18.7254 13.0693 18.4548 13.2373 18.2121C13.4146 17.9788 13.6433 17.7594 13.9233 17.5541C14.2126 17.3581 14.5206 17.1761 14.8473 17.0081C15.174 16.8401 15.4913 16.6814 15.7993 16.5321C15.902 16.2801 16 16.0094 16.0933 15.7201C16.1866 15.4308 16.2753 15.1181 16.3593 14.7821C16.0326 15.1928 15.6873 15.5334 15.3233 15.8041C14.9686 16.0748 14.6046 16.2101 14.2313 16.2101C13.858 16.2101 13.5593 16.0794 13.3353 15.8181C13.1206 15.5568 13.0133 15.2114 13.0133 14.7821C13.0133 14.2874 13.1346 13.8254 13.3773 13.3961C13.6293 12.9574 13.9513 12.5701 14.3433 12.2341C14.7353 11.8888 15.1553 11.6228 15.6033 11.4361C16.0513 11.2401 16.4806 11.1421 16.8913 11.1421C17.19 11.1421 17.414 11.1981 17.5633 11.3101C17.7126 11.4128 17.7873 11.5341 17.7873 11.6741C17.7873 11.7861 17.7546 11.8748 17.6893 11.9401C17.624 12.0054 17.582 12.0428 17.5633 12.0521C17.47 11.9494 17.372 11.8841 17.2693 11.8561C17.176 11.8188 17.064 11.8001 16.9333 11.8001C16.5693 11.8001 16.2193 11.9028 15.8833 12.1081C15.5473 12.3134 15.2486 12.5794 14.9873 12.9061C14.7353 13.2234 14.5346 13.5548 14.3853 13.9001C14.236 14.2454 14.1613 14.5581 14.1613 14.8381C14.1613 15.0248 14.2033 15.1694 14.2873 15.2721C14.3713 15.3654 14.474 15.4121 14.5953 15.4121C14.8566 15.4121 15.174 15.2441 15.5473 14.9081C15.9206 14.5628 16.28 14.1474 16.6253 13.6621C16.644 13.5874 16.658 13.5221 16.6673 13.4661C16.686 13.4008 16.7 13.3401 16.7093 13.2841C16.8026 12.9108 16.9146 12.6354 17.0453 12.4581C17.176 12.2808 17.358 12.1921 17.5913 12.1921C17.638 12.1921 17.694 12.1968 17.7593 12.2061C17.834 12.2154 17.9133 12.2294 17.9973 12.2481C17.9973 12.4161 17.9506 12.6914 17.8573 13.0741C17.764 13.4568 17.638 13.9048 17.4793 14.4181C17.3206 14.9221 17.1433 15.4401 16.9473 15.9721C17.2366 15.8508 17.5306 15.6828 17.8293 15.4681C18.128 15.2441 18.4033 14.9781 18.6553 14.6701C18.9073 14.3528 19.0986 14.0028 19.2293 13.6201L19.4813 13.8721C19.332 14.3014 19.0986 14.6934 18.7813 15.0481C18.4733 15.4028 18.1373 15.7108 17.7733 15.9721C17.4093 16.2241 17.0733 16.4201 16.7653 16.5601C16.5133 17.1761 16.238 17.7361 15.9393 18.2401C15.65 18.7534 15.3373 19.1594 15.0013 19.4581C14.6746 19.7661 14.32 19.9201 13.9373 19.9201ZM13.8813 19.2761C14.0493 19.2761 14.278 19.1174 14.5673 18.8001C14.866 18.4828 15.188 17.9461 15.5333 17.1901C15.188 17.3581 14.8706 17.5308 14.5813 17.7081C14.292 17.8854 14.0586 18.0721 13.8813 18.2681C13.704 18.4641 13.6153 18.6694 13.6153 18.8841C13.6153 19.0054 13.6386 19.0988 13.6853 19.1641C13.7413 19.2388 13.8066 19.2761 13.8813 19.2761Z" fill="white"/>
</svg>
