<svg width="24" height="24" viewBox="0 0 24 24" fill="none" xmlns="http://www.w3.org/2000/svg">
<path d="M7.64995 13.906C6.92195 13.8687 6.31995 13.85 5.84395 13.85C5.36795 13.85 4.94795 13.8593 4.58395 13.878C4.47195 14.1673 4.33195 14.6013 4.16395 15.18C4.00528 15.7493 3.88395 16.1553 3.79995 16.398C3.63195 16.8927 3.32395 17.14 2.87595 17.14C2.61461 17.14 2.40461 17.0607 2.24595 16.902C2.08728 16.7433 2.00795 16.524 2.00795 16.244C2.00795 15.9547 2.25061 15.18 2.73595 13.92C2.25061 13.808 2.00795 13.528 2.00795 13.08C2.00795 12.4733 2.44195 12.17 3.30995 12.17C3.44061 11.7687 3.69261 11.0453 4.06595 10C4.43928 8.95471 4.67728 8.27337 4.77995 7.95604C4.89195 7.62937 4.97595 7.39604 5.03195 7.25604C5.09728 7.11604 5.18128 6.96671 5.28395 6.80804C5.47995 6.50937 5.77395 6.36004 6.16595 6.36004C6.45528 6.36004 6.71195 6.44871 6.93595 6.62604C7.07595 6.73804 7.20195 6.95737 7.31395 7.28404C7.42595 7.60137 7.53795 7.93737 7.64995 8.29204C7.77128 8.63737 7.89728 8.99671 8.02795 9.37004C8.16795 9.73404 8.35461 10.266 8.58795 10.966C8.83061 11.666 8.97061 12.0673 9.00795 12.17C9.05461 12.1607 9.13861 12.156 9.25995 12.156C9.57728 12.156 9.83861 12.2493 10.0439 12.436C10.2493 12.6133 10.3519 12.8327 10.3519 13.094C10.3519 13.5233 10.0906 13.808 9.56795 13.948C10.0906 15.3013 10.3519 16.0853 10.3519 16.3C10.3519 16.5147 10.2633 16.7107 10.0859 16.888C9.91795 17.056 9.69395 17.14 9.41395 17.14C8.99395 17.14 8.68595 16.9067 8.48995 16.44C8.44328 16.328 8.16328 15.4833 7.64995 13.906ZM5.08795 12.268C5.32128 12.2867 5.66661 12.296 6.12395 12.296C6.58128 12.296 6.92661 12.2867 7.15995 12.268C6.55328 10.0653 6.21261 8.96404 6.13795 8.96404C6.07261 8.96404 5.80195 9.79004 5.32595 11.442L5.08795 12.268ZM16.5873 11.05L18.1833 11.134L19.8213 11.05C20.1573 11.05 20.4326 11.1573 20.6473 11.372C20.862 11.5867 20.9693 11.8573 20.9693 12.184C20.9693 13.7147 20.5586 14.9373 19.7373 15.852C18.9253 16.7573 17.8613 17.21 16.5453 17.21C15.2293 17.21 14.1233 16.678 13.2273 15.614C12.3313 14.55 11.8833 13.2573 11.8833 11.736C11.8833 10.2147 12.3453 8.92671 13.2693 7.87204C14.1933 6.81737 15.36 6.29004 16.7693 6.29004C17.6746 6.29004 18.496 6.48604 19.2333 6.87804C19.9706 7.27004 20.3393 7.69471 20.3393 8.15204C20.3393 8.41337 20.2553 8.62337 20.0873 8.78204C19.9193 8.93137 19.7046 9.00604 19.4433 9.00604C19.182 9.00604 18.9346 8.93137 18.7013 8.78204C18.468 8.62337 18.1973 8.46471 17.8893 8.30604C17.5813 8.14737 17.208 8.06804 16.7693 8.06804C15.9293 8.06804 15.234 8.42737 14.6833 9.14604C14.142 9.86471 13.8713 10.7233 13.8713 11.722C13.8713 12.7207 14.128 13.5933 14.6413 14.34C15.164 15.0773 15.822 15.446 16.6153 15.446C17.2126 15.446 17.7213 15.222 18.1413 14.774C18.5613 14.3167 18.8133 13.6773 18.8973 12.856C18.7946 12.8467 18.5426 12.842 18.1413 12.842L16.5873 12.912C16.242 12.912 15.962 12.828 15.7473 12.66C15.5326 12.4827 15.4253 12.254 15.4253 11.974C15.4253 11.6847 15.5326 11.4607 15.7473 11.302C15.962 11.134 16.242 11.05 16.5873 11.05Z" fill="white"/>
</svg>
