<svg width="24" height="24" viewBox="0 0 24 24" fill="none" xmlns="http://www.w3.org/2000/svg">
<path d="M9.90514 11.8139C10.3625 9.75127 10.5911 8.20194 10.5911 7.16594V6.80194C10.5911 6.64327 10.6285 6.52661 10.7031 6.45194C10.7871 6.36794 10.8711 6.32127 10.9551 6.31194C11.0485 6.29327 11.2258 6.28394 11.4871 6.28394C11.7578 6.28394 12.0378 6.38194 12.3271 6.57794C12.6258 6.77394 12.7751 7.03994 12.7751 7.37594C12.7751 7.44127 12.7331 7.84727 12.6491 8.59394C12.5651 9.34061 12.5091 10.2972 12.4811 11.4639C12.7985 11.3332 13.0505 11.1979 13.2371 11.0579C13.4331 10.9086 13.5638 10.8339 13.6291 10.8339C13.7318 10.8339 13.7831 10.9319 13.7831 11.1279C13.7831 11.3146 13.6385 11.5572 13.3491 11.8559C13.0598 12.1452 12.7705 12.3832 12.4811 12.5699C12.4811 12.7752 12.4905 13.1019 12.5091 13.5499C12.5371 13.5312 12.5745 13.5219 12.6211 13.5219C12.6771 13.5219 12.7285 13.5359 12.7751 13.5639C12.8311 13.5919 12.8778 13.6246 12.9151 13.6619C12.9618 13.6992 13.0131 13.7552 13.0691 13.8299C13.1251 13.8952 13.1671 13.9466 13.1951 13.9839C13.2231 14.0212 13.2605 14.0772 13.3071 14.1519C13.3538 14.2172 13.3818 14.2546 13.3911 14.2639C13.5591 14.5159 13.6431 14.7166 13.6431 14.8659C13.6431 15.0059 13.6151 15.1692 13.5591 15.3559C13.3445 15.9066 13.1998 16.3872 13.1251 16.7979C13.0878 16.9939 12.9758 17.0919 12.7891 17.0919C12.5838 17.0919 12.4391 17.0359 12.3551 16.9239C12.2805 16.8212 12.2198 16.7372 12.1731 16.6719C12.1358 16.6066 12.0985 16.5132 12.0611 16.3919C12.0331 16.2706 12.0098 16.1726 11.9911 16.0979C11.9725 16.0326 11.9538 15.9252 11.9351 15.7759C11.9071 15.5799 11.8885 15.3839 11.8791 15.1879L11.8651 14.9639C11.8278 14.5159 11.7811 13.8346 11.7251 12.9199C11.4825 13.0039 11.1091 13.0552 10.6051 13.0739C10.4558 13.7459 10.3018 14.3666 10.1431 14.9359C9.99381 15.4959 9.74181 15.9439 9.38714 16.2799C9.04181 16.6159 8.61714 16.7839 8.11314 16.7839C7.96381 16.7839 7.78647 16.7606 7.58114 16.7139C6.37714 16.3872 5.55581 15.6266 5.11714 14.4319C5.00514 14.1239 4.94914 13.8532 4.94914 13.6199C4.94914 13.0599 5.18247 12.6772 5.64914 12.4719C6.65714 12.0146 7.64181 11.7859 8.60314 11.7859L9.90514 11.8139ZM11.6691 11.6739C11.6318 10.8526 11.5945 9.60194 11.5571 7.92194C11.4825 8.35127 11.3658 8.99527 11.2071 9.85394C11.0578 10.7126 10.9458 11.3566 10.8711 11.7859C11.2258 11.7486 11.4918 11.7112 11.6691 11.6739ZM9.58314 13.0879H8.68714C7.54847 13.0879 6.63847 13.1672 5.95714 13.3259C5.57447 13.4006 5.38314 13.5406 5.38314 13.7459C5.38314 13.9046 5.50914 14.1099 5.76114 14.3619C6.01314 14.6139 6.33981 14.8099 6.74114 14.9499C7.14247 15.0806 7.47847 15.1459 7.74914 15.1459C8.01981 15.1459 8.24381 15.0992 8.42114 15.0059C8.60781 14.9126 8.75247 14.8146 8.85514 14.7119C8.96714 14.6092 9.07447 14.4412 9.17714 14.2079C9.30781 13.9186 9.44314 13.5452 9.58314 13.0879ZM15.6533 18.1559L15.6813 18.0019C15.6813 17.9272 15.7093 17.8759 15.7653 17.8479C15.8213 17.8292 15.868 17.8059 15.9053 17.7779C15.9427 17.7592 15.9893 17.7266 16.0453 17.6799C16.176 17.5866 16.2833 17.5399 16.3673 17.5399C16.4607 17.5399 16.5353 17.5539 16.5913 17.5819C16.6567 17.6099 16.6987 17.6239 16.7173 17.6239C16.82 17.6239 16.8713 17.4326 16.8713 17.0499C16.918 16.1446 17.0067 15.0759 17.1373 13.8439C16.8667 14.2732 16.512 14.7306 16.0733 15.2159C15.6347 15.6919 15.2847 15.9299 15.0233 15.9299C14.762 15.9299 14.5473 15.8132 14.3793 15.5799C14.0713 15.1412 13.9173 14.6372 13.9173 14.0679C13.9173 13.2279 14.3607 12.3132 15.2473 11.3239C15.5553 10.9879 15.784 10.7499 15.9333 10.6099C16.092 10.4606 16.3347 10.2366 16.6613 9.93794C16.988 9.62994 17.282 9.47594 17.5433 9.47594C17.8047 9.47594 18.0053 9.56927 18.1453 9.75594C18.2853 9.94261 18.3553 10.1572 18.3553 10.3999C18.3553 10.6332 18.2993 10.9552 18.1873 11.3659C18.262 11.4126 18.2993 11.4826 18.2993 11.5759C18.2993 11.6599 18.29 11.7486 18.2713 11.8419C17.8513 14.4739 17.6133 16.2006 17.5573 17.0219C17.5107 17.8432 17.4873 18.4919 17.4873 18.9679L17.5013 19.7099C17.5013 19.8312 17.4687 19.9292 17.4033 20.0039C17.338 20.0879 17.254 20.1299 17.1513 20.1299C17.0487 20.1299 16.876 20.0366 16.6333 19.8499C16.4 19.6726 16.176 19.5839 15.9613 19.5839L15.6393 19.6119C15.5273 19.6119 15.4713 19.5606 15.4713 19.4579L15.6533 18.1559ZM17.3193 11.5059C17.366 11.3939 17.3893 11.2866 17.3893 11.1839C17.3893 11.0812 17.352 11.0299 17.2773 11.0299C17.2493 11.0299 17.2167 11.0392 17.1793 11.0579C16.6287 11.3286 16.1433 11.6879 15.7233 12.1359C15.3033 12.5839 14.9907 13.0832 14.7853 13.6339C14.748 13.7459 14.7293 13.8439 14.7293 13.9279C14.7293 14.1146 14.7993 14.2079 14.9393 14.2079C15.014 14.2079 15.098 14.1799 15.1913 14.1239C15.6207 13.8346 16.0267 13.4519 16.4093 12.9759C16.792 12.4999 17.0953 12.0099 17.3193 11.5059Z" fill="white"/>
</svg>
