<svg width="24" height="24" viewBox="0 0 24 24" fill="none" xmlns="http://www.w3.org/2000/svg">
<path d="M6.70215 7.24512H8.87598L12.0684 17H10.2568L9.43652 14.3545H6.11426L5.32812 17H3.53711L6.70215 7.24512ZM8.98535 12.8848L7.78223 8.75586H7.75488L6.55176 12.8848H8.98535ZM13.8662 18.8047C14.0303 18.8411 14.2194 18.8708 14.4336 18.8936C14.6159 18.9163 14.8346 18.9346 15.0898 18.9482C15.3496 18.9665 15.6367 18.9756 15.9512 18.9756C16.334 18.9756 16.6439 18.9596 16.8809 18.9277C17.1224 18.9004 17.3092 18.848 17.4414 18.7705C17.5781 18.6976 17.6715 18.5951 17.7217 18.4629C17.7718 18.3353 17.7969 18.1735 17.7969 17.9775V16.7197C17.5918 16.8063 17.3753 16.8838 17.1475 16.9521C16.9469 17.0114 16.7191 17.0638 16.4639 17.1094C16.2132 17.1595 15.9489 17.1846 15.6709 17.1846C15.1924 17.1846 14.7799 17.1208 14.4336 16.9932C14.0918 16.861 13.8092 16.6445 13.5859 16.3438C13.3672 16.043 13.2054 15.6488 13.1006 15.1611C12.9958 14.6735 12.9434 14.0742 12.9434 13.3633C12.9434 12.7799 13.0003 12.2581 13.1143 11.7979C13.2282 11.333 13.3945 10.9411 13.6133 10.6221C13.8366 10.2985 14.11 10.0524 14.4336 9.88379C14.7617 9.71061 15.1377 9.62402 15.5615 9.62402C15.9215 9.62402 16.2497 9.66048 16.5459 9.7334C16.8467 9.80632 17.1064 9.88607 17.3252 9.97266C17.5758 10.0775 17.8037 10.1937 18.0088 10.3213L18.1934 9.78809H19.4238V18.0801C19.4238 18.513 19.36 18.8776 19.2324 19.1738C19.1094 19.4746 18.9202 19.7161 18.665 19.8984C18.4144 20.0853 18.0999 20.2174 17.7217 20.2949C17.3434 20.377 16.9036 20.418 16.4023 20.418C16.0833 20.418 15.7734 20.3952 15.4727 20.3496C15.1719 20.3086 14.9007 20.2607 14.6592 20.2061C14.3766 20.1468 14.1123 20.0762 13.8662 19.9941V18.8047ZM16.2451 15.7285C16.4365 15.7285 16.6234 15.7217 16.8057 15.708C16.9925 15.6898 17.1589 15.6693 17.3047 15.6465C17.4779 15.6237 17.6419 15.5941 17.7969 15.5576V11.4287C17.6191 11.3649 17.4277 11.3079 17.2227 11.2578C17.0495 11.2122 16.8512 11.1712 16.6279 11.1348C16.4046 11.0983 16.1745 11.0801 15.9375 11.0801C15.696 11.0801 15.4932 11.1188 15.3291 11.1963C15.165 11.2738 15.0329 11.4036 14.9326 11.5859C14.8324 11.7682 14.7594 12.0098 14.7139 12.3105C14.6729 12.6113 14.6523 12.985 14.6523 13.4316C14.6523 13.8418 14.666 14.1927 14.6934 14.4844C14.7207 14.776 14.7868 15.0153 14.8916 15.2021C14.9964 15.3844 15.1559 15.5189 15.3701 15.6055C15.5843 15.6875 15.876 15.7285 16.2451 15.7285Z" fill="white"/>
</svg>
