<svg width="24" height="24" viewBox="0 0 24 24" fill="none" xmlns="http://www.w3.org/2000/svg">
<path d="M5.45955 16.9999C5.29155 16.9999 5.11888 16.9672 4.94155 16.9019C4.76421 16.8366 4.61488 16.7479 4.49355 16.6359C4.37221 16.5239 4.31155 16.3932 4.31155 16.2439C4.31155 16.2159 4.31621 16.1692 4.32555 16.1039L7.02755 7.29788C7.09288 7.09255 7.23755 6.93855 7.46155 6.83588C7.69488 6.73321 7.94221 6.68188 8.20355 6.68188C8.47421 6.68188 8.72155 6.73321 8.94555 6.83588C9.16955 6.93855 9.31421 7.09255 9.37955 7.29788L12.0815 16.1039C12.1002 16.1692 12.1095 16.2159 12.1095 16.2439C12.1095 16.3839 12.0442 16.5146 11.9135 16.6359C11.7922 16.7479 11.6429 16.8366 11.4655 16.9019C11.2882 16.9672 11.1155 16.9999 10.9475 16.9999C10.7982 16.9999 10.6675 16.9766 10.5555 16.9299C10.4529 16.8739 10.3829 16.7759 10.3455 16.6359L9.81355 14.7739H6.59355L6.07555 16.6359C6.03821 16.7759 5.96355 16.8739 5.85155 16.9299C5.73955 16.9766 5.60888 16.9999 5.45955 16.9999ZM6.98555 13.3459H9.42155L8.20355 9.04788L6.98555 13.3459ZM15.5426 20.0939C14.9919 20.0939 14.4786 20.0146 14.0026 19.8559C13.5359 19.7066 13.1579 19.4826 12.8686 19.1839C12.5886 18.8852 12.4486 18.5306 12.4486 18.1199C12.4486 17.7652 12.5466 17.4619 12.7426 17.2099C12.9386 16.9672 13.1813 16.7759 13.4706 16.6359C13.2933 16.5519 13.1486 16.4399 13.0366 16.2999C12.9339 16.1506 12.8826 15.9639 12.8826 15.7399C12.8826 15.4786 12.9479 15.2686 13.0786 15.1099C13.2186 14.9419 13.3913 14.7879 13.5966 14.6479C13.3166 14.4332 13.0973 14.1766 12.9386 13.8779C12.7893 13.5699 12.7146 13.2339 12.7146 12.8699V12.5759C12.7146 12.1186 12.8266 11.7172 13.0506 11.3719C13.2839 11.0266 13.6059 10.7559 14.0166 10.5599C14.4366 10.3639 14.9173 10.2659 15.4586 10.2659C15.7666 10.2659 16.0559 10.3032 16.3266 10.3779C16.5973 10.4432 16.8399 10.5412 17.0546 10.6719C17.2133 10.2986 17.3626 10.0466 17.5026 9.91588C17.6426 9.78521 17.7779 9.71988 17.9086 9.71988C18.1326 9.71988 18.3053 9.78521 18.4266 9.91588C18.5573 10.0466 18.6226 10.1679 18.6226 10.2799C18.6226 10.3639 18.5993 10.4386 18.5526 10.5039C18.5153 10.5692 18.4639 10.6252 18.3986 10.6719C18.3053 10.7279 18.1979 10.7979 18.0766 10.8819C17.9553 10.9566 17.8433 11.0639 17.7406 11.2039C17.9086 11.3906 18.0299 11.6006 18.1046 11.8339C18.1886 12.0579 18.2306 12.3052 18.2306 12.5759V12.8699C18.2306 13.3179 18.1139 13.7192 17.8806 14.0739C17.6473 14.4192 17.3206 14.6946 16.9006 14.8999C16.4806 15.1052 15.9999 15.2079 15.4586 15.2079C15.1226 15.2079 14.8193 15.1659 14.5486 15.0819C14.5019 15.1192 14.4599 15.1612 14.4226 15.2079C14.3946 15.2546 14.3806 15.3059 14.3806 15.3619C14.3806 15.5206 14.4833 15.6326 14.6886 15.6979C14.8939 15.7632 15.1553 15.8146 15.4726 15.8519C15.7899 15.8892 16.1259 15.9406 16.4806 16.0059C16.8446 16.0619 17.1853 16.1552 17.5026 16.2859C17.8199 16.4166 18.0813 16.6126 18.2866 16.8739C18.4919 17.1259 18.5946 17.4666 18.5946 17.8959C18.5946 18.4186 18.4453 18.8386 18.1466 19.1559C17.8573 19.4826 17.4793 19.7206 17.0126 19.8699C16.5553 20.0192 16.0653 20.0939 15.5426 20.0939ZM15.5146 18.9319C15.8786 18.9319 16.1866 18.8432 16.4386 18.6659C16.6999 18.4886 16.8306 18.2506 16.8306 17.9519C16.8306 17.7559 16.7746 17.5972 16.6626 17.4759C16.5506 17.3546 16.3966 17.2612 16.2006 17.1959C16.0139 17.1399 15.8086 17.0932 15.5846 17.0559C15.3606 17.0279 15.1366 16.9999 14.9126 16.9719C14.6886 17.0746 14.5066 17.2052 14.3666 17.3639C14.2266 17.5226 14.1566 17.7139 14.1566 17.9379C14.1566 18.2459 14.2873 18.4886 14.5486 18.6659C14.8193 18.8432 15.1413 18.9319 15.5146 18.9319ZM15.4866 14.1159C15.7946 14.1159 16.0373 13.9992 16.2146 13.7659C16.3919 13.5326 16.4806 13.2339 16.4806 12.8699V12.5759C16.4806 12.2306 16.3919 11.9412 16.2146 11.7079C16.0466 11.4746 15.7993 11.3579 15.4726 11.3579C15.1553 11.3579 14.9079 11.4746 14.7306 11.7079C14.5626 11.9412 14.4786 12.2306 14.4786 12.5759V12.8559C14.4786 13.2106 14.5626 13.5092 14.7306 13.7519C14.9079 13.9946 15.1599 14.1159 15.4866 14.1159Z" fill="white"/>
</svg>
