<svg width="24" height="24" viewBox="0 0 24 24" fill="none" xmlns="http://www.w3.org/2000/svg">
<path d="M5.42827 16.9999C5.2976 16.9999 5.1576 16.9719 5.00827 16.9159C4.85893 16.8599 4.7376 16.7899 4.64427 16.7059C4.55093 16.6126 4.50427 16.5052 4.50427 16.3839C4.50427 16.3559 4.50893 16.3139 4.51827 16.2579L7.30427 7.18588C7.36027 7.01788 7.47693 6.89188 7.65427 6.80788C7.84093 6.72388 8.03693 6.68188 8.24227 6.68188C8.45693 6.68188 8.65293 6.72388 8.83027 6.80788C9.01693 6.89188 9.13827 7.01788 9.19427 7.18588L11.9663 16.2579C11.9849 16.3139 11.9943 16.3559 11.9943 16.3839C11.9943 16.4959 11.9429 16.5986 11.8403 16.6919C11.7469 16.7852 11.6256 16.8599 11.4763 16.9159C11.3363 16.9719 11.1963 16.9999 11.0563 16.9999C10.9349 16.9999 10.8276 16.9766 10.7343 16.9299C10.6503 16.8832 10.5896 16.8039 10.5523 16.6919L9.97827 14.7039H6.50627L5.94627 16.6919C5.91827 16.8039 5.85293 16.8832 5.75027 16.9299C5.65693 16.9766 5.5496 16.9999 5.42827 16.9999ZM6.84227 13.5139H9.64227L8.24227 8.71188L6.84227 13.5139ZM15.4459 20.1499C14.9046 20.1499 14.4053 20.0706 13.9479 19.9119C13.4906 19.7626 13.1266 19.5432 12.8559 19.2539C12.5853 18.9646 12.4499 18.6192 12.4499 18.2179C12.4499 17.8446 12.5573 17.5319 12.7719 17.2799C12.9866 17.0372 13.2386 16.8506 13.5279 16.7199C13.3413 16.6359 13.1873 16.5239 13.0659 16.3839C12.9446 16.2439 12.8839 16.0479 12.8839 15.7959C12.8839 15.5346 12.9493 15.3246 13.0799 15.1659C13.2106 15.0072 13.3786 14.8626 13.5839 14.7319C13.3226 14.5266 13.1173 14.2746 12.9679 13.9759C12.8279 13.6679 12.7579 13.3319 12.7579 12.9679V12.5759C12.7579 12.1279 12.8653 11.7312 13.0799 11.3859C13.2946 11.0406 13.5979 10.7699 13.9899 10.5739C14.3913 10.3779 14.8486 10.2799 15.3619 10.2799C15.6793 10.2799 15.9733 10.3219 16.2439 10.4059C16.5239 10.4899 16.7713 10.6066 16.9859 10.7559C17.1353 10.4106 17.2846 10.1679 17.4339 10.0279C17.5926 9.88788 17.7419 9.81788 17.8819 9.81788C18.0779 9.81788 18.2273 9.87388 18.3299 9.98588C18.4326 10.0979 18.4839 10.2099 18.4839 10.3219C18.4839 10.3966 18.4606 10.4666 18.4139 10.5319C18.3766 10.5879 18.3206 10.6346 18.2459 10.6719C18.1526 10.7186 18.0406 10.7839 17.9099 10.8679C17.7886 10.9426 17.6673 11.0639 17.5459 11.2319C17.7046 11.4092 17.8213 11.6146 17.8959 11.8479C17.9706 12.0812 18.0079 12.3239 18.0079 12.5759V12.9679C18.0079 13.4066 17.8959 13.8032 17.6719 14.1579C17.4479 14.5126 17.1353 14.7926 16.7339 14.9979C16.3326 15.1939 15.8753 15.2919 15.3619 15.2919C14.9979 15.2919 14.6759 15.2359 14.3959 15.1239C14.3213 15.1706 14.2559 15.2266 14.1999 15.2919C14.1533 15.3479 14.1299 15.4226 14.1299 15.5159C14.1299 15.6839 14.2326 15.8052 14.4379 15.8799C14.6433 15.9546 14.9046 16.0106 15.2219 16.0479C15.5486 16.0852 15.8939 16.1319 16.2579 16.1879C16.6219 16.2439 16.9626 16.3372 17.2799 16.4679C17.6066 16.5892 17.8726 16.7712 18.0779 17.0139C18.2833 17.2659 18.3859 17.6066 18.3859 18.0359C18.3859 18.5212 18.2506 18.9179 17.9799 19.2259C17.7093 19.5432 17.3499 19.7766 16.9019 19.9259C16.4633 20.0752 15.9779 20.1499 15.4459 20.1499ZM15.4179 19.1699C15.8753 19.1699 16.2439 19.0672 16.5239 18.8619C16.8133 18.6659 16.9579 18.4046 16.9579 18.0779C16.9579 17.8446 16.8879 17.6626 16.7479 17.5319C16.6079 17.4012 16.4259 17.3032 16.2019 17.2379C15.9779 17.1726 15.7399 17.1259 15.4879 17.0979C15.2453 17.0699 15.0119 17.0419 14.7879 17.0139C14.5266 17.1072 14.3026 17.2379 14.1159 17.4059C13.9386 17.5832 13.8499 17.8026 13.8499 18.0639C13.8499 18.4092 13.9946 18.6799 14.2839 18.8759C14.5826 19.0719 14.9606 19.1699 15.4179 19.1699ZM15.3899 14.3539C15.7633 14.3539 16.0526 14.2232 16.2579 13.9619C16.4726 13.7006 16.5799 13.3692 16.5799 12.9679V12.5759C16.5799 12.1932 16.4726 11.8712 16.2579 11.6099C16.0526 11.3486 15.7586 11.2179 15.3759 11.2179C14.9933 11.2179 14.6993 11.3486 14.4939 11.6099C14.2886 11.8712 14.1859 12.1932 14.1859 12.5759V12.9539C14.1859 13.3459 14.2886 13.6772 14.4939 13.9479C14.6993 14.2186 14.9979 14.3539 15.3899 14.3539Z" fill="white"/>
</svg>
