<svg width="24" height="24" viewBox="0 0 24 24" fill="none" xmlns="http://www.w3.org/2000/svg">
<path d="M11.3232 17L10.2295 13.9033H6.50391L5.39648 17H4.11133L7.78223 6.96484H8.94434L12.6221 17H11.3232ZM9.82617 12.7754L8.81445 9.87695C8.78711 9.79492 8.75293 9.69466 8.71191 9.57617C8.67546 9.45768 8.63672 9.33008 8.5957 9.19336C8.55469 9.05664 8.51367 8.91536 8.47266 8.76953C8.43164 8.61914 8.3929 8.47331 8.35645 8.33203C8.32454 8.47331 8.28809 8.61914 8.24707 8.76953C8.20605 8.91992 8.16504 9.06576 8.12402 9.20703C8.08301 9.34375 8.04199 9.47135 8.00098 9.58984C7.96452 9.70378 7.93262 9.79948 7.90527 9.87695L6.91406 12.7754H9.82617ZM19.6016 9.49414V10.2666L18.2549 10.4512C18.3825 10.6107 18.4896 10.8158 18.5762 11.0664C18.6628 11.3125 18.7061 11.5928 18.7061 11.9072C18.7061 12.2536 18.6514 12.5749 18.542 12.8711C18.4372 13.1628 18.2754 13.4157 18.0566 13.6299C17.8424 13.8441 17.5758 14.0127 17.2568 14.1357C16.9378 14.2542 16.5664 14.3135 16.1426 14.3135C16.0423 14.3135 15.9421 14.3135 15.8418 14.3135C15.7415 14.3089 15.6595 14.2998 15.5957 14.2861C15.5182 14.3317 15.4408 14.3841 15.3633 14.4434C15.2904 14.498 15.222 14.5618 15.1582 14.6348C15.099 14.7077 15.0488 14.7897 15.0078 14.8809C14.9714 14.972 14.9531 15.0723 14.9531 15.1816C14.9531 15.3047 14.9805 15.4049 15.0352 15.4824C15.0898 15.5553 15.1628 15.6123 15.2539 15.6533C15.3496 15.6943 15.4613 15.7217 15.5889 15.7354C15.7165 15.749 15.8509 15.7559 15.9922 15.7559H17.1953C17.6191 15.7559 17.9769 15.8105 18.2686 15.9199C18.5602 16.0247 18.7972 16.1683 18.9795 16.3506C19.1663 16.5329 19.3008 16.7493 19.3828 17C19.4648 17.2461 19.5059 17.5081 19.5059 17.7861C19.5059 18.1872 19.4307 18.5472 19.2803 18.8662C19.1344 19.1852 18.9089 19.4541 18.6035 19.6729C18.2982 19.8962 17.9108 20.0671 17.4414 20.1855C16.9766 20.304 16.4274 20.3633 15.7939 20.3633C15.3063 20.3633 14.8802 20.3154 14.5156 20.2197C14.151 20.124 13.848 19.985 13.6064 19.8027C13.3649 19.6204 13.1826 19.3994 13.0596 19.1396C12.9411 18.8844 12.8818 18.5951 12.8818 18.2715C12.8818 17.998 12.9251 17.7565 13.0117 17.5469C13.1029 17.3418 13.2236 17.1641 13.374 17.0137C13.5244 16.8633 13.6976 16.7402 13.8936 16.6445C14.0941 16.5488 14.3014 16.4759 14.5156 16.4258C14.3242 16.3392 14.167 16.2025 14.0439 16.0156C13.9209 15.8288 13.8594 15.6146 13.8594 15.373C13.8594 15.0951 13.9323 14.8558 14.0781 14.6553C14.224 14.4502 14.4541 14.252 14.7686 14.0605C14.5726 13.9785 14.3926 13.8669 14.2285 13.7256C14.069 13.5798 13.9323 13.4157 13.8184 13.2334C13.709 13.0465 13.6224 12.8438 13.5586 12.625C13.4993 12.4062 13.4697 12.1807 13.4697 11.9482C13.4697 11.5426 13.5267 11.1803 13.6406 10.8613C13.7546 10.5423 13.9232 10.2712 14.1465 10.0479C14.3698 9.82454 14.6478 9.65365 14.9805 9.53516C15.3132 9.41667 15.7005 9.35742 16.1426 9.35742C16.3112 9.35742 16.4844 9.37109 16.6621 9.39844C16.8444 9.42122 16.9971 9.45312 17.1201 9.49414H19.6016ZM14.0576 18.2305C14.0576 18.3991 14.0872 18.5563 14.1465 18.7021C14.2057 18.848 14.3014 18.9733 14.4336 19.0781C14.5703 19.1829 14.748 19.265 14.9668 19.3242C15.1901 19.388 15.4658 19.4199 15.7939 19.4199C16.6416 19.4199 17.2751 19.2878 17.6943 19.0234C18.1182 18.7637 18.3301 18.3877 18.3301 17.8955C18.3301 17.6859 18.3027 17.515 18.248 17.3828C18.1934 17.2507 18.1022 17.1458 17.9746 17.0684C17.8516 16.9954 17.6875 16.9453 17.4824 16.918C17.2773 16.8906 17.0267 16.877 16.7305 16.877H15.5273C15.3678 16.877 15.2015 16.8952 15.0283 16.9316C14.8551 16.9681 14.6956 17.0365 14.5498 17.1367C14.4085 17.237 14.29 17.3737 14.1943 17.5469C14.1032 17.7246 14.0576 17.9525 14.0576 18.2305ZM14.6865 11.9072C14.6865 12.4313 14.8096 12.821 15.0557 13.0762C15.3018 13.3314 15.6504 13.459 16.1016 13.459C16.5573 13.459 16.9014 13.3337 17.1338 13.083C17.3708 12.8278 17.4893 12.429 17.4893 11.8867C17.4893 11.3262 17.3685 10.9137 17.127 10.6494C16.89 10.3851 16.5436 10.2529 16.0879 10.2529C15.6367 10.2529 15.2904 10.3896 15.0488 10.6631C14.8073 10.9365 14.6865 11.3512 14.6865 11.9072Z" fill="white"/>
</svg>
