<svg width="24" height="24" viewBox="0 0 24 24" fill="none" xmlns="http://www.w3.org/2000/svg">
<path d="M9.90039 15.6484C9.60417 15.3978 9.38086 15.2725 9.23047 15.2725H9.11426L9.18945 15.9697C9.41732 16.07 9.57682 16.2318 9.66797 16.4551C9.75 16.6556 9.89811 16.7559 10.1123 16.7559C10.1214 16.7559 10.2604 16.651 10.5293 16.4414C10.7982 16.2318 10.9759 16.127 11.0625 16.127C11.0124 16.1908 10.9258 16.2819 10.8027 16.4004C10.502 16.7057 10.3516 16.8698 10.3516 16.8926C10.3516 16.9154 10.3607 16.9495 10.3789 16.9951V17.0088C10.4108 17.0589 10.5635 17.109 10.8369 17.1592L10.9805 17.1865C10.9805 17.2093 10.9258 17.2253 10.8164 17.2344C10.707 17.2435 10.6318 17.2549 10.5908 17.2686C10.5498 17.2822 10.5225 17.2959 10.5088 17.3096C10.4951 17.3232 10.4814 17.3392 10.4678 17.3574C10.4541 17.3711 10.4154 17.3916 10.3516 17.4189C10.2923 17.4417 10.2331 17.4964 10.1738 17.583C10.1191 17.6696 10.0872 17.7493 10.0781 17.8223C10.0645 18.0137 10.0234 18.1094 9.95508 18.1094C9.86849 18.1094 9.74772 18.0205 9.59277 17.8428C9.43783 17.665 9.30794 17.485 9.20312 17.3027L8.86816 17.4941C8.7679 17.5397 8.70182 17.9749 8.66992 18.7998C8.66992 18.8955 8.62663 18.9593 8.54004 18.9912C8.54004 18.6904 8.44889 18.3783 8.2666 18.0547C8.08431 17.7357 7.8724 17.4805 7.63086 17.2891C7.39388 17.0931 7.20931 16.9951 7.07715 16.9951C6.94499 16.9951 6.7194 17.0042 6.40039 17.0225L6.1748 17.1182C6.17025 17.1182 6.08138 17.1888 5.9082 17.3301C5.73958 17.4668 5.62337 17.5352 5.55957 17.5352L5.61426 17.4805H5.60059C5.58236 17.4805 5.49577 17.4144 5.34082 17.2822C5.18587 17.1455 5.08105 17.0771 5.02637 17.0771L4.03516 17.1318C3.89388 17.2503 3.68424 17.3346 3.40625 17.3848C3.33789 17.5033 3.18522 17.5898 2.94824 17.6445C2.71582 17.6992 2.4515 17.7493 2.15527 17.7949C1.85905 17.8359 1.66764 17.8815 1.58105 17.9316C1.48991 17.9772 1.42839 18 1.39648 18C1.36458 18 1.33952 17.9954 1.32129 17.9863C1.59017 17.8268 1.78158 17.681 1.89551 17.5488L2.14844 17.1865C2.1849 17.1364 2.20996 17.0475 2.22363 16.9199C2.2373 16.7923 2.25781 16.7126 2.28516 16.6807C2.26693 16.8493 2.25781 16.9769 2.25781 17.0635C2.25781 17.1455 2.26693 17.1956 2.28516 17.2139V17.0771C2.28516 16.7855 2.3877 16.6351 2.59277 16.626C2.59277 16.2979 2.77507 16.0791 3.13965 15.9697L2.98242 14.835C2.96875 14.7529 2.84798 14.6458 2.62012 14.5137L2.66113 14.3018C2.80241 14.3519 2.88216 14.377 2.90039 14.377C2.98698 14.377 3.10091 14.2585 3.24219 14.0215C3.38802 13.7799 3.50195 13.6318 3.58398 13.5771C3.57487 13.4814 3.57031 13.3493 3.57031 13.1807L3.64551 12.2578C3.64551 12.2168 3.57715 12.1484 3.44043 12.0527C3.30827 11.957 3.23991 11.8773 3.23535 11.8135V11.7861C3.42676 11.8682 3.56803 11.9092 3.65918 11.9092C3.75033 11.9092 3.84375 11.8066 3.93945 11.6016C4.03971 11.3919 4.08984 11.2484 4.08984 11.1709C4.08984 11.0934 4.03516 11.0046 3.92578 10.9043C3.78451 10.7721 3.7321 10.6696 3.76855 10.5967C3.99642 10.7334 4.13997 10.8018 4.19922 10.8018C4.25846 10.8018 4.31999 10.7699 4.38379 10.7061C4.37467 10.6696 4.37012 10.5785 4.37012 10.4326C4.37012 10.2822 4.44987 10.0042 4.60938 9.59863C4.76888 9.19303 4.84863 8.8763 4.84863 8.64844L4.83496 8.47754C4.83496 8.4502 4.75977 8.37728 4.60938 8.25879L4.67773 8.06055C4.81445 8.12435 4.88965 8.15625 4.90332 8.15625C5.07194 8.15625 5.42513 7.8737 5.96289 7.30859C6.1862 7.07161 6.3457 6.91667 6.44141 6.84375C6.44141 6.7526 6.47559 6.61589 6.54395 6.43359H6.70801C6.69889 6.48828 6.69434 6.57715 6.69434 6.7002C6.69434 6.82324 6.72168 6.96224 6.77637 7.11719C6.83105 7.27214 6.94271 7.52279 7.11133 7.86914C7.28451 8.21094 7.44401 8.51172 7.58984 8.77148C7.95443 9.43685 8.18001 10.0771 8.2666 10.6924C8.31673 11.0661 8.39648 11.3281 8.50586 11.4785C8.61523 11.6289 8.69954 11.7428 8.75879 11.8203C8.89551 12.0072 8.96387 12.2464 8.96387 12.5381L8.93652 13.085V13.5225C9.21452 13.9053 9.39681 14.3815 9.4834 14.9512C9.51074 15.0879 9.61784 15.2451 9.80469 15.4229C9.85938 15.4775 9.88672 15.5391 9.88672 15.6074L9.90039 15.6484ZM6.68066 16.0654L6.7627 16.0518L6.97461 16.0244L7.36426 15.5938L7.28223 14.3633C7.12272 14.2448 6.99967 14.0671 6.91309 13.8301C6.83105 13.5931 6.79004 13.4176 6.79004 13.3037C6.79004 13.1852 6.79232 13.1169 6.79688 13.0986C6.80599 13.0804 6.81055 13.0667 6.81055 13.0576L6.59863 13.3516C6.56217 13.4017 6.54395 13.4473 6.54395 13.4883C6.54395 13.5247 6.56445 13.5931 6.60547 13.6934C6.64648 13.7891 6.66699 13.8734 6.66699 13.9463C6.66699 14.0192 6.65332 14.0693 6.62598 14.0967C6.49382 13.8779 6.39583 13.7412 6.33203 13.6865C6.27279 13.6318 6.19759 13.6045 6.10645 13.6045H4.58203L4.67773 13.9805C4.69141 14.0397 4.78027 14.1309 4.94434 14.2539C5.11296 14.3724 5.20182 14.4681 5.21094 14.541C5.01042 14.4681 4.86686 14.4316 4.78027 14.4316C4.69368 14.4316 4.61393 14.459 4.54102 14.5137L4.41113 14.6982V16.0244L4.93066 15.9971L5.35449 16.0654C5.37272 16.0654 5.43197 16.0426 5.53223 15.9971C5.63704 15.9515 5.72135 15.9287 5.78516 15.9287C5.84896 15.9287 5.88997 15.9333 5.9082 15.9424C5.73047 16.0518 5.61198 16.1361 5.55273 16.1953C5.49805 16.25 5.46387 16.3092 5.4502 16.373V16.5303L5.43652 16.5713C5.43652 16.6351 5.4707 16.6693 5.53906 16.6738C5.68945 16.6921 5.79427 16.765 5.85352 16.8926C5.64844 16.8288 5.51628 16.7969 5.45703 16.7969C5.39779 16.7969 5.37044 16.8424 5.375 16.9336C5.38411 17.0202 5.48438 17.1842 5.67578 17.4258C5.83984 17.2435 5.9401 17.1068 5.97656 17.0156C6.01758 16.9199 6.09049 16.7741 6.19531 16.5781C6.30469 16.3822 6.35938 16.266 6.35938 16.2295C6.35938 16.193 6.3252 16.1178 6.25684 16.0039C6.19303 15.8854 6.16113 15.8034 6.16113 15.7578C6.16113 15.7077 6.18164 15.6667 6.22266 15.6348C6.41406 15.9219 6.56673 16.0654 6.68066 16.0654ZM5.8125 11.4922L5.40918 11.417C5.31348 11.417 5.22461 11.474 5.14258 11.5879C4.99219 11.793 4.91699 11.973 4.91699 12.1279C4.91699 12.2829 4.92155 12.3786 4.93066 12.415L5.23828 12.5244C5.54362 12.5244 5.78288 12.4925 5.95605 12.4287C6.12923 12.3604 6.26367 12.3171 6.35938 12.2988L6.58496 12.2305C6.4528 11.9525 6.38672 11.7451 6.38672 11.6084C6.38672 11.4671 6.32292 11.0798 6.19531 10.4463C6.07227 9.81283 5.97656 9.38672 5.9082 9.16797L5.30664 10.5352V10.6787C5.32943 10.7015 5.34993 10.7949 5.36816 10.959V11.0137C5.38639 11.1276 5.49349 11.2256 5.68945 11.3076C5.80794 11.3714 5.86719 11.4238 5.86719 11.4648C5.86719 11.4831 5.84896 11.4922 5.8125 11.4922ZM15.8887 17.1318C15.6152 17.1318 15.4626 17.3757 15.4307 17.8633L15.3145 17.8428C15.3236 17.7699 15.3281 17.6764 15.3281 17.5625C15.3281 17.4486 15.3099 17.3529 15.2734 17.2754C15.237 17.1979 15.196 17.1592 15.1504 17.1592L14.7539 17.8906C14.8359 17.6947 14.8838 17.526 14.8975 17.3848C14.8975 17.2435 14.8314 17.1273 14.6992 17.0361H14.6445C14.5898 17.0544 14.5511 17.0771 14.5283 17.1045L14.4326 17.2412C14.3597 17.3369 14.3232 17.4417 14.3232 17.5557C14.3232 17.6696 14.3369 17.8132 14.3643 17.9863L14.248 18C14.1979 17.6354 14.1113 17.403 13.9883 17.3027C13.3548 16.7786 12.8968 16.5166 12.6143 16.5166C12.473 16.5166 12.3135 16.6283 12.1357 16.8516L11.9854 16.7148C12.1449 16.5143 12.2246 16.3708 12.2246 16.2842C12.2246 16.1976 12.1882 16.0882 12.1152 15.9561C12.0423 15.8193 12.0036 15.7236 11.999 15.6689C11.999 15.6143 11.9215 15.514 11.7666 15.3682C11.6162 15.2223 11.5251 15.1198 11.4932 15.0605C11.4658 14.9967 11.4248 14.9648 11.3701 14.9648C11.32 14.9648 11.1468 15.0195 10.8506 15.1289L10.7822 14.917C11.1924 14.7393 11.3975 14.6367 11.3975 14.6094C11.3975 14.4225 11.2972 14.1423 11.0967 13.7686C10.8962 13.3949 10.7959 13.0827 10.7959 12.832V10.8291C10.7959 10.5146 10.8779 10.0521 11.042 9.44141C11.2106 8.83073 11.2949 8.37044 11.2949 8.06055C11.2949 7.99219 11.2653 7.93066 11.2061 7.87598C11.1514 7.82129 11.0283 7.75293 10.8369 7.6709L10.8916 7.54102C11.0967 7.6276 11.2448 7.6709 11.3359 7.6709C11.4271 7.6709 11.5592 7.55924 11.7324 7.33594C11.9056 7.11263 12.0537 6.89388 12.1768 6.67969C12.2998 6.46549 12.3613 6.35156 12.3613 6.33789C12.3613 6.23307 12.3044 6.06901 12.1904 5.8457L12.3203 5.77734C12.4251 5.99154 12.5072 6.12826 12.5664 6.1875C12.6302 6.24219 12.7054 6.26953 12.792 6.26953H13.1475C13.2204 6.26953 13.2819 6.23991 13.332 6.18066C13.3867 6.12142 13.4141 6.04395 13.4141 5.94824C13.4141 5.85254 13.389 5.72949 13.3389 5.5791L13.4824 5.53809C13.5462 5.76595 13.6032 5.90723 13.6533 5.96191C13.7035 6.0166 13.7764 6.04395 13.8721 6.04395H14.8564C14.9476 6.04395 15.0137 6.03711 15.0547 6.02344C15.1595 5.98242 15.237 5.81608 15.2871 5.52441L15.5264 5.56543C15.5081 5.65202 15.499 5.75 15.499 5.85938C15.499 6.1237 15.6904 6.25586 16.0732 6.25586C16.1279 6.25586 16.1758 6.22624 16.2168 6.16699C16.2578 6.10775 16.3125 5.98242 16.3809 5.79102L16.4902 5.81836C16.4173 6.01888 16.3809 6.16016 16.3809 6.24219C16.3809 6.31966 16.4173 6.38118 16.4902 6.42676C16.5632 6.47233 16.6611 6.52018 16.7842 6.57031C16.9072 6.61589 17.0371 6.67285 17.1738 6.74121C17.5293 6.91439 17.8096 7.18099 18.0146 7.54102C18.0693 7.60482 18.1263 7.63672 18.1855 7.63672H18.9854C19.0719 7.63672 19.1426 7.60938 19.1973 7.55469C19.2565 7.5 19.334 7.36556 19.4297 7.15137L19.5596 7.20605C19.4548 7.43392 19.4023 7.59115 19.4023 7.67773C19.4023 7.75977 19.4411 7.8304 19.5186 7.88965C19.5778 7.95801 19.6507 7.99219 19.7373 7.99219C19.8239 7.99219 19.9652 7.95345 20.1611 7.87598L20.2158 8.00586C19.9333 8.11523 19.776 8.19727 19.7441 8.25195C19.7168 8.30664 19.7008 8.36361 19.6963 8.42285L19.6553 9.93359C19.6553 10.0749 19.7806 10.2708 20.0312 10.5215L19.9492 10.6104C19.7852 10.4372 19.6621 10.3255 19.5801 10.2754C19.498 10.2253 19.4115 10.2002 19.3203 10.2002H19.293C19.2839 10.2184 19.2793 10.2663 19.2793 10.3438C19.2793 10.4167 19.3864 10.5374 19.6006 10.7061L19.4707 10.877C19.2793 10.7174 19.1357 10.6377 19.04 10.6377C18.9352 10.8929 18.8464 11.0501 18.7734 11.1094C18.7051 11.1641 18.6686 11.1937 18.6641 11.1982L18.4795 10.959L18.3633 10.7129C18.263 10.5033 18.2129 10.3438 18.2129 10.2344C18.2129 10.1204 18.2061 10.0088 18.1924 9.89941C18.1787 9.78548 18.14 9.64876 18.0762 9.48926C18.0124 9.3252 17.9281 9.20898 17.8232 9.14062C17.6364 8.95378 17.4997 8.78971 17.4131 8.64844C17.3037 8.67578 17.1533 8.68945 16.9619 8.68945C16.7751 8.68945 16.5996 8.68034 16.4355 8.66211H16.7568C16.8206 8.66211 16.873 8.64388 16.9141 8.60742C16.9596 8.57096 16.9824 8.50944 16.9824 8.42285C16.9824 8.33626 16.889 8.21094 16.7021 8.04688C16.5153 7.87826 16.3786 7.79395 16.292 7.79395L15.2461 7.71191C14.9362 7.71191 14.6628 7.80534 14.4258 7.99219C14.1751 8.18359 13.9974 8.29069 13.8926 8.31348C13.7878 8.33626 13.7194 8.38184 13.6875 8.4502C13.6602 8.514 13.5827 8.68717 13.4551 8.96973C13.1543 9.65332 13.0039 10.0042 13.0039 10.0225V12.832C13.0039 13.2923 13.152 13.7298 13.4482 14.1445C13.8493 14.7096 14.0977 15.0993 14.1934 15.3135C14.2161 15.3682 14.3597 15.4229 14.624 15.4775C14.8929 15.5277 15.0911 15.5527 15.2188 15.5527C15.3509 15.5527 15.5036 15.4023 15.6768 15.1016L15.8203 15.1836C15.6882 15.4023 15.6221 15.5482 15.6221 15.6211C15.6221 15.6895 15.6494 15.7646 15.7041 15.8467L15.793 15.9561L15.7041 16.1133C15.9183 15.8991 16.1598 15.498 16.4287 14.9102C16.7021 14.3223 16.8389 13.8301 16.8389 13.4336C16.8389 13.265 16.6429 13.1807 16.251 13.1807C16.1234 13.1807 15.9229 13.2946 15.6494 13.5225L15.5811 13.4473C15.7633 13.2878 15.8818 13.1715 15.9365 13.0986C15.9912 13.0257 16.0231 12.9505 16.0322 12.873V12.8594C16.0322 12.4082 16.0049 12.0368 15.9502 11.7451C15.8955 11.4489 15.7588 11.0934 15.54 10.6787L15.5811 10.6514C15.8454 11.1436 16.1279 11.4603 16.4287 11.6016C16.5609 11.6608 16.6908 11.7087 16.8184 11.7451C17.1556 11.8454 17.4062 11.9844 17.5703 12.1621C17.6432 12.1348 17.7731 12.1211 17.96 12.1211C19.0811 12.1211 19.6416 12.3581 19.6416 12.832C19.6416 13.2741 19.7031 13.5293 19.8262 13.5977C19.8854 13.6296 20.0335 13.6455 20.2705 13.6455V13.7891C20.0335 13.7891 19.8831 13.8027 19.8193 13.8301C19.7601 13.8529 19.7191 13.903 19.6963 13.9805V14.0488C19.6963 14.1628 19.7943 14.3405 19.9902 14.582L19.9082 14.6572C19.7669 14.4704 19.6598 14.3519 19.5869 14.3018C19.514 14.2471 19.4388 14.2197 19.3613 14.2197H18.7461C18.6139 14.2197 18.5433 14.2858 18.5342 14.418C18.4977 14.8236 18.3747 15.3112 18.165 15.8809C17.9554 16.4505 17.7435 16.8721 17.5293 17.1455L17.5156 17.0908C17.5156 17.1956 17.5339 17.2936 17.5703 17.3848C17.6068 17.4714 17.7002 17.624 17.8506 17.8428L17.7959 17.8906C17.5908 17.5807 17.3949 17.3802 17.208 17.2891C17.0257 17.1934 16.8138 17.1455 16.5723 17.1455H16.1689L15.8887 17.1318ZM14.7539 17.8906L14.7129 17.959L14.7539 17.8906Z" fill="white"/>
</svg>
