<svg width="24" height="24" viewBox="0 0 24 24" fill="none" xmlns="http://www.w3.org/2000/svg">
<path d="M3.76991 17.0699C3.66725 17.0699 3.57858 17.0512 3.50391 17.0139C3.43858 16.9859 3.40591 16.9299 3.40591 16.8459C3.40591 16.7526 3.43391 16.6872 3.48991 16.6499C3.55525 16.6032 3.63925 16.5659 3.74191 16.5379C4.01258 16.4632 4.24591 16.3466 4.44191 16.1879C4.64725 16.0292 4.80125 15.8332 4.90391 15.5999C5.13725 15.0772 5.35658 14.5639 5.56191 14.0599C5.76725 13.5466 5.96791 13.0426 6.16391 12.5479C6.35991 12.0439 6.55591 11.5352 6.75191 11.0219C6.94791 10.4992 7.14391 9.97194 7.33991 9.43994C7.47991 9.05727 7.56858 8.78194 7.60591 8.61394C7.64325 8.43661 7.67125 8.33394 7.68991 8.30594C7.85791 8.25927 8.01658 8.21727 8.16591 8.17994C8.31525 8.14261 8.47391 8.09127 8.64191 8.02594C8.80991 7.96061 8.94991 7.87661 9.06191 7.77394C9.18325 7.67127 9.27191 7.59194 9.32791 7.53594C9.36525 7.50794 9.40258 7.49394 9.43991 7.49394C9.47725 7.48461 9.51458 7.51261 9.55191 7.57794C9.57991 7.63394 9.60325 7.69461 9.62191 7.75994C9.64991 7.81594 9.67325 7.88127 9.69191 7.95594C9.88791 8.58127 10.0886 9.22061 10.2939 9.87394C10.4992 10.5179 10.7046 11.1619 10.9099 11.8059C11.1246 12.4499 11.3346 13.0892 11.5399 13.7239C11.7452 14.3492 11.9459 14.9606 12.1419 15.5579C12.1979 15.7446 12.2819 15.9032 12.3939 16.0339C12.5152 16.1646 12.6506 16.2672 12.7999 16.3419C12.9492 16.4166 13.1172 16.4819 13.3039 16.5379C13.4066 16.5659 13.4859 16.6032 13.5419 16.6499C13.6072 16.6872 13.6399 16.7479 13.6399 16.8319C13.6399 16.8972 13.6119 16.9486 13.5559 16.9859C13.4999 17.0232 13.4346 17.0419 13.3599 17.0419C13.1732 17.0419 12.9399 17.0326 12.6599 17.0139C12.3892 17.0046 12.1139 16.9952 11.8339 16.9859C11.5539 16.9766 11.3066 16.9719 11.0919 16.9719C10.9146 16.9719 10.6952 16.9766 10.4339 16.9859C10.1819 16.9952 9.92525 17.0046 9.66391 17.0139C9.40258 17.0232 9.17858 17.0279 8.99191 17.0279C8.90791 17.0279 8.83325 17.0139 8.76791 16.9859C8.71191 16.9486 8.68391 16.8972 8.68391 16.8319C8.68391 16.7479 8.71658 16.6826 8.78191 16.6359C8.84725 16.5892 8.92658 16.5566 9.01991 16.5379C9.36525 16.4632 9.61725 16.3652 9.77591 16.2439C9.93458 16.1226 9.98591 15.9406 9.92991 15.6979C9.89258 15.5206 9.84591 15.3339 9.78991 15.1379C9.73391 14.9419 9.67791 14.7459 9.62191 14.5499C9.57525 14.3446 9.52391 14.1486 9.46791 13.9619C9.44925 13.8872 9.42591 13.8312 9.39791 13.7939C9.36991 13.7566 9.31391 13.7379 9.22991 13.7379H6.75191C6.68658 13.7379 6.63525 13.7566 6.59791 13.7939C6.56058 13.8312 6.53258 13.8919 6.51391 13.9759C6.47658 14.1066 6.43458 14.2372 6.38791 14.3679C6.34125 14.4986 6.29458 14.6292 6.24791 14.7599C6.21058 14.8906 6.17325 15.0212 6.13591 15.1519C6.09858 15.2826 6.06125 15.4086 6.02391 15.5299C5.95858 15.8099 5.98658 16.0246 6.10791 16.1739C6.22925 16.3232 6.49058 16.4446 6.89191 16.5379C7.11591 16.5846 7.22791 16.6826 7.22791 16.8319C7.22791 16.8972 7.19991 16.9486 7.14391 16.9859C7.09725 17.0139 7.01791 17.0279 6.90591 17.0279C6.63525 17.0279 6.38325 17.0186 6.14991 16.9999C5.91658 16.9906 5.65991 16.9859 5.37991 16.9859C5.09991 16.9859 4.83391 16.9999 4.58191 17.0279C4.32991 17.0559 4.05925 17.0699 3.76991 17.0699ZM7.14391 12.9819H8.96391C9.10391 12.9819 9.17391 12.9492 9.17391 12.8839C9.17391 12.8559 9.16925 12.8326 9.15991 12.8139C9.15991 12.7952 9.15525 12.7719 9.14591 12.7439L8.20791 9.57994C8.17991 9.47727 8.15191 9.42594 8.12391 9.42594C8.10525 9.42594 8.07258 9.47727 8.02591 9.57994L6.91991 12.7439C6.90125 12.7812 6.89191 12.8186 6.89191 12.8559C6.89191 12.9026 6.91525 12.9352 6.96191 12.9539C7.01791 12.9726 7.07858 12.9819 7.14391 12.9819ZM16.5621 21.0459C15.6474 21.0459 14.9334 20.9012 14.4201 20.6119C13.9161 20.3319 13.6641 19.9446 13.6641 19.4499C13.6641 19.1699 13.6968 18.9412 13.7621 18.7639C13.8274 18.5959 13.9768 18.4279 14.2101 18.2599C14.3874 18.1292 14.5601 17.9986 14.7281 17.8679C14.8961 17.7372 15.0408 17.6299 15.1621 17.5459L15.8481 17.7839C15.5588 17.9519 15.3301 18.1339 15.1621 18.3299C15.0034 18.5259 14.9241 18.7546 14.9241 19.0159C14.9241 19.3986 15.0828 19.7159 15.4001 19.9679C15.7268 20.2199 16.1328 20.3459 16.6181 20.3459C17.2621 20.3459 17.7194 20.2199 17.9901 19.9679C18.1581 19.7999 18.2934 19.6086 18.3961 19.3939C18.4988 19.1886 18.5501 18.9786 18.5501 18.7639C18.5501 18.6146 18.4988 18.4932 18.3961 18.3999C18.2934 18.3066 18.1068 18.2272 17.8361 18.1619C17.5748 18.0966 17.2061 18.0406 16.7301 17.9939C15.7594 17.9006 15.0688 17.7186 14.6581 17.4479C14.2474 17.1772 14.0421 16.8179 14.0421 16.3699C14.0421 16.2859 14.0654 16.2019 14.1121 16.1179C14.1681 16.0246 14.2708 15.9266 14.4201 15.8239C14.5694 15.7119 14.7048 15.6139 14.8261 15.5299C14.9474 15.4366 15.0501 15.3526 15.1341 15.2779C15.2181 15.1939 15.2741 15.1192 15.3021 15.0539L16.0021 15.2919C15.8154 15.3572 15.6614 15.4459 15.5401 15.5579C15.4281 15.6699 15.3721 15.7679 15.3721 15.8519C15.3721 15.9546 15.4328 16.0386 15.5541 16.1039C15.6754 16.1692 15.8808 16.2252 16.1701 16.2719C16.4594 16.3092 16.8561 16.3466 17.3601 16.3839C18.3681 16.4679 19.1008 16.6266 19.5581 16.8599C20.0154 17.0839 20.2441 17.4152 20.2441 17.8539C20.2441 18.2366 20.1368 18.6146 19.9221 18.9879C19.7074 19.3706 19.4228 19.7159 19.0681 20.0239C18.7134 20.3412 18.3168 20.5886 17.8781 20.7659C17.4488 20.9526 17.0101 21.0459 16.5621 21.0459ZM16.7441 15.0399C17.0428 15.0399 17.2761 14.8766 17.4441 14.5499C17.6214 14.2139 17.7101 13.7752 17.7101 13.2339C17.7101 12.8886 17.6634 12.5899 17.5701 12.3379C17.4861 12.0766 17.3694 11.8759 17.2201 11.7359C17.0708 11.5866 16.8934 11.5119 16.6881 11.5119C16.5108 11.5119 16.3474 11.5866 16.1981 11.7359C16.0488 11.8852 15.9274 12.0859 15.8341 12.3379C15.7501 12.5806 15.7081 12.8652 15.7081 13.1919C15.7081 13.5372 15.7548 13.8499 15.8481 14.1299C15.9414 14.4099 16.0674 14.6339 16.2261 14.8019C16.3848 14.9606 16.5574 15.0399 16.7441 15.0399ZM16.5901 15.6559C16.1794 15.6559 15.7734 15.5579 15.3721 15.3619C14.9801 15.1566 14.6534 14.8766 14.3921 14.5219C14.1401 14.1672 14.0141 13.7706 14.0141 13.3319C14.0141 12.8652 14.1448 12.4499 14.4061 12.0859C14.6768 11.7219 15.0268 11.4419 15.4561 11.2459C15.8948 11.0406 16.3568 10.9379 16.8421 10.9379C17.1314 10.9379 17.4021 10.9706 17.6541 11.0359C17.9154 11.1012 18.2001 11.1572 18.5081 11.2039C18.6854 11.2412 18.8628 11.2692 19.0401 11.2879C19.2174 11.3066 19.4134 11.3159 19.6281 11.3159C19.7681 11.3159 19.9081 11.3112 20.0481 11.3019C20.1881 11.2832 20.3048 11.2739 20.3981 11.2739C20.5474 11.2739 20.6221 11.3766 20.6221 11.5819C20.6221 11.7592 20.5614 11.9272 20.4401 12.0859C20.3841 12.1512 20.3234 12.1839 20.2581 12.1839H19.8801C19.6374 12.1839 19.4741 12.2212 19.3901 12.2959C19.3714 12.3146 19.3574 12.3379 19.3481 12.3659C19.3388 12.3846 19.3294 12.4359 19.3201 12.5199C19.3201 12.5946 19.3201 12.7392 19.3201 12.9539C19.3201 13.4392 19.1941 13.8872 18.9421 14.2979C18.6901 14.7086 18.3588 15.0399 17.9481 15.2919C17.5374 15.5346 17.0848 15.6559 16.5901 15.6559Z" fill="white"/>
</svg>
