<svg width="24" height="24" viewBox="0 0 24 24" fill="none" xmlns="http://www.w3.org/2000/svg">
<path d="M11.8389 16.9999C11.4189 16.9999 11.1669 16.9719 11.0829 16.9159C11.0083 16.8599 10.9336 16.6732 10.8589 16.3559L10.2429 13.5699H8.11495L7.35895 16.9999C7.20961 16.9999 7.07895 16.9999 6.96695 16.9999C6.85495 16.9999 6.76161 16.9906 6.68695 16.9719C6.61228 16.9532 6.56561 16.9299 6.54695 16.9019C6.52828 16.8739 6.51895 16.8272 6.51895 16.7619C6.51895 16.6966 7.25628 13.4159 8.73095 6.91992H9.62695L11.9089 16.9999H11.8389ZM10.1449 12.7999L10.0189 12.4499L9.31895 8.71192H9.05295L8.36695 12.4499L8.24095 12.7999H10.1449ZM15.1509 19.7999H14.5209C14.1756 19.7999 13.9703 19.7719 13.9049 19.7159C13.8489 19.6599 13.8209 19.4686 13.8209 19.1419L15.1509 19.0439C15.6643 19.0439 15.9863 18.9506 16.1169 18.7639C16.1823 18.6519 16.2196 18.5399 16.2289 18.4279C16.2476 18.3252 16.2569 18.1806 16.2569 17.9939C16.2569 17.8072 16.2476 17.6719 16.2289 17.5879C16.2196 17.5039 16.1823 17.4199 16.1169 17.3359C16.0049 17.1772 15.6969 17.0979 15.1929 17.0979C14.0916 17.0979 13.4429 17.0466 13.2469 16.9439C13.0603 16.8412 12.9669 16.5286 12.9669 16.0059C12.9669 15.4832 13.0229 15.1192 13.1349 14.9139C13.2563 14.6992 13.4383 14.5359 13.6809 14.4239C13.4103 14.2279 13.2236 13.9946 13.1209 13.7239C13.0183 13.4439 12.9669 13.0146 12.9669 12.4359C12.9669 11.8572 12.9716 11.4559 12.9809 11.2319C12.9996 11.0079 13.0323 10.7792 13.0789 10.5459C13.1256 10.3126 13.1909 10.1352 13.2749 10.0139C13.3683 9.89259 13.4896 9.77592 13.6389 9.66392C13.9096 9.47725 14.3716 9.38392 15.0249 9.38392H17.1949C17.1949 9.72925 17.1623 9.93459 17.0969 9.99992C17.0409 10.0559 16.8356 10.0839 16.4809 10.0839C16.6303 10.3639 16.7189 10.6252 16.7469 10.8679C16.7749 11.1106 16.7889 11.6006 16.7889 12.3379C16.7889 13.0752 16.7749 13.5606 16.7469 13.7939C16.7189 14.0179 16.6443 14.2326 16.5229 14.4379C16.4109 14.6432 16.2336 14.7879 15.9909 14.8719C15.7576 14.9466 15.4823 14.9839 15.1649 14.9839C14.8476 14.9839 14.6236 14.9886 14.4929 14.9979C14.3623 14.9979 14.2456 15.0119 14.1429 15.0399C14.0403 15.0679 13.9656 15.0959 13.9189 15.1239C13.8723 15.1426 13.8349 15.1939 13.8069 15.2779C13.7789 15.3619 13.7649 15.4319 13.7649 15.4879V15.9219C13.7649 16.1086 13.8349 16.2206 13.9749 16.2579C14.1149 16.2952 14.5489 16.3139 15.2769 16.3139C16.0049 16.3139 16.4809 16.4072 16.7049 16.5939C16.9383 16.7806 17.0549 17.2286 17.0549 17.9379C17.0549 18.6566 16.9383 19.1466 16.7049 19.4079C16.4716 19.6692 15.9536 19.7999 15.1509 19.7999ZM13.7929 12.0579C13.7929 12.8792 13.8676 13.4486 14.0169 13.7659C14.1756 14.0832 14.4976 14.2419 14.9829 14.2419C15.4683 14.2419 15.7623 14.1252 15.8649 13.8919C15.9676 13.6586 16.0189 13.1126 16.0189 12.2539C16.0189 11.3952 15.9816 10.8586 15.9069 10.6439C15.7856 10.2986 15.4729 10.1259 14.9689 10.1259C14.4649 10.1259 14.1429 10.2426 14.0029 10.4759C13.8629 10.7092 13.7929 11.2366 13.7929 12.0579Z" fill="white"/>
</svg>
