<svg width="24" height="24" viewBox="0 0 24 24" fill="none" xmlns="http://www.w3.org/2000/svg">
<path d="M3.95941 16L7.64141 7.08196L8.43941 7.43196L5.07941 16H3.95941ZM11.0714 16L7.50141 6.94196L8.60741 6.56396L12.4854 16H11.0714ZM5.98941 13.186V12.332H10.0634V13.186H5.98941ZM3.24541 16L3.16141 15.552C3.37607 15.4493 3.60007 15.3607 3.83341 15.286C4.07607 15.202 4.31407 15.1273 4.54741 15.062L4.56141 16H3.24541ZM4.89741 16L4.93941 15.118L6.87141 15.342L6.85741 16H4.89741ZM9.41941 16L9.33541 15.552C9.55007 15.4493 9.77407 15.3607 10.0074 15.286C10.2501 15.202 10.4881 15.1273 10.7214 15.062L11.4634 16H9.41941ZM11.2114 16L11.2534 15.118L13.1854 15.342L13.1714 16H11.2114ZM15.996 19.234C15.632 19.234 15.2867 19.192 14.96 19.108C14.6333 19.024 14.344 18.898 14.092 18.73C13.84 18.562 13.6487 18.352 13.518 18.1C13.3967 17.8573 13.3547 17.5727 13.392 17.246L15.534 15.272L16.696 15.314C16.3507 15.5007 16.01 15.7107 15.674 15.944C15.3473 16.1773 15.072 16.4153 14.848 16.658C14.6333 16.9007 14.526 17.1247 14.526 17.33C14.526 17.5633 14.6707 17.75 14.96 17.89C15.2587 18.03 15.632 18.1 16.08 18.1C16.4627 18.1 16.8547 18.044 17.256 17.932C17.6573 17.8293 18.026 17.666 18.362 17.442C18.698 17.2273 18.9547 16.9567 19.132 16.63C18.852 16.462 18.432 16.3033 17.872 16.154C17.3213 16.014 16.7007 15.8973 16.01 15.804C15.3287 15.7107 14.6427 15.6593 13.952 15.65L13.7 14.992C13.8867 14.768 14.1013 14.5393 14.344 14.306C14.596 14.0633 14.8527 13.844 15.114 13.648C15.3753 13.452 15.6087 13.3073 15.814 13.214L16.486 13.438C16.2247 13.6153 15.954 13.816 15.674 14.04C15.4033 14.264 15.184 14.4693 15.016 14.656C15.352 14.6653 15.7347 14.698 16.164 14.754C16.6027 14.8007 17.046 14.8707 17.494 14.964C17.9513 15.0573 18.3853 15.16 18.796 15.272C19.216 15.3747 19.58 15.4867 19.888 15.608C19.9813 16.056 19.9767 16.4667 19.874 16.84C19.7713 17.2133 19.5893 17.5493 19.328 17.848C19.076 18.1467 18.768 18.3987 18.404 18.604C18.0493 18.8093 17.662 18.9633 17.242 19.066C16.8313 19.178 16.416 19.234 15.996 19.234ZM16.486 13.844C16.0287 13.844 15.576 13.7553 15.128 13.578C14.68 13.4007 14.3067 13.1347 14.008 12.78C13.7187 12.4253 13.574 11.982 13.574 11.45C13.574 10.9273 13.7187 10.4887 14.008 10.134C14.2973 9.77929 14.666 9.5133 15.114 9.33597C15.562 9.1493 16.0193 9.05596 16.486 9.05596C16.9713 9.05596 17.4333 9.1493 17.872 9.33597C18.3107 9.52264 18.67 9.79796 18.95 10.162C19.2393 10.5167 19.384 10.9553 19.384 11.478C19.384 12.0007 19.2347 12.4393 18.936 12.794C18.6467 13.1487 18.278 13.4147 17.83 13.592C17.3913 13.76 16.9433 13.844 16.486 13.844ZM17.424 12.948C17.6853 12.7333 17.8627 12.5047 17.956 12.262C18.0493 12.0193 18.096 11.7907 18.096 11.576C18.096 11.2773 18.0213 10.9973 17.872 10.736C17.732 10.4653 17.536 10.246 17.284 10.078C17.032 9.90996 16.738 9.8213 16.402 9.81196C16.066 9.79329 15.7067 9.88196 15.324 10.078C15.1467 10.2927 15.0253 10.5073 14.96 10.722C14.8947 10.9367 14.862 11.1513 14.862 11.366C14.862 11.7953 14.9647 12.164 15.17 12.472C15.3753 12.78 15.6693 12.9853 16.052 13.088C16.4347 13.1813 16.892 13.1347 17.424 12.948ZM18.096 10.596C18.1053 10.288 18.1613 10.0127 18.264 9.76997C18.376 9.51797 18.5207 9.3033 18.698 9.12597C18.8753 8.9393 19.076 8.78529 19.3 8.66396C19.524 8.54263 19.762 8.45863 20.014 8.41196L20.28 9.86796C19.5707 9.86796 18.9547 10.064 18.432 10.456L18.096 10.596Z" fill="white"/>
</svg>
