<svg width="24" height="24" viewBox="0 0 24 24" fill="none" xmlns="http://www.w3.org/2000/svg">
<path d="M3.78102 16.0001L7.46302 7.05406L8.44302 7.37606L5.11102 16.0001H3.78102ZM10.739 16.0001L7.22502 6.94206L8.69502 6.50806L12.573 16.0001H10.739ZM5.85302 13.3261V12.3601H10.067V13.3261H5.85302ZM3.09502 16.0001L3.01102 15.5521C3.22568 15.4308 3.44968 15.3234 3.68302 15.2301C3.91635 15.1368 4.15435 15.0528 4.39702 14.9781L4.41102 16.0001H3.09502ZM4.84502 16.0001L4.88702 15.0621L6.81902 15.3141L6.80502 16.0001H4.84502ZM9.15702 16.0001L9.07302 15.5521C9.27835 15.4308 9.49768 15.3234 9.73102 15.2301C9.97368 15.1368 10.2163 15.0528 10.459 14.9781L11.047 16.0001H9.15702ZM11.271 16.0001L11.313 15.0621L13.245 15.3141L13.231 16.0001H11.271ZM16.052 19.3041C15.6973 19.3041 15.352 19.2621 15.016 19.1781C14.6893 19.1034 14.3907 18.9821 14.12 18.8141C13.8587 18.6461 13.6533 18.4314 13.504 18.1701C13.3547 17.9181 13.2847 17.6148 13.294 17.2601L15.45 15.3001H16.668C16.3227 15.4868 16.0007 15.6874 15.702 15.9021C15.4033 16.1168 15.156 16.3314 14.96 16.5461C14.7733 16.7701 14.68 16.9754 14.68 17.1621C14.68 17.4141 14.8293 17.6101 15.128 17.7501C15.4267 17.8901 15.7953 17.9601 16.234 17.9601C16.5887 17.9601 16.948 17.9134 17.312 17.8201C17.6853 17.7268 18.0213 17.5821 18.32 17.3861C18.628 17.1994 18.866 16.9661 19.034 16.6861C18.726 16.5274 18.2967 16.3781 17.746 16.2381C17.1953 16.1074 16.584 16.0001 15.912 15.9161C15.2493 15.8228 14.582 15.7668 13.91 15.7481L13.644 14.9641C13.84 14.7401 14.0593 14.5161 14.302 14.2921C14.554 14.0588 14.8107 13.8488 15.072 13.6621C15.3333 13.4754 15.5807 13.3261 15.814 13.2141L16.556 13.4521C16.304 13.6108 16.052 13.7928 15.8 13.9981C15.5573 14.1941 15.3567 14.3761 15.198 14.5441C15.5527 14.5534 15.9447 14.5814 16.374 14.6281C16.8033 14.6748 17.2373 14.7448 17.676 14.8381C18.1147 14.9221 18.5393 15.0154 18.95 15.1181C19.3607 15.2208 19.7247 15.3281 20.042 15.4401C20.1633 15.8788 20.1773 16.2894 20.084 16.6721C20 17.0548 19.832 17.4094 19.58 17.7361C19.328 18.0628 19.0153 18.3428 18.642 18.5761C18.2687 18.8094 17.858 18.9868 17.41 19.1081C16.9713 19.2388 16.5187 19.3041 16.052 19.3041ZM16.528 13.8301C15.9867 13.8301 15.4873 13.7368 15.03 13.5501C14.5727 13.3541 14.204 13.0788 13.924 12.7241C13.644 12.3601 13.504 11.9354 13.504 11.4501C13.504 10.9554 13.644 10.5261 13.924 10.1621C14.204 9.79806 14.5773 9.51806 15.044 9.32206C15.5107 9.11673 16.01 9.01406 16.542 9.01406C17.0833 9.01406 17.5827 9.11206 18.04 9.30806C18.4973 9.50406 18.866 9.78406 19.146 10.1481C19.4353 10.5121 19.58 10.9461 19.58 11.4501C19.58 11.9448 19.4353 12.3741 19.146 12.7381C18.8567 13.0928 18.4787 13.3634 18.012 13.5501C17.5547 13.7368 17.06 13.8301 16.528 13.8301ZM17.326 12.8781C17.5593 12.7008 17.718 12.4954 17.802 12.2621C17.886 12.0194 17.928 11.7861 17.928 11.5621C17.928 11.2914 17.8673 11.0348 17.746 10.7921C17.6247 10.5401 17.4567 10.3348 17.242 10.1761C17.0367 10.0081 16.7893 9.91473 16.5 9.89606C16.2107 9.86806 15.898 9.93339 15.562 10.0921C15.4127 10.2694 15.3053 10.4701 15.24 10.6941C15.1747 10.9181 15.142 11.1421 15.142 11.3661C15.142 11.7581 15.226 12.0988 15.394 12.3881C15.5713 12.6681 15.8233 12.8594 16.15 12.9621C16.4767 13.0648 16.8687 13.0368 17.326 12.8781ZM18.25 10.7081C18.2313 10.4001 18.264 10.1108 18.348 9.84006C18.432 9.56939 18.558 9.33139 18.726 9.12606C18.894 8.91139 19.0993 8.73406 19.342 8.59406C19.5847 8.45406 19.8647 8.36539 20.182 8.32806L20.49 9.95206C19.7527 9.91473 19.1133 10.1061 18.572 10.5261L18.25 10.7081Z" fill="white"/>
</svg>
