<svg width="24" height="24" viewBox="0 0 24 24" fill="none" xmlns="http://www.w3.org/2000/svg">
<path d="M10.8699 16.9999L10.2399 14.4169H7.25787L6.63487 16.9999H4.27586L6.94987 6.63989H10.5829L13.2569 16.9999H10.8699ZM7.74787 12.3589H9.74287L8.74187 8.22889L7.74787 12.3589ZM16.1803 20.2199C15.8396 20.2199 15.4756 20.1989 15.0883 20.1569C14.7009 20.1149 14.3463 20.0542 14.0243 19.9749V18.0709C14.6823 18.2482 15.3286 18.3369 15.9633 18.3369C16.5559 18.3369 16.9922 18.2062 17.2722 17.9449C17.5569 17.6882 17.6993 17.2542 17.6993 16.6429V16.1809H17.5803C17.4263 16.4656 17.2163 16.6872 16.9503 16.8459C16.6843 16.9999 16.3739 17.0769 16.0193 17.0769C15.5713 17.0769 15.1559 16.9439 14.7733 16.6779C14.3906 16.4119 14.0803 15.9966 13.8423 15.4319C13.6043 14.8626 13.4853 14.1532 13.4853 13.3039C13.4853 11.9506 13.8049 10.9286 14.4443 10.2379C15.0883 9.54722 16.0916 9.19956 17.4543 9.19489C17.9023 9.19489 18.3596 9.23222 18.8263 9.30689C19.2976 9.38156 19.7199 9.48889 20.0933 9.62889V16.2229C20.0933 17.6182 19.7713 18.6332 19.1273 19.2679C18.4833 19.9026 17.5009 20.2199 16.1803 20.2199ZM17.0623 15.0959C17.1789 15.0959 17.2933 15.0772 17.4053 15.0399C17.5219 14.9979 17.6199 14.9419 17.6993 14.8719V11.0639C17.5126 11.0359 17.3586 11.0219 17.2373 11.0219C16.9479 11.0219 16.7076 11.0849 16.5163 11.2109C16.3249 11.3322 16.1779 11.5446 16.0753 11.8479C15.9773 12.1512 15.9283 12.5642 15.9283 13.0869C15.9283 13.6189 15.9703 14.0319 16.0543 14.3259C16.1383 14.6152 16.2619 14.8159 16.4253 14.9279C16.5886 15.0399 16.8009 15.0959 17.0623 15.0959Z" fill="white"/>
</svg>
