<svg width="24" height="24" viewBox="0 0 24 24" fill="none" xmlns="http://www.w3.org/2000/svg">
<path d="M4.36819 16.9999L7.72819 6.63989H9.78619L13.1392 16.9999H11.7112L8.63819 7.30489H8.84119L5.78219 16.9999H4.36819ZM6.22319 13.8149L6.53119 12.6179H10.9762L11.2842 13.8149H6.22319ZM16.3953 20.2199C16.0639 20.2199 15.7069 20.1942 15.3243 20.1429C14.9463 20.0916 14.5939 20.0146 14.2673 19.9119V18.7569C14.6313 18.8689 14.9813 18.9506 15.3173 19.0019C15.6579 19.0532 15.9846 19.0789 16.2973 19.0789C17.0206 19.0789 17.5596 18.9179 17.9143 18.5959C18.2689 18.2786 18.4463 17.7256 18.4463 16.9369V16.2159H18.3693C18.1779 16.4726 17.9236 16.6826 17.6063 16.8459C17.2889 17.0092 16.9203 17.0909 16.5003 17.0909C16.0196 17.0909 15.5716 16.9696 15.1563 16.7269C14.7456 16.4842 14.4143 16.0899 14.1623 15.5439C13.9103 14.9932 13.7843 14.2606 13.7843 13.3459C13.7843 11.9786 14.0993 10.9566 14.7293 10.2799C15.3639 9.60322 16.3066 9.26489 17.5573 9.26489C17.8093 9.26489 18.0706 9.28122 18.3413 9.31389C18.6166 9.34189 18.8826 9.38156 19.1393 9.43289C19.4006 9.48422 19.6386 9.54722 19.8533 9.62189V16.7129C19.8533 17.9636 19.5639 18.8596 18.9853 19.4009C18.4066 19.9469 17.5433 20.2199 16.3953 20.2199ZM16.9833 15.9009C17.2586 15.9009 17.5293 15.8426 17.7953 15.7259C18.0613 15.6046 18.2783 15.4226 18.4463 15.1799V10.5039C18.3156 10.4712 18.1593 10.4432 17.9773 10.4199C17.7999 10.3966 17.6226 10.3849 17.4453 10.3849C16.7313 10.3849 16.1806 10.5996 15.7933 11.0289C15.4106 11.4536 15.2193 12.1816 15.2193 13.2129C15.2193 13.9269 15.2939 14.4799 15.4433 14.8719C15.5973 15.2592 15.8073 15.5276 16.0733 15.6769C16.3393 15.8262 16.6426 15.9009 16.9833 15.9009Z" fill="white"/>
</svg>
