<svg width="24" height="24" viewBox="0 0 24 24" fill="none" xmlns="http://www.w3.org/2000/svg">
<path d="M3.69049 16.9999L8.10049 6.63989H8.70249L13.1125 16.9999H12.5805L8.31049 6.91989H8.47849L4.20849 16.9999H3.69049ZM5.60849 13.3039L5.74849 12.8419H11.0545L11.1945 13.3039H5.60849ZM18.9743 17.0559C17.9477 17.0559 17.0843 16.8996 16.3843 16.5869C15.6843 16.2742 15.1547 15.8076 14.7953 15.1869C14.436 14.5616 14.2563 13.7799 14.2563 12.8419C14.2563 11.8432 14.45 11.0312 14.8373 10.4059C15.2293 9.77589 15.759 9.31389 16.4263 9.01989C17.0937 8.72122 17.845 8.57189 18.6803 8.57189C19.0957 8.57189 19.497 8.59756 19.8843 8.64889C20.2717 8.70022 20.6357 8.77256 20.9763 8.86589V9.34189C20.5377 9.22056 20.1363 9.13656 19.7723 9.08989C19.413 9.04322 19.0537 9.01989 18.6943 9.01989C17.943 9.01989 17.271 9.14822 16.6783 9.40489C16.0857 9.66156 15.6167 10.0699 15.2713 10.6299C14.9307 11.1852 14.7603 11.9179 14.7603 12.8279C14.7603 13.6772 14.919 14.3842 15.2363 14.9489C15.5537 15.5089 16.025 15.9289 16.6503 16.2089C17.2757 16.4842 18.0503 16.6219 18.9743 16.6219C19.3103 16.6219 19.651 16.6079 19.9963 16.5799C20.3417 16.5519 20.6497 16.5099 20.9203 16.4539L20.7383 16.6919V12.9539H21.2143V16.8879C20.8363 16.9439 20.456 16.9859 20.0733 17.0139C19.6907 17.0419 19.3243 17.0559 18.9743 17.0559Z" fill="white"/>
</svg>
