<svg width="24" height="24" viewBox="0 0 24 24" fill="none" xmlns="http://www.w3.org/2000/svg">
<path d="M12.3813 16.9999L10.8133 13.3039H5.57727L4.00927 16.9999H3.49127L7.90127 6.63989H8.50327L12.9133 16.9999H12.3813ZM5.77327 12.8419H10.6173L8.19527 7.11589L5.77327 12.8419ZM17.0251 20.2199C16.6565 20.2199 16.2528 20.1826 15.8141 20.1079C15.3755 20.0379 14.9811 19.9399 14.6311 19.8139V19.3379C15.4711 19.6179 16.2738 19.7579 17.0391 19.7579C17.7298 19.7579 18.2898 19.6622 18.7191 19.4709C19.1485 19.2842 19.4681 18.9786 19.6781 18.5539C19.8881 18.1292 19.9931 17.5599 19.9931 16.8459V16.1179H19.9511C19.6431 16.4352 19.2698 16.6826 18.8311 16.8599C18.3971 17.0372 17.9165 17.1259 17.3891 17.1259C16.7498 17.1259 16.1875 16.9976 15.7021 16.7409C15.2168 16.4842 14.8341 16.0782 14.5541 15.5229C14.2788 14.9629 14.1411 14.2466 14.1411 13.3739C14.1411 10.6766 15.4571 9.32789 18.0891 9.32789C18.8918 9.32789 19.6851 9.43989 20.4691 9.66389V16.8039C20.4691 17.6112 20.3408 18.2669 20.0841 18.7709C19.8321 19.2749 19.4518 19.6412 18.9431 19.8699C18.4391 20.1032 17.7998 20.2199 17.0251 20.2199ZM17.4171 16.6639C17.9165 16.6639 18.3901 16.5706 18.8381 16.3839C19.2861 16.1926 19.6711 15.8986 19.9931 15.5019V10.0279C19.4238 9.86922 18.7705 9.78989 18.0331 9.78989C16.9038 9.78989 16.0568 10.0792 15.4921 10.6579C14.9275 11.2319 14.6451 12.1186 14.6451 13.3179C14.6451 14.4939 14.8925 15.3456 15.3871 15.8729C15.8865 16.4002 16.5631 16.6639 17.4171 16.6639Z" fill="white"/>
</svg>
