<svg width="24" height="24" viewBox="0 0 24 24" fill="none" xmlns="http://www.w3.org/2000/svg">
<path d="M3.50314 16.9999L7.67514 6.63989H8.27714L12.4561 16.9999H11.9241L7.88514 6.91989H8.05314L4.01414 16.9999H3.50314ZM5.32314 13.3039L5.46314 12.8419H10.4891L10.6291 13.3039H5.32314ZM16.2661 20.2199C15.9348 20.2199 15.5638 20.1872 15.1531 20.1219C14.7471 20.0566 14.3785 19.9609 14.0471 19.8349V19.3589C14.4531 19.4989 14.8381 19.5992 15.2021 19.6599C15.5708 19.7252 15.9301 19.7579 16.2801 19.7579C17.2135 19.7579 17.9065 19.5502 18.3591 19.1349C18.8118 18.7242 19.0381 18.0009 19.0381 16.9649V16.1599H18.9961C18.7301 16.4446 18.3965 16.6779 17.9951 16.8599C17.5938 17.0372 17.1388 17.1259 16.6301 17.1259C16.0608 17.1259 15.5451 17.0069 15.0831 16.7689C14.6211 16.5262 14.2525 16.1296 13.9771 15.5789C13.7065 15.0282 13.5711 14.2932 13.5711 13.3739C13.5711 11.9972 13.8908 10.9799 14.5301 10.3219C15.1695 9.65922 16.1028 9.32789 17.3301 9.32789C17.5775 9.32789 17.8248 9.34189 18.0721 9.36989C18.3241 9.39322 18.5691 9.42822 18.8071 9.47489C19.0498 9.51689 19.2855 9.57289 19.5141 9.64289V16.9229C19.5141 18.1082 19.2411 18.9529 18.6951 19.4569C18.1491 19.9656 17.3395 20.2199 16.2661 20.2199ZM16.6581 16.6639C17.0968 16.6639 17.5285 16.5729 17.9531 16.3909C18.3778 16.2042 18.7395 15.9126 19.0381 15.5159V9.99989C18.8141 9.93922 18.5505 9.89022 18.2471 9.85289C17.9485 9.81089 17.6288 9.78989 17.2881 9.78989C16.2335 9.78989 15.4331 10.0699 14.8871 10.6299C14.3458 11.1899 14.0751 12.0859 14.0751 13.3179C14.0751 14.1672 14.1871 14.8346 14.4111 15.3199C14.6398 15.8052 14.9478 16.1506 15.3351 16.3559C15.7271 16.5612 16.1681 16.6639 16.6581 16.6639Z" fill="white"/>
</svg>
