<svg width="24" height="24" viewBox="0 0 24 24" fill="none" xmlns="http://www.w3.org/2000/svg">
<path d="M1.237 16.9999L4.877 6.63989H9.693L13.333 16.9999H10.085L7.131 8.01189H7.411L4.457 16.9999H1.237ZM4.625 14.6619L5.395 12.2119H9.161L9.917 14.6619H4.625ZM20.3034 17.1259C18.838 17.1259 17.6317 16.9626 16.6844 16.6359C15.737 16.3092 15.0347 15.8309 14.5774 15.2009C14.12 14.5709 13.8914 13.7986 13.8914 12.8839C13.8914 12.0299 14.1224 11.2786 14.5844 10.6299C15.0464 9.97656 15.758 9.46789 16.7194 9.10389C17.6854 8.73989 18.922 8.55789 20.4294 8.55789C20.7794 8.55789 21.1457 8.57189 21.5284 8.59989C21.9157 8.62322 22.2634 8.66056 22.5714 8.71189V11.1759C22.3147 11.1386 22.0207 11.1059 21.6894 11.0779C21.3627 11.0499 21.0267 11.0359 20.6814 11.0359C19.8227 11.0359 19.1507 11.1129 18.6654 11.2669C18.18 11.4209 17.837 11.6402 17.6364 11.9249C17.4357 12.2096 17.3354 12.5479 17.3354 12.9399C17.3354 13.2806 17.4264 13.5816 17.6084 13.8429C17.7904 14.1042 18.075 14.3096 18.4624 14.4589C18.8544 14.6036 19.3654 14.6759 19.9954 14.6759C20.2474 14.6759 20.5274 14.6666 20.8354 14.6479C21.1434 14.6246 21.4234 14.5966 21.6754 14.5639L19.8694 16.0199V12.9539H22.9354V16.8879C22.5014 16.9579 22.058 17.0139 21.6054 17.0559C21.1574 17.1026 20.7234 17.1259 20.3034 17.1259Z" fill="white"/>
</svg>
