<svg width="24" height="24" viewBox="0 0 24 24" fill="none" xmlns="http://www.w3.org/2000/svg">
<path d="M12.8003 16.9999L11.3723 13.3879H6.48628L5.05828 16.9999H4.39328L8.51628 6.63989H9.35628L13.4793 16.9999H12.8003ZM6.71728 12.8069H11.1413L8.92928 7.20689L6.71728 12.8069ZM17.301 20.2199C16.9463 20.2199 16.5613 20.1849 16.146 20.1149C15.7353 20.0496 15.3643 19.9586 15.033 19.8419V19.2539C15.8216 19.5152 16.5753 19.6459 17.294 19.6459C17.924 19.6459 18.4373 19.5572 18.834 19.3799C19.2306 19.2072 19.527 18.9202 19.723 18.5189C19.919 18.1222 20.017 17.5926 20.017 16.9299V16.1599H19.968C19.688 16.4539 19.3473 16.6872 18.946 16.8599C18.5446 17.0326 18.1013 17.1189 17.616 17.1189C17.0186 17.1189 16.4913 16.9929 16.034 16.7409C15.5813 16.4889 15.222 16.0829 14.956 15.5229C14.69 14.9629 14.557 14.2442 14.557 13.3669C14.557 12.0136 14.879 11.0009 15.523 10.3289C16.167 9.65689 17.119 9.32089 18.379 9.32089C19.1676 9.32089 19.9236 9.42822 20.647 9.64289V16.8599C20.647 18.0406 20.3716 18.8946 19.821 19.4219C19.2703 19.9539 18.4303 20.2199 17.301 20.2199ZM17.721 16.5379C18.1643 16.5379 18.5866 16.4492 18.988 16.2719C19.394 16.0899 19.737 15.8169 20.017 15.4529V10.0909C19.4943 9.95556 18.9296 9.88789 18.323 9.88789C17.287 9.88789 16.5076 10.1656 15.985 10.7209C15.467 11.2716 15.208 12.1326 15.208 13.3039C15.208 14.4612 15.432 15.2896 15.88 15.7889C16.328 16.2882 16.9416 16.5379 17.721 16.5379Z" fill="white"/>
</svg>
