<svg width="24" height="24" viewBox="0 0 24 24" fill="none" xmlns="http://www.w3.org/2000/svg">
<path d="M4.42642 16.9999L6.97442 6.63989H11.0904L13.6384 16.9999H10.9504L8.87842 7.85789H9.13042L7.08642 16.9999H4.42642ZM6.20442 14.5919L6.70842 12.2819H11.3424L11.8464 14.5919H6.20442ZM18.9359 17.1259C17.8439 17.1259 16.9292 16.9672 16.1919 16.6499C15.4592 16.3326 14.9062 15.8566 14.5329 15.2219C14.1642 14.5872 13.9799 13.7939 13.9799 12.8419C13.9799 11.9319 14.1689 11.1572 14.5469 10.5179C14.9249 9.87856 15.4849 9.39322 16.2269 9.06189C16.9736 8.72589 17.8952 8.55789 18.9919 8.55789C19.3699 8.55789 19.7106 8.57422 20.0139 8.60689C20.3172 8.63489 20.6019 8.68389 20.8679 8.75389V10.8959C20.6299 10.8399 20.3826 10.7956 20.1259 10.7629C19.8692 10.7302 19.6032 10.7139 19.3279 10.7139C18.7166 10.7139 18.2266 10.7839 17.8579 10.9239C17.4892 11.0639 17.2209 11.2926 17.0529 11.6099C16.8896 11.9226 16.8079 12.3426 16.8079 12.8699C16.8079 13.3786 16.8802 13.7892 17.0249 14.1019C17.1696 14.4099 17.3749 14.6339 17.6409 14.7739C17.9116 14.9139 18.2359 14.9839 18.6139 14.9839C18.7539 14.9839 18.8986 14.9792 19.0479 14.9699C19.1972 14.9559 19.3232 14.9466 19.4259 14.9419L18.6419 15.5159V12.9539H21.1199V16.9439C20.7699 16.9999 20.4012 17.0442 20.0139 17.0769C19.6312 17.1096 19.2719 17.1259 18.9359 17.1259Z" fill="white"/>
</svg>
