<svg width="24" height="24" viewBox="0 0 24 24" fill="none" xmlns="http://www.w3.org/2000/svg">
<path d="M12.721 16.9999L11.524 13.4929H7.31698L6.11998 16.9999H5.27298L8.85698 6.63989H9.99798L13.589 16.9999H12.721ZM7.56898 12.7579H11.272L9.41698 7.32589L7.56898 12.7579ZM16.818 20.2199C16.496 20.2199 16.1553 20.1919 15.796 20.1359C15.4413 20.0799 15.1216 20.0006 14.837 19.8979V19.1699C15.523 19.3939 16.1716 19.5059 16.783 19.5059C17.3056 19.5059 17.7326 19.4289 18.064 19.2749C18.4 19.1209 18.6496 18.8689 18.813 18.5189C18.981 18.1689 19.065 17.7022 19.065 17.1189V16.2439H19.009C18.799 16.5006 18.526 16.7106 18.19 16.8739C17.8586 17.0326 17.4876 17.1119 17.077 17.1119C16.2743 17.1119 15.6233 16.8179 15.124 16.2299C14.6293 15.6372 14.382 14.6829 14.382 13.3669C14.382 11.9949 14.6806 10.9752 15.278 10.3079C15.88 9.64056 16.7573 9.30689 17.91 9.30689C18.2413 9.30689 18.5866 9.33489 18.946 9.39089C19.3053 9.44222 19.6203 9.51456 19.891 9.60789V17.0139C19.891 18.1432 19.6366 18.9599 19.128 19.4639C18.624 19.9679 17.854 20.2199 16.818 20.2199ZM17.266 16.3769C17.6253 16.3769 17.966 16.2929 18.288 16.1249C18.6146 15.9569 18.8736 15.7166 19.065 15.4039V10.1609C18.897 10.1189 18.7056 10.0839 18.491 10.0559C18.2763 10.0279 18.0663 10.0139 17.861 10.0139C16.9883 10.0139 16.3326 10.2729 15.894 10.7909C15.4553 11.3042 15.236 12.1349 15.236 13.2829C15.236 14.4356 15.4133 15.2406 15.768 15.6979C16.1273 16.1506 16.6266 16.3769 17.266 16.3769Z" fill="white"/>
</svg>
