<svg width="24" height="24" viewBox="0 0 24 24" fill="none" xmlns="http://www.w3.org/2000/svg">
<path d="M4.50912 16.9999L7.33012 6.63989H10.4031L13.2241 16.9999H11.1871L8.73012 7.57789H8.96112L6.52512 16.9999H4.50912ZM6.21712 14.2069L6.61612 12.4499H11.1101L11.5091 14.2069H6.21712ZM16.1448 20.2199C15.8321 20.2199 15.4891 20.1989 15.1158 20.1569C14.7471 20.1149 14.3994 20.0496 14.0728 19.9609V18.3229C14.3994 18.4162 14.7191 18.4839 15.0318 18.5259C15.3491 18.5726 15.6618 18.5959 15.9698 18.5959C16.5718 18.5959 17.0244 18.4606 17.3278 18.1899C17.6311 17.9239 17.7828 17.4502 17.7828 16.7689V16.2019H17.6848C17.5354 16.4726 17.3231 16.6872 17.0478 16.8459C16.7724 17.0046 16.4504 17.0839 16.0818 17.0839C15.6571 17.0839 15.2511 16.9602 14.8638 16.7129C14.4811 16.4609 14.1661 16.0596 13.9188 15.5089C13.6761 14.9536 13.5548 14.2232 13.5548 13.3179C13.5548 11.9692 13.8651 10.9496 14.4858 10.2589C15.1064 9.56822 16.0724 9.22289 17.3838 9.22289C17.6544 9.22289 17.9321 9.23922 18.2168 9.27189C18.5061 9.29989 18.7884 9.34422 19.0638 9.40489C19.3391 9.46089 19.5934 9.53322 19.8268 9.62189V16.4189C19.8268 17.7722 19.5164 18.7429 18.8958 19.3309C18.2798 19.9236 17.3628 20.2199 16.1448 20.2199ZM16.9358 15.3829C17.0991 15.3829 17.2578 15.3502 17.4118 15.2849C17.5658 15.2196 17.6894 15.1262 17.7828 15.0049V10.8539C17.7034 10.8352 17.6101 10.8212 17.5028 10.8119C17.4001 10.7979 17.3021 10.7909 17.2088 10.7909C16.7141 10.7909 16.3291 10.9589 16.0538 11.2949C15.7784 11.6262 15.6408 12.2376 15.6408 13.1289C15.6408 13.7402 15.6921 14.2092 15.7948 14.5359C15.8974 14.8626 16.0444 15.0866 16.2358 15.2079C16.4318 15.3246 16.6651 15.3829 16.9358 15.3829Z" fill="white"/>
</svg>
