<svg width="24" height="24" viewBox="0 0 24 24" fill="none" xmlns="http://www.w3.org/2000/svg">
<path d="M3.30261 16.9999L7.01961 6.63989H8.62261L12.3396 16.9999H11.1846L7.71261 7.17889H7.90861L4.43661 16.9999H3.30261ZM5.24861 13.6469L5.51461 12.6879H10.1206L10.3866 13.6469H5.24861ZM17.8529 17.0769C16.8309 17.0769 15.9769 16.9276 15.2909 16.6289C14.6049 16.3302 14.0869 15.8706 13.7369 15.2499C13.3915 14.6246 13.2189 13.8242 13.2189 12.8489C13.2189 11.8549 13.3985 11.0429 13.7579 10.4129C14.1172 9.78289 14.6282 9.31856 15.2909 9.01989C15.9582 8.71656 16.7492 8.56489 17.6639 8.56489C18.0139 8.56489 18.3569 8.58589 18.6929 8.62789C19.0335 8.66522 19.3532 8.72356 19.6519 8.80289V9.75489C19.3112 9.66156 18.9845 9.59622 18.6719 9.55889C18.3639 9.51689 18.0535 9.49589 17.7409 9.49589C17.0362 9.49589 16.4342 9.60556 15.9349 9.82489C15.4402 10.0442 15.0599 10.3989 14.7939 10.8889C14.5279 11.3789 14.3949 12.0346 14.3949 12.8559C14.3949 13.6306 14.5209 14.2629 14.7729 14.7529C15.0249 15.2382 15.4005 15.5929 15.8999 15.8169C16.3992 16.0409 17.0222 16.1529 17.7689 16.1529C18.0209 16.1529 18.2752 16.1436 18.5319 16.1249C18.7932 16.1016 19.0312 16.0712 19.2459 16.0339L18.7909 16.4609V12.9539H19.8549V16.9089C19.5049 16.9649 19.1619 17.0069 18.8259 17.0349C18.4899 17.0629 18.1655 17.0769 17.8529 17.0769Z" fill="white"/>
</svg>
