<svg width="24" height="24" viewBox="0 0 24 24" fill="none" xmlns="http://www.w3.org/2000/svg">
<path d="M5.14732 16.9999L8.38132 6.63989H9.89332L13.1273 16.9999H12.0493L9.03232 7.16489H9.22132L6.21132 16.9999H5.14732ZM6.75032 13.6329L6.98132 12.6949H11.2863L11.5173 13.6329H6.75032ZM16.0594 20.2199C15.7654 20.2199 15.4504 20.1942 15.1144 20.1429C14.7831 20.0962 14.4844 20.0262 14.2184 19.9329V19.0299C14.5311 19.1326 14.8344 19.2072 15.1284 19.2539C15.4224 19.3052 15.7118 19.3309 15.9964 19.3309C16.6684 19.3309 17.1748 19.1676 17.5154 18.8409C17.8608 18.5189 18.0334 17.9449 18.0334 17.1189V16.2649H17.9704C17.8071 16.4936 17.5808 16.6919 17.2914 16.8599C17.0021 17.0279 16.6568 17.1119 16.2554 17.1119C15.8214 17.1119 15.4154 16.9952 15.0374 16.7619C14.6594 16.5286 14.3514 16.1389 14.1134 15.5929C13.8801 15.0469 13.7634 14.3002 13.7634 13.3529C13.7634 11.9576 14.0551 10.9309 14.6384 10.2729C15.2218 9.61489 16.0688 9.28589 17.1794 9.28589C17.3894 9.28589 17.6088 9.29989 17.8374 9.32789C18.0661 9.35589 18.2878 9.39322 18.5024 9.43989C18.7218 9.48189 18.9154 9.53322 19.0834 9.59389V16.9719C19.0834 18.1432 18.8268 18.9762 18.3134 19.4709C17.8048 19.9702 17.0534 20.2199 16.0594 20.2199ZM16.5844 16.1949C16.8691 16.1949 17.1444 16.1249 17.4104 15.9849C17.6764 15.8402 17.8841 15.6326 18.0334 15.3619V10.2659C17.9168 10.2379 17.7721 10.2146 17.5994 10.1959C17.4314 10.1726 17.2681 10.1609 17.1094 10.1609C16.3908 10.1609 15.8331 10.3919 15.4364 10.8539C15.0444 11.3112 14.8484 12.1092 14.8484 13.2479C14.8484 14.0506 14.9231 14.6642 15.0724 15.0889C15.2218 15.5089 15.4271 15.7982 15.6884 15.9569C15.9544 16.1156 16.2531 16.1949 16.5844 16.1949Z" fill="white"/>
</svg>
