<svg width="24" height="24" viewBox="0 0 24 24" fill="none" xmlns="http://www.w3.org/2000/svg">
<path d="M5.22868 16.9999L8.19668 6.63989H10.7167L13.6847 16.9999H11.9837L9.33068 7.43089H9.54768L6.90868 16.9999H5.22868ZM6.90168 14.0039L7.23768 12.5339H11.6687L12.0117 14.0039H6.90168ZM16.6163 20.2199C16.3129 20.2199 15.9816 20.1966 15.6223 20.1499C15.2629 20.1079 14.9316 20.0402 14.6283 19.9469V18.5749C14.9456 18.6682 15.2583 18.7382 15.5663 18.7849C15.8743 18.8316 16.1776 18.8549 16.4763 18.8549C17.1063 18.8549 17.5799 18.7102 17.8973 18.4209C18.2146 18.1316 18.3733 17.6229 18.3733 16.8949V16.2229H18.2893C18.1306 16.4796 17.9113 16.6896 17.6313 16.8529C17.3559 17.0162 17.0269 17.0979 16.6443 17.0979C16.2149 17.0979 15.8089 16.9766 15.4263 16.7339C15.0436 16.4866 14.7309 16.0876 14.4883 15.5369C14.2503 14.9862 14.1313 14.2489 14.1313 13.3249C14.1313 11.9669 14.4346 10.9472 15.0413 10.2659C15.6479 9.58456 16.5719 9.24389 17.8133 9.24389C18.0606 9.24389 18.3173 9.26022 18.5833 9.29289C18.8539 9.32089 19.1153 9.36289 19.3673 9.41889C19.6239 9.47022 19.8573 9.53322 20.0673 9.60789V16.6149C20.0673 17.9029 19.7756 18.8246 19.1923 19.3799C18.6136 19.9399 17.7549 20.2199 16.6163 20.2199ZM17.3163 15.6699C17.5169 15.6699 17.7129 15.6256 17.9043 15.5369C18.1003 15.4436 18.2566 15.3082 18.3733 15.1309V10.6509C18.2799 10.6276 18.1679 10.6089 18.0373 10.5949C17.9113 10.5762 17.7899 10.5669 17.6733 10.5669C17.0993 10.5669 16.6536 10.7559 16.3363 11.1339C16.0189 11.5119 15.8603 12.1909 15.8603 13.1709C15.8603 13.8522 15.9209 14.3726 16.0423 14.7319C16.1636 15.0912 16.3316 15.3386 16.5463 15.4739C16.7656 15.6046 17.0223 15.6699 17.3163 15.6699Z" fill="white"/>
</svg>
