<svg width="24" height="24" viewBox="0 0 24 24" fill="none" xmlns="http://www.w3.org/2000/svg">
<path d="M3.35423 16.9999L7.71523 6.63989H8.57623L12.9372 16.9999H12.2442L8.05123 6.98289H8.22623L4.03323 16.9999H3.35423ZM5.36323 13.3879L5.53823 12.8069H10.7532L10.9282 13.3879H5.36323ZM17.0738 20.2199C16.7098 20.2199 16.3038 20.1849 15.8558 20.1149C15.4125 20.0449 15.0018 19.9446 14.6238 19.8139V19.2259C15.0765 19.3659 15.5035 19.4686 15.9048 19.5339C16.3061 19.6039 16.6958 19.6389 17.0738 19.6389C18.0725 19.6389 18.8075 19.4289 19.2788 19.0089C19.7501 18.5936 19.9858 17.8656 19.9858 16.8249V16.1179H19.9368C19.6381 16.4259 19.2718 16.6709 18.8378 16.8529C18.4085 17.0302 17.9255 17.1189 17.3888 17.1189C16.7775 17.1189 16.2245 16.9952 15.7298 16.7479C15.2398 16.4959 14.8501 16.0946 14.5608 15.5439C14.2715 14.9932 14.1268 14.2699 14.1268 13.3739C14.1268 12.0206 14.4651 11.0079 15.1418 10.3359C15.8231 9.65922 16.8288 9.32089 18.1588 9.32089C18.4435 9.32089 18.7235 9.33489 18.9988 9.36289C19.2788 9.38622 19.5541 9.42356 19.8248 9.47489C20.0955 9.52622 20.3638 9.58922 20.6298 9.66389V16.7479C20.6298 17.9846 20.3335 18.8712 19.7408 19.4079C19.1481 19.9492 18.2591 20.2199 17.0738 20.2199ZM17.4868 16.5239C17.9441 16.5239 18.3921 16.4376 18.8308 16.2649C19.2741 16.0922 19.6591 15.8099 19.9858 15.4179V10.1259C19.7385 10.0606 19.4538 10.0069 19.1318 9.96489C18.8145 9.91822 18.4668 9.89489 18.0888 9.89489C17.0015 9.89489 16.1801 10.1702 15.6248 10.7209C15.0741 11.2716 14.7988 12.1326 14.7988 13.3039C14.7988 14.1019 14.9155 14.7366 15.1488 15.2079C15.3821 15.6792 15.7018 16.0176 16.1078 16.2229C16.5138 16.4236 16.9735 16.5239 17.4868 16.5239Z" fill="white"/>
</svg>
