<svg width="24" height="24" viewBox="0 0 24 24" fill="none" xmlns="http://www.w3.org/2000/svg">
<path d="M12.2579 16.9999L10.7389 13.3809H5.5519L4.0399 16.9999H3.3679L7.7359 6.63989H8.5759L12.9369 16.9999H12.2579ZM5.7969 12.8069H10.5009L8.1489 7.19289L5.7969 12.8069ZM17.0738 20.2199C16.6958 20.2199 16.2828 20.1849 15.8348 20.1149C15.3915 20.0449 14.9878 19.9446 14.6238 19.8139V19.2329C15.4778 19.5129 16.2945 19.6529 17.0738 19.6529C17.7551 19.6529 18.3058 19.5596 18.7258 19.3729C19.1505 19.1909 19.4655 18.8922 19.6708 18.4769C19.8808 18.0662 19.9858 17.5156 19.9858 16.8249V16.1179H19.9368C19.6288 16.4352 19.2578 16.6826 18.8238 16.8599C18.3898 17.0326 17.9115 17.1189 17.3888 17.1189C16.7495 17.1189 16.1871 16.9906 15.7018 16.7339C15.2165 16.4726 14.8338 16.0642 14.5538 15.5089C14.2738 14.9489 14.1338 14.2372 14.1338 13.3739C14.1338 12.0252 14.4698 11.0126 15.1418 10.3359C15.8185 9.65922 16.8218 9.32089 18.1518 9.32089C19.0058 9.32089 19.8271 9.43522 20.6158 9.66389V16.7479C20.6158 17.5692 20.4851 18.2342 20.2238 18.7429C19.9625 19.2562 19.5705 19.6296 19.0478 19.8629C18.5298 20.1009 17.8718 20.2199 17.0738 20.2199ZM17.4868 16.5379C17.9675 16.5379 18.4248 16.4469 18.8588 16.2649C19.2975 16.0829 19.6731 15.8029 19.9858 15.4249V10.1189C19.4165 9.96489 18.7818 9.88789 18.0818 9.88789C16.9805 9.88789 16.1545 10.1679 15.6038 10.7279C15.0578 11.2832 14.7848 12.1419 14.7848 13.3039C14.7848 14.4426 15.0251 15.2662 15.5058 15.7749C15.9911 16.2836 16.6515 16.5379 17.4868 16.5379Z" fill="white"/>
</svg>
