<svg width="24" height="24" viewBox="0 0 24 24" fill="none" xmlns="http://www.w3.org/2000/svg">
<path d="M2.57723 17L7.26723 6.66797H11.2292L11.5092 17H9.05923L9.03823 8.17297H9.05223L5.25123 17H2.57723ZM5.04123 14.718L5.44723 12.807H10.4452L10.0462 14.718H5.04123ZM15.9292 20.192C15.5185 20.192 15.1008 20.1523 14.6762 20.073C14.2515 19.9937 13.8595 19.87 13.5002 19.702C13.1455 19.5387 12.8585 19.324 12.6392 19.058C12.4245 18.7967 12.3172 18.4793 12.3172 18.106C12.3172 17.9893 12.3242 17.882 12.3382 17.784C12.3475 17.6907 12.3615 17.602 12.3802 17.518H14.8792C14.8698 17.5507 14.8628 17.5833 14.8582 17.616C14.8535 17.6487 14.8512 17.686 14.8512 17.728C14.8512 17.8633 14.9002 17.9847 14.9982 18.092C15.0962 18.1993 15.2385 18.2833 15.4252 18.344C15.6118 18.4093 15.8382 18.442 16.1042 18.442C16.4402 18.442 16.7365 18.3883 16.9932 18.281C17.2498 18.1737 17.4622 18.0103 17.6302 17.791C17.8028 17.5717 17.9242 17.294 17.9942 16.958L19.5622 9.56597H22.0612L20.4932 16.958C20.3625 17.588 20.1478 18.1107 19.8492 18.526C19.5505 18.9413 19.1935 19.2703 18.7782 19.513C18.3675 19.7557 17.9172 19.9283 17.4272 20.031C16.9418 20.1383 16.4425 20.192 15.9292 20.192ZM15.8522 17.175C15.2875 17.175 14.7812 17.056 14.3332 16.818C13.8898 16.5753 13.5422 16.2183 13.2902 15.747C13.0382 15.271 12.9122 14.6853 12.9122 13.99C12.9122 13.3553 13.0148 12.7627 13.2202 12.212C13.4302 11.6567 13.7242 11.169 14.1022 10.749C14.4848 10.329 14.9352 10.0023 15.4532 9.76897C15.9758 9.53564 16.5452 9.41897 17.1612 9.41897C17.6605 9.41897 18.1155 9.52864 18.5262 9.74797C18.9415 9.9673 19.2728 10.28 19.5202 10.686C19.7675 11.0873 19.8912 11.5657 19.8912 12.121C19.8912 12.2517 19.8795 12.408 19.8562 12.59C19.8375 12.772 19.8095 12.9283 19.7722 13.059L18.8202 13.108C18.8342 13.038 18.8458 12.9633 18.8552 12.884C18.8645 12.8047 18.8692 12.7323 18.8692 12.667C18.8692 12.401 18.8062 12.1793 18.6802 12.002C18.5588 11.8247 18.3978 11.6917 18.1972 11.603C17.9965 11.5143 17.7842 11.47 17.5602 11.47C17.2708 11.47 17.0048 11.5237 16.7622 11.631C16.5195 11.7337 16.3072 11.8807 16.1252 12.072C15.9478 12.2633 15.8102 12.4897 15.7122 12.751C15.6142 13.0123 15.5652 13.3017 15.5652 13.619C15.5652 13.9363 15.6188 14.2023 15.7262 14.417C15.8382 14.627 15.9898 14.788 16.1812 14.9C16.3772 15.0073 16.5988 15.061 16.8462 15.061C17.1262 15.061 17.3968 15.0003 17.6582 14.879C17.9195 14.7577 18.1458 14.5803 18.3372 14.347C18.5332 14.109 18.6685 13.8173 18.7432 13.472L19.6742 13.591C19.5202 14.3283 19.2495 14.9653 18.8622 15.502C18.4748 16.0387 18.0198 16.4517 17.4972 16.741C16.9745 17.0303 16.4262 17.175 15.8522 17.175Z" fill="white"/>
</svg>
