<svg width="24" height="24" viewBox="0 0 24 24" fill="none" xmlns="http://www.w3.org/2000/svg">
<path d="M4.9085 17.0001L7.9255 6.63306H8.7375L11.7335 17.0001H11.1665L8.3245 7.04606H8.3385L5.4755 17.0001H4.9085ZM6.1265 13.9831V13.5001H10.5365V13.9831H6.1265ZM18.136 16.8251C18.5 16.8531 18.822 16.9184 19.102 17.0211C19.382 17.1284 19.6013 17.2824 19.76 17.4831C19.9233 17.6884 20.005 17.9521 20.005 18.2741C20.005 18.6148 19.8837 18.9274 19.641 19.2121C19.403 19.4968 19.0273 19.7231 18.514 19.8911C18.0007 20.0591 17.3357 20.1431 16.519 20.1431C15.3943 20.1431 14.5637 19.9681 14.027 19.6181C13.495 19.2681 13.229 18.8248 13.229 18.2881C13.229 18.0921 13.2523 17.9218 13.299 17.7771C13.3457 17.6371 13.3947 17.5228 13.446 17.4341L13.957 17.5251C13.915 17.5904 13.873 17.6861 13.831 17.8121C13.789 17.9428 13.768 18.0921 13.768 18.2601C13.768 18.7128 14.0083 19.0628 14.489 19.3101C14.9697 19.5621 15.6627 19.6881 16.568 19.6881C17.2587 19.6881 17.8187 19.6228 18.248 19.4921C18.6773 19.3614 18.99 19.1888 19.186 18.9741C19.3867 18.7641 19.487 18.5378 19.487 18.2951C19.487 17.9311 19.34 17.6768 19.046 17.5321C18.7567 17.3921 18.3927 17.3081 17.954 17.2801L15.119 17.0701C14.6757 17.0374 14.321 16.9208 14.055 16.7201C13.789 16.5194 13.656 16.2604 13.656 15.9431C13.656 15.7378 13.705 15.5534 13.803 15.3901C13.9057 15.2268 14.0247 15.0938 14.16 14.9911C14.2953 14.8838 14.419 14.8208 14.531 14.8021L14.979 15.0401C14.839 15.0681 14.6733 15.1568 14.482 15.3061C14.2953 15.4508 14.202 15.6374 14.202 15.8661C14.202 16.0668 14.2883 16.2348 14.461 16.3701C14.6337 16.5054 14.9347 16.5894 15.364 16.6221L18.136 16.8251ZM19.305 9.56606H19.823L19.669 12.5411C19.641 13.0918 19.501 13.5934 19.249 14.0461C19.0017 14.4988 18.6517 14.8604 18.199 15.1311C17.7463 15.3971 17.198 15.5301 16.554 15.5301C15.8867 15.5301 15.3197 15.3948 14.853 15.1241C14.3863 14.8534 14.0317 14.4894 13.789 14.0321C13.5463 13.5748 13.425 13.0708 13.425 12.5201C13.425 11.9648 13.5533 11.4561 13.81 10.9941C14.0713 10.5274 14.4353 10.1564 14.902 9.88106C15.3733 9.60573 15.9193 9.46806 16.54 9.46806C17.1327 9.46806 17.6343 9.58006 18.045 9.80406C18.4557 10.0234 18.7753 10.2918 19.004 10.6091C19.2327 10.9264 19.368 11.2298 19.41 11.5191L19.221 11.4911L19.305 9.56606ZM16.547 15.0471C17.0977 15.0471 17.5667 14.9374 17.954 14.7181C18.3413 14.4988 18.6353 14.1978 18.836 13.8151C19.0413 13.4278 19.144 12.9868 19.144 12.4921C19.144 12.0208 19.0413 11.5938 18.836 11.2111C18.6307 10.8238 18.3343 10.5181 17.947 10.2941C17.5643 10.0654 17.1023 9.95106 16.561 9.95106C16.043 9.95106 15.588 10.0678 15.196 10.3011C14.8087 10.5344 14.5053 10.8448 14.286 11.2321C14.0667 11.6194 13.957 12.0488 13.957 12.5201C13.957 13.0008 14.0597 13.4324 14.265 13.8151C14.4703 14.1931 14.7643 14.4941 15.147 14.7181C15.5343 14.9374 16.001 15.0471 16.547 15.0471Z" fill="white"/>
</svg>
