<svg width="24" height="24" viewBox="0 0 24 24" fill="none" xmlns="http://www.w3.org/2000/svg">
<path d="M4.8997 16.902L3.2617 17C3.24303 16.9907 3.2337 16.916 3.2337 16.776C3.2337 16.636 3.26637 16.5333 3.3317 16.468C3.67703 16.468 3.9197 16.3607 4.0597 16.146C4.1717 15.9967 4.31637 15.698 4.4937 15.25L7.6717 7.15799C7.76503 7.04599 7.8957 6.98999 8.0637 6.98999C8.0917 6.98999 8.14303 6.99932 8.2177 7.01799L11.5217 15.25C11.6897 15.6793 11.8764 15.992 12.0817 16.188C12.2964 16.3747 12.6044 16.468 13.0057 16.468C13.071 16.552 13.1037 16.6593 13.1037 16.79C13.1037 16.9113 13.0944 16.9813 13.0757 17L11.1577 16.902L9.1137 17C9.09503 16.9907 9.0857 16.916 9.0857 16.776C9.0857 16.636 9.11837 16.5333 9.1837 16.468C9.89303 16.468 10.2477 16.2487 10.2477 15.81C10.2477 15.6887 10.2057 15.502 10.1217 15.25L9.5757 13.78H6.0337L5.4877 15.25C5.38503 15.5113 5.3337 15.7213 5.3337 15.88C5.3337 16.272 5.73503 16.468 6.5377 16.468C6.60303 16.552 6.6357 16.6593 6.6357 16.79C6.6357 16.9113 6.62637 16.9813 6.6077 17L4.8997 16.902ZM7.8397 8.64199L6.3277 12.996H9.2817L7.8397 8.64199ZM18.8423 10.14C19.057 10.14 19.2343 10.21 19.3743 10.35C19.5236 10.49 19.5983 10.658 19.5983 10.854C19.5983 11.05 19.5423 11.2087 19.4303 11.33C19.3183 11.4513 19.1736 11.512 18.9963 11.512C18.6323 11.512 18.4503 11.3767 18.4503 11.106C18.4503 11.0313 18.469 10.966 18.5063 10.91C18.5436 10.8447 18.5623 10.798 18.5623 10.77C18.5623 10.742 18.5343 10.728 18.4783 10.728C18.3383 10.728 18.147 10.8587 17.9043 11.12C18.259 11.596 18.4363 12.1747 18.4363 12.856C18.4363 13.528 18.203 14.1207 17.7363 14.634C17.2696 15.1473 16.6536 15.404 15.8883 15.404C15.6083 15.404 15.3656 15.3713 15.1603 15.306C14.815 15.4367 14.6423 15.586 14.6423 15.754C14.6423 15.9687 14.8196 16.1227 15.1743 16.216C15.4916 16.3093 15.8276 16.3793 16.1823 16.426C17.4516 16.594 18.3103 16.8367 18.7583 17.154C19.2063 17.4713 19.4303 17.9753 19.4303 18.666C19.4303 19.366 19.1176 19.94 18.4923 20.388C17.867 20.836 17.1296 21.06 16.2803 21.06C15.431 21.06 14.6936 20.8733 14.0683 20.5C13.443 20.136 13.1303 19.562 13.1303 18.778C13.1303 18.386 13.2376 18.0593 13.4523 17.798C13.6763 17.5367 14.017 17.28 14.4743 17.028C13.9703 16.7573 13.7183 16.3933 13.7183 15.936C13.7183 15.572 13.9936 15.2733 14.5443 15.04C14.1803 14.8067 13.9003 14.4893 13.7043 14.088C13.5083 13.6867 13.4103 13.248 13.4103 12.772C13.4103 12.0347 13.6343 11.414 14.0823 10.91C14.5303 10.3967 15.109 10.14 15.8183 10.14C16.5276 10.14 17.1063 10.3407 17.5543 10.742C17.9556 10.3407 18.385 10.14 18.8423 10.14ZM18.3383 18.932C18.3383 18.3813 18.1003 18.0267 17.6243 17.868C17.363 17.7747 16.943 17.6813 16.3643 17.588C15.795 17.4947 15.389 17.406 15.1463 17.322C14.6236 17.5273 14.3623 17.9987 14.3623 18.736C14.3623 19.2307 14.5303 19.618 14.8663 19.898C15.2116 20.1873 15.6503 20.332 16.1823 20.332C16.7236 20.332 17.2183 20.206 17.6663 19.954C18.1143 19.7113 18.3383 19.3707 18.3383 18.932ZM14.5163 12.632C14.5163 13.1547 14.6516 13.6213 14.9223 14.032C15.2023 14.4427 15.5663 14.648 16.0143 14.648C16.4716 14.648 16.803 14.4847 17.0083 14.158C17.223 13.8313 17.3303 13.4067 17.3303 12.884C17.3303 12.3613 17.1903 11.8853 16.9103 11.456C16.6396 11.0267 16.2756 10.812 15.8183 10.812C15.3703 10.812 15.039 10.9847 14.8243 11.33C14.619 11.6753 14.5163 12.1093 14.5163 12.632Z" fill="white"/>
</svg>
