<svg width="24" height="24" viewBox="0 0 24 24" fill="none" xmlns="http://www.w3.org/2000/svg">
<path d="M3.97373 17.0001L9.29373 6.72412H10.3437L12.2617 17.0001H11.4217L10.8197 13.8221H6.46573L4.81373 17.0001H3.97373ZM6.80173 13.0941H10.7217L9.69973 7.48012L6.80173 13.0941ZM15.5399 20.3041L13.4539 20.2201L13.5379 19.6601H15.7779C16.2259 19.6601 16.6506 19.5994 17.0519 19.4781C17.4533 19.3568 17.7893 19.1561 18.0599 18.8761C18.3399 18.6054 18.5173 18.2508 18.5919 17.8121L18.8579 16.1881C18.5499 16.3934 18.2279 16.5614 17.8919 16.6921C17.5559 16.8228 17.2246 16.9208 16.8979 16.9861C16.5713 17.0514 16.2633 17.0841 15.9739 17.0841C15.5913 17.0841 15.2413 16.9908 14.9239 16.8041C14.6159 16.6081 14.3686 16.3281 14.1819 15.9641C13.9953 15.6001 13.9019 15.1614 13.9019 14.6481C13.9019 14.4054 13.9159 14.1488 13.9439 13.8781C13.9813 13.5981 14.0186 13.3181 14.0559 13.0381C14.1493 12.4408 14.2893 11.9181 14.4759 11.4701C14.6626 11.0128 14.9099 10.6394 15.2179 10.3501C15.5259 10.0514 15.8993 9.82745 16.3379 9.67812C16.7766 9.52879 17.2993 9.45412 17.9059 9.45412C18.5406 9.45412 19.0959 9.48679 19.5719 9.55212C20.0573 9.60812 20.4306 9.66412 20.6919 9.72012L19.3899 17.9101C19.3059 18.4141 19.1333 18.8248 18.8719 19.1421C18.6199 19.4688 18.3119 19.7208 17.9479 19.8981C17.5839 20.0754 17.1919 20.1921 16.7719 20.2481C16.3519 20.3041 15.9413 20.3228 15.5399 20.3041ZM16.2959 16.3981C16.7439 16.3981 17.1733 16.3374 17.5839 16.2161C17.9946 16.0948 18.4473 15.9081 18.9419 15.6561L19.7959 10.2381C19.4786 10.2194 19.1566 10.2008 18.8299 10.1821C18.5126 10.1634 18.1906 10.1494 17.8639 10.1401C17.2479 10.1121 16.7346 10.2054 16.3239 10.4201C15.9226 10.6254 15.6053 10.9568 15.3719 11.4141C15.1479 11.8621 14.9753 12.4408 14.8539 13.1501C14.8166 13.4301 14.7839 13.6821 14.7559 13.9061C14.7279 14.1208 14.7139 14.3308 14.7139 14.5361C14.7139 15.1708 14.8679 15.6421 15.1759 15.9501C15.4839 16.2488 15.8573 16.3981 16.2959 16.3981Z" fill="white"/>
</svg>
