<svg width="24" height="24" viewBox="0 0 24 24" fill="none" xmlns="http://www.w3.org/2000/svg">
<path d="M3.89854 17.0001L7.52454 6.72412H8.57454L12.2005 17.0001H11.3465L10.2125 13.8081H5.87254L4.75254 17.0001H3.89854ZM6.08254 13.0801H9.97454L8.04254 7.45212L6.08254 13.0801ZM15.5484 20.4161C15.0631 20.4161 14.6337 20.3461 14.2604 20.2061C13.8964 20.0754 13.6071 19.8701 13.3924 19.5901C13.1871 19.3194 13.0844 18.9741 13.0844 18.5541V18.1901C13.0844 17.7421 13.2057 17.3734 13.4484 17.0841C13.6911 16.8041 13.9944 16.5941 14.3584 16.4541C14.7224 16.3048 15.0911 16.2301 15.4644 16.2301L15.6324 16.6081C15.3337 16.6081 15.0491 16.6594 14.7784 16.7621C14.5077 16.8648 14.2837 17.0188 14.1064 17.2241C13.9384 17.4388 13.8544 17.7234 13.8544 18.0781V18.4281C13.8544 18.9321 14.0224 19.2868 14.3584 19.4921C14.6944 19.6974 15.1471 19.8001 15.7164 19.8001H17.5224C18.1571 19.8001 18.6517 19.6788 19.0064 19.4361C19.3704 19.1934 19.5524 18.8248 19.5524 18.3301V18.0081C19.5524 17.7281 19.4964 17.4808 19.3844 17.2661C19.2724 17.0608 19.0811 16.9021 18.8104 16.7901C18.5491 16.6688 18.1757 16.6081 17.6904 16.6081H15.2684C14.7644 16.6081 14.3631 16.4961 14.0644 16.2721C13.7751 16.0481 13.6304 15.7494 13.6304 15.3761C13.6304 15.0028 13.7424 14.7134 13.9664 14.5081C14.1904 14.3028 14.5031 14.1628 14.9044 14.0881C14.5404 13.9481 14.2557 13.7614 14.0504 13.5281C13.8544 13.2854 13.7144 13.0241 13.6304 12.7441C13.5557 12.4641 13.5184 12.1888 13.5184 11.9181C13.5184 11.3301 13.6351 10.8634 13.8684 10.5181C14.1111 10.1634 14.4424 9.91145 14.8624 9.76212C15.2917 9.60345 15.7817 9.52412 16.3324 9.52412H20.3084V10.0001L18.4604 10.1121C18.5911 10.1961 18.7404 10.3081 18.9084 10.4481C19.0764 10.5788 19.2211 10.7794 19.3424 11.0501C19.4731 11.3114 19.5384 11.6754 19.5384 12.1421C19.5384 12.5061 19.4591 12.8608 19.3004 13.2061C19.1417 13.5514 18.8711 13.8408 18.4884 14.0741C18.1057 14.2981 17.5831 14.4101 16.9204 14.4101H15.7724C15.3244 14.4101 14.9744 14.4754 14.7224 14.6061C14.4797 14.7274 14.3584 14.9514 14.3584 15.2781C14.3584 15.5301 14.4471 15.7074 14.6244 15.8101C14.8017 15.9128 14.9884 15.9641 15.1844 15.9641H17.7884C18.3671 15.9641 18.8384 16.0388 19.2024 16.1881C19.5757 16.3374 19.8511 16.5614 20.0284 16.8601C20.2151 17.1494 20.3084 17.5134 20.3084 17.9521V18.2881C20.3084 18.9601 20.0797 19.4828 19.6224 19.8561C19.1651 20.2294 18.4884 20.4161 17.5924 20.4161H15.5484ZM15.9824 13.7521H16.8364C17.3684 13.7521 17.7744 13.6728 18.0544 13.5141C18.3344 13.3461 18.5257 13.1361 18.6284 12.8841C18.7311 12.6321 18.7824 12.3568 18.7824 12.0581C18.7824 11.5914 18.7031 11.2228 18.5444 10.9521C18.3857 10.6721 18.1711 10.4714 17.9004 10.3501C17.6391 10.2288 17.3311 10.1681 16.9764 10.1681H16.1784C15.5904 10.1681 15.1237 10.3034 14.7784 10.5741C14.4424 10.8354 14.2744 11.2928 14.2744 11.9461C14.2744 12.5808 14.4284 13.0428 14.7364 13.3321C15.0444 13.6121 15.4597 13.7521 15.9824 13.7521Z" fill="white"/>
</svg>
