<svg width="24" height="24" viewBox="0 0 24 24" fill="none" xmlns="http://www.w3.org/2000/svg">
<path d="M9.24019 7.34009C9.35219 7.34009 9.45019 7.37276 9.53419 7.43809C9.61819 7.49409 9.67419 7.57342 9.70219 7.67609L12.8102 17.0001H11.5362L9.03019 9.07609C8.99285 8.94542 8.95085 8.81476 8.90419 8.68409C8.86685 8.54409 8.82952 8.41342 8.79219 8.29209H8.40019C8.36285 8.41342 8.32552 8.54409 8.28819 8.68409C8.25085 8.81476 8.20885 8.94542 8.16219 9.07609L5.65619 17.0001H4.38219L7.49019 7.67609C7.51819 7.57342 7.57419 7.49409 7.65819 7.43809C7.74219 7.37276 7.84019 7.34009 7.95219 7.34009H9.24019ZM11.0322 12.9121V13.9761H6.13219V12.9121H11.0322ZM16.7452 10.0141C17.4732 10.0141 18.0472 10.0888 18.4672 10.2381C18.8965 10.3874 19.1998 10.6208 19.3772 10.9381C19.5638 11.2554 19.6572 11.6708 19.6572 12.1841C19.6572 12.6788 19.5638 13.0894 19.3772 13.4161C19.1998 13.7334 18.8965 13.9714 18.4672 14.1301C18.0378 14.2794 17.4592 14.3541 16.7312 14.3541C16.0032 14.3541 15.4245 14.2794 14.9952 14.1301C14.5752 13.9714 14.2718 13.7334 14.0852 13.4161C13.9078 13.0988 13.8192 12.6928 13.8192 12.1981C13.8192 11.6848 13.9078 11.2694 14.0852 10.9521C14.2718 10.6254 14.5798 10.3874 15.0092 10.2381C15.4385 10.0888 16.0172 10.0141 16.7452 10.0141ZM16.7312 10.9241C16.0498 10.9241 15.5738 11.0221 15.3032 11.2181C15.0418 11.4048 14.9112 11.7268 14.9112 12.1841C14.9112 12.6321 15.0418 12.9541 15.3032 13.1501C15.5738 13.3461 16.0498 13.4441 16.7312 13.4441C17.4218 13.4441 17.8978 13.3461 18.1592 13.1501C18.4205 12.9541 18.5512 12.6321 18.5512 12.1841C18.5512 11.7268 18.4205 11.4048 18.1592 11.2181C17.8978 11.0221 17.4218 10.9241 16.7312 10.9241ZM20.4552 10.1821L20.3852 10.8401L18.6492 10.9801L18.1592 10.1821H20.4552ZM14.8132 13.9061L15.4992 14.0041C15.3405 14.1441 15.2332 14.3168 15.1772 14.5221C15.1212 14.7181 15.1352 14.9001 15.2192 15.0681C15.3125 15.2361 15.5038 15.3434 15.7932 15.3901L18.3412 15.7961C18.9852 15.8894 19.4332 16.0901 19.6852 16.3981C19.9372 16.7061 20.0632 17.1448 20.0632 17.7141C20.0632 18.2461 19.9605 18.6661 19.7552 18.9741C19.5592 19.2821 19.2232 19.5014 18.7472 19.6321C18.2712 19.7628 17.6272 19.8281 16.8152 19.8281C16.1992 19.8281 15.6812 19.7908 15.2612 19.7161C14.8412 19.6508 14.5005 19.5341 14.2392 19.3661C13.9872 19.2074 13.8052 18.9974 13.6932 18.7361C13.5812 18.4748 13.5252 18.1481 13.5252 17.7561C13.5252 17.4574 13.5672 17.2054 13.6512 17.0001C13.7445 16.8041 13.8845 16.6268 14.0712 16.4681C14.2672 16.3094 14.5192 16.1554 14.8272 16.0061L15.6672 15.5441L16.2132 15.7401L15.5272 16.2581C15.3405 16.3981 15.1818 16.5381 15.0512 16.6781C14.9298 16.8088 14.8365 16.9488 14.7712 17.0981C14.7152 17.2568 14.6872 17.4434 14.6872 17.6581C14.6872 17.9754 14.7478 18.2181 14.8692 18.3861C14.9905 18.5541 15.2052 18.6661 15.5132 18.7221C15.8212 18.7874 16.2505 18.8201 16.8012 18.8201C17.3518 18.8201 17.7765 18.7874 18.0752 18.7221C18.3832 18.6568 18.5978 18.5401 18.7192 18.3721C18.8405 18.2041 18.9012 17.9661 18.9012 17.6581C18.9012 17.4248 18.8685 17.2474 18.8032 17.1261C18.7472 17.0048 18.6352 16.9114 18.4672 16.8461C18.2992 16.7808 18.0518 16.7248 17.7252 16.6781L15.2752 16.3421C14.9858 16.3048 14.7525 16.2114 14.5752 16.0621C14.4072 15.9128 14.2905 15.7354 14.2252 15.5301C14.1598 15.3248 14.1412 15.1194 14.1692 14.9141C14.1972 14.6994 14.2672 14.5034 14.3792 14.3261C14.4912 14.1394 14.6358 13.9994 14.8132 13.9061Z" fill="white"/>
</svg>
