<svg width="24" height="24" viewBox="0 0 24 24" fill="none" xmlns="http://www.w3.org/2000/svg">
<path d="M9.15422 7.34009C9.23822 7.34009 9.31289 7.36342 9.37822 7.41009C9.45289 7.45676 9.49955 7.52209 9.51822 7.60609L12.7522 17.0001H11.8002L9.08422 8.85209C9.04689 8.72142 9.00489 8.59076 8.95822 8.46009C8.91155 8.32009 8.86955 8.18942 8.83222 8.06809H8.42622C8.38889 8.18942 8.34689 8.32009 8.30022 8.46009C8.26289 8.59076 8.22089 8.72142 8.17422 8.85209L5.45822 17.0001H4.50622L7.74022 7.60609C7.76822 7.52209 7.81489 7.45676 7.88022 7.41009C7.94555 7.36342 8.02022 7.34009 8.10422 7.34009H9.15422ZM11.0722 12.9961V13.7941H6.17222V12.9961H11.0722ZM16.7175 10.0421C17.4175 10.0421 17.9728 10.1214 18.3835 10.2801C18.7942 10.4294 19.0882 10.6628 19.2655 10.9801C19.4522 11.2881 19.5455 11.6894 19.5455 12.1841C19.5455 12.6694 19.4522 13.0708 19.2655 13.3881C19.0882 13.7054 18.7895 13.9434 18.3695 14.1021C17.9588 14.2514 17.4082 14.3261 16.7175 14.3261C16.0175 14.3261 15.4575 14.2514 15.0375 14.1021C14.6268 13.9434 14.3282 13.7101 14.1415 13.4021C13.9642 13.0848 13.8755 12.6834 13.8755 12.1981C13.8755 11.7034 13.9642 11.2974 14.1415 10.9801C14.3282 10.6628 14.6268 10.4294 15.0375 10.2801C15.4575 10.1214 16.0175 10.0421 16.7175 10.0421ZM16.7175 10.7421C15.9708 10.7421 15.4482 10.8588 15.1495 11.0921C14.8508 11.3161 14.7015 11.6801 14.7015 12.1841C14.7015 12.6881 14.8508 13.0568 15.1495 13.2901C15.4482 13.5141 15.9708 13.6261 16.7175 13.6261C17.4642 13.6261 17.9822 13.5141 18.2715 13.2901C18.5608 13.0568 18.7055 12.6881 18.7055 12.1841C18.7055 11.6801 18.5608 11.3161 18.2715 11.0921C17.9822 10.8588 17.4642 10.7421 16.7175 10.7421ZM20.3435 10.2101L20.2875 10.7281L18.5795 10.8401L18.0895 10.2101H20.3435ZM14.8135 13.8641L15.3595 13.9341C15.1635 14.1114 15.0328 14.3168 14.9675 14.5501C14.9022 14.7741 14.9208 14.9794 15.0235 15.1661C15.1355 15.3528 15.3642 15.4741 15.7095 15.5301L18.3135 15.9641C18.9295 16.0574 19.3542 16.2534 19.5875 16.5521C19.8208 16.8508 19.9375 17.2754 19.9375 17.8261C19.9375 18.3394 19.8348 18.7454 19.6295 19.0441C19.4335 19.3428 19.1022 19.5574 18.6355 19.6881C18.1782 19.8188 17.5622 19.8841 16.7875 19.8841C16.1902 19.8841 15.6862 19.8468 15.2755 19.7721C14.8742 19.7068 14.5475 19.5948 14.2955 19.4361C14.0435 19.2774 13.8615 19.0674 13.7495 18.8061C13.6468 18.5541 13.5955 18.2368 13.5955 17.8541C13.5955 17.5461 13.6282 17.2848 13.6935 17.0701C13.7682 16.8648 13.8895 16.6828 14.0575 16.5241C14.2348 16.3561 14.4682 16.1974 14.7575 16.0481L15.4995 15.6421L15.9755 15.7961L15.2895 16.2861C15.0842 16.4261 14.9208 16.5661 14.7995 16.7061C14.6782 16.8461 14.5895 17.0001 14.5335 17.1681C14.4868 17.3361 14.4635 17.5461 14.4635 17.7981C14.4635 18.1341 14.5335 18.4001 14.6735 18.5961C14.8135 18.7921 15.0515 18.9274 15.3875 19.0021C15.7328 19.0768 16.1995 19.1141 16.7875 19.1141C17.3662 19.1141 17.8188 19.0721 18.1455 18.9881C18.4815 18.9134 18.7195 18.7781 18.8595 18.5821C18.9995 18.3954 19.0695 18.1341 19.0695 17.7981C19.0695 17.5368 19.0368 17.3314 18.9715 17.1821C18.9155 17.0328 18.7988 16.9161 18.6215 16.8321C18.4535 16.7481 18.2062 16.6828 17.8795 16.6361L15.3035 16.2441C15.0142 16.1974 14.7808 16.1041 14.6035 15.9641C14.4355 15.8241 14.3142 15.6561 14.2395 15.4601C14.1742 15.2641 14.1555 15.0681 14.1835 14.8721C14.2115 14.6668 14.2768 14.4754 14.3795 14.2981C14.4915 14.1114 14.6362 13.9668 14.8135 13.8641Z" fill="white"/>
</svg>
