<svg width="24" height="24" viewBox="0 0 24 24" fill="none" xmlns="http://www.w3.org/2000/svg">
<path d="M9.28383 7.34009C9.40516 7.34009 9.5125 7.37742 9.60583 7.45209C9.69916 7.51742 9.7645 7.60609 9.80183 7.71809L12.8538 17.0001H11.3978L8.98983 9.23009C8.95249 9.09009 8.91516 8.95009 8.87783 8.81009C8.8405 8.67009 8.80316 8.53942 8.76583 8.41809H8.37383C8.33649 8.53942 8.29916 8.67009 8.26183 8.81009C8.2245 8.95009 8.1825 9.09009 8.13583 9.23009L5.72783 17.0001H4.28583L7.33783 7.71809C7.37516 7.60609 7.44049 7.51742 7.53383 7.45209C7.62716 7.37742 7.73449 7.34009 7.85583 7.34009H9.28383ZM11.0198 12.8981V14.0601H6.09183V12.8981H11.0198ZM16.7868 10.0001C17.5242 10.0001 18.1075 10.0748 18.5368 10.2241C18.9755 10.3641 19.2882 10.5974 19.4748 10.9241C19.6615 11.2414 19.7548 11.6568 19.7548 12.1701C19.7548 12.6648 19.6615 13.0754 19.4748 13.4021C19.2882 13.7194 18.9755 13.9574 18.5368 14.1161C18.0982 14.2654 17.5102 14.3401 16.7728 14.3401C16.0262 14.3401 15.4335 14.2654 14.9948 14.1161C14.5655 13.9574 14.2575 13.7194 14.0708 13.4021C13.8842 13.0848 13.7908 12.6788 13.7908 12.1841C13.7908 11.6614 13.8842 11.2414 14.0708 10.9241C14.2575 10.5974 14.5702 10.3641 15.0088 10.2241C15.4475 10.0748 16.0402 10.0001 16.7868 10.0001ZM16.7728 10.9661C16.1195 10.9661 15.6668 11.0594 15.4148 11.2461C15.1628 11.4234 15.0368 11.7314 15.0368 12.1701C15.0368 12.5994 15.1628 12.9074 15.4148 13.0941C15.6668 13.2808 16.1195 13.3741 16.7728 13.3741C17.4262 13.3741 17.8742 13.2808 18.1168 13.0941C18.3688 12.9074 18.4948 12.5994 18.4948 12.1701C18.4948 11.7314 18.3688 11.4234 18.1168 11.2461C17.8742 11.0594 17.4262 10.9661 16.7728 10.9661ZM20.5528 10.1681L20.4828 10.8681L18.7188 11.0221L18.2288 10.1681H20.5528ZM14.8268 13.9061L15.5688 14.0041C15.4195 14.1348 15.3168 14.2981 15.2608 14.4941C15.2048 14.6901 15.2188 14.8674 15.3028 15.0261C15.3868 15.1848 15.5735 15.2874 15.8628 15.3341L18.4108 15.7261C19.0642 15.8101 19.5215 16.0108 19.7828 16.3281C20.0442 16.6361 20.1748 17.0794 20.1748 17.6581C20.1748 18.2088 20.0675 18.6381 19.8528 18.9461C19.6475 19.2541 19.3022 19.4734 18.8168 19.6041C18.3315 19.7348 17.6782 19.8001 16.8568 19.8001C16.2128 19.8001 15.6762 19.7628 15.2468 19.6881C14.8175 19.6228 14.4722 19.5061 14.2108 19.3381C13.9588 19.1794 13.7768 18.9694 13.6648 18.7081C13.5528 18.4468 13.4968 18.1248 13.4968 17.7421C13.4968 17.4434 13.5388 17.1914 13.6228 16.9861C13.7162 16.7808 13.8655 16.5988 14.0708 16.4401C14.2762 16.2814 14.5422 16.1274 14.8688 15.9781L15.7508 15.5441L16.3388 15.7541L15.6668 16.2441C15.4708 16.3841 15.3075 16.5241 15.1768 16.6641C15.0555 16.7948 14.9622 16.9301 14.8968 17.0701C14.8315 17.2194 14.7988 17.3968 14.7988 17.6021C14.7988 17.9008 14.8548 18.1294 14.9668 18.2881C15.0882 18.4468 15.2982 18.5541 15.5968 18.6101C15.8955 18.6661 16.3108 18.6941 16.8428 18.6941C17.3748 18.6941 17.7855 18.6614 18.0748 18.5961C18.3642 18.5401 18.5648 18.4328 18.6768 18.2741C18.7982 18.1248 18.8588 17.9054 18.8588 17.6161C18.8588 17.3921 18.8262 17.2194 18.7608 17.0981C18.7048 16.9861 18.5928 16.9021 18.4248 16.8461C18.2568 16.7808 18.0142 16.7248 17.6968 16.6781L15.3028 16.3701C14.9948 16.3328 14.7522 16.2394 14.5748 16.0901C14.3975 15.9314 14.2715 15.7494 14.1968 15.5441C14.1315 15.3294 14.1128 15.1194 14.1408 14.9141C14.1782 14.6994 14.2528 14.4988 14.3648 14.3121C14.4862 14.1254 14.6402 13.9901 14.8268 13.9061Z" fill="white"/>
</svg>
