<svg width="24" height="24" viewBox="0 0 24 24" fill="none" xmlns="http://www.w3.org/2000/svg">
<path d="M3.56177 17L8.47577 6.82202H9.95277L12.3748 17H10.7718L8.99377 8.97102L8.94477 8.53002L8.78377 8.97802L6.79577 13.234L6.59977 13.521L6.79577 13.493H8.45477C8.69277 13.493 8.88411 13.549 9.02877 13.661C9.17811 13.7683 9.29244 13.9107 9.37177 14.088C9.45577 14.2607 9.51877 14.438 9.56077 14.62H6.16577L5.06677 17H3.56177ZM16.0538 20.5C15.6898 20.5 15.2908 20.4603 14.8568 20.381C14.4228 20.3063 13.9772 20.15 13.5198 19.912L14.0448 18.862C14.4415 19.058 14.8055 19.1933 15.1368 19.268C15.4682 19.3473 15.7808 19.387 16.0748 19.387C16.4575 19.387 16.8168 19.3053 17.1528 19.142C17.4888 18.9787 17.7712 18.7313 17.9998 18.4C18.2285 18.0733 18.3732 17.658 18.4338 17.154L19.2108 10.882C19.0102 10.8307 18.8188 10.7957 18.6368 10.777C18.4595 10.7537 18.2822 10.742 18.1048 10.742C17.4235 10.742 16.8518 10.9823 16.3898 11.463C15.9325 11.9437 15.6502 12.6157 15.5428 13.479C15.4822 13.941 15.4868 14.368 15.5568 14.76C15.6315 15.152 15.7808 15.4577 16.0048 15.677C16.2288 15.8963 16.5392 15.9757 16.9358 15.915C17.1598 15.8917 17.3582 15.929 17.5308 16.027C17.7082 16.1203 17.8715 16.279 18.0208 16.503C17.7735 16.6663 17.5192 16.7993 17.2578 16.902C16.9965 17 16.7585 17.0607 16.5438 17.084C16.1192 17.1353 15.7342 17.077 15.3888 16.909C15.0435 16.7363 14.7542 16.482 14.5208 16.146C14.2875 15.81 14.1218 15.4133 14.0238 14.956C13.9258 14.4987 13.9095 14.0063 13.9748 13.479C14.0682 12.723 14.3085 12.0557 14.6958 11.477C15.0832 10.8937 15.5778 10.4387 16.1798 10.112C16.7865 9.78069 17.4655 9.61502 18.2168 9.61502C18.4782 9.61502 18.7372 9.62902 18.9938 9.65702C19.2552 9.68502 19.5258 9.73169 19.8058 9.79702C20.0905 9.85769 20.4078 9.94402 20.7578 10.056L19.9108 17C19.8175 17.7373 19.5958 18.3673 19.2458 18.89C18.8958 19.4127 18.4455 19.8117 17.8948 20.087C17.3488 20.3623 16.7352 20.5 16.0538 20.5Z" fill="white"/>
</svg>
