<svg width="24" height="24" viewBox="0 0 24 24" fill="none" xmlns="http://www.w3.org/2000/svg">
<path d="M12.4552 15.4679C12.4832 15.5799 12.4972 15.6686 12.4972 15.7339C12.4972 15.8179 12.4785 15.8832 12.4412 15.9299C12.4039 15.9672 12.3385 16.0046 12.2452 16.0419C12.0772 16.1072 11.9559 16.1399 11.8812 16.1399C11.7785 16.1399 11.7132 16.0746 11.6852 15.9439L11.0832 12.3739L8.47921 12.6399L7.14921 15.6919C7.08388 15.8319 7.01854 15.9299 6.95321 15.9859C6.88788 16.0326 6.80854 16.0559 6.71521 16.0559C6.53788 16.0559 6.41188 16.0419 6.33721 16.0139C6.25321 15.9859 6.21121 15.9346 6.21121 15.8599C6.21121 15.8039 6.22521 15.7432 6.25321 15.6779L10.0192 7.10988C10.0845 6.96055 10.1359 6.86255 10.1732 6.81588C10.2199 6.75988 10.2899 6.71321 10.3832 6.67588C10.5792 6.61055 10.7052 6.57788 10.7612 6.57788C10.8545 6.57788 10.9059 6.63388 10.9152 6.74588L11.7552 11.5199L11.8252 11.5059C11.8999 11.4966 11.9932 11.4919 12.1052 11.4919C12.2079 11.4919 12.2825 11.5152 12.3292 11.5619C12.3759 11.5992 12.4132 11.6879 12.4412 11.8279C12.4599 11.9399 12.4692 12.0099 12.4692 12.0379C12.4692 12.1126 12.4272 12.1686 12.3432 12.2059C12.2685 12.2432 12.1192 12.2759 11.8952 12.3039L12.4552 15.4679ZM10.5652 9.32188L10.4392 8.14588L8.84321 11.7999L10.9432 11.5899L10.5652 9.32188ZM17.5718 9.62988C17.7958 9.59255 17.9171 9.57388 17.9358 9.57388C18.0291 9.57388 18.0898 9.59721 18.1178 9.64388C18.1458 9.69055 18.1504 9.76988 18.1318 9.88188C18.1318 9.91921 18.1084 10.0919 18.0618 10.3999C17.8938 11.5012 17.7538 12.6306 17.6418 13.7879C17.5484 15.0666 17.4224 16.0512 17.2638 16.7419C17.1144 17.4326 16.8764 17.9459 16.5498 18.2819C16.2231 18.6272 15.7564 18.7999 15.1498 18.7999C14.8324 18.7906 14.5338 18.7252 14.2538 18.6039C13.9831 18.4919 13.7031 18.3192 13.4138 18.0859C13.2924 17.9926 13.2318 17.9039 13.2318 17.8199C13.2318 17.7359 13.2878 17.6239 13.3998 17.4839C13.5024 17.3532 13.5911 17.2879 13.6658 17.2879C13.7218 17.2879 13.8011 17.3299 13.9038 17.4139C14.1464 17.6286 14.3564 17.7779 14.5338 17.8619C14.7204 17.9459 14.9538 17.9879 15.2338 17.9879C15.5791 17.9879 15.8498 17.8899 16.0458 17.6939C16.2418 17.5072 16.3911 17.2132 16.4938 16.8119C16.5964 16.4106 16.6851 15.8412 16.7598 15.1039C16.5171 15.4492 16.2698 15.7059 16.0178 15.8739C15.7658 16.0419 15.4624 16.1259 15.1078 16.1259C14.6598 16.1166 14.3004 15.9019 14.0298 15.4819C13.7591 15.0526 13.6238 14.4599 13.6238 13.7039C13.6331 13.0039 13.7358 12.3506 13.9318 11.7439C14.1278 11.1279 14.4124 10.6379 14.7858 10.2739C15.1684 9.90055 15.6258 9.71388 16.1578 9.71388C16.5218 9.71388 16.8811 9.85388 17.2358 10.1339V10.1059C17.2544 9.91921 17.2824 9.80255 17.3198 9.75588C17.3664 9.69988 17.4504 9.65788 17.5718 9.62988ZM15.3458 15.3139C15.7191 15.3046 16.0458 15.0526 16.3258 14.5579C16.6151 14.0632 16.8111 13.4239 16.9138 12.6399C17.0444 11.7159 17.1191 11.1372 17.1378 10.9039C16.9978 10.7732 16.8531 10.6752 16.7038 10.6099C16.5638 10.5446 16.4051 10.5119 16.2278 10.5119C15.7984 10.5119 15.4531 10.6939 15.1918 11.0579C14.9304 11.4219 14.7438 11.8466 14.6318 12.3319C14.5291 12.8172 14.4731 13.2652 14.4638 13.6759C14.4638 14.7679 14.7578 15.3139 15.3458 15.3139Z" fill="white"/>
</svg>
