<svg width="24" height="24" viewBox="0 0 24 24" fill="none" xmlns="http://www.w3.org/2000/svg">
<path d="M4.2516 16.9999V16.3279L5.1056 16.1599L8.1156 7.85791H9.1796L12.3156 16.1319L13.2396 16.3279V16.9999H9.6136V16.3279L10.7896 16.1459L10.1596 14.4099H6.8416L6.2536 16.1459L7.4156 16.3279V16.9999H4.2516ZM7.1496 13.5139H9.8376L8.6616 10.2099L8.5216 9.63591H8.4236L8.2976 10.2099L7.1496 13.5139ZM16.0829 19.3239C15.5789 19.3239 15.1169 19.2726 14.6969 19.1699C14.2862 19.0672 13.9549 18.8992 13.7029 18.6659C13.4602 18.4419 13.3389 18.1432 13.3389 17.7699C13.3389 17.5459 13.3902 17.3406 13.4929 17.1539C13.5956 16.9766 13.7262 16.8179 13.8849 16.6779C14.0436 16.5379 14.2069 16.4166 14.3749 16.3139C14.5522 16.2112 14.7016 16.1226 14.8229 16.0479C14.7576 15.9732 14.6969 15.8799 14.6409 15.7679C14.5942 15.6466 14.5709 15.5206 14.5709 15.3899C14.5709 15.1752 14.6456 14.9792 14.7949 14.8019C14.9442 14.6246 15.1029 14.4846 15.2709 14.3819C14.8696 14.2886 14.5429 14.1392 14.2909 13.9339C14.0389 13.7192 13.8522 13.4719 13.7309 13.1919C13.6189 12.9119 13.5629 12.6319 13.5629 12.3519C13.5629 11.8572 13.6842 11.4279 13.9269 11.0639C14.1696 10.6999 14.4962 10.4199 14.9069 10.2239C15.3269 10.0279 15.7982 9.92991 16.3209 9.92991C16.6569 9.92991 16.9556 9.96724 17.2169 10.0419C17.4782 10.1166 17.7022 10.2239 17.8889 10.3639C17.9262 10.3266 18.0102 10.2612 18.1409 10.1679C18.2809 10.0652 18.4396 9.97191 18.6169 9.88791C18.7942 9.80391 18.9716 9.76191 19.1489 9.76191C19.3636 9.76191 19.5222 9.81791 19.6249 9.92991C19.7369 10.0326 19.7929 10.1866 19.7929 10.3919C19.7929 10.5692 19.7462 10.7186 19.6529 10.8399C19.5689 10.9612 19.4989 11.0452 19.4429 11.0919L18.9809 10.9379C18.8596 10.8912 18.7522 10.8539 18.6589 10.8259C18.5749 10.7979 18.4722 10.7839 18.3509 10.7839C18.5096 10.9986 18.6216 11.2272 18.6869 11.4699C18.7616 11.7126 18.7989 11.9412 18.7989 12.1559C18.7989 12.6132 18.6729 13.0146 18.4209 13.3599C18.1782 13.7052 17.8516 13.9759 17.4409 14.1719C17.0302 14.3586 16.5776 14.4519 16.0829 14.4519H15.9009V15.1939L17.4129 15.4739C17.8516 15.5579 18.2249 15.6606 18.5329 15.7819C18.8409 15.9032 19.0789 16.0666 19.2469 16.2719C19.4149 16.4772 19.4989 16.7572 19.4989 17.1119C19.4989 17.4572 19.4056 17.7652 19.2189 18.0359C19.0416 18.3066 18.7942 18.5352 18.4769 18.7219C18.1596 18.9179 17.7956 19.0672 17.3849 19.1699C16.9742 19.2726 16.5402 19.3239 16.0829 19.3239ZM16.4049 18.5259C16.7316 18.5259 17.0349 18.4886 17.3149 18.4139C17.5949 18.3392 17.8189 18.2226 17.9869 18.0639C18.1642 17.9052 18.2529 17.7046 18.2529 17.4619C18.2529 17.2846 18.1969 17.1259 18.0849 16.9859C17.9729 16.8459 17.7349 16.7386 17.3709 16.6639L15.4249 16.3139C15.2289 16.4539 15.0516 16.6406 14.8929 16.8739C14.7436 17.1072 14.6689 17.3406 14.6689 17.5739C14.6689 17.9006 14.8042 18.1386 15.0749 18.2879C15.3456 18.4466 15.7889 18.5259 16.4049 18.5259ZM16.1809 13.5979C16.4609 13.5979 16.6896 13.5559 16.8669 13.4719C17.0442 13.3879 17.1796 13.2432 17.2729 13.0379C17.3756 12.8326 17.4269 12.5386 17.4269 12.1559C17.4269 11.8479 17.3896 11.5912 17.3149 11.3859C17.2402 11.1806 17.1142 11.0312 16.9369 10.9379C16.7689 10.8446 16.5309 10.7979 16.2229 10.7979C15.8962 10.7979 15.6396 10.8446 15.4529 10.9379C15.2662 11.0219 15.1356 11.1712 15.0609 11.3859C14.9862 11.5912 14.9489 11.8759 14.9489 12.2399C14.9489 12.5759 14.9909 12.8419 15.0749 13.0379C15.1589 13.2339 15.2896 13.3786 15.4669 13.4719C15.6536 13.5559 15.8916 13.5979 16.1809 13.5979Z" fill="white"/>
</svg>
