<svg width="24" height="24" viewBox="0 0 24 24" fill="none" xmlns="http://www.w3.org/2000/svg">
<path d="M7.37268 17.1339C6.83135 17.1339 6.42068 16.9332 6.14068 16.5319C5.86068 16.1399 5.72068 15.6359 5.72068 15.0199C5.72068 14.5999 5.75801 14.1286 5.83268 13.6059C5.91668 13.0739 6.03801 12.5279 6.19668 11.9679C6.35535 11.4079 6.54668 10.8759 6.77068 10.3719C6.43468 10.3999 6.10801 10.4139 5.79068 10.4139C5.14668 10.4139 4.56335 10.3346 4.04068 10.1759C3.51801 10.0079 3.10268 9.7419 2.79468 9.3779C2.49601 9.00457 2.34668 8.51457 2.34668 7.9079C2.34668 7.42257 2.49601 6.95123 2.79468 6.4939C3.10268 6.03657 3.54135 5.64923 4.11068 5.3319C4.68935 5.00523 5.38468 4.8139 6.19668 4.7579C6.57935 4.7299 6.94335 4.78123 7.28868 4.9119C7.63401 5.03323 7.91401 5.2199 8.12868 5.4719C8.35268 5.71457 8.46468 6.01323 8.46468 6.3679C8.46468 6.57323 8.41801 6.79257 8.32468 7.0259C8.24068 7.25923 8.09601 7.50657 7.89068 7.7679C7.64801 8.05723 7.36801 8.32323 7.05068 8.5659C6.74268 8.79923 6.41601 8.99057 6.07068 9.1399C5.73468 9.2799 5.40801 9.3499 5.09068 9.3499C4.76401 9.3499 4.51668 9.2659 4.34868 9.0979C4.18068 8.92057 4.09668 8.71057 4.09668 8.4679C4.09668 8.1879 4.19935 7.89857 4.40468 7.5999C4.61001 7.2919 4.90868 7.02123 5.30068 6.7879C5.70201 6.55457 6.19668 6.41457 6.78468 6.3679C6.97135 6.34923 7.15335 6.3819 7.33068 6.4659C7.50801 6.5499 7.59668 6.69457 7.59668 6.8999C7.59668 6.99323 7.58268 7.0539 7.55468 7.0819C7.52668 7.10057 7.51268 7.07723 7.51268 7.0119C7.51268 6.8719 7.46601 6.7739 7.37268 6.7179C7.28868 6.6619 7.18601 6.6339 7.06468 6.6339C6.94335 6.62457 6.83135 6.6199 6.72868 6.6199C6.37401 6.63857 6.03801 6.75057 5.72068 6.9559C5.41268 7.16123 5.16535 7.4039 4.97868 7.6839C4.79201 7.95457 4.69868 8.20657 4.69868 8.4399C4.69868 8.61723 4.76401 8.76657 4.89468 8.8879C5.02535 8.9999 5.24001 9.0559 5.53868 9.0559C5.81868 9.0559 6.10801 8.9859 6.40668 8.8459C6.70535 8.69657 6.98068 8.51457 7.23268 8.2999C7.49401 8.08523 7.69001 7.87057 7.82068 7.6559C7.95135 7.4599 8.04001 7.2779 8.08668 7.1099C8.14268 6.9419 8.17068 6.7879 8.17068 6.6479C8.17068 6.38657 8.09135 6.17657 7.93268 6.0179C7.77401 5.85923 7.57801 5.74723 7.34468 5.6819C7.12068 5.60723 6.89668 5.57923 6.67268 5.5979C5.94468 5.64457 5.30535 5.81257 4.75468 6.1019C4.20401 6.3819 3.77001 6.72257 3.45268 7.1239C3.14468 7.5159 2.99068 7.9079 2.99068 8.2999C2.99068 8.78523 3.11668 9.17723 3.36868 9.4759C3.62068 9.76523 3.96135 9.97523 4.39068 10.1059C4.82935 10.2366 5.31935 10.3019 5.86068 10.3019C6.01935 10.3019 6.17801 10.2972 6.33668 10.2879C6.49535 10.2786 6.65868 10.2646 6.82668 10.2459C7.25601 9.34057 7.77401 8.52857 8.38068 7.8099C8.98735 7.09123 9.67335 6.5219 10.4387 6.1019C11.204 5.6819 12.0393 5.4719 12.9447 5.4719C13.4767 5.4719 13.8593 5.56523 14.0927 5.7519C14.326 5.92923 14.4427 6.14857 14.4427 6.4099C14.4427 6.73657 14.298 7.0679 14.0087 7.4039C13.7193 7.7399 13.3273 8.06657 12.8327 8.3839C12.926 8.78523 13.038 9.24257 13.1687 9.7559C13.3087 10.2599 13.4673 10.7872 13.6447 11.3379C13.822 11.8792 14.004 12.4066 14.1907 12.9199C14.3867 13.4332 14.5827 13.9046 14.7787 14.3339C14.984 14.7632 15.1847 15.1132 15.3807 15.3839C15.306 15.4399 15.194 15.5286 15.0447 15.6499C14.9047 15.7619 14.7693 15.8646 14.6387 15.9579C14.508 16.0512 14.4193 16.0979 14.3727 16.0979C14.2887 15.8832 14.172 15.5659 14.0227 15.1459C13.8827 14.7259 13.724 14.2452 13.5467 13.7039C13.3787 13.1626 13.2013 12.6072 13.0147 12.0379C12.828 11.4592 12.6507 10.9039 12.4827 10.3719C12.3333 10.8386 12.1187 11.3706 11.8387 11.9679C11.568 12.5559 11.2507 13.1532 10.8867 13.7599C10.532 14.3666 10.1493 14.9266 9.73868 15.4399C9.33735 15.9439 8.93135 16.3499 8.52068 16.6579C8.11935 16.9752 7.73668 17.1339 7.37268 17.1339ZM8.17068 10.0219C8.84268 9.86323 9.50068 9.66257 10.1447 9.4199C10.798 9.17723 11.3953 8.91123 11.9367 8.6219L11.7827 8.1319C11.8013 8.06657 11.9133 7.97323 12.1187 7.8519C12.3333 7.72123 12.5247 7.59057 12.6927 7.4599C12.7113 7.64657 12.7393 7.8659 12.7767 8.1179C13.1873 7.8379 13.514 7.5579 13.7567 7.2779C13.9993 6.9979 14.1207 6.72723 14.1207 6.4659C14.1207 6.25123 14.0367 6.06923 13.8687 5.9199C13.7007 5.77057 13.4533 5.6959 13.1267 5.6959C12.3707 5.6959 11.68 5.8919 11.0547 6.2839C10.4387 6.6759 9.89268 7.20323 9.41668 7.8659C8.94068 8.51923 8.52535 9.2379 8.17068 10.0219ZM7.38668 16.7419C7.73201 16.7512 8.08201 16.6392 8.43668 16.4059C8.79135 16.1726 9.14135 15.8599 9.48668 15.4679C9.83201 15.0666 10.1587 14.6232 10.4667 14.1379C10.784 13.6432 11.0733 13.1392 11.3347 12.6259C11.596 12.1126 11.8153 11.6272 11.9927 11.1699C12.17 10.7032 12.296 10.3066 12.3707 9.9799L12.0067 8.8459C11.4467 9.13523 10.8307 9.39657 10.1587 9.6299C9.49601 9.8539 8.81468 10.0359 8.11468 10.1759C7.72268 11.1092 7.42401 12.0566 7.21868 13.0179C7.02268 13.9699 6.92468 14.8239 6.92468 15.5799C6.92468 15.9252 6.97135 16.2052 7.06468 16.4199C7.16735 16.6346 7.27468 16.7419 7.38668 16.7419ZM17.2171 20.9839C16.8344 20.9839 16.4798 20.8859 16.1531 20.6899C15.8264 20.4939 15.5698 20.2279 15.3831 19.8919C15.1871 19.5559 15.0891 19.1826 15.0891 18.7719C15.0891 18.3519 15.1778 17.9552 15.3551 17.5819C15.5324 17.2179 15.7564 16.9192 16.0271 16.6859C16.3071 16.4619 16.5871 16.3499 16.8671 16.3499C17.1751 16.3499 17.4411 16.4246 17.6651 16.5739C17.8891 16.7232 18.0711 16.9099 18.2111 17.1339C18.3604 17.3579 18.4678 17.5866 18.5331 17.8199C18.6078 18.0532 18.6451 18.2539 18.6451 18.4219C18.6451 18.8419 18.5564 19.1546 18.3791 19.3599C18.2111 19.5652 18.0151 19.6679 17.7911 19.6679C17.5298 19.6679 17.3058 19.5699 17.1191 19.3739C16.9418 19.1872 16.8064 18.9586 16.7131 18.6879C16.6198 18.4172 16.5731 18.1606 16.5731 17.9179C16.5731 17.6566 16.6384 17.4559 16.7691 17.3159C16.9091 17.1759 17.0818 17.1059 17.2871 17.1059C17.3618 17.1059 17.4178 17.1199 17.4551 17.1479C17.4924 17.1759 17.5111 17.1992 17.5111 17.2179C17.5111 17.2739 17.4598 17.2879 17.3571 17.2599C17.3291 17.2506 17.3011 17.2412 17.2731 17.2319C17.2544 17.2319 17.2311 17.2319 17.2031 17.2319C17.0538 17.2319 16.9418 17.2879 16.8671 17.3999C16.7924 17.5119 16.7551 17.6472 16.7551 17.8059C16.7551 18.0112 16.8018 18.2212 16.8951 18.4359C16.9978 18.6506 17.1331 18.8279 17.3011 18.9679C17.4691 19.1172 17.6511 19.1919 17.8471 19.1919C18.0711 19.1919 18.2344 19.1172 18.3371 18.9679C18.4398 18.8186 18.4911 18.6366 18.4911 18.4219C18.4911 18.1699 18.4304 17.9039 18.3091 17.6239C18.1971 17.3532 18.0384 17.1199 17.8331 16.9239C17.6371 16.7372 17.4131 16.6439 17.1611 16.6439C16.8158 16.6532 16.5171 16.8632 16.2651 17.2739C16.0131 17.6846 15.8871 18.2072 15.8871 18.8419C15.8871 19.4392 16.0131 19.9199 16.2651 20.2839C16.5264 20.6479 16.8531 20.8299 17.2451 20.8299C17.8238 20.8299 18.2764 20.6619 18.6031 20.3259C18.9391 19.9899 19.1771 19.5466 19.3171 18.9959C19.4571 18.4546 19.5271 17.8759 19.5271 17.2599C19.5271 16.7559 19.4898 16.2566 19.4151 15.7619C19.3498 15.2579 19.2611 14.7912 19.1491 14.3619C19.0464 13.9232 18.9298 13.5499 18.7991 13.2419C18.7244 13.4472 18.5938 13.7086 18.4071 14.0259C18.2298 14.3339 18.0151 14.6419 17.7631 14.9499C17.5204 15.2486 17.2638 15.5006 16.9931 15.7059C16.7224 15.9019 16.4611 15.9952 16.2091 15.9859C16.1718 15.9859 16.1111 15.9672 16.0271 15.9299C15.9524 15.8832 15.8778 15.8319 15.8031 15.7759C15.6071 15.7292 15.4718 15.6499 15.3971 15.5379C15.3131 15.4166 15.2711 15.2766 15.2711 15.1179C15.2711 14.9499 15.3084 14.7539 15.3831 14.5299C15.4858 14.2312 15.5884 13.9372 15.6911 13.6479C15.7938 13.3492 15.9104 13.0646 16.0411 12.7939C15.9851 12.7939 15.9711 12.7706 15.9991 12.7239C16.0644 12.5932 16.1578 12.4672 16.2791 12.3459C16.5031 11.9539 16.7738 11.5992 17.0911 11.2819C17.3151 11.0672 17.5718 10.8946 17.8611 10.7639C18.1598 10.6332 18.4724 10.5679 18.7991 10.5679C19.0791 10.5679 19.3358 10.6239 19.5691 10.7359C19.8118 10.8479 19.9331 10.9972 19.9331 11.1839C19.9331 11.3052 19.8631 11.4312 19.7231 11.5619C19.5831 11.6926 19.3918 11.7812 19.1491 11.8279C18.7944 11.9026 18.4491 11.9492 18.1131 11.9679C17.7771 11.9866 17.4598 12.0706 17.1611 12.2199C17.0398 12.3972 16.9138 12.6306 16.7831 12.9199C16.6618 13.2092 16.5451 13.5172 16.4331 13.8439C16.3304 14.1706 16.2464 14.4786 16.1811 14.7679C16.1158 15.0572 16.0831 15.2952 16.0831 15.4819C16.0831 15.6966 16.1344 15.8039 16.2371 15.8039C16.4051 15.8039 16.5964 15.7199 16.8111 15.5519C17.0351 15.3839 17.2591 15.1692 17.4831 14.9079C17.7071 14.6466 17.9171 14.3619 18.1131 14.0539C18.3184 13.7459 18.4911 13.4519 18.6311 13.1719C18.7711 12.8826 18.8644 12.6352 18.9111 12.4299C18.9111 12.4019 18.9344 12.3739 18.9811 12.3459C19.0371 12.3086 19.0884 12.2899 19.1351 12.2899C19.2004 12.2899 19.2518 12.3366 19.2891 12.4299C19.4291 12.7566 19.5551 13.1532 19.6671 13.6199C19.7884 14.0772 19.8818 14.5672 19.9471 15.0899C20.0218 15.6126 20.0591 16.1399 20.0591 16.6719C20.0591 17.2226 20.0124 17.7546 19.9191 18.2679C19.8258 18.7906 19.6671 19.2526 19.4431 19.6539C19.2284 20.0646 18.9391 20.3866 18.5751 20.6199C18.2111 20.8626 17.7584 20.9839 17.2171 20.9839ZM17.2451 12.0379C17.4878 11.9632 17.7304 11.9119 17.9731 11.8839C18.2251 11.8466 18.4724 11.8046 18.7151 11.7579C18.9578 11.7112 19.1351 11.6132 19.2471 11.4639C19.3684 11.3146 19.4291 11.1792 19.4291 11.0579C19.4291 10.9179 19.3684 10.8479 19.2471 10.8479C18.9578 10.8292 18.6731 10.8946 18.3931 11.0439C18.1131 11.1932 17.8704 11.3659 17.6651 11.5619C17.4598 11.7579 17.3198 11.9166 17.2451 12.0379Z" fill="white"/>
</svg>
