<svg width="24" height="24" viewBox="0 0 24 24" fill="none" xmlns="http://www.w3.org/2000/svg">
<path d="M9.93384 17.0001L9.79384 14.8721H7.37184L6.65784 17.0001H4.41784L8.35184 7.2981H10.9558L12.1738 17.0001H9.93384ZM7.90384 13.2761H9.69584L9.40184 8.7961L7.90384 13.2761ZM16.9647 9.3281C17.8887 9.3281 18.794 9.57077 19.6807 10.0561L18.7427 16.5941C18.5654 17.8168 18.1874 18.7081 17.6087 19.2681C17.03 19.8281 16.2087 20.1081 15.1447 20.1081C14.6967 20.1081 14.2487 20.0381 13.8007 19.8981C13.362 19.7581 12.956 19.5668 12.5827 19.3241L13.3107 17.9521C13.936 18.3068 14.5287 18.4841 15.0887 18.4841C15.518 18.4841 15.868 18.3721 16.1387 18.1481C16.4187 17.9241 16.6007 17.5041 16.6847 16.8881L16.8107 16.0481C16.3067 16.6828 15.7094 17.0001 15.0187 17.0001C14.3467 17.0001 13.824 16.7574 13.4507 16.2721C13.0774 15.7774 12.8907 15.1148 12.8907 14.2841C12.8907 13.4534 13.026 12.6601 13.2967 11.9041C13.5767 11.1481 14.02 10.5321 14.6267 10.0561C15.2427 9.57077 16.022 9.3281 16.9647 9.3281ZM16.8527 10.8401C16.442 10.8401 16.0967 11.0128 15.8167 11.3581C15.546 11.6941 15.3454 12.1234 15.2147 12.6461C15.084 13.1688 15.0187 13.7148 15.0187 14.2841C15.0187 14.6948 15.0794 14.9934 15.2007 15.1801C15.322 15.3574 15.4994 15.4461 15.7327 15.4461C16.1247 15.4461 16.54 15.1194 16.9787 14.4661L17.4827 10.9521C17.2587 10.8774 17.0487 10.8401 16.8527 10.8401Z" fill="white"/>
</svg>
