<svg width="24" height="24" viewBox="0 0 24 24" fill="none" xmlns="http://www.w3.org/2000/svg">
<path d="M11.4898 17.0001L10.7058 14.2981H6.98177L6.18377 17.0001H5.55377L8.45177 7.42407H9.26377L12.1618 17.0001H11.4898ZM7.14977 13.7381H10.5378L8.84377 7.95607L7.14977 13.7381ZM18.5972 9.77607C18.2332 9.8974 17.6405 9.9674 16.8192 9.98607C17.5565 10.3688 17.9252 11.0501 17.9252 12.0301C17.9252 12.7581 17.7152 13.3368 17.2952 13.7661C16.8752 14.1861 16.3012 14.3961 15.5732 14.3961C15.2465 14.3961 14.9618 14.3494 14.7192 14.2561C14.5418 14.3588 14.4018 14.4894 14.2992 14.6481C14.2058 14.8068 14.1592 14.9748 14.1592 15.1521C14.1592 15.7028 14.5465 15.9781 15.3212 15.9781H16.2592C16.9312 15.9781 17.4585 16.1461 17.8412 16.4821C18.2238 16.8088 18.4152 17.2381 18.4152 17.7701C18.4152 18.4141 18.1772 18.9181 17.7012 19.2821C17.2345 19.6461 16.5392 19.8281 15.6152 19.8281C14.6538 19.8281 13.9585 19.6648 13.5292 19.3381C13.1092 19.0114 12.8992 18.4934 12.8992 17.7841H13.4732C13.4918 18.3348 13.6552 18.7221 13.9632 18.9461C14.2805 19.1794 14.8312 19.2961 15.6152 19.2961C17.0525 19.2961 17.7712 18.8014 17.7712 17.8121C17.7712 17.4014 17.6312 17.0841 17.3512 16.8601C17.0805 16.6361 16.6885 16.5241 16.1752 16.5241H15.2792C14.7192 16.5241 14.2898 16.4121 13.9912 16.1881C13.7018 15.9548 13.5572 15.6514 13.5572 15.2781C13.5572 14.8021 13.7998 14.3961 14.2852 14.0601C13.5478 13.6401 13.1792 12.9494 13.1792 11.9881C13.1792 11.2508 13.3938 10.6628 13.8232 10.2241C14.2618 9.77607 14.8452 9.55207 15.5732 9.55207C16.3758 9.5614 16.9545 9.53807 17.3092 9.48207C17.6638 9.41674 18.0278 9.3094 18.4012 9.16007L18.5972 9.77607ZM15.5732 10.0561C14.9945 10.0561 14.5558 10.2288 14.2572 10.5741C13.9678 10.9101 13.8232 11.3814 13.8232 11.9881C13.8232 12.5948 13.9772 13.0661 14.2852 13.4021C14.6025 13.7381 15.0272 13.9061 15.5592 13.9061C16.1192 13.9061 16.5438 13.7474 16.8332 13.4301C17.1318 13.1128 17.2812 12.6414 17.2812 12.0161C17.2812 11.4094 17.1365 10.9334 16.8472 10.5881C16.5672 10.2334 16.1425 10.0561 15.5732 10.0561Z" fill="white"/>
</svg>
