<svg width="24" height="24" viewBox="0 0 24 24" fill="none" xmlns="http://www.w3.org/2000/svg">
<path d="M10.0732 17L9.90519 14.802H7.30119L6.53119 17H4.50119L8.47719 7.31201H10.8432L12.1032 17H10.0732ZM7.81919 13.332H9.79319L9.42919 8.71201L7.81919 13.332ZM16.951 9.37001C17.8563 9.37001 18.7243 9.59868 19.555 10.056L18.617 16.664C18.449 17.8587 18.0803 18.7267 17.511 19.268C16.9417 19.8093 16.1437 20.08 15.117 20.08C14.6877 20.08 14.2537 20.01 13.815 19.87C13.3763 19.7393 12.9797 19.5573 12.625 19.324L13.297 18.05C13.9317 18.414 14.5243 18.596 15.075 18.596C15.523 18.596 15.8917 18.4747 16.181 18.232C16.4703 17.9987 16.6617 17.5507 16.755 16.888L16.881 16.02C16.3583 16.6733 15.7563 17 15.075 17C14.403 17 13.8757 16.7573 13.493 16.272C13.1197 15.7867 12.933 15.1333 12.933 14.312C12.933 13.5 13.0683 12.716 13.339 11.96C13.619 11.204 14.0577 10.5833 14.655 10.098C15.2617 9.61268 16.027 9.37001 16.951 9.37001ZM16.867 10.756C16.4097 10.756 16.0317 10.9333 15.733 11.288C15.4343 11.6427 15.215 12.0907 15.075 12.632C14.935 13.1733 14.865 13.7333 14.865 14.312C14.865 15.152 15.131 15.572 15.663 15.572C15.915 15.572 16.153 15.4787 16.377 15.292C16.601 15.1053 16.825 14.844 17.049 14.508L17.581 10.882C17.3383 10.798 17.1003 10.756 16.867 10.756Z" fill="white"/>
</svg>
