<svg width="24" height="24" viewBox="0 0 24 24" fill="none" xmlns="http://www.w3.org/2000/svg">
<path d="M9.09747 14.599H5.44347L4.71547 17H3.32247L6.43047 7.354H8.18047L11.2955 17H9.82547L9.09747 14.599ZM5.76547 13.486H8.77547L7.27747 8.474L5.76547 13.486ZM18.927 8.768L19.319 9.958C19.011 10.056 18.6797 10.119 18.325 10.147C17.975 10.175 17.5877 10.189 17.163 10.189C17.597 10.385 17.9237 10.637 18.143 10.945C18.3623 11.253 18.472 11.6217 18.472 12.051C18.472 12.5363 18.3577 12.968 18.129 13.346C17.905 13.724 17.5807 14.0203 17.156 14.235C16.736 14.4497 16.2297 14.557 15.637 14.557C15.4037 14.557 15.2053 14.5477 15.042 14.529C14.8833 14.5057 14.727 14.4707 14.573 14.424C14.4703 14.494 14.384 14.5897 14.314 14.711C14.2487 14.8323 14.216 14.9607 14.216 15.096C14.216 15.2593 14.2813 15.3993 14.412 15.516C14.5427 15.628 14.797 15.684 15.175 15.684H16.484C16.9927 15.684 17.4453 15.7727 17.842 15.95C18.2433 16.1273 18.5583 16.3677 18.787 16.671C19.0157 16.9743 19.13 17.3197 19.13 17.707C19.13 18.4397 18.8173 19.002 18.192 19.394C17.5667 19.7907 16.68 19.989 15.532 19.989C14.72 19.989 14.0807 19.905 13.614 19.737C13.152 19.569 12.823 19.3193 12.627 18.988C12.4357 18.6567 12.34 18.2413 12.34 17.742H13.551C13.551 18.0173 13.6047 18.2437 13.712 18.421C13.8193 18.5983 14.0153 18.7313 14.3 18.82C14.5847 18.9087 14.9953 18.953 15.532 18.953C16.064 18.953 16.4933 18.9087 16.82 18.82C17.1467 18.7313 17.387 18.6007 17.541 18.428C17.695 18.2553 17.772 18.0453 17.772 17.798C17.772 17.4713 17.625 17.2217 17.331 17.049C17.037 16.8763 16.6613 16.79 16.204 16.79H14.909C14.2463 16.79 13.7587 16.65 13.446 16.37C13.138 16.0853 12.984 15.7587 12.984 15.39C12.984 15.1473 13.0517 14.9117 13.187 14.683C13.327 14.4543 13.53 14.2537 13.796 14.081C13.3667 13.8523 13.0493 13.5723 12.844 13.241C12.6433 12.9097 12.543 12.506 12.543 12.03C12.543 11.5213 12.669 11.0733 12.921 10.686C13.1777 10.2987 13.5323 9.99533 13.985 9.776C14.4377 9.55667 14.958 9.447 15.546 9.447C16.1573 9.447 16.6567 9.419 17.044 9.363C17.436 9.30233 17.7743 9.223 18.059 9.125C18.3483 9.02233 18.6377 8.90333 18.927 8.768ZM15.553 10.399C15.0023 10.399 14.5917 10.553 14.321 10.861C14.0503 11.1643 13.915 11.554 13.915 12.03C13.915 12.5107 14.0527 12.905 14.328 13.213C14.6033 13.5163 15.021 13.668 15.581 13.668C16.0757 13.668 16.4537 13.5257 16.715 13.241C16.9763 12.9517 17.107 12.5433 17.107 12.016C17.107 11.484 16.9763 11.0827 16.715 10.812C16.4537 10.5367 16.0663 10.399 15.553 10.399Z" fill="white"/>
</svg>
