<svg width="24" height="24" viewBox="0 0 24 24" fill="none" xmlns="http://www.w3.org/2000/svg">
<path d="M8.65023 8.48179L6.62023 12.6818H10.6942L8.65023 8.48179ZM7.46023 7.48779H8.70623C8.85557 7.48779 8.95823 7.54379 9.01423 7.65579L12.9762 15.6638C12.9949 15.7011 13.0042 15.7431 13.0042 15.7898C13.0042 15.9485 12.9296 16.0558 12.7802 16.1118C12.7242 16.1305 12.6729 16.1398 12.6262 16.1398C12.4676 16.1398 12.3602 16.0791 12.3042 15.9578L11.0022 13.3258H6.31223L5.01023 15.9578C4.92623 16.1445 4.76757 16.1958 4.53423 16.1118C4.3849 16.0558 4.31023 15.9531 4.31023 15.8038C4.31023 15.7665 4.31957 15.7245 4.33823 15.6778L8.06223 8.14579H7.46023C7.3669 8.14579 7.28757 8.11779 7.22223 8.06179C7.16623 7.99646 7.13823 7.91712 7.13823 7.82379C7.13823 7.73046 7.16623 7.65112 7.22223 7.58579C7.28757 7.52046 7.3669 7.48779 7.46023 7.48779ZM14.4332 16.1538C14.0786 16.3591 13.9012 16.6625 13.9012 17.0638C13.9012 17.4745 14.0692 17.7965 14.4052 18.0298C14.7506 18.2631 15.2219 18.3798 15.8192 18.3798C16.4166 18.3798 16.9532 18.2771 17.4292 18.0718C17.9052 17.8665 18.1432 17.5865 18.1432 17.2318C18.1432 16.8491 17.8072 16.6205 17.1352 16.5458C16.9019 16.5271 16.1599 16.4338 14.9092 16.2658C14.7039 16.2285 14.5452 16.1911 14.4332 16.1538ZM17.4152 12.6258C17.4152 12.2151 17.2752 11.8838 16.9952 11.6318C16.7246 11.3705 16.3699 11.2398 15.9312 11.2398C15.5019 11.2398 15.1472 11.3705 14.8672 11.6318C14.5966 11.8838 14.4612 12.2151 14.4612 12.6258C14.4612 13.0365 14.5966 13.3725 14.8672 13.6338C15.1472 13.8858 15.5019 14.0118 15.9312 14.0118C16.3699 14.0118 16.7246 13.8858 16.9952 13.6338C17.2752 13.3725 17.4152 13.0365 17.4152 12.6258ZM17.8352 8.80379C17.9846 8.80379 18.0872 8.88312 18.1432 9.04179C18.2739 9.36846 18.3392 9.66246 18.3392 9.92379C18.3392 10.4651 18.1152 10.9225 17.6672 11.2958C18.0032 11.6411 18.1712 12.1031 18.1712 12.6818C18.1712 13.2605 17.9519 13.7365 17.5132 14.1098C17.0839 14.4738 16.5566 14.6558 15.9312 14.6558C15.6512 14.6558 15.3852 14.6185 15.1332 14.5438C14.9186 14.6091 14.7272 14.7118 14.5592 14.8518C14.4006 14.9825 14.3212 15.1131 14.3212 15.2438C14.3212 15.4211 14.5546 15.5518 15.0212 15.6358C15.2266 15.6638 15.9686 15.7525 17.2472 15.9018C18.3486 16.0418 18.8992 16.4851 18.8992 17.2318C18.8992 17.8105 18.5679 18.2538 17.9052 18.5618C17.2519 18.8698 16.5519 19.0238 15.8052 19.0238C15.0679 19.0238 14.4379 18.8605 13.9152 18.5338C13.4019 18.2165 13.1452 17.7685 13.1452 17.1898C13.1452 16.6111 13.3926 16.1725 13.8872 15.8738C13.6819 15.7525 13.5792 15.5425 13.5792 15.2438C13.5792 14.8331 13.9012 14.5018 14.5452 14.2498C13.9946 13.8298 13.7192 13.3071 13.7192 12.6818C13.7192 12.0471 13.9246 11.5431 14.3352 11.1698C14.7459 10.7871 15.2406 10.5958 15.8192 10.5958C16.4072 10.5958 16.8692 10.7031 17.2052 10.9178C17.4572 10.6658 17.5832 10.3438 17.5832 9.95179C17.5832 9.75579 17.5506 9.57379 17.4852 9.40579C17.3732 9.12579 17.4292 8.93912 17.6532 8.84579C17.7186 8.81779 17.7792 8.80379 17.8352 8.80379Z" fill="white"/>
</svg>
