<svg width="24" height="24" viewBox="0 0 24 24" fill="none" xmlns="http://www.w3.org/2000/svg">
<path d="M8.74636 19.7875C8.53022 19.7875 8.29443 19.7138 8.03899 19.5664C7.79337 19.419 7.61162 19.2619 7.49373 19.0948C7.36601 18.9082 7.30215 18.7166 7.30215 18.5201C7.30215 18.2843 7.37092 18.1124 7.50846 18.0043C7.49864 17.9748 7.49373 17.9454 7.49373 17.9159C7.49373 17.8864 7.49373 17.8569 7.49373 17.8275C7.49373 17.7489 7.50355 17.6654 7.5232 17.5769C7.54285 17.4885 7.57232 17.4099 7.61162 17.3412L7.67057 17.238C7.30706 17.4247 6.95829 17.5524 6.62425 17.6212C6.30004 17.6997 5.99548 17.739 5.71057 17.739C5.12109 17.739 4.59057 17.6408 4.11899 17.4443C3.65723 17.2576 3.28881 16.9629 3.01373 16.5601C2.74846 16.1573 2.61583 15.6415 2.61583 15.0127C2.61583 14.5215 2.71408 14.0745 2.91057 13.6717C3.10706 13.259 3.35758 12.9005 3.66215 12.5959C3.71127 12.5173 3.74074 12.4338 3.75057 12.3454C3.77022 12.2471 3.78004 12.1636 3.78004 12.0948C3.78004 11.9278 3.73583 11.7755 3.64741 11.638C3.55899 11.4906 3.46074 11.4317 3.35267 11.4612C3.34285 11.4612 3.33302 11.4661 3.3232 11.4759C3.3232 11.4759 3.31829 11.4759 3.30846 11.4759C3.25934 11.4759 3.23478 11.4562 3.23478 11.4169C3.23478 11.3482 3.27899 11.2941 3.36741 11.2548C3.46566 11.1861 3.56881 11.1517 3.67688 11.1517C3.81443 11.1517 3.92741 11.2155 4.01583 11.3433C4.10425 11.4612 4.14846 11.6183 4.14846 11.8148C4.12881 11.9819 4.0846 12.139 4.01583 12.2864C4.42846 11.9524 4.87548 11.6969 5.35688 11.5201C5.83829 11.3433 6.27548 11.2548 6.66846 11.2548C7.34636 11.2548 7.83759 11.4317 8.14215 11.7854C8.44671 12.1292 8.59899 12.5222 8.59899 12.9643C8.59899 13.318 8.48601 13.6717 8.26004 14.0254C8.0439 14.3692 7.74916 14.6541 7.37583 14.8801C7.01232 15.1061 6.61443 15.219 6.18215 15.219C5.92671 15.219 5.67127 15.1748 5.41583 15.0864C5.40601 15.0766 5.39618 15.0717 5.38636 15.0717C5.37653 15.0717 5.36671 15.0668 5.35688 15.0569C5.19969 15.0078 5.05232 14.8997 4.91478 14.7327C4.78706 14.5657 4.7232 14.3496 4.7232 14.0843C4.7232 13.8485 4.77232 13.598 4.87057 13.3327C4.97864 13.0576 5.12109 12.8857 5.29794 12.8169C5.35688 12.7973 5.39618 12.7875 5.41583 12.7875C5.45513 12.7875 5.4846 12.7973 5.50425 12.8169C5.53373 12.8268 5.55337 12.8366 5.5632 12.8464C5.45513 12.8955 5.40109 12.9938 5.40109 13.1412C5.40109 13.2197 5.42074 13.3082 5.46004 13.4064C5.50916 13.4948 5.55829 13.5636 5.60741 13.6127C5.67618 13.6815 5.74495 13.7601 5.81373 13.8485C5.89232 13.9369 5.95618 14.0597 6.0053 14.2169C6.01513 14.2562 6.02004 14.2955 6.02004 14.3348C6.02987 14.3643 6.03478 14.3987 6.03478 14.438C6.03478 14.5559 6.01022 14.6689 5.96109 14.7769C5.91197 14.885 5.83337 14.9685 5.7253 15.0275C5.78425 15.0373 5.83829 15.0471 5.88741 15.0569C5.94636 15.0569 6.0053 15.0569 6.06425 15.0569C6.45723 15.0569 6.81583 14.9489 7.14004 14.7327C7.46425 14.5166 7.7246 14.2464 7.92109 13.9222C8.12741 13.598 8.23057 13.2738 8.23057 12.9496C8.23057 12.5566 8.11759 12.2176 7.89162 11.9327C7.67548 11.638 7.26776 11.4906 6.66846 11.4906C6.13794 11.4906 5.65653 11.6036 5.22425 11.8296C4.8018 12.0457 4.43337 12.3355 4.11899 12.699C3.8046 13.0626 3.5639 13.4654 3.39688 13.9075C3.22987 14.3397 3.14636 14.7671 3.14636 15.1896C3.14636 15.5924 3.22987 15.9657 3.39688 16.3096C3.57373 16.6633 3.8439 16.9482 4.20741 17.1643C4.58074 17.3805 5.06215 17.4934 5.65162 17.5033C5.49443 17.4541 5.3618 17.3755 5.25373 17.2675C5.15548 17.1692 5.10636 17.0562 5.10636 16.9285C5.10636 16.791 5.15057 16.6927 5.23899 16.6338C5.33723 16.5748 5.43057 16.5454 5.51899 16.5454C5.57794 16.5454 5.61723 16.5552 5.63688 16.5748C5.65653 16.6043 5.63197 16.6387 5.5632 16.678C5.49443 16.7173 5.46004 16.791 5.46004 16.899C5.46004 16.9973 5.48951 17.0906 5.54846 17.179C5.58776 17.2478 5.65162 17.3117 5.74004 17.3706C5.83829 17.4394 5.95618 17.4738 6.09373 17.4738H6.1232C6.59478 17.4738 7.07127 17.3608 7.55267 17.1348C8.03408 16.9089 8.51548 16.6092 8.99688 16.2359C9.47829 15.8626 9.95478 15.4499 10.4264 14.998C10.8979 14.5461 11.3548 14.0892 11.7969 13.6275C11.6986 13.6569 11.5807 13.6717 11.4432 13.6717V13.6864C11.3351 13.8731 11.1337 13.9664 10.839 13.9664C10.6621 13.9664 10.4804 13.9173 10.2937 13.819C10.0972 13.711 9.90566 13.5243 9.71899 13.259C9.54215 12.9938 9.45373 12.7482 9.45373 12.5222C9.45373 12.4927 9.45373 12.4633 9.45373 12.4338C9.46355 12.3945 9.47337 12.3601 9.4832 12.3306C9.51267 12.2422 9.54706 12.1882 9.58636 12.1685C9.62566 12.139 9.65513 12.1243 9.67478 12.1243C9.63548 12.3012 9.69934 12.4338 9.86636 12.5222C10.0432 12.6008 10.1955 12.6401 10.3232 12.6401C10.3527 12.6401 10.3821 12.6401 10.4116 12.6401C10.4509 12.6303 10.4853 12.6254 10.5148 12.6254C10.5934 12.6254 10.6769 12.6352 10.7653 12.6548C10.8636 12.6647 10.9667 12.6941 11.0748 12.7433C11.2123 12.812 11.3253 12.9201 11.4137 13.0675C11.512 13.205 11.5464 13.3524 11.5169 13.5096C11.7428 13.5096 11.9492 13.4359 12.1358 13.2885C12.6271 12.7678 13.0937 12.2619 13.5358 11.7706C13.9878 11.2696 14.3955 10.8324 14.759 10.459C15.1323 10.0661 15.54 9.66817 15.9821 9.26536C16.4243 8.86256 16.8958 8.51378 17.3969 8.21905C17.2102 8.11098 17.0383 8.01273 16.8811 7.92431C16.7239 7.82606 16.5962 7.75238 16.4979 7.70326C16.2327 7.55589 15.8741 7.3987 15.4221 7.23168C14.9702 7.05484 14.4839 6.90747 13.9632 6.78957C13.4425 6.66185 12.9414 6.59799 12.46 6.59799C11.7723 6.59799 11.1878 6.75027 10.7064 7.05484C10.2348 7.34957 9.87618 7.72291 9.63057 8.17484C9.39478 8.62677 9.27688 9.08852 9.27688 9.5601C9.27688 9.93343 9.35548 10.2871 9.51267 10.6212C9.67969 10.9552 9.9253 11.2254 10.2495 11.4317C10.5836 11.6282 10.9962 11.7264 11.4874 11.7264C11.5365 11.7264 11.5807 11.7264 11.62 11.7264C11.6692 11.7264 11.7134 11.7215 11.7527 11.7117C11.8509 11.6626 11.9295 11.5938 11.9885 11.5054C12.0572 11.4071 12.1014 11.3236 12.1211 11.2548C12.1407 11.1762 12.1506 11.1075 12.1506 11.0485C12.1506 10.9797 12.1358 10.9159 12.1064 10.8569C12.0867 10.798 12.0523 10.7636 12.0032 10.7538C11.9639 10.744 11.9443 10.7243 11.9443 10.6948C11.9443 10.6359 12.013 10.6064 12.1506 10.6064C12.2783 10.6064 12.3716 10.6457 12.4306 10.7243C12.4993 10.7931 12.5337 10.8815 12.5337 10.9896C12.5337 11.1075 12.4993 11.2205 12.4306 11.3285C12.3225 11.4955 12.1702 11.6183 11.9737 11.6969C12.4257 11.6282 12.8039 11.4906 13.1085 11.2843C13.413 11.078 13.639 10.8373 13.7864 10.5622C13.9436 10.2871 14.0221 10.0169 14.0221 9.75168C14.0221 9.40782 13.919 9.07378 13.7127 8.74957C13.5064 8.42536 13.1772 8.23378 12.7253 8.17484C12.686 8.17484 12.6418 8.17484 12.5927 8.17484C12.5534 8.17484 12.5092 8.18466 12.46 8.20431C12.3716 8.24361 12.293 8.30747 12.2243 8.39589C12.1653 8.47449 12.1358 8.55308 12.1358 8.63168C12.1358 8.7201 12.1702 8.78396 12.239 8.82326C12.2586 8.83308 12.2685 8.85273 12.2685 8.8822C12.2685 8.9215 12.2439 8.94115 12.1948 8.94115C12.1064 8.94115 12.0179 8.87238 11.9295 8.73484C11.9099 8.67589 11.9 8.62677 11.9 8.58747C11.9 8.55799 11.9099 8.51378 11.9295 8.45484C11.8902 8.47448 11.8657 8.49413 11.8558 8.51378C11.7772 8.58256 11.6397 8.64641 11.4432 8.70536C11.2467 8.76431 11.0502 8.79378 10.8537 8.79378C10.8046 8.79378 10.7604 8.79378 10.7211 8.79378C10.6818 8.78396 10.6376 8.77413 10.5885 8.76431C10.4607 8.73484 10.3478 8.67589 10.2495 8.58747C10.1611 8.48922 10.1169 8.37133 10.1169 8.23378C10.1169 8.19449 10.1267 8.17484 10.1464 8.17484C10.1562 8.17484 10.2053 8.20922 10.2937 8.27799C10.3428 8.30747 10.4067 8.3222 10.4853 8.3222C10.6916 8.3222 10.8685 8.24852 11.0158 8.10115C11.1828 7.92431 11.3744 7.77203 11.5906 7.64431C11.8067 7.51659 12.0032 7.45273 12.18 7.45273C12.4158 7.45273 12.5976 7.51659 12.7253 7.64431C12.8628 7.7622 12.9562 7.89975 13.0053 8.05694C13.4179 8.15519 13.7274 8.3615 13.9337 8.67589C14.1499 8.98045 14.2579 9.33905 14.2579 9.75168C14.2579 10.0955 14.1499 10.4394 13.9337 10.7833C13.7176 11.1271 13.4032 11.412 12.9906 11.638C12.5878 11.8541 12.0867 11.9622 11.4874 11.9622C10.8586 11.9622 10.3379 11.8492 9.92531 11.6233C9.51267 11.3875 9.2032 11.0878 8.99688 10.7243C8.79057 10.351 8.68741 9.95308 8.68741 9.53063C8.68741 9.18677 8.75618 8.83308 8.89373 8.46957C8.82495 8.49905 8.75618 8.52361 8.68741 8.54326C8.62846 8.56291 8.55478 8.57764 8.46636 8.58747C8.47618 8.80361 8.36811 9.01975 8.14215 9.23589C7.91618 9.45203 7.61162 9.5601 7.22846 9.5601C6.94355 9.5601 6.64881 9.50606 6.34425 9.39799C6.03969 9.28992 5.8432 9.13273 5.75478 8.92642C5.7253 8.84782 5.71057 8.78887 5.71057 8.74957C5.71057 8.6808 5.73022 8.63659 5.76951 8.61694C5.83829 8.73484 5.94636 8.79378 6.09373 8.79378C6.2018 8.79378 6.30987 8.76431 6.41794 8.70536C6.53583 8.64641 6.62916 8.58256 6.69794 8.51378C6.77653 8.43519 6.86495 8.35168 6.9632 8.26326C7.07127 8.16501 7.21864 8.0815 7.4053 8.01273C7.49373 7.98326 7.59688 7.96852 7.71478 7.96852C7.87197 7.96852 8.01934 8.00782 8.15688 8.08642C8.30425 8.15519 8.4025 8.27308 8.45162 8.4401C8.57934 8.42045 8.68741 8.39098 8.77583 8.35168C8.86425 8.31238 8.95759 8.23378 9.05583 8.11589C9.33092 7.59519 9.75829 7.15308 10.3379 6.78957C10.9274 6.42606 11.6593 6.24431 12.5337 6.24431C12.7597 6.24431 12.9906 6.26396 13.2264 6.30326C13.472 6.34255 13.7176 6.39168 13.9632 6.45063C13.8453 6.33273 13.7864 6.20501 13.7864 6.06747C13.7864 5.92992 13.8257 5.8415 13.9043 5.8022C13.9828 5.75308 14.0565 5.72852 14.1253 5.72852C14.0664 5.72852 14.0369 5.8022 14.0369 5.94957C14.0369 6.04782 14.0614 6.1608 14.1106 6.28852C14.1597 6.41624 14.2334 6.50466 14.3316 6.55378C14.7934 6.6815 15.2257 6.8387 15.6285 7.02536C16.0411 7.2022 16.3702 7.3594 16.6158 7.49694C16.6944 7.53624 16.8271 7.60992 17.0137 7.71799C17.2102 7.82606 17.4264 7.94396 17.6621 8.07168C17.9962 7.88501 18.34 7.74256 18.6937 7.64431C19.0572 7.53624 19.4257 7.4822 19.799 7.4822C20.1821 7.4822 20.4818 7.58045 20.6979 7.77694C20.9141 7.96361 21.0221 8.16992 21.0221 8.39589C21.0221 8.62185 20.9043 8.82326 20.6685 9.0001C20.4327 9.17694 20.0544 9.24571 19.5337 9.20641C19.4551 9.19659 19.3421 9.1622 19.1948 9.10326C19.0474 9.04431 18.8804 8.97554 18.6937 8.89694C18.625 8.98536 18.5464 9.0787 18.4579 9.17694C18.3695 9.27519 18.2811 9.37834 18.1927 9.48641C18.0257 9.69273 17.8488 9.95799 17.6621 10.2822C17.4755 10.5966 17.2986 10.9208 17.1316 11.2548C16.9646 11.579 16.8123 11.864 16.6748 12.1096C16.38 12.6696 15.9871 13.2247 15.4958 13.7748C15.0144 14.3152 14.4741 14.7917 13.8748 15.2043C13.2853 15.6071 12.6762 15.8822 12.0474 16.0296C12.0474 16.0296 12.1113 16.0345 12.239 16.0443C12.3765 16.0541 12.5386 16.064 12.7253 16.0738C12.912 16.0836 13.0937 16.0934 13.2706 16.1033C13.4572 16.1229 13.5948 16.1376 13.6832 16.1475C13.7716 16.1573 13.8846 16.1671 14.0221 16.1769C14.1695 16.1966 14.3218 16.2064 14.479 16.2064C14.7541 16.2064 15.0095 16.1671 15.2453 16.0885C15.4909 16.0197 15.6137 15.8724 15.6137 15.6464C15.6137 15.558 15.5941 15.4696 15.5548 15.3812L15.6874 15.3517C15.8544 15.6268 15.9379 15.8724 15.9379 16.0885C15.9379 16.3636 15.825 16.5699 15.599 16.7075C15.373 16.845 15.1323 16.9138 14.8769 16.9138C14.5134 16.9138 14.1351 16.8499 13.7421 16.7222C13.3492 16.5945 12.9316 16.4668 12.4895 16.339C12.0572 16.2212 11.5857 16.1622 11.0748 16.1622L11.0306 16.0296C11.0699 16.0394 11.1092 16.0443 11.1485 16.0443C11.1878 16.0541 11.2271 16.059 11.2664 16.059C11.6004 16.059 11.9443 15.9412 12.2979 15.7054C12.6516 15.4696 13.0004 15.1699 13.3443 14.8064C13.6881 14.4429 14.0123 14.0647 14.3169 13.6717C14.6313 13.2689 14.9064 12.9054 15.1421 12.5812C15.1913 12.4731 15.2502 12.3847 15.319 12.3159H13.3737C12.293 13.5243 11.3253 14.492 10.4706 15.219C9.62566 15.9362 8.8839 16.5061 8.2453 16.9285V16.9433H8.21583V16.958C8.03899 17.0661 7.89653 17.2085 7.78846 17.3854C7.66074 17.5819 7.60671 17.7685 7.62636 17.9454C7.6853 17.9159 7.75408 17.9012 7.83267 17.9012C7.95057 17.9012 8.06355 17.9355 8.17162 18.0043C8.28952 18.0731 8.37794 18.1615 8.43688 18.2696C8.51548 18.4071 8.55969 18.5299 8.56952 18.638C8.58916 18.7559 8.6039 18.864 8.61373 18.9622C8.62355 19.0899 8.67759 19.2275 8.77583 19.3748C8.87408 19.5222 9.0018 19.5713 9.15899 19.5222C9.15899 19.532 9.14916 19.5566 9.12952 19.5959C9.11969 19.645 9.07548 19.6892 8.99688 19.7285C8.92811 19.7678 8.8446 19.7875 8.74636 19.7875ZM19.7253 8.91168C20.0102 8.91168 20.2165 8.85273 20.3443 8.73484C20.4818 8.60712 20.5506 8.47448 20.5506 8.33694C20.5506 8.17975 20.4867 8.03729 20.359 7.90957C20.2313 7.78185 20.0446 7.71799 19.799 7.71799C19.4846 7.71799 19.1702 7.7622 18.8558 7.85063C18.5414 7.93905 18.232 8.05694 17.9274 8.20431C18.0551 8.27308 18.1779 8.34185 18.2958 8.41063C18.4236 8.46957 18.5464 8.52361 18.6643 8.57273C18.9099 8.34677 19.1555 8.13063 19.4011 7.92431L19.4895 8.02747C19.4502 8.07659 19.3765 8.15519 19.2685 8.26326C19.1604 8.37133 19.0327 8.50887 18.8853 8.67589C19.1309 8.79378 19.3078 8.86256 19.4158 8.8822C19.465 8.89203 19.5141 8.90185 19.5632 8.91168C19.6221 8.91168 19.6762 8.91168 19.7253 8.91168ZM15.5253 12.0801C15.9871 11.5103 16.4586 10.9454 16.94 10.3854C17.4214 9.82536 17.9274 9.28992 18.4579 8.77905C18.3302 8.71027 18.1976 8.6415 18.06 8.57273C17.9323 8.49413 17.7997 8.42045 17.6621 8.35168C17.1316 8.64641 16.6207 9.00992 16.1295 9.4422C15.6481 9.86466 15.1913 10.3117 14.759 10.7833C14.3365 11.245 13.9485 11.6773 13.5948 12.0801H15.5253ZM14.5233 21.7327C14.2679 21.7327 14.0566 21.659 13.8896 21.5117C13.7226 21.3643 13.6391 21.1678 13.6391 20.9222C13.6391 20.8043 13.6637 20.6717 13.7128 20.5243C13.7619 20.3868 13.8405 20.2443 13.9486 20.0969C14.1451 19.8219 14.4349 19.5124 14.8181 19.1685C15.1914 18.8345 15.5844 18.5152 15.997 18.2106C16.4489 17.8668 16.8812 17.5622 17.2938 17.2969C17.7163 17.0415 18.07 16.8352 18.3549 16.678C18.6496 16.5306 18.8216 16.4471 18.8707 16.4275C18.8903 16.4078 18.9247 16.3243 18.9738 16.1769C19.0328 16.0394 19.0966 15.8822 19.1654 15.7054C19.2342 15.5285 19.2931 15.3664 19.3423 15.219C19.4012 15.0619 19.4405 14.9587 19.4602 14.9096L19.5928 14.5706C19.4159 14.7966 19.2096 15.0275 18.9738 15.2633C18.7479 15.4892 18.5023 15.6808 18.237 15.838C17.9816 15.9952 17.7163 16.0738 17.4412 16.0738C17.1072 16.0738 16.8763 15.9706 16.7486 15.7643C16.6307 15.5482 16.5717 15.3124 16.5717 15.0569C16.5717 14.9292 16.5816 14.8064 16.6012 14.6885C16.6307 14.5608 16.6602 14.4478 16.6896 14.3496C16.7781 14.0647 16.9254 13.7503 17.1317 13.4064C17.3479 13.0626 17.6082 12.7334 17.9128 12.419C18.2174 12.0948 18.5514 11.8296 18.9149 11.6233C19.2882 11.4169 19.6714 11.3138 20.0644 11.3138C20.3591 11.3138 20.5556 11.3875 20.6538 11.5348C20.7619 11.6822 20.8159 11.8492 20.8159 12.0359C20.8159 12.0752 20.811 12.1145 20.8012 12.1538C20.8012 12.1931 20.7963 12.2373 20.7865 12.2864C20.8945 12.1194 21.0468 11.9082 21.2433 11.6527C21.4496 11.3875 21.6461 11.1762 21.8328 11.019C21.9703 10.911 22.1079 10.8569 22.2454 10.8569C22.3535 10.8569 22.4419 10.8864 22.5107 10.9454C22.5893 10.9945 22.6286 11.0534 22.6286 11.1222C22.6286 11.191 22.5795 11.2548 22.4812 11.3138C22.1766 11.471 21.8917 11.6478 21.6265 11.8443C21.3612 12.031 21.1254 12.2619 20.9191 12.5369C20.7619 12.7531 20.6244 13.0183 20.5065 13.3327C20.3886 13.6471 20.2854 13.9762 20.197 14.3201C20.1086 14.6541 20.0251 14.9783 19.9465 15.2927C19.8679 15.5973 19.7893 15.8576 19.7107 16.0738C19.8679 15.9755 20.084 15.8085 20.3591 15.5727C20.6342 15.3369 20.9191 15.052 21.2138 14.718C21.5184 14.384 21.7788 14.0303 21.9949 13.6569C22.0342 13.6078 22.0637 13.5783 22.0833 13.5685C22.103 13.5587 22.1226 13.5538 22.1423 13.5538C22.1717 13.5538 22.1963 13.5685 22.2159 13.598C22.2454 13.6176 22.2552 13.6422 22.2454 13.6717C21.9703 14.1531 21.6559 14.5903 21.3023 14.9833C20.9486 15.3762 20.6195 15.6955 20.3149 15.9412C20.0103 16.1868 19.7893 16.339 19.6517 16.398C19.4454 16.9875 19.1703 17.6113 18.8265 18.2696C18.4924 18.9376 18.0602 19.5664 17.5296 20.1559C17.3331 20.372 17.0728 20.6029 16.7486 20.8485C16.4342 21.0941 16.0854 21.3005 15.7023 21.4675C15.3191 21.6443 14.9261 21.7327 14.5233 21.7327ZM17.6623 15.8085C17.8882 15.8085 18.124 15.7103 18.3696 15.5138C18.6251 15.3173 18.8756 15.0668 19.1212 14.7622C19.3766 14.4576 19.6075 14.1383 19.8138 13.8043C20.0202 13.4703 20.1872 13.1608 20.3149 12.8759C20.4524 12.591 20.531 12.3748 20.5507 12.2275C20.5605 12.1783 20.5654 12.1292 20.5654 12.0801C20.5752 12.0212 20.5802 11.972 20.5802 11.9327C20.5802 11.6183 20.4672 11.4612 20.2412 11.4612C20.084 11.4612 19.9023 11.5299 19.6959 11.6675C19.4896 11.805 19.2784 11.9819 19.0623 12.198C18.8559 12.4141 18.6595 12.6499 18.4728 12.9054C18.2959 13.151 18.1535 13.3917 18.0454 13.6275C18.0159 13.6864 17.9423 13.8289 17.8244 14.0548C17.7163 14.2808 17.6082 14.5264 17.5002 14.7917C17.4019 15.0569 17.3528 15.2878 17.3528 15.4843C17.3528 15.7005 17.4559 15.8085 17.6623 15.8085ZM14.4791 21.4969C14.7051 21.4969 14.9752 21.384 15.2896 21.158C15.5942 20.932 15.9135 20.6373 16.2475 20.2738C16.5914 19.9103 16.9254 19.5173 17.2496 19.0948C17.5738 18.6724 17.8686 18.2597 18.1338 17.8569C18.3991 17.4541 18.6103 17.1005 18.7675 16.7959C18.63 16.8647 18.4188 16.9826 18.1338 17.1496C17.8489 17.3264 17.5247 17.5327 17.1612 17.7685C16.7977 18.0141 16.4293 18.2794 16.0559 18.5643C15.6924 18.8492 15.3535 19.1341 15.0391 19.419C14.7149 19.7138 14.4595 19.9938 14.2728 20.259C14.0763 20.5243 13.9781 20.765 13.9781 20.9812C13.9781 21.0794 14.0075 21.1727 14.0665 21.2612C14.1647 21.4183 14.3023 21.4969 14.4791 21.4969Z" fill="white"/>
</svg>
