<svg width="24" height="24" viewBox="0 0 24 24" fill="none" xmlns="http://www.w3.org/2000/svg">
<path d="M5.45117 16.0771C5.5013 16.0726 5.64486 16.0703 5.88184 16.0703C6.12337 16.0703 6.32845 16.0658 6.49707 16.0566C6.66569 16.043 6.83659 16.0202 7.00977 15.9883C7.40169 15.9245 7.71159 15.8288 7.93945 15.7012C7.13281 16.2435 6.59277 16.5671 6.31934 16.6719C6.05046 16.7767 5.81803 16.8496 5.62207 16.8906C5.2347 16.9635 4.74707 17 4.15918 17H3.89941L3.91992 16.9727C4.07031 16.8405 4.2207 16.7106 4.37109 16.583C4.52148 16.4508 4.72428 16.2572 4.97949 16.002C5.2347 15.7422 5.52409 15.4095 5.84766 15.0039C6.17122 14.5938 6.48112 14.1745 6.77734 13.7461C7.07812 13.3177 7.36979 12.887 7.65234 12.4541C7.93945 12.0166 8.23112 11.5768 8.52734 11.1348C8.82357 10.6882 9.12435 10.2438 9.42969 9.80176C9.73958 9.35514 9.97428 8.99967 10.1338 8.73535C10.2933 8.47103 10.389 8.31152 10.4209 8.25684C10.4528 8.19759 10.4915 8.1429 10.5371 8.09277H10.0176C9.16536 8.09277 8.48405 8.18848 7.97363 8.37988C8.75293 7.81022 9.39551 7.45703 9.90137 7.32031C10.2386 7.22917 10.6032 7.18132 10.9951 7.17676C11.387 7.16764 11.7493 7.16309 12.082 7.16309C12.1777 8.49837 12.2689 9.82682 12.3555 11.1484C12.4421 12.4655 12.5218 13.4886 12.5947 14.2178C12.6676 14.9469 12.7064 15.373 12.7109 15.4961C12.7201 15.6191 12.7451 15.7308 12.7861 15.8311C12.8682 16.0544 13.055 16.166 13.3467 16.166C13.6383 16.166 13.9642 16.0635 14.3242 15.8584C14.1784 15.9541 13.9984 16.0749 13.7842 16.2207C13.57 16.362 13.3444 16.4987 13.1074 16.6309C12.5332 16.959 12.098 17.123 11.8018 17.123C11.4873 17.123 11.2959 16.9681 11.2275 16.6582C11.1273 16.2207 11.0589 15.6419 11.0225 14.9219C10.9906 14.2018 10.9495 13.5592 10.8994 12.9941C10.43 13.2858 9.42741 13.4134 7.8916 13.377C7.15788 14.3841 6.3444 15.2842 5.45117 16.0771ZM9.99023 12.4541C10.2773 12.4541 10.5667 12.445 10.8584 12.4268C10.7718 11.3695 10.6943 10.3509 10.626 9.37109C9.97428 10.3646 9.2793 11.39 8.54102 12.4473C8.5957 12.4336 8.62988 12.4268 8.64355 12.4268L9.99023 12.4541ZM19.3281 10.3076L21.3105 10.3555C21.5384 10.3555 21.748 10.3076 21.9395 10.2119C21.8711 10.4307 21.5498 10.6768 20.9756 10.9502C20.766 11.0505 20.5928 11.1165 20.4561 11.1484C20.5062 11.3079 20.5312 11.5267 20.5312 11.8047C20.5312 12.0781 20.472 12.3584 20.3535 12.6455C20.2396 12.9281 20.0869 13.1855 19.8955 13.418C19.7087 13.6504 19.4922 13.8623 19.2461 14.0537C19.0046 14.2406 18.7562 14.4137 18.501 14.5732C18.2503 14.7282 18.002 14.8717 17.7559 15.0039C17.5143 15.1361 17.2979 15.2637 17.1064 15.3867C16.6872 15.6556 16.4775 15.8857 16.4775 16.0771C16.4775 16.3141 16.6188 16.5078 16.9014 16.6582C17.0563 16.7402 17.2523 16.8291 17.4893 16.9248C17.7308 17.0205 17.9541 17.1117 18.1592 17.1982C18.3643 17.2894 18.5671 17.3874 18.7676 17.4922C18.9727 17.6016 19.1572 17.7201 19.3213 17.8477C19.6904 18.1257 19.875 18.4128 19.875 18.709C19.875 19.3516 19.1937 19.9349 17.8311 20.459C17.0016 20.7826 16.1904 20.999 15.3975 21.1084C15.165 21.1403 14.9827 21.1562 14.8506 21.1562C14.723 21.1562 14.5863 21.1494 14.4404 21.1357C14.2946 21.1266 14.1374 21.1084 13.9688 21.0811C13.8047 21.0537 13.6383 21.0173 13.4697 20.9717C13.3011 20.9261 13.1507 20.8669 13.0186 20.7939C12.7132 20.6299 12.5605 20.4385 12.5605 20.2197C12.5605 20.001 12.6152 19.8027 12.7246 19.625C12.834 19.4473 12.9775 19.2809 13.1553 19.126C13.3285 18.971 13.5267 18.8275 13.75 18.6953C13.9733 18.5632 14.1966 18.4401 14.4199 18.3262C14.6432 18.2122 14.8551 18.1051 15.0557 18.0049C15.2607 17.9092 15.4339 17.8203 15.5752 17.7383C15.3063 17.6289 15.1149 17.4785 15.001 17.2871C14.96 17.2142 14.9395 17.1322 14.9395 17.041C14.9395 16.9544 14.9714 16.861 15.0352 16.7607C15.099 16.6605 15.181 16.5625 15.2812 16.4668C15.3861 16.3711 15.5023 16.2777 15.6299 16.1865C15.7575 16.0954 15.8851 16.0111 16.0127 15.9336C16.1403 15.8561 16.2611 15.7855 16.375 15.7217C16.4889 15.6533 16.5824 15.5964 16.6553 15.5508C16.4456 15.61 16.2337 15.6396 16.0195 15.6396C15.8099 15.6396 15.6162 15.5986 15.4385 15.5166C15.2607 15.4346 15.1104 15.3229 14.9873 15.1816C14.7503 14.9036 14.6318 14.5618 14.6318 14.1562C14.6318 13.7461 14.7048 13.3815 14.8506 13.0625C14.9964 12.7389 15.1901 12.4382 15.4316 12.1602C15.6732 11.8822 15.9535 11.6292 16.2725 11.4014C16.5915 11.1735 16.9242 10.9798 17.2705 10.8203C18.0042 10.4785 18.6901 10.3076 19.3281 10.3076ZM18.9863 12.5977C18.9863 12.1419 18.8724 11.8024 18.6445 11.5791C18.4167 11.3558 18.1159 11.2441 17.7422 11.2441C17.373 11.2441 17.0905 11.3011 16.8945 11.415C16.6986 11.5244 16.5459 11.6725 16.4365 11.8594C16.2542 12.1738 16.1631 12.6022 16.1631 13.1445C16.1631 14.1973 16.6484 14.7236 17.6191 14.7236C18.0521 14.7236 18.4007 14.4593 18.665 13.9307C18.8792 13.4977 18.9863 13.0534 18.9863 12.5977ZM16.6758 20.2197C17.8014 20.2197 18.3643 19.9281 18.3643 19.3447C18.3643 18.8981 17.6488 18.4447 16.2178 17.9844C16.0583 17.9297 15.9329 17.8841 15.8418 17.8477C14.6979 18.3034 14.126 18.791 14.126 19.3105C14.126 19.5658 14.6956 19.8255 15.835 20.0898C16.2223 20.1764 16.5026 20.2197 16.6758 20.2197Z" fill="white"/>
</svg>
