<svg width="24" height="24" viewBox="0 0 24 24" fill="none" xmlns="http://www.w3.org/2000/svg">
<path d="M8.52734 6.89453H8.93066L11.3506 13.8809C11.5283 14.4004 11.722 14.8265 11.9316 15.1592C12.1458 15.4873 12.4056 15.6582 12.7109 15.6719V16H10.2568V15.6719H10.4141C10.4915 15.6719 10.5303 15.5967 10.5303 15.4463C10.5303 15.4007 10.5212 15.3506 10.5029 15.2959L9.68262 12.917H6.69531C6.38086 13.8011 6.22363 14.4596 6.22363 14.8926C6.22363 15.1204 6.29655 15.3073 6.44238 15.4531C6.59277 15.599 6.78874 15.6719 7.03027 15.6719H7.39258V16H4.33008V15.6719C4.84049 15.6445 5.30534 15.0999 5.72461 14.0381L8.52734 6.89453ZM8.28809 8.86328L6.85254 12.5H9.53223L8.28809 8.86328ZM16.2725 13.5391C16.2178 13.5482 16.1357 13.5596 16.0264 13.5732C15.6982 13.6279 15.4521 13.6553 15.2881 13.6553C14.7321 13.6553 14.2695 13.5049 13.9004 13.2041C13.5312 12.8988 13.3467 12.5046 13.3467 12.0215C13.3467 11.3926 13.6566 10.8252 14.2764 10.3193C14.9007 9.81348 15.5911 9.56055 16.3477 9.56055C16.5436 9.56055 16.71 9.57878 16.8467 9.61523C16.9834 9.65169 17.2386 9.74512 17.6123 9.89551C18.0088 10.0596 18.2936 10.1644 18.4668 10.21C18.64 10.2555 18.8451 10.2783 19.082 10.2783H19.5674V10.5996H18.1729C18.2822 10.8366 18.3369 11.0531 18.3369 11.249C18.3369 11.5225 18.264 11.8027 18.1182 12.0898C17.9723 12.377 17.6214 12.7598 17.0654 13.2383C16.5231 13.7077 16.252 14.0381 16.252 14.2295C16.252 14.3799 16.3499 14.5143 16.5459 14.6328C16.7373 14.7559 17.0768 14.8971 17.5645 15.0566C18.2663 15.2891 18.7812 15.5192 19.1094 15.7471C19.4375 15.9749 19.6016 16.278 19.6016 16.6562C19.6016 17.3398 19.1641 17.9209 18.2891 18.3994C17.4141 18.8825 16.4274 19.124 15.3291 19.124C14.5179 19.124 13.8434 18.9805 13.3057 18.6934C12.7679 18.4108 12.499 18.0371 12.499 17.5723C12.499 17.112 12.7998 16.6995 13.4014 16.335C14.0075 15.9749 14.8232 15.6947 15.8486 15.4941C15.6846 15.3757 15.5592 15.2549 15.4727 15.1318C15.3906 15.0042 15.3496 14.8721 15.3496 14.7354C15.3496 14.5485 15.4134 14.373 15.541 14.209C15.6686 14.0449 15.9124 13.8216 16.2725 13.5391ZM15.9033 9.9707C15.443 9.9707 15.0853 10.1348 14.8301 10.4629C14.5749 10.791 14.4473 11.1829 14.4473 11.6387C14.4473 12.099 14.5749 12.4909 14.8301 12.8145C15.0853 13.138 15.4225 13.2998 15.8418 13.2998C16.2474 13.2998 16.5846 13.1403 16.8535 12.8213C17.127 12.5023 17.2637 12.1035 17.2637 11.625C17.2637 11.1419 17.1315 10.7454 16.8672 10.4355C16.6074 10.1257 16.2861 9.9707 15.9033 9.9707ZM16.2725 15.6719C15.3382 15.9089 14.6364 16.1755 14.167 16.4717C13.6976 16.7725 13.4629 17.1006 13.4629 17.4561C13.4629 17.7751 13.6543 18.0622 14.0371 18.3174C14.4245 18.5771 15.0033 18.707 15.7734 18.707C16.6621 18.707 17.3617 18.5384 17.8721 18.2012C18.3825 17.8639 18.6377 17.4788 18.6377 17.0459C18.6377 16.8089 18.5329 16.6221 18.3232 16.4854C18.1182 16.3486 17.6966 16.1709 17.0586 15.9521L16.2725 15.6719Z" fill="white"/>
</svg>
