<svg width="24" height="24" viewBox="0 0 24 24" fill="none" xmlns="http://www.w3.org/2000/svg">
<path d="M11.4934 14.8378C11.6054 15.1271 11.7267 15.3185 11.8574 15.4118C11.988 15.4958 12.226 15.5378 12.5714 15.5378V15.9998H8.79138V15.5378H9.42138C9.55204 15.5378 9.65004 15.5051 9.71538 15.4398C9.78071 15.3745 9.81338 15.2905 9.81338 15.1878C9.81338 15.1131 9.79938 15.0338 9.77138 14.9498L8.95938 12.5978H6.10338L5.31938 14.9918C5.29138 15.0851 5.27738 15.1691 5.27738 15.2438C5.27738 15.4398 5.40338 15.5378 5.65538 15.5378H6.34138V15.9998H3.42938V15.5378C3.79338 15.5378 4.04538 15.4865 4.18538 15.3838C4.32538 15.2718 4.45138 15.0665 4.56338 14.7678L7.47537 6.75977H8.66538L11.4934 14.8378ZM8.80538 12.1358L7.53138 8.41177H7.48938L6.25738 12.1358H8.80538ZM19.3466 9.27977C19.6546 9.27977 19.9113 9.3591 20.1166 9.51777C20.3219 9.67643 20.4246 9.90977 20.4246 10.2178C20.4246 10.4325 20.3733 10.6051 20.2706 10.7358C20.1679 10.8665 20.0139 10.9318 19.8086 10.9318C19.6219 10.9318 19.4773 10.8851 19.3746 10.7918C19.2813 10.6985 19.2346 10.5865 19.2346 10.4558C19.2346 10.3625 19.2439 10.2878 19.2626 10.2318C19.2813 10.1665 19.2906 10.1151 19.2906 10.0778C19.2906 10.0405 19.2719 10.0031 19.2346 9.96576C19.1973 9.92844 19.1226 9.90977 19.0106 9.90977C18.7959 9.90977 18.6139 10.0125 18.4646 10.2178C18.7353 10.5818 18.8706 11.0111 18.8706 11.5058C18.8706 12.2525 18.6046 12.8031 18.0726 13.1578C17.5406 13.5031 16.8779 13.6758 16.0846 13.6758C15.7579 13.6758 15.4453 13.6478 15.1466 13.5918C14.9319 13.7598 14.8246 13.9091 14.8246 14.0398C14.8246 14.1518 14.8993 14.2545 15.0486 14.3478C15.1979 14.4318 15.4266 14.4738 15.7346 14.4738H17.0086C17.8206 14.4738 18.4459 14.6511 18.8846 15.0058C19.3233 15.3511 19.5426 15.8505 19.5426 16.5038C19.5426 17.3158 19.2206 17.9271 18.5766 18.3378C17.9326 18.7578 17.1159 18.9678 16.1266 18.9678C15.2493 18.9678 14.5306 18.8091 13.9706 18.4918C13.4199 18.1745 13.1446 17.7125 13.1446 17.1058C13.1446 16.7791 13.2379 16.5085 13.4246 16.2938C13.6206 16.0885 13.9473 15.9158 14.4046 15.7758C14.1153 15.6731 13.8866 15.5285 13.7186 15.3418C13.5599 15.1551 13.4806 14.9451 13.4806 14.7118C13.4806 14.2358 13.8446 13.8065 14.5726 13.4238C13.7046 13.0691 13.2706 12.4391 13.2706 11.5338C13.2706 10.7685 13.5553 10.2085 14.1246 9.85377C14.6939 9.48977 15.3659 9.30777 16.1406 9.30777C16.5326 9.30777 16.9013 9.3591 17.2466 9.46177C17.6013 9.5551 17.9046 9.70444 18.1566 9.90977C18.4553 9.48977 18.8519 9.27977 19.3466 9.27977ZM16.1126 13.1158C16.5139 13.1158 16.8173 12.9711 17.0226 12.6818C17.2279 12.3831 17.3306 11.9678 17.3306 11.4358C17.3306 10.9225 17.2513 10.5351 17.0926 10.2738C16.9339 10.0125 16.6259 9.88177 16.1686 9.88177C15.7019 9.88177 15.3846 10.0171 15.2166 10.2878C15.0486 10.5585 14.9646 10.9645 14.9646 11.5058C14.9646 12.0378 15.0439 12.4391 15.2026 12.7098C15.3613 12.9805 15.6646 13.1158 16.1126 13.1158ZM18.2266 17.0358C18.2266 16.6438 18.0679 16.3545 17.7506 16.1678C17.4333 15.9905 16.9433 15.9018 16.2806 15.9018H15.3706C14.8666 16.0978 14.6146 16.4525 14.6146 16.9658C14.6146 17.3951 14.7873 17.7451 15.1326 18.0158C15.4779 18.2865 15.9119 18.4218 16.4346 18.4218C16.9293 18.4218 17.3493 18.3005 17.6946 18.0578C18.0493 17.8151 18.2266 17.4745 18.2266 17.0358Z" fill="white"/>
</svg>
