<svg width="24" height="24" viewBox="0 0 24 24" fill="none" xmlns="http://www.w3.org/2000/svg">
<path d="M5.84224 13.1922H10.0492L10.1052 13.6402H5.75824L5.84224 13.1922ZM6.36024 16.8182C6.36024 16.8742 6.33691 16.9185 6.29024 16.9512C6.24824 16.9839 6.18058 17.0002 6.08724 17.0002H3.94524C3.85191 17.0002 3.78191 16.9839 3.73524 16.9512C3.69324 16.9185 3.67224 16.8765 3.67224 16.8252C3.67224 16.7832 3.68858 16.7482 3.72124 16.7202C3.75391 16.6922 3.81691 16.6619 3.91024 16.6292L4.21824 16.5382C4.34891 16.4915 4.44458 16.4262 4.50524 16.3422C4.56591 16.2535 4.63358 16.0949 4.70824 15.8662L7.38924 7.9982C7.43591 7.86287 7.44291 7.7672 7.41024 7.7112C7.37758 7.6552 7.27724 7.6132 7.10924 7.5852C6.98324 7.56187 6.89458 7.53387 6.84324 7.5012C6.79191 7.46387 6.76624 7.41953 6.76624 7.3682C6.76624 7.31687 6.78958 7.2772 6.83624 7.2492C6.88291 7.21653 6.95291 7.2002 7.04624 7.2002H9.40524C9.49858 7.2002 9.56624 7.21653 9.60824 7.2492C9.65491 7.2772 9.67824 7.31453 9.67824 7.3612C9.67824 7.4172 9.65491 7.46387 9.60824 7.5012C9.56158 7.53387 9.47524 7.55953 9.34924 7.5782C9.20924 7.60153 9.12524 7.63653 9.09724 7.6832C9.06924 7.7252 9.07391 7.79987 9.11124 7.9072L11.9322 16.1042C11.9789 16.2582 12.0466 16.3725 12.1352 16.4472C12.2286 16.5219 12.3639 16.5755 12.5412 16.6082C12.6579 16.6315 12.7349 16.6595 12.7722 16.6922C12.8096 16.7249 12.8282 16.7669 12.8282 16.8182C12.8282 16.8742 12.8049 16.9185 12.7582 16.9512C12.7116 16.9839 12.6439 17.0002 12.5552 17.0002H10.0842C9.99558 17.0002 9.92791 16.9839 9.88124 16.9512C9.83458 16.9185 9.81124 16.8742 9.81124 16.8182C9.81124 16.7715 9.82991 16.7319 9.86724 16.6992C9.90458 16.6665 9.96524 16.6432 10.0492 16.6292L10.6302 16.5592C10.7516 16.5405 10.8169 16.4962 10.8262 16.4262C10.8356 16.3562 10.8146 16.2419 10.7632 16.0832L7.87924 7.6552L8.05424 7.5922L5.26824 15.8242C5.21691 15.9735 5.19124 16.0972 5.19124 16.1952C5.19124 16.2885 5.22158 16.3632 5.28224 16.4192C5.34291 16.4752 5.43624 16.5195 5.56224 16.5522L6.11524 16.6292C6.20391 16.6479 6.26691 16.6712 6.30424 16.6992C6.34158 16.7272 6.36024 16.7669 6.36024 16.8182ZM17.5826 16.7482C16.9199 16.6269 16.4369 16.5172 16.1336 16.4192C15.8302 16.3212 15.6366 16.2279 15.5526 16.1392C15.4732 16.0459 15.4336 15.9549 15.4336 15.8662C15.4336 15.7542 15.4756 15.6515 15.5596 15.5582C15.6436 15.4649 15.7882 15.3692 15.9936 15.2712L15.7626 15.1872C15.4732 15.2619 15.2446 15.3552 15.0766 15.4672C14.9132 15.5792 14.7966 15.7005 14.7266 15.8312C14.6566 15.9572 14.6216 16.0879 14.6216 16.2232C14.6216 16.4005 14.6822 16.5615 14.8036 16.7062C14.9249 16.8462 15.1582 16.9769 15.5036 17.0982C15.8536 17.2242 16.3716 17.3502 17.0576 17.4762C17.6222 17.5742 18.0562 17.6862 18.3596 17.8122C18.6629 17.9429 18.8729 18.0829 18.9896 18.2322C19.1062 18.3862 19.1646 18.5589 19.1646 18.7502C19.1646 19.0115 19.0782 19.2379 18.9056 19.4292C18.7376 19.6205 18.4809 19.7675 18.1356 19.8702C17.7902 19.9775 17.3609 20.0312 16.8476 20.0312C15.9376 20.0312 15.2889 19.8935 14.9016 19.6182C14.5189 19.3475 14.3276 18.9999 14.3276 18.5752C14.3276 18.2345 14.4979 17.9312 14.8386 17.6652C15.1839 17.3992 15.6926 17.2289 16.3646 17.1542L16.1826 16.9512C15.1979 17.0772 14.5072 17.3059 14.1106 17.6372C13.7186 17.9732 13.5226 18.3419 13.5226 18.7432C13.5226 19.0605 13.6322 19.3452 13.8516 19.5972C14.0709 19.8539 14.4139 20.0569 14.8806 20.2062C15.3472 20.3555 15.9539 20.4302 16.7006 20.4302C17.7739 20.4302 18.5999 20.2505 19.1786 19.8912C19.7572 19.5365 20.0466 19.0792 20.0466 18.5192C20.0466 18.2252 19.9719 17.9639 19.8226 17.7352C19.6732 17.5112 19.4189 17.3175 19.0596 17.1542C18.7049 16.9909 18.2126 16.8555 17.5826 16.7482ZM18.0656 11.0922L18.3526 11.1762C18.5439 10.8635 18.6979 10.6582 18.8146 10.5602C18.9359 10.4622 19.0572 10.4132 19.1786 10.4132C19.2766 10.4132 19.3559 10.4412 19.4166 10.4972C19.4772 10.5532 19.5309 10.6162 19.5776 10.6862C19.6289 10.7562 19.6849 10.8192 19.7456 10.8752C19.8109 10.9312 19.8926 10.9592 19.9906 10.9592C20.1306 10.9592 20.2379 10.9125 20.3126 10.8192C20.3919 10.7212 20.4316 10.5929 20.4316 10.4342C20.4316 10.2335 20.3592 10.0725 20.2146 9.9512C20.0699 9.8252 19.8786 9.7622 19.6406 9.7622C19.3886 9.7622 19.1459 9.84387 18.9126 10.0072C18.6792 10.1705 18.4716 10.4085 18.2896 10.7212L18.0656 11.0922ZM19.4936 12.8772C19.4936 12.4012 19.3722 11.9742 19.1296 11.5962C18.8916 11.2182 18.5602 10.9195 18.1356 10.7002C17.7156 10.4762 17.2302 10.3642 16.6796 10.3642C16.1289 10.3642 15.6342 10.4762 15.1956 10.7002C14.7616 10.9242 14.4186 11.2369 14.1666 11.6382C13.9146 12.0349 13.7886 12.4992 13.7886 13.0312C13.7886 13.4979 13.9099 13.9225 14.1526 14.3052C14.3952 14.6879 14.7266 14.9889 15.1466 15.2082C15.5712 15.4275 16.0566 15.5372 16.6026 15.5372C17.1532 15.5372 17.6456 15.4252 18.0796 15.2012C18.5182 14.9772 18.8636 14.6669 19.1156 14.2702C19.3676 13.8689 19.4936 13.4045 19.4936 12.8772ZM16.4976 10.7562C17.0669 10.7469 17.5266 10.9499 17.8766 11.3652C18.2312 11.7805 18.4202 12.3335 18.4436 13.0242C18.4716 13.6729 18.3386 14.1862 18.0446 14.5642C17.7506 14.9375 17.3306 15.1289 16.7846 15.1382C16.4066 15.1429 16.0729 15.0519 15.7836 14.8652C15.4989 14.6785 15.2726 14.4149 15.1046 14.0742C14.9412 13.7289 14.8526 13.3275 14.8386 12.8702C14.8199 12.4362 14.8736 12.0629 14.9996 11.7502C15.1256 11.4329 15.3146 11.1902 15.5666 11.0222C15.8232 10.8495 16.1336 10.7609 16.4976 10.7562Z" fill="white"/>
</svg>
