<svg width="24" height="24" viewBox="0 0 24 24" fill="none" xmlns="http://www.w3.org/2000/svg">
<path d="M6.21395 13.5278L4.79995 16.9998H4.11395L8.53795 6.09375L12.9479 16.9998H12.2619L10.8479 13.5278H6.21395ZM10.5959 12.8977L8.53795 7.80175L6.46595 12.8977H10.5959ZM16.6527 20.6817C15.7427 20.6817 15.0007 20.4298 14.4127 19.9398C13.8247 19.4358 13.5027 18.7637 13.4607 17.9097H14.0907C14.1327 18.5817 14.3847 19.1138 14.8747 19.5058C15.3507 19.8978 15.9247 20.0938 16.5967 20.0938C18.2347 20.0938 19.2427 19.0297 19.2427 16.8317V15.8798H19.2147C18.6407 16.6638 17.6607 17.1397 16.6947 17.1397C15.7847 17.1397 15.0287 16.8038 14.4407 16.1318C13.8527 15.4738 13.5587 14.6758 13.5587 13.7517C13.5587 12.7857 13.8667 11.9877 14.4827 11.3438C15.0987 10.7138 15.8687 10.3918 16.7787 10.3918C17.7867 10.3918 18.5987 10.8118 19.2147 11.6518H19.2427V10.5317H19.8727V16.8038C19.8727 17.7418 19.7467 18.4698 19.4947 18.9878C18.9907 20.0098 17.9407 20.6817 16.6527 20.6817ZM16.7367 16.5518C17.5067 16.5518 18.1227 16.2857 18.5847 15.7397C19.0467 15.1937 19.2847 14.5078 19.2847 13.6538C19.2847 12.8558 19.0327 12.1978 18.5427 11.7078C18.0527 11.2178 17.4227 10.9797 16.6807 10.9797C15.9947 10.9797 15.4067 11.2457 14.9167 11.7917C14.4267 12.3377 14.1887 12.9818 14.1887 13.7238C14.1887 14.5218 14.4267 15.1937 14.9167 15.7397C15.4067 16.2857 16.0087 16.5518 16.7367 16.5518Z" fill="white"/>
</svg>
