<svg width="24" height="24" viewBox="0 0 24 24" fill="none" xmlns="http://www.w3.org/2000/svg">
<path d="M10.8171 16.0001L10.4671 14.1801H8.61911L8.26911 16.0001H7.05111L9.08111 6.66211H10.0751L12.0631 16.0001H10.8171ZM10.2851 13.2141C10.1451 12.4208 10.0098 11.6321 9.87911 10.8481C9.74844 10.0641 9.64111 9.27544 9.55711 8.48211C9.48244 9.28478 9.37511 10.0781 9.23511 10.8621C9.09511 11.6368 8.95044 12.4208 8.80111 13.2141H10.2851ZM16.324 16.4201C16.324 16.7748 16.2914 17.0874 16.226 17.3581C16.17 17.6381 16.0674 17.8714 15.918 18.0581C15.7687 18.2448 15.568 18.3848 15.316 18.4781C15.064 18.5808 14.7467 18.6321 14.364 18.6321C13.832 18.6321 13.4027 18.4688 13.076 18.1421C12.7494 17.8248 12.586 17.4001 12.586 16.8681C12.586 16.8308 12.586 16.7934 12.586 16.7561C12.5954 16.7281 12.6 16.6954 12.6 16.6581H13.72C13.72 16.9194 13.7667 17.1528 13.86 17.3581C13.9534 17.5634 14.154 17.6661 14.462 17.6661C14.63 17.6661 14.7607 17.6334 14.854 17.5681C14.9474 17.5028 15.0174 17.4188 15.064 17.3161C15.1107 17.2134 15.1387 17.0968 15.148 16.9661C15.1574 16.8354 15.162 16.7048 15.162 16.5741V15.2301C15.05 15.4914 14.9054 15.7014 14.728 15.8601C14.56 16.0188 14.3267 16.0981 14.028 16.0981C13.6547 16.0981 13.3654 15.9814 13.16 15.7481C12.9547 15.5148 12.8007 15.2301 12.698 14.8941C12.6047 14.5581 12.5487 14.2081 12.53 13.8441C12.5114 13.4708 12.502 13.1534 12.502 12.8921C12.502 12.6214 12.5114 12.2994 12.53 11.9261C12.5487 11.5528 12.6047 11.1981 12.698 10.8621C12.7914 10.5261 12.9407 10.2414 13.146 10.0081C13.3514 9.76544 13.6454 9.64411 14.028 9.64411C14.3267 9.64411 14.5554 9.72811 14.714 9.89611C14.882 10.0548 15.0314 10.2554 15.162 10.4981V9.74211H16.324V16.4201ZM15.176 12.7941C15.176 12.6634 15.1714 12.4814 15.162 12.2481C15.1527 12.0054 15.1247 11.7721 15.078 11.5481C15.0314 11.3148 14.9567 11.1141 14.854 10.9461C14.7514 10.7781 14.602 10.6941 14.406 10.6941C14.21 10.6941 14.0607 10.7921 13.958 10.9881C13.8554 11.1841 13.7854 11.4174 13.748 11.6881C13.7107 11.9494 13.692 12.2154 13.692 12.4861C13.692 12.7474 13.692 12.9481 13.692 13.0881C13.692 13.2188 13.6967 13.3961 13.706 13.6201C13.7154 13.8348 13.7434 14.0494 13.79 14.2641C13.846 14.4788 13.9254 14.6654 14.028 14.8241C14.1307 14.9828 14.28 15.0621 14.476 15.0621C14.6347 15.0621 14.756 15.0154 14.84 14.9221C14.9334 14.8288 14.9987 14.7168 15.036 14.5861C15.0827 14.4461 15.1107 14.3014 15.12 14.1521C15.1387 13.9934 15.1527 13.8581 15.162 13.7461C15.1714 13.5874 15.176 13.4288 15.176 13.2701C15.176 13.1114 15.176 12.9528 15.176 12.7941Z" fill="white"/>
</svg>
