<svg width="24" height="24" viewBox="0 0 24 24" fill="none" xmlns="http://www.w3.org/2000/svg">
<path d="M9.91236 14.0401H6.14636L5.32036 16.0001H3.34636L7.36436 6.66211H8.79236L12.6984 16.0001H10.7384L9.91236 14.0401ZM9.38036 12.5561L8.05036 9.19611L6.72036 12.5561H9.38036ZM18.1566 9.93811H19.8646V15.7201C19.8646 15.9534 19.8553 16.1868 19.8366 16.4201C19.8179 16.6534 19.7806 16.8821 19.7246 17.1061C19.6686 17.3301 19.5846 17.5494 19.4726 17.7641C19.3606 17.9788 19.2113 18.1794 19.0246 18.3661C18.8099 18.5808 18.5113 18.7768 18.1286 18.9541C17.7553 19.1314 17.2559 19.2201 16.6306 19.2201C16.0426 19.2201 15.5666 19.1454 15.2026 18.9961C14.8386 18.8561 14.5586 18.6974 14.3626 18.5201C14.1199 18.3148 13.9146 18.0488 13.7466 17.7221C13.5786 17.3954 13.4573 17.0594 13.3826 16.7141H15.2306C15.2679 16.8541 15.3193 16.9894 15.3846 17.1201C15.4593 17.2508 15.5479 17.3581 15.6506 17.4421C15.8186 17.6008 16.0006 17.6941 16.1966 17.7221C16.4019 17.7501 16.5653 17.7641 16.6866 17.7641C16.9293 17.7641 17.1346 17.7268 17.3026 17.6521C17.4706 17.5774 17.6106 17.4888 17.7226 17.3861C17.9186 17.1994 18.0399 16.9894 18.0866 16.7561C18.1333 16.5228 18.1566 16.2848 18.1566 16.0421V15.1881C18.0073 15.4121 17.8486 15.5941 17.6806 15.7341C17.5126 15.8648 17.3446 15.9628 17.1766 16.0281C17.0086 16.1028 16.8453 16.1494 16.6866 16.1681C16.5373 16.1868 16.4066 16.1961 16.2946 16.1961C15.8839 16.1961 15.5059 16.1308 15.1606 16.0001C14.8153 15.8694 14.4933 15.6594 14.1946 15.3701C13.9706 15.1461 13.7513 14.8381 13.5366 14.4461C13.3313 14.0448 13.2286 13.5501 13.2286 12.9621C13.2286 12.4861 13.3079 12.0381 13.4666 11.6181C13.6346 11.1981 13.8679 10.8434 14.1666 10.5541C14.4373 10.2928 14.7499 10.0921 15.1046 9.95211C15.4593 9.81211 15.8419 9.74211 16.2526 9.74211C16.5326 9.74211 16.7799 9.77944 16.9946 9.85411C17.2093 9.91944 17.3913 10.0034 17.5406 10.1061C17.6899 10.1994 17.8159 10.3021 17.9186 10.4141C18.0213 10.5261 18.1006 10.6288 18.1566 10.7221V9.93811ZM16.6726 11.2541C16.4019 11.2541 16.1686 11.3008 15.9726 11.3941C15.7859 11.4781 15.6413 11.5714 15.5386 11.6741C15.3986 11.8048 15.2726 11.9728 15.1606 12.1781C15.0486 12.3834 14.9926 12.6448 14.9926 12.9621C14.9926 13.2328 15.0346 13.4661 15.1186 13.6621C15.2026 13.8581 15.3099 14.0214 15.4406 14.1521C15.6273 14.3481 15.8279 14.4881 16.0426 14.5721C16.2573 14.6468 16.4673 14.6841 16.6726 14.6841C16.8873 14.6841 17.0926 14.6468 17.2886 14.5721C17.4846 14.4974 17.6573 14.3948 17.8066 14.2641C17.9839 14.1054 18.1193 13.9094 18.2126 13.6761C18.3059 13.4428 18.3526 13.2048 18.3526 12.9621C18.3526 12.6728 18.3013 12.4301 18.1986 12.2341C18.0959 12.0381 17.9839 11.8748 17.8626 11.7441C17.6946 11.5668 17.5126 11.4408 17.3166 11.3661C17.1206 11.2914 16.9059 11.2541 16.6726 11.2541Z" fill="white"/>
</svg>
