<svg width="24" height="24" viewBox="0 0 24 24" fill="none" xmlns="http://www.w3.org/2000/svg">
<path d="M10.0963 17.0001L9.90027 15.8101H8.20627L7.99627 17.0001H5.39227L7.64627 7.66211H10.7263L12.7003 17.0001H10.0963ZM9.60627 13.8221C9.5036 13.1688 9.41027 12.5201 9.32627 11.8761C9.2516 11.2228 9.18627 10.5648 9.13027 9.90211C9.10227 10.1168 9.07427 10.3361 9.04627 10.5601C9.0276 10.7841 9.00427 11.0034 8.97627 11.2181C8.91093 11.6568 8.84093 12.0908 8.76627 12.5201C8.70093 12.9494 8.62627 13.3834 8.54227 13.8221H9.60627ZM19.1154 17.1681C19.1154 17.4948 19.0828 17.8074 19.0174 18.1061C18.9521 18.4048 18.8214 18.6894 18.6254 18.9601C18.3454 19.3428 17.9814 19.6134 17.5334 19.7721C17.0854 19.9308 16.6328 20.0101 16.1754 20.0101C15.3448 20.0101 14.6774 19.8281 14.1734 19.4641C13.6694 19.1001 13.3568 18.4934 13.2354 17.6441H15.7134C15.7134 17.7934 15.7554 17.9194 15.8394 18.0221C15.9328 18.1248 16.0588 18.1761 16.2174 18.1761C16.3481 18.1761 16.4508 18.1481 16.5254 18.0921C16.6094 18.0361 16.6701 17.9614 16.7074 17.8681C16.7448 17.7748 16.7681 17.6721 16.7774 17.5601C16.7868 17.4574 16.7914 17.3548 16.7914 17.2521V16.2441C16.6048 16.4868 16.3808 16.6921 16.1194 16.8601C15.8674 17.0188 15.5828 17.0981 15.2654 17.0981C14.8548 17.0981 14.5094 16.9861 14.2294 16.7621C13.9588 16.5288 13.7441 16.2441 13.5854 15.9081C13.4268 15.5628 13.3148 15.1941 13.2494 14.8021C13.1841 14.4101 13.1514 14.0508 13.1514 13.7241C13.1514 13.4068 13.1841 13.0521 13.2494 12.6601C13.3148 12.2588 13.4268 11.8854 13.5854 11.5401C13.7534 11.1948 13.9681 10.9054 14.2294 10.6721C14.5001 10.4388 14.8361 10.3221 15.2374 10.3221C15.5734 10.3221 15.8581 10.4248 16.0914 10.6301C16.3248 10.8261 16.5301 11.0548 16.7074 11.3161L16.6654 10.4621H19.1154V17.1681ZM16.7634 13.7101C16.7634 13.6168 16.7588 13.4908 16.7494 13.3321C16.7494 13.1734 16.7308 13.0194 16.6934 12.8701C16.6561 12.7114 16.6001 12.5761 16.5254 12.4641C16.4601 12.3521 16.3621 12.2961 16.2314 12.2961C16.0914 12.2961 15.9841 12.3521 15.9094 12.4641C15.8348 12.5668 15.7788 12.6928 15.7414 12.8421C15.7041 12.9914 15.6808 13.1454 15.6714 13.3041C15.6621 13.4534 15.6574 13.5748 15.6574 13.6681C15.6574 13.7614 15.6621 13.8874 15.6714 14.0461C15.6808 14.2048 15.7041 14.3634 15.7414 14.5221C15.7788 14.6714 15.8348 14.8068 15.9094 14.9281C15.9934 15.0401 16.1008 15.0961 16.2314 15.0961C16.3621 15.0961 16.4601 15.0401 16.5254 14.9281C16.6001 14.8161 16.6561 14.6854 16.6934 14.5361C16.7308 14.3868 16.7494 14.2374 16.7494 14.0881C16.7588 13.9294 16.7634 13.8034 16.7634 13.7101Z" fill="white"/>
</svg>
