<svg width="24" height="24" viewBox="0 0 24 24" fill="none" xmlns="http://www.w3.org/2000/svg">
<path d="M9.91531 15.4321H6.5273L5.8973 17.0001H3.3353L6.9193 7.66211H9.5653L13.0793 17.0001H10.4893L9.91531 15.4321ZM9.27131 13.5841L8.2213 10.5601L7.1993 13.5841H9.27131ZM20.9888 10.7421V16.6081C20.9888 16.8414 20.9794 17.0701 20.9608 17.2941C20.9421 17.5181 20.9048 17.7374 20.8488 17.9521C20.7928 18.1668 20.7088 18.3768 20.5968 18.5821C20.4848 18.7968 20.3308 19.0021 20.1348 19.1981C19.9388 19.4034 19.7241 19.5714 19.4908 19.7021C19.2668 19.8328 19.0334 19.9354 18.7908 20.0101C18.5574 20.0848 18.3194 20.1361 18.0768 20.1641C17.8341 20.1921 17.6008 20.2061 17.3768 20.2061C16.7888 20.2061 16.2521 20.1221 15.7668 19.9541C15.2908 19.7954 14.8521 19.5108 14.4508 19.1001C14.2641 18.9134 14.1148 18.7174 14.0028 18.5121C13.8908 18.3068 13.8114 18.0688 13.7648 17.7981H16.2568C16.2754 17.8634 16.3034 17.9334 16.3408 18.0081C16.3874 18.0828 16.4481 18.1528 16.5228 18.2181C16.6068 18.2834 16.7094 18.3348 16.8308 18.3721C16.9614 18.4188 17.1201 18.4421 17.3068 18.4421C17.4841 18.4421 17.6568 18.4188 17.8248 18.3721C17.9928 18.3254 18.1514 18.2321 18.3008 18.0921C18.4874 17.9148 18.6088 17.7234 18.6648 17.5181C18.7208 17.3128 18.7488 17.1168 18.7488 16.9301V16.3001C18.5714 16.4868 18.3988 16.6361 18.2308 16.7481C18.0628 16.8508 17.8994 16.9301 17.7408 16.9861C17.5821 17.0421 17.4281 17.0794 17.2788 17.0981C17.1294 17.1168 16.9941 17.1261 16.8728 17.1261C16.2941 17.1261 15.8181 17.0328 15.4448 16.8461C15.0714 16.6594 14.7774 16.4588 14.5628 16.2441C14.2828 15.9548 14.0681 15.6094 13.9188 15.2081C13.7694 14.8068 13.6948 14.3914 13.6948 13.9621C13.6948 13.4674 13.7788 13.0101 13.9468 12.5901C14.1241 12.1608 14.3481 11.8014 14.6188 11.5121C14.9174 11.1948 15.2628 10.9568 15.6548 10.7981C16.0561 10.6394 16.4668 10.5601 16.8868 10.5601C16.9801 10.5601 17.0968 10.5694 17.2368 10.5881C17.3861 10.6068 17.5448 10.6441 17.7128 10.7001C17.8808 10.7561 18.0534 10.8401 18.2308 10.9521C18.4081 11.0548 18.5808 11.1994 18.7488 11.3861V10.7421H20.9888ZM17.4188 12.4221C17.0361 12.4221 16.7048 12.5621 16.4248 12.8421C16.2661 13.0101 16.1541 13.1828 16.0888 13.3601C16.0234 13.5374 15.9908 13.7008 15.9908 13.8501C15.9908 14.0368 16.0281 14.2188 16.1028 14.3961C16.1774 14.5734 16.2848 14.7321 16.4248 14.8721C16.5741 15.0214 16.7374 15.1288 16.9148 15.1941C17.0921 15.2501 17.2648 15.2781 17.4328 15.2781C17.6101 15.2781 17.7874 15.2408 17.9648 15.1661C18.1514 15.0914 18.3101 14.9888 18.4408 14.8581C18.5808 14.7181 18.6834 14.5548 18.7488 14.3681C18.8234 14.1814 18.8608 14.0088 18.8608 13.8501C18.8608 13.6914 18.8188 13.5141 18.7348 13.3181C18.6508 13.1221 18.5434 12.9588 18.4128 12.8281C18.2821 12.6974 18.1281 12.5994 17.9508 12.5341C17.7828 12.4594 17.6054 12.4221 17.4188 12.4221Z" fill="white"/>
</svg>
