<svg width="24" height="24" viewBox="0 0 24 24" fill="none" xmlns="http://www.w3.org/2000/svg">
<path d="M10.9537 16.3919C10.8511 16.3826 10.7671 16.3546 10.7017 16.3079C10.6177 16.0932 10.5057 15.7992 10.3657 15.4259C10.2257 15.0526 10.0951 14.6279 9.97372 14.1519C9.84305 13.7786 9.69838 13.5312 9.53972 13.4099L8.36372 13.4659C8.08372 13.4846 7.81305 13.5126 7.55172 13.5499C7.29972 13.5779 7.06172 13.6199 6.83772 13.6759C6.61372 13.7226 6.41772 13.7786 6.24972 13.8439C6.08172 13.8999 5.95105 13.9606 5.85772 14.0259C5.79238 14.2966 5.72238 14.5906 5.64772 14.9079C5.57305 15.2252 5.48438 15.5706 5.38172 15.9439C5.35372 16.0279 5.26038 16.0699 5.10172 16.0699C4.98038 16.0699 4.91972 16.0326 4.91972 15.9579C4.91972 15.7432 5.05038 15.1832 5.31172 14.2779C5.30238 14.2312 5.29772 14.1892 5.29772 14.1519C5.29772 14.1146 5.29772 14.0726 5.29772 14.0259C5.29772 13.9232 5.31172 13.7832 5.33972 13.6059C5.37705 13.4286 5.41438 13.2559 5.45172 13.0879C5.49838 12.9106 5.54038 12.7519 5.57772 12.6119C5.61505 12.4719 5.63372 12.3879 5.63372 12.3599C5.67105 12.2386 5.72705 12.0752 5.80172 11.8699C5.88572 11.6552 5.99305 11.3892 6.12372 11.0719C6.15172 10.9319 6.20772 10.7546 6.29172 10.5399C6.38505 10.3159 6.48305 10.0872 6.58572 9.85386C6.68838 9.62053 6.78638 9.40119 6.87972 9.19586C6.97305 8.98119 7.03372 8.82253 7.06172 8.71986C7.10838 8.56119 7.23438 8.48186 7.43972 8.48186C7.52372 8.48186 7.57505 8.47719 7.59372 8.46786C7.61238 8.45853 7.64038 8.49119 7.67772 8.56586C7.72438 8.63119 7.79905 8.76186 7.90172 8.95786C8.01372 9.15386 8.20505 9.46186 8.47572 9.88186C8.90505 10.5446 9.12438 10.9739 9.13372 11.1699C9.16172 11.2166 9.21305 11.3192 9.28772 11.4779C9.37172 11.6272 9.45572 11.7906 9.53972 11.9679C9.63305 12.1359 9.71705 12.2992 9.79172 12.4579C9.87572 12.6166 9.93638 12.7146 9.97372 12.7519C10.0671 12.8826 10.1557 13.0506 10.2397 13.2559C10.3237 13.4612 10.3984 13.6712 10.4637 13.8859C10.5291 14.0912 10.5851 14.2826 10.6317 14.4599C10.6877 14.6279 10.7297 14.7399 10.7577 14.7959C10.7671 14.8519 10.7951 14.9452 10.8417 15.0759C10.8884 15.2066 10.9351 15.3419 10.9817 15.4819C11.0284 15.6219 11.0704 15.7572 11.1077 15.8879C11.1544 16.0092 11.1777 16.0932 11.1777 16.1399C11.1777 16.1959 11.1684 16.2519 11.1497 16.3079C11.1311 16.3639 11.0657 16.3919 10.9537 16.3919ZM9.32972 12.8919C9.18972 12.5279 9.06838 12.2199 8.96572 11.9679C8.86305 11.7066 8.74638 11.4499 8.61572 11.1979C8.49438 10.9459 8.34505 10.6706 8.16772 10.3719C7.99972 10.0732 7.78038 9.70453 7.50972 9.26586C7.41638 9.39653 7.29505 9.62053 7.14572 9.93786C7.00572 10.2552 6.86105 10.6099 6.71172 11.0019C6.56238 11.3846 6.42238 11.7812 6.29172 12.1919C6.16105 12.5932 6.06772 12.9526 6.01172 13.2699C6.07705 13.2699 6.17038 13.2606 6.29172 13.2419C6.42238 13.2232 6.55772 13.1999 6.69772 13.1719C6.83772 13.1439 6.96372 13.1206 7.07572 13.1019C7.18772 13.0832 7.26238 13.0739 7.29972 13.0739C7.36505 13.0739 7.42572 13.0832 7.48172 13.1019C7.55638 13.0832 7.66372 13.0692 7.80372 13.0599C7.94372 13.0506 8.09772 13.0412 8.26572 13.0319C8.44305 13.0226 8.62038 13.0086 8.79772 12.9899C8.98438 12.9712 9.16172 12.9386 9.32972 12.8919ZM17.6616 11.0999C17.6803 11.1746 17.6943 11.2492 17.7036 11.3239C17.7129 11.3986 17.7176 11.4872 17.7176 11.5899C17.7176 11.7672 17.7036 11.9679 17.6756 12.1919C17.6476 12.4066 17.6103 12.6492 17.5636 12.9199C17.5729 12.9572 17.5776 13.0319 17.5776 13.1439C17.5776 13.2466 17.5683 13.3726 17.5496 13.5219C17.5403 13.6619 17.5263 13.8299 17.5076 14.0259C17.5169 14.0726 17.5216 14.1286 17.5216 14.1939C17.5216 14.2499 17.5216 14.3152 17.5216 14.3899C17.5216 14.6326 17.5076 14.9266 17.4796 15.2719C17.4516 15.6172 17.4143 16.0139 17.3676 16.4619C17.2369 17.5166 16.8029 18.2866 16.0656 18.7719C15.4216 18.9586 14.8709 19.0519 14.4136 19.0519C14.2269 19.0519 13.9983 19.0146 13.7276 18.9399C13.4569 18.8652 13.1303 18.7579 12.7476 18.6179C12.7103 18.5992 12.6356 18.5526 12.5236 18.4779C12.4116 18.4032 12.2949 18.3192 12.1736 18.2259C12.0616 18.1419 11.9589 18.0486 11.8656 17.9459C11.7723 17.8526 11.7256 17.7732 11.7256 17.7079C11.7256 17.4839 11.8283 17.3719 12.0336 17.3719C12.0989 17.3719 12.1643 17.3906 12.2296 17.4279L13.1116 18.1279C13.5316 18.3799 14.0076 18.5106 14.5396 18.5199C14.6329 18.5199 14.8289 18.4826 15.1276 18.4079L15.7016 18.2679C15.8229 18.2026 15.9396 18.1092 16.0516 17.9879C16.1729 17.8666 16.2803 17.7312 16.3736 17.5819C16.4763 17.4326 16.5603 17.2692 16.6256 17.0919C16.6909 16.9146 16.7376 16.7372 16.7656 16.5599V16.4899C16.7656 16.4059 16.7749 16.2659 16.7936 16.0699C16.8123 15.8739 16.8356 15.6639 16.8636 15.4399C16.8916 15.2066 16.9149 14.9872 16.9336 14.7819C16.9616 14.5766 16.9756 14.4226 16.9756 14.3199C16.6676 14.5626 16.2756 14.8006 15.7996 15.0339C15.0249 15.2299 14.4789 15.3279 14.1616 15.3279C14.1149 15.3279 14.0729 15.3279 14.0356 15.3279C13.9983 15.3186 13.9469 15.2952 13.8816 15.2579C13.8163 15.2206 13.7229 15.1599 13.6016 15.0759C13.4803 14.9826 13.3169 14.8566 13.1116 14.6979L12.7756 14.0819C12.6916 13.9326 12.6309 13.7832 12.5936 13.6339C12.5656 13.4752 12.5516 13.3166 12.5516 13.1579C12.5516 12.9432 12.6496 12.7192 12.8456 12.4859C13.0509 12.2432 13.3029 12.0239 13.6016 11.8279C13.9096 11.6226 14.2363 11.4546 14.5816 11.3239C14.9269 11.1932 15.2443 11.1279 15.5336 11.1279C15.5989 11.1279 15.6829 11.1279 15.7856 11.1279C15.8883 11.1279 16.0003 11.1372 16.1216 11.1559C16.2523 11.1746 16.3876 11.2166 16.5276 11.2819C16.6769 11.3379 16.8309 11.4219 16.9896 11.5339L17.1716 11.0019C17.2929 10.9552 17.3863 10.9319 17.4516 10.9319C17.5636 10.9319 17.6336 10.9879 17.6616 11.0999ZM16.9756 12.1079C16.8823 12.0332 16.7843 11.9679 16.6816 11.9119C16.5883 11.8559 16.4856 11.8139 16.3736 11.7859L15.8136 11.6459C15.6549 11.6646 15.4683 11.6972 15.2536 11.7439C15.0389 11.7906 14.7963 11.8512 14.5256 11.9259C13.6669 12.4206 13.2376 12.9059 13.2376 13.3819C13.2376 13.4472 13.2656 13.5406 13.3216 13.6619C13.3869 13.7832 13.4663 13.9139 13.5596 14.0539C13.6623 14.1939 13.7743 14.3292 13.8956 14.4599C14.0263 14.5906 14.1569 14.6886 14.2876 14.7539C14.3809 14.7539 14.5349 14.7446 14.7496 14.7259C14.9643 14.6979 15.2023 14.6419 15.4636 14.5579C15.7249 14.4739 15.9816 14.3526 16.2336 14.1939C16.4949 14.0352 16.7096 13.8206 16.8776 13.5499C16.9056 13.3352 16.9289 13.1252 16.9476 12.9199C16.9663 12.7052 16.9756 12.4952 16.9756 12.2899V12.1079Z" fill="white"/>
</svg>
