<svg width="24" height="24" viewBox="0 0 24 24" fill="none" xmlns="http://www.w3.org/2000/svg">
<path d="M12.3623 16.3984C12.4717 16.3984 12.5492 16.4167 12.5947 16.4531C12.6403 16.4896 12.6631 16.5511 12.6631 16.6377C12.6631 16.7288 12.6357 16.8132 12.5811 16.8906C12.5309 16.9635 12.4694 17 12.3965 17H8.18555C8.11719 17 8.06706 16.9635 8.03516 16.8906C8.00326 16.8177 7.9873 16.7448 7.9873 16.6719C7.9873 16.5033 8.06934 16.4121 8.2334 16.3984C8.31087 16.3893 8.37695 16.3848 8.43164 16.3848C8.49089 16.3848 8.53874 16.3825 8.5752 16.3779C8.77572 16.3643 8.90788 16.3483 8.97168 16.3301C9.04004 16.3073 9.07422 16.2526 9.07422 16.166L9.05371 16.0293L8.6709 14.1084H4.65137L3.80371 15.626C3.77637 15.6761 3.74902 15.7399 3.72168 15.8174C3.69434 15.8949 3.68066 15.9564 3.68066 16.002C3.68066 16.1979 4.0179 16.3324 4.69238 16.4053C4.80176 16.4189 4.8724 16.444 4.9043 16.4805C4.94076 16.5124 4.95898 16.5671 4.95898 16.6445C4.95898 16.7402 4.93848 16.8245 4.89746 16.8975C4.861 16.9658 4.80176 17 4.71973 17H1.51367C1.44987 17 1.40202 16.9681 1.37012 16.9043C1.33822 16.8405 1.32227 16.7721 1.32227 16.6992C1.32227 16.5944 1.34733 16.5215 1.39746 16.4805C1.44759 16.4395 1.50911 16.4121 1.58203 16.3984C1.90104 16.3346 2.15397 16.2549 2.34082 16.1592C2.52767 16.0589 2.67578 15.9154 2.78516 15.7285L7.83008 7.08105H9.42285L11.4941 15.7422C11.5488 15.9382 11.6491 16.0977 11.7949 16.2207C11.9453 16.3392 12.1344 16.3984 12.3623 16.3984ZM5 13.4863H8.54102L7.61133 8.83105L5 13.4863ZM16.5186 20.0625C15.3109 20.0625 14.3721 19.9007 13.7021 19.5771C13.0322 19.2536 12.6973 18.766 12.6973 18.1143C12.6973 17.7725 12.8271 17.4785 13.0869 17.2324C13.3512 16.9909 13.668 16.8086 14.0371 16.6855C13.8548 16.5625 13.7204 16.4281 13.6338 16.2822C13.5472 16.1318 13.5039 15.9473 13.5039 15.7285C13.5039 15.3958 13.6361 15.0859 13.9004 14.7988C14.1693 14.5072 14.4792 14.2747 14.8301 14.1016C14.4928 13.9375 14.2422 13.7233 14.0781 13.459C13.9186 13.1947 13.8389 12.8984 13.8389 12.5703C13.8389 12.0052 13.9984 11.5358 14.3174 11.1621C14.6364 10.7884 15.0557 10.5127 15.5752 10.335C16.0947 10.1572 16.6598 10.0684 17.2705 10.0684C18.3688 10.0684 19.1572 10.2757 19.6357 10.6904C19.8226 10.5173 20.0687 10.3646 20.374 10.2324C20.6794 10.1003 20.9733 10.0342 21.2559 10.0342C21.4427 10.0342 21.6136 10.0752 21.7686 10.1572C21.9281 10.2393 22.0557 10.36 22.1514 10.5195C22.2471 10.679 22.2949 10.8682 22.2949 11.0869C22.2949 11.3512 22.2174 11.5563 22.0625 11.7021C21.9076 11.8434 21.7184 11.9141 21.4951 11.9141C21.3402 11.9141 21.2035 11.8822 21.085 11.8184C20.9665 11.75 20.8913 11.6589 20.8594 11.5449L20.7227 11.0254C20.6908 11.0072 20.5973 11.0186 20.4424 11.0596C20.292 11.096 20.1553 11.1439 20.0322 11.2031C20.1279 11.4219 20.1758 11.6566 20.1758 11.9072C20.1758 12.4814 20.0277 12.9622 19.7314 13.3496C19.4398 13.7324 19.0387 14.0173 18.5283 14.2041C18.0179 14.3864 17.4368 14.4775 16.7852 14.4775C16.2565 14.4775 15.7962 14.4251 15.4043 14.3203C15.2904 14.3932 15.1969 14.473 15.124 14.5596C15.0557 14.6462 15.0215 14.7305 15.0215 14.8125C15.0215 14.9447 15.0785 15.0586 15.1924 15.1543C15.3063 15.2454 15.4886 15.3047 15.7393 15.332L17.9541 15.5781C18.6195 15.6602 19.1481 15.7878 19.54 15.9609C19.9365 16.1296 20.2214 16.3483 20.3945 16.6172C20.5677 16.8815 20.6543 17.2074 20.6543 17.5947C20.6543 18.0915 20.4697 18.5267 20.1006 18.9004C19.7314 19.2741 19.2324 19.5612 18.6035 19.7617C17.9746 19.9622 17.2796 20.0625 16.5186 20.0625ZM16.9492 13.8691C17.373 13.8691 17.6875 13.68 17.8926 13.3018C18.0977 12.9189 18.2002 12.4245 18.2002 11.8184C18.2002 11.4128 18.1159 11.1188 17.9473 10.9365C17.7786 10.7497 17.5029 10.6562 17.1201 10.6562C16.7145 10.6562 16.4251 10.8249 16.252 11.1621C16.0788 11.4948 15.9922 11.9574 15.9922 12.5498C15.9922 12.9873 16.0651 13.3177 16.2109 13.541C16.3613 13.7598 16.6074 13.8691 16.9492 13.8691ZM16.6963 19.4062C17.0518 19.4062 17.3799 19.3584 17.6807 19.2627C17.986 19.167 18.2321 19.0189 18.4189 18.8184C18.6058 18.6224 18.6992 18.3763 18.6992 18.0801C18.6992 17.8796 18.5785 17.7155 18.3369 17.5879C18.0954 17.4648 17.7604 17.376 17.332 17.3213L15.1445 17.0547C15.0443 17.041 14.9326 17.0228 14.8096 17C14.6227 17.3008 14.5293 17.6221 14.5293 17.9639C14.5293 18.4242 14.6934 18.7796 15.0215 19.0303C15.3542 19.2809 15.9124 19.4062 16.6963 19.4062Z" fill="white"/>
</svg>
