<svg width="24" height="24" viewBox="0 0 24 24" fill="none" xmlns="http://www.w3.org/2000/svg">
<path d="M2.52414 17.1999L5.26814 9.57547C5.45107 9.10507 5.69934 8.74574 6.01294 8.49747C6.32654 8.23614 6.83614 8.10547 7.54174 8.10547C8.16894 8.10547 8.64587 8.22307 8.97254 8.45827C9.31227 8.69347 9.5736 9.06587 9.75654 9.57547L12.5593 17.1999H10.3837L9.54094 14.8479H4.89574L4.07254 17.1999H2.52414ZM5.20934 14.0051H9.16854L7.93374 10.4183C7.88147 10.2484 7.8096 10.0982 7.71814 9.96747C7.63974 9.8368 7.46334 9.77147 7.18894 9.77147C6.90147 9.77147 6.712 9.84334 6.62054 9.98707C6.52907 10.1178 6.4572 10.2615 6.40494 10.4183L5.20934 14.0051ZM17.4979 19.4735C17.119 19.4735 16.7401 19.4604 16.3611 19.4343C15.9822 19.4082 15.6294 19.3624 15.3027 19.2971C14.9891 19.2318 14.7278 19.1338 14.5187 19.0031C14.3227 18.8855 14.2247 18.7287 14.2247 18.5327C14.2247 18.4804 14.2247 18.4086 14.2247 18.3171C14.2247 18.2256 14.2247 18.1603 14.2247 18.1211C14.3946 18.2126 14.6494 18.291 14.9891 18.3563C15.3419 18.4347 15.7143 18.4935 16.1063 18.5327C16.5114 18.585 16.8642 18.6111 17.1647 18.6111C17.9226 18.6111 18.5041 18.5 18.9091 18.2779C19.3142 18.0558 19.5886 17.6964 19.7323 17.1999C19.8761 16.7164 19.9218 16.0696 19.8695 15.2595H20.1831C20.0525 15.6907 19.8369 16.0239 19.5363 16.2591C19.2489 16.4943 18.8961 16.6576 18.4779 16.7491C18.0598 16.8406 17.5894 16.8863 17.0667 16.8863C16.2958 16.8863 15.6555 16.7948 15.1459 16.6119C14.6494 16.4159 14.2835 16.0566 14.0483 15.5339C13.8262 15.0112 13.7151 14.2534 13.7151 13.2603C13.7151 12.424 13.787 11.7511 13.9307 11.2415C14.0875 10.7188 14.3358 10.3203 14.6755 10.0459C15.0283 9.7584 15.4791 9.56894 16.0279 9.47747C16.5898 9.37294 17.2823 9.32067 18.1055 9.32067C18.3799 9.32067 18.7066 9.33374 19.0855 9.35987C19.4645 9.386 19.8369 9.41214 20.2027 9.43827C20.5817 9.4644 20.9083 9.49054 21.1827 9.51667C21.4702 9.5428 21.6662 9.5624 21.7707 9.57547C21.7577 9.61467 21.7446 9.7192 21.7315 9.88907C21.7315 10.059 21.7315 10.255 21.7315 10.4771C21.7315 10.6862 21.7315 10.8952 21.7315 11.1043L21.7119 15.7495C21.7119 16.7034 21.5682 17.4482 21.2807 17.9839C20.9933 18.5327 20.5359 18.9182 19.9087 19.1403C19.2946 19.3624 18.491 19.4735 17.4979 19.4735ZM17.5763 15.8279C18.0075 15.8279 18.393 15.7756 18.7327 15.6711C19.0725 15.5666 19.3469 15.3902 19.5559 15.1419C19.7781 14.8936 19.8891 14.5539 19.8891 14.1227V10.5163C19.7715 10.4902 19.5233 10.4575 19.1443 10.4183C18.7654 10.3791 18.3277 10.3595 17.8311 10.3595C17.2693 10.3595 16.825 10.4314 16.4983 10.5751C16.1717 10.7188 15.9365 10.9867 15.7927 11.3787C15.649 11.7707 15.5771 12.3391 15.5771 13.0839C15.5771 13.8156 15.6425 14.384 15.7731 14.7891C15.9169 15.1811 16.1325 15.4555 16.4199 15.6123C16.7074 15.756 17.0929 15.8279 17.5763 15.8279Z" fill="white"/>
</svg>
