<svg width="24" height="24" viewBox="0 0 24 24" fill="none" xmlns="http://www.w3.org/2000/svg">
<path d="M3.64901 16.9999L8.26901 7.08789H9.64101L11.195 16.9999H9.96301L9.58501 14.4379H6.07101L4.88101 16.9999H3.64901ZM6.43501 13.5139H9.51501L8.80101 8.20789L6.43501 13.5139ZM11.8203 19.6319L12.1283 18.7639C12.427 18.8852 12.7536 18.9786 13.1083 19.0439C13.463 19.1092 13.8036 19.1419 14.1303 19.1419C14.5503 19.1419 14.905 19.0672 15.1943 18.9179C15.493 18.7779 15.7356 18.5492 15.9223 18.2319C16.109 17.9146 16.2396 17.5039 16.3143 16.9999L16.3843 16.4819C16.1883 16.5846 15.969 16.6779 15.7263 16.7619C15.4836 16.8459 15.2456 16.9159 15.0123 16.9719C14.779 17.0186 14.5643 17.0419 14.3683 17.0419C13.911 17.0419 13.519 16.9439 13.1923 16.7479C12.875 16.5519 12.6323 16.2766 12.4643 15.9219C12.3056 15.5672 12.2263 15.1519 12.2263 14.6759C12.2263 13.9572 12.3056 13.2806 12.4643 12.6459C12.6323 12.0019 12.889 11.4326 13.2343 10.9379C13.5796 10.4432 14.009 10.0559 14.5223 9.77589C15.045 9.49589 15.6563 9.35589 16.3563 9.35589C16.5336 9.35589 16.725 9.36522 16.9303 9.38389C17.1356 9.39322 17.3363 9.41656 17.5323 9.45389C17.7376 9.49122 17.929 9.53322 18.1063 9.57989C18.2836 9.62656 18.4376 9.67789 18.5683 9.73389L17.4063 16.9719C17.2476 18.0172 16.907 18.7966 16.3843 19.3099C15.8616 19.8232 15.143 20.0799 14.2283 20.0799C13.8083 20.0799 13.3883 20.0379 12.9683 19.9539C12.5576 19.8792 12.175 19.7719 11.8203 19.6319ZM17.3363 10.4479C17.1963 10.3919 17.033 10.3406 16.8463 10.2939C16.669 10.2472 16.4496 10.2239 16.1883 10.2239C15.759 10.2239 15.367 10.3406 15.0123 10.5739C14.667 10.8072 14.3683 11.1246 14.1163 11.5259C13.8736 11.9179 13.6823 12.3612 13.5423 12.8559C13.4116 13.3412 13.3463 13.8452 13.3463 14.3679C13.3463 14.9466 13.4816 15.3852 13.7523 15.6839C14.023 15.9732 14.387 16.1179 14.8443 16.1179C15.0123 16.1179 15.199 16.0946 15.4043 16.0479C15.6096 15.9919 15.8103 15.9219 16.0063 15.8379C16.2116 15.7539 16.3843 15.6652 16.5243 15.5719L17.3363 10.4479Z" fill="white"/>
</svg>
