<svg width="24" height="24" viewBox="0 0 24 24" fill="none" xmlns="http://www.w3.org/2000/svg">
<path d="M13.2291 16.5659V16.9999H9.5891V16.5659H10.7091L9.7571 13.8079H6.3831L5.8511 15.0679C5.6831 15.4972 5.5991 15.8146 5.5991 16.0199C5.5991 16.2159 5.6271 16.3559 5.6831 16.4399C5.7391 16.5239 6.0331 16.5659 6.5651 16.5659V16.9999H3.5131V16.5659C3.99843 16.5752 4.34843 16.5146 4.5631 16.3839C4.7871 16.2439 5.02977 15.8052 5.2911 15.0679L8.3291 7.08789H8.8891L12.1931 16.5659H13.2291ZM6.5791 13.2759H9.5611L8.1751 9.17389L6.5791 13.2759ZM18.4938 10.5039H20.7478L20.4678 11.2459L18.8578 11.1059C19.2964 11.5166 19.5204 11.9879 19.5298 12.5199C19.5484 12.9399 19.4364 13.3506 19.1938 13.7519C18.9511 14.1532 18.6384 14.4519 18.2558 14.6479C17.7704 14.9186 17.2898 15.0539 16.8138 15.0539C16.6644 15.0539 16.5338 15.0352 16.4218 14.9979L16.0298 15.3339C15.8711 15.4926 15.7918 15.6372 15.7918 15.7679C15.7918 15.9826 15.9131 16.1319 16.1558 16.2159C16.2678 16.2532 16.4918 16.2812 16.8278 16.2999L19.0118 16.4679C20.0851 16.5426 20.6218 17.0606 20.6218 18.0219C20.6218 18.7592 20.2858 19.4032 19.6138 19.9539C18.9511 20.5046 18.0551 20.7799 16.9258 20.7799C16.0858 20.7799 15.3858 20.5839 14.8258 20.1919C14.2658 19.8186 13.9858 19.3519 13.9858 18.7919C13.9858 18.2412 14.1771 17.8259 14.5598 17.5459C14.8118 17.3312 15.1431 17.1959 15.5538 17.1399C14.9658 16.9906 14.6718 16.7246 14.6718 16.3419C14.6718 16.0526 14.8398 15.7539 15.1758 15.4459C15.3064 15.3339 15.5538 15.1659 15.9178 14.9419C15.6378 14.9326 15.3064 14.7552 14.9238 14.4099C14.5411 14.0646 14.3451 13.6306 14.3358 13.1079C14.3078 12.2959 14.5831 11.6612 15.1618 11.2039C15.7404 10.7372 16.4591 10.4992 17.3178 10.4899C17.8124 10.4899 18.2044 10.4946 18.4938 10.5039ZM16.9398 14.5639C17.3784 14.5639 17.7284 14.4146 17.9898 14.1159C18.2604 13.8079 18.3864 13.3926 18.3678 12.8699C18.3584 12.3379 18.2418 11.9179 18.0178 11.6099C17.7471 11.1899 17.3691 10.9799 16.8838 10.9799C16.4078 10.9799 16.0484 11.1479 15.8058 11.4839C15.5631 11.8199 15.4418 12.2586 15.4418 12.7999C15.4418 13.3319 15.5818 13.7612 15.8618 14.0879C16.1511 14.4052 16.5104 14.5639 16.9398 14.5639ZM17.6398 17.4339L16.1838 17.3079C15.9318 17.3172 15.6891 17.4339 15.4558 17.6579C15.1758 17.8912 15.0358 18.1992 15.0358 18.5819C15.0358 19.1606 15.2178 19.5946 15.5818 19.8839C15.9551 20.1826 16.4731 20.3319 17.1358 20.3319C17.8078 20.3319 18.3771 20.1639 18.8438 19.8279C19.3104 19.4919 19.5438 19.0486 19.5438 18.4979C19.5438 18.1152 19.3851 17.8539 19.0678 17.7139C18.8158 17.5926 18.3398 17.4992 17.6398 17.4339Z" fill="white"/>
</svg>
