<svg width="24" height="24" viewBox="0 0 24 24" fill="none" xmlns="http://www.w3.org/2000/svg">
<path d="M3.93842 17.0001C3.84509 17.0001 3.79842 16.9628 3.79842 16.8881C3.79842 16.8134 3.84042 16.6641 3.92442 16.4401C4.06442 16.0294 4.26042 15.5348 4.51242 14.9561C4.76442 14.3681 5.04909 13.7474 5.36642 13.0941C5.68376 12.4408 6.01509 11.7874 6.36042 11.1341C6.70576 10.4808 7.04176 9.87413 7.36842 9.31413C7.70442 8.7448 8.01242 8.2688 8.29242 7.88613C8.36709 7.7928 8.43709 7.71813 8.50242 7.66213C8.56776 7.60613 8.63776 7.57812 8.71242 7.57812H10.0984C10.1731 7.60613 10.2291 7.64345 10.2664 7.69012C10.3131 7.72745 10.3504 7.7928 10.3784 7.88613C10.4997 8.2688 10.6071 8.7448 10.7004 9.31413C10.8031 9.87413 10.8871 10.4808 10.9524 11.1341C11.0271 11.7874 11.0831 12.4408 11.1204 13.0941C11.1577 13.7474 11.1764 14.3681 11.1764 14.9561C11.1857 15.5348 11.1764 16.0294 11.1484 16.4401C11.1391 16.6641 11.1157 16.8134 11.0784 16.8881C11.0411 16.9628 10.9711 17.0001 10.8684 17.0001H9.21642C9.13242 17.0001 9.07642 16.9768 9.04842 16.9301C9.02976 16.8834 9.02509 16.7574 9.03442 16.5521C9.04376 16.3468 9.04376 16.1041 9.03442 15.8241C9.03442 15.5441 9.03442 15.3154 9.03442 15.1381C9.03442 15.0634 9.02976 15.0214 9.02042 15.0121C9.01109 15.0028 8.97376 14.9981 8.90842 14.9981H6.75242C6.68709 14.9981 6.64509 15.0028 6.62642 15.0121C6.61709 15.0214 6.59842 15.0634 6.57042 15.1381C6.50509 15.3154 6.40709 15.5441 6.27642 15.8241C6.15509 16.1041 6.05709 16.3468 5.98242 16.5521C5.89842 16.7574 5.83309 16.8834 5.78642 16.9301C5.74909 16.9768 5.68842 17.0001 5.60442 17.0001H3.93842ZM7.55042 13.3881H8.81042C8.87576 13.3881 8.91309 13.3788 8.92242 13.3601C8.93176 13.3321 8.93642 13.2854 8.93642 13.2201C8.92709 12.8468 8.90842 12.4501 8.88042 12.0301C8.85242 11.6008 8.82442 11.2274 8.79642 10.9101C8.81509 10.8261 8.79642 10.7841 8.74042 10.7841H8.68442C8.66576 10.7841 8.62842 10.8261 8.57242 10.9101C8.47909 11.1154 8.36709 11.3488 8.23642 11.6101C8.10576 11.8714 7.97509 12.1421 7.84442 12.4221C7.71376 12.6928 7.58776 12.9588 7.46642 13.2201C7.43842 13.2854 7.42909 13.3321 7.43842 13.3601C7.44776 13.3788 7.48509 13.3881 7.55042 13.3881ZM12.392 13.6121C12.532 12.9774 12.742 12.4128 13.022 11.9181C13.3113 11.4141 13.7127 11.0221 14.226 10.7421C14.7393 10.4528 15.4067 10.3081 16.228 10.3081C16.6013 10.3081 16.9607 10.3408 17.306 10.4061C17.6513 10.4621 17.95 10.5414 18.202 10.6441C18.4447 10.7374 18.5753 10.8401 18.594 10.9521C18.622 11.0548 18.6267 11.2321 18.608 11.4841C18.5333 12.2774 18.4027 13.1034 18.216 13.9621C18.0387 14.8208 17.8147 15.6374 17.544 16.4121C17.264 17.2241 16.8253 17.8214 16.228 18.2041C15.6307 18.5868 14.8887 18.7781 14.002 18.7781C13.6473 18.7781 13.2693 18.7268 12.868 18.6241C12.4667 18.5214 12.1027 18.3301 11.776 18.0501C11.748 18.0221 11.7247 17.9708 11.706 17.8961C11.6873 17.8214 11.7107 17.7468 11.776 17.6721C11.8133 17.6254 11.874 17.5508 11.958 17.4481C12.0327 17.3454 12.112 17.2428 12.196 17.1401C12.28 17.0374 12.3407 16.9628 12.378 16.9161C12.4807 16.7854 12.5553 16.7154 12.602 16.7061C12.6487 16.6968 12.7187 16.7294 12.812 16.8041C12.8867 16.8694 13.008 16.9394 13.176 17.0141C13.344 17.0888 13.5167 17.1541 13.694 17.2101C13.8807 17.2661 14.0253 17.2941 14.128 17.2941C14.24 17.2941 14.3753 17.2801 14.534 17.2521C14.702 17.2241 14.8607 17.1634 15.01 17.0701C15.1687 16.9768 15.2853 16.8274 15.36 16.6221C15.36 16.6128 15.36 16.6034 15.36 16.5941C15.3693 16.5848 15.3787 16.5754 15.388 16.5661C15.4067 16.5008 15.4067 16.4448 15.388 16.3981C15.3787 16.3421 15.3273 16.3234 15.234 16.3421C15.1873 16.3514 15.108 16.3608 14.996 16.3701C14.8933 16.3701 14.7907 16.3701 14.688 16.3701C14.212 16.3701 13.7733 16.2768 13.372 16.0901C12.9707 15.8941 12.672 15.5908 12.476 15.1801C12.2893 14.7694 12.2613 14.2468 12.392 13.6121ZM14.618 13.2621C14.5527 13.5701 14.5153 13.8501 14.506 14.1021C14.506 14.3448 14.5527 14.5361 14.646 14.6761C14.7487 14.8161 14.9167 14.8861 15.15 14.8861C15.2527 14.8861 15.3507 14.8814 15.444 14.8721C15.5467 14.8628 15.64 14.8394 15.724 14.8021C15.78 14.7834 15.822 14.7554 15.85 14.7181C15.8873 14.6714 15.9153 14.6108 15.934 14.5361C15.9807 14.3774 16.0273 14.1768 16.074 13.9341C16.13 13.6914 16.1813 13.4441 16.228 13.1921C16.284 12.9308 16.3307 12.6974 16.368 12.4921C16.4053 12.2868 16.4287 12.1374 16.438 12.0441C16.4567 11.9974 16.4613 11.9414 16.452 11.8761C16.4427 11.8014 16.424 11.7594 16.396 11.7501C16.3307 11.7128 16.256 11.6848 16.172 11.6661C16.0973 11.6474 15.9853 11.6381 15.836 11.6381C15.5 11.6381 15.2387 11.7921 15.052 12.1001C14.8653 12.3988 14.7207 12.7861 14.618 13.2621Z" fill="white"/>
</svg>
