<svg width="24" height="24" viewBox="0 0 24 24" fill="none" xmlns="http://www.w3.org/2000/svg">
<path d="M4.93404 17.0001C4.89671 17.0001 4.87338 16.9954 4.86404 16.9861C4.86404 16.9674 4.86404 16.9348 4.86404 16.8881C4.92938 16.4401 5.02738 15.9034 5.15804 15.2781C5.28871 14.6434 5.44271 13.9714 5.62004 13.2621C5.79738 12.5434 5.98404 11.8341 6.18004 11.1341C6.38538 10.4248 6.59538 9.76679 6.81004 9.16012C7.02471 8.55345 7.23004 8.04945 7.42604 7.64812C7.44471 7.62945 7.46338 7.61545 7.48204 7.60612C7.50071 7.58745 7.52404 7.57812 7.55204 7.57812H8.61605C8.64404 7.57812 8.67204 7.58279 8.70004 7.59212C8.72804 7.60145 8.74671 7.6248 8.75604 7.66213C8.93338 8.03546 9.12471 8.53012 9.33005 9.14612C9.54471 9.76212 9.75471 10.4294 9.96004 11.1481C10.1654 11.8574 10.3567 12.5761 10.5341 13.3041C10.7207 14.0321 10.8794 14.7088 11.0101 15.3341C11.1407 15.9501 11.2341 16.4634 11.2901 16.8741C11.2994 16.9301 11.2994 16.9674 11.2901 16.9861C11.2901 16.9954 11.2761 17.0001 11.2481 17.0001H10.7721C10.7534 17.0001 10.7394 16.9954 10.7301 16.9861C10.7207 16.9674 10.7067 16.9394 10.6881 16.9021C10.6507 16.6314 10.5947 16.3141 10.5201 15.9501C10.4547 15.5861 10.3801 15.1894 10.2961 14.7601C10.2867 14.7134 10.2681 14.6808 10.2401 14.6621C10.2121 14.6434 10.1701 14.6341 10.1141 14.6341H6.04004C5.99338 14.6434 5.95604 14.6574 5.92804 14.6761C5.90938 14.6948 5.89071 14.7321 5.87204 14.7881C5.77871 15.1988 5.69471 15.5861 5.62004 15.9501C5.55471 16.3141 5.49871 16.6361 5.45204 16.9161C5.45204 16.9441 5.44738 16.9674 5.43804 16.9861C5.43804 16.9954 5.41938 17.0001 5.38204 17.0001H4.93404ZM6.16604 14.1301H9.97405C10.0114 14.1301 10.0441 14.1161 10.0721 14.0881C10.1001 14.0508 10.1047 13.9854 10.0861 13.8921C9.84338 12.9401 9.59604 11.9928 9.34404 11.0501C9.09204 10.0981 8.77938 9.17879 8.40604 8.29212C8.38738 8.23612 8.34071 8.20813 8.26604 8.20813H7.93004C7.85538 8.20813 7.80871 8.24079 7.79004 8.30612C7.60338 8.73545 7.40271 9.26746 7.18804 9.90213C6.98271 10.5274 6.78204 11.1948 6.58604 11.9041C6.39938 12.6134 6.22671 13.3041 6.06804 13.9761C6.05871 14.0041 6.05871 14.0368 6.06804 14.0741C6.07738 14.1114 6.11004 14.1301 6.16604 14.1301ZM12.5877 13.6121C12.597 12.9961 12.681 12.4408 12.8397 11.9461C12.9983 11.4421 13.2783 11.0454 13.6797 10.7561C14.0903 10.4574 14.6597 10.3081 15.3877 10.3081C15.7423 10.3081 16.097 10.3361 16.4517 10.3921C16.8063 10.4481 17.1143 10.5321 17.3757 10.6441C17.4783 10.6814 17.553 10.7421 17.5997 10.8261C17.6463 10.9101 17.6743 11.0408 17.6837 11.2181C17.7583 11.8434 17.805 12.6321 17.8237 13.5841C17.8517 14.5361 17.8003 15.5628 17.6697 16.6641C17.5763 17.4668 17.301 18.0454 16.8437 18.4001C16.3957 18.7641 15.7703 18.9461 14.9677 18.9461C14.641 18.9461 14.2957 18.9041 13.9317 18.8201C13.5677 18.7361 13.2457 18.5868 12.9657 18.3721C12.9097 18.3254 12.877 18.2928 12.8677 18.2741C12.8583 18.2554 12.863 18.2368 12.8817 18.2181C12.9003 18.1714 12.9237 18.1248 12.9517 18.0781C12.9797 18.0314 13.003 17.9894 13.0217 17.9521C13.0403 17.9241 13.0637 17.9101 13.0917 17.9101C13.1197 17.9101 13.143 17.9148 13.1617 17.9241C13.3297 18.0174 13.5117 18.1061 13.7077 18.1901C13.9037 18.2741 14.109 18.3394 14.3237 18.3861C14.5477 18.4421 14.781 18.4701 15.0237 18.4701C15.3503 18.4701 15.6537 18.4094 15.9337 18.2881C16.2137 18.1761 16.4517 17.9894 16.6477 17.7281C16.853 17.4761 16.993 17.1448 17.0677 16.7341C17.0677 16.7154 17.0677 16.7014 17.0677 16.6921C17.077 16.6734 17.0817 16.6548 17.0817 16.6361C17.091 16.5708 17.0677 16.5428 17.0117 16.5521C16.965 16.5521 16.9043 16.5614 16.8297 16.5801C16.6057 16.6361 16.349 16.6921 16.0597 16.7481C15.7797 16.8041 15.4997 16.8321 15.2197 16.8321C14.6037 16.8321 14.0997 16.7014 13.7077 16.4401C13.3157 16.1694 13.0263 15.7914 12.8397 15.3061C12.6623 14.8208 12.5783 14.2561 12.5877 13.6121ZM13.1757 13.5841C13.1757 14.1161 13.241 14.5874 13.3717 14.9981C13.5117 15.4088 13.7403 15.7308 14.0577 15.9641C14.375 16.1881 14.8043 16.3001 15.3457 16.3001C15.5977 16.3001 15.845 16.2861 16.0877 16.2581C16.3303 16.2208 16.5497 16.1648 16.7457 16.0901C17.0257 15.9874 17.175 15.8521 17.1937 15.6841C17.2123 15.3761 17.2217 15.0354 17.2217 14.6621C17.231 14.2794 17.231 13.8921 17.2217 13.5001C17.2123 13.0988 17.1983 12.7254 17.1797 12.3801C17.1703 12.0348 17.1517 11.7361 17.1237 11.4841C17.1143 11.4188 17.091 11.3394 17.0537 11.2461C17.0257 11.1528 16.951 11.0734 16.8297 11.0081C16.699 10.9521 16.4937 10.9054 16.2137 10.8681C15.943 10.8214 15.6723 10.7981 15.4017 10.7981C14.851 10.7981 14.4123 10.9148 14.0857 11.1481C13.7683 11.3814 13.535 11.7081 13.3857 12.1281C13.2457 12.5481 13.1757 13.0334 13.1757 13.5841Z" fill="white"/>
</svg>
