<svg width="24" height="24" viewBox="0 0 24 24" fill="none" xmlns="http://www.w3.org/2000/svg">
<path d="M3.38219 16.8799C3.28885 16.8799 3.24219 16.8332 3.24219 16.7399C3.24219 16.7026 3.24685 16.6512 3.25619 16.5859C3.26552 16.5112 3.28885 16.4459 3.32619 16.3899C3.62485 16.3526 3.84885 16.2592 3.99819 16.1099C4.14752 15.9606 4.29219 15.7226 4.43219 15.3959L7.89019 7.10794C7.93685 6.99594 8.02085 6.93994 8.14219 6.93994H8.26819L11.5722 15.3959C11.7029 15.7412 11.8149 15.9746 11.9082 16.0959C12.0015 16.2172 12.1369 16.2872 12.3142 16.3059C12.3795 16.3152 12.4589 16.3199 12.5522 16.3199C12.6455 16.3199 12.7389 16.3199 12.8322 16.3199C12.8322 16.3666 12.8275 16.4272 12.8182 16.5019C12.8182 16.5766 12.8089 16.6372 12.7902 16.6839C12.7622 16.7772 12.7295 16.8332 12.6922 16.8519C12.6549 16.8706 12.6269 16.8799 12.6082 16.8799H10.1022C10.0089 16.8799 9.96219 16.8332 9.96219 16.7399C9.96219 16.7026 9.96685 16.6512 9.97619 16.5859C9.98552 16.5112 10.0089 16.4459 10.0462 16.3899C10.2702 16.3619 10.4429 16.3106 10.5642 16.2359C10.6855 16.1612 10.7462 16.0399 10.7462 15.8719C10.7462 15.7599 10.7089 15.6012 10.6342 15.3959L9.97619 13.6739H5.79019L5.07619 15.3959C4.97352 15.6572 4.92219 15.8486 4.92219 15.9699C4.92219 16.0819 4.95019 16.1612 5.00619 16.2079C5.07152 16.2546 5.15552 16.2872 5.25819 16.3059C5.32352 16.3152 5.41219 16.3199 5.52419 16.3199C5.64552 16.3199 5.75285 16.3199 5.84619 16.3199C5.84619 16.3666 5.84152 16.4272 5.83219 16.5019C5.83219 16.5766 5.82285 16.6372 5.80419 16.6839C5.77619 16.7772 5.74352 16.8332 5.70619 16.8519C5.66885 16.8706 5.64085 16.8799 5.62219 16.8799H3.38219ZM6.04219 13.0439H9.73819L8.03019 8.56394C7.98352 8.45194 7.93685 8.45194 7.89019 8.56394L6.04219 13.0439ZM14.1438 16.8939C14.0785 17.0059 14.0365 17.1226 14.0178 17.2439C13.9991 17.3652 13.9898 17.4679 13.9898 17.5519C13.9898 17.8319 14.0878 18.0699 14.2838 18.2659C14.4798 18.4619 14.7365 18.6066 15.0538 18.6999C15.3711 18.8026 15.7118 18.8586 16.0758 18.8679C16.4491 18.8679 16.8038 18.8212 17.1398 18.7279C17.4851 18.6439 17.7651 18.4992 17.9798 18.2939C18.2038 18.0979 18.3205 17.8459 18.3298 17.5379C18.3391 17.2392 18.2225 16.9779 17.9798 16.7539C17.7465 16.5206 17.3591 16.4132 16.8178 16.4319L15.4878 16.4739C15.2078 16.4832 14.9371 16.4506 14.6758 16.3759C14.4238 16.2919 14.2185 16.1706 14.0598 16.0119C13.9105 15.8439 13.8405 15.6386 13.8498 15.3959C13.8591 15.2092 13.9105 15.0179 14.0038 14.8219C14.1065 14.6259 14.2651 14.4392 14.4798 14.2619C14.1531 14.0752 13.9011 13.8232 13.7238 13.5059C13.5465 13.1792 13.4578 12.8199 13.4578 12.4279C13.4671 12.0079 13.5791 11.6346 13.7938 11.3079C14.0085 10.9719 14.3071 10.7106 14.6898 10.5239C15.0725 10.3279 15.5158 10.2299 16.0198 10.2299C16.4305 10.2299 16.8085 10.3139 17.1538 10.4819L18.0778 10.4399C18.2925 10.4306 18.5118 10.4119 18.7358 10.3839C18.9598 10.3466 19.1371 10.3092 19.2678 10.2719C19.2678 10.4026 19.2538 10.5332 19.2258 10.6639C19.2071 10.7946 19.1885 10.8739 19.1698 10.9019C19.1325 10.9859 19.0811 11.0372 19.0158 11.0559C18.9598 11.0746 18.8945 11.0839 18.8198 11.0839C18.6611 11.0839 18.4978 11.0746 18.3298 11.0559C18.1711 11.0372 18.0125 11.0139 17.8538 10.9859C18.0218 11.1632 18.1525 11.3686 18.2458 11.6019C18.3485 11.8352 18.3998 12.0872 18.3998 12.3579C18.3998 12.7966 18.2831 13.1886 18.0498 13.5339C17.8258 13.8699 17.5225 14.1359 17.1398 14.3319C16.7571 14.5186 16.3278 14.6119 15.8518 14.6119C15.5158 14.6119 15.1985 14.5606 14.8998 14.4579C14.8158 14.5606 14.7551 14.6726 14.7178 14.7939C14.6805 14.9152 14.6571 15.0412 14.6478 15.1719C14.6385 15.3306 14.6991 15.4706 14.8298 15.5919C14.9698 15.7132 15.1985 15.7692 15.5158 15.7599L16.9438 15.7039C17.4758 15.6852 17.9005 15.7506 18.2178 15.8999C18.5445 16.0492 18.7778 16.2452 18.9178 16.4879C19.0671 16.7306 19.1371 16.9872 19.1278 17.2579C19.1185 17.7059 18.9691 18.1026 18.6798 18.4479C18.3905 18.7932 17.9985 19.0639 17.5038 19.2599C17.0091 19.4559 16.4491 19.5492 15.8238 19.5399C15.0585 19.5212 14.4378 19.3626 13.9618 19.0639C13.4858 18.7746 13.2478 18.3546 13.2478 17.8039C13.2478 17.6546 13.2758 17.4959 13.3318 17.3279C13.3878 17.1599 13.4765 17.0152 13.5978 16.8939C13.7191 16.7726 13.8451 16.7446 13.9758 16.8099L14.1438 16.8939ZM16.0898 14.0099C16.4725 14.0099 16.8085 13.8839 17.0978 13.6319C17.3965 13.3799 17.5458 13.0066 17.5458 12.5119C17.5458 12.2226 17.4758 11.9519 17.3358 11.6999C17.2051 11.4386 17.0091 11.2239 16.7478 11.0559C16.4958 10.8879 16.1785 10.8039 15.7958 10.8039C15.3011 10.8039 14.9278 10.9486 14.6758 11.2379C14.4331 11.5272 14.3118 11.8819 14.3118 12.3019C14.3118 12.8152 14.4798 13.2306 14.8158 13.5479C15.1518 13.8559 15.5765 14.0099 16.0898 14.0099Z" fill="white"/>
</svg>
