<svg width="24" height="24" viewBox="0 0 24 24" fill="none" xmlns="http://www.w3.org/2000/svg">
<path d="M9.75197 17.2741C9.65864 17.2741 9.5793 17.2414 9.51397 17.1761C9.44864 17.1201 9.4253 17.0314 9.44397 16.9101C9.49997 16.6021 9.5373 16.3874 9.55597 16.2661C9.58397 16.1541 9.60264 16.0701 9.61197 16.0141C9.63064 15.9581 9.6493 15.8788 9.66797 15.7761C9.69597 15.6734 9.72864 15.4821 9.76597 15.2021C9.84064 14.7541 9.89197 14.3388 9.91997 13.9561C9.94797 13.5641 9.96664 13.2048 9.97597 12.8781C9.6213 12.9154 9.2853 12.9528 8.96797 12.9901C8.65997 13.0274 8.31464 13.1161 7.93197 13.2561H7.91797C7.76864 13.3121 7.62397 13.3914 7.48397 13.4941C7.34397 13.5874 7.17597 13.6714 6.97997 13.7461C6.92397 13.7648 6.8773 13.7741 6.83997 13.7741C6.72797 13.7741 6.64397 13.7274 6.58797 13.6341C6.5413 13.5314 6.5273 13.4334 6.54597 13.3401C6.48064 13.4428 6.4153 13.5314 6.34997 13.6061C6.1913 13.8394 6.0513 14.0448 5.92997 14.2221C5.81797 14.3901 5.68264 14.5908 5.52397 14.8241C5.37464 15.0388 5.24397 15.2768 5.13197 15.5381C5.01997 15.7901 4.89864 16.0234 4.76797 16.2381C4.70264 16.3314 4.61864 16.3781 4.51597 16.3781C4.4133 16.3781 4.31997 16.3361 4.23597 16.2521C4.15197 16.1681 4.10997 16.0701 4.10997 15.9581C4.10997 15.8928 4.12864 15.8274 4.16597 15.7621C4.30597 15.5474 4.43197 15.3654 4.54397 15.2161C4.6653 15.0574 4.79597 14.8754 4.93597 14.6701C5.10397 14.4274 5.24397 14.2221 5.35597 14.0541C5.4773 13.8861 5.61264 13.6901 5.76197 13.4661C5.9393 13.2048 6.09797 12.9761 6.23797 12.7801C6.3873 12.5841 6.53197 12.3881 6.67197 12.1921C6.8213 11.9868 6.97997 11.7581 7.14797 11.5061C7.2973 11.2728 7.41397 11.0534 7.49797 10.8481C7.5913 10.6334 7.6893 10.4234 7.79197 10.2181C7.90397 10.0128 8.06264 9.8074 8.26797 9.60207L8.28197 9.58807C8.49664 9.3734 8.7113 9.1214 8.92597 8.83207C9.14064 8.5334 9.29464 8.2814 9.38797 8.07607C9.5653 7.87074 9.7613 7.76807 9.97597 7.76807C10.228 7.76807 10.438 7.90807 10.606 8.18807C10.6433 8.2814 10.6666 8.37007 10.676 8.45407C10.6853 8.53807 10.69 8.62207 10.69 8.70607C10.69 8.83674 10.6806 8.96274 10.662 9.08407C10.6526 9.2054 10.648 9.32674 10.648 9.44807C10.6573 9.75607 10.662 10.0314 10.662 10.2741C10.6713 10.5074 10.676 10.7548 10.676 11.0161C10.676 11.1374 10.676 11.2634 10.676 11.3941C10.676 11.5248 10.6713 11.6648 10.662 11.8141C10.662 11.8514 10.6573 11.9028 10.648 11.9681C10.648 12.0334 10.648 12.0801 10.648 12.1081H10.788C10.9 12.1081 10.984 12.1361 11.04 12.1921C11.096 12.2481 11.124 12.3134 11.124 12.3881C11.124 12.4628 11.096 12.5374 11.04 12.6121C10.984 12.6774 10.8953 12.7194 10.774 12.7381C10.746 12.7474 10.718 12.7568 10.69 12.7661C10.662 12.7661 10.6293 12.7754 10.592 12.7941C10.5733 12.9901 10.5546 13.1908 10.536 13.3961C10.5173 13.5921 10.494 13.8114 10.466 14.0541C10.4286 14.4181 10.396 14.7448 10.368 15.0341C10.3493 15.3141 10.3213 15.6034 10.284 15.9021C10.256 16.1914 10.2046 16.5461 10.13 16.9661C10.1113 17.0688 10.0646 17.1434 9.98997 17.1901C9.9153 17.2461 9.83597 17.2741 9.75197 17.2741ZM7.70797 11.8141C7.5213 12.1128 7.3533 12.3508 7.20397 12.5281C7.05464 12.7054 6.90064 12.9014 6.74197 13.1161L6.78397 13.0741C6.9613 13.0088 7.1153 12.9388 7.24597 12.8641C7.38597 12.7801 7.55397 12.7194 7.74997 12.6821C7.74997 12.6821 7.8713 12.6541 8.11397 12.5981C8.35664 12.5421 8.65064 12.4768 8.99597 12.4021C9.35064 12.3181 9.68664 12.2481 10.004 12.1921L10.018 11.7161C10.018 11.6321 10.018 11.5481 10.018 11.4641C10.0273 11.3801 10.032 11.3054 10.032 11.2401C10.032 10.9414 10.0226 10.6708 10.004 10.4281C9.99464 10.1854 9.9853 9.8774 9.97597 9.50407C9.99464 9.3734 10.0086 9.25207 10.018 9.14007C10.0273 9.02807 10.032 8.9254 10.032 8.83207C10.032 8.68274 10.018 8.58007 9.98997 8.52407C9.9713 8.52407 9.93864 8.52874 9.89197 8.53807C9.85464 8.53807 9.8173 8.55674 9.77997 8.59407C9.61197 8.70607 9.46264 8.87874 9.33197 9.11207C9.21064 9.3454 9.0473 9.61607 8.84197 9.92407V9.91007C8.60864 10.2554 8.42197 10.5681 8.28197 10.8481C8.14197 11.1188 7.95064 11.4408 7.70797 11.8141ZM14.0119 19.9621C13.8906 19.9621 13.7692 19.9528 13.6479 19.9341C13.5359 19.9154 13.4239 19.8921 13.3119 19.8641C13.1159 19.8081 12.9712 19.7054 12.8779 19.5561C12.7939 19.4068 12.7519 19.2528 12.7519 19.0941C12.7519 18.9634 12.7846 18.8608 12.8499 18.7861C12.9152 18.7208 12.9946 18.6881 13.0879 18.6881C13.1159 18.6881 13.1392 18.6881 13.1579 18.6881C13.1859 18.6974 13.2139 18.7068 13.2419 18.7161C13.3072 18.7441 13.3819 18.8328 13.4659 18.9821C13.5592 19.1314 13.6526 19.2294 13.7459 19.2761C13.7739 19.2854 13.8112 19.2901 13.8579 19.2901C14.0166 19.2901 14.1939 19.2201 14.3899 19.0801C14.5952 18.9401 14.7492 18.8094 14.8519 18.6881C15.2532 18.2308 15.5612 17.7781 15.7759 17.3301C15.9906 16.8821 16.1586 16.4481 16.2799 16.0281C16.4106 15.6081 16.5366 15.2161 16.6579 14.8521C16.4526 15.0388 16.2379 15.2021 16.0139 15.3421C15.7899 15.4728 15.5192 15.5801 15.2019 15.6641C14.8939 15.7481 14.4879 15.8181 13.9839 15.8741C13.9186 15.8834 13.8579 15.8881 13.8019 15.8881C13.7459 15.8881 13.6899 15.8881 13.6339 15.8881C13.1952 15.8881 12.8266 15.8041 12.5279 15.6361C12.2292 15.4588 12.0052 15.2348 11.8559 14.9641C11.7066 14.6934 11.6319 14.4041 11.6319 14.0961C11.6319 13.6388 11.7812 13.2188 12.0799 12.8361C12.2572 12.6121 12.4812 12.3741 12.7519 12.1221C13.0226 11.8608 13.3352 11.6181 13.6899 11.3941C14.0539 11.1701 14.4552 10.9881 14.8939 10.8481C15.3419 10.7081 15.8226 10.6474 16.3359 10.6661C16.5972 10.6661 16.7839 10.7128 16.8959 10.8061C17.0172 10.8901 17.0919 10.9974 17.1199 11.1281C17.1572 11.2494 17.1759 11.3754 17.1759 11.5061C17.1666 11.6461 17.1106 11.7161 17.0079 11.7161C16.9239 11.7161 16.8212 11.6834 16.6999 11.6181C16.5786 11.5528 16.4432 11.4921 16.2939 11.4361C15.7526 11.3988 15.2392 11.4734 14.7539 11.6601C14.2779 11.8468 13.8532 12.0848 13.4799 12.3741C13.1159 12.6541 12.8312 12.9341 12.6259 13.2141C12.4579 13.4381 12.3739 13.6994 12.3739 13.9981C12.3739 14.2221 12.4299 14.4414 12.5419 14.6561C12.6632 14.8614 12.8452 15.0294 13.0879 15.1601C13.3306 15.2814 13.6339 15.3281 13.9979 15.3001C14.4459 15.2628 14.8239 15.1788 15.1319 15.0481C15.4399 14.9174 15.7106 14.7541 15.9439 14.5581C16.1772 14.3621 16.3919 14.1474 16.5879 13.9141C16.7839 13.6808 16.9939 13.4474 17.2179 13.2141C17.2739 13.1581 17.3439 13.1301 17.4279 13.1301C17.5026 13.1301 17.5726 13.1628 17.6379 13.2281C17.7032 13.2841 17.7359 13.3681 17.7359 13.4801C17.7359 13.5081 17.7359 13.5408 17.7359 13.5781C17.7359 13.6061 17.7266 13.6388 17.7079 13.6761C17.6426 13.9094 17.5539 14.2268 17.4419 14.6281C17.3299 15.0201 17.1992 15.4494 17.0499 15.9161C16.9099 16.3734 16.7466 16.8168 16.5599 17.2461C16.3639 17.6848 16.1259 18.1141 15.8459 18.5341C15.5752 18.9541 15.2952 19.3181 15.0059 19.6261H15.0199C14.9172 19.7474 14.7726 19.8314 14.5859 19.8781C14.4086 19.9341 14.2172 19.9621 14.0119 19.9621Z" fill="white"/>
</svg>
