<svg width="24" height="24" viewBox="0 0 24 24" fill="none" xmlns="http://www.w3.org/2000/svg">
<path d="M12.4629 16.4681L12.3789 17.0001H9.41093L9.50893 16.3561L10.4049 16.1181L10.1529 14.1581H7.66093L6.86293 16.1181L7.75893 16.3561L7.64693 17.0001H4.67893L4.76293 16.4681L5.64493 16.1881L9.10293 8.55813L10.5589 8.43213L10.7269 8.60013L11.6789 16.1881L12.4629 16.4681ZM7.96893 13.4161H10.0689L9.78893 9.37013H9.70493L7.96893 13.4161ZM16.0615 10.6021C16.1828 10.6021 16.5281 10.6441 17.0975 10.7281C17.6761 10.8028 18.0821 10.8634 18.3155 10.9101L17.1815 17.2941C17.1441 17.5181 16.9761 17.8074 16.6775 18.1621C16.3881 18.5168 16.0755 18.8341 15.7395 19.1141C15.4035 19.3941 15.1655 19.5341 15.0255 19.5341C14.7268 19.5341 13.8588 19.2681 12.4215 18.7361L12.5755 17.7701L14.2695 16.3141C13.9521 16.2301 13.6908 16.0434 13.4855 15.7541C13.2895 15.4554 13.1915 15.0634 13.1915 14.5781C13.1915 14.1581 13.2381 13.7054 13.3315 13.2201C13.4341 12.7254 13.5788 12.3148 13.7655 11.9881C13.9335 11.7921 14.3161 11.5121 14.9135 11.1481C15.5201 10.7841 15.9028 10.6021 16.0615 10.6021ZM15.4735 11.4281C15.3148 11.4841 15.1561 11.6661 14.9975 11.9741C14.8388 12.2728 14.7081 12.6508 14.6055 13.1081C14.5028 13.5561 14.4515 14.0181 14.4515 14.4941C14.4515 14.8581 14.5028 15.1241 14.6055 15.2921C14.7175 15.4601 14.8528 15.5581 15.0115 15.5861L16.5935 13.8641L16.9715 11.6801C16.7568 11.5961 16.5281 11.5308 16.2855 11.4841C16.0521 11.4281 15.8515 11.4001 15.6835 11.4001C15.5995 11.4001 15.5295 11.4094 15.4735 11.4281ZM16.0055 17.0841C16.1175 16.5241 16.2481 15.8148 16.3975 14.9561H16.3135C15.5668 15.8988 14.6988 16.9161 13.7095 18.0081L13.6955 18.1201C13.9195 18.2508 14.2321 18.4048 14.6335 18.5821C15.0348 18.7594 15.3101 18.8481 15.4595 18.8481C15.5155 18.8481 15.5948 18.6754 15.6975 18.3301C15.8001 17.9941 15.9028 17.5788 16.0055 17.0841Z" fill="white"/>
</svg>
