<svg width="24" height="24" viewBox="0 0 24 24" fill="none" xmlns="http://www.w3.org/2000/svg">
<path d="M5.37062 11.638C5.46395 11.47 5.59928 11.2833 5.77662 11.078C5.96328 10.8633 6.17328 10.6533 6.40662 10.448C6.64928 10.2333 6.89662 10.0467 7.14862 9.88804H7.73662C7.66195 10.0467 7.60128 10.2427 7.55462 10.476C7.51728 10.7093 7.48928 11.0313 7.47062 11.442C7.46128 11.8527 7.45195 12.4127 7.44262 13.122C7.44262 13.8313 7.44262 14.746 7.44262 15.866L8.42262 16.132L7.98862 16.972C7.82062 16.9907 7.62928 17.014 7.41462 17.042C7.19995 17.07 6.98995 17.0933 6.78462 17.112C6.58862 17.14 6.41595 17.154 6.26662 17.154C6.11728 17.1633 6.01928 17.1633 5.97262 17.154C5.86995 17.126 5.77195 17.07 5.67862 16.986C5.59462 16.902 5.51995 16.8133 5.45462 16.72C5.39862 16.6173 5.36128 16.5427 5.34262 16.496C5.36128 16.1413 5.39862 15.796 5.45462 15.46C5.51062 15.124 5.53862 14.746 5.53862 14.326C5.53862 13.99 5.51528 13.6773 5.46862 13.388C5.43128 13.0893 5.39862 12.8 5.37062 12.52C5.35195 12.2307 5.35195 11.9367 5.37062 11.638ZM8.18462 12.772L10.3406 12.674V13.724L8.18462 13.612V12.772ZM8.77262 9.84604V15.334C8.77262 15.39 8.73995 15.4927 8.67462 15.642C8.60928 15.782 8.52528 15.9453 8.42262 16.132H8.01662V9.84604H8.77262ZM5.00662 9.51004L5.11862 8.04004C5.70662 8.08671 6.31328 8.14271 6.93862 8.20804C7.57328 8.26404 8.18462 8.32937 8.77262 8.40404C9.36062 8.46937 9.87862 8.53004 10.3266 8.58604C10.784 8.64204 11.12 8.69337 11.3346 8.74004C11.3626 8.74937 11.414 8.79604 11.4886 8.88004C11.5726 8.95471 11.6613 9.04804 11.7546 9.16004C11.8573 9.27204 11.9413 9.37937 12.0066 9.48204C12.0813 9.57537 12.1186 9.64071 12.1186 9.67804V15.838L12.8606 16.132V16.972C12.6833 16.9907 12.4826 17.014 12.2586 17.042C12.0346 17.07 11.8106 17.0933 11.5866 17.112C11.3626 17.14 11.1666 17.1587 10.9986 17.168C10.8306 17.1773 10.7233 17.1727 10.6766 17.154C10.5833 17.126 10.49 17.07 10.3966 16.986C10.3033 16.8927 10.224 16.7993 10.1586 16.706C10.1026 16.6127 10.0653 16.5427 10.0466 16.496V10.336L7.51262 9.97204L6.99462 10L6.96662 9.91604L5.00662 9.51004ZM16.29 19.576C16.0753 19.576 15.814 19.5527 15.506 19.506C15.198 19.4687 14.8946 19.4173 14.596 19.352C14.2973 19.296 14.05 19.2447 13.854 19.198L13.532 17.882L15.282 16.454C14.9553 16.3887 14.6613 16.244 14.4 16.02C14.148 15.796 13.9473 15.4973 13.798 15.124C13.6486 14.7507 13.574 14.3167 13.574 13.822C13.574 13.486 13.6066 13.1407 13.672 12.786C13.7466 12.422 13.8306 12.1327 13.924 11.918C14.008 11.8153 14.1573 11.6847 14.372 11.526C14.5866 11.358 14.82 11.19 15.072 11.022C15.324 10.854 15.5573 10.714 15.772 10.602C15.9866 10.4807 16.1406 10.42 16.234 10.42C16.2806 10.42 16.3973 10.4387 16.584 10.476C16.78 10.504 17.004 10.5413 17.256 10.588C17.5173 10.6347 17.774 10.6813 18.026 10.728C18.278 10.7747 18.4926 10.8167 18.67 10.854C18.8473 10.882 18.9453 10.896 18.964 10.896V17.308C18.964 17.5413 18.866 17.7887 18.67 18.05C18.474 18.3113 18.2266 18.5587 17.928 18.792C17.6293 19.0253 17.3306 19.212 17.032 19.352C16.7426 19.5013 16.4953 19.576 16.29 19.576ZM16.71 18.694C16.7846 18.694 16.85 18.6007 16.906 18.414C16.962 18.2367 17.004 18.0127 17.032 17.742C17.06 17.4807 17.074 17.2287 17.074 16.986V16.328L16.99 16.286C16.878 16.4073 16.738 16.552 16.57 16.72C16.4113 16.8787 16.2433 17.042 16.066 17.21C15.898 17.3873 15.744 17.546 15.604 17.686C15.464 17.8353 15.352 17.952 15.268 18.036V18.134C15.324 18.162 15.4126 18.2087 15.534 18.274C15.6646 18.3393 15.8093 18.4047 15.968 18.47C16.1266 18.5353 16.2713 18.5867 16.402 18.624C16.542 18.6707 16.6446 18.694 16.71 18.694ZM16.332 15.446C16.3693 15.446 16.4206 15.4273 16.486 15.39C16.5606 15.3433 16.6353 15.292 16.71 15.236C16.794 15.1707 16.864 15.1193 16.92 15.082C16.9853 15.0353 17.018 15.012 17.018 15.012V11.82C16.962 11.8107 16.864 11.7687 16.724 11.694C16.5933 11.61 16.4626 11.5353 16.332 11.47C16.2013 11.3953 16.1126 11.372 16.066 11.4C16.0006 11.4373 15.9446 11.512 15.898 11.624C15.8513 11.7267 15.8093 11.876 15.772 12.072C15.7346 12.2587 15.7066 12.4827 15.688 12.744C15.6786 12.996 15.674 13.2853 15.674 13.612C15.674 14.004 15.7066 14.34 15.772 14.62C15.8373 14.8907 15.9213 15.096 16.024 15.236C16.136 15.376 16.2386 15.446 16.332 15.446Z" fill="white"/>
</svg>
