<svg width="24" height="24" viewBox="0 0 24 24" fill="none" xmlns="http://www.w3.org/2000/svg">
<path d="M5.60961 11.1058C5.71228 10.9098 5.81494 10.7371 5.91761 10.5878C6.02028 10.4291 6.12761 10.2751 6.23961 10.1258C6.36094 9.96715 6.49628 9.78982 6.64561 9.59382H7.02361C6.99561 9.78049 6.97228 10.0231 6.95361 10.3218C6.93494 10.6111 6.92094 10.9985 6.91161 11.4838C6.90228 11.9691 6.89761 12.5945 6.89761 13.3598C6.89761 14.1158 6.89761 15.0538 6.89761 16.1738L8.10161 16.3838L7.83561 16.9018C7.74228 16.9111 7.60228 16.9298 7.41561 16.9578C7.22894 16.9858 7.03761 17.0091 6.84161 17.0278C6.64561 17.0558 6.47294 17.0791 6.32361 17.0978C6.18361 17.1165 6.09961 17.1258 6.07161 17.1258C6.04361 17.1258 5.99228 17.0931 5.91761 17.0278C5.84294 16.9625 5.76828 16.8925 5.69361 16.8178C5.62828 16.7431 5.59561 16.6918 5.59561 16.6638C5.61428 16.2998 5.63761 15.9498 5.66561 15.6138C5.70294 15.2685 5.72161 14.8391 5.72161 14.3258C5.72161 13.9338 5.70761 13.5511 5.67961 13.1778C5.65161 12.7951 5.62828 12.4311 5.60961 12.0858C5.59094 11.7311 5.59094 11.4045 5.60961 11.1058ZM7.73761 12.8978L10.4256 12.8138V13.5558L7.73761 13.4718V12.8978ZM8.39561 9.64982V15.5858C8.39561 15.6418 8.37228 15.7445 8.32561 15.8938C8.27894 16.0338 8.20428 16.1971 8.10161 16.3838H7.66761V9.64982H8.39561ZM5.02161 9.35582L5.11961 8.31982C5.63294 8.35715 6.18361 8.40849 6.77161 8.47382C7.36894 8.52982 7.94761 8.59515 8.50761 8.66982C9.07694 8.73515 9.57628 8.80049 10.0056 8.86582C10.4349 8.93115 10.7429 8.99182 10.9296 9.04782C10.9483 9.05715 10.9809 9.08515 11.0276 9.13182C11.0836 9.16915 11.1349 9.21582 11.1816 9.27182C11.2376 9.31849 11.2843 9.36982 11.3216 9.42582C11.3589 9.47249 11.3776 9.50515 11.3776 9.52382V16.1598L12.2456 16.3698V16.9158C12.1336 16.9345 11.9889 16.9578 11.8116 16.9858C11.6343 17.0045 11.4523 17.0231 11.2656 17.0418C11.0789 17.0698 10.9156 17.0885 10.7756 17.0978C10.6356 17.1165 10.5516 17.1258 10.5236 17.1258C10.4956 17.1258 10.4443 17.0885 10.3696 17.0138C10.2949 16.9485 10.2249 16.8785 10.1596 16.8038C10.1036 16.7291 10.0756 16.6778 10.0756 16.6498V10.1538L6.95361 9.78982L6.49161 9.81782L6.46361 9.73382L5.02161 9.35582ZM15.8821 19.5338C15.6954 19.5338 15.4574 19.5198 15.1681 19.4918C14.8881 19.4638 14.5941 19.4265 14.2861 19.3798C13.9874 19.3331 13.7168 19.2911 13.4741 19.2538L13.1381 18.0498L14.8741 16.5798C14.6408 16.5798 14.3934 16.4725 14.1321 16.2578C13.8801 16.0431 13.6654 15.7305 13.4881 15.3198C13.3108 14.8998 13.2221 14.3911 13.2221 13.7938C13.2221 13.5231 13.2454 13.2105 13.2921 12.8558C13.3481 12.5011 13.4228 12.2118 13.5161 11.9878C13.5908 11.8851 13.7214 11.7591 13.9081 11.6098C14.0948 11.4605 14.3001 11.3065 14.5241 11.1478C14.7574 10.9891 14.9674 10.8585 15.1541 10.7558C15.3501 10.6531 15.4901 10.6018 15.5741 10.6018C15.6208 10.6018 15.7141 10.6111 15.8541 10.6298C16.0034 10.6485 16.1761 10.6718 16.3721 10.6998C16.5774 10.7278 16.7828 10.7558 16.9881 10.7838C17.1934 10.8118 17.3754 10.8398 17.5341 10.8678C17.7021 10.8958 17.8188 10.9145 17.8841 10.9238V17.2938C17.8841 17.5271 17.8094 17.7698 17.6601 18.0218C17.5108 18.2831 17.3241 18.5258 17.1001 18.7498C16.8761 18.9831 16.6521 19.1698 16.4281 19.3098C16.2041 19.4591 16.0221 19.5338 15.8821 19.5338ZM16.3021 18.8898C16.3768 18.8898 16.4374 18.7778 16.4841 18.5538C16.5401 18.3298 16.5821 18.0545 16.6101 17.7278C16.6381 17.4105 16.6521 17.0978 16.6521 16.7898V16.0898L16.5821 16.0618C16.4328 16.2018 16.2461 16.3745 16.0221 16.5798C15.8074 16.7758 15.5834 16.9811 15.3501 17.1958C15.1261 17.4198 14.9161 17.6205 14.7201 17.7978C14.5241 17.9845 14.3748 18.1291 14.2721 18.2318V18.3158C14.3468 18.3531 14.4728 18.4045 14.6501 18.4698C14.8274 18.5351 15.0234 18.6005 15.2381 18.6658C15.4621 18.7311 15.6674 18.7825 15.8541 18.8198C16.0501 18.8665 16.1994 18.8898 16.3021 18.8898ZM15.5881 15.9358C15.6254 15.9358 15.6954 15.9078 15.7981 15.8518C15.9101 15.7865 16.0268 15.7118 16.1481 15.6278C16.2788 15.5438 16.3861 15.4738 16.4701 15.4178C16.5634 15.3525 16.6101 15.3198 16.6101 15.3198V11.6798C16.4794 11.6331 16.3068 11.5865 16.0921 11.5398C15.8868 11.4931 15.6908 11.4558 15.5041 11.4278C15.3174 11.3998 15.1868 11.3998 15.1121 11.4278C15.0188 11.4651 14.9348 11.5445 14.8601 11.6658C14.7854 11.7871 14.7248 11.9505 14.6781 12.1558C14.6408 12.3518 14.6081 12.5898 14.5801 12.8698C14.5614 13.1405 14.5521 13.4531 14.5521 13.8078C14.5521 14.3585 14.6174 14.7925 14.7481 15.1098C14.8788 15.4178 15.0281 15.6325 15.1961 15.7538C15.3641 15.8751 15.4948 15.9358 15.5881 15.9358Z" fill="white"/>
</svg>
