<svg width="24" height="24" viewBox="0 0 24 24" fill="none" xmlns="http://www.w3.org/2000/svg">
<path d="M12.8294 16.5938L12.7594 16.9998H10.0994L10.1834 16.4958L11.0654 16.2998L10.7994 14.0738H8.19538L7.27138 16.2998L8.15338 16.4958L8.06938 16.9998H5.40938L5.47938 16.5938L6.37538 16.3558L9.81938 8.61379L10.9254 8.48779L11.0794 8.64179L11.9894 16.3418L12.8294 16.5938ZM8.43338 13.4998H10.7434L10.3794 9.18779H10.2954L8.43338 13.4998ZM16.2607 10.6438C16.3914 10.6438 16.7087 10.6811 17.2127 10.7558C17.7167 10.8305 18.0994 10.8958 18.3607 10.9518L17.2267 17.4198C17.1894 17.6438 17.0494 17.9191 16.8067 18.2458C16.564 18.5818 16.3027 18.8758 16.0227 19.1278C15.752 19.3798 15.5467 19.5058 15.4067 19.5058C15.248 19.5058 14.8654 19.3938 14.2587 19.1698C13.6614 18.9551 13.148 18.7545 12.7187 18.5678L12.8447 17.7698L14.4687 16.2998C14.1607 16.2158 13.9134 16.0245 13.7267 15.7258C13.5494 15.4178 13.4607 15.0351 13.4607 14.5778C13.4607 14.1485 13.5214 13.6865 13.6427 13.1918C13.7734 12.6878 13.9414 12.2725 14.1467 11.9458C14.3427 11.7125 14.702 11.4371 15.2247 11.1198C15.7474 10.8025 16.0927 10.6438 16.2607 10.6438ZM16.9887 13.6118C17.026 13.4438 17.124 12.8885 17.2827 11.9458L17.3527 11.5398C16.9327 11.3811 16.5314 11.3018 16.1487 11.3018C15.9434 11.3018 15.7894 11.3251 15.6867 11.3718C15.3227 11.5398 15.0194 11.9318 14.7767 12.5478C14.534 13.1545 14.4127 13.8031 14.4127 14.4938C14.4127 15.2498 14.6227 15.6605 15.0427 15.7258L16.9887 13.6118ZM15.7287 18.9458C15.794 18.9458 15.8874 18.7731 16.0087 18.4278C16.1394 18.0918 16.2514 17.6905 16.3447 17.2238L16.4567 16.6498L16.8487 14.4798H16.7647C16.0834 15.3198 15.0567 16.4911 13.6847 17.9938L13.6707 18.1058C13.8574 18.2271 14.2074 18.3951 14.7207 18.6098C15.234 18.8338 15.57 18.9458 15.7287 18.9458Z" fill="white"/>
</svg>
