<svg width="24" height="24" viewBox="0 0 24 24" fill="none" xmlns="http://www.w3.org/2000/svg">
<path d="M10.744 16.9092L10.4728 15.4854L10.179 14.4684L8.05463 14.4232L6.17884 14.4684L5.88505 15.3724L5.59125 16.9092H3.33127L7.01504 6.01611H9.74962L13.0944 16.9092H10.744ZM8.41623 8.1631H8.25803L6.76644 12.7056L8.23543 12.7282L9.70442 12.7056L8.41623 8.1631ZM21.9607 10.1066C21.6593 10.182 21.2224 10.2648 20.6499 10.3552L20.6047 10.423C20.7704 10.7545 20.8533 11.1312 20.8533 11.553C20.8533 12.3968 20.5444 13.0748 19.9267 13.587C19.324 14.0842 18.4954 14.3328 17.4407 14.3328C17.1243 14.3328 16.8004 14.3027 16.4689 14.2424C16.3032 14.4081 16.2203 14.5588 16.2203 14.6944C16.2203 14.8903 16.3484 15.0334 16.6045 15.1238C16.8757 15.1991 17.3277 15.2745 17.9605 15.3498C18.5933 15.4251 19.1282 15.5231 19.5651 15.6436C20.002 15.7491 20.3787 15.9449 20.6951 16.2312C21.0266 16.5175 21.1923 16.9167 21.1923 17.429C21.1923 17.9563 21.0266 18.4309 20.6951 18.8528C20.002 19.7568 18.8796 20.2088 17.3277 20.2088C16.3032 20.2088 15.5122 19.9978 14.9547 19.576C14.3973 19.1541 14.1185 18.6042 14.1185 17.9262C14.4651 17.4441 14.9397 17.0222 15.5423 16.6606V16.5702C14.7287 16.2689 14.3219 15.7566 14.3219 15.0334C14.6233 14.6718 15.0075 14.3253 15.4745 13.9938V13.926C14.6459 13.474 14.2315 12.781 14.2315 11.8468C14.2315 10.8976 14.5329 10.1744 15.1355 9.67728C15.7533 9.16502 16.5895 8.90889 17.6441 8.90889C18.2618 8.90889 18.8118 9.01436 19.2939 9.22529C20.1075 9.07462 20.9362 8.84862 21.7799 8.54729L21.9607 8.70549V10.1066ZM18.9097 11.5982C18.9097 10.7394 18.4502 10.31 17.5311 10.31C16.6271 10.31 16.1751 10.747 16.1751 11.6208C16.1751 12.5399 16.6196 12.9919 17.5085 12.9768C18.4426 12.9919 18.9097 12.5324 18.9097 11.5982ZM19.3165 17.8584C19.3165 17.542 19.1508 17.3235 18.8193 17.203C18.4878 17.0975 18.081 17.0147 17.5989 16.9544C17.1318 16.9092 16.8531 16.8715 16.7627 16.8414C16.2354 17.203 15.9717 17.542 15.9717 17.8584C15.9717 18.1898 16.1073 18.446 16.3785 18.6268C16.6497 18.8076 17.0414 18.898 17.5537 18.898C18.081 18.898 18.5029 18.8 18.8193 18.6042C19.1508 18.4234 19.3165 18.1748 19.3165 17.8584Z" fill="white"/>
</svg>
