<svg width="24" height="24" viewBox="0 0 24 24" fill="none" xmlns="http://www.w3.org/2000/svg">
<path d="M5.58105 17H3.29102L6.98926 7.04688H8.43848L8.2334 8.93359L5.58105 17ZM7.74805 8.93359L7.52246 7.04688H8.97852L12.6973 17H10.4072L7.74805 8.93359ZM10.3389 15.0176H5.06152V13.2812H10.3389V15.0176ZM20.0117 9.60352V16.7334C20.0117 17.4124 19.859 17.9889 19.5537 18.4629C19.2529 18.9368 18.8314 19.2969 18.2891 19.543C17.7467 19.7891 17.1178 19.9121 16.4023 19.9121C16.097 19.9121 15.7712 19.8711 15.4248 19.7891C15.0785 19.707 14.7458 19.5817 14.4268 19.4131C14.1123 19.2445 13.8503 19.0303 13.6406 18.7705L14.543 17.5059C14.7617 17.752 15.0215 17.9456 15.3223 18.0869C15.623 18.2327 15.9535 18.3057 16.3135 18.3057C16.8285 18.3057 17.2272 18.1689 17.5098 17.8955C17.7969 17.6266 17.9404 17.2393 17.9404 16.7334V11.333L18.1387 9.60352H20.0117ZM13.1758 13.2471C13.1758 12.4951 13.2965 11.8366 13.5381 11.2715C13.7842 10.7018 14.1328 10.2598 14.584 9.9453C15.0352 9.62629 15.5706 9.46679 16.1904 9.46679C16.6872 9.46679 17.1019 9.5625 17.4346 9.75391C17.7718 9.94076 18.0452 10.2051 18.2549 10.5469C18.4645 10.8887 18.6286 11.292 18.7471 11.7568C18.8656 12.2171 18.9613 12.7184 19.0342 13.2607V13.4316C18.9385 14.1198 18.7835 14.7441 18.5693 15.3047C18.3551 15.8652 18.0544 16.3118 17.667 16.6445C17.2796 16.9727 16.7829 17.1367 16.1768 17.1367C15.5615 17.1367 15.0283 16.9749 14.5771 16.6514C14.1305 16.3232 13.7842 15.8766 13.5381 15.3115C13.2965 14.7464 13.1758 14.1061 13.1758 13.3906V13.2471ZM15.2471 13.3906C15.2471 13.7734 15.2995 14.1221 15.4043 14.4365C15.5091 14.751 15.6686 15.0016 15.8828 15.1885C16.097 15.3708 16.3704 15.4619 16.7031 15.4619C17.054 15.4619 17.3366 15.389 17.5508 15.2432C17.7695 15.0928 17.9336 14.8854 18.043 14.6211C18.1569 14.3568 18.2207 14.0514 18.2344 13.7051V12.9941C18.2253 12.6979 18.1888 12.4359 18.125 12.208C18.0612 11.9756 17.9678 11.7819 17.8447 11.627C17.7217 11.4674 17.5667 11.3467 17.3799 11.2646C17.1976 11.1826 16.9766 11.1416 16.7168 11.1416C16.3887 11.1416 16.1152 11.235 15.8965 11.4219C15.6777 11.6042 15.5137 11.8548 15.4043 12.1738C15.2995 12.4883 15.2471 12.846 15.2471 13.2471V13.3906Z" fill="white"/>
</svg>
