<svg width="24" height="24" viewBox="0 0 24 24" fill="none" xmlns="http://www.w3.org/2000/svg">
<path d="M5.32812 17H3.47559L7.22168 7.04688H8.39746L8.28125 8.46191L5.32812 17ZM7.76855 8.46191L7.63867 7.04688H8.82129L12.5811 17H10.7285L7.76855 8.46191ZM10.6123 14.7236H5.19141V13.3018H10.6123V14.7236ZM19.7998 9.60352V16.7881C19.7998 17.4535 19.6562 18.0186 19.3691 18.4834C19.082 18.9528 18.6833 19.3083 18.1729 19.5498C17.667 19.7913 17.0791 19.9121 16.4092 19.9121C16.1266 19.9121 15.8122 19.8711 15.4658 19.7891C15.124 19.7116 14.7913 19.584 14.4678 19.4062C14.1442 19.2285 13.873 18.9961 13.6543 18.709L14.4473 17.6836C14.7116 17.9889 15.001 18.2145 15.3154 18.3604C15.6344 18.5107 15.9694 18.5859 16.3203 18.5859C16.8717 18.5859 17.3047 18.4333 17.6191 18.1279C17.9382 17.8226 18.0977 17.3851 18.0977 16.8154V11.2852L18.2549 9.60352H19.7998ZM13.2373 13.2402C13.2373 12.4928 13.3558 11.8366 13.5928 11.2715C13.8343 10.7018 14.1761 10.2598 14.6182 9.9453C15.0648 9.62629 15.5934 9.46679 16.2041 9.46679C16.6872 9.46679 17.0996 9.55566 17.4414 9.7334C17.7832 9.90658 18.0658 10.1572 18.2891 10.4854C18.5169 10.8089 18.6947 11.1963 18.8223 11.6475C18.9544 12.0941 19.0524 12.5885 19.1162 13.1309V13.5273C19.0342 14.2292 18.8815 14.8512 18.6582 15.3936C18.4349 15.9359 18.1204 16.362 17.7148 16.6719C17.3138 16.9818 16.8057 17.1367 16.1904 17.1367C15.5889 17.1367 15.0671 16.9749 14.625 16.6514C14.1829 16.3232 13.8411 15.8766 13.5996 15.3115C13.3581 14.7464 13.2373 14.1038 13.2373 13.3838V13.2402ZM14.9326 13.3838C14.9326 13.8213 14.9919 14.2201 15.1104 14.5801C15.2288 14.9355 15.4111 15.2204 15.6572 15.4346C15.9079 15.6442 16.2292 15.749 16.6211 15.749C17.0039 15.749 17.3161 15.6693 17.5576 15.5098C17.7992 15.3457 17.986 15.1247 18.1182 14.8467C18.2549 14.5687 18.3483 14.2565 18.3984 13.9102V12.7549C18.3711 12.4814 18.3164 12.2285 18.2344 11.9961C18.1569 11.7637 18.0452 11.5632 17.8994 11.3945C17.7581 11.2259 17.5827 11.0938 17.373 10.998C17.1634 10.9023 16.9173 10.8545 16.6348 10.8545C16.2428 10.8545 15.9215 10.9616 15.6709 11.1758C15.4202 11.3854 15.2334 11.6725 15.1104 12.0371C14.9919 12.3971 14.9326 12.7982 14.9326 13.2402V13.3838Z" fill="white"/>
</svg>
