<svg width="24" height="24" viewBox="0 0 24 24" fill="none" xmlns="http://www.w3.org/2000/svg">
<path d="M10.5389 12.2612V13.6962H4.81986V12.2612H10.5389ZM12.3099 15.4532H13.1989V17.0002H8.55086V15.4532H10.4269L7.36786 7.51518L8.31986 8.35518H6.94786L7.86486 7.51518L4.80586 15.4532H6.70986V17.0002H2.17386V15.4532H3.06986L6.64686 6.43018H8.73986L12.3099 15.4532ZM17.4084 20.1222C16.7037 20.1222 16.0667 20.0639 15.4974 19.9472C14.928 19.8305 14.4754 19.6462 14.1394 19.3942C13.808 19.1469 13.6424 18.8202 13.6424 18.4142C13.6424 18.0082 13.8244 17.7049 14.1884 17.5042C14.5524 17.3082 15.0214 17.1822 15.5954 17.1262V16.9442L16.8484 17.0912C16.4097 17.0912 16.0737 17.1402 15.8404 17.2382C15.607 17.3362 15.4437 17.4552 15.3504 17.5952C15.2617 17.7399 15.2174 17.8799 15.2174 18.0152C15.2174 18.2439 15.3177 18.4212 15.5184 18.5472C15.719 18.6732 15.9874 18.7619 16.3234 18.8132C16.6594 18.8645 17.0374 18.8902 17.4574 18.8902C18.274 18.8902 18.869 18.7969 19.2424 18.6102C19.6157 18.4282 19.8024 18.1575 19.8024 17.7982C19.8024 17.3269 19.485 17.0912 18.8504 17.0912H16.1064C15.4577 17.0912 14.9444 16.9839 14.5664 16.7692C14.1884 16.5499 13.9994 16.2255 13.9994 15.7962C13.9994 15.4042 14.1604 15.1009 14.4824 14.8862C14.8044 14.6715 15.2687 14.5385 15.8754 14.4872V14.2002L17.1984 14.5992H16.5824C16.2837 14.5992 16.0527 14.6412 15.8894 14.7252C15.7307 14.8045 15.6514 14.9305 15.6514 15.1032C15.6514 15.2665 15.7284 15.3809 15.8824 15.4462C16.041 15.5115 16.279 15.5442 16.5964 15.5442H18.8924C19.4197 15.5442 19.8747 15.6305 20.2574 15.8032C20.64 15.9759 20.934 16.2255 21.1394 16.5522C21.3494 16.8742 21.4544 17.2615 21.4544 17.7142C21.4544 18.1762 21.326 18.5869 21.0694 18.9462C20.8127 19.3102 20.388 19.5972 19.7954 19.8072C19.2074 20.0172 18.4117 20.1222 17.4084 20.1222ZM17.1984 14.5992C16.559 14.5992 15.9897 14.4895 15.4904 14.2702C14.991 14.0462 14.599 13.7359 14.3144 13.3392C14.0344 12.9379 13.8944 12.4689 13.8944 11.9322C13.8944 11.3955 14.0344 10.9265 14.3144 10.5252C14.5944 10.1239 14.9817 9.81118 15.4764 9.58718C15.971 9.36318 16.5427 9.25118 17.1914 9.25118C17.8354 9.25118 18.4 9.36318 18.8854 9.58718C19.3754 9.80651 19.751 10.1169 20.0124 10.5182C20.1664 10.7235 20.2807 10.9452 20.3554 11.1832C20.43 11.4212 20.4674 11.6755 20.4674 11.9462C20.4674 12.4829 20.3274 12.9495 20.0474 13.3462C19.772 13.7429 19.3894 14.0509 18.8994 14.2702C18.4094 14.4895 17.8424 14.5992 17.1984 14.5992ZM17.2054 13.2762C17.5087 13.2762 17.7794 13.2202 18.0174 13.1082C18.2554 12.9962 18.442 12.8399 18.5774 12.6392C18.7174 12.4385 18.7874 12.2029 18.7874 11.9322C18.7874 11.6615 18.7174 11.4235 18.5774 11.2182C18.442 11.0129 18.2554 10.8542 18.0174 10.7422C17.7794 10.6302 17.5087 10.5742 17.2054 10.5742C16.8974 10.5742 16.622 10.6302 16.3794 10.7422C16.1414 10.8542 15.9524 11.0129 15.8124 11.2182C15.677 11.4235 15.6094 11.6615 15.6094 11.9322C15.6094 12.2029 15.677 12.4385 15.8124 12.6392C15.9524 12.8399 16.1414 12.9962 16.3794 13.1082C16.622 13.2202 16.8974 13.2762 17.2054 13.2762ZM20.4674 11.9462L20.0124 11.1202L19.6624 10.6092L20.0334 10.4412C20.0147 10.3899 20.0007 10.3362 19.9914 10.2802C19.982 10.2242 19.9774 10.1659 19.9774 10.1052C19.9774 9.87651 20.0287 9.68051 20.1314 9.51718C20.2387 9.34918 20.3857 9.22085 20.5724 9.13218C20.7637 9.04351 20.9854 8.99918 21.2374 8.99918C21.3074 8.99918 21.3727 9.00151 21.4334 9.00618C21.494 9.01085 21.55 9.02018 21.6014 9.03418V10.6722C21.48 10.6489 21.368 10.6349 21.2654 10.6302C21.1674 10.6209 21.0764 10.6162 20.9924 10.6162C20.8384 10.6162 20.7147 10.6325 20.6214 10.6652C20.5327 10.6932 20.4674 10.7352 20.4254 10.7912C20.388 10.8472 20.3694 10.9149 20.3694 10.9942C20.3694 11.0549 20.3764 11.1319 20.3904 11.2252C20.409 11.3185 20.4254 11.4282 20.4394 11.5542C20.458 11.6755 20.4674 11.8062 20.4674 11.9462Z" fill="white"/>
</svg>
