<svg width="24" height="24" viewBox="0 0 24 24" fill="none" xmlns="http://www.w3.org/2000/svg">
<path d="M10.2722 13.0592V13.2272H4.49016V13.0592H10.2722ZM11.9452 16.8392H13.0862V17.0002H8.80916V16.8392H11.7632L7.33916 6.56317L7.49316 6.68217H7.27616L7.41616 6.56317L2.99216 16.8392H5.93916V17.0002H1.66916V16.8392H2.81016L7.26916 6.47217H7.48616L11.9452 16.8392ZM17.2549 20.0312C16.5549 20.0312 15.9459 19.9705 15.4279 19.8492C14.9145 19.7279 14.5155 19.5319 14.2309 19.2612C13.9509 18.9905 13.8109 18.6335 13.8109 18.1902C13.8109 17.6629 13.9859 17.2569 14.3359 16.9722C14.6905 16.6875 15.1572 16.5032 15.7359 16.4192V16.3562L16.7089 16.4192C16.0742 16.4239 15.5539 16.5009 15.1479 16.6502C14.7465 16.7995 14.4479 17.0049 14.2519 17.2662C14.0605 17.5322 13.9649 17.8379 13.9649 18.1832C13.9649 18.5985 14.1002 18.9299 14.3709 19.1772C14.6415 19.4292 15.0219 19.6089 15.5119 19.7162C16.0065 19.8282 16.5899 19.8842 17.2619 19.8842C18.4425 19.8842 19.3082 19.6929 19.8589 19.3102C20.4142 18.9322 20.6919 18.4445 20.6919 17.8472C20.6919 16.8952 20.0455 16.4192 18.7529 16.4192H15.8899C15.3672 16.4192 14.9752 16.3375 14.7139 16.1742C14.4572 16.0109 14.3289 15.7775 14.3289 15.4742C14.3289 15.1335 14.4945 14.8885 14.8259 14.7392C15.1619 14.5852 15.6285 14.5082 16.2259 14.5082V14.4242L17.1709 14.6062H16.3449C15.7709 14.6062 15.3182 14.6739 14.9869 14.8092C14.6555 14.9445 14.4899 15.1662 14.4899 15.4742C14.4899 15.7309 14.6065 15.9245 14.8399 16.0552C15.0732 16.1859 15.4372 16.2512 15.9319 16.2512H18.7529C19.2102 16.2512 19.5952 16.3142 19.9079 16.4402C20.2205 16.5615 20.4562 16.7412 20.6149 16.9792C20.7735 17.2172 20.8529 17.5065 20.8529 17.8472C20.8529 18.2719 20.7269 18.6475 20.4749 18.9742C20.2229 19.3009 19.8309 19.5575 19.2989 19.7442C18.7669 19.9355 18.0855 20.0312 17.2549 20.0312ZM17.1709 14.6062C16.6109 14.6062 16.1115 14.5035 15.6729 14.2982C15.2342 14.0882 14.8865 13.7942 14.6299 13.4162C14.3779 13.0335 14.2519 12.5879 14.2519 12.0792C14.2519 11.5705 14.3755 11.1249 14.6229 10.7422C14.8749 10.3595 15.2202 10.0632 15.6589 9.85317C16.0975 9.64317 16.6015 9.53817 17.1709 9.53817C17.7822 9.53817 18.3189 9.66184 18.7809 9.90917C19.2475 10.1565 19.5905 10.4995 19.8099 10.9382C19.8985 11.1015 19.9639 11.2789 20.0059 11.4702C20.0479 11.6615 20.0689 11.8645 20.0689 12.0792C20.0689 12.5879 19.9452 13.0335 19.6979 13.4162C19.4505 13.7942 19.1075 14.0882 18.6689 14.2982C18.2302 14.5035 17.7309 14.6062 17.1709 14.6062ZM17.1709 14.4592C17.6982 14.4592 18.1672 14.3612 18.5779 14.1652C18.9885 13.9692 19.3105 13.6939 19.5439 13.3392C19.7819 12.9799 19.9009 12.5599 19.9009 12.0792C19.9009 11.5985 19.7819 11.1785 19.5439 10.8192C19.3105 10.4599 18.9885 10.1822 18.5779 9.98617C18.1672 9.7855 17.6982 9.68517 17.1709 9.68517C16.6342 9.68517 16.1582 9.7855 15.7429 9.98617C15.3322 10.1822 15.0079 10.4599 14.7699 10.8192C14.5365 11.1785 14.4199 11.5985 14.4199 12.0792C14.4199 12.5599 14.5389 12.9799 14.7769 13.3392C15.0149 13.6939 15.3415 13.9692 15.7569 14.1652C16.1722 14.3612 16.6435 14.4592 17.1709 14.4592ZM20.0689 12.0792L19.9009 11.2812L19.6909 10.8402L19.7609 10.8122C19.7469 10.7609 19.7352 10.7095 19.7259 10.6582C19.7212 10.6022 19.7189 10.5509 19.7189 10.5042C19.7189 10.3455 19.7585 10.1822 19.8379 10.0142C19.9172 9.8415 20.0432 9.69917 20.2159 9.58717C20.3932 9.47517 20.6265 9.41917 20.9159 9.41917C20.9812 9.41917 21.0395 9.42384 21.0909 9.43317C21.1469 9.43784 21.2052 9.44717 21.2659 9.46117V9.62217C21.2005 9.60817 21.1399 9.59884 21.0839 9.59417C21.0325 9.58484 20.9742 9.58017 20.9089 9.58017C20.6382 9.58017 20.4235 9.63384 20.2649 9.74117C20.1109 9.8485 19.9989 9.97917 19.9289 10.1332C19.8635 10.2872 19.8309 10.4342 19.8309 10.5742C19.8309 10.7282 19.8495 10.8682 19.8869 10.9942C19.9289 11.1202 19.9685 11.2649 20.0059 11.4282C20.0479 11.5915 20.0689 11.8085 20.0689 12.0792Z" fill="white"/>
</svg>
