<svg width="24" height="24" viewBox="0 0 24 24" fill="none" xmlns="http://www.w3.org/2000/svg">
<path d="M7.12553 12.024L6.91553 12.612H10.5695L10.3595 12.01L8.76353 7.29196C8.6422 7.66529 8.0962 9.24263 7.12553 12.024ZM5.73953 16H4.80153L8.13353 6.56396H9.39353L12.6555 16H11.7175L10.8215 13.382H6.64953L5.73953 16ZM19.7496 15.454C19.7496 16.5273 19.4603 17.33 18.8816 17.862C18.3029 18.4033 17.5563 18.674 16.6416 18.674C15.8296 18.674 15.1389 18.5387 14.5696 18.268V17.428C15.1483 17.7173 15.8156 17.862 16.5716 17.862C17.2809 17.862 17.8456 17.666 18.2656 17.274C18.6856 16.8913 18.8956 16.2847 18.8956 15.454V14.53C18.4196 15.398 17.7103 15.832 16.7676 15.832C15.9463 15.832 15.2463 15.5287 14.6676 14.922C14.0983 14.3153 13.8136 13.494 13.8136 12.458C13.8136 11.394 14.0749 10.5167 14.5976 9.82596C15.1296 9.13529 15.8249 8.78996 16.6836 8.78996C17.7009 8.78996 18.4383 9.24263 18.8956 10.148V8.90197H19.7496V15.454ZM14.7096 12.416C14.7096 13.2653 14.9243 13.914 15.3536 14.362C15.7829 14.8007 16.2589 15.02 16.7816 15.02C17.3136 15.02 17.7989 14.8147 18.2376 14.404C18.6763 13.984 18.8956 13.3447 18.8956 12.486C18.8956 11.506 18.6856 10.7827 18.2656 10.316C17.8456 9.83996 17.3743 9.60196 16.8516 9.60196C16.1889 9.60196 15.6663 9.86329 15.2836 10.386C14.9009 10.9087 14.7096 11.5853 14.7096 12.416Z" fill="white"/>
</svg>
