<svg width="24" height="24" viewBox="0 0 24 24" fill="none" xmlns="http://www.w3.org/2000/svg">
<path d="M5.42875 17H3.90275L7.16475 7.56396H9.05475L12.2748 17H10.7348L9.99275 14.69H6.18475L5.42875 17ZM8.10275 8.65596C8.03742 8.92663 7.52875 10.5367 6.57675 13.486H9.60075C8.78875 10.9753 8.28942 9.36529 8.10275 8.65596ZM16.4769 11.008C15.9636 11.008 15.5483 11.2273 15.2309 11.666C14.9136 12.0953 14.7549 12.674 14.7549 13.402C14.7549 14.1207 14.9229 14.6713 15.2589 15.054C15.6043 15.4367 16.0149 15.628 16.4909 15.628C16.9669 15.628 17.3823 15.4413 17.7369 15.068C18.1009 14.6853 18.2829 14.116 18.2829 13.36C18.2829 12.5947 18.1103 12.0113 17.7649 11.61C17.4289 11.2087 16.9996 11.008 16.4769 11.008ZM19.6549 16.398C19.6549 17.49 19.3423 18.3113 18.7169 18.862C18.1009 19.422 17.3216 19.702 16.3789 19.702C15.4363 19.702 14.6523 19.548 14.0269 19.24V17.854C14.6243 18.246 15.3476 18.442 16.1969 18.442C17.5876 18.442 18.2829 17.756 18.2829 16.384V15.656C17.8256 16.4213 17.1676 16.804 16.3089 16.804C15.4503 16.804 14.7363 16.51 14.1669 15.922C13.5976 15.3247 13.3129 14.494 13.3129 13.43C13.3129 12.366 13.5789 11.498 14.1109 10.826C14.6429 10.1447 15.3616 9.80396 16.2669 9.80396C17.1816 9.80396 17.8536 10.2053 18.2829 11.008V9.90197H19.6549V16.398Z" fill="white"/>
</svg>
