<svg width="24" height="24" viewBox="0 0 24 24" fill="none" xmlns="http://www.w3.org/2000/svg">
<path d="M3.29266 17V16.748L3.95066 16.636C4.26799 16.58 4.51066 16.4913 4.67866 16.37C4.84666 16.2393 4.97732 16.0573 5.07066 15.824L7.91266 8.88003L7.61866 8.11003C7.81466 8.1007 7.97799 8.0447 8.10866 7.94203C8.23932 7.83003 8.33732 7.7087 8.40266 7.57803C8.46799 7.43803 8.50066 7.32136 8.50066 7.22803H8.62666L12.0427 15.502C12.2107 15.9127 12.3833 16.1927 12.5607 16.342C12.7473 16.482 12.9853 16.58 13.2747 16.636L13.8347 16.748V17H9.22866V16.748L9.98466 16.622C10.2833 16.5753 10.4887 16.5193 10.6007 16.454C10.7127 16.3887 10.7687 16.3 10.7687 16.188C10.7687 16.1133 10.75 16.0247 10.7127 15.922C10.6753 15.8193 10.6333 15.7027 10.5867 15.572L8.02466 9.10403H8.34666L5.56066 15.852C5.53266 15.9173 5.50932 15.9827 5.49066 16.048C5.47199 16.104 5.46266 16.1553 5.46266 16.202C5.46266 16.314 5.50466 16.398 5.58866 16.454C5.68199 16.51 5.81266 16.552 5.98066 16.58L6.89066 16.748V17H3.29266ZM6.40066 13.794L6.30266 13.346H10.4047V13.794H6.40066ZM17.2464 20.64C16.5464 20.64 15.9817 20.5607 15.5524 20.402C15.1231 20.2433 14.8104 20.0333 14.6144 19.772C14.4184 19.52 14.3204 19.2493 14.3204 18.96C14.3204 18.7173 14.4137 18.456 14.6004 18.176C14.7964 17.896 15.0997 17.6487 15.5104 17.434C15.9304 17.2193 16.4764 17.0887 17.1484 17.042L17.2464 17.154C16.5651 17.2473 16.0657 17.448 15.7484 17.756C15.4311 18.064 15.2724 18.3627 15.2724 18.652C15.2724 19.044 15.4591 19.3753 15.8324 19.646C16.2151 19.926 16.7611 20.066 17.4704 20.066C18.2637 20.066 18.8751 19.9167 19.3044 19.618C19.7431 19.3193 19.9624 18.9693 19.9624 18.568C19.9624 18.1013 19.7477 17.7467 19.3184 17.504C18.8984 17.2707 18.3384 17.154 17.6384 17.154C17.3864 17.154 17.1344 17.1633 16.8824 17.182C16.6397 17.2007 16.3924 17.21 16.1404 17.21C15.7111 17.21 15.3564 17.1167 15.0764 16.93C14.7964 16.7433 14.6564 16.4913 14.6564 16.174C14.6564 16.1647 14.6611 16.1507 14.6704 16.132C14.6797 16.104 14.7031 16.0807 14.7404 16.062C14.9924 15.866 15.2164 15.698 15.4124 15.558C15.6084 15.418 15.7811 15.2313 15.9304 14.998V14.942C15.5851 14.7647 15.3097 14.5173 15.1044 14.2C14.9084 13.8733 14.8104 13.5047 14.8104 13.094C14.8104 12.4593 15.0157 11.9413 15.4264 11.54C15.8464 11.1293 16.3971 10.924 17.0784 10.924C17.2371 10.924 17.4097 10.9427 17.5964 10.98C17.7831 11.008 17.9651 11.0407 18.1424 11.078C18.3197 11.1153 18.4924 11.148 18.6604 11.176C18.8284 11.204 18.9731 11.218 19.0944 11.218C19.3371 11.218 19.4584 11.1433 19.4584 10.994C19.4584 10.91 19.4397 10.8353 19.4024 10.77C19.3744 10.7047 19.3371 10.6393 19.2904 10.574C19.2531 10.5087 19.2157 10.4433 19.1784 10.378C19.1504 10.3127 19.1364 10.2427 19.1364 10.168C19.1364 9.9907 19.1877 9.8647 19.2904 9.79003C19.3931 9.70603 19.5144 9.66403 19.6544 9.66403C19.8411 9.66403 19.9857 9.7387 20.0884 9.88803C20.1911 10.028 20.2424 10.2007 20.2424 10.406C20.2424 10.8353 20.1444 11.1433 19.9484 11.33C19.7617 11.5167 19.5331 11.61 19.2624 11.61C19.0384 11.61 18.8144 11.554 18.5904 11.442V11.512C18.8611 11.7173 19.0477 11.96 19.1504 12.24C19.2624 12.5107 19.3184 12.828 19.3184 13.192C19.3184 13.5653 19.2297 13.9013 19.0524 14.2C18.8844 14.4987 18.6371 14.7367 18.3104 14.914C17.9931 15.082 17.6104 15.1753 17.1624 15.194C16.6211 15.2127 16.2291 15.306 15.9864 15.474C15.7531 15.6327 15.6364 15.8053 15.6364 15.992C15.6364 16.1133 15.6924 16.2067 15.8044 16.272C15.9164 16.3373 16.1077 16.37 16.3784 16.37C16.6211 16.37 16.8637 16.3653 17.1064 16.356C17.3491 16.3373 17.5917 16.328 17.8344 16.328C18.3851 16.328 18.8657 16.398 19.2764 16.538C19.6871 16.678 20.0044 16.8833 20.2284 17.154C20.4524 17.4247 20.5644 17.7607 20.5644 18.162C20.5644 18.5447 20.4291 18.9273 20.1584 19.31C19.8971 19.6927 19.5191 20.01 19.0244 20.262C18.5297 20.514 17.9371 20.64 17.2464 20.64ZM17.0924 14.858C17.4751 14.858 17.7737 14.6993 17.9884 14.382C18.2031 14.0647 18.3104 13.6447 18.3104 13.122C18.3104 12.59 18.1984 12.1467 17.9744 11.792C17.7597 11.4373 17.4517 11.26 17.0504 11.26C16.6957 11.26 16.4064 11.4187 16.1824 11.736C15.9584 12.0533 15.8464 12.4733 15.8464 12.996C15.8464 13.528 15.9584 13.9713 16.1824 14.326C16.4157 14.6807 16.7191 14.858 17.0924 14.858Z" fill="white"/>
</svg>
