<svg width="24" height="24" viewBox="0 0 24 24" fill="none" xmlns="http://www.w3.org/2000/svg">
<path d="M10.6142 17L10.2502 14.116H6.45616L4.94416 17H3.74016L8.96216 7.22803H10.4602L11.7762 17H10.6142ZM9.53616 8.30603H9.46616L6.97416 13.108H10.1382L9.53616 8.30603ZM19.2405 17.518C19.2405 17.8353 19.1798 18.1387 19.0585 18.428C18.9371 18.7267 18.7318 18.988 18.4425 19.212C18.1531 19.4453 17.7658 19.6273 17.2805 19.758C16.8045 19.898 16.2025 19.968 15.4745 19.968C13.5331 19.968 12.5625 19.436 12.5625 18.372C12.5625 17.9987 12.6791 17.672 12.9125 17.392C13.1551 17.1213 13.5145 16.916 13.9905 16.776L14.0185 16.664C13.6265 16.4867 13.4305 16.1927 13.4305 15.782C13.4305 15.4367 13.5471 15.1473 13.7805 14.914C14.0231 14.6807 14.3918 14.5127 14.8865 14.41L14.9005 14.312C14.2471 13.9667 13.9205 13.36 13.9205 12.492C13.9205 12.0813 13.9951 11.6987 14.1445 11.344C14.2938 10.9893 14.5038 10.686 14.7745 10.434C15.0451 10.1727 15.3671 9.97203 15.7405 9.83203C16.1138 9.6827 16.5245 9.60803 16.9725 9.60803C17.5045 9.60803 17.9525 9.7107 18.3165 9.91603L18.3445 9.74803C18.3911 9.4587 18.4938 9.23003 18.6525 9.06203C18.8111 8.8847 19.0398 8.79603 19.3385 8.79603H20.3605L20.1785 9.76203H18.9325L18.8205 10.336C19.1191 10.7093 19.2685 11.1713 19.2685 11.722C19.2685 12.1327 19.1891 12.5107 19.0305 12.856C18.8811 13.2013 18.6665 13.5047 18.3865 13.766C18.1158 14.018 17.7891 14.2187 17.4065 14.368C17.0238 14.508 16.6038 14.578 16.1465 14.578C16.0438 14.578 15.9505 14.578 15.8665 14.578C15.7918 14.5687 15.7031 14.5547 15.6005 14.536C15.2645 14.6013 14.9891 14.6993 14.7745 14.83C14.5598 14.9513 14.4525 15.1333 14.4525 15.376C14.4525 15.7213 14.7698 15.894 15.4045 15.894H17.0145C17.8171 15.894 18.3865 16.034 18.7225 16.314C19.0678 16.594 19.2405 16.9953 19.2405 17.518ZM18.1205 17.742C18.1205 17.49 18.0365 17.2893 17.8685 17.14C17.7098 16.9907 17.4065 16.916 16.9585 16.916H14.4805C13.9205 17.1587 13.6405 17.5367 13.6405 18.05C13.6405 18.1993 13.6638 18.3347 13.7105 18.456C13.7665 18.5867 13.8505 18.6987 13.9625 18.792C14.0838 18.8853 14.2378 18.9553 14.4245 19.002C14.6205 19.058 14.8631 19.086 15.1525 19.086H15.8105C16.6225 19.086 17.2105 18.96 17.5745 18.708C17.9385 18.4653 18.1205 18.1433 18.1205 17.742ZM16.3145 13.724C16.8278 13.724 17.2198 13.6027 17.4905 13.36C17.7705 13.1173 17.9525 12.786 18.0365 12.366C18.0831 12.114 18.1158 11.9413 18.1345 11.848C18.1531 11.7547 18.1625 11.666 18.1625 11.582C18.1625 11.246 18.0551 10.98 17.8405 10.784C17.6258 10.5787 17.2945 10.476 16.8465 10.476C16.3331 10.476 15.9365 10.602 15.6565 10.854C15.3858 11.0967 15.2085 11.428 15.1245 11.848C15.0778 12.1 15.0451 12.2727 15.0265 12.366C15.0078 12.4593 14.9985 12.548 14.9985 12.632C14.9985 12.968 15.1058 13.234 15.3205 13.43C15.5351 13.626 15.8665 13.724 16.3145 13.724Z" fill="white"/>
</svg>
