<svg width="24" height="24" viewBox="0 0 24 24" fill="none" xmlns="http://www.w3.org/2000/svg">
<path d="M9.29347 17L8.94347 14.214H5.49947L4.21147 17H2.97947L7.59947 7.22803H9.13947L10.4975 17H9.29347ZM8.22947 8.40403H8.10347L5.93347 13.192H8.83147L8.22947 8.40403ZM14.468 19.968C13.3107 19.968 12.466 19.6367 11.934 18.974L12.69 18.246C12.8767 18.4887 13.1193 18.6753 13.418 18.806C13.7167 18.9367 14.09 19.002 14.538 19.002C15.2007 19.002 15.728 18.834 16.12 18.498C16.512 18.162 16.7733 17.5927 16.904 16.79L17.198 15.054H17.142C16.8713 15.6327 16.5307 16.09 16.12 16.426C15.7187 16.762 15.2007 16.93 14.566 16.93C13.8193 16.93 13.2547 16.6967 12.872 16.23C12.4893 15.754 12.298 15.0727 12.298 14.186C12.298 13.7193 12.3587 13.22 12.48 12.688C12.6013 12.1467 12.7973 11.652 13.068 11.204C13.3387 10.7467 13.6887 10.3687 14.118 10.07C14.5473 9.76203 15.0747 9.60803 15.7 9.60803C16.232 9.60803 16.6753 9.72936 17.03 9.97203C17.394 10.2053 17.6553 10.56 17.814 11.036H17.856L18.066 9.77603H19.158L17.954 17C17.7673 18.064 17.366 18.8247 16.75 19.282C16.134 19.7393 15.3733 19.968 14.468 19.968ZM14.944 15.964C15.2427 15.964 15.5367 15.9033 15.826 15.782C16.1153 15.6607 16.3907 15.4553 16.652 15.166C16.7827 15.0167 16.932 14.8067 17.1 14.536C17.268 14.256 17.3847 13.92 17.45 13.528L17.674 12.156C17.758 11.652 17.6367 11.2647 17.31 10.994C16.9927 10.714 16.5633 10.574 16.022 10.574C15.3407 10.574 14.7947 10.7793 14.384 11.19C13.9827 11.6007 13.726 12.142 13.614 12.814L13.488 13.57C13.4693 13.7007 13.4507 13.8127 13.432 13.906C13.4227 13.99 13.418 14.0833 13.418 14.186C13.418 14.7647 13.544 15.208 13.796 15.516C14.0573 15.8147 14.44 15.964 14.944 15.964Z" fill="white"/>
</svg>
