<svg width="24" height="24" viewBox="0 0 24 24" fill="none" xmlns="http://www.w3.org/2000/svg">
<path d="M3.61755 16.356H4.35955L7.53755 7.22803H8.86756L12.0316 16.356H12.7736V17H9.46955V16.356H10.7296L9.86155 13.822H6.05355L5.18555 16.356H6.44555V17H3.61755V16.356ZM6.24955 13.15H9.65156L8.01355 8.25003H7.92955L6.24955 13.15ZM16.6592 19.968C16.0992 19.968 15.6232 19.926 15.2312 19.842C14.8392 19.758 14.5219 19.6413 14.2792 19.492C14.0365 19.3427 13.8592 19.1607 13.7472 18.946C13.6445 18.7313 13.5932 18.4933 13.5932 18.232C13.5932 18.0453 13.6352 17.8727 13.7192 17.714C13.8032 17.5553 13.9152 17.4153 14.0552 17.294C14.1952 17.1727 14.3539 17.07 14.5312 16.986C14.7085 16.8927 14.8905 16.8227 15.0772 16.776V16.72C14.4892 16.5147 14.1952 16.118 14.1952 15.53C14.1952 15.1567 14.3119 14.8627 14.5452 14.648C14.7879 14.4333 15.0679 14.284 15.3852 14.2V14.13C14.9465 13.9433 14.5965 13.668 14.3352 13.304C14.0832 12.94 13.9572 12.5013 13.9572 11.988C13.9572 11.624 14.0225 11.2973 14.1532 11.008C14.2932 10.7093 14.4845 10.4573 14.7272 10.252C14.9792 10.0467 15.2732 9.88803 15.6092 9.77603C15.9452 9.66403 16.3139 9.60803 16.7152 9.60803C17.1539 9.60803 17.5272 9.6687 17.8352 9.79003C18.1525 9.90203 18.4185 10.042 18.6332 10.21C18.6425 9.6687 18.7452 9.30003 18.9412 9.10403C19.1465 8.90803 19.3845 8.81003 19.6552 8.81003C19.8605 8.81003 20.0285 8.8707 20.1592 8.99203C20.2992 9.11336 20.3692 9.2767 20.3692 9.48203C20.3692 9.67803 20.3039 9.84136 20.1732 9.97203C20.0519 10.0933 19.8792 10.154 19.6552 10.154C19.3939 10.154 19.1932 10.0607 19.0532 9.87403H19.0112V10.574C19.1139 10.714 19.2212 10.896 19.3332 11.12C19.4452 11.344 19.5012 11.6333 19.5012 11.988C19.5012 12.352 19.4312 12.6833 19.2912 12.982C19.1512 13.2807 18.9552 13.5327 18.7032 13.738C18.4605 13.9433 18.1665 14.102 17.8212 14.214C17.4852 14.326 17.1165 14.382 16.7152 14.382C16.4539 14.382 16.2065 14.354 15.9732 14.298C15.7305 14.3447 15.5112 14.4473 15.3152 14.606C15.1192 14.7553 15.0212 14.9373 15.0212 15.152C15.0212 15.3853 15.1099 15.5487 15.2872 15.642C15.4645 15.7353 15.7632 15.782 16.1832 15.782H17.8352C18.6565 15.782 19.2632 15.95 19.6552 16.286C20.0565 16.6127 20.2572 17.084 20.2572 17.7C20.2572 18.3907 19.9539 18.9413 19.3472 19.352C18.7405 19.7627 17.8445 19.968 16.6592 19.968ZM16.7292 13.78C17.2425 13.78 17.6252 13.6447 17.8772 13.374C18.1385 13.1033 18.2692 12.7347 18.2692 12.268V11.722C18.2692 11.2553 18.1385 10.8867 17.8772 10.616C17.6252 10.3453 17.2425 10.21 16.7292 10.21C16.2159 10.21 15.8285 10.3453 15.5672 10.616C15.3152 10.8867 15.1892 11.2553 15.1892 11.722V12.268C15.1892 12.7347 15.3152 13.1033 15.5672 13.374C15.8285 13.6447 16.2159 13.78 16.7292 13.78ZM14.6152 18.162C14.6152 18.5353 14.7739 18.8153 15.0912 19.002C15.4179 19.1887 15.8519 19.282 16.3932 19.282H17.0512C17.7512 19.282 18.2972 19.1653 18.6892 18.932C19.0905 18.6987 19.2912 18.386 19.2912 17.994C19.2912 17.6393 19.1699 17.3687 18.9272 17.182C18.6845 17.0047 18.2599 16.916 17.6532 16.916H15.4692C15.1705 17.0467 14.9512 17.2193 14.8112 17.434C14.6805 17.6487 14.6152 17.8913 14.6152 18.162Z" fill="white"/>
</svg>
