<svg width="24" height="24" viewBox="0 0 24 24" fill="none" xmlns="http://www.w3.org/2000/svg">
<path d="M3.44633 16.244H4.17433L7.28233 7.22803H8.87833L11.9863 16.244H12.7143V17H9.06033V16.244H10.2643L9.48033 13.906H5.93833L5.15433 16.244H6.35833V17H3.44633V16.244ZM6.16233 13.108H9.25633L7.74433 8.54403H7.67433L6.16233 13.108ZM16.6957 19.968C16.0797 19.968 15.5617 19.926 15.1417 19.842C14.7217 19.7673 14.3857 19.6553 14.1337 19.506C13.8817 19.366 13.6997 19.1887 13.5877 18.974C13.4757 18.7687 13.4197 18.54 13.4197 18.288C13.4197 18.1013 13.4617 17.9287 13.5457 17.77C13.6297 17.6207 13.7417 17.4853 13.8817 17.364C14.0217 17.252 14.185 17.154 14.3717 17.07C14.5584 16.986 14.7497 16.9207 14.9457 16.874V16.818C14.6377 16.734 14.3997 16.5847 14.2317 16.37C14.0637 16.1553 13.9797 15.8847 13.9797 15.558C13.9797 15.1567 14.1057 14.844 14.3577 14.62C14.619 14.396 14.927 14.2373 15.2817 14.144V14.088C14.8337 13.9013 14.479 13.6307 14.2177 13.276C13.9564 12.912 13.8257 12.4687 13.8257 11.946C13.8257 11.5727 13.8957 11.2367 14.0357 10.938C14.185 10.6393 14.3857 10.3873 14.6377 10.182C14.899 9.9767 15.207 9.8227 15.5617 9.72003C15.9164 9.60803 16.3084 9.55203 16.7377 9.55203C17.1577 9.55203 17.5124 9.59403 17.8017 9.67803C18.091 9.76203 18.357 9.88336 18.5997 10.042C18.6184 9.51003 18.735 9.1367 18.9497 8.92203C19.1644 8.69803 19.4397 8.58603 19.7757 8.58603C20.009 8.58603 20.2004 8.65603 20.3497 8.79603C20.5084 8.9267 20.5877 9.11336 20.5877 9.35603C20.5877 9.58003 20.513 9.7667 20.3637 9.91603C20.2237 10.056 20.0277 10.126 19.7757 10.126C19.4957 10.126 19.267 10.0233 19.0897 9.81803H19.0337V10.392C19.2017 10.56 19.351 10.77 19.4817 11.022C19.6124 11.2647 19.6777 11.5727 19.6777 11.946C19.6777 12.3193 19.603 12.6553 19.4537 12.954C19.3137 13.2527 19.113 13.5047 18.8517 13.71C18.5904 13.9153 18.2777 14.074 17.9137 14.186C17.559 14.298 17.167 14.354 16.7377 14.354C16.579 14.354 16.425 14.3447 16.2757 14.326C16.1357 14.3073 15.9957 14.284 15.8557 14.256C15.6597 14.3213 15.4917 14.4193 15.3517 14.55C15.2117 14.6807 15.1417 14.8393 15.1417 15.026C15.1417 15.2407 15.221 15.3947 15.3797 15.488C15.5477 15.5813 15.823 15.628 16.2057 15.628H17.8437C18.749 15.628 19.407 15.8053 19.8177 16.16C20.2284 16.5147 20.4337 17 20.4337 17.616C20.4337 18.344 20.121 18.918 19.4957 19.338C18.8797 19.758 17.9464 19.968 16.6957 19.968ZM16.7517 13.598C17.1997 13.598 17.5357 13.4767 17.7597 13.234C17.9837 12.9913 18.0957 12.6413 18.0957 12.184V11.722C18.0957 11.2647 17.9837 10.9147 17.7597 10.672C17.5357 10.4293 17.1997 10.308 16.7517 10.308C16.3037 10.308 15.9677 10.4293 15.7437 10.672C15.5197 10.9147 15.4077 11.2647 15.4077 11.722V12.184C15.4077 12.6413 15.5197 12.9913 15.7437 13.234C15.9677 13.4767 16.3037 13.598 16.7517 13.598ZM14.7357 18.162C14.7357 18.5073 14.8804 18.764 15.1697 18.932C15.459 19.1 15.8697 19.184 16.4017 19.184H17.1577C17.7924 19.184 18.2777 19.0813 18.6137 18.876C18.959 18.68 19.1317 18.4 19.1317 18.036C19.1317 17.7 19.015 17.4573 18.7817 17.308C18.5577 17.1587 18.189 17.084 17.6757 17.084H15.4077C14.9597 17.3173 14.7357 17.6767 14.7357 18.162Z" fill="white"/>
</svg>
