<svg width="24" height="24" viewBox="0 0 24 24" fill="none" xmlns="http://www.w3.org/2000/svg">
<path d="M9.72747 17L9.23747 13.836H5.27547L3.72147 17H3.17547L7.99147 7.22803H8.67747L10.2455 17H9.72747ZM8.28547 7.77403H8.21547L5.47147 13.388H9.16747L8.28547 7.77403ZM14.412 19.968C13.8707 19.968 13.4133 19.884 13.04 19.716C12.676 19.548 12.3727 19.3147 12.13 19.016L12.48 18.694C12.676 18.9553 12.928 19.1607 13.236 19.31C13.5533 19.4593 13.95 19.534 14.426 19.534C15.1727 19.534 15.7793 19.3427 16.246 18.96C16.7127 18.5773 17.016 17.952 17.156 17.084L17.45 15.306H17.408C17.1373 15.8473 16.7967 16.286 16.386 16.622C15.9847 16.9487 15.4667 17.112 14.832 17.112C14.44 17.112 14.0947 17.0467 13.796 16.916C13.4973 16.776 13.2453 16.5847 13.04 16.342C12.844 16.0993 12.6947 15.81 12.592 15.474C12.4893 15.1287 12.438 14.7507 12.438 14.34C12.438 13.7053 12.5127 13.1033 12.662 12.534C12.8207 11.9553 13.0447 11.4513 13.334 11.022C13.6233 10.5833 13.978 10.238 14.398 9.98603C14.818 9.73403 15.2987 9.60803 15.84 9.60803C16.456 9.60803 16.9553 9.74336 17.338 10.014C17.73 10.2753 17.996 10.6253 18.136 11.064H18.178L18.388 9.77603H18.864L17.618 17.196C17.4593 18.1573 17.1047 18.8573 16.554 19.296C16.0033 19.744 15.2893 19.968 14.412 19.968ZM14.916 16.678C15.224 16.678 15.5087 16.6313 15.77 16.538C16.0407 16.4353 16.2973 16.272 16.54 16.048C16.7827 15.8333 17.0113 15.5533 17.226 15.208C17.45 14.8533 17.5993 14.452 17.674 14.004L18.01 12.058C18.0473 11.8153 18.0333 11.5727 17.968 11.33C17.912 11.0873 17.8 10.8727 17.632 10.686C17.464 10.49 17.2353 10.336 16.946 10.224C16.6567 10.1027 16.3113 10.042 15.91 10.042C15.5273 10.042 15.1773 10.1167 14.86 10.266C14.5427 10.4153 14.2627 10.6207 14.02 10.882C13.7773 11.134 13.5767 11.4373 13.418 11.792C13.2593 12.1467 13.1473 12.534 13.082 12.954L12.97 13.654C12.9327 13.8687 12.914 14.0973 12.914 14.34C12.914 14.6667 12.9513 14.9747 13.026 15.264C13.11 15.544 13.2313 15.7913 13.39 16.006C13.5487 16.2113 13.754 16.3747 14.006 16.496C14.258 16.6173 14.5613 16.678 14.916 16.678Z" fill="white"/>
</svg>
