<svg width="24" height="24" viewBox="0 0 24 24" fill="none" xmlns="http://www.w3.org/2000/svg">
<path d="M10.5513 13.724H6.07133L4.88133 17H4.55933L8.10133 7.22803H8.52133L12.0633 17H11.7413L10.5513 13.724ZM8.28333 7.55003L6.16933 13.458H10.4533L8.32533 7.55003H8.28333ZM19.5199 17.91C19.5199 18.6193 19.2305 19.1373 18.6519 19.464C18.0732 19.8 17.2472 19.968 16.1739 19.968C15.1285 19.968 14.3725 19.8 13.9059 19.464C13.4392 19.1373 13.2059 18.6987 13.2059 18.148C13.2059 17.728 13.3272 17.378 13.5699 17.098C13.8125 16.818 14.1532 16.608 14.5919 16.468V16.426C14.3305 16.3513 14.1392 16.2347 14.0179 16.076C13.9059 15.908 13.8499 15.712 13.8499 15.488C13.8499 15.1613 13.9712 14.9047 14.2139 14.718C14.4565 14.522 14.7319 14.3773 15.0399 14.284V14.242C14.6385 14.0647 14.3259 13.7987 14.1019 13.444C13.8779 13.0893 13.7659 12.646 13.7659 12.114C13.7659 11.3953 13.9805 10.8213 14.4099 10.392C14.8392 9.9627 15.4319 9.74803 16.1879 9.74803C16.5052 9.74803 16.7899 9.79003 17.0419 9.87403C17.3032 9.9487 17.5365 10.0607 17.7419 10.21V9.52403C17.7419 9.27203 17.8679 9.14603 18.1199 9.14603H19.5619V9.41203H18.0079V10.448C18.4092 10.868 18.6099 11.4233 18.6099 12.114C18.6099 12.4687 18.5492 12.7953 18.4279 13.094C18.3159 13.3833 18.1525 13.6307 17.9379 13.836C17.7232 14.0413 17.4665 14.2 17.1679 14.312C16.8785 14.424 16.5519 14.48 16.1879 14.48C16.0479 14.48 15.9172 14.4707 15.7959 14.452C15.6745 14.4333 15.5439 14.41 15.4039 14.382C14.5545 14.606 14.1299 14.97 14.1299 15.474C14.1299 15.5767 14.1439 15.6747 14.1719 15.768C14.2092 15.8613 14.2745 15.9453 14.3679 16.02C14.4612 16.0853 14.5872 16.1413 14.7459 16.188C14.9045 16.2347 15.1052 16.258 15.3479 16.258H17.2379C18.0499 16.258 18.6332 16.4073 18.9879 16.706C19.3425 17.0047 19.5199 17.406 19.5199 17.91ZM16.1879 14.214C16.8599 14.214 17.3732 14.0413 17.7279 13.696C18.0919 13.3413 18.2739 12.9027 18.2739 12.38V11.848C18.2739 11.3253 18.0919 10.8913 17.7279 10.546C17.3732 10.1913 16.8599 10.014 16.1879 10.014C15.5159 10.014 14.9979 10.1913 14.6339 10.546C14.2792 10.8913 14.1019 11.3253 14.1019 11.848V12.38C14.1019 12.6413 14.1485 12.884 14.2419 13.108C14.3352 13.332 14.4705 13.528 14.6479 13.696C14.8345 13.8547 15.0539 13.9807 15.3059 14.074C15.5672 14.1673 15.8612 14.214 16.1879 14.214ZM19.2119 17.91C19.2119 17.4807 19.0625 17.1447 18.7639 16.902C18.4745 16.6593 17.9519 16.538 17.1959 16.538H15.0259C14.5779 16.65 14.2139 16.8367 13.9339 17.098C13.6539 17.3593 13.5139 17.714 13.5139 18.162C13.5139 18.6287 13.7192 19.002 14.1299 19.282C14.5499 19.562 15.1192 19.702 15.8379 19.702H16.5239C16.9159 19.702 17.2752 19.6647 17.6019 19.59C17.9379 19.5247 18.2225 19.4173 18.4559 19.268C18.6985 19.128 18.8852 18.9413 19.0159 18.708C19.1465 18.484 19.2119 18.218 19.2119 17.91Z" fill="white"/>
</svg>
