<svg width="24" height="24" viewBox="0 0 24 24" fill="none" xmlns="http://www.w3.org/2000/svg">
<path d="M3.60437 16.426H4.33238L9.66638 7.22803H10.8424L11.5284 16.426H12.2564L12.1164 17H9.16238L9.30238 16.426H10.3664L10.1844 13.766H6.69838L5.21438 16.426H6.29237L6.15238 17H3.46437L3.60437 16.426ZM7.02038 13.164H10.1564L9.83438 8.34803H9.75038L7.02038 13.164ZM15.0241 19.968C14.0534 19.968 13.3441 19.8233 12.8961 19.534C12.4388 19.2447 12.2101 18.8947 12.2101 18.484C12.2101 18.232 12.2801 18.008 12.4201 17.812C12.5601 17.616 12.7421 17.4387 12.9661 17.28C13.1901 17.1307 13.4374 17.0047 13.7081 16.902C13.9788 16.7993 14.2494 16.7107 14.5201 16.636L14.5481 16.552C14.2681 16.4307 14.0441 16.2907 13.8761 16.132C13.7174 15.964 13.6381 15.7493 13.6381 15.488C13.6381 15.292 13.6801 15.1193 13.7641 14.97C13.8574 14.8113 13.9741 14.6807 14.1141 14.578C14.2541 14.466 14.4081 14.3773 14.5761 14.312C14.7441 14.2373 14.9121 14.1813 15.0801 14.144L15.0941 14.074C14.8421 13.9153 14.6461 13.7053 14.5061 13.444C14.3754 13.1733 14.3101 12.8607 14.3101 12.506C14.3101 12.0953 14.3894 11.7127 14.5481 11.358C14.7068 11.0033 14.9214 10.7 15.1921 10.448C15.4628 10.1867 15.7801 9.98136 16.1441 9.83203C16.5081 9.6827 16.8954 9.60803 17.3061 9.60803C17.5208 9.60803 17.7121 9.63603 17.8801 9.69203C18.0574 9.7387 18.2208 9.8087 18.3701 9.90203C18.4728 9.4727 18.6081 9.14136 18.7761 8.90803C18.9441 8.6747 19.1821 8.55803 19.4901 8.55803C19.6954 8.55803 19.8541 8.60936 19.9661 8.71203C20.0781 8.8147 20.1341 8.95003 20.1341 9.11803C20.1341 9.3047 20.0688 9.46336 19.9381 9.59403C19.8074 9.7247 19.6488 9.79003 19.4621 9.79003C19.3034 9.79003 19.1821 9.75736 19.0981 9.69203C19.0234 9.6267 18.9674 9.53336 18.9301 9.41203H18.8741L18.6501 10.126C18.9768 10.4527 19.1401 10.896 19.1401 11.456C19.1401 11.8667 19.0608 12.2493 18.9021 12.604C18.7434 12.9493 18.5288 13.2527 18.2581 13.514C17.9874 13.7753 17.6701 13.9807 17.3061 14.13C16.9421 14.27 16.5594 14.34 16.1581 14.34C15.9621 14.34 15.7894 14.3213 15.6401 14.284C15.5188 14.3027 15.3928 14.3307 15.2621 14.368C15.1408 14.4053 15.0241 14.4567 14.9121 14.522C14.8094 14.5873 14.7254 14.6667 14.6601 14.76C14.5948 14.844 14.5621 14.9467 14.5621 15.068C14.5621 15.2267 14.6321 15.3433 14.7721 15.418C14.9214 15.4833 15.1314 15.5673 15.4021 15.67L16.8021 16.174C17.3248 16.37 17.7354 16.594 18.0341 16.846C18.3421 17.0887 18.4961 17.4387 18.4961 17.896C18.4961 18.26 18.3981 18.5727 18.2021 18.834C18.0061 19.0953 17.7448 19.31 17.4181 19.478C17.0914 19.646 16.7181 19.7673 16.2981 19.842C15.8874 19.926 15.4628 19.968 15.0241 19.968ZM16.2841 13.836C16.6761 13.836 16.9981 13.7007 17.2501 13.43C17.5114 13.1593 17.7074 12.772 17.8381 12.268C17.9314 11.8947 17.9874 11.6333 18.0061 11.484C18.0341 11.3253 18.0481 11.204 18.0481 11.12C18.0481 10.812 17.9828 10.5693 17.8521 10.392C17.7214 10.2053 17.4928 10.112 17.1661 10.112C16.7741 10.112 16.4474 10.2473 16.1861 10.518C15.9341 10.7887 15.7428 11.176 15.6121 11.68C15.5654 11.8667 15.5281 12.0253 15.5001 12.156C15.4721 12.2867 15.4488 12.394 15.4301 12.478C15.4208 12.562 15.4114 12.632 15.4021 12.688C15.4021 12.744 15.4021 12.7907 15.4021 12.828C15.4021 13.1453 15.4674 13.3927 15.5981 13.57C15.7288 13.7473 15.9574 13.836 16.2841 13.836ZM15.2061 19.534C15.4488 19.534 15.7008 19.5107 15.9621 19.464C16.2234 19.4173 16.4568 19.3427 16.6621 19.24C16.8768 19.1373 17.0494 18.9973 17.1801 18.82C17.3201 18.6427 17.3901 18.428 17.3901 18.176C17.3901 17.896 17.3014 17.686 17.1241 17.546C16.9561 17.4153 16.7134 17.294 16.3961 17.182L15.0941 16.72C14.8608 16.7947 14.6368 16.8833 14.4221 16.986C14.2074 17.0793 14.0161 17.1913 13.8481 17.322C13.6801 17.462 13.5448 17.616 13.4421 17.784C13.3488 17.952 13.3021 18.1387 13.3021 18.344C13.3021 18.6893 13.4561 18.974 13.7641 19.198C14.0721 19.422 14.5528 19.534 15.2061 19.534Z" fill="white"/>
</svg>
