<svg width="24" height="24" viewBox="0 0 24 24" fill="none" xmlns="http://www.w3.org/2000/svg">
<path d="M2.79221 16.16H3.45021L8.54621 7.22803H10.3802L11.0942 16.16H11.7522L11.5422 17H7.81821L8.01421 16.16H8.99421L8.88221 13.948H5.84421L4.64021 16.16H5.62021L5.41021 17H2.58221L2.79221 16.16ZM6.29221 13.08H8.85421L8.70021 8.75403H8.57421L6.29221 13.08ZM14.6234 19.968C14.0354 19.968 13.5408 19.926 13.1394 19.842C12.7474 19.7673 12.4301 19.6647 12.1874 19.534C11.9354 19.4033 11.7581 19.2493 11.6554 19.072C11.5528 18.904 11.5014 18.722 11.5014 18.526C11.5014 18.3207 11.5574 18.134 11.6694 17.966C11.7814 17.8073 11.9308 17.6627 12.1174 17.532C12.3041 17.4107 12.5188 17.3033 12.7614 17.21C13.0134 17.1167 13.2794 17.0327 13.5594 16.958L13.5874 16.804C13.3448 16.6733 13.1721 16.524 13.0694 16.356C12.9761 16.188 12.9294 15.9967 12.9294 15.782C12.9294 15.5673 12.9714 15.376 13.0554 15.208C13.1394 15.04 13.2514 14.8953 13.3914 14.774C13.5314 14.6433 13.6948 14.536 13.8814 14.452C14.0681 14.3587 14.2641 14.284 14.4694 14.228L14.4974 14.074C14.2268 13.9247 14.0028 13.7147 13.8254 13.444C13.6481 13.1733 13.5594 12.8373 13.5594 12.436C13.5594 11.9787 13.6528 11.568 13.8394 11.204C14.0261 10.84 14.2781 10.532 14.5954 10.28C14.9221 10.028 15.3001 9.8367 15.7294 9.70603C16.1681 9.56603 16.6301 9.49603 17.1154 9.49603C17.5541 9.49603 17.9461 9.5707 18.2914 9.72003C18.4221 9.27203 18.6088 8.9127 18.8514 8.64203C19.1034 8.37136 19.4068 8.23603 19.7614 8.23603C20.0321 8.23603 20.2468 8.30136 20.4054 8.43203C20.5641 8.5627 20.6434 8.7447 20.6434 8.97803C20.6434 9.23936 20.5641 9.4587 20.4054 9.63603C20.2468 9.81336 20.0508 9.90203 19.8174 9.90203C19.4254 9.90203 19.1781 9.6967 19.0754 9.28603H18.9774L18.7254 9.95803C18.9401 10.1353 19.1081 10.3453 19.2294 10.588C19.3601 10.8213 19.4254 11.1013 19.4254 11.428C19.4254 11.8853 19.3321 12.296 19.1454 12.66C18.9588 13.0147 18.7021 13.318 18.3754 13.57C18.0581 13.822 17.6848 14.018 17.2554 14.158C16.8261 14.2887 16.3688 14.354 15.8834 14.354C15.7528 14.354 15.6314 14.3447 15.5194 14.326C15.4168 14.3073 15.3141 14.2887 15.2114 14.27C14.9968 14.3167 14.8288 14.382 14.7074 14.466C14.5861 14.5407 14.5254 14.648 14.5254 14.788C14.5254 14.9373 14.5814 15.0493 14.6934 15.124C14.8148 15.1893 14.9688 15.2547 15.1554 15.32L16.3314 15.698C16.7514 15.838 17.1061 15.9733 17.3954 16.104C17.6941 16.2347 17.9368 16.3747 18.1234 16.524C18.3101 16.6733 18.4454 16.8413 18.5294 17.028C18.6134 17.2147 18.6554 17.4293 18.6554 17.672C18.6554 18.092 18.5481 18.4467 18.3334 18.736C18.1188 19.0347 17.8248 19.2727 17.4514 19.45C17.0874 19.6367 16.6581 19.7673 16.1634 19.842C15.6781 19.926 15.1648 19.968 14.6234 19.968ZM16.0794 13.668C16.2568 13.668 16.4061 13.6307 16.5274 13.556C16.6581 13.4813 16.7654 13.3833 16.8494 13.262C16.9428 13.1313 17.0174 12.9867 17.0734 12.828C17.1388 12.66 17.1948 12.4873 17.2414 12.31C17.3441 11.918 17.4188 11.6007 17.4654 11.358C17.5214 11.1153 17.5494 10.938 17.5494 10.826C17.5494 10.63 17.4981 10.476 17.3954 10.364C17.2928 10.2427 17.1294 10.182 16.9054 10.182C16.7281 10.182 16.5741 10.2193 16.4434 10.294C16.3221 10.3687 16.2148 10.4713 16.1214 10.602C16.0374 10.7233 15.9628 10.868 15.8974 11.036C15.8414 11.1947 15.7901 11.3627 15.7434 11.54C15.6408 11.932 15.5614 12.2493 15.5054 12.492C15.4588 12.7347 15.4354 12.912 15.4354 13.024C15.4354 13.22 15.4868 13.3787 15.5894 13.5C15.6921 13.612 15.8554 13.668 16.0794 13.668ZM14.8334 19.394C15.1041 19.394 15.3608 19.3753 15.6034 19.338C15.8461 19.3007 16.0561 19.24 16.2334 19.156C16.4108 19.072 16.5508 18.9647 16.6534 18.834C16.7561 18.7127 16.8074 18.5633 16.8074 18.386C16.8074 18.1433 16.7281 17.9753 16.5694 17.882C16.4108 17.798 16.1774 17.7047 15.8694 17.602L14.1754 17.07C13.8114 17.2287 13.5034 17.4107 13.2514 17.616C12.9994 17.8213 12.8734 18.0687 12.8734 18.358C12.8734 18.6753 13.0181 18.9273 13.3074 19.114C13.6061 19.3007 14.1148 19.394 14.8334 19.394Z" fill="white"/>
</svg>
