<svg width="24" height="24" viewBox="0 0 24 24" fill="none" xmlns="http://www.w3.org/2000/svg">
<path d="M7.17482 16.9999V16.5729H7.72782L9.01582 7.17188H9.62482L10.8988 16.5729H11.5848V16.9999H9.60382V16.5729H10.2268L9.22582 8.57187H9.21882L8.17582 16.5729H8.72182V16.9999H7.17482ZM8.28082 14.5919V14.1859H10.1218V14.5919H8.28082ZM13.8066 20.4859C13.4052 20.4859 13.0692 20.3949 12.7986 20.2129C12.5326 20.0356 12.3319 19.8046 12.1966 19.5199C12.0659 19.2352 12.0006 18.9342 12.0006 18.6169C12.0006 18.3369 12.0332 18.0966 12.0986 17.8959C12.1639 17.6999 12.2456 17.5342 12.3436 17.3989C12.4416 17.2682 12.5419 17.1632 12.6446 17.0839C12.7519 17.0092 12.8429 16.9556 12.9176 16.9229C12.8709 16.9136 12.8056 16.8902 12.7216 16.8529C12.6376 16.8109 12.5512 16.7502 12.4626 16.6709C12.3739 16.5869 12.2969 16.4796 12.2316 16.3489C12.1709 16.2136 12.1406 16.0526 12.1406 15.8659C12.1406 15.6746 12.1779 15.5136 12.2526 15.3829C12.3272 15.2476 12.4159 15.1449 12.5186 15.0749C12.6259 15.0002 12.7216 14.9606 12.8056 14.9559C12.8196 14.9559 12.8382 14.9559 12.8616 14.9559C12.8849 14.9512 12.8989 14.9512 12.9036 14.9559C12.8429 14.8999 12.7752 14.8089 12.7006 14.6829C12.6306 14.5569 12.5629 14.3959 12.4976 14.1999C12.4369 13.9992 12.3879 13.7659 12.3506 13.4999C12.3132 13.2292 12.2946 12.9236 12.2946 12.5829C12.2946 12.0276 12.3342 11.5609 12.4136 11.1829C12.4929 10.8049 12.6002 10.5016 12.7356 10.2729C12.8756 10.0442 13.0389 9.87855 13.2256 9.77588C13.4122 9.67321 13.6129 9.62187 13.8276 9.62187C14.1636 9.62187 14.4366 9.73855 14.6466 9.97188C14.8612 10.2006 15.0199 10.5272 15.1226 10.9519C15.2252 11.3719 15.2766 11.8689 15.2766 12.4429C15.2766 12.9562 15.2392 13.3996 15.1646 13.7729C15.0946 14.1416 14.9942 14.4472 14.8636 14.6899C14.7329 14.9279 14.5766 15.1029 14.3946 15.2149C14.2126 15.3269 14.0119 15.3829 13.7926 15.3829C13.6012 15.3829 13.4542 15.3572 13.3516 15.3059C13.2536 15.2546 13.1976 15.2266 13.1836 15.2219C13.1789 15.2172 13.1719 15.2149 13.1626 15.2149C13.1532 15.2102 13.1416 15.2079 13.1276 15.2079C13.0296 15.2079 12.9246 15.2616 12.8126 15.3689C12.7052 15.4762 12.6516 15.6162 12.6516 15.7889C12.6516 16.0222 12.7379 16.2019 12.9106 16.3279C13.0832 16.4539 13.4029 16.5496 13.8696 16.6149C14.4856 16.6849 14.9336 16.8739 15.2136 17.1819C15.4936 17.4899 15.6336 17.9309 15.6336 18.5049C15.6336 18.8362 15.5846 19.1256 15.4866 19.3729C15.3886 19.6202 15.2532 19.8256 15.0806 19.9889C14.9126 20.1569 14.7189 20.2806 14.4996 20.3599C14.2802 20.4439 14.0492 20.4859 13.8066 20.4859ZM13.8066 20.0869C14.1706 20.0869 14.4646 19.9539 14.6886 19.6879C14.9126 19.4219 15.0246 19.0859 15.0246 18.6799C15.0246 18.1806 14.9499 17.8236 14.8006 17.6089C14.6512 17.3942 14.3969 17.2519 14.0376 17.1819C13.9396 17.1632 13.8462 17.1422 13.7576 17.1189C13.6689 17.1002 13.5896 17.0816 13.5196 17.0629C13.4542 17.0489 13.4052 17.0396 13.3726 17.0349C13.1906 17.1329 13.0436 17.2612 12.9316 17.4199C12.8196 17.5832 12.7356 17.7606 12.6796 17.9519C12.6282 18.1479 12.6026 18.3532 12.6026 18.5679C12.6026 18.8106 12.6446 19.0486 12.7286 19.2819C12.8172 19.5152 12.9502 19.7066 13.1276 19.8559C13.3049 20.0099 13.5312 20.0869 13.8066 20.0869ZM13.7926 14.9559C13.9466 14.9559 14.0842 14.8906 14.2056 14.7599C14.3316 14.6246 14.4319 14.3772 14.5066 14.0179C14.5812 13.6586 14.6186 13.1429 14.6186 12.4709C14.6186 11.8176 14.5812 11.3182 14.5066 10.9729C14.4366 10.6229 14.3409 10.3826 14.2196 10.2519C14.0982 10.1166 13.9629 10.0489 13.8136 10.0489C13.6642 10.0489 13.5242 10.1166 13.3936 10.2519C13.2676 10.3826 13.1626 10.6252 13.0786 10.9799C12.9992 11.3346 12.9596 11.8456 12.9596 12.5129C12.9596 13.1756 12.9992 13.6819 13.0786 14.0319C13.1579 14.3819 13.2606 14.6246 13.3866 14.7599C13.5126 14.8906 13.6479 14.9559 13.7926 14.9559ZM14.3386 10.0419C14.3759 9.80387 14.4856 9.61255 14.6676 9.46788C14.8496 9.32321 15.0362 9.25088 15.2276 9.25088C15.3956 9.25088 15.5146 9.28588 15.5846 9.35588C15.6546 9.42587 15.6896 9.52387 15.6896 9.64987C15.6896 9.75254 15.6592 9.83888 15.5986 9.90888C15.5426 9.97421 15.4632 10.0069 15.3606 10.0069C15.2812 10.0069 15.2206 9.98821 15.1786 9.95088C15.1412 9.91355 15.1062 9.8762 15.0736 9.83887C15.0409 9.79687 14.9919 9.77588 14.9266 9.77588C14.8612 9.77588 14.8052 9.80387 14.7586 9.85987C14.7166 9.91587 14.6956 9.98587 14.6956 10.0699L14.3386 10.0419Z" fill="white"/>
</svg>
