<svg width="24" height="24" viewBox="0 0 24 24" fill="none" xmlns="http://www.w3.org/2000/svg">
<path d="M10.4265 14.6062H7.83653L8.00453 13.7522H10.2305L10.4265 14.6062ZM9.19453 10.7702L7.58453 17.0002H6.56253L9.01253 8.13818H9.37653L11.8265 17.0002H10.7765L9.19453 10.7702ZM14.758 19.4222C14.394 19.4222 14.0673 19.3849 13.778 19.3102C13.4887 19.2449 13.2413 19.1422 13.036 19.0022C12.8307 18.8622 12.672 18.6895 12.56 18.4842C12.4573 18.2789 12.406 18.0362 12.406 17.7562C12.406 17.5042 12.448 17.2755 12.532 17.0702C12.6253 16.8649 12.7467 16.6969 12.896 16.5662C13.0453 16.4262 13.2087 16.3189 13.386 16.2442L13.848 16.5242C13.736 16.6175 13.638 16.7155 13.554 16.8182C13.4793 16.9209 13.4187 17.0329 13.372 17.1542C13.3347 17.2849 13.316 17.4389 13.316 17.6162C13.316 17.7655 13.3487 17.8962 13.414 18.0082C13.4887 18.1295 13.5913 18.2275 13.722 18.3022C13.8527 18.3769 14.0067 18.4329 14.184 18.4702C14.3613 18.5075 14.5667 18.5262 14.8 18.5262C15.108 18.5262 15.36 18.4842 15.556 18.4002C15.752 18.3255 15.8967 18.2182 15.99 18.0782C16.0833 17.9382 16.13 17.7749 16.13 17.5882C16.13 17.4015 16.102 17.2475 16.046 17.1262C15.99 17.0049 15.878 16.9162 15.71 16.8602C15.542 16.7949 15.2993 16.7622 14.982 16.7622C14.7207 16.7622 14.478 16.7529 14.254 16.7342C14.03 16.7062 13.8247 16.6595 13.638 16.5942C13.4607 16.5289 13.3067 16.4495 13.176 16.3562C13.0453 16.2535 12.9473 16.1322 12.882 15.9922C12.8167 15.8429 12.784 15.6655 12.784 15.4602C12.784 15.2082 12.8493 14.9702 12.98 14.7462C13.1107 14.5222 13.274 14.3122 13.47 14.1162L13.974 14.4942C13.8993 14.5969 13.834 14.6855 13.778 14.7602C13.7313 14.8349 13.694 14.9049 13.666 14.9702C13.6473 15.0355 13.638 15.1102 13.638 15.1942C13.638 15.3342 13.6847 15.4509 13.778 15.5442C13.8713 15.6282 14.03 15.6889 14.254 15.7262C14.4873 15.7635 14.8047 15.7822 15.206 15.7822C15.57 15.7822 15.8733 15.8242 16.116 15.9082C16.3587 15.9922 16.5453 16.1089 16.676 16.2582C16.816 16.3982 16.914 16.5709 16.97 16.7762C17.0353 16.9815 17.068 17.2055 17.068 17.4482C17.068 17.7002 17.0213 17.9429 16.928 18.1762C16.844 18.4189 16.7133 18.6335 16.536 18.8202C16.3587 19.0069 16.1207 19.1515 15.822 19.2542C15.5327 19.3662 15.178 19.4222 14.758 19.4222ZM14.576 14.8302C14.2027 14.8302 13.876 14.7369 13.596 14.5502C13.316 14.3542 13.0967 14.0882 12.938 13.7522C12.7887 13.4162 12.714 13.0289 12.714 12.5902C12.714 12.1515 12.7887 11.7642 12.938 11.4282C13.0967 11.0829 13.316 10.8169 13.596 10.6302C13.876 10.4342 14.2027 10.3362 14.576 10.3362C14.9493 10.3362 15.2713 10.4342 15.542 10.6302C15.822 10.8169 16.0367 11.0829 16.186 11.4282C16.3447 11.7642 16.424 12.1515 16.424 12.5902C16.424 13.0289 16.3447 13.4162 16.186 13.7522C16.0367 14.0882 15.822 14.3542 15.542 14.5502C15.2713 14.7369 14.9493 14.8302 14.576 14.8302ZM14.576 13.9202C14.772 13.9202 14.94 13.8642 15.08 13.7522C15.22 13.6402 15.3273 13.4862 15.402 13.2902C15.486 13.0849 15.528 12.8515 15.528 12.5902C15.528 12.3195 15.486 12.0862 15.402 11.8902C15.3273 11.6849 15.22 11.5262 15.08 11.4142C14.94 11.3022 14.772 11.2462 14.576 11.2462C14.38 11.2462 14.2073 11.3069 14.058 11.4282C13.918 11.5402 13.8107 11.6942 13.736 11.8902C13.6613 12.0862 13.624 12.3195 13.624 12.5902C13.624 12.8422 13.6613 13.0709 13.736 13.2762C13.8107 13.4815 13.918 13.6402 14.058 13.7522C14.2073 13.8642 14.38 13.9202 14.576 13.9202ZM16.102 11.6802L15.738 11.1342C15.9527 10.8729 16.1813 10.6815 16.424 10.5602C16.6667 10.4295 16.9513 10.3782 17.278 10.4062L17.376 11.3022C17.1333 11.2742 16.9047 11.2835 16.69 11.3302C16.4847 11.3769 16.2887 11.4935 16.102 11.6802Z" fill="white"/>
</svg>
