<svg width="24" height="24" viewBox="0 0 24 24" fill="none" xmlns="http://www.w3.org/2000/svg">
<path d="M9.97126 14.074H6.68126L6.77926 13.752H9.84526L9.97126 14.074ZM8.34726 9.13202L6.00926 17H5.61726L8.29126 8.12402H8.40326L11.0773 17H10.6853L8.34726 9.13202ZM14.65 19.408C14.202 19.408 13.8193 19.366 13.502 19.282C13.194 19.2073 12.9373 19.1 12.732 18.96C12.536 18.82 12.3913 18.6473 12.298 18.442C12.2047 18.246 12.158 18.0267 12.158 17.784C12.158 17.4853 12.2 17.238 12.284 17.042C12.3773 16.846 12.4987 16.6733 12.648 16.524C12.8067 16.3653 12.9793 16.2253 13.166 16.104L13.446 16.23C13.278 16.342 13.1193 16.468 12.97 16.608C12.83 16.7387 12.7133 16.8973 12.62 17.084C12.536 17.2707 12.494 17.4993 12.494 17.77C12.494 17.9847 12.5313 18.1713 12.606 18.33C12.69 18.4887 12.816 18.624 12.984 18.736C13.152 18.848 13.3713 18.9367 13.642 19.002C13.9127 19.0673 14.244 19.1 14.636 19.1C15.1213 19.1 15.518 19.03 15.826 18.89C16.134 18.75 16.3627 18.5633 16.512 18.33C16.6707 18.106 16.7547 17.8587 16.764 17.588C16.7733 17.3173 16.736 17.1027 16.652 16.944C16.5773 16.776 16.414 16.6547 16.162 16.58C15.9193 16.5053 15.546 16.468 15.042 16.468C14.7527 16.468 14.482 16.4587 14.23 16.44C13.9873 16.4213 13.7633 16.3887 13.558 16.342C13.362 16.2953 13.1893 16.2347 13.04 16.16C12.9 16.076 12.7927 15.9733 12.718 15.852C12.6433 15.7307 12.606 15.586 12.606 15.418C12.606 15.194 12.6667 15.0027 12.788 14.844C12.9187 14.676 13.0913 14.4987 13.306 14.312L13.516 14.48C13.3667 14.6107 13.25 14.718 13.166 14.802C13.082 14.886 13.0213 14.9653 12.984 15.04C12.9467 15.1147 12.928 15.208 12.928 15.32C12.928 15.5627 13.0213 15.7447 13.208 15.866C13.404 15.9873 13.67 16.0667 14.006 16.104C14.342 16.1413 14.734 16.16 15.182 16.16C15.5647 16.16 15.882 16.188 16.134 16.244C16.386 16.3 16.582 16.384 16.722 16.496C16.862 16.5987 16.96 16.7387 17.016 16.916C17.072 17.084 17.1 17.2847 17.1 17.518C17.1 17.77 17.0487 18.008 16.946 18.232C16.8433 18.456 16.6893 18.6567 16.484 18.834C16.2787 19.0113 16.022 19.1513 15.714 19.254C15.4153 19.3567 15.0607 19.408 14.65 19.408ZM14.496 14.9C14.1227 14.9 13.7913 14.8113 13.502 14.634C13.2127 14.4473 12.984 14.1907 12.816 13.864C12.6573 13.5373 12.578 13.1593 12.578 12.73C12.578 12.3287 12.6573 11.9647 12.816 11.638C12.984 11.3113 13.2127 11.0547 13.502 10.868C13.7913 10.6813 14.1227 10.588 14.496 10.588C14.8787 10.588 15.21 10.6813 15.49 10.868C15.7793 11.0547 16.0033 11.3113 16.162 11.638C16.33 11.9647 16.414 12.3287 16.414 12.73C16.414 13.1593 16.3393 13.5373 16.19 13.864C16.0407 14.1907 15.8213 14.4473 15.532 14.634C15.2427 14.8113 14.8973 14.9 14.496 14.9ZM14.496 14.578C14.832 14.578 15.1167 14.508 15.35 14.368C15.5927 14.228 15.7747 14.0227 15.896 13.752C16.0173 13.4813 16.078 13.1453 16.078 12.744C16.078 12.3707 16.008 12.0487 15.868 11.778C15.7373 11.498 15.5553 11.2833 15.322 11.134C15.0887 10.9753 14.8133 10.896 14.496 10.896C14.1973 10.896 13.9267 10.9753 13.684 11.134C13.4507 11.2833 13.264 11.498 13.124 11.778C12.984 12.0487 12.914 12.366 12.914 12.73C12.914 13.15 12.984 13.5 13.124 13.78C13.264 14.0507 13.4507 14.2513 13.684 14.382C13.9267 14.5127 14.1973 14.578 14.496 14.578ZM16.05 11.568L15.896 11.316C16.0733 11.0547 16.274 10.8727 16.498 10.77C16.7313 10.6673 17.0113 10.63 17.338 10.658V10.938C17.0487 10.91 16.8013 10.9427 16.596 11.036C16.4 11.1293 16.218 11.3067 16.05 11.568Z" fill="white"/>
</svg>
