<svg width="24" height="24" viewBox="0 0 24 24" fill="none" xmlns="http://www.w3.org/2000/svg">
<path d="M9.37747 15.0682H5.09347L5.45747 13.7802H9.04147L9.37747 15.0682ZM7.30547 11.2882L5.16347 17.0002H3.30147L6.85747 8.22217H7.76747L11.3235 17.0002H9.41947L7.30547 11.2882ZM15.504 19.5062C14.9533 19.5062 14.454 19.4642 14.006 19.3802C13.5673 19.3055 13.1893 19.1889 12.872 19.0302C12.5547 18.8809 12.312 18.6989 12.144 18.4842C11.9853 18.2789 11.906 18.0502 11.906 17.7982C11.906 17.5649 11.9713 17.3502 12.102 17.1542C12.2327 16.9675 12.41 16.8042 12.634 16.6642C12.8673 16.5149 13.1193 16.3935 13.39 16.3002L14.384 16.6222C14.216 16.7062 14.048 16.7902 13.88 16.8742C13.712 16.9582 13.5767 17.0469 13.474 17.1402C13.3713 17.2429 13.32 17.3595 13.32 17.4902C13.32 17.6022 13.3713 17.6955 13.474 17.7702C13.586 17.8542 13.7447 17.9195 13.95 17.9662C14.1553 18.0222 14.398 18.0642 14.678 18.0922C14.9673 18.1202 15.2893 18.1342 15.644 18.1342C16.0827 18.1342 16.456 18.1062 16.764 18.0502C17.072 17.9942 17.31 17.9149 17.478 17.8122C17.646 17.7095 17.73 17.5882 17.73 17.4482C17.73 17.3269 17.6787 17.2289 17.576 17.1542C17.4733 17.0889 17.296 17.0375 17.044 17.0002C16.8013 16.9629 16.4653 16.9442 16.036 16.9442C15.6627 16.9535 15.2987 16.9442 14.944 16.9162C14.5893 16.8882 14.258 16.8415 13.95 16.7762C13.6513 16.7109 13.3853 16.6269 13.152 16.5242C12.9187 16.4122 12.7367 16.2769 12.606 16.1182C12.4753 15.9502 12.41 15.7495 12.41 15.5162C12.41 15.2082 12.522 14.9422 12.746 14.7182C12.97 14.4849 13.2453 14.2749 13.572 14.0882L14.51 14.5082C14.398 14.5829 14.286 14.6482 14.174 14.7042C14.0713 14.7509 13.9827 14.8022 13.908 14.8582C13.8427 14.9142 13.81 14.9889 13.81 15.0822C13.81 15.1755 13.8987 15.2595 14.076 15.3342C14.2627 15.3995 14.552 15.4509 14.944 15.4882C15.3453 15.5162 15.8633 15.5302 16.498 15.5302C17.002 15.5302 17.4267 15.5769 17.772 15.6702C18.1267 15.7542 18.4113 15.8802 18.626 16.0482C18.8407 16.2162 18.9947 16.4075 19.088 16.6222C19.1907 16.8275 19.242 17.0562 19.242 17.3082C19.242 17.5789 19.1673 17.8449 19.018 18.1062C18.878 18.3675 18.654 18.6009 18.346 18.8062C18.0473 19.0209 17.6647 19.1889 17.198 19.3102C16.7313 19.4409 16.1667 19.5062 15.504 19.5062ZM15.336 14.7742C14.7573 14.7742 14.244 14.6762 13.796 14.4802C13.3573 14.2749 13.012 14.0042 12.76 13.6682C12.508 13.3322 12.382 12.9542 12.382 12.5342C12.382 12.1142 12.508 11.7362 12.76 11.4002C13.012 11.0549 13.3573 10.7842 13.796 10.5882C14.244 10.3829 14.7573 10.2802 15.336 10.2802C15.9053 10.2802 16.4093 10.3782 16.848 10.5742C17.296 10.7609 17.646 11.0269 17.898 11.3722C18.1593 11.7082 18.29 12.0955 18.29 12.5342C18.29 12.9729 18.1593 13.3602 17.898 13.6962C17.646 14.0322 17.296 14.2982 16.848 14.4942C16.4093 14.6809 15.9053 14.7742 15.336 14.7742ZM15.322 13.5002C15.602 13.5002 15.8447 13.4629 16.05 13.3882C16.2647 13.3042 16.4327 13.1922 16.554 13.0522C16.6753 12.9029 16.736 12.7302 16.736 12.5342C16.736 12.3382 16.6753 12.1749 16.554 12.0442C16.4327 11.9042 16.2647 11.7969 16.05 11.7222C15.8353 11.6475 15.5927 11.6102 15.322 11.6102C15.0887 11.6102 14.8647 11.6522 14.65 11.7362C14.4447 11.8109 14.272 11.9182 14.132 12.0582C14.0013 12.1982 13.936 12.3569 13.936 12.5342C13.936 12.7209 14.0013 12.8889 14.132 13.0382C14.2627 13.1782 14.4307 13.2902 14.636 13.3742C14.8507 13.4582 15.0793 13.5002 15.322 13.5002ZM17.8 11.7782L17.072 10.9242C17.3893 10.7189 17.744 10.5602 18.136 10.4482C18.5373 10.3362 18.976 10.2942 19.452 10.3222L19.634 11.4842C19.298 11.4282 18.9667 11.4282 18.64 11.4842C18.3227 11.5309 18.0427 11.6289 17.8 11.7782Z" fill="white"/>
</svg>
