<svg width="24" height="24" viewBox="0 0 24 24" fill="none" xmlns="http://www.w3.org/2000/svg">
<path d="M9.904 17L8.56 14.508H3.884L2.54 17H1.336L6.166 8.12402H6.334L11.164 17H9.904ZM6.236 10.182L4.36 13.626H8.084L6.236 10.182ZM16.204 14.816C15.6253 14.8067 15.098 14.732 14.622 14.592C14.4447 14.704 14.2953 14.8113 14.174 14.914C14.062 15.0167 14.006 15.1193 14.006 15.222C14.006 15.446 14.2673 15.6047 14.79 15.698C15.322 15.7913 16.1527 15.838 17.282 15.838C18.262 15.838 19.0087 15.908 19.522 16.048C20.0447 16.1787 20.3993 16.3653 20.586 16.608C20.782 16.8413 20.88 17.1167 20.88 17.434C20.88 17.7793 20.74 18.1013 20.46 18.4C20.18 18.6987 19.7273 18.9413 19.102 19.128C18.486 19.3147 17.6693 19.408 16.652 19.408C15.2707 19.408 14.1787 19.268 13.376 18.988C12.5827 18.7173 12.186 18.3067 12.186 17.756C12.186 17.4013 12.326 17.1027 12.606 16.86C12.886 16.6173 13.2407 16.4353 13.67 16.314C13.2033 16.1087 12.97 15.824 12.97 15.46C12.97 15.2547 13.0493 15.054 13.208 14.858C13.376 14.662 13.6093 14.4707 13.908 14.284C13.544 14.0787 13.264 13.8313 13.068 13.542C12.872 13.2433 12.774 12.9213 12.774 12.576C12.774 12.1653 12.914 11.7967 13.194 11.47C13.474 11.1433 13.8707 10.8867 14.384 10.7C14.9067 10.504 15.5133 10.406 16.204 10.406C16.736 10.406 17.2167 10.4667 17.646 10.588C18.0753 10.7 18.4393 10.854 18.738 11.05C19.102 10.8353 19.4847 10.6813 19.886 10.588C20.2967 10.4853 20.7727 10.448 21.314 10.476L21.496 11.316C21.0947 11.288 20.7073 11.2927 20.334 11.33C19.97 11.3673 19.6293 11.4513 19.312 11.582C19.536 11.8807 19.648 12.212 19.648 12.576C19.648 12.9867 19.5033 13.3647 19.214 13.71C18.934 14.046 18.5327 14.3167 18.01 14.522C17.4967 14.718 16.8947 14.816 16.204 14.816ZM16.204 13.92C16.932 13.92 17.5247 13.794 17.982 13.542C18.4487 13.2807 18.682 12.9587 18.682 12.576C18.682 12.1933 18.4487 11.8807 17.982 11.638C17.5247 11.3953 16.932 11.274 16.204 11.274C15.7653 11.274 15.3547 11.33 14.972 11.442C14.5987 11.554 14.2953 11.708 14.062 11.904C13.838 12.0907 13.726 12.3147 13.726 12.576C13.726 12.828 13.8333 13.0567 14.048 13.262C14.2627 13.4673 14.5567 13.6307 14.93 13.752C15.3127 13.864 15.7373 13.92 16.204 13.92ZM13.236 17.616C13.236 17.812 13.39 17.98 13.698 18.12C14.006 18.26 14.4213 18.3673 14.944 18.442C15.4667 18.526 16.0407 18.568 16.666 18.568C17.618 18.568 18.3833 18.484 18.962 18.316C19.5407 18.148 19.83 17.9053 19.83 17.588C19.83 17.28 19.6153 17.0653 19.186 16.944C18.766 16.8133 18.024 16.748 16.96 16.748C16.4747 16.748 16.0267 16.734 15.616 16.706C15.2053 16.678 14.8367 16.6313 14.51 16.566C14.174 16.706 13.8753 16.8507 13.614 17C13.362 17.1493 13.236 17.3547 13.236 17.616Z" fill="white"/>
</svg>
