<svg width="24" height="24" viewBox="0 0 24 24" fill="none" xmlns="http://www.w3.org/2000/svg">
<path d="M9.62001 13.2702H4.30001L4.90001 12.5502H9.18001L9.62001 13.2702ZM6.98001 10.0002L3.34001 15.0002H2.32001L6.92001 8.66016H7.08001L11.68 15.0002H10.6L6.98001 10.0002ZM16.88 16.7202C16.2133 16.7202 15.6167 16.6935 15.09 16.6402C14.5633 16.5935 14.1133 16.5202 13.74 16.4202C13.3667 16.3269 13.08 16.2069 12.88 16.0602C12.6867 15.9135 12.59 15.7402 12.59 15.5402C12.59 15.3535 12.6633 15.1869 12.81 15.0402C12.9567 14.8935 13.16 14.7735 13.42 14.6802C13.68 14.5802 13.98 14.5069 14.32 14.4602L15.01 14.6402C14.77 14.7135 14.5267 14.7869 14.28 14.8602C14.04 14.9269 13.8367 15.0035 13.67 15.0902C13.51 15.1769 13.43 15.2902 13.43 15.4302C13.43 15.5169 13.5233 15.5969 13.71 15.6702C13.9033 15.7502 14.1633 15.8169 14.49 15.8702C14.8167 15.9302 15.1867 15.9769 15.6 16.0102C16.02 16.0435 16.4533 16.0602 16.9 16.0602C17.5067 16.0602 18.05 16.0369 18.53 15.9902C19.0167 15.9502 19.4 15.8802 19.68 15.7802C19.9667 15.6802 20.11 15.5502 20.11 15.3902C20.11 15.2435 20.0067 15.1302 19.8 15.0502C19.5933 14.9702 19.2733 14.9135 18.84 14.8802C18.4067 14.8469 17.8533 14.8302 17.18 14.8302C16.7133 14.8302 16.28 14.8202 15.88 14.8002C15.4867 14.7735 15.1333 14.7369 14.82 14.6902C14.5067 14.6435 14.24 14.5835 14.02 14.5102C13.8 14.4369 13.63 14.3502 13.51 14.2502C13.3967 14.1502 13.34 14.0335 13.34 13.9002C13.34 13.7269 13.4433 13.5602 13.65 13.4002C13.8633 13.2402 14.16 13.0869 14.54 12.9402L15.05 13.2102C14.9033 13.2635 14.7633 13.3202 14.63 13.3802C14.5033 13.4402 14.4 13.5002 14.32 13.5602C14.24 13.6135 14.2 13.6702 14.2 13.7302C14.2 13.8369 14.3233 13.9235 14.57 13.9902C14.8233 14.0502 15.1933 14.0935 15.68 14.1202C16.1667 14.1469 16.7667 14.1602 17.48 14.1602C18.18 14.1602 18.7533 14.1869 19.2 14.2402C19.6533 14.2935 20.0067 14.3702 20.26 14.4702C20.52 14.5702 20.7 14.6902 20.8 14.8302C20.9 14.9635 20.95 15.1135 20.95 15.2802C20.95 15.4735 20.8733 15.6569 20.72 15.8302C20.5733 16.0035 20.3367 16.1569 20.01 16.2902C19.6833 16.4235 19.2633 16.5269 18.75 16.6002C18.2367 16.6802 17.6133 16.7202 16.88 16.7202ZM16.46 13.4202C15.8 13.4202 15.22 13.3502 14.72 13.2102C14.2267 13.0702 13.84 12.8802 13.56 12.6402C13.2867 12.3935 13.15 12.1235 13.15 11.8302C13.15 11.5369 13.2867 11.2769 13.56 11.0502C13.84 10.8235 14.2267 10.6469 14.72 10.5202C15.22 10.3869 15.8 10.3202 16.46 10.3202C17.12 10.3202 17.6967 10.3869 18.19 10.5202C18.69 10.6469 19.0767 10.8235 19.35 11.0502C19.63 11.2769 19.77 11.5369 19.77 11.8302C19.77 12.1235 19.63 12.3935 19.35 12.6402C19.0767 12.8802 18.69 13.0702 18.19 13.2102C17.6967 13.3502 17.12 13.4202 16.46 13.4202ZM16.46 12.7502C16.9667 12.7502 17.41 12.7135 17.79 12.6402C18.17 12.5602 18.4667 12.4502 18.68 12.3102C18.8933 12.1702 19 12.0102 19 11.8302C19 11.6435 18.8933 11.4902 18.68 11.3702C18.4667 11.2435 18.17 11.1469 17.79 11.0802C17.41 11.0135 16.9667 10.9802 16.46 10.9802C16.02 10.9802 15.6067 11.0135 15.22 11.0802C14.8333 11.1469 14.52 11.2435 14.28 11.3702C14.04 11.4902 13.92 11.6435 13.92 11.8302C13.92 12.0102 14.03 12.1702 14.25 12.3102C14.4767 12.4502 14.78 12.5602 15.16 12.6402C15.5467 12.7135 15.98 12.7502 16.46 12.7502ZM19.22 11.2502L18.66 10.9002C19.0533 10.7069 19.4567 10.5669 19.87 10.4802C20.2833 10.3869 20.78 10.3502 21.36 10.3702L21.54 10.9802C21.1 10.9602 20.6867 10.9669 20.3 11.0002C19.9133 11.0335 19.5533 11.1169 19.22 11.2502Z" fill="white"/>
</svg>
