<svg width="24" height="24" viewBox="0 0 24 24" fill="none" xmlns="http://www.w3.org/2000/svg">
<path d="M10.082 14.7882H6.764L6.974 13.7942H9.844L10.082 14.7882ZM8.5 10.8822L6.554 17.0002H5.196L8.234 8.18018H8.78L11.818 17.0002H10.418L8.5 10.8822ZM15.374 19.4642C14.926 19.4642 14.52 19.4269 14.156 19.3522C13.792 19.2775 13.4793 19.1655 13.218 19.0162C12.966 18.8762 12.7747 18.6989 12.644 18.4842C12.5133 18.2789 12.448 18.0455 12.448 17.7842C12.448 17.5415 12.504 17.3222 12.616 17.1262C12.728 16.9302 12.8773 16.7622 13.064 16.6222C13.2507 16.4729 13.456 16.3609 13.68 16.2862L14.296 16.5662C14.1467 16.6595 14.016 16.7529 13.904 16.8462C13.792 16.9395 13.7033 17.0422 13.638 17.1542C13.582 17.2755 13.554 17.4155 13.554 17.5742C13.554 17.7142 13.6007 17.8355 13.694 17.9382C13.7873 18.0409 13.918 18.1249 14.086 18.1902C14.254 18.2555 14.4547 18.3069 14.688 18.3442C14.9213 18.3815 15.1827 18.4002 15.472 18.4002C15.8547 18.4002 16.172 18.3629 16.424 18.2882C16.676 18.2229 16.8627 18.1249 16.984 17.9942C17.1147 17.8635 17.18 17.7142 17.18 17.5462C17.18 17.3782 17.1427 17.2429 17.068 17.1402C16.9933 17.0469 16.8533 16.9769 16.648 16.9302C16.4427 16.8742 16.144 16.8462 15.752 16.8462C15.4347 16.8462 15.1313 16.8369 14.842 16.8182C14.562 16.7902 14.3007 16.7435 14.058 16.6782C13.8247 16.6129 13.6193 16.5289 13.442 16.4262C13.2647 16.3235 13.1247 16.1975 13.022 16.0482C12.9287 15.8895 12.882 15.7029 12.882 15.4882C12.882 15.2082 12.966 14.9562 13.134 14.7322C13.302 14.4989 13.512 14.2889 13.764 14.1022L14.394 14.4942C14.31 14.5875 14.2353 14.6669 14.17 14.7322C14.1047 14.7975 14.0533 14.8629 14.016 14.9282C13.9787 14.9842 13.96 15.0542 13.96 15.1382C13.96 15.2595 14.03 15.3622 14.17 15.4462C14.31 15.5302 14.534 15.5909 14.842 15.6282C15.1593 15.6655 15.5793 15.6842 16.102 15.6842C16.5407 15.6842 16.9047 15.7309 17.194 15.8242C17.4927 15.9082 17.726 16.0295 17.894 16.1882C18.062 16.3469 18.1787 16.5289 18.244 16.7342C18.3187 16.9302 18.356 17.1495 18.356 17.3922C18.356 17.6535 18.3 17.9055 18.188 18.1482C18.076 18.4002 17.8987 18.6242 17.656 18.8202C17.4227 19.0162 17.1147 19.1702 16.732 19.2822C16.3587 19.4035 15.906 19.4642 15.374 19.4642ZM15.192 14.8162C14.7347 14.8162 14.3287 14.7182 13.974 14.5222C13.6193 14.3169 13.3393 14.0462 13.134 13.7102C12.938 13.3742 12.84 12.9962 12.84 12.5762C12.84 12.1562 12.938 11.7782 13.134 11.4422C13.3393 11.0969 13.6193 10.8262 13.974 10.6302C14.3287 10.4249 14.7347 10.3222 15.192 10.3222C15.6587 10.3222 16.0693 10.4249 16.424 10.6302C16.7787 10.8262 17.054 11.0969 17.25 11.4422C17.4553 11.7782 17.558 12.1562 17.558 12.5762C17.558 12.9962 17.4553 13.3742 17.25 13.7102C17.054 14.0462 16.7787 14.3169 16.424 14.5222C16.0693 14.7182 15.6587 14.8162 15.192 14.8162ZM15.192 13.7662C15.4253 13.7662 15.6307 13.7149 15.808 13.6122C15.9853 13.5095 16.1253 13.3695 16.228 13.1922C16.3307 13.0055 16.382 12.8002 16.382 12.5762C16.382 12.3429 16.3307 12.1422 16.228 11.9742C16.1253 11.7969 15.9807 11.6569 15.794 11.5542C15.6167 11.4515 15.416 11.4002 15.192 11.4002C14.9773 11.4002 14.7813 11.4515 14.604 11.5542C14.4267 11.6569 14.282 11.7969 14.17 11.9742C14.0673 12.1515 14.016 12.3522 14.016 12.5762C14.016 12.7909 14.0673 12.9915 14.17 13.1782C14.2727 13.3555 14.4127 13.5002 14.59 13.6122C14.7673 13.7149 14.968 13.7662 15.192 13.7662ZM17.166 11.6662L16.634 11.0082C16.9047 10.7842 17.1987 10.6162 17.516 10.5042C17.8427 10.3829 18.202 10.3362 18.594 10.3642L18.734 11.3582C18.4447 11.3209 18.1647 11.3255 17.894 11.3722C17.6233 11.4095 17.3807 11.5075 17.166 11.6662Z" fill="white"/>
</svg>
