<svg width="24" height="24" viewBox="0 0 24 24" fill="none" xmlns="http://www.w3.org/2000/svg">
<path d="M10.5245 15.2502H7.75253L7.93453 14.0042H10.3145L10.5245 15.2502ZM9.20853 11.6662L8.17253 17.0002H6.50653L8.66253 8.22217H9.74053L11.8965 17.0002H10.2025L9.20853 11.6662ZM14.632 19.5062C14.24 19.5062 13.89 19.4642 13.582 19.3802C13.2833 19.3055 13.0313 19.1935 12.826 19.0442C12.6207 18.8949 12.4667 18.7129 12.364 18.4982C12.2707 18.2835 12.224 18.0362 12.224 17.7562C12.224 17.5322 12.266 17.3222 12.35 17.1262C12.4433 16.9395 12.5693 16.7715 12.728 16.6222C12.8867 16.4729 13.0593 16.3469 13.246 16.2442L14.086 16.6082C13.9927 16.7015 13.8993 16.7949 13.806 16.8882C13.7127 16.9815 13.638 17.0749 13.582 17.1682C13.526 17.2709 13.498 17.3875 13.498 17.5182C13.498 17.6302 13.5307 17.7235 13.596 17.7982C13.6613 17.8822 13.75 17.9475 13.862 17.9942C13.974 18.0502 14.1047 18.0875 14.254 18.1062C14.4127 18.1249 14.5807 18.1342 14.758 18.1342C14.982 18.1342 15.178 18.1015 15.346 18.0362C15.5233 17.9802 15.6587 17.8962 15.752 17.7842C15.8547 17.6815 15.906 17.5695 15.906 17.4482C15.906 17.3082 15.8733 17.2009 15.808 17.1262C15.7427 17.0515 15.6447 17.0002 15.514 16.9722C15.3833 16.9442 15.2247 16.9302 15.038 16.9302C14.8047 16.9302 14.5667 16.9209 14.324 16.9022C14.0813 16.8835 13.848 16.8462 13.624 16.7902C13.4 16.7342 13.1993 16.6549 13.022 16.5522C12.854 16.4402 12.7187 16.3002 12.616 16.1322C12.5227 15.9642 12.476 15.7542 12.476 15.5022C12.4853 15.1942 12.5833 14.9282 12.77 14.7042C12.9567 14.4709 13.1667 14.2655 13.4 14.0882L14.198 14.5082C14.1327 14.5922 14.0627 14.6622 13.988 14.7182C13.9227 14.7742 13.8667 14.8302 13.82 14.8862C13.7733 14.9329 13.75 15.0029 13.75 15.0962C13.75 15.1802 13.8107 15.2549 13.932 15.3202C14.0533 15.3762 14.2447 15.4182 14.506 15.4462C14.7673 15.4742 15.1033 15.4882 15.514 15.4882C15.8127 15.4882 16.0693 15.5302 16.284 15.6142C16.508 15.6982 16.69 15.8195 16.83 15.9782C16.97 16.1369 17.0727 16.3282 17.138 16.5522C17.2127 16.7762 17.25 17.0282 17.25 17.3082C17.25 17.5975 17.194 17.8729 17.082 18.1342C16.9793 18.4049 16.816 18.6382 16.592 18.8342C16.3773 19.0395 16.1067 19.2029 15.78 19.3242C15.4533 19.4455 15.0707 19.5062 14.632 19.5062ZM14.618 14.8022C14.2073 14.8022 13.8433 14.7182 13.526 14.5502C13.2087 14.3729 12.9613 14.1162 12.784 13.7802C12.616 13.4442 12.532 13.0382 12.532 12.5622C12.532 12.0862 12.6207 11.6755 12.798 11.3302C12.9847 10.9849 13.2367 10.7189 13.554 10.5322C13.8713 10.3455 14.226 10.2522 14.618 10.2522C15.0193 10.2522 15.3787 10.3455 15.696 10.5322C16.0133 10.7189 16.2607 10.9849 16.438 11.3302C16.6247 11.6755 16.718 12.0862 16.718 12.5622C16.718 13.0569 16.62 13.4722 16.424 13.8082C16.228 14.1442 15.9713 14.3962 15.654 14.5642C15.3367 14.7229 14.9913 14.8022 14.618 14.8022ZM14.618 13.5702C14.7487 13.5702 14.8607 13.5375 14.954 13.4722C15.0473 13.3975 15.1173 13.2855 15.164 13.1362C15.2107 12.9775 15.234 12.7862 15.234 12.5622C15.234 12.3382 15.2107 12.1562 15.164 12.0162C15.1173 11.8762 15.0427 11.7735 14.94 11.7082C14.8467 11.6335 14.7393 11.5962 14.618 11.5962C14.506 11.5962 14.4033 11.6335 14.31 11.7082C14.2167 11.7735 14.142 11.8809 14.086 12.0302C14.03 12.1702 14.002 12.3475 14.002 12.5622C14.002 12.7769 14.0253 12.9589 14.072 13.1082C14.128 13.2575 14.2027 13.3742 14.296 13.4582C14.3893 13.5329 14.4967 13.5702 14.618 13.5702ZM16.326 11.8202L15.752 10.9382C15.9573 10.7235 16.1953 10.5555 16.466 10.4342C16.746 10.3035 17.0447 10.2522 17.362 10.2802L17.474 11.4702C17.25 11.4235 17.04 11.4329 16.844 11.4982C16.6573 11.5635 16.4847 11.6709 16.326 11.8202Z" fill="white"/>
</svg>
