<svg width="24" height="24" viewBox="0 0 24 24" fill="none" xmlns="http://www.w3.org/2000/svg">
<path d="M10.772 14.242H8.784L8.882 13.976H10.66L10.772 14.242ZM9.75 9.49602L8.392 17H8.112L9.694 8.12402H9.806L11.388 17H11.108L9.75 9.49602ZM13.306 19.408C13.082 19.408 12.886 19.3707 12.718 19.296C12.5593 19.2307 12.424 19.128 12.312 18.988C12.2093 18.8573 12.13 18.6893 12.074 18.484C12.0273 18.2787 12.004 18.036 12.004 17.756C12.004 17.4947 12.0273 17.2567 12.074 17.042C12.13 16.8273 12.2 16.636 12.284 16.468C12.3773 16.2907 12.4753 16.146 12.578 16.034L12.746 16.16C12.6527 16.3093 12.5687 16.4633 12.494 16.622C12.4287 16.7807 12.3773 16.944 12.34 17.112C12.312 17.28 12.298 17.4573 12.298 17.644C12.298 17.924 12.3167 18.1573 12.354 18.344C12.4007 18.54 12.466 18.694 12.55 18.806C12.634 18.9273 12.7367 19.0113 12.858 19.058C12.9887 19.114 13.138 19.142 13.306 19.142C13.5767 19.142 13.7727 19.0673 13.894 18.918C14.0247 18.7687 14.1087 18.5773 14.146 18.344C14.1927 18.1107 14.216 17.8727 14.216 17.63C14.216 17.3033 14.1787 17.0513 14.104 16.874C14.0387 16.6873 13.936 16.5613 13.796 16.496C13.656 16.4213 13.4787 16.384 13.264 16.384C13.1333 16.384 13.012 16.37 12.9 16.342C12.788 16.3047 12.69 16.258 12.606 16.202C12.522 16.146 12.4473 16.0807 12.382 16.006C12.326 15.9313 12.284 15.8473 12.256 15.754C12.228 15.6607 12.214 15.5627 12.214 15.46C12.214 15.2173 12.242 15.0167 12.298 14.858C12.3633 14.69 12.466 14.536 12.606 14.396L12.816 14.536C12.732 14.62 12.662 14.6947 12.606 14.76C12.5593 14.8253 12.5267 14.9 12.508 14.984C12.4893 15.0587 12.48 15.1613 12.48 15.292C12.48 15.4973 12.5127 15.6607 12.578 15.782C12.6433 15.9033 12.7413 15.9873 12.872 16.034C13.0027 16.0807 13.1707 16.104 13.376 16.104C13.5347 16.104 13.684 16.132 13.824 16.188C13.964 16.244 14.0853 16.328 14.188 16.44C14.2907 16.552 14.37 16.6967 14.426 16.874C14.4913 17.042 14.524 17.2427 14.524 17.476C14.524 17.728 14.5053 17.966 14.468 18.19C14.44 18.4233 14.384 18.6287 14.3 18.806C14.216 18.9927 14.09 19.1373 13.922 19.24C13.7633 19.352 13.558 19.408 13.306 19.408ZM13.166 14.83C12.9327 14.83 12.746 14.7553 12.606 14.606C12.466 14.4473 12.3633 14.2093 12.298 13.892C12.2327 13.5653 12.2 13.1547 12.2 12.66C12.2 12.2213 12.2327 11.848 12.298 11.54C12.3633 11.2227 12.466 10.98 12.606 10.812C12.746 10.644 12.928 10.56 13.152 10.56C13.3853 10.56 13.572 10.644 13.712 10.812C13.852 10.98 13.95 11.2227 14.006 11.54C14.0713 11.848 14.104 12.2213 14.104 12.66C14.104 13.1547 14.0713 13.5653 14.006 13.892C13.95 14.2093 13.852 14.4473 13.712 14.606C13.5813 14.7553 13.3993 14.83 13.166 14.83ZM13.166 14.55C13.3247 14.55 13.4507 14.4893 13.544 14.368C13.6467 14.2373 13.7167 14.032 13.754 13.752C13.7913 13.472 13.81 13.108 13.81 12.66C13.81 12.3147 13.7913 12.0067 13.754 11.736C13.726 11.456 13.6653 11.2367 13.572 11.078C13.4787 10.9193 13.3433 10.84 13.166 10.84C12.9793 10.84 12.8393 10.9193 12.746 11.078C12.6527 11.2367 12.5873 11.456 12.55 11.736C12.5127 12.0067 12.494 12.3147 12.494 12.66C12.494 13.108 12.5173 13.472 12.564 13.752C12.6107 14.032 12.6807 14.2373 12.774 14.368C12.8767 14.4893 13.0073 14.55 13.166 14.55ZM13.978 11.666L13.894 11.372C14.0247 11.1013 14.16 10.9053 14.3 10.784C14.4493 10.6533 14.6267 10.602 14.832 10.63L14.79 10.966C14.6407 10.938 14.5007 10.9893 14.37 11.12C14.2393 11.2507 14.1087 11.4327 13.978 11.666Z" fill="white"/>
</svg>
