<svg width="24" height="24" viewBox="0 0 24 24" fill="none" xmlns="http://www.w3.org/2000/svg">
<path d="M13.053 16.5859H7.76104V15.6783L9.28217 14.8858L8.63026 13.2752H4.89773L4.37365 14.579L6.16321 15.5633L5.65191 16.5859H1.38252V15.6783L2.87808 14.5663L5.94591 6.94782L8.68139 6.2959L12.235 14.9625L13.5643 15.5633L13.053 16.5859ZM6.73843 8.63512L5.37069 12.0609H8.13173L6.73843 8.63512ZM20.5482 11.051C20.6505 11.2811 20.7016 11.524 20.7016 11.7797C20.7016 12.2824 20.4843 12.7724 20.0497 13.2497C19.6236 13.7183 19.0825 14.0848 18.4263 14.349C18.2048 14.6217 18.094 14.8816 18.094 15.1287C18.094 15.2395 18.1749 15.3503 18.3368 15.461C18.5073 15.5633 18.7842 15.7082 19.1677 15.8957C19.7302 16.1598 20.1648 16.4027 20.4715 16.6243C20.7868 16.8543 20.9445 17.1185 20.9445 17.4168C20.9445 17.6895 20.7698 18.0303 20.4204 18.4394C20.071 18.857 19.6364 19.2149 19.1166 19.5131C18.6053 19.8199 18.1025 19.9733 17.6082 19.9733C17.0543 19.9733 16.4024 19.8923 15.6525 19.7304C14.9026 19.5685 14.2762 19.4066 13.7735 19.2447V16.7649H14.7705C15.1455 17.3103 15.5289 17.7236 15.9209 18.0048C16.3129 18.2945 16.7603 18.4394 17.2631 18.4394C17.5102 18.4394 17.7148 18.3968 17.8767 18.3116C18.0386 18.2349 18.1195 18.1497 18.1195 18.0559C18.1195 17.877 18.0173 17.715 17.8128 17.5702C17.6082 17.4338 17.2972 17.2719 16.8796 17.0844C16.4024 16.8629 16.036 16.6626 15.7803 16.4837C15.5332 16.3047 15.4096 16.0917 15.4096 15.8445C15.4096 15.64 15.5801 15.4312 15.9209 15.2182C16.2618 15.0051 16.6666 14.8177 17.1353 14.6557C17.0586 14.6643 16.9435 14.6685 16.7902 14.6685C16.2362 14.6685 15.7249 14.5663 15.2562 14.3617C14.7961 14.1487 14.4296 13.8675 14.1569 13.5181C13.8928 13.1687 13.7607 12.798 13.7607 12.406C13.7607 11.9117 13.9524 11.443 14.3359 10.9999C14.7194 10.5568 15.2136 10.1989 15.8187 9.92616C16.4237 9.65347 17.0373 9.51712 17.6594 9.51712C18.3837 9.51712 19.0271 9.68756 19.5895 10.0284H21.7498L21.7754 11.051H20.5482ZM16.2788 11.7669C16.2788 12.1077 16.3939 12.389 16.624 12.6105C16.8626 12.8321 17.1694 12.9429 17.5443 12.9429C17.7574 12.9429 17.9193 12.896 18.0301 12.8023C18.1494 12.7 18.209 12.5551 18.209 12.3677C18.209 12.0097 18.0897 11.7285 17.8511 11.524C17.621 11.3195 17.3142 11.2172 16.9308 11.2172C16.4962 11.2172 16.2788 11.4004 16.2788 11.7669Z" fill="white"/>
</svg>
