<svg width="24" height="24" viewBox="0 0 24 24" fill="none" xmlns="http://www.w3.org/2000/svg">
<path d="M10.0613 17L9.73933 14.788H6.15533L5.04933 17H3.80333L8.63333 7.47998H9.78133L11.2793 17H10.0613ZM7.51333 12.044L6.70133 13.682H9.57133L9.33333 12.044L8.94133 9.13198L7.51333 12.044ZM18.0727 17C17.9981 17.4293 17.8954 17.8307 17.7647 18.204C17.6434 18.5773 17.4661 18.9087 17.2327 19.198C16.9994 19.4873 16.6867 19.7113 16.2947 19.87C15.9121 20.038 15.4267 20.122 14.8387 20.122C14.4654 20.122 14.0921 20.0847 13.7187 20.01C13.3547 19.9353 12.9861 19.8233 12.6127 19.674L12.9067 18.694C13.2521 18.834 13.5787 18.932 13.8867 18.988C14.2041 19.0533 14.5074 19.086 14.7967 19.086C15.3194 19.086 15.7207 19.002 16.0007 18.834C16.2807 18.666 16.4861 18.4233 16.6167 18.106C16.7474 17.798 16.8501 17.4293 16.9247 17L17.1207 15.894C16.7007 16.3513 16.2947 16.6733 15.9027 16.86C15.5201 17.0467 15.1514 17.14 14.7967 17.14C14.3301 17.14 13.9474 16.9953 13.6487 16.706C13.3501 16.4167 13.1447 16.02 13.0327 15.516C12.9207 15.012 12.9114 14.4427 13.0047 13.808L13.1027 13.122C13.2521 12.1047 13.5974 11.3207 14.1387 10.77C14.6894 10.21 15.4267 9.92998 16.3507 9.92998C16.8454 9.92998 17.3307 10.0093 17.8067 10.168C18.2827 10.3173 18.7354 10.532 19.1647 10.812L18.0727 17ZM14.1947 13.808C14.0921 14.5453 14.1201 15.1147 14.2787 15.516C14.4374 15.908 14.7174 16.104 15.1187 16.104C15.4174 16.104 15.7581 15.9827 16.1407 15.74C16.5234 15.4973 16.9341 15.0633 17.3727 14.438L17.9187 11.372C17.3961 11.1107 16.8967 10.98 16.4207 10.98C15.7954 10.98 15.3101 11.1713 14.9647 11.554C14.6194 11.9367 14.3954 12.4593 14.2927 13.122L14.1947 13.808Z" fill="white"/>
</svg>
