<svg width="24" height="24" viewBox="0 0 24 24" fill="none" xmlns="http://www.w3.org/2000/svg">
<path d="M10.5295 17L9.94151 15.138H6.67951L6.09151 17H4.42551L7.60351 7.47998H9.08751L12.2795 17H10.5295ZM7.58951 12.226L7.15551 13.598H9.45151L9.01751 12.226L8.31751 9.81798L7.58951 12.226ZM19.417 17.714C19.417 18.47 19.1183 19.058 18.521 19.478C17.933 19.9073 17.1117 20.122 16.057 20.122C15.5623 20.122 15.0397 20.066 14.489 19.954C13.9383 19.842 13.4297 19.6553 12.963 19.394L13.425 18.12C13.873 18.344 14.3163 18.5027 14.755 18.596C15.1937 18.6987 15.623 18.75 16.043 18.75C16.631 18.75 17.079 18.6707 17.387 18.512C17.695 18.3533 17.849 18.1433 17.849 17.882C17.849 17.4807 17.611 17.28 17.135 17.28H15.455C14.9977 17.28 14.629 17.2053 14.349 17.056C14.069 16.9067 13.8637 16.7153 13.733 16.482C13.6023 16.2393 13.537 15.9873 13.537 15.726C13.537 15.4553 13.593 15.2033 13.705 14.97C13.8263 14.7273 13.9897 14.5033 14.195 14.298C13.859 14.0927 13.5883 13.8173 13.383 13.472C13.187 13.1267 13.089 12.7113 13.089 12.226C13.089 11.6753 13.2057 11.218 13.439 10.854C13.6723 10.49 13.9897 10.2193 14.391 10.042C14.8017 9.85531 15.2543 9.76198 15.749 9.76198H15.987C16.1737 9.76198 16.3557 9.77598 16.533 9.80398C16.7103 9.82265 16.8783 9.85531 17.037 9.90198H19.571V11.274L18.171 11.05C18.311 11.1993 18.4183 11.386 18.493 11.61C18.577 11.8247 18.619 12.0907 18.619 12.408C18.619 12.884 18.4977 13.2947 18.255 13.64C18.0217 13.976 17.7043 14.2373 17.303 14.424C16.911 14.6013 16.4723 14.69 15.987 14.69H15.749C15.5623 14.69 15.385 14.676 15.217 14.648C15.1143 14.76 15.0397 14.8767 14.993 14.998C14.9463 15.11 14.923 15.2173 14.923 15.32C14.923 15.6467 15.133 15.81 15.553 15.81H17.261C17.905 15.81 18.423 15.978 18.815 16.314C19.2163 16.6407 19.417 17.1073 19.417 17.714ZM15.987 13.374C16.2763 13.374 16.5283 13.276 16.743 13.08C16.967 12.884 17.079 12.5993 17.079 12.226C17.079 11.8527 16.967 11.568 16.743 11.372C16.5283 11.176 16.2763 11.078 15.987 11.078H15.749C15.4503 11.078 15.189 11.176 14.965 11.372C14.7503 11.568 14.643 11.8527 14.643 12.226C14.643 12.5993 14.7503 12.884 14.965 13.08C15.189 13.276 15.4503 13.374 15.749 13.374H15.987Z" fill="white"/>
</svg>
