<svg width="24" height="24" viewBox="0 0 24 24" fill="none" xmlns="http://www.w3.org/2000/svg">
<path d="M4.01527 17.0002H1.70845L6.91371 6.81836H9.68786L11.5075 17.0002H9.20064L7.96271 9.14507H7.88317L4.01527 17.0002ZM4.54226 12.9981H9.99112L9.70277 14.6785H4.25391L4.54226 12.9981ZM15.3008 20.0229C14.6114 20.0229 14.0363 19.9285 13.5756 19.7395C13.1183 19.5539 12.7702 19.3004 12.5316 18.9789C12.2963 18.6574 12.167 18.2961 12.1438 17.8951L14.1523 17.6316C14.1888 17.7874 14.2584 17.9315 14.3612 18.0641C14.4672 18.1967 14.618 18.3028 14.8136 18.3823C15.0124 18.4618 15.2693 18.5016 15.5842 18.5016C16.0449 18.5016 16.4459 18.3889 16.7873 18.1636C17.1287 17.9415 17.3391 17.5686 17.4187 17.0449L17.6474 15.6479H17.5579C17.4319 15.86 17.2596 16.0606 17.0408 16.2495C16.8254 16.4384 16.5619 16.5925 16.2504 16.7118C15.9421 16.8312 15.5858 16.8908 15.1815 16.8908C14.6048 16.8908 14.1043 16.7582 13.68 16.4931C13.2591 16.2246 12.9542 15.8153 12.7653 15.2651C12.5797 14.7116 12.5565 14.0123 12.6957 13.1671C12.8415 12.302 13.1033 11.5795 13.4812 10.9995C13.859 10.4195 14.3065 9.98527 14.8235 9.69691C15.3406 9.40856 15.8791 9.26438 16.4393 9.26438C16.8668 9.26438 17.2115 9.3373 17.4734 9.48313C17.7385 9.62565 17.9424 9.80463 18.0849 10.0201C18.2274 10.2322 18.3285 10.441 18.3881 10.6465H18.4727L18.6815 9.36382H20.7844L19.5018 17.0748C19.399 17.7277 19.1521 18.2713 18.761 18.7055C18.3732 19.143 17.881 19.4711 17.2844 19.6898C16.6879 19.9119 16.0266 20.0229 15.3008 20.0229ZM16.0962 15.2999C16.4343 15.2999 16.7376 15.2154 17.006 15.0464C17.2778 14.874 17.5049 14.6288 17.6871 14.3106C17.8694 13.9891 17.997 13.6046 18.07 13.1572C18.1429 12.7097 18.1412 12.3219 18.065 11.9938C17.9921 11.6624 17.8496 11.4055 17.6374 11.2232C17.4286 11.0409 17.1535 10.9498 16.8121 10.9498C16.4608 10.9498 16.1526 11.0442 15.8874 11.2332C15.6223 11.4188 15.4019 11.6773 15.2262 12.0087C15.0539 12.3402 14.9329 12.723 14.8633 13.1572C14.7904 13.598 14.7871 13.9791 14.8533 14.3006C14.9229 14.6188 15.0605 14.8657 15.266 15.0414C15.4715 15.2137 15.7482 15.2999 16.0962 15.2999Z" fill="white"/>
</svg>
