<svg width="24" height="24" viewBox="0 0 24 24" fill="none" xmlns="http://www.w3.org/2000/svg">
<path d="M5.32067 17.0002H2.67578L6.11115 6.81836H9.38743L12.8228 17.0002H10.1779L7.78658 9.3837H7.70703L5.32067 17.0002ZM4.96768 12.9931H10.4961V14.8624H4.96768V12.9931ZM17.0002 20.0229C16.2743 20.0229 15.6529 19.9218 15.1358 19.7197C14.6188 19.5175 14.2128 19.2407 13.9178 18.8894C13.6228 18.5381 13.4455 18.1404 13.3858 17.6962L15.6877 17.567C15.7308 17.7227 15.8103 17.8586 15.9263 17.9746C16.0456 18.0906 16.1998 18.1801 16.3887 18.2431C16.5809 18.3061 16.8063 18.3376 17.0648 18.3376C17.4725 18.3376 17.8089 18.2381 18.074 18.0393C18.3425 17.8437 18.4767 17.5007 18.4767 17.0101V15.6678H18.3922C18.2961 15.9031 18.1503 16.1136 17.9547 16.2992C17.7592 16.4848 17.5156 16.6306 17.2239 16.7367C16.9355 16.8428 16.6041 16.8958 16.2296 16.8958C15.6728 16.8958 15.1623 16.7665 14.6983 16.508C14.2376 16.2462 13.8681 15.8418 13.5897 15.2949C13.3146 14.7448 13.177 14.0371 13.177 13.1721C13.177 12.2805 13.3195 11.5464 13.6046 10.9697C13.8896 10.3896 14.2625 9.96041 14.7232 9.682C15.1872 9.40359 15.686 9.26438 16.2196 9.26438C16.6207 9.26438 16.9637 9.33399 17.2488 9.47319C17.5371 9.60908 17.7741 9.78474 17.9597 10.0002C18.1453 10.2156 18.2862 10.4394 18.3823 10.6714H18.4519V9.36382H20.873V17.03C20.873 17.6763 20.7106 18.2216 20.3858 18.6657C20.061 19.1098 19.6069 19.4462 19.0236 19.6749C18.4403 19.9069 17.7658 20.0229 17.0002 20.0229ZM17.0748 15.1259C17.3697 15.1259 17.6216 15.048 17.8304 14.8922C18.0392 14.7365 18.2 14.5127 18.3127 14.2211C18.4254 13.9294 18.4817 13.5797 18.4817 13.1721C18.4817 12.7578 18.4254 12.4015 18.3127 12.1032C18.2033 11.8016 18.0426 11.5696 17.8304 11.4072C17.6216 11.2448 17.3697 11.1636 17.0748 11.1636C16.7731 11.1636 16.5179 11.2464 16.3091 11.4121C16.1003 11.5779 15.9412 11.8115 15.8319 12.1131C15.7258 12.4114 15.6728 12.7644 15.6728 13.1721C15.6728 13.5797 15.7275 13.9294 15.8368 14.2211C15.9462 14.5127 16.1036 14.7365 16.3091 14.8922C16.5179 15.048 16.7731 15.1259 17.0748 15.1259Z" fill="white"/>
</svg>
