<svg width="24" height="24" viewBox="0 0 24 24" fill="none" xmlns="http://www.w3.org/2000/svg">
<path d="M10.5848 16.9999L9.04475 13.7659H3.33275L1.79275 16.9999H1.54075V16.9859L6.14675 7.18589H6.25875L10.8368 16.9859V16.9999H10.5848ZM8.94675 13.5279L6.20275 7.66189L3.43075 13.5279H8.94675ZM20.3794 9.69189C20.0247 8.84256 19.4974 8.24056 18.7974 7.88589C18.0974 7.52189 17.2901 7.33989 16.3754 7.33989C15.6941 7.34922 15.0734 7.47522 14.5134 7.71789C13.9534 7.95122 13.4727 8.27789 13.0714 8.69789C12.6794 9.11789 12.3714 9.61722 12.1474 10.1959C11.9327 10.7652 11.8254 11.3859 11.8254 12.0579C11.8254 12.7392 11.9281 13.3739 12.1334 13.9619C12.3481 14.5499 12.6514 15.0586 13.0434 15.4879C13.4354 15.9172 13.9114 16.2532 14.4714 16.4959C15.0407 16.7386 15.6754 16.8599 16.3754 16.8599C17.0474 16.8599 17.6587 16.7479 18.2094 16.5239C18.7601 16.2999 19.2314 15.9919 19.6234 15.5999C20.0154 15.1986 20.3234 14.7226 20.5474 14.1719C20.7714 13.6119 20.8927 13.0006 20.9114 12.3379H16.6134V12.1139H21.1494C21.1401 12.5619 21.0981 12.9819 21.0234 13.3739C20.9581 13.7659 20.8461 14.1346 20.6874 14.4799C20.3141 15.3012 19.7634 15.9452 19.0354 16.4119C18.3074 16.8786 17.4207 17.1119 16.3754 17.1119C15.6381 17.1119 14.9754 16.9859 14.3874 16.7339C13.7994 16.4726 13.2954 16.1132 12.8754 15.6559C12.4647 15.1986 12.1474 14.6666 11.9234 14.0599C11.6994 13.4439 11.5874 12.7766 11.5874 12.0579C11.5874 11.3579 11.7041 10.7046 11.9374 10.0979C12.1707 9.49122 12.4974 8.96389 12.9174 8.51589C13.3374 8.06789 13.8414 7.71789 14.4294 7.46589C15.0174 7.21389 15.6707 7.08789 16.3894 7.08789C17.3787 7.08789 18.2374 7.28856 18.9654 7.68989C19.7027 8.09122 20.2674 8.75856 20.6594 9.69189H20.3794Z" fill="white"/>
</svg>
