<svg width="24" height="24" viewBox="0 0 24 24" fill="none" xmlns="http://www.w3.org/2000/svg">
<path d="M9.77433 17.0002L9.17233 15.3762H5.95233L5.36433 17.0002H3.29233V16.7202L7.07233 7.10222H8.06633L11.8323 16.7202V17.0002H9.77433ZM7.56233 10.6022L7.00233 12.4502L6.58233 13.6122H8.52833L8.09433 12.4362L7.56233 10.6022ZM12.1069 12.1002C12.1069 11.3442 12.2095 10.6582 12.4149 10.0422C12.6202 9.42622 12.9095 8.89889 13.2829 8.46022C13.6562 8.02155 14.1042 7.68089 14.6269 7.43822C15.1495 7.19555 15.7329 7.07422 16.3769 7.07422C16.7875 7.07422 17.1935 7.13489 17.5949 7.25622C18.0055 7.37755 18.3789 7.56889 18.7149 7.83022C19.0602 8.09155 19.3589 8.42755 19.6109 8.83822C19.8722 9.23955 20.0589 9.72489 20.1709 10.2942H18.2109C18.0242 9.81822 17.7815 9.47755 17.4829 9.27222C17.1935 9.06689 16.8249 8.96422 16.3769 8.96422C16.0409 8.96422 15.7329 9.03889 15.4529 9.18822C15.1729 9.33755 14.9302 9.55222 14.7249 9.83222C14.5289 10.1029 14.3749 10.4342 14.2629 10.8262C14.1602 11.2089 14.1089 11.6335 14.1089 12.1002C14.1089 12.5669 14.1602 12.9962 14.2629 13.3882C14.3749 13.7709 14.5289 14.0975 14.7249 14.3682C14.9302 14.6389 15.1729 14.8489 15.4529 14.9982C15.7329 15.1475 16.0409 15.2222 16.3769 15.2222C16.6289 15.2222 16.8669 15.1942 17.0909 15.1382C17.3149 15.0822 17.5155 14.9842 17.6929 14.8442C17.8795 14.6949 18.0335 14.4989 18.1549 14.2562C18.2855 14.0135 18.3789 13.7102 18.4349 13.3462H16.4189V11.5822H20.3249C20.3529 12.0582 20.3529 12.5249 20.3249 12.9822C20.3062 13.4302 20.2269 13.8782 20.0869 14.3262C19.9282 14.8209 19.7182 15.2455 19.4569 15.6002C19.2049 15.9549 18.9155 16.2442 18.5889 16.4682C18.2622 16.6922 17.9075 16.8602 17.5249 16.9722C17.1515 17.0749 16.7689 17.1262 16.3769 17.1262C15.7329 17.1262 15.1495 17.0049 14.6269 16.7622C14.1042 16.5195 13.6562 16.1789 13.2829 15.7402C12.9095 15.3015 12.6202 14.7742 12.4149 14.1582C12.2095 13.5422 12.1069 12.8562 12.1069 12.1002Z" fill="white"/>
</svg>
