<svg width="24" height="24" viewBox="0 0 24 24" fill="none" xmlns="http://www.w3.org/2000/svg">
<path d="M4.58826 16.9999V16.9159L8.49426 7.17188H8.78826L12.6523 16.9159V16.9999H11.9663L10.8603 14.1719H6.39426L5.28826 16.9999H4.58826ZM8.63426 8.33387L6.61826 13.5559H10.6363L8.63426 8.33387ZM13.9205 19.1699C14.2378 19.4126 14.5738 19.5946 14.9285 19.7159C15.2831 19.8372 15.6378 19.8979 15.9925 19.8979C16.2818 19.8979 16.5571 19.8466 16.8185 19.7439C17.0798 19.6506 17.3038 19.4966 17.4905 19.2819C17.6865 19.0766 17.8405 18.8059 17.9525 18.4699C18.0645 18.1432 18.1205 17.7512 18.1205 17.2939V15.6699C17.9058 16.1646 17.6258 16.5332 17.2805 16.7759C16.9351 17.0186 16.4965 17.1399 15.9645 17.1399C15.5538 17.1399 15.1851 17.0559 14.8585 16.8879C14.5411 16.7199 14.2705 16.4819 14.0465 16.1739C13.8225 15.8659 13.6498 15.4926 13.5285 15.0539C13.4165 14.6152 13.3605 14.1299 13.3605 13.5979C13.3605 13.0752 13.4351 12.5992 13.5845 12.1699C13.7338 11.7406 13.9438 11.3766 14.2145 11.0779C14.4945 10.7699 14.8258 10.5319 15.2085 10.3639C15.6005 10.1959 16.0298 10.1119 16.4965 10.1119C16.8885 10.1119 17.2665 10.1679 17.6305 10.2799C17.9945 10.3919 18.3538 10.5459 18.7085 10.7419V17.2939C18.7085 17.8539 18.6385 18.3346 18.4985 18.7359C18.3585 19.1466 18.1671 19.4779 17.9245 19.7299C17.6818 19.9912 17.3971 20.1826 17.0705 20.3039C16.7438 20.4346 16.3891 20.4999 16.0065 20.4999C15.6425 20.4999 15.2645 20.4346 14.8725 20.3039C14.4898 20.1826 14.1211 20.0052 13.7665 19.7719L13.9205 19.1699ZM18.0925 11.1339C17.8218 10.9752 17.5465 10.8632 17.2665 10.7979C16.9865 10.7326 16.7111 10.6999 16.4405 10.6999C16.0765 10.6999 15.7405 10.7699 15.4325 10.9099C15.1338 11.0499 14.8771 11.2459 14.6625 11.4979C14.4478 11.7499 14.2798 12.0579 14.1585 12.4219C14.0465 12.7766 13.9905 13.1686 13.9905 13.5979C13.9905 14.0459 14.0325 14.4519 14.1165 14.8159C14.2098 15.1706 14.3451 15.4786 14.5225 15.7399C14.6998 16.0012 14.9191 16.2019 15.1805 16.3419C15.4418 16.4819 15.7498 16.5519 16.1045 16.5519C16.4218 16.5519 16.7018 16.4632 16.9445 16.2859C17.1965 16.1086 17.4065 15.8799 17.5745 15.5999C17.7425 15.3199 17.8685 15.0072 17.9525 14.6619C18.0458 14.3072 18.0925 13.9526 18.0925 13.5979V11.1339Z" fill="white"/>
</svg>
