<svg width="24" height="24" viewBox="0 0 24 24" fill="none" xmlns="http://www.w3.org/2000/svg">
<path d="M3.34116 17.0001V16.8321L7.19116 7.13006H7.90516L11.7272 16.8181V17.0001H10.2012L9.44516 14.9701H5.62316L4.88116 17.0001H3.34116ZM8.95516 13.5981L8.38116 12.1141L7.54116 9.63606L6.68716 12.1421L6.12716 13.5981H8.95516ZM12.1153 12.0861C12.1153 11.2461 12.232 10.5134 12.4653 9.88806C12.6987 9.25339 13.0067 8.73073 13.3893 8.32006C13.7813 7.90006 14.2293 7.58739 14.7333 7.38206C15.2467 7.16739 15.7833 7.06006 16.3433 7.06006C16.754 7.06006 17.1553 7.11606 17.5473 7.22806C17.9393 7.33073 18.2987 7.50339 18.6253 7.74606C18.952 7.97939 19.2413 8.29673 19.4933 8.69806C19.7547 9.09006 19.9553 9.57073 20.0953 10.1401H18.5833C18.3687 9.52406 18.07 9.09939 17.6873 8.86606C17.314 8.62339 16.8613 8.50206 16.3293 8.50206C15.9093 8.50206 15.536 8.58606 15.2093 8.75406C14.8827 8.92206 14.6027 9.16006 14.3693 9.46806C14.1453 9.77606 13.9727 10.1541 13.8513 10.6021C13.73 11.0408 13.6693 11.5354 13.6693 12.0861C13.6693 12.6368 13.73 13.1361 13.8513 13.5841C13.982 14.0228 14.1593 14.4008 14.3833 14.7181C14.6167 15.0354 14.8967 15.2781 15.2233 15.4461C15.55 15.6141 15.9187 15.6981 16.3293 15.6981C16.656 15.6981 16.9593 15.6561 17.2393 15.5721C17.5287 15.4788 17.7807 15.3341 17.9953 15.1381C18.2193 14.9328 18.406 14.6621 18.5553 14.3261C18.714 13.9901 18.826 13.5701 18.8913 13.0661H16.4133V11.7081H20.3193C20.338 12.1841 20.3287 12.6414 20.2913 13.0801C20.2633 13.5094 20.1793 13.9388 20.0393 14.3681C19.8807 14.8348 19.6753 15.2408 19.4233 15.5861C19.1713 15.9314 18.882 16.2208 18.5553 16.4541C18.238 16.6874 17.888 16.8601 17.5053 16.9721C17.1227 17.0841 16.7307 17.1401 16.3293 17.1401C15.7693 17.1401 15.2327 17.0374 14.7193 16.8321C14.2153 16.6174 13.7673 16.3001 13.3753 15.8801C12.9927 15.4601 12.6847 14.9374 12.4513 14.3121C12.2273 13.6774 12.1153 12.9354 12.1153 12.0861Z" fill="white"/>
</svg>
