<svg width="24" height="24" viewBox="0 0 24 24" fill="none" xmlns="http://www.w3.org/2000/svg">
<path d="M3.67859 16.9999L3.69259 16.9159L9.43259 7.17188H9.72659L11.2946 16.9159L11.2806 16.9999H10.6366L10.2026 14.1719H6.00259L4.39259 16.9999H3.67859ZM9.34859 8.33387L6.36659 13.5559H10.1186L9.34859 8.33387ZM11.9456 19.2259C12.2069 19.4406 12.4823 19.6086 12.7716 19.7299C13.0703 19.8512 13.3783 19.9119 13.6956 19.9119C13.9849 19.9119 14.2649 19.8652 14.5356 19.7719C14.8063 19.6786 15.0583 19.5246 15.2916 19.3099C15.5249 19.1046 15.7256 18.8339 15.8936 18.4979C16.0709 18.1712 16.2109 17.7699 16.3136 17.2939L16.6636 15.6279C16.3463 16.1506 15.9963 16.5332 15.6136 16.7759C15.2403 17.0186 14.8016 17.1399 14.2976 17.1399C14.0083 17.1399 13.7469 17.0839 13.5136 16.9719C13.2803 16.8599 13.0796 16.6919 12.9116 16.4679C12.7529 16.2439 12.6363 15.9639 12.5616 15.6279C12.4869 15.2919 12.4683 14.8999 12.5056 14.4519C12.5616 13.7612 12.6969 13.1499 12.9116 12.6179C13.1356 12.0766 13.4156 11.6192 13.7516 11.2459C14.0969 10.8726 14.4889 10.5926 14.9276 10.4059C15.3663 10.2099 15.8283 10.1119 16.3136 10.1119C16.6869 10.1119 17.0323 10.1679 17.3496 10.2799C17.6763 10.3919 17.9843 10.5459 18.2736 10.7419L16.8736 17.3639C16.7523 17.9239 16.5843 18.3999 16.3696 18.7919C16.1643 19.1932 15.9263 19.5199 15.6556 19.7719C15.3849 20.0239 15.0863 20.2059 14.7596 20.3179C14.4423 20.4392 14.1109 20.4999 13.7656 20.4999C13.4109 20.4999 13.0563 20.4346 12.7016 20.3039C12.3563 20.1826 12.0203 20.0006 11.6936 19.7579L11.9456 19.2259ZM17.5876 11.1199C17.3636 10.9612 17.1256 10.8539 16.8736 10.7979C16.6309 10.7326 16.3836 10.6999 16.1316 10.6999C15.7489 10.6999 15.3849 10.7839 15.0396 10.9519C14.7036 11.1199 14.4003 11.3579 14.1296 11.6659C13.8683 11.9739 13.6489 12.3519 13.4716 12.7999C13.3036 13.2479 13.1916 13.7519 13.1356 14.3119C13.0609 15.0492 13.1449 15.6046 13.3876 15.9779C13.6396 16.3512 13.9989 16.5379 14.4656 16.5379C14.7829 16.5379 15.0816 16.4539 15.3616 16.2859C15.6509 16.1086 15.9076 15.8799 16.1316 15.5999C16.3649 15.3199 16.5609 15.0072 16.7196 14.6619C16.8783 14.3072 16.9949 13.9526 17.0696 13.5979L17.5876 11.1199Z" fill="white"/>
</svg>
