<svg width="24" height="24" viewBox="0 0 24 24" fill="none" xmlns="http://www.w3.org/2000/svg">
<path d="M10.38 17.0001L9.94605 15.7821H7.16005L6.72605 17.0001H4.19205V16.8461L7.95805 7.06006H9.16205L12.886 16.8461V17.0001H10.38ZM9.28805 13.7941C9.17605 13.4674 9.08271 13.1781 9.00805 12.9261C8.93338 12.6741 8.86805 12.4408 8.81205 12.2261C8.75605 12.0021 8.70471 11.7921 8.65805 11.5961C8.62071 11.4001 8.58338 11.1901 8.54605 10.9661C8.49005 11.2181 8.43871 11.4468 8.39205 11.6521C8.35471 11.8574 8.30805 12.0628 8.25205 12.2681C8.20538 12.4734 8.14938 12.6974 8.08405 12.9401C8.01871 13.1828 7.93471 13.4674 7.83205 13.7941H9.28805ZM13.7453 17.9941C13.9973 18.1528 14.2866 18.2881 14.6133 18.4001C14.94 18.5121 15.2573 18.5681 15.5653 18.5681C15.7613 18.5681 15.948 18.5401 16.1253 18.4841C16.3026 18.4281 16.4566 18.3348 16.5873 18.2041C16.718 18.0828 16.8206 17.9148 16.8953 17.7001C16.9793 17.4854 17.0213 17.2148 17.0213 16.8881V16.2021C16.8906 16.5568 16.69 16.8041 16.4193 16.9441C16.158 17.0748 15.8873 17.1401 15.6073 17.1401C14.8233 17.1401 14.2166 16.8508 13.7873 16.2721C13.3673 15.6934 13.1573 14.8628 13.1573 13.7801C13.1573 13.2294 13.2366 12.7301 13.3953 12.2821C13.5633 11.8341 13.7966 11.4514 14.0953 11.1341C14.394 10.8074 14.7533 10.5554 15.1733 10.3781C15.5933 10.2008 16.06 10.1121 16.5733 10.1121C17.0213 10.1121 17.4506 10.1681 17.8613 10.2801C18.2813 10.3921 18.6966 10.5414 19.1073 10.7281V16.8881C19.1073 17.5228 19.0233 18.0641 18.8553 18.5121C18.6873 18.9694 18.4633 19.3428 18.1833 19.6321C17.9033 19.9308 17.5766 20.1501 17.2033 20.2901C16.83 20.4301 16.438 20.5001 16.0273 20.5001C15.2153 20.5001 14.394 20.2481 13.5633 19.7441L13.7453 17.9941ZM16.9093 12.1841C16.6946 12.1001 16.5033 12.0581 16.3353 12.0581C16.046 12.0581 15.8126 12.2121 15.6353 12.5201C15.4673 12.8281 15.3833 13.2388 15.3833 13.7521C15.3833 13.9388 15.3973 14.1161 15.4253 14.2841C15.4533 14.4521 15.4953 14.6061 15.5513 14.7461C15.6166 14.8768 15.6913 14.9841 15.7753 15.0681C15.8686 15.1428 15.9806 15.1801 16.1113 15.1801C16.2513 15.1801 16.3726 15.1381 16.4753 15.0541C16.578 14.9608 16.6573 14.8441 16.7133 14.7041C16.7786 14.5548 16.8253 14.3868 16.8533 14.2001C16.8906 14.0041 16.9093 13.8081 16.9093 13.6121V12.1841Z" fill="white"/>
</svg>
