<svg width="24" height="24" viewBox="0 0 24 24" fill="none" xmlns="http://www.w3.org/2000/svg">
<path d="M5.12207 16.0205C4.93978 16.0205 4.80762 16.0046 4.72559 15.9727C4.64355 15.9362 4.60254 15.8838 4.60254 15.8154C4.60254 15.7835 4.61393 15.7288 4.63672 15.6514L7.51465 7.66016C7.56022 7.52799 7.72201 7.46191 8 7.46191H8.35547C8.63346 7.46191 8.79525 7.52799 8.84082 7.66016L11.7188 15.6582C11.7415 15.7083 11.7529 15.7607 11.7529 15.8154C11.7529 15.9521 11.582 16.0205 11.2402 16.0205H11.1377C10.8551 16.0205 10.6911 15.9567 10.6455 15.8291L9.93457 13.833H6.36621L5.66895 15.8291C5.62793 15.9567 5.46615 16.0205 5.18359 16.0205H5.12207ZM9.60645 12.9102L8.33496 9.29395C8.2985 9.19368 8.26888 9.07975 8.24609 8.95215C8.22331 8.82454 8.2028 8.7015 8.18457 8.58301H8.15723C8.10254 8.88835 8.04102 9.12533 7.97266 9.29395L6.70117 12.9102H9.60645ZM14.9795 18.5771C14.2048 18.5771 13.5918 18.4564 13.1406 18.2148C12.6895 17.9733 12.4639 17.5928 12.4639 17.0732C12.4639 16.7178 12.5664 16.4079 12.7715 16.1436C12.9766 15.8792 13.2432 15.681 13.5713 15.5488L13.585 15.5215C13.4255 15.3984 13.3024 15.2572 13.2158 15.0977C13.1338 14.9382 13.0928 14.749 13.0928 14.5303C13.0928 14.0016 13.3206 13.5778 13.7764 13.2588C13.4346 13.0947 13.1748 12.8646 12.9971 12.5684C12.8193 12.2676 12.7305 11.9303 12.7305 11.5566C12.7305 11.1829 12.8216 10.8457 13.0039 10.5449C13.1908 10.2441 13.4642 10.0072 13.8242 9.83398C14.1842 9.66081 14.6172 9.57422 15.123 9.57422C15.3919 9.57422 15.6312 9.59701 15.8408 9.64258H18.0488C18.1354 9.64258 18.1969 9.6722 18.2334 9.73145C18.2744 9.78613 18.2949 9.87728 18.2949 10.0049V10.1553C18.2949 10.2829 18.2744 10.3763 18.2334 10.4355C18.1969 10.4902 18.1354 10.5176 18.0488 10.5176C17.7435 10.5176 17.4609 10.5062 17.2012 10.4834L17.1875 10.5039C17.2923 10.6497 17.3698 10.8138 17.4199 10.9961C17.4746 11.1738 17.502 11.3607 17.502 11.5566C17.502 11.9303 17.4085 12.2676 17.2217 12.5684C17.0394 12.8691 16.7682 13.1061 16.4082 13.2793C16.0527 13.4525 15.6198 13.5391 15.1094 13.5391C14.7266 13.5527 14.4372 13.6234 14.2412 13.751C14.0498 13.8786 13.9541 14.0882 13.9541 14.3799C13.9541 14.5941 14.0225 14.7581 14.1592 14.8721C14.3005 14.986 14.4759 15.0658 14.6855 15.1113C14.8952 15.1569 15.1868 15.2002 15.5605 15.2412L15.916 15.2822C16.2943 15.3324 16.611 15.4007 16.8662 15.4873C17.1214 15.5739 17.3311 15.7174 17.4951 15.918C17.6637 16.1185 17.748 16.3942 17.748 16.7451C17.748 17.333 17.5133 17.7842 17.0439 18.0986C16.5745 18.4176 15.8864 18.5771 14.9795 18.5771ZM15.1094 12.7324C15.556 12.7324 15.9115 12.6413 16.1758 12.459C16.4401 12.2767 16.5723 11.9782 16.5723 11.5635C16.5723 10.7796 16.0846 10.3877 15.1094 10.3877C14.1478 10.3877 13.667 10.7796 13.667 11.5635C13.667 11.9782 13.7969 12.2767 14.0566 12.459C14.321 12.6413 14.6719 12.7324 15.1094 12.7324ZM15.1094 17.75C15.6745 17.75 16.0938 17.6748 16.3672 17.5244C16.6406 17.3786 16.7773 17.1553 16.7773 16.8545C16.7773 16.6585 16.7044 16.5059 16.5586 16.3965C16.4128 16.2917 16.2327 16.2165 16.0186 16.1709C15.8089 16.1299 15.5309 16.0911 15.1846 16.0547C14.9476 16.0273 14.7516 16.0023 14.5967 15.9795C14.4463 15.9567 14.3073 15.9248 14.1797 15.8838C13.6419 16.1117 13.373 16.4421 13.373 16.875C13.373 17.4583 13.9518 17.75 15.1094 17.75Z" fill="white"/>
</svg>
