<svg width="24" height="24" viewBox="0 0 24 24" fill="none" xmlns="http://www.w3.org/2000/svg">
<path d="M3.95947 16.9998L6.70347 6.77979H7.90747L10.6515 16.9998H9.71347L8.97147 14.1438H5.62547L4.89747 16.9998H3.95947ZM5.83547 13.3458H8.76147L7.78147 9.60778C7.64147 9.06645 7.52947 8.61378 7.44547 8.24978C7.3708 7.88578 7.32414 7.64778 7.30547 7.53578C7.2868 7.64778 7.23547 7.88578 7.15147 8.24978C7.06747 8.61378 6.95547 9.06645 6.81547 9.60778L5.83547 13.3458ZM13.866 19.5198V18.6798H16.064C16.5493 18.6798 16.9133 18.5585 17.156 18.3158C17.408 18.0731 17.534 17.7138 17.534 17.2378V16.4678L17.548 14.9418H17.296L17.59 14.4798C17.59 15.0865 17.394 15.5718 17.002 15.9358C16.61 16.2905 16.0873 16.4678 15.434 16.4678C14.65 16.4678 14.0247 16.2111 13.558 15.6978C13.1007 15.1845 12.872 14.5031 12.872 13.6538V11.9878C12.872 11.1291 13.1007 10.4431 13.558 9.92979C14.0247 9.41646 14.65 9.15978 15.434 9.15978C16.0873 9.15978 16.61 9.34179 17.002 9.70579C17.394 10.0605 17.59 10.5411 17.59 11.1478L17.338 10.6858H17.534V9.29979H18.458V17.2378C18.458 17.9751 18.248 18.5398 17.828 18.9318C17.4173 19.3238 16.8247 19.5198 16.05 19.5198H13.866ZM15.658 15.6698C16.2553 15.6698 16.7173 15.4878 17.044 15.1238C17.3707 14.7598 17.534 14.2605 17.534 13.6258V12.0158C17.534 11.3718 17.3707 10.8678 17.044 10.5038C16.7173 10.1398 16.2553 9.95779 15.658 9.95779C15.07 9.95779 14.6127 10.1398 14.286 10.5038C13.9593 10.8585 13.796 11.3625 13.796 12.0158V13.6258C13.796 14.2698 13.9593 14.7738 14.286 15.1378C14.6127 15.4925 15.07 15.6698 15.658 15.6698Z" fill="white"/>
</svg>
