<svg width="24" height="24" viewBox="0 0 24 24" fill="none" xmlns="http://www.w3.org/2000/svg">
<path d="M2.97947 16.9998L7.17947 6.77979H9.43347L10.3995 16.9998H8.66347L8.49547 14.5218H5.77947L4.82747 16.9998H2.97947ZM6.31147 13.0938H8.39747L8.21547 10.3498C8.18747 9.89246 8.15947 9.48179 8.13147 9.11778C8.1128 8.74445 8.10347 8.47378 8.10347 8.30578C8.04747 8.47378 7.95414 8.74445 7.82347 9.11778C7.70214 9.48179 7.55747 9.88779 7.38947 10.3358L6.31147 13.0938ZM12.606 19.5198L12.844 18.0638H15.126C15.518 18.0638 15.826 17.9658 16.05 17.7698C16.2833 17.5831 16.4327 17.3125 16.498 16.9578L16.582 16.3838L16.848 14.9418H16.456L16.904 14.5638C16.792 15.1891 16.526 15.6791 16.106 16.0338C15.686 16.3791 15.1633 16.5518 14.538 16.5518C13.754 16.5518 13.1707 16.2858 12.788 15.7538C12.4053 15.2218 12.2887 14.5031 12.438 13.5978L12.676 12.0998C12.7693 11.5025 12.956 10.9845 13.236 10.5458C13.516 10.1071 13.866 9.76646 14.286 9.52379C14.7153 9.28112 15.1867 9.15978 15.7 9.15978C16.3347 9.15978 16.806 9.33712 17.114 9.69179C17.4313 10.0371 17.5387 10.5225 17.436 11.1478L17.1 10.7698H17.492L17.688 9.29979H19.438L18.22 16.9998C18.0893 17.7745 17.73 18.3858 17.142 18.8338C16.5633 19.2911 15.826 19.5198 14.93 19.5198H12.606ZM15.364 15.0398C15.812 15.0398 16.1807 14.9091 16.47 14.6478C16.7593 14.3771 16.946 14.0038 17.03 13.5278L17.226 12.1838C17.31 11.7078 17.2447 11.3391 17.03 11.0778C16.8247 10.8071 16.5027 10.6718 16.064 10.6718C15.6067 10.6718 15.238 10.8025 14.958 11.0638C14.678 11.3251 14.496 11.6985 14.412 12.1838L14.202 13.5278C14.1273 14.0131 14.188 14.3865 14.384 14.6478C14.5893 14.9091 14.916 15.0398 15.364 15.0398Z" fill="white"/>
</svg>
