<svg width="24" height="24" viewBox="0 0 24 24" fill="none" xmlns="http://www.w3.org/2000/svg">
<path d="M3.09147 16.9998L7.31947 6.77979H9.30747L10.2875 16.9998H8.80347L8.60747 14.4098H5.70947L4.67347 16.9998H3.09147ZM6.18547 13.1638H8.50947L8.27147 10.2098C8.23414 9.68711 8.20147 9.23446 8.17347 8.85179C8.1548 8.45979 8.14547 8.19378 8.14547 8.05378C8.0988 8.19378 8.00547 8.45979 7.86547 8.85179C7.7348 9.23446 7.5668 9.68246 7.36147 10.1958L6.18547 13.1638ZM12.69 19.5198L12.886 18.2178H15.252C15.644 18.2178 15.952 18.1245 16.176 17.9378C16.4 17.7511 16.54 17.4758 16.596 17.1118L16.722 16.3418L16.974 14.9138H16.652L17.016 14.6338C16.9133 15.2218 16.652 15.6838 16.232 16.0198C15.812 16.3558 15.2893 16.5238 14.664 16.5238C13.8707 16.5238 13.2827 16.2625 12.9 15.7398C12.5267 15.2171 12.41 14.5125 12.55 13.6258L12.802 12.0578C12.8953 11.4605 13.0773 10.9471 13.348 10.5178C13.628 10.0885 13.978 9.75712 14.398 9.52379C14.8273 9.28112 15.3033 9.15978 15.826 9.15978C16.4513 9.15978 16.9227 9.33246 17.24 9.67779C17.5573 10.0138 17.6693 10.4758 17.576 11.0638L17.296 10.7698H17.618L17.828 9.29979H19.326L18.094 17.1398C17.9727 17.8771 17.6413 18.4558 17.1 18.8758C16.568 19.3051 15.8867 19.5198 15.056 19.5198H12.69ZM15.35 15.2218C15.8353 15.2218 16.2367 15.0771 16.554 14.7878C16.8713 14.4891 17.0767 14.0785 17.17 13.5558L17.38 12.1418C17.4733 11.6191 17.4033 11.2131 17.17 10.9238C16.9367 10.6251 16.582 10.4758 16.106 10.4758C15.6113 10.4758 15.2053 10.6205 14.888 10.9098C14.58 11.1898 14.384 11.6005 14.3 12.1418L14.076 13.5558C13.992 14.0878 14.062 14.4985 14.286 14.7878C14.51 15.0771 14.8647 15.2218 15.35 15.2218Z" fill="white"/>
</svg>
