<svg width="24" height="24" viewBox="0 0 24 24" fill="none" xmlns="http://www.w3.org/2000/svg">
<path d="M13.0654 17H9.08691V16.7129C9.22363 16.7129 9.33757 16.7129 9.42871 16.7129C9.51986 16.7038 9.59277 16.6947 9.64746 16.6855C9.71126 16.6673 9.76595 16.6536 9.81152 16.6445C9.8571 16.6263 9.90267 16.6035 9.94824 16.5762C10.0212 16.5306 10.0758 16.4759 10.1123 16.4121C10.1579 16.3392 10.1807 16.2663 10.1807 16.1934C10.1807 15.9382 10.0804 15.5827 9.87988 15.127L9.22363 13.6367H5.14941L4.4248 15.4551C4.38835 15.5553 4.35645 15.6602 4.3291 15.7695C4.31087 15.8698 4.30176 15.9701 4.30176 16.0703C4.30176 16.2799 4.38379 16.4395 4.54785 16.5488C4.71191 16.6582 4.98535 16.7129 5.36816 16.7129V17H2.26465V16.7129C2.45605 16.7038 2.62012 16.6719 2.75684 16.6172C2.89355 16.5625 3.03027 16.4486 3.16699 16.2754C3.30371 16.0931 3.44954 15.8379 3.60449 15.5098C3.76855 15.1725 3.97363 14.7168 4.21973 14.1426L7.45996 6.48633H7.76074L11.6572 15.3457C11.7848 15.6374 11.8942 15.8698 11.9854 16.043C12.0856 16.2161 12.1859 16.3529 12.2861 16.4531C12.3864 16.5443 12.4958 16.6081 12.6143 16.6445C12.7419 16.681 12.8923 16.7038 13.0654 16.7129V17ZM9.01855 13.0078L7.21387 8.70117L5.40918 13.0078H9.01855ZM19.2178 10.9297C19.318 11.194 19.3864 11.4264 19.4229 11.627C19.4684 11.8184 19.4912 12.0326 19.4912 12.2695C19.4912 12.5977 19.4274 12.9076 19.2998 13.1992C19.1722 13.4909 18.999 13.7507 18.7803 13.9785C18.5615 14.1973 18.3063 14.375 18.0146 14.5117C17.723 14.6393 17.4085 14.7031 17.0713 14.7031C17.0257 14.7031 16.9482 14.6986 16.8389 14.6895C16.7386 14.6803 16.6201 14.6667 16.4834 14.6484L16.1826 14.6074C16.0732 14.6348 15.9639 14.6895 15.8545 14.7715C15.7451 14.8444 15.6449 14.931 15.5537 15.0312C15.4626 15.1224 15.3851 15.2181 15.3213 15.3184C15.2666 15.4186 15.2393 15.5098 15.2393 15.5918C15.2393 15.7103 15.335 15.806 15.5264 15.8789C15.7269 15.9427 16.0413 15.9837 16.4697 16.002L18.4795 16.0977C19.0537 16.125 19.5094 16.2891 19.8467 16.5898C20.1839 16.8815 20.3525 17.2689 20.3525 17.752C20.3525 18.2077 20.2158 18.5996 19.9424 18.9277C19.6689 19.265 19.3271 19.543 18.917 19.7617C18.5068 19.9805 18.0648 20.14 17.5908 20.2402C17.126 20.3496 16.6976 20.4043 16.3057 20.4043C15.932 20.4043 15.5811 20.3633 15.2529 20.2812C14.9248 20.2083 14.6377 20.1035 14.3916 19.9668C14.1455 19.8301 13.9495 19.6706 13.8037 19.4883C13.667 19.306 13.5986 19.11 13.5986 18.9004C13.5986 18.6087 13.7126 18.3171 13.9404 18.0254C14.1774 17.7337 14.5785 17.3874 15.1436 16.9863C14.8154 16.8314 14.5921 16.6992 14.4736 16.5898C14.3643 16.4714 14.3096 16.3255 14.3096 16.1523C14.3096 15.9974 14.3643 15.8424 14.4736 15.6875C14.5921 15.5234 14.779 15.3229 15.0342 15.0859L15.7041 14.457C15.1755 14.2018 14.7972 13.9147 14.5693 13.5957C14.3506 13.2676 14.2412 12.8574 14.2412 12.3652C14.2412 12.0098 14.3096 11.6771 14.4463 11.3672C14.583 11.0482 14.7653 10.7747 14.9932 10.5469C15.2301 10.3099 15.5081 10.123 15.8271 9.98633C16.1462 9.84961 16.4834 9.78125 16.8389 9.78125C17.2581 9.78125 17.6774 9.85872 18.0967 10.0137L18.4521 10.1504C18.6071 10.2051 18.7484 10.2552 18.876 10.3008C19.0127 10.3372 19.1585 10.3555 19.3135 10.3555H20.5166V10.9297H19.2178ZM15.4717 17.041C15.3167 17.2233 15.1891 17.3783 15.0889 17.5059C14.9886 17.6335 14.9111 17.7474 14.8564 17.8477C14.8018 17.9479 14.7607 18.0391 14.7334 18.1211C14.7152 18.2031 14.7061 18.2897 14.7061 18.3809C14.7061 18.7272 14.9066 19.0007 15.3076 19.2012C15.7178 19.4108 16.2692 19.5156 16.9619 19.5156C17.4085 19.5156 17.8141 19.4792 18.1787 19.4062C18.5433 19.3333 18.8532 19.2285 19.1084 19.0918C19.3727 18.9642 19.5732 18.8047 19.71 18.6133C19.8558 18.431 19.9287 18.2259 19.9287 17.998C19.9287 17.7155 19.7829 17.5195 19.4912 17.4102C19.1995 17.3008 18.7028 17.2461 18.001 17.2461C17.8096 17.2461 17.5908 17.237 17.3447 17.2188C17.1077 17.2096 16.8708 17.196 16.6338 17.1777C16.4059 17.1595 16.1872 17.1367 15.9775 17.1094C15.777 17.0911 15.6084 17.0684 15.4717 17.041ZM15.54 11.7773C15.54 12.151 15.5765 12.4974 15.6494 12.8164C15.7314 13.1263 15.8408 13.3952 15.9775 13.623C16.1234 13.8418 16.292 14.015 16.4834 14.1426C16.6839 14.2611 16.9072 14.3203 17.1533 14.3203C17.4997 14.3203 17.7777 14.1927 17.9873 13.9375C18.1969 13.6732 18.3018 13.3223 18.3018 12.8848C18.3018 12.5658 18.2607 12.2422 18.1787 11.9141C18.1058 11.5859 17.9964 11.2852 17.8506 11.0117C17.723 10.7656 17.5589 10.5742 17.3584 10.4375C17.1579 10.2917 16.9391 10.2188 16.7021 10.2188C16.3376 10.2188 16.0505 10.3555 15.8408 10.6289C15.6403 10.9023 15.54 11.2669 15.54 11.7227V11.7773Z" fill="white"/>
</svg>
