<svg width="24" height="24" viewBox="0 0 24 24" fill="none" xmlns="http://www.w3.org/2000/svg">
<path d="M2.46683 17L7.11483 6.29004H7.22683L11.8748 17H9.52283L6.55483 9.46804L8.02483 8.46004L4.46883 17H2.46683ZM5.64483 13.276H8.73883L9.45283 14.984H5.01483L5.64483 13.276ZM16.0138 20.08C15.4631 20.08 14.9965 20.0147 14.6138 19.884C14.2405 19.7533 13.9231 19.5947 13.6618 19.408C13.4005 19.2213 13.1671 19.044 12.9618 18.876L14.1098 17.532C14.3245 17.728 14.5718 17.9147 14.8518 18.092C15.1411 18.2787 15.5191 18.372 15.9858 18.372C16.2938 18.372 16.5785 18.316 16.8398 18.204C17.1105 18.1013 17.3251 17.9473 17.4838 17.742C17.6518 17.5367 17.7358 17.28 17.7358 16.972V15.628L17.8058 15.978C17.6565 16.2953 17.3858 16.5753 16.9938 16.818C16.6018 17.0513 16.0885 17.168 15.4538 17.168C14.9031 17.168 14.3898 17.028 13.9138 16.748C13.4471 16.4587 13.0738 16.0713 12.7938 15.586C12.5138 15.0913 12.3738 14.5313 12.3738 13.906C12.3738 13.262 12.5231 12.6927 12.8218 12.198C13.1205 11.694 13.5078 11.2973 13.9838 11.008C14.4598 10.7187 14.9638 10.574 15.4958 10.574C16.0278 10.574 16.4851 10.6533 16.8678 10.812C17.2598 10.9613 17.5538 11.148 17.7498 11.372L17.6798 11.554L17.8898 10.882H19.6958V17C19.6958 17.5973 19.5278 18.1247 19.1918 18.582C18.8558 19.0487 18.4078 19.4127 17.8478 19.674C17.2971 19.9447 16.6858 20.08 16.0138 20.08ZM14.3478 13.85C14.3478 14.1767 14.4225 14.4707 14.5718 14.732C14.7211 14.9933 14.9218 15.1987 15.1738 15.348C15.4351 15.4973 15.7245 15.572 16.0418 15.572C16.3125 15.572 16.5505 15.5393 16.7558 15.474C16.9705 15.3993 17.1571 15.2967 17.3158 15.166C17.4838 15.026 17.6238 14.8533 17.7358 14.648V13.15C17.6518 12.9447 17.5258 12.772 17.3578 12.632C17.1898 12.4827 16.9938 12.3707 16.7698 12.296C16.5551 12.212 16.3125 12.17 16.0418 12.17C15.7245 12.17 15.4351 12.2447 15.1738 12.394C14.9218 12.534 14.7211 12.73 14.5718 12.982C14.4225 13.234 14.3478 13.5233 14.3478 13.85Z" fill="white"/>
</svg>
