<svg width="24" height="24" viewBox="0 0 24 24" fill="none" xmlns="http://www.w3.org/2000/svg">
<path d="M2.73737 16.0002L7.24537 5.38818H7.34337L11.8514 16.0002H9.97537L6.79737 7.95018L7.97337 7.15218L4.34737 16.0002H2.73737ZM5.56537 12.2202H9.05137L9.61137 13.6062H5.07537L5.56537 12.2202ZM16.0584 18.9542C15.573 18.9542 15.1577 18.8982 14.8124 18.7862C14.467 18.6742 14.159 18.5249 13.8884 18.3382C13.627 18.1609 13.3797 17.9742 13.1464 17.7782L14.0704 16.7002C14.341 16.9522 14.6257 17.1622 14.9244 17.3302C15.2324 17.4982 15.601 17.5822 16.0304 17.5822C16.413 17.5822 16.7444 17.5169 17.0244 17.3862C17.3137 17.2555 17.5377 17.0735 17.6964 16.8402C17.855 16.6069 17.939 16.3269 17.9484 16.0002V14.5302L18.0464 14.8242C17.8877 15.1882 17.5984 15.5009 17.1784 15.7622C16.7584 16.0235 16.2357 16.1542 15.6104 16.1542C15.069 16.1542 14.5697 16.0189 14.1124 15.7482C13.655 15.4682 13.291 15.0902 13.0204 14.6142C12.7497 14.1382 12.6144 13.6015 12.6144 13.0042C12.6144 12.3882 12.7544 11.8422 13.0344 11.3662C13.3237 10.8809 13.7017 10.5029 14.1684 10.2322C14.6444 9.95218 15.1484 9.81218 15.6804 9.81218C16.203 9.81218 16.665 9.90551 17.0664 10.0922C17.477 10.2789 17.785 10.5122 17.9904 10.7922L17.9064 11.0162L18.0744 10.0782H19.5164V16.0282C19.5164 16.5789 19.367 17.0735 19.0684 17.5122C18.779 17.9602 18.373 18.3102 17.8504 18.5622C17.337 18.8235 16.7397 18.9542 16.0584 18.9542ZM14.1964 12.9622C14.1964 13.3169 14.2757 13.6389 14.4344 13.9282C14.6024 14.2175 14.8264 14.4462 15.1064 14.6142C15.3957 14.7822 15.7177 14.8662 16.0724 14.8662C16.3804 14.8662 16.6557 14.8149 16.8984 14.7122C17.1504 14.6095 17.365 14.4649 17.5424 14.2782C17.729 14.0915 17.8644 13.8722 17.9484 13.6202V12.3322C17.8644 12.0802 17.729 11.8655 17.5424 11.6882C17.365 11.5015 17.1504 11.3569 16.8984 11.2542C16.6557 11.1515 16.3804 11.1002 16.0724 11.1002C15.7177 11.1002 15.3957 11.1795 15.1064 11.3382C14.8264 11.4969 14.6024 11.7162 14.4344 11.9962C14.2757 12.2762 14.1964 12.5982 14.1964 12.9622Z" fill="white"/>
</svg>
