<svg width="24" height="24" viewBox="0 0 24 24" fill="none" xmlns="http://www.w3.org/2000/svg">
<path d="M3.84889 16H2.51889L8.23089 5.45801H8.31489L11.4369 16H9.88289L7.58689 7.62801L8.63689 6.99801L3.84889 16ZM5.58489 12.164H9.35089L9.65889 13.34H5.05289L5.58489 12.164ZM15.6706 18.87C15.2039 18.87 14.7979 18.8187 14.4526 18.716C14.1072 18.6227 13.7946 18.4827 13.5146 18.296C13.2439 18.1093 12.9826 17.8947 12.7306 17.652L13.6126 16.77C13.8179 16.9847 14.0279 17.162 14.2426 17.302C14.4572 17.4513 14.6906 17.5587 14.9426 17.624C15.2039 17.6893 15.4839 17.722 15.7826 17.722C16.1652 17.722 16.4966 17.652 16.7766 17.512C17.0566 17.3813 17.2759 17.19 17.4346 16.938C17.6026 16.6953 17.7052 16.4107 17.7426 16.084L17.9386 14.516L18.0366 14.754C17.8406 15.1553 17.5279 15.4867 17.0986 15.748C16.6786 16 16.1792 16.126 15.6006 16.126C15.0592 16.126 14.5739 16.0093 14.1446 15.776C13.7246 15.5333 13.3886 15.1927 13.1366 14.754C12.8939 14.306 12.7726 13.7787 12.7726 13.172C12.7726 12.864 12.8332 12.528 12.9546 12.164C13.0852 11.7907 13.2812 11.4407 13.5426 11.114C13.8132 10.778 14.1539 10.5073 14.5646 10.302C14.9846 10.0873 15.4839 9.98001 16.0626 9.98001C16.6412 9.98001 17.1359 10.092 17.5466 10.316C17.9572 10.5307 18.2419 10.8107 18.4006 11.156L18.2466 11.422L18.5826 10.204H19.7726L19.0166 16.294C18.9606 16.8167 18.7832 17.2693 18.4846 17.652C18.1952 18.0347 17.8079 18.3333 17.3226 18.548C16.8466 18.7627 16.2959 18.87 15.6706 18.87ZM16.3006 11.044C15.8899 11.044 15.5446 11.1187 15.2646 11.268C14.9846 11.408 14.7559 11.59 14.5786 11.814C14.4106 12.038 14.2892 12.2713 14.2146 12.514C14.1399 12.7473 14.1026 12.9667 14.1026 13.172C14.1026 13.5453 14.1819 13.8767 14.3406 14.166C14.4992 14.446 14.7232 14.6653 15.0126 14.824C15.3019 14.9827 15.6426 15.062 16.0346 15.062C16.3239 15.062 16.6039 15.0013 16.8746 14.88C17.1452 14.7587 17.3786 14.5953 17.5746 14.39C17.7799 14.1753 17.9386 13.9327 18.0506 13.662L18.1906 12.5C18.1439 12.22 18.0319 11.9727 17.8546 11.758C17.6772 11.534 17.4579 11.3613 17.1966 11.24C16.9352 11.1093 16.6366 11.044 16.3006 11.044Z" fill="white"/>
</svg>
