<svg width="24" height="24" viewBox="0 0 24 24" fill="none" xmlns="http://www.w3.org/2000/svg">
<path d="M2.53687 15.622L2.49487 16H5.07087L5.11287 15.622H4.00687L6.23287 11.688H10.4469C10.6429 12.3507 10.8295 13.0087 11.0069 13.662C11.1935 14.3153 11.3756 14.9687 11.5529 15.622H10.4609L10.4189 16H12.9949L13.0369 15.622H11.9589C11.4922 13.97 11.0255 12.3273 10.5589 10.694C10.1015 9.06062 9.63954 7.41328 9.17287 5.75195C8.24887 7.41328 7.32021 9.06062 6.38687 10.694C5.46287 12.3273 4.53421 13.97 3.60087 15.622H2.53687ZM6.44287 11.31C6.84421 10.6007 7.25021 9.88662 7.66087 9.16795C8.08087 8.44928 8.47754 7.73528 8.85087 7.02595C8.86954 6.99795 8.88821 6.96062 8.90687 6.91395C8.93487 6.86728 8.98154 6.77395 9.04687 6.63395L9.11687 6.99795L10.3489 11.31H6.44287ZM20.3633 10.75C20.3259 10.9927 20.2839 11.2307 20.2373 11.464C20.1999 11.6973 20.1579 11.9307 20.1113 12.164C20.0553 11.9493 19.9619 11.7487 19.8313 11.562C19.7006 11.3753 19.5466 11.212 19.3693 11.072C19.1826 10.932 18.9679 10.8247 18.7253 10.75C18.4919 10.6753 18.2353 10.638 17.9553 10.638C17.5633 10.638 17.1946 10.7127 16.8493 10.862C16.5039 11.002 16.1866 11.1933 15.8973 11.436C15.6173 11.6787 15.3839 11.968 15.1973 12.304C15.0106 12.64 14.8893 12.9947 14.8333 13.368C14.7773 13.7507 14.7959 14.1053 14.8893 14.432C14.9919 14.7587 15.1506 15.0433 15.3653 15.286C15.5706 15.538 15.8273 15.734 16.1353 15.874C16.4526 16.014 16.8026 16.084 17.1853 16.084C17.7546 16.084 18.2633 15.944 18.7113 15.664C19.1686 15.384 19.5186 15.0293 19.7613 14.6C19.7426 14.7307 19.7193 14.8613 19.6913 14.992C19.6726 15.1133 19.6539 15.2393 19.6353 15.37L19.5093 16.378C19.4439 16.7887 19.3273 17.162 19.1593 17.498C19.0006 17.8433 18.8046 18.1327 18.5713 18.366C18.3286 18.5993 18.0486 18.7767 17.7313 18.898C17.4233 19.0287 17.1153 19.094 16.8073 19.094C16.4899 19.094 16.1773 19.0427 15.8693 18.94C15.5706 18.8373 15.3279 18.6553 15.1413 18.394L14.8053 18.66C15.0106 18.9493 15.2859 19.1593 15.6313 19.29C15.9766 19.43 16.3826 19.5 16.8493 19.5C17.2133 19.4907 17.5586 19.4113 17.8853 19.262C18.2213 19.122 18.5293 18.9213 18.8093 18.66C19.0799 18.3987 19.3086 18.072 19.4953 17.68C19.6913 17.2973 19.8219 16.8633 19.8873 16.378L20.6293 11.128H21.6653L21.7213 10.75H20.3633ZM15.2253 13.368C15.2719 13.0413 15.3746 12.738 15.5333 12.458C15.6919 12.1687 15.8926 11.9167 16.1353 11.702C16.3779 11.4873 16.6486 11.3193 16.9473 11.198C17.2459 11.0767 17.5633 11.016 17.8993 11.016C18.2166 11.016 18.5106 11.0767 18.7813 11.198C19.0613 11.3193 19.2899 11.4873 19.4673 11.702C19.6539 11.9167 19.7846 12.1687 19.8593 12.458C19.9433 12.738 19.9619 13.0413 19.9153 13.368C19.8779 13.6947 19.7753 14.0027 19.6073 14.292C19.4486 14.572 19.2479 14.8147 19.0053 15.02C18.7626 15.2347 18.4873 15.4027 18.1793 15.524C17.8806 15.6453 17.5679 15.706 17.2413 15.706C16.9146 15.706 16.6206 15.65 16.3593 15.538C16.0979 15.4167 15.8786 15.2487 15.7013 15.034C15.5146 14.8287 15.3746 14.586 15.2813 14.306C15.1973 14.0167 15.1786 13.704 15.2253 13.368Z" fill="white"/>
</svg>
