<svg width="24" height="24" viewBox="0 0 24 24" fill="none" xmlns="http://www.w3.org/2000/svg">
<path d="M4.18379 17H3.49779L8.97179 6.62598H9.02779L11.9538 17H11.1838L8.63579 7.80198L9.15379 7.53598L4.18379 17ZM6.01779 13.066H10.4278L10.5398 13.71H5.76579L6.01779 13.066ZM16.2682 19.66C15.9322 19.66 15.6149 19.6273 15.3162 19.562C15.0175 19.4967 14.7235 19.3707 14.4342 19.184C14.1542 19.0067 13.8649 18.7547 13.5662 18.428L14.0142 17.994C14.2849 18.302 14.5462 18.5307 14.7982 18.68C15.0595 18.8387 15.3162 18.9413 15.5682 18.988C15.8202 19.044 16.0675 19.072 16.3102 19.072C16.8142 19.072 17.2202 18.988 17.5282 18.82C17.8455 18.652 18.0882 18.4233 18.2562 18.134C18.4242 17.854 18.5315 17.5367 18.5782 17.182L18.8022 15.404L18.9422 15.53C18.7275 16.0153 18.3822 16.398 17.9062 16.678C17.4302 16.958 16.9029 17.098 16.3242 17.098C15.8109 17.098 15.3535 16.9813 14.9522 16.748C14.5509 16.5147 14.2335 16.1927 14.0002 15.782C13.7669 15.3713 13.6502 14.9 13.6502 14.368C13.6502 14.0973 13.7062 13.794 13.8182 13.458C13.9302 13.1127 14.1029 12.7813 14.3362 12.464C14.5789 12.1467 14.8915 11.8853 15.2742 11.68C15.6662 11.4747 16.1375 11.372 16.6882 11.372C17.3042 11.372 17.8362 11.5167 18.2842 11.806C18.7415 12.0953 19.0449 12.4733 19.1942 12.94L19.0402 13.178L19.3762 11.526H19.9502L19.2362 17.28C19.1895 17.7187 19.0495 18.1153 18.8162 18.47C18.5922 18.834 18.2702 19.1233 17.8502 19.338C17.4302 19.5527 16.9029 19.66 16.2682 19.66ZM16.8002 11.918C16.3242 11.918 15.9275 12.0067 15.6102 12.184C15.2929 12.352 15.0409 12.5667 14.8542 12.828C14.6675 13.0893 14.5322 13.36 14.4482 13.64C14.3642 13.9107 14.3222 14.1533 14.3222 14.368C14.3222 14.7787 14.4155 15.1473 14.6022 15.474C14.7889 15.8007 15.0455 16.062 15.3722 16.258C15.6989 16.4447 16.0769 16.538 16.5062 16.538C16.8889 16.538 17.2482 16.454 17.5842 16.286C17.9202 16.118 18.2049 15.894 18.4382 15.614C18.6715 15.3247 18.8255 15.0073 18.9002 14.662L18.9982 13.85C18.9702 13.486 18.8535 13.1593 18.6482 12.87C18.4522 12.5713 18.1955 12.338 17.8782 12.17C17.5609 12.002 17.2015 11.918 16.8002 11.918Z" fill="white"/>
</svg>
