<svg width="24" height="24" viewBox="0 0 24 24" fill="none" xmlns="http://www.w3.org/2000/svg">
<path d="M11.3913 17.0001H12.6653L10.0193 6.68213L3.80332 17.0001H5.14732L6.86932 14.0601H10.6773L11.3913 17.0001ZM9.58532 9.41213L10.4253 12.9401H7.51332L9.58532 9.41213ZM13.2484 17.4201C13.0804 19.0441 14.2004 20.2201 16.0064 20.2061C17.8544 20.2061 19.2684 18.8341 19.5624 16.8601L20.6404 10.5601H19.5344L19.3104 11.7921C19.0164 10.9801 18.4004 10.4341 17.3924 10.4201C15.5724 10.4061 14.0184 11.8761 13.7384 13.7801C13.4864 15.6001 14.5084 17.1401 16.3284 17.1261C17.2524 17.1261 18.0364 16.6781 18.5964 15.9641L18.4424 16.8601C18.2464 18.2461 17.1684 19.1701 16.0204 19.1561C14.8444 19.1561 14.2844 18.3721 14.3544 17.4201H13.2484ZM14.8584 13.7801C15.0684 12.4641 16.1744 11.4421 17.4204 11.4701C18.4844 11.4981 19.1004 12.4781 19.0024 13.6401L18.9324 14.0321C18.6384 15.2081 17.6024 16.0761 16.5524 16.0761C15.3204 16.0761 14.6764 15.0261 14.8584 13.7801Z" fill="white"/>
</svg>
