<svg width="24" height="24" viewBox="0 0 24 24" fill="none" xmlns="http://www.w3.org/2000/svg">
<path d="M5.10648 13.7098H10.1325L9.88048 12.9818H5.35848L5.10648 13.7098ZM7.59848 8.59978L9.53048 13.2758L9.60048 13.4578L11.0565 16.9998H11.9245L7.59848 6.82178L3.27248 16.9998H4.14048L5.61048 13.4018L5.69448 13.2338L7.59848 8.59978ZM12.7469 17.4198C12.7469 17.9705 12.8729 18.4558 13.1249 18.8758C13.3769 19.3051 13.7269 19.6365 14.1749 19.8698C14.6322 20.1031 15.1549 20.2198 15.7429 20.2198C16.2842 20.2198 16.7882 20.0938 17.2549 19.8418C17.7215 19.5898 18.0995 19.2118 18.3889 18.7078C18.6782 18.2131 18.8229 17.5971 18.8229 16.8598V10.5598H18.0949V16.8598C18.0949 17.4758 17.9782 17.9798 17.7449 18.3718C17.5209 18.7731 17.2315 19.0671 16.8769 19.2538C16.5222 19.4405 16.1442 19.5338 15.7429 19.5338C15.2949 19.5338 14.8982 19.4405 14.5529 19.2538C14.2169 19.0671 13.9555 18.8151 13.7689 18.4978C13.5822 18.1805 13.4889 17.8211 13.4889 17.4198H12.7469ZM12.5929 13.7798C12.5929 14.4705 12.7329 15.0678 13.0129 15.5718C13.2929 16.0758 13.6662 16.4631 14.1329 16.7338C14.6089 17.0045 15.1315 17.1398 15.7009 17.1398C16.2609 17.1398 16.7415 16.9951 17.1429 16.7058C17.5442 16.4071 17.8569 16.0058 18.0809 15.5018C18.3142 14.9885 18.4309 14.4145 18.4309 13.7798C18.4309 13.1358 18.3142 12.5618 18.0809 12.0578C17.8569 11.5538 17.5442 11.1571 17.1429 10.8678C16.7415 10.5691 16.2609 10.4198 15.7009 10.4198C15.1315 10.4198 14.6089 10.5551 14.1329 10.8258C13.6662 11.0965 13.2929 11.4838 13.0129 11.9878C12.7329 12.4825 12.5929 13.0798 12.5929 13.7798ZM13.3349 13.7798C13.3349 13.2198 13.4422 12.7391 13.6569 12.3378C13.8809 11.9365 14.1795 11.6331 14.5529 11.4278C14.9355 11.2131 15.3509 11.1058 15.7989 11.1058C16.0975 11.1058 16.3822 11.1758 16.6529 11.3158C16.9329 11.4465 17.1802 11.6331 17.3949 11.8758C17.6189 12.1185 17.7915 12.3985 17.9129 12.7158C18.0342 13.0331 18.0949 13.3785 18.0949 13.7518C18.0949 14.2745 17.9875 14.7411 17.7729 15.1518C17.5582 15.5531 17.2735 15.8705 16.9189 16.1038C16.5735 16.3371 16.2002 16.4538 15.7989 16.4538C15.3509 16.4538 14.9355 16.3511 14.5529 16.1458C14.1795 15.9311 13.8809 15.6231 13.6569 15.2218C13.4422 14.8205 13.3349 14.3398 13.3349 13.7798Z" fill="white"/>
</svg>
