<svg width="24" height="24" viewBox="0 0 24 24" fill="none" xmlns="http://www.w3.org/2000/svg">
<path d="M8.73926 7.18164C8.73926 7.18164 8.77799 7.28418 8.85547 7.48926C8.93294 7.69434 9.03548 7.96549 9.16309 8.30273C9.29069 8.63997 9.43652 9.02507 9.60059 9.45801C9.76921 9.88639 9.93783 10.3285 10.1064 10.7842C10.2796 11.2354 10.4482 11.6774 10.6123 12.1104C10.7809 12.5433 10.9313 12.9329 11.0635 13.2793C11.1956 13.6211 11.3027 13.9014 11.3848 14.1201C11.4668 14.3343 11.5101 14.4482 11.5146 14.4619C11.5967 14.6761 11.6628 14.8424 11.7129 14.9609C11.7676 15.0749 11.8337 15.1592 11.9111 15.2139C11.9886 15.2686 12.0934 15.3027 12.2256 15.3164C12.3623 15.3255 12.5537 15.3301 12.7998 15.3301V16C12.5446 16 12.2917 15.9977 12.041 15.9932C11.7904 15.9886 11.5306 15.9863 11.2617 15.9863C11.1159 15.9863 10.9746 15.9863 10.8379 15.9863C10.7012 15.9863 10.5599 15.9863 10.4141 15.9863C10.2682 15.9863 10.1133 15.9886 9.94922 15.9932C9.78516 15.9932 9.60059 15.9954 9.39551 16C9.39551 15.9635 9.39323 15.9089 9.38867 15.8359C9.38867 15.7585 9.38867 15.6833 9.38867 15.6104V15.3438C9.59831 15.3438 9.76921 15.3438 9.90137 15.3438C10.0335 15.3392 10.1383 15.3324 10.2158 15.3232C10.2933 15.3096 10.3457 15.2913 10.373 15.2686C10.4049 15.2412 10.4209 15.2048 10.4209 15.1592C10.4118 15.1364 10.4049 15.1068 10.4004 15.0703C10.3958 15.0339 10.3867 14.9906 10.373 14.9404L9.64844 12.7666H6.07324C6.06868 12.7757 6.04818 12.835 6.01172 12.9443C5.97526 13.0492 5.92969 13.1813 5.875 13.3408C5.82031 13.4958 5.76107 13.6644 5.69727 13.8467C5.63346 14.029 5.57194 14.1999 5.5127 14.3594C5.45801 14.5143 5.41243 14.6465 5.37598 14.7559C5.33952 14.8607 5.32129 14.9154 5.32129 14.9199C5.27572 15.0339 5.25293 15.1159 5.25293 15.166C5.25293 15.2526 5.2985 15.305 5.38965 15.3232C5.48535 15.3415 5.64258 15.3506 5.86133 15.3506H6.35352V16C6.09831 16 5.8431 15.9977 5.58789 15.9932C5.33724 15.9886 5.08203 15.9863 4.82227 15.9863C4.68555 15.9863 4.55339 15.9863 4.42578 15.9863C4.30273 15.9863 4.17513 15.9863 4.04297 15.9863C3.91081 15.9863 3.76953 15.9886 3.61914 15.9932C3.47331 15.9932 3.30924 15.9954 3.12695 16V15.3232C3.35482 15.3187 3.53255 15.3141 3.66016 15.3096C3.79232 15.305 3.89486 15.2868 3.96777 15.2549C4.04069 15.223 4.09538 15.1751 4.13184 15.1113C4.17285 15.0475 4.21615 14.9541 4.26172 14.8311C4.26628 14.8174 4.29362 14.7445 4.34375 14.6123C4.39844 14.4756 4.4668 14.2979 4.54883 14.0791C4.63542 13.8604 4.7334 13.6074 4.84277 13.3203C4.95215 13.0286 5.06836 12.721 5.19141 12.3975C5.31901 12.0739 5.44661 11.7435 5.57422 11.4062C5.70638 11.0645 5.83398 10.7318 5.95703 10.4082C6.08008 10.0846 6.19629 9.7793 6.30566 9.49219C6.4196 9.20052 6.51758 8.94531 6.59961 8.72656C6.6862 8.50781 6.75456 8.33236 6.80469 8.2002C6.85482 8.06348 6.88216 7.98828 6.88672 7.97461L7.16016 7.18164H8.73926ZM6.33301 12.0762H9.39551L7.86426 7.82422L6.33301 12.0762ZM16.4775 10.4355C16.1676 10.4355 15.8851 10.4948 15.6299 10.6133C15.3747 10.7272 15.1559 10.8913 14.9736 11.1055C14.7959 11.3197 14.6569 11.584 14.5566 11.8984C14.4609 12.2083 14.4131 12.5479 14.4131 12.917C14.4131 13.2861 14.4609 13.6188 14.5566 13.915C14.6569 14.2067 14.7959 14.4574 14.9736 14.667C15.1559 14.8766 15.3747 15.0384 15.6299 15.1523C15.8851 15.2617 16.1722 15.3164 16.4912 15.3164C16.8057 15.3164 17.0905 15.2572 17.3457 15.1387C17.6009 15.0202 17.8174 14.8538 17.9951 14.6396C18.1774 14.4255 18.3187 14.168 18.4189 13.8672C18.5192 13.5664 18.5693 13.2314 18.5693 12.8623C18.5693 12.5068 18.5192 12.181 18.4189 11.8848C18.3187 11.584 18.1774 11.3265 17.9951 11.1123C17.8128 10.8936 17.5918 10.7272 17.332 10.6133C17.0768 10.4948 16.792 10.4355 16.4775 10.4355ZM18.6172 9.85449C18.8223 9.86361 19.0251 9.87272 19.2256 9.88184C19.4261 9.88639 19.6289 9.88867 19.834 9.88867C20.0117 9.88867 20.1667 9.88867 20.2988 9.88867C20.4355 9.88411 20.57 9.88184 20.7021 9.88184V10.4902C20.4515 10.4902 20.2555 10.4993 20.1143 10.5176C19.9775 10.5312 19.875 10.5586 19.8066 10.5996C19.7428 10.6361 19.7041 10.6885 19.6904 10.7568C19.6768 10.8206 19.6699 10.9049 19.6699 11.0098V15.5762C19.6699 16.2142 19.5924 16.7474 19.4375 17.1758C19.2871 17.6042 19.0684 17.946 18.7812 18.2012C18.4987 18.4609 18.1523 18.6432 17.7422 18.748C17.3366 18.8574 16.8763 18.9121 16.3613 18.9121C15.8783 18.9121 15.4202 18.8597 14.9873 18.7549C14.5544 18.6546 14.151 18.4974 13.7773 18.2832L13.832 16.8477C13.8411 16.8522 13.8799 16.8545 13.9482 16.8545C13.9938 16.8545 14.0462 16.8545 14.1055 16.8545C14.1693 16.8545 14.2262 16.8522 14.2764 16.8477C14.3356 16.8477 14.3971 16.8454 14.4609 16.8408C14.502 17.1143 14.5726 17.3398 14.6729 17.5176C14.7777 17.6953 14.9098 17.8366 15.0693 17.9414C15.2334 18.0462 15.4225 18.1191 15.6367 18.1602C15.8555 18.2057 16.0993 18.2285 16.3682 18.2285C16.6553 18.2285 16.9287 18.1898 17.1885 18.1123C17.4528 18.0394 17.6829 17.9209 17.8789 17.7568C18.0794 17.5928 18.2389 17.3786 18.3574 17.1143C18.4759 16.8499 18.5352 16.5264 18.5352 16.1436V14.8857C18.2754 15.2503 17.9473 15.5283 17.5508 15.7197C17.1589 15.9066 16.7145 16 16.2178 16C15.7666 16 15.3564 15.9271 14.9873 15.7812C14.6227 15.6309 14.3083 15.4212 14.0439 15.1523C13.7842 14.8835 13.5814 14.5599 13.4355 14.1816C13.2943 13.7988 13.2236 13.375 13.2236 12.9102C13.2236 12.4408 13.2965 12.0101 13.4424 11.6182C13.5928 11.2262 13.8001 10.8913 14.0645 10.6133C14.3288 10.3307 14.6455 10.112 15.0146 9.95703C15.3838 9.80208 15.7917 9.72461 16.2383 9.72461C16.7487 9.72461 17.2021 9.83171 17.5986 10.0459C17.9951 10.2555 18.3346 10.5654 18.6172 10.9756V9.85449Z" fill="white"/>
</svg>
