<svg width="24" height="24" viewBox="0 0 24 24" fill="none" xmlns="http://www.w3.org/2000/svg">
<path d="M3.83866 16.9999L7.28266 7.98389H8.99066L12.4067 16.9999H10.8387L9.94266 14.6759H6.31666L5.42066 16.9999H3.83866ZM6.55466 13.4999H9.69066L8.12266 9.36989L6.55466 13.4999ZM16.5954 19.4639C16.1007 19.4639 15.6061 19.4312 15.1114 19.3659C14.6167 19.3099 14.1967 19.2212 13.8514 19.0999V17.9239C14.2247 18.0452 14.6541 18.1386 15.1394 18.2039C15.6247 18.2692 16.0867 18.3019 16.5254 18.3019C17.1974 18.3019 17.6874 18.2646 17.9954 18.1899C18.3034 18.1152 18.4574 17.9472 18.4574 17.6859C18.4574 17.4899 18.3827 17.3499 18.2334 17.2659C18.0841 17.1912 17.7994 17.1539 17.3794 17.1539H15.5874C14.3834 17.1539 13.7814 16.7292 13.7814 15.8799C13.7814 15.6092 13.8607 15.3572 14.0194 15.1239C14.1781 14.8906 14.4301 14.7132 14.7754 14.5919C14.3927 14.4052 14.1081 14.1486 13.9214 13.8219C13.7441 13.4952 13.6554 13.1032 13.6554 12.6459C13.6554 11.7966 13.9074 11.1806 14.4114 10.7979C14.9247 10.4152 15.6901 10.2239 16.7074 10.2239C16.9221 10.2239 17.1461 10.2426 17.3794 10.2799C17.6127 10.3079 17.7947 10.3359 17.9254 10.3639H20.3614L20.3194 11.3579H19.1994C19.3767 11.5072 19.5074 11.6939 19.5914 11.9179C19.6754 12.1419 19.7174 12.3846 19.7174 12.6459C19.7174 13.3552 19.5027 13.9152 19.0734 14.3259C18.6441 14.7272 17.9954 14.9279 17.1274 14.9279C16.9781 14.9279 16.8381 14.9232 16.7074 14.9139C16.5861 14.8952 16.4507 14.8766 16.3014 14.8579C16.0214 14.8859 15.7694 14.9606 15.5454 15.0819C15.3214 15.2032 15.2094 15.3666 15.2094 15.5719C15.2094 15.7119 15.2654 15.8146 15.3774 15.8799C15.4894 15.9359 15.6761 15.9639 15.9374 15.9639H17.7994C18.4621 15.9639 18.9707 16.1086 19.3254 16.3979C19.6894 16.6779 19.8714 17.0886 19.8714 17.6299C19.8714 18.2832 19.5867 18.7499 19.0174 19.0299C18.4574 19.3192 17.6501 19.4639 16.5954 19.4639ZM16.7074 13.9619C17.3141 13.9619 17.7341 13.8592 17.9674 13.6539C18.2101 13.4486 18.3314 13.0986 18.3314 12.6039C18.3314 12.1092 18.2101 11.7499 17.9674 11.5259C17.7341 11.3019 17.3141 11.1899 16.7074 11.1899C16.1381 11.1899 15.7227 11.2972 15.4614 11.5119C15.2001 11.7266 15.0694 12.0906 15.0694 12.6039C15.0694 13.0799 15.1907 13.4252 15.4334 13.6399C15.6854 13.8546 16.1101 13.9619 16.7074 13.9619Z" fill="white"/>
</svg>
