<svg width="24" height="24" viewBox="0 0 24 24" fill="none" xmlns="http://www.w3.org/2000/svg">
<path d="M2.89689 16.9999L6.34089 7.98389H8.77689L12.2209 16.9999H9.86889L9.05689 14.9559H6.04689L5.24889 16.9999H2.89689ZM6.35489 13.2899H8.74889L7.54489 10.1539L6.35489 13.2899ZM16.2184 19.4639C15.8918 19.4639 15.5464 19.4499 15.1824 19.4219C14.8184 19.3939 14.4731 19.3519 14.1464 19.2959C13.8198 19.2399 13.5398 19.1746 13.3064 19.0999V17.5599C13.6798 17.6812 14.1278 17.7746 14.6504 17.8399C15.1731 17.9052 15.6538 17.9379 16.0924 17.9379C16.6618 17.9379 17.0864 17.9052 17.3664 17.8399C17.6558 17.7839 17.8004 17.6812 17.8004 17.5319C17.8004 17.4012 17.7444 17.3126 17.6324 17.2659C17.5204 17.2192 17.3011 17.1959 16.9744 17.1959H15.1404C14.5431 17.1959 14.0764 17.0886 13.7404 16.8739C13.4138 16.6592 13.2504 16.3466 13.2504 15.9359C13.2504 15.6559 13.3344 15.3899 13.5024 15.1379C13.6798 14.8859 13.9364 14.6992 14.2724 14.5779C13.8898 14.3819 13.6004 14.1346 13.4044 13.8359C13.2084 13.5372 13.1104 13.1592 13.1104 12.7019C13.1104 11.8432 13.3858 11.2179 13.9364 10.8259C14.4964 10.4246 15.3131 10.2239 16.3864 10.2239C16.6104 10.2239 16.8578 10.2426 17.1284 10.2799C17.4084 10.3079 17.6138 10.3359 17.7444 10.3639H20.2924L20.2364 11.7639H19.2704C19.5038 11.9972 19.6204 12.3426 19.6204 12.7999C19.6204 13.4439 19.4104 13.9619 18.9904 14.3539C18.5798 14.7459 17.9544 14.9419 17.1144 14.9419C16.9744 14.9419 16.8344 14.9372 16.6944 14.9279C16.5638 14.9092 16.4331 14.8952 16.3024 14.8859C16.0598 14.9139 15.8498 14.9652 15.6724 15.0399C15.5044 15.1146 15.4204 15.2219 15.4204 15.3619C15.4204 15.4739 15.4624 15.5486 15.5464 15.5859C15.6398 15.6232 15.7751 15.6419 15.9524 15.6419H17.6464C18.3278 15.6419 18.8551 15.8006 19.2284 16.1179C19.6111 16.4259 19.8024 16.8786 19.8024 17.4759C19.8024 18.8012 18.6078 19.4639 16.2184 19.4639ZM16.4004 13.6959C16.8951 13.6959 17.2358 13.6119 17.4224 13.4439C17.6091 13.2759 17.7024 12.9959 17.7024 12.6039C17.7024 12.2119 17.6044 11.9272 17.4084 11.7499C17.2218 11.5726 16.8858 11.4839 16.4004 11.4839C15.9431 11.4839 15.6118 11.5726 15.4064 11.7499C15.2104 11.9179 15.1124 12.2026 15.1124 12.6039C15.1124 12.9772 15.2058 13.2526 15.3924 13.4299C15.5791 13.6072 15.9151 13.6959 16.4004 13.6959Z" fill="white"/>
</svg>
