<svg width="24" height="24" viewBox="0 0 24 24" fill="none" xmlns="http://www.w3.org/2000/svg">
<path d="M8.63644 17.0002L9.43444 7.9422H9.25244L9.39244 7.2002H11.1144L11.9824 17.0002H11.3384L11.1564 15.0262H9.46244L9.28044 17.0002H8.63644ZM9.51844 14.2842H11.1004L10.5264 7.9422H10.0924L9.51844 14.2842ZM13.2202 17.3222V17.3642C13.2202 17.6535 13.2669 17.8449 13.3602 17.9382C13.4536 18.0315 13.6449 18.0782 13.9342 18.0782C14.2142 18.0782 14.3962 18.0269 14.4802 17.9242C14.5736 17.8309 14.6202 17.6442 14.6202 17.3642V16.6502L14.2982 17.0002H13.8922C13.4629 17.0002 13.1176 16.8789 12.8562 16.6362C12.6042 16.3842 12.4782 16.0715 12.4782 15.6982V11.3022C12.4782 10.8729 12.5996 10.5509 12.8422 10.3362C13.0942 10.1122 13.4489 10.0002 13.9062 10.0002H13.9342C14.0556 10.0002 14.1722 10.0142 14.2842 10.0422C14.4056 10.0702 14.5176 10.1122 14.6202 10.1682V10.0002H15.3622V17.3642C15.3622 18.2882 14.9142 18.7735 14.0182 18.8202H13.9482H13.9202H13.8922H13.8082C12.9216 18.7735 12.4782 18.2882 12.4782 17.3642V17.3222H13.2202ZM13.6402 10.7422C13.4722 10.7422 13.3602 10.7702 13.3042 10.8262C13.2482 10.8822 13.2202 10.9942 13.2202 11.1622V15.8382C13.2202 16.0062 13.2482 16.1182 13.3042 16.1742C13.3602 16.2302 13.4722 16.2582 13.6402 16.2582H14.6202V10.7422H13.6402Z" fill="white"/>
</svg>
