<svg width="24" height="24" viewBox="0 0 24 24" fill="none" xmlns="http://www.w3.org/2000/svg">
<path d="M4.66476 17.0001L8.30476 7.91406H10.1668L12.0008 17.0001H10.4188L10.0268 15.0401H7.00276L6.23276 17.0001H4.66476ZM7.49276 13.7941H9.78876L9.01876 9.87406L7.49276 13.7941ZM15.3814 20.5141C14.7468 20.5141 14.1914 20.4114 13.7154 20.2061C13.2394 20.0054 12.8778 19.7301 12.6304 19.3801C12.3878 19.0348 12.2874 18.6474 12.3294 18.2181C12.3714 17.8214 12.5231 17.4924 12.7844 17.2311C13.0504 16.9698 13.3701 16.8088 13.7434 16.7481C13.5194 16.5894 13.3538 16.4051 13.2464 16.1951C13.1391 15.9804 13.0948 15.7494 13.1134 15.5021C13.1368 15.1848 13.2511 14.9141 13.4564 14.6901C13.6618 14.4614 13.9208 14.3028 14.2334 14.2141C14.0234 13.9948 13.8671 13.7404 13.7644 13.4511C13.6618 13.1571 13.6268 12.8281 13.6594 12.4641C13.7108 11.9648 13.8718 11.5308 14.1424 11.1621C14.4178 10.7934 14.7631 10.5111 15.1784 10.3151C15.5984 10.1144 16.0441 10.0141 16.5154 10.0141C16.8001 10.0141 17.0661 10.0514 17.3134 10.1261C17.5608 10.1961 17.7848 10.2941 17.9854 10.4201C18.0554 10.0608 18.1908 9.74806 18.3914 9.48206C18.5921 9.21606 18.8324 9.01073 19.1124 8.86606C19.3971 8.71673 19.6981 8.64206 20.0154 8.64206L19.7914 10.2241C19.4414 10.2241 19.1638 10.2894 18.9584 10.4201C18.7578 10.5461 18.6388 10.7468 18.6014 11.0221C18.7274 11.2181 18.8208 11.4374 18.8814 11.6801C18.9468 11.9181 18.9654 12.1794 18.9374 12.4641C18.8954 12.9541 18.7368 13.3811 18.4614 13.7451C18.1861 14.1091 17.8338 14.3938 17.4044 14.5991C16.9798 14.7998 16.5178 14.9001 16.0184 14.9001C15.8458 14.9001 15.6684 14.8838 15.4864 14.8511C15.3044 14.8138 15.1341 14.7601 14.9754 14.6901C14.8354 14.7321 14.7094 14.8091 14.5974 14.9211C14.4901 15.0331 14.4248 15.1801 14.4014 15.3621C14.3781 15.5488 14.4341 15.7004 14.5694 15.8171C14.7048 15.9338 14.9474 15.9921 15.2974 15.9921H17.3554C17.9994 15.9921 18.4941 16.1228 18.8394 16.3841C19.1848 16.6454 19.3341 17.0561 19.2874 17.6161C19.2501 18.1061 19.0658 18.5704 18.7344 19.0091C18.4031 19.4524 17.9528 19.8141 17.3834 20.0941C16.8141 20.3741 16.1468 20.5141 15.3814 20.5141ZM15.4584 19.1981C15.9344 19.1981 16.3428 19.1258 16.6834 18.9811C17.0241 18.8364 17.2901 18.6498 17.4814 18.4211C17.6774 18.1971 17.7848 17.9661 17.8034 17.7281C17.8174 17.5368 17.7754 17.3921 17.6774 17.2941C17.5794 17.2008 17.4348 17.1541 17.2434 17.1541H15.0874C14.7141 17.1541 14.4108 17.2474 14.1774 17.4341C13.9488 17.6254 13.8274 17.8588 13.8134 18.1341C13.7994 18.4701 13.9441 18.7314 14.2474 18.9181C14.5554 19.1048 14.9591 19.1981 15.4584 19.1981ZM16.1934 13.7381C16.4641 13.7381 16.6881 13.6821 16.8654 13.5701C17.0474 13.4534 17.1874 13.2994 17.2854 13.1081C17.3881 12.9121 17.4488 12.6974 17.4674 12.4641C17.5048 12.0674 17.4348 11.7524 17.2574 11.5191C17.0801 11.2811 16.8048 11.1621 16.4314 11.1621C16.0394 11.1621 15.7314 11.2834 15.5074 11.5261C15.2834 11.7688 15.1574 12.0814 15.1294 12.4641C15.0968 12.8234 15.1668 13.1268 15.3394 13.3741C15.5168 13.6168 15.8014 13.7381 16.1934 13.7381Z" fill="white"/>
</svg>
