<svg width="24" height="24" viewBox="0 0 24 24" fill="none" xmlns="http://www.w3.org/2000/svg">
<path d="M5.41152 16.9998L8.91852 8.34082H9.78652L11.5995 16.9998H10.8575L10.3605 14.6058H7.14052L6.17452 16.9998H5.41152ZM7.39252 13.9408H10.2065L9.24052 9.35582L7.39252 13.9408ZM14.9971 20.4018C14.3998 20.4018 13.8911 20.3108 13.4711 20.1288C13.0511 19.9515 12.7361 19.7065 12.5261 19.3938C12.3208 19.0811 12.2321 18.7311 12.2601 18.3438C12.2881 17.9705 12.4141 17.6508 12.6381 17.3848C12.8668 17.1188 13.1655 16.9275 13.5341 16.8108C13.2961 16.6895 13.1235 16.5261 13.0161 16.3208C12.9088 16.1155 12.8645 15.8915 12.8831 15.6488C12.9111 15.3175 13.0371 15.0445 13.2611 14.8298C13.4851 14.6151 13.7465 14.4751 14.0451 14.4098C13.8678 14.1905 13.7371 13.9315 13.6531 13.6328C13.5691 13.3295 13.5435 12.9958 13.5761 12.6318C13.6275 12.1465 13.7698 11.7218 14.0031 11.3578C14.2365 10.9938 14.5375 10.7115 14.9061 10.5108C15.2795 10.3101 15.6925 10.2098 16.1451 10.2098C16.4485 10.2098 16.7285 10.2565 16.9851 10.3498C17.2465 10.4431 17.4658 10.5808 17.6431 10.7628C17.7131 10.4548 17.8251 10.1841 17.9791 9.95082C18.1378 9.71282 18.3361 9.52849 18.5741 9.39782C18.8168 9.26715 19.1038 9.20182 19.4351 9.20182L19.2321 10.0278C18.8728 10.0278 18.5835 10.1188 18.3641 10.3008C18.1495 10.4781 18.0141 10.7675 17.9581 11.1688C18.0748 11.3648 18.1588 11.5865 18.2101 11.8338C18.2661 12.0765 18.2801 12.3425 18.2521 12.6318C18.2055 13.1171 18.0608 13.5465 17.8181 13.9198C17.5755 14.2931 17.2628 14.5871 16.8801 14.8018C16.5021 15.0118 16.0845 15.1168 15.6271 15.1168C15.3891 15.1168 15.1605 15.0841 14.9411 15.0188C14.7218 14.9488 14.5258 14.8531 14.3531 14.7318C14.1618 14.7598 13.9868 14.8508 13.8281 15.0048C13.6741 15.1588 13.5785 15.3641 13.5411 15.6208C13.5131 15.8495 13.5738 16.0408 13.7231 16.1948C13.8771 16.3441 14.1875 16.4188 14.6541 16.4188H17.1461C17.6595 16.4188 18.0561 16.5518 18.3361 16.8178C18.6161 17.0838 18.7398 17.4361 18.7071 17.8748C18.6791 18.2995 18.5041 18.7055 18.1821 19.0928C17.8601 19.4801 17.4261 19.7951 16.8801 20.0378C16.3341 20.2805 15.7065 20.4018 14.9971 20.4018ZM14.9901 19.7578C15.5361 19.7578 16.0285 19.6715 16.4671 19.4988C16.9105 19.3261 17.2651 19.0998 17.5311 18.8198C17.7971 18.5445 17.9441 18.2458 17.9721 17.9238C17.9908 17.6765 17.9278 17.4641 17.7831 17.2868C17.6431 17.1095 17.4145 17.0208 17.0971 17.0208H14.4861C14.0568 17.0208 13.7045 17.1491 13.4291 17.4058C13.1538 17.6625 13.0068 17.9705 12.9881 18.3298C12.9695 18.7218 13.1235 19.0578 13.4501 19.3378C13.7768 19.6178 14.2901 19.7578 14.9901 19.7578ZM15.7321 14.5148C16.0635 14.5148 16.3598 14.4331 16.6211 14.2698C16.8825 14.1018 17.0948 13.8755 17.2581 13.5908C17.4261 13.3061 17.5265 12.9865 17.5591 12.6318C17.6105 12.0998 17.5031 11.6635 17.2371 11.3228C16.9711 10.9821 16.5885 10.8118 16.0891 10.8118C15.5945 10.8118 15.1838 10.9798 14.8571 11.3158C14.5305 11.6518 14.3415 12.0905 14.2901 12.6318C14.2341 13.1638 14.3368 13.6118 14.5981 13.9758C14.8641 14.3351 15.2421 14.5148 15.7321 14.5148Z" fill="white"/>
</svg>
