<svg width="24" height="24" viewBox="0 0 24 24" fill="none" xmlns="http://www.w3.org/2000/svg">
<path d="M11.8951 15.9998H8.61912V15.8878C8.61912 15.3745 8.82445 15.0991 9.23512 15.0618L9.64112 15.0338H9.65512L9.09512 13.0038H6.57512L5.98712 15.0058L7.12112 15.0898C7.14912 15.1458 7.14445 15.2718 7.10712 15.4678C7.02312 15.8225 6.81778 15.9998 6.49112 15.9998H3.67712V15.8878C3.67712 15.3745 3.88245 15.0991 4.29312 15.0618L4.81112 15.0338L7.49912 6.40983C7.90045 6.3725 8.37178 6.3725 8.91312 6.40983L11.5451 15.0058L12.5251 15.0898C12.5531 15.1458 12.5485 15.2718 12.5111 15.4678C12.4271 15.8225 12.2218 15.9998 11.8951 15.9998ZM6.84112 12.0658H8.84312L7.87712 8.52383L6.84112 12.0658ZM15.8453 13.9558C15.612 13.9558 15.3786 13.9325 15.1453 13.8858C15.0146 14.1191 14.9493 14.2871 14.9493 14.3898C14.9493 14.4925 15.0566 14.5625 15.2713 14.5998C15.486 14.6278 15.9946 14.6558 16.7973 14.6838C17.6 14.7118 18.2206 14.8565 18.6593 15.1178C19.1073 15.3698 19.3313 15.8085 19.3313 16.4338C19.3313 17.2925 19 17.9785 18.3373 18.4918C17.6746 19.0051 16.858 19.2618 15.8873 19.2618C14.926 19.2618 14.2026 19.0845 13.7173 18.7298C13.2413 18.3751 13.0033 17.9178 13.0033 17.3578C13.0033 16.7978 13.274 16.2658 13.8153 15.7618C13.6753 15.5938 13.6053 15.3698 13.6053 15.0898C13.6053 14.5951 13.8386 14.0771 14.3053 13.5358C13.5866 13.0691 13.2273 12.3598 13.2273 11.4078C13.2273 10.6331 13.4746 9.99383 13.9693 9.48983C14.4733 8.9765 15.1453 8.71983 15.9853 8.71983C16.536 8.71983 17.0213 8.83183 17.4413 9.05583L19.3173 8.55183C19.4013 8.6545 19.448 8.84583 19.4573 9.12583C19.4666 9.40583 19.42 9.5925 19.3173 9.68583C19.1773 9.7605 18.8133 9.7885 18.2253 9.76983C18.496 10.1711 18.6126 10.7311 18.5753 11.4498C18.538 12.1591 18.272 12.7565 17.7773 13.2418C17.2826 13.7178 16.6386 13.9558 15.8453 13.9558ZM18.1413 16.8678C18.1413 16.6531 17.9826 16.5131 17.6653 16.4478C17.348 16.3825 16.8113 16.3311 16.0553 16.2938C15.2993 16.2565 14.814 16.2145 14.5993 16.1678C14.366 16.4478 14.2493 16.7325 14.2493 17.0218C14.2493 17.3111 14.3986 17.5491 14.6973 17.7358C14.996 17.9225 15.444 18.0158 16.0413 18.0158C16.6386 18.0158 17.138 17.9038 17.5393 17.6798C17.9406 17.4651 18.1413 17.1945 18.1413 16.8678ZM15.8733 12.9338C16.2093 12.9338 16.4753 12.7985 16.6713 12.5278C16.8673 12.2478 16.9653 11.8605 16.9653 11.3658C16.9653 10.8618 16.872 10.4745 16.6853 10.2038C16.4986 9.92383 16.2326 9.78383 15.8873 9.78383C15.542 9.78383 15.276 9.92383 15.0893 10.2038C14.912 10.4838 14.8233 10.8758 14.8233 11.3798C14.8233 12.4158 15.1733 12.9338 15.8733 12.9338Z" fill="white"/>
</svg>
