<svg width="24" height="24" viewBox="0 0 24 24" fill="none" xmlns="http://www.w3.org/2000/svg">
<path d="M12.4325 15.9998H9.38052V15.8878C9.38052 15.4491 9.56252 15.2111 9.92652 15.1738L10.4165 15.1458L9.80052 12.9058H7.11252L6.46852 15.1178L7.57452 15.2018C7.63052 15.7338 7.44852 15.9998 7.02852 15.9998H4.35452V15.8878C4.35452 15.4491 4.53652 15.2111 4.90052 15.1738L5.44652 15.1458L8.13452 6.45183C8.48919 6.4145 8.89519 6.4145 9.35252 6.45183L12.0125 15.1178L12.9645 15.2018C13.0205 15.7338 12.8432 15.9998 12.4325 15.9998ZM7.35052 12.0658H9.56252L8.48452 8.20183L7.35052 12.0658ZM16.2073 13.9138C15.9926 13.9138 15.7593 13.8905 15.5073 13.8438C15.3206 14.1051 15.2319 14.2918 15.2413 14.4038C15.2599 14.5065 15.3719 14.5718 15.5773 14.5998C15.7826 14.6278 16.1746 14.6511 16.7533 14.6698C17.7706 14.7071 18.5079 14.8518 18.9653 15.1038C19.4226 15.3558 19.6513 15.7991 19.6513 16.4338C19.6513 17.2738 19.3293 17.9458 18.6853 18.4498C18.0506 18.9631 17.2526 19.2198 16.2913 19.2198C15.3393 19.2198 14.6206 19.0425 14.1353 18.6878C13.6593 18.3425 13.4213 17.8711 13.4213 17.2738C13.4213 16.6858 13.7246 16.1398 14.3313 15.6358C14.1633 15.4865 14.0793 15.2671 14.0793 14.9778C14.0793 14.5578 14.3126 14.0818 14.7793 13.5498C14.0606 13.1391 13.6919 12.4625 13.6733 11.5198C13.6546 10.7545 13.8879 10.1105 14.3733 9.58783C14.8679 9.06516 15.5259 8.80383 16.3473 8.80383C16.8979 8.80383 17.3786 8.9205 17.7893 9.15383L19.5953 8.67783C19.6793 8.78983 19.7259 8.9625 19.7353 9.19583C19.7446 9.42916 19.6979 9.5925 19.5953 9.68583C19.4553 9.7605 19.0773 9.7885 18.4613 9.76983C18.7506 10.1805 18.8766 10.7358 18.8393 11.4358C18.8113 12.1265 18.5593 12.7145 18.0833 13.1998C17.6166 13.6758 16.9913 13.9138 16.2073 13.9138ZM16.2493 9.71383C15.8573 9.72316 15.5539 9.88182 15.3393 10.1898C15.1339 10.4885 15.0313 10.8945 15.0313 11.4078C15.0313 11.9118 15.1386 12.3131 15.3533 12.6118C15.5679 12.9011 15.8619 13.0458 16.2353 13.0458C16.6179 13.0365 16.9213 12.8825 17.1453 12.5838C17.3693 12.2758 17.4813 11.8745 17.4813 11.3798C17.4813 10.8758 17.3739 10.4698 17.1593 10.1618C16.9539 9.85383 16.6506 9.7045 16.2493 9.71383ZM14.4993 17.0078C14.4993 17.3531 14.6626 17.6238 14.9893 17.8198C15.3253 18.0251 15.8106 18.1278 16.4453 18.1278C17.0799 18.1278 17.6026 18.0018 18.0133 17.7498C18.4239 17.4978 18.6293 17.2038 18.6293 16.8678C18.6293 16.5318 18.4519 16.3171 18.0973 16.2238C17.7519 16.1398 17.2153 16.0838 16.4873 16.0558C15.7593 16.0278 15.2646 15.9858 15.0033 15.9298C14.6673 16.3125 14.4993 16.6718 14.4993 17.0078Z" fill="white"/>
</svg>
