<svg width="24" height="24" viewBox="0 0 24 24" fill="none" xmlns="http://www.w3.org/2000/svg">
<path d="M6.11475 14.4042C6.18008 14.2175 6.24542 14.0355 6.31075 13.8582C6.38542 13.6715 6.45542 13.4849 6.52075 13.2982C6.56742 13.1582 6.62808 13.0182 6.70275 12.8782C6.77742 12.7382 6.84275 12.6122 6.89875 12.5002C6.94542 12.3415 6.99208 12.2155 7.03875 12.1222C7.09475 12.0195 7.12742 11.9542 7.13675 11.9262C7.13675 11.9075 7.15542 11.8609 7.19275 11.7862C7.23942 11.7115 7.29075 11.5902 7.34675 11.4222C7.37475 11.3382 7.39808 11.2495 7.41675 11.1562C7.44475 11.0629 7.47742 10.9742 7.51475 10.8902L7.85075 10.0782C7.88808 9.97556 7.91142 9.9009 7.92075 9.85423C7.93942 9.79823 7.95342 9.75156 7.96275 9.71423C7.97208 9.6769 7.98142 9.6349 7.99075 9.58823C8.00008 9.54156 8.02808 9.4669 8.07475 9.36423C8.12142 9.26156 8.15875 9.16356 8.18675 9.07023C8.22408 8.9769 8.26608 8.8789 8.31275 8.77623C8.33142 8.72023 8.35008 8.66423 8.36875 8.60823C8.38742 8.55223 8.40608 8.49623 8.42475 8.44023C8.45275 8.36556 8.47608 8.30023 8.49475 8.24423C8.51342 8.18823 8.53208 8.1229 8.55075 8.04823C8.56942 8.02956 8.58342 8.00623 8.59275 7.97823C8.60208 7.9409 8.62075 7.8989 8.64875 7.85223C8.70475 7.8149 8.75142 7.79623 8.78875 7.79623C8.82608 7.7869 8.86342 7.78223 8.90075 7.78223H9.54475C9.56342 7.81956 9.57275 7.8569 9.57275 7.89423C9.57275 7.92223 9.58208 7.9549 9.60075 7.99223L9.65675 8.20223L9.69875 8.31423L9.85275 8.74823L10.1048 9.46223L10.2028 9.64423C10.2214 9.6629 10.2401 9.7049 10.2588 9.77023C10.2774 9.82623 10.3054 9.9009 10.3428 9.99423C10.3894 10.1155 10.4361 10.2555 10.4828 10.4142C10.5388 10.5635 10.5901 10.7129 10.6368 10.8622C10.7021 11.0955 10.7534 11.2682 10.7908 11.3802C10.8374 11.4922 10.8841 11.6089 10.9308 11.7302C10.9588 11.7675 10.9774 11.8095 10.9868 11.8562C10.9961 11.9029 11.0101 11.9495 11.0288 11.9962L11.2108 12.5702L11.4488 13.0742C11.4768 13.1582 11.5048 13.2422 11.5328 13.3262C11.5701 13.4009 11.6121 13.4755 11.6588 13.5502C11.7334 13.7369 11.7941 13.9095 11.8408 14.0682C11.8874 14.2175 11.9481 14.3855 12.0228 14.5722C12.0601 14.6562 12.0974 14.7355 12.1348 14.8102C12.1814 14.8849 12.2188 14.9642 12.2468 15.0482C12.2654 15.0949 12.2841 15.1415 12.3028 15.1882C12.3214 15.2349 12.3401 15.2815 12.3588 15.3282C12.4054 15.4122 12.4428 15.5009 12.4708 15.5942C12.5081 15.6782 12.5501 15.7715 12.5968 15.8742C12.6154 15.9302 12.6388 15.9862 12.6668 16.0422C12.6948 16.0982 12.7134 16.1495 12.7228 16.1962C12.6761 16.1962 12.6294 16.1915 12.5828 16.1822C12.5361 16.1729 12.4941 16.1682 12.4568 16.1682H12.2188C12.1348 16.1682 12.0601 16.1682 11.9948 16.1682C11.9294 16.1775 11.8734 16.1822 11.8268 16.1822C11.7801 16.0702 11.7101 15.9629 11.6168 15.8602C11.5328 15.7482 11.4441 15.6129 11.3508 15.4542C11.3321 15.4075 11.3134 15.3655 11.2948 15.3282C11.2761 15.2909 11.2574 15.2535 11.2388 15.2162C11.2201 15.1602 11.1641 15.0809 11.0708 14.9782C10.9868 14.8755 10.9401 14.7962 10.9308 14.7402C10.8561 14.6562 10.8001 14.5909 10.7628 14.5442C10.7348 14.4882 10.6974 14.4369 10.6508 14.3902C10.6134 14.3902 10.5668 14.3902 10.5108 14.3902C10.4548 14.3809 10.4034 14.3715 10.3568 14.3622C10.3008 14.3529 10.2401 14.3482 10.1748 14.3482H9.83875C9.79208 14.3482 9.74075 14.3529 9.68475 14.3622C9.63808 14.3622 9.56342 14.3669 9.46075 14.3762C9.35808 14.3762 9.21808 14.3809 9.04075 14.3902C8.86342 14.3902 8.62542 14.3902 8.32675 14.3902H8.22875C8.15408 14.3902 8.09342 14.3995 8.04675 14.4182C8.00942 14.4275 7.95342 14.4182 7.87875 14.3902C7.85075 14.3715 7.78075 14.3669 7.66875 14.3762C7.56608 14.3855 7.49608 14.3949 7.45875 14.4042L7.27675 14.4182L7.20675 14.5162C7.18808 14.5722 7.15542 14.6375 7.10875 14.7122C7.06208 14.7869 7.01542 14.8615 6.96875 14.9362C6.92208 15.0109 6.87542 15.0855 6.82875 15.1602C6.79142 15.2349 6.76342 15.2955 6.74475 15.3422L6.64675 15.5942L6.29675 16.2382C6.27808 16.2755 6.25008 16.2942 6.21275 16.2942C6.17542 16.2942 6.14742 16.3035 6.12875 16.3222H5.41475C5.37742 16.2849 5.35875 16.2615 5.35875 16.2522C5.35875 16.2429 5.37742 16.2149 5.41475 16.1682C5.41475 16.1309 5.42875 16.0749 5.45675 16.0002C5.48475 15.9349 5.49875 15.8835 5.49875 15.8462C5.54542 15.7715 5.58275 15.6969 5.61075 15.6222C5.64808 15.5382 5.68542 15.4589 5.72275 15.3842L6.11475 14.4042ZM9.05475 10.9322C9.00808 10.9509 8.97542 10.9742 8.95675 11.0022C8.93808 11.0302 8.91942 11.0629 8.90075 11.1002C8.86342 11.2309 8.81208 11.3615 8.74675 11.4922C8.69075 11.6135 8.63475 11.7395 8.57875 11.8702C8.53208 11.9635 8.48542 12.0522 8.43875 12.1362C8.39208 12.2109 8.35008 12.2949 8.31275 12.3882C8.22875 12.5749 8.14475 12.7615 8.06075 12.9482C7.97675 13.1255 7.88342 13.3029 7.78075 13.4802H7.86475C7.93942 13.4802 8.00475 13.4849 8.06075 13.4942C8.12608 13.5035 8.19142 13.4989 8.25675 13.4802C8.31275 13.4615 8.36408 13.4569 8.41075 13.4662C8.46675 13.4755 8.51808 13.4802 8.56475 13.4802C8.72342 13.4802 8.88675 13.4802 9.05475 13.4802C9.22275 13.4709 9.40942 13.4755 9.61475 13.4942C9.71742 13.5035 9.81075 13.5035 9.89475 13.4942C9.98808 13.4849 10.0814 13.4802 10.1748 13.4802H10.3008C10.2914 13.4429 10.2774 13.4149 10.2588 13.3962C10.2494 13.3682 10.2354 13.3402 10.2168 13.3122C10.1794 13.2375 10.1374 13.1722 10.0908 13.1162C10.0534 13.0602 10.0208 12.9902 9.99275 12.9062L9.50275 11.9262C9.48408 11.8795 9.46542 11.8189 9.44675 11.7442L9.05475 10.9322ZM13.3793 12.2062C13.3793 12.1875 13.3933 12.1269 13.4213 12.0242C13.4587 11.9215 13.482 11.8655 13.4913 11.8562C13.51 11.8095 13.524 11.7722 13.5333 11.7442C13.5427 11.7069 13.5707 11.6555 13.6173 11.5902C13.6547 11.5435 13.7013 11.4875 13.7573 11.4222C13.8227 11.3569 13.8647 11.3102 13.8833 11.2822C13.9207 11.2262 13.9627 11.1749 14.0093 11.1282C14.0467 11.0815 14.1027 11.0349 14.1773 10.9882C14.252 10.9415 14.3127 10.8949 14.3593 10.8482C14.49 10.8109 14.602 10.7735 14.6953 10.7362C14.798 10.6989 14.896 10.6802 14.9893 10.6802C15.176 10.6802 15.3533 10.6849 15.5213 10.6942C15.6987 10.7035 15.8527 10.7315 15.9833 10.7782C16.1233 10.7782 16.24 10.7969 16.3333 10.8342C16.4267 10.8622 16.52 10.8995 16.6133 10.9462C16.66 11.0395 16.7207 11.1142 16.7953 11.1702C16.87 11.2169 16.9307 11.2635 16.9773 11.3102L17.0613 11.3942C17.1267 11.3475 17.1547 11.2962 17.1453 11.2402C17.1453 11.1842 17.1547 11.1329 17.1733 11.0862C17.192 11.0302 17.2013 10.9835 17.2013 10.9462C17.2013 10.8995 17.2107 10.8669 17.2293 10.8482C17.2573 10.8389 17.29 10.8389 17.3273 10.8482C17.3647 10.8482 17.402 10.8482 17.4393 10.8482C17.5233 10.8482 17.6307 10.8435 17.7613 10.8342C17.892 10.8249 17.99 10.8295 18.0553 10.8482C18.074 10.8575 18.0927 10.8762 18.1113 10.9042C18.13 10.9229 18.1393 10.9369 18.1393 10.9462V11.0442C18.1393 11.1002 18.1393 11.1749 18.1393 11.2682C18.1487 11.3522 18.1533 11.4409 18.1533 11.5342C18.1533 11.6182 18.1487 11.7022 18.1393 11.7862C18.1393 11.8702 18.1393 11.9402 18.1393 11.9962C18.1393 12.0429 18.1347 12.1222 18.1253 12.2342C18.1253 12.3462 18.1253 12.4675 18.1253 12.5982C18.1253 12.7195 18.1253 12.8315 18.1253 12.9342C18.1253 13.0369 18.13 13.0929 18.1393 13.1022C18.1393 13.1955 18.1347 13.2982 18.1253 13.4102C18.116 13.5222 18.116 13.6015 18.1253 13.6482L18.1393 14.0962C18.1487 14.1615 18.144 14.2642 18.1253 14.4042C18.116 14.5442 18.1207 14.7029 18.1393 14.8802C18.1487 14.9455 18.1487 15.0435 18.1393 15.1742C18.1393 15.2955 18.1347 15.4262 18.1253 15.5662C18.1253 15.6969 18.1207 15.8229 18.1113 15.9442C18.1113 16.0562 18.1113 16.1355 18.1113 16.1822C18.1113 16.3595 18.0787 16.5369 18.0133 16.7142C17.9573 16.9009 17.906 17.0829 17.8593 17.2602C17.8127 17.3535 17.766 17.4422 17.7193 17.5262C17.6727 17.6102 17.6027 17.7035 17.5093 17.8062C17.472 17.8529 17.43 17.9089 17.3833 17.9742C17.3367 18.0489 17.29 18.1095 17.2433 18.1562C17.1967 18.2215 17.1127 18.2915 16.9913 18.3662C16.8793 18.4502 16.8 18.5295 16.7533 18.6042C16.7067 18.6602 16.6273 18.7069 16.5153 18.7442C16.4033 18.7815 16.324 18.8049 16.2773 18.8142L15.7873 18.9822C15.7033 19.0289 15.6147 19.0662 15.5213 19.0942C15.4373 19.1315 15.33 19.1549 15.1993 19.1642C15.1807 19.1642 15.162 19.1595 15.1433 19.1502C15.1247 19.1502 15.106 19.1549 15.0873 19.1642C14.994 19.1642 14.9147 19.1735 14.8493 19.1922C14.7933 19.2202 14.7187 19.2342 14.6253 19.2342H14.5413C14.4107 19.2342 14.322 19.2295 14.2753 19.2202C14.238 19.2202 14.14 19.2249 13.9813 19.2342C13.972 19.2342 13.944 19.2389 13.8973 19.2482C13.8507 19.2575 13.8273 19.2529 13.8273 19.2342C13.8273 19.0569 13.818 18.8935 13.7993 18.7442C13.79 18.5949 13.7853 18.4502 13.7853 18.3102L13.8833 18.2262H14.3593C14.49 18.1795 14.6067 18.1515 14.7093 18.1422C14.8213 18.1329 14.9473 18.1049 15.0873 18.0582C15.218 17.9742 15.3347 17.8902 15.4373 17.8062C15.5493 17.7222 15.6707 17.6569 15.8013 17.6102C15.8947 17.5262 15.9833 17.4375 16.0673 17.3442C16.1513 17.2602 16.2167 17.1715 16.2633 17.0782C16.3473 16.9942 16.3987 16.9055 16.4173 16.8122C16.4453 16.7189 16.4827 16.6255 16.5293 16.5322C16.5293 16.4482 16.5433 16.3595 16.5713 16.2662C16.5993 16.1822 16.6133 16.0935 16.6133 16.0002V15.6362C16.6133 15.5895 16.5993 15.5802 16.5713 15.6082C16.5527 15.6175 16.5387 15.6269 16.5293 15.6362C16.3987 15.7202 16.2447 15.7715 16.0673 15.7902C15.89 15.7995 15.7127 15.8042 15.5353 15.8042H15.4373C15.3067 15.7949 15.1807 15.7669 15.0593 15.7202C14.938 15.6922 14.8353 15.6642 14.7513 15.6362C14.6673 15.6082 14.574 15.5662 14.4713 15.5102C14.4433 15.4915 14.4013 15.4729 14.3453 15.4542C14.2893 15.4262 14.196 15.3749 14.0653 15.3002L13.8973 15.1042L13.5893 14.7682C13.5613 14.7215 13.5333 14.6609 13.5053 14.5862C13.4867 14.5115 13.4587 14.4229 13.4213 14.3202C13.4027 14.2642 13.3793 14.2035 13.3513 14.1382C13.3233 14.0729 13.3 14.0029 13.2813 13.9282V12.7522C13.2813 12.7055 13.2907 12.6449 13.3093 12.5702C13.3373 12.4862 13.3513 12.4255 13.3513 12.3882C13.3513 12.3695 13.356 12.3509 13.3653 12.3322C13.3653 12.3135 13.3653 12.2949 13.3653 12.2762C13.3747 12.2575 13.3793 12.2342 13.3793 12.2062ZM15.5353 13.7462C15.582 13.7462 15.624 13.7415 15.6613 13.7322C15.708 13.7229 15.7547 13.6949 15.8013 13.6482C15.82 13.6109 15.8247 13.5735 15.8153 13.5362C15.8153 13.4895 15.8247 13.4569 15.8433 13.4382C15.89 13.3635 15.9087 13.3169 15.8993 13.2982C15.89 13.2795 15.8853 13.2469 15.8853 13.2002C15.8853 13.1535 15.8667 13.0975 15.8293 13.0322C15.8013 12.9575 15.764 12.8969 15.7173 12.8502C15.6707 12.8035 15.638 12.7802 15.6193 12.7802C15.6007 12.7802 15.54 12.8035 15.4373 12.8502C15.372 12.9155 15.3393 13.0509 15.3393 13.2562C15.3393 13.2749 15.3347 13.3169 15.3253 13.3822C15.3253 13.4475 15.3347 13.5082 15.3533 13.5642C15.3533 13.5829 15.3767 13.6202 15.4233 13.6762C15.47 13.7229 15.5073 13.7462 15.5353 13.7462Z" fill="white"/>
</svg>
