<svg width="24" height="24" viewBox="0 0 24 24" fill="none" xmlns="http://www.w3.org/2000/svg">
<path d="M12.9969 7.50794C13.3142 7.67594 13.5149 7.92327 13.5989 8.24994C13.4122 9.29527 13.2442 10.3359 13.0949 11.3719C12.9455 12.3986 12.8009 13.2619 12.6609 13.9619C12.5209 14.6526 12.4229 15.1706 12.3669 15.5159C12.3202 15.8612 12.2642 16.2066 12.1989 16.5519L12.1149 16.8459C12.0962 16.9486 12.0775 17.0419 12.0589 17.1259C12.0402 17.2192 12.0215 17.3172 12.0029 17.4199C11.7415 17.7186 11.3869 17.8679 10.9389 17.8679C10.4629 17.8679 10.0849 17.7466 9.80488 17.5039C9.63688 17.3732 9.60888 17.0979 9.72088 16.6779C9.76755 16.5099 9.79555 16.2952 9.80488 16.0339C9.82355 15.7632 9.84222 15.5392 9.86088 15.3619V15.3339C9.58088 15.4366 9.32888 15.5719 9.10488 15.7399C8.88088 15.8986 8.74088 16.0012 8.68488 16.0479C8.62888 16.0852 8.55422 16.1179 8.46088 16.1459C8.36755 16.1646 8.28355 16.1786 8.20888 16.1879C8.03155 16.1972 7.91022 16.2252 7.84488 16.2719C7.30355 17.2426 6.81822 17.7839 6.38888 17.8959C6.11822 17.9799 5.84755 17.9986 5.57688 17.9519C5.30622 17.9146 5.09155 17.7559 4.93288 17.4759C4.63422 17.1959 4.70888 16.4306 5.15688 15.1799C5.39955 14.5172 5.74488 13.7239 6.19288 12.7999C6.65022 11.8666 7.08888 11.0546 7.50888 10.3639C8.41422 8.87994 9.40822 7.62927 10.4909 6.61194C10.6682 6.53727 10.8595 6.45327 11.0649 6.35994C11.2702 6.25727 11.4709 6.20127 11.6669 6.19194C11.8722 6.18261 12.0822 6.20594 12.2969 6.26194C12.5115 6.31794 12.6935 6.40194 12.8429 6.51394C13.1882 6.77527 13.2396 7.10661 12.9969 7.50794ZM10.0009 11.1899C9.80488 11.7499 9.60888 12.2679 9.41288 12.7439C9.21688 13.2106 9.04888 13.6212 8.90888 13.9759L10.0149 13.9339C10.0895 13.3366 10.1735 12.7439 10.2669 12.1559C10.3602 11.5679 10.4489 10.9799 10.5329 10.3919L10.0009 11.1899ZM9.62288 13.9899C9.75355 13.9899 9.88422 13.9806 10.0149 13.9619V13.9479C9.89355 13.9572 9.78155 13.9666 9.67888 13.9759C9.57622 13.9852 9.55755 13.9899 9.62288 13.9899ZM19.0372 11.4139C19.1959 11.1246 19.4059 10.9799 19.6672 10.9799C20.0686 11.2039 20.3206 11.5679 20.4232 12.0719C20.5259 12.5759 20.4139 13.0286 20.0872 13.4299C20.0779 13.4392 20.0826 13.5186 20.1012 13.6679C20.2692 14.6012 20.2086 15.5719 19.9192 16.5799C19.8166 16.9159 19.6952 17.2286 19.5552 17.5179C19.4246 17.8072 19.2566 18.1712 19.0512 18.6099C18.8552 19.0486 18.5752 19.4826 18.2112 19.9119C17.8472 20.3412 17.4366 20.6819 16.9792 20.9339C16.0179 21.4752 14.9446 21.5919 13.7592 21.2839C13.3299 21.1159 13.0312 20.9199 12.8632 20.6959C12.6486 20.4252 12.5739 20.1359 12.6392 19.8279C12.7046 19.4452 12.9286 19.2352 13.3112 19.1979C13.4979 19.1792 13.7312 19.2492 14.0112 19.4079C14.3286 19.4732 14.5852 19.4686 14.7812 19.3939C14.9772 19.3192 15.1312 19.2492 15.2432 19.1839C15.3646 19.1279 15.5139 19.0532 15.6912 18.9599C15.9992 18.8012 16.3492 18.4372 16.7412 17.8679C16.9559 17.5692 17.1706 17.1679 17.3852 16.6639C17.0399 17.1026 16.4892 17.3172 15.7332 17.3079C15.5186 17.2986 15.2759 17.2892 15.0052 17.2799C14.7439 17.2706 14.5059 17.1819 14.2912 17.0139C14.0766 16.8459 13.9039 16.6266 13.7732 16.3559C13.6426 16.0852 13.5539 15.7772 13.5072 15.4319C13.4699 15.0772 13.4699 14.7179 13.5072 14.3539C13.6566 13.0846 14.1886 12.0812 15.1032 11.3439C15.7286 10.8306 16.4006 10.5552 17.1192 10.5179C17.4646 10.4992 17.7912 10.5366 18.0992 10.6299C18.4726 10.7699 18.7852 11.0312 19.0372 11.4139ZM17.3292 14.5919C17.3292 14.5639 17.3339 14.5406 17.3432 14.5219C17.2966 14.5032 17.2499 14.4892 17.2032 14.4799C17.1566 14.4612 17.0726 14.4332 16.9512 14.3959C16.8299 14.3586 16.6666 14.3819 16.4612 14.4659C16.2559 14.5406 16.0739 14.6479 15.9152 14.7879C15.7659 14.9186 15.6446 15.0586 15.5512 15.2079C15.4672 15.3572 15.4532 15.4832 15.5092 15.5859C15.5746 15.6886 15.6866 15.7306 15.8452 15.7119C16.0039 15.6839 16.1766 15.6139 16.3632 15.5019C16.7739 15.2499 17.0959 14.9466 17.3292 14.5919Z" fill="white"/>
</svg>
