<svg width="24" height="24" viewBox="0 0 24 24" fill="none" xmlns="http://www.w3.org/2000/svg">
<path d="M3.02688 17.1401C2.83088 17.1401 2.73288 17.0421 2.73288 16.8461C2.73288 16.7808 2.73754 16.7294 2.74688 16.6921L3.75488 10.9941C4.22154 8.37139 5.73821 7.06006 8.30488 7.06006C9.35954 7.06006 10.1809 7.33073 10.7689 7.87206C11.3569 8.40406 11.6509 9.14606 11.6509 10.0981C11.6509 10.3688 11.6229 10.6674 11.5669 10.9941L10.5589 16.6921C10.5029 16.9908 10.3535 17.1401 10.1109 17.1401C9.90554 17.1401 9.80288 17.0374 9.80288 16.8321C9.80288 16.7761 9.80754 16.7294 9.81688 16.6921L10.4329 13.2201H4.10487L3.48888 16.6921C3.43288 16.9908 3.27888 17.1401 3.02688 17.1401ZM10.5449 12.5621L10.8249 10.9521C10.8809 10.6254 10.9089 10.3268 10.9089 10.0561C10.9089 8.51606 10.0175 7.74606 8.23488 7.74606C7.17088 7.74606 6.32621 8.01206 5.70088 8.54406C5.08488 9.07606 4.68354 9.87873 4.49688 10.9521L4.21688 12.5621H10.5449ZM15.8828 20.5141C14.7535 20.5141 13.8435 20.1688 13.1528 19.4781C13.0688 19.3941 13.0268 19.3008 13.0268 19.1981C13.0268 19.1048 13.0595 19.0254 13.1248 18.9601C13.1901 18.8948 13.2741 18.8621 13.3768 18.8621C13.4888 18.8621 13.5868 18.9181 13.6708 19.0301C13.8668 19.3101 14.1515 19.5201 14.5248 19.6601C14.9075 19.8094 15.3648 19.8841 15.8968 19.8841C16.8861 19.8841 17.6748 19.6648 18.2628 19.2261C18.8601 18.7874 19.2335 18.1434 19.3828 17.2941L19.6768 15.6701C18.7435 16.7061 17.5908 17.2241 16.2188 17.2241C15.5841 17.2241 15.0241 17.1074 14.5388 16.8741C14.0628 16.6314 13.6941 16.2954 13.4328 15.8661C13.1715 15.4274 13.0408 14.9234 13.0408 14.3541C13.0408 13.5141 13.2275 12.7674 13.6008 12.1141C13.9835 11.4608 14.5155 10.9521 15.1968 10.5881C15.8781 10.2241 16.6575 10.0421 17.5348 10.0421C18.1788 10.0421 18.7481 10.1821 19.2428 10.4621C19.7375 10.7328 20.1201 11.1248 20.3908 11.6381L20.6148 10.4061C20.6335 10.2941 20.6848 10.2008 20.7688 10.1261C20.8528 10.0421 20.9415 10.0001 21.0348 10.0001C21.1375 10.0001 21.2168 10.0374 21.2728 10.1121C21.3288 10.1868 21.3475 10.2848 21.3288 10.4061L20.0968 17.2941C19.9101 18.3208 19.4481 19.1141 18.7108 19.6741C17.9828 20.2341 17.0401 20.5141 15.8828 20.5141ZM16.3448 16.5521C17.0355 16.5521 17.6655 16.3981 18.2348 16.0901C18.8041 15.7728 19.2475 15.3434 19.5648 14.8021C19.8915 14.2514 20.0548 13.6401 20.0548 12.9681C20.0548 12.2588 19.8261 11.7081 19.3688 11.3161C18.9208 10.9148 18.2908 10.7141 17.4788 10.7141C16.7415 10.7141 16.0928 10.8681 15.5328 11.1761C14.9728 11.4748 14.5388 11.9041 14.2308 12.4641C13.9228 13.0148 13.7688 13.6541 13.7688 14.3821C13.7688 15.0821 13.9881 15.6188 14.4268 15.9921C14.8748 16.3654 15.5141 16.5521 16.3448 16.5521Z" fill="white"/>
</svg>
