<svg width="24" height="24" viewBox="0 0 24 24" fill="none" xmlns="http://www.w3.org/2000/svg">
<path d="M9.32726 12.4022C9.39259 12.4022 9.42992 12.3882 9.43926 12.3602C9.45792 12.3322 9.46259 12.2809 9.45326 12.2062C9.34126 11.8422 9.22926 11.4782 9.11726 11.1142C9.00526 10.7409 8.89326 10.3582 8.78126 9.96619C8.65992 9.57419 8.53392 9.16352 8.40326 8.73419C8.28192 8.30486 8.14659 7.85219 7.99726 7.37619C7.84792 7.85219 7.69859 8.31886 7.54926 8.77619C7.40926 9.23352 7.26926 9.66752 7.12926 10.0782C6.99859 10.4889 6.87259 10.8762 6.75126 11.2402C6.62992 11.6042 6.52726 11.9309 6.44326 12.2202C6.42459 12.2949 6.42459 12.3462 6.44326 12.3742C6.46192 12.3929 6.50392 12.4022 6.56926 12.4022H9.32726ZM10.4473 15.6082C10.3913 15.4215 10.3306 15.2255 10.2653 15.0202C10.1999 14.8149 10.1346 14.6049 10.0693 14.3902C10.0039 14.1849 9.93859 13.9795 9.87326 13.7742C9.80792 13.5689 9.74726 13.3682 9.69126 13.1722C9.67259 13.1162 9.64926 13.0789 9.62126 13.0602C9.60259 13.0415 9.56992 13.0322 9.52326 13.0322H6.33126C6.29392 13.0322 6.26126 13.0415 6.23326 13.0602C6.21459 13.0695 6.20059 13.0929 6.19126 13.1302C6.06992 13.5129 5.93926 13.9329 5.79926 14.3902C5.65926 14.8382 5.54726 15.2442 5.46326 15.6082C5.43526 15.7389 5.42126 15.8695 5.42126 16.0002C5.42126 16.1215 5.48192 16.2102 5.60326 16.2662C5.72459 16.3222 5.85526 16.3595 5.99526 16.3782C6.13526 16.4062 6.29392 16.4249 6.47126 16.4342C6.50859 16.4435 6.53659 16.4575 6.55526 16.4762C6.58326 16.5042 6.59726 16.5509 6.59726 16.6162C6.59726 16.6909 6.58326 16.7375 6.55526 16.7562C6.52726 16.7842 6.48526 16.7982 6.42926 16.7982C6.38259 16.7982 6.28926 16.7982 6.14926 16.7982C6.01859 16.7982 5.87392 16.7935 5.71526 16.7842C5.55659 16.7842 5.40259 16.7795 5.25326 16.7702C5.11326 16.7702 5.02459 16.7702 4.98726 16.7702C4.93126 16.7702 4.83792 16.7702 4.70726 16.7702C4.57659 16.7795 4.43659 16.7842 4.28726 16.7842C4.13792 16.7935 3.99792 16.7982 3.86726 16.7982C3.74592 16.7982 3.66659 16.7982 3.62926 16.7982C3.57326 16.7982 3.53126 16.7842 3.50326 16.7562C3.47526 16.7375 3.46126 16.6909 3.46126 16.6162C3.46126 16.5415 3.47526 16.4949 3.50326 16.4762C3.53126 16.4575 3.56392 16.4435 3.60126 16.4342C3.71326 16.4342 3.82992 16.4202 3.95126 16.3922C4.08192 16.3735 4.19392 16.3409 4.28726 16.2942C4.42726 16.2382 4.53459 16.1355 4.60926 15.9862C4.69326 15.8369 4.76326 15.6782 4.81926 15.5102C5.32326 14.1009 5.82726 12.6355 6.33126 11.1142C6.83526 9.58352 7.31592 8.09952 7.77326 6.66219C7.77326 6.63419 7.78259 6.61086 7.80126 6.59219C7.81992 6.56419 7.84326 6.54086 7.87126 6.52219L8.48726 6.22819C8.51526 6.21886 8.53859 6.21886 8.55726 6.22819C8.57592 6.23752 8.59459 6.25619 8.61326 6.28419C9.07059 7.79619 9.54659 9.33619 10.0413 10.9042C10.5359 12.4722 11.0259 14.0075 11.5113 15.5102C11.5673 15.6782 11.6326 15.8369 11.7073 15.9862C11.7913 16.1355 11.9033 16.2382 12.0433 16.2942C12.1273 16.3409 12.2346 16.3735 12.3653 16.3922C12.4959 16.4202 12.6173 16.4342 12.7293 16.4342C12.7573 16.4435 12.7853 16.4575 12.8133 16.4762C12.8506 16.4949 12.8693 16.5415 12.8693 16.6162C12.8693 16.6909 12.8553 16.7375 12.8273 16.7562C12.7993 16.7842 12.7573 16.7982 12.7013 16.7982C12.6546 16.7982 12.5566 16.7982 12.4073 16.7982C12.2673 16.7982 12.1086 16.7935 11.9313 16.7842C11.7633 16.7842 11.5999 16.7795 11.4413 16.7702C11.2919 16.7702 11.1939 16.7702 11.1473 16.7702C11.1006 16.7702 10.9933 16.7702 10.8253 16.7702C10.6666 16.7795 10.4939 16.7842 10.3073 16.7842C10.1299 16.7935 9.96192 16.7982 9.80326 16.7982C9.64459 16.7982 9.54659 16.7982 9.50926 16.7982C9.44392 16.7982 9.39726 16.7842 9.36926 16.7562C9.35059 16.7375 9.34126 16.6909 9.34126 16.6162C9.34126 16.5509 9.35059 16.5042 9.36926 16.4762C9.38792 16.4575 9.42059 16.4435 9.46726 16.4342C9.63526 16.4249 9.78459 16.4062 9.91526 16.3782C10.0459 16.3595 10.1766 16.3222 10.3073 16.2662C10.4193 16.2102 10.4753 16.1215 10.4753 16.0002C10.4846 15.8695 10.4753 15.7389 10.4473 15.6082ZM18.2448 11.9262C18.2448 11.3942 18.1048 10.9649 17.8248 10.6382C17.5448 10.3115 17.1202 10.1482 16.5508 10.1482C16.0468 10.1482 15.6315 10.3115 15.3048 10.6382C14.9875 10.9649 14.8288 11.3942 14.8288 11.9262C14.8288 12.4302 14.9688 12.8455 15.2488 13.1722C15.5382 13.4895 15.9722 13.6482 16.5508 13.6482C17.1202 13.6482 17.5448 13.4895 17.8248 13.1722C18.1048 12.8455 18.2448 12.4302 18.2448 11.9262ZM13.9468 14.9642C13.9468 14.8149 13.9842 14.6842 14.0588 14.5722C14.1428 14.4602 14.2455 14.3669 14.3668 14.2922C14.4788 14.2175 14.5955 14.1569 14.7168 14.1102C14.8475 14.0635 14.9595 14.0309 15.0528 14.0122C15.1275 13.9935 15.1648 13.9609 15.1648 13.9142C15.1648 13.8582 15.1322 13.8115 15.0668 13.7742C14.9548 13.7182 14.8288 13.6435 14.6888 13.5502C14.5582 13.4569 14.4322 13.3402 14.3108 13.2002C14.1895 13.0602 14.0868 12.8969 14.0028 12.7102C13.9282 12.5142 13.8908 12.2902 13.8908 12.0382C13.8908 11.3289 14.1382 10.7735 14.6328 10.3722C15.1368 9.97086 15.7668 9.77019 16.5228 9.77019C16.8122 9.77952 17.0642 9.81219 17.2788 9.86819C17.4935 9.91486 17.7082 9.99419 17.9228 10.1062C18.0348 10.1622 18.1655 10.2089 18.3148 10.2462C18.4642 10.2835 18.6135 10.2975 18.7628 10.2882H19.8408C19.9062 10.2882 19.9575 10.3069 19.9948 10.3442C20.0322 10.3815 20.0508 10.4562 20.0508 10.5682C20.0508 10.6989 20.0275 10.7782 19.9808 10.8062C19.9342 10.8342 19.8828 10.8482 19.8268 10.8482H19.0008C18.9168 10.8482 18.8748 10.8762 18.8748 10.9322C18.8842 10.9789 18.9028 11.0302 18.9308 11.0862C18.9775 11.1982 19.0195 11.3382 19.0568 11.5062C19.0942 11.6742 19.1128 11.8329 19.1128 11.9822C19.1128 12.2529 19.0662 12.5095 18.9728 12.7522C18.8888 12.9949 18.7442 13.2095 18.5388 13.3962C18.3428 13.5829 18.0815 13.7322 17.7548 13.8442C17.4282 13.9469 17.0268 13.9982 16.5508 13.9982C16.3455 13.9982 16.1448 14.0122 15.9488 14.0402C15.7528 14.0682 15.5755 14.1102 15.4168 14.1662C15.2582 14.2129 15.1322 14.2689 15.0388 14.3342C14.9455 14.3995 14.8988 14.4695 14.8988 14.5442C14.8988 14.6002 14.9035 14.6609 14.9128 14.7262C14.9315 14.7822 14.9782 14.8335 15.0528 14.8802C15.1182 14.9362 15.2302 14.9782 15.3888 15.0062C15.5475 15.0342 15.7668 15.0482 16.0468 15.0482H17.6988C18.5108 15.0482 19.0802 15.1975 19.4068 15.4962C19.7428 15.7855 19.9108 16.2009 19.9108 16.7422C19.9108 17.4515 19.5515 18.0349 18.8328 18.4922C18.1235 18.9589 17.0548 19.1922 15.6268 19.1922C14.8895 19.1922 14.3715 19.0709 14.0728 18.8282C13.7835 18.5855 13.6388 18.2122 13.6388 17.7082C13.6388 17.5122 13.6855 17.3162 13.7788 17.1202C13.8815 16.9335 14.0075 16.7609 14.1568 16.6022C14.3062 16.4435 14.4742 16.2989 14.6608 16.1682C14.8475 16.0469 15.0248 15.9489 15.1928 15.8742C14.7448 15.7902 14.4228 15.6689 14.2268 15.5102C14.0308 15.3422 13.9375 15.1602 13.9468 14.9642ZM15.8788 15.8882C15.7108 15.8882 15.5428 15.9255 15.3748 16.0002C15.2162 16.0842 15.0668 16.1915 14.9268 16.3222C14.7962 16.4529 14.6888 16.5975 14.6048 16.7562C14.5302 16.9242 14.4928 17.0969 14.4928 17.2742C14.4928 17.7222 14.6748 18.0675 15.0388 18.3102C15.4122 18.5622 15.8695 18.6882 16.4108 18.6882C17.3628 18.6882 18.0582 18.5482 18.4968 18.2682C18.9448 17.9882 19.1688 17.5962 19.1688 17.0922C19.1688 16.7189 19.0475 16.4249 18.8048 16.2102C18.5622 15.9955 18.1235 15.8882 17.4888 15.8882H15.8788Z" fill="white"/>
</svg>
