<svg width="24" height="24" viewBox="0 0 24 24" fill="none" xmlns="http://www.w3.org/2000/svg">
<path d="M9.67305 17.0002C9.64505 16.0015 9.59838 15.1475 9.53305 14.4382H5.36105C5.10905 15.1382 4.83371 15.9922 4.53505 17.0002H2.78505C3.31705 15.0775 3.97505 13.3182 4.75905 11.7222C5.54305 10.1169 6.48571 8.60953 7.58705 7.2002H9.37905C10.0417 8.7122 10.541 10.2755 10.877 11.8902C11.213 13.5049 11.395 15.2082 11.423 17.0002H9.67305ZM9.39305 13.1362C9.17838 11.4842 8.80505 9.9722 8.27305 8.6002C7.29305 10.0282 6.48571 11.5402 5.85105 13.1362H9.39305ZM20.7815 9.3562C20.7815 9.51487 20.7582 9.7202 20.7115 9.9722C20.0115 9.9722 19.5075 10.0655 19.1995 10.2522C19.4608 10.6162 19.5915 11.0222 19.5915 11.4702C19.5915 12.4409 19.2928 13.1782 18.6955 13.6822C18.0982 14.1769 17.2068 14.4242 16.0215 14.4242C15.4895 14.4242 15.1022 14.4615 14.8595 14.5362C14.6168 14.6109 14.4862 14.7369 14.4675 14.9142C14.4582 15.0915 14.5702 15.2129 14.8035 15.2782C15.0368 15.3342 15.4988 15.3622 16.1895 15.3622C17.2068 15.3622 17.9815 15.5302 18.5135 15.8662C19.0548 16.2022 19.3255 16.6829 19.3255 17.3082C19.3255 18.1202 18.9802 18.7502 18.2895 19.1982C17.6082 19.6462 16.6468 19.8702 15.4055 19.8702C14.3228 19.8702 13.4875 19.7069 12.8995 19.3802C12.3115 19.0535 12.0175 18.5915 12.0175 17.9942C12.0175 17.5089 12.1855 17.1169 12.5215 16.8182C12.8668 16.5102 13.3568 16.3189 13.9915 16.2442V16.2022C13.6928 16.1369 13.4548 16.0202 13.2775 15.8522C13.1095 15.6842 13.0255 15.4835 13.0255 15.2502C13.0255 14.9702 13.1422 14.7229 13.3755 14.5082C13.6088 14.2842 13.9168 14.1255 14.2995 14.0322C13.9355 13.8455 13.6508 13.5935 13.4455 13.2762C13.2495 12.9495 13.1515 12.5855 13.1515 12.1842C13.1515 11.2135 13.4595 10.4669 14.0755 9.9442C14.6915 9.42153 15.5642 9.1602 16.6935 9.1602C17.3375 9.1602 17.8975 9.29087 18.3735 9.5522C18.6442 9.2722 18.9382 9.0482 19.2555 8.8802C19.5728 8.70287 19.8668 8.6142 20.1375 8.6142C20.3615 8.6142 20.5248 8.67487 20.6275 8.7962C20.7302 8.9082 20.7815 9.09487 20.7815 9.3562ZM16.1475 13.2622C17.2768 13.2622 17.8415 12.6415 17.8415 11.4002C17.8415 11.0269 17.7388 10.7515 17.5335 10.5742C17.3282 10.3875 17.0062 10.2942 16.5675 10.2942C16.0168 10.2942 15.5968 10.4482 15.3075 10.7562C15.0275 11.0642 14.8875 11.5169 14.8875 12.1142C14.8875 12.8795 15.3075 13.2622 16.1475 13.2622ZM15.7975 16.5102C14.4628 16.5102 13.7955 16.9395 13.7955 17.7982C13.7955 18.1155 13.9262 18.3489 14.1875 18.4982C14.4582 18.6475 14.8782 18.7222 15.4475 18.7222C16.1568 18.7222 16.7028 18.6102 17.0855 18.3862C17.4682 18.1622 17.6595 17.8402 17.6595 17.4202C17.6595 17.1122 17.5102 16.8835 17.2115 16.7342C16.9128 16.5849 16.4415 16.5102 15.7975 16.5102Z" fill="white"/>
</svg>
