<svg width="24" height="24" viewBox="0 0 24 24" fill="none" xmlns="http://www.w3.org/2000/svg">
<path d="M5.12305 17H2.28613L6.29199 6.74609H9.12891L13.1279 17H10.291L9.62793 15.1748H5.78613L5.12305 17ZM6.64746 12.8164H8.77344L7.70703 9.89062L6.64746 12.8164ZM16.6074 17.1367C16.015 17.1367 15.4863 16.984 15.0215 16.6787C14.5612 16.3688 14.1989 15.9473 13.9346 15.4141C13.6702 14.8763 13.5381 14.2656 13.5381 13.582C13.5381 12.8939 13.6702 12.2832 13.9346 11.75C14.1989 11.2168 14.5612 10.7975 15.0215 10.4922C15.4863 10.1823 16.015 10.0273 16.6074 10.0273C17.0586 10.0273 17.4733 10.1185 17.8516 10.3008C18.2344 10.4831 18.5625 10.736 18.8359 11.0596L18.9521 10.1641H21.1602V16.8018C21.1602 17.5492 20.9847 18.2054 20.6338 18.7705C20.2829 19.3356 19.793 19.7731 19.1641 20.083C18.5352 20.3975 17.8014 20.5547 16.9629 20.5547C15.819 20.5547 14.7549 20.2106 13.7705 19.5225L14.7617 17.4512C15.3542 18.0163 16.0218 18.2988 16.7646 18.2988C17.1292 18.2988 17.4505 18.2305 17.7285 18.0938C18.0111 17.957 18.2321 17.7656 18.3916 17.5195C18.5557 17.278 18.6377 17.0023 18.6377 16.6924V16.3164C18.3734 16.5762 18.068 16.779 17.7217 16.9248C17.3799 17.0661 17.0085 17.1367 16.6074 17.1367ZM17.3867 14.8809C17.6191 14.8809 17.8288 14.833 18.0156 14.7373C18.207 14.637 18.3574 14.498 18.4668 14.3203C18.5807 14.1426 18.6377 13.9398 18.6377 13.7119V13.4316C18.6377 13.2083 18.5807 13.0101 18.4668 12.8369C18.3529 12.6637 18.2002 12.5293 18.0088 12.4336C17.8219 12.3333 17.6146 12.2832 17.3867 12.2832C17.1452 12.2832 16.9287 12.3402 16.7373 12.4541C16.5459 12.5635 16.3955 12.7161 16.2861 12.9121C16.1768 13.1081 16.1221 13.3314 16.1221 13.582C16.1221 13.8327 16.1768 14.056 16.2861 14.252C16.3955 14.4479 16.5459 14.6029 16.7373 14.7168C16.9287 14.8262 17.1452 14.8809 17.3867 14.8809Z" fill="white"/>
</svg>
