<svg width="24" height="24" viewBox="0 0 24 24" fill="none" xmlns="http://www.w3.org/2000/svg">
<path d="M5.18529 7.2002H8.58729L12.1853 17.0002H9.41329L8.43329 14.2562H5.31129L4.31729 17.0002H1.58729L5.18529 7.2002ZM8.33529 13.9902L6.87929 9.9862L5.40929 13.9902H8.33529ZM17.2802 19.9402C16.4029 19.9402 15.6562 19.8562 15.0402 19.6882C14.4242 19.5202 13.9529 19.2729 13.6262 18.9462C13.3089 18.6195 13.1502 18.2275 13.1502 17.7702C13.1502 17.2755 13.3789 16.8322 13.8362 16.4402C14.2935 16.0482 15.0542 15.8055 16.1182 15.7122C14.9329 15.5909 14.0695 15.3855 13.5282 15.0962C12.9962 14.8069 12.7302 14.4382 12.7302 13.9902C12.7302 13.7662 12.8049 13.5795 12.9542 13.4302C13.1129 13.2715 13.3182 13.1922 13.5702 13.1922C13.6169 13.1922 13.6635 13.1969 13.7102 13.2062C13.7569 13.2155 13.8035 13.2249 13.8502 13.2342C13.9155 13.2529 13.9855 13.2809 14.0602 13.3182C14.1349 13.3462 14.2142 13.3835 14.2982 13.4302C13.7755 12.9822 13.5142 12.5202 13.5142 12.0442C13.5142 11.5029 13.7429 11.0455 14.2002 10.6722C14.6575 10.2989 15.3435 10.0562 16.2582 9.9442V8.1802H18.6522V9.9442C19.2402 10.0189 19.7395 10.1589 20.1502 10.3642C20.5702 10.5695 20.8922 10.8309 21.1162 11.1482C21.3402 11.4655 21.4522 11.8342 21.4522 12.2542C21.4522 12.7302 21.2889 13.1409 20.9622 13.4862C20.6449 13.8315 20.1875 14.0975 19.5902 14.2842C18.9929 14.4615 18.2882 14.5502 17.4762 14.5502C17.0002 14.5502 16.5802 14.5175 16.2162 14.4522C15.8615 14.3775 15.5629 14.2935 15.3202 14.2002C15.0869 14.1069 14.8349 13.9855 14.5642 13.8362C14.3309 13.7149 14.1395 13.6262 13.9902 13.5702C13.8409 13.5142 13.6822 13.4862 13.5142 13.4862C13.3649 13.4862 13.2435 13.5329 13.1502 13.6262C13.0569 13.7195 13.0102 13.8362 13.0102 13.9762C13.0102 14.2469 13.1409 14.4849 13.4022 14.6902C13.6729 14.8955 14.0602 15.0635 14.5642 15.1942C15.0775 15.3155 15.6889 15.3995 16.3982 15.4462C16.5662 15.4555 16.7389 15.4649 16.9162 15.4742C17.1029 15.4742 17.2895 15.4742 17.4762 15.4742C18.7735 15.4835 19.7675 15.6655 20.4582 16.0202C21.1489 16.3749 21.4942 16.8835 21.4942 17.5462C21.4942 18.0409 21.3215 18.4655 20.9762 18.8202C20.6402 19.1842 20.1549 19.4595 19.5202 19.6462C18.8949 19.8422 18.1482 19.9402 17.2802 19.9402ZM17.3222 18.2462C17.6675 18.2462 17.9755 18.1902 18.2462 18.0782C18.5262 17.9755 18.7409 17.8309 18.8902 17.6442C19.0395 17.4669 19.1142 17.2615 19.1142 17.0282C19.1142 16.6455 18.9509 16.3375 18.6242 16.1042C18.2975 15.8709 17.8635 15.7542 17.3222 15.7542C16.9675 15.7542 16.6549 15.8102 16.3842 15.9222C16.1135 16.0249 15.9035 16.1742 15.7542 16.3702C15.6049 16.5569 15.5302 16.7762 15.5302 17.0282C15.5302 17.2615 15.6049 17.4669 15.7542 17.6442C15.9035 17.8309 16.1135 17.9755 16.3842 18.0782C16.6549 18.1902 16.9675 18.2462 17.3222 18.2462ZM17.4762 14.3122C17.9709 14.3122 18.3722 14.1815 18.6802 13.9202C18.9975 13.6495 19.1562 13.2995 19.1562 12.8702C19.1562 12.4409 18.9975 12.0862 18.6802 11.8062C18.3722 11.5262 17.9709 11.3862 17.4762 11.3862C16.9815 11.3862 16.5755 11.5262 16.2582 11.8062C15.9502 12.0862 15.7962 12.4409 15.7962 12.8702C15.7962 13.2995 15.9502 13.6495 16.2582 13.9202C16.5755 14.1815 16.9815 14.3122 17.4762 14.3122Z" fill="white"/>
</svg>
