<svg width="24" height="24" viewBox="0 0 24 24" fill="none" xmlns="http://www.w3.org/2000/svg">
<path d="M2.16112 14.7182H3.28112L5.17112 9.4822H3.88312V7.2002H9.62312L12.1291 14.7182H13.2631V17.0002H8.20912V14.7182H9.41312L9.07712 13.7102H6.03912L5.68912 14.7182H7.03312V17.0002H2.16112V14.7182ZM8.54512 11.9322L7.76112 9.5382H7.43912L6.59912 11.9322H8.54512ZM17.7606 19.9402C16.958 19.9402 16.272 19.8515 15.7026 19.6742C15.1333 19.5062 14.6993 19.2495 14.4006 18.9042C14.1113 18.5682 13.9666 18.1622 13.9666 17.6862C13.9666 17.3689 14.06 17.0889 14.2466 16.8462C14.4426 16.6035 14.7086 16.4075 15.0446 16.2582C14.466 16.1555 14.0226 15.9409 13.7146 15.6142C13.4066 15.2875 13.2526 14.9002 13.2526 14.4522C13.2526 14.2469 13.2946 14.0462 13.3786 13.8502C13.472 13.6542 13.6073 13.4862 13.7846 13.3462C13.9713 13.1969 14.1953 13.0989 14.4566 13.0522C14.466 13.0522 14.4706 13.0522 14.4706 13.0522C14.48 13.0522 14.4846 13.0522 14.4846 13.0522C14.3726 12.8002 14.3166 12.5342 14.3166 12.2542C14.3166 11.6382 14.55 11.1295 15.0166 10.7282C15.4926 10.3269 16.174 10.0795 17.0606 9.9862V9.3562H15.6466V7.3822H20.2106V9.3562H18.7966V9.9862C19.366 9.97687 19.8606 10.0749 20.2806 10.2802C20.71 10.4855 21.0366 10.7655 21.2606 11.1202C21.4846 11.4655 21.5966 11.8435 21.5966 12.2542C21.5966 12.7395 21.4426 13.1642 21.1346 13.5282C20.836 13.8922 20.4113 14.1675 19.8606 14.3542C19.3193 14.5409 18.6846 14.6342 17.9566 14.6342C17.6393 14.6342 17.3546 14.6202 17.1026 14.5922C16.86 14.5549 16.65 14.5082 16.4726 14.4522C16.3046 14.3962 16.1413 14.3355 15.9826 14.2702C15.88 14.2235 15.782 14.1862 15.6886 14.1582C15.5953 14.1302 15.5113 14.1162 15.4366 14.1162C15.3246 14.1162 15.2266 14.1489 15.1426 14.2142C15.068 14.2702 15.0306 14.3449 15.0306 14.4382C15.0306 14.6062 15.11 14.7415 15.2686 14.8442C15.4273 14.9375 15.6513 15.0075 15.9406 15.0542C16.2393 15.1009 16.6546 15.1382 17.1866 15.1662C17.3173 15.1755 17.4526 15.1802 17.5926 15.1802C17.742 15.1802 17.896 15.1802 18.0546 15.1802C19.156 15.1989 20.0286 15.4182 20.6726 15.8382C21.3166 16.2489 21.6386 16.8182 21.6386 17.5462C21.6386 18.0409 21.48 18.4655 21.1626 18.8202C20.8546 19.1842 20.4066 19.4595 19.8186 19.6462C19.24 19.8422 18.554 19.9402 17.7606 19.9402ZM17.8026 18.2742C18.148 18.2742 18.4466 18.2415 18.6986 18.1762C18.96 18.1202 19.156 18.0362 19.2866 17.9242C19.4173 17.8122 19.4826 17.6769 19.4826 17.5182C19.4826 17.3595 19.4173 17.2195 19.2866 17.0982C19.156 16.9862 18.96 16.8975 18.6986 16.8322C18.4466 16.7669 18.148 16.7342 17.8026 16.7342C17.4573 16.7342 17.1586 16.7669 16.9066 16.8322C16.6546 16.8975 16.4586 16.9862 16.3186 17.0982C16.188 17.2195 16.1226 17.3595 16.1226 17.5182C16.1226 17.6769 16.188 17.8122 16.3186 17.9242C16.4586 18.0362 16.6546 18.1202 16.9066 18.1762C17.1586 18.2415 17.4573 18.2742 17.8026 18.2742ZM17.9566 13.0102C18.414 13.0102 18.7733 12.9449 19.0346 12.8142C19.3053 12.6742 19.4406 12.4875 19.4406 12.2542C19.4406 12.0115 19.3053 11.8249 19.0346 11.6942C18.7733 11.5542 18.414 11.4842 17.9566 11.4842C17.49 11.4842 17.126 11.5542 16.8646 11.6942C16.6033 11.8249 16.4726 12.0115 16.4726 12.2542C16.4726 12.4875 16.6033 12.6742 16.8646 12.8142C17.126 12.9449 17.49 13.0102 17.9566 13.0102Z" fill="white"/>
</svg>
