<svg width="24" height="24" viewBox="0 0 24 24" fill="none" xmlns="http://www.w3.org/2000/svg">
<path d="M2.48438 16.8599C2.59638 16.5892 2.70837 16.3279 2.82037 16.0759C2.93237 15.8146 3.0397 15.5626 3.14237 15.3199C3.34771 14.8439 3.5437 14.3772 3.73038 13.9199C3.92638 13.4532 4.1177 12.9772 4.30437 12.4919L5.53637 9.29989C5.2937 9.29989 5.05104 9.29989 4.80838 9.29989C4.56571 9.29989 4.32304 9.29989 4.08037 9.29989C4.05237 9.29989 4.0197 9.29989 3.98237 9.29989C3.95437 9.29989 3.92638 9.29989 3.89838 9.29989L4.61238 7.08789C5.28437 7.13456 6.06837 7.16722 6.96437 7.18589C7.86037 7.19522 8.59771 7.19989 9.17638 7.19989H9.93237C10.1564 8.06789 10.455 9.01989 10.8284 10.0559L11.8784 13.0799C12.1117 13.7612 12.4244 14.6059 12.8164 15.6139C12.891 15.8099 12.9657 16.0106 13.0404 16.2159C13.1244 16.4212 13.2084 16.6359 13.2924 16.8599V16.9999H8.42037L8.12638 14.9839L8.16838 14.8999H8.37838C8.54638 14.8999 8.71904 14.8999 8.89638 14.8999C9.07371 14.8999 9.25104 14.8999 9.42838 14.8999L9.13438 13.9199H6.33438C6.32504 13.9572 6.31103 13.9992 6.29237 14.0459C6.28303 14.0832 6.27371 14.1206 6.26437 14.1579C6.23637 14.2512 6.16171 14.4986 6.04037 14.8999C6.21771 14.8999 6.39038 14.8999 6.55838 14.8999C6.72638 14.8999 6.89437 14.8999 7.06238 14.8999C7.09971 14.8999 7.13703 14.8999 7.17437 14.8999C7.22103 14.8999 7.26303 14.8999 7.30037 14.8999L7.35637 14.9839L7.09037 16.9999H2.48438V16.8599ZM8.70038 12.0999L8.65837 11.9039C8.64903 11.8759 8.6397 11.8479 8.63037 11.8199C8.62104 11.7919 8.6117 11.7686 8.60238 11.7499C8.43437 11.2179 8.27104 10.7559 8.11238 10.3639C7.95371 9.96256 7.79504 9.64989 7.63638 9.42589L6.86637 12.0999H8.70038ZM17.5123 19.9399C16.7003 19.9399 16.0096 19.8559 15.4403 19.6879C14.8803 19.5199 14.4556 19.2726 14.1663 18.9459C13.8769 18.6286 13.7323 18.2366 13.7323 17.7699C13.7323 17.4619 13.8163 17.1866 13.9843 16.9439C14.1616 16.7012 14.3949 16.5052 14.6843 16.3559C14.1336 16.2626 13.7183 16.0432 13.4383 15.6979C13.1583 15.3526 13.0183 14.9606 13.0183 14.5219C13.0183 14.3446 13.0556 14.1579 13.1303 13.9619C13.2049 13.7566 13.3309 13.5746 13.5083 13.4159C13.6856 13.2572 13.9189 13.1452 14.2083 13.0799C14.1056 12.8279 14.0543 12.5619 14.0543 12.2819C14.0543 11.6846 14.2503 11.1899 14.6423 10.7979C15.0343 10.4059 15.5989 10.1352 16.3363 9.98589V9.41189C16.2336 9.41189 15.8976 9.47722 15.3283 9.60789L15.1323 9.64989L15.0763 9.56589L15.3703 7.47989H16.8263C17.1343 7.47989 17.4936 7.46589 17.9043 7.43789C18.3149 7.40989 18.6229 7.37722 18.8283 7.33989L18.8703 7.39589C18.8143 7.96522 18.7863 8.80989 18.7863 9.92989C19.3369 10.0046 19.8036 10.1492 20.1863 10.3639C20.5783 10.5692 20.8723 10.8352 21.0683 11.1619C21.2736 11.4792 21.3763 11.8526 21.3763 12.2819C21.3763 12.7859 21.2269 13.2199 20.9283 13.5839C20.6296 13.9479 20.2049 14.2279 19.6543 14.4239C19.1036 14.6106 18.4549 14.7039 17.7083 14.7039C17.4189 14.7039 17.1576 14.6899 16.9243 14.6619C16.6909 14.6246 16.4856 14.5826 16.3083 14.5359C16.1403 14.4799 15.9909 14.4239 15.8603 14.3679C15.7763 14.3399 15.6969 14.3166 15.6223 14.2979C15.5476 14.2699 15.4869 14.2559 15.4403 14.2559C15.3376 14.2559 15.2443 14.2839 15.1603 14.3399C15.0856 14.3959 15.0483 14.4659 15.0483 14.5499C15.0483 14.6619 15.1043 14.7552 15.2163 14.8299C15.3283 14.9046 15.5056 14.9652 15.7483 15.0119C15.9909 15.0586 16.3129 15.0912 16.7143 15.1099C16.8636 15.1192 17.0176 15.1239 17.1763 15.1239C17.3443 15.1239 17.5216 15.1239 17.7083 15.1239C18.8376 15.1239 19.7289 15.3386 20.3823 15.7679C21.0449 16.1879 21.3763 16.7666 21.3763 17.5039C21.3763 18.0079 21.2176 18.4419 20.9003 18.8059C20.5923 19.1699 20.1489 19.4499 19.5703 19.6459C18.9916 19.8419 18.3056 19.9399 17.5123 19.9399ZM17.5543 18.1339C17.8529 18.1339 18.1143 18.1012 18.3383 18.0359C18.5623 17.9799 18.7303 17.8912 18.8423 17.7699C18.9636 17.6486 19.0243 17.5086 19.0243 17.3499C19.0243 17.1819 18.9636 17.0372 18.8423 16.9159C18.7303 16.7946 18.5623 16.7012 18.3383 16.6359C18.1143 16.5706 17.8529 16.5379 17.5543 16.5379C17.2556 16.5379 16.9943 16.5706 16.7703 16.6359C16.5463 16.7012 16.3736 16.7946 16.2523 16.9159C16.1403 17.0372 16.0843 17.1819 16.0843 17.3499C16.0843 17.5086 16.1403 17.6486 16.2523 17.7699C16.3736 17.8912 16.5463 17.9799 16.7703 18.0359C16.9943 18.1012 17.2556 18.1339 17.5543 18.1339ZM17.7083 13.2339C18.0909 13.2339 18.3849 13.1686 18.5903 13.0379C18.7956 12.8979 18.8983 12.7019 18.8983 12.4499C18.8983 12.1886 18.7956 11.9879 18.5903 11.8479C18.3849 11.7079 18.0909 11.6379 17.7083 11.6379C17.3256 11.6379 17.0269 11.7079 16.8123 11.8479C16.6069 11.9879 16.5043 12.1886 16.5043 12.4499C16.5043 12.7019 16.6069 12.8979 16.8123 13.0379C17.0269 13.1686 17.3256 13.2339 17.7083 13.2339Z" fill="white"/>
</svg>
