<svg width="24" height="24" viewBox="0 0 24 24" fill="none" xmlns="http://www.w3.org/2000/svg">
<path d="M2.22888 17.0002L6.33088 7.2002H7.42288L11.5109 17.0002H10.6149L9.32688 13.8922H4.41288L3.09688 17.0002H2.22888ZM4.51088 13.6262H9.21488L6.87688 8.0682L4.51088 13.6262ZM16.6393 19.9402C15.8273 19.9402 15.1226 19.8515 14.5253 19.6742C13.9279 19.4969 13.4659 19.2402 13.1393 18.9042C12.8219 18.5775 12.6633 18.1902 12.6633 17.7422C12.6633 17.2195 12.8826 16.7715 13.3213 16.3982C13.7693 16.0249 14.4179 15.7729 15.2673 15.6422C14.2126 15.5489 13.4053 15.3715 12.8453 15.1102C12.2946 14.8489 12.0193 14.4335 12.0193 13.8642C12.0193 13.6309 12.1079 13.4302 12.2853 13.2622C12.4626 13.0942 12.6773 13.0102 12.9293 13.0102C12.9759 13.0102 13.0226 13.0102 13.0693 13.0102C13.1159 13.0102 13.1626 13.0149 13.2093 13.0242C13.2653 13.0429 13.3213 13.0615 13.3773 13.0802C13.4426 13.0895 13.5033 13.1035 13.5593 13.1222C13.2979 12.7955 13.1673 12.4455 13.1673 12.0722C13.1673 11.4469 13.4426 10.9382 13.9933 10.5462C14.5533 10.1542 15.3233 9.9302 16.3033 9.8742V8.1802H17.0733V9.8742C17.7453 9.89287 18.3286 9.99553 18.8233 10.1822C19.3273 10.3689 19.7146 10.6302 19.9853 10.9662C20.2653 11.3022 20.4053 11.6895 20.4053 12.1282C20.4053 12.5855 20.2559 12.9822 19.9573 13.3182C19.6586 13.6449 19.2339 13.9015 18.6833 14.0882C18.1419 14.2655 17.5119 14.3542 16.7933 14.3542C16.3173 14.3542 15.9066 14.3215 15.5613 14.2562C15.2159 14.1909 14.9406 14.1162 14.7353 14.0322C14.5299 13.9389 14.3059 13.8222 14.0633 13.6822C13.8299 13.5515 13.6339 13.4535 13.4753 13.3882C13.3166 13.3229 13.1346 13.2902 12.9293 13.2902C12.7426 13.2902 12.5886 13.3509 12.4673 13.4722C12.3553 13.5842 12.2993 13.7149 12.2993 13.8642C12.2993 14.2189 12.4533 14.5035 12.7613 14.7182C13.0693 14.9329 13.4753 15.0962 13.9793 15.2082C14.4926 15.3202 15.0946 15.3995 15.7853 15.4462C15.9346 15.4555 16.0839 15.4649 16.2333 15.4742C16.3826 15.4742 16.5366 15.4789 16.6953 15.4882C17.9273 15.5162 18.8933 15.6982 19.5933 16.0342C20.2933 16.3702 20.6433 16.9209 20.6433 17.6862C20.6433 18.1435 20.4799 18.5402 20.1533 18.8762C19.8266 19.2215 19.3599 19.4829 18.7533 19.6602C18.1466 19.8469 17.4419 19.9402 16.6393 19.9402ZM16.6393 19.3242C17.2833 19.3242 17.8479 19.2495 18.3333 19.1002C18.8186 18.9602 19.1919 18.7549 19.4533 18.4842C19.7239 18.2135 19.8593 17.9055 19.8593 17.5602C19.8593 16.9815 19.5839 16.5429 19.0333 16.2442C18.4826 15.9362 17.6846 15.7822 16.6393 15.7822C15.9953 15.7822 15.4306 15.8569 14.9453 16.0062C14.4693 16.1462 14.1006 16.3515 13.8393 16.6222C13.5779 16.8929 13.4473 17.2055 13.4473 17.5602C13.4473 17.9055 13.5779 18.2135 13.8393 18.4842C14.1006 18.7549 14.4693 18.9602 14.9453 19.1002C15.4306 19.2495 15.9953 19.3242 16.6393 19.3242ZM16.7933 14.0882C17.6519 14.0882 18.3426 13.9249 18.8653 13.5982C19.3879 13.2622 19.6493 12.8189 19.6493 12.2682C19.6493 11.7175 19.3879 11.2742 18.8653 10.9382C18.3426 10.6022 17.6519 10.4342 16.7933 10.4342C15.9159 10.4342 15.2159 10.6022 14.6933 10.9382C14.1799 11.2742 13.9233 11.7175 13.9233 12.2682C13.9233 12.8189 14.1799 13.2622 14.6933 13.5982C15.2066 13.9249 15.9066 14.0882 16.7933 14.0882Z" fill="white"/>
</svg>
