<svg width="24" height="24" viewBox="0 0 24 24" fill="none" xmlns="http://www.w3.org/2000/svg">
<path d="M1.84142 16.8602C1.93476 16.7295 2.05142 16.5569 2.19142 16.3422C2.33142 16.1182 2.46676 15.8849 2.59742 15.6422C2.90542 15.1009 3.20876 14.5082 3.50742 13.8642C3.81542 13.2202 4.06276 12.6649 4.24942 12.1982L5.46742 9.0622C5.22476 8.67953 4.97742 8.34353 4.72542 8.0542C4.47342 7.75553 4.24476 7.54087 4.03942 7.4102C4.01142 7.40087 3.98342 7.39153 3.95542 7.3822C3.92742 7.36353 3.90409 7.34953 3.88542 7.3402L3.89942 7.2002C4.37542 7.2002 4.84676 7.2002 5.31342 7.2002C5.78942 7.2002 6.26542 7.2002 6.74142 7.2002H7.51142C7.81009 8.1242 8.09942 8.9082 8.37942 9.5522L10.5214 14.8022C10.6334 15.0915 10.7501 15.3622 10.8714 15.6142C10.9554 15.7915 11.0441 15.9829 11.1374 16.1882C11.2401 16.3935 11.3474 16.6175 11.4594 16.8602V17.0002H7.73542L7.41342 16.6222L7.46942 16.5382L7.69342 16.5942C7.89876 16.6502 8.10876 16.7015 8.32342 16.7482C8.54742 16.7855 8.71076 16.8042 8.81342 16.8042L7.59542 13.7802H3.91342C3.85742 13.9109 3.81076 14.0415 3.77342 14.1722C3.73609 14.3029 3.69409 14.4382 3.64742 14.5782C3.37676 15.5209 3.21342 16.2629 3.15742 16.8042C3.25076 16.8042 3.40476 16.7855 3.61942 16.7482C3.84342 16.7015 4.05809 16.6502 4.26342 16.5942C4.31009 16.5849 4.35209 16.5755 4.38942 16.5662C4.42676 16.5569 4.46409 16.5475 4.50142 16.5382L4.55742 16.6222L4.23542 17.0002H1.84142V16.8602ZM7.49742 13.5282L6.48942 11.0362C6.48009 11.0269 6.47076 11.0129 6.46142 10.9942C6.46142 10.9755 6.45676 10.9569 6.44742 10.9382C6.32609 10.6395 6.19542 10.3549 6.05542 10.0842C5.91542 9.8042 5.77076 9.54287 5.62142 9.3002L4.01142 13.5282H7.49742ZM16.556 19.9402C15.7346 19.9402 15.002 19.8469 14.358 19.6602C13.7233 19.4735 13.2286 19.2169 12.874 18.8902C12.5193 18.5635 12.342 18.1855 12.342 17.7562C12.342 17.2149 12.6126 16.7575 13.154 16.3842C13.6953 16.0109 14.4233 15.7635 15.338 15.6422C14.0686 15.5489 13.0653 15.3622 12.328 15.0822C11.6 14.8022 11.236 14.3449 11.236 13.7102C11.236 13.5235 11.278 13.3602 11.362 13.2202C11.446 13.0802 11.5626 12.9729 11.712 12.8982C11.8706 12.8142 12.048 12.7722 12.244 12.7722C12.3466 12.7722 12.454 12.7909 12.566 12.8282C12.6873 12.8562 12.8086 12.8982 12.93 12.9542C12.79 12.7489 12.72 12.5015 12.72 12.2122C12.72 11.6335 12.9673 11.1435 13.462 10.7422C13.9566 10.3409 14.6286 10.0749 15.478 9.9442V8.4042C15.338 8.4042 15.0346 8.4742 14.568 8.6142L14.4 8.6562L14.358 8.5722L14.61 8.2082H15.884C16.1546 8.2082 16.4673 8.19887 16.822 8.1802C17.1766 8.1522 17.4426 8.11953 17.62 8.0822L17.662 8.1522C17.6246 8.63753 17.5966 9.23487 17.578 9.9442C18.1566 10.0095 18.6606 10.1495 19.09 10.3642C19.5193 10.5695 19.8506 10.8309 20.084 11.1482C20.3173 11.4655 20.434 11.8202 20.434 12.2122C20.434 12.6882 20.2706 13.1035 19.944 13.4582C19.6266 13.8129 19.174 14.0882 18.586 14.2842C18.0073 14.4709 17.34 14.5642 16.584 14.5642C16.0053 14.5642 15.5153 14.5175 15.114 14.4242C14.7126 14.3215 14.3906 14.2049 14.148 14.0742C13.9053 13.9342 13.6393 13.7615 13.35 13.5562C13.1353 13.3789 12.9486 13.2529 12.79 13.1782C12.6313 13.0942 12.4493 13.0522 12.244 13.0522C12.0293 13.0522 11.8566 13.1129 11.726 13.2342C11.5953 13.3462 11.53 13.4909 11.53 13.6682C11.53 14.0882 11.7213 14.4149 12.104 14.6482C12.4866 14.8815 12.958 15.0495 13.518 15.1522C14.078 15.2455 14.8433 15.3389 15.814 15.4322C16.1033 15.4602 16.3926 15.4929 16.682 15.5302C16.9806 15.5582 17.2746 15.5909 17.564 15.6282C18.5626 15.7775 19.3466 16.0109 19.916 16.3282C20.4853 16.6455 20.77 17.1215 20.77 17.7562C20.77 18.1855 20.5926 18.5635 20.238 18.8902C19.8926 19.2169 19.398 19.4735 18.754 19.6602C18.11 19.8469 17.3773 19.9402 16.556 19.9402ZM16.556 19.7582C16.9106 19.7582 17.2233 19.6742 17.494 19.5062C17.774 19.3382 17.9886 19.1002 18.138 18.7922C18.2873 18.4935 18.362 18.1482 18.362 17.7562C18.362 17.3642 18.2873 17.0189 18.138 16.7202C17.9886 16.4122 17.774 16.1742 17.494 16.0062C17.2233 15.8289 16.9106 15.7402 16.556 15.7402C16.2013 15.7402 15.884 15.8289 15.604 16.0062C15.3333 16.1742 15.1186 16.4122 14.96 16.7202C14.8106 17.0189 14.736 17.3642 14.736 17.7562C14.736 18.1482 14.8106 18.4935 14.96 18.7922C15.1186 19.1002 15.3333 19.3382 15.604 19.5062C15.884 19.6742 16.2013 19.7582 16.556 19.7582ZM16.584 14.3682C17.0973 14.3682 17.508 14.1722 17.816 13.7802C18.124 13.3789 18.278 12.8469 18.278 12.1842C18.278 11.5215 18.124 10.9942 17.816 10.6022C17.508 10.2009 17.0973 10.0002 16.584 10.0002C16.0613 10.0002 15.6413 10.2009 15.324 10.6022C15.016 10.9942 14.862 11.5215 14.862 12.1842C14.862 12.8469 15.016 13.3789 15.324 13.7802C15.6413 14.1722 16.0613 14.3682 16.584 14.3682Z" fill="white"/>
</svg>
