<svg width="24" height="24" viewBox="0 0 24 24" fill="none" xmlns="http://www.w3.org/2000/svg">
<path d="M2.18533 16.4822H3.48733L7.26733 7.9002L7.19733 7.7182H5.61533V7.2002H8.12133L12.0973 16.4822H13.4133V17.0002H9.22733V16.4822H11.2573L10.0953 13.8082H5.20933L4.03333 16.4822H6.11933V17.0002H2.18533V16.4822ZM9.88533 13.3042L7.68733 8.2082H7.65933L5.41933 13.3042H9.88533ZM17.2578 19.9402C16.4644 19.9402 15.7691 19.8469 15.1718 19.6602C14.5838 19.4829 14.1264 19.2262 13.7998 18.8902C13.4824 18.5635 13.3238 18.1762 13.3238 17.7282C13.3238 17.2055 13.5478 16.7669 13.9958 16.4122C14.4531 16.0482 15.0878 15.8149 15.8998 15.7122C14.8544 15.6469 14.0331 15.4835 13.4358 15.2222C12.8478 14.9515 12.5538 14.5129 12.5538 13.9062C12.5538 13.7382 12.5958 13.5795 12.6798 13.4302C12.7731 13.2809 12.8991 13.1642 13.0578 13.0802C13.2164 12.9869 13.3891 12.9402 13.5758 12.9402C13.6691 12.9402 13.7578 12.9495 13.8418 12.9682C13.9258 12.9869 14.0098 13.0149 14.0938 13.0522C13.9164 12.7722 13.8278 12.4595 13.8278 12.1142C13.8278 11.4795 14.1078 10.9662 14.6678 10.5742C15.2278 10.1729 15.9978 9.9442 16.9778 9.8882V8.6702H15.3818V8.1942H19.2738V8.6702H17.6638V9.8882C18.3358 9.90687 18.9191 10.0095 19.4138 10.1962C19.9084 10.3829 20.2864 10.6442 20.5478 10.9802C20.8184 11.3069 20.9538 11.6849 20.9538 12.1142C20.9538 12.5715 20.8044 12.9729 20.5058 13.3182C20.2164 13.6542 19.8011 13.9155 19.2598 14.1022C18.7184 14.2795 18.0978 14.3682 17.3978 14.3682C16.9218 14.3682 16.5158 14.3355 16.1798 14.2702C15.8438 14.2049 15.5731 14.1255 15.3678 14.0322C15.1624 13.9389 14.9478 13.8269 14.7238 13.6962C14.5091 13.5655 14.3271 13.4722 14.1778 13.4162C14.0378 13.3602 13.8651 13.3322 13.6598 13.3322C13.4731 13.3322 13.3238 13.3882 13.2118 13.5002C13.0998 13.6029 13.0438 13.7335 13.0438 13.8922C13.0438 14.2655 13.2024 14.5549 13.5198 14.7602C13.8371 14.9562 14.2338 15.0915 14.7098 15.1662C15.1951 15.2409 15.8531 15.3109 16.6838 15.3762C16.9078 15.3949 17.1271 15.4135 17.3418 15.4322C17.5658 15.4509 17.7898 15.4742 18.0138 15.5022C18.9751 15.5955 19.7498 15.8242 20.3378 16.1882C20.9258 16.5522 21.2198 17.0609 21.2198 17.7142C21.2198 18.1622 21.0564 18.5542 20.7298 18.8902C20.4124 19.2262 19.9551 19.4829 19.3578 19.6602C18.7604 19.8469 18.0604 19.9402 17.2578 19.9402ZM17.2718 19.4782C17.9158 19.4782 18.4758 19.4035 18.9518 19.2542C19.4371 19.1142 19.8058 18.9089 20.0578 18.6382C20.3191 18.3675 20.4498 18.0549 20.4498 17.7002C20.4498 17.3362 20.3191 17.0189 20.0578 16.7482C19.8058 16.4775 19.4371 16.2722 18.9518 16.1322C18.4758 15.9829 17.9158 15.9082 17.2718 15.9082C16.6278 15.9082 16.0631 15.9829 15.5778 16.1322C15.1018 16.2722 14.7331 16.4775 14.4718 16.7482C14.2198 17.0189 14.0938 17.3362 14.0938 17.7002C14.0938 18.0549 14.2244 18.3675 14.4858 18.6382C14.7471 18.9089 15.1158 19.1142 15.5918 19.2542C16.0678 19.4035 16.6278 19.4782 17.2718 19.4782ZM17.3978 13.9062C18.2564 13.9062 18.9378 13.7429 19.4418 13.4162C19.9551 13.0895 20.2118 12.6555 20.2118 12.1142C20.2118 11.5542 19.9551 11.1109 19.4418 10.7842C18.9378 10.4575 18.2564 10.2942 17.3978 10.2942C16.5298 10.2942 15.8391 10.4575 15.3258 10.7842C14.8124 11.1109 14.5558 11.5542 14.5558 12.1142C14.5558 12.6555 14.8124 13.0895 15.3258 13.4162C15.8391 13.7429 16.5298 13.9062 17.3978 13.9062Z" fill="white"/>
</svg>
