<svg width="24" height="24" viewBox="0 0 24 24" fill="none" xmlns="http://www.w3.org/2000/svg">
<path d="M2.32922 16.7202H3.57522L6.75322 8.5862L6.40322 7.4802H5.31122V7.2002H8.86722L12.1572 16.7202H13.4172V17.0002H7.70522V16.7202H9.58122L8.57322 13.7942H5.04522L3.89722 16.7202H6.12322V17.0002H2.32922V16.7202ZM8.48922 13.5142L6.90722 9.0202L5.15722 13.5142H8.48922ZM17.232 19.9402C16.3547 19.9402 15.5987 19.8515 14.964 19.6742C14.3387 19.5062 13.858 19.2589 13.522 18.9322C13.186 18.6055 13.018 18.2135 13.018 17.7562C13.018 17.2055 13.2793 16.7482 13.802 16.3842C14.334 16.0202 15.076 15.7729 16.028 15.6422C14.7493 15.5489 13.7413 15.3622 13.004 15.0822C12.276 14.8022 11.912 14.3449 11.912 13.7102C11.912 13.5235 11.954 13.3602 12.038 13.2202C12.122 13.0802 12.2433 12.9729 12.402 12.8982C12.5513 12.8142 12.7287 12.7722 12.934 12.7722C13.0367 12.7722 13.144 12.7909 13.256 12.8282C13.368 12.8562 13.4847 12.8982 13.606 12.9542C13.4753 12.7489 13.41 12.5015 13.41 12.2122C13.41 11.6055 13.6527 11.1062 14.138 10.7142C14.6233 10.3129 15.3 10.0562 16.168 9.9442V8.4882H14.726V8.2082H19.71V8.4882H18.268V9.9302C18.856 9.99553 19.3647 10.1309 19.794 10.3362C20.2233 10.5415 20.55 10.8029 20.774 11.1202C20.998 11.4375 21.11 11.8015 21.11 12.2122C21.11 12.6975 20.956 13.1175 20.648 13.4722C20.34 13.8175 19.892 14.0882 19.304 14.2842C18.7253 14.4709 18.044 14.5642 17.26 14.5642C16.6907 14.5642 16.2007 14.5175 15.79 14.4242C15.3793 14.3215 15.048 14.2002 14.796 14.0602C14.5533 13.9202 14.292 13.7475 14.012 13.5422C13.7787 13.3742 13.5873 13.2529 13.438 13.1782C13.2887 13.0942 13.1207 13.0522 12.934 13.0522C12.71 13.0522 12.5327 13.1129 12.402 13.2342C12.2713 13.3462 12.206 13.4909 12.206 13.6682C12.206 14.0882 12.3973 14.4149 12.78 14.6482C13.172 14.8815 13.6433 15.0495 14.194 15.1522C14.754 15.2455 15.524 15.3389 16.504 15.4322C16.7933 15.4602 17.0827 15.4929 17.372 15.5302C17.6707 15.5582 17.96 15.5909 18.24 15.6282C19.332 15.7962 20.1393 16.0482 20.662 16.3842C21.194 16.7202 21.46 17.1775 21.46 17.7562C21.46 18.2135 21.292 18.6055 20.956 18.9322C20.62 19.2589 20.1347 19.5062 19.5 19.6742C18.8747 19.8515 18.1187 19.9402 17.232 19.9402ZM17.232 19.7582C17.6147 19.7582 17.9367 19.6789 18.198 19.5202C18.4687 19.3709 18.6693 19.1469 18.8 18.8482C18.94 18.5495 19.01 18.1855 19.01 17.7562C19.01 17.3269 18.94 16.9629 18.8 16.6642C18.6693 16.3655 18.4687 16.1369 18.198 15.9782C17.9367 15.8195 17.6147 15.7402 17.232 15.7402C16.8587 15.7402 16.5367 15.8195 16.266 15.9782C16.0047 16.1369 15.804 16.3655 15.664 16.6642C15.524 16.9629 15.454 17.3269 15.454 17.7562C15.454 18.1855 15.524 18.5495 15.664 18.8482C15.804 19.1469 16.0047 19.3709 16.266 19.5202C16.5367 19.6789 16.8587 19.7582 17.232 19.7582ZM17.26 14.3682C17.792 14.3682 18.2073 14.1769 18.506 13.7942C18.814 13.4115 18.968 12.8749 18.968 12.1842C18.968 11.4935 18.814 10.9569 18.506 10.5742C18.2073 10.1915 17.792 10.0002 17.26 10.0002C16.7187 10.0002 16.294 10.1915 15.986 10.5742C15.6873 10.9569 15.538 11.4935 15.538 12.1842C15.538 12.8749 15.6873 13.4115 15.986 13.7942C16.294 14.1769 16.7187 14.3682 17.26 14.3682Z" fill="white"/>
</svg>
