<svg width="24" height="24" viewBox="0 0 24 24" fill="none" xmlns="http://www.w3.org/2000/svg">
<path d="M11.3148 11.3799L12.6168 15.7479L11.9028 16.2239C11.6415 16.1772 11.3615 16.0746 11.0628 15.9159C10.7642 15.7572 10.4935 15.5566 10.2508 15.3139L10.0408 13.2559L6.82082 13.2419L5.98082 15.9999H5.15482C4.95882 15.8132 4.78149 15.5939 4.62282 15.3419C4.46415 15.0806 4.33815 14.7819 4.24482 14.4459L5.91082 11.2819L7.19882 7.69787L5.72882 7.79587C5.59815 7.57187 5.52349 7.31054 5.50482 7.01187C5.49549 6.7132 5.52349 6.4472 5.58882 6.21387H8.45882C8.63615 6.3072 8.83215 6.44254 9.04682 6.61987C9.27082 6.78787 9.48549 6.9792 9.69082 7.19387C9.90549 7.3992 10.0875 7.61387 10.2368 7.83787L11.3148 11.3799ZM7.28282 11.7719L9.87282 11.7439L9.85882 11.5899L8.64082 7.78187L7.28282 11.7719ZM19.6334 10.3019C19.4748 10.9832 19.2414 11.6272 18.9334 12.2339L19.2554 16.8399C19.1621 17.0452 19.0221 17.2832 18.8354 17.5539C18.6581 17.8246 18.4574 18.0859 18.2334 18.3379C18.0188 18.5899 17.8041 18.7906 17.5894 18.9399C17.1881 19.0519 16.7494 19.1266 16.2734 19.1639C15.7974 19.2106 15.3214 19.2199 14.8454 19.1919C14.3694 19.1639 13.9308 19.1126 13.5294 19.0379C13.5201 18.8886 13.5248 18.7019 13.5434 18.4779C13.5621 18.2632 13.5901 18.0486 13.6274 17.8339C13.6741 17.6192 13.7301 17.4466 13.7954 17.3159C14.0941 17.4279 14.4348 17.5119 14.8174 17.5679C15.2094 17.6332 15.6108 17.6659 16.0214 17.6659C16.4321 17.6659 16.8101 17.6426 17.1554 17.5959C17.3701 17.1012 17.5101 16.5832 17.5754 16.0419C17.6408 15.5099 17.6781 14.8659 17.6874 14.1099C17.1741 14.7259 16.6468 15.2252 16.1054 15.6079C15.5641 15.9812 15.0974 16.1866 14.7054 16.2239C14.5654 16.1492 14.3928 16.0186 14.1874 15.8319C13.9914 15.6359 13.8048 15.4212 13.6274 15.1879C13.4594 14.9452 13.3474 14.7166 13.2914 14.5019L13.5854 10.6379C13.7254 10.3392 13.9261 10.0406 14.1874 9.74187C14.4488 9.43387 14.7101 9.18654 14.9714 8.99987C15.6434 8.87854 16.2968 8.80854 16.9314 8.78987C17.5661 8.76187 18.2661 8.8692 19.0314 9.11187C19.1341 9.22387 19.2274 9.3592 19.3114 9.51787C19.3954 9.67654 19.4654 9.83054 19.5214 9.97987C19.5868 10.1199 19.6241 10.2272 19.6334 10.3019ZM15.2234 14.5159C15.5781 14.3852 15.9701 14.1006 16.3994 13.6619C16.8288 13.2232 17.2161 12.7052 17.5614 12.1079L17.5474 10.1899C17.1648 10.1806 16.7914 10.1992 16.4274 10.2459C16.0634 10.2926 15.7181 10.3626 15.3914 10.4559C15.2234 10.9226 15.1021 11.3986 15.0274 11.8839C14.9621 12.3599 14.9294 12.8032 14.9294 13.2139C14.9388 13.6152 14.9714 13.9372 15.0274 14.1799C15.0834 14.4226 15.1488 14.5346 15.2234 14.5159Z" fill="white"/>
</svg>
