<svg width="24" height="24" viewBox="0 0 24 24" fill="none" xmlns="http://www.w3.org/2000/svg">
<path d="M10.8527 16.9999L9.64866 13.9059H5.68666L4.49666 16.9999H3.22266L7.12866 6.96191H8.26266L12.1547 16.9999H10.8527ZM8.15066 9.76191C8.12266 9.68724 8.07599 9.55191 8.01066 9.35591C7.94532 9.15991 7.87999 8.95924 7.81466 8.75391C7.75866 8.53924 7.71199 8.37591 7.67466 8.26391C7.62799 8.45058 7.57666 8.64191 7.52066 8.83791C7.47399 9.02458 7.42266 9.19724 7.36666 9.35591C7.31999 9.51458 7.27799 9.64991 7.24066 9.76191L6.10666 12.7859H9.27066L8.15066 9.76191ZM16.0141 9.35591C16.5087 9.35591 16.9521 9.44924 17.3441 9.63591C17.7454 9.82258 18.0861 10.1072 18.3661 10.4899H18.4361L18.6041 9.49591H19.5841V17.1259C19.5841 17.8352 19.4627 18.4279 19.2201 18.9039C18.9774 19.3892 18.6087 19.7532 18.1141 19.9959C17.6194 20.2386 16.9894 20.3599 16.2241 20.3599C15.6827 20.3599 15.1834 20.3179 14.7261 20.2339C14.2781 20.1592 13.8767 20.0426 13.5221 19.8839V18.7499C13.7647 18.8712 14.0307 18.9739 14.3201 19.0579C14.6094 19.1512 14.9221 19.2212 15.2581 19.2679C15.5941 19.3146 15.9394 19.3379 16.2941 19.3379C16.9381 19.3379 17.4421 19.1466 17.8061 18.7639C18.1794 18.3906 18.3661 17.8772 18.3661 17.2239V16.9299C18.3661 16.8179 18.3707 16.6592 18.3801 16.4539C18.3894 16.2392 18.3987 16.0899 18.4081 16.0059H18.3521C18.0907 16.3886 17.7641 16.6732 17.3721 16.8599C16.9894 17.0466 16.5414 17.1399 16.0281 17.1399C15.0574 17.1399 14.2967 16.7992 13.7461 16.1179C13.2047 15.4366 12.9341 14.4846 12.9341 13.2619C12.9341 12.4592 13.0554 11.7686 13.2981 11.1899C13.5501 10.6019 13.9047 10.1492 14.3621 9.83191C14.8194 9.51458 15.3701 9.35591 16.0141 9.35591ZM16.1821 10.3919C15.7621 10.3919 15.4027 10.5039 15.1041 10.7279C14.8147 10.9519 14.5907 11.2786 14.4321 11.7079C14.2827 12.1372 14.2081 12.6599 14.2081 13.2759C14.2081 14.1999 14.3761 14.9092 14.7121 15.4039C15.0574 15.8892 15.5567 16.1319 16.2101 16.1319C16.5927 16.1319 16.9194 16.0852 17.1901 15.9919C17.4607 15.8892 17.6847 15.7352 17.8621 15.5299C18.0394 15.3152 18.1701 15.0446 18.2541 14.7179C18.3381 14.3912 18.3801 14.0039 18.3801 13.5559V13.2619C18.3801 12.5806 18.3007 12.0299 18.1421 11.6099C17.9927 11.1899 17.7547 10.8819 17.4281 10.6859C17.1014 10.4899 16.6861 10.3919 16.1821 10.3919Z" fill="white"/>
</svg>
