<svg width="24" height="24" viewBox="0 0 24 24" fill="none" xmlns="http://www.w3.org/2000/svg">
<path d="M10.3563 13.4722L8.10227 7.9912C8.05093 7.8652 8.00193 7.7252 7.95527 7.5712C7.91327 7.7252 7.86427 7.8652 7.80827 7.9912L5.55427 13.4722H10.3563ZM12.2183 17.0002H11.9173C11.8473 17.0002 11.7959 16.9605 11.7633 16.8812L10.4823 13.7662H5.42827L4.14727 16.8812C4.12393 16.9605 4.07027 17.0002 3.98627 17.0002H3.69927L7.77327 7.1582H8.14427L12.2183 17.0002ZM15.8797 14.1232C16.2017 14.1232 16.4887 14.0765 16.7407 13.9832C16.9974 13.8899 17.212 13.7592 17.3847 13.5912C17.562 13.4185 17.695 13.2155 17.7837 12.9822C17.877 12.7442 17.9237 12.4805 17.9237 12.1912C17.9237 11.9065 17.877 11.6452 17.7837 11.4072C17.6904 11.1692 17.555 10.9662 17.3777 10.7982C17.205 10.6302 16.9904 10.4995 16.7337 10.4062C16.4817 10.3129 16.197 10.2662 15.8797 10.2662C15.5624 10.2662 15.2777 10.3129 15.0257 10.4062C14.7737 10.4995 14.559 10.6302 14.3817 10.7982C14.209 10.9662 14.076 11.1692 13.9827 11.4072C13.8894 11.6452 13.8427 11.9065 13.8427 12.1912C13.8427 12.4805 13.8894 12.7442 13.9827 12.9822C14.076 13.2155 14.209 13.4185 14.3817 13.5912C14.559 13.7592 14.7737 13.8899 15.0257 13.9832C15.2777 14.0765 15.5624 14.1232 15.8797 14.1232ZM18.6727 17.5182C18.6727 17.2755 18.6097 17.0795 18.4837 16.9302C18.3624 16.7809 18.199 16.6665 17.9937 16.5872C17.793 16.5032 17.5597 16.4449 17.2937 16.4122C17.0277 16.3795 16.75 16.3562 16.4607 16.3422C16.176 16.3282 15.889 16.3142 15.5997 16.3002C15.315 16.2862 15.049 16.2559 14.8017 16.2092C14.5964 16.2839 14.4074 16.3725 14.2347 16.4752C14.0667 16.5732 13.9197 16.6852 13.7937 16.8112C13.6724 16.9372 13.5767 17.0772 13.5067 17.2312C13.4367 17.3852 13.4017 17.5532 13.4017 17.7352C13.4017 17.9592 13.46 18.1692 13.5767 18.3652C13.6934 18.5612 13.8614 18.7292 14.0807 18.8692C14.3047 19.0139 14.5754 19.1282 14.8927 19.2122C15.21 19.2962 15.5694 19.3382 15.9707 19.3382C16.3347 19.3382 16.68 19.2939 17.0067 19.2052C17.3334 19.1165 17.6204 18.9905 17.8677 18.8272C18.115 18.6685 18.311 18.4772 18.4557 18.2532C18.6004 18.0292 18.6727 17.7842 18.6727 17.5182ZM19.1137 10.4202V10.5322C19.1137 10.5695 19.0997 10.5999 19.0717 10.6232C19.0437 10.6465 19.0087 10.6605 18.9667 10.6652L17.7277 10.7142C17.9004 10.9055 18.0334 11.1249 18.1267 11.3722C18.22 11.6195 18.2667 11.8902 18.2667 12.1842C18.2667 12.5155 18.2084 12.8165 18.0917 13.0872C17.9797 13.3579 17.8187 13.5912 17.6087 13.7872C17.4034 13.9785 17.1537 14.1279 16.8597 14.2352C16.5657 14.3379 16.239 14.3892 15.8797 14.3892C15.441 14.3892 15.0537 14.3122 14.7177 14.1582C14.4984 14.2842 14.321 14.4382 14.1857 14.6202C14.055 14.7975 13.9897 14.9679 13.9897 15.1312C13.9897 15.3505 14.062 15.5185 14.2067 15.6352C14.3514 15.7519 14.5404 15.8382 14.7737 15.8942C15.007 15.9502 15.273 15.9875 15.5717 16.0062C15.875 16.0202 16.183 16.0342 16.4957 16.0482C16.813 16.0622 17.121 16.0879 17.4197 16.1252C17.723 16.1625 17.9914 16.2302 18.2247 16.3282C18.458 16.4262 18.647 16.5662 18.7917 16.7482C18.9364 16.9302 19.0087 17.1729 19.0087 17.4762C19.0087 17.7562 18.9364 18.0245 18.7917 18.2812C18.6517 18.5425 18.4487 18.7712 18.1827 18.9672C17.9167 19.1632 17.5947 19.3195 17.2167 19.4362C16.8434 19.5575 16.4257 19.6182 15.9637 19.6182C15.4924 19.6182 15.0747 19.5692 14.7107 19.4712C14.3514 19.3732 14.048 19.2379 13.8007 19.0652C13.558 18.8972 13.3737 18.7012 13.2477 18.4772C13.1264 18.2532 13.0657 18.0152 13.0657 17.7632C13.0657 17.3852 13.194 17.0585 13.4507 16.7832C13.7074 16.5032 14.0574 16.2885 14.5007 16.1392C14.2487 16.0645 14.0457 15.9549 13.8917 15.8102C13.7424 15.6655 13.6677 15.4602 13.6677 15.1942C13.6677 15.1009 13.6864 15.0029 13.7237 14.9002C13.7657 14.7929 13.8217 14.6902 13.8917 14.5922C13.9664 14.4895 14.055 14.3915 14.1577 14.2982C14.2604 14.2049 14.377 14.1232 14.5077 14.0532C14.1857 13.8665 13.936 13.6145 13.7587 13.2972C13.5814 12.9752 13.4927 12.6042 13.4927 12.1842C13.4927 11.8575 13.5487 11.5612 13.6607 11.2952C13.7727 11.0245 13.9314 10.7935 14.1367 10.6022C14.3467 10.4062 14.5987 10.2545 14.8927 10.1472C15.1867 10.0399 15.5157 9.9862 15.8797 9.9862C16.183 9.9862 16.4607 10.0235 16.7127 10.0982C16.9694 10.1729 17.1957 10.2802 17.3917 10.4202H19.1137Z" fill="white"/>
</svg>
