<svg width="24" height="24" viewBox="0 0 24 24" fill="none" xmlns="http://www.w3.org/2000/svg">
<path d="M10.2624 13.2832L9.34536 9.13224C9.32203 9.00624 9.29403 8.86157 9.26136 8.69824C9.22869 8.53024 9.20069 8.35057 9.17736 8.15924C9.10736 8.35524 9.03736 8.53491 8.96736 8.69824C8.89736 8.86157 8.83436 9.00857 8.77836 9.13924L6.83936 13.2832H10.2624ZM12.4394 17.0002H11.4314C11.3147 17.0002 11.2237 16.9722 11.1584 16.9162C11.093 16.8555 11.0464 16.7785 11.0184 16.6852L10.4724 14.2352H6.39136L5.24336 16.6852C5.20136 16.7692 5.13603 16.8439 5.04736 16.9092C4.96336 16.9699 4.86769 17.0002 4.76036 17.0002H3.73836L8.65236 6.96924H9.98236L12.4394 17.0002ZM16.0984 13.8012C16.3504 13.8012 16.5721 13.7475 16.7634 13.6402C16.9594 13.5282 17.1227 13.3835 17.2534 13.2062C17.3887 13.0242 17.4914 12.8212 17.5614 12.5972C17.6314 12.3732 17.6664 12.1469 17.6664 11.9182C17.6664 11.5075 17.5614 11.1972 17.3514 10.9872C17.1461 10.7772 16.8614 10.6722 16.4974 10.6722C16.2454 10.6722 16.0237 10.7235 15.8324 10.8262C15.6411 10.9289 15.4777 11.0665 15.3424 11.2392C15.2117 11.4119 15.1114 11.6079 15.0414 11.8272C14.9761 12.0465 14.9434 12.2752 14.9434 12.5132C14.9434 12.9332 15.0437 13.2529 15.2444 13.4722C15.4497 13.6915 15.7344 13.8012 16.0984 13.8012ZM17.5054 17.1752C17.5054 17.0492 17.4937 16.9349 17.4704 16.8322C17.4471 16.7249 17.4167 16.6245 17.3794 16.5312C16.7634 16.4332 16.2314 16.3982 15.7834 16.4262C15.3354 16.4495 14.9644 16.5172 14.6704 16.6292C14.3811 16.7412 14.1664 16.8859 14.0264 17.0632C13.8864 17.2405 13.8164 17.4319 13.8164 17.6372C13.8164 17.9732 13.9564 18.2299 14.2364 18.4072C14.5211 18.5845 14.9224 18.6732 15.4404 18.6732C15.7484 18.6732 16.0284 18.6312 16.2804 18.5472C16.5371 18.4679 16.7541 18.3605 16.9314 18.2252C17.1134 18.0899 17.2534 17.9312 17.3514 17.7492C17.4541 17.5672 17.5054 17.3759 17.5054 17.1752ZM19.8854 10.1682L19.8364 10.5812C19.8131 10.7492 19.7197 10.8612 19.5564 10.9172L18.6674 11.0712C18.7561 11.3139 18.8004 11.5822 18.8004 11.8762C18.8004 12.1095 18.7724 12.3195 18.7164 12.5062C18.6651 12.6929 18.5997 12.8655 18.5204 13.0242C18.4411 13.1829 18.3547 13.3322 18.2614 13.4722C18.1681 13.6122 18.0817 13.7522 18.0024 13.8922C17.9231 14.0275 17.8554 14.1699 17.7994 14.3192C17.7481 14.4639 17.7224 14.6225 17.7224 14.7952C17.7224 14.9212 17.7434 15.0425 17.7854 15.1592C17.8321 15.2712 17.8881 15.3832 17.9534 15.4952C18.0234 15.6025 18.0981 15.7122 18.1774 15.8242C18.2614 15.9362 18.3361 16.0552 18.4014 16.1812C18.4714 16.3072 18.5274 16.4449 18.5694 16.5942C18.6161 16.7389 18.6394 16.8999 18.6394 17.0772C18.6347 17.4085 18.5554 17.7212 18.4014 18.0152C18.2474 18.3139 18.0281 18.5775 17.7434 18.8062C17.4587 19.0349 17.1134 19.2145 16.7074 19.3452C16.3014 19.4805 15.8441 19.5482 15.3354 19.5482C14.9294 19.5482 14.5584 19.5062 14.2224 19.4222C13.8911 19.3382 13.6064 19.2192 13.3684 19.0652C13.1351 18.9112 12.9554 18.7245 12.8294 18.5052C12.6987 18.2905 12.6334 18.0525 12.6334 17.7912C12.6334 17.4925 12.6964 17.2289 12.8224 17.0002C12.9484 16.7715 13.1187 16.5755 13.3334 16.4122C13.5481 16.2442 13.7977 16.1065 14.0824 15.9992C14.3671 15.8919 14.6681 15.8125 14.9854 15.7612C15.3074 15.7099 15.6364 15.6865 15.9724 15.6912C16.3084 15.6912 16.6374 15.7145 16.9594 15.7612C16.9174 15.6725 16.8824 15.5815 16.8544 15.4882C16.8311 15.3902 16.8194 15.2852 16.8194 15.1732C16.8194 15.0285 16.8404 14.8792 16.8824 14.7252C16.9291 14.5712 17.0037 14.3962 17.1064 14.2002C16.9291 14.3215 16.7307 14.4172 16.5114 14.4872C16.2921 14.5525 16.0424 14.5852 15.7624 14.5852C15.4917 14.5852 15.2374 14.5409 14.9994 14.4522C14.7661 14.3635 14.5607 14.2329 14.3834 14.0602C14.2061 13.8875 14.0661 13.6729 13.9634 13.4162C13.8607 13.1549 13.8094 12.8515 13.8094 12.5062C13.8094 12.1702 13.8701 11.8412 13.9914 11.5192C14.1174 11.1925 14.2994 10.9032 14.5374 10.6512C14.7754 10.3945 15.0694 10.1892 15.4194 10.0352C15.7694 9.88124 16.1731 9.80424 16.6304 9.80424C16.8824 9.80424 17.1227 9.83457 17.3514 9.89524C17.5801 9.95591 17.7854 10.0469 17.9674 10.1682H19.8854Z" fill="white"/>
</svg>
