<svg width="24" height="24" viewBox="0 0 24 24" fill="none" xmlns="http://www.w3.org/2000/svg">
<path d="M10.2238 13.4092L8.99881 8.36922C8.98015 8.28522 8.96148 8.19421 8.94281 8.09621C8.92415 7.99354 8.90548 7.88389 8.88681 7.76722C8.84015 7.88389 8.79348 7.99354 8.74681 8.09621C8.70481 8.19421 8.66515 8.28755 8.62781 8.37622L6.16381 13.4092H10.2238ZM11.8268 17.0002H11.2878C11.2225 17.0002 11.1711 16.9839 11.1338 16.9512C11.0965 16.9139 11.0708 16.8695 11.0568 16.8182L10.3498 13.9202H5.91181L4.49081 16.8182C4.46748 16.8695 4.43015 16.9139 4.37881 16.9512C4.32748 16.9839 4.27148 17.0002 4.21081 17.0002H3.67881L8.62081 7.09521H9.31381L11.8268 17.0002ZM15.4514 14.0252C15.7501 14.0252 16.0161 13.9622 16.2494 13.8362C16.4874 13.7102 16.6857 13.5469 16.8444 13.3462C17.0077 13.1409 17.1314 12.9099 17.2154 12.6532C17.3041 12.3919 17.3484 12.1305 17.3484 11.8692C17.3484 11.3839 17.2177 11.0199 16.9564 10.7772C16.6997 10.5299 16.3567 10.4062 15.9274 10.4062C15.6241 10.4062 15.3557 10.4669 15.1224 10.5882C14.8891 10.7049 14.6931 10.8612 14.5344 11.0572C14.3757 11.2532 14.2544 11.4795 14.1704 11.7362C14.0864 11.9882 14.0444 12.2472 14.0444 12.5132C14.0444 13.0079 14.1704 13.3835 14.4224 13.6402C14.6744 13.8969 15.0174 14.0252 15.4514 14.0252ZM16.8164 16.3492C16.1444 16.2512 15.5587 16.2255 15.0594 16.2722C14.5601 16.3189 14.1447 16.4169 13.8134 16.5662C13.4867 16.7155 13.2417 16.9045 13.0784 17.1332C12.9151 17.3619 12.8311 17.6045 12.8264 17.8612C12.8264 18.0619 12.8707 18.2392 12.9594 18.3932C13.0527 18.5519 13.1834 18.6825 13.3514 18.7852C13.5194 18.8925 13.7224 18.9742 13.9604 19.0302C14.1984 19.0862 14.4621 19.1142 14.7514 19.1142C15.1201 19.1142 15.4537 19.0652 15.7524 18.9672C16.0511 18.8692 16.3054 18.7385 16.5154 18.5752C16.7301 18.4119 16.8957 18.2252 17.0124 18.0152C17.1291 17.8052 17.1874 17.5882 17.1874 17.3642C17.1921 17.1355 17.1571 16.9395 17.0824 16.7762C17.0077 16.6129 16.9167 16.4635 16.8094 16.3282L16.8164 16.3492ZM19.0354 10.2802L19.0144 10.5042C19.0051 10.5509 18.9864 10.5929 18.9584 10.6302C18.9304 10.6629 18.8837 10.6839 18.8184 10.6932L17.6844 10.7842C17.7684 10.9289 17.8337 11.0899 17.8804 11.2672C17.9271 11.4399 17.9504 11.6335 17.9504 11.8482C17.9457 12.1049 17.9107 12.3382 17.8454 12.5482C17.7847 12.7582 17.7077 12.9519 17.6144 13.1292C17.5211 13.3019 17.4184 13.4652 17.3064 13.6192C17.1991 13.7685 17.0987 13.9155 17.0054 14.0602C16.9121 14.2049 16.8351 14.3519 16.7744 14.5012C16.7137 14.6505 16.6834 14.8092 16.6834 14.9772C16.6787 15.1079 16.7044 15.2292 16.7604 15.3412C16.8164 15.4532 16.8864 15.5652 16.9704 15.6772C17.0544 15.7892 17.1431 15.9012 17.2364 16.0132C17.3344 16.1252 17.4254 16.2465 17.5094 16.3772C17.5934 16.5079 17.6611 16.6502 17.7124 16.8042C17.7684 16.9582 17.7964 17.1309 17.7964 17.3222C17.7917 17.6162 17.7147 17.8985 17.5654 18.1692C17.4207 18.4445 17.2131 18.6872 16.9424 18.8972C16.6717 19.1072 16.3451 19.2752 15.9624 19.4012C15.5844 19.5272 15.1621 19.5902 14.6954 19.5902C14.3267 19.5902 13.9884 19.5529 13.6804 19.4782C13.3771 19.4035 13.1134 19.2939 12.8894 19.1492C12.6701 19.0092 12.4997 18.8365 12.3784 18.6312C12.2571 18.4259 12.1964 18.1925 12.1964 17.9312C12.2011 17.5392 12.3201 17.1985 12.5534 16.9092C12.7914 16.6199 13.1064 16.3889 13.4984 16.2162C13.8951 16.0389 14.3501 15.9245 14.8634 15.8732C15.3767 15.8219 15.9134 15.8335 16.4734 15.9082C16.3941 15.8009 16.3264 15.6865 16.2704 15.5652C16.2144 15.4439 16.1864 15.3085 16.1864 15.1592C16.1864 14.9959 16.2144 14.8302 16.2704 14.6622C16.3264 14.4942 16.4337 14.2912 16.5924 14.0532C16.4057 14.1839 16.2051 14.2842 15.9904 14.3542C15.7757 14.4242 15.5424 14.4592 15.2904 14.4592C15.0244 14.4592 14.7771 14.4172 14.5484 14.3332C14.3197 14.2492 14.1237 14.1255 13.9604 13.9622C13.7971 13.7942 13.6687 13.5912 13.5754 13.3532C13.4821 13.1105 13.4354 12.8305 13.4354 12.5132C13.4354 12.1912 13.4914 11.8762 13.6034 11.5682C13.7201 11.2555 13.8857 10.9779 14.1004 10.7352C14.3197 10.4925 14.5881 10.2989 14.9054 10.1542C15.2227 10.0049 15.5844 9.93022 15.9904 9.93022C16.4711 9.93022 16.8817 10.0469 17.2224 10.2802H19.0354Z" fill="white"/>
</svg>
