<svg width="24" height="24" viewBox="0 0 24 24" fill="none" xmlns="http://www.w3.org/2000/svg">
<path d="M6.8965 6.75977H9.5495L13.3575 15.9998H10.4665L9.8785 14.3968H6.5815L5.9865 15.9998H3.0885L6.8965 6.75977ZM7.4915 12.0448H8.9685L8.2405 10.0078H8.2195L7.4915 12.0448ZM17.1667 19.0798C16.798 19.0798 16.406 19.0518 15.9907 18.9958C15.5754 18.9398 15.174 18.8278 14.7867 18.6598C14.3994 18.4918 14.0657 18.2398 13.7857 17.9038L15.3397 16.2378C15.461 16.3685 15.601 16.4875 15.7597 16.5948C15.923 16.7068 16.1097 16.7955 16.3197 16.8608C16.5297 16.9308 16.7677 16.9658 17.0337 16.9658C17.2717 16.9658 17.4864 16.9355 17.6777 16.8748C17.869 16.8141 18.0207 16.7138 18.1327 16.5738C18.2447 16.4338 18.3007 16.2425 18.3007 15.9998V15.8878H21.0167V16.1538C21.0167 16.7978 20.8464 17.3368 20.5057 17.7708C20.165 18.2048 19.703 18.5315 19.1197 18.7508C18.541 18.9701 17.89 19.0798 17.1667 19.0798ZM18.3007 15.9998V15.1948C18.254 15.2788 18.149 15.4001 17.9857 15.5588C17.827 15.7128 17.617 15.8528 17.3557 15.9788C17.099 16.1048 16.798 16.1678 16.4527 16.1678C15.8787 16.1678 15.384 16.0255 14.9687 15.7408C14.558 15.4515 14.243 15.0758 14.0237 14.6138C13.8044 14.1518 13.6947 13.6571 13.6947 13.1298C13.6947 12.6025 13.8044 12.1078 14.0237 11.6458C14.243 11.1838 14.558 10.8081 14.9687 10.5188C15.384 10.2295 15.8787 10.0848 16.4527 10.0848C16.7794 10.0848 17.064 10.1315 17.3067 10.2248C17.5494 10.3135 17.75 10.4231 17.9087 10.5538C18.072 10.6798 18.1934 10.8035 18.2727 10.9248V10.2528H21.0167V15.9998H18.3007ZM16.3967 13.1298C16.3967 13.2885 16.4364 13.4378 16.5157 13.5778C16.595 13.7178 16.7047 13.8298 16.8447 13.9138C16.9847 13.9978 17.148 14.0398 17.3347 14.0398C17.5214 14.0398 17.6847 13.9978 17.8247 13.9138C17.9647 13.8298 18.0744 13.7178 18.1537 13.5778C18.233 13.4378 18.2727 13.2885 18.2727 13.1298C18.2727 12.9711 18.233 12.8218 18.1537 12.6818C18.0744 12.5418 17.9647 12.4298 17.8247 12.3458C17.6847 12.2571 17.5214 12.2128 17.3347 12.2128C17.148 12.2128 16.9847 12.2571 16.8447 12.3458C16.7047 12.4298 16.595 12.5418 16.5157 12.6818C16.4364 12.8218 16.3967 12.9711 16.3967 13.1298Z" fill="white"/>
</svg>
