<svg width="24" height="24" viewBox="0 0 24 24" fill="none" xmlns="http://www.w3.org/2000/svg">
<path d="M5.238 16.0001L7.87 6.83008H9.214L11.748 16.0001H10.922L10.348 13.8861H6.638L6.05 16.0001H5.238ZM10.166 13.1861L8.654 7.53008H8.416L6.834 13.1861H10.166ZM15.346 16.0001C14.506 16.0001 13.862 15.7108 13.414 15.1321C12.966 14.5534 12.742 13.7368 12.742 12.6821C12.742 11.6181 12.9893 10.7828 13.484 10.1761C13.988 9.56941 14.688 9.26608 15.584 9.26608C16.0787 9.26608 16.634 9.42941 17.25 9.75608L17.278 9.35008H17.992V14.3901C18.132 15.5008 18.202 16.1448 18.202 16.3221C18.202 17.1434 17.9267 17.7594 17.376 18.1701C16.8253 18.5901 16.1767 18.8001 15.43 18.8001C14.6927 18.8001 13.8527 18.6134 12.91 18.2401L13.162 17.5401C14.086 17.8948 14.8233 18.0721 15.374 18.0721C15.934 18.0721 16.4193 17.9274 16.83 17.6381C17.25 17.3488 17.46 16.9148 17.46 16.3361L17.334 15.2301C16.5967 15.7434 15.934 16.0001 15.346 16.0001ZM15.612 9.96608C14.9493 9.96608 14.4313 10.2134 14.058 10.7081C13.6847 11.1934 13.498 11.8468 13.498 12.6681C13.498 13.4801 13.6613 14.1241 13.988 14.6001C14.3147 15.0668 14.772 15.3001 15.36 15.3001C15.948 15.3001 16.578 15.0201 17.25 14.4601V10.5401C16.6433 10.1574 16.0973 9.96608 15.612 9.96608Z" fill="white"/>
</svg>
