<svg width="24" height="24" viewBox="0 0 24 24" fill="none" xmlns="http://www.w3.org/2000/svg">
<path d="M2.80075 17.4061C2.37142 17.4061 2.04475 17.2894 1.82075 17.0561C1.60608 16.8228 1.49875 16.4821 1.49875 16.0341C1.49875 15.4554 1.69942 14.6621 2.10075 13.6541C2.51142 12.6368 3.26275 11.0594 4.35475 8.9221L3.89275 7.7321C4.41542 7.41477 4.89142 7.19077 5.32075 7.0601C5.75008 6.9201 6.21675 6.8501 6.72075 6.8501C7.25275 6.8501 7.63542 6.96677 7.86875 7.2001C8.30742 6.96677 8.69942 6.8501 9.04475 6.8501C9.55808 6.8501 9.93142 7.01343 10.1648 7.3401C10.3981 7.66677 10.5148 8.18943 10.5148 8.9081C10.5148 9.5801 10.5101 10.0748 10.5008 10.3921C10.4914 11.5774 10.4961 12.5294 10.5148 13.2481C10.5428 13.9574 10.6221 14.6201 10.7528 15.2361C10.8834 15.8521 11.0981 16.3654 11.3968 16.7761C10.8554 17.1961 10.2721 17.4061 9.64675 17.4061C9.15208 17.4061 8.75075 17.2521 8.44275 16.9441C8.13475 16.6361 7.90608 16.1554 7.75675 15.5021C7.61675 14.8394 7.55142 13.9761 7.56075 12.9121C7.56075 12.1188 7.56542 11.3534 7.57475 10.6161C7.59342 9.86943 7.61675 9.2301 7.64475 8.6981H7.47675C6.55275 10.1821 5.82008 11.5308 5.27875 12.7441C4.73742 13.9481 4.46675 14.8534 4.46675 15.4601C4.46675 15.7308 4.49008 15.9688 4.53675 16.1741C4.58342 16.3794 4.65808 16.5801 4.76075 16.7761C4.49942 16.9628 4.19142 17.1121 3.83675 17.2241C3.48208 17.3454 3.13675 17.4061 2.80075 17.4061ZM4.01875 13.0801H8.86275L8.58275 14.7461H3.71075L4.01875 13.0801ZM14.3032 20.3321C13.4165 20.3321 12.7352 20.1921 12.2592 19.9121C11.7832 19.6414 11.5452 19.2494 11.5452 18.7361C11.5452 18.4281 11.6292 18.1294 11.7972 17.8401C11.9558 17.5601 12.1612 17.3501 12.4132 17.2101C12.6278 17.5554 12.9125 17.8121 13.2672 17.9801C13.6312 18.1574 14.0325 18.2461 14.4712 18.2461C15.2085 18.2461 15.8898 17.9941 16.5152 17.4901C17.1405 16.9954 17.6445 16.1274 18.0272 14.8861C18.4192 13.6448 18.5918 11.9741 18.5452 9.8741C18.8065 9.55677 19.0865 9.32343 19.3852 9.1741C19.6838 9.01543 20.0245 8.9361 20.4072 8.9361C20.7338 8.9361 20.9812 9.0201 21.1492 9.1881C21.3172 9.3561 21.4012 9.60343 21.4012 9.9301C21.4012 11.7034 21.1632 13.3788 20.6872 14.9561C20.2112 16.5241 19.4412 17.8121 18.3772 18.8201C17.3132 19.8281 15.9552 20.3321 14.3032 20.3321ZM14.7512 16.8601C14.2192 16.8601 13.7478 16.7294 13.3372 16.4681C12.9358 16.2068 12.6232 15.8381 12.3992 15.3621C12.1752 14.8861 12.0632 14.3354 12.0632 13.7101C12.0632 12.7114 12.3012 11.8248 12.7772 11.0501C13.2532 10.2754 13.9158 9.67343 14.7652 9.2441C15.6238 8.81477 16.6085 8.6001 17.7192 8.6001C18.1112 8.6001 18.4798 8.63743 18.8252 8.7121C18.9372 9.0201 18.9932 9.40743 18.9932 9.8741C18.2465 9.8741 17.5512 10.0374 16.9072 10.3641C16.2725 10.6814 15.7685 11.1154 15.3952 11.6661C15.0218 12.2074 14.8352 12.8001 14.8352 13.4441C14.8352 13.9388 14.9378 14.3261 15.1432 14.6061C15.3485 14.8768 15.6332 15.0121 15.9972 15.0121C16.3612 15.0121 16.7392 14.8581 17.1312 14.5501C17.5232 14.2328 17.8545 13.6914 18.1252 12.9261C18.4052 12.1514 18.5452 11.1341 18.5452 9.8741V14.8581H17.6772C17.3972 15.4834 16.9958 15.9734 16.4732 16.3281C15.9598 16.6828 15.3858 16.8601 14.7512 16.8601Z" fill="white"/>
</svg>
