<svg width="24" height="24" viewBox="0 0 24 24" fill="none" xmlns="http://www.w3.org/2000/svg">
<path d="M1.01815 17.0002L5.47015 7.2002H7.33215L11.7561 17.0002H9.82415L7.05215 10.8962C6.98682 10.7282 6.91215 10.5462 6.82815 10.3502C6.74415 10.1449 6.66015 9.93953 6.57615 9.7342C6.49215 9.52887 6.41282 9.32353 6.33815 9.1182C6.26348 8.90353 6.19815 8.7122 6.14215 8.5442L6.57615 8.5302C6.51082 8.7262 6.44082 8.93153 6.36615 9.1462C6.29148 9.35153 6.21215 9.55687 6.12815 9.7622C6.04415 9.96753 5.96015 10.1682 5.87615 10.3642C5.79215 10.5509 5.71282 10.7422 5.63815 10.9382L2.86615 17.0002H1.01815ZM3.00615 14.8442L3.66415 13.2622H8.99815L9.41815 14.8442H3.00615ZM17.5381 20.2202C16.7635 20.2202 16.0775 20.1315 15.4801 19.9542C14.8828 19.7769 14.4021 19.5622 14.0381 19.3102L14.6261 17.9802C14.8408 18.0922 15.0835 18.2042 15.3541 18.3162C15.6341 18.4375 15.9468 18.5355 16.2921 18.6102C16.6375 18.6849 17.0155 18.7222 17.4261 18.7222C17.9488 18.7222 18.3968 18.6289 18.7701 18.4422C19.1435 18.2555 19.4328 17.9755 19.6381 17.6022C19.8435 17.2382 19.9461 16.7902 19.9461 16.2582V15.2642L20.1981 15.3622C20.1515 15.6329 19.9601 15.9035 19.6241 16.1742C19.2975 16.4355 18.8821 16.6502 18.3781 16.8182C17.8835 16.9862 17.3608 17.0702 16.8101 17.0702C16.0261 17.0702 15.3308 16.9115 14.7241 16.5942C14.1268 16.2675 13.6601 15.8195 13.3241 15.2502C12.9881 14.6809 12.8201 14.0275 12.8201 13.2902C12.8201 12.5435 12.9928 11.8855 13.3381 11.3162C13.6928 10.7375 14.1781 10.2849 14.7941 9.9582C15.4195 9.63153 16.1335 9.4682 16.9361 9.4682C17.1695 9.4682 17.4355 9.4962 17.7341 9.5522C18.0328 9.6082 18.3315 9.6922 18.6301 9.8042C18.9288 9.9162 19.2041 10.0469 19.4561 10.1962C19.7081 10.3362 19.9135 10.4949 20.0721 10.6722C20.2308 10.8402 20.3148 11.0222 20.3241 11.2182L19.9601 11.3302L19.9881 9.6222H21.6821V16.1322C21.6821 16.8135 21.5701 17.4062 21.3461 17.9102C21.1315 18.4235 20.8328 18.8529 20.4501 19.1982C20.0768 19.5435 19.6381 19.8002 19.1341 19.9682C18.6301 20.1362 18.0981 20.2202 17.5381 20.2202ZM17.3421 15.6002C17.8741 15.6002 18.3408 15.5022 18.7421 15.3062C19.1435 15.1102 19.4515 14.8395 19.6661 14.4942C19.8901 14.1395 20.0021 13.7429 20.0021 13.3042C20.0021 12.8469 19.8901 12.4455 19.6661 12.1002C19.4515 11.7549 19.1435 11.4842 18.7421 11.2882C18.3408 11.0829 17.8741 10.9802 17.3421 10.9802C16.8008 10.9802 16.3201 11.0829 15.9001 11.2882C15.4801 11.4842 15.1488 11.7595 14.9061 12.1142C14.6728 12.4595 14.5561 12.8562 14.5561 13.3042C14.5561 13.7335 14.6728 14.1255 14.9061 14.4802C15.1488 14.8255 15.4801 15.1009 15.9001 15.3062C16.3201 15.5022 16.8008 15.6002 17.3421 15.6002Z" fill="white"/>
</svg>
