<svg width="24" height="24" viewBox="0 0 24 24" fill="none" xmlns="http://www.w3.org/2000/svg">
<path d="M2.32643 17.0002L6.63843 7.2002H7.95443L12.2524 17.0002H11.0484L8.05243 10.1682C7.94976 9.9442 7.85643 9.7342 7.77243 9.5382C7.69776 9.33287 7.6231 9.14153 7.54843 8.9642C7.47376 8.77753 7.3991 8.59087 7.32443 8.4042C7.2591 8.2082 7.1891 8.00287 7.11443 7.7882H7.42243C7.3291 8.0402 7.2451 8.2642 7.17043 8.4602C7.09576 8.6562 7.0211 8.84753 6.94643 9.0342C6.87176 9.21153 6.79243 9.3982 6.70843 9.5942C6.63376 9.78087 6.5451 9.99553 6.44243 10.2382L3.46043 17.0002H2.32643ZM4.13243 14.3822L4.55243 13.3182H9.95643L10.2644 14.3822H4.13243ZM17.6585 20.2202C16.9585 20.2202 16.3378 20.1269 15.7965 19.9402C15.2645 19.7629 14.8258 19.5622 14.4805 19.3382L14.8865 18.4282C15.0918 18.5495 15.3345 18.6709 15.6145 18.7922C15.8945 18.9229 16.2072 19.0302 16.5525 19.1142C16.8978 19.1982 17.2758 19.2402 17.6865 19.2402C18.2372 19.2402 18.7225 19.1329 19.1425 18.9182C19.5718 18.7035 19.9032 18.3815 20.1365 17.9522C20.3698 17.5229 20.4865 16.9862 20.4865 16.3422V15.1662L20.6685 15.1382C20.5565 15.5022 20.3278 15.8382 19.9825 16.1462C19.6372 16.4449 19.2218 16.6829 18.7365 16.8602C18.2512 17.0375 17.7192 17.1262 17.1405 17.1262C16.3845 17.1262 15.7125 16.9629 15.1245 16.6362C14.5365 16.3095 14.0745 15.8615 13.7385 15.2922C13.4025 14.7135 13.2345 14.0602 13.2345 13.3322C13.2345 12.5855 13.4072 11.9275 13.7525 11.3582C14.1072 10.7795 14.5832 10.3315 15.1805 10.0142C15.7872 9.68753 16.4732 9.5242 17.2385 9.5242C17.5185 9.5242 17.8125 9.55687 18.1205 9.6222C18.4285 9.6782 18.7225 9.76687 19.0025 9.8882C19.2918 10.0095 19.5578 10.1542 19.8005 10.3222C20.0432 10.4902 20.2485 10.6815 20.4165 10.8962C20.5845 11.1015 20.6965 11.3209 20.7525 11.5542L20.4445 11.5262L20.4865 9.6922H21.5365V16.2442C21.5365 16.9069 21.4338 17.4902 21.2285 17.9942C21.0325 18.4982 20.7572 18.9135 20.4025 19.2402C20.0478 19.5669 19.6325 19.8095 19.1565 19.9682C18.6805 20.1362 18.1812 20.2202 17.6585 20.2202ZM17.4345 16.1182C18.0412 16.1182 18.5732 16.0015 19.0305 15.7682C19.4972 15.5255 19.8612 15.1942 20.1225 14.7742C20.3838 14.3449 20.5145 13.8642 20.5145 13.3322C20.5145 12.7815 20.3838 12.2962 20.1225 11.8762C19.8705 11.4562 19.5065 11.1249 19.0305 10.8822C18.5638 10.6395 18.0318 10.5182 17.4345 10.5182C16.8372 10.5182 16.3052 10.6395 15.8385 10.8822C15.3718 11.1249 15.0032 11.4562 14.7325 11.8762C14.4618 12.2962 14.3265 12.7769 14.3265 13.3182C14.3265 13.8502 14.4572 14.3309 14.7185 14.7602C14.9892 15.1802 15.3578 15.5115 15.8245 15.7542C16.2912 15.9969 16.8278 16.1182 17.4345 16.1182Z" fill="white"/>
</svg>
