<svg width="24" height="24" viewBox="0 0 24 24" fill="none" xmlns="http://www.w3.org/2000/svg">
<path d="M1.48259 17.0002L6.01859 7.2002H8.41259L12.9206 17.0002H10.1206L7.76859 11.9182C7.67526 11.6849 7.58659 11.4702 7.50259 11.2742C7.41859 11.0689 7.33926 10.8775 7.26459 10.7002C7.19926 10.5135 7.13393 10.3269 7.06859 10.1402C7.01259 9.95353 6.96126 9.7622 6.91459 9.5662L7.44659 9.5522C7.39059 9.75753 7.32993 9.9582 7.26459 10.1542C7.20859 10.3409 7.14326 10.5275 7.06859 10.7142C6.99393 10.9009 6.91459 11.0922 6.83059 11.2882C6.74659 11.4749 6.65793 11.6849 6.56459 11.9182L4.21259 17.0002H1.48259ZM3.63859 15.4602L4.49259 13.5002H9.89659L10.4146 15.4602H3.63859ZM18.4666 20.2202C17.6079 20.2202 16.8332 20.1222 16.1426 19.9262C15.4612 19.7395 14.9059 19.5109 14.4766 19.2402L15.3306 17.4062C15.5546 17.5089 15.7972 17.6162 16.0586 17.7282C16.3199 17.8402 16.6139 17.9289 16.9406 17.9942C17.2672 18.0595 17.6359 18.0922 18.0466 18.0922C18.5132 18.0922 18.9099 18.0129 19.2366 17.8542C19.5726 17.6955 19.8246 17.4575 19.9926 17.1402C20.1699 16.8229 20.2586 16.4262 20.2586 15.9502V15.1382L20.8046 15.2082C20.7392 15.5069 20.5432 15.7822 20.2166 16.0342C19.8899 16.2862 19.4792 16.4869 18.9846 16.6362C18.4899 16.7762 17.9626 16.8462 17.4026 16.8462C16.6372 16.8462 15.9652 16.6969 15.3866 16.3982C14.8172 16.0995 14.3692 15.6795 14.0426 15.1382C13.7252 14.5875 13.5666 13.9482 13.5666 13.2202C13.5666 12.4549 13.7346 11.7875 14.0706 11.2182C14.4066 10.6395 14.8686 10.1915 15.4566 9.8742C16.0446 9.54753 16.7306 9.3842 17.5146 9.3842C17.7479 9.3842 18.0092 9.40753 18.2986 9.4542C18.5879 9.49153 18.8772 9.56153 19.1666 9.6642C19.4652 9.75752 19.7359 9.8742 19.9786 10.0142C20.2306 10.1449 20.4312 10.2989 20.5806 10.4762C20.7392 10.6535 20.8279 10.8542 20.8466 11.0782L20.3146 11.2042L20.4406 9.5382H22.8766V15.9502C22.8766 16.6689 22.7599 17.2895 22.5266 17.8122C22.3026 18.3442 21.9899 18.7875 21.5886 19.1422C21.1872 19.5062 20.7206 19.7769 20.1886 19.9542C19.6566 20.1315 19.0826 20.2202 18.4666 20.2202ZM18.2846 14.9422C18.7139 14.9422 19.0779 14.8722 19.3766 14.7322C19.6846 14.5922 19.9179 14.3962 20.0766 14.1442C20.2446 13.8829 20.3286 13.5795 20.3286 13.2342C20.3286 12.8795 20.2446 12.5762 20.0766 12.3242C19.9179 12.0722 19.6846 11.8762 19.3766 11.7362C19.0779 11.5962 18.7139 11.5262 18.2846 11.5262C17.8459 11.5262 17.4632 11.5962 17.1366 11.7362C16.8099 11.8762 16.5579 12.0722 16.3806 12.3242C16.2126 12.5762 16.1286 12.8795 16.1286 13.2342C16.1286 13.5795 16.2126 13.8829 16.3806 14.1442C16.5579 14.3962 16.8099 14.5922 17.1366 14.7322C17.4632 14.8722 17.8459 14.9422 18.2846 14.9422Z" fill="white"/>
</svg>
