<svg width="24" height="24" viewBox="0 0 24 24" fill="none" xmlns="http://www.w3.org/2000/svg">
<path d="M1.36234 17.0002L5.66034 7.2002H7.99834L12.2683 17.0002H9.48234L7.38234 12.1142C7.28901 11.8715 7.20034 11.6522 7.11634 11.4562C7.04168 11.2509 6.97168 11.0502 6.90634 10.8542C6.84101 10.6582 6.77568 10.4622 6.71034 10.2662C6.65434 10.0702 6.59834 9.86487 6.54234 9.6502L7.04634 9.6362C6.99034 9.86953 6.92968 10.0889 6.86434 10.2942C6.80834 10.4902 6.74301 10.6815 6.66834 10.8682C6.60301 11.0549 6.52834 11.2509 6.44434 11.4562C6.36034 11.6522 6.27168 11.8715 6.17834 12.1142L4.07834 17.0002H1.36234ZM3.42034 15.4322L4.27434 13.4722H9.34234L9.95834 15.4322H3.42034ZM17.8939 20.2202C17.1193 20.2202 16.3959 20.1269 15.7239 19.9402C15.0613 19.7535 14.5199 19.5202 14.0999 19.2402L14.9819 17.4342C15.1873 17.5462 15.4113 17.6535 15.6539 17.7562C15.9059 17.8589 16.1813 17.9382 16.4799 17.9942C16.7879 18.0595 17.1193 18.0922 17.4739 18.0922C17.9406 18.0922 18.3279 18.0175 18.6359 17.8682C18.9439 17.7282 19.1773 17.5089 19.3359 17.2102C19.5039 16.9115 19.5879 16.5382 19.5879 16.0902V15.1382L20.1479 15.2082C20.0639 15.5069 19.8726 15.7822 19.5739 16.0342C19.2753 16.2769 18.9019 16.4729 18.4539 16.6222C18.0153 16.7715 17.5393 16.8462 17.0259 16.8462C16.2979 16.8462 15.6586 16.6969 15.1079 16.3982C14.5573 16.0902 14.1233 15.6655 13.8059 15.1242C13.4886 14.5829 13.3299 13.9482 13.3299 13.2202C13.3299 12.4642 13.4886 11.8015 13.8059 11.2322C14.1326 10.6535 14.5759 10.2009 15.1359 9.8742C15.6959 9.54753 16.3399 9.3842 17.0679 9.3842C17.3199 9.3842 17.5859 9.4122 17.8659 9.4682C18.1459 9.51487 18.4166 9.58487 18.6779 9.6782C18.9393 9.77153 19.1773 9.89287 19.3919 10.0422C19.6066 10.1822 19.7839 10.3409 19.9239 10.5182C20.0639 10.6862 20.1479 10.8729 20.1759 11.0782L19.6439 11.2042L19.7839 9.5382H22.2059V16.0902C22.2059 16.7715 22.0986 17.3642 21.8839 17.8682C21.6693 18.3815 21.3659 18.8109 20.9739 19.1562C20.5913 19.5109 20.1339 19.7769 19.6019 19.9542C19.0793 20.1315 18.5099 20.2202 17.8939 20.2202ZM17.8099 14.9422C18.1926 14.9422 18.5239 14.8722 18.8039 14.7322C19.0839 14.5922 19.2939 14.3962 19.4339 14.1442C19.5833 13.8922 19.6579 13.5889 19.6579 13.2342C19.6579 12.8795 19.5833 12.5762 19.4339 12.3242C19.2939 12.0629 19.0839 11.8669 18.8039 11.7362C18.5239 11.5962 18.1926 11.5262 17.8099 11.5262C17.4086 11.5262 17.0679 11.5962 16.7879 11.7362C16.5079 11.8669 16.2886 12.0629 16.1299 12.3242C15.9713 12.5762 15.8919 12.8795 15.8919 13.2342C15.8919 13.5889 15.9713 13.8922 16.1299 14.1442C16.2886 14.3962 16.5079 14.5922 16.7879 14.7322C17.0679 14.8722 17.4086 14.9422 17.8099 14.9422Z" fill="white"/>
</svg>
