<svg width="24" height="24" viewBox="0 0 24 24" fill="none" xmlns="http://www.w3.org/2000/svg">
<path d="M1.61594 17.0002L6.43194 7.2002H6.86594L11.6959 17.0002H11.3319L7.46794 9.1042C7.40261 8.97353 7.33261 8.8382 7.25794 8.6982C7.19261 8.54887 7.12261 8.4042 7.04794 8.2642C6.97327 8.11487 6.89861 7.9702 6.82394 7.8302C6.75861 7.6902 6.68861 7.55487 6.61394 7.4242H6.65594C6.59061 7.5642 6.52061 7.7042 6.44594 7.8442C6.38061 7.9842 6.31061 8.12887 6.23594 8.2782C6.17061 8.4182 6.10061 8.5582 6.02594 8.6982C5.96061 8.8382 5.89061 8.9782 5.81594 9.1182L1.96594 17.0002H1.61594ZM3.33794 13.9062L3.49194 13.5982H9.86194L10.0019 13.9062H3.33794ZM18.0037 20.3602C17.3037 20.3602 16.669 20.2575 16.0997 20.0522C15.5397 19.8469 15.087 19.5995 14.7417 19.3102L14.8677 19.0022C15.1197 19.2075 15.3997 19.3895 15.7077 19.5482C16.0157 19.7069 16.3564 19.8282 16.7297 19.9122C17.1124 20.0055 17.5277 20.0522 17.9757 20.0522C18.5917 20.0522 19.1704 19.9215 19.7117 19.6602C20.2624 19.3989 20.7057 18.9882 21.0417 18.4282C21.387 17.8775 21.5597 17.1635 21.5597 16.2862V14.4382H21.7277C21.4477 15.0635 21.1024 15.5722 20.6917 15.9642C20.281 16.3469 19.8097 16.6269 19.2777 16.8042C18.7457 16.9815 18.1484 17.0702 17.4857 17.0702C16.6644 17.0702 15.9317 16.9115 15.2877 16.5942C14.653 16.2769 14.1537 15.8382 13.7897 15.2782C13.435 14.7089 13.2577 14.0602 13.2577 13.3322C13.2577 12.6042 13.4444 11.9509 13.8177 11.3722C14.191 10.7935 14.695 10.3409 15.3297 10.0142C15.9737 9.6782 16.6924 9.5102 17.4857 9.5102C17.8777 9.5102 18.251 9.54287 18.6057 9.6082C18.9697 9.67353 19.3057 9.7762 19.6137 9.9162C19.931 10.0562 20.2204 10.2335 20.4817 10.4482C20.743 10.6535 20.9764 10.9055 21.1817 11.2042C21.3964 11.5029 21.5784 11.8435 21.7277 12.2262L21.5597 12.2122L21.5877 9.6502H21.8677V16.1462C21.8677 16.9209 21.7557 17.5742 21.5317 18.1062C21.317 18.6475 21.023 19.0815 20.6497 19.4082C20.2857 19.7442 19.8704 19.9869 19.4037 20.1362C18.9464 20.2855 18.4797 20.3602 18.0037 20.3602ZM17.4857 16.7622C18.3164 16.7622 19.035 16.6129 19.6417 16.3142C20.2484 16.0155 20.7197 15.6095 21.0557 15.0962C21.3917 14.5829 21.5597 14.0042 21.5597 13.3602C21.5504 12.6509 21.373 12.0302 21.0277 11.4982C20.6824 10.9662 20.2064 10.5555 19.5997 10.2662C18.993 9.96753 18.2884 9.8182 17.4857 9.8182C16.7577 9.8182 16.095 9.96753 15.4977 10.2662C14.9097 10.5555 14.443 10.9662 14.0977 11.4982C13.7524 12.0209 13.575 12.6322 13.5657 13.3322C13.5657 14.0042 13.7337 14.6015 14.0697 15.1242C14.415 15.6375 14.8817 16.0389 15.4697 16.3282C16.067 16.6175 16.739 16.7622 17.4857 16.7622Z" fill="white"/>
</svg>
