<svg width="24" height="24" viewBox="0 0 24 24" fill="none" xmlns="http://www.w3.org/2000/svg">
<path d="M0.608311 17.0002L5.29831 7.2002H7.72031L12.3963 17.0002H9.59631L7.07631 11.7782C6.96431 11.5449 6.86631 11.3349 6.78231 11.1482C6.69831 10.9522 6.62365 10.7655 6.55831 10.5882C6.49298 10.4109 6.42765 10.2335 6.36231 10.0562C6.30631 9.87887 6.25498 9.69687 6.20831 9.5102L6.75431 9.4962C6.69831 9.70153 6.63765 9.89753 6.57231 10.0842C6.51631 10.2709 6.44631 10.4529 6.36231 10.6302C6.28765 10.8075 6.20831 10.9895 6.12431 11.1762C6.04031 11.3629 5.95165 11.5635 5.85831 11.7782L3.35231 17.0002H0.608311ZM2.83431 15.4882L3.68831 13.5282H9.31631L9.76431 15.4882H2.83431ZM18.1365 20.2202C17.2219 20.2202 16.4099 20.1222 15.7005 19.9262C15.0005 19.7395 14.4312 19.5109 13.9925 19.2402L14.8745 17.3922C15.0892 17.4855 15.3319 17.5882 15.6025 17.7002C15.8732 17.8122 16.1812 17.9055 16.5265 17.9802C16.8719 18.0549 17.2685 18.0922 17.7165 18.0922C18.1832 18.0922 18.5892 18.0082 18.9345 17.8402C19.2799 17.6722 19.5412 17.4249 19.7185 17.0982C19.9052 16.7715 19.9985 16.3609 19.9985 15.8662V15.1382L20.5445 15.2082C20.4605 15.5069 20.2459 15.7822 19.9005 16.0342C19.5552 16.2769 19.1259 16.4729 18.6125 16.6222C18.0992 16.7715 17.5345 16.8462 16.9185 16.8462C16.1439 16.8462 15.4579 16.6969 14.8605 16.3982C14.2632 16.0995 13.8012 15.6795 13.4745 15.1382C13.1479 14.5875 12.9845 13.9482 12.9845 13.2202C12.9845 12.4549 13.1572 11.7875 13.5025 11.2182C13.8479 10.6395 14.3285 10.1915 14.9445 9.8742C15.5605 9.54753 16.2745 9.3842 17.0865 9.3842C17.3199 9.3842 17.5812 9.40753 17.8705 9.4542C18.1692 9.49153 18.4725 9.55687 18.7805 9.6502C19.0885 9.7342 19.3779 9.8462 19.6485 9.9862C19.9192 10.1262 20.1385 10.2849 20.3065 10.4622C20.4839 10.6395 20.5772 10.8449 20.5865 11.0782L20.0545 11.2042L20.1805 9.5382H22.6165V15.8662C22.6165 16.6035 22.4952 17.2429 22.2525 17.7842C22.0099 18.3255 21.6785 18.7735 21.2585 19.1282C20.8479 19.4922 20.3719 19.7629 19.8305 19.9402C19.2985 20.1269 18.7339 20.2202 18.1365 20.2202ZM17.8705 14.9422C18.3279 14.9422 18.7152 14.8722 19.0325 14.7322C19.3592 14.5922 19.6112 14.3962 19.7885 14.1442C19.9659 13.8829 20.0545 13.5795 20.0545 13.2342C20.0545 12.8795 19.9659 12.5762 19.7885 12.3242C19.6205 12.0722 19.3732 11.8762 19.0465 11.7362C18.7199 11.5962 18.3279 11.5262 17.8705 11.5262C17.4039 11.5262 16.9932 11.5962 16.6385 11.7362C16.2932 11.8762 16.0272 12.0722 15.8405 12.3242C15.6539 12.5762 15.5605 12.8795 15.5605 13.2342C15.5605 13.5795 15.6539 13.8829 15.8405 14.1442C16.0272 14.3962 16.2932 14.5922 16.6385 14.7322C16.9932 14.8722 17.4039 14.9422 17.8705 14.9422Z" fill="white"/>
</svg>
