<svg width="24" height="24" viewBox="0 0 24 24" fill="none" xmlns="http://www.w3.org/2000/svg">
<path d="M1.21616 17.0002L5.54216 7.2002H8.02016L12.3182 17.0002H9.29416L7.30616 12.3802C7.2035 12.1189 7.11016 11.8902 7.02616 11.6942C6.9515 11.4889 6.8815 11.2975 6.81616 11.1202C6.76016 10.9335 6.70416 10.7469 6.64816 10.5602C6.59216 10.3642 6.53616 10.1495 6.48016 9.9162H7.01216C6.9655 10.1589 6.9095 10.3782 6.84416 10.5742C6.78816 10.7702 6.7275 10.9569 6.66216 11.1342C6.59683 11.3115 6.52216 11.4982 6.43816 11.6942C6.35416 11.8902 6.26083 12.1189 6.15816 12.3802L4.17016 17.0002H1.21616ZM3.33016 15.6002L4.24016 13.5422H9.32216L9.96616 15.6002H3.33016ZM17.8744 20.2202C17.0717 20.2202 16.3251 20.1222 15.6344 19.9262C14.9437 19.7395 14.3791 19.5015 13.9404 19.2122L14.8924 17.2802C15.1071 17.3922 15.3357 17.4949 15.5784 17.5882C15.8211 17.6909 16.0871 17.7702 16.3764 17.8262C16.6751 17.8915 17.0064 17.9242 17.3704 17.9242C17.8184 17.9242 18.1917 17.8542 18.4904 17.7142C18.7891 17.5835 19.0131 17.3735 19.1624 17.0842C19.3211 16.7949 19.4004 16.4355 19.4004 16.0062V15.1102L20.0304 15.1662C19.9464 15.4742 19.7551 15.7495 19.4564 15.9922C19.1577 16.2349 18.7844 16.4309 18.3364 16.5802C17.8977 16.7202 17.4217 16.7902 16.9084 16.7902C16.1897 16.7902 15.5551 16.6409 15.0044 16.3422C14.4631 16.0435 14.0337 15.6282 13.7164 15.0962C13.4084 14.5549 13.2544 13.9202 13.2544 13.1922C13.2544 12.4362 13.4131 11.7735 13.7304 11.2042C14.0477 10.6255 14.4817 10.1729 15.0324 9.8462C15.5831 9.51953 16.2224 9.3562 16.9504 9.3562C17.2024 9.3562 17.4637 9.3842 17.7344 9.4402C18.0144 9.48687 18.2851 9.55687 18.5464 9.6502C18.8077 9.7342 19.0457 9.8462 19.2604 9.9862C19.4751 10.1262 19.6524 10.2849 19.7924 10.4622C19.9324 10.6302 20.0164 10.8215 20.0444 11.0362L19.4704 11.1622L19.6244 9.5102H22.2564V16.0482C22.2564 16.7295 22.1444 17.3269 21.9204 17.8402C21.7057 18.3629 21.4024 18.8015 21.0104 19.1562C20.6184 19.5109 20.1517 19.7769 19.6104 19.9542C19.0784 20.1315 18.4997 20.2202 17.8744 20.2202ZM17.7904 14.7602C18.1451 14.7602 18.4484 14.6995 18.7004 14.5782C18.9524 14.4569 19.1437 14.2842 19.2744 14.0602C19.4051 13.8269 19.4704 13.5469 19.4704 13.2202C19.4704 12.8935 19.4051 12.6135 19.2744 12.3802C19.1437 12.1469 18.9524 11.9695 18.7004 11.8482C18.4484 11.7269 18.1451 11.6662 17.7904 11.6662C17.4171 11.6662 17.0997 11.7269 16.8384 11.8482C16.5864 11.9695 16.3904 12.1469 16.2504 12.3802C16.1104 12.6135 16.0404 12.8935 16.0404 13.2202C16.0404 13.5469 16.1104 13.8269 16.2504 14.0602C16.3904 14.2842 16.5864 14.4569 16.8384 14.5782C17.0997 14.6995 17.4171 14.7602 17.7904 14.7602Z" fill="white"/>
</svg>
