<svg width="24" height="24" viewBox="0 0 24 24" fill="none" xmlns="http://www.w3.org/2000/svg">
<path d="M9.9036 16.7902L7.3276 9.4402H7.2716L7.1876 8.9782L7.9996 6.3042H8.3916L12.0456 16.7902H9.9036ZM2.8896 17.0002V16.6082H6.2776V17.0002H2.8896ZM5.4936 13.9202V13.5422H10.1836V13.9202H5.4936ZM8.2936 17.0002V16.6082H13.1236V17.0002H8.2936ZM4.1076 16.7902L7.9996 6.3042H8.3916L7.5936 8.6142L4.5696 16.7902H4.1076ZM16.8405 21.5502C16.2805 21.5502 15.7765 21.4569 15.3285 21.2702C14.8805 21.0929 14.5258 20.8502 14.2645 20.5422C14.0125 20.2435 13.8865 19.9075 13.8865 19.5342C13.8865 19.1702 13.9985 18.8482 14.2225 18.5682C14.4558 18.2975 14.7498 18.0782 15.1045 17.9102V17.8542C14.7312 17.7049 14.4418 17.5089 14.2365 17.2662C14.0405 17.0235 13.9425 16.7062 13.9425 16.3142C13.9425 15.8662 14.0732 15.5069 14.3345 15.2362C14.5958 14.9562 14.9785 14.7789 15.4825 14.7042C15.1278 14.5082 14.8385 14.2469 14.6145 13.9202C14.3998 13.5842 14.2925 13.2109 14.2925 12.8002C14.2925 12.3615 14.4092 11.9742 14.6425 11.6382C14.8852 11.2929 15.2072 11.0222 15.6085 10.8262C16.0098 10.6302 16.4438 10.5322 16.9105 10.5322C17.3398 10.5322 17.7365 10.6115 18.1005 10.7702C18.4645 10.9195 18.7678 11.1342 19.0105 11.4142C19.1132 11.1529 19.2578 10.9382 19.4445 10.7702C19.6312 10.6022 19.8552 10.5182 20.1165 10.5182C20.3405 10.5182 20.5318 10.5882 20.6905 10.7282C20.8585 10.8589 20.9425 11.0362 20.9425 11.2602C20.9425 11.4375 20.8912 11.5822 20.7885 11.6942C20.6858 11.7969 20.5412 11.8482 20.3545 11.8482C20.1772 11.8482 20.0558 11.8109 19.9905 11.7362C19.9252 11.6522 19.8692 11.5729 19.8225 11.4982C19.7758 11.4142 19.6918 11.3722 19.5705 11.3722C19.4958 11.3722 19.4352 11.4049 19.3885 11.4702C19.3512 11.5355 19.3232 11.6522 19.3045 11.8202C19.3885 11.9695 19.4492 12.1282 19.4865 12.2962C19.5332 12.4549 19.5565 12.6229 19.5565 12.8002C19.5565 13.2295 19.4352 13.6169 19.1925 13.9622C18.9498 14.3075 18.6278 14.5782 18.2265 14.7742C17.8252 14.9609 17.3865 15.0542 16.9105 15.0542H16.0425C15.6225 15.0542 15.2818 15.1289 15.0205 15.2782C14.7685 15.4182 14.6425 15.6002 14.6425 15.8242C14.6425 15.9735 14.7078 16.1042 14.8385 16.2162C14.9692 16.3189 15.1558 16.3702 15.3985 16.3702H18.3385C18.7772 16.3702 19.1458 16.4309 19.4445 16.5522C19.7432 16.6642 19.9672 16.8602 20.1165 17.1402C20.2752 17.4202 20.3545 17.7982 20.3545 18.2742C20.3545 18.9742 20.1958 19.5669 19.8785 20.0522C19.5705 20.5469 19.1505 20.9202 18.6185 21.1722C18.0958 21.4242 17.5032 21.5502 16.8405 21.5502ZM17.0365 21.0882C17.4845 21.0882 17.9092 20.9902 18.3105 20.7942C18.7118 20.5982 19.0385 20.3275 19.2905 19.9822C19.5425 19.6369 19.6685 19.2402 19.6685 18.7922C19.6685 18.4935 19.5985 18.2695 19.4585 18.1202C19.3185 17.9709 19.0992 17.8962 18.8005 17.8962H15.6785C15.5292 18.0269 15.4032 18.2415 15.3005 18.5402C15.2072 18.8389 15.1605 19.1189 15.1605 19.3802C15.1605 19.8749 15.3285 20.2809 15.6645 20.5982C16.0098 20.9249 16.4672 21.0882 17.0365 21.0882ZM16.9105 14.6062C17.1625 14.6062 17.3538 14.5595 17.4845 14.4662C17.6245 14.3635 17.7225 14.1815 17.7785 13.9202C17.8345 13.6589 17.8625 13.2855 17.8625 12.8002C17.8625 12.3055 17.8298 11.9275 17.7645 11.6662C17.7085 11.4049 17.6105 11.2229 17.4705 11.1202C17.3398 11.0175 17.1532 10.9662 16.9105 10.9662C16.6772 10.9662 16.4905 11.0175 16.3505 11.1202C16.2198 11.2135 16.1265 11.3909 16.0705 11.6522C16.0238 11.9135 16.0005 12.2915 16.0005 12.7862C16.0005 13.2902 16.0238 13.6729 16.0705 13.9342C16.1265 14.1862 16.2198 14.3635 16.3505 14.4662C16.4905 14.5595 16.6772 14.6062 16.9105 14.6062Z" fill="white"/>
</svg>
