<svg width="24" height="24" viewBox="0 0 24 24" fill="none" xmlns="http://www.w3.org/2000/svg">
<path d="M3.16727 16.72L10.4753 6.24805L8.83727 9.28605L3.75527 16.72H3.16727ZM2.52327 17V16.58H5.18327V17H2.52327ZM6.94727 17V16.58H11.4133V17H6.94727ZM5.49127 14.032V13.57H9.25727V14.032H5.49127ZM8.16527 16.86L8.85127 9.34205H8.79527L10.3633 6.24805H11.0773L10.3073 16.86H8.16527ZM14.3546 21.466C13.4026 21.466 12.6606 21.284 12.1286 20.92C11.5872 20.556 11.3166 20.0707 11.3166 19.464C11.3166 19.044 11.4706 18.68 11.7786 18.372C12.0866 18.064 12.4832 17.8027 12.9686 17.588C13.4632 17.3827 13.9859 17.21 14.5366 17.07L14.9706 17.224C14.3359 17.42 13.8366 17.63 13.4726 17.854C13.1179 18.078 12.8706 18.316 12.7306 18.568C12.5906 18.8293 12.5206 19.1187 12.5206 19.436C12.5206 19.9493 12.6839 20.332 13.0106 20.584C13.3372 20.8453 13.8366 20.976 14.5086 20.976C15.0592 20.976 15.5399 20.9013 15.9506 20.752C16.3706 20.6027 16.7159 20.4113 16.9866 20.178C17.2666 19.954 17.4766 19.716 17.6166 19.464C17.7566 19.212 17.8266 18.9787 17.8266 18.764C17.8266 18.5213 17.7379 18.344 17.5606 18.232C17.3832 18.1293 17.1312 18.0687 16.8046 18.05L13.5846 17.84C13.4072 17.8307 13.2066 17.7653 12.9826 17.644C12.7586 17.532 12.5626 17.3593 12.3946 17.126C12.2359 16.902 12.1566 16.6127 12.1566 16.258C12.1566 15.9033 12.2359 15.6047 12.3946 15.362C12.5626 15.11 12.7586 14.9047 12.9826 14.746C13.2159 14.5873 13.4399 14.4707 13.6546 14.396C13.8692 14.312 14.0279 14.2607 14.1306 14.242L14.1026 14.676C13.4586 14.7973 13.1366 15.068 13.1366 15.488C13.1366 15.6747 13.2206 15.8193 13.3886 15.922C13.5659 16.0247 13.9392 16.0853 14.5086 16.104L17.0286 16.188C17.5232 16.1973 17.9012 16.3653 18.1626 16.692C18.4332 17.0093 18.5686 17.4387 18.5686 17.98C18.5686 18.3907 18.4846 18.8013 18.3166 19.212C18.1486 19.6227 17.8919 19.996 17.5466 20.332C17.2106 20.6773 16.7766 20.9527 16.2446 21.158C15.7126 21.3633 15.0826 21.466 14.3546 21.466ZM15.5446 15.166C14.9566 15.166 14.4806 15.068 14.1166 14.872C13.7526 14.676 13.4866 14.424 13.3186 14.116C13.1506 13.7987 13.0666 13.4767 13.0666 13.15C13.0666 12.6367 13.2299 12.184 13.5566 11.792C13.8832 11.4 14.2986 11.092 14.8026 10.868C15.3159 10.644 15.8526 10.532 16.4126 10.532C16.8139 10.532 17.1966 10.616 17.5606 10.784C17.9246 10.952 18.2232 11.1853 18.4566 11.484C18.6899 11.7733 18.8066 12.1047 18.8066 12.478C18.8066 13.0287 18.6572 13.5093 18.3586 13.92C18.0599 14.3213 17.6632 14.6293 17.1686 14.844C16.6832 15.0587 16.1419 15.166 15.5446 15.166ZM15.3766 14.816C15.6846 14.816 15.9459 14.7087 16.1606 14.494C16.3846 14.2793 16.5619 14.004 16.6926 13.668C16.8326 13.332 16.9352 12.9867 17.0006 12.632C17.0659 12.268 17.0986 11.9413 17.0986 11.652C17.0986 11.4093 17.0659 11.2227 17.0006 11.092C16.9352 10.952 16.7812 10.882 16.5386 10.882C16.2399 10.882 15.9786 10.98 15.7546 11.176C15.5399 11.372 15.3579 11.6287 15.2086 11.946C15.0592 12.254 14.9472 12.5853 14.8726 12.94C14.8072 13.2853 14.7746 13.612 14.7746 13.92C14.7746 14.228 14.8166 14.4567 14.9006 14.606C14.9846 14.746 15.1432 14.816 15.3766 14.816ZM18.7366 12.982L18.5406 11.764H18.6246C18.7646 11.3533 18.9092 11.0407 19.0586 10.826C19.2172 10.6113 19.4272 10.504 19.6886 10.504C19.9032 10.504 20.0619 10.56 20.1646 10.672C20.2672 10.784 20.3186 10.9193 20.3186 11.078C20.3186 11.1993 20.2719 11.33 20.1786 11.47C20.0946 11.61 19.9452 11.68 19.7306 11.68C19.6372 11.68 19.5579 11.666 19.4926 11.638C19.4366 11.61 19.3852 11.5867 19.3386 11.568C19.3012 11.54 19.2639 11.526 19.2266 11.526C19.1519 11.526 19.0772 11.6287 19.0026 11.834C18.9279 12.0393 18.8392 12.422 18.7366 12.982Z" fill="white"/>
</svg>
