<svg width="24" height="24" viewBox="0 0 24 24" fill="none" xmlns="http://www.w3.org/2000/svg">
<path d="M9.70855 8.81008L4.41655 14.9771C4.24388 15.1778 4.11788 15.3481 4.03855 15.4881C3.96388 15.6281 3.92655 15.7471 3.92655 15.8451C3.92655 15.9991 4.02221 16.1274 4.21355 16.2301C4.40955 16.3328 4.73388 16.4308 5.18655 16.5241L4.99055 17.0001H0.671547L0.860547 16.5241C1.18721 16.4634 1.46021 16.4028 1.67955 16.3421C1.89421 16.2814 2.08788 16.1998 2.26055 16.0971C2.43321 15.9944 2.60821 15.8544 2.78555 15.6771C2.96755 15.4951 3.18455 15.2548 3.43655 14.9561L9.54755 7.76008L9.70855 8.81008ZM9.26755 13.8991H4.80855L5.13055 13.1711H9.59655L9.26755 13.8991ZM9.26755 8.93608L9.51955 6.84308L11.6475 6.05908L10.5065 15.6491C10.4692 15.9524 10.5229 16.1624 10.6675 16.2791C10.8169 16.3911 11.1389 16.4728 11.6335 16.5241L11.4375 17.0001H6.62155L6.81055 16.5241C7.25388 16.4961 7.58988 16.4518 7.81855 16.3911C8.04721 16.3304 8.20821 16.2254 8.30155 16.0761C8.39955 15.9268 8.46488 15.7074 8.49755 15.4181L9.26755 8.93608ZM18.5568 9.96508C18.8601 9.55441 19.1891 9.24175 19.5438 9.02708C19.9031 8.80775 20.2461 8.69808 20.5728 8.69808C20.8854 8.69808 21.1374 8.78675 21.3288 8.96408C21.5248 9.13675 21.6228 9.36075 21.6228 9.63608C21.6228 9.85541 21.5528 10.0444 21.4128 10.2031C21.2728 10.3571 21.0791 10.4341 20.8318 10.4341C20.6638 10.4341 20.5308 10.3991 20.4328 10.3291C20.3394 10.2544 20.2601 10.1728 20.1948 10.0841C20.1341 9.99075 20.0688 9.90908 19.9988 9.83908C19.9334 9.76441 19.8401 9.72708 19.7188 9.72708C19.6021 9.72708 19.4808 9.77375 19.3548 9.86708C19.2334 9.95575 19.0911 10.1028 18.9278 10.3081L18.5568 9.96508ZM14.8888 19.8211C15.2388 19.8211 15.5561 19.7651 15.8408 19.6531C16.1254 19.5458 16.3518 19.4011 16.5198 19.2191C16.6878 19.0371 16.7718 18.8411 16.7718 18.6311C16.7718 18.3884 16.6551 18.1808 16.4218 18.0081C16.1884 17.8354 15.8524 17.6628 15.4138 17.4901L14.4898 17.1191C14.2191 17.0118 14.0301 16.9581 13.9228 16.9581C13.7921 16.9581 13.6404 17.0234 13.4678 17.1541C13.2998 17.2894 13.1528 17.4598 13.0268 17.6651C12.9054 17.8751 12.8448 18.0944 12.8448 18.3231C12.8448 18.6264 12.9381 18.8901 13.1248 19.1141C13.3161 19.3381 13.5658 19.5108 13.8738 19.6321C14.1864 19.7581 14.5248 19.8211 14.8888 19.8211ZM16.4148 13.7871C16.6854 13.7871 16.9398 13.6518 17.1778 13.3811C17.4158 13.1104 17.6071 12.7651 17.7518 12.3451C17.9011 11.9251 17.9758 11.4958 17.9758 11.0571C17.9758 10.7118 17.9268 10.4528 17.8288 10.2801C17.7308 10.1074 17.5908 10.0211 17.4088 10.0211C17.2221 10.0211 17.0308 10.1004 16.8348 10.2591C16.6434 10.4131 16.4661 10.6208 16.3028 10.8821C16.1394 11.1388 16.0064 11.4258 15.9038 11.7431C15.8058 12.0604 15.7568 12.3778 15.7568 12.6951C15.7568 13.0404 15.8128 13.3088 15.9248 13.5001C16.0368 13.6914 16.2001 13.7871 16.4148 13.7871ZM14.6998 20.4651C13.9811 20.4651 13.3348 20.3788 12.7608 20.2061C12.1868 20.0334 11.7318 19.7908 11.3958 19.4781C11.0598 19.1654 10.8918 18.7991 10.8918 18.3791C10.8918 18.0151 11.0131 17.6978 11.2558 17.4271C11.4984 17.1611 11.8228 16.9534 12.2288 16.8041C12.6301 16.6501 13.0711 16.5684 13.5518 16.5591C13.1504 16.2138 12.9498 15.8218 12.9498 15.3831C12.9498 14.9398 13.1318 14.5898 13.4958 14.3331C13.8644 14.0718 14.3451 13.9178 14.9378 13.8711L14.9728 13.8081C14.1981 13.3228 13.8108 12.7161 13.8108 11.9881C13.8108 11.5448 13.9554 11.1294 14.2448 10.7421C14.5388 10.3548 14.9308 10.0421 15.4208 9.80408C15.9108 9.56141 16.4521 9.44008 17.0448 9.44008C17.6048 9.44008 18.0971 9.54975 18.5218 9.76908C18.9464 9.98841 19.2778 10.2848 19.5158 10.6581C19.7538 11.0268 19.8728 11.4398 19.8728 11.8971C19.8728 12.3964 19.7304 12.8304 19.4458 13.1991C19.1611 13.5678 18.7621 13.8548 18.2488 14.0601C17.7401 14.2608 17.1451 14.3611 16.4638 14.3611C16.2444 14.3611 16.0718 14.3588 15.9458 14.3541C15.8244 14.3448 15.7194 14.3378 15.6308 14.3331C15.3088 14.3144 15.0544 14.3564 14.8678 14.4591C14.6811 14.5571 14.5878 14.7134 14.5878 14.9281C14.5878 15.0728 14.6531 15.2151 14.7838 15.3551C14.9191 15.4951 15.1921 15.6468 15.6028 15.8101L16.9958 16.3561C17.5324 16.5661 17.9431 16.8088 18.2278 17.0841C18.5171 17.3641 18.6618 17.7094 18.6618 18.1201C18.6618 18.5774 18.4938 18.9811 18.1578 19.3311C17.8264 19.6858 17.3644 19.9634 16.7718 20.1641C16.1791 20.3648 15.4884 20.4651 14.6998 20.4651Z" fill="white"/>
</svg>
