<svg width="24" height="24" viewBox="0 0 24 24" fill="none" xmlns="http://www.w3.org/2000/svg">
<path d="M14.1108 13.3961C14.1108 14.8148 14.4654 15.9768 15.1748 16.8821C14.8201 17.3488 14.3814 17.5821 13.8588 17.5821C13.2988 17.5821 12.8648 17.3161 12.5568 16.7841C12.2581 16.2614 12.1088 15.5428 12.1088 14.6281C12.1088 14.4321 12.1274 14.0541 12.1648 13.4941C10.8301 13.8301 9.18743 13.8488 7.23677 13.5501C6.6301 15.0621 6.1961 16.5928 5.93477 18.1421C5.8601 18.5994 5.8881 19.2154 6.01877 19.9901C5.20677 19.9248 4.63277 19.7848 4.29677 19.5701C3.96077 19.3554 3.79277 18.9401 3.79277 18.3241C3.79277 17.3161 4.32943 15.5941 5.40277 13.1581C4.59077 12.9061 4.12877 12.6261 4.01677 12.3181C3.95143 12.1314 3.92343 11.8468 3.93277 11.4641C3.9421 11.0721 3.93743 10.7408 3.91877 10.4701C4.7401 10.8714 5.51477 11.2074 6.24277 11.4781C6.59743 10.8901 7.01277 10.2741 7.48877 9.63007C7.9741 8.97674 8.51077 8.31874 9.09877 7.65607C9.68677 6.98407 10.2981 6.41474 10.9328 5.94807C11.5768 5.4814 12.1601 5.20607 12.6828 5.12207C12.8694 5.15007 13.0374 5.19207 13.1868 5.24807C13.3361 5.29474 13.4621 5.3694 13.5648 5.47207C13.6768 5.5654 13.7701 5.65874 13.8448 5.75207C13.9194 5.83607 13.9754 5.96207 14.0128 6.13007C14.0594 6.28874 14.0968 6.42874 14.1248 6.55007C14.1528 6.66207 14.1714 6.8254 14.1808 7.04007C14.1901 7.2454 14.1948 7.4134 14.1948 7.54407C14.1948 7.6654 14.1901 7.85207 14.1808 8.10407C14.1808 8.34674 14.1808 8.5334 14.1808 8.66407C14.1808 9.0374 14.1668 9.7514 14.1388 10.8061C14.1201 11.8608 14.1108 12.7241 14.1108 13.3961ZM7.95077 11.9961C9.5561 12.4068 10.9981 12.5048 12.2768 12.2901C12.5848 9.56474 12.7388 7.9174 12.7388 7.34807C12.7388 7.09607 12.7014 6.88607 12.6268 6.71807C12.5521 6.55007 12.4588 6.46607 12.3468 6.46607C11.7681 6.7274 11.0634 7.36207 10.2328 8.37007C9.41143 9.36874 8.65077 10.5774 7.95077 11.9961ZM19.4226 10.3441C20.0759 10.3441 20.4026 11.4454 20.4026 13.6481C20.4026 14.2361 20.3372 14.8661 20.2066 15.5381C20.0759 16.2101 19.8846 16.8588 19.6326 17.4841C19.3806 18.1188 19.0399 18.6414 18.6106 19.0521C18.1812 19.4721 17.7006 19.6821 17.1686 19.6821C16.6926 19.6821 16.3426 19.5374 16.1186 19.2481C15.8946 18.9681 15.7826 18.5948 15.7826 18.1281C15.7826 17.3534 16.0439 16.5554 16.5666 15.7341C17.0986 14.9128 17.7939 14.1568 18.6526 13.4661C18.6526 13.2234 18.6386 13.0134 18.6106 12.8361C18.0786 13.5361 17.5046 13.8861 16.8886 13.8861C16.4592 13.8861 16.1279 13.7368 15.8946 13.4381C15.6706 13.1301 15.5586 12.7194 15.5586 12.2061C15.5586 11.3754 15.8946 10.6288 16.5666 9.96607C17.2479 9.29407 17.9946 8.95807 18.8066 8.95807C19.0679 8.95807 19.3059 9.00474 19.5206 9.09807C19.7446 9.1914 19.8566 9.32674 19.8566 9.50407C19.8566 9.7094 19.5766 9.91007 19.0166 10.1061C18.9232 9.98474 18.8159 9.92407 18.6946 9.92407C18.2466 9.92407 17.8732 10.1994 17.5746 10.7501C17.2759 11.3008 17.1266 11.8281 17.1266 12.3321C17.1266 12.6774 17.2059 12.8501 17.3646 12.8501C17.6352 12.8501 17.8826 12.6261 18.1066 12.1781C18.3399 11.7208 18.4052 11.2961 18.3026 10.9041C18.8719 10.5308 19.2452 10.3441 19.4226 10.3441ZM17.0986 19.0381C17.4346 19.0381 17.7286 18.5901 17.9806 17.6941C18.2419 16.7981 18.4379 15.8274 18.5686 14.7821C17.3926 16.0048 16.8046 17.2181 16.8046 18.4221C16.8046 18.8328 16.9026 19.0381 17.0986 19.0381Z" fill="white"/>
</svg>
