<svg width="24" height="24" viewBox="0 0 24 24" fill="none" xmlns="http://www.w3.org/2000/svg">
<path d="M11.8935 16.5101C11.9122 16.5941 11.9449 16.6641 11.9915 16.7201C12.0475 16.7761 12.1362 16.8228 12.2575 16.8601C12.3789 16.8974 12.5422 16.9254 12.7475 16.9441C12.9622 16.9534 13.2375 16.9581 13.5735 16.9581C13.7042 16.9581 13.8395 16.9814 13.9795 17.0281C14.1195 17.0841 14.1895 17.1914 14.1895 17.3501C14.1895 17.5181 14.1475 17.6301 14.0635 17.6861C13.9795 17.7421 13.8582 17.7701 13.6995 17.7701H10.2415C10.0735 17.7701 9.95686 17.7374 9.89152 17.6721C9.83552 17.6068 9.80753 17.5368 9.80753 17.4621C9.80753 17.3128 9.84487 17.2148 9.91953 17.1681C10.0035 17.1308 10.0875 17.0934 10.1715 17.0561C10.2649 17.0281 10.3489 16.9814 10.4235 16.9161C10.5075 16.8414 10.5495 16.7061 10.5495 16.5101C10.5495 16.4448 10.5215 16.2954 10.4655 16.0621C10.4095 15.8288 10.3442 15.5768 10.2695 15.3061C10.1949 15.0354 10.1202 14.7788 10.0455 14.5361C9.97087 14.2841 9.91952 14.1068 9.89152 14.0041H6.64353C6.5782 14.1628 6.51287 14.3401 6.44753 14.5361C6.39153 14.7228 6.3402 14.9094 6.29353 15.0961C6.24687 15.2734 6.20953 15.4368 6.18153 15.5861C6.15353 15.7354 6.13953 15.8474 6.13953 15.9221C6.13953 15.9968 6.22353 16.0528 6.39153 16.0901C6.56887 16.1274 6.82087 16.1461 7.14753 16.1461C7.29687 16.1461 7.40887 16.1788 7.48353 16.2441C7.56753 16.3094 7.60953 16.4261 7.60953 16.5941C7.60953 16.6968 7.57687 16.7901 7.51153 16.8741C7.4462 16.9581 7.3202 17.0001 7.13353 17.0001H3.24153C3.15753 17.0001 3.08287 16.9628 3.01753 16.8881C2.9522 16.8134 2.91953 16.7108 2.91953 16.5801C2.91953 16.4588 2.9662 16.3654 3.05953 16.3001C3.14353 16.2348 3.2322 16.2021 3.32553 16.2021C3.3442 16.2021 3.39087 16.1974 3.46553 16.1881C3.5402 16.1788 3.6242 16.1694 3.71753 16.1601C3.81087 16.1508 3.89487 16.1414 3.96953 16.1321C4.05353 16.1228 4.10487 16.1181 4.12353 16.1181C4.29153 16.0994 4.43153 16.0528 4.54353 15.9781C4.65553 15.9034 4.74419 15.7728 4.80953 15.5861C4.9402 15.2034 5.08487 14.7414 5.24353 14.2001C5.41153 13.6494 5.5842 13.0661 5.76153 12.4501C5.93887 11.8341 6.1162 11.2041 6.29353 10.5601C6.47087 9.91607 6.63887 9.30007 6.79753 8.71207C6.9562 8.12407 7.10087 7.5874 7.23153 7.10207C7.37153 6.6074 7.4882 6.21074 7.58153 5.91207C7.64687 5.6974 7.7262 5.53874 7.81953 5.43607C7.9222 5.32407 8.09486 5.26807 8.33752 5.26807C8.53352 5.26807 8.68752 5.3194 8.79952 5.42207C8.91152 5.52474 8.99553 5.6834 9.05153 5.89807L11.8935 16.5101ZM8.37953 7.32607C8.3142 7.57807 8.22086 7.9374 8.09952 8.40407C7.98752 8.8614 7.86153 9.35607 7.72153 9.88807C7.59087 10.4201 7.4602 10.9521 7.32953 11.4841C7.19887 12.0068 7.0822 12.4548 6.97953 12.8281C7.11952 12.8281 7.24087 12.8328 7.34353 12.8421C7.45553 12.8421 7.5582 12.8468 7.65153 12.8561C7.74486 12.8561 7.84286 12.8561 7.94553 12.8561C8.05753 12.8561 8.18353 12.8561 8.32352 12.8561C8.40753 12.8561 8.50553 12.8561 8.61753 12.8561C8.73887 12.8561 8.8602 12.8561 8.98152 12.8561C9.1122 12.8468 9.23353 12.8421 9.34553 12.8421C9.46687 12.8328 9.56952 12.8281 9.65352 12.8281C9.54152 12.4174 9.42487 11.9834 9.30353 11.5261C9.19153 11.0688 9.07952 10.6068 8.96753 10.1401C8.86486 9.66407 8.7622 9.18807 8.65953 8.71207C8.55687 8.23607 8.46353 7.77407 8.37953 7.32607ZM16.9834 10.5601C17.1514 10.5601 17.3101 10.5694 17.4594 10.5881C17.6087 10.6068 17.7487 10.6301 17.8794 10.6581C18.0941 10.3688 18.3507 10.1214 18.6494 9.91607C18.9574 9.71074 19.2561 9.60807 19.5454 9.60807C19.7134 9.60807 19.8627 9.65474 19.9934 9.74807C20.1334 9.8414 20.2034 10.0048 20.2034 10.2381C20.2034 10.3688 20.1801 10.4621 20.1334 10.5181C20.0867 10.5741 20.0261 10.6114 19.9514 10.6301C19.8954 10.6488 19.8161 10.6674 19.7134 10.6861C19.6201 10.6954 19.5127 10.7094 19.3914 10.7281C19.2794 10.7468 19.1627 10.7748 19.0414 10.8121C18.9201 10.8494 18.8034 10.9008 18.6914 10.9661C19.0367 11.1714 19.2887 11.4328 19.4474 11.7501C19.6154 12.0674 19.6994 12.4128 19.6994 12.7861C19.6994 13.4861 19.4427 14.0461 18.9294 14.4661C18.4161 14.8861 17.6787 15.0961 16.7174 15.0961C16.6241 15.0961 16.5447 15.0961 16.4794 15.0961C16.4234 15.0868 16.3441 15.0728 16.2414 15.0541C16.0641 15.1101 15.9007 15.1988 15.7514 15.3201C15.6114 15.4321 15.5414 15.5254 15.5414 15.6001C15.5414 15.7028 15.6861 15.7868 15.9754 15.8521C16.2741 15.9081 16.7501 15.9408 17.4034 15.9501C17.5994 15.9501 17.8374 15.9548 18.1174 15.9641C18.3974 15.9734 18.6867 16.0014 18.9854 16.0481C19.2841 16.0854 19.5781 16.1508 19.8674 16.2441C20.1661 16.3281 20.4321 16.4494 20.6654 16.6081C20.8987 16.7574 21.0854 16.9488 21.2254 17.1821C21.3747 17.4248 21.4494 17.7188 21.4494 18.0641C21.4494 18.4654 21.3467 18.8154 21.1414 19.1141C20.9361 19.4221 20.6514 19.6788 20.2874 19.8841C19.9327 20.0894 19.5081 20.2434 19.0134 20.3461C18.5281 20.4488 17.9961 20.5001 17.4174 20.5001C16.8761 20.5001 16.3861 20.4581 15.9474 20.3741C15.5181 20.2994 15.1494 20.1781 14.8414 20.0101C14.5334 19.8514 14.2954 19.6461 14.1274 19.3941C13.9687 19.1514 13.8894 18.8621 13.8894 18.5261C13.8894 18.1061 14.0154 17.7561 14.2674 17.4761C14.5287 17.1961 14.9301 17.0048 15.4714 16.9021C15.1074 16.8368 14.8087 16.7201 14.5754 16.5521C14.3514 16.3841 14.2394 16.1181 14.2394 15.7541C14.2394 15.4834 14.3094 15.2734 14.4494 15.1241C14.5987 14.9654 14.8181 14.8208 15.1074 14.6901C14.8087 14.4941 14.5847 14.2328 14.4354 13.9061C14.2954 13.5794 14.2254 13.2341 14.2254 12.8701C14.2254 12.5434 14.2814 12.2401 14.3934 11.9601C14.5054 11.6708 14.6734 11.4234 14.8974 11.2181C15.1307 11.0128 15.4201 10.8541 15.7654 10.7421C16.1107 10.6208 16.5167 10.5601 16.9834 10.5601ZM17.7534 17.0421C17.4454 17.0421 17.1374 17.0748 16.8294 17.1401C16.5214 17.2148 16.2414 17.3128 15.9894 17.4341C15.7467 17.5554 15.5461 17.6954 15.3874 17.8541C15.2381 18.0221 15.1634 18.2041 15.1634 18.4001C15.1634 18.5961 15.2381 18.7594 15.3874 18.8901C15.5461 19.0208 15.7467 19.1281 15.9894 19.2121C16.2321 19.2961 16.5027 19.3568 16.8014 19.3941C17.1001 19.4314 17.3987 19.4501 17.6974 19.4501C18.0521 19.4501 18.3787 19.4268 18.6774 19.3801C18.9761 19.3334 19.2327 19.2588 19.4474 19.1561C19.6621 19.0628 19.8301 18.9414 19.9514 18.7921C20.0727 18.6521 20.1334 18.4794 20.1334 18.2741C20.1334 18.0408 20.0634 17.8448 19.9234 17.6861C19.7927 17.5274 19.6154 17.4014 19.3914 17.3081C19.1674 17.2148 18.9107 17.1448 18.6214 17.0981C18.3414 17.0608 18.0521 17.0421 17.7534 17.0421ZM16.9834 11.5961C16.5167 11.5961 16.1574 11.7128 15.9054 11.9461C15.6627 12.1701 15.5414 12.4734 15.5414 12.8561C15.5414 13.0054 15.5741 13.1548 15.6394 13.3041C15.7047 13.4441 15.7981 13.5748 15.9194 13.6961C16.0407 13.8081 16.1901 13.9014 16.3674 13.9761C16.5447 14.0414 16.7454 14.0741 16.9694 14.0741C17.4174 14.0741 17.7627 13.9481 18.0054 13.6961C18.2574 13.4441 18.3834 13.1408 18.3834 12.7861C18.3834 12.4594 18.2714 12.1794 18.0474 11.9461C17.8234 11.7128 17.4687 11.5961 16.9834 11.5961Z" fill="white"/>
</svg>
