<svg width="24" height="24" viewBox="0 0 24 24" fill="none" xmlns="http://www.w3.org/2000/svg">
<path d="M10.3273 17V11.96C9.97268 11.792 9.56668 11.652 9.10935 11.54C8.66135 11.4187 8.20401 11.33 7.73735 11.274C7.62535 11.6847 7.52268 12.1093 7.42935 12.548C7.33601 12.9773 7.25668 13.4067 7.19135 13.836C7.12601 14.256 7.07468 14.6713 7.03735 15.082C7.00001 15.4833 6.98135 15.866 6.98135 16.23C6.98135 16.6407 7.00935 17.042 7.06535 17.434C7.13068 17.826 7.26601 18.2133 7.47135 18.596C7.25668 18.596 7.03268 18.5727 6.79935 18.526C6.56601 18.4793 6.35135 18.372 6.15535 18.204C5.95935 18.0453 5.79601 17.812 5.66535 17.504C5.54401 17.2053 5.48335 16.7993 5.48335 16.286C5.48335 15.9593 5.50668 15.5953 5.55335 15.194C5.60001 14.7927 5.67001 14.3727 5.76335 13.934C5.85668 13.4953 5.96868 13.0473 6.09935 12.59C6.23935 12.1233 6.39335 11.666 6.56135 11.218C6.29068 11.2273 6.03401 11.2507 5.79135 11.288C5.55801 11.3253 5.35268 11.3813 5.17535 11.456C5.00735 11.5213 4.87201 11.6007 4.76935 11.694C4.66668 11.7873 4.61535 11.89 4.61535 12.002C4.61535 12.0393 4.62001 12.0673 4.62935 12.086C4.87201 12.1607 4.99335 12.3147 4.99335 12.548C4.99335 12.716 4.93268 12.8327 4.81135 12.898C4.69001 12.9633 4.55935 12.996 4.41935 12.996C4.18601 12.996 3.97135 12.9307 3.77535 12.8C3.57001 12.66 3.46735 12.422 3.46735 12.086C3.46735 11.862 3.53735 11.6613 3.67735 11.484C3.80801 11.3067 3.99001 11.1573 4.22335 11.036C4.46601 10.9053 4.74601 10.8073 5.06335 10.742C5.39001 10.6767 5.74468 10.644 6.12735 10.644C6.23001 10.644 6.33735 10.6487 6.44935 10.658C6.56135 10.658 6.67335 10.6627 6.78535 10.672C7.01868 10.112 7.28001 9.58 7.56935 9.076C7.85868 8.56267 8.17135 8.11933 8.50735 7.746C8.84335 7.36333 9.19801 7.06 9.57135 6.836C9.94468 6.612 10.3367 6.5 10.7473 6.5C10.8873 6.5 11.06 6.514 11.2653 6.542C11.48 6.57 11.6807 6.62133 11.8673 6.696V17H10.3273ZM7.87735 10.812C8.34401 10.896 8.79201 11.0033 9.22135 11.134C9.65068 11.2553 10.0193 11.3907 10.3273 11.54V7.172C10.094 7.19067 9.86535 7.298 9.64135 7.494C9.41735 7.68067 9.19801 7.93733 8.98335 8.264C8.77801 8.59067 8.58201 8.97333 8.39535 9.412C8.20868 9.84133 8.03601 10.308 7.87735 10.812ZM18.3149 10V18.106C18.3149 18.5447 18.2682 18.9133 18.1749 19.212C18.0815 19.52 17.9509 19.7673 17.7829 19.954C17.6242 20.15 17.4375 20.29 17.2229 20.374C17.0175 20.458 16.7982 20.5 16.5649 20.5C16.0982 20.5 15.7342 20.3647 15.4729 20.094C15.2115 19.8327 15.0809 19.5107 15.0809 19.128C15.0809 18.8853 15.1322 18.666 15.2349 18.47C15.3469 18.274 15.4869 18.092 15.6549 17.924C15.8322 17.7653 16.0282 17.6207 16.2429 17.49C16.4669 17.3687 16.6909 17.2613 16.9149 17.168V15.964C16.7375 16.2067 16.5135 16.4073 16.2429 16.566C15.9815 16.7247 15.6829 16.804 15.3469 16.804C15.0669 16.804 14.7822 16.7527 14.4929 16.65C14.2129 16.538 13.9562 16.3607 13.7229 16.118C13.4989 15.8753 13.3122 15.558 13.1629 15.166C13.0229 14.774 12.9529 14.298 12.9529 13.738C12.9529 13.318 12.9995 12.884 13.0929 12.436C13.1955 11.988 13.3542 11.582 13.5689 11.218C13.7835 10.8447 14.0589 10.5367 14.3949 10.294C14.7309 10.0513 15.1369 9.93 15.6129 9.93C15.7249 9.93 15.8415 9.944 15.9629 9.972C16.0935 9.99067 16.2149 10.028 16.3269 10.084C16.4482 10.14 16.5602 10.2193 16.6629 10.322C16.7655 10.4153 16.8495 10.532 16.9149 10.672V10H18.3149ZM15.6969 15.74C15.8369 15.74 15.9769 15.7027 16.1169 15.628C16.2662 15.5533 16.3969 15.4507 16.5089 15.32C16.6302 15.1893 16.7282 15.0353 16.8029 14.858C16.8775 14.6807 16.9149 14.4893 16.9149 14.284V11.302C16.8495 11.1527 16.7469 11.0173 16.6069 10.896C16.4762 10.7653 16.3035 10.7 16.0889 10.7C15.7902 10.7 15.5335 10.798 15.3189 10.994C15.1042 11.1807 14.9315 11.4187 14.8009 11.708C14.6702 11.9973 14.5722 12.3147 14.5069 12.66C14.4509 13.0053 14.4229 13.332 14.4229 13.64C14.4229 14.396 14.5302 14.9373 14.7449 15.264C14.9689 15.5813 15.2862 15.74 15.6969 15.74ZM16.2989 19.772C16.5509 19.772 16.7142 19.674 16.7889 19.478C16.8729 19.2913 16.9149 19.0347 16.9149 18.708V17.728C16.4482 17.9427 16.1169 18.1527 15.9209 18.358C15.7249 18.5727 15.6269 18.8107 15.6269 19.072C15.6269 19.2867 15.6829 19.4547 15.7949 19.576C15.9162 19.7067 16.0842 19.772 16.2989 19.772Z" fill="white"/>
</svg>
