<svg width="24" height="24" viewBox="0 0 24 24" fill="none" xmlns="http://www.w3.org/2000/svg">
<path d="M10.2653 12.0859C10.2279 11.9272 10.1766 11.7126 10.1113 11.4419C10.0459 11.1712 9.97592 10.8726 9.90127 10.5459C9.8266 10.2192 9.74727 9.87855 9.66327 9.52388C9.5886 9.16921 9.51393 8.83788 9.43927 8.52988C9.37393 8.21255 9.3086 7.93255 9.24327 7.68988C9.18727 7.43788 9.14527 7.25121 9.11727 7.12988C8.80927 7.15788 8.55727 7.17655 8.36127 7.18588C8.1746 7.18588 8.03927 7.18588 7.95527 7.18588C7.88059 7.18588 7.80593 7.18588 7.73127 7.18588C7.65659 7.18588 7.5866 7.19055 7.52127 7.19988C7.21327 7.94655 6.96593 8.69788 6.77927 9.45388C6.5926 10.2099 6.41993 10.9379 6.26127 11.6379C6.1026 12.3379 5.9626 13.0006 5.84127 13.6259C5.72927 14.2419 5.63127 14.7879 5.54727 15.2639C5.46327 15.7399 5.39793 16.1272 5.35127 16.4259C5.3046 16.7246 5.27193 16.9066 5.25327 16.9719C5.6266 16.9719 5.82727 16.9719 5.85527 16.9719C5.8926 16.9626 5.91593 16.9579 5.92527 16.9579C6.02793 16.3886 6.09793 15.9966 6.13527 15.7819C6.18193 15.5579 6.2566 15.1612 6.35927 14.5919L10.0693 14.6339C10.2279 15.2219 10.3306 15.6232 10.3773 15.8379C10.4333 16.0526 10.4846 16.2626 10.5313 16.4679C10.5873 16.6732 10.6433 16.8506 10.6993 16.9999H10.7133C10.6853 17.0559 10.8859 17.0559 11.3153 16.9999V16.9859L10.2653 12.0859ZM10.0553 14.0179C8.82327 14.0459 7.93659 14.0552 7.39527 14.0459C6.86327 14.0366 6.54127 14.0272 6.42927 14.0179C6.87726 11.7966 7.2086 10.2052 7.42327 9.24388C7.64727 8.27321 7.80127 7.78788 7.88527 7.78788C7.9786 7.77855 8.10927 7.77388 8.27727 7.77388C8.4546 7.77388 8.58059 7.77388 8.65526 7.77388C8.73926 7.77388 9.20592 9.85521 10.0553 14.0179ZM12.1916 13.6539C12.1916 13.5139 12.1916 13.3692 12.1916 13.2199C12.1916 13.0706 12.2102 12.9166 12.2476 12.7579C12.3316 12.0486 12.4202 11.6052 12.5136 11.4279C12.6162 11.2412 12.8122 11.0546 13.1016 10.8679C13.4002 10.6719 13.7082 10.5646 14.0256 10.5459C14.3522 10.5272 14.6649 10.5226 14.9636 10.5319C15.2622 10.5412 15.5236 10.5879 15.7476 10.6719C15.9716 10.7466 16.2189 10.9846 16.4896 11.3859C16.6109 11.6379 16.6669 12.1512 16.6576 12.9259C16.6576 13.6912 16.6529 14.3212 16.6436 14.8159C16.6436 15.3012 16.6156 15.6186 16.5596 15.7679C16.5129 15.9079 16.4242 16.0246 16.2936 16.1179C16.1629 16.2019 16.0182 16.2672 15.8596 16.3139C15.3836 16.4446 14.7442 16.5192 13.9416 16.5379C13.1482 16.5566 12.6069 16.2252 12.3176 15.5439C12.1869 14.8532 12.1449 14.2932 12.1916 13.8639V13.6539ZM15.5796 19.7999C15.6916 19.7906 15.8129 19.7719 15.9436 19.7439C16.0742 19.7159 16.2049 19.6646 16.3356 19.5899C16.4662 19.5246 16.5969 19.4312 16.7276 19.3099C16.8676 19.1886 17.0029 19.0252 17.1336 18.8199C17.2269 18.6706 17.2689 18.4839 17.2596 18.2599C17.2502 18.0452 17.2502 17.8259 17.2596 17.6019C17.3156 16.2579 17.3389 14.9512 17.3296 13.6819C17.3296 12.4032 17.3109 11.1806 17.2736 10.0139H16.6156C16.5876 10.0606 16.5736 10.1259 16.5736 10.2099C16.5829 10.2846 16.5876 10.3639 16.5876 10.4479C16.5969 10.5226 16.5969 10.5879 16.5876 10.6439C16.5876 10.6906 16.5689 10.7046 16.5316 10.6859C16.4196 10.4246 16.2329 10.2472 15.9716 10.1539C15.7196 10.0512 15.0336 10.0139 13.9136 10.0419C13.3162 10.0792 12.8589 10.2519 12.5416 10.5599C12.2242 10.8586 11.9909 11.2319 11.8416 11.6799C11.7016 12.1186 11.6222 12.5899 11.6036 13.0939C11.5849 13.5979 11.5756 14.0692 11.5756 14.5079C11.5942 14.7972 11.6316 15.0819 11.6876 15.3619C11.7436 15.6326 11.8369 15.8939 11.9676 16.1459C12.0516 16.3232 12.1589 16.4679 12.2896 16.5799C12.4202 16.6919 12.5649 16.7806 12.7236 16.8459C12.8916 16.9112 13.0642 16.9579 13.2416 16.9859C13.4282 17.0139 13.6102 17.0279 13.7876 17.0279C13.9182 17.0186 14.2589 17.0046 14.8096 16.9859C15.3696 16.9579 15.7382 16.9346 15.9156 16.9159C16.0929 16.8972 16.2422 16.8646 16.3636 16.8179C16.4942 16.7712 16.6062 16.6966 16.6996 16.5939C16.6809 16.7619 16.6809 16.9252 16.6996 17.0839C16.7089 17.1586 16.7089 17.2426 16.6996 17.3359C16.6902 17.4386 16.6856 17.7652 16.6856 18.3159C16.6856 18.8666 16.0789 19.1652 14.8656 19.2119C13.6616 19.2586 12.9616 19.0626 12.7656 18.6239C12.5696 18.1852 12.4716 17.8446 12.4716 17.6019C12.1822 17.5552 11.9909 17.5506 11.8976 17.5879C11.8882 17.6626 11.8836 17.7512 11.8836 17.8539C11.8929 17.9566 11.9069 18.0639 11.9256 18.1759C11.9536 18.2879 11.9816 18.3952 12.0096 18.4979C12.0469 18.6099 12.0842 18.6986 12.1216 18.7639C12.3362 19.0812 12.6162 19.3332 12.9616 19.5199C13.3069 19.7066 13.6989 19.7999 14.1376 19.7999C14.5202 19.7999 14.8329 19.8046 15.0756 19.8139C15.3182 19.8232 15.4862 19.8186 15.5796 19.7999Z" fill="white"/>
</svg>
