<svg width="24" height="24" viewBox="0 0 24 24" fill="none" xmlns="http://www.w3.org/2000/svg">
<path d="M2.95857 17.1118L3.16857 16.6918C3.6819 16.6265 4.01324 16.5518 4.16257 16.4678C4.26524 16.4025 4.3679 16.3045 4.47057 16.1738C4.57324 16.0431 4.67124 15.8751 4.76457 15.6698L7.63457 9.5518C7.82124 9.1598 7.91457 8.8658 7.91457 8.6698C7.91457 8.62313 7.9099 8.58113 7.90057 8.5438C7.89124 8.49713 7.88657 8.45047 7.88657 8.4038C7.88657 8.35713 7.90524 8.31513 7.94257 8.2778C7.9799 8.24047 8.01724 8.20313 8.05457 8.1658C8.32524 7.93247 8.60057 7.72713 8.88057 7.5498L8.96457 7.5778C9.03924 7.84847 9.1419 8.2358 9.27257 8.7398C9.41257 9.2438 9.57124 9.8038 9.74857 10.4198C9.9259 11.0358 10.1079 11.6611 10.2946 12.2958C10.4812 12.9211 10.6586 13.5138 10.8266 14.0738C10.9946 14.6245 11.1392 15.0865 11.2606 15.4598C11.3819 15.8238 11.4612 16.0478 11.4986 16.1318C11.5826 16.3091 11.7086 16.4351 11.8766 16.5098C12.0446 16.5751 12.2639 16.6265 12.5346 16.6638C12.6092 16.6731 12.6792 16.6778 12.7446 16.6778C12.8192 16.6778 12.8939 16.6778 12.9686 16.6778L12.7446 17.0978C12.2032 17.0698 11.7786 17.0511 11.4706 17.0418C11.1719 17.0325 10.9852 17.0278 10.9106 17.0278C10.8452 17.0278 10.7239 17.0278 10.5466 17.0278C10.3692 17.0278 10.1452 17.0371 9.87457 17.0558L8.96457 17.0978L8.90857 17.0278L9.06257 16.6918C9.75324 16.6918 10.0986 16.5565 10.0986 16.2858C10.0986 16.2111 10.0566 16.0058 9.97257 15.6698C9.88857 15.3338 9.7579 14.7971 9.58057 14.0598C9.55257 13.9665 9.51057 13.9198 9.45457 13.9198H6.31857C6.26257 13.9198 6.22057 13.9431 6.19257 13.9898C5.98724 14.4191 5.8099 14.7925 5.66057 15.1098C5.52057 15.4271 5.40857 15.6885 5.32457 15.8938C5.28724 15.9871 5.2499 16.0805 5.21257 16.1738C5.17524 16.2578 5.15657 16.3231 5.15657 16.3698C5.15657 16.5845 5.54857 16.6871 6.33257 16.6778L6.10857 17.0978C5.9219 17.0698 5.6979 17.0511 5.43657 17.0418C5.18457 17.0325 4.89524 17.0278 4.56857 17.0278C4.23257 17.0278 3.9339 17.0325 3.67257 17.0418C3.41124 17.0511 3.17324 17.0745 2.95857 17.1118ZM6.52857 13.3458H9.32857C9.3659 13.3458 9.37524 13.3318 9.35657 13.3038C9.17924 12.6785 8.99724 12.0531 8.81057 11.4278C8.6239 10.7931 8.43724 10.1865 8.25057 9.6078C8.0919 9.9158 7.9379 10.2238 7.78857 10.5318C7.63924 10.8398 7.46657 11.2131 7.27057 11.6518C7.07457 12.0811 6.8179 12.6318 6.50057 13.3038C6.49124 13.3318 6.50057 13.3458 6.52857 13.3458ZM15.4532 19.3938C14.5759 19.3938 13.9599 19.2958 13.6052 19.0998C13.2599 18.9038 13.0872 18.6051 13.0872 18.2038C13.0872 17.4385 13.5632 16.7991 14.5152 16.2858C14.4872 16.2858 14.4592 16.2858 14.4312 16.2858C14.4126 16.2858 14.3892 16.2858 14.3612 16.2858C14.1092 16.2858 13.9132 16.1225 13.7732 15.7958C13.6892 15.5718 13.6472 15.3525 13.6472 15.1378C13.6472 14.8765 13.7266 14.7085 13.8852 14.6338C14.1559 14.5311 14.3892 14.4238 14.5852 14.3118C14.7812 14.1998 14.9399 14.0831 15.0612 13.9618C14.6786 13.6258 14.4872 13.1451 14.4872 12.5198C14.4872 11.7731 14.7112 11.2038 15.1592 10.8118C15.6166 10.4105 16.2699 10.2098 17.1192 10.2098C17.6139 10.2098 18.0339 10.3078 18.3792 10.5038H20.6332C20.7079 10.5038 20.7452 10.5318 20.7452 10.5878C20.7452 10.6625 20.6612 10.7605 20.4932 10.8818C20.3346 11.0031 20.1992 11.0638 20.0872 11.0638C20.0406 11.0638 19.9146 11.0545 19.7092 11.0358C19.5039 11.0078 19.2332 10.9845 18.8972 10.9658C19.1492 11.3111 19.2612 11.7545 19.2332 12.2958C19.1866 12.9958 18.9346 13.5278 18.4772 13.8918C18.0292 14.2558 17.4039 14.4378 16.6012 14.4378C16.3866 14.4378 16.1766 14.4145 15.9712 14.3678C15.7752 14.3211 15.5839 14.2511 15.3972 14.1578C15.2199 14.2418 15.0519 14.3678 14.8932 14.5358C14.7252 14.7318 14.6412 14.8998 14.6412 15.0398C14.6412 15.2265 14.7952 15.3338 15.1032 15.3618C15.5232 15.3991 15.9432 15.4271 16.3632 15.4458C16.7832 15.4645 17.2032 15.4738 17.6232 15.4738C17.7539 15.4738 17.8799 15.4738 18.0012 15.4738C18.1319 15.4645 18.2626 15.4598 18.3932 15.4598C19.4106 15.4598 19.9192 15.8191 19.9192 16.5378C19.9192 16.9671 19.7746 17.3591 19.4852 17.7138C19.1959 18.0685 18.8226 18.3671 18.3652 18.6098C17.9079 18.8618 17.4226 19.0531 16.9092 19.1838C16.3959 19.3238 15.9106 19.3938 15.4532 19.3938ZM16.8392 14.0598C17.2872 14.0598 17.6232 13.9058 17.8472 13.5978C18.0806 13.2898 18.1972 12.8838 18.1972 12.3798C18.1972 12.0905 18.1412 11.8105 18.0292 11.5398C17.9266 11.2691 17.7772 11.0451 17.5812 10.8678C17.3852 10.6811 17.1519 10.5878 16.8812 10.5878C16.4239 10.5878 16.0832 10.7465 15.8592 11.0638C15.6446 11.3811 15.5372 11.7871 15.5372 12.2818C15.5372 12.6738 15.6026 13.0051 15.7332 13.2758C15.8639 13.5371 16.0272 13.7331 16.2232 13.8638C16.4286 13.9945 16.6339 14.0598 16.8392 14.0598ZM15.6212 18.9318C15.9292 18.9318 16.2559 18.8945 16.6012 18.8198C16.9466 18.7545 17.2732 18.6565 17.5812 18.5258C17.9452 18.3671 18.2672 18.1525 18.5472 17.8818C18.8272 17.6111 18.9672 17.3405 18.9672 17.0698C18.9672 16.7245 18.8039 16.5238 18.4772 16.4678C18.0292 16.4025 17.3759 16.3605 16.5172 16.3418C16.2652 16.3418 16.0272 16.3418 15.8032 16.3418C15.5886 16.3325 15.3832 16.3231 15.1872 16.3138C14.4219 16.5751 14.0112 17.0558 13.9552 17.7558C13.9366 18.1571 14.0906 18.4511 14.4172 18.6378C14.7532 18.8338 15.1546 18.9318 15.6212 18.9318Z" fill="white"/>
</svg>
