<svg width="24" height="24" viewBox="0 0 24 24" fill="none" xmlns="http://www.w3.org/2000/svg">
<path d="M12.1351 11.7999L9.78311 11.7299C9.52178 11.7299 8.77511 11.7486 7.54311 11.7859C7.35644 12.1779 7.10911 12.7146 6.80111 13.3959C5.89578 15.4119 4.99978 17.0919 4.11311 18.4359C3.39444 19.5186 2.85311 20.0599 2.48911 20.0599C2.33044 20.0599 2.19978 20.0039 2.09711 19.8919C1.99444 19.7892 1.94311 19.6446 1.94311 19.4579C1.94311 19.2712 2.04578 19.0519 2.25111 18.7999C2.44711 18.5479 2.69911 18.2726 3.00711 17.9739C3.30578 17.6846 3.70244 17.1992 4.19711 16.5179C4.68244 15.8366 5.14911 15.0526 5.59711 14.1659C5.67178 14.0259 6.04978 13.2372 6.73111 11.7999H6.66111C6.51178 11.7999 6.38111 11.7579 6.26911 11.6739C6.16644 11.5806 6.11511 11.4546 6.11511 11.2959C6.11511 11.1372 6.17111 11.0066 6.28311 10.9039C6.39511 10.8012 6.53978 10.7499 6.71711 10.7499C6.90378 10.7499 7.08111 10.7546 7.24911 10.7639C8.10778 9.00919 8.89178 7.79586 9.60111 7.12386C7.93978 7.25453 7.03911 7.31986 6.89911 7.31986C6.76844 7.31986 6.64244 7.27319 6.52111 7.17986C6.40911 7.08653 6.35311 6.96519 6.35311 6.81586C6.35311 6.65719 6.40911 6.52653 6.52111 6.42386C6.64244 6.31186 6.77311 6.25586 6.91311 6.25586L9.96511 6.33986L13.2831 6.25586C13.4511 6.25586 13.5864 6.30719 13.6891 6.40986C13.7918 6.51253 13.8431 6.64786 13.8431 6.81586C13.8431 6.97453 13.7871 7.10053 13.6751 7.19386C13.5724 7.27786 13.4371 7.31986 13.2691 7.31986H12.9331C12.9331 8.81319 12.9938 10.1619 13.1151 11.3659C13.2364 12.5699 13.3578 13.4986 13.4791 14.1519C13.6004 14.8052 13.6611 15.2206 13.6611 15.3979C13.6611 15.5659 13.6051 15.7246 13.4931 15.8739C13.3904 16.0139 13.2504 16.0839 13.0731 16.0839C12.8958 16.0839 12.7418 16.0186 12.6111 15.8879C12.4804 15.7572 12.4058 15.5706 12.3871 15.3279L12.1351 11.7999ZM11.8831 7.15186L11.4631 7.13786C10.3524 7.27786 9.21378 8.49119 8.04711 10.7779C9.03644 10.7966 9.66178 10.8059 9.92311 10.8059C10.1938 10.8059 10.9078 10.7872 12.0651 10.7499C11.9438 9.14453 11.8831 7.94519 11.8831 7.15186ZM17.9551 10.7219C17.3577 10.7219 16.8491 10.9272 16.4291 11.3379C16.0184 11.7486 15.8131 12.2526 15.8131 12.8499C15.8131 13.4472 16.0184 13.9559 16.4291 14.3759C16.8491 14.7866 17.3484 14.9919 17.9271 14.9919C18.5057 14.9919 18.9864 14.8099 19.3691 14.4459C19.7611 14.0726 19.9804 13.6106 20.0271 13.0599C20.0177 12.7892 20.0131 12.4812 20.0131 12.1359C20.0131 11.7906 20.0737 11.5432 20.1951 11.3939C20.3257 11.2352 20.4797 11.1559 20.6571 11.1559C20.8344 11.1559 20.9791 11.2306 21.0911 11.3799C21.2031 11.5199 21.2591 11.6926 21.2591 11.8979C21.2591 12.1032 21.2497 12.3086 21.2311 12.5139C21.2217 12.7099 21.2031 12.9666 21.1751 13.2839C21.0817 14.3199 21.0351 15.2906 21.0351 16.1959C21.0351 17.1012 20.6337 17.9692 19.8311 18.7999C19.0284 19.6399 18.1324 20.0599 17.1431 20.0599C16.6484 20.0599 16.2191 19.9199 15.8551 19.6399C15.4911 19.3599 15.3091 19.0566 15.3091 18.7299C15.3091 18.5619 15.3651 18.4126 15.4771 18.2819C15.5984 18.1512 15.7384 18.0859 15.8971 18.0859C16.0651 18.0859 16.2144 18.1326 16.3451 18.2259C16.4851 18.3192 16.6111 18.4219 16.7231 18.5339C16.8444 18.6459 17.0217 18.7486 17.2551 18.8419C17.4977 18.9352 17.7684 18.9819 18.0671 18.9819C18.6551 18.9819 19.1451 18.7626 19.5371 18.3239C19.9291 17.8946 20.1251 17.3812 20.1251 16.7839C20.1251 16.7092 20.1111 15.9299 20.0831 14.4459C19.6817 14.9499 19.2011 15.3512 18.6411 15.6499C18.0904 15.9392 17.5677 16.0839 17.0731 16.0839C16.4197 16.0839 15.8924 15.8506 15.4911 15.3839C15.0897 14.9172 14.8891 14.3339 14.8891 13.6339C14.8891 12.9246 15.1084 12.2432 15.5471 11.5899C15.9857 10.9272 16.4991 10.4326 17.0871 10.1059C17.6751 9.77919 18.2024 9.61586 18.6691 9.61586C19.1357 9.61586 19.4624 9.69053 19.6491 9.83986C19.8451 9.97986 19.9431 10.1526 19.9431 10.3579C19.9431 10.5539 19.8777 10.7172 19.7471 10.8479C19.6257 10.9786 19.5044 11.0439 19.3831 11.0439C19.2711 11.0439 19.0657 10.9926 18.7671 10.8899C18.4777 10.7779 18.2071 10.7219 17.9551 10.7219Z" fill="white"/>
</svg>
