<svg width="24" height="24" viewBox="0 0 24 24" fill="none" xmlns="http://www.w3.org/2000/svg">
<path d="M3.58502 17C3.54769 17 3.51502 16.986 3.48702 16.958C3.46836 16.9207 3.45901 16.8787 3.45901 16.832C3.45901 16.7013 3.53836 16.636 3.69702 16.636H4.28501L7.58902 7.27002H8.23302L11.509 16.622L12.223 16.706C12.3724 16.7247 12.447 16.7853 12.447 16.888C12.447 16.9627 12.4144 17 12.349 17H10.193C10.1557 17 10.123 16.986 10.095 16.958C10.0764 16.9207 10.067 16.8787 10.067 16.832C10.067 16.7013 10.1464 16.636 10.305 16.636H11.005L9.95502 13.57H5.79701L4.73301 16.622L5.61501 16.706C5.76435 16.7247 5.83901 16.7853 5.83901 16.888C5.83901 16.9627 5.80636 17 5.74102 17H3.58502ZM9.80101 13.178L7.86901 7.69002L5.93701 13.178H9.80101ZM16.1338 20.122C15.7605 20.122 15.3872 20.0753 15.0138 19.982C14.6498 19.8887 14.3232 19.7627 14.0338 19.604C13.9125 19.5387 13.8192 19.4733 13.7538 19.408C13.6885 19.352 13.6558 19.2913 13.6558 19.226C13.6558 19.17 13.6698 19.128 13.6978 19.1C13.7258 19.072 13.7585 19.058 13.7958 19.058C13.8238 19.058 13.8798 19.086 13.9638 19.142C14.2718 19.3473 14.6125 19.5013 14.9858 19.604C15.3685 19.7067 15.7512 19.758 16.1338 19.758C16.8618 19.758 17.4125 19.59 17.7858 19.254C18.1685 18.918 18.3598 18.3953 18.3598 17.686V15.88H18.3038C17.7718 16.72 16.9878 17.14 15.9518 17.14C15.4012 17.14 14.9065 17.014 14.4678 16.762C14.0292 16.51 13.6792 16.1227 13.4178 15.6C13.1565 15.068 13.0258 14.4147 13.0258 13.64C13.0258 12.884 13.1612 12.2353 13.4318 11.694C13.7118 11.1527 14.0945 10.742 14.5798 10.462C15.0652 10.182 15.6112 10.042 16.2178 10.042C16.6565 10.042 17.1185 10.14 17.6038 10.336C18.0892 10.5227 18.4858 10.756 18.7938 11.036V17.602C18.7938 18.4047 18.5745 19.0253 18.1358 19.464C17.7065 19.9027 17.0392 20.122 16.1338 20.122ZM16.0638 16.776C16.4558 16.776 16.8245 16.6827 17.1698 16.496C17.5245 16.3093 17.8092 16.0527 18.0238 15.726C18.2385 15.39 18.3458 15.0213 18.3458 14.62V11.162C18.0378 10.9193 17.6925 10.7327 17.3098 10.602C16.9272 10.4713 16.5492 10.406 16.1758 10.406C15.6812 10.406 15.2332 10.5273 14.8318 10.77C14.4305 11.0033 14.1085 11.3627 13.8658 11.848C13.6232 12.3333 13.5018 12.9353 13.5018 13.654C13.5018 14.606 13.7165 15.3667 14.1458 15.936C14.5752 16.496 15.2145 16.776 16.0638 16.776Z" fill="white"/>
</svg>
