<svg width="24" height="24" viewBox="0 0 24 24" fill="none" xmlns="http://www.w3.org/2000/svg">
<path d="M2.77023 16.9999L5.94823 6.91992H8.41923L11.5972 16.9999H9.86124L6.97723 7.95592H7.35523L4.50623 16.9999H2.77023ZM4.54123 14.8159V13.2409H9.83323V14.8159H4.54123ZM16.0408 20.5699C15.6208 20.5699 15.2171 20.5046 14.8298 20.3739C14.4471 20.2432 14.1018 20.0542 13.7938 19.8069C13.4858 19.5642 13.2338 19.2702 13.0378 18.9249L14.5918 18.1549C14.7365 18.4302 14.9395 18.6332 15.2008 18.7639C15.4668 18.8992 15.7491 18.9669 16.0478 18.9669C16.3978 18.9669 16.7105 18.9039 16.9858 18.7779C17.2611 18.6566 17.4735 18.4746 17.6228 18.2319C17.7768 17.9939 17.8491 17.6952 17.8398 17.3359V15.1869H18.0498V9.43992H19.5268V17.3639C19.5268 17.5552 19.5175 17.7372 19.4988 17.9099C19.4848 18.0872 19.4591 18.2599 19.4218 18.4279C19.3098 18.9179 19.0951 19.3192 18.7778 19.6319C18.4605 19.9492 18.0661 20.1849 17.5948 20.3389C17.1281 20.4929 16.6101 20.5699 16.0408 20.5699ZM15.8938 17.2099C15.1985 17.2099 14.5918 17.0349 14.0738 16.6849C13.5558 16.3349 13.1545 15.8589 12.8698 15.2569C12.5851 14.6549 12.4428 13.9759 12.4428 13.2199C12.4428 12.4546 12.5851 11.7732 12.8698 11.1759C13.1591 10.5739 13.5675 10.1002 14.0948 9.75492C14.6221 9.40492 15.2428 9.22992 15.9568 9.22992C16.6755 9.22992 17.2775 9.40492 17.7628 9.75492C18.2528 10.1002 18.6238 10.5739 18.8758 11.1759C19.1278 11.7779 19.2538 12.4592 19.2538 13.2199C19.2538 13.9712 19.1278 14.6502 18.8758 15.2569C18.6238 15.8589 18.2481 16.3349 17.7488 16.6849C17.2495 17.0349 16.6311 17.2099 15.8938 17.2099ZM16.1528 15.6979C16.6055 15.6979 16.9695 15.5952 17.2448 15.3899C17.5248 15.1799 17.7278 14.8882 17.8538 14.5149C17.9845 14.1416 18.0498 13.7099 18.0498 13.2199C18.0498 12.7252 17.9845 12.2936 17.8538 11.9249C17.7278 11.5516 17.5295 11.2622 17.2588 11.0569C16.9881 10.8469 16.6381 10.7419 16.2088 10.7419C15.7561 10.7419 15.3828 10.8539 15.0888 11.0779C14.7948 11.2972 14.5778 11.5959 14.4378 11.9739C14.2978 12.3472 14.2278 12.7626 14.2278 13.2199C14.2278 13.6819 14.2955 14.1019 14.4308 14.4799C14.5708 14.8532 14.7831 15.1496 15.0678 15.3689C15.3525 15.5882 15.7141 15.6979 16.1528 15.6979Z" fill="white"/>
</svg>
