<svg width="24" height="24" viewBox="0 0 24 24" fill="none" xmlns="http://www.w3.org/2000/svg">
<path d="M3.34445 16.9999L6.91445 6.91992H7.91545L11.4855 16.9999H10.6315L7.20145 7.33992H7.60745L4.19845 16.9999H3.34445ZM4.82145 14.4659V13.7029H10.0015V14.4659H4.82145ZM15.6798 20.5699C15.3064 20.5699 14.9331 20.5139 14.5598 20.4019C14.1911 20.2946 13.8458 20.1172 13.5238 19.8699C13.2018 19.6272 12.9288 19.3029 12.7048 18.8969L13.4328 18.4629C13.6614 18.9296 13.9858 19.2632 14.4058 19.4639C14.8258 19.6646 15.2528 19.7649 15.6868 19.7649C16.2981 19.7649 16.7811 19.6506 17.1358 19.4219C17.4951 19.1979 17.7518 18.8596 17.9058 18.4069C18.0598 17.9589 18.1368 17.4012 18.1368 16.7339V14.7529H18.2208V9.43992H18.9558V16.7339C18.9558 16.9579 18.9511 17.1726 18.9418 17.3779C18.9324 17.5832 18.9114 17.7886 18.8788 17.9939C18.7948 18.5772 18.6221 19.0579 18.3608 19.4359C18.0994 19.8186 17.7448 20.1032 17.2968 20.2899C16.8534 20.4766 16.3144 20.5699 15.6798 20.5699ZM15.6448 17.2099C14.9308 17.2099 14.3264 17.0349 13.8318 16.6849C13.3418 16.3302 12.9661 15.8519 12.7048 15.2499C12.4481 14.6432 12.3198 13.9619 12.3198 13.2059C12.3198 12.4592 12.4481 11.7849 12.7048 11.1829C12.9614 10.5809 13.3301 10.1049 13.8108 9.75492C14.2961 9.40492 14.8818 9.22992 15.5678 9.22992C16.2724 9.22992 16.8674 9.40259 17.3528 9.74792C17.8381 10.0932 18.2044 10.5669 18.4518 11.1689C18.6991 11.7662 18.8228 12.4452 18.8228 13.2059C18.8228 13.9619 18.6991 14.6409 18.4518 15.2429C18.2044 15.8449 17.8451 16.3232 17.3738 16.6779C16.9024 17.0326 16.3261 17.2099 15.6448 17.2099ZM15.6938 16.4399C16.2584 16.4399 16.7274 16.2999 17.1008 16.0199C17.4788 15.7352 17.7588 15.3502 17.9408 14.8649C18.1274 14.3749 18.2208 13.8219 18.2208 13.2059C18.2208 12.5852 18.1274 12.0322 17.9408 11.5469C17.7541 11.0616 17.4741 10.6836 17.1008 10.4129C16.7274 10.1376 16.2631 9.99992 15.7078 9.99992C15.1338 9.99992 14.6601 10.1422 14.2868 10.4269C13.9134 10.7069 13.6358 11.0896 13.4538 11.5749C13.2718 12.0556 13.1808 12.5992 13.1808 13.2059C13.1808 13.8172 13.2741 14.3679 13.4608 14.8579C13.6521 15.3432 13.9321 15.7282 14.3008 16.0129C14.6741 16.2976 15.1384 16.4399 15.6938 16.4399Z" fill="white"/>
</svg>
