<svg width="24" height="24" viewBox="0 0 24 24" fill="none" xmlns="http://www.w3.org/2000/svg">
<path d="M8.78008 6.9783L12.0104 16.2208L11.4193 15.966L12.7135 16.2106L12.6421 17.1277H8.38266L8.454 16.1902C8.75291 16.0543 9.14013 15.9389 9.61567 15.8437L9.41187 16.1189L6.68091 7.67123L6.2733 7.02925C6.63336 6.99528 7.02738 6.9749 7.45536 6.96811C7.89014 6.95452 8.33171 6.95792 8.78008 6.9783ZM7.66935 7.03944L4.67345 16.2208L4.43908 15.9355L5.74342 16.2106L5.67209 17.1277H2.43162L2.50295 16.231C2.63202 16.1562 2.80186 16.0883 3.01246 16.0272C3.22305 15.9592 3.45403 15.8981 3.70539 15.8437L3.06341 16.2208L6.2733 7.02925L7.66935 7.03944ZM4.51041 14.4273L4.84668 13.1637H9.74814L10.0946 14.4273H4.51041ZM16.545 14.6311C15.5192 14.6311 14.704 14.3832 14.0993 13.8872C13.4947 13.3845 13.1924 12.712 13.1924 11.8696C13.1924 11.0204 13.4947 10.3445 14.0993 9.84173C14.7107 9.33901 15.5294 9.08766 16.5552 9.08766C17.0783 9.08766 17.598 9.20654 18.1143 9.44431C18.6306 9.68208 19.0585 10.0082 19.3982 10.4226C19.7447 10.837 19.9179 11.3159 19.9179 11.8594C19.9179 12.7018 19.6122 13.3743 19.0008 13.877C18.3962 14.3798 17.5776 14.6311 16.545 14.6311ZM16.6469 13.5204C17.2923 13.5204 17.6149 13.0211 17.6149 12.0224C17.6149 10.8064 17.2243 10.1984 16.4431 10.1984C15.8113 10.1984 15.4954 10.6977 15.4954 11.6964C15.4954 12.2806 15.5939 12.7324 15.7909 13.0516C15.9879 13.3641 16.2732 13.5204 16.6469 13.5204ZM20.7739 10.5652L18.2365 10.443L16.5552 9.08766C16.8745 9.08766 17.1394 9.10804 17.35 9.1488C17.5606 9.18276 17.7576 9.22013 17.941 9.26089C18.1312 9.30165 18.3452 9.32203 18.583 9.32203C18.7528 9.32203 19.0551 9.31184 19.4899 9.29146C19.9315 9.26429 20.4036 9.22692 20.9064 9.17937L20.7739 10.5652ZM16.3921 20.6943C15.3188 20.6943 14.4628 20.5074 13.8242 20.1338C13.1924 19.767 12.8765 19.2676 12.8765 18.6358C12.8765 17.7663 13.5525 17.1311 14.9044 16.7303L15.5361 17.0768C15.047 17.4572 14.8025 17.8682 14.8025 18.3098C14.8025 18.7038 14.9655 19.0061 15.2916 19.2167C15.6245 19.4273 16.1 19.5326 16.7182 19.5326C17.3704 19.5326 17.8901 19.4137 18.2773 19.1759C18.6713 18.9449 18.8683 18.6324 18.8683 18.2384C18.8683 17.8784 18.6407 17.6984 18.1856 17.6984H15.7196C15.1014 17.6984 14.6224 17.5591 14.2828 17.2806C13.9499 17.0088 13.7834 16.6182 13.7834 16.1087C13.7834 15.2323 14.3269 14.5224 15.4139 13.9789L16.2393 14.1216C15.7366 14.502 15.4852 14.8859 15.4852 15.2731C15.4852 15.6128 15.7128 15.7826 16.1679 15.7826H18.634C19.4152 15.7826 20.013 15.9422 20.4274 16.2615C20.8486 16.574 21.0592 17.0258 21.0592 17.6168C21.0592 18.2079 20.8588 18.7344 20.458 19.1963C20.0572 19.6651 19.5035 20.0319 18.797 20.2968C18.0973 20.5618 17.2956 20.6943 16.3921 20.6943Z" fill="white"/>
</svg>
