<svg width="24" height="24" viewBox="0 0 24 24" fill="none" xmlns="http://www.w3.org/2000/svg">
<path d="M9.59594 14.424H6.06794L5.17194 17H3.25394L6.92194 7.354H8.74194L12.4239 17H10.4919L9.59594 14.424ZM9.11994 13.08L7.83194 9.356L6.52994 13.08H9.11994ZM20.8199 10.63L19.3359 10.462C19.5319 10.8073 19.6299 11.1947 19.6299 11.624C19.6299 12.0907 19.5132 12.52 19.2799 12.912C19.0559 13.304 18.7106 13.6213 18.2439 13.864C17.7866 14.0973 17.2312 14.214 16.5779 14.214C16.2699 14.214 15.9899 14.186 15.7379 14.13C15.3832 14.4567 15.2059 14.7367 15.2059 14.97C15.2059 15.1473 15.2666 15.278 15.3879 15.362C15.5186 15.4367 15.7239 15.474 16.0039 15.474H18.2439C19.0092 15.474 19.6066 15.6467 20.0359 15.992C20.4746 16.328 20.6939 16.7853 20.6939 17.364C20.6939 17.9333 20.4979 18.4513 20.1059 18.918C19.7139 19.394 19.1772 19.7673 18.4959 20.038C17.8146 20.318 17.0586 20.458 16.2279 20.458C15.0986 20.458 14.2772 20.2573 13.7639 19.856C13.2599 19.4547 13.0079 18.9693 13.0079 18.4C13.0079 18.0453 13.1059 17.7233 13.3019 17.434C13.4979 17.1447 13.7919 16.8553 14.1839 16.566C13.9132 16.4353 13.7126 16.2673 13.5819 16.062C13.4606 15.8473 13.3999 15.6233 13.3999 15.39C13.3999 15.11 13.4979 14.8347 13.6939 14.564C13.8899 14.2933 14.1979 14.004 14.6179 13.696C14.2632 13.4627 13.9926 13.1687 13.8059 12.814C13.6192 12.45 13.5259 12.0627 13.5259 11.652C13.5259 11.1853 13.6379 10.7607 13.8619 10.378C14.0952 9.986 14.4406 9.67333 14.8979 9.44C15.3552 9.19733 15.9152 9.076 16.5779 9.076C17.0912 9.076 17.5346 9.146 17.9079 9.286H20.8199V10.63ZM16.5779 12.954C16.9606 12.954 17.2639 12.8373 17.4879 12.604C17.7212 12.3613 17.8379 12.0393 17.8379 11.638C17.8379 11.2367 17.7259 10.9193 17.5019 10.686C17.2779 10.4527 16.9699 10.336 16.5779 10.336C16.1859 10.336 15.8732 10.4527 15.6399 10.686C15.4159 10.9193 15.3039 11.2367 15.3039 11.638C15.3039 12.0393 15.4206 12.3613 15.6539 12.604C15.8872 12.8373 16.1952 12.954 16.5779 12.954ZM18.9439 17.63C18.9439 17.1167 18.5799 16.86 17.8519 16.86H15.7379H15.5419C15.0192 17.336 14.7579 17.8073 14.7579 18.274C14.7579 18.8247 15.2479 19.1 16.2279 19.1C16.7319 19.1 17.1892 19.0253 17.5999 18.876C18.0199 18.736 18.3466 18.5493 18.5799 18.316C18.8226 18.092 18.9439 17.8633 18.9439 17.63Z" fill="white"/>
</svg>
