<svg width="24" height="24" viewBox="0 0 24 24" fill="none" xmlns="http://www.w3.org/2000/svg">
<path d="M11.7412 17L10.5312 13.7188H5.95117L4.74805 17H3.91406L7.91309 6.41113H8.6377L12.5889 17H11.7412ZM8.26172 7.36133H8.22754C8.14551 7.68034 8.06576 7.9401 7.98828 8.14062L6.21777 13.0283H10.2783L8.49414 8.1543L8.26172 7.36133ZM20.2998 16.4395C20.2998 17.8477 19.9899 18.8844 19.3701 19.5498C18.7549 20.2152 17.7865 20.5479 16.4648 20.5479C15.7266 20.5479 14.9723 20.3564 14.2021 19.9736V19.2422C15.0133 19.6888 15.7744 19.9121 16.4854 19.9121C18.5544 19.9121 19.5889 18.8161 19.5889 16.624V15.6465H19.5615C18.9554 16.6719 18.0485 17.1846 16.8408 17.1846C16.2165 17.1846 15.6628 17.0296 15.1797 16.7197C14.7012 16.4098 14.332 15.9678 14.0723 15.3936C13.8125 14.8148 13.6826 14.138 13.6826 13.3633C13.6826 12.5658 13.8262 11.8548 14.1133 11.2305C14.4049 10.6016 14.8151 10.1162 15.3438 9.77441C15.8724 9.42806 16.474 9.25488 17.1484 9.25488C18.2513 9.25488 19.0557 9.71289 19.5615 10.6289H19.5889V9.43945H20.2998V16.4395ZM19.5889 12.3516C19.5889 11.9049 19.4863 11.4925 19.2812 11.1143C19.0762 10.736 18.7868 10.4398 18.4131 10.2256C18.0394 10.0068 17.6247 9.89746 17.1689 9.89746C16.3441 9.89746 15.6787 10.2096 15.1729 10.834C14.6715 11.4538 14.4209 12.2764 14.4209 13.3018C14.4209 14.2952 14.6442 15.0837 15.0908 15.667C15.542 16.2503 16.1618 16.542 16.9502 16.542C17.734 16.542 18.3698 16.2845 18.8574 15.7695C19.3451 15.2546 19.5889 14.6074 19.5889 13.8281V12.3516Z" fill="white"/>
</svg>
