<svg width="24" height="24" viewBox="0 0 24 24" fill="none" xmlns="http://www.w3.org/2000/svg">
<path d="M13.4355 16.2174L13.4135 16.6922C13.1632 16.6922 12.7472 16.6885 12.1656 16.6812C11.5841 16.6738 11.1681 16.6701 10.9178 16.6701C10.6896 16.6701 10.3031 16.6738 9.75834 16.6812C9.21357 16.6885 8.82707 16.6922 8.59886 16.6922L8.56573 16.2395C9.29455 16.1732 9.65895 15.9744 9.65895 15.6432C9.65895 15.4591 9.6111 15.2456 9.5154 15.0027L8.69824 12.9487H5.57317L4.80018 14.8923C4.67503 15.2088 4.61246 15.4407 4.61246 15.5879C4.61246 15.956 5.01367 16.1658 5.81611 16.2174L5.79402 16.6922C5.58053 16.6922 5.24557 16.6885 4.78914 16.6812C4.34007 16.6738 4.00879 16.6701 3.7953 16.6701C3.60389 16.6701 3.32046 16.6738 2.94501 16.6812C2.56956 16.6885 2.28981 16.6922 2.10577 16.6922L2.07264 16.2395C2.69103 16.1953 3.13274 16.0223 3.39776 15.7205C3.55236 15.5438 3.76953 15.1131 4.04928 14.4285L7.05288 7.02982C7.16331 6.7648 7.24061 6.56971 7.28478 6.44456L7.48355 5.91451L8.25654 5.82617C8.33015 6.13537 8.41849 6.45929 8.52156 6.79793C8.58045 6.98933 8.66879 7.25804 8.78658 7.60404L11.6356 14.6824C11.8859 15.3008 12.092 15.691 12.254 15.853C12.4675 16.0517 12.8613 16.1732 13.4355 16.2174ZM8.378 12.1316L7.13018 9.00646L5.8934 12.1316H8.378ZM21.9053 10.5856L21.839 11.3807H20.3703C20.6133 11.7267 20.7347 12.1242 20.7347 12.5733C20.7347 13.3757 20.4329 14.0199 19.8293 14.5058C19.2329 14.9916 18.4784 15.2346 17.5655 15.2346C17.2269 15.2346 16.9287 15.2051 16.671 15.1462C16.4649 15.3008 16.3619 15.4849 16.3619 15.6984C16.3619 15.9855 16.6453 16.129 17.2121 16.129C17.4109 16.129 17.7127 16.1253 18.1176 16.118C18.5225 16.1033 18.8244 16.0959 19.0231 16.0959C20.8489 16.0959 21.7617 16.7621 21.7617 18.0946C21.7617 19.1179 21.2354 19.9019 20.1826 20.4467C19.3434 20.8811 18.3679 21.0982 17.2563 21.0982C16.4539 21.0982 15.7692 20.9841 15.2024 20.7559C14.4736 20.4688 14.1091 20.0345 14.1091 19.4529C14.1091 18.6284 14.6797 18.0247 15.8208 17.6419C15.0183 17.4284 14.6171 17.0124 14.6171 16.3941C14.6171 15.9008 15.0515 15.3965 15.9201 14.8812C15.5447 14.7193 15.2281 14.4579 14.9705 14.0972C14.6834 13.6996 14.5398 13.2653 14.5398 12.7941C14.5398 12.0138 14.8269 11.3844 15.4011 10.9059C15.9827 10.42 16.7263 10.177 17.6318 10.177C18.3238 10.177 18.9238 10.2911 19.4317 10.5194C19.5937 10.593 19.7704 10.6298 19.9618 10.6298C19.9765 10.6298 20.0354 10.6261 20.1384 10.6187L21.828 10.4973L21.9053 10.5856ZM18.7471 12.9046C18.7471 11.469 18.3422 10.7513 17.5324 10.7513C16.8625 10.7513 16.5275 11.3328 16.5275 12.496C16.5275 13.0334 16.6122 13.5046 16.7815 13.9095C17.0023 14.4174 17.3226 14.6714 17.7422 14.6714C18.4121 14.6714 18.7471 14.0825 18.7471 12.9046ZM20.0832 18.7903C20.0832 18.1425 19.3655 17.8186 17.9299 17.8186H17.2232C16.9655 17.8186 16.7152 17.9032 16.4723 18.0725C16.1263 18.3155 15.9533 18.6284 15.9533 19.0112C15.9533 19.74 16.6306 20.1044 17.9851 20.1044C18.5152 20.1044 18.9826 20.0013 19.3875 19.7952C19.8513 19.5449 20.0832 19.2099 20.0832 18.7903Z" fill="white"/>
</svg>
