<svg width="24" height="24" viewBox="0 0 24 24" fill="none" xmlns="http://www.w3.org/2000/svg">
<path d="M9.59603 13.5363H5.58561L4.87923 15.1655C4.71213 15.5681 4.62858 15.8681 4.62858 16.0656C4.62858 16.1491 4.63997 16.2251 4.66276 16.2934C4.69314 16.3618 4.75011 16.4263 4.83366 16.4871C4.9248 16.5403 5.04633 16.5896 5.19824 16.6352C5.35775 16.6732 5.56662 16.6998 5.82487 16.715V16.9998H2.56641V16.715C2.82465 16.677 3.03353 16.62 3.19303 16.5441C3.35254 16.4681 3.48926 16.3656 3.60319 16.2365C3.71712 16.0997 3.81966 15.925 3.91081 15.7124C4.00955 15.4997 4.12728 15.2376 4.264 14.9262L7.90983 6.41553H8.17188L11.7721 15.0174C11.9164 15.3744 12.0494 15.663 12.1709 15.8833C12.3 16.0959 12.4291 16.263 12.5583 16.3846C12.695 16.5061 12.8393 16.5896 12.9912 16.6352C13.1507 16.6808 13.3406 16.7074 13.5609 16.715V16.9998H9.4707V16.715C9.88086 16.6998 10.1581 16.6352 10.3024 16.5213C10.4543 16.3998 10.5303 16.2554 10.5303 16.0883C10.5227 15.8681 10.4201 15.5111 10.2227 15.0174L9.59603 13.5363ZM9.37956 12.9666L7.625 8.78532L5.82487 12.9666H9.37956ZM16.1016 14.4477C15.6686 14.235 15.3382 13.9464 15.1104 13.5818C14.8825 13.2097 14.7686 12.7957 14.7686 12.34C14.7686 11.9906 14.8369 11.664 14.9736 11.3602C15.1179 11.0487 15.3116 10.7791 15.5547 10.5512C15.8053 10.3158 16.1016 10.1335 16.4434 10.0044C16.7852 9.86768 17.1573 9.79932 17.5599 9.79932C18.2283 9.79932 18.8056 9.96262 19.2917 10.2892H20.7728C20.8867 10.2892 20.9741 10.293 21.0348 10.3006C21.0956 10.3006 21.1374 10.3044 21.1602 10.312C21.1905 10.312 21.2057 10.3196 21.2057 10.3348C21.2133 10.3424 21.2209 10.3538 21.2285 10.3689C21.2513 10.4069 21.2627 10.4563 21.2627 10.5171C21.2703 10.5778 21.2741 10.65 21.2741 10.7335C21.2741 10.8399 21.2475 10.9082 21.1943 10.9386C21.1488 10.9614 21.0082 10.9728 20.7728 10.9728H19.8613C20.15 11.3526 20.2943 11.8235 20.2943 12.3855C20.2943 12.7046 20.2297 13.0084 20.1006 13.297C19.9715 13.578 19.7854 13.8287 19.5423 14.049C19.3069 14.2616 19.0182 14.4325 18.6764 14.5616C18.3346 14.6832 17.9549 14.7439 17.5371 14.7439C17.3624 14.7439 17.1839 14.7325 17.0016 14.7098C16.8269 14.687 16.6522 14.649 16.4775 14.5958C16.2497 14.7933 16.0978 14.9642 16.0218 15.1085C15.9459 15.2452 15.9079 15.3668 15.9079 15.4731C15.9079 15.5567 15.9231 15.625 15.9535 15.6782C15.9838 15.7314 16.056 15.7769 16.1699 15.8149C16.2839 15.8529 16.451 15.8833 16.6712 15.9061C16.8991 15.9288 17.2067 15.944 17.5941 15.9516C18.1182 15.9668 18.5473 15.9858 18.8815 16.0086C19.2233 16.0314 19.474 16.0504 19.6335 16.0656C20.112 16.1263 20.488 16.301 20.7614 16.5896C21.0424 16.8707 21.1829 17.2201 21.1829 17.6378C21.1829 18.0176 21.0728 18.3708 20.8525 18.6974C20.6399 19.0316 20.3512 19.3202 19.9867 19.5633C19.6221 19.8139 19.2043 20.0114 18.7334 20.1557C18.2625 20.3 17.7764 20.3722 17.2751 20.3722C16.9257 20.3722 16.5687 20.3342 16.2041 20.2583C15.8395 20.1823 15.5091 20.0798 15.2129 19.9506C14.9167 19.8215 14.6736 19.6658 14.4837 19.4835C14.3014 19.3088 14.2103 19.1189 14.2103 18.9139C14.2103 18.7999 14.2217 18.6936 14.2445 18.5949C14.2748 18.4961 14.3356 18.3784 14.4268 18.2417C14.5255 18.1049 14.666 17.934 14.8483 17.729C15.0382 17.5315 15.2888 17.2694 15.6003 16.9428C15.3344 16.7833 15.1483 16.6428 15.042 16.5213C14.9357 16.3922 14.8825 16.2478 14.8825 16.0883C14.8825 15.9972 14.8939 15.9023 14.9167 15.8035C14.947 15.7048 15.004 15.5946 15.0876 15.4731C15.1711 15.344 15.2926 15.1959 15.4521 15.0288C15.6192 14.8617 15.8357 14.668 16.1016 14.4477ZM16.0218 16.9998C15.5433 17.5239 15.304 17.972 15.304 18.3442C15.304 18.5189 15.3724 18.6746 15.5091 18.8113C15.6534 18.948 15.8433 19.062 16.0788 19.1531C16.3218 19.2519 16.6029 19.3278 16.9219 19.381C17.2409 19.4342 17.5827 19.4607 17.9473 19.4607C18.4106 19.4607 18.8094 19.4152 19.1436 19.324C19.4778 19.2329 19.755 19.1113 19.9753 18.9594C20.1955 18.8151 20.3588 18.6518 20.4652 18.4695C20.5715 18.2948 20.6247 18.1163 20.6247 17.934C20.6247 17.8049 20.5981 17.6948 20.5449 17.6036C20.4918 17.5125 20.3892 17.4365 20.2373 17.3758C20.093 17.315 19.8917 17.2694 19.6335 17.2391C19.3828 17.2087 19.06 17.1859 18.665 17.1707C17.5333 17.1479 16.6522 17.0909 16.0218 16.9998ZM17.4346 10.1639C17.0624 10.1639 16.7472 10.3158 16.4889 10.6196C16.2307 10.9158 16.1016 11.3753 16.1016 11.9982C16.1016 12.34 16.1357 12.659 16.2041 12.9552C16.2725 13.2438 16.3712 13.4945 16.5003 13.7072C16.637 13.9198 16.7965 14.0869 16.9788 14.2085C17.1687 14.3224 17.3852 14.3794 17.6283 14.3794C18.0156 14.3794 18.3346 14.235 18.5853 13.9464C18.8359 13.6578 18.9613 13.1983 18.9613 12.5678C18.9613 12.226 18.9271 11.9108 18.8587 11.6222C18.7904 11.326 18.6916 11.0715 18.5625 10.8588C18.4334 10.6386 18.2739 10.4677 18.084 10.3462C17.8941 10.2246 17.6776 10.1639 17.4346 10.1639Z" fill="white"/>
</svg>
