<svg width="24" height="24" viewBox="0 0 24 24" fill="none" xmlns="http://www.w3.org/2000/svg">
<path d="M9.697 12.6819L8.409 9.12591L7.121 12.6819H9.697ZM9.767 12.8499H7.051L6.617 14.0819C6.505 14.3899 6.449 14.6559 6.449 14.8799C6.449 15.2252 6.57967 15.4726 6.841 15.6219C7.10233 15.7712 7.471 15.8459 7.947 15.8459V15.9999H4.405V15.8459C5.049 15.8459 5.54833 15.6032 5.903 15.1179C6.099 14.8472 6.351 14.2872 6.659 13.4379L9.025 6.85791H9.319L12.329 15.0619C12.469 15.4446 12.609 15.6732 12.749 15.7479C12.889 15.8132 13.309 15.8459 14.009 15.8459V15.9999H8.857V15.8459C9.557 15.8459 10.0377 15.8226 10.299 15.7759C10.5603 15.7199 10.691 15.6126 10.691 15.4539L10.663 15.3139L9.767 12.8499ZM15.4153 13.6199C15.1167 13.4706 14.8833 13.2746 14.7153 13.0319C14.5473 12.7892 14.4633 12.4906 14.4633 12.1359C14.4633 11.5386 14.734 11.0299 15.2753 10.6099C15.77 10.2272 16.316 10.0359 16.9133 10.0359C17.0907 10.0359 17.2773 10.0592 17.4733 10.1059C17.6693 10.1526 17.8513 10.2132 18.0193 10.2879V9.95191C18.0193 9.51324 18.094 9.22858 18.2433 9.09791C18.402 8.95791 18.64 8.88791 18.9573 8.88791C19.0973 8.88791 19.2187 8.93458 19.3213 9.02791C19.424 9.12124 19.4753 9.24258 19.4753 9.39191C19.4753 9.71858 19.3213 9.88191 19.0133 9.88191C18.696 9.88191 18.5373 9.73258 18.5373 9.43391C18.5373 9.37791 18.5467 9.32658 18.5653 9.27991C18.584 9.23324 18.6073 9.18658 18.6353 9.13991C18.4487 9.16791 18.3227 9.25191 18.2573 9.39191C18.2013 9.52258 18.1733 9.70458 18.1733 9.93791C18.1827 10.1339 18.1873 10.2786 18.1873 10.3719C18.5513 10.5492 18.836 10.7826 19.0413 11.0719C19.256 11.3612 19.3633 11.6972 19.3633 12.0799C19.3633 12.6492 19.0927 13.1159 18.5513 13.4799C18.066 13.8066 17.52 13.9699 16.9133 13.9699C16.484 13.9699 16.078 13.8952 15.6953 13.7459C15.3687 13.7459 15.1027 13.7972 14.8973 13.8999C14.6267 14.0399 14.4913 14.2686 14.4913 14.5859C14.4913 14.7259 14.608 14.8332 14.8413 14.9079C15.0653 14.9919 15.504 15.0339 16.1573 15.0339H16.9693C17.8 15.0339 18.43 15.1459 18.8593 15.3699C19.4007 15.6499 19.6713 16.1166 19.6713 16.7699C19.6713 17.4606 19.424 17.9926 18.9293 18.3659C18.444 18.7392 17.8047 18.9259 17.0113 18.9259C16.0687 18.9259 15.3173 18.7672 14.7573 18.4499C14.1973 18.1419 13.9173 17.7872 13.9173 17.3859C13.9173 17.1246 14.0713 16.9052 14.3793 16.7279C14.594 16.6066 14.93 16.4806 15.3873 16.3499C14.9767 16.2006 14.6733 16.0419 14.4773 15.8739C14.2067 15.6406 14.0713 15.3372 14.0713 14.9639C14.0713 14.5719 14.188 14.2499 14.4213 13.9979C14.6547 13.7459 14.986 13.6199 15.4153 13.6199ZM18.1173 12.0099C18.1173 11.4219 18.038 10.9832 17.8793 10.6939C17.6927 10.3486 17.3707 10.1759 16.9133 10.1759C16.4933 10.1759 16.1853 10.3392 15.9893 10.6659C15.8027 10.9926 15.7093 11.4406 15.7093 12.0099C15.7093 12.6632 15.7887 13.1299 15.9473 13.4099C16.1153 13.6899 16.4373 13.8299 16.9133 13.8299C17.3427 13.8299 17.6507 13.6852 17.8373 13.3959C18.024 13.0972 18.1173 12.6352 18.1173 12.0099ZM17.0953 18.7999C17.73 18.7999 18.22 18.6692 18.5653 18.4079C18.92 18.1466 19.0973 17.8292 19.0973 17.4559C19.0973 17.0079 18.9527 16.7046 18.6633 16.5459C18.3833 16.3872 17.8607 16.3079 17.0953 16.3079C16.218 16.3079 15.616 16.4059 15.2893 16.6019C15.0093 16.7699 14.8693 17.0592 14.8693 17.4699C14.8693 17.8619 14.9813 18.1559 15.2053 18.3519C15.5507 18.6506 16.1807 18.7999 17.0953 18.7999Z" fill="white"/>
</svg>
