<svg width="24" height="24" viewBox="0 0 24 24" fill="none" xmlns="http://www.w3.org/2000/svg">
<path d="M9.84668 12.8965H6.25781L5.62891 14.3594C5.47396 14.7148 5.39648 14.9837 5.39648 15.166C5.39648 15.2389 5.40788 15.3073 5.43066 15.3711C5.45801 15.4303 5.51042 15.4873 5.58789 15.542C5.66536 15.5921 5.77474 15.6354 5.91602 15.6719C6.05729 15.7038 6.24186 15.7288 6.46973 15.7471V16H3.55078V15.7471C3.93359 15.6787 4.18424 15.5898 4.30273 15.4805C4.42122 15.3711 4.54199 15.207 4.66504 14.9883C4.79264 14.765 4.92936 14.4847 5.0752 14.1475L8.33594 6.51855H8.5752L11.8018 14.2295C11.9339 14.5485 12.0547 14.806 12.1641 15.002C12.278 15.1934 12.3942 15.3438 12.5127 15.4531C12.6312 15.5579 12.7588 15.6309 12.8955 15.6719C13.0368 15.7129 13.2031 15.738 13.3945 15.7471V16H9.7373V15.7471C9.9196 15.738 10.0723 15.7174 10.1953 15.6855C10.3184 15.6536 10.4141 15.6126 10.4824 15.5625C10.5553 15.5124 10.6055 15.4554 10.6328 15.3916C10.6647 15.3278 10.6807 15.2572 10.6807 15.1797C10.6852 15.0794 10.6624 14.9518 10.6123 14.7969C10.5667 14.6374 10.4984 14.4482 10.4072 14.2295L9.84668 12.8965ZM9.65527 12.3906L8.08301 8.64454L6.46973 12.3906H9.65527ZM15.6709 13.7168C15.2835 13.5254 14.9873 13.2656 14.7822 12.9375C14.5817 12.6048 14.4814 12.2334 14.4814 11.8232C14.4814 11.5133 14.543 11.2217 14.666 10.9482C14.7891 10.6702 14.9622 10.4287 15.1855 10.2236C15.4089 10.0186 15.6709 9.85678 15.9717 9.73829C16.277 9.61524 16.612 9.55371 16.9766 9.55371C17.5781 9.55371 18.0954 9.69954 18.5283 9.99121H19.8545C19.9548 9.99121 20.0299 9.99349 20.0801 9.99805C20.1348 9.99805 20.1735 10.0026 20.1963 10.0117C20.2236 10.0163 20.2396 10.0231 20.2441 10.0322C20.2487 10.0413 20.2555 10.0527 20.2646 10.0664C20.292 10.1074 20.3057 10.1803 20.3057 10.2852C20.3057 10.3535 20.3034 10.4105 20.2988 10.4561C20.2988 10.4971 20.2852 10.529 20.2578 10.5518C20.235 10.5745 20.1917 10.5905 20.1279 10.5996C20.0687 10.6042 19.9775 10.6064 19.8545 10.6064H19.041C19.2962 10.9391 19.4238 11.3584 19.4238 11.8643C19.4238 12.1514 19.3646 12.4248 19.2461 12.6846C19.1322 12.9398 18.9681 13.1631 18.7539 13.3545C18.5397 13.5459 18.2799 13.6986 17.9746 13.8125C17.6693 13.9264 17.3298 13.9834 16.9561 13.9834C16.6507 13.9834 16.334 13.9378 16.0059 13.8467C15.8008 14.0199 15.6641 14.1725 15.5957 14.3047C15.5273 14.4323 15.4932 14.5417 15.4932 14.6328C15.4932 14.7012 15.5068 14.7604 15.5342 14.8105C15.5615 14.8607 15.6253 14.904 15.7256 14.9404C15.8304 14.9723 15.9831 14.9997 16.1836 15.0225C16.3841 15.0407 16.6576 15.0544 17.0039 15.0635C17.4733 15.0771 17.8584 15.0908 18.1592 15.1045C18.4645 15.1182 18.6878 15.1364 18.8291 15.1592C19.0387 15.1865 19.2301 15.2412 19.4033 15.3232C19.5765 15.4053 19.7223 15.5078 19.8408 15.6309C19.9639 15.7539 20.0573 15.8952 20.1211 16.0547C20.1895 16.2142 20.2236 16.3874 20.2236 16.5742C20.2236 17.0892 19.9821 17.5723 19.499 18.0234C18.7835 18.6888 17.8561 19.0215 16.7168 19.0215C16.4023 19.0215 16.0833 18.9873 15.7598 18.9189C15.4362 18.8506 15.1423 18.7572 14.8779 18.6387C14.6136 18.5247 14.3971 18.388 14.2285 18.2285C14.0599 18.069 13.9756 17.8981 13.9756 17.7158C13.9756 17.6475 13.9847 17.5768 14.0029 17.5039C14.0257 17.4355 14.0576 17.3604 14.0986 17.2783C14.1442 17.2008 14.2012 17.1143 14.2695 17.0186C14.3424 16.9229 14.429 16.8112 14.5293 16.6836C14.5612 16.6426 14.7936 16.3965 15.2266 15.9453C14.9896 15.804 14.821 15.6787 14.7207 15.5693C14.625 15.4554 14.5771 15.3278 14.5771 15.1865C14.5771 15.1045 14.5885 15.0202 14.6113 14.9336C14.6341 14.8424 14.6842 14.7399 14.7617 14.626C14.8392 14.512 14.9486 14.3822 15.0898 14.2363C15.2357 14.0905 15.4294 13.9173 15.6709 13.7168ZM16.8604 9.88184C16.6963 9.88184 16.5413 9.91602 16.3955 9.98438C16.2497 10.0482 16.1221 10.1484 16.0127 10.2852C15.9079 10.4173 15.8236 10.5882 15.7598 10.7979C15.7005 11.0029 15.6709 11.2445 15.6709 11.5225C15.6709 11.8324 15.7005 12.1172 15.7598 12.377C15.8236 12.6367 15.9147 12.8623 16.0332 13.0537C16.1517 13.2406 16.2952 13.3864 16.4639 13.4912C16.6325 13.596 16.8239 13.6484 17.0381 13.6484C17.2113 13.6484 17.3708 13.6165 17.5166 13.5527C17.6624 13.4889 17.7878 13.391 17.8926 13.2588C17.9974 13.1266 18.0794 12.9603 18.1387 12.7598C18.1979 12.5547 18.2275 12.3132 18.2275 12.0352C18.2275 11.7298 18.1956 11.4473 18.1318 11.1875C18.0726 10.9232 17.9837 10.6953 17.8652 10.5039C17.7513 10.3079 17.61 10.1553 17.4414 10.0459C17.2728 9.93653 17.0791 9.88184 16.8604 9.88184ZM15.6025 16C15.1696 16.4694 14.9531 16.8704 14.9531 17.2031C14.9531 17.3535 15.0146 17.4902 15.1377 17.6133C15.2653 17.7363 15.4362 17.8411 15.6504 17.9277C15.8646 18.0143 16.1152 18.0804 16.4023 18.126C16.694 18.1761 17.0016 18.2012 17.3252 18.2012C17.7354 18.2012 18.0908 18.1602 18.3916 18.0781C18.6969 17.9961 18.9476 17.889 19.1436 17.7568C19.3395 17.6292 19.4854 17.4834 19.5811 17.3193C19.6768 17.1598 19.7246 17.0003 19.7246 16.8408C19.7246 16.7223 19.6995 16.6221 19.6494 16.54C19.5993 16.458 19.5081 16.3896 19.376 16.335C19.2484 16.2848 19.0706 16.2438 18.8428 16.2119C18.6149 16.1846 18.3232 16.1663 17.9678 16.1572C17.4528 16.1436 16.9993 16.123 16.6074 16.0957C16.2155 16.0684 15.8805 16.0365 15.6025 16Z" fill="white"/>
</svg>
