<svg width="24" height="24" viewBox="0 0 24 24" fill="none" xmlns="http://www.w3.org/2000/svg">
<path d="M13.326 15.5598C13.39 15.1918 13.558 14.7838 13.83 14.3358C14.158 14.4398 14.466 14.5718 14.754 14.7318C14.498 14.8678 14.022 15.1438 13.326 15.5598ZM16.014 16.4838C16.014 16.6198 15.986 16.7838 15.93 16.9758C15.49 17.0958 15.114 17.1558 14.802 17.1558C13.93 17.1558 13.438 16.7838 13.326 16.0398C13.606 15.8718 14.19 15.5038 15.078 14.9358C15.702 15.3838 16.014 15.8998 16.014 16.4838ZM7.18203 16.2558C7.18203 15.7438 7.59003 15.2478 8.40603 14.7678C9.23003 14.2798 10.242 14.0278 11.442 14.0118C9.81803 15.3078 8.46203 16.2238 7.37403 16.7598C7.24603 16.6238 7.18203 16.4558 7.18203 16.2558ZM11.946 13.8678L14.226 11.9358C14.242 11.9278 14.542 11.6758 15.126 11.1798C15.718 10.6758 16.17 10.3038 16.482 10.0638C16.794 9.8158 17.226 9.5158 17.778 9.1638C18.33 8.8038 18.814 8.5478 19.23 8.3958C19.302 8.3718 19.35 8.3598 19.374 8.3598H19.41C19.418 8.3598 19.418 8.3638 19.41 8.3718C19.29 8.4678 18.926 8.7438 18.318 9.1998C17.718 9.6558 17.254 10.0198 16.926 10.2918C16.606 10.5638 16.198 10.9278 15.702 11.3838C14.742 12.2478 14.03 13.1318 13.566 14.0358C13.062 13.9318 12.522 13.8758 11.946 13.8678ZM16.326 16.3278C16.326 15.6958 16.014 15.1678 15.39 14.7438C16.166 14.2878 16.79 14.0598 17.262 14.0598C18.15 14.0598 18.594 14.3118 18.594 14.8158C18.594 15.1678 18.358 15.5398 17.886 15.9318C17.422 16.3238 16.874 16.6358 16.242 16.8678C16.298 16.6998 16.326 16.5198 16.326 16.3278ZM11.766 14.0118C12.406 14.0358 12.97 14.1118 13.458 14.2398C13.234 14.7438 13.11 15.2318 13.086 15.7038C12.262 16.1998 11.538 16.5798 10.914 16.8438C10.298 17.0998 9.66203 17.2278 9.00603 17.2278C8.35003 17.2278 7.85803 17.1158 7.53003 16.8918C8.73803 16.3158 10.15 15.3558 11.766 14.0118ZM9.75003 10.7478L9.76203 10.9518H9.93003C10.65 10.9518 11.342 10.8518 12.006 10.6518C12.678 10.4438 13.234 10.1878 13.674 9.8838C14.114 9.5798 14.462 9.2598 14.718 8.9238C14.982 8.5798 15.114 8.2718 15.114 7.9998C15.114 7.7278 14.998 7.5158 14.766 7.3638C14.542 7.2038 14.206 7.1238 13.758 7.1238C13.078 7.1238 12.422 7.3238 11.79 7.7238C11.158 8.1238 10.658 8.6038 10.29 9.1638C9.93003 9.7238 9.75003 10.2518 9.75003 10.7478ZM11.706 5.2998L11.742 5.4438C10.494 5.6198 9.45003 6.0958 8.61003 6.8718C7.77803 7.6398 7.36203 8.4158 7.36203 9.1998C7.36203 9.6638 7.53003 10.0518 7.86603 10.3638C8.20203 10.6678 8.70603 10.8558 9.37803 10.9278C9.36203 10.7838 9.35403 10.6718 9.35403 10.5918C9.35403 10.1918 9.46603 9.7798 9.69003 9.3558C9.91403 8.9238 10.218 8.5278 10.602 8.1678C10.986 7.7998 11.466 7.4998 12.042 7.2678C12.618 7.0278 13.186 6.9078 13.746 6.9078C14.314 6.9078 14.718 6.9998 14.958 7.1838C15.206 7.3598 15.33 7.6038 15.33 7.9158C15.33 8.2278 15.198 8.5678 14.934 8.9358C14.67 9.2958 14.31 9.6398 13.854 9.9678C13.398 10.2958 12.814 10.5678 12.102 10.7838C11.398 10.9998 10.65 11.1078 9.85803 11.1078H9.78603C9.96203 11.7878 10.55 12.1278 11.55 12.1278C12.062 12.1278 12.674 11.9758 13.386 11.6718C14.098 11.3678 14.83 10.9038 15.582 10.2798L15.654 10.3758C15.414 10.5838 15.11 10.8158 14.742 11.0718C14.374 11.3198 13.87 11.5798 13.23 11.8518C12.59 12.1238 12.01 12.2598 11.49 12.2598C10.338 12.2598 9.65003 11.8718 9.42603 11.0958C8.68203 11.0398 8.11803 10.8438 7.73403 10.5078C7.35803 10.1718 7.17003 9.7518 7.17003 9.2478C7.17003 8.4398 7.59403 7.6358 8.44203 6.8358C9.29803 6.0358 10.386 5.5238 11.706 5.2998ZM4.86603 15.4758V15.6078C5.43403 15.5518 5.93803 15.3398 6.37803 14.9718C6.82603 14.5958 7.05003 14.2238 7.05003 13.8558C7.05003 13.6158 6.93403 13.4238 6.70203 13.2798C6.47803 13.1358 6.13403 13.0638 5.67003 13.0638C4.62203 13.0638 3.76203 13.3718 3.09003 13.9878C2.41803 14.6038 2.08203 15.2718 2.08203 15.9918C2.08203 16.4878 2.26603 16.8958 2.63403 17.2158C3.00203 17.5358 3.54203 17.6958 4.25403 17.6958C5.23003 17.6958 6.27403 17.4478 7.38603 16.9518C7.72203 17.2238 8.23403 17.3598 8.92203 17.3598C10.314 17.3598 11.706 16.9638 13.098 16.1718C13.218 16.9238 13.758 17.2998 14.718 17.2998C15.046 17.2998 15.43 17.2398 15.87 17.1198C15.51 17.9758 14.526 18.6838 12.918 19.2438V19.3638C13.766 19.1398 14.47 18.8198 15.03 18.4038C15.598 17.9878 15.982 17.5318 16.182 17.0358C16.886 16.8038 17.494 16.4758 18.006 16.0518C18.518 15.6198 18.774 15.1918 18.774 14.7678C18.774 14.5038 18.662 14.2958 18.438 14.1438C18.214 13.9838 17.874 13.9038 17.418 13.9038C16.73 13.9038 15.954 14.1198 15.09 14.5518C14.786 14.3918 14.41 14.2478 13.962 14.1198C14.618 13.0958 15.606 11.9718 16.926 10.7478C18.246 9.5238 19.406 8.6278 20.406 8.0598C20.446 8.0278 20.466 7.9918 20.466 7.9518C20.466 7.8718 20.422 7.8318 20.334 7.8318C20.318 7.8318 20.262 7.8398 20.166 7.8558C18.942 8.1038 17.058 9.30781 14.514 11.4678C13.074 12.6758 12.11 13.4758 11.622 13.8678C10.19 13.8758 9.05803 14.1238 8.22603 14.6118C7.40203 15.0918 6.99003 15.6158 6.99003 16.1838C6.99003 16.4238 7.07403 16.6358 7.24203 16.8198C6.25003 17.2838 5.37403 17.5158 4.61403 17.5158C3.86203 17.5158 3.31803 17.3678 2.98203 17.0718C2.64603 16.7758 2.47803 16.3958 2.47803 15.9318C2.47803 15.2678 2.77403 14.6478 3.36603 14.0718C3.96603 13.4958 4.71403 13.2078 5.61003 13.2078C5.99403 13.2078 6.27803 13.2798 6.46203 13.4238C6.65403 13.5598 6.75003 13.7358 6.75003 13.9518C6.75003 14.2798 6.56603 14.6038 6.19803 14.9238C5.83803 15.2358 5.39403 15.4198 4.86603 15.4758Z" fill="white"/>
<path d="M18.9659 16.9759C19.2459 16.9759 19.6259 16.8359 20.1059 16.5559C20.5939 16.2679 21.0139 15.9799 21.3659 15.6919C21.7179 15.3959 21.8939 15.2239 21.8939 15.1759C21.8939 15.1199 21.8339 15.0759 21.7139 15.0439C21.6019 15.0119 21.4899 14.9959 21.3779 14.9959C21.0499 14.9959 20.6779 15.1239 20.2619 15.3799C19.8539 15.6359 19.5139 15.9119 19.2419 16.2079C18.9779 16.5039 18.8459 16.7239 18.8459 16.8679C18.8459 16.9399 18.8859 16.9759 18.9659 16.9759ZM15.3539 20.3239C15.1379 20.4919 14.9819 20.6519 14.8859 20.8039C14.7899 20.9639 14.7419 21.1319 14.7419 21.3079C14.7419 21.4839 14.8299 21.5719 15.0059 21.5719C15.4379 21.5719 16.7059 20.4999 18.8099 18.3559C17.3939 19.0359 16.5179 19.4919 16.1819 19.7239C15.8379 19.9559 15.5619 20.1559 15.3539 20.3239ZM22.1219 15.0079C22.2499 14.8799 22.3339 14.8159 22.3739 14.8159C22.4219 14.8159 22.4899 14.8279 22.5779 14.8519C22.6739 14.8759 22.7219 14.9039 22.7219 14.9359C22.7219 14.9599 22.6899 14.9999 22.6259 15.0559C22.5619 15.1119 21.7259 15.9439 20.1179 17.5519C21.1739 17.0239 22.0619 16.5199 22.7819 16.0399L22.8059 16.2199C22.4459 16.4279 22.1899 16.5839 22.0379 16.6879C21.6059 16.9519 20.8539 17.3519 19.7819 17.8879C18.6219 19.0559 17.6259 19.9879 16.7939 20.6839C15.9539 21.3879 15.3299 21.7399 14.9219 21.7399C14.6899 21.7399 14.5739 21.6079 14.5739 21.3439C14.5739 21.0799 14.6939 20.8079 14.9339 20.5279C15.1739 20.2559 15.5299 19.9759 16.0019 19.6879C16.7459 19.2399 17.7419 18.7119 18.9899 18.1039C19.0459 18.0799 19.0899 18.0599 19.1219 18.0439C19.2579 17.9079 19.4739 17.6799 19.7699 17.3599C20.0739 17.0399 20.2739 16.8319 20.3699 16.7359C20.4659 16.6399 20.5379 16.5679 20.5859 16.5199C20.6899 16.4079 20.7819 16.3159 20.8619 16.2439C19.9739 16.8519 19.2939 17.1599 18.8219 17.1679C18.6379 17.1679 18.5459 17.0599 18.5459 16.8439C18.5459 16.4359 18.8059 15.9999 19.3259 15.5359C19.8539 15.0639 20.5339 14.8279 21.3659 14.8279C21.6459 14.8279 21.8979 14.8879 22.1219 15.0079Z" fill="white"/>
</svg>
