<svg width="24" height="24" viewBox="0 0 24 24" fill="none" xmlns="http://www.w3.org/2000/svg">
<path d="M12.5942 17.0002L10.1162 7.2002H8.73022L2.31822 17.0002H3.83022L5.38422 14.5502H10.6202L11.2082 17.0002H12.5942ZM9.17822 8.6002L10.3402 13.4302H6.09822L9.17822 8.6002ZM20.8338 10.9382C20.3438 9.9582 19.2798 9.5102 18.0618 9.5102C15.5838 9.5102 13.8338 11.3162 13.8338 13.6682C13.8338 15.5442 15.1778 16.6922 17.1378 16.6922C18.2438 16.6922 19.1538 16.3142 19.8258 15.6702L19.7138 16.2022C19.3918 17.8122 18.5098 18.6102 16.7598 18.6102C15.5978 18.6102 14.5898 18.2462 14.0158 17.7142L13.2738 18.7502C14.0718 19.4222 15.2478 19.8002 16.6618 19.8002C19.1258 19.8002 20.5678 18.6802 21.0998 15.9922L22.3738 9.5802H21.0998L20.8338 10.9382ZM17.4038 15.5162C16.0178 15.5162 15.1918 14.7882 15.1918 13.5842C15.1918 11.9042 16.4098 10.6862 18.1038 10.6862C19.5038 10.6862 20.3158 11.4142 20.3158 12.6042C20.3158 14.2982 19.0978 15.5162 17.4038 15.5162Z" fill="white"/>
</svg>
