<svg width="24" height="24" viewBox="0 0 24 24" fill="none" xmlns="http://www.w3.org/2000/svg">
<path d="M7.7302 7.12988C5.3222 7.12988 3.7402 8.55788 3.7402 11.3859V16.9999H4.4542V13.9759H11.0062V16.9999H11.7202V11.3859C11.7202 8.55788 10.1522 7.12988 7.7302 7.12988ZM4.4542 13.3319V11.3159C4.4542 8.94988 5.7002 7.78788 7.7302 7.78788C9.7602 7.78788 11.0062 8.94988 11.0062 11.3159V13.3319H4.4542ZM20.7328 9.69188V11.3439C20.1448 10.2519 19.0108 9.63588 17.6668 9.63588C15.5948 9.63588 14.0268 11.0919 14.0268 13.1779C14.0268 15.2639 15.5948 16.7339 17.6668 16.7339C18.9828 16.7339 20.1028 16.1319 20.7048 15.0679V16.2999C20.7048 18.2459 19.7948 19.1419 17.8488 19.1419C16.6728 19.1419 15.6228 18.7499 14.8948 18.0779L14.5168 18.6099C15.2588 19.3519 16.5328 19.7719 17.8628 19.7719C20.2148 19.7719 21.4048 18.6659 21.4048 16.2159V9.69188H20.7328ZM17.7228 16.1039C16.0008 16.1039 14.7408 14.8999 14.7408 13.1779C14.7408 11.4559 16.0008 10.2659 17.7228 10.2659C19.4588 10.2659 20.7188 11.4559 20.7188 13.1779C20.7188 14.8999 19.4588 16.1039 17.7228 16.1039Z" fill="white"/>
</svg>
