<svg width="24" height="24" viewBox="0 0 24 24" fill="none" xmlns="http://www.w3.org/2000/svg">
<path d="M13.7528 16.3976V16.9996H10.6308L9.65084 14.7736H4.75084L3.77084 16.9996H0.648834V16.3976H2.27284L6.31884 7.21359H8.08284L12.1288 16.3976H13.7528ZM8.97884 13.2476L7.20084 9.21559L5.42284 13.2476H8.97884ZM22.9955 16.3976V16.9996H12.3975V16.3976H15.7855C14.9735 15.9869 14.3248 15.3849 13.8395 14.5916C13.3635 13.7983 13.1255 12.9023 13.1255 11.9036C13.1255 10.4756 13.6201 9.29959 14.6095 8.37559C15.5988 7.44226 16.7981 6.97559 18.2075 6.97559C19.6261 6.97559 20.8021 7.38626 21.7355 8.20759L20.8535 9.46759C20.4708 9.14092 20.0835 8.91692 19.6915 8.79559C19.3088 8.66492 18.8608 8.59959 18.3475 8.59959C17.3488 8.59959 16.5135 8.89826 15.8415 9.49559C15.1788 10.0929 14.8475 10.9096 14.8475 11.9456C14.8475 12.9816 15.1741 13.8169 15.8275 14.4516C16.4808 15.0769 17.2695 15.3896 18.1935 15.3896C19.1268 15.3896 19.9061 15.1889 20.5315 14.7876V12.0996H22.1835V15.4456C21.8381 15.8283 21.4181 16.1456 20.9235 16.3976H22.9955Z" fill="white"/>
</svg>
