<svg width="24" height="24" viewBox="0 0 24 24" fill="none" xmlns="http://www.w3.org/2000/svg">
<path d="M6.66387 12.9403H8.51187L7.60187 9.16027H7.57387L6.66387 12.9403ZM6.15987 15.0403L5.69787 17.0003H2.78587L6.14587 6.78027H9.08587L12.4459 17.0003H9.47787L9.00187 15.0403H6.15987ZM18.0677 15.8803H18.0537C17.5124 16.5336 16.8171 16.8603 15.9677 16.8603C15.1371 16.8603 14.4511 16.5383 13.9097 15.8943C13.3684 15.241 13.0977 14.3496 13.0977 13.2203C13.0977 12.0723 13.3591 11.181 13.8817 10.5463C14.4044 9.90227 15.0997 9.58027 15.9677 9.58027C16.7984 9.58027 17.5171 9.9536 18.1237 10.7003H18.1517L18.2077 9.72027H20.6577V16.1603C20.6577 17.495 20.2891 18.503 19.5517 19.1843C18.8144 19.875 17.7364 20.2203 16.3177 20.2203C15.4217 20.2203 14.5817 20.0803 13.7977 19.8003L14.2177 17.9243C14.8711 18.195 15.5244 18.3303 16.1777 18.3303C16.8591 18.3303 17.3444 18.167 17.6337 17.8403C17.9231 17.523 18.0677 16.963 18.0677 16.1603V15.8803ZM15.6177 13.2203C15.6177 13.7523 15.7251 14.1676 15.9397 14.4663C16.1637 14.7556 16.4531 14.9003 16.8077 14.9003C17.1717 14.9003 17.4611 14.765 17.6757 14.4943C17.8904 14.2143 17.9977 13.813 17.9977 13.2903V13.1503C17.9977 12.637 17.8904 12.2403 17.6757 11.9603C17.4611 11.6803 17.1717 11.5403 16.8077 11.5403C16.4344 11.5403 16.1404 11.685 15.9257 11.9743C15.7204 12.2543 15.6177 12.6696 15.6177 13.2203Z" fill="white"/>
</svg>
