<svg width="24" height="24" viewBox="0 0 24 24" fill="none" xmlns="http://www.w3.org/2000/svg">
<path d="M5.43401 17.0003L8.15001 6.78027H8.85001L11.566 17.0003H11.062L8.52801 7.29827H8.47201L5.93801 17.0003H5.43401ZM6.59601 13.7243V13.2763H10.404V13.7243H6.59601ZM13.26 19.6323C14.632 19.6323 15.654 19.3663 16.326 18.8343C17.0073 18.3023 17.348 17.5043 17.348 16.4403V10.0843L17.53 10.4343C17.2593 10.2943 16.9653 10.1916 16.648 10.1263C16.3307 10.061 15.9807 10.0283 15.598 10.0283C15.01 10.0283 14.548 10.117 14.212 10.2943C13.8853 10.4716 13.652 10.7796 13.512 11.2183C13.372 11.657 13.302 12.259 13.302 13.0243C13.302 13.855 13.372 14.5083 13.512 14.9843C13.6613 15.451 13.904 15.7823 14.24 15.9783C14.5853 16.1743 15.0567 16.2723 15.654 16.2723C16.0087 16.2723 16.3353 16.2443 16.634 16.1883C16.942 16.123 17.2407 16.0343 17.53 15.9223L17.684 16.3423C17.4227 16.4543 17.1287 16.5476 16.802 16.6223C16.4753 16.6876 16.0973 16.7203 15.668 16.7203C14.968 16.7203 14.408 16.6036 13.988 16.3703C13.568 16.137 13.2693 15.7496 13.092 15.2083C12.9147 14.667 12.826 13.939 12.826 13.0243C12.826 12.1563 12.9147 11.475 13.092 10.9803C13.2693 10.4763 13.5633 10.117 13.974 9.90227C14.3847 9.6876 14.9353 9.58027 15.626 9.58027C16.5033 9.58027 17.236 9.7296 17.824 10.0283V16.4263C17.824 17.6303 17.4413 18.5403 16.676 19.1563C15.9107 19.7723 14.772 20.0803 13.26 20.0803V19.6323Z" fill="white"/>
</svg>
