<svg width="24" height="24" viewBox="0 0 24 24" fill="none" xmlns="http://www.w3.org/2000/svg">
<path d="M3.34344 17.0003L6.87144 6.78027H9.51745L13.0455 17.0003H10.8895L8.20145 8.44627H8.17345L5.49944 17.0003H3.34344ZM5.40144 14.6623V12.9543H11.0015V14.6623H5.40144ZM16.9385 20.0803C16.3505 20.0803 15.7905 20.0243 15.2585 19.9123C14.7265 19.8003 14.2832 19.6416 13.9285 19.4363L14.1665 17.9803C14.5119 18.167 14.9132 18.3163 15.3705 18.4283C15.8372 18.5403 16.2945 18.5963 16.7425 18.5963C17.5265 18.5963 18.0819 18.405 18.4085 18.0223C18.7445 17.649 18.9125 17.0283 18.9125 16.1603V15.7823H18.8845C18.5952 16.0996 18.2592 16.3376 17.8765 16.4963C17.4939 16.6456 17.0692 16.7203 16.6025 16.7203C15.6319 16.7203 14.8805 16.4076 14.3485 15.7823C13.8165 15.157 13.5505 14.2796 13.5505 13.1503C13.5505 12.021 13.8165 11.1436 14.3485 10.5183C14.8805 9.89294 15.6319 9.58027 16.6025 9.58027C17.0692 9.58027 17.5032 9.6596 17.9045 9.81827C18.3152 9.97694 18.6652 10.2103 18.9545 10.5183H18.9825L18.9965 9.72027H20.8305V16.1603C20.8305 17.4856 20.5085 18.4703 19.8645 19.1143C19.2299 19.7583 18.2545 20.0803 16.9385 20.0803ZM17.1625 15.1803C17.5079 15.1803 17.8065 15.1196 18.0585 14.9983C18.3199 14.877 18.5252 14.7136 18.6745 14.5083C18.8332 14.2936 18.9125 14.051 18.9125 13.7803V12.5203C18.9125 12.2496 18.8332 12.0116 18.6745 11.8063C18.5252 11.5916 18.3199 11.4236 18.0585 11.3023C17.8065 11.181 17.5079 11.1203 17.1625 11.1203C16.6212 11.1203 16.1965 11.2976 15.8885 11.6523C15.5899 12.007 15.4405 12.5063 15.4405 13.1503C15.4405 13.8036 15.5899 14.3076 15.8885 14.6623C16.1965 15.0076 16.6212 15.1803 17.1625 15.1803Z" fill="white"/>
</svg>
