<svg width="24" height="24" viewBox="0 0 24 24" fill="none" xmlns="http://www.w3.org/2000/svg">
<path d="M3.31092 17.0003L7.41292 6.78027H8.36492L12.4529 17.0003H11.6969L7.90292 7.39627H7.87492L4.08092 17.0003H3.31092ZM4.97692 13.9343V13.2763H10.7869V13.9343H4.97692ZM16.2979 20.0803C15.7566 20.0803 15.2712 20.015 14.8419 19.8843C14.4126 19.7536 14.0112 19.553 13.6379 19.2823L13.8619 18.7223C14.2166 18.9836 14.5806 19.175 14.9539 19.2963C15.3366 19.4176 15.7706 19.4783 16.2559 19.4783C17.2079 19.4783 17.8986 19.231 18.3279 18.7363C18.7666 18.2416 18.9859 17.453 18.9859 16.3703V15.5303H18.9579C18.7246 15.8943 18.3699 16.1836 17.8939 16.3983C17.4272 16.613 16.9046 16.7203 16.3259 16.7203C15.3552 16.7203 14.5946 16.4076 14.0439 15.7823C13.5026 15.1476 13.2319 14.2703 13.2319 13.1503C13.2319 12.0303 13.5026 11.1576 14.0439 10.5323C14.5946 9.8976 15.3552 9.58027 16.3259 9.58027C16.9046 9.58027 17.4272 9.6876 17.8939 9.90227C18.3699 10.117 18.7292 10.4063 18.9719 10.7703H18.9999V9.72027H19.6719V16.3703C19.6719 17.6396 19.3966 18.573 18.8459 19.1703C18.3046 19.777 17.4552 20.0803 16.2979 20.0803ZM16.4379 16.1183C16.9326 16.1183 17.3712 16.025 17.7539 15.8383C18.1366 15.6423 18.4352 15.381 18.6499 15.0543C18.8739 14.7183 18.9859 14.3356 18.9859 13.9063V12.3943C18.9859 11.965 18.8739 11.587 18.6499 11.2603C18.4352 10.9243 18.1366 10.663 17.7539 10.4763C17.3712 10.2803 16.9326 10.1823 16.4379 10.1823C15.6446 10.1823 15.0239 10.4436 14.5759 10.9663C14.1279 11.4796 13.9039 12.2076 13.9039 13.1503C13.9039 14.093 14.1279 14.8256 14.5759 15.3483C15.0239 15.8616 15.6446 16.1183 16.4379 16.1183Z" fill="white"/>
</svg>
