<svg width="24" height="24" viewBox="0 0 24 24" fill="none" xmlns="http://www.w3.org/2000/svg">
<path d="M10.0131 13.8717C10.0224 13.8344 10.0271 13.8064 10.0271 13.7877C10.0271 13.769 10.0178 13.7597 9.9991 13.7597C9.98977 13.7597 9.96177 13.783 9.9151 13.8297C9.87777 13.8764 9.82644 13.9417 9.7611 14.0257C9.69577 14.1097 9.55577 14.2684 9.3411 14.5017C9.13577 14.735 8.9211 14.9544 8.6971 15.1597C8.09044 15.7384 7.48377 16.1817 6.8771 16.4897C6.72777 16.5644 6.56443 16.6017 6.3871 16.6017C5.70577 16.6017 5.3651 16.0884 5.3651 15.0617C5.3651 14.147 5.7991 13.0457 6.6671 11.7577C7.07777 11.1604 7.56777 10.577 8.1371 10.0077C8.71577 9.42906 9.3271 8.91573 9.9711 8.46773C10.6151 8.01973 11.3151 7.6604 12.0711 7.38973C12.8271 7.10973 13.5644 6.96973 14.2831 6.96973C14.4044 6.96973 14.5678 7.01173 14.7731 7.09573C15.1184 7.24506 15.2911 7.40373 15.2911 7.57173C15.2911 7.66506 15.2304 7.7164 15.1091 7.72573C15.0624 7.72573 15.0391 7.7444 15.0391 7.78173C15.0391 7.81906 15.1044 7.89373 15.2351 8.00573C15.3751 8.1084 15.4451 8.21106 15.4451 8.31373C15.4451 8.40706 15.4124 8.49106 15.3471 8.56573C14.8804 9.07906 14.5071 9.5084 14.2271 9.85373C13.9471 10.1897 13.7324 10.4417 13.5831 10.6097C13.4431 10.7777 13.2798 10.9737 13.0931 11.1977C12.9158 11.4124 12.7151 11.6877 12.4911 12.0237C12.2671 12.3504 12.0618 12.677 11.8751 13.0037C11.4458 13.797 11.2311 14.525 11.2311 15.1877C11.2311 15.841 11.2918 16.4617 11.4131 17.0497C11.5344 17.647 11.6604 18.011 11.7911 18.1417C11.7911 18.1697 11.7584 18.1837 11.6931 18.1837C11.2638 18.1837 10.8951 18.0157 10.5871 17.6797C10.0271 17.0544 9.7471 16.233 9.7471 15.2157C9.7471 14.8517 9.83577 14.4037 10.0131 13.8717ZM11.8471 10.7217L14.5351 8.01973C14.6004 7.9544 14.6331 7.90773 14.6331 7.87973C14.6331 7.85173 14.6098 7.83773 14.5631 7.83773C13.8444 7.94973 13.0838 8.24373 12.2811 8.71973C11.4784 9.19573 10.7504 9.7464 10.0971 10.3717C9.44377 10.997 8.84177 11.6364 8.2911 12.2897C7.74043 12.943 7.3111 13.531 7.0031 14.0537C6.70443 14.5764 6.5551 14.9497 6.5551 15.1737C6.5551 15.211 6.57843 15.2297 6.6251 15.2297C6.6811 15.2297 6.78377 15.197 6.9331 15.1317C7.08243 15.057 7.59577 14.6464 8.4731 13.8997C9.35977 13.1437 10.4844 12.0844 11.8471 10.7217ZM17.6865 11.9117C17.8265 12.0144 17.8965 12.1124 17.8965 12.2057C17.8965 12.2897 17.8545 12.369 17.7705 12.4437C17.6959 12.5184 17.2619 13.0924 16.4685 14.1657C15.6752 15.2297 15.1385 15.9624 14.8585 16.3637C14.5879 16.765 14.3965 17.0544 14.2845 17.2317C14.1725 17.4184 13.9392 17.745 13.5845 18.2117C13.2392 18.6784 12.8892 19.0984 12.5345 19.4717C12.1799 19.8544 11.7552 20.2184 11.2605 20.5637C10.7565 20.9184 10.2759 21.1424 9.81852 21.2357C9.62252 21.2357 9.42652 21.1937 9.23052 21.1097C8.85719 20.951 8.67052 20.657 8.67052 20.2277C8.67052 19.6864 9.17919 19.047 10.1965 18.3097C11.2045 17.5817 11.9559 17.2177 12.4505 17.2177C12.5252 17.2177 12.5625 17.2317 12.5625 17.2597C12.5625 17.2877 12.5159 17.3344 12.4225 17.3997C11.6199 17.9504 10.8919 18.543 10.2385 19.1777C9.57586 19.8217 9.24452 20.279 9.24452 20.5497C9.24452 20.587 9.27252 20.6057 9.32852 20.6057C9.38452 20.6057 9.50586 20.545 9.69252 20.4237C10.1405 20.1064 10.7752 19.5277 11.5965 18.6877C12.5019 17.6797 13.0572 17.0357 13.2625 16.7557C13.6265 16.261 14.0605 15.7477 14.5645 15.2157L14.8445 14.9217C14.8539 14.903 14.8679 14.8844 14.8865 14.8657C14.9052 14.847 14.9285 14.8144 14.9565 14.7677C15.0312 14.6464 15.0639 14.5857 15.0545 14.5857C15.0265 14.5857 14.9659 14.6324 14.8725 14.7257C14.7792 14.819 14.6439 14.9497 14.4665 15.1177C14.2985 15.2764 14.0092 15.4957 13.5985 15.7757C13.1879 16.0464 12.8565 16.1817 12.6045 16.1817C12.3525 16.1817 12.1565 16.0977 12.0165 15.9297C11.8765 15.7617 11.8065 15.5844 11.8065 15.3977C11.8065 15.2017 11.9279 14.9124 12.1705 14.5297C12.4132 14.147 12.7305 13.7317 13.1225 13.2837C13.5145 12.8357 14.0185 12.4204 14.6345 12.0377C15.2599 11.655 15.8992 11.4264 16.5525 11.3517C16.9352 11.4357 17.1825 11.571 17.2945 11.7577C17.3132 11.7484 17.3505 11.7437 17.4065 11.7437C17.4625 11.7437 17.5559 11.7997 17.6865 11.9117ZM13.3465 14.8657C13.5892 14.847 14.0092 14.623 14.6065 14.1937C15.2132 13.7644 15.7592 13.335 16.2445 12.9057C16.7392 12.4764 16.9865 12.229 16.9865 12.1637C16.9865 12.145 16.9679 12.1357 16.9305 12.1357C16.4452 12.2384 15.9039 12.495 15.3065 12.9057C14.7092 13.3164 14.2239 13.713 13.8505 14.0957C13.4772 14.4784 13.2905 14.721 13.2905 14.8237C13.2905 14.8517 13.3092 14.8657 13.3465 14.8657Z" fill="white"/>
</svg>
