<svg width="24" height="24" viewBox="0 0 24 24" fill="none" xmlns="http://www.w3.org/2000/svg">
<path d="M5.54611 16.9519C5.33144 16.9519 5.18677 16.8819 5.11211 16.7419C5.08411 16.6952 5.07011 16.6579 5.07011 16.6299C5.07011 16.6019 5.07944 16.5786 5.09811 16.5599C5.94744 15.9346 6.95544 14.9546 8.12211 13.6199C7.54344 13.3026 7.09544 12.9246 6.77811 12.4859C6.46077 12.0379 6.30211 11.6272 6.30211 11.2539C6.30211 10.8712 6.41877 10.5726 6.65211 10.3579C6.88544 10.1432 7.22611 10.0359 7.67411 10.0359C8.52344 10.0359 9.24677 10.5259 9.84411 11.5059C10.1055 11.1792 10.5208 10.6472 11.0901 9.90991C11.6688 9.17258 12.0888 8.64524 12.3501 8.32791C12.6115 8.00124 12.9335 7.61858 13.3161 7.17991C14.0255 6.39591 14.5621 6.00391 14.9261 6.00391C15.2061 6.01324 15.3461 6.16258 15.3461 6.45191C15.3461 6.75991 15.2388 7.18458 15.0241 7.72591C14.8188 8.25791 14.6508 8.68258 14.5201 8.99991C14.3988 9.30791 14.2121 9.72324 13.9601 10.2459C13.7175 10.7592 13.5261 11.1699 13.3861 11.4779C13.2461 11.7766 13.0315 12.2246 12.7421 12.8219C12.4528 13.4099 12.2521 13.8206 12.1401 14.0539C12.8588 14.0072 13.4281 13.8812 13.8481 13.6759C13.9228 13.6386 13.9695 13.5966 13.9881 13.5499C14.0068 13.5032 14.0301 13.4799 14.0581 13.4799C14.0955 13.4799 14.1281 13.4986 14.1561 13.5359C14.1935 13.5732 14.2121 13.6106 14.2121 13.6479C14.2121 13.9652 13.4841 14.1846 12.0281 14.3059C11.6641 15.0619 11.4121 15.6079 11.2721 15.9439C11.2348 16.0186 11.1788 16.0559 11.1041 16.0559C10.9081 16.0559 10.8101 15.8692 10.8101 15.4959C10.7728 15.2066 10.7075 14.8099 10.6141 14.3059C9.87677 14.2499 9.18611 14.0866 8.54211 13.8159V13.8299C8.14077 14.3246 7.68811 14.8332 7.18411 15.3559C6.68944 15.8692 6.29277 16.2612 5.99411 16.5319L5.54611 16.9519ZM11.6221 14.0679C13.7595 9.62524 14.8281 7.14724 14.8281 6.63391C14.8281 6.47524 14.7721 6.39591 14.6601 6.39591C14.4921 6.39591 14.2541 6.56391 13.9461 6.89991C13.6475 7.23591 13.4048 7.51591 13.2181 7.73991C13.0315 7.96391 12.7841 8.27658 12.4761 8.67791C12.1681 9.06991 11.9115 9.39658 11.7061 9.65791C11.5101 9.91924 11.2301 10.2972 10.8661 10.7919C10.5021 11.2772 10.2315 11.6366 10.0541 11.8699C10.3435 12.4112 10.6048 13.1252 10.8381 14.0119C11.0621 14.0492 11.3235 14.0679 11.6221 14.0679ZM9.69011 11.7159C9.13944 10.7639 8.48611 10.2879 7.73011 10.2879C7.39411 10.2879 7.14211 10.3579 6.97411 10.4979C6.80611 10.6379 6.72211 10.8479 6.72211 11.1279C6.72211 11.3986 6.87611 11.7392 7.18411 12.1499C7.50144 12.5512 7.92611 12.9059 8.45811 13.2139C8.73811 12.8872 9.14877 12.3879 9.69011 11.7159ZM9.88611 12.0939C9.58744 12.4952 9.24211 12.9432 8.85011 13.4379C9.40077 13.6992 9.96077 13.8766 10.5301 13.9699C10.3341 13.1859 10.1195 12.5606 9.88611 12.0939ZM11.4961 14.3339H10.9081L11.0761 15.2159C11.1881 14.9919 11.3281 14.6979 11.4961 14.3339ZM16.8812 13.1999C16.8812 13.3866 16.7599 13.5872 16.5172 13.8019C16.2745 14.0166 16.0972 14.1239 15.9852 14.1239C15.8825 14.1239 15.8312 14.0959 15.8312 14.0399L15.9292 13.9139C16.1625 13.6992 16.2792 13.5406 16.2792 13.4379C16.2792 13.3072 16.2092 13.2419 16.0692 13.2419C15.7332 13.2512 15.2665 13.5499 14.6692 14.1379C14.0719 14.7259 13.7732 15.1599 13.7732 15.4399C13.7732 15.5612 13.8385 15.6219 13.9692 15.6219C14.1092 15.6219 14.3005 15.5612 14.5432 15.4399C14.7859 15.3092 14.9959 15.1786 15.1732 15.0479L15.4532 14.8519C15.4812 14.8332 15.5325 14.7772 15.6072 14.6839C15.8125 14.4319 15.9479 14.3059 16.0132 14.3059C16.1625 14.3246 16.2372 14.3899 16.2372 14.5019C15.9945 14.8566 15.5419 15.5892 14.8792 16.6999C15.0752 16.6719 15.2665 16.6579 15.4532 16.6579C15.9012 16.6579 16.1252 16.7746 16.1252 17.0079C16.1252 17.1386 16.0365 17.3019 15.8592 17.4979C15.6912 17.7032 15.5605 17.8059 15.4672 17.8059C15.3739 17.8059 15.3272 17.7732 15.3272 17.7079C15.3272 17.6706 15.3785 17.6099 15.4812 17.5259C15.5839 17.4512 15.6352 17.3579 15.6352 17.2459C15.6352 17.0966 15.5372 17.0219 15.3412 17.0219C15.1452 17.0219 14.9165 17.0452 14.6552 17.0919C14.2445 17.8012 13.9179 18.3519 13.6752 18.7439C13.4419 19.1452 13.1479 19.5932 12.7932 20.0879C12.1212 21.0306 11.5285 21.5019 11.0152 21.5019C10.6979 21.5019 10.5392 21.3386 10.5392 21.0119C10.5392 20.4332 10.9359 19.6772 11.7292 18.7439C12.5132 17.8106 13.3859 17.1806 14.3472 16.8539L15.1312 15.3699C15.0192 15.4446 14.8279 15.5472 14.5572 15.6779C14.0345 15.9299 13.6705 16.0559 13.4652 16.0559C13.2132 16.0559 13.0872 15.9252 13.0872 15.6639C13.0872 15.4026 13.2879 15.0479 13.6892 14.5999C14.0905 14.1519 14.5665 13.7552 15.1172 13.4099C15.6679 13.0552 16.1252 12.8779 16.4892 12.8779C16.6012 12.8779 16.6899 12.9059 16.7552 12.9619C16.8205 13.0086 16.8625 13.0879 16.8812 13.1999ZM11.0152 20.8019C11.0152 20.9979 11.0899 21.0959 11.2392 21.0959C11.7152 21.0959 12.6765 19.8126 14.1232 17.2459C13.2739 17.5632 12.5459 18.1186 11.9392 18.9119C11.3232 19.7052 11.0152 20.3352 11.0152 20.8019Z" fill="white"/>
</svg>
