<svg width="24" height="24" viewBox="0 0 24 24" fill="none" xmlns="http://www.w3.org/2000/svg">
<path d="M2.86095 16.9999L8.78295 7.12988H9.79095L12.6469 16.9999H11.4989L10.7149 14.1859L11.1769 14.4799H5.15695L5.75895 14.1859L4.10695 16.9999H2.86095ZM9.10495 8.45988L6.01095 13.7799L5.71695 13.5279H10.9109L10.6169 13.7799L9.14695 8.45988H9.10495ZM16.5875 20.1219C15.9902 20.1219 15.4488 20.0472 14.9635 19.8979C14.4782 19.7486 14.0535 19.5199 13.6895 19.2119L14.0955 18.3579C14.3475 18.5632 14.6042 18.7266 14.8655 18.8479C15.1268 18.9692 15.4022 19.0579 15.6915 19.1139C15.9808 19.1792 16.2935 19.2119 16.6295 19.2119C17.3388 19.2119 17.8942 19.0299 18.2955 18.6659C18.6968 18.3019 18.9535 17.7839 19.0655 17.1119L19.3875 15.0539H19.5415C19.3175 15.6046 18.9582 16.0386 18.4635 16.3559C17.9782 16.6732 17.4182 16.8319 16.7835 16.8319C16.1395 16.8319 15.5935 16.6826 15.1455 16.3839C14.7068 16.0759 14.3942 15.6466 14.2075 15.0959C14.0302 14.5452 13.9975 13.9012 14.1095 13.1639C14.2868 12.0906 14.6975 11.2692 15.3415 10.6999C15.9948 10.1306 16.7882 9.84588 17.7215 9.84588C18.3655 9.84588 18.8975 10.0046 19.3175 10.3219C19.7375 10.6392 19.9848 11.0779 20.0595 11.6379L19.9475 11.4979L20.3255 9.97188H21.4175C21.3428 10.2426 21.2728 10.5179 21.2075 10.7979C21.1422 11.0686 21.0908 11.3346 21.0535 11.5959L20.1995 16.9579C20.0408 18.0032 19.6582 18.7919 19.0515 19.3239C18.4448 19.8559 17.6235 20.1219 16.5875 20.1219ZM17.0495 15.9219C17.7308 15.9219 18.3002 15.6979 18.7575 15.2499C19.2242 14.7926 19.5182 14.1579 19.6395 13.3459C19.7702 12.5152 19.6722 11.8759 19.3455 11.4279C19.0188 10.9799 18.5195 10.7559 17.8475 10.7559C17.1662 10.7559 16.5922 10.9799 16.1255 11.4279C15.6588 11.8759 15.3602 12.5106 15.2295 13.3319C15.0988 14.1532 15.1968 14.7926 15.5235 15.2499C15.8595 15.6979 16.3682 15.9219 17.0495 15.9219Z" fill="white"/>
</svg>
