<svg width="24" height="24" viewBox="0 0 24 24" fill="none" xmlns="http://www.w3.org/2000/svg">
<path d="M6.13013 7.80762H9.16813L12.1221 17.9996H9.64413L8.02013 11.1956L7.65613 9.71162H7.62813L7.26413 11.1956L5.64013 17.9996H3.17613L6.13013 7.80762ZM6.49413 13.7716H8.81813L9.21013 15.6056H6.07413L6.49413 13.7716ZM15.7445 16.0816C15.1472 16.0816 14.5965 15.9696 14.0925 15.7456C13.5885 15.5216 13.1872 15.2043 12.8885 14.7936C12.5898 14.3829 12.4405 13.8929 12.4405 13.3236C12.4405 12.7636 12.5898 12.2783 12.8885 11.8676C13.1872 11.4476 13.5885 11.1256 14.0925 10.9016C14.5965 10.6683 15.1472 10.5516 15.7445 10.5516C16.3605 10.5516 16.9158 10.6683 17.4105 10.9016C17.9052 11.1256 18.3018 11.4476 18.6005 11.8676C18.8992 12.2783 19.0485 12.7636 19.0485 13.3236C19.0485 13.8836 18.9038 14.3736 18.6145 14.7936C18.3252 15.2043 17.9332 15.5216 17.4385 15.7456C16.9438 15.9696 16.3792 16.0816 15.7445 16.0816ZM15.7445 14.6256C15.9778 14.6256 16.1692 14.5743 16.3185 14.4716C16.4772 14.3689 16.5938 14.2196 16.6685 14.0236C16.7432 13.8276 16.7805 13.5943 16.7805 13.3236C16.7805 13.0623 16.7432 12.8336 16.6685 12.6376C16.5938 12.4416 16.4772 12.2923 16.3185 12.1896C16.1692 12.0776 15.9778 12.0216 15.7445 12.0216C15.5205 12.0216 15.3292 12.0776 15.1705 12.1896C15.0212 12.2923 14.9092 12.4416 14.8345 12.6376C14.7692 12.8336 14.7365 13.0623 14.7365 13.3236C14.7365 13.5943 14.7738 13.8276 14.8485 14.0236C14.9232 14.2196 15.0352 14.3689 15.1845 14.4716C15.3338 14.5743 15.5205 14.6256 15.7445 14.6256ZM15.5905 21.2896C15.1705 21.2896 14.7458 21.2523 14.3165 21.1776C13.8965 21.1123 13.5092 21.0003 13.1545 20.8416C12.7998 20.6923 12.5152 20.4916 12.3005 20.2396C12.0858 19.9876 11.9785 19.6749 11.9785 19.3016C11.9785 18.9003 12.0812 18.5736 12.2865 18.3216C12.5012 18.0696 12.7765 17.8596 13.1125 17.6916V17.6636C12.9258 17.5423 12.7905 17.4163 12.7065 17.2856C12.6318 17.1456 12.5945 16.9869 12.5945 16.8096C12.5945 16.5203 12.7018 16.2496 12.9165 15.9976C13.1405 15.7456 13.3925 15.5169 13.6725 15.3116L14.5545 15.7176C14.4612 15.8109 14.3865 15.9089 14.3305 16.0116C14.2745 16.1049 14.2465 16.1983 14.2465 16.2916C14.2465 16.4129 14.3025 16.5016 14.4145 16.5576C14.5358 16.6043 14.7085 16.6369 14.9325 16.6556L16.7525 16.7676C17.0418 16.7863 17.3592 16.8189 17.7045 16.8656C18.0498 16.9123 18.3765 17.0009 18.6845 17.1316C18.9925 17.2529 19.2445 17.4349 19.4405 17.6776C19.6365 17.9203 19.7345 18.2469 19.7345 18.6576C19.7345 19.0963 19.5852 19.5163 19.2865 19.9176C18.9878 20.3283 18.5305 20.6596 17.9145 20.9116C17.3078 21.1636 16.5332 21.2896 15.5905 21.2896ZM15.7585 19.5676C16.2158 19.5676 16.5798 19.5303 16.8505 19.4556C17.1305 19.3903 17.3358 19.3016 17.4665 19.1896C17.5972 19.0776 17.6625 18.9609 17.6625 18.8396C17.6625 18.7369 17.6252 18.6529 17.5505 18.5876C17.4852 18.5316 17.3918 18.4803 17.2705 18.4336C17.1492 18.3963 17.0138 18.3683 16.8645 18.3496C16.7245 18.3403 16.5798 18.3309 16.4305 18.3216L14.9045 18.2096C14.7178 18.1909 14.5592 18.1676 14.4285 18.1396C14.3072 18.1116 14.2045 18.0696 14.1205 18.0136L14.2745 18.0416C14.1718 18.1069 14.0738 18.1956 13.9805 18.3076C13.8872 18.4196 13.8405 18.5456 13.8405 18.6856C13.8405 18.8443 13.8872 18.9749 13.9805 19.0776C14.0738 19.1896 14.2045 19.2783 14.3725 19.3436C14.5498 19.4183 14.7552 19.4743 14.9885 19.5116C15.2218 19.5489 15.4785 19.5676 15.7585 19.5676ZM16.5565 10.7196H19.8465V11.9236H18.2925L16.5565 10.7196Z" fill="white"/>
</svg>
