<svg width="24" height="24" viewBox="0 0 24 24" fill="none" xmlns="http://www.w3.org/2000/svg">
<path d="M8.36727 6.80762H8.64727L12.1753 16.9996H11.8953L9.55727 10.2376L8.50727 7.18562H8.49327L7.44327 10.2376L5.10527 16.9996H4.82527L8.36727 6.80762ZM6.47727 12.9256H10.5233L10.6213 13.1776H6.39327L6.47727 12.9256ZM15.8486 14.9976C15.3166 14.9976 14.8593 14.8809 14.4766 14.6476C14.1033 14.4049 13.8186 14.0783 13.6226 13.6676C13.4266 13.2569 13.3286 12.7949 13.3286 12.2816C13.3286 11.7683 13.4266 11.3109 13.6226 10.9096C13.8186 10.4989 14.1033 10.1769 14.4766 9.94362C14.8593 9.70095 15.3166 9.57962 15.8486 9.57962C16.39 9.57962 16.8473 9.70095 17.2206 9.94362C17.594 10.1769 17.8786 10.4989 18.0746 10.9096C18.2706 11.3109 18.3686 11.7683 18.3686 12.2816C18.3686 12.7949 18.2706 13.2569 18.0746 13.6676C17.8786 14.0783 17.594 14.4049 17.2206 14.6476C16.8473 14.8809 16.39 14.9976 15.8486 14.9976ZM15.8486 14.7316C16.3526 14.7316 16.768 14.6196 17.0946 14.3956C17.4306 14.1623 17.678 13.8589 17.8366 13.4856C18.0046 13.1123 18.0886 12.7109 18.0886 12.2816C18.0886 11.8429 18.0046 11.4416 17.8366 11.0776C17.678 10.7043 17.4306 10.4056 17.0946 10.1816C16.768 9.95762 16.3526 9.84562 15.8486 9.84562C15.3446 9.84562 14.9246 9.95762 14.5886 10.1816C14.262 10.4056 14.0146 10.7043 13.8466 11.0776C13.688 11.4416 13.6086 11.8429 13.6086 12.2816C13.6086 12.7109 13.688 13.1123 13.8466 13.4856C14.0146 13.8589 14.262 14.1623 14.5886 14.3956C14.9246 14.6196 15.3446 14.7316 15.8486 14.7316ZM15.7786 20.2896C15.3586 20.2896 14.962 20.2569 14.5886 20.1916C14.2153 20.1263 13.884 20.0189 13.5946 19.8696C13.3053 19.7203 13.0766 19.5243 12.9086 19.2816C12.75 19.0389 12.6706 18.7403 12.6706 18.3856C12.6706 18.0029 12.764 17.6623 12.9506 17.3636C13.1373 17.0649 13.394 16.7989 13.7206 16.5656V16.5516C13.6086 16.4769 13.5153 16.3836 13.4406 16.2716C13.3753 16.1503 13.3426 16.0009 13.3426 15.8236C13.3426 15.5809 13.4266 15.3289 13.5946 15.0676C13.772 14.8063 13.9726 14.5729 14.1966 14.3676L14.4066 14.4796C14.1733 14.6849 13.982 14.8996 13.8326 15.1236C13.6833 15.3476 13.6086 15.5763 13.6086 15.8096C13.6086 16.0429 13.6926 16.2156 13.8606 16.3276C14.038 16.4303 14.2946 16.4909 14.6306 16.5096L16.6886 16.6076C16.866 16.6169 17.09 16.6403 17.3606 16.6776C17.6406 16.7056 17.916 16.7709 18.1866 16.8736C18.4666 16.9763 18.7 17.1349 18.8866 17.3496C19.0733 17.5643 19.1666 17.8629 19.1666 18.2456C19.1666 18.5909 19.0593 18.9176 18.8446 19.2256C18.63 19.5429 18.2753 19.7996 17.7806 19.9956C17.286 20.1916 16.6186 20.2896 15.7786 20.2896ZM15.8206 20.0236C16.5673 20.0236 17.1646 19.9396 17.6126 19.7716C18.0606 19.6129 18.3873 19.3983 18.5926 19.1276C18.798 18.8663 18.9006 18.5816 18.9006 18.2736C18.9006 17.9656 18.8213 17.7183 18.6626 17.5316C18.5133 17.3543 18.3173 17.2189 18.0746 17.1256C17.8413 17.0323 17.5986 16.9716 17.3466 16.9436C17.0946 16.9063 16.8706 16.8829 16.6746 16.8736L14.6166 16.7756C14.3833 16.7569 14.2153 16.7383 14.1126 16.7196C14.01 16.7009 13.9166 16.6729 13.8326 16.6356L13.9866 16.6496C13.6693 16.8269 13.4126 17.0696 13.2166 17.3776C13.03 17.6856 12.9366 18.0123 12.9366 18.3576C12.9366 18.6936 13.0206 18.9689 13.1886 19.1836C13.366 19.4076 13.5946 19.5803 13.8746 19.7016C14.1546 19.8229 14.4626 19.9069 14.7986 19.9536C15.144 20.0003 15.4846 20.0236 15.8206 20.0236ZM16.6886 9.71962H19.1666V9.97162H17.1646L16.6886 9.71962Z" fill="white"/>
</svg>
