<svg width="24" height="24" viewBox="0 0 24 24" fill="none" xmlns="http://www.w3.org/2000/svg">
<path d="M5.73929 14.8641L4.79633 17.0002H3.10286L7.25956 7.58984H8.95304L13.0905 17.0002H11.397L10.4541 14.8641H5.73929ZM9.81902 13.3823L8.1063 9.51424L6.39359 13.3823H9.81902ZM20.8093 9.84139V16.0765C20.8093 17.3081 20.4757 18.2511 19.8086 18.9054C19.1415 19.5597 18.2498 19.8868 17.1337 19.8868C16.0817 19.8868 15.1067 19.5468 14.2086 18.8669L14.9206 17.7315C15.6391 18.2575 16.3511 18.5205 17.0567 18.5205C18.5962 18.5205 19.366 17.7507 19.366 16.2112V15.2875C19.1479 15.7109 18.8272 16.0508 18.4038 16.3074C17.9804 16.5512 17.5121 16.6731 16.999 16.6731C16.0496 16.6731 15.267 16.3459 14.6512 15.6916C14.0482 15.0245 13.7467 14.197 13.7467 13.2091C13.7467 12.2084 14.0482 11.381 14.6512 10.7267C15.267 10.0595 16.0496 9.72592 16.999 9.72592C17.9483 9.72592 18.7181 10.1173 19.3083 10.8999V9.84139H20.8093ZM17.2491 15.3067C17.8521 15.3067 18.3461 15.1015 18.7309 14.6909C19.1158 14.2676 19.3083 13.748 19.3083 13.1322C19.3083 12.5035 19.1094 11.9839 18.7117 11.5734C18.3268 11.15 17.8329 10.9383 17.2299 10.9383C16.6269 10.9383 16.1394 11.1564 15.7674 11.5926C15.4081 12.016 15.2285 12.5292 15.2285 13.1322C15.2285 13.748 15.4146 14.2676 15.7866 14.6909C16.1587 15.1015 16.6462 15.3067 17.2491 15.3067Z" fill="white"/>
</svg>
