<svg width="24" height="24" viewBox="0 0 24 24" fill="none" xmlns="http://www.w3.org/2000/svg">
<path d="M6.93522 8.44019C6.92589 8.44019 6.93989 8.38886 6.97722 8.28619C7.02389 8.17419 7.12655 8.06686 7.28522 7.96419C7.44389 7.86152 7.70522 7.80552 8.06922 7.79619C8.39589 7.78686 8.64322 7.82886 8.81122 7.92219C8.97922 8.00619 9.09122 8.09019 9.14722 8.17419C9.21255 8.25819 9.24522 8.30019 9.24522 8.30019C9.24522 8.30019 9.29655 8.42152 9.39922 8.66419C9.50189 8.90686 9.64189 9.22886 9.81922 9.63019C9.99655 10.0222 10.1926 10.4609 10.4072 10.9462C10.6219 11.4315 10.8366 11.9262 11.0512 12.4302C11.2752 12.9249 11.4806 13.3915 11.6672 13.8302C11.8632 14.2595 12.0266 14.6235 12.1572 14.9222C12.2879 15.2115 12.3719 15.3935 12.4092 15.4682C12.4932 15.6455 12.5399 15.7715 12.5492 15.8462C12.5586 15.9209 12.5539 15.9722 12.5352 16.0002C12.5259 16.0189 12.5212 16.0329 12.5212 16.0422C12.4559 16.1729 12.3252 16.2849 12.1292 16.3782C11.9426 16.4809 11.7139 16.5369 11.4432 16.5462C11.0699 16.5555 10.7992 16.5135 10.6312 16.4202C10.4632 16.3362 10.3512 16.2475 10.2952 16.1542C10.2486 16.0702 10.2299 16.0329 10.2392 16.0422C10.2392 16.0422 10.1879 15.9349 10.0852 15.7202C9.99189 15.5055 9.87989 15.2489 9.74922 14.9502C9.61855 14.6422 9.49722 14.3622 9.38522 14.1102C9.38522 14.1102 9.31989 14.1102 9.18922 14.1102C9.06789 14.1102 8.92322 14.1102 8.75522 14.1102C8.58722 14.1102 8.43789 14.1102 8.30722 14.1102C8.18589 14.1102 8.12522 14.1102 8.12522 14.1102C8.08789 14.2409 8.05055 14.4042 8.01322 14.6002C7.97589 14.7869 7.94322 14.9549 7.91522 15.1042C7.88722 15.2535 7.87322 15.3282 7.87322 15.3282C7.87322 15.3282 7.84989 15.3842 7.80322 15.4962C7.76589 15.6082 7.65855 15.7202 7.48122 15.8322C7.30389 15.9442 7.00989 16.0002 6.59922 16.0002C6.29122 16.0002 6.05789 15.9675 5.89922 15.9022C5.74989 15.8275 5.64722 15.7435 5.59122 15.6502C5.54455 15.5569 5.52122 15.4775 5.52122 15.4122C5.52122 15.3375 5.52122 15.3002 5.52122 15.3002C5.53989 15.2069 5.57722 15.0155 5.63322 14.7262C5.69855 14.4275 5.77322 14.0729 5.85722 13.6622C5.95055 13.2422 6.04389 12.7989 6.13722 12.3322C6.23989 11.8655 6.33789 11.4035 6.43122 10.9462C6.52455 10.4889 6.60855 10.0735 6.68322 9.70019C6.75789 9.31752 6.81855 9.01419 6.86522 8.79019C6.91189 8.55686 6.93522 8.44019 6.93522 8.44019ZM8.40522 10.6522C8.39589 10.6895 8.38655 10.7642 8.37722 10.8762L8.32122 11.2682C8.30255 11.4829 8.27922 11.7115 8.25122 11.9542C8.22322 12.1969 8.19522 12.4255 8.16722 12.6402C8.14855 12.7522 8.13455 12.8222 8.12522 12.8502H8.30722C8.41922 12.8502 8.54055 12.8455 8.67122 12.8362C8.80189 12.8269 8.91855 12.8222 9.02122 12.8222C8.98389 12.7475 8.95122 12.6542 8.92322 12.5422C8.90455 12.4209 8.88122 12.3089 8.85322 12.2062C8.79722 11.9915 8.73189 11.7675 8.65722 11.5342C8.59189 11.3009 8.53122 11.0815 8.47522 10.8762C8.44722 10.7642 8.42389 10.6895 8.40522 10.6522ZM17.2128 15.6502C17.2128 15.6502 17.1428 15.6782 17.0028 15.7342C16.8721 15.7902 16.6948 15.8509 16.4708 15.9162C16.2468 15.9722 15.9948 16.0002 15.7148 16.0002C15.5094 16.0002 15.2528 15.9722 14.9448 15.9162C14.6461 15.8509 14.3474 15.7295 14.0488 15.5522C13.7501 15.3749 13.5028 15.1182 13.3068 14.7822C13.1201 14.4462 13.0314 13.9982 13.0408 13.4382C13.0594 12.8782 13.1854 12.4022 13.4188 12.0102C13.6521 11.6089 13.9508 11.2775 14.3148 11.0162C14.6788 10.7549 15.0614 10.5589 15.4628 10.4282C15.8734 10.2975 16.2561 10.2229 16.6108 10.2042C17.0868 10.1762 17.4881 10.2275 17.8148 10.3582C18.1414 10.4795 18.3888 10.6242 18.5568 10.7922C18.7248 10.9509 18.8088 11.0815 18.8088 11.1842C18.8088 11.2589 18.8414 11.4315 18.9068 11.7022C18.9721 11.9729 19.0421 12.3089 19.1168 12.7102C19.2008 13.1022 19.2754 13.5362 19.3408 14.0122C19.4061 14.4789 19.4434 14.9549 19.4528 15.4402C19.4621 15.9255 19.4481 16.3782 19.4108 16.7982C19.3828 17.2275 19.2988 17.6055 19.1588 17.9322C19.0281 18.2682 18.8041 18.5295 18.4868 18.7162C18.1694 18.9122 17.7308 19.0149 17.1708 19.0242C16.4148 19.0335 15.7754 18.9449 15.2528 18.7582C14.7394 18.5809 14.3381 18.3755 14.0488 18.1422C13.7594 17.9182 13.5868 17.7409 13.5308 17.6102C13.4748 17.4795 13.4468 17.3489 13.4468 17.2182C13.4561 17.0875 13.5261 16.9802 13.6568 16.8962C13.7968 16.8122 14.0301 16.7702 14.3568 16.7702C14.6834 16.7702 14.9261 16.7982 15.0848 16.8542C15.2528 16.9195 15.3741 16.9895 15.4488 17.0642C15.5234 17.1389 15.5888 17.1995 15.6448 17.2462C15.7288 17.3115 15.8548 17.4189 16.0228 17.5682C16.2001 17.7269 16.3914 17.8062 16.5968 17.8062C16.7368 17.8062 16.8581 17.7082 16.9608 17.5122C17.0634 17.3162 17.1381 17.0549 17.1848 16.7282C17.2314 16.4015 17.2408 16.0422 17.2128 15.6502ZM16.8628 11.2262C16.5454 11.2542 16.2654 11.3942 16.0228 11.6462C15.7894 11.8982 15.6028 12.2015 15.4628 12.5562C15.3228 12.9109 15.2434 13.2609 15.2248 13.6062C15.2154 13.9515 15.2808 14.2409 15.4208 14.4742C15.5608 14.6982 15.7894 14.8102 16.1068 14.8102C16.4241 14.8102 16.6621 14.7029 16.8208 14.4882C16.9888 14.2735 17.0961 14.0122 17.1428 13.7042C17.1988 13.3869 17.2174 13.0649 17.1988 12.7382C17.1894 12.4022 17.1661 12.1129 17.1288 11.8702C17.0914 11.6275 17.0728 11.4735 17.0728 11.4082C17.0634 11.3055 17.0261 11.2495 16.9608 11.2402C16.8954 11.2309 16.8628 11.2262 16.8628 11.2262Z" fill="white"/>
</svg>
