<svg width="24" height="24" viewBox="0 0 24 24" fill="none" xmlns="http://www.w3.org/2000/svg">
<path d="M7.11133 17L7.18652 16.4531L5.91504 16.1523L6.60547 14.0469H9.46973L10.2148 16.1182L9.0459 16.4941L8.96387 17H12.4844L12.5459 16.4531L11.6094 16.1523L8.94336 8.33203L7.91113 8.54395L4.99219 16.1182L3.97363 16.4941L3.91211 17H7.11133ZM8.13672 9.93164L9.27148 13.3496H6.86523L8.13672 9.93164ZM15.4648 19.6387C15.9753 19.6387 16.4743 19.5293 16.9619 19.3105C17.4495 19.0918 17.8438 18.8047 18.1445 18.4492C18.4499 18.0983 18.6025 17.7292 18.6025 17.3418C18.6025 16.8633 18.4248 16.5146 18.0693 16.2959C17.7184 16.0771 17.265 15.9678 16.709 15.9678H15.7793C15.2871 15.9678 14.9544 15.9268 14.7812 15.8447C14.6126 15.7581 14.5283 15.6351 14.5283 15.4756C14.5283 15.3115 14.6423 15.111 14.8701 14.874C14.9248 14.8877 15.0114 14.9036 15.1299 14.9219C15.2484 14.9355 15.3669 14.9424 15.4854 14.9424C15.8408 14.9424 16.1963 14.8581 16.5518 14.6895C16.9118 14.5163 17.208 14.2747 17.4404 13.9648C17.6774 13.6549 17.7959 13.3018 17.7959 12.9053C17.7959 12.7503 17.7708 12.584 17.7207 12.4062C17.6706 12.2285 17.6182 12.0781 17.5635 11.9551V11.8389L18.4043 12.1123H18.5137L18.7803 11.3535L18.6436 11.1963C18.5023 11.21 18.2676 11.2305 17.9395 11.2578C17.6113 11.2806 17.3561 11.2965 17.1738 11.3057C16.7773 11.0186 16.2988 10.875 15.7383 10.875C15.36 10.875 14.9932 10.973 14.6377 11.1689C14.2868 11.3604 14.002 11.6178 13.7832 11.9414C13.5645 12.265 13.4551 12.609 13.4551 12.9736C13.4551 13.2562 13.5189 13.5251 13.6465 13.7803C13.7786 14.0355 13.9336 14.2474 14.1113 14.416C14.2891 14.5801 14.4417 14.6781 14.5693 14.71V14.7578C14.4007 14.8262 14.2253 14.9264 14.043 15.0586C13.8652 15.1908 13.7171 15.332 13.5986 15.4824C13.4847 15.6283 13.4277 15.7604 13.4277 15.8789C13.4277 16.0749 13.4847 16.2549 13.5986 16.4189C13.7126 16.583 13.8743 16.7152 14.084 16.8154V16.877C13.3548 17.2917 12.9902 17.7018 12.9902 18.1074C12.9902 18.6497 13.2227 19.0394 13.6875 19.2764C14.1569 19.5179 14.7493 19.6387 15.4648 19.6387ZM15.5742 11.374C15.8021 11.374 15.998 11.4583 16.1621 11.627C16.3307 11.7956 16.4583 12.0075 16.5449 12.2627C16.6361 12.5179 16.6816 12.7754 16.6816 13.0352C16.6816 13.5 16.5928 13.8441 16.415 14.0674C16.2419 14.2907 15.9958 14.4023 15.6768 14.4023C15.5036 14.4023 15.3281 14.3363 15.1504 14.2041C14.9772 14.0719 14.8337 13.8874 14.7197 13.6504C14.6058 13.4134 14.5488 13.1445 14.5488 12.8438C14.5488 12.3835 14.6331 12.0234 14.8018 11.7637C14.9749 11.5039 15.2324 11.374 15.5742 11.374ZM15.7383 16.9795C16.1803 16.9795 16.5199 16.9954 16.7568 17.0273C16.9938 17.0638 17.167 17.1322 17.2764 17.2324C17.3903 17.3327 17.4473 17.4831 17.4473 17.6836C17.4473 18.1074 17.2992 18.4173 17.0029 18.6133C16.7113 18.8092 16.3216 18.9072 15.834 18.9072C14.7402 18.9072 14.1934 18.5176 14.1934 17.7383C14.1934 17.5514 14.2184 17.401 14.2686 17.2871C14.3232 17.1777 14.3825 17.0957 14.4463 17.041C14.5146 16.9863 14.5488 16.9658 14.5488 16.9795H15.7383Z" fill="white"/>
</svg>
