<svg width="24" height="24" viewBox="0 0 24 24" fill="none" xmlns="http://www.w3.org/2000/svg">
<path d="M5.67758 13.696V12.814H10.4796V13.696H5.67758ZM12.5516 16.181L13.6786 16.552V17H9.59058V16.552L10.8086 16.195L7.66558 8.49501H8.05058L5.12458 16.195L6.29358 16.552V17H2.98958V16.552L4.09558 16.195L7.63758 7.33301H8.85558L12.5516 16.181ZM16.9319 20.556C16.3953 20.556 15.9263 20.5187 15.5249 20.444C15.1283 20.374 14.7993 20.269 14.5379 20.129C14.2813 19.989 14.0899 19.8187 13.9639 19.618C13.8379 19.4173 13.7749 19.1887 13.7749 18.932C13.7749 18.7453 13.8216 18.568 13.9149 18.4C14.0129 18.232 14.1669 18.078 14.3769 17.938C14.5916 17.8027 14.8693 17.6837 15.2099 17.581C15.5553 17.4783 15.9776 17.3943 16.4769 17.329H16.9809V17.476C16.5003 17.532 16.1246 17.6183 15.8539 17.735C15.5879 17.8517 15.4013 17.994 15.2939 18.162C15.1866 18.33 15.1329 18.519 15.1329 18.729C15.1329 18.9717 15.2006 19.177 15.3359 19.345C15.4713 19.5177 15.6836 19.646 15.9729 19.73C16.2669 19.8187 16.6426 19.863 17.0999 19.863C17.5946 19.863 18.0123 19.8093 18.3529 19.702C18.6936 19.5947 18.9503 19.4477 19.1229 19.261C19.3003 19.0743 19.3889 18.862 19.3889 18.624C19.3889 18.4607 19.3516 18.3207 19.2769 18.204C19.2069 18.0873 19.0809 17.9893 18.8989 17.91C18.7169 17.8307 18.4603 17.7677 18.1289 17.721C17.8023 17.6743 17.3846 17.6417 16.8759 17.623C16.3626 17.5997 15.9403 17.546 15.6089 17.462C15.2776 17.3827 15.0186 17.2777 14.8319 17.147C14.6499 17.0163 14.5216 16.867 14.4469 16.699C14.3723 16.531 14.3349 16.3513 14.3349 16.16C14.3396 15.8147 14.4959 15.5253 14.8039 15.292C15.1166 15.0587 15.5809 14.9 16.1969 14.816L16.3439 14.991C16.0779 15.019 15.8819 15.0843 15.7559 15.187C15.6346 15.285 15.5739 15.4273 15.5739 15.614C15.5739 15.7213 15.5949 15.817 15.6369 15.901C15.6836 15.985 15.7769 16.0573 15.9169 16.118C16.0569 16.174 16.2693 16.2207 16.5539 16.258C16.8386 16.2953 17.2213 16.3233 17.7019 16.342C18.1966 16.3653 18.6283 16.4143 18.9969 16.489C19.3656 16.559 19.6713 16.6663 19.9139 16.811C20.1613 16.9557 20.3456 17.14 20.4669 17.364C20.5929 17.588 20.6559 17.861 20.6559 18.183C20.6559 18.6263 20.5113 19.0277 20.2219 19.387C19.9326 19.7463 19.5103 20.031 18.9549 20.241C18.3996 20.451 17.7253 20.556 16.9319 20.556ZM16.9459 15.11C16.3906 15.11 15.9053 15.0143 15.4899 14.823C15.0746 14.6317 14.7526 14.361 14.5239 14.011C14.2953 13.661 14.1809 13.2527 14.1809 12.786C14.1809 12.31 14.2976 11.897 14.5309 11.547C14.7643 11.197 15.0886 10.9287 15.5039 10.742C15.9239 10.5507 16.4046 10.455 16.9459 10.455C17.3659 10.455 17.7439 10.5133 18.0799 10.63C18.4159 10.742 18.7053 10.9053 18.9479 11.12C19.1906 11.33 19.3749 11.5773 19.5009 11.862C19.6316 12.142 19.6969 12.4477 19.6969 12.779C19.6969 13.2503 19.5803 13.6633 19.3469 14.018C19.1136 14.368 18.7893 14.6387 18.3739 14.83C17.9633 15.0167 17.4873 15.11 16.9459 15.11ZM17.0019 14.424C17.3753 14.424 17.6739 14.2933 17.8979 14.032C18.1266 13.7707 18.2409 13.3763 18.2409 12.849C18.2409 12.2797 18.1243 11.8527 17.8909 11.568C17.6623 11.2787 17.3333 11.134 16.9039 11.134C16.5259 11.134 16.2203 11.2623 15.9869 11.519C15.7583 11.7757 15.6439 12.1723 15.6439 12.709C15.6439 13.2737 15.7606 13.7007 15.9939 13.99C16.2319 14.2793 16.5679 14.424 17.0019 14.424ZM17.9539 11.085L17.7019 10.567C18.0239 10.5997 18.3273 10.6137 18.6119 10.609C18.8966 10.5997 19.1579 10.5833 19.3959 10.56C19.6339 10.5367 19.8486 10.5133 20.0399 10.49C20.2359 10.4667 20.4063 10.455 20.5509 10.455C20.6863 10.455 20.7889 10.497 20.8589 10.581C20.9289 10.665 20.9639 10.8003 20.9639 10.987C20.9639 11.2063 20.9149 11.379 20.8169 11.505C20.7236 11.631 20.6139 11.694 20.4879 11.694C20.3666 11.694 20.2453 11.666 20.1239 11.61C20.0026 11.5493 19.8533 11.4817 19.6759 11.407C19.4986 11.3277 19.2723 11.2577 18.9969 11.197C18.7216 11.1317 18.3739 11.0943 17.9539 11.085Z" fill="white"/>
</svg>
