<svg width="24" height="24" viewBox="0 0 24 24" fill="none" xmlns="http://www.w3.org/2000/svg">
<path d="M12.7461 14.792C12.7962 15.1702 12.8555 15.4551 12.9238 15.6465C12.9967 15.8379 13.097 15.9723 13.2246 16.0498C13.3568 16.1273 13.5413 16.1865 13.7783 16.2275L13.6074 17H8.2207L8.38477 16.2275C8.71289 16.1729 8.95898 16.1022 9.12305 16.0156C9.29167 15.9245 9.39648 15.7832 9.4375 15.5918C9.47852 15.3958 9.48307 15.1201 9.45117 14.7646L8.86328 8.7627H9.21875L6.08789 14.7236C5.89193 15.0973 5.77344 15.3844 5.73242 15.585C5.69596 15.7809 5.74154 15.9245 5.86914 16.0156C5.99674 16.1022 6.21322 16.1729 6.51855 16.2275L6.34766 17H3.12109L3.29199 16.2275C3.5472 16.1865 3.75456 16.125 3.91406 16.043C4.07812 15.9609 4.23307 15.8197 4.37891 15.6191C4.5293 15.4186 4.71615 15.1201 4.93945 14.7236L9.15039 7.11523H11.7891L12.7461 14.792ZM5.94434 13.958L6.4707 12.9873H10.668L10.8252 13.958H5.94434ZM22.918 11.1826L20.8672 10.6904L20.2178 10.1299L23.1436 10.0479L22.918 11.1826ZM17.4492 12.707C17.4492 13.0215 17.5016 13.2721 17.6064 13.459C17.7158 13.6458 17.873 13.7393 18.0781 13.7393C18.2376 13.7393 18.3789 13.6777 18.502 13.5547C18.625 13.4316 18.7275 13.2699 18.8096 13.0693C18.8962 12.8643 18.96 12.6455 19.001 12.4131C19.0465 12.1761 19.0693 11.9482 19.0693 11.7295C19.0693 11.4059 19.0146 11.1553 18.9053 10.9775C18.8005 10.7952 18.6432 10.7041 18.4336 10.7041C18.2741 10.7041 18.1328 10.7679 18.0098 10.8955C17.8867 11.0231 17.7842 11.1895 17.7021 11.3945C17.6201 11.5996 17.5563 11.8184 17.5107 12.0508C17.4697 12.2786 17.4492 12.4974 17.4492 12.707ZM14.6465 12.3857C14.6465 11.8571 14.7992 11.4014 15.1045 11.0186C15.4098 10.6312 15.8428 10.3327 16.4033 10.123C16.9639 9.91341 17.6292 9.80859 18.3994 9.80859C19.279 9.80859 19.9671 9.91569 20.4639 10.1299C20.9652 10.3395 21.3184 10.613 21.5234 10.9502C21.7331 11.2874 21.8379 11.6361 21.8379 11.9961C21.8379 12.4974 21.6875 12.9486 21.3867 13.3496C21.0905 13.7461 20.6598 14.0605 20.0947 14.293C19.5342 14.5254 18.8597 14.6416 18.0713 14.6416C17.2646 14.6416 16.6084 14.5368 16.1025 14.3271C15.6012 14.113 15.2321 13.8327 14.9951 13.4863C14.7627 13.14 14.6465 12.7731 14.6465 12.3857ZM17.1689 20.3018C16.4124 20.3018 15.7562 20.2357 15.2002 20.1035C14.6488 19.9714 14.2204 19.7868 13.915 19.5498C13.6143 19.3128 13.4639 19.0348 13.4639 18.7158C13.4639 18.3649 13.6735 18.0618 14.0928 17.8066C14.512 17.5514 15.1296 17.4056 15.9453 17.3691L16.499 17.5127C16.2256 17.5537 16.0091 17.6517 15.8496 17.8066C15.6947 17.9661 15.6172 18.1598 15.6172 18.3877C15.6172 18.6794 15.7562 18.9163 16.0342 19.0986C16.3122 19.2855 16.7064 19.3789 17.2168 19.3789C17.554 19.3789 17.8457 19.3402 18.0918 19.2627C18.3424 19.1898 18.5361 19.0895 18.6729 18.9619C18.8141 18.8389 18.8848 18.6953 18.8848 18.5312C18.8848 18.3398 18.7959 18.1826 18.6182 18.0596C18.445 17.9411 18.11 17.8454 17.6133 17.7725L16.2188 17.5742C15.6445 17.4967 15.2139 17.3258 14.9268 17.0615C14.6442 16.8018 14.5007 16.4873 14.4961 16.1182C14.4961 15.6807 14.6989 15.3024 15.1045 14.9834C15.5146 14.6598 16.0889 14.457 16.8271 14.375L17.3057 14.5322C17.1462 14.5413 17.0117 14.5824 16.9023 14.6553C16.7975 14.7236 16.7451 14.8171 16.7451 14.9355C16.7451 15.0449 16.8066 15.1406 16.9297 15.2227C17.0527 15.3047 17.2783 15.3685 17.6064 15.4141L19.0078 15.6191C19.7962 15.7331 20.4001 15.9814 20.8193 16.3643C21.2386 16.7425 21.4482 17.2188 21.4482 17.793C21.4482 18.3079 21.2705 18.7523 20.915 19.126C20.5596 19.4997 20.0605 19.7891 19.418 19.9941C18.7754 20.1992 18.0257 20.3018 17.1689 20.3018Z" fill="white"/>
</svg>
