<svg width="24" height="24" viewBox="0 0 24 24" fill="none" xmlns="http://www.w3.org/2000/svg">
<path d="M11.6377 14.8877C12.041 16.0225 12.2666 16.2686 12.9844 16.4053V17H7.42676V16.4053C8.3291 16.2549 8.5 15.9951 8.13086 14.7988L7.83008 13.8555H4.97266L4.68555 14.7783C4.31641 15.9883 4.4668 16.248 5.38965 16.4053V17H2.28613V16.4053C3.01758 16.2617 3.24316 16.043 3.6875 14.7646L6.38086 7.12891H8.9375L11.6377 14.8877ZM5.21191 13.0762H7.58398L6.3877 9.26172L5.21191 13.0762ZM13.1211 12.1328C13.1211 10.7588 14.6182 9.81543 16.8672 9.81543C17.6602 9.81543 18.4121 9.95215 18.9521 10.1572L21.4404 9.96582V10.9092L19.6289 10.7246C20.2988 10.9502 20.75 11.5381 20.75 12.1738C20.75 13.5547 19.1709 14.3203 16.9629 14.3203C16.6758 14.3203 16.4092 14.3066 16.1426 14.2793C15.8145 14.3613 15.5957 14.5322 15.5957 14.8057C15.5957 15.127 15.9375 15.3184 16.6416 15.3184H17.8721C20.1074 15.3184 21.2012 16.2275 21.2012 17.6631C21.1943 19.2422 19.4375 20.3359 16.874 20.3359C14.3037 20.3359 12.875 19.707 12.875 18.8252C12.875 18.1484 13.6611 17.7041 15.6982 17.6768C14.126 17.6631 13.0801 17.0273 13.0801 16.0225C13.0869 15.0176 14.0029 14.3066 15.6299 14.1494C14.249 13.9922 13.1211 13.2881 13.1211 12.1328ZM16.1426 12.0234C16.1426 13.0078 16.4639 13.5889 16.9629 13.5889C17.4961 13.5889 17.7559 13.0078 17.7559 12.0918C17.7559 11.1143 17.4277 10.54 16.9287 10.54C16.3887 10.54 16.1426 11.1211 16.1426 12.0234ZM15.5137 18.6133C15.5137 19.1943 16.0537 19.5635 16.9355 19.5635C17.9131 19.5635 18.5283 19.167 18.5283 18.5859C18.5283 18.0869 18.1455 17.7793 17.3184 17.7793H16.416C15.8623 17.8135 15.5137 18.1211 15.5137 18.6133Z" fill="white"/>
</svg>
