<svg width="24" height="24" viewBox="0 0 24 24" fill="none" xmlns="http://www.w3.org/2000/svg">
<path d="M12.1104 14.9629C12.2425 15.3275 12.3633 15.6032 12.4727 15.79C12.5866 15.9723 12.721 16.1022 12.876 16.1797C13.0355 16.2572 13.252 16.3164 13.5254 16.3574V17H8.74707V16.3574C9.09342 16.3073 9.34635 16.2412 9.50586 16.1592C9.66536 16.0726 9.7474 15.9359 9.75195 15.749C9.75651 15.5622 9.69727 15.2887 9.57422 14.9287L7.40723 8.5166H7.6875L5.55469 14.9287C5.4362 15.2842 5.37695 15.5576 5.37695 15.749C5.38151 15.9359 5.46126 16.0726 5.61621 16.1592C5.77572 16.2412 6.02637 16.3073 6.36816 16.3574V17H3.08691V16.3574C3.37402 16.3164 3.59505 16.2572 3.75 16.1797C3.90951 16.1022 4.04395 15.9678 4.15332 15.7764C4.26725 15.5804 4.39258 15.291 4.5293 14.9082L7.35938 7.12891H9.27344L12.1104 14.9629ZM5.45898 13.7734L5.74609 12.9668H9.94336L10.251 13.7734H5.45898ZM13.9287 12.2627C13.9287 11.7933 14.0723 11.3786 14.3594 11.0186C14.6465 10.654 15.043 10.3714 15.5488 10.1709C16.0547 9.97038 16.6357 9.87012 17.292 9.87012C17.6383 9.87012 17.9688 9.89974 18.2832 9.95898C18.5977 10.0137 18.8688 10.0889 19.0967 10.1846L21.6328 10.0205V10.9365L19.8965 10.8066C20.1426 10.9434 20.3408 11.1462 20.4912 11.415C20.6462 11.6839 20.7236 11.971 20.7236 12.2764C20.7236 12.7594 20.5732 13.1696 20.2725 13.5068C19.9762 13.8441 19.5729 14.1016 19.0625 14.2793C18.5566 14.457 17.9938 14.5459 17.374 14.5459C17.2419 14.5459 17.1097 14.5413 16.9775 14.5322C16.8499 14.5186 16.7064 14.5026 16.5469 14.4844C16.3236 14.5527 16.1572 14.6439 16.0479 14.7578C15.943 14.8672 15.8906 14.9971 15.8906 15.1475C15.8906 15.3298 15.9749 15.471 16.1436 15.5713C16.3122 15.6715 16.5651 15.7217 16.9023 15.7217H18.4199C19.3678 15.7217 20.0924 15.9062 20.5938 16.2754C21.0951 16.6445 21.3434 17.1504 21.3389 17.793C21.3389 18.1712 21.2432 18.5153 21.0518 18.8252C20.8649 19.1396 20.5938 19.4108 20.2383 19.6387C19.8874 19.8665 19.4658 20.042 18.9736 20.165C18.4814 20.2881 17.9346 20.3496 17.333 20.3496C16.5446 20.3496 15.8747 20.2767 15.3232 20.1309C14.7764 19.9896 14.3594 19.7913 14.0723 19.5361C13.7897 19.2855 13.6484 18.9961 13.6484 18.668C13.6484 18.4447 13.7282 18.2419 13.8877 18.0596C14.0472 17.8818 14.291 17.7314 14.6191 17.6084C14.9473 17.4899 15.3665 17.4056 15.877 17.3555C15.3255 17.3372 14.8743 17.2074 14.5234 16.9658C14.1771 16.7197 14.0039 16.3939 14.0039 15.9883C14.0039 15.5781 14.1748 15.2318 14.5166 14.9492C14.863 14.6621 15.3392 14.4525 15.9453 14.3203C15.5762 14.2565 15.2367 14.1335 14.9268 13.9512C14.6214 13.7689 14.3776 13.5365 14.1953 13.2539C14.0176 12.9668 13.9287 12.6364 13.9287 12.2627ZM16.1504 12.167C16.1504 12.6729 16.2666 13.0648 16.499 13.3428C16.7314 13.6162 17.0231 13.7529 17.374 13.7529C17.7113 13.7529 17.987 13.6139 18.2012 13.3359C18.4154 13.0579 18.5225 12.6911 18.5225 12.2354C18.5225 11.7432 18.4108 11.3581 18.1875 11.0801C17.9688 10.7975 17.6725 10.6562 17.2988 10.6562C16.9434 10.6562 16.6631 10.7975 16.458 11.0801C16.2529 11.3581 16.1504 11.7204 16.1504 12.167ZM15.6445 18.4287C15.6445 18.7477 15.7972 19.0052 16.1025 19.2012C16.4079 19.4017 16.8408 19.502 17.4014 19.502C17.9984 19.502 18.4678 19.3949 18.8096 19.1807C19.1559 18.9665 19.3291 18.6953 19.3291 18.3672C19.3291 18.0983 19.222 17.8864 19.0078 17.7314C18.7936 17.5765 18.4518 17.499 17.9824 17.499H16.5947C16.2939 17.5446 16.0592 17.6471 15.8906 17.8066C15.7266 17.9707 15.6445 18.1781 15.6445 18.4287Z" fill="white"/>
</svg>
