<svg width="24" height="24" viewBox="0 0 24 24" fill="none" xmlns="http://www.w3.org/2000/svg">
<path d="M12.3359 15.2568C12.7119 16.2959 12.9307 16.4873 13.7236 16.5967V17H9.9502V16.5967C10.9688 16.4668 11.1191 16.2344 10.7705 15.25L10.1689 13.5342H6.70312L6.15625 15.1338C5.78027 16.2275 5.89648 16.46 6.95605 16.5967V17H3.98926V16.5967C4.83008 16.4873 5.02148 16.2891 5.45215 15.0996L8.3916 7.12891H9.36914L12.3359 15.2568ZM6.88086 13.0146H9.98438L8.41895 8.56445L6.88086 13.0146ZM14.1338 12.4541C14.1338 11.0459 15.4189 10.1094 17.0117 10.1094C17.5518 10.1094 18.0371 10.2119 18.4062 10.3691L20.7852 10.2461V10.8545L18.9805 10.7656C19.5205 11.0801 19.8623 11.6953 19.8623 12.3926C19.8623 13.835 18.5088 14.7168 17.0391 14.7168C16.8066 14.7168 16.5674 14.6895 16.2256 14.6348C15.6309 14.7988 15.3643 15.0791 15.3643 15.4414C15.3643 15.8857 15.7539 16.1182 16.4854 16.1182H17.9824C19.5684 16.1182 20.4775 16.7676 20.4775 17.9365C20.4775 19.3584 19.0078 20.3496 17.0527 20.3496C15.0498 20.3496 13.8398 19.6387 13.8398 18.5996C13.8398 17.8818 14.4961 17.335 15.7744 17.123C14.9062 17.082 14.2637 16.6514 14.2705 15.9541C14.2705 15.2705 14.8516 14.7783 15.8154 14.5117C14.8447 14.2588 14.1338 13.5273 14.1338 12.4541ZM15.4941 12.3789C15.4941 13.5205 16.1436 14.2109 17.0391 14.2109C17.8867 14.2109 18.5088 13.5 18.5088 12.4541C18.5088 11.3467 17.9277 10.6152 16.9639 10.6152C16.0684 10.6152 15.4941 11.3398 15.4941 12.3789ZM15.0293 18.4287C15.0293 19.2148 15.7812 19.7891 17.0938 19.7891C18.4473 19.7891 19.3359 19.2012 19.3359 18.333C19.3359 17.6562 18.8643 17.2393 17.7568 17.2393H16.1709C15.4189 17.3623 15.0293 17.8066 15.0293 18.4287Z" fill="white"/>
</svg>
