<svg width="24" height="24" viewBox="0 0 24 24" fill="none" xmlns="http://www.w3.org/2000/svg">
<path d="M11.7266 15.0791C12.1162 16.1318 12.3145 16.2959 13.1689 16.3984V17H8.95801V16.3984C10.0449 16.2617 10.1885 16.0703 9.83984 15.0654L9.34766 13.6709H5.88184L5.39648 15.0654C5.05469 16.0771 5.18457 16.2617 6.27832 16.3984V17H2.99023V16.3984C3.88574 16.2959 4.05664 16.1318 4.45312 15.0381L7.36523 7.12891H8.80078L11.7266 15.0791ZM6.13477 12.9326H9.09473L7.60449 8.66699L6.13477 12.9326ZM13.5859 12.3584C13.5859 10.9297 14.9053 9.93848 16.6826 9.93848C17.291 9.93848 17.8652 10.0547 18.2617 10.2393L20.7842 10.0957V10.916L19.0615 10.8203C19.4922 11.1143 19.7793 11.7158 19.7793 12.3311C19.7793 13.8076 18.3643 14.6758 16.7373 14.6758C16.4912 14.6758 16.2588 14.6553 15.8965 14.6006C15.3633 14.7783 15.1377 15.0449 15.1377 15.3594C15.1377 15.7695 15.5 15.9883 16.1699 15.9883H17.8311C19.5059 15.9883 20.4697 16.6855 20.4697 17.8818C20.4697 19.3242 18.9727 20.3564 16.7305 20.3564C14.5156 20.3564 13.2852 19.625 13.2852 18.5859C13.2852 17.9023 13.9346 17.3896 15.1992 17.1709C14.3516 17.1094 13.7227 16.665 13.7227 15.9678C13.7227 15.2568 14.3174 14.7441 15.3223 14.4365C14.3447 14.1973 13.5859 13.4453 13.5859 12.3584ZM15.2607 12.2695C15.2607 13.3428 15.9102 13.9375 16.7373 13.9375C17.5166 13.9375 18.1182 13.2744 18.1182 12.3447C18.1182 11.3125 17.5508 10.6768 16.6416 10.6768C15.8145 10.6768 15.2607 11.3535 15.2607 12.2695ZM14.7959 18.3535C14.7959 19.0576 15.5137 19.5498 16.792 19.5498C18.1318 19.5498 18.959 19.0029 18.959 18.2715C18.959 17.6973 18.5283 17.3281 17.4961 17.3281H15.8213C15.165 17.4443 14.7959 17.8203 14.7959 18.3535Z" fill="white"/>
</svg>
