<svg width="24" height="24" viewBox="0 0 24 24" fill="none" xmlns="http://www.w3.org/2000/svg">
<path d="M11.7539 15.1816C11.8815 15.528 12 15.79 12.1094 15.9678C12.2233 16.141 12.3623 16.264 12.5264 16.3369C12.6904 16.4053 12.9137 16.4554 13.1963 16.4873V17H9.30664V16.4873C9.67578 16.4417 9.94238 16.3802 10.1064 16.3027C10.2705 16.2253 10.3548 16.0999 10.3594 15.9268C10.3685 15.7536 10.3138 15.5029 10.1953 15.1748L7.72754 8.1748H7.95312L5.52637 15.168C5.41243 15.5007 5.35775 15.7536 5.3623 15.9268C5.36686 16.0999 5.45117 16.2253 5.61523 16.3027C5.7793 16.3802 6.0459 16.4417 6.41504 16.4873V17H3.22266V16.4873C3.52344 16.4554 3.75586 16.403 3.91992 16.3301C4.08398 16.2572 4.2207 16.1296 4.33008 15.9473C4.43945 15.765 4.5625 15.4938 4.69922 15.1338L7.65234 7.12891H8.78711L11.7539 15.1816ZM5.75879 13.5752L5.98438 12.9463H10.0312L10.2705 13.5752H5.75879ZM13.668 12.4199C13.668 11.946 13.7979 11.529 14.0576 11.1689C14.3219 10.8044 14.6751 10.5218 15.1172 10.3213C15.5638 10.1162 16.0605 10.0137 16.6074 10.0137C16.89 10.0137 17.1566 10.0387 17.4072 10.0889C17.6579 10.139 17.8743 10.2074 18.0566 10.2939L20.5244 10.1641V10.875L18.7744 10.793C18.9977 10.9525 19.1755 11.1735 19.3076 11.4561C19.4398 11.734 19.5059 12.0326 19.5059 12.3516C19.5059 12.8438 19.3691 13.2676 19.0957 13.623C18.8268 13.9785 18.4736 14.252 18.0361 14.4434C17.6032 14.6348 17.1383 14.7305 16.6416 14.7305C16.5231 14.7305 16.4001 14.7236 16.2725 14.71C16.1449 14.6963 15.9899 14.6758 15.8076 14.6484C15.5068 14.7441 15.2904 14.8626 15.1582 15.0039C15.0306 15.1406 14.9668 15.2933 14.9668 15.4619C14.9668 15.6807 15.0579 15.847 15.2402 15.9609C15.4271 16.0703 15.6937 16.125 16.04 16.125H17.7217C18.5055 16.125 19.1162 16.2822 19.5537 16.5967C19.9912 16.9111 20.21 17.3555 20.21 17.9297C20.21 18.276 20.1234 18.5973 19.9502 18.8936C19.7816 19.1898 19.54 19.445 19.2256 19.6592C18.9111 19.8779 18.5374 20.0465 18.1045 20.165C17.6715 20.2881 17.1885 20.3496 16.6553 20.3496C15.9535 20.3496 15.3564 20.2721 14.8643 20.1172C14.3766 19.9668 14.0052 19.7572 13.75 19.4883C13.4948 19.2194 13.3672 18.9095 13.3672 18.5586C13.3672 18.3307 13.4355 18.1211 13.5723 17.9297C13.709 17.7383 13.9118 17.5719 14.1807 17.4307C14.4495 17.2894 14.7845 17.1755 15.1855 17.0889C14.7982 17.0615 14.4746 16.9476 14.2148 16.7471C13.9596 16.5465 13.832 16.2822 13.832 15.9541C13.832 15.626 13.9596 15.3411 14.2148 15.0996C14.4701 14.8581 14.8301 14.6553 15.2949 14.4912C14.9805 14.4046 14.7002 14.2679 14.4541 14.0811C14.2126 13.8896 14.0212 13.6549 13.8799 13.377C13.7386 13.0944 13.668 12.7754 13.668 12.4199ZM15.042 12.3379C15.042 12.903 15.1947 13.3382 15.5 13.6436C15.8099 13.9489 16.1904 14.1016 16.6416 14.1016C17.0609 14.1016 17.4141 13.9443 17.7012 13.6299C17.9928 13.3154 18.1387 12.9121 18.1387 12.4199C18.1387 11.873 17.9974 11.4424 17.7148 11.1279C17.4323 10.8089 17.0426 10.6494 16.5459 10.6494C16.0993 10.6494 15.737 10.8089 15.459 11.1279C15.181 11.4424 15.042 11.8457 15.042 12.3379ZM14.584 18.3604C14.584 18.734 14.7686 19.0417 15.1377 19.2832C15.5068 19.5293 16.0286 19.6523 16.7031 19.6523C17.4186 19.6523 17.9814 19.5202 18.3916 19.2559C18.8018 18.9961 19.0068 18.6657 19.0068 18.2646C19.0068 17.9548 18.8861 17.7064 18.6445 17.5195C18.403 17.3327 18.0088 17.2393 17.4619 17.2393H15.6777C15.3223 17.3076 15.0511 17.4375 14.8643 17.6289C14.6774 17.8249 14.584 18.0687 14.584 18.3604Z" fill="white"/>
</svg>
