<svg width="24" height="24" viewBox="0 0 24 24" fill="none" xmlns="http://www.w3.org/2000/svg">
<path d="M12.876 15.2011C13.0127 16.3017 13.2314 16.4931 13.874 16.5957L13.792 16.999H9.7041L9.78613 16.5957C10.7295 16.4658 10.9209 16.1855 10.8115 15.1875L10.6406 13.6084H7.57129L6.79883 15.0781C6.19727 16.2197 6.30664 16.4521 7.24316 16.5957L7.1543 16.999H4.34473L4.43359 16.5957C5.17871 16.4863 5.41797 16.2881 6.10156 15.0576L10.5039 7.12109H11.8574L12.876 15.2011ZM7.8584 13.0683H10.5859L10.1143 8.76855L7.8584 13.0683ZM16.8271 20.1572C14.9951 20.1572 13.6484 19.5556 13.6484 18.5508C13.6484 17.8193 14.4482 17.2793 15.8154 17.0879C15.1523 16.8623 14.8311 16.4453 14.8311 15.9394C14.8242 15.2832 15.3643 14.7705 16.4922 14.5517C15.4805 14.2236 14.9746 13.458 14.9746 12.5967C14.9746 11.1953 16.1094 10.1015 18.0166 10.1015C18.6797 10.1015 19.2061 10.2246 19.6162 10.4365L21.8721 10.3408L21.7354 11.0107L20.1699 10.833C20.5391 11.209 20.71 11.6943 20.71 12.2138C20.71 13.5947 19.5889 14.7363 17.668 14.7295C17.3877 14.7295 17.1279 14.7021 16.8887 14.6543C16.4648 14.7568 16.2393 14.9756 16.2461 15.2285C16.2461 15.4746 16.4307 15.6728 17.0527 15.789L18.2695 16.0215C19.6777 16.2812 20.3135 16.9443 20.3135 17.9219C20.3135 19.3027 18.7002 20.1572 16.8271 20.1572ZM16.7314 12.9179C16.7314 13.7109 17.0391 14.2783 17.6543 14.2783C18.502 14.2783 18.9668 13.0205 18.9668 11.9062C18.9668 11.1133 18.6592 10.5527 18.0371 10.5527C17.1895 10.5527 16.7314 11.8174 16.7314 12.9179ZM15.0566 18.4004C15.0566 19.1318 15.7881 19.6582 16.8887 19.6582C17.9756 19.6582 18.7822 19.1728 18.7822 18.4551C18.7822 17.9492 18.4473 17.6074 17.4629 17.4228L16.2734 17.2109C16.2666 17.2041 16.2598 17.2041 16.2461 17.2041C15.46 17.4228 15.0566 17.833 15.0566 18.4004Z" fill="white"/>
</svg>
