<svg width="24" height="24" viewBox="0 0 24 24" fill="none" xmlns="http://www.w3.org/2000/svg">
<path d="M12.1992 15.0039C12.5889 16.0635 12.7871 16.2275 13.6348 16.3369V17H9.19141V16.3369C10.2715 16.1934 10.4082 16.0088 10.0596 14.9902L9.62891 13.7393H6.23145L5.80078 14.9902C5.45898 16.0088 5.58203 16.1934 6.66211 16.3369V17H3.31934V16.3369C4.20801 16.2275 4.37891 16.0635 4.77539 14.9697L7.66016 7.12891H9.30762L12.1992 15.0039ZM6.50488 12.9258H9.34863L7.91992 8.79688L6.50488 12.9258ZM14.0039 12.3105C14.0039 10.8818 15.3574 9.89062 17.2168 9.89062C17.8662 9.89062 18.4746 10.0068 18.9053 10.1982L21.4551 10.0479V10.9502L19.7461 10.8408C20.1699 11.1143 20.457 11.709 20.457 12.3174C20.457 13.7871 19.0146 14.6416 17.2852 14.6416C17.0391 14.6416 16.793 14.6211 16.4512 14.5732C15.9658 14.7305 15.7539 14.9766 15.7539 15.2773C15.7539 15.6738 16.1025 15.8789 16.752 15.8789H18.3857C20.1494 15.8789 21.1475 16.6172 21.1475 17.8545C21.1475 19.3174 19.6025 20.3564 17.2715 20.3564C14.9814 20.3564 13.7168 19.6318 13.7168 18.6133C13.7168 17.9297 14.3799 17.417 15.7061 17.2324C14.79 17.1777 14.127 16.7061 14.127 15.9814C14.127 15.2227 14.7695 14.6963 15.8291 14.3955C14.8242 14.1699 14.0039 13.4248 14.0039 12.3105ZM15.9043 12.2217C15.9043 13.2539 16.5127 13.8281 17.2852 13.8281C18.0234 13.8281 18.5771 13.1924 18.5771 12.2969C18.5771 11.2988 18.0439 10.7041 17.2031 10.7041C16.417 10.7041 15.9043 11.3398 15.9043 12.2217ZM15.4395 18.3604C15.4395 19.0166 16.1162 19.4746 17.333 19.4746C18.6182 19.4746 19.3975 18.9688 19.3975 18.2783C19.3975 17.7314 18.9805 17.3896 17.9961 17.3896H16.417C15.7949 17.4922 15.4395 17.8545 15.4395 18.3604Z" fill="white"/>
</svg>
