<svg width="24" height="24" viewBox="0 0 24 24" fill="none" xmlns="http://www.w3.org/2000/svg">
<path d="M8.22559 6.20605L11.7529 17H10.3926L9.55176 14.3818H4.84863L4.00781 17H2.64746L6.1748 6.20605H8.22559ZM5.0332 13.6846H9.36719L7.2002 7.04688L5.0332 13.6846ZM16.1006 18.8936C16.57 18.8936 16.9893 18.8822 17.3584 18.8594C17.7275 18.8366 18.0374 18.7773 18.2881 18.6816C18.5433 18.5859 18.737 18.4401 18.8691 18.2441C19.0013 18.0527 19.0674 17.7884 19.0674 17.4512C19.0674 17.1504 19.0036 16.9134 18.876 16.7402C18.7529 16.5625 18.5729 16.4281 18.3359 16.3369C18.1035 16.2458 17.8187 16.1888 17.4814 16.166C17.1488 16.1387 16.7751 16.125 16.3604 16.125C16.1507 16.125 15.9297 16.1273 15.6973 16.1318C15.4694 16.1318 15.2324 16.1318 14.9863 16.1318C14.8906 16.2048 14.7949 16.2868 14.6992 16.3779C14.6035 16.4691 14.5169 16.5693 14.4395 16.6787C14.3665 16.7881 14.305 16.9043 14.2549 17.0273C14.2093 17.1549 14.1865 17.2917 14.1865 17.4375C14.1865 17.7064 14.2184 17.932 14.2822 18.1143C14.346 18.3011 14.4508 18.4515 14.5967 18.5654C14.7471 18.6839 14.943 18.7682 15.1846 18.8184C15.4307 18.8685 15.736 18.8936 16.1006 18.8936ZM16.4834 12.9736C16.734 12.9189 16.9596 12.8574 17.1602 12.7891C17.3607 12.7207 17.5293 12.6227 17.666 12.4951C17.8073 12.363 17.9144 12.1898 17.9873 11.9756C18.0602 11.7568 18.0967 11.472 18.0967 11.1211C18.0967 10.8659 18.0602 10.6517 17.9873 10.4785C17.9189 10.3053 17.8118 10.1663 17.666 10.0615C17.5202 9.95671 17.3356 9.88152 17.1123 9.83595C16.8936 9.79037 16.6361 9.76758 16.3398 9.76758C16.0938 9.76758 15.859 9.78809 15.6357 9.8291C15.417 9.87012 15.2256 9.94531 15.0615 10.0547C14.8975 10.1641 14.7653 10.3145 14.665 10.5059C14.5693 10.6927 14.5215 10.932 14.5215 11.2236C14.5215 11.4378 14.5557 11.6429 14.624 11.8389C14.6969 12.0348 14.7881 12.2148 14.8975 12.3789C15.0114 12.543 15.139 12.6865 15.2803 12.8096C15.4215 12.9326 15.5628 13.0283 15.7041 13.0967L16.4834 12.9736ZM18.6709 9.99317C18.8441 10.1663 18.9785 10.3395 19.0742 10.5127C19.1745 10.6859 19.2246 10.8887 19.2246 11.1211C19.2246 11.4857 19.179 11.8161 19.0879 12.1123C18.9967 12.404 18.8532 12.6592 18.6572 12.8779C18.4613 13.0967 18.2083 13.2812 17.8984 13.4316C17.5931 13.582 17.2217 13.696 16.7842 13.7734L14.3916 14.2109L14.5215 15.2227H16.5039C17.1465 15.2227 17.7002 15.2614 18.165 15.3389C18.6299 15.4118 19.0104 15.5371 19.3066 15.7148C19.6029 15.8926 19.8216 16.125 19.9629 16.4121C20.1042 16.6992 20.1748 17.0547 20.1748 17.4785C20.1748 17.9753 20.0723 18.3809 19.8672 18.6953C19.6667 19.0143 19.3818 19.2627 19.0127 19.4404C18.6481 19.6227 18.2106 19.748 17.7002 19.8164C17.1943 19.8848 16.6361 19.9189 16.0254 19.9189C15.6016 19.9189 15.2096 19.8757 14.8496 19.7891C14.4941 19.707 14.1865 19.5749 13.9268 19.3926C13.667 19.2103 13.4642 18.9756 13.3184 18.6885C13.1771 18.4014 13.1064 18.055 13.1064 17.6494C13.1064 17.4261 13.1452 17.2256 13.2227 17.0479C13.3001 16.8701 13.4004 16.7152 13.5234 16.583C13.6465 16.4463 13.7855 16.3324 13.9404 16.2412C14.0999 16.1501 14.2617 16.0794 14.4258 16.0293C14.2526 15.9928 14.1068 15.9404 13.9883 15.8721C13.8743 15.7992 13.7786 15.6989 13.7012 15.5713C13.6237 15.4391 13.5622 15.2705 13.5166 15.0654C13.471 14.8604 13.4346 14.6029 13.4072 14.293C13.4027 14.2793 13.4004 14.2451 13.4004 14.1904C13.4004 14.0127 13.4528 13.8714 13.5576 13.7666C13.667 13.6572 13.7946 13.5729 13.9404 13.5137C14.0863 13.4499 14.2367 13.4043 14.3916 13.377C14.5465 13.3451 14.6719 13.3177 14.7676 13.2949C14.599 13.2448 14.4326 13.1559 14.2686 13.0283C14.109 12.9007 13.9655 12.7435 13.8379 12.5566C13.7148 12.3698 13.6146 12.1579 13.5371 11.9209C13.4596 11.6839 13.4209 11.431 13.4209 11.1621C13.4209 10.8066 13.487 10.4876 13.6191 10.2051C13.7513 9.92253 13.9427 9.68327 14.1934 9.4873C14.444 9.28678 14.7516 9.13411 15.1162 9.0293C15.4854 8.91992 15.9023 8.86523 16.3672 8.86523C16.7363 8.86523 17.0781 8.90397 17.3926 8.98145C17.707 9.05892 17.9805 9.19337 18.2129 9.38478C18.3861 9.29819 18.5296 9.22983 18.6436 9.1797C18.7575 9.12501 18.876 9.08398 18.999 9.05664C19.1221 9.02474 19.2656 9.00423 19.4297 8.99512C19.5983 8.986 19.8193 8.98145 20.0928 8.98145H20.2979V9.99317H18.6709Z" fill="white"/>
</svg>
