<svg width="24" height="24" viewBox="0 0 24 24" fill="none" xmlns="http://www.w3.org/2000/svg">
<path d="M3.09995 16.9999V16.8599H3.61794C3.79527 16.8599 3.93994 16.8272 4.05194 16.7619C4.17327 16.6966 4.2806 16.5892 4.37394 16.4399C4.46728 16.2906 4.55594 16.0852 4.63994 15.8239L7.55194 7.00391H8.93795L11.8779 15.9359C11.9526 16.1692 12.0319 16.3559 12.1159 16.4959C12.1999 16.6266 12.2979 16.7199 12.4099 16.7759C12.5219 16.8319 12.6619 16.8599 12.8299 16.8599H12.8999V16.9999H8.57395V16.8599H9.24594C9.46061 16.8599 9.6146 16.8226 9.70794 16.7479C9.81061 16.6732 9.86195 16.5612 9.86195 16.4119C9.86195 16.3466 9.85261 16.2812 9.83395 16.2159C9.82461 16.1412 9.80595 16.0572 9.77795 15.9639C9.75928 15.8706 9.73594 15.7772 9.70794 15.6839L8.99395 13.3459H5.60594L4.90595 15.4879C4.85928 15.6092 4.81728 15.7306 4.77995 15.8519C4.75195 15.9639 4.7286 16.0666 4.70994 16.1599C4.69128 16.2439 4.68195 16.3232 4.68195 16.3979C4.68195 16.5659 4.73327 16.6872 4.83594 16.7619C4.9386 16.8272 5.09728 16.8599 5.31195 16.8599H6.20795V16.9999H3.09995ZM5.66195 13.2059H8.95195L8.04195 10.1119C7.96728 9.88791 7.88794 9.64058 7.80394 9.36991C7.72927 9.09924 7.6546 8.82858 7.57994 8.55791C7.5146 8.27791 7.45395 8.02591 7.39795 7.80191C7.35128 7.96058 7.29995 8.13324 7.24395 8.31991C7.18794 8.50658 7.12727 8.69791 7.06195 8.89391C6.99661 9.08058 6.93128 9.26724 6.86595 9.45391C6.80995 9.64058 6.75394 9.81324 6.69794 9.97191L5.66195 13.2059ZM15.7219 20.3459C14.6673 20.3459 13.8926 20.1966 13.3979 19.8979C12.9033 19.6086 12.6559 19.2026 12.6559 18.6799C12.6559 18.3906 12.7306 18.1432 12.8799 17.9379C13.0386 17.7326 13.2859 17.5646 13.6219 17.4339C13.9579 17.3032 14.3966 17.2239 14.9379 17.1959C14.4433 17.1212 14.0653 16.9486 13.8039 16.6779C13.5519 16.3979 13.4259 16.0759 13.4259 15.7119C13.4259 15.3572 13.5426 15.0492 13.7759 14.7879C14.0186 14.5266 14.3686 14.3212 14.8259 14.1719C14.3499 14.0132 13.9673 13.7426 13.6779 13.3599C13.3886 12.9679 13.2439 12.4826 13.2439 11.9039C13.2439 11.0732 13.4679 10.4339 13.9159 9.98591C14.3733 9.53791 15.0733 9.31391 16.0159 9.31391C16.3613 9.31391 16.6833 9.36524 16.9819 9.46791C17.2806 9.56124 17.5373 9.69658 17.7519 9.87391C17.8919 9.67791 18.0226 9.51458 18.1439 9.38391C18.2653 9.24391 18.3959 9.13658 18.5359 9.06191C18.6853 8.98724 18.8486 8.94991 19.0259 8.94991C19.3059 8.94991 19.5206 9.02458 19.6699 9.17391C19.8193 9.32324 19.8939 9.51458 19.8939 9.74791C19.8939 9.94391 19.8286 10.1259 19.6979 10.2939C19.5673 10.4619 19.3293 10.5459 18.9839 10.5459C18.9839 10.2566 18.9279 10.0419 18.8159 9.90191C18.7133 9.75258 18.5686 9.67791 18.3819 9.67791C18.2886 9.67791 18.1953 9.70124 18.1019 9.74791C18.0179 9.79458 17.9386 9.86458 17.8639 9.95791C18.1346 10.1912 18.3399 10.4712 18.4799 10.7979C18.6293 11.1152 18.7039 11.4792 18.7039 11.8899C18.7039 12.6086 18.4846 13.2012 18.0459 13.6679C17.6166 14.1252 16.9399 14.3539 16.0159 14.3539C15.8293 14.3539 15.6473 14.3446 15.4699 14.3259C15.3019 14.2979 15.1386 14.2606 14.9799 14.2139C14.8213 14.3072 14.7093 14.4099 14.6439 14.5219C14.5786 14.6246 14.5459 14.7412 14.5459 14.8719C14.5459 15.0866 14.6206 15.2499 14.7699 15.3619C14.9193 15.4646 15.1433 15.5159 15.4419 15.5159H16.9679C17.5559 15.5159 18.0319 15.5999 18.3959 15.7679C18.7693 15.9359 19.0446 16.1786 19.2219 16.4959C19.4086 16.8132 19.5019 17.1912 19.5019 17.6299C19.5019 18.4792 19.1939 19.1419 18.5779 19.6179C17.9619 20.1032 17.0099 20.3459 15.7219 20.3459ZM15.9039 20.2059C16.3613 20.2059 16.7533 20.1406 17.0799 20.0099C17.4066 19.8886 17.6539 19.7019 17.8219 19.4499C17.9993 19.1979 18.0879 18.8759 18.0879 18.4839C18.0879 18.0826 17.9853 17.7746 17.7799 17.5599C17.5839 17.3452 17.2526 17.2379 16.7859 17.2379H15.5539C15.2646 17.2379 15.0126 17.2892 14.7979 17.3919C14.5926 17.4946 14.4339 17.6486 14.3219 17.8539C14.2099 18.0686 14.1539 18.3346 14.1539 18.6519C14.1539 19.0159 14.2239 19.3099 14.3639 19.5339C14.5039 19.7672 14.7046 19.9352 14.9659 20.0379C15.2273 20.1499 15.5399 20.2059 15.9039 20.2059ZM15.9739 14.2139C16.2073 14.2139 16.3893 14.1439 16.5199 14.0039C16.6599 13.8546 16.7579 13.6119 16.8139 13.2759C16.8793 12.9399 16.9119 12.4826 16.9119 11.9039C16.9119 11.2786 16.8793 10.7886 16.8139 10.4339C16.7579 10.0792 16.6599 9.82724 16.5199 9.67791C16.3893 9.52858 16.2073 9.45391 15.9739 9.45391C15.7499 9.45391 15.5679 9.53324 15.4279 9.69191C15.2879 9.84124 15.1853 10.0932 15.1199 10.4479C15.0639 10.8026 15.0359 11.2972 15.0359 11.9319C15.0359 12.5012 15.0639 12.9539 15.1199 13.2899C15.1853 13.6259 15.2879 13.8639 15.4279 14.0039C15.5679 14.1439 15.7499 14.2139 15.9739 14.2139Z" fill="white"/>
</svg>
