<svg width="24" height="24" viewBox="0 0 24 24" fill="none" xmlns="http://www.w3.org/2000/svg">
<path d="M2.49417 16.9996H5.65817V16.5656L4.13217 16.3836H3.88017L2.49417 16.5656V16.9996ZM3.48817 16.9996H4.13217L7.01617 7.89965L7.07217 7.70365H6.77817L9.78817 16.9996H11.4962L7.98217 6.63965H6.94617L3.48817 16.9996ZM5.02817 13.5836H9.53617L9.46617 13.1216H5.09817L5.02817 13.5836ZM8.12217 16.9996H12.4762V16.5516L10.5862 16.3836H9.99817L8.12217 16.5516V16.9996ZM16.026 20.6396C18.728 20.6396 20.24 19.2816 20.24 17.8956C20.24 16.7056 19.428 15.9216 17.496 15.9216H15.452C14.696 15.9216 14.388 15.6276 14.388 15.1656C14.388 14.7316 14.57 14.4376 14.99 13.9616L14.696 13.8076V13.9336C13.758 14.6056 13.422 15.1656 13.422 15.7956C13.422 16.4396 13.8 16.9016 14.542 17.0976V17.1396C14.906 17.2516 15.242 17.2656 15.844 17.2656H17.496C18.588 17.2656 18.938 17.7976 18.938 18.3436C18.938 19.3796 17.972 20.0936 16.04 20.0936C14.752 20.0936 14.01 19.5617 14.01 18.5396C14.01 17.8816 14.304 17.5176 14.906 16.9856L14.85 16.8876C13.59 17.3496 12.974 17.9796 12.974 18.7916C12.974 19.8416 13.744 20.6396 16.026 20.6396ZM16.236 14.4516C18.112 14.4516 19.176 13.4156 19.176 11.9456C19.176 11.2316 18.952 10.6436 18.532 10.2236L18.476 10.1676C18.014 9.69165 17.258 9.41165 16.25 9.41165C14.36 9.41165 13.31 10.4336 13.31 11.9456C13.31 13.4156 14.346 14.4516 16.236 14.4516ZM16.236 14.0176C15.298 14.0176 14.752 13.2056 14.752 11.9456C14.752 10.6436 15.326 9.83165 16.25 9.83165C17.16 9.83165 17.748 10.6296 17.748 11.9316C17.748 13.1916 17.174 14.0176 16.236 14.0176ZM18.028 10.3356L20.324 10.4756V9.59365L20.086 9.43965L18.112 10.1116H18.028V10.3356Z" fill="white"/>
</svg>
