<svg width="24" height="24" viewBox="0 0 24 24" fill="none" xmlns="http://www.w3.org/2000/svg">
<path d="M3.45574 16.9999V16.8599H3.94574C4.11374 16.8599 4.25841 16.8319 4.37974 16.7759C4.50108 16.7106 4.60374 16.6079 4.68774 16.4679C4.78108 16.3186 4.86508 16.1086 4.93974 15.8379L7.48774 7.00391H9.19574L11.9397 15.9919C12.0051 16.2066 12.0751 16.3792 12.1497 16.5099C12.2337 16.6406 12.3271 16.7339 12.4297 16.7899C12.5324 16.8366 12.6537 16.8599 12.7937 16.8599H12.8917V16.9999H8.57974V16.8599H9.18174C9.38708 16.8599 9.52708 16.8226 9.60174 16.7479C9.67641 16.6639 9.71374 16.5472 9.71374 16.3979C9.71374 16.3326 9.70441 16.2626 9.68574 16.1879C9.67641 16.1132 9.66241 16.0339 9.64374 15.9499C9.62508 15.8566 9.60174 15.7679 9.57374 15.6839L8.94374 13.3459H5.80774L5.20574 15.4599C5.15908 15.5906 5.12174 15.7166 5.09374 15.8379C5.07508 15.9499 5.05641 16.0526 5.03774 16.1459C5.01908 16.2392 5.00974 16.3232 5.00974 16.3979C5.00974 16.5659 5.05174 16.6872 5.13574 16.7619C5.21974 16.8272 5.35041 16.8599 5.52774 16.8599H6.38174V16.9999H3.45574ZM5.84974 13.2059H8.90174L7.92174 9.50991C7.86574 9.31391 7.80974 9.11324 7.75374 8.90791C7.69774 8.69324 7.64174 8.47858 7.58574 8.26391C7.52974 8.03991 7.47841 7.81591 7.43174 7.59191C7.39441 7.75058 7.35708 7.90924 7.31974 8.06791C7.28241 8.21724 7.24041 8.36658 7.19374 8.51591C7.14708 8.66524 7.10041 8.81458 7.05374 8.96391C7.01641 9.11324 6.97908 9.25791 6.94174 9.39791L5.84974 13.2059ZM15.5263 20.2899C14.5556 20.2899 13.8089 20.1499 13.2863 19.8699C12.7729 19.5992 12.5163 19.2026 12.5163 18.6799C12.5163 18.3906 12.6003 18.1432 12.7683 17.9379C12.9363 17.7419 13.1883 17.5832 13.5243 17.4619C13.8603 17.3406 14.2803 17.2659 14.7843 17.2379C14.2616 17.1912 13.8696 17.0232 13.6083 16.7339C13.3469 16.4446 13.2163 16.1226 13.2163 15.7679C13.2163 15.4226 13.3329 15.1052 13.5663 14.8159C13.8089 14.5266 14.1729 14.3119 14.6583 14.1719C14.1823 14.0132 13.7949 13.7426 13.4963 13.3599C13.1976 12.9679 13.0483 12.4732 13.0483 11.8759C13.0483 11.0546 13.2723 10.4246 13.7203 9.98591C14.1683 9.53791 14.8683 9.31391 15.8203 9.31391C16.1563 9.31391 16.4689 9.36058 16.7583 9.45391C17.0569 9.53791 17.3229 9.66391 17.5563 9.83191C17.6496 9.65458 17.7476 9.49591 17.8503 9.35591C17.9529 9.21591 18.0789 9.10391 18.2283 9.01991C18.3776 8.92658 18.5549 8.87991 18.7603 8.87991C19.0403 8.87991 19.2503 8.96391 19.3903 9.13191C19.5396 9.29058 19.6143 9.48191 19.6143 9.70591C19.6143 9.93924 19.5443 10.1399 19.4043 10.3079C19.2643 10.4759 19.0309 10.5599 18.7043 10.5599C18.7043 10.2332 18.6576 9.99524 18.5643 9.84591C18.4803 9.68724 18.3496 9.60791 18.1723 9.60791C18.0789 9.60791 17.9903 9.63124 17.9063 9.67791C17.8316 9.72458 17.7476 9.80391 17.6543 9.91591C17.9343 10.1399 18.1489 10.4199 18.2983 10.7559C18.4569 11.0826 18.5363 11.4512 18.5363 11.8619C18.5363 12.5992 18.3169 13.2012 17.8783 13.6679C17.4489 14.1252 16.7629 14.3539 15.8203 14.3539C15.6429 14.3539 15.4703 14.3446 15.3023 14.3259C15.1343 14.2979 14.9709 14.2652 14.8123 14.2279C14.6909 14.3119 14.6023 14.4099 14.5463 14.5219C14.4903 14.6246 14.4623 14.7366 14.4623 14.8579C14.4623 15.0539 14.5276 15.2079 14.6583 15.3199C14.7983 15.4226 15.0176 15.4739 15.3163 15.4739H16.7163C17.2949 15.4739 17.7663 15.5579 18.1303 15.7259C18.5036 15.8939 18.7789 16.1366 18.9563 16.4539C19.1429 16.7712 19.2363 17.1539 19.2363 17.6019C19.2363 18.4326 18.9376 19.0859 18.3403 19.5619C17.7429 20.0472 16.8049 20.2899 15.5263 20.2899ZM15.7783 20.1499C16.2169 20.1499 16.5809 20.0892 16.8703 19.9679C17.1689 19.8466 17.3929 19.6646 17.5423 19.4219C17.6916 19.1792 17.7663 18.8759 17.7663 18.5119C17.7663 18.1106 17.6636 17.8026 17.4583 17.5879C17.2529 17.3826 16.9123 17.2799 16.4363 17.2799H15.3723C15.1483 17.2799 14.9336 17.3219 14.7283 17.4059C14.5323 17.4992 14.3736 17.6439 14.2523 17.8399C14.1403 18.0452 14.0843 18.3159 14.0843 18.6519C14.0843 19.0159 14.1543 19.3052 14.2943 19.5199C14.4436 19.7439 14.6443 19.9026 14.8963 19.9959C15.1483 20.0986 15.4423 20.1499 15.7783 20.1499ZM15.7923 14.2139C16.0069 14.2139 16.1749 14.1486 16.2963 14.0179C16.4176 13.8872 16.5016 13.6539 16.5483 13.3179C16.6043 12.9819 16.6323 12.5106 16.6323 11.9039C16.6323 11.2506 16.6043 10.7466 16.5483 10.3919C16.5016 10.0372 16.4129 9.79458 16.2823 9.66391C16.1609 9.52391 15.9976 9.45391 15.7923 9.45391C15.5869 9.45391 15.4189 9.52391 15.2883 9.66391C15.1669 9.80391 15.0783 10.0512 15.0223 10.4059C14.9663 10.7606 14.9383 11.2646 14.9383 11.9179C14.9383 12.5152 14.9663 12.9819 15.0223 13.3179C15.0783 13.6539 15.1669 13.8872 15.2883 14.0179C15.4096 14.1486 15.5776 14.2139 15.7923 14.2139Z" fill="white"/>
</svg>
