<svg width="24" height="24" viewBox="0 0 24 24" fill="none" xmlns="http://www.w3.org/2000/svg">
<path d="M9.80796 16.9999L9.47196 15.0539H7.38596L7.04996 16.9999H4.45996L6.82596 7.00391H9.97596L12.37 16.9999H9.80796ZM8.72996 10.7699C8.69263 10.5179 8.65529 10.2752 8.61796 10.0419C8.58063 9.80858 8.54796 9.58458 8.51996 9.36991C8.49196 9.14591 8.46396 8.94058 8.43596 8.75391C8.41729 8.93124 8.38929 9.12724 8.35196 9.34191C8.32396 9.55658 8.29129 9.78058 8.25396 10.0139C8.21663 10.2472 8.17463 10.4899 8.12796 10.7419L7.73596 13.0099H9.10796L8.72996 10.7699ZM15.05 9.11791C15.4046 9.11791 15.6986 9.19724 15.932 9.35591C16.1746 9.51458 16.3986 9.80391 16.604 10.2239H16.73L16.912 9.25791H18.886V16.3139C18.886 17.1819 18.7646 17.9146 18.522 18.5119C18.2793 19.1186 17.8966 19.5759 17.374 19.8839C16.8606 20.2012 16.1933 20.3599 15.372 20.3599C14.924 20.3599 14.518 20.3086 14.154 20.2059C13.79 20.1126 13.4446 19.9679 13.118 19.7719V17.8259C13.3886 17.9659 13.6453 18.0779 13.888 18.1619C14.14 18.2552 14.3826 18.3206 14.616 18.3579C14.8493 18.4046 15.078 18.4279 15.302 18.4279C15.6846 18.4279 15.9973 18.3299 16.24 18.1339C16.4826 17.9472 16.604 17.6206 16.604 17.1539V17.0699C16.604 16.9112 16.6086 16.7292 16.618 16.5239C16.6366 16.3186 16.6553 16.1459 16.674 16.0059H16.604C16.3986 16.4072 16.1746 16.6966 15.932 16.8739C15.6893 17.0512 15.372 17.1399 14.98 17.1399C14.308 17.1399 13.776 16.7852 13.384 16.0759C12.992 15.3666 12.796 14.4052 12.796 13.1919C12.796 12.3426 12.8846 11.6146 13.062 11.0079C13.2393 10.4012 13.496 9.93458 13.832 9.60791C14.168 9.28124 14.574 9.11791 15.05 9.11791ZM15.806 11.0639C15.666 11.0639 15.54 11.1432 15.428 11.3019C15.3253 11.4512 15.246 11.6846 15.19 12.0019C15.134 12.3192 15.106 12.7252 15.106 13.2199C15.106 13.8732 15.162 14.3679 15.274 14.7039C15.3953 15.0306 15.5726 15.1939 15.806 15.1939C15.946 15.1939 16.0673 15.1612 16.17 15.0959C16.2726 15.0212 16.3566 14.9139 16.422 14.7739C16.4873 14.6246 16.534 14.4379 16.562 14.2139C16.59 13.9899 16.604 13.7239 16.604 13.4159V13.0099C16.604 12.5432 16.576 12.1699 16.52 11.8899C16.464 11.6006 16.3753 11.3906 16.254 11.2599C16.142 11.1292 15.9926 11.0639 15.806 11.0639Z" fill="white"/>
</svg>
