<svg width="24" height="24" viewBox="0 0 24 24" fill="none" xmlns="http://www.w3.org/2000/svg">
<path d="M11.9658 17.0002L10.7058 13.1502H6.98176L5.67976 17.0002H5.30176L8.67576 6.99023H9.09576L12.3578 17.0002H11.9658ZM9.24976 8.58624C9.21242 8.46491 9.17509 8.34356 9.13776 8.22223C9.10042 8.1009 9.05842 7.97023 9.01176 7.83023C8.96509 7.69023 8.91842 7.5409 8.87176 7.38223C8.83442 7.52223 8.79242 7.66223 8.74576 7.80223C8.69909 7.9329 8.65242 8.06356 8.60576 8.19423C8.56842 8.3249 8.52642 8.46023 8.47976 8.60023L7.09376 12.8002H10.5798L9.24976 8.58624ZM15.9684 9.46824C16.5938 9.46824 17.0698 9.60356 17.3964 9.87423C17.7231 10.1449 17.9704 10.4762 18.1384 10.8682H18.1664L18.2224 9.60823H18.5304V17.4062C18.5304 18.0129 18.4324 18.5355 18.2364 18.9742C18.0498 19.4222 17.7464 19.7675 17.3264 20.0102C16.9064 20.2529 16.3558 20.3742 15.6744 20.3742C15.2078 20.3742 14.7924 20.3275 14.4284 20.2342C14.0738 20.1409 13.7471 20.0242 13.4484 19.8842V19.4782C13.6538 19.5809 13.8684 19.6742 14.0924 19.7582C14.3258 19.8422 14.5731 19.9075 14.8344 19.9542C15.1051 20.0009 15.3851 20.0242 15.6744 20.0242C16.5611 20.0242 17.1958 19.7955 17.5784 19.3382C17.9704 18.8809 18.1664 18.2369 18.1664 17.4062V16.7902C18.1664 16.5382 18.1664 16.3142 18.1664 16.1182C18.1758 15.9129 18.1851 15.6702 18.1944 15.3902H18.1664C18.0171 15.9315 17.7418 16.3609 17.3404 16.6782C16.9391 16.9862 16.4258 17.1402 15.8004 17.1402C14.9604 17.1402 14.3024 16.8275 13.8264 16.2022C13.3504 15.5769 13.1124 14.6389 13.1124 13.3882C13.1124 12.5762 13.2151 11.8809 13.4204 11.3022C13.6258 10.7142 13.9384 10.2615 14.3584 9.94423C14.7878 9.6269 15.3244 9.46824 15.9684 9.46824ZM15.9684 9.81823C15.3898 9.81823 14.9184 9.9629 14.5544 10.2522C14.1904 10.5415 13.9198 10.9522 13.7424 11.4842C13.5744 12.0162 13.4904 12.6509 13.4904 13.3882C13.4904 14.5175 13.6864 15.3669 14.0784 15.9362C14.4798 16.5055 15.0538 16.7902 15.8004 16.7902C16.2764 16.7902 16.6638 16.6969 16.9624 16.5102C17.2704 16.3235 17.5084 16.0809 17.6764 15.7822C17.8538 15.4835 17.9798 15.1522 18.0544 14.7882C18.1291 14.4149 18.1664 14.0462 18.1664 13.6822V12.7022C18.1664 12.1609 18.0964 11.6755 17.9564 11.2462C17.8164 10.8075 17.5878 10.4622 17.2704 10.2102C16.9531 9.9489 16.5191 9.81823 15.9684 9.81823Z" fill="white"/>
</svg>
