<svg width="24" height="24" viewBox="0 0 24 24" fill="none" xmlns="http://www.w3.org/2000/svg">
<path d="M4.51678 16.9996L9.47278 6.97559H10.3548L11.0828 16.9996H10.2988L10.0608 13.4996H7.06479L5.37078 16.9996H4.51678ZM7.41478 12.7856H10.0188L9.82278 9.39759C9.80411 9.14559 9.78545 8.88426 9.76678 8.61359C9.75745 8.34292 9.75278 8.09559 9.75278 7.87159H9.71078C9.61746 8.09559 9.51011 8.33826 9.38878 8.59959C9.27678 8.86092 9.15546 9.13159 9.02479 9.41159L7.41478 12.7856ZM13.7399 20.3596C13.3759 20.3596 13.0353 20.3129 12.7179 20.2196C12.4006 20.1356 12.1346 20.0376 11.9199 19.9256V19.1696C12.0693 19.2536 12.2373 19.3329 12.4239 19.4076C12.6199 19.4916 12.8346 19.5569 13.0679 19.6036C13.3013 19.6596 13.5253 19.6876 13.7399 19.6876C14.3746 19.6876 14.8693 19.5009 15.2239 19.1276C15.5879 18.7543 15.8493 18.2036 16.0079 17.4756L16.1479 16.8596C16.1759 16.7383 16.2039 16.5983 16.2319 16.4396C16.2693 16.2809 16.3066 16.1223 16.3439 15.9636C16.3906 15.7956 16.4326 15.6463 16.4699 15.5156H16.4279C16.2506 15.8049 16.0453 16.0756 15.8119 16.3276C15.5786 16.5703 15.3219 16.7663 15.0419 16.9156C14.7619 17.0649 14.4586 17.1396 14.1319 17.1396C13.7679 17.1396 13.4553 17.0463 13.1939 16.8596C12.9326 16.6729 12.7319 16.4023 12.5919 16.0476C12.4613 15.6929 12.3959 15.2683 12.3959 14.7736C12.3959 14.2976 12.4426 13.8123 12.5359 13.3176C12.6293 12.8229 12.7693 12.3423 12.9559 11.8756C13.1426 11.4089 13.3713 10.9936 13.6419 10.6296C13.9126 10.2563 14.2253 9.96226 14.5799 9.74759C14.9439 9.52359 15.3453 9.41159 15.7839 9.41159C16.1013 9.41159 16.3719 9.48159 16.5959 9.62159C16.8293 9.75226 17.0113 9.92492 17.1419 10.1396C17.2819 10.3543 17.3753 10.5876 17.4219 10.8396H17.4779L17.8279 9.55159H18.4439L16.7639 17.4756C16.6333 18.1103 16.4373 18.6423 16.1759 19.0716C15.9239 19.5009 15.5973 19.8229 15.1959 20.0376C14.7946 20.2523 14.3093 20.3596 13.7399 20.3596ZM14.3699 16.4676C14.6219 16.4676 14.8599 16.3976 15.0839 16.2576C15.3173 16.1083 15.5319 15.9076 15.7279 15.6556C15.9333 15.4036 16.1199 15.1189 16.2879 14.8016C16.4559 14.4843 16.6006 14.1483 16.7219 13.7936C16.8433 13.4296 16.9366 13.0656 17.0019 12.7016C17.0766 12.3376 17.1139 11.9923 17.1139 11.6656C17.1139 11.1709 17.0019 10.7883 16.7779 10.5176C16.5539 10.2376 16.2319 10.0976 15.8119 10.0976C15.4853 10.0976 15.1819 10.1956 14.9019 10.3916C14.6313 10.5783 14.3886 10.8349 14.1739 11.1616C13.9593 11.4789 13.7773 11.8429 13.6279 12.2536C13.4879 12.6549 13.3806 13.0749 13.3059 13.5136C13.2313 13.9429 13.1939 14.3583 13.1939 14.7596C13.1939 15.3196 13.2919 15.7443 13.4879 16.0336C13.6839 16.3229 13.9779 16.4676 14.3699 16.4676Z" fill="white"/>
</svg>
