<svg width="24" height="24" viewBox="0 0 24 24" fill="none" xmlns="http://www.w3.org/2000/svg">
<path d="M9.63285 16.9999L9.14285 15.1239H5.89485L5.39085 16.9999H2.42285L5.68485 6.96191H9.28285L12.5869 16.9999H9.63285ZM8.14885 11.2739C8.10219 11.0966 8.03685 10.8446 7.95285 10.5179C7.86885 10.1819 7.78485 9.83658 7.70085 9.48191C7.61685 9.12724 7.55152 8.83791 7.50485 8.61391C7.46752 8.83791 7.40685 9.11791 7.32285 9.45391C7.24819 9.78991 7.16885 10.1212 7.08485 10.4479C7.01019 10.7746 6.94485 11.0499 6.88885 11.2739L6.45485 12.9119H8.58285L8.14885 11.2739ZM15.9831 9.11791C16.5244 9.11791 16.9584 9.22524 17.2851 9.43991C17.6211 9.64524 17.8917 9.90191 18.0971 10.2099H18.1531L18.3491 9.25791H20.6591V17.0139C20.6591 17.7419 20.5097 18.3532 20.2111 18.8479C19.9124 19.3426 19.4551 19.7159 18.8391 19.9679C18.2324 20.2292 17.4624 20.3599 16.5291 20.3599C15.9037 20.3599 15.3531 20.3272 14.8771 20.2619C14.4011 20.1966 13.9437 20.0799 13.5051 19.9119V17.6859C13.8224 17.8166 14.1211 17.9239 14.4011 18.0079C14.6811 18.1012 14.9797 18.1666 15.2971 18.2039C15.6144 18.2506 15.9737 18.2739 16.3751 18.2739C16.9164 18.2739 17.3177 18.1759 17.5791 17.9799C17.8497 17.7839 17.9851 17.4992 17.9851 17.1259V16.9859C17.9851 16.8646 17.9897 16.7199 17.9991 16.5519C18.0177 16.3839 18.0411 16.2066 18.0691 16.0199H17.9851C17.8077 16.3279 17.5557 16.5939 17.2291 16.8179C16.9024 17.0326 16.4731 17.1399 15.9411 17.1399C15.1197 17.1399 14.4524 16.7992 13.9391 16.1179C13.4257 15.4366 13.1691 14.4426 13.1691 13.1359C13.1691 12.2586 13.2857 11.5259 13.5191 10.9379C13.7617 10.3406 14.0931 9.88791 14.5131 9.57991C14.9424 9.27191 15.4324 9.11791 15.9831 9.11791ZM16.9911 11.1899C16.7484 11.1899 16.5431 11.2646 16.3751 11.4139C16.2071 11.5632 16.0811 11.7872 15.9971 12.0859C15.9224 12.3752 15.8851 12.7392 15.8851 13.1779C15.8851 13.8499 15.9784 14.3352 16.1651 14.6339C16.3517 14.9232 16.6411 15.0679 17.0331 15.0679C17.2477 15.0679 17.4297 15.0352 17.5791 14.9699C17.7284 14.8952 17.8451 14.7926 17.9291 14.6619C18.0224 14.5219 18.0877 14.3492 18.1251 14.1439C18.1717 13.9386 18.1951 13.6959 18.1951 13.4159V13.0939C18.1951 12.6926 18.1577 12.3519 18.0831 12.0719C18.0177 11.7826 17.8964 11.5632 17.7191 11.4139C17.5511 11.2646 17.3084 11.1899 16.9911 11.1899Z" fill="white"/>
</svg>
