<svg width="24" height="24" viewBox="0 0 24 24" fill="none" xmlns="http://www.w3.org/2000/svg">
<path d="M4.15853 16.9999V16.8599H4.56453C4.74186 16.8599 4.88653 16.8319 4.99853 16.7759C5.11053 16.7106 5.20853 16.5986 5.29253 16.4399C5.37653 16.2812 5.46053 16.0526 5.54453 15.7539L8.06453 7.00391H8.91853L11.7745 16.1739C11.8305 16.3512 11.8912 16.4912 11.9565 16.5939C12.0219 16.6872 12.0965 16.7572 12.1805 16.8039C12.2739 16.8412 12.3952 16.8599 12.5445 16.8599H12.6565V16.9999H9.33853V16.8599H9.71653C10.0059 16.8599 10.2019 16.8272 10.3045 16.7619C10.4165 16.6872 10.4725 16.5752 10.4725 16.4259C10.4725 16.3512 10.4632 16.2719 10.4445 16.1879C10.4259 16.1039 10.4025 16.0152 10.3745 15.9219C10.3465 15.8286 10.3185 15.7306 10.2905 15.6279L9.63253 13.3599H6.38453L5.78253 15.4319C5.7452 15.5532 5.71253 15.6746 5.68453 15.7959C5.65653 15.9079 5.6332 16.0152 5.61453 16.1179C5.59586 16.2112 5.58653 16.2952 5.58653 16.3699C5.58653 16.5472 5.65186 16.6732 5.78253 16.7479C5.9132 16.8226 6.13253 16.8599 6.44053 16.8599H6.95853V16.9999H4.15853ZM6.42653 13.2199H9.59053L8.63853 9.90191C8.5172 9.48191 8.41453 9.13191 8.33053 8.85191C8.25586 8.57191 8.19053 8.33858 8.13453 8.15191C8.08786 7.95591 8.0412 7.78324 7.99453 7.63391C7.9572 7.82058 7.91986 7.98391 7.88253 8.12391C7.8452 8.26391 7.80786 8.40391 7.77053 8.54391C7.7332 8.67458 7.6912 8.81458 7.64453 8.96391C7.59786 9.10391 7.54653 9.27658 7.49053 9.48191L6.42653 13.2199ZM15.2167 20.3459C14.3767 20.3459 13.7327 20.1779 13.2847 19.8419C12.846 19.5152 12.6267 19.0579 12.6267 18.4699C12.6267 18.1526 12.692 17.8726 12.8227 17.6299C12.9627 17.3966 13.1727 17.2052 13.4527 17.0559C13.7327 16.9066 14.0733 16.8039 14.4747 16.7479C14.1107 16.6639 13.84 16.5052 13.6627 16.2719C13.4947 16.0292 13.4107 15.7726 13.4107 15.5019C13.4107 15.2406 13.49 14.9886 13.6487 14.7459C13.8167 14.5032 14.078 14.2932 14.4327 14.1159C14.0407 13.9572 13.7233 13.6959 13.4807 13.3319C13.2473 12.9586 13.1307 12.5012 13.1307 11.9599C13.1307 11.0919 13.322 10.4432 13.7047 10.0139C14.0967 9.58458 14.68 9.36991 15.4547 9.36991C15.744 9.36991 16.0147 9.41191 16.2667 9.49591C16.5187 9.57991 16.738 9.71058 16.9247 9.88791C16.99 9.75724 17.074 9.63124 17.1767 9.50991C17.2793 9.37924 17.4007 9.27191 17.5407 9.18791C17.6807 9.09458 17.844 9.04791 18.0307 9.04791C18.264 9.04791 18.4367 9.12258 18.5487 9.27191C18.67 9.41191 18.7307 9.58458 18.7307 9.78991C18.7307 9.97658 18.6793 10.1306 18.5767 10.2519C18.474 10.3732 18.3107 10.4339 18.0867 10.4339C18.0867 10.1352 18.0493 9.92058 17.9747 9.78991C17.9 9.64991 17.7787 9.57991 17.6107 9.57991C17.4987 9.57991 17.396 9.61258 17.3027 9.67791C17.2187 9.73391 17.1253 9.83658 17.0227 9.98591C17.2373 10.1912 17.4007 10.4526 17.5127 10.7699C17.634 11.0872 17.6947 11.4606 17.6947 11.8899C17.6947 12.6179 17.508 13.2012 17.1347 13.6399C16.7707 14.0786 16.206 14.2979 15.4407 14.2979C15.3007 14.2979 15.156 14.2886 15.0067 14.2699C14.8573 14.2512 14.7127 14.2186 14.5727 14.1719C14.4047 14.3026 14.288 14.4332 14.2227 14.5639C14.1573 14.6946 14.1247 14.8299 14.1247 14.9699C14.1247 15.2126 14.204 15.4039 14.3627 15.5439C14.5307 15.6746 14.7593 15.7399 15.0487 15.7399H16.2667C16.7707 15.7399 17.1767 15.8239 17.4847 15.9919C17.7927 16.1599 18.0167 16.3979 18.1567 16.7059C18.2967 17.0046 18.3667 17.3592 18.3667 17.7699C18.3667 18.5632 18.1053 19.1886 17.5827 19.6459C17.0693 20.1126 16.2807 20.3459 15.2167 20.3459ZM15.3567 20.2059C15.842 20.2059 16.2433 20.1266 16.5607 19.9679C16.878 19.8186 17.1067 19.5946 17.2467 19.2959C17.396 19.0066 17.4707 18.6519 17.4707 18.2319C17.4707 17.7746 17.3633 17.4246 17.1487 17.1819C16.934 16.9392 16.5607 16.8179 16.0287 16.8179H14.9647C14.7127 16.8179 14.4793 16.8786 14.2647 16.9999C14.05 17.1119 13.8773 17.2892 13.7467 17.5319C13.6253 17.7746 13.5647 18.0872 13.5647 18.4699C13.5647 18.8619 13.6347 19.1839 13.7747 19.4359C13.924 19.6972 14.1293 19.8886 14.3907 20.0099C14.6613 20.1406 14.9833 20.2059 15.3567 20.2059ZM15.4127 14.1579C15.6833 14.1579 15.898 14.0879 16.0567 13.9479C16.2247 13.7986 16.346 13.5606 16.4207 13.2339C16.5047 12.8979 16.5467 12.4499 16.5467 11.8899C16.5467 11.2832 16.5047 10.8072 16.4207 10.4619C16.3367 10.1166 16.2107 9.87391 16.0427 9.73391C15.884 9.58458 15.6693 9.50991 15.3987 9.50991C15.1467 9.50991 14.9367 9.58458 14.7687 9.73391C14.6007 9.88324 14.4747 10.1352 14.3907 10.4899C14.316 10.8446 14.2787 11.3159 14.2787 11.9039C14.2787 12.4546 14.316 12.8932 14.3907 13.2199C14.4747 13.5466 14.596 13.7846 14.7547 13.9339C14.9227 14.0832 15.142 14.1579 15.4127 14.1579Z" fill="white"/>
</svg>
