<svg width="24" height="24" viewBox="0 0 24 24" fill="none" xmlns="http://www.w3.org/2000/svg">
<path d="M9.45228 17.0002L8.94828 14.8162H6.38628L5.88228 17.0002H3.48828L6.20428 6.99023H9.07428L11.8323 17.0002H9.45228ZM8.05228 10.6162C8.00561 10.4015 7.95895 10.1729 7.91228 9.93023C7.86561 9.68756 7.81895 9.45423 7.77228 9.23023C7.73495 8.9969 7.69761 8.78691 7.66028 8.60023C7.64161 8.77757 7.60895 8.9829 7.56228 9.21623C7.51561 9.44956 7.46895 9.68756 7.42228 9.93023C7.37561 10.1635 7.32895 10.3829 7.28228 10.5882L6.76428 12.9402H8.57028L8.05228 10.6162ZM14.8101 9.16023C15.2208 9.16023 15.5661 9.2489 15.8461 9.42623C16.1261 9.60356 16.3735 9.88823 16.5881 10.2802H16.6861L16.8541 9.30023H18.6881V16.6362C18.6881 17.4389 18.5621 18.1155 18.3101 18.6662C18.0581 19.2169 17.6661 19.6369 17.1341 19.9262C16.6115 20.2155 15.9395 20.3602 15.1181 20.3602C14.6328 20.3602 14.1988 20.3182 13.8161 20.2342C13.4335 20.1502 13.0648 20.0195 12.7101 19.8422V18.0222C12.9901 18.1529 13.2561 18.2602 13.5081 18.3442C13.7695 18.4375 14.0261 18.5029 14.2781 18.5402C14.5395 18.5869 14.8008 18.6102 15.0621 18.6102C15.5381 18.6102 15.9068 18.4982 16.1681 18.2742C16.4295 18.0502 16.5601 17.6815 16.5601 17.1682V17.0422C16.5601 16.8929 16.5648 16.7202 16.5741 16.5242C16.5928 16.3282 16.6115 16.1509 16.6301 15.9922H16.5601C16.3548 16.3842 16.1075 16.6735 15.8181 16.8602C15.5288 17.0469 15.1741 17.1402 14.7541 17.1402C14.0075 17.1402 13.4195 16.7949 12.9901 16.1042C12.5608 15.4042 12.3461 14.4335 12.3461 13.1922C12.3461 12.3429 12.4441 11.6195 12.6401 11.0222C12.8361 10.4249 13.1161 9.96756 13.4801 9.65023C13.8535 9.32356 14.2968 9.16023 14.8101 9.16023ZM15.4961 10.9522C15.2815 10.9522 15.0995 11.0362 14.9501 11.2042C14.8008 11.3722 14.6888 11.6242 14.6141 11.9602C14.5395 12.2962 14.5021 12.7162 14.5021 13.2202C14.5021 13.9482 14.5861 14.4895 14.7541 14.8442C14.9221 15.1895 15.1788 15.3622 15.5241 15.3622C15.7108 15.3622 15.8741 15.3249 16.0141 15.2502C16.1541 15.1755 16.2661 15.0589 16.3501 14.9002C16.4435 14.7415 16.5088 14.5455 16.5461 14.3122C16.5928 14.0695 16.6161 13.7802 16.6161 13.4442V13.0802C16.6161 12.5855 16.5788 12.1842 16.5041 11.8762C16.4295 11.5589 16.3081 11.3255 16.1401 11.1762C15.9815 11.0269 15.7668 10.9522 15.4961 10.9522Z" fill="white"/>
</svg>
