<svg width="24" height="24" viewBox="0 0 24 24" fill="none" xmlns="http://www.w3.org/2000/svg">
<path d="M11.3417 17.0002L10.1937 13.3042H6.74967L5.58767 17.0002H5.01367L8.20567 6.99023H8.80767L11.9157 17.0002H11.3417ZM8.84967 8.81024C8.82167 8.67957 8.78434 8.5489 8.73767 8.41823C8.70034 8.28756 8.65834 8.14756 8.61167 7.99823C8.57434 7.8489 8.53701 7.69956 8.49967 7.55023C8.45301 7.69023 8.41101 7.8349 8.37367 7.98423C8.33634 8.12423 8.29434 8.26423 8.24767 8.40423C8.21034 8.54423 8.16834 8.67957 8.12167 8.81024L6.90367 12.8002H10.0397L8.84967 8.81024ZM15.306 9.45424C15.8566 9.45424 16.2906 9.58023 16.608 9.83223C16.9253 10.0842 17.1726 10.4015 17.35 10.7842H17.378L17.462 9.59423H17.91V17.3362C17.91 17.9709 17.812 18.5122 17.616 18.9602C17.42 19.4175 17.1213 19.7675 16.72 20.0102C16.3186 20.2529 15.7866 20.3742 15.124 20.3742C14.676 20.3742 14.2793 20.3275 13.934 20.2342C13.5886 20.1502 13.2713 20.0335 12.982 19.8842V19.3382C13.178 19.4409 13.388 19.5342 13.612 19.6182C13.836 19.7022 14.074 19.7675 14.326 19.8142C14.578 19.8609 14.844 19.8842 15.124 19.8842C15.8986 19.8842 16.4633 19.6649 16.818 19.2262C17.182 18.7969 17.364 18.1809 17.364 17.3782V16.8322C17.364 16.6082 17.3686 16.3935 17.378 16.1882C17.3873 15.9829 17.3966 15.7589 17.406 15.5162H17.364C17.2053 16.0202 16.9393 16.4169 16.566 16.7062C16.202 16.9955 15.74 17.1402 15.18 17.1402C14.368 17.1402 13.738 16.8229 13.29 16.1882C12.842 15.5535 12.618 14.6109 12.618 13.3602C12.618 12.5482 12.716 11.8529 12.912 11.2742C13.1173 10.6862 13.416 10.2382 13.808 9.93023C14.2093 9.61291 14.7086 9.45424 15.306 9.45424ZM15.348 9.93023C14.8533 9.93023 14.4473 10.0702 14.13 10.3502C13.8126 10.6209 13.5746 11.0129 13.416 11.5262C13.2573 12.0395 13.178 12.6509 13.178 13.3602C13.178 14.4615 13.3553 15.2875 13.71 15.8382C14.0646 16.3889 14.5733 16.6642 15.236 16.6642C15.656 16.6642 16.0013 16.5802 16.272 16.4122C16.5426 16.2442 16.7573 16.0202 16.916 15.7402C17.084 15.4509 17.2006 15.1289 17.266 14.7742C17.3313 14.4102 17.364 14.0369 17.364 13.6542V12.8142C17.364 12.2449 17.2986 11.7455 17.168 11.3162C17.0373 10.8869 16.8273 10.5509 16.538 10.3082C16.2486 10.0562 15.852 9.93023 15.348 9.93023Z" fill="white"/>
</svg>
