<svg width="24" height="24" viewBox="0 0 24 24" fill="none" xmlns="http://www.w3.org/2000/svg">
<path d="M11.7088 17.0006L10.3788 13.5566H6.22078L4.87678 17.0006H4.05078L7.98478 6.97656H8.71278L12.5488 17.0006H11.7088ZM8.78278 9.21656C8.75478 9.12323 8.71278 8.99723 8.65678 8.83856C8.60078 8.67989 8.54478 8.51189 8.48878 8.33456C8.43278 8.15723 8.37678 7.99856 8.32078 7.85856C8.27411 8.01723 8.22278 8.18056 8.16678 8.34856C8.12011 8.51656 8.06878 8.67523 8.01278 8.82456C7.96611 8.97389 7.91945 9.10923 7.87278 9.23056L6.50078 12.8286H10.1268L8.78278 9.21656ZM16.5304 9.41256C17.1184 9.41256 17.6037 9.52923 17.9864 9.76256C18.369 9.98656 18.677 10.2946 18.9104 10.6866H18.9664L19.0784 9.55256H19.7224V17.2386C19.7224 17.8919 19.6104 18.4473 19.3864 18.9046C19.1624 19.3713 18.8124 19.7306 18.3364 19.9826C17.8697 20.2346 17.2584 20.3606 16.5024 20.3606C15.9517 20.3606 15.457 20.3139 15.0184 20.2206C14.589 20.1273 14.2017 20.0059 13.8564 19.8566V19.0866C14.2017 19.2639 14.603 19.4039 15.0604 19.5066C15.5177 19.6186 16.0124 19.6746 16.5444 19.6746C17.3657 19.6746 17.9677 19.4599 18.3504 19.0306C18.7424 18.6013 18.9384 18.0226 18.9384 17.2946V16.8466C18.9384 16.6506 18.9384 16.4546 18.9384 16.2586C18.9477 16.0533 18.957 15.8619 18.9664 15.6846H18.9244C18.7097 16.1606 18.3924 16.5246 17.9724 16.7766C17.5524 17.0193 17.039 17.1406 16.4324 17.1406C15.471 17.1406 14.7197 16.8139 14.1784 16.1606C13.637 15.5073 13.3664 14.5693 13.3664 13.3466C13.3664 12.1333 13.637 11.1766 14.1784 10.4766C14.729 9.76723 15.513 9.41256 16.5304 9.41256ZM16.6144 10.0986C16.073 10.0986 15.6204 10.2293 15.2564 10.4906C14.9017 10.7426 14.6357 11.1113 14.4584 11.5966C14.281 12.0726 14.1924 12.6559 14.1924 13.3466C14.1924 14.3639 14.393 15.1386 14.7944 15.6706C15.1957 16.2026 15.7697 16.4686 16.5164 16.4686C16.9924 16.4686 17.3844 16.3986 17.6924 16.2586C18.0004 16.1093 18.243 15.9039 18.4204 15.6426C18.607 15.3813 18.7377 15.0733 18.8124 14.7186C18.8964 14.3546 18.9384 13.9673 18.9384 13.5566V13.0666C18.9384 12.4319 18.8637 11.8953 18.7144 11.4566C18.565 11.0179 18.3177 10.6819 17.9724 10.4486C17.6364 10.2153 17.1837 10.0986 16.6144 10.0986Z" fill="white"/>
</svg>
