<svg width="24" height="24" viewBox="0 0 24 24" fill="none" xmlns="http://www.w3.org/2000/svg">
<path d="M5.49902 16.9999V16.8599H5.87702C6.03569 16.8599 6.16169 16.8319 6.25502 16.7759C6.35769 16.7199 6.44636 16.6126 6.52102 16.4539C6.59569 16.2859 6.67036 16.0432 6.74502 15.7259L9.02702 7.00391H9.61502L12.177 16.2719C12.233 16.4399 12.2844 16.5659 12.331 16.6499C12.387 16.7246 12.457 16.7806 12.541 16.8179C12.6344 16.8459 12.7557 16.8599 12.905 16.8599H13.003V16.9999H10.315V16.8599H10.665C10.945 16.8599 11.127 16.8319 11.211 16.7759C11.295 16.7106 11.337 16.6126 11.337 16.4819C11.337 16.4166 11.3277 16.3372 11.309 16.2439C11.2904 16.1506 11.2624 16.0479 11.225 15.9359C11.197 15.8239 11.1644 15.7119 11.127 15.5999L10.553 13.3599H7.51502L6.99702 15.3479C6.95969 15.4786 6.92236 15.6186 6.88502 15.7679C6.85702 15.9172 6.82902 16.0526 6.80102 16.1739C6.77302 16.2952 6.75902 16.3932 6.75902 16.4679C6.75902 16.6079 6.80569 16.7106 6.89902 16.7759C6.99236 16.8319 7.16969 16.8599 7.43102 16.8599H7.94902V16.9999H5.49902ZM7.55702 13.2199H10.511L9.62902 9.84591C9.51702 9.39791 9.41902 9.02924 9.33502 8.73991C9.26036 8.45058 9.19969 8.20791 9.15302 8.01191C9.10636 7.80658 9.06436 7.62924 9.02702 7.47991C8.99902 7.62924 8.97102 7.76924 8.94302 7.89991C8.91502 8.02124 8.88236 8.14258 8.84502 8.26391C8.81702 8.38524 8.77969 8.52058 8.73302 8.66991C8.69569 8.81924 8.65369 8.99658 8.60702 9.20191L7.55702 13.2199ZM15.3634 20.3599C14.6261 20.3599 14.0568 20.1872 13.6554 19.8419C13.2541 19.5059 13.0534 19.0252 13.0534 18.3999C13.0534 18.0732 13.1094 17.7839 13.2214 17.5319C13.3428 17.2799 13.5248 17.0699 13.7674 16.9019C14.0101 16.7339 14.3088 16.6032 14.6634 16.5099C14.3461 16.4259 14.1174 16.2812 13.9774 16.0759C13.8468 15.8706 13.7814 15.6466 13.7814 15.4039C13.7814 15.1799 13.8421 14.9652 13.9634 14.7599C14.0848 14.5452 14.2948 14.3259 14.5934 14.1019C14.2574 13.9432 13.9868 13.6772 13.7814 13.3039C13.5854 12.9306 13.4874 12.4872 13.4874 11.9739C13.4874 11.0779 13.6601 10.4246 14.0054 10.0139C14.3508 9.59391 14.8501 9.38391 15.5034 9.38391C15.7648 9.38391 16.0074 9.43058 16.2314 9.52391C16.4648 9.61724 16.6608 9.76191 16.8194 9.95791C16.8754 9.82724 16.9454 9.70124 17.0294 9.57991C17.1134 9.44924 17.2161 9.34191 17.3374 9.25791C17.4588 9.16458 17.6034 9.11791 17.7714 9.11791C17.9581 9.11791 18.0981 9.18791 18.1914 9.32791C18.2941 9.45858 18.3454 9.60791 18.3454 9.77591C18.3454 9.95324 18.3034 10.0932 18.2194 10.1959C18.1354 10.2986 18.0234 10.3499 17.8834 10.3499C17.8834 10.0886 17.8508 9.89724 17.7854 9.77591C17.7201 9.64524 17.6081 9.57991 17.4494 9.57991C17.3374 9.57991 17.2394 9.62191 17.1554 9.70591C17.0714 9.78058 16.9921 9.89724 16.9174 10.0559C17.0668 10.2612 17.1834 10.5086 17.2674 10.7979C17.3608 11.0872 17.4074 11.4559 17.4074 11.9039C17.4074 12.6412 17.2488 13.2246 16.9314 13.6539C16.6234 14.0739 16.1381 14.2839 15.4754 14.2839C15.3541 14.2839 15.2234 14.2746 15.0834 14.2559C14.9528 14.2372 14.8268 14.2046 14.7054 14.1579C14.5561 14.3072 14.4488 14.4519 14.3834 14.5919C14.3181 14.7319 14.2854 14.8766 14.2854 15.0259C14.2854 15.2872 14.3694 15.4972 14.5374 15.6559C14.7148 15.8052 14.9434 15.8799 15.2234 15.8799H16.1614C16.6094 15.8799 16.9688 15.9639 17.2394 16.1319C17.5101 16.2999 17.7061 16.5332 17.8274 16.8319C17.9581 17.1212 18.0234 17.4619 18.0234 17.8539C18.0234 18.6192 17.7948 19.2259 17.3374 19.6739C16.8894 20.1312 16.2314 20.3599 15.3634 20.3599ZM15.4474 20.2199C15.9048 20.2199 16.2734 20.1359 16.5534 19.9679C16.8428 19.7999 17.0528 19.5526 17.1834 19.2259C17.3141 18.9086 17.3794 18.5259 17.3794 18.0779C17.3794 17.6112 17.2814 17.2472 17.0854 16.9859C16.8894 16.7152 16.5114 16.5799 15.9514 16.5799H15.0834C14.8221 16.5799 14.5888 16.6592 14.3834 16.8179C14.1781 16.9672 14.0148 17.1726 13.8934 17.4339C13.7721 17.7046 13.7114 18.0219 13.7114 18.3859C13.7114 18.7872 13.7814 19.1232 13.9214 19.3939C14.0614 19.6739 14.2621 19.8792 14.5234 20.0099C14.7848 20.1499 15.0928 20.2199 15.4474 20.2199ZM15.4614 14.1439C15.7321 14.1439 15.9514 14.0692 16.1194 13.9199C16.2968 13.7706 16.4274 13.5326 16.5114 13.2059C16.5954 12.8699 16.6374 12.4312 16.6374 11.8899C16.6374 11.2646 16.5908 10.7839 16.4974 10.4479C16.4134 10.1119 16.2828 9.87391 16.1054 9.73391C15.9281 9.59391 15.7041 9.52391 15.4334 9.52391C15.1908 9.52391 14.9808 9.59858 14.8034 9.74791C14.6261 9.89724 14.4908 10.1446 14.3974 10.4899C14.3041 10.8352 14.2574 11.3066 14.2574 11.9039C14.2574 12.4359 14.2994 12.8652 14.3834 13.1919C14.4674 13.5186 14.5981 13.7612 14.7754 13.9199C14.9528 14.0692 15.1814 14.1439 15.4614 14.1439Z" fill="white"/>
</svg>
