<svg width="24" height="24" viewBox="0 0 24 24" fill="none" xmlns="http://www.w3.org/2000/svg">
<path d="M4.37875 16.9999L8.66275 6.96191H11.2388L11.3508 16.9999H9.20875L9.26475 14.7319H7.47275L6.59075 16.9999H4.37875ZM8.14475 12.9679H9.36275L9.46075 10.1259C9.47008 9.90191 9.47942 9.68724 9.48875 9.48191C9.49808 9.26724 9.51208 9.03858 9.53075 8.79591H9.48875C9.45142 9.01991 9.40008 9.23458 9.33475 9.43991C9.27875 9.64524 9.21342 9.86458 9.13875 10.0979L8.14475 12.9679ZM13.9131 20.3599C13.5024 20.3599 13.1151 20.3132 12.7511 20.2199C12.3871 20.1359 12.0791 20.0286 11.8271 19.8979V18.1619C11.9764 18.2552 12.1677 18.3439 12.4011 18.4279C12.6344 18.5212 12.8771 18.5959 13.1291 18.6519C13.3904 18.7079 13.6377 18.7359 13.8711 18.7359C14.2631 18.7359 14.5664 18.6239 14.7811 18.3999C14.9957 18.1759 15.1497 17.8726 15.2431 17.4899L15.3131 17.1819C15.3317 17.0979 15.3504 17.0092 15.3691 16.9159C15.3971 16.8226 15.4251 16.7199 15.4531 16.6079C15.4904 16.4959 15.5277 16.3792 15.5651 16.2579H15.5371C15.3784 16.4726 15.2151 16.6452 15.0471 16.7759C14.8884 16.9066 14.7204 16.9999 14.5431 17.0559C14.3657 17.1119 14.1697 17.1399 13.9551 17.1399C13.6471 17.1399 13.3764 17.0559 13.1431 16.8879C12.9191 16.7199 12.7417 16.4726 12.6111 16.1459C12.4897 15.8192 12.4291 15.4272 12.4291 14.9699C12.4291 14.5592 12.4664 14.1019 12.5411 13.5979C12.6251 13.0846 12.7464 12.5712 12.9051 12.0579C13.0731 11.5352 13.2831 11.0592 13.5351 10.6299C13.7871 10.1912 14.0811 9.84124 14.4171 9.57991C14.7531 9.30924 15.1357 9.17391 15.5651 9.17391C15.8077 9.17391 16.0131 9.21124 16.1811 9.28591C16.3584 9.36058 16.5031 9.47724 16.6151 9.63591C16.7271 9.79458 16.8157 9.99991 16.8811 10.2519H16.9091L17.2311 9.31391H18.9111L17.2031 17.4479C17.0537 18.1386 16.8297 18.6986 16.5311 19.1279C16.2417 19.5572 15.8777 19.8699 15.4391 20.0659C15.0004 20.2619 14.4917 20.3599 13.9131 20.3599ZM14.8791 15.4459C15.0377 15.4459 15.1824 15.3806 15.3131 15.2499C15.4531 15.1099 15.5791 14.9232 15.6911 14.6899C15.8031 14.4566 15.9011 14.2046 15.9851 13.9339C16.0691 13.6539 16.1391 13.3692 16.1951 13.0799C16.2604 12.7812 16.3071 12.5012 16.3351 12.2399C16.3631 11.9786 16.3771 11.7592 16.3771 11.5819C16.3771 11.3579 16.3304 11.1852 16.2371 11.0639C16.1531 10.9332 16.0271 10.8679 15.8591 10.8679C15.6724 10.8679 15.5044 10.9659 15.3551 11.1619C15.2057 11.3579 15.0704 11.6099 14.9491 11.9179C14.8371 12.2166 14.7437 12.5386 14.6691 12.8839C14.5944 13.2199 14.5384 13.5419 14.5011 13.8499C14.4637 14.1486 14.4451 14.3866 14.4451 14.5639C14.4451 14.8626 14.4777 15.0866 14.5431 15.2359C14.6177 15.3759 14.7297 15.4459 14.8791 15.4459Z" fill="white"/>
</svg>
