<svg width="24" height="24" viewBox="0 0 24 24" fill="none" xmlns="http://www.w3.org/2000/svg">
<path d="M3.4157 16.9999V16.2159H3.5417C3.69104 16.2159 3.82637 16.1926 3.9477 16.1459C4.07837 16.0899 4.19504 15.9919 4.2977 15.8519C4.4097 15.7026 4.51237 15.4926 4.6057 15.2219L7.4197 7.00391H9.5477L12.2637 15.3059C12.3384 15.5299 12.427 15.7119 12.5297 15.8519C12.6324 15.9826 12.749 16.0759 12.8797 16.1319C13.0104 16.1879 13.1504 16.2159 13.2997 16.2159H13.4677V16.9999H8.8477V16.2159H9.3517C9.50104 16.2159 9.6317 16.1832 9.7437 16.1179C9.86504 16.0432 9.9257 15.9172 9.9257 15.7399C9.9257 15.6559 9.91637 15.5719 9.8977 15.4879C9.87904 15.4039 9.86036 15.3246 9.84169 15.2499C9.82303 15.1659 9.80437 15.1006 9.7857 15.0539L9.36569 13.7239H6.2857L5.9637 14.8299C5.94503 14.9046 5.9217 14.9979 5.8937 15.1099C5.8657 15.2126 5.8377 15.3199 5.8097 15.4319C5.79104 15.5346 5.7817 15.6279 5.7817 15.7119C5.7817 15.8706 5.8237 15.9966 5.9077 16.0899C6.00104 16.1739 6.14104 16.2159 6.3277 16.2159H6.9157V16.9999H3.4157ZM6.5797 12.8279H9.0857L8.3577 10.2659C8.3017 10.0699 8.2457 9.86924 8.1897 9.66391C8.1337 9.45858 8.0777 9.25324 8.0217 9.04791C7.97504 8.83324 7.93304 8.62324 7.8957 8.41791C7.85837 8.56724 7.81637 8.72124 7.7697 8.87991C7.73237 9.02924 7.69037 9.18324 7.6437 9.34191C7.60637 9.49124 7.56437 9.64058 7.5177 9.78991C7.47104 9.93924 7.42904 10.0839 7.3917 10.2239L6.5797 12.8279ZM16.2975 20.3039C15.2241 20.3039 14.4215 20.1406 13.8895 19.8139C13.3575 19.4966 13.0915 19.0299 13.0915 18.4139C13.0915 18.0966 13.1661 17.8212 13.3155 17.5879C13.4648 17.3546 13.6748 17.1679 13.9455 17.0279C14.2255 16.8879 14.5475 16.8039 14.9115 16.7759C14.6595 16.6732 14.4215 16.5286 14.1975 16.3419C13.9735 16.1552 13.8615 15.8939 13.8615 15.5579C13.8615 15.2499 13.9828 14.9792 14.2255 14.7459C14.4681 14.5126 14.7808 14.2886 15.1635 14.0739C14.7435 13.9339 14.3888 13.6866 14.0995 13.3319C13.8101 12.9679 13.6655 12.4872 13.6655 11.8899C13.6655 11.0686 13.9035 10.4339 14.3795 9.98591C14.8555 9.52858 15.5975 9.29991 16.6055 9.29991C16.9415 9.29991 17.2401 9.33724 17.5015 9.41191C17.7721 9.47724 18.0195 9.57058 18.2435 9.69191C18.3928 9.53324 18.5375 9.39324 18.6775 9.27191C18.8175 9.15058 18.9715 9.05724 19.1395 8.99191C19.3075 8.91724 19.4988 8.87991 19.7135 8.87991C20.0215 8.87991 20.2548 8.96391 20.4135 9.13191C20.5721 9.29058 20.6515 9.48191 20.6515 9.70591C20.6515 9.92991 20.5768 10.1306 20.4275 10.3079C20.2875 10.4852 20.0355 10.5739 19.6715 10.5739C19.6715 10.3499 19.6155 10.1912 19.5035 10.0979C19.3915 9.99524 19.2888 9.94391 19.1955 9.94391C19.1021 9.94391 19.0181 9.95791 18.9435 9.98591C18.8688 10.0139 18.8035 10.0466 18.7475 10.0839C18.9528 10.2799 19.1255 10.5272 19.2655 10.8259C19.4148 11.1152 19.4895 11.4559 19.4895 11.8479C19.4895 12.5852 19.2561 13.1919 18.7895 13.6679C18.3321 14.1346 17.6041 14.3679 16.6055 14.3679C16.5121 14.3679 16.3815 14.3632 16.2135 14.3539C16.0455 14.3352 15.9241 14.3212 15.8495 14.3119C15.7468 14.3586 15.6488 14.4472 15.5555 14.5779C15.4621 14.6992 15.4155 14.8392 15.4155 14.9979C15.4155 15.1566 15.4715 15.2686 15.5835 15.3339C15.7048 15.3992 15.8495 15.4319 16.0175 15.4319H17.5855C18.1921 15.4319 18.6915 15.5159 19.0835 15.6839C19.4755 15.8519 19.7648 16.0992 19.9515 16.4259C20.1475 16.7432 20.2455 17.1259 20.2455 17.5739C20.2455 18.4232 19.9235 19.0906 19.2795 19.5759C18.6355 20.0612 17.6415 20.3039 16.2975 20.3039ZM16.3395 19.4219C16.8061 19.4219 17.1935 19.3706 17.5015 19.2679C17.8188 19.1652 18.0568 19.0159 18.2155 18.8199C18.3835 18.6332 18.4675 18.4046 18.4675 18.1339C18.4675 17.8819 18.3881 17.6859 18.2295 17.5459C18.0801 17.4152 17.8421 17.3499 17.5155 17.3499H15.9055C15.7655 17.3499 15.6115 17.3779 15.4435 17.4339C15.2755 17.4899 15.1355 17.5926 15.0235 17.7419C14.9115 17.9006 14.8555 18.1199 14.8555 18.3999C14.8555 18.6239 14.9161 18.8106 15.0375 18.9599C15.1681 19.1186 15.3455 19.2352 15.5695 19.3099C15.7935 19.3846 16.0501 19.4219 16.3395 19.4219ZM16.5775 13.4999C16.8201 13.4999 17.0021 13.4346 17.1235 13.3039C17.2541 13.1639 17.3428 12.9726 17.3895 12.7299C17.4361 12.4872 17.4595 12.2072 17.4595 11.8899C17.4595 11.5632 17.4361 11.2739 17.3895 11.0219C17.3428 10.7606 17.2541 10.5552 17.1235 10.4059C17.0021 10.2566 16.8201 10.1819 16.5775 10.1819C16.3441 10.1819 16.1621 10.2612 16.0315 10.4199C15.9008 10.5692 15.8075 10.7746 15.7515 11.0359C15.7048 11.2879 15.6815 11.5772 15.6815 11.9039C15.6815 12.2119 15.7048 12.4872 15.7515 12.7299C15.8075 12.9726 15.9008 13.1639 16.0315 13.3039C16.1621 13.4346 16.3441 13.4999 16.5775 13.4999Z" fill="white"/>
</svg>
