<svg width="24" height="24" viewBox="0 0 24 24" fill="none" xmlns="http://www.w3.org/2000/svg">
<path d="M5.19873 16.9996L9.70673 6.97559H10.6167L10.9527 16.9996H10.1827L10.0707 13.4576H7.59273L6.02473 16.9996H5.19873ZM7.90073 12.7576H10.0707L10.0147 9.13159C10.0054 8.90759 9.99607 8.68359 9.98673 8.45959C9.98673 8.22626 9.9914 8.01626 10.0007 7.82959H9.95873C9.8934 8.01626 9.81873 8.21692 9.73473 8.43159C9.65073 8.64626 9.54807 8.88426 9.42673 9.14559L7.90073 12.7576ZM13.2929 20.3596C12.9663 20.3596 12.6583 20.3176 12.3689 20.2336C12.0889 20.1496 11.8603 20.0563 11.6829 19.9536V19.2116C11.8043 19.2863 11.9489 19.3609 12.1169 19.4356C12.2943 19.5103 12.4856 19.5709 12.6909 19.6176C12.8963 19.6736 13.0969 19.7016 13.2929 19.7016C13.8809 19.7016 14.3336 19.5149 14.6509 19.1416C14.9776 18.7776 15.2203 18.2316 15.3789 17.5036L15.5189 16.8456C15.5469 16.7523 15.5749 16.6449 15.6029 16.5236C15.6309 16.3929 15.6589 16.2576 15.6869 16.1176C15.7243 15.9776 15.7616 15.8423 15.7989 15.7116H15.7709C15.6029 15.9916 15.4163 16.2389 15.2109 16.4536C15.0149 16.6683 14.7956 16.8363 14.5529 16.9576C14.3196 17.0789 14.0629 17.1396 13.7829 17.1396C13.4656 17.1396 13.1903 17.0556 12.9569 16.8876C12.7236 16.7196 12.5463 16.4723 12.4249 16.1456C12.3129 15.8096 12.2569 15.4083 12.2569 14.9416C12.2569 14.4936 12.2989 14.0176 12.3829 13.5136C12.4669 13.0096 12.5929 12.5196 12.7609 12.0436C12.9383 11.5583 13.1529 11.1196 13.4049 10.7276C13.6569 10.3263 13.9509 10.0089 14.2869 9.77559C14.6229 9.54226 15.0009 9.42559 15.4209 9.42559C15.6916 9.42559 15.9249 9.48626 16.1209 9.60759C16.3169 9.71959 16.4709 9.87359 16.5829 10.0696C16.6949 10.2563 16.7743 10.4756 16.8209 10.7276H16.8769L17.1849 9.56559H17.8009L16.1069 17.5316C15.9763 18.1569 15.7896 18.6796 15.5469 19.0996C15.3136 19.5196 15.0103 19.8323 14.6369 20.0376C14.2729 20.2523 13.8249 20.3596 13.2929 20.3596ZM14.0209 16.4816C14.2823 16.4816 14.5203 16.3976 14.7349 16.2296C14.9589 16.0523 15.1596 15.8189 15.3369 15.5296C15.5236 15.2309 15.6869 14.9043 15.8269 14.5496C15.9763 14.1856 16.1023 13.8169 16.2049 13.4436C16.3076 13.0609 16.3823 12.6969 16.4289 12.3516C16.4849 12.0063 16.5129 11.7029 16.5129 11.4416C16.5129 11.0216 16.4196 10.6903 16.2329 10.4476C16.0556 10.2049 15.7943 10.0836 15.4489 10.0836C15.1409 10.0836 14.8563 10.1909 14.5949 10.4056C14.3429 10.6109 14.1189 10.8909 13.9229 11.2456C13.7269 11.5909 13.5636 11.9783 13.4329 12.4076C13.3023 12.8276 13.1996 13.2523 13.1249 13.6816C13.0596 14.1109 13.0269 14.5169 13.0269 14.8996C13.0269 15.4316 13.1109 15.8283 13.2789 16.0896C13.4469 16.3509 13.6943 16.4816 14.0209 16.4816Z" fill="white"/>
</svg>
