<svg width="24" height="24" viewBox="0 0 24 24" fill="none" xmlns="http://www.w3.org/2000/svg">
<path d="M10.2215 17.0002L9.35346 13.8922H6.52546L5.65746 17.0002H4.39746L7.26746 6.99023H8.59746L11.4815 17.0002H10.2215ZM8.23346 9.58023C8.20546 9.44023 8.16813 9.28623 8.12146 9.11823C8.08413 8.9409 8.04679 8.76357 8.00946 8.58624C7.97213 8.40891 7.94413 8.2549 7.92546 8.12423C7.89746 8.2829 7.86946 8.44623 7.84146 8.61423C7.81346 8.78223 7.77613 8.95023 7.72946 9.11823C7.69213 9.2769 7.65479 9.4309 7.61746 9.58023L6.77746 12.7862H9.08746L8.23346 9.58023ZM14.6012 9.34223C14.9932 9.34223 15.3432 9.43556 15.6512 9.62223C15.9592 9.79956 16.2252 10.0842 16.4492 10.4762H16.5192L16.6592 9.48223H17.6252V17.0982C17.6252 17.7982 17.5178 18.3909 17.3032 18.8762C17.0978 19.3615 16.7712 19.7302 16.3232 19.9822C15.8845 20.2342 15.3198 20.3602 14.6292 20.3602C14.2185 20.3602 13.8452 20.3229 13.5092 20.2482C13.1732 20.1735 12.8605 20.0615 12.5712 19.9122V18.8202C12.7952 18.9322 13.0192 19.0255 13.2432 19.1002C13.4672 19.1842 13.6912 19.2449 13.9152 19.2822C14.1485 19.3289 14.3865 19.3522 14.6292 19.3522C15.2265 19.3522 15.6792 19.1889 15.9872 18.8622C16.3045 18.5355 16.4632 18.0175 16.4632 17.3082V17.0702C16.4632 16.9209 16.4678 16.7482 16.4772 16.5522C16.4865 16.3469 16.5005 16.1509 16.5192 15.9642H16.4632C16.2392 16.3655 15.9732 16.6642 15.6652 16.8602C15.3572 17.0469 14.9932 17.1402 14.5732 17.1402C13.8078 17.1402 13.2105 16.8089 12.7812 16.1462C12.3518 15.4835 12.1372 14.5269 12.1372 13.2762C12.1372 12.4269 12.2352 11.7129 12.4312 11.1342C12.6272 10.5462 12.9072 10.1029 13.2712 9.80423C13.6445 9.49623 14.0878 9.34223 14.6012 9.34223ZM14.8112 10.3642C14.4845 10.3642 14.2092 10.4762 13.9852 10.7002C13.7705 10.9242 13.6072 11.2555 13.4952 11.6942C13.3832 12.1235 13.3272 12.6555 13.3272 13.2902C13.3272 14.2609 13.4532 14.9795 13.7052 15.4462C13.9572 15.9129 14.3398 16.1462 14.8532 16.1462C15.1238 16.1462 15.3572 16.0949 15.5532 15.9922C15.7585 15.8802 15.9265 15.7215 16.0572 15.5162C16.1972 15.3015 16.2998 15.0309 16.3652 14.7042C16.4305 14.3775 16.4632 13.9995 16.4632 13.5702V13.2342C16.4632 12.5622 16.4072 12.0162 16.2952 11.5962C16.1832 11.1762 16.0012 10.8682 15.7492 10.6722C15.5065 10.4669 15.1938 10.3642 14.8112 10.3642Z" fill="white"/>
</svg>
