<svg width="24" height="24" viewBox="0 0 24 24" fill="none" xmlns="http://www.w3.org/2000/svg">
<path d="M10.1728 16.9999L9.48679 13.8779H7.21879L6.53279 16.9999H5.25879L7.61079 7.00391H9.03879L11.4328 16.9999H10.1728ZM8.54879 9.49591C8.51146 9.31858 8.47879 9.15058 8.45079 8.99191C8.42279 8.82391 8.39946 8.66524 8.38079 8.51591C8.36212 8.35724 8.34346 8.20791 8.32479 8.06791C8.31546 8.20791 8.29679 8.35724 8.26879 8.51591C8.24079 8.67458 8.21279 8.83791 8.18479 9.00591C8.15679 9.16458 8.12412 9.32791 8.08679 9.49591L7.40079 12.7859H9.26279L8.54879 9.49591ZM14.1405 9.34191C14.4858 9.34191 14.7845 9.43058 15.0365 9.60791C15.2978 9.78524 15.5265 10.0746 15.7225 10.4759H15.7925L15.9185 9.48191H16.8705V17.0839C16.8705 17.7746 16.7725 18.3626 16.5765 18.8479C16.3898 19.3426 16.0911 19.7159 15.6805 19.9679C15.2791 20.2292 14.7518 20.3599 14.0985 20.3599C13.7625 20.3599 13.4545 20.3226 13.1745 20.2479C12.8945 20.1826 12.6191 20.0752 12.3485 19.9259V18.8479C12.5538 18.9599 12.7498 19.0532 12.9365 19.1279C13.1325 19.2026 13.3238 19.2586 13.5105 19.2959C13.6971 19.3332 13.8838 19.3519 14.0705 19.3519C14.6211 19.3519 15.0365 19.1979 15.3165 18.8899C15.5965 18.5912 15.7365 18.0779 15.7365 17.3499V17.1259C15.7365 16.9672 15.7411 16.7899 15.7505 16.5939C15.7598 16.3886 15.7738 16.1739 15.7925 15.9499H15.7365C15.5405 16.3512 15.3118 16.6499 15.0505 16.8459C14.7891 17.0419 14.4718 17.1399 14.0985 17.1399C13.4265 17.1399 12.9085 16.8132 12.5445 16.1599C12.1805 15.5066 11.9985 14.5452 11.9985 13.2759C11.9985 12.4079 12.0825 11.6846 12.2505 11.1059C12.4278 10.5179 12.6751 10.0792 12.9925 9.78991C13.3098 9.49124 13.6925 9.34191 14.1405 9.34191ZM14.3785 10.3499C14.0985 10.3499 13.8698 10.4619 13.6925 10.6859C13.5151 10.9099 13.3798 11.2412 13.2865 11.6799C13.2025 12.1092 13.1605 12.6459 13.1605 13.2899C13.1605 14.2792 13.2631 15.0026 13.4685 15.4599C13.6738 15.9172 13.9911 16.1459 14.4205 16.1459C14.6351 16.1459 14.8218 16.0946 14.9805 15.9919C15.1485 15.8799 15.2885 15.7166 15.4005 15.5019C15.5125 15.2872 15.5965 15.0212 15.6525 14.7039C15.7085 14.3772 15.7365 13.9992 15.7365 13.5699V13.2199C15.7365 12.5572 15.6851 12.0159 15.5825 11.5959C15.4891 11.1666 15.3445 10.8539 15.1485 10.6579C14.9525 10.4526 14.6958 10.3499 14.3785 10.3499Z" fill="white"/>
</svg>
