<svg width="24" height="24" viewBox="0 0 24 24" fill="none" xmlns="http://www.w3.org/2000/svg">
<path d="M5.17708 16.9999V16.6499H5.41508C5.58308 16.6499 5.71374 16.6266 5.80708 16.5799C5.90041 16.5332 5.97974 16.4352 6.04508 16.2859C6.11974 16.1366 6.20374 15.9126 6.29708 15.6139L8.90108 7.00391H9.33508L12.0651 16.0899C12.1117 16.2486 12.1631 16.3699 12.2191 16.4539C12.2751 16.5379 12.3497 16.5939 12.4431 16.6219C12.5364 16.6406 12.6717 16.6499 12.8491 16.6499H13.0031V16.9999H10.3851V16.6499H10.7211C11.0197 16.6499 11.2157 16.6172 11.3091 16.5519C11.4024 16.4866 11.4491 16.3792 11.4491 16.2299C11.4491 16.1646 11.4351 16.0759 11.4071 15.9639C11.3791 15.8519 11.3464 15.7306 11.3091 15.5999C11.2717 15.4692 11.2344 15.3526 11.1971 15.2499L10.6791 13.5139H7.41708L6.94108 15.1099C6.91308 15.2126 6.87574 15.3386 6.82908 15.4879C6.79174 15.6279 6.75441 15.7679 6.71708 15.9079C6.67974 16.0386 6.66108 16.1459 6.66108 16.2299C6.66108 16.3699 6.71241 16.4772 6.81508 16.5519C6.91774 16.6172 7.12308 16.6499 7.43108 16.6499H7.83708V16.9999H5.17708ZM7.55708 13.0939H10.5671L9.69908 10.1119C9.60575 9.79458 9.51708 9.50058 9.43308 9.22991C9.35841 8.94991 9.28841 8.69324 9.22308 8.45991C9.15774 8.22658 9.10174 8.02591 9.05508 7.85791C9.03641 7.97924 9.00374 8.11924 8.95708 8.27791C8.91041 8.43658 8.85908 8.60924 8.80308 8.79591C8.75641 8.97324 8.70508 9.15991 8.64908 9.35591C8.59308 9.54258 8.53708 9.73391 8.48108 9.92991L7.55708 13.0939ZM15.5386 20.3739C14.7359 20.3739 14.1433 20.1779 13.7606 19.7859C13.3779 19.3939 13.1866 18.8712 13.1866 18.2179C13.1866 17.8166 13.2566 17.4806 13.3966 17.2099C13.5459 16.9392 13.7279 16.7199 13.9426 16.5519C14.1573 16.3839 14.3673 16.2672 14.5726 16.2019C14.4233 16.1272 14.2926 16.0152 14.1806 15.8659C14.0686 15.7072 14.0126 15.4879 14.0126 15.2079C14.0126 14.9559 14.0779 14.7272 14.2086 14.5219C14.3393 14.3166 14.4746 14.1486 14.6146 14.0179C14.3253 13.8499 14.0919 13.5792 13.9146 13.2059C13.7466 12.8326 13.6626 12.4126 13.6626 11.9459C13.6626 11.0966 13.8353 10.4619 14.1806 10.0419C14.5259 9.61258 15.0253 9.39791 15.6786 9.39791C15.9586 9.39791 16.2106 9.44924 16.4346 9.55191C16.6586 9.65458 16.8359 9.77124 16.9666 9.90191C17.0506 9.79924 17.1393 9.69191 17.2326 9.57991C17.3353 9.46791 17.4473 9.37458 17.5686 9.29991C17.6993 9.21591 17.8439 9.17391 18.0026 9.17391C18.1986 9.17391 18.3433 9.23924 18.4366 9.36991C18.5393 9.49124 18.5906 9.64058 18.5906 9.81791C18.5906 9.98591 18.5626 10.1212 18.5066 10.2239C18.4506 10.3266 18.3573 10.3779 18.2266 10.3779C18.2266 10.1352 18.2033 9.95791 18.1566 9.84591C18.1099 9.73391 18.0213 9.67791 17.8906 9.67791C17.7693 9.67791 17.6573 9.71991 17.5546 9.80391C17.4519 9.88791 17.3306 10.0232 17.1906 10.2099C17.3119 10.3872 17.4053 10.6112 17.4706 10.8819C17.5453 11.1432 17.5826 11.4886 17.5826 11.9179C17.5826 12.6366 17.4239 13.2106 17.1066 13.6399C16.7893 14.0599 16.3133 14.2699 15.6786 14.2699C15.5759 14.2699 15.4453 14.2606 15.2866 14.2419C15.1373 14.2232 15.0253 14.1999 14.9506 14.1719C14.8293 14.2932 14.7173 14.4379 14.6146 14.6059C14.5213 14.7646 14.4746 14.9652 14.4746 15.2079C14.4746 15.4879 14.5633 15.6839 14.7406 15.7959C14.9179 15.8986 15.1606 15.9499 15.4686 15.9499H16.4066C16.8453 15.9499 17.1953 16.0339 17.4566 16.2019C17.7273 16.3606 17.9233 16.5846 18.0446 16.8739C18.1753 17.1632 18.2406 17.5039 18.2406 17.8959C18.2406 18.6426 18.0119 19.2399 17.5546 19.6879C17.0973 20.1452 16.4253 20.3739 15.5386 20.3739ZM15.5666 19.9539C16.0799 19.9539 16.4906 19.8652 16.7986 19.6879C17.1159 19.5199 17.3446 19.2819 17.4846 18.9739C17.6339 18.6752 17.7086 18.3299 17.7086 17.9379C17.7086 17.4339 17.6013 17.0606 17.3866 16.8179C17.1719 16.5752 16.7986 16.4539 16.2666 16.4539H15.2726C14.9833 16.4539 14.7219 16.5239 14.4886 16.6639C14.2553 16.7946 14.0686 16.9906 13.9286 17.2519C13.7886 17.5132 13.7186 17.8259 13.7186 18.1899C13.7186 18.5166 13.7746 18.8106 13.8866 19.0719C13.9986 19.3426 14.1899 19.5572 14.4606 19.7159C14.7313 19.8746 15.0999 19.9539 15.5666 19.9539ZM15.6366 13.8639C15.9446 13.8639 16.2013 13.7939 16.4066 13.6539C16.6213 13.5139 16.7799 13.2992 16.8826 13.0099C16.9853 12.7112 17.0366 12.3379 17.0366 11.8899C17.0366 11.3859 16.9806 10.9846 16.8686 10.6859C16.7659 10.3779 16.6073 10.1586 16.3926 10.0279C16.1873 9.88791 15.9306 9.81791 15.6226 9.81791C15.3333 9.81791 15.0813 9.89258 14.8666 10.0419C14.6613 10.1819 14.4979 10.4059 14.3766 10.7139C14.2646 11.0219 14.2086 11.4186 14.2086 11.9039C14.2086 12.3332 14.2646 12.6972 14.3766 12.9959C14.4886 13.2852 14.6473 13.5046 14.8526 13.6539C15.0673 13.7939 15.3286 13.8639 15.6366 13.8639Z" fill="white"/>
</svg>
