<svg width="24" height="24" viewBox="0 0 24 24" fill="none" xmlns="http://www.w3.org/2000/svg">
<path d="M2.32814 16.9999V16.2019H2.45414C2.61281 16.2019 2.75747 16.1739 2.88814 16.1179C3.02814 16.0619 3.15414 15.9639 3.26614 15.8239C3.38747 15.6839 3.49947 15.4786 3.60214 15.2079L6.59814 7.00391H8.85214L11.7501 15.2219C11.8341 15.4646 11.9321 15.6559 12.0441 15.7959C12.1561 15.9359 12.2775 16.0386 12.4081 16.1039C12.5481 16.1692 12.6975 16.2019 12.8561 16.2019H13.0521V16.9999H8.12414V16.2019H8.68414C8.82414 16.2019 8.95481 16.1692 9.07614 16.1039C9.20681 16.0292 9.27214 15.8986 9.27214 15.7119C9.27214 15.6279 9.26281 15.5439 9.24414 15.4599C9.23481 15.3759 9.21614 15.3012 9.18814 15.2359C9.16947 15.1612 9.15081 15.1052 9.13214 15.0679L8.67014 13.7379H5.39414L5.03014 14.8299C5.01147 14.9046 4.98347 14.9932 4.94614 15.0959C4.91814 15.1986 4.89481 15.3059 4.87614 15.4179C4.85747 15.5206 4.84814 15.6139 4.84814 15.6979C4.84814 15.8566 4.89481 15.9826 4.98814 16.0759C5.09081 16.1599 5.23081 16.2019 5.40814 16.2019H6.05214V16.9999H2.32814ZM5.68814 12.8139H8.37614L7.60614 10.3079C7.55014 10.1212 7.48947 9.92524 7.42414 9.71991C7.36814 9.51458 7.31214 9.30458 7.25614 9.08991C7.20014 8.86591 7.14881 8.65124 7.10214 8.44591C7.06481 8.59524 7.02281 8.74924 6.97614 8.90791C6.92947 9.05724 6.88281 9.21124 6.83614 9.36991C6.78947 9.52858 6.73814 9.68724 6.68214 9.84591C6.63547 9.99524 6.58881 10.1399 6.54214 10.2799L5.68814 12.8139ZM16.1172 20.3039C14.9692 20.3039 14.1105 20.1452 13.5412 19.8279C12.9718 19.5106 12.6872 19.0439 12.6872 18.4279C12.6872 18.1106 12.7618 17.8352 12.9112 17.6019C13.0698 17.3779 13.2938 17.1959 13.5832 17.0559C13.8818 16.9252 14.2318 16.8506 14.6332 16.8319C14.3625 16.7292 14.1058 16.5799 13.8632 16.3839C13.6298 16.1879 13.5132 15.9219 13.5132 15.5859C13.5132 15.2686 13.6392 14.9932 13.8912 14.7599C14.1525 14.5266 14.4885 14.3026 14.8992 14.0879C14.4605 13.9479 14.0872 13.7006 13.7792 13.3459C13.4712 12.9819 13.3172 12.4966 13.3172 11.8899C13.3172 11.0592 13.5692 10.4199 14.0732 9.97191C14.5772 9.52391 15.3658 9.29991 16.4392 9.29991C16.7938 9.29991 17.1112 9.33258 17.3912 9.39791C17.6805 9.46324 17.9418 9.55658 18.1752 9.67791C18.3338 9.50991 18.4878 9.36524 18.6372 9.24391C18.7958 9.12258 18.9592 9.02924 19.1272 8.96391C19.3045 8.89858 19.5052 8.86591 19.7292 8.86591C20.0652 8.86591 20.3172 8.94991 20.4852 9.11791C20.6532 9.28591 20.7372 9.48191 20.7372 9.70591C20.7372 9.92991 20.6625 10.1306 20.5132 10.3079C20.3638 10.4852 20.0885 10.5739 19.6872 10.5739C19.6872 10.3499 19.6265 10.1912 19.5052 10.0979C19.3932 9.99524 19.2812 9.94391 19.1692 9.94391C19.0852 9.94391 19.0012 9.95791 18.9172 9.98591C18.8332 10.0139 18.7632 10.0466 18.7072 10.0839C18.9312 10.2799 19.1178 10.5272 19.2672 10.8259C19.4165 11.1246 19.4912 11.4652 19.4912 11.8479C19.4912 12.5852 19.2438 13.1919 18.7492 13.6679C18.2638 14.1346 17.4938 14.3679 16.4392 14.3679C16.3458 14.3679 16.2058 14.3632 16.0192 14.3539C15.8418 14.3446 15.7112 14.3352 15.6272 14.3259C15.5152 14.3632 15.4078 14.4472 15.3052 14.5779C15.2118 14.6992 15.1652 14.8346 15.1652 14.9839C15.1652 15.1332 15.2258 15.2406 15.3472 15.3059C15.4685 15.3712 15.6178 15.4039 15.7952 15.4039H17.4752C18.1285 15.4039 18.6605 15.4879 19.0712 15.6559C19.4912 15.8146 19.8038 16.0572 20.0092 16.3839C20.2145 16.7012 20.3172 17.0932 20.3172 17.5599C20.3172 18.4186 19.9718 19.0906 19.2812 19.5759C18.5998 20.0612 17.5452 20.3039 16.1172 20.3039ZM16.1452 19.4079C16.6492 19.4079 17.0692 19.3612 17.4052 19.2679C17.7412 19.1746 17.9932 19.0299 18.1612 18.8339C18.3385 18.6472 18.4272 18.4186 18.4272 18.1479C18.4272 17.9146 18.3432 17.7326 18.1752 17.6019C18.0165 17.4806 17.7598 17.4199 17.4052 17.4199H15.6832C15.5338 17.4199 15.3705 17.4479 15.1932 17.5039C15.0158 17.5599 14.8665 17.6579 14.7452 17.7979C14.6238 17.9472 14.5632 18.1572 14.5632 18.4279C14.5632 18.6519 14.6285 18.8339 14.7592 18.9739C14.8898 19.1232 15.0765 19.2306 15.3192 19.2959C15.5618 19.3706 15.8372 19.4079 16.1452 19.4079ZM16.4112 13.4859C16.6632 13.4859 16.8545 13.4206 16.9852 13.2899C17.1158 13.1499 17.2045 12.9586 17.2512 12.7159C17.2978 12.4732 17.3212 12.1979 17.3212 11.8899C17.3212 11.5726 17.2978 11.2879 17.2512 11.0359C17.2045 10.7746 17.1158 10.5692 16.9852 10.4199C16.8545 10.2706 16.6585 10.1959 16.3972 10.1959C16.1545 10.1959 15.9632 10.2752 15.8232 10.4339C15.6925 10.5832 15.5992 10.7886 15.5432 11.0499C15.4872 11.3019 15.4592 11.5866 15.4592 11.9039C15.4592 12.2026 15.4872 12.4732 15.5432 12.7159C15.5992 12.9492 15.6925 13.1359 15.8232 13.2759C15.9632 13.4159 16.1592 13.4859 16.4112 13.4859Z" fill="white"/>
</svg>
