<svg width="24" height="24" viewBox="0 0 24 24" fill="none" xmlns="http://www.w3.org/2000/svg">
<path d="M3.18684 16.9999V16.8599H3.53684C3.74218 16.8599 3.90551 16.8366 4.02684 16.7899C4.14818 16.7432 4.25084 16.6546 4.33484 16.5239C4.41884 16.3932 4.50284 16.2066 4.58684 15.9639L7.69484 7.00391H8.14284L11.5168 16.1459C11.5915 16.3419 11.6615 16.4912 11.7268 16.5939C11.7922 16.6966 11.8715 16.7666 11.9648 16.8039C12.0675 16.8412 12.2028 16.8599 12.3708 16.8599H12.5948V16.9999H9.17884V16.8599H9.59884C9.95351 16.8599 10.1915 16.8226 10.3128 16.7479C10.4342 16.6732 10.4948 16.5472 10.4948 16.3699C10.4948 16.2859 10.4808 16.1879 10.4528 16.0759C10.4248 15.9546 10.3922 15.8332 10.3548 15.7119C10.3175 15.5906 10.2848 15.4879 10.2568 15.4039L9.51484 13.3739H5.65084L4.95084 15.3479C4.92284 15.4319 4.89018 15.5346 4.85284 15.6559C4.81551 15.7772 4.78284 15.8986 4.75484 16.0199C4.72684 16.1319 4.71284 16.2299 4.71284 16.3139C4.71284 16.5099 4.79218 16.6499 4.95084 16.7339C5.10951 16.8179 5.40351 16.8599 5.83284 16.8599H6.36484V16.9999H3.18684ZM5.69284 13.2339H9.47284L8.39484 10.2379C8.29218 9.95791 8.18951 9.66858 8.08684 9.36991C7.98418 9.07124 7.88618 8.78658 7.79284 8.51591C7.70884 8.23591 7.62951 7.98391 7.55484 7.75991C7.50818 7.91858 7.45218 8.09124 7.38684 8.27791C7.33084 8.46458 7.26551 8.66058 7.19084 8.86591C7.12551 9.06191 7.05551 9.26258 6.98084 9.46791C6.91551 9.66391 6.85018 9.85991 6.78484 10.0559L5.69284 13.2339ZM15.7057 20.3599C14.791 20.3599 14.0957 20.1732 13.6197 19.7999C13.153 19.4266 12.9197 18.9272 12.9197 18.3019C12.9197 17.9472 13.0084 17.6439 13.1857 17.3919C13.363 17.1399 13.601 16.9392 13.8997 16.7899C14.2077 16.6406 14.553 16.5612 14.9357 16.5519C14.581 16.4586 14.315 16.2999 14.1377 16.0759C13.9604 15.8519 13.8717 15.6046 13.8717 15.3339C13.8717 15.1099 13.951 14.8859 14.1097 14.6619C14.2684 14.4379 14.5064 14.2419 14.8237 14.0739C14.3757 13.8872 14.0397 13.6026 13.8157 13.2199C13.601 12.8279 13.4937 12.3799 13.4937 11.8759C13.4937 11.1199 13.7037 10.5179 14.1237 10.0699C14.5437 9.61258 15.1597 9.38391 15.9717 9.38391C16.3077 9.38391 16.6064 9.43058 16.8677 9.52391C17.129 9.61724 17.3577 9.74791 17.5537 9.91591C17.6844 9.77591 17.815 9.64524 17.9457 9.52391C18.0857 9.40258 18.2304 9.30924 18.3797 9.24391C18.529 9.16924 18.6924 9.13191 18.8697 9.13191C19.0937 9.13191 19.2664 9.19258 19.3877 9.31391C19.5184 9.43524 19.5837 9.59391 19.5837 9.78991C19.5837 9.95791 19.537 10.0979 19.4437 10.2099C19.3504 10.3219 19.2104 10.3779 19.0237 10.3779C19.0237 10.0792 18.9817 9.86924 18.8977 9.74791C18.8137 9.61724 18.683 9.55191 18.5057 9.55191C18.375 9.55191 18.2444 9.58458 18.1137 9.64991C17.9924 9.71524 17.843 9.83191 17.6657 9.99991C17.8617 10.1959 18.025 10.4619 18.1557 10.7979C18.2864 11.1339 18.3517 11.5026 18.3517 11.9039C18.3517 12.5946 18.151 13.1639 17.7497 13.6119C17.3577 14.0599 16.765 14.2839 15.9717 14.2839C15.7944 14.2839 15.6217 14.2746 15.4537 14.2559C15.2857 14.2279 15.1317 14.1906 14.9917 14.1439C14.777 14.2652 14.623 14.4006 14.5297 14.5499C14.4457 14.6899 14.4037 14.8392 14.4037 14.9979C14.4037 15.2592 14.5064 15.4599 14.7117 15.5999C14.917 15.7399 15.197 15.8099 15.5517 15.8099H16.9517C17.4557 15.8099 17.8664 15.8939 18.1837 16.0619C18.5104 16.2206 18.7484 16.4492 18.8977 16.7479C19.0564 17.0466 19.1357 17.4012 19.1357 17.8119C19.1357 18.5866 18.851 19.2026 18.2817 19.6599C17.7217 20.1266 16.863 20.3599 15.7057 20.3599ZM15.7897 20.2199C16.3777 20.2199 16.863 20.1406 17.2457 19.9819C17.6377 19.8326 17.927 19.6039 18.1137 19.2959C18.3097 18.9879 18.4077 18.6006 18.4077 18.1339C18.4077 17.5926 18.2724 17.2099 18.0017 16.9859C17.731 16.7619 17.3297 16.6499 16.7977 16.6499H15.3837C15.0757 16.6499 14.791 16.7059 14.5297 16.8179C14.2684 16.9206 14.0584 17.0932 13.8997 17.3359C13.741 17.5786 13.6617 17.9146 13.6617 18.3439C13.6617 18.7266 13.7364 19.0579 13.8857 19.3379C14.0444 19.6272 14.2777 19.8466 14.5857 19.9959C14.903 20.1452 15.3044 20.2199 15.7897 20.2199ZM15.9297 14.1439C16.275 14.1439 16.5597 14.0692 16.7837 13.9199C17.0077 13.7706 17.1757 13.5326 17.2877 13.2059C17.3997 12.8792 17.4557 12.4452 17.4557 11.9039C17.4557 11.3439 17.3997 10.8912 17.2877 10.5459C17.1757 10.1912 17.0077 9.93458 16.7837 9.77591C16.5597 9.60791 16.275 9.52391 15.9297 9.52391C15.603 9.52391 15.323 9.60791 15.0897 9.77591C14.8564 9.94391 14.679 10.2052 14.5577 10.5599C14.4457 10.9052 14.3897 11.3579 14.3897 11.9179C14.3897 12.4312 14.4504 12.8559 14.5717 13.1919C14.693 13.5186 14.8657 13.7612 15.0897 13.9199C15.323 14.0692 15.603 14.1439 15.9297 14.1439Z" fill="white"/>
</svg>
