<svg width="24" height="24" viewBox="0 0 24 24" fill="none" xmlns="http://www.w3.org/2000/svg">
<path d="M10.7948 16.9996L9.8568 13.8916H6.6788L5.7408 16.9996H4.4668L7.6308 6.97559H8.9048L12.0828 16.9996H10.7948ZM8.6248 9.66359C8.5968 9.55159 8.55946 9.40692 8.5128 9.22959C8.46613 9.04292 8.41946 8.85626 8.3728 8.66959C8.32613 8.47359 8.2888 8.31492 8.2608 8.19359C8.22346 8.36159 8.18146 8.53426 8.1348 8.71159C8.09746 8.88892 8.06013 9.06159 8.0228 9.22959C7.98546 9.38826 7.94813 9.53292 7.9108 9.66359L7.0008 12.7856H9.5488L8.6248 9.66359ZM15.358 9.35559C15.778 9.35559 16.1514 9.44892 16.478 9.63559C16.8047 9.81292 17.0894 10.0976 17.332 10.4896H17.388L17.542 9.49559H18.508V17.1116C18.508 17.8116 18.396 18.4043 18.172 18.8896C17.9574 19.3749 17.626 19.7389 17.178 19.9816C16.7394 20.2336 16.17 20.3596 15.47 20.3596C15.022 20.3596 14.6114 20.3223 14.238 20.2476C13.874 20.1729 13.5334 20.0563 13.216 19.8976V18.7916C13.44 18.9036 13.6734 19.0016 13.916 19.0856C14.1587 19.1696 14.4107 19.2303 14.672 19.2676C14.9427 19.3143 15.218 19.3376 15.498 19.3376C16.086 19.3376 16.5387 19.1603 16.856 18.8056C17.1734 18.4603 17.332 17.9469 17.332 17.2656V16.9996C17.332 16.8689 17.3367 16.7009 17.346 16.4956C17.3554 16.2903 17.3647 16.1223 17.374 15.9916H17.318C17.094 16.3743 16.8187 16.6636 16.492 16.8596C16.1654 17.0463 15.7827 17.1396 15.344 17.1396C14.5227 17.1396 13.8834 16.8036 13.426 16.1316C12.9687 15.4596 12.74 14.5029 12.74 13.2616C12.74 12.4403 12.8427 11.7403 13.048 11.1616C13.2627 10.5736 13.5614 10.1256 13.944 9.81759C14.336 9.50959 14.8074 9.35559 15.358 9.35559ZM15.568 10.3776C15.2134 10.3776 14.9194 10.4896 14.686 10.7136C14.4527 10.9376 14.2707 11.2643 14.14 11.6936C14.0187 12.1229 13.958 12.6503 13.958 13.2756C13.958 14.2276 14.0934 14.9416 14.364 15.4176C14.644 15.8936 15.0547 16.1316 15.596 16.1316C15.8947 16.1316 16.1514 16.0849 16.366 15.9916C16.59 15.8889 16.772 15.7303 16.912 15.5156C17.052 15.3009 17.1547 15.0349 17.22 14.7176C17.2947 14.3909 17.332 14.0036 17.332 13.5556V13.2476C17.332 12.5756 17.2667 12.0296 17.136 11.6096C17.0147 11.1803 16.8234 10.8676 16.562 10.6716C16.31 10.4756 15.9787 10.3776 15.568 10.3776Z" fill="white"/>
</svg>
