<svg width="24" height="24" viewBox="0 0 24 24" fill="none" xmlns="http://www.w3.org/2000/svg">
<path d="M2.30063 16.9999L7.28463 7.00391H10.2806L11.0226 16.9999H8.72663L8.65663 14.8579H5.68863L4.76463 16.9999H2.30063ZM6.61263 12.9119H8.58663L8.50263 10.1959C8.4933 9.95324 8.48397 9.70591 8.47463 9.45391C8.47463 9.20191 8.4793 8.94991 8.48863 8.69791H8.44663C8.37197 8.93124 8.29263 9.15991 8.20863 9.38391C8.12463 9.60791 8.02663 9.85058 7.91463 10.1119L6.61263 12.9119ZM14.382 20.3599C13.8406 20.3599 13.388 20.3132 13.024 20.2199C12.6693 20.1359 12.3333 20.0286 12.016 19.8979L12.03 17.9239C12.2633 18.0452 12.4966 18.1479 12.73 18.2319C12.9726 18.3252 13.2293 18.3952 13.5 18.4419C13.7706 18.4886 14.0413 18.5119 14.312 18.5119C14.7413 18.5119 15.082 18.4046 15.334 18.1899C15.586 17.9846 15.7633 17.6812 15.866 17.2799L15.922 17.0279C15.95 16.9066 15.978 16.7806 16.006 16.6499C16.0433 16.5192 16.0713 16.4026 16.09 16.2999C16.118 16.1972 16.1413 16.1319 16.16 16.1039H16.104C15.9733 16.2812 15.8286 16.4492 15.67 16.6079C15.5206 16.7572 15.3386 16.8786 15.124 16.9719C14.9093 17.0652 14.662 17.1119 14.382 17.1119C14.018 17.1119 13.6913 17.0186 13.402 16.8319C13.1126 16.6452 12.884 16.3512 12.716 15.9499C12.548 15.5392 12.464 15.0072 12.464 14.3539C12.464 13.9059 12.506 13.4439 12.59 12.9679C12.6833 12.4826 12.8186 12.0159 12.996 11.5679C13.1826 11.1199 13.4113 10.7139 13.682 10.3499C13.9526 9.98591 14.2653 9.70124 14.62 9.49591C14.9746 9.28124 15.3713 9.17391 15.81 9.17391C16.09 9.17391 16.3326 9.21591 16.538 9.29991C16.7433 9.38391 16.9206 9.50524 17.07 9.66391C17.2286 9.82258 17.3826 10.0279 17.532 10.2799H17.588L17.952 9.31391H19.8L18.12 17.1819C17.952 17.9846 17.686 18.6146 17.322 19.0719C16.9673 19.5386 16.538 19.8699 16.034 20.0659C15.53 20.2619 14.9793 20.3599 14.382 20.3599ZM15.502 15.2639C15.6513 15.2639 15.7913 15.2172 15.922 15.1239C16.0526 15.0306 16.1693 14.8999 16.272 14.7319C16.3746 14.5639 16.468 14.3772 16.552 14.1719C16.6453 13.9572 16.72 13.7332 16.776 13.4999C16.832 13.2572 16.874 13.0192 16.902 12.7859C16.93 12.5432 16.944 12.3192 16.944 12.1139C16.944 11.7966 16.8926 11.5399 16.79 11.3439C16.6873 11.1479 16.5286 11.0499 16.314 11.0499C16.1553 11.0499 16.0013 11.1106 15.852 11.2319C15.712 11.3532 15.5766 11.5212 15.446 11.7359C15.3246 11.9412 15.2173 12.1792 15.124 12.4499C15.04 12.7112 14.97 12.9912 14.914 13.2899C14.8673 13.5886 14.844 13.8872 14.844 14.1859C14.844 14.5406 14.9 14.8112 15.012 14.9979C15.124 15.1752 15.2873 15.2639 15.502 15.2639Z" fill="white"/>
</svg>
