<svg width="24" height="24" viewBox="0 0 24 24" fill="none" xmlns="http://www.w3.org/2000/svg">
<path d="M5.23795 16.9999V16.8599H5.58795C5.75595 16.8599 5.88662 16.8319 5.97995 16.7759C6.07329 16.7199 6.15262 16.6079 6.21795 16.4399C6.29262 16.2719 6.37195 16.0246 6.45595 15.6979L8.70995 7.00391H9.07395L11.636 16.3279C11.6733 16.4772 11.7153 16.5892 11.762 16.6639C11.818 16.7386 11.888 16.7899 11.972 16.8179C12.0653 16.8459 12.1866 16.8599 12.336 16.8599H12.434V16.9999H10.054V16.8599H10.362C10.6606 16.8599 10.852 16.8319 10.936 16.7759C11.02 16.7199 11.062 16.6172 11.062 16.4679C11.062 16.4212 11.048 16.3512 11.02 16.2579C11.0013 16.1646 10.9733 16.0572 10.936 15.9359C10.908 15.8146 10.88 15.6979 10.852 15.5859L10.264 13.3739H7.21195L6.69395 15.3339C6.66595 15.4552 6.63329 15.5952 6.59595 15.7539C6.55862 15.9032 6.52595 16.0432 6.49795 16.1739C6.46995 16.3046 6.45595 16.4072 6.45595 16.4819C6.45595 16.6126 6.50262 16.7106 6.59595 16.7759C6.68929 16.8319 6.88062 16.8599 7.16995 16.8599H7.61795V16.9999H5.23795ZM7.25395 13.2339H10.222L9.36795 9.99991C9.25595 9.56124 9.15795 9.19258 9.07395 8.89391C8.98995 8.58591 8.91995 8.31991 8.86395 8.09591C8.81729 7.87191 8.77062 7.66658 8.72395 7.47991C8.69595 7.61058 8.66795 7.73658 8.63995 7.85791C8.61195 7.97924 8.57929 8.10524 8.54195 8.23591C8.51395 8.35724 8.47662 8.50191 8.42995 8.66991C8.38329 8.82858 8.33195 9.01524 8.27595 9.22991L7.25395 13.2339ZM14.7743 20.3739C14.0649 20.3739 13.5189 20.1966 13.1363 19.8419C12.7536 19.4872 12.5623 18.9879 12.5623 18.3439C12.5623 18.0079 12.6183 17.7092 12.7303 17.4479C12.8423 17.1866 13.0103 16.9672 13.2343 16.7899C13.4583 16.6032 13.7336 16.4586 14.0603 16.3559C13.7803 16.2626 13.5843 16.1226 13.4723 15.9359C13.3696 15.7492 13.3183 15.5486 13.3183 15.3339C13.3183 15.1286 13.3649 14.9326 13.4583 14.7459C13.5609 14.5499 13.7429 14.3306 14.0042 14.0879C13.6963 13.9292 13.4489 13.6632 13.2623 13.2899C13.0849 12.9166 12.9963 12.4826 12.9963 11.9879C12.9963 11.0732 13.1596 10.4152 13.4863 10.0139C13.8129 9.60324 14.2749 9.39791 14.8723 9.39791C15.1243 9.39791 15.3576 9.44924 15.5723 9.55191C15.7869 9.64524 15.9736 9.78991 16.1323 9.98591C16.1789 9.85524 16.2443 9.72924 16.3283 9.60791C16.4123 9.48658 16.5103 9.38391 16.6223 9.29991C16.7436 9.21591 16.8789 9.17391 17.0283 9.17391C17.2056 9.17391 17.3363 9.23924 17.4203 9.36991C17.5043 9.49124 17.5463 9.62658 17.5463 9.77591C17.5463 9.94391 17.5089 10.0699 17.4343 10.1539C17.3689 10.2379 17.2849 10.2799 17.1823 10.2799C17.1823 10.0466 17.1496 9.87391 17.0843 9.76191C17.0189 9.64991 16.9116 9.59391 16.7623 9.59391C16.6409 9.59391 16.5383 9.63591 16.4543 9.71991C16.3703 9.79458 16.2909 9.92058 16.2163 10.0979C16.3376 10.2939 16.4356 10.5319 16.5103 10.8119C16.5849 11.0919 16.6223 11.4606 16.6223 11.9179C16.6223 12.6552 16.4776 13.2339 16.1883 13.6539C15.8989 14.0646 15.4509 14.2699 14.8443 14.2699C14.7323 14.2699 14.6063 14.2606 14.4663 14.2419C14.3356 14.2232 14.2189 14.1906 14.1163 14.1439C13.9483 14.3119 13.8316 14.4706 13.7663 14.6199C13.7103 14.7599 13.6823 14.9092 13.6823 15.0679C13.6823 15.3386 13.7709 15.5532 13.9483 15.7119C14.1256 15.8706 14.3543 15.9499 14.6343 15.9499H15.4883C15.9176 15.9499 16.2583 16.0339 16.5103 16.2019C16.7623 16.3699 16.9443 16.6032 17.0563 16.9019C17.1776 17.1912 17.2383 17.5272 17.2383 17.9099C17.2383 18.6566 17.0236 19.2539 16.5943 19.7019C16.1743 20.1499 15.5676 20.3739 14.7743 20.3739ZM14.8163 20.2339C15.2736 20.2339 15.6423 20.1452 15.9223 19.9679C16.2116 19.7906 16.4216 19.5292 16.5523 19.1839C16.6829 18.8479 16.7483 18.4512 16.7483 17.9939C16.7483 17.5086 16.6503 17.1306 16.4543 16.8599C16.2583 16.5799 15.8756 16.4399 15.3063 16.4399H14.4383C14.1676 16.4399 13.9296 16.5239 13.7243 16.6919C13.5189 16.8599 13.3556 17.0839 13.2343 17.3639C13.1223 17.6439 13.0663 17.9659 13.0663 18.3299C13.0663 18.7406 13.1316 19.0859 13.2623 19.3659C13.4023 19.6552 13.6029 19.8699 13.8643 20.0099C14.1256 20.1592 14.4429 20.2339 14.8163 20.2339ZM14.8303 14.1299C15.1103 14.1299 15.3436 14.0506 15.5303 13.8919C15.7263 13.7332 15.8663 13.4906 15.9503 13.1639C16.0436 12.8372 16.0903 12.4126 16.0903 11.8899C16.0903 11.2739 16.0389 10.7979 15.9363 10.4619C15.8429 10.1259 15.7029 9.88791 15.5163 9.74791C15.3296 9.60791 15.0916 9.53791 14.8023 9.53791C14.5409 9.53791 14.3123 9.61724 14.1163 9.77591C13.9296 9.92524 13.7849 10.1726 13.6823 10.5179C13.5889 10.8539 13.5423 11.3159 13.5423 11.9039C13.5423 12.4172 13.5889 12.8372 13.6823 13.1639C13.7756 13.4906 13.9156 13.7332 14.1023 13.8919C14.2983 14.0506 14.5409 14.1299 14.8303 14.1299Z" fill="white"/>
</svg>
