<svg width="24" height="24" viewBox="0 0 24 24" fill="none" xmlns="http://www.w3.org/2000/svg">
<path d="M12.0649 17.0006L10.6089 13.2066H6.26891L4.77091 17.0006H4.37891L8.32691 6.97656H8.67691L12.4569 17.0006H12.0649ZM8.92891 8.68456C8.89157 8.57256 8.84957 8.45589 8.80291 8.33456C8.75624 8.21323 8.70491 8.07789 8.64891 7.92856C8.60224 7.77923 8.54624 7.62056 8.48091 7.45256C8.43424 7.59256 8.38291 7.73723 8.32691 7.88656C8.28024 8.02656 8.22891 8.16656 8.17291 8.30656C8.11691 8.43723 8.06557 8.56789 8.01891 8.69856L6.39491 12.8566H10.4689L8.92891 8.68456ZM16.519 9.46856C17.2003 9.46856 17.723 9.60389 18.087 9.87456C18.4603 10.1359 18.745 10.4719 18.941 10.8826H18.969L19.039 9.60856H19.347V17.3506C19.347 17.9386 19.2443 18.4566 19.039 18.9046C18.843 19.3619 18.521 19.7166 18.073 19.9686C17.625 20.2299 17.0277 20.3606 16.281 20.3606C15.7117 20.3606 15.217 20.3093 14.797 20.2066C14.3863 20.1039 14.013 19.9826 13.677 19.8426V19.4226C14.013 19.5813 14.4003 19.7166 14.839 19.8286C15.2777 19.9499 15.7583 20.0106 16.281 20.0106C17.2703 20.0106 17.9657 19.7679 18.367 19.2826C18.7777 18.7973 18.983 18.1533 18.983 17.3506V16.7626C18.983 16.4919 18.983 16.2586 18.983 16.0626C18.9923 15.8666 19.0017 15.6333 19.011 15.3626H18.983C18.815 15.9413 18.5023 16.3846 18.045 16.6926C17.5877 16.9913 17.0137 17.1406 16.323 17.1406C15.371 17.1406 14.6243 16.8279 14.083 16.2026C13.551 15.5679 13.285 14.6393 13.285 13.4166C13.285 12.1939 13.5557 11.2326 14.097 10.5326C14.6383 9.82323 15.4457 9.46856 16.519 9.46856ZM16.519 9.81856C15.8657 9.81856 15.329 9.96323 14.909 10.2526C14.489 10.5326 14.1763 10.9433 13.971 11.4846C13.7657 12.0166 13.663 12.6606 13.663 13.4166C13.663 14.5179 13.8917 15.3579 14.349 15.9366C14.8157 16.5059 15.4737 16.7906 16.323 16.7906C16.8737 16.7906 17.3217 16.6973 17.667 16.5106C18.0123 16.3146 18.2783 16.0626 18.465 15.7546C18.661 15.4373 18.7963 15.0873 18.871 14.7046C18.9457 14.3219 18.983 13.9393 18.983 13.5566V12.8846C18.983 12.2966 18.9083 11.7739 18.759 11.3166C18.6097 10.8499 18.3577 10.4859 18.003 10.2246C17.6483 9.95389 17.1537 9.81856 16.519 9.81856Z" fill="white"/>
</svg>
