<svg width="24" height="24" viewBox="0 0 24 24" fill="none" xmlns="http://www.w3.org/2000/svg">
<path d="M4.35026 16.9999V16.5519H4.60226C4.77959 16.5519 4.91959 16.5286 5.02226 16.4819C5.12492 16.4352 5.21359 16.3419 5.28826 16.2019C5.37226 16.0619 5.45626 15.8519 5.54026 15.5719L8.39626 7.00391H9.13826L12.0503 15.8939C12.1156 16.0806 12.1809 16.2206 12.2463 16.3139C12.3116 16.4072 12.3956 16.4726 12.4983 16.5099C12.6103 16.5379 12.7549 16.5519 12.9323 16.5519H13.1283V16.9999H9.96426V16.5519H10.3143C10.6036 16.5519 10.7996 16.5099 10.9023 16.4259C11.0143 16.3419 11.0703 16.2112 11.0703 16.0339C11.0703 15.9592 11.0563 15.8706 11.0283 15.7679C11.0096 15.6652 10.9816 15.5579 10.9443 15.4459C10.9163 15.3339 10.8883 15.2359 10.8603 15.1519L10.3423 13.5699H6.84226L6.36626 15.0539C6.33826 15.1379 6.30559 15.2406 6.26826 15.3619C6.23092 15.4832 6.19826 15.6046 6.17026 15.7259C6.14226 15.8379 6.12826 15.9359 6.12826 16.0199C6.12826 16.1972 6.18426 16.3326 6.29626 16.4259C6.41759 16.5099 6.63226 16.5519 6.94026 16.5519H7.37426V16.9999H4.35026ZM7.02426 13.0379H10.1743L9.27826 10.2239C9.19426 9.94391 9.11026 9.66858 9.02626 9.39791C8.94226 9.12724 8.86292 8.87058 8.78826 8.62791C8.72292 8.38524 8.66226 8.17058 8.60626 7.98391C8.57826 8.11458 8.54092 8.26391 8.49426 8.43191C8.44759 8.59058 8.39626 8.76324 8.34026 8.94991C8.28426 9.13658 8.22826 9.32324 8.17226 9.50991C8.11626 9.69658 8.05559 9.88791 7.99026 10.0839L7.02426 13.0379ZM15.8785 20.3599C15.0105 20.3599 14.3572 20.1686 13.9185 19.7859C13.4892 19.4126 13.2745 18.8992 13.2745 18.2459C13.2745 17.8632 13.3492 17.5366 13.4985 17.2659C13.6572 17.0046 13.8578 16.7992 14.1005 16.6499C14.3432 16.4912 14.5905 16.3839 14.8425 16.3279C14.6652 16.2439 14.5065 16.1179 14.3665 15.9499C14.2265 15.7819 14.1565 15.5579 14.1565 15.2779C14.1565 15.0072 14.2312 14.7692 14.3805 14.5639C14.5298 14.3492 14.7072 14.1719 14.9125 14.0319C14.5578 13.8452 14.2825 13.5606 14.0865 13.1779C13.8998 12.7859 13.8065 12.3612 13.8065 11.9039C13.8065 11.1199 14.0025 10.5039 14.3945 10.0559C14.7865 9.60791 15.3605 9.38391 16.1165 9.38391C16.4245 9.38391 16.7045 9.43524 16.9565 9.53791C17.2085 9.63124 17.4092 9.74324 17.5585 9.87391C17.6425 9.78058 17.7405 9.67791 17.8525 9.56591C17.9645 9.44458 18.0952 9.34191 18.2445 9.25791C18.4032 9.16458 18.5712 9.11791 18.7485 9.11791C18.9818 9.11791 19.1545 9.18791 19.2665 9.32791C19.3785 9.45858 19.4345 9.61724 19.4345 9.80391C19.4345 9.98124 19.3925 10.1306 19.3085 10.2519C19.2338 10.3732 19.1078 10.4339 18.9305 10.4339C18.9305 10.2472 18.8978 10.0979 18.8325 9.98591C18.7765 9.87391 18.6785 9.81791 18.5385 9.81791C18.3985 9.81791 18.2772 9.85058 18.1745 9.91591C18.0718 9.98124 17.9598 10.0746 17.8385 10.1959C17.9785 10.3826 18.0905 10.6112 18.1745 10.8819C18.2678 11.1526 18.3145 11.4932 18.3145 11.9039C18.3145 12.6039 18.1325 13.1779 17.7685 13.6259C17.4045 14.0646 16.8538 14.2839 16.1165 14.2839C16.0138 14.2839 15.8785 14.2746 15.7105 14.2559C15.5518 14.2372 15.4352 14.2139 15.3605 14.1859C15.2112 14.2979 15.0805 14.4332 14.9685 14.5919C14.8565 14.7412 14.8005 14.9372 14.8005 15.1799C14.8005 15.4132 14.8845 15.5812 15.0525 15.6839C15.2298 15.7866 15.4818 15.8379 15.8085 15.8379H16.9985C17.4838 15.8379 17.8712 15.9219 18.1605 16.0899C18.4592 16.2579 18.6785 16.4912 18.8185 16.7899C18.9678 17.0792 19.0425 17.4246 19.0425 17.8259C19.0425 18.6006 18.7812 19.2166 18.2585 19.6739C17.7358 20.1312 16.9425 20.3599 15.8785 20.3599ZM15.9065 19.8279C16.4852 19.8279 16.9472 19.7486 17.2925 19.5899C17.6378 19.4312 17.8852 19.2119 18.0345 18.9319C18.1838 18.6519 18.2585 18.3252 18.2585 17.9519C18.2585 17.4572 18.1418 17.1166 17.9085 16.9299C17.6752 16.7339 17.3158 16.6359 16.8305 16.6359H15.6265C15.3465 16.6359 15.0852 16.6872 14.8425 16.7899C14.6092 16.8926 14.4178 17.0559 14.2685 17.2799C14.1192 17.5039 14.0445 17.8119 14.0445 18.2039C14.0445 18.5026 14.1005 18.7732 14.2125 19.0159C14.3338 19.2679 14.5298 19.4639 14.8005 19.6039C15.0712 19.7532 15.4398 19.8279 15.9065 19.8279ZM16.0745 13.7659C16.3918 13.7659 16.6532 13.7052 16.8585 13.5839C17.0638 13.4532 17.2132 13.2479 17.3065 12.9679C17.4092 12.6879 17.4605 12.3286 17.4605 11.8899C17.4605 11.4232 17.4092 11.0452 17.3065 10.7559C17.2038 10.4572 17.0498 10.2426 16.8445 10.1119C16.6392 9.97191 16.3778 9.90191 16.0605 9.90191C15.7618 9.90191 15.5052 9.97658 15.2905 10.1259C15.0852 10.2659 14.9265 10.4852 14.8145 10.7839C14.7118 11.0732 14.6605 11.4466 14.6605 11.9039C14.6605 12.3239 14.7118 12.6739 14.8145 12.9539C14.9265 13.2246 15.0852 13.4299 15.2905 13.5699C15.5052 13.7006 15.7665 13.7659 16.0745 13.7659Z" fill="white"/>
</svg>
