<svg width="24" height="24" viewBox="0 0 24 24" fill="none" xmlns="http://www.w3.org/2000/svg">
<path d="M3.29786 16.9999V16.3279H3.47986C3.63853 16.3279 3.77386 16.2999 3.88586 16.2439C4.00719 16.1879 4.11453 16.0852 4.20786 15.9359C4.30119 15.7866 4.39919 15.5672 4.50186 15.2779L7.34386 7.00391H8.88386L11.6839 15.4879C11.7585 15.7026 11.8425 15.8752 11.9359 16.0059C12.0292 16.1272 12.1319 16.2112 12.2439 16.2579C12.3652 16.3046 12.5052 16.3279 12.6639 16.3279H12.8459V16.9999H8.78586V16.3279H9.20586C9.39253 16.3279 9.54653 16.2859 9.66786 16.2019C9.78919 16.1086 9.84986 15.9639 9.84986 15.7679C9.84986 15.6932 9.84519 15.6186 9.83586 15.5439C9.82653 15.4692 9.81253 15.3946 9.79386 15.3199C9.77519 15.2452 9.75186 15.1799 9.72386 15.1239L9.26186 13.6819H6.02786L5.62186 14.9699C5.60319 15.0446 5.57986 15.1286 5.55186 15.2219C5.52386 15.3059 5.50053 15.3946 5.48186 15.4879C5.47253 15.5812 5.46786 15.6652 5.46786 15.7399C5.46786 15.9266 5.52853 16.0712 5.64986 16.1739C5.77119 16.2766 5.93919 16.3279 6.15386 16.3279H6.60186V16.9999H3.29786ZM6.29386 12.8979H9.00986L8.26786 10.4339C8.19319 10.1819 8.11853 9.93924 8.04386 9.70591C7.97853 9.46324 7.91319 9.22991 7.84786 9.00591C7.79186 8.77258 7.74053 8.55324 7.69386 8.34791C7.65653 8.49724 7.61453 8.65124 7.56786 8.80991C7.53053 8.96858 7.48386 9.13191 7.42786 9.29991C7.38119 9.46791 7.32986 9.64058 7.27386 9.81791C7.22719 9.98591 7.17586 10.1586 7.11986 10.3359L6.29386 12.8979ZM15.6184 20.3459C14.6291 20.3459 13.8917 20.1732 13.4064 19.8279C12.9211 19.4826 12.6784 18.9926 12.6784 18.3579C12.6784 18.0126 12.7484 17.7186 12.8884 17.4759C13.0377 17.2332 13.2431 17.0419 13.5044 16.9019C13.7657 16.7619 14.0597 16.6732 14.3864 16.6359C14.1717 16.5332 13.9711 16.3886 13.7844 16.2019C13.5977 16.0152 13.5044 15.7679 13.5044 15.4599C13.5044 15.1612 13.6024 14.9046 13.7984 14.6899C13.9944 14.4659 14.2511 14.2559 14.5684 14.0599C14.1857 13.9012 13.8731 13.6352 13.6304 13.2619C13.3877 12.8886 13.2664 12.4406 13.2664 11.9179C13.2664 11.1059 13.4857 10.4712 13.9244 10.0139C14.3631 9.55658 15.0304 9.32791 15.9264 9.32791C16.2437 9.32791 16.5331 9.37458 16.7944 9.46791C17.0651 9.55191 17.2891 9.65458 17.4664 9.77591C17.5877 9.64524 17.7137 9.51924 17.8444 9.39791C17.9844 9.27658 18.1291 9.17858 18.2784 9.10391C18.4371 9.02924 18.6144 8.99191 18.8104 8.99191C19.0997 8.99191 19.3144 9.07124 19.4544 9.22991C19.5944 9.37924 19.6644 9.55658 19.6644 9.76191C19.6644 9.96724 19.6037 10.1492 19.4824 10.3079C19.3611 10.4666 19.1464 10.5459 18.8384 10.5459C18.8384 10.3779 18.7917 10.2426 18.6984 10.1399C18.6144 10.0279 18.5071 9.97191 18.3764 9.97191C18.2831 9.97191 18.1944 9.99058 18.1104 10.0279C18.0264 10.0559 17.9517 10.0979 17.8864 10.1539C18.0544 10.3499 18.1944 10.5926 18.3064 10.8819C18.4277 11.1619 18.4884 11.4979 18.4884 11.8899C18.4884 12.5992 18.2784 13.1872 17.8584 13.6539C17.4477 14.1112 16.8037 14.3399 15.9264 14.3399C15.8237 14.3399 15.6931 14.3352 15.5344 14.3259C15.3851 14.3072 15.2684 14.2886 15.1844 14.2699C15.0537 14.3446 14.9371 14.4519 14.8344 14.5919C14.7317 14.7226 14.6804 14.8812 14.6804 15.0679C14.6804 15.2452 14.7364 15.3759 14.8484 15.4599C14.9697 15.5439 15.1517 15.5859 15.3944 15.5859H16.8924C17.4524 15.5859 17.9051 15.6746 18.2504 15.8519C18.6051 16.0199 18.8664 16.2626 19.0344 16.5799C19.2024 16.8972 19.2864 17.2612 19.2864 17.6719C19.2864 18.5026 18.9831 19.1559 18.3764 19.6319C17.7791 20.1079 16.8597 20.3459 15.6184 20.3459ZM15.6464 19.5759C16.1877 19.5759 16.6217 19.5106 16.9484 19.3799C17.2751 19.2586 17.5131 19.0812 17.6624 18.8479C17.8117 18.6239 17.8864 18.3579 17.8864 18.0499C17.8864 17.6952 17.7884 17.4479 17.5924 17.3079C17.4057 17.1679 17.1211 17.0979 16.7384 17.0979H15.3104C15.1144 17.0979 14.9184 17.1306 14.7224 17.1959C14.5357 17.2612 14.3771 17.3779 14.2464 17.5459C14.1251 17.7232 14.0644 17.9752 14.0644 18.3019C14.0644 18.5632 14.1204 18.7872 14.2324 18.9739C14.3444 19.1699 14.5171 19.3192 14.7504 19.4219C14.9837 19.5246 15.2824 19.5759 15.6464 19.5759ZM15.8844 13.5839C16.1551 13.5839 16.3604 13.5232 16.5004 13.4019C16.6497 13.2712 16.7524 13.0799 16.8084 12.8279C16.8737 12.5666 16.9064 12.2539 16.9064 11.8899C16.9064 11.5072 16.8737 11.1852 16.8084 10.9239C16.7431 10.6532 16.6357 10.4479 16.4864 10.3079C16.3464 10.1679 16.1457 10.0979 15.8844 10.0979C15.6324 10.0979 15.4317 10.1726 15.2824 10.3219C15.1331 10.4619 15.0211 10.6672 14.9464 10.9379C14.8811 11.1992 14.8484 11.5212 14.8484 11.9039C14.8484 12.2586 14.8811 12.5619 14.9464 12.8139C15.0211 13.0659 15.1331 13.2572 15.2824 13.3879C15.4411 13.5186 15.6417 13.5839 15.8844 13.5839Z" fill="white"/>
</svg>
