<svg width="24" height="24" viewBox="0 0 24 24" fill="none" xmlns="http://www.w3.org/2000/svg">
<path d="M5.34163 16.9999L9.98963 6.96191H10.4096L10.8296 16.9999H10.4796L10.3116 13.0799H7.55363L5.74763 16.9999H5.34163ZM7.70763 12.7299H10.2836L10.1296 8.57191C10.1203 8.37591 10.111 8.18458 10.1016 7.99791C10.1016 7.81124 10.1016 7.64324 10.1016 7.49391H10.0736C10.0176 7.64324 9.94763 7.80658 9.86363 7.98391C9.77963 8.16124 9.69097 8.35724 9.59763 8.57191L7.70763 12.7299ZM13.1621 20.3599C12.8541 20.3599 12.5647 20.3179 12.2941 20.2339C12.0234 20.1499 11.8041 20.0659 11.6361 19.9819V19.5759C11.7574 19.6412 11.8974 19.7066 12.0561 19.7719C12.2147 19.8466 12.3874 19.9026 12.5741 19.9399C12.7701 19.9866 12.9661 20.0099 13.1621 20.0099C13.8807 20.0099 14.4081 19.7952 14.7441 19.3659C15.0894 18.9459 15.3507 18.3252 15.5281 17.5039L15.7101 16.6919C15.7287 16.5892 15.7521 16.4726 15.7801 16.3419C15.8081 16.2112 15.8407 16.0759 15.8781 15.9359C15.9154 15.7959 15.9481 15.6559 15.9761 15.5159H15.9481C15.7894 15.8146 15.6027 16.0899 15.3881 16.3419C15.1734 16.5846 14.9354 16.7806 14.6741 16.9299C14.4127 17.0699 14.1187 17.1399 13.7921 17.1399C13.4467 17.1399 13.1527 17.0512 12.9101 16.8739C12.6767 16.6966 12.4994 16.4399 12.3781 16.1039C12.2661 15.7679 12.2101 15.3666 12.2101 14.8999C12.2101 14.4519 12.2521 13.9806 12.3361 13.4859C12.4201 12.9912 12.5461 12.5106 12.7141 12.0439C12.8914 11.5679 13.1061 11.1386 13.3581 10.7559C13.6101 10.3732 13.9087 10.0652 14.2541 9.83191C14.5994 9.59858 14.9867 9.48191 15.4161 9.48191C15.7334 9.48191 15.9947 9.55191 16.2001 9.69191C16.4147 9.83191 16.5781 10.0092 16.6901 10.2239C16.8114 10.4386 16.8861 10.6766 16.9141 10.9379H16.9561L17.2501 9.62191H17.5581L15.8641 17.6019C15.7427 18.1712 15.5747 18.6612 15.3601 19.0719C15.1454 19.4919 14.8607 19.8092 14.5061 20.0239C14.1514 20.2479 13.7034 20.3599 13.1621 20.3599ZM13.8341 16.7899C14.1327 16.7899 14.4081 16.6966 14.6601 16.5099C14.9214 16.3139 15.1547 16.0526 15.3601 15.7259C15.5747 15.3992 15.7614 15.0399 15.9201 14.6479C16.0881 14.2466 16.2281 13.8452 16.3401 13.4439C16.4521 13.0426 16.5361 12.6646 16.5921 12.3099C16.6481 11.9552 16.6761 11.6566 16.6761 11.4139C16.6761 10.9192 16.5594 10.5319 16.3261 10.2519C16.1021 9.97191 15.7941 9.83191 15.4021 9.83191C15.0381 9.83191 14.7021 9.93924 14.3941 10.1539C14.0954 10.3686 13.8341 10.6579 13.6101 11.0219C13.3861 11.3859 13.1947 11.7872 13.0361 12.2259C12.8867 12.6646 12.7747 13.1172 12.7001 13.5839C12.6254 14.0412 12.5881 14.4752 12.5881 14.8859C12.5881 15.5299 12.6907 16.0106 12.8961 16.3279C13.1107 16.6359 13.4234 16.7899 13.8341 16.7899Z" fill="white"/>
</svg>
