<svg width="24" height="24" viewBox="0 0 24 24" fill="none" xmlns="http://www.w3.org/2000/svg">
<path d="M3.44076 16.9999V16.8599H3.88876C4.07542 16.8599 4.22942 16.8319 4.35076 16.7759C4.47209 16.7106 4.57942 16.5986 4.67276 16.4399C4.76609 16.2812 4.85476 16.0619 4.93876 15.7819L7.75276 7.00391H8.70476L11.8128 16.0899C11.8874 16.2859 11.9574 16.4399 12.0228 16.5519C12.0974 16.6639 12.1814 16.7432 12.2748 16.7899C12.3774 16.8366 12.5034 16.8599 12.6528 16.8599H12.7788V16.9999H8.99876V16.8599H9.44676C9.73609 16.8599 9.94142 16.8226 10.0628 16.7479C10.1841 16.6732 10.2448 16.5472 10.2448 16.3699C10.2448 16.3046 10.2354 16.2392 10.2168 16.1739C10.2074 16.0992 10.1888 16.0199 10.1608 15.9359C10.1421 15.8426 10.1188 15.7492 10.0908 15.6559L9.34876 13.3599H5.87676L5.17676 15.5019C5.14876 15.6046 5.12076 15.7072 5.09276 15.8099C5.06476 15.9126 5.04142 16.0059 5.02276 16.0899C5.01342 16.1646 5.00876 16.2392 5.00876 16.3139C5.00876 16.5099 5.08342 16.6499 5.23276 16.7339C5.39142 16.8179 5.64342 16.8599 5.98876 16.8599H6.54876V16.9999H3.44076ZM5.91876 13.2199H9.29276L8.32676 10.1679C8.22409 9.84124 8.12609 9.53791 8.03276 9.25791C7.94876 8.97791 7.86942 8.71658 7.79476 8.47391C7.72942 8.23124 7.66876 8.00724 7.61276 7.80191C7.56609 7.98858 7.51476 8.16591 7.45876 8.33391C7.41209 8.49258 7.36076 8.65591 7.30476 8.82391C7.25809 8.98258 7.20209 9.14591 7.13676 9.31391C7.08076 9.48191 7.02009 9.67324 6.95476 9.88791L5.91876 13.2199ZM15.5429 20.3459C14.6002 20.3459 13.8909 20.1826 13.4149 19.8559C12.9482 19.5292 12.7149 19.0859 12.7149 18.5259C12.7149 18.2086 12.7849 17.9332 12.9249 17.6999C13.0742 17.4759 13.2982 17.2939 13.5969 17.1539C13.9049 17.0139 14.2922 16.9252 14.7589 16.8879C14.3575 16.8039 14.0589 16.6359 13.8629 16.3839C13.6669 16.1319 13.5689 15.8519 13.5689 15.5439C13.5689 15.2546 13.6622 14.9886 13.8489 14.7459C14.0355 14.4939 14.3249 14.2886 14.7169 14.1299C14.2875 13.9712 13.9422 13.7052 13.6809 13.3319C13.4195 12.9586 13.2889 12.4966 13.2889 11.9459C13.2889 11.1059 13.4989 10.4666 13.9189 10.0279C14.3389 9.57991 14.9782 9.35591 15.8369 9.35591C16.1542 9.35591 16.4435 9.39791 16.7049 9.48191C16.9755 9.56591 17.2135 9.69191 17.4189 9.85991C17.5122 9.71991 17.6195 9.58924 17.7409 9.46791C17.8622 9.33724 17.9975 9.23458 18.1469 9.15991C18.3055 9.07591 18.4782 9.03391 18.6649 9.03391C18.9262 9.03391 19.1222 9.10858 19.2529 9.25791C19.3835 9.39791 19.4489 9.57058 19.4489 9.77591C19.4489 9.97191 19.3929 10.1399 19.2809 10.2799C19.1689 10.4106 18.9775 10.4759 18.7069 10.4759C18.7069 10.1772 18.6602 9.95791 18.5669 9.81791C18.4735 9.67791 18.3335 9.60791 18.1469 9.60791C18.0349 9.60791 17.9322 9.63591 17.8389 9.69191C17.7455 9.73858 17.6429 9.82258 17.5309 9.94391C17.7735 10.1679 17.9602 10.4432 18.0909 10.7699C18.2309 11.0966 18.3009 11.4699 18.3009 11.8899C18.3009 12.6086 18.1002 13.1919 17.6989 13.6399C17.2975 14.0879 16.6769 14.3119 15.8369 14.3119C15.6689 14.3119 15.5009 14.3026 15.3329 14.2839C15.1742 14.2652 15.0249 14.2326 14.8849 14.1859C14.6982 14.2979 14.5675 14.4146 14.4929 14.5359C14.4182 14.6572 14.3809 14.7926 14.3809 14.9419C14.3809 15.1752 14.4602 15.3526 14.6189 15.4739C14.7869 15.5859 15.0295 15.6419 15.3469 15.6419H16.7749C17.3162 15.6419 17.7549 15.7306 18.0909 15.9079C18.4269 16.0852 18.6742 16.3279 18.8329 16.6359C18.9915 16.9439 19.0709 17.3079 19.0709 17.7279C19.0709 18.5306 18.7815 19.1652 18.2029 19.6319C17.6242 20.1079 16.7375 20.3459 15.5429 20.3459ZM15.6829 20.2059C16.1962 20.2059 16.6255 20.1359 16.9709 19.9959C17.3162 19.8559 17.5729 19.6459 17.7409 19.3659C17.9089 19.0859 17.9929 18.7406 17.9929 18.3299C17.9929 17.8819 17.8762 17.5412 17.6429 17.3079C17.4189 17.0746 17.0502 16.9579 16.5369 16.9579H15.2769C15.0155 16.9579 14.7729 17.0092 14.5489 17.1119C14.3342 17.2239 14.1615 17.3919 14.0309 17.6159C13.9002 17.8492 13.8349 18.1526 13.8349 18.5259C13.8349 18.9086 13.9095 19.2259 14.0589 19.4779C14.2082 19.7299 14.4182 19.9119 14.6889 20.0239C14.9689 20.1452 15.3002 20.2059 15.6829 20.2059ZM15.7949 14.1719C16.0655 14.1719 16.2802 14.0972 16.4389 13.9479C16.6069 13.7986 16.7282 13.5606 16.8029 13.2339C16.8775 12.8979 16.9149 12.4546 16.9149 11.9039C16.9149 11.3066 16.8729 10.8352 16.7889 10.4899C16.7142 10.1352 16.5929 9.88324 16.4249 9.73391C16.2662 9.57524 16.0515 9.49591 15.7809 9.49591C15.5195 9.49591 15.3049 9.57524 15.1369 9.73391C14.9782 9.89258 14.8569 10.1492 14.7729 10.5039C14.6982 10.8586 14.6609 11.3299 14.6609 11.9179C14.6609 12.4592 14.6982 12.8979 14.7729 13.2339C14.8569 13.5606 14.9782 13.7986 15.1369 13.9479C15.3049 14.0972 15.5242 14.1719 15.7949 14.1719Z" fill="white"/>
</svg>
