<svg width="24" height="24" viewBox="0 0 24 24" fill="none" xmlns="http://www.w3.org/2000/svg">
<path d="M4.07748 16.9999V16.4119H4.31548C4.48348 16.4119 4.61881 16.3839 4.72148 16.3279C4.82414 16.2719 4.91748 16.1646 5.00148 16.0059C5.09481 15.8472 5.19281 15.6186 5.29548 15.3199L8.15148 7.00391H9.22948L12.1415 15.7119C12.2068 15.8986 12.2768 16.0432 12.3515 16.1459C12.4355 16.2486 12.5335 16.3186 12.6455 16.3559C12.7668 16.3932 12.9115 16.4119 13.0795 16.4119H13.2335V16.9999H9.62148V16.4119H9.91548C10.1768 16.4119 10.3681 16.3606 10.4895 16.2579C10.6201 16.1552 10.6855 16.0012 10.6855 15.7959C10.6855 15.7306 10.6808 15.6652 10.6715 15.5999C10.6621 15.5346 10.6481 15.4646 10.6295 15.3899C10.6108 15.3152 10.5875 15.2406 10.5595 15.1659L10.0695 13.6539H6.69548L6.21948 15.0679C6.20081 15.1426 6.17748 15.2219 6.14948 15.3059C6.13081 15.3899 6.11681 15.4692 6.10748 15.5439C6.09814 15.6186 6.09348 15.6886 6.09348 15.7539C6.09348 15.9686 6.15881 16.1319 6.28948 16.2439C6.42948 16.3559 6.64414 16.4119 6.93348 16.4119H7.24148V16.9999H4.07748ZM6.94748 12.9539H9.83148L9.03348 10.4199C8.94948 10.1399 8.86548 9.87858 8.78148 9.63591C8.70681 9.38391 8.63681 9.14591 8.57148 8.92191C8.50614 8.69791 8.45014 8.48324 8.40348 8.27791C8.36614 8.43658 8.32881 8.59524 8.29148 8.75391C8.25414 8.90324 8.21214 9.06191 8.16548 9.22991C8.11881 9.38858 8.06748 9.55658 8.01148 9.73391C7.95548 9.91124 7.89481 10.0979 7.82948 10.2939L6.94748 12.9539ZM15.9599 20.3459C15.0545 20.3459 14.3732 20.1639 13.9159 19.7999C13.4679 19.4452 13.2439 18.9506 13.2439 18.3159C13.2439 17.9519 13.3185 17.6439 13.4679 17.3919C13.6172 17.1399 13.8132 16.9392 14.0559 16.7899C14.3079 16.6406 14.5785 16.5379 14.8679 16.4819C14.6812 16.3979 14.5085 16.2672 14.3499 16.0899C14.2005 15.9032 14.1259 15.6606 14.1259 15.3619C14.1259 15.0819 14.2005 14.8392 14.3499 14.6339C14.4992 14.4286 14.7139 14.2372 14.9939 14.0599C14.6205 13.8919 14.3265 13.6166 14.1119 13.2339C13.9065 12.8419 13.8039 12.4126 13.8039 11.9459C13.8039 11.1432 14.0092 10.5132 14.4199 10.0559C14.8305 9.58924 15.4512 9.35591 16.2819 9.35591C16.5899 9.35591 16.8792 9.40258 17.1499 9.49591C17.4205 9.58924 17.6259 9.69658 17.7659 9.81791C17.8499 9.72458 17.9525 9.62191 18.0739 9.50991C18.1952 9.38858 18.3352 9.28591 18.4939 9.20191C18.6619 9.10858 18.8439 9.06191 19.0399 9.06191C19.2919 9.06191 19.4785 9.13658 19.5999 9.28591C19.7305 9.42591 19.7959 9.59391 19.7959 9.78991C19.7959 9.98591 19.7399 10.1586 19.6279 10.3079C19.5252 10.4479 19.3525 10.5179 19.1099 10.5179C19.1099 10.3966 19.0725 10.2799 18.9979 10.1679C18.9325 10.0559 18.8205 9.99991 18.6619 9.99991C18.5499 9.99991 18.4519 10.0186 18.3679 10.0559C18.2839 10.0932 18.1999 10.1399 18.1159 10.1959C18.2652 10.3919 18.3912 10.6206 18.4939 10.8819C18.5965 11.1432 18.6479 11.4792 18.6479 11.8899C18.6479 12.5899 18.4519 13.1686 18.0599 13.6259C17.6679 14.0832 17.0752 14.3119 16.2819 14.3119C16.1699 14.3119 16.0439 14.3072 15.9039 14.2979C15.7639 14.2792 15.6472 14.2606 15.5539 14.2419C15.4139 14.3352 15.2832 14.4519 15.1619 14.5919C15.0499 14.7319 14.9939 14.9092 14.9939 15.1239C14.9939 15.3199 15.0499 15.4646 15.1619 15.5579C15.2832 15.6512 15.5025 15.6979 15.8199 15.6979H17.2479C17.7705 15.6979 18.1859 15.7912 18.4939 15.9779C18.8112 16.1552 19.0399 16.3979 19.1799 16.7059C19.3292 17.0139 19.4039 17.3592 19.4039 17.7419C19.4039 18.5446 19.1239 19.1792 18.5639 19.6459C18.0039 20.1126 17.1359 20.3459 15.9599 20.3459ZM15.9879 19.6739C16.5945 19.6739 17.0659 19.5992 17.4019 19.4499C17.7379 19.3006 17.9712 19.0952 18.1019 18.8339C18.2419 18.5819 18.3119 18.2926 18.3119 17.9659C18.3119 17.5366 18.1999 17.2426 17.9759 17.0839C17.7612 16.9346 17.4392 16.8599 17.0099 16.8599H15.7219C15.4885 16.8599 15.2645 16.8972 15.0499 16.9719C14.8352 17.0466 14.6579 17.1819 14.5179 17.3779C14.3872 17.5739 14.3219 17.8539 14.3219 18.2179C14.3219 18.4979 14.3732 18.7452 14.4759 18.9599C14.5785 19.1839 14.7512 19.3566 14.9939 19.4779C15.2365 19.6086 15.5679 19.6739 15.9879 19.6739ZM16.2399 13.6539C16.5292 13.6539 16.7579 13.5932 16.9259 13.4719C17.1032 13.3506 17.2245 13.1592 17.2899 12.8979C17.3645 12.6272 17.4019 12.2912 17.4019 11.8899C17.4019 11.4699 17.3645 11.1199 17.2899 10.8399C17.2152 10.5599 17.0892 10.3546 16.9119 10.2239C16.7439 10.0932 16.5152 10.0279 16.2259 10.0279C15.9552 10.0279 15.7312 10.0979 15.5539 10.2379C15.3765 10.3686 15.2459 10.5739 15.1619 10.8539C15.0872 11.1339 15.0499 11.4839 15.0499 11.9039C15.0499 12.2959 15.0919 12.6226 15.1759 12.8839C15.2599 13.1452 15.3859 13.3412 15.5539 13.4719C15.7312 13.5932 15.9599 13.6539 16.2399 13.6539Z" fill="white"/>
</svg>
