<svg width="24" height="24" viewBox="0 0 24 24" fill="none" xmlns="http://www.w3.org/2000/svg">
<path d="M3.33204 17.0003H4.64804L6.45404 11.2603C6.83204 10.1123 7.15404 8.99228 7.49004 7.80228H7.54604C7.88204 8.99228 8.20404 10.1123 8.56804 11.2603L10.374 17.0003H11.732L8.26004 6.73828H6.80404L3.33204 17.0003ZM5.15204 13.8643H9.88404V12.8423H5.15204V13.8643ZM15.6576 20.5003C17.9956 20.5003 19.4936 19.2963 19.4936 17.8823C19.4936 16.6223 18.6116 16.0763 16.8476 16.0763H15.3636C14.3416 16.0763 14.0196 15.7263 14.0196 15.2363C14.0196 14.8303 14.2436 14.5643 14.5096 14.3403C14.8596 14.5083 15.2796 14.5923 15.6436 14.5923C17.1976 14.5923 18.4296 13.5843 18.4296 11.9603C18.4296 11.3023 18.1776 10.7423 17.8136 10.3923H19.3676V9.39828H16.7216C16.4556 9.30028 16.0776 9.21628 15.6436 9.21628C14.1036 9.21628 12.7876 10.2523 12.7876 11.9323C12.7876 12.8423 13.2916 13.5703 13.7956 13.9763V14.0323C13.3896 14.3123 12.9416 14.8023 12.9416 15.4323C12.9416 16.0343 13.2356 16.4403 13.6276 16.6923V16.7483C12.9276 17.1963 12.5076 17.8263 12.5076 18.4703C12.5076 19.7723 13.7956 20.5003 15.6576 20.5003ZM15.6436 13.7383C14.7616 13.7383 14.0196 13.0243 14.0196 11.9323C14.0196 10.7983 14.7476 10.1403 15.6436 10.1403C16.5396 10.1403 17.2676 10.8123 17.2676 11.9323C17.2676 13.0243 16.5256 13.7383 15.6436 13.7383ZM15.8256 19.6323C14.4536 19.6323 13.6276 19.1143 13.6276 18.2883C13.6276 17.8543 13.8516 17.3923 14.3976 17.0003C14.7476 17.0983 15.0976 17.1263 15.3916 17.1263H16.7076C17.7016 17.1263 18.2476 17.3643 18.2476 18.0783C18.2476 18.8623 17.2956 19.6323 15.8256 19.6323Z" fill="white"/>
</svg>
