<svg width="24" height="24" viewBox="0 0 24 24" fill="none" xmlns="http://www.w3.org/2000/svg">
<path d="M4.1517 16.9999V16.4259H4.3617C4.52036 16.4259 4.64636 16.3979 4.7397 16.3419C4.84236 16.2859 4.9357 16.1786 5.0197 16.0199C5.1037 15.8612 5.19236 15.6326 5.2857 15.3339L7.9177 7.00391H8.9677L11.6697 15.7539C11.7257 15.9219 11.7864 16.0572 11.8517 16.1599C11.9264 16.2532 12.0197 16.3232 12.1317 16.3699C12.2437 16.4072 12.379 16.4259 12.5377 16.4259H12.6637V16.9999H9.2617V16.4259H9.5417C9.78436 16.4259 9.9617 16.3746 10.0737 16.2719C10.195 16.1692 10.2557 16.0246 10.2557 15.8379C10.2557 15.7726 10.2464 15.7026 10.2277 15.6279C10.2184 15.5532 10.2044 15.4692 10.1857 15.3759C10.167 15.2826 10.1437 15.1939 10.1157 15.1099L9.6817 13.6399H6.5877L6.1817 15.0119C6.16303 15.0866 6.1397 15.1706 6.1117 15.2639C6.09303 15.3572 6.07436 15.4459 6.0557 15.5299C6.03703 15.6139 6.0277 15.6932 6.0277 15.7679C6.0277 15.9732 6.08836 16.1366 6.2097 16.2579C6.33103 16.3699 6.52703 16.4259 6.7977 16.4259H7.1057V16.9999H4.1517ZM6.8257 12.9539H9.4717L8.7157 10.3499C8.64103 10.0699 8.56636 9.80858 8.4917 9.56591C8.42636 9.31391 8.3657 9.08058 8.3097 8.86591C8.2537 8.65124 8.20236 8.45524 8.1557 8.27791C8.1277 8.41791 8.09503 8.56258 8.0577 8.71191C8.0297 8.86124 7.99236 9.01991 7.9457 9.18791C7.89903 9.34658 7.85236 9.51458 7.8057 9.69191C7.75903 9.85991 7.7077 10.0326 7.6517 10.2099L6.8257 12.9539ZM15.1675 20.3459C14.3182 20.3459 13.6835 20.1639 13.2635 19.7999C12.8435 19.4452 12.6335 18.9459 12.6335 18.3019C12.6335 17.9379 12.7035 17.6252 12.8435 17.3639C12.9835 17.1119 13.1655 16.9112 13.3895 16.7619C13.6228 16.6032 13.8702 16.4959 14.1315 16.4399C13.9635 16.3559 13.8002 16.2299 13.6415 16.0619C13.4922 15.8939 13.4175 15.6606 13.4175 15.3619C13.4175 15.0819 13.4968 14.8392 13.6555 14.6339C13.8142 14.4192 14.0195 14.2279 14.2715 14.0599C13.9168 13.8826 13.6368 13.6026 13.4315 13.2199C13.2355 12.8279 13.1375 12.4032 13.1375 11.9459C13.1375 11.1432 13.3288 10.5132 13.7115 10.0559C14.0942 9.58924 14.6775 9.35591 15.4615 9.35591C15.7602 9.35591 16.0262 9.40258 16.2595 9.49591C16.5022 9.57991 16.6982 9.69191 16.8475 9.83191C16.9315 9.74791 17.0295 9.64524 17.1415 9.52391C17.2535 9.39324 17.3842 9.28124 17.5335 9.18791C17.6828 9.09458 17.8508 9.04791 18.0375 9.04791C18.2708 9.04791 18.4435 9.12258 18.5555 9.27191C18.6768 9.41191 18.7375 9.57991 18.7375 9.77591C18.7375 9.97191 18.6862 10.1446 18.5835 10.2939C18.4902 10.4432 18.3268 10.5179 18.0935 10.5179C18.0935 10.3779 18.0562 10.2519 17.9815 10.1399C17.9068 10.0279 17.8088 9.97191 17.6875 9.97191C17.5848 9.97191 17.4915 9.99058 17.4075 10.0279C17.3328 10.0652 17.2582 10.1166 17.1835 10.1819C17.3235 10.3686 17.4448 10.5972 17.5475 10.8679C17.6502 11.1292 17.7015 11.4699 17.7015 11.8899C17.7015 12.5899 17.5148 13.1686 17.1415 13.6259C16.7775 14.0832 16.2175 14.3119 15.4615 14.3119C15.3588 14.3119 15.2375 14.3072 15.0975 14.2979C14.9575 14.2792 14.8455 14.2559 14.7615 14.2279C14.6495 14.3212 14.5375 14.4426 14.4255 14.5919C14.3228 14.7319 14.2715 14.9092 14.2715 15.1239C14.2715 15.3386 14.3368 15.4926 14.4675 15.5859C14.5982 15.6792 14.7988 15.7259 15.0695 15.7259H16.3575C16.8428 15.7259 17.2348 15.8192 17.5335 16.0059C17.8322 16.1832 18.0468 16.4259 18.1775 16.7339C18.3175 17.0326 18.3875 17.3732 18.3875 17.7559C18.3875 18.5492 18.1262 19.1792 17.6035 19.6459C17.0808 20.1126 16.2688 20.3459 15.1675 20.3459ZM15.1955 19.6739C15.7555 19.6739 16.1895 19.5992 16.4975 19.4499C16.8055 19.3006 17.0202 19.0952 17.1415 18.8339C17.2628 18.5726 17.3235 18.2832 17.3235 17.9659C17.3235 17.5366 17.2255 17.2379 17.0295 17.0699C16.8335 16.9112 16.5442 16.8319 16.1615 16.8319H14.9435C14.7288 16.8319 14.5235 16.8739 14.3275 16.9579C14.1408 17.0326 13.9822 17.1679 13.8515 17.3639C13.7302 17.5599 13.6695 17.8446 13.6695 18.2179C13.6695 18.4886 13.7208 18.7312 13.8235 18.9459C13.9262 19.1699 14.0848 19.3472 14.2995 19.4779C14.5235 19.6086 14.8222 19.6739 15.1955 19.6739ZM15.4335 13.6679C15.6948 13.6679 15.9048 13.6072 16.0635 13.4859C16.2315 13.3552 16.3482 13.1592 16.4135 12.8979C16.4882 12.6366 16.5255 12.3006 16.5255 11.8899C16.5255 11.4606 16.4882 11.1106 16.4135 10.8399C16.3388 10.5599 16.2175 10.3546 16.0495 10.2239C15.8908 10.0839 15.6808 10.0139 15.4195 10.0139C15.1675 10.0139 14.9575 10.0839 14.7895 10.2239C14.6215 10.3639 14.5002 10.5739 14.4255 10.8539C14.3508 11.1246 14.3135 11.4746 14.3135 11.9039C14.3135 12.3052 14.3508 12.6366 14.4255 12.8979C14.5095 13.1499 14.6308 13.3412 14.7895 13.4719C14.9575 13.6026 15.1722 13.6679 15.4335 13.6679Z" fill="white"/>
</svg>
