<svg width="24" height="24" viewBox="0 0 24 24" fill="none" xmlns="http://www.w3.org/2000/svg">
<path d="M5.17839 16.9999V16.4259H5.36039C5.50039 16.4259 5.61706 16.3979 5.71039 16.3419C5.80372 16.2859 5.88772 16.1786 5.96239 16.0199C6.04639 15.8612 6.13039 15.6326 6.21439 15.3339L8.65039 7.00391H9.68639L12.1784 15.7819C12.2251 15.9499 12.2811 16.0806 12.3464 16.1739C12.4117 16.2672 12.4957 16.3326 12.5984 16.3699C12.7104 16.4072 12.8411 16.4259 12.9904 16.4259H13.1024V16.9999H9.89639V16.4259H10.1484C10.3724 16.4259 10.5357 16.3792 10.6384 16.2859C10.7504 16.1832 10.8064 16.0479 10.8064 15.8799C10.8064 15.8146 10.7971 15.7399 10.7784 15.6559C10.7691 15.5626 10.7504 15.4646 10.7224 15.3619C10.7037 15.2592 10.6804 15.1612 10.6524 15.0679L10.2744 13.6399H7.43239L7.08239 14.9699C7.06372 15.0446 7.04039 15.1332 7.01239 15.2359C6.99372 15.3292 6.97506 15.4272 6.95639 15.5299C6.93772 15.6232 6.92839 15.7119 6.92839 15.7959C6.92839 15.9826 6.97972 16.1366 7.08239 16.2579C7.19439 16.3699 7.37639 16.4259 7.62839 16.4259H7.92239V16.9999H5.17839ZM7.65639 12.9539H10.0784L9.37839 10.2799C9.31306 9.99991 9.24772 9.73858 9.18239 9.49591C9.11706 9.25324 9.06106 9.02924 9.01439 8.82391C8.96772 8.61858 8.92572 8.43191 8.88839 8.26391C8.86039 8.39458 8.82772 8.53458 8.79039 8.68391C8.76239 8.82391 8.72506 8.97791 8.67839 9.14591C8.64106 9.30458 8.59906 9.46791 8.55239 9.63591C8.51506 9.80391 8.47306 9.97191 8.42639 10.1399L7.65639 12.9539ZM15.41 20.3319C14.6167 20.3319 14.0193 20.1499 13.618 19.7859C13.226 19.4312 13.03 18.9366 13.03 18.3019C13.03 17.9379 13.0953 17.6252 13.226 17.3639C13.3567 17.1026 13.5293 16.8926 13.744 16.7339C13.9587 16.5752 14.1873 16.4679 14.43 16.4119C14.262 16.3279 14.1033 16.2066 13.954 16.0479C13.814 15.8799 13.744 15.6466 13.744 15.3479C13.744 15.0679 13.8233 14.8252 13.982 14.6199C14.1407 14.4052 14.332 14.2186 14.556 14.0599C14.2293 13.8826 13.968 13.6026 13.772 13.2199C13.576 12.8279 13.478 12.4032 13.478 11.9459C13.478 11.1432 13.66 10.5132 14.024 10.0559C14.388 9.58924 14.9387 9.35591 15.676 9.35591C15.956 9.35591 16.2033 9.40258 16.418 9.49591C16.6327 9.57991 16.8193 9.69191 16.978 9.83191C17.0527 9.75724 17.1413 9.65924 17.244 9.53791C17.3467 9.40724 17.468 9.29524 17.608 9.20191C17.7573 9.09924 17.9207 9.04791 18.098 9.04791C18.3127 9.04791 18.4713 9.12258 18.574 9.27191C18.686 9.41191 18.742 9.57991 18.742 9.77591C18.742 9.97191 18.6953 10.1446 18.602 10.2939C18.5087 10.4432 18.3547 10.5179 18.14 10.5179C18.14 10.3592 18.098 10.2239 18.014 10.1119C17.9393 9.99991 17.8507 9.94391 17.748 9.94391C17.6547 9.94391 17.5707 9.96724 17.496 10.0139C17.4307 10.0512 17.3607 10.1026 17.286 10.1679C17.426 10.3546 17.5427 10.5786 17.636 10.8399C17.7387 11.1012 17.79 11.4466 17.79 11.8759C17.79 12.5852 17.6173 13.1686 17.272 13.6259C16.9267 14.0832 16.3947 14.3119 15.676 14.3119C15.5827 14.3119 15.466 14.3072 15.326 14.2979C15.186 14.2792 15.0787 14.2559 15.004 14.2279C14.9107 14.3212 14.8173 14.4426 14.724 14.5919C14.6307 14.7319 14.584 14.9092 14.584 15.1239C14.584 15.3572 14.6493 15.5206 14.78 15.6139C14.92 15.7072 15.1067 15.7539 15.34 15.7539H16.502C16.9593 15.7539 17.328 15.8472 17.608 16.0339C17.888 16.2112 18.0933 16.4539 18.224 16.7619C18.3547 17.0606 18.42 17.3919 18.42 17.7559C18.42 18.5492 18.1727 19.1746 17.678 19.6319C17.1927 20.0986 16.4367 20.3319 15.41 20.3319ZM15.438 19.6739C15.942 19.6739 16.334 19.5946 16.614 19.4359C16.9033 19.2866 17.104 19.0812 17.216 18.8199C17.3373 18.5586 17.398 18.2692 17.398 17.9519C17.398 17.5226 17.3047 17.2239 17.118 17.0559C16.9407 16.8879 16.6793 16.8039 16.334 16.8039H15.186C14.9993 16.8039 14.8173 16.8459 14.64 16.9299C14.4627 17.0046 14.318 17.1446 14.206 17.3499C14.094 17.5552 14.038 17.8399 14.038 18.2039C14.038 18.4839 14.0847 18.7312 14.178 18.9459C14.2807 19.1699 14.4347 19.3472 14.64 19.4779C14.8453 19.6086 15.1113 19.6739 15.438 19.6739ZM15.648 13.6819C15.9 13.6819 16.1007 13.6212 16.25 13.4999C16.4087 13.3692 16.5207 13.1732 16.586 12.9119C16.6513 12.6412 16.684 12.3006 16.684 11.8899C16.684 11.4606 16.6467 11.1059 16.572 10.8259C16.5067 10.5459 16.3947 10.3406 16.236 10.2099C16.0867 10.0699 15.886 9.99991 15.634 9.99991C15.4007 9.99991 15.2047 10.0699 15.046 10.2099C14.8967 10.3499 14.7847 10.5599 14.71 10.8399C14.6353 11.1199 14.598 11.4746 14.598 11.9039C14.598 12.3052 14.6353 12.6366 14.71 12.8979C14.7847 13.1592 14.8967 13.3552 15.046 13.4859C15.2047 13.6166 15.4053 13.6819 15.648 13.6819Z" fill="white"/>
</svg>
