<svg width="24" height="24" viewBox="0 0 24 24" fill="none" xmlns="http://www.w3.org/2000/svg">
<path d="M10.7683 17.0002L9.76028 13.2622H6.80628L5.79828 17.0002H5.23828L7.96828 6.99023H8.62628L11.3143 17.0002H10.7683ZM8.59828 8.72623C8.56095 8.5769 8.52361 8.4369 8.48628 8.30623C8.45828 8.17556 8.42561 8.0449 8.38828 7.91423C8.36028 7.77423 8.32761 7.63423 8.29028 7.49423C8.26228 7.6249 8.22961 7.76023 8.19228 7.90023C8.16428 8.0309 8.13161 8.16623 8.09428 8.30623C8.06628 8.4369 8.02895 8.5769 7.98228 8.72623L6.93228 12.7582H9.63428L8.59828 8.72623ZM14.3743 9.45424C14.8783 9.45424 15.2749 9.5849 15.5643 9.84623C15.8536 10.0982 16.0683 10.4062 16.2083 10.7702H16.2503L16.3203 9.59423H16.7543V17.3782C16.7543 18.0222 16.6609 18.5635 16.4743 19.0022C16.2876 19.4502 16.0029 19.7909 15.6203 20.0242C15.2376 20.2575 14.7429 20.3742 14.1363 20.3742C13.7629 20.3742 13.4223 20.3322 13.1143 20.2482C12.8156 20.1735 12.5356 20.0662 12.2743 19.9262V19.3802C12.4609 19.4829 12.6476 19.5715 12.8343 19.6462C13.0303 19.7302 13.2356 19.7909 13.4503 19.8282C13.6649 19.8749 13.8889 19.8982 14.1223 19.8982C14.8316 19.8982 15.3589 19.6929 15.7043 19.2822C16.0496 18.8715 16.2223 18.2509 16.2223 17.4202V16.8602C16.2223 16.6455 16.2223 16.4355 16.2223 16.2302C16.2316 16.0249 16.2456 15.7915 16.2643 15.5302H16.2223C16.0823 16.0155 15.8489 16.4075 15.5223 16.7062C15.1956 16.9955 14.7803 17.1402 14.2763 17.1402C13.5389 17.1402 12.9696 16.8275 12.5683 16.2022C12.1763 15.5675 11.9803 14.6155 11.9803 13.3462C11.9803 12.5249 12.0643 11.8249 12.2323 11.2462C12.4096 10.6675 12.6756 10.2242 13.0303 9.91623C13.3849 9.60823 13.8329 9.45424 14.3743 9.45424ZM14.4163 9.93023C13.9683 9.93023 13.6043 10.0702 13.3243 10.3502C13.0536 10.6302 12.8529 11.0269 12.7223 11.5402C12.5916 12.0442 12.5263 12.6462 12.5263 13.3462C12.5263 14.4662 12.6803 15.3015 12.9883 15.8522C13.2963 16.3935 13.7443 16.6642 14.3323 16.6642C14.6869 16.6642 14.9856 16.5849 15.2283 16.4262C15.4709 16.2582 15.6623 16.0342 15.8023 15.7542C15.9516 15.4742 16.0589 15.1615 16.1243 14.8162C16.1896 14.4709 16.2223 14.1162 16.2223 13.7522V12.6882C16.2223 12.1562 16.1616 11.6849 16.0403 11.2742C15.9189 10.8542 15.7276 10.5275 15.4663 10.2942C15.2049 10.0515 14.8549 9.93023 14.4163 9.93023Z" fill="white"/>
</svg>
