<svg width="24" height="24" viewBox="0 0 24 24" fill="none" xmlns="http://www.w3.org/2000/svg">
<path d="M3.59901 16.9999L7.95301 7.12988H8.93301L13.287 16.9999H12.097L11.005 14.4799H5.86701L4.78901 16.9999H3.59901ZM8.42901 8.47388L6.28701 13.5139H10.599L8.45701 8.47388H8.42901ZM17.5379 19.6459C16.9499 19.6459 16.3945 19.5666 15.8719 19.4079C15.3585 19.2586 14.9012 19.0299 14.4999 18.7219L14.8779 17.8959C15.2979 18.1946 15.7132 18.4092 16.1239 18.5399C16.5439 18.6706 16.9965 18.7359 17.4819 18.7359C18.8259 18.7359 19.4979 18.0452 19.4979 16.6639V15.4599C19.3019 15.8892 18.9939 16.2299 18.5739 16.4819C18.1632 16.7246 17.6919 16.8459 17.1599 16.8459C16.5345 16.8459 15.9932 16.7012 15.5359 16.4119C15.0785 16.1226 14.7239 15.7259 14.4719 15.2219C14.2292 14.7086 14.1079 14.1159 14.1079 13.4439C14.1079 12.7719 14.2292 12.1839 14.4719 11.6799C14.7239 11.1666 15.0785 10.7699 15.5359 10.4899C15.9932 10.2099 16.5345 10.0699 17.1599 10.0699C17.6919 10.0699 18.1632 10.1912 18.5739 10.4339C18.9939 10.6766 19.3019 11.0079 19.4979 11.4279V10.1959H20.6039V16.5099C20.6039 17.5552 20.3425 18.3392 19.8199 18.8619C19.3065 19.3846 18.5459 19.6459 17.5379 19.6459ZM17.3699 15.9219C18.0232 15.9219 18.5412 15.6979 18.9239 15.2499C19.3065 14.8019 19.4979 14.1999 19.4979 13.4439C19.4979 12.6879 19.3065 12.0906 18.9239 11.6519C18.5412 11.2039 18.0232 10.9799 17.3699 10.9799C16.7259 10.9799 16.2125 11.2039 15.8299 11.6519C15.4472 12.0906 15.2559 12.6879 15.2559 13.4439C15.2559 14.1999 15.4472 14.8019 15.8299 15.2499C16.2125 15.6979 16.7259 15.9219 17.3699 15.9219Z" fill="white"/>
</svg>
