<svg width="24" height="24" viewBox="0 0 24 24" fill="none" xmlns="http://www.w3.org/2000/svg">
<path d="M2.56859 16.9999L8.61659 7.12988H10.0866L12.9706 16.9999H11.2486L10.6466 14.7179H5.81659L4.47259 16.9999H2.56859ZM9.12059 9.07588L6.64259 13.2899H10.2546L9.14859 9.07588H9.12059ZM17.0342 19.6599C16.3622 19.6599 15.7509 19.5759 15.2002 19.4079C14.6495 19.2399 14.1549 19.0066 13.7162 18.7079L14.2482 17.4899C14.6589 17.7512 15.0649 17.9566 15.4662 18.1059C15.8675 18.2552 16.3062 18.3299 16.7822 18.3299C17.3422 18.3299 17.7949 18.2039 18.1402 17.9519C18.4855 17.6999 18.7049 17.2939 18.7982 16.7339L18.9522 15.7259C18.7095 16.0806 18.3922 16.3559 18.0002 16.5519C17.6082 16.7386 17.1789 16.8319 16.7122 16.8319C15.8909 16.8319 15.2282 16.5846 14.7242 16.0899C14.2202 15.5859 13.9682 14.8952 13.9682 14.0179C13.9682 13.2992 14.1082 12.6366 14.3882 12.0299C14.6775 11.4232 15.0835 10.9379 15.6062 10.5739C16.1289 10.2006 16.7449 10.0139 17.4542 10.0139C17.9489 10.0139 18.3875 10.1212 18.7702 10.3359C19.1622 10.5506 19.4515 10.8726 19.6382 11.3019L19.8202 10.1539H21.5282L20.5062 16.6359C20.3569 17.6159 19.9929 18.3626 19.4142 18.8759C18.8355 19.3986 18.0422 19.6599 17.0342 19.6599ZM17.2442 15.5019C17.6829 15.5019 18.0515 15.3852 18.3502 15.1519C18.6582 14.9092 18.8915 14.5919 19.0502 14.1999C19.2182 13.7986 19.3022 13.3692 19.3022 12.9119C19.3115 12.4266 19.1809 12.0439 18.9102 11.7639C18.6395 11.4839 18.2569 11.3439 17.7622 11.3439C17.3329 11.3439 16.9642 11.4652 16.6562 11.7079C16.3575 11.9412 16.1289 12.2539 15.9702 12.6459C15.8209 13.0379 15.7415 13.4626 15.7322 13.9199C15.7229 14.4146 15.8489 14.8019 16.1102 15.0819C16.3809 15.3619 16.7589 15.5019 17.2442 15.5019Z" fill="white"/>
</svg>
