<svg width="24" height="24" viewBox="0 0 24 24" fill="none" xmlns="http://www.w3.org/2000/svg">
<path d="M3.11459 16.9999L7.58059 7.12988H9.05059L13.5166 16.9999H11.6966L10.7166 14.7179H5.90059L4.93459 16.9999H3.11459ZM8.29459 9.07588L6.51659 13.2899H10.1006L8.32259 9.07588H8.29459ZM17.5522 19.6599C16.9175 19.6599 16.3202 19.5852 15.7602 19.4359C15.2095 19.2959 14.7242 19.0766 14.3042 18.7779L14.8082 17.5599C15.2002 17.8212 15.6202 18.0126 16.0682 18.1339C16.5162 18.2646 16.9642 18.3299 17.4122 18.3299C18.6629 18.3299 19.2882 17.7279 19.2882 16.5239V15.5859C19.0922 15.9686 18.7889 16.2719 18.3782 16.4959C17.9769 16.7199 17.5289 16.8319 17.0342 16.8319C16.4182 16.8319 15.8815 16.6919 15.4242 16.4119C14.9669 16.1226 14.6122 15.7212 14.3602 15.2079C14.1082 14.6946 13.9822 14.0972 13.9822 13.4159C13.9822 12.7346 14.1082 12.1419 14.3602 11.6379C14.6122 11.1246 14.9669 10.7279 15.4242 10.4479C15.8815 10.1586 16.4182 10.0139 17.0342 10.0139C17.5475 10.0139 18.0049 10.1306 18.4062 10.3639C18.8075 10.5879 19.1015 10.8912 19.2882 11.2739V10.1539H20.9962V16.3139C20.9962 17.4246 20.7022 18.2599 20.1142 18.8199C19.5262 19.3799 18.6722 19.6599 17.5522 19.6599ZM17.5102 15.5019C18.0515 15.5019 18.4809 15.3152 18.7982 14.9419C19.1155 14.5686 19.2742 14.0599 19.2742 13.4159C19.2742 12.7719 19.1155 12.2679 18.7982 11.9039C18.4809 11.5306 18.0515 11.3439 17.5102 11.3439C16.9689 11.3439 16.5395 11.5306 16.2222 11.9039C15.9049 12.2679 15.7462 12.7719 15.7462 13.4159C15.7462 14.0599 15.9049 14.5686 16.2222 14.9419C16.5395 15.3152 16.9689 15.5019 17.5102 15.5019Z" fill="white"/>
</svg>
