<svg width="24" height="24" viewBox="0 0 24 24" fill="none" xmlns="http://www.w3.org/2000/svg">
<path d="M3.37355 17.0839C3.25221 17.0839 3.15421 17.0559 3.07955 16.9999C3.01421 16.9532 2.97688 16.8832 2.96755 16.7899C2.96755 16.6966 2.99088 16.5939 3.03755 16.4819L6.97155 7.4379C7.03688 7.2979 7.11621 7.1999 7.20955 7.1439C7.30288 7.07857 7.39621 7.0459 7.48955 7.0459C7.60155 7.0459 7.69955 7.07857 7.78355 7.1439C7.87688 7.1999 7.95155 7.2979 8.00755 7.4379L11.9415 16.4819C11.9975 16.5939 12.0209 16.6966 12.0115 16.7899C12.0115 16.8832 11.9789 16.9532 11.9135 16.9999C11.8575 17.0559 11.7689 17.0839 11.6475 17.0839C11.5169 17.0839 11.4095 17.0512 11.3255 16.9859C11.2509 16.9112 11.1855 16.8132 11.1295 16.6919L10.0515 14.1579L10.5135 14.3679H4.45155L4.92755 14.1579L3.84955 16.6919C3.79355 16.8319 3.72355 16.9346 3.63955 16.9999C3.56488 17.0559 3.47621 17.0839 3.37355 17.0839ZM7.47555 8.1939L5.09555 13.7939L4.77355 13.6259H10.1915L9.89755 13.7939L7.50355 8.1939H7.47555ZM16.5447 19.6319C16.0407 19.6319 15.5507 19.5666 15.0747 19.4359C14.608 19.3146 14.1834 19.1139 13.8007 18.8339C13.726 18.7872 13.6747 18.7266 13.6467 18.6519C13.628 18.5772 13.628 18.5026 13.6467 18.4279C13.6654 18.3626 13.698 18.3019 13.7447 18.2459C13.8007 18.1899 13.8614 18.1572 13.9267 18.1479C14.0014 18.1386 14.076 18.1526 14.1507 18.1899C14.5614 18.4606 14.9534 18.6472 15.3267 18.7499C15.7094 18.8619 16.106 18.9179 16.5167 18.9179C17.198 18.9179 17.716 18.7266 18.0707 18.3439C18.4254 17.9706 18.6027 17.4339 18.6027 16.7339V14.9979H18.7427C18.6027 15.5766 18.304 16.0292 17.8467 16.3559C17.3894 16.6826 16.848 16.8459 16.2227 16.8459C15.5974 16.8459 15.056 16.7059 14.5987 16.4259C14.1414 16.1366 13.7867 15.7399 13.5347 15.2359C13.292 14.7226 13.1707 14.1299 13.1707 13.4579C13.1707 12.9539 13.2407 12.4966 13.3807 12.0859C13.5207 11.6752 13.7214 11.3206 13.9827 11.0219C14.2534 10.7232 14.5754 10.4946 14.9487 10.3359C15.322 10.1679 15.7467 10.0839 16.2227 10.0839C16.848 10.0839 17.3894 10.2519 17.8467 10.5879C18.304 10.9146 18.598 11.3579 18.7287 11.9179L18.5887 12.0019V10.5599C18.5887 10.4106 18.626 10.2986 18.7007 10.2239C18.7754 10.1492 18.878 10.1119 19.0087 10.1119C19.1487 10.1119 19.2514 10.1492 19.3167 10.2239C19.3914 10.2986 19.4287 10.4106 19.4287 10.5599V16.6079C19.4287 17.6066 19.186 18.3579 18.7007 18.8619C18.2154 19.3752 17.4967 19.6319 16.5447 19.6319ZM16.3207 16.1179C16.7874 16.1179 17.1887 16.0106 17.5247 15.7959C17.87 15.5719 18.136 15.2639 18.3227 14.8719C18.5094 14.4706 18.6027 13.9992 18.6027 13.4579C18.6027 12.6459 18.3974 12.0019 17.9867 11.5259C17.576 11.0499 17.0207 10.8119 16.3207 10.8119C15.854 10.8119 15.448 10.9192 15.1027 11.1339C14.7574 11.3486 14.4914 11.6566 14.3047 12.0579C14.1274 12.4499 14.0387 12.9166 14.0387 13.4579C14.0387 14.2699 14.244 14.9186 14.6547 15.4039C15.0654 15.8799 15.6207 16.1179 16.3207 16.1179Z" fill="white"/>
</svg>
