<svg width="24" height="24" viewBox="0 0 24 24" fill="none" xmlns="http://www.w3.org/2000/svg">
<path d="M11.2456 8.64169V16.7477C11.2456 16.9624 11.059 17.0697 10.6856 17.0697C10.3123 17.0697 10.1256 16.9624 10.1256 16.7477V12.9537H5.88363V16.7477C5.88363 16.9624 5.69697 17.0697 5.32363 17.0697C4.9503 17.0697 4.76363 16.9624 4.76363 16.7477V8.64169C4.76363 8.11902 4.91763 7.68969 5.22563 7.35369C5.53363 7.00836 5.92563 6.77036 6.40163 6.63969C6.87763 6.49969 7.43763 6.42969 8.08163 6.42969C10.191 6.42969 11.2456 7.16702 11.2456 8.64169ZM5.88363 8.50169V11.9737H10.1256V8.50169C10.1256 7.77369 9.4163 7.40969 7.99763 7.40969C6.5883 7.40969 5.88363 7.77369 5.88363 8.50169ZM20.2423 10.8117V15.3197C20.2423 15.5344 20.0556 15.6417 19.6823 15.6417C19.3089 15.6417 19.1223 15.5344 19.1223 15.3197V10.6717C19.1223 9.98102 18.5389 9.61702 17.3723 9.57969H17.2183C15.9396 9.57969 15.3003 9.94369 15.3003 10.6717V14.5357C15.3003 15.077 15.3796 15.4597 15.5383 15.6837C15.7063 15.9077 15.9909 16.0197 16.3923 16.0197H17.4983C18.3849 16.0197 19.0616 16.1924 19.5283 16.5377C20.0043 16.883 20.2423 17.4477 20.2423 18.2317V18.2877C20.2423 19.0717 20.0043 19.6364 19.5283 19.9817C19.0616 20.327 18.3849 20.4997 17.4983 20.4997H14.3203C14.1336 20.4997 14.0403 20.3364 14.0403 20.0097C14.0403 19.683 14.1336 19.5197 14.3203 19.5197H17.4983C18.0489 19.5197 18.4549 19.4357 18.7163 19.2677C18.9869 19.0997 19.1223 18.8197 19.1223 18.4277V18.0917C19.1223 17.6997 18.9869 17.4197 18.7163 17.2517C18.4549 17.0837 18.0489 16.9997 17.4983 16.9997H16.3923C15.5896 16.9997 15.0203 16.8084 14.6843 16.4257C14.3483 16.0337 14.1803 15.4037 14.1803 14.5357V10.8117C14.1803 10.037 14.4556 9.47702 15.0063 9.13169C15.5663 8.77702 16.3036 8.59969 17.2183 8.59969H19.1783C19.7849 8.59969 20.2656 8.49702 20.6203 8.29169C20.7323 8.21702 20.8023 8.17969 20.8303 8.17969C20.9423 8.17969 21.0589 8.26836 21.1803 8.44569C21.3109 8.62302 21.3763 8.77236 21.3763 8.89369C21.3763 9.06169 21.2363 9.20636 20.9563 9.32769C20.6856 9.44902 20.3216 9.52836 19.8643 9.56569C20.1163 9.91102 20.2423 10.3264 20.2423 10.8117Z" fill="white"/>
</svg>
