<svg width="24" height="24" viewBox="0 0 24 24" fill="none" xmlns="http://www.w3.org/2000/svg">
<path d="M5.65625 12.8232C6.66341 13.598 7.22624 14.0446 7.34473 14.1631L7.59082 14.416C7.7321 14.5482 7.85059 14.6143 7.94629 14.6143C8.04199 14.6143 8.1263 14.5915 8.19922 14.5459C8.27214 14.4958 8.35872 14.4183 8.45898 14.3135C8.5638 14.2041 8.68001 14.097 8.80762 13.9922L10.332 12.8164L8.46582 8.79004C8.34277 8.52116 8.24479 8.31836 8.17188 8.18164C8.10352 8.04492 8.03971 7.97656 7.98047 7.97656C7.92578 7.97656 7.86882 8.02669 7.80957 8.12695C7.75488 8.22266 7.68197 8.37305 7.59082 8.57812L5.65625 12.8232ZM3.30469 16.9453L2.29297 17C1.9375 17 1.75977 16.8564 1.75977 16.5693C1.75977 16.3825 1.90788 16.1751 2.2041 15.9473C2.73275 15.528 3.22493 14.8763 3.68066 13.9922L6.05957 9.20703L6.90723 7.40918C7.10775 6.96712 7.27865 6.66178 7.41992 6.49316C7.56576 6.31999 7.75033 6.2334 7.97363 6.2334C8.19694 6.2334 8.38379 6.30859 8.53418 6.45898C8.68913 6.60938 8.8737 6.91471 9.08789 7.375L10.585 10.5742C11.8656 13.1172 12.5469 14.4639 12.6289 14.6143L12.8818 15.0723C13.0824 15.4232 13.2214 15.6351 13.2988 15.708C13.3763 15.7809 13.4561 15.8424 13.5381 15.8926C13.8981 16.1068 14.0781 16.2982 14.0781 16.4668C14.0781 16.8223 13.9004 17 13.5449 17L12.5127 16.9521L11.125 17C10.8926 17 10.7103 16.9544 10.5781 16.8633C10.446 16.7721 10.3799 16.6354 10.3799 16.4531C10.3799 16.0794 10.7946 15.8926 11.624 15.8926C11.6742 15.8926 11.7243 15.8926 11.7744 15.8926C11.8245 15.8926 11.8747 15.8903 11.9248 15.8857C11.8018 15.708 11.6742 15.4824 11.542 15.209L10.8447 13.7871L9.55957 14.7852C9.1403 15.1087 8.82812 15.3958 8.62305 15.6465C8.41797 15.8926 8.23112 16.0156 8.0625 16.0156C7.89388 16.0156 7.75944 15.9746 7.65918 15.8926C7.56348 15.8105 7.47689 15.724 7.39941 15.6328L7.1123 15.3047C7.03027 15.209 6.9209 15.1064 6.78418 14.9971L5.73145 14.2109C5.51725 14.056 5.2985 13.8896 5.0752 13.7119L4.07031 15.9268H4.27539C4.72201 15.9268 5.04557 15.9678 5.24609 16.0498C5.44661 16.1273 5.54688 16.2777 5.54688 16.501C5.54688 16.8382 5.31445 17.0068 4.84961 17.0068L3.30469 16.9453ZM19.6084 15.2295V11.7363C19.6084 11.668 19.613 11.6019 19.6221 11.5381C19.1527 11.1644 18.6012 10.9775 17.9678 10.9775C17.3343 10.9775 16.7897 11.2259 16.334 11.7227C15.8783 12.2194 15.6504 12.7913 15.6504 13.4385C15.6504 14.277 15.8577 14.9173 16.2725 15.3594C16.6872 15.8014 17.2318 16.0225 17.9062 16.0225C18.5807 16.0225 19.1481 15.7581 19.6084 15.2295ZM19.916 10.4922C20.1302 10.1139 20.4469 9.9248 20.8662 9.9248C21.2855 9.9248 21.4951 10.123 21.4951 10.5195C21.4951 10.7109 21.4017 10.8682 21.2148 10.9912C21.0326 11.1097 20.9163 11.2783 20.8662 11.4971C20.8206 11.7113 20.7979 12.1237 20.7979 12.7344V16.9385C20.7979 18.0641 20.5176 18.9551 19.957 19.6113C19.3965 20.2721 18.6491 20.6025 17.7148 20.6025C16.9492 20.6025 16.3431 20.4339 15.8965 20.0967C15.4499 19.7594 15.2266 19.3424 15.2266 18.8457C15.2266 18.4902 15.3223 18.1895 15.5137 17.9434C15.7051 17.7018 15.9512 17.5811 16.252 17.5811C16.4297 17.5811 16.5915 17.6403 16.7373 17.7588C16.8877 17.8773 16.9629 18.0049 16.9629 18.1416C16.9629 18.2783 16.9401 18.3763 16.8945 18.4355C16.849 18.4948 16.7988 18.5495 16.7441 18.5996C16.694 18.6497 16.637 18.6953 16.5732 18.7363C16.5094 18.7819 16.4775 18.8411 16.4775 18.9141C16.4775 19.0827 16.5755 19.2217 16.7715 19.3311C16.972 19.4404 17.2523 19.4951 17.6123 19.4951C18.264 19.4951 18.7585 19.2786 19.0957 18.8457C19.4375 18.4173 19.6084 17.8112 19.6084 17.0273V16.4189C19.1025 16.8747 18.4964 17.1025 17.79 17.1025C16.8512 17.1025 16.0605 16.7858 15.418 16.1523C14.7754 15.5189 14.4541 14.6621 14.4541 13.582C14.4541 12.4974 14.7959 11.6178 15.4795 10.9434C16.1631 10.2643 17.0312 9.9248 18.084 9.9248C18.6217 9.9248 19.1071 10.0319 19.54 10.2461C19.6813 10.3145 19.8066 10.3965 19.916 10.4922Z" fill="white"/>
</svg>
