<svg width="24" height="24" viewBox="0 0 24 24" fill="none" xmlns="http://www.w3.org/2000/svg">
<path d="M5.49602 15.8176C5.43068 16.0229 5.21135 16.1256 4.83802 16.1256C4.47402 16.1256 4.11002 15.9996 3.74602 15.7476C4.03535 14.9636 4.60935 13.6616 5.46802 11.8416C6.33602 10.0123 6.91468 8.64957 7.20402 7.75357C7.23202 7.64157 7.24602 7.54824 7.24602 7.47357C7.24602 7.38957 7.21335 7.27757 7.14802 7.13757C7.08268 6.99757 7.01268 6.88557 6.93802 6.80157L6.84002 6.67557L6.89602 6.39557C7.72668 6.17157 8.71135 6.05957 9.85002 6.05957L10.928 6.11557C11.0213 6.19957 11.1147 6.4189 11.208 6.77357C11.3013 7.12824 11.362 7.66024 11.39 8.36957C11.418 9.0789 11.4367 10.4089 11.446 12.3596C11.4553 13.8623 11.642 14.6136 12.006 14.6136C12.0993 14.6136 12.3 14.5669 12.608 14.4736L12.748 14.4316L13.042 15.2296C12.6593 15.5189 12.2113 15.7476 11.698 15.9156C11.1847 16.0836 10.7227 16.1676 10.312 16.1676C9.71468 16.1676 9.30402 15.9856 9.08002 15.6216C8.86535 15.2483 8.75802 14.7723 8.75802 14.1936C8.75802 13.6056 8.76268 13.1996 8.77202 12.9756C8.59468 12.9383 8.24935 12.9196 7.73602 12.9196C7.22268 12.9196 6.77935 12.9709 6.40602 13.0736C6.06068 13.9976 5.75735 14.9123 5.49602 15.8176ZM8.82802 11.7996C8.87468 10.9876 8.89802 10.1709 8.89802 9.34957C8.89802 8.52824 8.85135 7.9309 8.75802 7.55757C8.66468 7.55757 8.59935 7.5669 8.56202 7.58557C8.35668 8.2109 7.80602 9.61557 6.91002 11.7996H8.82802ZM16.6586 15.3976C16.0053 15.7523 15.4219 15.9296 14.9086 15.9296C14.4046 15.9296 13.9799 15.7289 13.6346 15.3276C13.2986 14.9169 13.1306 14.3103 13.1306 13.5076C13.1306 12.4343 13.4199 11.5476 13.9986 10.8476C14.5866 10.1476 15.2866 9.79757 16.0986 9.79757C16.4906 9.79757 16.9339 9.9049 17.4286 10.1196C18.0073 9.94224 18.6653 9.85357 19.4026 9.85357H19.6406C19.6873 9.9469 19.7106 10.1569 19.7106 10.4836C19.7106 10.8009 19.6499 11.4309 19.5286 12.3736C19.4166 13.3163 19.2906 14.1049 19.1506 14.7396C18.8519 16.0929 18.3853 17.1616 17.7506 17.9456C17.1253 18.7389 16.3366 19.1356 15.3846 19.1356C14.9179 19.1356 14.5353 19.0329 14.2366 18.8276C13.9473 18.6223 13.8026 18.3609 13.8026 18.0436C13.8026 17.7263 13.8773 17.4603 14.0266 17.2456C14.1853 17.0403 14.4093 16.8676 14.6986 16.7276C15.1933 16.4849 15.7999 16.2843 16.5186 16.1256L16.6586 15.3976ZM16.7426 10.9316C16.4159 10.9316 16.1639 11.2116 15.9866 11.7716C15.8186 12.3316 15.7346 12.9383 15.7346 13.5916C15.7346 14.2449 15.8886 14.5716 16.1966 14.5716C16.3273 14.5716 16.5186 14.5063 16.7706 14.3756C16.8453 13.6196 16.9666 12.4996 17.1346 11.0156C16.9946 10.9596 16.8639 10.9316 16.7426 10.9316ZM15.1466 18.0996C15.3239 18.0996 15.5246 18.0109 15.7486 17.8336C15.9819 17.6563 16.1733 17.3669 16.3226 16.9656C15.3053 17.1429 14.7966 17.4136 14.7966 17.7776C14.8153 17.9923 14.9319 18.0996 15.1466 18.0996Z" fill="white"/>
</svg>
