<svg width="24" height="24" viewBox="0 0 24 24" fill="none" xmlns="http://www.w3.org/2000/svg">
<path d="M9.38086 17L8.88867 15.127H5.6416L5.13574 17H2.16895L5.42969 6.96484H9.03223L12.334 17H9.38086ZM8.32812 12.9121L7.89746 11.2715C7.7972 10.9069 7.67415 10.4352 7.52832 9.85645C7.38704 9.27767 7.29362 8.86296 7.24805 8.6123C7.20703 8.84473 7.125 9.22754 7.00195 9.76074C6.88346 10.2939 6.61686 11.3444 6.20215 12.9121H8.32812ZM20.5713 9.25488V10.5469L19.5117 10.9365C19.6576 11.2008 19.7305 11.5085 19.7305 11.8594C19.7305 12.6934 19.4365 13.3405 18.8486 13.8008C18.2653 14.2611 17.3926 14.4912 16.2305 14.4912C15.9434 14.4912 15.7155 14.473 15.5469 14.4365C15.4831 14.555 15.4512 14.6667 15.4512 14.7715C15.4512 14.9036 15.5583 15.0062 15.7725 15.0791C15.9867 15.1475 16.2669 15.1816 16.6133 15.1816H17.8984C19.6348 15.1816 20.5029 15.9131 20.5029 17.376C20.5029 18.3193 20.0996 19.0531 19.293 19.5771C18.4909 20.1012 17.363 20.3633 15.9092 20.3633C14.8109 20.3633 13.9632 20.1787 13.3662 19.8096C12.7738 19.445 12.4775 18.9186 12.4775 18.2305C12.4775 17.3053 13.0518 16.7083 14.2002 16.4395C13.9632 16.3392 13.7559 16.1774 13.5781 15.9541C13.4049 15.7308 13.3184 15.5098 13.3184 15.291C13.3184 15.0495 13.3844 14.8376 13.5166 14.6553C13.6488 14.4684 13.9245 14.2474 14.3438 13.9922C13.9427 13.8145 13.626 13.5365 13.3936 13.1582C13.1657 12.7799 13.0518 12.3197 13.0518 11.7773C13.0518 10.9342 13.3389 10.2803 13.9131 9.81543C14.4873 9.35059 15.3076 9.11816 16.374 9.11816C16.5153 9.11816 16.7591 9.13411 17.1055 9.16602C17.4518 9.19792 17.707 9.22754 17.8711 9.25488H20.5713ZM14.7334 17.9639C14.7334 18.1826 14.8519 18.3581 15.0889 18.4902C15.3258 18.627 15.6426 18.6953 16.0391 18.6953C16.6862 18.6953 17.2035 18.6133 17.5908 18.4492C17.9827 18.2897 18.1787 18.0824 18.1787 17.8271C18.1787 17.6221 18.0602 17.4762 17.8232 17.3896C17.5863 17.3076 17.2467 17.2666 16.8047 17.2666H15.7588C15.4717 17.2666 15.2279 17.3327 15.0273 17.4648C14.8314 17.6016 14.7334 17.7679 14.7334 17.9639ZM15.5742 11.791C15.5742 12.584 15.8499 12.9805 16.4014 12.9805C16.6566 12.9805 16.8525 12.8825 16.9893 12.6865C17.1305 12.4906 17.2012 12.1966 17.2012 11.8047C17.2012 11.0026 16.9346 10.6016 16.4014 10.6016C15.8499 10.6016 15.5742 10.998 15.5742 11.791Z" fill="white"/>
</svg>
