<svg width="24" height="24" viewBox="0 0 24 24" fill="none" xmlns="http://www.w3.org/2000/svg">
<path d="M3.47461 17L7.78809 6.96484H10.7686L10.9258 17H8.43066L8.48535 15.0518H6.7832L6.03809 17H3.47461ZM7.54883 13.0215H8.61523L8.72461 10.4307C8.73372 10.2074 8.74284 9.98633 8.75195 9.76758C8.76107 9.54883 8.78158 9.30957 8.81348 9.0498H8.76562C8.72461 9.29134 8.67448 9.51921 8.61523 9.7334C8.56055 9.94303 8.49447 10.1618 8.41699 10.3896L7.54883 13.0215ZM13.4756 20.3633C12.5413 20.3633 11.8532 20.2015 11.4111 19.8779C10.9691 19.5544 10.748 19.1032 10.748 18.5244C10.748 17.9958 10.9167 17.5446 11.2539 17.1709C11.5911 16.8018 12.0469 16.5352 12.6211 16.3711C12.4753 16.3073 12.3431 16.1888 12.2246 16.0156C12.1061 15.8379 12.0469 15.626 12.0469 15.3799C12.0469 15.0654 12.1471 14.792 12.3477 14.5596C12.5482 14.3271 12.7988 14.0993 13.0996 13.876C12.931 13.7529 12.7943 13.5456 12.6895 13.2539C12.5846 12.9622 12.5322 12.6478 12.5322 12.3105C12.5322 11.7454 12.6644 11.21 12.9287 10.7041C13.1976 10.1982 13.5895 9.80632 14.1045 9.52832C14.3187 9.40983 14.5625 9.31868 14.8359 9.25488C15.1139 9.18652 15.3919 9.15234 15.6699 9.15234C15.9661 9.15234 16.2168 9.17741 16.4219 9.22754C16.627 9.27311 16.791 9.31413 16.9141 9.35059H19.4229L19.1494 10.6494L18.1855 10.9844C18.2038 11.0573 18.2174 11.1325 18.2266 11.21C18.2357 11.2829 18.2402 11.3604 18.2402 11.4424C18.2402 11.8161 18.1559 12.2148 17.9873 12.6387C17.8187 13.0579 17.5999 13.402 17.3311 13.6709C17.0531 13.9443 16.7204 14.1494 16.333 14.2861C15.9456 14.4183 15.5081 14.4867 15.0205 14.4912C14.8018 14.4912 14.6514 14.4958 14.5693 14.5049C14.4873 14.5094 14.4326 14.5163 14.4053 14.5254C14.2594 14.5755 14.141 14.6576 14.0498 14.7715C13.9632 14.8854 13.9199 14.9993 13.9199 15.1133C13.9199 15.1816 13.9678 15.2249 14.0635 15.2432C14.1136 15.2523 14.182 15.2591 14.2686 15.2637C14.3551 15.2637 14.46 15.2637 14.583 15.2637H15.9639C16.3148 15.2637 16.6133 15.3252 16.8594 15.4482C17.11 15.5667 17.3014 15.7445 17.4336 15.9814C17.5658 16.2184 17.6318 16.5124 17.6318 16.8633C17.6318 17.5788 17.4678 18.1872 17.1396 18.6885C16.8115 19.1943 16.3695 19.5885 15.8135 19.8711C15.4854 20.0306 15.123 20.1514 14.7266 20.2334C14.3346 20.32 13.9176 20.3633 13.4756 20.3633ZM13.5645 18.709C13.7923 18.709 14.0088 18.6885 14.2139 18.6475C14.4235 18.6064 14.6126 18.5426 14.7812 18.4561C14.9818 18.3558 15.1413 18.2259 15.2598 18.0664C15.3828 17.9069 15.4443 17.7178 15.4443 17.499C15.4443 17.4626 15.4352 17.4307 15.417 17.4033C15.3988 17.376 15.3669 17.3532 15.3213 17.335C15.2666 17.3122 15.1891 17.2962 15.0889 17.2871C14.9886 17.278 14.8564 17.2734 14.6924 17.2734H13.6396C13.4938 17.2734 13.3617 17.3395 13.2432 17.4717C13.1247 17.6038 13.029 17.752 12.9561 17.916C12.8877 18.0846 12.8535 18.2259 12.8535 18.3398C12.8535 18.4811 12.9128 18.5768 13.0312 18.627C13.1497 18.6816 13.3275 18.709 13.5645 18.709ZM15 12.9531C15.1504 12.9531 15.2871 12.9053 15.4102 12.8096C15.5332 12.7093 15.6403 12.5612 15.7314 12.3652C15.8271 12.1647 15.9092 11.9186 15.9775 11.627C16.0094 11.4902 16.0322 11.3695 16.0459 11.2646C16.0641 11.1598 16.0732 11.071 16.0732 10.998C16.0732 10.8704 16.0505 10.7839 16.0049 10.7383C15.9593 10.6927 15.8887 10.6699 15.793 10.6699C15.6471 10.6699 15.5195 10.7109 15.4102 10.793C15.3008 10.875 15.2074 10.9821 15.1299 11.1143C15.057 11.2464 14.9932 11.3923 14.9385 11.5518C14.8883 11.7067 14.8451 11.8594 14.8086 12.0098C14.7767 12.1419 14.7516 12.2581 14.7334 12.3584C14.7197 12.4587 14.7129 12.5475 14.7129 12.625C14.7129 12.8438 14.8086 12.9531 15 12.9531Z" fill="white"/>
</svg>
