<svg width="24" height="24" viewBox="0 0 24 24" fill="none" xmlns="http://www.w3.org/2000/svg">
<path d="M2.18212 16.9999V8.59992C2.18212 8.29192 2.25678 8.01192 2.40612 7.75992C2.55545 7.49859 2.75612 7.29325 3.00812 7.14392C3.26945 6.99459 3.55412 6.91992 3.86212 6.91992H10.5821C10.8901 6.91992 11.1701 6.99459 11.4221 7.14392C11.6835 7.29325 11.8888 7.49859 12.0381 7.75992C12.1875 8.01192 12.2621 8.29192 12.2621 8.59992V16.9999H11.1281V13.3179H3.31612V16.9999H2.18212ZM3.31612 12.1839H11.1281V8.59992C11.1281 8.45059 11.0721 8.32459 10.9601 8.22192C10.8575 8.10992 10.7315 8.05392 10.5821 8.05392H3.86212C3.71278 8.05392 3.58212 8.10992 3.47012 8.22192C3.36745 8.32459 3.31612 8.45059 3.31612 8.59992V12.1839ZM15.1452 20.2059V19.0439H20.2132C20.3626 19.0439 20.4886 18.9879 20.5912 18.8759C20.7032 18.7732 20.7592 18.6472 20.7592 18.4979V16.9999H15.3412C15.0332 16.9999 14.7486 16.9252 14.4872 16.7759C14.2352 16.6172 14.0299 16.4119 13.8712 16.1599C13.7219 15.8986 13.6472 15.6139 13.6472 15.3059V10.5739C13.6472 10.2659 13.7219 9.98592 13.8712 9.73392C14.0299 9.47259 14.2352 9.26725 14.4872 9.11792C14.7486 8.95925 15.0332 8.87992 15.3412 8.87992H20.2132C20.5306 8.87992 20.8152 8.95925 21.0672 9.11792C21.3286 9.26725 21.5339 9.47259 21.6832 9.73392C21.8326 9.98592 21.9072 10.2659 21.9072 10.5739V18.4979C21.9072 18.8152 21.8326 19.0999 21.6832 19.3519C21.5339 19.6132 21.3286 19.8186 21.0672 19.9679C20.8152 20.1266 20.5306 20.2059 20.2132 20.2059H15.1452ZM15.3412 15.8519H20.2132C20.3626 15.8519 20.4886 15.8006 20.5912 15.6979C20.7032 15.5859 20.7592 15.4552 20.7592 15.3059V10.5739C20.7592 10.4246 20.7032 10.2986 20.5912 10.1959C20.4886 10.0839 20.3626 10.0279 20.2132 10.0279H15.3412C15.1919 10.0279 15.0612 10.0839 14.9492 10.1959C14.8466 10.2986 14.7952 10.4246 14.7952 10.5739V15.3059C14.7952 15.4552 14.8466 15.5859 14.9492 15.6979C15.0612 15.8006 15.1919 15.8519 15.3412 15.8519Z" fill="white"/>
</svg>
