<svg width="24" height="24" viewBox="0 0 24 24" fill="none" xmlns="http://www.w3.org/2000/svg">
<path d="M3.71818 17.0002L7.69418 7.28418H8.64618L12.6082 17.0002H11.1802L7.91818 8.78218H8.40818L5.11818 17.0002H3.71818ZM5.60818 14.8022V13.6542H10.7182V14.8022H5.60818ZM16.2904 19.9262C15.6091 19.9262 15.0024 19.8002 14.4704 19.5482C13.9477 19.2962 13.5277 18.9415 13.2104 18.4842L14.0224 17.6582C14.2931 18.0035 14.6151 18.2649 14.9884 18.4422C15.3617 18.6289 15.8051 18.7222 16.3184 18.7222C16.9997 18.7222 17.5364 18.5402 17.9284 18.1762C18.3297 17.8215 18.5304 17.3409 18.5304 16.7342V15.0822L18.7544 13.5842L18.5304 12.1002V10.3502H19.7904V16.7342C19.7904 17.3689 19.6411 17.9242 19.3424 18.4002C19.0531 18.8762 18.6424 19.2495 18.1104 19.5202C17.5877 19.7909 16.9811 19.9262 16.2904 19.9262ZM16.2904 16.8882C15.6837 16.8882 15.1377 16.7435 14.6524 16.4542C14.1764 16.1649 13.7984 15.7682 13.5184 15.2642C13.2384 14.7509 13.0984 14.1769 13.0984 13.5422C13.0984 12.9075 13.2384 12.3429 13.5184 11.8482C13.7984 11.3442 14.1764 10.9475 14.6524 10.6582C15.1377 10.3595 15.6837 10.2102 16.2904 10.2102C16.8131 10.2102 17.2751 10.3129 17.6764 10.5182C18.0777 10.7235 18.3951 11.0129 18.6284 11.3862C18.8711 11.7502 19.0017 12.1795 19.0204 12.6742V14.4382C18.9924 14.9235 18.8571 15.3529 18.6144 15.7262C18.3811 16.0902 18.0637 16.3749 17.6624 16.5802C17.2611 16.7855 16.8037 16.8882 16.2904 16.8882ZM16.5424 15.6982C16.9531 15.6982 17.3124 15.6095 17.6204 15.4322C17.9377 15.2549 18.1804 15.0075 18.3484 14.6902C18.5164 14.3635 18.6004 13.9855 18.6004 13.5562C18.6004 13.1269 18.5117 12.7535 18.3344 12.4362C18.1664 12.1095 17.9284 11.8575 17.6204 11.6802C17.3124 11.4935 16.9484 11.4002 16.5284 11.4002C16.1084 11.4002 15.7397 11.4935 15.4224 11.6802C15.1051 11.8575 14.8531 12.1095 14.6664 12.4362C14.4891 12.7535 14.4004 13.1222 14.4004 13.5422C14.4004 13.9622 14.4891 14.3355 14.6664 14.6622C14.8531 14.9889 15.1051 15.2455 15.4224 15.4322C15.7491 15.6095 16.1224 15.6982 16.5424 15.6982Z" fill="white"/>
</svg>
