<svg width="24" height="24" viewBox="0 0 24 24" fill="none" xmlns="http://www.w3.org/2000/svg">
<path d="M9.87829 13.2478C9.56096 12.4171 9.08029 11.0125 8.43629 9.03377C8.35229 9.24844 8.13762 9.84577 7.79229 10.8258C7.44696 11.8058 7.14362 12.6131 6.88229 13.2478C7.61029 13.2665 8.17962 13.2758 8.59029 13.2758C9.16896 13.2758 9.59829 13.2665 9.87829 13.2478ZM8.29629 14.1018C8.05362 14.1018 7.46562 14.0925 6.53229 14.0738C5.90696 15.6511 5.51496 16.7245 5.35629 17.2938C5.04829 17.2285 4.82896 17.1538 4.69829 17.0698C4.57696 16.9858 4.51629 16.8738 4.51629 16.7338C4.51629 16.6218 4.71229 16.0991 5.10429 15.1658C5.50562 14.2325 5.99096 13.0471 6.56029 11.6098C7.12962 10.1631 7.57762 8.87977 7.90429 7.75977C8.08162 7.73177 8.27762 7.71777 8.49229 7.71777C8.72562 7.71777 8.88896 7.75977 8.98229 7.84377C9.07562 7.91844 9.17362 8.12377 9.27629 8.45977C9.86429 10.3545 10.387 11.8945 10.8443 13.0798C11.5723 14.9838 12.095 16.2438 12.4123 16.8598C12.151 17.0465 11.927 17.1398 11.7403 17.1398C11.4416 17.1398 11.241 17.0138 11.1383 16.7618C10.961 16.3045 10.639 15.4085 10.1723 14.0738C9.12696 14.0925 8.50162 14.1018 8.29629 14.1018ZM18.7652 16.0758C18.7652 16.3371 18.5412 16.5751 18.0932 16.7898C17.6546 16.9951 17.1086 17.0978 16.4552 17.0978C15.3632 17.0978 14.4859 16.7571 13.8232 16.0758C13.1606 15.3945 12.8292 14.4985 12.8292 13.3878C12.8292 12.2211 13.1559 11.3111 13.8092 10.6578C14.4719 9.9951 15.3726 9.66377 16.5112 9.66377C17.1179 9.66377 17.6266 9.78044 18.0372 10.0138C18.4479 10.2378 18.6532 10.5178 18.6532 10.8538C18.6532 11.1991 18.3966 11.4138 17.8832 11.4978C17.7432 11.1431 17.5239 10.8771 17.2252 10.6998C16.9266 10.5225 16.6092 10.4338 16.2732 10.4338C15.5919 10.4338 15.0319 10.6951 14.5932 11.2178C14.1546 11.7405 13.9352 12.3891 13.9352 13.1638C13.9352 14.0691 14.1499 14.8251 14.5792 15.4318C15.0179 16.0385 15.6246 16.3418 16.3992 16.3418C16.9592 16.3418 17.4259 16.1971 17.7992 15.9078C17.7806 15.0585 17.7526 14.3071 17.7152 13.6538C17.8646 13.6351 18.0232 13.6258 18.1912 13.6258C18.6299 13.6258 18.8492 13.7611 18.8492 14.0318C18.8492 14.0411 18.8352 14.2885 18.8072 14.7738C18.7792 15.2498 18.7652 15.6838 18.7652 16.0758Z" fill="white"/>
</svg>
