<svg width="24" height="24" viewBox="0 0 24 24" fill="none" xmlns="http://www.w3.org/2000/svg">
<path d="M9.45348 13.2478C9.13615 12.4171 8.65548 11.0125 8.01148 9.03377C7.92748 9.24844 7.71282 9.84577 7.36748 10.8258C7.02215 11.8058 6.71882 12.6131 6.45748 13.2478C7.18548 13.2665 7.79682 13.2758 8.29148 13.2758C8.78615 13.2758 9.17348 13.2665 9.45348 13.2478ZM9.74748 14.0738C8.70215 14.0925 8.06748 14.1018 7.84348 14.1018C7.61948 14.1018 7.04082 14.0925 6.10748 14.0738C5.48215 15.6511 5.09015 16.7245 4.93148 17.2938C4.62348 17.2285 4.40415 17.1538 4.27348 17.0698C4.15215 16.9858 4.09148 16.8831 4.09148 16.7618C4.09148 16.6311 4.29215 16.0991 4.69348 15.1658C6.03748 12.0018 6.96615 9.5331 7.47948 7.75977C7.65682 7.73177 7.85748 7.71777 8.08148 7.71777C8.30548 7.71777 8.46415 7.75977 8.55748 7.84377C8.65082 7.91844 8.74882 8.12377 8.85148 8.45977C9.43948 10.3545 10.0275 12.0765 10.6155 13.6258C11.2128 15.1658 11.6702 16.2438 11.9875 16.8598C11.7262 17.0465 11.5022 17.1398 11.3155 17.1398C11.0168 17.1398 10.8162 17.0138 10.7135 16.7618C10.5362 16.3045 10.2142 15.4085 9.74748 14.0738ZM13.7204 17.5178C13.3751 18.0311 13.2024 18.4698 13.2024 18.8338C13.2024 19.4405 13.7671 19.7438 14.8964 19.7438C15.7178 19.7438 16.3431 19.6131 16.7724 19.3518C17.2018 19.0905 17.4164 18.7871 17.4164 18.4418C17.4164 18.0965 17.3278 17.8678 17.1504 17.7558C16.9731 17.6438 16.6978 17.5878 16.3244 17.5878H14.8824C14.3504 17.5878 13.9631 17.5645 13.7204 17.5178ZM15.0504 14.5638C15.6198 14.5638 16.0351 14.4331 16.2964 14.1718C16.5578 13.9105 16.6884 13.5185 16.6884 12.9958C16.6884 12.4638 16.5344 12.0205 16.2264 11.6658C15.9278 11.3111 15.5171 11.1338 14.9944 11.1338C13.8838 11.1338 13.3284 11.6658 13.3284 12.7298C13.3284 13.2618 13.4731 13.7005 13.7624 14.0458C14.0611 14.3911 14.4904 14.5638 15.0504 14.5638ZM15.0084 15.3478C14.7284 15.3478 14.4718 15.3198 14.2384 15.2638C14.0984 15.4318 13.9724 15.6231 13.8604 15.8378C13.7578 16.0525 13.7064 16.2158 13.7064 16.3278C13.7064 16.5611 14.0144 16.6778 14.6304 16.6778H16.2404C17.6218 16.6778 18.3124 17.1771 18.3124 18.1758C18.3124 18.8758 17.9718 19.4405 17.2904 19.8698C16.6184 20.3085 15.8251 20.5278 14.9104 20.5278C14.0051 20.5278 13.3284 20.3691 12.8804 20.0518C12.4418 19.7345 12.2224 19.3238 12.2224 18.8198C12.2224 18.3158 12.5304 17.8211 13.1464 17.3358C12.8664 17.1305 12.7264 16.9158 12.7264 16.6918C12.7264 16.3371 13.0484 15.8005 13.6924 15.0818C12.7964 14.6805 12.3484 13.9385 12.3484 12.8558C12.3484 12.1465 12.6004 11.5538 13.1044 11.0778C13.6084 10.5925 14.2244 10.3498 14.9524 10.3498C15.6898 10.3498 16.2918 10.5318 16.7584 10.8958C17.1504 10.3731 17.5704 10.1118 18.0184 10.1118C18.2051 10.1118 18.3638 10.1538 18.4944 10.2378C18.6344 10.3218 18.7044 10.4385 18.7044 10.5878C18.7044 10.7278 18.6671 10.8958 18.5924 11.0918C18.5178 11.0731 18.3544 11.0638 18.1024 11.0638C17.8504 11.0638 17.5518 11.1571 17.2064 11.3438C17.5144 11.7731 17.6684 12.2771 17.6684 12.8558C17.6684 13.6211 17.4071 14.2278 16.8844 14.6758C16.3618 15.1238 15.7364 15.3478 15.0084 15.3478Z" fill="white"/>
</svg>
