<svg width="24" height="24" viewBox="0 0 24 24" fill="none" xmlns="http://www.w3.org/2000/svg">
<path d="M5.13852 17.0002L8.49852 7.2002H8.86252L12.2225 17.0002H11.6765L10.7245 14.2422H6.63652L5.68452 17.0002H5.13852ZM6.76252 13.8222H10.5985L9.17052 9.6362C9.14718 9.57087 9.10285 9.4402 9.03752 9.2442C8.97218 9.04353 8.90452 8.83353 8.83452 8.6142C8.76452 8.39487 8.71318 8.21753 8.68052 8.0822C8.64785 8.21753 8.59418 8.39487 8.51952 8.6142C8.44952 8.83353 8.37952 9.04353 8.30952 9.2442C8.24418 9.4402 8.19985 9.57087 8.17652 9.6362L6.76252 13.8222ZM16.1982 19.9822L15.9322 19.5342C16.6042 19.4969 17.1525 19.3942 17.5772 19.2262C18.0065 19.0582 18.3215 18.8132 18.5222 18.4912C18.7275 18.1692 18.8302 17.7609 18.8302 17.2662V15.8242C18.3962 16.7202 17.6822 17.1682 16.6882 17.1682C16.1375 17.1682 15.6569 17.0119 15.2462 16.6992C14.8355 16.3865 14.5159 15.9502 14.2872 15.3902C14.0585 14.8255 13.9442 14.1675 13.9442 13.4162C13.9442 12.6555 14.0585 11.9952 14.2872 11.4352C14.5159 10.8752 14.8402 10.4435 15.2602 10.1402C15.6802 9.8322 16.1749 9.6782 16.7442 9.6782C17.1875 9.6782 17.6005 9.78787 17.9832 10.0072C18.3659 10.2265 18.6482 10.5182 18.8302 10.8822V9.8462H19.3342V17.3362C19.3342 17.7469 19.2689 18.1085 19.1382 18.4212C19.0075 18.7339 18.8115 18.9999 18.5502 19.2192C18.2935 19.4385 17.9692 19.6112 17.5772 19.7372C17.1852 19.8632 16.7255 19.9449 16.1982 19.9822ZM16.7022 16.6642C17.1315 16.6642 17.5375 16.5242 17.9202 16.2442C18.3029 15.9642 18.6062 15.5909 18.8302 15.1242V11.5542C18.6015 11.1249 18.3029 10.7889 17.9342 10.5462C17.5702 10.3035 17.1735 10.1822 16.7442 10.1822C16.0162 10.1822 15.4585 10.4599 15.0712 11.0152C14.6839 11.5705 14.4902 12.3709 14.4902 13.4162C14.4902 14.0555 14.5835 14.6202 14.7702 15.1102C14.9615 15.5955 15.2229 15.9759 15.5542 16.2512C15.8855 16.5265 16.2682 16.6642 16.7022 16.6642Z" fill="white"/>
</svg>
