<svg width="24" height="24" viewBox="0 0 24 24" fill="none" xmlns="http://www.w3.org/2000/svg">
<path d="M8.29962 17.0656C7.6914 17.0656 7.14047 16.9158 6.64684 16.6161C6.16203 16.3165 5.77858 15.8844 5.49651 15.3203C5.21444 14.7473 5.0734 14.073 5.0734 13.2973C5.0734 11.9574 5.35988 10.7189 5.93284 9.58188C6.50581 8.43596 7.35203 7.51922 8.47151 6.83166C9.59099 6.13529 10.9353 5.78711 12.5043 5.78711C12.9098 5.78711 13.3417 5.81796 13.8001 5.87966C14.2673 5.94136 14.6904 6.03392 15.0694 6.15733C15.3162 6.22785 15.4396 6.40414 15.4396 6.68622C15.4396 6.9154 15.3515 7.13137 15.1752 7.33411C15.0077 7.53685 14.8094 7.63822 14.5802 7.63822C14.5097 7.63822 14.4568 7.63381 14.4215 7.62499C13.9631 7.51922 13.5709 7.44429 13.2447 7.40022C12.9186 7.34733 12.5748 7.32088 12.2134 7.32088C11.0939 7.32088 10.1419 7.59414 9.3574 8.14066C8.57288 8.67837 7.9867 9.39236 7.59884 10.2826C7.21099 11.1729 7.01707 12.1337 7.01707 13.1651C7.01707 13.9143 7.16251 14.4962 7.4534 14.9104C7.7531 15.316 8.14095 15.5187 8.61695 15.5187C9.15466 15.5187 9.62625 15.2982 10.0317 14.8575C10.4372 14.4169 10.8074 13.7028 11.1424 12.7155C11.4774 11.7282 11.8079 10.3884 12.1341 8.69599C12.187 8.44918 12.2927 8.2817 12.4514 8.19355C12.6101 8.1054 12.8216 8.06133 13.0861 8.06133C13.7119 8.06133 14.0248 8.26407 14.0248 8.66955C14.0248 8.74007 14.0116 8.82822 13.9852 8.93399C13.756 9.78903 13.5444 10.7366 13.3505 11.7767C13.1654 12.8081 13.0728 13.5926 13.0728 14.1304C13.0728 14.6063 13.1434 14.9545 13.2844 15.1748C13.4254 15.3864 13.6414 15.4922 13.9323 15.4922C14.2144 15.4922 14.4832 15.3996 14.7388 15.2146C14.9945 15.0206 15.3162 14.6944 15.7041 14.2361C15.8098 14.1126 15.9288 14.0509 16.0611 14.0509C16.1757 14.0509 16.2638 14.1039 16.3255 14.2097C16.396 14.3154 16.4313 14.4609 16.4313 14.646C16.4313 14.9897 16.3475 15.2631 16.1801 15.4657C15.7481 15.9858 15.325 16.3826 14.9107 16.6558C14.4964 16.9291 13.9896 17.0656 13.3902 17.0656C12.7731 17.0656 12.2751 16.8894 11.8961 16.5368C11.517 16.1754 11.279 15.6685 11.1821 15.0162C10.5298 16.3825 9.56895 17.0656 8.29962 17.0656ZM19.8444 11.2743C20.0647 11.2743 20.219 11.3095 20.3072 11.3801C20.4041 11.4418 20.4526 11.5696 20.4526 11.7635C20.4526 11.8693 20.4482 11.953 20.4394 12.0147C20.4041 12.288 20.2939 12.9932 20.1088 14.1304C19.9766 14.8973 19.8929 15.404 19.8576 15.6509C19.5226 17.9251 19.0687 19.719 18.4957 21.0324C17.9316 22.3546 17.1735 23.0156 16.2215 23.0156C15.7719 23.0156 15.4061 22.8747 15.124 22.5926C14.842 22.3193 14.7009 21.9578 14.7009 21.5084C14.7009 20.8825 14.9477 20.2081 15.4414 19.4853C15.935 18.7713 16.8606 17.8898 18.218 16.8408L18.2974 16.3253C18.1475 16.5633 17.9492 16.7484 17.7024 16.8806C17.4644 17.004 17.2264 17.0656 16.9884 17.0656C16.4419 17.0656 16.0055 16.8673 15.6794 16.4706C15.3532 16.0739 15.1902 15.554 15.1902 14.9104C15.1902 14.2052 15.3532 13.5397 15.6794 12.9138C16.0055 12.2792 16.4375 11.7723 16.9752 11.3933C17.5217 11.0054 18.099 10.8115 18.7073 10.8115C18.9012 10.8115 19.029 10.8512 19.0907 10.9305C19.1612 11.001 19.2185 11.1332 19.2626 11.3272C19.4301 11.2919 19.624 11.2743 19.8444 11.2743ZM17.4644 15.7302C17.6671 15.7302 17.861 15.6068 18.0462 15.3599C18.2313 15.1131 18.3635 14.7605 18.4428 14.3022L18.8659 12.0412C18.5045 12.05 18.1696 12.191 17.861 12.4643C17.5525 12.7287 17.3057 13.0813 17.1206 13.5221C16.9355 13.9628 16.8429 14.43 16.8429 14.9236C16.8429 15.1969 16.8958 15.3996 17.0016 15.5318C17.1162 15.6641 17.2705 15.7302 17.4644 15.7302ZM16.3669 21.7332C16.5873 21.7332 16.8341 21.4687 17.1074 20.9398C17.3895 20.4109 17.6583 19.5691 17.9139 18.4144C17.2352 18.9962 16.746 19.5205 16.4463 19.9877C16.1466 20.4549 15.9967 20.8648 15.9967 21.2174C15.9967 21.3672 16.0232 21.4907 16.076 21.5877C16.1377 21.6847 16.2347 21.7332 16.3669 21.7332Z" fill="white"/>
</svg>
