<svg width="24" height="24" viewBox="0 0 24 24" fill="none" xmlns="http://www.w3.org/2000/svg">
<path d="M8.12216 8.60047L6.31616 13.4445H9.98416L8.12216 8.60047ZM8.57016 7.48047L12.2102 16.8605L11.3562 17.0005L10.2362 14.1445H6.07816L5.02816 17.0005H4.20216L7.66016 7.48047H8.57016ZM17.8239 11.5965C17.5346 11.3258 17.2313 11.1205 16.9139 10.9805C16.5966 10.8405 16.2979 10.7705 16.0179 10.7705C15.2526 10.7705 14.7066 11.0412 14.3799 11.5825C14.0626 12.1145 13.9039 12.7912 13.9039 13.6125C13.9039 14.4338 14.0626 15.1105 14.3799 15.6425C14.7066 16.1745 15.2526 16.4405 16.0179 16.4405C16.2979 16.4405 16.5966 16.3752 16.9139 16.2445C17.2313 16.1045 17.5346 15.8992 17.8239 15.6285V11.5965ZM18.7059 17.7425C18.7059 18.4145 18.4679 18.9745 17.9919 19.4225C17.5253 19.8705 16.8486 20.0945 15.9619 20.0945C15.6913 20.0945 15.3273 20.0432 14.8699 19.9405C14.4126 19.8378 14.0533 19.6978 13.7919 19.5205L14.0579 18.8765C14.2913 18.9885 14.5433 19.0958 14.8139 19.1985C15.0846 19.3012 15.4579 19.3572 15.9339 19.3665C16.5033 19.3665 16.9606 19.2312 17.3059 18.9605C17.6513 18.6992 17.8239 18.2885 17.8239 17.7285V16.4405C17.5533 16.6645 17.2453 16.8465 16.8999 16.9865C16.5639 17.1172 16.2419 17.1825 15.9339 17.1825C14.9446 17.1825 14.2119 16.8512 13.7359 16.1885C13.2599 15.5165 13.0219 14.6625 13.0219 13.6265C13.0219 12.5812 13.2599 11.7225 13.7359 11.0505C14.2119 10.3692 14.9446 10.0285 15.9339 10.0285C16.2606 10.0285 16.5966 10.1078 16.9419 10.2665C17.2966 10.4158 17.6139 10.6072 17.8939 10.8405L18.1319 10.2105H18.7059V17.7425Z" fill="white"/>
</svg>
