<svg width="24" height="24" viewBox="0 0 24 24" fill="none" xmlns="http://www.w3.org/2000/svg">
<path d="M12.7168 16.9727L12.6553 17.041C11.6436 17.0137 11.0329 17 10.8232 17C9.9847 17 9.2054 17.0137 8.48535 17.041L8.42383 16.9727V16.542L8.49219 16.4668L9.08691 16.4326C9.33757 16.4189 9.46289 16.3301 9.46289 16.166C9.46289 16.0703 9.39909 15.8561 9.27148 15.5234L8.71777 14.0811C8.08887 14.0719 7.44629 14.0674 6.79004 14.0674C6.43457 14.0674 5.90592 14.0719 5.2041 14.0811L4.90332 14.915C4.67546 15.5485 4.56152 15.945 4.56152 16.1045C4.56152 16.2777 4.66862 16.3802 4.88281 16.4121C5.0013 16.4303 5.23372 16.4486 5.58008 16.4668L5.64844 16.5352V16.9727L5.58008 17.041C4.73698 17.0137 4.19466 17 3.95312 17C3.76628 17 3.30371 17.0137 2.56543 17.041L2.49707 16.9795V16.5352L2.57227 16.4668C3.04167 16.4395 3.32878 16.346 3.43359 16.1865C3.54297 16.027 3.94629 15.0768 4.64355 13.3359L6.42773 8.87207C6.5599 8.52572 6.76042 8.00391 7.0293 7.30664H8L11.623 15.8311C11.7643 16.1546 11.8919 16.3369 12.0059 16.3779C12.1562 16.4326 12.3727 16.46 12.6553 16.46L12.7168 16.5352V16.9727ZM8.38281 13.2949L6.91992 9.71289L5.51855 13.2949C5.89225 13.3086 6.3776 13.3154 6.97461 13.3154C7.55339 13.3154 8.02279 13.3086 8.38281 13.2949ZM20.6943 17.4717C20.6943 18.4697 20.3206 19.265 19.5732 19.8574C18.8304 20.4499 17.8574 20.7461 16.6543 20.7461C15.7109 20.7461 14.9635 20.5684 14.4121 20.2129C13.8652 19.862 13.5918 19.388 13.5918 18.791C13.5918 18.39 13.6807 18.0869 13.8584 17.8818C13.8766 17.859 14.1182 17.7087 14.583 17.4307C14.8063 17.2985 14.9704 17.2051 15.0752 17.1504C14.4463 17.041 14.1318 16.738 14.1318 16.2412C14.1318 15.9769 14.223 15.708 14.4053 15.4346C14.4189 15.4163 14.542 15.3252 14.7744 15.1611C14.8838 15.0837 15.0775 14.9447 15.3555 14.7441C14.3711 14.3887 13.8789 13.7301 13.8789 12.7686C13.8789 12.0257 14.1569 11.4287 14.7129 10.9775C15.2689 10.5218 16.0094 10.2939 16.9346 10.2939C17.8278 10.2939 18.5273 10.4922 19.0332 10.8887C19.3203 10.9023 19.5049 10.9069 19.5869 10.9023C19.8102 10.8932 20.1475 10.8818 20.5986 10.8682L20.6807 10.9434L20.6055 11.6475L20.5303 11.7158H19.5186C19.5778 11.9346 19.6074 12.1579 19.6074 12.3857C19.6074 13.4704 19.0811 14.2109 18.0283 14.6074C17.5544 14.7852 17.0872 14.874 16.627 14.874C16.472 14.874 16.2715 14.8626 16.0254 14.8398C15.7383 14.9948 15.5947 15.1976 15.5947 15.4482C15.5947 15.6807 15.7611 15.8128 16.0938 15.8447C16.2852 15.863 16.6042 15.8721 17.0508 15.8721C17.1921 15.8721 17.4382 15.8652 17.7891 15.8516C18.14 15.8379 18.3997 15.8311 18.5684 15.8311C19.5983 15.8311 20.2386 16.0589 20.4893 16.5146C20.626 16.7607 20.6943 17.0798 20.6943 17.4717ZM17.8848 12.6934C17.8848 11.5449 17.4997 10.9707 16.7295 10.9707C15.973 10.9707 15.5947 11.4674 15.5947 12.4609C15.5947 13.6367 15.9889 14.2246 16.7773 14.2246C17.5156 14.2246 17.8848 13.7142 17.8848 12.6934ZM19.1289 18.251C19.1289 17.7542 18.9557 17.4421 18.6094 17.3145C18.4635 17.2598 18.1719 17.2301 17.7344 17.2256L16.4355 17.2119C16.2897 17.2119 16.0892 17.2165 15.834 17.2256C15.2096 17.613 14.8975 18.0573 14.8975 18.5586C14.8975 19.0189 15.082 19.3789 15.4512 19.6387C15.8203 19.903 16.3148 20.0352 16.9346 20.0352C17.5999 20.0352 18.1309 19.8734 18.5273 19.5498C18.9284 19.2308 19.1289 18.7979 19.1289 18.251Z" fill="white"/>
</svg>
