<svg width="24" height="24" viewBox="0 0 24 24" fill="none" xmlns="http://www.w3.org/2000/svg">
<path d="M12.8908 15.9997H8.83075L8.60675 14.6697H7.51475L7.27675 15.9997H3.35675L5.05075 7.30566H11.1968L12.8908 15.9997ZM8.29875 12.8077V11.0717H7.85075V12.8077H8.29875ZM16.0693 9.12566H20.5353V10.8757H19.8213V10.9457C20.0546 11.1977 20.1713 11.543 20.1713 11.9817C20.1713 12.6817 19.9613 13.1997 19.5413 13.5357C19.1306 13.8624 18.4633 14.0257 17.5393 14.0257H15.7193V14.2777H18.5053C19.1773 14.2777 19.6673 14.399 19.9753 14.6417C20.2833 14.8844 20.4373 15.2577 20.4373 15.7617C20.4373 16.5084 20.0826 17.0777 19.3733 17.4697C18.6733 17.8617 17.656 18.0577 16.3213 18.0577C14.576 18.0577 13.5213 17.843 13.1573 17.4137C12.9986 17.227 12.9193 16.9657 12.9193 16.6297C12.9193 16.2937 13.106 16.0417 13.4793 15.8737V15.8177C13.0313 15.631 12.8073 15.281 12.8073 14.7677C12.8073 14.1424 13.1573 13.7177 13.8573 13.4937V13.4237C13.1946 13.0037 12.8633 12.3737 12.8633 11.5337C12.8633 10.6844 13.1293 10.073 13.6613 9.69966C14.2026 9.31699 15.0053 9.12566 16.0693 9.12566ZM15.7193 16.0977V16.3497H17.7213V16.0977H15.7193ZM16.5033 11.2397V12.5697H16.7833V11.2397H16.5033Z" fill="white"/>
</svg>
