<svg width="24" height="24" viewBox="0 0 24 24" fill="none" xmlns="http://www.w3.org/2000/svg">
<path d="M3.75156 16.0001C3.77022 15.9161 3.79822 15.8508 3.83556 15.8041C3.87289 15.7574 3.92889 15.7294 4.00356 15.7201L4.61956 15.5801L4.40956 15.7761L8.80556 6.97008C8.82422 6.93275 8.83822 6.90475 8.84756 6.88608C8.86622 6.86741 8.88489 6.85341 8.90356 6.84408C8.92222 6.83475 8.94556 6.83008 8.97356 6.83008C8.99222 6.83008 9.00622 6.83475 9.01556 6.84408C9.03422 6.84408 9.04356 6.84875 9.04356 6.85808L10.8915 15.7481L10.6255 15.5241L11.6475 15.7481C11.6382 15.8414 11.6149 15.9068 11.5775 15.9441C11.5495 15.9814 11.4889 16.0001 11.3955 16.0001H9.46356C9.48222 15.9161 9.51022 15.8508 9.54756 15.8041C9.58489 15.7574 9.64089 15.7294 9.71556 15.7201L10.5835 15.5241L10.4435 15.6781L8.76356 7.57208L8.80556 7.54408L4.68956 15.7901L4.71756 15.5521L5.61356 15.7481C5.59489 15.8414 5.56689 15.9068 5.52956 15.9441C5.50156 15.9814 5.44089 16.0001 5.34756 16.0001H3.75156ZM6.08956 12.7801L6.24356 12.5001H9.85556L9.93956 12.7801H6.08956ZM14.1863 19.6121C13.8596 19.6121 13.5703 19.5374 13.3183 19.3881C13.0756 19.2481 12.8843 19.0521 12.7443 18.8001C12.6043 18.5481 12.5343 18.2541 12.5343 17.9181C12.5343 17.8154 12.5436 17.7221 12.5623 17.6381C12.5903 17.5541 12.6323 17.4888 12.6883 17.4421C12.7443 17.3954 12.8189 17.3721 12.9123 17.3721C12.9309 17.3721 12.9543 17.3721 12.9823 17.3721C13.0196 17.3814 13.0569 17.3954 13.0943 17.4141C13.0756 17.5168 13.0616 17.6194 13.0523 17.7221C13.0429 17.8248 13.0383 17.9228 13.0383 18.0161C13.0383 18.4268 13.1456 18.7628 13.3603 19.0241C13.5843 19.2854 13.9203 19.4161 14.3683 19.4161C14.9003 19.4161 15.3436 19.2574 15.6983 18.9401C16.0529 18.6228 16.3236 18.0908 16.5103 17.3441C16.6969 16.5974 16.7949 15.5754 16.8043 14.2781H16.7343C16.5289 14.8848 16.2489 15.3514 15.8943 15.6781C15.5396 16.0048 15.1289 16.1681 14.6623 16.1681C14.1023 16.1681 13.6729 15.9674 13.3743 15.5661C13.0756 15.1554 12.9263 14.5674 12.9263 13.8021C12.9263 13.1954 13.0149 12.6354 13.1923 12.1221C13.3696 11.5994 13.6169 11.1468 13.9343 10.7641C14.2609 10.3721 14.6389 10.0688 15.0683 9.85408C15.5069 9.63941 15.9783 9.53208 16.4823 9.53208C16.7529 9.53208 17.0003 9.56475 17.2243 9.63008C17.4576 9.68608 17.6723 9.77941 17.8683 9.91008L17.8403 10.0781C17.7096 10.0034 17.5323 9.93808 17.3083 9.88208C17.0843 9.81675 16.8276 9.78408 16.5383 9.78408C16.0996 9.78408 15.6889 9.88208 15.3063 10.0781C14.9236 10.2648 14.5876 10.5308 14.2983 10.8761C14.0089 11.2214 13.7803 11.6368 13.6123 12.1221C13.4536 12.5981 13.3743 13.1301 13.3743 13.7181C13.3743 14.0074 13.4163 14.3201 13.5003 14.6561C13.5843 14.9921 13.7289 15.2768 13.9343 15.5101C14.1396 15.7434 14.4243 15.8601 14.7883 15.8601C15.1429 15.8601 15.4509 15.7574 15.7123 15.5521C15.9736 15.3468 16.2069 15.0154 16.4123 14.5581C16.6269 14.0914 16.8323 13.4754 17.0283 12.7101C17.2243 11.9448 17.4296 11.0021 17.6443 9.88208L17.8543 9.53208C17.9289 9.53208 17.9849 9.54141 18.0223 9.56008C18.0689 9.56941 18.0923 9.59741 18.0923 9.64408C18.0923 9.76541 18.0596 9.97075 17.9943 10.2601C17.9383 10.5494 17.8636 10.8854 17.7703 11.2681C17.6769 11.6414 17.5836 12.0381 17.4903 12.4581C17.3969 12.8781 17.3176 13.2841 17.2523 13.6761C17.1963 14.0681 17.1683 14.4134 17.1683 14.7121C17.1683 16.2988 16.9396 17.5121 16.4823 18.3521C16.0343 19.1921 15.2689 19.6121 14.1863 19.6121Z" fill="white"/>
</svg>
