<svg width="24" height="24" viewBox="0 0 24 24" fill="none" xmlns="http://www.w3.org/2000/svg">
<path d="M3.39356 16.0001C3.39356 15.8134 3.41223 15.6688 3.44956 15.5661C3.49623 15.4541 3.55223 15.3888 3.61756 15.3701L4.54156 15.0481L4.09356 15.5101L7.14556 7.16608C7.17356 7.07275 7.2389 7.00275 7.34156 6.95608C7.44423 6.90941 7.55156 6.87675 7.66356 6.85808C7.7849 6.83941 7.88756 6.83008 7.97156 6.83008C8.05556 6.83008 8.13956 6.83475 8.22356 6.84408C8.3169 6.85341 8.40556 6.86741 8.48956 6.88608L11.8216 15.4681L11.3176 15.0481L12.6056 15.3281C12.6056 15.4681 12.5869 15.5894 12.5496 15.6921C12.5122 15.7854 12.4376 15.8881 12.3256 16.0001H9.09156C9.09156 15.8134 9.11023 15.6688 9.14756 15.5661C9.19423 15.4541 9.25023 15.3888 9.31556 15.3701L10.2956 15.0761L10.1836 15.4401L7.29956 8.03408L7.73356 8.00608L5.00356 15.4961L4.93356 15.0201L6.31956 15.3281C6.31956 15.4681 6.3009 15.5894 6.26356 15.6921C6.22623 15.7854 6.1469 15.8881 6.02556 16.0001H3.39356ZM5.60556 13.1021L5.78756 12.3181H9.34356L9.53956 13.1021H5.60556ZM16.0224 19.7801C15.1451 19.7801 14.4451 19.6028 13.9224 19.2481C13.3998 18.8934 13.1384 18.4268 13.1384 17.8481C13.1384 17.3628 13.3858 17.1201 13.8804 17.1201C14.0111 17.1201 14.1371 17.1341 14.2584 17.1621C14.3891 17.1901 14.5104 17.2368 14.6224 17.3021C14.6224 17.9274 14.7624 18.3988 15.0424 18.7161C15.3224 19.0428 15.7424 19.2061 16.3024 19.2061C16.8344 19.2061 17.2591 19.0801 17.5764 18.8281C17.8938 18.5761 18.0524 18.2401 18.0524 17.8201C18.0524 17.5401 17.9918 17.3161 17.8704 17.1481C17.7584 16.9801 17.5484 16.8541 17.2404 16.7701C16.9418 16.6861 16.5264 16.6208 15.9944 16.5741C15.2478 16.4994 14.7298 16.3874 14.4404 16.2381C14.1604 16.0888 14.0204 15.8461 14.0204 15.5101C14.0204 15.2114 14.1278 14.9268 14.3424 14.6561C14.5571 14.3761 14.8464 14.1568 15.2104 13.9981L15.4484 14.1241C15.3458 14.2268 15.2664 14.3388 15.2104 14.4601C15.1544 14.5814 15.1264 14.7028 15.1264 14.8241C15.1264 14.9641 15.1591 15.0714 15.2244 15.1461C15.2991 15.2208 15.4391 15.2814 15.6444 15.3281C15.8498 15.3654 16.1578 15.4028 16.5684 15.4401C17.5298 15.5241 18.2344 15.7201 18.6824 16.0281C19.1304 16.3361 19.3544 16.7841 19.3544 17.3721C19.3544 17.8574 19.2144 18.2774 18.9344 18.6321C18.6638 18.9961 18.2764 19.2761 17.7724 19.4721C17.2778 19.6774 16.6944 19.7801 16.0224 19.7801ZM15.7984 14.3201C15.0331 14.3201 14.4218 14.1194 13.9644 13.7181C13.5071 13.3074 13.2784 12.7568 13.2784 12.0661C13.2784 11.5621 13.3998 11.1234 13.6424 10.7501C13.8944 10.3674 14.2351 10.0688 14.6644 9.85408C15.1031 9.63941 15.6071 9.53208 16.1764 9.53208C16.7084 9.53208 17.1658 9.63008 17.5484 9.82608C17.9404 10.0128 18.2438 10.2834 18.4584 10.6381C18.6824 10.9834 18.7944 11.3848 18.7944 11.8421C18.7944 12.3274 18.6684 12.7568 18.4164 13.1301C18.1644 13.4941 17.8098 13.7834 17.3524 13.9981C16.9044 14.2128 16.3864 14.3201 15.7984 14.3201ZM16.0644 13.7321C16.4471 13.7321 16.7504 13.5828 16.9744 13.2841C17.2078 12.9761 17.3244 12.5654 17.3244 12.0521C17.3244 11.4361 17.2078 10.9648 16.9744 10.6381C16.7504 10.3021 16.4144 10.1341 15.9664 10.1341C15.6024 10.1341 15.3131 10.2881 15.0984 10.5961C14.8838 10.8948 14.7764 11.3054 14.7764 11.8281C14.7764 12.4628 14.8838 12.9388 15.0984 13.2561C15.3131 13.5734 15.6351 13.7321 16.0644 13.7321ZM18.7944 10.4001C18.6638 10.4001 18.5051 10.3954 18.3184 10.3861C18.1411 10.3768 17.9684 10.3581 17.8004 10.3301C17.6324 10.3021 17.4971 10.2694 17.3944 10.2321L17.2684 9.98008L19.3964 9.33608C19.4524 9.42008 19.4944 9.51341 19.5224 9.61608C19.5598 9.71875 19.5784 9.80741 19.5784 9.88208C19.5784 10.2274 19.3171 10.4001 18.7944 10.4001Z" fill="white"/>
</svg>
