<svg width="24" height="24" viewBox="0 0 24 24" fill="none" xmlns="http://www.w3.org/2000/svg">
<path d="M3.56762 16.0001C3.59562 15.7948 3.63762 15.6314 3.69362 15.5101C3.74962 15.3888 3.81496 15.3141 3.88962 15.2861L4.84163 14.9361L4.29563 15.4541L8.39763 7.20808C8.45363 7.10541 8.54229 7.02608 8.66363 6.97008C8.78496 6.91408 8.91096 6.87675 9.04163 6.85808C9.17229 6.83941 9.27963 6.83008 9.36363 6.83008C9.47563 6.83008 9.57829 6.83475 9.67163 6.84408C9.76496 6.85341 9.84896 6.87208 9.92363 6.90008L11.6456 15.4121L11.3096 14.9501L12.4856 15.2301C12.467 15.3794 12.4296 15.5148 12.3736 15.6361C12.3176 15.7481 12.229 15.8694 12.1076 16.0001H8.76163C8.80829 15.7948 8.85963 15.6314 8.91563 15.5101C8.97163 15.3888 9.03229 15.3141 9.09763 15.2861L10.0636 14.9781L9.95163 15.3841L8.48163 8.11808H8.92963L5.28963 15.4261L5.27563 14.8941L6.61963 15.2301C6.59163 15.3794 6.54963 15.5148 6.49363 15.6361C6.43763 15.7481 6.34429 15.8694 6.21363 16.0001H3.56762ZM6.11563 13.1721L6.43763 12.2761H9.67163L9.72763 13.1721H6.11563ZM14.9747 19.6121C14.592 19.6121 14.242 19.5514 13.9247 19.4301C13.6073 19.3088 13.3553 19.1361 13.1687 18.9121C12.982 18.6974 12.8887 18.4408 12.8887 18.1421C12.8887 17.8901 12.9447 17.6894 13.0567 17.5401C13.1687 17.3908 13.3133 17.2834 13.4907 17.2181C13.668 17.1528 13.85 17.1201 14.0367 17.1201C14.1393 17.1201 14.2373 17.1341 14.3307 17.1621C14.4333 17.1901 14.5173 17.2181 14.5827 17.2461C14.5733 17.3208 14.564 17.4001 14.5547 17.4841C14.5453 17.5681 14.5407 17.6521 14.5407 17.7361C14.5407 18.1094 14.62 18.3941 14.7787 18.5901C14.9373 18.7954 15.1707 18.8981 15.4787 18.8981C15.8613 18.8981 16.1833 18.7628 16.4447 18.4921C16.706 18.2308 16.902 17.7828 17.0327 17.1481C17.1727 16.5134 17.2473 15.6454 17.2567 14.5441H17.2007C16.9673 15.0761 16.6593 15.4821 16.2767 15.7621C15.894 16.0328 15.488 16.1681 15.0587 16.1681C14.508 16.1681 14.0693 15.9768 13.7427 15.5941C13.416 15.2021 13.2527 14.6048 13.2527 13.8021C13.2527 13.1954 13.346 12.6354 13.5327 12.1221C13.7287 11.5994 13.9993 11.1468 14.3447 10.7641C14.69 10.3721 15.0867 10.0688 15.5347 9.85408C15.992 9.63941 16.482 9.53208 17.0047 9.53208C17.4153 9.53208 17.784 9.58808 18.1107 9.70008C18.4373 9.81208 18.736 10.0081 19.0067 10.2881L18.7827 10.8061C18.68 10.7034 18.498 10.5774 18.2367 10.4281C17.9847 10.2694 17.6113 10.1901 17.1167 10.1901C16.7807 10.1901 16.482 10.2928 16.2207 10.4981C15.9687 10.7034 15.754 10.9788 15.5767 11.3241C15.4087 11.6694 15.278 12.0428 15.1847 12.4441C15.1007 12.8454 15.0587 13.2421 15.0587 13.6341C15.0587 13.9514 15.0867 14.2221 15.1427 14.4461C15.1987 14.6608 15.2873 14.8288 15.4087 14.9501C15.53 15.0621 15.6887 15.1181 15.8847 15.1181C16.1087 15.1181 16.314 15.0294 16.5007 14.8521C16.6967 14.6654 16.874 14.3761 17.0327 13.9841C17.1913 13.5921 17.336 13.0834 17.4667 12.4581C17.6067 11.8234 17.7373 11.0534 17.8587 10.1481L18.8807 9.53208C19.114 9.53208 19.3053 9.55541 19.4547 9.60208C19.6133 9.64875 19.6927 9.75608 19.6927 9.92408C19.6927 9.98941 19.66 10.1481 19.5947 10.4001C19.5387 10.6428 19.464 10.9414 19.3707 11.2961C19.2773 11.6508 19.184 12.0334 19.0907 12.4441C18.9973 12.8548 18.918 13.2608 18.8527 13.6621C18.7967 14.0541 18.7687 14.4134 18.7687 14.7401C18.7687 16.3268 18.4793 17.5354 17.9007 18.3661C17.322 19.1968 16.3467 19.6121 14.9747 19.6121Z" fill="white"/>
</svg>
