<svg width="24" height="24" viewBox="0 0 24 24" fill="none" xmlns="http://www.w3.org/2000/svg">
<path d="M4.26955 16.0001C4.26955 15.8694 4.28822 15.7668 4.32555 15.6921C4.37222 15.6174 4.42822 15.5754 4.49355 15.5661L5.26355 15.3421L4.96955 15.6641L8.10555 7.05408C8.13355 6.99808 8.17088 6.95608 8.21755 6.92808C8.27355 6.89075 8.32955 6.86741 8.38555 6.85808C8.45088 6.83941 8.51155 6.83008 8.56755 6.83008C8.61422 6.83008 8.66088 6.83475 8.70755 6.84408C8.75422 6.84408 8.80088 6.85341 8.84755 6.87208L12.2775 15.6221L11.8575 15.3001L13.0755 15.5661C13.0755 15.6781 13.0569 15.7668 13.0195 15.8321C12.9915 15.8881 12.9262 15.9441 12.8235 16.0001H10.2195C10.2195 15.8694 10.2382 15.7668 10.2755 15.6921C10.3222 15.6174 10.3782 15.5754 10.4435 15.5661L11.3815 15.3281L11.2415 15.5661L8.20355 7.78208L8.42755 7.75408L5.52955 15.6641L5.50155 15.3141L6.66355 15.5661C6.66355 15.6781 6.64955 15.7668 6.62155 15.8321C6.59355 15.8881 6.51888 15.9441 6.39755 16.0001H4.26955ZM6.35555 12.9201L6.49555 12.4161H10.2475L10.4155 12.9201H6.35555ZM16.3063 19.7801C15.4943 19.7801 14.8409 19.5981 14.3463 19.2341C13.8516 18.8701 13.6043 18.3941 13.6043 17.8061C13.6043 17.4514 13.7676 17.2741 14.0943 17.2741C14.1783 17.2741 14.2576 17.2834 14.3323 17.3021C14.4163 17.3208 14.4909 17.3581 14.5563 17.4141C14.5563 18.0488 14.7196 18.5341 15.0463 18.8701C15.3729 19.2061 15.8489 19.3741 16.4743 19.3741C17.1183 19.3741 17.6363 19.2201 18.0283 18.9121C18.4296 18.6041 18.6303 18.2074 18.6303 17.7221C18.6303 17.4048 18.5649 17.1574 18.4343 16.9801C18.3129 16.8028 18.0936 16.6674 17.7763 16.5741C17.4683 16.4808 17.0296 16.4108 16.4603 16.3641C15.7323 16.3081 15.2329 16.2101 14.9623 16.0701C14.7009 15.9301 14.5703 15.7061 14.5703 15.3981C14.5703 15.1461 14.6496 14.8941 14.8083 14.6421C14.9763 14.3901 15.1909 14.1894 15.4523 14.0401L15.6623 14.1241C15.5316 14.2268 15.4289 14.3528 15.3543 14.5021C15.2889 14.6514 15.2563 14.8101 15.2563 14.9781C15.2563 15.1274 15.2889 15.2488 15.3543 15.3421C15.4289 15.4261 15.5783 15.4914 15.8023 15.5381C16.0356 15.5754 16.3763 15.6128 16.8243 15.6501C17.7389 15.7248 18.4016 15.9021 18.8123 16.1821C19.2323 16.4621 19.4423 16.8868 19.4423 17.4561C19.4423 17.9134 19.3116 18.3148 19.0503 18.6601C18.7889 19.0148 18.4203 19.2901 17.9443 19.4861C17.4776 19.6821 16.9316 19.7801 16.3063 19.7801ZM16.1243 14.2781C15.4336 14.2781 14.8783 14.0728 14.4583 13.6621C14.0383 13.2514 13.8283 12.7008 13.8283 12.0101C13.8283 11.5154 13.9356 11.0861 14.1503 10.7221C14.3743 10.3488 14.6823 10.0594 15.0743 9.85408C15.4663 9.63941 15.9189 9.53208 16.4323 9.53208C16.9083 9.53208 17.3236 9.63008 17.6783 9.82608C18.0423 10.0221 18.3269 10.2974 18.5323 10.6521C18.7376 11.0068 18.8403 11.4128 18.8403 11.8701C18.8403 12.3368 18.7236 12.7521 18.4903 13.1161C18.2663 13.4801 17.9489 13.7648 17.5383 13.9701C17.1369 14.1754 16.6656 14.2781 16.1243 14.2781ZM16.3623 13.8581C16.8289 13.8581 17.2069 13.6901 17.4963 13.3541C17.7949 13.0181 17.9443 12.5794 17.9443 12.0381C17.9443 11.3661 17.7996 10.8528 17.5103 10.4981C17.2209 10.1341 16.8009 9.95208 16.2503 9.95208C15.8023 9.95208 15.4383 10.1201 15.1583 10.4561C14.8783 10.7921 14.7383 11.2354 14.7383 11.7861C14.7383 12.4954 14.8689 13.0181 15.1303 13.3541C15.4009 13.6901 15.8116 13.8581 16.3623 13.8581ZM19.0503 10.2881C18.9196 10.2881 18.7656 10.2834 18.5883 10.2741C18.4203 10.2648 18.2569 10.2508 18.0983 10.2321C17.9396 10.2134 17.8183 10.1854 17.7343 10.1481L17.6503 9.99408L19.6243 9.54608C19.6709 9.59275 19.7036 9.64875 19.7223 9.71408C19.7409 9.77008 19.7503 9.81675 19.7503 9.85408C19.7503 10.1434 19.5169 10.2881 19.0503 10.2881Z" fill="white"/>
</svg>
