<svg width="24" height="24" viewBox="0 0 24 24" fill="none" xmlns="http://www.w3.org/2000/svg">
<path d="M3.25001 16.0001C3.25001 15.7948 3.26867 15.6314 3.30601 15.5101C3.35267 15.3888 3.40867 15.3141 3.47401 15.2861L4.45401 14.9361L3.95001 15.4541L6.96001 7.20808C6.99734 7.10541 7.07667 7.02608 7.19801 6.97008C7.31934 6.91408 7.45001 6.87675 7.59001 6.85808C7.73001 6.83941 7.84667 6.83008 7.94001 6.83008C8.04267 6.83008 8.14534 6.83475 8.24801 6.84408C8.35067 6.85341 8.45334 6.87208 8.55601 6.90008L11.846 15.3981L11.3 14.9361L12.63 15.2301C12.63 15.3794 12.6113 15.5148 12.574 15.6361C12.5367 15.7481 12.4573 15.8694 12.336 16.0001H8.85001C8.85001 15.7948 8.86867 15.6314 8.90601 15.5101C8.95267 15.3888 9.00867 15.3141 9.07401 15.2861L10.068 14.9781L9.95601 15.3841L7.14201 8.13208L7.67401 8.11808L5.00001 15.4261L4.90201 14.8941L6.38601 15.2301C6.38601 15.3794 6.36734 15.5148 6.33001 15.6361C6.29267 15.7481 6.21334 15.8694 6.09201 16.0001H3.25001ZM5.50401 13.1721L5.70001 12.2761H9.18601L9.39601 13.1721H5.50401ZM16.1129 19.7801C15.2169 19.7801 14.4983 19.6028 13.9569 19.2481C13.4249 18.9028 13.1589 18.4408 13.1589 17.8621C13.1589 17.3301 13.4436 17.0641 14.0129 17.0641C14.1529 17.0641 14.2929 17.0781 14.4329 17.1061C14.5823 17.1434 14.7223 17.1901 14.8529 17.2461C14.8529 17.8808 14.9836 18.3568 15.2449 18.6741C15.5156 18.9914 15.9169 19.1501 16.4489 19.1501C16.9249 19.1501 17.3076 19.0334 17.5969 18.8001C17.8863 18.5668 18.0309 18.2541 18.0309 17.8621C18.0309 17.5914 17.9703 17.3721 17.8489 17.2041C17.7369 17.0454 17.5316 16.9241 17.2329 16.8401C16.9436 16.7561 16.5376 16.6908 16.0149 16.6441C15.2683 16.5788 14.7456 16.4668 14.4469 16.3081C14.1576 16.1494 14.0129 15.9021 14.0129 15.5661C14.0129 15.2488 14.1296 14.9454 14.3629 14.6561C14.5963 14.3668 14.9183 14.1381 15.3289 13.9701L15.5809 14.1241C15.4876 14.2268 15.4129 14.3341 15.3569 14.4461C15.3103 14.5488 15.2869 14.6561 15.2869 14.7681C15.2869 14.8988 15.3196 15.0014 15.3849 15.0761C15.4503 15.1414 15.5809 15.1974 15.7769 15.2441C15.9823 15.2814 16.2856 15.3188 16.6869 15.3561C17.6576 15.4401 18.3716 15.6408 18.8289 15.9581C19.2956 16.2754 19.5289 16.7374 19.5289 17.3441C19.5289 17.8294 19.3889 18.2541 19.1089 18.6181C18.8289 18.9914 18.4323 19.2761 17.9189 19.4721C17.4149 19.6774 16.8129 19.7801 16.1129 19.7801ZM15.8749 14.3481C15.0723 14.3481 14.4376 14.1474 13.9709 13.7461C13.5043 13.3354 13.2709 12.7848 13.2709 12.0941C13.2709 11.5901 13.3969 11.1468 13.6489 10.7641C13.9103 10.3721 14.2649 10.0688 14.7129 9.85408C15.1609 9.63941 15.6836 9.53208 16.2809 9.53208C16.8316 9.53208 17.3076 9.63008 17.7089 9.82608C18.1103 10.0128 18.4229 10.2788 18.6469 10.6241C18.8709 10.9694 18.9829 11.3708 18.9829 11.8281C18.9829 12.3228 18.8523 12.7568 18.5909 13.1301C18.3296 13.5034 17.9656 13.8021 17.4989 14.0261C17.0323 14.2408 16.4909 14.3481 15.8749 14.3481ZM16.1549 13.6761C16.5003 13.6761 16.7709 13.5314 16.9669 13.2421C17.1723 12.9528 17.2749 12.5561 17.2749 12.0521C17.2749 11.4641 17.1723 11.0114 16.9669 10.6941C16.7616 10.3674 16.4583 10.2041 16.0569 10.2041C15.7303 10.2041 15.4689 10.3488 15.2729 10.6381C15.0863 10.9274 14.9929 11.3288 14.9929 11.8421C14.9929 12.4488 15.0909 12.9061 15.2869 13.2141C15.4829 13.5221 15.7723 13.6761 16.1549 13.6761ZM18.8989 10.4561C18.7683 10.4561 18.6096 10.4514 18.4229 10.4421C18.2363 10.4234 18.0543 10.4001 17.8769 10.3721C17.7089 10.3441 17.5689 10.3114 17.4569 10.2741L17.3309 9.98008L19.5149 9.25208C19.5709 9.34541 19.6176 9.45275 19.6549 9.57408C19.6923 9.69541 19.7109 9.80275 19.7109 9.89608C19.7109 10.2694 19.4403 10.4561 18.8989 10.4561Z" fill="white"/>
</svg>
