<svg width="24" height="24" viewBox="0 0 24 24" fill="none" xmlns="http://www.w3.org/2000/svg">
<path d="M12.0957 17.0558C11.5077 17.0558 10.9757 16.9345 10.4997 16.6918C10.0237 16.4398 9.63638 15.9545 9.33771 15.2358L9.01571 14.4518H5.29171L4.14371 16.9998H3.41571L7.54571 7.75977H8.17571L11.3117 15.2358C11.6664 16.1038 12.1517 16.5705 12.7677 16.6358V16.9858C12.5997 17.0325 12.3757 17.0558 12.0957 17.0558ZM5.58571 13.8218H8.74971L7.20971 10.1678L5.58571 13.8218ZM15.9942 19.7998C14.9302 19.7998 14.0902 19.6271 13.4742 19.2818C12.8675 18.9458 12.5642 18.3951 12.5642 17.6298C12.5642 17.1631 12.7508 16.7758 13.1242 16.4678C13.4975 16.1598 13.9408 15.9405 14.4542 15.8098C14.0342 15.6791 13.8242 15.4225 13.8242 15.0398C13.8242 14.7225 14.0108 14.4891 14.3842 14.3398C13.9828 14.1998 13.6468 13.9571 13.3762 13.6118C13.1148 13.2665 12.9842 12.8838 12.9842 12.4638C12.9842 11.6985 13.2548 11.1431 13.7962 10.7978C14.3468 10.4525 15.0795 10.2798 15.9942 10.2798H18.9342V10.6578L17.6742 10.8258C18.0662 10.9751 18.3835 11.2038 18.6262 11.5118C18.8782 11.8198 19.0042 12.1371 19.0042 12.4638C19.0042 13.2291 18.7428 13.7798 18.2202 14.1158C17.7068 14.4518 16.9648 14.6198 15.9942 14.6198C15.5088 14.6198 15.1542 14.6478 14.9302 14.7038C14.7062 14.7505 14.5942 14.8625 14.5942 15.0398C14.5942 15.1891 14.7062 15.2871 14.9302 15.3338C15.1542 15.3805 15.5088 15.4085 15.9942 15.4178C17.0022 15.4365 17.8235 15.6371 18.4582 16.0198C19.1022 16.3931 19.4242 16.9298 19.4242 17.6298C19.4242 18.3951 19.1162 18.9458 18.5002 19.2818C17.8935 19.6271 17.0582 19.7998 15.9942 19.7998ZM15.9942 14.0598C16.7408 14.0598 17.1142 13.5278 17.1142 12.4638C17.1142 11.9411 17.0115 11.5398 16.8062 11.2598C16.6008 10.9798 16.3302 10.8398 15.9942 10.8398C15.6488 10.8398 15.3735 10.9751 15.1682 11.2458C14.9722 11.5165 14.8742 11.9225 14.8742 12.4638C14.8742 13.5278 15.2475 14.0598 15.9942 14.0598ZM15.9942 19.1698C16.4795 19.1698 16.8575 19.0391 17.1282 18.7778C17.3988 18.5258 17.5342 18.1431 17.5342 17.6298C17.5342 17.2191 17.4035 16.8785 17.1422 16.6078C16.8902 16.3278 16.5448 16.1458 16.1062 16.0618L15.4482 15.9918C15.1215 16.1318 14.8742 16.3325 14.7062 16.5938C14.5382 16.8551 14.4542 17.2005 14.4542 17.6298C14.4542 18.1431 14.5895 18.5258 14.8602 18.7778C15.1308 19.0391 15.5088 19.1698 15.9942 19.1698Z" fill="white"/>
</svg>
