<svg width="24" height="24" viewBox="0 0 24 24" fill="none" xmlns="http://www.w3.org/2000/svg">
<path d="M11.9896 16.3561C12.1669 16.3934 12.3349 16.4354 12.4936 16.4821C12.6616 16.5194 12.8249 16.5614 12.9836 16.6081V17.0001H9.25962V16.6081L10.7016 16.3421L7.90162 8.25008H8.19562L5.28362 16.3001C5.57295 16.3468 5.85295 16.3981 6.12362 16.4541C6.40362 16.5008 6.68362 16.5521 6.96362 16.6081V17.0001H3.39362V16.6081L4.34562 16.3001L7.53762 7.83008H8.86762L11.9896 16.3561ZM5.77362 13.9621V13.2201H10.4776V13.9621H5.77362ZM16.7298 19.8981C15.7965 19.8981 15.0591 19.7114 14.5178 19.3381C13.9858 18.9741 13.7151 18.4608 13.7058 17.7981C13.9205 17.4808 14.1818 17.2054 14.4898 16.9721C14.8071 16.7388 15.1665 16.5521 15.5678 16.4121H15.8058C15.4325 16.7108 15.1758 16.9674 15.0358 17.1821C14.8958 17.4061 14.8258 17.6114 14.8258 17.7981C14.8258 18.1901 15.0125 18.4981 15.3858 18.7221C15.7591 18.9554 16.2725 19.0721 16.9258 19.0721C17.6351 19.0721 18.2091 18.9368 18.6478 18.6661C19.0865 18.3954 19.3058 18.0361 19.3058 17.5881C19.3058 17.4294 19.2685 17.2614 19.1938 17.0841C19.1285 16.9161 19.0305 16.7574 18.8998 16.6081H15.3858C15.1525 16.4494 14.9751 16.2628 14.8538 16.0481C14.7325 15.8241 14.6718 15.6188 14.6718 15.4321C14.6718 15.1801 14.7511 14.9468 14.9098 14.7321C15.0778 14.5081 15.2925 14.3261 15.5538 14.1861L15.5258 15.6281H18.7878C19.0865 15.6281 19.3618 15.7074 19.6138 15.8661C19.8658 16.0154 20.0618 16.2254 20.2018 16.4961C20.3511 16.7574 20.4258 17.0561 20.4258 17.3921C20.4258 17.8868 20.2671 18.3208 19.9498 18.6941C19.6418 19.0768 19.2078 19.3708 18.6478 19.5761C18.0971 19.7908 17.4578 19.8981 16.7298 19.8981ZM16.8698 14.6341C15.9831 14.6341 15.2971 14.4428 14.8118 14.0601C14.3265 13.6681 14.0838 13.1314 14.0838 12.4501C14.0838 11.9461 14.2005 11.5168 14.4338 11.1621C14.6765 10.7981 15.0218 10.5228 15.4698 10.3361C15.9178 10.1401 16.4545 10.0421 17.0798 10.0421C17.9665 10.0421 18.6571 10.2381 19.1518 10.6301C19.6558 11.0128 19.9078 11.5494 19.9078 12.2401C19.9078 12.7254 19.7818 13.1501 19.5298 13.5141C19.2871 13.8781 18.9418 14.1581 18.4938 14.3541C18.0458 14.5408 17.5045 14.6341 16.8698 14.6341ZM16.9258 13.9061C17.5138 13.9061 17.9711 13.7614 18.2978 13.4721C18.6338 13.1828 18.8018 12.7861 18.8018 12.2821C18.8018 11.8154 18.6385 11.4561 18.3118 11.2041C17.9851 10.9428 17.5418 10.8121 16.9818 10.8121C16.7765 10.8121 16.5525 10.8308 16.3098 10.8681C16.0765 10.8961 15.8478 10.9428 15.6238 11.0081C15.4838 11.2694 15.3765 11.5261 15.3018 11.7781C15.2365 12.0208 15.2038 12.2401 15.2038 12.4361C15.2038 12.8841 15.3578 13.2434 15.6658 13.5141C15.9738 13.7754 16.3938 13.9061 16.9258 13.9061ZM18.9698 10.7841C18.8765 10.6161 18.8018 10.4434 18.7458 10.2661C18.6898 10.0888 18.6618 9.93941 18.6618 9.81808C18.6618 9.47275 18.7738 9.20675 18.9978 9.02008C19.2218 8.82408 19.5391 8.72608 19.9498 8.72608C20.0805 8.72608 20.2158 8.74008 20.3558 8.76808C20.4958 8.78675 20.6545 8.82875 20.8318 8.89408L20.7338 9.65008H19.3058L19.0958 10.7841H18.9698Z" fill="white"/>
</svg>
