<svg width="24" height="24" viewBox="0 0 24 24" fill="none" xmlns="http://www.w3.org/2000/svg">
<path d="M9.8504 15.8236C9.8784 16.1316 9.95773 16.3556 10.0884 16.4956C10.2191 16.6356 10.3684 16.7103 10.5364 16.7196L10.4804 16.9996C9.93907 16.9716 9.1504 16.9576 8.1144 16.9576C7.03173 16.9576 6.2384 16.9716 5.7344 16.9996L5.7904 16.7196C6.10773 16.7009 6.35507 16.6636 6.5324 16.6076C6.70973 16.5423 6.83573 16.4303 6.9104 16.2716C6.98507 16.1036 7.01307 15.8609 6.9944 15.5436L6.8684 13.2476H4.1244L2.7664 15.1656C2.5424 15.4829 2.4304 15.7489 2.4304 15.9636C2.4304 16.4023 2.85973 16.6543 3.7184 16.7196L3.6624 16.9996C2.70107 16.9716 2.0384 16.9576 1.6744 16.9576C1.35707 16.9576 1.05373 16.9716 0.764397 16.9996L0.820397 16.7196C1.08173 16.6449 1.32907 16.4956 1.5624 16.2716C1.7864 16.0476 2.1084 15.6416 2.5284 15.0536L8.2404 7.01758C8.4644 7.03625 8.64173 7.04558 8.7724 7.04558C8.9124 7.04558 9.08507 7.03625 9.2904 7.01758L9.8504 15.8236ZM6.8544 12.9676L6.6864 9.63558L4.3204 12.9676H6.8544ZM19.6496 16.9996C19.659 16.9529 19.6636 16.8829 19.6636 16.7896C19.6636 16.4909 19.5423 16.3416 19.2996 16.3416C19.141 16.3416 18.973 16.3696 18.7956 16.4256C18.6183 16.4723 18.3896 16.5563 18.1096 16.6776C17.6336 16.8829 17.2416 17.0183 16.9336 17.0836C16.6256 17.1583 16.2943 17.1956 15.9396 17.1956C14.605 17.1956 13.5783 16.9436 12.8596 16.4396C12.141 15.9356 11.7816 15.2123 11.7816 14.2696C11.7816 13.3549 12.0476 12.4356 12.5796 11.5116C13.121 10.5783 13.891 9.80825 14.8896 9.20158C15.8883 8.59491 17.0456 8.29158 18.3616 8.29158C19.3323 8.29158 20.1443 8.59491 20.7976 9.20158C20.8816 9.28558 20.961 9.32758 21.0356 9.32758C21.129 9.32758 21.2176 9.26225 21.3016 9.13158C21.395 9.00091 21.493 8.78625 21.5956 8.48758H21.9036C21.605 9.34625 21.3063 10.4196 21.0076 11.7076H20.6996C20.7463 11.3063 20.7696 10.9563 20.7696 10.6576C20.7696 10.4336 20.7556 10.2423 20.7276 10.0836C20.6996 9.92491 20.6483 9.77558 20.5736 9.63558C20.1536 8.90758 19.3883 8.54358 18.2776 8.54358C17.475 8.54358 16.7983 8.89825 16.2476 9.60758C15.697 10.3076 15.2863 11.1429 15.0156 12.1136C14.7543 13.0843 14.6236 13.9569 14.6236 14.7316C14.6236 15.4596 14.759 16.0056 15.0296 16.3696C15.3003 16.7336 15.697 16.9156 16.2196 16.9156C16.593 16.9156 16.8683 16.8316 17.0456 16.6636C17.223 16.4956 17.3536 16.2063 17.4376 15.7956L17.6896 14.8576C17.7456 14.6429 17.7736 14.4563 17.7736 14.2976C17.7736 14.0363 17.6803 13.8449 17.4936 13.7236C17.3163 13.6023 17.0316 13.5323 16.6396 13.5136L16.6956 13.2336C17.3303 13.2616 18.2216 13.2756 19.3696 13.2756C20.3963 13.2756 21.1616 13.2616 21.6656 13.2336L21.6096 13.5136C21.3763 13.5323 21.2036 13.5696 21.0916 13.6256C20.9796 13.6816 20.8816 13.7889 20.7976 13.9476C20.723 14.0969 20.639 14.3536 20.5456 14.7176L19.9296 16.9996H19.6496Z" fill="white"/>
</svg>
