<svg width="24" height="24" viewBox="0 0 24 24" fill="none" xmlns="http://www.w3.org/2000/svg">
<path d="M5.17921 14.8996C4.87121 15.3383 4.69854 15.6883 4.66121 15.9496C4.63321 16.2109 4.71721 16.4023 4.91321 16.5236C5.11854 16.6356 5.40788 16.7009 5.78121 16.7196L5.72521 16.9996C5.37054 16.9809 5.04854 16.9716 4.75921 16.9716C4.47921 16.9623 4.21321 16.9576 3.96121 16.9576C3.74654 16.9576 3.56454 16.9623 3.41521 16.9716C3.26588 16.9716 3.11654 16.9809 2.96721 16.9996L3.03721 16.7196C3.18654 16.6823 3.33588 16.6169 3.48521 16.5236C3.63454 16.4209 3.79788 16.2763 3.97521 16.0896C4.14321 15.8936 4.33921 15.6369 4.56321 15.3196L10.4712 7.01758C10.5552 7.02691 10.6439 7.03158 10.7372 7.03158C10.8399 7.03158 10.9332 7.02691 11.0172 7.01758L11.5772 15.8236C11.6052 16.1596 11.6892 16.3929 11.8292 16.5236C11.9785 16.6449 12.1232 16.7103 12.2632 16.7196L12.2072 16.9996C11.9832 16.9809 11.6939 16.9716 11.3392 16.9716C10.9939 16.9623 10.6625 16.9576 10.3452 16.9576C9.95321 16.9576 9.57988 16.9623 9.22521 16.9716C8.87054 16.9716 8.59054 16.9809 8.38521 16.9996L8.44121 16.7196C8.88921 16.7009 9.20654 16.6216 9.39321 16.4816C9.57988 16.3323 9.66388 16.0196 9.64521 15.5436L9.28121 8.93558L9.64521 8.59958L5.17921 14.8996ZM6.42521 12.9676H10.5132L10.4012 13.2476H6.17321L6.42521 12.9676ZM16.3586 13.8356L16.9046 13.8076C16.5406 13.9756 16.2233 14.1296 15.9526 14.2696C15.682 14.4003 15.4673 14.5263 15.3086 14.6476C15.15 14.7596 15.0706 14.8716 15.0706 14.9836C15.0706 15.0676 15.1266 15.1469 15.2386 15.2216C15.3506 15.2869 15.528 15.3523 15.7706 15.4176L16.8906 15.7676C17.1706 15.8516 17.4273 15.9496 17.6606 16.0616C17.9033 16.1736 18.0993 16.3183 18.2486 16.4956C18.398 16.6729 18.4726 16.9016 18.4726 17.1816C18.4726 17.4896 18.37 17.7929 18.1646 18.0916C17.9686 18.3903 17.684 18.6563 17.3106 18.8896C16.9466 19.1323 16.508 19.3236 15.9946 19.4636C15.4813 19.6129 14.912 19.6876 14.2866 19.6876C13.8106 19.6876 13.3906 19.6409 13.0266 19.5476C12.6533 19.4636 12.3686 19.3423 12.1726 19.1836C11.9673 19.0249 11.8646 18.8383 11.8646 18.6236C11.8646 18.4556 11.93 18.2969 12.0606 18.1476C12.1913 17.9983 12.3686 17.8629 12.5926 17.7416C12.8166 17.6203 13.0686 17.5129 13.3486 17.4196C13.6286 17.3263 13.9226 17.2563 14.2306 17.2096L14.2866 17.4196C13.96 17.5876 13.7313 17.7696 13.6006 17.9656C13.4793 18.1709 13.4186 18.3716 13.4186 18.5676C13.4186 18.8756 13.526 19.0996 13.7406 19.2396C13.9646 19.3796 14.2493 19.4496 14.5946 19.4496C14.8746 19.4496 15.1593 19.4076 15.4486 19.3236C15.7473 19.2396 16.0226 19.1229 16.2746 18.9736C16.536 18.8336 16.7413 18.6703 16.8906 18.4836C17.0493 18.2969 17.1286 18.0963 17.1286 17.8816C17.1286 17.7136 17.0726 17.5969 16.9606 17.5316C16.8486 17.4756 16.6853 17.4243 16.4706 17.3776L14.4126 16.8036C14.1886 16.7383 13.9973 16.6356 13.8386 16.4956C13.68 16.3463 13.6006 16.1503 13.6006 15.9076C13.6006 15.6836 13.694 15.4689 13.8806 15.2636C14.0766 15.0489 14.3753 14.8296 14.7766 14.6056C15.1873 14.3723 15.7146 14.1156 16.3586 13.8356ZM17.0026 9.83158C16.7786 9.83158 16.5873 9.90625 16.4286 10.0556C16.27 10.2049 16.13 10.4009 16.0086 10.6436C15.8966 10.8769 15.8033 11.1336 15.7286 11.4136C15.6633 11.6843 15.612 11.9549 15.5746 12.2256C15.5466 12.4869 15.5326 12.7203 15.5326 12.9256C15.5326 13.2243 15.5793 13.4343 15.6726 13.5556C15.7753 13.6769 15.9153 13.7376 16.0926 13.7376C16.354 13.7376 16.5733 13.6396 16.7506 13.4436C16.9373 13.2476 17.0866 12.9956 17.1986 12.6876C17.3106 12.3796 17.39 12.0576 17.4366 11.7216C17.4833 11.3763 17.5066 11.0589 17.5066 10.7696C17.5066 10.4989 17.474 10.2749 17.4086 10.0976C17.3526 9.92025 17.2173 9.83158 17.0026 9.83158ZM17.1706 9.57958C17.768 9.57958 18.2533 9.70558 18.6266 9.95758C19.0093 10.2003 19.2006 10.6016 19.2006 11.1616C19.2006 11.6096 19.0653 12.0529 18.7946 12.4916C18.524 12.9303 18.1366 13.2896 17.6326 13.5696C17.138 13.8496 16.5546 13.9896 15.8826 13.9896C15.3133 13.9896 14.8326 13.8683 14.4406 13.6256C14.058 13.3736 13.8666 12.9769 13.8666 12.4356C13.8666 12.1556 13.932 11.8523 14.0626 11.5256C14.1933 11.1896 14.394 10.8769 14.6646 10.5876C14.9353 10.2889 15.276 10.0463 15.6866 9.85958C16.1066 9.67291 16.6013 9.57958 17.1706 9.57958ZM18.2486 10.3216L17.9686 10.2236C18.1086 9.87825 18.3373 9.58425 18.6546 9.34158C18.972 9.09891 19.308 8.97758 19.6626 8.97758C19.9426 8.97758 20.1573 9.05691 20.3066 9.21558C20.456 9.36491 20.5306 9.57491 20.5306 9.84558C20.5306 10.1163 20.4653 10.3169 20.3346 10.4476C20.204 10.5783 20.0546 10.6436 19.8866 10.6436C19.7373 10.6436 19.5926 10.5923 19.4526 10.4896C19.322 10.3776 19.2426 10.2096 19.2146 9.98558C19.1866 9.76158 19.2473 9.47225 19.3966 9.11758L19.5226 9.18758C19.1586 9.32758 18.888 9.48158 18.7106 9.64958C18.5333 9.81758 18.3793 10.0416 18.2486 10.3216Z" fill="white"/>
</svg>
