<svg width="24" height="24" viewBox="0 0 24 24" fill="none" xmlns="http://www.w3.org/2000/svg">
<path d="M3.14838 17.0003L8.44038 6.57031H9.37838L11.7584 17.0003H10.8204L10.2324 14.3403H5.50038L4.17038 17.0003H3.14838ZM5.92038 13.5003H10.0504L8.67838 7.28431L9.01438 7.32631L5.92038 13.5003ZM16.0691 20.0803C15.5371 20.0803 15.0657 19.9963 14.6551 19.8283C14.2444 19.6696 13.8991 19.4503 13.6191 19.1703C13.3484 18.8996 13.1477 18.5916 13.0171 18.2463L13.7871 17.9243C13.9457 18.3163 14.2211 18.6336 14.6131 18.8763C15.0051 19.1283 15.5137 19.2543 16.1391 19.2543C16.5684 19.2543 16.9931 19.1656 17.4131 18.9883C17.8331 18.8203 18.1924 18.559 18.4911 18.2043C18.7991 17.8496 18.9857 17.4016 19.0511 16.8603L19.3311 14.8303L19.5971 15.0403C19.2984 15.619 18.8737 16.0716 18.3231 16.3983C17.7724 16.725 17.1657 16.8883 16.5031 16.8883C15.8684 16.8883 15.2944 16.739 14.7811 16.4403C14.2677 16.1323 13.8617 15.717 13.5631 15.1943C13.2737 14.6716 13.1291 14.0743 13.1291 13.4023C13.1291 12.8516 13.2271 12.3383 13.4231 11.8623C13.6191 11.377 13.8897 10.9523 14.2351 10.5883C14.5897 10.215 15.0004 9.92564 15.4671 9.72031C15.9431 9.50564 16.4517 9.39831 16.9931 9.39831C17.6744 9.39831 18.2717 9.56164 18.7851 9.88831C19.3077 10.215 19.6904 10.649 19.9331 11.1903L19.8071 11.4423L20.0731 9.56631H20.9131L19.8911 16.9163C19.8071 17.5323 19.5831 18.0783 19.2191 18.5543C18.8551 19.0303 18.3977 19.4036 17.8471 19.6743C17.3057 19.945 16.7131 20.0803 16.0691 20.0803ZM16.5451 16.0483C17.1144 16.0483 17.6231 15.9036 18.0711 15.6143C18.5284 15.3156 18.8924 14.9283 19.1631 14.4523C19.4337 13.9763 19.5691 13.4536 19.5691 12.8843C19.5691 12.3803 19.4617 11.9276 19.2471 11.5263C19.0324 11.125 18.7291 10.8123 18.3371 10.5883C17.9544 10.355 17.5111 10.2383 17.0071 10.2383C16.4564 10.2383 15.9524 10.383 15.4951 10.6723C15.0377 10.9523 14.6784 11.3303 14.4171 11.8063C14.1557 12.2823 14.0251 12.8143 14.0251 13.4023C14.0251 13.897 14.1324 14.345 14.3471 14.7463C14.5617 15.1476 14.8604 15.465 15.2431 15.6983C15.6257 15.9316 16.0597 16.0483 16.5451 16.0483Z" fill="white"/>
</svg>
