<svg width="24" height="24" viewBox="0 0 24 24" fill="none" xmlns="http://www.w3.org/2000/svg">
<path d="M3.7914 17.0003L7.6554 6.57031H8.3274L12.1914 17.0003H11.4214L10.4134 14.2423H5.5694L4.5614 17.0003H3.7914ZM5.7934 13.6123H10.1894L7.8234 7.14431H8.1594L5.7934 13.6123ZM16.8537 20.0803C16.3777 20.0803 15.9344 20.001 15.5237 19.8423C15.1224 19.693 14.7677 19.483 14.4597 19.2123C14.1517 18.951 13.9091 18.657 13.7317 18.3303L14.2637 18.0223C14.5344 18.4796 14.8937 18.839 15.3417 19.1003C15.7897 19.3616 16.2937 19.4923 16.8537 19.4923C17.3204 19.4923 17.7637 19.3943 18.1837 19.1983C18.6131 19.0116 18.9631 18.713 19.2337 18.3023C19.5137 17.901 19.6537 17.383 19.6537 16.7483V14.6343L19.7937 14.8723C19.5324 15.479 19.1264 15.969 18.5757 16.3423C18.0344 16.7063 17.4091 16.8883 16.6997 16.8883C16.0184 16.8883 15.4071 16.7203 14.8657 16.3843C14.3337 16.0483 13.9137 15.6003 13.6057 15.0403C13.2977 14.4803 13.1437 13.8596 13.1437 13.1783C13.1437 12.497 13.2977 11.8763 13.6057 11.3163C13.9137 10.7563 14.3337 10.3083 14.8657 9.97231C15.4071 9.63631 16.0184 9.46831 16.6997 9.46831C17.4091 9.46831 18.0344 9.65498 18.5757 10.0283C19.1264 10.3923 19.5324 10.8776 19.7937 11.4843L19.6537 11.7223V9.63631H20.2837V16.7483C20.2837 17.3923 20.1344 17.9663 19.8357 18.4703C19.5464 18.9743 19.1451 19.3663 18.6317 19.6463C18.1184 19.9356 17.5257 20.0803 16.8537 20.0803ZM16.6997 16.2583C17.2691 16.2583 17.7684 16.123 18.1977 15.8523C18.6364 15.5723 18.9817 15.199 19.2337 14.7323C19.4857 14.2656 19.6117 13.7476 19.6117 13.1783C19.6117 12.5996 19.4857 12.0816 19.2337 11.6243C18.9817 11.1576 18.6364 10.789 18.1977 10.5183C17.7684 10.2383 17.2691 10.0983 16.6997 10.0983C16.1304 10.0983 15.6264 10.2383 15.1877 10.5183C14.7584 10.789 14.4224 11.1576 14.1797 11.6243C13.9371 12.091 13.8157 12.609 13.8157 13.1783C13.8157 13.7476 13.9371 14.2656 14.1797 14.7323C14.4224 15.199 14.7584 15.5723 15.1877 15.8523C15.6264 16.123 16.1304 16.2583 16.6997 16.2583Z" fill="white"/>
</svg>
