<svg width="24" height="24" viewBox="0 0 24 24" fill="none" xmlns="http://www.w3.org/2000/svg">
<path d="M3.47105 15.9999V15.0339H4.81505L7.13905 8.71991H5.72505V7.75391H8.44105L10.9751 15.0339H12.3051V15.9999H8.90306V15.0339H9.78506L9.33705 13.7599H6.31305L5.83705 15.0339H6.73305V15.9999H3.47105ZM6.66305 12.7939H9.00106L7.89505 9.16791L6.66305 12.7939ZM15.3828 14.3479C14.5334 14.3479 13.8614 14.1519 13.3668 13.7599C12.8814 13.3586 12.6388 12.8079 12.6388 12.1079C12.6388 11.3892 12.8861 10.8246 13.3808 10.4139C13.8754 9.99391 14.5474 9.78391 15.3968 9.78391C15.7514 9.78391 16.0641 9.81658 16.3348 9.88191C16.6148 9.94724 16.8714 10.0452 17.1048 10.1759L19.0928 9.43391L19.4148 10.3579L17.7628 10.7359C17.9028 10.9132 18.0054 11.1092 18.0708 11.3239C18.1454 11.5386 18.1828 11.7766 18.1828 12.0379C18.1828 12.5046 18.0661 12.9152 17.8328 13.2699C17.6088 13.6152 17.2868 13.8812 16.8668 14.0679C16.4468 14.2546 15.9521 14.3479 15.3828 14.3479ZM15.4948 19.1219C15.1961 19.1219 14.8461 19.0892 14.4448 19.0239C14.0434 18.9586 13.6608 18.8699 13.2968 18.7579C12.9421 18.6552 12.6761 18.5526 12.4988 18.4499L12.8908 17.6239C13.2268 17.8012 13.6421 17.9412 14.1368 18.0439C14.6314 18.1466 15.0841 18.1979 15.4948 18.1979C15.8961 18.1979 16.2368 18.1652 16.5168 18.0999C16.7968 18.0439 17.0114 17.9506 17.1608 17.8199C17.3194 17.6986 17.3988 17.5399 17.3988 17.3439C17.3988 17.0452 17.2728 16.8259 17.0208 16.6859C16.7688 16.5552 16.4094 16.4899 15.9428 16.4899H13.9408V13.7319L15.0048 14.0819V15.6219H16.2368C16.9834 15.6219 17.5434 15.7572 17.9168 16.0279C18.2901 16.2986 18.4768 16.7046 18.4768 17.2459C18.4768 17.6379 18.3554 17.9739 18.1128 18.2539C17.8794 18.5339 17.5388 18.7486 17.0908 18.8979C16.6521 19.0472 16.1201 19.1219 15.4948 19.1219ZM15.4108 13.4519C15.9241 13.4519 16.3301 13.3212 16.6288 13.0599C16.9274 12.7986 17.0768 12.4672 17.0768 12.0659C17.0768 11.6272 16.9368 11.2866 16.6568 11.0439C16.3768 10.8012 15.9614 10.6799 15.4108 10.6799C14.8601 10.6799 14.4448 10.8012 14.1648 11.0439C13.8848 11.2866 13.7448 11.6272 13.7448 12.0659C13.7448 12.4672 13.8941 12.7986 14.1928 13.0599C14.4914 13.3212 14.8974 13.4519 15.4108 13.4519Z" fill="white"/>
</svg>
