<svg width="24" height="24" viewBox="0 0 24 24" fill="none" xmlns="http://www.w3.org/2000/svg">
<path d="M5.44336 16L7.24805 7.97461H7.45312L8.08203 10.873L6.94727 16H5.44336ZM7.97266 14.6328L8.28711 13.1426H9.3125L7.83594 6.42969H9.33984L11.541 16H10.0234L9.72266 14.6328H7.97266ZM12.1562 18.5566L12.498 17.2168H15.1367C15.5651 17.1986 15.8568 17.0208 16.0117 16.6836C16.0482 16.6107 16.0664 16.5469 16.0664 16.4922V15.6719C15.7018 15.8359 15.401 15.9225 15.1641 15.9316V14.5781C15.5651 14.5781 15.8431 14.4232 15.998 14.1133C16.0436 14.0221 16.0664 13.9355 16.0664 13.8535V10.4355C16.0664 10.1895 15.9251 9.98893 15.6426 9.83398C15.4876 9.75195 15.3281 9.71094 15.1641 9.71094V8.35742C15.4831 8.35742 15.7839 8.44401 16.0664 8.61719V8.35742H17.4746V16.4922C17.4746 16.8841 17.2969 17.2943 16.9414 17.7227C16.4766 18.2695 15.9069 18.5475 15.2324 18.5566H12.1562ZM12.293 13.8809V10.3809C12.3021 9.95247 12.4935 9.52865 12.8672 9.10938C13.3229 8.61719 13.8926 8.36654 14.5762 8.35742V9.71094C14.1842 9.71094 13.9062 9.875 13.7422 10.2031C13.6966 10.2852 13.6738 10.3581 13.6738 10.4219V13.8672C13.6738 14.1042 13.806 14.2956 14.0703 14.4414C14.2253 14.5234 14.3939 14.5645 14.5762 14.5645V15.9316C13.7285 15.9225 13.0768 15.5625 12.6211 14.8516C12.4023 14.5052 12.293 14.1816 12.293 13.8809Z" fill="white"/>
</svg>
