<svg width="24" height="24" viewBox="0 0 24 24" fill="none" xmlns="http://www.w3.org/2000/svg">
<path d="M5.71094 16L7.47461 8.04297H7.67969L8.5 11.8711L7.59766 16H5.71094ZM8.62305 14.8379L9.0332 12.9512H9.52539L8.07617 6.42969H9.97656L12.2324 16H10.3184L10.0449 14.8379H8.62305ZM12.7656 18.5977L13.1895 16.916H15.8965C16.1882 16.9069 16.375 16.7747 16.457 16.5195C16.4661 16.5013 16.4707 16.4876 16.4707 16.4785V15.8359C16.2793 15.8724 16.0742 15.8906 15.8555 15.8906V14.1953C16.2474 14.1771 16.4525 14.0267 16.4707 13.7441V10.2578C16.4707 10.1302 16.3887 10.0163 16.2246 9.91602C16.1152 9.85221 15.9922 9.82031 15.8555 9.82031V8.11133C16.0742 8.11133 16.2793 8.13867 16.4707 8.19336V8.11133H18.2207V16.4785C18.2207 16.8796 18.043 17.2943 17.6875 17.7227C17.2135 18.2969 16.6257 18.5885 15.9238 18.5977H12.7656ZM12.9023 13.7852V10.1895C12.9115 9.75195 13.1074 9.32357 13.4902 8.9043C13.9642 8.38477 14.5566 8.12044 15.2676 8.11133V9.82031C14.9395 9.82031 14.7298 9.9388 14.6387 10.1758C14.6296 10.2031 14.625 10.2214 14.625 10.2305V13.7715C14.625 13.9811 14.7572 14.1133 15.0215 14.168C15.0944 14.1862 15.1764 14.1953 15.2676 14.1953V15.8906C14.4108 15.8906 13.7454 15.5306 13.2715 14.8105C13.0254 14.446 12.9023 14.1042 12.9023 13.7852Z" fill="white"/>
</svg>
