<svg width="24" height="24" viewBox="0 0 24 24" fill="none" xmlns="http://www.w3.org/2000/svg">
<path d="M7.1775 7.21387H9.2635L11.0975 16.9999H8.9975L8.6055 14.8719H4.7275L3.4395 16.9999H1.1855L7.1775 7.21387ZM8.4095 13.1779L7.8075 9.45387L5.6375 13.1779H8.4095ZM15.206 20.2199C14.758 20.2199 14.3146 20.1779 13.876 20.0939C13.4373 20.0099 13.0826 19.8979 12.812 19.7579L13.134 18.2039C13.778 18.5212 14.576 18.6799 15.528 18.6799C16.2746 18.6799 16.844 18.5259 17.236 18.2179C17.6373 17.9099 17.9033 17.4479 18.034 16.8319L18.118 16.4119C17.754 16.6826 17.3713 16.8832 16.97 17.0139C16.578 17.1446 16.102 17.2099 15.542 17.2099C15.0006 17.2099 14.506 17.0932 14.058 16.8599C13.6193 16.6266 13.2693 16.2999 13.008 15.8799C12.756 15.4506 12.63 14.9606 12.63 14.4099C12.63 14.1579 12.658 13.9012 12.714 13.6399C12.938 12.5386 13.428 11.6706 14.184 11.0359C14.94 10.3919 15.8873 10.0699 17.026 10.0699C17.5486 10.0699 17.992 10.1446 18.356 10.2939C18.7293 10.4432 19.056 10.6812 19.336 11.0079L19.504 10.2799H21.548L20.204 16.5659C19.952 17.7606 19.434 18.6659 18.65 19.2819C17.8753 19.9072 16.7273 20.2199 15.206 20.2199ZM16.396 15.5719C16.8346 15.5719 17.2546 15.4552 17.656 15.2219C18.0573 14.9792 18.3653 14.6619 18.58 14.2699L18.846 13.0099C18.7806 12.6179 18.6033 12.3052 18.314 12.0719C18.0246 11.8386 17.6606 11.7219 17.222 11.7219C16.6526 11.7219 16.1486 11.8946 15.71 12.2399C15.2806 12.5852 15.0053 13.0472 14.884 13.6259C14.8373 13.8592 14.814 14.0552 14.814 14.2139C14.814 14.6432 14.9446 14.9792 15.206 15.2219C15.4673 15.4552 15.864 15.5719 16.396 15.5719Z" fill="white"/>
</svg>
