<svg width="24" height="24" viewBox="0 0 24 24" fill="none" xmlns="http://www.w3.org/2000/svg">
<path d="M12.7521 16.0001H10.4841L9.91012 14.4181H5.90612L5.31812 16.0001H3.05012L6.66212 6.66211H9.15412L12.7521 16.0001ZM9.36412 12.6681L7.90812 8.65011L6.45212 12.6681H9.36412ZM16.3444 18.7441C15.1778 18.7441 14.2071 18.4081 13.4324 17.7361L14.2304 16.4481C14.7344 17.0081 15.4391 17.2881 16.3444 17.2881C16.8484 17.2881 17.2824 17.1528 17.6464 16.8821C18.0198 16.6208 18.2064 16.1868 18.2064 15.5801V14.8941C17.6464 15.6034 16.9511 15.9581 16.1204 15.9581C15.2431 15.9581 14.5244 15.6594 13.9644 15.0621C13.4138 14.4554 13.1384 13.6061 13.1384 12.5141C13.1384 11.4314 13.4138 10.5868 13.9644 9.98011C14.5244 9.37344 15.2431 9.07011 16.1204 9.07011C16.9604 9.07011 17.6558 9.41544 18.2064 10.1061V9.23811H19.9984V15.5381C19.9984 16.1541 19.8864 16.6814 19.6624 17.1201C19.4478 17.5588 19.1538 17.8901 18.7804 18.1141C18.4071 18.3381 18.0198 18.4968 17.6184 18.5901C17.2264 18.6928 16.8018 18.7441 16.3444 18.7441ZM16.6804 14.3761C16.9698 14.3761 17.2591 14.3014 17.5484 14.1521C17.8378 14.0028 18.0571 13.8208 18.2064 13.6061V11.4221C18.0571 11.1981 17.8378 11.0161 17.5484 10.8761C17.2684 10.7268 16.9791 10.6521 16.6804 10.6521C16.1671 10.6521 15.7518 10.8201 15.4344 11.1561C15.1264 11.4921 14.9724 11.9448 14.9724 12.5141C14.9724 13.0834 15.1264 13.5361 15.4344 13.8721C15.7518 14.2081 16.1671 14.3761 16.6804 14.3761Z" fill="white"/>
</svg>
