<svg width="24" height="24" viewBox="0 0 24 24" fill="none" xmlns="http://www.w3.org/2000/svg">
<path d="M10.533 16.0001H9.48303L9.58103 13.8581H7.57903L6.73903 16.0001H5.63303L9.52503 6.66211H10.743L10.533 16.0001ZM9.65103 12.9201L9.88903 7.92211L7.91503 12.9201H9.65103ZM12.7219 18.7441C11.9099 18.7441 11.2939 18.4828 10.8739 17.9601L11.4479 17.2041C11.7279 17.6614 12.1526 17.8901 12.7219 17.8901C13.4313 17.8901 13.9073 17.3488 14.1499 16.2661L14.4579 15.0201C14.0566 15.7108 13.5806 16.0561 13.0299 16.0561C12.6099 16.0561 12.2739 15.8974 12.0219 15.5801C11.7793 15.2534 11.6579 14.7634 11.6579 14.1101C11.6579 13.6714 11.7093 13.1814 11.8119 12.6401C11.9239 12.0894 12.0779 11.5434 12.2739 11.0021C12.4699 10.4514 12.7453 9.99411 13.0999 9.63011C13.4546 9.25678 13.8513 9.07011 14.2899 9.07011C14.5513 9.07011 14.8033 9.17278 15.0459 9.37811C15.2979 9.58344 15.4566 9.85878 15.5219 10.2041L15.7319 9.23811H16.6699L15.1299 16.1681C14.9246 17.0921 14.6213 17.7501 14.2199 18.1421C13.8186 18.5434 13.3193 18.7441 12.7219 18.7441ZM13.4359 15.2161C13.6599 15.2161 13.8793 15.1088 14.0939 14.8941C14.3179 14.6701 14.4999 14.3994 14.6399 14.0821L15.3259 11.0581C15.2979 10.7688 15.1953 10.5074 15.0179 10.2741C14.8499 10.0408 14.6493 9.92411 14.4159 9.92411C14.1453 9.92411 13.8933 10.0734 13.6599 10.3721C13.4266 10.6708 13.2399 11.0394 13.0999 11.4781C12.9599 11.9168 12.8479 12.3601 12.7639 12.8081C12.6893 13.2561 12.6519 13.6481 12.6519 13.9841C12.6519 14.8054 12.9133 15.2161 13.4359 15.2161Z" fill="white"/>
</svg>
