<svg width="24" height="24" viewBox="0 0 24 24" fill="none" xmlns="http://www.w3.org/2000/svg">
<path d="M12.3236 16.0001H11.3996L10.4756 13.7041H5.53359L4.60959 16.0001H3.68559L7.50759 6.66211H8.50159L12.3236 16.0001ZM10.2096 12.9761L7.99759 7.51611L5.79959 12.9761H10.2096ZM16.348 18.7441C15.76 18.7441 15.2654 18.6694 14.864 18.5201C14.4627 18.3801 14.0707 18.1141 13.688 17.7221L14.108 17.1621C14.3974 17.5074 14.7147 17.7501 15.06 17.8901C15.4054 18.0394 15.8347 18.1141 16.348 18.1141C17.02 18.1141 17.5707 17.9321 18 17.5681C18.4387 17.2134 18.658 16.6721 18.658 15.9441V14.8801C18.406 15.2441 18.07 15.5474 17.65 15.7901C17.2394 16.0234 16.7914 16.1401 16.306 16.1401C15.4007 16.1401 14.668 15.8228 14.108 15.1881C13.5574 14.5441 13.282 13.6854 13.282 12.6121C13.282 11.5481 13.562 10.6941 14.122 10.0501C14.682 9.39678 15.41 9.07011 16.306 9.07011C17.2767 9.07011 18.0607 9.49011 18.658 10.3301V9.23811H19.4V15.9301C19.4 16.9008 19.1154 17.6101 18.546 18.0581C17.986 18.5154 17.2534 18.7441 16.348 18.7441ZM16.432 15.4821C16.8894 15.4821 17.3234 15.3654 17.734 15.1321C18.1447 14.8894 18.4527 14.5954 18.658 14.2501V10.9601C18.4527 10.6148 18.1447 10.3254 17.734 10.0921C17.3234 9.84944 16.8894 9.72811 16.432 9.72811C15.704 9.72811 15.1254 9.99878 14.696 10.5401C14.276 11.0814 14.066 11.7721 14.066 12.6121C14.066 13.4521 14.276 14.1428 14.696 14.6841C15.1254 15.2161 15.704 15.4821 16.432 15.4821Z" fill="white"/>
</svg>
