<svg width="24" height="24" viewBox="0 0 24 24" fill="none" xmlns="http://www.w3.org/2000/svg">
<path d="M12.459 16.0001H11.129L10.303 13.9281H5.65505L4.82905 16.0001H3.49905L7.25105 6.66211H8.69305L12.459 16.0001ZM9.95305 12.8921L7.97905 7.86611L5.99105 12.8921H9.95305ZM16.3539 18.7441C15.7566 18.7441 15.2479 18.6694 14.8279 18.5201C14.4079 18.3801 14.0066 18.1188 13.6239 17.7361L14.1559 16.9521C14.6692 17.5681 15.4019 17.8761 16.3539 17.8761C16.9792 17.8761 17.4972 17.7081 17.9079 17.3721C18.3186 17.0454 18.5239 16.5368 18.5239 15.8461V14.8801C18.2719 15.2348 17.9452 15.5241 17.5439 15.7481C17.1426 15.9721 16.7132 16.0841 16.2559 16.0841C15.3599 16.0841 14.6319 15.7714 14.0719 15.1461C13.5212 14.5114 13.2459 13.6574 13.2459 12.5841C13.2459 11.5108 13.5212 10.6568 14.0719 10.0221C14.6319 9.38744 15.3599 9.07011 16.2559 9.07011C17.1799 9.07011 17.9359 9.46678 18.5239 10.2601V9.23811H19.5739V15.8041C19.5739 16.8401 19.2706 17.5868 18.6639 18.0441C18.0572 18.5108 17.2872 18.7441 16.3539 18.7441ZM16.5079 15.1601C16.9092 15.1601 17.2966 15.0528 17.6699 14.8381C18.0526 14.6234 18.3372 14.3621 18.5239 14.0541V11.1001C18.3372 10.7921 18.0572 10.5354 17.6839 10.3301C17.3106 10.1154 16.9186 10.0081 16.5079 10.0081C15.8359 10.0081 15.3039 10.2461 14.9119 10.7221C14.5292 11.1981 14.3379 11.8188 14.3379 12.5841C14.3379 13.3401 14.5339 13.9608 14.9259 14.4461C15.3179 14.9221 15.8452 15.1601 16.5079 15.1601Z" fill="white"/>
</svg>
