<svg width="24" height="24" viewBox="0 0 24 24" fill="none" xmlns="http://www.w3.org/2000/svg">
<path d="M9.6084 13.6826H6.2041L5.55469 16H3.53809L6.72363 5.98535H9.63574L12.8145 16H10.2646L9.6084 13.6826ZM9.23242 12.2949L8.30957 9L7.96777 7.49609H7.83105L7.49609 9L6.57324 12.2949H9.23242ZM16.3486 16.6768C16.2712 16.7314 16.1937 16.7884 16.1162 16.8477C16.0387 16.9069 15.9681 16.9707 15.9043 17.0391C15.8451 17.1074 15.7949 17.1803 15.7539 17.2578C15.7174 17.3398 15.6992 17.4264 15.6992 17.5176C15.6992 17.75 15.8291 17.9437 16.0889 18.0986C16.3532 18.2536 16.7383 18.3311 17.2441 18.3311C17.5449 18.3311 17.8092 18.3014 18.0371 18.2422C18.265 18.1875 18.4541 18.1123 18.6045 18.0166C18.7594 17.9255 18.8757 17.8206 18.9531 17.7021C19.0306 17.5837 19.0693 17.4629 19.0693 17.3398C19.0693 17.1348 18.9691 16.973 18.7686 16.8545C18.568 16.736 18.2878 16.6768 17.9277 16.6768H16.3486ZM15.1934 16.5332C14.806 16.401 14.5098 16.2347 14.3047 16.0342C14.1042 15.8382 14.0039 15.6195 14.0039 15.3779C14.0039 15.2184 14.0495 15.0703 14.1406 14.9336C14.2318 14.7969 14.3503 14.6693 14.4961 14.5508C14.6419 14.4277 14.806 14.3138 14.9883 14.209C15.1751 14.0996 15.3643 13.9925 15.5557 13.8877C15.2139 13.7646 14.929 13.6143 14.7012 13.4365C14.4779 13.2542 14.2979 13.0583 14.1611 12.8486C14.0244 12.639 13.9264 12.4202 13.8672 12.1924C13.8125 11.9645 13.7852 11.7412 13.7852 11.5225C13.7852 11.0941 13.8786 10.7021 14.0654 10.3467C14.2568 9.98665 14.5166 9.67904 14.8447 9.42383C15.1729 9.16862 15.5557 8.97038 15.9932 8.8291C16.4307 8.68783 16.8978 8.61719 17.3945 8.61719C17.5723 8.61719 17.75 8.62858 17.9277 8.65137C18.11 8.6696 18.2855 8.69694 18.4541 8.7334C18.6227 8.76986 18.7822 8.81771 18.9326 8.87695C19.083 8.93164 19.2174 8.99544 19.3359 9.06836C19.4043 9.0319 19.4818 8.99544 19.5684 8.95898C19.6549 8.91797 19.7529 8.88379 19.8623 8.85645C19.9717 8.82454 20.097 8.79948 20.2383 8.78125C20.3796 8.76302 20.5391 8.75391 20.7168 8.75391H21.7559L21.4209 10.2236H20.2246C20.2839 10.3193 20.3477 10.4561 20.416 10.6338C20.4844 10.807 20.5186 11.0166 20.5186 11.2627C20.5186 11.6637 20.4229 12.0352 20.2314 12.377C20.04 12.7142 19.7826 13.0059 19.459 13.252C19.14 13.498 18.7708 13.6917 18.3516 13.833C17.9323 13.9697 17.4948 14.0381 17.0391 14.0381C16.9844 14.0381 16.9274 14.0381 16.8682 14.0381C16.8135 14.0335 16.7565 14.029 16.6973 14.0244C16.6426 14.0563 16.5856 14.0928 16.5264 14.1338C16.4671 14.1748 16.4102 14.2227 16.3555 14.2773C16.3053 14.3275 16.262 14.3844 16.2256 14.4482C16.1937 14.5075 16.1777 14.5713 16.1777 14.6396C16.1777 14.7673 16.2324 14.8721 16.3418 14.9541C16.4557 15.0361 16.6175 15.0771 16.8271 15.0771H18.4951C18.8232 15.0771 19.1491 15.1113 19.4727 15.1797C19.8008 15.248 20.0924 15.3551 20.3477 15.501C20.6074 15.6468 20.8171 15.8337 20.9766 16.0615C21.1406 16.2894 21.2227 16.5628 21.2227 16.8818C21.2227 17.21 21.1292 17.5472 20.9424 17.8936C20.7555 18.2399 20.473 18.5544 20.0947 18.8369C19.721 19.1195 19.2516 19.3496 18.6865 19.5273C18.1214 19.7096 17.4629 19.8008 16.7109 19.8008C16.2552 19.8008 15.8337 19.7643 15.4463 19.6914C15.0589 19.623 14.7217 19.5205 14.4346 19.3838C14.152 19.2516 13.931 19.0876 13.7715 18.8916C13.612 18.7002 13.5322 18.4837 13.5322 18.2422C13.5322 18.0417 13.5824 17.8571 13.6826 17.6885C13.7874 17.5244 13.9196 17.3717 14.0791 17.2305C14.2386 17.0938 14.4163 16.9684 14.6123 16.8545C14.8128 16.7406 15.0065 16.6335 15.1934 16.5332ZM15.8975 11.29C15.8975 11.4997 15.9316 11.6911 16 11.8643C16.0684 12.0329 16.1618 12.1787 16.2803 12.3018C16.4033 12.4248 16.5446 12.5205 16.7041 12.5889C16.8636 12.6572 17.0345 12.6914 17.2168 12.6914C17.39 12.6914 17.5518 12.6618 17.7021 12.6025C17.8571 12.5387 17.9915 12.4499 18.1055 12.3359C18.224 12.2174 18.3151 12.0762 18.3789 11.9121C18.4473 11.748 18.4814 11.5635 18.4814 11.3584C18.4814 11.1533 18.4473 10.9665 18.3789 10.7979C18.3105 10.6247 18.2148 10.4766 18.0918 10.3535C17.9733 10.2305 17.8343 10.137 17.6748 10.0732C17.5153 10.0049 17.3444 9.9707 17.1621 9.9707C16.9889 9.9707 16.8249 10.0026 16.6699 10.0664C16.5195 10.1257 16.3851 10.2122 16.2666 10.3262C16.1527 10.4401 16.0615 10.5791 15.9932 10.7432C15.9294 10.9027 15.8975 11.085 15.8975 11.29Z" fill="white"/>
</svg>
