<svg width="24" height="24" viewBox="0 0 24 24" fill="none" xmlns="http://www.w3.org/2000/svg">
<path d="M9.80867 14.8299H6.79867L6.05667 16.9999H4.13867L7.66667 7.12988H9.08067L12.6087 16.9999H10.5927L9.80867 14.8299ZM7.28867 13.2899H9.38867L8.66067 11.1059L8.36667 9.56588H8.29667L8.00267 11.1199L7.28867 13.2899ZM19.0755 16.9999C19.0755 18.0172 18.8001 18.7639 18.2495 19.2399C17.6988 19.7252 16.9288 19.9679 15.9395 19.9679C15.2675 19.9679 14.7355 19.9212 14.3435 19.8279C13.9608 19.7346 13.6715 19.6366 13.4755 19.5339L13.8535 18.0919C14.0681 18.1759 14.3155 18.2599 14.5955 18.3439C14.8848 18.4279 15.2395 18.4699 15.6595 18.4699C16.2941 18.4699 16.7235 18.3299 16.9475 18.0499C17.1808 17.7792 17.2975 17.3966 17.2975 16.9019V16.4539H17.2415C16.9148 16.8926 16.3361 17.1119 15.5055 17.1119C14.6001 17.1119 13.9235 16.8319 13.4755 16.2719C13.0368 15.7119 12.8175 14.8346 12.8175 13.6399C12.8175 12.3892 13.1161 11.4419 13.7135 10.7979C14.3108 10.1539 15.1788 9.83188 16.3175 9.83188C16.9148 9.83188 17.4468 9.87388 17.9135 9.95788C18.3895 10.0419 18.7768 10.1399 19.0755 10.2519V16.9999ZM15.9955 15.6559C16.3501 15.6559 16.6208 15.5766 16.8075 15.4179C17.0035 15.2592 17.1528 15.0212 17.2555 14.7039V11.5539C16.9661 11.4326 16.6068 11.3719 16.1775 11.3719C15.7108 11.3719 15.3468 11.5492 15.0855 11.9039C14.8241 12.2492 14.6935 12.8046 14.6935 13.5699C14.6935 14.2512 14.8055 14.7692 15.0295 15.1239C15.2535 15.4786 15.5755 15.6559 15.9955 15.6559Z" fill="white"/>
</svg>
