<svg width="24" height="24" viewBox="0 0 24 24" fill="none" xmlns="http://www.w3.org/2000/svg">
<path d="M2.32639 16.9999L5.92439 6.87793H8.39539L12.0004 16.9999H9.63439L8.88539 14.8439H5.46939L4.70639 16.9999H2.32639ZM5.98739 12.7929H8.33939L7.17039 9.16693L5.98739 12.7929ZM16.4196 19.3939C15.0616 19.3939 14.0396 19.2306 13.3536 18.9039C12.6722 18.5819 12.3316 18.1712 12.3316 17.6719C12.3316 17.4292 12.3969 17.2286 12.5276 17.0699C12.6582 16.9112 12.8122 16.7852 12.9896 16.6919C13.1716 16.5986 13.3349 16.5309 13.4796 16.4889C13.6289 16.4422 13.7199 16.4119 13.7526 16.3979C13.6826 16.3606 13.5706 16.2999 13.4166 16.2159C13.2626 16.1319 13.1202 16.0129 12.9896 15.8589C12.8636 15.7049 12.8006 15.5042 12.8006 15.2569C12.8006 14.9816 12.9289 14.7296 13.1856 14.5009C13.4469 14.2676 13.8412 14.1112 14.3686 14.0319C13.8692 13.8032 13.4936 13.4906 13.2416 13.0939C12.9896 12.6972 12.8636 12.3029 12.8636 11.9109C12.8636 11.4302 13.0222 11.0219 13.3396 10.6859C13.6616 10.3452 14.0909 10.0886 14.6276 9.91593C15.1689 9.7386 15.7662 9.64993 16.4196 9.64993C16.9282 9.64993 17.3412 9.7036 17.6586 9.81093C17.9759 9.9136 18.2699 10.0419 18.5406 10.1959C18.6619 10.1492 18.8136 10.0909 18.9956 10.0209C19.1776 9.94626 19.3736 9.86926 19.5836 9.78993C19.7982 9.70593 20.0082 9.62193 20.2136 9.53793C20.4236 9.44926 20.6172 9.36993 20.7946 9.29993L20.7806 11.0569L19.5416 11.2389C19.5789 11.3556 19.6069 11.4792 19.6256 11.6099C19.6489 11.7359 19.6606 11.8339 19.6606 11.9039C19.6606 12.3146 19.5322 12.7066 19.2756 13.0799C19.0189 13.4532 18.6386 13.7589 18.1346 13.9969C17.6306 14.2302 17.0076 14.3469 16.2656 14.3469C16.1676 14.3469 16.0299 14.3446 15.8526 14.3399C15.6752 14.3306 15.5329 14.3212 15.4256 14.3119C15.2529 14.3259 15.1316 14.3516 15.0616 14.3889C14.9962 14.4216 14.9636 14.4659 14.9636 14.5219C14.9636 14.6292 15.0686 14.6969 15.2786 14.7249C15.4886 14.7482 15.7896 14.7739 16.1816 14.8019C16.3216 14.8066 16.5222 14.8159 16.7836 14.8299C17.0496 14.8439 17.3389 14.8626 17.6516 14.8859C18.5989 14.9512 19.2966 15.1799 19.7446 15.5719C20.1926 15.9639 20.4166 16.4422 20.4166 17.0069C20.4166 17.6976 20.0829 18.2669 19.4156 18.7149C18.7482 19.1676 17.7496 19.3939 16.4196 19.3939ZM16.7976 18.1059C17.3156 18.1059 17.6702 18.0499 17.8616 17.9379C18.0529 17.8259 18.1486 17.6719 18.1486 17.4759C18.1486 17.2892 18.0622 17.1376 17.8896 17.0209C17.7169 16.9042 17.4719 16.8366 17.1546 16.8179L15.6706 16.7199C15.4326 16.7059 15.2389 16.7316 15.0896 16.7969C14.9402 16.8622 14.8282 16.9486 14.7536 17.0559C14.6836 17.1632 14.6486 17.2752 14.6486 17.3919C14.6486 17.6579 14.8236 17.8422 15.1736 17.9449C15.5236 18.0522 16.0649 18.1059 16.7976 18.1059ZM16.3356 13.0589C16.6576 13.0589 16.9166 12.9609 17.1126 12.7649C17.3132 12.5689 17.4136 12.3099 17.4136 11.9879C17.4136 11.6612 17.3132 11.3906 17.1126 11.1759C16.9166 10.9612 16.6576 10.8539 16.3356 10.8539C16.0136 10.8539 15.7522 10.9636 15.5516 11.1829C15.3556 11.3976 15.2576 11.6659 15.2576 11.9879C15.2576 12.3052 15.3556 12.5642 15.5516 12.7649C15.7476 12.9609 16.0089 13.0589 16.3356 13.0589Z" fill="white"/>
</svg>
