<svg width="24" height="24" viewBox="0 0 24 24" fill="none" xmlns="http://www.w3.org/2000/svg">
<path d="M2.87299 16.9999L6.53399 6.87793H7.99699L11.658 16.9999H10.335L9.34099 14.2279H5.20399L4.18899 16.9999H2.87299ZM5.53299 13.0379H8.99799L7.27599 8.15893L5.53299 13.0379ZM16.1357 19.3939C14.997 19.3939 14.1104 19.2282 13.4757 18.8969C12.8457 18.5702 12.5307 18.1012 12.5307 17.4899C12.5307 17.2286 12.5914 17.0069 12.7127 16.8249C12.834 16.6382 12.9787 16.4842 13.1467 16.3629C13.3147 16.2416 13.471 16.1459 13.6157 16.0759C13.7604 16.0012 13.8537 15.9476 13.8957 15.9149C13.8164 15.8682 13.716 15.8099 13.5947 15.7399C13.478 15.6699 13.3754 15.5766 13.2867 15.4599C13.198 15.3432 13.1537 15.1916 13.1537 15.0049C13.1537 14.7762 13.261 14.5662 13.4757 14.3749C13.6904 14.1836 14.0077 14.0412 14.4277 13.9479C14.003 13.7332 13.6717 13.4486 13.4337 13.0939C13.1957 12.7392 13.0767 12.3542 13.0767 11.9389C13.0767 11.4722 13.2027 11.0662 13.4547 10.7209C13.7114 10.3756 14.0754 10.1119 14.5467 9.92993C15.018 9.74326 15.578 9.64993 16.2267 9.64993C16.698 9.64993 17.0947 9.70593 17.4167 9.81793C17.7387 9.92526 18.0374 10.0792 18.3127 10.2799C18.3874 10.2472 18.504 10.1982 18.6627 10.1329C18.826 10.0629 19.0057 9.98826 19.2017 9.90893C19.3977 9.8296 19.5797 9.75493 19.7477 9.68493C19.9204 9.61026 20.058 9.55426 20.1607 9.51693L20.1537 10.7139L18.8867 10.9519C18.9567 11.1012 19.0127 11.2646 19.0547 11.4419C19.1014 11.6192 19.1247 11.7849 19.1247 11.9389C19.1247 12.3636 19.0127 12.7486 18.7887 13.0939C18.5694 13.4392 18.2357 13.7146 17.7877 13.9199C17.3397 14.1252 16.7797 14.2279 16.1077 14.2279C16.0517 14.2279 15.9794 14.2279 15.8907 14.2279C15.8067 14.2232 15.7344 14.2186 15.6737 14.2139C15.179 14.2279 14.8384 14.2839 14.6517 14.3819C14.465 14.4752 14.3717 14.5802 14.3717 14.6969C14.3717 14.8322 14.4767 14.9256 14.6867 14.9769C14.8967 15.0282 15.2537 15.0726 15.7577 15.1099C15.9397 15.1192 16.1637 15.1309 16.4297 15.1449C16.7004 15.1589 16.999 15.1776 17.3257 15.2009C18.0864 15.2476 18.672 15.4412 19.0827 15.7819C19.4934 16.1226 19.6987 16.5822 19.6987 17.1609C19.6987 17.8189 19.4047 18.3556 18.8167 18.7709C18.2287 19.1862 17.335 19.3939 16.1357 19.3939ZM16.3667 18.5609C17.034 18.5609 17.545 18.4606 17.8997 18.2599C18.2544 18.0592 18.4317 17.7559 18.4317 17.3499C18.4317 17.0606 18.322 16.8249 18.1027 16.6429C17.888 16.4562 17.559 16.3489 17.1157 16.3209L15.0857 16.1879C14.9037 16.1786 14.7147 16.2252 14.5187 16.3279C14.3227 16.4259 14.1547 16.5636 14.0147 16.7409C13.8794 16.9182 13.8117 17.1189 13.8117 17.3429C13.8117 17.7256 14.0194 18.0242 14.4347 18.2389C14.8547 18.4536 15.4987 18.5609 16.3667 18.5609ZM16.1427 13.3949C16.6654 13.3949 17.0854 13.2736 17.4027 13.0309C17.7247 12.7882 17.8857 12.4289 17.8857 11.9529C17.8857 11.4629 17.7247 11.0896 17.4027 10.8329C17.0854 10.5762 16.6654 10.4479 16.1427 10.4479C15.6154 10.4479 15.1884 10.5786 14.8617 10.8399C14.5397 11.0966 14.3787 11.4676 14.3787 11.9529C14.3787 12.4102 14.5327 12.7649 14.8407 13.0169C15.1487 13.2689 15.5827 13.3949 16.1427 13.3949Z" fill="white"/>
</svg>
