<svg width="24" height="24" viewBox="0 0 24 24" fill="none" xmlns="http://www.w3.org/2000/svg">
<path d="M3.43802 16.9999L8.33802 6.87793H9.56302L11.551 16.9999H10.466L9.91302 14.1159H5.91602L4.51602 16.9999H3.43802ZM6.35002 13.0799H9.76602L8.80702 7.96993L6.35002 13.0799ZM15.6072 19.3939C14.5572 19.3939 13.7569 19.2236 13.2062 18.8829C12.6555 18.5469 12.4222 18.0569 12.5062 17.4129C12.5389 17.1562 12.6229 16.9369 12.7582 16.7549C12.8935 16.5682 13.0475 16.4119 13.2202 16.2859C13.3929 16.1599 13.5515 16.0596 13.6962 15.9849C13.8409 15.9056 13.9412 15.8472 13.9972 15.8099C13.9272 15.7632 13.8432 15.7049 13.7452 15.6349C13.6519 15.5649 13.5725 15.4739 13.5072 15.3619C13.4419 15.2452 13.4209 15.0959 13.4442 14.9139C13.4722 14.7086 13.5935 14.5172 13.8082 14.3399C14.0229 14.1626 14.3332 14.0226 14.7392 13.9199C14.3845 13.7099 14.1162 13.4299 13.9342 13.0799C13.7569 12.7252 13.6962 12.3332 13.7522 11.9039C13.8129 11.4559 13.9739 11.0616 14.2352 10.7209C14.5012 10.3802 14.8605 10.1166 15.3132 9.92993C15.7659 9.74326 16.3072 9.64993 16.9372 9.64993C17.3899 9.64993 17.7585 9.70593 18.0432 9.81793C18.3325 9.92993 18.5892 10.0886 18.8132 10.2939C18.8879 10.2612 19.0045 10.2122 19.1632 10.1469C19.3265 10.0816 19.5039 10.0092 19.6952 9.92993C19.8865 9.8506 20.0662 9.77593 20.2342 9.70593C20.4022 9.63593 20.5282 9.58226 20.6122 9.54493L20.4792 10.6439L19.2332 10.9169C19.3545 11.2576 19.3919 11.6122 19.3452 11.9809C19.2892 12.4009 19.1375 12.7789 18.8902 13.1149C18.6429 13.4509 18.3022 13.7169 17.8682 13.9129C17.4342 14.1042 16.9069 14.1999 16.2862 14.1999C16.2302 14.1999 16.1672 14.1999 16.0972 14.1999C16.0319 14.1952 15.9782 14.1929 15.9362 14.1929C15.4089 14.2022 15.0402 14.2582 14.8302 14.3609C14.6202 14.4636 14.5059 14.5779 14.4872 14.7039C14.4825 14.8486 14.5712 14.9536 14.7532 15.0189C14.9399 15.0796 15.2642 15.1286 15.7262 15.1659C15.9082 15.1799 16.1252 15.1939 16.3772 15.2079C16.6339 15.2219 16.9115 15.2406 17.2102 15.2639C17.9009 15.3059 18.4189 15.4972 18.7642 15.8379C19.1095 16.1739 19.2425 16.6359 19.1632 17.2239C19.0745 17.8679 18.7362 18.3906 18.1482 18.7919C17.5602 19.1932 16.7132 19.3939 15.6072 19.3939ZM15.8382 18.6449C16.5009 18.6449 17.0305 18.5306 17.4272 18.3019C17.8239 18.0779 18.0502 17.7396 18.1062 17.2869C18.1482 16.9882 18.0759 16.7432 17.8892 16.5519C17.7072 16.3606 17.4015 16.2509 16.9722 16.2229L14.9912 16.0899C14.8279 16.0759 14.6412 16.1249 14.4312 16.2369C14.2212 16.3442 14.0322 16.4959 13.8642 16.6919C13.7009 16.8832 13.6005 17.1049 13.5632 17.3569C13.5119 17.7536 13.6705 18.0662 14.0392 18.2949C14.4079 18.5282 15.0075 18.6449 15.8382 18.6449ZM16.3562 13.4579C16.8882 13.4579 17.3339 13.3296 17.6932 13.0729C18.0525 12.8116 18.2649 12.4242 18.3302 11.9109C18.4002 11.4022 18.2952 11.0196 18.0152 10.7629C17.7352 10.5016 17.3385 10.3709 16.8252 10.3709C16.2885 10.3709 15.8359 10.5086 15.4672 10.7839C15.0985 11.0592 14.8792 11.4606 14.8092 11.9879C14.7439 12.4592 14.8442 12.8232 15.1102 13.0799C15.3809 13.3319 15.7962 13.4579 16.3562 13.4579Z" fill="white"/>
</svg>
