<svg width="24" height="24" viewBox="0 0 24 24" fill="none" xmlns="http://www.w3.org/2000/svg">
<path d="M8.63935 6.69043L11.0474 13.0464C11.1314 13.2797 11.206 13.4757 11.2714 13.6344C11.3367 13.7931 11.388 13.9284 11.4254 14.0404C11.472 14.1524 11.5094 14.2457 11.5374 14.3204C11.5747 14.3857 11.6074 14.4464 11.6354 14.5024C11.7474 14.7357 11.8594 14.9177 11.9714 15.0484C12.0927 15.1697 12.2094 15.2631 12.3214 15.3284C12.4427 15.3844 12.564 15.4171 12.6854 15.4264C12.8067 15.4357 12.928 15.4404 13.0494 15.4404L13.1194 15.4964L13.1614 16.0284L13.1334 16.0844C13.068 16.0844 12.97 16.0797 12.8394 16.0704C12.7087 16.0611 12.5734 16.0517 12.4334 16.0424C12.2934 16.0331 12.158 16.0237 12.0274 16.0144C11.906 16.0051 11.8127 16.0004 11.7474 16.0004H10.7254C10.66 16.0004 10.5527 16.0051 10.4034 16.0144C10.254 16.0237 10.0954 16.0331 9.92735 16.0424C9.76869 16.0517 9.61469 16.0611 9.46535 16.0704C9.31602 16.0797 9.20868 16.0844 9.14334 16.0844L9.11535 16.0284L9.15734 15.4964L9.21335 15.4404C9.45602 15.4404 9.63802 15.4124 9.75935 15.3564C9.89002 15.2911 9.95535 15.1231 9.95535 14.8524C9.95535 14.7031 9.92735 14.4931 9.87135 14.2224C9.82469 13.9424 9.70801 13.5971 9.52135 13.1864L9.22735 12.5144H6.77734L6.49735 13.1864C6.32935 13.5971 6.20335 13.9471 6.11934 14.2364C6.03534 14.5257 5.99335 14.7311 5.99335 14.8524C5.99335 15.0764 6.04001 15.2304 6.13334 15.3144C6.22668 15.3984 6.39469 15.4404 6.63735 15.4404L6.70734 15.4964L6.74935 16.0284L6.72135 16.0844C6.65602 16.0844 6.55335 16.0797 6.41335 16.0704C6.27334 16.0611 6.12402 16.0517 5.96535 16.0424C5.81602 16.0331 5.67135 16.0237 5.53135 16.0144C5.39135 16.0051 5.28868 16.0004 5.22335 16.0004H4.39734C4.33201 16.0004 4.23402 16.0051 4.10335 16.0144C3.97268 16.0237 3.83735 16.0331 3.69735 16.0424C3.55735 16.0517 3.42201 16.0611 3.29134 16.0704C3.17001 16.0797 3.07667 16.0844 3.01134 16.0844L2.99734 16.0284L3.02535 15.4964L3.09535 15.4404C3.21668 15.4404 3.33802 15.4311 3.45935 15.4124C3.58068 15.3937 3.70201 15.3517 3.82334 15.2864C3.94467 15.2211 4.06134 15.1324 4.17334 15.0204C4.29467 14.8991 4.41602 14.7451 4.53735 14.5584C4.56535 14.5024 4.60735 14.4184 4.66335 14.3064C4.71935 14.1851 4.80801 13.9751 4.92934 13.6764C5.05067 13.3777 5.21868 12.9531 5.43335 12.4024C5.64802 11.8517 5.93269 11.1191 6.28735 10.2044L7.49135 7.11043L8.48534 6.69043H8.63935ZM7.01534 11.4924H8.84935L7.95335 9.01443L7.01534 11.4924ZM14.8194 14.0964C14.3434 13.9097 13.998 13.6157 13.7834 13.2144C13.5687 12.8131 13.4614 12.3697 13.4614 11.8844C13.4614 11.5391 13.522 11.2124 13.6434 10.9044C13.7647 10.5964 13.9374 10.3304 14.1614 10.1064C14.3947 9.8731 14.67 9.6911 14.9874 9.56043C15.314 9.42976 15.6827 9.36443 16.0934 9.36443C16.336 9.36443 16.574 9.38776 16.8074 9.43443C17.05 9.4811 17.26 9.54643 17.4374 9.63043C17.8294 9.6211 18.1934 9.59776 18.5294 9.56043C18.8747 9.5231 19.1967 9.46243 19.4954 9.37843L19.5654 9.43443L19.4674 10.4844L19.3974 10.5544L18.3474 10.4424L18.3334 10.4844C18.4827 10.6524 18.5994 10.8764 18.6834 11.1564C18.7674 11.4364 18.8094 11.7024 18.8094 11.9544C18.8094 12.2624 18.7487 12.5564 18.6274 12.8364C18.5154 13.1164 18.3474 13.3637 18.1234 13.5784C17.8994 13.7837 17.6194 13.9517 17.2834 14.0824C16.9474 14.2037 16.56 14.2644 16.1214 14.2644C16.0654 14.2644 15.9907 14.2644 15.8974 14.2644C15.8134 14.2551 15.748 14.2504 15.7014 14.2504C15.5427 14.3157 15.4214 14.4044 15.3374 14.5164C15.2627 14.6284 15.2254 14.7217 15.2254 14.7964C15.2254 15.0017 15.4447 15.1324 15.8834 15.1884L17.2414 15.3284C17.5494 15.3657 17.834 15.4311 18.0954 15.5244C18.366 15.6177 18.5994 15.7437 18.7954 15.9024C19.0007 16.0517 19.1594 16.2337 19.2714 16.4484C19.3834 16.6724 19.4394 16.9291 19.4394 17.2184C19.4394 17.4891 19.3787 17.7597 19.2574 18.0304C19.136 18.3104 18.954 18.5577 18.7114 18.7724C18.4687 18.9777 18.1327 19.1457 17.7034 19.2764C17.274 19.4071 16.7794 19.4724 16.2194 19.4724C15.7154 19.4724 15.2767 19.4164 14.9034 19.3044C14.5394 19.2017 14.2314 19.0571 13.9794 18.8704C13.7367 18.6931 13.5547 18.4877 13.4334 18.2544C13.312 18.0304 13.2514 17.7971 13.2514 17.5544C13.2514 17.1624 13.3774 16.8124 13.6294 16.5044C13.8907 16.2057 14.222 15.9957 14.6234 15.8744L14.6374 15.8324C14.4134 15.7484 14.2314 15.6457 14.0914 15.5244C13.9607 15.3937 13.8954 15.2351 13.8954 15.0484C13.8954 14.8057 13.9934 14.6097 14.1894 14.4604C14.3854 14.3111 14.5954 14.2084 14.8194 14.1524V14.0964ZM16.1494 13.2984C16.336 13.2984 16.4994 13.2611 16.6394 13.1864C16.7887 13.1117 16.9147 13.0137 17.0174 12.8924C17.12 12.7711 17.1947 12.6311 17.2414 12.4724C17.2974 12.3044 17.3254 12.1317 17.3254 11.9544C17.3254 11.7677 17.2974 11.5811 17.2414 11.3944C17.1854 11.2077 17.106 11.0397 17.0034 10.8904C16.9007 10.7317 16.77 10.6057 16.6114 10.5124C16.4527 10.4097 16.2707 10.3584 16.0654 10.3584C15.8694 10.3584 15.7014 10.4051 15.5614 10.4984C15.4214 10.5824 15.3 10.6944 15.1974 10.8344C15.104 10.9744 15.034 11.1331 14.9874 11.3104C14.9407 11.4877 14.9174 11.6604 14.9174 11.8284C14.9174 12.0057 14.9407 12.1831 14.9874 12.3604C15.0434 12.5377 15.1227 12.6964 15.2254 12.8364C15.328 12.9764 15.454 13.0884 15.6034 13.1724C15.762 13.2564 15.944 13.2984 16.1494 13.2984ZM15.7014 16.3084C15.496 16.3177 15.3187 16.3551 15.1694 16.4204C15.02 16.4857 14.894 16.5697 14.7914 16.6724C14.6887 16.7844 14.6094 16.9011 14.5534 17.0224C14.5067 17.1531 14.4834 17.2791 14.4834 17.4004C14.4834 17.6711 14.6467 17.8904 14.9734 18.0584C15.3 18.2357 15.7434 18.3244 16.3034 18.3244C16.8074 18.3244 17.232 18.2404 17.5774 18.0724C17.9227 17.9137 18.0954 17.6757 18.0954 17.3584C18.0954 17.1811 18.0534 17.0364 17.9694 16.9244C17.8854 16.8124 17.7734 16.7191 17.6334 16.6444C17.4934 16.5791 17.3347 16.5277 17.1574 16.4904C16.9894 16.4531 16.8167 16.4251 16.6394 16.4064L15.7014 16.3084Z" fill="white"/>
</svg>
