<svg width="24" height="24" viewBox="0 0 24 24" fill="none" xmlns="http://www.w3.org/2000/svg">
<path d="M13.102 15.9998H11.912L10.554 12.8918H6.42395L5.19195 15.9998H4.07195L7.76795 6.75977H9.04195L13.102 15.9998ZM6.81595 11.9118H10.12L8.38395 7.93577L6.81595 11.9118ZM14.8627 14.0118C14.4147 13.8345 14.0927 13.5545 13.8967 13.1718C13.7007 12.7798 13.6027 12.3598 13.6027 11.9118C13.6027 11.5478 13.6633 11.2118 13.7847 10.9038C13.906 10.5958 14.0787 10.3251 14.3027 10.0918C14.536 9.85844 14.8113 9.67643 15.1287 9.54576C15.4553 9.41509 15.824 9.34977 16.2347 9.34977C16.4773 9.34977 16.7153 9.3731 16.9487 9.41977C17.1913 9.46644 17.4013 9.53644 17.5787 9.62977C17.9707 9.62044 18.3347 9.5971 18.6707 9.55977C19.016 9.52244 19.338 9.46177 19.6367 9.37777L19.7067 9.43377L19.6087 10.2038L19.5387 10.2738L18.2647 10.2178L18.2507 10.2598C18.4933 10.4558 18.6707 10.7125 18.7827 11.0298C18.8947 11.3471 18.9507 11.6551 18.9507 11.9538C18.9507 12.2618 18.89 12.5558 18.7687 12.8358C18.6567 13.1158 18.4887 13.3631 18.2647 13.5778C18.0407 13.7831 17.7607 13.9511 17.4247 14.0818C17.098 14.2031 16.72 14.2638 16.2907 14.2638C16.188 14.2638 16.0993 14.2638 16.0247 14.2638C15.95 14.2545 15.88 14.2498 15.8147 14.2498C15.6187 14.3151 15.4693 14.4038 15.3667 14.5158C15.2733 14.6278 15.2267 14.7211 15.2267 14.7958C15.2267 14.8891 15.2873 14.9731 15.4087 15.0478C15.5393 15.1131 15.7447 15.1598 16.0247 15.1878L17.3827 15.3278C17.6907 15.3558 17.9753 15.4211 18.2367 15.5238C18.5073 15.6171 18.7407 15.7431 18.9367 15.9018C19.1327 16.0511 19.2867 16.2331 19.3987 16.4478C19.52 16.6718 19.5807 16.9238 19.5807 17.2038C19.5807 17.4745 19.52 17.7498 19.3987 18.0298C19.2773 18.3191 19.0953 18.5665 18.8527 18.7718C18.61 18.9771 18.274 19.1451 17.8447 19.2758C17.4153 19.4065 16.9207 19.4718 16.3607 19.4718C15.8847 19.4718 15.4553 19.4205 15.0727 19.3178C14.6993 19.2245 14.382 19.0891 14.1207 18.9118C13.8687 18.7438 13.6727 18.5478 13.5327 18.3238C13.402 18.0998 13.3367 17.8618 13.3367 17.6098C13.3367 17.4231 13.374 17.2365 13.4487 17.0498C13.5233 16.8725 13.6213 16.7045 13.7427 16.5458C13.864 16.3871 14.004 16.2471 14.1627 16.1258C14.3307 16.0045 14.5033 15.9111 14.6807 15.8458V15.7898C14.298 15.6125 14.1067 15.3698 14.1067 15.0618C14.1067 14.8658 14.1767 14.6885 14.3167 14.5298C14.466 14.3711 14.648 14.2171 14.8627 14.0678V14.0118ZM16.2907 13.5638C16.552 13.5638 16.7807 13.5218 16.9767 13.4378C17.182 13.3445 17.3547 13.2278 17.4947 13.0878C17.6347 12.9385 17.742 12.7658 17.8167 12.5698C17.8913 12.3738 17.9287 12.1685 17.9287 11.9538C17.9287 11.7391 17.8913 11.5198 17.8167 11.2958C17.742 11.0718 17.63 10.8711 17.4807 10.6938C17.3407 10.5071 17.1633 10.3578 16.9487 10.2458C16.734 10.1338 16.4867 10.0778 16.2067 10.0778C15.936 10.0778 15.698 10.1338 15.4927 10.2458C15.2967 10.3485 15.1287 10.4838 14.9887 10.6518C14.858 10.8198 14.76 11.0065 14.6947 11.2118C14.6293 11.4171 14.5967 11.6225 14.5967 11.8278C14.5967 12.0425 14.6293 12.2525 14.6947 12.4578C14.7693 12.6631 14.8767 12.8498 15.0167 13.0178C15.166 13.1765 15.3433 13.3071 15.5487 13.4098C15.7633 13.5125 16.0107 13.5638 16.2907 13.5638ZM15.8427 16.0698C15.628 16.0698 15.4273 16.1118 15.2407 16.1958C15.0633 16.2798 14.9047 16.3871 14.7647 16.5178C14.634 16.6485 14.5267 16.7931 14.4427 16.9518C14.368 17.1198 14.3307 17.2831 14.3307 17.4418C14.3307 17.7965 14.5173 18.0765 14.8907 18.2818C15.2733 18.4965 15.7867 18.6038 16.4307 18.6038C16.7387 18.6038 17.0233 18.5758 17.2847 18.5198C17.5553 18.4731 17.784 18.3938 17.9707 18.2818C18.1667 18.1791 18.3207 18.0485 18.4327 17.8898C18.5447 17.7405 18.6007 17.5585 18.6007 17.3438C18.6007 16.9238 18.372 16.6205 17.9147 16.4338C17.4667 16.2565 16.776 16.1351 15.8427 16.0698Z" fill="white"/>
</svg>
