<svg width="24" height="24" viewBox="0 0 24 24" fill="none" xmlns="http://www.w3.org/2000/svg">
<path d="M6.84456 8.23557C6.75123 8.23557 6.70456 8.1889 6.70456 8.09557C6.70456 8.00224 6.75123 7.95557 6.84456 7.95557C6.9379 7.95557 6.98456 8.00224 6.98456 8.09557C6.98456 8.1889 6.9379 8.23557 6.84456 8.23557ZM6.64856 8.68357C6.55523 8.68357 6.50856 8.6369 6.50856 8.54357C6.50856 8.45024 6.55523 8.40357 6.64856 8.40357C6.7419 8.40357 6.78856 8.45024 6.78856 8.54357C6.78856 8.6369 6.7419 8.68357 6.64856 8.68357ZM7.25056 7.33957C7.15723 7.33957 7.11056 7.2929 7.11056 7.19957C7.11056 7.10624 7.15723 7.05957 7.25056 7.05957C7.3439 7.05957 7.39056 7.10624 7.39056 7.19957C7.39056 7.2929 7.3439 7.33957 7.25056 7.33957ZM6.06056 10.0276C5.96723 10.0276 5.92056 9.9809 5.92056 9.88757C5.92056 9.79424 5.96723 9.74757 6.06056 9.74757C6.1539 9.74757 6.20056 9.79424 6.20056 9.88757C6.20056 9.9809 6.1539 10.0276 6.06056 10.0276ZM5.86456 10.4756C5.77123 10.4756 5.72456 10.4289 5.72456 10.3356C5.72456 10.2423 5.77123 10.1956 5.86456 10.1956C5.9579 10.1956 6.00456 10.2423 6.00456 10.3356C6.00456 10.4289 5.9579 10.4756 5.86456 10.4756ZM6.45256 9.13157C6.35923 9.13157 6.31256 9.0849 6.31256 8.99157C6.31256 8.89824 6.35923 8.85157 6.45256 8.85157C6.5459 8.85157 6.59256 8.89824 6.59256 8.99157C6.59256 9.0849 6.5459 9.13157 6.45256 9.13157ZM6.25656 9.57957C6.16323 9.57957 6.11656 9.5329 6.11656 9.43957C6.11656 9.34624 6.16323 9.29957 6.25656 9.29957C6.3499 9.29957 6.39656 9.34624 6.39656 9.43957C6.39656 9.5329 6.3499 9.57957 6.25656 9.57957ZM5.29056 11.8196C5.19723 11.8196 5.15056 11.7729 5.15056 11.6796C5.15056 11.5863 5.19723 11.5396 5.29056 11.5396C5.3839 11.5396 5.43056 11.5863 5.43056 11.6796C5.43056 11.7729 5.3839 11.8196 5.29056 11.8196ZM5.09456 12.2676C5.00123 12.2676 4.95456 12.2209 4.95456 12.1276C4.95456 12.0343 5.00123 11.9876 5.09456 11.9876C5.1879 11.9876 5.23456 12.0343 5.23456 12.1276C5.23456 12.2209 5.1879 12.2676 5.09456 12.2676ZM5.66856 10.9236C5.57523 10.9236 5.52856 10.8769 5.52856 10.7836C5.52856 10.6903 5.57523 10.6436 5.66856 10.6436C5.7619 10.6436 5.80856 10.6903 5.80856 10.7836C5.80856 10.8769 5.7619 10.9236 5.66856 10.9236ZM5.47256 11.3716C5.37923 11.3716 5.33256 11.3249 5.33256 11.2316C5.33256 11.1383 5.37923 11.0916 5.47256 11.0916C5.5659 11.0916 5.61256 11.1383 5.61256 11.2316C5.61256 11.3249 5.5659 11.3716 5.47256 11.3716ZM4.89856 12.7156C4.80523 12.7156 4.75856 12.6689 4.75856 12.5756C4.75856 12.4823 4.80523 12.4356 4.89856 12.4356C4.9919 12.4356 5.03856 12.4823 5.03856 12.5756C5.03856 12.6689 4.9919 12.7156 4.89856 12.7156ZM4.70256 13.1636C4.60923 13.1636 4.56256 13.1169 4.56256 13.0236C4.56256 12.9303 4.60923 12.8836 4.70256 12.8836C4.7959 12.8836 4.84256 12.9303 4.84256 13.0236C4.84256 13.1169 4.7959 13.1636 4.70256 13.1636ZM7.04056 7.78757C6.94723 7.78757 6.90056 7.7409 6.90056 7.64757C6.90056 7.55424 6.94723 7.50757 7.04056 7.50757C7.1339 7.50757 7.18056 7.55424 7.18056 7.64757C7.18056 7.7409 7.1339 7.78757 7.04056 7.78757ZM4.32456 14.0596C4.23123 14.0596 4.18456 14.0129 4.18456 13.9196C4.18456 13.8263 4.23123 13.7796 4.32456 13.7796C4.4179 13.7796 4.46456 13.8263 4.46456 13.9196C4.46456 14.0129 4.4179 14.0596 4.32456 14.0596ZM4.12856 14.5076C4.03523 14.5076 3.98856 14.4609 3.98856 14.3676C3.98856 14.2743 4.03523 14.2276 4.12856 14.2276C4.2219 14.2276 4.26856 14.2743 4.26856 14.3676C4.26856 14.4609 4.2219 14.5076 4.12856 14.5076ZM3.54056 15.8516C3.44723 15.8516 3.40056 15.8049 3.40056 15.7116C3.40056 15.6183 3.44723 15.5716 3.54056 15.5716C3.6339 15.5716 3.68056 15.6183 3.68056 15.7116C3.68056 15.8049 3.6339 15.8516 3.54056 15.8516ZM3.34456 16.2996C3.25123 16.2996 3.20456 16.2529 3.20456 16.1596C3.20456 16.0663 3.25123 16.0196 3.34456 16.0196C3.4379 16.0196 3.48456 16.0663 3.48456 16.1596C3.48456 16.2529 3.4379 16.2996 3.34456 16.2996ZM3.93256 14.9556C3.83923 14.9556 3.79256 14.9089 3.79256 14.8156C3.79256 14.7223 3.83923 14.6756 3.93256 14.6756C4.0259 14.6756 4.07256 14.7223 4.07256 14.8156C4.07256 14.9089 4.0259 14.9556 3.93256 14.9556ZM3.73656 15.4036C3.64323 15.4036 3.59656 15.3569 3.59656 15.2636C3.59656 15.1703 3.64323 15.1236 3.73656 15.1236C3.8299 15.1236 3.87656 15.1703 3.87656 15.2636C3.87656 15.3569 3.8299 15.4036 3.73656 15.4036ZM3.14856 16.7476C3.05523 16.7476 3.00856 16.7009 3.00856 16.6076C3.00856 16.5143 3.05523 16.4676 3.14856 16.4676C3.2419 16.4676 3.28856 16.5143 3.28856 16.6076C3.28856 16.7009 3.2419 16.7476 3.14856 16.7476ZM2.95256 17.1956C2.85923 17.1956 2.81256 17.1489 2.81256 17.0556C2.81256 16.9623 2.85923 16.9156 2.95256 16.9156C3.0459 16.9156 3.09256 16.9623 3.09256 17.0556C3.09256 17.1489 3.0459 17.1956 2.95256 17.1956ZM4.52056 13.6116C4.42723 13.6116 4.38056 13.5649 4.38056 13.4716C4.38056 13.3783 4.42723 13.3316 4.52056 13.3316C4.6139 13.3316 4.66056 13.3783 4.66056 13.4716C4.66056 13.5649 4.6139 13.6116 4.52056 13.6116ZM5.01056 13.4996C4.91723 13.4996 4.87056 13.4529 4.87056 13.3596C4.87056 13.2663 4.91723 13.2196 5.01056 13.2196C5.1039 13.2196 5.15056 13.2663 5.15056 13.3596C5.15056 13.4529 5.1039 13.4996 5.01056 13.4996ZM5.45856 13.4996C5.36523 13.4996 5.31856 13.4529 5.31856 13.3596C5.31856 13.2663 5.36523 13.2196 5.45856 13.2196C5.5519 13.2196 5.59856 13.2663 5.59856 13.3596C5.59856 13.4529 5.5519 13.4996 5.45856 13.4996ZM5.90656 13.4996C5.81323 13.4996 5.76656 13.4529 5.76656 13.3596C5.76656 13.2663 5.81323 13.2196 5.90656 13.2196C5.9999 13.2196 6.04656 13.2663 6.04656 13.3596C6.04656 13.4529 5.9999 13.4996 5.90656 13.4996ZM6.35456 13.4996C6.26123 13.4996 6.21456 13.4529 6.21456 13.3596C6.21456 13.2663 6.26123 13.2196 6.35456 13.2196C6.4479 13.2196 6.49456 13.2663 6.49456 13.3596C6.49456 13.4529 6.4479 13.4996 6.35456 13.4996ZM6.80256 13.4996C6.70923 13.4996 6.66256 13.4529 6.66256 13.3596C6.66256 13.2663 6.70923 13.2196 6.80256 13.2196C6.8959 13.2196 6.94256 13.2663 6.94256 13.3596C6.94256 13.4529 6.8959 13.4996 6.80256 13.4996ZM7.25056 13.4996C7.15723 13.4996 7.11056 13.4529 7.11056 13.3596C7.11056 13.2663 7.15723 13.2196 7.25056 13.2196C7.3439 13.2196 7.39056 13.2663 7.39056 13.3596C7.39056 13.4529 7.3439 13.4996 7.25056 13.4996ZM7.69856 13.4996C7.60523 13.4996 7.55856 13.4529 7.55856 13.3596C7.55856 13.2663 7.60523 13.2196 7.69856 13.2196C7.7919 13.2196 7.83856 13.2663 7.83856 13.3596C7.83856 13.4529 7.7919 13.4996 7.69856 13.4996ZM8.14656 13.4996C8.05323 13.4996 8.00656 13.4529 8.00656 13.3596C8.00656 13.2663 8.05323 13.2196 8.14656 13.2196C8.2399 13.2196 8.28656 13.2663 8.28656 13.3596C8.28656 13.4529 8.2399 13.4996 8.14656 13.4996ZM8.59456 13.4996C8.50123 13.4996 8.45456 13.4529 8.45456 13.3596C8.45456 13.2663 8.50123 13.2196 8.59456 13.2196C8.6879 13.2196 8.73456 13.2663 8.73456 13.3596C8.73456 13.4529 8.6879 13.4996 8.59456 13.4996ZM9.04256 13.4996C8.94923 13.4996 8.90256 13.4529 8.90256 13.3596C8.90256 13.2663 8.94923 13.2196 9.04256 13.2196C9.1359 13.2196 9.18256 13.2663 9.18256 13.3596C9.18256 13.4529 9.1359 13.4996 9.04256 13.4996ZM9.49056 13.4996C9.39723 13.4996 9.35056 13.4529 9.35056 13.3596C9.35056 13.2663 9.39723 13.2196 9.49056 13.2196C9.5839 13.2196 9.63056 13.2663 9.63056 13.3596C9.63056 13.4529 9.5839 13.4996 9.49056 13.4996ZM7.67056 8.23557C7.57723 8.23557 7.53056 8.1889 7.53056 8.09557C7.53056 8.00224 7.57723 7.95557 7.67056 7.95557C7.7639 7.95557 7.81056 8.00224 7.81056 8.09557C7.81056 8.1889 7.7639 8.23557 7.67056 8.23557ZM7.86656 8.68357C7.77323 8.68357 7.72656 8.6369 7.72656 8.54357C7.72656 8.45024 7.77323 8.40357 7.86656 8.40357C7.9599 8.40357 8.00656 8.45024 8.00656 8.54357C8.00656 8.6369 7.9599 8.68357 7.86656 8.68357ZM8.45456 10.0276C8.36123 10.0276 8.31456 9.9809 8.31456 9.88757C8.31456 9.79424 8.36123 9.74757 8.45456 9.74757C8.5479 9.74757 8.59456 9.79424 8.59456 9.88757C8.59456 9.9809 8.5479 10.0276 8.45456 10.0276ZM8.65056 10.4756C8.55723 10.4756 8.51056 10.4289 8.51056 10.3356C8.51056 10.2423 8.55723 10.1956 8.65056 10.1956C8.7439 10.1956 8.79056 10.2423 8.79056 10.3356C8.79056 10.4289 8.7439 10.4756 8.65056 10.4756ZM8.06256 9.13157C7.96923 9.13157 7.92256 9.0849 7.92256 8.99157C7.92256 8.89824 7.96923 8.85157 8.06256 8.85157C8.1559 8.85157 8.20256 8.89824 8.20256 8.99157C8.20256 9.0849 8.1559 9.13157 8.06256 9.13157ZM8.25856 9.57957C8.16523 9.57957 8.11856 9.5329 8.11856 9.43957C8.11856 9.34624 8.16523 9.29957 8.25856 9.29957C8.3519 9.29957 8.39856 9.34624 8.39856 9.43957C8.39856 9.5329 8.3519 9.57957 8.25856 9.57957ZM9.22456 11.8196C9.13123 11.8196 9.08456 11.7729 9.08456 11.6796C9.08456 11.5863 9.13123 11.5396 9.22456 11.5396C9.3179 11.5396 9.36456 11.5863 9.36456 11.6796C9.36456 11.7729 9.3179 11.8196 9.22456 11.8196ZM9.42056 12.2676C9.32723 12.2676 9.28056 12.2209 9.28056 12.1276C9.28056 12.0343 9.32723 11.9876 9.42056 11.9876C9.5139 11.9876 9.56056 12.0343 9.56056 12.1276C9.56056 12.2209 9.5139 12.2676 9.42056 12.2676ZM8.84656 10.9236C8.75323 10.9236 8.70656 10.8769 8.70656 10.7836C8.70656 10.6903 8.75323 10.6436 8.84656 10.6436C8.9399 10.6436 8.98656 10.6903 8.98656 10.7836C8.98656 10.8769 8.9399 10.9236 8.84656 10.9236ZM9.04256 11.3716C8.94923 11.3716 8.90256 11.3249 8.90256 11.2316C8.90256 11.1383 8.94923 11.0916 9.04256 11.0916C9.1359 11.0916 9.18256 11.1383 9.18256 11.2316C9.18256 11.3249 9.1359 11.3716 9.04256 11.3716ZM9.61656 12.7156C9.52323 12.7156 9.47656 12.6689 9.47656 12.5756C9.47656 12.4823 9.52323 12.4356 9.61656 12.4356C9.7099 12.4356 9.75656 12.4823 9.75656 12.5756C9.75656 12.6689 9.7099 12.7156 9.61656 12.7156ZM9.81256 13.1636C9.71923 13.1636 9.67256 13.1169 9.67256 13.0236C9.67256 12.9303 9.71923 12.8836 9.81256 12.8836C9.9059 12.8836 9.95256 12.9303 9.95256 13.0236C9.95256 13.1169 9.9059 13.1636 9.81256 13.1636ZM7.47456 7.78757C7.38123 7.78757 7.33456 7.7409 7.33456 7.64757C7.33456 7.55424 7.38123 7.50757 7.47456 7.50757C7.5679 7.50757 7.61456 7.55424 7.61456 7.64757C7.61456 7.7409 7.5679 7.78757 7.47456 7.78757ZM10.1906 14.0596C10.0972 14.0596 10.0506 14.0129 10.0506 13.9196C10.0506 13.8263 10.0972 13.7796 10.1906 13.7796C10.2839 13.7796 10.3306 13.8263 10.3306 13.9196C10.3306 14.0129 10.2839 14.0596 10.1906 14.0596ZM10.3866 14.5076C10.2932 14.5076 10.2466 14.4609 10.2466 14.3676C10.2466 14.2743 10.2932 14.2276 10.3866 14.2276C10.4799 14.2276 10.5266 14.2743 10.5266 14.3676C10.5266 14.4609 10.4799 14.5076 10.3866 14.5076ZM10.9746 15.8516C10.8812 15.8516 10.8346 15.8049 10.8346 15.7116C10.8346 15.6183 10.8812 15.5716 10.9746 15.5716C11.0679 15.5716 11.1146 15.6183 11.1146 15.7116C11.1146 15.8049 11.0679 15.8516 10.9746 15.8516ZM11.1706 16.2996C11.0772 16.2996 11.0306 16.2529 11.0306 16.1596C11.0306 16.0663 11.0772 16.0196 11.1706 16.0196C11.2639 16.0196 11.3106 16.0663 11.3106 16.1596C11.3106 16.2529 11.2639 16.2996 11.1706 16.2996ZM10.5826 14.9556C10.4892 14.9556 10.4426 14.9089 10.4426 14.8156C10.4426 14.7223 10.4892 14.6756 10.5826 14.6756C10.6759 14.6756 10.7226 14.7223 10.7226 14.8156C10.7226 14.9089 10.6759 14.9556 10.5826 14.9556ZM10.7786 15.4036C10.6852 15.4036 10.6386 15.3569 10.6386 15.2636C10.6386 15.1703 10.6852 15.1236 10.7786 15.1236C10.8719 15.1236 10.9186 15.1703 10.9186 15.2636C10.9186 15.3569 10.8719 15.4036 10.7786 15.4036ZM11.3666 16.7476C11.2732 16.7476 11.2266 16.7009 11.2266 16.6076C11.2266 16.5143 11.2732 16.4676 11.3666 16.4676C11.4599 16.4676 11.5066 16.5143 11.5066 16.6076C11.5066 16.7009 11.4599 16.7476 11.3666 16.7476ZM11.5626 17.1956C11.4692 17.1956 11.4226 17.1489 11.4226 17.0556C11.4226 16.9623 11.4692 16.9156 11.5626 16.9156C11.6559 16.9156 11.7026 16.9623 11.7026 17.0556C11.7026 17.1489 11.6559 17.1956 11.5626 17.1956ZM9.99456 13.6116C9.90123 13.6116 9.85456 13.5649 9.85456 13.4716C9.85456 13.3783 9.90123 13.3316 9.99456 13.3316C10.0879 13.3316 10.1346 13.3783 10.1346 13.4716C10.1346 13.5649 10.0879 13.6116 9.99456 13.6116ZM17.1435 16.5096C17.2369 16.5096 17.2835 16.5563 17.2835 16.6496C17.2835 16.7429 17.2369 16.7896 17.1435 16.7896C17.0502 16.7896 17.0035 16.7429 17.0035 16.6496C17.0035 16.5563 17.0502 16.5096 17.1435 16.5096ZM16.5835 16.7056C16.6769 16.7056 16.7235 16.7523 16.7235 16.8456C16.7235 16.9389 16.6769 16.9856 16.5835 16.9856C16.4902 16.9856 16.4435 16.9389 16.4435 16.8456C16.4435 16.7523 16.4902 16.7056 16.5835 16.7056ZM16.0235 16.7616C16.1169 16.7616 16.1635 16.8083 16.1635 16.9016C16.1635 16.9949 16.1169 17.0416 16.0235 17.0416C15.9302 17.0416 15.8835 16.9949 15.8835 16.9016C15.8835 16.8083 15.9302 16.7616 16.0235 16.7616ZM15.4635 16.6916C15.5569 16.6916 15.6035 16.7383 15.6035 16.8316C15.6035 16.9249 15.5569 16.9716 15.4635 16.9716C15.3702 16.9716 15.3235 16.9249 15.3235 16.8316C15.3235 16.7383 15.3702 16.6916 15.4635 16.6916ZM14.9035 16.5096C14.9969 16.5096 15.0435 16.5563 15.0435 16.6496C15.0435 16.7429 14.9969 16.7896 14.9035 16.7896C14.8102 16.7896 14.7635 16.7429 14.7635 16.6496C14.7635 16.5563 14.8102 16.5096 14.9035 16.5096ZM17.6335 16.2296C17.7269 16.2296 17.7735 16.2763 17.7735 16.3696C17.7735 16.4629 17.7269 16.5096 17.6335 16.5096C17.5402 16.5096 17.4935 16.4629 17.4935 16.3696C17.4935 16.2763 17.5402 16.2296 17.6335 16.2296ZM14.3715 16.2016C14.4649 16.2016 14.5115 16.2483 14.5115 16.3416C14.5115 16.4349 14.4649 16.4816 14.3715 16.4816C14.2782 16.4816 14.2315 16.4349 14.2315 16.3416C14.2315 16.2483 14.2782 16.2016 14.3715 16.2016ZM18.0535 15.8936C18.1469 15.8936 18.1935 15.9403 18.1935 16.0336C18.1935 16.1269 18.1469 16.1736 18.0535 16.1736C17.9602 16.1736 17.9135 16.1269 17.9135 16.0336C17.9135 15.9403 17.9602 15.8936 18.0535 15.8936ZM13.9095 15.7956C14.0029 15.7956 14.0495 15.8423 14.0495 15.9356C14.0495 16.0289 14.0029 16.0756 13.9095 16.0756C13.8162 16.0756 13.7695 16.0289 13.7695 15.9356C13.7695 15.8423 13.8162 15.7956 13.9095 15.7956ZM13.2655 14.8576C13.3589 14.8576 13.4055 14.9043 13.4055 14.9976C13.4055 15.0909 13.3589 15.1376 13.2655 15.1376C13.1722 15.1376 13.1255 15.0909 13.1255 14.9976C13.1255 14.9043 13.1722 14.8576 13.2655 14.8576ZM13.0695 14.3536C13.1629 14.3536 13.2095 14.4003 13.2095 14.4936C13.2095 14.5869 13.1629 14.6336 13.0695 14.6336C12.9762 14.6336 12.9295 14.5869 12.9295 14.4936C12.9295 14.4003 12.9762 14.3536 13.0695 14.3536ZM12.8875 13.2896C12.9809 13.2896 13.0275 13.3363 13.0275 13.4296C13.0275 13.5229 12.9809 13.5696 12.8875 13.5696C12.7942 13.5696 12.7475 13.5229 12.7475 13.4296C12.7475 13.3363 12.7942 13.2896 12.8875 13.2896ZM12.9155 12.7296C13.0089 12.7296 13.0555 12.7763 13.0555 12.8696C13.0555 12.9629 13.0089 13.0096 12.9155 13.0096C12.8222 13.0096 12.7755 12.9629 12.7755 12.8696C12.7755 12.7763 12.8222 12.7296 12.9155 12.7296ZM13.0135 12.2256C13.1069 12.2256 13.1535 12.2723 13.1535 12.3656C13.1535 12.4589 13.1069 12.5056 13.0135 12.5056C12.9202 12.5056 12.8735 12.4589 12.8735 12.3656C12.8735 12.2723 12.9202 12.2256 13.0135 12.2256ZM13.1955 11.6936C13.2889 11.6936 13.3355 11.7403 13.3355 11.8336C13.3355 11.9269 13.2889 11.9736 13.1955 11.9736C13.1022 11.9736 13.0555 11.9269 13.0555 11.8336C13.0555 11.7403 13.1022 11.6936 13.1955 11.6936ZM13.4475 11.2036C13.5409 11.2036 13.5875 11.2503 13.5875 11.3436C13.5875 11.4369 13.5409 11.4836 13.4475 11.4836C13.3542 11.4836 13.3075 11.4369 13.3075 11.3436C13.3075 11.2503 13.3542 11.2036 13.4475 11.2036ZM18.4175 10.6716C18.5109 10.6716 18.5575 10.7183 18.5575 10.8116C18.5575 10.9049 18.5109 10.9516 18.4175 10.9516C18.3242 10.9516 18.2775 10.9049 18.2775 10.8116C18.2775 10.7183 18.3242 10.6716 18.4175 10.6716ZM13.7555 10.7696C13.8489 10.7696 13.8955 10.8163 13.8955 10.9096C13.8955 11.0029 13.8489 11.0496 13.7555 11.0496C13.6622 11.0496 13.6155 11.0029 13.6155 10.9096C13.6155 10.8163 13.6622 10.7696 13.7555 10.7696ZM17.6055 10.0276C17.6989 10.0276 17.7455 10.0743 17.7455 10.1676C17.7455 10.2609 17.6989 10.3076 17.6055 10.3076C17.5122 10.3076 17.4655 10.2609 17.4655 10.1676C17.4655 10.0743 17.5122 10.0276 17.6055 10.0276ZM17.1435 9.84557C17.2369 9.84557 17.2835 9.89224 17.2835 9.98557C17.2835 10.0789 17.2369 10.1256 17.1435 10.1256C17.0502 10.1256 17.0035 10.0789 17.0035 9.98557C17.0035 9.89224 17.0502 9.84557 17.1435 9.84557ZM15.0295 9.84557C15.1229 9.84557 15.1695 9.89224 15.1695 9.98557C15.1695 10.0789 15.1229 10.1256 15.0295 10.1256C14.9362 10.1256 14.8895 10.0789 14.8895 9.98557C14.8895 9.89224 14.9362 9.84557 15.0295 9.84557ZM14.5535 10.0836C14.6469 10.0836 14.6935 10.1303 14.6935 10.2236C14.6935 10.3169 14.6469 10.3636 14.5535 10.3636C14.4602 10.3636 14.4135 10.3169 14.4135 10.2236C14.4135 10.1303 14.4602 10.0836 14.5535 10.0836ZM19.1595 13.0796C19.2529 13.0796 19.2995 13.1263 19.2995 13.2196C19.2995 13.3129 19.2529 13.3596 19.1595 13.3596C19.0662 13.3596 19.0195 13.3129 19.0195 13.2196C19.0195 13.1263 19.0662 13.0796 19.1595 13.0796ZM19.1595 12.5196C19.2529 12.5196 19.2995 12.5663 19.2995 12.6596C19.2995 12.7529 19.2529 12.7996 19.1595 12.7996C19.0662 12.7996 19.0195 12.7529 19.0195 12.6596C19.0195 12.5663 19.0662 12.5196 19.1595 12.5196ZM19.1595 11.9596C19.2529 11.9596 19.2995 12.0063 19.2995 12.0996C19.2995 12.1929 19.2529 12.2396 19.1595 12.2396C19.0662 12.2396 19.0195 12.1929 19.0195 12.0996C19.0195 12.0063 19.0662 11.9596 19.1595 11.9596ZM19.1595 11.3996C19.2529 11.3996 19.2995 11.4463 19.2995 11.5396C19.2995 11.6329 19.2529 11.6796 19.1595 11.6796C19.0662 11.6796 19.0195 11.6329 19.0195 11.5396C19.0195 11.4463 19.0662 11.3996 19.1595 11.3996ZM19.1595 10.8396C19.2529 10.8396 19.2995 10.8863 19.2995 10.9796C19.2995 11.0729 19.2529 11.1196 19.1595 11.1196C19.0662 11.1196 19.0195 11.0729 19.0195 10.9796C19.0195 10.8863 19.0662 10.8396 19.1595 10.8396ZM19.1595 10.2796C19.2529 10.2796 19.2995 10.3263 19.2995 10.4196C19.2995 10.5129 19.2529 10.5596 19.1595 10.5596C19.0662 10.5596 19.0195 10.5129 19.0195 10.4196C19.0195 10.3263 19.0662 10.2796 19.1595 10.2796ZM19.1595 9.71957C19.2529 9.71957 19.2995 9.76624 19.2995 9.85957C19.2995 9.9529 19.2529 9.99957 19.1595 9.99957C19.0662 9.99957 19.0195 9.9529 19.0195 9.85957C19.0195 9.76624 19.0662 9.71957 19.1595 9.71957ZM19.1315 17.5316C19.2249 17.5316 19.2715 17.5783 19.2715 17.6716C19.2715 17.7649 19.2249 17.8116 19.1315 17.8116C19.0382 17.8116 18.9915 17.7649 18.9915 17.6716C18.9915 17.5783 19.0382 17.5316 19.1315 17.5316ZM19.1595 16.9856C19.2529 16.9856 19.2995 17.0323 19.2995 17.1256C19.2995 17.2189 19.2529 17.2656 19.1595 17.2656C19.0662 17.2656 19.0195 17.2189 19.0195 17.1256C19.0195 17.0323 19.0662 16.9856 19.1595 16.9856ZM19.1595 16.3836C19.2529 16.3836 19.2995 16.4303 19.2995 16.5236C19.2995 16.6169 19.2529 16.6636 19.1595 16.6636C19.0662 16.6636 19.0195 16.6169 19.0195 16.5236C19.0195 16.4303 19.0662 16.3836 19.1595 16.3836ZM19.1595 15.2636C19.2529 15.2636 19.2995 15.3103 19.2995 15.4036C19.2995 15.4969 19.2529 15.5436 19.1595 15.5436C19.0662 15.5436 19.0195 15.4969 19.0195 15.4036C19.0195 15.3103 19.0662 15.2636 19.1595 15.2636ZM19.1595 14.7456C19.2529 14.7456 19.2995 14.7923 19.2995 14.8856C19.2995 14.9789 19.2529 15.0256 19.1595 15.0256C19.0662 15.0256 19.0195 14.9789 19.0195 14.8856C19.0195 14.7923 19.0662 14.7456 19.1595 14.7456ZM19.1595 14.1856C19.2529 14.1856 19.2995 14.2323 19.2995 14.3256C19.2995 14.4189 19.2529 14.4656 19.1595 14.4656C19.0662 14.4656 19.0195 14.4189 19.0195 14.3256C19.0195 14.2323 19.0662 14.1856 19.1595 14.1856ZM19.1595 13.6256C19.2529 13.6256 19.2995 13.6723 19.2995 13.7656C19.2995 13.8589 19.2529 13.9056 19.1595 13.9056C19.0662 13.9056 19.0195 13.8589 19.0195 13.7656C19.0195 13.6723 19.0662 13.6256 19.1595 13.6256ZM18.0955 19.2256C18.1889 19.2256 18.2355 19.2723 18.2355 19.3656C18.2355 19.4589 18.1889 19.5056 18.0955 19.5056C18.0022 19.5056 17.9555 19.4589 17.9555 19.3656C17.9555 19.2723 18.0022 19.2256 18.0955 19.2256ZM18.5015 18.9036C18.5949 18.9036 18.6415 18.9503 18.6415 19.0436C18.6415 19.1369 18.5949 19.1836 18.5015 19.1836C18.4082 19.1836 18.3615 19.1369 18.3615 19.0436C18.3615 18.9503 18.4082 18.9036 18.5015 18.9036ZM18.7815 18.4976C18.8749 18.4976 18.9215 18.5443 18.9215 18.6376C18.9215 18.7309 18.8749 18.7776 18.7815 18.7776C18.6882 18.7776 18.6415 18.7309 18.6415 18.6376C18.6415 18.5443 18.6882 18.4976 18.7815 18.4976ZM19.0195 18.0216C19.1129 18.0216 19.1595 18.0683 19.1595 18.1616C19.1595 18.2549 19.1129 18.3016 19.0195 18.3016C18.9262 18.3016 18.8795 18.2549 18.8795 18.1616C18.8795 18.0683 18.9262 18.0216 19.0195 18.0216ZM19.1595 15.8236C19.2529 15.8236 19.2995 15.8703 19.2995 15.9636C19.2995 16.0569 19.2529 16.1036 19.1595 16.1036C19.0662 16.1036 19.0195 16.0569 19.0195 15.9636C19.0195 15.8703 19.0662 15.8236 19.1595 15.8236ZM13.5175 15.3336C13.6109 15.3336 13.6575 15.3803 13.6575 15.4736C13.6575 15.5669 13.6109 15.6136 13.5175 15.6136C13.4242 15.6136 13.3775 15.5669 13.3775 15.4736C13.3775 15.3803 13.4242 15.3336 13.5175 15.3336ZM12.9435 13.8356C13.0369 13.8356 13.0835 13.8823 13.0835 13.9756C13.0835 14.0689 13.0369 14.1156 12.9435 14.1156C12.8502 14.1156 12.8035 14.0689 12.8035 13.9756C12.8035 13.8823 12.8502 13.8356 12.9435 13.8356ZM18.4175 15.4596C18.5109 15.4596 18.5575 15.5063 18.5575 15.5996C18.5575 15.6929 18.5109 15.7396 18.4175 15.7396C18.3242 15.7396 18.2775 15.6929 18.2775 15.5996C18.2775 15.5063 18.3242 15.4596 18.4175 15.4596ZM18.7675 15.0256C18.8609 15.0256 18.9075 15.0723 18.9075 15.1656C18.9075 15.2589 18.8609 15.3056 18.7675 15.3056C18.6742 15.3056 18.6275 15.2589 18.6275 15.1656C18.6275 15.0723 18.6742 15.0256 18.7675 15.0256ZM18.7535 11.0776C18.8469 11.0776 18.8935 11.1243 18.8935 11.2176C18.8935 11.3109 18.8469 11.3576 18.7535 11.3576C18.6602 11.3576 18.6135 11.3109 18.6135 11.2176C18.6135 11.1243 18.6602 11.0776 18.7535 11.0776ZM16.1355 9.62157C16.2289 9.62157 16.2755 9.66824 16.2755 9.76157C16.2755 9.8549 16.2289 9.90157 16.1355 9.90157C16.0422 9.90157 15.9955 9.8549 15.9955 9.76157C15.9955 9.66824 16.0422 9.62157 16.1355 9.62157ZM16.6675 9.67757C16.7609 9.67757 16.8075 9.72424 16.8075 9.81757C16.8075 9.9109 16.7609 9.95757 16.6675 9.95757C16.5742 9.95757 16.5275 9.9109 16.5275 9.81757C16.5275 9.72424 16.5742 9.67757 16.6675 9.67757ZM18.0115 10.3216C18.1049 10.3216 18.1515 10.3683 18.1515 10.4616C18.1515 10.5549 18.1049 10.6016 18.0115 10.6016C17.9182 10.6016 17.8715 10.5549 17.8715 10.4616C17.8715 10.3683 17.9182 10.3216 18.0115 10.3216ZM15.5755 9.67757C15.6689 9.67757 15.7155 9.72424 15.7155 9.81757C15.7155 9.9109 15.6689 9.95757 15.5755 9.95757C15.4822 9.95757 15.4355 9.9109 15.4355 9.81757C15.4355 9.72424 15.4822 9.67757 15.5755 9.67757ZM14.1195 10.3916C14.2129 10.3916 14.2595 10.4383 14.2595 10.5316C14.2595 10.6249 14.2129 10.6716 14.1195 10.6716C14.0262 10.6716 13.9795 10.6249 13.9795 10.5316C13.9795 10.4383 14.0262 10.3916 14.1195 10.3916ZM17.6475 19.4636C17.7409 19.4636 17.7875 19.5103 17.7875 19.6036C17.7875 19.6969 17.7409 19.7436 17.6475 19.7436C17.5542 19.7436 17.5075 19.6969 17.5075 19.6036C17.5075 19.5103 17.5542 19.4636 17.6475 19.4636ZM17.1575 19.6456C17.2509 19.6456 17.2975 19.6923 17.2975 19.7856C17.2975 19.8789 17.2509 19.9256 17.1575 19.9256C17.0642 19.9256 17.0175 19.8789 17.0175 19.7856C17.0175 19.6923 17.0642 19.6456 17.1575 19.6456ZM16.6675 19.7436C16.7609 19.7436 16.8075 19.7903 16.8075 19.8836C16.8075 19.9769 16.7609 20.0236 16.6675 20.0236C16.5742 20.0236 16.5275 19.9769 16.5275 19.8836C16.5275 19.7903 16.5742 19.7436 16.6675 19.7436ZM16.1355 19.7716C16.2289 19.7716 16.2755 19.8183 16.2755 19.9116C16.2755 20.0049 16.2289 20.0516 16.1355 20.0516C16.0422 20.0516 15.9955 20.0049 15.9955 19.9116C15.9955 19.8183 16.0422 19.7716 16.1355 19.7716ZM15.6035 19.7436C15.6969 19.7436 15.7435 19.7903 15.7435 19.8836C15.7435 19.9769 15.6969 20.0236 15.6035 20.0236C15.5102 20.0236 15.4635 19.9769 15.4635 19.8836C15.4635 19.7903 15.5102 19.7436 15.6035 19.7436ZM15.0855 19.6736C15.1789 19.6736 15.2255 19.7203 15.2255 19.8136C15.2255 19.9069 15.1789 19.9536 15.0855 19.9536C14.9922 19.9536 14.9455 19.9069 14.9455 19.8136C14.9455 19.7203 14.9922 19.6736 15.0855 19.6736ZM14.6235 19.5336C14.7169 19.5336 14.7635 19.5803 14.7635 19.6736C14.7635 19.7669 14.7169 19.8136 14.6235 19.8136C14.5302 19.8136 14.4835 19.7669 14.4835 19.6736C14.4835 19.5803 14.5302 19.5336 14.6235 19.5336ZM14.1895 19.3096C14.2829 19.3096 14.3295 19.3563 14.3295 19.4496C14.3295 19.5429 14.2829 19.5896 14.1895 19.5896C14.0962 19.5896 14.0495 19.5429 14.0495 19.4496C14.0495 19.3563 14.0962 19.3096 14.1895 19.3096ZM13.7415 19.0016C13.8349 19.0016 13.8815 19.0483 13.8815 19.1416C13.8815 19.2349 13.8349 19.2816 13.7415 19.2816C13.6482 19.2816 13.6015 19.2349 13.6015 19.1416C13.6015 19.0483 13.6482 19.0016 13.7415 19.0016ZM13.3915 18.6516C13.4849 18.6516 13.5315 18.6983 13.5315 18.7916C13.5315 18.8849 13.4849 18.9316 13.3915 18.9316C13.2982 18.9316 13.2515 18.8849 13.2515 18.7916C13.2515 18.6983 13.2982 18.6516 13.3915 18.6516ZM13.0835 18.2316C13.1769 18.2316 13.2235 18.2783 13.2235 18.3716C13.2235 18.4649 13.1769 18.5116 13.0835 18.5116C12.9902 18.5116 12.9435 18.4649 12.9435 18.3716C12.9435 18.2783 12.9902 18.2316 13.0835 18.2316Z" fill="white"/>
</svg>
