<svg width="24" height="24" viewBox="0 0 24 24" fill="none" xmlns="http://www.w3.org/2000/svg">
<path d="M7.63495 7.05957H8.05495L12.325 16.9996H11.807L10.337 13.5696H5.35295L3.88295 16.9996H3.35095L7.63495 7.05957ZM10.183 13.1496L7.84495 7.67557L5.49295 13.1496H10.183ZM16.4711 17.1256C15.9671 17.1256 15.5005 17.0183 15.0711 16.8036C14.6418 16.5889 14.2731 16.3089 13.9651 15.9636C13.6571 15.6089 13.4145 15.2076 13.2371 14.7596C13.0691 14.3116 12.9851 13.8543 12.9851 13.3876C12.9851 12.8929 13.0645 12.4216 13.2231 11.9736C13.3911 11.5163 13.6245 11.1149 13.9231 10.7696C14.2218 10.4149 14.5765 10.1349 14.9871 9.92957C15.4071 9.7149 15.8691 9.60757 16.3731 9.60757C16.6905 9.60757 16.9891 9.65424 17.2691 9.74757C17.5491 9.8409 17.8105 9.9669 18.0531 10.1256C18.2958 10.2843 18.5198 10.4709 18.7251 10.6856C18.9305 10.9003 19.1171 11.1289 19.2851 11.3716V9.71957H19.7331V17.2236C19.7331 17.7183 19.6398 18.1429 19.4531 18.4976C19.2758 18.8616 19.0331 19.1649 18.7251 19.4076C18.4265 19.6503 18.0765 19.8276 17.6751 19.9396C17.2738 20.0609 16.8538 20.1216 16.4151 20.1216C15.9858 20.1216 15.6031 20.0796 15.2671 19.9956C14.9405 19.9116 14.6511 19.7949 14.3991 19.6456C14.1471 19.4963 13.9231 19.3143 13.7271 19.0996C13.5405 18.8943 13.3771 18.6656 13.2371 18.4136L13.5871 18.2176C13.8858 18.7403 14.2871 19.1183 14.7911 19.3516C15.2951 19.5849 15.8365 19.7016 16.4151 19.7016C16.8071 19.7016 17.1711 19.6503 17.5071 19.5476C17.8525 19.4449 18.1558 19.2863 18.4171 19.0716C18.6785 18.8663 18.8838 18.6096 19.0331 18.3016C19.1825 17.9936 19.2571 17.6343 19.2571 17.2236V15.5156C19.1078 15.7583 18.9258 15.9776 18.7111 16.1736C18.5058 16.3696 18.2818 16.5376 18.0391 16.6776C17.7965 16.8176 17.5398 16.9249 17.2691 16.9996C17.0078 17.0836 16.7418 17.1256 16.4711 17.1256ZM16.5411 16.6916C16.8678 16.6916 17.1851 16.6309 17.4931 16.5096C17.8105 16.3789 18.0951 16.2156 18.3471 16.0196C18.5991 15.8143 18.8045 15.5903 18.9631 15.3476C19.1311 15.0956 19.2291 14.8436 19.2571 14.5916V12.0856C19.1451 11.7963 18.9865 11.5256 18.7811 11.2736C18.5851 11.0216 18.3611 10.8069 18.1091 10.6296C17.8571 10.4523 17.5865 10.3123 17.2971 10.2096C17.0078 10.1069 16.7138 10.0556 16.4151 10.0556C15.9485 10.0556 15.5331 10.1536 15.1691 10.3496C14.8051 10.5456 14.4971 10.8023 14.2451 11.1196C13.9931 11.4369 13.8018 11.7963 13.6711 12.1976C13.5405 12.5896 13.4751 12.9863 13.4751 13.3876C13.4751 13.8263 13.5545 14.2463 13.7131 14.6476C13.8718 15.0396 14.0865 15.3896 14.3571 15.6976C14.6371 15.9963 14.9638 16.2389 15.3371 16.4256C15.7105 16.6029 16.1118 16.6916 16.5411 16.6916Z" fill="white"/>
</svg>
