<svg width="24" height="24" viewBox="0 0 24 24" fill="none" xmlns="http://www.w3.org/2000/svg">
<path d="M6.31744 11.9479H9.73344L9.97144 12.5639H6.12144L6.31744 11.9479ZM11.3014 14.0619C11.3481 14.2019 11.4508 14.2906 11.6094 14.3279L12.1974 14.4819V14.9999H9.17344V14.4819L10.1954 14.2859L7.81544 7.46786H8.19344L5.96744 14.2859L6.97544 14.4819V14.9999H4.32944V14.4819L4.94544 14.3279C5.10411 14.2906 5.20677 14.2019 5.25344 14.0619L7.67544 7.00586H8.76744L11.3014 14.0619ZM18.2668 15.6299C18.2668 16.0686 18.1268 16.4512 17.8468 16.7779C17.5761 17.1046 17.2028 17.3566 16.7268 17.5339C16.2508 17.7112 15.7001 17.7999 15.0748 17.7999C14.2628 17.7999 13.6561 17.6506 13.2548 17.3519C12.8534 17.0626 12.6528 16.6752 12.6528 16.1899C12.6528 15.7699 12.7881 15.4386 13.0588 15.1959C13.3294 14.9626 13.6608 14.7806 14.0528 14.6499L14.3748 14.7479C14.1974 14.8879 14.0434 15.0559 13.9128 15.2519C13.7821 15.4479 13.7168 15.6999 13.7168 16.0079C13.7168 16.3532 13.8241 16.6379 14.0388 16.8619C14.2628 17.0859 14.6734 17.1979 15.2708 17.1979C15.8401 17.1979 16.3021 17.0859 16.6568 16.8619C17.0208 16.6379 17.2028 16.2972 17.2028 15.8399C17.2028 15.5879 17.1281 15.3872 16.9788 15.2379C16.8294 15.0979 16.5354 15.0279 16.0968 15.0279H14.7948C14.2534 15.0279 13.8381 14.9439 13.5488 14.7759C13.2688 14.6079 13.1288 14.3372 13.1288 13.9639C13.1288 13.6186 13.2408 13.3526 13.4648 13.1659C13.6981 12.9792 13.9548 12.8346 14.2348 12.7319L14.5008 12.9419C14.3514 13.0072 14.2301 13.0959 14.1368 13.2079C14.0528 13.3106 14.0108 13.4459 14.0108 13.6139C14.0108 13.8192 14.0994 13.9639 14.2768 14.0479C14.4541 14.1319 14.7481 14.1739 15.1588 14.1739H16.4048C17.0208 14.1739 17.4828 14.3046 17.7908 14.5659C18.1081 14.8179 18.2668 15.1726 18.2668 15.6299ZM17.5388 10.9959C17.5388 11.6399 17.3194 12.1532 16.8808 12.5359C16.4421 12.9186 15.8494 13.1099 15.1028 13.1099C14.6454 13.1099 14.2488 13.0352 13.9128 12.8859C13.5768 12.7366 13.3154 12.5172 13.1288 12.2279C12.9421 11.9386 12.8488 11.5792 12.8488 11.1499C12.8488 10.6739 12.9561 10.2819 13.1708 9.97386C13.3948 9.65653 13.6934 9.42319 14.0668 9.27386C14.4401 9.11519 14.8508 9.03586 15.2988 9.03586C15.9708 9.03586 16.5121 9.20853 16.9228 9.55386C17.3334 9.89919 17.5388 10.3799 17.5388 10.9959ZM13.9688 11.0379C13.9688 11.5326 14.0668 11.9106 14.2628 12.1719C14.4681 12.4239 14.7948 12.5499 15.2428 12.5499C15.6348 12.5499 15.9288 12.4379 16.1248 12.2139C16.3301 11.9899 16.4328 11.6166 16.4328 11.0939C16.4328 10.5712 16.3301 10.1932 16.1248 9.95986C15.9194 9.72653 15.6021 9.60986 15.1728 9.60986C14.9488 9.60986 14.7434 9.65186 14.5568 9.73586C14.3794 9.81053 14.2348 9.95053 14.1228 10.1559C14.0201 10.3612 13.9688 10.6552 13.9688 11.0379ZM16.9788 9.95986L16.6988 9.73586C16.8948 9.53053 17.0861 9.36253 17.2728 9.23186C17.4688 9.10119 17.6694 9.03586 17.8748 9.03586C17.9588 9.03586 18.0521 9.04986 18.1548 9.07786C18.2574 9.09653 18.3554 9.11519 18.4488 9.13386V9.95986H16.9788Z" fill="white"/>
</svg>
