<svg width="24" height="24" viewBox="0 0 24 24" fill="none" xmlns="http://www.w3.org/2000/svg">
<path d="M6.24289 11.9062H9.58889L9.84089 12.6062H6.03289L6.24289 11.9062ZM11.3109 13.9922C11.3576 14.1229 11.4556 14.2115 11.6049 14.2582L12.2069 14.4122V15.0002H8.91689V14.4122L9.92489 14.2302L7.68489 7.53819H8.07689L5.94889 14.2302L6.94289 14.4122V15.0002H4.19889V14.4122L4.82889 14.2582C4.98756 14.2209 5.08556 14.1322 5.12289 13.9922L7.51689 6.99219H8.84689L11.3109 13.9922ZM18.3856 15.5602C18.3856 16.0175 18.2456 16.4095 17.9656 16.7362C17.6856 17.0722 17.2983 17.3289 16.8036 17.5062C16.3183 17.6929 15.7489 17.7862 15.0956 17.7862C14.2463 17.7862 13.6163 17.6369 13.2056 17.3382C12.8043 17.0489 12.6036 16.6662 12.6036 16.1902C12.6036 15.7609 12.7436 15.4295 13.0236 15.1962C13.3129 14.9629 13.6723 14.7902 14.1016 14.6782L14.5076 14.7482C14.3489 14.8695 14.2089 15.0235 14.0876 15.2102C13.9663 15.4062 13.9056 15.6535 13.9056 15.9522C13.9056 16.2882 14.0036 16.5635 14.1996 16.7782C14.4049 17.0022 14.7783 17.1142 15.3196 17.1142C15.8423 17.1142 16.2576 17.0069 16.5656 16.7922C16.8829 16.5775 17.0416 16.2555 17.0416 15.8262C17.0416 15.5649 16.9669 15.3642 16.8176 15.2242C16.6776 15.0935 16.4069 15.0282 16.0056 15.0282H14.7876C14.2089 15.0282 13.7796 14.9349 13.4996 14.7482C13.2289 14.5615 13.0936 14.2909 13.0936 13.9362C13.0936 13.5909 13.2056 13.3249 13.4296 13.1382C13.6536 12.9515 13.9149 12.8069 14.2136 12.7042L14.5636 12.8722C14.4143 12.9469 14.2976 13.0402 14.2136 13.1522C14.1389 13.2549 14.1016 13.3809 14.1016 13.5302C14.1016 13.7262 14.1903 13.8662 14.3676 13.9502C14.5449 14.0249 14.8343 14.0622 15.2356 14.0622H16.4116C17.0649 14.0622 17.5549 14.1929 17.8816 14.4542C18.2176 14.7062 18.3856 15.0749 18.3856 15.5602ZM17.6576 10.9542C17.6576 11.5889 17.4383 12.1022 16.9996 12.4942C16.5703 12.8769 15.9496 13.0682 15.1376 13.0682C14.6243 13.0682 14.1949 12.9889 13.8496 12.8302C13.5043 12.6715 13.2429 12.4475 13.0656 12.1582C12.8883 11.8689 12.7996 11.5189 12.7996 11.1082C12.7996 10.6509 12.9069 10.2682 13.1216 9.96019C13.3363 9.64286 13.6349 9.40486 14.0176 9.24619C14.4003 9.08752 14.8389 9.00819 15.3336 9.00819C16.0523 9.00819 16.6169 9.17619 17.0276 9.51219C17.4476 9.84819 17.6576 10.3289 17.6576 10.9542ZM14.1576 11.0102C14.1576 11.4862 14.2463 11.8455 14.4236 12.0882C14.6009 12.3309 14.8856 12.4522 15.2776 12.4522C15.6323 12.4522 15.8936 12.3402 16.0616 12.1162C16.2296 11.8922 16.3136 11.5329 16.3136 11.0382C16.3136 10.5342 16.2249 10.1749 16.0476 9.96019C15.8796 9.73619 15.6043 9.62419 15.2216 9.62419C15.0163 9.62419 14.8343 9.66619 14.6756 9.75019C14.5169 9.82486 14.3909 9.96486 14.2976 10.1702C14.2043 10.3662 14.1576 10.6462 14.1576 11.0102ZM17.1676 10.0722L16.8316 9.80619C17.0089 9.56352 17.1956 9.37219 17.3916 9.23219C17.5969 9.08286 17.8069 9.00819 18.0216 9.00819C18.1056 9.00819 18.1989 9.02219 18.3016 9.05019C18.4043 9.06886 18.4976 9.08752 18.5816 9.10619V10.0722H17.1676Z" fill="white"/>
</svg>
