<svg width="24" height="24" viewBox="0 0 24 24" fill="none" xmlns="http://www.w3.org/2000/svg">
<path d="M2.76437 17.0002L6.54437 7.2002H7.73437L11.5004 17.0002H10.3104L7.91637 10.7002C7.88837 10.6349 7.83704 10.4902 7.76237 10.2662C7.68771 10.0329 7.59904 9.77153 7.49637 9.4822C7.39371 9.19287 7.29571 8.91753 7.20237 8.6562C7.10904 8.38553 7.03437 8.1802 6.97837 8.0402H7.24437C7.18837 8.19887 7.11837 8.4042 7.03437 8.6562C6.95037 8.9082 6.85704 9.16953 6.75437 9.4402C6.66104 9.71087 6.57237 9.96287 6.48837 10.1962C6.40437 10.4295 6.33904 10.6162 6.29237 10.7562L3.91237 17.0002H2.76437ZM4.36037 14.2982L4.76637 13.2202H9.40037L9.86237 14.2982H4.36037ZM15.9266 20.2622C15.4039 20.2622 14.8952 20.1782 14.4006 20.0102C13.9152 19.8422 13.5186 19.6182 13.2106 19.3382L13.6026 18.4982C13.8826 18.7409 14.2279 18.9369 14.6386 19.0862C15.0586 19.2355 15.4832 19.3102 15.9126 19.3102C16.4352 19.3102 16.8879 19.2075 17.2706 19.0022C17.6532 18.7969 17.9519 18.4982 18.1666 18.1062C18.3812 17.7142 18.4886 17.2382 18.4886 16.6782V15.0682L18.6286 15.1102C18.5632 15.4742 18.3906 15.8102 18.1106 16.1182C17.8399 16.4262 17.5039 16.6735 17.1026 16.8602C16.7106 17.0469 16.2952 17.1402 15.8566 17.1402C15.1659 17.1402 14.5452 16.9769 13.9946 16.6502C13.4532 16.3142 13.0239 15.8615 12.7066 15.2922C12.3986 14.7229 12.2446 14.0742 12.2446 13.3462C12.2446 12.6089 12.3986 11.9555 12.7066 11.3862C13.0239 10.8075 13.4532 10.3549 13.9946 10.0282C14.5359 9.6922 15.1379 9.5242 15.8006 9.5242C16.0899 9.5242 16.3699 9.56153 16.6406 9.6362C16.9112 9.71087 17.1632 9.8182 17.3966 9.9582C17.6299 10.0889 17.8399 10.2382 18.0266 10.4062C18.2132 10.5742 18.3672 10.7562 18.4886 10.9522C18.6099 11.1482 18.6892 11.3442 18.7266 11.5402L18.4886 11.6102L18.5026 9.6502H19.5526V16.6082C19.5526 17.1869 19.4639 17.7002 19.2866 18.1482C19.1186 18.6055 18.8712 18.9882 18.5446 19.2962C18.2272 19.6135 17.8446 19.8515 17.3966 20.0102C16.9579 20.1782 16.4679 20.2622 15.9266 20.2622ZM15.9546 16.1462C16.4492 16.1462 16.8879 16.0295 17.2706 15.7962C17.6626 15.5535 17.9659 15.2222 18.1806 14.8022C18.4046 14.3729 18.5166 13.8829 18.5166 13.3322C18.5166 12.7815 18.4046 12.2962 18.1806 11.8762C17.9659 11.4469 17.6626 11.1109 17.2706 10.8682C16.8879 10.6255 16.4446 10.5042 15.9406 10.5042C15.4366 10.5042 14.9839 10.6302 14.5826 10.8822C14.1906 11.1249 13.8826 11.4609 13.6586 11.8902C13.4346 12.3102 13.3226 12.7955 13.3226 13.3462C13.3226 13.8782 13.4346 14.3589 13.6586 14.7882C13.8826 15.2082 14.1906 15.5395 14.5826 15.7822C14.9839 16.0249 15.4412 16.1462 15.9546 16.1462Z" fill="white"/>
</svg>
