<svg width="24" height="24" viewBox="0 0 24 24" fill="none" xmlns="http://www.w3.org/2000/svg">
<path d="M3.15106 17.0002L7.00106 7.2002H8.87706L12.6991 17.0002H10.5571L8.56906 11.7222C8.51306 11.5635 8.44306 11.3675 8.35906 11.1342C8.2844 10.9009 8.20506 10.6535 8.12106 10.3922C8.03706 10.1309 7.95773 9.88353 7.88306 9.6502C7.81773 9.40753 7.76173 9.21153 7.71506 9.0622L8.09306 9.0482C8.03706 9.25353 7.97173 9.47287 7.89706 9.7062C7.83173 9.9302 7.75706 10.1635 7.67306 10.4062C7.5984 10.6489 7.51906 10.8822 7.43506 11.1062C7.3604 11.3302 7.28573 11.5449 7.21106 11.7502L5.23706 17.0002H3.15106ZM4.94306 14.9422L5.64306 13.2342H10.1091L10.8231 14.9422H4.94306ZM17.0457 20.2202C16.4671 20.2202 15.8884 20.1362 15.3097 19.9682C14.7404 19.8002 14.2784 19.5762 13.9237 19.2962L14.6237 17.8682C14.9224 18.0735 15.2631 18.2369 15.6457 18.3582C16.0377 18.4795 16.4391 18.5402 16.8497 18.5402C17.3444 18.5402 17.7457 18.4655 18.0537 18.3162C18.3711 18.1669 18.6044 17.9429 18.7537 17.6442C18.9124 17.3549 18.9917 16.9862 18.9917 16.5382V15.2502L19.3277 15.3342C19.2717 15.6235 19.1131 15.8989 18.8517 16.1602C18.5997 16.4122 18.2871 16.6175 17.9137 16.7762C17.5404 16.9349 17.1484 17.0142 16.7377 17.0142C16.0564 17.0142 15.4451 16.8555 14.9037 16.5382C14.3717 16.2115 13.9517 15.7682 13.6437 15.2082C13.3357 14.6482 13.1817 14.0042 13.1817 13.2762C13.1817 12.5295 13.3357 11.8669 13.6437 11.2882C13.9517 10.7095 14.3671 10.2569 14.8897 9.9302C15.4217 9.60353 16.0191 9.4402 16.6817 9.4402C16.9617 9.4402 17.2277 9.47287 17.4797 9.5382C17.7411 9.60353 17.9791 9.69687 18.1937 9.8182C18.4177 9.9302 18.6184 10.0562 18.7957 10.1962C18.9731 10.3362 19.1177 10.4902 19.2297 10.6582C19.3417 10.8262 19.4117 10.9942 19.4397 11.1622L19.0197 11.2882L19.0757 9.5942H20.9937V16.4402C20.9937 17.0375 20.9004 17.5695 20.7137 18.0362C20.5364 18.5122 20.2751 18.9089 19.9297 19.2262C19.5937 19.5529 19.1831 19.8002 18.6977 19.9682C18.2124 20.1362 17.6617 20.2202 17.0457 20.2202ZM17.1017 15.4042C17.4937 15.4042 17.8344 15.3155 18.1237 15.1382C18.4224 14.9609 18.6511 14.7135 18.8097 14.3962C18.9777 14.0789 19.0617 13.7102 19.0617 13.2902C19.0617 12.8609 18.9777 12.4875 18.8097 12.1702C18.6511 11.8529 18.4224 11.6055 18.1237 11.4282C17.8344 11.2415 17.4937 11.1482 17.1017 11.1482C16.7191 11.1482 16.3831 11.2415 16.0937 11.4282C15.8044 11.6055 15.5757 11.8529 15.4077 12.1702C15.2491 12.4875 15.1697 12.8562 15.1697 13.2762C15.1697 13.6962 15.2491 14.0695 15.4077 14.3962C15.5757 14.7135 15.8044 14.9609 16.0937 15.1382C16.3831 15.3155 16.7191 15.4042 17.1017 15.4042Z" fill="white"/>
</svg>
