<svg width="24" height="24" viewBox="0 0 24 24" fill="none" xmlns="http://www.w3.org/2000/svg">
<path d="M2.47108 17.0002L6.26508 7.2002H7.80508L11.5711 17.0002H9.96108L7.72108 11.0922C7.69308 11.0269 7.63708 10.8682 7.55308 10.6162C7.47842 10.3642 7.38975 10.0842 7.28708 9.7762C7.18442 9.4682 7.09108 9.1882 7.00708 8.9362C6.92308 8.67487 6.86708 8.50687 6.83908 8.4322L7.16108 8.4182C7.10508 8.57687 7.03508 8.77753 6.95108 9.0202C6.87642 9.26287 6.79242 9.51953 6.69908 9.7902C6.61508 10.0609 6.53108 10.3175 6.44708 10.5602C6.36308 10.7935 6.29308 10.9895 6.23708 11.1482L4.01108 17.0002H2.47108ZM4.15108 14.5642L4.71108 13.1082H9.16308L9.80708 14.5642H4.15108ZM16.0851 20.2202C15.5624 20.2202 15.0398 20.1362 14.5171 19.9682C14.0038 19.8095 13.5884 19.5995 13.2711 19.3382L13.8031 18.2182C14.0831 18.4329 14.4284 18.6055 14.8391 18.7362C15.2591 18.8669 15.6744 18.9322 16.0851 18.9322C16.5984 18.9322 17.0278 18.8482 17.3731 18.6802C17.7184 18.5122 17.9798 18.2649 18.1571 17.9382C18.3344 17.6115 18.4231 17.2055 18.4231 16.7202V15.3062L18.5771 15.4042C18.5304 15.6935 18.3764 15.9735 18.1151 16.2442C17.8631 16.5055 17.5458 16.7202 17.1631 16.8882C16.7804 17.0562 16.3884 17.1402 15.9871 17.1402C15.2871 17.1402 14.6618 16.9769 14.1111 16.6502C13.5698 16.3142 13.1404 15.8615 12.8231 15.2922C12.5058 14.7135 12.3471 14.0555 12.3471 13.3182C12.3471 12.5809 12.5011 11.9275 12.8091 11.3582C13.1264 10.7795 13.5558 10.3269 14.0971 10.0002C14.6478 9.6642 15.2638 9.4962 15.9451 9.4962C16.2251 9.4962 16.4958 9.53353 16.7571 9.6082C17.0184 9.67353 17.2611 9.77153 17.4851 9.9022C17.7091 10.0235 17.9098 10.1589 18.0871 10.3082C18.2644 10.4575 18.4091 10.6162 18.5211 10.7842C18.6331 10.9522 18.7031 11.1109 18.7311 11.2602L18.4231 11.3722V9.6502H19.8651V16.5522C19.8651 17.1402 19.7764 17.6582 19.5991 18.1062C19.4311 18.5635 19.1838 18.9462 18.8571 19.2542C18.5304 19.5715 18.1338 19.8095 17.6671 19.9682C17.2004 20.1362 16.6731 20.2202 16.0851 20.2202ZM16.1411 15.8102C16.5984 15.8102 17.0044 15.7029 17.3591 15.4882C17.7138 15.2735 17.9891 14.9795 18.1851 14.6062C18.3811 14.2329 18.4791 13.8035 18.4791 13.3182C18.4791 12.8329 18.3764 12.4035 18.1711 12.0302C17.9751 11.6475 17.6998 11.3489 17.3451 11.1342C16.9998 10.9195 16.5984 10.8122 16.1411 10.8122C15.6931 10.8122 15.2918 10.9242 14.9371 11.1482C14.5918 11.3629 14.3164 11.6615 14.1111 12.0442C13.9151 12.4175 13.8171 12.8422 13.8171 13.3182C13.8171 13.7942 13.9151 14.2235 14.1111 14.6062C14.3164 14.9795 14.5918 15.2735 14.9371 15.4882C15.2918 15.7029 15.6931 15.8102 16.1411 15.8102Z" fill="white"/>
</svg>
