<svg width="24" height="24" viewBox="0 0 24 24" fill="none" xmlns="http://www.w3.org/2000/svg">
<path d="M6.37347 13.0522H8.03947C8.1888 13.0522 8.33347 13.0522 8.47347 13.0522C8.6228 13.0522 8.77214 13.0522 8.92147 13.0522L9.41147 12.8702V14.1722V15.6422H6.05147C6.02347 15.6422 6.00014 15.6375 5.98147 15.6282C5.9628 15.6095 5.9488 15.5862 5.93947 15.5582C5.93947 15.5302 5.93947 15.5069 5.93947 15.4882L6.37347 13.0522ZM6.06547 17.0002C5.61747 17.0002 5.16947 17.0002 4.72147 17.0002C4.27347 17.0002 3.84414 17.0002 3.43347 17.0002C3.39614 17.0002 3.36814 16.9955 3.34947 16.9862C3.32147 16.9675 3.3028 16.9442 3.29347 16.9162C3.28414 16.8789 3.2888 16.8369 3.30747 16.7902C3.38214 16.6129 3.50814 16.3329 3.68547 15.9502C3.85347 15.5675 4.04947 15.1195 4.27347 14.6062C4.49747 14.0929 4.74014 13.5469 5.00147 12.9682C5.2628 12.3802 5.52414 11.7922 5.78547 11.2042C6.0468 10.6069 6.29414 10.0469 6.52747 9.5242C6.7608 8.9922 6.96614 8.52553 7.14347 8.1242C7.3208 7.71353 7.45614 7.40553 7.54947 7.2002C8.2588 7.2002 8.9588 7.2002 9.64947 7.2002C10.3401 7.2002 11.0401 7.2002 11.7495 7.2002C11.7868 7.2002 11.8148 7.20487 11.8335 7.2142C11.8521 7.22353 11.8661 7.23753 11.8755 7.2562C11.8941 7.27487 11.9035 7.30753 11.9035 7.3542C11.8661 7.97953 11.8288 8.60953 11.7915 9.2442C11.7541 9.86953 11.7168 10.4995 11.6795 11.1342C11.6515 11.7595 11.6188 12.3895 11.5815 13.0242C11.5441 13.6495 11.5068 14.2749 11.4695 14.9002C11.4601 15.2362 11.4415 15.5815 11.4135 15.9362C11.3948 16.2815 11.3761 16.6362 11.3575 17.0002C10.9001 17.0002 10.4568 17.0002 10.0275 17.0002C9.60747 17.0002 9.19214 17.0002 8.78147 17.0002C8.69747 17.0002 8.63214 16.9862 8.58547 16.9582C8.54814 16.9302 8.52947 16.8649 8.52947 16.7622C8.52947 16.6595 8.5388 16.4962 8.55747 16.2722C8.5948 15.9175 8.63214 15.5395 8.66947 15.1382C8.7068 14.7275 8.7488 14.3029 8.79547 13.8642C8.85147 13.4162 8.9028 12.9495 8.94947 12.4642C9.00547 11.9789 9.06614 11.4749 9.13147 10.9522C9.1968 10.4295 9.2668 9.8882 9.34147 9.3282L9.77547 9.7482H8.45947L9.18747 9.3562C8.96347 9.92553 8.74414 10.4809 8.52947 11.0222C8.3148 11.5542 8.10014 12.0769 7.88547 12.5902C7.68014 13.1035 7.4748 13.6075 7.26947 14.1022C7.06414 14.5875 6.8588 15.0729 6.65347 15.5582C6.45747 16.0435 6.26147 16.5242 6.06547 17.0002ZM16.126 9.1602C16.462 9.1602 16.742 9.23953 16.966 9.3982C17.19 9.55687 17.372 9.73887 17.512 9.9442C17.652 10.1495 17.7453 10.3269 17.792 10.4762H18.45L17.778 11.9042C17.722 11.8295 17.6427 11.7689 17.54 11.7222C17.4373 11.6662 17.2927 11.6382 17.106 11.6382C16.9753 11.6382 16.8587 11.6662 16.756 11.7222C16.6533 11.7689 16.5647 11.8529 16.49 11.9742C16.4247 12.0862 16.364 12.2402 16.308 12.4362L16.098 13.2342C16.0793 13.3275 16.07 13.4069 16.07 13.4722C16.0793 13.5375 16.098 13.5935 16.126 13.6402C16.1633 13.6869 16.2193 13.7242 16.294 13.7522C16.3687 13.7709 16.4667 13.7802 16.588 13.7802C16.7467 13.7802 16.8867 13.7662 17.008 13.7382C17.1293 13.7009 17.246 13.6495 17.358 13.5842C17.47 13.5095 17.5727 13.4209 17.666 13.3182L17.316 15.1942H16.616C16.4107 15.4649 16.182 15.6982 15.93 15.8942C15.678 16.0902 15.412 16.2395 15.132 16.3422C14.8613 16.4449 14.586 16.4962 14.306 16.4962C14.0073 16.4962 13.7413 16.4402 13.508 16.3282C13.284 16.2162 13.0973 16.0575 12.948 15.8522C12.808 15.6469 12.7147 15.4042 12.668 15.1242C12.6307 14.8442 12.654 14.5409 12.738 14.2142L13.368 11.6802C13.4707 11.2602 13.6107 10.8915 13.788 10.5742C13.9653 10.2569 14.1707 9.99553 14.404 9.7902C14.6373 9.57553 14.8987 9.41687 15.188 9.3142C15.4773 9.21153 15.79 9.1602 16.126 9.1602ZM18.38 9.3002C18.8747 9.3002 19.3647 9.3002 19.85 9.3002C20.3353 9.3002 20.8207 9.3002 21.306 9.3002C21.3433 9.3002 21.3713 9.30953 21.39 9.3282C21.4087 9.33753 21.418 9.35153 21.418 9.3702C21.4273 9.38887 21.4273 9.41687 21.418 9.4542C21.278 10.0142 21.1333 10.5835 20.984 11.1622C20.844 11.7409 20.6993 12.3195 20.55 12.8982C20.41 13.4675 20.27 14.0322 20.13 14.5922C19.99 15.1429 19.8547 15.6795 19.724 16.2022C19.5 17.1169 19.1733 17.8402 18.744 18.3722C18.324 18.9135 17.764 19.2962 17.064 19.5202C16.364 19.7535 15.482 19.8702 14.418 19.8702C14.0167 19.8702 13.634 19.8515 13.27 19.8142C12.906 19.7769 12.598 19.7209 12.346 19.6462C12.0847 19.5809 11.9073 19.5015 11.814 19.4082C11.8047 19.3895 11.8 19.3709 11.8 19.3522C11.7907 19.3429 11.7907 19.3242 11.8 19.2962C11.8933 18.9415 11.9867 18.5822 12.08 18.2182C12.164 17.8542 12.2527 17.4949 12.346 17.1402H12.626C12.8593 17.2055 13.0927 17.2615 13.326 17.3082C13.5593 17.3549 13.7973 17.3875 14.04 17.4062C14.292 17.4342 14.5487 17.4482 14.81 17.4482C15.1927 17.4482 15.496 17.4155 15.72 17.3502C15.9533 17.2942 16.126 17.2102 16.238 17.0982C16.3127 17.0235 16.3733 16.9442 16.42 16.8602C16.4667 16.7669 16.504 16.6735 16.532 16.5802C16.5693 16.4775 16.5973 16.3842 16.616 16.3002C16.756 15.7682 16.8913 15.2362 17.022 14.7042C17.1527 14.1722 17.2833 13.6402 17.414 13.1082C17.554 12.5669 17.6893 12.0302 17.82 11.4982C17.8853 11.2555 17.946 11.0129 18.002 10.7702C18.0673 10.5275 18.1327 10.2849 18.198 10.0422C18.2633 9.7902 18.324 9.54287 18.38 9.3002Z" fill="white"/>
</svg>
