<svg width="24" height="24" viewBox="0 0 24 24" fill="none" xmlns="http://www.w3.org/2000/svg">
<path d="M3.866 13.0236H8.318C8.57933 13.0236 8.794 13.0656 8.962 13.1496C9.13933 13.2243 9.27933 13.3316 9.382 13.4716L9.634 13.4576V13.9896V14.5636H4.118C3.978 14.5636 3.87067 14.5076 3.796 14.3956C3.73067 14.2743 3.698 14.1203 3.698 13.9336C3.698 13.7376 3.726 13.5369 3.782 13.3316L3.866 13.0236ZM5.406 17.0276C5.31267 17.0556 5.20067 17.0789 5.07 17.0976C4.94867 17.1256 4.832 17.1396 4.72 17.1396C4.45867 17.1396 4.25333 17.0883 4.104 16.9856C3.95467 16.8736 3.86133 16.7103 3.824 16.4956C3.78667 16.2716 3.796 15.9916 3.852 15.6556C3.95467 15.1236 4.076 14.6103 4.216 14.1156C4.356 13.6209 4.51467 13.1449 4.692 12.6876C4.87867 12.2303 5.07933 11.7916 5.294 11.3716C5.50867 10.9423 5.73267 10.5363 5.966 10.1536C6.20867 9.76157 6.46067 9.38824 6.722 9.03357C6.99267 8.6789 7.268 8.34757 7.548 8.03957C7.828 7.72224 8.11733 7.42357 8.416 7.14357C8.53733 7.1249 8.66333 7.10624 8.794 7.08757C8.92467 7.0689 9.06 7.05957 9.2 7.05957C9.61067 7.05957 9.93267 7.11557 10.166 7.22757C10.3993 7.33024 10.5767 7.49824 10.698 7.73157C10.8287 7.95557 10.9313 8.24024 11.006 8.58557C11.1087 9.00557 11.188 9.4629 11.244 9.95757C11.3 10.4523 11.328 10.9796 11.328 11.5396C11.3373 12.0903 11.314 12.6736 11.258 13.2896C11.2113 13.8963 11.1273 14.5309 11.006 15.1936C10.95 15.5389 10.908 15.8609 10.88 16.1596C10.852 16.4583 10.8473 16.7476 10.866 17.0276C10.754 17.0556 10.642 17.0789 10.53 17.0976C10.4273 17.1256 10.2967 17.1396 10.138 17.1396C9.858 17.1396 9.62467 17.0929 9.438 16.9996C9.26067 16.9063 9.144 16.7523 9.088 16.5376C9.032 16.3229 9.04133 16.0383 9.116 15.6836C9.256 15.0209 9.35867 14.4096 9.424 13.8496C9.49867 13.2896 9.54067 12.7716 9.55 12.2956C9.55933 11.8103 9.54533 11.3483 9.508 10.9096C9.48 10.4709 9.42867 10.0416 9.354 9.62157C9.27933 9.19224 9.19067 8.7629 9.088 8.33357L9.494 8.75357L8.752 8.64157L9.298 8.38957C8.822 8.9589 8.39267 9.53757 8.01 10.1256C7.62733 10.7136 7.28667 11.3063 6.988 11.9036C6.68933 12.5009 6.43267 13.0983 6.218 13.6956C6.01267 14.2836 5.84 14.8576 5.7 15.4176C5.56933 15.9776 5.47133 16.5143 5.406 17.0276ZM16.6955 9.34157C17.0128 9.34157 17.2928 9.39757 17.5355 9.50957C17.7781 9.62157 17.9881 9.77557 18.1655 9.97157C18.3521 10.1583 18.5061 10.3636 18.6275 10.5876H19.0475L18.6835 11.7496C18.5248 11.4603 18.2915 11.2503 17.9835 11.1196C17.6848 10.9796 17.3581 10.9096 17.0035 10.9096C16.6488 10.9096 16.3268 10.9983 16.0375 11.1756C15.7575 11.3436 15.5148 11.5956 15.3095 11.9316C15.1041 12.2676 14.9361 12.6783 14.8055 13.1636L14.7355 13.4156C14.6701 13.6583 14.6188 13.8869 14.5815 14.1016C14.5535 14.3069 14.5395 14.5076 14.5395 14.7036C14.6141 14.7596 14.6888 14.8016 14.7635 14.8296C14.8475 14.8483 14.9408 14.8576 15.0435 14.8576C15.4075 14.8576 15.7855 14.7876 16.1775 14.6476C16.5788 14.5076 16.9801 14.2603 17.3815 13.9056C17.7921 13.5416 18.1981 13.0189 18.5995 12.3376L18.1095 14.6896L17.5915 14.6616C17.3301 15.0536 17.0315 15.3989 16.6955 15.6976C16.3595 15.9963 16.0141 16.2296 15.6595 16.3976C15.3048 16.5563 14.9688 16.6356 14.6515 16.6356C14.2781 16.6356 13.9608 16.5469 13.6995 16.3696C13.4475 16.1829 13.2515 15.9403 13.1115 15.6416C12.9808 15.3336 12.9015 14.9976 12.8735 14.6336C12.8548 14.2603 12.8875 13.8869 12.9715 13.5136L13.0695 13.1636C13.2375 12.4916 13.4428 11.9129 13.6855 11.4276C13.9375 10.9423 14.2221 10.5456 14.5395 10.2376C14.8568 9.92957 15.1928 9.70557 15.5475 9.56557C15.9115 9.41624 16.2941 9.34157 16.6955 9.34157ZM19.1595 9.43957C19.2155 9.4209 19.2761 9.4069 19.3415 9.39757C19.4068 9.38824 19.4768 9.38357 19.5515 9.38357C19.8035 9.38357 20.0088 9.4489 20.1675 9.57957C20.3355 9.7009 20.4428 9.8689 20.4895 10.0836C20.5455 10.2983 20.5221 10.5409 20.4195 10.8116C20.1861 11.3903 19.9995 11.9503 19.8595 12.4916C19.7195 13.0329 19.5935 13.5556 19.4815 14.0596C19.3788 14.5636 19.2668 15.0629 19.1455 15.5576C19.0241 16.0429 18.8748 16.5329 18.6975 17.0276C18.4735 17.6343 18.1421 18.1429 17.7035 18.5536C17.2741 18.9736 16.7608 19.2863 16.1635 19.4916C15.5755 19.7063 14.9361 19.8136 14.2455 19.8136C13.9001 19.8136 13.6108 19.7856 13.3775 19.7296C13.1535 19.6829 12.9715 19.6129 12.8315 19.5196C12.7008 19.4356 12.5935 19.3469 12.5095 19.2536C12.4161 19.1229 12.3648 18.9736 12.3555 18.8056C12.3368 18.6376 12.3555 18.4463 12.4115 18.2316C12.4395 18.1383 12.4675 18.0543 12.4955 17.9796C12.5235 17.9049 12.5561 17.8303 12.5935 17.7556H12.6775C12.8361 17.8583 13.0135 17.9469 13.2095 18.0216C13.4055 18.0963 13.6295 18.1476 13.8815 18.1756C14.1428 18.2129 14.4415 18.2316 14.7775 18.2316C15.0481 18.2316 15.3095 18.2083 15.5615 18.1616C15.8135 18.1149 16.0608 18.0403 16.3035 17.9376C16.4435 17.7509 16.5648 17.5689 16.6675 17.3916C16.7795 17.2236 16.8775 17.0463 16.9615 16.8596C17.0548 16.6636 17.1435 16.4489 17.2275 16.2156C17.4048 15.6743 17.5495 15.1423 17.6615 14.6196C17.7828 14.0876 17.9041 13.5323 18.0255 12.9536C18.1561 12.3749 18.3288 11.7496 18.5435 11.0776C18.5995 10.9003 18.6601 10.7229 18.7255 10.5456C18.7908 10.3683 18.8608 10.1863 18.9355 9.99957C19.0101 9.8129 19.0848 9.62624 19.1595 9.43957Z" fill="white"/>
</svg>
