<svg width="24" height="24" viewBox="0 0 24 24" fill="none" xmlns="http://www.w3.org/2000/svg">
<path d="M5.36399 12.9822H8.12199C8.29932 12.9822 8.46732 12.9822 8.62599 12.9822C8.79399 12.9822 8.96666 12.9822 9.14399 12.9822L9.78799 12.8562L9.96999 14.0182L10.152 15.1802H5.50399C5.47599 15.1802 5.44799 15.1755 5.41999 15.1662C5.40132 15.1475 5.38266 15.1289 5.36399 15.1102C5.35466 15.0822 5.34999 15.0542 5.34999 15.0262L5.36399 12.9822ZM6.23199 17.0002C5.79332 17.0002 5.35466 17.0002 4.91599 17.0002C4.47732 17.0002 4.03866 17.0002 3.59999 17.0002C3.58132 17.0002 3.55799 16.9955 3.52999 16.9862C3.51132 16.9769 3.49266 16.9582 3.47399 16.9302C3.46466 16.9022 3.46466 16.8649 3.47399 16.8182C3.55799 16.4449 3.64199 16.0435 3.72599 15.6142C3.81932 15.1849 3.91732 14.7322 4.01999 14.2562C4.12266 13.7802 4.22532 13.2949 4.32799 12.8002C4.43999 12.2962 4.54732 11.7969 4.64999 11.3022C4.76199 10.8075 4.86932 10.3222 4.97199 9.8462C5.07466 9.36087 5.17266 8.89887 5.26599 8.4602C5.35932 8.0122 5.44799 7.5922 5.53199 7.2002C6.25999 7.2002 6.99732 7.2002 7.74399 7.2002C8.49066 7.2002 9.21399 7.2002 9.91399 7.2002C9.95132 7.2002 9.97932 7.20487 9.99799 7.2142C10.0167 7.22353 10.0307 7.2422 10.04 7.2702C10.0587 7.28887 10.0727 7.31687 10.082 7.3542C10.2127 7.95153 10.3433 8.5582 10.474 9.1742C10.614 9.7902 10.7493 10.4202 10.88 11.0642C11.02 11.7082 11.16 12.3615 11.3 13.0242C11.4493 13.6869 11.594 14.3589 11.734 15.0402C11.7993 15.3669 11.8647 15.6935 11.93 16.0202C12.0047 16.3375 12.0747 16.6642 12.14 17.0002C11.7107 17.0002 11.2767 17.0002 10.838 17.0002C10.3993 17.0002 9.97932 17.0002 9.57799 17.0002C9.51266 17.0002 9.46132 16.9955 9.42399 16.9862C9.39599 16.9675 9.37266 16.9349 9.35399 16.8882C9.33532 16.8322 9.31199 16.7482 9.28399 16.6362C9.16266 16.0389 9.04132 15.4649 8.91999 14.9142C8.80799 14.3542 8.70066 13.8175 8.59799 13.3042C8.50466 12.7909 8.41132 12.2915 8.31799 11.8062C8.23399 11.3209 8.15466 10.8542 8.07999 10.4062C8.01466 9.94887 7.94932 9.50553 7.88399 9.0762L8.34599 9.4542H7.25399L7.70199 9.0762C7.63666 9.51487 7.56666 9.96753 7.49199 10.4342C7.41732 10.8915 7.33332 11.3675 7.23999 11.8622C7.15599 12.3569 7.05799 12.8749 6.94599 13.4162C6.84332 13.9482 6.73132 14.5129 6.60999 15.1102C6.48866 15.7075 6.36266 16.3375 6.23199 17.0002ZM13.1815 15.8242C13.1815 15.6002 13.2281 15.3949 13.3215 15.2082C13.4148 15.0122 13.5641 14.8489 13.7695 14.7182C13.9748 14.5875 14.2501 14.4989 14.5955 14.4522V13.9482L15.8275 14.2702C15.8275 14.3822 15.8275 14.4895 15.8275 14.5922C15.8275 14.6855 15.8275 14.7789 15.8275 14.8722C15.8275 14.9935 15.8508 15.0775 15.8975 15.1242C15.9535 15.1615 16.0608 15.1802 16.2195 15.1802H17.8995C18.4595 15.1802 18.9215 15.2642 19.2855 15.4322C19.6588 15.5909 19.9341 15.8242 20.1115 16.1322C20.2981 16.4309 20.3915 16.7995 20.3915 17.2382V17.8682C20.3915 18.2229 20.3401 18.5355 20.2375 18.8062C20.1348 19.0769 19.9808 19.3009 19.7755 19.4782C19.5701 19.6649 19.3088 19.8049 18.9915 19.8982C18.6835 19.9915 18.3195 20.0382 17.8995 20.0382H14.4135C14.0028 20.0382 13.6528 19.9822 13.3635 19.8702C13.0835 19.7675 12.8688 19.6182 12.7195 19.4222C12.5701 19.2262 12.4955 18.9835 12.4955 18.6942V18.4982C12.4955 18.2369 12.5468 18.0175 12.6495 17.8402C12.7615 17.6629 12.9155 17.5182 13.1115 17.4062C13.3075 17.3035 13.5455 17.2289 13.8255 17.1822V16.7062L15.0995 17.0982C15.0621 17.1635 15.0341 17.2289 15.0155 17.2942C14.9968 17.3595 14.9828 17.4295 14.9735 17.5042C14.9641 17.5789 14.9595 17.6675 14.9595 17.7702V18.1202C14.9595 18.1949 14.9688 18.2555 14.9875 18.3022C15.0061 18.3489 15.0388 18.3815 15.0855 18.4002C15.1321 18.4189 15.1928 18.4282 15.2675 18.4282H17.4375C17.4935 18.4282 17.5401 18.4189 17.5775 18.4002C17.6148 18.3909 17.6475 18.3722 17.6755 18.3442C17.6941 18.3255 17.7081 18.2929 17.7175 18.2462C17.7361 18.1995 17.7455 18.1435 17.7455 18.0782V17.5462C17.7455 17.4249 17.7175 17.3409 17.6615 17.2942C17.6148 17.2569 17.5355 17.2382 17.4235 17.2382H15.1835C14.7075 17.2382 14.3201 17.1729 14.0215 17.0422C13.7321 16.9115 13.5175 16.7389 13.3775 16.5242C13.2468 16.3095 13.1815 16.0762 13.1815 15.8242ZM17.1855 11.0782L18.5715 11.0362V11.4002C18.9261 11.4749 19.2061 11.6055 19.4115 11.7922C19.6261 11.9789 19.7335 12.2262 19.7335 12.5342V12.6462C19.7335 13.0382 19.6028 13.3695 19.3415 13.6402C19.0895 13.9015 18.7115 14.0975 18.2075 14.2282C17.7035 14.3589 17.0781 14.4242 16.3315 14.4242C15.5941 14.4242 14.9548 14.3309 14.4135 14.1442C13.8721 13.9482 13.4521 13.6682 13.1535 13.3042C12.8641 12.9402 12.7195 12.4969 12.7195 11.9742V11.6242C12.7195 11.1015 12.8688 10.6582 13.1675 10.2942C13.4661 9.9302 13.8861 9.65953 14.4275 9.4822C14.9781 9.29553 15.6175 9.2022 16.3455 9.2022C17.0081 9.2022 17.6708 9.2022 18.3335 9.2022C18.9961 9.2022 19.6541 9.2022 20.3075 9.2022C20.3075 9.50087 20.3075 9.79953 20.3075 10.0982C20.3075 10.3875 20.3075 10.6862 20.3075 10.9942C20.3075 11.0315 20.2935 11.0689 20.2655 11.1062C20.2468 11.1342 20.2095 11.1482 20.1535 11.1482C19.7801 11.1482 19.3788 11.1482 18.9495 11.1482C18.5295 11.1482 18.0955 11.1482 17.6475 11.1482C17.2088 11.1482 16.7655 11.1482 16.3175 11.1482C15.9908 11.1482 15.7481 11.1995 15.5895 11.3022C15.4401 11.3955 15.3655 11.5402 15.3655 11.7362V11.9042C15.3655 11.9789 15.3748 12.0489 15.3935 12.1142C15.4215 12.1702 15.4588 12.2262 15.5055 12.2822C15.5801 12.3569 15.6828 12.4129 15.8135 12.4502C15.9535 12.4875 16.1168 12.5062 16.3035 12.5062C16.6675 12.5062 16.9241 12.4502 17.0735 12.3382C17.2228 12.2262 17.2975 12.0675 17.2975 11.8622V11.6522C17.2975 11.5775 17.2928 11.5122 17.2835 11.4562C17.2741 11.3909 17.2601 11.3302 17.2415 11.2742C17.2321 11.2089 17.2135 11.1435 17.1855 11.0782Z" fill="white"/>
</svg>
