<svg width="24" height="24" viewBox="0 0 24 24" fill="none" xmlns="http://www.w3.org/2000/svg">
<path d="M3.656 12.9816H7.898C8.18733 12.9816 8.43933 13.0096 8.654 13.0656C8.86867 13.1216 9.06 13.2149 9.228 13.3456L9.732 13.1636V13.9476V14.7596H4.412C4.20667 14.7596 4.048 14.7036 3.936 14.5916C3.824 14.4796 3.74933 14.3163 3.712 14.1016C3.67467 13.8776 3.656 13.6116 3.656 13.3036V12.9816ZM6.232 17.0136C6.08267 17.0509 5.92867 17.0789 5.77 17.0976C5.62067 17.1256 5.47133 17.1396 5.322 17.1396C5.098 17.1396 4.89733 17.1116 4.72 17.0556C4.54267 16.9996 4.40267 16.9109 4.3 16.7896C4.20667 16.6589 4.16 16.4909 4.16 16.2856C4.16 15.7723 4.18333 15.2636 4.23 14.7596C4.27667 14.2556 4.342 13.7609 4.426 13.2756C4.51 12.7809 4.61267 12.3049 4.734 11.8476C4.85533 11.3903 4.99067 10.9469 5.14 10.5176C5.29867 10.0883 5.47133 9.67757 5.658 9.28557C5.84467 8.88424 6.04533 8.50624 6.26 8.15157C6.47467 7.7969 6.70333 7.46557 6.946 7.15757C7.06733 7.12024 7.198 7.0969 7.338 7.08757C7.478 7.0689 7.64133 7.05957 7.828 7.05957C8.192 7.05957 8.50467 7.11557 8.766 7.22757C9.03667 7.33957 9.27933 7.54024 9.494 7.82957C9.718 8.10957 9.93733 8.50624 10.152 9.01957C10.32 9.40224 10.474 9.82224 10.614 10.2796C10.7633 10.7369 10.9033 11.2223 11.034 11.7356C11.1647 12.2489 11.2813 12.7856 11.384 13.3456C11.4867 13.9056 11.566 14.4703 11.622 15.0396C11.6593 15.3663 11.6873 15.6976 11.706 16.0336C11.7247 16.3603 11.7387 16.6869 11.748 17.0136C11.636 17.0509 11.5053 17.0789 11.356 17.0976C11.216 17.1256 11.0713 17.1396 10.922 17.1396C10.6513 17.1396 10.4227 17.1069 10.236 17.0416C10.0587 16.9763 9.92333 16.8783 9.83 16.7476C9.73667 16.6169 9.68067 16.4583 9.662 16.2716C9.61533 15.5716 9.55 14.9323 9.466 14.3536C9.39133 13.7749 9.298 13.2336 9.186 12.7296C9.08333 12.2163 8.962 11.7356 8.822 11.2876C8.682 10.8303 8.528 10.3869 8.36 9.95757C8.20133 9.52824 8.024 9.09424 7.828 8.65557L8.402 9.06157H7.478L8.094 8.65557C7.85133 9.1689 7.62733 9.66357 7.422 10.1396C7.226 10.6156 7.058 11.0963 6.918 11.5816C6.778 12.0669 6.65667 12.5803 6.554 13.1216C6.45133 13.6629 6.372 14.2509 6.316 14.8856C6.26933 15.5203 6.24133 16.2296 6.232 17.0136ZM14.2315 16.0896C14.2315 15.8843 14.2641 15.6929 14.3295 15.5156C14.4041 15.3383 14.5115 15.1843 14.6515 15.0536C14.8008 14.9136 14.9828 14.8016 15.1975 14.7176V14.5076L16.2335 14.5916C16.1401 14.7223 16.0748 14.8623 16.0375 15.0116C16.0001 15.1516 15.9815 15.3103 15.9815 15.4876C15.9815 15.6183 16.0235 15.7303 16.1075 15.8236C16.2008 15.9076 16.3315 15.9589 16.4995 15.9776L18.3475 16.1036C18.7021 16.1316 19.0148 16.2203 19.2855 16.3696C19.5561 16.5096 19.7708 16.7056 19.9295 16.9576C20.0881 17.2003 20.1675 17.4943 20.1675 17.8396V18.0496C20.1675 18.4229 20.0741 18.7636 19.8875 19.0716C19.7008 19.3796 19.4255 19.6363 19.0615 19.8416C18.6975 20.0563 18.2448 20.2196 17.7035 20.3316C17.1621 20.4436 16.5321 20.4996 15.8135 20.4996H15.6175C14.9735 20.4996 14.4321 20.4249 13.9935 20.2756C13.5548 20.1263 13.2235 19.9116 12.9995 19.6316C12.7755 19.3609 12.6635 19.0389 12.6635 18.6656V18.4976C12.6635 18.2176 12.7381 17.9609 12.8875 17.7276C13.0368 17.5036 13.2468 17.3169 13.5175 17.1676C13.7881 17.0276 14.1008 16.9483 14.4555 16.9296V16.6076L15.3935 17.1536C15.1975 17.2469 15.0388 17.3496 14.9175 17.4616C14.7961 17.5736 14.7075 17.6996 14.6515 17.8396C14.5955 17.9796 14.5675 18.1429 14.5675 18.3296V18.4696C14.5675 18.6563 14.6095 18.8103 14.6935 18.9316C14.7868 19.0529 14.9268 19.1369 15.1135 19.1836C15.3095 19.2396 15.5568 19.2676 15.8555 19.2676H16.1075C16.5181 19.2676 16.8868 19.2536 17.2135 19.2256C17.5495 19.1976 17.8575 19.1463 18.1375 19.0716C18.2028 18.9783 18.2448 18.8803 18.2635 18.7776C18.2821 18.6843 18.2915 18.5863 18.2915 18.4836V18.3436C18.2915 18.1849 18.2448 18.0589 18.1515 17.9656C18.0675 17.8723 17.9415 17.8209 17.7735 17.8116L16.1775 17.6996C15.7761 17.6623 15.4308 17.5689 15.1415 17.4196C14.8521 17.2796 14.6281 17.0929 14.4695 16.8596C14.3108 16.6263 14.2315 16.3696 14.2315 16.0896ZM16.9335 10.7556L18.3055 10.7976V11.1616C18.6321 11.3203 18.8841 11.5163 19.0615 11.7496C19.2388 11.9829 19.3275 12.2583 19.3275 12.5756V12.7156C19.3275 13.1543 19.1968 13.5276 18.9355 13.8356C18.6741 14.1343 18.3148 14.3629 17.8575 14.5216C17.4001 14.6803 16.8821 14.7596 16.3035 14.7596C15.6688 14.7689 15.1041 14.6756 14.6095 14.4796C14.1241 14.2743 13.7415 13.9756 13.4615 13.5836C13.1815 13.1916 13.0415 12.7296 13.0415 12.1976V12.0716C13.0415 11.5116 13.1815 11.0263 13.4615 10.6156C13.7508 10.1956 14.1708 9.8689 14.7215 9.63557C15.2815 9.40224 15.9675 9.28557 16.7795 9.28557C17.3768 9.28557 17.9135 9.2949 18.3895 9.31357C18.8748 9.33224 19.3928 9.36957 19.9435 9.42557C19.9715 9.48157 19.9901 9.57024 19.9995 9.69157C20.0181 9.80357 20.0275 9.92024 20.0275 10.0416C20.0275 10.3589 19.9761 10.6156 19.8735 10.8116C19.7801 11.0076 19.6168 11.1056 19.3835 11.1056C19.2061 11.1056 19.0055 11.0916 18.7815 11.0636C18.5668 11.0356 18.2868 11.0076 17.9415 10.9796C17.5961 10.9516 17.1621 10.9376 16.6395 10.9376C16.0235 10.9376 15.5568 11.0496 15.2395 11.2736C14.9315 11.4883 14.7775 11.8243 14.7775 12.2816V12.3936C14.7775 12.5149 14.7915 12.6409 14.8195 12.7716C14.8475 12.8929 14.8988 13.0143 14.9735 13.1356C15.1695 13.2196 15.3655 13.2803 15.5615 13.3176C15.7575 13.3549 16.0001 13.3736 16.2895 13.3736C16.7375 13.3736 17.0828 13.2849 17.3255 13.1076C17.5681 12.9303 17.6895 12.6736 17.6895 12.3376V12.1836C17.6895 12.0249 17.6708 11.8616 17.6335 11.6936C17.5961 11.5256 17.5215 11.3623 17.4095 11.2036C17.3068 11.0356 17.1481 10.8863 16.9335 10.7556Z" fill="white"/>
</svg>
