<svg width="24" height="24" viewBox="0 0 24 24" fill="none" xmlns="http://www.w3.org/2000/svg">
<path d="M3.47546 17.0002L8.64146 7.2002H10.6575L11.6375 17.0002H9.95746L9.74746 14.6342H6.37346L5.15546 17.0002H3.47546ZM7.03146 13.3322H9.66346L9.27146 8.9922L7.03146 13.3322ZM15.818 20.0662C15.2767 20.0662 14.7353 19.9775 14.194 19.8002C13.6527 19.6229 13.1767 19.3755 12.766 19.0582L13.452 17.9242C13.8533 18.2042 14.25 18.4142 14.642 18.5542C15.0433 18.7035 15.4307 18.7782 15.804 18.7782C16.2427 18.7782 16.5973 18.6615 16.868 18.4282C17.148 18.1949 17.3347 17.8589 17.428 17.4202L17.68 16.2582C17.4093 16.5382 17.1107 16.7435 16.784 16.8742C16.4667 17.0049 16.126 17.0702 15.762 17.0702C15.2673 17.0702 14.824 16.9302 14.432 16.6502C14.04 16.3702 13.7273 15.9922 13.494 15.5162C13.27 15.0402 13.158 14.5082 13.158 13.9202C13.158 13.3789 13.2513 12.8702 13.438 12.3942C13.634 11.9089 13.8953 11.4842 14.222 11.1202C14.5487 10.7469 14.9267 10.4575 15.356 10.2522C15.7947 10.0375 16.2613 9.9302 16.756 9.9302C17.1853 9.9302 17.5773 10.0189 17.932 10.1962C18.296 10.3735 18.59 10.6302 18.814 10.9662L19.01 9.9862H20.55L18.926 17.5882C18.758 18.3909 18.4033 19.0022 17.862 19.4222C17.3207 19.8515 16.6393 20.0662 15.818 20.0662ZM16.434 15.7822C16.9753 15.7822 17.47 15.5769 17.918 15.1662L18.562 12.0862C18.394 11.8249 18.17 11.6195 17.89 11.4702C17.61 11.3209 17.302 11.2462 16.966 11.2462C16.546 11.2462 16.1633 11.3629 15.818 11.5962C15.4727 11.8202 15.1973 12.1235 14.992 12.5062C14.7867 12.8889 14.684 13.3229 14.684 13.8082C14.684 14.3775 14.8427 14.8489 15.16 15.2222C15.4773 15.5955 15.902 15.7822 16.434 15.7822Z" fill="white"/>
</svg>
