<svg width="24" height="24" viewBox="0 0 24 24" fill="none" xmlns="http://www.w3.org/2000/svg">
<path d="M3.33547 17.0002L8.23547 7.2002H11.0075L11.7355 17.0002H9.35547L9.27147 15.0822H6.56947L5.65947 17.0002H3.33547ZM7.45147 13.2202H9.20147L9.06147 9.8462L7.45147 13.2202ZM15.72 20.0662C15.1227 20.0662 14.5487 19.9729 13.998 19.7862C13.4567 19.6089 12.9573 19.3615 12.5 19.0442L13.396 17.4762C13.7973 17.7375 14.1987 17.9429 14.6 18.0922C15.0013 18.2415 15.3887 18.3162 15.762 18.3162C16.1167 18.3162 16.4013 18.2182 16.616 18.0222C16.8307 17.8262 16.98 17.5369 17.064 17.1542L17.26 16.2022C16.98 16.5195 16.686 16.7389 16.378 16.8602C16.0793 16.9815 15.762 17.0422 15.426 17.0422C14.95 17.0422 14.5207 16.8975 14.138 16.6082C13.7647 16.3189 13.4707 15.9315 13.256 15.4462C13.0413 14.9609 12.934 14.4242 12.934 13.8362C12.934 13.2855 13.0273 12.7629 13.214 12.2682C13.41 11.7735 13.676 11.3395 14.012 10.9662C14.348 10.5835 14.7353 10.2849 15.174 10.0702C15.6127 9.8462 16.0793 9.7342 16.574 9.7342C16.9567 9.7342 17.316 9.81353 17.652 9.9722C17.988 10.1215 18.2587 10.3362 18.464 10.6162L18.646 9.7762H20.83L19.206 17.4062C19.0287 18.2742 18.6273 18.9322 18.002 19.3802C17.386 19.8375 16.6253 20.0662 15.72 20.0662ZM16.406 15.2642C16.826 15.2642 17.2133 15.1009 17.568 14.7742L18.128 12.1002C17.9693 11.9229 17.7873 11.7875 17.582 11.6942C17.3767 11.6009 17.1527 11.5542 16.91 11.5542C16.5647 11.5542 16.2567 11.6522 15.986 11.8482C15.7153 12.0349 15.5007 12.2915 15.342 12.6182C15.1833 12.9355 15.104 13.2949 15.104 13.6962C15.104 14.1349 15.216 14.5082 15.44 14.8162C15.664 15.1149 15.986 15.2642 16.406 15.2642Z" fill="white"/>
</svg>
