<svg width="24" height="24" viewBox="0 0 24 24" fill="none" xmlns="http://www.w3.org/2000/svg">
<path d="M3.08791 17.0002L6.93791 7.2002H8.88391L12.6779 17.0002H10.8719L9.86391 14.2562H5.84591L4.83791 17.0002H3.08791ZM6.33591 12.9402H9.40191L7.86191 8.7962L6.33591 12.9402ZM16.7208 20.0662C16.2262 20.0662 15.7362 20.0055 15.2508 19.8842C14.7655 19.7629 14.3175 19.5949 13.9068 19.3802L14.4528 18.2182C14.8728 18.4142 15.2555 18.5589 15.6008 18.6522C15.9555 18.7549 16.3055 18.8062 16.6508 18.8062C17.2388 18.8062 17.6822 18.6755 17.9808 18.4142C18.2888 18.1529 18.4428 17.7655 18.4428 17.2522V16.0622C18.1908 16.3702 17.8782 16.6129 17.5048 16.7902C17.1315 16.9582 16.7255 17.0422 16.2868 17.0422C15.6988 17.0422 15.1668 16.8835 14.6908 16.5662C14.2148 16.2395 13.8322 15.8102 13.5428 15.2782C13.2628 14.7369 13.1228 14.1349 13.1228 13.4722C13.1228 12.8095 13.2675 12.2122 13.5568 11.6802C13.8462 11.1482 14.2382 10.7235 14.7328 10.4062C15.2368 10.0889 15.7922 9.9302 16.3988 9.9302C16.8095 9.9302 17.1922 10.0095 17.5468 10.1682C17.9015 10.3269 18.2048 10.5602 18.4568 10.8682V9.9862H20.0248V17.2522C20.0248 18.1575 19.7402 18.8529 19.1708 19.3382C18.6015 19.8235 17.7848 20.0662 16.7208 20.0662ZM16.7768 15.7262C17.1128 15.7262 17.4255 15.6609 17.7148 15.5302C18.0042 15.3902 18.2468 15.1989 18.4428 14.9562V12.0162C18.2375 11.7735 17.9902 11.5869 17.7008 11.4562C17.4115 11.3255 17.1035 11.2602 16.7768 11.2602C16.3755 11.2602 16.0162 11.3582 15.6988 11.5542C15.3908 11.7409 15.1435 12.0022 14.9568 12.3382C14.7795 12.6649 14.6908 13.0475 14.6908 13.4862C14.6908 13.9062 14.7795 14.2889 14.9568 14.6342C15.1435 14.9702 15.3908 15.2362 15.6988 15.4322C16.0162 15.6282 16.3755 15.7262 16.7768 15.7262Z" fill="white"/>
</svg>
