<svg width="24" height="24" viewBox="0 0 24 24" fill="none" xmlns="http://www.w3.org/2000/svg">
<path d="M10.2305 7.32715L12.2881 15.585L13.915 15.8242L10.0664 17.4648L11.3789 15.7969L10.6133 13.8896L7.08594 14.0059L6.36816 16.0361L7.6875 17.7725L3.59961 16.1592L5.60938 15.9609L6.18359 14.0332H5.84863L5.27441 13.3018L6.43652 13.1787L7.67383 9.0498L6.27246 8.31836L10.2305 7.32715ZM7.40723 13.0693L10.1348 12.7549L8.7334 9.28906L7.40723 13.0693ZM20.9355 9.95898L19.6367 11.0938C19.6868 11.472 19.7233 11.8548 19.7461 12.2422C19.7734 12.625 19.7871 13.0078 19.7871 13.3906C19.7871 14.2747 19.7415 15.0928 19.6504 15.8447C19.5638 16.5921 19.402 17.237 19.165 17.7793C18.9326 18.3216 18.609 18.7454 18.1943 19.0508C17.7796 19.3561 17.2464 19.5088 16.5947 19.5088C16.4717 19.5088 16.3441 19.4906 16.2119 19.4541C16.0843 19.4222 15.959 19.3789 15.8359 19.3242C15.7174 19.2695 15.6035 19.208 15.4941 19.1396C15.3848 19.0713 15.2868 19.0029 15.2002 18.9346L14.4004 19.8301L14.2158 16.8633C14.4528 17.2871 14.6875 17.6175 14.9199 17.8545C15.1569 18.096 15.3757 18.276 15.5762 18.3945C15.7767 18.5176 15.9567 18.5928 16.1162 18.6201C16.2757 18.652 16.3988 18.668 16.4854 18.668C16.5947 18.668 16.7064 18.6611 16.8203 18.6475C16.9388 18.6383 17.0527 18.6087 17.1621 18.5586C17.276 18.5085 17.3854 18.4287 17.4902 18.3193C17.5996 18.2145 17.6999 18.0687 17.791 17.8818C17.8867 17.695 17.971 17.458 18.0439 17.1709C18.1214 16.8883 18.1852 16.542 18.2354 16.1318C18.126 16.2913 18.0052 16.4417 17.873 16.583C17.7409 16.7197 17.5928 16.8405 17.4287 16.9453C17.2692 17.0456 17.096 17.1253 16.9092 17.1846C16.7223 17.2484 16.5195 17.2803 16.3008 17.2803C15.9499 17.2712 15.6149 17.1914 15.2959 17.041C14.9814 16.8906 14.7035 16.6764 14.4619 16.3984C14.2249 16.1159 14.0358 15.7718 13.8945 15.3662C13.7533 14.9561 13.6826 14.4889 13.6826 13.9648C13.6826 13.3268 13.7578 12.7663 13.9082 12.2832C14.0586 11.8001 14.2637 11.3968 14.5234 11.0732C14.7832 10.7497 15.0863 10.5104 15.4326 10.3555C15.7835 10.196 16.1572 10.123 16.5537 10.1367C16.9274 10.1549 17.2533 10.2461 17.5312 10.4102C17.8092 10.5697 18.0439 10.7679 18.2354 11.0049C18.2262 10.8955 18.2148 10.7816 18.2012 10.6631C18.1921 10.5446 18.1807 10.4215 18.167 10.2939L20.9355 9.95898ZM18.3584 13.8213C18.3584 13.5524 18.3538 13.2835 18.3447 13.0146C18.3402 12.7412 18.3311 12.4541 18.3174 12.1533C18.2445 12.0075 18.1602 11.8685 18.0645 11.7363C17.9733 11.5996 17.8708 11.4811 17.7568 11.3809C17.6475 11.2806 17.529 11.2008 17.4014 11.1416C17.2783 11.0824 17.1462 11.0527 17.0049 11.0527C16.6904 11.0527 16.4215 11.1302 16.1982 11.2852C15.9795 11.4401 15.7972 11.6543 15.6514 11.9277C15.5101 12.2012 15.4053 12.5247 15.3369 12.8984C15.2731 13.2721 15.2412 13.6777 15.2412 14.1152C15.2412 14.4388 15.2686 14.7419 15.3232 15.0244C15.3779 15.3024 15.4577 15.5439 15.5625 15.749C15.6673 15.9541 15.7995 16.1159 15.959 16.2344C16.1185 16.3529 16.3031 16.4121 16.5127 16.4121C16.5264 16.4121 16.5674 16.4098 16.6357 16.4053C16.7041 16.3962 16.7884 16.3757 16.8887 16.3438C16.9935 16.3073 17.1097 16.2572 17.2373 16.1934C17.3649 16.1296 17.4948 16.0407 17.627 15.9268C17.7591 15.8128 17.8867 15.6715 18.0098 15.5029C18.1328 15.3298 18.2445 15.1201 18.3447 14.874C18.3538 14.7145 18.3584 14.5482 18.3584 14.375C18.3584 14.1973 18.3584 14.0127 18.3584 13.8213Z" fill="white"/>
</svg>
