<svg width="24" height="24" viewBox="0 0 24 24" fill="none" xmlns="http://www.w3.org/2000/svg">
<path d="M4.60625 12.8139H8.28825L8.13425 13.9339H4.22825L4.60625 12.8139ZM7.33625 8.33391L7.58825 8.31991L3.86425 15.5579C3.85492 15.6046 3.87825 15.6512 3.93425 15.6979C3.99025 15.7446 4.07892 15.7819 4.20025 15.8099C4.32158 15.8286 4.46625 15.8379 4.63425 15.8379H4.78825L4.53625 16.9999H1.44225L1.69425 15.8379H1.77825C1.97425 15.8379 2.14692 15.7866 2.29625 15.6839C2.44558 15.5812 2.59492 15.3899 2.74425 15.1099L6.94425 7.00391H10.1783L10.9623 15.1939C10.9809 15.4459 11.0463 15.6186 11.1583 15.7119C11.2796 15.7959 11.4429 15.8379 11.6483 15.8379H11.7183L11.4663 16.9999H6.63625L6.88825 15.8379H7.05625C7.22425 15.8379 7.37358 15.8332 7.50425 15.8239C7.63492 15.8146 7.73292 15.8006 7.79825 15.7819C7.87292 15.7539 7.91492 15.7259 7.92425 15.6979L7.33625 8.33391ZM17.2591 17.2099L18.5751 11.0219L18.6871 10.9939L20.0591 9.29991H21.8231L20.1851 16.9299C20.0077 17.7419 19.7277 18.4046 19.3451 18.9179C18.9624 19.4406 18.4491 19.8232 17.8051 20.0659C17.1704 20.3086 16.3771 20.4299 15.4251 20.4299C14.8091 20.4299 14.2584 20.3786 13.7731 20.2759C13.2971 20.1732 12.8911 20.0426 12.5551 19.8839C12.2191 19.7252 11.9531 19.5619 11.7571 19.3939L12.1071 17.7699H14.2071L13.8151 19.6179C13.6937 19.5899 13.5957 19.5246 13.5211 19.4219C13.4464 19.3286 13.3951 19.2166 13.3671 19.0859C13.3391 18.9646 13.3297 18.8479 13.3391 18.7359C13.3577 18.6332 13.3951 18.5539 13.4511 18.4979C13.5444 18.6099 13.6657 18.7219 13.8151 18.8339C13.9737 18.9552 14.1791 19.0532 14.4311 19.1279C14.6831 19.2026 14.9911 19.2399 15.3551 19.2399C15.7377 19.2399 16.0504 19.1699 16.2931 19.0299C16.5357 18.8992 16.7317 18.6846 16.8811 18.3859C17.0304 18.0872 17.1564 17.6952 17.2591 17.2099ZM19.5831 11.9179L18.8131 12.1559C18.7571 11.8572 18.6731 11.5959 18.5611 11.3719C18.4584 11.1386 18.3184 10.9566 18.1411 10.8259C17.9637 10.6859 17.7397 10.6159 17.4691 10.6159C17.2171 10.6159 16.9884 10.6999 16.7831 10.8679C16.5777 11.0266 16.3957 11.2412 16.2371 11.5119C16.0784 11.7826 15.9477 12.0812 15.8451 12.4079C15.7424 12.7252 15.6631 13.0472 15.6071 13.3739C15.5604 13.6912 15.5371 13.9852 15.5371 14.2559C15.5371 14.5266 15.5651 14.7506 15.6211 14.9279C15.6771 15.0959 15.7657 15.2219 15.8871 15.3059C16.0177 15.3899 16.1717 15.4319 16.3491 15.4319C16.5731 15.4319 16.7831 15.3619 16.9791 15.2219C17.1844 15.0819 17.3991 14.8719 17.6231 14.5919C17.8564 14.3026 18.1224 13.9432 18.4211 13.5139L18.6451 14.0039C18.2811 14.6292 17.9357 15.1612 17.6091 15.5999C17.2824 16.0386 16.9324 16.3746 16.5591 16.6079C16.1857 16.8319 15.7471 16.9439 15.2431 16.9439C14.6924 16.9439 14.2211 16.8319 13.8291 16.6079C13.4371 16.3839 13.1384 16.0619 12.9331 15.6419C12.7371 15.2126 12.6391 14.6992 12.6391 14.1019C12.6391 13.6259 12.7044 13.1546 12.8351 12.6879C12.9657 12.2212 13.1524 11.7826 13.3951 11.3719C13.6471 10.9612 13.9457 10.6019 14.2911 10.2939C14.6457 9.97658 15.0424 9.72924 15.4811 9.55191C15.9291 9.36524 16.4144 9.27191 16.9371 9.27191C17.3851 9.27191 17.7677 9.33724 18.0851 9.46791C18.4117 9.59858 18.6777 9.78524 18.8831 10.0279C19.0977 10.2706 19.2611 10.5506 19.3731 10.8679C19.4851 11.1852 19.5551 11.5352 19.5831 11.9179Z" fill="white"/>
</svg>
