<svg width="24" height="24" viewBox="0 0 24 24" fill="none" xmlns="http://www.w3.org/2000/svg">
<path d="M9.72363 7.4707L5.21191 17H4.65137L9.44336 7.04688H9.86719L9.72363 7.4707ZM10.7969 17L9.56641 7.45703L9.58008 7.04688H9.96973L11.3301 17H10.7969ZM10.708 13.6025L10.626 14.0947H6.39453L6.47656 13.6025H10.708ZM17.9746 9.60352H18.46L17.1748 17.2529C17.0928 17.7542 16.9424 18.2122 16.7236 18.627C16.5094 19.0462 16.2109 19.3766 15.8281 19.6182C15.4499 19.8597 14.9782 19.9759 14.4131 19.9668C14.1624 19.9668 13.9141 19.9258 13.668 19.8438C13.4264 19.7663 13.2008 19.6455 12.9912 19.4814C12.7861 19.3219 12.6016 19.1214 12.4375 18.8799L12.7588 18.5381C12.9639 18.8389 13.2008 19.0713 13.4697 19.2354C13.7432 19.3994 14.0508 19.4814 14.3926 19.4814C14.8529 19.4951 15.238 19.404 15.5479 19.208C15.8623 19.0166 16.1084 18.75 16.2861 18.4082C16.4684 18.0664 16.5938 17.6859 16.6621 17.2666L17.6738 11.2236L17.9746 9.60352ZM12.998 13.6025L13.0869 12.9531C13.1553 12.5475 13.2533 12.1396 13.3809 11.7295C13.5085 11.3148 13.6816 10.9342 13.9004 10.5879C14.1191 10.2415 14.3949 9.96582 14.7275 9.76074C15.0648 9.55566 15.4749 9.45767 15.958 9.46679C16.2907 9.4759 16.5824 9.55339 16.833 9.69921C17.0837 9.84048 17.2933 10.0296 17.4619 10.2666C17.6305 10.499 17.7513 10.7542 17.8242 11.0322C17.9017 11.3102 17.9336 11.5859 17.9199 11.8594L17.4482 14.9355C17.3844 15.2135 17.2682 15.4847 17.0996 15.749C16.931 16.0133 16.7305 16.2526 16.498 16.4668C16.2656 16.6764 16.0013 16.8451 15.7051 16.9727C15.4134 17.0957 15.099 17.1549 14.7617 17.1504C14.2832 17.1504 13.9095 17.0365 13.6406 16.8086C13.3763 16.5762 13.1872 16.2777 13.0732 15.9131C12.9639 15.5485 12.9092 15.1611 12.9092 14.751C12.9137 14.3408 12.9434 13.958 12.998 13.6025ZM13.5996 12.9395L13.5176 13.6162C13.472 13.9079 13.4424 14.2269 13.4287 14.5732C13.415 14.9196 13.4424 15.25 13.5107 15.5645C13.5837 15.8789 13.7227 16.1387 13.9277 16.3438C14.1374 16.5443 14.4473 16.6491 14.8574 16.6582C15.2083 16.6582 15.5433 16.5807 15.8623 16.4258C16.1859 16.2663 16.4616 16.0521 16.6895 15.7832C16.9219 15.5143 17.0882 15.2158 17.1885 14.8877L17.6602 11.9756C17.6738 11.7158 17.6465 11.4697 17.5781 11.2373C17.5098 11.0003 17.4049 10.7861 17.2637 10.5947C17.1224 10.4033 16.9447 10.2507 16.7305 10.1367C16.5163 10.0228 16.2747 9.96126 16.0059 9.95215C15.6003 9.94303 15.2562 10.0296 14.9736 10.2119C14.6911 10.3896 14.4587 10.6289 14.2764 10.9297C14.0986 11.2259 13.9551 11.5518 13.8457 11.9072C13.7363 12.2581 13.6543 12.6022 13.5996 12.9395Z" fill="white"/>
</svg>
