<svg width="24" height="24" viewBox="0 0 24 24" fill="none" xmlns="http://www.w3.org/2000/svg">
<path d="M4.03369 12.8139H7.88369L7.96769 13.8639H3.94969L4.03369 12.8139ZM5.75569 7.84391L6.10569 8.20791L3.75369 15.6559C3.75369 15.7026 3.79102 15.7492 3.86569 15.7959C3.94969 15.8426 4.06169 15.8799 4.20169 15.9079C4.34169 15.9266 4.50036 15.9359 4.67769 15.9359H4.83169V16.9999H1.70969V15.9359H1.79369C2.00836 15.9359 2.18569 15.8892 2.32569 15.7959C2.46569 15.6932 2.58236 15.4926 2.67569 15.1939L5.29369 7.00391H8.07969L10.7397 15.2919C10.8237 15.5532 10.9357 15.7259 11.0757 15.8099C11.225 15.8939 11.407 15.9359 11.6217 15.9359H11.6917V16.9999H7.11369V15.9359H7.29569C7.47302 15.9359 7.63169 15.9312 7.77169 15.9219C7.92102 15.9126 8.03302 15.8986 8.10769 15.8799C8.19169 15.8519 8.23369 15.8239 8.23369 15.7959L5.75569 7.84391ZM21.3784 10.8119C20.9957 10.7559 20.6644 10.7139 20.3844 10.6859C20.1044 10.6579 19.8524 10.6439 19.6284 10.6439C19.4044 10.6439 19.1944 10.6579 18.9984 10.6859L18.7044 10.7559C18.8444 10.4386 18.9937 10.1586 19.1524 9.91591C19.3204 9.67324 19.507 9.47724 19.7124 9.32791C19.927 9.16924 20.1697 9.05724 20.4404 8.99191C20.711 8.92658 21.0237 8.91258 21.3784 8.94991V10.8119ZM16.4224 14.5779C15.7224 14.5779 15.111 14.4752 14.5884 14.2699C14.075 14.0552 13.6784 13.7519 13.3984 13.3599C13.1184 12.9586 12.9784 12.4919 12.9784 11.9599C12.9784 11.4186 13.1184 10.9519 13.3984 10.5599C13.6877 10.1586 14.089 9.84591 14.6024 9.62191C15.125 9.39791 15.7317 9.28591 16.4224 9.28591C17.1224 9.28591 17.7337 9.39791 18.2564 9.62191C18.779 9.84591 19.1804 10.1586 19.4604 10.5599C19.7497 10.9519 19.8944 11.4186 19.8944 11.9599C19.8944 12.4919 19.7497 12.9586 19.4604 13.3599C19.1804 13.7519 18.779 14.0552 18.2564 14.2699C17.7337 14.4752 17.1224 14.5779 16.4224 14.5779ZM16.4224 13.5839C16.7024 13.5839 16.9264 13.5279 17.0944 13.4159C17.2717 13.3039 17.4024 13.1312 17.4864 12.8979C17.5704 12.6552 17.6124 12.3472 17.6124 11.9739C17.6124 11.5912 17.5704 11.2786 17.4864 11.0359C17.4024 10.7932 17.2717 10.6159 17.0944 10.5039C16.9264 10.3826 16.7024 10.3219 16.4224 10.3219C16.161 10.3219 15.9417 10.3826 15.7644 10.5039C15.587 10.6159 15.4564 10.7932 15.3724 11.0359C15.2884 11.2786 15.2464 11.5912 15.2464 11.9739C15.2464 12.3472 15.2884 12.6552 15.3724 12.8979C15.4564 13.1312 15.587 13.3039 15.7644 13.4159C15.9417 13.5279 16.161 13.5839 16.4224 13.5839ZM15.2604 20.4299C14.607 20.4299 14.047 20.3786 13.5804 20.2759C13.123 20.1732 12.773 20.0006 12.5304 19.7579C12.2877 19.5246 12.1664 19.2212 12.1664 18.8479C12.1664 18.5679 12.2364 18.3299 12.3764 18.1339C12.5257 17.9379 12.759 17.7652 13.0764 17.6159C13.3937 17.4666 13.8137 17.3219 14.3364 17.1819L14.7844 17.4899C14.5884 17.6112 14.4344 17.7279 14.3224 17.8399C14.2104 17.9612 14.131 18.0826 14.0844 18.2039C14.0377 18.3252 14.0144 18.4606 14.0144 18.6099C14.0144 18.7779 14.0657 18.9226 14.1684 19.0439C14.2804 19.1652 14.453 19.2539 14.6864 19.3099C14.929 19.3752 15.2464 19.4079 15.6384 19.4079H17.0944C17.5237 19.4079 17.8784 19.3659 18.1584 19.2819C18.4384 19.2072 18.6437 19.0906 18.7744 18.9319C18.9144 18.7732 18.9844 18.5819 18.9844 18.3579C18.9844 18.1619 18.9237 18.0126 18.8024 17.9099C18.6904 17.8072 18.4944 17.7559 18.2144 17.7559H14.1544L14.2664 17.5739C13.9117 17.4992 13.613 17.3872 13.3704 17.2379C13.1277 17.0979 12.941 16.9206 12.8104 16.7059C12.689 16.4819 12.6284 16.2252 12.6284 15.9359C12.6284 15.6279 12.7077 15.3526 12.8664 15.1099C13.0344 14.8579 13.2724 14.6339 13.5804 14.4379C13.8977 14.2326 14.271 14.0506 14.7004 13.8919L15.3304 14.1719C15.125 14.2932 14.957 14.4099 14.8264 14.5219C14.6957 14.6246 14.5977 14.7272 14.5324 14.8299C14.4764 14.9326 14.4484 15.0446 14.4484 15.1659C14.4484 15.3526 14.5137 15.4879 14.6444 15.5719C14.7844 15.6466 14.9944 15.6839 15.2744 15.6839H18.3824C18.961 15.6839 19.4464 15.7586 19.8384 15.9079C20.2304 16.0572 20.5244 16.2812 20.7204 16.5799C20.9257 16.8786 21.0284 17.2566 21.0284 17.7139C21.0284 18.3299 20.8604 18.8386 20.5244 19.2399C20.1977 19.6412 19.745 19.9399 19.1664 20.1359C18.5877 20.3319 17.925 20.4299 17.1784 20.4299H15.2604Z" fill="white"/>
</svg>
