<svg width="24" height="24" viewBox="0 0 24 24" fill="none" xmlns="http://www.w3.org/2000/svg">
<path d="M2.78734 16.9999V15.6279H3.83268L6.26635 9.02923H5.30268V7.65723H11.0683V9.02923H10.1047L12.5873 15.6279H13.5837V16.9999H9.17368V15.6279H10.2843L9.61468 13.5862H6.54401L5.85801 15.6279H6.88701V16.9999H2.78734ZM6.93601 12.2796H9.20635L8.14468 9.04557H8.06301L6.93601 12.2796ZM18.0094 20.1359C17.5412 20.1359 17.0784 20.0923 16.621 20.0052C16.1746 19.9181 15.7282 19.8038 15.2817 19.6622L15.6084 18.3719C16.0222 18.5026 16.3978 18.5951 16.7354 18.6496C17.0729 18.7149 17.3996 18.7476 17.7154 18.7476C18.3034 18.7476 18.7498 18.606 19.0547 18.3229C19.3705 18.0507 19.5284 17.6369 19.5284 17.0816V16.1832L20.051 15.9709C19.7135 16.352 19.3433 16.6351 18.9404 16.8202C18.5375 17.0053 18.0802 17.0979 17.5684 17.0979C16.9477 17.0979 16.3978 16.9618 15.9187 16.6896C15.4396 16.4173 15.0639 16.0308 14.7917 15.5299C14.5304 15.029 14.3997 14.4301 14.3997 13.7332C14.3997 13.0255 14.5304 12.4211 14.7917 11.9202C15.053 11.4193 15.4178 11.0328 15.886 10.7606C16.3652 10.4883 16.9205 10.3522 17.552 10.3522C18.042 10.3522 18.4994 10.4611 18.924 10.6789C19.3596 10.8858 19.6917 11.1417 19.9204 11.4466L19.5937 11.5282L19.61 10.4992H22.403V11.7242H21.5047V16.8366C21.5047 17.5879 21.3577 18.2086 21.0637 18.6986C20.7806 19.1886 20.3777 19.5479 19.855 19.7766C19.3324 20.0161 18.7172 20.1359 18.0094 20.1359ZM18.1727 15.6606C18.4885 15.6606 18.8043 15.5952 19.12 15.4646C19.4358 15.3339 19.7189 15.1433 19.9694 14.8929L19.5284 15.7422L19.512 11.8059L19.9204 12.6062C19.6699 12.3449 19.3814 12.1435 19.0547 12.0019C18.7389 11.8495 18.4232 11.7732 18.1074 11.7732C17.7807 11.7732 17.4922 11.8495 17.2417 12.0019C16.9913 12.1543 16.7953 12.3776 16.6537 12.6716C16.5122 12.9656 16.4414 13.3303 16.4414 13.7659C16.4414 14.1688 16.5176 14.5118 16.67 14.7949C16.8225 15.078 17.0239 15.2958 17.2744 15.4482C17.5357 15.5898 17.8352 15.6606 18.1727 15.6606Z" fill="white"/>
</svg>
