<svg width="24" height="24" viewBox="0 0 24 24" fill="none" xmlns="http://www.w3.org/2000/svg">
<path d="M10.7162 6.75195L12.7882 17H10.8282L10.2822 14.06H7.4822L6.1242 17H4.3882L9.2042 6.75195H10.7162ZM9.4842 9.18795L8.0422 12.688H10.0442L9.4842 9.18795ZM18.8588 9.99995H19.7408L18.8168 16.44C18.7515 16.8787 18.6535 17.3173 18.5228 17.756C18.3922 18.204 18.1962 18.6147 17.9348 18.988C17.6735 19.3613 17.3235 19.66 16.8848 19.884C16.4555 20.108 15.9095 20.22 15.2468 20.22C14.8455 20.22 14.4862 20.178 14.1688 20.094C13.8515 20.0193 13.5762 19.9213 13.3428 19.8C13.1095 19.6787 12.9275 19.5573 12.7968 19.436L13.6508 18.162C13.8002 18.3393 14.0008 18.5167 14.2528 18.694C14.5142 18.8713 14.8455 18.96 15.2468 18.96C15.6948 18.96 16.0448 18.8807 16.2968 18.722C16.5488 18.5727 16.7355 18.358 16.8568 18.078C16.9875 17.798 17.0808 17.476 17.1368 17.112L17.2348 16.538H17.1788C16.9735 16.7433 16.7262 16.8973 16.4368 17C16.1568 17.112 15.8675 17.168 15.5688 17.168C15.0275 17.168 14.5842 17.0327 14.2388 16.762C13.9028 16.482 13.6555 16.118 13.4968 15.67C13.3382 15.2127 13.2588 14.718 13.2588 14.186C13.2588 13.6727 13.3288 13.164 13.4688 12.66C13.6182 12.1467 13.8375 11.68 14.1268 11.26C14.4255 10.84 14.7942 10.504 15.2328 10.252C15.6808 9.99995 16.2035 9.87395 16.8008 9.87395C17.0435 9.87395 17.3468 9.93462 17.7108 10.056C18.0842 10.1773 18.3968 10.392 18.6488 10.7V11.89C18.3315 11.5913 18.0282 11.372 17.7388 11.232C17.4495 11.092 17.1648 11.022 16.8848 11.022C16.5862 11.022 16.3155 11.0967 16.0728 11.246C15.8302 11.386 15.6202 11.596 15.4428 11.876C15.2655 12.1467 15.1302 12.4733 15.0368 12.856C14.9435 13.2387 14.8968 13.668 14.8968 14.144C14.8968 14.648 14.9715 15.0867 15.1208 15.46C15.2702 15.8333 15.5268 16.02 15.8908 16.02C16.1895 16.02 16.4462 15.9173 16.6608 15.712C16.8755 15.4973 17.0575 15.2127 17.2068 14.858C17.3562 14.5033 17.4822 14.1067 17.5848 13.668C17.6875 13.2293 17.7715 12.7813 17.8368 12.324L17.9908 11.302L18.8588 9.99995Z" fill="white"/>
</svg>
