<svg width="24" height="24" viewBox="0 0 24 24" fill="none" xmlns="http://www.w3.org/2000/svg">
<path d="M9.31605 6.80762L12.844 16.9996H11.402L10.226 13.4996H6.86605L5.67605 16.9996H4.50005L8.04205 6.80762H9.31605ZM8.56005 8.51562L7.18805 12.5476H9.90405L8.56005 8.51562ZM16.1601 9.87362C16.4307 9.87362 16.6874 9.90629 16.9301 9.97162C17.1821 10.0369 17.4387 10.0696 17.7001 10.0696C18.0547 10.0696 18.4141 10.0509 18.7781 10.0136C19.1421 9.96695 19.5247 9.91562 19.9261 9.85962L19.6741 10.8676H18.5541C18.4887 10.8676 18.4187 10.8676 18.3441 10.8676C18.2787 10.8583 18.2134 10.8489 18.1481 10.8396C18.3067 11.0543 18.4234 11.2783 18.4981 11.5116C18.5821 11.7449 18.6241 11.9829 18.6241 12.2256C18.6241 12.6923 18.5214 13.1123 18.3161 13.4856C18.1107 13.8589 17.8074 14.1529 17.4061 14.3676C17.0141 14.5729 16.5334 14.6756 15.9641 14.6756C15.7307 14.6756 15.5254 14.7363 15.3481 14.8576C15.1707 14.9789 15.0821 15.1656 15.0821 15.4176C15.0821 15.5856 15.1241 15.7069 15.2081 15.7816C15.3014 15.8469 15.4134 15.8843 15.5441 15.8936C15.6747 15.9029 15.8054 15.9076 15.9361 15.9076H17.2941C17.5367 15.9076 17.7841 15.9263 18.0361 15.9636C18.2974 15.9916 18.5354 16.0569 18.7501 16.1596C18.9647 16.2529 19.1374 16.3976 19.2681 16.5936C19.4081 16.7803 19.4781 17.0369 19.4781 17.3636C19.4781 17.8769 19.3754 18.3156 19.1701 18.6796C18.9647 19.0436 18.6894 19.3376 18.3441 19.5616C17.9987 19.7949 17.6114 19.9629 17.1821 20.0656C16.7527 20.1683 16.3187 20.2196 15.8801 20.2196C15.6187 20.2196 15.3434 20.1869 15.0541 20.1216C14.7647 20.0656 14.4894 19.9676 14.2281 19.8276C13.9761 19.6969 13.7707 19.5196 13.6121 19.2956C13.4534 19.0716 13.3741 18.7916 13.3741 18.4556C13.3741 18.1009 13.4814 17.7883 13.6961 17.5176C13.9201 17.2469 14.1767 17.0183 14.4661 16.8316V16.7896C14.2607 16.6869 14.0974 16.5469 13.9761 16.3696C13.8641 16.1829 13.8081 15.9869 13.8081 15.7816C13.8081 15.6603 13.8547 15.5483 13.9481 15.4456C14.0414 15.3336 14.1581 15.1889 14.2981 15.0116C14.4474 14.8343 14.6061 14.5916 14.7741 14.2836C14.4474 14.0596 14.1861 13.7749 13.9901 13.4296C13.7941 13.0749 13.6961 12.6969 13.6961 12.2956C13.6961 11.8383 13.8081 11.4276 14.0321 11.0636C14.2561 10.6996 14.5547 10.4103 14.9281 10.1956C15.3107 9.98095 15.7214 9.87362 16.1601 9.87362ZM16.1741 10.7136C15.9501 10.7136 15.7401 10.7836 15.5441 10.9236C15.3574 11.0636 15.2034 11.2503 15.0821 11.4836C14.9701 11.7169 14.9141 11.9829 14.9141 12.2816C14.9141 12.5803 14.9701 12.8509 15.0821 13.0936C15.1941 13.3269 15.3434 13.5136 15.5301 13.6536C15.7261 13.7936 15.9361 13.8636 16.1601 13.8636C16.5427 13.8636 16.8461 13.7189 17.0701 13.4296C17.3034 13.1403 17.4201 12.7623 17.4201 12.2956C17.4201 11.9969 17.3594 11.7309 17.2381 11.4976C17.1261 11.2549 16.9767 11.0636 16.7901 10.9236C16.6034 10.7836 16.3981 10.7136 16.1741 10.7136ZM15.2921 17.0136C15.1147 17.1443 14.9514 17.3216 14.8021 17.5456C14.6527 17.7789 14.5781 18.0029 14.5781 18.2176C14.5781 18.4416 14.6574 18.6329 14.8161 18.7916C14.9841 18.9503 15.1847 19.0669 15.4181 19.1416C15.6607 19.2256 15.8847 19.2676 16.0901 19.2676C16.3327 19.2676 16.5894 19.2396 16.8601 19.1836C17.1307 19.1369 17.3827 19.0576 17.6161 18.9456C17.8494 18.8336 18.0361 18.6796 18.1761 18.4836C18.3254 18.2876 18.4001 18.0496 18.4001 17.7696C18.4001 17.5269 18.3254 17.3496 18.1761 17.2376C18.0267 17.1349 17.8401 17.0696 17.6161 17.0416C17.4014 17.0229 17.1867 17.0136 16.9721 17.0136H15.2921Z" fill="white"/>
</svg>
