<svg width="24" height="24" viewBox="0 0 24 24" fill="none" xmlns="http://www.w3.org/2000/svg">
<path d="M9.26005 6.83594L12.732 16.9999H11.626L10.352 13.2059H6.83805L5.56405 16.9999H4.61205L8.11205 6.83594H9.26005ZM8.61605 8.16594L7.07605 12.4779H10.114L8.61605 8.16594ZM16.1741 9.90194C16.4261 9.90194 16.6827 9.93461 16.9441 9.99994C17.2147 10.0559 17.4807 10.0839 17.7421 10.0839C18.0687 10.0839 18.3954 10.0606 18.7221 10.0139C19.0581 9.96727 19.4267 9.91127 19.8281 9.84594L19.6041 10.7699H18.5121C18.4467 10.7699 18.3721 10.7699 18.2881 10.7699C18.2134 10.7699 18.1387 10.7699 18.0641 10.7699C18.2321 11.0032 18.3534 11.2459 18.4281 11.4979C18.5121 11.7406 18.5541 11.9832 18.5541 12.2259C18.5541 12.6832 18.4607 13.0986 18.2741 13.4719C18.0967 13.8452 17.8121 14.1439 17.4201 14.3679C17.0374 14.5826 16.5334 14.6899 15.9081 14.6899C15.6374 14.6899 15.4041 14.7506 15.2081 14.8719C15.0121 14.9932 14.9141 15.1986 14.9141 15.4879C14.9141 15.6746 14.9467 15.8052 15.0121 15.8799C15.0867 15.9546 15.1801 15.9966 15.2921 16.0059C15.4041 16.0059 15.5114 16.0059 15.6141 16.0059H17.3501C17.5647 16.0059 17.7887 16.0246 18.0221 16.0619C18.2554 16.0899 18.4747 16.1552 18.6801 16.2579C18.8854 16.3512 19.0487 16.4912 19.1701 16.6779C19.3007 16.8552 19.3661 17.0932 19.3661 17.3919C19.3661 17.9146 19.2681 18.3579 19.0721 18.7219C18.8854 19.0859 18.6241 19.3752 18.2881 19.5899C17.9614 19.8139 17.5881 19.9726 17.1681 20.0659C16.7574 20.1686 16.3281 20.2199 15.8801 20.2199C15.6281 20.2199 15.3667 20.1872 15.0961 20.1219C14.8254 20.0566 14.5687 19.9492 14.3261 19.7999C14.0927 19.6599 13.9014 19.4779 13.7521 19.2539C13.6027 19.0299 13.5281 18.7592 13.5281 18.4419C13.5281 18.1246 13.6261 17.8399 13.8221 17.5879C14.0274 17.3452 14.2701 17.1212 14.5501 16.9159V16.8739C14.3167 16.7432 14.1441 16.5892 14.0321 16.4119C13.9294 16.2346 13.8781 16.0432 13.8781 15.8379C13.8781 15.7072 13.9201 15.5859 14.0041 15.4739C14.0881 15.3526 14.2001 15.2032 14.3401 15.0259C14.4894 14.8392 14.6434 14.5872 14.8021 14.2699C14.5034 14.0459 14.2607 13.7612 14.0741 13.4159C13.8967 13.0612 13.8081 12.6972 13.8081 12.3239C13.8081 11.8852 13.9154 11.4839 14.1301 11.1199C14.3447 10.7559 14.6294 10.4619 14.9841 10.2379C15.3481 10.0139 15.7447 9.90194 16.1741 9.90194ZM16.2021 10.6299C15.9501 10.6299 15.7121 10.7046 15.4881 10.8539C15.2734 10.9939 15.0961 11.1899 14.9561 11.4419C14.8161 11.6846 14.7461 11.9646 14.7461 12.2819C14.7461 12.5992 14.8114 12.8886 14.9421 13.1499C15.0821 13.4019 15.2641 13.6026 15.4881 13.7519C15.7121 13.8919 15.9454 13.9619 16.1881 13.9619C16.6174 13.9619 16.9627 13.8172 17.2241 13.5279C17.4947 13.2292 17.6301 12.8232 17.6301 12.3099C17.6301 11.9832 17.5601 11.6939 17.4201 11.4419C17.2894 11.1899 17.1121 10.9939 16.8881 10.8539C16.6734 10.7046 16.4447 10.6299 16.2021 10.6299ZM15.1941 17.0279C15.0167 17.1772 14.8487 17.3639 14.6901 17.5879C14.5407 17.8212 14.4661 18.0452 14.4661 18.2599C14.4661 18.4932 14.5547 18.6939 14.7321 18.8619C14.9094 19.0299 15.1241 19.1606 15.3761 19.2539C15.6281 19.3472 15.8661 19.3939 16.0901 19.3939C16.3514 19.3939 16.6221 19.3659 16.9021 19.3099C17.1914 19.2539 17.4574 19.1606 17.7001 19.0299C17.9521 18.9086 18.1574 18.7452 18.3161 18.5399C18.4747 18.3439 18.5541 18.1012 18.5541 17.8119C18.5541 17.5599 18.4794 17.3779 18.3301 17.2659C18.1807 17.1632 17.9941 17.0979 17.7701 17.0699C17.5461 17.0419 17.3174 17.0279 17.0841 17.0279H15.1941Z" fill="white"/>
</svg>
