<svg width="24" height="24" viewBox="0 0 24 24" fill="none" xmlns="http://www.w3.org/2000/svg">
<path d="M1.76162 17.0002C1.65896 17.0002 1.58429 16.9582 1.53762 16.8742C1.49096 16.7809 1.49562 16.6875 1.55162 16.5942L6.64763 7.6342C6.70363 7.53153 6.78763 7.43353 6.89963 7.3402C7.01163 7.24687 7.15629 7.2002 7.33363 7.2002H9.96563C10.143 7.2002 10.269 7.24687 10.3436 7.3402C10.4183 7.43353 10.4603 7.53153 10.4696 7.6342L11.7716 16.5942C11.7903 16.7155 11.7576 16.8135 11.6736 16.8882C11.599 16.9629 11.5103 17.0002 11.4076 17.0002H9.30763C9.14896 17.0002 9.03696 16.9629 8.97163 16.8882C8.91563 16.8135 8.87829 16.7389 8.85963 16.6642L8.66363 15.5022H5.30363L4.60363 16.6782C4.56629 16.7529 4.50096 16.8275 4.40763 16.9022C4.32363 16.9675 4.20229 17.0002 4.04363 17.0002H1.76162ZM6.43763 13.1362H8.52363L8.15963 9.9862L6.43763 13.1362ZM15.7926 20.0802C15.0646 20.0802 14.4672 19.9822 14.0006 19.7862C13.5339 19.5995 13.1652 19.3662 12.8946 19.0862C12.6332 18.8155 12.4559 18.5449 12.3626 18.2742C12.2692 18.0129 12.2319 17.8075 12.2506 17.6582C12.2692 17.5555 12.3206 17.4669 12.4046 17.3922C12.4886 17.3269 12.5819 17.2942 12.6846 17.2942H14.9526C15.0459 17.2942 15.1159 17.3175 15.1626 17.3642C15.2092 17.4109 15.2419 17.4809 15.2606 17.5742C15.2886 17.6582 15.3259 17.7422 15.3726 17.8262C15.4192 17.9102 15.4892 17.9755 15.5826 18.0222C15.6759 18.0689 15.8159 18.0922 16.0026 18.0922C16.1986 18.0922 16.3712 18.0549 16.5206 17.9802C16.6792 17.9055 16.8146 17.7889 16.9266 17.6302C17.0479 17.4715 17.1319 17.2615 17.1786 17.0002L17.3746 16.0622C17.1132 16.2769 16.8286 16.4495 16.5206 16.5802C16.2219 16.7015 15.8486 16.7622 15.4006 16.7622C14.9432 16.7622 14.5419 16.7015 14.1966 16.5802C13.8606 16.4495 13.5852 16.2535 13.3706 15.9922C13.1559 15.7309 13.0112 15.3995 12.9366 14.9982C12.8712 14.5969 12.8852 14.1162 12.9786 13.5562C13.0066 13.4162 13.0299 13.2949 13.0486 13.1922C13.0672 13.0895 13.0952 12.9682 13.1326 12.8282C13.2726 12.3055 13.4499 11.8435 13.6646 11.4422C13.8792 11.0315 14.1312 10.6909 14.4206 10.4202C14.7099 10.1495 15.0412 9.9442 15.4146 9.8042C15.7972 9.65487 16.2172 9.5802 16.6746 9.5802C17.1506 9.5802 17.5659 9.67353 17.9206 9.8602C18.2752 10.0375 18.5366 10.2709 18.7046 10.5602L18.8166 10.0842C18.8352 9.98153 18.8866 9.89753 18.9706 9.8322C19.0639 9.75753 19.1572 9.7202 19.2506 9.7202H21.2946C21.3972 9.7202 21.4719 9.75753 21.5186 9.8322C21.5746 9.89753 21.5932 9.98153 21.5746 10.0842L20.1746 16.7762C20.0532 17.3455 19.8712 17.8355 19.6286 18.2462C19.3859 18.6569 19.0779 18.9975 18.7046 19.2682C18.3312 19.5482 17.9019 19.7535 17.4166 19.8842C16.9312 20.0149 16.3899 20.0802 15.7926 20.0802ZM16.6606 14.6342C16.8846 14.6342 17.0806 14.5875 17.2486 14.4942C17.4166 14.4009 17.5519 14.2795 17.6546 14.1302C17.7572 13.9715 17.8366 13.7942 17.8926 13.5982C17.9206 13.5142 17.9532 13.3789 17.9906 13.1922C18.0279 13.0055 18.0512 12.8749 18.0606 12.8002C18.0886 12.6042 18.0839 12.4315 18.0466 12.2822C18.0092 12.1235 17.9299 11.9975 17.8086 11.9042C17.6966 11.8109 17.5286 11.7642 17.3046 11.7642C17.0712 11.7642 16.8706 11.8155 16.7026 11.9182C16.5439 12.0115 16.4132 12.1469 16.3106 12.3242C16.2079 12.4922 16.1286 12.6882 16.0726 12.9122C16.0446 12.9869 16.0166 13.0802 15.9886 13.1922C15.9699 13.3042 15.9559 13.4022 15.9466 13.4862C15.9186 13.7102 15.9139 13.9109 15.9326 14.0882C15.9512 14.2562 16.0166 14.3915 16.1286 14.4942C16.2406 14.5875 16.4179 14.6342 16.6606 14.6342Z" fill="white"/>
</svg>
