<svg width="24" height="24" viewBox="0 0 24 24" fill="none" xmlns="http://www.w3.org/2000/svg">
<path d="M4.0369 17.0002C3.96223 17.0002 3.8969 16.9722 3.8409 16.9162C3.7849 16.8602 3.7569 16.7949 3.7569 16.7202C3.7569 16.6735 3.76623 16.6222 3.7849 16.5662L7.3269 7.4802C7.36423 7.38687 7.4109 7.31687 7.4669 7.2702C7.53223 7.22353 7.6209 7.2002 7.7329 7.2002H8.2089C8.3209 7.2002 8.4049 7.22353 8.4609 7.2702C8.52623 7.31687 8.57757 7.38687 8.6149 7.4802L12.1569 16.5662C12.1756 16.6222 12.1849 16.6735 12.1849 16.7202C12.1849 16.7949 12.1569 16.8602 12.1009 16.9162C12.0449 16.9722 11.9796 17.0002 11.9049 17.0002H11.6249C11.5316 17.0002 11.4616 16.9769 11.4149 16.9302C11.3682 16.8742 11.3356 16.8275 11.3169 16.7902L10.4489 14.5502H5.4929L4.6249 16.7902C4.61557 16.8275 4.5829 16.8742 4.5269 16.9302C4.48023 16.9769 4.41023 17.0002 4.3169 17.0002H4.0369ZM5.8289 13.7102H10.1129L7.9709 8.1942L5.8289 13.7102ZM16.2943 20.0802C15.697 20.0802 15.207 20.0009 14.8243 19.8422C14.451 19.6835 14.157 19.4875 13.9423 19.2542C13.737 19.0302 13.5923 18.8015 13.5083 18.5682C13.4243 18.3442 13.3777 18.1622 13.3683 18.0222C13.359 17.9289 13.387 17.8495 13.4523 17.7842C13.5177 17.7282 13.5923 17.7002 13.6763 17.7002H13.8723C13.947 17.7002 14.0123 17.7142 14.0683 17.7422C14.1243 17.7795 14.171 17.8635 14.2083 17.9942C14.2643 18.1435 14.353 18.3162 14.4743 18.5122C14.605 18.7175 14.8057 18.8949 15.0763 19.0442C15.3563 19.1935 15.739 19.2682 16.2243 19.2682C16.7377 19.2682 17.167 19.2029 17.5123 19.0722C17.8577 18.9415 18.119 18.7082 18.2963 18.3722C18.483 18.0455 18.5763 17.5882 18.5763 17.0002V16.0342C18.343 16.3515 18.035 16.6175 17.6523 16.8322C17.279 17.0375 16.803 17.1402 16.2243 17.1402C15.683 17.1402 15.221 17.0422 14.8383 16.8462C14.465 16.6502 14.1617 16.3889 13.9283 16.0622C13.695 15.7355 13.5223 15.3715 13.4103 14.9702C13.2983 14.5689 13.2377 14.1629 13.2283 13.7522C13.219 13.4909 13.219 13.2295 13.2283 12.9682C13.2377 12.5575 13.2983 12.1515 13.4103 11.7502C13.5223 11.3489 13.695 10.9849 13.9283 10.6582C14.1617 10.3315 14.465 10.0702 14.8383 9.8742C15.221 9.67819 15.683 9.5802 16.2243 9.5802C16.803 9.5802 17.279 9.68753 17.6523 9.9022C18.035 10.1169 18.343 10.3782 18.5763 10.6862V10.0422C18.5763 9.94887 18.6043 9.8742 18.6603 9.8182C18.7163 9.75287 18.791 9.7202 18.8843 9.7202H19.1083C19.2017 9.7202 19.2763 9.75287 19.3323 9.8182C19.3977 9.8742 19.4303 9.94887 19.4303 10.0422V16.8602C19.4303 17.4575 19.3417 17.9989 19.1643 18.4842C18.987 18.9695 18.6697 19.3569 18.2123 19.6462C17.7643 19.9355 17.125 20.0802 16.2943 20.0802ZM16.3083 16.3282C16.8403 16.3282 17.2697 16.2022 17.5963 15.9502C17.923 15.6982 18.161 15.3855 18.3103 15.0122C18.469 14.6295 18.5577 14.2469 18.5763 13.8642C18.5857 13.7242 18.5903 13.5562 18.5903 13.3602C18.5903 13.1642 18.5857 12.9962 18.5763 12.8562C18.5577 12.4735 18.469 12.0955 18.3103 11.7222C18.161 11.3395 17.923 11.0222 17.5963 10.7702C17.2697 10.5182 16.8403 10.3922 16.3083 10.3922C15.767 10.3922 15.333 10.5135 15.0063 10.7562C14.689 10.9989 14.4603 11.3162 14.3203 11.7082C14.1803 12.1002 14.101 12.5202 14.0823 12.9682C14.073 13.2295 14.073 13.4909 14.0823 13.7522C14.101 14.2002 14.1803 14.6202 14.3203 15.0122C14.4603 15.4042 14.689 15.7215 15.0063 15.9642C15.333 16.2069 15.767 16.3282 16.3083 16.3282Z" fill="white"/>
</svg>
