<svg width="24" height="24" viewBox="0 0 24 24" fill="none" xmlns="http://www.w3.org/2000/svg">
<path d="M2.4164 17.0002C2.3324 17.0002 2.25773 16.9722 2.1924 16.9162C2.1364 16.8509 2.1084 16.7762 2.1084 16.6922C2.1084 16.6549 2.11307 16.6222 2.1224 16.5942L5.2444 7.6622C5.2724 7.55953 5.33773 7.45687 5.4404 7.3542C5.54307 7.25153 5.68773 7.2002 5.8744 7.2002H8.9124C9.09907 7.2002 9.24373 7.25153 9.3464 7.3542C9.44907 7.45687 9.5144 7.55953 9.5424 7.6622L12.6644 16.5942C12.6737 16.6222 12.6784 16.6549 12.6784 16.6922C12.6784 16.7762 12.6457 16.8509 12.5804 16.9162C12.5244 16.9722 12.4544 17.0002 12.3704 17.0002H9.7804C9.60307 17.0002 9.4724 16.9629 9.3884 16.8882C9.31373 16.8042 9.2624 16.7249 9.2344 16.6502L8.8984 15.7262H5.8884L5.5524 16.6502C5.5244 16.7249 5.47307 16.8042 5.3984 16.8882C5.32373 16.9629 5.19307 17.0002 5.0064 17.0002H2.4164ZM6.6584 8.0962C6.6024 8.08687 6.55573 8.08687 6.5184 8.0962C6.4904 8.0962 6.4624 8.11953 6.4344 8.1662C6.39707 8.26887 6.41573 8.35753 6.4904 8.4322C6.5464 8.47887 6.59307 8.51153 6.6304 8.5302C6.66773 8.54887 6.71907 8.53953 6.7844 8.5022C6.84973 8.4742 6.8824 8.44153 6.8824 8.4042C6.8824 8.35753 6.87773 8.29687 6.8684 8.2222C6.85907 8.1662 6.83573 8.13353 6.7984 8.1242C6.7704 8.11487 6.72373 8.10553 6.6584 8.0962ZM8.1424 8.4742C8.09573 8.37153 8.0444 8.31087 7.9884 8.2922C7.9324 8.27353 7.85307 8.26887 7.7504 8.2782C7.62907 8.28753 7.53107 8.30153 7.4564 8.3202C7.39107 8.32953 7.3444 8.39487 7.3164 8.5162C7.27907 8.6562 7.2744 8.76353 7.3024 8.8382C7.3304 8.90353 7.40507 8.97353 7.5264 9.0482C7.64773 9.12287 7.74573 9.1602 7.8204 9.1602C7.9044 9.15087 8.0024 9.09953 8.1144 9.0062C8.20773 8.9222 8.24507 8.84287 8.2264 8.7682C8.21707 8.69353 8.18907 8.59553 8.1424 8.4742ZM5.6644 8.5722C5.6084 8.52553 5.55707 8.51153 5.5104 8.5302C5.47307 8.53953 5.4264 8.56753 5.3704 8.6142C5.2864 8.6702 5.26307 8.74953 5.3004 8.8522C5.31907 8.92687 5.33773 8.98287 5.3564 9.0202C5.37507 9.05753 5.42173 9.0762 5.4964 9.0762C5.5804 9.0762 5.64107 9.06687 5.6784 9.0482C5.71573 9.0202 5.7484 8.96887 5.7764 8.8942C5.8044 8.8102 5.80907 8.74953 5.7904 8.7122C5.77173 8.66553 5.72973 8.61887 5.6644 8.5722ZM7.0504 9.2582C7.00373 9.2582 6.97573 9.2722 6.9664 9.3002C6.9664 9.3282 6.95707 9.36553 6.9384 9.4122C6.91973 9.44953 6.90573 9.4822 6.8964 9.5102C6.88707 9.52887 6.8964 9.5522 6.9244 9.5802C6.9804 9.6362 7.04573 9.64087 7.1204 9.5942C7.19507 9.55687 7.22307 9.50087 7.2044 9.4262C7.1764 9.32353 7.12507 9.26753 7.0504 9.2582ZM9.2904 9.8322C9.2624 9.76687 9.22973 9.72953 9.1924 9.7202C9.1644 9.70153 9.11307 9.69687 9.0384 9.7062C8.96373 9.71553 8.90307 9.72487 8.8564 9.7342C8.80973 9.74353 8.77707 9.78553 8.7584 9.8602C8.74907 9.9442 8.76307 10.0002 8.8004 10.0282C8.83773 10.0562 8.88907 10.0889 8.9544 10.1262C9.01973 10.1635 9.07107 10.1915 9.1084 10.2102C9.15507 10.2195 9.2064 10.2009 9.2624 10.1542C9.3184 10.0982 9.3464 10.0515 9.3464 10.0142C9.3464 9.96753 9.32773 9.90687 9.2904 9.8322ZM5.3144 9.9862C5.24907 9.9302 5.19307 9.9022 5.1464 9.9022C5.09973 9.9022 5.03907 9.92553 4.9644 9.9722C4.8804 10.0189 4.81973 10.0655 4.7824 10.1122C4.74507 10.1495 4.7404 10.2149 4.7684 10.3082C4.78707 10.4109 4.81507 10.4809 4.8524 10.5182C4.89907 10.5555 4.9784 10.5789 5.0904 10.5882C5.18373 10.5975 5.24907 10.5835 5.2864 10.5462C5.32373 10.4995 5.36107 10.4342 5.3984 10.3502C5.43573 10.2662 5.44973 10.2009 5.4404 10.1542C5.43107 10.1075 5.38907 10.0515 5.3144 9.9862ZM6.6024 12.9962H8.1844L7.3864 10.3922L6.6024 12.9962ZM9.4444 10.9382C9.36973 10.9102 9.30907 10.8962 9.2624 10.8962C9.21573 10.8962 9.16907 10.9289 9.1224 10.9942C9.07573 11.0595 9.05707 11.1155 9.0664 11.1622C9.07573 11.1995 9.10373 11.2509 9.1504 11.3162C9.2064 11.4002 9.2484 11.4655 9.2764 11.5122C9.31373 11.5495 9.37907 11.5542 9.4724 11.5262C9.56573 11.4982 9.61707 11.4609 9.6264 11.4142C9.64507 11.3582 9.6544 11.2789 9.6544 11.1762C9.6544 11.1015 9.63573 11.0502 9.5984 11.0222C9.5704 10.9942 9.51906 10.9662 9.4444 10.9382ZM5.8604 11.5962C5.8044 11.5029 5.7484 11.4469 5.6924 11.4282C5.6364 11.4095 5.55707 11.4142 5.4544 11.4422C5.35173 11.4609 5.2864 11.4935 5.2584 11.5402C5.23973 11.5869 5.22573 11.6615 5.2164 11.7642C5.20707 11.8482 5.22107 11.9042 5.2584 11.9322C5.29573 11.9602 5.35173 11.9882 5.4264 12.0162C5.52907 12.0629 5.6084 12.1095 5.6644 12.1562C5.7204 12.2029 5.7904 12.1842 5.8744 12.1002C5.9584 12.0069 5.99107 11.9275 5.9724 11.8622C5.96307 11.7969 5.92573 11.7082 5.8604 11.5962ZM9.1924 11.9602C9.12707 11.9322 9.0804 11.9369 9.0524 11.9742C9.0244 12.0115 8.98707 12.0535 8.9404 12.1002C8.89373 12.1469 8.86107 12.1842 8.8424 12.2122C8.83307 12.2309 8.8424 12.2682 8.8704 12.3242C8.91707 12.4175 8.98707 12.4595 9.0804 12.4502C9.14573 12.4409 9.18307 12.4222 9.1924 12.3942C9.21107 12.3662 9.22507 12.3195 9.2344 12.2542C9.24373 12.1795 9.25307 12.1235 9.2624 12.0862C9.28106 12.0395 9.25773 11.9975 9.1924 11.9602ZM10.1584 12.2262L10.0184 12.2822L9.9484 12.3942L10.0744 12.4782L10.1724 12.3802L10.1584 12.2262ZM10.0604 13.0242C10.0324 12.9495 10.0091 12.8889 9.9904 12.8422C9.98107 12.7955 9.93907 12.7675 9.8644 12.7582C9.7804 12.7489 9.72907 12.7675 9.7104 12.8142C9.69173 12.8609 9.6684 12.9215 9.6404 12.9962C9.60307 13.0895 9.62173 13.1689 9.6964 13.2342C9.77107 13.2995 9.82707 13.3602 9.8644 13.4162C9.90173 13.4629 9.9624 13.4629 10.0464 13.4162C10.1304 13.3602 10.1584 13.3042 10.1304 13.2482C10.1024 13.1922 10.0791 13.1175 10.0604 13.0242ZM9.1644 12.7722L9.0384 12.8702L9.0524 12.9962L9.1924 13.0382L9.2344 12.9122L9.1644 12.7722ZM10.7044 13.1782C10.6297 13.1222 10.5691 13.1175 10.5224 13.1642C10.4757 13.1922 10.4384 13.2202 10.4104 13.2482C10.3917 13.2762 10.3917 13.3135 10.4104 13.3602C10.4291 13.4162 10.4524 13.4442 10.4804 13.4442C10.5177 13.4442 10.5644 13.4442 10.6204 13.4442C10.6857 13.4442 10.7371 13.4442 10.7744 13.4442C10.8117 13.4442 10.8351 13.4162 10.8444 13.3602C10.8631 13.3042 10.8537 13.2669 10.8164 13.2482C10.7884 13.2295 10.7511 13.2062 10.7044 13.1782ZM6.0844 13.6822C6.0564 13.5982 6.0284 13.5422 6.0004 13.5142C5.9724 13.4862 5.9164 13.4722 5.8324 13.4722C5.7204 13.4815 5.63173 13.4909 5.5664 13.5002C5.5104 13.5002 5.4684 13.5515 5.4404 13.6542C5.40307 13.7755 5.39373 13.8689 5.4124 13.9342C5.43107 13.9995 5.4964 14.0695 5.6084 14.1442C5.70173 14.2002 5.77173 14.2049 5.8184 14.1582C5.86507 14.1022 5.9304 14.0415 6.0144 13.9762C6.0704 13.9295 6.10307 13.8875 6.1124 13.8502C6.12173 13.8035 6.1124 13.7475 6.0844 13.6822ZM8.1564 13.6542C8.0724 13.6075 7.99773 13.6122 7.9324 13.6682C7.8764 13.7242 7.86707 13.7942 7.9044 13.8782C7.92307 13.9155 7.94173 13.9342 7.9604 13.9342C7.9884 13.9342 8.02573 13.9342 8.0724 13.9342C8.1564 13.9249 8.20307 13.8922 8.2124 13.8362C8.23107 13.7429 8.2124 13.6822 8.1564 13.6542ZM9.1224 13.7802C9.07573 13.7522 9.0384 13.7289 9.0104 13.7102C8.99173 13.6822 8.96373 13.6822 8.9264 13.7102C8.87973 13.7475 8.86107 13.7802 8.8704 13.8082C8.87973 13.8362 8.89373 13.8782 8.9124 13.9342C8.9404 14.0182 8.98707 14.0602 9.0524 14.0602C9.09907 14.0602 9.12707 14.0509 9.1364 14.0322C9.15507 14.0042 9.17373 13.9669 9.1924 13.9202C9.20173 13.8735 9.1784 13.8269 9.1224 13.7802ZM7.0504 13.9902L6.9804 13.8642L6.8124 13.9202L6.8404 14.1162L7.0224 14.1722L7.0504 13.9902ZM4.8664 14.1582C4.80107 14.0929 4.74973 14.0415 4.7124 14.0042C4.6844 13.9575 4.6284 13.9529 4.5444 13.9902C4.4604 14.0369 4.40907 14.0835 4.3904 14.1302C4.37173 14.1769 4.36707 14.2515 4.3764 14.3542C4.39507 14.4569 4.41373 14.5315 4.4324 14.5782C4.4604 14.6249 4.52573 14.6622 4.6284 14.6902C4.7404 14.7089 4.82907 14.7135 4.8944 14.7042C4.95973 14.6855 5.0204 14.6249 5.0764 14.5222C5.1324 14.4289 5.12773 14.3635 5.0624 14.3262C4.99707 14.2889 4.93173 14.2329 4.8664 14.1582ZM10.0604 14.3542C10.0324 14.2889 10.0091 14.2422 9.9904 14.2142C9.97173 14.1769 9.92973 14.1582 9.8644 14.1582C9.78973 14.1675 9.74306 14.1909 9.7244 14.2282C9.70573 14.2562 9.68707 14.3029 9.6684 14.3682C9.65907 14.4242 9.66373 14.4662 9.6824 14.4942C9.70107 14.5222 9.73373 14.5502 9.7804 14.5782C9.8364 14.6155 9.8784 14.6435 9.9064 14.6622C9.94373 14.6715 9.9904 14.6575 10.0464 14.6202C10.0931 14.5735 10.1117 14.5315 10.1024 14.4942C10.1024 14.4569 10.0884 14.4102 10.0604 14.3542ZM7.9884 14.4102L7.9184 14.2842L7.8204 14.3822V14.4802L7.9464 14.5362L7.9884 14.4102ZM5.6784 14.6622C5.61307 14.6062 5.55707 14.5875 5.5104 14.6062C5.47307 14.6155 5.41707 14.6435 5.3424 14.6902C5.2864 14.7275 5.25373 14.7649 5.2444 14.8022C5.2444 14.8395 5.25373 14.8909 5.2724 14.9562C5.29107 15.0495 5.3564 15.1009 5.4684 15.1102C5.54307 15.1102 5.59907 15.1102 5.6364 15.1102C5.67373 15.1009 5.7064 15.0635 5.7344 14.9982C5.7624 14.9142 5.7764 14.8535 5.7764 14.8162C5.7764 14.7695 5.74373 14.7182 5.6784 14.6622ZM10.8724 15.1522C10.7791 15.1242 10.7044 15.1149 10.6484 15.1242C10.6017 15.1335 10.5551 15.1802 10.5084 15.2642C10.4431 15.3669 10.3917 15.4509 10.3544 15.5162C10.3171 15.5722 10.3404 15.6469 10.4244 15.7402C10.4991 15.8429 10.5691 15.8849 10.6344 15.8662C10.7091 15.8475 10.8024 15.8149 10.9144 15.7682C11.0357 15.7215 11.1291 15.6842 11.1944 15.6562C11.2597 15.6282 11.2877 15.5489 11.2784 15.4182C11.2691 15.2969 11.2271 15.2315 11.1524 15.2222C11.0777 15.2035 10.9844 15.1802 10.8724 15.1522ZM4.6984 15.6842C4.6424 15.5535 4.5724 15.4929 4.4884 15.5022C4.41373 15.5022 4.3064 15.5069 4.1664 15.5162C4.01707 15.5255 3.89573 15.5349 3.8024 15.5442C3.7184 15.5442 3.65773 15.6189 3.6204 15.7682C3.58307 15.9175 3.5924 16.0295 3.6484 16.1042C3.7044 16.1695 3.79773 16.2442 3.9284 16.3282C4.08707 16.4215 4.2084 16.4869 4.2924 16.5242C4.38573 16.5615 4.49773 16.5195 4.6284 16.3982C4.7684 16.2862 4.82907 16.1835 4.8104 16.0902C4.80107 15.9875 4.76373 15.8522 4.6984 15.6842Z" fill="white"/>
<path d="M17.2994 20.0801C16.5061 20.0801 15.8434 19.9774 15.3114 19.7721C14.7887 19.5761 14.3687 19.3334 14.0514 19.0441C13.734 18.7641 13.5054 18.4841 13.3654 18.2041C13.2254 17.9334 13.1507 17.7234 13.1414 17.5741C13.132 17.4714 13.1647 17.3828 13.2394 17.3081C13.3234 17.2334 13.4167 17.1961 13.5194 17.1961H16.2494C16.352 17.1961 16.4314 17.2194 16.4874 17.2661C16.5527 17.3221 16.604 17.3921 16.6414 17.4761C16.7067 17.5974 16.7767 17.6861 16.8514 17.7421C16.9354 17.7981 17.0614 17.8261 17.2294 17.8261C17.6307 17.8261 17.8314 17.5508 17.8314 17.0001V16.0761C17.6167 16.2628 17.3554 16.4121 17.0474 16.5241C16.7394 16.6268 16.38 16.6781 15.9694 16.6781C15.092 16.6781 14.392 16.4448 13.8694 15.9781C13.356 15.5021 13.0667 14.6808 13.0014 13.5141C12.992 13.2714 12.992 13.0334 13.0014 12.8001C13.0574 11.6988 13.3467 10.8868 13.8694 10.3641C14.392 9.84141 15.092 9.58008 15.9694 9.58008C16.4267 9.58008 16.828 9.66875 17.1734 9.84608C17.528 10.0234 17.8174 10.2521 18.0414 10.5321V10.0981C18.0414 9.99541 18.0787 9.90675 18.1534 9.83208C18.2281 9.75741 18.3167 9.72008 18.4194 9.72008H20.8694C20.972 9.72008 21.0607 9.75741 21.1354 9.83208C21.2101 9.90675 21.2474 9.99541 21.2474 10.0981L21.2614 16.7621C21.2614 17.5461 21.0841 18.1808 20.7294 18.6661C20.3747 19.1514 19.8987 19.5061 19.3014 19.7301C18.7041 19.9634 18.0367 20.0801 17.2994 20.0801ZM15.3814 9.90208L15.2694 9.91608L15.2834 10.0141L15.3534 10.0561L15.4514 10.0001L15.3814 9.90208ZM17.2434 10.4761L17.1174 10.4481L17.0334 10.5881L17.1454 10.7421L17.2854 10.6161L17.2434 10.4761ZM15.7314 10.7281L15.6334 10.7841V10.8541L15.7034 10.9241L15.7874 10.8401L15.7314 10.7281ZM14.0514 10.7281C13.9114 10.7188 13.8134 10.7794 13.7574 10.9101C13.7294 10.9754 13.734 11.0221 13.7714 11.0501C13.8087 11.0688 13.8554 11.1014 13.9114 11.1481C13.9767 11.2041 14.042 11.2088 14.1074 11.1621C14.1914 11.1154 14.224 11.0548 14.2054 10.9801C14.1867 10.9054 14.1727 10.8494 14.1634 10.8121C14.1634 10.7654 14.126 10.7374 14.0514 10.7281ZM18.0554 11.0081C17.9807 10.9241 17.9107 10.8774 17.8454 10.8681C17.7894 10.8588 17.71 10.8774 17.6074 10.9241C17.5047 10.9708 17.4347 11.0221 17.3974 11.0781C17.3694 11.1248 17.36 11.2041 17.3694 11.3161C17.3787 11.4188 17.4114 11.4748 17.4674 11.4841C17.5327 11.4934 17.6121 11.5121 17.7054 11.5401C17.8174 11.5588 17.906 11.5868 17.9714 11.6241C18.0461 11.6521 18.1114 11.6148 18.1674 11.5121C18.2327 11.4001 18.2514 11.3161 18.2234 11.2601C18.1954 11.1948 18.1394 11.1108 18.0554 11.0081ZM20.0994 11.1621C20.0061 11.0874 19.9361 11.0128 19.8894 10.9381C19.8521 10.8634 19.7774 10.8588 19.6654 10.9241C19.5534 10.9988 19.4881 11.0734 19.4694 11.1481C19.4507 11.2228 19.4601 11.3254 19.4974 11.4561C19.5254 11.5774 19.5674 11.6521 19.6234 11.6801C19.6887 11.7081 19.782 11.7268 19.9034 11.7361C20.0061 11.7454 20.0714 11.7314 20.0994 11.6941C20.1367 11.6474 20.1741 11.5774 20.2114 11.4841C20.2487 11.4001 20.2534 11.3394 20.2254 11.3021C20.2067 11.2648 20.1647 11.2181 20.0994 11.1621ZM18.8394 11.1061C18.7834 11.0594 18.7134 11.0594 18.6294 11.1061C18.5734 11.1434 18.5547 11.2041 18.5734 11.2881C18.5921 11.3441 18.6434 11.3721 18.7274 11.3721C18.774 11.3721 18.8161 11.3768 18.8534 11.3861C18.8907 11.3954 18.9187 11.3768 18.9374 11.3301C18.9561 11.2741 18.9561 11.2321 18.9374 11.2041C18.9187 11.1761 18.886 11.1434 18.8394 11.1061ZM14.7234 11.0921C14.6674 11.0641 14.6114 11.0781 14.5554 11.1341C14.518 11.1714 14.4854 11.2041 14.4574 11.2321C14.4294 11.2508 14.4294 11.2881 14.4574 11.3441C14.4854 11.3908 14.5134 11.4048 14.5414 11.3861C14.5787 11.3674 14.6207 11.3534 14.6674 11.3441C14.7141 11.3348 14.7514 11.3301 14.7794 11.3301C14.8074 11.3301 14.826 11.3068 14.8354 11.2601C14.8447 11.1948 14.8074 11.1388 14.7234 11.0921ZM16.8374 11.2041L16.6974 11.1481L16.5854 11.2041L16.6134 11.3581L16.7394 11.3161L16.8374 11.2041ZM15.4654 11.7361C15.3627 11.6241 15.274 11.5681 15.1994 11.5681C15.1247 11.5681 15.0174 11.6008 14.8774 11.6661C14.7654 11.7128 14.7 11.7688 14.6814 11.8341C14.6627 11.8994 14.658 11.9928 14.6674 12.1141C14.6767 12.2448 14.6954 12.3428 14.7234 12.4081C14.7514 12.4641 14.8307 12.5061 14.9614 12.5341C15.0734 12.5621 15.1434 12.5434 15.1714 12.4781C15.2087 12.4128 15.2554 12.3334 15.3114 12.2401C15.3767 12.1281 15.4374 12.0441 15.4934 11.9881C15.5587 11.9228 15.5494 11.8388 15.4654 11.7361ZM20.7574 11.9181L20.6594 11.8481V12.0301L20.7434 12.0021L20.7574 11.9181ZM17.1314 14.2421C17.3741 14.2421 17.5467 14.1814 17.6494 14.0601C17.752 13.9388 17.8127 13.7661 17.8314 13.5421C17.8407 13.4674 17.8454 13.3414 17.8454 13.1641C17.8454 12.9774 17.8407 12.8514 17.8314 12.7861C17.8127 12.5621 17.752 12.3894 17.6494 12.2681C17.5467 12.1468 17.3741 12.0861 17.1314 12.0861C16.87 12.0861 16.6927 12.1608 16.5994 12.3101C16.5061 12.4501 16.45 12.6461 16.4314 12.8981C16.4127 13.0754 16.4127 13.2528 16.4314 13.4301C16.45 13.6821 16.5061 13.8828 16.5994 14.0321C16.6927 14.1721 16.87 14.2421 17.1314 14.2421ZM18.8254 12.4361C18.816 12.3708 18.7927 12.3381 18.7554 12.3381C18.7274 12.3288 18.6807 12.3194 18.6154 12.3101C18.5314 12.3008 18.4614 12.2914 18.4054 12.2821C18.3587 12.2634 18.3214 12.2914 18.2934 12.3661C18.2561 12.4408 18.2561 12.4968 18.2934 12.5341C18.34 12.5621 18.3961 12.6041 18.4614 12.6601C18.5174 12.7161 18.5641 12.7581 18.6014 12.7861C18.6387 12.8048 18.6947 12.7954 18.7694 12.7581C18.8347 12.7114 18.8674 12.6648 18.8674 12.6181C18.8674 12.5714 18.8534 12.5108 18.8254 12.4361ZM16.1234 12.8841C16.086 12.7814 16.0441 12.7114 15.9974 12.6741C15.9507 12.6274 15.8667 12.6088 15.7454 12.6181C15.6427 12.6274 15.5774 12.6601 15.5494 12.7161C15.5214 12.7628 15.4934 12.8374 15.4654 12.9401C15.4374 13.0334 15.4327 13.1034 15.4514 13.1501C15.47 13.1968 15.5167 13.2434 15.5914 13.2901C15.666 13.3368 15.7267 13.3554 15.7734 13.3461C15.82 13.3368 15.8807 13.3041 15.9554 13.2481C16.0301 13.1828 16.086 13.1314 16.1234 13.0941C16.1607 13.0474 16.1607 12.9774 16.1234 12.8841ZM14.0934 13.2761L13.9674 13.3881L13.9394 13.5701L14.1074 13.5281L14.1914 13.4161L14.0934 13.2761ZM20.6734 14.1581C20.6454 13.9621 20.5707 13.8548 20.4494 13.8361C20.3374 13.8174 20.1834 13.7941 19.9874 13.7661C19.838 13.7381 19.7214 13.7381 19.6374 13.7661C19.5627 13.7848 19.4881 13.8641 19.4134 14.0041C19.32 14.1721 19.2594 14.3074 19.2314 14.4101C19.2034 14.5128 19.2547 14.6294 19.3854 14.7601C19.5254 14.9094 19.6467 14.9794 19.7494 14.9701C19.852 14.9608 19.9921 14.9141 20.1694 14.8301C20.3561 14.7368 20.496 14.6528 20.5894 14.5781C20.6827 14.5034 20.7107 14.3634 20.6734 14.1581ZM18.6014 14.3541C18.5827 14.2514 18.5407 14.2001 18.4754 14.2001C18.4194 14.2001 18.3447 14.1954 18.2514 14.1861C18.1581 14.1768 18.0834 14.1674 18.0274 14.1581C17.9807 14.1488 17.934 14.1861 17.8874 14.2701C17.8407 14.3728 17.8127 14.4568 17.8034 14.5221C17.8034 14.5781 17.85 14.6481 17.9434 14.7321C18.0274 14.8161 18.102 14.8674 18.1674 14.8861C18.2327 14.8954 18.3214 14.8674 18.4334 14.8021C18.5361 14.7461 18.5967 14.6854 18.6154 14.6201C18.6341 14.5548 18.6294 14.4661 18.6014 14.3541ZM15.0454 14.7601C15.0267 14.6668 15.0034 14.5968 14.9754 14.5501C14.9567 14.5034 14.9007 14.4754 14.8074 14.4661C14.714 14.4568 14.6534 14.4801 14.6254 14.5361C14.6067 14.5828 14.5787 14.6481 14.5414 14.7321C14.5134 14.8161 14.49 14.8814 14.4714 14.9281C14.462 14.9748 14.4947 15.0261 14.5694 15.0821C14.644 15.1568 14.7094 15.2034 14.7654 15.2221C14.8214 15.2314 14.8914 15.2081 14.9754 15.1521C15.0594 15.0961 15.0967 15.0401 15.0874 14.9841C15.0874 14.9281 15.0734 14.8534 15.0454 14.7601ZM17.3974 14.7881C17.3787 14.7414 17.3554 14.7228 17.3274 14.7321C17.2994 14.7321 17.2621 14.7368 17.2154 14.7461C17.1501 14.7554 17.1127 14.7928 17.1034 14.8581C17.094 14.9048 17.0847 14.9421 17.0754 14.9701C17.0754 14.9981 17.0987 15.0214 17.1454 15.0401C17.1827 15.0681 17.2107 15.0728 17.2294 15.0541C17.2574 15.0354 17.29 15.0074 17.3274 14.9701C17.3647 14.9328 17.3927 14.9048 17.4114 14.8861C17.43 14.8581 17.4254 14.8254 17.3974 14.7881ZM15.6894 15.2501C15.6334 15.2128 15.5867 15.2034 15.5494 15.2221C15.5214 15.2408 15.484 15.2688 15.4374 15.3061C15.3907 15.3528 15.358 15.3901 15.3394 15.4181C15.33 15.4461 15.3347 15.4881 15.3534 15.5441C15.4 15.6468 15.4747 15.6934 15.5774 15.6841C15.6427 15.6748 15.68 15.6561 15.6894 15.6281C15.708 15.6001 15.7267 15.5581 15.7454 15.5021C15.7547 15.4368 15.7594 15.3854 15.7594 15.3481C15.7687 15.3108 15.7454 15.2781 15.6894 15.2501ZM17.0894 15.3061C17.0054 15.2781 16.9401 15.2968 16.8934 15.3621C16.828 15.4461 16.8234 15.5208 16.8794 15.5861C16.9074 15.6328 16.9354 15.6654 16.9634 15.6841C16.9914 15.7028 17.038 15.7028 17.1034 15.6841C17.1594 15.6654 17.192 15.6421 17.2014 15.6141C17.2107 15.5861 17.2154 15.5394 17.2154 15.4741C17.2154 15.3901 17.1734 15.3341 17.0894 15.3061ZM18.3354 15.4321L18.1954 15.2921L18.0274 15.3901L18.0834 15.5581L18.2514 15.6001L18.3354 15.4321ZM16.4734 15.4181L16.3474 15.4601L16.3194 15.6001L16.4594 15.6141L16.5434 15.5301L16.4734 15.4181ZM19.3574 15.8241C19.1521 15.8148 18.9887 15.8194 18.8674 15.8381C18.7554 15.8474 18.6574 15.9501 18.5734 16.1461C18.4894 16.3608 18.4614 16.5288 18.4894 16.6501C18.5267 16.7621 18.634 16.8928 18.8114 17.0421C18.9794 17.1821 19.1194 17.2381 19.2314 17.2101C19.3434 17.1821 19.488 17.1121 19.6654 17.0001C19.8147 16.9068 19.8847 16.8134 19.8754 16.7201C19.8754 16.6174 19.8567 16.4821 19.8194 16.3141C19.7821 16.1554 19.7354 16.0388 19.6794 15.9641C19.6327 15.8801 19.5254 15.8334 19.3574 15.8241ZM20.8554 17.3361C20.8181 17.2428 20.7667 17.2008 20.7014 17.2101C20.6454 17.2288 20.566 17.2428 20.4634 17.2521C20.3887 17.2614 20.3281 17.2754 20.2814 17.2941C20.2441 17.3128 20.2161 17.3641 20.1974 17.4481C20.1787 17.5508 20.1741 17.6301 20.1834 17.6861C20.1927 17.7421 20.2394 17.7934 20.3234 17.8401C20.4261 17.8868 20.5054 17.9054 20.5614 17.8961C20.6174 17.8961 20.6874 17.8541 20.7714 17.7701C20.8461 17.6954 20.8881 17.6301 20.8974 17.5741C20.916 17.5181 20.9021 17.4388 20.8554 17.3361ZM15.5214 17.7561L15.3954 17.6441L15.2554 17.7281L15.3254 17.8681H15.4514L15.5214 17.7561ZM15.1294 18.2881C15.1294 18.1854 15.1014 18.1201 15.0454 18.0921C14.9894 18.0641 14.91 18.0361 14.8074 18.0081C14.7327 17.9801 14.672 17.9754 14.6254 17.9941C14.588 18.0221 14.546 18.0734 14.4994 18.1481C14.4527 18.2041 14.434 18.2508 14.4434 18.2881C14.4527 18.3348 14.4807 18.3908 14.5274 18.4561C14.5834 18.5308 14.6254 18.5914 14.6534 18.6381C14.6907 18.6848 14.756 18.6941 14.8494 18.6661C14.952 18.6288 15.022 18.5868 15.0594 18.5401C15.106 18.4934 15.1294 18.4094 15.1294 18.2881ZM17.9014 18.4421C17.864 18.4234 17.8314 18.4094 17.8034 18.4001C17.7847 18.4001 17.766 18.4141 17.7474 18.4421C17.6914 18.5074 17.682 18.5681 17.7194 18.6241C17.7754 18.7174 17.8361 18.7548 17.9014 18.7361C17.9574 18.7174 17.99 18.6941 17.9994 18.6661C18.0087 18.6381 18.0134 18.6008 18.0134 18.5541C18.0134 18.5074 18.004 18.4794 17.9854 18.4701C17.9667 18.4608 17.9387 18.4514 17.9014 18.4421ZM19.0354 18.4421L18.8954 18.4281L18.7554 18.4841L18.8674 18.5821L18.9934 18.5961L19.0354 18.4421ZM16.0674 18.6241C15.9834 18.5961 15.918 18.5821 15.8714 18.5821C15.8247 18.5914 15.7734 18.6334 15.7174 18.7081C15.6707 18.7828 15.652 18.8388 15.6614 18.8761C15.6707 18.9228 15.7034 18.9834 15.7594 19.0581C15.8247 19.1421 15.876 19.2028 15.9134 19.2401C15.9507 19.2868 16.016 19.2914 16.1094 19.2541C16.24 19.2168 16.338 19.1794 16.4034 19.1421C16.4781 19.1048 16.5154 19.0161 16.5154 18.8761C16.5154 18.7454 16.4687 18.6801 16.3754 18.6801C16.2914 18.6801 16.1887 18.6614 16.0674 18.6241ZM17.4534 18.8341L17.3554 18.7501L17.2714 18.7921V18.8761L17.3554 18.9181L17.4534 18.8341ZM19.0214 19.1701L18.8394 19.2121L18.8674 19.3101H18.9794L19.0214 19.1701ZM18.0134 19.4921C17.9947 19.4454 17.9667 19.4174 17.9294 19.4081C17.9014 19.4081 17.864 19.4128 17.8174 19.4221C17.752 19.4314 17.7007 19.4361 17.6634 19.4361C17.6354 19.4361 17.612 19.4641 17.5934 19.5201C17.584 19.5854 17.5934 19.6274 17.6214 19.6461C17.6494 19.6648 17.6914 19.6881 17.7474 19.7161C17.8221 19.7628 17.892 19.7628 17.9574 19.7161C18.0227 19.6508 18.0414 19.5761 18.0134 19.4921Z" fill="white"/>
</svg>
