<svg width="24" height="24" viewBox="0 0 24 24" fill="none" xmlns="http://www.w3.org/2000/svg">
<path d="M3.7348 17.0002C3.66014 17.0002 3.5948 16.9722 3.5388 16.9162C3.4828 16.8602 3.4548 16.7949 3.4548 16.7202C3.4548 16.6735 3.45947 16.6222 3.4688 16.5662L6.94081 7.5082C6.97814 7.41487 7.02947 7.3402 7.0948 7.2842C7.16014 7.2282 7.25814 7.2002 7.38881 7.2002H8.3408C8.46214 7.2002 8.55547 7.2282 8.62081 7.2842C8.69547 7.3402 8.75147 7.41487 8.78881 7.5082L12.2468 16.5662C12.2655 16.6222 12.2748 16.6735 12.2748 16.7202C12.2748 16.7949 12.2468 16.8602 12.1908 16.9162C12.1348 16.9722 12.0695 17.0002 11.9948 17.0002H11.2808C11.1688 17.0002 11.0848 16.9722 11.0288 16.9162C10.9821 16.8602 10.9495 16.8089 10.9308 16.7622L10.1608 14.7742H5.5688L4.7988 16.7622C4.78947 16.8089 4.7568 16.8602 4.7008 16.9162C4.6448 16.9722 4.5608 17.0002 4.4488 17.0002H3.7348ZM5.9748 13.5702H9.75481L7.8648 8.6002L5.9748 13.5702ZM16.4897 20.0802C15.855 20.0802 15.3323 19.9962 14.9217 19.8282C14.5203 19.6602 14.203 19.4549 13.9697 19.2122C13.7457 18.9789 13.5823 18.7409 13.4797 18.4982C13.3863 18.2649 13.335 18.0782 13.3257 17.9382C13.3163 17.8449 13.3443 17.7655 13.4097 17.7002C13.4843 17.6349 13.5637 17.6022 13.6477 17.6022H14.3197C14.4037 17.6022 14.4737 17.6209 14.5297 17.6582C14.5857 17.6955 14.6323 17.7749 14.6697 17.8962C14.7257 18.0362 14.8097 18.1902 14.9217 18.3582C15.0337 18.5355 15.2063 18.6849 15.4397 18.8062C15.673 18.9369 15.9997 19.0022 16.4197 19.0022C16.8583 19.0022 17.227 18.9415 17.5257 18.8202C17.8243 18.7082 18.0483 18.5029 18.1977 18.2042C18.3563 17.9149 18.4357 17.5135 18.4357 17.0002V16.0482C18.2117 16.3375 17.9177 16.5802 17.5537 16.7762C17.1897 16.9629 16.7323 17.0562 16.1817 17.0562C15.659 17.0562 15.211 16.9675 14.8377 16.7902C14.4643 16.6035 14.1563 16.3562 13.9137 16.0482C13.6803 15.7309 13.503 15.3715 13.3817 14.9702C13.2697 14.5689 13.2043 14.1489 13.1857 13.7102C13.1763 13.4489 13.1763 13.1922 13.1857 12.9402C13.2043 12.5015 13.2697 12.0815 13.3817 11.6802C13.503 11.2789 13.6803 10.9195 13.9137 10.6022C14.1563 10.2849 14.4643 10.0375 14.8377 9.8602C15.211 9.67353 15.659 9.5802 16.1817 9.5802C16.7417 9.5802 17.2037 9.68753 17.5677 9.9022C17.941 10.1075 18.2443 10.3595 18.4777 10.6582V10.0562C18.4777 9.96287 18.5057 9.88353 18.5617 9.8182C18.627 9.75287 18.7063 9.7202 18.7997 9.7202H19.4437C19.537 9.7202 19.6163 9.75287 19.6817 9.8182C19.747 9.88353 19.7797 9.96287 19.7797 10.0562V16.8462C19.7797 17.4715 19.6723 18.0269 19.4577 18.5122C19.2523 18.9975 18.907 19.3802 18.4217 19.6602C17.9457 19.9402 17.3017 20.0802 16.4897 20.0802ZM16.4617 15.9362C16.9283 15.9362 17.3017 15.8289 17.5817 15.6142C17.871 15.3995 18.081 15.1289 18.2117 14.8022C18.3517 14.4755 18.4263 14.1442 18.4357 13.8082C18.445 13.6775 18.4497 13.5189 18.4497 13.3322C18.4497 13.1362 18.445 12.9729 18.4357 12.8422C18.4263 12.5062 18.3517 12.1749 18.2117 11.8482C18.081 11.5215 17.871 11.2509 17.5817 11.0362C17.3017 10.8215 16.9283 10.7142 16.4617 10.7142C15.995 10.7142 15.6217 10.8215 15.3417 11.0362C15.0617 11.2415 14.861 11.5169 14.7397 11.8622C14.6183 12.1982 14.5483 12.5622 14.5297 12.9542C14.5203 13.1969 14.5203 13.4442 14.5297 13.6962C14.5483 14.0882 14.6183 14.4569 14.7397 14.8022C14.861 15.1382 15.0617 15.4135 15.3417 15.6282C15.6217 15.8335 15.995 15.9362 16.4617 15.9362Z" fill="white"/>
</svg>
