<svg width="24" height="24" viewBox="0 0 24 24" fill="none" xmlns="http://www.w3.org/2000/svg">
<path d="M4.32324 15.9999L6.96924 6.25586H8.80324L11.4633 15.9999H10.0913L9.34924 13.0599L10.0353 13.4799H5.76524L6.42324 13.0599L5.68124 15.9999H4.32324ZM6.43724 12.9339L6.00324 12.3179H9.78324L9.33524 12.9339L7.79524 6.85786L8.52324 7.44586H7.24924L7.99124 6.85786L6.43724 12.9339ZM14.9203 18.5059C14.5376 18.5059 14.1736 18.4872 13.8283 18.4499C13.4923 18.4126 13.1983 18.3659 12.9463 18.3099C12.6943 18.2539 12.4936 18.2072 12.3443 18.1699C12.1949 18.1326 12.1203 18.1139 12.1203 18.1139L12.2743 16.9659C12.8249 17.0686 13.3849 17.1526 13.9543 17.2179C14.5236 17.2926 15.0696 17.3299 15.5923 17.3299C16.0869 17.3299 16.4183 17.2926 16.5863 17.2179C16.7543 17.1432 16.8383 17.0219 16.8383 16.8539C16.8383 16.7606 16.8149 16.6766 16.7683 16.6019C16.7216 16.5272 16.6329 16.4479 16.5023 16.3639C16.3809 16.2799 16.1943 16.1819 15.9423 16.0699C15.6996 15.9579 15.3729 15.8179 14.9623 15.6499C14.4489 15.4352 14.0756 15.2812 13.8423 15.1879C13.6183 15.0946 13.4783 15.0339 13.4223 15.0059C13.3663 14.9686 13.3383 14.9359 13.3383 14.9079C13.3383 14.8799 13.3616 14.8052 13.4083 14.6839C13.4549 14.5626 13.5156 14.4179 13.5903 14.2499C13.6649 14.0726 13.7349 13.8952 13.8003 13.7179C13.8749 13.5406 13.9356 13.4006 13.9823 13.2979C13.3663 13.1579 12.8716 12.8546 12.4983 12.3879C12.1249 11.9119 11.9383 11.3286 11.9383 10.6379C11.9383 9.88186 12.0876 9.28919 12.3863 8.85986C12.6943 8.42119 13.1003 8.11319 13.6043 7.93586C14.1176 7.74919 14.6636 7.65586 15.2423 7.65586C15.4383 7.65586 15.6669 7.66053 15.9283 7.66986C16.1896 7.67919 16.4556 7.69319 16.7263 7.71186C17.0063 7.73053 17.2629 7.74919 17.4963 7.76786C17.7389 7.78653 17.9303 7.80053 18.0703 7.80986C18.2196 7.81919 18.2943 7.82386 18.2943 7.82386V8.64986L17.3843 8.78986C17.3843 8.78053 17.4216 8.87386 17.4963 9.06986C17.5709 9.25653 17.6456 9.49453 17.7203 9.78386C17.7949 10.0639 17.8323 10.3439 17.8323 10.6239C17.8323 11.1559 17.7109 11.6319 17.4683 12.0519C17.2349 12.4719 16.8896 12.8032 16.4323 13.0459C15.9843 13.2792 15.4383 13.3959 14.7943 13.3959C14.7756 13.5266 14.7476 13.6852 14.7103 13.8719C14.6823 14.0492 14.6683 14.1566 14.6683 14.1939C14.6683 14.2126 14.7009 14.2406 14.7663 14.2779C14.8316 14.3059 14.9576 14.3572 15.1443 14.4319C15.3309 14.4972 15.6016 14.6092 15.9563 14.7679C16.5069 14.9919 16.9316 15.2112 17.2303 15.4259C17.5289 15.6406 17.7343 15.8506 17.8463 16.0559C17.9676 16.2612 18.0283 16.4712 18.0283 16.6859C18.0283 17.0686 17.8929 17.3952 17.6223 17.6659C17.3609 17.9459 16.9969 18.1559 16.5303 18.2959C16.0636 18.4359 15.5269 18.5059 14.9203 18.5059ZM14.8783 12.3039C15.2983 12.3039 15.6296 12.2572 15.8723 12.1639C16.1243 12.0612 16.3063 11.8839 16.4183 11.6319C16.5303 11.3706 16.5863 11.0112 16.5863 10.5539C16.5863 10.0592 16.5536 9.66253 16.4883 9.36386C16.4323 9.05586 16.3763 8.88319 16.3203 8.84586C16.3016 8.82719 16.2269 8.81319 16.0963 8.80386C15.9656 8.78519 15.8209 8.77586 15.6623 8.77586C15.5036 8.76653 15.3589 8.76186 15.2283 8.76186C15.1069 8.75253 15.0416 8.74786 15.0323 8.74786C14.5936 8.74786 14.2389 8.79453 13.9683 8.88786C13.6976 8.98119 13.5016 9.15853 13.3803 9.41986C13.2589 9.68119 13.1983 10.0686 13.1983 10.5819C13.1983 11.2539 13.3243 11.7112 13.5763 11.9539C13.8376 12.1872 14.2716 12.3039 14.8783 12.3039Z" fill="white"/>
</svg>
