<svg width="24" height="24" viewBox="0 0 24 24" fill="none" xmlns="http://www.w3.org/2000/svg">
<path d="M11.9765 15.8668V16.0004H8.10313C8.05861 15.3882 7.964 14.7315 7.8193 14.0303C7.04017 14.8094 6.26104 15.4661 5.48191 16.0004H1.59183C1.51391 15.5441 1.47496 14.943 1.47496 14.1973C1.47496 13.4404 1.58626 12.6835 1.80887 11.9267C2.61026 11.6929 3.37826 11.2978 4.11287 10.7413C4.85861 10.1847 5.39844 9.58369 5.73235 8.93813C5.4207 8.44839 5.10348 8.01986 4.7807 7.65255H10.3237C11.4256 10.0679 11.9765 12.806 11.9765 15.8668ZM7.51878 12.8115C7.24052 11.8543 6.86209 10.9194 6.38348 10.0067C5.86035 11.5427 5.55983 12.9952 5.48191 14.3642C6.30557 13.919 6.98452 13.4014 7.51878 12.8115ZM19.2226 15.1823L19.2393 14.4811C19.2393 13.6908 19.1725 12.7503 19.0389 11.6595H22.6452C22.6452 13.2401 22.5673 14.687 22.4114 16.0004C20.6862 16.2453 18.8998 16.3677 17.0521 16.3677H15.9836C14.9707 15.9336 14.1805 15.2992 13.6128 14.4644C13.0452 13.6185 12.7613 12.7225 12.7613 11.7764C12.7613 10.5187 13.2678 9.45568 14.2807 8.58751C15.3047 7.70821 16.7961 7.26855 18.7551 7.26855C19.7791 7.26855 20.92 7.40769 22.1777 7.68595C21.9885 8.44282 21.7714 9.11065 21.5266 9.68942C20.8476 9.73395 20.1186 9.76734 19.3394 9.7896C19.4619 9.41116 19.5509 9.0383 19.6066 8.671C19.2504 8.60422 18.8831 8.57083 18.5047 8.57083C18.1373 8.57083 17.6977 8.63204 17.1857 8.75448C17.0076 9.51135 16.9186 10.1959 16.9186 10.8081C16.9186 11.7319 17.1245 12.6001 17.5363 13.4126C17.9593 14.214 18.5213 14.8039 19.2226 15.1823Z" fill="white"/>
</svg>
