<svg width="24" height="24" viewBox="0 0 24 24" fill="none" xmlns="http://www.w3.org/2000/svg">
<path d="M2.74173 17.0002L7.69773 7.36816H11.6737L12.5137 17.0002H9.72773L9.58773 15.3342H6.45173L5.62573 17.0002H2.74173ZM7.38973 13.3182H9.50373L9.26573 9.74816H9.15373L7.38973 13.3182ZM15.6941 19.8842C15.3861 19.8842 15.0688 19.8749 14.7421 19.8562C14.4248 19.8375 14.1215 19.8142 13.8321 19.7862C13.5521 19.7582 13.3188 19.7255 13.1321 19.6882L13.4961 17.9522C13.6921 17.9522 13.8928 17.9522 14.0981 17.9522C14.3128 17.9615 14.5275 17.9662 14.7421 17.9662C14.9661 17.9662 15.1808 17.9662 15.3861 17.9662C15.8248 17.9662 16.1655 17.9522 16.4081 17.9242C16.6601 17.9055 16.8515 17.8542 16.9821 17.7702C17.1128 17.6862 17.2108 17.5555 17.2761 17.3782C17.3415 17.2009 17.4021 16.9629 17.4581 16.6642C17.4768 16.5615 17.5001 16.4635 17.5281 16.3702C17.5655 16.2769 17.5935 16.1789 17.6121 16.0762H17.4861C17.2901 16.3095 17.0848 16.4869 16.8701 16.6082C16.6648 16.7295 16.4408 16.8135 16.1981 16.8602C15.9648 16.8975 15.6941 16.9162 15.3861 16.9162C15.0035 16.9162 14.6815 16.8649 14.4201 16.7622C14.1588 16.6595 13.9628 16.4822 13.8321 16.2302C13.7015 15.9782 13.6361 15.6375 13.6361 15.2082C13.6361 14.9655 13.6548 14.6902 13.6921 14.3822C13.7388 14.0649 13.8041 13.7149 13.8881 13.3322C14.0375 12.6229 14.1961 12.0349 14.3641 11.5682C14.5321 11.1015 14.7328 10.7375 14.9661 10.4762C15.1995 10.2149 15.4701 10.0282 15.7781 9.91616C16.0861 9.80416 16.4548 9.74816 16.8841 9.74816C17.1455 9.74816 17.3928 9.77149 17.6261 9.81816C17.8595 9.86483 18.0648 9.95816 18.2421 10.0982C18.4195 10.2289 18.5501 10.4249 18.6341 10.6862H18.7741L19.0121 9.86016H21.5601L20.2021 16.2022C20.0901 16.7249 19.9735 17.1822 19.8521 17.5742C19.7401 17.9755 19.5908 18.3209 19.4041 18.6102C19.2175 18.9089 18.9701 19.1515 18.6621 19.3382C18.3635 19.5249 17.9715 19.6602 17.4861 19.7442C17.0101 19.8375 16.4128 19.8842 15.6941 19.8842ZM17.0241 14.8442C17.1735 14.8442 17.2948 14.8349 17.3881 14.8162C17.4908 14.7975 17.5748 14.7602 17.6401 14.7042C17.7148 14.6389 17.7755 14.5549 17.8221 14.4522C17.8688 14.3775 17.9108 14.2702 17.9481 14.1302C17.9948 13.9809 18.0368 13.8222 18.0741 13.6542C18.1208 13.4769 18.1628 13.2995 18.2001 13.1222C18.2375 12.9449 18.2655 12.7815 18.2841 12.6322C18.3028 12.4829 18.3121 12.3662 18.3121 12.2822C18.3121 12.0955 18.2608 11.9742 18.1581 11.9182C18.0555 11.8622 17.8921 11.8342 17.6681 11.8342C17.4628 11.8342 17.2995 11.8482 17.1781 11.8762C17.0661 11.9042 16.9728 11.9649 16.8981 12.0582C16.8328 12.1515 16.7721 12.3009 16.7161 12.5062C16.6601 12.7115 16.5948 12.9915 16.5201 13.3462C16.4641 13.6169 16.4175 13.8409 16.3801 14.0182C16.3521 14.1862 16.3381 14.3262 16.3381 14.4382C16.3381 14.5502 16.3615 14.6389 16.4081 14.7042C16.4548 14.7602 16.5295 14.7975 16.6321 14.8162C16.7348 14.8349 16.8655 14.8442 17.0241 14.8442Z" fill="white"/>
</svg>
