<svg width="24" height="24" viewBox="0 0 24 24" fill="none" xmlns="http://www.w3.org/2000/svg">
<path d="M10.5618 17.0002L10.0998 14.8162H7.63584L7.18784 17.0002H5.57784L7.73384 7.36816H10.0438L12.1998 17.0002H10.5618ZM8.90984 8.95016H8.82584L7.92984 13.3882H9.79184L8.90984 8.95016ZM15.2115 19.8002C14.8848 19.8002 14.5395 19.7815 14.1755 19.7442C13.8208 19.7162 13.5315 19.6789 13.3075 19.6322V18.4422L14.8755 18.4702C15.3421 18.4702 15.6688 18.4235 15.8555 18.3302C16.0515 18.2462 16.1775 18.0782 16.2335 17.8262C16.2895 17.5742 16.3175 17.1355 16.3175 16.5102V16.1322H16.2335C16.1215 16.4495 15.9395 16.6782 15.6875 16.8182C15.4448 16.9489 15.1321 17.0142 14.7495 17.0142C14.2548 17.0142 13.8768 16.9069 13.6155 16.6922C13.3541 16.4775 13.1675 16.1135 13.0555 15.6002C12.9528 15.0869 12.9015 14.3542 12.9015 13.4022C12.9015 12.4315 12.9575 11.6849 13.0695 11.1622C13.1815 10.6395 13.3681 10.2755 13.6295 10.0702C13.9001 9.85549 14.2781 9.74816 14.7635 9.74816C15.5661 9.74816 16.0748 10.0795 16.2895 10.7422H16.3735L16.4295 9.86016H17.8295V16.0902C17.8295 17.0702 17.7781 17.8075 17.6755 18.3022C17.5728 18.7969 17.3348 19.1702 16.9615 19.4222C16.5881 19.6742 16.0048 19.8002 15.2115 19.8002ZM15.3795 15.6562C15.6315 15.6562 15.8228 15.6095 15.9535 15.5162C16.0841 15.4229 16.1728 15.2595 16.2195 15.0262C16.2848 14.7555 16.3175 14.2142 16.3175 13.4022C16.3175 12.6929 16.2941 12.2029 16.2475 11.9322C16.2008 11.6335 16.1121 11.4329 15.9815 11.3302C15.8508 11.2182 15.6501 11.1622 15.3795 11.1622C15.0621 11.1622 14.8428 11.2042 14.7215 11.2882C14.6001 11.3722 14.5161 11.5589 14.4695 11.8482C14.4321 12.1375 14.4135 12.6555 14.4135 13.4022C14.4135 14.1302 14.4321 14.6435 14.4695 14.9422C14.5161 15.2409 14.6001 15.4369 14.7215 15.5302C14.8521 15.6142 15.0715 15.6562 15.3795 15.6562Z" fill="white"/>
</svg>
