<svg width="24" height="24" viewBox="0 0 24 24" fill="none" xmlns="http://www.w3.org/2000/svg">
<path d="M10.9756 17.0002L10.3036 14.3262H7.34965L6.69165 17.0002H5.64165L8.16165 7.36816H9.53365L12.0536 17.0002H10.9756ZM8.86165 8.64216H8.79165L7.60165 13.4022H10.0516L8.86165 8.64216ZM15.0936 19.7862C14.4496 19.7862 13.8243 19.7535 13.2176 19.6882V18.8762C13.9456 18.9135 14.5103 18.9322 14.9116 18.9322C15.4716 18.9322 15.873 18.8622 16.1156 18.7222C16.3676 18.5822 16.531 18.3349 16.6056 17.9802C16.6896 17.6349 16.7316 17.0749 16.7316 16.3002V16.0902H16.6616C16.5403 16.4449 16.3443 16.6969 16.0736 16.8462C15.803 16.9955 15.4436 17.0702 14.9956 17.0702C14.4356 17.0702 14.011 16.9675 13.7216 16.7622C13.4416 16.5569 13.2456 16.1975 13.1336 15.6842C13.0216 15.1709 12.9656 14.4149 12.9656 13.4162C12.9656 12.4175 13.0216 11.6615 13.1336 11.1482C13.255 10.6255 13.4556 10.2615 13.7356 10.0562C14.025 9.85083 14.4496 9.74816 15.0096 9.74816C15.4296 9.74816 15.7843 9.82749 16.0736 9.98616C16.3723 10.1355 16.587 10.4249 16.7176 10.8542H16.7876L16.8436 9.86016H17.7256V15.9642C17.7256 16.9909 17.665 17.7609 17.5436 18.2742C17.4316 18.7969 17.189 19.1795 16.8156 19.4222C16.4516 19.6649 15.8776 19.7862 15.0936 19.7862ZM15.3596 16.1882C15.705 16.1882 15.9756 16.1182 16.1716 15.9782C16.3676 15.8382 16.503 15.6142 16.5776 15.3062C16.6803 14.9142 16.7316 14.2842 16.7316 13.4162C16.7316 12.9682 16.7223 12.6089 16.7036 12.3382C16.6943 12.0582 16.6616 11.8202 16.6056 11.6242C16.5216 11.2695 16.3816 11.0175 16.1856 10.8682C15.9896 10.7189 15.7143 10.6442 15.3596 10.6442C14.921 10.6442 14.6083 10.7049 14.4216 10.8262C14.2443 10.9475 14.123 11.1949 14.0576 11.5682C13.9923 11.9322 13.9596 12.5482 13.9596 13.4162C13.9596 14.2842 13.9923 14.9049 14.0576 15.2782C14.123 15.6422 14.2443 15.8849 14.4216 16.0062C14.6083 16.1275 14.921 16.1882 15.3596 16.1882Z" fill="white"/>
</svg>
