<svg width="24" height="24" viewBox="0 0 24 24" fill="none" xmlns="http://www.w3.org/2000/svg">
<path d="M3.61176 17.0002L7.58776 7.36816H8.07776L12.0538 17.0002H11.5078L10.2338 13.8922H5.41776L4.14376 17.0002H3.61176ZM5.61376 13.4162H10.0378L7.86776 8.08216H7.79776L5.61376 13.4162ZM16.5284 19.8842C16.2297 19.8842 15.9171 19.8795 15.5904 19.8702C15.2731 19.8609 14.9651 19.8469 14.6664 19.8282C14.3771 19.8189 14.1251 19.8049 13.9104 19.7862V19.3242C14.1811 19.3429 14.4657 19.3615 14.7644 19.3802C15.0724 19.3989 15.3711 19.4129 15.6604 19.4222C15.9497 19.4315 16.2157 19.4362 16.4584 19.4362C17.0371 19.4362 17.4991 19.3849 17.8444 19.2822C18.1897 19.1795 18.4511 19.0069 18.6284 18.7642C18.8057 18.5215 18.9224 18.1855 18.9784 17.7562C19.0344 17.3362 19.0624 16.8042 19.0624 16.1602V15.9642H19.0064C18.8944 16.2442 18.7264 16.4682 18.5024 16.6362C18.2784 16.8042 17.9984 16.9255 17.6624 17.0002C17.3264 17.0749 16.9297 17.1122 16.4724 17.1122C15.8751 17.1122 15.3897 17.0609 15.0164 16.9582C14.6524 16.8462 14.3724 16.6595 14.1764 16.3982C13.9804 16.1275 13.8451 15.7542 13.7704 15.2782C13.6957 14.7929 13.6584 14.1769 13.6584 13.4302C13.6584 12.6835 13.6957 12.0722 13.7704 11.5962C13.8451 11.1109 13.9804 10.7375 14.1764 10.4762C14.3724 10.2055 14.6524 10.0189 15.0164 9.91616C15.3897 9.80416 15.8751 9.74816 16.4724 9.74816C16.8457 9.74816 17.2051 9.77616 17.5504 9.83216C17.8957 9.88816 18.1991 10.0095 18.4604 10.1962C18.7311 10.3735 18.9317 10.6489 19.0624 11.0222H19.1184L19.1604 9.86016H19.5524V15.9922C19.5524 16.7295 19.5151 17.3455 19.4404 17.8402C19.3751 18.3442 19.2351 18.7455 19.0204 19.0442C18.8151 19.3429 18.5117 19.5575 18.1104 19.6882C17.7184 19.8189 17.1911 19.8842 16.5284 19.8842ZM16.6124 16.6642C17.2377 16.6642 17.7324 16.5755 18.0964 16.3982C18.4697 16.2209 18.7217 15.9315 18.8524 15.5302C18.9551 15.2409 19.0157 14.9282 19.0344 14.5922C19.0531 14.2469 19.0624 13.8595 19.0624 13.4302C19.0624 13.0102 19.0531 12.6369 19.0344 12.3102C19.0251 11.9742 18.9784 11.6802 18.8944 11.4282C18.7451 10.9709 18.4791 10.6535 18.0964 10.4762C17.7231 10.2895 17.2284 10.1962 16.6124 10.1962C16.0804 10.1962 15.6511 10.2335 15.3244 10.3082C14.9977 10.3829 14.7504 10.5322 14.5824 10.7562C14.4144 10.9709 14.2977 11.2929 14.2324 11.7222C14.1764 12.1515 14.1484 12.7209 14.1484 13.4302C14.1484 14.1395 14.1764 14.7089 14.2324 15.1382C14.2977 15.5675 14.4144 15.8942 14.5824 16.1182C14.7504 16.3329 14.9977 16.4775 15.3244 16.5522C15.6511 16.6269 16.0804 16.6642 16.6124 16.6642Z" fill="white"/>
</svg>
