<svg width="24" height="24" viewBox="0 0 24 24" fill="none" xmlns="http://www.w3.org/2000/svg">
<path d="M10.3111 17.0002L9.93314 15.0262H7.77714L7.39914 17.0002H5.48114L7.46914 7.36816H10.2831L12.2711 17.0002H10.3111ZM8.89714 9.18816H8.81314L8.05714 13.3602H9.63914L8.89714 9.18816ZM15.2808 19.8422C14.9448 19.8422 14.5901 19.8282 14.2168 19.8002C13.8435 19.7722 13.5401 19.7349 13.3068 19.6882V18.3022C13.4748 18.3022 13.5961 18.3069 13.6708 18.3162L14.8608 18.3302C15.2995 18.3302 15.6028 18.2929 15.7708 18.2182C15.9481 18.1435 16.0601 17.9989 16.1068 17.7842C16.1535 17.5695 16.1768 17.1869 16.1768 16.6362V16.1042H16.0648C15.8501 16.6829 15.3741 16.9722 14.6368 16.9722C14.1701 16.9722 13.8061 16.8649 13.5448 16.6502C13.2928 16.4262 13.1155 16.0622 13.0128 15.5582C12.9101 15.0449 12.8588 14.3169 12.8588 13.3742C12.8588 12.4129 12.9148 11.6755 13.0268 11.1622C13.1388 10.6395 13.3208 10.2755 13.5728 10.0702C13.8248 9.85549 14.1841 9.74816 14.6508 9.74816C14.9775 9.74816 15.2715 9.82283 15.5328 9.97216C15.8035 10.1122 15.9948 10.3549 16.1068 10.7002H16.2188L16.2748 9.86016H17.9828V16.1462C17.9828 17.1169 17.9315 17.8449 17.8288 18.3302C17.7261 18.8249 17.4835 19.1982 17.1008 19.4502C16.7181 19.7115 16.1115 19.8422 15.2808 19.8422ZM15.4208 15.3622C15.6261 15.3622 15.7755 15.3295 15.8688 15.2642C15.9715 15.1989 16.0461 15.0729 16.0928 14.8862C16.1488 14.6622 16.1768 14.1582 16.1768 13.3742C16.1768 12.6742 16.1535 12.2075 16.1068 11.9742C16.0695 11.7409 15.9995 11.5869 15.8968 11.5122C15.8035 11.4282 15.6448 11.3862 15.4208 11.3862C15.1688 11.3862 14.9961 11.4235 14.9028 11.4982C14.8095 11.5635 14.7441 11.7269 14.7068 11.9882C14.6788 12.2402 14.6648 12.7022 14.6648 13.3742C14.6648 14.0462 14.6788 14.5129 14.7068 14.7742C14.7441 15.0262 14.8095 15.1895 14.9028 15.2642C14.9961 15.3295 15.1688 15.3622 15.4208 15.3622Z" fill="white"/>
</svg>
