<svg width="24" height="24" viewBox="0 0 24 24" fill="none" xmlns="http://www.w3.org/2000/svg">
<path d="M13.004 17.0002H9.83995C9.72795 17.0002 9.67195 16.9442 9.67195 16.8322V16.1182C9.67195 16.0062 9.72795 15.9502 9.83995 15.9502H10.82L9.90995 13.5282H6.00395L5.09395 15.9502H6.07395C6.18595 15.9502 6.24195 16.0062 6.24195 16.1182V16.8322C6.24195 16.9442 6.18595 17.0002 6.07395 17.0002H2.92395C2.81195 17.0002 2.75595 16.9442 2.75595 16.8322V16.1182C2.75595 16.0062 2.81195 15.9502 2.92395 15.9502H3.86195L6.87195 7.99824H6.11595C5.99462 7.99824 5.93395 7.94224 5.93395 7.83024V7.11624C5.93395 7.00424 5.99462 6.94824 6.11595 6.94824H8.01995C8.24395 6.94824 8.41195 6.99491 8.52395 7.08824C8.64529 7.18157 8.74795 7.33557 8.83195 7.55024L12.052 15.9502H13.004C13.116 15.9502 13.172 16.0062 13.172 16.1182V16.8322C13.172 16.9442 13.116 17.0002 13.004 17.0002ZM9.53195 12.5622L7.97795 8.40424H7.93595L6.36795 12.5622H9.53195ZM16.9415 20.2762C16.4748 20.2762 16.1201 20.2435 15.8775 20.1782C15.6441 20.1129 15.4528 20.0522 15.3035 19.9962C15.1635 19.9495 15.0421 19.8982 14.9395 19.8422C14.8368 19.7955 14.7388 19.7442 14.6455 19.6882C14.2348 19.4175 14.0808 19.2215 14.1835 19.1002L14.5475 18.5822C14.6035 18.4982 14.6828 18.4935 14.7855 18.5682C14.7948 18.5682 14.8228 18.5869 14.8695 18.6242C14.9255 18.6709 14.9768 18.7129 15.0235 18.7502C15.0795 18.7875 15.1495 18.8295 15.2335 18.8762C15.3268 18.9322 15.4295 18.9789 15.5415 19.0162C15.6535 19.0629 15.7748 19.1049 15.9055 19.1422C16.2135 19.2262 16.5541 19.2682 16.9275 19.2682C17.5995 19.2682 18.1361 19.1049 18.5375 18.7782C18.9481 18.4609 19.1535 17.9569 19.1535 17.2662V15.6702C18.9855 16.0622 18.7055 16.3982 18.3135 16.6782C17.9308 16.9582 17.4501 17.0982 16.8715 17.0982C15.9195 17.0982 15.1541 16.7669 14.5755 16.1042C14.0061 15.4415 13.7215 14.5829 13.7215 13.5282C13.7215 12.4735 14.0108 11.6242 14.5895 10.9802C15.1775 10.3362 15.9381 10.0142 16.8715 10.0142C17.4501 10.0142 17.9355 10.1495 18.3275 10.4202C18.7288 10.6815 19.0181 11.0035 19.1955 11.3862H19.2235L19.2095 10.2802C19.2095 10.1682 19.2655 10.1122 19.3775 10.1122H21.0295C21.1415 10.1122 21.1975 10.1682 21.1975 10.2802V10.8822C21.1975 10.9942 21.1415 11.0502 21.0295 11.0502H20.2735V17.2662C20.2735 18.2649 19.9655 19.0162 19.3495 19.5202C18.7428 20.0242 17.9401 20.2762 16.9415 20.2762ZM14.8695 13.5562C14.8695 14.3215 15.0748 14.9422 15.4855 15.4182C15.8961 15.8849 16.4095 16.1182 17.0255 16.1182C17.6415 16.1182 18.1501 15.8849 18.5515 15.4182C18.9621 14.9515 19.1675 14.3262 19.1675 13.5422C19.1675 12.7582 18.9621 12.1375 18.5515 11.6802C18.1501 11.2229 17.6415 10.9942 17.0255 10.9942C16.4095 10.9942 15.8961 11.2275 15.4855 11.6942C15.0748 12.1609 14.8695 12.7815 14.8695 13.5562Z" fill="white"/>
</svg>
