<svg width="24" height="24" viewBox="0 0 24 24" fill="none" xmlns="http://www.w3.org/2000/svg">
<path d="M13.004 17.0002H9.83995C9.72795 17.0002 9.68129 16.9442 9.69995 16.8322L9.79795 16.1182C9.80729 16.0062 9.87262 15.9502 9.99395 15.9502H10.96L10.4 13.5282H6.49395L5.24795 15.9502H6.22795C6.34929 15.9502 6.39595 16.0062 6.36795 16.1182L6.26995 16.8322C6.26062 16.9442 6.19529 17.0002 6.07395 17.0002H2.92395C2.81195 17.0002 2.76529 16.9442 2.78395 16.8322L2.88195 16.1182C2.89129 16.0062 2.95662 15.9502 3.07795 15.9502H4.01595L8.14595 7.99824H7.37595C7.26395 7.99824 7.21729 7.94224 7.23595 7.83024L7.33395 7.11624C7.34329 7.00424 7.40862 6.94824 7.52995 6.94824H9.43395C9.65795 6.94824 9.82129 6.99491 9.92395 7.08824C10.036 7.18157 10.12 7.33557 10.176 7.55024L12.206 15.9502H13.144C13.256 15.9502 13.3073 16.0062 13.298 16.1182L13.2 16.8322C13.1813 16.9442 13.116 17.0002 13.004 17.0002ZM10.176 12.5622L9.19595 8.40424H9.13995L7.01195 12.5622H10.176ZM16.4795 20.2762C16.0221 20.2762 15.6768 20.2435 15.4435 20.1782C15.2101 20.1129 15.0235 20.0522 14.8835 19.9962C14.7435 19.9495 14.6268 19.8982 14.5335 19.8422C14.4495 19.7955 14.3655 19.7442 14.2815 19.6882C13.9828 19.4735 13.8335 19.3149 13.8335 19.2122C13.8335 19.1749 13.8521 19.1375 13.8895 19.1002L14.3235 18.5822C14.3888 18.4982 14.4681 18.4935 14.5615 18.5682C14.8508 18.8015 15.0655 18.9462 15.2055 19.0022C15.3455 19.0582 15.4808 19.1049 15.6115 19.1422C15.9008 19.2262 16.2321 19.2682 16.6055 19.2682C17.2775 19.2682 17.8375 19.1049 18.2855 18.7782C18.7335 18.4609 19.0088 17.9569 19.1115 17.2662L19.3355 15.7402C19.1021 16.1229 18.7755 16.4449 18.3555 16.7062C17.9355 16.9675 17.4361 17.0982 16.8575 17.0982C16.0175 17.0982 15.3548 16.8229 14.8695 16.2722C14.3935 15.7215 14.1555 14.9982 14.1555 14.1022C14.1555 12.8982 14.5055 11.9182 15.2055 11.1622C15.9148 10.3969 16.7968 10.0142 17.8515 10.0142C18.4301 10.0142 18.8968 10.1495 19.2515 10.4202C19.6155 10.6815 19.8628 11.0035 19.9935 11.3862H20.0215L20.1615 10.2802C20.1801 10.1682 20.2408 10.1122 20.3435 10.1122H21.9955C22.1168 10.1122 22.1681 10.1682 22.1495 10.2802L22.0655 10.8822C22.0468 10.9942 21.9768 11.0502 21.8555 11.0502H21.0995L20.2315 17.2662C20.0915 18.2649 19.6808 19.0162 18.9995 19.5202C18.3181 20.0242 17.4781 20.2762 16.4795 20.2762ZM15.3175 13.9762C15.3175 14.6202 15.4855 15.1382 15.8215 15.5302C16.1668 15.9222 16.6475 16.1182 17.2635 16.1182C17.8795 16.1182 18.4395 15.8335 18.9435 15.2642C19.4475 14.6855 19.6995 13.9715 19.6995 13.1222C19.6995 12.4689 19.5268 11.9509 19.1815 11.5682C18.8455 11.1855 18.4115 10.9942 17.8795 10.9942C17.1701 10.9942 16.5635 11.2742 16.0595 11.8342C15.5648 12.3849 15.3175 13.0989 15.3175 13.9762Z" fill="white"/>
</svg>
