<svg width="24" height="24" viewBox="0 0 24 24" fill="none" xmlns="http://www.w3.org/2000/svg">
<path d="M5.13086 17H3.27148L7.4209 7.22461H9.36914L13.6074 17H11.6592L10.5449 14.334H7.29785L7.91992 12.7617H9.88867L8.35059 9.09082L5.13086 17ZM19.2266 11.4492C18.9303 11.3398 18.5088 11.2852 17.9619 11.2852C16.7087 11.2852 16.082 11.9756 16.082 13.3564C16.082 14.6917 16.6221 15.3594 17.7021 15.3594C18.2217 15.3594 18.7298 15.2363 19.2266 14.9902V11.4492ZM21.0381 16.4531C21.0381 18.5495 19.778 19.5977 17.2578 19.5977C16.3737 19.5977 15.5898 19.4837 14.9062 19.2559V17.8203C15.6035 18.0482 16.3919 18.1621 17.2715 18.1621C18.5749 18.1621 19.2266 17.6152 19.2266 16.5215C18.6888 16.7493 18.11 16.8633 17.4902 16.8633C15.3574 16.8633 14.291 15.6989 14.291 13.3701C14.291 11.0049 15.5329 9.82227 18.0166 9.82227C18.8506 9.82227 19.8577 9.92025 21.0381 10.1162V16.4531Z" fill="white"/>
</svg>
