<svg width="24" height="24" viewBox="0 0 24 24" fill="none" xmlns="http://www.w3.org/2000/svg">
<path d="M4.67932 17.3218C4.35265 17.3218 4.10999 17.2425 3.95132 17.0838C3.80199 16.9251 3.72732 16.7385 3.72732 16.5238C3.72732 16.4585 3.73665 16.3978 3.75532 16.3418C3.77399 16.2858 3.79265 16.2345 3.81132 16.1878C4.11932 16.1785 4.41332 16.0991 4.69332 15.9498C4.97332 15.7911 5.24865 15.5625 5.51932 15.2638C5.78999 14.9558 6.06532 14.5731 6.34532 14.1158C6.63465 13.6491 6.93332 13.1031 7.24132 12.4778C7.54932 11.8525 7.88065 11.1478 8.23532 10.3638C8.59932 9.57984 8.99132 8.71184 9.41132 7.75984H11.7353C11.698 8.97317 11.67 10.0371 11.6513 10.9518C11.642 11.8571 11.642 12.6458 11.6513 13.3178C11.6607 13.9805 11.684 14.5311 11.7213 14.9698C11.768 15.4085 11.824 15.7631 11.8893 16.0338C11.964 16.3045 12.048 16.5145 12.1413 16.6638C12.076 16.8318 11.9547 16.9765 11.7773 17.0978C11.6 17.2285 11.3713 17.2938 11.0913 17.2938C10.8207 17.2938 10.6013 17.2285 10.4333 17.0978C10.2653 16.9765 10.1347 16.7711 10.0413 16.4818C9.95732 16.1831 9.89665 15.7818 9.85932 15.2778C9.83132 14.7645 9.81732 14.1158 9.81732 13.3318C9.81732 13.0891 9.82199 12.7998 9.83132 12.4638C9.84065 12.1278 9.84999 11.7731 9.85932 11.3998C9.87799 11.0171 9.89199 10.6485 9.90132 10.2938C9.91999 9.92984 9.93399 9.59851 9.94332 9.29984H9.90132C9.69599 9.79451 9.49999 10.2518 9.31332 10.6718C9.13599 11.0825 8.95865 11.4791 8.78132 11.8618C8.61332 12.2445 8.43599 12.6271 8.24932 13.0098C8.07199 13.3831 7.88532 13.7798 7.68932 14.1998C7.35332 14.8531 7.04065 15.3851 6.75132 15.7958C6.47132 16.2065 6.20532 16.5238 5.95332 16.7478C5.71065 16.9625 5.48199 17.1118 5.26732 17.1958C5.06199 17.2798 4.86599 17.3218 4.67932 17.3218ZM6.76532 14.6758L7.22732 13.6538H10.4893L10.4613 14.6758H6.76532ZM5.63132 11.8478C5.31399 11.8478 5.04799 11.7731 4.83332 11.6238C4.61865 11.4745 4.45532 11.2691 4.34332 11.0078C4.24065 10.7465 4.19865 10.4525 4.21732 10.1258C4.23599 9.79917 4.31532 9.47251 4.45532 9.14584C4.59532 8.81917 4.80065 8.52051 5.07132 8.24984C5.35132 7.97917 5.69199 7.75984 6.09332 7.59184C6.50399 7.42384 6.97532 7.33984 7.50732 7.33984C7.79665 7.33984 8.12332 7.36317 8.48732 7.40984C8.85132 7.45651 9.22465 7.50784 9.60732 7.56384C9.99932 7.61984 10.3773 7.67117 10.7413 7.71784C11.1147 7.75517 11.446 7.76917 11.7353 7.75984L10.3353 8.89384L9.11732 8.45984L9.04732 8.31984C8.90732 8.27317 8.73465 8.23117 8.52932 8.19384C8.32399 8.14717 8.11865 8.12384 7.91332 8.12384C7.53999 8.12384 7.21799 8.20784 6.94732 8.37584C6.68599 8.53451 6.47599 8.75384 6.31732 9.03384C6.16799 9.31384 6.07932 9.62651 6.05132 9.97184C6.04199 10.2518 6.06065 10.5225 6.10732 10.7838C6.16332 11.0451 6.27065 11.3065 6.42932 11.5678C6.31732 11.6611 6.18665 11.7311 6.03732 11.7778C5.89732 11.8245 5.76199 11.8478 5.63132 11.8478ZM14.8292 19.7858C14.4465 19.7858 14.0825 19.7578 13.7372 19.7018C13.3919 19.6551 13.0839 19.5758 12.8132 19.4638C12.5519 19.3611 12.3465 19.2165 12.1972 19.0298C12.0479 18.8525 11.9779 18.6285 11.9872 18.3578C11.9872 18.0405 12.0899 17.7838 12.2952 17.5878C12.5005 17.4011 12.7759 17.3078 13.1212 17.3078C13.3452 17.3078 13.5459 17.3451 13.7232 17.4198C13.9005 17.4945 14.0499 17.6018 14.1712 17.7418C14.0872 17.8071 14.0219 17.8818 13.9752 17.9658C13.9285 18.0591 13.9052 18.1618 13.9052 18.2738C13.9052 18.5165 14.0172 18.6891 14.2412 18.7918C14.4745 18.9038 14.8105 18.9598 15.2492 18.9598C15.5479 18.9598 15.8465 18.9085 16.1452 18.8058C16.4439 18.7125 16.6865 18.5631 16.8732 18.3578C17.0692 18.1525 17.1719 17.8865 17.1812 17.5598C17.1812 17.2705 17.0412 17.0885 16.7612 17.0138C16.4812 16.9485 16.0145 16.9158 15.3612 16.9158C14.9039 16.9158 14.5165 16.8785 14.1992 16.8038C13.8912 16.7291 13.6579 16.6125 13.4992 16.4538C13.3499 16.2858 13.2752 16.0711 13.2752 15.8098C13.2752 15.5205 13.3732 15.2405 13.5692 14.9698C13.7652 14.6991 14.0079 14.4705 14.2972 14.2838C13.9425 14.1345 13.6625 13.9151 13.4572 13.6258C13.2612 13.3365 13.1632 12.9725 13.1632 12.5338C13.1632 11.8711 13.3219 11.3251 13.6392 10.8958C13.9659 10.4571 14.3905 10.1305 14.9132 9.91584C15.4452 9.69184 16.0239 9.57984 16.6492 9.57984C16.9479 9.57984 17.1952 9.59851 17.3912 9.63584C17.5872 9.67317 17.7599 9.71051 17.9092 9.74784C18.0585 9.78517 18.2172 9.80384 18.3852 9.80384C18.7772 9.80384 19.0619 9.71051 19.2392 9.52384C19.4165 9.32784 19.5099 9.09451 19.5192 8.82384C19.5192 8.60917 19.4445 8.39917 19.2952 8.19384C19.4259 8.08184 19.5659 7.99317 19.7152 7.92784C19.8645 7.86251 20.0185 7.82984 20.1772 7.82984C20.4105 7.82984 20.5925 7.89984 20.7232 8.03984C20.8539 8.17984 20.9192 8.36651 20.9192 8.59984C20.9192 8.88917 20.8305 9.16917 20.6532 9.43984C20.4852 9.71051 20.2519 9.93917 19.9532 10.1258C19.6545 10.3125 19.3092 10.4338 18.9172 10.4898C19.0105 10.6391 19.0805 10.8025 19.1272 10.9798C19.1832 11.1571 19.2112 11.3531 19.2112 11.5678C19.2112 12.1931 19.0525 12.7298 18.7352 13.1778C18.4272 13.6165 18.0072 13.9525 17.4752 14.1858C16.9525 14.4191 16.3692 14.5358 15.7252 14.5358C15.6225 14.5358 15.5245 14.5358 15.4312 14.5358C15.3379 14.5265 15.2399 14.5171 15.1372 14.5078C15.0625 14.5638 14.9925 14.6338 14.9272 14.7178C14.8712 14.8018 14.8432 14.9045 14.8432 15.0258C14.8432 15.2031 14.9459 15.3105 15.1512 15.3478C15.3565 15.3851 15.6645 15.4038 16.0752 15.4038H16.8872C17.6432 15.4038 18.1845 15.5438 18.5112 15.8238C18.8472 16.0945 19.0152 16.4631 19.0152 16.9298C19.0152 17.4058 18.8845 17.8211 18.6232 18.1758C18.3712 18.5305 18.0399 18.8245 17.6292 19.0578C17.2185 19.3005 16.7659 19.4825 16.2712 19.6038C15.7859 19.7251 15.3052 19.7858 14.8292 19.7858ZM15.9352 13.8078C16.3085 13.8078 16.6025 13.6911 16.8172 13.4578C17.0412 13.2245 17.2045 12.9351 17.3072 12.5898C17.4099 12.2351 17.4659 11.8898 17.4752 11.5538C17.4659 11.1991 17.3819 10.9051 17.2232 10.6718C17.0645 10.4291 16.8032 10.3078 16.4392 10.3078C16.1685 10.3078 15.9352 10.3778 15.7392 10.5178C15.5432 10.6485 15.3799 10.8305 15.2492 11.0638C15.1279 11.2971 15.0345 11.5538 14.9692 11.8338C14.9132 12.1138 14.8852 12.3985 14.8852 12.6878C14.8852 13.0331 14.9739 13.3085 15.1512 13.5138C15.3285 13.7098 15.5899 13.8078 15.9352 13.8078Z" fill="white"/>
</svg>
