<svg width="24" height="24" viewBox="0 0 24 24" fill="none" xmlns="http://www.w3.org/2000/svg">
<path d="M4.28322 17.3495C3.93789 17.3495 3.67189 17.2562 3.48522 17.0695C3.29855 16.8922 3.20522 16.6915 3.20522 16.4675C3.20522 16.3928 3.21455 16.3228 3.23322 16.2575C3.25189 16.1828 3.27989 16.1128 3.31722 16.0475C3.70922 16.0288 4.09189 15.8842 4.46522 15.6135C4.84789 15.3335 5.21189 14.9648 5.55722 14.5075C5.91189 14.0502 6.24789 13.5368 6.56522 12.9675C6.89189 12.3888 7.19055 11.7915 7.46122 11.1755C7.74122 10.5595 7.99789 9.95752 8.23122 9.36952C8.46455 8.78152 8.66989 8.24485 8.84722 7.75952H11.9832C11.9926 8.94485 12.0019 9.99485 12.0112 10.9095C12.0206 11.8242 12.0392 12.6222 12.0672 13.3035C12.0859 13.8542 12.1186 14.3348 12.1652 14.7455C12.2119 15.1562 12.2726 15.5015 12.3472 15.7815C12.4219 16.0615 12.5199 16.2808 12.6412 16.4395C12.5199 16.6822 12.3286 16.8828 12.0672 17.0415C11.8059 17.2002 11.4886 17.2795 11.1152 17.2795C10.7699 17.2795 10.4759 17.2142 10.2332 17.0835C9.99989 16.9528 9.80855 16.7148 9.65922 16.3695C9.51922 16.0148 9.41655 15.5202 9.35122 14.8855C9.28589 14.2508 9.25322 13.4295 9.25322 12.4215C9.25322 12.2255 9.25322 12.0248 9.25322 11.8195C9.25322 11.6142 9.25789 11.3995 9.26722 11.1755C9.27655 10.9515 9.28122 10.7228 9.28122 10.4895C9.29055 10.2468 9.29989 9.99952 9.30922 9.74752H9.29522C9.12722 10.2235 8.95922 10.6715 8.79122 11.0915C8.63255 11.5115 8.47389 11.9082 8.31522 12.2815C8.16589 12.6455 8.01189 12.9908 7.85322 13.3175C7.70389 13.6348 7.55455 13.9335 7.40522 14.2135C7.08789 14.8108 6.78455 15.3102 6.49522 15.7115C6.20589 16.1128 5.93055 16.4348 5.66922 16.6775C5.40789 16.9202 5.16055 17.0928 4.92722 17.1955C4.69389 17.2982 4.47922 17.3495 4.28322 17.3495ZM6.50922 14.7595L6.99922 13.6535H10.3452L10.2892 14.7595H6.50922ZM5.30522 12.1695C4.89455 12.1695 4.54922 12.0855 4.26922 11.9175C3.99855 11.7495 3.79789 11.5255 3.66722 11.2455C3.53655 10.9562 3.47122 10.6482 3.47122 10.3215C3.48055 9.98552 3.55055 9.64485 3.68122 9.29952C3.82122 8.94485 4.03122 8.62285 4.31122 8.33352C4.60055 8.04419 4.96455 7.81085 5.40322 7.63352C5.85122 7.44685 6.38322 7.35352 6.99922 7.35352C7.42855 7.35352 7.84855 7.37219 8.25922 7.40952C8.67922 7.44685 9.08989 7.49352 9.49122 7.54952C9.90189 7.60552 10.3126 7.65685 10.7232 7.70352C11.1432 7.74085 11.5632 7.75952 11.9832 7.75952L10.3172 9.21552L8.56722 8.52952L8.49722 8.40352C8.37589 8.35685 8.25455 8.32419 8.13322 8.30552C8.01189 8.28685 7.89055 8.27752 7.76922 8.27752C7.45189 8.27752 7.16722 8.35219 6.91522 8.50152C6.66322 8.64152 6.45789 8.85152 6.29922 9.13152C6.14055 9.41152 6.05189 9.74285 6.03322 10.1255C6.02389 10.3962 6.03789 10.6575 6.07522 10.9095C6.11255 11.1522 6.20122 11.4275 6.34122 11.7355C6.19189 11.8942 6.01922 12.0062 5.82322 12.0715C5.62722 12.1368 5.45455 12.1695 5.30522 12.1695ZM15.3445 19.7995C14.9525 19.7995 14.5652 19.7808 14.1825 19.7435C13.8092 19.7155 13.4685 19.6595 13.1605 19.5755C12.8619 19.4915 12.6239 19.3608 12.4465 19.1835C12.2692 19.0062 12.1852 18.7728 12.1945 18.4835C12.2039 18.1195 12.3485 17.8348 12.6285 17.6295C12.8992 17.4335 13.2492 17.3355 13.6785 17.3355C14.0052 17.3355 14.2805 17.3868 14.5045 17.4895C14.7285 17.6015 14.9012 17.7322 15.0225 17.8815C14.9105 17.9655 14.8359 18.0495 14.7985 18.1335C14.7705 18.2175 14.7565 18.3062 14.7565 18.3995C14.7565 18.6142 14.8499 18.7635 15.0365 18.8475C15.2232 18.9408 15.4845 18.9875 15.8205 18.9875C16.0725 18.9875 16.3105 18.9455 16.5345 18.8615C16.7585 18.7775 16.9405 18.6468 17.0805 18.4695C17.2205 18.2922 17.2952 18.0682 17.3045 17.7975C17.3139 17.5268 17.2019 17.3588 16.9685 17.2935C16.7445 17.2282 16.3759 17.1955 15.8625 17.1955C15.2745 17.1955 14.8079 17.1488 14.4625 17.0555C14.1172 16.9715 13.8699 16.8408 13.7205 16.6635C13.5712 16.4768 13.4919 16.2482 13.4825 15.9775C13.4825 15.6135 13.5899 15.2962 13.8045 15.0255C14.0285 14.7455 14.2852 14.5075 14.5745 14.3115C14.2105 14.1715 13.9259 13.9522 13.7205 13.6535C13.5152 13.3548 13.4125 12.9768 13.4125 12.5195C13.4125 11.8568 13.5852 11.3108 13.9305 10.8815C14.2852 10.4428 14.7472 10.1162 15.3165 9.90152C15.8952 9.68685 16.5252 9.57952 17.2065 9.57952C17.5519 9.57952 17.8319 9.60285 18.0465 9.64952C18.2705 9.68685 18.4619 9.72885 18.6205 9.77552C18.7792 9.82219 18.9519 9.84552 19.1385 9.84552C19.4652 9.84552 19.7079 9.74752 19.8665 9.55152C20.0252 9.35552 20.1045 9.12219 20.1045 8.85152C20.1045 8.62752 20.0345 8.44085 19.8945 8.29152C20.0439 8.13285 20.2072 8.01619 20.3845 7.94152C20.5619 7.86685 20.7439 7.82952 20.9305 7.82952C21.1919 7.82952 21.4019 7.89485 21.5605 8.02552C21.7192 8.15619 21.7985 8.35219 21.7985 8.61352C21.7985 8.90285 21.7099 9.19219 21.5325 9.48152C21.3645 9.76152 21.1312 10.0042 20.8325 10.2095C20.5339 10.4055 20.1792 10.5268 19.7685 10.5735C19.8525 10.7135 19.9179 10.8628 19.9645 11.0215C20.0112 11.1802 20.0345 11.3575 20.0345 11.5535C20.0345 12.1975 19.8665 12.7482 19.5305 13.2055C19.1945 13.6628 18.7419 14.0082 18.1725 14.2415C17.6032 14.4748 16.9685 14.5915 16.2685 14.5915C16.1659 14.5915 16.0585 14.5915 15.9465 14.5915C15.8345 14.5822 15.7179 14.5728 15.5965 14.5635C15.5499 14.6102 15.5079 14.6662 15.4705 14.7315C15.4332 14.7875 15.4145 14.8528 15.4145 14.9275C15.4145 15.0488 15.4985 15.1235 15.6665 15.1515C15.8439 15.1795 16.1052 15.1935 16.4505 15.1935H17.3745C18.2612 15.1935 18.9005 15.3428 19.2925 15.6415C19.6939 15.9308 19.8899 16.3368 19.8805 16.8595C19.8712 17.3542 19.7265 17.7835 19.4465 18.1475C19.1759 18.5208 18.8165 18.8288 18.3685 19.0715C17.9205 19.3142 17.4352 19.4962 16.9125 19.6175C16.3899 19.7388 15.8672 19.7995 15.3445 19.7995ZM16.4505 13.8355C16.7399 13.8355 16.9685 13.7095 17.1365 13.4575C17.3045 13.2055 17.4305 12.8928 17.5145 12.5195C17.5985 12.1462 17.6452 11.7775 17.6545 11.4135C17.6452 11.1242 17.5985 10.8675 17.5145 10.6435C17.4305 10.4195 17.2625 10.3075 17.0105 10.3075C16.8052 10.3075 16.6232 10.3915 16.4645 10.5595C16.3152 10.7182 16.1845 10.9328 16.0725 11.2035C15.9699 11.4648 15.8905 11.7448 15.8345 12.0435C15.7879 12.3328 15.7692 12.6128 15.7785 12.8835C15.7785 13.1542 15.8252 13.3828 15.9185 13.5695C16.0119 13.7468 16.1892 13.8355 16.4505 13.8355Z" fill="white"/>
</svg>
