<svg width="24" height="24" viewBox="0 0 24 24" fill="none" xmlns="http://www.w3.org/2000/svg">
<path d="M10.1629 14.8862H6.36888L5.34688 17.0002H3.87688L8.93088 7.2002H10.1349L11.7449 17.0002H10.4709L10.1629 14.8862ZM10.0089 13.8362L9.29488 8.8102L6.87288 13.8362H10.0089ZM19.5069 10.0002L18.3169 16.7762C18.1209 17.9055 17.7056 18.7549 17.0709 19.3242C16.4362 19.9029 15.5916 20.1922 14.5369 20.1922C14.0516 20.1922 13.5896 20.1362 13.1509 20.0242C12.7122 19.9122 12.3342 19.7535 12.0169 19.5482L12.5629 18.6802C13.2256 19.0162 13.9069 19.1842 14.6069 19.1842C16.0536 19.1842 16.9309 18.3209 17.2389 16.5942L17.3509 15.9642C17.1176 16.3189 16.8002 16.5989 16.3989 16.8042C15.9976 17.0002 15.5589 17.0982 15.0829 17.0982C14.3082 17.0982 13.6969 16.8602 13.2489 16.3842C12.8009 15.9082 12.5769 15.2549 12.5769 14.4242C12.5769 13.5469 12.7262 12.7629 13.0249 12.0722C13.3329 11.3815 13.7576 10.8402 14.2989 10.4482C14.8402 10.0562 15.4562 9.8602 16.1469 9.8602C16.6322 9.8602 17.0569 9.96287 17.4209 10.1682C17.7849 10.3735 18.0416 10.6535 18.1909 11.0082H18.2189L18.5269 10.0002H19.5069ZM17.7849 13.0382C17.8222 12.8515 17.8409 12.6509 17.8409 12.4362C17.8409 11.9042 17.7056 11.4935 17.4349 11.2042C17.1642 10.9149 16.7816 10.7702 16.2869 10.7702C15.8202 10.7702 15.3909 10.9242 14.9989 11.2322C14.6162 11.5402 14.3129 11.9649 14.0889 12.5062C13.8742 13.0382 13.7669 13.6309 13.7669 14.2842C13.7669 14.8815 13.9022 15.3435 14.1729 15.6702C14.4529 15.9875 14.8402 16.1462 15.3349 16.1462C15.9322 16.1462 16.4316 15.9642 16.8329 15.6002C17.2342 15.2362 17.4909 14.7369 17.6029 14.1022L17.7849 13.0382Z" fill="white"/>
</svg>
