<svg width="24" height="24" viewBox="0 0 24 24" fill="none" xmlns="http://www.w3.org/2000/svg">
<path d="M6.40918 14.4502L5.60254 17H3.49707L6.7168 7.07422H9.54688L12.8486 17H10.7773L9.93652 14.4502H6.40918ZM8.10449 8.90625L6.8877 12.8711H9.45117L8.2002 8.90625H8.10449ZM16.9229 9.59668C17.2692 9.59668 17.5928 9.64681 17.8936 9.74707C18.1989 9.84277 18.4632 9.98405 18.6865 10.1709L18.8984 9.66504H20.5938V16.877C20.5938 17.9707 20.2565 18.8024 19.582 19.3721C18.9121 19.9463 17.9984 20.2334 16.8408 20.2334C16.2529 20.2334 15.6696 20.165 15.0908 20.0283C14.512 19.8962 13.9971 19.7025 13.5459 19.4473L14.1953 18.0801C14.5234 18.2578 14.9245 18.4082 15.3984 18.5312C15.8724 18.6589 16.3099 18.7227 16.7109 18.7227C17.2806 18.7227 17.7181 18.5745 18.0234 18.2783C18.3333 17.9867 18.4883 17.556 18.4883 16.9863V16.2139C17.9277 16.7471 17.2669 17.0137 16.5059 17.0137C15.4896 17.0137 14.6989 16.7015 14.1338 16.0771C13.5687 15.4528 13.2861 14.5755 13.2861 13.4453C13.2861 12.2422 13.6074 11.3011 14.25 10.6221C14.8926 9.93848 15.7835 9.59668 16.9229 9.59668ZM17.3125 10.9912C16.6973 10.9912 16.2256 11.1963 15.8975 11.6064C15.5739 12.012 15.4121 12.6022 15.4121 13.377C15.4121 14.0697 15.542 14.6029 15.8018 14.9766C16.0661 15.3457 16.4443 15.5303 16.9365 15.5303C17.3102 15.5303 17.6361 15.4232 17.9141 15.209C18.1966 14.9948 18.388 14.7054 18.4883 14.3408V11.2988C18.1328 11.0938 17.7409 10.9912 17.3125 10.9912Z" fill="white"/>
</svg>
