<svg width="24" height="24" viewBox="0 0 24 24" fill="none" xmlns="http://www.w3.org/2000/svg">
<path d="M11.0138 14.5362H6.92581L6.14181 17.0002H5.28781L8.57781 7.2002H9.36181L12.6518 17.0002H11.7978L11.0138 14.5362ZM10.8038 13.8782L8.96981 8.1382L7.13581 13.8782H10.8038ZM18.9957 10.0002V16.8042C18.9957 17.8775 18.7343 18.6942 18.2117 19.2542C17.689 19.8142 16.9283 20.0942 15.9297 20.0942C15.0523 20.0942 14.2543 19.9075 13.5357 19.5342L13.8017 18.9462C14.1657 19.1235 14.5063 19.2495 14.8237 19.3242C15.1503 19.4082 15.5097 19.4502 15.9017 19.4502C16.7137 19.4502 17.311 19.2262 17.6937 18.7782C18.0857 18.3302 18.2817 17.6395 18.2817 16.7062V15.9082C18.0763 16.3002 17.773 16.6035 17.3717 16.8182C16.9703 17.0329 16.513 17.1402 15.9997 17.1402C15.0943 17.1402 14.3803 16.8042 13.8577 16.1322C13.3443 15.4602 13.0877 14.5409 13.0877 13.3742C13.0877 12.6649 13.209 12.0489 13.4517 11.5262C13.6943 10.9942 14.035 10.5835 14.4737 10.2942C14.9217 10.0049 15.4397 9.8602 16.0277 9.8602C16.4943 9.8602 16.919 9.96753 17.3017 10.1822C17.6843 10.3969 17.9877 10.7049 18.2117 11.1062H18.2397L18.3797 10.0002H18.9957ZM18.2397 13.0242C18.2397 12.2495 18.039 11.6335 17.6377 11.1762C17.2457 10.7095 16.7183 10.4762 16.0557 10.4762C15.3743 10.4762 14.833 10.7422 14.4317 11.2742C14.0303 11.7969 13.8297 12.5062 13.8297 13.4022C13.8297 14.3729 14.0257 15.1335 14.4177 15.6842C14.8097 16.2349 15.351 16.5102 16.0417 16.5102C16.7137 16.5102 17.2457 16.3049 17.6377 15.8942C18.039 15.4742 18.2397 14.9095 18.2397 14.2002V13.0242Z" fill="white"/>
</svg>
