<svg width="24" height="24" viewBox="0 0 24 24" fill="none" xmlns="http://www.w3.org/2000/svg">
<path d="M13.8638 17.2496H8.87952V16.6651C9.31246 16.6651 9.61552 16.63 9.7887 16.5596C9.96187 16.4838 10.0485 16.3621 10.0485 16.1943C10.0485 16.1456 10.0349 16.0617 10.0079 15.9427C9.98081 15.8182 9.91858 15.6207 9.82117 15.3501C9.72375 15.0795 9.56681 14.7034 9.35034 14.2217H6.1601C6.13845 14.2758 6.09515 14.3841 6.03021 14.5464C5.97068 14.7034 5.90574 14.8765 5.83539 15.0659C5.76503 15.2499 5.7028 15.4204 5.64868 15.5774C5.59998 15.7289 5.57562 15.829 5.57562 15.8777C5.57562 16.3485 6.01668 16.611 6.8988 16.6651V17.2496H3.19714V16.6651C3.42444 16.6218 3.62197 16.5596 3.78973 16.4784C3.9575 16.3918 4.11444 16.2484 4.26056 16.0482C4.41209 15.8425 4.56903 15.5449 4.73138 15.1552L8.05151 7.07812H8.63599L12.3295 15.4881C12.5189 15.9264 12.7571 16.2295 13.0439 16.3972C13.3361 16.565 13.6094 16.6543 13.8638 16.6651V17.2496ZM8.96881 13.3612L7.65375 10.4308L6.47668 13.3612H8.96881ZM21.7379 11.2182C21.7379 11.3751 21.7082 11.4942 21.6486 11.5753C21.5891 11.6565 21.4781 11.6971 21.3158 11.6971C21.1913 11.6971 21.029 11.6917 20.8287 11.6809C20.6339 11.6701 20.4905 11.6619 20.3985 11.6565C20.523 11.7918 20.615 11.9569 20.6745 12.1517C20.734 12.3465 20.7638 12.5386 20.7638 12.7281C20.7638 13.1015 20.6583 13.4695 20.4472 13.8321C20.2416 14.1946 19.9304 14.4977 19.5137 14.7412C19.097 14.9794 18.5774 15.0984 17.9551 15.0984C17.7819 15.0984 17.6033 15.0876 17.4193 15.0659C17.2407 15.0443 17.0675 15.0145 16.8998 14.9767C16.7753 15.0795 16.6562 15.1877 16.5426 15.3014C16.4344 15.415 16.3802 15.5314 16.3802 15.6504C16.3802 15.7965 16.5047 15.8885 16.7537 15.9264C17.0026 15.9589 17.3219 15.9751 17.7115 15.9751C18.1066 15.9697 18.526 15.9778 18.9698 15.9995C19.4136 16.0157 19.8303 16.0779 20.2199 16.1862C20.615 16.2944 20.937 16.4811 21.1859 16.7463C21.4349 17.0061 21.5593 17.3795 21.5593 17.8665C21.5593 18.3157 21.424 18.7054 21.1534 19.0355C20.8883 19.371 20.55 19.647 20.1387 19.8635C19.7274 20.08 19.2945 20.2396 18.8399 20.3424C18.3853 20.4507 17.9713 20.5048 17.5979 20.5048C16.9864 20.5048 16.4317 20.4426 15.9338 20.3181C15.4359 20.199 15.0381 20.0286 14.7405 19.8067C14.4482 19.5902 14.3021 19.3385 14.3021 19.0517C14.3021 18.8082 14.4077 18.5565 14.6187 18.2968C14.8352 18.0424 15.1978 17.7718 15.7065 17.485C15.4467 17.4092 15.2411 17.2848 15.0895 17.1116C14.9434 16.933 14.8704 16.7517 14.8704 16.5677C14.8704 16.3079 15.0057 16.013 15.2762 15.6829C15.5468 15.3528 15.8499 15.047 16.1854 14.7656C15.8878 14.6357 15.5982 14.3895 15.3168 14.0269C15.0408 13.6589 14.9028 13.2368 14.9028 12.7605C14.9028 12.2572 15.03 11.8243 15.2844 11.4617C15.5387 11.0937 15.8824 10.8123 16.3153 10.6175C16.7537 10.4226 17.2407 10.3252 17.7765 10.3252C18.1607 10.3252 18.4854 10.3685 18.7506 10.4551C19.0158 10.5417 19.2674 10.631 19.5056 10.723C19.7491 10.8096 20.0251 10.8529 20.3336 10.8529C20.458 10.8529 20.6339 10.8448 20.8612 10.8285C21.0885 10.8123 21.2698 10.8042 21.4051 10.8042C21.5296 10.8042 21.6161 10.8339 21.6649 10.8935C21.7136 10.953 21.7379 11.0612 21.7379 11.2182ZM18.9211 13.0041C18.9211 12.8255 18.9048 12.6144 18.8724 12.3709C18.8399 12.1273 18.7804 11.8892 18.6938 11.6565C18.6126 11.4238 18.4963 11.2317 18.3447 11.0802C18.1932 10.9286 17.9984 10.8529 17.7603 10.8529C17.5005 10.8529 17.2975 10.934 17.1514 11.0964C17.0107 11.2588 16.9106 11.4617 16.8511 11.7052C16.797 11.9488 16.7699 12.1923 16.7699 12.4358C16.7699 12.7443 16.7997 13.0636 16.8592 13.3937C16.9241 13.7184 17.0405 13.9944 17.2083 14.2217C17.3814 14.449 17.6304 14.5626 17.9551 14.5626C18.2148 14.5626 18.4151 14.4788 18.5558 14.311C18.6965 14.1432 18.7912 13.9376 18.8399 13.6941C18.894 13.4505 18.9211 13.2205 18.9211 13.0041ZM20.6339 18.3374C20.6339 18.1858 20.5717 18.0668 20.4472 17.9802C20.3281 17.899 20.182 17.8395 20.0089 17.8016C19.7599 17.7421 19.4108 17.6988 18.9617 17.6717C18.5179 17.6501 18.0633 17.6338 17.5979 17.623C17.1379 17.6122 16.7537 17.5987 16.4452 17.5824C16.3099 17.7394 16.2179 17.8828 16.1692 18.0127C16.1205 18.148 16.0961 18.2616 16.0961 18.3536C16.0961 18.5268 16.1773 18.6702 16.3397 18.7838C16.502 18.8975 16.7077 18.9841 16.9566 19.0436C17.211 19.1085 17.4707 19.1518 17.7359 19.1735C18.0011 19.2005 18.2392 19.2141 18.4503 19.2141C18.7425 19.2141 19.0591 19.187 19.4 19.1329C19.741 19.0842 20.0305 18.9949 20.2686 18.865C20.5121 18.7351 20.6339 18.5593 20.6339 18.3374Z" fill="white"/>
</svg>
