<svg width="24" height="24" viewBox="0 0 24 24" fill="none" xmlns="http://www.w3.org/2000/svg">
<path d="M11.1123 17L10.668 14.2588H6.51172L4.92578 17H3.57227L9.41016 7.19727H10.6133L12.3223 17H11.1123ZM9.85449 9.0498C9.84993 9.00423 9.84538 8.95182 9.84082 8.89258C9.84082 8.83333 9.84082 8.77409 9.84082 8.71484C9.84082 8.65104 9.84082 8.5918 9.84082 8.53711C9.84082 8.47786 9.84082 8.42773 9.84082 8.38672H9.81348C9.7998 8.42773 9.78158 8.47786 9.75879 8.53711C9.736 8.5918 9.71094 8.65104 9.68359 8.71484C9.65625 8.77409 9.62663 8.83333 9.59473 8.89258C9.56738 8.95182 9.54232 9.00423 9.51953 9.0498L7.09961 13.2197H10.4834L9.85449 9.0498ZM18.9395 16.4941C18.8255 17.041 18.6751 17.5446 18.4883 18.0049C18.3014 18.4697 18.0531 18.8708 17.7432 19.208C17.4378 19.5498 17.0596 19.8141 16.6084 20.001C16.1572 20.1924 15.6081 20.2881 14.9609 20.2881C14.5143 20.2881 14.1247 20.2357 13.792 20.1309C13.4639 20.026 13.1631 19.9007 12.8896 19.7549L13.1016 18.709C13.3887 18.8822 13.694 19.028 14.0176 19.1465C14.3411 19.265 14.6898 19.3242 15.0635 19.3242C15.4691 19.3242 15.82 19.265 16.1162 19.1465C16.417 19.028 16.6745 18.8525 16.8887 18.6201C17.1074 18.3923 17.2874 18.112 17.4287 17.7793C17.5745 17.4466 17.6953 17.0661 17.791 16.6377L18.0303 15.5439H18.0029C17.8298 15.8219 17.6589 16.0635 17.4902 16.2686C17.3262 16.4691 17.153 16.6377 16.9707 16.7744C16.7884 16.9066 16.597 17.0046 16.3965 17.0684C16.196 17.1367 15.9749 17.1709 15.7334 17.1709C15.4189 17.1709 15.1341 17.1139 14.8789 17C14.6237 16.8906 14.4049 16.7266 14.2227 16.5078C14.0449 16.2891 13.9059 16.0156 13.8057 15.6875C13.71 15.3594 13.6621 14.9811 13.6621 14.5527C13.6621 14.1471 13.7054 13.7484 13.792 13.3564C13.8831 12.9645 14.013 12.5931 14.1816 12.2422C14.3503 11.8913 14.5553 11.57 14.7969 11.2783C15.043 10.9821 15.321 10.7269 15.6309 10.5127C15.9408 10.2985 16.2803 10.1322 16.6494 10.0137C17.0231 9.89062 17.4219 9.8291 17.8457 9.8291C18.2695 9.8291 18.6934 9.85645 19.1172 9.91113C19.541 9.96582 19.9307 10.0273 20.2861 10.0957L18.9395 16.4941ZM18.9941 10.9229C18.8392 10.8864 18.6501 10.8545 18.4268 10.8271C18.208 10.7998 17.9733 10.7861 17.7227 10.7861C17.2943 10.7861 16.9023 10.8864 16.5469 11.0869C16.1914 11.2829 15.8838 11.5518 15.624 11.8936C15.3688 12.2308 15.1683 12.625 15.0225 13.0762C14.8812 13.5273 14.8105 14.0036 14.8105 14.5049C14.8105 14.751 14.8311 14.9788 14.8721 15.1885C14.9176 15.3981 14.986 15.5781 15.0771 15.7285C15.1729 15.8789 15.2936 15.9974 15.4395 16.084C15.5898 16.1706 15.7721 16.2139 15.9863 16.2139C16.237 16.2139 16.4671 16.1615 16.6768 16.0566C16.891 15.9518 17.0869 15.8128 17.2646 15.6396C17.4424 15.4665 17.5996 15.2705 17.7363 15.0518C17.8776 14.8285 18.0007 14.6006 18.1055 14.3682C18.2148 14.1357 18.306 13.9079 18.3789 13.6846C18.4518 13.4567 18.5088 13.2516 18.5498 13.0693L18.9941 10.9229Z" fill="white"/>
</svg>
