<svg width="24" height="24" viewBox="0 0 24 24" fill="none" xmlns="http://www.w3.org/2000/svg">
<path d="M17.6768 11.0364C17.7888 11.1297 18.0408 11.3257 18.4328 11.6244C18.8342 11.9137 19.1282 12.1564 19.3148 12.3524C19.3615 12.3991 19.3755 12.4551 19.3568 12.5204C19.3475 12.5857 19.3102 12.6277 19.2448 12.6464C19.1235 12.6931 18.9882 12.7257 18.8388 12.7444C17.9148 13.4537 17.1215 14.0371 16.4588 14.4944C16.1788 14.7184 15.9642 14.8817 15.8148 14.9844C14.8348 15.7124 13.6775 16.4871 12.3428 17.3084C12.2775 17.3457 12.2168 17.3457 12.1608 17.3084C12.1142 17.2711 12.0862 17.2197 12.0768 17.1544L11.9928 17.0564C11.9368 17.0191 11.8948 16.9957 11.8668 16.9864C11.6615 16.9397 11.4748 16.8511 11.3068 16.7204C11.2322 16.6551 11.2135 16.5757 11.2508 16.4824L11.2088 16.4404C11.0408 16.3377 10.7655 16.1931 10.3828 16.0064C10.0095 15.8104 9.73882 15.6611 9.57082 15.5584L8.19882 14.6624C7.31215 14.0557 6.71015 13.6217 6.39282 13.3604C6.38348 13.3511 6.34615 13.3231 6.28082 13.2764C6.22482 13.2297 6.17815 13.1924 6.14082 13.1644C6.11282 13.1364 6.07082 13.0991 6.01482 13.0524C5.96815 12.9964 5.92615 12.9451 5.88882 12.8984C5.86082 12.8517 5.84215 12.8051 5.83282 12.7584C5.74882 12.7677 5.68815 12.7351 5.65082 12.6604C5.61348 12.5857 5.62282 12.5157 5.67882 12.4504L5.70682 12.4224C5.66948 12.2824 5.70682 12.1984 5.81882 12.1704H5.86082C6.04748 11.8904 6.43482 11.5497 7.02282 11.1484C7.13482 11.0737 7.21415 11.0177 7.26082 10.9804L8.84282 9.56641C8.95482 9.47308 9.40749 9.11373 10.2008 8.4884C11.0035 7.86308 11.5822 7.34973 11.9368 6.94841C12.0022 6.87374 12.0722 6.86908 12.1468 6.93441C12.2215 6.99041 12.2495 7.06041 12.2308 7.14441C12.2775 7.16308 12.3242 7.18641 12.3708 7.21441C12.3988 7.15841 12.4362 7.12574 12.4828 7.11641C12.5388 7.10708 12.5902 7.1304 12.6368 7.1864C12.7302 7.28907 12.8235 7.39174 12.9168 7.49441C13.0195 7.58774 13.1408 7.68574 13.2808 7.78841C13.4208 7.89108 13.5235 7.97041 13.5888 8.02641C13.6635 8.07308 13.7942 8.16173 13.9808 8.2924C14.1768 8.41373 14.2935 8.4884 14.3308 8.5164C14.4335 8.58173 14.9935 8.99708 16.0108 9.76241C16.9442 10.4624 17.4995 10.8871 17.6768 11.0364Z" fill="white"/>
</svg>
