<svg width="24" height="24" viewBox="0 0 24 24" fill="none" xmlns="http://www.w3.org/2000/svg">
<path d="M4.82812 17L5.74414 14.2383H9.18262L10.0986 17H11.4248L8.12988 7.66895H6.82422L3.52246 17H4.82812ZM7.4873 9.11133L8.86133 13.2334H6.07227L7.43945 9.11133H7.4873ZM15.6016 18.5928C14.6582 18.5928 14.0771 18.1689 13.9814 17.6631H12.7236C12.8193 18.709 13.7217 19.6318 15.5605 19.6318C17.3994 19.6318 18.7256 18.7637 18.7256 16.7812V9.80859H17.543V10.8955H17.4814C17.2422 10.3076 16.4766 9.69921 15.3965 9.69921C13.8037 9.69921 12.5664 10.8408 12.5664 12.7344V13.8486C12.5664 15.7422 13.8105 16.8701 15.4033 16.8701C16.4014 16.8701 17.1396 16.3643 17.4199 15.7422H17.4883V16.7881C17.4883 17.916 16.8662 18.5928 15.6016 18.5928ZM15.7041 10.7588C16.832 10.7588 17.4883 11.7158 17.4883 12.7686V13.8555C17.4883 14.8809 16.8662 15.8311 15.7178 15.8311C14.6035 15.8311 13.8105 14.9492 13.8105 13.6367V12.96C13.8105 11.6475 14.5352 10.7588 15.7041 10.7588Z" fill="white"/>
</svg>
