<svg width="24" height="24" viewBox="0 0 24 24" fill="none" xmlns="http://www.w3.org/2000/svg">
<path d="M6.04688 17L6.78516 14.6006H9.89551L10.627 17H12.5889L9.47852 7.66895H7.31152L4.18066 17H6.04688ZM8.3916 9.45312L9.52637 13.2266H7.16797L8.30957 9.45312H8.3916ZM16.6699 18.333C15.877 18.333 15.3438 17.9639 15.2275 17.4512H13.4844C13.5869 18.6611 14.5576 19.6523 16.6426 19.6523C18.2832 19.6523 20.0127 18.8936 20.0127 16.9111V9.74707H18.2354V10.8135H18.1602C17.8662 10.1504 17.0938 9.65137 16.0957 9.65137C14.4414 9.65137 13.3271 10.8408 13.3271 13.042V13.4932C13.3271 15.7217 14.4482 16.9043 16.0957 16.9043C17.1074 16.9043 17.8662 16.3984 18.1396 15.7627H18.2148V16.7949C18.2148 17.7725 17.6338 18.333 16.6699 18.333ZM16.7109 11.0869C17.6133 11.0869 18.2148 11.8252 18.2148 13.1035V13.5273C18.2148 14.8193 17.6406 15.5508 16.7109 15.5508C15.7539 15.5508 15.1729 14.8262 15.1729 13.5273V13.1035C15.1729 11.7979 15.7539 11.0869 16.7109 11.0869Z" fill="white"/>
</svg>
