<svg width="24" height="24" viewBox="0 0 24 24" fill="none" xmlns="http://www.w3.org/2000/svg">
<path d="M10.4551 16.999L10.0312 13.9775H6.42871L4.9248 16.999H3.94727L8.95117 7.13477H9.86719L11.3506 16.999H10.4551ZM9.22461 8.35841L6.83203 13.1709H9.91504L9.23828 8.35841H9.22461ZM15.917 19.7539C14.3447 19.7539 13.1826 18.8447 13.1826 17.6142V17.5049H14.0781V17.6211C14.0781 18.3935 14.9053 18.9814 15.9922 18.9814C17.2979 18.9814 18.0703 18.2705 18.3301 16.8349L18.5352 15.6865H18.4668C18.125 16.4863 17.2773 16.9853 16.2588 16.9853C14.748 16.9853 13.6338 15.7685 13.6338 14.1211C13.6338 13.8203 13.6748 13.3281 13.7227 13.0752L13.8594 12.3164C14.167 10.6006 15.3564 9.51368 16.9219 9.51368C18.2002 9.51368 19.0547 10.122 19.2461 11.1748H19.3145L19.5742 9.63673H20.4766L19.1982 16.9443C18.8701 18.8105 17.7764 19.7539 15.917 19.7539ZM16.9561 10.3408C15.8281 10.3408 14.9668 11.2021 14.7139 12.5967L14.6113 13.1504C14.5703 13.3828 14.5293 13.7998 14.5293 13.9775C14.5293 15.3515 15.2881 16.1855 16.5322 16.1855C17.6465 16.1855 18.5693 15.2969 18.7949 14.0117L18.9453 13.1709C18.9863 12.9385 19.0137 12.6855 19.0137 12.5283C19.0137 11.2295 18.1729 10.3408 16.9561 10.3408Z" fill="white"/>
</svg>
