<svg width="24" height="24" viewBox="0 0 24 24" fill="none" xmlns="http://www.w3.org/2000/svg">
<g clip-path="url(#clip0_538_338)">
<mask id="mask0_538_338" style="mask-type:luminance" maskUnits="userSpaceOnUse" x="0" y="0" width="24" height="24">
<path d="M24 0H0V24H24V0Z" fill="white"/>
</mask>
<g mask="url(#mask0_538_338)">
<path d="M2 16.6454L5.94886 8H8.07792V9.82734H7.35237L4.40857 16.6454H2ZM4.05175 14.6803L4.71187 13.1345H9.97504L10.6292 14.6803H4.05175ZM10.3557 16.6454L7.41184 9.82734V8H8.80941L12.7642 16.6454H10.3557ZM17.7003 19C16.947 19 16.2908 18.9161 15.7318 18.7484C15.1767 18.5847 14.7308 18.351 14.3937 18.0474C14.0567 17.7478 13.8406 17.3964 13.7455 16.9929L13.7336 16.939H15.9519L15.9697 16.975C16.0807 17.1746 16.2829 17.3305 16.5763 17.4423C16.8697 17.5581 17.2503 17.616 17.7182 17.616C18.412 17.616 18.9313 17.4823 19.2763 17.2146C19.6251 16.951 19.7996 16.5695 19.7996 16.0703V15.2076H19.7342C19.5756 15.4592 19.3635 15.6808 19.0979 15.8726C18.8323 16.0603 18.519 16.2061 18.1582 16.3099C17.8014 16.4138 17.403 16.4657 16.9629 16.4657C16.273 16.4657 15.6664 16.3299 15.143 16.0583C14.6237 15.7867 14.2193 15.4072 13.9299 14.9199C13.6404 14.4327 13.4958 13.8715 13.4958 13.2364V13.2244C13.4958 12.5653 13.6404 11.9862 13.9299 11.487C14.2232 10.9877 14.6296 10.5983 15.149 10.3186C15.6684 10.035 16.277 9.89325 16.9748 9.89325C17.4148 9.89325 17.8133 9.95117 18.1701 10.067C18.5309 10.1828 18.8441 10.3426 19.1098 10.5463C19.3754 10.746 19.5875 10.9777 19.7461 11.2413H19.7996V10.037H22V15.9624C22 16.6095 21.8316 17.1587 21.4945 17.6101C21.1575 18.0614 20.6679 18.4049 20.0256 18.6406C19.3873 18.8802 18.6122 19 17.7003 19ZM17.7598 15.0158C18.176 15.0158 18.5369 14.9419 18.8422 14.7941C19.1474 14.6464 19.3833 14.4387 19.5498 14.1711C19.7203 13.9034 19.8056 13.5899 19.8056 13.2304V13.2184C19.8056 12.859 19.7203 12.5454 19.5498 12.2778C19.3833 12.0102 19.1474 11.8045 18.8422 11.6607C18.5369 11.5129 18.176 11.439 17.7598 11.439C17.3514 11.439 16.9946 11.5109 16.6893 11.6547C16.388 11.7985 16.154 12.0042 15.9875 12.2718C15.825 12.5354 15.7437 12.851 15.7437 13.2184V13.2304C15.7437 13.5979 15.825 13.9154 15.9875 14.183C16.154 14.4466 16.388 14.6523 16.6893 14.8001C16.9946 14.9439 17.3514 15.0158 17.7598 15.0158Z" fill="white"/>
</g>
</g>
<defs>
<clipPath id="clip0_538_338">
<rect width="24" height="24" fill="white"/>
</clipPath>
</defs>
</svg>
