<svg width="24" height="24" viewBox="0 0 24 24" fill="none" xmlns="http://www.w3.org/2000/svg">
<path d="M10.8115 16.999L10.4629 14.3808H6.67578L5.19238 16.999H3.53125L9.19824 7.13477H10.8662L12.3018 16.999H10.8115ZM9.7041 8.85059L7.33203 13.0957H10.3193L9.73828 8.85059H9.7041ZM15.7607 19.7197C13.9971 19.7197 12.7256 18.8379 12.7188 17.539H14.1953C14.291 18.1406 14.8994 18.5302 15.7881 18.5302C16.9365 18.5302 17.6611 17.9424 17.9551 16.7597L18.1875 15.7685H18.1396C17.7021 16.4863 16.8271 16.958 15.9111 16.958C14.3252 16.958 13.2725 15.7959 13.2725 14.0049C13.2725 11.7832 14.5986 9.63673 16.8682 9.66407C17.9756 9.67774 18.8574 10.334 19.1035 11.2431H19.1514L19.4521 9.78712H20.8809L19.418 16.7802C19.001 18.7217 17.6338 19.7197 15.7607 19.7197ZM16.3691 15.7344C17.791 15.7344 18.6865 14.374 18.6865 12.7949C18.6865 11.7217 17.9551 10.9765 16.998 10.9765C15.6445 10.9765 14.7422 12.2617 14.7422 13.9023C14.7422 14.9892 15.3096 15.7344 16.3691 15.7344Z" fill="white"/>
</svg>
