<svg width="24" height="24" viewBox="0 0 24 24" fill="none" xmlns="http://www.w3.org/2000/svg">
<path d="M9.1084 7.87305L5.96387 13.2256H10.0449L9.15625 7.87305H9.1084ZM10.6533 16.999L10.1133 13.7041H5.69043L3.75586 16.999H3.14062L8.99902 7.13477H9.52539L11.1865 16.999H10.6533ZM15.2607 19.6719C14.764 19.6719 14.3128 19.5944 13.9072 19.4394C13.5062 19.2845 13.1781 19.0726 12.9229 18.8037C12.6722 18.5394 12.5218 18.2409 12.4717 17.9082H13.0254C13.1074 18.2773 13.3535 18.5849 13.7637 18.831C14.1784 19.0771 14.6979 19.2002 15.3223 19.2002C16.015 19.2002 16.612 19.0202 17.1133 18.6601C17.6191 18.3047 17.9495 17.7623 18.1045 17.0332L18.4873 15.2695H18.4395C18.1523 15.8027 17.7627 16.2197 17.2705 16.5205C16.7783 16.8213 16.2314 16.9717 15.6299 16.9717C15.0921 16.9717 14.6204 16.8509 14.2148 16.6094C13.8092 16.3633 13.4925 16.0192 13.2646 15.5771C13.0413 15.1351 12.9297 14.6201 12.9297 14.0322C12.9297 13.4079 13.0254 12.8245 13.2168 12.2822C13.4082 11.7353 13.6748 11.2568 14.0166 10.8467C14.363 10.4319 14.764 10.1084 15.2197 9.87598C15.6755 9.64356 16.1699 9.52735 16.7031 9.52735C17.3867 9.52735 17.9564 9.72787 18.4121 10.1289C18.8724 10.5254 19.139 11.0449 19.2119 11.6875H19.2598L19.6631 9.78028L20.1826 9.79395L18.6104 17.1562C18.4372 17.9674 18.0544 18.5895 17.4619 19.0224C16.8695 19.4554 16.1357 19.6719 15.2607 19.6719ZM15.7529 16.4931C16.2314 16.4931 16.6667 16.3883 17.0586 16.1787C17.4551 15.9691 17.7969 15.6819 18.084 15.3174C18.3757 14.9482 18.5967 14.5244 18.7471 14.0459C18.902 13.5628 18.9795 13.0547 18.9795 12.5215C18.9795 11.7285 18.7699 11.111 18.3506 10.6689C17.9359 10.2269 17.389 10.0058 16.71 10.0058C16.2588 10.0058 15.835 10.1107 15.4385 10.3203C15.0465 10.5299 14.7025 10.817 14.4062 11.1816C14.1146 11.5462 13.8844 11.9678 13.7158 12.4463C13.5518 12.9202 13.4697 13.4284 13.4697 13.9707C13.4697 14.75 13.6748 15.3652 14.085 15.8164C14.4951 16.2676 15.0511 16.4931 15.7529 16.4931Z" fill="white"/>
</svg>
