<svg width="24" height="24" viewBox="0 0 24 24" fill="none" xmlns="http://www.w3.org/2000/svg">
<path d="M2.90234 17H5.95117L7.87207 9.4873H8.69238V7.13574H6.12207L2.90234 17ZM4.92578 15.0381H10.8457L10.2168 12.9941H5.55469L4.92578 15.0381ZM9.92969 17H12.9785L9.75879 7.13574H8.00879V9.4873L9.92969 17ZM17.5518 19.6934C18.404 19.6934 19.14 19.568 19.7598 19.3174C20.3796 19.0713 20.8581 18.7204 21.1953 18.2646C21.5371 17.8089 21.708 17.2666 21.708 16.6377V9.31641H18.9053V10.5605H18.8027C18.6842 10.2734 18.5179 10.0296 18.3037 9.8291C18.0941 9.62858 17.8457 9.47591 17.5586 9.37109C17.2715 9.26172 16.9548 9.20703 16.6084 9.20703C15.9658 9.20703 15.4144 9.36426 14.9541 9.67871C14.4984 9.98861 14.1475 10.4307 13.9014 11.0049C13.6598 11.5791 13.5391 12.2604 13.5391 13.0488V13.0625C13.5391 13.8008 13.6598 14.4456 13.9014 14.9971C14.1475 15.5439 14.4961 15.9701 14.9473 16.2754C15.403 16.5762 15.943 16.7266 16.5674 16.7266C16.9274 16.7266 17.251 16.6833 17.5381 16.5967C17.8252 16.5101 18.0713 16.3802 18.2764 16.207C18.486 16.0293 18.6501 15.8105 18.7686 15.5508H18.9053V16.8633C18.9053 17.196 18.7959 17.4512 18.5771 17.6289C18.3584 17.8112 18.0462 17.9023 17.6406 17.9023C17.2806 17.9023 17.0026 17.8545 16.8066 17.7588C16.6152 17.6676 16.4967 17.5446 16.4512 17.3896L16.4375 17.3418H13.7236L13.7305 17.4033C13.7806 17.8499 13.9561 18.2464 14.2568 18.5928C14.5576 18.9391 14.9814 19.208 15.5283 19.3994C16.0798 19.5954 16.7542 19.6934 17.5518 19.6934ZM17.6611 14.7168C17.4014 14.7168 17.1781 14.6484 16.9912 14.5117C16.8044 14.375 16.6608 14.1813 16.5605 13.9307C16.4603 13.68 16.4102 13.3861 16.4102 13.0488V13.0352C16.4102 12.6979 16.4603 12.4062 16.5605 12.1602C16.6608 11.9141 16.8044 11.7249 16.9912 11.5928C17.1781 11.4561 17.4014 11.3877 17.6611 11.3877C17.9255 11.3877 18.151 11.4561 18.3379 11.5928C18.5247 11.7249 18.6683 11.9163 18.7686 12.167C18.8688 12.4131 18.9189 12.7048 18.9189 13.042V13.0557C18.9189 13.3929 18.8688 13.6868 18.7686 13.9375C18.6683 14.1836 18.5247 14.375 18.3379 14.5117C18.151 14.6484 17.9255 14.7168 17.6611 14.7168Z" fill="white"/>
</svg>
