<svg width="24" height="24" viewBox="0 0 24 24" fill="none" xmlns="http://www.w3.org/2000/svg">
<path d="M2 16.6643L6.36216 8H7.86807V9.48908H7.33913L3.81705 16.6643H2ZM4.01618 14.4187L4.58867 13.2118H10.1207L10.6869 14.4187H4.01618ZM10.911 16.6643L7.39513 9.48908V8H8.36589L12.7343 16.6643H10.911ZM17.8245 19C17.1027 19 16.47 18.9219 15.9266 18.7658C15.3872 18.6137 14.9475 18.3975 14.6073 18.1173C14.2713 17.8411 14.0431 17.5109 13.9228 17.1267L13.9104 17.0786H15.659L15.6777 17.1146C15.8187 17.3428 16.0697 17.5229 16.4306 17.655C16.7915 17.7911 17.2603 17.8592 17.8369 17.8592C18.6667 17.8592 19.291 17.7071 19.71 17.4028C20.1332 17.0986 20.3447 16.6663 20.3447 16.1059V15.2413H20.2887C20.1103 15.5094 19.8759 15.7416 19.5855 15.9378C19.2951 16.1299 18.957 16.28 18.5713 16.388C18.1854 16.4962 17.7581 16.5502 17.2894 16.5502C16.5426 16.5502 15.8954 16.4101 15.3479 16.1299C14.8002 15.8497 14.375 15.4654 14.0722 14.9771C13.7735 14.4847 13.6241 13.9243 13.6241 13.2958V13.2839C13.6241 12.6474 13.7755 12.081 14.0784 11.5846C14.3812 11.0842 14.8064 10.6919 15.3541 10.4077C15.9017 10.1235 16.5488 9.98144 17.2956 9.98144C17.7685 9.98144 18.1979 10.0395 18.5836 10.1556C18.9695 10.2717 19.3055 10.4318 19.5918 10.6359C19.8822 10.84 20.1166 11.0782 20.2949 11.3504H20.3447V10.1255H22V16.0999C22 16.7043 21.8361 17.2227 21.5083 17.655C21.1806 18.0873 20.7056 18.4196 20.0834 18.6517C19.4611 18.8839 18.7082 19 17.8245 19ZM17.8121 15.3793C18.3306 15.3793 18.7786 15.2933 19.1561 15.1212C19.5378 14.945 19.8324 14.7008 20.0398 14.3887C20.2472 14.0764 20.3509 13.7121 20.3509 13.2958V13.2778C20.3509 12.8655 20.2472 12.5033 20.0398 12.191C19.8324 11.8748 19.5378 11.6306 19.1561 11.4585C18.7786 11.2824 18.3306 11.1944 17.8121 11.1944C17.3017 11.1944 16.86 11.2803 16.4866 11.4525C16.1133 11.6206 15.8249 11.8608 15.6216 12.173C15.4183 12.4853 15.3167 12.8536 15.3167 13.2778V13.2958C15.3167 13.7201 15.4183 14.0884 15.6216 14.4007C15.8249 14.7129 16.1133 14.955 16.4866 15.1272C16.86 15.2953 17.3017 15.3793 17.8121 15.3793Z" fill="white"/>
</svg>
