<svg width="24" height="24" viewBox="0 0 24 24" fill="none" xmlns="http://www.w3.org/2000/svg">
<path d="M5.83496 16.999L8.34375 7.13477H9.38965V8.57715H9.01367L7.03125 16.999H5.83496ZM7.06543 14.3535L7.31836 13.3623H10.7363L10.9893 14.3535H7.06543ZM11.0303 16.999L9.04785 8.57715V7.13477H9.71094L12.2197 16.999H11.0303ZM16.0273 19.583C15.5306 19.583 15.1022 19.5032 14.7422 19.3437C14.3867 19.1888 14.1042 18.9632 13.8945 18.667C13.6849 18.3707 13.555 18.0153 13.5049 17.6006V17.5185H14.6191L14.626 17.5801C14.6807 17.9127 14.8265 18.1634 15.0635 18.332C15.305 18.5052 15.6263 18.5918 16.0273 18.5918C16.4967 18.5918 16.8568 18.4733 17.1074 18.2363C17.3581 18.0039 17.4834 17.6644 17.4834 17.2178V15.8027H17.4424C17.3421 16.0488 17.2054 16.2584 17.0322 16.4316C16.8636 16.6002 16.6631 16.7278 16.4307 16.8144C16.1982 16.901 15.9385 16.9443 15.6514 16.9443C15.141 16.9443 14.7035 16.7962 14.3389 16.5C13.9788 16.2038 13.7054 15.7799 13.5186 15.2285C13.3363 14.6725 13.2451 14.0094 13.2451 13.2392V13.2187C13.2451 12.4577 13.3363 11.8037 13.5186 11.2568C13.7054 10.7054 13.9788 10.2816 14.3389 9.98536C14.6989 9.68913 15.1387 9.54102 15.6582 9.54102C15.9499 9.54102 16.2119 9.5866 16.4443 9.67774C16.6768 9.76889 16.8773 9.90105 17.0459 10.0742C17.2145 10.2474 17.3467 10.4525 17.4424 10.6894H17.4766V9.62305H18.6113V17.2109C18.6113 17.7077 18.5088 18.1338 18.3037 18.4892C18.0986 18.8447 17.8024 19.1159 17.415 19.3027C17.0322 19.4896 16.5697 19.583 16.0273 19.583ZM15.9316 15.9394C16.3008 15.9394 16.597 15.8209 16.8203 15.584C17.0482 15.3424 17.2145 15.0189 17.3193 14.6133C17.4287 14.2077 17.4834 13.7542 17.4834 13.2529V13.2324C17.4834 12.7402 17.4287 12.2913 17.3193 11.8857C17.2145 11.4756 17.0482 11.1497 16.8203 10.9082C16.597 10.6666 16.3031 10.5459 15.9385 10.5459C15.6058 10.5459 15.3255 10.6507 15.0977 10.8603C14.8698 11.0654 14.6966 11.3685 14.5781 11.7695C14.4642 12.166 14.4072 12.6491 14.4072 13.2187V13.2392C14.4072 13.818 14.4642 14.3102 14.5781 14.7158C14.6921 15.1168 14.863 15.4222 15.0908 15.6318C15.3232 15.8369 15.6035 15.9394 15.9316 15.9394Z" fill="white"/>
</svg>
