<svg width="24" height="24" viewBox="0 0 24 24" fill="none" xmlns="http://www.w3.org/2000/svg">
<path d="M10.0859 16.999L9.78516 14.4765H6.13477L4.74023 16.999H2.83984L8.46582 7.13477H10.4688L11.8291 16.999H10.0859ZM9.10156 8.95313L6.85254 13.082H9.64844L9.14258 8.95313H9.10156ZM15.3359 19.7402C13.4766 19.7402 12.1846 18.8515 12.1777 17.5117H13.8457C13.9414 18.0928 14.5225 18.4687 15.3838 18.4687C16.4707 18.4687 17.1543 17.915 17.4209 16.8144L17.6602 15.7754H17.5986C17.1611 16.4795 16.3066 16.9375 15.3838 16.9375C13.8115 16.9375 12.7656 15.789 12.7656 14.0185C12.7656 11.7422 14.1533 9.58887 16.3818 9.61622C17.4756 9.62989 18.3438 10.2656 18.5898 11.1611H18.6514L18.9521 9.73926H20.5859L19.0889 16.8554C18.6855 18.749 17.2842 19.7402 15.3359 19.7402ZM15.9785 15.6318C17.3115 15.6318 18.1797 14.3193 18.1797 12.7881C18.1797 11.7558 17.5029 11.0449 16.6006 11.0449C15.3223 11.0449 14.4541 12.2959 14.4541 13.8886C14.4541 14.9277 14.9941 15.6318 15.9785 15.6318Z" fill="white"/>
</svg>
