<svg width="24" height="24" viewBox="0 0 24 24" fill="none" xmlns="http://www.w3.org/2000/svg">
<path d="M9.5127 17H12.4863L11.4746 7.13574H7.83789L2.41016 17H5.46582L6.42969 15.0381H9.42383L9.5127 17ZM9.12305 9.55566H9.18457L9.33496 12.9941H7.43457L9.12305 9.55566ZM16.2324 19.8506C18.5361 19.8506 20.0879 18.8936 20.4365 17.2666L22.0977 9.45312H19.459L19.1719 10.7109H19.0488C18.7959 9.87012 17.9893 9.34375 16.9639 9.34375C14.9062 9.34375 13.2246 11.4834 13.2246 14.1016C13.2246 15.7354 14.2295 16.8291 15.7266 16.8291C16.6904 16.8291 17.4629 16.4736 17.9004 15.8242H18.0371L17.7568 17.1162C17.6201 17.7725 17.1621 18.1006 16.3828 18.1006C15.6582 18.1006 15.1934 17.834 15.1113 17.376H12.4932C12.5068 18.9346 13.8877 19.8506 16.2324 19.8506ZM17.0391 15.0449C16.4033 15.0449 15.9863 14.5391 15.9863 13.7803C15.9863 12.502 16.7109 11.4697 17.6064 11.4697C18.2422 11.4697 18.6592 11.9688 18.6592 12.7344C18.6592 13.9717 17.9072 15.0449 17.0391 15.0449Z" fill="white"/>
</svg>
