<svg width="24" height="24" viewBox="0 0 24 24" fill="none" xmlns="http://www.w3.org/2000/svg">
<path d="M3.78418 17H5.62988L8.2207 8.96777H8.74707V7.13574H7.28418L3.78418 17ZM5.54785 14.4502H10.9893L10.5312 13.0898H6.00586L5.54785 14.4502ZM10.9277 17H12.7734L9.2666 7.13574H8.33691V8.96777L10.9277 17ZM17.0938 19.625C17.8229 19.625 18.4541 19.5111 18.9873 19.2832C19.5205 19.0553 19.9307 18.7295 20.2178 18.3057C20.5094 17.8864 20.6553 17.3896 20.6553 16.8154V9.52832H18.9531V10.7588H18.8643C18.723 10.4762 18.5407 10.2347 18.3174 10.0342C18.0986 9.83366 17.8434 9.67871 17.5518 9.56934C17.2646 9.45996 16.9479 9.40527 16.6016 9.40527C15.959 9.40527 15.4053 9.56022 14.9404 9.87012C14.4801 10.18 14.1247 10.6084 13.874 11.1553C13.6234 11.7021 13.498 12.3356 13.498 13.0557V13.0693C13.498 13.7757 13.6211 14.3978 13.8672 14.9355C14.1178 15.4733 14.4733 15.8949 14.9336 16.2002C15.3939 16.501 15.9385 16.6514 16.5674 16.6514C16.9137 16.6514 17.2305 16.6058 17.5176 16.5146C17.8092 16.4189 18.0667 16.2777 18.29 16.0908C18.5179 15.904 18.7025 15.6761 18.8438 15.4072H18.96V16.8428C18.96 17.3213 18.7982 17.6904 18.4746 17.9502C18.1556 18.21 17.7044 18.3398 17.1211 18.3398C16.6471 18.3398 16.2689 18.2624 15.9863 18.1074C15.7083 17.957 15.542 17.7633 15.4873 17.5264L15.4736 17.5059H13.7783L13.7715 17.5264C13.8307 17.9456 13.9971 18.3125 14.2705 18.627C14.5439 18.946 14.9176 19.1921 15.3916 19.3652C15.8701 19.5384 16.4375 19.625 17.0938 19.625ZM17.0938 15.2979C16.6973 15.2979 16.36 15.2044 16.082 15.0176C15.8086 14.8262 15.599 14.5641 15.4531 14.2314C15.3118 13.8942 15.2412 13.5068 15.2412 13.0693V13.0557C15.2412 12.6136 15.3118 12.2262 15.4531 11.8936C15.599 11.5563 15.8086 11.2943 16.082 11.1074C16.36 10.916 16.6973 10.8203 17.0938 10.8203C17.4857 10.8203 17.8229 10.916 18.1055 11.1074C18.388 11.2943 18.6045 11.5563 18.7549 11.8936C18.9098 12.2262 18.9873 12.6136 18.9873 13.0557V13.0693C18.9873 13.5114 18.9098 13.8988 18.7549 14.2314C18.6045 14.5641 18.388 14.8262 18.1055 15.0176C17.8229 15.2044 17.4857 15.2979 17.0938 15.2979Z" fill="white"/>
</svg>
