<svg width="24" height="24" viewBox="0 0 24 24" fill="none" xmlns="http://www.w3.org/2000/svg">
<path d="M9.25293 8.93946L6.92188 13.0957H9.92969L9.36914 8.93946H9.25293ZM10.3945 16.999L10.0527 14.3808H6.26562L4.78906 16.999H3.17578L8.88379 7.13477H10.4766L11.9258 16.999H10.3945ZM15.959 19.8359C15.3529 19.8359 14.8174 19.7379 14.3525 19.542C13.8877 19.346 13.5208 19.0817 13.252 18.749C12.9876 18.4209 12.8464 18.0563 12.8281 17.6552H14.3389C14.3799 17.9241 14.5508 18.1543 14.8516 18.3457C15.1523 18.5371 15.5579 18.6328 16.0684 18.6328C16.679 18.6328 17.153 18.4938 17.4902 18.2158C17.832 17.9424 18.0553 17.5823 18.1602 17.1357L18.4746 15.789L18.3584 15.7822C18.0986 16.1468 17.7796 16.4202 17.4014 16.6025C17.0231 16.7848 16.5993 16.876 16.1299 16.876C15.6331 16.876 15.1842 16.7552 14.7832 16.5136C14.3822 16.2676 14.0632 15.9258 13.8262 15.4883C13.5938 15.0508 13.4775 14.5449 13.4775 13.9707C13.4775 13.3144 13.571 12.7106 13.7578 12.1592C13.9447 11.6032 14.2044 11.1224 14.5371 10.7168C14.8743 10.3066 15.2663 9.98992 15.7129 9.76661C16.1641 9.5433 16.6494 9.43165 17.1689 9.43165C17.6885 9.43165 18.1602 9.56837 18.584 9.8418C19.0078 10.1107 19.2926 10.4616 19.4385 10.8945H19.5479L19.835 9.55469H21.2637L19.5957 17.334C19.4316 18.0996 19.0329 18.708 18.3994 19.1592C17.7705 19.6103 16.957 19.8359 15.959 19.8359ZM16.6768 15.6455C17.0186 15.6455 17.3353 15.5726 17.627 15.4267C17.9232 15.2763 18.1807 15.0667 18.3994 14.7978C18.6227 14.5244 18.7959 14.2031 18.9189 13.834C19.042 13.4648 19.1035 13.0569 19.1035 12.6103C19.1035 12.0452 18.9463 11.5963 18.6318 11.2636C18.3174 10.931 17.8936 10.7646 17.3604 10.7646C17.0231 10.7646 16.7109 10.8353 16.4238 10.9765C16.1367 11.1178 15.8861 11.3206 15.6719 11.5849C15.4622 11.8493 15.2982 12.166 15.1797 12.5351C15.0612 12.8997 15.002 13.3076 15.002 13.7588C15.002 14.3467 15.1523 14.8092 15.4531 15.1465C15.7539 15.4791 16.1618 15.6455 16.6768 15.6455Z" fill="white"/>
</svg>
