<svg width="24" height="24" viewBox="0 0 24 24" fill="none" xmlns="http://www.w3.org/2000/svg">
<path d="M8.97852 8.37208L6.2168 13.1709H9.8125L9.06055 8.37208H8.97852ZM10.3799 16.999L9.92188 13.9707H5.76562L4.0293 16.999H3.01074L8.82812 7.13477H9.70312L11.2959 16.999H10.3799ZM15.2881 19.7539C14.7458 19.7539 14.2627 19.665 13.8389 19.4873C13.4196 19.3141 13.0824 19.0794 12.8271 18.7832C12.5719 18.487 12.4238 18.1588 12.3828 17.7988H13.333C13.3968 18.1269 13.6064 18.4049 13.9619 18.6328C14.3219 18.8607 14.7891 18.9746 15.3633 18.9746C16.0423 18.9746 16.5915 18.8082 17.0107 18.4756C17.4346 18.1474 17.7126 17.6894 17.8447 17.1015L18.1934 15.5635H18.1113C17.8379 16.0055 17.487 16.3428 17.0586 16.5752C16.6302 16.8076 16.154 16.9238 15.6299 16.9238C15.1149 16.9238 14.6546 16.803 14.249 16.5615C13.8434 16.3154 13.5244 15.9713 13.292 15.5293C13.0596 15.0827 12.9434 14.5677 12.9434 13.9844C12.9434 13.3418 13.0368 12.7493 13.2236 12.207C13.4105 11.6601 13.6725 11.1862 14.0098 10.7851C14.347 10.3795 14.7412 10.0674 15.1924 9.84864C15.6436 9.62533 16.1312 9.51368 16.6553 9.51368C17.2432 9.51368 17.7604 9.68002 18.207 10.0127C18.6536 10.3408 18.9339 10.7669 19.0479 11.291H19.1299L19.4648 9.69825L20.3398 9.70508L18.7129 17.2724C18.5488 18.0472 18.166 18.6533 17.5645 19.0908C16.9674 19.5329 16.2087 19.7539 15.2881 19.7539ZM15.8896 16.1308C16.3044 16.1308 16.6872 16.042 17.0381 15.8642C17.389 15.6819 17.6943 15.4313 17.9541 15.1123C18.2139 14.7887 18.4144 14.4105 18.5557 13.9775C18.6969 13.5446 18.7676 13.0729 18.7676 12.5625C18.7676 11.8698 18.5785 11.3229 18.2002 10.9219C17.8265 10.5208 17.3298 10.3203 16.71 10.3203C16.3044 10.3203 15.9284 10.4092 15.582 10.5869C15.2402 10.7601 14.9417 11.0062 14.6865 11.3252C14.4313 11.6396 14.2308 12.0133 14.085 12.4463C13.9437 12.8747 13.873 13.3441 13.873 13.8545C13.873 14.5608 14.0531 15.1168 14.4131 15.5224C14.7777 15.928 15.2699 16.1308 15.8896 16.1308Z" fill="white"/>
</svg>
