<svg width="24" height="24" viewBox="0 0 24 24" fill="none" xmlns="http://www.w3.org/2000/svg">
<path d="M1.67773 16.999L6.73633 7.13477H7.03711V7.56544H6.91406L2.08105 16.999H1.67773ZM3.63281 13.581L3.7832 13.2529H10.0586L10.2158 13.581H3.63281ZM11.7744 16.999L6.94141 7.56544V7.13477H7.11914L12.1709 16.999H11.7744ZM17.6123 19.5693C16.9788 19.5693 16.4069 19.501 15.8965 19.3642C15.3861 19.2321 14.96 19.0384 14.6182 18.7832C14.2764 18.5325 14.0326 18.2317 13.8867 17.8808L13.8662 17.833H14.2627L14.2832 17.8603C14.502 18.2933 14.903 18.6328 15.4863 18.8789C16.0742 19.125 16.7852 19.248 17.6191 19.248C18.7721 19.248 19.6654 19.0042 20.2988 18.5166C20.9368 18.0289 21.2559 17.3066 21.2559 16.3496V14.7773H21.2354C21.0758 15.233 20.8184 15.6341 20.4629 15.9804C20.112 16.3222 19.6859 16.5888 19.1846 16.7802C18.6833 16.9671 18.125 17.0605 17.5098 17.0605C16.7168 17.0605 16.015 16.9033 15.4043 16.5888C14.7982 16.2744 14.3219 15.8346 13.9756 15.2695C13.6338 14.7044 13.4629 14.0482 13.4629 13.3008V13.2871C13.4629 12.5351 13.6338 11.8766 13.9756 11.3115C14.3219 10.7464 14.7982 10.3066 15.4043 9.99219C16.015 9.67774 16.7168 9.52051 17.5098 9.52051C18.1204 9.52051 18.6764 9.6185 19.1777 9.81446C19.6836 10.0104 20.1143 10.2838 20.4697 10.6347C20.8252 10.9857 21.0804 11.389 21.2354 11.8447H21.2559V9.64356H21.6113V16.3974C21.6113 17.081 21.4518 17.6575 21.1328 18.1269C20.8138 18.6009 20.3558 18.9586 19.7588 19.2002C19.1618 19.4463 18.4463 19.5693 17.6123 19.5693ZM17.5439 16.7324C18.2868 16.7324 18.9362 16.5866 19.4922 16.2949C20.0482 16.0032 20.4811 15.5999 20.791 15.0849C21.1009 14.57 21.2559 13.9798 21.2559 13.3144V13.2939C21.2559 12.624 21.0986 12.0293 20.7842 11.5097C20.4743 10.9902 20.0413 10.5823 19.4854 10.2861C18.9294 9.98992 18.2822 9.8418 17.5439 9.8418C16.8148 9.8418 16.1699 9.98536 15.6094 10.2724C15.0488 10.5595 14.609 10.9606 14.29 11.4756C13.9756 11.986 13.8184 12.5875 13.8184 13.2802V13.2939C13.8184 13.9821 13.9756 14.5836 14.29 15.0986C14.609 15.6136 15.0488 16.0146 15.6094 16.3017C16.1699 16.5888 16.8148 16.7324 17.5439 16.7324Z" fill="white"/>
</svg>
