<svg width="24" height="24" viewBox="0 0 24 24" fill="none" xmlns="http://www.w3.org/2000/svg">
<path d="M3.79688 16.999L7.48145 7.13477H8.41113L12.1025 16.999H11.1182L10.0244 13.9775H5.87499L4.78124 16.999H3.79688ZM7.90526 8.35841L6.1621 13.1709H9.73046L7.9873 8.35841H7.90526ZM16.3613 19.5693C14.6729 19.5693 13.5518 18.8174 13.3604 17.6758L13.3672 17.6689H14.3037L14.3105 17.6758C14.4746 18.3183 15.2402 18.7627 16.3613 18.7627C17.7832 18.7627 18.665 18.0381 18.665 16.8486V15.2011H18.5762C18.1387 16.1719 17.2363 16.7324 16.1084 16.7324C14.2148 16.7324 13.0049 15.249 13.0049 13.1367V13.123C13.0049 11.0176 14.2217 9.51368 16.1221 9.51368C17.2568 9.51368 18.166 10.1426 18.5898 11.1269H18.6514V9.63673H19.5605V16.9101C19.5605 18.5166 18.2959 19.5693 16.3613 19.5693ZM16.2861 15.9258C17.7627 15.9258 18.6787 14.7978 18.6787 13.1504V13.1367C18.6787 11.4892 17.7422 10.3203 16.2861 10.3203C14.8164 10.3203 13.9277 11.4756 13.9277 13.123V13.1367C13.9277 14.7842 14.8164 15.9258 16.2861 15.9258Z" fill="white"/>
</svg>
