<svg width="24" height="24" viewBox="0 0 24 24" fill="none" xmlns="http://www.w3.org/2000/svg">
<path d="M4.87695 16.999L7.24902 7.13477H8.90332V8.99415H8.32227L6.6748 16.999H4.87695ZM6.26465 14.7295L6.57227 13.3828H10.1064L10.4141 14.7295H6.26465ZM10.0107 16.999L8.36328 8.99415V7.13477H9.43652L11.8086 16.999H10.0107ZM15.7393 19.5898C15.1696 19.5898 14.6842 19.501 14.2832 19.3232C13.8867 19.1455 13.5768 18.8994 13.3535 18.5849C13.1348 18.2705 13.0026 17.9082 12.957 17.498L12.9502 17.4023H14.5635L14.5703 17.4775C14.6159 17.751 14.7367 17.9606 14.9326 18.1064C15.1331 18.2523 15.4043 18.3252 15.7461 18.3252C16.138 18.3252 16.4388 18.2249 16.6484 18.0244C16.8581 17.8284 16.9629 17.5436 16.9629 17.1699V15.707H16.9082C16.8079 15.9577 16.6712 16.1696 16.498 16.3428C16.3294 16.5159 16.1266 16.6458 15.8896 16.7324C15.6572 16.819 15.3975 16.8623 15.1104 16.8623C14.5954 16.8623 14.1556 16.721 13.791 16.4385C13.4264 16.1513 13.1484 15.7321 12.957 15.1806C12.7702 14.6247 12.6768 13.9502 12.6768 13.1572V13.1435C12.6768 12.346 12.7725 11.6715 12.9639 11.1201C13.1553 10.5687 13.431 10.1494 13.791 9.86231C14.1556 9.5752 14.5977 9.43165 15.1172 9.43165C15.4225 9.43165 15.6914 9.48178 15.9238 9.58204C16.1608 9.67774 16.3613 9.81446 16.5254 9.99219C16.6895 10.1653 16.8193 10.3681 16.915 10.6006H16.9561V9.52735H18.6514V16.8896C18.6514 17.4684 18.5374 17.9583 18.3096 18.3594C18.0817 18.765 17.7513 19.0703 17.3184 19.2754C16.8854 19.485 16.359 19.5898 15.7393 19.5898ZM15.6846 15.5224C15.9899 15.5224 16.236 15.4222 16.4229 15.2217C16.6097 15.0211 16.7464 14.7431 16.833 14.3877C16.9196 14.0322 16.9629 13.622 16.9629 13.1572V13.1435C16.9629 12.706 16.9196 12.3141 16.833 11.9678C16.7464 11.6214 16.6074 11.348 16.416 11.1474C16.2292 10.9469 15.9854 10.8467 15.6846 10.8467C15.4066 10.8467 15.1719 10.9355 14.9805 11.1133C14.7936 11.2864 14.6501 11.5439 14.5498 11.8857C14.4495 12.2275 14.3994 12.6445 14.3994 13.1367V13.1435C14.3994 13.6676 14.4473 14.1074 14.543 14.4629C14.6432 14.8138 14.7891 15.0781 14.9805 15.2558C15.1719 15.4336 15.4066 15.5224 15.6846 15.5224Z" fill="white"/>
</svg>
