<svg width="24" height="24" viewBox="0 0 24 24" fill="none" xmlns="http://www.w3.org/2000/svg">
<path d="M4.62402 17.1299C5.1709 17.1299 5.47852 16.8564 5.66992 16.2002L6.18945 14.6621H9.75098L10.2705 16.2207C10.4551 16.8633 10.7627 17.1299 11.3438 17.1299C11.9453 17.1299 12.376 16.7266 12.376 16.1592C12.376 15.9541 12.3418 15.7695 12.2461 15.5029L9.53906 8.16113C9.24512 7.35449 8.7666 6.99902 7.95996 6.99902C7.18066 6.99902 6.69531 7.36816 6.4082 8.16797L3.71484 15.5029C3.62598 15.7559 3.57812 15.9883 3.57812 16.1592C3.57812 16.7539 3.98145 17.1299 4.62402 17.1299ZM6.64062 13.0625L7.91895 9.02246H7.9668L9.27246 13.0625H6.64062ZM16.4639 19.7549C18.8223 19.7686 20.2031 18.6201 20.2031 16.7129V10.5332C20.2031 9.85645 19.7861 9.52148 19.2119 9.52148C18.6377 9.52148 18.207 9.85645 18.207 10.5332V10.9365H18.166C17.7832 10.1094 16.9834 9.55566 15.9307 9.55566C14.0439 9.55566 12.9229 10.916 12.9229 13.2129C12.9229 15.4482 14.0713 16.8428 15.8965 16.8428C16.9561 16.8428 17.8105 16.3164 18.1523 15.5303H18.1934V16.6992C18.1934 17.6152 17.5508 18.2168 16.457 18.21C15.7939 18.2031 15.2744 17.9229 14.7344 17.4102C14.5088 17.2051 14.3037 17.123 14.0439 17.123C13.5449 17.123 13.2305 17.4375 13.2305 17.8545C13.2305 18.0391 13.2715 18.2236 13.3809 18.4082C13.8525 19.1807 14.9668 19.748 16.4639 19.7549ZM16.5732 15.3594C15.582 15.3594 14.9668 14.5732 14.9668 13.2334C14.9668 11.9072 15.5889 11.0732 16.5732 11.0732C17.5713 11.0732 18.2139 11.9209 18.2139 13.2402C18.2139 14.5664 17.5713 15.3594 16.5732 15.3594Z" fill="white"/>
</svg>
