<svg width="24" height="24" viewBox="0 0 24 24" fill="none" xmlns="http://www.w3.org/2000/svg">
<path d="M10.6533 17H11.1865L9.52539 7.13574H8.99902L3.14062 17H3.75587L5.69044 13.7051H10.1133L10.6533 17ZM9.10841 7.87402H9.15625L10.0449 13.2266H5.96388L9.10841 7.87402ZM15.2607 19.6729C17.0107 19.6729 18.2617 18.7773 18.6104 17.1572L20.1826 9.79492L19.6631 9.78125L19.2598 11.6885H19.2119C19.0615 10.4102 18.0635 9.52832 16.7031 9.52832C14.584 9.52832 12.9297 11.5449 12.9297 14.0332C12.9297 15.7969 14.0098 16.9727 15.6299 16.9727C16.833 16.9727 17.8652 16.3369 18.4395 15.2705H18.4873L18.1045 17.0342C17.79 18.4902 16.7031 19.2012 15.3223 19.2012C14.0713 19.2012 13.1895 18.6543 13.0254 17.9092H12.4717C12.6152 18.9141 13.7637 19.6729 15.2607 19.6729ZM15.7529 16.4941C14.3447 16.4941 13.4697 15.5303 13.4697 13.9717C13.4697 11.8115 14.8984 10.0068 16.71 10.0068C18.0635 10.0068 18.9795 10.9365 18.9795 12.5225C18.9795 14.6621 17.667 16.4941 15.7529 16.4941Z" fill="white"/>
</svg>
