<svg width="24" height="24" viewBox="0 0 24 24" fill="none" xmlns="http://www.w3.org/2000/svg">
<path d="M8.17259 8.4322L7.33259 13.0662H9.04059L8.17259 8.4322ZM9.79659 17.0002L9.34859 14.7182H7.01059L6.56259 17.0002H4.56059L6.80059 7.2002H9.62859L11.7706 17.0002H9.79659ZM18.6715 12.4362C18.6715 13.2762 18.4102 13.8875 17.8875 14.2702C17.3648 14.6435 16.5715 14.8302 15.5075 14.8302C15.2088 14.8302 14.9335 14.8162 14.6815 14.7882C14.6255 14.9002 14.5975 15.0355 14.5975 15.1942C14.5975 15.2502 14.6068 15.3249 14.6255 15.4182C14.9242 15.3902 15.2275 15.3715 15.5355 15.3622C15.8435 15.3435 16.0908 15.3342 16.2775 15.3342C16.6975 15.3342 17.0708 15.3715 17.3975 15.4462C17.7242 15.5209 17.9995 15.6469 18.2235 15.8242C18.4568 15.9922 18.6295 16.2209 18.7415 16.5102C18.8628 16.7995 18.9235 17.1589 18.9235 17.5882C18.9235 18.0549 18.8348 18.4235 18.6575 18.6942C18.4802 18.9742 18.2422 19.1889 17.9435 19.3382C17.6448 19.4875 17.2995 19.5809 16.9075 19.6182C16.5248 19.6649 16.1188 19.6882 15.6895 19.6882C15.5122 19.6882 15.2928 19.6789 15.0315 19.6602C14.7795 19.6509 14.5228 19.6322 14.2615 19.6042C14.0002 19.5855 13.7528 19.5622 13.5195 19.5342C13.2862 19.5062 13.1042 19.4782 12.9735 19.4502V17.9382C13.1508 17.9662 13.3515 17.9942 13.5755 18.0222C13.8088 18.0595 14.0515 18.0875 14.3035 18.1062C14.5555 18.1249 14.8075 18.1389 15.0595 18.1482C15.3115 18.1669 15.5495 18.1762 15.7735 18.1762C16.2495 18.1762 16.5715 18.1249 16.7395 18.0222C16.9168 17.9195 17.0055 17.7609 17.0055 17.5462C17.0055 17.3689 16.9495 17.2195 16.8375 17.0982C16.7348 16.9769 16.5062 16.9162 16.1515 16.9162C16.0208 16.9162 15.8388 16.9209 15.6055 16.9302C15.3815 16.9395 15.1435 16.9535 14.8915 16.9722C14.6488 16.9815 14.4108 16.9955 14.1775 17.0142C13.9442 17.0329 13.7575 17.0515 13.6175 17.0702C13.4775 16.9395 13.3328 16.7389 13.1835 16.4682C13.0342 16.1882 12.9595 15.8615 12.9595 15.4882C12.9595 15.0029 13.0808 14.5969 13.3235 14.2702C13.0808 14.0649 12.8988 13.8082 12.7775 13.5002C12.6655 13.1829 12.6095 12.7909 12.6095 12.3242C12.6095 11.7829 12.7028 11.3535 12.8895 11.0362C13.0762 10.7095 13.3235 10.4622 13.6315 10.2942C13.9395 10.1169 14.2848 10.0049 14.6675 9.9582C15.0595 9.9022 15.4562 9.8742 15.8575 9.8742C16.3242 9.8742 16.7302 9.9302 17.0755 10.0422L19.3715 9.9442V11.3722L18.4755 11.3162C18.6062 11.6522 18.6715 12.0255 18.6715 12.4362ZM16.8095 12.3242C16.8095 11.9695 16.7302 11.7269 16.5715 11.5962C16.4128 11.4562 16.1282 11.3862 15.7175 11.3862C15.2135 11.3862 14.8775 11.4655 14.7095 11.6242C14.5508 11.7829 14.4715 12.0535 14.4715 12.4362C14.4715 13.0429 14.8168 13.3462 15.5075 13.3462C15.7128 13.3462 15.8948 13.3369 16.0535 13.3182C16.2215 13.2902 16.3615 13.2389 16.4735 13.1642C16.5855 13.0895 16.6695 12.9869 16.7255 12.8562C16.7815 12.7162 16.8095 12.5389 16.8095 12.3242Z" fill="white"/>
</svg>
