<svg width="24" height="24" viewBox="0 0 24 24" fill="none" xmlns="http://www.w3.org/2000/svg">
<path d="M7.50731 7.43784C7.62398 7.41917 7.76631 7.40517 7.93431 7.39584C8.10698 7.38651 8.25398 7.38184 8.37531 7.38184C8.49198 7.38184 8.63431 7.38651 8.80231 7.39584C8.97031 7.40517 9.10565 7.42151 9.20831 7.44484L12.3513 16.9088C12.244 16.9741 12.111 17.0208 11.9523 17.0488C11.7983 17.0815 11.642 17.0978 11.4833 17.0978C11.2453 17.0978 11.061 17.0441 10.9303 16.9368C10.8043 16.8295 10.6923 16.6195 10.5943 16.3068L9.05431 11.4418C8.92365 11.0358 8.79298 10.6041 8.66231 10.1468C8.53165 9.68951 8.41498 9.27651 8.31231 8.90784H8.24231C8.19565 9.11784 8.13731 9.34651 8.06731 9.59384C8.00198 9.84117 7.93665 10.0838 7.87131 10.3218C7.80598 10.5551 7.74765 10.7581 7.69631 10.9308L5.76431 17.0138C5.67098 17.0325 5.56831 17.0465 5.45631 17.0558C5.34898 17.0651 5.23698 17.0698 5.12031 17.0698C4.98965 17.0698 4.85898 17.0605 4.72831 17.0418C4.60231 17.0231 4.49031 16.9998 4.39231 16.9718L4.35031 16.8948L7.50731 7.43784ZM7.31831 14.6898C7.27631 14.6898 7.18765 14.6898 7.05231 14.6898C6.92165 14.6851 6.78865 14.6828 6.65331 14.6828C6.52265 14.6781 6.43398 14.6758 6.38731 14.6758H5.69431L6.15631 13.4648H6.76531C6.81198 13.4648 6.89365 13.4648 7.01031 13.4648C7.12698 13.4601 7.24365 13.4578 7.36031 13.4578C7.48165 13.4531 7.56331 13.4508 7.60531 13.4508H8.99831C9.04498 13.4508 9.12665 13.4531 9.24331 13.4578C9.35998 13.4578 9.47898 13.4601 9.60031 13.4648C9.72631 13.4648 9.81031 13.4648 9.85231 13.4648H10.4823L10.8813 14.6758H10.1883C10.1416 14.6758 10.0506 14.6781 9.91531 14.6828C9.77998 14.6828 9.64465 14.6851 9.50931 14.6898C9.37865 14.6898 9.28998 14.6898 9.24331 14.6898H7.31831ZM19.2462 10.7348C19.0922 10.8655 18.9872 11.0521 18.9312 11.2948C18.8799 11.5328 18.8542 11.7871 18.8542 12.0578V16.2018C18.8542 16.7385 18.8285 17.1911 18.7772 17.5598C18.7259 17.9331 18.6512 18.2458 18.5532 18.4978C18.4552 18.7545 18.3315 18.9738 18.1822 19.1558C17.9629 19.4358 17.6549 19.6598 17.2582 19.8278C16.8615 20.0005 16.3995 20.0868 15.8722 20.0868C15.4429 20.0868 15.0112 20.0401 14.5772 19.9468C14.1432 19.8535 13.7652 19.7415 13.4432 19.6108C13.4479 19.4335 13.4852 19.2398 13.5552 19.0298C13.6252 18.8198 13.7162 18.6518 13.8282 18.5258C14.1222 18.6658 14.4442 18.7731 14.7942 18.8478C15.1442 18.9271 15.4569 18.9668 15.7322 18.9668C16.2082 18.9668 16.5675 18.8781 16.8102 18.7008C17.0575 18.5281 17.2255 18.2925 17.3142 17.9938C17.4029 17.6998 17.4472 17.3731 17.4472 17.0138V11.8338C17.4472 11.3858 17.5405 10.9891 17.7272 10.6438C17.9185 10.2938 18.2429 10.0745 18.7002 9.98584C18.8169 10.0558 18.9289 10.1655 19.0362 10.3148C19.1435 10.4641 19.2135 10.6041 19.2462 10.7348ZM13.1492 13.5558C13.1492 12.7251 13.2799 12.0415 13.5412 11.5048C13.8072 10.9681 14.1455 10.5691 14.5562 10.3078C14.9669 10.0418 15.3915 9.90884 15.8302 9.90884C16.2362 9.90884 16.5885 9.96951 16.8872 10.0908C17.1859 10.2121 17.4425 10.3661 17.6572 10.5528C17.8765 10.7395 18.0632 10.9308 18.2172 11.1268L18.0212 12.3658C17.7739 11.9831 17.4705 11.6705 17.1112 11.4278C16.7565 11.1851 16.4042 11.0638 16.0542 11.0638C15.6435 11.0638 15.3029 11.2691 15.0322 11.6798C14.7615 12.0858 14.6262 12.7158 14.6262 13.5698C14.6262 14.4005 14.7475 15.0001 14.9902 15.3688C15.2375 15.7328 15.5339 15.9148 15.8792 15.9148C16.2525 15.9148 16.6095 15.7935 16.9502 15.5508C17.2955 15.3035 17.5639 14.9908 17.7552 14.6128L17.9722 15.7258C17.8462 15.9405 17.6665 16.1551 17.4332 16.3698C17.1999 16.5798 16.9245 16.7571 16.6072 16.9018C16.2945 17.0465 15.9539 17.1188 15.5852 17.1188C15.0485 17.1188 14.5982 16.9695 14.2342 16.6708C13.8749 16.3721 13.6042 15.9568 13.4222 15.4248C13.2402 14.8881 13.1492 14.2651 13.1492 13.5558Z" fill="white"/>
</svg>
