<svg width="24" height="24" viewBox="0 0 24 24" fill="none" xmlns="http://www.w3.org/2000/svg">
<path d="M6.7791 7.43816C6.92377 7.41483 7.1011 7.39849 7.3111 7.38916C7.52577 7.37516 7.7101 7.36816 7.8641 7.36816C8.01344 7.36816 8.1931 7.37516 8.4031 7.38916C8.61777 7.39849 8.7951 7.41716 8.9351 7.44516L12.0081 16.8812C11.8774 16.9559 11.7118 17.0119 11.5111 17.0492C11.3104 17.0912 11.1168 17.1122 10.9301 17.1122C10.6314 17.1122 10.3981 17.0445 10.2301 16.9092C10.0668 16.7692 9.92677 16.5009 9.8101 16.1042L8.5431 11.9182C8.42644 11.5169 8.2981 11.0689 8.1581 10.5742C8.02277 10.0795 7.90143 9.62449 7.7941 9.20916H7.7101C7.66344 9.44249 7.60277 9.70149 7.5281 9.98616C7.4581 10.2662 7.38344 10.5462 7.3041 10.8262C7.22944 11.1015 7.16177 11.3465 7.1011 11.5612L5.4281 17.0142C5.31143 17.0422 5.18543 17.0609 5.0501 17.0702C4.91477 17.0795 4.77243 17.0842 4.6231 17.0842C4.47377 17.0842 4.31277 17.0725 4.1401 17.0492C3.96743 17.0259 3.8251 16.9955 3.7131 16.9582L3.6501 16.8602L6.7791 7.43816ZM6.7721 14.8512C6.7161 14.8512 6.63443 14.8512 6.5271 14.8512C6.41977 14.8465 6.3101 14.8442 6.1981 14.8442C6.09077 14.8395 6.0091 14.8372 5.9531 14.8372H5.0081L5.5821 13.3532H6.4151C6.4711 13.3532 6.5481 13.3532 6.6461 13.3532C6.74877 13.3485 6.8491 13.3462 6.9471 13.3462C7.04977 13.3415 7.12677 13.3392 7.1781 13.3392H8.3821C8.44277 13.3392 8.5221 13.3415 8.6201 13.3462C8.7181 13.3462 8.81844 13.3485 8.9211 13.3532C9.02377 13.3532 9.1031 13.3532 9.1591 13.3532H10.0201L10.5031 14.8372H9.5581C9.5021 14.8372 9.4181 14.8395 9.3061 14.8442C9.19877 14.8442 9.0891 14.8465 8.9771 14.8512C8.86977 14.8512 8.7881 14.8512 8.7321 14.8512H6.7721ZM18.9967 10.8822C18.8661 10.9895 18.7681 11.1505 18.7027 11.3652C18.6374 11.5752 18.6047 11.8015 18.6047 12.0442V15.9572C18.6047 16.5545 18.5767 17.0515 18.5207 17.4482C18.4694 17.8495 18.3924 18.1809 18.2897 18.4422C18.1871 18.7035 18.0611 18.9275 17.9117 19.1142C17.6644 19.4315 17.3261 19.6719 16.8967 19.8352C16.4674 20.0032 15.9797 20.0872 15.4337 20.0872C14.9997 20.0872 14.5541 20.0429 14.0967 19.9542C13.6441 19.8655 13.2474 19.7559 12.9067 19.6252C12.9067 19.4059 12.9487 19.1655 13.0327 18.9042C13.1214 18.6429 13.2334 18.4352 13.3687 18.2812C13.6627 18.4165 13.9777 18.5215 14.3137 18.5962C14.6544 18.6709 14.9717 18.7082 15.2657 18.7082C15.6717 18.7082 15.9867 18.6359 16.2107 18.4912C16.4394 18.3465 16.5981 18.1459 16.6867 17.8892C16.7801 17.6372 16.8267 17.3525 16.8267 17.0352V11.9182C16.8267 11.4002 16.9527 10.9545 17.2047 10.5812C17.4567 10.2032 17.8534 9.99083 18.3947 9.94416C18.5207 10.0282 18.6444 10.1659 18.7657 10.3572C18.8917 10.5439 18.9687 10.7189 18.9967 10.8822ZM12.6267 13.5352C12.6267 12.7232 12.7551 12.0442 13.0117 11.4982C13.2731 10.9522 13.6114 10.5415 14.0267 10.2662C14.4467 9.99083 14.8947 9.85316 15.3707 9.85316C15.8047 9.85316 16.1757 9.92316 16.4837 10.0632C16.7917 10.1985 17.0531 10.3665 17.2677 10.5672C17.4824 10.7679 17.6574 10.9685 17.7927 11.1692L17.5127 12.6882C17.2561 12.2402 16.9597 11.8902 16.6237 11.6382C16.2924 11.3815 15.9774 11.2532 15.6787 11.2532C15.3007 11.2532 15.0091 11.4492 14.8037 11.8412C14.5984 12.2332 14.4957 12.8025 14.4957 13.5492C14.4957 14.2865 14.5937 14.8209 14.7897 15.1522C14.9904 15.4789 15.2354 15.6422 15.5247 15.6422C15.8514 15.6422 16.1664 15.5349 16.4697 15.3202C16.7731 15.1009 17.0204 14.8022 17.2117 14.4242L17.4707 15.7472C17.3307 15.9852 17.1417 16.2092 16.9037 16.4192C16.6657 16.6292 16.3927 16.8019 16.0847 16.9372C15.7767 17.0679 15.4501 17.1332 15.1047 17.1332C14.5494 17.1332 14.0874 16.9815 13.7187 16.6782C13.3501 16.3749 13.0747 15.9525 12.8927 15.4112C12.7154 14.8699 12.6267 14.2445 12.6267 13.5352Z" fill="white"/>
</svg>
