<svg width="24" height="24" viewBox="0 0 24 24" fill="none" xmlns="http://www.w3.org/2000/svg">
<path d="M9.22461 7.14258L12.0479 16.3027L13.21 16.6104L13.1963 17C12.9639 16.9727 12.7132 16.9521 12.4443 16.9385C12.1755 16.9248 11.8997 16.918 11.6172 16.918C11.3164 16.918 11.0202 16.9248 10.7285 16.9385C10.4414 16.9521 10.168 16.9727 9.9082 17L9.92188 16.6104L10.8926 16.5215L10.1064 13.6846H9.83984C9.71224 13.6846 9.54818 13.6868 9.34766 13.6914C9.14714 13.6914 8.91927 13.696 8.66406 13.7051C8.41341 13.7142 8.14225 13.7279 7.85059 13.7461C7.55892 13.7643 7.26042 13.7894 6.95508 13.8213L6.07324 16.3027L7.19434 16.6104L7.18066 17C6.93457 16.9727 6.69759 16.9499 6.46973 16.9316C6.24642 16.9134 6.01172 16.9043 5.76562 16.9043C5.51953 16.9043 5.26204 16.9134 4.99316 16.9316C4.72884 16.9499 4.4349 16.9727 4.11133 17L4.125 16.6104C4.25716 16.5967 4.38249 16.583 4.50098 16.5693C4.60579 16.5602 4.71061 16.5511 4.81543 16.542C4.9248 16.5329 5.01367 16.526 5.08203 16.5215C5.26888 16.1296 5.46257 15.7012 5.66309 15.2363C5.86816 14.7715 6.07552 14.2839 6.28516 13.7734C6.49479 13.263 6.70443 12.7344 6.91406 12.1875C7.12826 11.6406 7.33789 11.0915 7.54297 10.54C7.74805 9.98861 7.94629 9.43945 8.1377 8.89258C8.3291 8.3457 8.50911 7.81478 8.67773 7.2998L9.22461 7.14258ZM8.62305 9.00879L7.18066 13.2061H9.96289L8.81445 9.00879H8.62305ZM13.5791 16.9043C13.5609 16.7995 13.5495 16.6947 13.5449 16.5898C13.5449 16.485 13.5449 16.3802 13.5449 16.2754C13.5449 15.8424 13.5882 15.4095 13.6748 14.9766C13.7614 14.5391 13.8822 14.1221 14.0371 13.7256C14.1921 13.3245 14.3789 12.9508 14.5977 12.6045C14.8164 12.2536 15.0602 11.9505 15.3291 11.6953C15.598 11.4401 15.8851 11.2396 16.1904 11.0938C16.4958 10.9434 16.8148 10.8682 17.1475 10.8682C17.3206 10.8682 17.4756 10.875 17.6123 10.8887C17.749 10.8978 17.8743 10.9115 17.9883 10.9297C18.1022 10.9479 18.2093 10.9684 18.3096 10.9912C18.4098 11.014 18.5124 11.0391 18.6172 11.0664C18.5671 11.5996 18.5283 12.1237 18.501 12.6387C18.4782 13.1536 18.4577 13.6572 18.4395 14.1494C18.4258 14.6416 18.4144 15.1224 18.4053 15.5918C18.3962 16.0566 18.3825 16.5078 18.3643 16.9453C18.3141 18.2122 17.9997 19.1579 17.4209 19.7822C16.8421 20.4111 16.0264 20.7256 14.9736 20.7256C14.887 20.7256 14.7891 20.721 14.6797 20.7119C14.5703 20.7074 14.4587 20.6982 14.3447 20.6846C14.2308 20.6709 14.1169 20.6549 14.0029 20.6367C13.889 20.6185 13.7842 20.598 13.6885 20.5752L13.7158 19.5225C13.9209 19.5863 14.1374 19.6432 14.3652 19.6934C14.5977 19.7435 14.8301 19.7845 15.0625 19.8164C15.2949 19.8529 15.5182 19.8802 15.7324 19.8984C15.9512 19.9167 16.1471 19.9258 16.3203 19.9258C16.4115 19.9258 16.4935 19.9235 16.5664 19.9189C16.6439 19.9144 16.7122 19.9076 16.7715 19.8984C16.9082 19.7845 17.0199 19.6022 17.1064 19.3516C17.1976 19.1009 17.2682 18.8092 17.3184 18.4766C17.373 18.1439 17.4141 17.7861 17.4414 17.4033C17.4688 17.0205 17.487 16.6354 17.4961 16.248C17.5098 15.8607 17.5189 15.4893 17.5234 15.1338C17.528 14.7738 17.5371 14.4525 17.5508 14.1699L17.4414 14.1426C17.2591 14.5026 17.0449 14.849 16.7988 15.1816C16.5573 15.5143 16.2975 15.8151 16.0195 16.084C15.7415 16.3483 15.4544 16.5739 15.1582 16.7607C14.8665 16.943 14.5817 17.0684 14.3037 17.1367L13.5791 16.9043ZM17.6396 11.7227C17.4984 11.6816 17.3389 11.6429 17.1611 11.6064C16.9834 11.57 16.8148 11.5518 16.6553 11.5518C16.3044 11.5518 15.9967 11.6543 15.7324 11.8594C15.4681 12.0599 15.2471 12.3402 15.0693 12.7002C14.8962 13.0557 14.764 13.4772 14.6729 13.9648C14.5863 14.4525 14.543 14.9788 14.543 15.5439C14.543 15.6624 14.5452 15.7855 14.5498 15.9131C14.5544 16.0361 14.5612 16.1615 14.5703 16.2891C14.707 16.2708 14.8734 16.2139 15.0693 16.1182C15.2699 16.0179 15.4772 15.8835 15.6914 15.7148C15.9102 15.5417 16.1289 15.3366 16.3477 15.0996C16.5664 14.8581 16.7646 14.5869 16.9424 14.2861C17.1201 13.9854 17.2682 13.6572 17.3867 13.3018C17.5098 12.9463 17.5827 12.568 17.6055 12.167L17.6396 11.7227Z" fill="white"/>
</svg>
