<svg width="24" height="24" viewBox="0 0 24 24" fill="none" xmlns="http://www.w3.org/2000/svg">
<path d="M6.34437 13.4802C6.39104 13.4802 6.49371 13.4662 6.65238 13.4382C6.81104 13.4009 7.01171 13.3542 7.25438 13.2982L7.36638 13.1302C7.52504 12.8782 7.72571 12.5749 7.96838 12.2202C8.21104 11.8655 8.46771 11.4922 8.73838 11.1002C9.01838 10.7082 9.29838 10.3115 9.57838 9.91019C9.85838 9.50886 10.1197 9.12619 10.3624 8.76219C10.3437 8.57552 10.3297 8.39819 10.3204 8.23019C10.311 8.06219 10.3064 7.89886 10.3064 7.74019C10.3064 7.45086 10.3204 7.20819 10.3484 7.01219C10.3857 6.80686 10.437 6.66686 10.5024 6.59219C10.7077 6.35886 10.9224 6.24219 11.1464 6.24219C11.389 6.24219 11.5664 6.38219 11.6784 6.66219C11.7624 6.87686 11.7297 7.16152 11.5804 7.51619C11.4404 7.87086 11.1744 8.35152 10.7824 8.95819C10.829 9.31286 10.8944 9.69086 10.9784 10.0922C11.0717 10.4935 11.1837 10.9089 11.3144 11.3382C11.361 11.5155 11.4124 11.6929 11.4684 11.8702C11.5244 12.0475 11.585 12.2249 11.6504 12.4022C12.089 12.3275 12.4577 12.2809 12.7564 12.2622C13.055 12.2435 13.2417 12.2669 13.3164 12.3322C13.4004 12.4162 13.4564 12.4909 13.4844 12.5562C13.5217 12.6122 13.5404 12.6635 13.5404 12.7102C13.5404 12.8129 13.475 12.8689 13.3444 12.8782C13.223 12.8875 13.111 12.8642 13.0084 12.8082C12.9617 12.7895 12.831 12.7895 12.6164 12.8082C12.411 12.8175 12.1497 12.8409 11.8324 12.8782C12.0004 13.3169 12.173 13.7369 12.3504 14.1382C12.5277 14.5302 12.705 14.8802 12.8824 15.1882C13.0597 15.4962 13.223 15.7529 13.3724 15.9582C13.531 16.1542 13.671 16.2709 13.7924 16.3082C13.9044 16.3455 13.9697 16.3875 13.9884 16.4342C14.0164 16.4902 14.0024 16.5322 13.9464 16.5602C13.8997 16.5975 13.825 16.6209 13.7224 16.6302C13.6197 16.6489 13.4984 16.6395 13.3584 16.6022C13.125 16.5462 12.9104 16.3969 12.7144 16.1542C12.5277 15.9209 12.3504 15.6362 12.1824 15.3002C12.0144 14.9642 11.8557 14.5909 11.7064 14.1802C11.5664 13.7695 11.431 13.3589 11.3004 12.9482C11.0297 12.9855 10.745 13.0275 10.4464 13.0742C10.1477 13.1209 9.84904 13.1722 9.55038 13.2282C9.25171 13.2749 8.95771 13.3215 8.66838 13.3682C8.37904 13.4149 8.11304 13.4615 7.87038 13.5082C7.65571 13.8909 7.45971 14.2549 7.28238 14.6002C7.11438 14.9362 6.96971 15.2442 6.84838 15.5242C6.73638 15.7949 6.65238 16.0235 6.59638 16.2102C6.54971 16.4062 6.54038 16.5462 6.56838 16.6302C6.59638 16.6955 6.58704 16.7469 6.54038 16.7842C6.50304 16.8215 6.45171 16.8355 6.38637 16.8262C6.31171 16.8262 6.23704 16.8029 6.16237 16.7562C6.07837 16.7095 6.01304 16.6395 5.96637 16.5462C5.91037 16.4342 5.88237 16.3035 5.88237 16.1542C5.88237 15.8462 5.98971 15.4915 6.20437 15.0902C6.41904 14.6795 6.68504 14.2129 7.00238 13.6902C6.90904 13.7089 6.82971 13.7275 6.76438 13.7462C6.70838 13.7649 6.67104 13.7789 6.65238 13.7882C6.55904 13.8349 6.47504 13.8489 6.40037 13.8302C6.32571 13.8022 6.26971 13.7649 6.23237 13.7182C6.19504 13.6622 6.18571 13.6109 6.20437 13.5642C6.21371 13.5082 6.26037 13.4802 6.34437 13.4802ZM9.92838 10.2322C9.60171 10.7082 9.27971 11.1889 8.96238 11.6742C8.65438 12.1595 8.36504 12.6402 8.09438 13.1162C8.57038 13.0135 9.07438 12.9062 9.60638 12.7942C10.1384 12.6729 10.6517 12.5702 11.1464 12.4862L11.1044 12.3322C10.9457 11.8562 10.815 11.3755 10.7124 10.8902C10.6097 10.3955 10.521 9.91952 10.4464 9.46219L9.92838 10.2322ZM10.7404 6.85819C10.6844 7.01686 10.6564 7.25486 10.6564 7.57219C10.6564 7.78686 10.6704 8.02019 10.6984 8.27219C10.9037 7.95486 11.0717 7.68419 11.2024 7.46019C11.333 7.22686 11.4077 7.06819 11.4264 6.98419C11.445 6.82552 11.4217 6.70419 11.3564 6.62019C11.291 6.53619 11.2117 6.49419 11.1184 6.49419C11.0437 6.49419 10.9737 6.52219 10.9084 6.57819C10.843 6.63419 10.787 6.72752 10.7404 6.85819ZM17.3743 17.6382C17.477 17.4515 17.547 17.2322 17.5843 16.9802C17.6216 16.7375 17.6403 16.4809 17.6403 16.2102C17.6403 15.7529 17.6076 15.2909 17.5423 14.8242C17.477 14.3482 17.421 13.9282 17.3743 13.5642C17.2903 13.7882 17.1783 14.0075 17.0383 14.2222C16.9076 14.4369 16.763 14.6375 16.6043 14.8242C16.4456 15.0109 16.273 15.1742 16.0863 15.3142C15.8996 15.4542 15.713 15.5615 15.5263 15.6362C15.3676 15.6922 15.2323 15.7202 15.1203 15.7202C14.831 15.7202 14.6303 15.5802 14.5183 15.3002C14.4156 15.0109 14.3876 14.6422 14.4343 14.1942C14.4623 13.9609 14.5183 13.6949 14.6023 13.3962C14.6863 13.0975 14.803 12.8082 14.9523 12.5282C15.1016 12.2389 15.2836 11.9682 15.4983 11.7162C15.713 11.4642 15.9696 11.2635 16.2683 11.1142C16.4643 11.0115 16.665 10.9602 16.8703 10.9602C17.0383 10.9602 17.1876 10.9929 17.3183 11.0582C17.449 11.1235 17.5516 11.2122 17.6263 11.3242C17.701 11.4269 17.743 11.5435 17.7523 11.6742C17.771 11.8049 17.743 11.9355 17.6683 12.0662C17.5283 12.3089 17.4303 12.4255 17.3743 12.4162C17.3183 12.4069 17.3276 12.2809 17.4023 12.0382C17.4583 11.8422 17.4536 11.6835 17.3883 11.5622C17.323 11.4409 17.211 11.3802 17.0523 11.3802C16.903 11.3802 16.7303 11.4455 16.5343 11.5762C16.3383 11.6975 16.1283 11.9029 15.9043 12.1922C15.7736 12.3602 15.657 12.5515 15.5543 12.7662C15.461 12.9809 15.377 13.1955 15.3023 13.4102C15.237 13.6249 15.1856 13.8395 15.1483 14.0542C15.1203 14.2689 15.1063 14.4602 15.1063 14.6282C15.1063 14.8709 15.139 15.0575 15.2043 15.1882C15.2696 15.3189 15.377 15.3515 15.5263 15.2862C15.6943 15.2115 15.8763 15.0855 16.0723 14.9082C16.2683 14.7215 16.4503 14.5209 16.6183 14.3062C16.7956 14.0822 16.9496 13.8535 17.0803 13.6202C17.211 13.3775 17.295 13.1629 17.3323 12.9762C17.3323 12.8455 17.351 12.7475 17.3883 12.6822C17.435 12.5889 17.505 12.5002 17.5983 12.4162C17.6916 12.3322 17.785 12.2669 17.8783 12.2202C17.9716 12.1735 18.0463 12.1502 18.1023 12.1502C18.1583 12.1502 18.1676 12.1922 18.1303 12.2762C18.0836 12.3882 18.051 12.5095 18.0323 12.6402C18.0136 12.7709 18.0043 12.9109 18.0043 13.0602C18.0043 13.2749 18.0183 13.5035 18.0463 13.7462C18.0743 13.9795 18.107 14.2222 18.1443 14.4742C18.1816 14.7262 18.2143 14.9829 18.2423 15.2442C18.2703 15.5055 18.2843 15.7622 18.2843 16.0142C18.2843 16.3129 18.2516 16.6069 18.1863 16.8962C18.1303 17.1855 18.023 17.4562 17.8643 17.7082C17.6683 18.0162 17.393 18.2402 17.0383 18.3802C16.693 18.5202 16.343 18.5902 15.9883 18.5902C15.783 18.5902 15.587 18.5669 15.4003 18.5202C15.2136 18.4829 15.0456 18.4222 14.8963 18.3382C14.7563 18.2542 14.6396 18.1515 14.5463 18.0302C14.4623 17.9182 14.4156 17.7875 14.4063 17.6382C14.397 17.4609 14.4296 17.3069 14.5043 17.1762C14.5883 17.0455 14.691 16.9382 14.8123 16.8542C14.943 16.7702 15.0876 16.7095 15.2463 16.6722C15.405 16.6349 15.559 16.6162 15.7083 16.6162C15.8576 16.6162 15.993 16.6302 16.1143 16.6582C16.2356 16.6955 16.3196 16.7469 16.3663 16.8122C16.441 16.9149 16.4503 16.9709 16.3943 16.9802C16.3476 16.9989 16.2823 16.9755 16.1983 16.9102C16.1423 16.8729 16.049 16.8495 15.9183 16.8402C15.7876 16.8309 15.6523 16.8495 15.5123 16.8962C15.3723 16.9429 15.2463 17.0222 15.1343 17.1342C15.0316 17.2462 14.9756 17.4049 14.9663 17.6102C14.9663 17.7222 14.9943 17.8202 15.0503 17.9042C15.1156 17.9975 15.1996 18.0769 15.3023 18.1422C15.4143 18.2169 15.5403 18.2729 15.6803 18.3102C15.8203 18.3475 15.965 18.3662 16.1143 18.3662C16.357 18.3662 16.595 18.3102 16.8283 18.1982C17.0616 18.0862 17.2436 17.8995 17.3743 17.6382Z" fill="white"/>
</svg>
