<svg width="24" height="24" viewBox="0 0 24 24" fill="none" xmlns="http://www.w3.org/2000/svg">
<path d="M6.49713 16.0003L8.34513 7.32031H9.10113L10.9211 16.0003H10.6271L10.1511 13.7603L10.2491 13.8443H7.16913L7.25313 13.7603L6.79113 16.0003H6.49713ZM7.25313 13.6623L7.21113 13.6063H10.2071L10.1511 13.6623L8.90513 7.62831L8.87713 7.61431H8.56913L8.54113 7.62831L7.25313 13.6623ZM12.9681 18.3803L12.9121 18.1563H14.9001C15.1801 18.1563 15.3621 18.0816 15.4461 17.9323C15.5301 17.783 15.5721 17.559 15.5721 17.2603V9.65831H13.3461C13.0288 9.65831 12.8094 9.70031 12.6881 9.78431C12.5668 9.85898 12.4968 9.98964 12.4781 10.1763C12.4688 10.3536 12.4641 10.6056 12.4641 10.9323V14.5583C12.4641 14.885 12.4781 15.137 12.5061 15.3143C12.5341 15.4823 12.5994 15.599 12.7021 15.6643C12.8141 15.7296 12.9868 15.7623 13.2201 15.7623H15.0401L14.9841 16.0003H13.1501C12.8328 16.0003 12.6041 15.9583 12.4641 15.8743C12.3334 15.7903 12.2541 15.6223 12.2261 15.3703C12.1981 15.1183 12.1841 14.745 12.1841 14.2503V10.5823C12.1841 10.2183 12.2168 9.95698 12.2821 9.79831C12.3474 9.63031 12.4828 9.52764 12.6881 9.49031C12.8934 9.44364 13.2061 9.42031 13.6261 9.42031H15.8521V17.3023C15.8521 17.7036 15.7821 17.9836 15.6421 18.1423C15.5114 18.301 15.2688 18.3803 14.9141 18.3803H12.9681Z" fill="white"/>
</svg>
