<svg width="24" height="24" viewBox="0 0 24 24" fill="none" xmlns="http://www.w3.org/2000/svg">
<path d="M6.51205 16.0003L8.30405 7.32031H10.2361L12.0281 16.0003H10.0821L9.74605 14.2363L10.0401 14.5023H8.43005L8.66805 14.2363L8.38805 16.0003H6.51205ZM8.73805 13.2283L8.58405 13.0323H9.94205L9.71805 13.2283L9.29805 9.84031L9.28405 9.50431H9.21405L9.20005 9.84031L8.73805 13.2283ZM13.0852 18.5063L12.8612 17.0503H14.7092C14.9332 17.0503 15.0825 16.999 15.1572 16.8963C15.2318 16.803 15.2692 16.621 15.2692 16.3503V10.8763H14.6392C14.5272 10.8763 14.4385 10.895 14.3732 10.9323C14.3172 10.9696 14.2752 11.0256 14.2472 11.1003C14.2285 11.175 14.2192 11.2776 14.2192 11.4083V13.9423C14.2192 14.129 14.2332 14.2643 14.2612 14.3483C14.2892 14.4323 14.3312 14.4883 14.3872 14.5163C14.4525 14.535 14.5412 14.5443 14.6532 14.5443H15.0592L14.8772 16.0003H13.6172C13.2345 16.0003 12.9592 15.9396 12.7912 15.8183C12.6232 15.697 12.5158 15.501 12.4692 15.2303C12.4225 14.9503 12.3992 14.591 12.3992 14.1523V11.1003C12.3992 10.7363 12.4505 10.433 12.5532 10.1903C12.6558 9.93831 12.8285 9.74698 13.0712 9.61631C13.3138 9.48564 13.6452 9.42031 14.0652 9.42031H17.0892V16.8403C17.0892 17.363 16.9725 17.769 16.7392 18.0583C16.5152 18.357 16.1045 18.5063 15.5072 18.5063H13.0852Z" fill="white"/>
</svg>
