<svg width="24" height="24" viewBox="0 0 24 24" fill="none" xmlns="http://www.w3.org/2000/svg">
<path d="M6.21292 16.0003L8.03292 7.32031H9.47492L11.2669 16.0003H10.0209L9.62892 14.0403L9.83892 14.2363H7.61292L7.79492 14.0403L7.43092 16.0003H6.21292ZM7.83692 13.4103L7.72492 13.2703H9.76892L9.60092 13.4103L8.84492 8.91631L8.81692 8.72031H8.66292L8.63492 8.91631L7.83692 13.4103ZM12.7343 18.4503L12.5803 17.5123H14.4983C14.741 17.5123 14.8996 17.4516 14.9743 17.3303C15.0583 17.2183 15.1003 17.0176 15.1003 16.7283V10.3723H13.8123C13.607 10.3723 13.4623 10.4003 13.3783 10.4563C13.2943 10.503 13.243 10.587 13.2243 10.7083C13.2056 10.8296 13.1963 10.9976 13.1963 11.2123V14.1943C13.1963 14.4463 13.2103 14.633 13.2383 14.7543C13.2663 14.8756 13.3176 14.955 13.3923 14.9923C13.4763 15.0296 13.5976 15.0483 13.7563 15.0483H14.7503L14.6383 16.0003H13.1263C12.7716 16.0003 12.515 15.949 12.3563 15.8463C12.207 15.7343 12.1136 15.5476 12.0763 15.2863C12.039 15.025 12.0203 14.661 12.0203 14.1943V10.8903C12.0203 10.5263 12.0623 10.237 12.1463 10.0223C12.2303 9.80764 12.3843 9.65364 12.6083 9.56031C12.8416 9.46698 13.1683 9.42031 13.5883 9.42031H16.2763V17.0363C16.2763 17.503 16.1783 17.853 15.9823 18.0863C15.7956 18.329 15.4596 18.4503 14.9743 18.4503H12.7343Z" fill="white"/>
</svg>
