<svg width="24" height="24" viewBox="0 0 24 24" fill="none" xmlns="http://www.w3.org/2000/svg">
<path d="M4.11095 16.0001C4.06428 16.0001 4.03628 15.9861 4.02695 15.9581C4.00828 15.9301 4.00828 15.8928 4.02695 15.8461L8.42295 6.98408C8.46961 6.88141 8.52561 6.83008 8.59095 6.83008H10.0889C10.1729 6.83008 10.2243 6.88141 10.2429 6.98408L11.8669 15.8321C11.8763 15.8881 11.8669 15.9301 11.8389 15.9581C11.8203 15.9861 11.7829 16.0001 11.7269 16.0001H10.5509C10.4669 16.0001 10.4156 15.9488 10.3969 15.8461L9.48695 10.1481C9.43095 9.81208 9.37495 9.47141 9.31895 9.12608C9.26295 8.77141 9.21628 8.42141 9.17895 8.07608H9.15095C9.00161 8.42141 8.84761 8.76208 8.68895 9.09808C8.53028 9.43408 8.36695 9.77941 8.19895 10.1341L5.48295 15.8461C5.46428 15.8928 5.43628 15.9301 5.39895 15.9581C5.37095 15.9861 5.33361 16.0001 5.28695 16.0001H4.11095ZM6.15495 13.9561L6.63095 12.7661H10.2009L10.3269 13.9561H6.15495ZM16.3016 8.97208C16.8242 8.97208 17.3096 9.02341 17.7576 9.12608C18.2149 9.21941 18.7142 9.28475 19.2556 9.32208L18.1776 16.0841C18.0936 16.6628 17.9302 17.1481 17.6876 17.5401C17.4449 17.9414 17.1042 18.2448 16.6656 18.4501C16.2269 18.6554 15.6622 18.7581 14.9716 18.7581C14.4022 18.7581 13.9262 18.6788 13.5436 18.5201C13.1702 18.3614 12.9042 18.1328 12.7456 17.8341C12.5962 17.5448 12.5682 17.2041 12.6616 16.8121C12.6896 16.7188 12.7502 16.6721 12.8436 16.6721H13.8656C13.9682 16.6721 14.0149 16.7188 14.0056 16.8121C13.9776 17.0828 14.0522 17.2741 14.2296 17.3861C14.4162 17.5074 14.7149 17.5681 15.1256 17.5681C15.6389 17.5681 16.0262 17.4514 16.2876 17.2181C16.5582 16.9848 16.7356 16.6208 16.8196 16.1261L17.0296 14.7961C16.6002 15.1228 16.1896 15.3654 15.7976 15.5241C15.4149 15.6828 15.0182 15.7621 14.6076 15.7621C13.9262 15.7621 13.4456 15.5474 13.1656 15.1181C12.8949 14.6888 12.8296 14.0448 12.9696 13.1861L13.2356 11.5901C13.3662 10.7314 13.6696 10.0828 14.1456 9.64408C14.6216 9.19608 15.3402 8.97208 16.3016 8.97208ZM15.1816 14.5441C15.4802 14.5441 15.7836 14.4741 16.0916 14.3341C16.3996 14.1848 16.7729 13.9374 17.2116 13.5921L17.7436 10.3161C17.5289 10.2694 17.2816 10.2321 17.0016 10.2041C16.7216 10.1761 16.4836 10.1621 16.2876 10.1621C15.7742 10.1621 15.3822 10.2928 15.1116 10.5541C14.8409 10.8061 14.6542 11.2261 14.5516 11.8141L14.3556 13.0461C14.2716 13.5688 14.2949 13.9514 14.4256 14.1941C14.5656 14.4274 14.8176 14.5441 15.1816 14.5441Z" fill="white"/>
</svg>
