<svg width="24" height="24" viewBox="0 0 24 24" fill="none" xmlns="http://www.w3.org/2000/svg">
<path d="M4.84534 16.0001C4.836 16.0001 4.82667 15.9954 4.81734 15.9861C4.808 15.9768 4.808 15.9628 4.81734 15.9441L9.57734 6.90008C9.596 6.85341 9.624 6.83008 9.66134 6.83008H9.99734C10.0253 6.83008 10.044 6.84875 10.0533 6.88608L11.9573 15.9301C11.9667 15.9581 11.962 15.9768 11.9433 15.9861C11.934 15.9954 11.92 16.0001 11.9013 16.0001H11.6913C11.6633 16.0001 11.6447 15.9814 11.6353 15.9441L10.0673 8.48208C10.03 8.25808 9.988 8.03875 9.94134 7.82408C9.89467 7.60008 9.848 7.36675 9.80134 7.12408H9.78734C9.67534 7.35741 9.55867 7.59075 9.43734 7.82408C9.32534 8.05741 9.204 8.29075 9.07334 8.52408L5.15334 15.9581C5.144 15.9674 5.13467 15.9768 5.12534 15.9861C5.12534 15.9954 5.11134 16.0001 5.08334 16.0001H4.84534ZM6.39934 13.3821L6.56734 13.0741H11.1033L11.1593 13.3821H6.39934ZM16.7752 9.12608C17.1952 9.12608 17.6012 9.16808 17.9932 9.25208C18.3945 9.33608 18.8192 9.42475 19.2672 9.51808L18.1472 16.5321C18.0632 17.1014 17.9045 17.5448 17.6712 17.8621C17.4379 18.1888 17.1252 18.4174 16.7332 18.5481C16.3505 18.6881 15.8745 18.7581 15.3052 18.7581C14.8012 18.7581 14.3952 18.6881 14.0872 18.5481C13.7792 18.4174 13.5645 18.2168 13.4432 17.9461C13.3312 17.6754 13.3032 17.3441 13.3592 16.9521C13.3685 16.9054 13.3872 16.8821 13.4152 16.8821H13.6252C13.6625 16.8821 13.6765 16.9101 13.6672 16.9661C13.6112 17.4608 13.7045 17.8294 13.9472 18.0721C14.1992 18.3241 14.6705 18.4501 15.3612 18.4501C16.0799 18.4501 16.6399 18.3148 17.0412 18.0441C17.4519 17.7734 17.7179 17.2648 17.8392 16.5181L18.2452 13.9701C17.7319 14.4181 17.2279 14.7868 16.7332 15.0761C16.2479 15.3654 15.7345 15.5101 15.1932 15.5101C14.5679 15.5101 14.1152 15.3141 13.8352 14.9221C13.5645 14.5208 13.4945 13.9281 13.6252 13.1441L13.9052 11.3941C14.0359 10.5728 14.3579 9.98941 14.8712 9.64408C15.3845 9.29875 16.0192 9.12608 16.7752 9.12608ZM15.2352 15.2021C15.7392 15.2021 16.2385 15.0528 16.7332 14.7541C17.2279 14.4461 17.7552 14.0494 18.3152 13.5641L18.9172 9.77008C18.5532 9.67675 18.1892 9.59741 17.8252 9.53208C17.4612 9.46675 17.1065 9.43408 16.7612 9.43408C16.1079 9.43408 15.5525 9.58341 15.0952 9.88208C14.6379 10.1714 14.3439 10.6988 14.2132 11.4641L13.9472 13.1441C13.8259 13.8441 13.8772 14.3621 14.1012 14.6981C14.3252 15.0341 14.7032 15.2021 15.2352 15.2021Z" fill="white"/>
</svg>
