<svg width="24" height="24" viewBox="0 0 24 24" fill="none" xmlns="http://www.w3.org/2000/svg">
<path d="M10.3155 15.9995L10.0215 13.6895H6.40945L5.14945 15.9995H3.07745L8.71945 6.35352H10.8195L12.3595 15.9995H10.3155ZM7.33345 11.9955H9.78345L9.32145 8.36952L7.33345 11.9955ZM19.4769 9.47552H21.3109L20.1069 15.1035C19.8176 16.4942 19.2669 17.5395 18.4549 18.2395C17.6523 18.9395 16.6583 19.2895 15.4729 19.2895C14.7729 19.2895 14.1756 19.1075 13.6809 18.7435C13.1863 18.3888 12.8643 17.9082 12.7149 17.3015L14.3809 16.6435C14.4556 16.9422 14.6236 17.1848 14.8849 17.3715C15.1556 17.5582 15.4636 17.6515 15.8089 17.6515C17.0876 17.6515 17.8949 16.8675 18.2309 15.2995L18.2589 15.2015C17.9696 15.5002 17.6103 15.7288 17.1809 15.8875C16.7609 16.0462 16.3549 16.1255 15.9629 16.1255C15.0856 16.1255 14.3949 15.8128 13.8909 15.1875C13.3963 14.5622 13.2563 13.7408 13.4709 12.7235C13.6856 11.7062 14.1756 10.8848 14.9409 10.2595C15.7063 9.63419 16.5276 9.32152 17.4049 9.32152C17.8063 9.32152 18.1796 9.40085 18.5249 9.55952C18.8796 9.71819 19.1409 9.94685 19.3089 10.2455L19.4769 9.47552ZM16.6769 14.4175C17.1343 14.4175 17.5636 14.2588 17.9649 13.9415C18.3663 13.6148 18.6183 13.2088 18.7209 12.7235C18.8329 12.2382 18.7489 11.8368 18.4689 11.5195C18.1983 11.2022 17.8389 11.0435 17.3909 11.0435C16.9243 11.0435 16.4903 11.2068 16.0889 11.5335C15.6876 11.8508 15.4356 12.2475 15.3329 12.7235C15.2396 13.1995 15.3236 13.6008 15.5849 13.9275C15.8463 14.2542 16.2103 14.4175 16.6769 14.4175Z" fill="white"/>
</svg>
