<svg width="24" height="24" viewBox="0 0 24 24" fill="none" xmlns="http://www.w3.org/2000/svg">
<path d="M2.96737 16.0001C2.91137 16.0001 2.87404 15.9814 2.85537 15.9441C2.83671 15.8974 2.84137 15.8461 2.86937 15.7901L7.06937 7.04008C7.13471 6.90008 7.21871 6.83008 7.32137 6.83008H10.0934C10.2147 6.83008 10.2894 6.90008 10.3174 7.04008L11.7314 15.7901C11.75 15.8554 11.7407 15.9068 11.7034 15.9441C11.666 15.9814 11.6147 16.0001 11.5494 16.0001H9.21137C9.09004 16.0001 9.02004 15.9301 9.00137 15.7901L8.53937 11.1001C8.50204 10.7454 8.46937 10.3954 8.44137 10.0501C8.42271 9.69541 8.40871 9.34541 8.39937 9.00008H8.35737C8.24537 9.35475 8.11937 9.70941 7.97937 10.0641C7.84871 10.4188 7.70871 10.7734 7.55937 11.1281L5.64137 15.7901C5.61337 15.8554 5.57604 15.9068 5.52937 15.9441C5.48271 15.9814 5.42671 16.0001 5.36137 16.0001H2.96737ZM5.80937 14.5021L6.49537 12.4861H9.08537L9.16937 14.5021H5.80937ZM16.2947 8.83208C16.9761 8.83208 17.5827 8.87408 18.1147 8.95808C18.6561 9.04208 19.2067 9.10275 19.7667 9.14008L18.7167 15.8181C18.6047 16.5181 18.3947 17.0828 18.0867 17.5121C17.7881 17.9508 17.3914 18.2681 16.8967 18.4641C16.4021 18.6601 15.8094 18.7581 15.1187 18.7581C14.3907 18.7581 13.8121 18.6554 13.3827 18.4501C12.9534 18.2448 12.6547 17.9554 12.4867 17.5821C12.3281 17.2181 12.2767 16.7888 12.3327 16.2941C12.3514 16.1541 12.4214 16.0841 12.5427 16.0841H14.4187C14.5494 16.0841 14.6147 16.1541 14.6147 16.2941C14.6147 16.4248 14.6614 16.5274 14.7547 16.6021C14.8481 16.6768 15.0207 16.7141 15.2727 16.7141C15.5807 16.7141 15.8047 16.6348 15.9447 16.4761C16.0941 16.3268 16.1967 16.0841 16.2527 15.7481L16.4207 14.6701C16.0567 14.9594 15.6834 15.1741 15.3007 15.3141C14.9274 15.4448 14.5401 15.5101 14.1387 15.5101C13.4854 15.5101 13.0327 15.2954 12.7807 14.8661C12.5287 14.4368 12.4634 13.8348 12.5847 13.0601L12.8227 11.6321C12.9814 10.6428 13.3314 9.92875 13.8727 9.49008C14.4141 9.05141 15.2214 8.83208 16.2947 8.83208ZM15.6647 13.3541C15.8234 13.3541 15.9867 13.3214 16.1547 13.2561C16.3321 13.1908 16.5094 13.0974 16.6867 12.9761L17.0087 10.9321C16.9061 10.9134 16.7847 10.8948 16.6447 10.8761C16.5047 10.8574 16.3507 10.8481 16.1827 10.8481C15.9027 10.8481 15.6927 10.9274 15.5527 11.0861C15.4127 11.2448 15.3147 11.4968 15.2587 11.8421L15.1467 12.5701C15.1094 12.8314 15.1327 13.0274 15.2167 13.1581C15.3007 13.2888 15.4501 13.3541 15.6647 13.3541Z" fill="white"/>
</svg>
