<svg width="24" height="24" viewBox="0 0 24 24" fill="none" xmlns="http://www.w3.org/2000/svg">
<path d="M11.5834 16.9995L10.5614 14.3115H5.68944L4.65344 16.9995H4.20544L7.90144 7.35352H8.34944L12.0314 16.9995H11.5834ZM5.82944 13.9335H10.4074L8.12544 7.94152L5.82944 13.9335ZM19.3389 10.4615H19.7589V16.0615C19.7589 17.6015 19.4556 18.6842 18.8489 19.3095C18.2422 19.9442 17.3742 20.2615 16.2449 20.2615C15.1156 20.2615 14.2242 19.7995 13.5709 18.8755L13.9209 18.6375C14.4902 19.4402 15.2649 19.8415 16.2449 19.8415C17.2342 19.8415 17.9949 19.5615 18.5269 19.0015C19.0682 18.4415 19.3389 17.4615 19.3389 16.0615V15.3895C19.0496 15.9215 18.6342 16.3462 18.0929 16.6635C17.5609 16.9808 16.9776 17.1395 16.3429 17.1395C15.4002 17.1395 14.5976 16.8082 13.9349 16.1455C13.2722 15.4735 12.9409 14.6662 12.9409 13.7235C12.9409 12.7902 13.2722 11.9922 13.9349 11.3295C14.5976 10.6575 15.4002 10.3215 16.3429 10.3215C16.9776 10.3215 17.5609 10.4802 18.0929 10.7975C18.6342 11.1148 19.0496 11.5395 19.3389 12.0715V10.4615ZM16.3429 16.7195C17.1736 16.7195 17.8782 16.4442 18.4569 15.8935C19.0449 15.3335 19.3389 14.6335 19.3389 13.7935C19.3389 12.9162 19.0449 12.1882 18.4569 11.6095C17.8782 11.0308 17.1736 10.7415 16.3429 10.7415C15.5216 10.7415 14.8169 11.0355 14.2289 11.6235C13.6502 12.2022 13.3609 12.9022 13.3609 13.7235C13.3609 14.5448 13.6502 15.2495 14.2289 15.8375C14.8169 16.4255 15.5216 16.7195 16.3429 16.7195Z" fill="white"/>
</svg>
