<svg width="24" height="24" viewBox="0 0 24 24" fill="none" xmlns="http://www.w3.org/2000/svg">
<path d="M3.42938 16.0001C3.27072 16.0001 3.21472 15.9208 3.26138 15.7621L6.13138 6.99808C6.16872 6.88608 6.24805 6.83008 6.36938 6.83008H9.18338C9.30472 6.83008 9.38405 6.88608 9.42138 6.99808L12.2914 15.7621C12.31 15.8274 12.3054 15.8834 12.2774 15.9301C12.2587 15.9768 12.212 16.0001 12.1374 16.0001H9.72938C9.60805 16.0001 9.53338 15.9441 9.50538 15.8321L8.25938 11.1001C8.16605 10.7454 8.07738 10.3954 7.99338 10.0501C7.91872 9.69541 7.84872 9.34541 7.78338 9.00008H7.74138C7.67605 9.35475 7.60138 9.70941 7.51738 10.0641C7.44272 10.4188 7.35872 10.7734 7.26538 11.1281L6.06138 15.8181C6.03338 15.9394 5.95405 16.0001 5.82338 16.0001H3.42938ZM6.03338 14.5021L6.41138 12.4861H9.05738L9.46338 14.5021H6.03338ZM15.8415 18.7581C14.6375 18.7581 13.7648 18.6181 13.2235 18.3381C12.6821 18.0581 12.4115 17.6474 12.4115 17.1061C12.4115 16.7981 12.4861 16.5041 12.6355 16.2241C12.7941 15.9534 13.0648 15.7154 13.4475 15.5101L15.3235 15.9861C15.1741 16.0608 15.0668 16.1448 15.0015 16.2381C14.9361 16.3408 14.9035 16.4434 14.9035 16.5461C14.9035 16.6954 14.9781 16.7981 15.1275 16.8541C15.2861 16.9194 15.5661 16.9568 15.9675 16.9661C16.4715 16.9754 16.7888 16.9474 16.9195 16.8821C17.0595 16.8261 17.1295 16.7234 17.1295 16.5741C17.1295 16.4714 17.1015 16.3921 17.0455 16.3361C16.9895 16.2801 16.8961 16.2474 16.7655 16.2381L14.2875 16.0561C13.8208 16.0188 13.4661 15.8788 13.2235 15.6361C12.9808 15.3934 12.8595 15.0714 12.8595 14.6701C12.8595 14.4554 12.8875 14.2548 12.9435 14.0681C13.0088 13.8721 13.1161 13.6948 13.2655 13.5361C13.4148 13.3681 13.6108 13.2234 13.8535 13.1021L15.3235 13.5641C15.1648 13.6108 15.0575 13.6714 15.0015 13.7461C14.9548 13.8208 14.9315 13.8908 14.9315 13.9561C14.9315 14.0214 14.9548 14.0728 15.0015 14.1101C15.0481 14.1381 15.1368 14.1568 15.2675 14.1661L17.3815 14.3061C18.2028 14.3621 18.7768 14.5721 19.1035 14.9361C19.4301 15.2908 19.5935 15.8041 19.5935 16.4761C19.5935 17.2694 19.2995 17.8481 18.7115 18.2121C18.1235 18.5761 17.1668 18.7581 15.8415 18.7581ZM16.0235 13.7321C15.0061 13.7321 14.2501 13.5361 13.7555 13.1441C13.2701 12.7428 13.0275 12.1361 13.0275 11.3241C13.0275 10.4748 13.2701 9.84941 13.7555 9.44808C14.2501 9.03741 15.0061 8.83208 16.0235 8.83208C17.0501 8.83208 17.8061 9.03741 18.2915 9.44808C18.7768 9.84941 19.0195 10.4748 19.0195 11.3241C19.0195 12.1361 18.7721 12.7428 18.2775 13.1441C17.7921 13.5361 17.0408 13.7321 16.0235 13.7321ZM16.0235 11.9961C16.2661 11.9961 16.4341 11.9401 16.5275 11.8281C16.6208 11.7068 16.6675 11.5248 16.6675 11.2821C16.6675 11.0394 16.6208 10.8621 16.5275 10.7501C16.4341 10.6288 16.2661 10.5681 16.0235 10.5681C15.7808 10.5681 15.6128 10.6288 15.5195 10.7501C15.4261 10.8621 15.3795 11.0394 15.3795 11.2821C15.3795 11.5248 15.4261 11.7068 15.5195 11.8281C15.6128 11.9401 15.7808 11.9961 16.0235 11.9961ZM18.1515 9.60208L16.5555 9.05608C16.5461 8.77608 16.5508 8.48675 16.5695 8.18808C16.5975 7.88941 16.6255 7.62808 16.6535 7.40408C16.6721 7.29208 16.7281 7.23608 16.8215 7.23608H18.3895C18.5668 7.23608 18.6275 7.31541 18.5715 7.47408C18.4501 7.81941 18.3521 8.17875 18.2775 8.55208C18.2028 8.92541 18.1608 9.27541 18.1515 9.60208Z" fill="white"/>
</svg>
