<svg width="24" height="24" viewBox="0 0 24 24" fill="none" xmlns="http://www.w3.org/2000/svg">
<path d="M4.16596 16.0001C4.11929 16.0001 4.08663 15.9908 4.06796 15.9721C4.04929 15.9441 4.05396 15.9068 4.08196 15.8601L8.47796 6.97008C8.52463 6.87675 8.58063 6.83008 8.64596 6.83008H10.06C10.1346 6.83008 10.1813 6.87675 10.2 6.97008L11.852 15.8461C11.8613 15.8928 11.852 15.9301 11.824 15.9581C11.8053 15.9861 11.768 16.0001 11.712 16.0001H10.606C10.5313 16.0001 10.4846 15.9534 10.466 15.8601L9.51396 10.0921C9.45796 9.75608 9.40196 9.41075 9.34596 9.05608C9.28996 8.70141 9.24329 8.35141 9.20596 8.00608H9.16396C9.01463 8.36075 8.86063 8.70608 8.70196 9.04208C8.54329 9.37808 8.37996 9.72341 8.21196 10.0781L5.43996 15.8601C5.42129 15.8974 5.39796 15.9301 5.36996 15.9581C5.34196 15.9861 5.29996 16.0001 5.24396 16.0001H4.16596ZM6.13996 13.9141L6.61596 12.7941H10.242L10.382 13.9141H6.13996ZM16.2602 8.98608C16.7829 8.98608 17.2635 9.03741 17.7022 9.14008C18.1502 9.23341 18.6449 9.29875 19.1862 9.33608L18.1222 16.0981C18.0289 16.6674 17.8609 17.1481 17.6182 17.5401C17.3849 17.9414 17.0489 18.2448 16.6102 18.4501C16.1809 18.6554 15.6209 18.7581 14.9302 18.7581C14.3702 18.7581 13.8989 18.6788 13.5162 18.5201C13.1429 18.3708 12.8815 18.1514 12.7322 17.8621C12.5829 17.5728 12.5595 17.2321 12.6622 16.8401C12.6902 16.7468 12.7462 16.7001 12.8302 16.7001H13.8102C13.9035 16.7001 13.9455 16.7514 13.9362 16.8541C13.9082 17.1248 13.9875 17.3208 14.1742 17.4421C14.3609 17.5634 14.6642 17.6241 15.0842 17.6241C15.6069 17.6241 16.0035 17.5028 16.2742 17.2601C16.5542 17.0268 16.7362 16.6581 16.8202 16.1541L17.0442 14.7961C16.6055 15.1321 16.1902 15.3794 15.7982 15.5381C15.4155 15.6968 15.0189 15.7761 14.6082 15.7761C13.9269 15.7761 13.4462 15.5614 13.1662 15.1321C12.8955 14.7028 12.8255 14.0541 12.9562 13.1861L13.2222 11.5761C13.3529 10.7361 13.6562 10.0968 14.1322 9.65808C14.6082 9.21008 15.3175 8.98608 16.2602 8.98608ZM15.1122 14.6141C15.4295 14.6141 15.7422 14.5394 16.0502 14.3901C16.3675 14.2408 16.7549 13.9888 17.2122 13.6341L17.7582 10.2741C17.5435 10.2274 17.2869 10.1901 16.9882 10.1621C16.6989 10.1341 16.4609 10.1201 16.2742 10.1201C15.7329 10.1201 15.3222 10.2508 15.0422 10.5121C14.7715 10.7734 14.5849 11.2074 14.4822 11.8141L14.2862 13.0741C14.1929 13.6154 14.2115 14.0074 14.3422 14.2501C14.4822 14.4928 14.7389 14.6141 15.1122 14.6141Z" fill="white"/>
</svg>
