<svg width="24" height="24" viewBox="0 0 24 24" fill="none" xmlns="http://www.w3.org/2000/svg">
<path d="M7.66404 12.644H8.34804H9.19404C9.26604 12.128 9.40404 11.246 9.60804 9.998C9.81204 8.75 9.96804 7.784 10.076 7.1C9.66804 7.1 9.43404 7.106 9.37404 7.118L8.15004 11.15L7.66404 12.644ZM12.02 6.47C11.96 6.95 11.804 8.084 11.552 9.872C11.3 11.66 11.144 13.052 11.084 14.048C11.036 14.936 11.126 15.416 11.354 15.488C11.462 15.524 11.612 15.482 11.804 15.362C11.9 15.314 11.99 15.26 12.074 15.2C12.158 15.14 12.248 15.068 12.344 14.984C12.452 14.9 12.536 14.834 12.596 14.786C12.656 14.75 12.71 14.732 12.758 14.732C12.878 14.72 12.992 14.834 13.1 15.074C13.208 15.314 13.232 15.482 13.172 15.578C13.016 15.866 12.716 16.172 12.272 16.496C11.684 16.88 11.078 17.066 10.454 17.054C9.78204 17.042 9.34404 16.772 9.14004 16.244C9.00804 15.932 8.97204 15.248 9.03204 14.192C9.04404 14.156 9.05004 14.102 9.05004 14.03C9.06204 13.946 9.06804 13.886 9.06804 13.85H8.13204C7.72404 13.85 7.43004 13.844 7.25004 13.832C7.07004 14.3 6.93204 14.654 6.83604 14.894C6.74004 15.134 6.59004 15.416 6.38604 15.74C6.19404 16.064 5.99004 16.328 5.77404 16.532C5.45004 16.844 5.04804 17.018 4.56804 17.054C4.08804 17.114 3.66804 17.048 3.30804 16.856C2.79204 16.616 2.46204 16.262 2.31804 15.794C2.27004 15.614 2.30604 15.44 2.42604 15.272C2.53404 15.116 2.67204 14.966 2.84004 14.822C2.96004 14.702 3.08004 14.612 3.20004 14.552C3.33204 14.492 3.42804 14.492 3.48804 14.552C3.53604 14.6 3.66804 14.828 3.88404 15.236C4.06404 15.56 4.25604 15.722 4.46004 15.722C4.85604 15.722 5.28204 15.158 5.73804 14.03C5.87004 13.706 6.00804 13.346 6.15204 12.95C6.30804 12.554 6.44604 12.176 6.56604 11.816C6.69804 11.456 6.77604 11.246 6.80004 11.186C6.89604 10.91 7.41204 9.302 8.34804 6.362C8.42004 6.11 8.57004 5.948 8.79804 5.876C9.13404 5.792 9.55404 5.75 10.058 5.75C10.358 5.75 10.67 5.762 10.994 5.786C11.342 5.822 11.594 5.888 11.75 5.984C11.942 6.104 12.032 6.266 12.02 6.47ZM18.4057 11.582C17.7577 11.282 17.2357 11.21 16.8397 11.366C16.6717 11.438 16.4857 11.63 16.2817 11.942C16.0897 12.242 15.9337 12.596 15.8137 13.004C15.6937 13.388 15.6037 13.76 15.5437 14.12C15.4957 14.48 15.4957 14.804 15.5437 15.092C15.5917 15.368 15.6997 15.536 15.8677 15.596C16.0957 15.68 16.3897 15.596 16.7497 15.344C17.1097 15.08 17.4217 14.798 17.6857 14.498C17.7817 14.042 17.9197 13.46 18.0997 12.752C18.2917 12.032 18.3937 11.642 18.4057 11.582ZM17.4337 16.226C16.6417 16.85 15.8737 17.126 15.1297 17.054C14.5417 16.994 14.1157 16.712 13.8517 16.208C13.5877 15.704 13.4737 15.122 13.5097 14.462C13.5577 13.802 13.7077 13.13 13.9597 12.446C14.1997 11.762 14.5237 11.21 14.9317 10.79C15.3397 10.358 15.8017 10.106 16.3177 10.034C17.0377 9.914 17.8477 10.07 18.7477 10.502C18.8557 10.286 18.9397 10.16 18.9997 10.124C19.0597 10.076 19.1617 10.058 19.3057 10.07C19.4977 10.094 19.7677 10.196 20.1157 10.376C20.4757 10.544 20.6497 10.706 20.6377 10.862C20.6377 11.018 20.5657 11.288 20.4217 11.672C20.2777 12.128 20.1757 12.476 20.1157 12.716C20.0197 13.052 19.9237 13.412 19.8277 13.796C19.7437 14.132 19.6057 14.72 19.4137 15.56C19.2337 16.388 19.0837 17.024 18.9637 17.468C18.7837 18.056 18.6397 18.464 18.5317 18.692C18.2797 19.256 17.9317 19.706 17.4877 20.042C16.9717 20.402 16.3477 20.582 15.6157 20.582C14.9677 20.558 14.3857 20.39 13.8697 20.078C13.3897 19.766 13.1317 19.478 13.0957 19.214C13.0717 19.046 13.1557 18.836 13.3477 18.584C13.5517 18.332 13.7557 18.146 13.9597 18.026C14.0437 17.99 14.1457 18.032 14.2657 18.152C14.4577 18.332 14.6497 18.506 14.8417 18.674C15.1057 18.878 15.2737 18.998 15.3457 19.034C15.5857 19.154 15.8017 19.214 15.9937 19.214C16.2817 19.202 16.5517 18.896 16.8037 18.296C16.9837 17.876 17.1937 17.186 17.4337 16.226Z" fill="white"/>
</svg>
