<svg width="24" height="24" viewBox="0 0 24 24" fill="none" xmlns="http://www.w3.org/2000/svg">
<path d="M4.08491 17.0004L9.05491 7.90039H10.2869L11.3929 17.0004H10.3569L10.0769 14.4804H6.54891L5.17691 17.0004H4.08491ZM7.06691 13.5004H9.96491L9.44691 9.09039L7.06691 13.5004ZM15.076 20.1084C14.1147 20.1084 13.2653 19.8891 12.528 19.4504L12.962 18.5684C13.5687 18.9604 14.278 19.1564 15.09 19.1564C16.5833 19.1564 17.47 18.4891 17.75 17.1544L17.932 16.2864C17.5587 16.5197 17.1807 16.7017 16.798 16.8324C16.4153 16.9631 16.042 17.0284 15.678 17.0284C14.9127 17.0284 14.3107 16.8091 13.872 16.3704C13.4427 15.9317 13.228 15.3297 13.228 14.5644C13.228 13.7617 13.382 13.0337 13.69 12.3804C13.998 11.7271 14.418 11.2091 14.95 10.8264C15.482 10.4437 16.0793 10.2524 16.742 10.2524C17.666 10.2524 18.464 10.5651 19.136 11.1904L19.43 10.4204H20.186L18.716 17.3504C18.5293 18.2557 18.128 18.9417 17.512 19.4084C16.896 19.8751 16.084 20.1084 15.076 20.1084ZM15.86 16.0764C16.2333 16.0764 16.6207 16.0064 17.022 15.8664C17.4233 15.7171 17.7967 15.5211 18.142 15.2784L18.842 11.9604C18.59 11.7271 18.2913 11.5451 17.946 11.4144C17.6007 11.2744 17.2507 11.2044 16.896 11.2044C16.4013 11.2044 15.9533 11.3537 15.552 11.6524C15.1507 11.9417 14.8333 12.3337 14.6 12.8284C14.3667 13.3231 14.25 13.8737 14.25 14.4804C14.25 14.9751 14.3853 15.3671 14.656 15.6564C14.936 15.9364 15.3373 16.0764 15.86 16.0764Z" fill="white"/>
</svg>
