<svg width="24" height="24" viewBox="0 0 24 24" fill="none" xmlns="http://www.w3.org/2000/svg">
<path d="M11.2944 16.0344C11.3598 16.2211 11.4858 16.3191 11.6724 16.3284L12.0084 16.3704C12.2324 16.3984 12.3444 16.5057 12.3444 16.6924C12.3444 16.8977 12.2278 17.0004 11.9944 17.0004H8.88643C8.6531 17.0004 8.53643 16.8977 8.53643 16.6924C8.53643 16.4964 8.64376 16.3844 8.85843 16.3564L9.33443 16.3004C9.45576 16.2817 9.53976 16.2351 9.58643 16.1604C9.64243 16.0857 9.6471 15.9924 9.60043 15.8804L8.99843 14.1724H6.10043L5.49843 15.8524C5.41443 16.1044 5.49843 16.2444 5.75043 16.2724L6.24043 16.3424C6.4551 16.3704 6.56243 16.4871 6.56243 16.6924C6.56243 16.8977 6.44576 17.0004 6.21243 17.0004H3.86043C3.6271 17.0004 3.51043 16.8977 3.51043 16.6924C3.51043 16.4871 3.61776 16.3704 3.83243 16.3424L4.37843 16.2584C4.5651 16.2304 4.6911 16.1277 4.75643 15.9504L7.51443 8.39035C7.5891 8.20368 7.71976 8.11035 7.90643 8.11035H8.11643C8.3031 8.11035 8.43376 8.20368 8.50843 8.39035L11.2944 16.0344ZM6.33843 13.4864H8.77443L7.58443 10.0564L6.33843 13.4864ZM19.2969 10.7844V11.0784C19.2969 11.3117 19.1802 11.4284 18.9469 11.4284H17.9949C18.2002 11.7457 18.3029 12.1237 18.3029 12.5624C18.3029 12.9357 18.2329 13.2624 18.0929 13.5424C17.9529 13.8131 17.7662 14.0417 17.5329 14.2284C17.2995 14.4057 17.0242 14.5411 16.7069 14.6344C16.3989 14.7184 16.0769 14.7604 15.7409 14.7604C15.3675 14.7604 15.0362 14.7137 14.7469 14.6204C14.6815 14.7231 14.6302 14.8211 14.5929 14.9144C14.5555 14.9984 14.5369 15.0964 14.5369 15.2084C14.5369 15.4044 14.6022 15.5537 14.7329 15.6564C14.8729 15.7497 15.1015 15.7964 15.4189 15.7964H16.8469C17.6962 15.7964 18.3029 15.9411 18.6669 16.2304C19.0402 16.5104 19.2269 16.9071 19.2269 17.4204C19.2269 17.8684 19.1055 18.2417 18.8629 18.5404C18.6202 18.8484 18.3169 19.0911 17.9529 19.2684C17.5982 19.4457 17.2062 19.5717 16.7769 19.6464C16.3569 19.7211 15.9695 19.7584 15.6149 19.7584C14.6255 19.7584 13.9209 19.6231 13.5009 19.3524C13.0622 19.1097 12.8429 18.7644 12.8429 18.3164C12.8429 18.0457 12.9409 17.7937 13.1369 17.5604C13.3329 17.3271 13.6455 17.1031 14.0749 16.8884C13.8135 16.7577 13.6269 16.5991 13.5149 16.4124C13.4029 16.2164 13.3469 16.0111 13.3469 15.7964C13.3469 15.5257 13.4262 15.2831 13.5849 15.0684C13.7435 14.8537 13.9722 14.6391 14.2709 14.4244C13.9349 14.2377 13.6735 13.9904 13.4869 13.6824C13.3002 13.3651 13.2069 12.9917 13.2069 12.5624C13.2069 12.1984 13.2769 11.8811 13.4169 11.6104C13.5569 11.3304 13.7435 11.1017 13.9769 10.9244C14.2102 10.7377 14.4809 10.5977 14.7889 10.5044C15.0969 10.4111 15.4189 10.3644 15.7549 10.3644C16.4642 10.3644 17.0522 10.5417 17.5189 10.8964L18.8349 10.4624C18.8815 10.4437 18.9235 10.4297 18.9609 10.4204C18.9982 10.4111 19.0355 10.4064 19.0729 10.4064C19.1755 10.4064 19.2362 10.4484 19.2549 10.5324C19.2829 10.6164 19.2969 10.7004 19.2969 10.7844ZM15.7269 14.1864C16.1189 14.1864 16.4175 14.0417 16.6229 13.7524C16.8375 13.4537 16.9449 13.0524 16.9449 12.5484C16.9449 12.0537 16.8422 11.6617 16.6369 11.3724C16.4315 11.0737 16.1375 10.9244 15.7549 10.9244C15.3629 10.9244 15.0642 11.0737 14.8589 11.3724C14.6629 11.6711 14.5649 12.0677 14.5649 12.5624C14.5649 13.0664 14.6629 13.4631 14.8589 13.7524C15.0549 14.0417 15.3442 14.1864 15.7269 14.1864ZM16.7349 17.1124H15.2649C15.1155 17.1124 14.9802 17.1031 14.8589 17.0844C14.7375 17.0751 14.6255 17.0611 14.5229 17.0424C14.2989 17.3504 14.1869 17.6631 14.1869 17.9804C14.1869 18.4004 14.3315 18.6944 14.6209 18.8624C14.9102 19.0304 15.2929 19.1144 15.7689 19.1144C16.4782 19.1144 17.0195 18.9931 17.3929 18.7504C17.7662 18.5171 17.9529 18.2371 17.9529 17.9104C17.9529 17.6864 17.8642 17.4997 17.6869 17.3504C17.5935 17.2757 17.4722 17.2151 17.3229 17.1684C17.1735 17.1311 16.9775 17.1124 16.7349 17.1124Z" fill="white"/>
</svg>
