<svg width="24" height="24" viewBox="0 0 24 24" fill="none" xmlns="http://www.w3.org/2000/svg">
<path d="M2.46912 17.0003L5.84312 6.78027H9.55312L13.0531 17.0003H10.6731L7.84512 8.36227L8.57312 8.65627H6.76712L7.52312 8.36227L4.76512 17.0003H2.46912ZM5.03112 14.4663L5.73112 12.5623H9.73512L10.4491 14.4663H5.03112ZM17.1612 20.0523C16.7879 20.0523 16.4052 20.0383 16.0132 20.0103C15.6212 19.9823 15.2619 19.945 14.9352 19.8983V18.0083C15.2619 18.055 15.6212 18.0923 16.0132 18.1203C16.4146 18.1576 16.7786 18.1763 17.1052 18.1763C17.7119 18.1763 18.2019 18.1063 18.5752 17.9663C18.9579 17.8263 19.2379 17.6116 19.4152 17.3223C19.5926 17.0423 19.6812 16.6783 19.6812 16.2303V14.7043L20.0872 13.8083C20.0686 14.4896 19.9332 15.073 19.6812 15.5583C19.4386 16.0436 19.0979 16.417 18.6592 16.6783C18.2206 16.9303 17.6979 17.0563 17.0912 17.0563C16.5686 17.0563 16.0926 16.963 15.6632 16.7763C15.2432 16.5803 14.8839 16.3096 14.5852 15.9643C14.2866 15.619 14.0579 15.2176 13.8992 14.7603C13.7406 14.2936 13.6612 13.7896 13.6612 13.2483V12.9263C13.6612 12.385 13.7452 11.881 13.9132 11.4143C14.0812 10.9476 14.3239 10.5416 14.6412 10.1963C14.9586 9.85094 15.3366 9.58494 15.7752 9.39827C16.2139 9.20227 16.6992 9.10427 17.2312 9.10427C17.8472 9.10427 18.3792 9.2396 18.8272 9.51027C19.2846 9.78094 19.6439 10.1776 19.9052 10.7003C20.1666 11.223 20.3066 11.853 20.3252 12.5903L20.0172 12.6743V9.32827H21.7952V16.0903C21.7952 17.033 21.6272 17.7936 21.2912 18.3723C20.9552 18.951 20.4419 19.3756 19.7512 19.6463C19.0699 19.917 18.2066 20.0523 17.1612 20.0523ZM17.7912 15.1663C18.1366 15.1663 18.4492 15.0916 18.7292 14.9423C19.0092 14.7836 19.2286 14.5596 19.3872 14.2703C19.5552 13.981 19.6392 13.631 19.6392 13.2203V12.8143C19.6392 12.413 19.5506 12.077 19.3732 11.8063C19.2052 11.5263 18.9812 11.3163 18.7012 11.1763C18.4212 11.027 18.1226 10.9523 17.8052 10.9523C17.4319 10.9523 17.1006 11.041 16.8112 11.2183C16.5219 11.3956 16.2979 11.643 16.1392 11.9603C15.9806 12.2776 15.9012 12.651 15.9012 13.0803C15.9012 13.519 15.9806 13.897 16.1392 14.2143C16.3072 14.5223 16.5312 14.7603 16.8112 14.9283C17.1006 15.087 17.4272 15.1663 17.7912 15.1663Z" fill="white"/>
</svg>
