<svg width="24" height="24" viewBox="0 0 24 24" fill="none" xmlns="http://www.w3.org/2000/svg">
<path d="M4.66762 17.0002L3.61762 17.0282C3.43095 17.0282 3.33762 16.9769 3.33762 16.8742C3.33762 16.7529 3.45428 16.6549 3.68762 16.5802C3.96762 16.4682 4.17762 16.3049 4.31762 16.0902C4.54162 15.7262 4.72828 15.4042 4.87762 15.1242C5.02695 14.8442 5.18562 14.5549 5.35362 14.2562C5.52162 13.9575 5.73628 13.5702 5.99762 13.0942C6.25895 12.6089 6.53895 12.1002 6.83762 11.5682C8.49895 8.58157 9.35762 7.06491 9.41362 7.01824C9.46962 6.97157 9.53495 6.94824 9.60962 6.94824C9.68428 6.94824 9.73562 6.98091 9.76362 7.04624C9.80095 7.11157 9.85695 7.27491 9.93162 7.53624C10.0063 7.79757 10.0576 7.97957 10.0856 8.08224L10.2116 8.54424C10.3796 9.16024 10.781 10.4482 11.4156 12.4082C12.0596 14.3589 12.433 15.4789 12.5356 15.7682C12.6476 16.0482 12.7456 16.2395 12.8296 16.3422C12.9136 16.4355 13.091 16.5242 13.3616 16.6082C13.511 16.6549 13.5856 16.7482 13.5856 16.8882C13.5856 16.9815 13.441 17.0282 13.1516 17.0282L12.2416 16.9862L10.9396 17.0562C10.6876 17.0562 10.5616 17.0095 10.5616 16.9162C10.5616 16.8229 10.6083 16.7482 10.7016 16.6922C10.8043 16.6362 10.9116 16.5989 11.0236 16.5802C11.1356 16.5615 11.2383 16.5102 11.3316 16.4262C11.4343 16.3422 11.4856 16.2255 11.4856 16.0762C11.4856 15.9269 11.4483 15.7075 11.3736 15.4182C11.299 15.1195 11.2103 14.8022 11.1076 14.4662C11.005 14.1302 10.935 13.8829 10.8976 13.7242C10.8416 13.5002 10.6736 13.3882 10.3936 13.3882L8.69962 13.4022C7.99028 13.4022 7.51895 13.3975 7.28562 13.3882C7.05228 13.3695 6.89828 13.3602 6.82362 13.3602C6.57162 13.3602 6.40828 13.4302 6.33362 13.5702C5.81095 14.4942 5.47962 15.1289 5.33962 15.4742C5.20895 15.8195 5.14362 16.0062 5.14362 16.0342C5.14362 16.2675 5.22295 16.4262 5.38162 16.5102C5.54028 16.5849 5.69895 16.6362 5.85762 16.6642C6.01628 16.6829 6.09562 16.7389 6.09562 16.8322C6.09562 16.9629 6.05362 17.0282 5.96962 17.0282H5.88562L4.66762 17.0002ZM7.55162 12.7442L10.2256 12.7302C10.3563 12.7302 10.431 12.6975 10.4496 12.6322C10.4496 12.6042 10.4496 12.5529 10.4496 12.4782C10.4496 12.3942 10.2443 11.7362 9.83362 10.5042C9.43228 9.27224 9.18962 8.65624 9.10562 8.65624C9.05895 8.65624 8.67162 9.30957 7.94362 10.6162C7.21562 11.9229 6.85162 12.6042 6.85162 12.6602C6.85162 12.7162 6.94028 12.7442 7.11762 12.7442H7.55162ZM14.3904 16.7762C14.5211 16.7295 14.6331 16.6922 14.7264 16.6642C14.8197 16.6362 14.8664 16.6175 14.8664 16.6082C14.8664 16.5895 14.8524 16.5615 14.8244 16.5242C14.7404 16.3935 14.6984 16.2255 14.6984 16.0202C14.6984 15.8055 14.7451 15.6282 14.8384 15.4882C14.9317 15.3482 15.0204 15.2455 15.1044 15.1802C15.1977 15.1055 15.2444 15.0589 15.2444 15.0402C15.2444 15.0215 15.1931 14.9702 15.0904 14.8862C14.9971 14.7929 14.8991 14.6109 14.7964 14.3402C14.6937 14.0695 14.6424 13.7009 14.6424 13.2342C14.6424 12.7582 14.8337 12.2729 15.2164 11.7782C15.6084 11.2742 16.1124 11.0222 16.7284 11.0222C16.9431 11.0222 17.2231 11.0829 17.5684 11.2042C17.9137 11.3255 18.1517 11.3862 18.2824 11.3862C18.4131 11.3862 18.5951 11.3349 18.8284 11.2322C19.0617 11.1295 19.2157 11.0782 19.2904 11.0782C19.3744 11.0782 19.4584 11.1062 19.5424 11.1622C19.6357 11.2182 19.6824 11.3022 19.6824 11.4142C19.6824 11.5262 19.6357 11.6335 19.5424 11.7362C19.4491 11.8295 19.3277 11.8762 19.1784 11.8762C19.0291 11.8762 18.8704 11.8575 18.7024 11.8202C18.5344 11.7829 18.4411 11.7642 18.4224 11.7642C18.3104 11.7642 18.2544 11.8062 18.2544 11.8902C18.2544 11.9089 18.2731 11.9695 18.3104 12.0722C18.4411 12.3615 18.5064 12.6649 18.5064 12.9822C18.5064 13.5049 18.3151 14.0369 17.9324 14.5782C17.5591 15.1195 17.0831 15.3902 16.5044 15.3902C16.2524 15.3902 16.0191 15.3622 15.8044 15.3062C15.5897 15.2409 15.4684 15.2082 15.4404 15.2082C15.4217 15.2082 15.3984 15.2175 15.3704 15.2362C15.2957 15.3202 15.2584 15.4835 15.2584 15.7262C15.2584 15.9595 15.4451 16.1649 15.8184 16.3422C16.1917 16.5195 16.5977 16.6595 17.0364 16.7622C17.4844 16.8555 17.8951 17.0235 18.2684 17.2662C18.6417 17.5182 18.8284 17.8355 18.8284 18.2182C18.8284 18.7782 18.6137 19.1702 18.1844 19.3942C17.7644 19.6182 17.1577 19.7302 16.3644 19.7302C15.5804 19.7302 14.9084 19.5855 14.3484 19.2962C13.7977 19.0162 13.5224 18.5822 13.5224 17.9942C13.5224 17.4155 13.8117 17.0095 14.3904 16.7762ZM14.2924 17.8542C14.2924 18.3489 14.5024 18.7269 14.9224 18.9882C15.3517 19.2495 15.8324 19.3802 16.3644 19.3802C17.4097 19.3802 17.9324 19.0769 17.9324 18.4702C17.9324 18.3115 17.7644 18.1342 17.4284 17.9382C17.1017 17.7515 16.6677 17.5509 16.1264 17.3362C15.4637 17.0655 15.0904 16.8882 15.0064 16.8042C14.8851 16.8042 14.7357 16.9162 14.5584 17.1402C14.3811 17.3642 14.2924 17.6022 14.2924 17.8542ZM16.6724 11.3862C16.3737 11.3862 16.0984 11.5775 15.8464 11.9602C15.6037 12.3335 15.4824 12.8142 15.4824 13.4022C15.4824 13.9809 15.5711 14.4055 15.7484 14.6762C15.9351 14.9375 16.1777 15.0682 16.4764 15.0682C16.7751 15.0682 17.0504 14.8862 17.3024 14.5222C17.5637 14.1489 17.6944 13.6775 17.6944 13.1082C17.6944 12.5389 17.5964 12.1095 17.4004 11.8202C17.2137 11.5309 16.9711 11.3862 16.6724 11.3862Z" fill="white"/>
</svg>
