<svg width="24" height="24" viewBox="0 0 24 24" fill="none" xmlns="http://www.w3.org/2000/svg">
<path d="M4.21388 16.0004L7.32188 6.81641H8.63788L11.7459 16.0004H10.5139L8.90388 10.8624C8.73588 10.3491 8.57721 9.84041 8.42788 9.33641C8.27854 8.82308 8.12921 8.30041 7.97988 7.76841H7.92388C7.78388 8.30041 7.63921 8.82308 7.48988 9.33641C7.34054 9.84041 7.18188 10.3491 7.01388 10.8624L5.38988 16.0004H4.21388ZM5.83788 13.2004V12.2764H10.0799V13.2004H5.83788ZM15.2174 19.1364C14.6668 19.1364 14.1768 19.0617 13.7474 18.9124C13.3274 18.7724 12.9961 18.5671 12.7534 18.2964C12.5201 18.0257 12.4034 17.6944 12.4034 17.3024C12.4034 17.0131 12.4921 16.7331 12.6694 16.4624C12.8468 16.2011 13.0894 15.9677 13.3974 15.7624V15.7064C13.2294 15.5944 13.0848 15.4497 12.9634 15.2724C12.8514 15.0857 12.7954 14.8617 12.7954 14.6004C12.7954 14.3111 12.8748 14.0591 13.0334 13.8444C13.2014 13.6297 13.3694 13.4617 13.5374 13.3404V13.2844C13.3228 13.0977 13.1221 12.8457 12.9354 12.5284C12.7488 12.2111 12.6554 11.8517 12.6554 11.4504C12.6554 10.9557 12.7721 10.5264 13.0054 10.1624C13.2481 9.79841 13.5608 9.51841 13.9434 9.32241C14.3354 9.12641 14.7601 9.02841 15.2174 9.02841C15.4041 9.02841 15.5814 9.04708 15.7494 9.08441C15.9174 9.11241 16.0621 9.14974 16.1834 9.19641H18.5494V10.0784H17.1354V10.1344C17.3034 10.2837 17.4388 10.4704 17.5414 10.6944C17.6534 10.9184 17.7094 11.1844 17.7094 11.4924C17.7094 11.9777 17.5974 12.3977 17.3734 12.7524C17.1494 13.0977 16.8508 13.3684 16.4774 13.5644C16.1041 13.7511 15.6841 13.8444 15.2174 13.8444C15.0494 13.8444 14.8768 13.8257 14.6994 13.7884C14.5221 13.7417 14.3541 13.6811 14.1954 13.6064C14.0834 13.7091 13.9808 13.8211 13.8874 13.9424C13.8034 14.0637 13.7614 14.2224 13.7614 14.4184C13.7614 14.6331 13.8454 14.8104 14.0134 14.9504C14.1908 15.0904 14.5081 15.1604 14.9654 15.1604H16.2814C17.0748 15.1604 17.6674 15.2911 18.0594 15.5524C18.4608 15.8044 18.6614 16.2151 18.6614 16.7844C18.6614 17.2044 18.5214 17.5917 18.2414 17.9464C17.9614 18.3011 17.5601 18.5857 17.0374 18.8004C16.5241 19.0244 15.9174 19.1364 15.2174 19.1364ZM15.2174 13.0744C15.4788 13.0744 15.7168 13.0091 15.9314 12.8784C16.1554 12.7384 16.3328 12.5471 16.4634 12.3044C16.5941 12.0617 16.6594 11.7771 16.6594 11.4504C16.6594 10.9464 16.5194 10.5591 16.2394 10.2884C15.9594 10.0084 15.6188 9.86841 15.2174 9.86841C14.8161 9.86841 14.4754 10.0084 14.1954 10.2884C13.9154 10.5591 13.7754 10.9464 13.7754 11.4504C13.7754 11.7771 13.8408 12.0617 13.9714 12.3044C14.1021 12.5471 14.2748 12.7384 14.4894 12.8784C14.7134 13.0091 14.9561 13.0744 15.2174 13.0744ZM15.3854 18.3384C15.8148 18.3384 16.1881 18.2731 16.5054 18.1424C16.8321 18.0117 17.0841 17.8391 17.2614 17.6244C17.4481 17.4097 17.5414 17.1857 17.5414 16.9524C17.5414 16.6351 17.4201 16.4157 17.1774 16.2944C16.9441 16.1731 16.6081 16.1124 16.1694 16.1124H14.9934C14.8628 16.1124 14.7181 16.1031 14.5594 16.0844C14.4101 16.0657 14.2608 16.0377 14.1114 16.0004C13.8594 16.1777 13.6774 16.3644 13.5654 16.5604C13.4628 16.7564 13.4114 16.9524 13.4114 17.1484C13.4114 17.5124 13.5841 17.8017 13.9294 18.0164C14.2841 18.2311 14.7694 18.3384 15.3854 18.3384Z" fill="white"/>
</svg>
