<svg width="24" height="24" viewBox="0 0 24 24" fill="none" xmlns="http://www.w3.org/2000/svg">
<path d="M7.45082 12.5764L7.29682 13.2064H8.97682L8.82282 12.5764C8.71082 12.1377 8.59882 11.6617 8.48682 11.1484C8.37482 10.6351 8.26282 10.1497 8.15082 9.69239H8.09482C8.00149 10.1497 7.89882 10.6351 7.78682 11.1484C7.67482 11.6617 7.56282 12.1377 7.45082 12.5764ZM3.95082 17.0004L6.72282 7.90039H9.63482L12.4068 17.0004H9.85882L9.41082 15.0684H6.86282L6.41482 17.0004H3.95082ZM15.6266 19.8844C15.0946 19.8844 14.6046 19.8237 14.1566 19.7024C13.7086 19.5904 13.3493 19.4084 13.0786 19.1564C12.8173 18.9044 12.6866 18.5684 12.6866 18.1484C12.6866 17.5977 13.0133 17.1497 13.6666 16.8044V16.7484C13.4893 16.6177 13.3353 16.4591 13.2046 16.2724C13.0833 16.0764 13.0226 15.8337 13.0226 15.5444C13.0226 15.3017 13.0926 15.0637 13.2326 14.8304C13.3819 14.5971 13.5733 14.3964 13.8066 14.2284V14.1724C13.5546 14.0044 13.3306 13.7664 13.1346 13.4584C12.9479 13.1411 12.8546 12.7817 12.8546 12.3804C12.8546 11.8017 12.9946 11.3257 13.2746 10.9524C13.5639 10.5697 13.9373 10.2897 14.3946 10.1124C14.8519 9.92572 15.3373 9.83239 15.8506 9.83239C16.2613 9.83239 16.6346 9.88839 16.9706 10.0004H19.5746V11.7364H18.5666C18.5946 11.8204 18.6179 11.9277 18.6366 12.0584C18.6646 12.1891 18.6786 12.3244 18.6786 12.4644C18.6786 13.0151 18.5526 13.4631 18.3006 13.8084C18.0486 14.1444 17.7079 14.3917 17.2786 14.5504C16.8493 14.7091 16.3733 14.7884 15.8506 14.7884C15.6173 14.7884 15.3559 14.7557 15.0666 14.6904C14.9546 14.7931 14.8986 14.9284 14.8986 15.0964C14.8986 15.2457 14.9733 15.3531 15.1226 15.4184C15.2813 15.4837 15.5333 15.5164 15.8786 15.5164H16.9286C17.8059 15.5164 18.4826 15.6611 18.9586 15.9504C19.4439 16.2304 19.6866 16.6924 19.6866 17.3364C19.6866 17.8404 19.5186 18.2837 19.1826 18.6664C18.8559 19.0491 18.3893 19.3477 17.7826 19.5624C17.1759 19.7771 16.4573 19.8844 15.6266 19.8844ZM15.8506 13.3604C16.0746 13.3604 16.2566 13.2811 16.3966 13.1224C16.5366 12.9637 16.6066 12.7164 16.6066 12.3804C16.6066 12.0537 16.5366 11.8157 16.3966 11.6664C16.2566 11.5077 16.0746 11.4284 15.8506 11.4284C15.6266 11.4284 15.4446 11.5077 15.3046 11.6664C15.1646 11.8157 15.0946 12.0537 15.0946 12.3804C15.0946 12.7164 15.1646 12.9637 15.3046 13.1224C15.4446 13.2811 15.6266 13.3604 15.8506 13.3604ZM16.0186 18.4004C16.4106 18.4004 16.7373 18.3397 16.9986 18.2184C17.2599 18.1064 17.3906 17.9524 17.3906 17.7564C17.3906 17.5697 17.3066 17.4531 17.1386 17.4064C16.9799 17.3597 16.7513 17.3364 16.4526 17.3364H15.9066C15.6266 17.3364 15.4119 17.3271 15.2626 17.3084C15.1226 17.2991 15.0013 17.2804 14.8986 17.2524C14.7306 17.4204 14.6466 17.5884 14.6466 17.7564C14.6466 17.9804 14.7726 18.1437 15.0246 18.2464C15.2859 18.3491 15.6173 18.4004 16.0186 18.4004Z" fill="white"/>
</svg>
