<svg width="24" height="24" viewBox="0 0 24 24" fill="none" xmlns="http://www.w3.org/2000/svg">
<path d="M3.66464 16.0005L3.74864 15.6085L4.89664 15.4825L9.65664 6.56445H10.1466L11.3926 15.4965L12.7506 15.6085L12.6666 16.0005H9.09664L9.18064 15.6085L10.6086 15.4965L10.2166 12.5565H6.94064L5.42864 15.4825L6.66064 15.6085L6.59064 16.0005H3.66464ZM7.16464 12.1365H10.1746L9.55864 7.50245L7.16464 12.1365ZM16.4905 13.5505C16.8452 13.5412 17.1625 13.4338 17.4425 13.2285C17.7225 13.0232 17.9418 12.7432 18.1005 12.3885C18.2592 12.0245 18.3385 11.6185 18.3385 11.1705C18.3385 10.6758 18.2312 10.2838 18.0165 9.99445C17.8018 9.70512 17.4752 9.56045 17.0365 9.56045C16.6632 9.56045 16.3365 9.67245 16.0565 9.89645C15.7765 10.1205 15.5572 10.4145 15.3985 10.7785C15.2492 11.1425 15.1745 11.5392 15.1745 11.9685C15.1745 13.0232 15.6132 13.5505 16.4905 13.5505ZM14.5305 12.0525C14.5305 11.5205 14.6472 11.0398 14.8805 10.6105C15.1138 10.1812 15.4265 9.84045 15.8185 9.58845C16.2105 9.33645 16.6492 9.21045 17.1345 9.21045C17.5732 9.21045 17.9372 9.33178 18.2265 9.57445C18.5252 9.81712 18.7072 10.1578 18.7725 10.5965C18.8752 10.0365 19.0432 9.64445 19.2765 9.42045C19.5192 9.18712 19.7572 9.07045 19.9905 9.07045C20.1118 9.07045 20.2192 9.09378 20.3125 9.14045C20.3685 9.19645 20.3965 9.26178 20.3965 9.33645C20.3965 9.52312 20.2985 9.67712 20.1025 9.79845C19.9065 9.91045 19.6078 10.0318 19.2065 10.1625C19.1505 10.3025 19.0992 10.4565 19.0525 10.6245C19.0152 10.7832 18.9778 10.9745 18.9405 11.1985C18.7912 12.1318 18.4832 12.8178 18.0165 13.2565C17.5498 13.6858 17.0132 13.9005 16.4065 13.9005C15.9492 13.9005 15.5618 13.7932 15.2445 13.5785C15.0112 13.7932 14.8618 13.9752 14.7965 14.1245C14.7405 14.2738 14.7125 14.4138 14.7125 14.5445C14.7125 14.7125 14.7685 14.8618 14.8805 14.9925C15.0018 15.1138 15.2072 15.1978 15.4965 15.2445L17.1485 15.4685C17.8672 15.5618 18.3618 15.7345 18.6325 15.9865C18.9125 16.2385 19.0525 16.5512 19.0525 16.9245C19.0525 17.3445 18.8985 17.7412 18.5905 18.1145C18.2825 18.4972 17.8532 18.8052 17.3025 19.0385C16.7518 19.2812 16.1125 19.4025 15.3845 19.4025C14.6752 19.4025 14.1058 19.2718 13.6765 19.0105C13.2565 18.7585 13.0465 18.3712 13.0465 17.8485C13.0465 17.3818 13.2192 16.9618 13.5645 16.5885C13.9192 16.2245 14.3345 15.9352 14.8105 15.7205C14.5398 15.6178 14.3578 15.4825 14.2645 15.3145C14.1712 15.1372 14.1245 14.9692 14.1245 14.8105C14.1245 14.3345 14.4372 13.8772 15.0625 13.4385C14.8945 13.2798 14.7638 13.0838 14.6705 12.8505C14.5772 12.6172 14.5305 12.3512 14.5305 12.0525ZM13.7185 17.6245C13.7185 18.0352 13.8865 18.3618 14.2225 18.6045C14.5678 18.8472 15.0532 18.9685 15.6785 18.9685C16.2012 18.9685 16.6678 18.8938 17.0785 18.7445C17.4985 18.5952 17.8298 18.3852 18.0725 18.1145C18.3152 17.8532 18.4365 17.5498 18.4365 17.2045C18.4365 16.9992 18.3945 16.8172 18.3105 16.6585C18.2265 16.5092 18.0632 16.3785 17.8205 16.2665C17.5872 16.1638 17.2372 16.0845 16.7705 16.0285L15.2445 15.8325C15.2352 15.8325 15.2212 15.8325 15.2025 15.8325C15.1838 15.8232 15.1652 15.8185 15.1465 15.8185C14.6892 16.0798 14.3345 16.3505 14.0825 16.6305C13.8398 16.9105 13.7185 17.2418 13.7185 17.6245Z" fill="white"/>
</svg>
