<svg width="24" height="24" viewBox="0 0 24 24" fill="none" xmlns="http://www.w3.org/2000/svg">
<path d="M3.35161 17.0002L5.92761 7.2002H9.14761L11.7236 17.0002H9.81961L9.28761 14.8442H5.78761L5.25561 17.0002H3.35161ZM6.22161 13.1362H8.85361L7.66361 8.3622H7.41161L6.22161 13.1362ZM12.6167 13.5562V13.3322C12.6167 12.6042 12.7613 11.9835 13.0507 11.4702C13.34 10.9475 13.7227 10.5509 14.1987 10.2802C14.684 10.0002 15.2113 9.8602 15.7807 9.8602C16.4153 9.8602 16.896 9.9722 17.2227 10.1962C17.5493 10.4202 17.7873 10.6535 17.9367 10.8962H18.1887V10.0562H19.9247V18.2322C19.9247 18.7082 19.7847 19.0862 19.5047 19.3662C19.2247 19.6555 18.8513 19.8002 18.3847 19.8002H13.7367V18.2602H17.7687C18.03 18.2602 18.1607 18.1202 18.1607 17.8402V16.0342H17.9087C17.8153 16.1835 17.6847 16.3375 17.5167 16.4962C17.3487 16.6455 17.1247 16.7715 16.8447 16.8742C16.5647 16.9769 16.21 17.0282 15.7807 17.0282C15.2113 17.0282 14.684 16.8929 14.1987 16.6222C13.7227 16.3422 13.34 15.9455 13.0507 15.4322C12.7613 14.9095 12.6167 14.2842 12.6167 13.5562ZM16.2847 15.4882C16.826 15.4882 17.2787 15.3155 17.6427 14.9702C18.0067 14.6249 18.1887 14.1395 18.1887 13.5142V13.3742C18.1887 12.7395 18.0067 12.2542 17.6427 11.9182C17.288 11.5729 16.8353 11.4002 16.2847 11.4002C15.7433 11.4002 15.2907 11.5729 14.9267 11.9182C14.5627 12.2542 14.3807 12.7395 14.3807 13.3742V13.5142C14.3807 14.1395 14.5627 14.6249 14.9267 14.9702C15.2907 15.3155 15.7433 15.4882 16.2847 15.4882Z" fill="white"/>
</svg>
