<svg width="24" height="24" viewBox="0 0 24 24" fill="none" xmlns="http://www.w3.org/2000/svg">
<path d="M2.69471 16.0004V15.7764L3.54871 15.3004L7.20271 6.69043H8.43471L12.0467 15.2724L12.9987 15.7764V16.0004H8.57471V15.7764L9.79271 15.2724L8.84071 12.9484H5.52271L4.57071 15.2724L5.73271 15.7764V16.0004H2.69471ZM5.84471 12.1784H8.51871L7.18871 8.91643L5.84471 12.1784ZM16.5951 13.8724C16.1564 13.8724 15.7504 13.7977 15.3771 13.6484C15.1717 13.7791 15.0691 13.9611 15.0691 14.1944C15.0691 14.6424 15.4284 14.8664 16.1471 14.8664H17.6871C18.4244 14.8664 18.9657 15.0297 19.3111 15.3564C19.6564 15.6737 19.8291 16.1451 19.8291 16.7704C19.8291 17.1997 19.6797 17.6104 19.3811 18.0024C19.0824 18.4037 18.6577 18.7304 18.1071 18.9824C17.5657 19.2344 16.9171 19.3604 16.1611 19.3604C15.2557 19.3604 14.6071 19.2157 14.2151 18.9264C13.8231 18.6464 13.6271 18.2917 13.6271 17.8624C13.6271 17.6944 13.6457 17.5404 13.6831 17.4004C13.7297 17.2697 13.7951 17.1344 13.8791 16.9944L14.7611 16.4344V16.3644C14.0424 16.1311 13.6831 15.6691 13.6831 14.9784C13.6831 14.5491 13.8137 14.1991 14.0751 13.9284L14.8731 13.4664V13.3824C14.5744 13.1864 14.3364 12.9437 14.1591 12.6544C13.9911 12.3557 13.9071 12.0291 13.9071 11.6744C13.9071 11.2544 14.0237 10.8811 14.2571 10.5544C14.4997 10.2277 14.8217 9.9711 15.2231 9.78443C15.6244 9.58843 16.0817 9.49043 16.5951 9.49043C16.8657 9.49043 17.1317 9.51843 17.3931 9.57443C17.6544 9.63043 17.8597 9.69576 18.0091 9.77043L20.1651 9.63043V10.4704L18.7651 10.3584L18.7091 10.4144C18.8771 10.5637 19.0124 10.7504 19.1151 10.9744C19.2177 11.1984 19.2691 11.4317 19.2691 11.6744C19.2691 12.0944 19.1524 12.4724 18.9191 12.8084C18.6857 13.1351 18.3637 13.3964 17.9531 13.5924C17.5517 13.7791 17.0991 13.8724 16.5951 13.8724ZM16.6931 13.2704C16.9917 13.2704 17.2157 13.1304 17.3651 12.8504C17.5237 12.5611 17.6031 12.1831 17.6031 11.7164C17.6031 11.1844 17.5051 10.7784 17.3091 10.4984C17.1131 10.2091 16.8611 10.0644 16.5531 10.0644C16.2357 10.0644 15.9977 10.2091 15.8391 10.4984C15.6804 10.7877 15.6011 11.1657 15.6011 11.6324C15.6011 12.1644 15.6991 12.5704 15.8951 12.8504C16.0911 13.1304 16.3571 13.2704 16.6931 13.2704ZM14.8171 17.5964C14.8171 17.9604 14.9431 18.2591 15.1951 18.4924C15.4471 18.7351 15.8157 18.8564 16.3011 18.8564C16.8984 18.8564 17.3697 18.7164 17.7151 18.4364C18.0604 18.1657 18.2331 17.8437 18.2331 17.4704C18.2331 17.1157 18.1397 16.8684 17.9531 16.7284C17.7664 16.5884 17.4397 16.5184 16.9731 16.5184H15.7691C15.6291 16.5184 15.4937 16.5137 15.3631 16.5044C14.9991 16.7377 14.8171 17.1017 14.8171 17.5964Z" fill="white"/>
</svg>
