<svg width="24" height="24" viewBox="0 0 24 24" fill="none" xmlns="http://www.w3.org/2000/svg">
<path d="M2.85735 16.0004L2.89935 15.7764L3.71135 15.3424L8.62535 6.69043H9.73135L11.5373 15.2864L12.3493 15.7764L12.2933 16.0004H8.24735L8.27535 15.7764L9.49335 15.2724L9.03135 12.9344H5.93735L4.60735 15.3004L5.65735 15.7764L5.60135 16.0004H2.85735ZM6.34335 12.1924H8.89135L8.21935 8.84643L6.34335 12.1924ZM16.9913 16.1404C16.3007 16.1404 15.6987 16.0051 15.1853 15.7344C14.672 15.4637 14.2753 15.0904 13.9953 14.6144C13.7153 14.1291 13.5753 13.5644 13.5753 12.9204C13.5753 12.2297 13.7107 11.5904 13.9813 11.0024C14.252 10.4051 14.6207 9.88243 15.0873 9.43443C15.554 8.98643 16.086 8.63643 16.6833 8.38443C17.29 8.13243 17.9247 8.00643 18.5873 8.00643C19.1287 8.00643 19.5767 8.05776 19.9313 8.16043C20.2953 8.25376 20.65 8.39376 20.9953 8.58043L20.7433 10.7084H20.5053L19.7913 9.08443C19.6233 8.95376 19.4553 8.86043 19.2873 8.80443C19.1193 8.74843 18.9047 8.72043 18.6433 8.72043C18.018 8.72043 17.4673 8.91643 16.9913 9.30843C16.5153 9.70043 16.142 10.2231 15.8713 10.8764C15.61 11.5204 15.4793 12.2297 15.4793 13.0044C15.4793 13.7511 15.652 14.3437 15.9973 14.7824C16.352 15.2211 16.8047 15.4404 17.3553 15.4404C17.5607 15.4404 17.7847 15.4077 18.0273 15.3424L18.4053 13.2284L17.5233 12.6544L17.5653 12.4444H21.2193L21.1773 12.6544L20.2533 13.2284L19.8893 15.2584C19.5347 15.5197 19.11 15.7344 18.6153 15.9024C18.13 16.0611 17.5887 16.1404 16.9913 16.1404Z" fill="white"/>
</svg>
