<svg width="24" height="24" viewBox="0 0 24 24" fill="none" xmlns="http://www.w3.org/2000/svg">
<path d="M2.84023 16.0004V15.7764L3.70823 15.3004L7.33423 6.69043H8.31423L11.8982 15.2724L12.8502 15.7764V16.0004H8.81822V15.7764L10.0362 15.2864L9.04222 12.8504H5.68223L4.70223 15.2864L5.86423 15.7764V16.0004H2.84023ZM6.00423 12.0804H8.72023L7.36223 8.73443L6.00423 12.0804ZM16.5062 13.9284C16.0769 13.9284 15.6802 13.8537 15.3162 13.7044C15.1762 13.7791 15.0782 13.8724 15.0222 13.9844C14.9662 14.0871 14.9382 14.1944 14.9382 14.3064C14.9382 14.5491 15.0222 14.7264 15.1902 14.8384C15.3582 14.9411 15.6195 14.9924 15.9742 14.9924H17.5842C18.2935 14.9924 18.8162 15.1511 19.1522 15.4684C19.4882 15.7764 19.6562 16.2337 19.6562 16.8404C19.6562 17.2604 19.5115 17.6617 19.2222 18.0444C18.9422 18.4271 18.5409 18.7397 18.0182 18.9824C17.4955 19.2344 16.8749 19.3604 16.1562 19.3604C15.2509 19.3604 14.6022 19.2111 14.2102 18.9124C13.8275 18.6137 13.6362 18.2404 13.6362 17.7924C13.6362 17.4471 13.7202 17.1531 13.8882 16.9104L14.7982 16.3224V16.2664C14.0795 16.0611 13.7202 15.6271 13.7202 14.9644C13.7202 14.5631 13.8462 14.2364 14.0982 13.9844L14.8822 13.5504V13.4664C14.5835 13.2704 14.3455 13.0231 14.1682 12.7244C13.9909 12.4164 13.9022 12.0804 13.9022 11.7164C13.9022 11.3057 14.0142 10.9324 14.2382 10.5964C14.4715 10.2604 14.7842 9.9991 15.1762 9.81243C15.5682 9.61643 16.0115 9.51843 16.5062 9.51843C16.7395 9.51843 16.9775 9.54643 17.2202 9.60243C17.4629 9.6491 17.6729 9.71443 17.8502 9.79843L19.9922 9.65843V10.4704L18.6202 10.3724L18.5642 10.4144C18.7322 10.5731 18.8629 10.7691 18.9562 11.0024C19.0589 11.2357 19.1102 11.4737 19.1102 11.7164C19.1102 12.1364 18.9935 12.5144 18.7602 12.8504C18.5362 13.1771 18.2282 13.4384 17.8362 13.6344C17.4442 13.8304 17.0009 13.9284 16.5062 13.9284ZM16.6322 13.3404C16.9495 13.3404 17.1969 13.1911 17.3742 12.8924C17.5609 12.5937 17.6542 12.2157 17.6542 11.7584C17.6542 11.2451 17.5375 10.8391 17.3042 10.5404C17.0802 10.2417 16.7955 10.0924 16.4502 10.0924C16.0955 10.0924 15.8249 10.2464 15.6382 10.5544C15.4609 10.8531 15.3722 11.2264 15.3722 11.6744C15.3722 12.1877 15.4889 12.5937 15.7222 12.8924C15.9555 13.1911 16.2589 13.3404 16.6322 13.3404ZM14.7422 17.5684C14.7422 17.9511 14.8822 18.2684 15.1622 18.5204C15.4422 18.7724 15.8202 18.8984 16.2962 18.8984C16.9029 18.8984 17.3882 18.7444 17.7522 18.4364C18.1162 18.1377 18.2982 17.7831 18.2982 17.3724C18.2982 16.9991 18.1955 16.7377 17.9902 16.5884C17.7942 16.4391 17.4395 16.3644 16.9262 16.3644H15.5962C15.5029 16.3644 15.4142 16.3597 15.3302 16.3504C15.1249 16.4904 14.9755 16.6584 14.8822 16.8544C14.7889 17.0504 14.7422 17.2884 14.7422 17.5684Z" fill="white"/>
</svg>
