<svg width="24" height="24" viewBox="0 0 24 24" fill="none" xmlns="http://www.w3.org/2000/svg">
<path d="M3.45967 17.0003L6.81267 6.82227H8.98267L12.3357 17.0003H10.5787L9.64767 13.9413L10.5927 14.6063H5.56667L6.08467 13.2203H10.1657L9.64067 13.9203L8.54167 10.3503L7.91867 8.04727H7.86267L7.25367 10.3503L5.20967 17.0003H3.45967ZM16.6629 20.1223C16.0422 20.1223 15.4822 20.0196 14.9829 19.8143C14.4882 19.6136 14.1055 19.3056 13.8349 18.8903C13.5642 18.475 13.4592 17.9546 13.5199 17.3293H15.1159C15.1112 17.5953 15.1439 17.8333 15.2139 18.0433C15.2839 18.258 15.4309 18.4283 15.6549 18.5543C15.8789 18.6803 16.2195 18.7433 16.6769 18.7433C17.0735 18.7433 17.3769 18.6873 17.5869 18.5753C17.8015 18.4633 17.9462 18.293 18.0209 18.0643C18.0955 17.8356 18.1329 17.5393 18.1329 17.1753V15.1033C18.0909 15.3226 17.9999 15.5536 17.8599 15.7963C17.7199 16.039 17.5029 16.2443 17.2089 16.4123C16.9149 16.5756 16.5182 16.6573 16.0189 16.6573C15.5662 16.6573 15.1625 16.557 14.8079 16.3563C14.4532 16.1556 14.1522 15.885 13.9049 15.5443C13.6575 15.2036 13.4685 14.821 13.3379 14.3963C13.2119 13.967 13.1489 13.5236 13.1489 13.0663C13.1489 12.217 13.2889 11.5076 13.5689 10.9383C13.8535 10.369 14.2199 9.9396 14.6679 9.65027C15.1159 9.36094 15.5895 9.21627 16.0889 9.21627C16.5322 9.21627 16.8892 9.27694 17.1599 9.39827C17.4352 9.5196 17.6499 9.6666 17.8039 9.83927C17.9579 10.012 18.0699 10.1823 18.1399 10.3503L18.1469 9.36327H19.7639V17.1613C19.7639 17.852 19.6285 18.4143 19.3579 18.8483C19.0919 19.2823 18.7255 19.5996 18.2589 19.8003C17.7922 20.0056 17.2602 20.113 16.6629 20.1223ZM16.5859 15.3343C16.9359 15.3343 17.2182 15.2876 17.4329 15.1943C17.6475 15.0963 17.8109 14.982 17.9229 14.8513C18.0349 14.716 18.1049 14.5993 18.1329 14.5013V11.3023C18.0862 11.1903 17.9999 11.0806 17.8739 10.9733C17.7479 10.866 17.5822 10.7773 17.3769 10.7073C17.1715 10.6373 16.9195 10.6023 16.6209 10.6023C16.1029 10.6023 15.6782 10.7936 15.3469 11.1763C15.0155 11.559 14.8499 12.1586 14.8499 12.9753C14.8499 13.7173 15.0132 14.296 15.3399 14.7113C15.6712 15.1266 16.0865 15.3343 16.5859 15.3343Z" fill="white"/>
</svg>
