<svg width="24" height="24" viewBox="0 0 24 24" fill="none" xmlns="http://www.w3.org/2000/svg">
<path d="M3.69959 17.0003L7.10159 6.82227H8.87959L12.2746 17.0003H10.8816L9.90859 13.9413L10.6646 14.4733H5.47059L5.98859 13.3323H10.3006L9.88759 13.8713L8.59959 9.84627L7.99759 7.79527H7.96259L7.38159 9.84627L5.09259 17.0003H3.69959ZM16.496 20.1153C15.9174 20.1153 15.3924 20.015 14.921 19.8143C14.4497 19.6136 14.0834 19.3056 13.822 18.8903C13.5607 18.4796 13.4557 17.9593 13.507 17.3293H14.767C14.753 17.6793 14.7974 17.978 14.9 18.2253C15.0027 18.4726 15.1847 18.6616 15.446 18.7923C15.7074 18.923 16.0667 18.9883 16.524 18.9883C16.972 18.9883 17.315 18.923 17.553 18.7923C17.791 18.6616 17.9544 18.4586 18.043 18.1833C18.1364 17.908 18.183 17.5533 18.183 17.1193V15.0683C18.141 15.2783 18.0454 15.5046 17.896 15.7473C17.7514 15.99 17.532 16.1976 17.238 16.3703C16.9487 16.543 16.5614 16.6293 16.076 16.6293C15.6327 16.6293 15.2314 16.536 14.872 16.3493C14.5127 16.158 14.2024 15.8966 13.941 15.5653C13.6844 15.234 13.486 14.849 13.346 14.4103C13.2107 13.9716 13.143 13.505 13.143 13.0103C13.143 12.1796 13.283 11.4843 13.563 10.9243C13.843 10.3596 14.2094 9.93494 14.662 9.65027C15.1147 9.36094 15.6 9.21627 16.118 9.21627C16.5427 9.21627 16.8904 9.2746 17.161 9.39127C17.4364 9.50327 17.6557 9.64327 17.819 9.81127C17.9824 9.97927 18.1037 10.1426 18.183 10.3013V9.36327H19.464V17.0773C19.464 17.8146 19.3357 18.405 19.079 18.8483C18.8224 19.2916 18.47 19.6113 18.022 19.8073C17.5787 20.008 17.07 20.1106 16.496 20.1153ZM16.475 15.5443C16.825 15.5443 17.1167 15.4883 17.35 15.3763C17.5834 15.2596 17.7677 15.1173 17.903 14.9493C18.0384 14.7813 18.1317 14.6203 18.183 14.4663V11.2183C18.141 11.1063 18.05 10.9826 17.91 10.8473C17.77 10.712 17.5834 10.5953 17.35 10.4973C17.1167 10.3993 16.832 10.3503 16.496 10.3503C15.8987 10.3503 15.4157 10.565 15.047 10.9943C14.6784 11.419 14.494 12.07 14.494 12.9473C14.494 13.7966 14.6784 14.443 15.047 14.8863C15.4204 15.325 15.8964 15.5443 16.475 15.5443Z" fill="white"/>
</svg>
