<svg width="24" height="24" viewBox="0 0 24 24" fill="none" xmlns="http://www.w3.org/2000/svg">
<path d="M3.04247 17.0003L6.30447 6.82227H8.32047L11.5685 17.0003H9.92346L9.02046 13.9763L9.91646 14.5993H5.05147L5.57647 13.2693H9.51047L9.01346 13.9553L7.94247 10.3433L7.33347 8.01227H7.27747L6.68247 10.3433L4.69447 17.0003H3.04247ZM15.875 20.1783C15.133 20.1783 14.4937 20.085 13.957 19.8983C13.425 19.7116 13.0143 19.455 12.725 19.1283C12.4357 18.8016 12.291 18.4283 12.291 18.0083C12.291 17.663 12.3773 17.376 12.55 17.1473C12.7227 16.9186 12.935 16.7436 13.187 16.6223C13.439 16.501 13.684 16.4333 13.922 16.4193L14.286 16.4543C14.2207 16.5243 14.1507 16.6106 14.076 16.7133C14.0013 16.816 13.9383 16.9396 13.887 17.0843C13.8403 17.229 13.817 17.397 13.817 17.5883C13.817 17.831 13.8753 18.048 13.992 18.2393C14.1087 18.4353 14.314 18.5893 14.608 18.7013C14.902 18.8133 15.3127 18.8693 15.84 18.8693C16.5073 18.8693 16.9903 18.776 17.289 18.5893C17.5877 18.4026 17.737 18.125 17.737 17.7563C17.737 17.5043 17.6553 17.3176 17.492 17.1963C17.3287 17.0796 17.016 16.991 16.554 16.9303L14.741 16.6853C14.139 16.6013 13.6887 16.4776 13.39 16.3143C13.0913 16.1463 12.893 15.9666 12.795 15.7753C12.697 15.584 12.648 15.4113 12.648 15.2573C12.648 14.996 12.7203 14.7813 12.865 14.6133C13.0143 14.4453 13.194 14.3146 13.404 14.2213C13.614 14.128 13.8217 14.065 14.027 14.0323C14.237 13.9996 14.4003 13.9903 14.517 14.0043C14.3863 14.0696 14.279 14.1536 14.195 14.2563C14.111 14.359 14.069 14.5083 14.069 14.7043C14.069 14.919 14.1367 15.08 14.272 15.1873C14.412 15.29 14.657 15.3646 15.007 15.4113L16.813 15.6493C17.4943 15.738 18.0123 15.892 18.367 16.1113C18.7263 16.326 18.9713 16.578 19.102 16.8673C19.2327 17.152 19.298 17.4483 19.298 17.7563C19.298 18.1343 19.2233 18.4726 19.074 18.7713C18.9293 19.0746 18.7123 19.329 18.423 19.5343C18.1337 19.7443 17.7767 19.903 17.352 20.0103C16.9273 20.1223 16.435 20.1783 15.875 20.1783ZM15.861 14.3123C14.9697 14.3123 14.2557 14.0836 13.719 13.6263C13.1823 13.1643 12.914 12.546 12.914 11.7713C12.914 10.9826 13.1847 10.3596 13.726 9.90227C14.272 9.44027 14.9883 9.21627 15.875 9.23027C16.4397 9.2396 16.9413 9.34694 17.38 9.55227C17.8233 9.75294 18.171 10.0423 18.423 10.4203C18.6797 10.7983 18.808 11.2556 18.808 11.7923C18.808 12.567 18.5397 13.1806 18.003 13.6333C17.4663 14.086 16.7523 14.3123 15.861 14.3123ZM15.868 13.0943C16.3673 13.0943 16.7383 12.9823 16.981 12.7583C17.2237 12.5296 17.345 12.2053 17.345 11.7853C17.345 11.356 17.2213 11.027 16.974 10.7983C16.7313 10.565 16.358 10.4483 15.854 10.4483C15.3593 10.4483 14.9907 10.5626 14.748 10.7913C14.5053 11.0153 14.384 11.335 14.384 11.7503C14.384 12.1796 14.5053 12.511 14.748 12.7443C14.9953 12.9776 15.3687 13.0943 15.868 13.0943ZM16.715 9.50327L16.624 9.43327C16.666 9.0226 16.7803 8.69594 16.967 8.45327C17.1537 8.20594 17.3823 8.0286 17.653 7.92127C17.9283 7.80927 18.2107 7.75327 18.5 7.75327C18.5933 7.75327 18.6797 7.75794 18.759 7.76727C18.843 7.7766 18.913 7.79294 18.969 7.81627V9.28627C18.8243 9.26294 18.696 9.24427 18.584 9.23027C18.4767 9.2116 18.318 9.20227 18.108 9.20227C17.9773 9.20227 17.828 9.20227 17.66 9.20227C17.492 9.20227 17.324 9.22327 17.156 9.26527C16.9927 9.3026 16.8457 9.38194 16.715 9.50327Z" fill="white"/>
</svg>
