<svg width="24" height="24" viewBox="0 0 24 24" fill="none" xmlns="http://www.w3.org/2000/svg">
<path d="M3.03547 17.0003L5.87047 6.82227H8.74747L11.5755 17.0003H9.51747L8.71247 13.8153L9.81147 14.6203H5.14247L5.40147 13.0313H9.36347L8.70547 13.7943L7.87947 10.3573L7.36147 8.18027H7.24947L6.73847 10.3573L5.09347 17.0003H3.03547ZM15.798 20.1923C15.014 20.1923 14.342 20.1013 13.782 19.9193C13.2267 19.742 12.7997 19.4876 12.501 19.1563C12.207 18.8296 12.06 18.447 12.06 18.0083C12.06 17.6956 12.1417 17.432 12.305 17.2173C12.473 17.0026 12.69 16.8393 12.956 16.7273C13.222 16.6153 13.5043 16.5593 13.803 16.5593L14.125 16.5523C14.0597 16.613 13.9967 16.6853 13.936 16.7693C13.88 16.8533 13.8333 16.949 13.796 17.0563C13.7633 17.1683 13.747 17.2966 13.747 17.4413C13.747 17.698 13.8147 17.9173 13.95 18.0993C14.09 18.2813 14.307 18.419 14.601 18.5123C14.895 18.6103 15.2777 18.6593 15.749 18.6593C16.3603 18.6593 16.8153 18.5823 17.114 18.4283C17.4173 18.279 17.5667 18.0503 17.562 17.7423C17.562 17.5183 17.4827 17.355 17.324 17.2523C17.1653 17.1496 16.869 17.0726 16.435 17.0213L14.622 16.7903C14.006 16.7063 13.544 16.585 13.236 16.4263C12.928 16.263 12.7227 16.0833 12.62 15.8873C12.522 15.6866 12.473 15.4953 12.473 15.3133C12.473 15.0473 12.55 14.8256 12.704 14.6483C12.8627 14.4663 13.054 14.3216 13.278 14.2143C13.5067 14.107 13.7307 14.0323 13.95 13.9903C14.174 13.9436 14.3513 13.9273 14.482 13.9413C14.3513 14.0066 14.237 14.0883 14.139 14.1863C14.041 14.2796 13.992 14.4266 13.992 14.6273C13.992 14.8093 14.0573 14.9446 14.188 15.0333C14.3187 15.122 14.5707 15.1896 14.944 15.2363L16.841 15.4813C17.541 15.57 18.0753 15.7193 18.444 15.9293C18.8127 16.1393 19.0647 16.3913 19.2 16.6853C19.3353 16.9793 19.403 17.2966 19.403 17.6373C19.403 18.048 19.3097 18.412 19.123 18.7293C18.941 19.0466 18.6867 19.3126 18.36 19.5273C18.0333 19.7466 17.6507 19.9123 17.212 20.0243C16.7733 20.1363 16.302 20.1923 15.798 20.1923ZM15.812 14.3123C14.8367 14.3123 14.0713 14.0836 13.516 13.6263C12.9607 13.1643 12.683 12.5436 12.683 11.7643C12.683 10.9803 12.963 10.3596 13.523 9.90227C14.083 9.44494 14.8507 9.22094 15.826 9.23027C16.4607 9.23494 17.0113 9.34227 17.478 9.55227C17.9447 9.7576 18.3063 10.0493 18.563 10.4273C18.8197 10.8053 18.948 11.2603 18.948 11.7923C18.948 12.567 18.6703 13.1806 18.115 13.6333C17.5597 14.086 16.792 14.3123 15.812 14.3123ZM15.819 12.9473C16.2623 12.9473 16.5913 12.8516 16.806 12.6603C17.0207 12.4643 17.128 12.1726 17.128 11.7853C17.128 11.3886 17.0183 11.0923 16.799 10.8963C16.5843 10.6956 16.253 10.5953 15.805 10.5953C15.385 10.5953 15.063 10.6933 14.839 10.8893C14.615 11.0806 14.503 11.3676 14.503 11.7503C14.503 12.147 14.615 12.4456 14.839 12.6463C15.0677 12.847 15.3943 12.9473 15.819 12.9473ZM16.687 9.46827L16.596 9.39827C16.638 8.9176 16.7547 8.5466 16.946 8.28527C17.1373 8.01927 17.373 7.83494 17.653 7.73227C17.9377 7.62494 18.2293 7.57127 18.528 7.57127C18.6213 7.57127 18.7147 7.57594 18.808 7.58527C18.9013 7.5946 18.976 7.61094 19.032 7.63427V9.33527C18.85 9.29794 18.6727 9.26994 18.5 9.25127C18.332 9.22794 18.1593 9.21627 17.982 9.21627C17.8887 9.21627 17.7673 9.21627 17.618 9.21627C17.4687 9.2116 17.3123 9.22794 17.149 9.26527C16.9857 9.29794 16.8317 9.3656 16.687 9.46827Z" fill="white"/>
</svg>
