<svg width="24" height="24" viewBox="0 0 24 24" fill="none" xmlns="http://www.w3.org/2000/svg">
<path d="M11.202 7.05957C12.294 7.05957 13.1667 7.24157 13.82 7.60557C14.4733 7.96024 14.8 8.4549 14.8 9.08957C14.8 9.4629 14.6927 9.82224 14.478 10.1676C14.2633 10.5036 13.9787 10.7883 13.624 11.0216C13.2693 11.2456 12.896 11.3856 12.504 11.4416C12.7933 11.1709 13.022 10.8863 13.19 10.5876C13.3673 10.2889 13.456 9.9949 13.456 9.70557C13.456 9.20157 13.2133 8.8049 12.728 8.51557C12.2427 8.2169 11.5987 8.06757 10.796 8.06757C9.004 8.06757 7.66 8.70224 6.764 9.97157C5.868 11.2409 5.38734 12.9583 5.322 15.1236C5.76067 15.7769 6.36267 16.1036 7.128 16.1036C8.11734 16.1036 9.12534 15.5996 10.152 14.5916L10.698 12.4076C10.8193 11.9223 10.9407 11.5303 11.062 11.2316L11.02 11.2036C10.74 11.5303 10.3667 11.8103 9.9 12.0436C9.43334 12.2769 8.962 12.3936 8.486 12.3936C8.04734 12.3936 7.702 12.2909 7.45 12.0856C7.20734 11.8803 7.086 11.6049 7.086 11.2596C7.086 10.9796 7.15134 10.7136 7.282 10.4616C7.41267 10.2003 7.59467 9.99024 7.828 9.83157C8.06134 9.6729 8.31334 9.59357 8.584 9.59357C8.82667 9.59357 9.01334 9.6589 9.144 9.78957C9.27467 9.92024 9.34 10.0883 9.34 10.2936C9.34 10.3776 9.33534 10.4429 9.326 10.4896C9.22334 10.3029 9.07867 10.2096 8.892 10.2096C8.70534 10.2096 8.55134 10.2749 8.43 10.4056C8.30867 10.5363 8.248 10.6996 8.248 10.8956C8.248 11.0543 8.30867 11.1803 8.43 11.2736C8.56067 11.3669 8.74267 11.4136 8.976 11.4136C9.89067 11.4136 10.9967 10.6483 12.294 9.11757H12.742L11.104 15.7116C10.9827 16.2156 10.922 16.5796 10.922 16.8036C10.922 16.8783 10.9313 16.9436 10.95 16.9996H9.382C9.48467 16.8689 9.56867 16.7196 9.634 16.5516C9.69934 16.3836 9.77867 16.1036 9.872 15.7116L9.886 15.6556H9.844C8.836 16.6449 7.828 17.1396 6.82 17.1396C6.26 17.1396 5.742 16.9996 5.266 16.7196C4.79934 16.4303 4.454 16.0243 4.23 15.5016C4.174 15.1749 4.146 14.8203 4.146 14.4376C4.146 13.0096 4.43534 11.7403 5.014 10.6296C5.59267 9.50957 6.414 8.6369 7.478 8.01157C8.55134 7.3769 9.79267 7.05957 11.202 7.05957ZM19.1647 18.6656C19.7527 18.9176 20.3127 19.2583 20.8447 19.6876C20.7234 19.6036 20.4947 19.5149 20.1587 19.4216C19.832 19.3376 19.4494 19.2629 19.0107 19.1976C18.7494 19.9629 18.334 20.6209 17.7647 21.1716C17.1954 21.7223 16.3834 21.9976 15.3287 21.9976C14.8154 21.9976 14.3767 21.9136 14.0127 21.7456C13.658 21.5776 13.35 21.3069 13.0887 20.9336C12.986 20.6816 12.9347 20.4203 12.9347 20.1496C12.9347 19.7576 13.0794 19.4076 13.3687 19.0996C13.6487 18.7916 14.05 18.5489 14.5727 18.3716C15.0954 18.2036 15.6974 18.1196 16.3787 18.1196C16.9574 18.1196 17.5314 18.1849 18.1007 18.3156L18.7867 15.5436C18.096 16.5143 17.3587 16.9996 16.5747 16.9996C16.1827 16.9996 15.8327 16.8783 15.5247 16.6356C15.2167 16.3836 14.9274 16.0243 14.6567 15.5576C14.5634 15.0909 14.5167 14.6663 14.5167 14.2836C14.5167 13.4529 14.6754 12.7389 14.9927 12.1416C15.31 11.5349 15.7534 11.0729 16.3227 10.7556C16.9014 10.4383 17.578 10.2796 18.3527 10.2796C19.0434 10.2796 19.6547 10.4196 20.1867 10.6996C20.7187 10.9703 21.1247 11.3436 21.4047 11.8196C21.0314 11.6236 20.63 11.4743 20.2007 11.3716C19.7807 11.2596 19.356 11.2036 18.9267 11.2036C17.8907 11.2036 17.0927 11.4976 16.5327 12.0856C15.9727 12.6643 15.6927 13.4949 15.6927 14.5776C15.6927 14.9229 15.7207 15.2869 15.7767 15.6696C15.926 15.8096 16.0614 15.9123 16.1827 15.9776C16.304 16.0429 16.4534 16.0756 16.6307 16.0756C17.0974 16.0756 17.5547 15.8609 18.0027 15.4316C18.46 15.0023 18.88 14.4096 19.2627 13.6536L19.5287 12.6036C19.6127 12.2396 19.846 12.0576 20.2287 12.0576C20.5367 12.0576 20.6907 12.1789 20.6907 12.4216C20.6907 12.4496 20.6814 12.5103 20.6627 12.6036L19.2207 18.4276L19.1647 18.6656ZM15.1467 21.0736C15.9214 21.0736 16.5234 20.8776 16.9527 20.4856C17.382 20.1029 17.6947 19.6316 17.8907 19.0716C17.5174 19.0529 17.2374 19.0436 17.0507 19.0436C16.0894 19.0436 15.352 19.1649 14.8387 19.4076C14.3347 19.6503 14.0827 19.9723 14.0827 20.3736C14.0827 20.4576 14.0874 20.5369 14.0967 20.6116C14.1154 20.6863 14.134 20.7423 14.1527 20.7796C14.33 20.9756 14.6614 21.0736 15.1467 21.0736Z" fill="white"/>
</svg>
