<svg width="24" height="24" viewBox="0 0 24 24" fill="none" xmlns="http://www.w3.org/2000/svg">
<path d="M10.2754 16.0002L9.99537 14.8102H8.53937L8.95937 12.8782H9.46337L7.97937 6.2002H9.92537L12.2354 16.0002H10.2754ZM5.55737 16.0002L7.36337 7.8522H7.57337L8.41337 11.7722L7.48937 16.0002H5.55737ZM12.7859 18.6602L13.2199 16.9382H15.9919C16.1505 16.9382 16.2719 16.9009 16.3559 16.8262C16.4399 16.7609 16.4959 16.6909 16.5239 16.6162C16.5612 16.5415 16.5799 16.4995 16.5799 16.4902V15.8322C16.5145 15.8415 16.4445 15.8509 16.3699 15.8602C16.3045 15.8695 16.2345 15.8789 16.1599 15.8882C16.0945 15.8882 16.0245 15.8882 15.9499 15.8882V14.1522C16.1179 14.1522 16.2439 14.1289 16.3279 14.0822C16.4212 14.0355 16.4865 13.9749 16.5239 13.9002C16.5612 13.8255 16.5799 13.7555 16.5799 13.6902V10.1202C16.5799 10.0922 16.5612 10.0409 16.5239 9.9662C16.4865 9.89153 16.4212 9.8262 16.3279 9.7702C16.2439 9.70487 16.1179 9.6722 15.9499 9.6722V7.9222C16.0245 7.9222 16.0945 7.92687 16.1599 7.9362C16.2345 7.9362 16.3045 7.94553 16.3699 7.9642C16.4445 7.97353 16.5145 7.98753 16.5799 8.0062V7.9222H18.3719V16.4902C18.3719 16.6582 18.3205 16.8635 18.2179 17.1062C18.1245 17.3489 17.9799 17.5869 17.7839 17.8202C17.5879 18.0629 17.3405 18.2635 17.0419 18.4222C16.7525 18.5809 16.4119 18.6602 16.0199 18.6602H12.7859ZM15.3479 15.8882C14.9372 15.8882 14.5779 15.8089 14.2699 15.6502C13.9712 15.4915 13.7239 15.2955 13.5279 15.0622C13.3319 14.8289 13.1825 14.5909 13.0799 14.3482C12.9865 14.1055 12.9399 13.9002 12.9399 13.7322V10.0502C12.9399 9.87287 12.9865 9.66753 13.0799 9.4342C13.1825 9.19153 13.3319 8.9582 13.5279 8.7342C13.7239 8.50087 13.9712 8.30953 14.2699 8.1602C14.5779 8.00153 14.9372 7.9222 15.3479 7.9222V9.6722C15.1799 9.6722 15.0445 9.70487 14.9419 9.7702C14.8485 9.8262 14.7832 9.88687 14.7459 9.9522C14.7085 10.0175 14.6899 10.0642 14.6899 10.0922V13.7182C14.6899 13.7742 14.7085 13.8395 14.7459 13.9142C14.7925 13.9795 14.8625 14.0355 14.9559 14.0822C15.0492 14.1289 15.1799 14.1522 15.3479 14.1522V15.8882Z" fill="white"/>
</svg>
