<svg width="24" height="24" viewBox="0 0 24 24" fill="none" xmlns="http://www.w3.org/2000/svg">
<path d="M12.5824 15.9081V16.035C12.5824 16.3735 12.4766 16.6062 12.265 16.7332C12.0535 16.8495 11.7996 16.9077 11.5034 16.9077C11.3659 16.9077 11.2601 16.9024 11.1861 16.8918C11.1121 16.8707 11.0486 16.8231 10.9957 16.749C10.9428 16.675 10.8899 16.5586 10.837 16.4C10.7947 16.2413 10.7365 16.0192 10.6625 15.7336C10.5885 15.4268 10.5091 15.1729 10.4245 14.972C10.3399 14.771 10.2341 14.6123 10.1072 14.496C9.99082 14.369 9.83744 14.2791 9.64704 14.2262C9.46722 14.1733 9.22922 14.1469 8.93304 14.1469C8.37242 14.1469 7.93873 14.1681 7.63197 14.2104C7.32522 14.2527 7.0925 14.332 6.93384 14.4484C6.77517 14.5541 6.65882 14.7075 6.58477 14.9085C6.51073 15.0989 6.4261 15.3475 6.3309 15.6542C6.25686 15.8764 6.20397 16.0985 6.17224 16.3206C6.15108 16.5322 6.10877 16.6856 6.0453 16.7808C5.99242 16.8654 5.84433 16.9077 5.60104 16.9077C5.35775 16.9077 5.16206 16.8072 5.01397 16.6062C4.87646 16.4053 4.8077 16.1831 4.8077 15.9398C4.8077 15.686 4.89233 15.4427 5.06157 15.21C5.14619 15.0936 5.21495 14.9825 5.26784 14.8768C5.3313 14.7604 5.38419 14.6546 5.4265 14.5594C5.46882 14.4642 5.5693 14.1786 5.72797 13.7026C5.88664 13.2161 6.11935 12.5391 6.4261 11.6717C6.72228 10.8043 6.96557 10.1062 7.15597 9.5773C7.35695 9.03783 7.51033 8.65703 7.6161 8.4349C7.81708 8.01179 7.99162 7.74205 8.1397 7.6257C8.28779 7.50934 8.4729 7.45117 8.69504 7.45117C8.91717 7.45117 9.11815 7.5305 9.29797 7.68917C9.48837 7.84783 9.68935 8.15459 9.9009 8.60943C9.9009 8.60943 10.6096 10.6086 12.027 14.607C12.1011 14.8186 12.2121 15.046 12.3602 15.2893C12.5083 15.5326 12.5824 15.7389 12.5824 15.9081ZM8.79024 13.179C9.48837 13.179 9.83744 13.1156 9.83744 12.9886V12.941C9.83744 12.9199 9.82686 12.8776 9.8057 12.8141C9.79513 12.7506 9.77926 12.6607 9.7581 12.5444L9.64704 12.1477C9.64704 12.1371 9.63646 12.1001 9.6153 12.0366C9.60473 12.0155 9.54126 11.7405 9.4249 11.2116C9.29797 10.7038 9.1393 10.2225 8.9489 9.7677C8.7585 9.32343 8.64744 9.1013 8.6157 9.1013C8.58397 9.1013 8.50464 9.26525 8.3777 9.59317C7.6161 11.4972 7.2353 12.6237 7.2353 12.9728V13.0204C7.2353 13.1261 7.46802 13.179 7.93344 13.179H8.79024ZM16.5514 20.1762C16.3081 20.1762 16.0701 20.1498 15.8374 20.0969C15.6153 20.0546 15.4143 19.9911 15.2345 19.9065C15.0546 19.8219 14.9118 19.7267 14.8061 19.6209C14.7003 19.5257 14.6474 19.4199 14.6474 19.3036C14.6474 19.018 14.8642 18.8752 15.2979 18.8752C15.372 18.8752 15.4566 18.8805 15.5518 18.891C15.6576 18.9016 15.7686 18.9175 15.885 18.9386C16.0013 18.9598 16.1124 18.9757 16.2182 18.9862C16.324 18.9968 16.4192 19.0021 16.5038 19.0021C17.075 19.0021 17.5298 18.8487 17.8683 18.542C18.2068 18.2352 18.3761 17.7962 18.3761 17.225C18.3761 17.0029 18.2756 16.8918 18.0746 16.8918L17.7414 16.9236C17.551 16.9553 17.276 16.9712 16.9163 16.9712C16.4509 16.9712 16.0437 16.8813 15.6946 16.7014C15.3455 16.5216 15.0546 16.2836 14.8219 15.9874C14.5892 15.6807 14.4147 15.3316 14.2983 14.9402C14.1925 14.5489 14.1397 14.1416 14.1397 13.7185V13.5281C14.1397 13.0944 14.1978 12.6925 14.3142 12.3222C14.4411 11.9414 14.6209 11.6135 14.8537 11.3385C15.0969 11.0635 15.3931 10.8466 15.7422 10.688C16.1018 10.5293 16.5144 10.45 16.9798 10.45C17.2971 10.45 17.6303 10.5134 17.9794 10.6404C18.1592 10.7038 18.3126 10.7514 18.4395 10.7832C18.577 10.8043 18.6987 10.8149 18.8045 10.8149H19.0107C19.2117 10.8149 19.3757 10.8942 19.5026 11.0529C19.6401 11.2116 19.7089 11.4443 19.7089 11.751V12.1001C19.7089 12.1847 19.6771 12.6872 19.6137 13.6074C19.5819 14.0729 19.5555 14.4801 19.5343 14.8292C19.5132 15.1677 19.5026 15.4585 19.5026 15.7018L19.5819 17.2885C19.5819 18.2511 19.3016 18.9704 18.741 19.4464C18.1804 19.9329 17.4505 20.1762 16.5514 20.1762ZM15.2979 13.6709V13.9565C15.2979 14.6017 15.409 15.1148 15.6311 15.4956C15.8638 15.8764 16.1812 16.0668 16.5831 16.0668H16.8211C17.1385 16.0668 17.3923 15.998 17.5827 15.8605C17.7731 15.723 17.9159 15.5485 18.0111 15.3369C18.1063 15.1148 18.1698 14.8768 18.2015 14.6229C18.2333 14.3585 18.2491 14.0993 18.2491 13.8454L18.265 13.4964V13.1473L18.2491 13.068V12.8617L18.2333 12.6078C18.2333 12.227 18.1381 11.9309 17.9477 11.7193C17.7573 11.5077 17.5087 11.402 17.2019 11.402H17.0274C16.5197 11.402 16.1018 11.6082 15.7739 12.0208C15.4566 12.4227 15.2979 12.9728 15.2979 13.6709Z" fill="white"/>
</svg>
