<svg width="24" height="24" viewBox="0 0 24 24" fill="none" xmlns="http://www.w3.org/2000/svg">
<path d="M3.23474 15.7538L3.66874 15.4878L6.94474 7.54984L9.32474 7.33984L12.1247 14.8998C12.2181 15.1425 12.2834 15.3011 12.3207 15.3758C12.3581 15.4505 12.4281 15.5531 12.5307 15.6838L12.7827 16.0058L12.6987 16.9998H8.76474L8.62474 15.6698L9.61874 15.4178L9.17074 14.0038L6.32874 14.0458L6.02074 14.9278C5.99274 15.0118 5.97874 15.0818 5.97874 15.1378C5.97874 15.2031 5.98808 15.2545 6.00674 15.2918C6.03474 15.3198 6.07674 15.3431 6.13274 15.3618L7.09874 15.7678L6.95874 16.9998H3.29074L3.23474 15.7538ZM7.81274 9.73384L6.88874 12.4218L8.69474 12.5058L7.81274 9.73384ZM16.2255 20.1918C15.1522 20.1918 14.3402 20.0238 13.7895 19.6878C13.2482 19.3518 12.9775 18.8571 12.9775 18.2038C12.9775 17.5131 13.2949 16.9065 13.9295 16.3838C13.7335 16.1878 13.6355 15.9731 13.6355 15.7398C13.6355 15.4038 13.8549 14.9278 14.2935 14.3118C13.5282 13.9105 13.1455 13.2198 13.1455 12.2398C13.1455 11.3811 13.4349 10.7185 14.0135 10.2518C14.6015 9.77584 15.4462 9.53784 16.5475 9.53784C17.3222 9.53784 17.9569 9.65451 18.4515 9.88784L20.1315 9.36984H20.7895V11.3998H19.6975C19.7442 11.6331 19.7675 11.8618 19.7675 12.0858C19.7675 12.9445 19.4782 13.5978 18.8995 14.0458C18.3209 14.4938 17.4715 14.7178 16.3515 14.7178C15.9689 14.7178 15.6235 14.6898 15.3155 14.6338V14.8298C15.3155 14.9791 15.3762 15.0865 15.4975 15.1518C15.6282 15.2078 15.9035 15.2638 16.3235 15.3198L17.5835 15.5018C18.5729 15.6418 19.2542 15.8845 19.6275 16.2298C20.0102 16.5751 20.2015 17.0185 20.2015 17.5598C20.2015 18.3998 19.8562 19.0485 19.1655 19.5058C18.4749 19.9631 17.4949 20.1918 16.2255 20.1918ZM16.5615 13.3458C16.7575 13.3458 16.9815 13.3178 17.2335 13.2618C17.2709 13.1498 17.3035 12.9818 17.3315 12.7578C17.3689 12.5338 17.3875 12.3285 17.3875 12.1418C17.3875 11.7218 17.2942 11.4091 17.1075 11.2038C16.9302 10.9985 16.6502 10.8958 16.2675 10.8958C16.0809 10.8958 15.8755 10.9238 15.6515 10.9798C15.6049 11.0918 15.5629 11.2551 15.5255 11.4698C15.4975 11.6845 15.4835 11.8898 15.4835 12.0858C15.4835 12.5151 15.5722 12.8325 15.7495 13.0378C15.9269 13.2431 16.1975 13.3458 16.5615 13.3458ZM16.8695 18.6098C17.2989 18.6098 17.6255 18.5725 17.8495 18.4978C17.9055 18.3858 17.9335 18.2365 17.9335 18.0498C17.9335 17.8258 17.8542 17.6531 17.6955 17.5318C17.5369 17.4198 17.2522 17.3358 16.8415 17.2798L16.3935 17.2098C15.9829 17.1631 15.5675 17.0978 15.1475 17.0138C15.0915 17.2658 15.0635 17.4665 15.0635 17.6158C15.0635 17.9518 15.2129 18.1991 15.5115 18.3578C15.8102 18.5258 16.2629 18.6098 16.8695 18.6098Z" fill="white"/>
</svg>
