<svg width="24" height="24" viewBox="0 0 24 24" fill="none" xmlns="http://www.w3.org/2000/svg">
<path d="M8.36912 7.74823L6.61527 12.8636H10.1647L8.43175 7.74823H8.36912ZM6.61527 16.6428C6.2812 16.5732 5.72443 16.5384 4.94494 16.5384C4.16545 16.5384 3.55996 16.5732 3.12846 16.6428L3.33725 15.6614H3.65043C3.90098 15.6614 4.12369 15.6336 4.31857 15.5779C4.51344 15.3135 4.64567 15.0768 4.71527 14.868C4.79879 14.6453 4.89622 14.3739 5.00758 14.0537C5.13285 13.7336 5.27901 13.3647 5.44604 12.9472C5.61307 12.5296 5.78706 12.0772 5.96802 11.59C6.16289 11.1028 6.35776 10.6226 6.55263 10.1494L8.01417 6.47461H8.66142C8.99549 6.47461 9.27388 6.51636 9.49659 6.59988L12.5867 14.7219C12.7537 15.1255 12.8929 15.4109 13.0043 15.5779C13.227 15.6336 13.4497 15.6614 13.6724 15.6614H13.9856L14.1944 16.6428C13.8046 16.5732 13.3801 16.5384 12.9208 16.5384H11.9394C11.3409 16.5384 10.8329 16.5732 10.4153 16.6428L10.2691 15.6614H10.3944C10.6449 15.6614 10.8816 15.6336 11.1043 15.5779C11.1043 15.3691 11.0347 15.0977 10.8955 14.7636L10.4153 13.5944H6.3856L6.00977 14.7219C5.89842 15.0559 5.84274 15.3204 5.84274 15.5153C5.84274 15.6127 6.01673 15.6614 6.36472 15.6614H6.67791L6.61527 16.6428ZM15.7862 16.079C15.4104 16.0233 15.2224 15.7032 15.2224 15.1186C15.2224 14.8541 15.292 14.5896 15.4312 14.3252C15.5843 14.0607 15.8071 13.8867 16.0994 13.8032V13.7823C15.3338 13.3369 14.951 12.627 14.951 11.6526C14.951 10.4834 15.5287 9.69695 16.684 9.29329C17.0459 9.16801 17.4426 9.10538 17.8741 9.10538C18.3195 9.10538 18.8345 9.20977 19.4191 9.41856L21.1939 9.18889C21.4444 9.18889 21.5906 9.23761 21.6323 9.33505C21.6741 9.43248 21.695 9.64823 21.695 9.9823V10.1285H20.1499C20.5397 10.6017 20.7345 11.075 20.7345 11.5483C20.7345 12.4252 20.4701 13.1072 19.9411 13.5944C19.4122 14.0816 18.5979 14.3252 17.4983 14.3252C17.4147 14.3252 17.0946 14.2904 16.5378 14.2208C16.4961 14.2765 16.4682 14.3391 16.4543 14.4087C16.4404 14.4644 16.4195 14.527 16.3917 14.5966C16.3778 14.6662 16.3708 14.7636 16.3708 14.8889C16.3708 15.0142 16.4543 15.1116 16.6213 15.1812C16.7884 15.2508 17.1433 15.2856 17.6862 15.2856C18.9111 15.2856 19.795 15.4248 20.3378 15.7032C21.0199 16.0373 21.3609 16.6358 21.3609 17.4988C21.3609 18.9464 20.136 19.6702 17.6862 19.6702C16.0994 19.6702 15.0972 19.2457 14.6796 18.3966C14.5543 18.1461 14.4917 17.8816 14.4917 17.6032C14.4917 16.8794 14.9232 16.3852 15.7862 16.1208V16.079ZM20.0455 17.5406C20.0455 17.123 19.9063 16.8028 19.6279 16.5801C19.3495 16.3713 18.8276 16.2669 18.062 16.2669C17.2964 16.2669 16.7745 16.2809 16.4961 16.3087C16.0367 16.8655 15.8071 17.3109 15.8071 17.645C15.8071 17.979 15.9045 18.2226 16.0994 18.3757C16.503 18.6959 17.0111 18.8559 17.6235 18.8559C18.6397 18.8559 19.2939 18.7446 19.5862 18.5219C19.8924 18.2992 20.0455 17.9721 20.0455 17.5406ZM19.3983 11.7362C19.3983 10.5252 18.8832 9.91966 17.8532 9.91966C17.2964 9.91966 16.8928 10.0728 16.6422 10.379C16.3917 10.6713 16.2664 11.0472 16.2664 11.5065C16.2664 11.9658 16.3012 12.2999 16.3708 12.5087C16.4543 12.7175 16.5726 12.8915 16.7257 13.0307C17.0041 13.2812 17.373 13.4065 17.8323 13.4065C18.2917 13.4065 18.6675 13.2743 18.9598 13.0098C19.2521 12.7453 19.3983 12.3208 19.3983 11.7362Z" fill="white"/>
</svg>
