<svg width="24" height="24" viewBox="0 0 24 24" fill="none" xmlns="http://www.w3.org/2000/svg">
<path d="M9.18761 14.1735H5.11491L4.42904 15.5559H2.22786L6.05067 8.25054H8.25184L12.0747 15.5559H9.87348L9.18761 14.1735ZM5.82205 12.7486H8.4911L7.16189 10.0582L5.82205 12.7486ZM17.9763 8.06445C18.6923 8.06445 19.357 8.12648 19.9702 8.25054C20.5869 8.37105 21.1523 8.52701 21.6662 8.71842V10.5049C21.4642 10.3914 21.2356 10.2815 20.9804 10.1752C20.7287 10.0689 20.454 9.97497 20.1563 9.89344C19.8585 9.81192 19.5395 9.74634 19.1992 9.69672C18.8589 9.64709 18.5009 9.62228 18.1252 9.62228C17.6573 9.62228 17.2497 9.65595 16.9023 9.7233C16.555 9.79065 16.2572 9.88103 16.0091 9.99446C15.761 10.1079 15.5572 10.2408 15.3977 10.3932C15.2382 10.5421 15.1123 10.7016 15.0202 10.8717C14.928 11.0419 14.8642 11.2155 14.8288 11.3928C14.7933 11.57 14.7756 11.7419 14.7756 11.9085C14.7756 12.0538 14.7898 12.2116 14.8181 12.3817C14.85 12.5518 14.9068 12.722 14.9883 12.8921C15.0734 13.0623 15.1903 13.2253 15.3392 13.3813C15.4881 13.5372 15.6812 13.6755 15.9187 13.796C16.1598 13.9165 16.4486 14.014 16.7854 14.0884C17.1221 14.1593 17.5226 14.1947 17.987 14.1947C18.2209 14.1947 18.4247 14.1877 18.5984 14.1735C18.7721 14.1593 18.9298 14.1398 19.0716 14.115C19.2169 14.0902 19.3516 14.0601 19.4757 14.0246C19.6033 13.9892 19.7344 13.9519 19.8691 13.913V13.0304H17.6573V11.43H21.8417V15.1624C21.5794 15.251 21.2852 15.3325 20.9591 15.407C20.6365 15.4779 20.3016 15.5381 19.9542 15.5878C19.6104 15.6409 19.2648 15.6817 18.9174 15.71C18.5701 15.7384 18.2422 15.7526 17.9338 15.7526C17.4553 15.7526 16.9963 15.7207 16.5567 15.6569C16.1172 15.5931 15.7061 15.4956 15.3232 15.3644C14.944 15.2298 14.5966 15.0596 14.2811 14.854C13.9692 14.6484 13.7016 14.4039 13.4783 14.1203C13.2585 13.8367 13.0866 13.5124 12.9626 13.1473C12.842 12.7787 12.7818 12.3658 12.7818 11.9085C12.7818 11.4548 12.8456 11.0436 12.9732 10.675C13.1008 10.3064 13.278 9.98028 13.5049 9.69672C13.7353 9.41315 14.01 9.16858 14.329 8.96299C14.6515 8.75741 15.0042 8.58904 15.387 8.45789C15.7734 8.3232 16.1846 8.22395 16.6206 8.16015C17.0601 8.09635 17.512 8.06445 17.9763 8.06445Z" fill="white"/>
</svg>
