<svg width="24" height="24" viewBox="0 0 24 24" fill="none" xmlns="http://www.w3.org/2000/svg">
<path d="M13.5172 15.6359V15.9999H9.9752V15.6359H10.2132C10.4185 15.6359 10.5772 15.5986 10.6892 15.5239C10.8105 15.4492 10.8712 15.3466 10.8712 15.2159C10.8712 15.1412 10.8572 15.0619 10.8292 14.9779L10.1292 13.0599H6.2092L5.4952 14.9779C5.47653 15.0152 5.4672 15.0712 5.4672 15.1459C5.4672 15.2952 5.5372 15.4166 5.6772 15.5099C5.8172 15.5939 5.98053 15.6359 6.1672 15.6359H6.4192V15.9999H3.3952V15.6359H3.6052C3.79186 15.6359 3.9832 15.5892 4.1792 15.4959C4.3752 15.4026 4.5012 15.2812 4.5572 15.1319L7.8752 6.42391L8.8972 6.00391L12.3972 15.1459C12.4532 15.2952 12.5652 15.4166 12.7332 15.5099C12.9105 15.5939 13.0879 15.6359 13.2652 15.6359H13.5172ZM9.9332 12.4999L8.1972 7.72591L6.4192 12.4999H9.9332ZM20.1028 9.27991C20.3641 9.27991 20.5741 9.33591 20.7328 9.44791C20.9008 9.55991 20.9848 9.69524 20.9848 9.85391C20.9848 10.0032 20.9428 10.1199 20.8588 10.2039C20.7841 10.2879 20.6721 10.3299 20.5228 10.3299C20.4201 10.3299 20.3408 10.3112 20.2848 10.2739C20.2381 10.2366 20.1914 10.1806 20.1448 10.1059C20.0888 10.0219 20.0281 9.96124 19.9628 9.92391C19.9068 9.87724 19.8181 9.85391 19.6968 9.85391C19.5568 9.85391 19.3748 9.91458 19.1508 10.0359C19.5334 10.3999 19.7248 10.8852 19.7248 11.4919C19.7248 12.1919 19.4728 12.7332 18.9688 13.1159C18.4648 13.4986 17.7648 13.6899 16.8688 13.6899C16.2901 13.6899 15.7908 13.6059 15.3708 13.4379C15.0908 13.6432 14.9508 13.8579 14.9508 14.0819C14.9508 14.2592 15.0348 14.4039 15.2028 14.5159C15.3708 14.6279 15.6088 14.6839 15.9168 14.6839H18.1708C18.7401 14.6839 19.2114 14.8099 19.5848 15.0619C19.9674 15.3046 20.1588 15.6732 20.1588 16.1679C20.1588 16.8212 19.8601 17.3206 19.2628 17.6659C18.6654 18.0112 17.8488 18.1839 16.8128 18.1839C15.9354 18.1839 15.2401 18.0392 14.7268 17.7499C14.2228 17.4699 13.9708 17.0639 13.9708 16.5319C13.9708 15.9812 14.3208 15.5752 15.0208 15.3139C14.7128 15.2299 14.4841 15.0992 14.3348 14.9219C14.1948 14.7446 14.1248 14.5486 14.1248 14.3339C14.1248 13.9326 14.3908 13.5592 14.9228 13.2139C14.6428 13.0179 14.4234 12.7752 14.2648 12.4859C14.1154 12.1966 14.0408 11.8652 14.0408 11.4919C14.0408 10.8012 14.2928 10.2599 14.7968 9.86791C15.3008 9.47591 15.9914 9.27991 16.8688 9.27991C17.6808 9.27991 18.3294 9.44324 18.8148 9.76991C19.1974 9.44324 19.6268 9.27991 20.1028 9.27991ZM16.8688 13.1719C17.3821 13.1719 17.7694 13.0179 18.0308 12.7099C18.2921 12.3926 18.4228 11.9866 18.4228 11.4919C18.4228 10.9972 18.2921 10.5959 18.0308 10.2879C17.7694 9.97058 17.3821 9.81191 16.8688 9.81191C16.3648 9.81191 15.9821 9.97058 15.7208 10.2879C15.4688 10.5959 15.3428 10.9972 15.3428 11.4919C15.3428 11.9866 15.4688 12.3926 15.7208 12.7099C15.9821 13.0179 16.3648 13.1719 16.8688 13.1719ZM15.6788 15.5239C15.4081 15.6266 15.2121 15.7806 15.0908 15.9859C14.9788 16.1819 14.9228 16.3686 14.9228 16.5459C14.9228 16.9192 15.1001 17.1992 15.4548 17.3859C15.8094 17.5819 16.2808 17.6799 16.8688 17.6799C17.5314 17.6799 18.0541 17.5679 18.4368 17.3439C18.8194 17.1199 19.0108 16.8026 19.0108 16.3919C19.0108 16.0932 18.9081 15.8739 18.7028 15.7339C18.5068 15.5939 18.1754 15.5239 17.7088 15.5239H15.6788Z" fill="white"/>
</svg>
