<svg width="24" height="24" viewBox="0 0 24 24" fill="none" xmlns="http://www.w3.org/2000/svg">
<path d="M12.4776 15.6922L12.4216 16.0002H9.3136L9.3696 15.6922H9.5796C9.76627 15.6922 9.9436 15.6595 10.1116 15.5942C10.2889 15.5289 10.3683 15.4449 10.3496 15.3422L10.0276 12.9622H6.2056L5.0156 15.0762C4.96894 15.1415 4.9456 15.2115 4.9456 15.2862C4.9456 15.4075 5.01094 15.5055 5.1416 15.5802C5.27227 15.6549 5.41694 15.6922 5.5756 15.6922H5.7996L5.7436 16.0002H2.9576L3.0136 15.6922H3.2236C3.40094 15.6922 3.59227 15.6455 3.7976 15.5522C4.01227 15.4495 4.1616 15.3329 4.2456 15.2022L9.2156 6.39623L10.0416 6.03223L11.4976 15.2022C11.5256 15.3515 11.6143 15.4729 11.7636 15.5662C11.9129 15.6502 12.0763 15.6922 12.2536 15.6922H12.4776ZM9.9576 12.4722L9.2716 7.48823L6.4716 12.4722H9.9576ZM19.8496 9.28023C20.0829 9.28023 20.2556 9.33156 20.3676 9.43423C20.4889 9.52756 20.5356 9.64423 20.5076 9.78423C20.4796 9.9149 20.4236 10.0175 20.3396 10.0922C20.2556 10.1575 20.1529 10.1902 20.0316 10.1902C19.9476 10.1902 19.8869 10.1762 19.8496 10.1482C19.8122 10.1109 19.7796 10.0595 19.7516 9.99423C19.7236 9.91956 19.6862 9.86356 19.6396 9.82623C19.5929 9.7889 19.5089 9.77023 19.3876 9.77023C19.2756 9.77023 19.0796 9.83556 18.7996 9.96623C19.0142 10.2369 19.1216 10.5682 19.1216 10.9602C19.1216 11.1469 19.1029 11.3195 19.0656 11.4782C18.9256 12.1595 18.5849 12.6962 18.0436 13.0882C17.5022 13.4709 16.8256 13.6622 16.0136 13.6622C15.4536 13.6622 14.9962 13.5689 14.6416 13.3822C14.2402 13.6529 14.0396 13.9235 14.0396 14.1942C14.0396 14.3622 14.1189 14.4929 14.2776 14.5862C14.4362 14.6795 14.6602 14.7262 14.9496 14.7262H16.9796C17.4369 14.7262 17.8149 14.8149 18.1136 14.9922C18.4122 15.1695 18.5616 15.4449 18.5616 15.8182C18.5616 15.9209 18.5476 16.0282 18.5196 16.1402C18.3889 16.7935 18.0109 17.2835 17.3856 17.6102C16.7696 17.9369 15.9949 18.1002 15.0616 18.1002C14.3522 18.1002 13.7922 17.9835 13.3816 17.7502C12.9709 17.5169 12.7656 17.1855 12.7656 16.7562C12.7656 16.6255 12.7749 16.5275 12.7936 16.4622C12.9056 15.9302 13.2696 15.5149 13.8856 15.2162C13.7082 15.1415 13.5729 15.0389 13.4796 14.9082C13.3956 14.7775 13.3536 14.6329 13.3536 14.4742C13.3536 14.0075 13.6802 13.5735 14.3336 13.1722C13.9882 12.8829 13.8156 12.4862 13.8156 11.9822C13.8156 11.8235 13.8296 11.6555 13.8576 11.4782C14.0069 10.7875 14.3522 10.2509 14.8936 9.86823C15.4349 9.47623 16.1069 9.28023 16.9096 9.28023C17.6282 9.28023 18.1836 9.4389 18.5756 9.75623C18.9769 9.4389 19.4016 9.28023 19.8496 9.28023ZM18.0996 11.4782C18.1369 11.3289 18.1556 11.1655 18.1556 10.9882C18.1556 10.6149 18.0436 10.3115 17.8196 10.0782C17.5956 9.8449 17.2642 9.72823 16.8256 9.72823C16.2842 9.72823 15.8409 9.89156 15.4956 10.2182C15.1596 10.5449 14.9402 10.9649 14.8376 11.4782C14.8002 11.7022 14.7816 11.8609 14.7816 11.9542C14.7816 12.3369 14.8889 12.6449 15.1036 12.8782C15.3276 13.1022 15.6636 13.2142 16.1116 13.2142C16.6436 13.2142 17.0822 13.0509 17.4276 12.7242C17.7729 12.3975 17.9969 11.9822 18.0996 11.4782ZM14.6696 15.4122C14.3429 15.4122 14.0769 15.5335 13.8716 15.7762C13.6662 16.0189 13.5449 16.2615 13.5076 16.5042C13.4889 16.5975 13.4796 16.6629 13.4796 16.7002C13.4796 17.0082 13.6382 17.2415 13.9556 17.4002C14.2729 17.5589 14.6882 17.6382 15.2016 17.6382C15.8829 17.6382 16.4336 17.5215 16.8536 17.2882C17.2736 17.0642 17.5302 16.7329 17.6236 16.2942C17.6422 16.2009 17.6516 16.1309 17.6516 16.0842C17.6516 15.6362 17.2409 15.4122 16.4196 15.4122H14.6696Z" fill="white"/>
</svg>
