<svg width="24" height="24" viewBox="0 0 24 24" fill="none" xmlns="http://www.w3.org/2000/svg">
<path d="M13.5098 15.5659V15.9999H9.67376V15.5659H9.92576C10.1498 15.5659 10.3084 15.5332 10.4018 15.4679C10.5044 15.4026 10.5558 15.3046 10.5558 15.1739C10.5558 15.0526 10.5091 14.8612 10.4158 14.5999L9.88376 13.1579H6.03376L5.38976 14.8799C5.36176 14.9639 5.34776 15.0339 5.34776 15.0899C5.34776 15.2392 5.41309 15.3559 5.54376 15.4399C5.67442 15.5239 5.83309 15.5659 6.01976 15.5659H6.28576V15.9999H3.12176V15.5659H3.33176C3.52776 15.5659 3.71909 15.5192 3.90576 15.4259C4.10176 15.3326 4.22776 15.2112 4.28376 15.0619L7.61576 6.43791L8.86176 5.96191L12.4038 15.0759C12.4691 15.2346 12.5811 15.3559 12.7398 15.4399C12.8984 15.5239 13.0664 15.5659 13.2438 15.5659H13.5098ZM9.64576 12.5139L7.97976 7.94991L6.27176 12.5139H9.64576ZM20.3691 9.27991C20.6584 9.27991 20.8918 9.34058 21.0691 9.46191C21.2558 9.58324 21.3491 9.73724 21.3491 9.92391C21.3491 10.0919 21.3024 10.2272 21.2091 10.3299C21.1158 10.4232 20.9851 10.4699 20.8171 10.4699C20.7051 10.4699 20.6211 10.4512 20.5651 10.4139C20.5091 10.3672 20.4531 10.3019 20.3971 10.2179C20.3411 10.1246 20.2804 10.0546 20.2151 10.0079C20.1591 9.96124 20.0611 9.93791 19.9211 9.93791C19.7904 9.93791 19.6224 9.98924 19.4171 10.0919C19.7718 10.4652 19.9491 10.9366 19.9491 11.5059C19.9491 12.2059 19.6878 12.7472 19.1651 13.1299C18.6424 13.5126 17.9098 13.7039 16.9671 13.7039C16.3978 13.7039 15.8891 13.6292 15.4411 13.4799C15.1891 13.6572 15.0631 13.8532 15.0631 14.0679C15.0631 14.2359 15.1378 14.3712 15.2871 14.4739C15.4458 14.5766 15.6604 14.6279 15.9311 14.6279H18.3111C18.9084 14.6279 19.4031 14.7586 19.7951 15.0199C20.1964 15.2812 20.3971 15.6686 20.3971 16.1819C20.3971 16.8446 20.0891 17.3579 19.4731 17.7219C18.8571 18.0859 17.9984 18.2679 16.8971 18.2679C15.9638 18.2679 15.2358 18.1232 14.7131 17.8339C14.1904 17.5539 13.9291 17.1432 13.9291 16.6019C13.9291 16.0512 14.2978 15.6546 15.0351 15.4119C14.7084 15.3186 14.4704 15.1832 14.3211 15.0059C14.1718 14.8192 14.0971 14.6139 14.0971 14.3899C14.0971 13.9886 14.3724 13.6012 14.9231 13.2279C14.3071 12.8546 13.9991 12.2806 13.9991 11.5059C13.9991 10.7966 14.2604 10.2506 14.7831 9.86791C15.3058 9.47591 16.0338 9.27991 16.9671 9.27991C17.8258 9.27991 18.5118 9.44324 19.0251 9.76991C19.4264 9.44324 19.8744 9.27991 20.3691 9.27991ZM16.9671 13.1159C17.4338 13.1159 17.7791 12.9666 18.0031 12.6679C18.2364 12.3692 18.3531 11.9819 18.3531 11.5059C18.3531 11.0299 18.2364 10.6426 18.0031 10.3439C17.7791 10.0359 17.4338 9.88191 16.9671 9.88191C16.5098 9.88191 16.1644 10.0359 15.9311 10.3439C15.7071 10.6426 15.5951 11.0299 15.5951 11.5059C15.5951 11.9819 15.7071 12.3692 15.9311 12.6679C16.1644 12.9666 16.5098 13.1159 16.9671 13.1159ZM15.8471 15.6639C15.5764 15.7479 15.3804 15.8832 15.2591 16.0699C15.1378 16.2659 15.0771 16.4479 15.0771 16.6159C15.0771 16.9706 15.2451 17.2366 15.5811 17.4139C15.9264 17.6006 16.3838 17.6939 16.9531 17.6939C17.5784 17.6939 18.0731 17.5866 18.4371 17.3719C18.8011 17.1666 18.9831 16.8679 18.9831 16.4759C18.9831 16.1959 18.8758 15.9906 18.6611 15.8599C18.4558 15.7292 18.1104 15.6639 17.6251 15.6639H15.8471Z" fill="white"/>
</svg>
