<svg width="24" height="24" viewBox="0 0 24 24" fill="none" xmlns="http://www.w3.org/2000/svg">
<path d="M12.2802 16.209C12.2802 16.4709 12.2483 16.7135 12.1844 16.937C12.1206 17.1542 12.0343 17.3425 11.9258 17.5022C11.8172 17.6618 11.6895 17.7864 11.5426 17.8758C11.3958 17.9588 11.2393 18.0003 11.0733 18.0003H9.78967C9.90462 17.6682 9.99403 17.2915 10.0579 16.87C10.1218 16.4421 10.1537 16.0079 10.1537 15.5672C10.1537 14.6604 10.0739 13.9931 9.91421 13.5652C9.76094 13.131 9.54701 12.9139 9.27242 12.9139C9.10638 12.9139 8.96588 13.0001 8.85093 13.1725C8.736 13.3385 8.67852 13.5429 8.67852 13.7856C8.67852 14.0538 8.73919 14.2645 8.86052 14.4178C8.98186 14.571 9.11596 14.6477 9.26284 14.6477C9.3267 14.6477 9.38737 14.6381 9.44484 14.6189C9.50231 14.5934 9.5534 14.5551 9.59809 14.504C9.63002 14.67 9.65238 14.8329 9.66516 14.9925C9.67793 15.1458 9.68431 15.3437 9.68431 15.5864C9.68431 15.7971 9.66515 16.0175 9.62683 16.2474C9.5949 16.4709 9.54382 16.6912 9.47358 16.9083C9.40972 17.119 9.32989 17.3202 9.2341 17.5118C9.1447 17.7034 9.04252 17.8662 8.92758 18.0003H7.52905C7.17144 18.0003 6.87768 17.8438 6.64779 17.5309C6.42428 17.218 6.31252 16.7774 6.31252 16.209V14.3699C6.31252 13.9548 6.37 13.6036 6.48494 13.3162C6.59989 13.0224 6.74677 12.7766 6.92558 12.5786C7.11077 12.3743 7.31512 12.2018 7.53863 12.0614C7.76214 11.9209 7.98245 11.7931 8.19958 11.6782C8.23151 11.659 8.26663 11.6399 8.30494 11.6207C8.34326 11.5952 8.37838 11.5728 8.41031 11.5537C8.56358 11.477 8.72642 11.3749 8.89884 11.2471C9.07765 11.1194 9.24368 10.9662 9.39694 10.7874C9.55021 10.6085 9.67793 10.4042 9.7801 10.1743C9.88228 9.94437 9.93336 9.68894 9.93336 9.40795C9.93336 9.12058 9.8695 8.90346 9.74179 8.75658C9.61407 8.60332 9.46079 8.52669 9.28199 8.52669C9.12872 8.52669 8.99144 8.60971 8.8701 8.77574C8.74877 8.93539 8.6881 9.13016 8.6881 9.36006C8.6881 9.58357 8.72642 9.76557 8.80305 9.90606C8.88607 10.0466 8.99144 10.1424 9.11915 10.1935C8.94672 10.4808 8.7296 10.6979 8.46778 10.8448C8.20595 10.9917 7.95372 11.0651 7.71105 11.0651C7.53863 11.0651 7.36621 11.0332 7.19379 10.9694C7.02775 10.9055 6.87768 10.8065 6.74358 10.6724C6.61586 10.5319 6.51049 10.3563 6.42747 10.1456C6.35084 9.9348 6.31252 9.67936 6.31252 9.37922V8.23932C6.31252 7.98388 6.34445 7.7476 6.40831 7.53048C6.47217 7.30697 6.55838 7.11539 6.66694 6.95574C6.77551 6.78971 6.90323 6.66199 7.0501 6.57258C7.20337 6.48318 7.36301 6.43848 7.52905 6.43848H11.0733C11.2393 6.43848 11.3958 6.48318 11.5426 6.57258C11.6895 6.66199 11.8172 6.78971 11.9258 6.95574C12.0343 7.11539 12.1206 7.30697 12.1844 7.53048C12.2483 7.7476 12.2802 7.98388 12.2802 8.23932V16.209ZM16.6285 13.4216C16.6094 13.479 16.5838 13.5365 16.5519 13.594V13.5844C16.5519 13.5333 16.5487 13.4918 16.5423 13.4599C16.5423 13.4471 16.5391 13.4375 16.5327 13.4311C16.5327 13.4248 16.5327 13.4152 16.5327 13.4024L16.6285 13.4216ZM18.688 16.2282C18.688 16.4836 18.6561 16.7199 18.5922 16.937C18.5284 17.1542 18.4421 17.3425 18.3336 17.5022C18.225 17.6555 18.0973 17.7768 17.9504 17.8662C17.8035 17.9556 17.6471 18.0003 17.4811 18.0003H13.9368C13.7644 18.0003 13.6048 17.9556 13.4579 17.8662C13.311 17.7768 13.1833 17.6555 13.0747 17.5022C12.9662 17.3425 12.88 17.1542 12.8161 16.937C12.7522 16.7199 12.7203 16.4836 12.7203 16.2282V8.23932C12.7203 7.98388 12.7522 7.7476 12.8161 7.53048C12.88 7.30697 12.9662 7.11539 13.0747 6.95574C13.1833 6.78971 13.311 6.66199 13.4579 6.57258C13.6048 6.48318 13.7644 6.43848 13.9368 6.43848H17.4811C17.6471 6.43848 17.8035 6.48318 17.9504 6.57258C18.0973 6.66199 18.225 6.78971 18.3336 6.95574C18.4421 7.11539 18.5284 7.30697 18.5922 7.53048C18.6561 7.7476 18.688 7.98388 18.688 8.23932V10.4904C18.4198 10.203 18.1228 9.99546 17.7972 9.86774C17.4779 9.73364 17.1554 9.66658 16.8297 9.66658C16.4848 9.66658 16.156 9.73683 15.8431 9.87732C15.5301 10.0178 15.2555 10.2286 15.0193 10.5096C14.783 10.7842 14.5946 11.1322 14.4541 11.5537C14.32 11.9688 14.2529 12.4541 14.2529 13.0097C14.2529 13.329 14.2881 13.6323 14.3583 13.9197C14.4349 14.207 14.5371 14.4593 14.6648 14.6764C14.7989 14.8935 14.9554 15.0659 15.1342 15.1937C15.3194 15.315 15.5238 15.3757 15.7473 15.3757C15.9197 15.3757 16.0825 15.3342 16.2358 15.2511C16.3954 15.1617 16.5327 15.0404 16.6477 14.8871C16.769 14.7275 16.8616 14.5391 16.9255 14.322C16.9957 14.0985 17.0308 13.8526 17.0308 13.5844C17.0308 13.3864 17.0117 13.1981 16.9734 13.0192C16.9414 12.8404 16.8904 12.6872 16.8201 12.5595C16.7499 12.4254 16.6605 12.32 16.5519 12.2434C16.4433 12.1667 16.3156 12.1284 16.1687 12.1284C15.9963 12.1284 15.8462 12.2082 15.7185 12.3679C15.5972 12.5211 15.5365 12.7319 15.5365 13.0001C15.5365 13.23 15.594 13.4279 15.7089 13.594C15.8239 13.76 15.9644 13.843 16.1304 13.843C16.2071 13.843 16.2837 13.8239 16.3603 13.7856C16.4369 13.7472 16.5008 13.6834 16.5519 13.594C16.5519 13.76 16.5295 13.9165 16.4848 14.0634C16.4401 14.2038 16.3795 14.3284 16.3028 14.4369C16.2262 14.5391 16.1368 14.6189 16.0346 14.6764C15.9388 14.7339 15.8399 14.7626 15.7377 14.7626C15.5844 14.7626 15.4439 14.7147 15.3162 14.6189C15.1885 14.5231 15.0799 14.3954 14.9905 14.2358C14.9011 14.0697 14.8309 13.8814 14.7798 13.6706C14.7351 13.4599 14.7127 13.2396 14.7127 13.0097C14.7127 12.6074 14.7606 12.2465 14.8564 11.9272C14.9586 11.6079 15.0927 11.3365 15.2587 11.113C15.4248 10.8895 15.6195 10.7203 15.8431 10.6054C16.0729 10.484 16.3124 10.4234 16.5615 10.4234C16.8935 10.4234 17.1905 10.5128 17.4523 10.6916C17.7141 10.864 17.9345 11.1035 18.1133 11.41C18.2985 11.7165 18.4389 12.0805 18.5347 12.502C18.6369 12.9171 18.688 13.3641 18.688 13.843V16.2282Z" fill="white"/>
</svg>
