<svg width="24" height="24" viewBox="0 0 24 24" fill="none" xmlns="http://www.w3.org/2000/svg">
<path d="M5.66406 9.0293H8.95897L11.7344 15.8789H12.5V17H9.25977V15.8789H10.4629L9.92969 14.5391H6.85352L6.32031 15.8789H7.53711V17H4.29688V15.8789H5.08984L7.42773 10.1504H5.66406V9.0293ZM9.49219 13.418L8.39844 10.8066L7.31836 13.418H9.49219ZM17.9414 10.8066H20.2109V11.9277H19.1309V16.3848C19.1309 17.4147 18.8711 18.1211 18.3516 18.5039C17.8411 18.8867 17.1029 19.0781 16.1367 19.0781H14.7148V17.957C16.0911 17.957 16.916 17.9069 17.1895 17.8066C17.3353 17.752 17.4583 17.679 17.5586 17.5879C17.6589 17.5059 17.7318 17.4238 17.7773 17.3418C17.832 17.2598 17.8685 17.1458 17.8867 17C17.9141 16.8542 17.9277 16.7357 17.9277 16.6445C17.9368 16.5443 17.9414 16.403 17.9414 16.2207C17.3945 16.6673 16.7702 16.8906 16.0684 16.8906C15.2116 16.8906 14.4824 16.5898 13.8809 15.9883C13.2884 15.3867 12.9922 14.6667 12.9922 13.8281C12.9922 12.9622 13.2975 12.2331 13.9082 11.6406C14.528 11.0482 15.2526 10.752 16.082 10.752C16.7839 10.752 17.4036 10.9661 17.9414 11.3945V10.8066ZM17.9414 13.8418C17.9414 13.2858 17.7591 12.8301 17.3945 12.4746C17.0391 12.11 16.6152 11.9277 16.123 11.9277C15.6309 11.9277 15.1934 12.11 14.8105 12.4746C14.4368 12.8301 14.25 13.2767 14.25 13.8145C14.25 14.3431 14.4323 14.7943 14.7969 15.168C15.1615 15.5326 15.599 15.7148 16.1094 15.7148C16.638 15.7148 17.0755 15.528 17.4219 15.1543C17.7682 14.7806 17.9414 14.3431 17.9414 13.8418Z" fill="white"/>
</svg>
