<svg width="24" height="24" viewBox="0 0 24 24" fill="none" xmlns="http://www.w3.org/2000/svg">
<path d="M5.11829 17.0842C5.03429 17.0842 4.95029 17.0562 4.86629 17.0002L8.15629 7.60621C8.22162 7.42888 8.29162 7.30288 8.36629 7.22821C8.44096 7.15354 8.53429 7.11621 8.64629 7.11621C8.72096 7.11621 8.79096 7.13021 8.85629 7.15821L12.1463 16.5662C12.1743 16.6502 12.1883 16.7249 12.1883 16.7902C12.1883 16.9862 12.0576 17.0842 11.7963 17.0842L10.6483 13.8222H6.51829L5.51029 16.6782C5.41696 16.9489 5.28629 17.0842 5.11829 17.0842ZM10.4943 13.3742L8.57629 7.91421L6.67229 13.3742H10.4943ZM18.7959 10.2942C18.6372 10.5929 18.5252 10.8869 18.4599 11.1762C18.4039 11.4655 18.3759 11.9042 18.3759 12.4922V16.2442C18.3759 17.1029 18.1285 17.7935 17.6339 18.3162C17.1392 18.8389 16.4672 19.1002 15.6179 19.1002C15.1512 19.1002 14.7219 19.0255 14.3299 18.8762C13.9472 18.7269 13.6439 18.5542 13.4199 18.3582C13.1959 18.1622 13.0839 18.0082 13.0839 17.8962C13.0839 17.7282 13.1772 17.6442 13.3639 17.6442C13.6999 17.9989 14.0452 18.2602 14.3999 18.4282C14.7639 18.5962 15.1699 18.6802 15.6179 18.6802C16.3552 18.6802 16.9105 18.4655 17.2839 18.0362C17.6665 17.6069 17.8579 17.0095 17.8579 16.2442V15.0962C17.5872 15.5629 17.2419 15.9269 16.8219 16.1882C16.4019 16.4495 15.9212 16.5802 15.3799 16.5802C14.8199 16.5802 14.3299 16.4449 13.9099 16.1742C13.4992 15.9035 13.1772 15.5255 12.9439 15.0402C12.7199 14.5455 12.6079 13.9762 12.6079 13.3322C12.6079 12.6415 12.7339 12.0255 12.9859 11.4842C13.2379 10.9335 13.6065 10.5042 14.0919 10.1962C14.5865 9.87888 15.1745 9.72021 15.8559 9.72021C16.0892 9.72021 16.3085 9.73888 16.5139 9.77621C16.7192 9.80421 16.9805 9.85088 17.2979 9.91621C17.5965 9.98154 17.8485 10.0329 18.0539 10.0702C18.2592 10.0982 18.4785 10.1122 18.7119 10.1122L18.7959 10.2942ZM17.8579 12.4922C17.8579 12.0722 17.8812 11.7035 17.9279 11.3862C17.9745 11.0689 18.0585 10.7842 18.1799 10.5322C17.9559 10.5229 17.7225 10.4902 17.4799 10.4342C17.2372 10.3782 17.0879 10.3455 17.0319 10.3362C16.7425 10.2709 16.4999 10.2242 16.3039 10.1962C16.1079 10.1589 15.9072 10.1402 15.7019 10.1402C14.8899 10.1402 14.2599 10.4389 13.8119 11.0362C13.3639 11.6335 13.1399 12.3989 13.1399 13.3322C13.1399 14.1815 13.3359 14.8675 13.7279 15.3902C14.1292 15.9035 14.6799 16.1602 15.3799 16.1602C15.8559 16.1602 16.2805 16.0389 16.6539 15.7962C17.0365 15.5442 17.3305 15.2035 17.5359 14.7742C17.7505 14.3355 17.8579 13.8409 17.8579 13.2902V12.4922Z" fill="white"/>
</svg>
