<svg width="24" height="24" viewBox="0 0 24 24" fill="none" xmlns="http://www.w3.org/2000/svg">
<path d="M10.3582 14.1656L10.0782 12.3596H6.99822L6.03222 14.1236C5.91089 14.3569 5.80355 14.5669 5.71022 14.7536C5.62622 14.9309 5.58422 15.0709 5.58422 15.1736C5.58422 15.3136 5.65889 15.4023 5.80822 15.4396C5.96689 15.4769 6.23289 15.5189 6.60622 15.5656C6.60622 15.7243 6.57822 15.8736 6.52222 16.0136C6.39155 16.0043 6.20489 15.9996 5.96222 15.9996C5.71955 15.9996 5.47689 15.9996 5.23422 15.9996C4.99155 15.9903 4.80022 15.9856 4.66022 15.9856C4.39889 15.9856 4.15155 15.9903 3.91822 15.9996C3.68489 15.9996 3.42822 16.0043 3.14822 16.0136C3.14822 15.8643 3.17622 15.7196 3.23222 15.5796C3.51222 15.5609 3.74089 15.5329 3.91822 15.4956C4.09555 15.4489 4.25889 15.3649 4.40822 15.2436C4.55755 15.1129 4.72555 14.9076 4.91222 14.6276C5.09889 14.3383 5.34155 13.9369 5.64022 13.4236C5.90155 12.9663 6.20489 12.4343 6.55022 11.8276C6.89555 11.2209 7.25955 10.5863 7.64222 9.92356C8.02489 9.26089 8.39822 8.60756 8.76222 7.96356C9.12622 7.31956 9.46222 6.73623 9.77022 6.21356C9.90089 6.18556 10.0176 6.16223 10.1202 6.14356C10.2322 6.12489 10.3396 6.11089 10.4422 6.10156L11.8842 14.0956C11.9496 14.4316 12.0102 14.6976 12.0662 14.8936C12.1316 15.0803 12.2109 15.2156 12.3042 15.2996C12.3976 15.3836 12.5236 15.4443 12.6822 15.4816C12.8409 15.5096 13.0509 15.5376 13.3122 15.5656C13.3122 15.7243 13.2842 15.8736 13.2282 16.0136C13.0042 16.0043 12.7336 15.9996 12.4162 15.9996C12.0989 15.9903 11.7862 15.9856 11.4782 15.9856C11.2076 15.9856 10.8529 15.9903 10.4142 15.9996C9.97555 15.9996 9.56489 16.0043 9.18222 16.0136C9.19155 15.9389 9.20089 15.8643 9.21022 15.7896C9.21955 15.7056 9.23822 15.6309 9.26622 15.5656C9.60222 15.5283 9.85422 15.4956 10.0222 15.4676C10.1902 15.4396 10.3022 15.3836 10.3582 15.2996C10.4236 15.2063 10.4562 15.0616 10.4562 14.8656C10.4562 14.8189 10.4516 14.7489 10.4422 14.6556C10.4329 14.5529 10.4049 14.3896 10.3582 14.1656ZM7.33422 11.7716H9.98022L9.39222 8.01956L7.33422 11.7716ZM15.8637 19.5696C15.4344 19.5696 15.0051 19.5089 14.5757 19.3876C14.1557 19.2663 13.8057 19.0749 13.5257 18.8136C13.2457 18.5616 13.1057 18.2396 13.1057 17.8476C13.1057 17.4089 13.2737 17.0403 13.6097 16.7416C13.9551 16.4429 14.3564 16.1769 14.8137 15.9436C14.6084 15.8503 14.4404 15.7336 14.3097 15.5936C14.1884 15.4443 14.1277 15.2623 14.1277 15.0476C14.1277 14.7863 14.2304 14.5436 14.4357 14.3196C14.6411 14.0956 14.9677 13.8529 15.4157 13.5916C15.1077 13.4236 14.8604 13.1949 14.6737 12.9056C14.4871 12.6163 14.3937 12.2803 14.3937 11.8976C14.3937 11.4216 14.5337 10.9876 14.8137 10.5956C15.1031 10.1943 15.4857 9.87689 15.9617 9.64356C16.4377 9.40089 16.9604 9.27956 17.5297 9.27956C18.3604 9.27956 19.0044 9.52689 19.4617 10.0216C19.7231 9.87223 19.9191 9.70423 20.0497 9.51756C19.8724 9.33089 19.7837 9.11156 19.7837 8.85956C19.7837 8.67289 19.8397 8.51423 19.9517 8.38356C20.0731 8.24356 20.2364 8.17356 20.4417 8.17356C20.6097 8.17356 20.7544 8.22956 20.8757 8.34156C21.0064 8.44423 21.0717 8.60289 21.0717 8.81756C21.0717 9.10689 20.9457 9.37289 20.6937 9.61556C20.4511 9.85823 20.1244 10.1056 19.7137 10.3576C19.8817 10.6563 19.9657 10.9923 19.9657 11.3656C19.9657 11.8509 19.8304 12.2896 19.5597 12.6816C19.2891 13.0736 18.9251 13.3863 18.4677 13.6196C18.0104 13.8436 17.4971 13.9556 16.9277 13.9556C16.5451 13.9556 16.1904 13.8996 15.8637 13.7876C15.6771 13.9089 15.5277 14.0349 15.4157 14.1656C15.3131 14.2869 15.2617 14.4036 15.2617 14.5156C15.2617 14.6929 15.3737 14.8283 15.5977 14.9216C15.8311 15.0149 16.1251 15.0896 16.4797 15.1456C16.8344 15.2016 17.2124 15.2669 17.6137 15.3416C18.0151 15.4069 18.3931 15.5049 18.7477 15.6356C19.1024 15.7569 19.3917 15.9296 19.6157 16.1536C19.8491 16.3776 19.9657 16.6763 19.9657 17.0496C19.9657 17.4509 19.8304 17.8103 19.5597 18.1276C19.2984 18.4449 18.9577 18.7063 18.5377 18.9116C18.1177 19.1263 17.6697 19.2896 17.1937 19.4016C16.7271 19.5136 16.2837 19.5696 15.8637 19.5696ZM15.3457 16.1256C15.0284 16.3403 14.7857 16.5689 14.6177 16.8116C14.4497 17.0636 14.3657 17.3389 14.3657 17.6376C14.3657 17.9643 14.4591 18.2303 14.6457 18.4356C14.8324 18.6409 15.0704 18.7903 15.3597 18.8836C15.6491 18.9769 15.9477 19.0236 16.2557 19.0236C16.6197 19.0236 16.9931 18.9629 17.3757 18.8416C17.7584 18.7296 18.0804 18.5616 18.3417 18.3376C18.6031 18.1229 18.7337 17.8616 18.7337 17.5536C18.7337 17.2736 18.6217 17.0589 18.3977 16.9096C18.1831 16.7603 17.8984 16.6436 17.5437 16.5596C17.1984 16.4756 16.8297 16.4056 16.4377 16.3496C16.0551 16.2936 15.6911 16.2189 15.3457 16.1256ZM16.9277 13.4656C17.2264 13.4656 17.4784 13.3909 17.6837 13.2416C17.8984 13.0923 18.0711 12.9009 18.2017 12.6676C18.3324 12.4343 18.4257 12.1869 18.4817 11.9256C18.5471 11.6643 18.5797 11.4216 18.5797 11.1976C18.5797 10.9923 18.5471 10.7776 18.4817 10.5536C18.4257 10.3203 18.3137 10.1243 18.1457 9.96556C17.9777 9.80689 17.7304 9.72756 17.4037 9.72756C17.1051 9.72756 16.8484 9.80223 16.6337 9.95156C16.4284 10.1009 16.2604 10.2923 16.1297 10.5256C16.0084 10.7589 15.9197 11.0063 15.8637 11.2676C15.8077 11.5196 15.7797 11.7576 15.7797 11.9816C15.7797 12.2056 15.8124 12.4343 15.8777 12.6676C15.9431 12.8916 16.0597 13.0829 16.2277 13.2416C16.3957 13.3909 16.6291 13.4656 16.9277 13.4656Z" fill="white"/>
</svg>
