<svg width="24" height="24" viewBox="0 0 24 24" fill="none" xmlns="http://www.w3.org/2000/svg">
<path d="M3.03606 16.0136C3.0174 15.8643 3.0174 15.7149 3.03606 15.5656C3.2974 15.5376 3.5074 15.5049 3.66606 15.4676C3.82473 15.4303 3.96006 15.3649 4.07206 15.2716C4.18406 15.1689 4.2914 15.0196 4.39406 14.8236C4.49673 14.6183 4.61806 14.3336 4.75806 13.9696L7.78206 6.21356C7.88473 6.17623 8.00606 6.14823 8.14606 6.12956C8.2954 6.11089 8.4214 6.10156 8.52406 6.10156L11.5341 14.0956C11.6647 14.4316 11.7721 14.6976 11.8561 14.8936C11.9401 15.0803 12.0334 15.2156 12.1361 15.2996C12.2387 15.3836 12.3694 15.4443 12.5281 15.4816C12.6867 15.5096 12.9061 15.5376 13.1861 15.5656C13.2047 15.7149 13.2047 15.8643 13.1861 16.0136C12.8594 16.0136 12.5234 16.0089 12.1781 15.9996C11.8327 15.9903 11.4874 15.9856 11.1421 15.9856C10.7874 15.9856 10.4281 15.9903 10.0641 15.9996C9.7094 16.0089 9.35473 16.0136 9.00006 16.0136C8.97206 15.8736 8.97206 15.7243 9.00006 15.5656C9.4574 15.5189 9.77473 15.4769 9.95206 15.4396C10.1294 15.3929 10.2181 15.2809 10.2181 15.1036C10.2181 15.0289 10.2041 14.9449 10.1761 14.8516C10.1481 14.7583 10.1107 14.6416 10.0641 14.5016L9.26606 12.3456H6.11606L5.41606 14.2776C5.35073 14.4549 5.2994 14.6043 5.26206 14.7256C5.23406 14.8376 5.22006 14.9403 5.22006 15.0336C5.22006 15.2389 5.3134 15.3696 5.50006 15.4256C5.69606 15.4723 6.0134 15.5189 6.45206 15.5656C6.47073 15.7243 6.47073 15.8736 6.45206 16.0136C6.13473 16.0136 5.82206 16.0089 5.51406 15.9996C5.20606 15.9903 4.8934 15.9856 4.57606 15.9856C4.31473 15.9856 4.06273 15.9903 3.82006 15.9996C3.5774 16.0089 3.31606 16.0136 3.03606 16.0136ZM6.32606 11.7576H9.05606L7.68406 8.03356L6.32606 11.7576ZM16.038 19.5696C15.2167 19.5696 14.554 19.4249 14.05 19.1356C13.546 18.8463 13.294 18.4449 13.294 17.9316C13.294 17.5303 13.434 17.1989 13.714 16.9376C13.994 16.6763 14.3393 16.4149 14.75 16.1536C14.386 16.0696 14.1107 15.9249 13.924 15.7196C13.7373 15.5049 13.644 15.2529 13.644 14.9636C13.644 14.4596 14.0127 13.9509 14.75 13.4376C14.442 13.2416 14.1947 12.9896 14.008 12.6816C13.8213 12.3643 13.728 12.0003 13.728 11.5896C13.728 11.0763 13.8587 10.6376 14.12 10.2736C14.3907 9.90023 14.7407 9.61556 15.17 9.41956C15.6087 9.21423 16.0753 9.11156 16.57 9.11156C17.298 9.11156 17.9047 9.31223 18.39 9.71356C18.894 9.31223 19.3887 9.11156 19.874 9.11156C20.1167 9.11156 20.308 9.16756 20.448 9.27956C20.588 9.38223 20.658 9.53623 20.658 9.74156C20.658 9.94689 20.5927 10.1103 20.462 10.2316C20.3313 10.3529 20.1727 10.4136 19.986 10.4136C19.8087 10.4136 19.6547 10.3623 19.524 10.2596C19.4027 10.1476 19.3233 9.99356 19.286 9.79756C19.1553 9.82556 19.048 9.85823 18.964 9.89556C18.8893 9.93289 18.8007 9.98423 18.698 10.0496C19.0153 10.4509 19.174 10.9269 19.174 11.4776C19.174 11.9909 19.048 12.4296 18.796 12.7936C18.544 13.1483 18.208 13.4236 17.788 13.6196C17.3773 13.8063 16.9247 13.8996 16.43 13.8996C15.9633 13.8996 15.5293 13.8156 15.128 13.6476C14.8947 13.8809 14.778 14.1283 14.778 14.3896C14.778 14.6229 14.8667 14.7723 15.044 14.8376C15.2213 14.8936 15.548 14.9216 16.024 14.9216C16.2387 14.9216 16.4953 14.9216 16.794 14.9216C17.0927 14.9123 17.312 14.9076 17.452 14.9076C18.3853 14.9076 19.0573 15.0756 19.468 15.4116C19.8787 15.7383 20.084 16.1909 20.084 16.7696C20.084 17.2269 19.972 17.6283 19.748 17.9736C19.524 18.3283 19.2207 18.6223 18.838 18.8556C18.4553 19.0983 18.0213 19.2756 17.536 19.3876C17.06 19.5089 16.5607 19.5696 16.038 19.5696ZM15.352 16.2236C14.848 16.6436 14.596 17.0869 14.596 17.5536C14.596 17.8803 14.694 18.1463 14.89 18.3516C15.086 18.5569 15.3427 18.7063 15.66 18.7996C15.9773 18.8929 16.3133 18.9396 16.668 18.9396C16.9853 18.9396 17.3167 18.8929 17.662 18.7996C18.0073 18.7063 18.3013 18.5383 18.544 18.2956C18.7867 18.0623 18.908 17.7309 18.908 17.3016C18.908 16.9096 18.768 16.6296 18.488 16.4616C18.2173 16.2936 17.7087 16.2096 16.962 16.2096C16.7847 16.2096 16.5653 16.2096 16.304 16.2096C16.0427 16.2189 15.7533 16.2236 15.436 16.2236C15.408 16.2236 15.38 16.2236 15.352 16.2236ZM16.458 13.4096C16.8687 13.4096 17.1813 13.2463 17.396 12.9196C17.62 12.5836 17.732 12.1216 17.732 11.5336C17.732 10.9363 17.62 10.4649 17.396 10.1196C17.172 9.77423 16.8453 9.60156 16.416 9.60156C16.0147 9.60156 15.702 9.76489 15.478 10.0916C15.2633 10.4089 15.156 10.8616 15.156 11.4496C15.156 12.0469 15.268 12.5229 15.492 12.8776C15.7253 13.2323 16.0473 13.4096 16.458 13.4096Z" fill="white"/>
</svg>
