<svg width="24" height="24" viewBox="0 0 24 24" fill="none" xmlns="http://www.w3.org/2000/svg">
<path d="M6.92205 16.2856C6.90338 16.5563 6.75871 16.7429 6.48805 16.8456C6.22671 16.9483 5.75071 16.9996 5.06005 16.9996C4.36938 16.9996 3.79071 16.9389 3.32405 16.8176C2.86671 16.6869 2.63805 16.5236 2.63805 16.3276C2.63805 16.1036 3.05338 14.6756 3.88405 12.0436C4.71471 9.40224 5.19071 7.8809 5.31205 7.47957C5.35871 7.35824 5.73205 7.26024 6.43205 7.18557C7.14138 7.10157 7.89738 7.05957 8.70005 7.05957C9.51205 7.05957 9.96005 7.19957 10.044 7.47957C11.808 13.3409 12.69 16.3183 12.69 16.4116C12.69 16.5049 12.634 16.5983 12.522 16.6916C12.2607 16.8969 11.7427 16.9996 10.968 16.9996C9.31605 16.9996 8.47138 16.8036 8.43405 16.4116L8.33605 15.5016H6.99205L6.92205 16.2856ZM8.04205 12.8416L7.83205 10.3216H7.52405L7.28605 12.8416H8.04205ZM17.4394 16.0756V15.2636H17.3274C17.2901 15.3103 17.2248 15.3709 17.1314 15.4456C17.0381 15.5109 16.8048 15.6043 16.4314 15.7256C16.0674 15.8469 15.6521 15.9076 15.1854 15.9076C14.7281 15.9076 14.3408 15.8376 14.0234 15.6976C13.7061 15.5576 13.4588 15.3849 13.2814 15.1796C13.1041 14.9649 12.9641 14.6803 12.8614 14.3256C12.7028 13.7749 12.6234 13.0283 12.6234 12.0856C12.6234 11.0029 12.8521 10.1723 13.3094 9.59357C13.4868 9.36024 13.7481 9.16424 14.0934 9.00557C14.4481 8.83757 14.8261 8.75357 15.2274 8.75357C15.6288 8.75357 15.9601 8.80024 16.2214 8.89357C16.4828 8.97757 16.6788 9.08024 16.8094 9.20157C17.0708 9.4629 17.2201 9.69157 17.2574 9.88757L17.2714 10.0136H17.3834L17.5094 9.46757C17.6028 9.07557 18.3401 8.87957 19.7214 8.87957C20.3374 8.87957 20.7108 8.9729 20.8414 9.15957C20.9161 9.27157 20.9628 9.3789 20.9814 9.48157C21.0001 9.5749 21.0094 9.71957 21.0094 9.91557V15.7816C21.0094 16.8829 20.6501 17.7229 19.9314 18.3016C19.2128 18.8803 18.1581 19.1696 16.7674 19.1696C15.2928 19.1696 14.2894 19.0249 13.7574 18.7356C13.5241 18.6049 13.4074 18.4696 13.4074 18.3296C13.4074 18.1056 13.4961 17.7276 13.6734 17.1956C13.8601 16.6636 14.0328 16.3976 14.1914 16.3976C14.2288 16.3976 14.3594 16.4303 14.5834 16.4956C15.2928 16.6823 15.8668 16.7756 16.3054 16.7756C16.7534 16.7756 17.0521 16.7196 17.2014 16.6076C17.3601 16.4956 17.4394 16.3183 17.4394 16.0756ZM16.8794 14.3116C16.9821 14.3116 17.0661 14.2743 17.1314 14.1996C17.1968 14.1249 17.2294 14.0409 17.2294 13.9476V11.0636C17.1921 10.8676 17.0894 10.7696 16.9214 10.7696C16.5668 10.7696 16.3894 11.3529 16.3894 12.5196C16.3894 13.0609 16.4314 13.4949 16.5154 13.8216C16.6088 14.1483 16.7301 14.3116 16.8794 14.3116Z" fill="white"/>
</svg>
