<svg width="24" height="24" viewBox="0 0 24 24" fill="none" xmlns="http://www.w3.org/2000/svg">
<path d="M4.74713 16.9995L9.57713 7.31152H11.6631L11.8591 16.9995H10.7951L10.7111 14.5215H7.08513L5.83913 16.9995H4.74713ZM10.2071 8.26352L7.53313 13.5835H10.7251L10.6271 8.26352H10.2071ZM14.798 20.2895C14.0234 20.2895 13.412 20.1262 12.964 19.7995C12.516 19.4822 12.292 19.0342 12.292 18.4555C12.292 17.6622 12.908 16.9482 14.14 16.3135C13.9907 16.1642 13.916 15.9822 13.916 15.7675C13.916 15.5435 13.9814 15.3195 14.112 15.0955C14.2427 14.8715 14.3734 14.6942 14.504 14.5635L14.686 14.3535C14.042 14.0548 13.72 13.5182 13.72 12.7435C13.72 11.9688 13.9767 11.2968 14.49 10.7275C15.0034 10.1488 15.6847 9.85952 16.534 9.85952C16.9634 9.85952 17.3507 9.91552 17.696 10.0275L17.878 10.0835L19.95 9.99952L19.74 10.8955H18.494C18.6527 11.1568 18.732 11.4788 18.732 11.8615C18.732 12.5615 18.466 13.1962 17.934 13.7655C17.4114 14.3348 16.6927 14.6195 15.778 14.6195L15.316 14.5775C15.0267 14.9508 14.882 15.2355 14.882 15.4315C14.882 15.6275 14.9707 15.7628 15.148 15.8375C15.3254 15.9028 15.7267 15.9775 16.352 16.0615C16.9774 16.1362 17.458 16.2995 17.794 16.5515C18.13 16.7942 18.298 17.1768 18.298 17.6995C18.298 18.4182 17.976 19.0295 17.332 19.5335C16.6974 20.0375 15.8527 20.2895 14.798 20.2895ZM14.686 16.6775C14.3127 16.8642 13.986 17.0975 13.706 17.3775C13.426 17.6575 13.286 17.9562 13.286 18.2735C13.286 18.5908 13.4167 18.8568 13.678 19.0715C13.9394 19.2862 14.364 19.3935 14.952 19.3935C15.5494 19.3935 16.086 19.2488 16.562 18.9595C17.038 18.6702 17.276 18.2782 17.276 17.7835C17.276 17.5035 17.1734 17.3028 16.968 17.1815C16.772 17.0602 16.4034 16.9668 15.862 16.9015C15.3207 16.8362 14.9287 16.7615 14.686 16.6775ZM15.876 13.7515C16.464 13.7515 16.9214 13.5555 17.248 13.1635C17.5747 12.7622 17.738 12.3562 17.738 11.9455C17.738 11.5348 17.64 11.2315 17.444 11.0355C17.248 10.8395 16.9027 10.7415 16.408 10.7415C15.9227 10.7415 15.5167 10.9422 15.19 11.3435C14.8727 11.7355 14.714 12.1648 14.714 12.6315C14.714 13.3782 15.1014 13.7515 15.876 13.7515Z" fill="white"/>
</svg>
