<svg width="24" height="24" viewBox="0 0 24 24" fill="none" xmlns="http://www.w3.org/2000/svg">
<path d="M9.75983 14.5818C9.7483 14.5587 9.72524 14.5184 9.69065 14.4607C9.66759 14.3915 9.6503 14.3454 9.63877 14.3224C9.62724 14.3224 9.62148 14.3224 9.62148 14.3224C9.62148 14.3108 9.61571 14.3051 9.60418 14.3051C9.59265 14.3051 9.58689 14.2993 9.58689 14.2878H9.51771C9.48312 14.2878 9.46583 14.2878 9.46583 14.2878C9.4543 14.2647 9.43701 14.2359 9.41395 14.2013C9.39089 14.1667 9.37936 14.1379 9.37936 14.1148H8.9643C8.94124 14.0803 8.90665 14.063 8.86053 14.063C8.82595 14.063 8.79136 14.0687 8.75677 14.0803C8.74524 14.0803 8.69912 14.0745 8.61842 14.063C8.54924 14.0399 8.50889 14.0284 8.49736 14.0284C8.48583 14.0284 8.46853 14.0341 8.44548 14.0457C8.42242 14.0572 8.41089 14.0687 8.41089 14.0803H7.96124L7.99583 14.0284C7.7883 14.0399 7.57501 14.0341 7.35595 14.0111C7.14842 13.9765 6.95242 13.9592 6.76795 13.9592C6.75642 13.9592 6.73912 13.965 6.71606 13.9765C6.69301 13.9765 6.68148 13.9823 6.68148 13.9938H6.43936H6.19724C6.17418 13.9823 6.12806 13.9592 6.05889 13.9246C5.98971 13.89 5.94359 13.8727 5.92053 13.8727H5.79948C5.78795 13.8727 5.74759 13.867 5.67842 13.8554C5.60924 13.8324 5.56889 13.8208 5.55736 13.8208C5.49971 13.8208 5.38442 13.8151 5.21148 13.8035C5.03853 13.792 4.92901 13.7863 4.88289 13.7863C4.87136 13.7863 4.86559 13.7863 4.86559 13.7863C4.86559 13.7747 4.85983 13.769 4.8483 13.769C4.83677 13.769 4.82524 13.7632 4.81371 13.7517H4.77912H4.74453C4.73301 13.7632 4.72148 13.769 4.70995 13.769C4.69842 13.769 4.68689 13.7747 4.67536 13.7863V13.7517H4.62348L4.32948 14.0284V13.9938V13.9592V13.9419C4.32948 13.9304 4.33524 13.9188 4.34677 13.9073C4.34677 13.8958 4.35253 13.8843 4.36406 13.8727C4.35253 13.7228 4.26606 13.6479 4.10465 13.6479C4.01242 13.6479 3.90865 13.7113 3.79336 13.8381C3.68959 13.9534 3.63195 14.063 3.62042 14.1667H3.6723C3.6723 14.2013 3.66077 14.2244 3.63771 14.2359C3.61465 14.2474 3.60312 14.2705 3.60312 14.3051C3.55701 14.3051 3.53395 14.3281 3.53395 14.3743L3.56853 14.4261C3.54548 14.4377 3.51665 14.5011 3.48206 14.6164C3.45901 14.7201 3.44748 14.7778 3.44748 14.7893C3.48206 14.7893 3.49936 14.8066 3.49936 14.8412L3.46477 14.8758C3.45324 14.8873 3.44748 14.8988 3.44748 14.9104V14.9277C3.43595 14.9277 3.43018 14.9795 3.43018 15.0833C3.43018 15.1755 3.42442 15.2447 3.41289 15.2908V15.3081V15.3427C3.44748 15.3312 3.51089 15.3139 3.60312 15.2908C3.69536 15.2678 3.75301 15.239 3.77606 15.2044C3.8683 15.1006 3.92595 15.0084 3.94901 14.9277C3.98359 14.8354 4.0643 14.7605 4.19112 14.7028C4.19112 14.7144 4.19112 14.7259 4.19112 14.7374C4.20265 14.7374 4.20842 14.7432 4.20842 14.7547C4.20842 14.7778 4.20265 14.7951 4.19112 14.8066C4.17959 14.8181 4.17383 14.8354 4.17383 14.8585H4.2603C4.2603 14.9161 4.24301 14.9795 4.20842 15.0487C4.17383 15.1064 4.14501 15.1467 4.12195 15.1698L4.15653 15.2044C4.16806 15.2159 4.15653 15.2505 4.12195 15.3081C4.08736 15.3543 4.05853 15.3888 4.03548 15.4119C4.03548 15.4234 4.02395 15.435 4.00089 15.4465C3.97783 15.458 3.96053 15.4695 3.94901 15.4811C3.93748 15.4811 3.92018 15.4984 3.89712 15.533C3.88559 15.556 3.87406 15.5733 3.86253 15.5848C3.85101 15.5848 3.84524 15.5791 3.84524 15.5675L3.82795 15.5503H3.81065C3.77606 15.5503 3.75301 15.5618 3.74148 15.5848C3.74148 15.6079 3.74148 15.631 3.74148 15.654C3.74148 15.6771 3.74148 15.7117 3.74148 15.7578C3.75301 15.7924 3.77606 15.8097 3.81065 15.8097H3.82795H3.84524C3.85677 15.8097 3.8683 15.8039 3.87983 15.7924L3.91442 15.7578V15.8097C3.91442 15.948 3.84524 16.0806 3.70689 16.2074C3.56853 16.3458 3.48206 16.4726 3.44748 16.5879H3.10159C3.09006 16.634 3.06124 16.6571 3.01512 16.6571C2.93442 16.6571 2.89406 16.634 2.89406 16.5879C2.89406 16.5533 2.89983 16.5245 2.91136 16.5014C2.93442 16.4784 2.94595 16.4553 2.94595 16.4323C2.94595 16.3746 2.92289 16.3515 2.87677 16.3631V16.0691C2.79606 16.0691 2.73265 16.0633 2.68653 16.0518C2.65195 16.0403 2.64042 15.9711 2.65195 15.8443C2.65195 15.8327 2.66348 15.7924 2.68653 15.7232C2.72112 15.654 2.73842 15.6079 2.73842 15.5848C2.74995 15.4926 2.72112 15.4177 2.65195 15.36C2.5943 15.3024 2.56548 15.2678 2.56548 15.2563C2.56548 15.2217 2.57124 15.1986 2.58277 15.1871C2.5943 15.1755 2.60006 15.141 2.60006 15.0833C2.60006 15.0257 2.5943 14.9738 2.58277 14.9277C2.57124 14.8815 2.56548 14.8297 2.56548 14.772V14.7547C2.58853 14.7432 2.61736 14.7259 2.65195 14.7028C2.68653 14.6683 2.71536 14.6452 2.73842 14.6337C2.73842 14.6106 2.75571 14.5875 2.7903 14.5645C2.82489 14.5299 2.85371 14.5068 2.87677 14.4953C2.87677 14.4838 2.89983 14.4838 2.94595 14.4953C2.99206 14.5068 3.02089 14.5068 3.03242 14.4953C3.05548 14.4723 3.0843 14.3973 3.11889 14.2705C3.15348 14.1437 3.1823 14.063 3.20536 14.0284C3.26301 13.9361 3.33218 13.8439 3.41289 13.7517C3.49359 13.6594 3.53395 13.5499 3.53395 13.4231C3.53395 13.3308 3.48206 13.2732 3.3783 13.2501C3.28606 13.2155 3.21112 13.1983 3.15348 13.1983L3.23995 13.0253C3.26301 13.0484 3.29183 13.0311 3.32642 12.9734C3.36101 12.9043 3.40136 12.8639 3.44748 12.8524H3.86253C3.89712 12.8524 3.93171 12.8293 3.9663 12.7832C4.01242 12.7255 4.05277 12.6621 4.08736 12.593C4.13348 12.5238 4.17383 12.4604 4.20842 12.4027C4.24301 12.3335 4.27183 12.2874 4.29489 12.2644C4.32948 12.2183 4.38136 12.1894 4.45053 12.1779C4.53124 12.1548 4.58889 12.1145 4.62348 12.0568C4.61195 12.0453 4.59465 12.028 4.57159 12.005C4.54853 11.9704 4.53701 11.9473 4.53701 11.9358V11.9012C4.53701 11.9012 4.54853 11.8839 4.57159 11.8493C4.59465 11.8032 4.61771 11.7571 4.64077 11.711C4.67536 11.6533 4.70995 11.6014 4.74453 11.5553C4.77912 11.5092 4.80795 11.4804 4.83101 11.4688H4.86559H4.88289C4.88289 11.4804 4.88865 11.4861 4.90018 11.4861L4.91748 11.5034C4.92901 11.5265 4.94053 11.5495 4.95206 11.5726C4.96359 11.5841 4.96936 11.5957 4.96936 11.6072C4.95783 11.6072 4.93477 11.6245 4.90018 11.6591C4.86559 11.6937 4.84253 11.711 4.83101 11.711C4.81948 11.734 4.80218 11.7801 4.77912 11.8493C4.75606 11.9185 4.74453 11.9588 4.74453 11.9704C4.74453 11.9934 4.72724 12.0395 4.69265 12.1087C4.65806 12.1664 4.63501 12.2067 4.62348 12.2298C4.56583 12.2067 4.51395 12.2183 4.46783 12.2644C4.46783 12.2874 4.47359 12.3278 4.48512 12.3854C4.49665 12.4315 4.50242 12.4661 4.50242 12.4892V12.5065V12.5238L4.46783 12.593C4.46783 12.6045 4.47359 12.6275 4.48512 12.6621C4.49665 12.6967 4.50242 12.7198 4.50242 12.7313C4.50242 12.7428 4.49665 12.7601 4.48512 12.7832C4.48512 12.8063 4.48512 12.8293 4.48512 12.8524C4.54277 12.8524 4.57159 12.8581 4.57159 12.8697C4.57159 12.8697 4.58889 12.8524 4.62348 12.8178C4.66959 12.7486 4.72724 12.6794 4.79642 12.6103L4.91748 12.4892C4.99818 12.3854 5.06159 12.2644 5.10771 12.126C5.16536 11.9761 5.22877 11.8551 5.29795 11.7628C5.37865 11.6821 5.47665 11.5668 5.59195 11.417C5.71877 11.2671 5.85136 11.1921 5.98971 11.1921C5.98971 11.2844 5.94936 11.3708 5.86865 11.4515C5.78795 11.5323 5.70148 11.6187 5.60924 11.711C5.51701 11.7917 5.43053 11.8724 5.34983 11.9531C5.26912 12.0223 5.22877 12.0914 5.22877 12.1606C5.27489 12.1606 5.33253 12.1318 5.40171 12.0741C5.48242 12.0165 5.56312 11.9588 5.64383 11.9012C5.72453 11.832 5.80524 11.7686 5.88595 11.711C5.97818 11.6533 6.05889 11.6245 6.12806 11.6245V11.6418C6.12806 11.6418 6.13959 11.6475 6.16265 11.6591C6.17418 11.6706 6.18571 11.6764 6.19724 11.6764C6.19724 11.6879 6.18571 11.711 6.16265 11.7455C6.15112 11.7686 6.13959 11.7917 6.12806 11.8147L5.76489 12.1779C5.7303 12.2125 5.70148 12.2298 5.67842 12.2298V12.1779L5.97242 11.8839V11.8493C5.81101 11.8493 5.67265 11.9185 5.55736 12.0568C5.45359 12.1837 5.36712 12.3105 5.29795 12.4373C5.28642 12.4027 5.26912 12.3912 5.24606 12.4027C5.22301 12.4027 5.19995 12.4027 5.17689 12.4027V12.5238C5.21148 12.5238 5.22877 12.5238 5.22877 12.5238L5.29795 12.5584V12.5757C5.29795 12.6218 5.27489 12.6737 5.22877 12.7313C5.18265 12.7774 5.15383 12.8178 5.1423 12.8524C5.23453 12.9446 5.36712 12.9907 5.54006 12.9907C5.72453 12.9792 5.88595 12.9907 6.0243 13.0253H8.16877C8.26101 12.9792 8.36477 12.9561 8.48006 12.9561C8.59536 12.9446 8.69912 12.9388 8.79136 12.9388C8.80289 12.9388 8.82018 12.9446 8.84324 12.9561C8.8663 12.9677 8.87783 12.9792 8.87783 12.9907C8.92395 12.9561 8.9643 12.9273 8.99889 12.9043C9.03348 12.8697 9.05077 12.8293 9.05077 12.7832C9.05077 12.6448 8.99312 12.518 8.87783 12.4027C8.76253 12.2759 8.67606 12.1606 8.61842 12.0568C8.58383 11.9877 8.54924 11.8897 8.51465 11.7628C8.48006 11.636 8.46277 11.538 8.46277 11.4688C8.46277 11.4573 8.46853 11.4458 8.48006 11.4343C8.48006 11.4227 8.48006 11.417 8.48006 11.417C8.49159 11.4054 8.49736 11.3939 8.49736 11.3824C8.49736 11.3478 8.46853 11.2901 8.41089 11.2094C8.35324 11.1287 8.31289 11.0768 8.28983 11.0538C8.25524 10.9846 8.22642 10.9154 8.20336 10.8463C8.1803 10.7771 8.15148 10.7194 8.11689 10.6733C8.09383 10.6157 8.05924 10.5695 8.01312 10.535C7.96701 10.4888 7.89206 10.46 7.7883 10.4485V10.4312V10.4139L7.82289 10.3793C7.82289 10.3563 7.81712 10.3274 7.80559 10.2928C7.79406 10.2467 7.7883 10.2179 7.7883 10.2064C7.7883 10.1948 7.76524 10.1833 7.71912 10.1718C7.68453 10.1487 7.66148 10.1314 7.64995 10.1199C7.63842 10.1084 7.62112 10.0334 7.59806 9.89504C7.58653 9.75668 7.56348 9.61257 7.52889 9.46268C7.50583 9.30127 7.47124 9.15715 7.42512 9.03033C7.39053 8.90351 7.35018 8.84009 7.30406 8.84009L7.28677 8.85739C7.25218 8.85739 7.23489 8.87469 7.23489 8.90928H7.21759C7.18301 8.90928 7.15995 8.89774 7.14842 8.87468C7.14842 8.8401 7.14842 8.81127 7.14842 8.78821C7.15995 8.75362 7.16571 8.7248 7.16571 8.70175C7.16571 8.66716 7.14842 8.64986 7.11383 8.64986H6.76795C6.74489 8.64986 6.73336 8.63833 6.73336 8.61527C6.73336 8.59221 6.73336 8.57492 6.73336 8.56339C6.73336 8.48268 6.76795 8.41927 6.83712 8.37315C6.91783 8.32704 6.95818 8.25786 6.95818 8.16562C6.95818 8.1541 6.95242 8.14833 6.94089 8.14833C6.9063 8.11374 6.86595 8.09645 6.81983 8.09645C6.81983 8.09645 6.83136 8.06186 6.85442 7.99268C6.88901 7.91198 6.92359 7.83127 6.95818 7.75057C6.99277 7.66986 7.02159 7.59492 7.04465 7.52574C7.06771 7.44504 7.07924 7.40468 7.07924 7.40468C7.07924 7.31245 7.05618 7.23751 7.01006 7.17986C6.97548 7.12221 6.95242 7.03574 6.94089 6.92045C6.95242 6.92045 6.95818 6.91468 6.95818 6.90315L6.97548 6.92045L7.01006 6.95504L7.02736 6.97233C7.09653 6.97233 7.15995 6.94927 7.21759 6.90315C7.28677 6.85704 7.36171 6.83398 7.44242 6.83398C7.54618 6.83398 7.63265 6.89739 7.70183 7.02421C7.78253 7.15104 7.83442 7.2548 7.85748 7.33551C7.88053 7.3701 7.90936 7.45657 7.94395 7.59492C7.97853 7.72174 7.99583 7.80245 7.99583 7.83704C7.96124 7.8601 7.94395 7.89468 7.94395 7.9408C7.94395 8.07915 7.99583 8.22904 8.09959 8.39045C8.20336 8.55186 8.23795 8.70751 8.20336 8.85739L8.54924 9.53186V9.61833C8.54924 9.67598 8.50889 9.71633 8.42818 9.73939C8.35901 9.76245 8.29559 9.77398 8.23795 9.77398C8.14571 9.77398 8.0823 9.74515 8.04771 9.68751C8.01312 9.62986 7.9843 9.56645 7.96124 9.49727C7.94971 9.41657 7.93242 9.34739 7.90936 9.28974C7.8863 9.2321 7.84018 9.20327 7.77101 9.20327C7.77101 9.38774 7.7883 9.55492 7.82289 9.7048C7.85748 9.85468 7.97277 9.98151 8.16877 10.0853C8.12265 10.0968 8.10536 10.1084 8.11689 10.1199C8.12842 10.1199 8.13418 10.1314 8.13418 10.1545H8.16877C8.21489 10.1545 8.23795 10.143 8.23795 10.1199V10.241H8.34171V10.0853C8.36477 10.0968 8.38206 10.1314 8.39359 10.1891C8.40512 10.2352 8.41089 10.2698 8.41089 10.2928L8.3763 10.3274C8.36477 10.339 8.35901 10.3505 8.35901 10.362C8.35901 10.3735 8.35324 10.3793 8.34171 10.3793C8.34171 10.4024 8.36477 10.4485 8.41089 10.5177C8.45701 10.5753 8.48583 10.6099 8.49736 10.6214C8.49736 10.633 8.50889 10.6503 8.53195 10.6733C8.54348 10.6848 8.54924 10.6964 8.54924 10.7079L8.49736 10.7598V10.7771C8.49736 10.8347 8.51465 10.8924 8.54924 10.95C8.59536 11.0077 8.64724 11.0653 8.70489 11.123C8.76253 11.1806 8.82018 11.2383 8.87783 11.2959C8.93548 11.342 8.98159 11.3881 9.01618 11.4343C9.05077 11.4919 9.05653 11.5265 9.03348 11.538C9.02195 11.538 9.02771 11.5841 9.05077 11.6764C9.0623 11.7455 9.09689 11.8435 9.15453 11.9704C9.21218 12.0857 9.28136 12.2125 9.36206 12.3508C9.44277 12.4777 9.51771 12.6045 9.58689 12.7313C9.66759 12.8466 9.72524 12.9331 9.75983 12.9907C9.81748 13.083 9.90395 13.1406 10.0192 13.1637C10.1345 13.1867 10.221 13.2559 10.2787 13.3712V13.4231C10.2787 13.4577 10.2787 13.475 10.2787 13.475C10.2787 13.498 10.2902 13.5326 10.3132 13.5787C10.3478 13.6133 10.3767 13.6364 10.3997 13.6479C10.3997 13.6594 10.417 13.6767 10.4516 13.6998C10.4862 13.7228 10.5092 13.7401 10.5208 13.7517C10.5784 13.8439 10.6072 13.9419 10.6072 14.0457C10.6072 14.1494 10.6476 14.2417 10.7283 14.3224C10.7398 14.3339 10.7571 14.3512 10.7802 14.3743C10.8148 14.3858 10.8378 14.4031 10.8494 14.4261C10.9531 14.4723 11.005 14.5184 11.005 14.5645C11.005 14.5991 11.0569 14.6164 11.1607 14.6164V14.4434H11.1779C11.1895 14.455 11.2298 14.4723 11.299 14.4953C11.3336 14.5068 11.3624 14.5184 11.3855 14.5299C11.4201 14.5184 11.4489 14.4895 11.4719 14.4434C11.5065 14.3858 11.5238 14.3454 11.5238 14.3224C11.5354 14.3685 11.5584 14.3915 11.593 14.3915C11.6391 14.3915 11.6852 14.3973 11.7314 14.4088C11.789 14.4204 11.8409 14.4492 11.887 14.4953C11.9447 14.5414 11.9965 14.6279 12.0427 14.7547C12.0427 14.7663 12.0484 14.7951 12.0599 14.8412C12.0715 14.8873 12.0772 14.9161 12.0772 14.9277C12.1003 14.9623 12.1349 15.0372 12.181 15.1525C12.2387 15.2563 12.2732 15.3197 12.2848 15.3427C12.3078 15.3773 12.3424 15.4119 12.3885 15.4465C12.4347 15.4695 12.4577 15.5099 12.4577 15.5675C12.4577 15.5906 12.4462 15.6079 12.4231 15.6194C12.4116 15.631 12.4058 15.654 12.4058 15.6886L12.4231 15.7059C12.4231 15.7059 12.4347 15.7174 12.4577 15.7405C12.4692 15.752 12.4808 15.7578 12.4923 15.7578C12.4923 15.7693 12.4981 15.7981 12.5096 15.8443C12.5211 15.8904 12.5327 15.9134 12.5442 15.9134C12.5557 15.9365 12.5788 15.9538 12.6134 15.9653C12.6595 15.9768 12.6883 15.9826 12.6998 15.9826V16.2593H12.6307C12.6307 16.317 12.6422 16.3688 12.6652 16.415C12.6998 16.4726 12.7171 16.5303 12.7171 16.5879C12.7171 16.611 12.7114 16.6225 12.6998 16.6225C12.6998 16.634 12.6998 16.6513 12.6998 16.6744V16.7263C12.6883 16.7263 12.6825 16.732 12.6825 16.7435C12.671 16.7551 12.6652 16.7666 12.6652 16.7781C12.6652 16.7897 12.671 16.807 12.6825 16.83C12.6941 16.8531 12.6998 16.8761 12.6998 16.8992C12.6191 16.9338 12.5615 16.9914 12.5269 17.0721C12.5038 17.1528 12.5096 17.2335 12.5442 17.3143C12.5442 17.3027 12.5327 17.2912 12.5096 17.2797C12.4865 17.2681 12.4692 17.2681 12.4577 17.2797C12.3885 17.3027 12.3424 17.3546 12.3194 17.4353C12.2963 17.516 12.2848 17.5852 12.2848 17.6428C12.2502 17.6313 12.2329 17.6198 12.2329 17.6083C12.2444 17.6083 12.2502 17.5967 12.2502 17.5737H12.1637V17.6947C12.1637 17.7063 12.1695 17.7178 12.181 17.7293C12.181 17.7408 12.181 17.7466 12.181 17.7466C12.1925 17.7466 12.1983 17.7524 12.1983 17.7639C12.1983 17.7754 12.2041 17.7812 12.2156 17.7812C12.2156 17.7927 12.2041 17.8158 12.181 17.8504C12.1695 17.8965 12.1637 17.9311 12.1637 17.9541C12.1061 17.8619 12.0311 17.7985 11.9389 17.7639C11.8582 17.7293 11.789 17.6659 11.7314 17.5737C11.6622 17.4584 11.6276 17.3258 11.6276 17.1759C11.6276 17.0375 11.593 16.9107 11.5238 16.7954L11.4547 16.7781C11.397 16.7435 11.3682 16.6974 11.3682 16.6398C11.3682 16.5937 11.3509 16.5533 11.3163 16.5187C11.1779 16.3804 11.0627 16.242 10.9704 16.1037C10.8782 15.9653 10.7571 15.8327 10.6072 15.7059H10.5727C10.5611 15.7059 10.5554 15.7001 10.5554 15.6886C10.5554 15.6655 10.5496 15.6194 10.5381 15.5503C10.5381 15.4811 10.5323 15.435 10.5208 15.4119C10.5208 15.4119 10.4977 15.4004 10.4516 15.3773C10.4285 15.3658 10.4112 15.3543 10.3997 15.3427C10.3651 15.3081 10.3478 15.262 10.3478 15.2044V15.0487C10.3478 15.0257 10.319 14.9911 10.2614 14.945C10.2037 14.8873 10.1634 14.8527 10.1403 14.8412C10.1172 14.8181 10.0481 14.772 9.93277 14.7028C9.82901 14.6221 9.77136 14.5818 9.75983 14.5818ZM10.6937 16.5187C10.7052 16.5187 10.7225 16.513 10.7456 16.5014C10.7687 16.4784 10.7917 16.4668 10.8148 16.4668C10.8955 16.6513 10.9762 16.807 11.0569 16.9338H10.9704C10.9358 16.8992 10.9012 16.8588 10.8667 16.8127C10.8436 16.7781 10.8205 16.7435 10.7975 16.709C10.7744 16.6859 10.7514 16.6628 10.7283 16.6398C10.7168 16.6283 10.711 16.6167 10.711 16.6052C10.6995 16.5937 10.6937 16.5821 10.6937 16.5706C10.6822 16.5706 10.6764 16.5648 10.6764 16.5533V16.5187H10.6937ZM12.2502 16.0518C12.2502 16.144 12.2905 16.2478 12.3712 16.3631C12.4635 16.4899 12.5211 16.5821 12.5442 16.6398C12.5557 16.6283 12.5615 16.5994 12.5615 16.5533C12.573 16.5187 12.5788 16.4899 12.5788 16.4668C12.5788 16.4092 12.5269 16.3285 12.4231 16.2247C12.3309 16.1325 12.2732 16.0633 12.2502 16.0172V16.0518ZM11.4547 16.4668C11.4201 16.4668 11.4028 16.4841 11.4028 16.5187C11.4028 16.5533 11.4201 16.5706 11.4547 16.5706C11.4777 16.5706 11.4892 16.5533 11.4892 16.5187C11.4892 16.4841 11.4777 16.4668 11.4547 16.4668ZM10.8148 15.7578C10.7917 15.7578 10.7802 15.7751 10.7802 15.8097C10.7802 15.8327 10.7917 15.8443 10.8148 15.8443C10.8378 15.8443 10.8494 15.8327 10.8494 15.8097C10.8494 15.7751 10.8378 15.7578 10.8148 15.7578ZM4.53701 14.8585C4.53701 15.0084 4.46783 15.0833 4.32948 15.0833H4.29489C4.35253 15.0372 4.38712 14.9911 4.39865 14.945C4.42171 14.8873 4.46783 14.8585 4.53701 14.8585ZM4.08736 14.9104C4.02971 14.9104 3.99512 14.9277 3.98359 14.9623C3.98359 14.9853 3.98359 15.0199 3.98359 15.066C4.01818 15.066 4.04124 15.0487 4.05277 15.0141C4.07583 14.9795 4.08736 14.945 4.08736 14.9104ZM11.9043 14.9968C11.9158 15.0084 11.9274 15.0199 11.9389 15.0314C11.9619 15.0314 11.985 15.0372 12.0081 15.0487V14.9277C11.9619 14.9277 11.9274 14.9392 11.9043 14.9623V14.9795V14.9968ZM4.05277 14.184C4.05277 14.2763 4.02395 14.3512 3.9663 14.4088C3.92018 14.455 3.89712 14.5241 3.89712 14.6164C3.83948 14.6164 3.78183 14.6337 3.72418 14.6683C3.66653 14.6913 3.61465 14.7201 3.56853 14.7547V14.7201C3.56853 14.7201 3.59159 14.6913 3.63771 14.6337C3.68383 14.576 3.72995 14.5126 3.77606 14.4434C3.83371 14.3743 3.88559 14.3166 3.93171 14.2705C3.98936 14.2128 4.02971 14.184 4.05277 14.184ZM2.73842 14.651C2.71536 14.651 2.70383 14.6683 2.70383 14.7028C2.70383 14.7374 2.71536 14.7547 2.73842 14.7547C2.76148 14.7547 2.77301 14.7374 2.77301 14.7028C2.77301 14.6683 2.76148 14.651 2.73842 14.651ZM9.01618 14.0457C9.09689 14.0457 9.1603 14.0399 9.20642 14.0284C9.25253 14.0168 9.27559 13.965 9.27559 13.8727C9.21795 13.8727 9.18336 13.867 9.17183 13.8554C9.1603 13.8324 9.12571 13.8208 9.06806 13.8208H9.01618V14.0457ZM7.28677 13.9073C7.26371 13.8958 7.25218 13.9015 7.25218 13.9246C7.25218 13.9477 7.26371 13.9592 7.28677 13.9592C7.2983 13.9477 7.2983 13.9304 7.28677 13.9073ZM8.3763 13.9592C8.39936 13.9361 8.37053 13.9246 8.28983 13.9246C8.22065 13.9246 8.19183 13.9361 8.20336 13.9592C8.26101 13.9938 8.31865 13.9938 8.3763 13.9592ZM5.50548 11.6418C5.48242 11.6418 5.47089 11.6533 5.47089 11.6764C5.47089 11.6994 5.48242 11.711 5.50548 11.711C5.52853 11.711 5.54006 11.6994 5.54006 11.6764C5.54006 11.6533 5.52853 11.6418 5.50548 11.6418ZM8.79136 11.0538C8.81442 10.8578 8.78559 10.6906 8.70489 10.5523C8.62418 10.4024 8.5723 10.2294 8.54924 10.0334H8.56653C8.58959 10.0334 8.60689 10.0565 8.61842 10.1026C8.62995 10.1372 8.65301 10.1545 8.68759 10.1545V10.0334C8.69912 10.068 8.72795 10.1199 8.77406 10.1891C8.82018 10.2583 8.8663 10.3332 8.91242 10.4139C8.97006 10.4831 9.01618 10.558 9.05077 10.6387C9.09689 10.7079 9.11995 10.7598 9.11995 10.7944C9.13148 10.8174 9.13148 10.8635 9.11995 10.9327C9.11995 10.9904 9.11995 11.0307 9.11995 11.0538C9.14301 11.1575 9.19489 11.244 9.27559 11.3132C9.3563 11.3824 9.39665 11.4804 9.39665 11.6072C9.31595 11.6072 9.25253 11.5495 9.20642 11.4343C9.17183 11.3074 9.13148 11.221 9.08536 11.1748H9.05077H9.01618C9.00465 11.1633 8.98159 11.1518 8.94701 11.1403C8.91242 11.1172 8.88936 11.0999 8.87783 11.0884C8.85477 11.0653 8.82595 11.0538 8.79136 11.0538ZM8.3763 10.7079H8.46277C8.43971 10.6503 8.41089 10.6099 8.3763 10.5868V10.7079ZM6.38748 9.96421C6.5143 9.96421 6.60077 9.94692 6.64689 9.91233C6.69301 9.87774 6.76218 9.86045 6.85442 9.86045V9.91233C6.85442 9.93539 6.86018 9.95268 6.87171 9.96421L6.9063 9.99881C6.88324 10.0334 6.85442 10.0623 6.81983 10.0853C6.75065 10.1314 6.70453 10.1545 6.68148 10.1545C6.62383 10.1545 6.56042 10.143 6.49124 10.1199C6.42206 10.0853 6.38748 10.0334 6.38748 9.96421ZM6.68148 10.0334C6.68148 10.0219 6.66995 10.0161 6.64689 10.0161C6.63536 10.0161 6.63536 10.0219 6.64689 10.0334C6.66995 10.0565 6.68148 10.0565 6.68148 10.0334ZM6.64689 9.53186L6.62959 9.49727C6.62959 9.40504 6.67571 9.34162 6.76795 9.30704C6.87171 9.26093 6.95818 9.23786 7.02736 9.23786C7.02736 9.26092 7.02159 9.28398 7.01006 9.30704C7.01006 9.33011 6.99853 9.34739 6.97548 9.35892C6.96395 9.35892 6.95818 9.35315 6.95818 9.34162L6.94089 9.32433H6.92359H6.9063C6.89477 9.32433 6.88901 9.3301 6.88901 9.34162C6.88901 9.34162 6.88324 9.34162 6.87171 9.34162L6.85442 9.35892V9.39351C6.85442 9.4281 6.87171 9.44539 6.9063 9.44539V9.46268V9.49727C6.89477 9.49727 6.88324 9.5088 6.87171 9.53186C6.87171 9.55492 6.86595 9.56645 6.85442 9.56645L6.83712 9.58375C6.81406 9.58375 6.79677 9.56645 6.78524 9.53186C6.77371 9.49727 6.75642 9.46845 6.73336 9.44539L6.64689 9.53186ZM21.2985 16.4495C21.2755 16.4034 21.2236 16.2997 21.1429 16.1383C21.0737 15.9884 21.0276 15.8904 21.0045 15.8443C20.9699 15.7635 20.9411 15.6713 20.918 15.5675C20.9065 15.4638 20.8373 15.4119 20.7105 15.4119C20.526 15.4119 20.3358 15.4523 20.1398 15.533C19.9553 15.6137 19.7824 15.6771 19.621 15.7232C19.3443 15.7924 19.0042 15.85 18.6006 15.8961C18.1971 15.9423 17.8512 15.9653 17.563 15.9653C16.975 15.9653 16.4216 15.9019 15.9028 15.7751C15.3955 15.6367 14.917 15.3773 14.4673 14.9968C14.1676 14.7432 13.9658 14.455 13.862 14.1321C13.7698 13.7978 13.7237 13.4346 13.7237 13.0426C13.7237 12.7428 13.7756 12.4315 13.8793 12.1087C13.9831 11.7744 14.0869 11.4746 14.1906 11.2094C14.2137 11.1633 14.254 11.0884 14.3117 10.9846C14.3809 10.8693 14.427 10.7655 14.45 10.6733C15.0726 9.61257 15.8278 8.81127 16.7156 8.26939C17.6033 7.71598 18.664 7.43927 19.8977 7.43927C20.0591 7.43927 20.2148 7.43927 20.3646 7.43927C20.5145 7.43927 20.6702 7.4508 20.8316 7.47386C20.8546 7.47386 20.9008 7.48539 20.9699 7.50845C21.0506 7.51998 21.1025 7.53727 21.1256 7.56033C21.2985 7.61798 21.4599 7.6641 21.6098 7.69868C21.7597 7.73327 21.8923 7.77939 22.0076 7.83704C22.1344 7.89468 22.2324 7.98115 22.3016 8.09645C22.3708 8.20021 22.4053 8.36162 22.4053 8.58068C22.4053 8.60374 22.3996 8.63833 22.388 8.68445C22.388 8.73057 22.388 8.75939 22.388 8.77092C22.3304 8.82857 22.2439 8.89198 22.1286 8.96115C22.0249 9.01881 21.9384 9.04762 21.8692 9.04762C21.7655 9.04762 21.679 9.0361 21.6098 9.01304C21.5406 8.97845 21.4484 8.95539 21.3331 8.94386C21.1948 8.94386 21.0276 8.9381 20.8316 8.92657C20.6471 8.91504 20.4742 8.90928 20.3128 8.90928C20.2666 8.90928 20.2378 8.91504 20.2263 8.92657C20.2148 8.9381 20.1975 8.94386 20.1744 8.94386C20.1168 8.94386 20.0706 8.93234 20.036 8.90928C20.013 8.90928 19.9496 8.90928 19.8458 8.90928C19.7536 8.89775 19.6959 8.89198 19.6729 8.89198C19.3731 8.89198 19.0791 8.93233 18.7909 9.01304C18.5142 9.09374 18.2259 9.18021 17.9262 9.27245C17.5572 9.39927 17.2171 9.57798 16.9058 9.80857C16.606 10.0277 16.3466 10.2871 16.1276 10.5868C15.9085 10.8866 15.7356 11.221 15.6088 11.5899C15.4819 11.9473 15.4185 12.322 15.4185 12.714C15.4185 12.8524 15.4819 12.9907 15.6088 13.1291C15.7356 13.2674 15.8855 13.4 16.0584 13.5268C16.2313 13.6421 16.4043 13.7459 16.5772 13.8381C16.7617 13.9188 16.9116 13.9707 17.0269 13.9938C17.1883 14.0399 17.3151 14.0572 17.4073 14.0457C17.5111 14.0341 17.661 14.0284 17.857 14.0284C18.1913 14.0284 18.5142 14.0053 18.8255 13.9592C19.1368 13.9131 19.4596 13.8554 19.7939 13.7863C19.8977 13.7632 20.013 13.7459 20.1398 13.7344C20.2666 13.7113 20.3877 13.671 20.503 13.6133V13.3366C20.503 13.1983 20.4972 13.0887 20.4857 13.008C20.4857 12.9158 20.4742 12.7947 20.4511 12.6448C20.4511 12.5872 20.4396 12.5065 20.4165 12.4027C20.405 12.2874 20.3935 12.2298 20.3819 12.2298L20.209 12.0914C20.036 12.103 19.8804 12.0972 19.742 12.0741C19.6152 12.0395 19.4826 12.0223 19.3443 12.0223H19.327C19.2693 12.0223 19.1944 12.028 19.1022 12.0395C19.0215 12.0511 18.935 12.0626 18.8428 12.0741C18.762 12.0741 18.6871 12.0799 18.6179 12.0914C18.5603 12.0914 18.5257 12.0914 18.5142 12.0914C18.3873 12.126 18.2663 12.1664 18.151 12.2125C18.0472 12.2471 17.9262 12.2644 17.7878 12.2644C17.7071 12.2644 17.6033 12.2528 17.4765 12.2298C17.3612 12.1952 17.3036 12.126 17.3036 12.0223C17.3036 11.9185 17.3209 11.8435 17.3555 11.7974C17.39 11.7398 17.4419 11.6764 17.5111 11.6072C17.6149 11.4919 17.7186 11.4054 17.8224 11.3478C17.9377 11.2786 18.053 11.2325 18.1683 11.2094C18.2951 11.1864 18.4219 11.1691 18.5488 11.1575C18.6871 11.146 18.8312 11.1287 18.9811 11.1057C19.2463 11.048 19.5115 10.9904 19.7766 10.9327C20.0418 10.8635 20.3012 10.829 20.5549 10.829C20.5895 10.829 20.6356 10.8347 20.6932 10.8463C20.7624 10.8463 20.8085 10.8463 20.8316 10.8463C20.9699 10.9154 21.0622 10.9846 21.1083 11.0538C21.1544 11.1114 21.2293 11.1979 21.3331 11.3132C21.3562 11.3247 21.3908 11.3535 21.4369 11.3997C21.4945 11.4343 21.5349 11.4573 21.5579 11.4688C21.8116 11.6994 21.973 11.9934 22.0422 12.3508C22.1113 12.7083 22.1344 13.0484 22.1113 13.3712C22.1344 13.3943 22.1632 13.4115 22.1978 13.4231C22.2439 13.4231 22.2843 13.4288 22.3189 13.4404C22.3535 13.4404 22.3823 13.4519 22.4053 13.475C22.4284 13.4865 22.4399 13.5268 22.4399 13.596V13.6133C22.3592 13.7286 22.3016 13.8324 22.267 13.9246C22.2324 14.0053 22.2151 14.1148 22.2151 14.2532C22.2151 14.4261 22.2382 14.5933 22.2843 14.7547C22.3419 14.9161 22.3996 15.0833 22.4572 15.2563C22.5149 15.4177 22.5668 15.5791 22.6129 15.7405C22.6705 15.9019 22.6993 16.0691 22.6993 16.242C22.6993 16.4611 22.6705 16.6398 22.6129 16.7781C22.5668 16.9165 22.4169 16.9857 22.1632 16.9857C22.0364 16.9857 21.9326 16.9568 21.8519 16.8992C21.7828 16.8531 21.7136 16.7954 21.6444 16.7263C21.5868 16.6686 21.5291 16.611 21.4715 16.5533C21.4253 16.4957 21.3677 16.4611 21.2985 16.4495Z" fill="white"/>
</svg>
