<svg width="24" height="24" viewBox="0 0 24 24" fill="none" xmlns="http://www.w3.org/2000/svg">
<path d="M2.37303 16.9996L7.42703 6.68164H10.941L12.271 16.9996H10.031L9.79303 14.7176H5.88703L4.85103 16.9996H2.37303ZM6.69903 12.9396H9.61103L9.14903 8.50164H8.72903L6.69903 12.9396ZM13.3202 19.6176L13.6002 18.0496L17.7442 18.0356L18.4022 17.4896L18.6682 15.9916L17.3942 16.9996H14.7482L13.4602 15.4456L14.2022 11.2456L16.0362 9.67764H18.6822L19.5922 10.6996L19.7742 9.69164H21.8882L20.4042 18.0496L18.5702 19.6176H13.3202ZM16.0642 15.5996H17.3382L18.9622 14.2836L19.2982 12.3936L18.1362 11.0916L16.8482 11.0776L16.2882 11.5816L15.6582 15.1096L16.0642 15.5996Z" fill="white"/>
</svg>
