<svg width="24" height="24" viewBox="0 0 24 24" fill="none" xmlns="http://www.w3.org/2000/svg">
<path d="M3.19273 16.9996L8.49873 6.68164H10.3747L12.1527 16.9996H10.8647L10.4447 14.3116H5.96473L4.63473 16.9996H3.19273ZM6.52473 13.1916H10.2767L9.45073 7.88564H9.17073L6.52473 13.1916ZM13.4406 19.6176L13.6226 18.5956L17.5706 18.5816L18.4806 17.8256L18.8166 15.8516L17.6126 16.9996H14.9106L13.6226 15.4316L14.3926 11.0356L15.9746 9.67764H18.7046L19.6986 10.8396L19.9086 9.67764H21.1406L19.6426 18.1616L17.9346 19.6176H13.4406ZM17.3606 16.0196L19.0406 14.5636L19.4746 12.1136L18.2986 10.6576H16.4506L15.5546 11.4276L14.8826 15.2496L15.5126 16.0196H17.3606Z" fill="white"/>
</svg>
