<svg width="24" height="24" viewBox="0 0 24 24" fill="none" xmlns="http://www.w3.org/2000/svg">
<path d="M3.72758 16.9996L7.45158 6.68164H8.34759L12.0716 16.9996H11.5956L10.5176 14.0176H5.28158L4.20358 16.9996H3.72758ZM5.43558 13.5836H10.3636L8.03958 7.14364H7.75958L5.43558 13.5836ZM14.0573 19.6176V19.1836H17.7533L18.7613 18.1616V15.6976L17.5573 16.9996H14.7293L13.4133 15.6836V11.0076L14.7293 9.67764H17.5573L18.7613 10.9936V9.67764H19.2233V18.3016L17.9213 19.6176H14.0573ZM17.4033 16.5796L18.7613 15.1376V11.5396L17.4033 10.0976H14.8973L13.8753 11.1336V15.5576L14.8973 16.5796H17.4033Z" fill="white"/>
</svg>
