<svg width="24" height="24" viewBox="0 0 24 24" fill="none" xmlns="http://www.w3.org/2000/svg">
<path d="M2.38414 16.9996L7.53614 6.68164H10.0141L11.7221 16.9996H9.93014L9.58014 14.4936H5.56214L4.37214 16.9996H2.38414ZM6.29014 12.9536H9.38414L8.75414 8.34764H8.46014L6.29014 12.9536ZM12.8355 19.6176L13.0735 18.2316H17.1895L17.9175 17.6156L18.2115 15.9496L17.1055 16.9996H14.4875L13.0875 15.2916L13.8295 11.0916L15.4675 9.67764H18.1415L19.1215 10.7416L19.3035 9.67764H20.9975L19.5275 18.0636L17.6935 19.6176H12.8355ZM16.7695 15.6836L18.5055 14.2276L18.8135 12.4636L17.5955 10.9936H16.1535L15.4255 11.6096L14.8095 15.0676L15.3275 15.6836H16.7695Z" fill="white"/>
</svg>
