<svg width="24" height="24" viewBox="0 0 24 24" fill="none" xmlns="http://www.w3.org/2000/svg">
<path d="M2.06509 16.9996L6.96509 6.68164H11.2351L12.4111 16.9996H9.75109L9.59709 14.9416H5.91509L5.04709 16.9996H2.06509ZM6.74109 12.9256H9.42909L9.09309 8.65564H8.58909L6.74109 12.9256ZM13.3397 19.6176L13.6477 17.8536H17.8197L18.3937 17.3636L18.6317 16.0616L17.3437 16.9996H14.6977L13.4237 15.4456L14.1657 11.2456L15.9857 9.67764H18.6457L19.5837 10.6296L19.7517 9.69164H22.2437L20.7737 18.0356L18.9257 19.6176H13.3397ZM16.3217 15.5016H17.4277L18.9257 14.3816L19.2897 12.3096L18.1977 11.1756H17.0777L16.6717 11.5536L16.0417 15.1516L16.3217 15.5016Z" fill="white"/>
</svg>
