<svg width="24" height="24" viewBox="0 0 24 24" fill="none" xmlns="http://www.w3.org/2000/svg">
<path d="M3.33078 16.9996L8.93078 6.68164H9.60278L11.5488 16.9996H11.2548L10.6808 13.9616H5.30478L3.65278 16.9996H3.33078ZM5.47278 13.6536H10.6248L9.36478 6.98964H9.08478L5.47278 13.6536ZM13.1441 19.6176L13.2001 19.3096H16.8401L18.0861 18.2316L18.5341 15.6696L17.1061 16.9996H14.2221L13.1721 15.7116L14.0121 10.9376L15.4821 9.67764H18.3381L19.3601 11.0496L19.5981 9.67764H19.9061L18.3801 18.3576L16.9101 19.6176H13.1441ZM14.3761 16.6916H17.0221L18.6181 15.2496L19.2901 11.4276L18.1981 9.98564H15.5521L14.3061 11.0636L13.4941 15.6136L14.3761 16.6916Z" fill="white"/>
</svg>
