<svg width="24" height="24" viewBox="0 0 24 24" fill="none" xmlns="http://www.w3.org/2000/svg">
<path d="M4.06184 17.0002V8.6422L5.50384 7.2002H10.0258L11.4678 8.6422V17.0002H9.49384V14.1162H6.03584V17.0002H4.06184ZM4.85984 16.1672H5.29384V13.3602H10.2638V16.1672H10.6978V8.9852L9.63384 7.9282H5.92384L4.85984 8.9852V16.1672ZM6.03584 12.1422H9.49384V9.6082L9.06684 9.1812H6.46284L6.03584 9.6082V12.1422ZM5.29384 12.9332V9.1672L6.11984 8.3552H9.43784L10.2638 9.1672V12.9332H5.29384ZM13.3866 19.8002V17.8262H17.3206L17.8876 17.2592V16.8602L17.7476 17.0002H14.4786L13.0366 15.5582V10.8822L14.4786 9.4402H18.4196L19.8616 10.8822V18.3582L18.4196 19.8002H13.3866ZM14.1566 19.0442H17.9016L19.1266 17.7842V11.3162L17.9926 10.1822H14.8846L13.8066 11.2532V15.0752L14.9546 16.2162H17.5656L18.6926 15.0892V17.5812L17.6846 18.6172H14.1566V19.0442ZM15.1436 15.7822L14.2406 14.8932V11.4352L15.0736 10.6162H17.7966L18.6926 11.4982V14.5432L17.4396 15.7822H15.1436ZM15.4446 15.0192H17.1876L17.8876 14.3192V11.8412L17.4536 11.4142H15.4446L15.0176 11.8412V14.5922L15.4446 15.0192Z" fill="white"/>
</svg>
