<svg width="24" height="24" viewBox="0 0 24 24" fill="none" xmlns="http://www.w3.org/2000/svg">
<path d="M4.06184 17.0002V8.6422L5.50384 7.2002H10.0258L11.4678 8.6422V17.0002H9.49384V14.1162H6.03584V17.0002H4.06184ZM5.04884 16.0062H5.04184V13.1572H10.5158V16.0062H10.5088V9.0552L9.63384 8.1872H5.92384L5.04884 9.0552V16.0062ZM6.03584 12.1422H9.49384V9.6082L9.06684 9.1812H6.46284L6.03584 9.6082V12.1422ZM5.04184 13.1642V9.0552L5.92384 8.1802H9.63384L10.5158 9.0552V13.1642H5.04184ZM13.3866 19.8002V17.8262H17.3206L17.8876 17.2592V16.8602L17.7476 17.0002H14.4786L13.0366 15.5582V10.8822L14.4786 9.4402H18.4196L19.8616 10.8822V18.3582L18.4196 19.8002H13.3866ZM14.2686 18.8202H17.8316L18.9096 17.6582V11.4142L17.9436 10.4202H14.9546L14.0026 11.3722V14.9282L15.0736 16.0062H17.4956L18.9096 14.6622V17.6582L17.8316 18.8202H14.2686ZM15.0736 16.0062L14.0026 14.9282V11.3722L14.9546 10.4202H17.9436L18.9096 11.4142V14.6622L17.4956 16.0062H15.0736ZM15.4446 15.0192H17.1876L17.8876 14.3192V11.8412L17.4536 11.4142H15.4446L15.0176 11.8412V14.5922L15.4446 15.0192Z" fill="white"/>
</svg>
