<svg width="24" height="24" viewBox="0 0 24 24" fill="none" xmlns="http://www.w3.org/2000/svg">
<path d="M4.06184 17.0002V8.6422L5.50384 7.2002H10.0258L11.4678 8.6422V17.0002H9.49384V14.1162H6.03584V17.0002H4.06184ZM4.74084 16.2932H5.40584V13.4792H10.1518V16.2932H10.8168V8.9362L9.69684 7.8162H5.85384L4.74084 8.9362V16.2932ZM6.03584 12.1422H9.49384V9.6082L9.06684 9.1812H6.46284L6.03584 9.6082V12.1422ZM5.40584 12.8142V9.2442L6.16884 8.4812H9.38184L10.1518 9.2442V12.8142H5.40584ZM13.3866 19.8002V17.8262H17.3206L17.8876 17.2592V16.8602L17.7476 17.0002H14.4786L13.0366 15.5582V10.8822L14.4786 9.4402H18.4196L19.8616 10.8822V18.3582L18.4196 19.8002H13.3866ZM14.0446 19.1632H17.9856L19.2316 17.8822V11.2462L18.0626 10.0702H14.8146L13.6946 11.1972V15.1522L14.8706 16.3352H17.5866L18.5736 15.3482V17.5322L17.6286 18.4982H14.0446V19.1632ZM15.1926 15.6702L14.3596 14.8442V11.5052L15.1366 10.7352H17.7476L18.5736 11.5472V14.5152L17.4046 15.6702H15.1926ZM15.4446 15.0192H17.1876L17.8876 14.3192V11.8412L17.4536 11.4142H15.4446L15.0176 11.8412V14.5922L15.4446 15.0192Z" fill="white"/>
</svg>
