<svg width="24" height="24" viewBox="0 0 24 24" fill="none" xmlns="http://www.w3.org/2000/svg">
<path d="M3.86161 17.0002L5.63961 8.6422L7.38961 7.2002H11.9116L13.0456 8.6422L11.2676 17.0002H9.29361L9.90961 14.1162H6.45161L5.83561 17.0002H3.86161ZM5.03061 16.0202H5.12161L5.72361 13.1992H11.0576L10.4626 16.0202H10.5536L12.0376 9.0482L11.2956 8.1102H7.64861L6.50761 9.0482L5.03061 16.0202ZM6.87161 12.1422H10.3296L10.8686 9.6082L10.5326 9.1812H7.92861L7.41061 9.6082L6.87161 12.1422ZM5.74461 13.1082L6.59861 9.0762L7.66961 8.2012H11.2396L11.9326 9.0762L11.0786 13.1082H5.74461ZM12.8294 19.8002L13.2494 17.8262H17.1834L17.8694 17.2592L17.9534 16.8602L17.7854 17.0002H14.5164L13.3824 15.5582L14.3764 10.8822L16.1194 9.4402H20.0604L21.2014 10.8822L19.6054 18.3582L17.8624 19.8002H12.8294ZM13.9074 18.8762H17.4564L18.8564 17.6722L20.1864 11.4002L19.3814 10.3572H16.3994L15.2024 11.3442L14.4394 14.9562L15.2934 16.0482H17.7574L19.3814 14.7392L18.7654 17.6442L17.4424 18.7782H13.9284L13.9074 18.8762ZM15.3494 15.9502L14.5374 14.9282L15.3004 11.3722L16.4134 10.4552H19.3254L20.0884 11.4282L19.4094 14.6132L17.7434 15.9502H15.3494ZM15.9024 15.0192H17.6454L18.4924 14.3192L19.0174 11.8412L18.6744 11.4142H16.6654L16.1474 11.8412L15.5664 14.5922L15.9024 15.0192Z" fill="white"/>
</svg>
