<svg width="24" height="24" viewBox="0 0 24 24" fill="none" xmlns="http://www.w3.org/2000/svg">
<path d="M3.86161 17.0002L5.63961 8.6422L7.38961 7.2002H11.9116L13.0456 8.6422L11.2676 17.0002H9.29361L9.90961 14.1162H6.45161L5.83561 17.0002H3.86161ZM4.99561 16.0342H5.19161L5.77961 13.2482H10.9806L10.3926 16.0342H10.5886L12.0726 9.0412L11.2746 8.0332H7.69761L6.47961 9.0412L4.99561 16.0342ZM6.87161 12.1422H10.3296L10.8686 9.6082L10.5326 9.1812H7.92861L7.41061 9.6082L6.87161 12.1422ZM5.82161 13.0522L6.66161 9.0972L7.73261 8.2292H11.1696L11.8626 9.0972L11.0226 13.0522H5.82161ZM12.8294 19.8002L13.2494 17.8262H17.1834L17.8694 17.2592L17.9534 16.8602L17.7854 17.0002H14.5164L13.3824 15.5582L14.3764 10.8822L16.1194 9.4402H20.0604L21.2014 10.8822L19.6054 18.3582L17.8624 19.8002H12.8294ZM13.9004 18.9322H17.4354L18.9054 17.6862L20.2424 11.3862L19.3814 10.2942H16.4064L15.1674 11.3162L14.3904 14.9912L15.2584 16.0972H17.7714L19.3184 14.8232L18.7234 17.6302L17.4074 18.7362H13.9424L13.9004 18.9322ZM15.3704 15.9012L14.5934 14.9352L15.3564 11.3722L16.4344 10.4902H19.2694L20.0394 11.4422L19.3674 14.5712L17.7434 15.9012H15.3704ZM15.9024 15.0192H17.6454L18.4924 14.3192L19.0174 11.8412L18.6744 11.4142H16.6654L16.1474 11.8412L15.5664 14.5922L15.9024 15.0192Z" fill="white"/>
</svg>
