<svg width="24" height="24" viewBox="0 0 24 24" fill="none" xmlns="http://www.w3.org/2000/svg">
<path d="M4.06184 17.0002V8.6422L5.50384 7.2002H10.0258L11.4678 8.6422V17.0002H9.49384V14.1162H6.03584V17.0002H4.06184ZM4.37684 16.6782H5.73484V13.8222H9.80184V16.6782H11.1668V8.7752L9.88584 7.4942H5.65084L4.37684 8.7752V16.6782ZM6.03584 12.1422H9.49384V9.6082L9.06684 9.1812H6.46284L6.03584 9.6082V12.1422ZM5.73484 12.4502V9.4612L6.32984 8.8662H9.20684L9.80184 9.4612V12.4502H5.73484ZM13.3866 19.8002V17.8262H17.3206L17.8876 17.2592V16.8602L17.7476 17.0002H14.4786L13.0366 15.5582V10.8822L14.4786 9.4402H18.4196L19.8616 10.8822V18.3582L18.4196 19.8002H13.3866ZM13.6946 19.5062H18.2516L19.5606 18.1832V11.0292L18.2726 9.7342H14.6186L13.3446 11.0222V15.3972L14.6326 16.6922H17.6496L18.2026 16.1392V17.3922L17.4536 18.1342H13.6946V19.5062ZM15.3256 15.3272L14.7096 14.7112V11.7012L15.3116 11.0992H17.5936L18.2026 11.7082V14.4312L17.2996 15.3272H15.3256ZM15.4446 15.0192H17.1876L17.8876 14.3192V11.8412L17.4536 11.4142H15.4446L15.0176 11.8412V14.5922L15.4446 15.0192Z" fill="white"/>
</svg>
