<svg width="24" height="24" viewBox="0 0 24 24" fill="none" xmlns="http://www.w3.org/2000/svg">
<path d="M10.3745 17.0002H9.84253L9.00253 14.1442H4.91453L4.07453 17.0002H3.54253L6.46153 7.2002H7.45553L10.3745 17.0002ZM6.84653 7.6482L5.03353 13.6962H8.88353L7.07053 7.6482H6.84653ZM16.155 19.9402C15.6837 19.9402 15.28 19.8702 14.944 19.7302C14.6127 19.5949 14.342 19.4152 14.132 19.1912C13.922 18.9672 13.768 18.7269 13.67 18.4702C13.572 18.2135 13.523 17.9662 13.523 17.7282H13.985C13.985 17.8589 14.02 18.0199 14.09 18.2112C14.16 18.4072 14.2767 18.6009 14.44 18.7922C14.6033 18.9882 14.825 19.1515 15.105 19.2822C15.385 19.4129 15.735 19.4782 16.155 19.4782C16.715 19.4782 17.17 19.3429 17.52 19.0722C17.87 18.8015 18.1267 18.4469 18.29 18.0082C18.4533 17.5742 18.535 17.1075 18.535 16.6082V11.5682V10.0002H18.997V16.4402C18.997 16.8602 18.9573 17.2499 18.878 17.6092C18.8033 17.9685 18.689 18.2905 18.535 18.5752C18.3857 18.8645 18.1967 19.1095 17.968 19.3102C17.744 19.5155 17.4803 19.6719 17.177 19.7792C16.8737 19.8865 16.533 19.9402 16.155 19.9402ZM16.19 17.1542C15.854 17.1542 15.5157 17.0842 15.175 16.9442C14.839 16.7995 14.531 16.5802 14.251 16.2862C13.971 15.9875 13.7447 15.6072 13.572 15.1452C13.404 14.6785 13.32 14.1255 13.32 13.4862C13.32 12.6322 13.46 11.9369 13.74 11.4002C14.02 10.8635 14.3747 10.4715 14.804 10.2242C15.2333 9.9722 15.672 9.8462 16.12 9.8462C16.54 9.8462 16.9203 9.92787 17.261 10.0912C17.6017 10.2499 17.8933 10.4645 18.136 10.7352C18.3787 11.0012 18.5653 11.2999 18.696 11.6312C18.8267 11.9579 18.892 12.2915 18.892 12.6322L18.584 12.7022C18.5373 12.4129 18.451 12.1259 18.325 11.8412C18.2037 11.5565 18.0427 11.2999 17.842 11.0712C17.6413 10.8379 17.4057 10.6535 17.135 10.5182C16.8643 10.3782 16.5587 10.3082 16.218 10.3082C15.8027 10.3082 15.4083 10.4132 15.035 10.6232C14.6663 10.8332 14.3653 11.1715 14.132 11.6382C13.8987 12.1002 13.782 12.7162 13.782 13.4862C13.782 14.2422 13.9033 14.8559 14.146 15.3272C14.3887 15.7985 14.699 16.1439 15.077 16.3632C15.4597 16.5825 15.8587 16.6922 16.274 16.6922C16.6147 16.6922 16.918 16.6175 17.184 16.4682C17.4547 16.3189 17.6857 16.1205 17.877 15.8732C18.073 15.6259 18.2293 15.3505 18.346 15.0472C18.4673 14.7439 18.5467 14.4382 18.584 14.1302L18.892 14.2142C18.892 14.5689 18.8313 14.9212 18.71 15.2712C18.5887 15.6212 18.4113 15.9385 18.178 16.2232C17.9447 16.5032 17.66 16.7295 17.324 16.9022C16.9927 17.0702 16.6147 17.1542 16.19 17.1542Z" fill="white"/>
</svg>
