<svg width="24" height="24" viewBox="0 0 24 24" fill="none" xmlns="http://www.w3.org/2000/svg">
<path d="M11.6556 17.0422C11.5623 16.5942 11.455 16.1089 11.3336 15.5862C11.2216 15.0542 11.1003 14.4989 10.9696 13.9202C10.839 13.3322 10.7036 12.7302 10.5636 12.1142C10.4796 11.7409 10.391 11.3629 10.2976 10.9802C10.2136 10.5882 10.125 10.1962 10.0316 9.80421C9.93829 9.41221 9.84496 9.02021 9.75163 8.62821C9.66763 8.23621 9.57896 7.84421 9.48563 7.45221L9.03763 7.14421L9.94763 7.11621C10.0223 7.47088 10.1016 7.84421 10.1856 8.23621C10.2696 8.62821 10.3583 9.03421 10.4516 9.45421C10.545 9.86488 10.6383 10.2849 10.7316 10.7142C10.825 11.1342 10.9183 11.5542 11.0116 11.9742C11.1516 12.5902 11.287 13.2015 11.4176 13.8082C11.5576 14.4055 11.6883 14.9749 11.8096 15.5162C11.9403 16.0575 12.057 16.5522 12.1596 17.0002L11.6556 17.0422ZM7.69363 14.4802V13.9762L11.2776 14.0322V14.4242L7.69363 14.4802ZM7.41363 16.9162L6.89563 16.9022C6.98896 16.4915 7.09629 16.0249 7.21763 15.5022C7.33896 14.9702 7.46496 14.4055 7.59563 13.8082C7.73563 13.2109 7.87096 12.6042 8.00163 11.9882C8.14163 11.3722 8.27229 10.7702 8.39363 10.1822C8.52429 9.58488 8.64563 9.02954 8.75763 8.51621C8.86963 7.99354 8.96296 7.53621 9.03763 7.14421L9.94763 7.11621L9.49963 7.36821C9.39696 7.85354 9.28963 8.36221 9.17763 8.89421C9.06563 9.41688 8.94896 9.94888 8.82763 10.4902C8.70629 11.0315 8.58496 11.5775 8.46363 12.1282C8.34229 12.6975 8.21629 13.2622 8.08563 13.8222C7.96429 14.3822 7.84763 14.9235 7.73563 15.4462C7.62363 15.9595 7.51629 16.4495 7.41363 16.9162ZM15.6151 19.3242C15.2138 19.3242 14.8964 19.2589 14.6631 19.1282C14.4298 19.0069 14.2618 18.8482 14.1591 18.6522C14.0658 18.4562 14.0191 18.2462 14.0191 18.0222C14.0191 17.9662 14.0191 17.9102 14.0191 17.8542C14.0284 17.8075 14.0378 17.7562 14.0471 17.7002L14.4671 17.6162C14.4578 17.6629 14.4484 17.7095 14.4391 17.7562C14.4391 17.8122 14.4391 17.8635 14.4391 17.9102C14.4391 18.0969 14.4671 18.2695 14.5231 18.4282C14.5884 18.5869 14.7098 18.7129 14.8871 18.8062C15.0738 18.8995 15.3398 18.9462 15.6851 18.9462C16.1051 18.9462 16.4224 18.8482 16.6371 18.6522C16.8518 18.4655 16.9964 18.2089 17.0711 17.8822C17.1458 17.5649 17.1831 17.2102 17.1831 16.8182C17.1831 16.5849 17.1831 16.3095 17.1831 15.9922C17.1924 15.6749 17.1971 15.2875 17.1971 14.8302C17.1971 14.3635 17.1971 13.7989 17.1971 13.1362C17.1971 12.7722 17.2018 12.4222 17.2111 12.0862C17.2298 11.7409 17.2484 11.4189 17.2671 11.1202C17.2858 10.8215 17.3044 10.5602 17.3231 10.3362C17.3418 10.1029 17.3604 9.91621 17.3791 9.77621H17.7991C17.7898 9.91621 17.7758 10.0982 17.7571 10.3222C17.7384 10.5462 17.7198 10.8075 17.7011 11.1062C17.6824 11.3955 17.6684 11.7129 17.6591 12.0582C17.6498 12.3942 17.6451 12.7489 17.6451 13.1222C17.6451 13.6542 17.6404 14.1069 17.6311 14.4802C17.6311 14.8442 17.6311 15.1615 17.6311 15.4322C17.6404 15.7029 17.6404 15.9502 17.6311 16.1742C17.6311 16.3889 17.6311 16.6129 17.6311 16.8462C17.6311 17.1542 17.6031 17.4575 17.5471 17.7562C17.4911 18.0549 17.3884 18.3209 17.2391 18.5542C17.0991 18.7875 16.8938 18.9742 16.6231 19.1142C16.3618 19.2542 16.0258 19.3242 15.6151 19.3242ZM15.5031 17.1262C15.0458 17.1262 14.6958 16.9722 14.4531 16.6642C14.2198 16.3469 14.0518 15.9549 13.9491 15.4882C13.8744 15.1615 13.8231 14.8115 13.7951 14.4382C13.7764 14.0649 13.7671 13.6962 13.7671 13.3322C13.7671 13.0522 13.7764 12.7815 13.7951 12.5202C13.8138 12.2589 13.8418 12.0069 13.8791 11.7642C13.9258 11.5122 13.9818 11.2789 14.0471 11.0642C14.1871 10.6442 14.3924 10.3082 14.6631 10.0562C14.9338 9.79488 15.2931 9.66421 15.7411 9.66421C16.1424 9.66421 16.4831 9.79021 16.7631 10.0422C17.0431 10.2849 17.2531 10.6862 17.3931 11.2462C17.5424 11.8062 17.6171 12.5575 17.6171 13.5002L17.1971 12.9122C17.1971 12.2962 17.1458 11.7782 17.0431 11.3582C16.9404 10.9289 16.7771 10.6069 16.5531 10.3922C16.3384 10.1682 16.0538 10.0562 15.6991 10.0562C15.3631 10.0562 15.0971 10.1729 14.9011 10.4062C14.7051 10.6395 14.5558 10.9382 14.4531 11.3022C14.3598 11.6195 14.2944 11.9649 14.2571 12.3382C14.2291 12.7022 14.2151 13.0615 14.2151 13.4162C14.2151 13.6309 14.2151 13.8455 14.2151 14.0602C14.2244 14.2655 14.2384 14.4709 14.2571 14.6762C14.2851 14.8722 14.3131 15.0635 14.3411 15.2502C14.3971 15.5209 14.4718 15.7682 14.5651 15.9922C14.6678 16.2162 14.7984 16.3935 14.9571 16.5242C15.1251 16.6455 15.3258 16.7062 15.5591 16.7062C15.8111 16.7062 16.0631 16.6129 16.3151 16.4262C16.5671 16.2302 16.7771 15.9362 16.9451 15.5442C17.1131 15.1429 17.1971 14.6342 17.1971 14.0182L17.6171 13.4162C17.6171 13.6775 17.5984 13.9715 17.5611 14.2982C17.5331 14.6155 17.4724 14.9422 17.3791 15.2782C17.2951 15.6049 17.1738 15.9082 17.0151 16.1882C16.8658 16.4682 16.6651 16.6969 16.4131 16.8742C16.1611 17.0422 15.8578 17.1262 15.5031 17.1262Z" fill="white"/>
</svg>
