<svg width="24" height="24" viewBox="0 0 24 24" fill="none" xmlns="http://www.w3.org/2000/svg">
<path d="M11.4176 17.0699C11.3243 16.5846 11.2216 16.0759 11.1096 15.5439C10.9976 15.0119 10.881 14.4659 10.7596 13.9059C10.6383 13.3366 10.517 12.7626 10.3956 12.1839C10.3116 11.8199 10.2276 11.4559 10.1436 11.0919C10.069 10.7186 9.99429 10.3499 9.91963 9.98588C9.84496 9.62188 9.77029 9.26255 9.69563 8.90788C9.62096 8.54388 9.54629 8.18455 9.47163 7.82988L8.86963 7.15788L10.1856 7.12988C10.2416 7.44721 10.3023 7.79255 10.3676 8.16588C10.4423 8.53921 10.5216 8.93588 10.6056 9.35588C10.6896 9.77588 10.7783 10.2099 10.8716 10.6579C10.965 11.0966 11.0583 11.5399 11.1516 11.9879C11.2916 12.6039 11.427 13.2152 11.5576 13.8219C11.6976 14.4286 11.8283 15.0026 11.9496 15.5439C12.0803 16.0852 12.197 16.5752 12.2996 17.0139L11.4176 17.0699ZM7.67963 14.6619V13.8499L11.2636 13.9059V14.5639L7.67963 14.6619ZM7.58163 16.9299L6.75563 16.9159C6.85829 16.5052 6.96563 16.0339 7.07763 15.5019C7.19896 14.9699 7.32496 14.4052 7.45563 13.8079C7.59563 13.2012 7.73096 12.5946 7.86163 11.9879C8.00163 11.3719 8.13229 10.7699 8.25363 10.1819C8.37496 9.59388 8.48696 9.04321 8.58963 8.52988C8.70163 8.00721 8.79496 7.54988 8.86963 7.15788L10.1856 7.12988L9.52763 7.85788C9.43429 8.29655 9.33629 8.75388 9.23363 9.22988C9.13096 9.70588 9.02363 10.1866 8.91163 10.6719C8.80896 11.1479 8.70629 11.6286 8.60363 12.1139C8.49163 12.6832 8.37496 13.2432 8.25363 13.7939C8.13229 14.3446 8.01563 14.8859 7.90363 15.4179C7.80096 15.9406 7.69363 16.4446 7.58163 16.9299ZM15.5731 19.3239C15.2091 19.3239 14.9058 19.2679 14.6631 19.1559C14.4204 19.0439 14.2384 18.8899 14.1171 18.6939C13.9958 18.4979 13.9351 18.2786 13.9351 18.0359C13.9351 17.9892 13.9351 17.9426 13.9351 17.8959C13.9444 17.8586 13.9538 17.8166 13.9631 17.7699L14.6071 17.6579C14.5978 17.6952 14.5884 17.7326 14.5791 17.7699C14.5791 17.8072 14.5791 17.8399 14.5791 17.8679C14.5791 18.0266 14.6164 18.1619 14.6911 18.2739C14.7751 18.3952 14.8964 18.4886 15.0551 18.5539C15.2138 18.6286 15.4144 18.6659 15.6571 18.6659C15.9278 18.6659 16.1611 18.6099 16.3571 18.4979C16.5531 18.3859 16.7024 18.2039 16.8051 17.9519C16.9078 17.7092 16.9591 17.3779 16.9591 16.9579C16.9591 16.7339 16.9591 16.4446 16.9591 16.0899C16.9684 15.7352 16.9731 15.3152 16.9731 14.8299C16.9824 14.3352 16.9871 13.7706 16.9871 13.1359C16.9871 12.8186 16.9871 12.5106 16.9871 12.2119C16.9964 11.9132 17.0058 11.6239 17.0151 11.3439C17.0338 11.0639 17.0524 10.7979 17.0711 10.5459C17.0898 10.2846 17.1131 10.0279 17.1411 9.77588H17.8971C17.8784 9.95321 17.8598 10.1726 17.8411 10.4339C17.8224 10.6859 17.8038 10.9612 17.7851 11.2599C17.7664 11.5492 17.7524 11.8526 17.7431 12.1699C17.7338 12.4872 17.7291 12.7999 17.7291 13.1079C17.7291 13.6399 17.7244 14.1066 17.7151 14.5079C17.7151 14.8999 17.7151 15.2406 17.7151 15.5299C17.7244 15.8099 17.7291 16.0526 17.7291 16.2579C17.7291 16.4632 17.7291 16.6499 17.7291 16.8179C17.7291 17.2192 17.6824 17.5739 17.5891 17.8819C17.5051 18.1992 17.3744 18.4652 17.1971 18.6799C17.0291 18.8946 16.8051 19.0532 16.5251 19.1559C16.2544 19.2679 15.9371 19.3239 15.5731 19.3239ZM15.4751 17.1399C15.0364 17.1399 14.6911 16.9906 14.4391 16.6919C14.1964 16.3839 14.0144 16.0059 13.8931 15.5579C13.8091 15.2219 13.7484 14.8626 13.7111 14.4799C13.6738 14.0879 13.6551 13.7052 13.6551 13.3319C13.6551 13.0706 13.6644 12.8139 13.6831 12.5619C13.7018 12.3099 13.7344 12.0626 13.7811 11.8199C13.8278 11.5772 13.8838 11.3486 13.9491 11.1339C14.0891 10.7046 14.2944 10.3546 14.5651 10.0839C14.8451 9.80388 15.2138 9.66388 15.6711 9.66388C16.0724 9.66388 16.4038 9.78521 16.6651 10.0279C16.9264 10.2706 17.1178 10.6719 17.2391 11.2319C17.3698 11.7919 17.4351 12.5479 17.4351 13.4999L16.9871 12.9119C16.9871 12.3892 16.9404 11.9366 16.8471 11.5539C16.7631 11.1619 16.6278 10.8586 16.4411 10.6439C16.2638 10.4199 16.0304 10.3079 15.7411 10.3079C15.4518 10.3079 15.2231 10.4059 15.0551 10.6019C14.8871 10.7979 14.7518 11.0499 14.6491 11.3579C14.5558 11.6472 14.4951 11.9692 14.4671 12.3239C14.4391 12.6786 14.4251 13.0239 14.4251 13.3599C14.4251 13.5652 14.4251 13.7752 14.4251 13.9899C14.4344 14.2046 14.4484 14.4192 14.4671 14.6339C14.4951 14.8486 14.5278 15.0492 14.5651 15.2359C14.6118 15.4692 14.6771 15.6792 14.7611 15.8659C14.8451 16.0526 14.9524 16.2019 15.0831 16.3139C15.2231 16.4166 15.3864 16.4679 15.5731 16.4679C15.8158 16.4679 16.0444 16.3746 16.2591 16.1879C16.4738 15.9919 16.6464 15.7119 16.7771 15.3479C16.9171 14.9746 16.9871 14.5312 16.9871 14.0179L17.4351 13.4719C17.4351 13.6959 17.4258 13.9619 17.4071 14.2699C17.3884 14.5779 17.3464 14.8999 17.2811 15.2359C17.2158 15.5626 17.1131 15.8706 16.9731 16.1599C16.8331 16.4492 16.6418 16.6872 16.3991 16.8739C16.1564 17.0512 15.8484 17.1399 15.4751 17.1399Z" fill="white"/>
</svg>
