<svg width="24" height="24" viewBox="0 0 24 24" fill="none" xmlns="http://www.w3.org/2000/svg">
<path d="M3.56803 17.0604C3.21803 17.0604 2.94303 16.9404 2.74303 16.7004C2.53303 16.4504 2.42803 16.1154 2.42803 15.6954C2.42803 15.6454 2.42803 15.5904 2.42803 15.5304C2.42803 15.4704 2.43303 15.4104 2.44303 15.3504C2.45303 15.2804 2.46303 15.2104 2.47303 15.1404H2.95303C2.93303 15.1904 2.91803 15.2454 2.90803 15.3054C2.89803 15.3554 2.89303 15.4154 2.89303 15.4854C2.88303 15.5454 2.87803 15.6104 2.87803 15.6804C2.87803 16.2904 3.10803 16.5954 3.56803 16.5954C4.09803 16.5954 4.64303 16.2704 5.20303 15.6204C5.76303 14.9704 6.36803 14.0754 7.01803 12.9354H5.54803L5.72803 12.4854H7.28803C7.40803 12.2754 7.52803 12.0554 7.64803 11.8254C7.76803 11.5954 7.89803 11.3604 8.03803 11.1204C8.43803 10.3604 8.84803 9.64043 9.26803 8.96043C9.69803 8.27043 10.113 7.70543 10.513 7.26543C10.783 6.97543 11.068 6.76543 11.368 6.63543C11.668 6.50543 11.928 6.44043 12.148 6.44043C12.478 6.44043 12.773 6.50043 13.033 6.62043C13.293 6.73043 13.493 6.84043 13.633 6.95043L10.588 14.5254C10.488 14.7754 10.418 14.9954 10.378 15.1854C10.338 15.3754 10.318 15.5454 10.318 15.6954C10.318 16.2954 10.613 16.5954 11.203 16.5954C11.483 16.5954 11.783 16.5054 12.103 16.3254C12.423 16.1354 12.753 15.8804 13.093 15.5604C13.433 15.2404 13.778 14.8754 14.128 14.4654C14.478 14.0454 14.823 13.6004 15.163 13.1304L15.508 13.4604C15.138 13.9504 14.768 14.4154 14.398 14.8554C14.038 15.2854 13.678 15.6654 13.318 15.9954C12.958 16.3254 12.593 16.5854 12.223 16.7754C11.853 16.9654 11.483 17.0604 11.113 17.0604C10.783 17.0604 10.488 16.9504 10.228 16.7304C9.97803 16.5004 9.85303 16.1504 9.85303 15.6804C9.85303 15.4604 9.88303 15.2404 9.94303 15.0204C10.003 14.7904 10.078 14.5604 10.168 14.3304L10.723 12.9354H7.55803C7.11803 13.7054 6.71803 14.3554 6.35803 14.8854C5.99803 15.4154 5.65803 15.8404 5.33803 16.1604C5.02803 16.4804 4.72803 16.7104 4.43803 16.8504C4.15803 16.9904 3.86803 17.0604 3.56803 17.0604ZM8.44303 11.3304C8.33303 11.5404 8.22803 11.7404 8.12803 11.9304C8.02803 12.1204 7.92303 12.3054 7.81303 12.4854H10.903L13.048 7.13043C12.998 7.09043 12.898 7.04543 12.748 6.99543C12.608 6.93543 12.408 6.90543 12.148 6.90543C11.738 6.90543 11.298 7.14043 10.828 7.61043C10.678 7.76043 10.498 7.98043 10.288 8.27043C10.088 8.55043 9.87803 8.86543 9.65803 9.21543C9.44803 9.55543 9.23303 9.91043 9.01303 10.2804C8.80303 10.6504 8.61303 11.0004 8.44303 11.3304ZM15.0424 17.0604C14.7024 17.0604 14.4374 16.9554 14.2474 16.7454C14.0574 16.5254 13.9624 16.2354 13.9624 15.8754C13.9624 15.5654 14.0374 15.2154 14.1874 14.8254C14.3474 14.4254 14.5574 14.0204 14.8174 13.6104C15.0774 13.2004 15.3774 12.8054 15.7174 12.4254C16.0574 12.0354 16.4074 11.6904 16.7674 11.3904C17.1274 11.0904 17.4874 10.8504 17.8474 10.6704C18.2174 10.4804 18.5624 10.3854 18.8824 10.3854C19.1724 10.3854 19.4124 10.4454 19.6024 10.5654C19.8024 10.6854 19.9574 10.8304 20.0674 11.0004L19.6624 11.2404C19.5924 11.1204 19.4924 11.0254 19.3624 10.9554C19.2424 10.8754 19.0824 10.8354 18.8824 10.8354C18.6124 10.8354 18.3124 10.9254 17.9824 11.1054C17.6624 11.2754 17.3374 11.5054 17.0074 11.7954C16.6774 12.0754 16.3574 12.3954 16.0474 12.7554C15.7374 13.1154 15.4624 13.4854 15.2224 13.8654C14.9824 14.2354 14.7874 14.6004 14.6374 14.9604C14.4974 15.3104 14.4274 15.6154 14.4274 15.8754C14.4274 16.0954 14.4724 16.2704 14.5624 16.4004C14.6524 16.5304 14.8124 16.5954 15.0424 16.5954C15.3124 16.5954 15.6424 16.4504 16.0324 16.1604C16.4224 15.8604 16.8274 15.4804 17.2474 15.0204C17.6774 14.5504 18.0974 14.0304 18.5074 13.4604C18.9274 12.8804 19.2974 12.3104 19.6174 11.7504L20.0374 11.9454L18.0274 16.9554C18.4574 16.8054 18.9074 16.6154 19.3774 16.3854C19.8474 16.1554 20.3124 15.8854 20.7724 15.5754C21.2324 15.2554 21.6774 14.8954 22.1074 14.4954C22.5474 14.0854 22.9474 13.6304 23.3074 13.1304L23.6524 13.4604C22.8224 14.5504 21.9074 15.4104 20.9074 16.0404C19.9174 16.6704 18.8824 17.1704 17.8024 17.5404C17.2624 18.8504 16.7024 19.8154 16.1224 20.4354C15.5424 21.0654 14.9224 21.3804 14.2624 21.3804C13.9124 21.3804 13.6374 21.2804 13.4374 21.0804C13.2374 20.8804 13.1374 20.6154 13.1374 20.2854C13.1374 19.9254 13.2324 19.6104 13.4224 19.3404C13.6124 19.0704 13.8674 18.8354 14.1874 18.6354C14.4074 18.4954 14.6524 18.3654 14.9224 18.2454C15.1924 18.1254 15.4674 18.0104 15.7474 17.9004C16.0374 17.7904 16.3274 17.6754 16.6174 17.5554C16.9174 17.4354 17.2024 17.3054 17.4724 17.1654L18.7774 13.8654C18.4774 14.2754 18.1624 14.6754 17.8324 15.0654C17.5024 15.4454 17.1724 15.7854 16.8424 16.0854C16.5224 16.3754 16.2074 16.6104 15.8974 16.7904C15.5874 16.9704 15.3024 17.0604 15.0424 17.0604ZM14.2624 20.9304C14.7124 20.9304 15.1974 20.6754 15.7174 20.1654C16.2374 19.6654 16.7374 18.8654 17.2174 17.7654C16.9974 17.8754 16.7624 17.9804 16.5124 18.0804C16.2724 18.1804 16.0274 18.2804 15.7774 18.3804C15.5374 18.4804 15.3024 18.5804 15.0724 18.6804C14.8424 18.7804 14.6324 18.8904 14.4424 19.0104C14.1824 19.1704 13.9724 19.3504 13.8124 19.5504C13.6624 19.7604 13.5874 20.0054 13.5874 20.2854C13.5874 20.4754 13.6424 20.6304 13.7524 20.7504C13.8624 20.8704 14.0324 20.9304 14.2624 20.9304Z" fill="white"/>
</svg>
