<svg width="24" height="24" viewBox="0 0 24 24" fill="none" xmlns="http://www.w3.org/2000/svg">
<g clip-path="url(#clip0_267_13111)">
<path d="M3.05029 17.1539C2.51829 17.1539 2.08896 16.9952 1.76229 16.6779C1.42629 16.3512 1.25829 15.8939 1.25829 15.3059C1.25829 15.1472 1.27229 14.9886 1.30029 14.8299C1.31896 14.6712 1.33762 14.5919 1.35629 14.5919H2.86829C2.85896 14.6292 2.84962 14.6712 2.84029 14.7179C2.83096 14.7646 2.82162 14.8159 2.81229 14.8719C2.81229 14.9186 2.81229 14.9746 2.81229 15.0399C2.81229 15.1986 2.84962 15.3339 2.92429 15.4459C3.00829 15.5486 3.12962 15.5999 3.28829 15.5999C3.54029 15.5999 3.82029 15.4552 4.12829 15.1659C4.44562 14.8766 4.81429 14.3866 5.23429 13.6959H4.05829L4.67429 12.1279H6.11629L6.83029 10.8259C7.05429 10.4152 7.29229 9.9859 7.54429 9.5379C7.79629 9.0899 8.09029 8.6839 8.42629 8.3199C8.77163 7.94657 9.17296 7.64323 9.63029 7.4099C10.0876 7.16723 10.6383 7.0459 11.2823 7.0459C11.5716 7.0459 11.8329 7.06923 12.0663 7.1159C12.3089 7.16257 12.5189 7.2139 12.6963 7.2699C12.8829 7.3259 13.0276 7.3819 13.1303 7.4379C13.2423 7.48457 13.3076 7.51723 13.3263 7.5359L10.6523 14.1999C10.5963 14.3306 10.5589 14.4519 10.5403 14.5639C10.5216 14.6759 10.5123 14.7739 10.5123 14.8579C10.5123 15.0912 10.5823 15.2732 10.7223 15.4039C10.8716 15.5346 11.0676 15.5999 11.3103 15.5999C11.6649 15.5999 12.1129 15.3852 12.6543 14.9559C13.1956 14.5266 13.7789 13.8872 14.4043 13.0379L15.5103 14.0599C15.1649 14.5172 14.8103 14.9372 14.4463 15.3199C14.0916 15.6932 13.7229 16.0199 13.3403 16.2999C12.9576 16.5706 12.5563 16.7806 12.1363 16.9299C11.7163 17.0792 11.2776 17.1539 10.8203 17.1539C10.2323 17.1539 9.76562 16.9766 9.42029 16.6219C9.07496 16.2579 8.90229 15.7679 8.90229 15.1519C8.90229 14.9186 8.93029 14.6806 8.98629 14.4379C9.04229 14.1859 9.10763 13.9386 9.18229 13.6959H7.04029C6.67629 14.3772 6.32629 14.9419 5.99029 15.3899C5.65429 15.8379 5.32296 16.1926 4.99629 16.4539C4.67896 16.7152 4.36162 16.8972 4.04429 16.9999C3.72696 17.1026 3.39562 17.1539 3.05029 17.1539ZM7.96429 12.1279H9.77029L11.1563 8.6839C11.1096 8.66523 11.0489 8.65123 10.9743 8.6419C10.9089 8.63257 10.8389 8.6279 10.7643 8.6279C10.4003 8.6279 10.0549 8.83323 9.72829 9.2439C9.40162 9.64523 9.05162 10.1819 8.67829 10.8539L7.96429 12.1279ZM15.0791 17.1539C14.6031 17.1539 14.2065 17.0139 13.8891 16.7339C13.5718 16.4539 13.4131 16.0572 13.4131 15.5439C13.4131 15.1706 13.4831 14.7926 13.6231 14.4099C13.7725 14.0179 13.9685 13.6446 14.2111 13.2899C14.4538 12.9259 14.7338 12.5899 15.0511 12.2819C15.3778 11.9646 15.7185 11.6892 16.0731 11.4559C16.4371 11.2226 16.8058 11.0406 17.1791 10.9099C17.5525 10.7699 17.9118 10.6999 18.2571 10.6999C18.6865 10.6999 19.0458 10.7979 19.3351 10.9939C19.6245 11.1899 19.8905 11.4652 20.1331 11.8199L18.7191 12.5619C18.6445 12.4779 18.5558 12.3986 18.4531 12.3239C18.3505 12.2492 18.2151 12.2119 18.0471 12.2119C17.8791 12.2119 17.6878 12.2632 17.4731 12.3659C17.2585 12.4686 17.0391 12.6039 16.8151 12.7719C16.6005 12.9399 16.3905 13.1312 16.1851 13.3459C15.9798 13.5606 15.7931 13.7752 15.6251 13.9899C15.4665 14.2046 15.3358 14.4192 15.2331 14.6339C15.1398 14.8392 15.0931 15.0166 15.0931 15.1659C15.0931 15.4552 15.2238 15.5999 15.4851 15.5999C15.6531 15.5999 15.8631 15.5252 16.1151 15.3759C16.3671 15.2172 16.6285 15.0072 16.8991 14.7459C17.1791 14.4846 17.4498 14.1812 17.7111 13.8359C17.9818 13.4906 18.2245 13.1266 18.4391 12.7439L19.8811 13.4159L18.6911 16.3839C19.4098 16.0759 20.1425 15.6559 20.8891 15.1239C21.6451 14.5919 22.3358 13.8966 22.9611 13.0379L24.0671 14.0599C23.6658 14.6012 23.2458 15.0819 22.8071 15.5019C22.3685 15.9126 21.8971 16.2859 21.3931 16.6219C20.8985 16.9486 20.3711 17.2379 19.8111 17.4899C19.2511 17.7419 18.6445 17.9752 17.9911 18.1899C17.5711 19.2166 17.0671 19.9726 16.4791 20.4579C15.9005 20.9432 15.2658 21.1859 14.5751 21.1859C14.0151 21.1859 13.5998 21.0506 13.3291 20.7799C13.0585 20.5092 12.9231 20.1639 12.9231 19.7439C12.9231 19.3799 13.0071 19.0766 13.1751 18.8339C13.3431 18.6006 13.5858 18.3906 13.9031 18.2039C14.2298 18.0266 14.6265 17.8539 15.0931 17.6859C15.5598 17.5272 16.0965 17.3406 16.7031 17.1259L17.0391 16.2719C16.3951 16.8599 15.7418 17.1539 15.0791 17.1539ZM14.8411 19.8699C15.0278 19.8699 15.2285 19.7672 15.4431 19.5619C15.6578 19.3659 15.8725 19.0439 16.0871 18.5959C15.6018 18.7546 15.2145 18.8992 14.9251 19.0299C14.6451 19.1699 14.5051 19.3706 14.5051 19.6319C14.5331 19.7906 14.6451 19.8699 14.8411 19.8699Z" fill="white"/>
</g>
<defs>
<clipPath id="clip0_267_13111">
<rect width="24" height="24" fill="white"/>
</clipPath>
</defs>
</svg>
