<svg width="24" height="24" viewBox="0 0 24 24" fill="none" xmlns="http://www.w3.org/2000/svg">
<path d="M10.362 17L10.376 14.732H7.044L5.98 17H4.818C5.126 16.384 5.46667 15.7167 5.84 14.998C6.21333 14.2793 6.60067 13.542 7.002 12.786C7.41267 12.03 7.83267 11.274 8.262 10.518C8.70067 9.75265 9.13933 9.02465 9.578 8.33398H10.95C11.0527 9.02465 11.1367 9.75265 11.202 10.518C11.2767 11.274 11.3373 12.03 11.384 12.786C11.4307 13.542 11.468 14.2793 11.496 14.998C11.524 15.7167 11.5473 16.384 11.566 17H10.362ZM9.998 9.34198C9.64333 9.92998 9.25133 10.6113 8.822 11.386C8.39267 12.1607 7.96333 12.9587 7.534 13.78H10.334C10.3153 12.94 10.2733 12.1327 10.208 11.358C10.1427 10.574 10.0727 9.90198 9.998 9.34198ZM14.506 18.372C15.1967 18.372 15.7287 18.218 16.102 17.91C16.4847 17.6113 16.7367 17.1633 16.858 16.566L16.914 16.328C16.746 16.4213 16.508 16.5147 16.2 16.608C15.9013 16.692 15.6027 16.734 15.304 16.734C14.6227 16.734 14.1 16.566 13.736 16.23C13.3813 15.894 13.204 15.4227 13.204 14.816C13.204 14.256 13.2927 13.71 13.47 13.178C13.6567 12.646 13.9367 12.17 14.31 11.75C14.6833 11.33 15.15 10.994 15.71 10.742C16.27 10.49 16.9233 10.364 17.67 10.364C17.782 10.364 17.9173 10.3687 18.076 10.378C18.2347 10.3873 18.3933 10.406 18.552 10.434C18.72 10.4527 18.8787 10.4853 19.028 10.532C19.1867 10.5693 19.322 10.6207 19.434 10.686L17.992 16.44C17.88 16.888 17.7447 17.2893 17.586 17.644C17.4273 18.008 17.208 18.316 16.928 18.568C16.6573 18.82 16.3073 19.0113 15.878 19.142C15.4487 19.282 14.9073 19.352 14.254 19.352C13.8993 19.352 13.5447 19.3053 13.19 19.212C12.8353 19.1187 12.5367 18.9973 12.294 18.848L12.742 17.882C12.9287 18.022 13.1807 18.1387 13.498 18.232C13.8153 18.3253 14.1513 18.372 14.506 18.372ZM15.556 15.782C15.724 15.782 15.8873 15.7633 16.046 15.726C16.2047 15.6887 16.354 15.642 16.494 15.586C16.6433 15.53 16.774 15.474 16.886 15.418C17.0073 15.3527 17.1053 15.292 17.18 15.236L18.09 11.4C18.006 11.3813 17.8987 11.3673 17.768 11.358C17.6467 11.3393 17.5347 11.33 17.432 11.33C16.984 11.33 16.5687 11.4233 16.186 11.61C15.8127 11.7967 15.486 12.044 15.206 12.352C14.9353 12.66 14.7253 13.01 14.576 13.402C14.4267 13.794 14.352 14.1907 14.352 14.592C14.352 15.04 14.45 15.3527 14.646 15.53C14.842 15.698 15.1453 15.782 15.556 15.782Z" fill="white"/>
</svg>
