<svg width="24" height="24" viewBox="0 0 24 24" fill="none" xmlns="http://www.w3.org/2000/svg">
<path d="M8.54199 5.71875H8.97949L12.3975 14.7695C12.4977 15.0156 12.6162 15.1797 12.7529 15.2617C12.8988 15.3438 13.1084 15.3848 13.3818 15.3848V16H10.0322V15.3848C10.0778 15.3848 10.1553 15.3848 10.2646 15.3848C10.3831 15.3757 10.4971 15.362 10.6064 15.3438C10.7249 15.3164 10.8298 15.2754 10.9209 15.2207C11.012 15.166 11.0576 15.0885 11.0576 14.9883C11.0576 14.9427 11.0531 14.9017 11.0439 14.8652C11.0348 14.8288 11.0212 14.7878 11.0029 14.7422L10.2373 12.6777H6.75098C6.69629 12.8509 6.63704 13.0332 6.57324 13.2246C6.50944 13.416 6.4502 13.6029 6.39551 13.7852C6.34082 13.9583 6.29525 14.1178 6.25879 14.2637C6.22233 14.4004 6.2041 14.5052 6.2041 14.5781C6.2041 14.8698 6.2679 15.0794 6.39551 15.207C6.52311 15.3255 6.78743 15.3848 7.18848 15.3848V16H4.31738V15.3848C4.62728 15.3848 4.86426 15.3073 5.02832 15.1523C5.2015 14.9883 5.35645 14.7012 5.49316 14.291L8.54199 5.71875ZM8.4873 7.87891L6.9834 12.0215H10.0186L8.4873 7.87891ZM18.4678 15.0566C18.6865 15.0566 18.887 15.0977 19.0693 15.1797C19.2516 15.2617 19.4066 15.3757 19.5342 15.5215C19.6709 15.6673 19.7757 15.8359 19.8486 16.0273C19.9215 16.2279 19.958 16.4421 19.958 16.6699C19.958 17.39 19.6891 17.9368 19.1514 18.3105C18.6227 18.6842 17.8936 18.8711 16.9639 18.8711C14.904 18.8711 13.874 18.3561 13.874 17.3262C13.874 17.2168 13.9014 17.0983 13.9561 16.9707C14.0107 16.8522 14.0928 16.7383 14.2021 16.6289C14.3115 16.5195 14.4482 16.4193 14.6123 16.3281C14.7764 16.237 14.9723 16.1641 15.2002 16.1094V16.0684C14.5348 15.9681 14.2021 15.5534 14.2021 14.8242C14.2021 14.2227 14.5986 13.776 15.3916 13.4844L15.5146 13.4434C15.1318 13.2702 14.8447 13.0195 14.6533 12.6914C14.471 12.3542 14.3799 11.944 14.3799 11.4609C14.3799 11.1419 14.4391 10.8457 14.5576 10.5723C14.6761 10.2897 14.8447 10.0436 15.0635 9.83398C15.2822 9.62435 15.5465 9.46029 15.8564 9.3418C16.1755 9.21419 16.5309 9.15039 16.9229 9.15039C17.6064 9.15039 18.167 9.32812 18.6045 9.68359L19.0146 9.28711C19.1514 9.15039 19.2926 9.05469 19.4385 9C19.5843 8.94531 19.721 8.91797 19.8486 8.91797C20.0674 8.91797 20.2679 8.99089 20.4502 9.13672C20.6416 9.27344 20.7373 9.46029 20.7373 9.69727C20.7373 9.88867 20.6826 10.0482 20.5732 10.1758C20.4639 10.3034 20.318 10.3672 20.1357 10.3672C19.9808 10.3672 19.8714 10.3307 19.8076 10.2578C19.7438 10.1758 19.6937 10.0938 19.6572 10.0117C19.6208 9.92057 19.5843 9.83854 19.5479 9.76562C19.5114 9.68359 19.4476 9.64258 19.3564 9.64258C19.32 9.64258 19.2835 9.66081 19.2471 9.69727C19.2106 9.73372 19.1787 9.76107 19.1514 9.7793L18.9326 10.0254C19.0967 10.1803 19.2152 10.3854 19.2881 10.6406C19.3701 10.8867 19.4111 11.1602 19.4111 11.4609C19.4111 12.2539 19.1696 12.8418 18.6865 13.2246C18.2035 13.5983 17.5791 13.7852 16.8135 13.7852C16.613 13.7852 16.4079 13.7943 16.1982 13.8125C15.9886 13.8216 15.7972 13.8535 15.624 13.9082C15.4508 13.9538 15.3096 14.0221 15.2002 14.1133C15.0908 14.1953 15.0361 14.3092 15.0361 14.4551C15.0361 14.6374 15.0817 14.7832 15.1729 14.8926C15.2731 15.002 15.4144 15.0566 15.5967 15.0566H18.4678ZM16.9229 9.69727C16.4945 9.69727 16.1572 9.85677 15.9111 10.1758C15.665 10.4948 15.542 10.9232 15.542 11.4609C15.542 12.0443 15.6559 12.4954 15.8838 12.8145C16.1117 13.1335 16.458 13.293 16.9229 13.293C17.1325 13.293 17.3193 13.2474 17.4834 13.1562C17.6566 13.056 17.7979 12.9238 17.9072 12.7598C18.0257 12.5957 18.1169 12.4043 18.1807 12.1855C18.2445 11.9577 18.2764 11.7161 18.2764 11.4609C18.2764 10.2852 17.8252 9.69727 16.9229 9.69727ZM16.8135 16.1094C16.5765 16.1094 16.3441 16.1276 16.1162 16.1641C15.8975 16.2005 15.6969 16.2598 15.5146 16.3418C15.3415 16.4329 15.2002 16.556 15.0908 16.7109C14.9814 16.875 14.9268 17.0801 14.9268 17.3262C14.9268 17.6725 15.0954 17.9232 15.4326 18.0781C15.779 18.2422 16.3213 18.3242 17.0596 18.3242C17.333 18.3242 17.5928 18.2923 17.8389 18.2285C18.085 18.1738 18.2992 18.0918 18.4814 17.9824C18.6637 17.873 18.805 17.7409 18.9053 17.5859C19.0146 17.431 19.0693 17.2533 19.0693 17.0527C19.0693 16.8431 19.0055 16.6745 18.8779 16.5469C18.7503 16.4284 18.5908 16.3327 18.3994 16.2598C18.208 16.196 17.9984 16.1549 17.7705 16.1367C17.5518 16.1185 17.3512 16.1094 17.1689 16.1094H16.8135Z" fill="white"/>
</svg>
