<svg width="24" height="24" viewBox="0 0 24 24" fill="none" xmlns="http://www.w3.org/2000/svg">
<path d="M3.13256 7.44784V6.83984H10.3646L11.8366 16.3918H12.5086V16.9998H2.07656V16.3918H2.73256L4.12456 7.44784H3.13256ZM5.61256 7.79984V13.7198H7.56456L7.03656 7.79984H5.61256ZM5.61256 16.9998H7.86856L7.64456 14.5998H5.61256V16.9998ZM13.1096 19.5918C12.8216 19.3785 12.6349 19.1278 12.5496 18.8398C12.4642 18.5625 12.4216 18.1091 12.4216 17.4798C12.4216 16.8611 12.5549 16.3865 12.8216 16.0558C13.0882 15.7145 13.3816 15.5438 13.7016 15.5438H14.9016V15.3358C14.3576 15.2291 14.0856 14.8931 14.0856 14.3278V13.3358C13.1576 13.0265 12.6936 12.2958 12.6936 11.1438V10.8078C12.6936 9.85851 12.8642 9.19184 13.2056 8.80784C13.3336 8.65851 13.4509 8.54117 13.5576 8.45584C13.6642 8.35984 13.8136 8.27984 14.0056 8.21584C14.2082 8.15184 14.3736 8.10384 14.5016 8.07184C14.6402 8.03984 14.8322 8.01317 15.0776 7.99184C15.3229 7.97051 15.5149 7.95984 15.6536 7.95984H16.2936C17.0296 7.95984 17.5682 8.05051 17.9096 8.23184C18.2616 8.41317 18.4376 8.75451 18.4376 9.25584H18.6456L18.8056 8.59984C18.9229 8.11984 19.0669 7.79984 19.2376 7.63984C19.4082 7.47984 19.7229 7.39984 20.1816 7.39984H20.8856V8.82384H20.7096C20.5069 8.82384 20.4056 8.97317 20.4056 9.27184V11.1438C20.4056 11.7411 20.2616 12.2531 19.9736 12.6798C19.8029 12.9571 19.4296 13.1918 18.8536 13.3838C18.4909 13.5011 17.6589 13.5598 16.3576 13.5598H15.7816V13.9438C15.7816 14.2745 15.8189 14.5091 15.8936 14.6478C15.9682 14.7758 16.1122 14.8398 16.3256 14.8398H18.7096C19.2536 14.8398 19.7442 15.0318 20.1816 15.4158C20.6296 15.7891 20.8536 16.4131 20.8536 17.2878C20.8536 18.3971 20.5602 19.1438 19.9736 19.5278C19.3869 19.9225 18.2349 20.1198 16.5176 20.1198C15.6002 20.1198 14.8749 20.0825 14.3416 20.0078C13.8082 19.9438 13.3976 19.8051 13.1096 19.5918ZM17.6536 12.2478V9.25584H15.4616V12.2478H17.6536ZM18.5496 16.8398H14.6776V18.5198H18.5496V16.8398Z" fill="white"/>
</svg>
