<svg width="24" height="24" viewBox="0 0 24 24" fill="none" xmlns="http://www.w3.org/2000/svg">
<path d="M7.26363 7.2002H8.96463L12.5276 17.0002H10.9876L10.3086 15.1382H5.91963L5.24763 17.0002H3.70063L7.26363 7.2002ZM6.45863 13.6822H9.76963L8.11063 9.1322L6.45863 13.6822ZM18.5635 10.0002H20.0195V17.1822C20.0195 17.6629 19.9168 18.1062 19.7115 18.5122C19.5108 18.9182 19.2378 19.2682 18.8925 19.5622C18.5472 19.8609 18.1505 20.0919 17.7025 20.2552C17.2592 20.4185 16.7948 20.5002 16.3095 20.5002C15.8195 20.5002 15.3482 20.3952 14.8955 20.1852C14.4428 19.9799 14.0438 19.6999 13.6985 19.3452C13.3578 18.9905 13.1035 18.5892 12.9355 18.1412L14.2725 17.5392C14.3658 17.8285 14.5152 18.0852 14.7205 18.3092C14.9305 18.5332 15.1732 18.7105 15.4485 18.8412C15.7285 18.9719 16.0155 19.0372 16.3095 19.0372C16.5988 19.0372 16.8765 18.9905 17.1425 18.8972C17.4132 18.8085 17.6535 18.6825 17.8635 18.5192C18.0782 18.3559 18.2485 18.1599 18.3745 17.9312C18.5005 17.7025 18.5635 17.4529 18.5635 17.1822V15.9992C18.3348 16.3539 18.0408 16.6409 17.6815 16.8602C17.3222 17.0749 16.9045 17.1822 16.4285 17.1822C15.9338 17.1822 15.4672 17.0865 15.0285 16.8952C14.5898 16.7039 14.2048 16.4402 13.8735 16.1042C13.5422 15.7635 13.2832 15.3715 13.0965 14.9282C12.9098 14.4849 12.8165 14.0089 12.8165 13.5002C12.8165 12.9915 12.9098 12.5155 13.0965 12.0722C13.2832 11.6242 13.5422 11.2322 13.8735 10.8962C14.2048 10.5555 14.5898 10.2895 15.0285 10.0982C15.4672 9.90687 15.9338 9.8112 16.4285 9.8112C16.9045 9.8112 17.3222 9.92087 17.6815 10.1402C18.0408 10.3549 18.3348 10.6419 18.5635 11.0012V10.0002ZM16.4425 15.7752C16.8485 15.7752 17.2032 15.6725 17.5065 15.4672C17.8098 15.2572 18.0455 14.9795 18.2135 14.6342C18.3815 14.2889 18.4655 13.9109 18.4655 13.5002C18.4655 13.0802 18.3792 12.6999 18.2065 12.3592C18.0385 12.0139 17.8028 11.7385 17.4995 11.5332C17.1962 11.3232 16.8438 11.2182 16.4425 11.2182C16.0505 11.2182 15.6912 11.3209 15.3645 11.5262C15.0425 11.7315 14.7858 12.0069 14.5945 12.3522C14.4032 12.6975 14.3075 13.0802 14.3075 13.5002C14.3075 13.9202 14.4032 14.3029 14.5945 14.6482C14.7905 14.9935 15.0495 15.2689 15.3715 15.4742C15.6982 15.6749 16.0552 15.7752 16.4425 15.7752Z" fill="white"/>
</svg>
