<svg width="24" height="24" viewBox="0 0 24 24" fill="none" xmlns="http://www.w3.org/2000/svg">
<g clip-path="url(#clip0_267_13266)">
<path d="M0.340897 14.5063H1.70808L5.87294 7.63867H7.24013L11.329 14.5063H12.9747V15.519H8.10095V14.5063H9.6327L8.71492 12.8922H4.27789L3.38542 14.5063H4.84755V15.519H0.340897V14.5063ZM8.24653 7.96148L11.9114 14.1265H11.6202L7.95537 7.96148H8.24653ZM8.25919 12.101L6.46792 8.95522L4.72096 12.101H8.25919ZM6.58185 9.67679L6.73376 9.95529L5.7147 11.7213H5.40455L6.58185 9.67679ZM4.52474 13.3353H8.65795L8.77188 13.5758H4.71463L4.41714 14.1265H4.09433L4.52474 13.3353ZM13.4241 15.9621V14.8544H13.69V16.2026H8.37312V15.9621H13.4241ZM5.30328 15.9621V14.8544H5.55646V16.2026H0.619398V15.9621H5.30328ZM15.3167 16.6267C15.5234 16.8419 15.7534 17.0212 16.0066 17.1647C16.264 17.3124 16.5235 17.4305 16.7851 17.5192C17.051 17.6078 17.3105 17.6711 17.5637 17.7091C17.8168 17.747 18.0447 17.766 18.2473 17.766C18.6439 17.766 19.0005 17.728 19.3169 17.6521C19.6334 17.5803 19.9014 17.4474 20.1208 17.2533C20.3444 17.0592 20.5153 16.7934 20.6335 16.4558C20.7517 16.1182 20.8107 15.6836 20.8107 15.1519V14.5822C20.6504 14.7342 20.4689 14.8713 20.2664 14.9937C20.0638 15.116 19.8465 15.2215 19.6144 15.3101C19.3824 15.3988 19.1376 15.4663 18.8802 15.5127C18.627 15.5591 18.3696 15.5823 18.108 15.5823C17.5172 15.5823 16.9919 15.5085 16.5319 15.3608C16.0762 15.2131 15.6922 15.0042 15.38 14.7342C15.0677 14.4599 14.8293 14.1286 14.6647 13.7404C14.5044 13.3522 14.4242 12.9176 14.4242 12.4365C14.4242 12.1749 14.4622 11.9154 14.5381 11.658C14.6141 11.3964 14.7259 11.1474 14.8736 10.9111C15.0255 10.6706 15.2112 10.449 15.4306 10.2465C15.6542 10.0397 15.9095 9.86035 16.1965 9.70844C16.4834 9.55653 16.8041 9.43838 17.1586 9.35399C17.513 9.26537 17.897 9.22106 18.3105 9.22106C18.5047 9.22106 18.7114 9.24005 18.9308 9.27803C19.1545 9.31179 19.376 9.36664 19.5955 9.4426C19.8149 9.51855 20.028 9.61772 20.2347 9.74009C20.4457 9.85824 20.6377 10.0017 20.8107 10.1705V9.41095H23.5324V10.487H22.1399V15.1519C22.1399 15.8313 22.045 16.4009 21.8551 16.8609C21.6652 17.3208 21.3994 17.6901 21.0576 17.9686C20.7158 18.2471 20.3086 18.4454 19.836 18.5635C19.3676 18.6859 18.8528 18.7471 18.2916 18.7471C17.9624 18.7471 17.6248 18.7218 17.2788 18.6711C16.9328 18.6205 16.5952 18.5424 16.2661 18.437C15.9412 18.3357 15.6352 18.2028 15.3483 18.0382C15.0614 17.8778 14.8145 17.6837 14.6077 17.4559L15.3167 16.6267ZM14.9812 18.3357C15.1922 18.4876 15.4306 18.6184 15.6964 18.7281C15.9623 18.8378 16.2408 18.9264 16.5319 18.994C16.8231 19.0615 17.1185 19.11 17.4181 19.1395C17.7177 19.1733 18.0088 19.1902 18.2916 19.1902C18.6756 19.1902 19.049 19.1606 19.4119 19.1016C19.7748 19.0467 20.1145 18.956 20.431 18.8294C20.7517 18.7028 21.0449 18.5361 21.3108 18.3293C21.5766 18.1226 21.8045 17.8673 21.9944 17.5635C22.1842 17.2639 22.3319 16.9115 22.4374 16.5064C22.5429 16.1056 22.5957 15.6435 22.5957 15.1203V10.9301H23.9882V9.76541H24.2414V11.1706H22.8488V15.1203C22.8488 15.6688 22.794 16.1562 22.6843 16.5824C22.5746 17.0086 22.4205 17.382 22.2222 17.7027C22.0239 18.0234 21.7855 18.2935 21.507 18.5129C21.2285 18.7323 20.9204 18.9096 20.5829 19.0446C20.2453 19.1796 19.8824 19.2767 19.4942 19.3358C19.106 19.399 18.7051 19.4307 18.2916 19.4307C17.9709 19.4307 17.6438 19.4054 17.3105 19.3547C16.9771 19.3041 16.6606 19.2303 16.361 19.1332C16.0657 19.0404 15.7956 18.9264 15.5509 18.7914C15.3103 18.6564 15.1204 18.5045 14.9812 18.3357ZM15.7977 12.3859C15.7977 12.7108 15.8483 13.0104 15.9496 13.2847C16.0551 13.5547 16.2091 13.7889 16.4117 13.9873C16.6184 14.1814 16.8716 14.3333 17.1712 14.443C17.475 14.5527 17.8232 14.6076 18.2156 14.6076C18.5279 14.6076 18.838 14.5696 19.1461 14.4936C19.4583 14.4135 19.7368 14.2848 19.9816 14.1075C20.2305 13.9303 20.431 13.6982 20.5829 13.4113C20.7348 13.1243 20.8107 12.772 20.8107 12.3542C20.8107 12.0546 20.7453 11.774 20.6145 11.5124C20.4837 11.2508 20.3044 11.0229 20.0765 10.8288C19.8486 10.6347 19.5807 10.4828 19.2726 10.3731C18.9688 10.2591 18.6439 10.2022 18.2979 10.2022C17.9603 10.2022 17.6396 10.2549 17.3358 10.3604C17.0362 10.4659 16.7725 10.6157 16.5446 10.8098C16.3167 11.0039 16.1353 11.236 16.0003 11.5061C15.8652 11.7719 15.7977 12.0652 15.7977 12.3859ZM16.2408 12.3985C16.2408 12.158 16.2914 11.9323 16.3927 11.7213C16.494 11.5061 16.6353 11.3204 16.8168 11.1643C16.9982 11.0039 17.2155 10.8773 17.4687 10.7845C17.7219 10.6917 17.9983 10.6452 18.2979 10.6452C18.6988 10.6452 19.03 10.7107 19.2916 10.8415C19.5575 10.9681 19.7663 11.1305 19.9183 11.3288C19.817 11.2655 19.7115 11.2065 19.6018 11.1516C19.4963 11.0968 19.3781 11.0503 19.2473 11.0124C19.1207 10.9702 18.9794 10.9385 18.8232 10.9174C18.6671 10.8921 18.492 10.8794 18.2979 10.8794C18.032 10.8794 17.7894 10.9216 17.57 11.006C17.3506 11.0862 17.1607 11.1959 17.0003 11.3352C16.8442 11.4744 16.7218 11.6348 16.6332 11.8162C16.5488 11.9934 16.5066 12.1791 16.5066 12.3732C16.5066 12.7868 16.6037 13.1412 16.7978 13.4366C16.9961 13.7277 17.3231 13.9641 17.7789 14.1455C17.5594 14.1244 17.3548 14.0674 17.1649 13.9746C16.9792 13.8818 16.8168 13.7594 16.6775 13.6075C16.5425 13.4556 16.4349 13.2784 16.3547 13.0758C16.2788 12.869 16.2408 12.6433 16.2408 12.3985ZM15.1901 15.1203C15.3631 15.2595 15.5614 15.3861 15.785 15.5C16.0129 15.6097 16.2534 15.7026 16.5066 15.7785C16.764 15.8587 17.0278 15.9199 17.2978 15.9621C17.5721 16.0043 17.8443 16.0254 18.1143 16.0254C18.5827 16.0254 19.0195 15.9684 19.4246 15.8545C19.8339 15.7448 20.1968 15.5865 20.5132 15.3798L20.4753 15.6962C20.1588 15.8861 19.798 16.0275 19.3929 16.1203C18.992 16.2174 18.5679 16.2659 18.1207 16.2659C17.4371 16.2659 16.8442 16.1689 16.3421 15.9747C15.8399 15.7849 15.4559 15.5 15.1901 15.1203Z" fill="white"/>
</g>
<defs>
<clipPath id="clip0_267_13266">
<rect width="24" height="24" fill="white"/>
</clipPath>
</defs>
</svg>
