<svg width="24" height="24" viewBox="0 0 24 24" fill="none" xmlns="http://www.w3.org/2000/svg">
<path d="M8.50356 6.38184C9.53956 11.5898 10.0996 14.7678 10.1836 15.9158C10.1836 15.9625 10.1602 15.9858 10.1136 15.9858L9.72156 16.0138C9.6749 16.0138 9.65156 15.9905 9.65156 15.9438C9.62356 15.6078 9.56756 15.1738 9.48356 14.6418C9.1849 14.6791 8.79756 14.6978 8.32156 14.6978C7.66823 14.6978 7.03356 14.6651 6.41756 14.5998C6.2309 15.0291 6.02556 15.4725 5.80156 15.9298C5.79223 15.9485 5.77823 15.9625 5.75956 15.9718C5.7409 15.9811 5.72223 15.9811 5.70356 15.9718L5.35356 15.7758C5.31623 15.7478 5.3069 15.7198 5.32556 15.6918C5.5309 15.2625 5.70823 14.8751 5.85756 14.5298L5.68956 14.5018L5.77356 13.9698L6.06756 14.0118C6.5529 12.8171 6.9589 11.5571 7.28556 10.2318C7.61223 8.89717 7.8409 7.62317 7.97156 6.40984L8.50356 6.38184ZM6.62756 14.0818C7.2809 14.1471 7.8269 14.1798 8.26556 14.1798C8.6669 14.1798 9.0449 14.1565 9.39956 14.1098C9.16623 12.6911 8.7929 10.6798 8.27956 8.07584C7.9529 10.0731 7.40223 12.0751 6.62756 14.0818ZM17.6026 9.15384C17.6212 9.34051 17.6306 10.4745 17.6306 12.5558C17.6306 14.6278 17.6212 15.7758 17.6026 15.9998C17.5652 17.4558 17.0659 18.5618 16.1046 19.3178C15.1526 20.0831 13.8692 20.4658 12.2546 20.4658C12.2172 20.4658 12.1986 20.4471 12.1986 20.4098V19.9618C12.1986 19.9151 12.2266 19.8918 12.2826 19.8918C13.7012 19.8918 14.8352 19.5605 15.6846 18.8978C16.5432 18.2445 17.0052 17.2785 17.0706 15.9998C17.0799 15.9345 17.0846 15.5098 17.0846 14.7258C16.8512 15.1271 16.5059 15.4445 16.0486 15.6778C15.5912 15.9018 15.0219 16.0138 14.3406 16.0138C14.0326 16.0138 13.6966 15.9858 13.3326 15.9298C12.7819 15.8458 12.3059 15.6498 11.9046 15.3418C11.5032 15.0245 11.1952 14.6371 10.9806 14.1798C10.7752 13.7131 10.6726 13.2091 10.6726 12.6678C10.6726 12.0331 10.7986 11.4451 11.0506 10.9038C11.3119 10.3625 11.6619 9.93317 12.1006 9.61584C12.5392 9.29851 13.0106 9.13984 13.5146 9.13984C14.3079 9.13984 15.0219 9.38717 15.6566 9.88184C16.3006 10.3671 16.7766 10.9785 17.0846 11.7158C17.0846 10.0825 17.0799 9.22851 17.0706 9.15384H17.6026ZM13.3746 15.3838C13.7292 15.4305 14.0279 15.4538 14.2706 15.4538C15.1572 15.4538 15.8199 15.2438 16.2586 14.8238C16.6972 14.4038 16.9166 13.8718 16.9166 13.2278C16.9166 12.6771 16.7626 12.1265 16.4546 11.5758C16.1559 11.0158 15.7406 10.5585 15.2086 10.2038C14.6859 9.83984 14.1072 9.65784 13.4726 9.65784C13.0712 9.65784 12.6932 9.79317 12.3386 10.0638C11.9839 10.3345 11.6992 10.7031 11.4846 11.1698C11.2699 11.6271 11.1626 12.1218 11.1626 12.6538C11.1626 13.0925 11.2606 13.5125 11.4566 13.9138C11.6526 14.3058 11.9186 14.6371 12.2546 14.9078C12.5906 15.1691 12.9639 15.3278 13.3746 15.3838Z" fill="white"/>
</svg>
