<svg width="24" height="24" viewBox="0 0 24 24" fill="none" xmlns="http://www.w3.org/2000/svg">
<path d="M4.28534 17.8897C4.22934 17.8897 4.18268 17.871 4.14534 17.8337C4.06134 17.759 3.99134 17.6798 3.93534 17.5958C3.87934 17.5118 3.85134 17.3998 3.85134 17.2598C3.85134 17.1105 3.90268 16.9145 4.00534 16.6718C4.09868 16.4291 4.26668 16.121 4.50934 15.7478C4.69601 15.4678 5.02734 15.001 5.50334 14.3477C5.98868 13.685 6.62334 12.9477 7.40734 12.1357C7.43534 12.1264 7.44934 12.1125 7.44934 12.0938C7.44934 12.0658 7.41668 12.0378 7.35134 12.0098C7.29534 11.9725 7.23468 11.9351 7.16934 11.8977C7.10401 11.8604 7.07134 11.8231 7.07134 11.7858C7.07134 11.7391 7.13668 11.6971 7.26734 11.6597C7.39801 11.6224 7.65001 11.5851 8.02334 11.5478C8.14468 11.4451 8.26601 11.347 8.38734 11.2537C8.51801 11.151 8.61134 11.0718 8.66734 11.0157C8.71401 10.9784 8.74201 10.9505 8.75134 10.9318C8.76068 10.9131 8.76534 10.8991 8.76534 10.8898V10.8758C8.76534 10.8571 8.77001 10.8384 8.77934 10.8197C8.79801 10.7917 8.83068 10.7591 8.87734 10.7218C9.48401 10.1898 9.93201 9.84442 10.2213 9.68575C10.52 9.52708 10.6787 9.43842 10.6973 9.41975C10.9587 9.16775 11.262 8.95308 11.6073 8.77575C11.962 8.58908 12.3167 8.40708 12.6713 8.22975C13.026 8.04308 13.348 7.82375 13.6373 7.57175C13.6747 7.55308 13.712 7.51108 13.7493 7.44575C13.7867 7.37108 13.824 7.31042 13.8613 7.26375C13.908 7.21708 13.992 7.18442 14.1133 7.16575C14.2347 7.13775 14.3047 7.10975 14.3233 7.08175C14.3607 7.04442 14.412 7.01642 14.4773 6.99775C14.552 6.97908 14.608 6.95575 14.6453 6.92775C14.7293 6.87175 14.8273 6.84375 14.9393 6.84375C15.1073 6.84375 15.2707 6.89508 15.4293 6.99775C15.5973 7.09108 15.6813 7.20775 15.6813 7.34775C15.6813 7.44108 15.644 7.52508 15.5693 7.59975C15.5133 7.66508 15.4387 7.72575 15.3453 7.78175C15.2613 7.82842 15.1913 7.88908 15.1353 7.96375C15.0793 8.02908 15.0047 8.08975 14.9113 8.14575C14.818 8.19242 14.748 8.23908 14.7013 8.28575C14.272 8.79908 13.8753 9.32175 13.5113 9.85375C13.1473 10.3765 12.816 10.8991 12.5173 11.4218C12.648 11.4124 12.7507 11.4357 12.8253 11.4917C12.9 11.5477 12.9373 11.6084 12.9373 11.6737C12.9373 11.7951 12.83 11.8558 12.6153 11.8558C12.5687 11.8558 12.5127 11.8604 12.4473 11.8698C12.3913 11.8698 12.326 11.8698 12.2513 11.8698C11.99 12.3738 11.7613 12.8825 11.5653 13.3958C11.3787 13.8998 11.234 14.3524 11.1313 14.7537C11.0287 15.1458 10.9633 15.4304 10.9353 15.6077C10.9353 15.701 10.912 15.8038 10.8653 15.9158C10.828 16.0278 10.8187 16.0931 10.8373 16.1117C10.8653 16.149 10.8887 16.1911 10.9073 16.2378C10.9353 16.2938 10.9493 16.3545 10.9493 16.4198C10.9493 16.5505 10.8793 16.6625 10.7393 16.7558C10.7207 16.7651 10.6927 16.7698 10.6553 16.7698C10.59 16.7698 10.534 16.7418 10.4873 16.6858C10.45 16.6298 10.4127 16.569 10.3753 16.5037C10.3473 16.4478 10.324 16.3918 10.3053 16.3358C10.2867 16.2891 10.2773 16.2377 10.2773 16.1817C10.2773 16.1257 10.2913 16.0557 10.3193 15.9718C10.3287 15.9625 10.3333 15.9485 10.3333 15.9298C10.3333 15.8831 10.3193 15.8365 10.2913 15.7898C10.2633 15.7338 10.2587 15.673 10.2773 15.6077C10.324 15.477 10.3567 15.3045 10.3753 15.0898C10.4033 14.8751 10.45 14.693 10.5153 14.5437C10.6647 14.2357 10.758 13.9464 10.7953 13.6757C10.8327 13.3957 10.8747 13.1251 10.9213 12.8638C10.968 12.5931 11.0753 12.3178 11.2433 12.0378C11.2433 12.0471 11.2527 12.0331 11.2713 11.9958C11.2993 11.9585 11.3227 11.9165 11.3413 11.8698C10.9307 11.8698 10.4733 11.8837 9.96934 11.9117C9.47468 11.9304 8.99868 11.9585 8.54134 11.9958C8.46668 12.0705 8.38734 12.1451 8.30334 12.2198C8.22868 12.2945 8.14934 12.3785 8.06534 12.4718C7.99068 12.5558 7.90201 12.6351 7.79934 12.7098C7.69668 12.7845 7.60801 12.8591 7.53334 12.9338C7.46801 12.9991 7.36068 13.1158 7.21134 13.2838C7.07134 13.4425 6.93134 13.6058 6.79134 13.7738C6.65134 13.9325 6.54868 14.0444 6.48334 14.1097C6.45534 14.147 6.39934 14.2125 6.31534 14.3057C6.24068 14.3898 6.16134 14.4737 6.07734 14.5577C6.00268 14.6417 5.95134 14.6978 5.92334 14.7257C5.64334 15.043 5.43334 15.281 5.29334 15.4397C5.15334 15.5984 5.05534 15.715 4.99934 15.7898C4.94334 15.8551 4.90601 15.9018 4.88734 15.9298C4.86868 15.9578 4.85001 15.9904 4.83134 16.0278C4.80334 16.0744 4.74734 16.1631 4.66334 16.2938C4.61668 16.3778 4.59334 16.4757 4.59334 16.5877V16.7138C4.59334 16.7511 4.59334 16.7838 4.59334 16.8118C4.59334 16.8491 4.58401 16.8864 4.56534 16.9237C4.54668 17.0077 4.53734 17.1291 4.53734 17.2878C4.52801 17.4465 4.52334 17.5585 4.52334 17.6238C4.52334 17.7171 4.50001 17.7824 4.45334 17.8197C4.39734 17.8664 4.34134 17.8897 4.28534 17.8897ZM10.7253 11.4917H11.5373L11.6493 11.2537L11.6633 11.2397C11.9153 10.9878 12.0833 10.7918 12.1673 10.6518C12.2607 10.5118 12.3167 10.3951 12.3353 10.3018C12.354 10.1991 12.3727 10.1011 12.3913 10.0078C12.4193 9.91442 12.494 9.79308 12.6153 9.64375C12.6247 9.49442 12.6667 9.37775 12.7413 9.29375C12.8253 9.20975 12.8347 9.13508 12.7693 9.06975C12.732 8.98575 12.6713 8.94375 12.5873 8.94375C12.4753 8.94375 12.3213 9.02775 12.1253 9.19575C12.0413 9.27042 11.92 9.36375 11.7613 9.47575C11.6027 9.58775 11.4393 9.70442 11.2713 9.82575C11.1033 9.93775 10.9587 10.0357 10.8373 10.1198C10.7253 10.1944 10.6693 10.2318 10.6693 10.2318L10.6553 10.2458C10.59 10.2738 10.4173 10.3997 10.1373 10.6237C9.85734 10.8384 9.51668 11.123 9.11534 11.4777C9.29268 11.4777 9.46534 11.4777 9.63334 11.4777C9.80134 11.4684 9.96001 11.4637 10.1093 11.4637C10.2213 11.4637 10.3287 11.4684 10.4313 11.4777C10.534 11.4871 10.632 11.4917 10.7253 11.4917ZM7.43534 12.0938L7.40734 12.1357C7.33268 12.1544 7.17401 12.1637 6.93134 12.1637H6.91734C6.87068 12.1637 6.88001 12.159 6.94534 12.1497C7.01068 12.1404 7.09468 12.1311 7.19734 12.1217C7.30001 12.103 7.37934 12.0938 7.43534 12.0938ZM12.3667 21.2358C12.0587 21.2358 11.8161 21.1284 11.6387 20.9137C11.4521 20.7084 11.3214 20.4611 11.2467 20.1718C11.1627 19.8918 11.1207 19.6398 11.1207 19.4158C11.1674 19.2011 11.2047 19.0285 11.2327 18.8978C11.2514 18.7765 11.3354 18.6225 11.4847 18.4358C11.5501 18.3705 11.6014 18.3377 11.6387 18.3377C11.6854 18.3377 11.7087 18.3845 11.7087 18.4778C11.6994 18.5711 11.6947 18.6737 11.6947 18.7857C11.6947 18.9257 11.6947 19.1078 11.6947 19.3318C11.6947 19.5558 11.7134 19.7797 11.7507 20.0037C11.7787 20.2371 11.8441 20.4284 11.9467 20.5777C12.0401 20.7364 12.1801 20.8158 12.3667 20.8158C12.7214 20.8158 13.0341 20.7224 13.3047 20.5357C13.5847 20.3584 13.8367 20.1251 14.0607 19.8358C14.2847 19.5558 14.4947 19.2618 14.6907 18.9538C14.7654 18.8418 14.8494 18.739 14.9427 18.6458C15.0361 18.5525 15.1154 18.4544 15.1807 18.3517C15.2554 18.2397 15.3114 18.1231 15.3487 18.0018C15.3954 17.8805 15.4514 17.7731 15.5167 17.6798C15.8061 17.2785 16.0441 16.8351 16.2307 16.3498C16.4174 15.8645 16.6367 15.3884 16.8887 14.9218C16.9354 14.7724 17.0054 14.5998 17.0987 14.4038C17.2014 14.1611 17.2667 13.9885 17.2947 13.8857C17.3321 13.783 17.3507 13.713 17.3507 13.6757C17.3507 13.629 17.3507 13.5871 17.3507 13.5498C17.2574 13.6151 17.1827 13.6617 17.1267 13.6897C17.0801 13.7084 17.0241 13.7365 16.9587 13.7738C16.8934 13.8111 16.7907 13.8998 16.6507 14.0398L16.6367 14.0538C16.6274 14.0444 16.5947 14.0677 16.5387 14.1237C16.4921 14.1797 16.4501 14.2171 16.4127 14.2358C16.3567 14.2731 16.2681 14.3524 16.1467 14.4738C16.0254 14.5858 15.9414 14.6604 15.8947 14.6978C15.5774 14.9311 15.3114 15.1318 15.0967 15.2998C14.8821 15.4678 14.6254 15.6311 14.3267 15.7898L14.2427 15.8877L14.2147 15.9018C14.1961 15.9018 14.1494 15.9065 14.0747 15.9158C14.0094 15.9251 13.9954 15.9298 14.0327 15.9298H14.0467C13.9814 15.9671 13.9161 15.9951 13.8507 16.0138C13.7947 16.0417 13.7434 16.0697 13.6967 16.0977C13.5754 16.1444 13.4634 16.1677 13.3607 16.1677C13.2487 16.1677 13.1507 16.135 13.0667 16.0697C12.9921 16.0044 12.9547 15.9018 12.9547 15.7618C12.9547 15.7245 12.9594 15.687 12.9687 15.6497C12.9687 15.6124 12.9734 15.5751 12.9827 15.5378C13.0667 15.2298 13.2021 14.8658 13.3887 14.4458C13.5847 14.0258 13.8461 13.5778 14.1727 13.1018C14.4994 12.6258 14.9054 12.159 15.3907 11.7017C15.6707 11.431 15.9601 11.2118 16.2587 11.0437C16.5667 10.8757 16.8794 10.7731 17.1967 10.7358C17.2154 10.7358 17.2481 10.7265 17.2947 10.7078C17.3414 10.6891 17.3834 10.6798 17.4207 10.6798C17.4954 10.6798 17.5654 10.6938 17.6307 10.7218C17.7054 10.7498 17.7801 10.7638 17.8547 10.7638C17.8547 10.7638 17.9061 10.7917 18.0087 10.8477C18.1114 10.8944 18.2281 10.9597 18.3587 11.0437C18.4894 11.1277 18.6014 11.2165 18.6947 11.3098C18.7974 11.3938 18.8487 11.4778 18.8487 11.5618C18.8487 11.6551 18.8114 11.7391 18.7367 11.8138C18.6714 11.8885 18.6294 11.9445 18.6107 11.9818C18.5827 12.0191 18.5361 12.0378 18.4707 12.0378C18.3307 12.0378 18.2514 11.9678 18.2327 11.8278C18.2327 11.7345 18.2141 11.6551 18.1767 11.5898C18.1487 11.5245 18.1114 11.4685 18.0647 11.4218C18.0461 11.403 17.9761 11.3845 17.8547 11.3658C17.7334 11.3471 17.6494 11.3378 17.6027 11.3378C17.4254 11.3378 17.2154 11.4078 16.9727 11.5478C16.7394 11.6878 16.4874 11.879 16.2167 12.1217C16.0954 12.2245 15.9787 12.3037 15.8667 12.3597C15.7641 12.4158 15.6707 12.4857 15.5867 12.5697C15.5494 12.607 15.5121 12.6677 15.4747 12.7517C15.4467 12.8264 15.4094 12.8871 15.3627 12.9338C15.0267 13.2885 14.7701 13.6057 14.5927 13.8857C14.4154 14.1564 14.2894 14.3945 14.2147 14.5998C14.1494 14.8051 14.0934 14.9917 14.0467 15.1597C14.0467 15.2345 14.0701 15.2718 14.1167 15.2718H14.2567C14.4154 15.225 14.6021 15.1318 14.8167 14.9917C15.0314 14.8424 15.2461 14.6838 15.4607 14.5157C15.6847 14.3384 15.8761 14.1891 16.0347 14.0677C16.0814 14.021 16.1281 13.9885 16.1747 13.9698C16.2307 13.9511 16.2727 13.9277 16.3007 13.8997C16.3474 13.8624 16.3847 13.8251 16.4127 13.7878C16.4501 13.7505 16.4874 13.7177 16.5247 13.6897C16.8047 13.475 17.0101 13.3165 17.1407 13.2137C17.2807 13.111 17.3787 13.041 17.4347 13.0037C17.4907 12.957 17.5374 12.9245 17.5747 12.9058C17.6121 12.8778 17.6634 12.8358 17.7287 12.7797C17.8407 12.6957 17.9387 12.6538 18.0227 12.6538C18.1254 12.6538 18.2047 12.6957 18.2607 12.7797C18.3261 12.8544 18.3634 12.929 18.3727 13.0037C18.3914 13.0784 18.4007 13.1484 18.4007 13.2137C18.4007 13.3257 18.3821 13.4191 18.3447 13.4938C18.2981 13.5498 18.2747 13.601 18.2747 13.6477C18.2747 13.6665 18.2794 13.6851 18.2887 13.7038C18.2981 13.7225 18.3027 13.7458 18.3027 13.7738C18.3027 13.8018 18.2934 13.8437 18.2747 13.8997C18.2561 13.9464 18.2141 14.021 18.1487 14.1237V14.1097C18.1021 14.203 18.0694 14.273 18.0507 14.3197C18.0321 14.357 17.9994 14.4131 17.9527 14.4878C17.8781 14.7211 17.7754 14.9451 17.6447 15.1597C17.5141 15.3744 17.3694 15.617 17.2107 15.8877C17.0894 16.205 16.9587 16.5178 16.8187 16.8258C16.6787 17.1431 16.5014 17.4558 16.2867 17.7638C16.0721 18.0625 15.8294 18.4077 15.5587 18.7997C15.2974 19.201 15.0034 19.5837 14.6767 19.9478C14.3594 20.321 14.0047 20.6291 13.6127 20.8717C13.2301 21.1144 12.8147 21.2358 12.3667 21.2358Z" fill="white"/>
</svg>
