<svg width="24" height="24" viewBox="0 0 24 24" fill="none" xmlns="http://www.w3.org/2000/svg">
<g clip-path="url(#clip0_267_13394)">
<path d="M4.30108 17.7302C3.6582 17.7302 3.16036 17.5773 2.80756 17.2716C2.4626 16.9737 2.29012 16.5895 2.29012 16.1191C2.29012 15.6565 2.45476 15.1626 2.78404 14.6373C3.12116 14.1121 3.62684 13.6103 4.30108 13.1321C4.66956 12.8733 5.0302 12.6734 5.383 12.5323C5.74364 12.3912 6.07292 12.3089 6.37084 12.2853C6.47276 12.2853 6.54332 12.301 6.58252 12.3324C6.59036 12.3402 6.5982 12.3559 6.60604 12.3794C6.61388 12.4029 6.60996 12.4265 6.59428 12.45C6.5786 12.4657 6.559 12.4774 6.53548 12.4853C6.5198 12.4853 6.5002 12.4892 6.47668 12.497C6.18659 12.5284 5.88084 12.6264 5.5594 12.791C5.23796 12.9478 4.91652 13.1438 4.59508 13.379C3.9914 13.8259 3.55236 14.261 3.27796 14.6844C3.0114 15.0999 2.87812 15.4723 2.87812 15.8016C2.87812 16.1701 3.04276 16.4758 3.37204 16.7189C3.70916 16.9619 4.19524 17.0834 4.83028 17.0834C5.62212 17.0834 6.43748 16.9423 7.27636 16.6601C8.11524 16.3778 8.96588 15.9897 9.82828 15.4958C10.6907 15.0097 11.5452 14.4609 12.392 13.8494C12.1019 13.7945 11.804 13.7318 11.4982 13.6613C11.1924 13.5829 10.9494 13.4888 10.7691 13.379C10.6672 13.3163 10.5809 13.2457 10.5104 13.1673C10.4398 13.0889 10.4045 13.0066 10.4045 12.9204C10.4045 12.8577 10.428 12.791 10.4751 12.7205C10.5378 12.6499 10.6162 12.5989 10.7103 12.5676C10.8122 12.5362 10.918 12.5205 11.0278 12.5205C11.2316 12.5205 11.459 12.5558 11.7099 12.6264C11.9686 12.6891 12.2273 12.7753 12.486 12.8851C12.7526 12.9949 12.9956 13.1085 13.2152 13.2261C13.8188 12.7557 14.4068 12.2657 14.9792 11.7561C15.5593 11.2465 16.1238 10.7369 16.6726 10.2273C16.7588 10.047 16.849 9.87064 16.9431 9.69816C17.045 9.52568 17.1469 9.35712 17.2488 9.19248C17.3351 9.0592 17.4448 8.8828 17.5781 8.66328C17.7114 8.43592 17.8604 8.2164 18.025 8.00472C18.1896 7.7852 18.37 7.59312 18.566 7.42848C18.7698 7.256 18.9776 7.158 19.1892 7.13448C19.3304 7.1188 19.4323 7.15408 19.495 7.24032C19.5656 7.31872 19.6008 7.40888 19.6008 7.5108C19.6008 7.73032 19.5381 7.93024 19.4127 8.11056C19.2872 8.28304 19.1461 8.44768 18.9893 8.60448C18.5346 9.05136 18.0407 9.51 17.5076 9.9804C17.1469 10.5919 16.8098 11.2269 16.4962 11.8855C16.1826 12.5362 15.9356 13.1281 15.7553 13.6613C16.2414 13.6064 16.6412 13.5123 16.9548 13.379C17.2763 13.2379 17.4252 13.0341 17.4017 12.7675C17.4017 12.6499 17.4448 12.5911 17.5311 12.5911C17.586 12.5911 17.633 12.6146 17.6722 12.6617C17.7114 12.7087 17.731 12.7675 17.731 12.8381C17.731 13.0654 17.6252 13.2536 17.4135 13.4025C17.2096 13.5515 16.947 13.6691 16.6256 13.7553C16.312 13.8416 15.9905 13.9082 15.6612 13.9553C15.6142 14.1199 15.5711 14.2767 15.5319 14.4257C15.4927 14.5746 15.4652 14.7157 15.4496 14.849C15.4496 14.8961 15.4496 14.947 15.4496 15.0019C15.4574 15.0489 15.4652 15.096 15.4731 15.143C15.4888 15.1901 15.5005 15.2293 15.5084 15.2606C15.5162 15.292 15.5201 15.3155 15.5201 15.3312C15.5515 15.4645 15.5044 15.5821 15.379 15.684C15.2614 15.7859 15.1399 15.8369 15.0144 15.8369C14.8812 15.8369 14.7988 15.7781 14.7675 15.6605C14.7596 15.6369 14.7557 15.6134 14.7557 15.5899C14.7557 15.5664 14.7518 15.5468 14.744 15.5311C14.6969 15.4213 14.6224 15.2841 14.5205 15.1195C14.4186 14.9627 14.3088 14.8059 14.1912 14.6491C14.0736 14.4923 13.9678 14.359 13.8737 14.2493C13.7796 14.1317 13.7169 14.0689 13.6856 14.0611C13.6699 14.0533 13.6111 14.0415 13.5092 14.0258C13.4072 14.0023 13.2857 13.9827 13.1446 13.967C13.0897 13.9513 13.0309 13.9396 12.9682 13.9317C12.9055 13.9239 12.8428 13.9161 12.78 13.9082C12.0588 14.4335 11.3296 14.9274 10.5927 15.39C9.85571 15.8525 9.12267 16.2563 8.39356 16.6013C7.67228 16.9541 6.96668 17.2285 6.27676 17.4245C5.58684 17.6283 4.92828 17.7302 4.30108 17.7302ZM18.2249 8.88672C18.3347 8.77696 18.4444 8.6672 18.5542 8.55744C18.6718 8.44768 18.7816 8.33792 18.8835 8.22816C18.9462 8.16544 19.0207 8.09096 19.1069 8.00472C19.1932 7.91848 19.2363 7.84792 19.2363 7.79304C19.2363 7.76168 19.2245 7.746 19.201 7.746C19.154 7.746 19.0991 7.7852 19.0364 7.8636C18.9109 8.00472 18.7776 8.16152 18.6365 8.334C18.5032 8.50648 18.366 8.69072 18.2249 8.88672ZM14.5911 13.7083C14.6695 13.7083 14.7479 13.7083 14.8263 13.7083C14.9125 13.7083 14.9988 13.7044 15.085 13.6965C15.2104 13.3437 15.3672 12.9478 15.5554 12.5088C15.7514 12.0697 15.9592 11.6229 16.1787 11.1681C15.7553 11.5366 15.3163 11.909 14.8616 12.2853C14.4147 12.6538 13.956 13.0184 13.4856 13.379C13.5719 13.4339 13.6464 13.4888 13.7091 13.5437C13.7796 13.5907 13.8384 13.6338 13.8855 13.673C14.0501 13.6965 14.2853 13.7083 14.5911 13.7083ZM12.78 13.5554L12.8624 13.4849C12.4233 13.2653 11.9568 13.1321 11.4629 13.085H11.3806C11.2865 13.085 11.2395 13.0968 11.2395 13.1203C11.2395 13.136 11.2591 13.1556 11.2983 13.1791C11.3375 13.2026 11.3728 13.2222 11.4041 13.2379C11.5609 13.2928 11.7687 13.3516 12.0274 13.4143C12.294 13.4692 12.5448 13.5162 12.78 13.5554ZM14.7675 14.849C14.7753 14.8333 14.7792 14.8177 14.7792 14.802C14.7792 14.7785 14.7832 14.7589 14.791 14.7432C14.8145 14.6177 14.842 14.4962 14.8733 14.3786C14.9125 14.2532 14.9478 14.1317 14.9792 14.0141C14.8302 14.0219 14.6891 14.0297 14.5558 14.0376C14.4304 14.0376 14.3167 14.0376 14.2148 14.0376C14.301 14.1395 14.3951 14.2649 14.497 14.4139C14.5989 14.555 14.6891 14.7001 14.7675 14.849ZM15.2736 20.1057C15.0698 20.1057 14.862 20.0783 14.6503 20.0234C14.4308 19.9764 14.2505 19.8862 14.1094 19.7529C13.9604 19.6275 13.8859 19.4511 13.8859 19.2237C13.8859 18.9415 13.9996 18.6397 14.227 18.3182C14.4543 17.9968 14.7954 17.6989 15.2501 17.4245C15.6891 17.1579 16.1243 16.9266 16.5555 16.7306C16.9867 16.5425 17.4179 16.3739 17.8491 16.2249C18.2724 16.076 18.6997 15.9349 19.1309 15.8016C19.5621 15.6761 20.0403 15.5272 20.5656 15.3547C20.7067 15.0725 20.8165 14.7824 20.8949 14.4845C20.9811 14.1865 21.0243 13.9278 21.0243 13.7083C21.0243 13.5672 21.0047 13.4496 20.9655 13.3555C20.9419 13.3712 20.9263 13.3869 20.9184 13.4025C20.9106 13.4182 20.8988 13.4339 20.8831 13.4496C20.8283 13.5045 20.7616 13.575 20.6832 13.6613C20.6048 13.7397 20.5186 13.8259 20.4245 13.92C20.2677 14.0768 20.0678 14.261 19.8247 14.4727C19.5895 14.6844 19.3426 14.8686 19.0839 15.0254C18.833 15.1744 18.5899 15.2489 18.3547 15.2489C18.245 15.2489 18.1391 15.2214 18.0372 15.1665C17.9353 15.1195 17.8451 15.0411 17.7667 14.9313C17.6727 14.7981 17.6256 14.6491 17.6256 14.4845C17.6256 14.2493 17.6962 13.9984 17.8373 13.7318C17.9863 13.4653 18.1744 13.2065 18.4018 12.9557C18.6291 12.6969 18.8683 12.4735 19.1191 12.2853C19.3779 12.0972 19.617 11.9639 19.8365 11.8855C19.9149 11.862 19.9933 11.8424 20.0717 11.8267C20.1579 11.811 20.252 11.8032 20.3539 11.8032C20.5735 11.8032 20.7891 11.8541 21.0007 11.9561C21.2203 12.0501 21.3457 12.2265 21.3771 12.4853V12.5205C21.3771 12.6381 21.3418 12.7165 21.2712 12.7557C21.2555 12.7714 21.232 12.7793 21.2007 12.7793C21.1223 12.7793 21.0831 12.7283 21.0831 12.6264C21.0831 12.5715 21.0595 12.4892 21.0125 12.3794C20.9655 12.2697 20.8518 12.2148 20.6715 12.2148C20.4363 12.2148 20.1736 12.2971 19.8835 12.4617C19.6013 12.6264 19.3269 12.8341 19.0603 13.085C18.7938 13.3281 18.5664 13.5829 18.3783 13.8494C18.1979 14.116 18.0921 14.3512 18.0607 14.555C18.0529 14.5864 18.049 14.6138 18.049 14.6373C18.049 14.6609 18.049 14.6805 18.049 14.6961C18.049 14.8137 18.0686 14.8921 18.1078 14.9313C18.1548 14.9627 18.2019 14.9784 18.2489 14.9784C18.3665 14.9784 18.5037 14.9313 18.6605 14.8373C18.8251 14.7432 18.978 14.6413 19.1191 14.5315C19.2681 14.4139 19.3779 14.3277 19.4484 14.2728C19.6523 14.1003 19.86 13.92 20.0717 13.7318C20.2912 13.5437 20.5107 13.3555 20.7303 13.1673C20.7224 13.1517 20.7185 13.1281 20.7185 13.0968C20.7185 13.0576 20.7263 13.0223 20.742 12.9909C20.7812 12.9282 20.8361 12.8773 20.9067 12.8381C20.9772 12.7989 21.0752 12.7793 21.2007 12.7793C21.3731 12.7793 21.4986 12.8459 21.577 12.9792C21.6554 13.1125 21.6946 13.2889 21.6946 13.5084C21.6946 13.7044 21.6632 13.9396 21.6005 14.214C21.5378 14.4805 21.4398 14.7745 21.3065 15.096C22.0513 14.8216 22.7138 14.5276 23.2939 14.214C23.8741 13.9004 24.3327 13.5868 24.6699 13.2732C24.7169 13.2261 24.7875 13.1595 24.8815 13.0733C24.9835 12.987 25.0854 12.9047 25.1873 12.8263C25.2422 12.7871 25.2892 12.7518 25.3284 12.7205C25.3755 12.6813 25.4147 12.6499 25.446 12.6264C25.4931 12.595 25.5244 12.5793 25.5401 12.5793C25.6107 12.548 25.6459 12.5676 25.6459 12.6381C25.6459 12.6852 25.6146 12.7597 25.5519 12.8616C25.4891 12.9557 25.3637 13.0968 25.1755 13.2849C24.6346 13.8181 24.0113 14.2845 23.3057 14.6844C22.6079 15.0842 21.8671 15.3743 21.0831 15.5546C20.8008 16.1269 20.448 16.6836 20.0247 17.2245C19.6013 17.7655 19.127 18.2516 18.6017 18.6828C18.0843 19.114 17.5394 19.455 16.9671 19.7059C16.4026 19.9646 15.8381 20.0979 15.2736 20.1057ZM15.1207 19.8353C15.6382 19.8353 16.1478 19.7137 16.6495 19.4707C17.1591 19.2355 17.6413 18.918 18.096 18.5181C18.5507 18.1183 18.9663 17.6793 19.3426 17.201C19.7267 16.7306 20.0521 16.2602 20.3187 15.7898C19.3308 16.0799 18.4645 16.3661 17.7197 16.6483C16.9749 16.9384 16.2771 17.299 15.6264 17.7302C15.1482 18.0438 14.8071 18.3339 14.6033 18.6005C14.3995 18.867 14.2975 19.0944 14.2975 19.2825C14.2975 19.4315 14.3681 19.5609 14.5092 19.6706C14.6503 19.7804 14.8542 19.8353 15.1207 19.8353Z" fill="white"/>
</g>
<defs>
<clipPath id="clip0_267_13394">
<rect width="24" height="24" fill="white"/>
</clipPath>
</defs>
</svg>
