<svg width="24" height="24" viewBox="0 0 24 24" fill="none" xmlns="http://www.w3.org/2000/svg">
<path d="M2.55386 16.9998L7.80387 7.75977H11.2619L12.1859 16.9998H9.48387L9.38587 14.9978H6.52987L5.50787 16.9998H2.55386ZM7.48187 13.1498H9.31587L9.16187 9.84577L7.48187 13.1498ZM15.8635 20.0098C15.4342 20.0098 15.0188 19.9585 14.6175 19.8558C14.2255 19.7531 13.8708 19.5898 13.5535 19.3658C13.2362 19.1511 12.9935 18.8758 12.8255 18.5398C12.6482 18.2038 12.5642 17.8071 12.5735 17.3498L15.4015 17.1398C15.3922 17.4851 15.4388 17.7605 15.5415 17.9658C15.6442 18.1711 15.8682 18.2738 16.2135 18.2738C16.4002 18.2738 16.5635 18.2225 16.7035 18.1198C16.8528 18.0265 16.9835 17.8771 17.0955 17.6718C17.2075 17.4758 17.3008 17.2051 17.3755 16.8598L17.9495 14.3818L18.0475 14.4518C17.9075 15.2171 17.6322 15.8051 17.2215 16.2158C16.8108 16.6171 16.2835 16.8178 15.6395 16.8178C15.2008 16.8178 14.8042 16.7151 14.4495 16.5098C14.1042 16.3045 13.8288 16.0058 13.6235 15.6138C13.4182 15.2125 13.3155 14.7225 13.3155 14.1438C13.3155 13.6025 13.3902 13.0751 13.5395 12.5618C13.6982 12.0485 13.9222 11.5911 14.2115 11.1898C14.5102 10.7791 14.8648 10.4571 15.2755 10.2238C15.6955 9.9811 16.1668 9.85977 16.6895 9.85977C17.0162 9.85977 17.3288 9.93444 17.6275 10.0838C17.9262 10.2331 18.1688 10.4758 18.3555 10.8118C18.5515 11.1385 18.6402 11.5678 18.6215 12.0998L18.3275 12.5338L18.9015 9.99977H21.7295L20.2175 16.5378C20.0215 17.4151 19.7322 18.1058 19.3495 18.6098C18.9668 19.1138 18.4862 19.4731 17.9075 19.6878C17.3382 19.9025 16.6568 20.0098 15.8635 20.0098ZM16.9555 14.8158C17.2168 14.8158 17.4362 14.7178 17.6135 14.5218C17.8002 14.3165 17.9402 14.0645 18.0335 13.7658C18.1362 13.4671 18.1875 13.1638 18.1875 12.8558C18.1875 12.6598 18.1548 12.4918 18.0895 12.3518C18.0242 12.2025 17.9308 12.0905 17.8095 12.0158C17.6882 11.9318 17.5435 11.8898 17.3755 11.8898C17.0862 11.8898 16.8482 11.9971 16.6615 12.2118C16.4748 12.4171 16.3348 12.6691 16.2415 12.9678C16.1482 13.2571 16.1015 13.5278 16.1015 13.7798C16.1015 14.0878 16.1668 14.3398 16.2975 14.5358C16.4375 14.7225 16.6568 14.8158 16.9555 14.8158Z" fill="white"/>
</svg>
