<svg width="24" height="24" viewBox="0 0 24 24" fill="none" xmlns="http://www.w3.org/2000/svg">
<path d="M2.72023 16.9998L8.06823 7.75977H10.9802L12.0162 16.9998H9.73423L9.55223 14.8298H6.40223L5.22623 16.9998H2.72023ZM7.27023 13.1918H9.46823L9.18823 9.60777L7.27023 13.1918ZM15.8228 20.0098C15.4028 20.0098 14.9968 19.9585 14.6048 19.8558C14.2221 19.7531 13.8815 19.5945 13.5828 19.3798C13.2841 19.1651 13.0461 18.8945 12.8688 18.5678C12.6915 18.2505 12.5981 17.8771 12.5888 17.4478L14.9828 17.1958C15.0015 17.5878 15.0855 17.8958 15.2348 18.1198C15.3935 18.3531 15.6828 18.4698 16.1028 18.4698C16.3361 18.4698 16.5461 18.4185 16.7328 18.3158C16.9288 18.2131 17.0968 18.0451 17.2368 17.8118C17.3861 17.5785 17.5028 17.2611 17.5868 16.8598L18.1048 14.6198H18.2308C18.0815 15.3291 17.7968 15.8751 17.3768 16.2578C16.9568 16.6311 16.4341 16.8178 15.8088 16.8178C15.3421 16.8178 14.9221 16.7105 14.5488 16.4958C14.1755 16.2718 13.8815 15.9545 13.6668 15.5438C13.4521 15.1238 13.3448 14.6291 13.3448 14.0598C13.3448 13.4998 13.4241 12.9725 13.5828 12.4778C13.7508 11.9738 13.9841 11.5258 14.2828 11.1338C14.5815 10.7325 14.9408 10.4198 15.3608 10.1958C15.7808 9.97177 16.2521 9.85977 16.7748 9.85977C17.1388 9.85977 17.4748 9.9391 17.7828 10.0978C18.1001 10.2565 18.3568 10.5038 18.5528 10.8398C18.7581 11.1665 18.8561 11.5865 18.8468 12.0998L18.5668 12.4498L19.1268 9.99977H21.5068L19.9668 16.6638C19.7708 17.4945 19.4861 18.1525 19.1128 18.6378C18.7488 19.1231 18.2915 19.4731 17.7408 19.6878C17.1901 19.9025 16.5508 20.0098 15.8228 20.0098ZM16.8588 15.0958C17.1668 15.0958 17.4328 14.9885 17.6568 14.7738C17.8901 14.5591 18.0675 14.2838 18.1888 13.9478C18.3195 13.6025 18.3848 13.2385 18.3848 12.8558C18.3848 12.6038 18.3381 12.3845 18.2448 12.1978C18.1608 12.0111 18.0348 11.8665 17.8668 11.7638C17.7081 11.6611 17.5168 11.6098 17.2928 11.6098C16.9568 11.6098 16.6675 11.7218 16.4248 11.9458C16.1915 12.1605 16.0095 12.4358 15.8788 12.7718C15.7575 13.0985 15.6968 13.4345 15.6968 13.7798C15.6968 14.1718 15.7948 14.4891 15.9908 14.7318C16.1868 14.9745 16.4761 15.0958 16.8588 15.0958Z" fill="white"/>
</svg>
