<svg width="24" height="24" viewBox="0 0 24 24" fill="none" xmlns="http://www.w3.org/2000/svg">
<path d="M12.5201 16.9998H11.7781L10.6161 14.1018H6.20613L5.04413 16.9998H4.30213L7.99813 7.75977H8.82413L12.5201 16.9998ZM6.45813 13.4578H10.3641L8.40413 8.44577L6.45813 13.4578ZM19.8008 8.71177L19.9688 9.32777C19.9595 9.32777 19.9501 9.32777 19.9408 9.32777C19.9315 9.32777 19.9175 9.32777 19.8988 9.32777C19.4415 9.32777 19.0868 9.4491 18.8348 9.69177C18.5921 9.9251 18.4708 10.2565 18.4708 10.6858L18.0228 10.4618C18.0228 10.1071 18.0975 9.7991 18.2468 9.53777C18.3961 9.27644 18.6015 9.07577 18.8628 8.93577C19.1241 8.78644 19.4181 8.71177 19.7448 8.71177C19.7635 8.71177 19.7728 8.71177 19.7728 8.71177C19.7821 8.71177 19.7915 8.71177 19.8008 8.71177ZM17.5888 16.2858C18.2795 16.2858 18.8208 16.4305 19.2128 16.7198C19.6048 17.0091 19.8008 17.3965 19.8008 17.8818C19.8008 18.3111 19.6561 18.6845 19.3668 19.0018C19.0868 19.3191 18.6995 19.5665 18.2048 19.7438C17.7101 19.9211 17.1455 20.0098 16.5108 20.0098C15.4561 20.0098 14.6488 19.8278 14.0888 19.4638C13.5288 19.1091 13.2488 18.6611 13.2488 18.1198C13.2488 17.7278 13.3888 17.3871 13.6688 17.0978C13.9581 16.8085 14.3781 16.6358 14.9288 16.5798L14.8728 16.7058C14.5741 16.6218 14.3081 16.4818 14.0748 16.2858C13.8508 16.0898 13.7388 15.8098 13.7388 15.4458C13.7388 15.0538 13.8835 14.7365 14.1728 14.4938C14.4715 14.2418 14.8635 14.0971 15.3488 14.0598L16.0908 14.3118H15.7968C15.3675 14.3398 15.0221 14.4471 14.7608 14.6338C14.5088 14.8111 14.3828 15.0445 14.3828 15.3338C14.3828 15.6511 14.5041 15.8891 14.7468 16.0478C14.9988 16.2065 15.3161 16.2858 15.6988 16.2858H17.5888ZM16.5108 19.4218C17.0615 19.4218 17.5328 19.3565 17.9248 19.2258C18.3168 19.0951 18.6155 18.9178 18.8208 18.6938C19.0355 18.4791 19.1428 18.2365 19.1428 17.9658C19.1428 17.6391 18.9981 17.3778 18.7088 17.1818C18.4288 16.9858 17.9995 16.8878 17.4208 16.8878H15.4328C14.9941 16.8878 14.6301 16.9905 14.3408 17.1958C14.0515 17.4011 13.9068 17.6765 13.9068 18.0218C13.9068 18.4418 14.1355 18.7778 14.5928 19.0298C15.0595 19.2911 15.6988 19.4218 16.5108 19.4218ZM16.4128 9.85977C16.9635 9.85977 17.4488 9.95777 17.8688 10.1538C18.2981 10.3405 18.6295 10.6065 18.8628 10.9518C19.0961 11.2878 19.2128 11.6845 19.2128 12.1418C19.2128 12.5898 19.0961 12.9911 18.8628 13.3458C18.6295 13.6911 18.2981 13.9618 17.8688 14.1578C17.4488 14.3445 16.9635 14.4378 16.4128 14.4378C15.5261 14.4378 14.8308 14.2278 14.3268 13.8078C13.8321 13.3785 13.5848 12.8231 13.5848 12.1418C13.5848 11.6845 13.7015 11.2878 13.9348 10.9518C14.1775 10.6065 14.5088 10.3405 14.9288 10.1538C15.3581 9.95777 15.8528 9.85977 16.4128 9.85977ZM16.4128 10.4338C15.7968 10.4338 15.2928 10.5925 14.9008 10.9098C14.5088 11.2178 14.3128 11.6285 14.3128 12.1418C14.3128 12.6551 14.5088 13.0705 14.9008 13.3878C15.2928 13.7051 15.7968 13.8638 16.4128 13.8638C17.0288 13.8638 17.5281 13.7051 17.9108 13.3878C18.3028 13.0705 18.4988 12.6551 18.4988 12.1418C18.4988 11.6285 18.3028 11.2178 17.9108 10.9098C17.5281 10.5925 17.0288 10.4338 16.4128 10.4338Z" fill="white"/>
</svg>
