<svg width="24" height="24" viewBox="0 0 24 24" fill="none" xmlns="http://www.w3.org/2000/svg">
<path d="M6.33984 16L6.99609 13.8262H10.4824L11.125 16H12.3555L9.51172 6.77148H8.03516L5.16406 16H6.33984ZM8.21289 9.80664C8.26758 9.63346 8.36784 9.25977 8.51367 8.68555C8.63216 8.25716 8.71419 7.95182 8.75977 7.76953C8.79622 7.91536 8.86003 8.16146 8.95117 8.50781C9.11523 9.15495 9.22461 9.57422 9.2793 9.76562L10.209 12.9238H7.26953L8.21289 9.80664ZM15.5957 13.0879C15.0853 13.0879 14.707 12.86 14.4609 12.4043C14.3333 12.1582 14.2695 11.8711 14.2695 11.543C14.2695 10.7956 14.5247 10.3034 15.0352 10.0664C15.2083 9.98438 15.3861 9.94336 15.5684 9.94336C16.0788 9.94336 16.4525 10.1803 16.6895 10.6543C16.8171 10.9095 16.8809 11.2057 16.8809 11.543C16.8809 12.2721 16.6211 12.7507 16.1016 12.9785C15.9466 13.0514 15.778 13.0879 15.5957 13.0879ZM15.5957 9.05469C14.7298 9.05469 14.069 9.3737 13.6133 10.0117C13.3125 10.4401 13.1621 10.9551 13.1621 11.5566C13.1712 12.377 13.4538 13.0104 14.0098 13.457C13.5176 13.7487 13.2715 14.1452 13.2715 14.6465C13.2806 15.0931 13.4857 15.4349 13.8867 15.6719C13.2122 16.1367 12.8704 16.6471 12.8613 17.2031C12.8613 17.8867 13.2441 18.3789 14.0098 18.6797C14.429 18.8346 14.903 18.9121 15.4316 18.9121C16.7168 18.9121 17.6328 18.5658 18.1797 17.873C18.444 17.5267 18.5762 17.1393 18.5762 16.7109C18.5762 16.0091 18.2389 15.5033 17.5645 15.1934C17.1816 15.0202 16.7214 14.9382 16.1836 14.9473L14.9258 14.9609C14.5339 14.9701 14.2969 14.8424 14.2148 14.5781C14.2057 14.5326 14.2012 14.487 14.2012 14.4414C14.2194 14.1771 14.3835 13.972 14.6934 13.8262C14.985 13.9264 15.2812 13.9766 15.582 13.9766C16.4206 13.9766 17.0677 13.6712 17.5234 13.0605C17.8333 12.6413 17.9883 12.1354 17.9883 11.543C17.9792 10.9141 17.8014 10.3717 17.4551 9.91602L18.6582 9.95703V9.06836L16.293 9.15039C16.0833 9.08659 15.8509 9.05469 15.5957 9.05469ZM15.541 18.0098C14.7116 18.0098 14.1966 17.7865 13.9961 17.3398C13.9414 17.2214 13.9141 17.1029 13.9141 16.9844C13.9232 16.5651 14.1829 16.2005 14.6934 15.8906H14.8574L16.0742 15.8633C16.7943 15.8542 17.2409 16.0547 17.4141 16.4648C17.4505 16.5651 17.4688 16.6699 17.4688 16.7793C17.4688 17.3171 17.1406 17.6862 16.4844 17.8867C16.2018 17.9688 15.8874 18.0098 15.541 18.0098Z" fill="white"/>
</svg>
