<svg width="24" height="24" viewBox="0 0 24 24" fill="none" xmlns="http://www.w3.org/2000/svg">
<path d="M3.91669 17.4618C3.76735 17.4245 3.66935 17.3218 3.62269 17.1538C3.58535 16.9858 3.57135 16.7991 3.58069 16.5938C3.59935 16.3791 3.62269 16.1971 3.65069 16.0478C3.66002 15.9731 3.66469 15.9218 3.66469 15.8938C3.75802 15.0725 3.91669 14.3398 4.14069 13.6958C4.36469 13.0425 4.60735 12.4031 4.86869 11.7778C4.77535 11.7591 4.68202 11.7451 4.58869 11.7358C4.50469 11.7171 4.41135 11.7031 4.30869 11.6938C4.12202 11.6751 3.93535 11.6518 3.74869 11.6238C3.56202 11.5865 3.39869 11.5211 3.25869 11.4278C3.11869 11.3345 3.02535 11.1945 2.97869 11.0078C2.92269 10.7465 2.94602 10.5505 3.04869 10.4198C3.15135 10.2798 3.27269 10.2098 3.41269 10.2098C3.53402 10.2098 3.64602 10.2658 3.74869 10.3778C3.85135 10.4805 3.89335 10.6485 3.87469 10.8818C3.91202 10.8911 3.96335 10.9005 4.02869 10.9098C4.25269 10.9471 4.48602 10.9798 4.72869 11.0078C4.97135 11.0358 5.19535 11.0078 5.40069 10.9238C5.50335 10.8771 5.63402 10.7558 5.79269 10.5598C5.96069 10.3638 6.12402 10.1725 6.28269 9.98576C6.38535 9.85509 6.46469 9.76176 6.52069 9.70576C6.58602 9.64043 6.64202 9.57976 6.68869 9.52376C7.37935 8.83309 8.13069 8.26843 8.94269 7.82976C9.76402 7.38176 10.66 6.96176 11.6307 6.56976C11.7054 6.54176 11.808 6.54643 11.9387 6.58376C12.0694 6.61176 12.1674 6.67243 12.2327 6.76576C12.2327 7.03643 12.2094 7.32109 12.1627 7.61976C12.1254 7.90909 12.0787 8.20309 12.0227 8.50176C11.9574 8.88443 11.8967 9.28576 11.8407 9.70576C11.794 10.1258 11.7894 10.5271 11.8267 10.9098C11.9014 10.9565 11.9994 10.9845 12.1207 10.9938C12.242 11.0031 12.4287 10.9985 12.6807 10.9798C12.8954 10.9611 13.1054 10.9611 13.3107 10.9798C13.516 10.9891 13.6374 11.0871 13.6747 11.2738C13.7027 11.4418 13.6607 11.5585 13.5487 11.6238C13.446 11.6798 13.306 11.7125 13.1287 11.7218C12.9514 11.7218 12.774 11.7171 12.5967 11.7078C12.5874 11.7078 12.578 11.7078 12.5687 11.7078C12.41 11.6891 12.2607 11.6798 12.1207 11.6798C11.9807 11.6798 11.8594 11.6938 11.7567 11.7218C11.5887 12.7858 11.6307 14.0411 11.8827 15.4878C11.9014 15.5811 11.92 15.6791 11.9387 15.7818C11.9667 15.8751 11.9947 15.9731 12.0227 16.0758C12.1347 16.4958 12.1907 16.7991 12.1907 16.9858C12.2 17.1631 12.1674 17.3031 12.0927 17.4058C11.878 17.4711 11.71 17.4525 11.5887 17.3498C11.4767 17.2565 11.3927 17.1211 11.3367 16.9438C11.29 16.7665 11.248 16.5938 11.2107 16.4258C11.2107 16.4165 11.2107 16.4071 11.2107 16.3978C11.2014 16.3511 11.192 16.3045 11.1827 16.2578C11.1827 16.2111 11.178 16.1691 11.1687 16.1318C11.0474 15.5718 10.9587 14.9138 10.9027 14.1578C10.8467 13.4018 10.8374 12.6318 10.8747 11.8478C10.576 11.8105 10.212 11.7825 9.78269 11.7638C9.35335 11.7358 8.90069 11.7171 8.42469 11.7078C7.94869 11.6985 7.49135 11.7031 7.05269 11.7218C6.87535 11.7311 6.69802 11.7405 6.52069 11.7498C6.34335 11.7498 6.17535 11.7498 6.01669 11.7498C5.75535 12.0671 5.51269 12.4778 5.28869 12.9818C5.06469 13.4765 4.87802 14.0131 4.72869 14.5918C4.57935 15.1705 4.48602 15.7445 4.44869 16.3138C4.43935 16.3605 4.43469 16.4118 4.43469 16.4678C4.43469 16.5238 4.43469 16.5845 4.43469 16.6498C4.43469 16.7898 4.42535 16.9298 4.40669 17.0698C4.39735 17.2098 4.35535 17.3171 4.28069 17.3918C4.21535 17.4758 4.09402 17.4991 3.91669 17.4618ZM6.68869 10.8818C7.09002 10.9378 7.53802 10.9751 8.03269 10.9938C8.53669 11.0031 9.04069 10.9985 9.54469 10.9798C10.0487 10.9611 10.4967 10.9238 10.8887 10.8678C10.9167 10.5131 10.9634 10.1491 11.0287 9.77576C11.0847 9.40243 11.1314 9.03376 11.1687 8.66976C11.2154 8.30576 11.234 7.95576 11.2247 7.61976C10.2074 7.98376 9.32535 8.44576 8.57869 9.00576C7.83202 9.55643 7.20202 10.1818 6.68869 10.8818ZM18.419 18.1898C18.2417 18.1711 18.055 18.1245 17.859 18.0498C17.663 17.9845 17.5184 17.9098 17.425 17.8258C17.1917 17.6205 17.0377 17.3918 16.963 17.1398C16.8977 16.8878 16.9117 16.6591 17.005 16.4538C17.1077 16.2391 17.2897 16.1038 17.551 16.0478L17.593 16.0618C17.677 16.1458 17.7237 16.2438 17.733 16.3558C17.7517 16.4585 17.7564 16.5611 17.747 16.6638C17.747 16.6731 17.747 16.6825 17.747 16.6918C17.7377 16.7571 17.733 16.8131 17.733 16.8598C17.733 16.9065 17.7424 16.9578 17.761 17.0138C17.8264 17.2191 17.9757 17.3591 18.209 17.4338C18.4424 17.5178 18.7177 17.5271 19.035 17.4618C19.399 17.3685 19.6697 17.1725 19.847 16.8738C20.0337 16.5751 20.1644 16.2205 20.239 15.8098C20.323 15.3898 20.3884 14.9698 20.435 14.5498C20.4444 14.4938 20.449 14.4425 20.449 14.3958C20.4584 14.3398 20.4677 14.2838 20.477 14.2278C20.4864 14.1718 20.4957 14.1158 20.505 14.0598C20.5144 14.0038 20.5237 13.9525 20.533 13.9058C20.4957 13.9245 20.4584 13.9571 20.421 14.0038C20.3837 14.0411 20.351 14.0785 20.323 14.1158C20.3044 14.1438 20.281 14.1718 20.253 14.1998C20.2344 14.2185 20.2204 14.2325 20.211 14.2418C20.015 14.4471 19.7677 14.6385 19.469 14.8158C19.1704 14.9838 18.8437 15.1145 18.489 15.2078C18.1344 15.2918 17.775 15.3105 17.411 15.2638C17.0564 15.2078 16.7204 15.0631 16.403 14.8298C15.4884 14.1578 15.0824 13.1825 15.185 11.9038C15.241 11.2225 15.4604 10.6065 15.843 10.0558C16.235 9.50509 16.7297 9.07109 17.327 8.75376C17.9057 8.45509 18.545 8.29643 19.245 8.27776C19.9544 8.24976 20.659 8.42243 21.359 8.79576C22.2644 9.26243 22.6564 9.75243 22.535 10.2658L22.367 10.3498C22.143 10.3405 21.9704 10.2845 21.849 10.1818C21.7277 10.0698 21.6157 9.95776 21.513 9.84576C21.457 9.77109 21.401 9.71043 21.345 9.66376C21.2984 9.61709 21.247 9.57509 21.191 9.53776C20.6964 9.22043 20.099 9.06176 19.399 9.06176C18.7457 9.05243 18.1577 9.19243 17.635 9.48176C17.1124 9.76176 16.697 10.1491 16.389 10.6438C16.0904 11.1385 15.941 11.6985 15.941 12.3238C15.941 13.0331 16.1324 13.5885 16.515 13.9898C16.907 14.3911 17.439 14.5731 18.111 14.5358C18.4377 14.5171 18.7457 14.4285 19.035 14.2698C19.3337 14.1018 19.5997 13.8918 19.833 13.6398C20.0757 13.3878 20.2764 13.1265 20.435 12.8558C20.603 12.5851 20.7197 12.3378 20.785 12.1138C20.8224 11.9645 20.841 11.8198 20.841 11.6798V11.5258C20.841 11.1618 20.883 10.9098 20.967 10.7698C21.051 10.6298 21.1957 10.5831 21.401 10.6298C21.5597 10.6765 21.639 10.7791 21.639 10.9378C21.6484 11.0965 21.6437 11.2458 21.625 11.3858C21.6157 11.4325 21.611 11.4651 21.611 11.4838C21.5924 11.7265 21.5644 11.9878 21.527 12.2678C21.499 12.5385 21.4664 12.8138 21.429 13.0938C21.4104 13.2338 21.3917 13.3738 21.373 13.5138C21.3544 13.6538 21.3357 13.7938 21.317 13.9338C21.3077 14.0085 21.2984 14.0831 21.289 14.1578C21.2797 14.2231 21.2704 14.2978 21.261 14.3818C21.1957 14.8205 21.1164 15.2778 21.023 15.7538C20.9297 16.2205 20.7897 16.6498 20.603 17.0418C20.4164 17.4338 20.1457 17.7371 19.791 17.9518C19.4457 18.1758 18.9884 18.2551 18.419 18.1898Z" fill="white"/>
</svg>
