<svg width="24" height="24" viewBox="0 0 24 24" fill="none" xmlns="http://www.w3.org/2000/svg">
<path d="M4.35484 17.0002L8.09284 7.2002H9.52084L13.2588 17.0002H11.4248L10.6688 14.8442H6.90284L6.14684 17.0002H4.35484ZM7.43484 13.3462H10.1508L8.80684 9.5242L7.43484 13.3462ZM16.7409 19.7862C16.0409 19.7862 15.4436 19.6555 14.9489 19.3942C14.4542 19.1329 14.0436 18.7269 13.7169 18.1762L14.9909 17.3362C15.1776 17.6815 15.4109 17.9382 15.6909 18.1062C15.9709 18.2742 16.3209 18.3582 16.7409 18.3582C17.2916 18.3582 17.6976 18.1902 17.9589 17.8542C18.2202 17.5182 18.3509 16.9815 18.3509 16.2442V15.8662C17.9122 16.3235 17.3569 16.5522 16.6849 16.5522C16.0969 16.5522 15.5696 16.4309 15.1029 16.1882C14.6456 15.9362 14.2862 15.5722 14.0249 15.0962C13.7636 14.6109 13.6329 14.0182 13.6329 13.3182C13.6329 12.6089 13.7636 12.0162 14.0249 11.5402C14.2862 11.0642 14.6456 10.7049 15.1029 10.4622C15.5696 10.2195 16.0969 10.0982 16.6849 10.0982C17.4316 10.0982 18.0336 10.3642 18.4909 10.8962L18.5469 10.2662H19.9189V16.2442C19.9189 17.3549 19.6576 18.2229 19.1349 18.8482C18.6216 19.4735 17.8236 19.7862 16.7409 19.7862ZM16.8109 15.1662C17.2962 15.1662 17.6929 15.0029 18.0009 14.6762C18.3089 14.3402 18.4629 13.8875 18.4629 13.3182C18.4629 12.7395 18.3089 12.2915 18.0009 11.9742C17.6929 11.6475 17.2962 11.4842 16.8109 11.4842C16.3256 11.4842 15.9382 11.6475 15.6489 11.9742C15.3689 12.2915 15.2289 12.7395 15.2289 13.3182C15.2289 13.8875 15.3689 14.3402 15.6489 14.6762C15.9382 15.0029 16.3256 15.1662 16.8109 15.1662Z" fill="white"/>
</svg>
