<svg width="24" height="24" viewBox="0 0 24 24" fill="none" xmlns="http://www.w3.org/2000/svg">
<path d="M4.90737 17.1119C4.81403 17.0839 4.7487 17.0279 4.71137 16.9439C4.67403 16.8506 4.67403 16.7572 4.71137 16.6639L8.22537 7.18591C8.2907 7.03658 8.4027 6.96191 8.56137 6.96191C8.72003 6.96191 8.83203 7.03658 8.89737 7.18591L12.4254 16.6639C12.4627 16.7572 12.458 16.8506 12.4114 16.9439C12.374 17.0279 12.3087 17.0839 12.2154 17.1119C12.1314 17.1492 12.0427 17.1446 11.9494 17.0979C11.8654 17.0606 11.8047 16.9952 11.7674 16.9019L8.56137 8.31991L6.61537 13.5139H9.26137C9.3547 13.5139 9.43403 13.5512 9.49937 13.6259C9.5647 13.6912 9.59737 13.7752 9.59737 13.8779C9.59737 13.9712 9.5647 14.0506 9.49937 14.1159C9.43403 14.1812 9.3547 14.2139 9.26137 14.2139H6.34937L5.35537 16.9019C5.31803 16.9952 5.25737 17.0606 5.17337 17.0979C5.08937 17.1446 5.0007 17.1492 4.90737 17.1119ZM15.8499 20.1079C15.3552 20.1079 14.9259 19.9726 14.5619 19.7019C14.2072 19.4406 13.9552 19.0672 13.8059 18.5819C13.7779 18.4979 13.7826 18.4139 13.8199 18.3299C13.8572 18.2552 13.9226 18.2039 14.0159 18.1759C14.1092 18.1386 14.1932 18.1432 14.2679 18.1899C14.3519 18.2366 14.4079 18.3019 14.4359 18.3859C14.6506 19.0859 15.1219 19.4359 15.8499 19.4359C16.3259 19.4359 16.6992 19.2632 16.9699 18.9179C17.2499 18.5726 17.3899 18.1012 17.3899 17.5039V15.6279C16.9792 16.0666 16.4006 16.2859 15.6539 16.2859C14.8979 16.2859 14.3006 16.0526 13.8619 15.5859C13.4232 15.1192 13.2039 14.4892 13.2039 13.6959C13.2039 12.9026 13.4232 12.2772 13.8619 11.8199C14.3006 11.3532 14.8979 11.1199 15.6539 11.1199C16.4099 11.1199 16.9886 11.3439 17.3899 11.7919V11.4419C17.3899 11.3486 17.4226 11.2692 17.4879 11.2039C17.5532 11.1292 17.6326 11.0919 17.7259 11.0919C17.8192 11.0919 17.8939 11.1292 17.9499 11.2039C18.0152 11.2692 18.0479 11.3486 18.0479 11.4419V17.5039C18.0479 18.2692 17.8472 18.8946 17.4459 19.3799C17.0446 19.8652 16.5126 20.1079 15.8499 20.1079ZM15.6539 15.6279C16.2046 15.6279 16.6339 15.4692 16.9419 15.1519C17.2499 14.8252 17.4039 14.3399 17.4039 13.6959C17.4039 13.0612 17.2499 12.5852 16.9419 12.2679C16.6339 11.9506 16.2046 11.7919 15.6539 11.7919C15.0846 11.7919 14.6412 11.9599 14.3239 12.2959C14.0159 12.6226 13.8619 13.0892 13.8619 13.6959C13.8619 14.3119 14.0159 14.7879 14.3239 15.1239C14.6412 15.4599 15.0846 15.6279 15.6539 15.6279Z" fill="white"/>
</svg>
