<svg width="24" height="24" viewBox="0 0 24 24" fill="none" xmlns="http://www.w3.org/2000/svg">
<path d="M4.26484 17.0002C3.99418 17.0002 3.80751 16.9209 3.70484 16.7622C3.60218 16.6035 3.60218 16.3889 3.70484 16.1182L6.86884 7.8162C7.00884 7.40553 7.30284 7.2002 7.75084 7.2002H7.86284C8.31084 7.2002 8.60484 7.40553 8.74484 7.8162L11.9228 16.1182C12.0255 16.3889 12.0208 16.6035 11.9088 16.7622C11.8062 16.9209 11.6195 17.0002 11.3488 17.0002H11.0828C10.6442 17.0002 10.3548 16.7902 10.2148 16.3702L9.66884 14.8442H5.90284L5.35684 16.3702C5.21684 16.7902 4.92751 17.0002 4.48884 17.0002H4.26484ZM6.43484 13.3462H9.15084L7.80684 9.5242L6.43484 13.3462ZM15.7409 19.7862C14.6862 19.7862 13.8509 19.4782 13.2349 18.8622C13.0389 18.6569 12.9596 18.4562 12.9969 18.2602C13.0342 18.0642 13.1556 17.9009 13.3609 17.7702C13.5662 17.6302 13.7529 17.5835 13.9209 17.6302C14.0889 17.6769 14.2756 17.7795 14.4809 17.9382C14.8076 18.2182 15.2276 18.3582 15.7409 18.3582C16.2916 18.3582 16.6976 18.1902 16.9589 17.8542C17.2202 17.5182 17.3509 16.9815 17.3509 16.2442V15.8662C16.9122 16.3235 16.3569 16.5522 15.6849 16.5522C15.0969 16.5522 14.5696 16.4309 14.1029 16.1882C13.6456 15.9362 13.2862 15.5722 13.0249 15.0962C12.7636 14.6109 12.6329 14.0182 12.6329 13.3182C12.6329 12.6089 12.7636 12.0162 13.0249 11.5402C13.2862 11.0642 13.6456 10.7049 14.1029 10.4622C14.5696 10.2195 15.0969 10.0982 15.6849 10.0982C16.0489 10.0982 16.3989 10.1775 16.7349 10.3362C17.0709 10.4855 17.3462 10.7422 17.5609 11.1062V10.8682C17.5609 10.6349 17.6216 10.4762 17.7429 10.3922C17.8642 10.3082 18.0322 10.2662 18.2469 10.2662C18.6949 10.2662 18.9189 10.5415 18.9189 11.0922V16.2442C18.9189 17.3549 18.6576 18.2229 18.1349 18.8482C17.6216 19.4735 16.8236 19.7862 15.7409 19.7862ZM15.8109 15.1662C16.2962 15.1662 16.6929 15.0029 17.0009 14.6762C17.3089 14.3402 17.4629 13.8875 17.4629 13.3182C17.4629 12.7395 17.3089 12.2915 17.0009 11.9742C16.6929 11.6475 16.2962 11.4842 15.8109 11.4842C15.3256 11.4842 14.9382 11.6475 14.6489 11.9742C14.3689 12.2915 14.2289 12.7395 14.2289 13.3182C14.2289 13.8875 14.3689 14.3402 14.6489 14.6762C14.9382 15.0029 15.3256 15.1662 15.8109 15.1662Z" fill="white"/>
</svg>
