<svg width="24" height="24" viewBox="0 0 24 24" fill="none" xmlns="http://www.w3.org/2000/svg">
<path d="M2.67163 17C2.54097 17 2.47563 16.9347 2.47563 16.804C2.47563 16.6547 2.54097 16.58 2.67163 16.58C2.97963 16.58 3.22697 16.5193 3.41363 16.398C3.6003 16.2673 3.7683 16.0433 3.91763 15.726C3.98297 15.586 4.08563 15.3387 4.22563 14.984C4.37497 14.6293 4.54297 14.2047 4.72963 13.71C4.92563 13.2153 5.1263 12.688 5.33163 12.128C5.5463 11.5587 5.7563 10.9987 5.96163 10.448C6.1763 9.88797 6.3723 9.3653 6.54963 8.87997C6.7363 8.39464 6.8903 7.98397 7.01163 7.64797C7.1423 7.30264 7.2263 7.07397 7.26363 6.96197C7.3103 6.84064 7.3663 6.7613 7.43163 6.72397C7.49697 6.68664 7.6043 6.66797 7.75363 6.66797C7.90297 6.66797 8.0103 6.6913 8.07563 6.73797C8.1503 6.7753 8.2063 6.8453 8.24363 6.94797C8.30897 7.11597 8.4163 7.4053 8.56563 7.81597C8.7243 8.22664 8.9063 8.71197 9.11163 9.27197C9.3263 9.82264 9.54563 10.4013 9.76963 11.008C10.003 11.6147 10.227 12.212 10.4416 12.8C10.6563 13.3787 10.8523 13.8967 11.0296 14.354C11.207 14.8113 11.3423 15.166 11.4356 15.418C11.7436 16.1927 12.117 16.58 12.5556 16.58C12.677 16.58 12.7376 16.6547 12.7376 16.804C12.7376 16.9347 12.677 17 12.5556 17C12.4623 17 12.2756 16.9953 11.9956 16.986C11.725 16.9767 11.347 16.972 10.8616 16.972C10.4603 16.972 10.0916 16.9767 9.75563 16.986C9.41963 16.9953 9.2003 17 9.09763 17C8.9763 17 8.91563 16.9347 8.91563 16.804C8.91563 16.6547 8.9763 16.58 9.09763 16.58C9.38697 16.58 9.58763 16.538 9.69963 16.454C9.82097 16.37 9.8863 16.2627 9.89563 16.132C9.90497 16.0013 9.88163 15.8707 9.82563 15.74C9.8163 15.6933 9.7463 15.4787 9.61563 15.096C9.4943 14.704 9.3403 14.2513 9.15363 13.738C9.1163 13.6447 9.07897 13.5887 9.04163 13.57C9.01363 13.5513 8.96697 13.542 8.90163 13.542H5.42963C5.3363 13.542 5.2803 13.584 5.26163 13.668C5.20563 13.864 5.13563 14.0973 5.05163 14.368C4.96763 14.6293 4.89297 14.8813 4.82763 15.124C4.7623 15.3667 4.72963 15.5673 4.72963 15.726C4.72963 16.0433 4.81363 16.2673 4.98163 16.398C5.14963 16.5193 5.3783 16.58 5.66763 16.58C5.78897 16.58 5.84963 16.6547 5.84963 16.804C5.84963 16.9347 5.78897 17 5.66763 17C5.5743 17 5.40163 16.9953 5.14963 16.986C4.90697 16.9767 4.5803 16.972 4.16963 16.972C3.80563 16.972 3.4883 16.9767 3.21763 16.986C2.94697 16.9953 2.76497 17 2.67163 17ZM5.65363 13.066H8.70563C8.7523 13.066 8.7943 13.0567 8.83163 13.038C8.86897 13.0193 8.87363 12.968 8.84563 12.884C8.73363 12.5573 8.60297 12.1747 8.45363 11.736C8.3043 11.2973 8.1503 10.8587 7.99163 10.42C7.83297 9.9813 7.69297 9.59864 7.57163 9.27197C7.45963 8.93597 7.38497 8.71664 7.34763 8.61397C7.31963 8.54864 7.28697 8.51597 7.24963 8.51597C7.2123 8.51597 7.1843 8.5393 7.16563 8.58597C7.13763 8.6513 7.0723 8.81464 6.96963 9.07597C6.8763 9.32797 6.75963 9.63597 6.61963 9.99997C6.47963 10.3547 6.33497 10.7233 6.18563 11.106C6.0363 11.4793 5.90097 11.8247 5.77963 12.142C5.66763 12.4593 5.5883 12.6973 5.54163 12.856C5.5043 12.996 5.54163 13.066 5.65363 13.066ZM16.5007 19.884C15.3527 19.884 14.536 19.7393 14.0507 19.45C13.5747 19.17 13.3367 18.7827 13.3367 18.288C13.3367 17.9333 13.4487 17.644 13.6727 17.42C13.906 17.2053 14.1533 17.042 14.4147 16.93C14.4613 16.9113 14.4847 16.8833 14.4847 16.846C14.4847 16.7993 14.466 16.7713 14.4287 16.762C14.1673 16.65 13.948 16.5147 13.7707 16.356C13.6027 16.188 13.5187 15.964 13.5187 15.684C13.5187 15.4693 13.57 15.292 13.6727 15.152C13.7753 15.012 13.8967 14.9 14.0367 14.816C14.1767 14.732 14.3073 14.6713 14.4287 14.634C14.5593 14.5873 14.648 14.5547 14.6947 14.536C14.8067 14.4893 14.8113 14.4287 14.7087 14.354C14.046 13.906 13.7147 13.3273 13.7147 12.618C13.7147 12.1793 13.8407 11.7967 14.0927 11.47C14.354 11.134 14.6947 10.8727 15.1147 10.686C15.544 10.49 16.0013 10.392 16.4867 10.392C16.8133 10.392 17.14 10.4387 17.4667 10.532C17.8027 10.6253 18.0873 10.7513 18.3207 10.91C18.4513 10.994 18.5447 10.9893 18.6007 10.896C18.7033 10.7467 18.8667 10.602 19.0907 10.462C19.3147 10.322 19.5573 10.252 19.8187 10.252C20.108 10.252 20.3273 10.3407 20.4767 10.518C20.6353 10.686 20.7147 10.854 20.7147 11.022C20.7147 11.2087 20.654 11.3627 20.5327 11.484C20.4113 11.6053 20.2387 11.666 20.0147 11.666C19.8747 11.666 19.772 11.638 19.7067 11.582C19.6507 11.526 19.5993 11.4653 19.5527 11.4C19.5153 11.3253 19.464 11.26 19.3987 11.204C19.3427 11.148 19.2493 11.12 19.1187 11.12C19.0533 11.12 18.9973 11.1433 18.9507 11.19C18.9133 11.2273 18.8853 11.2553 18.8667 11.274C18.8293 11.3207 18.8387 11.3813 18.8947 11.456C19.0253 11.624 19.1187 11.806 19.1747 12.002C19.2307 12.198 19.2587 12.4033 19.2587 12.618C19.2587 13.2713 19.0113 13.808 18.5167 14.228C18.022 14.648 17.3453 14.858 16.4867 14.858C16.2627 14.858 16.0527 14.8487 15.8567 14.83C15.6607 14.802 15.488 14.7833 15.3387 14.774C15.124 14.7367 14.9327 14.7647 14.7647 14.858C14.606 14.9513 14.5267 15.0587 14.5267 15.18C14.5267 15.3107 14.6433 15.418 14.8767 15.502C15.1193 15.586 15.4133 15.656 15.7587 15.712C16.1133 15.7587 16.4727 15.796 16.8367 15.824C17.2007 15.852 17.5087 15.88 17.7607 15.908C18.4047 15.9733 18.918 16.1553 19.3007 16.454C19.6927 16.7527 19.8887 17.1727 19.8887 17.714C19.8887 18.4233 19.5853 18.96 18.9787 19.324C18.3813 19.6973 17.5553 19.884 16.5007 19.884ZM16.4587 19.38C17.1213 19.38 17.6627 19.2773 18.0827 19.072C18.512 18.8667 18.7267 18.568 18.7267 18.176C18.7267 17.9333 18.6333 17.7373 18.4467 17.588C18.26 17.448 18.0127 17.3407 17.7047 17.266C17.406 17.2007 17.0793 17.1493 16.7247 17.112C16.37 17.0747 16.0293 17.042 15.7027 17.014C15.46 16.986 15.278 17.014 15.1567 17.098C14.998 17.21 14.8533 17.364 14.7227 17.56C14.592 17.756 14.5267 17.9753 14.5267 18.218C14.5267 18.9927 15.1707 19.38 16.4587 19.38ZM16.4867 14.424C16.916 14.424 17.2333 14.256 17.4387 13.92C17.644 13.584 17.7467 13.15 17.7467 12.618C17.7467 12.0953 17.644 11.666 17.4387 11.33C17.2333 10.9847 16.916 10.812 16.4867 10.812C16.0573 10.812 15.74 10.9847 15.5347 11.33C15.3387 11.666 15.2407 12.0953 15.2407 12.618C15.2407 13.15 15.3387 13.584 15.5347 13.92C15.74 14.256 16.0573 14.424 16.4867 14.424Z" fill="white"/>
</svg>
