<svg width="24" height="24" viewBox="0 0 24 24" fill="none" xmlns="http://www.w3.org/2000/svg">
<path d="M9.90514 12.114C10.3625 10.0513 10.5911 8.50198 10.5911 7.46598V7.10198C10.5911 6.94331 10.6285 6.82665 10.7031 6.75198C10.7871 6.66798 10.8711 6.62131 10.9551 6.61198C11.0485 6.59331 11.2258 6.58398 11.4871 6.58398C11.7578 6.58398 12.0378 6.68198 12.3271 6.87798C12.6258 7.07398 12.7751 7.33998 12.7751 7.67598C12.7751 7.74131 12.7331 8.14731 12.6491 8.89398C12.5651 9.64065 12.5091 10.5973 12.4811 11.764C12.7985 11.6333 13.0505 11.498 13.2371 11.358C13.4331 11.2087 13.5638 11.134 13.6291 11.134C13.7318 11.134 13.7831 11.232 13.7831 11.428C13.7831 11.6147 13.6385 11.8573 13.3491 12.156C13.0598 12.4453 12.7705 12.6833 12.4811 12.87C12.4811 13.0753 12.4905 13.402 12.5091 13.85C12.5371 13.8313 12.5745 13.822 12.6211 13.822C12.6771 13.822 12.7285 13.836 12.7751 13.864C12.8311 13.892 12.8778 13.9247 12.9151 13.962C12.9618 13.9993 13.0131 14.0553 13.0691 14.13C13.1251 14.1953 13.1671 14.2467 13.1951 14.284C13.2231 14.3213 13.2605 14.3773 13.3071 14.452C13.3538 14.5173 13.3818 14.5547 13.3911 14.564C13.5591 14.816 13.6431 15.0167 13.6431 15.166C13.6431 15.306 13.6151 15.4693 13.5591 15.656C13.3445 16.2067 13.1998 16.6873 13.1251 17.098C13.0878 17.294 12.9758 17.392 12.7891 17.392C12.5838 17.392 12.4391 17.336 12.3551 17.224C12.2805 17.1213 12.2198 17.0373 12.1731 16.972C12.1358 16.9067 12.0985 16.8133 12.0611 16.692C12.0331 16.5707 12.0098 16.4773 11.9911 16.412C11.9725 16.3373 11.9538 16.2253 11.9351 16.076C11.9071 15.88 11.8885 15.684 11.8791 15.488L11.8651 15.264C11.8278 14.816 11.7811 14.1347 11.7251 13.22C11.4825 13.304 11.1091 13.3553 10.6051 13.374C10.4558 14.046 10.3018 14.6667 10.1431 15.236C9.99381 15.796 9.74181 16.244 9.38714 16.58C9.04181 16.916 8.61714 17.084 8.11314 17.084C7.96381 17.084 7.78647 17.0607 7.58114 17.014C6.37714 16.6873 5.55581 15.9267 5.11714 14.732C5.00514 14.424 4.94914 14.1533 4.94914 13.92C4.94914 13.36 5.18247 12.9773 5.64914 12.772C6.65714 12.3147 7.64181 12.086 8.60314 12.086L9.90514 12.114ZM11.6691 11.974C11.6318 11.1527 11.5945 9.90198 11.5571 8.22198C11.4825 8.65131 11.3658 9.29531 11.2071 10.154C11.0578 11.0127 10.9458 11.6567 10.8711 12.086C11.2258 12.0487 11.4918 12.0113 11.6691 11.974ZM8.68714 13.388C7.54847 13.388 6.63847 13.4673 5.95714 13.626C5.57447 13.7007 5.38314 13.8407 5.38314 14.046C5.38314 14.2047 5.50914 14.41 5.76114 14.662C6.01314 14.914 6.33981 15.11 6.74114 15.25C7.14247 15.3807 7.47847 15.446 7.74914 15.446C8.01981 15.446 8.24381 15.3993 8.42114 15.306C8.60781 15.2127 8.75247 15.1147 8.85514 15.012C8.96714 14.9093 9.07447 14.7413 9.17714 14.508C9.30781 14.2187 9.44314 13.8453 9.58314 13.388H8.68714ZM15.6813 18.302C15.6813 18.2273 15.7093 18.176 15.7653 18.148C15.8213 18.1293 15.868 18.106 15.9053 18.078C15.9427 18.0593 15.9893 18.0267 16.0453 17.98C16.176 17.8867 16.2833 17.84 16.3673 17.84C16.4607 17.84 16.5353 17.854 16.5913 17.882C16.6567 17.91 16.6987 17.924 16.7173 17.924C16.82 17.924 16.8713 17.7327 16.8713 17.35C16.918 16.4447 17.0067 15.376 17.1373 14.144C16.8667 14.5733 16.512 15.0307 16.0733 15.516C15.6347 15.992 15.2847 16.23 15.0233 16.23C14.762 16.23 14.5473 16.1133 14.3793 15.88C14.0713 15.4413 13.9173 14.9373 13.9173 14.368C13.9173 13.528 14.3607 12.6133 15.2473 11.624C15.5553 11.288 15.784 11.05 15.9333 10.91C16.092 10.7607 16.3347 10.5367 16.6613 10.238C16.988 9.92998 17.282 9.77598 17.5433 9.77598C17.8047 9.77598 18.0053 9.86931 18.1453 10.056C18.2853 10.2427 18.3553 10.4573 18.3553 10.7C18.3553 10.9333 18.2993 11.2553 18.1873 11.666C18.262 11.7127 18.2993 11.7827 18.2993 11.876C18.2993 11.96 18.29 12.0487 18.2713 12.142C17.8513 14.774 17.6133 16.5007 17.5573 17.322C17.5107 18.1433 17.4873 18.792 17.4873 19.268L17.5013 20.01C17.5013 20.1313 17.4687 20.2293 17.4033 20.304C17.338 20.388 17.254 20.43 17.1513 20.43C17.0487 20.43 16.876 20.3367 16.6333 20.15C16.4 19.9727 16.176 19.884 15.9613 19.884L15.6393 19.912C15.5273 19.912 15.4713 19.8607 15.4713 19.758L15.6533 18.456L15.6813 18.302ZM17.3193 11.806C17.366 11.694 17.3893 11.5867 17.3893 11.484C17.3893 11.3813 17.352 11.33 17.2773 11.33C17.2493 11.33 17.2167 11.3393 17.1793 11.358C16.6287 11.6287 16.1433 11.988 15.7233 12.436C15.3033 12.884 14.9907 13.3833 14.7853 13.934C14.748 14.046 14.7293 14.144 14.7293 14.228C14.7293 14.4147 14.7993 14.508 14.9393 14.508C15.014 14.508 15.098 14.48 15.1913 14.424C15.6207 14.1347 16.0267 13.752 16.4093 13.276C16.792 12.8 17.0953 12.31 17.3193 11.806Z" fill="white"/>
</svg>
