<svg width="24" height="24" viewBox="0 0 24 24" fill="none" xmlns="http://www.w3.org/2000/svg">
<path d="M4.16211 4.16211H13.2061V16.1041H12.1001L9.11811 7.90011H6.51411V8.79611H7.97011L5.26811 16.1041H4.16211V4.16211ZM8.75411 9.38411L10.2381 13.5561H7.17211L8.68411 9.38411H8.75411ZM13.2061 19.9821H4.16211V17.0001H7.35411V16.1041H6.23411L6.87811 14.3541H10.5181L11.1341 16.1041H10.0561V17.0001H13.2061V19.9821Z" fill="white"/>
<path d="M12.8711 19.9821V4.16211H20.8371V19.9821H16.5111C17.4444 19.9448 18.1631 19.6368 18.6671 19.0581C19.1804 18.4888 19.4371 17.7281 19.4371 16.7761V11.5681H20.4451V10.7701H18.4431V11.7501C18.0231 11.0128 17.3184 10.6441 16.3291 10.6441C15.3678 10.6441 14.6631 11.0034 14.2151 11.7221C13.7671 12.4408 13.5431 13.2154 13.5431 14.0461C13.5431 15.0261 13.8044 15.7774 14.3271 16.3001C14.8498 16.8228 15.4798 17.0841 16.2171 17.0841C16.8051 17.0841 17.2764 16.9488 17.6311 16.6781C17.9858 16.4074 18.2564 16.0901 18.4431 15.7261V16.7341C18.4431 17.5088 18.2518 18.1014 17.8691 18.5121C17.4958 18.9228 17.0104 19.1281 16.4131 19.1281C15.9931 19.1281 15.5871 19.0208 15.1951 18.8061C14.8031 18.5914 14.5278 18.2414 14.3691 17.7561L13.5851 18.1481C13.7438 18.7454 14.0611 19.1934 14.5371 19.4921C15.0224 19.7908 15.5684 19.9541 16.1751 19.9821H12.8711ZM18.4431 13.2341V14.3121C18.4244 14.7788 18.2284 15.2174 17.8551 15.6281C17.4911 16.0294 17.0151 16.2301 16.4271 16.2301C15.9138 16.2301 15.4798 16.0481 15.1251 15.6841C14.7704 15.3108 14.5931 14.7414 14.5931 13.9761C14.5931 13.3228 14.7471 12.7488 15.0551 12.2541C15.3724 11.7501 15.8858 11.4981 16.5951 11.4981C17.0991 11.4981 17.5331 11.6568 17.8971 11.9741C18.2611 12.2914 18.4431 12.7114 18.4431 13.2341Z" fill="white"/>
</svg>
