<svg width="24" height="24" viewBox="0 0 24 24" fill="none" xmlns="http://www.w3.org/2000/svg">
<path d="M4.29912 15.8944H5.13912L8.63912 9.00639H7.28112L7.39312 7.90039H10.0391L12.3911 15.8944H13.2451L13.1331 17.0004H9.89912L10.0111 15.8944H11.0471L10.6551 14.3824H7.12712L6.38512 15.8944H7.51912L7.40712 17.0004H4.20112L4.29912 15.8944ZM9.38112 9.73439L7.58912 13.4304H10.4031L9.45112 9.73439H9.38112ZM18.6905 10.7424H20.6225L20.5385 11.4284L20.2025 11.7084H19.5585L18.9285 16.8464C18.8165 17.7704 18.5178 18.5451 18.0325 19.1704C17.5471 19.8051 16.8005 20.1224 15.7925 20.1224C15.1765 20.1224 14.6258 19.9684 14.1405 19.6604C13.6645 19.3524 13.3705 18.8717 13.2585 18.2184L14.1405 17.7704C14.2525 18.2277 14.4718 18.5591 14.7985 18.7644C15.1251 18.9697 15.4845 19.0724 15.8765 19.0724C16.9405 19.0724 17.5658 18.3211 17.7525 16.8184L17.8785 15.7684C17.6638 16.1417 17.3791 16.4637 17.0245 16.7344C16.6698 17.0051 16.2311 17.1404 15.7085 17.1404C15.0178 17.1404 14.4998 16.8977 14.1545 16.4124C13.8091 15.9177 13.6365 15.2877 13.6365 14.5224C13.6365 13.9624 13.7345 13.3837 13.9305 12.7864C14.1358 12.1797 14.4531 11.6664 14.8825 11.2464C15.3211 10.8264 15.8951 10.6164 16.6045 10.6164C17.5285 10.6164 18.1398 10.9897 18.4385 11.7364L18.6905 10.7424ZM16.7445 11.5824C16.0911 11.5824 15.6198 11.8857 15.3305 12.4924C15.0505 13.0991 14.9105 13.7291 14.9105 14.3824C14.9105 15.5771 15.3118 16.1744 16.1145 16.1744C16.6091 16.1744 17.0291 15.9691 17.3745 15.5584C17.7291 15.1477 17.9578 14.7277 18.0605 14.2984L18.1865 13.2624C18.2051 12.7677 18.0791 12.3664 17.8085 12.0584C17.5378 11.7411 17.1831 11.5824 16.7445 11.5824Z" fill="white"/>
</svg>
