<svg width="24" height="24" viewBox="0 0 24 24" fill="none" xmlns="http://www.w3.org/2000/svg">
<path d="M4.24574 15.6704H5.05774L8.38974 9.23039H7.10174L7.24174 7.90039H10.0417L12.4077 15.6704H13.2477L13.1077 17.0004H9.76174L9.90174 15.6704H10.7837L10.4757 14.4244H7.18574L6.58374 15.6704H7.57774L7.43774 17.0004H4.11974L4.24574 15.6704ZM9.28574 10.1264L7.74574 13.2904H10.1817L9.36974 10.1264H9.28574ZM18.6475 10.7144H20.7475L20.6495 11.5684L20.2715 11.8764H19.7115L19.1095 16.7624C18.9975 17.6677 18.6941 18.4517 18.1995 19.1144C17.7048 19.7771 16.9161 20.1084 15.8335 20.1084C15.2361 20.1084 14.6855 19.9591 14.1815 19.6604C13.6775 19.3617 13.3601 18.8671 13.2295 18.1764L14.2655 17.6164C14.3961 18.0457 14.6108 18.3584 14.9095 18.5544C15.2175 18.7597 15.5581 18.8624 15.9315 18.8624C16.9301 18.8624 17.5135 18.1577 17.6815 16.7484L17.7935 15.7684C17.5788 16.1417 17.2941 16.4637 16.9395 16.7344C16.5941 17.0051 16.1648 17.1404 15.6515 17.1404C14.9701 17.1404 14.4568 16.8884 14.1115 16.3844C13.7755 15.8804 13.6075 15.2551 13.6075 14.5084C13.6075 13.9297 13.7101 13.3417 13.9155 12.7444C14.1208 12.1377 14.4428 11.6291 14.8815 11.2184C15.3201 10.7984 15.8848 10.5884 16.5755 10.5884C17.4901 10.5884 18.0875 10.9617 18.3675 11.7084L18.6475 10.7144ZM16.7855 11.7504C16.2161 11.7504 15.8008 12.0211 15.5395 12.5624C15.2875 13.1037 15.1615 13.6964 15.1615 14.3404C15.1615 14.8444 15.2455 15.2457 15.4135 15.5444C15.5815 15.8431 15.8428 15.9924 16.1975 15.9924C16.6361 15.9924 17.0188 15.8011 17.3455 15.4184C17.6815 15.0264 17.8961 14.6251 17.9895 14.2144L18.0735 13.4724C18.1295 12.9497 18.0268 12.5344 17.7655 12.2264C17.5135 11.9091 17.1868 11.7504 16.7855 11.7504Z" fill="white"/>
</svg>
