<svg width="24" height="24" viewBox="0 0 24 24" fill="none" xmlns="http://www.w3.org/2000/svg">
<path d="M2.92636 16.482L8.30236 7.2H9.80036L11.9424 16.846L10.6684 17.14L10.0804 14.34H5.54436L3.99036 17.112L2.92636 16.482ZM6.17436 13.22H9.84236L8.84836 8.502L6.17436 13.22ZM17.7396 9.552C18.2996 9.552 18.7849 9.608 19.1956 9.72C19.6156 9.832 19.9609 9.944 20.2316 10.056L19.0136 17.084C18.9016 17.728 18.7289 18.2507 18.4956 18.652C18.2622 19.0627 17.9962 19.3847 17.6976 19.618C17.3989 19.8607 17.0816 20.024 16.7456 20.108C16.4096 20.2013 16.0782 20.248 15.7516 20.248C15.1169 20.248 14.5756 20.1173 14.1276 19.856C13.6889 19.604 13.3296 19.3007 13.0496 18.946L14.0296 18.218C14.4869 18.8433 15.0889 19.156 15.8356 19.156C16.3022 19.156 16.7129 18.9833 17.0676 18.638C17.4222 18.2927 17.6742 17.7047 17.8236 16.874L18.0616 15.502C17.7909 15.922 17.4642 16.2767 17.0816 16.566C16.6989 16.8553 16.2649 17 15.7796 17C15.4436 17 15.1169 16.9393 14.7996 16.818C14.4822 16.6873 14.1976 16.5007 13.9456 16.258C13.6936 16.0153 13.4929 15.712 13.3436 15.348C13.1942 14.984 13.1196 14.5687 13.1196 14.102C13.1196 13.43 13.2362 12.814 13.4696 12.254C13.7029 11.694 14.0249 11.2133 14.4356 10.812C14.8462 10.4107 15.3316 10.1027 15.8916 9.888C16.4609 9.664 17.0769 9.552 17.7396 9.552ZM14.4076 13.962C14.4076 14.2793 14.4542 14.5593 14.5476 14.802C14.6502 15.0353 14.7809 15.236 14.9396 15.404C15.0982 15.5627 15.2802 15.684 15.4856 15.768C15.6909 15.8427 15.9009 15.88 16.1156 15.88C16.3769 15.88 16.6289 15.81 16.8716 15.67C17.1236 15.5207 17.3522 15.3153 17.5576 15.054C17.7722 14.7833 17.9589 14.4613 18.1176 14.088C18.2762 13.7147 18.3976 13.2947 18.4816 12.828L18.8456 10.798C18.6682 10.742 18.4816 10.7 18.2856 10.672C18.0896 10.6347 17.8609 10.616 17.5996 10.616C17.1329 10.616 16.7036 10.7047 16.3116 10.882C15.9196 11.05 15.5836 11.2833 15.3036 11.582C15.0236 11.8807 14.8042 12.2353 14.6456 12.646C14.4869 13.0473 14.4076 13.486 14.4076 13.962Z" fill="#333333"/>
</svg>
