<svg width="24" height="24" viewBox="0 0 24 24" fill="none" xmlns="http://www.w3.org/2000/svg">
<path d="M6.7348 14.088L5.7268 16.916C5.70813 16.972 5.6708 17 5.6148 17H4.6628C4.58813 17 4.56013 16.9627 4.5788 16.888L7.6308 8.39C7.64946 8.334 7.66813 8.27333 7.6868 8.208C7.70546 8.13333 7.71946 8.00267 7.7288 7.816C7.7288 7.76933 7.75213 7.746 7.7988 7.746H9.1708C9.21746 7.746 9.24546 7.76933 9.2548 7.816L12.5448 16.902C12.5728 16.9673 12.5541 17 12.4888 17H11.4248C11.3781 17 11.3408 16.9767 11.3128 16.93L10.2908 14.088H6.7348ZM9.9688 13.01C9.89413 12.786 9.7868 12.478 9.6468 12.086C9.51613 11.694 9.37613 11.288 9.2268 10.868C9.07746 10.448 8.93746 10.042 8.8068 9.65C8.67613 9.258 8.57813 8.94067 8.5128 8.698H8.4988C8.4428 8.922 8.3588 9.202 8.2468 9.538C8.14413 9.86467 8.0228 10.224 7.8828 10.616C7.75213 10.9987 7.61213 11.4 7.4628 11.82C7.3228 12.2307 7.18746 12.6273 7.0568 13.01H9.9688ZM15.0919 16.79C14.8026 16.9953 14.5739 17.224 14.4059 17.476C14.2379 17.728 14.1539 17.9333 14.1539 18.092C14.1539 18.2507 14.2006 18.4093 14.2939 18.568C14.3873 18.7267 14.5226 18.8667 14.6999 18.988C14.8773 19.1093 15.0919 19.2073 15.3439 19.282C15.5959 19.3567 15.8853 19.394 16.2119 19.394C16.5946 19.394 16.9259 19.352 17.2059 19.268C17.4859 19.184 17.7146 19.072 17.8919 18.932C18.0786 18.8013 18.2139 18.652 18.2979 18.484C18.3913 18.316 18.4379 18.1433 18.4379 17.966C18.4379 17.7607 18.3866 17.588 18.2839 17.448C18.1813 17.3173 18.0459 17.21 17.8779 17.126C17.7099 17.042 17.5139 16.9813 17.2899 16.944C17.0659 16.9067 16.8279 16.8787 16.5759 16.86L15.0919 16.79ZM15.9739 10.952C15.5259 10.952 15.1713 11.0873 14.9099 11.358C14.6486 11.6193 14.5179 11.974 14.5179 12.422C14.5179 12.8513 14.6393 13.206 14.8819 13.486C15.1246 13.7567 15.4839 13.892 15.9599 13.892C16.4079 13.892 16.7579 13.766 17.0099 13.514C17.2619 13.262 17.3879 12.9073 17.3879 12.45C17.3879 12.2447 17.3599 12.0533 17.3039 11.876C17.2479 11.6893 17.1593 11.5307 17.0379 11.4C16.9259 11.26 16.7813 11.1527 16.6039 11.078C16.4266 10.994 16.2166 10.952 15.9739 10.952ZM16.8139 15.852C17.6913 15.8987 18.3633 16.0807 18.8299 16.398C19.2966 16.7153 19.5299 17.182 19.5299 17.798C19.5299 18.1527 19.4506 18.4793 19.2919 18.778C19.1333 19.086 18.9046 19.352 18.6059 19.576C18.3166 19.8 17.9619 19.9773 17.5419 20.108C17.1219 20.2387 16.6553 20.304 16.1419 20.304C15.6193 20.304 15.1666 20.2387 14.7839 20.108C14.4013 19.9867 14.0793 19.8233 13.8179 19.618C13.5566 19.422 13.3606 19.198 13.2299 18.946C13.1086 18.694 13.0479 18.4373 13.0479 18.176C13.0479 17.9333 13.1553 17.6533 13.3699 17.336C13.5846 17.028 13.9346 16.6687 14.4199 16.258C14.1959 15.95 14.0839 15.6 14.0839 15.208C14.0839 14.8907 14.1633 14.5967 14.3219 14.326C14.0326 14.1393 13.7993 13.892 13.6219 13.584C13.4539 13.2667 13.3699 12.884 13.3699 12.436C13.3699 12.1093 13.4259 11.8013 13.5379 11.512C13.6593 11.2227 13.8319 10.9707 14.0559 10.756C14.2799 10.5413 14.5553 10.3733 14.8819 10.252C15.2086 10.1213 15.5773 10.056 15.9879 10.056C16.2026 10.056 16.3986 10.07 16.5759 10.098C16.7533 10.1167 16.9073 10.14 17.0379 10.168C17.1033 10.1867 17.1546 10.196 17.1919 10.196C17.2386 10.196 17.2853 10.196 17.3319 10.196H19.3059C19.3619 10.196 19.3899 10.224 19.3899 10.28V11.078C19.3899 11.134 19.3619 11.162 19.3059 11.162C19.1193 11.162 18.8999 11.1573 18.6479 11.148C18.3959 11.1387 18.1859 11.1247 18.0179 11.106C18.1486 11.2367 18.2606 11.414 18.3539 11.638C18.4566 11.862 18.5079 12.1373 18.5079 12.464C18.5079 12.8467 18.4379 13.1827 18.2979 13.472C18.1673 13.7613 17.9853 14.004 17.7519 14.2C17.5279 14.3867 17.2619 14.5313 16.9539 14.634C16.6459 14.7273 16.3193 14.774 15.9739 14.774C15.7126 14.774 15.4559 14.746 15.2039 14.69C15.1293 14.8673 15.1059 15.04 15.1339 15.208C15.1619 15.4227 15.2459 15.614 15.3859 15.782L16.8139 15.852Z" fill="#333333"/>
</svg>
