<svg width="24" height="24" viewBox="0 0 24 24" fill="none" xmlns="http://www.w3.org/2000/svg">
<path d="M10.6449 13.248H7.0889L5.8009 17H5.3389L8.6709 7.2H9.0489L12.4089 17H11.9189L10.6449 13.248ZM7.2289 12.8H10.5049L8.8529 7.984L7.2289 12.8ZM16.7257 19.562C17.1084 19.422 17.3977 19.2307 17.5937 18.988C17.799 18.7547 17.9017 18.386 17.9017 17.882V16.02C17.407 16.7853 16.665 17.168 15.6757 17.168C14.8544 17.168 14.215 16.944 13.7577 16.496C13.3004 16.048 13.0717 15.3947 13.0717 14.536V12.45C13.0717 11.6287 13.3144 10.994 13.7997 10.546C14.2944 10.0887 14.9477 9.86 15.7597 9.86C16.2264 9.86 16.6417 9.93467 17.0057 10.084C17.3697 10.2333 17.673 10.49 17.9157 10.854L17.9017 9.986H18.3497V17.896C18.3497 18.456 18.233 18.8947 17.9997 19.212C17.7664 19.5293 17.3837 19.772 16.8517 19.94L16.7257 19.562ZM17.9017 11.736C17.7804 11.2413 17.519 10.8773 17.1177 10.644C16.7257 10.4013 16.2684 10.28 15.7457 10.28C15.1857 10.28 14.6724 10.448 14.2057 10.784C13.7484 11.12 13.5197 11.6987 13.5197 12.52V14.662C13.5197 15.306 13.7064 15.8147 14.0797 16.188C14.453 16.5613 14.985 16.748 15.6757 16.748C16.0304 16.748 16.3757 16.678 16.7117 16.538C17.057 16.3887 17.3417 16.16 17.5657 15.852C17.7897 15.544 17.9017 15.1567 17.9017 14.69V11.736Z" fill="#333333"/>
</svg>
