<svg width="24" height="24" viewBox="0 0 24 24" fill="none" xmlns="http://www.w3.org/2000/svg">
<path d="M12.5479 17H10.9619L10.6406 14.9697H8.6377L8.31641 17H6.7373V16.9727L8.80859 6.28809H10.4902L12.5479 17ZM10.415 13.5957L9.63574 8.76953L8.84961 13.5957H10.415ZM17.9414 18.668C17.9414 19.2376 17.6475 19.5225 17.0596 19.5225H14.3389C13.751 19.5225 13.457 19.2376 13.457 18.668V17.5605H14.9678V18.3877H16.3828V16.959H14.7764C14.3389 16.959 13.9902 16.8359 13.7305 16.5898C13.4753 16.3438 13.3477 16.0042 13.3477 15.5713V11.3467C13.3477 10.9502 13.4593 10.638 13.6826 10.4102C13.9059 10.1823 14.2135 10.0684 14.6055 10.0684C14.8014 10.0684 15.3939 10.1618 16.3828 10.3486V10.0957H17.9414V18.668ZM16.3828 15.7012V11.4561C15.8587 11.4014 15.5329 11.374 15.4053 11.374C15.068 11.374 14.8994 11.5404 14.8994 11.873V15.1816C14.8994 15.528 15.0726 15.7012 15.4189 15.7012H16.3828Z" fill="#888888"/>
</svg>
