<svg width="24" height="24" viewBox="0 0 24 24" fill="none" xmlns="http://www.w3.org/2000/svg">
<path d="M8.20605 13.2744C8.11035 13.3473 8.01237 13.3975 7.91211 13.4248C7.79818 13.4567 7.6888 13.459 7.58398 13.4316C7.78906 13.3815 7.97135 13.2949 8.13086 13.1719C8.25846 13.0716 8.39518 12.9212 8.54102 12.7207C8.50911 12.9395 8.39746 13.124 8.20605 13.2744ZM7.46777 12.8848C7.36296 12.8392 7.2946 12.7526 7.2627 12.625C7.22624 12.4974 7.23535 12.3652 7.29004 12.2285C7.34473 12.0872 7.42904 11.9824 7.54297 11.9141C7.6569 11.8457 7.76628 11.832 7.87109 11.873C7.97591 11.9141 8.04655 11.9984 8.08301 12.126C8.11491 12.2536 8.10352 12.388 8.04883 12.5293C7.99414 12.666 7.90983 12.7708 7.7959 12.8438C7.68197 12.9121 7.57259 12.9258 7.46777 12.8848ZM6.36719 9.20703C6.19401 9.44401 5.98438 9.76074 5.73828 10.1572C5.65625 10.2985 5.56055 10.4626 5.45117 10.6494L5.16406 11.1484C5.29622 10.8158 5.45801 10.4694 5.64941 10.1094C5.82715 9.77669 6.02995 9.45085 6.25781 9.13184C6.52214 8.76725 6.77507 8.47559 7.0166 8.25684L7.12598 8.16113C7.16699 8.12467 7.20345 8.09505 7.23535 8.07227L7.35156 7.9834L7.47461 7.9082C7.69336 7.79427 7.87793 7.74186 8.02832 7.75098C7.87337 7.76465 7.7002 7.83529 7.50879 7.96289L7.39941 8.04492L7.29004 8.14062C7.25814 8.16341 7.22396 8.19303 7.1875 8.22949L7.08496 8.33203C6.85254 8.57357 6.61328 8.86523 6.36719 9.20703ZM8.18555 7.23145C7.5931 7.1403 6.92546 7.54818 6.18262 8.45508C5.51725 9.27539 4.91797 10.3236 4.38477 11.5996C3.85612 12.8665 3.5485 13.9922 3.46191 14.9766C3.36621 16.0566 3.57585 16.6947 4.09082 16.8906C4.47819 17.041 4.85417 17.0365 5.21875 16.877C5.49219 16.7585 5.78158 16.5374 6.08691 16.2139C6.14616 16.1501 6.20996 16.0794 6.27832 16.002L6.45605 15.7969C6.60645 15.6191 6.71582 15.4938 6.78418 15.4209C7.02572 15.1657 7.22852 15.0381 7.39258 15.0381C7.5612 15.0381 7.77083 15.1589 8.02148 15.4004C8.09896 15.4733 8.21289 15.5918 8.36328 15.7559L8.54785 15.9473L8.73242 16.1455C9.04232 16.4508 9.32259 16.6582 9.57324 16.7676C9.90592 16.9089 10.2386 16.9043 10.5713 16.7539C10.9632 16.5762 11.1865 15.9951 11.2412 15.0107C11.2913 14.0902 11.1888 13.042 10.9336 11.8662C10.6693 10.6449 10.3092 9.61719 9.85352 8.7832C9.33398 7.8444 8.77799 7.32715 8.18555 7.23145ZM17.3184 11.0732C17.1497 11.1781 17.0267 11.3239 16.9492 11.5107C16.9355 11.4059 16.9583 11.3011 17.0176 11.1963C17.0723 11.1051 17.1497 11.0254 17.25 10.957C17.4505 10.8249 17.6579 10.7952 17.8721 10.8682C17.6442 10.9092 17.4596 10.9775 17.3184 11.0732ZM17.291 13.3906C17.2409 13.4727 17.168 13.5456 17.0723 13.6094C16.8809 13.7324 16.6872 13.7598 16.4912 13.6914C16.6051 13.6686 16.6963 13.6436 16.7646 13.6162C16.8512 13.5843 16.931 13.5456 17.0039 13.5C17.168 13.3906 17.291 13.2585 17.373 13.1035C17.3776 13.1992 17.3503 13.2949 17.291 13.3906ZM14.8848 8.08594C14.4974 8.25911 14.1533 8.47331 13.8525 8.72852C13.5472 8.99284 13.2852 9.30273 13.0664 9.6582C12.957 9.82682 12.8613 10.0068 12.7793 10.1982C12.7428 10.2803 12.7041 10.376 12.6631 10.4854L12.6152 10.6357L12.5674 10.7793C12.6449 10.3464 12.7816 9.95443 12.9775 9.60352C13.0459 9.4668 13.1621 9.29362 13.3262 9.08398C13.4583 8.91992 13.6042 8.76953 13.7637 8.63281C14.0964 8.35482 14.4564 8.1429 14.8438 7.99707C15.2448 7.84212 15.6527 7.76237 16.0674 7.75781C15.8304 7.79427 15.6276 7.83757 15.459 7.8877C15.2539 7.94238 15.0625 8.00846 14.8848 8.08594ZM19.0889 10.9092C18.8245 10.6494 18.5374 10.4785 18.2275 10.3965C17.945 10.319 17.667 10.319 17.3936 10.3965C17.1383 10.4648 16.9219 10.5924 16.7441 10.7793C16.5664 10.9707 16.4593 11.1895 16.4229 11.4355C16.3955 11.6497 16.4115 11.8571 16.4707 12.0576C16.5072 12.1943 16.5732 12.347 16.6689 12.5156L16.7236 12.6045L16.7715 12.6934C16.8079 12.7526 16.833 12.8027 16.8467 12.8438C16.8786 12.9395 16.8626 13.0169 16.7988 13.0762C16.6986 13.1673 16.5732 13.1924 16.4229 13.1514C16.2725 13.1058 16.1289 13.0055 15.9922 12.8506C15.6595 12.4723 15.5091 11.9779 15.541 11.3672C15.5638 10.9342 15.6914 10.5628 15.9238 10.2529C16.1654 9.92936 16.4889 9.71517 16.8945 9.61035C17.3594 9.49642 17.7103 9.31641 17.9473 9.07031C18.1706 8.83789 18.2731 8.56673 18.2549 8.25684C18.2412 8.00618 18.1182 7.79199 17.8857 7.61426C17.6624 7.4502 17.3685 7.33626 17.0039 7.27246C16.2109 7.13118 15.4089 7.23372 14.5977 7.58008C13.6725 7.97656 12.9707 8.6123 12.4922 9.4873C11.9863 10.4215 11.8063 11.513 11.9521 12.7617C12.1025 14.0514 12.5856 15.0814 13.4014 15.8516C14.1898 16.5944 15.1491 16.9772 16.2793 17C17.2409 17.0182 18.0225 16.7949 18.624 16.3301C19.221 15.8652 19.6084 15.1794 19.7861 14.2725C19.9092 13.6709 19.916 13.0648 19.8066 12.4541C19.6882 11.7751 19.4489 11.2601 19.0889 10.9092Z" fill="#888888"/>
</svg>
