<svg width="24" height="24" viewBox="0 0 24 24" fill="none" xmlns="http://www.w3.org/2000/svg">
<path d="M7.85645 6.19727L11.6367 16H10.2354L9.36719 13.7441H4.94434L4.07617 16H2.6748L6.45508 6.19727H7.85645ZM5.47754 12.3428H8.82715L7.15918 8.02246L5.47754 12.3428ZM13.1816 10.0664C13.1816 9.87956 13.2158 9.7041 13.2842 9.54004C13.3571 9.37598 13.4528 9.2347 13.5713 9.11621C13.6943 8.99316 13.8379 8.89746 14.002 8.8291C14.166 8.75618 14.3392 8.71973 14.5215 8.71973H16.9346C17.1123 8.71973 17.2809 8.75391 17.4404 8.82227C17.5999 8.88607 17.7389 8.97721 17.8574 9.0957C17.9805 9.20964 18.0785 9.34635 18.1514 9.50586C18.2288 9.66081 18.2699 9.82715 18.2744 10.0049V8.71973H19.6211V17.5928C19.6211 17.7796 19.5846 17.9551 19.5117 18.1191C19.4434 18.2832 19.3477 18.4245 19.2246 18.543C19.1061 18.666 18.9648 18.7617 18.8008 18.8301C18.6367 18.903 18.4613 18.9395 18.2744 18.9395H14.0225V17.5928H18.2744V15.7197H14.5215C14.3392 15.7197 14.166 15.6855 14.002 15.6172C13.8379 15.5443 13.6943 15.4486 13.5713 15.3301C13.4528 15.207 13.3571 15.0635 13.2842 14.8994C13.2158 14.7354 13.1816 14.5599 13.1816 14.373V10.0664ZM18.2744 14.373V10.0664H14.5215V14.373H18.2744Z" fill="#888888"/>
</svg>
