<svg width="24" height="24" viewBox="0 0 24 24" fill="none" xmlns="http://www.w3.org/2000/svg">
<path d="M7.86968 16.986L7.93968 15.992C8.25701 15.964 8.48101 15.936 8.61168 15.908C8.74235 15.88 8.83101 15.838 8.87768 15.782C8.92435 15.726 8.94768 15.6327 8.94768 15.502C8.94768 15.474 8.92901 15.348 8.89168 15.124L8.68168 14.284C8.19635 14.2653 7.79968 14.256 7.49168 14.256C7.27701 14.256 6.96435 14.2747 6.55368 14.312L6.24568 14.34L5.99368 15.208C5.94701 15.4133 5.92368 15.544 5.92368 15.6C5.92368 15.74 5.96101 15.838 6.03568 15.894C6.11968 15.9407 6.26901 15.964 6.48368 15.964H6.98768L7.07168 16.076L6.95968 17.07C6.81968 17.0607 6.52568 17.0467 6.07768 17.028C5.63901 17.0187 5.23768 17.014 4.87368 17.014L3.10968 17.028L3.20768 15.978C3.40368 15.9407 3.56701 15.8567 3.69768 15.726C3.82835 15.586 3.94035 15.3853 4.03368 15.124L6.41368 8.054L9.25568 7.83L9.43768 7.942C9.57768 8.49267 9.86235 9.60333 10.2917 11.274C10.7303 12.9447 11.0757 14.1953 11.3277 15.026C11.421 15.3527 11.5377 15.5907 11.6777 15.74C11.827 15.88 12.037 15.9593 12.3077 15.978L12.3917 16.104L12.2797 17.042C12.149 17.042 11.9063 17.0373 11.5517 17.028C11.2063 17.0187 10.8423 17.014 10.4597 17.014C9.93701 17.014 9.42368 17.0233 8.91968 17.042C8.41568 17.07 8.09368 17.0887 7.95368 17.098L7.86968 16.986ZM7.50568 12.912C7.55235 12.912 7.85568 12.898 8.41568 12.87L7.74368 10.042H7.50568L6.63768 12.912H7.50568ZM15.9307 17.112C14.8387 17.112 13.9801 16.804 13.3547 16.188C12.7387 15.572 12.4307 14.718 12.4307 13.626C12.4307 12.4127 12.7901 11.4793 13.5087 10.826C14.2367 10.1727 15.2681 9.846 16.6027 9.846C16.9201 9.846 17.2514 9.86933 17.5967 9.916C17.9421 9.95333 18.2314 9.99533 18.4647 10.042C18.7074 10.0793 18.8614 10.1073 18.9267 10.126L19.0387 10.322C19.0294 10.3687 19.0014 10.49 18.9547 10.686C18.9081 10.8727 18.8614 11.1247 18.8147 11.442C18.7681 11.7593 18.7354 12.1 18.7167 12.464L17.1487 12.548C17.1487 12.52 17.1534 12.4547 17.1627 12.352C17.1721 12.2493 17.1767 12.1187 17.1767 11.96C17.1767 11.68 17.1114 11.4887 16.9807 11.386C16.8594 11.274 16.6354 11.218 16.3087 11.218C15.7581 11.218 15.3661 11.372 15.1327 11.68C14.8994 11.988 14.7827 12.5107 14.7827 13.248C14.7827 14.088 14.8994 14.7133 15.1327 15.124C15.3754 15.5253 15.7441 15.726 16.2387 15.726C16.3881 15.726 16.5187 15.7167 16.6307 15.698C16.7427 15.67 16.8267 15.642 16.8827 15.614C16.9481 15.586 16.9901 15.5673 17.0087 15.558V14.788C17.0087 14.6013 16.9807 14.4753 16.9247 14.41C16.8687 14.3447 16.7614 14.312 16.6027 14.312L16.1547 14.326L16.0567 14.186L16.1967 13.22H17.9047C18.2221 13.22 18.5021 13.2153 18.7447 13.206C18.9874 13.1873 19.1461 13.1733 19.2207 13.164L19.3187 13.752C19.1507 13.8453 19.0294 13.9527 18.9547 14.074C18.8801 14.186 18.8287 14.354 18.8007 14.578C18.7727 14.802 18.7587 15.1567 18.7587 15.642C18.7587 16.0433 18.7867 16.356 18.8427 16.58L18.7167 16.748C18.6607 16.7667 18.5207 16.804 18.2967 16.86C18.0821 16.916 17.7647 16.972 17.3447 17.028C16.9341 17.084 16.4627 17.112 15.9307 17.112Z" fill="#888888"/>
</svg>
