<svg width="24" height="24" viewBox="0 0 24 24" fill="none" xmlns="http://www.w3.org/2000/svg">
<path d="M12.4787 16H10.5467L10.3227 14.824L10.0847 13.984L8.32073 13.942L6.76673 13.984L6.52873 14.726L6.29073 16H4.41473L7.46673 6.984H9.72073L12.4787 16ZM9.67873 12.514L8.61473 8.762H8.48873L7.25673 12.514L8.46073 12.542L9.67873 12.514ZM19.8093 10.372C19.5573 10.4373 19.1979 10.5073 18.7313 10.582L18.7033 10.638C18.8433 10.918 18.9133 11.2307 18.9133 11.576C18.9133 12.276 18.6566 12.836 18.1433 13.256C17.6393 13.6667 16.9533 13.872 16.0853 13.872C15.8239 13.872 15.5533 13.8487 15.2733 13.802C15.1893 13.886 15.1333 13.9513 15.1053 13.998C15.0773 14.0447 15.0633 14.1007 15.0633 14.166C15.0633 14.334 15.1753 14.4507 15.3993 14.516C15.6233 14.5813 15.9779 14.6467 16.4633 14.712C17.0139 14.7773 17.4713 14.8567 17.8353 14.95C18.2086 15.0433 18.5259 15.2067 18.7873 15.44C19.0579 15.6733 19.1933 16.0047 19.1933 16.434C19.1933 16.8727 19.0533 17.2647 18.7733 17.61C18.5026 17.9647 18.1246 18.24 17.6393 18.436C17.1539 18.632 16.6033 18.73 15.9873 18.73C15.1379 18.73 14.4846 18.5573 14.0273 18.212C13.5699 17.8667 13.3413 17.4093 13.3413 16.84C13.6306 16.4387 14.0179 16.0887 14.5033 15.79V15.72C14.1859 15.608 13.9386 15.454 13.7613 15.258C13.5839 15.0527 13.4953 14.782 13.4953 14.446C13.7473 14.138 14.0646 13.8533 14.4473 13.592V13.522C14.1113 13.3353 13.8546 13.0927 13.6773 12.794C13.5093 12.486 13.4253 12.1267 13.4253 11.716C13.4253 10.988 13.6773 10.4187 14.1813 10.008C14.6853 9.59733 15.3713 9.392 16.2393 9.392C16.7433 9.392 17.2006 9.476 17.6113 9.644C18.2833 9.52267 18.9693 9.336 19.6693 9.084L19.8093 9.21V10.372ZM16.1413 12.752C16.5239 12.752 16.8133 12.654 17.0093 12.458C17.2053 12.262 17.3033 11.9773 17.3033 11.604C17.3033 10.8947 16.9393 10.54 16.2113 10.54C15.4273 10.54 15.0353 10.8993 15.0353 11.618C15.0353 11.9913 15.1286 12.276 15.3153 12.472C15.5019 12.6587 15.7773 12.752 16.1413 12.752ZM17.6253 16.77C17.6253 16.518 17.4899 16.3453 17.2193 16.252C16.9579 16.1587 16.5519 16.0793 16.0013 16.014L15.5253 15.944C15.3013 16.0933 15.1333 16.238 15.0213 16.378C14.9093 16.518 14.8533 16.6673 14.8533 16.826C14.8533 17.0687 14.9653 17.2647 15.1893 17.414C15.4133 17.5633 15.7399 17.638 16.1693 17.638C16.6079 17.638 16.9579 17.5587 17.2193 17.4C17.4899 17.2507 17.6253 17.0407 17.6253 16.77Z" fill="#888888"/>
</svg>
