<svg width="24" height="24" viewBox="0 0 24 24" fill="none" xmlns="http://www.w3.org/2000/svg">
<path d="M8.86805 17.028L8.92405 16.342C9.40005 16.3047 9.71271 16.2533 9.86205 16.188C10.0207 16.1227 10.1 16.0013 10.1 15.824C10.1 15.656 10.0674 15.46 10.002 15.236L9.61005 13.92C9.37671 13.9107 8.91938 13.906 8.23805 13.906C7.78071 13.906 7.30005 13.9387 6.79605 14.004L6.34805 15.292C6.27338 15.5347 6.23605 15.698 6.23605 15.782C6.23605 15.9687 6.29205 16.104 6.40405 16.188C6.52538 16.2627 6.72138 16.3 6.99205 16.3H7.70605L7.74805 16.37L7.66405 17.084C7.54271 17.0747 7.27671 17.056 6.86605 17.028C6.45538 17.0093 6.05871 17 5.67605 17C5.31205 17 4.97605 17.0047 4.66805 17.014C4.36938 17.0233 4.16871 17.0327 4.06605 17.042L4.17805 16.272C4.42071 16.2347 4.61671 16.146 4.76605 16.006C4.91538 15.8567 5.05538 15.6047 5.18605 15.25L7.81805 8.124L9.27405 7.886L9.41405 7.928C9.47938 8.16133 9.62405 8.69333 9.84805 9.524C10.072 10.3547 10.3427 11.3207 10.66 12.422C10.9774 13.514 11.2714 14.4753 11.542 15.306C11.6447 15.6513 11.78 15.894 11.948 16.034C12.1254 16.1647 12.4007 16.2487 12.774 16.286L12.816 16.356L12.718 17.042C12.606 17.0327 12.3914 17.0233 12.074 17.014C11.766 17.0047 11.4534 17 11.136 17C10.66 17 10.2027 17.014 9.76405 17.042C9.32538 17.0793 9.04538 17.1073 8.92405 17.126L8.86805 17.028ZM8.21005 13.094C8.58338 13.094 8.97538 13.0753 9.38605 13.038L8.42005 9.622H8.28005L7.09005 13.094H8.21005ZM18.3116 11.232L18.2556 11.302C18.6289 11.7127 18.8156 12.184 18.8156 12.716C18.8156 13.1733 18.6896 13.5933 18.4376 13.976C18.1856 14.3493 17.8403 14.648 17.4016 14.872C16.9629 15.0867 16.4776 15.194 15.9456 15.194C15.6563 15.194 15.3716 15.1567 15.0916 15.082C14.7743 15.2967 14.6156 15.488 14.6156 15.656C14.6156 15.852 14.7556 15.992 15.0356 16.076C15.3156 16.1507 15.7589 16.2207 16.3656 16.286C16.9816 16.3607 17.4809 16.44 17.8636 16.524C18.2556 16.608 18.5916 16.7573 18.8716 16.972C19.1516 17.1773 19.2916 17.4713 19.2916 17.854C19.2916 18.274 19.1189 18.68 18.7736 19.072C18.4376 19.464 17.9943 19.7813 17.4436 20.024C16.8929 20.2667 16.3189 20.388 15.7216 20.388C15.0216 20.388 14.4663 20.2153 14.0556 19.87C13.6449 19.534 13.4396 19.072 13.4396 18.484C13.5609 18.3347 13.7476 18.1527 13.9996 17.938C14.2609 17.7233 14.5363 17.518 14.8256 17.322V17.238C14.3589 17.154 13.9996 16.9953 13.7476 16.762C13.4956 16.5193 13.3603 16.2113 13.3416 15.838C13.6963 15.4833 14.0836 15.1753 14.5036 14.914V14.844C14.1676 14.648 13.9063 14.396 13.7196 14.088C13.5423 13.7707 13.4536 13.4113 13.4536 13.01C13.4536 12.534 13.5749 12.1 13.8176 11.708C14.0603 11.316 14.3916 11.008 14.8116 10.784C15.2316 10.5507 15.6936 10.434 16.1976 10.434C16.4029 10.434 16.6736 10.462 17.0096 10.518C17.2429 10.5647 17.4389 10.588 17.5976 10.588C17.9989 10.5413 18.6476 10.392 19.5436 10.14L19.5996 10.21L19.4316 11.12L18.3116 11.232ZM16.2256 14.438C16.6176 14.438 16.9209 14.312 17.1356 14.06C17.3503 13.808 17.4576 13.4533 17.4576 12.996C17.4576 12.492 17.3269 12.086 17.0656 11.778C16.8136 11.4607 16.4729 11.302 16.0436 11.302C15.6609 11.302 15.3576 11.4327 15.1336 11.694C14.9189 11.946 14.8116 12.3053 14.8116 12.772C14.8116 13.276 14.9376 13.682 15.1896 13.99C15.4509 14.2887 15.7963 14.438 16.2256 14.438ZM15.5536 17.378C15.3296 17.546 15.1523 17.7327 15.0216 17.938C14.9003 18.1527 14.8396 18.3627 14.8396 18.568C14.8396 18.8667 14.9609 19.1047 15.2036 19.282C15.4556 19.4593 15.7963 19.548 16.2256 19.548C16.5523 19.548 16.8603 19.492 17.1496 19.38C17.4389 19.268 17.6676 19.1187 17.8356 18.932C18.0036 18.7453 18.0876 18.54 18.0876 18.316C18.0876 18.148 18.0223 18.0127 17.8916 17.91C17.7703 17.8167 17.5323 17.728 17.1776 17.644C16.8323 17.5693 16.2909 17.4807 15.5536 17.378Z" fill="#333333"/>
</svg>
