<svg width="24" height="24" viewBox="0 0 24 24" fill="none" xmlns="http://www.w3.org/2000/svg">
<path d="M7.99956 16.986L8.06956 15.992C8.3869 15.964 8.6109 15.936 8.74156 15.908C8.87223 15.88 8.9609 15.838 9.00756 15.782C9.05423 15.726 9.07756 15.6327 9.07756 15.502C9.07756 15.474 9.0589 15.348 9.02156 15.124L8.81156 14.284C8.32623 14.2653 7.92956 14.256 7.62156 14.256C7.4069 14.256 7.09423 14.2747 6.68356 14.312L6.37556 14.34L6.12356 15.208C6.0769 15.4133 6.05356 15.544 6.05356 15.6C6.05356 15.74 6.0909 15.838 6.16556 15.894C6.24956 15.9407 6.3989 15.964 6.61356 15.964H7.11756L7.20156 16.076L7.08956 17.07C6.94956 17.0607 6.65556 17.0467 6.20756 17.028C5.7689 17.0187 5.36756 17.014 5.00356 17.014L3.23956 17.028L3.33756 15.978C3.53356 15.9407 3.6969 15.8567 3.82756 15.726C3.95823 15.586 4.07023 15.3853 4.16356 15.124L6.54356 8.054L9.38556 7.83L9.56756 7.942C9.70756 8.49267 9.99223 9.60333 10.4216 11.274C10.8602 12.9447 11.2056 14.1953 11.4576 15.026C11.5509 15.3527 11.6676 15.5907 11.8076 15.74C11.9569 15.88 12.1669 15.9593 12.4376 15.978L12.5216 16.104L12.4096 17.042C12.2789 17.042 12.0362 17.0373 11.6816 17.028C11.3362 17.0187 10.9722 17.014 10.5896 17.014C10.0669 17.014 9.55356 17.0233 9.04956 17.042C8.54556 17.07 8.22356 17.0887 8.08356 17.098L7.99956 16.986ZM7.63556 12.912C7.68223 12.912 7.98556 12.898 8.54556 12.87L7.87356 10.042H7.63556L6.76756 12.912H7.63556ZM19.4297 11.218C19.0284 11.2647 18.711 11.288 18.4777 11.288L18.4217 11.372C18.7857 11.764 18.9677 12.2213 18.9677 12.744C18.9677 13.22 18.8324 13.6493 18.5617 14.032C18.3004 14.4053 17.9317 14.6993 17.4557 14.914C16.9797 15.1287 16.4384 15.236 15.8317 15.236C15.477 15.236 15.1644 15.2033 14.8937 15.138C14.7444 15.2873 14.6697 15.4087 14.6697 15.502C14.6697 15.67 14.805 15.7913 15.0757 15.866C15.3464 15.9313 15.7617 15.992 16.3217 16.048C16.947 16.104 17.4697 16.1787 17.8897 16.272C18.3097 16.356 18.669 16.5147 18.9677 16.748C19.2757 16.972 19.4297 17.294 19.4297 17.714C19.4297 18.1713 19.2477 18.6053 18.8837 19.016C18.5197 19.4267 18.039 19.758 17.4417 20.01C16.8537 20.262 16.2377 20.388 15.5937 20.388C14.8004 20.388 14.1564 20.2013 13.6617 19.828C13.1764 19.4547 12.9337 18.9647 12.9337 18.358C13.1577 18.1433 13.6244 17.84 14.3337 17.448V17.364C13.9137 17.28 13.5824 17.112 13.3397 16.86C13.1064 16.608 12.971 16.286 12.9337 15.894C13.2417 15.558 13.6244 15.236 14.0817 14.928V14.816C13.7457 14.62 13.4844 14.3587 13.2977 14.032C13.111 13.696 13.0177 13.318 13.0177 12.898C13.0177 12.394 13.1437 11.946 13.3957 11.554C13.657 11.1527 14.0164 10.8447 14.4737 10.63C14.9404 10.406 15.4677 10.294 16.0557 10.294C16.2144 10.294 16.5037 10.3173 16.9237 10.364C17.2037 10.4013 17.4044 10.42 17.5257 10.42C17.9084 10.4013 18.5757 10.238 19.5277 9.93L19.6117 10L19.4297 11.218ZM16.0417 14.144C16.6297 14.144 16.9237 13.724 16.9237 12.884C16.9237 12.4547 16.8397 12.1187 16.6717 11.876C16.5037 11.624 16.2564 11.498 15.9297 11.498C15.659 11.498 15.449 11.6007 15.2997 11.806C15.1597 12.002 15.0897 12.3287 15.0897 12.786C15.0897 13.206 15.1644 13.5373 15.3137 13.78C15.4724 14.0227 15.715 14.144 16.0417 14.144ZM15.3557 17.574C15.253 17.6767 15.1644 17.8027 15.0897 17.952C15.0244 18.1013 14.9917 18.246 14.9917 18.386C14.9917 18.638 15.0897 18.8293 15.2857 18.96C15.491 19.1 15.7804 19.17 16.1537 19.17C16.555 19.17 16.8817 19.0907 17.1337 18.932C17.3857 18.7733 17.5117 18.5633 17.5117 18.302C17.5117 18.1713 17.4604 18.0733 17.3577 18.008C17.2644 17.9427 17.073 17.8773 16.7837 17.812C16.5037 17.756 16.0277 17.6767 15.3557 17.574Z" fill="#333333"/>
</svg>
