<svg width="24" height="24" viewBox="0 0 24 24" fill="none" xmlns="http://www.w3.org/2000/svg">
<path d="M11.6348 16H10.2488L10.1508 15.006L9.9268 13.718L8.1208 13.676L6.4828 13.704L5.9228 14.95L5.5588 16H4.2008L8.3728 7.012H9.9828L11.6348 16ZM9.74481 12.584L9.03081 8.384H8.9188L7.0148 12.57L8.3588 12.598L9.74481 12.584ZM17.9845 9.518L17.2845 14.432L17.1865 15.44C17.0931 16.1213 16.8831 16.714 16.5565 17.218C16.2391 17.722 15.8425 18.1047 15.3665 18.366C14.8998 18.6367 14.3911 18.772 13.8405 18.772C13.2058 18.772 12.6831 18.59 12.2725 18.226C11.8618 17.8713 11.6005 17.3627 11.4885 16.7L11.5445 16.56L13.4905 15.468L13.5045 15.342C13.2898 15.1647 13.1311 14.9407 13.0285 14.67C12.9351 14.39 12.8885 14.0493 12.8885 13.648C12.8885 12.9947 13.0051 12.374 13.2385 11.786C13.4811 11.1887 13.8358 10.6847 14.3025 10.274C14.7785 9.854 15.3478 9.58333 16.0105 9.462H16.0805L17.0185 9.798L17.8305 9.434L17.9845 9.518ZM15.7585 10.484C15.2171 10.484 14.7971 10.736 14.4985 11.24C14.2091 11.744 14.0645 12.388 14.0645 13.172C14.0645 13.6107 14.1018 13.942 14.1765 14.166C14.2605 14.3807 14.3491 14.488 14.4425 14.488C14.5358 14.488 14.6945 14.3573 14.9185 14.096C15.1425 13.8253 15.4038 13.4427 15.7025 12.948C16.0011 12.4533 16.2998 11.8747 16.5985 11.212L16.6265 11.002L16.6405 10.834L15.7585 10.484ZM16.2905 13.354H16.1225C15.6091 14.3153 14.9885 15.0947 14.2605 15.692L13.0565 16.574C13.0005 16.63 12.9585 16.672 12.9305 16.7C12.9118 16.7373 12.9025 16.784 12.9025 16.84C12.9025 17.0827 13.0145 17.2973 13.2385 17.484C13.4718 17.68 13.7705 17.778 14.1345 17.778C14.6011 17.778 14.9978 17.6053 15.3245 17.26C15.6511 16.924 15.8611 16.4387 15.9545 15.804L16.2905 13.354Z" fill="#333333"/>
</svg>
