<svg width="24" height="24" viewBox="0 0 24 24" fill="none" xmlns="http://www.w3.org/2000/svg">
<path d="M13.4931 15.468C13.6798 15.4773 13.7638 15.5613 13.7451 15.72L13.7031 16H10.6231L10.6651 15.72C10.6838 15.5613 10.7865 15.4773 10.9731 15.468L11.7991 15.44L11.7711 15.356L11.0431 12.752H6.31113L4.95313 15.356L4.91113 15.44L5.76513 15.468C5.9518 15.4773 6.0358 15.5613 6.01713 15.72L5.97513 16H2.89513L2.93713 15.72C2.9558 15.5613 3.05847 15.4773 3.24513 15.468L4.14113 15.44H4.16913L4.21113 15.356L9.13913 6.088H9.85313L12.4991 15.356L12.5271 15.44H12.5971L13.4931 15.468ZM10.8891 12.22L9.53113 7.39C9.5218 7.32467 9.50313 7.24067 9.47513 7.138C9.44713 7.03533 9.4238 6.928 9.40513 6.816C9.3678 6.928 9.27913 7.124 9.13913 7.404L6.60513 12.22H10.8891ZM20.6458 9.266L20.6178 9.49C20.6178 9.52733 20.5992 9.56467 20.5618 9.602C20.5245 9.63933 20.4778 9.66733 20.4218 9.686L19.2878 9.77C19.3718 9.91933 19.4372 10.092 19.4838 10.288C19.5305 10.484 19.5538 10.666 19.5538 10.834C19.5538 11.2167 19.4838 11.5573 19.3438 11.856C19.2038 12.1453 18.9565 12.542 18.6018 13.046C18.5178 13.1767 18.4432 13.3307 18.3778 13.508C18.3125 13.676 18.2798 13.8253 18.2798 13.956C18.2798 14.1333 18.3265 14.306 18.4198 14.474C18.5225 14.642 18.6625 14.8287 18.8398 15.034C19.2132 15.454 19.3998 15.8787 19.3998 16.308C19.3998 16.756 19.2505 17.1527 18.9518 17.498C18.6532 17.8433 18.2658 18.1093 17.7898 18.296C17.3138 18.4827 16.8192 18.576 16.3058 18.576C15.5965 18.576 14.9992 18.436 14.5138 18.156C14.0378 17.876 13.7998 17.4653 13.7998 16.924C13.7998 16.4667 13.9585 16.0793 14.2758 15.762C14.5932 15.4447 15.0038 15.2113 15.5078 15.062C16.0118 14.9033 16.5485 14.824 17.1178 14.824C17.2672 14.824 17.4352 14.8333 17.6218 14.852C17.8178 14.8707 17.9672 14.8847 18.0698 14.894C17.8832 14.642 17.7898 14.3947 17.7898 14.152C17.7898 13.956 17.8225 13.774 17.8878 13.606C17.9625 13.4287 18.0652 13.2373 18.1958 13.032C17.9718 13.1813 17.7618 13.2887 17.5658 13.354C17.3698 13.41 17.1458 13.438 16.8938 13.438C16.3152 13.438 15.8578 13.2607 15.5218 12.906C15.1952 12.5513 15.0318 12.08 15.0318 11.492C15.0318 11.016 15.1392 10.582 15.3538 10.19C15.5778 9.798 15.8858 9.49 16.2778 9.266C16.6698 9.03267 17.1085 8.916 17.5938 8.916C18.0605 8.916 18.4712 9.03267 18.8258 9.266H20.6458ZM17.0478 13.004C17.4212 13.004 17.7525 12.906 18.0418 12.71C18.3312 12.514 18.5552 12.2527 18.7138 11.926C18.8725 11.59 18.9518 11.2307 18.9518 10.848C18.9518 10.3813 18.8258 10.022 18.5738 9.77C18.3312 9.518 17.9812 9.392 17.5238 9.392C17.1692 9.392 16.8472 9.49 16.5578 9.686C16.2685 9.87267 16.0445 10.1293 15.8858 10.456C15.7272 10.7733 15.6478 11.1187 15.6478 11.492C15.6478 11.9773 15.7692 12.3507 16.0118 12.612C16.2545 12.8733 16.5998 13.004 17.0478 13.004ZM18.4198 15.328C18.3078 15.3093 18.1118 15.2907 17.8318 15.272C17.5612 15.244 17.3418 15.23 17.1738 15.23C16.4458 15.23 15.8065 15.37 15.2558 15.65C14.7052 15.93 14.4298 16.3267 14.4298 16.84C14.4298 17.2787 14.6118 17.596 14.9758 17.792C15.3492 17.9973 15.8112 18.1 16.3618 18.1C16.7725 18.1 17.1645 18.0207 17.5378 17.862C17.9112 17.7127 18.2145 17.5027 18.4478 17.232C18.6812 16.9707 18.7978 16.6767 18.7978 16.35C18.7978 16.1447 18.7652 15.9673 18.6998 15.818C18.6345 15.6593 18.5412 15.496 18.4198 15.328Z" fill="#333333"/>
</svg>
