<svg width="24" height="24" viewBox="0 0 24 24" fill="none" xmlns="http://www.w3.org/2000/svg">
<path d="M12.8362 15.468C12.9296 15.4773 12.9949 15.5007 13.0322 15.538C13.0789 15.5753 13.1022 15.636 13.1022 15.72V16H10.4282V15.72C10.4282 15.636 10.4469 15.5753 10.4842 15.538C10.5309 15.5007 10.6009 15.4773 10.6942 15.468L11.3522 15.454L10.3022 12.752H5.51423L4.46423 15.44L5.16423 15.468C5.25757 15.4773 5.3229 15.5007 5.36023 15.538C5.4069 15.5753 5.43023 15.636 5.43023 15.72V16H2.75623V15.72C2.75623 15.636 2.7749 15.5753 2.81223 15.538C2.8589 15.5007 2.9289 15.4773 3.02223 15.468L3.69423 15.44L7.53023 6.088H8.28623L12.1222 15.44L12.8362 15.468ZM10.0782 12.22L8.13223 7.404L7.90823 6.774L7.68423 7.404L5.73823 12.22H10.0782ZM16.623 8.916C16.903 8.916 17.1783 8.95333 17.449 9.028C17.7197 9.10267 17.9577 9.20533 18.163 9.336H19.955V9.574C19.955 9.67667 19.8897 9.73733 19.759 9.756L18.695 9.84C18.8443 10.0453 18.947 10.2553 19.003 10.47C19.0683 10.6753 19.101 10.904 19.101 11.156C19.101 11.8373 18.8677 12.3787 18.401 12.78C17.9437 13.172 17.351 13.368 16.623 13.368C16.1843 13.368 15.8203 13.312 15.531 13.2C15.3443 13.3027 15.1903 13.4287 15.069 13.578C14.957 13.7273 14.901 13.8813 14.901 14.04C14.901 14.2733 14.9943 14.446 15.181 14.558C15.3677 14.67 15.615 14.7447 15.923 14.782C16.231 14.8193 16.7117 14.852 17.365 14.88C18.177 14.9173 18.7883 15.0387 19.199 15.244C19.6097 15.4493 19.815 15.8273 19.815 16.378C19.815 16.826 19.6657 17.218 19.367 17.554C19.0777 17.89 18.6903 18.1467 18.205 18.324C17.7197 18.5107 17.211 18.604 16.679 18.604C15.867 18.604 15.167 18.4407 14.579 18.114C14.0003 17.7873 13.711 17.3253 13.711 16.728C13.711 16.3453 13.837 16.0233 14.089 15.762C14.341 15.5007 14.6723 15.3 15.083 15.16C14.803 15.0667 14.607 14.9453 14.495 14.796C14.383 14.6467 14.327 14.4507 14.327 14.208C14.327 13.9747 14.4157 13.7507 14.593 13.536C14.7703 13.312 14.9663 13.144 15.181 13.032C14.845 12.836 14.5837 12.5747 14.397 12.248C14.2197 11.9213 14.131 11.5573 14.131 11.156C14.131 10.4653 14.369 9.91933 14.845 9.518C15.321 9.11667 15.9137 8.916 16.623 8.916ZM16.623 12.92C17.1923 12.92 17.645 12.766 17.981 12.458C18.3263 12.1407 18.499 11.7067 18.499 11.156C18.499 10.624 18.3263 10.1993 17.981 9.882C17.6357 9.56467 17.183 9.406 16.623 9.406C16.0537 9.406 15.5963 9.56467 15.251 9.882C14.915 10.19 14.747 10.6193 14.747 11.17C14.747 11.7113 14.915 12.1407 15.251 12.458C15.5963 12.766 16.0537 12.92 16.623 12.92ZM19.213 16.476C19.213 16.0653 19.0263 15.7947 18.653 15.664C18.289 15.5333 17.7803 15.4493 17.127 15.412C16.3897 15.384 15.8623 15.342 15.545 15.286C15.153 15.4353 14.8497 15.6267 14.635 15.86C14.4203 16.0933 14.313 16.3593 14.313 16.658C14.313 17.1527 14.5557 17.5167 15.041 17.75C15.5263 17.9833 16.077 18.1 16.693 18.1C17.3837 18.1 17.9763 17.9507 18.471 17.652C18.9657 17.3627 19.213 16.9707 19.213 16.476Z" fill="#333333"/>
</svg>
