<svg width="24" height="24" viewBox="0 0 24 24" fill="none" xmlns="http://www.w3.org/2000/svg">
<path d="M15.5165 10.996L16.8745 10.968C17.2105 10.968 17.3785 10.9913 17.3785 11.038C17.3785 11.1593 16.6971 11.2667 15.3345 11.36C14.4665 13.0587 14.0325 14.216 14.0325 14.832C14.0325 15.2613 14.1678 15.476 14.4385 15.476C14.5411 15.476 14.6671 15.4107 14.8165 15.28C14.9751 15.1587 15.0685 15.098 15.0965 15.098C15.1338 15.098 15.1525 15.1213 15.1525 15.168C15.1058 15.336 14.9611 15.476 14.7185 15.588C14.4851 15.7 14.2845 15.756 14.1165 15.756C13.9578 15.756 13.8318 15.7467 13.7385 15.728C13.5145 15.644 13.4025 15.3733 13.4025 14.916C13.4025 13.9733 13.7618 12.774 14.4805 11.318L12.8005 11.36C11.5498 12.5827 10.2945 13.656 9.03446 14.58C7.14913 15.952 5.67446 16.638 4.61046 16.638C4.54513 16.638 4.47979 16.6333 4.41446 16.624C2.97713 16.5027 2.25846 15.7653 2.25846 14.412C2.25846 13.6093 2.51046 12.76 3.01446 11.864C3.68646 10.6693 4.60579 9.652 5.77246 8.812C6.93913 7.96267 7.98446 7.538 8.90846 7.538C9.83246 7.538 10.2945 7.87867 10.2945 8.56C10.2945 9.01733 10.1545 9.526 9.87446 10.086C9.59446 10.646 9.30979 11.0007 9.02046 11.15C8.99246 11.1593 8.95979 11.164 8.92246 11.164C8.89446 11.164 8.88046 11.1547 8.88046 11.136L9.34246 10.38C9.65979 9.88533 9.81846 9.45133 9.81846 9.078C9.81846 8.70467 9.73446 8.406 9.56646 8.182C9.40779 7.94867 9.15113 7.832 8.79646 7.832C8.06846 7.832 7.19579 8.238 6.17846 9.05C5.17046 9.862 4.40046 10.8607 3.86846 12.046C3.34579 13.2313 3.08446 14.1553 3.08446 14.818C3.08446 15.8167 3.59313 16.316 4.61046 16.316C5.58113 16.316 6.89713 15.6907 8.55846 14.44C9.29579 13.8893 10.4951 12.8487 12.1565 11.318C11.8298 11.3367 11.5265 11.3693 11.2465 11.416C10.6491 11.528 10.3691 11.5093 10.4065 11.36C10.4438 11.0147 10.6211 10.842 10.9385 10.842C11.5545 10.9167 12.0725 10.954 12.4925 10.954C13.2951 10.2167 14.4945 9.008 16.0905 7.328C17.1638 6.19867 17.8171 5.634 18.0505 5.634C18.1531 5.634 18.2045 5.71333 18.2045 5.872C18.2045 6.03067 18.1625 6.278 18.0785 6.614C17.9945 6.95 17.9011 7.15533 17.7985 7.23C17.5838 7.37933 17.3831 7.58467 17.1965 7.846C17.0098 8.098 16.7438 8.57867 16.3985 9.288C16.0531 9.988 15.7591 10.5573 15.5165 10.996ZM16.6365 7.58L13.0525 10.94H13.8785C14.0745 10.9493 14.3171 10.954 14.6065 10.954C14.8771 10.422 15.5538 9.29733 16.6365 7.58ZM21.2219 10.73L21.4179 10.688C21.5392 10.688 21.6326 10.7253 21.6979 10.8C21.7726 10.8747 21.8099 10.9353 21.8099 10.982C21.8099 11.0193 21.8052 11.066 21.7959 11.122C21.7866 11.1687 21.6512 11.402 21.3899 11.822C21.0632 12.3913 20.7926 12.872 20.5779 13.264C19.8219 14.6733 19.2432 15.6393 18.8419 16.162C17.9832 17.3007 17.1666 17.87 16.3919 17.87C16.1212 17.87 15.8879 17.7533 15.6919 17.52C15.4866 17.296 15.3792 17.044 15.3699 16.764C15.3979 16.652 15.4399 16.596 15.4959 16.596C15.5239 16.596 15.5472 16.6287 15.5659 16.694C15.6126 16.9367 15.7012 17.1233 15.8319 17.254C15.9626 17.3847 16.0932 17.45 16.2239 17.45C16.7559 17.45 17.3252 17.1 17.9319 16.4C18.3332 15.9333 18.7766 15.252 19.2619 14.356L19.9619 12.97L18.9119 14.034C18.2399 14.678 17.7779 15 17.5259 15C17.2832 15 17.0499 14.916 16.8259 14.748C16.5739 14.5613 16.4479 14.314 16.4479 14.006C16.4479 13.3247 16.9239 12.5127 17.8759 11.57C18.8372 10.6273 19.7099 10.156 20.4939 10.156C20.8112 10.156 21.0166 10.2587 21.1099 10.464C21.1379 10.5387 21.1612 10.604 21.1799 10.66C21.1986 10.7067 21.2126 10.73 21.2219 10.73ZM17.0359 14.174C17.0359 14.51 17.1526 14.678 17.3859 14.678C17.9272 14.678 18.6646 14.0853 19.5979 12.9L21.0819 10.856C21.0259 10.7253 20.9092 10.66 20.7319 10.66C20.1532 10.66 19.3926 11.108 18.4499 12.004C17.5072 12.8907 17.0359 13.614 17.0359 14.174Z" fill="#333333"/>
</svg>
