<svg width="24" height="24" viewBox="0 0 24 24" fill="none" xmlns="http://www.w3.org/2000/svg">
<path d="M8.04102 7.66895L7.33008 8.47559L8.45117 11.4561L8.72461 11.3057L7.71289 8.6123L8.4375 7.77832L8.61523 7.85352L7.9248 8.65332L8.88184 11.2031C8.93652 11.1621 8.96842 11.137 8.97754 11.1279L9.20312 10.9365C9.33984 10.8271 9.42643 10.7497 9.46289 10.7041C9.58138 11.2236 9.76367 11.6885 10.0098 12.0986C9.8776 12.0895 9.7819 12.085 9.72266 12.085C9.28971 12.085 8.97298 12.1533 8.77246 12.29L10.0098 15.6465L11.0352 16.4395H7.58301L8.52637 15.6465L7.76758 13.6504C7.26628 14.1562 6.88118 14.637 6.6123 15.0928L6.45508 15.0518C6.72396 14.6051 7.125 14.1061 7.6582 13.5547L7.71289 13.4863L7.58301 13.1855C7.04069 13.6367 6.5918 14.1608 6.23633 14.7578L6.11328 14.5596C5.8763 14.1813 5.57324 13.7507 5.2041 13.2676L5.13574 13.1855C4.78483 13.9648 4.60938 14.5983 4.60938 15.0859C4.60938 15.373 4.65723 15.6169 4.75293 15.8174C4.85319 16.0133 5.09017 16.3438 5.46387 16.8086C5.49577 16.8496 5.5459 16.9134 5.61426 17H1.92285L1.78613 16.8154H5.26562L5.14941 16.6719C4.84863 16.3073 4.65039 16.0247 4.55469 15.8242C4.46354 15.6191 4.41797 15.3799 4.41797 15.1064C4.41797 14.6416 4.6071 13.9489 4.98535 13.0283L4.68457 12.7139C4.62533 12.8597 4.55013 13.0739 4.45898 13.3564L4.2334 14.0537C4.11035 14.4274 4.04883 14.7373 4.04883 14.9834C4.04883 15.2386 4.09212 15.4505 4.17871 15.6191C4.2653 15.7878 4.44759 16.0179 4.72559 16.3096C4.75293 16.3369 4.79395 16.3802 4.84863 16.4395H1.43066C2.08236 16.1022 2.59733 15.6488 2.97559 15.0791C3.3584 14.5094 3.73665 13.6299 4.11035 12.4404L4.1377 12.3447C3.89616 12.1396 3.54753 12.0143 3.0918 11.9688C3.34245 11.5951 3.53613 11.2054 3.67285 10.7998C3.73665 10.859 3.77539 10.8955 3.78906 10.9092L4.09668 11.1963C4.2015 11.2965 4.32682 11.3991 4.47266 11.5039L4.5957 11.2031L4.51367 11.1348C4.28581 10.9342 4.0944 10.7725 3.93945 10.6494L3.87793 10.6016L3.9873 10.4512C4.22884 10.6107 4.46126 10.7952 4.68457 11.0049L5.61426 8.44824L4.88965 7.66895H8.04102ZM6.35254 9.86328L5.60059 11.8457C5.6416 11.8913 5.66439 11.9186 5.66895 11.9277L5.94922 12.2422C6.09961 12.4062 6.29102 12.6615 6.52344 13.0078L6.5918 13.1104C6.78776 12.8643 7.02018 12.6204 7.28906 12.3789L6.35254 9.86328ZM6.04492 9.07031L4.95801 11.9414C5.30436 12.2969 5.60286 12.6478 5.85352 12.9941L6.16797 13.4316C6.17253 13.4362 6.19531 13.4658 6.23633 13.5205C6.27734 13.4795 6.30013 13.4544 6.30469 13.4453L6.40039 13.3291C6.41406 13.3109 6.43913 13.2812 6.47559 13.2402C6.15658 12.748 5.78516 12.3037 5.36133 11.9072L6.23633 9.59668L6.04492 9.07031ZM10.0645 11.0322C10.1647 11.4424 10.4154 12.0052 10.8164 12.7207C10.7161 12.707 10.6592 12.7002 10.6455 12.7002L10.0918 12.6523C9.84115 12.6296 9.65885 12.6182 9.54492 12.6182C9.52669 12.6182 9.48112 12.6204 9.4082 12.625L10.5498 15.6533L12.0742 17H8.11621L7.98633 16.8154H11.6162L10.3857 15.7285L9.16895 12.5088C9.32389 12.4678 9.50163 12.4473 9.70215 12.4473C9.94824 12.4473 10.2217 12.4678 10.5225 12.5088L10.4404 12.3584C10.1488 11.8206 9.9528 11.3353 9.85254 10.9023L10.0645 11.0322ZM20.0381 7.9082L18.7598 10.4238C18.6777 9.70833 18.4521 9.16146 18.083 8.7832C17.7184 8.40495 17.2354 8.21582 16.6338 8.21582C15.777 8.21582 15.1094 8.5485 14.6309 9.21387C14.1569 9.87923 13.9199 10.8112 13.9199 12.0098C13.9199 14.6484 15 15.9678 17.1602 15.9678H18.2607V12.4199H16.5381C16.1644 12.4199 15.8955 12.3994 15.7314 12.3584C15.5719 12.3174 15.417 12.2285 15.2666 12.0918V11.9209C15.4307 12.0439 15.5947 12.126 15.7588 12.167C15.9229 12.2035 16.1895 12.2217 16.5586 12.2217H18.2607V11.8525H16.3604H16.0527C15.3737 11.8525 15.0342 11.6064 15.0342 11.1143C15.0342 10.9229 15.0911 10.7588 15.2051 10.6221C15.319 10.4854 15.4557 10.417 15.6152 10.417C15.7337 10.417 15.8363 10.4603 15.9229 10.5469C16.014 10.6335 16.0596 10.736 16.0596 10.8545C16.0596 11.055 15.9867 11.1712 15.8408 11.2031L15.6768 11.2373C15.6221 11.251 15.5947 11.2738 15.5947 11.3057C15.5947 11.3649 15.6699 11.3945 15.8203 11.3945H16.0527H20.5645L19.6211 12.3174V15.6875L20.4961 16.4395H17.0029H16.3125C15.7337 16.4395 15.2552 16.3688 14.877 16.2275C14.4987 16.0863 14.1159 15.8356 13.7285 15.4756C12.8125 14.637 12.3545 13.5137 12.3545 12.1055C12.3545 10.6517 12.7874 9.51693 13.6533 8.70117C14.4098 7.98568 15.3076 7.62793 16.3467 7.62793C16.8115 7.62793 17.3447 7.70996 17.9463 7.87402C18.5615 8.04264 18.9671 8.12695 19.1631 8.12695C19.4502 8.12695 19.7419 8.05404 20.0381 7.9082ZM20.4482 8.33887L19.2793 10.6357L19.1152 10.5605L20.291 8.25684L20.4482 8.33887ZM18.2607 9.37793L18.1377 9.28906C17.6182 8.91992 17.1442 8.73535 16.7158 8.73535C16.1963 8.73535 15.7474 8.91992 15.3691 9.28906C15.0957 9.5625 14.8975 9.92025 14.7744 10.3623C14.6559 10.8044 14.5967 11.3877 14.5967 12.1123C14.5967 13.0329 14.6878 13.737 14.8701 14.2246C15.0524 14.7122 15.3874 15.152 15.875 15.5439V15.6191C15.3464 15.3047 14.9658 14.8626 14.7334 14.293C14.501 13.7188 14.3848 12.9417 14.3848 11.9619C14.3848 10.8818 14.5876 10.0433 14.9932 9.44629C15.3988 8.84473 15.9684 8.54395 16.7021 8.54395C17.3402 8.54395 17.8597 8.80827 18.2607 9.33691V9.37793ZM20.8584 11.7842L20.1543 12.4883V15.6943L21.2891 17L18.5752 16.9795L16.1143 17.0068C15.9593 17.0068 15.8408 17.0023 15.7588 16.9932C15.4717 16.9613 15.1823 16.8359 14.8906 16.6172H15.0342C15.3441 16.7539 15.7679 16.8223 16.3057 16.8223L16.6475 16.8154H20.9062L19.9629 15.7695V12.4199L20.749 11.627L20.8584 11.7842Z" fill="#333333"/>
</svg>
