<svg width="24" height="24" viewBox="0 0 24 24" fill="none" xmlns="http://www.w3.org/2000/svg">
<path d="M3.00391 18L6.53125 7.9375H8.1582L11.6582 18H9.96289L9.23828 15.9082H5.45117L4.71289 18H3.00391ZM5.83398 14.8008H8.8418L7.35156 10.4531L5.83398 14.8008ZM15.2676 18.998C15.3587 19.153 15.4727 19.2806 15.6094 19.3809C15.7552 19.4811 15.901 19.5586 16.0469 19.6133C16.2018 19.668 16.3522 19.7044 16.498 19.7227C16.653 19.75 16.7897 19.7637 16.9082 19.7637C17.4733 19.7637 17.9154 19.5996 18.2344 19.2715C18.5534 18.9434 18.7129 18.3828 18.7129 17.5898V17.2344V17.207L18.7266 17.1387C18.7266 17.1296 18.722 17.1204 18.7129 17.1113C18.7129 17.1022 18.7129 17.0931 18.7129 17.084C18.6855 17.2025 18.6035 17.321 18.4668 17.4395C18.3392 17.5579 18.1751 17.6673 17.9746 17.7676C17.7741 17.8587 17.5462 17.9316 17.291 17.9863C17.0358 18.041 16.7715 18.0684 16.498 18.0684C15.9876 18.0684 15.541 17.959 15.1582 17.7402C14.7754 17.5124 14.4564 17.2116 14.2012 16.8379C13.946 16.4642 13.7591 16.0358 13.6406 15.5527C13.5221 15.0697 13.4629 14.5638 13.4629 14.0352C13.4629 13.3242 13.5586 12.7272 13.75 12.2441C13.9505 11.7611 14.2012 11.3691 14.502 11.0684C14.8118 10.7585 15.1536 10.5397 15.5273 10.4121C15.9102 10.2845 16.2839 10.2207 16.6484 10.2207C17.0951 10.2207 17.5007 10.2982 17.8652 10.4531C18.2389 10.6081 18.5215 10.8132 18.7129 11.0684L18.8906 10.2891H20.3672L20.3535 18C20.3171 18.556 20.2031 19.0299 20.0117 19.4219C19.8294 19.8138 19.5924 20.1374 19.3008 20.3926C19.0091 20.6478 18.6719 20.8301 18.2891 20.9395C17.9062 21.0488 17.4961 21.1035 17.0586 21.1035C16.5482 21.1035 16.0423 21.0124 15.541 20.8301C15.0488 20.6569 14.6387 20.3607 14.3105 19.9414L15.2676 18.998ZM18.8223 14.0898C18.8223 13.7253 18.7767 13.388 18.6855 13.0781C18.5944 12.7682 18.4714 12.4948 18.3164 12.2578C18.1615 12.0208 17.9701 11.834 17.7422 11.6973C17.5143 11.5605 17.2682 11.4922 17.0039 11.4922C16.7305 11.4922 16.4798 11.5651 16.252 11.7109C16.0332 11.8477 15.8464 12.0345 15.6914 12.2715C15.5365 12.5085 15.418 12.7865 15.3359 13.1055C15.2539 13.4245 15.2129 13.7617 15.2129 14.1172C15.2129 14.4818 15.2539 14.8281 15.3359 15.1562C15.4271 15.4753 15.5501 15.7533 15.7051 15.9902C15.8691 16.2272 16.0605 16.4186 16.2793 16.5645C16.5072 16.7012 16.7578 16.7695 17.0312 16.7695C17.3138 16.7695 17.5645 16.7012 17.7832 16.5645C18.002 16.4186 18.1842 16.2272 18.3301 15.9902C18.485 15.7441 18.6035 15.457 18.6855 15.1289C18.7767 14.8008 18.8223 14.4544 18.8223 14.0898Z" fill="#333333"/>
</svg>
