<svg width="24" height="24" viewBox="0 0 24 24" fill="none" xmlns="http://www.w3.org/2000/svg">
<path d="M5.66106 6.732C6.72506 6.83467 7.83573 6.886 8.99306 6.886C10.1504 6.886 11.2611 6.83467 12.3251 6.732L12.3811 7.082C11.9611 7.21267 11.5131 7.31067 11.0371 7.376C10.9157 8.272 10.8551 9.63 10.8551 11.45C10.8551 13.2607 10.9157 14.614 11.0371 15.51C11.5317 15.5567 12.0451 15.6453 12.5771 15.776L12.5351 16.112C11.8444 16.0373 11.0931 16 10.2811 16C9.4784 16 8.82973 16.0373 8.33506 16.112L8.27906 15.762C8.69906 15.6313 9.14706 15.5333 9.62306 15.468C9.69773 14.852 9.74906 13.858 9.77706 12.486C9.29173 12.43 8.75506 12.402 8.16706 12.402C7.5884 12.402 7.0984 12.43 6.69706 12.486C6.47306 13.4007 6.36106 14.1333 6.36106 14.684C6.36106 15.2347 6.56173 15.6267 6.96306 15.86L6.90706 16.056C6.61773 16.0187 6.12773 16 5.43706 16C4.75573 16 4.13973 16.0373 3.58906 16.112L3.53306 15.762C3.95306 15.6313 4.40106 15.5333 4.87706 15.468L7.17306 7.334C6.6504 7.278 6.1324 7.18933 5.61906 7.068L5.66106 6.732ZM6.85106 11.786C7.27106 11.8513 7.76573 11.884 8.33506 11.884C8.91373 11.884 9.3944 11.8513 9.77706 11.786C9.77706 9.52733 9.7304 8.08067 9.63706 7.446C9.34773 7.418 9.0584 7.404 8.76906 7.404C8.48906 7.404 8.19973 7.418 7.90106 7.446L6.85106 11.786ZM13.4119 13.41C13.4119 12.458 13.6639 11.5947 14.1679 10.82C14.6719 10.036 15.3579 9.49933 16.2259 9.21C16.8513 9.21 17.5046 9.308 18.1859 9.504C18.5966 9.42 18.9559 9.33133 19.2639 9.238L19.3339 9.49C19.1566 9.63 18.9373 9.76533 18.6759 9.896C18.5546 11.0253 18.4939 12.2293 18.4939 13.508C18.4939 14.7773 18.5266 15.7667 18.5919 16.476C18.3866 16.9893 17.9993 17.4933 17.4299 17.988C16.8606 18.492 16.2959 18.8327 15.7359 19.01C14.8679 19.01 14.0373 18.8653 13.2439 18.576V18.31C13.4213 17.6847 13.9439 16.9053 14.8119 15.972V15.916C14.3826 15.7947 14.0419 15.482 13.7899 14.978C13.5379 14.4647 13.4119 13.942 13.4119 13.41ZM14.5319 12.794C14.5319 13.2327 14.6113 13.6853 14.7699 14.152C14.9379 14.6187 15.1713 14.852 15.4699 14.852C15.7779 14.852 16.1559 14.6093 16.6039 14.124C17.0613 13.6293 17.3646 13.2 17.5139 12.836C17.5139 11.6133 17.4813 10.806 17.4159 10.414C16.9213 10.19 16.4499 10.078 16.0019 10.078C15.5539 10.078 15.2039 10.19 14.9519 10.414C14.6719 11.0953 14.5319 11.8887 14.5319 12.794ZM16.0719 18.142C16.4826 18.142 16.8046 18.03 17.0379 17.806C17.2526 17.246 17.3833 16.7047 17.4299 16.182C17.4859 15.6593 17.5139 14.8053 17.5139 13.62L17.4579 13.606C17.2059 14.138 16.7486 14.6933 16.0859 15.272C15.8246 15.496 15.5726 15.7293 15.3299 15.972C14.7419 16.56 14.4153 17.1527 14.3499 17.75C14.8633 18.0113 15.4373 18.142 16.0719 18.142Z" fill="#333333"/>
</svg>
