<svg width="24" height="24" viewBox="0 0 24 24" fill="none" xmlns="http://www.w3.org/2000/svg">
<path d="M5.67578 14.7861C5.6849 14.6038 5.73275 14.4967 5.81934 14.4648C5.82845 14.4603 5.9515 14.3828 6.18848 14.2324C7.38704 13.4349 8.41243 12.4984 9.26465 11.4229C9.0778 11.3545 8.92741 11.2725 8.81348 11.1768C8.7041 11.0811 8.64941 10.9535 8.64941 10.7939C8.64941 10.598 8.68359 10.5 8.75195 10.5C8.77474 10.5091 8.83398 10.5479 8.92969 10.6162C9.02539 10.68 9.08919 10.721 9.12109 10.7393C9.28971 10.8441 9.44694 10.9375 9.59277 11.0195C9.77962 10.7689 10.2923 10.0443 11.1309 8.8457L11.3086 8.59277C11.7415 8.00033 12.1562 7.5446 12.5527 7.22559C12.9538 6.90202 13.3685 6.74023 13.7969 6.74023C13.9564 6.74023 14.0361 6.79036 14.0361 6.89062C14.0361 7.05013 13.9906 7.18457 13.8994 7.29395C13.8128 7.2666 13.7217 7.25293 13.626 7.25293C12.9834 7.25293 12.2474 7.87044 11.418 9.10547C11.3086 9.26497 11.1582 9.49056 10.9668 9.78223C10.7754 10.0739 10.5999 10.3382 10.4404 10.5752C10.2809 10.8076 10.1283 11.0195 9.98242 11.2109C10.0736 11.252 10.1898 11.2975 10.3311 11.3477C11.0967 11.612 11.7803 11.7646 12.3818 11.8057C12.6735 11.1221 12.972 10.2767 13.2773 9.26953C13.3366 9.07357 13.4232 8.91178 13.5371 8.78418C13.651 8.65658 13.7718 8.59277 13.8994 8.59277C13.9085 8.59277 13.9222 8.59277 13.9404 8.59277C13.9587 8.59277 13.9678 8.59277 13.9678 8.59277C13.9723 8.59277 13.9792 8.59505 13.9883 8.59961C13.9974 8.60417 14.002 8.61328 14.002 8.62695C14.002 8.63607 14.002 8.64974 14.002 8.66797C14.002 8.6862 13.9814 8.73405 13.9404 8.81152C13.8994 8.88444 13.8516 8.97103 13.7969 9.07129C13.7422 9.17155 13.7057 9.2513 13.6875 9.31055C13.5371 9.73438 13.3708 10.2174 13.1885 10.7598C13.0107 11.3021 12.8877 11.6598 12.8193 11.833C12.9743 11.8376 13.1908 11.8398 13.4688 11.8398H13.626C13.626 11.9492 13.585 12.0199 13.5029 12.0518C13.4209 12.0791 13.2887 12.0928 13.1064 12.0928H12.7168C12.7077 12.1156 12.6758 12.193 12.6211 12.3252C12.571 12.4574 12.5368 12.5417 12.5186 12.5781C12.5049 12.6146 12.473 12.6943 12.4229 12.8174C12.3727 12.9404 12.3363 13.027 12.3135 13.0771C12.2907 13.1273 12.2542 13.207 12.2041 13.3164C12.154 13.4258 12.113 13.5101 12.0811 13.5693C12.0537 13.6286 12.015 13.7061 11.9648 13.8018C11.9147 13.8975 11.8691 13.9772 11.8281 14.041C11.7871 14.1094 11.7393 14.1823 11.6846 14.2598C11.6344 14.3372 11.5843 14.4102 11.5342 14.4785C11.4248 14.6289 11.2493 14.7041 11.0078 14.7041C10.9167 14.7041 10.8711 14.6813 10.8711 14.6357L10.8848 14.6289C10.8893 14.6198 10.8962 14.6061 10.9053 14.5879C10.9189 14.5742 10.9326 14.556 10.9463 14.5332C10.9645 14.5104 10.9827 14.4831 11.001 14.4512C11.0238 14.4193 11.0465 14.3851 11.0693 14.3486C11.4294 13.7926 11.8258 13.0361 12.2588 12.0791C11.402 12.0153 10.5475 11.8467 9.69531 11.5732C8.41927 13.1136 7.22298 14.2028 6.10645 14.8408C5.96061 14.9274 5.85807 14.9707 5.79883 14.9707C5.7168 14.9707 5.67578 14.9092 5.67578 14.7861ZM10.7891 19.7627C10.7891 19.6943 10.8324 19.6214 10.9189 19.5439C11.0055 19.4665 11.0762 19.4277 11.1309 19.4277C11.1354 19.4277 11.1377 19.4368 11.1377 19.4551C11.1331 19.4779 11.1377 19.5029 11.1514 19.5303C11.1605 19.5576 11.181 19.585 11.2129 19.6123C11.2402 19.6396 11.2926 19.6624 11.3701 19.6807C11.4476 19.7035 11.5433 19.7148 11.6572 19.7148C12.04 19.7148 12.4661 19.6032 12.9355 19.3799C13.4004 19.1566 13.8379 18.8239 14.248 18.3818C14.7083 17.8805 15.0957 17.3063 15.4102 16.6592C15.7246 16.012 15.8818 15.3968 15.8818 14.8135C15.8818 14.5947 15.8477 14.401 15.7793 14.2324C15.7155 14.0638 15.6312 13.9294 15.5264 13.8291C15.4261 13.7243 15.3122 13.6309 15.1846 13.5488C15.0615 13.4668 14.9362 13.3984 14.8086 13.3438C14.681 13.2845 14.5648 13.2253 14.46 13.166C14.3597 13.1068 14.2754 13.0361 14.207 12.9541C14.1432 12.8721 14.1113 12.7786 14.1113 12.6738C14.1113 12.4277 14.2617 12.1885 14.5625 11.9561C14.8633 11.7236 15.1458 11.6074 15.4102 11.6074C15.5833 11.6074 15.7337 11.6484 15.8613 11.7305C15.9889 11.8125 16.0527 11.9424 16.0527 12.1201C16.0527 12.2887 16.0003 12.4437 15.8955 12.585C15.7907 12.7217 15.6745 12.79 15.5469 12.79C15.4557 12.79 15.3942 12.7627 15.3623 12.708C15.4261 12.6852 15.4808 12.6442 15.5264 12.585C15.5765 12.5212 15.6016 12.4551 15.6016 12.3867C15.6016 12.2773 15.5628 12.1953 15.4854 12.1406C15.4124 12.0814 15.3258 12.0518 15.2256 12.0518C15.0752 12.0518 14.9202 12.1064 14.7607 12.2158C14.6058 12.3252 14.5283 12.4482 14.5283 12.585C14.5283 12.6715 14.5625 12.7467 14.6309 12.8105C14.6992 12.8743 14.7881 12.9313 14.8975 12.9814C15.0068 13.0316 15.1276 13.084 15.2598 13.1387C15.3919 13.1888 15.5241 13.2594 15.6562 13.3506C15.7884 13.4372 15.9092 13.542 16.0186 13.665C16.1279 13.7835 16.2168 13.9453 16.2852 14.1504C16.3535 14.3555 16.3877 14.5902 16.3877 14.8545C16.3877 15.4378 16.2077 16.0781 15.8477 16.7754C15.4922 17.4772 15.0319 18.1038 14.4668 18.6553C13.9928 19.1156 13.4893 19.4756 12.9561 19.7354C12.4183 19.9951 11.9079 20.125 11.4248 20.125C11.2425 20.125 11.0921 20.0931 10.9736 20.0293C10.8506 19.9701 10.7891 19.8812 10.7891 19.7627Z" fill="#333333"/>
</svg>
