<svg width="24" height="24" viewBox="0 0 24 24" fill="none" xmlns="http://www.w3.org/2000/svg">
<path d="M6.88081 16L10.1428 7.726H10.4228L11.3188 16H10.9828L10.7308 13.788H8.08481L7.20281 16H6.88081ZM8.15481 13.55H10.7168L10.1568 8.524L8.15481 13.55ZM13.4967 17.624C13.4127 17.624 13.3147 17.6193 13.2027 17.61C13.1 17.6007 12.9974 17.5913 12.8947 17.582C12.8014 17.5727 12.7174 17.5633 12.6427 17.554C12.5774 17.5447 12.5307 17.5353 12.5027 17.526L12.5307 17.274C12.6334 17.2833 12.7734 17.302 12.9507 17.33C13.1374 17.358 13.3147 17.372 13.4827 17.372C13.5947 17.372 13.7394 17.3627 13.9167 17.344C14.1034 17.3347 14.2947 17.2787 14.4907 17.176C14.6867 17.0827 14.864 16.9193 15.0227 16.686C15.1814 16.4527 15.2887 16.1167 15.3447 15.678L15.4707 14.754C15.3774 14.978 15.2514 15.1647 15.0927 15.314C14.934 15.454 14.752 15.5567 14.5467 15.622C14.3507 15.6873 14.1314 15.72 13.8887 15.72C13.7394 15.72 13.576 15.7107 13.3987 15.692C13.2214 15.664 13.0534 15.6033 12.8947 15.51C12.7454 15.4073 12.6334 15.244 12.5587 15.02C12.484 14.796 12.4747 14.4833 12.5307 14.082L13.0067 10.666C13.0814 10.1713 13.198 9.80733 13.3567 9.574C13.5154 9.33133 13.716 9.17267 13.9587 9.098C14.2107 9.014 14.4954 8.972 14.8127 8.972C15.0087 8.972 15.2047 8.99533 15.4007 9.042C15.5967 9.07933 15.7694 9.14933 15.9187 9.252C16.068 9.34533 16.1567 9.48533 16.1847 9.672L16.3247 9.112H16.5907L15.6667 15.734C15.6107 16.1167 15.508 16.4293 15.3587 16.672C15.2187 16.924 15.046 17.1153 14.8407 17.246C14.6354 17.386 14.416 17.484 14.1827 17.54C13.9494 17.596 13.7207 17.624 13.4967 17.624ZM13.9447 15.454C14.3554 15.454 14.6727 15.3513 14.8967 15.146C15.13 14.9407 15.3027 14.684 15.4147 14.376C15.5267 14.068 15.6014 13.7647 15.6387 13.466L16.1147 10.12C16.0867 9.99867 16.0307 9.868 15.9467 9.728C15.872 9.588 15.746 9.46667 15.5687 9.364C15.3914 9.26133 15.1394 9.21 14.8127 9.21C14.3554 9.21 14.0147 9.31733 13.7907 9.532C13.5667 9.73733 13.4174 10.12 13.3427 10.68L12.8667 14.124C12.82 14.4413 12.8294 14.6933 12.8947 14.88C12.9694 15.0573 13.072 15.188 13.2027 15.272C13.3334 15.3467 13.464 15.398 13.5947 15.426C13.7347 15.4447 13.8514 15.454 13.9447 15.454Z" fill="#888888"/>
</svg>
