<svg width="24" height="24" viewBox="0 0 24 24" fill="none" xmlns="http://www.w3.org/2000/svg">
<path d="M6.44337 16L7.63337 7.726H10.9234L12.0854 16H9.57937L9.46737 14.796H8.94937L8.86537 16H6.44337ZM8.96337 13.718H9.46737L9.21537 9.476L8.96337 13.718ZM14.9579 17.694C14.7992 17.694 14.6079 17.6847 14.3839 17.666C14.1599 17.6567 13.9359 17.6427 13.7119 17.624C13.4972 17.6053 13.3105 17.5867 13.1519 17.568C13.0025 17.5493 12.9139 17.5353 12.8859 17.526V16.392C13.0259 16.42 13.2265 16.4433 13.4879 16.462C13.7585 16.4807 13.9779 16.49 14.1459 16.49C14.3139 16.49 14.4539 16.476 14.5659 16.448C14.6872 16.42 14.7852 16.378 14.8599 16.322C14.9345 16.266 14.9859 16.1913 15.0139 16.098C15.0512 16.0047 15.0699 15.8973 15.0699 15.776V14.754C15.0325 14.8193 14.9812 14.9173 14.9159 15.048C14.8599 15.1787 14.7525 15.3 14.5939 15.412C14.4352 15.5147 14.1832 15.566 13.8379 15.566C13.5859 15.566 13.3665 15.5333 13.1799 15.468C13.0025 15.4027 12.8579 15.286 12.7459 15.118C12.6339 14.95 12.5499 14.7167 12.4939 14.418C12.4379 14.11 12.4099 13.7227 12.4099 13.256V10.708C12.4099 10.148 12.5359 9.714 12.7879 9.406C13.0399 9.08867 13.4039 8.93 13.8799 8.93C14.2065 8.93 14.4539 8.972 14.6219 9.056C14.7992 9.14 14.9299 9.252 15.0139 9.392C15.1072 9.52267 15.1819 9.672 15.2379 9.84L14.9719 9.896L15.2939 9.07H17.2539V14.614C17.2539 14.922 17.2352 15.2533 17.1979 15.608C17.1699 15.9627 17.0859 16.2987 16.9459 16.616C16.8152 16.9333 16.5912 17.19 16.2739 17.386C15.9659 17.5913 15.5272 17.694 14.9579 17.694ZM14.8319 14.292C14.8785 14.292 14.9205 14.2827 14.9579 14.264C14.9952 14.236 15.0232 14.1893 15.0419 14.124C15.0605 14.0587 15.0699 13.9747 15.0699 13.872V10.414C15.0512 10.4047 15.0325 10.4 15.0139 10.4C14.9952 10.3907 14.9719 10.386 14.9439 10.386C14.9159 10.3767 14.8785 10.372 14.8319 10.372C14.7665 10.372 14.7105 10.4047 14.6639 10.47C14.6172 10.526 14.5939 10.6333 14.5939 10.792V13.858C14.5939 13.942 14.5985 14.012 14.6079 14.068C14.6172 14.124 14.6312 14.1707 14.6499 14.208C14.6779 14.236 14.7059 14.2593 14.7339 14.278C14.7619 14.2873 14.7945 14.292 14.8319 14.292Z" fill="#888888"/>
</svg>
