<svg width="24" height="24" viewBox="0 0 24 24" fill="none" xmlns="http://www.w3.org/2000/svg">
<path d="M5.88337 16L8.23537 7.726H11.5254V16H9.01937L9.07537 14.796H8.55737L8.30537 16H5.88337ZM7.11537 15.342H7.17137L7.25537 15.048C7.28337 14.9453 7.31137 14.8333 7.33937 14.712C7.35803 14.6467 7.3767 14.5767 7.39537 14.502C7.41403 14.4273 7.4327 14.3527 7.45137 14.278L8.89337 14.264L10.3214 14.278L10.2794 15.342H10.3494L10.5174 11.814L10.5734 8.314L9.76137 8.342L9.04737 8.314L8.01137 11.786L7.11537 15.342ZM8.89337 14.25L7.46537 14.222L8.16537 11.8L9.08937 8.37L9.76137 8.356L10.5034 8.37L10.3494 11.814L10.3074 14.222L8.89337 14.25ZM8.71137 13.718H9.21537L9.56537 9.476L8.71137 13.718ZM13.9906 17.596C13.2532 17.596 12.7306 17.4747 12.4226 17.232C12.1239 16.9987 11.9839 16.588 12.0026 16H13.4726C13.4726 16.0093 13.4679 16.0187 13.4586 16.028C13.4586 16.0467 13.4586 16.0607 13.4586 16.07C13.4586 16.1073 13.4726 16.1493 13.5006 16.196C13.5286 16.2427 13.5752 16.2847 13.6406 16.322C13.7059 16.3687 13.8132 16.392 13.9626 16.392C14.1492 16.392 14.3032 16.3453 14.4246 16.252C14.5552 16.1587 14.6439 15.9627 14.6906 15.664L14.8586 14.558C14.7279 14.7167 14.6159 14.8613 14.5226 14.992C14.4386 15.1133 14.3219 15.2067 14.1726 15.272C14.0326 15.3373 13.8086 15.37 13.5006 15.37C13.0712 15.37 12.7632 15.272 12.5766 15.076C12.3899 14.8707 12.2966 14.544 12.2966 14.096C12.2966 13.9467 12.3059 13.788 12.3246 13.62C12.3432 13.452 12.3666 13.2653 12.3946 13.06L12.7726 10.526C12.8379 10.1247 12.9592 9.81667 13.1366 9.602C13.3139 9.378 13.5192 9.224 13.7526 9.14C13.9859 9.04667 14.2192 9 14.4526 9C14.8259 9 15.0872 9.06067 15.2366 9.182C15.3952 9.30333 15.5072 9.42933 15.5726 9.56L15.8526 9.07H17.8126L17.0426 14.516C16.9772 14.9733 16.8932 15.3933 16.7906 15.776C16.6879 16.1493 16.5339 16.4713 16.3286 16.742C16.1232 17.0127 15.8339 17.2227 15.4606 17.372C15.0872 17.5213 14.5972 17.596 13.9906 17.596ZM14.5646 16.854C14.8259 16.8727 15.0452 16.8213 15.2226 16.7C15.3999 16.588 15.5399 16.4387 15.6426 16.252C15.7452 16.0653 15.8106 15.8833 15.8386 15.706L16.2446 13.144L16.7066 9.406H16.6506L16.0626 13.144L15.7406 15.65C15.7032 15.986 15.5866 16.266 15.3906 16.49C15.1946 16.7233 14.9192 16.84 14.5646 16.84V16.854ZM14.3966 14.796V14.768C14.2192 14.8613 14.0559 14.908 13.9066 14.908C13.7479 14.908 13.6172 14.8567 13.5146 14.754C13.4212 14.642 13.3746 14.488 13.3746 14.292C13.3746 14.2453 13.3746 14.2033 13.3746 14.166C13.3839 14.1193 13.3932 14.0773 13.4026 14.04L13.6966 12.248L13.8786 10.764C13.9252 10.4187 14.0279 10.1667 14.1866 10.008C14.3546 9.84 14.5552 9.756 14.7886 9.756C14.9566 9.756 15.1199 9.78867 15.2786 9.854V9.826C15.1012 9.742 14.9239 9.7 14.7466 9.7C14.5132 9.7 14.3126 9.784 14.1446 9.952C13.9766 10.1107 13.8552 10.3673 13.7806 10.722L13.5006 12.248L13.2766 14.04C13.2672 14.0773 13.2626 14.1147 13.2626 14.152C13.2626 14.18 13.2626 14.208 13.2626 14.236C13.2626 14.4693 13.3139 14.6467 13.4166 14.768C13.5192 14.8893 13.6592 14.95 13.8366 14.95C14.0139 14.95 14.2006 14.8987 14.3966 14.796ZM14.6766 14.096C14.7512 14.096 14.8119 14.068 14.8586 14.012C14.9146 13.9467 14.9519 13.8347 14.9706 13.676L15.4606 10.33C15.4232 10.33 15.3952 10.3253 15.3766 10.316C15.3486 10.3067 15.3206 10.302 15.2926 10.302C15.2646 10.2927 15.2366 10.288 15.2086 10.288C15.1339 10.288 15.0732 10.3207 15.0266 10.386C14.9799 10.442 14.9472 10.5493 14.9286 10.708L14.4946 13.676C14.4852 13.7133 14.4806 13.7647 14.4806 13.83C14.4806 13.8953 14.4946 13.9513 14.5226 13.998C14.5506 14.0633 14.6019 14.096 14.6766 14.096Z" fill="#888888"/>
</svg>
