<svg width="24" height="24" viewBox="0 0 24 24" fill="none" xmlns="http://www.w3.org/2000/svg">
<path d="M6.19526 16L9.28926 7.726H10.1153L10.8433 16H10.1153L9.91926 13.97H7.66526L6.89526 16H6.19526ZM7.74926 13.578H9.93326L9.54126 8.692L7.74926 13.578ZM13.1432 17.638C13.0405 17.638 12.9239 17.6333 12.7932 17.624C12.6719 17.6147 12.5505 17.6007 12.4292 17.582C12.3079 17.5727 12.2052 17.5633 12.1212 17.554C12.0372 17.5447 11.9812 17.5353 11.9532 17.526L12.0092 17.12C12.1119 17.1293 12.2612 17.148 12.4572 17.176C12.6532 17.204 12.8352 17.218 13.0032 17.218C13.1152 17.218 13.2552 17.2087 13.4232 17.19C13.6005 17.1713 13.7779 17.1153 13.9552 17.022C14.1325 16.938 14.2912 16.7933 14.4312 16.588C14.5712 16.3827 14.6692 16.084 14.7252 15.692L14.8512 14.754C14.7672 14.95 14.6505 15.118 14.5012 15.258C14.3612 15.398 14.1932 15.5053 13.9972 15.58C13.8012 15.6547 13.5725 15.692 13.3112 15.692C13.1525 15.692 12.9845 15.678 12.8072 15.65C12.6299 15.622 12.4665 15.5567 12.3172 15.454C12.1772 15.342 12.0745 15.1693 12.0092 14.936C11.9439 14.6933 11.9392 14.3573 11.9952 13.928L12.4572 10.638C12.5319 10.1527 12.6532 9.79333 12.8212 9.56C12.9892 9.32667 13.1945 9.17267 13.4372 9.098C13.6892 9.014 13.9552 8.972 14.2352 8.972C14.4312 8.972 14.6225 8.99067 14.8092 9.028C15.0052 9.06533 15.1732 9.13533 15.3132 9.238C15.4532 9.33133 15.5372 9.47133 15.5652 9.658L15.7332 9.098H16.3072L15.4112 15.524C15.3552 15.8973 15.2619 16.2147 15.1312 16.476C15.0005 16.7467 14.8325 16.966 14.6272 17.134C14.4219 17.302 14.1932 17.428 13.9412 17.512C13.6892 17.596 13.4232 17.638 13.1432 17.638ZM13.5632 15.244C13.9085 15.244 14.1792 15.16 14.3752 14.992C14.5712 14.8147 14.7159 14.5953 14.8092 14.334C14.9119 14.0633 14.9772 13.7973 15.0052 13.536L15.4812 10.162C15.4625 10.0593 15.4159 9.952 15.3412 9.84C15.2759 9.71867 15.1685 9.616 15.0192 9.532C14.8699 9.448 14.6552 9.406 14.3752 9.406C13.9925 9.406 13.7032 9.49933 13.5072 9.686C13.3112 9.86333 13.1852 10.1947 13.1292 10.68L12.6532 14.082C12.6159 14.3527 12.6252 14.5673 12.6812 14.726C12.7372 14.8847 12.8212 15.0013 12.9332 15.076C13.0452 15.1413 13.1572 15.188 13.2692 15.216C13.3905 15.2347 13.4885 15.244 13.5632 15.244Z" fill="#888888"/>
</svg>
