<svg width="24" height="24" viewBox="0 0 24 24" fill="none" xmlns="http://www.w3.org/2000/svg">
<path d="M10.5439 18.9932C10.3936 18.9932 10.2842 18.9658 10.2158 18.9111C10.1475 18.8564 10.1133 18.763 10.1133 18.6309V16.8057C9.99023 16.7191 9.76237 16.6439 9.42969 16.5801C9.10156 16.5117 8.78483 16.4684 8.47949 16.4502C8.38835 16.6051 8.31087 16.8421 8.24707 17.1611L8.20605 17.373C8.13314 17.7467 8.06706 18.0498 8.00781 18.2822C7.94857 18.5146 7.87565 18.7015 7.78906 18.8428C7.42904 18.8428 7.22396 18.7493 7.17383 18.5625C7.26042 18.4395 7.37663 18.002 7.52246 17.25C7.64551 16.6074 7.79818 15.7529 7.98047 14.6865C8.1901 13.4469 8.38151 12.4056 8.55469 11.5625C8.72786 10.7148 8.91016 10.0016 9.10156 9.42285C9.3112 8.77572 9.51628 8.45215 9.7168 8.45215C9.91276 8.45215 10.0632 8.49316 10.168 8.5752C10.168 8.92155 10.2591 9.82161 10.4414 11.2754C10.6237 12.7292 10.7148 13.6862 10.7148 14.1465C10.7148 14.584 10.765 15.2904 10.8652 16.2656C10.9609 17.2682 11.0088 18.0202 11.0088 18.5215C11.0088 18.8359 10.8538 18.9932 10.5439 18.9932ZM9.8125 15.9854C9.89453 15.9854 9.99023 15.9717 10.0996 15.9443C10.0859 15.7438 10.0381 15.2357 9.95605 14.4199C9.74186 12.2598 9.63477 10.9701 9.63477 10.5508C9.63477 10.4824 9.63704 10.4414 9.6416 10.4277C9.55046 10.5189 9.42285 10.9404 9.25879 11.6924C9.09473 12.4443 8.94206 13.2533 8.80078 14.1191C8.65951 14.9805 8.58203 15.5501 8.56836 15.8281C8.96484 15.9329 9.37956 15.9854 9.8125 15.9854ZM15.0762 19.1094C15.3678 19.1094 15.6344 19.0524 15.876 18.9385C16.1221 18.8245 16.318 18.6605 16.4639 18.4463C16.6097 18.2275 16.6826 17.9701 16.6826 17.6738C16.6826 17.5508 16.6712 17.3024 16.6484 16.9287C16.6257 16.555 16.6143 16.3089 16.6143 16.1904C16.6143 16.0902 16.6393 15.9215 16.6895 15.6846C16.7396 15.4476 16.7646 15.2767 16.7646 15.1719C16.7646 14.8848 16.3454 14.7412 15.5068 14.7412H15.3154V14.7344C15.1742 14.7344 15.0579 14.7708 14.9668 14.8438C14.8802 14.9121 14.8369 15.0101 14.8369 15.1377C14.8369 15.3519 14.9987 15.459 15.3223 15.459C15.3815 15.459 15.4316 15.4567 15.4727 15.4521H15.5957C15.7415 15.4521 15.8509 15.4704 15.9238 15.5068V16.1494C15.9238 17.6351 15.6982 18.3779 15.2471 18.3779C15.0693 18.3779 14.9098 18.3301 14.7686 18.2344C14.6273 18.1432 14.5111 18.0293 14.4199 17.8926C14.3288 17.7513 14.2513 17.569 14.1875 17.3457C14.1191 17.1224 14.0667 16.9128 14.0303 16.7168C13.9984 16.5163 13.9733 16.2793 13.9551 16.0059C13.9277 15.5684 13.9141 15.1331 13.9141 14.7002C13.9141 14.2992 13.9323 13.8298 13.9688 13.292C14.0143 12.6312 14.1146 12 14.2695 11.3984C14.347 11.1022 14.4473 10.8698 14.5703 10.7012C14.6979 10.528 14.8415 10.4414 15.001 10.4414L15.1445 10.4551C15.2038 10.4688 15.2539 10.4756 15.2949 10.4756C15.4134 10.4756 15.516 10.4391 15.6025 10.3662C15.6937 10.2933 15.7393 10.2044 15.7393 10.0996C15.7393 9.86263 15.541 9.74414 15.1445 9.74414C14.9349 9.74414 14.7389 9.77604 14.5566 9.83984C14.3743 9.90365 14.2171 9.99023 14.085 10.0996C13.9528 10.2044 13.8343 10.3389 13.7295 10.5029C13.6201 10.6761 13.5312 10.847 13.4629 11.0156C13.3945 11.1842 13.3376 11.3825 13.292 11.6104C13.2419 11.861 13.2031 12.0843 13.1758 12.2803C13.1484 12.4717 13.1279 12.6904 13.1143 12.9365C13.0915 13.2874 13.0801 13.7318 13.0801 14.2695V14.8232C13.0801 15.238 13.0824 15.5114 13.0869 15.6436C13.0915 15.8851 13.1074 16.1722 13.1348 16.5049C13.1621 16.833 13.1986 17.0905 13.2441 17.2773C13.3034 17.528 13.3809 17.7764 13.4766 18.0225C13.5768 18.264 13.6885 18.4508 13.8115 18.583C13.9574 18.738 14.1396 18.8656 14.3584 18.9658C14.5771 19.0615 14.8164 19.1094 15.0762 19.1094Z" fill="#333333"/>
</svg>
