<svg width="24" height="24" viewBox="0 0 24 24" fill="none" xmlns="http://www.w3.org/2000/svg">
<path d="M9.70312 13.6846H6.09375L5.0957 16.3574L6.24414 16.7197V17H2.9834V16.7197L4.17285 16.2275L7.74121 6.91699H8.37012L12.0273 16.2275L13.1484 16.7197V17H9.64844V16.7197L10.7559 16.3574L9.70312 13.6846ZM7.84375 9.00879L6.37402 12.9531H9.42285L7.89844 9.00879H7.84375ZM15.5547 17.2666C15.1081 17.54 14.8848 17.973 14.8848 18.5654C14.8848 18.8343 14.9508 19.0576 15.083 19.2354C15.2152 19.4176 15.3838 19.5612 15.5889 19.666C15.7939 19.7754 16.0218 19.8529 16.2725 19.8984C16.5231 19.944 16.7646 19.9668 16.9971 19.9668C17.2386 19.9668 17.4801 19.9417 17.7217 19.8916C17.9678 19.846 18.1865 19.7754 18.3779 19.6797C18.5739 19.5885 18.7334 19.4723 18.8564 19.3311C18.9795 19.1943 19.041 19.0326 19.041 18.8457C19.041 18.5586 18.9681 18.3285 18.8223 18.1553C18.681 17.9821 18.4873 17.8431 18.2412 17.7383C17.9951 17.638 17.7057 17.5628 17.373 17.5127C17.0404 17.4626 16.6849 17.417 16.3066 17.376C16.1471 17.3577 16.0036 17.3395 15.876 17.3213C15.7529 17.3031 15.6458 17.2848 15.5547 17.2666ZM16.9287 15.0928C16.4593 15.0928 16.0286 15.0199 15.6367 14.874C15.3496 15.0654 15.2061 15.307 15.2061 15.5986C15.2061 15.7673 15.3018 15.9017 15.4932 16.002C15.6891 16.1022 15.9421 16.1751 16.252 16.2207C16.5618 16.2617 16.9036 16.3005 17.2773 16.3369C17.651 16.3734 18.0247 16.4303 18.3984 16.5078C18.7721 16.5853 19.1139 16.6924 19.4238 16.8291C19.7337 16.9613 19.9844 17.1618 20.1758 17.4307C20.3717 17.7041 20.4697 18.0368 20.4697 18.4287C20.4697 18.7432 20.3945 19.0303 20.2441 19.29C20.0938 19.5498 19.8955 19.7617 19.6494 19.9258C19.4079 20.0944 19.123 20.2357 18.7949 20.3496C18.4668 20.4635 18.1318 20.5456 17.79 20.5957C17.4528 20.6458 17.1087 20.6709 16.7578 20.6709C15.778 20.6709 15.0124 20.5 14.4609 20.1582C13.9095 19.821 13.6338 19.3789 13.6338 18.832C13.6338 18.0436 14.069 17.4694 14.9395 17.1094C14.3971 16.9271 14.126 16.5876 14.126 16.0908C14.126 15.5075 14.4814 15.0221 15.1924 14.6348C14.7959 14.3932 14.4906 14.0788 14.2764 13.6914C14.0667 13.304 13.9619 12.8939 13.9619 12.4609C13.9619 12.1283 14.028 11.807 14.1602 11.4971C14.2923 11.1826 14.4792 10.9023 14.7207 10.6562C14.9668 10.4056 15.2812 10.2051 15.6641 10.0547C16.0469 9.9043 16.4684 9.8291 16.9287 9.8291C17.3298 9.8291 17.6966 9.88607 18.0293 10H20.7773V10.2803L19.2803 10.8135C19.6904 11.292 19.8955 11.8411 19.8955 12.4609C19.8955 12.7936 19.8271 13.1172 19.6904 13.4316C19.5583 13.7415 19.3691 14.0218 19.123 14.2725C18.8815 14.5186 18.5693 14.7168 18.1865 14.8672C17.8083 15.0176 17.389 15.0928 16.9287 15.0928ZM15.3838 12.4609C15.3838 13.0853 15.5205 13.5638 15.7939 13.8965C16.0674 14.2292 16.4456 14.3955 16.9287 14.3955C17.4072 14.3955 17.7832 14.2292 18.0566 13.8965C18.3301 13.5592 18.4668 13.0807 18.4668 12.4609C18.4668 11.8411 18.3301 11.3649 18.0566 11.0322C17.7832 10.6995 17.4072 10.5332 16.9287 10.5332C16.4456 10.5332 16.0674 10.6995 15.7939 11.0322C15.5205 11.3649 15.3838 11.8411 15.3838 12.4609Z" fill="#888888"/>
</svg>
