<svg width="24" height="24" viewBox="0 0 24 24" fill="none" xmlns="http://www.w3.org/2000/svg">
<path d="M12.489 16.244L12.419 17H11.005L9.00302 17.07L8.94702 16.384L9.96902 16.104L9.59102 14.592L9.29702 13.752H6.21702L5.76902 15.222L5.62902 16.104L6.60902 16.244L6.53902 17H5.33502L3.44502 17.07L3.38902 16.384L4.27102 16.146L4.87302 14.76L7.37902 7.13L8.19102 6.99L11.075 14.914L11.621 16.104L12.489 16.244ZM7.70102 9.202L6.46902 13.052L9.01702 12.996L7.70102 9.202ZM16.4201 9.44C17.0174 9.44 17.8294 9.55667 18.8561 9.79L18.7301 11.414L18.0161 11.358L18.0021 10.882C18.0021 10.8353 17.9601 10.6767 17.8761 10.406C17.3441 10.266 16.8494 10.196 16.3921 10.196C15.6174 10.196 15.0294 10.4853 14.6281 11.064C14.2361 11.6333 14.0401 12.38 14.0401 13.304C14.0401 14.2187 14.2361 14.9653 14.6281 15.544C15.0294 16.1227 15.6174 16.412 16.3921 16.412C16.7841 16.412 17.2461 16.356 17.7781 16.244C17.8527 15.9267 17.8901 15.7307 17.8901 15.656V14.942L17.7781 14.242L16.6161 14.158L16.6721 13.388H17.8901L18.8141 13.346L19.0521 13.556C18.9867 14.256 18.9541 14.7833 18.9541 15.138V16.804C17.9274 17.0373 17.0827 17.154 16.4201 17.154C15.2067 17.154 14.2734 16.8087 13.6201 16.118C12.9761 15.418 12.6541 14.48 12.6541 13.304C12.6541 12.128 12.9761 11.19 13.6201 10.49C14.2734 9.79 15.2067 9.44 16.4201 9.44Z" fill="#333333"/>
</svg>
