<svg width="24" height="24" viewBox="0 0 24 24" fill="none" xmlns="http://www.w3.org/2000/svg">
<path d="M6.96289 13.1035H9.76562L8.35742 8.60547L6.96289 13.1035ZM10.2305 14.5732H6.51172L5.75977 17H3.72266C3.7819 16.8633 3.84115 16.7197 3.90039 16.5693C3.96419 16.4189 4.03027 16.2503 4.09863 16.0635C4.16699 15.8766 4.24219 15.6624 4.32422 15.4209C4.40625 15.1794 4.50195 14.8968 4.61133 14.5732L7.14062 7.01953H9.57422L12.1035 14.5732C12.2129 14.8923 12.3086 15.1725 12.3906 15.4141C12.4727 15.6556 12.5479 15.8721 12.6162 16.0635C12.6891 16.2503 12.7552 16.4189 12.8145 16.5693C12.8737 16.7197 12.9329 16.8633 12.9922 17H10.9893L10.2305 14.5732ZM18.8574 11.791C18.6979 11.709 18.5202 11.6429 18.3242 11.5928C18.1283 11.5426 17.9528 11.5176 17.7979 11.5176C17.4971 11.5176 17.2396 11.5814 17.0254 11.709C16.8112 11.832 16.638 11.9961 16.5059 12.2012C16.3737 12.4062 16.2757 12.6387 16.2119 12.8984C16.1527 13.1582 16.123 13.4202 16.123 13.6846C16.123 14.0173 16.1504 14.2952 16.2051 14.5186C16.2643 14.7373 16.3441 14.9128 16.4443 15.0449C16.5446 15.1771 16.6631 15.2705 16.7998 15.3252C16.9365 15.3799 17.0869 15.4072 17.251 15.4072C17.374 15.4072 17.5062 15.3799 17.6475 15.3252C17.7933 15.2705 17.9368 15.1908 18.0781 15.0859C18.224 14.9766 18.363 14.8444 18.4951 14.6895C18.6273 14.5345 18.748 14.3568 18.8574 14.1562V11.791ZM20.7715 16.8291C20.7715 17.4307 20.6735 17.9456 20.4775 18.374C20.2861 18.8024 20.0309 19.151 19.7119 19.4199C19.3975 19.6934 19.0397 19.8939 18.6387 20.0215C18.2376 20.1491 17.832 20.2129 17.4219 20.2129C17.1849 20.2129 16.9411 20.1901 16.6904 20.1445C16.4398 20.1035 16.1914 20.0443 15.9453 19.9668C15.6992 19.8893 15.46 19.7959 15.2275 19.6865C14.9951 19.5771 14.7809 19.4564 14.585 19.3242L15.166 17.8955C15.4896 18.1279 15.8154 18.3171 16.1436 18.4629C16.4717 18.6087 16.8066 18.6816 17.1484 18.6816C17.3125 18.6816 17.4925 18.6566 17.6885 18.6064C17.889 18.5563 18.0758 18.4697 18.249 18.3467C18.4222 18.2236 18.5658 18.0573 18.6797 17.8477C18.7982 17.6426 18.8574 17.3828 18.8574 17.0684V15.8037C18.6842 16.0179 18.502 16.2025 18.3105 16.3574C18.1191 16.5078 17.9232 16.6354 17.7227 16.7402C17.5267 16.8405 17.3307 16.9157 17.1348 16.9658C16.9388 17.0114 16.7497 17.0342 16.5674 17.0342C16.262 17.0342 15.9658 16.9795 15.6787 16.8701C15.3962 16.7607 15.1455 16.5876 14.9268 16.3506C14.708 16.109 14.5326 15.7969 14.4004 15.4141C14.2728 15.0312 14.209 14.5687 14.209 14.0264C14.209 13.5023 14.2819 12.9919 14.4277 12.4951C14.5736 11.9984 14.8014 11.5586 15.1113 11.1758C15.4258 10.7884 15.8245 10.4785 16.3076 10.2461C16.7907 10.0091 17.3695 9.89062 18.0439 9.89062C18.2673 9.89062 18.4974 9.90658 18.7344 9.93848C18.9714 9.96582 19.2061 10.0046 19.4385 10.0547C19.6755 10.1048 19.9056 10.1618 20.1289 10.2256C20.3568 10.2848 20.571 10.3441 20.7715 10.4033V16.8291Z" fill="#888888"/>
</svg>
