<svg width="24" height="24" viewBox="0 0 24 24" fill="none" xmlns="http://www.w3.org/2000/svg">
<path d="M9.0625 8.35254L7.33984 13.3086H10.8057L9.0625 8.35254ZM4.65332 17C4.71257 16.8633 4.77409 16.7197 4.83789 16.5693C4.90169 16.4189 4.97005 16.2503 5.04297 16.0635C5.12044 15.8721 5.20475 15.6556 5.2959 15.4141C5.38704 15.1725 5.49186 14.8923 5.61035 14.5732L8.34473 7.01953H9.81445L12.5488 14.5732C12.6628 14.8923 12.7653 15.1725 12.8564 15.4141C12.9476 15.6556 13.0319 15.8721 13.1094 16.0635C13.1868 16.2503 13.2575 16.4189 13.3213 16.5693C13.3851 16.7197 13.4466 16.8633 13.5059 17H12.1045L11.1748 14.3682H6.9707L6.05469 17H4.65332ZM19.4258 11.3262C19.3164 11.2852 19.2002 11.2487 19.0771 11.2168C18.9541 11.1803 18.8288 11.1507 18.7012 11.1279C18.5736 11.1051 18.4482 11.0869 18.3252 11.0732C18.2067 11.0596 18.0951 11.0527 17.9902 11.0527C17.6165 11.0527 17.2975 11.1302 17.0332 11.2852C16.7689 11.4355 16.5524 11.6361 16.3838 11.8867C16.2197 12.1328 16.099 12.4131 16.0215 12.7275C15.944 13.042 15.9053 13.361 15.9053 13.6846C15.9053 14.1084 15.9372 14.4616 16.001 14.7441C16.0693 15.0221 16.1605 15.2454 16.2744 15.4141C16.3929 15.5781 16.5296 15.6966 16.6846 15.7695C16.8441 15.8379 17.0173 15.8721 17.2041 15.8721C17.3773 15.8721 17.5618 15.8379 17.7578 15.7695C17.9538 15.6966 18.1497 15.5941 18.3457 15.4619C18.5462 15.3298 18.7376 15.1657 18.9199 14.9697C19.1068 14.7738 19.2754 14.5505 19.4258 14.2998V11.3262ZM20.6904 16.8291C20.6904 17.4307 20.6016 17.9456 20.4238 18.374C20.2507 18.8024 20.0205 19.151 19.7334 19.4199C19.4508 19.6934 19.1273 19.8939 18.7627 20.0215C18.3981 20.1491 18.0267 20.2129 17.6484 20.2129C17.2109 20.2129 16.7757 20.1377 16.3428 19.9873C15.9144 19.8369 15.5179 19.6387 15.1533 19.3926L15.5977 18.333C15.9212 18.5654 16.2471 18.7546 16.5752 18.9004C16.9033 19.0462 17.2383 19.1191 17.5801 19.1191C17.7578 19.1191 17.9538 19.0872 18.168 19.0234C18.3822 18.9596 18.5827 18.848 18.7695 18.6885C18.9564 18.5335 19.1113 18.3239 19.2344 18.0596C19.362 17.7952 19.4258 17.4648 19.4258 17.0684V15.667C19.248 15.8903 19.0589 16.0885 18.8584 16.2617C18.6624 16.4303 18.4619 16.5716 18.2568 16.6855C18.0563 16.7995 17.8535 16.8861 17.6484 16.9453C17.4479 17.0046 17.2542 17.0342 17.0674 17.0342C16.7529 17.0342 16.4499 16.9795 16.1582 16.8701C15.8665 16.7607 15.6068 16.5876 15.3789 16.3506C15.1556 16.109 14.9756 15.7969 14.8389 15.4141C14.7067 15.0312 14.6406 14.5687 14.6406 14.0264C14.6406 13.5023 14.709 12.9919 14.8457 12.4951C14.9824 11.9984 15.1943 11.5586 15.4814 11.1758C15.7686 10.7884 16.1354 10.4785 16.582 10.2461C17.0332 10.0091 17.571 9.89062 18.1953 9.89062C18.4004 9.89062 18.61 9.90658 18.8242 9.93848C19.043 9.96582 19.2594 10.0046 19.4736 10.0547C19.6878 10.1048 19.8975 10.1618 20.1025 10.2256C20.3076 10.2848 20.5036 10.3441 20.6904 10.4033V16.8291Z" fill="#888888"/>
</svg>
