<svg width="24" height="24" viewBox="0 0 24 24" fill="none" xmlns="http://www.w3.org/2000/svg">
<path d="M6.75781 18L8.63086 5.96875H10.0391L12.0967 18H10.9209L10.5518 15.6211H8.26855L7.93359 18H6.75781ZM8.41895 14.6504H10.3945L9.37598 8.06738H9.35547L8.41895 14.6504ZM15.3779 19.5723C14.9495 19.5905 14.5508 19.5404 14.1816 19.4219C13.8125 19.3034 13.5049 19.1462 13.2588 18.9502L13.71 18.0684C13.8968 18.2005 14.1224 18.319 14.3867 18.4238C14.6556 18.5332 14.9769 18.5833 15.3506 18.5742C15.6559 18.5651 15.8952 18.4466 16.0684 18.2188C16.2415 17.9909 16.3281 17.6833 16.3281 17.2959V16.25C16.1914 16.5872 16.0091 16.8105 15.7812 16.9199C15.5534 17.0293 15.3005 17.084 15.0225 17.084C14.5485 17.084 14.1816 16.9404 13.9219 16.6533C13.6667 16.3617 13.4912 15.9652 13.3955 15.4639C13.2998 14.9626 13.252 14.3975 13.252 13.7686V10.9795C13.252 10.3415 13.3112 9.76953 13.4297 9.26367C13.5527 8.75326 13.7555 8.34993 14.0381 8.05371C14.3206 7.75749 14.6966 7.61393 15.166 7.62305C15.4303 7.6276 15.665 7.69368 15.8701 7.82129C16.0798 7.94434 16.2324 8.14714 16.3281 8.42969V7.74609H17.5586V17.1729C17.5586 17.4144 17.5267 17.6719 17.4629 17.9453C17.4036 18.2188 17.2965 18.474 17.1416 18.7109C16.9867 18.9525 16.7656 19.1507 16.4785 19.3057C16.196 19.4652 15.8291 19.554 15.3779 19.5723ZM15.4941 16.0723C15.6855 16.0723 15.8428 16.0153 15.9658 15.9014C16.0889 15.7829 16.18 15.5641 16.2393 15.2451C16.2985 14.9215 16.3281 14.4521 16.3281 13.8369V10.7539C16.3281 10.0566 16.2712 9.53483 16.1572 9.18848C16.0479 8.84212 15.8018 8.66895 15.4189 8.66895C15.141 8.66895 14.9336 8.75781 14.7969 8.93555C14.6647 9.10872 14.5781 9.35026 14.5371 9.66016C14.5007 9.97005 14.4824 10.3301 14.4824 10.7402V13.8506C14.4824 14.6025 14.5485 15.1608 14.6807 15.5254C14.8174 15.89 15.0885 16.0723 15.4941 16.0723Z" fill="#888888"/>
</svg>
