<svg width="24" height="24" viewBox="0 0 24 24" fill="none" xmlns="http://www.w3.org/2000/svg">
<path d="M3.8922 16H4.0672L5.6912 12.941H10.1852L10.7242 16H10.8992L9.2122 6.522H8.9252L3.8922 16ZM5.7752 12.787L9.0442 6.655H9.0582L10.1572 12.787H5.7752ZM13.7964 19.206C14.3238 19.206 14.7998 19.108 15.2244 18.912C15.6491 18.716 16.0154 18.3847 16.3234 17.918C16.6361 17.4513 16.8624 16.826 17.0024 16.042L18.4724 7.712H18.3184L18.0034 9.49L16.8484 16.028C16.6571 17.1247 16.2931 17.904 15.7564 18.366C15.2244 18.8327 14.5711 19.066 13.7964 19.066C13.3251 19.066 12.9238 18.982 12.5924 18.814C12.2658 18.6507 12.0348 18.4033 11.8994 18.072C11.7688 17.7407 11.7244 17.2763 11.7664 16.679H11.6054C11.5074 17.6077 11.6521 18.261 12.0394 18.639C12.4268 19.017 13.0124 19.206 13.7964 19.206ZM14.2164 16.056C15.0098 16.056 15.6934 15.8413 16.2674 15.412C16.8461 14.978 17.1728 14.5463 17.2474 14.117L17.2614 13.718C17.1728 14.2313 16.8321 14.7237 16.2394 15.195C15.6514 15.6663 14.9888 15.902 14.2514 15.902C13.5001 15.902 12.9518 15.6033 12.6064 15.006C12.2611 14.404 12.2098 13.3493 12.4524 11.842C12.6951 10.3253 13.1058 9.26833 13.6844 8.671C14.2678 8.07367 14.9351 7.775 15.6864 7.775C16.4238 7.775 17.0024 8.01067 17.4224 8.482C17.8471 8.94867 18.0151 9.43867 17.9264 9.952L18.0384 9.588C18.1084 9.18667 17.9358 8.75967 17.5204 8.307C17.1051 7.84967 16.5008 7.621 15.7074 7.621C14.8861 7.621 14.1721 7.936 13.5654 8.566C12.9634 9.19133 12.5388 10.2833 12.2914 11.842C12.0394 13.3913 12.0908 14.481 12.4454 15.111C12.8048 15.741 13.3951 16.056 14.2164 16.056Z" fill="#888888"/>
</svg>
