<svg width="24" height="24" viewBox="0 0 24 24" fill="none" xmlns="http://www.w3.org/2000/svg">
<path d="M10.3576 17H10.5556L11.3476 13.067H11.7616L11.1676 17H11.3656L13.1926 4.85H12.8056L10.3576 17ZM11.3836 12.869L12.9496 5.048H12.9766L11.7976 12.869H11.3836ZM11.6232 21.122C11.7612 21.122 11.8812 21.056 11.9832 20.924C12.0792 20.798 12.1872 20.522 12.3072 20.096C12.4272 19.67 12.5652 19.022 12.7212 18.152L14.8272 6.2H14.6292L14.4492 7.226L12.5232 18.134C12.3132 19.34 12.1512 20.108 12.0372 20.438C11.9172 20.774 11.7882 20.942 11.6502 20.942C11.5542 20.942 11.4912 20.87 11.4612 20.726C11.4252 20.588 11.4342 20.321 11.4882 19.925C11.5362 19.535 11.6292 18.941 11.7672 18.143H11.5692C11.3412 19.457 11.2392 20.282 11.2632 20.618C11.2872 20.954 11.4072 21.122 11.6232 21.122ZM12.1902 17.054C12.3882 17.054 12.5622 16.913 12.7122 16.631C12.8682 16.349 12.9792 16.022 13.0452 15.65L13.0182 15.362C12.9702 15.626 12.8592 15.941 12.6852 16.307C12.5172 16.673 12.3702 16.856 12.2442 16.856C12.0762 16.856 12.0552 16.511 12.1812 15.821C12.3012 15.131 12.5502 13.718 12.9282 11.582C13.3062 9.434 13.5552 8.015 13.6752 7.325C13.7952 6.635 13.9392 6.29 14.1072 6.29C14.2332 6.29 14.3172 6.473 14.3592 6.839C14.4012 7.205 14.3982 7.52 14.3502 7.784L14.4582 7.496C14.5122 7.196 14.5182 6.887 14.4762 6.569C14.4402 6.251 14.3232 6.092 14.1252 6.092C13.8372 6.092 13.6272 6.458 13.4952 7.19C13.3692 7.922 13.1142 9.386 12.7302 11.582C12.3402 13.766 12.0822 15.224 11.9562 15.956C11.8242 16.688 11.9022 17.054 12.1902 17.054Z" fill="#888888"/>
</svg>
