<svg width="24" height="24" viewBox="0 0 24 24" fill="none" xmlns="http://www.w3.org/2000/svg">
<path d="M10.2486 17H10.4466L10.5456 13.067H10.9596L11.0586 17H11.2566L10.9416 4.85H10.5636L10.2486 17ZM10.5456 12.869L10.7436 5.048H10.7616L10.9596 12.869H10.5456ZM12.2072 21.122C12.3452 21.122 12.4532 21.056 12.5312 20.924C12.6092 20.798 12.6692 20.522 12.7112 20.096C12.7592 19.67 12.7832 19.022 12.7832 18.152V6.2H12.5852V7.226V18.134C12.5852 19.34 12.5552 20.108 12.4952 20.438C12.4412 20.774 12.3452 20.942 12.2072 20.942C12.1112 20.942 12.0332 20.87 11.9732 20.726C11.9132 20.588 11.8742 20.321 11.8562 19.925C11.8382 19.535 11.8292 18.941 11.8292 18.143H11.6312C11.6312 19.457 11.6732 20.282 11.7572 20.618C11.8412 20.954 11.9912 21.122 12.2072 21.122ZM12.0632 17.054C12.2612 17.054 12.4112 16.913 12.5132 16.631C12.6152 16.349 12.6662 16.022 12.6662 15.65L12.5852 15.362C12.5852 15.626 12.5312 15.941 12.4232 16.307C12.3212 16.673 12.2072 16.856 12.0812 16.856C11.9132 16.856 11.8292 16.511 11.8292 15.821C11.8292 15.131 11.8292 13.718 11.8292 11.582C11.8292 9.434 11.8292 8.015 11.8292 7.325C11.8292 6.635 11.9132 6.29 12.0812 6.29C12.2072 6.29 12.3212 6.473 12.4232 6.839C12.5312 7.205 12.5852 7.52 12.5852 7.784L12.6392 7.496C12.6392 7.196 12.5912 6.887 12.4952 6.569C12.4052 6.251 12.2612 6.092 12.0632 6.092C11.7752 6.092 11.6312 6.458 11.6312 7.19C11.6312 7.922 11.6312 9.386 11.6312 11.582C11.6312 13.766 11.6312 15.224 11.6312 15.956C11.6312 16.688 11.7752 17.054 12.0632 17.054Z" fill="#888888"/>
</svg>
