<svg width="24" height="24" viewBox="0 0 24 24" fill="none" xmlns="http://www.w3.org/2000/svg">
<path d="M0.473633 17C0.500977 16.8861 0.521484 16.7471 0.535156 16.583C0.548828 16.4144 0.555664 16.2412 0.555664 16.0635C0.555664 15.8994 0.548828 15.7467 0.535156 15.6055C0.526042 15.4596 0.510091 15.332 0.487305 15.2227C0.719727 15.2135 0.917969 15.1725 1.08203 15.0996C1.24609 15.0221 1.38053 14.9378 1.48535 14.8467C1.59473 14.6781 1.70638 14.4889 1.82031 14.2793C1.93424 14.0697 2.03678 13.8555 2.12793 13.6367C2.22363 13.4134 2.30111 13.1924 2.36035 12.9736C2.4196 12.7503 2.44922 12.543 2.44922 12.3516C2.44922 12.2741 2.43783 12.1966 2.41504 12.1191C2.39225 12.0417 2.35352 11.9938 2.29883 11.9756C2.43555 11.9391 2.57227 11.8389 2.70898 11.6748C2.8457 11.5107 2.97786 11.3079 3.10547 11.0664C3.23307 10.8249 3.35156 10.556 3.46094 10.2598C3.57031 9.96354 3.66602 9.66504 3.74805 9.36426C3.83008 9.05892 3.89388 8.7627 3.93945 8.47559C3.98503 8.18848 4.00781 7.93327 4.00781 7.70996C4.00781 7.63249 4.00326 7.55729 3.99414 7.48438C3.98503 7.41146 3.98047 7.34993 3.98047 7.2998C3.98047 7.27702 3.98047 7.25651 3.98047 7.23828C3.98503 7.22005 3.9873 7.19271 3.9873 7.15625C4.09212 7.19727 4.22201 7.23372 4.37695 7.26562C4.53646 7.29297 4.71419 7.31803 4.91016 7.34082C5.10612 7.35905 5.31576 7.37272 5.53906 7.38184C5.76237 7.39095 5.99479 7.39551 6.23633 7.39551C6.44596 7.39551 6.66016 7.39095 6.87891 7.38184C7.09766 7.37272 7.30957 7.35905 7.51465 7.34082C7.71973 7.31803 7.91113 7.29297 8.08887 7.26562C8.2666 7.23372 8.41471 7.19727 8.5332 7.15625V7.18359V7.24512C8.5332 7.29525 8.52637 7.35905 8.5127 7.43652C8.50358 7.50944 8.49902 7.59147 8.49902 7.68262C8.49902 7.89225 8.51725 8.13835 8.55371 8.4209C8.59473 8.70345 8.64941 8.9974 8.71777 9.30273C8.78613 9.60352 8.86816 9.9043 8.96387 10.2051C9.06413 10.5013 9.1735 10.7747 9.29199 11.0254C9.41048 11.2715 9.53809 11.4811 9.6748 11.6543C9.81152 11.8229 9.95508 11.93 10.1055 11.9756C10.0417 11.9984 9.99609 12.0439 9.96875 12.1123C9.94596 12.1761 9.93457 12.2559 9.93457 12.3516C9.93457 12.543 9.96191 12.7503 10.0166 12.9736C10.0758 13.1924 10.151 13.4134 10.2422 13.6367C10.3379 13.8555 10.4404 14.0674 10.5498 14.2725C10.6637 14.4775 10.7754 14.6621 10.8848 14.8262C10.9531 14.8672 11.0352 14.9105 11.1309 14.9561C11.2266 15.0016 11.3268 15.0449 11.4316 15.0859C11.5365 15.127 11.6413 15.1611 11.7461 15.1885C11.8509 15.2113 11.9489 15.2227 12.04 15.2227C12.0173 15.332 11.999 15.4596 11.9854 15.6055C11.9762 15.7467 11.9717 15.8994 11.9717 16.0635C11.9717 16.2412 11.9785 16.4144 11.9922 16.583C12.0059 16.7471 12.0264 16.8861 12.0537 17C11.8896 16.9818 11.7005 16.9635 11.4863 16.9453C11.2721 16.9225 11.042 16.9043 10.7959 16.8906C10.5498 16.8724 10.2946 16.8587 10.0303 16.8496C9.76595 16.8359 9.50163 16.8291 9.2373 16.8291C8.75423 16.8291 8.29395 16.8451 7.85645 16.877C7.4235 16.9043 7.05664 16.9453 6.75586 17C6.76953 16.9225 6.78092 16.8018 6.79004 16.6377C6.80371 16.4691 6.81055 16.2822 6.81055 16.0771C6.81055 15.9906 6.80827 15.904 6.80371 15.8174C6.79915 15.7262 6.7946 15.6419 6.79004 15.5645C6.78548 15.487 6.77865 15.4186 6.76953 15.3594C6.76497 15.2956 6.76042 15.25 6.75586 15.2227C6.83789 15.2227 6.92448 15.2204 7.01562 15.2158C7.10677 15.2067 7.19564 15.193 7.28223 15.1748C7.37337 15.1566 7.45996 15.1315 7.54199 15.0996C7.62402 15.0677 7.69694 15.0244 7.76074 14.9697C7.75163 14.7874 7.72201 14.6325 7.67188 14.5049C7.62174 14.3727 7.52604 14.2633 7.38477 14.1768C7.24805 14.0902 7.05436 14.0264 6.80371 13.9854C6.55762 13.9443 6.23405 13.9238 5.83301 13.9238C5.47298 13.9238 5.1722 13.9375 4.93066 13.9648C4.69368 13.9922 4.5 14.0446 4.34961 14.1221C4.20378 14.195 4.0944 14.2998 4.02148 14.4365C3.95312 14.5687 3.90983 14.7441 3.8916 14.9629C3.95996 15.0176 4.04199 15.0609 4.1377 15.0928C4.2334 15.1247 4.33138 15.152 4.43164 15.1748C4.53646 15.193 4.639 15.2067 4.73926 15.2158C4.84408 15.2204 4.9375 15.2227 5.01953 15.2227C5.01042 15.25 5.0013 15.2933 4.99219 15.3525C4.98763 15.4118 4.98307 15.4824 4.97852 15.5645C4.97396 15.6419 4.9694 15.7262 4.96484 15.8174C4.96484 15.9085 4.96484 15.9951 4.96484 16.0771C4.96484 16.2822 4.9694 16.4691 4.97852 16.6377C4.99219 16.8018 5.00586 16.9225 5.01953 17C4.67318 16.9362 4.32227 16.8929 3.9668 16.8701C3.61133 16.8428 3.24902 16.8291 2.87988 16.8291C2.4515 16.8291 2.03451 16.8428 1.62891 16.8701C1.22786 16.8929 0.842773 16.9362 0.473633 17ZM4.84863 11.9209C4.84863 12.0531 4.8623 12.1624 4.88965 12.249C4.92155 12.3356 4.97396 12.404 5.04688 12.4541C5.12435 12.5042 5.22689 12.5407 5.35449 12.5635C5.48665 12.5817 5.65299 12.5908 5.85352 12.5908C6.05404 12.5908 6.2181 12.5817 6.3457 12.5635C6.47786 12.5407 6.5804 12.5042 6.65332 12.4541C6.73079 12.404 6.7832 12.3356 6.81055 12.249C6.84245 12.1624 6.8584 12.0531 6.8584 11.9209C6.8584 11.7614 6.81738 11.5654 6.73535 11.333C6.65332 11.1006 6.55762 10.8568 6.44824 10.6016C6.33887 10.3464 6.22721 10.0911 6.11328 9.83594C5.99935 9.58073 5.91276 9.35059 5.85352 9.14551C5.78516 9.35059 5.69401 9.58073 5.58008 9.83594C5.46615 10.0911 5.35449 10.3464 5.24512 10.6016C5.1403 10.8568 5.04688 11.1006 4.96484 11.333C4.88737 11.5654 4.84863 11.7614 4.84863 11.9209ZM12.9902 16.959C13.1133 16.9453 13.25 16.9248 13.4004 16.8975C13.5508 16.8656 13.7035 16.8268 13.8584 16.7812C14.0179 16.7311 14.1706 16.6719 14.3164 16.6035C14.4622 16.5306 14.5921 16.4463 14.7061 16.3506C14.8245 16.2503 14.918 16.1387 14.9863 16.0156C15.0547 15.888 15.0889 15.7445 15.0889 15.585C15.0889 15.4346 15.0524 15.2933 14.9795 15.1611C14.9066 15.0244 14.8109 14.9014 14.6924 14.792C14.5785 14.6781 14.4463 14.5778 14.2959 14.4912C14.1455 14.4046 13.9906 14.3317 13.8311 14.2725C13.6761 14.2132 13.5257 14.1676 13.3799 14.1357C13.234 14.1038 13.1042 14.0879 12.9902 14.0879C13.0449 14.0332 13.0928 13.958 13.1338 13.8623C13.1748 13.762 13.2067 13.6504 13.2295 13.5273C13.2523 13.3997 13.2682 13.263 13.2773 13.1172C13.291 12.9668 13.2979 12.8141 13.2979 12.6592C13.2979 12.4951 13.291 12.3356 13.2773 12.1807C13.2637 12.0212 13.2432 11.873 13.2158 11.7363C13.193 11.5996 13.1611 11.4811 13.1201 11.3809C13.0837 11.276 13.0404 11.1986 12.9902 11.1484C13.1771 11.112 13.3822 11.0436 13.6055 10.9434C13.8288 10.8385 14.0407 10.7155 14.2412 10.5742C14.4463 10.4329 14.624 10.2803 14.7744 10.1162C14.9248 9.94759 15.0205 9.78125 15.0615 9.61719C15.1618 9.6582 15.2939 9.69466 15.458 9.72656C15.6266 9.75391 15.8135 9.77897 16.0186 9.80176C16.2236 9.81999 16.4378 9.83366 16.6611 9.84277C16.889 9.85189 17.1146 9.85645 17.3379 9.85645C17.5111 9.85645 17.6842 9.85417 17.8574 9.84961C18.0306 9.84505 18.1969 9.83594 18.3564 9.82227C18.5251 9.64453 18.6344 9.41667 18.6846 9.13867C18.7347 8.86068 18.7598 8.55078 18.7598 8.20898C18.7598 8.10417 18.7575 8.01074 18.7529 7.92871C18.7529 7.84212 18.7484 7.76009 18.7393 7.68262C18.7347 7.60514 18.7256 7.52767 18.7119 7.4502C18.6982 7.37272 18.6823 7.28613 18.6641 7.19043C18.7051 7.21322 18.778 7.236 18.8828 7.25879C18.9876 7.27702 19.1152 7.29525 19.2656 7.31348C19.416 7.32715 19.5824 7.33854 19.7646 7.34766C19.9515 7.35677 20.1475 7.36133 20.3525 7.36133C20.4574 7.36133 20.5827 7.35905 20.7285 7.35449C20.8789 7.34538 21.0316 7.33398 21.1865 7.32031C21.3415 7.30208 21.4873 7.28385 21.624 7.26562C21.7607 7.24284 21.8678 7.21777 21.9453 7.19043C21.918 7.24056 21.8906 7.3112 21.8633 7.40234C21.8405 7.49349 21.82 7.59603 21.8018 7.70996C21.7835 7.81934 21.7676 7.93555 21.7539 8.05859C21.7448 8.17708 21.7402 8.28646 21.7402 8.38672C21.7402 8.56445 21.7448 8.71257 21.7539 8.83105C21.763 8.94499 21.7744 9.04525 21.7881 9.13184C21.8018 9.21842 21.8154 9.2959 21.8291 9.36426C21.8473 9.43262 21.8633 9.50553 21.877 9.58301C21.8086 9.56934 21.7266 9.55794 21.6309 9.54883C21.5352 9.53516 21.4372 9.52376 21.3369 9.51465C21.2367 9.50098 21.1387 9.49186 21.043 9.4873C20.9518 9.48275 20.8766 9.48047 20.8174 9.48047C20.4847 9.48047 20.2158 9.54199 20.0107 9.66504C19.8102 9.78353 19.6963 9.97266 19.6689 10.2324C19.7783 10.3555 19.9036 10.4717 20.0449 10.5811C20.1908 10.6859 20.3411 10.7793 20.4961 10.8613C20.651 10.9388 20.8083 11.0026 20.9678 11.0527C21.1273 11.1029 21.2822 11.1348 21.4326 11.1484C21.3825 11.2031 21.3369 11.2829 21.2959 11.3877C21.2594 11.4925 21.2275 11.6133 21.2002 11.75C21.1774 11.8822 21.1592 12.028 21.1455 12.1875C21.1318 12.3424 21.125 12.4997 21.125 12.6592C21.125 12.8141 21.1318 12.9668 21.1455 13.1172C21.1592 13.263 21.1774 13.3997 21.2002 13.5273C21.2275 13.6504 21.2617 13.762 21.3027 13.8623C21.3438 13.958 21.3916 14.0332 21.4463 14.0879C21.4053 14.0788 21.3597 14.0742 21.3096 14.0742C21.2594 14.0697 21.2139 14.0674 21.1729 14.0674C20.9587 14.0674 20.7422 14.113 20.5234 14.2041C20.3047 14.2907 20.1064 14.4001 19.9287 14.5322C19.7555 14.6644 19.612 14.8079 19.498 14.9629C19.3841 15.1178 19.3226 15.2614 19.3135 15.3936C19.2542 15.3298 19.1631 15.2751 19.04 15.2295C18.917 15.1839 18.7757 15.1475 18.6162 15.1201C18.4567 15.0928 18.2812 15.0745 18.0898 15.0654C17.903 15.0518 17.7139 15.0449 17.5225 15.0449C17.3538 15.0449 17.2171 15.0586 17.1123 15.0859C17.0075 15.1087 16.9255 15.1429 16.8662 15.1885C16.807 15.2295 16.766 15.2773 16.7432 15.332C16.7249 15.3867 16.7158 15.4437 16.7158 15.5029C16.7158 15.5895 16.7318 15.6647 16.7637 15.7285C16.8001 15.7923 16.8571 15.8447 16.9346 15.8857C17.012 15.9268 17.1169 15.9587 17.249 15.9814C17.3812 15.9997 17.5452 16.0088 17.7412 16.0088C17.96 16.0088 18.1878 16.002 18.4248 15.9883C18.6663 15.9746 18.8919 15.9541 19.1016 15.9268C19.3158 15.8994 19.5049 15.8652 19.6689 15.8242C19.833 15.7786 19.9515 15.7262 20.0244 15.667C20.0791 15.8265 20.1862 15.986 20.3457 16.1455C20.5052 16.305 20.6852 16.4508 20.8857 16.583C21.0908 16.7152 21.3005 16.8223 21.5146 16.9043C21.7334 16.9863 21.9271 17.0273 22.0957 17.0273C22.0456 17.0729 22.0023 17.1413 21.9658 17.2324C21.9294 17.3281 21.8997 17.4352 21.877 17.5537C21.8542 17.6768 21.8359 17.8044 21.8223 17.9365C21.8132 18.0732 21.8086 18.2054 21.8086 18.333C21.8086 18.4652 21.8154 18.5951 21.8291 18.7227C21.8428 18.8548 21.861 18.9756 21.8838 19.085C21.9111 19.1989 21.943 19.2969 21.9795 19.3789C22.016 19.4609 22.057 19.5202 22.1025 19.5566C21.8975 19.5566 21.6833 19.5908 21.46 19.6592C21.2412 19.7321 21.0316 19.8255 20.8311 19.9395C20.6351 20.0579 20.4619 20.1878 20.3115 20.3291C20.1611 20.4749 20.0563 20.6185 19.9971 20.7598C19.9333 20.7324 19.8239 20.7028 19.6689 20.6709C19.514 20.6436 19.3294 20.6162 19.1152 20.5889C18.901 20.5615 18.6663 20.5387 18.4111 20.5205C18.1605 20.5068 17.9053 20.5 17.6455 20.5C17.3721 20.5 17.0986 20.5046 16.8252 20.5137C16.5518 20.5273 16.2965 20.5456 16.0596 20.5684C15.8271 20.5911 15.6243 20.6185 15.4512 20.6504C15.278 20.6823 15.1572 20.7188 15.0889 20.7598C15.0615 20.6322 14.9681 20.4977 14.8086 20.3564C14.6491 20.2152 14.4622 20.0853 14.248 19.9668C14.0339 19.8483 13.8105 19.7503 13.5781 19.6729C13.3503 19.5954 13.152 19.5566 12.9834 19.5566C13.0335 19.5202 13.0768 19.4564 13.1133 19.3652C13.1543 19.2741 13.1885 19.167 13.2158 19.0439C13.2432 18.9209 13.2637 18.791 13.2773 18.6543C13.291 18.5176 13.2979 18.3877 13.2979 18.2646C13.2979 18.1462 13.291 18.0186 13.2773 17.8818C13.2637 17.7451 13.2432 17.6152 13.2158 17.4922C13.193 17.3691 13.1611 17.2598 13.1201 17.1641C13.0837 17.0684 13.0404 17 12.9902 16.959ZM15.9365 12.4746C15.9365 12.7344 15.9684 12.9508 16.0322 13.124C16.096 13.2972 16.1826 13.4362 16.292 13.541C16.4059 13.6413 16.5381 13.7142 16.6885 13.7598C16.8434 13.8008 17.0075 13.8213 17.1807 13.8213C17.3538 13.8213 17.5156 13.8008 17.666 13.7598C17.821 13.7142 17.9531 13.6413 18.0625 13.541C18.1764 13.4362 18.2653 13.2972 18.3291 13.124C18.3929 12.9508 18.4248 12.7344 18.4248 12.4746C18.4248 12.2148 18.3929 11.9984 18.3291 11.8252C18.2653 11.652 18.1764 11.5153 18.0625 11.415C17.9531 11.3102 17.821 11.2373 17.666 11.1963C17.5156 11.1507 17.3538 11.1279 17.1807 11.1279C17.0075 11.1279 16.8434 11.1507 16.6885 11.1963C16.5381 11.2373 16.4059 11.3102 16.292 11.415C16.1826 11.5153 16.096 11.652 16.0322 11.8252C15.9684 11.9984 15.9365 12.2148 15.9365 12.4746ZM16.0596 18.2441C16.0596 18.5859 16.1781 18.8503 16.415 19.0371C16.6566 19.224 17.012 19.3174 17.4814 19.3174C17.9508 19.3174 18.304 19.224 18.541 19.0371C18.7826 18.8503 18.9033 18.5859 18.9033 18.2441C18.9033 17.9023 18.7826 17.638 18.541 17.4512C18.304 17.2643 17.9508 17.1709 17.4814 17.1709C17.012 17.1709 16.6566 17.2643 16.415 17.4512C16.1781 17.638 16.0596 17.9023 16.0596 18.2441Z" fill="#333333"/>
</svg>
