<svg width="24" height="24" viewBox="0 0 24 24" fill="none" xmlns="http://www.w3.org/2000/svg">
<path d="M3.48473 17L7.34873 7.396H8.44073L12.3047 17H11.4927L10.3727 14.228H5.36073L4.25473 17H3.48473ZM5.64073 13.556H10.0927L8.69273 10.07C8.66473 9.99533 8.62273 9.88333 8.56673 9.734C8.51073 9.58467 8.44539 9.412 8.37073 9.216C8.29606 9.02 8.21673 8.81933 8.13273 8.614C8.05806 8.40867 7.98806 8.21733 7.92273 8.04H7.81073C7.74539 8.21733 7.66606 8.42733 7.57273 8.67C7.47939 8.91267 7.38606 9.16 7.29273 9.412C7.19939 9.65467 7.11539 9.874 7.04073 10.07L5.64073 13.556ZM14.7462 19.548C14.3729 19.548 14.0322 19.464 13.7242 19.296C13.4162 19.1373 13.1735 18.9133 12.9962 18.624C12.8189 18.3347 12.7302 18.0127 12.7302 17.658C12.7302 17.2473 12.8329 16.888 13.0382 16.58C13.2529 16.2627 13.5422 16.0293 13.9062 15.88C13.6449 15.7773 13.4489 15.6187 13.3182 15.404C13.1969 15.1893 13.1362 14.97 13.1362 14.746C13.1362 14.438 13.2435 14.1673 13.4582 13.934C13.6729 13.6913 13.9529 13.5327 14.2982 13.458C14.0089 13.2527 13.7709 13.0007 13.5842 12.702C13.4069 12.394 13.3182 12.0673 13.3182 11.722C13.3182 11.302 13.4162 10.924 13.6122 10.588C13.8082 10.2427 14.1115 9.972 14.5222 9.776C14.9422 9.57067 15.4742 9.468 16.1182 9.468C16.4449 9.468 16.7435 9.496 17.0142 9.552C17.2849 9.59867 17.5275 9.67333 17.7422 9.776C18.0689 9.692 18.3349 9.54267 18.5402 9.328C18.7549 9.104 18.8995 8.81933 18.9742 8.474H19.6742C19.6555 8.70733 19.5855 8.94533 19.4642 9.188C19.3522 9.42133 19.1889 9.622 18.9742 9.79C18.7689 9.958 18.5169 10.0607 18.2182 10.098C18.4609 10.3313 18.6382 10.588 18.7502 10.868C18.8622 11.1387 18.9182 11.4233 18.9182 11.722C18.9182 12.1327 18.8202 12.5107 18.6242 12.856C18.4282 13.192 18.1249 13.4627 17.7142 13.668C17.3035 13.8733 16.7715 13.976 16.1182 13.976H14.9422C14.6249 13.976 14.3589 14.0367 14.1442 14.158C13.9295 14.27 13.8222 14.4753 13.8222 14.774C13.8222 15.0353 13.9342 15.236 14.1582 15.376C14.3915 15.5067 14.6762 15.572 15.0122 15.572H17.7422C18.2742 15.572 18.7035 15.7587 19.0302 16.132C19.3662 16.496 19.5342 16.9487 19.5342 17.49C19.5342 17.8727 19.4409 18.218 19.2542 18.526C19.0769 18.8433 18.8249 19.0907 18.4982 19.268C18.1809 19.4547 17.8122 19.548 17.3922 19.548H14.7462ZM14.7882 18.96H17.3642C17.6349 18.96 17.8822 18.8947 18.1062 18.764C18.3302 18.6427 18.5075 18.4747 18.6382 18.26C18.7782 18.0547 18.8482 17.8307 18.8482 17.588C18.8482 17.1773 18.7315 16.8413 18.4982 16.58C18.2649 16.3187 17.9802 16.188 17.6442 16.188H14.7882C14.4149 16.188 14.0929 16.328 13.8222 16.608C13.5515 16.8787 13.4162 17.2053 13.4162 17.588C13.4162 18.008 13.5515 18.3393 13.8222 18.582C14.0929 18.834 14.4149 18.96 14.7882 18.96ZM16.1182 13.374C16.8369 13.374 17.3689 13.2247 17.7142 12.926C18.0595 12.6273 18.2322 12.226 18.2322 11.722C18.2322 11.218 18.0595 10.8167 17.7142 10.518C17.3689 10.2193 16.8369 10.07 16.1182 10.07C15.4089 10.07 14.8769 10.2193 14.5222 10.518C14.1769 10.8167 14.0042 11.218 14.0042 11.722C14.0042 12.03 14.0789 12.31 14.2282 12.562C14.3869 12.814 14.6249 13.0147 14.9422 13.164C15.2595 13.304 15.6515 13.374 16.1182 13.374Z" fill="#888888"/>
</svg>
