<svg width="24" height="24" viewBox="0 0 24 24" fill="none" xmlns="http://www.w3.org/2000/svg">
<path d="M7.99015 7.396H9.96415L11.9941 17H10.3981L9.92215 14.662H5.48415L4.21015 17H2.57215L7.99015 7.396ZM9.65615 13.332L9.15215 10.756C9.11482 10.588 9.04482 10.21 8.94215 9.622L8.78815 8.726H8.71815L7.65415 10.714L6.21215 13.332H9.65615ZM15.5445 19.548C14.6858 19.548 14.0045 19.3707 13.5005 19.016C12.9965 18.6707 12.7398 18.162 12.7305 17.49V17.35H14.1305C14.1678 18.0313 14.6391 18.372 15.5445 18.372C16.7391 18.372 17.4765 17.6393 17.7565 16.174L17.8265 15.838H17.7425C17.1451 16.51 16.3985 16.846 15.5025 16.846C14.7558 16.846 14.1631 16.6313 13.7245 16.202C13.2858 15.7633 13.0665 15.11 13.0665 14.242C13.0665 13.3553 13.2065 12.548 13.4865 11.82C13.7758 11.092 14.1865 10.518 14.7185 10.098C15.2505 9.678 15.8758 9.468 16.5945 9.468C17.1078 9.468 17.5558 9.566 17.9385 9.762C18.3211 9.958 18.6105 10.2427 18.8065 10.616H18.8905L19.1985 9.636H20.3465L19.1985 16.118C18.9931 17.2753 18.5918 18.134 17.9945 18.694C17.4065 19.2633 16.5898 19.548 15.5445 19.548ZM16.0345 15.628C16.5478 15.628 16.9771 15.4647 17.3225 15.138C17.6771 14.8113 17.9385 14.3913 18.1065 13.878C18.2838 13.3647 18.3725 12.828 18.3725 12.268C18.3725 11.2133 17.8918 10.686 16.9305 10.686C16.1371 10.686 15.5445 11.022 15.1525 11.694C14.7605 12.366 14.5645 13.192 14.5645 14.172C14.5645 14.6853 14.6811 15.0587 14.9145 15.292C15.1478 15.516 15.5211 15.628 16.0345 15.628Z" fill="#333333"/>
</svg>
