<svg width="24" height="24" viewBox="0 0 24 24" fill="none" xmlns="http://www.w3.org/2000/svg">
<path d="M7.16755 7.396H9.42155L11.4795 17H9.63155L9.21155 14.914H4.78755L3.63955 17H1.74955L7.16755 7.396ZM8.91755 13.402L8.42755 10.896C8.36221 10.5787 8.27355 10.0513 8.16155 9.314C8.13355 9.202 8.11488 9.118 8.10555 9.062C8.10555 9.006 8.10088 8.964 8.09155 8.936H8.02155C8.00288 8.97333 7.94221 9.09 7.83955 9.286C7.45688 10.0233 7.17688 10.5553 6.99955 10.882L5.62755 13.402H8.91755ZM15.1773 19.548C14.2813 19.548 13.572 19.3707 13.0493 19.016C12.5266 18.6707 12.2606 18.162 12.2513 17.49V17.35H13.8893C13.9173 17.6393 14.0386 17.8493 14.2533 17.98C14.4773 18.1107 14.7993 18.176 15.2193 18.176C16.33 18.176 17.0113 17.5087 17.2633 16.174L17.3333 15.782H17.2493C16.6986 16.454 15.9706 16.79 15.0653 16.79C14.3186 16.79 13.7166 16.566 13.2593 16.118C12.8113 15.67 12.5873 14.998 12.5873 14.102C12.5873 13.2993 12.7226 12.5433 12.9933 11.834C13.264 11.1247 13.6653 10.5553 14.1973 10.126C14.7293 9.68733 15.3686 9.468 16.1153 9.468C16.6286 9.468 17.072 9.566 17.4453 9.762C17.828 9.94867 18.1126 10.2333 18.2993 10.616H18.3973L18.7053 9.636H20.0913L18.9433 16.118C18.738 17.2753 18.332 18.134 17.7253 18.694C17.1186 19.2633 16.2693 19.548 15.1773 19.548ZM15.6813 15.348C16.1853 15.348 16.6006 15.1987 16.9273 14.9C17.254 14.592 17.492 14.2093 17.6413 13.752C17.8 13.2853 17.8793 12.8093 17.8793 12.324C17.8793 11.3813 17.4266 10.91 16.5213 10.91C15.756 10.91 15.196 11.2227 14.8413 11.848C14.496 12.464 14.3233 13.1873 14.3233 14.018C14.3233 14.4753 14.4306 14.8113 14.6453 15.026C14.86 15.2407 15.2053 15.348 15.6813 15.348Z" fill="#333333"/>
</svg>
