<svg width="24" height="24" viewBox="0 0 24 24" fill="none" xmlns="http://www.w3.org/2000/svg">
<path d="M8.27141 7.396H9.99341L12.0234 17H10.6234L10.1194 14.438H5.66741L4.26741 17H2.86741L8.27141 7.396ZM9.88141 13.276L9.36341 10.63L8.95741 8.544H8.88741L7.78141 10.574L6.29741 13.276H9.88141ZM15.4393 19.548C14.5993 19.548 13.9366 19.3707 13.4513 19.016C12.966 18.6707 12.7233 18.162 12.7233 17.49V17.35H13.9273C13.9553 18.1433 14.45 18.54 15.4113 18.54C16.6713 18.54 17.4553 17.7513 17.7633 16.174L17.8193 15.88H17.7353C17.1193 16.552 16.3586 16.888 15.4533 16.888C14.6973 16.888 14.1093 16.678 13.6893 16.258C13.2786 15.838 13.0733 15.2033 13.0733 14.354C13.0733 13.3927 13.218 12.5433 13.5073 11.806C13.806 11.0593 14.2213 10.4853 14.7533 10.084C15.2853 9.67333 15.8966 9.468 16.5873 9.468C17.11 9.468 17.5626 9.566 17.9453 9.762C18.328 9.958 18.6173 10.2473 18.8133 10.63H18.8973L19.2193 9.636H20.1433L18.9953 16.118C18.79 17.266 18.3933 18.1247 17.8053 18.694C17.2266 19.2633 16.438 19.548 15.4393 19.548ZM15.9153 15.866C16.4286 15.866 16.872 15.6933 17.2453 15.348C17.6186 15.0027 17.8986 14.55 18.0853 13.99C18.272 13.43 18.3653 12.8373 18.3653 12.212C18.3653 11.6427 18.244 11.2133 18.0013 10.924C17.7586 10.6347 17.376 10.49 16.8533 10.49C16.0413 10.49 15.4206 10.8493 14.9913 11.568C14.562 12.2867 14.3473 13.2013 14.3473 14.312C14.3473 14.872 14.4686 15.2733 14.7113 15.516C14.9633 15.7493 15.3646 15.866 15.9153 15.866Z" fill="#333333"/>
</svg>
