<svg width="24" height="24" viewBox="0 0 24 24" fill="none" xmlns="http://www.w3.org/2000/svg">
<path d="M4.27409 17L7.34009 7.396H9.09009L12.1561 17H10.6581L10.0281 14.942H6.30409L5.67409 17H4.27409ZM6.68209 13.668H9.63609L8.43209 9.734C8.40409 9.60333 8.36675 9.44933 8.32009 9.272C8.28275 9.09467 8.25009 8.94067 8.22209 8.81C8.20342 8.67 8.19409 8.6 8.19409 8.6H8.13809C8.13809 8.6 8.12409 8.67 8.09609 8.81C8.07742 8.95 8.04942 9.10867 8.01209 9.286C7.97475 9.46333 7.93742 9.61267 7.90009 9.734L6.68209 13.668ZM14.0957 19.548C13.5451 19.548 13.1111 19.38 12.7937 19.044C12.4857 18.7173 12.3317 18.3067 12.3317 17.812C12.3317 17.4573 12.4204 17.1447 12.5977 16.874C12.7751 16.594 13.0037 16.3933 13.2837 16.272C13.0971 16.1507 12.9477 15.992 12.8357 15.796C12.7331 15.6 12.6817 15.39 12.6817 15.166C12.6817 14.858 12.7797 14.5967 12.9757 14.382C13.1811 14.158 13.4331 13.9947 13.7317 13.892C13.4611 13.6773 13.2464 13.4067 13.0877 13.08C12.9384 12.744 12.8637 12.3707 12.8637 11.96C12.8637 11.1853 13.0831 10.5787 13.5217 10.14C13.9604 9.692 14.5764 9.468 15.3697 9.468C15.7804 9.468 16.1537 9.552 16.4897 9.72C16.7977 9.53333 17.0077 9.32333 17.1197 9.09C17.2411 8.85667 17.3111 8.63733 17.3297 8.432H18.4637C18.4637 8.89867 18.3517 9.29067 18.1277 9.608C17.9131 9.916 17.6191 10.126 17.2457 10.238C17.4417 10.4433 17.5957 10.6907 17.7077 10.98C17.8197 11.2693 17.8757 11.596 17.8757 11.96C17.8757 12.716 17.6564 13.318 17.2177 13.766C16.7791 14.214 16.1771 14.438 15.4117 14.438H14.6557C14.4784 14.438 14.3291 14.494 14.2077 14.606C14.0957 14.718 14.0397 14.8627 14.0397 15.04C14.0397 15.1987 14.1004 15.334 14.2217 15.446C14.3431 15.558 14.4831 15.614 14.6417 15.614H16.8817C17.3951 15.614 17.8057 15.7867 18.1137 16.132C18.4311 16.4773 18.5897 16.902 18.5897 17.406C18.5897 17.8073 18.5011 18.1713 18.3237 18.498C18.1464 18.8247 17.8897 19.0813 17.5537 19.268C17.2177 19.4547 16.8211 19.548 16.3637 19.548H14.0957ZM14.4457 18.47H16.4337C16.6671 18.47 16.8631 18.3907 17.0217 18.232C17.1804 18.0733 17.2597 17.882 17.2597 17.658C17.2597 17.4247 17.1897 17.2333 17.0497 17.084C16.9191 16.9347 16.7231 16.86 16.4617 16.86H14.4457C14.1937 16.86 13.9977 16.9347 13.8577 17.084C13.7177 17.2427 13.6477 17.434 13.6477 17.658C13.6477 17.882 13.7177 18.0733 13.8577 18.232C13.9977 18.3907 14.1937 18.47 14.4457 18.47ZM15.3557 13.402C15.7477 13.402 16.0417 13.2713 16.2377 13.01C16.4431 12.7487 16.5457 12.3987 16.5457 11.96C16.5457 11.4933 16.4431 11.1387 16.2377 10.896C16.0417 10.644 15.7477 10.518 15.3557 10.518C14.9731 10.518 14.6791 10.6487 14.4737 10.91C14.2777 11.162 14.1797 11.512 14.1797 11.96C14.1797 12.408 14.2777 12.7627 14.4737 13.024C14.6791 13.276 14.9731 13.402 15.3557 13.402Z" fill="#888888"/>
</svg>
