<svg width="24" height="24" viewBox="0 0 24 24" fill="none" xmlns="http://www.w3.org/2000/svg">
<path d="M6.84495 7.396H9.39295L11.4509 17H9.37895L9.00095 15.166H4.59095L3.58295 17H1.41295L6.84495 7.396ZM8.66495 13.472L8.18895 11.036C8.12361 10.7373 8.02561 10.1073 7.89495 9.146H7.82495C7.34895 10.1073 7.02695 10.7373 6.85895 11.036L5.54295 13.472H8.66495ZM15.2965 19.548C14.3818 19.548 13.6491 19.3707 13.0985 19.016C12.5478 18.6707 12.2678 18.162 12.2585 17.49V17.35H14.1205C14.1578 17.574 14.2745 17.7327 14.4705 17.826C14.6758 17.9287 14.9745 17.98 15.3665 17.98C16.4025 17.98 17.0325 17.378 17.2565 16.174L17.3405 15.726H17.2565C16.9951 16.062 16.6918 16.3187 16.3465 16.496C16.0105 16.664 15.6045 16.748 15.1285 16.748C14.3818 16.748 13.7705 16.5147 13.2945 16.048C12.8185 15.5813 12.5805 14.8907 12.5805 13.976C12.5805 13.2573 12.7065 12.5527 12.9585 11.862C13.2198 11.1713 13.6165 10.602 14.1485 10.154C14.6805 9.69667 15.3385 9.468 16.1225 9.468C16.6358 9.468 17.0791 9.566 17.4525 9.762C17.8258 9.94867 18.1058 10.2287 18.2925 10.602H18.3905L18.6845 9.636H20.3225L19.1745 16.118C18.9691 17.2847 18.5585 18.148 17.9425 18.708C17.3265 19.268 16.4445 19.548 15.2965 19.548ZM15.8145 15.082C16.3091 15.082 16.7105 14.942 17.0185 14.662C17.3265 14.382 17.5458 14.0367 17.6765 13.626C17.8165 13.2153 17.8865 12.8047 17.8865 12.394C17.8865 11.974 17.7791 11.6613 17.5645 11.456C17.3498 11.2413 17.0325 11.134 16.6125 11.134C15.8658 11.134 15.3385 11.4187 15.0305 11.988C14.7225 12.548 14.5685 13.1733 14.5685 13.864C14.5685 14.2747 14.6665 14.5827 14.8625 14.788C15.0678 14.984 15.3851 15.082 15.8145 15.082Z" fill="#333333"/>
</svg>
