<svg width="24" height="24" viewBox="0 0 24 24" fill="none" xmlns="http://www.w3.org/2000/svg">
<path d="M7.26341 7.396H8.95741L12.6814 17H11.2674L10.3014 14.438H5.84941L4.91141 17H3.53941L7.26341 7.396ZM9.86741 13.276L8.74741 10.28L8.10341 8.544H8.03341L7.40341 10.252L6.28341 13.276H9.86741ZM15.0333 19.548C14.492 19.548 14.0206 19.408 13.6193 19.128C13.2273 18.8573 13.0313 18.4047 13.0313 17.77C13.0313 17.0047 13.428 16.482 14.2213 16.202C13.9973 16.0807 13.8106 15.9267 13.6613 15.74C13.5213 15.544 13.4513 15.32 13.4513 15.068C13.4513 14.704 13.5773 14.4287 13.8293 14.242C14.0906 14.0553 14.3753 13.9247 14.6833 13.85C14.3753 13.626 14.1326 13.3507 13.9553 13.024C13.778 12.6973 13.6893 12.338 13.6893 11.946C13.6893 11.162 13.9553 10.5553 14.4873 10.126C15.0193 9.68733 15.7473 9.468 16.6713 9.468C17.1846 9.468 17.6513 9.552 18.0713 9.72C18.678 9.43067 19.0326 9.006 19.1353 8.446H20.3113C20.3113 8.88467 20.1806 9.26267 19.9193 9.58C19.6673 9.89733 19.322 10.1073 18.8833 10.21C19.406 10.6767 19.6673 11.2553 19.6673 11.946C19.6673 12.73 19.3966 13.3413 18.8553 13.78C18.3233 14.2093 17.5953 14.424 16.6713 14.424H15.4953C15.2433 14.424 15.0473 14.48 14.9073 14.592C14.7766 14.704 14.7113 14.8487 14.7113 15.026C14.7113 15.2033 14.7766 15.348 14.9073 15.46C15.0473 15.572 15.2433 15.628 15.4953 15.628H18.4493C19.028 15.628 19.4853 15.8053 19.8213 16.16C20.1573 16.5053 20.3253 16.9253 20.3253 17.42C20.3253 17.7747 20.246 18.1153 20.0873 18.442C19.9286 18.7687 19.672 19.0347 19.3173 19.24C18.972 19.4453 18.5333 19.548 18.0013 19.548H15.0333ZM16.6853 13.472C17.264 13.472 17.7026 13.3413 18.0013 13.08C18.3 12.8093 18.4493 12.4313 18.4493 11.946C18.4493 11.4607 18.3 11.0873 18.0013 10.826C17.7026 10.5553 17.264 10.42 16.6853 10.42C16.1066 10.42 15.668 10.5553 15.3693 10.826C15.0706 11.0873 14.9213 11.4607 14.9213 11.946C14.9213 12.4313 15.0706 12.8093 15.3693 13.08C15.668 13.3413 16.1066 13.472 16.6853 13.472ZM18.0293 18.554C18.3373 18.554 18.594 18.47 18.7993 18.302C19.0046 18.134 19.1073 17.91 19.1073 17.63C19.1073 17.35 19.0233 17.1307 18.8553 16.972C18.6966 16.804 18.482 16.72 18.2113 16.72H15.1453C14.8746 16.72 14.66 16.804 14.5013 16.972C14.3426 17.1307 14.2633 17.35 14.2633 17.63C14.2633 17.91 14.3426 18.134 14.5013 18.302C14.66 18.47 14.8746 18.554 15.1453 18.554H18.0293Z" fill="#333333"/>
</svg>
