<svg width="24" height="24" viewBox="0 0 24 24" fill="none" xmlns="http://www.w3.org/2000/svg">
<path d="M1.87165 17L7.10765 7.368H10.7056L12.4976 17H9.31965L9.15165 15.642H5.76365L5.11965 17H1.87165ZM6.78565 13.486H8.88565L8.70365 11.946C8.68498 11.7873 8.66632 11.6287 8.64765 11.47C8.62898 11.3113 8.60565 11.1573 8.57765 11.008C8.55898 10.8493 8.54032 10.6907 8.52165 10.532C8.50298 10.3733 8.48432 10.2147 8.46565 10.056H8.40965C8.31632 10.2613 8.21832 10.4713 8.11565 10.686C8.01298 10.8913 7.91032 11.1013 7.80765 11.316C7.71432 11.5213 7.61632 11.7313 7.51365 11.946L6.78565 13.486ZM16.6881 19.926C15.8761 19.926 15.2181 19.8467 14.7141 19.688C14.2195 19.5387 13.8555 19.3193 13.6221 19.03C13.3888 18.75 13.2721 18.4187 13.2721 18.036C13.2721 17.9707 13.2768 17.8633 13.2861 17.714C13.3048 17.5647 13.3421 17.3967 13.3981 17.21H16.1141C16.1048 17.238 16.0955 17.2707 16.0861 17.308C16.0861 17.3453 16.0861 17.378 16.0861 17.406C16.0861 17.518 16.1095 17.616 16.1561 17.7C16.2121 17.784 16.3008 17.8493 16.4221 17.896C16.5528 17.952 16.7255 17.98 16.9401 17.98C17.2575 17.98 17.5141 17.924 17.7101 17.812C17.9155 17.7 18.0695 17.5507 18.1721 17.364C18.2748 17.1867 18.3448 16.9953 18.3821 16.79C18.4101 16.622 18.4381 16.454 18.4661 16.286C18.4941 16.1087 18.5221 15.936 18.5501 15.768H18.4381C18.2421 15.9547 18.0275 16.1133 17.7941 16.244C17.5608 16.3653 17.3181 16.4587 17.0661 16.524C16.8235 16.58 16.5715 16.608 16.3101 16.608C15.7595 16.608 15.2881 16.51 14.8961 16.314C14.5135 16.118 14.2195 15.824 14.0141 15.432C13.8181 15.0307 13.7201 14.5313 13.7201 13.934C13.7201 13.7753 13.7248 13.612 13.7341 13.444C13.7528 13.2667 13.7808 13.0847 13.8181 12.898C14.0328 11.7407 14.4621 10.8773 15.1061 10.308C15.7501 9.72933 16.5528 9.44 17.5141 9.44C18.0088 9.44 18.4335 9.54267 18.7881 9.748C19.1521 9.95333 19.4275 10.2567 19.6141 10.658H19.7121L20.1321 9.608H22.4001L21.1821 16.524C21.0421 17.3267 20.7668 17.9753 20.3561 18.47C19.9455 18.974 19.4275 19.3427 18.8021 19.576C18.1861 19.8093 17.4815 19.926 16.6881 19.926ZM17.5421 14.592C17.7568 14.592 17.9481 14.5547 18.1161 14.48C18.2841 14.396 18.4288 14.284 18.5501 14.144C18.6808 14.004 18.7835 13.85 18.8581 13.682C18.9421 13.5047 18.9981 13.3273 19.0261 13.15C19.0448 13.0287 19.0588 12.9307 19.0681 12.856C19.0775 12.7813 19.0821 12.7207 19.0821 12.674C19.0915 12.618 19.0961 12.5713 19.0961 12.534C19.0961 12.338 19.0588 12.1653 18.9841 12.016C18.9188 11.8573 18.8115 11.736 18.6621 11.652C18.5128 11.5587 18.3168 11.512 18.0741 11.512C17.7848 11.512 17.5421 11.5727 17.3461 11.694C17.1501 11.806 16.9961 11.96 16.8841 12.156C16.7721 12.3427 16.6928 12.5573 16.6461 12.8C16.6088 12.996 16.5808 13.15 16.5621 13.262C16.5528 13.3647 16.5435 13.444 16.5341 13.5C16.5341 13.5467 16.5341 13.5887 16.5341 13.626C16.5341 13.8127 16.5668 13.9807 16.6321 14.13C16.6975 14.27 16.8048 14.382 16.9541 14.466C17.1035 14.55 17.2995 14.592 17.5421 14.592Z" fill="#888888"/>
</svg>
