<svg width="24" height="24" viewBox="0 0 24 24" fill="none" xmlns="http://www.w3.org/2000/svg">
<path d="M2.67311 17L8.07711 7.396H9.46311L11.4931 17H10.3731L9.85511 14.41H5.26311L3.83511 17H2.67311ZM5.80911 13.458H9.64511L9.00111 10.266C8.98244 10.1353 8.95444 9.99533 8.91711 9.846C8.88911 9.68733 8.85644 9.524 8.81911 9.356C8.78178 9.17867 8.74911 9.01067 8.72111 8.852C8.69311 8.684 8.66511 8.53467 8.63711 8.404H8.56711C8.47378 8.59067 8.36178 8.80533 8.23111 9.048C8.10044 9.28133 7.97444 9.51 7.85311 9.734C7.74111 9.958 7.64778 10.14 7.57311 10.28L5.80911 13.458ZM14.8663 19.548C14.4183 19.548 14.0123 19.4827 13.6483 19.352C13.2843 19.2307 12.995 19.044 12.7803 18.792C12.575 18.5493 12.4723 18.2413 12.4723 17.868C12.4723 17.812 12.4723 17.7373 12.4723 17.644C12.4817 17.56 12.5003 17.462 12.5283 17.35H13.5083C13.499 17.406 13.4897 17.4573 13.4803 17.504C13.4803 17.5507 13.4803 17.5973 13.4803 17.644C13.4803 17.896 13.5457 18.0967 13.6763 18.246C13.807 18.4047 13.9843 18.5167 14.2083 18.582C14.4417 18.6567 14.6937 18.694 14.9643 18.694C15.4497 18.694 15.865 18.61 16.2103 18.442C16.565 18.2833 16.8497 18.036 17.0643 17.7C17.2883 17.364 17.447 16.944 17.5403 16.44C17.559 16.328 17.5777 16.2207 17.5963 16.118C17.615 16.006 17.629 15.9033 17.6383 15.81H17.5403C17.335 16.0713 17.1063 16.286 16.8543 16.454C16.6117 16.622 16.3503 16.7433 16.0703 16.818C15.7997 16.8927 15.5243 16.93 15.2443 16.93C14.7403 16.93 14.311 16.8367 13.9563 16.65C13.6017 16.4633 13.3263 16.1787 13.1303 15.796C12.9437 15.404 12.8503 14.914 12.8503 14.326C12.8503 14.1487 12.8597 13.9667 12.8783 13.78C12.897 13.584 12.925 13.374 12.9623 13.15C13.1863 11.8527 13.5923 10.9147 14.1803 10.336C14.7683 9.75733 15.501 9.468 16.3783 9.468C16.901 9.468 17.3443 9.57067 17.7083 9.776C18.0723 9.98133 18.3523 10.294 18.5483 10.714H18.6463L18.9403 9.636H19.7243L18.5623 16.3C18.4317 17.0653 18.2123 17.686 17.9043 18.162C17.6057 18.638 17.2043 18.988 16.7003 19.212C16.2057 19.436 15.5943 19.548 14.8663 19.548ZM15.5803 16.048C15.8137 16.048 16.0563 16.006 16.3083 15.922C16.5697 15.838 16.817 15.698 17.0503 15.502C17.2837 15.2967 17.489 15.0167 17.6663 14.662C17.853 14.3073 17.9883 13.864 18.0723 13.332C18.1097 13.1267 18.1377 12.954 18.1563 12.814C18.175 12.6647 18.189 12.534 18.1983 12.422C18.2077 12.31 18.2123 12.2073 18.2123 12.114C18.2123 11.722 18.1517 11.4 18.0303 11.148C17.909 10.8867 17.7223 10.6907 17.4703 10.56C17.2277 10.42 16.9103 10.35 16.5183 10.35C16.1357 10.35 15.7763 10.434 15.4403 10.602C15.1137 10.7607 14.829 11.036 14.5863 11.428C14.3437 11.82 14.1663 12.352 14.0543 13.024C14.0077 13.2573 13.975 13.458 13.9563 13.626C13.9377 13.7847 13.9237 13.92 13.9143 14.032C13.905 14.1347 13.9003 14.2327 13.9003 14.326C13.9003 14.7273 13.961 15.054 14.0823 15.306C14.213 15.558 14.3997 15.7447 14.6423 15.866C14.8943 15.9873 15.207 16.048 15.5803 16.048Z" fill="#888888"/>
</svg>
