<svg width="24" height="24" viewBox="0 0 24 24" fill="none" xmlns="http://www.w3.org/2000/svg">
<path d="M4.35059 17L7.44459 7.396H9.53059L12.6246 17H10.7906L10.2026 15.11H6.66059L6.08659 17H4.35059ZM7.15059 13.514H9.71259L8.74659 10.308C8.69992 10.14 8.65325 9.95333 8.60659 9.748C8.55992 9.54267 8.52259 9.37 8.49459 9.23C8.47592 9.08067 8.46659 9.006 8.46659 9.006H8.41059C8.41059 9.006 8.39659 9.08533 8.36859 9.244C8.34059 9.39333 8.30325 9.57067 8.25659 9.776C8.21925 9.98133 8.17725 10.1587 8.13059 10.308L7.15059 13.514ZM14.4837 19.548C14.0357 19.548 13.6531 19.3893 13.3357 19.072C13.0184 18.764 12.8597 18.358 12.8597 17.854C12.8597 17.49 12.9484 17.1867 13.1257 16.944C13.3124 16.7013 13.5364 16.5053 13.7977 16.356C13.6204 16.244 13.4757 16.0947 13.3637 15.908C13.2611 15.7213 13.2097 15.502 13.2097 15.25C13.2097 14.9233 13.3171 14.6527 13.5317 14.438C13.7464 14.2233 13.9984 14.0647 14.2877 13.962C13.9984 13.7473 13.7744 13.472 13.6157 13.136C13.4664 12.7907 13.3917 12.4033 13.3917 11.974C13.3917 11.218 13.6251 10.6113 14.0917 10.154C14.5584 9.69667 15.2304 9.468 16.1077 9.468C16.5837 9.468 16.9944 9.538 17.3397 9.678C17.6197 9.47267 17.8064 9.244 17.8997 8.992C18.0024 8.73067 18.0537 8.53467 18.0537 8.404H19.4397C19.4397 8.92667 19.3324 9.342 19.1177 9.65C18.9124 9.958 18.6231 10.168 18.2497 10.28C18.4364 10.4853 18.5811 10.7327 18.6837 11.022C18.7864 11.3113 18.8377 11.6287 18.8377 11.974C18.8377 12.73 18.6044 13.3367 18.1377 13.794C17.6711 14.2513 16.9944 14.48 16.1077 14.48H15.4077C15.2584 14.48 15.1371 14.522 15.0437 14.606C14.9504 14.69 14.9037 14.7973 14.9037 14.928C14.9037 15.0493 14.9457 15.152 15.0297 15.236C15.1137 15.32 15.2164 15.362 15.3377 15.362H17.8857C18.3524 15.362 18.7491 15.5347 19.0757 15.88C19.4024 16.2253 19.5657 16.692 19.5657 17.28C19.5657 17.7373 19.4584 18.134 19.2437 18.47C19.0291 18.8153 18.7397 19.0813 18.3757 19.268C18.0211 19.4547 17.6244 19.548 17.1857 19.548H14.4837ZM15.2257 18.274H17.1157C17.3304 18.274 17.5077 18.2087 17.6477 18.078C17.7971 17.9567 17.8717 17.7933 17.8717 17.588C17.8717 17.3733 17.8017 17.2053 17.6617 17.084C17.5311 16.972 17.3724 16.916 17.1857 16.916H15.2257C15.0391 16.916 14.8804 16.9813 14.7497 17.112C14.6191 17.2427 14.5537 17.4013 14.5537 17.588C14.5537 17.7933 14.6191 17.9567 14.7497 18.078C14.8804 18.2087 15.0391 18.274 15.2257 18.274ZM16.1077 13.234C16.4624 13.234 16.7237 13.122 16.8917 12.898C17.0691 12.674 17.1577 12.366 17.1577 11.974C17.1577 11.582 17.0691 11.274 16.8917 11.05C16.7237 10.826 16.4624 10.714 16.1077 10.714C15.7624 10.714 15.5011 10.826 15.3237 11.05C15.1557 11.274 15.0717 11.582 15.0717 11.974C15.0717 12.366 15.1557 12.674 15.3237 12.898C15.5011 13.122 15.7624 13.234 16.1077 13.234Z" fill="#888888"/>
</svg>
