<svg width="24" height="24" viewBox="0 0 24 24" fill="none" xmlns="http://www.w3.org/2000/svg">
<path d="M3.34084 17L7.19084 7.396H8.45084L12.3008 17H11.3208L10.2568 14.326H5.32884L4.26484 17H3.34084ZM5.65084 13.542H9.93484L8.59084 10.168C8.56284 10.0933 8.52084 9.98133 8.46484 9.832C8.40884 9.68267 8.34351 9.51467 8.26884 9.328C8.20351 9.132 8.12884 8.936 8.04484 8.74C7.97018 8.53467 7.90484 8.34333 7.84884 8.166H7.73684C7.67151 8.34333 7.59218 8.55333 7.49884 8.796C7.40551 9.03867 7.31218 9.28133 7.21884 9.524C7.13484 9.76667 7.05551 9.98133 6.98084 10.168L5.65084 13.542ZM14.6977 19.548C14.3337 19.548 13.9977 19.4687 13.6897 19.31C13.391 19.1513 13.153 18.9273 12.9757 18.638C12.7984 18.358 12.7097 18.0407 12.7097 17.686C12.7097 17.2753 12.8124 16.9207 13.0177 16.622C13.2324 16.314 13.517 16.0853 13.8717 15.936C13.6197 15.8333 13.4284 15.6793 13.2977 15.474C13.1764 15.2593 13.1157 15.0353 13.1157 14.802C13.1157 14.494 13.223 14.2233 13.4377 13.99C13.6617 13.7473 13.9464 13.5933 14.2917 13.528C13.993 13.3133 13.7504 13.0567 13.5637 12.758C13.3864 12.45 13.2977 12.114 13.2977 11.75C13.2977 11.3207 13.4004 10.9333 13.6057 10.588C13.811 10.2427 14.1237 9.972 14.5437 9.776C14.9637 9.57067 15.5004 9.468 16.1537 9.468C16.471 9.468 16.7604 9.496 17.0217 9.552C17.2924 9.59867 17.535 9.66867 17.7497 9.762C18.0764 9.66867 18.3377 9.51 18.5337 9.286C18.739 9.062 18.8744 8.78667 18.9397 8.46H19.7657C19.747 8.712 19.677 8.95933 19.5557 9.202C19.4437 9.43533 19.2804 9.636 19.0657 9.804C18.8604 9.972 18.6037 10.0793 18.2957 10.126C18.5384 10.35 18.7157 10.602 18.8277 10.882C18.949 11.162 19.0097 11.4513 19.0097 11.75C19.0097 12.1793 18.907 12.5667 18.7017 12.912C18.4964 13.2573 18.1837 13.5327 17.7637 13.738C17.353 13.9433 16.821 14.046 16.1677 14.046H14.9917C14.693 14.046 14.441 14.102 14.2357 14.214C14.0397 14.326 13.9417 14.522 13.9417 14.802C13.9417 15.0447 14.0444 15.2313 14.2497 15.362C14.4644 15.4833 14.7304 15.544 15.0477 15.544H17.8477C18.3797 15.544 18.8137 15.7307 19.1497 16.104C19.4857 16.468 19.6537 16.9207 19.6537 17.462C19.6537 17.854 19.5604 18.2087 19.3737 18.526C19.187 18.8433 18.9257 19.0907 18.5897 19.268C18.2537 19.4547 17.871 19.548 17.4417 19.548H14.6977ZM14.8237 18.876H17.4137C17.675 18.876 17.9084 18.8153 18.1137 18.694C18.3284 18.582 18.501 18.428 18.6317 18.232C18.7624 18.036 18.8277 17.8213 18.8277 17.588C18.8277 17.196 18.7157 16.8787 18.4917 16.636C18.2677 16.3933 17.997 16.272 17.6797 16.272H14.8237C14.469 16.272 14.1657 16.4027 13.9137 16.664C13.6617 16.916 13.5357 17.224 13.5357 17.588C13.5357 17.98 13.6617 18.2927 13.9137 18.526C14.1657 18.7593 14.469 18.876 14.8237 18.876ZM16.1537 13.36C16.8444 13.36 17.353 13.2153 17.6797 12.926C18.0157 12.6367 18.1837 12.2447 18.1837 11.75C18.1837 11.2647 18.0157 10.8773 17.6797 10.588C17.353 10.2987 16.8444 10.154 16.1537 10.154C15.4724 10.154 14.9637 10.2987 14.6277 10.588C14.2917 10.8773 14.1237 11.2647 14.1237 11.75C14.1237 12.058 14.1984 12.3333 14.3477 12.576C14.497 12.8187 14.721 13.01 15.0197 13.15C15.3277 13.29 15.7057 13.36 16.1537 13.36Z" fill="#888888"/>
</svg>
