<svg width="24" height="24" viewBox="0 0 24 24" fill="none" xmlns="http://www.w3.org/2000/svg">
<path d="M4.23438 18.8633L2.4707 19.0137L2.43652 18.877C3.37988 17.4688 4.28451 16.0469 5.15039 14.6113C6.02083 13.1712 6.84342 11.7038 7.61816 10.209C7.62728 10.1999 7.63184 10.1771 7.63184 10.1406C7.63184 10.1042 7.61816 10.0837 7.59082 10.0791L6.27832 9.91504V9.38184H9.40918L10.9678 14.6045C11.0726 14.9326 11.1888 15.2995 11.3164 15.7051C11.4486 16.1107 11.5967 16.498 11.7607 16.8672C11.9294 17.2363 12.1162 17.5394 12.3213 17.7764C12.5264 18.0133 12.7474 18.1318 12.9844 18.1318C13.1074 18.1318 13.2396 18.1204 13.3809 18.0977C13.5267 18.0749 13.6634 18.0498 13.791 18.0225L13.8936 18.4121C13.4925 18.5898 13.071 18.7653 12.6289 18.9385C12.1914 19.1117 11.7676 19.1982 11.3574 19.1982C11.0794 19.1982 10.8516 19.1253 10.6738 18.9795C10.4961 18.8337 10.3548 18.6536 10.25 18.4395C10.1497 18.2253 10.0654 18.0111 9.99707 17.7969L9.28613 15.2471H5.77246C5.61296 15.5479 5.44434 15.901 5.2666 16.3066C5.08887 16.7122 4.91113 17.1383 4.7334 17.585C4.56022 18.027 4.39388 18.4531 4.23438 18.8633ZM8.84863 14.5225C8.86686 14.5225 8.89193 14.5156 8.92383 14.502C8.96029 14.4837 8.97852 14.4655 8.97852 14.4473C8.97852 14.429 8.97852 14.3971 8.97852 14.3516C8.97852 14.306 8.97396 14.2786 8.96484 14.2695L8.05566 11.3984C8.04655 11.3529 8.02604 11.3232 7.99414 11.3096C7.9668 11.2959 7.94401 11.2891 7.92578 11.2891C7.88932 11.2891 7.84831 11.3255 7.80273 11.3984L6.33301 14.3105C6.31478 14.3379 6.30566 14.3789 6.30566 14.4336C6.30566 14.4518 6.32389 14.4723 6.36035 14.4951C6.39681 14.5133 6.42871 14.5225 6.45605 14.5225H8.84863ZM20.8047 17.2227C20.8047 17.7559 20.791 18.2025 20.7637 18.5625C20.7363 18.918 20.6816 19.2734 20.5996 19.6289C20.4583 20.2168 20.1872 20.7158 19.7861 21.126C19.3851 21.5361 18.9111 21.8483 18.3643 22.0625C17.8174 22.2812 17.2546 22.3906 16.6758 22.3906C16.2747 22.3906 15.8646 22.2972 15.4453 22.1104C15.026 21.9235 14.6888 21.6842 14.4336 21.3926L15.2744 20.2852H15.5684C15.7826 20.6589 16.0355 20.9847 16.3271 21.2627C16.6234 21.5452 16.9492 21.6865 17.3047 21.6865C17.5736 21.6865 17.8288 21.6273 18.0703 21.5088C18.3164 21.3949 18.5101 21.2445 18.6514 21.0576C18.8564 20.7887 19.0046 20.5335 19.0957 20.292C19.1914 20.055 19.2529 19.777 19.2803 19.458C19.3076 19.1436 19.3258 18.7334 19.335 18.2275C18.8975 18.5146 18.4486 18.7607 17.9883 18.9658C17.5326 19.1663 17.0449 19.2666 16.5254 19.2666C16.0605 19.2666 15.6914 19.1549 15.418 18.9316C15.1445 18.7083 14.9417 18.4258 14.8096 18.084C14.682 17.7422 14.5999 17.3844 14.5635 17.0107C14.527 16.637 14.5088 16.3021 14.5088 16.0059C14.5088 15.2038 14.6455 14.5088 14.9189 13.9209C15.1969 13.333 15.5934 12.8773 16.1084 12.5537C16.6279 12.2301 17.2477 12.0684 17.9678 12.0684C18.3415 12.0684 18.6719 12.1139 18.959 12.2051C19.2461 12.2917 19.5309 12.4284 19.8135 12.6152L20.6816 12.2666L20.8594 12.3213C20.8503 12.5264 20.8411 12.7109 20.832 12.875C20.8229 13.0391 20.8161 13.2236 20.8115 13.4287C20.807 13.6338 20.8047 13.8936 20.8047 14.208C20.8047 14.5179 20.8047 14.9167 20.8047 15.4043C20.8047 15.8874 20.8047 16.4935 20.8047 17.2227ZM19.335 17.4072V13.7773C19.335 13.5176 19.2666 13.3034 19.1299 13.1348C18.9977 12.9661 18.8359 12.8431 18.6445 12.7656C18.4531 12.6836 18.2731 12.6426 18.1045 12.6426C17.6396 12.6426 17.2614 12.7611 16.9697 12.998C16.6826 13.2305 16.4707 13.5426 16.334 13.9346C16.1973 14.3265 16.1289 14.7594 16.1289 15.2334C16.1289 15.5114 16.1426 15.819 16.1699 16.1562C16.2018 16.4935 16.2679 16.8193 16.3682 17.1338C16.473 17.4437 16.6279 17.6966 16.833 17.8926C17.0381 18.0885 17.3115 18.1865 17.6533 18.1865C17.9632 18.1865 18.2754 18.1159 18.5898 17.9746C18.9089 17.8288 19.1572 17.6396 19.335 17.4072Z" fill="#333333"/>
</svg>
