<svg width="24" height="24" viewBox="0 0 24 24" fill="none" xmlns="http://www.w3.org/2000/svg">
<path d="M3.81974 17.028C3.33441 17.028 3.09174 16.9393 3.09174 16.762C3.09174 16.6873 3.11974 16.6033 3.17574 16.51L7.26374 7.438C7.35708 7.26067 7.60441 7.172 8.00574 7.172H8.62174C9.04174 7.172 9.27508 7.26067 9.32174 7.438L11.5197 16.51C11.5477 16.622 11.5617 16.692 11.5617 16.72C11.5617 16.8133 11.5011 16.888 11.3797 16.944C11.2584 17 11.0811 17.028 10.8477 17.028H10.3997C9.98908 17.028 9.76041 16.9393 9.71374 16.762L9.25174 14.844H5.70974L4.85574 16.762C4.78108 16.9393 4.56641 17.028 4.21174 17.028H3.81974ZM8.88774 13.262L8.21574 10.21C8.15974 9.96733 8.12241 9.678 8.10374 9.342H8.06174C7.94974 9.706 7.84708 9.99533 7.75374 10.21L6.40974 13.262H8.88774ZM18.4957 9.65C18.9343 9.65 19.1537 9.762 19.1537 9.986L18.5657 15.67C18.4163 17.1727 18.057 18.2647 17.4877 18.946C16.9277 19.6273 16.1157 19.968 15.0517 19.968C14.585 19.968 14.1557 19.9213 13.7637 19.828C13.381 19.744 13.0777 19.6227 12.8537 19.464C12.6297 19.3147 12.5177 19.1513 12.5177 18.974C12.5177 18.2647 12.6017 17.91 12.7697 17.91C12.7977 17.91 12.9097 17.966 13.1057 18.078C13.311 18.1993 13.549 18.3067 13.8197 18.4C14.0997 18.4933 14.417 18.54 14.7717 18.54C15.3597 18.54 15.817 18.3393 16.1437 17.938C16.4797 17.546 16.6803 16.9393 16.7457 16.118L16.7597 15.936C16.5263 16.2627 16.2463 16.5147 15.9197 16.692C15.593 16.8693 15.243 16.958 14.8697 16.958C14.1883 16.958 13.6143 16.7153 13.1477 16.23C12.6903 15.7353 12.4617 15.0027 12.4617 14.032C12.4617 13.1547 12.6017 12.38 12.8817 11.708C13.1617 11.036 13.5537 10.5133 14.0577 10.14C14.5617 9.76667 15.145 9.58 15.8077 9.58C16.433 9.58 17.0117 9.82267 17.5437 10.308C17.5997 10.1307 17.651 10 17.6977 9.916C17.7443 9.832 17.8143 9.76667 17.9077 9.72C18.0103 9.67333 18.1597 9.65 18.3557 9.65H18.4957ZM17.1237 12.478C17.1703 12.03 17.2217 11.68 17.2777 11.428C16.9137 11.148 16.5403 11.008 16.1577 11.008C15.5137 11.008 15.0377 11.2693 14.7297 11.792C14.4217 12.3053 14.2677 13.0147 14.2677 13.92C14.2677 14.9747 14.6737 15.502 15.4857 15.502C15.747 15.502 16.0083 15.3853 16.2697 15.152C16.5403 14.9187 16.7643 14.5827 16.9417 14.144L17.1237 12.478Z" fill="#333333"/>
</svg>
