<svg width="24" height="24" viewBox="0 0 24 24" fill="none" xmlns="http://www.w3.org/2000/svg">
<path d="M4.23974 17.028C3.67041 17.028 3.38574 16.9253 3.38574 16.72C3.38574 16.6827 3.39041 16.6453 3.39974 16.608C3.41841 16.5613 3.43241 16.5147 3.44174 16.468L6.52174 7.466C6.59641 7.27 6.86241 7.172 7.31974 7.172H8.04774C8.51441 7.172 8.78041 7.27 8.84574 7.466L11.9257 16.468C11.9537 16.5613 11.9677 16.6453 11.9677 16.72C11.9677 16.9253 11.7344 17.028 11.2677 17.028H10.6517C10.4464 17.028 10.2737 17.0093 10.1337 16.972C9.99374 16.9253 9.90508 16.846 9.86774 16.734L9.30774 15.026H6.00374L5.44374 16.734C5.40641 16.8367 5.33174 16.9113 5.21974 16.958C5.10774 17.0047 4.96774 17.028 4.79974 17.028H4.23974ZM6.60574 13.178H8.70574L7.90774 10.686C7.86108 10.5367 7.81908 10.3873 7.78174 10.238C7.75374 10.0887 7.72574 9.93933 7.69774 9.79H7.64174C7.61374 9.93933 7.58574 10.0887 7.55774 10.238C7.52974 10.3873 7.48774 10.5367 7.43174 10.686L6.60574 13.178ZM15.6397 19.968C14.893 19.968 14.2723 19.8933 13.7777 19.744C13.283 19.604 12.9143 19.3893 12.6717 19.1C12.429 18.8107 12.3077 18.456 12.3077 18.036C12.3077 17.672 12.415 17.35 12.6297 17.07C12.8537 16.79 13.171 16.5707 13.5817 16.412L13.5957 16.356C13.3997 16.2533 13.2503 16.1133 13.1477 15.936C13.045 15.7493 12.9937 15.5393 12.9937 15.306C12.9937 15.0447 13.0683 14.8067 13.2177 14.592C13.367 14.3773 13.5723 14.1953 13.8337 14.046C13.4883 13.8593 13.213 13.6073 13.0077 13.29C12.8023 12.9633 12.6997 12.5527 12.6997 12.058C12.6997 11.4513 12.835 10.966 13.1057 10.602C13.3763 10.238 13.7403 9.97667 14.1977 9.818C14.655 9.65 15.159 9.566 15.7097 9.566C15.8963 9.566 16.0783 9.57533 16.2557 9.594C16.4423 9.61267 16.6197 9.64067 16.7877 9.678H19.0417C19.3217 9.678 19.4617 9.91133 19.4617 10.378V10.616C19.4617 11.0547 19.3497 11.274 19.1257 11.274C19.0697 11.274 18.9623 11.26 18.8037 11.232C18.645 11.204 18.5283 11.176 18.4537 11.148L18.4257 11.204C18.5097 11.2973 18.5797 11.428 18.6357 11.596C18.6917 11.7547 18.7197 11.9087 18.7197 12.058C18.7197 12.618 18.5937 13.0753 18.3417 13.43C18.0897 13.7753 17.7443 14.032 17.3057 14.2C16.8763 14.3587 16.3957 14.438 15.8637 14.438C15.4343 14.438 15.1637 14.4753 15.0517 14.55C14.9397 14.6247 14.8837 14.7367 14.8837 14.886C14.8837 15.0447 14.9863 15.1613 15.1917 15.236C15.4063 15.3107 15.6817 15.3667 16.0177 15.404C16.3537 15.4413 16.7083 15.4927 17.0817 15.558C17.4457 15.6233 17.791 15.726 18.1177 15.866C18.4537 16.006 18.7243 16.2113 18.9297 16.482C19.1443 16.7527 19.2517 17.1213 19.2517 17.588C19.2517 18.064 19.1023 18.4793 18.8037 18.834C18.505 19.198 18.085 19.478 17.5437 19.674C17.0023 19.87 16.3677 19.968 15.6397 19.968ZM15.7937 18.33C16.279 18.33 16.6383 18.2647 16.8717 18.134C17.1143 18.0127 17.2357 17.8493 17.2357 17.644C17.2357 17.532 17.1983 17.4387 17.1237 17.364C17.049 17.2893 16.9277 17.224 16.7597 17.168C16.5917 17.1213 16.3677 17.0793 16.0877 17.042C15.817 17.0047 15.481 16.972 15.0797 16.944C14.837 17.028 14.6503 17.14 14.5197 17.28C14.389 17.42 14.3237 17.56 14.3237 17.7C14.3237 17.8867 14.4403 18.036 14.6737 18.148C14.907 18.2693 15.2803 18.33 15.7937 18.33ZM15.7097 12.94C15.999 12.94 16.2463 12.87 16.4517 12.73C16.657 12.5807 16.7597 12.338 16.7597 12.002C16.7597 11.6753 16.657 11.4373 16.4517 11.288C16.2463 11.1387 15.999 11.064 15.7097 11.064C15.4203 11.064 15.173 11.1387 14.9677 11.288C14.7623 11.4373 14.6597 11.6753 14.6597 12.002C14.6597 12.338 14.7623 12.5807 14.9677 12.73C15.173 12.87 15.4203 12.94 15.7097 12.94Z" fill="#888888"/>
</svg>
