<svg width="24" height="24" viewBox="0 0 24 24" fill="none" xmlns="http://www.w3.org/2000/svg">
<path d="M3.84774 17.028C3.30641 17.028 3.03574 16.9347 3.03574 16.748C3.03574 16.6733 3.06374 16.58 3.11974 16.468L7.12374 7.466C7.20774 7.27 7.48308 7.172 7.94974 7.172H8.67774C9.14441 7.172 9.40108 7.27 9.44774 7.466L11.5757 16.468C11.6037 16.552 11.6177 16.6313 11.6177 16.706C11.6177 16.8087 11.5524 16.888 11.4217 16.944C11.2911 17 11.1044 17.028 10.8617 17.028H10.2457C9.78841 17.028 9.53641 16.93 9.48974 16.734L9.08374 15.026H5.84974L5.07974 16.734C4.98641 16.93 4.76241 17.028 4.40774 17.028H3.84774ZM8.66374 13.178L8.17374 10.686C8.11774 10.4433 8.08041 10.1447 8.06174 9.79H8.00574C7.89374 10.1727 7.79108 10.4713 7.69774 10.686L6.63374 13.178H8.66374ZM18.4257 9.65C18.967 9.65 19.2377 9.76667 19.2377 10L18.6637 15.698C18.5143 17.1353 18.1503 18.204 17.5717 18.904C17.0023 19.6133 16.1763 19.968 15.0937 19.968C14.3657 19.968 13.7497 19.8747 13.2457 19.688C12.751 19.5013 12.5037 19.2633 12.5037 18.974C12.5037 18.162 12.597 17.756 12.7837 17.756C12.8117 17.756 12.9237 17.8073 13.1197 17.91C13.325 18.022 13.5537 18.12 13.8057 18.204C14.067 18.288 14.3563 18.33 14.6737 18.33C15.2057 18.33 15.6257 18.176 15.9337 17.868C16.251 17.56 16.4377 17.1167 16.4937 16.538L16.5357 16.118C16.321 16.37 16.0643 16.5707 15.7657 16.72C15.4763 16.8693 15.1637 16.944 14.8277 16.944C14.0903 16.944 13.5023 16.692 13.0637 16.188C12.6343 15.6747 12.4197 14.9513 12.4197 14.018C12.4197 13.1407 12.555 12.366 12.8257 11.694C13.1057 11.022 13.4883 10.4993 13.9737 10.126C14.4683 9.75267 15.033 9.566 15.6677 9.566C16.013 9.566 16.3303 9.64067 16.6197 9.79C16.909 9.93933 17.1517 10.1073 17.3477 10.294C17.4037 10.1073 17.455 9.97667 17.5017 9.902C17.5577 9.818 17.637 9.75733 17.7397 9.72C17.8517 9.67333 18.0243 9.65 18.2577 9.65H18.4257ZM16.9277 12.45C16.9557 12.1233 16.9977 11.8293 17.0537 11.568C16.755 11.3253 16.4517 11.204 16.1437 11.204C15.6303 11.204 15.229 11.4373 14.9397 11.904C14.6597 12.3613 14.5197 13.024 14.5197 13.892C14.5197 14.7973 14.8837 15.25 15.6117 15.25C15.9943 15.25 16.3583 14.9793 16.7037 14.438L16.8857 12.8L16.9277 12.45Z" fill="#333333"/>
</svg>
