<svg width="24" height="24" viewBox="0 0 24 24" fill="none" xmlns="http://www.w3.org/2000/svg">
<path d="M4.23974 17.028C3.67041 17.028 3.38574 16.9253 3.38574 16.72C3.38574 16.6827 3.40441 16.5987 3.44174 16.468L6.52174 7.466C6.59641 7.27 6.86241 7.172 7.31974 7.172H8.04774C8.51441 7.172 8.78041 7.27 8.84574 7.466L11.9257 16.468C11.9537 16.5613 11.9677 16.6453 11.9677 16.72C11.9677 16.9253 11.7344 17.028 11.2677 17.028H10.6517C10.1944 17.028 9.93308 16.93 9.86774 16.734L9.30774 15.026H6.00374L5.44374 16.734C5.37841 16.93 5.16374 17.028 4.79974 17.028H4.23974ZM8.70574 13.178L7.90774 10.686C7.84241 10.4993 7.77241 10.2007 7.69774 9.79H7.64174C7.63241 9.846 7.60908 9.972 7.57174 10.168C7.54374 10.3547 7.49708 10.5273 7.43174 10.686L6.60574 13.178H8.70574ZM15.6397 19.968C13.4183 19.968 12.3077 19.324 12.3077 18.036C12.3077 17.672 12.415 17.35 12.6297 17.07C12.8537 16.79 13.171 16.5707 13.5817 16.412L13.5957 16.356C13.3997 16.2627 13.2503 16.1227 13.1477 15.936C13.045 15.7493 12.9937 15.5393 12.9937 15.306C12.9937 14.7927 13.2737 14.3727 13.8337 14.046C13.0777 13.6447 12.6997 12.982 12.6997 12.058C12.6997 11.2087 12.975 10.5833 13.5257 10.182C14.0857 9.77133 14.8137 9.566 15.7097 9.566C16.0737 9.566 16.433 9.60333 16.7877 9.678H19.0417C19.191 9.678 19.2983 9.734 19.3637 9.846C19.429 9.958 19.4617 10.1353 19.4617 10.378V10.616C19.4617 11.0547 19.3497 11.274 19.1257 11.274C19.0323 11.274 18.911 11.26 18.7617 11.232C18.6217 11.204 18.519 11.176 18.4537 11.148L18.4257 11.204C18.5097 11.2973 18.5797 11.428 18.6357 11.596C18.6917 11.7547 18.7197 11.9087 18.7197 12.058C18.7197 12.8607 18.4537 13.458 17.9217 13.85C17.399 14.242 16.713 14.438 15.8637 14.438C15.453 14.438 15.187 14.4753 15.0657 14.55C14.9443 14.6153 14.8837 14.7273 14.8837 14.886C14.8837 15.054 14.991 15.1707 15.2057 15.236C15.4203 15.3013 15.7843 15.3713 16.2977 15.446C16.4657 15.4647 16.727 15.502 17.0817 15.558C17.7443 15.6887 18.2717 15.9033 18.6637 16.202C19.0557 16.4913 19.2517 16.9533 19.2517 17.588C19.2517 18.064 19.1023 18.4793 18.8037 18.834C18.505 19.198 18.0803 19.478 17.5297 19.674C16.9883 19.87 16.3583 19.968 15.6397 19.968ZM15.7097 12.94C16.0177 12.94 16.2697 12.8653 16.4657 12.716C16.6617 12.5573 16.7597 12.3193 16.7597 12.002C16.7597 11.694 16.6617 11.4607 16.4657 11.302C16.2697 11.1433 16.0177 11.064 15.7097 11.064C15.4017 11.064 15.1497 11.1433 14.9537 11.302C14.7577 11.4607 14.6597 11.694 14.6597 12.002C14.6597 12.3193 14.7577 12.5573 14.9537 12.716C15.1497 12.8653 15.4017 12.94 15.7097 12.94ZM15.7937 18.33C16.2697 18.33 16.629 18.2693 16.8717 18.148C17.1143 18.0267 17.2357 17.8587 17.2357 17.644C17.2357 17.4293 17.077 17.2707 16.7597 17.168C16.4517 17.0747 15.8917 17 15.0797 16.944C14.8463 17.028 14.6597 17.1353 14.5197 17.266C14.389 17.406 14.3237 17.5507 14.3237 17.7C14.3237 17.896 14.4403 18.05 14.6737 18.162C14.9163 18.274 15.2897 18.33 15.7937 18.33Z" fill="#333333"/>
</svg>
