<svg width="24" height="24" viewBox="0 0 24 24" fill="none" xmlns="http://www.w3.org/2000/svg">
<path d="M4.18374 17.028C3.73574 17.028 3.51174 16.944 3.51174 16.776C3.51174 16.72 3.52574 16.6453 3.55374 16.552L6.80174 7.41C6.85774 7.25133 7.06774 7.172 7.43174 7.172H7.92174C8.28574 7.172 8.49574 7.25133 8.55174 7.41L11.7997 16.566C11.8277 16.65 11.8417 16.72 11.8417 16.776C11.8417 16.944 11.6317 17.028 11.2117 17.028H10.9597C10.6051 17.028 10.3951 16.9487 10.3297 16.79L9.58774 14.662H5.70974L4.98174 16.79C4.91641 16.9487 4.72041 17.028 4.39374 17.028H4.18374ZM9.13974 13.374L7.86574 9.678C7.82841 9.54733 7.79108 9.39333 7.75374 9.216C7.72574 9.03867 7.70241 8.91267 7.68374 8.838H7.65574C7.58108 9.23 7.51108 9.51 7.44574 9.678L6.15774 13.374H9.13974ZM15.5557 19.968C13.5677 19.968 12.5737 19.3473 12.5737 18.106C12.5737 17.7233 12.6857 17.378 12.9097 17.07C13.1337 16.762 13.4323 16.5333 13.8057 16.384L13.8197 16.342C13.4463 16.09 13.2597 15.7167 13.2597 15.222C13.2597 14.6807 13.521 14.242 14.0437 13.906C13.661 13.7193 13.367 13.4533 13.1617 13.108C12.9563 12.7627 12.8537 12.3707 12.8537 11.932C12.8537 11.2133 13.1057 10.644 13.6097 10.224C14.1137 9.79467 14.809 9.58 15.6957 9.58C15.9663 9.58 16.265 9.61267 16.5917 9.678H19.0557C19.1677 9.678 19.247 9.72 19.2937 9.804C19.3497 9.87867 19.3777 10.0047 19.3777 10.182V10.364C19.3777 10.5413 19.3497 10.6673 19.2937 10.742C19.247 10.8167 19.1723 10.854 19.0697 10.854C18.939 10.854 18.7757 10.8447 18.5797 10.826C18.3837 10.8073 18.2297 10.784 18.1177 10.756L18.1037 10.784C18.3743 11.0827 18.5097 11.4653 18.5097 11.932C18.5097 12.6413 18.2623 13.206 17.7677 13.626C17.273 14.0367 16.5917 14.242 15.7237 14.242C15.313 14.242 15.0143 14.3027 14.8277 14.424C14.641 14.536 14.5477 14.7227 14.5477 14.984C14.5477 15.264 14.683 15.4553 14.9537 15.558C15.2243 15.6607 15.6443 15.7447 16.2137 15.81L16.7317 15.88C17.4317 15.9827 17.9777 16.174 18.3697 16.454C18.7617 16.734 18.9577 17.1773 18.9577 17.784C18.9577 18.4747 18.6637 19.0113 18.0757 19.394C17.4877 19.7767 16.6477 19.968 15.5557 19.968ZM15.6817 13.122C16.1203 13.122 16.475 13.0287 16.7457 12.842C17.0163 12.6553 17.1517 12.3473 17.1517 11.918C17.1517 11.498 17.0163 11.1947 16.7457 11.008C16.475 10.812 16.1203 10.714 15.6817 10.714C15.243 10.714 14.8883 10.812 14.6177 11.008C14.3563 11.1947 14.2257 11.498 14.2257 11.918C14.2257 12.3473 14.3563 12.6553 14.6177 12.842C14.8883 13.0287 15.243 13.122 15.6817 13.122ZM15.7097 18.806C16.3443 18.806 16.8157 18.7267 17.1237 18.568C17.4317 18.4093 17.5857 18.1667 17.5857 17.84C17.5857 17.6253 17.5017 17.4573 17.3337 17.336C17.175 17.224 16.9743 17.14 16.7317 17.084C16.4983 17.0373 16.1717 16.9907 15.7517 16.944C15.257 16.8787 14.9163 16.8273 14.7297 16.79C14.487 16.8927 14.291 17.0327 14.1417 17.21C14.0017 17.3873 13.9317 17.602 13.9317 17.854C13.9317 18.19 14.067 18.4327 14.3377 18.582C14.6177 18.7313 15.075 18.806 15.7097 18.806Z" fill="#333333"/>
</svg>
