<svg width="24" height="24" viewBox="0 0 24 24" fill="none" xmlns="http://www.w3.org/2000/svg">
<path d="M9.48083 14.382H6.28883L5.50483 17H4.04883L7.08683 7.83H8.73883L11.7768 17H10.2648L9.48083 14.382ZM9.14483 13.248L8.78083 12.016C8.65016 11.5773 8.50083 11.0687 8.33283 10.49C8.17416 9.91133 8.05749 9.49133 7.98283 9.23C7.97349 9.15533 7.95016 9.06667 7.91283 8.964H7.85683C7.55816 10.112 7.27349 11.1293 7.00283 12.016L6.63883 13.248H9.14483ZM15.2034 20.08C14.3541 20.08 13.6681 19.9213 13.1454 19.604C12.6228 19.296 12.3614 18.8527 12.3614 18.274C12.3614 17.9847 12.4454 17.7093 12.6134 17.448C12.7908 17.196 13.0381 16.972 13.3554 16.776V16.72C12.9448 16.4587 12.7394 16.0807 12.7394 15.586C12.7394 15.334 12.8094 15.096 12.9494 14.872C13.0988 14.648 13.2808 14.4613 13.4954 14.312V14.256C13.2434 14.06 13.0288 13.8033 12.8514 13.486C12.6834 13.1687 12.5994 12.8187 12.5994 12.436C12.5994 11.9413 12.7161 11.5073 12.9494 11.134C13.1921 10.7607 13.5141 10.476 13.9154 10.28C14.3261 10.084 14.7694 9.986 15.2454 9.986C15.6001 9.986 15.9314 10.042 16.2394 10.154H18.6614V11.218H17.3454C17.4854 11.3673 17.5974 11.554 17.6814 11.778C17.7654 11.9927 17.8074 12.226 17.8074 12.478C17.8074 13.206 17.5648 13.78 17.0794 14.2C16.5941 14.62 15.9828 14.83 15.2454 14.83C14.9094 14.83 14.5874 14.76 14.2794 14.62C14.1581 14.732 14.0648 14.844 13.9994 14.956C13.9341 15.0587 13.9014 15.1893 13.9014 15.348C13.9014 15.5627 13.9901 15.7307 14.1674 15.852C14.3448 15.964 14.6388 16.02 15.0494 16.02H16.3234C17.1448 16.02 17.7561 16.1553 18.1574 16.426C18.5681 16.6967 18.7734 17.1167 18.7734 17.686C18.7734 18.1247 18.6241 18.526 18.3254 18.89C18.0361 19.254 17.6208 19.5433 17.0794 19.758C16.5381 19.9727 15.9128 20.08 15.2034 20.08ZM15.2454 13.92C15.6188 13.92 15.9268 13.7847 16.1694 13.514C16.4214 13.2433 16.5474 12.884 16.5474 12.436C16.5474 11.988 16.4214 11.6333 16.1694 11.372C15.9268 11.1107 15.6188 10.98 15.2454 10.98C14.8721 10.98 14.5594 11.1107 14.3074 11.372C14.0648 11.6333 13.9434 11.988 13.9434 12.436C13.9434 12.884 14.0648 13.2433 14.3074 13.514C14.5594 13.7847 14.8721 13.92 15.2454 13.92ZM15.4134 19.142C15.7961 19.142 16.1368 19.086 16.4354 18.974C16.7434 18.862 16.9814 18.708 17.1494 18.512C17.3174 18.3253 17.4014 18.1247 17.4014 17.91C17.4014 17.63 17.2941 17.434 17.0794 17.322C16.8741 17.21 16.5568 17.154 16.1274 17.154H15.0774C14.7321 17.154 14.4288 17.1213 14.1674 17.056C13.7661 17.3547 13.5654 17.6907 13.5654 18.064C13.5654 18.4 13.7288 18.6613 14.0554 18.848C14.3821 19.044 14.8348 19.142 15.4134 19.142Z" fill="#333333"/>
</svg>
