<svg width="24" height="24" viewBox="0 0 24 24" fill="none" xmlns="http://www.w3.org/2000/svg">
<path d="M9.41082 15.068H6.86282L6.41482 17H3.95082L6.72282 7.9H9.63482L12.4068 17H9.85882L9.41082 15.068ZM8.97682 13.206L8.82282 12.576C8.70149 12.1 8.58015 11.5773 8.45882 11.008L8.15082 9.692H8.09482L8.01082 10.084C7.80549 11.1107 7.61882 11.9413 7.45082 12.576L7.29682 13.206H8.97682ZM15.6266 19.884C14.7586 19.884 14.0493 19.744 13.4986 19.464C12.9573 19.184 12.6866 18.7453 12.6866 18.148C12.6866 17.5973 13.0133 17.1493 13.6666 16.804V16.748C13.2373 16.4493 13.0226 16.048 13.0226 15.544C13.0226 15.3107 13.0926 15.0773 13.2326 14.844C13.3726 14.6013 13.5639 14.396 13.8066 14.228V14.172C13.5359 13.9853 13.3073 13.738 13.1206 13.43C12.9433 13.1127 12.8546 12.7627 12.8546 12.38C12.8546 11.8293 12.9899 11.3627 13.2606 10.98C13.5406 10.5973 13.9093 10.3127 14.3666 10.126C14.8239 9.93 15.3186 9.832 15.8506 9.832C16.2613 9.832 16.6346 9.888 16.9706 10H19.5746V11.736H18.5666C18.6413 11.96 18.6786 12.2027 18.6786 12.464C18.6786 13.248 18.4173 13.8313 17.8946 14.214C17.3719 14.5967 16.6906 14.788 15.8506 14.788C15.6173 14.788 15.3559 14.7553 15.0666 14.69C15.0013 14.7553 14.9546 14.816 14.9266 14.872C14.9079 14.9187 14.8986 14.9933 14.8986 15.096C14.8986 15.2453 14.9733 15.3527 15.1226 15.418C15.2719 15.4833 15.5239 15.516 15.8786 15.516H16.9286C17.8339 15.516 18.5199 15.6653 18.9866 15.964C19.4533 16.2533 19.6866 16.7107 19.6866 17.336C19.6866 17.84 19.5186 18.2833 19.1826 18.666C18.8559 19.0487 18.3846 19.3473 17.7686 19.562C17.1619 19.7767 16.4479 19.884 15.6266 19.884ZM15.8506 13.36C16.0839 13.36 16.2659 13.2807 16.3966 13.122C16.5366 12.954 16.6066 12.7067 16.6066 12.38C16.6066 12.072 16.5366 11.8387 16.3966 11.68C16.2659 11.512 16.0839 11.428 15.8506 11.428C15.6173 11.428 15.4306 11.512 15.2906 11.68C15.1599 11.8387 15.0946 12.072 15.0946 12.38C15.0946 12.7067 15.1599 12.954 15.2906 13.122C15.4306 13.2807 15.6173 13.36 15.8506 13.36ZM16.0186 18.4C16.4199 18.4 16.7466 18.3393 16.9986 18.218C17.2599 18.106 17.3906 17.952 17.3906 17.756C17.3906 17.588 17.3159 17.476 17.1666 17.42C17.0266 17.364 16.7886 17.336 16.4526 17.336H15.9066C15.4306 17.336 15.0946 17.308 14.8986 17.252C14.7306 17.42 14.6466 17.588 14.6466 17.756C14.6466 17.9707 14.7679 18.1293 15.0106 18.232C15.2626 18.344 15.5986 18.4 16.0186 18.4Z" fill="#333333"/>
</svg>
