<svg width="24" height="24" viewBox="0 0 24 24" fill="none" xmlns="http://www.w3.org/2000/svg">
<path d="M8.92487 13.696C8.5702 13.6867 8.0802 13.682 7.45487 13.682C6.82953 13.682 6.32553 13.6867 5.94287 13.696C5.63487 14.76 5.45287 15.418 5.39687 15.67C5.34087 15.9127 5.31287 16.2533 5.31287 16.692V17H2.96087V16.692C3.4462 16.356 4.0482 15.1147 4.76687 12.968C5.48553 10.8213 5.95687 9.40267 6.18087 8.712C6.40487 8.012 6.53553 7.508 6.57287 7.2L8.72887 6.99C8.72887 7.34467 9.03687 8.362 9.65287 10.042C10.8009 13.178 11.5989 15.1053 12.0469 15.824C12.2615 16.188 12.5042 16.4773 12.7749 16.692V17H9.80687V16.692C9.80687 16.3 9.51287 15.3013 8.92487 13.696ZM7.37087 8.964C7.06287 9.85067 6.67553 11.0873 6.20887 12.674H8.63087C8.57487 12.5153 8.49087 12.2493 8.37887 11.876C8.1362 11.0453 7.8002 10.0747 7.37087 8.964ZM13.259 12.506C13.259 11.722 13.5623 11.1107 14.169 10.672C14.785 10.2333 15.569 10.014 16.521 10.014C17.193 10.014 17.781 10.14 18.285 10.392C18.901 10.392 19.5403 10.3453 20.203 10.252L20.665 11.232H19.251C19.4936 11.6427 19.615 12.0673 19.615 12.506C19.615 13.2713 19.3256 13.8873 18.747 14.354C18.1776 14.8113 17.4403 15.04 16.535 15.04C16.1896 15.04 15.905 15.012 15.681 14.956C15.4476 15.152 15.331 15.3013 15.331 15.404C15.331 15.4973 15.373 15.572 15.457 15.628C15.5503 15.684 15.7136 15.74 15.947 15.796C16.1896 15.852 16.479 15.9127 16.815 15.978C18.2896 16.2487 19.2323 16.496 19.643 16.72C20.063 16.9347 20.273 17.3033 20.273 17.826C20.273 18.358 20.0723 18.8153 19.671 19.198C18.9243 19.926 17.7763 20.29 16.227 20.29C15.443 20.29 14.6963 20.1733 13.987 19.94C13.6136 19.8093 13.3103 19.6133 13.077 19.352C12.853 19.0907 12.741 18.7827 12.741 18.428C12.741 17.672 13.2123 17.1073 14.155 16.734C13.6136 16.4913 13.343 16.2067 13.343 15.88C13.343 15.6933 13.3896 15.5533 13.483 15.46C13.7723 15.1707 14.0616 14.9747 14.351 14.872C14.3883 14.8533 14.4536 14.8207 14.547 14.774C14.6403 14.7273 14.701 14.6993 14.729 14.69C13.749 14.2233 13.259 13.4953 13.259 12.506ZM15.331 13.472C15.5736 13.9853 15.9796 14.242 16.549 14.242C16.9503 14.242 17.2256 14.1767 17.375 14.046C17.627 13.738 17.753 13.2013 17.753 12.436C17.753 11.3627 17.291 10.826 16.367 10.826C16.0216 10.826 15.7323 10.8913 15.499 11.022C15.247 11.386 15.121 11.82 15.121 12.324C15.121 12.8187 15.191 13.2013 15.331 13.472ZM15.037 17.084C14.6916 17.28 14.519 17.616 14.519 18.092C14.519 18.568 14.7243 18.918 15.135 19.142C15.555 19.3753 15.9936 19.492 16.451 19.492C16.9083 19.492 17.2956 19.4033 17.613 19.226C17.9396 19.058 18.103 18.7827 18.103 18.4C18.103 18.1853 18.061 18.0407 17.977 17.966C17.9023 17.9007 17.851 17.854 17.823 17.826C17.795 17.798 17.7436 17.7653 17.669 17.728C17.5943 17.7 17.5336 17.6767 17.487 17.658C17.4496 17.6487 17.3796 17.63 17.277 17.602C17.1836 17.574 17.109 17.5507 17.053 17.532C17.0063 17.5227 16.9223 17.504 16.801 17.476C16.6796 17.448 16.493 17.4013 16.241 17.336C16.1196 17.2987 15.7183 17.2147 15.037 17.084Z" fill="#888888"/>
</svg>
