<svg width="24" height="24" viewBox="0 0 24 24" fill="none" xmlns="http://www.w3.org/2000/svg">
<path d="M12.3583 17.12C12.209 17.204 12.055 17.274 11.8963 17.33C11.7377 17.386 11.5323 17.4327 11.2803 17.47C11.1403 16.5087 11.0003 15.664 10.8603 14.936C10.7203 14.208 10.5757 13.5407 10.4263 12.934C9.76365 12.9247 9.11499 12.9433 8.48032 12.99C7.84565 13.0273 7.25299 13.088 6.70232 13.172C6.50632 13.6573 6.28699 14.1567 6.04432 14.67C5.81099 15.1833 5.54965 15.7247 5.26032 16.294C5.08299 16.2567 4.91499 16.196 4.75632 16.112C4.59765 16.0373 4.44365 15.93 4.29432 15.79C5.12499 14.3247 5.80165 12.892 6.32432 11.492C6.85632 10.0827 7.36965 8.29533 7.86432 6.13C8.11632 6.13933 8.32632 6.15333 8.49432 6.172C8.66232 6.19067 8.82565 6.21867 8.98432 6.256C9.89899 8.02933 10.6037 9.72333 11.0983 11.338C11.6023 12.9527 12.0223 14.88 12.3583 17.12ZM8.45232 7.446C8.22832 8.426 7.99965 9.31267 7.76632 10.106C7.54232 10.89 7.29499 11.6367 7.02432 12.346C7.47232 12.2807 7.96232 12.2293 8.49432 12.192C9.02632 12.1453 9.60032 12.1127 10.2163 12.094C9.98299 11.2727 9.72632 10.4887 9.44632 9.742C9.16632 8.99533 8.83499 8.23 8.45232 7.446ZM14.3636 12.402C14.3636 13.2513 14.4849 13.9187 14.7276 14.404C14.9703 14.8893 15.2923 15.132 15.6936 15.132C16.0016 15.132 16.2629 14.978 16.4776 14.67C16.7016 14.3527 16.8929 13.8627 17.0516 13.2C17.0329 12.5 16.9816 11.8607 16.8976 11.282C16.8229 10.694 16.7109 10.148 16.5616 9.644C16.4776 9.616 16.3843 9.59733 16.2816 9.588C16.1883 9.56933 16.0903 9.56 15.9876 9.56C15.4463 9.56 15.0403 9.798 14.7696 10.274C14.4989 10.7407 14.3636 11.45 14.3636 12.402ZM18.1436 13.634C18.1436 15.5193 17.8963 16.9613 17.4016 17.96C16.9069 18.9587 16.2256 19.458 15.3576 19.458C14.7603 19.458 14.2656 19.2573 13.8736 18.856C13.4816 18.4547 13.2343 17.9087 13.1316 17.218C13.2716 17.1153 13.4256 17.0267 13.5936 16.952C13.7709 16.8773 13.9483 16.8213 14.1256 16.784C14.2189 17.4467 14.3683 17.9273 14.5736 18.226C14.7789 18.5247 15.0636 18.674 15.4276 18.674C15.8943 18.674 16.2676 18.3427 16.5476 17.68C16.8276 17.0267 16.9956 16.07 17.0516 14.81C16.8649 15.1927 16.6456 15.4773 16.3936 15.664C16.1509 15.8507 15.8663 15.944 15.5396 15.944C14.8303 15.944 14.2656 15.6313 13.8456 15.006C13.4349 14.3713 13.2296 13.5173 13.2296 12.444C13.2296 11.3053 13.4816 10.4093 13.9856 9.756C14.4989 9.09333 15.1849 8.762 16.0436 8.762C16.3143 8.762 16.5896 8.79467 16.8696 8.86C17.1589 8.92533 17.4249 9.01867 17.6676 9.14C17.8076 9.74667 17.9196 10.47 18.0036 11.31C18.0969 12.1407 18.1436 12.9153 18.1436 13.634Z" fill="#888888"/>
</svg>
