<svg width="24" height="24" viewBox="0 0 24 24" fill="none" xmlns="http://www.w3.org/2000/svg">
<path d="M11.9932 17H10.2158V14.5938H3.96777V17H2.19043V12.0986C2.19043 11.3831 2.31348 10.7246 2.55957 10.123C2.80566 9.52148 3.14746 9.00423 3.58496 8.57129C4.02246 8.13835 4.53971 7.80111 5.13672 7.55957C5.73372 7.31803 6.38542 7.19727 7.0918 7.19727H11.0977C11.2207 7.19727 11.3369 7.22005 11.4463 7.26562C11.5557 7.3112 11.6514 7.375 11.7334 7.45703C11.8154 7.53906 11.8792 7.63477 11.9248 7.74414C11.9704 7.85352 11.9932 7.96973 11.9932 8.09277V17ZM3.96777 12.8164H10.2158V8.97461H7.0918C7.03711 8.97461 6.9209 8.98372 6.74316 9.00195C6.56999 9.01562 6.36719 9.05436 6.13477 9.11816C5.9069 9.18197 5.66536 9.27995 5.41016 9.41211C5.15495 9.54427 4.92025 9.72656 4.70605 9.95898C4.49186 10.1914 4.31413 10.4831 4.17285 10.834C4.03613 11.1803 3.96777 11.6019 3.96777 12.0986V12.8164ZM21.8643 17.7109C21.8643 18.0163 21.8255 18.2897 21.748 18.5312C21.6706 18.7773 21.568 18.9915 21.4404 19.1738C21.3128 19.3607 21.1647 19.5179 20.9961 19.6455C20.8275 19.7777 20.6497 19.8848 20.4629 19.9668C20.2806 20.0488 20.0938 20.1081 19.9023 20.1445C19.7155 20.1855 19.5378 20.2061 19.3691 20.2061H16.1631V18.4287H19.3691C19.6107 18.4287 19.7907 18.3672 19.9092 18.2441C20.0277 18.1211 20.0869 17.9434 20.0869 17.7109V12.0986C20.0869 11.8662 20.0277 11.6908 19.9092 11.5723C19.7907 11.4492 19.6107 11.3877 19.3691 11.3877H16.1631C15.9443 11.3877 15.7712 11.4561 15.6436 11.5928C15.516 11.7249 15.4521 11.8936 15.4521 12.0986V14.5049C15.4521 14.7373 15.5137 14.915 15.6367 15.0381C15.7598 15.1611 15.9398 15.2227 16.1768 15.2227H19.3691V17H16.1631C15.9945 17 15.8167 16.9818 15.6299 16.9453C15.443 16.9043 15.2562 16.8428 15.0693 16.7607C14.887 16.6787 14.7116 16.5739 14.543 16.4463C14.3743 16.3141 14.2262 16.1569 14.0986 15.9746C13.971 15.7878 13.8685 15.5736 13.791 15.332C13.7135 15.0859 13.6748 14.8102 13.6748 14.5049V12.0986C13.6748 11.93 13.693 11.7523 13.7295 11.5654C13.7705 11.3786 13.832 11.194 13.9141 11.0117C13.9961 10.8249 14.1009 10.6471 14.2285 10.4785C14.3607 10.3099 14.5179 10.1618 14.7002 10.0342C14.887 9.90658 15.1012 9.80404 15.3428 9.72656C15.5843 9.64909 15.8577 9.61035 16.1631 9.61035H19.3691C19.5378 9.61035 19.7155 9.63086 19.9023 9.67188C20.0938 9.70833 20.2806 9.76758 20.4629 9.84961C20.6497 9.93164 20.8275 10.0387 20.9961 10.1709C21.1647 10.2985 21.3128 10.4557 21.4404 10.6426C21.568 10.8249 21.6706 11.0368 21.748 11.2783C21.8255 11.5199 21.8643 11.7933 21.8643 12.0986V17.7109Z" fill="#333333"/>
</svg>
