<svg width="24" height="24" viewBox="0 0 24 24" fill="none" xmlns="http://www.w3.org/2000/svg">
<path d="M8.94336 8.79004C8.92057 8.79004 8.84538 8.90853 8.71777 9.14551C8.59473 9.38249 8.48079 9.58757 8.37598 9.76074C7.30501 11.5472 6.76953 12.5885 6.76953 12.8848C6.76953 12.9622 7.22298 13.001 8.12988 13.001L8.67676 13.0078H9.09375C9.4082 13.0078 9.56543 12.9281 9.56543 12.7686V12.707C9.56543 12.4427 9.52669 12.0941 9.44922 11.6611C9.37174 11.2236 9.33301 10.998 9.33301 10.9844L9.14844 9.7334L9.1416 9.67188L9.10742 9.49414C9.02539 9.02474 8.9707 8.79004 8.94336 8.79004ZM9.18262 7.23828H9.33301C9.55176 7.23828 9.71126 7.30208 9.81152 7.42969C9.91178 7.55273 10.0257 7.89225 10.1533 8.44824C10.2809 8.99967 10.3743 9.49186 10.4336 9.9248C10.4928 10.3532 10.5658 10.8021 10.6523 11.2715C10.7389 11.7409 10.7982 12.1214 10.8301 12.4131C10.862 12.7002 10.8916 12.9463 10.9189 13.1514L10.9531 13.5C10.9941 13.8919 11.083 14.4274 11.2197 15.1064C11.3564 15.7809 11.4248 16.182 11.4248 16.3096V16.4395C11.4248 16.6855 11.3245 16.8086 11.124 16.8086C10.6774 16.8086 10.3652 16.6719 10.1875 16.3984C10.1191 16.2936 10.028 15.945 9.91406 15.3525C9.80469 14.7555 9.68848 14.3978 9.56543 14.2793C9.44238 14.1608 9.05273 14.1016 8.39648 14.1016L8.23926 14.0947C8.13444 14.0902 8.02734 14.0879 7.91797 14.0879L7.42578 14.0811C6.84701 14.0811 6.47103 14.1471 6.29785 14.2793C6.12467 14.4069 5.86947 14.7738 5.53223 15.3799C5.19499 15.986 4.99902 16.3164 4.94434 16.3711C4.63444 16.681 4.29036 16.8359 3.91211 16.8359C3.7207 16.8359 3.625 16.7721 3.625 16.6445C3.625 16.5716 3.72754 16.2982 3.93262 15.8242C4.639 14.1882 5.6849 12.1715 7.07031 9.77441C7.73112 8.63053 8.16634 7.92188 8.37598 7.64844C8.59017 7.375 8.85905 7.23828 9.18262 7.23828ZM17.7754 12.7617V12.4062C17.7754 11.987 17.6797 11.6999 17.4883 11.5449C17.224 11.3353 16.873 11.2305 16.4355 11.2305L16.3672 11.2373C15.793 11.2373 15.2712 11.5426 14.8018 12.1533C14.3369 12.7594 14.1045 13.4408 14.1045 14.1973V14.3955C14.1045 15.5485 14.5283 16.125 15.376 16.125H15.4443C15.7497 16.125 16.0573 16.0293 16.3672 15.8379C16.6816 15.6465 16.93 15.4118 17.1123 15.1338C17.2946 14.8512 17.4495 14.4479 17.5771 13.9238C17.7093 13.3997 17.7754 13.0124 17.7754 12.7617ZM14.5967 17.082C13.389 17.082 12.7852 16.403 12.7852 15.0449C12.7852 14.4069 12.8945 13.7962 13.1133 13.2129C13.5371 12.0781 14.2116 11.2829 15.1367 10.8271C15.5833 10.6038 16.0163 10.4922 16.4355 10.4922H16.6201C16.8161 10.4922 17.0758 10.5879 17.3994 10.7793C17.723 10.9661 17.9212 11.0596 17.9941 11.0596L18.0898 11.0186C18.3861 10.8271 18.6117 10.7314 18.7666 10.7314C18.9808 10.7314 19.0879 10.8408 19.0879 11.0596C19.0879 11.6019 18.8965 12.8597 18.5137 14.833C18.1354 16.8063 17.8415 18.0026 17.6318 18.4219C17.3356 19.0143 16.9186 19.4746 16.3809 19.8027C15.8477 20.1354 15.2894 20.3018 14.7061 20.3018H14.501C13.9313 20.3018 13.4528 20.1947 13.0654 19.9805C12.6826 19.7708 12.4912 19.5361 12.4912 19.2764C12.4912 19.1442 12.5573 19.0326 12.6895 18.9414C12.8262 18.8548 12.9697 18.8115 13.1201 18.8115C13.2751 18.8115 13.5189 18.8366 13.8516 18.8867C14.1842 18.9368 14.4941 18.9619 14.7812 18.9619C15.0684 18.9619 15.3577 18.889 15.6494 18.7432C15.9411 18.5973 16.1826 18.4014 16.374 18.1553C16.6566 17.7952 16.7979 17.2575 16.7979 16.542C16.7979 16.3779 16.7682 16.2959 16.709 16.2959C16.6908 16.2959 16.5814 16.3643 16.3809 16.501C15.8249 16.8883 15.2301 17.082 14.5967 17.082Z" fill="#333333"/>
</svg>
