<svg width="24" height="24" viewBox="0 0 24 24" fill="none" xmlns="http://www.w3.org/2000/svg">
<path d="M8.99805 10.3623C8.99805 9.61035 8.93652 9.23438 8.81348 9.23438C8.80892 9.23438 8.49902 9.80632 7.88379 10.9502C7.26855 12.0895 6.96094 12.7275 6.96094 12.8643C6.96094 12.9053 7.31641 12.9258 8.02734 12.9258L8.7041 12.9395C9.0778 12.9395 9.26465 12.8529 9.26465 12.6797C9.25098 12.584 9.24414 12.5156 9.24414 12.4746L9.2168 12.2695C9.19857 12.1328 9.18945 12.0462 9.18945 12.0098L9.16211 11.8047C9.14844 11.6999 9.1416 11.6315 9.1416 11.5996L9.07324 11.0322L9.05273 10.8818C9.01628 10.6038 8.99805 10.4307 8.99805 10.3623ZM8.28027 7.52539C8.50814 7.3431 8.81348 7.25195 9.19629 7.25195C9.5791 7.25195 9.82064 7.30208 9.9209 7.40234C10.0212 7.49805 10.1146 7.72819 10.2012 8.09277C10.2878 8.4528 10.5088 9.93164 10.8643 12.5293C11.2197 15.1224 11.3975 16.4486 11.3975 16.5078C11.3975 16.7767 11.1855 16.9111 10.7617 16.9111C10.3379 16.9111 10.0348 16.8132 9.85254 16.6172C9.77051 16.526 9.68392 16.1615 9.59277 15.5234C9.50618 14.8854 9.44922 14.5368 9.42188 14.4775C9.33984 14.3089 9.06413 14.2246 8.59473 14.2246C7.24121 14.2246 6.4847 14.2839 6.3252 14.4023C6.16569 14.5208 5.93555 14.8945 5.63477 15.5234C5.33398 16.1523 5.16764 16.4873 5.13574 16.5283C4.93522 16.7926 4.55469 16.9248 3.99414 16.9248H3.68652C3.49967 16.9248 3.40625 16.8724 3.40625 16.7676C3.40625 16.6582 3.60677 16.2025 4.00781 15.4004C5.91276 11.5859 7.02474 9.43262 7.34375 8.94043C7.93164 8.02897 8.24382 7.55729 8.28027 7.52539ZM16.5996 11.4014H16.4561L16.3877 11.4082C15.9365 11.4082 15.5469 11.6315 15.2188 12.0781C14.7402 12.7298 14.501 13.3542 14.501 13.9512V14.1289L14.5967 14.9014C14.5967 15.2113 14.6673 15.4665 14.8086 15.667C14.9544 15.863 15.1299 15.9609 15.335 15.9609L15.5059 15.9814H15.6631C15.8271 15.9814 16.071 15.8926 16.3945 15.7148C16.7181 15.5326 16.9391 15.3161 17.0576 15.0654C17.4632 14.2041 17.666 13.3337 17.666 12.4541V12.2559C17.666 11.9551 17.5977 11.7523 17.4609 11.6475C17.2467 11.4834 16.9596 11.4014 16.5996 11.4014ZM15.0547 16.8633C14.4121 16.8633 13.9062 16.6514 13.5371 16.2275C13.1725 15.8037 12.9902 15.1862 12.9902 14.375C12.9902 13.9056 13.0905 13.3883 13.291 12.8232C13.6784 11.7295 14.3027 10.9867 15.1641 10.5947C15.5605 10.4124 15.9434 10.3213 16.3125 10.3213C16.6816 10.3213 16.9528 10.3532 17.126 10.417C17.2992 10.4808 17.4746 10.5605 17.6523 10.6562C17.8346 10.752 17.9645 10.7998 18.042 10.7998C18.124 10.7998 18.2288 10.7474 18.3564 10.6426C18.484 10.5332 18.6549 10.4785 18.8691 10.4785C19.2292 10.4785 19.4092 10.5719 19.4092 10.7588V10.9092C19.4092 11.0231 19.3112 11.5449 19.1152 12.4746C18.9193 13.3997 18.762 14.1745 18.6436 14.7988C18.3109 16.5625 18.0283 17.6813 17.7959 18.1553C17.5635 18.6292 17.1898 19.0303 16.6748 19.3584C16.1598 19.6911 15.5811 19.8574 14.9385 19.8574C14.2959 19.8574 13.7217 19.7367 13.2158 19.4951C12.8512 19.3219 12.6689 19.0986 12.6689 18.8252C12.6689 18.6657 12.7305 18.5335 12.8535 18.4287C12.9766 18.3239 13.1497 18.2715 13.373 18.2715C13.5964 18.2715 13.847 18.333 14.125 18.4561C14.4076 18.5791 14.6855 18.6406 14.959 18.6406C15.4466 18.6406 15.859 18.4196 16.1963 17.9775C16.5381 17.5355 16.709 16.9818 16.709 16.3164L16.668 16.2822C16.6543 16.2822 16.5768 16.3301 16.4355 16.4258C16.2943 16.5169 16.1165 16.6126 15.9023 16.7129C15.6882 16.8132 15.4056 16.8633 15.0547 16.8633Z" fill="#888888"/>
</svg>
