<svg width="24" height="24" viewBox="0 0 24 24" fill="none" xmlns="http://www.w3.org/2000/svg">
<path d="M9.26562 12.96V12.8779C9.26562 12.5771 8.87826 11.4583 8.10352 9.52148C7.99414 9.24805 7.92806 9.11133 7.90527 9.11133C7.88704 9.11133 7.64779 9.72201 7.1875 10.9434C6.73177 12.1647 6.50391 12.8278 6.50391 12.9326C6.50391 13.0146 6.72266 13.0557 7.16016 13.0557H8.33594C8.95573 13.0557 9.26562 13.0238 9.26562 12.96ZM3.53027 16.6377C3.53027 16.5465 3.66699 16.4144 3.94043 16.2412C4.21842 16.068 4.43262 15.8128 4.58301 15.4756C4.58757 15.4619 4.74251 15.0609 5.04785 14.2725C5.35319 13.4795 5.68815 12.6501 6.05273 11.7842C6.42188 10.9137 6.66341 10.3122 6.77734 9.97949C6.89128 9.64225 7.01888 9.24577 7.16016 8.79004C7.30143 8.33431 7.40169 8.05632 7.46094 7.95605C7.64323 7.64616 7.88932 7.49121 8.19922 7.49121C8.30404 7.49121 8.41341 7.53223 8.52734 7.61426C8.86914 7.86491 9.26562 8.65104 9.7168 9.97266C9.89453 10.4922 10.2705 11.5244 10.8447 13.0693C11.4189 14.6143 11.7607 15.5007 11.8701 15.7285C11.9795 15.9564 12.1253 16.1227 12.3076 16.2275C12.6813 16.4417 12.8682 16.599 12.8682 16.6992C12.8682 16.877 12.5173 16.9658 11.8154 16.9658H11.0088C10.2113 16.9658 9.8125 16.8838 9.8125 16.7197C9.8125 16.6104 9.8877 16.4759 10.0381 16.3164C10.1885 16.1523 10.2637 15.986 10.2637 15.8174C10.2637 15.6442 10.1725 15.332 9.99023 14.8809C9.8125 14.4251 9.68034 14.138 9.59375 14.0195C9.43424 13.8008 9.09928 13.6914 8.58887 13.6914L8.19238 13.6777C8.05566 13.6732 7.85286 13.6709 7.58398 13.6709C6.85026 13.6709 6.41276 13.7324 6.27148 13.8555C6.13021 13.974 5.96159 14.2861 5.76562 14.792C5.56966 15.2933 5.47168 15.6351 5.47168 15.8174C5.47168 15.9997 5.5651 16.1797 5.75195 16.3574C5.94336 16.5352 6.03906 16.64 6.03906 16.6719C6.03906 16.8314 5.81576 16.9111 5.36914 16.9111C4.14323 16.9111 3.53027 16.82 3.53027 16.6377ZM17.8721 12.7891L17.8584 12.5088C17.8584 12.0212 17.708 11.5768 17.4072 11.1758C17.193 10.8887 16.9355 10.7451 16.6348 10.7451H16.4023C16.1243 10.7451 15.8623 10.9069 15.6162 11.2305C15.3747 11.554 15.2539 11.9574 15.2539 12.4404V12.7412L15.2607 12.8027C15.2607 13.222 15.3564 13.5843 15.5479 13.8896C15.7438 14.1904 16.0514 14.3408 16.4707 14.3408H16.6348C16.9583 14.3408 17.2432 14.2292 17.4893 14.0059C17.7354 13.778 17.8584 13.4977 17.8584 13.165L17.8652 13.1172L17.8721 13.0625L17.8789 12.8506L17.8721 12.7891ZM15.9443 16.8086C15.5934 16.8086 15.3245 16.8952 15.1377 17.0684C14.8369 17.3464 14.6865 17.6585 14.6865 18.0049V18.1279L14.6934 18.1826C14.6934 18.529 14.8551 18.8275 15.1787 19.0781C15.5068 19.3288 15.9329 19.4541 16.457 19.4541H16.833C16.9242 19.445 16.988 19.4404 17.0244 19.4404C17.5622 19.4404 18.0156 19.2832 18.3848 18.9688C18.7539 18.6589 18.9385 18.3239 18.9385 17.9639V17.9092C18.9385 17.6084 18.8154 17.3646 18.5693 17.1777C18.3232 16.9954 17.9974 16.9043 17.5918 16.9043C17.4277 16.8861 17.3047 16.877 17.2227 16.877L17.0996 16.8633L16.3613 16.8223L16.2998 16.8154L16.0605 16.8086H15.9443ZM17.2637 10.3623C17.3913 10.3669 17.487 10.3691 17.5508 10.3691C17.6146 10.3691 17.8288 10.376 18.1934 10.3896L18.3711 10.3965L18.7129 10.417C18.7904 10.417 18.9111 10.4124 19.0752 10.4033L19.4307 10.3828C19.891 10.3828 20.1211 10.4808 20.1211 10.6768C20.1211 10.9365 19.9388 11.0915 19.5742 11.1416C19.2142 11.1872 19.0342 11.3079 19.0342 11.5039L19.0684 11.6543L19.1709 12.0098C19.221 12.2194 19.2461 12.4632 19.2461 12.7412C19.2461 13.001 19.1709 13.2721 19.0205 13.5547C18.5967 14.3704 17.7718 14.8057 16.5459 14.8604C16.0309 14.8877 15.7165 14.9287 15.6025 14.9834C15.3883 15.0928 15.2812 15.2591 15.2812 15.4824C15.2812 15.7057 15.4818 15.8607 15.8828 15.9473C15.9922 15.9746 16.4593 16.0156 17.2842 16.0703C18.1045 16.125 18.6787 16.2253 19.0068 16.3711C19.6266 16.6536 19.9365 17.1367 19.9365 17.8203C19.9365 18.5085 19.613 19.0736 18.9658 19.5156C18.3096 19.9577 17.5348 20.1787 16.6416 20.1787C15.3428 20.1787 14.4723 19.887 14.0303 19.3037C13.8434 19.0576 13.75 18.7682 13.75 18.4355C13.75 18.1074 13.9072 17.7679 14.2217 17.417C14.5361 17.0661 14.6934 16.8519 14.6934 16.7744L14.6523 16.6582L14.4131 16.3984C14.2946 16.2344 14.2354 16.0498 14.2354 15.8447C14.2354 15.6396 14.3333 15.3981 14.5293 15.1201C14.7298 14.8421 14.8301 14.6576 14.8301 14.5664C14.8346 14.4844 14.7777 14.3613 14.6592 14.1973C14.2764 13.6686 14.085 13.1468 14.085 12.6318C14.085 12.3265 14.1624 12.0212 14.3174 11.7158C14.7777 10.8089 15.696 10.3555 17.0723 10.3555L17.2637 10.3623Z" fill="#888888"/>
</svg>
