<svg width="24" height="24" viewBox="0 0 24 24" fill="none" xmlns="http://www.w3.org/2000/svg">
<path d="M4.61253 15.194L5.08853 13.024H11.0665L10.5905 15.194H4.61253ZM7.18853 7.228H11.1785L11.3465 17H8.58853L8.74253 12.226L8.78453 9.202L7.53853 12.226L5.66253 17H2.87653L7.18853 7.228ZM19.108 9.846L19.29 9.16H21.81L20.27 16.468C20.0273 17.588 19.5373 18.4 18.8 18.904C18.0627 19.408 17.12 19.66 15.972 19.66C15.244 19.66 14.6 19.562 14.04 19.366C13.48 19.1793 13.0413 18.8853 12.724 18.484C12.416 18.092 12.2573 17.5927 12.248 16.986H14.95C14.9687 17.2193 15.0807 17.3873 15.286 17.49C15.4913 17.602 15.7667 17.658 16.112 17.658C16.5693 17.658 16.9193 17.5647 17.162 17.378C17.4047 17.1913 17.5727 16.8833 17.666 16.454L17.82 15.74C17.5773 16.0107 17.3067 16.2113 17.008 16.342C16.7187 16.4633 16.3873 16.524 16.014 16.524C15.37 16.524 14.824 16.384 14.376 16.104C13.928 15.824 13.5827 15.4413 13.34 14.956C13.1067 14.4707 12.99 13.9293 12.99 13.332C12.99 12.716 13.0833 12.1467 13.27 11.624C13.466 11.092 13.7413 10.63 14.096 10.238C14.4507 9.846 14.8753 9.54267 15.37 9.328C15.8647 9.11333 16.42 9.006 17.036 9.006C17.4653 9.006 17.8667 9.08067 18.24 9.23C18.6133 9.37 18.9027 9.57533 19.108 9.846ZM16.812 14.592C17.1573 14.592 17.4467 14.4893 17.68 14.284C17.9133 14.0787 18.1187 13.808 18.296 13.472L18.604 12.058C18.5667 11.7127 18.436 11.4373 18.212 11.232C17.9973 11.0267 17.7127 10.924 17.358 10.924C16.994 10.924 16.6813 11.0267 16.42 11.232C16.168 11.4373 15.972 11.708 15.832 12.044C15.692 12.3707 15.622 12.7393 15.622 13.15C15.622 13.5887 15.7247 13.9387 15.93 14.2C16.1353 14.4613 16.4293 14.592 16.812 14.592Z" fill="#888888"/>
</svg>
