<svg width="24" height="24" viewBox="0 0 24 24" fill="none" xmlns="http://www.w3.org/2000/svg">
<path d="M4.31253 14.536V13.276H9.73053V14.536H4.31253ZM5.88053 7.228H8.00853L11.0325 17H9.50653L7.53253 10.532L6.94453 8.39L6.35653 10.546L4.35453 17H2.85653L5.88053 7.228ZM18.192 10.406L18.234 9.3H19.564V16.16C19.564 17.2987 19.256 18.1667 18.64 18.764C18.0333 19.3613 17.114 19.66 15.882 19.66C15.2007 19.66 14.608 19.5667 14.104 19.38C13.6093 19.1933 13.2173 18.9133 12.928 18.54C12.648 18.176 12.4893 17.7187 12.452 17.168H13.922C13.9687 17.588 14.1553 17.91 14.482 18.134C14.818 18.3673 15.308 18.484 15.952 18.484C16.68 18.484 17.226 18.2973 17.59 17.924C17.9633 17.5507 18.15 17.0187 18.15 16.328V15.306C17.8887 15.698 17.5387 16.006 17.1 16.23C16.6707 16.454 16.19 16.566 15.658 16.566C14.9953 16.566 14.4073 16.4073 13.894 16.09C13.39 15.7727 12.9933 15.334 12.704 14.774C12.4147 14.2047 12.27 13.5653 12.27 12.856C12.27 12.0907 12.4193 11.4327 12.718 10.882C13.0167 10.322 13.4273 9.89267 13.95 9.594C14.4727 9.286 15.0653 9.132 15.728 9.132C16.26 9.132 16.7407 9.24867 17.17 9.482C17.5993 9.71533 17.94 10.0233 18.192 10.406ZM15.966 15.46C16.47 15.46 16.918 15.3153 17.31 15.026C17.7113 14.7273 17.9913 14.326 18.15 13.822V11.876C17.9913 11.372 17.7113 10.9753 17.31 10.686C16.918 10.3873 16.47 10.238 15.966 10.238C15.5087 10.238 15.1073 10.35 14.762 10.574C14.426 10.798 14.16 11.106 13.964 11.498C13.7773 11.8807 13.684 12.3287 13.684 12.842C13.684 13.346 13.7773 13.7987 13.964 14.2C14.16 14.592 14.426 14.9 14.762 15.124C15.1073 15.348 15.5087 15.46 15.966 15.46Z" fill="#888888"/>
</svg>
