<svg width="24" height="24" viewBox="0 0 24 24" fill="none" xmlns="http://www.w3.org/2000/svg">
<path d="M3.39 17L7.758 8.012L8.262 6.542L10.747 6.325L12.224 17H9.935L9.648 14.011H6.904L5.588 17H3.39ZM9.424 7.473L8.598 10.07L7.583 12.478H9.501L9.333 10.07L9.424 7.473ZM17.5705 16.888C17.4071 16.9533 17.2088 17.0117 16.9755 17.063C16.7468 17.119 16.4971 17.1377 16.2265 17.119C15.7551 17.091 15.3491 16.972 15.0085 16.762C14.6678 16.552 14.3901 16.2743 14.1755 15.929C13.9655 15.5837 13.8185 15.1777 13.7345 14.711C13.6551 14.2397 13.6411 13.731 13.6925 13.185C13.7438 12.6343 13.8698 12.1163 14.0705 11.631C14.2758 11.1457 14.5558 10.7233 14.9105 10.364C15.2651 10 15.6921 9.713 16.1915 9.503C16.6955 9.28833 17.2718 9.181 17.9205 9.181C18.0045 9.181 18.0745 9.18333 18.1305 9.188C18.1865 9.188 18.2378 9.19267 18.2845 9.202L18.7255 10.294L18.9355 9.118L21.0705 9.349L19.6705 17.287C19.5771 17.8097 19.4115 18.2833 19.1735 18.708C18.9401 19.1373 18.6438 19.499 18.2845 19.793C17.9298 20.087 17.5168 20.3063 17.0455 20.451C16.5741 20.6003 16.0538 20.6563 15.4845 20.619C15.1765 20.6003 14.8988 20.5583 14.6515 20.493C14.4041 20.4323 14.1801 20.353 13.9795 20.255C13.7788 20.157 13.5991 20.045 13.4405 19.919C13.2865 19.793 13.1488 19.6577 13.0275 19.513L14.2455 18.344C14.3061 18.4093 14.3901 18.4793 14.4975 18.554C14.6048 18.6333 14.7261 18.708 14.8615 18.778C14.9968 18.848 15.1415 18.9087 15.2955 18.96C15.4541 19.0113 15.6128 19.0417 15.7715 19.051C15.9675 19.065 16.1611 19.0323 16.3525 18.953C16.5485 18.8737 16.7258 18.7523 16.8845 18.589C17.0478 18.4303 17.1855 18.232 17.2975 17.994C17.4141 17.7607 17.4888 17.4923 17.5215 17.189L17.5705 16.888ZM18.5575 11.26C18.4501 11.1107 18.3195 10.98 18.1655 10.868C18.0115 10.756 17.8295 10.7 17.6195 10.7C17.3115 10.7 17.0525 10.7747 16.8425 10.924C16.6371 11.0733 16.4668 11.2693 16.3315 11.512C16.1961 11.75 16.0911 12.023 16.0165 12.331C15.9465 12.639 15.8951 12.9493 15.8625 13.262C15.7925 13.9527 15.8135 14.5033 15.9255 14.914C16.0421 15.32 16.2661 15.5487 16.5975 15.6C16.8728 15.642 17.1131 15.6047 17.3185 15.488C17.5285 15.3667 17.7221 15.201 17.8995 14.991L18.5575 11.26Z" fill="#888888"/>
</svg>
