<svg width="24" height="24" viewBox="0 0 24 24" fill="none" xmlns="http://www.w3.org/2000/svg">
<path d="M10.0436 14.424H5.95555L5.00355 17H3.61755L7.41155 7.2H8.01355C8.41489 7.2 8.69956 7.41933 8.86756 7.858L12.3816 17H11.0096L10.0436 14.424ZM6.34755 13.304H9.65156L8.01355 8.88H7.99956L6.34755 13.304ZM15.7916 19.842C15.129 19.842 14.5783 19.66 14.1396 19.296C13.7103 18.932 13.4723 18.456 13.4256 17.868H14.7276C14.7556 18.12 14.8676 18.3253 15.0636 18.484C15.2596 18.6427 15.5023 18.722 15.7916 18.722H16.9816C17.4016 18.722 17.7283 18.5727 17.9616 18.274C18.2043 17.9847 18.3256 17.5833 18.3256 17.07V16.132C18.1203 16.384 17.8636 16.5893 17.5556 16.748C17.2476 16.9067 16.9536 16.986 16.6736 16.986H15.6656C15.1616 16.986 14.7136 16.874 14.3216 16.65C13.9296 16.426 13.6263 16.1087 13.4116 15.698C13.197 15.2873 13.0896 14.816 13.0896 14.284V12.716C13.0896 12.1653 13.2016 11.6753 13.4256 11.246C13.659 10.8167 13.981 10.4853 14.3916 10.252C14.8023 10.0187 15.2736 9.902 15.8056 9.902H16.7296C17.0283 9.902 17.3363 9.986 17.6536 10.154C17.971 10.3127 18.2183 10.518 18.3956 10.77V10.014H19.6276V17.07C19.6276 17.9287 19.3896 18.6053 18.9136 19.1C18.447 19.5947 17.803 19.842 16.9816 19.842H15.7916ZM16.7156 15.852C17.145 15.852 17.509 15.6793 17.8076 15.334C18.1156 14.9887 18.2883 14.5453 18.3256 14.004V12.534C18.2883 12.0953 18.1296 11.7407 17.8496 11.47C17.5696 11.19 17.2336 11.05 16.8416 11.05H15.8756C15.437 11.05 15.0776 11.2087 14.7976 11.526C14.527 11.834 14.3916 12.2447 14.3916 12.758V14.242C14.3916 14.718 14.5176 15.1053 14.7696 15.404C15.0216 15.7027 15.339 15.852 15.7216 15.852H16.7156Z" fill="#333333"/>
</svg>
