<svg width="24" height="24" viewBox="0 0 24 24" fill="none" xmlns="http://www.w3.org/2000/svg">
<path d="M9.93386 14.018H5.38386L4.26386 17H3.73186L7.44186 7.2H7.67986C7.81986 7.2 7.93186 7.30267 8.01586 7.508L11.5859 17H11.0539L9.93386 14.018ZM5.55186 13.556H9.76586L7.67986 7.928H7.66586L5.55186 13.556ZM15.0758 19.842C14.5438 19.842 14.1051 19.702 13.7598 19.422C13.4145 19.1513 13.2185 18.792 13.1718 18.344H13.6618C13.6991 18.6613 13.8438 18.9133 14.0958 19.1C14.3571 19.296 14.6838 19.394 15.0758 19.394H16.2518C16.8025 19.394 17.2318 19.212 17.5398 18.848C17.8571 18.4933 18.0158 17.9987 18.0158 17.364V15.698C17.7825 16.09 17.4885 16.4073 17.1338 16.65C16.7791 16.8833 16.4105 17 16.0278 17H14.9918C14.3291 17 13.7971 16.7713 13.3958 16.314C12.9945 15.8473 12.7938 15.2313 12.7938 14.466V12.506C12.7938 11.722 13.0085 11.092 13.4378 10.616C13.8671 10.14 14.4318 9.902 15.1318 9.902H16.2238C16.5785 9.902 16.9191 10 17.2458 10.196C17.5725 10.392 17.8338 10.658 18.0298 10.994V10.014H18.5058V17.364C18.5058 18.1387 18.3051 18.7453 17.9038 19.184C17.5118 19.6227 16.9611 19.842 16.2518 19.842H15.0758ZM15.9998 16.552C16.4665 16.552 16.8818 16.3747 17.2458 16.02C17.6098 15.656 17.8665 15.2593 18.0158 14.83V11.904C17.8945 11.4467 17.6658 11.0733 17.3298 10.784C17.0031 10.4947 16.6345 10.35 16.2238 10.35H15.1318C14.5811 10.35 14.1331 10.5507 13.7878 10.952C13.4518 11.344 13.2838 11.862 13.2838 12.506V14.466C13.2838 15.0913 13.4378 15.5953 13.7458 15.978C14.0631 16.3607 14.4785 16.552 14.9918 16.552H15.9998Z" fill="#888888"/>
</svg>
