<svg width="24" height="24" viewBox="0 0 24 24" fill="none" xmlns="http://www.w3.org/2000/svg">
<path d="M9.75316 14.578H5.86116L4.53116 17H2.76716L8.29716 7.2H9.03916C9.5525 7.2 9.8605 7.44733 9.96316 7.942L11.8672 17H10.2292L9.75316 14.578ZM6.56116 13.206H9.54316L8.77316 9.23H8.75916L6.56116 13.206ZM14.9233 19.842C14.214 19.842 13.6447 19.6647 13.2153 19.31C12.7953 18.9647 12.5853 18.5027 12.5853 17.924C12.5853 17.8307 12.59 17.756 12.5993 17.7H14.1813C14.172 17.9333 14.2373 18.12 14.3773 18.26C14.5267 18.4 14.7273 18.47 14.9793 18.47H16.2113C16.5847 18.47 16.8973 18.3393 17.1493 18.078C17.4013 17.8167 17.5647 17.4573 17.6393 17L17.7793 16.202C17.5367 16.4353 17.2753 16.622 16.9953 16.762C16.7247 16.8927 16.4727 16.958 16.2393 16.958H15.2733C14.5267 16.958 13.934 16.762 13.4953 16.37C13.0567 15.978 12.8373 15.4507 12.8373 14.788C12.8373 14.6853 12.856 14.5033 12.8933 14.242L13.1453 12.744C13.304 11.8573 13.6587 11.162 14.2093 10.658C14.76 10.154 15.446 9.902 16.2673 9.902H17.1353C17.4993 9.902 17.8353 9.98133 18.1433 10.14C18.4607 10.2893 18.694 10.49 18.8433 10.742L18.9693 10.014H20.4813L19.2493 17C19.0907 17.896 18.736 18.5913 18.1853 19.086C17.644 19.59 16.9673 19.842 16.1553 19.842H14.9233ZM16.4213 15.586C16.8133 15.586 17.1727 15.4273 17.4993 15.11C17.8353 14.7927 18.064 14.382 18.1853 13.878L18.4093 12.66C18.4373 12.2587 18.3487 11.932 18.1433 11.68C17.938 11.4187 17.658 11.288 17.3033 11.288H16.3233C15.9127 11.288 15.5627 11.428 15.2733 11.708C14.9933 11.988 14.816 12.366 14.7413 12.842L14.5173 14.144C14.4987 14.228 14.4893 14.3493 14.4893 14.508C14.4893 14.844 14.5733 15.11 14.7413 15.306C14.9093 15.4927 15.1427 15.586 15.4413 15.586H16.4213Z" fill="#888888"/>
</svg>
