<svg width="24" height="24" viewBox="0 0 24 24" fill="none" xmlns="http://www.w3.org/2000/svg">
<path d="M7.72673 8.168H7.64273C7.54006 8.476 7.42339 8.826 7.29273 9.218C7.16206 9.60067 7.02206 10.002 6.87273 10.422C6.73273 10.842 6.60206 11.2527 6.48073 11.654L6.24273 12.774C6.18673 12.9513 6.13073 13.1427 6.07473 13.348C6.01873 13.5533 5.95806 13.754 5.89273 13.95C5.83673 14.146 5.78073 14.3373 5.72473 14.524C5.67806 14.7013 5.63606 14.86 5.59873 15C5.49606 15.0373 5.38406 15.07 5.26273 15.098C5.14139 15.126 4.99206 15.14 4.81473 15.14C4.46006 15.14 4.18473 15.0747 3.98873 14.944C3.79273 14.804 3.69473 14.608 3.69473 14.356C3.69473 14.244 3.71339 14.132 3.75073 14.02C3.78806 13.8987 3.82539 13.7633 3.86273 13.614C3.95606 13.306 4.07739 12.9187 4.22673 12.452C4.38539 11.9853 4.55806 11.4813 4.74473 10.94C4.93139 10.3893 5.11806 9.848 5.30473 9.316C5.50073 8.77467 5.68273 8.27533 5.85073 7.818C6.01873 7.36067 6.15873 6.992 6.27073 6.712C6.40139 6.63733 6.59739 6.56733 6.85873 6.502C7.12939 6.42733 7.39539 6.39 7.65673 6.39C8.03006 6.39 8.36606 6.446 8.66473 6.558C8.96339 6.66067 9.15006 6.83333 9.22473 7.076C9.41139 7.57067 9.61206 8.14933 9.82673 8.812C10.0414 9.46533 10.2607 10.1467 10.4847 10.856C10.7087 11.5653 10.9187 12.256 11.1147 12.928C11.3201 13.6 11.5021 14.2067 11.6607 14.748C11.5674 14.86 11.4274 14.9487 11.2407 15.014C11.0541 15.0887 10.8394 15.126 10.5967 15.126C10.2327 15.126 9.97606 15.0653 9.82673 14.944C9.67739 14.8133 9.56539 14.6127 9.49073 14.342L8.98673 12.676L8.77673 11.584C8.64606 11.1547 8.51539 10.73 8.38473 10.31C8.25406 9.89 8.13273 9.498 8.02073 9.134C7.90873 8.76067 7.81073 8.43867 7.72673 8.168ZM5.37473 13.068L6.13073 11.5H9.49073L9.75673 13.068H5.37473ZM15.5016 14.748C14.9416 14.748 14.4283 14.6407 13.9616 14.426C13.495 14.2113 13.117 13.8613 12.8276 13.376C12.5476 12.8907 12.4076 12.2513 12.4076 11.458C12.4076 10.7207 12.5523 10.1047 12.8416 9.61C13.131 9.11533 13.537 8.742 14.0596 8.49C14.5916 8.238 15.203 8.112 15.8936 8.112C16.3976 8.112 16.8596 8.17733 17.2796 8.308C17.6996 8.42933 18.031 8.56933 18.2736 8.728C18.4416 8.84 18.577 8.97533 18.6796 9.134C18.7823 9.28333 18.8336 9.47 18.8336 9.694V14.076H16.9436V9.89C16.8316 9.82467 16.6963 9.76867 16.5376 9.722C16.379 9.67533 16.1876 9.652 15.9636 9.652C15.4876 9.652 15.1003 9.80133 14.8016 10.1C14.503 10.3893 14.3536 10.842 14.3536 11.458C14.3536 12.1393 14.4936 12.6107 14.7736 12.872C15.063 13.1333 15.4176 13.264 15.8376 13.264C16.1643 13.264 16.4303 13.208 16.6356 13.096C16.841 12.984 17.0183 12.858 17.1676 12.718L17.2376 14.286C17.051 14.4073 16.813 14.5147 16.5236 14.608C16.2436 14.7013 15.903 14.748 15.5016 14.748ZM16.9716 14.972V13.642H18.8336V15.028C18.8336 15.672 18.6796 16.1947 18.3716 16.596C18.073 17.0067 17.667 17.3053 17.1536 17.492C16.6496 17.688 16.0803 17.786 15.4456 17.786C14.9603 17.786 14.531 17.744 14.1576 17.66C13.7936 17.576 13.5136 17.4733 13.3176 17.352C13.0003 17.1467 12.8416 16.8667 12.8416 16.512C12.8416 16.3253 12.879 16.1573 12.9536 16.008C13.0376 15.868 13.1356 15.7607 13.2476 15.686C13.4903 15.8353 13.7843 15.966 14.1296 16.078C14.475 16.19 14.8436 16.246 15.2356 16.246C15.777 16.246 16.2016 16.1433 16.5096 15.938C16.8176 15.7327 16.9716 15.4107 16.9716 14.972Z" fill="#888888"/>
</svg>
