<svg width="24" height="24" viewBox="0 0 24 24" fill="none" xmlns="http://www.w3.org/2000/svg">
<path d="M8.97437 14.138H6.23037C6.1277 14.474 6.0297 14.8053 5.93637 15.132C5.85237 15.4587 5.7777 15.748 5.71237 16C5.59103 16.0373 5.46503 16.07 5.33437 16.098C5.2037 16.126 5.04503 16.14 4.85837 16.14C4.4477 16.14 4.13503 16.07 3.92037 15.93C3.71503 15.7807 3.61237 15.5707 3.61237 15.3C3.61237 15.1693 3.63103 15.0433 3.66837 14.922C3.7057 14.8007 3.7477 14.6607 3.79437 14.502C3.8597 14.25 3.95303 13.9373 4.07437 13.564C4.1957 13.1907 4.32637 12.7893 4.46637 12.36C4.6157 11.9213 4.7697 11.4733 4.92837 11.016C5.08703 10.5587 5.24103 10.1247 5.39037 9.714C5.5397 9.294 5.67503 8.91133 5.79637 8.566C5.9177 8.22067 6.02037 7.94533 6.10437 7.74C6.24437 7.656 6.45903 7.57667 6.74837 7.502C7.04703 7.42733 7.34103 7.39 7.63037 7.39C8.05037 7.39 8.41903 7.45067 8.73637 7.572C9.06303 7.684 9.27303 7.87533 9.36637 8.146C9.5437 8.64067 9.73503 9.21467 9.94037 9.868C10.1457 10.5213 10.351 11.1933 10.5564 11.884C10.771 12.5747 10.9764 13.256 11.1724 13.928C11.3684 14.6 11.541 15.202 11.6904 15.734C11.5877 15.8553 11.4337 15.9533 11.2284 16.028C11.0324 16.1027 10.7944 16.14 10.5144 16.14C10.113 16.14 9.82837 16.07 9.66037 15.93C9.5017 15.79 9.38503 15.5707 9.31037 15.272L8.97437 14.138ZM7.61637 9.35C7.4857 9.77 7.32237 10.2507 7.12637 10.792C6.9397 11.324 6.76237 11.87 6.59437 12.43H8.59637C8.4377 11.842 8.27437 11.282 8.10637 10.75C7.9477 10.2087 7.81237 9.742 7.70037 9.35H7.61637ZM16.9016 15.454C16.715 15.538 16.505 15.608 16.2716 15.664C16.0383 15.7107 15.7723 15.734 15.4736 15.734C15.0536 15.734 14.6523 15.678 14.2696 15.566C13.8963 15.4447 13.5696 15.2533 13.2896 14.992C13.0096 14.7307 12.7856 14.39 12.6176 13.97C12.4496 13.55 12.3656 13.0367 12.3656 12.43C12.3656 11.8793 12.4496 11.394 12.6176 10.974C12.7856 10.554 13.0236 10.204 13.3316 9.924C13.649 9.63467 14.0223 9.42 14.4516 9.28C14.8903 9.13067 15.3756 9.056 15.9076 9.056C16.4303 9.056 16.9063 9.126 17.3356 9.266C17.7743 9.39667 18.115 9.54133 18.3576 9.7C18.535 9.82133 18.675 9.96133 18.7776 10.12C18.8803 10.2693 18.9316 10.4607 18.9316 10.694V15.972C18.9316 16.4573 18.843 16.8773 18.6656 17.232C18.4883 17.5867 18.241 17.876 17.9236 18.1C17.6156 18.3333 17.2516 18.506 16.8316 18.618C16.4116 18.73 15.959 18.786 15.4736 18.786C14.9696 18.786 14.531 18.744 14.1576 18.66C13.7936 18.576 13.5043 18.4687 13.2896 18.338C12.9723 18.114 12.8136 17.8153 12.8136 17.442C12.8136 17.246 12.8556 17.064 12.9396 16.896C13.0236 16.7373 13.117 16.6207 13.2196 16.546C13.481 16.6953 13.7796 16.8213 14.1156 16.924C14.461 17.036 14.825 17.092 15.2076 17.092C15.7303 17.092 16.141 16.9987 16.4396 16.812C16.7476 16.6347 16.9016 16.336 16.9016 15.916V15.454ZM15.8516 14.124C16.0756 14.124 16.267 14.096 16.4256 14.04C16.5936 13.984 16.743 13.9093 16.8736 13.816V10.946C16.7616 10.8993 16.6356 10.8527 16.4956 10.806C16.365 10.7593 16.197 10.736 15.9916 10.736C15.5436 10.736 15.1796 10.876 14.8996 11.156C14.629 11.4267 14.4936 11.856 14.4936 12.444C14.4936 12.7613 14.5263 13.0273 14.5916 13.242C14.6663 13.4567 14.7643 13.6293 14.8856 13.76C15.007 13.8907 15.147 13.984 15.3056 14.04C15.4736 14.096 15.6556 14.124 15.8516 14.124Z" fill="#333333"/>
</svg>
