<svg width="24" height="24" viewBox="0 0 24 24" fill="none" xmlns="http://www.w3.org/2000/svg">
<path d="M9.23025 13.998H6.09425C5.99158 14.3433 5.87958 14.7027 5.75825 15.076C5.64625 15.4493 5.55292 15.7573 5.47825 16C5.38492 16.0373 5.28225 16.07 5.17025 16.098C5.06758 16.126 4.93692 16.14 4.77825 16.14C4.46092 16.14 4.21358 16.0793 4.03625 15.958C3.85892 15.8273 3.77025 15.6453 3.77025 15.412C3.77025 15.3 3.78425 15.1927 3.81225 15.09C3.84958 14.978 3.89158 14.852 3.93825 14.712C4.01292 14.4507 4.11092 14.138 4.23225 13.774C4.36292 13.4007 4.49825 12.9993 4.63825 12.57C4.78758 12.1313 4.94625 11.6833 5.11425 11.226C5.28225 10.7593 5.44092 10.3113 5.59025 9.882C5.74892 9.44333 5.89825 9.03733 6.03825 8.664C6.18758 8.28133 6.31358 7.95467 6.41625 7.684C6.53758 7.61867 6.71492 7.55333 6.94825 7.488C7.19092 7.42267 7.43358 7.39 7.67625 7.39C8.00292 7.39 8.30158 7.44133 8.57225 7.544C8.84292 7.63733 9.01558 7.79133 9.09025 8.006C9.27692 8.51933 9.48225 9.112 9.70625 9.784C9.93025 10.4467 10.1543 11.1327 10.3783 11.842C10.6116 12.5513 10.8356 13.2467 11.0503 13.928C11.2649 14.6093 11.4563 15.2207 11.6243 15.762C11.5309 15.8647 11.4003 15.9487 11.2323 16.014C11.0736 16.0887 10.8823 16.126 10.6583 16.126C10.3316 16.126 10.0983 16.07 9.95825 15.958C9.82758 15.8367 9.72492 15.65 9.65025 15.398L9.23025 13.998ZM7.66225 8.986C7.57825 9.21933 7.48492 9.48067 7.38225 9.77C7.28892 10.0593 7.18625 10.3627 7.07425 10.68C6.97158 10.988 6.86425 11.3053 6.75225 11.632C6.64025 11.9493 6.53292 12.262 6.43025 12.57H8.86625L7.73225 8.986H7.66225ZM17.0348 15.426C16.8481 15.5193 16.6288 15.5987 16.3768 15.664C16.1341 15.7293 15.8495 15.762 15.5228 15.762C15.1028 15.762 14.7061 15.706 14.3328 15.594C13.9595 15.4727 13.6328 15.2813 13.3528 15.02C13.0728 14.7587 12.8488 14.4227 12.6808 14.012C12.5221 13.592 12.4428 13.0833 12.4428 12.486C12.4428 11.9447 12.5221 11.4687 12.6808 11.058C12.8488 10.638 13.0821 10.288 13.3808 10.008C13.6888 9.728 14.0528 9.518 14.4728 9.378C14.8928 9.238 15.3595 9.168 15.8728 9.168C16.3581 9.168 16.8015 9.22867 17.2028 9.35C17.6135 9.47133 17.9401 9.61133 18.1828 9.77C18.3508 9.882 18.4815 10.008 18.5748 10.148C18.6775 10.288 18.7288 10.4653 18.7288 10.68V16.084C18.7288 16.56 18.6401 16.9707 18.4628 17.316C18.2948 17.6613 18.0615 17.9413 17.7628 18.156C17.4641 18.38 17.1141 18.5433 16.7128 18.646C16.3115 18.7487 15.8775 18.8 15.4108 18.8C14.9255 18.8 14.5008 18.7533 14.1368 18.66C13.7821 18.576 13.5161 18.478 13.3388 18.366C13.0308 18.17 12.8768 17.9087 12.8768 17.582C12.8768 17.4047 12.9141 17.2507 12.9888 17.12C13.0635 16.9893 13.1521 16.8913 13.2548 16.826C13.4975 16.9753 13.7915 17.106 14.1368 17.218C14.4821 17.33 14.8508 17.386 15.2428 17.386C15.8028 17.386 16.2415 17.2787 16.5588 17.064C16.8761 16.8493 17.0348 16.504 17.0348 16.028V15.426ZM15.8168 14.39C16.0875 14.39 16.3161 14.3527 16.5028 14.278C16.6988 14.2033 16.8668 14.1147 17.0068 14.012V10.848C16.8761 10.7733 16.7221 10.708 16.5448 10.652C16.3768 10.596 16.1715 10.568 15.9288 10.568C15.4155 10.568 15.0001 10.7267 14.6828 11.044C14.3748 11.352 14.2208 11.8327 14.2208 12.486C14.2208 12.8407 14.2581 13.1393 14.3328 13.382C14.4168 13.6247 14.5288 13.8207 14.6688 13.97C14.8181 14.1193 14.9908 14.2267 15.1868 14.292C15.3828 14.3573 15.5928 14.39 15.8168 14.39Z" fill="#333333"/>
</svg>
