<svg width="24" height="24" viewBox="0 0 24 24" fill="none" xmlns="http://www.w3.org/2000/svg">
<path d="M7.74592 9.944H7.67592C7.55459 10.28 7.41926 10.6627 7.26992 11.092C7.12992 11.5213 6.98059 11.9693 6.82192 12.436C6.66326 12.8933 6.51392 13.3367 6.37392 13.766L6.17792 14.634C6.12192 14.8113 6.06126 15.0073 5.99592 15.222C5.93992 15.4367 5.87459 15.656 5.79992 15.88C5.73459 16.0947 5.66926 16.3 5.60392 16.496C5.54792 16.692 5.49659 16.8647 5.44992 17.014C5.35659 17.042 5.25392 17.0653 5.14192 17.084C5.03926 17.112 4.91326 17.126 4.76392 17.126C4.46526 17.126 4.22726 17.07 4.04992 16.958C3.88192 16.8367 3.79792 16.6593 3.79792 16.426C3.79792 16.3233 3.81192 16.216 3.83992 16.104C3.87726 15.992 3.91459 15.866 3.95192 15.726C4.04526 15.418 4.17126 15.0353 4.32992 14.578C4.48859 14.1113 4.66126 13.6073 4.84792 13.066C5.03459 12.5247 5.22592 11.9787 5.42192 11.428C5.62726 10.8773 5.81859 10.364 5.99592 9.888C6.17326 9.40267 6.32726 8.99667 6.45792 8.67C6.56992 8.60467 6.74259 8.544 6.97592 8.488C7.20926 8.432 7.44726 8.404 7.68992 8.404C8.00726 8.404 8.29659 8.45067 8.55792 8.544C8.82859 8.63733 8.99659 8.78667 9.06192 8.992C9.25792 9.50533 9.46792 10.0933 9.69192 10.756C9.91592 11.4187 10.1446 12.1093 10.3779 12.828C10.6113 13.5467 10.8353 14.2467 11.0499 14.928C11.2646 15.6093 11.4559 16.2253 11.6239 16.776C11.5306 16.8787 11.3999 16.9627 11.2319 17.028C11.0733 17.0933 10.8866 17.126 10.6719 17.126C10.3639 17.126 10.1399 17.07 9.99992 16.958C9.86926 16.8367 9.76659 16.6547 9.69192 16.412L9.11792 14.578L8.93592 13.682C8.78659 13.206 8.63726 12.7393 8.48792 12.282C8.34792 11.8153 8.21259 11.3813 8.08192 10.98C7.95126 10.5787 7.83926 10.2333 7.74592 9.944ZM5.39392 14.97L6.05192 13.584H9.55192L9.81792 14.97H5.39392ZM15.5228 16.762C14.9721 16.762 14.4635 16.6593 13.9968 16.454C13.5301 16.2393 13.1568 15.8893 12.8768 15.404C12.5968 14.9187 12.4568 14.2793 12.4568 13.486C12.4568 12.758 12.5968 12.1513 12.8768 11.666C13.1661 11.1713 13.5675 10.8027 14.0808 10.56C14.6035 10.308 15.2008 10.182 15.8728 10.182C16.3488 10.182 16.7875 10.2427 17.1888 10.364C17.5995 10.4853 17.9261 10.6253 18.1688 10.784C18.3275 10.8867 18.4535 11.0127 18.5468 11.162C18.6495 11.302 18.7008 11.4747 18.7008 11.68V16.048H17.0208V11.834C16.8995 11.7593 16.7501 11.694 16.5728 11.638C16.3955 11.582 16.1761 11.554 15.9148 11.554C15.4015 11.554 14.9815 11.7127 14.6548 12.03C14.3375 12.3473 14.1788 12.8327 14.1788 13.486C14.1788 14.2047 14.3328 14.7087 14.6408 14.998C14.9581 15.2873 15.3455 15.432 15.8028 15.432C16.1575 15.432 16.4421 15.3713 16.6568 15.25C16.8808 15.1287 17.0675 14.998 17.2168 14.858L17.2728 16.258C17.1048 16.3887 16.8715 16.5053 16.5728 16.608C16.2835 16.7107 15.9335 16.762 15.5228 16.762ZM17.0488 17.042V15.67H18.7008V17.098C18.7008 17.7327 18.5561 18.246 18.2668 18.638C17.9775 19.0393 17.5808 19.3333 17.0768 19.52C16.5821 19.7067 16.0268 19.8 15.4108 19.8C14.9255 19.8 14.5008 19.7533 14.1368 19.66C13.7821 19.5667 13.5208 19.4687 13.3528 19.366C13.0448 19.1793 12.8908 18.9227 12.8908 18.596C12.8908 18.428 12.9281 18.2787 13.0028 18.148C13.0775 18.0173 13.1661 17.9193 13.2688 17.854C13.5021 18.0033 13.7915 18.134 14.1368 18.246C14.4915 18.358 14.8648 18.414 15.2568 18.414C15.8168 18.414 16.2555 18.302 16.5728 18.078C16.8901 17.8633 17.0488 17.518 17.0488 17.042Z" fill="#888888"/>
</svg>
