<svg width="24" height="24" viewBox="0 0 24 24" fill="none" xmlns="http://www.w3.org/2000/svg">
<path d="M9.90279 14.872H6.48679L5.80079 17.014C5.71679 17.0513 5.62812 17.0793 5.53479 17.098C5.44146 17.1167 5.32946 17.126 5.19879 17.126C4.96546 17.126 4.77412 17.0747 4.62479 16.972C4.47546 16.8693 4.40079 16.7153 4.40079 16.51C4.40079 16.4073 4.41479 16.3093 4.44279 16.216C4.47079 16.1133 4.50812 16.0013 4.55479 15.88C4.67612 15.488 4.84412 14.984 5.05879 14.368C5.28279 13.7427 5.51612 13.0847 5.75879 12.394C6.01079 11.7033 6.26279 11.0267 6.51479 10.364C6.76679 9.692 6.98612 9.118 7.17279 8.642C7.26612 8.586 7.41079 8.53467 7.60679 8.488C7.80279 8.432 8.00346 8.404 8.20879 8.404C8.47946 8.404 8.72212 8.44133 8.93679 8.516C9.15146 8.59067 9.29612 8.72133 9.37079 8.908C9.57612 9.44 9.80012 10.0467 10.0428 10.728C10.2855 11.4 10.5281 12.0953 10.7708 12.814C11.0135 13.5327 11.2468 14.2373 11.4708 14.928C11.6948 15.6187 11.8955 16.244 12.0728 16.804C11.9888 16.8973 11.8768 16.972 11.7368 17.028C11.6061 17.0933 11.4475 17.126 11.2608 17.126C11.0088 17.126 10.8268 17.0793 10.7148 16.986C10.6028 16.8833 10.5095 16.7153 10.4348 16.482L9.90279 14.872ZM8.19479 9.706C8.10146 9.958 7.99879 10.2427 7.88679 10.56C7.77479 10.8773 7.65812 11.2133 7.53679 11.568C7.41546 11.9133 7.29412 12.268 7.17279 12.632C7.05146 12.9867 6.93479 13.332 6.82279 13.668H9.58079C9.45946 13.2947 9.33346 12.9213 9.20279 12.548C9.08146 12.1653 8.96012 11.8013 8.83879 11.456C8.72679 11.1107 8.61946 10.7887 8.51679 10.49C8.41412 10.182 8.33012 9.92067 8.26479 9.706H8.19479ZM17.6123 16.384C17.435 16.496 17.2156 16.5893 16.9543 16.664C16.7023 16.7387 16.399 16.776 16.0443 16.776C15.6336 16.776 15.2416 16.72 14.8683 16.608C14.5043 16.4867 14.1823 16.3 13.9023 16.048C13.6223 15.7867 13.3983 15.4507 13.2303 15.04C13.0716 14.6293 12.9923 14.1253 12.9923 13.528C12.9923 12.9867 13.0716 12.5153 13.2303 12.114C13.3983 11.7033 13.627 11.3627 13.9163 11.092C14.215 10.812 14.565 10.602 14.9663 10.462C15.377 10.322 15.8296 10.252 16.3243 10.252C16.7816 10.252 17.2016 10.3127 17.5843 10.434C17.9763 10.546 18.2936 10.6813 18.5363 10.84C18.695 10.9427 18.8163 11.0593 18.9003 11.19C18.9936 11.3207 19.0403 11.4793 19.0403 11.666V17.182C19.0403 17.6487 18.9563 18.05 18.7883 18.386C18.6296 18.722 18.4056 18.9927 18.1163 19.198C17.8363 19.4127 17.5003 19.5667 17.1083 19.66C16.7163 19.7627 16.2963 19.814 15.8483 19.814C15.3723 19.814 14.9616 19.7673 14.6163 19.674C14.271 19.5807 14.019 19.4873 13.8603 19.394C13.571 19.2167 13.4263 18.9833 13.4263 18.694C13.4263 18.5353 13.459 18.4 13.5243 18.288C13.5896 18.1853 13.6736 18.1013 13.7763 18.036C13.991 18.1853 14.2756 18.3207 14.6303 18.442C14.985 18.5633 15.363 18.624 15.7643 18.624C16.3523 18.624 16.805 18.5027 17.1223 18.26C17.449 18.0267 17.6123 17.644 17.6123 17.112V16.384ZM16.2543 15.628C16.5716 15.628 16.8376 15.5813 17.0523 15.488C17.267 15.3947 17.449 15.2827 17.5983 15.152V11.764C17.4583 11.68 17.2856 11.6053 17.0803 11.54C16.875 11.4653 16.6323 11.428 16.3523 11.428C15.783 11.428 15.3256 11.6007 14.9803 11.946C14.635 12.2913 14.4623 12.814 14.4623 13.514C14.4623 13.8967 14.509 14.2233 14.6023 14.494C14.6956 14.7647 14.8216 14.984 14.9803 15.152C15.139 15.32 15.3256 15.4413 15.5403 15.516C15.7643 15.5907 16.0023 15.628 16.2543 15.628Z" fill="#333333"/>
</svg>
