<svg width="24" height="24" viewBox="0 0 24 24" fill="none" xmlns="http://www.w3.org/2000/svg">
<path d="M9.27097 8.608H9.21497C9.0843 8.972 8.9303 9.40133 8.75297 9.896C8.58497 10.3907 8.40764 10.904 8.22097 11.436C8.04364 11.9587 7.87097 12.458 7.70297 12.934L7.59097 13.41C7.53497 13.5873 7.46964 13.7927 7.39497 14.026C7.3203 14.2593 7.24097 14.502 7.15697 14.754C7.07297 15.006 6.99364 15.244 6.91897 15.468C6.8443 15.692 6.78364 15.874 6.73697 16.014C6.6623 16.0513 6.58297 16.0793 6.49897 16.098C6.41497 16.1167 6.30764 16.126 6.17697 16.126C5.97164 16.126 5.79897 16.0793 5.65897 15.986C5.51897 15.8833 5.44897 15.734 5.44897 15.538C5.44897 15.4447 5.46297 15.3513 5.49097 15.258C5.51897 15.1553 5.55164 15.0433 5.58897 14.922C5.69164 14.614 5.8223 14.2313 5.98097 13.774C6.14897 13.3073 6.3263 12.8033 6.51297 12.262C6.70897 11.7207 6.90964 11.17 7.11497 10.61C7.32964 10.05 7.5303 9.51333 7.71697 9C7.91297 8.47733 8.0903 8.02 8.24897 7.628C8.3423 7.572 8.4823 7.52067 8.66897 7.474C8.85564 7.42733 9.0423 7.404 9.22897 7.404C9.47164 7.404 9.69564 7.44133 9.90097 7.516C10.1156 7.59067 10.251 7.70733 10.307 7.866C10.5216 8.398 10.7503 9.00467 10.993 9.686C11.2356 10.358 11.483 11.0627 11.735 11.8C11.987 12.528 12.225 13.2373 12.449 13.928C12.673 14.6187 12.8736 15.244 13.051 15.804C12.9763 15.8973 12.8736 15.972 12.743 16.028C12.6123 16.084 12.4676 16.112 12.309 16.112C12.0756 16.112 11.903 16.0653 11.791 15.972C11.679 15.8787 11.5903 15.7247 11.525 15.51L10.839 13.424L10.685 12.822C10.517 12.29 10.3443 11.7627 10.167 11.24C9.98964 10.708 9.82164 10.2133 9.66297 9.756C9.51364 9.29867 9.38297 8.916 9.27097 8.608ZM6.94697 13.83L7.42297 12.71H11.175L11.413 13.83H6.94697ZM17.0515 15.79C16.5101 15.79 16.0061 15.6873 15.5395 15.482C15.0821 15.2673 14.7135 14.922 14.4335 14.446C14.1535 13.9607 14.0135 13.326 14.0135 12.542C14.0135 11.8233 14.1535 11.2213 14.4335 10.736C14.7135 10.2507 15.1008 9.88667 15.5955 9.644C16.0901 9.40133 16.6641 9.28 17.3175 9.28C17.7655 9.28 18.1761 9.336 18.5495 9.448C18.9321 9.56 19.2448 9.69533 19.4875 9.854C19.6368 9.95667 19.7581 10.0733 19.8515 10.204C19.9448 10.3253 19.9915 10.4793 19.9915 10.666V15.006H18.6335V10.736C18.4841 10.6427 18.3021 10.5633 18.0875 10.498C17.8821 10.4233 17.6301 10.386 17.3315 10.386C16.7528 10.386 16.2815 10.5633 15.9175 10.918C15.5628 11.2727 15.3855 11.8093 15.3855 12.528C15.3855 13.3213 15.5628 13.8813 15.9175 14.208C16.2815 14.5347 16.7248 14.698 17.2475 14.698C17.6301 14.698 17.9381 14.6327 18.1715 14.502C18.4141 14.362 18.6101 14.2127 18.7595 14.054L18.8155 15.23C18.6661 15.37 18.4421 15.5007 18.1435 15.622C17.8448 15.734 17.4808 15.79 17.0515 15.79ZM18.6475 16.14V14.712H19.9915V16.21C19.9915 16.826 19.8515 17.3253 19.5715 17.708C19.2915 18.1 18.9135 18.38 18.4375 18.548C17.9615 18.7253 17.4248 18.814 16.8275 18.814C16.3608 18.814 15.9548 18.7627 15.6095 18.66C15.2641 18.5667 15.0168 18.478 14.8675 18.394C14.5781 18.226 14.4335 18.002 14.4335 17.722C14.4335 17.582 14.4661 17.456 14.5315 17.344C14.5968 17.2413 14.6808 17.162 14.7835 17.106C14.9888 17.2553 15.2688 17.3907 15.6235 17.512C15.9875 17.6333 16.3701 17.694 16.7715 17.694C17.3688 17.694 17.8308 17.568 18.1575 17.316C18.4841 17.064 18.6475 16.672 18.6475 16.14Z" fill="#888888"/>
</svg>
