<svg width="24" height="24" viewBox="0 0 24 24" fill="none" xmlns="http://www.w3.org/2000/svg">
<path d="M7.71371 9.266H7.62971C7.53638 9.56467 7.42438 9.896 7.29371 10.26C7.17238 10.624 7.04171 11.0067 6.90171 11.408C6.77104 11.8093 6.64504 12.206 6.52371 12.598L6.27171 13.844C6.21571 14.0213 6.15971 14.208 6.10371 14.404C6.05704 14.6 6.00571 14.796 5.94971 14.992C5.89371 15.1787 5.84238 15.356 5.79571 15.524C5.74904 15.692 5.70704 15.8507 5.66971 16C5.55771 16.028 5.43638 16.056 5.30571 16.084C5.17504 16.1213 5.02104 16.14 4.84371 16.14C4.46104 16.14 4.16704 16.07 3.96171 15.93C3.75638 15.79 3.65371 15.5893 3.65371 15.328C3.65371 15.2067 3.66771 15.0853 3.69571 14.964C3.73304 14.8427 3.77504 14.7027 3.82171 14.544C3.90571 14.2453 4.02238 13.8627 4.17171 13.396C4.33038 12.92 4.50304 12.4113 4.68971 11.87C4.87638 11.3287 5.06304 10.792 5.24971 10.26C5.43638 9.71867 5.60904 9.224 5.76771 8.776C5.93571 8.328 6.07104 7.978 6.17371 7.726C6.31371 7.642 6.52371 7.56733 6.80371 7.502C7.08371 7.42733 7.36371 7.39 7.64371 7.39C8.04504 7.39 8.39971 7.446 8.70771 7.558C9.02504 7.67 9.22571 7.85667 9.30971 8.118C9.49638 8.61267 9.69238 9.18667 9.89771 9.84C10.103 10.484 10.313 11.1607 10.5277 11.87C10.7424 12.5793 10.9477 13.27 11.1437 13.942C11.349 14.6047 11.5264 15.202 11.6757 15.734C11.5824 15.846 11.4377 15.9393 11.2417 16.014C11.0457 16.0887 10.817 16.126 10.5557 16.126C10.1637 16.126 9.88838 16.0607 9.72971 15.93C9.58038 15.79 9.46371 15.58 9.37971 15.3L8.93171 13.718L8.69371 12.542C8.57238 12.122 8.45104 11.716 8.32971 11.324C8.20838 10.9227 8.09638 10.5493 7.99371 10.204C7.89104 9.84933 7.79771 9.53667 7.71371 9.266ZM5.34771 14.11L6.17371 12.458H9.44971L9.72971 14.11H5.34771ZM15.4876 15.734C14.9276 15.734 14.4096 15.6313 13.9336 15.426C13.467 15.2113 13.089 14.8613 12.7996 14.376C12.5196 13.8813 12.3796 13.2373 12.3796 12.444C12.3796 11.7067 12.5243 11.0907 12.8136 10.596C13.1123 10.092 13.5276 9.714 14.0596 9.462C14.5916 9.20067 15.2076 9.07 15.9076 9.07C16.4116 9.07 16.8783 9.14 17.3076 9.28C17.737 9.41067 18.073 9.55533 18.3156 9.714C18.493 9.826 18.633 9.96133 18.7356 10.12C18.8383 10.2693 18.8896 10.4607 18.8896 10.694V15.076H16.9016V10.932C16.7896 10.8667 16.659 10.8153 16.5096 10.778C16.3696 10.7313 16.1923 10.708 15.9776 10.708C15.5203 10.708 15.147 10.848 14.8576 11.128C14.5776 11.408 14.4376 11.8467 14.4376 12.444C14.4376 13.0973 14.573 13.55 14.8436 13.802C15.1143 14.054 15.4503 14.18 15.8516 14.18C16.1596 14.18 16.4163 14.124 16.6216 14.012C16.827 13.9 17.0043 13.7787 17.1536 13.648L17.2236 15.3C17.0276 15.4213 16.785 15.524 16.4956 15.608C16.2156 15.692 15.8796 15.734 15.4876 15.734ZM16.9296 15.93V14.628H18.8896V16C18.8896 16.644 18.7356 17.1713 18.4276 17.582C18.129 17.9927 17.7183 18.296 17.1956 18.492C16.6823 18.688 16.1036 18.786 15.4596 18.786C14.9743 18.786 14.545 18.744 14.1716 18.66C13.7983 18.576 13.509 18.4687 13.3036 18.338C12.9863 18.1327 12.8276 17.8433 12.8276 17.47C12.8276 17.274 12.865 17.0967 12.9396 16.938C13.0236 16.7887 13.1216 16.6767 13.2336 16.602C13.4856 16.7513 13.7843 16.8773 14.1296 16.98C14.475 17.092 14.839 17.148 15.2216 17.148C15.7443 17.148 16.1596 17.05 16.4676 16.854C16.7756 16.6673 16.9296 16.3593 16.9296 15.93Z" fill="#888888"/>
</svg>
