<svg width="24" height="24" viewBox="0 0 24 24" fill="none" xmlns="http://www.w3.org/2000/svg">
<path d="M8.27846 9.664H8.20846C8.08713 10.028 7.93779 10.4527 7.76046 10.938C7.59246 11.414 7.41979 11.9133 7.24246 12.436C7.06513 12.9493 6.89713 13.4347 6.73846 13.892L6.61246 14.452C6.55646 14.62 6.49113 14.8207 6.41646 15.054C6.34179 15.2873 6.26246 15.53 6.17846 15.782C6.10379 16.0247 6.02913 16.2533 5.95446 16.468C5.87979 16.6827 5.82379 16.8647 5.78646 17.014C5.70246 17.042 5.61379 17.0653 5.52046 17.084C5.43646 17.112 5.32913 17.126 5.19846 17.126C4.97446 17.126 4.78779 17.0747 4.63846 16.972C4.48913 16.8693 4.41446 16.7153 4.41446 16.51C4.41446 16.4167 4.42846 16.3233 4.45646 16.23C4.49379 16.1273 4.53113 16.0153 4.56846 15.894C4.67113 15.5767 4.80179 15.1893 4.96046 14.732C5.11913 14.2653 5.29646 13.7613 5.49246 13.22C5.68846 12.6787 5.88913 12.1327 6.09446 11.582C6.29979 11.022 6.49579 10.4853 6.68246 9.972C6.87846 9.45867 7.05113 9.01067 7.20046 8.628C7.29379 8.58133 7.43846 8.53467 7.63446 8.488C7.83046 8.432 8.02646 8.404 8.22246 8.404C8.48379 8.404 8.72179 8.44133 8.93646 8.516C9.16046 8.59067 9.30046 8.71667 9.35646 8.894C9.57113 9.41667 9.79513 10.0187 10.0285 10.7C10.2711 11.372 10.5138 12.072 10.7565 12.8C11.0085 13.528 11.2465 14.2373 11.4705 14.928C11.6945 15.6187 11.8951 16.244 12.0725 16.804C11.9978 16.8973 11.8905 16.972 11.7505 17.028C11.6105 17.084 11.4565 17.112 11.2885 17.112C11.0365 17.112 10.8545 17.0653 10.7425 16.972C10.6305 16.8693 10.5371 16.7107 10.4625 16.496L9.80446 14.452L9.65046 13.794C9.48246 13.2713 9.30979 12.7533 9.13246 12.24C8.96446 11.7173 8.80579 11.2367 8.65646 10.798C8.50713 10.35 8.38113 9.972 8.27846 9.664ZM5.94046 14.858L6.45846 13.682H10.1545L10.3925 14.858H5.94046ZM16.0583 16.776C15.5076 16.776 14.999 16.6733 14.5323 16.468C14.075 16.2533 13.7063 15.908 13.4263 15.432C13.1463 14.9467 13.0063 14.312 13.0063 13.528C13.0063 12.8093 13.1463 12.2073 13.4263 11.722C13.7063 11.2367 14.0936 10.8727 14.5883 10.63C15.0923 10.378 15.671 10.252 16.3243 10.252C16.7816 10.252 17.2016 10.3127 17.5843 10.434C17.967 10.546 18.2796 10.6813 18.5223 10.84C18.6716 10.9427 18.793 11.0593 18.8863 11.19C18.9796 11.3207 19.0263 11.4793 19.0263 11.666V16.006H17.6123V11.75C17.4723 11.666 17.2996 11.5913 17.0943 11.526C16.889 11.4513 16.6416 11.414 16.3523 11.414C15.783 11.414 15.321 11.5913 14.9663 11.946C14.621 12.2913 14.4483 12.814 14.4483 13.514C14.4483 14.298 14.621 14.8487 14.9663 15.166C15.3116 15.4833 15.741 15.642 16.2543 15.642C16.637 15.642 16.945 15.5767 17.1783 15.446C17.4116 15.3153 17.603 15.1753 17.7523 15.026L17.8223 16.23C17.6636 16.37 17.435 16.496 17.1363 16.608C16.8376 16.72 16.4783 16.776 16.0583 16.776ZM17.6263 17.112V15.698H19.0263V17.182C19.0263 17.8073 18.8863 18.3113 18.6063 18.694C18.3263 19.086 17.9436 19.3707 17.4583 19.548C16.9823 19.7253 16.4456 19.814 15.8483 19.814C15.3723 19.814 14.9616 19.7627 14.6163 19.66C14.271 19.5667 14.0236 19.478 13.8743 19.394C13.5756 19.2167 13.4263 18.988 13.4263 18.708C13.4263 18.5493 13.459 18.414 13.5243 18.302C13.599 18.1993 13.683 18.12 13.7763 18.064C13.991 18.2133 14.2756 18.344 14.6303 18.456C14.985 18.5773 15.363 18.638 15.7643 18.638C16.3616 18.638 16.819 18.5167 17.1363 18.274C17.463 18.0313 17.6263 17.644 17.6263 17.112Z" fill="#888888"/>
</svg>
