<svg width="24" height="24" viewBox="0 0 24 24" fill="none" xmlns="http://www.w3.org/2000/svg">
<path d="M11.4359 18C11.3519 18 11.2959 17.9627 11.2679 17.888L10.6659 16.026C10.6566 15.998 10.6379 15.984 10.6099 15.984H6.2419C6.2139 15.984 6.19523 15.998 6.1859 16.026L5.5979 17.888C5.5699 17.9627 5.5139 18 5.4299 18H4.9399C4.83723 18 4.7999 17.9487 4.8279 17.846L7.9359 8.312C7.9639 8.23733 8.0199 8.2 8.1039 8.2H8.7339C8.8179 8.2 8.8739 8.23733 8.9019 8.312L12.0239 17.846L12.0379 17.902C12.0379 17.9673 11.9959 18 11.9119 18H11.4359ZM6.4099 15.298C6.40057 15.3167 6.40057 15.3353 6.4099 15.354C6.42857 15.3633 6.44723 15.368 6.4659 15.368H10.3859C10.4046 15.368 10.4186 15.3633 10.4279 15.354C10.4466 15.3353 10.4512 15.3167 10.4419 15.298L8.4679 9.208C8.45857 9.18933 8.44457 9.18 8.4259 9.18C8.40723 9.18 8.39323 9.18933 8.3839 9.208L6.4099 15.298ZM17.8663 11.084C17.8663 10.9907 17.9129 10.944 18.0063 10.944H18.4683C18.5616 10.944 18.6083 10.9907 18.6083 11.084V17.846C18.6083 18.9007 18.2909 19.666 17.6563 20.142C17.0216 20.618 16.1256 20.8327 14.9683 20.786C14.8749 20.7767 14.8283 20.7253 14.8283 20.632L14.8423 20.226C14.8423 20.1327 14.8889 20.086 14.9823 20.086C15.9809 20.1233 16.7089 19.9553 17.1663 19.582C17.6329 19.218 17.8663 18.6347 17.8663 17.832V17.132C17.8663 17.104 17.8569 17.09 17.8383 17.09C17.8289 17.0807 17.8149 17.0853 17.7963 17.104C17.3763 17.748 16.7369 18.07 15.8783 18.07C15.2716 18.07 14.7396 17.9067 14.2823 17.58C13.8249 17.244 13.5216 16.7867 13.3723 16.208C13.2696 15.8253 13.2183 15.2513 13.2183 14.486C13.2183 13.6647 13.2743 13.0627 13.3863 12.68C13.5356 12.1293 13.8296 11.686 14.2683 11.35C14.7069 11.0047 15.2343 10.832 15.8503 10.832C16.7089 10.832 17.3576 11.1493 17.7963 11.784C17.8056 11.8027 17.8196 11.8073 17.8383 11.798C17.8569 11.7887 17.8663 11.7747 17.8663 11.756V11.084ZM17.7963 15.942C17.8243 15.802 17.8429 15.6293 17.8523 15.424C17.8616 15.2187 17.8663 14.9013 17.8663 14.472C17.8663 14.0427 17.8616 13.7253 17.8523 13.52C17.8429 13.3147 17.8243 13.1327 17.7963 12.974C17.7216 12.5447 17.5209 12.19 17.1943 11.91C16.8769 11.63 16.4756 11.49 15.9903 11.49C15.5049 11.49 15.0943 11.63 14.7583 11.91C14.4316 12.19 14.2076 12.5447 14.0863 12.974C14.0023 13.254 13.9603 13.7487 13.9603 14.458C13.9603 15.1487 14.0023 15.6433 14.0863 15.942C14.1889 16.3713 14.4083 16.726 14.7443 17.006C15.0896 17.286 15.5049 17.426 15.9903 17.426C16.4943 17.426 16.9003 17.286 17.2083 17.006C17.5256 16.726 17.7216 16.3713 17.7963 15.942Z" fill="#333333"/>
</svg>
