<svg width="24" height="24" viewBox="0 0 24 24" fill="none" xmlns="http://www.w3.org/2000/svg">
<path d="M10.0328 18C9.92078 18 9.86011 17.9487 9.85078 17.846L9.66878 16.628C9.66878 16.5813 9.64078 16.558 9.58478 16.558H8.07278C8.01678 16.558 7.98878 16.5813 7.98878 16.628L7.82078 17.846C7.81145 17.9487 7.75078 18 7.63878 18H5.65078C5.52945 18 5.48278 17.9393 5.51078 17.818L7.54078 8.354C7.55945 8.25133 7.62011 8.2 7.72278 8.2H10.0048C10.1074 8.2 10.1681 8.25133 10.1868 8.354L12.2028 17.818L12.2168 17.874C12.2168 17.958 12.1654 18 12.0628 18H10.0328ZM8.29678 14.696C8.29678 14.7427 8.31545 14.766 8.35278 14.766H9.29078C9.32811 14.766 9.34678 14.7427 9.34678 14.696L8.84278 11.504C8.83345 11.4667 8.81945 11.448 8.80078 11.448C8.78211 11.448 8.76811 11.4667 8.75878 11.504L8.29678 14.696ZM15.9948 10.93C15.9948 10.8833 16.0088 10.846 16.0368 10.818C16.0741 10.7807 16.1161 10.762 16.1628 10.762H18.1508C18.1975 10.762 18.2348 10.7807 18.2628 10.818C18.3001 10.846 18.3188 10.8833 18.3188 10.93V17.58C18.3188 18.2707 18.2208 18.8587 18.0248 19.344C17.8288 19.8293 17.4695 20.212 16.9468 20.492C16.4335 20.7813 15.7101 20.926 14.7768 20.926C14.6275 20.926 14.3755 20.9167 14.0208 20.898C13.9088 20.8887 13.8528 20.828 13.8528 20.716V19.05C13.8528 18.9287 13.9135 18.8773 14.0348 18.896L14.3568 18.91C14.8048 18.91 15.1455 18.854 15.3788 18.742C15.6121 18.6393 15.7708 18.49 15.8548 18.294C15.9388 18.1073 15.9855 17.86 15.9948 17.552C15.9948 17.5147 15.9808 17.496 15.9528 17.496C15.9341 17.4867 15.9155 17.496 15.8968 17.524C15.6075 17.8973 15.1875 18.084 14.6368 18.084C13.9835 18.084 13.4981 17.874 13.1808 17.454C12.8728 17.034 12.7188 16.4367 12.7188 15.662V13.072C12.7188 11.4573 13.3581 10.65 14.6368 10.65C15.2061 10.65 15.6308 10.86 15.9108 11.28C15.9295 11.308 15.9481 11.322 15.9668 11.322C15.9855 11.3127 15.9948 11.294 15.9948 11.266V10.93ZM15.5048 16.082C15.6541 16.082 15.7708 16.026 15.8548 15.914C15.9481 15.802 15.9948 15.6573 15.9948 15.48V13.254C15.9948 13.0673 15.9481 12.918 15.8548 12.806C15.7708 12.694 15.6541 12.638 15.5048 12.638C15.3648 12.638 15.2528 12.694 15.1688 12.806C15.0848 12.918 15.0428 13.0673 15.0428 13.254V15.48C15.0428 15.6667 15.0848 15.816 15.1688 15.928C15.2528 16.0307 15.3648 16.082 15.5048 16.082Z" fill="#333333"/>
</svg>
