<svg width="24" height="24" viewBox="0 0 24 24" fill="none" xmlns="http://www.w3.org/2000/svg">
<path d="M9.8492 18C9.7092 18 9.63453 17.9347 9.6252 17.804L9.4712 16.754C9.4712 16.7353 9.46186 16.7167 9.4432 16.698C9.42453 16.6793 9.4012 16.67 9.3732 16.67H8.1412C8.1132 16.67 8.08986 16.6793 8.0712 16.698C8.05253 16.7167 8.0432 16.7353 8.0432 16.754L7.9032 17.804C7.89386 17.9347 7.8192 18 7.6792 18H5.4812C5.33186 18 5.2712 17.9253 5.2992 17.776L7.2872 8.382C7.3152 8.26067 7.39453 8.2 7.5252 8.2H10.0732C10.2039 8.2 10.2832 8.26067 10.3112 8.382L12.2992 17.776V17.832C12.2992 17.944 12.2339 18 12.1032 18H9.8492ZM8.3512 14.57C8.3512 14.626 8.37453 14.654 8.4212 14.654H9.0792C9.14453 14.654 9.16786 14.626 9.1492 14.57L8.7712 12.05C8.76186 12.0127 8.74786 11.994 8.7292 11.994C8.71053 11.994 8.69653 12.0127 8.6872 12.05L8.3512 14.57ZM15.9854 10.93C15.9854 10.8647 16.004 10.8133 16.0414 10.776C16.0787 10.7387 16.13 10.72 16.1954 10.72H18.4074C18.4727 10.72 18.524 10.7387 18.5614 10.776C18.5987 10.8133 18.6174 10.8647 18.6174 10.93V17.524C18.6174 18.224 18.5147 18.8213 18.3094 19.316C18.1134 19.8107 17.7447 20.2027 17.2034 20.492C16.662 20.7907 15.9014 20.94 14.9214 20.94C14.5574 20.94 14.2727 20.9307 14.0674 20.912C13.9274 20.912 13.8574 20.842 13.8574 20.702V18.84C13.8574 18.6907 13.932 18.6253 14.0814 18.644L14.4314 18.658C14.954 18.658 15.3227 18.5833 15.5374 18.434C15.7614 18.294 15.9014 18.084 15.9574 17.804C15.9574 17.776 15.9247 17.7527 15.8594 17.734C15.8034 17.7153 15.7614 17.7153 15.7334 17.734C15.472 17.986 15.1127 18.112 14.6554 18.112C13.9834 18.112 13.4934 17.8973 13.1854 17.468C12.8867 17.0387 12.7374 16.4227 12.7374 15.62V13.1C12.7374 12.2693 12.8914 11.6487 13.1994 11.238C13.5074 10.818 13.9927 10.608 14.6554 10.608C15.1967 10.608 15.6074 10.8133 15.8874 11.224C15.906 11.2613 15.9247 11.28 15.9434 11.28C15.9714 11.2707 15.9854 11.2473 15.9854 11.21V10.93ZM15.6634 15.858C15.7567 15.858 15.8314 15.816 15.8874 15.732C15.9527 15.648 15.9854 15.5407 15.9854 15.41V13.31C15.9854 13.1793 15.9527 13.072 15.8874 12.988C15.8314 12.904 15.7567 12.862 15.6634 12.862C15.57 12.862 15.4954 12.904 15.4394 12.988C15.3927 13.072 15.3694 13.1793 15.3694 13.31V15.41C15.3694 15.5407 15.3927 15.648 15.4394 15.732C15.4954 15.816 15.57 15.858 15.6634 15.858Z" fill="#333333"/>
</svg>
