<svg width="24" height="24" viewBox="0 0 24 24" fill="none" xmlns="http://www.w3.org/2000/svg">
<path d="M11.2033 17C11.1006 17 11.0353 16.9533 11.0073 16.86L10.6433 15.362C10.6339 15.3247 10.6106 15.306 10.5733 15.306H7.68925C7.65192 15.306 7.62858 15.3247 7.61925 15.362L7.26925 16.86C7.24125 16.9533 7.17592 17 7.07325 17H5.74325C5.62192 17 5.57525 16.9393 5.60325 16.818L8.15125 7.34C8.17925 7.24667 8.24458 7.2 8.34725 7.2H9.94325C10.0459 7.2 10.1113 7.24667 10.1393 7.34L12.6873 16.818L12.7013 16.874C12.7013 16.958 12.6499 17 12.5473 17H11.2033ZM7.95525 13.948C7.94592 13.976 7.95058 13.9993 7.96925 14.018C7.98792 14.0273 8.00658 14.032 8.02525 14.032H10.2373C10.2559 14.032 10.2746 14.0273 10.2933 14.018C10.3119 13.9993 10.3166 13.976 10.3073 13.948L9.15925 9.356C9.14992 9.328 9.13592 9.314 9.11725 9.314C9.09858 9.314 9.08458 9.328 9.07525 9.356L7.95525 13.948ZM17.4055 10.014C17.4055 9.96733 17.4195 9.93 17.4475 9.902C17.4848 9.86467 17.5268 9.846 17.5735 9.846H18.8615C18.9081 9.846 18.9455 9.86467 18.9735 9.902C19.0108 9.93 19.0295 9.96733 19.0295 10.014V16.622C19.0295 17.7047 18.7355 18.5073 18.1475 19.03C17.5595 19.562 16.7101 19.828 15.5995 19.828C15.4688 19.828 15.2635 19.8187 14.9835 19.8C14.8715 19.7907 14.8155 19.73 14.8155 19.618L14.8575 18.498C14.8575 18.386 14.9181 18.3347 15.0395 18.344C15.1328 18.3533 15.2728 18.358 15.4595 18.358C16.1595 18.358 16.6588 18.2133 16.9575 17.924C17.2561 17.6347 17.4055 17.168 17.4055 16.524V16.398C17.4055 16.37 17.3961 16.3513 17.3775 16.342C17.3588 16.3327 17.3401 16.342 17.3215 16.37C16.9668 16.7807 16.4768 16.986 15.8515 16.986C15.2448 16.986 14.7315 16.8087 14.3115 16.454C13.8915 16.09 13.6301 15.5767 13.5275 14.914C13.4715 14.634 13.4435 14.13 13.4435 13.402C13.4435 12.6273 13.4808 12.0953 13.5555 11.806C13.6488 11.1713 13.8915 10.6673 14.2835 10.294C14.6755 9.92067 15.1795 9.734 15.7955 9.734C16.4395 9.734 16.9481 9.944 17.3215 10.364C17.3401 10.3827 17.3588 10.392 17.3775 10.392C17.3961 10.3827 17.4055 10.364 17.4055 10.336V10.014ZM17.3635 14.62C17.3915 14.2653 17.4055 13.8593 17.4055 13.402C17.4055 12.87 17.3868 12.45 17.3495 12.142C17.3121 11.8433 17.1955 11.6007 16.9995 11.414C16.8035 11.2273 16.5561 11.134 16.2575 11.134C15.9588 11.134 15.7115 11.2273 15.5155 11.414C15.3195 11.6007 15.1981 11.8433 15.1515 12.142C15.0955 12.4873 15.0675 12.9073 15.0675 13.402C15.0675 13.8593 15.0908 14.2653 15.1375 14.62C15.1841 14.9187 15.3101 15.1613 15.5155 15.348C15.7208 15.5347 15.9728 15.628 16.2715 15.628C16.5795 15.628 16.8268 15.5347 17.0135 15.348C17.2095 15.1613 17.3261 14.9187 17.3635 14.62Z" fill="#888888"/>
</svg>
