<svg width="24" height="24" viewBox="0 0 24 24" fill="none" xmlns="http://www.w3.org/2000/svg">
<path d="M10.0682 18C9.9375 18 9.85816 17.9393 9.83016 17.818L9.59216 16.74C9.5735 16.6933 9.5455 16.67 9.50816 16.67H7.40816C7.37083 16.67 7.34283 16.6933 7.32416 16.74L7.10016 17.818C7.07216 17.9393 6.99283 18 6.86216 18H4.56616C4.4915 18 4.4355 17.9813 4.39816 17.944C4.37016 17.8973 4.3655 17.8367 4.38416 17.762L6.87616 8.382C6.90416 8.26067 6.97883 8.2 7.10016 8.2H9.87216C9.9935 8.2 10.0682 8.26067 10.0962 8.382L12.5742 17.762C12.5835 17.7807 12.5882 17.804 12.5882 17.832C12.5882 17.944 12.5228 18 12.3922 18H10.0682ZM7.77216 14.584C7.77216 14.6307 7.80016 14.654 7.85616 14.654H9.04616C9.1115 14.654 9.1395 14.6213 9.13016 14.556L8.50016 11.644C8.49083 11.6067 8.47216 11.588 8.44416 11.588C8.41616 11.588 8.3975 11.6067 8.38816 11.644L7.77216 14.556V14.584ZM16.8628 10.93C16.8628 10.8647 16.8814 10.8133 16.9188 10.776C16.9561 10.7387 17.0074 10.72 17.0728 10.72H19.2848C19.3501 10.72 19.4014 10.7387 19.4388 10.776C19.4761 10.8133 19.4948 10.8647 19.4948 10.93V17.286C19.4948 18.4993 19.1494 19.3953 18.4588 19.974C17.7681 20.5527 16.7974 20.842 15.5468 20.842C15.2388 20.842 14.8748 20.8187 14.4548 20.772C14.3241 20.7533 14.2588 20.6787 14.2588 20.548L14.3148 18.672C14.3148 18.5227 14.3894 18.462 14.5388 18.49C14.7908 18.5273 15.0428 18.546 15.2948 18.546C15.7521 18.546 16.1068 18.462 16.3588 18.294C16.6108 18.1353 16.7694 17.8833 16.8348 17.538V17.524C16.8348 17.4867 16.8161 17.4633 16.7788 17.454C16.7508 17.4353 16.7228 17.4447 16.6948 17.482C16.3868 17.7807 15.9761 17.93 15.4628 17.93C14.8374 17.93 14.3148 17.762 13.8948 17.426C13.4841 17.0807 13.2134 16.5487 13.0828 15.83L13.0548 15.732C12.9894 15.4893 12.9568 15.018 12.9568 14.318C12.9568 13.618 12.9988 13.128 13.0828 12.848L13.1108 12.75C13.2228 12.0687 13.4748 11.5413 13.8668 11.168C14.2588 10.7947 14.7768 10.608 15.4208 10.608C15.9901 10.608 16.4381 10.8087 16.7648 11.21C16.7834 11.2473 16.8021 11.2613 16.8208 11.252C16.8488 11.2427 16.8628 11.2193 16.8628 11.182V10.93ZM16.2468 15.788C16.5361 15.788 16.7181 15.634 16.7928 15.326C16.8394 15.0647 16.8628 14.7287 16.8628 14.318C16.8628 13.9073 16.8394 13.5807 16.7928 13.338C16.6994 13.0207 16.5128 12.862 16.2328 12.862C16.1021 12.862 15.9901 12.904 15.8968 12.988C15.8128 13.072 15.7521 13.184 15.7148 13.324C15.6401 13.5947 15.6028 13.9307 15.6028 14.332C15.6028 14.6867 15.6308 15.0133 15.6868 15.312C15.7801 15.6293 15.9668 15.788 16.2468 15.788Z" fill="#333333"/>
</svg>
