<svg width="24" height="24" viewBox="0 0 24 24" fill="none" xmlns="http://www.w3.org/2000/svg">
<path d="M11.0318 17C10.9198 17 10.8591 16.9487 10.8498 16.846L10.5838 15.376C10.5838 15.3293 10.5558 15.306 10.4998 15.306H8.4558C8.3998 15.306 8.3718 15.3293 8.3718 15.376L8.1058 16.846C8.09647 16.9487 8.0358 17 7.9238 17H6.6498C6.51914 17 6.4678 16.9393 6.4958 16.818L8.5678 7.354C8.58647 7.25133 8.64714 7.2 8.7498 7.2H10.2338C10.3365 7.2 10.3971 7.25133 10.4158 7.354L12.4878 16.818V16.874C12.4878 16.958 12.4365 17 12.3338 17H11.0318ZM8.6238 13.962C8.61447 14.0087 8.6378 14.032 8.6938 14.032H10.2478C10.3038 14.032 10.3271 14.0087 10.3178 13.962L9.5058 9.538C9.49647 9.51 9.48247 9.496 9.4638 9.496C9.44514 9.496 9.43114 9.51 9.4218 9.538L8.6238 13.962ZM16.5209 10.014C16.5209 9.96733 16.5349 9.93 16.5629 9.902C16.6002 9.86467 16.6422 9.846 16.6889 9.846H17.9769C18.0236 9.846 18.0609 9.86467 18.0889 9.902C18.1262 9.93 18.1449 9.96733 18.1449 10.014V16.734C18.1449 17.742 17.9162 18.5167 17.4589 19.058C17.0016 19.6087 16.1849 19.884 15.0089 19.884C14.8036 19.884 14.6496 19.8793 14.5469 19.87C14.4349 19.8607 14.3789 19.8 14.3789 19.688V18.61C14.3789 18.4887 14.4396 18.4373 14.5609 18.456C15.0929 18.4653 15.4989 18.4 15.7789 18.26C16.0682 18.12 16.2642 17.9147 16.3669 17.644C16.4696 17.3733 16.5209 17.0187 16.5209 16.58V16.426C16.5209 16.398 16.5116 16.384 16.4929 16.384C16.4742 16.3747 16.4556 16.384 16.4369 16.412C16.1289 16.8133 15.6902 17.014 15.1209 17.014C14.4956 17.014 14.0196 16.8133 13.6929 16.412C13.3662 16.0013 13.2029 15.446 13.2029 14.746V12.002C13.2029 11.2833 13.3662 10.728 13.6929 10.336C14.0289 9.93467 14.5049 9.734 15.1209 9.734C15.6902 9.734 16.1289 9.93467 16.4369 10.336C16.4556 10.364 16.4742 10.378 16.4929 10.378C16.5116 10.3687 16.5209 10.35 16.5209 10.322V10.014ZM15.6809 15.614C15.9329 15.614 16.1336 15.5253 16.2829 15.348C16.4416 15.1613 16.5209 14.9233 16.5209 14.634V12.128C16.5209 11.8293 16.4416 11.5913 16.2829 11.414C16.1336 11.2273 15.9329 11.134 15.6809 11.134C15.4289 11.134 15.2236 11.2273 15.0649 11.414C14.9062 11.6007 14.8269 11.8387 14.8269 12.128V14.634C14.8269 14.9233 14.9062 15.1613 15.0649 15.348C15.2236 15.5253 15.4289 15.614 15.6809 15.614Z" fill="#888888"/>
</svg>
