<svg width="24" height="24" viewBox="0 0 24 24" fill="none" xmlns="http://www.w3.org/2000/svg">
<path d="M11.0344 18C10.9598 18 10.9131 17.9627 10.8944 17.888L10.5584 16.124C10.5584 16.096 10.5444 16.082 10.5164 16.082H6.45644C6.42844 16.082 6.40977 16.096 6.40044 16.124L5.63044 17.888C5.60244 17.9627 5.54644 18 5.46244 18H4.72044C4.61777 18 4.58977 17.9487 4.63644 17.846L8.80844 8.312C8.81777 8.27467 8.8411 8.24667 8.87844 8.228C8.91577 8.20933 8.94844 8.2 8.97644 8.2H9.90044C9.93777 8.2 9.97044 8.20933 9.99844 8.228C10.0264 8.24667 10.0451 8.27467 10.0544 8.312L11.9024 17.846V17.874C11.9024 17.958 11.8604 18 11.7764 18H11.0344ZM6.77844 15.2C6.7691 15.2187 6.7691 15.2373 6.77844 15.256C6.78777 15.2653 6.80177 15.27 6.82044 15.27H10.3344C10.3531 15.27 10.3671 15.2607 10.3764 15.242C10.3951 15.2233 10.3998 15.2093 10.3904 15.2L9.32644 9.488C9.3171 9.46933 9.3031 9.46 9.28444 9.46C9.2751 9.46 9.2611 9.46933 9.24244 9.488L6.77844 15.2ZM18.2498 11.056C18.2498 11.0187 18.2638 10.986 18.2918 10.958C18.3198 10.93 18.3571 10.916 18.4038 10.916H19.0898C19.1738 10.916 19.2158 10.9627 19.2158 11.056L18.3898 17.762C18.2591 18.8073 17.8718 19.5727 17.2278 20.058C16.5838 20.5433 15.7531 20.786 14.7358 20.786C14.5211 20.786 14.3625 20.7813 14.2598 20.772C14.1665 20.7627 14.1245 20.7113 14.1338 20.618L14.2458 19.974C14.2645 19.8713 14.3158 19.8293 14.3998 19.848L14.7778 19.862C15.6085 19.862 16.2338 19.6893 16.6538 19.344C17.0738 19.008 17.3305 18.4713 17.4238 17.734L17.4938 17.216C17.4938 17.1973 17.4845 17.188 17.4658 17.188C17.4565 17.1787 17.4425 17.1833 17.4238 17.202C16.9478 17.762 16.3225 18.042 15.5478 18.042C14.9598 18.042 14.4558 17.8787 14.0358 17.552C13.6158 17.2253 13.3638 16.7633 13.2798 16.166C13.2611 15.9607 13.2518 15.788 13.2518 15.648C13.2518 15.3027 13.2798 14.906 13.3358 14.458C13.4291 13.646 13.5598 13.0487 13.7278 12.666C13.9611 12.106 14.3111 11.658 14.7778 11.322C15.2445 10.9767 15.7765 10.804 16.3738 10.804C17.1765 10.804 17.7551 11.0793 18.1098 11.63C18.1191 11.6487 18.1331 11.6533 18.1518 11.644C18.1705 11.6347 18.1798 11.6207 18.1798 11.602L18.2498 11.056ZM17.5918 15.858C17.6385 15.7087 17.6758 15.55 17.7038 15.382C17.7318 15.214 17.7738 14.9013 17.8298 14.444C17.9045 13.8187 17.9418 13.422 17.9418 13.254C17.9418 13.1607 17.9371 13.086 17.9278 13.03C17.9091 12.638 17.7691 12.316 17.5078 12.064C17.2465 11.8027 16.9011 11.672 16.4718 11.672C16.0425 11.672 15.6645 11.798 15.3378 12.05C15.0111 12.302 14.7685 12.6287 14.6098 13.03C14.4885 13.3193 14.3858 13.786 14.3018 14.43C14.2551 14.7753 14.2318 15.1067 14.2318 15.424C14.2318 15.592 14.2411 15.732 14.2598 15.844C14.3065 16.236 14.4651 16.5627 14.7358 16.824C15.0158 17.076 15.3705 17.202 15.7998 17.202C16.2478 17.202 16.6258 17.076 16.9338 16.824C17.2511 16.572 17.4705 16.25 17.5918 15.858Z" fill="#333333"/>
</svg>
