<svg width="24" height="24" viewBox="0 0 24 24" fill="none" xmlns="http://www.w3.org/2000/svg">
<path d="M10.8515 18C10.7675 18 10.7161 17.958 10.6975 17.874L10.2775 15.928C10.2775 15.9093 10.2681 15.8953 10.2495 15.886C10.2401 15.8767 10.2261 15.872 10.2075 15.872H7.22546C7.20679 15.872 7.18813 15.8767 7.16946 15.886C7.16013 15.8953 7.15546 15.9093 7.15546 15.928L6.73546 17.874C6.72613 17.958 6.67479 18 6.58146 18H6.44146C6.39479 18 6.35746 17.986 6.32946 17.958C6.31079 17.93 6.30613 17.8927 6.31546 17.846L8.45746 8.326C8.47613 8.242 8.52746 8.2 8.61146 8.2H8.80746C8.89146 8.2 8.94279 8.242 8.96146 8.326L11.1175 17.846V17.874C11.1175 17.958 11.0755 18 10.9915 18H10.8515ZM7.26746 15.438C7.25813 15.4473 7.25813 15.4613 7.26746 15.48C7.28613 15.4893 7.30479 15.494 7.32346 15.494H10.1095C10.1281 15.494 10.1421 15.4893 10.1515 15.48C10.1701 15.4613 10.1748 15.4473 10.1655 15.438L8.73746 8.984C8.72813 8.956 8.71879 8.942 8.70946 8.942C8.70013 8.942 8.69079 8.956 8.68146 8.984L7.26746 15.438ZM15.5581 11.126C15.5581 11.0327 15.6048 10.986 15.6981 10.986H15.8521C15.9454 10.986 15.9921 11.0327 15.9921 11.126V17.972C15.9921 19.8573 15.1801 20.8 13.5561 20.8C13.4441 20.8 13.3881 20.7533 13.3881 20.66V20.562C13.3881 20.4687 13.4348 20.422 13.5281 20.422C14.2374 20.422 14.7508 20.212 15.0681 19.792C15.3948 19.372 15.5581 18.7607 15.5581 17.958V17.3C15.5581 17.272 15.5488 17.258 15.5301 17.258C15.5208 17.2487 15.5068 17.2533 15.4881 17.272C15.3294 17.5333 15.1241 17.7387 14.8721 17.888C14.6201 18.028 14.3354 18.098 14.0181 18.098C13.4581 18.098 13.0054 17.9113 12.6601 17.538C12.3148 17.1647 12.1421 16.6793 12.1421 16.082V12.904C12.1421 12.3067 12.3148 11.8213 12.6601 11.448C13.0054 11.0653 13.4581 10.874 14.0181 10.874C14.3448 10.874 14.6341 10.9487 14.8861 11.098C15.1381 11.238 15.3388 11.4387 15.4881 11.7C15.5068 11.7187 15.5208 11.728 15.5301 11.728C15.5488 11.7187 15.5581 11.7 15.5581 11.672V11.126ZM14.0881 17.706C14.5174 17.706 14.8674 17.5567 15.1381 17.258C15.4181 16.95 15.5581 16.5533 15.5581 16.068V12.904C15.5581 12.4187 15.4181 12.0267 15.1381 11.728C14.8674 11.42 14.5174 11.266 14.0881 11.266C13.6401 11.266 13.2714 11.42 12.9821 11.728C12.7021 12.0267 12.5621 12.4187 12.5621 12.904V16.068C12.5621 16.5533 12.7021 16.95 12.9821 17.258C13.2714 17.5567 13.6401 17.706 14.0881 17.706Z" fill="#333333"/>
</svg>
