<svg width="24" height="24" viewBox="0 0 24 24" fill="none" xmlns="http://www.w3.org/2000/svg">
<path d="M10.8633 18C10.7887 18 10.742 17.958 10.7233 17.874L10.4993 16.124C10.49 16.096 10.4667 16.082 10.4293 16.082H7.18132C7.15332 16.082 7.12999 16.096 7.11132 16.124L6.45332 17.874C6.41599 17.958 6.35999 18 6.28532 18H5.58532C5.53865 18 5.50132 17.986 5.47332 17.958C5.45465 17.93 5.45465 17.8927 5.47332 17.846L9.18332 8.326C9.22065 8.242 9.27665 8.2 9.35132 8.2H10.2193C10.294 8.2 10.3407 8.242 10.3593 8.326L11.7173 17.846V17.888C11.7173 17.9627 11.6707 18 11.5773 18H10.8633ZM7.46132 15.214C7.45199 15.2233 7.45199 15.2373 7.46132 15.256C7.47065 15.2653 7.48465 15.27 7.50332 15.27H10.3173C10.336 15.27 10.35 15.2653 10.3593 15.256C10.378 15.2373 10.3827 15.2233 10.3733 15.214L9.63132 9.586C9.62199 9.56733 9.61265 9.558 9.60332 9.558C9.59399 9.558 9.58465 9.56733 9.57532 9.586L7.46132 15.214ZM17.3792 11.056C17.3979 10.9627 17.4492 10.916 17.5332 10.916H18.2332C18.2706 10.916 18.2986 10.93 18.3172 10.958C18.3452 10.986 18.3546 11.0187 18.3452 11.056L17.5192 17.804C17.2579 19.9133 16.0166 20.9167 13.7952 20.814C13.7112 20.8047 13.6739 20.7533 13.6832 20.66L13.7672 20.03C13.7859 19.9273 13.8372 19.8853 13.9212 19.904C14.7612 19.932 15.3866 19.7687 15.7972 19.414C16.2079 19.0687 16.4646 18.5133 16.5672 17.748L16.6232 17.286C16.6232 17.2673 16.6139 17.2533 16.5952 17.244C16.5859 17.2347 16.5719 17.2393 16.5532 17.258C16.1332 17.7807 15.5779 18.042 14.8872 18.042C14.3086 18.042 13.8419 17.8647 13.4872 17.51C13.1419 17.1553 12.9646 16.6653 12.9552 16.04C12.9552 15.6107 12.9926 15.0833 13.0672 14.458C13.1419 13.8327 13.2399 13.282 13.3612 12.806C13.5106 12.1993 13.7999 11.714 14.2292 11.35C14.6586 10.986 15.1626 10.804 15.7412 10.804C16.0866 10.804 16.3852 10.8693 16.6372 11C16.8986 11.1307 17.1039 11.322 17.2532 11.574C17.2812 11.6207 17.3046 11.616 17.3232 11.56L17.3792 11.056ZM16.7492 15.844C16.8239 15.4333 16.8986 14.9667 16.9732 14.444C16.9826 14.36 17.0059 14.1547 17.0432 13.828C17.0806 13.492 17.0992 13.198 17.0992 12.946C17.0992 12.5727 16.9872 12.2693 16.7632 12.036C16.5486 11.7933 16.2546 11.672 15.8812 11.672C15.4986 11.672 15.1626 11.798 14.8732 12.05C14.5839 12.302 14.3832 12.624 14.2712 13.016C14.1872 13.3987 14.1126 13.8747 14.0472 14.444C13.9912 14.8453 13.9539 15.312 13.9352 15.844C13.9352 16.236 14.0472 16.558 14.2712 16.81C14.5046 17.062 14.8172 17.188 15.2092 17.188C15.6012 17.188 15.9372 17.062 16.2172 16.81C16.4972 16.558 16.6746 16.236 16.7492 15.844Z" fill="#333333"/>
</svg>
