<svg width="24" height="24" viewBox="0 0 24 24" fill="none" xmlns="http://www.w3.org/2000/svg">
<path d="M10.6783 18C10.6037 18 10.557 17.9627 10.5383 17.888L10.1743 16.026C10.1743 15.998 10.1603 15.984 10.1323 15.984H5.89032C5.86232 15.984 5.84365 15.998 5.83432 16.026L5.03632 17.888C4.98965 17.9627 4.92899 18 4.85432 18H4.37832C4.27565 18 4.24765 17.9487 4.29432 17.846L8.48032 8.312C8.48965 8.27467 8.51299 8.24667 8.55032 8.228C8.58765 8.20933 8.62032 8.2 8.64832 8.2H9.26432C9.33899 8.2 9.39032 8.23733 9.41832 8.312L11.2663 17.846V17.874C11.2663 17.958 11.2243 18 11.1403 18H10.6783ZM6.14232 15.298C6.13299 15.3167 6.13299 15.3353 6.14232 15.354C6.15165 15.3633 6.16565 15.368 6.18432 15.368H9.99232C10.011 15.368 10.025 15.3633 10.0343 15.354C10.053 15.3353 10.0577 15.3167 10.0483 15.298L8.88632 9.208C8.87699 9.18933 8.86299 9.18 8.84432 9.18C8.82565 9.18 8.81165 9.18933 8.80232 9.208L6.14232 15.298ZM17.7723 11.084C17.7909 10.9907 17.8423 10.944 17.9263 10.944H18.3743C18.4583 10.944 18.5003 10.9907 18.5003 11.084L17.6603 17.846C17.5296 18.9007 17.1283 19.666 16.4563 20.142C15.7843 20.618 14.8883 20.8327 13.7683 20.786C13.6843 20.7673 13.6469 20.716 13.6563 20.632L13.7263 20.226C13.7263 20.1887 13.7403 20.156 13.7683 20.128C13.7963 20.1 13.8336 20.086 13.8803 20.086C14.8416 20.1233 15.5649 19.9553 16.0503 19.582C16.5449 19.218 16.8436 18.6347 16.9463 17.832L17.0303 17.132C17.0396 17.104 17.0349 17.09 17.0163 17.09C17.0069 17.0807 16.9929 17.0853 16.9743 17.104C16.4703 17.748 15.8076 18.07 14.9863 18.07C14.3983 18.07 13.9036 17.9067 13.5023 17.58C13.1009 17.244 12.8629 16.7867 12.7883 16.208C12.7696 16.0027 12.7603 15.8347 12.7603 15.704C12.7603 15.368 12.7883 14.962 12.8443 14.486C12.9003 14.066 12.9563 13.716 13.0123 13.436C13.0683 13.156 13.1429 12.904 13.2363 12.68C13.4509 12.1293 13.7916 11.686 14.2583 11.35C14.7249 11.0047 15.2569 10.832 15.8543 10.832C16.6849 10.832 17.2729 11.1493 17.6183 11.784C17.6276 11.8027 17.6416 11.8073 17.6603 11.798C17.6789 11.7887 17.6883 11.7747 17.6883 11.756L17.7723 11.084ZM17.1143 15.942C17.1609 15.802 17.1983 15.6293 17.2263 15.424C17.2636 15.2187 17.3103 14.9013 17.3663 14.472C17.4223 14.0427 17.4549 13.7253 17.4643 13.52C17.4829 13.3147 17.4876 13.1327 17.4783 12.974C17.4596 12.5447 17.3103 12.19 17.0303 11.91C16.7503 11.63 16.3769 11.49 15.9103 11.49C15.4343 11.49 15.0143 11.63 14.6503 11.91C14.2956 12.19 14.0389 12.5447 13.8803 12.974C13.7589 13.282 13.6563 13.7767 13.5723 14.458C13.5256 14.8687 13.5023 15.2373 13.5023 15.564C13.5023 15.76 13.5069 15.886 13.5163 15.942C13.5629 16.3713 13.7309 16.726 14.0203 17.006C14.3189 17.286 14.7063 17.426 15.1823 17.426C15.6583 17.426 16.0643 17.286 16.4003 17.006C16.7456 16.726 16.9836 16.3713 17.1143 15.942Z" fill="#333333"/>
</svg>
