<svg width="24" height="24" viewBox="0 0 24 24" fill="none" xmlns="http://www.w3.org/2000/svg">
<path d="M10.6377 18C10.5631 18 10.5164 17.958 10.4977 17.874L10.3017 16.25C10.2924 16.222 10.2691 16.208 10.2317 16.208H7.23573C7.1984 16.208 7.1704 16.222 7.15173 16.25L6.56373 17.874C6.53573 17.958 6.47973 18 6.39573 18H5.34573C5.29907 18 5.26173 17.986 5.23373 17.958C5.21507 17.93 5.21507 17.8927 5.23373 17.846L8.91573 8.326C8.95307 8.242 9.00907 8.2 9.08373 8.2H10.3577C10.4324 8.2 10.4791 8.242 10.4977 8.326L11.8557 17.846V17.874C11.8557 17.9113 11.8417 17.944 11.8137 17.972C11.7857 17.9907 11.7531 18 11.7157 18H10.6377ZM7.58573 15.088C7.5764 15.0973 7.5764 15.1113 7.58573 15.13C7.59507 15.1393 7.60907 15.144 7.62773 15.144H10.0917C10.1104 15.144 10.1244 15.1393 10.1337 15.13C10.1524 15.1113 10.1571 15.0973 10.1477 15.088L9.51773 10.02C9.5084 10.0013 9.49907 9.992 9.48973 9.992C9.4804 9.992 9.47107 10.0013 9.46173 10.02L7.58573 15.088ZM17.3558 11.014C17.3744 10.9207 17.4258 10.874 17.5098 10.874H18.5458C18.5831 10.874 18.6111 10.888 18.6298 10.916C18.6578 10.944 18.6671 10.9767 18.6578 11.014L17.8318 17.72C17.5704 19.792 16.3664 20.828 14.2198 20.828C14.0331 20.828 13.8884 20.8233 13.7858 20.814C13.7018 20.7953 13.6644 20.744 13.6738 20.66L13.8138 19.722C13.8324 19.6193 13.8838 19.5773 13.9678 19.596C14.8171 19.6333 15.4331 19.498 15.8158 19.19C16.2078 18.882 16.4504 18.3593 16.5438 17.622L16.5718 17.356C16.5811 17.3373 16.5764 17.3233 16.5578 17.314C16.5484 17.3047 16.5344 17.3093 16.5158 17.328C16.1144 17.776 15.5918 18 14.9478 18C14.3598 18 13.8838 17.8227 13.5198 17.468C13.1651 17.104 12.9831 16.6 12.9738 15.956C12.9644 15.788 12.9691 15.564 12.9878 15.284C13.0158 14.9947 13.0438 14.71 13.0718 14.43C13.0811 14.3647 13.1138 14.136 13.1698 13.744C13.2258 13.352 13.2958 13.0393 13.3798 12.806C13.5384 12.1807 13.8278 11.686 14.2478 11.322C14.6771 10.9487 15.1904 10.762 15.7878 10.762C16.4411 10.762 16.9218 10.9813 17.2298 11.42C17.2671 11.4573 17.2951 11.448 17.3138 11.392L17.3558 11.014ZM16.7538 15.718C16.8191 15.3167 16.8798 14.8827 16.9358 14.416C17.0198 13.7533 17.0618 13.3007 17.0618 13.058C17.0618 12.7313 16.9638 12.4607 16.7678 12.246C16.5811 12.0313 16.3244 11.924 15.9978 11.924C15.6711 11.924 15.3818 12.036 15.1298 12.26C14.8871 12.4747 14.7191 12.75 14.6258 13.086C14.5418 13.4033 14.4624 13.8467 14.3878 14.416C14.3224 14.948 14.2898 15.3773 14.2898 15.704C14.2991 16.0493 14.4018 16.3293 14.5978 16.544C14.8031 16.7587 15.0691 16.866 15.3958 16.866C15.7318 16.866 16.0211 16.7587 16.2638 16.544C16.5064 16.3293 16.6698 16.054 16.7538 15.718Z" fill="#333333"/>
</svg>
