<svg width="24" height="24" viewBox="0 0 24 24" fill="none" xmlns="http://www.w3.org/2000/svg">
<path d="M11.4142 18C11.3302 18 11.2789 17.9627 11.2602 17.888L10.7282 15.956C10.7189 15.928 10.6955 15.914 10.6582 15.914H6.99019C6.95285 15.914 6.92952 15.928 6.92019 15.956L6.40219 17.874C6.38352 17.958 6.33219 18 6.24819 18H5.98219C5.93552 18 5.89819 17.986 5.87019 17.958C5.85152 17.93 5.84685 17.8927 5.85619 17.846L8.48819 8.312C8.50685 8.23733 8.55819 8.2 8.64219 8.2H8.99219C9.07619 8.2 9.12752 8.23733 9.14619 8.312L11.8062 17.846L11.8202 17.888C11.8202 17.9627 11.7735 18 11.6802 18H11.4142ZM7.07419 15.396C7.06485 15.4053 7.06485 15.4193 7.07419 15.438C7.09285 15.4473 7.11152 15.452 7.13019 15.452H10.5182C10.5369 15.452 10.5509 15.4473 10.5602 15.438C10.5789 15.4193 10.5835 15.4053 10.5742 15.396L8.85219 9.068C8.84285 9.04933 8.83352 9.04 8.82419 9.04C8.81485 9.04 8.80552 9.04933 8.79619 9.068L7.07419 15.396ZM16.9693 11.112C16.9693 11.0187 17.016 10.972 17.1093 10.972H17.3893C17.4827 10.972 17.5293 11.0187 17.5293 11.112V17.93C17.5293 18.9007 17.2773 19.6287 16.7733 20.114C16.2693 20.5993 15.5133 20.828 14.5053 20.8C14.412 20.8 14.3653 20.7533 14.3653 20.66V20.436C14.3653 20.3427 14.412 20.296 14.5053 20.296C15.364 20.3053 15.9893 20.1093 16.3813 19.708C16.7733 19.316 16.9693 18.7187 16.9693 17.916V17.188C16.9693 17.16 16.96 17.146 16.9413 17.146C16.932 17.146 16.918 17.1553 16.8993 17.174C16.7313 17.4633 16.498 17.6873 16.1993 17.846C15.91 18.0047 15.574 18.084 15.1913 18.084C14.6033 18.084 14.1087 17.9067 13.7073 17.552C13.3153 17.1973 13.082 16.726 13.0073 16.138C12.9607 15.7647 12.9373 15.2187 12.9373 14.5C12.9373 13.7533 12.9607 13.1887 13.0073 12.806C13.082 12.2273 13.3153 11.7607 13.7073 11.406C14.0993 11.042 14.5893 10.86 15.1773 10.86C15.56 10.86 15.896 10.9393 16.1853 11.098C16.484 11.2567 16.722 11.4853 16.8993 11.784C16.918 11.8027 16.932 11.812 16.9413 11.812C16.96 11.812 16.9693 11.798 16.9693 11.77V11.112ZM16.9413 16.012C16.96 15.76 16.9693 15.2653 16.9693 14.528V14.444C16.9693 13.7067 16.96 13.2027 16.9413 12.932C16.904 12.4747 16.736 12.0967 16.4373 11.798C16.1387 11.4993 15.7513 11.35 15.2753 11.35C14.8087 11.35 14.4167 11.4993 14.0993 11.798C13.7913 12.0967 13.6047 12.4747 13.5393 12.932C13.502 13.4733 13.4833 13.9867 13.4833 14.472C13.4833 15.032 13.502 15.5453 13.5393 16.012C13.586 16.4693 13.768 16.8473 14.0853 17.146C14.412 17.4447 14.8133 17.594 15.2893 17.594C15.7653 17.594 16.148 17.4447 16.4373 17.146C16.736 16.8473 16.904 16.4693 16.9413 16.012Z" fill="#333333"/>
</svg>
