<svg width="24" height="24" viewBox="0 0 24 24" fill="none" xmlns="http://www.w3.org/2000/svg">
<path d="M10.6095 18C10.5162 18 10.4695 17.958 10.4695 17.874L10.3015 15.928C10.3015 15.8907 10.2829 15.872 10.2455 15.872H7.34752C7.32886 15.872 7.31019 15.8767 7.29152 15.886C7.28219 15.8953 7.27752 15.9093 7.27752 15.928L6.61952 17.874C6.61019 17.958 6.55886 18 6.46552 18H6.32552C6.27886 18 6.24619 17.986 6.22752 17.958C6.20886 17.93 6.20886 17.8927 6.22752 17.846L9.46152 8.326C9.48952 8.242 9.54552 8.2 9.62952 8.2H9.82552C9.90952 8.2 9.95152 8.242 9.95152 8.326L10.8755 17.846V17.874C10.8755 17.9113 10.8615 17.944 10.8335 17.972C10.8055 17.9907 10.7729 18 10.7355 18H10.6095ZM7.44552 15.438C7.43619 15.4473 7.43619 15.4613 7.44552 15.48C7.45486 15.4893 7.46886 15.494 7.48752 15.494H10.1895C10.2082 15.494 10.2222 15.4893 10.2315 15.48C10.2502 15.4613 10.2549 15.4473 10.2455 15.438L9.65752 8.984C9.65752 8.956 9.65286 8.942 9.64352 8.942C9.63419 8.942 9.62019 8.956 9.60152 8.984L7.44552 15.438ZM16.0198 11.126C16.0198 11.0887 16.0338 11.056 16.0618 11.028C16.0898 11 16.1271 10.986 16.1738 10.986H16.3138C16.3604 10.986 16.3931 11 16.4118 11.028C16.4398 11.056 16.4491 11.0887 16.4398 11.126L15.5998 17.972C15.3664 19.8573 14.4611 20.8 12.8838 20.8C12.8184 20.8 12.7764 20.786 12.7578 20.758C12.7391 20.7393 12.7344 20.7067 12.7438 20.66L12.7578 20.562C12.7578 20.5247 12.7718 20.492 12.7998 20.464C12.8278 20.436 12.8651 20.422 12.9118 20.422C13.5931 20.422 14.1158 20.212 14.4798 19.792C14.8438 19.372 15.0771 18.7607 15.1798 17.958L15.2638 17.3C15.2638 17.272 15.2544 17.258 15.2358 17.258C15.2264 17.2487 15.2124 17.2533 15.1938 17.272C15.0164 17.5333 14.7924 17.7387 14.5218 17.888C14.2604 18.028 13.9758 18.098 13.6678 18.098C13.1731 18.098 12.7811 17.9487 12.4918 17.65C12.2118 17.342 12.0718 16.936 12.0718 16.432C12.0718 16.3667 12.0811 16.25 12.0998 16.082L12.4778 12.904C12.5524 12.3067 12.7811 11.8213 13.1638 11.448C13.5464 11.0653 14.0084 10.874 14.5498 10.874C14.8578 10.874 15.1284 10.9487 15.3618 11.098C15.5951 11.238 15.7678 11.4387 15.8798 11.7C15.8891 11.7187 15.8984 11.728 15.9078 11.728C15.9264 11.7187 15.9404 11.7 15.9498 11.672L16.0198 11.126ZM13.7798 17.706C14.1998 17.706 14.5591 17.5567 14.8578 17.258C15.1658 16.95 15.3478 16.5533 15.4038 16.068L15.7958 12.904C15.8051 12.8387 15.8098 12.7407 15.8098 12.61C15.8098 12.2087 15.6978 11.8867 15.4738 11.644C15.2498 11.392 14.9511 11.266 14.5778 11.266C14.1391 11.266 13.7611 11.42 13.4438 11.728C13.1358 12.0267 12.9538 12.4187 12.8978 12.904L12.5058 16.068C12.4964 16.1333 12.4918 16.2267 12.4918 16.348C12.4918 16.7587 12.6084 17.09 12.8418 17.342C13.0751 17.5847 13.3878 17.706 13.7798 17.706Z" fill="#333333"/>
</svg>
