<svg width="24" height="24" viewBox="0 0 24 24" fill="none" xmlns="http://www.w3.org/2000/svg">
<path d="M11.2783 17C11.1943 17 11.1383 16.9627 11.1103 16.888L10.5503 15.124C10.541 15.096 10.5223 15.082 10.4943 15.082H6.30834C6.28034 15.082 6.26168 15.096 6.25234 15.124L5.69234 16.888C5.66434 16.9627 5.60834 17 5.52434 17H4.76834C4.66568 17 4.62834 16.9487 4.65634 16.846L7.75034 7.312C7.77834 7.23733 7.83434 7.2 7.91834 7.2H8.87034C8.95434 7.2 9.01034 7.23733 9.03834 7.312L12.1463 16.846L12.1603 16.902C12.1603 16.9673 12.1183 17 12.0343 17H11.2783ZM6.53234 14.2C6.52301 14.2187 6.52301 14.2373 6.53234 14.256C6.55101 14.2653 6.56968 14.27 6.58834 14.27H10.2003C10.219 14.27 10.233 14.2653 10.2423 14.256C10.261 14.2373 10.2657 14.2187 10.2563 14.2L8.43634 8.488C8.42701 8.46933 8.41301 8.46 8.39434 8.46C8.37568 8.46 8.36168 8.46933 8.35234 8.488L6.53234 14.2ZM17.8435 10.056C17.8435 9.96267 17.8901 9.916 17.9835 9.916H18.6975C18.7908 9.916 18.8375 9.96267 18.8375 10.056V16.762C18.8375 17.8073 18.5341 18.5727 17.9275 19.058C17.3301 19.5433 16.5041 19.786 15.4495 19.786C15.2348 19.786 15.0715 19.7813 14.9595 19.772C14.8661 19.7627 14.8195 19.7113 14.8195 19.618L14.8475 18.974C14.8475 18.9273 14.8615 18.89 14.8895 18.862C14.9175 18.8433 14.9501 18.8387 14.9875 18.848L15.3655 18.862C16.2335 18.862 16.8635 18.6893 17.2555 18.344C17.6475 18.008 17.8435 17.4713 17.8435 16.734V16.216C17.8435 16.1973 17.8341 16.188 17.8155 16.188C17.8061 16.1787 17.7921 16.1833 17.7735 16.202C17.3441 16.762 16.7328 17.042 15.9395 17.042C15.3328 17.042 14.7915 16.8787 14.3155 16.552C13.8488 16.2253 13.5361 15.7633 13.3775 15.166C13.2655 14.7833 13.2095 14.214 13.2095 13.458C13.2095 13.0473 13.2188 12.702 13.2375 12.422C13.2655 12.142 13.3168 11.89 13.3915 11.666C13.5595 11.106 13.8628 10.658 14.3015 10.322C14.7401 9.97667 15.2675 9.804 15.8835 9.804C16.7141 9.804 17.3441 10.0793 17.7735 10.63C17.7921 10.6487 17.8061 10.6533 17.8155 10.644C17.8341 10.6347 17.8435 10.6207 17.8435 10.602V10.056ZM17.7735 14.858C17.8015 14.718 17.8201 14.5453 17.8295 14.34C17.8388 14.1347 17.8435 13.836 17.8435 13.444C17.8435 12.968 17.8388 12.6507 17.8295 12.492C17.8201 12.324 17.7968 12.17 17.7595 12.03C17.6848 11.638 17.4981 11.316 17.1995 11.064C16.9101 10.8027 16.5415 10.672 16.0935 10.672C15.6548 10.672 15.2815 10.798 14.9735 11.05C14.6748 11.302 14.4648 11.6287 14.3435 12.03C14.2501 12.3287 14.2035 12.7953 14.2035 13.43C14.2035 14.1113 14.2501 14.5827 14.3435 14.844C14.4368 15.236 14.6375 15.5627 14.9455 15.824C15.2628 16.076 15.6455 16.202 16.0935 16.202C16.5508 16.202 16.9241 16.076 17.2135 15.824C17.5121 15.572 17.6988 15.25 17.7735 14.858Z" fill="#888888"/>
</svg>
