<svg width="24" height="24" viewBox="0 0 24 24" fill="none" xmlns="http://www.w3.org/2000/svg">
<path d="M10.5207 17C10.4273 17 10.3807 16.958 10.3807 16.874L10.2267 14.97C10.2267 14.9513 10.2173 14.9373 10.1987 14.928C10.1893 14.9187 10.1753 14.914 10.1567 14.914H7.35666C7.33799 14.914 7.31932 14.9187 7.30066 14.928C7.29132 14.9373 7.28666 14.9513 7.28666 14.97L6.65666 16.874C6.62866 16.958 6.57266 17 6.48866 17H6.23666C6.18999 17 6.15732 16.986 6.13866 16.958C6.11999 16.93 6.11999 16.8927 6.13866 16.846L9.37266 7.326C9.39132 7.242 9.44266 7.2 9.52666 7.2H9.87666C9.96066 7.2 10.0027 7.242 10.0027 7.326L10.9127 16.846C10.9127 16.9487 10.866 17 10.7727 17H10.5207ZM7.48266 14.396C7.47332 14.4053 7.47332 14.4193 7.48266 14.438C7.49199 14.4473 7.50132 14.452 7.51066 14.452H10.1147C10.1333 14.452 10.1473 14.4473 10.1567 14.438C10.1753 14.4193 10.18 14.4053 10.1707 14.396L9.62466 8.138C9.61532 8.11 9.60599 8.096 9.59666 8.096C9.58732 8.096 9.57799 8.11 9.56866 8.138L7.48266 14.396ZM16.0119 10.112C16.0306 10.0187 16.0819 9.972 16.1659 9.972H16.4319C16.5159 9.972 16.5579 10.0187 16.5579 10.112L15.7179 16.958C15.4753 18.862 14.5419 19.814 12.9179 19.814C12.8433 19.814 12.7919 19.8 12.7639 19.772C12.7359 19.7533 12.7266 19.7207 12.7359 19.674L12.7639 19.45C12.7639 19.3567 12.8246 19.31 12.9459 19.31C13.6273 19.31 14.1453 19.1093 14.4999 18.708C14.8546 18.3067 15.0786 17.714 15.1719 16.93L15.2559 16.3C15.2559 16.272 15.2466 16.258 15.2279 16.258C15.2186 16.258 15.2046 16.2673 15.1859 16.286C15.0086 16.5473 14.7893 16.748 14.5279 16.888C14.2666 17.0187 13.9819 17.084 13.6739 17.084C13.1793 17.084 12.7873 16.93 12.4979 16.622C12.2179 16.3047 12.0779 15.8847 12.0779 15.362C12.0779 15.222 12.0826 15.1147 12.0919 15.04L12.4699 11.918C12.5446 11.3113 12.7733 10.8167 13.1559 10.434C13.5479 10.0513 14.0146 9.86 14.5559 9.86C14.8639 9.86 15.1299 9.93 15.3539 10.07C15.5779 10.2007 15.7506 10.3967 15.8719 10.658C15.8906 10.6767 15.9046 10.686 15.9139 10.686C15.9326 10.686 15.9419 10.672 15.9419 10.644L16.0119 10.112ZM13.8559 16.594C14.2573 16.594 14.6026 16.4493 14.8919 16.16C15.1813 15.8613 15.3539 15.4787 15.4099 15.012L15.7879 11.932C15.7973 11.8667 15.8019 11.778 15.8019 11.666C15.8019 11.2647 15.6946 10.9473 15.4799 10.714C15.2653 10.4713 14.9806 10.35 14.6259 10.35C14.2059 10.35 13.8419 10.4993 13.5339 10.798C13.2353 11.0873 13.0579 11.4653 13.0019 11.932L12.6239 15.012C12.6146 15.068 12.6099 15.152 12.6099 15.264C12.6099 15.6653 12.7219 15.9873 12.9459 16.23C13.1793 16.4727 13.4826 16.594 13.8559 16.594Z" fill="#888888"/>
</svg>
