<svg width="24" height="24" viewBox="0 0 24 24" fill="none" xmlns="http://www.w3.org/2000/svg">
<path d="M10.2381 18C10.1354 18 10.0747 17.9487 10.0561 17.846L9.77608 16.614C9.76675 16.5767 9.74341 16.558 9.70608 16.558H7.34008C7.30274 16.558 7.27941 16.5767 7.27008 16.614L6.99008 17.846C6.97141 17.9487 6.91074 18 6.80808 18H4.75008C4.62874 18 4.58208 17.9393 4.61008 17.818L7.11608 8.34C7.14408 8.24667 7.20941 8.2 7.31208 8.2H9.76208C9.86475 8.2 9.93008 8.24667 9.95808 8.34L12.4641 17.818L12.4781 17.874C12.4781 17.958 12.4267 18 12.3241 18H10.2381ZM7.69008 14.696C7.68074 14.7427 7.70408 14.766 7.76008 14.766H9.25808C9.27674 14.766 9.29541 14.7613 9.31408 14.752C9.33274 14.7333 9.33741 14.71 9.32808 14.682L8.54408 11.21C8.53475 11.1727 8.52074 11.154 8.50208 11.154C8.48341 11.154 8.46941 11.1727 8.46008 11.21L7.69008 14.696ZM16.8722 10.93C16.8722 10.8833 16.8862 10.846 16.9142 10.818C16.9516 10.7807 16.9936 10.762 17.0402 10.762H19.0282C19.0749 10.762 19.1122 10.7807 19.1402 10.818C19.1776 10.846 19.1962 10.8833 19.1962 10.93V17.384C19.1962 18.5507 18.8649 19.414 18.2022 19.974C17.5489 20.5433 16.6202 20.828 15.4162 20.828C15.0616 20.828 14.7349 20.8093 14.4362 20.772C14.3242 20.772 14.2682 20.716 14.2682 20.604L14.3242 18.896C14.3242 18.7747 14.3849 18.7233 14.5062 18.742C14.7582 18.77 14.9916 18.784 15.2062 18.784C15.7849 18.784 16.2049 18.6627 16.4662 18.42C16.7369 18.1773 16.8722 17.7947 16.8722 17.272L16.7742 17.384C16.4569 17.7573 16.0042 17.944 15.4162 17.944C14.8002 17.944 14.2822 17.7713 13.8622 17.426C13.4422 17.0713 13.1716 16.5347 13.0502 15.816C12.9756 15.5547 12.9382 15.0647 12.9382 14.346C12.9382 14.0847 12.9476 13.8093 12.9662 13.52C12.9942 13.2213 13.0269 12.9973 13.0642 12.848C13.0736 12.8293 13.0782 12.8013 13.0782 12.764C13.1902 12.1013 13.4422 11.5833 13.8342 11.21C14.2356 10.8367 14.7489 10.65 15.3742 10.65C15.9809 10.65 16.4522 10.86 16.7882 11.28C16.8069 11.308 16.8256 11.3173 16.8442 11.308C16.8629 11.2987 16.8722 11.28 16.8722 11.252V10.93ZM16.8162 15.41C16.8536 15.1393 16.8722 14.7847 16.8722 14.346C16.8722 13.8887 16.8489 13.534 16.8022 13.282C16.7649 13.086 16.6809 12.932 16.5502 12.82C16.4289 12.6987 16.2702 12.638 16.0742 12.638C15.8969 12.638 15.7476 12.6987 15.6262 12.82C15.5142 12.932 15.4349 13.0813 15.3882 13.268C15.3136 13.6133 15.2762 13.9773 15.2762 14.36C15.2762 14.752 15.3042 15.102 15.3602 15.41C15.4069 15.606 15.4909 15.76 15.6122 15.872C15.7429 15.984 15.9016 16.04 16.0882 16.04C16.2842 16.04 16.4429 15.984 16.5642 15.872C16.6949 15.76 16.7789 15.606 16.8162 15.41Z" fill="#333333"/>
</svg>
