<svg width="24" height="24" viewBox="0 0 24 24" fill="none" xmlns="http://www.w3.org/2000/svg">
<path d="M11.1485 17C11.0551 17 10.9945 16.9533 10.9665 16.86L10.5465 15.488C10.5278 15.4507 10.5045 15.432 10.4765 15.432H7.03245C7.00445 15.432 6.98112 15.4507 6.96245 15.488L6.55645 16.86C6.52845 16.9533 6.46779 17 6.37445 17H4.59645C4.54045 17 4.49845 16.986 4.47045 16.958C4.44245 16.9207 4.43779 16.8693 4.45645 16.804L7.48045 7.34C7.50845 7.24667 7.56912 7.2 7.66245 7.2H9.86045C9.95379 7.2 10.0145 7.24667 10.0425 7.34L13.0665 16.804C13.0758 16.8227 13.0805 16.846 13.0805 16.874C13.0805 16.958 13.0291 17 12.9265 17H11.1485ZM7.46645 13.822C7.45712 13.878 7.47579 13.906 7.52245 13.906H9.98645C10.0425 13.906 10.0611 13.878 10.0425 13.822L8.78245 9.664C8.77312 9.62667 8.75912 9.61267 8.74045 9.622C8.72179 9.622 8.70779 9.636 8.69845 9.664L7.46645 13.822ZM18.2803 9.972C18.2803 9.92533 18.2943 9.888 18.3223 9.86C18.3596 9.82267 18.4016 9.804 18.4483 9.804H20.0863C20.1329 9.804 20.1703 9.82267 20.1983 9.86C20.2356 9.888 20.2543 9.92533 20.2543 9.972V16.356C20.2543 17.5787 19.8996 18.4513 19.1903 18.974C18.4903 19.4967 17.5849 19.758 16.4743 19.758C16.1476 19.758 15.7836 19.7347 15.3823 19.688C15.2889 19.6787 15.2423 19.618 15.2423 19.506L15.2983 18.064C15.2983 17.9427 15.3636 17.8913 15.4943 17.91C15.8303 17.966 16.1383 17.994 16.4183 17.994C17.0156 17.994 17.4729 17.8633 17.7903 17.602C18.1169 17.3407 18.2803 16.9207 18.2803 16.342C18.2803 16.314 18.2709 16.3 18.2523 16.3C18.2336 16.2907 18.2149 16.2953 18.1963 16.314C17.8416 16.6967 17.3236 16.888 16.6423 16.888C16.0356 16.888 15.4756 16.7433 14.9623 16.454C14.4583 16.1553 14.0989 15.6793 13.8843 15.026C13.7443 14.5967 13.6743 14.0413 13.6743 13.36C13.6743 12.632 13.7583 12.0393 13.9263 11.582C14.1223 11.0127 14.4536 10.5553 14.9203 10.21C15.3869 9.86467 15.9283 9.692 16.5443 9.692C17.2629 9.692 17.8136 9.90667 18.1963 10.336C18.2149 10.3547 18.2336 10.364 18.2523 10.364C18.2709 10.3547 18.2803 10.336 18.2803 10.308V9.972ZM18.1683 14.494C18.2429 14.214 18.2803 13.8313 18.2803 13.346C18.2803 13.0567 18.2709 12.8327 18.2523 12.674C18.2336 12.5153 18.2009 12.366 18.1543 12.226C18.0703 11.974 17.9303 11.7733 17.7343 11.624C17.5383 11.4653 17.2956 11.386 17.0063 11.386C16.7263 11.386 16.4883 11.4653 16.2923 11.624C16.0963 11.7733 15.9516 11.974 15.8583 12.226C15.7276 12.506 15.6623 12.884 15.6623 13.36C15.6623 13.8827 15.7183 14.256 15.8303 14.48C15.9143 14.732 16.0589 14.9373 16.2643 15.096C16.4789 15.2453 16.7309 15.32 17.0203 15.32C17.3189 15.32 17.5663 15.2453 17.7623 15.096C17.9583 14.9373 18.0936 14.7367 18.1683 14.494Z" fill="#888888"/>
</svg>
