<svg width="24" height="24" viewBox="0 0 24 24" fill="none" xmlns="http://www.w3.org/2000/svg">
<path d="M9.58594 17V16.1387L10.3379 16.0088L9.68164 14.1768H5.69629L5.01953 16.0088L5.77148 16.1387V17H2.9209V16.1387L3.65918 16.0361L7.13867 7.04688H8.29395L11.7119 16.0361L12.4434 16.1387V17H9.58594ZM7.68555 8.77637L7.60352 9.00195L6.11328 13.0488H9.27148L7.80859 9.00195L7.72656 8.77637H7.68555ZM20.3867 9.60352V10.4648L19.4707 10.6631V16.9043C19.4707 17.5469 19.3522 18.096 19.1152 18.5518C18.8783 19.012 18.5296 19.3652 18.0693 19.6113C17.609 19.862 17.0508 19.9873 16.3945 19.9873C16.0391 19.9873 15.654 19.9372 15.2393 19.8369C14.8245 19.7412 14.46 19.609 14.1455 19.4404L14.4941 18.3945C14.7448 18.5267 15.041 18.6361 15.3828 18.7227C15.7246 18.8092 16.0573 18.8525 16.3809 18.8525C16.9824 18.8525 17.4222 18.6839 17.7002 18.3467C17.9827 18.0094 18.124 17.5286 18.124 16.9043V16.2002C17.6318 16.8291 16.9551 17.1436 16.0938 17.1436C15.4922 17.1436 14.9727 16.9932 14.5352 16.6924C14.0977 16.3962 13.7604 15.9814 13.5234 15.4482C13.291 14.9105 13.1748 14.2884 13.1748 13.582V13.4385C13.1748 12.6364 13.2933 11.9414 13.5303 11.3535C13.7627 10.7565 14.0977 10.2939 14.5352 9.96582C14.9727 9.63314 15.4967 9.4668 16.1074 9.4668C17.0234 9.4668 17.7253 9.82227 18.2129 10.5332L18.3359 9.60352H20.3867ZM18.124 14.9902V11.5859C17.9508 11.2715 17.7253 11.0231 17.4473 10.8408C17.1693 10.654 16.8343 10.5605 16.4424 10.5605C16.014 10.5605 15.6585 10.6836 15.376 10.9297C15.0889 11.1758 14.8747 11.5153 14.7334 11.9482C14.5921 12.3766 14.5215 12.8734 14.5215 13.4385V13.582C14.5215 14.3249 14.6787 14.9219 14.9932 15.373C15.3076 15.8242 15.7861 16.0498 16.4287 16.0498C16.8343 16.0498 17.1738 15.9587 17.4473 15.7764C17.7207 15.5895 17.9463 15.3275 18.124 14.9902Z" fill="#888888"/>
</svg>
