<svg width="24" height="24" viewBox="0 0 24 24" fill="none" xmlns="http://www.w3.org/2000/svg">
<path d="M6.64746 16L8.52051 6.19727H10.1064L11.9795 16H10.8926L10.5098 14.0244H8.03516L7.65234 16H6.64746ZM8.17188 13.0879H10.3594L9.25195 7.43457L8.17188 13.0879ZM12.752 13.6348V8.56934C12.752 7.80371 12.9342 7.20215 13.2988 6.76465C13.668 6.32259 14.2171 6.10156 14.9463 6.10156C15.68 6.10156 16.2314 6.32259 16.6006 6.76465C16.9743 7.20215 17.1611 7.80371 17.1611 8.56934V9.40332H16.1221V8.50781C16.1221 7.56445 15.7393 7.09277 14.9736 7.09277C14.5908 7.09277 14.3037 7.21582 14.1123 7.46191C13.9209 7.70801 13.8252 8.05664 13.8252 8.50781V13.6895C13.8252 14.1406 13.9209 14.4893 14.1123 14.7354C14.3037 14.9814 14.5908 15.1045 14.9736 15.1045C15.7393 15.1045 16.1221 14.6328 16.1221 13.6895V11.7275H15.1172V10.75H17.1611V13.6348C17.1611 14.4004 16.9743 15.002 16.6006 15.4395C16.2314 15.877 15.68 16.0957 14.9463 16.0957C14.2171 16.0957 13.668 15.877 13.2988 15.4395C12.9342 15.002 12.752 14.4004 12.752 13.6348Z" fill="#333333"/>
</svg>
