<svg width="24" height="24" viewBox="0 0 24 24" fill="none" xmlns="http://www.w3.org/2000/svg">
<path d="M6.5791 17L8.14453 7.19727H10.4004L11.9658 17H10.4141L10.1475 15.2227H8.25391L7.9873 17H6.5791ZM8.45215 13.8896H9.93555L9.19727 8.93359L8.45215 13.8896ZM12.5537 14.6484V9.54883C12.5537 8.76042 12.7497 8.1543 13.1416 7.73047C13.5335 7.30208 14.1032 7.08789 14.8506 7.08789C15.598 7.08789 16.1676 7.30208 16.5596 7.73047C16.9515 8.1543 17.1475 8.76042 17.1475 9.54883V10.5059H15.6914V9.45312C15.6914 8.81055 15.4271 8.48926 14.8984 8.48926C14.3652 8.48926 14.0986 8.81055 14.0986 9.45312V14.7441C14.0986 15.3822 14.3652 15.7012 14.8984 15.7012C15.4271 15.7012 15.6914 15.3822 15.6914 14.7441V12.9395H14.9941V11.5381H17.1475V14.6484C17.1475 15.4368 16.9515 16.0452 16.5596 16.4736C16.1676 16.8975 15.598 17.1094 14.8506 17.1094C14.1032 17.1094 13.5335 16.8975 13.1416 16.4736C12.7497 16.0452 12.5537 15.4368 12.5537 14.6484Z" fill="#888888"/>
</svg>
