<svg width="24" height="24" viewBox="0 0 24 24" fill="none" xmlns="http://www.w3.org/2000/svg">
<path d="M4.11702 17.182C3.82768 17.182 3.58502 17.098 3.38902 16.93C3.20235 16.762 3.09035 16.552 3.05302 16.3L3.71102 15.992C3.73902 16.104 3.79035 16.202 3.86502 16.286C3.93968 16.3607 4.02835 16.398 4.13102 16.398C4.24302 16.398 4.34102 16.3607 4.42502 16.286C4.51835 16.202 4.61168 16.0713 4.70502 15.894L9.31102 7.298H9.59102L12.265 17H11.411L10.529 13.822H6.66502L5.30702 16.44C5.17635 16.6733 5.00368 16.8553 4.78902 16.986C4.57435 17.1167 4.35035 17.182 4.11702 17.182ZM10.305 13.038L9.33902 9.272L9.26902 8.712L9.05902 9.272L7.09902 13.038H10.305ZM16.3225 20.906C15.7905 20.906 15.3472 20.7333 14.9925 20.388C14.6472 20.0427 14.4745 19.604 14.4745 19.072C14.4745 18.2413 14.8152 17.5693 15.4965 17.056C14.9085 16.916 14.4418 16.5753 14.0965 16.034C13.7605 15.4927 13.5925 14.8347 13.5925 14.06C13.5925 13.8453 13.6065 13.626 13.6345 13.402C13.7278 12.6927 13.9472 12.072 14.2925 11.54C14.6378 10.9987 15.0812 10.5833 15.6225 10.294C16.1732 9.99533 16.7798 9.846 17.4425 9.846C17.7972 9.846 18.0538 9.86 18.2125 9.888L19.0245 9.986H19.8085L18.6605 18.652C18.5672 19.3333 18.3058 19.8793 17.8765 20.29C17.4565 20.7007 16.9385 20.906 16.3225 20.906ZM16.0425 16.342C16.4718 16.342 16.9012 16.1693 17.3305 15.824C17.6198 15.628 17.8625 15.404 18.0585 15.152C18.2638 14.8907 18.3758 14.6573 18.3945 14.452L18.8985 10.728L17.6665 10.658H17.2325C16.7752 10.658 16.3458 10.784 15.9445 11.036C15.5432 11.288 15.2072 11.6333 14.9365 12.072C14.6752 12.5107 14.5072 13.0053 14.4325 13.556C14.4045 13.7333 14.3905 13.9107 14.3905 14.088C14.3905 14.7413 14.5445 15.2827 14.8525 15.712C15.1605 16.132 15.5572 16.342 16.0425 16.342ZM16.4065 20.094C16.7798 20.094 17.0925 19.9587 17.3445 19.688C17.6058 19.4173 17.7785 19.0393 17.8625 18.554L18.2265 15.88C18.2078 15.8987 18.1285 15.9967 17.9885 16.174C17.8578 16.342 17.7085 16.496 17.5405 16.636C17.4005 16.7387 17.1718 16.8833 16.8545 17.07C16.6305 17.1913 16.4298 17.3127 16.2525 17.434C15.7205 17.7233 15.4125 18.1853 15.3285 18.82C15.3192 18.8667 15.3145 18.932 15.3145 19.016C15.3145 19.3333 15.4172 19.59 15.6225 19.786C15.8278 19.9913 16.0892 20.094 16.4065 20.094Z" fill="#888888"/>
</svg>
