<svg width="24" height="24" viewBox="0 0 24 24" fill="none" xmlns="http://www.w3.org/2000/svg">
<path d="M6.9209 16C6.85254 16 6.81836 15.9339 6.81836 15.8018V15.6855C6.81836 15.6263 6.82064 15.5876 6.8252 15.5693L8.36328 6.51172C8.39974 6.29297 8.48405 6.17904 8.61621 6.16992H10.0039C10.1315 6.17904 10.2135 6.29297 10.25 6.51172L11.7607 15.5693C11.7607 15.583 11.763 15.6081 11.7676 15.6445C11.7767 15.681 11.7812 15.7129 11.7812 15.7402C11.7858 15.7676 11.7881 15.7904 11.7881 15.8086C11.7881 15.9362 11.7493 16 11.6719 16H10.5439C10.4346 16 10.3639 15.9066 10.332 15.7197L10.0791 13.9766C10.0654 13.8763 10.0404 13.8262 10.0039 13.8262H8.34961C8.31771 13.8262 8.29264 13.8786 8.27441 13.9834L7.9873 15.7129C7.96908 15.8268 7.94629 15.9043 7.91895 15.9453C7.8916 15.9818 7.85059 16 7.7959 16H6.9209ZM8.54785 12.9717H9.94238C9.97428 12.9717 9.99023 12.9307 9.99023 12.8486C9.99023 12.8213 9.98568 12.8008 9.97656 12.7871L9.2998 7.5166C9.29525 7.4847 9.28841 7.46875 9.2793 7.46875C9.26562 7.46875 9.25651 7.48242 9.25195 7.50977L8.45215 12.7803C8.44759 12.8122 8.44531 12.8327 8.44531 12.8418C8.44531 12.9284 8.47949 12.9717 8.54785 12.9717ZM14.3721 12.4863C14.5452 12.7507 14.7731 12.8828 15.0557 12.8828C15.3382 12.8828 15.5524 12.7529 15.6982 12.4932C15.8486 12.2334 15.9238 11.8757 15.9238 11.4199C15.9238 10.9414 15.8372 10.5518 15.6641 10.251C15.4954 9.94564 15.2721 9.79297 14.9941 9.79297C14.7253 9.79297 14.5111 9.93424 14.3516 10.2168C14.1966 10.4948 14.1191 10.8685 14.1191 11.3379C14.1191 11.8346 14.2035 12.2174 14.3721 12.4863ZM14.9805 17.3809C15.4316 17.3809 15.7712 17.2829 15.999 17.0869C16.2269 16.8955 16.3408 16.6198 16.3408 16.2598C16.3408 15.9635 16.2588 15.7676 16.0947 15.6719C15.9352 15.5762 15.7074 15.5283 15.4111 15.5283H14.6318C14.5908 15.5283 14.5339 15.5853 14.4609 15.6992C14.388 15.8086 14.3197 15.9567 14.2559 16.1436C14.1921 16.335 14.1602 16.5173 14.1602 16.6904C14.1602 17.1507 14.4336 17.3809 14.9805 17.3809ZM14.8848 18.0986C14.3197 18.0986 13.8822 17.9984 13.5723 17.7979C13.2624 17.5973 13.1074 17.3148 13.1074 16.9502C13.1074 16.5309 13.3011 16.0319 13.6885 15.4531C13.7067 15.4303 13.7158 15.3984 13.7158 15.3574C13.7158 15.3073 13.7021 15.2731 13.6748 15.2549C13.6611 15.2503 13.6224 15.2367 13.5586 15.2139C13.4993 15.1865 13.4629 15.1706 13.4492 15.166C13.4355 15.1615 13.4036 15.1478 13.3535 15.125C13.3034 15.1022 13.2715 15.0863 13.2578 15.0771C13.2487 15.0635 13.2236 15.0452 13.1826 15.0225C13.1462 14.9951 13.1234 14.9723 13.1143 14.9541C13.1051 14.9313 13.0892 14.904 13.0664 14.8721C13.0436 14.8356 13.0277 14.8014 13.0186 14.7695C13.014 14.7331 13.0072 14.6921 12.998 14.6465C12.9935 14.6009 12.9912 14.5531 12.9912 14.5029C12.9912 14.2887 13.0208 14.0951 13.0801 13.9219C13.1393 13.7441 13.1917 13.6211 13.2373 13.5527C13.2874 13.4798 13.374 13.3682 13.4971 13.2178C13.529 13.1722 13.5449 13.1289 13.5449 13.0879C13.5449 13.0378 13.5312 12.9967 13.5039 12.9648C13.3581 12.8053 13.2282 12.5843 13.1143 12.3018C13.0003 12.0192 12.9434 11.7161 12.9434 11.3926C12.9434 10.6862 13.1097 10.1188 13.4424 9.69043C13.7796 9.25749 14.2764 9.04102 14.9326 9.04102C15.0511 9.04102 15.2106 9.06608 15.4111 9.11621C15.4567 9.12533 15.4886 9.12305 15.5068 9.10938C15.5251 9.0957 15.5365 9.0638 15.541 9.01367L15.6094 7.25C15.6139 7.15885 15.6276 7.09049 15.6504 7.04492C15.6732 6.99935 15.696 6.97201 15.7188 6.96289C15.7415 6.95378 15.7757 6.94922 15.8213 6.94922H16.375C16.4069 6.94922 16.432 6.98568 16.4502 7.05859C16.4684 7.13151 16.4707 7.19303 16.457 7.24316L16.0059 9.18457C15.9876 9.26204 15.9854 9.31673 15.999 9.34863C16.0173 9.38053 16.056 9.41471 16.1152 9.45117C16.7077 9.88867 17.0039 10.5335 17.0039 11.3857C17.0039 12.1012 16.8444 12.6549 16.5254 13.0469C16.2064 13.4388 15.7301 13.6348 15.0967 13.6348C14.7822 13.6348 14.4906 13.5573 14.2217 13.4023C14.1579 13.4479 14.0941 13.5436 14.0303 13.6895C13.9665 13.8307 13.9346 13.9811 13.9346 14.1406C13.9346 14.5234 14.1715 14.7148 14.6455 14.7148H15.377C16.0605 14.7148 16.5527 14.8311 16.8535 15.0635C17.1543 15.2959 17.3047 15.665 17.3047 16.1709C17.3047 16.4717 17.2523 16.7383 17.1475 16.9707C17.0426 17.2077 16.9082 17.3945 16.7441 17.5312C16.5846 17.668 16.3932 17.7796 16.1699 17.8662C15.9512 17.9574 15.737 18.0189 15.5273 18.0508C15.3223 18.0827 15.1081 18.0986 14.8848 18.0986Z" fill="#333333"/>
</svg>
