<svg width="24" height="24" viewBox="0 0 24 24" fill="none" xmlns="http://www.w3.org/2000/svg">
<path d="M12.334 15.9043C12.334 15.9681 12.2428 16 12.0605 16C11.8646 16 11.5684 15.9909 11.1719 15.9727C10.7754 15.9544 10.4792 15.9453 10.2832 15.9453C10.0872 15.9453 9.79557 15.9544 9.4082 15.9727C9.02083 15.9909 8.72917 16 8.5332 16C8.41471 16 8.34635 15.9316 8.32812 15.7949C8.32812 15.7995 8.32812 15.6878 8.32812 15.46C8.32812 15.2777 8.24154 15.1865 8.06836 15.1865C7.00651 15.1865 6.38444 15.2161 6.20215 15.2754C6.01986 15.3301 5.9082 15.4714 5.86719 15.6992C5.83073 15.8997 5.75781 16 5.64844 16C5.46159 16 5.18132 15.9909 4.80762 15.9727C4.43392 15.9544 4.15365 15.9453 3.9668 15.9453C3.78451 15.9453 3.50651 15.9544 3.13281 15.9727C2.76367 15.9909 2.48796 16 2.30566 16C2.1735 16 2.10742 15.943 2.10742 15.8291C2.10742 15.6924 3.18522 12.5843 5.34082 6.50488C5.38184 6.39095 5.41829 6.32259 5.4502 6.2998C5.4821 6.27246 5.55273 6.25879 5.66211 6.25879C5.82161 6.25879 6.05632 6.2793 6.36621 6.32031C6.68066 6.36133 6.91764 6.38184 7.07715 6.38184C7.71973 6.38184 8.16862 6.34993 8.42383 6.28613C8.47852 6.2679 8.51725 6.25879 8.54004 6.25879C8.61751 6.25879 8.70866 6.33626 8.81348 6.49121C8.85905 6.55957 9.0459 6.96745 9.37402 7.71484C9.63379 8.28906 10.0029 9.15723 10.4814 10.3193C10.7093 10.9255 11.0146 11.8438 11.3975 13.0742C11.7848 14.3047 12.0902 15.2184 12.3135 15.8154C12.3271 15.8564 12.334 15.8861 12.334 15.9043ZM7.77441 11.4951C7.77441 11.1351 7.57389 10.8343 7.17285 10.5928C6.77181 10.8844 6.57129 11.1852 6.57129 11.4951C6.57129 11.6546 6.63053 11.7959 6.74902 11.9189C6.87207 12.0374 7.01335 12.0967 7.17285 12.0967C7.33691 12.0967 7.47819 12.0374 7.59668 11.9189C7.71517 11.7959 7.77441 11.6546 7.77441 11.4951ZM20.4482 9.46484C20.4482 9.80664 20.4368 10.3193 20.4141 11.0029C20.3958 11.6865 20.3867 12.1992 20.3867 12.541C20.3867 12.6914 20.389 12.9193 20.3936 13.2246C20.3981 13.5254 20.4004 13.751 20.4004 13.9014C20.4004 15.141 20.2454 16 19.9355 16.4785C19.2747 17.4948 18.0238 18.0029 16.1826 18.0029C15.736 18.0029 15.18 17.9482 14.5146 17.8389C13.6123 17.693 13.1611 17.5062 13.1611 17.2783C13.2842 16.7633 13.4186 16.1868 13.5645 15.5488C13.6055 15.3757 13.6647 15.2891 13.7422 15.2891C13.7559 15.2891 13.7764 15.2936 13.8037 15.3027C14.5693 15.5078 15.18 15.6104 15.6357 15.6104C15.8818 15.6104 16.1279 15.5785 16.374 15.5146C16.7249 15.4326 16.9004 15.3096 16.9004 15.1455V14.8516C16.5358 15.0202 16.0778 15.1045 15.5264 15.1045C14.6468 15.1045 13.929 14.8265 13.373 14.2705C12.8216 13.7145 12.5459 12.999 12.5459 12.124C12.5459 11.249 12.8079 10.5199 13.332 9.93652C13.8743 9.3304 14.5785 9.02734 15.4443 9.02734C15.9137 9.02734 16.3011 9.15723 16.6064 9.41699C16.7386 9.55827 16.8708 9.69727 17.0029 9.83398C17.0212 9.80664 17.0303 9.76335 17.0303 9.7041C17.0303 9.64486 17.0212 9.55599 17.0029 9.4375C16.9847 9.31901 16.9756 9.23014 16.9756 9.1709C16.9756 9.08431 17.0052 9.04102 17.0645 9.04102C17.1647 9.04102 17.7275 9.08203 18.7529 9.16406C19.7783 9.24154 20.3024 9.28483 20.3252 9.29395C20.4072 9.32129 20.4482 9.37826 20.4482 9.46484ZM17.1396 12.2334C17.1396 12.0648 17.0804 11.9235 16.9619 11.8096C16.8434 11.6911 16.6999 11.6318 16.5312 11.6318C16.3672 11.6318 16.2259 11.6911 16.1074 11.8096C15.9889 11.9235 15.9297 12.0648 15.9297 12.2334C15.9297 12.402 15.9889 12.5456 16.1074 12.6641C16.2259 12.778 16.3672 12.835 16.5312 12.835C16.6953 12.835 16.8366 12.7757 16.9551 12.6572C17.0781 12.5387 17.1396 12.3975 17.1396 12.2334Z" fill="#333333"/>
</svg>
