<svg width="24" height="24" viewBox="0 0 24 24" fill="none" xmlns="http://www.w3.org/2000/svg">
<path d="M6.37336 10.3765C6.4167 10.2768 6.4622 10.2097 6.50986 10.175C6.56186 10.1403 6.61386 10.1988 6.66586 10.3505L7.34186 12.2485C7.37653 12.3395 7.3917 12.4283 7.38736 12.515C7.38736 12.6017 7.31153 12.645 7.15986 12.645H5.78836C5.61503 12.645 5.53053 12.5995 5.53486 12.5085C5.54353 12.4132 5.56953 12.3178 5.61286 12.2225L6.37336 10.3765ZM0.984863 16.6295C0.984863 16.8115 1.01086 16.9198 1.06286 16.9545C1.11486 16.9848 1.23186 17 1.41386 17H5.26836C5.36803 17 5.43736 16.987 5.47636 16.961C5.51536 16.935 5.53486 16.8678 5.53486 16.7595V15.5115C5.53486 15.4075 5.52403 15.3382 5.50236 15.3035C5.48503 15.2645 5.42436 15.245 5.32036 15.245H4.64436C4.52736 15.245 4.4602 15.2255 4.44286 15.1865C4.42553 15.1432 4.43853 15.0695 4.48186 14.9655L4.69636 14.4325C4.73536 14.3372 4.78086 14.2873 4.83286 14.283C4.88486 14.2743 4.9737 14.27 5.09936 14.27H7.84236C7.96803 14.27 8.0417 14.2852 8.06336 14.3155C8.08936 14.3415 8.11753 14.3978 8.14786 14.4845L8.30386 14.9265C8.35153 15.0522 8.35803 15.1367 8.32336 15.18C8.2887 15.2233 8.17603 15.245 7.98536 15.245H7.24436C7.12303 15.245 7.04503 15.2602 7.01036 15.2905C6.98003 15.3208 6.96486 15.3988 6.96486 15.5245V16.6815C6.96486 16.8115 6.9757 16.8982 6.99736 16.9415C7.02336 16.9805 7.10136 17 7.23136 17H13.0424C13.168 17 13.2482 16.9848 13.2829 16.9545C13.3175 16.9198 13.3349 16.8375 13.3349 16.7075V15.4985C13.3349 15.3728 13.3045 15.2992 13.2439 15.2775C13.1875 15.2558 13.103 15.245 12.9904 15.245H12.1324C11.946 15.245 11.8377 15.2103 11.8074 15.141C11.7814 15.0673 11.7445 14.9698 11.6969 14.8485L8.70036 7.3345C8.65703 7.2305 8.61153 7.159 8.56386 7.12C8.52053 7.07667 8.42303 7.055 8.27136 7.055H6.32136C6.17403 7.055 6.0787 7.06583 6.03536 7.0875C5.99636 7.10483 5.9552 7.1655 5.91186 7.2695L2.61636 15.0045C2.58603 15.0738 2.5622 15.1323 2.54486 15.18C2.52753 15.2233 2.4647 15.245 2.35636 15.245H1.28386C1.16253 15.245 1.08236 15.271 1.04336 15.323C1.00436 15.3707 0.984863 15.4508 0.984863 15.5635V16.6295ZM16.2949 12.385C16.2949 12.151 16.3122 11.9408 16.3469 11.7545C16.3816 11.5682 16.4401 11.4208 16.5224 11.3125C16.6047 11.2042 16.7196 11.15 16.8669 11.15C17.0142 11.15 17.1291 11.2042 17.2114 11.3125C17.2937 11.4208 17.3522 11.5682 17.3869 11.7545C17.4216 11.9408 17.4389 12.151 17.4389 12.385C17.4389 12.619 17.4216 12.8292 17.3869 13.0155C17.3522 13.2018 17.2937 13.3492 17.2114 13.4575C17.1291 13.5658 17.0142 13.62 16.8669 13.62C16.7196 13.62 16.6047 13.5658 16.5224 13.4575C16.4401 13.3492 16.3816 13.2018 16.3469 13.0155C16.3122 12.8292 16.2949 12.619 16.2949 12.385ZM13.6299 12.385C13.6299 12.7923 13.7274 13.152 13.9224 13.464C14.1217 13.7717 14.3839 14.0273 14.7089 14.231C14.7782 14.2743 14.8107 14.3133 14.8064 14.348C14.8064 14.3783 14.7631 14.4152 14.6764 14.4585C14.3427 14.6145 14.0784 14.8095 13.8834 15.0435C13.6884 15.2732 13.5909 15.5613 13.5909 15.908C13.5909 16.1723 13.6581 16.4063 13.7924 16.61C13.9311 16.8093 14.1109 16.9848 14.3319 17.1365C14.4056 17.1885 14.4424 17.2297 14.4424 17.26C14.4467 17.2903 14.4012 17.3228 14.3059 17.3575C13.9116 17.5048 13.5822 17.6912 13.3179 17.9165C13.0492 18.1462 12.9149 18.4257 12.9149 18.755C12.9149 19.3053 13.2572 19.7235 13.9419 20.0095C14.6266 20.2998 15.5626 20.445 16.7499 20.445C17.5299 20.445 18.2341 20.3518 18.8624 20.1655C19.4907 19.9792 19.9891 19.691 20.3574 19.301C20.7257 18.9153 20.9099 18.417 20.9099 17.806C20.9099 17.429 20.8536 17.0953 20.7409 16.805C20.6282 16.5103 20.4657 16.2612 20.2534 16.0575C20.0411 15.8538 19.7854 15.7 19.4864 15.596C19.1874 15.492 18.8516 15.44 18.4789 15.44C18.3879 15.44 18.2384 15.4422 18.0304 15.4465C17.8224 15.4465 17.5971 15.4465 17.3544 15.4465C17.1117 15.4465 16.8886 15.4487 16.6849 15.453C16.4812 15.453 16.3382 15.453 16.2559 15.453C16.0306 15.453 15.8832 15.4162 15.8139 15.3425C15.7446 15.2645 15.7099 15.18 15.7099 15.089C15.7099 15.0283 15.7186 14.9742 15.7359 14.9265C15.7532 14.8788 15.7836 14.8333 15.8269 14.79C15.8616 14.7553 15.8962 14.7315 15.9309 14.7185C15.9656 14.7055 16.0132 14.7033 16.0739 14.712C16.2039 14.7337 16.3339 14.7532 16.4639 14.7705C16.5939 14.7835 16.7282 14.79 16.8669 14.79C17.4346 14.79 17.9524 14.699 18.4204 14.517C18.8927 14.3307 19.2697 14.0598 19.5514 13.7045C19.8331 13.3448 19.9739 12.905 19.9739 12.385C19.9739 12.1293 19.9327 11.8823 19.8504 11.644C19.8201 11.5617 19.8092 11.5032 19.8179 11.4685C19.8266 11.4295 19.8569 11.3775 19.9089 11.3125C20.0172 11.1738 20.1321 11.0698 20.2534 11.0005C20.3791 10.9268 20.4766 10.89 20.5459 10.89C20.6066 10.89 20.6369 10.916 20.6369 10.968C20.6369 11.0157 20.6066 11.059 20.5459 11.098C20.4852 11.1327 20.4246 11.1933 20.3639 11.28C20.3032 11.3667 20.2729 11.5053 20.2729 11.696C20.2729 11.891 20.3661 12.0795 20.5524 12.2615C20.7431 12.4392 21.0096 12.528 21.3519 12.528C21.6769 12.528 21.9694 12.424 22.2294 12.216C22.4937 12.0037 22.6259 11.6743 22.6259 11.228C22.6259 10.9593 22.5522 10.7318 22.4049 10.5455C22.2576 10.3592 22.0647 10.2183 21.8264 10.123C21.5924 10.0277 21.3432 9.98 21.0789 9.98C20.8016 9.98 20.5069 10.0277 20.1949 10.123C19.8872 10.2183 19.6056 10.37 19.3499 10.578C19.2676 10.643 19.2134 10.6733 19.1874 10.669C19.1657 10.6647 19.1116 10.6343 19.0249 10.578C18.7476 10.383 18.4226 10.2357 18.0499 10.136C17.6772 10.032 17.2829 9.98 16.8669 9.98C16.2992 9.98 15.7684 10.0732 15.2744 10.2595C14.7847 10.4415 14.3882 10.7123 14.0849 11.072C13.7816 11.4273 13.6299 11.865 13.6299 12.385ZM18.6479 18.313C18.6479 18.495 18.5829 18.6445 18.4529 18.7615C18.3229 18.8828 18.1322 18.9717 17.8809 19.028C17.6296 19.0887 17.3219 19.119 16.9579 19.119C16.4639 19.119 16.0674 19.0648 15.7684 18.9565C15.4694 18.8482 15.3199 18.638 15.3199 18.326C15.3199 18.2263 15.3372 18.131 15.3719 18.04C15.4109 17.949 15.4716 17.8623 15.5539 17.78C15.5972 17.7367 15.6449 17.7172 15.6969 17.7215C15.7489 17.7258 15.8096 17.7323 15.8789 17.741C15.9526 17.7497 16.0241 17.7562 16.0934 17.7605C16.1671 17.7648 16.2386 17.767 16.3079 17.767C16.4032 17.767 16.5289 17.767 16.6849 17.767C16.8452 17.767 17.0034 17.767 17.1594 17.767C17.3154 17.767 17.4389 17.767 17.5299 17.767C17.9546 17.767 18.2471 17.8017 18.4074 17.871C18.5677 17.9447 18.6479 18.092 18.6479 18.313Z" fill="#888888"/>
</svg>
