<svg width="24" height="24" viewBox="0 0 24 24" fill="none" xmlns="http://www.w3.org/2000/svg">
<path d="M6.99227 8.166C7.04361 8.04467 7.08094 7.98633 7.10427 7.991C7.12761 7.99567 7.16494 8.068 7.21627 8.208L8.95227 12.828C9.00827 12.9773 9.03161 13.0683 9.02227 13.101C9.01294 13.1337 8.90094 13.15 8.68627 13.15H5.14427C5.01827 13.15 4.94594 13.1383 4.92727 13.115C4.90861 13.0917 4.91561 13.038 4.94827 12.954L6.99227 8.166ZM1.28027 16.706C1.28027 16.846 1.30594 16.93 1.35727 16.958C1.40861 16.986 1.49961 17 1.63027 17H4.97627C5.08827 17 5.15361 16.9907 5.17227 16.972C5.19094 16.9533 5.20027 16.888 5.20027 16.776V16.44C5.20027 16.3513 5.18394 16.2953 5.15127 16.272C5.11861 16.244 5.06027 16.23 4.97627 16.23H3.91927C3.76527 16.23 3.67894 16.202 3.66027 16.146C3.64161 16.09 3.65561 16.006 3.70227 15.894L4.42327 14.2C4.46994 14.0927 4.51894 14.0203 4.57027 13.983C4.62627 13.941 4.73361 13.92 4.89227 13.92H8.95227C9.17627 13.92 9.30927 13.9433 9.35127 13.99C9.39327 14.0367 9.44461 14.1393 9.50527 14.298L10.1353 15.978C10.1586 16.0433 10.1726 16.1017 10.1773 16.153C10.1819 16.2043 10.1283 16.23 10.0163 16.23H8.95227C8.86361 16.23 8.79827 16.244 8.75627 16.272C8.71894 16.2953 8.70027 16.356 8.70027 16.454V16.776C8.70027 16.8787 8.72127 16.9417 8.76327 16.965C8.80994 16.9883 8.87761 17 8.96627 17H13.0963C13.2036 17 13.2666 16.986 13.2853 16.958C13.3086 16.93 13.3203 16.8623 13.3203 16.755V16.447C13.3203 16.3537 13.3109 16.2953 13.2923 16.272C13.2736 16.244 13.2176 16.23 13.1243 16.23H12.0183C11.8596 16.23 11.7663 16.2067 11.7383 16.16C11.7103 16.1133 11.6729 16.034 11.6263 15.922L7.82527 6.374C7.81127 6.33667 7.79027 6.31333 7.76227 6.304C7.73894 6.29467 7.69927 6.29 7.64327 6.29H7.08327C7.03661 6.29 7.00394 6.29467 6.98527 6.304C6.96661 6.30867 6.95027 6.32733 6.93627 6.36L2.78527 15.95C2.74327 16.048 2.69894 16.1203 2.65227 16.167C2.60561 16.209 2.50761 16.23 2.35827 16.23H1.47627C1.40161 16.23 1.35027 16.244 1.32227 16.272C1.29427 16.2953 1.28027 16.342 1.28027 16.412V16.706ZM15.3902 12.17C15.3902 11.8247 15.4345 11.498 15.5232 11.19C15.6119 10.8773 15.7612 10.6253 15.9712 10.434C16.1859 10.238 16.4775 10.14 16.8462 10.14C17.2149 10.14 17.5042 10.238 17.7142 10.434C17.9289 10.6253 18.0805 10.8773 18.1692 11.19C18.2579 11.498 18.3022 11.8247 18.3022 12.17C18.3022 12.5153 18.2579 12.8443 18.1692 13.157C18.0805 13.465 17.9289 13.717 17.7142 13.913C17.5042 14.1043 17.2149 14.2 16.8462 14.2C16.4775 14.2 16.1859 14.1043 15.9712 13.913C15.7612 13.717 15.6119 13.465 15.5232 13.157C15.4345 12.8443 15.3902 12.5153 15.3902 12.17ZM14.0602 12.17C14.0602 12.646 14.1582 13.073 14.3542 13.451C14.5549 13.8243 14.8372 14.1207 15.2012 14.34C15.3039 14.4007 15.3622 14.438 15.3762 14.452C15.3949 14.466 15.3412 14.4987 15.2152 14.55C14.8885 14.6947 14.6295 14.8767 14.4382 15.096C14.2515 15.3153 14.1582 15.558 14.1582 15.824C14.1582 16.118 14.2165 16.3513 14.3332 16.524C14.4545 16.692 14.6155 16.8203 14.8162 16.909C14.9095 16.951 14.9632 16.9767 14.9772 16.986C14.9912 16.9907 14.9515 17.0187 14.8582 17.07C14.5735 17.2287 14.3099 17.4643 14.0672 17.777C13.8292 18.0897 13.7102 18.4607 13.7102 18.89C13.7102 19.4827 14.0089 19.9213 14.6062 20.206C15.2035 20.4953 16.0015 20.64 17.0002 20.64C17.7469 20.64 18.3909 20.5397 18.9322 20.339C19.4782 20.1383 19.8982 19.8513 20.1922 19.478C20.4909 19.1093 20.6402 18.666 20.6402 18.148C20.6402 17.672 20.5655 17.2917 20.4162 17.007C20.2715 16.7223 20.0755 16.51 19.8282 16.37C19.5809 16.23 19.3009 16.1367 18.9882 16.09C18.6755 16.0433 18.3535 16.02 18.0222 16.02C17.9242 16.02 17.8052 16.0223 17.6652 16.027C17.5252 16.027 17.3782 16.027 17.2242 16.027C17.0749 16.027 16.9325 16.0293 16.7972 16.034C16.6665 16.034 16.5569 16.034 16.4682 16.034C16.0855 16.034 15.7635 16.013 15.5022 15.971C15.2409 15.9243 15.1102 15.7727 15.1102 15.516C15.1102 15.3807 15.1895 15.2453 15.3482 15.11C15.5115 14.9747 15.7005 14.858 15.9152 14.76C15.9852 14.7273 16.0459 14.7087 16.0972 14.704C16.1485 14.6993 16.2185 14.704 16.3072 14.718C16.3959 14.732 16.4845 14.7437 16.5732 14.753C16.6619 14.7577 16.7529 14.76 16.8462 14.76C17.4109 14.76 17.9009 14.6527 18.3162 14.438C18.7362 14.2187 19.0605 13.9153 19.2892 13.528C19.5179 13.136 19.6322 12.6833 19.6322 12.17C19.6322 11.68 19.5225 11.2367 19.3032 10.84C19.2799 10.798 19.2729 10.7677 19.2822 10.749C19.2915 10.7257 19.3079 10.6953 19.3312 10.658C19.4759 10.448 19.6322 10.3033 19.8002 10.224C19.9729 10.14 20.1409 10.098 20.3042 10.098C20.4815 10.098 20.5702 10.168 20.5702 10.308C20.5702 10.3827 20.5469 10.4457 20.5002 10.497C20.4582 10.5437 20.4139 10.6043 20.3672 10.679C20.3252 10.749 20.3042 10.8587 20.3042 11.008C20.3042 11.1807 20.3672 11.3277 20.4932 11.449C20.6192 11.5657 20.7802 11.624 20.9762 11.624C21.1862 11.624 21.3612 11.5563 21.5012 11.421C21.6459 11.281 21.7182 11.092 21.7182 10.854C21.7182 10.6113 21.6645 10.3943 21.5572 10.203C21.4545 10.0117 21.2959 9.86 21.0812 9.748C20.8665 9.636 20.5935 9.58 20.2622 9.58C20.0895 9.58 19.8865 9.63367 19.6532 9.741C19.4199 9.84367 19.2005 10.0117 18.9952 10.245C18.9579 10.287 18.9322 10.3103 18.9182 10.315C18.9089 10.3197 18.8832 10.3033 18.8412 10.266C18.5985 10.0467 18.3092 9.87867 17.9732 9.762C17.6372 9.64067 17.2615 9.58 16.8462 9.58C16.2815 9.58 15.7892 9.68967 15.3692 9.909C14.9539 10.1237 14.6319 10.427 14.4032 10.819C14.1745 11.2063 14.0602 11.6567 14.0602 12.17ZM19.6462 18.498C19.6462 18.834 19.5249 19.1117 19.2822 19.331C19.0442 19.5503 18.7385 19.7137 18.3652 19.821C17.9965 19.9283 17.6162 19.982 17.2242 19.982C16.4822 19.982 15.9315 19.842 15.5722 19.562C15.2175 19.282 15.0402 18.904 15.0402 18.428C15.0402 18.274 15.0589 18.078 15.0962 17.84C15.1335 17.602 15.2549 17.3757 15.4602 17.161C15.4882 17.1283 15.5115 17.1073 15.5302 17.098C15.5535 17.0887 15.5932 17.0887 15.6492 17.098C15.8125 17.112 15.9782 17.119 16.1462 17.119C16.3189 17.1237 16.4915 17.126 16.6642 17.126C16.7669 17.126 16.9255 17.126 17.1402 17.126C17.3595 17.126 17.5765 17.126 17.7912 17.126C18.0059 17.126 18.1622 17.126 18.2602 17.126C18.7175 17.126 19.0629 17.259 19.2962 17.525C19.5295 17.7957 19.6462 18.12 19.6462 18.498Z" fill="#888888"/>
</svg>
