<svg width="24" height="24" viewBox="0 0 24 24" fill="none" xmlns="http://www.w3.org/2000/svg">
<path d="M15.4961 15.152C15.7014 14.9747 15.8811 14.9023 16.0351 14.935C16.1891 14.9677 16.2661 15.1193 16.2661 15.39C16.2661 15.4647 16.2474 15.544 16.2101 15.628C16.1728 15.712 16.1308 15.7843 16.0841 15.845C16.0374 15.9057 15.9674 15.9757 15.8741 16.055C15.7808 16.1343 15.7084 16.1927 15.6571 16.23C15.6058 16.2673 15.5264 16.321 15.4191 16.391C15.3118 16.461 15.2488 16.5053 15.2301 16.524C15.0061 16.6733 14.7774 16.7993 14.5441 16.902C14.5068 16.9113 14.4274 16.951 14.3061 17.021C14.1848 17.091 14.0611 17.1587 13.9351 17.224C13.8091 17.2893 13.6621 17.3617 13.4941 17.441C13.3261 17.5203 13.1768 17.5787 13.0461 17.616C12.9154 17.6533 12.7801 17.6813 12.6401 17.7C12.5001 17.7187 12.4021 17.7 12.3461 17.644C11.9914 17.6253 11.5341 17.4527 10.9741 17.126C10.2088 16.6873 9.77944 16.2627 9.68611 15.852C9.60211 15.572 9.50878 15.432 9.40611 15.432C9.31278 15.432 8.79478 15.8193 7.85211 16.594C7.05878 17.2007 6.48244 17.5763 6.12311 17.721C5.76378 17.8657 5.41611 17.84 5.08011 17.644C4.75344 17.4853 4.45244 17.231 4.17711 16.881C3.90178 16.531 3.76411 16.23 3.76411 15.978C3.76411 15.6793 3.84811 15.2267 4.01611 14.62C4.18411 14.0133 4.31478 13.6633 4.40811 13.57C4.52944 13.4393 4.59011 13.2247 4.59011 12.926C4.59011 12.758 4.67178 12.5247 4.83511 12.226C4.99844 11.9273 5.08011 11.6893 5.08011 11.512C5.08011 11.2693 5.13611 11.1107 5.24811 11.036C5.36011 10.9613 5.58411 10.5647 5.92011 9.846C6.25611 9.12733 6.48944 8.53 6.62011 8.054C6.73211 7.662 6.89778 7.30033 7.11711 6.969C7.33644 6.63767 7.49278 6.5 7.58611 6.556C7.67944 6.612 8.11811 6.32267 8.90211 5.688C9.51811 5.17467 10.0268 4.80367 10.4281 4.575C10.8294 4.34633 11.3521 4.12933 11.9961 3.924C12.5561 3.756 12.9061 3.67667 13.0461 3.686C13.1768 3.70467 13.4241 3.86333 13.7881 4.162C14.0401 4.36733 14.2058 4.54 14.2851 4.68C14.3644 4.82 14.4041 5.03467 14.4041 5.324C14.4041 5.772 14.1848 6.51867 13.7461 7.564C13.6341 7.79733 13.4568 8.25933 13.2141 8.95C12.9994 9.64067 12.7801 10.168 12.5561 10.532C12.3694 10.84 12.2388 11.232 12.1641 11.708C12.0988 12.128 12.0101 12.4593 11.8981 12.702C11.8701 12.758 11.7068 13.206 11.4081 14.046C11.2308 14.5127 11.1398 14.8253 11.1351 14.984C11.1304 15.1427 11.1888 15.3387 11.3101 15.572C11.4968 15.9173 11.7114 16.09 11.9541 16.09C12.2341 16.1273 12.5048 16.2627 12.7661 16.496C12.7848 16.5053 12.7988 16.5123 12.8081 16.517C12.8174 16.5217 12.8268 16.531 12.8361 16.545C12.8454 16.559 12.8548 16.566 12.8641 16.566C12.9574 16.5193 13.1138 16.4587 13.3331 16.384C13.5524 16.3093 13.7041 16.2487 13.7881 16.202C14.5068 15.8287 15.0761 15.4787 15.4961 15.152ZM10.3861 11.036C10.7034 10.5413 10.9414 10.056 11.1001 9.58C11.3241 8.908 11.5108 8.45533 11.6601 8.222C11.8188 7.998 11.8981 7.76 11.8981 7.508C11.8981 7.27467 11.9541 7.116 12.0661 7.032C12.1408 6.98533 12.3041 6.738 12.5561 6.29C12.8081 5.842 12.8804 5.57133 12.7731 5.478C12.6658 5.38467 12.4021 5.38933 11.9821 5.492C11.5621 5.59467 11.1981 5.73933 10.8901 5.926C10.5914 6.122 10.2414 6.444 9.84011 6.892C9.43878 7.34 9.23811 7.634 9.23811 7.774C9.23811 7.87667 8.99078 8.21967 8.49611 8.803C8.00144 9.38633 7.75411 9.748 7.75411 9.888C7.75411 10.028 7.56278 10.3687 7.18011 10.91C6.78811 11.4887 6.53611 12.0067 6.42411 12.464C6.27478 12.996 6.15811 13.332 6.07411 13.472C5.98078 13.6773 5.93411 13.85 5.93411 13.99C5.93411 14.1487 5.84078 14.4007 5.65411 14.746C5.49544 15.0633 5.44878 15.285 5.51411 15.411C5.57944 15.537 5.77544 15.6 6.10211 15.6C6.30744 15.6 6.61778 15.4623 7.03311 15.187C7.44844 14.9117 7.74944 14.634 7.93611 14.354C7.97344 14.3353 8.02011 14.284 8.07611 14.2C8.15078 14.0973 8.23011 13.99 8.31411 13.878C8.40744 13.7473 8.49611 13.6307 8.58011 13.528C9.46678 12.3613 10.0688 11.5307 10.3861 11.036ZM22.1074 15.18C22.3127 15.0027 22.4924 14.9303 22.6464 14.963C22.8004 14.9957 22.8774 15.1473 22.8774 15.418C22.8774 15.4927 22.8587 15.572 22.8214 15.656C22.7841 15.74 22.7421 15.8123 22.6954 15.873C22.6487 15.9337 22.5787 16.0037 22.4854 16.083C22.3921 16.1623 22.3197 16.2207 22.2684 16.258C22.2171 16.2953 22.1377 16.349 22.0304 16.419C21.9231 16.489 21.8601 16.5333 21.8414 16.552C21.6174 16.7013 21.3841 16.8227 21.1414 16.916C21.1134 16.9347 21.0061 16.9953 20.8194 17.098C20.6327 17.2007 20.4321 17.3033 20.2174 17.406C20.0027 17.5087 19.8114 17.588 19.6434 17.644C19.4381 17.7933 19.1721 17.9567 18.8454 18.134C18.3601 18.4047 18.0381 18.722 17.8794 19.086C17.8327 19.1793 17.7674 19.3007 17.6834 19.45C17.6087 19.59 17.5201 19.7347 17.4174 19.884C17.3241 20.024 17.2167 20.178 17.0954 20.346C16.9741 20.5233 16.8667 20.682 16.7734 20.822C16.6801 20.962 16.5821 21.0973 16.4794 21.228C16.3767 21.368 16.3021 21.4707 16.2554 21.536C16.1901 21.648 15.9824 21.8137 15.6324 22.033C15.2824 22.2523 14.9301 22.4553 14.5754 22.642C13.8194 23.0153 13.3434 22.8847 13.1474 22.25C13.0634 21.9793 13.0214 21.774 13.0214 21.634C13.0214 21.5593 13.0377 21.4823 13.0704 21.403C13.1031 21.3237 13.1381 21.2513 13.1754 21.186C13.2127 21.1207 13.2664 21.0507 13.3364 20.976C13.4064 20.9013 13.4671 20.8407 13.5184 20.794C13.5697 20.7473 13.6351 20.6867 13.7144 20.612C13.7937 20.5373 13.8521 20.486 13.8894 20.458C14.2441 20.1127 14.7201 19.7813 15.3174 19.464C15.4854 19.3707 15.7327 19.2167 16.0594 19.002C16.4887 18.722 16.7407 18.5633 16.8154 18.526C17.0207 18.414 17.2774 18.1247 17.5854 17.658C17.8934 17.1913 18.0101 16.9207 17.9354 16.846C17.8794 16.7993 17.6367 16.846 17.2074 16.986C16.0594 17.378 15.3267 16.9627 15.0094 15.74C14.9161 15.404 14.9487 14.956 15.1074 14.396C15.2661 13.836 15.4947 13.3367 15.7934 12.898C15.9707 12.646 16.1597 12.4033 16.3604 12.17C16.5611 11.9367 16.7944 11.7057 17.0604 11.477C17.3264 11.2483 17.5971 11.0523 17.8724 10.889C18.1477 10.7257 18.4441 10.6067 18.7614 10.532C19.0787 10.4573 19.3821 10.448 19.6714 10.504C20.0074 10.56 20.2594 10.6907 20.4274 10.896C20.5954 11.1013 20.6817 11.3347 20.6864 11.596C20.6911 11.8573 20.6654 12.1373 20.6094 12.436C20.5067 12.8653 20.3831 13.276 20.2384 13.668C20.0937 14.06 19.9701 14.3167 19.8674 14.438C19.7461 14.5873 19.6854 14.7087 19.6854 14.802C19.6854 14.886 19.5594 15.1707 19.3074 15.656C19.0741 16.1693 18.9574 16.5287 18.9574 16.734C18.9574 16.818 18.9621 16.8833 18.9714 16.93C18.9994 16.8833 19.0997 16.818 19.2724 16.734C19.4451 16.65 19.6551 16.5567 19.9024 16.454C20.1497 16.3513 20.3154 16.2813 20.3994 16.244C21.1181 15.8613 21.6874 15.5067 22.1074 15.18ZM16.6474 19.702C16.8247 19.4033 16.8527 19.254 16.7314 19.254C16.5541 19.254 16.2181 19.4547 15.7234 19.856C15.2287 20.2573 14.7877 20.6797 14.4004 21.123C14.0131 21.5663 13.8614 21.83 13.9454 21.914C14.1414 22.1007 14.5474 21.942 15.1634 21.438C15.7794 20.934 16.2741 20.3553 16.6474 19.702ZM17.8654 15.138C18.3974 14.27 18.6634 13.7847 18.6634 13.682C18.6634 13.4767 18.7334 13.269 18.8734 13.059C19.0134 12.849 19.0974 12.5993 19.1254 12.31C19.1627 12.0393 19.1254 11.8853 19.0134 11.848C18.8921 11.8107 18.6471 11.9063 18.2784 12.135C17.9097 12.3637 17.6647 12.5667 17.5434 12.744C17.5061 12.8 17.4057 12.8957 17.2424 13.031C17.0791 13.1663 16.9087 13.3273 16.7314 13.514C16.5541 13.7007 16.4234 13.8873 16.3394 14.074C16.0314 14.7273 15.9147 15.1987 15.9894 15.488C16.0734 15.8333 16.2181 16.027 16.4234 16.069C16.6287 16.111 16.9274 16.006 17.3194 15.754C17.4967 15.6513 17.6787 15.446 17.8654 15.138Z" fill="#888888"/>
</svg>
