<svg width="24" height="24" viewBox="0 0 24 24" fill="none" xmlns="http://www.w3.org/2000/svg">
<path d="M9.65128 16.438H6.08128L5.21328 19H3.49128L7.07528 9.2H8.67128L12.2553 19H10.5333L9.65128 16.438ZM9.20328 15.122L7.88728 11.314H7.81728L6.52928 15.122H9.20328ZM16.6141 22.052C16.1101 22.052 15.6761 21.982 15.3121 21.842V20.47C15.4054 20.498 15.5594 20.526 15.7741 20.554C15.9888 20.5913 16.1941 20.61 16.3901 20.61C17.0714 20.61 17.5614 20.414 17.8601 20.022C18.1588 19.6393 18.3081 19.154 18.3081 18.566V17.474H18.1961C18.0188 17.8473 17.7341 18.1833 17.3421 18.482C16.9501 18.7713 16.4508 18.916 15.8441 18.916C15.2374 18.916 14.7101 18.762 14.2621 18.454C13.8141 18.1367 13.4688 17.698 13.2261 17.138C12.9834 16.5687 12.8621 15.9153 12.8621 15.178C12.8621 14.4313 12.9834 13.7733 13.2261 13.204C13.4688 12.6347 13.8141 12.196 14.2621 11.888C14.7101 11.5707 15.2374 11.412 15.8441 11.412C16.4694 11.412 16.9781 11.5707 17.3701 11.888C17.7714 12.196 18.0468 12.5367 18.1961 12.91H18.3081V11.622H20.0021V18.566C20.0021 19.0607 19.9088 19.5693 19.7221 20.092C19.5448 20.6147 19.2041 21.072 18.7001 21.464C18.1961 21.856 17.5008 22.052 16.6141 22.052ZM16.4601 17.516C17.0574 17.516 17.5101 17.2827 17.8181 16.816C18.1354 16.34 18.2941 15.7847 18.2941 15.15C18.2941 14.5247 18.1354 13.9787 17.8181 13.512C17.5101 13.0453 17.0574 12.812 16.4601 12.812C15.8534 12.812 15.3914 13.0453 15.0741 13.512C14.7661 13.9693 14.6121 14.5153 14.6121 15.15C14.6121 15.794 14.7661 16.3493 15.0741 16.816C15.3821 17.2827 15.8441 17.516 16.4601 17.516Z" fill="#333333"/>
</svg>
