<svg width="24" height="24" viewBox="0 0 24 24" fill="none" xmlns="http://www.w3.org/2000/svg">
<path d="M9.74961 14.298H5.95561L5.01761 17H3.54761L7.17361 7.2H8.54561L12.1856 17H10.7156L9.74961 14.298ZM9.34361 13.15L7.87361 9.034H7.80361L6.36161 13.15H9.34361ZM16.5588 20.01C16.2601 20.01 16.0314 19.9913 15.8728 19.954C15.7141 19.9167 15.5321 19.8607 15.3268 19.786V18.596C15.4481 18.6333 15.6068 18.666 15.8028 18.694C16.0081 18.7313 16.2088 18.75 16.4048 18.75C17.1141 18.75 17.6321 18.5493 17.9588 18.148C18.2948 17.756 18.4628 17.2427 18.4628 16.608V15.39H18.3508C18.1734 15.7913 17.8748 16.1413 17.4548 16.44C17.0441 16.7387 16.5308 16.888 15.9147 16.888C15.3081 16.888 14.7761 16.734 14.3188 16.426C13.8614 16.1087 13.5068 15.67 13.2548 15.11C13.0121 14.5407 12.8908 13.8873 12.8908 13.15C12.8908 12.4127 13.0121 11.764 13.2548 11.204C13.5068 10.6347 13.8614 10.196 14.3188 9.888C14.7761 9.57067 15.3128 9.412 15.9288 9.412C16.5634 9.412 17.0861 9.57533 17.4968 9.902C17.9074 10.2193 18.1968 10.5787 18.3648 10.98H18.4628V9.622H19.9327V16.608C19.9327 17.112 19.8301 17.6207 19.6248 18.134C19.4288 18.6473 19.0788 19.086 18.5748 19.45C18.0708 19.8233 17.3988 20.01 16.5588 20.01ZM16.4188 15.684C17.0721 15.684 17.5714 15.432 17.9168 14.928C18.2714 14.424 18.4488 13.822 18.4488 13.122C18.4488 12.45 18.2761 11.8667 17.9308 11.372C17.5854 10.8773 17.0814 10.63 16.4188 10.63C15.7561 10.63 15.2521 10.8773 14.9068 11.372C14.5614 11.8573 14.3888 12.4407 14.3888 13.122C14.3888 13.822 14.5614 14.424 14.9068 14.928C15.2614 15.432 15.7654 15.684 16.4188 15.684Z" fill="#888888"/>
</svg>
