<svg width="24" height="24" viewBox="0 0 24 24" fill="none" xmlns="http://www.w3.org/2000/svg">
<path d="M2.0022 17L7.7842 6.64H10.2062L11.5782 17H9.7022L9.4362 14.816H5.2922L4.0882 17H2.0022ZM6.1882 13.164H9.2402L8.6802 8.628L6.1882 13.164ZM15.7884 19.968C15.1164 19.968 14.5704 19.884 14.1504 19.716C13.7304 19.548 13.4084 19.338 13.1844 19.086C12.9604 18.834 12.8017 18.582 12.7084 18.33C12.615 18.078 12.559 17.868 12.5404 17.7C12.531 17.532 12.5264 17.448 12.5264 17.448H14.3464C14.3464 17.448 14.3557 17.4993 14.3744 17.602C14.393 17.7047 14.4444 17.8213 14.5284 17.952C14.6217 18.092 14.7664 18.2133 14.9624 18.316C15.1677 18.4187 15.457 18.47 15.8304 18.47C16.493 18.47 17.0064 18.2833 17.3704 17.91C17.7344 17.5367 17.9724 17.0933 18.0844 16.58L18.2104 15.978H18.1264C18.1264 15.978 18.0844 16.0247 18.0004 16.118C17.9164 16.2113 17.7857 16.3233 17.6084 16.454C17.4404 16.5753 17.221 16.6827 16.9504 16.776C16.689 16.8693 16.381 16.916 16.0264 16.916C15.373 16.916 14.8364 16.7713 14.4164 16.482C13.9964 16.1833 13.6837 15.796 13.4784 15.32C13.273 14.844 13.1704 14.3307 13.1704 13.78C13.1704 13.2667 13.2544 12.758 13.4224 12.254C13.5997 11.7407 13.8517 11.274 14.1784 10.854C14.505 10.4247 14.9064 10.084 15.3824 9.832C15.8584 9.57067 16.3997 9.44 17.0064 9.44C17.4264 9.44 17.781 9.50533 18.0704 9.636C18.3597 9.76667 18.5884 9.92067 18.7564 10.098C18.9337 10.266 19.0597 10.4153 19.1344 10.546C19.209 10.6767 19.2464 10.742 19.2464 10.742H19.3304L19.5684 9.58H21.4444L19.9464 16.65C19.713 17.7327 19.2464 18.554 18.5464 19.114C17.8557 19.6833 16.9364 19.968 15.7884 19.968ZM16.6844 15.418C17.1417 15.418 17.5337 15.2873 17.8604 15.026C18.187 14.7553 18.4344 14.4193 18.6024 14.018C18.7797 13.6073 18.8684 13.1967 18.8684 12.786C18.8684 12.4593 18.8077 12.156 18.6864 11.876C18.5744 11.5867 18.4017 11.358 18.1684 11.19C17.935 11.0127 17.6317 10.924 17.2584 10.924C16.801 10.924 16.4044 11.0593 16.0684 11.33C15.7417 11.6007 15.4897 11.9367 15.3124 12.338C15.1444 12.7393 15.0604 13.15 15.0604 13.57C15.0604 13.8967 15.1164 14.2 15.2284 14.48C15.3497 14.76 15.527 14.9887 15.7604 15.166C16.003 15.334 16.311 15.418 16.6844 15.418Z" fill="#888888"/>
</svg>
