<svg width="24" height="24" viewBox="0 0 24 24" fill="none" xmlns="http://www.w3.org/2000/svg">
<path d="M10.5603 16.004H6.3463L4.7083 19H3.7283L9.1323 9.2H10.0703L12.1563 19H11.1763L10.5603 16.004ZM10.3923 15.206L9.4123 10.446H9.3703L6.7803 15.206H10.3923ZM15.9828 21.898C15.5441 21.898 15.1568 21.8327 14.8208 21.702L14.9608 20.876C15.0634 20.9133 15.2128 20.946 15.4088 20.974C15.6141 21.002 15.8241 21.016 16.0388 21.016C16.8041 21.016 17.4201 20.806 17.8868 20.386C18.3628 19.966 18.6661 19.392 18.7968 18.664L19.0488 17.208H18.9368C18.6288 17.684 18.2228 18.076 17.7188 18.384C17.2241 18.692 16.6641 18.846 16.0388 18.846C15.2454 18.846 14.6154 18.5893 14.1488 18.076C13.6821 17.5533 13.4488 16.8627 13.4488 16.004C13.4488 15.1733 13.6214 14.408 13.9668 13.708C14.3214 12.9987 14.7928 12.4387 15.3808 12.028C15.9781 11.608 16.6221 11.398 17.3128 11.398C17.9661 11.398 18.4888 11.566 18.8808 11.902C19.2821 12.238 19.5341 12.6487 19.6368 13.134H19.7348L20.0008 11.65H20.9808L19.7628 18.664C19.6694 19.2053 19.4688 19.7187 19.1608 20.204C18.8528 20.6987 18.4281 21.1047 17.8868 21.422C17.3548 21.7393 16.7201 21.898 15.9828 21.898ZM16.4728 17.992C17.0048 17.992 17.4994 17.8287 17.9568 17.502C18.4141 17.1753 18.7734 16.7413 19.0348 16.2C19.3054 15.6493 19.4408 15.0567 19.4408 14.422C19.4408 13.7967 19.2728 13.2787 18.9368 12.868C18.6008 12.4573 18.1108 12.252 17.4668 12.252C16.9254 12.252 16.4261 12.4107 15.9688 12.728C15.5114 13.0453 15.1521 13.4793 14.8908 14.03C14.6294 14.5713 14.4988 15.164 14.4988 15.808C14.4988 16.452 14.6668 16.9793 15.0028 17.39C15.3388 17.7913 15.8288 17.992 16.4728 17.992Z" fill="#333333"/>
</svg>
