<svg width="24" height="24" viewBox="0 0 24 24" fill="none" xmlns="http://www.w3.org/2000/svg">
<path d="M9.8411 14.144H5.8511L4.8151 17H3.5831L7.2651 7.2H8.4131L12.1231 17H10.8911L9.8411 14.144ZM9.4911 13.178L7.8531 8.74H7.7971L6.2011 13.178H9.4911ZM16.5659 19.954C16.2859 19.954 16.0572 19.9353 15.8799 19.898C15.7119 19.8607 15.5392 19.8093 15.3619 19.744V18.736C15.4832 18.7733 15.6466 18.806 15.8519 18.834C16.0572 18.8713 16.2579 18.89 16.4539 18.89C17.1819 18.89 17.7279 18.6847 18.0919 18.274C18.4652 17.8633 18.6519 17.3173 18.6519 16.636V15.306H18.5399C18.3439 15.7447 18.0266 16.118 17.5879 16.426C17.1586 16.7247 16.6359 16.874 16.0199 16.874C15.4039 16.874 14.8626 16.7153 14.3959 16.398C13.9292 16.0807 13.5652 15.642 13.3039 15.082C13.0519 14.5127 12.9259 13.864 12.9259 13.136C12.9259 12.408 13.0519 11.764 13.3039 11.204C13.5652 10.6347 13.9292 10.1913 14.3959 9.874C14.8626 9.55667 15.4039 9.398 16.0199 9.398C16.6639 9.398 17.2006 9.566 17.6299 9.902C18.0686 10.2287 18.3766 10.6113 18.5539 11.05H18.6519V9.636H19.8699V16.636C19.8699 17.1587 19.7626 17.672 19.5479 18.176C19.3426 18.68 18.9926 19.1 18.4979 19.436C18.0032 19.7813 17.3592 19.954 16.5659 19.954ZM16.4119 15.838C16.8879 15.838 17.2939 15.712 17.6299 15.46C17.9659 15.1987 18.2132 14.8627 18.3719 14.452C18.5399 14.032 18.6239 13.584 18.6239 13.108C18.6239 12.6413 18.5399 12.2073 18.3719 11.806C18.2132 11.4047 17.9659 11.078 17.6299 10.826C17.3032 10.574 16.8972 10.448 16.4119 10.448C15.6932 10.448 15.1426 10.7093 14.7599 11.232C14.3866 11.7453 14.1999 12.3707 14.1999 13.108C14.1999 13.5933 14.2792 14.046 14.4379 14.466C14.6059 14.8767 14.8532 15.208 15.1799 15.46C15.5159 15.712 15.9266 15.838 16.4119 15.838Z" fill="#888888"/>
</svg>
