<svg width="24" height="24" viewBox="0 0 24 24" fill="none" xmlns="http://www.w3.org/2000/svg">
<path d="M10.4131 16.144H6.42313L4.89713 19H3.66513L9.01313 9.2H10.1611L12.2051 19H10.9731L10.4131 16.144ZM10.2311 15.178L9.36313 10.74H9.30713L6.94113 15.178H10.2311ZM15.9759 21.954C15.5559 21.954 15.1639 21.884 14.7999 21.744L14.9679 20.736C15.0799 20.7733 15.2339 20.806 15.4299 20.834C15.6259 20.8713 15.8266 20.89 16.0319 20.89C16.7693 20.89 17.3526 20.6847 17.7819 20.274C18.2206 19.8633 18.5006 19.3173 18.6219 18.636L18.8599 17.306H18.7479C18.4679 17.7447 18.0853 18.118 17.5999 18.426C17.1239 18.7247 16.5733 18.874 15.9479 18.874C15.1546 18.874 14.5339 18.6173 14.0859 18.104C13.6379 17.5907 13.4139 16.9047 13.4139 16.046C13.4139 15.206 13.5819 14.4313 13.9179 13.722C14.2633 13.0033 14.7253 12.4387 15.3039 12.028C15.8919 11.608 16.5313 11.398 17.2219 11.398C17.8566 11.398 18.3653 11.566 18.7479 11.902C19.1306 12.2287 19.3686 12.6113 19.4619 13.05H19.5739L19.8259 11.636H21.0299L19.8399 18.636C19.7466 19.1587 19.5506 19.672 19.2519 20.176C18.9626 20.68 18.5426 21.1 17.9919 21.436C17.4413 21.7813 16.7693 21.954 15.9759 21.954ZM16.5219 17.838C17.0166 17.838 17.4739 17.684 17.8939 17.376C18.3139 17.068 18.6453 16.6573 18.8879 16.144C19.1306 15.6213 19.2519 15.0613 19.2519 14.464C19.2519 13.876 19.0979 13.3953 18.7899 13.022C18.4913 12.6393 18.0433 12.448 17.4459 12.448C16.9419 12.448 16.4799 12.602 16.0599 12.91C15.6399 13.2087 15.3086 13.6147 15.0659 14.128C14.8233 14.632 14.7019 15.1873 14.7019 15.794C14.7019 16.3913 14.8513 16.8813 15.1499 17.264C15.4579 17.6467 15.9153 17.838 16.5219 17.838Z" fill="#333333"/>
</svg>
