<svg width="24" height="24" viewBox="0 0 24 24" fill="none" xmlns="http://www.w3.org/2000/svg">
<path d="M9.74961 16.298H5.95561L5.01761 19H3.54761L7.17361 9.2H8.54561L12.1856 19H10.7156L9.74961 16.298ZM9.34361 15.15L7.87361 11.034H7.80361L6.36161 15.15H9.34361ZM16.5588 22.01C16.2601 22.01 16.0314 21.9913 15.8728 21.954C15.7141 21.9167 15.5321 21.8607 15.3268 21.786V20.596C15.4481 20.6333 15.6068 20.666 15.8028 20.694C16.0081 20.7313 16.2088 20.75 16.4048 20.75C17.1141 20.75 17.6321 20.5493 17.9588 20.148C18.2948 19.756 18.4628 19.2427 18.4628 18.608V17.39H18.3508C18.1734 17.7913 17.8748 18.1413 17.4548 18.44C17.0441 18.7387 16.5308 18.888 15.9147 18.888C15.3081 18.888 14.7761 18.734 14.3188 18.426C13.8614 18.1087 13.5068 17.67 13.2548 17.11C13.0121 16.5407 12.8908 15.8873 12.8908 15.15C12.8908 14.4127 13.0121 13.764 13.2548 13.204C13.5068 12.6347 13.8614 12.196 14.3188 11.888C14.7761 11.5707 15.3128 11.412 15.9288 11.412C16.5634 11.412 17.0861 11.5753 17.4968 11.902C17.9074 12.2193 18.1968 12.5787 18.3648 12.98H18.4628V11.622H19.9327V18.608C19.9327 19.112 19.8301 19.6207 19.6248 20.134C19.4288 20.6473 19.0788 21.086 18.5748 21.45C18.0708 21.8233 17.3988 22.01 16.5588 22.01ZM16.4188 17.684C17.0721 17.684 17.5714 17.432 17.9168 16.928C18.2714 16.424 18.4488 15.822 18.4488 15.122C18.4488 14.45 18.2761 13.8667 17.9308 13.372C17.5854 12.8773 17.0814 12.63 16.4188 12.63C15.7561 12.63 15.2521 12.8773 14.9068 13.372C14.5614 13.8573 14.3888 14.4407 14.3888 15.122C14.3888 15.822 14.5614 16.424 14.9068 16.928C15.2614 17.432 15.7654 17.684 16.4188 17.684Z" fill="#333333"/>
</svg>
