<svg width="24" height="24" viewBox="0 0 24 24" fill="none" xmlns="http://www.w3.org/2000/svg">
<path d="M10.4131 14.144H6.42313L4.89713 17H3.66513L9.01313 7.2H10.1611L12.2051 17H10.9731L10.4131 14.144ZM10.2311 13.178L9.36313 8.74H9.30713L6.94113 13.178H10.2311ZM15.9759 19.954C15.5559 19.954 15.1639 19.884 14.7999 19.744L14.9679 18.736C15.0799 18.7733 15.2339 18.806 15.4299 18.834C15.6259 18.8713 15.8266 18.89 16.0319 18.89C16.7693 18.89 17.3526 18.6847 17.7819 18.274C18.2206 17.8633 18.5006 17.3173 18.6219 16.636L18.8599 15.306H18.7479C18.4679 15.7447 18.0853 16.118 17.5999 16.426C17.1239 16.7247 16.5733 16.874 15.9479 16.874C15.1546 16.874 14.5339 16.6173 14.0859 16.104C13.6379 15.5907 13.4139 14.9047 13.4139 14.046C13.4139 13.206 13.5819 12.4313 13.9179 11.722C14.2633 11.0033 14.7253 10.4387 15.3039 10.028C15.8919 9.608 16.5313 9.398 17.2219 9.398C17.8566 9.398 18.3653 9.566 18.7479 9.902C19.1306 10.2287 19.3686 10.6113 19.4619 11.05H19.5739L19.8259 9.636H21.0299L19.8399 16.636C19.7466 17.1587 19.5506 17.672 19.2519 18.176C18.9626 18.68 18.5426 19.1 17.9919 19.436C17.4413 19.7813 16.7693 19.954 15.9759 19.954ZM16.5219 15.838C17.0166 15.838 17.4739 15.684 17.8939 15.376C18.3139 15.068 18.6453 14.6573 18.8879 14.144C19.1306 13.6213 19.2519 13.0613 19.2519 12.464C19.2519 11.876 19.0979 11.3953 18.7899 11.022C18.4913 10.6393 18.0433 10.448 17.4459 10.448C16.9419 10.448 16.4799 10.602 16.0599 10.91C15.6399 11.2087 15.3086 11.6147 15.0659 12.128C14.8233 12.632 14.7019 13.1873 14.7019 13.794C14.7019 14.3913 14.8513 14.8813 15.1499 15.264C15.4579 15.6467 15.9153 15.838 16.5219 15.838Z" fill="#888888"/>
</svg>
