<svg width="24" height="24" viewBox="0 0 24 24" fill="none" xmlns="http://www.w3.org/2000/svg">
<path d="M9.4543 16.732H6.3183L5.6183 19H3.4063L6.8923 9.2H8.9223L12.3803 19H10.1683L9.4543 16.732ZM8.9223 15.066L7.9143 11.902H7.8303L6.8503 15.066H8.9223ZM16.5718 22.164C16.2451 22.164 15.9884 22.1453 15.8018 22.108C15.6244 22.0707 15.4891 22.0333 15.3958 21.996C15.3118 21.9587 15.2604 21.9353 15.2418 21.926V20.19C15.3444 20.2273 15.4984 20.26 15.7038 20.288C15.9184 20.3253 16.1144 20.344 16.2918 20.344C17.3838 20.344 17.9298 19.7327 17.9298 18.51V17.656H17.8178C17.6684 17.9547 17.4164 18.2487 17.0618 18.538C16.7164 18.818 16.2404 18.958 15.6338 18.958C14.7471 18.958 14.0471 18.6173 13.5338 17.936C13.0298 17.2547 12.7778 16.3447 12.7778 15.206C12.7778 14.4407 12.8944 13.7733 13.1278 13.204C13.3611 12.6347 13.6924 12.196 14.1218 11.888C14.5604 11.58 15.0738 11.426 15.6618 11.426C16.2684 11.426 16.7491 11.5753 17.1038 11.874C17.4584 12.1727 17.6964 12.4667 17.8178 12.756H17.9298V11.594H20.1278V18.51C20.1278 19.35 19.8898 20.1667 19.4138 20.96C18.9378 21.7627 17.9904 22.164 16.5718 22.164ZM16.4738 17.208C16.9591 17.208 17.3231 17.0027 17.5658 16.592C17.8084 16.1813 17.9298 15.71 17.9298 15.178C17.9298 14.6553 17.8084 14.1933 17.5658 13.792C17.3324 13.3907 16.9684 13.19 16.4738 13.19C15.9698 13.19 15.5964 13.3907 15.3538 13.792C15.1204 14.184 15.0038 14.646 15.0038 15.178C15.0038 15.71 15.1204 16.1813 15.3538 16.592C15.5964 17.0027 15.9698 17.208 16.4738 17.208Z" fill="#333333"/>
</svg>
