<svg width="24" height="24" viewBox="0 0 24 24" fill="none" xmlns="http://www.w3.org/2000/svg">
<path d="M8.46199 17L9.45599 5.8H10.324L11.318 17H11.038L10.716 13.248H9.06399L8.74199 17H8.46199ZM9.09199 12.968H10.688L10.478 10.532L10.086 6.08H9.69399L9.30199 10.546L9.09199 12.968ZM13.8087 18.96C13.37 18.96 13.006 18.8853 12.7167 18.736C12.4367 18.5867 12.2967 18.288 12.2967 17.84V17.644C12.2967 17.3453 12.3853 17.126 12.5627 16.986C12.74 16.846 12.9127 16.7573 13.0807 16.72V16.608C12.754 16.44 12.5907 16.216 12.5907 15.936V15.824C12.5907 15.6373 12.642 15.4833 12.7447 15.362C12.8473 15.2407 12.95 15.1707 13.0527 15.152V15.026C12.7447 14.858 12.586 14.4893 12.5767 13.92C12.5673 13.528 12.558 13.178 12.5487 12.87C12.5487 12.562 12.5487 12.2633 12.5487 11.974C12.5487 11.6753 12.5487 11.358 12.5487 11.022C12.558 10.6767 12.5673 10.2707 12.5767 9.804C12.586 9.34667 12.684 9.02 12.8707 8.824C13.0573 8.628 13.37 8.53 13.8087 8.53C14.1633 8.53 14.4293 8.586 14.6067 8.698C14.7933 8.81 14.9193 8.99667 14.9847 9.258H15.0967C15.0967 9.07133 15.1713 8.91733 15.3207 8.796C15.47 8.66533 15.638 8.6 15.8247 8.6V8.88H15.7267C15.5307 8.88 15.3673 8.98733 15.2367 9.202C15.1153 9.40733 15.0547 9.71533 15.0547 10.126C15.064 10.7327 15.0687 11.2413 15.0687 11.652C15.078 12.0533 15.078 12.4267 15.0687 12.772C15.0687 13.1173 15.0593 13.5 15.0407 13.92C15.0313 14.368 14.9333 14.69 14.7467 14.886C14.56 15.082 14.2473 15.18 13.8087 15.18C13.762 15.18 13.7153 15.18 13.6687 15.18C13.6313 15.18 13.5893 15.1753 13.5427 15.166C13.3093 15.1753 13.1367 15.2407 13.0247 15.362C12.922 15.4833 12.8707 15.6373 12.8707 15.824V15.936C12.8707 16.1413 12.9453 16.286 13.0947 16.37C13.2533 16.454 13.4913 16.5053 13.8087 16.524C14.2753 16.552 14.644 16.6313 14.9147 16.762C15.1853 16.8927 15.3207 17.1867 15.3207 17.644V17.84C15.3207 18.288 15.176 18.5867 14.8867 18.736C14.6067 18.8853 14.2473 18.96 13.8087 18.96ZM13.8087 14.9C14.1447 14.9 14.3827 14.8347 14.5227 14.704C14.672 14.564 14.7513 14.3027 14.7607 13.92C14.8073 12.604 14.8073 11.232 14.7607 9.804C14.7513 9.412 14.6767 9.15067 14.5367 9.02C14.3967 8.88 14.154 8.81 13.8087 8.81C13.4633 8.81 13.2207 8.88 13.0807 9.02C12.95 9.15067 12.8753 9.412 12.8567 9.804C12.81 11.232 12.81 12.604 12.8567 13.92C12.8753 14.3027 12.9547 14.564 13.0947 14.704C13.2347 14.8347 13.4727 14.9 13.8087 14.9ZM13.8087 18.694C14.0327 18.694 14.238 18.6753 14.4247 18.638C14.6113 18.61 14.7607 18.5353 14.8727 18.414C14.9847 18.2927 15.0407 18.106 15.0407 17.854V17.644C15.0407 17.3733 14.9847 17.182 14.8727 17.07C14.7607 16.958 14.6113 16.888 14.4247 16.86C14.2473 16.832 14.042 16.8087 13.8087 16.79C13.4633 16.762 13.1693 16.7993 12.9267 16.902C12.6933 16.9953 12.5767 17.2427 12.5767 17.644V17.854C12.5767 18.106 12.6327 18.2927 12.7447 18.414C12.8567 18.5353 13.006 18.61 13.1927 18.638C13.3793 18.6753 13.5847 18.694 13.8087 18.694Z" fill="#333333"/>
</svg>
