<svg width="24" height="24" viewBox="0 0 24 24" fill="none" xmlns="http://www.w3.org/2000/svg">
<path d="M5.62278 17L7.09278 5.8H10.3548L11.8108 17H9.92078L9.66878 14.452H7.77878L7.52678 17H5.62278ZM7.94678 12.814H9.50078L9.24878 10.364L9.05278 7.438H8.39478L8.18478 10.364L7.94678 12.814ZM15.1299 19.716C14.2805 19.716 13.6179 19.5947 13.1419 19.352C12.6659 19.1093 12.3905 18.8107 12.3159 18.456C12.3065 18.4 12.2972 18.3253 12.2879 18.232C12.2785 18.1387 12.2785 18.0547 12.2879 17.98C12.3532 17.5133 12.7032 17.2333 13.3379 17.14V16.874C12.7405 16.79 12.4092 16.524 12.3439 16.076C12.3345 15.9827 12.3299 15.908 12.3299 15.852C12.3392 15.796 12.3439 15.7353 12.3439 15.67C12.3719 15.474 12.4745 15.3013 12.6519 15.152C12.8292 14.9933 13.0625 14.8953 13.3519 14.858V14.592C12.9785 14.424 12.6985 14.172 12.5119 13.836C12.3252 13.4907 12.2179 13.0473 12.1899 12.506C12.1712 12.17 12.1619 11.876 12.1619 11.624C12.1619 11.3627 12.1712 11.0967 12.1899 10.826C12.2459 9.97667 12.4885 9.37467 12.9179 9.02C13.3472 8.656 14.0285 8.474 14.9619 8.474C16.1565 8.474 16.9405 8.782 17.3139 9.398H17.5799C17.6545 8.87533 18.0185 8.60933 18.6719 8.6V10H18.4619C18.2285 10 18.0419 10.0607 17.9019 10.182C17.7712 10.294 17.7059 10.4947 17.7059 10.784C17.7152 11.204 17.7199 11.54 17.7199 11.792C17.7199 12.0347 17.7105 12.2727 17.6919 12.506C17.6452 13.346 17.4119 13.9527 16.9919 14.326C16.5719 14.69 15.8952 14.872 14.9619 14.872C14.9432 14.872 14.9245 14.872 14.9059 14.872C14.8965 14.8627 14.8872 14.858 14.8779 14.858C14.4579 14.8673 14.1779 14.9047 14.0379 14.97C13.9072 15.0353 13.8419 15.138 13.8419 15.278V15.348C13.8419 15.4973 13.9492 15.6 14.1639 15.656C14.3879 15.7027 14.7565 15.726 15.2699 15.726C16.2032 15.7447 16.9032 15.894 17.3699 16.174C17.8365 16.454 18.1165 16.8693 18.2099 17.42C18.2192 17.4853 18.2239 17.574 18.2239 17.686C18.2332 17.798 18.2285 17.91 18.2099 18.022C18.1445 18.4513 17.9719 18.7873 17.6919 19.03C17.4119 19.2727 17.0479 19.4453 16.5999 19.548C16.1612 19.66 15.6712 19.716 15.1299 19.716ZM14.9619 13.472C15.2325 13.472 15.4472 13.4113 15.6059 13.29C15.7739 13.1687 15.8672 12.9913 15.8859 12.758C15.9232 12.1233 15.9232 11.3953 15.8859 10.574C15.8579 10.098 15.5499 9.86 14.9619 9.86C14.3365 9.86 14.0145 10.1073 13.9959 10.602C13.9865 11.0127 13.9772 11.3813 13.9679 11.708C13.9679 12.0347 13.9772 12.3707 13.9959 12.716C14.0239 13.22 14.3459 13.472 14.9619 13.472ZM15.1999 18.428C16.0305 18.428 16.5112 18.246 16.6419 17.882C16.6979 17.742 16.6979 17.5973 16.6419 17.448C16.5299 17.14 16.0445 16.9813 15.1859 16.972C14.7752 16.972 14.4672 17.0187 14.2619 17.112C14.0565 17.2053 13.9352 17.336 13.8979 17.504C13.8699 17.5693 13.8559 17.6393 13.8559 17.714C13.8652 17.7887 13.8792 17.854 13.8979 17.91C13.9445 18.0967 14.0705 18.2273 14.2759 18.302C14.4905 18.386 14.7985 18.428 15.1999 18.428Z" fill="#333333"/>
</svg>
