<svg width="24" height="24" viewBox="0 0 24 24" fill="none" xmlns="http://www.w3.org/2000/svg">
<path d="M7.80673 17L8.81473 5.8H10.3967L10.4387 6.332H9.29073L8.92673 10.546L8.73073 12.842H10.0187L9.87873 13.374H8.68873L8.38073 17H7.80673ZM10.8167 17L10.2707 10.518L9.93473 6.836H10.4667L11.3907 17H10.8167ZM13.8724 19.086C13.4338 19.058 13.0768 18.9577 12.8014 18.785C12.5308 18.6123 12.3884 18.3347 12.3744 17.952C12.3744 17.91 12.3744 17.868 12.3744 17.826C12.3744 17.7887 12.3744 17.7467 12.3744 17.7C12.3744 17.4107 12.4748 17.1937 12.6754 17.049C12.8761 16.909 13.0698 16.8227 13.2564 16.79V16.65C12.8551 16.5007 12.6544 16.272 12.6544 15.964C12.6544 15.9267 12.6544 15.8987 12.6544 15.88C12.6544 15.8567 12.6544 15.8287 12.6544 15.796C12.6544 15.614 12.7151 15.46 12.8364 15.334C12.9624 15.2033 13.0978 15.124 13.2424 15.096V14.942C13.0324 14.8347 12.8784 14.6783 12.7804 14.473C12.6824 14.263 12.6264 13.9947 12.6124 13.668C12.5984 13.3087 12.5891 12.989 12.5844 12.709C12.5798 12.429 12.5774 12.1583 12.5774 11.897C12.5774 11.6357 12.5798 11.3533 12.5844 11.05C12.5938 10.7467 12.6031 10.392 12.6124 9.986C12.6264 9.51467 12.7314 9.16467 12.9274 8.936C13.1234 8.70733 13.4384 8.572 13.8724 8.53V9.006C13.6204 9.03867 13.4408 9.132 13.3334 9.286C13.2308 9.43533 13.1724 9.66867 13.1584 9.986C13.1491 10.2987 13.1421 10.6837 13.1374 11.141C13.1328 11.5937 13.1304 12.051 13.1304 12.513C13.1351 12.9703 13.1444 13.36 13.1584 13.682C13.1724 13.9947 13.2424 14.2233 13.3684 14.368C13.4944 14.508 13.6718 14.5967 13.9004 14.634V15.124C13.6484 15.1427 13.4594 15.2057 13.3334 15.313C13.2074 15.4203 13.1444 15.558 13.1444 15.726C13.1444 15.74 13.1444 15.7563 13.1444 15.775C13.1444 15.7937 13.1444 15.81 13.1444 15.824C13.1444 15.9827 13.2051 16.104 13.3264 16.188C13.4524 16.272 13.6344 16.328 13.8724 16.356V16.818C13.5924 16.8227 13.3591 16.881 13.1724 16.993C12.9858 17.105 12.8924 17.3127 12.8924 17.616C12.8924 17.6487 12.8924 17.686 12.8924 17.728C12.8924 17.77 12.8924 17.8167 12.8924 17.868C12.8924 18.1527 12.9811 18.3487 13.1584 18.456C13.3404 18.5633 13.5784 18.624 13.8724 18.638V19.086ZM14.5164 19.086V18.652C14.8338 18.6287 15.0881 18.5633 15.2794 18.456C15.4754 18.3533 15.5804 18.1527 15.5944 17.854C15.5944 17.812 15.5944 17.77 15.5944 17.728C15.5944 17.686 15.5944 17.644 15.5944 17.602C15.5804 17.294 15.4731 17.0957 15.2724 17.007C15.0718 16.9183 14.8198 16.86 14.5164 16.832V16.398C15.0158 16.44 15.4031 16.5427 15.6784 16.706C15.9584 16.8693 16.0984 17.168 16.0984 17.602C16.0984 17.644 16.0984 17.6883 16.0984 17.735C16.0984 17.7817 16.0984 17.826 16.0984 17.868C16.0984 18.3067 15.9491 18.6123 15.6504 18.785C15.3564 18.9623 14.9784 19.0627 14.5164 19.086ZM14.5164 15.11V14.634C14.7404 14.5967 14.9084 14.508 15.0204 14.368C15.1371 14.228 15.2024 13.99 15.2164 13.654C15.2304 13.304 15.2374 12.912 15.2374 12.478C15.2421 12.0393 15.2398 11.6007 15.2304 11.162C15.2258 10.7187 15.2164 10.3127 15.2024 9.944C15.1884 9.636 15.1324 9.412 15.0344 9.272C14.9364 9.12733 14.7638 9.03867 14.5164 9.006V8.53C15.1231 8.586 15.5011 8.838 15.6504 9.286H15.7904C15.7998 9.08067 15.8861 8.915 16.0494 8.789C16.2128 8.663 16.4064 8.6 16.6304 8.6V9.076H16.5184C16.2944 9.076 16.1148 9.17633 15.9794 9.377C15.8441 9.573 15.7764 9.86 15.7764 10.238V10.574C15.7858 10.9893 15.7904 11.358 15.7904 11.68C15.7951 11.9973 15.7951 12.3123 15.7904 12.625C15.7858 12.933 15.7764 13.2807 15.7624 13.668C15.7438 14.13 15.6388 14.4753 15.4474 14.704C15.2608 14.9327 14.9504 15.068 14.5164 15.11Z" fill="#888888"/>
</svg>
