<svg width="24" height="24" viewBox="0 0 24 24" fill="none" xmlns="http://www.w3.org/2000/svg">
<path d="M7.40795 17L8.61195 5.8H10.3479L11.5379 17H10.5859L10.2919 13.752H8.65395L8.35995 17H7.40795ZM8.73795 12.912H10.2079L9.98395 10.462L9.67595 6.64H9.28395L8.96195 10.476L8.73795 12.912ZM14.298 19.268C13.71 19.268 13.2387 19.1747 12.884 18.988C12.5294 18.8013 12.338 18.5027 12.31 18.092C12.3007 17.9893 12.296 17.8867 12.296 17.784C12.3147 17.5227 12.4034 17.3173 12.562 17.168C12.73 17.028 12.9307 16.9393 13.164 16.902V16.72C12.744 16.5893 12.52 16.3467 12.492 15.992C12.4734 15.9173 12.4734 15.838 12.492 15.754C12.5014 15.5673 12.5667 15.4087 12.688 15.278C12.8187 15.138 12.9727 15.054 13.15 15.026V14.844C12.9074 14.732 12.7254 14.55 12.604 14.298C12.492 14.046 12.4267 13.724 12.408 13.332C12.3987 12.9307 12.3894 12.5807 12.38 12.282C12.38 11.9833 12.38 11.68 12.38 11.372C12.3894 11.0547 12.3987 10.672 12.408 10.224C12.436 9.608 12.59 9.16933 12.87 8.908C13.15 8.63733 13.6074 8.502 14.242 8.502C14.6807 8.502 15.0307 8.56733 15.292 8.698C15.5534 8.81933 15.74 9.02467 15.852 9.314H16.034C16.0434 9.09 16.1227 8.91733 16.272 8.796C16.4307 8.66533 16.6314 8.6 16.874 8.6V9.342H16.748C16.2814 9.342 16.048 9.69667 16.048 10.406C16.0574 10.8913 16.062 11.2973 16.062 11.624C16.0714 11.9413 16.0714 12.2307 16.062 12.492C16.062 12.7533 16.0527 13.0333 16.034 13.332C16.006 13.948 15.852 14.3913 15.572 14.662C15.3014 14.9233 14.858 15.054 14.242 15.054C14.1954 15.054 14.1534 15.054 14.116 15.054C14.0787 15.054 14.0414 15.0493 14.004 15.04C13.7334 15.0493 13.5374 15.1053 13.416 15.208C13.304 15.3013 13.248 15.432 13.248 15.6V15.684C13.248 15.8613 13.3367 15.9873 13.514 16.062C13.6914 16.1367 13.976 16.1833 14.368 16.202C15.0027 16.2207 15.4927 16.328 15.838 16.524C16.1834 16.7107 16.3747 17.0513 16.412 17.546C16.412 17.5927 16.412 17.6487 16.412 17.714C16.412 17.7793 16.412 17.8447 16.412 17.91C16.3747 18.442 16.1554 18.8013 15.754 18.988C15.362 19.1747 14.8767 19.268 14.298 19.268ZM14.242 14.312C14.5407 14.312 14.76 14.2467 14.9 14.116C15.0494 13.9853 15.1287 13.7567 15.138 13.43C15.1847 12.394 15.1847 11.2973 15.138 10.14C15.1287 9.804 15.054 9.57067 14.914 9.44C14.774 9.30933 14.55 9.244 14.242 9.244C13.9247 9.244 13.6914 9.30933 13.542 9.44C13.402 9.57067 13.3274 9.804 13.318 10.14C13.2714 11.2973 13.2714 12.394 13.318 13.43C13.3274 13.7567 13.402 13.9853 13.542 14.116C13.6914 14.2467 13.9247 14.312 14.242 14.312ZM14.326 18.554C14.746 18.554 15.054 18.5027 15.25 18.4C15.4554 18.3067 15.5627 18.1247 15.572 17.854C15.5907 17.77 15.5907 17.672 15.572 17.56C15.544 17.28 15.432 17.1027 15.236 17.028C15.0494 16.9533 14.746 16.9113 14.326 16.902C13.9247 16.8833 13.6354 16.9207 13.458 17.014C13.2807 17.1073 13.178 17.2987 13.15 17.588C13.1407 17.6813 13.1407 17.7793 13.15 17.882C13.178 18.1433 13.276 18.3207 13.444 18.414C13.6214 18.5073 13.9154 18.554 14.326 18.554Z" fill="#333333"/>
</svg>
