<svg width="24" height="24" viewBox="0 0 24 24" fill="none" xmlns="http://www.w3.org/2000/svg">
<path d="M5.28355 17L6.83755 5.8H10.1416L11.6956 17H9.53955L9.30155 14.662H7.67755L7.43955 17H5.28355ZM7.87355 12.814H9.10555L8.85355 10.336L8.68555 7.648H8.29355L8.12555 10.336L7.87355 12.814ZM15.0071 19.828C14.1578 19.828 13.5231 19.7137 13.1031 19.485C12.6878 19.261 12.4334 18.946 12.3401 18.54C12.3261 18.4793 12.3144 18.4 12.3051 18.302C12.2958 18.204 12.2981 18.1107 12.3121 18.022C12.3401 17.812 12.4311 17.6183 12.5851 17.441C12.7391 17.2637 12.9608 17.1587 13.2501 17.126V16.832C12.9934 16.7947 12.7858 16.706 12.6271 16.566C12.4731 16.426 12.3774 16.2417 12.3401 16.013C12.3308 15.9477 12.3261 15.8777 12.3261 15.803C12.3261 15.7283 12.3308 15.6467 12.3401 15.558C12.3681 15.3527 12.4801 15.1893 12.6761 15.068C12.8721 14.942 13.1241 14.858 13.4321 14.816V14.522C13.0214 14.34 12.7158 14.0693 12.5151 13.71C12.3191 13.3507 12.2001 12.8747 12.1581 12.282C12.1534 12.1373 12.1488 12.0067 12.1441 11.89C12.1394 11.7733 12.1371 11.666 12.1371 11.568C12.1371 11.4653 12.1394 11.3673 12.1441 11.274C12.1488 11.176 12.1534 11.078 12.1581 10.98C12.1954 10.4013 12.3074 9.92767 12.4941 9.559C12.6854 9.18567 12.9841 8.91033 13.3901 8.733C13.8008 8.551 14.3491 8.46 15.0351 8.46C15.6651 8.46 16.1644 8.537 16.5331 8.691C16.9018 8.845 17.1934 9.09 17.4081 9.426H17.7021C17.7441 9.132 17.8514 8.922 18.0241 8.796C18.2014 8.66533 18.4721 8.6 18.8361 8.6V10.182H18.6121C18.3741 10.182 18.1874 10.231 18.0521 10.329C17.9214 10.4223 17.8561 10.6067 17.8561 10.882V11.274C17.8561 11.3627 17.8561 11.4443 17.8561 11.519C17.8561 11.5937 17.8561 11.6683 17.8561 11.743C17.8608 11.8177 17.8608 11.8993 17.8561 11.988C17.8561 12.072 17.8514 12.17 17.8421 12.282C17.8048 12.8933 17.6881 13.3857 17.4921 13.759C17.3008 14.1323 17.0044 14.403 16.6031 14.571C16.2064 14.7343 15.6768 14.816 15.0141 14.816C14.5661 14.816 14.2628 14.8463 14.1041 14.907C13.9454 14.963 13.8661 15.0587 13.8661 15.194V15.236C13.8661 15.3293 13.8801 15.404 13.9081 15.46C13.9408 15.5113 14.0318 15.5487 14.1811 15.572C14.3304 15.5953 14.5848 15.6093 14.9441 15.614C15.9474 15.628 16.6754 15.7867 17.1281 16.09C17.5808 16.3933 17.8561 16.8227 17.9541 17.378C17.9728 17.476 17.9821 17.5787 17.9821 17.686C17.9821 17.7933 17.9728 17.917 17.9541 18.057C17.9074 18.4537 17.7721 18.7827 17.5481 19.044C17.3241 19.3053 17.0021 19.5013 16.5821 19.632C16.1668 19.7627 15.6418 19.828 15.0071 19.828ZM15.0561 18.4C15.3081 18.4 15.5181 18.379 15.6861 18.337C15.8541 18.295 15.9871 18.2343 16.0851 18.155C16.1831 18.0803 16.2508 17.994 16.2881 17.896C16.3161 17.8167 16.3278 17.742 16.3231 17.672C16.3184 17.602 16.3021 17.532 16.2741 17.462C16.2321 17.3547 16.1598 17.266 16.0571 17.196C15.9591 17.126 15.8284 17.0723 15.6651 17.035C15.5018 17.0023 15.3011 16.986 15.0631 16.986C14.6944 16.986 14.4261 17.0257 14.2581 17.105C14.0901 17.189 13.9804 17.3057 13.9291 17.455C13.9011 17.5297 13.8871 17.6043 13.8871 17.679C13.8918 17.7583 13.9034 17.8307 13.9221 17.896C13.9548 17.9987 14.0131 18.0873 14.0971 18.162C14.1858 18.2413 14.3071 18.2997 14.4611 18.337C14.6198 18.379 14.8181 18.4 15.0561 18.4ZM15.0071 13.248C15.3104 13.248 15.5111 13.185 15.6091 13.059C15.7071 12.933 15.7654 12.7767 15.7841 12.59C15.7934 12.492 15.8004 12.359 15.8051 12.191C15.8098 12.0183 15.8121 11.8363 15.8121 11.645C15.8121 11.4537 15.8098 11.274 15.8051 11.106C15.8004 10.9333 15.7934 10.798 15.7841 10.7C15.7654 10.4807 15.7024 10.315 15.5951 10.203C15.4878 10.0863 15.2918 10.028 15.0071 10.028C14.7224 10.028 14.5218 10.0863 14.4051 10.203C14.2884 10.3197 14.2254 10.4947 14.2161 10.728C14.2068 10.938 14.1998 11.1317 14.1951 11.309C14.1904 11.4863 14.1881 11.6497 14.1881 11.799C14.1881 11.9483 14.1904 12.0837 14.1951 12.205C14.1998 12.3263 14.2068 12.436 14.2161 12.534C14.2348 12.716 14.2884 12.8817 14.3771 13.031C14.4658 13.1757 14.6758 13.248 15.0071 13.248Z" fill="#888888"/>
</svg>
