<svg width="24" height="24" viewBox="0 0 24 24" fill="none" xmlns="http://www.w3.org/2000/svg">
<path d="M14.3669 16.566V17H10.1669V16.566H11.9449L10.5869 13.332H5.70088L4.34288 16.566H6.19088V17H1.94887V16.566H3.88088L7.67488 7.816H5.68688V7.396H10.6149V7.816H8.61288L12.4629 16.566H14.3669ZM10.3909 12.898L8.24888 7.816H8.03888L5.89688 12.898H10.3909ZM19.7967 15.978C20.2914 15.978 20.6974 16.1087 21.0147 16.37C21.332 16.6313 21.4907 16.9907 21.4907 17.448C21.4907 17.9893 21.2947 18.4607 20.9027 18.862C20.52 19.2727 20.016 19.5853 19.3907 19.8C18.7654 20.0147 18.1027 20.122 17.4027 20.122C16.7867 20.122 16.2314 20.0333 15.7367 19.856C15.2514 19.688 14.8687 19.45 14.5887 19.142C14.3087 18.834 14.1687 18.4793 14.1687 18.078C14.1687 17.5367 14.4254 17.0747 14.9387 16.692C14.724 16.5613 14.5654 16.398 14.4627 16.202C14.3694 16.006 14.3227 15.8053 14.3227 15.6C14.3227 15.2453 14.43 14.928 14.6447 14.648C14.8594 14.3587 15.1347 14.1113 15.4707 13.906C15.2 13.542 15.0647 13.1173 15.0647 12.632C15.0647 12.1373 15.1954 11.708 15.4567 11.344C15.7274 10.98 16.068 10.7047 16.4787 10.518C16.8987 10.322 17.3374 10.224 17.7947 10.224C18.3734 10.224 18.9007 10.364 19.3767 10.644C19.7594 9.62667 20.45 9.09 21.4487 9.034V9.496C21.0007 9.524 20.6414 9.64067 20.3707 9.846C20.1094 10.042 19.876 10.3733 19.6707 10.84C19.9414 11.0453 20.1514 11.2973 20.3007 11.596C20.4594 11.8853 20.5387 12.2167 20.5387 12.59C20.5387 13.0847 20.4174 13.514 20.1747 13.878C19.932 14.242 19.6007 14.522 19.1807 14.718C18.7607 14.9047 18.2987 14.998 17.7947 14.998C17.4027 14.998 17.02 14.928 16.6467 14.788C16.2734 14.648 15.956 14.4473 15.6947 14.186C15.088 14.5407 14.7847 14.9747 14.7847 15.488C14.7847 15.8053 14.9014 16.0713 15.1347 16.286C15.3774 16.4913 15.7554 16.594 16.2687 16.594C16.5207 16.594 16.7727 16.5707 17.0247 16.524C17.2767 16.468 17.594 16.3887 17.9767 16.286C18.378 16.1833 18.714 16.1087 18.9847 16.062C19.2554 16.006 19.526 15.978 19.7967 15.978ZM17.7947 10.658C17.4214 10.658 17.062 10.7373 16.7167 10.896C16.3714 11.0453 16.0867 11.2693 15.8627 11.568C15.6387 11.8667 15.5267 12.2213 15.5267 12.632C15.5267 13.052 15.634 13.4067 15.8487 13.696C16.0727 13.9853 16.3574 14.2047 16.7027 14.354C17.048 14.494 17.412 14.564 17.7947 14.564C18.4574 14.564 19.0034 14.3913 19.4327 14.046C19.862 13.7007 20.0767 13.2153 20.0767 12.59C20.0767 12.17 19.9647 11.8153 19.7407 11.526C19.5167 11.2367 19.232 11.022 18.8867 10.882C18.5414 10.7327 18.1774 10.658 17.7947 10.658ZM17.4727 19.688C18.0887 19.688 18.6674 19.5947 19.2087 19.408C19.75 19.2307 20.1887 18.974 20.5247 18.638C20.8607 18.302 21.0287 17.9053 21.0287 17.448C21.0287 17.112 20.9027 16.8553 20.6507 16.678C20.408 16.5007 20.0907 16.412 19.6987 16.412C19.4374 16.412 19.1854 16.44 18.9427 16.496C18.7 16.5427 18.3874 16.6173 18.0047 16.72C17.6407 16.8227 17.328 16.902 17.0667 16.958C16.8054 17.0047 16.5394 17.028 16.2687 17.028C15.9047 17.028 15.5687 16.972 15.2607 16.86C15.0647 17 14.9107 17.168 14.7987 17.364C14.6867 17.5693 14.6307 17.7887 14.6307 18.022C14.6307 18.3487 14.752 18.638 14.9947 18.89C15.2374 19.142 15.5734 19.338 16.0027 19.478C16.432 19.618 16.922 19.688 17.4727 19.688Z" fill="#333333"/>
</svg>
