<svg width="24" height="24" viewBox="0 0 24 24" fill="none" xmlns="http://www.w3.org/2000/svg">
<path d="M14.0295 14.3007V14.9697H10.2168V14.3007H11.5227L10.6118 13.0029H6.5412L5.63035 14.3007H6.93617V14.9697H3.11544V14.3007H4.70338L7.78253 10.1011H6.41223V9.44012H10.7247V10.1011H9.36241L12.4416 14.3007H14.0295ZM10.1927 12.3984L8.58859 10.1011H8.56441L6.96035 12.3984H10.1927ZM19.8349 14.1798C20.3078 14.1798 20.6813 14.2711 20.9553 14.4538C21.2348 14.6312 21.3745 14.8891 21.3745 15.2276C21.3745 15.5608 21.2079 15.8429 20.8747 16.074C20.5415 16.3104 20.0767 16.4878 19.4802 16.606C18.8891 16.7242 18.2093 16.7833 17.4409 16.7833C16.7692 16.7833 16.2076 16.7269 15.7562 16.6141C15.3048 16.5066 14.969 16.3561 14.7487 16.1627C14.5283 15.9692 14.4182 15.7462 14.4182 15.4936C14.4182 15.3163 14.4612 15.1578 14.5471 15.0181C14.6385 14.8783 14.7567 14.7601 14.9018 14.6634C14.6761 14.4753 14.5633 14.2577 14.5633 14.0105C14.5633 13.8278 14.6251 13.6612 14.7487 13.5107C14.8776 13.3549 15.0388 13.2286 15.2323 13.1319C15.0227 12.933 14.9179 12.6993 14.9179 12.4306C14.9179 11.99 15.1893 11.6541 15.7321 11.423C16.2802 11.1866 16.9814 11.0684 17.8359 11.0684C18.6151 11.0684 19.2545 11.1597 19.7543 11.3424C19.8295 10.9501 20.0095 10.6492 20.2944 10.4396C20.5845 10.2301 20.915 10.1145 21.2858 10.093V10.7862C20.684 10.797 20.297 11.0388 20.1251 11.5117C20.5496 11.7481 20.7619 12.0544 20.7619 12.4306C20.7619 12.882 20.4797 13.2232 19.9155 13.4543C19.3566 13.6854 18.6392 13.8009 17.7633 13.8009C17.3281 13.8009 16.9223 13.766 16.5462 13.6961C16.1754 13.6263 15.8637 13.5268 15.6111 13.3979C15.3854 13.543 15.2726 13.7069 15.2726 13.8896C15.2726 14.0615 15.3801 14.2013 15.595 14.3087C15.8153 14.4162 16.1619 14.4699 16.6348 14.4699C16.9089 14.4699 17.4436 14.4216 18.2389 14.3248C19.0342 14.2281 19.5662 14.1798 19.8349 14.1798ZM17.8359 11.6165C17.2018 11.6165 16.6886 11.6837 16.2963 11.818C15.904 11.9523 15.7079 12.1565 15.7079 12.4306C15.7079 12.6993 15.904 12.9062 16.2963 13.0513C16.6939 13.191 17.2071 13.2608 17.8359 13.2608C18.47 13.2608 18.9858 13.191 19.3835 13.0513C19.7812 12.9062 19.98 12.6993 19.98 12.4306C19.98 12.1565 19.7838 11.9523 19.3916 11.818C18.9993 11.6837 18.4807 11.6165 17.8359 11.6165ZM17.4328 16.1949C18.0831 16.1949 18.6446 16.1573 19.1175 16.0821C19.5904 16.0068 19.9531 15.8994 20.2057 15.7596C20.4583 15.6253 20.5845 15.4668 20.5845 15.2841C20.5845 14.9616 20.3051 14.8004 19.7462 14.8004C19.5958 14.8004 19.3916 14.8139 19.1336 14.8407C18.8811 14.8676 18.6204 14.8972 18.3517 14.9294C18.0401 14.967 17.7203 15.0019 17.3925 15.0342C17.0647 15.0664 16.7934 15.0825 16.5784 15.0825C16.0948 15.0825 15.6891 15.0234 15.3613 14.9052C15.2269 15.0288 15.1597 15.1766 15.1597 15.3485C15.1597 15.5957 15.3505 15.7973 15.7321 15.9531C16.119 16.1143 16.6859 16.1949 17.4328 16.1949Z" fill="#888888"/>
</svg>
