<svg width="24" height="24" viewBox="0 0 24 24" fill="none" xmlns="http://www.w3.org/2000/svg">
<path d="M13.9801 15.838V17H9.40207V15.838H10.9701L10.0741 13.598H5.93007L5.04807 15.838H6.72807V17H2.17807V15.838H3.67607L6.79807 8.544H5.35607V7.396H10.7601V8.544H9.33207L12.4821 15.838H13.9801ZM9.65407 12.548L8.05807 8.544H7.94607L6.35007 12.548H9.65407ZM19.5932 15.754C20.1905 15.754 20.6712 15.9033 21.0352 16.202C21.4085 16.5007 21.5952 16.9207 21.5952 17.462C21.5952 17.9847 21.3992 18.442 21.0072 18.834C20.6152 19.226 20.0879 19.5247 19.4252 19.73C18.7625 19.9447 18.0439 20.052 17.2692 20.052C16.3265 20.052 15.5519 19.8747 14.9452 19.52C14.3479 19.1747 14.0492 18.6987 14.0492 18.092C14.0492 17.8213 14.1192 17.5647 14.2592 17.322C14.4085 17.0887 14.5952 16.8833 14.8192 16.706C14.6325 16.566 14.4879 16.4027 14.3852 16.216C14.2919 16.02 14.2452 15.8147 14.2452 15.6C14.2452 15.2547 14.3432 14.9467 14.5392 14.676C14.7352 14.396 14.9919 14.1627 15.3092 13.976C14.9919 13.584 14.8332 13.136 14.8332 12.632C14.8332 12.128 14.9779 11.694 15.2672 11.33C15.5659 10.966 15.9439 10.6907 16.4012 10.504C16.8585 10.3173 17.3252 10.224 17.8012 10.224C18.3519 10.224 18.8605 10.3267 19.3272 10.532C19.4952 10.0467 19.7659 9.678 20.1392 9.426C20.5219 9.174 20.9745 9.03867 21.4972 9.02V10.168C21.1332 10.1867 20.8252 10.2473 20.5732 10.35C20.3305 10.4527 20.1159 10.63 19.9292 10.882C20.5079 11.3207 20.7972 11.89 20.7972 12.59C20.7972 13.094 20.6525 13.528 20.3632 13.892C20.0739 14.256 19.6959 14.5313 19.2292 14.718C18.7719 14.9047 18.2959 14.998 17.8012 14.998C17.0825 14.998 16.4385 14.8207 15.8692 14.466C15.5892 14.718 15.4492 14.9887 15.4492 15.278C15.4492 15.5207 15.5425 15.712 15.7292 15.852C15.9252 15.9827 16.1912 16.048 16.5272 16.048C16.8445 16.048 17.3205 16.0013 17.9552 15.908C18.2072 15.8707 18.4779 15.838 18.7672 15.81C19.0565 15.7727 19.3319 15.754 19.5932 15.754ZM17.8152 11.204C17.3579 11.204 16.9705 11.3393 16.6532 11.61C16.3359 11.8713 16.1772 12.212 16.1772 12.632C16.1772 13.052 16.3312 13.388 16.6392 13.64C16.9565 13.892 17.3485 14.018 17.8152 14.018C18.3005 14.018 18.6925 13.8873 18.9912 13.626C19.2992 13.3647 19.4532 13.0193 19.4532 12.59C19.4532 12.17 19.2945 11.834 18.9772 11.582C18.6692 11.33 18.2819 11.204 17.8152 11.204ZM17.4652 18.918C17.9599 18.918 18.4265 18.862 18.8652 18.75C19.3132 18.638 19.6679 18.4747 19.9292 18.26C20.1999 18.0547 20.3352 17.8167 20.3352 17.546C20.3352 17.07 19.9899 16.832 19.2992 16.832C19.1125 16.832 18.9072 16.846 18.6832 16.874C18.4592 16.902 18.2399 16.9347 18.0252 16.972C17.7639 17.0187 17.4792 17.0607 17.1712 17.098C16.8725 17.1353 16.5785 17.154 16.2892 17.154C16.0372 17.154 15.7805 17.1213 15.5192 17.056C15.3325 17.2707 15.2392 17.5227 15.2392 17.812C15.2392 18.1573 15.4352 18.428 15.8272 18.624C16.2192 18.82 16.7652 18.918 17.4652 18.918Z" fill="#333333"/>
</svg>
