<svg width="24" height="24" viewBox="0 0 24 24" fill="none" xmlns="http://www.w3.org/2000/svg">
<path d="M9.8067 11.906H5.3827L4.2487 15H2.8487L6.8387 4.262H8.3507L12.3547 15H10.9547L9.8067 11.906ZM9.3447 10.688L7.5947 5.956L5.8447 10.688H9.3447ZM20.4806 7.258V15.154C20.4806 16.2087 20.2333 17.03 19.7386 17.618C19.2533 18.2153 18.3993 18.514 17.1766 18.514C16.5793 18.514 16.0613 18.4767 15.6226 18.402C15.1933 18.3273 14.7499 18.1967 14.2926 18.01V16.708C14.7219 16.904 15.1513 17.0487 15.5806 17.142C16.0099 17.2447 16.4066 17.296 16.7706 17.296C17.4426 17.296 17.9513 17.2073 18.2966 17.03C18.6419 16.862 18.8706 16.6147 18.9826 16.288C19.1039 15.9707 19.1646 15.546 19.1646 15.014V14.02C18.4273 14.6453 17.6806 14.958 16.9246 14.958C15.8793 14.958 15.0439 14.6173 14.4186 13.936C13.8026 13.2547 13.4946 12.2747 13.4946 10.996C13.4946 9.708 13.8073 8.728 14.4326 8.056C15.0579 7.37467 15.8886 7.034 16.9246 7.034C17.6713 7.034 18.4179 7.35133 19.1646 7.986V7.258H20.4806ZM17.1066 13.74C17.7879 13.74 18.4739 13.4507 19.1646 12.872V9.134C18.4926 8.55533 17.8066 8.266 17.1066 8.266C16.3786 8.266 15.8186 8.50867 15.4266 8.994C15.0439 9.47 14.8526 10.1373 14.8526 10.996C14.8526 11.8827 15.0439 12.564 15.4266 13.04C15.8093 13.5067 16.3693 13.74 17.1066 13.74Z" fill="#333333"/>
</svg>
