<svg width="24" height="24" viewBox="0 0 24 24" fill="none" xmlns="http://www.w3.org/2000/svg">
<path d="M9.56056 11.444H5.03856L3.66656 15H2.82656L6.95656 4.262H7.62856L11.7726 15H10.9326L9.56056 11.444ZM9.26656 10.688L7.29256 5.564L5.31856 10.688H9.26656ZM19.4509 7.356V15.252C19.4509 15.952 19.3762 16.5307 19.2269 16.988C19.0776 17.4547 18.7742 17.8233 18.3169 18.094C17.8596 18.374 17.1969 18.514 16.3289 18.514C15.8249 18.514 15.3909 18.4767 15.0269 18.402C14.6629 18.3273 14.2616 18.1967 13.8229 18.01V17.17C14.6349 17.562 15.4002 17.758 16.1189 17.758C16.8936 17.758 17.4629 17.6553 17.8269 17.45C18.2002 17.254 18.4382 16.9787 18.5409 16.624C18.6436 16.2693 18.6949 15.7653 18.6949 15.112V13.922C18.3402 14.2393 17.9669 14.4913 17.5749 14.678C17.1829 14.8647 16.7909 14.958 16.3989 14.958C15.7362 14.958 15.1529 14.804 14.6489 14.496C14.1542 14.188 13.7669 13.74 13.4869 13.152C13.2069 12.5547 13.0669 11.85 13.0669 11.038C13.0669 9.76867 13.3656 8.80267 13.9629 8.14C14.5696 7.468 15.3816 7.132 16.3989 7.132C16.7909 7.132 17.1829 7.22533 17.5749 7.412C17.9669 7.59867 18.3402 7.85067 18.6949 8.168V7.356H19.4509ZM16.3989 14.202C17.1922 14.202 17.9576 13.8567 18.6949 13.166V8.924C17.9576 8.23333 17.1922 7.888 16.3989 7.888C15.5776 7.888 14.9476 8.17267 14.5089 8.742C14.0702 9.302 13.8509 10.0673 13.8509 11.038C13.8509 12.0273 14.0702 12.802 14.5089 13.362C14.9476 13.922 15.5776 14.202 16.3989 14.202Z" fill="#333333"/>
</svg>
