<svg width="24" height="24" viewBox="0 0 24 24" fill="none" xmlns="http://www.w3.org/2000/svg">
<path d="M6.80928 15.992V17H3.15528V15.992L3.96728 15.74L7.17328 7.172L9.23128 7.116L12.2553 15.74L13.0533 15.992V17H9.03528V15.992L10.0013 15.712L9.58128 14.354H6.26328L5.80128 15.712L6.80928 15.992ZM6.71128 12.968H9.18928L8.04128 8.978L6.71128 12.968ZM16.4877 20.388C14.1823 20.388 13.0297 19.7767 13.0297 18.554C13.0297 17.826 13.4497 17.2613 14.2897 16.86C13.8977 16.7013 13.7017 16.4447 13.7017 16.09C13.7017 15.9967 13.725 15.8847 13.7717 15.754C13.8183 15.6233 13.9023 15.4507 14.0237 15.236C14.1543 15.012 14.3317 14.718 14.5557 14.354C13.7157 13.8967 13.2957 13.1547 13.2957 12.128C13.2957 11.26 13.5943 10.5833 14.1917 10.098C14.789 9.60333 15.6103 9.356 16.6557 9.356C17.309 9.356 17.883 9.454 18.3777 9.65L20.4777 9.58V10.63L19.6237 10.812C19.7263 10.9613 19.801 11.1387 19.8477 11.344C19.9037 11.54 19.9317 11.7593 19.9317 12.002C19.9317 12.87 19.6283 13.556 19.0217 14.06C18.415 14.5547 17.5983 14.802 16.5717 14.802C16.189 14.802 15.8157 14.76 15.4517 14.676L15.2837 15.768H17.7757C18.7183 15.768 19.4323 15.95 19.9177 16.314C20.403 16.678 20.6457 17.21 20.6457 17.91C20.6457 18.7127 20.2957 19.324 19.5957 19.744C18.905 20.1733 17.869 20.388 16.4877 20.388ZM16.5717 13.486C17.5143 13.486 17.9857 13.0053 17.9857 12.044C17.9857 11.1293 17.5377 10.672 16.6417 10.672C15.7177 10.672 15.2557 11.1387 15.2557 12.072C15.2557 13.0147 15.6943 13.486 16.5717 13.486ZM16.6557 19.016C17.393 19.016 17.9297 18.9367 18.2657 18.778C18.6017 18.6193 18.7697 18.386 18.7697 18.078C18.7697 17.7793 18.6577 17.56 18.4337 17.42C18.2097 17.28 17.8877 17.21 17.4677 17.21H15.3397C14.9383 17.5087 14.7377 17.8353 14.7377 18.19C14.7377 18.47 14.8917 18.6753 15.1997 18.806C15.5077 18.946 15.993 19.016 16.6557 19.016Z" fill="#333333"/>
</svg>
