<svg width="24" height="24" viewBox="0 0 24 24" fill="none" xmlns="http://www.w3.org/2000/svg">
<path d="M11.6319 16.636L11.4919 16.496L12.7099 16.72L12.6679 17H9.53195L9.58795 16.72L11.2399 16.51L11.1699 16.622L10.7219 14.032L10.8199 14.144H6.29795L6.46595 14.032L5.14995 16.622L5.09395 16.51L6.67595 16.72L6.61995 17H3.55395L3.60995 16.72L4.86995 16.496L4.70195 16.622L9.50395 7.312L9.95195 7.284L11.6319 16.636ZM6.53595 13.864L6.47995 13.766H10.7779L10.6939 13.878L9.61595 7.648H9.71395L6.53595 13.864ZM15.869 20.318C15.5237 20.318 15.155 20.276 14.763 20.192C14.3804 20.1173 13.9744 20.01 13.545 19.87L13.671 19.478C14.0817 19.6273 14.4737 19.7393 14.847 19.814C15.2204 19.898 15.5657 19.94 15.883 19.94C16.2377 19.94 16.555 19.8887 16.835 19.786C17.1244 19.6833 17.3717 19.5293 17.577 19.324C17.7917 19.1187 17.969 18.862 18.109 18.554C18.2584 18.246 18.361 17.882 18.417 17.462L18.977 13.976L19.103 13.878C18.8417 14.6247 18.5104 15.236 18.109 15.712C17.7077 16.188 17.2924 16.538 16.863 16.762C16.4337 16.986 16.0324 17.098 15.659 17.098C15.3137 17.098 14.9964 17.0047 14.707 16.818C14.4177 16.622 14.189 16.328 14.021 15.936C13.853 15.544 13.769 15.0353 13.769 14.41C13.769 13.7473 13.867 13.1267 14.063 12.548C14.259 11.9693 14.5344 11.456 14.889 11.008C15.2437 10.56 15.659 10.21 16.135 9.958C16.6204 9.706 17.143 9.58 17.703 9.58C18.011 9.58 18.3377 9.62667 18.683 9.72C19.0284 9.81333 19.3924 9.97667 19.775 10.21H19.593L19.789 9.678H20.069L18.837 17.434C18.7624 17.9473 18.6364 18.386 18.459 18.75C18.291 19.114 18.081 19.408 17.829 19.632C17.577 19.8653 17.283 20.038 16.947 20.15C16.6204 20.262 16.261 20.318 15.869 20.318ZM15.743 16.706C16.0417 16.706 16.3637 16.622 16.709 16.454C17.0544 16.2767 17.395 16.0107 17.731 15.656C18.067 15.3013 18.3657 14.8487 18.627 14.298C18.8884 13.7473 19.0797 13.094 19.201 12.338L19.523 10.336L19.621 10.546C19.285 10.3407 18.9537 10.1913 18.627 10.098C18.3097 10.0047 17.997 9.958 17.689 9.958C17.185 9.958 16.7184 10.0747 16.289 10.308C15.869 10.5413 15.505 10.8633 15.197 11.274C14.889 11.6753 14.6464 12.142 14.469 12.674C14.301 13.206 14.217 13.7707 14.217 14.368C14.217 15.1893 14.3664 15.7867 14.665 16.16C14.9637 16.524 15.323 16.706 15.743 16.706Z" fill="#888888"/>
</svg>
