<svg width="24" height="24" viewBox="0 0 24 24" fill="none" xmlns="http://www.w3.org/2000/svg">
<path d="M6.81836 16.398V17H3.37436V16.398L4.45236 16.16L7.78436 7.242L8.94636 7.2L12.0964 16.16L13.1744 16.398V17H9.53436V16.398L10.8224 16.146L10.1924 14.242H6.20236L5.50236 16.16L6.81836 16.398ZM6.46836 13.402H9.94036L8.28836 8.292L6.46836 13.402ZM16.5573 20.346C15.4653 20.346 14.6487 20.1873 14.1073 19.87C13.566 19.5527 13.2953 19.0953 13.2953 18.498C13.2953 17.77 13.7293 17.168 14.5973 16.692C14.224 16.608 14.0373 16.4073 14.0373 16.09C14.0373 16.006 14.0513 15.908 14.0793 15.796C14.1167 15.684 14.1867 15.5113 14.2893 15.278C14.392 15.0447 14.546 14.704 14.7513 14.256C13.986 13.8173 13.6033 13.108 13.6033 12.128C13.6033 11.3067 13.8693 10.6627 14.4013 10.196C14.9427 9.72 15.6847 9.482 16.6273 9.482C17.1873 9.482 17.682 9.57067 18.1113 9.748L20.1553 9.636L20.1693 10.322L19.0773 10.532C19.404 10.9147 19.5673 11.4093 19.5673 12.016C19.5673 12.8373 19.292 13.486 18.7413 13.962C18.1907 14.438 17.4627 14.676 16.5573 14.676C16.1093 14.676 15.694 14.6153 15.3113 14.494L15.0173 15.978H17.4953C18.4007 15.978 19.082 16.1553 19.5393 16.51C20.006 16.8553 20.2393 17.3547 20.2393 18.008C20.2393 18.764 19.9267 19.3427 19.3013 19.744C18.6853 20.1453 17.7707 20.346 16.5573 20.346ZM16.5433 13.892C17.15 13.892 17.6167 13.7333 17.9433 13.416C18.2793 13.0893 18.4473 12.632 18.4473 12.044C18.4473 11.4653 18.2887 11.0267 17.9713 10.728C17.654 10.42 17.2013 10.266 16.6133 10.266C16.016 10.266 15.554 10.4247 15.2273 10.742C14.9007 11.0593 14.7373 11.512 14.7373 12.1C14.7373 12.6693 14.8913 13.1127 15.1993 13.43C15.5167 13.738 15.9647 13.892 16.5433 13.892ZM16.6553 19.492C18.326 19.492 19.1613 19.0253 19.1613 18.092C19.1613 17.2613 18.5453 16.846 17.3133 16.846H15.2973C14.6253 17.3033 14.2893 17.784 14.2893 18.288C14.2893 19.0907 15.078 19.492 16.6553 19.492Z" fill="#333333"/>
</svg>
