<svg width="24" height="24" viewBox="0 0 24 24" fill="none" xmlns="http://www.w3.org/2000/svg">
<path d="M6.8089 16.608V17H3.4909V16.608L4.6949 16.398L8.1109 7.284L8.7969 7.256L12.0169 16.398L13.2349 16.608V17H9.7909V16.608L11.2609 16.384L10.5049 14.172H6.1509L5.3389 16.398L6.8089 16.608ZM6.3329 13.64H10.3369L8.4189 7.956L6.3329 13.64ZM16.6062 20.318C15.5515 20.318 14.7582 20.1593 14.2262 19.842C13.6942 19.5247 13.4282 19.0673 13.4282 18.47C13.4282 17.742 13.8762 17.1167 14.7722 16.594C14.3988 16.5473 14.2122 16.384 14.2122 16.104C14.2122 16.02 14.2215 15.9267 14.2402 15.824C14.2682 15.7213 14.3242 15.5533 14.4082 15.32C14.5015 15.0773 14.6462 14.704 14.8422 14.2C14.1235 13.7707 13.7642 13.0847 13.7642 12.142C13.7642 11.3393 14.0162 10.7093 14.5202 10.252C15.0335 9.78533 15.7335 9.552 16.6202 9.552C17.1335 9.552 17.5862 9.63133 17.9782 9.79L19.9802 9.678L19.9942 10.126L18.7482 10.364C19.1588 10.7747 19.3642 11.3253 19.3642 12.016C19.3642 12.8187 19.1075 13.4533 18.5942 13.92C18.0808 14.3867 17.3902 14.62 16.5222 14.62C16.0275 14.62 15.5842 14.536 15.1922 14.368L14.8142 16.104H17.3342C18.2115 16.104 18.8788 16.272 19.3362 16.608C19.8028 16.944 20.0362 17.434 20.0362 18.078C20.0362 18.806 19.7422 19.3613 19.1542 19.744C18.5755 20.1267 17.7262 20.318 16.6062 20.318ZM16.5222 14.102C17.2035 14.102 17.7308 13.9247 18.1042 13.57C18.4868 13.206 18.6782 12.6973 18.6782 12.044C18.6782 11.4 18.4962 10.91 18.1322 10.574C17.7775 10.2287 17.2642 10.056 16.5922 10.056C15.9202 10.056 15.3975 10.238 15.0242 10.602C14.6508 10.9567 14.4642 11.4607 14.4642 12.114C14.4642 12.7487 14.6415 13.2387 14.9962 13.584C15.3602 13.9293 15.8688 14.102 16.5222 14.102ZM16.6482 19.786C18.4588 19.786 19.3642 19.2307 19.3642 18.12C19.3642 17.14 18.6502 16.65 17.2222 16.65H15.2762C14.4548 17.1913 14.0442 17.7607 14.0442 18.358C14.0442 19.31 14.9122 19.786 16.6482 19.786Z" fill="#333333"/>
</svg>
