<svg width="24" height="24" viewBox="0 0 24 24" fill="none" xmlns="http://www.w3.org/2000/svg">
<path d="M7.99414 6.15137H8.79395L10.9062 15.749C10.9609 15.986 11.0407 16.1592 11.1455 16.2686C11.2503 16.3779 11.4189 16.4531 11.6514 16.4941V17H9.28613V16.4941C9.66895 16.4577 9.86035 16.3232 9.86035 16.0908C9.86035 16.0179 9.84896 15.929 9.82617 15.8242L9.32715 13.1445H7.2832L6.79102 15.626C6.79102 15.6351 6.78874 15.6533 6.78418 15.6807C6.77507 15.7354 6.75911 15.8174 6.73633 15.9268C6.72721 15.9769 6.72266 16.0225 6.72266 16.0635C6.72266 16.1729 6.79557 16.2754 6.94141 16.3711C7.04622 16.4395 7.16016 16.4805 7.2832 16.4941V17H5.33496V16.4941C5.53092 16.4486 5.6722 16.3825 5.75879 16.2959C5.85905 16.1956 5.93652 16.0133 5.99121 15.749L7.99414 6.15137ZM8.27441 7.62109L7.36523 12.4473H9.18359L8.27441 7.62109ZM13.9619 15.1953C13.4469 14.9902 13.1895 14.6644 13.1895 14.2178C13.1895 13.7848 13.4378 13.4749 13.9346 13.2881C13.4469 12.8916 13.2031 12.2969 13.2031 11.5039C13.2031 10.9889 13.3307 10.5264 13.5859 10.1162C13.9915 9.47819 14.5521 9.15918 15.2676 9.15918C15.8099 9.15918 16.2428 9.3597 16.5664 9.76074C16.7396 9.41895 16.9811 9.16829 17.291 9.00879C17.4642 8.9222 17.626 8.87891 17.7764 8.87891C17.9678 8.87891 18.1341 8.95182 18.2754 9.09766C18.4395 9.27083 18.5215 9.48503 18.5215 9.74023C18.5215 10.1641 18.3369 10.376 17.9678 10.376C17.8402 10.376 17.7285 10.335 17.6328 10.2529C17.5052 10.1481 17.4414 10 17.4414 9.80859C17.4414 9.74479 17.4528 9.6696 17.4756 9.58301C17.2842 9.59668 17.1019 9.78125 16.9287 10.1367C17.1885 10.5469 17.3184 11.0072 17.3184 11.5176C17.3184 12.1465 17.1771 12.6546 16.8945 13.042C16.5391 13.516 16.0059 13.7529 15.2949 13.7529C14.9805 13.7529 14.7048 13.7096 14.4678 13.623C14.1579 13.6595 14.0029 13.8145 14.0029 14.0879C14.0029 14.2565 14.0804 14.3796 14.2354 14.457C14.3994 14.5391 14.6387 14.5983 14.9531 14.6348L16.0879 14.7578C16.7031 14.8262 17.1657 14.988 17.4756 15.2432C17.8584 15.5531 18.0498 16.027 18.0498 16.665C18.0498 18.0003 17.1452 18.668 15.3359 18.668C14.6159 18.668 14.0371 18.5107 13.5996 18.1963C13.1029 17.8363 12.8545 17.3304 12.8545 16.6787C12.8545 15.9814 13.2236 15.5098 13.9619 15.2637V15.1953ZM15.2539 9.78809C14.8893 9.78809 14.6022 9.96582 14.3926 10.3213C14.2057 10.6403 14.1123 11.0436 14.1123 11.5312C14.1123 11.9095 14.1693 12.2285 14.2832 12.4883C14.4746 12.9212 14.805 13.1377 15.2744 13.1377C15.6572 13.1377 15.9512 12.9714 16.1562 12.6387C16.334 12.347 16.4229 11.9688 16.4229 11.5039C16.4229 10.9342 16.2816 10.4831 15.999 10.1504C15.7939 9.90885 15.5456 9.78809 15.2539 9.78809ZM15.3496 15.585C14.2467 15.585 13.6953 15.9336 13.6953 16.6309C13.6953 16.9271 13.7933 17.1982 13.9893 17.4443C14.3128 17.8499 14.7731 18.0527 15.3701 18.0527C15.7757 18.0527 16.1221 17.9707 16.4092 17.8066C16.8467 17.556 17.0654 17.1914 17.0654 16.7129C17.0654 15.9609 16.4935 15.585 15.3496 15.585Z" fill="#888888"/>
</svg>
