<svg width="24" height="24" viewBox="0 0 24 24" fill="none" xmlns="http://www.w3.org/2000/svg">
<path d="M6.10584 15.334H8.87784L9.26984 17H12.8118L10.0958 6.5H4.90184L2.18584 17H5.72784L6.10584 15.334ZM7.58984 9.72L8.26184 12.66H6.72184L7.40784 9.72H7.58984ZM13.0141 19.268L13.4481 16.762C14.4094 17.0887 15.5247 17.252 16.7941 17.252C16.9807 17.252 17.1394 17.2473 17.2701 17.238C17.4101 17.238 17.5174 17.2333 17.5921 17.224V16.636C17.0881 16.636 16.6774 16.6267 16.3601 16.608C16.0427 16.58 15.8047 16.5427 15.6461 16.496C15.3287 16.412 15.1281 16.328 15.0441 16.244C14.9414 16.16 14.8807 16.0947 14.8621 16.048C14.8434 15.992 14.8341 15.9127 14.8341 15.81L15.3381 14.368C14.5354 14.2187 13.9241 13.9153 13.5041 13.458C13.0841 12.9913 12.8741 12.268 12.8741 11.288C12.8741 10.3173 13.2054 9.58467 13.8681 9.09C14.5307 8.59533 15.6041 8.348 17.0881 8.348C17.3587 8.348 17.6107 8.35733 17.8441 8.376C18.0774 8.38533 18.3014 8.40867 18.5161 8.446L19.9861 7.326L21.7501 9.02L20.7841 10.14C20.9334 10.5227 21.0081 11.0267 21.0081 11.652C21.0081 12.0907 20.9567 12.4733 20.8541 12.8C20.7514 13.1267 20.5787 13.402 20.3361 13.626C20.1027 13.85 19.7947 14.0273 19.4121 14.158C19.0294 14.2793 18.5534 14.3633 17.9841 14.41L17.9141 14.816C18.5207 14.8533 19.0341 14.914 19.4541 14.998C19.8741 15.0727 20.2147 15.194 20.4761 15.362C20.7374 15.53 20.9241 15.7447 21.0361 16.006C21.1574 16.2673 21.2181 16.5987 21.2181 17C21.2181 17.672 21.0827 18.1947 20.8121 18.568C20.5414 18.9413 20.1867 19.2167 19.7481 19.394C19.3187 19.5713 18.8287 19.6787 18.2781 19.716C17.7367 19.7533 17.1907 19.772 16.6401 19.772C15.5294 19.772 14.3207 19.604 13.0141 19.268ZM16.0381 11.288V12.38H16.5561C16.9574 12.38 17.2514 12.338 17.4381 12.254C17.6247 12.17 17.7181 11.9787 17.7181 11.68V10.588H17.1861C16.7847 10.588 16.4907 10.63 16.3041 10.714C16.1267 10.798 16.0381 10.9893 16.0381 11.288Z" fill="#888888"/>
</svg>
