<svg width="24" height="24" viewBox="0 0 24 24" fill="none" xmlns="http://www.w3.org/2000/svg">
<path d="M11.848 5.024H11.82C11.8387 5.04267 11.848 5.04267 11.848 5.024C11.8573 5.024 11.862 5.02867 11.862 5.038C11.8713 5.04733 11.8853 5.04733 11.904 5.038C11.904 5.066 11.8993 5.08467 11.89 5.094C11.9367 5.15 11.974 5.22 12.002 5.304C12.03 5.388 12.0487 5.458 12.058 5.514C12.0673 5.57 12.0767 5.66333 12.086 5.794C12.0953 5.91533 12.1047 5.99467 12.114 6.032C12.1233 6.05067 12.114 6.06 12.086 6.06L12.114 6.116C12.114 6.13467 12.1093 6.14867 12.1 6.158C12.0907 6.16733 12.086 6.17667 12.086 6.186C12.0953 6.22333 12.1 6.26067 12.1 6.298C12.1 6.326 12.1 6.354 12.1 6.382C12.0813 6.41933 12.0767 6.48933 12.086 6.592C12.0953 6.68533 12.0813 6.746 12.044 6.774C12.0627 6.84867 12.058 6.96533 12.03 7.124C12.002 7.28267 11.988 7.38533 11.988 7.432C11.988 7.44133 11.9787 7.45533 11.96 7.474C11.9693 7.53 11.9647 7.60933 11.946 7.712C11.9273 7.80533 11.9227 7.87533 11.932 7.922C11.876 8.05267 11.8527 8.14133 11.862 8.188C11.8433 8.216 11.8293 8.272 11.82 8.356C11.8107 8.43067 11.792 8.482 11.764 8.51C11.7733 8.51 11.778 8.51467 11.778 8.524L11.792 8.552L11.75 8.636L11.778 8.664H11.736C11.7267 8.68267 11.7173 8.72933 11.708 8.804C11.708 8.86933 11.6987 8.916 11.68 8.944C11.68 8.96267 11.6707 9 11.652 9.056C11.6427 9.112 11.6427 9.15867 11.652 9.196H11.624C11.6427 9.23333 11.652 9.26133 11.652 9.28C11.624 9.28933 11.6053 9.31733 11.596 9.364C11.596 9.41067 11.5867 9.434 11.568 9.434C11.5773 9.47133 11.5773 9.518 11.568 9.574C11.568 9.62067 11.568 9.65333 11.568 9.672C11.624 9.68133 11.7173 9.66733 11.848 9.63V9.644C12.1373 9.616 12.3147 9.588 12.38 9.56C12.38 9.588 12.3987 9.59733 12.436 9.588C12.4733 9.56933 12.4967 9.56 12.506 9.56V9.588C12.5713 9.588 12.6507 9.58333 12.744 9.574C12.8467 9.55533 12.9307 9.546 12.996 9.546V9.574C13.1827 9.53667 13.3787 9.52733 13.584 9.546C13.6493 9.52733 13.6913 9.518 13.71 9.518C13.738 9.518 13.7847 9.52733 13.85 9.546C13.9153 9.55533 13.9667 9.56 14.004 9.56C14.004 9.54133 13.9947 9.53667 13.976 9.546C14.0413 9.518 14.0973 9.52733 14.144 9.574C14.1907 9.55533 14.2747 9.57867 14.396 9.644C14.3213 9.71867 14.214 9.77 14.074 9.798C14.018 9.854 13.9293 9.882 13.808 9.882C13.7987 9.89133 13.724 9.91933 13.584 9.966L13.514 10.036C13.4953 10.036 13.486 10.0313 13.486 10.022C13.458 10.0407 13.4067 10.05 13.332 10.05C13.2667 10.05 13.22 10.0547 13.192 10.064C13.1827 10.064 13.178 10.078 13.178 10.106C13.178 10.0967 13.1687 10.0967 13.15 10.106C13.1407 10.106 13.136 10.106 13.136 10.106C13.1267 10.1153 13.1173 10.12 13.108 10.12C13.108 10.12 13.108 10.1153 13.108 10.106C13.0893 10.106 13.08 10.12 13.08 10.148C13.0427 10.148 13.0147 10.1387 12.996 10.12C12.9867 10.1293 12.9633 10.1387 12.926 10.148C12.898 10.1573 12.8793 10.1713 12.87 10.19C12.8233 10.1993 12.7487 10.1993 12.646 10.19C12.5527 10.1807 12.4967 10.1947 12.478 10.232C12.4593 10.2227 12.4313 10.2227 12.394 10.232C12.3567 10.2413 12.3287 10.2367 12.31 10.218C12.2913 10.2273 12.2633 10.2413 12.226 10.26C12.198 10.2787 12.1747 10.2927 12.156 10.302C12.156 10.33 12.1793 10.3393 12.226 10.33C12.2727 10.3113 12.3053 10.302 12.324 10.302C12.324 10.3113 12.3193 10.316 12.31 10.316C12.31 10.316 12.31 10.3207 12.31 10.33H12.338C12.3567 10.33 12.3613 10.3253 12.352 10.316C12.3427 10.3067 12.338 10.2973 12.338 10.288L12.366 10.274C12.394 10.302 12.408 10.302 12.408 10.274C12.4267 10.302 12.4267 10.3253 12.408 10.344C12.38 10.344 12.3333 10.3533 12.268 10.372C12.2027 10.3813 12.1513 10.3813 12.114 10.372C12.0767 10.372 12.058 10.3813 12.058 10.4C11.9927 10.4 11.9227 10.4047 11.848 10.414C11.7733 10.4233 11.722 10.428 11.694 10.428C11.694 10.4187 11.6987 10.4093 11.708 10.4H11.736C11.736 10.3627 11.7173 10.3627 11.68 10.4C11.6707 10.4 11.6333 10.4 11.568 10.4C11.5027 10.4 11.47 10.4093 11.47 10.428H11.526L11.47 10.484C11.47 10.512 11.4653 10.526 11.456 10.526C11.484 10.5447 11.4887 10.5633 11.47 10.582C11.47 10.6007 11.4793 10.6613 11.498 10.764C11.4887 10.7733 11.4793 10.778 11.47 10.778C11.47 10.778 11.4653 10.778 11.456 10.778C11.484 10.89 11.4607 10.9647 11.386 11.002C11.386 11.03 11.3767 11.044 11.358 11.044C11.3673 11.1093 11.3673 11.156 11.358 11.184H11.316C11.316 11.1933 11.316 11.2073 11.316 11.226C11.3253 11.2447 11.33 11.2633 11.33 11.282H11.302C11.302 11.2913 11.302 11.3147 11.302 11.352C11.302 11.38 11.3067 11.3987 11.316 11.408C11.316 11.4267 11.3113 11.436 11.302 11.436C11.302 11.4453 11.2973 11.4733 11.288 11.52C11.288 11.5667 11.2973 11.59 11.316 11.59C11.288 11.6647 11.2787 11.7813 11.288 11.94C11.3067 12.0893 11.2973 12.2013 11.26 12.276C11.2693 12.2853 11.2833 12.29 11.302 12.29C11.2927 12.318 11.2833 12.3693 11.274 12.444C11.274 12.5187 11.26 12.57 11.232 12.598C11.288 12.6727 11.2787 12.724 11.204 12.752C11.204 12.7613 11.2087 12.7707 11.218 12.78C11.2273 12.7893 11.2273 12.8033 11.218 12.822H11.162C11.162 12.85 11.1527 12.892 11.134 12.948C11.1247 13.004 11.1247 13.0507 11.134 13.088H11.162V13.116C11.1713 13.116 11.1807 13.116 11.19 13.116C11.2087 13.116 11.2227 13.116 11.232 13.116C11.2507 13.1347 11.2507 13.158 11.232 13.186C11.2227 13.2047 11.218 13.2233 11.218 13.242C11.2087 13.2513 11.1993 13.2513 11.19 13.242C11.1807 13.2233 11.1713 13.214 11.162 13.214C11.1527 13.214 11.148 13.228 11.148 13.256C11.1573 13.2653 11.1667 13.27 11.176 13.27C11.1947 13.27 11.2133 13.27 11.232 13.27V13.298C11.1573 13.3727 11.148 13.4287 11.204 13.466C11.204 13.494 11.1947 13.508 11.176 13.508L11.19 13.522L11.204 13.536C11.1573 13.5827 11.134 13.6247 11.134 13.662H11.078C11.078 13.7833 11.0733 13.8487 11.064 13.858C11.0827 13.914 11.106 13.9467 11.134 13.956C11.134 13.9467 11.1387 13.9327 11.148 13.914C11.1667 13.8953 11.1713 13.8767 11.162 13.858C11.1807 13.858 11.19 13.858 11.19 13.858C11.1993 13.858 11.2133 13.8627 11.232 13.872C11.26 13.872 11.2833 13.872 11.302 13.872C11.3113 13.8907 11.3067 13.9047 11.288 13.914C11.2693 13.914 11.26 13.9187 11.26 13.928C11.2413 13.9093 11.2227 13.9 11.204 13.9C11.1947 13.9 11.1853 13.9093 11.176 13.928C11.176 13.9373 11.1713 13.9373 11.162 13.928C11.162 13.984 11.1573 14.012 11.148 14.012L11.162 14.026L11.176 14.054C11.176 14.1007 11.162 14.1333 11.134 14.152C11.1527 14.1707 11.1573 14.1893 11.148 14.208C11.1387 14.2267 11.1387 14.2453 11.148 14.264C11.1387 14.264 11.1293 14.2593 11.12 14.25C11.1107 14.2407 11.1013 14.2407 11.092 14.25L11.078 14.264C11.0687 14.2733 11.0593 14.2733 11.05 14.264C11.0407 14.2827 11.036 14.306 11.036 14.334C11.036 14.362 11.0313 14.3853 11.022 14.404C11.022 14.4133 11.0173 14.4227 11.008 14.432V14.656C11.036 14.6467 11.0453 14.6187 11.036 14.572C11.036 14.5253 11.0453 14.502 11.064 14.502V14.39C11.0733 14.39 11.0827 14.3947 11.092 14.404C11.1013 14.404 11.1107 14.404 11.12 14.404C11.1107 14.3853 11.0967 14.376 11.078 14.376C11.0873 14.348 11.106 14.3293 11.134 14.32C11.1433 14.3387 11.148 14.3573 11.148 14.376C11.1387 14.3947 11.1387 14.4087 11.148 14.418H11.12C11.12 14.446 11.1153 14.46 11.106 14.46C11.1153 14.4693 11.1247 14.474 11.134 14.474C11.1433 14.4647 11.1527 14.4647 11.162 14.474L11.134 14.488V14.516C11.0967 14.5253 11.078 14.5673 11.078 14.642C11.0687 14.642 11.064 14.6467 11.064 14.656C11.064 14.656 11.064 14.6607 11.064 14.67C11.0733 14.67 11.078 14.6607 11.078 14.642C11.0967 14.6327 11.1107 14.6187 11.12 14.6C11.1293 14.5813 11.1387 14.572 11.148 14.572C11.176 14.6747 11.1527 14.7447 11.078 14.782C11.078 14.7447 11.064 14.712 11.036 14.684C11.0173 14.6933 11.008 14.7447 11.008 14.838C10.9987 14.838 10.9893 14.8333 10.98 14.824H10.966C10.966 14.8987 10.9753 14.95 10.994 14.978C10.994 14.9873 10.9893 15.006 10.98 15.034C10.98 15.0713 10.9847 15.0947 10.994 15.104C10.9847 15.1227 10.98 15.188 10.98 15.3L10.966 15.314C10.9567 15.3233 10.9473 15.328 10.938 15.328C10.938 15.356 10.9473 15.37 10.966 15.37C10.9753 15.3793 10.9707 15.384 10.952 15.384L10.938 15.398C10.938 15.4167 10.9473 15.426 10.966 15.426C10.966 15.4353 10.9567 15.4587 10.938 15.496C10.9473 15.5053 10.9567 15.5007 10.966 15.482C10.9753 15.4633 10.9893 15.4587 11.008 15.468C11.008 15.4867 11.0173 15.496 11.036 15.496L11.022 15.51L11.008 15.496C11.0173 15.5333 11.022 15.58 11.022 15.636C11.022 15.6827 11.022 15.7247 11.022 15.762C11.0033 15.7807 10.994 15.7947 10.994 15.804C10.994 15.8133 11.0033 15.818 11.022 15.818V15.804C11.022 15.7853 11.036 15.7807 11.064 15.79C11.0453 15.7807 11.0453 15.7573 11.064 15.72C11.092 15.6733 11.0967 15.6407 11.078 15.622C11.106 15.594 11.12 15.5753 11.12 15.566C11.148 15.566 11.1573 15.5893 11.148 15.636V15.72C11.1387 15.7387 11.12 15.748 11.092 15.748C11.092 15.7667 11.1013 15.7713 11.12 15.762H11.148C11.148 15.7807 11.148 15.7993 11.148 15.818C11.1573 15.8273 11.162 15.8367 11.162 15.846C11.1527 15.8553 11.1387 15.86 11.12 15.86C11.1013 15.86 11.0873 15.86 11.078 15.86C11.0967 15.9067 11.0967 15.9533 11.078 16C11.0593 16.0467 11.0547 16.0887 11.064 16.126H11.036C11.0547 16.2193 11.0453 16.2847 11.008 16.322C11.0267 16.5833 11.0313 16.7467 11.022 16.812C11.0593 16.8773 11.0687 16.9613 11.05 17.064C11.05 17.0827 11.064 17.092 11.092 17.092C11.092 17.1013 11.092 17.1153 11.092 17.134C11.092 17.162 11.0873 17.1807 11.078 17.19C11.078 17.1993 11.0687 17.204 11.05 17.204C11.0687 17.204 11.078 17.232 11.078 17.288C11.078 17.344 11.078 17.3767 11.078 17.386C11.0687 17.3953 11.064 17.4 11.064 17.4H11.05C11.0593 17.4093 11.064 17.4233 11.064 17.442C11.064 17.47 11.0733 17.4933 11.092 17.512L11.064 17.526L11.036 17.54C11.0267 17.5307 11.008 17.5213 10.98 17.512C10.952 17.512 10.9333 17.512 10.924 17.512C10.9333 17.5587 10.9193 17.6147 10.882 17.68C10.854 17.7453 10.8493 17.8013 10.868 17.848L10.854 17.862V17.89C10.8633 17.89 10.868 17.8853 10.868 17.876C10.868 17.8947 10.8353 17.918 10.77 17.946C10.7047 17.974 10.6673 18.002 10.658 18.03C10.6487 18.0393 10.63 18.044 10.602 18.044C10.574 18.044 10.5553 18.058 10.546 18.086C10.5367 18.086 10.532 18.0813 10.532 18.072C10.532 18.072 10.5273 18.072 10.518 18.072C10.546 18.1747 10.5553 18.2307 10.546 18.24C10.546 18.2307 10.5413 18.2167 10.532 18.198C10.532 18.1793 10.5273 18.1653 10.518 18.156C10.49 18.184 10.4713 18.198 10.462 18.198C10.49 18.2073 10.504 18.2307 10.504 18.268C10.4573 18.2867 10.4293 18.2867 10.42 18.268C10.392 18.3427 10.336 18.3567 10.252 18.31C10.2427 18.2727 10.2193 18.226 10.182 18.17V18.114C10.154 18.1047 10.14 18.0767 10.14 18.03C10.14 17.9833 10.1307 17.96 10.112 17.96C10.1307 17.8853 10.1493 17.834 10.168 17.806C10.1493 17.7967 10.1353 17.7687 10.126 17.722C10.126 17.6847 10.112 17.6613 10.084 17.652C10.0933 17.6147 10.0793 17.5493 10.042 17.456H10.056C10.056 17.456 10.0607 17.4513 10.07 17.442C10.0607 17.4327 10.056 17.4093 10.056 17.372C10.056 17.3347 10.0467 17.3113 10.028 17.302C10.028 17.2927 10.028 17.2833 10.028 17.274C10.0373 17.2553 10.042 17.2413 10.042 17.232C10.042 17.2227 10.0373 17.2087 10.028 17.19H10L10.028 17.176L9.98602 17.092C9.98602 16.952 9.97668 16.8633 9.95802 16.826C9.96735 16.77 9.96735 16.7233 9.95802 16.686C9.95802 16.658 9.94868 16.6113 9.93002 16.546C9.92068 16.49 9.91602 16.4433 9.91602 16.406C9.91602 16.3967 9.92068 16.392 9.93002 16.392C9.94868 16.4013 9.96268 16.4013 9.97202 16.392V16.378C9.96268 16.3687 9.95802 16.3593 9.95802 16.35C9.97668 16.3593 9.99535 16.3593 10.014 16.35V16.322L9.93002 16.28V16.112C9.90202 16.1307 9.88802 16.1167 9.88802 16.07C9.90668 16.0887 9.93935 16.084 9.98602 16.056C9.96735 16.028 9.96735 16.0093 9.98602 16C9.95802 15.972 9.93935 15.958 9.93002 15.958L9.91602 15.972C9.91602 15.9813 9.90668 15.9813 9.88802 15.972C9.89735 16 9.90202 16.028 9.90202 16.056C9.89268 16.056 9.87868 16.0093 9.86002 15.916C9.86935 15.916 9.87868 15.916 9.88802 15.916C9.89735 15.9067 9.91135 15.902 9.93002 15.902C9.93002 15.874 9.91135 15.8507 9.87402 15.832C9.89268 15.776 9.90668 15.748 9.91602 15.748C9.89735 15.748 9.89268 15.7387 9.90202 15.72C9.91135 15.7013 9.90668 15.6873 9.88802 15.678C9.89735 15.6687 9.90668 15.664 9.91602 15.664C9.93468 15.664 9.94868 15.664 9.95802 15.664C9.95802 15.6547 9.94868 15.65 9.93002 15.65C9.92068 15.6407 9.92068 15.6313 9.93002 15.622V15.538C9.95802 15.5007 9.97202 15.4213 9.97202 15.3C9.97202 15.1787 9.97668 15.0993 9.98602 15.062C9.98602 15.0527 9.98135 15.0433 9.97202 15.034L9.95802 15.02C9.98602 14.9173 9.98602 14.8473 9.95802 14.81C9.96735 14.8193 9.97668 14.8193 9.98602 14.81C9.96735 14.7913 9.96735 14.782 9.98602 14.782C9.98602 14.7727 9.97202 14.768 9.94402 14.768C9.98135 14.5907 9.97668 14.4973 9.93002 14.488V14.362C9.93935 14.362 9.94402 14.3667 9.94402 14.376C9.94402 14.3947 9.94868 14.4087 9.95802 14.418C9.96735 14.418 9.97202 14.418 9.97202 14.418C9.97202 14.4087 9.97668 14.404 9.98602 14.404C9.97668 14.3667 9.95802 14.348 9.93002 14.348C9.93935 14.3387 9.94402 14.306 9.94402 14.25L9.97202 14.236C9.98135 14.236 9.98602 14.2313 9.98602 14.222C9.98602 14.2127 9.98135 14.2033 9.97202 14.194C9.97202 14.1753 9.96735 14.1567 9.95802 14.138C9.95802 14.11 9.95802 14.0867 9.95802 14.068C9.99535 14.0307 10.0093 13.9653 10 13.872C10 13.7787 10.0093 13.7133 10.028 13.676H10.042H10.028C10.0187 13.676 10.014 13.6713 10.014 13.662C10.0233 13.6527 10.028 13.634 10.028 13.606C10.028 13.578 10.0233 13.5593 10.014 13.55C10.014 13.5407 10.0187 13.536 10.028 13.536C10.0467 13.5267 10.056 13.5173 10.056 13.508V13.536C10.056 13.5453 10.0607 13.5547 10.07 13.564H10.084C10.112 13.5453 10.1073 13.5173 10.07 13.48L10.056 13.494L10.028 13.508C10.028 13.4613 10.028 13.4053 10.028 13.34C10.028 13.2747 10.0233 13.2187 10.014 13.172C10.0047 13.1627 10.0093 13.1533 10.028 13.144H10.042C10.042 13.1253 10.0373 13.116 10.028 13.116C10.028 13.1067 10.028 13.0973 10.028 13.088C10.0373 13.088 10.042 13.074 10.042 13.046C10.0513 13.018 10.0513 12.99 10.042 12.962C10.042 12.934 10.0373 12.92 10.028 12.92C10.0093 12.892 10.0187 12.878 10.056 12.878C10.0467 12.8687 10.042 12.836 10.042 12.78C10.042 12.724 10.028 12.6867 10 12.668C10.0187 12.6493 10.0187 12.6213 10 12.584C9.99068 12.5467 9.98602 12.514 9.98602 12.486H10.028C10.028 12.458 10.0327 12.444 10.042 12.444L10.014 12.43H9.98602C9.99535 12.4207 10 12.3927 10 12.346C10.0093 12.2993 10.0233 12.2667 10.042 12.248H9.98602C9.99535 12.2293 10.0047 12.2153 10.014 12.206C10.0233 12.1967 10.0327 12.1827 10.042 12.164C10.014 12.164 10.0093 12.1453 10.028 12.108C10.0467 12.0987 10.098 12.0613 10.182 11.996V11.94C10.1913 11.9307 10.2007 11.9307 10.21 11.94L10.224 11.954C10.2333 11.954 10.238 11.9447 10.238 11.926C10.2473 11.9073 10.2613 11.898 10.28 11.898C10.28 11.926 10.252 11.9727 10.196 12.038C10.196 12.066 10.21 12.0753 10.238 12.066C10.238 12.0847 10.2287 12.094 10.21 12.094C10.21 12.1033 10.2053 12.108 10.196 12.108C10.196 12.108 10.196 12.1127 10.196 12.122C10.196 12.1313 10.2053 12.136 10.224 12.136H10.252C10.2427 12.1453 10.2333 12.15 10.224 12.15C10.2053 12.1593 10.1913 12.164 10.182 12.164C10.21 12.2013 10.2333 12.2107 10.252 12.192C10.2613 12.2293 10.2287 12.2713 10.154 12.318C10.1633 12.3273 10.182 12.3367 10.21 12.346L10.252 12.36C10.2333 12.36 10.224 12.3833 10.224 12.43H10.21C10.21 12.4393 10.21 12.4533 10.21 12.472C10.21 12.4907 10.2053 12.5047 10.196 12.514C10.2053 12.514 10.2147 12.5233 10.224 12.542C10.2333 12.5513 10.2427 12.556 10.252 12.556C10.252 12.5653 10.2567 12.57 10.266 12.57C10.266 12.5887 10.2567 12.6167 10.238 12.654C10.2287 12.682 10.2333 12.7053 10.252 12.724C10.224 12.7333 10.2147 12.7567 10.224 12.794C10.2053 12.794 10.196 12.8033 10.196 12.822C10.1773 12.8407 10.1633 12.85 10.154 12.85C10.1727 12.878 10.1773 12.9153 10.168 12.962C10.168 12.9993 10.1727 13.032 10.182 13.06H10.14C10.1493 13.0787 10.1633 13.088 10.182 13.088V13.144C10.1727 13.1533 10.1587 13.1627 10.14 13.172C10.1213 13.1813 10.1073 13.1953 10.098 13.214C10.098 13.2327 10.112 13.242 10.14 13.242C10.1493 13.242 10.154 13.2327 10.154 13.214L10.14 13.312C10.14 13.3867 10.154 13.4333 10.182 13.452C10.2007 13.452 10.21 13.424 10.21 13.368C10.2473 13.3587 10.252 13.3213 10.224 13.256C10.224 13.2467 10.2333 13.242 10.252 13.242C10.252 13.2327 10.2613 13.1907 10.28 13.116C10.2893 13.1067 10.2987 13.1067 10.308 13.116C10.3267 13.1253 10.3267 13.1347 10.308 13.144C10.3267 13.1533 10.3407 13.1533 10.35 13.144L10.336 13.172C10.336 13.1907 10.3453 13.2 10.364 13.2C10.3827 13.2 10.392 13.1907 10.392 13.172C10.4107 13.1907 10.3967 13.2187 10.35 13.256C10.35 13.2653 10.3547 13.2747 10.364 13.284C10.3733 13.284 10.378 13.2933 10.378 13.312C10.3687 13.3027 10.3593 13.3027 10.35 13.312C10.3407 13.3213 10.3313 13.326 10.322 13.326C10.3313 13.3353 10.3407 13.3447 10.35 13.354L10.364 13.368C10.364 13.3867 10.35 13.4053 10.322 13.424C10.3033 13.4427 10.2987 13.4613 10.308 13.48C10.3173 13.4893 10.322 13.4847 10.322 13.466C10.3313 13.4473 10.3407 13.438 10.35 13.438C10.3593 13.4473 10.364 13.4613 10.364 13.48L10.378 13.508H10.35C10.35 13.5173 10.3547 13.5267 10.364 13.536C10.3733 13.5453 10.378 13.5547 10.378 13.564C10.3593 13.564 10.3453 13.5687 10.336 13.578C10.3267 13.5873 10.3173 13.6013 10.308 13.62C10.308 13.6387 10.3033 13.6527 10.294 13.662H10.336C10.336 13.6713 10.3313 13.6853 10.322 13.704L10.308 13.732C10.308 13.7413 10.308 13.7553 10.308 13.774C10.3173 13.7927 10.3267 13.8067 10.336 13.816C10.336 13.8253 10.3267 13.8347 10.308 13.844C10.2893 13.844 10.28 13.8487 10.28 13.858C10.2707 13.8767 10.2613 13.9093 10.252 13.956C10.252 13.9933 10.2473 14.0307 10.238 14.068C10.238 14.096 10.224 14.11 10.196 14.11C10.1867 14.1287 10.1867 14.1567 10.196 14.194C10.2053 14.2313 10.2007 14.25 10.182 14.25C10.1913 14.2593 10.2007 14.264 10.21 14.264C10.2193 14.264 10.2287 14.2687 10.238 14.278C10.238 14.3247 10.2427 14.3527 10.252 14.362C10.252 14.3713 10.2473 14.376 10.238 14.376C10.238 14.376 10.238 14.3807 10.238 14.39C10.2473 14.418 10.2427 14.46 10.224 14.516C10.2147 14.5627 10.2193 14.5953 10.238 14.614C10.2287 14.6327 10.2147 14.6513 10.196 14.67C10.1773 14.6793 10.1633 14.6887 10.154 14.698L10.182 14.782C10.21 14.7727 10.224 14.7773 10.224 14.796V14.824V14.838V14.824C10.2333 14.824 10.238 14.81 10.238 14.782C10.238 14.7447 10.252 14.7213 10.28 14.712C10.2613 14.768 10.252 14.838 10.252 14.922C10.2427 14.9313 10.2287 14.9547 10.21 14.992C10.1913 15.0293 10.1727 15.0527 10.154 15.062C10.1633 15.0807 10.154 15.1227 10.126 15.188C10.126 15.1973 10.154 15.202 10.21 15.202L10.224 15.216C10.2333 15.2347 10.2333 15.2487 10.224 15.258C10.2147 15.2487 10.196 15.258 10.168 15.286C10.1587 15.3047 10.1493 15.314 10.14 15.314C10.196 15.3607 10.196 15.412 10.14 15.468L10.154 15.496C10.182 15.496 10.196 15.468 10.196 15.412C10.2053 15.4213 10.224 15.426 10.252 15.426C10.252 15.4447 10.2473 15.4587 10.238 15.468L10.224 15.496C10.252 15.692 10.2707 15.7947 10.28 15.804C10.2893 15.8133 10.2893 15.8227 10.28 15.832C10.2707 15.832 10.266 15.8367 10.266 15.846C10.294 15.8553 10.3127 15.8787 10.322 15.916C10.294 15.9067 10.28 15.9207 10.28 15.958H10.238C10.2473 15.986 10.2427 16.0093 10.224 16.028C10.2427 16.0373 10.2427 16.0607 10.224 16.098C10.224 16.126 10.238 16.1307 10.266 16.112V16.07C10.2753 16.07 10.2893 16.0653 10.308 16.056C10.3267 16.056 10.3407 16.056 10.35 16.056C10.3313 16.0747 10.308 16.084 10.28 16.084C10.28 16.0933 10.2847 16.1027 10.294 16.112C10.3033 16.1307 10.3127 16.1447 10.322 16.154C10.2847 16.154 10.2567 16.1727 10.238 16.21L10.252 16.224C10.252 16.2333 10.2567 16.2333 10.266 16.224H10.28C10.28 16.3173 10.2473 16.3687 10.182 16.378C10.2007 16.3873 10.21 16.4013 10.21 16.42C10.21 16.4293 10.21 16.4387 10.21 16.448C10.2193 16.448 10.224 16.4387 10.224 16.42C10.2333 16.4013 10.2473 16.392 10.266 16.392C10.2847 16.4667 10.2567 16.504 10.182 16.504C10.182 16.5133 10.1867 16.5273 10.196 16.546C10.196 16.5647 10.2007 16.574 10.21 16.574V16.546L10.224 16.532C10.2427 16.532 10.252 16.5553 10.252 16.602C10.28 16.602 10.2987 16.5927 10.308 16.574C10.3173 16.5553 10.322 16.5367 10.322 16.518C10.3313 16.4993 10.3407 16.4853 10.35 16.476C10.3593 16.4853 10.364 16.5087 10.364 16.546C10.364 16.5927 10.3687 16.6253 10.378 16.644C10.35 16.7 10.3407 16.756 10.35 16.812C10.406 16.7747 10.434 16.756 10.434 16.756C10.4153 16.6347 10.4433 16.5507 10.518 16.504C10.4807 16.4667 10.4573 16.448 10.448 16.448C10.448 16.4107 10.4387 16.3873 10.42 16.378C10.4293 16.3593 10.4293 16.3127 10.42 16.238C10.42 16.1727 10.4293 16.1307 10.448 16.112C10.4387 16.112 10.434 16.0933 10.434 16.056C10.434 16.028 10.4247 16.014 10.406 16.014C10.4153 15.986 10.42 15.944 10.42 15.888C10.42 15.8227 10.4293 15.7713 10.448 15.734C10.4387 15.7247 10.434 15.7013 10.434 15.664C10.4433 15.664 10.4527 15.6593 10.462 15.65L10.476 15.636C10.4667 15.608 10.462 15.5567 10.462 15.482C10.4713 15.4073 10.4667 15.3607 10.448 15.342C10.476 15.3047 10.49 15.2393 10.49 15.146C10.4993 15.146 10.504 15.1507 10.504 15.16C10.504 15.1693 10.504 15.1787 10.504 15.188V15.202H10.518C10.5927 15.1273 10.602 15.0667 10.546 15.02C10.5553 15.0013 10.56 14.9733 10.56 14.936C10.532 14.936 10.5133 14.9593 10.504 15.006C10.504 15.0433 10.4947 15.0667 10.476 15.076C10.4853 15.0573 10.49 15.0247 10.49 14.978C10.4993 14.922 10.5087 14.8847 10.518 14.866C10.5087 14.8567 10.4993 14.8567 10.49 14.866C10.4713 14.8753 10.4573 14.88 10.448 14.88C10.4573 14.8613 10.462 14.8333 10.462 14.796C10.4713 14.7493 10.476 14.7213 10.476 14.712C10.4573 14.712 10.4433 14.7307 10.434 14.768C10.4247 14.8053 10.406 14.824 10.378 14.824C10.4247 14.6467 10.4433 14.5533 10.434 14.544C10.4527 14.5253 10.462 14.4553 10.462 14.334L10.49 14.32C10.4993 14.32 10.504 14.3153 10.504 14.306C10.4947 14.278 10.4947 14.236 10.504 14.18C10.5133 14.1147 10.504 14.0727 10.476 14.054C10.5133 14.026 10.5227 13.9653 10.504 13.872C10.5507 13.816 10.5647 13.7133 10.546 13.564C10.5273 13.564 10.518 13.5687 10.518 13.578C10.518 13.5127 10.5273 13.48 10.546 13.48C10.546 13.4613 10.5227 13.452 10.476 13.452C10.4667 13.452 10.4573 13.466 10.448 13.494C10.448 13.4847 10.4527 13.4707 10.462 13.452C10.4713 13.4427 10.4713 13.4287 10.462 13.41C10.49 13.4007 10.5087 13.382 10.518 13.354C10.5367 13.326 10.546 13.2887 10.546 13.242C10.5553 13.1953 10.5647 13.1673 10.574 13.158C10.574 13.1487 10.574 13.13 10.574 13.102C10.5833 13.0647 10.5833 13.0367 10.574 13.018C10.5927 13.018 10.5973 13.0087 10.588 12.99C10.588 12.9713 10.5927 12.9573 10.602 12.948C10.602 12.9387 10.5927 12.934 10.574 12.934C10.574 12.9247 10.5647 12.92 10.546 12.92C10.6207 12.7893 10.6253 12.7007 10.56 12.654C10.644 12.6447 10.644 12.57 10.56 12.43C10.5693 12.43 10.574 12.4207 10.574 12.402C10.5833 12.3647 10.5973 12.3507 10.616 12.36C10.616 12.3413 10.6113 12.332 10.602 12.332C10.5927 12.332 10.588 12.3273 10.588 12.318C10.5973 12.318 10.6067 12.318 10.616 12.318C10.6253 12.3087 10.6347 12.304 10.644 12.304C10.6627 12.248 10.672 12.22 10.672 12.22C10.672 12.2013 10.6627 12.1827 10.644 12.164C10.6533 12.1547 10.6533 12.1407 10.644 12.122C10.644 12.094 10.6533 12.0753 10.672 12.066C10.672 12.0567 10.6627 12.052 10.644 12.052C10.6253 12.052 10.616 12.0473 10.616 12.038C10.644 12.0287 10.6533 12.0053 10.644 11.968C10.644 11.9307 10.6533 11.9027 10.672 11.884C10.6533 11.856 10.658 11.8187 10.686 11.772C10.7233 11.7253 10.7327 11.6833 10.714 11.646C10.742 11.6367 10.756 11.6087 10.756 11.562C10.7653 11.506 10.7793 11.4687 10.798 11.45C10.798 11.4313 10.7887 11.4173 10.77 11.408C10.7607 11.3987 10.7467 11.394 10.728 11.394C10.7187 11.3847 10.7093 11.3753 10.7 11.366C10.7093 11.3473 10.714 11.31 10.714 11.254C10.7047 11.254 10.6907 11.268 10.672 11.296L10.63 11.324C10.63 11.3613 10.6393 11.3893 10.658 11.408C10.6207 11.4267 10.602 11.4407 10.602 11.45C10.6207 11.4593 10.6253 11.4733 10.616 11.492C10.616 11.5013 10.6207 11.5153 10.63 11.534C10.63 11.5433 10.6207 11.548 10.602 11.548C10.5833 11.548 10.574 11.5573 10.574 11.576C10.5273 11.5573 10.4947 11.576 10.476 11.632C10.4573 11.6787 10.4573 11.716 10.476 11.744C10.448 11.772 10.4293 11.786 10.42 11.786C10.42 11.7953 10.4293 11.8047 10.448 11.814C10.4667 11.814 10.476 11.8187 10.476 11.828C10.448 11.884 10.4293 11.912 10.42 11.912C10.42 11.9027 10.4153 11.8887 10.406 11.87C10.3967 11.842 10.3967 11.8187 10.406 11.8C10.3873 11.8 10.3733 11.8093 10.364 11.828C10.3453 11.8467 10.3313 11.856 10.322 11.856C10.322 11.8467 10.3267 11.8187 10.336 11.772C10.3453 11.716 10.3547 11.674 10.364 11.646C10.3827 11.6553 10.3967 11.6553 10.406 11.646C10.4247 11.6273 10.4387 11.618 10.448 11.618C10.4387 11.5993 10.4387 11.5807 10.448 11.562C10.4667 11.534 10.476 11.5107 10.476 11.492C10.4667 11.492 10.4527 11.4967 10.434 11.506C10.4247 11.5153 10.4107 11.5153 10.392 11.506C10.4013 11.5527 10.3873 11.576 10.35 11.576C10.3313 11.5293 10.322 11.506 10.322 11.506C10.3127 11.506 10.308 11.5153 10.308 11.534C10.308 11.5433 10.2987 11.5387 10.28 11.52C10.28 11.5667 10.294 11.5993 10.322 11.618C10.294 11.6647 10.2473 11.6787 10.182 11.66C10.182 11.6787 10.196 11.688 10.224 11.688C10.2613 11.688 10.28 11.6927 10.28 11.702C10.2707 11.7113 10.2613 11.7253 10.252 11.744C10.2427 11.7533 10.2333 11.7627 10.224 11.772V11.786L10.252 11.8C10.2333 11.8 10.2147 11.8093 10.196 11.828C10.1867 11.8373 10.1773 11.842 10.168 11.842C10.168 11.8607 10.1867 11.87 10.224 11.87C10.224 11.9073 10.1913 11.926 10.126 11.926C10.1447 11.87 10.154 11.8187 10.154 11.772H10.126C10.1167 11.772 10.1073 11.772 10.098 11.772C10.098 11.772 10.0933 11.772 10.084 11.772C10.0933 11.7627 10.1073 11.7487 10.126 11.73C10.154 11.7113 10.168 11.6927 10.168 11.674C10.1587 11.6553 10.14 11.646 10.112 11.646C10.112 11.6273 10.1167 11.6087 10.126 11.59C10.1353 11.5713 10.1353 11.5527 10.126 11.534C10.1353 11.534 10.14 11.5433 10.14 11.562C10.1493 11.5807 10.1493 11.5947 10.14 11.604C10.168 11.604 10.1727 11.576 10.154 11.52C10.154 11.5107 10.154 11.506 10.154 11.506C10.154 11.4967 10.154 11.4873 10.154 11.478C10.154 11.4687 10.14 11.464 10.112 11.464C10.112 11.4547 10.112 11.4407 10.112 11.422C10.1213 11.4033 10.126 11.3893 10.126 11.38C10.126 11.3613 10.1307 11.3427 10.14 11.324C10.1493 11.3053 10.1633 11.296 10.182 11.296H10.168C10.1493 11.296 10.14 11.2913 10.14 11.282C10.1587 11.1327 10.1727 11.0067 10.182 10.904C10.238 10.904 10.266 10.8713 10.266 10.806C10.2567 10.806 10.2427 10.8153 10.224 10.834C10.2147 10.8433 10.2007 10.8433 10.182 10.834C10.182 10.8247 10.1867 10.8013 10.196 10.764C10.2053 10.708 10.2007 10.6753 10.182 10.666C10.21 10.6567 10.224 10.6053 10.224 10.512C10.2053 10.512 10.1447 10.526 10.042 10.554C9.93935 10.582 9.85068 10.596 9.77602 10.596C9.78535 10.6427 9.82268 10.652 9.88802 10.624C9.98135 10.6427 10.042 10.6333 10.07 10.596H10.168V10.582C10.1773 10.6287 10.1447 10.6753 10.07 10.722C10.07 10.7313 10.098 10.736 10.154 10.736C10.1353 10.7547 10.0933 10.764 10.028 10.764C9.97202 10.7547 9.93935 10.7593 9.93002 10.778C9.87402 10.7593 9.83668 10.7547 9.81802 10.764L9.83202 10.778V10.792C9.81335 10.8013 9.78068 10.806 9.73402 10.806C9.68735 10.7967 9.66402 10.8013 9.66402 10.82C9.56135 10.848 9.50068 10.8713 9.48202 10.89C9.44468 10.8713 9.41668 10.862 9.39802 10.862C9.38868 10.862 9.38402 10.8713 9.38402 10.89H9.20202C9.19268 10.89 9.18802 10.8993 9.18802 10.918C9.16002 10.918 9.11335 10.9227 9.04802 10.932C8.98268 10.932 8.95002 10.9227 8.95002 10.904C8.94068 10.904 8.93135 10.9133 8.92202 10.932L8.90802 10.96C8.88935 10.9507 8.85202 10.9553 8.79602 10.974C8.74002 10.9833 8.70268 10.9787 8.68402 10.96C8.66535 10.9787 8.63268 10.9927 8.58602 11.002C8.54868 11.002 8.52068 11.0113 8.50202 11.03C8.51135 11.0673 8.50668 11.1187 8.48802 11.184C8.46935 11.2493 8.46935 11.3053 8.48802 11.352C8.45068 11.3427 8.42735 11.3147 8.41802 11.268L8.43202 11.296C8.43202 11.324 8.42735 11.3427 8.41802 11.352C8.46468 11.4267 8.48802 11.5153 8.48802 11.618C8.47868 11.618 8.46002 11.646 8.43202 11.702C8.42268 11.702 8.41335 11.6927 8.40402 11.674C8.40402 11.646 8.39468 11.6367 8.37602 11.646C8.36668 11.646 8.36202 11.6553 8.36202 11.674C8.36202 11.7113 8.34802 11.7253 8.32002 11.716C8.32002 11.7253 8.32468 11.7347 8.33402 11.744C8.34335 11.744 8.34335 11.7487 8.33402 11.758C8.32468 11.7673 8.31535 11.7953 8.30602 11.842C8.30602 11.8793 8.29668 11.9073 8.27802 11.926C8.28735 11.926 8.29668 11.9353 8.30602 11.954C8.32468 11.9727 8.34335 11.9867 8.36202 11.996C8.35268 12.052 8.35268 12.1033 8.36202 12.15C8.34335 12.1407 8.32468 12.1173 8.30602 12.08C8.29668 12.0427 8.29202 12.0193 8.29202 12.01C8.27335 12.01 8.26402 12.0193 8.26402 12.038C8.26402 12.0567 8.25468 12.066 8.23602 12.066L8.26402 12.08C8.27335 12.08 8.27335 12.0847 8.26402 12.094H8.23602C8.24535 12.122 8.24535 12.1547 8.23602 12.192C8.22668 12.2293 8.22202 12.2573 8.22202 12.276C8.21268 12.276 8.20802 12.276 8.20802 12.276L8.18002 12.29C8.18935 12.318 8.18468 12.36 8.16602 12.416C8.14735 12.472 8.14268 12.5093 8.15202 12.528C8.15202 12.5373 8.14268 12.542 8.12402 12.542C8.13335 12.598 8.13335 12.6447 8.12402 12.682C8.12402 12.71 8.12402 12.7427 8.12402 12.78C8.13335 12.808 8.14268 12.836 8.15202 12.864C8.13335 12.92 8.10068 13.0133 8.05402 13.144L8.02602 13.13C7.99802 13.158 7.98402 13.2093 7.98402 13.284C7.98402 13.3587 7.97935 13.4053 7.97002 13.424C8.02602 13.5173 8.01668 13.62 7.94202 13.732C7.97002 13.7973 7.96068 13.8673 7.91402 13.942L7.92802 14.068C7.92802 14.1427 7.92335 14.18 7.91402 14.18C7.89535 14.1613 7.87668 14.152 7.85802 14.152C7.85802 14.1613 7.86268 14.194 7.87202 14.25C7.88135 14.2967 7.88135 14.3293 7.87202 14.348H7.83002C7.84868 14.4133 7.84402 14.5113 7.81602 14.642C7.79735 14.7633 7.79268 14.8473 7.80202 14.894C7.76468 15.0247 7.73202 15.2067 7.70402 15.44C7.68535 15.664 7.67135 15.8087 7.66202 15.874C7.65268 15.8833 7.65268 15.8927 7.66202 15.902C7.68068 15.902 7.69002 15.9067 7.69002 15.916C7.69002 15.944 7.68068 15.9907 7.66202 16.056C7.64335 16.1307 7.63868 16.182 7.64802 16.21C7.59202 16.4993 7.56868 16.742 7.57802 16.938C7.55935 16.966 7.55002 17.0173 7.55002 17.092C7.55002 17.176 7.54068 17.2367 7.52202 17.274C7.53135 17.3673 7.52668 17.498 7.50802 17.666C7.48935 17.8433 7.48002 17.988 7.48002 18.1H7.45202C7.45202 18.2493 7.43802 18.3567 7.41002 18.422C7.41935 18.45 7.41935 18.4967 7.41002 18.562C7.40068 18.6273 7.40068 18.674 7.41002 18.702C7.39135 18.7953 7.36802 18.9447 7.34002 19.15C7.32135 19.3553 7.29802 19.5093 7.27002 19.612C7.27935 19.6307 7.27468 19.6633 7.25602 19.71C7.23735 19.7567 7.23735 19.7893 7.25602 19.808C7.23735 19.8733 7.23268 19.9107 7.24202 19.92C7.23268 19.9387 7.22335 19.9713 7.21402 20.018C7.21402 20.0647 7.20468 20.0973 7.18602 20.116C7.20468 20.1627 7.20935 20.2373 7.20002 20.34C7.19068 20.4427 7.19535 20.522 7.21402 20.578C7.20468 20.6247 7.20935 20.6713 7.22802 20.718C7.23735 20.7367 7.23735 20.7507 7.22802 20.76L7.21402 20.802C7.25135 20.886 7.25135 20.9653 7.21402 21.04C7.17668 21.1147 7.12535 21.166 7.06002 21.194C7.01335 21.2687 6.89202 21.334 6.69602 21.39C6.66802 21.3807 6.58868 21.3807 6.45802 21.39C6.32735 21.3993 6.25735 21.3853 6.24802 21.348C6.23868 21.348 6.22935 21.348 6.22002 21.348C6.20135 21.3573 6.18735 21.362 6.17802 21.362C6.16868 21.362 6.15935 21.3573 6.15002 21.348L6.13602 21.334C6.05202 21.3433 5.98202 21.3013 5.92602 21.208C5.88868 21.0213 5.88402 20.34 5.91202 19.164C5.93068 19.0333 5.94935 18.842 5.96802 18.59C5.98668 18.3473 6.00068 18.1653 6.01002 18.044C6.03802 17.988 6.03802 17.9273 6.01002 17.862C6.03802 17.7407 6.06602 17.54 6.09402 17.26C6.12202 16.9893 6.15002 16.7933 6.17802 16.672C6.18735 16.6533 6.18268 16.644 6.16402 16.644C6.16402 16.6347 6.16402 16.6253 6.16402 16.616H6.17802L6.19202 16.602C6.17335 16.574 6.17802 16.5273 6.20602 16.462C6.23402 16.406 6.23402 16.364 6.20602 16.336H6.23402C6.21535 16.3267 6.21068 16.308 6.22002 16.28C6.22002 16.2613 6.21535 16.252 6.20602 16.252C6.23402 16.2427 6.24802 16.2147 6.24802 16.168C6.24802 16.1307 6.25268 16.112 6.26202 16.112C6.27135 16.0933 6.26668 16.084 6.24802 16.084C6.23868 16.0747 6.23402 16.0653 6.23402 16.056H6.27602C6.27602 16.0093 6.29002 15.958 6.31802 15.902C6.31802 15.8927 6.30868 15.888 6.29002 15.888C6.27135 15.888 6.26202 15.8787 6.26202 15.86C6.29002 15.8693 6.30868 15.86 6.31802 15.832C6.32735 15.7947 6.32268 15.7667 6.30402 15.748C6.31335 15.7387 6.33202 15.6733 6.36002 15.552H6.37402C6.38335 15.5613 6.39268 15.566 6.40202 15.566C6.40202 15.5567 6.38802 15.538 6.36002 15.51C6.37868 15.454 6.39735 15.3793 6.41602 15.286C6.42535 15.1927 6.43468 15.1227 6.44402 15.076C6.45335 15.076 6.46735 15.0667 6.48602 15.048C6.46735 15.0293 6.45802 15.0153 6.45802 15.006C6.45802 14.978 6.47202 14.964 6.50002 14.964C6.49068 14.9547 6.49535 14.9127 6.51402 14.838C6.54202 14.754 6.53735 14.7027 6.50002 14.684L6.51402 14.656L6.52802 14.684C6.54668 14.6747 6.55602 14.6513 6.55602 14.614C6.55602 14.6047 6.54202 14.6 6.51402 14.6C6.51402 14.5907 6.52335 14.5813 6.54202 14.572C6.56068 14.5627 6.57002 14.5533 6.57002 14.544C6.57935 14.4413 6.60735 14.2967 6.65402 14.11C6.70068 13.9233 6.73335 13.774 6.75202 13.662H6.72402C6.72402 13.6527 6.74268 13.648 6.78002 13.648C6.78002 13.5547 6.80335 13.4193 6.85002 13.242C6.89668 13.0553 6.92468 12.92 6.93402 12.836C6.96202 12.7987 6.99002 12.7007 7.01802 12.542C7.02735 12.542 7.03202 12.528 7.03202 12.5C7.03202 12.4813 7.03202 12.4673 7.03202 12.458C7.10668 12.262 7.17202 12.0053 7.22802 11.688C7.23735 11.688 7.24668 11.6787 7.25602 11.66C7.26535 11.632 7.27935 11.6227 7.29802 11.632C7.29802 11.5947 7.28868 11.576 7.27002 11.576C7.27002 11.5667 7.27468 11.562 7.28402 11.562C7.29335 11.5527 7.30268 11.5527 7.31202 11.562C7.32135 11.5433 7.31668 11.534 7.29802 11.534C7.28868 11.534 7.28402 11.534 7.28402 11.534C7.28402 11.5247 7.28402 11.5153 7.28402 11.506C7.30268 11.4873 7.31202 11.492 7.31202 11.52C7.34935 11.5013 7.34935 11.436 7.31202 11.324C7.35868 11.2493 7.38202 11.17 7.38202 11.086C7.36335 11.1047 7.32602 11.1233 7.27002 11.142C7.21402 11.1513 7.17668 11.1607 7.15802 11.17C7.16735 11.1607 7.16268 11.1513 7.14402 11.142C7.12535 11.1327 7.11602 11.1233 7.11602 11.114C7.05068 11.1327 6.95735 11.1327 6.83602 11.114C6.72402 11.0953 6.63535 11.1 6.57002 11.128C6.54202 11.128 6.52802 11.114 6.52802 11.086C6.51868 11.086 6.51402 11.0953 6.51402 11.114C6.46735 11.1047 6.33202 11.0813 6.10802 11.044C6.08935 11.0253 6.03335 10.9833 5.94002 10.918C5.84668 10.8433 5.78602 10.778 5.75802 10.722C5.77668 10.7313 5.79535 10.7453 5.81402 10.764C5.82335 10.7827 5.83735 10.792 5.85602 10.792C5.80002 10.6987 5.77202 10.61 5.77202 10.526C5.79068 10.5167 5.81402 10.526 5.84202 10.554C5.87002 10.5727 5.88868 10.582 5.89802 10.582C5.92602 10.5913 5.96335 10.5913 6.01002 10.582C6.04735 10.5727 6.07068 10.568 6.08002 10.568H6.10802C6.09868 10.568 6.09402 10.5727 6.09402 10.582C6.10335 10.582 6.12668 10.568 6.16402 10.54V10.568C6.47202 10.5027 6.64468 10.4653 6.68202 10.456C6.67268 10.484 6.67735 10.498 6.69602 10.498C6.71468 10.498 6.71935 10.4933 6.71002 10.484C6.70068 10.4653 6.69602 10.4513 6.69602 10.442C6.78002 10.4327 6.89668 10.4093 7.04602 10.372C7.05535 10.3813 7.05535 10.3907 7.04602 10.4L7.03202 10.414L7.24202 10.372V10.33H7.31202V10.302C7.34935 10.3113 7.39135 10.3113 7.43802 10.302C7.49402 10.2833 7.53602 10.274 7.56402 10.274C7.56402 10.2647 7.57335 10.2647 7.59202 10.274C7.61068 10.2833 7.62468 10.288 7.63402 10.288C7.64335 10.288 7.64802 10.2833 7.64802 10.274C7.64802 10.2647 7.64335 10.26 7.63402 10.26L7.66202 10.232C7.67135 10.1667 7.69935 10.0593 7.74602 9.91C7.80202 9.76067 7.83468 9.64867 7.84402 9.574L7.85802 9.56H7.87202C7.88135 9.532 7.89068 9.49933 7.90002 9.462C7.91868 9.41533 7.93268 9.37333 7.94202 9.336C7.96068 9.29867 7.97935 9.26133 7.99802 9.224V9.168C8.02602 9.10267 8.06335 9 8.11002 8.86C8.16602 8.71067 8.19868 8.61733 8.20802 8.58L8.26402 8.524L8.25002 8.51C8.24068 8.50067 8.24068 8.49133 8.25002 8.482C8.29668 8.43533 8.32002 8.398 8.32002 8.37H8.36202C8.36202 8.36067 8.36202 8.356 8.36202 8.356C8.37135 8.356 8.37602 8.35133 8.37602 8.342H8.32002C8.35735 8.258 8.38068 8.202 8.39002 8.174H8.41802C8.39935 8.15533 8.39935 8.12267 8.41802 8.076C8.42735 8.08533 8.44135 8.12267 8.46002 8.188C8.48802 8.17867 8.49268 8.15067 8.47402 8.104C8.46468 8.05733 8.46002 8.02933 8.46002 8.02C8.48802 7.91733 8.54868 7.77267 8.64202 7.586C8.73535 7.39 8.79602 7.22667 8.82402 7.096C8.84268 7.096 8.85668 7.08667 8.86602 7.068C8.88468 7.04 8.89868 7.012 8.90802 6.984C8.91735 6.956 8.93135 6.93267 8.95002 6.914C8.94068 6.90467 8.92668 6.9 8.90802 6.9C9.01068 6.77867 9.05735 6.69933 9.04802 6.662C9.11335 6.634 9.14602 6.578 9.14602 6.494H9.17402C9.17402 6.466 9.18802 6.438 9.21602 6.41C9.24402 6.382 9.25335 6.34933 9.24402 6.312C9.26268 6.32133 9.27668 6.31667 9.28602 6.298C9.30468 6.27 9.30935 6.24667 9.30002 6.228C9.34668 6.21867 9.37002 6.16267 9.37002 6.06C9.38868 6.06933 9.40268 6.06 9.41202 6.032C9.43068 6.01333 9.44468 6.004 9.45402 6.004C9.45402 5.99467 9.45402 5.99 9.45402 5.99C9.43535 5.99 9.43068 5.98067 9.44002 5.962H9.46802V5.906C9.48668 5.88733 9.51002 5.88267 9.53802 5.892V5.878C9.53802 5.85933 9.54735 5.85467 9.56602 5.864C9.54735 5.82667 9.55202 5.78933 9.58002 5.752C9.60802 5.71467 9.61735 5.68667 9.60802 5.668C9.65468 5.62133 9.67335 5.59333 9.66402 5.584L9.67802 5.57C9.68735 5.56067 9.69668 5.56067 9.70602 5.57C9.72468 5.514 9.75735 5.46267 9.80402 5.416C9.85068 5.36933 9.88335 5.332 9.90202 5.304C9.91135 5.29467 9.92068 5.29467 9.93002 5.304V5.262C9.95802 5.234 9.98602 5.206 10.014 5.178C10.042 5.14067 10.0747 5.108 10.112 5.08C10.1493 5.04267 10.1773 5.01467 10.196 4.996L10.182 4.982C10.182 4.97267 10.1913 4.968 10.21 4.968C10.2287 4.95867 10.238 4.954 10.238 4.954C10.2473 4.94467 10.252 4.93067 10.252 4.912C10.2427 4.912 10.2333 4.91667 10.224 4.926C10.224 4.91667 10.238 4.90267 10.266 4.884C10.294 4.856 10.3033 4.83267 10.294 4.814C10.3967 4.814 10.4713 4.772 10.518 4.688H10.462C10.4713 4.67867 10.4947 4.66933 10.532 4.66C10.5787 4.64133 10.6067 4.62267 10.616 4.604C10.6627 4.61333 10.7373 4.61333 10.84 4.604C10.9427 4.59467 11.008 4.59933 11.036 4.618C11.1573 4.63667 11.2367 4.67867 11.274 4.744C11.302 4.73467 11.344 4.73933 11.4 4.758C11.4653 4.76733 11.5073 4.772 11.526 4.772C11.554 4.8 11.5727 4.814 11.582 4.814C11.582 4.842 11.596 4.86533 11.624 4.884C11.6613 4.89333 11.6847 4.90267 11.694 4.912C11.722 4.90267 11.7453 4.90733 11.764 4.926C11.7827 4.93533 11.7967 4.94933 11.806 4.968C11.8247 4.98667 11.8387 5.00067 11.848 5.01V5.024ZM10.434 4.87C10.434 4.86067 10.4433 4.85133 10.462 4.842C10.4807 4.83267 10.49 4.81867 10.49 4.8C10.4247 4.83733 10.406 4.86067 10.434 4.87ZM10.672 5.864C10.6813 5.85467 10.6953 5.85933 10.714 5.878C10.6953 5.878 10.686 5.90133 10.686 5.948C10.6953 5.93867 10.7047 5.93867 10.714 5.948C10.7233 5.95733 10.7327 5.962 10.742 5.962C10.7513 5.906 10.7327 5.85933 10.686 5.822C10.686 5.83133 10.6813 5.84533 10.672 5.864ZM9.98602 7.096L9.95802 7.124C9.93935 7.16133 9.93002 7.21733 9.93002 7.292C9.91135 7.30133 9.90202 7.28733 9.90202 7.25C9.88335 7.25933 9.86935 7.25467 9.86002 7.236C9.86002 7.22667 9.85535 7.222 9.84602 7.222C9.83668 7.25 9.82735 7.29667 9.81802 7.362C9.80868 7.42733 9.79935 7.474 9.79002 7.502C9.76202 7.502 9.73402 7.516 9.70602 7.544C9.72468 7.56267 9.72935 7.59067 9.72002 7.628C9.71068 7.656 9.71068 7.68867 9.72002 7.726C9.69202 7.726 9.67335 7.73067 9.66402 7.74C9.66402 7.73067 9.66868 7.712 9.67802 7.684C9.69668 7.66533 9.70602 7.64667 9.70602 7.628C9.70602 7.60933 9.69202 7.59533 9.66402 7.586C9.63602 7.67 9.60335 7.77733 9.56602 7.908C9.58468 7.92667 9.59402 7.95 9.59402 7.978C9.58468 7.98733 9.58002 7.98733 9.58002 7.978C9.56135 7.96867 9.55202 7.96867 9.55202 7.978C9.56135 7.99667 9.56135 8.01533 9.55202 8.034C9.54268 8.04333 9.53802 8.05267 9.53802 8.062C9.55668 8.07133 9.57068 8.07133 9.58002 8.062L9.62202 8.048C9.62202 8.05733 9.62202 8.08067 9.62202 8.118C9.63135 8.146 9.63602 8.16933 9.63602 8.188L9.62202 8.174C9.61268 8.16467 9.60335 8.16467 9.59402 8.174C9.59402 8.18333 9.59402 8.19267 9.59402 8.202C9.59402 8.202 9.59868 8.20667 9.60802 8.216C9.62668 8.23467 9.62668 8.244 9.60802 8.244C9.56135 8.19733 9.55668 8.16467 9.59402 8.146C9.57535 8.146 9.56602 8.12267 9.56602 8.076C9.55668 8.08533 9.54268 8.09 9.52402 8.09C9.50535 8.08067 9.48668 8.08067 9.46802 8.09C9.47735 8.118 9.47268 8.16 9.45402 8.216C9.43535 8.272 9.44002 8.30933 9.46802 8.328C9.44935 8.328 9.43535 8.33733 9.42602 8.356C9.42602 8.37467 9.42602 8.40267 9.42602 8.44C9.42602 8.468 9.42135 8.48667 9.41202 8.496C9.38402 8.496 9.36535 8.50533 9.35602 8.524C9.34668 8.53333 9.34202 8.552 9.34202 8.58C9.35135 8.59867 9.35135 8.61733 9.34202 8.636C9.34202 8.65467 9.32802 8.664 9.30002 8.664C9.30002 8.68267 9.30002 8.692 9.30002 8.692C9.31868 8.71067 9.32335 8.72467 9.31402 8.734C9.28602 8.734 9.26735 8.75267 9.25802 8.79C9.25802 8.818 9.24868 8.832 9.23002 8.832C9.22068 8.85067 9.22535 8.86 9.24402 8.86H9.25802C9.24868 8.86933 9.23935 8.874 9.23002 8.874C9.22068 8.874 9.21135 8.87867 9.20202 8.888C9.20202 8.89733 9.20668 8.90667 9.21602 8.916C9.22535 8.92533 9.22535 8.93933 9.21602 8.958C9.20668 8.958 9.19735 8.96267 9.18802 8.972H9.17402C9.17402 8.99067 9.17402 9.00933 9.17402 9.028C9.18335 9.03733 9.18802 9.04667 9.18802 9.056H9.16002C9.16002 9.14933 9.13668 9.20067 9.09002 9.21C9.10868 9.22867 9.11335 9.24267 9.10402 9.252C9.09468 9.26133 9.08535 9.28467 9.07602 9.322C9.06668 9.35933 9.05268 9.38267 9.03402 9.392V9.448C9.06202 9.46667 9.08068 9.504 9.09002 9.56C9.10868 9.60667 9.10402 9.63933 9.07602 9.658C9.06668 9.64867 9.05735 9.63467 9.04802 9.616C9.04802 9.59733 9.04335 9.588 9.03402 9.588C9.02468 9.59733 9.02002 9.61133 9.02002 9.63C9.02002 9.63933 9.02002 9.64867 9.02002 9.658C9.02935 9.658 9.04335 9.66733 9.06202 9.686C9.06202 9.70467 9.05735 9.714 9.04802 9.714C9.04802 9.70467 9.03868 9.7 9.02002 9.7C9.01068 9.7 9.00602 9.69533 9.00602 9.686C8.99668 9.66733 8.99668 9.63933 9.00602 9.602C9.01535 9.55533 9.01535 9.52267 9.00602 9.504C8.97802 9.51333 8.95935 9.55067 8.95002 9.616C8.94068 9.672 8.92668 9.7 8.90802 9.7C8.90802 9.728 8.92202 9.77 8.95002 9.826H8.89402C8.89402 9.854 8.88002 9.90533 8.85202 9.98C8.82402 10.0547 8.81002 10.106 8.81002 10.134C8.81935 10.1247 8.83335 10.1153 8.85202 10.106C8.87068 10.0967 8.88468 10.0967 8.89402 10.106C8.90335 10.0873 8.90335 10.0733 8.89402 10.064C8.88468 10.0453 8.88002 10.0313 8.88002 10.022C8.88002 10.0127 8.88468 10.0033 8.89402 9.994C8.91268 9.98467 8.91735 9.97533 8.90802 9.966C8.92668 9.97533 8.93602 9.994 8.93602 10.022C8.93602 10.0407 8.94068 10.064 8.95002 10.092C8.97802 10.0827 9.03402 10.0733 9.11802 10.064C9.21135 10.0453 9.27668 10.0267 9.31402 10.008C9.29535 10.0267 9.30002 10.036 9.32802 10.036C9.42135 10.036 9.48668 10.0313 9.52402 10.022C9.52402 9.994 9.53802 9.98 9.56602 9.98V10.008C9.58468 9.99867 9.62668 9.98933 9.69202 9.98C9.75735 9.97067 9.80402 9.95667 9.83202 9.938L9.84602 9.952V9.938C9.86468 9.938 9.92535 9.92867 10.028 9.91C10.1213 9.91933 10.21 9.90067 10.294 9.854V9.882C10.322 9.854 10.3407 9.826 10.35 9.798C10.3407 9.78867 10.3313 9.77 10.322 9.742C10.322 9.70467 10.3127 9.69067 10.294 9.7L10.35 9.644C10.3313 9.644 10.3313 9.63467 10.35 9.616C10.3313 9.616 10.322 9.61133 10.322 9.602C10.322 9.59267 10.3313 9.588 10.35 9.588C10.3687 9.57867 10.378 9.56467 10.378 9.546C10.3687 9.52733 10.3687 9.49933 10.378 9.462C10.3873 9.41533 10.392 9.378 10.392 9.35V9.294H10.406C10.4153 9.28467 10.4107 9.28 10.392 9.28C10.3733 9.28 10.3687 9.27533 10.378 9.266C10.3967 9.266 10.406 9.252 10.406 9.224C10.406 9.112 10.4247 8.96267 10.462 8.776C10.4433 8.76667 10.434 8.75267 10.434 8.734C10.4433 8.71533 10.4573 8.706 10.476 8.706C10.476 8.69667 10.4667 8.67333 10.448 8.636C10.476 8.608 10.49 8.55667 10.49 8.482C10.4993 8.40733 10.5133 8.36067 10.532 8.342C10.532 8.33267 10.5273 8.328 10.518 8.328V8.314C10.546 8.30467 10.5413 8.28133 10.504 8.244L10.518 8.23C10.5273 8.22067 10.5367 8.22067 10.546 8.23C10.546 8.13667 10.5647 7.978 10.602 7.754H10.574C10.602 7.70733 10.6253 7.56267 10.644 7.32C10.6627 7.21733 10.6673 7.15667 10.658 7.138C10.6673 7.138 10.672 7.12867 10.672 7.11V6.788C10.6907 6.76933 10.7 6.75067 10.7 6.732C10.6813 6.732 10.672 6.704 10.672 6.648C10.6813 6.592 10.686 6.55467 10.686 6.536C10.6953 6.536 10.7 6.536 10.7 6.536L10.728 6.522C10.7187 6.47533 10.714 6.438 10.714 6.41C10.7233 6.37267 10.728 6.31667 10.728 6.242C10.7373 6.16733 10.742 6.10667 10.742 6.06C10.714 6.05067 10.6953 6.02267 10.686 5.976H10.644C10.644 6.032 10.63 6.06 10.602 6.06C10.602 6.07867 10.6113 6.102 10.63 6.13C10.658 6.14867 10.6673 6.16733 10.658 6.186C10.6487 6.19533 10.6393 6.19067 10.63 6.172C10.63 6.15333 10.6253 6.144 10.616 6.144C10.5973 6.16267 10.574 6.158 10.546 6.13C10.574 6.17667 10.56 6.2 10.504 6.2C10.5227 6.27467 10.518 6.326 10.49 6.354H10.532C10.5227 6.37267 10.5227 6.39133 10.532 6.41C10.5133 6.41 10.4993 6.42867 10.49 6.466C10.4807 6.494 10.462 6.508 10.434 6.508C10.4247 6.49867 10.42 6.48467 10.42 6.466C10.4293 6.44733 10.4293 6.42867 10.42 6.41C10.3733 6.438 10.3547 6.47067 10.364 6.508C10.3453 6.508 10.336 6.52667 10.336 6.564C10.2893 6.55467 10.2613 6.578 10.252 6.634C10.2427 6.68067 10.2333 6.70867 10.224 6.718C10.224 6.69933 10.2147 6.69467 10.196 6.704H10.168C10.1867 6.75067 10.1633 6.79733 10.098 6.844C10.1073 6.86267 10.098 6.89067 10.07 6.928C10.042 6.956 10.0373 6.984 10.056 7.012C10.0373 7.012 10.0233 7.026 10.014 7.054C10.014 7.082 10.0047 7.096 9.98602 7.096ZM10.392 6.2H10.42V6.172H10.392V6.2ZM10.476 6.424C10.476 6.38667 10.462 6.368 10.434 6.368C10.434 6.41467 10.448 6.43333 10.476 6.424ZM8.58602 7.768C8.58602 7.77733 8.59068 7.782 8.60002 7.782C8.60002 7.77267 8.60002 7.768 8.60002 7.768C8.60935 7.768 8.61402 7.76333 8.61402 7.754H8.58602V7.768ZM8.51602 8.02L8.50202 7.978C8.49268 7.98733 8.48802 7.99667 8.48802 8.006C8.49735 8.01533 8.50668 8.02 8.51602 8.02ZM8.40402 8.244H8.41802C8.41802 8.22533 8.41335 8.216 8.40402 8.216V8.244ZM8.36202 8.412C8.37135 8.412 8.37602 8.40733 8.37602 8.398C8.36668 8.38867 8.35268 8.384 8.33402 8.384L8.36202 8.412ZM8.26402 8.552V8.566L8.25002 8.58C8.25935 8.57067 8.26868 8.57067 8.27802 8.58C8.28735 8.58933 8.29668 8.594 8.30602 8.594V8.538C8.27802 8.538 8.26402 8.54267 8.26402 8.552ZM11.022 9.434C11.022 9.406 11.0173 9.392 11.008 9.392C11.008 9.42933 11.0127 9.44333 11.022 9.434ZM14.018 9.56C14.0367 9.56 14.046 9.55533 14.046 9.546C14.0273 9.546 14.018 9.55067 14.018 9.56ZM12.576 9.63C12.5667 9.63933 12.5527 9.644 12.534 9.644C12.5153 9.644 12.5013 9.64867 12.492 9.658C12.4733 9.658 12.4453 9.66267 12.408 9.672C12.3707 9.672 12.352 9.66267 12.352 9.644C12.3147 9.66267 12.2773 9.66733 12.24 9.658C12.156 9.67667 12.0487 9.69533 11.918 9.714C11.7967 9.72333 11.7033 9.73267 11.638 9.742C11.638 9.73267 11.6333 9.72333 11.624 9.714C11.6147 9.742 11.6007 9.756 11.582 9.756C11.5633 9.756 11.554 9.76533 11.554 9.784C11.7407 9.784 11.8947 9.76533 12.016 9.728L12.03 9.742C12.03 9.73267 12.0347 9.728 12.044 9.728C12.0533 9.728 12.268 9.714 12.688 9.686L13.066 9.644C13.01 9.62533 12.9307 9.62533 12.828 9.644C12.7253 9.65333 12.6413 9.64867 12.576 9.63ZM10.224 9.91C10.196 9.91 10.182 9.91467 10.182 9.924C10.2007 9.94267 10.2147 9.938 10.224 9.91ZM12.156 10.092H12.184V10.078H12.156V10.092ZM12.156 10.274C12.1467 10.274 12.142 10.2787 12.142 10.288C12.1513 10.288 12.156 10.2833 12.156 10.274ZM10.322 10.386H10.35C10.3593 10.3767 10.3593 10.3673 10.35 10.358C10.3407 10.3487 10.3407 10.3393 10.35 10.33H10.308C10.308 10.358 10.3127 10.3767 10.322 10.386ZM11.946 10.358C11.946 10.3673 11.9553 10.3813 11.974 10.4C11.9833 10.3813 12.03 10.3627 12.114 10.344C12.086 10.3347 12.03 10.3393 11.946 10.358ZM10.42 10.4C10.4293 10.3627 10.4153 10.344 10.378 10.344C10.3687 10.3533 10.3687 10.3673 10.378 10.386C10.3873 10.4047 10.4013 10.4093 10.42 10.4ZM10.084 10.428C10.0747 10.4373 10.0607 10.442 10.042 10.442C10.0327 10.4327 10.028 10.4373 10.028 10.456C10.0373 10.4653 10.07 10.4653 10.126 10.456C10.182 10.4373 10.224 10.4327 10.252 10.442C10.252 10.4327 10.252 10.4187 10.252 10.4C10.252 10.372 10.2473 10.358 10.238 10.358C10.2287 10.3673 10.2053 10.3813 10.168 10.4C10.1307 10.4093 10.1027 10.4187 10.084 10.428ZM11.82 10.386L11.834 10.4H11.848V10.372H11.834C11.8247 10.372 11.82 10.3767 11.82 10.386ZM10.28 10.428C10.308 10.4467 10.322 10.442 10.322 10.414C10.294 10.414 10.28 10.4187 10.28 10.428ZM6.90602 10.428C6.89668 10.428 6.88735 10.428 6.87802 10.428C6.86868 10.428 6.86402 10.4327 6.86402 10.442C6.88268 10.442 6.89668 10.4373 6.90602 10.428ZM6.59802 10.512C6.59802 10.4933 6.60735 10.4793 6.62602 10.47C6.64468 10.47 6.65402 10.4747 6.65402 10.484C6.65402 10.4933 6.65402 10.5027 6.65402 10.512H6.59802ZM9.97202 10.526C9.99068 10.526 10 10.512 10 10.484H9.97202V10.526ZM10.448 10.512C10.4387 10.5213 10.4293 10.5213 10.42 10.512H10.406C10.4153 10.512 10.42 10.5213 10.42 10.54L10.434 10.568C10.4247 10.568 10.42 10.5773 10.42 10.596C10.4387 10.5867 10.4573 10.5633 10.476 10.526H10.462L10.448 10.512H10.462C10.4713 10.5027 10.476 10.4933 10.476 10.484C10.4573 10.484 10.448 10.4933 10.448 10.512ZM11.036 10.54C11.0173 10.54 11.008 10.5493 11.008 10.568H11.036V10.554V10.54ZM10.84 10.82C10.8587 10.792 10.868 10.75 10.868 10.694C10.8773 10.638 10.8867 10.596 10.896 10.568H10.854C10.826 10.7173 10.8213 10.8013 10.84 10.82ZM9.45402 10.652C9.44468 10.6707 9.44468 10.6847 9.45402 10.694C9.46335 10.7033 9.46802 10.7127 9.46802 10.722C9.48668 10.722 9.51002 10.7173 9.53802 10.708C9.57535 10.6893 9.60802 10.6847 9.63602 10.694C9.63602 10.6753 9.65002 10.6613 9.67802 10.652C9.71535 10.6427 9.73402 10.624 9.73402 10.596C9.69668 10.5773 9.64535 10.582 9.58002 10.61C9.51468 10.638 9.47268 10.652 9.45402 10.652ZM10.42 10.666C10.42 10.6753 10.406 10.68 10.378 10.68C10.378 10.736 10.3873 10.7687 10.406 10.778C10.4713 10.7687 10.49 10.7127 10.462 10.61H10.434L10.42 10.596C10.42 10.6053 10.4153 10.6193 10.406 10.638C10.406 10.6473 10.406 10.6567 10.406 10.666H10.42ZM10.042 10.68C10.0327 10.6707 10.014 10.666 9.98602 10.666C9.97668 10.6753 9.98135 10.6847 10 10.694C10.0187 10.694 10.0327 10.6893 10.042 10.68ZM10.966 10.722C10.9847 10.722 10.9987 10.7127 11.008 10.694V10.666C10.9893 10.666 10.9753 10.6847 10.966 10.722ZM9.27202 10.722C9.32802 10.7033 9.36068 10.6847 9.37002 10.666C9.31402 10.666 9.28135 10.6847 9.27202 10.722ZM9.27202 10.736H9.24402C9.23468 10.736 9.23002 10.7313 9.23002 10.722C9.23002 10.7313 9.23002 10.7407 9.23002 10.75L9.27202 10.736ZM10.406 10.96C10.378 11.0253 10.3593 11.058 10.35 11.058C10.3593 11.0673 10.364 11.0813 10.364 11.1C10.364 11.1187 10.3687 11.1327 10.378 11.142C10.35 11.1513 10.336 11.1747 10.336 11.212C10.336 11.2493 10.3313 11.2727 10.322 11.282C10.3407 11.2913 10.35 11.3287 10.35 11.394C10.3687 11.394 10.378 11.3567 10.378 11.282C10.3873 11.282 10.406 11.2727 10.434 11.254C10.462 11.2353 10.4853 11.2213 10.504 11.212C10.504 11.1933 10.504 11.156 10.504 11.1C10.504 11.0347 10.504 10.9927 10.504 10.974C10.5507 10.9553 10.56 10.932 10.532 10.904C10.5227 10.8947 10.504 10.89 10.476 10.89C10.476 10.918 10.4667 10.9367 10.448 10.946L10.434 10.932L10.42 10.918V10.904C10.4387 10.8947 10.4433 10.8807 10.434 10.862C10.434 10.834 10.4387 10.8153 10.448 10.806C10.4387 10.7967 10.4247 10.7967 10.406 10.806C10.3967 10.806 10.3873 10.8013 10.378 10.792C10.3873 10.8387 10.392 10.8807 10.392 10.918L10.364 10.932C10.3547 10.932 10.35 10.9413 10.35 10.96H10.406ZM9.27202 10.82C9.27202 10.8387 9.29068 10.848 9.32802 10.848C9.32802 10.8293 9.30935 10.82 9.27202 10.82ZM8.83802 10.918C8.84735 10.8807 8.83335 10.8713 8.79602 10.89C8.79602 10.9087 8.81002 10.918 8.83802 10.918ZM10.938 10.988C10.938 10.9507 10.9333 10.9367 10.924 10.946C10.924 10.9647 10.9287 10.9787 10.938 10.988ZM10.812 11.03C10.84 11.0487 10.8493 11.086 10.84 11.142C10.8307 11.1887 10.8307 11.226 10.84 11.254C10.8587 11.2447 10.868 11.212 10.868 11.156C10.868 11.1 10.8773 11.0627 10.896 11.044L10.868 10.96C10.8587 10.96 10.8493 10.9693 10.84 10.988C10.8307 11.0067 10.8213 11.0207 10.812 11.03ZM10.378 10.988H10.364H10.378ZM11.358 11.086C11.3487 11.0953 11.344 11.1 11.344 11.1H11.33C11.3487 11.1 11.358 11.0953 11.358 11.086ZM10.182 11.268C10.2007 11.2773 10.2147 11.2633 10.224 11.226C10.2147 11.198 10.2007 11.1793 10.182 11.17V11.268ZM10.434 11.408H10.448C10.4573 11.3987 10.4667 11.394 10.476 11.394V11.38H10.462L10.448 11.366L10.434 11.38C10.4247 11.3893 10.4247 11.3987 10.434 11.408ZM10.294 11.478C10.3033 11.4873 10.3127 11.4873 10.322 11.478C10.3407 11.4687 10.3407 11.4593 10.322 11.45C10.322 11.4593 10.3173 11.464 10.308 11.464C10.2987 11.464 10.294 11.4687 10.294 11.478ZM7.25602 11.716C7.28402 11.716 7.29802 11.702 7.29802 11.674C7.27935 11.6647 7.27002 11.674 7.27002 11.702L7.25602 11.716ZM10.84 12.066C10.8587 12.066 10.8727 12.052 10.882 12.024C10.9007 11.9867 10.9147 11.968 10.924 11.968L10.91 11.954C10.9007 11.9447 10.8913 11.94 10.882 11.94C10.882 11.9587 10.8727 11.982 10.854 12.01C10.8447 12.038 10.84 12.0567 10.84 12.066ZM11.05 13.508H11.008V13.55C10.9987 13.5593 10.9847 13.564 10.966 13.564C10.966 13.5733 10.966 13.592 10.966 13.62C10.966 13.6667 10.98 13.6947 11.008 13.704C11.008 13.648 11.022 13.6247 11.05 13.634C11.0407 13.6153 11.0407 13.592 11.05 13.564C11.0593 13.536 11.0593 13.5173 11.05 13.508H11.064C11.0827 13.4893 11.0827 13.466 11.064 13.438C11.0547 13.4287 11.0453 13.4333 11.036 13.452C11.036 13.4707 11.0407 13.4893 11.05 13.508ZM10.196 13.522C10.1867 13.5127 10.1773 13.5127 10.168 13.522L10.154 13.536C10.1633 13.564 10.168 13.6013 10.168 13.648C10.1773 13.6853 10.182 13.7133 10.182 13.732H10.168C10.168 13.732 10.1633 13.7367 10.154 13.746C10.1633 13.7553 10.168 13.774 10.168 13.802C10.168 13.8207 10.1727 13.8393 10.182 13.858C10.1913 13.8673 10.2053 13.872 10.224 13.872C10.2147 13.8533 10.2147 13.8393 10.224 13.83C10.2427 13.8207 10.252 13.8113 10.252 13.802C10.252 13.7927 10.2427 13.788 10.224 13.788C10.2147 13.7787 10.21 13.7693 10.21 13.76L10.224 13.732C10.224 13.7227 10.2333 13.718 10.252 13.718C10.252 13.7087 10.2473 13.704 10.238 13.704C10.2287 13.6947 10.224 13.6807 10.224 13.662C10.2427 13.662 10.252 13.6573 10.252 13.648C10.252 13.6387 10.2567 13.634 10.266 13.634C10.266 13.6247 10.2613 13.6153 10.252 13.606C10.2427 13.5967 10.2427 13.5827 10.252 13.564L10.266 13.55L10.294 13.536C10.238 13.508 10.2053 13.4893 10.196 13.48V13.522ZM10.56 13.522H10.546C10.5553 13.5313 10.56 13.5313 10.56 13.522ZM11.05 13.802C11.0407 13.802 11.036 13.7973 11.036 13.788C11.036 13.7693 11.0267 13.7647 11.008 13.774C11.0173 13.7927 11.0313 13.802 11.05 13.802ZM11.12 13.97L11.106 13.956H11.092C11.1013 13.956 11.1107 13.9607 11.12 13.97ZM10.14 14.11V14.124C10.1493 14.1333 10.1587 14.1333 10.168 14.124C10.168 14.1053 10.1727 14.096 10.182 14.096C10.154 14.0773 10.14 14.082 10.14 14.11ZM10.224 14.292H10.21L10.196 14.278C10.2053 14.278 10.2147 14.2827 10.224 14.292ZM10.546 14.516H10.518H10.546ZM10.532 14.614C10.5227 14.6233 10.5133 14.6233 10.504 14.614C10.504 14.6047 10.4993 14.6 10.49 14.6C10.49 14.6093 10.49 14.6187 10.49 14.628C10.518 14.6467 10.532 14.642 10.532 14.614ZM10.098 15.272C10.1073 15.272 10.112 15.272 10.112 15.272L10.14 15.286C10.1587 15.2673 10.168 15.244 10.168 15.216C10.14 15.216 10.1167 15.2347 10.098 15.272ZM10.966 15.818C10.966 15.8087 10.9613 15.7993 10.952 15.79V15.804L10.966 15.818ZM10.966 15.818C10.9193 15.818 10.9053 15.8413 10.924 15.888C10.8867 15.8973 10.882 15.9627 10.91 16.084C10.9193 16.084 10.924 16.0793 10.924 16.07C10.924 16.0607 10.9287 16.056 10.938 16.056C10.9287 16.028 10.9287 16.0047 10.938 15.986C10.9567 15.958 10.9613 15.9347 10.952 15.916C10.98 15.916 10.994 15.902 10.994 15.874L10.98 15.86C10.9707 15.8413 10.966 15.8273 10.966 15.818ZM9.95802 15.888H9.97202C9.96268 15.888 9.95335 15.888 9.94402 15.888H9.95802ZM10.896 16.182C10.9333 16.182 10.9567 16.1727 10.966 16.154H10.91C10.9007 16.154 10.896 16.1633 10.896 16.182ZM10.882 16.266H10.91V16.238H10.882V16.266ZM10.882 16.406H10.924C10.924 16.378 10.9193 16.3593 10.91 16.35L10.882 16.406ZM10.378 16.966C10.3593 16.966 10.35 16.9753 10.35 16.994C10.3593 16.994 10.364 17.0033 10.364 17.022C10.3733 17.05 10.3827 17.0687 10.392 17.078C10.4107 17.0593 10.4107 17.022 10.392 16.966C10.3827 16.91 10.378 16.8633 10.378 16.826H10.336C10.336 16.8447 10.3407 16.868 10.35 16.896C10.3593 16.9333 10.3687 16.9567 10.378 16.966ZM10.868 17.722H10.84H10.868ZM10.49 18.142L10.462 18.17C10.462 18.1793 10.4667 18.1793 10.476 18.17C10.4947 18.1607 10.4993 18.1513 10.49 18.142ZM10.462 18.268C10.462 18.2493 10.4667 18.24 10.476 18.24C10.4667 18.24 10.4573 18.24 10.448 18.24L10.434 18.226C10.434 18.254 10.4433 18.268 10.462 18.268ZM9.49602 5.836C9.49602 5.84533 9.50535 5.85 9.52402 5.85L9.51002 5.864H9.49602V5.836ZM10.672 6.088L10.714 6.158C10.7047 6.158 10.6907 6.13467 10.672 6.088ZM10.028 7.138C10.0373 7.138 10.0467 7.14733 10.056 7.166C10.0653 7.18467 10.0747 7.194 10.084 7.194V7.264C10.0653 7.264 10.0467 7.222 10.028 7.138ZM10 7.236C10.028 7.24533 10.0373 7.27333 10.028 7.32C10.0187 7.36667 10.0187 7.39467 10.028 7.404C10 7.42267 9.98602 7.446 9.98602 7.474C9.96735 7.46467 9.96268 7.45067 9.97202 7.432C9.98135 7.41333 9.97668 7.39933 9.95802 7.39C9.98602 7.34333 10 7.292 10 7.236ZM9.87402 7.264C9.88335 7.27333 9.88802 7.28733 9.88802 7.306C9.89735 7.32467 9.90668 7.33867 9.91602 7.348C9.88802 7.32 9.86935 7.32 9.86002 7.348C9.85068 7.33867 9.85535 7.31067 9.87402 7.264ZM9.88802 7.362C9.90668 7.362 9.91602 7.37133 9.91602 7.39C9.87868 7.39 9.86935 7.38067 9.88802 7.362ZM9.81802 7.516C9.82735 7.516 9.83202 7.52067 9.83202 7.53C9.83202 7.53933 9.83668 7.54867 9.84602 7.558C9.85535 7.60467 9.86002 7.628 9.86002 7.628C9.86002 7.63733 9.86002 7.64667 9.86002 7.656C9.86002 7.656 9.86002 7.66067 9.86002 7.67L9.84602 7.656C9.83668 7.63733 9.82268 7.63267 9.80402 7.642C9.83202 7.68867 9.84602 7.73067 9.84602 7.768C9.83668 7.77733 9.82735 7.77733 9.81802 7.768C9.81802 7.75867 9.82268 7.74933 9.83202 7.74C9.82268 7.74 9.81802 7.74933 9.81802 7.768C9.81802 7.77733 9.80868 7.77733 9.79002 7.768C9.79002 7.69333 9.79468 7.62333 9.80402 7.558L9.79002 7.572C9.78068 7.572 9.77135 7.572 9.76202 7.572V7.53C9.77135 7.52067 9.78068 7.516 9.79002 7.516H9.81802ZM9.66402 7.754C9.70135 7.782 9.69668 7.80533 9.65002 7.824C9.65002 7.81467 9.65002 7.80533 9.65002 7.796C9.65935 7.77733 9.66402 7.76333 9.66402 7.754ZM9.60802 7.852C9.62668 7.84267 9.63602 7.852 9.63602 7.88C9.61735 7.88 9.60802 7.87067 9.60802 7.852ZM9.45402 8.286H9.46802H9.45402ZM9.14602 9.238H9.21602V9.28C9.20668 9.31733 9.19268 9.34067 9.17402 9.35V9.336C9.18335 9.31733 9.17402 9.28467 9.14602 9.238ZM9.13202 9.448H9.14602V9.462H9.13202V9.448ZM13.92 9.504C13.9013 9.504 13.892 9.50867 13.892 9.518C13.892 9.50867 13.8827 9.504 13.864 9.504C13.8453 9.49467 13.8407 9.48533 13.85 9.476C13.906 9.476 13.9293 9.48533 13.92 9.504ZM13.92 9.504C13.9387 9.504 13.9527 9.50867 13.962 9.518C13.9433 9.518 13.9293 9.51333 13.92 9.504ZM8.95002 9.854C8.95002 9.86333 8.95935 9.868 8.97802 9.868C8.95935 9.896 8.96402 9.91 8.99202 9.91H9.00602V9.938C8.97802 9.938 8.95935 9.93333 8.95002 9.924V9.854ZM8.90802 9.966V9.952V9.966ZM13.206 10.092H13.22C13.2107 10.1013 13.206 10.1013 13.206 10.092ZM13.164 10.232H13.178H13.164ZM12.324 10.232C12.352 10.26 12.338 10.274 12.282 10.274C12.282 10.2647 12.2867 10.26 12.296 10.26C12.3147 10.26 12.324 10.2507 12.324 10.232ZM12.464 10.274C12.4827 10.2833 12.4873 10.2927 12.478 10.302C12.4687 10.3113 12.4547 10.3113 12.436 10.302L12.464 10.274ZM12.73 10.302H12.814L12.73 10.316V10.302ZM12.604 10.316C12.5853 10.3347 12.5713 10.3393 12.562 10.33C12.562 10.3207 12.576 10.316 12.604 10.316ZM11.652 10.428C11.6427 10.428 11.638 10.4373 11.638 10.456C11.6287 10.4467 11.61 10.442 11.582 10.442L11.54 10.428H11.652ZM10.42 10.666C10.42 10.6473 10.4293 10.6473 10.448 10.666H10.42ZM10.154 10.694H10.182H10.154ZM10.434 10.722V10.75H10.392C10.4107 10.7313 10.4247 10.722 10.434 10.722ZM10.434 10.932L10.406 10.96C10.4153 10.96 10.42 10.9647 10.42 10.974C10.4293 10.974 10.434 10.96 10.434 10.932ZM10.448 10.96C10.4573 10.9693 10.4667 10.988 10.476 11.016V11.044H10.448C10.4387 11.0533 10.4293 11.058 10.42 11.058C10.42 11.0487 10.4247 11.0347 10.434 11.016C10.4433 10.9973 10.448 10.9787 10.448 10.96ZM10.448 11.072C10.448 11.1 10.4247 11.114 10.378 11.114C10.378 11.1047 10.4013 11.0907 10.448 11.072ZM10.42 11.128H10.434L10.42 11.142V11.156C10.4013 11.156 10.4013 11.1467 10.42 11.128ZM8.58602 11.24C8.60468 11.24 8.60468 11.2493 8.58602 11.268H8.57202V11.254L8.58602 11.24ZM10.322 11.604H10.336H10.322ZM8.48802 11.618C8.50668 11.618 8.51602 11.6273 8.51602 11.646C8.49735 11.646 8.48802 11.6367 8.48802 11.618ZM10.126 11.702V11.688V11.702ZM10.28 11.8C10.28 11.828 10.2707 11.842 10.252 11.842C10.252 11.814 10.2613 11.8 10.28 11.8ZM10.448 11.926C10.448 11.926 10.448 11.9353 10.448 11.954V11.926ZM10.322 11.94C10.3407 11.9493 10.3453 11.9587 10.336 11.968L10.308 11.996C10.2893 11.9867 10.2847 11.9773 10.294 11.968C10.3127 11.9587 10.322 11.9493 10.322 11.94ZM10.098 11.968H10.126V11.996H10.07H10.084C10.1027 11.9867 10.1073 11.9773 10.098 11.968ZM10.42 11.968H10.448C10.4387 11.968 10.4293 11.9913 10.42 12.038C10.42 12.0753 10.406 12.094 10.378 12.094C10.378 12.0847 10.3827 12.0753 10.392 12.066C10.4013 12.0473 10.406 12.0333 10.406 12.024C10.4153 12.0053 10.42 11.9867 10.42 11.968ZM10.294 12.038C10.3033 12.0567 10.294 12.0753 10.266 12.094C10.2567 12.0753 10.2613 12.0613 10.28 12.052C10.2893 12.052 10.294 12.0473 10.294 12.038ZM10.476 12.15H10.49V12.164H10.476V12.15ZM10.49 12.192C10.4993 12.2013 10.504 12.2153 10.504 12.234H10.476V12.22V12.206L10.49 12.192ZM10.364 12.234C10.364 12.2247 10.3687 12.22 10.378 12.22C10.3873 12.22 10.392 12.2247 10.392 12.234H10.364ZM10.504 12.304C10.5227 12.3133 10.5273 12.3227 10.518 12.332C10.5087 12.3413 10.4947 12.3413 10.476 12.332L10.49 12.318L10.504 12.304ZM10.504 12.43C10.504 12.458 10.4853 12.472 10.448 12.472C10.448 12.444 10.4667 12.43 10.504 12.43ZM10.252 12.556L10.294 12.514C10.294 12.5047 10.294 12.4953 10.294 12.486C10.3033 12.4767 10.3033 12.4627 10.294 12.444H10.308C10.3173 12.4533 10.3267 12.458 10.336 12.458H10.322C10.3313 12.4767 10.3267 12.5 10.308 12.528L10.294 12.556H10.252ZM10.392 12.528C10.4107 12.528 10.4153 12.542 10.406 12.57C10.3967 12.5887 10.3827 12.598 10.364 12.598L10.378 12.57V12.556L10.392 12.542V12.528ZM10.406 12.64C10.406 12.6307 10.4153 12.626 10.434 12.626V12.99C10.406 12.99 10.3827 12.9993 10.364 13.018L10.378 13.046C10.3967 13.0647 10.406 13.074 10.406 13.074C10.406 13.0833 10.3873 13.088 10.35 13.088C10.3593 13.0787 10.3593 13.0647 10.35 13.046C10.3407 13.018 10.336 12.9993 10.336 12.99C10.2987 13.0273 10.2753 13.0413 10.266 13.032C10.266 13.0227 10.2707 13.0133 10.28 13.004C10.2987 12.9947 10.3033 12.9807 10.294 12.962H10.35C10.3407 12.9527 10.336 12.9387 10.336 12.92C10.3453 12.892 10.3407 12.8733 10.322 12.864C10.3407 12.8547 10.35 12.808 10.35 12.724C10.3687 12.724 10.3827 12.7193 10.392 12.71L10.406 12.696C10.406 12.6867 10.3967 12.682 10.378 12.682C10.3593 12.682 10.3547 12.6727 10.364 12.654H10.42C10.42 12.6447 10.4153 12.64 10.406 12.64ZM11.218 13.074H11.232H11.218C11.2087 13.074 11.1947 13.0787 11.176 13.088H11.162V13.046C11.1713 13.0553 11.1807 13.06 11.19 13.06L11.204 13.046C11.204 13.0647 11.2087 13.0693 11.218 13.06C11.2273 13.0507 11.2367 13.046 11.246 13.046C11.2553 13.0553 11.2553 13.0693 11.246 13.088C11.246 13.0973 11.2367 13.0973 11.218 13.088V13.074ZM10.448 13.172L10.462 13.158L10.448 13.172ZM11.162 13.704V13.676L11.176 13.69L11.162 13.704ZM11.162 13.704C11.1527 13.732 11.1527 13.7647 11.162 13.802C11.1433 13.7927 11.134 13.7693 11.134 13.732L11.162 13.704ZM11.176 13.76L11.19 13.774V13.802L11.176 13.788V13.76ZM11.106 13.788C11.1153 13.788 11.12 13.7927 11.12 13.802C11.12 13.802 11.1247 13.802 11.134 13.802C11.1247 13.802 11.12 13.8067 11.12 13.816L11.106 13.802V13.788ZM7.95602 13.844C7.96535 13.844 7.97002 13.8393 7.97002 13.83L7.95602 13.844ZM11.232 13.942C11.2507 13.942 11.26 13.9513 11.26 13.97L11.246 13.956H11.232V13.942ZM9.91602 13.956C9.95335 13.956 9.95802 13.97 9.93002 13.998C9.92068 13.9887 9.91602 13.9747 9.91602 13.956ZM6.65402 13.984H6.66802V13.998H6.65402V13.984ZM9.88802 14.026H9.94402L9.91602 14.04C9.90668 14.04 9.90202 14.0447 9.90202 14.054C9.89268 14.054 9.88802 14.054 9.88802 14.054C9.88802 14.0447 9.88802 14.0353 9.88802 14.026ZM9.93002 14.11L9.90202 14.166C9.89268 14.1567 9.89268 14.1473 9.90202 14.138C9.91135 14.1193 9.92068 14.11 9.93002 14.11ZM10.28 14.124L10.252 14.152C10.252 14.1613 10.2613 14.1753 10.28 14.194C10.2707 14.2033 10.2567 14.2033 10.238 14.194C10.2287 14.1753 10.224 14.1613 10.224 14.152L10.28 14.124ZM9.88802 14.292H9.90202H9.91602V14.32C9.91602 14.3293 9.91135 14.3433 9.90202 14.362C9.89268 14.3713 9.88802 14.3807 9.88802 14.39V14.292ZM11.148 14.292H11.162V14.306H11.148V14.292ZM9.88802 14.488H9.90202C9.91135 14.4973 9.92068 14.502 9.93002 14.502V14.572C9.93002 14.5813 9.92068 14.586 9.90202 14.586C9.88335 14.5767 9.86935 14.572 9.86002 14.572L9.88802 14.488ZM11.134 14.516H11.162L11.148 14.53C11.148 14.5393 11.1433 14.544 11.134 14.544V14.516ZM6.51402 14.614L6.52802 14.628V14.642H6.50002C6.50002 14.6327 6.50002 14.628 6.50002 14.628C6.50935 14.628 6.51402 14.6233 6.51402 14.614ZM9.88802 14.656H9.90202V14.684H9.88802V14.656ZM11.05 14.796H11.064V14.81H11.05V14.796ZM11.106 14.894C11.106 14.8847 11.106 14.866 11.106 14.838C11.106 14.81 11.1107 14.796 11.12 14.796C11.148 14.8147 11.162 14.852 11.162 14.908C11.1527 14.908 11.1433 14.908 11.134 14.908C11.1247 14.8987 11.1153 14.894 11.106 14.894ZM11.106 14.894L11.12 14.908C11.12 14.9173 11.12 14.9267 11.12 14.936H11.078C11.078 14.9547 11.0873 14.9733 11.106 14.992C11.1247 15.0107 11.134 15.0247 11.134 15.034C11.1247 15.0433 11.106 15.048 11.078 15.048C11.0593 15.0387 11.0453 15.0433 11.036 15.062V14.978C11.0547 14.9687 11.0687 14.9547 11.078 14.936C11.0873 14.908 11.0967 14.894 11.106 14.894ZM11.064 15.076H11.106L11.12 15.09C11.1293 15.0993 11.1293 15.1087 11.12 15.118C11.1107 15.1087 11.0967 15.1133 11.078 15.132C11.0687 15.1413 11.0593 15.1413 11.05 15.132C11.05 15.1227 11.05 15.1133 11.05 15.104C11.0593 15.0947 11.064 15.0853 11.064 15.076ZM10.35 15.076H10.378V15.132V15.09C10.3593 15.09 10.35 15.0853 10.35 15.076ZM10.182 15.132H10.196H10.182ZM10.294 15.146C10.3127 15.146 10.322 15.16 10.322 15.188H10.28C10.28 15.1787 10.28 15.1693 10.28 15.16L10.294 15.146ZM11.064 15.16C11.092 15.16 11.092 15.174 11.064 15.202C11.0547 15.2113 11.0453 15.2113 11.036 15.202C11.036 15.1927 11.036 15.1833 11.036 15.174L11.064 15.16ZM10.28 15.202H10.308C10.2987 15.2113 10.3033 15.2347 10.322 15.272C10.322 15.3093 10.308 15.328 10.28 15.328C10.2707 15.3187 10.2707 15.3 10.28 15.272C10.2987 15.2347 10.2987 15.2113 10.28 15.202ZM11.106 15.258C11.106 15.2673 11.1107 15.272 11.12 15.272C11.1107 15.272 11.106 15.2767 11.106 15.286C11.106 15.2767 11.1013 15.272 11.092 15.272C11.1013 15.272 11.106 15.2673 11.106 15.258ZM10.238 15.314C10.238 15.342 10.2287 15.356 10.21 15.356C10.21 15.328 10.2193 15.314 10.238 15.314ZM9.86002 15.384H9.88802V15.412H9.86002V15.398V15.384ZM10.98 15.384H11.008V15.412H10.994C10.9847 15.4027 10.98 15.3933 10.98 15.384ZM11.008 15.468C10.9987 15.44 11.0033 15.426 11.022 15.426C11.0407 15.426 11.0453 15.44 11.036 15.468H11.008ZM11.134 15.468H11.148C11.148 15.468 11.148 15.4633 11.148 15.454C11.1387 15.454 11.134 15.4587 11.134 15.468ZM9.87402 15.524C9.88335 15.5333 9.88802 15.538 9.88802 15.538C9.88802 15.5473 9.88802 15.5567 9.88802 15.566C9.87868 15.566 9.86935 15.5613 9.86002 15.552C9.86002 15.5427 9.86468 15.5333 9.87402 15.524ZM6.26202 15.804C6.28068 15.804 6.29002 15.8133 6.29002 15.832C6.28068 15.832 6.27602 15.832 6.27602 15.832C6.27602 15.8227 6.27135 15.818 6.26202 15.818V15.804ZM10.28 15.986H10.294C10.294 15.9953 10.2847 16 10.266 16L10.28 15.986ZM9.91602 16.336C9.92535 16.336 9.93002 16.3453 9.93002 16.364C9.92068 16.364 9.91602 16.3593 9.91602 16.35C9.91602 16.35 9.91135 16.35 9.90202 16.35C9.91135 16.35 9.91602 16.3453 9.91602 16.336ZM10.028 17.624C10.0373 17.624 10.042 17.6427 10.042 17.68C10.014 17.652 10.0093 17.6333 10.028 17.624ZM10.028 17.75H10.056C10.0373 17.7687 10.028 17.7687 10.028 17.75ZM16.3054 13.172C16.3147 13.1813 16.3194 13.1813 16.3194 13.172C16.3474 13.172 16.3614 13.158 16.3614 13.13C16.3894 13.13 16.3987 13.1113 16.3894 13.074L16.4734 13.032C16.5014 13.0227 16.5294 12.9993 16.5574 12.962C16.5947 12.9247 16.6274 12.9013 16.6554 12.892V12.85C16.6647 12.8593 16.6694 12.8593 16.6694 12.85C16.6787 12.8407 16.688 12.836 16.6974 12.836C16.716 12.8267 16.73 12.8173 16.7394 12.808C16.7394 12.7893 16.744 12.78 16.7534 12.78H16.7114C16.7394 12.752 16.758 12.738 16.7674 12.738V12.752C16.7954 12.752 16.828 12.7333 16.8654 12.696L16.9074 12.64C16.9074 12.6307 16.9354 12.598 16.9914 12.542C16.9914 12.5327 16.996 12.528 17.0054 12.528C17.024 12.5187 17.0334 12.5093 17.0334 12.5C17.0427 12.5 17.0474 12.5047 17.0474 12.514C17.0474 12.5233 17.0427 12.528 17.0334 12.528C17.052 12.528 17.066 12.5187 17.0754 12.5C17.0847 12.4813 17.0987 12.472 17.1174 12.472C17.1267 12.472 17.1407 12.4627 17.1594 12.444C17.178 12.416 17.2014 12.402 17.2294 12.402V12.36C17.2387 12.3693 17.248 12.374 17.2574 12.374C17.304 12.2993 17.374 12.2293 17.4674 12.164H17.5094V12.122L17.5234 12.136H17.5374C17.5467 12.1173 17.57 12.094 17.6074 12.066C17.6447 12.038 17.668 12.0147 17.6774 11.996C17.7054 12.0053 17.7287 11.9867 17.7474 11.94C17.7847 11.9493 17.8174 11.9353 17.8454 11.898C17.8827 11.8513 17.9154 11.828 17.9434 11.828C17.9434 11.8187 17.962 11.8 17.9994 11.772C18.0367 11.744 18.0507 11.7207 18.0414 11.702C18.06 11.702 18.0694 11.7067 18.0694 11.716C18.0974 11.6973 18.1394 11.6693 18.1954 11.632C18.2607 11.5853 18.3167 11.548 18.3634 11.52C18.41 11.492 18.452 11.4733 18.4894 11.464C18.4987 11.4453 18.5127 11.4313 18.5314 11.422C18.55 11.4033 18.5734 11.3893 18.6014 11.38C18.6294 11.3613 18.648 11.3473 18.6574 11.338V11.31C18.732 11.2633 18.7694 11.2307 18.7694 11.212C18.8254 11.2027 18.8814 11.1793 18.9374 11.142C18.9934 11.0953 19.0447 11.072 19.0914 11.072C19.1287 11.016 19.2127 11.002 19.3434 11.03C19.3527 11.0487 19.3527 11.086 19.3434 11.142C19.334 11.198 19.3387 11.24 19.3574 11.268C19.348 11.268 19.3387 11.282 19.3294 11.31C19.3294 11.338 19.32 11.3567 19.3014 11.366C19.3107 11.422 19.2827 11.4733 19.2174 11.52C19.152 11.5573 19.1147 11.59 19.1054 11.618C19.0214 11.6553 18.9747 11.688 18.9654 11.716C18.8907 11.7347 18.8254 11.7767 18.7694 11.842C18.704 11.87 18.676 11.898 18.6854 11.926C18.6854 11.9167 18.69 11.912 18.6994 11.912L18.7134 11.898C18.7414 11.898 18.7554 11.8933 18.7554 11.884C18.7647 11.884 18.7694 11.884 18.7694 11.884V11.898C18.6574 12.01 18.452 12.178 18.1534 12.402C18.1347 12.402 18.13 12.3973 18.1394 12.388C18.13 12.416 18.102 12.4487 18.0554 12.486C18.018 12.514 17.9947 12.5327 17.9854 12.542C17.976 12.514 17.9854 12.4813 18.0134 12.444C18.0507 12.4067 18.0694 12.374 18.0694 12.346C17.8174 12.5327 17.654 12.6773 17.5794 12.78V12.808C17.6074 12.7987 17.6354 12.766 17.6634 12.71C17.6914 12.654 17.724 12.6213 17.7614 12.612V12.598C17.7894 12.5887 17.8174 12.57 17.8454 12.542C17.8827 12.514 17.9107 12.4953 17.9294 12.486C17.9387 12.486 17.9434 12.4907 17.9434 12.5C17.9527 12.5093 17.962 12.5093 17.9714 12.5V12.542C17.9434 12.57 17.8967 12.6073 17.8314 12.654C17.7754 12.7007 17.738 12.7287 17.7194 12.738V12.696V12.766C17.7007 12.766 17.6774 12.78 17.6494 12.808C17.6307 12.836 17.612 12.8453 17.5934 12.836C17.5467 12.9013 17.4627 12.9853 17.3414 13.088C17.2294 13.1813 17.15 13.2513 17.1034 13.298C17.094 13.298 17.0894 13.3027 17.0894 13.312C17.0894 13.312 17.0847 13.312 17.0754 13.312C17.066 13.312 17.0614 13.3167 17.0614 13.326C17.0614 13.3353 17.0614 13.3447 17.0614 13.354C16.7627 13.6247 16.5154 13.886 16.3194 14.138C16.1607 14.2967 16.0394 14.4553 15.9554 14.614C15.9554 14.6233 15.96 14.6373 15.9694 14.656L15.9834 14.698C15.9647 14.7167 15.9554 14.7633 15.9554 14.838C15.9647 14.9033 15.9554 14.9453 15.9274 14.964C15.9367 14.9733 15.9414 14.9967 15.9414 15.034C15.9414 15.0713 15.946 15.0993 15.9554 15.118C15.9367 15.174 15.9227 15.2673 15.9134 15.398C15.904 15.5193 15.8854 15.6127 15.8574 15.678C15.904 15.8367 15.8994 15.9487 15.8434 16.014C15.8434 16.0233 15.848 16.0327 15.8574 16.042C15.8667 16.0513 15.8667 16.0607 15.8574 16.07C15.848 16.07 15.8434 16.0793 15.8434 16.098C15.8527 16.1167 15.848 16.1307 15.8294 16.14L15.8574 16.168C15.848 16.1773 15.8434 16.196 15.8434 16.224C15.8434 16.252 15.834 16.2707 15.8154 16.28C15.834 16.336 15.8247 16.3827 15.7874 16.42C15.7874 16.448 15.7827 16.4853 15.7734 16.532C15.7734 16.5787 15.778 16.6207 15.7874 16.658C15.7967 16.6673 15.7967 16.672 15.7874 16.672C15.778 16.6813 15.7734 16.6907 15.7734 16.7C15.7734 16.7187 15.778 16.728 15.7874 16.728C15.7687 16.7747 15.7594 16.8773 15.7594 17.036C15.7594 17.064 15.75 17.0687 15.7314 17.05C15.7314 17.1247 15.722 17.218 15.7034 17.33C15.694 17.442 15.6894 17.5353 15.6894 17.61H15.6614C15.6707 17.6287 15.6754 17.6567 15.6754 17.694C15.6194 17.862 15.5914 18.072 15.5914 18.324C15.5727 18.3333 15.5634 18.3427 15.5634 18.352C15.5634 18.3707 15.5587 18.3847 15.5494 18.394C15.54 18.4033 15.54 18.408 15.5494 18.408C15.5587 18.4173 15.5634 18.4267 15.5634 18.436C15.5354 18.4547 15.5214 18.5013 15.5214 18.576C15.5214 18.6507 15.512 18.702 15.4934 18.73C15.4747 18.8887 15.4514 19.0007 15.4234 19.066C15.442 19.1127 15.4327 19.1687 15.3954 19.234C15.3954 19.2993 15.3767 19.402 15.3394 19.542C15.302 19.682 15.2787 19.7707 15.2694 19.808C15.26 19.808 15.2554 19.8173 15.2554 19.836C15.2554 19.8453 15.2507 19.85 15.2414 19.85C15.2414 19.8593 15.2367 19.864 15.2274 19.864C15.2274 19.8827 15.2274 19.8967 15.2274 19.906C15.2367 19.9153 15.2414 19.9247 15.2414 19.934H15.2134C15.2227 19.962 15.218 20.004 15.1994 20.06C15.1807 20.116 15.1714 20.158 15.1714 20.186C15.1434 20.214 15.12 20.2747 15.1014 20.368C15.092 20.4613 15.0687 20.522 15.0314 20.55C15.0314 20.5593 15.0314 20.5687 15.0314 20.578C15.0407 20.5873 15.0454 20.5967 15.0454 20.606C15.0267 20.634 15.0034 20.6853 14.9754 20.76C14.9567 20.8347 14.9334 20.886 14.9054 20.914C14.8867 21.0167 14.854 21.0773 14.8074 21.096C14.7887 21.1987 14.756 21.264 14.7094 21.292C14.672 21.404 14.5414 21.5393 14.3174 21.698V21.726C14.28 21.7353 14.252 21.754 14.2334 21.782C13.9534 21.8287 13.804 21.852 13.7854 21.852C13.748 21.88 13.6827 21.894 13.5894 21.894C13.58 21.894 13.5707 21.8893 13.5614 21.88C13.5614 21.8707 13.5567 21.866 13.5474 21.866C13.538 21.866 13.5334 21.8707 13.5334 21.88C13.5334 21.8893 13.538 21.894 13.5474 21.894C13.538 21.9033 13.5194 21.9033 13.4914 21.894C13.4634 21.894 13.4447 21.9033 13.4354 21.922C13.426 21.922 13.4074 21.9127 13.3794 21.894C13.3607 21.8847 13.3467 21.8847 13.3374 21.894C13.3374 21.8753 13.3327 21.866 13.3234 21.866C13.314 21.866 13.314 21.8707 13.3234 21.88C13.3234 21.8893 13.3234 21.8987 13.3234 21.908C13.314 21.8987 13.2767 21.894 13.2114 21.894C13.2114 21.9407 13.188 21.95 13.1414 21.922H13.1274H13.1134V21.894L13.0854 21.908C13.0667 21.908 13.0527 21.9033 13.0434 21.894C13.0527 21.8847 13.048 21.8707 13.0294 21.852C13.02 21.8427 13.006 21.8427 12.9874 21.852C12.978 21.8333 12.9687 21.8053 12.9594 21.768C12.95 21.74 12.936 21.7167 12.9174 21.698C12.908 21.6793 12.894 21.6653 12.8754 21.656C12.8754 21.6467 12.88 21.642 12.8894 21.642C12.8427 21.5767 12.8007 21.4787 12.7634 21.348C12.726 21.2267 12.698 21.1473 12.6794 21.11H12.7074C12.7074 21.1007 12.6887 20.956 12.6514 20.676C12.67 20.6667 12.684 20.6667 12.6934 20.676C12.6934 20.6387 12.6794 20.6293 12.6514 20.648C12.6514 20.62 12.6514 20.55 12.6514 20.438C12.6514 20.326 12.6607 20.2607 12.6794 20.242C12.6607 20.2233 12.6514 20.2093 12.6514 20.2C12.6514 20.1907 12.6514 20.1813 12.6514 20.172C12.6514 20.172 12.656 20.1767 12.6654 20.186C12.6747 20.186 12.684 20.186 12.6934 20.186C12.6654 20.1767 12.656 20.1067 12.6654 19.976C12.6747 19.8547 12.6794 19.78 12.6794 19.752C12.7074 19.752 12.7214 19.7473 12.7214 19.738C12.7214 19.7193 12.7167 19.7007 12.7074 19.682C12.698 19.6633 12.698 19.6447 12.7074 19.626C12.7167 19.626 12.7214 19.64 12.7214 19.668C12.74 19.6493 12.7494 19.6167 12.7494 19.57C12.7587 19.5233 12.7494 19.4953 12.7214 19.486C12.7214 19.4767 12.726 19.43 12.7354 19.346C12.754 19.262 12.7774 19.2107 12.8054 19.192L12.8194 19.206L12.8054 19.192C12.8147 19.1733 12.81 19.1593 12.7914 19.15C12.782 19.1407 12.7774 19.1313 12.7774 19.122H12.8194L12.8054 19.108C12.796 19.0987 12.7914 19.0893 12.7914 19.08H12.8334C12.8147 19.052 12.8147 18.996 12.8334 18.912C12.8614 18.828 12.8754 18.7767 12.8754 18.758C12.894 18.7767 12.9127 18.7767 12.9314 18.758H12.9174C12.908 18.758 12.894 18.7347 12.8754 18.688C12.8847 18.688 12.894 18.6833 12.9034 18.674C12.922 18.6647 12.936 18.66 12.9454 18.66C12.9454 18.6507 12.936 18.6413 12.9174 18.632C12.908 18.632 12.908 18.6273 12.9174 18.618C12.9174 18.6087 12.922 18.5993 12.9314 18.59C12.9407 18.5807 12.9454 18.5713 12.9454 18.562H12.9594C12.9407 18.534 12.9407 18.492 12.9594 18.436C12.978 18.3893 12.9827 18.3567 12.9734 18.338C12.9827 18.3287 12.9967 18.324 13.0154 18.324C13.034 18.3333 13.0434 18.3333 13.0434 18.324H13.0294C13.02 18.324 13.0154 18.3193 13.0154 18.31C13.0247 18.3007 13.034 18.296 13.0434 18.296C13.0527 18.3053 13.062 18.3053 13.0714 18.296C13.0714 18.2867 13.0667 18.282 13.0574 18.282L13.0294 18.268C13.0387 18.268 13.0434 18.2447 13.0434 18.198C13.062 18.2167 13.0714 18.2307 13.0714 18.24L13.1274 18.128C13.1274 18.1093 13.1227 18.0907 13.1134 18.072H13.1274L13.1414 18.086C13.1507 18.0673 13.1554 18.0487 13.1554 18.03C13.1647 18.0113 13.1694 17.9973 13.1694 17.988C13.16 17.988 13.1554 17.974 13.1554 17.946C13.1554 17.918 13.146 17.8993 13.1274 17.89C13.1367 17.8807 13.1554 17.8667 13.1834 17.848C13.2207 17.8293 13.244 17.806 13.2534 17.778L13.2254 17.75C13.244 17.75 13.272 17.708 13.3094 17.624C13.3 17.6147 13.2814 17.61 13.2534 17.61C13.2534 17.5633 13.2767 17.54 13.3234 17.54C13.3047 17.5213 13.3 17.5027 13.3094 17.484V17.47V17.414C13.3094 17.4233 13.314 17.4327 13.3234 17.442C13.3327 17.4513 13.342 17.4607 13.3514 17.47C13.3794 17.4233 13.412 17.3487 13.4494 17.246C13.496 17.1433 13.5334 17.0687 13.5614 17.022C13.552 17.0127 13.5474 16.9893 13.5474 16.952L13.5614 16.966C13.6267 16.854 13.6594 16.7747 13.6594 16.728C13.6687 16.728 13.678 16.714 13.6874 16.686C13.706 16.6673 13.7247 16.658 13.7434 16.658C13.7247 16.6487 13.7154 16.6347 13.7154 16.616C13.7247 16.5973 13.7247 16.5833 13.7154 16.574C13.7434 16.5833 13.7574 16.574 13.7574 16.546C13.748 16.546 13.7434 16.5413 13.7434 16.532C13.7434 16.5227 13.734 16.5133 13.7154 16.504H13.7294C13.748 16.504 13.7527 16.4947 13.7434 16.476C13.762 16.4947 13.7667 16.5133 13.7574 16.532C13.7667 16.532 13.776 16.5227 13.7854 16.504C13.7947 16.4853 13.8087 16.4853 13.8274 16.504C13.8274 16.4853 13.8274 16.4573 13.8274 16.42C13.8274 16.4013 13.8274 16.3827 13.8274 16.364C13.8274 16.3453 13.818 16.336 13.7994 16.336C13.818 16.3173 13.8367 16.308 13.8554 16.308C13.8554 16.2987 13.8507 16.2893 13.8414 16.28C13.8414 16.2707 13.8414 16.2613 13.8414 16.252H13.8974C13.9254 16.2427 13.93 16.2147 13.9114 16.168H13.9394C13.958 16.14 13.9907 16.07 14.0374 15.958C14.0934 15.846 14.14 15.762 14.1774 15.706C14.1774 15.6967 14.168 15.692 14.1494 15.692C14.1587 15.6827 14.1727 15.678 14.1914 15.678L14.1774 15.664C14.168 15.664 14.1634 15.6593 14.1634 15.65C14.2287 15.6033 14.2567 15.5567 14.2474 15.51C14.2847 15.482 14.3174 15.4307 14.3454 15.356C14.3827 15.2813 14.406 15.2393 14.4154 15.23V15.16C14.4247 15.16 14.4294 15.1693 14.4294 15.188C14.476 15.1413 14.4994 15.076 14.4994 14.992C14.5087 14.992 14.5134 15.0013 14.5134 15.02C14.532 15.0107 14.546 15.0013 14.5554 14.992C14.5647 14.9733 14.574 14.964 14.5834 14.964C14.574 14.9547 14.5694 14.936 14.5694 14.908C14.5787 14.88 14.5787 14.8567 14.5694 14.838C14.588 14.838 14.5974 14.8287 14.5974 14.81H14.6114V14.824V14.838H14.6254C14.6347 14.838 14.6394 14.8287 14.6394 14.81C14.6394 14.7913 14.6487 14.7773 14.6674 14.768C14.6674 14.7587 14.658 14.754 14.6394 14.754L14.6114 14.74H14.6814C14.672 14.74 14.658 14.7307 14.6394 14.712H14.6674C14.686 14.712 14.7 14.7073 14.7094 14.698C14.7094 14.6887 14.714 14.6747 14.7234 14.656C14.742 14.628 14.7467 14.6093 14.7374 14.6C14.7747 14.5627 14.7887 14.544 14.7794 14.544C14.7887 14.544 14.7934 14.5347 14.7934 14.516L14.7794 14.488C14.798 14.5067 14.8074 14.5253 14.8074 14.544C14.8447 14.4693 14.854 14.4227 14.8354 14.404C14.8447 14.404 14.8587 14.404 14.8774 14.404C14.896 14.404 14.9054 14.3993 14.9054 14.39V14.306C14.924 14.306 14.9334 14.2967 14.9334 14.278V14.348C14.9614 14.3293 14.98 14.306 14.9894 14.278C15.008 14.25 15.022 14.2173 15.0314 14.18C15.05 14.1427 15.064 14.1147 15.0734 14.096C15.064 14.0867 15.0594 14.0773 15.0594 14.068C15.078 14.0493 15.0967 14.0213 15.1154 13.984C15.1154 13.9093 15.1247 13.592 15.1434 13.032C15.1714 12.472 15.1807 12.0287 15.1714 11.702C15.134 11.73 15.0967 11.786 15.0594 11.87C15.0314 11.9447 15.0034 11.996 14.9754 12.024V12.066C14.966 12.066 14.9614 12.0567 14.9614 12.038C14.952 12.0473 14.9287 12.0847 14.8914 12.15C14.8634 12.2153 14.8354 12.2527 14.8074 12.262H14.8214C14.8307 12.2807 14.8214 12.304 14.7934 12.332C14.7747 12.3507 14.77 12.374 14.7794 12.402C14.7607 12.4207 14.7467 12.43 14.7374 12.43C14.728 12.4953 14.6907 12.5793 14.6254 12.682C14.56 12.7847 14.5227 12.8687 14.5134 12.934C14.4947 12.9807 14.4667 13.046 14.4294 13.13C14.392 13.214 14.364 13.2747 14.3454 13.312C14.2987 13.34 14.2847 13.3913 14.3034 13.466H14.2754L14.2894 13.48V13.508C14.2707 13.508 14.2614 13.5033 14.2614 13.494C14.252 13.5313 14.2334 13.5827 14.2054 13.648C14.1774 13.704 14.1587 13.7553 14.1494 13.802C14.1494 13.8113 14.14 13.816 14.1214 13.816C14.0934 13.9747 14.0047 14.1707 13.8554 14.404C13.846 14.4227 13.846 14.4413 13.8554 14.46C13.818 14.488 13.776 14.544 13.7294 14.628C13.6827 14.712 13.6407 14.768 13.6034 14.796C13.5847 14.852 13.5427 14.9127 13.4774 14.978C13.4214 15.0433 13.384 15.0993 13.3654 15.146C13.3374 15.1647 13.2954 15.1927 13.2394 15.23C13.1927 15.2673 13.1554 15.2953 13.1274 15.314C12.95 15.4073 12.7447 15.454 12.5114 15.454C12.3714 15.4447 12.2174 15.3933 12.0494 15.3C11.9934 15.188 11.9467 15.1087 11.9094 15.062L11.9234 15.048C11.9327 15.0387 11.9374 15.0293 11.9374 15.02H11.9234L11.8954 15.034C11.886 15.0247 11.886 15.02 11.8954 15.02C11.9047 15.0107 11.9094 15.0013 11.9094 14.992C11.9 14.992 11.8954 14.9873 11.8954 14.978C11.8207 14.4647 11.8114 14.0913 11.8674 13.858C11.8674 13.8393 11.872 13.8067 11.8814 13.76C11.8907 13.704 11.8907 13.662 11.8814 13.634C12.012 13.1207 12.236 12.556 12.5534 11.94C12.5907 11.828 12.6234 11.7533 12.6514 11.716C12.6794 11.6413 12.7307 11.534 12.8054 11.394C12.88 11.254 12.9314 11.142 12.9594 11.058C12.9874 11.03 13.0294 10.9693 13.0854 10.876C13.1414 10.7733 13.1927 10.708 13.2394 10.68C13.2394 10.6613 13.244 10.6473 13.2534 10.638C13.2627 10.6287 13.2674 10.6193 13.2674 10.61L13.2814 10.596C13.2907 10.5867 13.3 10.582 13.3094 10.582C13.3094 10.5727 13.3094 10.5633 13.3094 10.554C13.3094 10.5447 13.3094 10.5353 13.3094 10.526C13.4027 10.5073 13.468 10.484 13.5054 10.456C13.692 10.4187 13.958 10.4 14.3034 10.4C14.6487 10.4 14.8867 10.3907 15.0174 10.372V10.33C15.0267 10.302 15.0314 10.2787 15.0314 10.26L15.0454 10.246C15.0547 10.2367 15.064 10.232 15.0734 10.232C15.092 10.064 15.3114 10.0033 15.7314 10.05C15.918 10.0967 16.03 10.162 16.0674 10.246C16.1047 10.3207 16.128 10.4513 16.1374 10.638L16.1234 10.652C16.114 10.652 16.1094 10.6567 16.1094 10.666C16.1 10.75 16.0954 10.8853 16.0954 11.072C16.1047 11.2587 16.1094 11.3893 16.1094 11.464C16.1094 11.5013 16.1 11.5573 16.0814 11.632L16.0954 11.646C16.1047 11.6553 16.1094 11.6647 16.1094 11.674C16.1094 11.6833 16.1047 11.688 16.0954 11.688C16.086 11.688 16.0814 11.6927 16.0814 11.702C16.1 11.8607 16.1 11.9633 16.0814 12.01C16.1374 12.066 16.1327 12.1267 16.0674 12.192C16.0954 12.2667 16.1 12.3973 16.0814 12.584C16.0907 12.584 16.0954 12.5793 16.0954 12.57C16.0954 12.5607 16.1 12.5607 16.1094 12.57C16.1094 12.5793 16.0954 12.8547 16.0674 13.396C16.0767 13.396 16.0907 13.382 16.1094 13.354C16.1374 13.326 16.1654 13.3167 16.1934 13.326C16.1654 13.3073 16.17 13.284 16.2074 13.256H16.2494C16.2774 13.2 16.296 13.172 16.3054 13.172ZM14.7374 11.324C14.7654 11.2493 14.826 11.1653 14.9194 11.072C15.022 10.9693 15.0874 10.8993 15.1154 10.862C15.1154 10.8527 15.1107 10.8387 15.1014 10.82C15.1014 10.8013 15.0967 10.7827 15.0874 10.764C15.0874 10.7453 15.0827 10.7313 15.0734 10.722C14.924 10.7407 14.812 10.75 14.7374 10.75C14.7 10.7593 14.6534 10.778 14.5974 10.806C14.5414 10.834 14.4994 10.8527 14.4714 10.862C14.4527 10.8993 14.406 10.9507 14.3314 11.016C14.2567 11.072 14.21 11.1187 14.1914 11.156C14.182 11.1653 14.168 11.17 14.1494 11.17C14.1027 11.2447 14.0514 11.3053 13.9954 11.352C13.986 11.3893 13.9674 11.436 13.9394 11.492C13.9114 11.5387 13.8927 11.5853 13.8834 11.632C13.818 11.7253 13.734 11.87 13.6314 12.066C13.538 12.262 13.4634 12.402 13.4074 12.486C13.4074 12.5047 13.4027 12.5187 13.3934 12.528V12.556C13.384 12.556 13.3747 12.5607 13.3654 12.57C13.356 12.5793 13.3467 12.584 13.3374 12.584C13.2814 12.8173 13.2114 12.9947 13.1274 13.116C13.1087 13.1627 13.0387 13.3493 12.9174 13.676C12.936 13.676 12.9454 13.6807 12.9454 13.69H12.9174C12.8987 13.83 12.8707 13.9373 12.8334 14.012C12.8427 14.0493 12.824 14.1333 12.7774 14.264C12.7774 14.2827 12.7727 14.3247 12.7634 14.39C12.7634 14.446 12.768 14.4833 12.7774 14.502C12.8614 14.3993 12.9687 14.2173 13.0994 13.956C13.174 13.9093 13.2207 13.83 13.2394 13.718C13.258 13.718 13.2814 13.69 13.3094 13.634C13.3374 13.5687 13.3607 13.5313 13.3794 13.522V13.466H13.4214C13.496 13.3353 13.6034 13.13 13.7434 12.85C13.8927 12.57 14.0094 12.36 14.0934 12.22C14.112 12.2293 14.1214 12.2247 14.1214 12.206H14.1354C14.1354 12.178 14.1494 12.1547 14.1774 12.136C14.168 12.136 14.1587 12.1313 14.1494 12.122C14.168 12.1033 14.2007 12.052 14.2474 11.968C14.3034 11.8747 14.3594 11.8187 14.4154 11.8C14.406 11.772 14.3967 11.758 14.3874 11.758C14.4807 11.6367 14.532 11.5527 14.5414 11.506C14.5694 11.506 14.602 11.478 14.6394 11.422C14.6767 11.366 14.7094 11.3333 14.7374 11.324ZM14.9754 11.954H15.0034C15.0034 11.9447 15.008 11.9353 15.0174 11.926C15.0267 11.9073 15.022 11.898 15.0034 11.898C14.9754 11.926 14.966 11.9447 14.9754 11.954ZM18.6154 11.954C18.634 11.954 18.6434 11.9447 18.6434 11.926C18.6247 11.926 18.6154 11.9353 18.6154 11.954ZM18.5314 12.024C18.55 12.024 18.5594 12.01 18.5594 11.982C18.5407 11.982 18.5314 11.996 18.5314 12.024ZM18.5034 12.024H18.4894H18.5034ZM18.1534 12.248C18.1254 12.276 18.1067 12.29 18.0974 12.29C18.0974 12.2993 18.0927 12.3087 18.0834 12.318C18.0834 12.3273 18.0834 12.3367 18.0834 12.346C18.102 12.346 18.1114 12.3553 18.1114 12.374C18.1207 12.374 18.1254 12.3647 18.1254 12.346C18.1347 12.318 18.144 12.304 18.1534 12.304H18.2234V12.248C18.2607 12.2573 18.2934 12.2387 18.3214 12.192C18.3494 12.1453 18.3774 12.122 18.4054 12.122C18.4147 12.1033 18.424 12.0893 18.4334 12.08C18.4054 12.0893 18.3587 12.1173 18.2934 12.164C18.228 12.2107 18.1814 12.2387 18.1534 12.248ZM17.5094 12.822C17.5094 12.8313 17.5094 12.836 17.5094 12.836L17.4954 12.864C17.5047 12.864 17.5094 12.864 17.5094 12.864V12.822C17.5094 12.8127 17.514 12.808 17.5234 12.808C17.542 12.7987 17.5514 12.7893 17.5514 12.78C17.4767 12.8173 17.4347 12.8547 17.4254 12.892C17.444 12.892 17.458 12.8827 17.4674 12.864C17.486 12.836 17.5 12.822 17.5094 12.822ZM16.9494 12.878C16.968 12.878 16.9774 12.8733 16.9774 12.864C16.9587 12.864 16.9494 12.8687 16.9494 12.878ZM17.0614 12.878C17.0894 12.878 17.1034 12.8733 17.1034 12.864C17.0754 12.864 17.0614 12.8687 17.0614 12.878ZM17.3554 12.934L17.2574 13.032C17.2947 13.0227 17.3274 13.0087 17.3554 12.99C17.3927 12.962 17.4067 12.934 17.3974 12.906C17.3974 12.9247 17.3834 12.934 17.3554 12.934ZM17.0334 12.92H17.0194H17.0334ZM17.1314 13.2C17.1314 13.1907 17.1267 13.186 17.1174 13.186C17.108 13.186 17.1034 13.1907 17.1034 13.2H17.1314ZM15.0594 14.348C15.0687 14.348 15.078 14.3387 15.0874 14.32C15.0967 14.3013 15.0967 14.2873 15.0874 14.278C15.0874 14.2873 15.0827 14.2967 15.0734 14.306C15.064 14.3153 15.0594 14.3293 15.0594 14.348ZM15.0174 14.404H15.0314V14.376H15.0174V14.404ZM14.5834 14.866H14.5974C14.5974 14.8473 14.5927 14.838 14.5834 14.838V14.866ZM14.8354 15.174C14.8447 15.1647 14.8447 15.1553 14.8354 15.146C14.826 15.1273 14.8167 15.1227 14.8074 15.132C14.798 15.16 14.8074 15.174 14.8354 15.174ZM14.9754 15.258V15.272H15.0034V15.258V15.244H14.9894C14.9894 15.2533 14.9847 15.258 14.9754 15.258ZM12.2314 15.328C12.1847 15.2813 12.1427 15.2673 12.1054 15.286C12.152 15.3233 12.194 15.3373 12.2314 15.328ZM14.9194 15.342C14.9474 15.342 14.9614 15.356 14.9614 15.384C14.9614 15.4027 14.9614 15.4167 14.9614 15.426C14.9707 15.426 14.9847 15.426 15.0034 15.426C14.9847 15.3513 14.9614 15.3047 14.9334 15.286C14.924 15.2953 14.9194 15.314 14.9194 15.342ZM14.8634 15.454H14.9054V15.426C14.8774 15.426 14.8634 15.4353 14.8634 15.454ZM14.4294 19.57C14.42 19.5607 14.42 19.556 14.4294 19.556L14.4434 19.542C14.4527 19.4673 14.4807 19.3413 14.5274 19.164C14.5834 18.9867 14.6114 18.856 14.6114 18.772H14.6394C14.658 18.7627 14.6627 18.7487 14.6534 18.73L14.6394 18.716C14.6487 18.632 14.6814 18.4453 14.7374 18.156C14.7934 17.8667 14.826 17.652 14.8354 17.512H14.8074C14.8074 17.5027 14.8167 17.498 14.8354 17.498C14.826 17.4607 14.8307 17.3813 14.8494 17.26C14.868 17.148 14.868 17.078 14.8494 17.05C14.8494 17.0407 14.854 17.0313 14.8634 17.022L14.8774 17.008C14.868 17.008 14.8634 16.9987 14.8634 16.98C14.9474 16.7747 14.9614 16.658 14.9054 16.63C14.9334 16.6113 14.9474 16.56 14.9474 16.476C14.9474 16.4013 14.9707 16.3593 15.0174 16.35C15.0174 16.322 15.0127 16.308 15.0034 16.308C15.022 16.2987 15.0314 16.2707 15.0314 16.224C15.022 16.224 15.0127 16.2287 15.0034 16.238C15.0034 16.2567 14.9987 16.266 14.9894 16.266C14.9894 16.2473 14.9894 16.2193 14.9894 16.182C14.9894 16.154 14.994 16.126 15.0034 16.098L14.9894 16.084C14.98 16.084 14.9707 16.0793 14.9614 16.07C14.9614 16.07 14.9614 16.0653 14.9614 16.056C14.98 15.9907 14.9847 15.944 14.9754 15.916C14.994 15.916 15.0034 15.9067 15.0034 15.888C15.0127 15.888 15.0174 15.888 15.0174 15.888C15.0174 15.8787 15.022 15.874 15.0314 15.874C15.0407 15.8833 15.0267 15.9067 14.9894 15.944L15.0034 15.972C15.0127 15.9813 15.0267 15.9813 15.0454 15.972C15.0454 15.9627 15.0454 15.944 15.0454 15.916C15.0547 15.888 15.0594 15.8647 15.0594 15.846C15.022 15.8647 15.0034 15.8787 15.0034 15.888H14.9754C15.0034 15.7947 15.0127 15.7153 15.0034 15.65C15.0314 15.6313 15.0454 15.5893 15.0454 15.524C15.0454 15.5333 15.0314 15.538 15.0034 15.538V15.58C14.994 15.5893 14.9847 15.5893 14.9754 15.58V15.538C14.9287 15.5753 14.896 15.6407 14.8774 15.734C14.868 15.8273 14.854 15.8927 14.8354 15.93C14.7887 15.9393 14.7607 15.9673 14.7514 16.014C14.742 16.014 14.7327 16.0093 14.7234 16C14.714 15.9907 14.7 15.9907 14.6814 16C14.6814 16.0187 14.6674 16.056 14.6394 16.112C14.6114 16.168 14.602 16.224 14.6114 16.28C14.602 16.28 14.588 16.3033 14.5694 16.35C14.5694 16.3313 14.56 16.322 14.5414 16.322C14.532 16.3313 14.518 16.3453 14.4994 16.364C14.49 16.3827 14.4807 16.3967 14.4714 16.406C14.49 16.4247 14.49 16.462 14.4714 16.518C14.4527 16.574 14.448 16.6113 14.4574 16.63C14.448 16.6393 14.4387 16.6533 14.4294 16.672C14.4294 16.6907 14.4247 16.7093 14.4154 16.728C14.406 16.7467 14.3967 16.7653 14.3874 16.784C14.378 16.8027 14.364 16.812 14.3454 16.812V16.826L14.3314 16.84C14.3407 16.8493 14.35 16.8493 14.3594 16.84H14.3734C14.3734 16.84 14.364 16.8447 14.3454 16.854L14.3174 16.868C14.3174 16.896 14.3034 16.9287 14.2754 16.966C14.2567 17.0127 14.2427 17.0453 14.2334 17.064C14.224 17.0827 14.2287 17.106 14.2474 17.134L14.1914 17.19C14.182 17.2273 14.1494 17.3067 14.0934 17.428C14.0374 17.5587 14.0047 17.6613 13.9954 17.736C13.986 17.7453 13.972 17.75 13.9534 17.75C13.972 17.8433 13.9534 17.8993 13.8974 17.918C13.8974 17.9273 13.902 17.932 13.9114 17.932C13.9207 17.9413 13.9254 17.9507 13.9254 17.96C13.8507 18.1373 13.776 18.4407 13.7014 18.87L13.7154 18.884C13.6967 18.9867 13.678 19.1453 13.6594 19.36C13.65 19.36 13.6454 19.3647 13.6454 19.374C13.6454 19.3833 13.6407 19.388 13.6314 19.388C13.6314 19.528 13.622 19.7287 13.6034 19.99L13.6174 20.018L13.6314 20.032C13.6127 20.088 13.608 20.2047 13.6174 20.382C13.636 20.5687 13.6454 20.6713 13.6454 20.69C13.664 20.7087 13.6734 20.746 13.6734 20.802C13.6827 20.858 13.692 20.8953 13.7014 20.914C13.7014 20.9233 13.7107 20.942 13.7294 20.97C13.748 20.998 13.7574 21.0213 13.7574 21.04C13.7667 21.0493 13.776 21.0633 13.7854 21.082C13.7947 21.1007 13.8087 21.1147 13.8274 21.124C13.9487 20.984 14.028 20.83 14.0654 20.662C14.1214 20.606 14.168 20.494 14.2054 20.326C14.2614 20.2513 14.2847 20.1813 14.2754 20.116C14.322 20.06 14.3407 19.9993 14.3314 19.934C14.3407 19.934 14.3454 19.9247 14.3454 19.906C14.3547 19.8967 14.3547 19.892 14.3454 19.892L14.3314 19.878C14.3407 19.8687 14.35 19.8453 14.3594 19.808C14.3687 19.7707 14.3827 19.7473 14.4014 19.738C14.392 19.71 14.4014 19.654 14.4294 19.57ZM14.7794 15.636C14.798 15.636 14.8074 15.6313 14.8074 15.622C14.7887 15.6033 14.7794 15.608 14.7794 15.636ZM14.7514 15.692C14.7887 15.692 14.8074 15.6873 14.8074 15.678C14.77 15.678 14.7514 15.6827 14.7514 15.692ZM14.6814 15.874C14.7374 15.79 14.756 15.7387 14.7374 15.72C14.7374 15.7293 14.7234 15.7527 14.6954 15.79C14.6674 15.8273 14.6627 15.8553 14.6814 15.874ZM14.6254 15.944C14.6534 15.944 14.6674 15.9347 14.6674 15.916C14.658 15.916 14.6534 15.916 14.6534 15.916C14.6534 15.9067 14.6487 15.902 14.6394 15.902C14.6394 15.9113 14.6347 15.9207 14.6254 15.93V15.944ZM14.7094 15.93C14.7187 15.93 14.7234 15.9393 14.7234 15.958C14.7327 15.9673 14.742 15.972 14.7514 15.972V15.916C14.7234 15.916 14.7094 15.9207 14.7094 15.93ZM14.9894 16.042C15.036 16.042 15.0407 16.0233 15.0034 15.986C15.0034 15.9953 14.9987 16.0047 14.9894 16.014C14.98 16.0233 14.98 16.0327 14.9894 16.042ZM14.5694 16.07V16.056C14.5694 16.0373 14.574 16.028 14.5834 16.028C14.5647 16.028 14.5507 16.0327 14.5414 16.042L14.5694 16.07ZM13.8554 16.35V16.322C13.846 16.322 13.8367 16.3267 13.8274 16.336C13.8367 16.336 13.8414 16.336 13.8414 16.336C13.8414 16.3453 13.846 16.35 13.8554 16.35ZM13.8274 16.56C13.8274 16.5507 13.832 16.532 13.8414 16.504C13.86 16.4853 13.874 16.4667 13.8834 16.448H13.8554C13.8647 16.4573 13.8554 16.476 13.8274 16.504C13.8087 16.532 13.8087 16.5507 13.8274 16.56ZM13.7294 16.728V16.742C13.7294 16.7513 13.734 16.756 13.7434 16.756V16.728C13.7714 16.728 13.776 16.7187 13.7574 16.7C13.7387 16.7 13.7294 16.7093 13.7294 16.728ZM13.5614 17.19C13.5614 17.1713 13.566 17.1527 13.5754 17.134C13.5847 17.1247 13.5894 17.1153 13.5894 17.106C13.5707 17.106 13.5567 17.1153 13.5474 17.134C13.538 17.162 13.5427 17.1807 13.5614 17.19ZM15.1014 17.12C15.1107 17.12 15.1154 17.1293 15.1154 17.148C15.1247 17.1667 15.134 17.1807 15.1434 17.19C15.1527 17.1807 15.1527 17.1667 15.1434 17.148C15.134 17.1293 15.134 17.1153 15.1434 17.106C15.1247 17.106 15.1107 17.1107 15.1014 17.12ZM13.2674 17.582C13.2674 17.5913 13.2767 17.596 13.2954 17.596C13.314 17.596 13.3234 17.5913 13.3234 17.582H13.2674ZM13.1694 17.89C13.2067 17.89 13.2207 17.8807 13.2114 17.862C13.1834 17.862 13.1694 17.8713 13.1694 17.89ZM12.9454 18.73V18.702C12.9454 18.7113 12.9454 18.7207 12.9454 18.73ZM12.7074 19.906C12.698 19.906 12.6887 19.9107 12.6794 19.92C12.698 19.92 12.7074 19.9153 12.7074 19.906ZM12.6654 20.354L12.6794 20.368C12.6794 20.3493 12.6747 20.34 12.6654 20.34V20.354ZM14.7374 11.324V11.31V11.324ZM18.7694 11.898C18.7787 11.8793 18.802 11.856 18.8394 11.828C18.886 11.8 18.914 11.7767 18.9234 11.758C18.9514 11.786 18.9654 11.7813 18.9654 11.744C18.984 11.7533 18.9794 11.772 18.9514 11.8C18.9327 11.8 18.9047 11.814 18.8674 11.842C18.83 11.87 18.7974 11.8887 18.7694 11.898ZM18.1534 12.248C18.1627 12.2573 18.1627 12.262 18.1534 12.262V12.248ZM14.7094 12.584V12.598L14.6954 12.612L14.7094 12.584ZM16.6974 12.836V12.822L16.6834 12.808C16.702 12.808 16.7067 12.8173 16.6974 12.836ZM16.3054 13.172H16.3194H16.3054ZM14.9054 14.306C14.9147 14.2967 14.9194 14.2873 14.9194 14.278C14.9194 14.2873 14.9147 14.292 14.9054 14.292C14.9054 14.292 14.9054 14.2967 14.9054 14.306ZM14.7794 14.474H14.8074H14.7794ZM14.6534 14.67H14.6814L14.6674 14.684L14.6534 14.67ZM14.7374 16.042C14.7467 16.0513 14.7514 16.0513 14.7514 16.042C14.7607 16.0607 14.756 16.0747 14.7374 16.084V16.042ZM13.8834 16.21C13.8834 16.2007 13.888 16.196 13.8974 16.196C13.888 16.196 13.8834 16.2007 13.8834 16.21ZM13.8414 16.252C13.832 16.2613 13.8227 16.2613 13.8134 16.252C13.8134 16.252 13.8134 16.2427 13.8134 16.224H13.8554L13.8414 16.252ZM14.5134 16.434H14.5414V16.448H14.5134V16.434ZM13.3094 17.47V17.484V17.47ZM13.1974 17.778L13.2114 17.792L13.1834 17.806C13.1927 17.806 13.1974 17.7967 13.1974 17.778ZM14.6394 18.716L14.6114 18.744C14.63 18.744 14.6394 18.7347 14.6394 18.716ZM12.9874 21.852H13.0154V21.88H12.9874V21.852ZM13.1274 21.922H13.1414H13.1274Z" fill="#888888"/>
</svg>
