<svg width="24" height="24" viewBox="0 0 24 24" fill="none" xmlns="http://www.w3.org/2000/svg">
<path d="M6.06461 17H3.39061L6.54061 8.222H9.24261L12.2946 17H9.63461L9.27061 15.782H6.41461L6.06461 17ZM7.82861 10.826C7.73528 11.19 7.63261 11.568 7.52061 11.96C7.41794 12.3427 7.31994 12.688 7.22661 12.996L7.00261 13.766H8.68261L8.45861 12.996C8.03861 11.5493 7.82861 10.826 7.82861 10.826ZM15.6335 19.268C15.1295 19.268 14.6442 19.2353 14.1775 19.17C13.7108 19.1047 13.3328 19.0207 13.0435 18.918V16.86C13.2768 16.916 13.6222 16.9627 14.0795 17C14.5462 17.0467 15.0035 17.07 15.4515 17.07C15.8622 17.07 16.1422 17.0187 16.2915 16.916C16.4408 16.804 16.5248 16.608 16.5435 16.328V15.95C16.2168 16.0993 15.8902 16.216 15.5635 16.3C15.2462 16.3747 14.9382 16.412 14.6395 16.412C13.7528 16.412 13.1275 16.174 12.7635 15.698C12.3995 15.2127 12.2175 14.3913 12.2175 13.234C12.2175 12.058 12.4882 11.218 13.0295 10.714C13.5802 10.2007 14.4808 9.944 15.7315 9.944C16.2448 9.944 16.8468 9.972 17.5375 10.028C18.2375 10.084 18.7462 10.1447 19.0635 10.21V15.516C19.0635 16.9067 18.8115 17.8773 18.3075 18.428C17.8035 18.988 16.9122 19.268 15.6335 19.268ZM15.6755 12.184C15.2462 12.184 14.9755 12.24 14.8635 12.352C14.7515 12.464 14.6955 12.7533 14.6955 13.22C14.6955 13.6493 14.7422 13.92 14.8355 14.032C14.9382 14.144 15.1622 14.2 15.5075 14.2C15.6568 14.2 15.8202 14.186 15.9975 14.158C16.1748 14.1207 16.3568 14.0693 16.5435 14.004V12.24C16.3662 12.2213 16.2075 12.2073 16.0675 12.198C15.9368 12.1887 15.8062 12.184 15.6755 12.184Z" fill="#333333"/>
</svg>
