<svg width="24" height="24" viewBox="0 0 24 24" fill="none" xmlns="http://www.w3.org/2000/svg">
<path d="M5.87631 17H4.11231L7.47231 8.222H9.20831L12.5123 17H10.7483L10.1183 15.208H6.49231L5.87631 17ZM8.29831 9.832C8.19565 10.1867 8.07898 10.56 7.94831 10.952C7.82698 11.344 7.71031 11.708 7.59831 12.044L6.98231 13.822H9.62831L9.01231 12.044C8.90965 11.7453 8.79298 11.4 8.66231 11.008C8.53165 10.6067 8.41031 10.2147 8.29831 9.832ZM16.1071 19.268C15.6218 19.268 15.1598 19.2353 14.7211 19.17C14.2918 19.114 13.9465 19.0347 13.6851 18.932V17.532C13.8998 17.6067 14.2218 17.6673 14.6511 17.714C15.0898 17.77 15.5238 17.798 15.9531 17.798C16.5505 17.798 16.9611 17.6907 17.1851 17.476C17.4185 17.2613 17.5398 16.8787 17.5491 16.328V15.936C17.2038 16.1227 16.8445 16.2673 16.4711 16.37C16.0978 16.4727 15.7291 16.524 15.3651 16.524C14.4598 16.524 13.8158 16.272 13.4331 15.768C13.0505 15.264 12.8591 14.4193 12.8591 13.234C12.8591 12.0487 13.1158 11.204 13.6291 10.7C14.1518 10.196 15.0291 9.944 16.2611 9.944C16.7371 9.944 17.2598 9.972 17.8291 10.028C18.4078 10.084 18.8558 10.1447 19.1731 10.21V15.838C19.1731 17.1073 18.9445 17.994 18.4871 18.498C18.0298 19.0113 17.2365 19.268 16.1071 19.268ZM16.2611 11.4C15.5051 11.4 15.0198 11.5167 14.8051 11.75C14.5905 11.974 14.4831 12.4687 14.4831 13.234C14.4831 13.9433 14.5718 14.4193 14.7491 14.662C14.9358 14.8953 15.3231 15.012 15.9111 15.012C16.1631 15.012 16.4291 14.984 16.7091 14.928C16.9985 14.8627 17.2785 14.7787 17.5491 14.676V11.526C17.3531 11.4887 17.1431 11.4607 16.9191 11.442C16.7045 11.414 16.4851 11.4 16.2611 11.4Z" fill="#888888"/>
</svg>
