<svg width="24" height="24" viewBox="0 0 24 24" fill="none" xmlns="http://www.w3.org/2000/svg">
<path d="M5.48005 13.689V13.472H9.99505V13.689H5.48005ZM8.10505 6.297L11.738 16.776H12.809V17H8.74905V16.776H10.205L7.43305 8.208L4.44405 16.776H5.97705V17H2.89705V16.776H4.19205L7.87405 6.297H8.10505ZM16.7801 20.64C16.3601 20.64 15.9635 20.6027 15.5901 20.528C15.2215 20.458 14.8948 20.346 14.6101 20.192C14.3255 20.038 14.1015 19.842 13.9381 19.604C13.7748 19.366 13.6931 19.0813 13.6931 18.75C13.6931 18.4327 13.7631 18.1643 13.9031 17.945C14.0478 17.7303 14.2275 17.5577 14.4421 17.427C14.6568 17.301 14.8738 17.21 15.0931 17.154C15.3171 17.098 15.5085 17.07 15.6671 17.07H15.8281C15.5155 17.238 15.2961 17.4503 15.1701 17.707C15.0488 17.9637 14.9881 18.2623 14.9881 18.603C14.9881 18.897 15.0605 19.1817 15.2051 19.457C15.3545 19.7323 15.5761 19.9563 15.8701 20.129C16.1641 20.3063 16.5305 20.395 16.9691 20.395C17.3238 20.395 17.6551 20.3483 17.9631 20.255C18.2711 20.1663 18.5395 20.038 18.7681 19.87C18.9968 19.702 19.1765 19.4967 19.3071 19.254C19.4378 19.0113 19.5031 18.7383 19.5031 18.435C19.5031 18.155 19.4261 17.917 19.2721 17.721C19.1228 17.5297 18.9198 17.3827 18.6631 17.28C18.4111 17.1773 18.1335 17.126 17.8301 17.126C17.7321 17.126 17.5735 17.126 17.3541 17.126C17.1348 17.126 16.9155 17.126 16.6961 17.126C16.4815 17.126 16.3228 17.126 16.2201 17.126C15.5901 17.126 15.0861 17.0397 14.7081 16.867C14.3301 16.6943 14.1411 16.4003 14.1411 15.985C14.1411 15.7377 14.2088 15.5207 14.3441 15.334C14.4841 15.1473 14.6731 14.9933 14.9111 14.872C15.1538 14.746 15.4245 14.6527 15.7231 14.592C16.0265 14.5267 16.3438 14.494 16.6751 14.494L16.6681 14.655C16.5188 14.655 16.3531 14.6737 16.1711 14.711C15.9938 14.7483 15.8235 14.8043 15.6601 14.879C15.4968 14.949 15.3638 15.0377 15.2611 15.145C15.1585 15.2523 15.1071 15.376 15.1071 15.516C15.1071 15.7587 15.2355 15.9057 15.4921 15.957C15.7488 16.0037 16.0685 16.027 16.4511 16.027C16.6145 16.027 16.7591 16.027 16.8851 16.027C17.0158 16.0223 17.1418 16.02 17.2631 16.02C17.3845 16.0153 17.5128 16.013 17.6481 16.013C17.9095 16.013 18.1731 16.0363 18.4391 16.083C18.7051 16.1297 18.9501 16.2253 19.1741 16.37C19.4028 16.5147 19.5848 16.727 19.7201 17.007C19.8601 17.2917 19.9301 17.672 19.9301 18.148C19.9301 18.5867 19.8415 18.9623 19.6641 19.275C19.4915 19.5877 19.2558 19.8443 18.9571 20.045C18.6585 20.2457 18.3201 20.395 17.9421 20.493C17.5641 20.591 17.1768 20.64 16.7801 20.64ZM16.5491 14.704C16.2645 14.704 15.9751 14.6643 15.6811 14.585C15.3918 14.5057 15.1211 14.382 14.8691 14.214C14.6218 14.0413 14.4211 13.8197 14.2671 13.549C14.1178 13.2737 14.0431 12.9447 14.0431 12.562C14.0431 12.1747 14.1178 11.8457 14.2671 11.575C14.4211 11.3043 14.6218 11.085 14.8691 10.917C15.1211 10.749 15.3918 10.6253 15.6811 10.546C15.9751 10.4667 16.2645 10.427 16.5491 10.427C16.8338 10.427 17.1185 10.4667 17.4031 10.546C17.6925 10.6253 17.9561 10.749 18.1941 10.917C18.4321 11.085 18.6235 11.3043 18.7681 11.575C18.9128 11.8457 18.9851 12.1747 18.9851 12.562C18.9851 12.9447 18.9128 13.2737 18.7681 13.549C18.6235 13.8197 18.4321 14.0413 18.1941 14.214C17.9561 14.382 17.6925 14.5057 17.4031 14.585C17.1185 14.6643 16.8338 14.704 16.5491 14.704ZM16.5491 14.48C16.8245 14.48 17.0508 14.3913 17.2281 14.214C17.4055 14.0367 17.5361 13.8033 17.6201 13.514C17.7088 13.2247 17.7531 12.9073 17.7531 12.562C17.7531 12.2167 17.7088 11.8993 17.6201 11.61C17.5361 11.3207 17.4055 11.0897 17.2281 10.917C17.0508 10.7397 16.8245 10.651 16.5491 10.651C16.2738 10.651 16.0475 10.7397 15.8701 10.917C15.6928 11.0897 15.5598 11.3207 15.4711 11.61C15.3871 11.8993 15.3451 12.2167 15.3451 12.562C15.3451 12.9073 15.3685 13.2247 15.4151 13.514C15.4618 13.8033 15.5691 14.0367 15.7371 14.214C15.9098 14.3913 16.1805 14.48 16.5491 14.48ZM20.3431 12.317C20.1658 12.317 20.0025 12.2563 19.8531 12.135C19.7085 12.0137 19.6361 11.8387 19.6361 11.61C19.6361 11.3767 19.7108 11.211 19.8601 11.113C20.0141 11.0103 20.1751 10.959 20.3431 10.959C20.5158 10.959 20.6791 11.0103 20.8331 11.113C20.9918 11.211 21.0711 11.3557 21.0711 11.547H20.8541C20.8541 11.3463 20.7748 11.1573 20.6161 10.98C20.4621 10.798 20.2381 10.707 19.9441 10.707C19.7668 10.707 19.5685 10.749 19.3491 10.833C19.1345 10.917 18.9315 11.0687 18.7401 11.288C18.5535 11.5027 18.4135 11.8107 18.3201 12.212L18.1591 12.1C18.2525 11.6847 18.4041 11.3603 18.6141 11.127C18.8241 10.8937 19.0481 10.7303 19.2861 10.637C19.5288 10.539 19.7435 10.49 19.9301 10.49C20.1588 10.49 20.3595 10.5413 20.5321 10.644C20.7048 10.7467 20.8401 10.8797 20.9381 11.043C21.0361 11.2017 21.0851 11.3697 21.0851 11.547C21.0851 11.8457 21.0035 12.0487 20.8401 12.156C20.6815 12.2633 20.5158 12.317 20.3431 12.317Z" fill="#888888"/>
</svg>
