<svg width="24" height="24" viewBox="0 0 24 24" fill="none" xmlns="http://www.w3.org/2000/svg">
<path d="M11.3255 15.6C11.4095 15.9267 11.4935 16.1647 11.5775 16.314C11.6708 16.4633 11.7875 16.5613 11.9275 16.608C12.0768 16.6453 12.2728 16.6687 12.5155 16.678V17H9.81349V16.678C10.0375 16.6687 10.1962 16.6453 10.2895 16.608C10.3828 16.5613 10.4295 16.4633 10.4295 16.314C10.4295 16.1647 10.3875 15.9267 10.3035 15.6L9.67349 13.038C9.60816 13.0847 9.53349 13.1173 9.44949 13.136C9.36549 13.1453 9.27683 13.15 9.18349 13.15H7.33549C7.14883 13.15 6.99949 13.1687 6.88749 13.206C6.78483 13.2433 6.69616 13.3507 6.62149 13.528L5.69749 15.6C5.55749 15.9173 5.48749 16.1507 5.48749 16.3C5.48749 16.4493 5.56683 16.5473 5.72549 16.594C5.89349 16.6407 6.13616 16.6687 6.45349 16.678V17H4.10149V16.678C4.21349 16.6687 4.32083 16.6453 4.42349 16.608C4.51683 16.5613 4.61483 16.4633 4.71749 16.314C4.82949 16.1647 4.96016 15.9267 5.10949 15.6L8.16149 8.796C8.27349 8.55333 8.38083 8.31533 8.48349 8.082C8.58616 7.84867 8.68416 7.61067 8.77749 7.368H9.37949C9.42616 7.61067 9.47283 7.84867 9.51949 8.082C9.57549 8.31533 9.63149 8.55333 9.68749 8.796L11.3255 15.6ZM9.25349 12.73C9.37483 12.73 9.45883 12.7113 9.50549 12.674C9.55216 12.6273 9.55683 12.5293 9.51949 12.38L8.69349 8.936H8.66549L6.95749 12.772C7.01349 12.7533 7.07416 12.744 7.13949 12.744C7.20483 12.7347 7.27016 12.73 7.33549 12.73H9.25349ZM14.7329 20.29C14.3315 20.29 13.9489 20.234 13.5849 20.122C13.2302 20.0193 12.9409 19.87 12.7169 19.674C12.4929 19.4873 12.3809 19.2633 12.3809 19.002C12.3809 18.722 12.5069 18.47 12.7589 18.246C13.0109 18.0313 13.2815 17.8493 13.5709 17.7L13.8509 17.84C13.6735 18.0173 13.5475 18.1853 13.4729 18.344C13.3982 18.5027 13.3609 18.6333 13.3609 18.736C13.3609 18.9133 13.4449 19.072 13.6129 19.212C13.7809 19.352 14.0049 19.464 14.2849 19.548C14.5649 19.632 14.8635 19.674 15.1809 19.674C15.4889 19.674 15.7875 19.6367 16.0769 19.562C16.3662 19.4967 16.6042 19.394 16.7909 19.254C16.9775 19.1233 17.0709 18.9693 17.0709 18.792C17.0709 18.6707 16.9775 18.5633 16.7909 18.47L13.8649 17.084C13.7342 17.0187 13.6969 16.9067 13.7529 16.748L14.1589 15.642C13.8882 15.5673 13.6455 15.4227 13.4309 15.208C13.2255 14.984 13.1229 14.6527 13.1229 14.214C13.1229 13.8127 13.2162 13.402 13.4029 12.982C13.5895 12.562 13.8369 12.1747 14.1449 11.82C14.4622 11.4653 14.8122 11.1807 15.1949 10.966C15.5869 10.742 15.9882 10.63 16.3989 10.63C16.6229 10.63 16.8469 10.672 17.0709 10.756C17.3042 10.84 17.4909 10.9847 17.6309 11.19C17.9482 11.0967 18.1629 10.63 18.2749 9.79H18.5549C18.7509 10.07 18.8489 10.3547 18.8489 10.644C18.8489 10.924 18.7509 11.1293 18.5549 11.26C18.3589 11.3907 18.1069 11.4653 17.7989 11.484C17.8642 11.6707 17.8969 11.8807 17.8969 12.114C17.8969 12.4967 17.8129 12.8887 17.6449 13.29C17.4862 13.682 17.2622 14.0553 16.9729 14.41C16.6929 14.7553 16.3755 15.0447 16.0209 15.278C15.6662 15.502 15.2929 15.6373 14.9009 15.684C14.7142 15.7027 14.5882 15.7587 14.5229 15.852C14.4669 15.9453 14.4389 16.034 14.4389 16.118C14.4389 16.2113 14.4715 16.286 14.5369 16.342C14.6022 16.3887 14.6955 16.44 14.8169 16.496L17.5609 17.784C17.6635 17.8307 17.7569 17.896 17.8409 17.98C17.9342 18.064 17.9809 18.176 17.9809 18.316C17.9809 18.484 17.9015 18.68 17.7429 18.904C17.5935 19.128 17.3742 19.3427 17.0849 19.548C16.7955 19.7627 16.4502 19.94 16.0489 20.08C15.6569 20.22 15.2182 20.29 14.7329 20.29ZM14.9849 15.166C15.2835 15.166 15.5542 15.082 15.7969 14.914C16.0395 14.7367 16.2449 14.508 16.4129 14.228C16.5902 13.948 16.7209 13.6493 16.8049 13.332C16.8982 13.0147 16.9449 12.716 16.9449 12.436C16.9449 12.0813 16.8702 11.7827 16.7209 11.54C16.5809 11.2973 16.3475 11.176 16.0209 11.176C15.7315 11.176 15.4655 11.26 15.2229 11.428C14.9895 11.596 14.7842 11.8153 14.6069 12.086C14.4389 12.3567 14.3082 12.6507 14.2149 12.968C14.1215 13.2853 14.0749 13.5933 14.0749 13.892C14.0749 14.256 14.1449 14.5593 14.2849 14.802C14.4342 15.0447 14.6675 15.166 14.9849 15.166Z" fill="#888888"/>
</svg>
