<svg width="24" height="24" viewBox="0 0 24 24" fill="none" xmlns="http://www.w3.org/2000/svg">
<path d="M9.17895 11.338C9.69228 11.926 10.0656 12.5653 10.2989 13.256C11.0083 11.8467 11.6383 10.414 12.1889 8.958C12.2169 8.902 12.2496 8.81333 12.2869 8.692C12.3243 8.57067 12.3616 8.43067 12.3989 8.272C12.4363 8.104 12.4409 7.964 12.4129 7.852C12.3849 7.73067 12.3196 7.67 12.2169 7.67C11.8623 7.67 11.3956 8.02933 10.8169 8.748C10.2476 9.45733 9.70161 10.3207 9.17895 11.338ZM7.03695 14.992C6.35561 15.8227 5.65095 16.238 4.92295 16.238C4.47495 16.238 4.12495 16.0933 3.87295 15.804C3.62095 15.5147 3.49495 15.1647 3.49495 14.754C3.49495 14.0913 3.77495 13.55 4.33495 13.13C4.07361 12.7567 3.94295 12.3507 3.94295 11.912C3.94295 11.2867 4.18561 10.7687 4.67095 10.358C5.16561 9.938 5.73495 9.728 6.37895 9.728C7.17228 9.728 7.97028 10.092 8.77295 10.82C9.03428 10.372 9.23495 10.036 9.37495 9.812C9.51495 9.57867 9.70161 9.28467 9.93495 8.93C10.1683 8.57533 10.3689 8.30467 10.5369 8.118C10.7049 7.93133 10.8963 7.74 11.1109 7.544C11.3349 7.348 11.5543 7.208 11.7689 7.124C11.9836 7.04 12.2029 6.998 12.4269 6.998C12.7349 6.998 12.9403 7.11933 13.0429 7.362C13.1456 7.59533 13.1689 7.87067 13.1129 8.188C12.9729 8.82267 12.7116 9.54133 12.3289 10.344C11.9556 11.1467 11.5963 11.9493 11.2509 12.752C10.9149 13.5453 10.6956 14.2967 10.5929 15.006C10.5929 15.0713 10.5976 15.174 10.6069 15.314C10.6163 15.4447 10.6209 15.5473 10.6209 15.622C10.6209 15.7993 10.5603 15.9533 10.4389 16.084C10.3269 16.224 10.1636 16.294 9.94895 16.294C9.76228 16.294 9.61295 16.2333 9.50095 16.112C9.38895 16 9.33295 15.8507 9.33295 15.664C9.33295 15.6453 9.16495 15.5893 8.82895 15.496C8.13828 15.3373 7.54095 15.1693 7.03695 14.992ZM4.72695 13.606C4.34428 13.8673 4.15295 14.2407 4.15295 14.726C4.15295 14.9687 4.22295 15.1693 4.36295 15.328C4.51228 15.4867 4.72695 15.566 5.00695 15.566C5.44561 15.566 5.92161 15.2813 6.43495 14.712C5.72561 14.404 5.15628 14.0353 4.72695 13.606ZM7.41495 14.488C7.90028 14.6933 8.65628 14.9033 9.68295 15.118C9.86028 14.8473 9.94895 14.488 9.94895 14.04C9.94895 13.8067 9.89295 13.5593 9.78095 13.298C9.66895 13.0273 9.55228 12.8033 9.43095 12.626C9.30961 12.4393 9.12761 12.192 8.88495 11.884C8.75428 12.0987 8.53028 12.514 8.21295 13.13C7.89561 13.7367 7.62961 14.1893 7.41495 14.488ZM6.79895 14.208C6.95761 14.0027 7.11628 13.7693 7.27495 13.508C7.44295 13.2467 7.57828 13.0273 7.68095 12.85C7.78361 12.6633 7.92361 12.4067 8.10095 12.08C8.27828 11.744 8.40428 11.506 8.47895 11.366C7.73228 10.6847 7.05561 10.344 6.44895 10.344C5.98228 10.344 5.56228 10.484 5.18895 10.764C4.82495 11.0347 4.64295 11.4127 4.64295 11.898C4.64295 12.794 5.36161 13.564 6.79895 14.208ZM16.8364 15.608C16.4351 15.944 15.9311 16.112 15.3244 16.112C14.5124 16.112 13.9011 15.8927 13.4904 15.454C13.0891 15.006 12.8884 14.432 12.8884 13.732C12.8884 12.5093 13.3037 11.464 14.1344 10.596C14.9744 9.71867 15.8891 9.28 16.8784 9.28C17.4944 9.28 17.9657 9.476 18.2924 9.868C18.7124 9.24267 19.1697 8.93 19.6644 8.93C20.0844 8.93 20.4064 9.06533 20.6304 9.336C20.8637 9.59733 20.9804 9.91 20.9804 10.274C20.9804 10.5633 20.9104 10.8293 20.7704 11.072C20.6397 11.3053 20.4391 11.422 20.1684 11.422C19.9911 11.422 19.8417 11.3707 19.7204 11.268C19.5991 11.156 19.5384 11.0207 19.5384 10.862C19.5384 10.7033 19.5991 10.568 19.7204 10.456C19.8417 10.344 19.9911 10.288 20.1684 10.288C20.2711 10.288 20.3551 10.3067 20.4204 10.344C20.4297 10.3067 20.4344 10.2553 20.4344 10.19C20.4344 10.0313 20.3784 9.896 20.2664 9.784C20.1544 9.672 20.0097 9.616 19.8324 9.616C19.4777 9.616 19.1697 9.82133 18.9084 10.232C18.6471 10.6333 18.4371 11.156 18.2784 11.8C18.1291 12.444 17.9844 13.158 17.8444 13.942C17.7044 14.726 17.5504 15.51 17.3824 16.294C17.2237 17.078 17.0324 17.792 16.8084 18.436C16.5937 19.08 16.2951 19.6027 15.9124 20.004C15.5297 20.4147 15.0817 20.62 14.5684 20.62C14.0551 20.62 13.5931 20.4287 13.1824 20.046C12.7717 19.6727 12.5664 19.2293 12.5664 18.716C12.5664 18.3707 12.7064 18.0533 12.9864 17.764C13.2664 17.484 13.6397 17.2553 14.1064 17.078C14.5731 16.91 15.0071 16.7747 15.4084 16.672C15.8191 16.5787 16.2437 16.4993 16.6824 16.434C16.7011 16.3687 16.7244 16.2473 16.7524 16.07C16.7804 15.8927 16.8084 15.7387 16.8364 15.608ZM16.9904 14.81C17.0371 14.5767 17.1117 14.18 17.2144 13.62C17.3171 13.06 17.4011 12.6307 17.4664 12.332C17.5317 12.0333 17.6157 11.6833 17.7184 11.282C17.8304 10.8807 17.9471 10.5493 18.0684 10.288C17.7044 10.0547 17.3311 9.938 16.9484 9.938C16.0617 9.938 15.2824 10.33 14.6104 11.114C13.9384 11.8887 13.6024 12.7613 13.6024 13.732C13.6024 14.2453 13.7564 14.6653 14.0644 14.992C14.3817 15.3093 14.8577 15.468 15.4924 15.468C16.0617 15.468 16.5611 15.2487 16.9904 14.81ZM14.4844 19.962C14.9697 19.962 15.3711 19.7147 15.6884 19.22C16.0057 18.7253 16.2764 18.0347 16.5004 17.148C15.6137 17.1667 14.8531 17.3253 14.2184 17.624C13.5931 17.932 13.2804 18.3193 13.2804 18.786C13.2804 19.1033 13.3924 19.3787 13.6164 19.612C13.8497 19.8453 14.1391 19.962 14.4844 19.962ZM15.6324 12.206C15.8004 12.0007 16.0151 11.898 16.2764 11.898C16.4911 11.898 16.6731 11.9633 16.8224 12.094C16.9717 12.2247 17.0464 12.4067 17.0464 12.64C17.0464 13.06 16.8831 13.4147 16.5564 13.704C16.2391 13.984 15.9171 14.124 15.5904 14.124C15.3197 14.124 15.0537 13.9653 14.7924 13.648C14.5311 13.3213 14.4004 12.9527 14.4004 12.542C14.4004 12.3367 14.4564 12.1687 14.5684 12.038C14.6804 11.9073 14.8204 11.842 14.9884 11.842C15.2777 11.842 15.4924 11.9633 15.6324 12.206ZM15.6324 12.626C15.5951 12.5607 15.5344 12.5 15.4504 12.444C15.3757 12.3787 15.3104 12.346 15.2544 12.346C15.0211 12.346 14.9044 12.472 14.9044 12.724C14.9044 12.9667 14.9884 13.1813 15.1564 13.368C15.3244 13.5547 15.4831 13.648 15.6324 13.648C15.8097 13.648 15.9917 13.5593 16.1784 13.382C16.3651 13.2047 16.4584 12.9947 16.4584 12.752C16.4584 12.5 16.3231 12.374 16.0524 12.374C15.9217 12.374 15.7817 12.458 15.6324 12.626Z" fill="#888888"/>
</svg>
