<svg width="24" height="24" viewBox="0 0 24 24" fill="none" xmlns="http://www.w3.org/2000/svg">
<path d="M5.12207 10.5859C5.12663 10.5814 5.14258 10.57 5.16992 10.5518L5.21094 10.5312L5.25195 10.5039C5.32487 10.4583 5.37272 10.4173 5.39551 10.3809C5.40462 10.3626 5.41829 10.3353 5.43652 10.2988L5.47754 10.1963C5.514 10.1006 5.54134 10.0368 5.55957 10.0049C5.56868 9.98665 5.5778 9.96387 5.58691 9.93652L5.60742 9.85449C5.62565 9.78158 5.64388 9.73372 5.66211 9.71094C5.68034 9.68815 5.70312 9.65625 5.73047 9.61523L5.75781 9.57422L5.79199 9.52637C5.86491 9.43066 5.87402 9.46029 5.81934 9.61523C5.80566 9.66536 5.7806 9.72917 5.74414 9.80664L5.73047 9.85449L5.70996 9.89551C5.69629 9.92741 5.68717 9.94792 5.68262 9.95703C5.6735 9.97982 5.66211 10.0117 5.64844 10.0527L5.62109 10.1758C5.58919 10.276 5.56641 10.3376 5.55273 10.3604C5.53451 10.3968 5.49577 10.4378 5.43652 10.4834C5.38184 10.5335 5.33854 10.5609 5.30664 10.5654L5.28613 10.5791L5.25195 10.5859L5.17676 10.5996C5.12207 10.6087 5.10384 10.6042 5.12207 10.5859ZM6.5918 7.74219C6.60547 7.71484 6.6123 7.6875 6.6123 7.66016L6.60547 7.62598V7.59863C6.61003 7.5485 6.62826 7.53939 6.66016 7.57129C6.6875 7.59863 6.70117 7.62826 6.70117 7.66016C6.70117 7.68294 6.69206 7.71029 6.67383 7.74219L6.64648 7.77637L6.62598 7.80371C6.60775 7.81738 6.59408 7.81966 6.58496 7.81055C6.57585 7.80143 6.57812 7.77865 6.5918 7.74219ZM4.69824 11.584C4.74837 11.6296 4.8099 11.6637 4.88281 11.6865C4.96484 11.7139 5.0332 11.7161 5.08789 11.6934C5.12891 11.6751 5.18815 11.6432 5.26562 11.5977L5.36133 11.5361L5.4502 11.4883C5.50944 11.4609 5.56185 11.445 5.60742 11.4404C5.64844 11.4359 5.6849 11.4404 5.7168 11.4541C5.73503 11.4587 5.71908 11.4792 5.66895 11.5156L5.6416 11.5361L5.60742 11.5566C5.58464 11.5749 5.57096 11.5908 5.56641 11.6045C5.55729 11.6318 5.5778 11.6592 5.62793 11.6865C5.68262 11.7139 5.73503 11.723 5.78516 11.7139C5.8444 11.7002 5.90365 11.6751 5.96289 11.6387C6.03125 11.5977 6.08138 11.5521 6.11328 11.502C6.14974 11.4382 6.16341 11.3151 6.1543 11.1328C6.14974 11.0007 6.09277 10.889 5.9834 10.7979C5.83757 10.6702 5.76921 10.5563 5.77832 10.4561C5.79199 10.3604 5.8125 10.2396 5.83984 10.0938C5.87174 9.9388 5.89909 9.83626 5.92188 9.78613C5.93555 9.76335 5.94238 9.73828 5.94238 9.71094V9.68359V9.65625C5.93783 9.61523 5.9515 9.58561 5.9834 9.56738C6.02441 9.5446 6.08138 9.48535 6.1543 9.38965C6.2181 9.30306 6.26823 9.22559 6.30469 9.15723C6.32292 9.11621 6.3776 9.02051 6.46875 8.87012L6.52344 8.77441L6.57812 8.68555C6.61914 8.61263 6.65332 8.55111 6.68066 8.50098C6.83105 8.22754 6.94727 8.07259 7.0293 8.03613C7.05664 8.02702 7.08626 8.02018 7.11816 8.01562H7.19336C7.26628 8.02018 7.32096 8.01335 7.35742 7.99512C7.49414 7.92676 7.58073 7.83561 7.61719 7.72168C7.63997 7.65332 7.63086 7.57812 7.58984 7.49609C7.55794 7.42318 7.51009 7.36621 7.44629 7.3252C7.3597 7.27051 7.29818 7.14518 7.26172 6.94922C7.24805 6.8763 7.18652 6.82617 7.07715 6.79883C6.98145 6.77148 6.8903 6.76921 6.80371 6.79199C6.73079 6.81022 6.65332 6.87858 6.57129 6.99707C6.48926 7.12467 6.45736 7.23177 6.47559 7.31836C6.48926 7.40039 6.48926 7.49154 6.47559 7.5918C6.46191 7.67383 6.44596 7.73763 6.42773 7.7832C6.40951 7.82422 6.36393 7.91764 6.29102 8.06348C6.20898 8.22298 6.14062 8.34831 6.08594 8.43945L6.01074 8.58984L5.93555 8.7334C5.8763 8.83822 5.81478 8.91797 5.75098 8.97266C5.69173 9.0319 5.62793 9.13444 5.55957 9.28027L5.52539 9.36914L5.49121 9.45117C5.46387 9.51497 5.44564 9.55827 5.43652 9.58105C5.37728 9.69954 5.31348 9.85221 5.24512 10.0391C5.19499 10.1758 5.13802 10.3011 5.07422 10.415C5.01953 10.5153 4.97624 10.5837 4.94434 10.6201C4.93066 10.6338 4.91016 10.6497 4.88281 10.668L4.84863 10.6953L4.80762 10.7227C4.7347 10.7682 4.67773 10.8161 4.63672 10.8662C4.59115 10.93 4.56152 11.0029 4.54785 11.085C4.53874 11.1488 4.54102 11.2217 4.55469 11.3037C4.57747 11.4268 4.62533 11.5202 4.69824 11.584ZM7.93164 7.06543L7.95898 7.09961C7.97721 7.1224 7.97949 7.14062 7.96582 7.1543C7.94759 7.1862 7.91341 7.18848 7.86328 7.16113C7.84049 7.14746 7.82454 7.13379 7.81543 7.12012L7.80859 7.09961L7.80176 7.0791C7.77441 7.02441 7.77897 6.99707 7.81543 6.99707C7.85189 6.99707 7.88151 7.01074 7.9043 7.03809L7.93164 7.06543ZM8.67676 7.84473C8.69043 7.75358 8.70638 7.72852 8.72461 7.76953C8.73372 7.7832 8.74284 7.80599 8.75195 7.83789C8.76107 7.86523 8.7679 7.89714 8.77246 7.93359C8.78158 7.98828 8.79753 8.05664 8.82031 8.13867L8.84766 8.26172L8.88184 8.3916C8.90007 8.47819 8.89779 8.56706 8.875 8.6582C8.86589 8.69466 8.85449 8.72201 8.84082 8.74023C8.83171 8.75846 8.82487 8.76302 8.82031 8.75391C8.81576 8.74023 8.81348 8.69466 8.81348 8.61719V8.51465C8.80892 8.47819 8.80436 8.44629 8.7998 8.41895C8.79069 8.39616 8.78158 8.37109 8.77246 8.34375L8.74512 8.28223C8.72689 8.2321 8.71322 8.17741 8.7041 8.11816C8.68132 7.97689 8.6722 7.88574 8.67676 7.84473ZM9.6748 11.2422L9.70215 11.2627C9.72038 11.2809 9.72493 11.2923 9.71582 11.2969C9.69759 11.3105 9.66797 11.3037 9.62695 11.2764C9.59049 11.2536 9.55176 11.2194 9.51074 11.1738C9.49707 11.1602 9.49479 11.151 9.50391 11.1465C9.51302 11.1465 9.52897 11.1488 9.55176 11.1533C9.56999 11.1579 9.58822 11.1647 9.60645 11.1738C9.62923 11.1829 9.6429 11.1943 9.64746 11.208L9.6748 11.2422ZM8.01367 7.33203C8.09115 7.35026 8.15495 7.40951 8.20508 7.50977C8.22331 7.54622 8.24154 7.58952 8.25977 7.63965L8.28027 7.70117L8.29395 7.74902L8.32812 7.83789L8.35547 7.93359C8.38281 8.02018 8.4056 8.08398 8.42383 8.125C8.44206 8.16602 8.47168 8.29134 8.5127 8.50098L8.5332 8.62402L8.56055 8.74023C8.57878 8.82682 8.59473 8.89062 8.6084 8.93164C8.6403 9.04102 8.66764 9.14583 8.69043 9.24609C8.72233 9.36458 8.74056 9.45345 8.74512 9.5127C8.75879 9.59473 8.78158 9.58333 8.81348 9.47852C8.82715 9.44206 8.8431 9.47168 8.86133 9.56738C8.87956 9.66309 8.88867 9.74284 8.88867 9.80664L8.88184 9.89551L8.875 9.99121C8.875 10.0687 8.87956 10.1484 8.88867 10.2305L8.89551 10.292L8.90234 10.3604L8.92285 10.4766C8.92741 10.5632 8.90918 10.6429 8.86816 10.7158C8.75879 10.889 8.70866 11.0007 8.71777 11.0508C8.74512 11.1921 8.80208 11.29 8.88867 11.3447L8.92969 11.3652L8.95703 11.3857C8.97982 11.404 8.99805 11.4176 9.01172 11.4268C9.04362 11.445 9.08691 11.445 9.1416 11.4268C9.15983 11.4176 9.18717 11.4062 9.22363 11.3926L9.29199 11.3584C9.34668 11.3402 9.39681 11.3402 9.44238 11.3584C9.46517 11.3675 9.49479 11.3835 9.53125 11.4062L9.62695 11.4541C9.70443 11.4951 9.77051 11.5088 9.8252 11.4951C9.88444 11.4769 9.93685 11.4313 9.98242 11.3584C10.0234 11.2946 10.0417 11.2354 10.0371 11.1807C10.0326 11.1214 10.012 11.0508 9.97559 10.9688C9.93457 10.8776 9.88672 10.8115 9.83203 10.7705L9.74316 10.7158L9.66113 10.6611C9.60189 10.6156 9.56543 10.5609 9.55176 10.4971C9.54264 10.4652 9.52897 10.4128 9.51074 10.3398L9.4834 10.251L9.45605 10.1484C9.41048 9.97526 9.38542 9.84538 9.38086 9.75879C9.37174 9.6722 9.33984 9.51725 9.28516 9.29395L9.25781 9.17773C9.2487 9.14583 9.23958 9.10938 9.23047 9.06836C9.21224 8.98633 9.20312 8.94531 9.20312 8.94531L9.19629 8.91113L9.18945 8.87695L9.16895 8.80176C9.15072 8.74251 9.12793 8.69922 9.10059 8.67188C9.06868 8.64453 9.05273 8.62402 9.05273 8.61035C9.05273 8.61035 9.06185 8.58073 9.08008 8.52148C9.09375 8.48047 9.08236 8.36198 9.0459 8.16602C9.014 7.98372 8.9821 7.84928 8.9502 7.7627C8.91829 7.67611 8.90007 7.58952 8.89551 7.50293C8.88639 7.39811 8.89779 7.32292 8.92969 7.27734C8.94792 7.25911 8.96842 7.24089 8.99121 7.22266L9.0459 7.16797C9.09147 7.1224 9.12337 7.05176 9.1416 6.95605C9.17806 6.75098 9.1735 6.61654 9.12793 6.55273L9.10059 6.51172L9.07324 6.4707L9.00488 6.38867C8.94564 6.32031 8.89095 6.27702 8.84082 6.25879L8.75195 6.22461L8.65625 6.2041C8.58789 6.19499 8.53092 6.21094 8.48535 6.25195C8.40788 6.31576 8.38281 6.36589 8.41016 6.40234C8.41927 6.42057 8.42839 6.4388 8.4375 6.45703C8.45117 6.47526 8.45801 6.49349 8.45801 6.51172C8.46712 6.55273 8.44889 6.56641 8.40332 6.55273C8.30762 6.52539 8.2028 6.46842 8.08887 6.38184C8.03874 6.34538 7.9681 6.32715 7.87695 6.32715C7.79036 6.33171 7.72428 6.34766 7.67871 6.375C7.61035 6.42057 7.55794 6.48438 7.52148 6.56641C7.50781 6.59831 7.49642 6.63249 7.4873 6.66895C7.47819 6.69629 7.47135 6.72819 7.4668 6.76465C7.46224 6.81478 7.47819 6.88086 7.51465 6.96289C7.54199 7.03125 7.57845 7.09277 7.62402 7.14746C7.69238 7.22949 7.82227 7.29102 8.01367 7.33203ZM9.27148 12.3633C9.26237 12.377 9.25781 12.3952 9.25781 12.418L9.25098 12.4795C9.25098 12.5251 9.24642 12.5433 9.2373 12.5342C9.20085 12.4977 9.1849 12.4316 9.18945 12.3359C9.19401 12.2402 9.23275 12.181 9.30566 12.1582C9.32845 12.1491 9.33301 12.1742 9.31934 12.2334C9.31022 12.2835 9.29427 12.3268 9.27148 12.3633ZM10.0645 15.207C10.0599 15.1569 10.0394 15.0133 10.0029 14.7764C9.9847 14.6852 9.96875 14.5941 9.95508 14.5029C9.94141 14.4163 9.93001 14.3548 9.9209 14.3184C9.91634 14.2865 9.90267 14.2181 9.87988 14.1133C9.87077 14.0768 9.85938 14.0267 9.8457 13.9629L9.81152 13.7988C9.74772 13.5072 9.71126 13.3271 9.70215 13.2588C9.69303 13.1859 9.68164 13.0833 9.66797 12.9512L9.66113 12.7939C9.65658 12.7347 9.65202 12.6914 9.64746 12.6641C9.6429 12.6003 9.65658 12.5456 9.68848 12.5L9.74316 12.4521C9.76595 12.4248 9.7819 12.4043 9.79102 12.3906L9.81836 12.3633L9.83887 12.3359C9.86165 12.3177 9.87533 12.304 9.87988 12.2949C9.90267 12.2585 9.91634 12.2015 9.9209 12.124C9.92546 11.9326 9.86849 11.821 9.75 11.7891C9.72266 11.7799 9.6862 11.7663 9.64062 11.748L9.53125 11.7002C9.44466 11.6637 9.36947 11.6523 9.30566 11.666C9.27376 11.6797 9.23958 11.6979 9.20312 11.7207C9.18034 11.7344 9.15299 11.7549 9.12109 11.7822C9.05729 11.8415 9.01628 11.8711 8.99805 11.8711C8.96615 11.8757 8.9502 11.862 8.9502 11.8301C8.9502 11.8164 8.95247 11.7982 8.95703 11.7754V11.7139C8.96159 11.6729 8.93424 11.6501 8.875 11.6455C8.81576 11.641 8.76335 11.6523 8.71777 11.6797C8.66764 11.7161 8.61979 11.7868 8.57422 11.8916C8.51953 12.0146 8.5013 12.1195 8.51953 12.2061C8.5651 12.4567 8.65397 12.6003 8.78613 12.6367C8.86816 12.6549 8.9388 12.7552 8.99805 12.9375L9.03223 13.0537L9.06641 13.1699C9.08919 13.2656 9.1097 13.334 9.12793 13.375C9.15527 13.4525 9.18945 13.5892 9.23047 13.7852L9.28516 14.0107C9.30339 14.0973 9.32161 14.168 9.33984 14.2227C9.37174 14.3184 9.41048 14.4688 9.45605 14.6738L9.47656 14.7832L9.50391 14.8857C9.51758 14.9541 9.52897 15.002 9.53809 15.0293C9.58366 15.1797 9.60872 15.305 9.61328 15.4053C9.61328 15.4554 9.62695 15.4645 9.6543 15.4326C9.67708 15.3962 9.69076 15.3506 9.69531 15.2959L9.70215 15.207V15.1182C9.70671 15.0452 9.70671 14.9746 9.70215 14.9062C9.68848 14.7103 9.69303 14.6283 9.71582 14.6602C9.72949 14.6784 9.75 14.7376 9.77734 14.8379C9.80924 14.9518 9.8252 15.0475 9.8252 15.125C9.82975 15.3255 9.85938 15.4508 9.91406 15.501C9.92773 15.5192 9.94141 15.5397 9.95508 15.5625L9.98926 15.6104C10.0075 15.6468 10.0234 15.6673 10.0371 15.6719C10.0599 15.6764 10.0713 15.6149 10.0713 15.4873C10.0713 15.4372 10.0713 15.3848 10.0713 15.3301C10.0713 15.2799 10.069 15.2389 10.0645 15.207ZM6.16797 12.876C6.15885 12.8805 6.1543 12.8669 6.1543 12.835V12.7871C6.14974 12.7734 6.14746 12.762 6.14746 12.7529C6.13835 12.7347 6.14062 12.7188 6.1543 12.7051C6.16797 12.6914 6.18392 12.6846 6.20215 12.6846C6.25228 12.6891 6.26367 12.721 6.23633 12.7803C6.22721 12.8031 6.21582 12.8258 6.20215 12.8486C6.18848 12.8669 6.17708 12.876 6.16797 12.876ZM8.71094 11.4336C8.69727 11.4245 8.64258 11.4473 8.54688 11.502C8.52409 11.5156 8.5013 11.527 8.47852 11.5361L8.40332 11.5771C8.33952 11.6045 8.30534 11.6113 8.30078 11.5977C8.30078 11.584 8.31217 11.5658 8.33496 11.543L8.37598 11.5088L8.41699 11.4678C8.44889 11.4359 8.47396 11.404 8.49219 11.3721C8.51042 11.3311 8.50586 11.3083 8.47852 11.3037C8.45117 11.3037 8.44889 11.2741 8.47168 11.2148C8.47624 11.1966 8.48307 11.1738 8.49219 11.1465L8.50586 11.1191L8.5127 11.1055C8.54004 11.0599 8.50358 11.0758 8.40332 11.1533C8.30762 11.2308 8.24382 11.2946 8.21191 11.3447C8.18457 11.3857 8.12533 11.4313 8.03418 11.4814C7.96126 11.5225 7.87012 11.5658 7.76074 11.6113C7.68327 11.6432 7.55794 11.6865 7.38477 11.7412C7.32552 11.764 7.25716 11.7868 7.17969 11.8096L7.08398 11.8438L7.04297 11.8574L7.00879 11.8711L6.86523 11.9189L6.73535 11.9805C6.62142 12.026 6.53483 12.0579 6.47559 12.0762C6.41178 12.0944 6.34342 12.0967 6.27051 12.083L6.1748 12.0625C6.13379 12.0534 6.09961 12.0465 6.07227 12.042C5.99023 12.0329 5.91048 12.0374 5.83301 12.0557C5.74186 12.0785 5.67578 12.1172 5.63477 12.1719C5.59375 12.2174 5.56868 12.2721 5.55957 12.3359L5.55273 12.418C5.55273 12.4499 5.55273 12.4727 5.55273 12.4863C5.54818 12.5 5.55046 12.516 5.55957 12.5342L5.60059 12.582C5.63249 12.6185 5.64616 12.6458 5.6416 12.6641C5.63249 12.6823 5.60514 12.7005 5.55957 12.7188L5.50488 12.7461C5.4821 12.7552 5.46159 12.7643 5.44336 12.7734C5.37044 12.8372 5.35449 12.9352 5.39551 13.0674C5.43197 13.1722 5.53223 13.2633 5.69629 13.3408C5.84668 13.4046 5.99251 13.391 6.13379 13.2998C6.17936 13.2725 6.20898 13.2223 6.22266 13.1494L6.23633 13.1084L6.25 13.0605C6.26367 13.0195 6.2819 12.9831 6.30469 12.9512C6.3457 12.8919 6.47103 12.7917 6.68066 12.6504C6.7627 12.6003 6.84701 12.5501 6.93359 12.5C7.00651 12.4544 7.06803 12.418 7.11816 12.3906C7.17741 12.3587 7.30957 12.3063 7.51465 12.2334C7.61491 12.1969 7.68783 12.1696 7.7334 12.1514C7.81087 12.1195 7.87012 12.0921 7.91113 12.0693C8.08431 11.9736 8.22103 11.8825 8.32129 11.7959C8.33952 11.7822 8.37598 11.7503 8.43066 11.7002L8.49902 11.6455L8.56738 11.584C8.6722 11.4928 8.72005 11.4427 8.71094 11.4336ZM4.33594 13.6689C4.33594 13.71 4.32682 13.7715 4.30859 13.8535L4.28125 13.9492L4.26074 14.0449C4.25163 14.0859 4.24935 14.1497 4.25391 14.2363L4.26074 14.3252C4.26074 14.3617 4.25846 14.389 4.25391 14.4072C4.24935 14.4574 4.23112 14.5212 4.19922 14.5986C4.16732 14.6852 4.14225 14.7308 4.12402 14.7354C4.10579 14.7445 4.09896 14.724 4.10352 14.6738C4.11263 14.6283 4.1263 14.5758 4.14453 14.5166C4.1582 14.4756 4.16504 14.4118 4.16504 14.3252V14.2227C4.16504 14.1816 4.16732 14.152 4.17188 14.1338L4.17871 14.0518L4.19238 13.9629C4.2015 13.8945 4.21061 13.8421 4.21973 13.8057C4.22884 13.7738 4.24023 13.7419 4.25391 13.71L4.26758 13.6758L4.28809 13.6348C4.31999 13.5345 4.33594 13.5459 4.33594 13.6689ZM5.34082 12.083C5.29525 11.9919 5.20638 11.9508 5.07422 11.96L4.99219 11.9668H4.91016C4.86003 11.9668 4.82129 11.9577 4.79395 11.9395C4.78483 11.9303 4.77344 11.9167 4.75977 11.8984L4.73242 11.8574C4.70508 11.821 4.66178 11.7936 4.60254 11.7754C4.53418 11.7526 4.4681 11.7617 4.4043 11.8027C4.34961 11.8438 4.30632 11.9007 4.27441 11.9736C4.24707 12.0329 4.24479 12.1058 4.26758 12.1924C4.28581 12.2653 4.31543 12.3291 4.35645 12.3838C4.38379 12.4202 4.39062 12.4818 4.37695 12.5684C4.3724 12.6003 4.36328 12.6367 4.34961 12.6777C4.34049 12.7051 4.3291 12.7347 4.31543 12.7666C4.2972 12.8122 4.26074 12.9238 4.20605 13.1016C4.15137 13.2702 4.11035 13.4069 4.08301 13.5117C4.02832 13.7031 4.00781 13.8102 4.02148 13.833C4.03971 13.8786 4.01921 13.9333 3.95996 13.9971C3.93262 14.029 3.90527 14.1383 3.87793 14.3252L3.86426 14.4346L3.85059 14.5371C3.84147 14.6055 3.83236 14.651 3.82324 14.6738C3.81413 14.7103 3.77083 14.749 3.69336 14.79L3.59082 14.8447C3.5498 14.863 3.5179 14.8812 3.49512 14.8994C3.39941 14.9723 3.34245 15.1113 3.32422 15.3164C3.30143 15.5215 3.3584 15.6468 3.49512 15.6924C3.57259 15.7197 3.63411 15.722 3.67969 15.6992C3.72526 15.681 3.74349 15.6514 3.73438 15.6104C3.72982 15.5785 3.74121 15.5534 3.76855 15.5352C3.79134 15.5124 3.81641 15.5169 3.84375 15.5488C3.85286 15.5671 3.86198 15.5876 3.87109 15.6104L3.89844 15.6787C3.93034 15.7471 3.96452 15.8063 4.00098 15.8564C4.04655 15.9202 4.10124 15.9613 4.16504 15.9795C4.18783 15.9886 4.21517 15.9932 4.24707 15.9932L4.33594 16C4.39062 16 4.44076 15.9704 4.48633 15.9111C4.52279 15.861 4.54785 15.8063 4.56152 15.7471C4.57975 15.6833 4.58887 15.6126 4.58887 15.5352C4.58887 15.444 4.57747 15.3711 4.55469 15.3164L4.47266 15.1387L4.39746 14.9541C4.37467 14.8994 4.3724 14.7786 4.39062 14.5918C4.39974 14.5234 4.41113 14.4505 4.4248 14.373C4.43392 14.3092 4.44303 14.2568 4.45215 14.2158C4.45671 14.1839 4.4681 14.127 4.48633 14.0449L4.5 13.9287L4.52051 13.8057C4.55697 13.596 4.57747 13.4821 4.58203 13.4639C4.58659 13.4456 4.58203 13.4297 4.56836 13.416C4.55924 13.4115 4.55241 13.4046 4.54785 13.3955C4.54329 13.3864 4.54329 13.3704 4.54785 13.3477C4.55241 13.2884 4.5957 13.2269 4.67773 13.1631C4.70052 13.1449 4.74154 13.0833 4.80078 12.9785L4.83496 12.917L4.86914 12.8623C4.89648 12.8213 4.91699 12.7917 4.93066 12.7734C4.94889 12.7598 4.9694 12.7484 4.99219 12.7393L5.06055 12.7188C5.12435 12.7005 5.1722 12.6732 5.2041 12.6367L5.24512 12.5957L5.28613 12.5479C5.31803 12.5023 5.3431 12.4613 5.36133 12.4248C5.41146 12.3154 5.40462 12.2015 5.34082 12.083ZM16.6133 15.6514C16.6361 15.6468 16.652 15.6764 16.6611 15.7402L16.6748 15.8223C16.6794 15.8496 16.6839 15.8678 16.6885 15.877L16.6953 15.918L16.7021 15.959C16.7067 15.9863 16.7158 16 16.7295 16C16.7432 16 16.7546 15.984 16.7637 15.9521L16.7773 15.9111L16.7842 15.877C16.807 15.8451 16.8343 15.8359 16.8662 15.8496C16.8844 15.8542 16.8981 15.8268 16.9072 15.7676L16.9209 15.6787L16.9277 15.583C16.9323 15.5557 16.9391 15.5169 16.9482 15.4668L16.9688 15.3369C16.987 15.2275 16.9961 15.1569 16.9961 15.125C17.0007 15.0658 16.9688 15.0156 16.9004 14.9746C16.8594 14.9518 16.8298 14.945 16.8115 14.9541L16.791 14.9746L16.7637 15.002L16.7295 15.0361L16.7021 15.0635C16.6748 15.0817 16.6406 15.0817 16.5996 15.0635C16.5723 15.0498 16.5518 15.0658 16.5381 15.1113C16.529 15.125 16.5221 15.1478 16.5176 15.1797L16.4971 15.2617C16.4788 15.3164 16.4674 15.4076 16.4629 15.5352C16.4583 15.6673 16.4629 15.7402 16.4766 15.7539C16.4857 15.763 16.5039 15.7516 16.5312 15.7197L16.5723 15.6787C16.5905 15.665 16.6042 15.6559 16.6133 15.6514ZM12.7236 9.67676C12.6917 9.736 12.6507 9.82715 12.6006 9.9502C12.5459 10.0869 12.5163 10.1689 12.5117 10.1963C12.5117 10.2191 12.5186 10.2783 12.5322 10.374L12.5459 10.4287L12.5527 10.4766C12.5618 10.513 12.5664 10.5381 12.5664 10.5518C12.571 10.5791 12.5641 10.5814 12.5459 10.5586C12.5277 10.5358 12.514 10.5085 12.5049 10.4766C12.5003 10.4629 12.4935 10.4447 12.4844 10.4219L12.457 10.3604C12.4342 10.3011 12.4229 10.251 12.4229 10.21C12.4229 10.1644 12.4479 10.0687 12.498 9.92285C12.5163 9.87272 12.5345 9.82031 12.5527 9.76562C12.5618 9.74284 12.5687 9.72233 12.5732 9.7041C12.5824 9.69043 12.5892 9.67904 12.5938 9.66992C12.6029 9.64258 12.6279 9.59245 12.6689 9.51953L12.7168 9.43066C12.735 9.39421 12.751 9.36458 12.7646 9.3418C12.7829 9.30078 12.8079 9.23242 12.8398 9.13672L12.8809 9.02051C12.8945 8.97493 12.9059 8.94076 12.915 8.91797C12.9424 8.84505 12.9766 8.7653 13.0176 8.67871C13.0586 8.57845 13.0882 8.51693 13.1064 8.49414C13.1383 8.44857 13.1497 8.46224 13.1406 8.53516C13.127 8.61263 13.0951 8.70378 13.0449 8.80859C13.0221 8.85872 13.0039 8.91113 12.9902 8.96582L12.9766 9.03418L12.9697 9.0957C12.9561 9.19596 12.9355 9.2666 12.9082 9.30762C12.8763 9.35319 12.8421 9.41699 12.8057 9.49902L12.7646 9.58789L12.7236 9.67676ZM13.4004 7.53711C13.4004 7.57357 13.3936 7.60319 13.3799 7.62598C13.3617 7.65332 13.3457 7.65104 13.332 7.61914L13.3047 7.57129L13.2842 7.53711C13.266 7.50977 13.2568 7.48926 13.2568 7.47559C13.2568 7.43913 13.2819 7.43229 13.332 7.45508C13.3776 7.47331 13.4004 7.50065 13.4004 7.53711ZM13.3047 8.93848C13.487 8.54655 13.6488 8.28678 13.79 8.15918C13.8311 8.12272 13.8971 8.08854 13.9883 8.05664L14.043 8.03613L14.1113 8.00879C14.1569 7.99056 14.2002 7.97005 14.2412 7.94727C14.3232 7.90169 14.3848 7.83105 14.4258 7.73535C14.4395 7.70345 14.4508 7.66699 14.46 7.62598C14.4645 7.59408 14.4668 7.5599 14.4668 7.52344C14.4714 7.40039 14.4281 7.29785 14.3369 7.21582C14.2959 7.17936 14.2503 7.16569 14.2002 7.1748C14.1546 7.18392 14.1364 7.21354 14.1455 7.26367C14.1546 7.31836 14.1523 7.36165 14.1387 7.39355C14.1296 7.42546 14.1113 7.42546 14.084 7.39355C14.0521 7.36165 14.027 7.31152 14.0088 7.24316L13.9746 7.1543C13.9655 7.11784 13.9541 7.08366 13.9404 7.05176C13.8675 6.89225 13.806 6.79883 13.7559 6.77148C13.6328 6.69401 13.4733 6.72135 13.2773 6.85352C13.0996 6.98112 13.029 7.1429 13.0654 7.33887C13.111 7.59863 13.1247 7.75814 13.1064 7.81738C13.0973 7.85384 13.0905 7.88802 13.0859 7.91992V7.96094L13.0928 8.00195C13.0973 8.05208 13.0882 8.09082 13.0654 8.11816C13.029 8.15918 12.972 8.25488 12.8945 8.40527C12.8079 8.56478 12.7282 8.72884 12.6553 8.89746C12.5049 9.24837 12.4365 9.45573 12.4502 9.51953C12.4548 9.55143 12.4525 9.57194 12.4434 9.58105L12.4229 9.59473L12.4023 9.61523C12.3796 9.62891 12.359 9.64714 12.3408 9.66992C12.2952 9.71094 12.2474 9.79297 12.1973 9.91602L12.1357 10.0732L12.0742 10.2305C12.0013 10.39 11.8874 10.513 11.7324 10.5996C11.5501 10.6999 11.4613 10.8594 11.4658 11.0781C11.4704 11.1829 11.4818 11.2513 11.5 11.2832C11.5228 11.3288 11.5729 11.3652 11.6504 11.3926C11.7096 11.4108 11.7507 11.4176 11.7734 11.4131H11.7803L11.8008 11.4062C11.8145 11.4062 11.835 11.4108 11.8623 11.4199C11.9124 11.4336 11.9694 11.4176 12.0332 11.3721C12.0605 11.3538 12.0924 11.3288 12.1289 11.2969L12.1836 11.249L12.2451 11.2012C12.318 11.1374 12.375 11.1032 12.416 11.0986C12.4525 11.0986 12.4661 11.1146 12.457 11.1465L12.4434 11.1807L12.4297 11.208C12.416 11.2308 12.4229 11.2536 12.4502 11.2764C12.4639 11.29 12.4844 11.3037 12.5117 11.3174C12.5391 11.3311 12.5687 11.3402 12.6006 11.3447C12.6781 11.3675 12.7441 11.3607 12.7988 11.3242C12.8672 11.2832 12.9196 11.2217 12.9561 11.1396C12.9971 11.0485 13.0062 10.9596 12.9834 10.873C12.9697 10.832 12.9515 10.7933 12.9287 10.7568L12.8604 10.6543C12.8011 10.5677 12.7669 10.4925 12.7578 10.4287C12.7441 10.3376 12.7555 10.2191 12.792 10.0732C12.8239 9.93197 12.8672 9.80664 12.9219 9.69727C12.9447 9.65625 12.972 9.60156 13.0039 9.5332L13.0518 9.44434L13.0996 9.35547C13.1816 9.20052 13.25 9.06152 13.3047 8.93848ZM17.2969 14.6191C17.2923 14.6191 17.2786 14.6169 17.2559 14.6123C17.2331 14.6077 17.2103 14.6055 17.1875 14.6055C17.1146 14.5964 17.0599 14.5941 17.0234 14.5986L16.9619 14.6123L16.8867 14.626C16.8229 14.6351 16.7751 14.6419 16.7432 14.6465C16.693 14.651 16.6475 14.6533 16.6064 14.6533C16.5563 14.6488 16.5495 14.6374 16.5859 14.6191C16.6042 14.61 16.6497 14.5964 16.7227 14.5781L16.8115 14.5576L16.8936 14.5303C16.9437 14.5166 17.0029 14.5098 17.0713 14.5098C17.1488 14.5098 17.2035 14.5166 17.2354 14.5303C17.2673 14.5485 17.29 14.569 17.3037 14.5918C17.3128 14.6146 17.3105 14.6237 17.2969 14.6191ZM17.9873 14.5371C17.9782 14.5189 17.96 14.4984 17.9326 14.4756L17.8916 14.4414L17.8574 14.4072C17.7982 14.3434 17.7754 14.2751 17.7891 14.2021C17.8255 14.0062 17.8232 13.8695 17.7822 13.792C17.7594 13.751 17.7344 13.7305 17.707 13.7305L17.6865 13.7373H17.666C17.6478 13.7373 17.6296 13.7327 17.6113 13.7236C17.5111 13.6644 17.3949 13.6621 17.2627 13.7168C17.2126 13.735 17.1647 13.7715 17.1191 13.8262L17.0576 13.915L16.9961 14.0039C16.9551 14.0586 16.8936 14.0996 16.8115 14.127L16.7568 14.1406L16.6953 14.1543C16.6406 14.168 16.5973 14.1794 16.5654 14.1885C16.5244 14.2021 16.4629 14.2181 16.3809 14.2363L16.2715 14.2637L16.1416 14.2979C15.9183 14.3525 15.7542 14.3981 15.6494 14.4346C15.5902 14.4574 15.4854 14.5052 15.335 14.5781C15.2848 14.6009 15.2347 14.6055 15.1846 14.5918L15.1162 14.5781C15.0889 14.5736 15.0661 14.5713 15.0479 14.5713L14.9658 14.585L14.877 14.5986C14.7949 14.6077 14.7197 14.61 14.6514 14.6055C14.5785 14.6009 14.5033 14.5827 14.4258 14.5508L14.3369 14.5029L14.2959 14.4893L14.2549 14.4688C14.0954 14.4004 13.9518 14.4027 13.8242 14.4756C13.7103 14.5394 13.6396 14.6214 13.6123 14.7217C13.5986 14.7946 13.61 14.8766 13.6465 14.9678C13.6829 15.0589 13.7285 15.1136 13.7832 15.1318L13.8721 15.1592L13.9609 15.1729C14.0293 15.1911 14.0863 15.223 14.1318 15.2686C14.1774 15.3187 14.1842 15.346 14.1523 15.3506C14.1387 15.3551 14.1204 15.3551 14.0977 15.3506H14.0703H14.0498C14.0225 15.346 14.0111 15.3779 14.0156 15.4463C14.0202 15.5192 14.0384 15.5785 14.0703 15.624C14.1432 15.7288 14.2891 15.7699 14.5078 15.7471C14.64 15.7334 14.7448 15.6514 14.8223 15.501C14.8542 15.4463 14.9271 15.3825 15.041 15.3096C15.1413 15.2412 15.2484 15.1842 15.3623 15.1387C15.4079 15.1204 15.4717 15.1022 15.5537 15.084L15.6631 15.0635L15.7861 15.043C15.9912 15.002 16.1257 14.9678 16.1895 14.9404C16.276 14.904 16.4219 14.8607 16.627 14.8105C16.8092 14.7695 16.946 14.7445 17.0371 14.7354C17.0964 14.7308 17.1533 14.749 17.208 14.79L17.249 14.8174L17.2969 14.8516C17.3333 14.8743 17.3743 14.8949 17.4199 14.9131C17.6022 14.9769 17.7503 14.9701 17.8643 14.8926C17.9235 14.8516 17.9645 14.7923 17.9873 14.7148C18.0101 14.6374 18.0101 14.5781 17.9873 14.5371ZM12.2998 12.6572C12.3317 12.7119 12.3545 12.7826 12.3682 12.8691C12.3864 12.9557 12.3864 12.9899 12.3682 12.9717C12.359 12.9626 12.3454 12.9443 12.3271 12.917L12.3066 12.8691L12.2793 12.8213C12.2292 12.7301 12.1927 12.6755 12.1699 12.6572C12.1426 12.6299 12.1152 12.5843 12.0879 12.5205C12.0833 12.5068 12.0742 12.4932 12.0605 12.4795L12.0264 12.4316C11.9945 12.3997 11.9785 12.3792 11.9785 12.3701C11.9831 12.3245 12.0309 12.3451 12.1221 12.4316C12.2087 12.5182 12.2679 12.5934 12.2998 12.6572ZM13.0859 14.2158C13.0905 14.1976 13.1064 14.193 13.1338 14.2021C13.1566 14.2113 13.1725 14.2249 13.1816 14.2432C13.1862 14.2477 13.1908 14.2568 13.1953 14.2705L13.2021 14.3115C13.2021 14.3434 13.193 14.3594 13.1748 14.3594C13.152 14.3548 13.1315 14.3343 13.1133 14.2979C13.0905 14.2568 13.0814 14.2295 13.0859 14.2158ZM11.8213 12.5C11.9215 12.541 12.0173 12.6549 12.1084 12.8418L12.1562 12.9512L12.2041 13.0605C12.2451 13.1562 12.2725 13.2178 12.2861 13.2451C12.3089 13.2861 12.3317 13.3363 12.3545 13.3955L12.3818 13.4707L12.4023 13.5391C12.4388 13.6439 12.4753 13.7031 12.5117 13.7168C12.5391 13.7305 12.555 13.7669 12.5596 13.8262L12.5664 13.874L12.5732 13.9219C12.5778 13.9629 12.5892 14.0016 12.6074 14.0381L12.6279 14.0723L12.6484 14.1201C12.6667 14.1657 12.6826 14.2044 12.6963 14.2363C12.7464 14.3411 12.7897 14.4368 12.8262 14.5234C12.931 14.7786 12.988 14.9473 12.9971 15.0293C13.0016 15.0703 13.0016 15.1159 12.9971 15.166L12.9834 15.2891C12.9743 15.3893 12.9811 15.4782 13.0039 15.5557C13.0768 15.7881 13.1862 15.9157 13.332 15.9385C13.4141 15.9476 13.5052 15.9339 13.6055 15.8975C13.7194 15.8519 13.79 15.7926 13.8174 15.7197C13.8857 15.542 13.888 15.4372 13.8242 15.4053L13.7832 15.3916L13.7422 15.3643C13.7012 15.346 13.667 15.3278 13.6396 15.3096C13.5576 15.2503 13.5052 15.1865 13.4824 15.1182C13.4232 14.9176 13.4072 14.7923 13.4346 14.7422C13.4801 14.651 13.4824 14.5804 13.4414 14.5303C13.4141 14.4984 13.3685 14.4163 13.3047 14.2842L13.2705 14.2021L13.2295 14.127C13.2021 14.0677 13.1816 14.0244 13.168 13.9971C13.1452 13.9561 13.0951 13.8376 13.0176 13.6416C12.9811 13.5413 12.9515 13.4661 12.9287 13.416C12.8968 13.334 12.8695 13.2702 12.8467 13.2246C12.7965 13.1335 12.751 13.0081 12.71 12.8486C12.6781 12.721 12.6553 12.6048 12.6416 12.5C12.6143 12.3086 12.6097 12.1901 12.6279 12.1445C12.6826 12.026 12.7008 11.8962 12.6826 11.7549C12.6598 11.6045 12.5732 11.4951 12.4229 11.4268C12.359 11.3949 12.3066 11.3926 12.2656 11.4199C12.2474 11.4245 12.2292 11.4382 12.2109 11.4609L12.1699 11.5088C12.1289 11.5407 12.1289 11.5908 12.1699 11.6592C12.1882 11.6956 12.1335 11.6956 12.0059 11.6592L11.958 11.6455L11.9033 11.6318L11.7939 11.6113C11.7074 11.6022 11.6367 11.6159 11.582 11.6523C11.5273 11.6888 11.4909 11.748 11.4727 11.8301C11.4635 11.862 11.4567 11.9007 11.4521 11.9463V12.0557C11.4521 12.2425 11.5752 12.3906 11.8213 12.5ZM17.1191 8.86328C17.1374 8.88607 17.151 8.92708 17.1602 8.98633L17.167 9.05469L17.1807 9.11621C17.1898 9.15723 17.1875 9.19141 17.1738 9.21875C17.1602 9.24609 17.1488 9.24382 17.1396 9.21191L17.1191 9.1709L17.0986 9.12305C17.0758 9.08203 17.0622 9.04785 17.0576 9.02051C17.0439 8.96582 17.012 8.92025 16.9619 8.88379C16.9118 8.84277 16.8822 8.81087 16.873 8.78809C16.8639 8.7653 16.873 8.75846 16.9004 8.76758C16.9049 8.77214 16.9209 8.77897 16.9482 8.78809L17.0098 8.80176C17.069 8.81543 17.1055 8.83594 17.1191 8.86328ZM15.9912 7.93359C15.9456 7.90625 15.8089 7.83333 15.5811 7.71484C15.5036 7.67839 15.4398 7.63965 15.3896 7.59863C15.3714 7.58496 15.3555 7.57129 15.3418 7.55762C15.3281 7.54395 15.319 7.53255 15.3145 7.52344C15.2917 7.49154 15.3555 7.50293 15.5059 7.55762C15.6562 7.61686 15.7656 7.66927 15.834 7.71484C16.0163 7.83789 16.1393 7.94271 16.2031 8.0293C16.2259 8.0612 16.2122 8.06576 16.1621 8.04297C16.1165 8.02474 16.0596 7.98828 15.9912 7.93359ZM16.8936 7.99512C16.7796 7.94499 16.6702 7.89714 16.5654 7.85156C16.4378 7.79232 16.3444 7.74674 16.2852 7.71484C16.2214 7.67839 16.096 7.60319 15.9092 7.48926C15.7178 7.37077 15.5947 7.29329 15.54 7.25684C15.5218 7.23861 15.4831 7.21354 15.4238 7.18164L15.3418 7.13379L15.2666 7.08594C15.1299 7.00846 15.0501 6.94922 15.0273 6.9082C15 6.8444 14.9385 6.77832 14.8428 6.70996C14.7334 6.63249 14.6468 6.6097 14.583 6.6416C14.5557 6.65527 14.5329 6.65072 14.5146 6.62793L14.501 6.61426L14.4805 6.59375C14.4668 6.57552 14.4486 6.55957 14.4258 6.5459C14.3893 6.52311 14.3369 6.52767 14.2686 6.55957C14.2412 6.57324 14.2139 6.59147 14.1865 6.61426C14.1637 6.63249 14.141 6.65072 14.1182 6.66895C14.0407 6.74186 14.0225 6.80339 14.0635 6.85352C14.0726 6.86719 14.0794 6.88314 14.084 6.90137L14.0908 6.93555C14.0954 6.96745 14.109 6.99251 14.1318 7.01074C14.1501 7.02441 14.1751 7.03353 14.207 7.03809L14.2549 7.04492L14.3027 7.05176C14.3848 7.06087 14.4395 7.08138 14.4668 7.11328C14.4805 7.13151 14.4941 7.1543 14.5078 7.18164L14.5352 7.25C14.5534 7.29557 14.5716 7.32292 14.5898 7.33203C14.6217 7.35026 14.6468 7.37305 14.665 7.40039C14.6833 7.43229 14.6764 7.4528 14.6445 7.46191C14.6217 7.47103 14.6126 7.49382 14.6172 7.53027V7.56445L14.624 7.59863C14.624 7.62598 14.6217 7.65332 14.6172 7.68066C14.6126 7.70801 14.6058 7.73535 14.5967 7.7627L14.5898 7.79004L14.583 7.80371C14.5785 7.82194 14.5921 7.83105 14.624 7.83105C14.6696 7.83561 14.7676 7.81055 14.918 7.75586C15.0638 7.69661 15.1777 7.68066 15.2598 7.70801C15.3646 7.73991 15.3737 7.7627 15.2871 7.77637C15.2552 7.78548 15.262 7.80599 15.3076 7.83789C15.3441 7.86523 15.401 7.89714 15.4785 7.93359C15.556 7.97005 15.6722 8.03613 15.8271 8.13184C16.0049 8.24121 16.1211 8.32324 16.1758 8.37793C16.2031 8.40072 16.2419 8.4349 16.292 8.48047L16.3672 8.54199L16.4424 8.60352C16.57 8.71745 16.6611 8.80404 16.7158 8.86328C16.8799 9.0319 16.971 9.17546 16.9893 9.29395C17.0212 9.51725 17.1032 9.65853 17.2354 9.71777C17.3037 9.74967 17.3903 9.76335 17.4951 9.75879C17.5817 9.75423 17.6706 9.74056 17.7617 9.71777C17.9531 9.66764 18.0693 9.57422 18.1104 9.4375C18.124 9.38281 18.1217 9.3099 18.1035 9.21875L18.0898 9.1709L18.0762 9.12305C18.0671 9.09115 18.0625 9.06836 18.0625 9.05469C18.0625 9.01823 18.0352 9.01139 17.9805 9.03418C17.9258 9.05697 17.887 9.10254 17.8643 9.1709C17.8506 9.2028 17.8392 9.22103 17.8301 9.22559C17.821 9.23014 17.8141 9.22331 17.8096 9.20508C17.805 9.18229 17.805 9.15723 17.8096 9.12988C17.8141 9.09798 17.8232 9.06608 17.8369 9.03418C17.8597 8.99316 17.944 8.92253 18.0898 8.82227C18.1947 8.75391 18.2585 8.65365 18.2812 8.52148L18.2949 8.41895C18.304 8.37793 18.3063 8.34375 18.3018 8.31641C18.3018 8.23893 18.2721 8.17285 18.2129 8.11816C18.1491 8.05892 18.0716 8.00879 17.9805 7.96777C17.8984 7.93132 17.8278 7.91309 17.7686 7.91309C17.7321 7.90853 17.6478 7.94499 17.5156 8.02246L17.4404 8.07031L17.3652 8.11133C17.3151 8.13867 17.2764 8.15462 17.249 8.15918C17.0895 8.19108 17.028 8.1888 17.0645 8.15234C17.0918 8.125 17.0941 8.10221 17.0713 8.08398C17.0531 8.07031 16.9938 8.04069 16.8936 7.99512ZM16.3877 12.1377C16.4333 12.1468 16.4834 12.1628 16.5381 12.1855C16.5973 12.2129 16.6361 12.2402 16.6543 12.2676C16.6634 12.2812 16.6725 12.2972 16.6816 12.3154L16.7021 12.377C16.7204 12.4271 16.7181 12.4499 16.6953 12.4453C16.6771 12.4453 16.6589 12.4271 16.6406 12.3906L16.6133 12.3428C16.5996 12.3291 16.5859 12.3177 16.5723 12.3086L16.5176 12.2881L16.4629 12.2607C16.4173 12.2471 16.374 12.238 16.333 12.2334C16.292 12.2334 16.2373 12.2129 16.1689 12.1719C16.1416 12.1582 16.1165 12.1445 16.0938 12.1309C16.071 12.1126 16.055 12.099 16.0459 12.0898C16.0231 12.0716 16.0049 12.0443 15.9912 12.0078C15.9821 11.9714 15.9821 11.9417 15.9912 11.9189C16.0003 11.887 16.0186 11.8916 16.0459 11.9326L16.0664 11.96L16.0938 11.9941C16.112 12.0169 16.1257 12.0352 16.1348 12.0488C16.1895 12.0944 16.2738 12.124 16.3877 12.1377ZM16.5039 11.3584C16.4902 11.3265 16.4424 11.2946 16.3604 11.2627C16.2738 11.2217 16.1803 11.1966 16.0801 11.1875C15.9844 11.1784 15.8932 11.2035 15.8066 11.2627C15.7337 11.3174 15.6859 11.3766 15.6631 11.4404C15.6449 11.4951 15.6494 11.5977 15.6768 11.748C15.7087 11.8984 15.7474 12.0146 15.793 12.0967C15.834 12.165 15.9069 12.2266 16.0117 12.2812C16.0482 12.2995 16.0938 12.3177 16.1484 12.3359L16.292 12.3906C16.4105 12.4316 16.4971 12.582 16.5518 12.8418C16.5745 12.9375 16.5928 13.0765 16.6064 13.2588C16.6156 13.4092 16.6201 13.5322 16.6201 13.6279C16.6201 13.833 16.6338 13.9355 16.6611 13.9355C16.6748 13.931 16.6908 13.9264 16.709 13.9219C16.7272 13.9173 16.7454 13.9105 16.7637 13.9014C16.8092 13.8695 16.832 13.8262 16.832 13.7715C16.8366 13.735 16.8503 13.6712 16.873 13.5801C16.8958 13.4889 16.9163 13.4297 16.9346 13.4023C16.9437 13.3887 16.9505 13.4115 16.9551 13.4707L16.9619 13.5049V13.5391C16.9665 13.5618 16.9733 13.5755 16.9824 13.5801C16.9961 13.5846 17.0143 13.5778 17.0371 13.5596L17.0781 13.5322C17.0964 13.5231 17.1146 13.5186 17.1328 13.5186C17.1647 13.5094 17.1829 13.4456 17.1875 13.3271L17.1943 13.2383V13.1494C17.1989 13.0719 17.2035 13.0059 17.208 12.9512C17.249 12.6094 17.2855 12.4066 17.3174 12.3428C17.3402 12.2972 17.3698 12.2448 17.4062 12.1855L17.4404 12.124L17.4746 12.0693C17.5111 11.9873 17.527 11.8962 17.5225 11.7959C17.5042 11.5088 17.3971 11.3288 17.2012 11.2559C17.1328 11.2285 17.0371 11.2559 16.9141 11.3379L16.8389 11.3926L16.7637 11.4473C16.709 11.4837 16.668 11.5088 16.6406 11.5225C16.472 11.5999 16.3854 11.609 16.3809 11.5498C16.3809 11.5361 16.3877 11.5202 16.4014 11.502L16.4492 11.4473C16.4948 11.4062 16.513 11.3766 16.5039 11.3584Z" fill="#333333"/>
</svg>
