<svg width="24" height="24" viewBox="0 0 24 24" fill="none" xmlns="http://www.w3.org/2000/svg">
<path d="M10.0025 16.86L9.68055 14.914L7.59455 14.998L7.06255 17.63L5.10255 17.462L7.60855 7.312L10.1985 7.536L12.0325 17.028L10.0025 16.86ZM8.77055 9.146L7.88855 13.5L9.45655 13.444L8.77055 9.146ZM14.9813 18.876C15.2706 18.876 15.504 18.5773 15.6813 17.98C15.8586 17.392 15.9473 16.6593 15.9473 15.782C15.4526 16.6687 14.9393 17.112 14.4073 17.112C13.8846 17.112 13.46 16.9347 13.1333 16.58C12.816 16.216 12.6573 15.67 12.6573 14.942C12.6573 14.2047 12.7833 13.4767 13.0353 12.758C13.2873 12.03 13.5953 11.4513 13.9593 11.022C14.3326 10.5833 14.6873 10.364 15.0233 10.364C15.6113 10.364 16.1526 10.602 16.6473 11.078L17.6273 11.218C17.506 11.8247 17.4453 12.758 17.4453 14.018C17.4453 15.2687 17.408 16.1927 17.3333 16.79C17.268 17.378 17.156 17.9567 16.9973 18.526C16.8386 19.0953 16.6053 19.548 16.2973 19.884C15.9893 20.22 15.5833 20.388 15.0793 20.388C14.5753 20.388 14.0946 20.1827 13.6373 19.772C13.18 19.3707 12.8113 18.8853 12.5313 18.316L13.7073 17.812C14.0713 18.5213 14.496 18.876 14.9813 18.876ZM15.3733 11.792C15.14 11.792 14.902 12.128 14.6593 12.8C14.426 13.472 14.3093 14.186 14.3093 14.942C14.3093 15.2313 14.3466 15.4507 14.4213 15.6C14.5053 15.7493 14.594 15.824 14.6873 15.824C14.79 15.824 14.9206 15.7307 15.0793 15.544C15.238 15.3573 15.406 15.0587 15.5833 14.648C15.77 14.2373 15.9053 13.7847 15.9893 13.29L16.0173 12.226C15.7466 11.9367 15.532 11.792 15.3733 11.792Z" fill="#333333"/>
</svg>
