<svg width="24" height="24" viewBox="0 0 24 24" fill="none" xmlns="http://www.w3.org/2000/svg">
<path d="M9.32617 13.7666H5.375L4.91016 14.8672C4.60482 15.5964 4.45215 16.043 4.45215 16.207C4.45215 16.3118 4.47949 16.387 4.53418 16.4326C4.59342 16.4782 4.73926 16.5146 4.97168 16.542L5.62793 16.6172V17.0479C5.19043 17.016 4.69824 17 4.15137 17C3.49512 17 2.91862 17.016 2.42188 17.0479V16.6172L2.62695 16.6104C2.94596 16.6012 3.15104 16.5693 3.24219 16.5146C3.33789 16.4554 3.43815 16.3141 3.54297 16.0908C3.86654 15.4346 4.19694 14.7259 4.53418 13.9648L6.41406 9.70605C6.91536 8.57585 7.25716 7.75553 7.43945 7.24512H7.9043L11.3633 15.291C11.5957 15.8379 11.7507 16.1683 11.8281 16.2822C11.9056 16.3916 11.9945 16.4714 12.0947 16.5215C12.195 16.5671 12.4206 16.599 12.7715 16.6172V17.0479C12.179 17.016 11.6139 17 11.0762 17C10.5749 17 9.90723 17.016 9.07324 17.0479V16.6172L9.75 16.5762C9.99154 16.5579 10.1351 16.5329 10.1807 16.501C10.249 16.4508 10.2832 16.387 10.2832 16.3096C10.2832 16.2275 10.2148 16.0133 10.0781 15.667L9.32617 13.7666ZM5.62793 13.2061H9.07324L7.35059 9.09082L5.62793 13.2061ZM19.1699 11.709C19.2747 12.0007 19.3271 12.2399 19.3271 12.4268C19.3271 12.8324 19.2041 13.2243 18.958 13.6025C18.7119 13.9762 18.361 14.2793 17.9053 14.5117C17.4495 14.7396 16.9574 14.8535 16.4287 14.8535L16.1074 14.8467C15.8066 15.07 15.6152 15.2363 15.5332 15.3457C15.4557 15.4551 15.417 15.5622 15.417 15.667C15.417 15.8402 15.5059 15.9769 15.6836 16.0771C15.8613 16.1774 16.2236 16.2275 16.7705 16.2275C16.9801 16.2275 17.2809 16.2207 17.6729 16.207C18.2334 16.1842 18.639 16.1729 18.8896 16.1729C19.2497 16.1729 19.5254 16.2321 19.7168 16.3506C19.9082 16.4645 20.0723 16.6673 20.209 16.959C20.3457 17.2461 20.4141 17.5719 20.4141 17.9365C20.4141 18.4469 20.2591 18.9346 19.9492 19.3994C19.6393 19.8688 19.1882 20.2448 18.5957 20.5273C18.0033 20.8099 17.3219 20.9512 16.5518 20.9512C15.613 20.9512 14.8906 20.7461 14.3848 20.3359C13.8789 19.9303 13.626 19.429 13.626 18.832C13.626 18.4629 13.7581 18.0892 14.0225 17.7109C14.4964 17.4876 14.8952 17.262 15.2188 17.0342C14.8451 16.9111 14.6035 16.7995 14.4941 16.6992C14.3893 16.5944 14.3369 16.4622 14.3369 16.3027C14.3369 16.1113 14.3893 15.9222 14.4941 15.7354C14.5534 15.6214 14.7038 15.4824 14.9453 15.3184L15.6084 14.8467C15.0615 14.71 14.6673 14.5163 14.4258 14.2656C14.1068 13.9284 13.9473 13.4977 13.9473 12.9736C13.9473 12.5133 14.0658 12.0941 14.3027 11.7158C14.5397 11.3376 14.8883 11.0391 15.3486 10.8203C15.9365 10.5423 16.5039 10.4033 17.0508 10.4033C17.3971 10.4033 17.7002 10.4489 17.96 10.54C18.2243 10.6312 18.4932 10.7861 18.7666 11.0049H19.3408C19.9333 11.0049 20.3936 10.9867 20.7217 10.9502L20.7969 11.0938C20.6602 11.2897 20.5394 11.4948 20.4346 11.709H19.1699ZM18.1309 12.7891C18.1309 12.2194 17.985 11.7614 17.6934 11.415C17.4017 11.0687 17.0348 10.8955 16.5928 10.8955C16.1553 10.8955 15.8021 11.0368 15.5332 11.3193C15.2689 11.6019 15.1367 11.9938 15.1367 12.4951C15.1367 13.1012 15.2803 13.5775 15.5674 13.9238C15.859 14.2656 16.2236 14.4365 16.6611 14.4365C17.0986 14.4365 17.4518 14.293 17.7207 14.0059C17.9941 13.7142 18.1309 13.3086 18.1309 12.7891ZM16.2715 17.1436C15.9479 17.1436 15.7269 17.18 15.6084 17.2529C15.2256 17.499 14.9932 17.6973 14.9111 17.8477C14.7744 18.0846 14.7061 18.3831 14.7061 18.7432C14.7061 19.2399 14.8906 19.6501 15.2598 19.9736C15.6289 20.2972 16.1416 20.459 16.7979 20.459C17.3037 20.459 17.748 20.3656 18.1309 20.1787C18.5137 19.9919 18.8099 19.7344 19.0195 19.4062C19.2337 19.0827 19.3408 18.7477 19.3408 18.4014C19.3408 18.1051 19.2656 17.8454 19.1152 17.6221C18.9694 17.3988 18.7939 17.2552 18.5889 17.1914C18.484 17.1595 18.2448 17.1436 17.8711 17.1436H16.2715Z" fill="#888888"/>
</svg>
