<svg width="24" height="24" viewBox="0 0 24 24" fill="none" xmlns="http://www.w3.org/2000/svg">
<path d="M4.00962 16.432L6.26362 9.908L5.38162 9.824V8.69H8.58762L11.4436 16.768H11.4576L12.2556 16.81V18H8.64362V16.866L9.17562 16.824C9.33428 16.8053 9.44162 16.768 9.49762 16.712C9.55362 16.656 9.55828 16.5533 9.51162 16.404L9.21762 15.536H5.94162L5.52162 16.768L6.36162 16.81V18H3.12762V16.866L3.58962 16.824C3.78562 16.8053 3.92562 16.6747 4.00962 16.432ZM7.57962 10.258L6.27762 14.248H8.88162L7.62162 10.258H7.57962ZM19.0191 17.986C18.9351 19.022 18.6365 19.7827 18.1231 20.268C17.6098 20.7533 16.8071 20.996 15.7151 20.996C14.6231 20.996 13.7691 20.842 13.1531 20.534V18.588L14.4831 18.476V19.148C14.4831 19.4 14.5998 19.568 14.8331 19.652C15.0665 19.7453 15.3885 19.792 15.7991 19.792C16.3965 19.792 16.8165 19.61 17.0591 19.246C17.3018 18.8913 17.4231 18.3873 17.4231 17.734V16.964C16.9751 17.4867 16.3545 17.748 15.5611 17.748C15.0758 17.748 14.6465 17.6547 14.2731 17.468C13.9091 17.2813 13.6245 17.0293 13.4191 16.712C13.0178 16.0773 12.8171 15.3307 12.8171 14.472C12.8171 13.2493 13.1485 12.3253 13.8111 11.7C14.4738 11.0653 15.3558 10.748 16.4571 10.748C17.3718 10.748 18.2351 10.9207 19.0471 11.266V16.46C19.0471 17.2533 19.0378 17.762 19.0191 17.986ZM17.4231 15.144V12.134C17.0965 12.022 16.7231 11.966 16.3031 11.966C15.7338 11.966 15.2951 12.176 14.9871 12.596C14.6885 13.016 14.5391 13.5853 14.5391 14.304C14.5391 15.7787 15.0245 16.516 15.9951 16.516C16.3965 16.516 16.7325 16.3947 17.0031 16.152C17.2831 15.9 17.4231 15.564 17.4231 15.144Z" fill="#333333"/>
</svg>
