<svg width="24" height="24" viewBox="0 0 24 24" fill="none" xmlns="http://www.w3.org/2000/svg">
<path d="M12.6494 17H11.248V14.1973H3.42773V12.8027H11.248V8.59863H6.22363C5.74512 8.59863 5.29395 8.69206 4.87012 8.87891C4.44629 9.0612 4.07715 9.31185 3.7627 9.63086C3.44824 9.94531 3.19759 10.3145 3.01074 10.7383C2.82845 11.1621 2.7373 11.6156 2.7373 12.0986V17H1.33594V12.0986C1.33594 11.6475 1.3929 11.2145 1.50684 10.7998C1.62533 10.3805 1.78939 9.99089 1.99902 9.63086C2.21322 9.26628 2.46842 8.93587 2.76465 8.63965C3.06543 8.33887 3.39583 8.08138 3.75586 7.86719C4.12044 7.65299 4.51009 7.48893 4.9248 7.375C5.33952 7.25651 5.77246 7.19727 6.22363 7.19727H12.6494V17ZM22.8965 17H17.9268C17.3844 17 16.8923 16.8997 16.4502 16.6992C16.0081 16.4987 15.6299 16.2253 15.3154 15.8789C15.001 15.528 14.7572 15.1178 14.584 14.6484C14.4154 14.1745 14.3311 13.6663 14.3311 13.124C14.3311 12.5863 14.4154 12.085 14.584 11.6201C14.7572 11.1507 15.001 10.7428 15.3154 10.3965C15.6299 10.0501 16.0081 9.77669 16.4502 9.57617C16.8923 9.37565 17.3844 9.27539 17.9268 9.27539H22.8965V10.6836H17.9268C17.5895 10.6836 17.2842 10.7474 17.0107 10.875C16.7419 11.0026 16.514 11.1758 16.3271 11.3945C16.1403 11.6133 15.9967 11.8708 15.8965 12.167C15.7962 12.4632 15.7461 12.7822 15.7461 13.124C15.7461 13.4704 15.7962 13.7939 15.8965 14.0947C15.9967 14.391 16.1403 14.6507 16.3271 14.874C16.514 15.0928 16.7419 15.266 17.0107 15.3936C17.2842 15.5212 17.5895 15.585 17.9268 15.585H21.4814V13.8076H17.4688V12.3926H22.8965V17Z" fill="#888888"/>
</svg>
