<svg width="24" height="24" viewBox="0 0 24 24" fill="none" xmlns="http://www.w3.org/2000/svg">
<path d="M3.58305 17V16.51H4.39505L7.78305 7.62H8.83305L12.039 16.51H12.991V17H9.67305V16.51H10.583L10.653 16.44L8.00705 8.95H7.93705L5.09505 16.44L5.16505 16.51H6.31305V17H3.58305ZM5.80905 13.64V13.15H9.99505V13.64H5.80905ZM16.6784 10.42C17.1171 10.42 17.5511 10.504 17.9804 10.672C18.4191 10.8307 18.7831 11.078 19.0724 11.414C19.3617 11.7407 19.5064 12.156 19.5064 12.66C19.5064 13.164 19.3617 13.584 19.0724 13.92C18.7831 14.2467 18.4191 14.494 17.9804 14.662C17.5511 14.8207 17.1171 14.9 16.6784 14.9C16.2491 14.9 15.8197 14.8207 15.3904 14.662C14.9611 14.494 14.6064 14.2467 14.3264 13.92C14.0464 13.584 13.9064 13.164 13.9064 12.66C13.9064 12.156 14.0464 11.7407 14.3264 11.414C14.6064 11.078 14.9611 10.8307 15.3904 10.672C15.8197 10.504 16.2491 10.42 16.6784 10.42ZM16.7624 14.41C17.1824 14.41 17.5464 14.2607 17.8544 13.962C18.1624 13.6633 18.3164 13.2573 18.3164 12.744C18.3164 12.3333 18.2277 11.9927 18.0504 11.722C17.8824 11.4513 17.6677 11.2507 17.4064 11.12C17.1451 10.98 16.8744 10.91 16.5944 10.91C16.1557 10.91 15.7964 11.064 15.5164 11.372C15.2364 11.68 15.0964 12.0813 15.0964 12.576C15.0964 12.9773 15.1757 13.3133 15.3344 13.584C15.5024 13.8547 15.7124 14.06 15.9644 14.2C16.2164 14.34 16.4824 14.41 16.7624 14.41ZM14.8864 15.488C14.8864 15.712 14.9797 15.88 15.1664 15.992C15.3624 16.0947 15.6191 16.1693 15.9364 16.216C16.2537 16.2533 16.5991 16.2813 16.9724 16.3C17.3551 16.3187 17.7331 16.3513 18.1064 16.398C18.4891 16.4353 18.8391 16.5147 19.1564 16.636C19.4737 16.748 19.7257 16.9207 19.9124 17.154C20.1084 17.3967 20.2064 17.7233 20.2064 18.134C20.2064 18.8993 19.8891 19.506 19.2544 19.954C18.6197 20.4113 17.7657 20.64 16.6924 20.64C16.3844 20.64 16.0577 20.612 15.7124 20.556C15.3764 20.5093 15.0591 20.416 14.7604 20.276C14.4617 20.136 14.2191 19.94 14.0324 19.688C13.8551 19.4453 13.7664 19.128 13.7664 18.736C13.7664 18.3533 13.8831 18.022 14.1164 17.742C14.3497 17.462 14.6671 17.224 15.0684 17.028L15.4884 17.154C15.2551 17.35 15.0964 17.5647 15.0124 17.798C14.9284 18.0407 14.8864 18.2787 14.8864 18.512C14.8864 18.988 15.0497 19.38 15.3764 19.688C15.7124 19.996 16.1977 20.15 16.8324 20.15C17.3177 20.15 17.7611 20.0847 18.1624 19.954C18.5637 19.8327 18.8857 19.646 19.1284 19.394C19.3804 19.1513 19.5064 18.848 19.5064 18.484C19.5064 18.204 19.4084 17.994 19.2124 17.854C19.0164 17.714 18.7551 17.6113 18.4284 17.546C18.1017 17.49 17.7424 17.448 17.3504 17.42C16.9677 17.4013 16.5804 17.3733 16.1884 17.336C15.8057 17.2987 15.4511 17.2333 15.1244 17.14C14.7977 17.0467 14.5364 16.902 14.3404 16.706C14.1444 16.5007 14.0464 16.2207 14.0464 15.866C14.0464 15.4927 14.1444 15.1893 14.3404 14.956C14.5457 14.7227 14.7791 14.536 15.0404 14.396L15.3904 14.578C15.2131 14.718 15.0824 14.872 14.9984 15.04C14.9237 15.208 14.8864 15.3573 14.8864 15.488ZM17.6864 10.672C17.9104 10.2893 18.1811 9.97667 18.4984 9.734C18.8157 9.49133 19.1331 9.37 19.4504 9.37C19.7117 9.37 19.9031 9.44 20.0244 9.58C20.1457 9.72 20.2064 9.87867 20.2064 10.056C20.2064 10.2427 20.1411 10.3967 20.0104 10.518C19.8891 10.6393 19.7444 10.7 19.5764 10.7C19.3991 10.7 19.2497 10.6393 19.1284 10.518C19.0071 10.3967 18.9464 10.2473 18.9464 10.07C18.9464 9.99533 18.9651 9.91133 19.0024 9.818C19.0491 9.72467 19.1004 9.65 19.1564 9.594L19.1424 9.972C18.9931 10.0187 18.8251 10.1213 18.6384 10.28C18.4517 10.4387 18.2744 10.6673 18.1064 10.966L17.6864 10.672Z" fill="#888888"/>
</svg>
