<svg width="24" height="24" viewBox="0 0 24 24" fill="none" xmlns="http://www.w3.org/2000/svg">
<path d="M6.7192 17H3.9192L3.9892 16.51H4.8012L9.5612 7.62H10.5552L12.7112 16.51H13.6072L13.5372 17H9.8552L9.9252 16.51H10.8072L10.9052 16.412L9.2952 9.468H9.2252L5.5292 16.412L5.6412 16.51H6.7892L6.7192 17ZM6.7332 13.276H11.2972L11.2272 13.766H6.6632L6.7332 13.276ZM13.9085 18.946C13.9085 18.6473 13.9925 18.3953 14.1605 18.19C14.3379 17.994 14.5479 17.896 14.7905 17.896C14.9865 17.896 15.1452 17.9567 15.2665 18.078C15.3972 18.2087 15.4625 18.3813 15.4625 18.596C15.4625 18.8387 15.3879 19.058 15.2385 19.254C15.0985 19.45 14.9165 19.5667 14.6925 19.604C14.8232 19.772 15.0052 19.9027 15.2385 19.996C15.4812 20.0987 15.7612 20.15 16.0785 20.15C16.5919 20.15 17.0212 20.0193 17.3665 19.758C17.7212 19.4967 18.0059 19.128 18.2205 18.652C18.4445 18.1853 18.5985 17.63 18.6825 16.986L18.7945 16.132C18.5892 16.44 18.3185 16.6873 17.9825 16.874C17.6465 17.0513 17.2779 17.14 16.8765 17.14C16.4285 17.14 16.0225 17.0327 15.6585 16.818C15.2945 16.594 15.0052 16.2673 14.7905 15.838C14.5852 15.4087 14.4825 14.872 14.4825 14.228C14.4825 13.64 14.5712 13.108 14.7485 12.632C14.9352 12.1467 15.1779 11.7313 15.4765 11.386C15.7845 11.0313 16.1252 10.7607 16.4985 10.574C16.8812 10.3873 17.2685 10.294 17.6605 10.294C17.9685 10.294 18.2439 10.35 18.4865 10.462C18.7385 10.574 18.9532 10.7327 19.1305 10.938C19.3079 11.1433 19.4339 11.386 19.5085 11.666L20.1665 10.434H21.0485L20.1245 17.056C20.0592 17.5227 19.9332 17.9707 19.7465 18.4C19.5692 18.8293 19.3265 19.212 19.0185 19.548C18.7105 19.884 18.3372 20.15 17.8985 20.346C17.4599 20.542 16.9465 20.64 16.3585 20.64C15.8172 20.64 15.3645 20.5607 15.0005 20.402C14.6365 20.2433 14.3612 20.0333 14.1745 19.772C13.9972 19.5107 13.9085 19.2353 13.9085 18.946ZM16.0925 14.368C16.0925 15.068 16.1999 15.5907 16.4145 15.936C16.6385 16.272 16.9325 16.44 17.2965 16.44C17.6885 16.44 18.0292 16.2813 18.3185 15.964C18.6079 15.6373 18.8365 15.2173 19.0045 14.704C19.1725 14.1907 19.2565 13.6447 19.2565 13.066C19.2565 12.3567 19.1352 11.834 18.8925 11.498C18.6499 11.1527 18.3419 10.98 17.9685 10.98C17.5859 10.98 17.2545 11.1433 16.9745 11.47C16.6945 11.7873 16.4752 12.2027 16.3165 12.716C16.1672 13.2293 16.0925 13.78 16.0925 14.368Z" fill="#888888"/>
</svg>
