<svg width="24" height="24" viewBox="0 0 24 24" fill="none" xmlns="http://www.w3.org/2000/svg">
<path d="M4.85108 11.5511V11.9663H10.0737V11.5511C10.0737 11.3101 10.0514 11.0869 10.0067 10.8816C9.97103 10.6762 9.92192 10.4843 9.85943 10.3057L8.93543 8.12296C8.83723 7.89084 8.73456 7.6989 8.62743 7.54713C8.5203 7.38644 8.34175 7.30609 8.09178 7.30609H6.77943C6.51161 7.30609 6.32413 7.38644 6.217 7.54713C6.10987 7.6989 6.01166 7.88638 5.92239 8.10957L5.06535 10.3057C5.00285 10.4843 4.94929 10.6762 4.90465 10.8816C4.86894 11.0869 4.85108 11.3101 4.85108 11.5511ZM6.99369 8.77913C7.0294 8.69878 7.06511 8.64075 7.10082 8.60504C7.14546 8.56933 7.19456 8.55148 7.24813 8.55148H7.58291C7.63648 8.55148 7.68111 8.56933 7.71682 8.60504C7.76146 8.64075 7.80163 8.69878 7.83734 8.77913L8.46674 10.8146H6.3643L6.99369 8.77913ZM10.0737 14.4035V12.1002H4.85108V14.4035H4.71717V11.5511C4.71717 11.3012 4.73503 11.0735 4.77074 10.8682C4.81537 10.6539 4.8734 10.4486 4.94482 10.2522L5.80187 8.056C5.90007 7.80603 6.01166 7.59623 6.13665 7.42661C6.26163 7.25699 6.4759 7.17217 6.77943 7.17217H8.09178C8.38639 7.17217 8.59172 7.25699 8.70778 7.42661C8.83276 7.59623 8.94882 7.81049 9.05595 8.06939L9.97995 10.2522C10.0514 10.4486 10.1049 10.6539 10.1406 10.8682C10.1853 11.0735 10.2076 11.3012 10.2076 11.5511V14.4035H10.0737ZM6.23039 15.1266V13.2518H8.60065V15.1266C8.60065 15.2962 8.64082 15.4212 8.72117 15.5016C8.81045 15.573 8.94436 15.6087 9.12291 15.6087H11.145C11.3146 15.6087 11.4351 15.573 11.5066 15.5016C11.5869 15.4212 11.6271 15.2962 11.6271 15.1266V11.5913C11.6271 11.3235 11.5824 11.0155 11.4932 10.6673C11.4128 10.3191 11.2834 9.91293 11.1048 9.4487L9.93978 6.40887C9.88621 6.2571 9.8014 6.14551 9.68534 6.07409C9.57821 6.00267 9.43984 5.96696 9.27021 5.96696H5.66795C5.4894 5.96696 5.3421 6.00267 5.22604 6.07409C5.11891 6.14551 5.03856 6.2571 4.985 6.40887L3.81995 9.4487C3.6414 9.91293 3.50749 10.3191 3.41821 10.6673C3.33787 11.0155 3.29769 11.3235 3.29769 11.5913V15.1266C3.29769 15.2962 3.3334 15.4212 3.40482 15.5016C3.48517 15.573 3.61016 15.6087 3.77978 15.6087H5.7483C5.91792 15.6087 6.03845 15.573 6.10987 15.5016C6.19021 15.4212 6.23039 15.2962 6.23039 15.1266ZM4.43595 17.0683C4.40024 17.1041 4.34221 17.1353 4.26187 17.1621C4.19045 17.1889 4.1101 17.2023 4.02082 17.2023H2.0523C1.83804 17.2023 1.68181 17.1532 1.58361 17.055C1.4854 16.9568 1.4363 16.8005 1.4363 16.5863V13.051C1.4363 12.7742 1.47648 12.4617 1.55682 12.1136C1.6461 11.7565 1.78448 11.3369 1.97195 10.8548L3.12361 7.82835C3.15039 7.748 3.18163 7.68104 3.21734 7.62748C3.26198 7.56499 3.30662 7.51142 3.35126 7.46678L3.36465 7.45339L5.07874 6.02052C5.15016 5.95803 5.23497 5.91339 5.33317 5.88661C5.43137 5.8509 5.54297 5.83304 5.66795 5.83304H9.27021C9.47555 5.83304 9.64071 5.87768 9.76569 5.96696C9.89961 6.0473 9.99781 6.17675 10.0603 6.3553L11.2253 9.39513C11.4128 9.87722 11.5467 10.2968 11.6271 10.6539C11.7164 11.0021 11.761 11.3146 11.761 11.5913V15.1266C11.761 15.2427 11.7431 15.3409 11.7074 15.4212C11.6806 15.5016 11.636 15.5685 11.5735 15.6221L9.83265 17.0683C9.79694 17.1041 9.73891 17.1353 9.65856 17.1621C9.58714 17.1889 9.50679 17.2023 9.41752 17.2023H7.39543C7.17224 17.2023 7.00708 17.1487 6.89995 17.0416C6.79282 16.9434 6.73926 16.7916 6.73926 16.5863V14.8454H6.3643V15.1266C6.3643 15.2427 6.34645 15.3409 6.31074 15.4212C6.28395 15.5016 6.23932 15.5685 6.17682 15.6221L4.43595 17.0683ZM20.2521 17.2023H16.0339C14.8644 17.2023 13.9984 16.8987 13.436 16.2917C12.8824 15.6846 12.6057 14.899 12.6057 13.9348V10.1584C12.6057 9.66742 12.6771 9.24336 12.82 8.88626C12.9628 8.52916 13.1726 8.23009 13.4493 7.98904L15.1768 6.52939C15.4536 6.29728 15.8062 6.12319 16.2347 6.00713C16.6722 5.89107 17.1811 5.83304 17.7613 5.83304H21.1092C21.3234 5.83304 21.4797 5.88215 21.5779 5.98035C21.6761 6.07855 21.7252 6.23478 21.7252 6.44904V8.06939C21.7252 8.18545 21.7073 8.28365 21.6716 8.364C21.6448 8.44435 21.6002 8.5113 21.5377 8.56487L19.7968 10.0111C19.7611 10.0468 19.7031 10.0781 19.6227 10.1049C19.5513 10.1317 19.471 10.145 19.3817 10.145H17.6408V12.0734C17.6498 12.0555 17.6631 12.0377 17.681 12.0198C17.7078 11.993 17.7301 11.9707 17.748 11.9529L19.4754 10.4932C19.5201 10.4575 19.5781 10.4307 19.6495 10.4129C19.7299 10.3861 19.8147 10.3727 19.904 10.3727H21.9796C22.1939 10.3727 22.3501 10.4218 22.4483 10.52C22.5465 10.6182 22.5956 10.7744 22.5956 10.9887V15.1266C22.5956 15.2427 22.5778 15.3409 22.542 15.4212C22.5153 15.5016 22.4706 15.5685 22.4081 15.6221L20.6673 17.0683C20.6316 17.1041 20.5735 17.1353 20.4932 17.1621C20.4218 17.1889 20.3414 17.2023 20.2521 17.2023ZM21.9796 15.6087C22.1492 15.6087 22.2698 15.573 22.3412 15.5016C22.4215 15.4212 22.4617 15.2962 22.4617 15.1266V10.9887C22.4617 10.8191 22.4215 10.6986 22.3412 10.6271C22.2698 10.5468 22.1492 10.5066 21.9796 10.5066H19.904C19.7343 10.5066 19.6093 10.5468 19.529 10.6271C19.4576 10.6986 19.4219 10.8191 19.4219 10.9887V13.0777H18.1229C17.9176 13.0777 17.7613 13.0242 17.6542 12.917C17.556 12.8099 17.5069 12.6448 17.5069 12.4216V9.22104C17.5069 8.99786 17.5739 8.8327 17.7078 8.72557C17.8417 8.60951 18.047 8.55148 18.3238 8.55148H21.1092C21.2788 8.55148 21.3993 8.51577 21.4707 8.44435C21.5511 8.364 21.5913 8.23901 21.5913 8.06939V6.44904C21.5913 6.27942 21.5511 6.1589 21.4707 6.08748C21.3993 6.00713 21.2788 5.96696 21.1092 5.96696H17.7613C16.6454 5.96696 15.8151 6.19015 15.2706 6.63652C14.7349 7.0829 14.4671 7.77032 14.4671 8.69878V12.8769C14.4671 13.8053 14.7349 14.4928 15.2706 14.9391C15.8151 15.3855 16.6454 15.6087 17.7613 15.6087H21.9796ZM18.3372 14.4035C17.8462 14.4035 17.4444 14.3722 17.132 14.3097C16.8195 14.2472 16.574 14.149 16.3954 14.0151C16.2169 13.8723 16.0919 13.6937 16.0205 13.4795C15.958 13.2563 15.9267 12.9885 15.9267 12.676V8.92644C15.9267 8.29258 16.0696 7.84174 16.3553 7.57391C16.6409 7.30609 17.2123 7.17217 18.0693 7.17217H20.386V7.30609H18.0693C17.2837 7.30609 16.7525 7.43107 16.4758 7.68104C16.199 7.92209 16.0607 8.33722 16.0607 8.92644V12.676C16.0607 13.2563 16.2124 13.667 16.516 13.908C16.8284 14.149 17.4355 14.2696 18.3372 14.2696H20.8681V11.7118H21.002V14.4035H18.3372Z" fill="#888888"/>
</svg>
