<svg width="24" height="24" viewBox="0 0 24 24" fill="none" xmlns="http://www.w3.org/2000/svg">
<path d="M10.8027 11.4199C10.8757 11.4199 10.9167 11.4154 10.9258 11.4062C10.9349 11.3971 10.9531 11.3926 10.9805 11.3926C11.0807 11.347 11.1354 11.3242 11.1445 11.3242C11.1536 11.3151 11.1673 11.3014 11.1855 11.2832C11.2585 11.2741 11.3132 11.2513 11.3496 11.2148C11.3861 11.1784 11.4408 11.1556 11.5137 11.1465C11.541 11.1283 11.5592 11.11 11.5684 11.0918C11.5866 11.0645 11.6139 11.0417 11.6504 11.0234C11.7142 10.9414 11.7552 10.8958 11.7734 10.8867C11.7917 10.8685 11.7917 10.8548 11.7734 10.8457C11.8008 10.8275 11.819 10.8092 11.8281 10.791C11.8464 10.7728 11.8691 10.7546 11.8965 10.7363C11.8965 10.6908 11.9056 10.6543 11.9238 10.627C11.9512 10.5905 11.974 10.554 11.9922 10.5176C11.9466 10.39 11.8965 10.3125 11.8418 10.2852C11.7962 10.2578 11.737 10.2487 11.6641 10.2578C11.5273 10.3216 11.4499 10.3945 11.4316 10.4766C11.3496 10.5586 11.2995 10.6087 11.2812 10.627C11.263 10.6361 11.2448 10.6406 11.2266 10.6406C11.181 10.6497 11.14 10.6406 11.1035 10.6133C11.0762 10.5768 11.0397 10.5404 10.9941 10.5039C11.0033 10.4583 11.0169 10.4264 11.0352 10.4082C11.0625 10.39 11.0716 10.3581 11.0625 10.3125C11.1081 10.3034 11.14 10.2533 11.1582 10.1621C11.2311 10.071 11.2721 10.0254 11.2812 10.0254C11.3815 9.94336 11.4453 9.90234 11.4727 9.90234C11.5091 9.90234 11.541 9.88411 11.5684 9.84766C11.6139 9.86589 11.6504 9.87044 11.6777 9.86133C11.7051 9.85221 11.737 9.84766 11.7734 9.84766C11.8008 9.85677 11.8281 9.87044 11.8555 9.88867C11.8919 9.89779 11.9238 9.9069 11.9512 9.91602C12.015 9.96159 12.056 9.98438 12.0742 9.98438C12.0924 9.97526 12.1061 9.97526 12.1152 9.98438C12.1608 10.0117 12.1882 10.0482 12.1973 10.0938C12.2155 10.1393 12.2474 10.1758 12.293 10.2031C12.3203 10.3034 12.3249 10.3672 12.3066 10.3945C12.2975 10.4219 12.293 10.4492 12.293 10.4766C12.293 10.5039 12.293 10.5312 12.293 10.5586C12.3021 10.5768 12.3021 10.5996 12.293 10.627C12.2656 10.6725 12.252 10.709 12.252 10.7363C12.252 10.7546 12.2474 10.7728 12.2383 10.791C12.2292 10.8092 12.2109 10.8275 12.1836 10.8457C12.1562 10.8639 12.1517 10.8913 12.1699 10.9277C12.1243 10.9551 12.0879 10.9961 12.0605 11.0508C12.0423 11.0964 12.0195 11.1374 11.9922 11.1738C11.9375 11.2285 11.8919 11.2604 11.8555 11.2695C11.8372 11.2969 11.819 11.3197 11.8008 11.3379C11.7826 11.3561 11.7643 11.3743 11.7461 11.3926C11.6641 11.429 11.6276 11.4564 11.6367 11.4746C11.6458 11.4928 11.6413 11.5065 11.623 11.5156C11.5046 11.5339 11.4089 11.584 11.3359 11.666C11.2357 11.6842 11.14 11.7161 11.0488 11.7617C10.9668 11.7982 10.8757 11.8255 10.7754 11.8438C10.7298 11.9531 10.707 12.0352 10.707 12.0898C10.707 12.1354 10.7025 12.181 10.6934 12.2266C10.6842 12.2721 10.6706 12.3223 10.6523 12.377C10.6341 12.4225 10.625 12.4681 10.625 12.5137C10.6068 12.623 10.5931 12.7051 10.584 12.7598C10.5749 12.8145 10.5658 12.8691 10.5566 12.9238C10.5475 12.9512 10.543 12.9785 10.543 13.0059C10.543 13.0332 10.5384 13.0697 10.5293 13.1152C10.5202 13.1973 10.5111 13.252 10.502 13.2793C10.4928 13.3066 10.4883 13.3431 10.4883 13.3887C10.4701 13.5254 10.4609 13.6029 10.4609 13.6211C10.4609 13.7122 10.4564 13.7715 10.4473 13.7988C10.4382 13.8262 10.4336 13.8581 10.4336 13.8945C10.4427 13.9674 10.4427 14.013 10.4336 14.0312C10.4245 14.0404 10.4199 14.054 10.4199 14.0723C10.429 14.1178 10.429 14.1634 10.4199 14.209C10.4108 14.2454 10.4062 14.2773 10.4062 14.3047C10.4154 14.4049 10.4245 14.4551 10.4336 14.4551C10.4245 14.5645 10.4199 14.6283 10.4199 14.6465C10.429 14.6556 10.4336 14.6693 10.4336 14.6875C10.4245 14.8151 10.429 14.9017 10.4473 14.9473C10.4655 14.9928 10.4792 15.0384 10.4883 15.084C10.5339 15.1478 10.5566 15.1842 10.5566 15.1934C10.5566 15.2025 10.5612 15.2116 10.5703 15.2207C10.6341 15.321 10.6751 15.3757 10.6934 15.3848C10.7116 15.3848 10.7253 15.3939 10.7344 15.4121C10.7708 15.4303 10.8027 15.4531 10.8301 15.4805C10.8665 15.4987 10.9076 15.5215 10.9531 15.5488C11.0443 15.5853 11.1081 15.599 11.1445 15.5898C11.181 15.5807 11.222 15.5853 11.2676 15.6035C11.2949 15.5944 11.3177 15.5807 11.3359 15.5625C11.3542 15.5443 11.3861 15.5397 11.4316 15.5488C11.4954 15.5124 11.5365 15.485 11.5547 15.4668C11.5729 15.4486 11.5911 15.4303 11.6094 15.4121C11.6276 15.3939 11.6413 15.3757 11.6504 15.3574C11.6686 15.3301 11.696 15.3164 11.7324 15.3164C11.7871 15.2253 11.819 15.1615 11.8281 15.125C11.8372 15.0885 11.86 15.0612 11.8965 15.043C11.9056 14.9974 11.9147 14.9518 11.9238 14.9062C11.9421 14.8516 11.9421 14.8014 11.9238 14.7559C11.8509 14.6738 11.8053 14.6237 11.7871 14.6055C11.778 14.5872 11.7643 14.5736 11.7461 14.5645C11.7005 14.5645 11.6549 14.569 11.6094 14.5781C11.5729 14.5781 11.541 14.5964 11.5137 14.6328C11.5319 14.6966 11.5273 14.7559 11.5 14.8105C11.4727 14.8652 11.4499 14.9199 11.4316 14.9746C11.3861 15.002 11.3314 15.0156 11.2676 15.0156C11.2038 15.0156 11.1673 14.9792 11.1582 14.9062C11.0853 14.8333 11.0579 14.7832 11.0762 14.7559C11.1035 14.7194 11.1217 14.6829 11.1309 14.6465C11.1217 14.6009 11.1217 14.569 11.1309 14.5508C11.14 14.5326 11.1491 14.5143 11.1582 14.4961C11.1764 14.4596 11.1947 14.4232 11.2129 14.3867C11.2402 14.3503 11.263 14.3092 11.2812 14.2637C11.3177 14.2454 11.3542 14.2318 11.3906 14.2227C11.4271 14.2044 11.459 14.1816 11.4863 14.1543C11.5501 14.1634 11.6003 14.1589 11.6367 14.1406C11.6823 14.1224 11.7279 14.1224 11.7734 14.1406C11.8646 14.1862 11.9102 14.2135 11.9102 14.2227C11.9193 14.2318 11.9329 14.2409 11.9512 14.25C12.0423 14.3138 12.097 14.3639 12.1152 14.4004C12.1699 14.4277 12.2064 14.4779 12.2246 14.5508C12.2428 14.6146 12.2702 14.6693 12.3066 14.7148C12.2702 14.7786 12.2702 14.8424 12.3066 14.9062C12.2702 14.9609 12.2565 15.0247 12.2656 15.0977C12.2109 15.1797 12.1699 15.2344 12.1426 15.2617L12.0742 15.4121C12.0378 15.4668 12.0104 15.5124 11.9922 15.5488C11.901 15.6035 11.8464 15.6628 11.8281 15.7266C11.7917 15.7721 11.7598 15.7995 11.7324 15.8086C11.7142 15.8177 11.7005 15.8314 11.6914 15.8496C11.5638 15.877 11.4772 15.9043 11.4316 15.9316C11.3952 15.959 11.3542 15.9772 11.3086 15.9863C11.2083 15.9954 11.1491 16.0046 11.1309 16.0137C11.1126 16.0228 11.0944 16.0228 11.0762 16.0137C10.985 15.9772 10.9258 15.9544 10.8984 15.9453C10.8802 15.9362 10.8711 15.9408 10.8711 15.959C10.7982 15.9225 10.7572 15.8997 10.748 15.8906C10.748 15.8815 10.7389 15.8724 10.7207 15.8633C10.6842 15.8451 10.6478 15.8268 10.6113 15.8086C10.5749 15.7904 10.5384 15.763 10.502 15.7266C10.4473 15.6719 10.4199 15.6309 10.4199 15.6035C10.4199 15.5762 10.4017 15.5625 10.3652 15.5625C10.2923 15.4805 10.2422 15.4167 10.2148 15.3711C10.1966 15.3255 10.1647 15.2936 10.1191 15.2754C10.1009 15.2025 10.0872 15.1523 10.0781 15.125C10.0781 15.0885 10.0781 15.0521 10.0781 15.0156C10.0872 14.9609 10.0872 14.929 10.0781 14.9199C10.069 14.9017 10.0645 14.8835 10.0645 14.8652C10.0645 14.8379 10.0645 14.8151 10.0645 14.7969C10.0736 14.7695 10.0781 14.7422 10.0781 14.7148C10.0781 14.6693 10.0736 14.6328 10.0645 14.6055C10.0553 14.569 10.0508 14.528 10.0508 14.4824C10.0508 14.4368 10.0553 14.3958 10.0645 14.3594C10.0736 14.3138 10.0781 14.2682 10.0781 14.2227C10.0872 14.1771 10.0918 14.127 10.0918 14.0723C10.1009 14.0085 10.1055 13.9492 10.1055 13.8945C10.0964 13.8125 10.0964 13.7578 10.1055 13.7305C10.1146 13.7031 10.1191 13.6758 10.1191 13.6484C10.1465 13.5573 10.1556 13.5026 10.1465 13.4844C10.1465 13.457 10.1465 13.4342 10.1465 13.416C10.1829 13.3249 10.1966 13.2793 10.1875 13.2793C10.1784 13.2793 10.1738 13.2747 10.1738 13.2656C10.1921 13.2018 10.2012 13.1608 10.2012 13.1426C10.2012 13.1152 10.2103 13.0924 10.2285 13.0742C10.2103 12.9922 10.2103 12.9193 10.2285 12.8555C10.2467 12.7917 10.265 12.7188 10.2832 12.6367C10.2832 12.6003 10.2786 12.5638 10.2695 12.5273C10.2695 12.4909 10.2786 12.4499 10.2969 12.4043L10.3516 12.1445C10.3607 12.1172 10.3698 12.0944 10.3789 12.0762C10.3971 12.0488 10.4017 12.0124 10.3926 11.9668C10.3014 11.9486 10.2148 11.9577 10.1328 11.9941C10.0508 12.0306 9.97331 12.0397 9.90039 12.0215C9.88216 12.0306 9.85938 12.0443 9.83203 12.0625C9.8138 12.0807 9.79102 12.0944 9.76367 12.1035C9.73633 12.1126 9.70443 12.1172 9.66797 12.1172C9.64062 12.1172 9.61328 12.1217 9.58594 12.1309C9.53125 12.1491 9.48112 12.1628 9.43555 12.1719C9.4082 12.181 9.38086 12.1901 9.35352 12.1992C9.32617 12.2083 9.30339 12.1947 9.28516 12.1582C9.2487 12.1764 9.20768 12.1855 9.16211 12.1855C9.11654 12.1855 9.07096 12.1901 9.02539 12.1992C8.94336 12.2448 8.88411 12.263 8.84766 12.2539C8.8112 12.2448 8.76107 12.2493 8.69727 12.2676C8.59701 12.2949 8.54232 12.3086 8.5332 12.3086C8.52409 12.2995 8.51042 12.2995 8.49219 12.3086C8.39193 12.3451 8.32357 12.3587 8.28711 12.3496C8.25065 12.3405 8.21875 12.3542 8.19141 12.3906C8.1276 12.3906 8.08659 12.3952 8.06836 12.4043C8.05013 12.4134 8.0319 12.4271 8.01367 12.4453C7.94987 12.4453 7.90885 12.4544 7.89062 12.4727C7.8724 12.4818 7.84961 12.4909 7.82227 12.5C7.69466 12.5182 7.60807 12.541 7.5625 12.5684C7.52604 12.5866 7.4987 12.6048 7.48047 12.623C7.39844 12.623 7.34831 12.6322 7.33008 12.6504C7.32096 12.696 7.32552 12.7415 7.34375 12.7871C7.37109 12.8236 7.38932 12.86 7.39844 12.8965C7.38932 12.9967 7.39844 13.0651 7.42578 13.1016C7.4349 13.1289 7.4349 13.1562 7.42578 13.1836C7.42578 13.2109 7.43034 13.2383 7.43945 13.2656C7.44857 13.293 7.45768 13.3203 7.4668 13.3477C7.47591 13.3659 7.48503 13.3932 7.49414 13.4297C7.49414 13.457 7.48958 13.4844 7.48047 13.5117C7.48047 13.5391 7.48047 13.5618 7.48047 13.5801C7.48047 13.6074 7.48047 13.6393 7.48047 13.6758C7.48047 13.7031 7.48503 13.735 7.49414 13.7715C7.52148 13.8626 7.53516 13.931 7.53516 13.9766C7.53516 14.013 7.54427 14.0495 7.5625 14.0859C7.55339 14.1133 7.54883 14.1361 7.54883 14.1543C7.54883 14.1634 7.54883 14.1908 7.54883 14.2363C7.54883 14.3092 7.55339 14.3503 7.5625 14.3594C7.57161 14.3685 7.57617 14.3776 7.57617 14.3867C7.58529 14.4779 7.58073 14.5645 7.5625 14.6465C7.55339 14.7194 7.55794 14.7923 7.57617 14.8652C7.54883 15.002 7.5306 15.1022 7.52148 15.166C7.52148 15.2207 7.51237 15.2708 7.49414 15.3164C7.48503 15.3893 7.47591 15.4349 7.4668 15.4531C7.4668 15.4622 7.45768 15.4714 7.43945 15.4805C7.43034 15.5716 7.39844 15.6445 7.34375 15.6992C7.28906 15.7448 7.25716 15.8086 7.24805 15.8906C7.22982 15.9544 7.20247 15.9954 7.16602 16.0137C7.12956 16.0319 7.11589 16.0638 7.125 16.1094C7.04297 16.1549 6.98828 16.1868 6.96094 16.2051C6.93359 16.2233 6.91081 16.2552 6.89258 16.3008C6.84701 16.3099 6.81055 16.3236 6.7832 16.3418C6.76497 16.36 6.74219 16.3783 6.71484 16.3965C6.5599 16.4603 6.44141 16.4831 6.35938 16.4648C6.26823 16.4466 6.2181 16.4375 6.20898 16.4375C6.14518 16.4193 6.10417 16.4102 6.08594 16.4102C6.07682 16.4193 6.06315 16.4193 6.04492 16.4102C5.9082 16.3372 5.83984 16.278 5.83984 16.2324C5.75781 16.2051 5.71224 16.1641 5.70312 16.1094L5.55273 15.9727C5.54362 15.9089 5.52995 15.8633 5.51172 15.8359C5.5026 15.7995 5.48893 15.7721 5.4707 15.7539C5.48893 15.6719 5.48893 15.6263 5.4707 15.6172C5.46159 15.599 5.44792 15.5807 5.42969 15.5625C5.39323 15.444 5.37956 15.3848 5.38867 15.3848C5.4069 15.3848 5.41602 15.3757 5.41602 15.3574C5.38867 15.3118 5.375 15.2708 5.375 15.2344C5.375 15.1888 5.36133 15.1432 5.33398 15.0977C5.37044 15.0247 5.375 14.9792 5.34766 14.9609C5.32031 14.9427 5.30664 14.929 5.30664 14.9199C5.31576 14.8379 5.32487 14.7969 5.33398 14.7969C5.3431 14.7878 5.34766 14.7741 5.34766 14.7559C5.34766 14.7285 5.34766 14.6966 5.34766 14.6602C5.33854 14.6237 5.33854 14.5964 5.34766 14.5781C5.36589 14.5326 5.375 14.5007 5.375 14.4824C5.36589 14.4642 5.35677 14.446 5.34766 14.4277C5.35677 14.4095 5.36589 14.3913 5.375 14.373C5.375 14.3457 5.37956 14.3092 5.38867 14.2637C5.39779 14.1908 5.39779 14.1497 5.38867 14.1406C5.38867 14.1315 5.38867 14.1178 5.38867 14.0996C5.42513 13.9902 5.45247 13.9173 5.4707 13.8809C5.48893 13.8353 5.50716 13.7897 5.52539 13.7441C5.58919 13.6439 5.62109 13.5938 5.62109 13.5938C5.65755 13.5391 5.68945 13.5026 5.7168 13.4844C5.74414 13.457 5.75781 13.4251 5.75781 13.3887C5.84896 13.3066 5.89909 13.2565 5.9082 13.2383C5.92643 13.2201 5.94466 13.2064 5.96289 13.1973C6.03581 13.1243 6.07682 13.0879 6.08594 13.0879C6.09505 13.0788 6.10417 13.0742 6.11328 13.0742C6.23177 12.9557 6.35482 12.8691 6.48242 12.8145C6.54622 12.7415 6.57812 12.7142 6.57812 12.7324C6.57812 12.7415 6.58724 12.737 6.60547 12.7188C6.6237 12.6914 6.64193 12.6732 6.66016 12.6641C6.6875 12.6458 6.71029 12.6185 6.72852 12.582C6.77409 12.582 6.80599 12.5684 6.82422 12.541C6.84245 12.5137 6.87891 12.5 6.93359 12.5C6.92448 12.3997 6.91992 12.3496 6.91992 12.3496C6.92904 12.3405 6.93359 12.3314 6.93359 12.3223C6.91536 12.222 6.90625 12.1582 6.90625 12.1309C6.91536 12.1035 6.90169 12.0807 6.86523 12.0625C6.90169 11.9805 6.88346 11.9121 6.81055 11.8574C6.81966 11.7936 6.82422 11.7526 6.82422 11.7344C6.82422 11.7161 6.8151 11.7025 6.79688 11.6934C6.79688 11.6204 6.79688 11.5566 6.79688 11.502C6.80599 11.4473 6.80599 11.3835 6.79688 11.3105C6.78776 11.265 6.77409 11.2285 6.75586 11.2012C6.74674 11.1647 6.74219 11.1237 6.74219 11.0781C6.7513 10.9779 6.74674 10.9004 6.72852 10.8457C6.72852 10.7819 6.72396 10.7454 6.71484 10.7363C6.70573 10.7181 6.71029 10.6999 6.72852 10.6816C6.71029 10.5996 6.69661 10.5404 6.6875 10.5039C6.6875 10.4674 6.69661 10.4264 6.71484 10.3809C6.6875 10.2988 6.67839 10.2396 6.6875 10.2031C6.70573 10.1667 6.71484 10.1348 6.71484 10.1074C6.6875 9.99805 6.67839 9.93424 6.6875 9.91602C6.69661 9.89779 6.70573 9.875 6.71484 9.84766C6.71484 9.7474 6.71029 9.66536 6.70117 9.60156C6.70117 9.53776 6.70573 9.49219 6.71484 9.46484C6.70573 9.3737 6.70117 9.29167 6.70117 9.21875C6.70117 9.13672 6.70117 9.0638 6.70117 9C6.70117 8.97266 6.69661 8.94531 6.6875 8.91797C6.6875 8.89062 6.6875 8.86784 6.6875 8.84961C6.6875 8.82227 6.69206 8.79948 6.70117 8.78125C6.71029 8.75391 6.7194 8.72201 6.72852 8.68555C6.73763 8.63997 6.73763 8.59896 6.72852 8.5625C6.72852 8.51693 6.74219 8.48047 6.76953 8.45312C6.76042 8.38021 6.75586 8.30729 6.75586 8.23438C6.75586 8.15234 6.76953 8.07487 6.79688 8.00195L6.90625 7.79688C6.92448 7.76953 6.92448 7.73763 6.90625 7.70117C6.89714 7.6556 6.90169 7.61003 6.91992 7.56445C6.95638 7.54622 6.97461 7.51432 6.97461 7.46875C6.98372 7.42318 7.00195 7.39128 7.0293 7.37305C7.06576 7.29102 7.08398 7.24544 7.08398 7.23633C7.0931 7.2181 7.10677 7.21354 7.125 7.22266C7.14323 7.16797 7.16602 7.13151 7.19336 7.11328C7.22982 7.08594 7.26628 7.05404 7.30273 7.01758C7.30273 6.94466 7.33464 6.88542 7.39844 6.83984C7.4349 6.76693 7.46224 6.72135 7.48047 6.70312C7.4987 6.6849 7.51693 6.66667 7.53516 6.64844C7.59896 6.55729 7.64453 6.5026 7.67188 6.48438C7.69922 6.45703 7.71745 6.42513 7.72656 6.38867C7.79948 6.33398 7.86328 6.30208 7.91797 6.29297C8.05469 6.21094 8.14128 6.16081 8.17773 6.14258C8.24154 6.08789 8.30078 6.04688 8.35547 6.01953C8.41016 6.0013 8.44661 5.99219 8.46484 5.99219C8.48307 5.98307 8.5013 5.97852 8.51953 5.97852C8.66536 5.95117 8.76107 5.93294 8.80664 5.92383C8.85221 5.91471 8.9069 5.91016 8.9707 5.91016C9.04362 5.8737 9.08464 5.86458 9.09375 5.88281C9.10286 5.90104 9.11654 5.91471 9.13477 5.92383C9.23503 5.92383 9.28516 5.92839 9.28516 5.9375C9.28516 5.94661 9.29427 5.95117 9.3125 5.95117C9.44922 5.99674 9.54948 6.01953 9.61328 6.01953C9.71354 6.07422 9.75911 6.10612 9.75 6.11523C9.74089 6.11523 9.74544 6.11979 9.76367 6.12891C9.82747 6.15625 9.86849 6.18359 9.88672 6.21094C9.90495 6.22917 9.92318 6.2474 9.94141 6.26562C9.99609 6.30208 10.0371 6.33398 10.0645 6.36133C10.11 6.4069 10.151 6.44792 10.1875 6.48438C10.224 6.52083 10.2695 6.54818 10.3242 6.56641C10.3698 6.63021 10.4108 6.67122 10.4473 6.68945C10.4837 6.79883 10.4974 6.85807 10.4883 6.86719C10.4883 6.86719 10.4928 6.8763 10.502 6.89453C10.5111 6.91276 10.5202 6.93555 10.5293 6.96289C10.5475 6.99023 10.5612 7.02214 10.5703 7.05859C10.5794 7.08594 10.584 7.1224 10.584 7.16797C10.5931 7.20443 10.6068 7.24089 10.625 7.27734C10.6432 7.36849 10.6569 7.41862 10.666 7.42773C10.6842 7.43685 10.6842 7.45052 10.666 7.46875C10.6842 7.54167 10.6979 7.5918 10.707 7.61914C10.7253 7.64648 10.7253 7.67383 10.707 7.70117C10.7253 7.81055 10.7389 7.87435 10.748 7.89258C10.7663 7.90169 10.7799 7.91536 10.7891 7.93359C10.7799 7.97005 10.7799 8.00651 10.7891 8.04297C10.7982 8.07031 10.8073 8.10221 10.8164 8.13867C10.8346 8.24805 10.8438 8.30273 10.8438 8.30273C10.8529 8.34831 10.862 8.39844 10.8711 8.45312C10.8802 8.4987 10.8848 8.54883 10.8848 8.60352C10.8939 8.63086 10.8984 8.66276 10.8984 8.69922C10.8984 8.72656 10.8984 8.75391 10.8984 8.78125C10.9349 8.84505 10.9531 8.9043 10.9531 8.95898C10.9714 9.07747 10.985 9.17318 10.9941 9.24609C11.0033 9.3099 10.9941 9.36003 10.9668 9.39648C10.9941 9.43294 11.0033 9.47396 10.9941 9.51953C10.9941 9.55599 11.0078 9.59245 11.0352 9.62891C11.026 9.68359 11.0124 9.73372 10.9941 9.7793C10.985 9.81576 10.9805 9.875 10.9805 9.95703C10.9714 10.0573 10.9714 10.112 10.9805 10.1211C10.9896 10.1302 10.9896 10.1439 10.9805 10.1621C10.9531 10.2441 10.9395 10.2943 10.9395 10.3125C10.9486 10.3672 10.9486 10.4128 10.9395 10.4492C10.9303 10.4857 10.9349 10.5176 10.9531 10.5449C10.9349 10.6087 10.9212 10.6589 10.9121 10.6953C10.903 10.7318 10.8939 10.7728 10.8848 10.8184C10.8848 10.8457 10.8848 10.8776 10.8848 10.9141C10.8939 10.9414 10.8939 10.9688 10.8848 10.9961C10.8665 11.069 10.8574 11.1146 10.8574 11.1328C10.8665 11.1419 10.8665 11.1556 10.8574 11.1738C10.8301 11.2467 10.8164 11.3014 10.8164 11.3379C10.8255 11.3652 10.821 11.3926 10.8027 11.4199ZM7.34375 12.2266C7.4349 12.1992 7.48958 12.181 7.50781 12.1719C7.54427 12.1628 7.57617 12.1536 7.60352 12.1445C7.63086 12.1354 7.66276 12.1309 7.69922 12.1309C7.72656 12.1126 7.75391 12.099 7.78125 12.0898C7.81771 12.0716 7.85417 12.0579 7.89062 12.0488C7.97266 12.0488 8.01367 12.0443 8.01367 12.0352C8.02279 12.026 8.0319 12.0215 8.04102 12.0215C8.15951 11.985 8.23242 11.9668 8.25977 11.9668C8.28711 11.9577 8.31445 11.944 8.3418 11.9258C8.38737 11.944 8.42839 11.9395 8.46484 11.9121C8.5013 11.8848 8.5332 11.8757 8.56055 11.8848C8.61523 11.8757 8.65625 11.8711 8.68359 11.8711C8.72005 11.8711 8.75651 11.862 8.79297 11.8438L9.02539 11.8574C9.08919 11.8392 9.12565 11.8346 9.13477 11.8438C9.14388 11.8438 9.15755 11.8438 9.17578 11.8438C9.25781 11.8073 9.30339 11.7936 9.3125 11.8027C9.32161 11.8027 9.33073 11.8027 9.33984 11.8027C9.42188 11.7936 9.47656 11.7845 9.50391 11.7754C9.54036 11.7572 9.57682 11.7526 9.61328 11.7617C9.64974 11.7253 9.6862 11.7116 9.72266 11.7207C9.76823 11.7207 9.8138 11.7116 9.85938 11.6934C9.92318 11.6569 9.96419 11.6387 9.98242 11.6387C10.0007 11.6387 10.0189 11.6296 10.0371 11.6113C10.1738 11.6022 10.2695 11.5885 10.3242 11.5703C10.3789 11.5521 10.429 11.5384 10.4746 11.5293C10.5202 11.4746 10.5247 11.4062 10.4883 11.3242C10.5156 11.224 10.5247 11.1738 10.5156 11.1738C10.5156 11.1647 10.5202 11.151 10.5293 11.1328C10.5384 11.0234 10.5475 10.9642 10.5566 10.9551C10.5658 10.946 10.5703 10.9368 10.5703 10.9277C10.5521 10.8092 10.5475 10.7409 10.5566 10.7227C10.5749 10.6953 10.5931 10.668 10.6113 10.6406C10.6022 10.5404 10.6022 10.4902 10.6113 10.4902C10.6204 10.4811 10.625 10.4674 10.625 10.4492C10.6341 10.3854 10.6341 10.3353 10.625 10.2988C10.625 10.2624 10.625 10.2396 10.625 10.2305C10.6432 10.1758 10.6478 10.1393 10.6387 10.1211C10.6387 10.1029 10.6387 10.0846 10.6387 10.0664C10.6387 10.0208 10.6432 9.9707 10.6523 9.91602C10.6615 9.85221 10.666 9.79297 10.666 9.73828C10.666 9.66536 10.6569 9.59701 10.6387 9.5332C10.6296 9.46029 10.6387 9.40104 10.666 9.35547C10.6478 9.28255 10.6387 9.21875 10.6387 9.16406C10.6387 9.10938 10.625 9.05469 10.5977 9C10.6068 8.9362 10.6022 8.9043 10.584 8.9043C10.5658 8.89518 10.5612 8.87695 10.5703 8.84961C10.5521 8.72201 10.5475 8.6263 10.5566 8.5625C10.5658 8.4987 10.5612 8.4349 10.543 8.37109C10.5065 8.27995 10.4883 8.22526 10.4883 8.20703C10.4701 8.17969 10.4609 8.1569 10.4609 8.13867C10.4701 8.11133 10.4701 8.07943 10.4609 8.04297C10.4336 7.96094 10.4199 7.91081 10.4199 7.89258C10.429 7.86523 10.4336 7.83789 10.4336 7.81055C10.388 7.62826 10.347 7.50065 10.3105 7.42773C10.2832 7.35482 10.2604 7.26823 10.2422 7.16797C10.1875 7.07682 10.151 7.02669 10.1328 7.01758C10.1146 7.00846 10.0964 6.99935 10.0781 6.99023C10.0872 6.91732 10.069 6.87174 10.0234 6.85352C9.98698 6.82617 9.95508 6.79427 9.92773 6.75781C9.89128 6.67578 9.85938 6.62565 9.83203 6.60742C9.8138 6.58008 9.79102 6.55273 9.76367 6.52539C9.73633 6.50716 9.70898 6.48893 9.68164 6.4707C9.66341 6.45247 9.64518 6.43424 9.62695 6.41602C9.54492 6.4069 9.49935 6.39323 9.49023 6.375C9.48112 6.34766 9.46745 6.32943 9.44922 6.32031C9.15755 6.23828 8.94336 6.21094 8.80664 6.23828L8.60156 6.29297C8.49219 6.33854 8.42383 6.37044 8.39648 6.38867C8.37826 6.39779 8.36003 6.4069 8.3418 6.41602C8.24154 6.48893 8.17773 6.53451 8.15039 6.55273C8.13216 6.57096 8.10938 6.58008 8.08203 6.58008C8.07292 6.61654 8.05013 6.64388 8.01367 6.66211C7.98633 6.68034 7.95898 6.69857 7.93164 6.7168C7.91341 6.73503 7.89518 6.75781 7.87695 6.78516C7.85872 6.8125 7.83138 6.83073 7.79492 6.83984C7.73112 6.91276 7.6901 6.96289 7.67188 6.99023C7.66276 7.01758 7.63997 7.03581 7.60352 7.04492C7.57617 7.09961 7.54883 7.1543 7.52148 7.20898C7.49414 7.25456 7.45312 7.29102 7.39844 7.31836L7.23438 7.6875C7.21615 7.80599 7.19336 7.87435 7.16602 7.89258C7.14779 7.90169 7.14779 7.91536 7.16602 7.93359C7.14779 7.9974 7.12956 8.05664 7.11133 8.11133C7.0931 8.1569 7.0931 8.20703 7.11133 8.26172C7.0931 8.27995 7.08398 8.30729 7.08398 8.34375C7.0931 8.37109 7.0931 8.40299 7.08398 8.43945C7.08398 8.47591 7.07943 8.51237 7.07031 8.54883C7.0612 8.57617 7.05664 8.60352 7.05664 8.63086C7.06576 8.72201 7.0612 8.78581 7.04297 8.82227C7.03385 8.89518 7.03841 8.96354 7.05664 9.02734C7.07487 9.08203 7.07943 9.11849 7.07031 9.13672C7.05208 9.21875 7.04753 9.27344 7.05664 9.30078C7.06576 9.32812 7.06576 9.35547 7.05664 9.38281C7.06576 9.57422 7.06576 9.72005 7.05664 9.82031C7.03841 9.90234 7.0293 9.95703 7.0293 9.98438C7.03841 10.0117 7.04297 10.0345 7.04297 10.0527C7.04297 10.0983 7.03841 10.1439 7.0293 10.1895C7.02018 10.2259 7.02474 10.2669 7.04297 10.3125C7.02474 10.4219 7.02018 10.4857 7.0293 10.5039C7.04753 10.513 7.05664 10.5267 7.05664 10.5449C7.07487 10.6452 7.07943 10.7181 7.07031 10.7637C7.07031 10.8001 7.07031 10.8503 7.07031 10.9141C7.09766 10.9505 7.11133 10.9915 7.11133 11.0371C7.12044 11.0827 7.125 11.1283 7.125 11.1738C7.14323 11.2741 7.14779 11.3242 7.13867 11.3242C7.12956 11.3242 7.125 11.3333 7.125 11.3516C7.14323 11.4427 7.1569 11.5293 7.16602 11.6113C7.17513 11.6934 7.17969 11.7572 7.17969 11.8027C7.19792 11.8939 7.20703 11.9577 7.20703 11.9941C7.20703 12.0215 7.21159 12.0443 7.2207 12.0625C7.23893 12.0807 7.2526 12.1126 7.26172 12.1582C7.27995 12.1947 7.29362 12.2311 7.30273 12.2676L7.34375 12.2266ZM6.96094 12.8965C6.91536 12.9421 6.85612 12.9785 6.7832 13.0059C6.7194 13.0332 6.66927 13.0742 6.63281 13.1289C6.58724 13.1289 6.55534 13.1426 6.53711 13.1699C6.52799 13.1973 6.50521 13.2155 6.46875 13.2246C6.38672 13.2793 6.33659 13.3294 6.31836 13.375C6.30013 13.4115 6.25911 13.4297 6.19531 13.4297C6.1224 13.5026 6.08138 13.5482 6.07227 13.5664C6.06315 13.5846 6.04948 13.5938 6.03125 13.5938C5.98568 13.6849 5.95378 13.7441 5.93555 13.7715C5.91732 13.7897 5.89909 13.8079 5.88086 13.8262C5.82617 13.9082 5.79883 13.9674 5.79883 14.0039C5.79883 14.0404 5.78516 14.0632 5.75781 14.0723C5.73958 14.1816 5.72591 14.2728 5.7168 14.3457C5.70768 14.4186 5.70312 14.4961 5.70312 14.5781C5.69401 14.6146 5.68945 14.6556 5.68945 14.7012C5.69857 14.7376 5.70312 14.765 5.70312 14.7832C5.70312 14.8014 5.69857 14.8288 5.68945 14.8652C5.68945 14.9017 5.69857 14.929 5.7168 14.9473C5.70768 15.0293 5.70768 15.084 5.7168 15.1113C5.72591 15.1296 5.72591 15.1615 5.7168 15.207C5.73503 15.2253 5.74414 15.248 5.74414 15.2754C5.75326 15.3027 5.76693 15.3301 5.78516 15.3574C5.7487 15.4395 5.75326 15.5124 5.79883 15.5762C5.8444 15.6309 5.8763 15.6947 5.89453 15.7676C5.96745 15.8678 6.00391 15.9271 6.00391 15.9453C6.01302 15.9635 6.02669 15.9818 6.04492 16C6.11784 16.0365 6.19076 16.0638 6.26367 16.082C6.30924 16.0729 6.34115 16.0729 6.35938 16.082C6.3776 16.0911 6.39583 16.1003 6.41406 16.1094C6.48698 16.1003 6.53255 16.0866 6.55078 16.0684C6.56901 16.0592 6.58724 16.0638 6.60547 16.082C6.66927 16.0091 6.71029 15.9681 6.72852 15.959C6.74674 15.9408 6.76497 15.9225 6.7832 15.9043C6.81055 15.8861 6.83789 15.8678 6.86523 15.8496C6.89258 15.7949 6.90625 15.7585 6.90625 15.7402C6.91536 15.7129 6.93359 15.7083 6.96094 15.7266C6.98828 15.6536 7.00651 15.6172 7.01562 15.6172C7.02474 15.6081 7.0293 15.599 7.0293 15.5898C7.0931 15.4896 7.12044 15.4258 7.11133 15.3984C7.11133 15.3711 7.12044 15.3574 7.13867 15.3574C7.17513 15.2389 7.1888 15.1432 7.17969 15.0703C7.17969 14.9883 7.17969 14.9108 7.17969 14.8379C7.1888 14.8105 7.19336 14.7832 7.19336 14.7559C7.19336 14.7285 7.19336 14.7057 7.19336 14.6875C7.21159 14.651 7.21615 14.6191 7.20703 14.5918C7.20703 14.5645 7.20247 14.528 7.19336 14.4824C7.19336 14.4368 7.19792 14.3913 7.20703 14.3457C7.21615 14.291 7.2207 14.2363 7.2207 14.1816C7.21159 14.1543 7.20247 14.127 7.19336 14.0996C7.18424 14.0632 7.17513 14.0312 7.16602 14.0039C7.1569 13.9492 7.15234 13.8945 7.15234 13.8398C7.15234 13.7852 7.14779 13.735 7.13867 13.6895C7.12044 13.5801 7.11133 13.5163 7.11133 13.498C7.12044 13.4798 7.12044 13.4616 7.11133 13.4434C7.0931 13.3704 7.08398 13.3294 7.08398 13.3203C7.0931 13.3021 7.0931 13.2839 7.08398 13.2656C7.07487 13.1654 7.06576 13.0924 7.05664 13.0469C7.04753 13.0013 7.03385 12.9557 7.01562 12.9102L6.96094 12.8965ZM16.2168 12.3086C16.2806 12.2904 16.3262 12.2585 16.3535 12.2129C16.39 12.1673 16.4492 12.14 16.5312 12.1309C16.6042 12.0853 16.6543 12.0716 16.6816 12.0898C16.709 12.1081 16.7363 12.1081 16.7637 12.0898C16.791 12.1081 16.8138 12.1263 16.832 12.1445C16.8594 12.1628 16.8867 12.1764 16.9141 12.1855C16.9323 12.2311 16.9551 12.2676 16.9824 12.2949C17.0189 12.3132 17.0508 12.3359 17.0781 12.3633C17.151 12.4727 17.1829 12.5365 17.1738 12.5547C17.2285 12.6641 17.2513 12.7461 17.2422 12.8008C17.2331 12.8555 17.2422 12.8965 17.2695 12.9238C17.2513 12.9512 17.2331 13.0013 17.2148 13.0742C17.1966 13.1107 17.1875 13.1517 17.1875 13.1973C17.1875 13.2428 17.1829 13.2884 17.1738 13.334C17.1374 13.4251 17.11 13.4707 17.0918 13.4707C17.0645 13.5527 17.0508 13.612 17.0508 13.6484C17.0143 13.7669 16.987 13.8398 16.9688 13.8672C16.9596 13.8945 16.9551 13.931 16.9551 13.9766C16.9186 14.013 16.8867 14.0768 16.8594 14.168C16.8138 14.2318 16.7819 14.2819 16.7637 14.3184C16.7454 14.3457 16.7272 14.3776 16.709 14.4141C16.6543 14.5326 16.6133 14.5918 16.5859 14.5918C16.5768 14.6374 16.5677 14.6784 16.5586 14.7148C16.5495 14.7513 16.5449 14.7923 16.5449 14.8379C16.554 14.9382 16.5632 14.9928 16.5723 15.002C16.5723 15.084 16.5768 15.1387 16.5859 15.166C16.6042 15.1934 16.6133 15.2161 16.6133 15.2344L16.627 15.3848C16.6452 15.4303 16.6589 15.4622 16.668 15.4805C16.6862 15.4896 16.6999 15.5033 16.709 15.5215C16.7272 15.5488 16.7363 15.5762 16.7363 15.6035C16.7363 15.6309 16.7454 15.6582 16.7637 15.6855C16.7637 15.7676 16.7682 15.8177 16.7773 15.8359C16.7865 15.8451 16.7956 15.8587 16.8047 15.877C16.8229 15.9043 16.8275 15.9362 16.8184 15.9727C16.8184 16 16.8275 16.0228 16.8457 16.041C16.8366 16.0957 16.8366 16.1595 16.8457 16.2324C16.8548 16.3053 16.8685 16.3691 16.8867 16.4238C16.8776 16.515 16.8776 16.5742 16.8867 16.6016C16.9049 16.6289 16.9141 16.6562 16.9141 16.6836C16.9232 16.7292 16.9186 16.7884 16.9004 16.8613C16.9004 16.9069 16.9004 16.9434 16.9004 16.9707C16.9095 17.0072 16.9141 17.0436 16.9141 17.0801C16.9049 17.1803 16.9049 17.2305 16.9141 17.2305C16.9232 17.2396 16.9277 17.2533 16.9277 17.2715C16.9186 17.3262 16.9186 17.3581 16.9277 17.3672C16.9368 17.3854 16.9414 17.4036 16.9414 17.4219C16.9232 17.513 16.9141 17.5632 16.9141 17.5723C16.9232 17.5905 16.9277 17.6087 16.9277 17.627C16.9186 17.7181 16.9141 17.7682 16.9141 17.7773C16.9049 17.8411 16.8913 17.8913 16.873 17.9277C16.8639 17.9642 16.8594 17.9961 16.8594 18.0234C16.8685 18.0508 16.8594 18.0736 16.832 18.0918C16.8138 18.1738 16.8001 18.224 16.791 18.2422C16.7819 18.2604 16.7773 18.2878 16.7773 18.3242C16.7227 18.4245 16.6862 18.5065 16.668 18.5703C16.6497 18.6432 16.6361 18.7116 16.627 18.7754C16.5723 18.8483 16.5312 18.903 16.5039 18.9395C16.4766 18.985 16.472 19.0215 16.4902 19.0488C16.4355 19.1309 16.3991 19.1764 16.3809 19.1855C16.3626 19.1947 16.3535 19.2129 16.3535 19.2402C16.3171 19.2676 16.2852 19.2949 16.2578 19.3223C16.2396 19.3587 16.2168 19.3906 16.1895 19.418C16.1621 19.4909 16.1393 19.5365 16.1211 19.5547L15.957 19.7188C15.875 19.8281 15.8294 19.8919 15.8203 19.9102C15.7747 19.9102 15.7428 19.9147 15.7246 19.9238C15.7155 19.9421 15.6973 19.9512 15.6699 19.9512C15.5879 20.0059 15.5469 20.0423 15.5469 20.0605L15.3965 20.0742C15.3053 20.1107 15.2598 20.1243 15.2598 20.1152C15.2598 20.1152 15.2552 20.1152 15.2461 20.1152C15.1276 20.1243 15.0365 20.1335 14.9727 20.1426C14.9089 20.1517 14.8496 20.1517 14.7949 20.1426C14.7493 20.1243 14.7129 20.1152 14.6855 20.1152C14.6582 20.1243 14.6263 20.1289 14.5898 20.1289C14.5169 20.1289 14.4759 20.1243 14.4668 20.1152C14.4577 20.1061 14.444 20.1016 14.4258 20.1016C14.3802 20.0924 14.3438 20.0879 14.3164 20.0879C14.2891 20.097 14.2572 20.1016 14.2207 20.1016C14.1934 20.0833 14.166 20.0651 14.1387 20.0469C14.1204 20.0378 14.0885 20.0332 14.043 20.0332C14.0247 20.015 14.002 19.9922 13.9746 19.9648C13.9564 19.9466 13.9245 19.9375 13.8789 19.9375C13.8698 19.9102 13.8561 19.8874 13.8379 19.8691C13.8197 19.8509 13.8014 19.8327 13.7832 19.8145C13.7194 19.7415 13.6829 19.7051 13.6738 19.7051C13.61 19.6139 13.569 19.5501 13.5508 19.5137C13.5143 19.4954 13.487 19.4635 13.4688 19.418C13.4505 19.3815 13.4277 19.3542 13.4004 19.3359C13.3822 19.263 13.3685 19.1901 13.3594 19.1172C13.3503 19.0534 13.3229 18.9987 13.2773 18.9531C13.2591 18.8529 13.2546 18.7982 13.2637 18.7891C13.2728 18.7891 13.2819 18.7799 13.291 18.7617C13.2728 18.625 13.2728 18.4883 13.291 18.3516C13.3184 18.2148 13.3457 18.0827 13.373 17.9551C13.4277 17.8092 13.4779 17.7181 13.5234 17.6816C13.569 17.6452 13.5964 17.5905 13.6055 17.5176C13.651 17.4993 13.6784 17.4674 13.6875 17.4219C13.6966 17.3854 13.724 17.3581 13.7695 17.3398C13.7786 17.3034 13.7923 17.276 13.8105 17.2578C13.8288 17.2396 13.847 17.2168 13.8652 17.1895C13.9382 17.1165 13.9837 17.0801 14.002 17.0801C14.1022 17.0163 14.1569 16.9889 14.166 16.998C14.1751 17.0072 14.1934 17.0072 14.2207 16.998C14.3118 16.9525 14.3665 16.9297 14.3848 16.9297C14.403 16.9297 14.4167 16.916 14.4258 16.8887C14.4987 16.9069 14.5534 16.916 14.5898 16.916C14.6445 16.9342 14.6947 16.9388 14.7402 16.9297C14.7949 16.9297 14.8451 16.9342 14.8906 16.9434C14.9362 16.9798 14.9772 17.0072 15.0137 17.0254C15.0501 17.0436 15.0775 17.071 15.0957 17.1074C15.1595 17.1348 15.2005 17.1576 15.2188 17.1758C15.237 17.194 15.2552 17.2122 15.2734 17.2305C15.3464 17.2943 15.3919 17.3353 15.4102 17.3535C15.4284 17.3717 15.4466 17.4036 15.4648 17.4492C15.4831 17.4857 15.4922 17.5176 15.4922 17.5449C15.4922 17.5814 15.5013 17.6224 15.5195 17.668C15.5469 17.75 15.5605 17.8001 15.5605 17.8184C15.5605 17.8457 15.5651 17.8685 15.5742 17.8867C15.5742 17.9323 15.5742 17.9824 15.5742 18.0371C15.5742 18.1009 15.5651 18.151 15.5469 18.1875C15.5104 18.2148 15.4876 18.2376 15.4785 18.2559C15.4694 18.2741 15.4512 18.2878 15.4238 18.2969C15.3874 18.3607 15.36 18.3971 15.3418 18.4062C15.3236 18.4245 15.3053 18.4427 15.2871 18.4609C15.1868 18.5521 15.0911 18.6478 15 18.748C14.9544 18.7389 14.918 18.7435 14.8906 18.7617C14.8633 18.7891 14.8359 18.7936 14.8086 18.7754C14.6901 18.7845 14.6263 18.7708 14.6172 18.7344C14.6081 18.6979 14.5944 18.6706 14.5762 18.6523C14.5853 18.6068 14.5944 18.5658 14.6035 18.5293C14.6126 18.502 14.6081 18.4655 14.5898 18.4199C14.6901 18.3652 14.7539 18.3333 14.7812 18.3242C14.8086 18.3242 14.8314 18.3242 14.8496 18.3242C14.9316 18.2969 14.9818 18.2695 15 18.2422C15.0182 18.224 15.041 18.2057 15.0684 18.1875C15.1322 18.0234 15.1504 17.9141 15.123 17.8594C15.0957 17.8047 15.0866 17.7318 15.0957 17.6406C15.0775 17.6133 15.0592 17.5905 15.041 17.5723C15.0228 17.554 15.0046 17.5312 14.9863 17.5039C14.9225 17.4492 14.8724 17.4128 14.8359 17.3945C14.8086 17.3763 14.7858 17.3581 14.7676 17.3398C14.722 17.3581 14.6673 17.3626 14.6035 17.3535C14.5488 17.3444 14.4987 17.3353 14.4531 17.3262C14.3711 17.3444 14.321 17.3581 14.3027 17.3672C14.2845 17.3854 14.2663 17.3991 14.248 17.4082C14.1387 17.4993 14.084 17.554 14.084 17.5723C14.0111 17.5905 13.9655 17.627 13.9473 17.6816C13.929 17.7454 13.8926 17.791 13.8379 17.8184C13.8105 17.9277 13.7786 17.9915 13.7422 18.0098C13.7422 18.0645 13.7331 18.1055 13.7148 18.1328C13.6966 18.1693 13.6921 18.2148 13.7012 18.2695C13.6921 18.3789 13.6784 18.4564 13.6602 18.502C13.651 18.5475 13.6419 18.5977 13.6328 18.6523C13.6602 18.6888 13.6693 18.7298 13.6602 18.7754C13.6602 18.821 13.6647 18.8665 13.6738 18.9121C13.6829 18.9486 13.6966 18.9805 13.7148 19.0078C13.7331 19.0352 13.7376 19.0671 13.7285 19.1035C13.7832 19.2129 13.8197 19.2721 13.8379 19.2812C13.8652 19.2995 13.8789 19.3314 13.8789 19.377C13.9792 19.4316 14.0339 19.4681 14.043 19.4863C14.0521 19.5046 14.0749 19.5137 14.1113 19.5137C14.1204 19.5592 14.1478 19.6048 14.1934 19.6504C14.2207 19.6595 14.248 19.6686 14.2754 19.6777C14.3027 19.6868 14.3255 19.7005 14.3438 19.7188C14.3711 19.7005 14.3984 19.7005 14.4258 19.7188C14.4622 19.737 14.4987 19.7461 14.5352 19.7461C14.5625 19.7461 14.5898 19.7415 14.6172 19.7324C14.6536 19.7324 14.681 19.7461 14.6992 19.7734C14.7721 19.7461 14.8496 19.7461 14.9316 19.7734C15.0137 19.8008 15.0911 19.7917 15.1641 19.7461C15.3008 19.7005 15.3919 19.6732 15.4375 19.6641C15.4831 19.6549 15.5195 19.6276 15.5469 19.582C15.6471 19.5273 15.7201 19.4772 15.7656 19.4316C15.8112 19.3861 15.8385 19.3177 15.8477 19.2266C15.9115 19.2266 15.9388 19.2129 15.9297 19.1855C15.9297 19.1582 15.9388 19.1354 15.957 19.1172C16.0026 19.1172 16.0299 19.099 16.0391 19.0625C16.0482 19.0352 16.0664 19.0124 16.0938 18.9941C16.1302 18.9121 16.153 18.8529 16.1621 18.8164C16.1803 18.7891 16.1986 18.7663 16.2168 18.748C16.235 18.6569 16.2487 18.5977 16.2578 18.5703C16.2669 18.543 16.2852 18.5293 16.3125 18.5293C16.3125 18.4928 16.3171 18.4655 16.3262 18.4473C16.3444 18.4382 16.349 18.4108 16.3398 18.3652C16.3672 18.347 16.3854 18.3197 16.3945 18.2832C16.4128 18.2467 16.431 18.2103 16.4492 18.1738C16.4857 18.0553 16.4993 17.9915 16.4902 17.9824C16.4811 17.9824 16.472 17.9733 16.4629 17.9551C16.4993 17.8275 16.5312 17.7363 16.5586 17.6816C16.5312 17.6361 16.5176 17.5859 16.5176 17.5312C16.5267 17.4857 16.5312 17.431 16.5312 17.3672C16.5312 17.3307 16.5267 17.2988 16.5176 17.2715C16.5176 17.2441 16.5176 17.2122 16.5176 17.1758C16.5267 17.0938 16.5221 17.0391 16.5039 17.0117C16.4948 16.9935 16.4993 16.9753 16.5176 16.957C16.5085 16.7747 16.4993 16.6243 16.4902 16.5059C16.4811 16.3874 16.4538 16.278 16.4082 16.1777C16.4082 16.0775 16.3945 15.9909 16.3672 15.918C16.3398 15.8359 16.3125 15.7539 16.2852 15.6719C16.2487 15.5169 16.2259 15.4258 16.2168 15.3984C16.2077 15.362 16.194 15.321 16.1758 15.2754C16.0938 15.321 16.0482 15.3438 16.0391 15.3438C16.0299 15.3438 16.0208 15.3529 16.0117 15.3711C15.9661 15.3893 15.9206 15.4303 15.875 15.4941C15.7474 15.5488 15.6654 15.5898 15.6289 15.6172C15.5924 15.6354 15.5514 15.6491 15.5059 15.6582C15.4785 15.6764 15.4512 15.6947 15.4238 15.7129C15.4056 15.7311 15.3783 15.7493 15.3418 15.7676C15.2507 15.7858 15.2005 15.7949 15.1914 15.7949C15.1185 15.8223 15.0684 15.8359 15.041 15.8359C15.0228 15.8268 15.0046 15.8268 14.9863 15.8359C14.8861 15.8633 14.8268 15.877 14.8086 15.877C14.7448 15.8678 14.7038 15.8678 14.6855 15.877C14.6673 15.877 14.6445 15.8815 14.6172 15.8906C14.5898 15.8724 14.5488 15.8678 14.4941 15.877C14.4486 15.877 14.403 15.8724 14.3574 15.8633C14.2845 15.8542 14.207 15.8451 14.125 15.8359C14.043 15.8177 13.9792 15.7858 13.9336 15.7402C13.8607 15.7038 13.8105 15.681 13.7832 15.6719C13.765 15.6536 13.7467 15.6354 13.7285 15.6172C13.6465 15.5534 13.5736 15.5215 13.5098 15.5215C13.4915 15.4759 13.4596 15.444 13.4141 15.4258C13.3776 15.4076 13.3548 15.3711 13.3457 15.3164C13.3001 15.3073 13.2682 15.2891 13.25 15.2617C13.2318 15.2253 13.1999 15.1979 13.1543 15.1797C13.1087 15.0794 13.0723 15.002 13.0449 14.9473C13.0176 14.8926 12.9811 14.8424 12.9355 14.7969C12.9355 14.7695 12.9264 14.7331 12.9082 14.6875C12.8991 14.6419 12.8854 14.6055 12.8672 14.5781C12.849 14.5417 12.8353 14.5098 12.8262 14.4824C12.8262 14.446 12.8171 14.4186 12.7988 14.4004C12.8171 14.3092 12.8216 14.2227 12.8125 14.1406C12.8034 14.0586 12.8034 13.9674 12.8125 13.8672C12.8398 13.776 12.8535 13.7122 12.8535 13.6758C12.8626 13.6302 12.8626 13.5938 12.8535 13.5664C12.8626 13.5482 12.8763 13.5208 12.8945 13.4844C12.9219 13.4479 12.931 13.4206 12.9219 13.4023C12.9583 13.3568 12.9811 13.3158 12.9902 13.2793C13.0085 13.2337 13.0312 13.2018 13.0586 13.1836C13.0677 13.1471 13.0723 13.1198 13.0723 13.1016C13.0814 13.0742 13.0951 13.0514 13.1133 13.0332C13.1406 12.9421 13.1816 12.8783 13.2363 12.8418C13.2272 12.7689 13.2363 12.7142 13.2637 12.6777C13.3001 12.6413 13.3275 12.6003 13.3457 12.5547C13.4095 12.5091 13.4551 12.4863 13.4824 12.4863C13.528 12.4408 13.5736 12.3815 13.6191 12.3086C13.6829 12.2812 13.7331 12.2357 13.7695 12.1719C13.8424 12.1536 13.8926 12.1217 13.9199 12.0762C13.9655 12.0762 14.0065 12.0671 14.043 12.0488C14.0794 12.0215 14.1159 11.9987 14.1523 11.9805C14.1888 11.9896 14.2207 11.985 14.248 11.9668C14.2754 11.9486 14.3027 11.9303 14.3301 11.9121C14.4395 11.8665 14.5078 11.8438 14.5352 11.8438C14.5716 11.8438 14.599 11.8392 14.6172 11.8301L14.7812 11.8027C14.8542 11.7936 14.8952 11.7845 14.9043 11.7754C14.9134 11.7663 14.9271 11.7708 14.9453 11.7891C14.9635 11.7982 14.9909 11.7982 15.0273 11.7891C15.0729 11.7799 15.1139 11.7891 15.1504 11.8164C15.2507 11.8073 15.3099 11.8118 15.3281 11.8301C15.3555 11.8392 15.3783 11.8438 15.3965 11.8438C15.4147 11.8893 15.4831 11.9212 15.6016 11.9395C15.6471 11.985 15.7018 12.0169 15.7656 12.0352C15.8294 12.0534 15.8796 12.0853 15.916 12.1309C16.0072 12.1855 16.071 12.2266 16.1074 12.2539C16.1439 12.2721 16.1803 12.2904 16.2168 12.3086ZM15.7656 12.541C15.6836 12.459 15.6335 12.4134 15.6152 12.4043C15.6061 12.3861 15.5833 12.377 15.5469 12.377C15.5195 12.3587 15.4694 12.3314 15.3965 12.2949C15.3236 12.2676 15.2826 12.2539 15.2734 12.2539C15.2734 12.2448 15.2643 12.2357 15.2461 12.2266C15.2188 12.2083 15.1914 12.1992 15.1641 12.1992C15.1367 12.1992 15.1094 12.1947 15.082 12.1855C15.0547 12.1855 15.0273 12.181 15 12.1719C14.9727 12.1628 14.9499 12.1582 14.9316 12.1582C14.8314 12.1764 14.7812 12.1855 14.7812 12.1855C14.7812 12.1764 14.7721 12.1719 14.7539 12.1719C14.7083 12.181 14.6719 12.1992 14.6445 12.2266C14.6172 12.2448 14.5807 12.2448 14.5352 12.2266C14.4076 12.2721 14.3164 12.3223 14.2617 12.377C14.207 12.4316 14.1296 12.4681 14.0293 12.4863C14.0111 12.5319 13.9746 12.5638 13.9199 12.582C13.8652 12.5911 13.8288 12.6139 13.8105 12.6504C13.7923 12.6686 13.7741 12.696 13.7559 12.7324C13.7467 12.7689 13.7331 12.7962 13.7148 12.8145C13.6966 12.8327 13.6784 12.8509 13.6602 12.8691C13.6419 12.8874 13.6191 12.9056 13.5918 12.9238L13.5371 13.1016C13.4915 13.138 13.4596 13.1836 13.4414 13.2383C13.4323 13.2839 13.4049 13.3203 13.3594 13.3477C13.3594 13.3932 13.3457 13.4388 13.3184 13.4844C13.3001 13.5208 13.3001 13.5573 13.3184 13.5938C13.2819 13.6758 13.2591 13.7305 13.25 13.7578C13.2409 13.776 13.2409 13.8034 13.25 13.8398C13.2135 13.8854 13.1908 13.9447 13.1816 14.0176C13.1816 14.0814 13.1908 14.1361 13.209 14.1816C13.2181 14.2546 13.2272 14.2956 13.2363 14.3047C13.2454 14.3138 13.2546 14.3275 13.2637 14.3457C13.2637 14.373 13.2637 14.4004 13.2637 14.4277C13.2728 14.4551 13.2728 14.4779 13.2637 14.4961C13.2819 14.5234 13.291 14.5508 13.291 14.5781C13.3001 14.6055 13.3138 14.6237 13.332 14.6328C13.3594 14.6784 13.3776 14.7103 13.3867 14.7285C13.3958 14.7376 13.4004 14.7559 13.4004 14.7832C13.4642 14.847 13.5098 14.8926 13.5371 14.9199C13.5736 14.9473 13.6009 14.9837 13.6191 15.0293C13.7103 15.1204 13.7741 15.1797 13.8105 15.207C13.847 15.2344 13.8743 15.2617 13.8926 15.2891C13.9837 15.3255 14.0339 15.3483 14.043 15.3574C14.0521 15.3574 14.0703 15.3574 14.0977 15.3574C14.1615 15.3939 14.2116 15.4212 14.248 15.4395C14.2845 15.4577 14.3164 15.4577 14.3438 15.4395C14.4531 15.4759 14.5306 15.4987 14.5762 15.5078C14.6217 15.5078 14.6673 15.5078 14.7129 15.5078C14.7858 15.4896 14.8496 15.4896 14.9043 15.5078C15.0046 15.4714 15.0638 15.4531 15.082 15.4531C15.1094 15.4531 15.1322 15.4486 15.1504 15.4395C15.2233 15.4121 15.2689 15.3939 15.2871 15.3848C15.3145 15.3757 15.3418 15.3665 15.3691 15.3574C15.4329 15.3301 15.4785 15.3073 15.5059 15.2891C15.5332 15.2617 15.5697 15.248 15.6152 15.248C15.6335 15.2298 15.6517 15.207 15.6699 15.1797C15.6882 15.1523 15.7109 15.1296 15.7383 15.1113C15.8477 15.0293 15.9069 14.9883 15.916 14.9883C15.9707 14.9245 15.998 14.888 15.998 14.8789C15.998 14.8698 16.0026 14.8607 16.0117 14.8516C16.0755 14.7513 16.1074 14.7012 16.1074 14.7012C16.0892 14.6647 16.0801 14.6146 16.0801 14.5508C16.0801 14.487 16.0618 14.4414 16.0254 14.4141C16.0163 14.3138 16.0117 14.2637 16.0117 14.2637C16.0208 14.2637 16.0254 14.2591 16.0254 14.25C15.9889 14.1589 15.9707 14.0996 15.9707 14.0723C15.9798 14.0358 15.9798 14.0085 15.9707 13.9902C15.9342 13.8809 15.9206 13.7943 15.9297 13.7305C15.8841 13.6211 15.8659 13.5527 15.875 13.5254C15.8841 13.498 15.8887 13.4707 15.8887 13.4434C15.8704 13.3066 15.8568 13.2155 15.8477 13.1699C15.8477 13.1152 15.8477 13.0605 15.8477 13.0059C15.875 12.9056 15.8796 12.8281 15.8613 12.7734C15.8613 12.6185 15.8294 12.541 15.7656 12.541ZM16.5176 14.0586C16.5632 14.013 16.5859 13.9811 16.5859 13.9629C16.5859 13.9355 16.5905 13.9128 16.5996 13.8945C16.6543 13.8034 16.6771 13.7487 16.668 13.7305C16.6589 13.7031 16.6589 13.6803 16.668 13.6621C16.7135 13.571 16.7363 13.5163 16.7363 13.498C16.7363 13.4707 16.7409 13.4479 16.75 13.4297C16.7956 13.3203 16.8184 13.2611 16.8184 13.252C16.8548 13.1608 16.873 13.1061 16.873 13.0879C16.8639 13.0605 16.8639 13.015 16.873 12.9512C16.8822 12.8783 16.8822 12.8053 16.873 12.7324L16.7363 12.582C16.627 12.5547 16.5495 12.5456 16.5039 12.5547C16.4583 12.5638 16.4355 12.5957 16.4355 12.6504C16.4629 12.7598 16.4674 12.8281 16.4492 12.8555C16.431 12.8737 16.4173 12.901 16.4082 12.9375C16.3079 13.0469 16.2624 13.1243 16.2715 13.1699C16.2806 13.2155 16.2806 13.2702 16.2715 13.334C16.2988 13.4251 16.3079 13.4753 16.2988 13.4844C16.2897 13.4935 16.2897 13.5072 16.2988 13.5254C16.2988 13.5527 16.3034 13.5801 16.3125 13.6074C16.3216 13.6348 16.3307 13.6621 16.3398 13.6895C16.3398 13.7624 16.3444 13.8125 16.3535 13.8398C16.3991 13.931 16.4128 13.9811 16.3945 13.9902C16.3854 13.9902 16.39 13.9993 16.4082 14.0176L16.5176 14.0586Z" fill="#888888"/>
</svg>
