<svg width="24" height="24" viewBox="0 0 24 24" fill="none" xmlns="http://www.w3.org/2000/svg">
<path d="M10.6669 14.354H6.46688V13.15H10.6669V14.354ZM8.37088 8.502H8.76288L5.75288 17H4.35288L7.86688 7.2H9.26688L12.7809 17H11.3809L8.37088 8.502ZM16.3985 20.5C15.7731 20.5 15.2131 20.4207 14.7185 20.262C14.2331 20.1127 13.8458 19.884 13.5565 19.576C13.2765 19.2773 13.1365 18.904 13.1365 18.456C13.1365 18.0827 13.2391 17.7607 13.4445 17.49C13.6591 17.2287 13.9531 17.014 14.3265 16.846C14.1025 16.734 13.9345 16.608 13.8225 16.468C13.7105 16.3187 13.6545 16.1553 13.6545 15.978C13.6545 15.7633 13.7151 15.572 13.8365 15.404C13.9671 15.236 14.1771 15.096 14.4665 14.984C14.0838 14.7413 13.7898 14.4193 13.5845 14.018C13.3791 13.6167 13.2765 13.1687 13.2765 12.674C13.2765 12.1793 13.3885 11.7313 13.6125 11.33C13.8365 10.9193 14.1585 10.5973 14.5785 10.364C14.9985 10.1213 15.5071 10 16.1045 10C16.4218 10 16.7205 10.0467 17.0005 10.14C17.2805 10.2333 17.5418 10.364 17.7845 10.532C17.9898 10.4107 18.2371 10.3127 18.5265 10.238C18.8158 10.154 19.1378 10.112 19.4925 10.112C19.5111 10.112 19.5298 10.112 19.5485 10.112C19.5671 10.112 19.5858 10.112 19.6045 10.112L19.4505 10.952C19.3945 10.952 19.3385 10.952 19.2825 10.952C19.2358 10.952 19.1845 10.952 19.1285 10.952C19.0818 10.952 18.9745 10.9613 18.8065 10.98C18.6385 10.9893 18.4845 11.0127 18.3445 11.05C18.5311 11.274 18.6758 11.526 18.7785 11.806C18.8905 12.086 18.9465 12.3753 18.9465 12.674C18.9465 13.1967 18.8298 13.668 18.5965 14.088C18.3725 14.4987 18.0505 14.8253 17.6305 15.068C17.2105 15.3013 16.7018 15.418 16.1045 15.418C15.9365 15.418 15.7731 15.4087 15.6145 15.39C15.4651 15.362 15.3205 15.3293 15.1805 15.292C14.9658 15.3667 14.8585 15.488 14.8585 15.656C14.8585 15.7587 14.9191 15.852 15.0405 15.936C15.1618 16.0107 15.3578 16.0667 15.6285 16.104L17.4625 16.398C18.1998 16.5193 18.7691 16.734 19.1705 17.042C19.5811 17.35 19.7865 17.7933 19.7865 18.372C19.7865 18.848 19.6465 19.24 19.3665 19.548C19.0865 19.8653 18.6898 20.1033 18.1765 20.262C17.6725 20.4207 17.0798 20.5 16.3985 20.5ZM16.5105 19.38C17.1545 19.38 17.6491 19.296 17.9945 19.128C18.3398 18.96 18.5125 18.7173 18.5125 18.4C18.5125 18.148 18.4051 17.9473 18.1905 17.798C17.9758 17.658 17.6631 17.5507 17.2525 17.476L15.2925 17.14C15.0405 17.2613 14.8165 17.4153 14.6205 17.602C14.4338 17.7887 14.3405 18.008 14.3405 18.26C14.3405 18.652 14.5365 18.9367 14.9285 19.114C15.3205 19.2913 15.8478 19.38 16.5105 19.38ZM16.1045 14.41C16.6365 14.41 17.0425 14.2513 17.3225 13.934C17.6025 13.6167 17.7425 13.2013 17.7425 12.688C17.7425 12.2027 17.6025 11.8013 17.3225 11.484C17.0425 11.1667 16.6365 11.008 16.1045 11.008C15.5725 11.008 15.1665 11.1667 14.8865 11.484C14.6158 11.8013 14.4805 12.2027 14.4805 12.688C14.4805 13.2013 14.6158 13.6167 14.8865 13.934C15.1665 14.2513 15.5725 14.41 16.1045 14.41Z" fill="#333333"/>
</svg>
