<svg width="24" height="24" viewBox="0 0 24 24" fill="none" xmlns="http://www.w3.org/2000/svg">
<path d="M11.0404 12.976C11.0684 13.256 11.1337 13.536 11.2364 13.816C11.3484 14.096 11.5164 14.4833 11.7404 14.978C11.8897 15.286 12.025 15.594 12.1464 15.902C12.1464 16.014 12.1044 16.0887 12.0204 16.126C11.9457 16.1633 11.8337 16.182 11.6844 16.182C11.6004 16.182 11.521 16.168 11.4464 16.14C11.3717 16.112 11.325 16.0933 11.3064 16.084C11.1757 16.0187 11.059 15.986 10.9564 15.986C10.9097 15.986 10.8397 16 10.7464 16.028C10.6624 16.056 10.6017 16.07 10.5644 16.07C10.5177 16.07 10.4664 16.014 10.4104 15.902C10.3637 15.7807 10.303 15.6033 10.2284 15.37C10.2004 15.3047 10.1724 15.2393 10.1444 15.174C10.1257 15.0993 10.1024 15.0247 10.0744 14.95C10.0557 14.9127 9.99502 14.7587 9.89235 14.488C9.78969 14.2173 9.65902 13.984 9.50035 13.788C9.35102 13.592 9.19702 13.494 9.03835 13.494C8.85169 13.494 8.67435 13.508 8.50635 13.536C8.44102 13.5453 8.36169 13.5547 8.26835 13.564C8.18435 13.5733 8.08169 13.578 7.96035 13.578C7.69902 13.578 7.42835 13.564 7.14835 13.536C6.58835 13.508 6.27568 13.494 6.21035 13.494C6.11702 13.8487 6.03768 14.1193 5.97235 14.306C5.90702 14.4833 5.78102 14.7867 5.59435 15.216C5.55702 15.3093 5.52902 15.4307 5.51035 15.58C5.48235 15.776 5.44035 15.9253 5.38435 16.028C5.33768 16.1307 5.25368 16.182 5.13235 16.182C4.96435 16.182 4.81968 16.168 4.69835 16.14C4.57702 16.1213 4.41368 16.0747 4.20835 16C4.20835 15.8413 4.24102 15.664 4.30635 15.468C4.37168 15.2627 4.46968 14.9967 4.60035 14.67L4.72635 14.362C4.80102 14.138 4.87568 13.886 4.95035 13.606C5.03435 13.326 5.09035 13.1347 5.11835 13.032C5.25835 12.444 5.38902 11.9913 5.51035 11.674C5.57568 11.4967 5.67369 11.2587 5.80435 10.96C5.83235 10.8853 5.89302 10.7407 5.98635 10.526C6.07968 10.302 6.15435 10.078 6.21035 9.854L6.28035 9.784C6.29902 9.71867 6.32235 9.59733 6.35035 9.42C6.37835 9.23333 6.42502 9.07933 6.49035 8.958C6.55568 8.83667 6.63968 8.776 6.74235 8.776C6.74235 8.62667 6.82635 8.272 6.99435 7.712C7.17169 7.152 7.30702 6.83467 7.40035 6.76C7.88568 6.76 8.20768 6.76933 8.36635 6.788C8.53435 6.80667 8.66502 6.872 8.75835 6.984C8.85169 7.096 8.94969 7.31067 9.05235 7.628L9.22035 7.964L9.20635 8.09C9.26235 8.09 9.30435 8.12733 9.33235 8.202C9.36969 8.27667 9.40702 8.38867 9.44435 8.538C9.48169 8.69667 9.51902 8.832 9.55635 8.944C9.60302 9.04667 9.66369 9.126 9.73835 9.182C9.71968 9.182 9.70102 9.19133 9.68235 9.21C9.66369 9.22867 9.64969 9.24267 9.64035 9.252C9.64035 9.31733 9.66835 9.41533 9.72435 9.546C9.78969 9.658 9.82235 9.76067 9.82235 9.854H10.0044C9.98569 9.87267 9.96702 9.90067 9.94835 9.938C9.92969 9.97533 9.92035 10.008 9.92035 10.036C9.92035 10.0827 9.97635 10.1807 10.0884 10.33C10.2004 10.498 10.2564 10.6007 10.2564 10.638L10.3124 10.946C10.3684 11.3287 10.4384 11.604 10.5224 11.772C10.597 11.912 10.6764 12.0147 10.7604 12.08C10.8257 12.136 10.877 12.2153 10.9144 12.318C10.961 12.4207 11.003 12.64 11.0404 12.976ZM7.14835 9.182C6.90569 9.182 6.78435 9.28467 6.78435 9.49L6.79835 9.588C7.03168 9.52267 7.25102 9.406 7.45635 9.238C7.66168 9.07 7.82035 8.874 7.93235 8.65L8.96835 8.3C8.96835 7.98267 8.87502 7.73533 8.68835 7.558C8.51102 7.38067 8.42235 7.28733 8.42235 7.278L8.25435 7.292C8.22635 7.292 8.14702 7.264 8.01635 7.208C7.89502 7.14267 7.80635 7.11 7.75035 7.11C7.66635 7.11 7.60569 7.15667 7.56835 7.25C7.53102 7.34333 7.49835 7.47867 7.47035 7.656C7.46102 7.75867 7.44235 7.85667 7.41435 7.95C7.39569 8.04333 7.36302 8.104 7.31635 8.132H7.66635C7.62902 8.19733 7.57768 8.25333 7.51235 8.3C7.45635 8.33733 7.40035 8.37 7.34435 8.398C7.21368 8.46333 7.11569 8.538 7.05035 8.622C6.99435 8.69667 6.96635 8.82267 6.96635 9C6.96635 9.06533 6.97569 9.112 6.99435 9.14C7.02235 9.168 7.07368 9.182 7.14835 9.182ZM8.11435 8.734C8.11435 8.78067 8.14235 8.85533 8.19835 8.958C8.26369 9.05133 8.31502 9.098 8.35235 9.098C8.41768 9.098 8.54368 8.99533 8.73035 8.79C8.84235 8.65933 8.94969 8.55667 9.05235 8.482C8.63235 8.482 8.31969 8.566 8.11435 8.734ZM9.13635 11.072C9.48169 10.7827 9.65435 10.4933 9.65435 10.204C9.65435 10.036 9.64035 9.89133 9.61235 9.77C9.59369 9.64867 9.53302 9.588 9.43035 9.588C9.39302 9.59733 9.34635 9.62067 9.29035 9.658C9.23435 9.69533 9.18302 9.73733 9.13635 9.784L9.47235 9.434C9.47235 9.39667 9.42102 9.25667 9.31835 9.014C9.22502 8.77133 9.16435 8.65 9.13635 8.65H9.05235L8.45035 9.252L8.43635 9.308C8.43635 9.35467 8.46435 9.40133 8.52035 9.448C8.58569 9.48533 8.64635 9.50867 8.70235 9.518C8.65569 9.52733 8.62769 9.55533 8.61835 9.602C8.60902 9.64867 8.60435 9.69533 8.60435 9.742C8.60435 9.94733 8.65102 10.05 8.74435 10.05C8.77235 10.05 8.84702 10.0127 8.96835 9.938C8.96835 10.0033 8.94969 10.0827 8.91235 10.176C8.88435 10.2693 8.87035 10.344 8.87035 10.4C8.93568 10.4 8.98702 10.3953 9.02435 10.386C9.07102 10.3767 9.11302 10.3673 9.15035 10.358C9.28102 10.3207 9.38835 10.302 9.47235 10.302C9.44435 10.358 9.38369 10.4047 9.29035 10.442C9.20635 10.47 9.14102 10.498 9.09435 10.526C9.05702 10.554 9.03835 10.6147 9.03835 10.708V10.792C9.03835 10.9133 9.07102 11.0067 9.13635 11.072ZM7.23235 9.854C7.20435 9.92867 7.15769 9.98 7.09235 10.008C7.02702 10.036 6.93369 10.0593 6.81235 10.078C6.66302 10.106 6.55102 10.1433 6.47635 10.19C6.41102 10.2367 6.37835 10.33 6.37835 10.47C6.37835 10.4887 6.38768 10.5073 6.40635 10.526C6.43435 10.5447 6.45302 10.554 6.46235 10.554C7.22768 10.106 7.61035 9.7 7.61035 9.336H7.51235C7.45635 9.336 7.30235 9.42467 7.05035 9.602C6.80769 9.77933 6.68635 9.896 6.68635 9.952C6.76102 9.952 6.85435 9.938 6.96635 9.91C7.07835 9.87267 7.16702 9.854 7.23235 9.854ZM7.93235 9.434C7.85769 9.882 7.72702 10.3347 7.54035 10.792C7.36302 11.24 7.14835 11.6507 6.89635 12.024L6.88235 12.066C6.88235 12.206 7.05502 12.276 7.40035 12.276C7.57769 12.276 7.73635 12.2713 7.87635 12.262C8.01635 12.2527 8.13302 12.2433 8.22635 12.234C8.59969 12.1967 8.87969 12.178 9.06635 12.178C9.06635 12.01 8.97768 11.7207 8.80035 11.31C8.78168 11.2727 8.74435 11.1887 8.68835 11.058C8.63235 10.918 8.60435 10.8107 8.60435 10.736L7.93235 9.434ZM7.14835 10.19C7.04569 10.3113 6.88235 10.4467 6.65835 10.596C6.57435 10.652 6.49969 10.708 6.43435 10.764C6.36902 10.82 6.33635 10.8713 6.33635 10.918C6.64435 10.918 6.85435 10.876 6.96635 10.792C7.07835 10.6987 7.16702 10.498 7.23235 10.19H7.14835ZM9.29035 11.198C9.29035 11.198 9.29968 11.2213 9.31835 11.268C9.33702 11.3053 9.36502 11.324 9.40235 11.324C9.45835 11.324 9.54702 11.31 9.66835 11.282C9.78969 11.254 9.87369 11.24 9.92035 11.24L9.40235 11.506L9.38835 11.534C9.38835 11.5807 9.40702 11.632 9.44435 11.688C9.48169 11.744 9.50969 11.772 9.52835 11.772C9.66835 11.772 9.78502 11.7113 9.87835 11.59C9.97169 11.4687 10.0184 11.338 10.0184 11.198C10.0184 11.0673 9.99502 10.9273 9.94835 10.778C9.90169 10.6287 9.83169 10.554 9.73835 10.554C9.67302 10.638 9.56102 10.8107 9.40235 11.072C9.32769 11.1467 9.29035 11.1887 9.29035 11.198ZM6.28035 11.072C6.19635 11.072 6.13102 11.1187 6.08435 11.212C6.04702 11.296 6.01435 11.3847 5.98635 11.478C5.95835 11.5713 5.93969 11.6367 5.93035 11.674C6.01435 11.6273 6.15902 11.5433 6.36435 11.422C6.57902 11.2913 6.75635 11.1747 6.89635 11.072H6.28035ZM6.79835 11.324C6.76102 11.3427 6.70035 11.3707 6.61635 11.408C6.53235 11.4453 6.46702 11.492 6.42035 11.548C6.37369 11.5947 6.35035 11.6553 6.35035 11.73C6.44368 11.73 6.54168 11.6927 6.64435 11.618C6.75635 11.5433 6.81235 11.464 6.81235 11.38L6.79835 11.324ZM9.64035 13.228C9.67769 13.3027 9.71502 13.354 9.75235 13.382C9.78969 13.4007 9.84569 13.41 9.92035 13.41C10.079 13.41 10.205 13.3447 10.2984 13.214C10.3917 13.074 10.4384 12.9247 10.4384 12.766C10.4384 12.598 10.4244 12.4487 10.3964 12.318C10.3684 12.1873 10.331 12.052 10.2844 11.912C10.2377 11.7627 10.205 11.6553 10.1864 11.59C10.0744 11.59 9.96702 11.632 9.86435 11.716C9.76169 11.8 9.68702 11.9027 9.64035 12.024H10.0744V12.108C10.037 12.1547 9.92035 12.29 9.72435 12.514C9.52835 12.7287 9.38835 12.9107 9.30435 13.06L9.47235 13.074C9.58435 13.074 9.73369 13.0273 9.92035 12.934C10.107 12.85 10.247 12.808 10.3404 12.808C10.2377 12.9387 10.0044 13.0787 9.64035 13.228ZM6.37835 11.856C6.13568 11.856 5.95368 11.8933 5.83235 11.968C5.72035 12.0333 5.66435 12.1687 5.66435 12.374L5.67835 12.542C5.73435 12.5047 5.82302 12.4487 5.94435 12.374C6.07502 12.2993 6.18235 12.22 6.26635 12.136C6.35969 12.052 6.42502 11.9587 6.46235 11.856H6.37835ZM9.83635 12.206C9.70569 12.206 9.64035 12.262 9.64035 12.374L9.83635 12.206ZM6.21035 12.71V12.374L5.84635 12.71H6.21035ZM8.08635 13.2C8.30102 13.2 8.48769 13.172 8.64635 13.116C8.81435 13.06 8.94969 12.9573 9.05235 12.808C9.02435 12.752 8.95435 12.71 8.84235 12.682C8.73969 12.6447 8.66035 12.626 8.60435 12.626C8.54835 12.626 8.46902 12.6773 8.36635 12.78C8.26369 12.8733 8.20302 12.9387 8.18435 12.976V12.808C8.03502 12.8733 7.91835 12.9293 7.83435 12.976C7.75969 13.0227 7.72235 13.0927 7.72235 13.186L8.08635 13.2ZM6.49035 13.144C6.63968 13.144 6.78435 13.1253 6.92435 13.088C7.07368 13.0507 7.14835 12.9807 7.14835 12.878C7.14835 12.822 7.12969 12.78 7.09235 12.752C7.06435 12.7147 7.02702 12.696 6.98035 12.696C6.95235 12.696 6.84969 12.7427 6.67235 12.836C6.49502 12.92 6.36435 12.9947 6.28035 13.06C6.29902 13.116 6.34102 13.144 6.40635 13.144H6.49035ZM7.66635 12.78C7.57302 12.7707 7.48902 12.7987 7.41435 12.864C7.33969 12.92 7.30235 12.9993 7.30235 13.102C7.48902 13.102 7.67102 13.004 7.84835 12.808L7.66635 12.78ZM5.51035 13.312C5.52902 13.3027 5.59902 13.27 5.72035 13.214C5.85102 13.1487 5.95369 13.0693 6.02835 12.976C6.00968 12.9107 5.93968 12.878 5.81835 12.878C5.71569 12.878 5.63635 12.9107 5.58035 12.976C5.52435 13.0413 5.49635 13.1253 5.49635 13.228L5.51035 13.312ZM9.02435 13.116C9.14569 13.116 9.21569 13.0413 9.23435 12.892C9.09435 12.9013 9.02435 12.976 9.02435 13.116ZM10.0744 13.998C10.0744 14.1287 10.1257 14.194 10.2284 14.194C10.3217 14.194 10.4197 14.11 10.5224 13.942C10.6344 13.774 10.6904 13.6387 10.6904 13.536V13.466C10.6904 13.242 10.6484 13.13 10.5644 13.13C10.555 13.1393 10.4664 13.2 10.2984 13.312C10.1397 13.4147 10.0417 13.5033 10.0044 13.578C10.0137 13.578 10.0277 13.592 10.0464 13.62C10.065 13.648 10.093 13.662 10.1304 13.662C10.1864 13.6433 10.2657 13.6293 10.3684 13.62C10.471 13.6013 10.5457 13.5873 10.5924 13.578C10.5457 13.6527 10.457 13.7087 10.3264 13.746C10.233 13.7833 10.1677 13.8207 10.1304 13.858C10.093 13.886 10.0744 13.9327 10.0744 13.998ZM5.42635 13.662C5.65968 13.662 5.86035 13.5453 6.02835 13.312H5.93035C5.79968 13.312 5.63168 13.4287 5.42635 13.662ZM5.24435 14.264C5.32835 14.2173 5.42635 14.1473 5.53835 14.054C5.65968 13.9513 5.73902 13.8813 5.77635 13.844L5.59435 13.83C5.51035 13.83 5.42635 13.8767 5.34235 13.97C5.26768 14.0633 5.23035 14.124 5.23035 14.152L5.24435 14.264ZM10.8304 13.83C10.793 13.83 10.737 13.8767 10.6624 13.97C10.5877 14.0633 10.5224 14.1567 10.4664 14.25C10.4104 14.334 10.3684 14.3993 10.3404 14.446C10.4524 14.446 10.583 14.4227 10.7324 14.376C10.8817 14.32 10.9564 14.2453 10.9564 14.152C10.9564 13.9373 10.9144 13.83 10.8304 13.83ZM10.6764 14.95L11.1244 14.544V14.404C11.0124 14.404 10.8677 14.432 10.6904 14.488C10.5224 14.544 10.4384 14.614 10.4384 14.698C10.4384 14.7447 10.4617 14.8007 10.5084 14.866C10.555 14.9313 10.6017 14.964 10.6484 14.964L10.6764 14.95ZM11.2924 15.566C11.423 15.566 11.4884 15.5147 11.4884 15.412C11.4884 15.2533 11.395 15.0153 11.2084 14.698C11.1897 14.7167 11.1337 14.754 11.0404 14.81C10.9564 14.8567 10.8864 14.9127 10.8304 14.978C10.7744 15.034 10.7464 15.09 10.7464 15.146C10.8677 15.146 10.9937 15.1133 11.1244 15.048L10.7884 15.398C10.8257 15.51 10.9937 15.566 11.2924 15.566ZM4.89435 15.398C4.90368 15.3793 4.96902 15.3047 5.09035 15.174C5.22102 15.034 5.30035 14.908 5.32835 14.796L5.20235 14.782C5.07168 14.782 4.95968 14.8567 4.86635 15.006C4.77302 15.1553 4.72635 15.3 4.72635 15.44C4.72635 15.5053 4.73102 15.5567 4.74035 15.594C4.75902 15.6313 4.79635 15.65 4.85235 15.65C4.89902 15.65 4.93635 15.6173 4.96435 15.552C4.99235 15.4773 5.00635 15.426 5.00635 15.398H4.89435ZM17.473 15.398C17.6504 15.4633 17.893 15.5987 18.201 15.804C18.5184 16 18.7937 16.2193 19.027 16.462C19.2697 16.7047 19.391 16.924 19.391 17.12C19.391 17.344 19.321 17.568 19.181 17.792C19.0504 18.016 18.8824 18.198 18.677 18.338V18.324C18.6397 18.324 18.481 18.436 18.201 18.66C18.1357 18.7067 18.0237 18.786 17.865 18.898C17.7064 19.0193 17.6037 19.0893 17.557 19.108C17.3424 19.1827 17.1184 19.2293 16.885 19.248C16.6517 19.276 16.381 19.29 16.073 19.29C15.541 19.29 15.037 19.2153 14.561 19.066C14.0944 18.926 13.595 18.7113 13.063 18.422V18.296C12.923 18.296 12.7877 18.1793 12.657 17.946C12.5264 17.722 12.461 17.5213 12.461 17.344C12.461 17.0453 12.545 16.6953 12.713 16.294C12.8904 15.8927 13.0957 15.622 13.329 15.482C13.301 15.426 13.245 15.3373 13.161 15.216C13.0864 15.0853 13.049 14.964 13.049 14.852C13.049 14.6747 13.1004 14.46 13.203 14.208C13.2964 13.9467 13.343 13.7413 13.343 13.592C13.343 13.452 13.3104 13.3307 13.245 13.228C13.189 13.1253 13.0957 13.004 12.965 12.864C12.797 12.696 12.6664 12.5327 12.573 12.374C12.489 12.206 12.447 11.9913 12.447 11.73C12.447 11.2913 12.5684 10.89 12.811 10.526C13.0537 10.162 13.371 9.87733 13.763 9.672C14.155 9.45733 14.5704 9.35 15.009 9.35L15.233 9.364C15.2424 9.28933 15.3217 9.238 15.471 9.21C15.6297 9.182 15.7744 9.168 15.905 9.168C16.073 9.168 16.283 9.21933 16.535 9.322C16.563 9.33133 16.633 9.35467 16.745 9.392C16.8664 9.42933 16.9737 9.448 17.067 9.448C17.1604 9.448 17.249 9.42467 17.333 9.378C17.4264 9.33133 17.4824 9.30333 17.501 9.294C17.669 9.20067 17.7997 9.154 17.893 9.154L18.075 9.168C18.047 9.20533 18.0144 9.26133 17.977 9.336C17.9397 9.40133 17.9117 9.462 17.893 9.518C17.893 9.602 17.9164 9.658 17.963 9.686C18.019 9.70467 18.0937 9.714 18.187 9.714C18.3084 9.714 18.397 9.69533 18.453 9.658C18.509 9.62067 18.5557 9.602 18.593 9.602C18.7237 9.64867 18.789 9.75133 18.789 9.91C18.789 10.022 18.7377 10.0967 18.635 10.134C18.5324 10.162 18.3924 10.176 18.215 10.176H17.977C17.753 10.176 17.641 10.2133 17.641 10.288C17.641 10.456 17.7157 10.6987 17.865 11.016C18.005 11.3147 18.075 11.5387 18.075 11.688C18.075 11.7347 18.061 11.772 18.033 11.8C18.005 11.8187 17.991 11.8373 17.991 11.856C17.991 11.9027 18.005 11.968 18.033 12.052C18.061 12.136 18.075 12.1827 18.075 12.192C18.075 12.3227 18.047 12.4627 17.991 12.612C17.9257 12.7613 17.893 12.9153 17.893 13.074C17.809 13.466 17.6504 13.7367 17.417 13.886C17.1837 14.0353 16.8944 14.1473 16.549 14.222C16.3997 14.2593 16.2877 14.292 16.213 14.32C16.1477 14.348 16.1057 14.39 16.087 14.446C15.5457 14.5113 15.1677 14.544 14.953 14.544L14.701 14.53C14.8037 14.698 14.9717 14.824 15.205 14.908C15.4477 14.9827 15.737 15.0433 16.073 15.09C16.2317 15.1087 16.3484 15.1273 16.423 15.146C16.4604 15.23 16.5304 15.286 16.633 15.314C16.745 15.3327 16.8944 15.3467 17.081 15.356C17.277 15.356 17.4077 15.37 17.473 15.398ZM15.303 9.518C15.275 9.546 15.2517 9.57867 15.233 9.616C15.2144 9.644 15.2004 9.66267 15.191 9.672C15.2004 9.69067 15.2844 9.714 15.443 9.742C15.611 9.77 15.737 9.784 15.821 9.784L16.353 9.77V9.966C16.437 10.0313 16.5444 10.134 16.675 10.274C16.815 10.414 16.9037 10.512 16.941 10.568C16.9784 10.624 17.0017 10.6987 17.011 10.792C17.0204 10.8853 17.0344 10.9553 17.053 11.002C17.0717 11.0393 17.123 11.0627 17.207 11.072L17.123 11.254H17.529C17.529 11.142 17.501 11.044 17.445 10.96C17.3984 10.876 17.3237 10.778 17.221 10.666C17.2024 10.638 17.165 10.5913 17.109 10.526C17.053 10.4607 17.025 10.4 17.025 10.344C17.053 10.2413 17.1884 10.1527 17.431 10.078C17.571 10.022 17.669 9.97533 17.725 9.938C17.7904 9.89133 17.823 9.83067 17.823 9.756C17.8137 9.74667 17.7904 9.7 17.753 9.616C17.725 9.52267 17.6877 9.46667 17.641 9.448L17.557 9.602L16.759 9.966C16.731 9.938 16.6937 9.896 16.647 9.84C16.6004 9.77467 16.5444 9.72333 16.479 9.686C16.423 9.63933 16.353 9.61133 16.269 9.602L15.807 9.616C15.5364 9.616 15.3684 9.58333 15.303 9.518ZM13.133 10.904C13.777 10.8387 14.099 10.6987 14.099 10.484C14.099 10.4467 14.0944 10.4187 14.085 10.4L14.533 9.854C14.3464 9.854 14.183 9.90067 14.043 9.994C13.9124 10.078 13.735 10.2133 13.511 10.4C13.399 10.5213 13.273 10.6333 13.133 10.736V10.904ZM14.967 10.204C14.687 10.3813 14.4677 10.638 14.309 10.974C14.1597 11.3007 14.085 11.6367 14.085 11.982C14.085 12.2993 14.113 12.542 14.169 12.71C14.2344 12.8687 14.3464 12.9853 14.505 13.06C14.673 13.1253 14.9157 13.158 15.233 13.158C15.6904 13.158 16.0777 13.032 16.395 12.78C16.7124 12.5187 16.871 12.1453 16.871 11.66C16.871 11.2587 16.7264 10.9133 16.437 10.624C16.1477 10.3347 15.8024 10.19 15.401 10.19L14.967 10.204ZM13.133 11.072C13.2077 11.1 13.3057 11.1233 13.427 11.142C13.5484 11.1607 13.6324 11.17 13.679 11.17C13.679 11.2633 13.6464 11.3287 13.581 11.366C13.5157 11.394 13.4224 11.422 13.301 11.45C13.1797 11.4687 13.1004 11.4873 13.063 11.506H13.749L13.931 10.988C13.903 10.988 13.8004 10.988 13.623 10.988C13.4457 10.988 13.2824 11.016 13.133 11.072ZM13.063 11.254L12.895 11.338H13.063V11.254ZM17.739 12.136C17.739 11.6973 17.6644 11.478 17.515 11.478C17.459 11.478 17.3937 11.5153 17.319 11.59C17.2444 11.6647 17.207 11.7253 17.207 11.772C17.2164 11.8 17.2304 11.842 17.249 11.898C17.2677 11.954 17.2864 12.0007 17.305 12.038C17.3424 12.038 17.375 12.024 17.403 11.996C17.4404 11.968 17.4824 11.954 17.529 11.954C17.529 11.9727 17.5337 11.9867 17.543 11.996C17.5524 12.0053 17.557 12.0147 17.557 12.024C17.557 12.0333 17.4964 12.0707 17.375 12.136C17.2537 12.2013 17.193 12.2667 17.193 12.332C17.2677 12.444 17.3237 12.5233 17.361 12.57C17.4077 12.6167 17.473 12.64 17.557 12.64C17.6784 12.64 17.739 12.472 17.739 12.136ZM13.119 11.688C13.035 11.688 12.9744 11.702 12.937 11.73C12.8997 11.7487 12.881 11.8 12.881 11.884C13.1237 11.884 13.329 11.8187 13.497 11.688H13.231H13.119ZM13.679 12.192V11.856C13.6324 11.884 13.5624 11.9307 13.469 11.996C13.3757 12.052 13.2964 12.094 13.231 12.122L13.679 12.192ZM13.329 12.542C13.4037 12.542 13.469 12.5327 13.525 12.514C13.5904 12.486 13.623 12.4393 13.623 12.374H13.063C13.1004 12.4487 13.133 12.4953 13.161 12.514C13.1984 12.5327 13.2544 12.542 13.329 12.542ZM17.557 12.976C17.5664 12.9293 17.5524 12.892 17.515 12.864C17.4777 12.8267 17.4217 12.7847 17.347 12.738C17.3284 12.7193 17.291 12.6913 17.235 12.654C17.179 12.6073 17.1417 12.5653 17.123 12.528C16.955 12.696 16.871 12.8173 16.871 12.892C16.9457 12.976 17.0344 13.0507 17.137 13.116C17.2397 13.1813 17.319 13.2233 17.375 13.242C17.403 13.242 17.4357 13.2047 17.473 13.13C17.5197 13.0553 17.5477 13.004 17.557 12.976ZM17.039 13.578C17.039 13.41 17.025 13.298 16.997 13.242C16.9784 13.1767 16.9037 13.144 16.773 13.144C16.5397 13.144 16.423 13.2467 16.423 13.452C16.423 13.6667 16.479 13.774 16.591 13.774C16.6657 13.774 16.7404 13.7553 16.815 13.718C16.899 13.6713 16.9737 13.6247 17.039 13.578ZM15.821 13.76C15.8864 13.76 15.9704 13.7787 16.073 13.816C16.185 13.844 16.283 13.858 16.367 13.858C16.367 13.8113 16.3437 13.7647 16.297 13.718C16.2597 13.6713 16.241 13.6293 16.241 13.592C16.241 13.5827 16.2504 13.55 16.269 13.494C16.1757 13.5687 15.9564 13.6153 15.611 13.634C15.4057 13.6527 15.261 13.6713 15.177 13.69C15.093 13.7087 15.051 13.746 15.051 13.802C15.051 13.914 15.0697 13.9793 15.107 13.998C15.1537 14.0167 15.2564 14.026 15.415 14.026C15.723 14.026 15.877 13.9653 15.877 13.844H15.737C15.737 13.844 15.765 13.816 15.821 13.76ZM14.659 14.012C14.771 14.012 14.841 13.9887 14.869 13.942C14.897 13.886 14.911 13.788 14.911 13.648C14.743 13.648 14.505 13.7133 14.197 13.844C14.281 13.9187 14.351 13.9653 14.407 13.984C14.4724 14.0027 14.5564 14.012 14.659 14.012ZM13.679 14.292C13.735 14.292 13.7864 14.2593 13.833 14.194H13.679V14.292ZM14.099 14.908C14.099 14.824 14.0057 14.7727 13.819 14.754C13.6324 14.726 13.469 14.712 13.329 14.712C13.357 14.8147 13.4084 14.8987 13.483 14.964C13.5577 15.0293 13.6464 15.062 13.749 15.062C13.9824 15.062 14.099 15.0107 14.099 14.908ZM13.063 16.7C13.0724 16.7187 13.0817 16.7327 13.091 16.742C13.1097 16.7607 13.1237 16.7747 13.133 16.784L13.063 16.868H13.427C13.427 16.8307 13.4084 16.7887 13.371 16.742C13.343 16.6953 13.329 16.644 13.329 16.588C13.329 16.5227 13.4317 16.392 13.637 16.196C13.8424 16.0093 14.0524 15.832 14.267 15.664C14.1177 15.664 13.945 15.7153 13.749 15.818C13.5624 15.9207 13.399 16.0513 13.259 16.21C13.1284 16.378 13.063 16.5413 13.063 16.7ZM16.941 17.82C17.137 17.82 17.361 17.7453 17.613 17.596C17.865 17.4467 17.991 17.288 17.991 17.12C17.991 17.0173 17.963 16.9473 17.907 16.91C17.8604 16.882 17.7904 16.868 17.697 16.868C17.5477 16.868 17.4497 16.8493 17.403 16.812C17.3657 16.784 17.3424 16.7233 17.333 16.63C17.3237 16.5367 17.2817 16.4713 17.207 16.434C16.4044 16.1447 15.653 16 14.953 16C14.7104 16 14.463 16.0653 14.211 16.196C13.959 16.336 13.833 16.518 13.833 16.742C13.833 16.994 13.889 17.1713 14.001 17.274C14.113 17.386 14.2857 17.4933 14.519 17.596C14.6964 17.6613 14.8457 17.736 14.967 17.82H16.941ZM18.187 16.252C18.1777 16.2613 18.1544 16.2753 18.117 16.294C18.089 16.3127 18.075 16.3267 18.075 16.336C18.075 16.364 18.089 16.3873 18.117 16.406C18.145 16.434 18.1684 16.448 18.187 16.448C18.2524 16.448 18.3037 16.4107 18.341 16.336C18.285 16.28 18.2337 16.252 18.187 16.252ZM13.399 17.134C13.343 17.0873 13.273 17.0593 13.189 17.05C13.1144 17.0407 13.0444 17.036 12.979 17.036V17.218C13.0164 17.218 13.0724 17.2087 13.147 17.19C13.231 17.1713 13.315 17.1527 13.399 17.134ZM18.943 17.204L18.733 17.19C18.6397 17.19 18.5744 17.2133 18.537 17.26C18.4997 17.316 18.4577 17.3907 18.411 17.484L18.943 17.204ZM13.371 17.288C13.1844 17.288 13.0537 17.3533 12.979 17.484H13.595C13.595 17.3533 13.5204 17.288 13.371 17.288ZM13.049 17.778C13.049 17.8527 13.1424 17.89 13.329 17.89C13.5064 17.834 13.623 17.7827 13.679 17.736C13.6604 17.7173 13.6324 17.694 13.595 17.666C13.5577 17.6473 13.525 17.638 13.497 17.638C13.441 17.6473 13.3664 17.6613 13.273 17.68C13.189 17.6987 13.119 17.7173 13.063 17.736L13.049 17.778ZM18.341 18.072C18.369 18.0533 18.397 18.0253 18.425 17.988C18.4624 17.9507 18.4857 17.918 18.495 17.89C18.3084 17.8433 18.1964 17.82 18.159 17.82C18.1404 17.82 18.1217 17.8293 18.103 17.848C18.0844 17.8667 18.075 17.8807 18.075 17.89C18.075 17.9273 18.1077 17.9647 18.173 18.002C18.2384 18.0487 18.2944 18.072 18.341 18.072ZM17.627 18.506C17.6737 18.4873 17.7437 18.4453 17.837 18.38C17.9397 18.3147 17.991 18.268 17.991 18.24L17.809 18.17C17.8744 18.1047 17.907 18.058 17.907 18.03L17.893 18.002C17.641 18.1607 17.1744 18.24 16.493 18.24C16.2877 18.24 15.9797 18.2307 15.569 18.212C15.261 18.184 14.953 18.17 14.645 18.17C14.617 18.17 14.5564 18.1793 14.463 18.198C14.379 18.226 14.3137 18.24 14.267 18.24C14.2297 18.2307 14.1877 18.1887 14.141 18.114C14.1037 18.0487 14.0664 17.9927 14.029 17.946C13.9917 17.9087 13.9264 17.89 13.833 17.89C13.7864 17.89 13.6417 17.9507 13.399 18.072C13.4737 18.184 13.6044 18.2727 13.791 18.338C13.987 18.4033 14.2017 18.4593 14.435 18.506C14.4537 18.4873 14.4817 18.4687 14.519 18.45C14.5564 18.4313 14.589 18.422 14.617 18.422C14.6264 18.422 14.6544 18.45 14.701 18.506C14.7477 18.562 14.7804 18.5947 14.799 18.604C14.8924 18.604 14.9857 18.6227 15.079 18.66C15.1724 18.6973 15.2284 18.7207 15.247 18.73C15.3684 18.7953 15.4757 18.8373 15.569 18.856C15.6344 18.8467 15.667 18.7627 15.667 18.604C15.751 18.66 15.793 18.688 15.793 18.688C15.8024 18.688 15.8164 18.6787 15.835 18.66C15.8537 18.6507 15.8864 18.646 15.933 18.646C15.933 18.7393 15.9377 18.7953 15.947 18.814C15.9657 18.842 16.017 18.856 16.101 18.856C16.2784 18.856 16.549 18.8093 16.913 18.716C17.2864 18.6227 17.473 18.5247 17.473 18.422C17.473 18.4407 17.4917 18.4593 17.529 18.478C17.5664 18.4967 17.599 18.506 17.627 18.506Z" fill="#888888"/>
</svg>
