<svg width="24" height="24" viewBox="0 0 24 24" fill="none" xmlns="http://www.w3.org/2000/svg">
<path d="M8.47999 7.2H10.062L11.616 17H9.89399L9.51599 14.55H6.40799L5.18999 17H3.46799L8.47999 7.2ZM9.23599 12.968L8.81599 9.734L7.24799 12.968H9.23599ZM14.4148 20.5C13.7801 20.5 13.2528 20.4113 12.8328 20.234C12.4128 20.066 12.1095 19.842 11.9228 19.562C11.7268 19.2913 11.6288 18.9973 11.6288 18.68C11.6288 18.3253 11.7501 17.9893 11.9928 17.672C12.2261 17.364 12.5715 17.098 13.0288 16.874C12.8888 16.7713 12.7768 16.65 12.6928 16.51C12.6181 16.3607 12.5808 16.2067 12.5808 16.048C12.5808 15.5907 12.8655 15.2173 13.4348 14.928C13.2108 14.7133 13.0428 14.4473 12.9308 14.13C12.8188 13.8127 12.7628 13.4767 12.7628 13.122C12.7628 12.562 12.8935 12.0393 13.1548 11.554C13.4161 11.0593 13.7895 10.6627 14.2748 10.364C14.7601 10.0653 15.3155 9.916 15.9408 9.916C16.5568 9.916 17.0421 10.0653 17.3968 10.364C17.5648 10.2707 17.7795 10.1913 18.0408 10.126C18.3115 10.0607 18.5915 10.028 18.8808 10.028H19.2728L18.9928 11.05H18.4188C18.3068 11.05 18.1715 11.064 18.0128 11.092C18.1341 11.4 18.1948 11.7687 18.1948 12.198C18.1948 12.7487 18.0641 13.2713 17.8028 13.766C17.5415 14.2513 17.1681 14.648 16.6828 14.956C16.1975 15.2547 15.6421 15.404 15.0168 15.404C14.7741 15.404 14.5315 15.376 14.2888 15.32C14.1581 15.4133 14.0928 15.5207 14.0928 15.642C14.0928 15.7913 14.2048 15.9033 14.4288 15.978C14.6621 16.0433 15.0728 16.1273 15.6608 16.23C16.3235 16.3327 16.8741 16.51 17.3128 16.762C17.7608 17.0047 17.9848 17.4293 17.9848 18.036C17.9848 18.484 17.8401 18.8947 17.5508 19.268C17.2615 19.6507 16.8461 19.9493 16.3048 20.164C15.7635 20.388 15.1335 20.5 14.4148 20.5ZM15.2128 14.228C15.6795 14.228 16.0528 14.0413 16.3328 13.668C16.6128 13.2947 16.7528 12.8467 16.7528 12.324C16.7528 11.5213 16.4121 11.12 15.7308 11.12C15.2641 11.12 14.8908 11.302 14.6108 11.666C14.3401 12.03 14.2048 12.478 14.2048 13.01C14.2048 13.402 14.2888 13.7053 14.4568 13.92C14.6248 14.1253 14.8768 14.228 15.2128 14.228ZM14.5408 19.338C15.0915 19.338 15.5581 19.2353 15.9408 19.03C16.3235 18.834 16.5148 18.5867 16.5148 18.288C16.5148 18.008 16.3561 17.8027 16.0388 17.672C15.7215 17.5507 15.2875 17.4527 14.7368 17.378C14.3541 17.3127 14.1488 17.2753 14.1208 17.266C13.8035 17.3687 13.5375 17.518 13.3228 17.714C13.1081 17.9193 13.0008 18.1527 13.0008 18.414C13.0008 18.694 13.1361 18.918 13.4068 19.086C13.6775 19.254 14.0555 19.338 14.5408 19.338Z" fill="#333333"/>
</svg>
