<svg width="24" height="24" viewBox="0 0 24 24" fill="none" xmlns="http://www.w3.org/2000/svg">
<path d="M3.49534 17L8.50034 7.2H10.0543L11.6013 17H9.90734L9.52234 14.417L9.27734 13.101L8.73834 8.95L9.15134 9.02L7.19134 13.087L6.47034 14.431L5.18934 17H3.49534ZM5.84734 14.529L6.66634 12.989H9.74634L10.0263 14.529H5.84734ZM15.0168 15.411C14.2935 15.411 13.7358 15.2103 13.3438 14.809C12.9518 14.4077 12.7558 13.8477 12.7558 13.129C12.7558 12.5783 12.8865 12.0603 13.1478 11.575C13.4091 11.085 13.7755 10.6883 14.2468 10.385C14.7228 10.0817 15.2851 9.93 15.9338 9.93C16.6198 9.93 17.1658 10.1283 17.5718 10.525C17.9778 10.9217 18.1808 11.4817 18.1808 12.205C18.1808 12.611 18.1061 13.0053 17.9568 13.388C17.8121 13.766 17.6021 14.109 17.3268 14.417C17.0515 14.7203 16.7178 14.963 16.3258 15.145C15.9338 15.3223 15.4975 15.411 15.0168 15.411ZM15.2058 14.249C15.5325 14.249 15.8101 14.1603 16.0388 13.983C16.2721 13.801 16.4495 13.563 16.5708 13.269C16.6968 12.975 16.7598 12.66 16.7598 12.324C16.7598 11.9273 16.6735 11.6263 16.5008 11.421C16.3281 11.211 16.0691 11.106 15.7238 11.106C15.3971 11.106 15.1171 11.1947 14.8838 11.372C14.6551 11.5493 14.4801 11.7827 14.3588 12.072C14.2421 12.3613 14.1838 12.6763 14.1838 13.017C14.1838 13.409 14.2678 13.7123 14.4358 13.927C14.6085 14.1417 14.8651 14.249 15.2058 14.249ZM14.4078 20.5C13.7358 20.5 13.1968 20.409 12.7908 20.227C12.3848 20.0497 12.0908 19.821 11.9088 19.541C11.7268 19.2657 11.6358 18.981 11.6358 18.687C11.6358 18.4443 11.6918 18.2087 11.8038 17.98C11.9158 17.7513 12.0838 17.5367 12.3078 17.336C12.5365 17.1353 12.8211 16.958 13.1618 16.804L14.2188 17.224C14.0135 17.28 13.8151 17.364 13.6238 17.476C13.4371 17.588 13.2831 17.7233 13.1618 17.882C13.0451 18.0407 12.9868 18.2203 12.9868 18.421C12.9868 18.701 13.1198 18.9273 13.3858 19.1C13.6518 19.2727 14.0345 19.359 14.5338 19.359C14.9071 19.359 15.2431 19.31 15.5418 19.212C15.8405 19.1187 16.0761 18.9903 16.2488 18.827C16.4215 18.6637 16.5078 18.484 16.5078 18.288C16.5078 18.0593 16.4121 17.8867 16.2208 17.77C16.0341 17.6533 15.7915 17.5647 15.4928 17.504C15.1941 17.4433 14.8768 17.3873 14.5408 17.336C14.2095 17.2847 13.8945 17.2147 13.5958 17.126C13.2971 17.042 13.0521 16.916 12.8608 16.748C12.6741 16.58 12.5808 16.3443 12.5808 16.041C12.5808 15.8217 12.6625 15.6093 12.8258 15.404C12.9891 15.1987 13.2388 15.0213 13.5748 14.872L14.3938 15.264C14.3005 15.3013 14.2211 15.355 14.1558 15.425C14.0951 15.4903 14.0648 15.5673 14.0648 15.656C14.0648 15.8147 14.2001 15.9313 14.4708 16.006C14.7415 16.076 15.1335 16.1553 15.6468 16.244C15.8708 16.2813 16.1135 16.3327 16.3748 16.398C16.6408 16.4633 16.8928 16.559 17.1308 16.685C17.3735 16.811 17.5718 16.9813 17.7258 17.196C17.8798 17.4153 17.9568 17.6977 17.9568 18.043C17.9568 18.4863 17.8145 18.8923 17.5298 19.261C17.2498 19.6343 16.8438 19.933 16.3118 20.157C15.7798 20.3857 15.1451 20.5 14.4078 20.5ZM17.8518 11.113L17.3268 10.42C17.4761 10.322 17.6885 10.2357 17.9638 10.161C18.2391 10.0817 18.5425 10.042 18.8738 10.042H19.2518L18.9648 11.043H18.4118C18.3651 11.043 18.2858 11.0477 18.1738 11.057C18.0618 11.0663 17.9545 11.085 17.8518 11.113Z" fill="#888888"/>
</svg>
