<svg width="24" height="24" viewBox="0 0 24 24" fill="none" xmlns="http://www.w3.org/2000/svg">
<path d="M10.6068 14.34H7.56878L6.78478 17H5.41278L8.42278 7.2H9.73878L12.7488 17H11.3908L10.6068 14.34ZM10.2568 13.15L9.08078 9.174L7.91878 13.15H10.2568ZM15.8036 20.5C14.9916 20.5 14.329 20.332 13.8156 19.996C13.3116 19.6693 13.0596 19.2167 13.0596 18.638C13.0596 17.9753 13.4236 17.3967 14.1516 16.902C13.7223 16.6967 13.5076 16.384 13.5076 15.964C13.5076 15.7493 13.573 15.5627 13.7036 15.404C13.8343 15.236 14.021 15.1053 14.2636 15.012C13.9183 14.7693 13.6523 14.4427 13.4656 14.032C13.279 13.6213 13.1856 13.1687 13.1856 12.674C13.1856 12.17 13.2836 11.7173 13.4796 11.316C13.6756 10.9053 13.9556 10.5833 14.3196 10.35C14.693 10.1167 15.127 10 15.6216 10C16.219 10 16.723 10.168 17.1336 10.504C17.4976 10.168 17.885 10 18.2956 10C18.417 10 18.5336 10.0093 18.6456 10.028L18.5196 11.008C18.4263 10.9893 18.333 10.98 18.2396 10.98C18.0436 10.98 17.8476 11.022 17.6516 11.106C17.9223 11.5447 18.0576 12.0673 18.0576 12.674C18.0576 13.178 17.9596 13.64 17.7636 14.06C17.5676 14.4707 17.283 14.802 16.9096 15.054C16.5456 15.2967 16.1163 15.418 15.6216 15.418C15.3603 15.418 15.127 15.3853 14.9216 15.32C14.7443 15.3947 14.6556 15.502 14.6556 15.642C14.6556 15.7633 14.7163 15.8613 14.8376 15.936C14.959 16.0013 15.1736 16.0807 15.4816 16.174L16.4476 16.468C17.0263 16.6453 17.479 16.8227 17.8056 17C18.1416 17.168 18.389 17.3687 18.5476 17.602C18.7063 17.8447 18.7856 18.1433 18.7856 18.498C18.7856 19.1327 18.5103 19.6227 17.9596 19.968C17.409 20.3227 16.6903 20.5 15.8036 20.5ZM15.6216 14.452C16.023 14.452 16.3356 14.2933 16.5596 13.976C16.7836 13.6493 16.8956 13.22 16.8956 12.688C16.8956 12.184 16.7836 11.7733 16.5596 11.456C16.3356 11.1387 16.023 10.98 15.6216 10.98C15.2203 10.98 14.9076 11.1387 14.6836 11.456C14.4596 11.764 14.3476 12.1747 14.3476 12.688C14.3476 13.22 14.4596 13.6493 14.6836 13.976C14.9076 14.2933 15.2203 14.452 15.6216 14.452ZM15.8876 19.506C16.3916 19.506 16.793 19.4267 17.0916 19.268C17.3996 19.1093 17.5536 18.876 17.5536 18.568C17.5536 18.316 17.4603 18.1153 17.2736 17.966C17.087 17.826 16.7463 17.6813 16.2516 17.532L15.1316 17.196C14.497 17.5973 14.1796 18.0173 14.1796 18.456C14.1796 18.8013 14.329 19.0627 14.6276 19.24C14.9356 19.4173 15.3556 19.506 15.8876 19.506Z" fill="#333333"/>
</svg>
