<svg width="24" height="24" viewBox="0 0 24 24" fill="none" xmlns="http://www.w3.org/2000/svg">
<path d="M8.23975 12.66L5.80375 12.646C4.80508 14.4567 4.24508 15.46 4.12375 15.656C4.00242 15.852 3.88575 16.0713 3.77375 16.314C3.51242 16.8833 3.29775 17.168 3.12975 17.168C2.72842 17.168 2.44375 17.0747 2.27575 16.888C2.26642 16.8693 2.26175 16.8413 2.26175 16.804C2.26175 16.7667 2.28975 16.6967 2.34575 16.594C2.41108 16.482 2.50908 16.3327 2.63975 16.146C2.77975 15.9593 2.87308 15.8287 2.91975 15.754C4.03975 13.766 5.05242 12.002 5.95775 10.462C6.87242 8.91267 7.39042 8.02133 7.51175 7.788C7.64242 7.54533 7.75442 7.36333 7.84775 7.242C8.01575 7.13933 8.20708 7.088 8.42175 7.088C8.64575 7.088 8.79042 7.09733 8.85575 7.116C8.92108 7.13467 8.97708 7.172 9.02375 7.228C9.07042 7.27467 9.10308 7.31667 9.12175 7.354C9.14975 7.39133 9.18708 7.46133 9.23375 7.564C9.28042 7.66667 9.35508 7.83 9.45775 8.054C9.56042 8.278 9.89175 8.92667 10.4518 10C11.0118 11.064 11.3851 11.806 11.5718 12.226C11.7584 12.646 11.9404 13.0613 12.1178 13.472C12.4911 14.3213 12.8271 15.0167 13.1258 15.558C13.4338 16.09 13.5878 16.44 13.5878 16.608C13.5878 16.7107 13.4431 16.832 13.1538 16.972C12.8738 17.1027 12.6778 17.168 12.5658 17.168C12.3698 17.168 12.1878 16.916 12.0198 16.412L11.7538 15.88C11.5764 15.4973 11.3384 14.998 11.0398 14.382C10.7411 13.7567 10.4564 13.1687 10.1858 12.618C9.97108 12.6273 9.75175 12.632 9.52775 12.632C9.31308 12.6507 8.88375 12.66 8.23975 12.66ZM6.33575 11.694L7.86175 11.68H9.73775C9.64442 11.4933 9.53242 11.26 9.40175 10.98C9.28042 10.7 9.20575 10.5413 9.17775 10.504C9.15908 10.4573 9.12642 10.3827 9.07975 10.28C9.03308 10.1773 8.98642 10.0793 8.93975 9.986C8.89308 9.89267 8.83708 9.78067 8.77175 9.65C8.71575 9.51933 8.65975 9.40267 8.60375 9.3C8.54775 9.188 8.49175 9.08533 8.43575 8.992C8.31442 8.77733 8.23042 8.67 8.18375 8.67C8.13708 8.67 8.07642 8.72133 8.00175 8.824C7.92708 8.91733 7.83842 9.04333 7.73575 9.202C7.64242 9.36067 7.55375 9.51467 7.46975 9.664C7.21775 10.1307 7.06842 10.3967 7.02175 10.462C6.98442 10.5273 6.93308 10.616 6.86775 10.728C6.81175 10.84 6.72775 10.9893 6.61575 11.176C6.51308 11.3627 6.41975 11.5353 6.33575 11.694ZM16.0662 12.8C16.0662 13.6213 16.4349 14.032 17.1722 14.032C17.5269 14.032 17.7975 13.9107 17.9842 13.668C18.1802 13.4253 18.2782 13.0987 18.2782 12.688C18.2782 12.268 18.1802 11.96 17.9842 11.764C17.7975 11.5587 17.5362 11.456 17.2002 11.456C16.8642 11.456 16.5889 11.5773 16.3742 11.82C16.1689 12.0533 16.0662 12.38 16.0662 12.8ZM16.9342 17.518H16.6542C16.4862 17.518 16.2342 17.4807 15.8982 17.406C15.6089 17.406 15.4642 17.7653 15.4642 18.484C15.4642 19.3707 16.1269 19.8373 17.4522 19.884C18.0589 19.884 18.5395 19.7627 18.8942 19.52C19.2489 19.2867 19.4262 18.9413 19.4262 18.484C19.4262 18.0547 19.2069 17.784 18.7682 17.672C18.3949 17.5693 17.7835 17.518 16.9342 17.518ZM19.3142 12.086C19.3515 12.31 19.3702 12.4547 19.3702 12.52C19.3702 13.1453 19.1509 13.696 18.7122 14.172C18.5815 14.312 18.3482 14.4567 18.0122 14.606C17.6762 14.7553 17.3122 14.8393 16.9202 14.858C16.5562 14.858 16.3275 14.8813 16.2342 14.928C16.1409 14.9653 16.0615 15.0027 15.9962 15.04C15.9402 15.0773 15.8982 15.124 15.8702 15.18C15.7955 15.3107 15.7582 15.4507 15.7582 15.6C15.7582 15.74 15.7862 15.8567 15.8422 15.95C15.9075 16.034 15.9682 16.0993 16.0242 16.146C16.0895 16.1833 16.1969 16.216 16.3462 16.244C16.5702 16.272 17.0182 16.2953 17.6902 16.314C18.3622 16.3233 18.8802 16.3653 19.2442 16.44C20.2802 16.6733 20.7982 17.266 20.7982 18.218C20.7982 18.7033 20.6162 19.1373 20.2522 19.52C19.8975 19.9027 19.4589 20.1827 18.9362 20.36C18.4229 20.5467 17.9375 20.64 17.4802 20.64C17.0322 20.64 16.6495 20.612 16.3322 20.556C16.0149 20.5 15.6975 20.4067 15.3802 20.276C15.0722 20.1453 14.8249 19.9493 14.6382 19.688C14.4515 19.436 14.3582 19.1373 14.3582 18.792C14.3582 18.4467 14.4422 18.1247 14.6102 17.826C14.7782 17.5367 14.9695 17.3173 15.1842 17.168C14.7735 16.8133 14.5682 16.4353 14.5682 16.034C14.5682 15.8193 14.6102 15.628 14.6942 15.46C14.7782 15.292 14.8622 15.1707 14.9462 15.096C15.0395 15.0213 15.1609 14.9373 15.3102 14.844C15.4689 14.7507 15.5762 14.6807 15.6322 14.634C15.4549 14.494 15.3149 14.3727 15.2122 14.27C15.1189 14.1673 15.0115 13.99 14.8902 13.738C14.7782 13.4767 14.7222 13.1873 14.7222 12.87C14.7222 12.2447 14.9695 11.7407 15.4642 11.358C15.9682 10.9753 16.5982 10.784 17.3542 10.784C18.1195 10.784 18.6562 10.966 18.9642 11.33C19.5615 10.9193 20.0702 10.714 20.4902 10.714C20.6209 10.714 20.7189 10.8027 20.7842 10.98C20.8589 11.1573 20.8962 11.3347 20.8962 11.512C20.8962 11.68 20.8729 11.7873 20.8262 11.834C20.7795 11.8713 20.6955 11.89 20.5742 11.89C20.0702 11.89 19.6502 11.9553 19.3142 12.086Z" fill="#888888"/>
</svg>
