<svg width="24" height="24" viewBox="0 0 24 24" fill="none" xmlns="http://www.w3.org/2000/svg">
<path d="M9.08861 15.796H6.34461L6.16261 17H3.64261L5.44861 7.592H9.98461L11.7906 17H9.27061L9.08861 15.796ZM8.02461 9.636H7.40861L6.76461 13.64H8.66861L8.02461 9.636ZM15.6211 20.178C14.6411 20.178 13.8338 20.038 13.1991 19.758C12.5738 19.4873 12.2611 19.0347 12.2611 18.4C12.2611 18.1107 12.3451 17.8167 12.5131 17.518C12.6811 17.2287 12.9145 16.9627 13.2131 16.72C12.8118 16.44 12.6111 16.09 12.6111 15.67C12.6111 15.5113 12.6485 15.3573 12.7231 15.208C12.7978 15.0587 12.9565 14.8113 13.1991 14.466C12.9191 14.186 12.7045 13.8873 12.5551 13.57C12.4151 13.2433 12.3451 12.87 12.3451 12.45C12.3451 11.5727 12.6298 10.924 13.1991 10.504C13.7778 10.0747 14.5385 9.86 15.4811 9.86C15.8545 9.86 16.3258 9.92067 16.8951 10.042L19.2611 9.958V11.862L18.4071 11.736C18.5005 11.9507 18.5565 12.1 18.5751 12.184C18.5938 12.2587 18.6031 12.3847 18.6031 12.562C18.6031 13.4113 18.3511 14.018 17.8471 14.382C17.3431 14.746 16.5871 14.928 15.5791 14.928C15.3085 14.928 15.1125 14.9093 14.9911 14.872C14.9445 14.9653 14.9211 15.0913 14.9211 15.25C14.9211 15.3807 15.0005 15.4647 15.1591 15.502C15.3178 15.5393 15.6118 15.5673 16.0411 15.586C16.8251 15.614 17.4458 15.6793 17.9031 15.782C18.3605 15.8753 18.7151 16.062 18.9671 16.342C19.2191 16.622 19.3451 17.042 19.3451 17.602C19.3451 18.4887 19.0278 19.1373 18.3931 19.548C17.7678 19.968 16.8438 20.178 15.6211 20.178ZM15.5091 13.108C15.7238 13.108 15.8965 13.0427 16.0271 12.912C16.1578 12.772 16.2231 12.604 16.2231 12.408C16.2231 12.2027 16.1578 12.0393 16.0271 11.918C15.8965 11.7873 15.7191 11.722 15.4951 11.722C15.2805 11.722 15.1078 11.7827 14.9771 11.904C14.8465 12.0253 14.7811 12.1887 14.7811 12.394C14.7811 12.5993 14.8465 12.772 14.9771 12.912C15.1171 13.0427 15.2945 13.108 15.5091 13.108ZM15.7751 18.19C16.1298 18.19 16.4051 18.162 16.6011 18.106C16.7971 18.05 16.8951 17.98 16.8951 17.896C16.8951 17.7373 16.7598 17.658 16.4891 17.658C16.3958 17.658 16.3071 17.6627 16.2231 17.672C16.1391 17.6813 16.0598 17.686 15.9851 17.686C15.9291 17.686 15.8871 17.6813 15.8591 17.672L14.7671 17.56C14.7578 17.644 14.7391 17.728 14.7111 17.812C14.6831 17.896 14.6645 17.952 14.6551 17.98C14.6551 18.036 14.7625 18.0827 14.9771 18.12C15.1918 18.1667 15.4578 18.19 15.7751 18.19Z" fill="#333333"/>
</svg>
