<svg width="24" height="24" viewBox="0 0 24 24" fill="none" xmlns="http://www.w3.org/2000/svg">
<path d="M12.6426 15.3301C12.6973 15.4941 12.7314 15.624 12.7451 15.7197C12.7588 15.8154 12.7406 15.8883 12.6904 15.9385C12.6403 15.984 12.5514 16.0114 12.4238 16.0205C12.2962 16.0342 12.1208 16.041 11.8975 16.041C11.665 16.041 11.4827 16.0365 11.3506 16.0273C11.223 16.0228 11.125 16.0114 11.0566 15.9932C10.9883 15.9704 10.9404 15.9408 10.9131 15.9043C10.8857 15.8678 10.863 15.82 10.8447 15.7607L10.25 13.9834H6.92773L6.36719 15.7129C6.34896 15.7767 6.32389 15.8314 6.29199 15.877C6.26465 15.918 6.2168 15.9521 6.14844 15.9795C6.08464 16.0023 5.99121 16.0182 5.86816 16.0273C5.74967 16.0365 5.59245 16.041 5.39648 16.041C5.18685 16.041 5.02279 16.0342 4.9043 16.0205C4.78581 16.0068 4.70378 15.9749 4.6582 15.9248C4.61263 15.8701 4.59668 15.7949 4.61035 15.6992C4.62402 15.6035 4.6582 15.4759 4.71289 15.3164L7.44043 7.46875C7.46777 7.39128 7.49967 7.32975 7.53613 7.28418C7.57259 7.23405 7.62956 7.19759 7.70703 7.1748C7.78906 7.14746 7.90072 7.13151 8.04199 7.12695C8.18327 7.11784 8.37012 7.11328 8.60254 7.11328C8.87142 7.11328 9.08561 7.11784 9.24512 7.12695C9.40462 7.13151 9.52767 7.14746 9.61426 7.1748C9.7054 7.19759 9.76921 7.23405 9.80566 7.28418C9.84668 7.33431 9.88086 7.40267 9.9082 7.48926L12.6426 15.3301ZM8.58203 8.84277H8.5752L7.32422 12.6025H9.83301L8.58203 8.84277ZM19.2803 10.0938C19.2803 10.3125 19.2552 10.4743 19.2051 10.5791C19.1549 10.6839 19.0934 10.7363 19.0205 10.7363H18.3027C18.403 10.8457 18.4736 10.971 18.5146 11.1123C18.5602 11.249 18.583 11.3926 18.583 11.543C18.583 11.8984 18.5238 12.2152 18.4053 12.4932C18.2868 12.7666 18.1159 12.999 17.8926 13.1904C17.6738 13.3773 17.4072 13.5208 17.0928 13.6211C16.7829 13.7168 16.4365 13.7646 16.0537 13.7646C15.8577 13.7646 15.6709 13.7419 15.4932 13.6963C15.3154 13.6462 15.1787 13.5892 15.083 13.5254C15.0283 13.5846 14.9782 13.6553 14.9326 13.7373C14.8916 13.8193 14.8711 13.9105 14.8711 14.0107C14.8711 14.1429 14.9281 14.2523 15.042 14.3389C15.1605 14.4209 15.3245 14.4665 15.5342 14.4756L17.0176 14.5303C17.3639 14.5439 17.6715 14.5941 17.9404 14.6807C18.2139 14.7627 18.4417 14.8812 18.624 15.0361C18.8109 15.1865 18.9521 15.3688 19.0479 15.583C19.1481 15.7972 19.1982 16.041 19.1982 16.3145C19.1982 16.6152 19.1322 16.8978 19 17.1621C18.8678 17.431 18.6696 17.6634 18.4053 17.8594C18.141 18.0553 17.8083 18.2103 17.4072 18.3242C17.0107 18.4382 16.5459 18.4951 16.0127 18.4951C15.4932 18.4951 15.0488 18.4541 14.6797 18.3721C14.3151 18.29 14.0143 18.1761 13.7773 18.0303C13.5449 17.8844 13.374 17.709 13.2646 17.5039C13.1598 17.3034 13.1074 17.0824 13.1074 16.8408C13.1074 16.6904 13.1257 16.5469 13.1621 16.4102C13.2031 16.2734 13.2601 16.1413 13.333 16.0137C13.4105 15.8906 13.5039 15.7721 13.6133 15.6582C13.7227 15.5443 13.848 15.4349 13.9893 15.3301C13.7933 15.2253 13.6406 15.084 13.5312 14.9062C13.4264 14.724 13.374 14.5257 13.374 14.3115C13.374 14.0426 13.4355 13.7988 13.5586 13.5801C13.6816 13.3568 13.8411 13.1562 14.0371 12.9785C13.8776 12.819 13.75 12.6276 13.6543 12.4043C13.5586 12.181 13.5107 11.903 13.5107 11.5703C13.5107 11.2148 13.5723 10.8981 13.6953 10.6201C13.8229 10.3376 13.9984 10.1006 14.2217 9.90918C14.445 9.71322 14.7116 9.5651 15.0215 9.46484C15.3314 9.36003 15.6732 9.30762 16.0469 9.30762C16.2383 9.30762 16.4206 9.31901 16.5938 9.3418C16.7715 9.36458 16.9355 9.39648 17.0859 9.4375H19.0205C19.098 9.4375 19.1595 9.48763 19.2051 9.58789C19.2552 9.68815 19.2803 9.85677 19.2803 10.0938ZM17.0723 11.5361C17.0723 11.208 16.9811 10.9528 16.7988 10.7705C16.6165 10.5882 16.359 10.4971 16.0264 10.4971C15.8577 10.4971 15.7096 10.5267 15.582 10.5859C15.4544 10.6406 15.3473 10.7181 15.2607 10.8184C15.1787 10.9141 15.1172 11.028 15.0762 11.1602C15.0352 11.2878 15.0146 11.4222 15.0146 11.5635C15.0146 11.8734 15.1058 12.1195 15.2881 12.3018C15.4704 12.4795 15.7233 12.5684 16.0469 12.5684C16.2201 12.5684 16.3704 12.541 16.498 12.4863C16.6257 12.4316 16.7305 12.3564 16.8125 12.2607C16.8991 12.165 16.9629 12.0557 17.0039 11.9326C17.0495 11.805 17.0723 11.6729 17.0723 11.5361ZM17.4756 16.4033C17.4756 16.1982 17.3936 16.041 17.2295 15.9316C17.0654 15.8223 16.8398 15.763 16.5527 15.7539L15.3291 15.7197C15.2106 15.8063 15.1149 15.8906 15.042 15.9727C14.9736 16.0501 14.9167 16.1253 14.8711 16.1982C14.8301 16.2712 14.8027 16.3418 14.7891 16.4102C14.7754 16.4785 14.7686 16.5492 14.7686 16.6221C14.7686 16.8499 14.8825 17.0231 15.1104 17.1416C15.3428 17.2601 15.6686 17.3193 16.0879 17.3193C16.3477 17.3193 16.5664 17.292 16.7441 17.2373C16.9219 17.1872 17.0654 17.1188 17.1748 17.0322C17.2842 16.9456 17.3617 16.8477 17.4072 16.7383C17.4528 16.6335 17.4756 16.5218 17.4756 16.4033Z" fill="#333333"/>
</svg>
