<svg width="24" height="24" viewBox="0 0 24 24" fill="none" xmlns="http://www.w3.org/2000/svg">
<path d="M12.9639 15.7334C12.9639 15.7881 12.9548 15.8542 12.9365 15.9316C12.9365 15.9772 12.9137 16 12.8682 16H10.3867C10.3594 16 10.3503 15.9727 10.3594 15.918C10.3594 15.8952 10.3617 15.861 10.3662 15.8154C10.3708 15.7699 10.373 15.7425 10.373 15.7334C10.3822 15.6696 10.4118 15.6377 10.4619 15.6377H11.0156C11.1706 15.6377 11.2321 15.4964 11.2002 15.2139C11.1911 15.141 11.1204 14.7399 10.9883 14.0107C10.8607 13.2816 10.7855 12.8737 10.7627 12.7871C10.7445 12.7005 10.7035 12.6572 10.6396 12.6572H7.51562C7.48828 12.6618 7.46094 12.6891 7.43359 12.7393C7.19206 13.1676 6.92546 13.7646 6.63379 14.5303C6.50163 14.8812 6.42415 15.1569 6.40137 15.3574C6.37402 15.5443 6.40137 15.6377 6.4834 15.6377H7.16699C7.21712 15.6377 7.23535 15.6696 7.22168 15.7334C7.21712 15.7835 7.20801 15.8496 7.19434 15.9316C7.19434 15.9772 7.17611 16 7.13965 16H4.84277C4.7972 16 4.77441 15.9772 4.77441 15.9316C4.79264 15.8542 4.80176 15.779 4.80176 15.7061C4.81543 15.6605 4.83366 15.6377 4.85645 15.6377H5.2666C5.38509 15.6377 5.52865 15.4964 5.69727 15.2139C6.35352 13.9378 7.02572 12.6276 7.71387 11.2832C8.37012 9.99349 9.05143 8.65365 9.75781 7.26367C9.85352 7.07227 9.96517 6.84896 10.0928 6.59375C10.1748 6.45247 10.25 6.37272 10.3184 6.35449C10.4323 6.31803 10.5918 6.26562 10.7969 6.19727C10.8288 6.18815 10.8561 6.18359 10.8789 6.18359C10.9199 6.20638 10.9518 6.26335 10.9746 6.35449C10.9701 6.37728 10.9518 6.40462 10.9199 6.43652C10.9017 6.45931 10.8447 6.52539 10.749 6.63477C10.6533 6.74414 10.6032 6.84212 10.5986 6.92871C10.5895 7.06999 10.5986 7.22266 10.626 7.38672C10.7855 8.28906 11.0794 9.736 11.5078 11.7275C11.6947 12.6208 11.9248 13.6621 12.1982 14.8516C12.3395 15.3757 12.4967 15.6377 12.6699 15.6377H12.9229C12.9639 15.6377 12.9775 15.6696 12.9639 15.7334ZM10.585 12.0352C10.5075 11.6296 10.3913 11.028 10.2363 10.2305C10.1634 9.875 10.0426 9.18001 9.87402 8.14551C9.86035 8.07259 9.8444 8.03613 9.82617 8.03613C9.80339 8.03613 9.77604 8.07259 9.74414 8.14551C9.44336 8.72428 9.12663 9.35091 8.79395 10.0254C8.7666 10.0846 8.59798 10.4242 8.28809 11.0439C7.97819 11.6592 7.81641 11.9805 7.80273 12.0078C7.77539 12.0488 7.76172 12.0785 7.76172 12.0967C7.76172 12.124 7.77995 12.1377 7.81641 12.1377H10.5439C10.5713 12.1377 10.585 12.1035 10.585 12.0352ZM19.0752 9.86816C19.0752 10.2054 19.041 10.472 18.9727 10.668C18.9681 10.6953 18.9613 10.7227 18.9521 10.75C18.943 10.7728 18.8997 10.791 18.8223 10.8047C18.6536 10.8138 18.485 10.8229 18.3164 10.832C18.0612 10.8548 17.9404 10.9118 17.9541 11.0029C17.9814 11.1715 17.9951 11.3766 17.9951 11.6182C17.9951 11.8962 17.9268 12.2083 17.79 12.5547C17.6579 12.901 17.5029 13.1585 17.3252 13.3271C16.8968 13.7282 16.4388 13.9469 15.9512 13.9834C15.7962 13.9925 15.6755 14.0312 15.5889 14.0996C15.4202 14.2318 15.3337 14.4072 15.3291 14.626C15.32 14.8402 15.4499 15.0475 15.7188 15.248C15.8327 15.3346 16.1016 15.4577 16.5254 15.6172C17.373 15.9362 17.9222 16.2165 18.1729 16.458C18.4235 16.7041 18.5465 17.0003 18.542 17.3467C18.5374 17.8298 18.2184 18.3219 17.585 18.8232C16.9697 19.3063 16.1699 19.5479 15.1855 19.5479C14.502 19.5479 13.9414 19.3906 13.5039 19.0762C13.0983 18.7891 12.8978 18.4176 12.9023 17.9619C12.9115 17.5244 13.1963 17.1165 13.7568 16.7383C14.1305 16.4831 14.5749 16.2712 15.0898 16.1025C15.1536 16.0798 15.1582 16.0456 15.1035 16C14.7891 15.7721 14.6364 15.4417 14.6455 15.0088C14.6501 14.6396 14.8597 14.3138 15.2744 14.0312C15.3245 13.9993 15.3086 13.9697 15.2266 13.9424C14.9714 13.8695 14.7275 13.694 14.4951 13.416C14.2673 13.1335 14.1556 12.7301 14.1602 12.2061C14.1693 11.4814 14.4359 10.8617 14.96 10.3467C15.4248 9.88639 15.9466 9.65625 16.5254 9.65625C16.8672 9.65625 17.1383 9.71322 17.3389 9.82715C17.4801 9.92741 17.6055 10.0482 17.7148 10.1895C17.7513 10.2259 17.8219 10.2441 17.9268 10.2441C18.346 10.2441 18.6058 10.2031 18.7061 10.1211C18.7926 10.0482 18.8678 9.9502 18.9316 9.82715C18.9453 9.7998 18.9727 9.79069 19.0137 9.7998C19.0547 9.80892 19.0752 9.83171 19.0752 9.86816ZM17.1816 11.8164C17.1953 11.3698 17.1497 11.0052 17.0449 10.7227C16.89 10.3034 16.6051 10.0938 16.1904 10.0938C15.8896 10.0938 15.6322 10.2008 15.418 10.415C15.1536 10.6794 15.0146 11.1738 15.001 11.8984C14.9873 12.4954 15.0374 12.9193 15.1514 13.1699C15.3018 13.498 15.541 13.6621 15.8691 13.6621C16.2383 13.6621 16.5368 13.5322 16.7646 13.2725C17.029 12.9626 17.168 12.4772 17.1816 11.8164ZM17.7012 17.5791C17.6875 17.1598 17.4095 16.834 16.8672 16.6016C16.4206 16.4102 16.0013 16.3145 15.6094 16.3145C15.0944 16.3145 14.6501 16.4717 14.2764 16.7861C13.8617 17.137 13.6497 17.488 13.6406 17.8389C13.6315 18.1989 13.7773 18.4997 14.0781 18.7412C14.4154 19.0146 14.9098 19.1514 15.5615 19.1514C16.1813 19.1514 16.6781 18.9987 17.0518 18.6934C17.4984 18.3288 17.7148 17.9574 17.7012 17.5791Z" fill="#333333"/>
</svg>
