<svg width="24" height="24" viewBox="0 0 24 24" fill="none" xmlns="http://www.w3.org/2000/svg">
<path d="M8.56055 15.0752V14.5693C9.11198 14.4691 9.43099 14.387 9.51758 14.3232C9.60417 14.2594 9.64746 14.1729 9.64746 14.0635C9.64746 13.9997 9.63379 13.9268 9.60645 13.8447C9.53353 13.6533 9.29655 13.0791 8.89551 12.1221C8.25293 12.1084 7.71745 12.1016 7.28906 12.1016C6.93815 12.1016 6.35254 12.1084 5.53223 12.1221C5.02637 13.3161 4.77344 13.9701 4.77344 14.084C4.77344 14.1934 4.8099 14.2754 4.88281 14.3301C4.95573 14.3802 5.2793 14.46 5.85352 14.5693V15.0752C5.2793 15.0251 4.73014 15 4.20605 15C3.64095 15 3.06673 15.0251 2.4834 15.0752V14.5693C2.89355 14.4827 3.17611 14.3848 3.33105 14.2754C3.43587 14.2025 3.53158 14.0931 3.61816 13.9473C3.7959 13.6602 4.32682 12.5482 5.21094 10.6113C5.77148 9.38542 6.57129 7.57161 7.61035 5.16992H8.16406C8.58789 6.24089 9.46517 8.23926 10.7959 11.165C11.5342 12.792 11.9762 13.7171 12.1221 13.9404C12.2223 14.0954 12.3226 14.2048 12.4229 14.2686C12.5231 14.3324 12.8398 14.4326 13.373 14.5693V15.0752C12.5664 15.0251 11.8167 15 11.124 15C10.4404 15 9.58594 15.0251 8.56055 15.0752ZM7.24805 8.11621L5.85352 11.3359L7.20703 11.3428C7.5306 11.3428 7.99544 11.3405 8.60156 11.3359L7.24805 8.11621ZM20.4277 8.5332L20.4961 8.66309C20.3457 8.90918 20.2135 9.16895 20.0996 9.44238C19.8079 9.3877 19.5094 9.35807 19.2041 9.35352C19.4365 9.76367 19.5527 10.1647 19.5527 10.5566C19.5527 10.9896 19.4434 11.3861 19.2246 11.7461C19.0104 12.1061 18.6823 12.3932 18.2402 12.6074C17.8027 12.8216 17.3424 12.9287 16.8594 12.9287C16.7546 12.9287 16.6292 12.9219 16.4834 12.9082C16.3376 12.8945 16.1712 12.8763 15.9844 12.8535C15.6973 13.1133 15.5537 13.3184 15.5537 13.4688C15.5537 13.5508 15.6061 13.6191 15.7109 13.6738C15.875 13.7604 16.2806 13.8037 16.9277 13.8037L18.0557 13.79C18.9762 13.79 19.5846 13.9108 19.8809 14.1523C20.1771 14.3939 20.3252 14.7607 20.3252 15.2529C20.3252 15.7406 20.1794 16.1872 19.8877 16.5928C19.596 16.9984 19.1289 17.3242 18.4863 17.5703C17.8483 17.8164 17.0986 17.9395 16.2373 17.9395C15.2939 17.9395 14.583 17.7708 14.1045 17.4336C13.7718 17.1966 13.6055 16.9072 13.6055 16.5654C13.6055 16.4287 13.6351 16.3148 13.6943 16.2236C13.7536 16.1325 13.8743 16.0299 14.0566 15.916C14.4395 15.679 14.7721 15.4489 15.0547 15.2256C14.7083 15.1025 14.4622 14.9476 14.3164 14.7607C14.1751 14.5739 14.1045 14.3574 14.1045 14.1113C14.1045 13.9655 14.1227 13.8561 14.1592 13.7832C14.2002 13.7103 14.2845 13.6214 14.4121 13.5166C14.8815 13.1475 15.221 12.8672 15.4307 12.6758C15.0433 12.4889 14.763 12.2725 14.5898 12.0264C14.3438 11.68 14.2207 11.2607 14.2207 10.7686C14.2207 10.0622 14.46 9.48568 14.9385 9.03906C15.417 8.59245 16.096 8.36914 16.9756 8.36914C17.1943 8.36914 17.4131 8.38965 17.6318 8.43066C17.8551 8.47168 18.0785 8.5332 18.3018 8.61523C18.8122 8.62435 19.0788 8.62891 19.1016 8.62891C19.5527 8.62891 19.9948 8.59701 20.4277 8.5332ZM16.0254 10.4609C16.0254 11.1536 16.1462 11.6777 16.3877 12.0332C16.529 12.2428 16.7249 12.3477 16.9756 12.3477C17.1852 12.3477 17.3652 12.2406 17.5156 12.0264C17.6706 11.8076 17.748 11.3997 17.748 10.8027C17.748 10.1009 17.6387 9.58822 17.4199 9.26465C17.2786 9.05957 17.0827 8.95703 16.832 8.95703C16.6087 8.95703 16.4173 9.06641 16.2578 9.28516C16.1029 9.49935 16.0254 9.89128 16.0254 10.4609ZM15.752 15.335C15.3236 15.6676 15.1094 15.9867 15.1094 16.292C15.1094 16.5016 15.2347 16.7021 15.4854 16.8936C15.7406 17.085 16.1257 17.1807 16.6406 17.1807C17.3288 17.1807 17.8665 17.0576 18.2539 16.8115C18.6458 16.5654 18.8418 16.2852 18.8418 15.9707C18.8418 15.7793 18.7734 15.638 18.6367 15.5469C18.459 15.4238 18.0921 15.3623 17.5361 15.3623L16.6885 15.376C16.5381 15.376 16.2259 15.3623 15.752 15.335Z" fill="#333333"/>
</svg>
