<svg width="24" height="24" viewBox="0 0 24 24" fill="none" xmlns="http://www.w3.org/2000/svg">
<path d="M9.62109 16V15.665C9.84896 15.6195 10.0176 15.5693 10.127 15.5146C10.2409 15.46 10.3252 15.3848 10.3799 15.2891C10.4346 15.1888 10.4619 15.0566 10.4619 14.8926C10.4619 14.7376 10.4437 14.5713 10.4072 14.3936C10.3708 14.2113 10.3184 14.0085 10.25 13.7852L9.99707 12.9033H6.81152L6.5791 13.5732C6.46061 13.9105 6.38314 14.1657 6.34668 14.3389C6.31022 14.512 6.29199 14.6693 6.29199 14.8105C6.29199 15.084 6.36035 15.2845 6.49707 15.4121C6.63835 15.5397 6.85254 15.624 7.13965 15.665V16H4.2207V15.665C4.47591 15.624 4.69694 15.4759 4.88379 15.2207C5.0752 14.9655 5.25977 14.6009 5.4375 14.127L8.28809 6.55957H9.36816L11.6924 14.1816C11.8018 14.5371 11.8975 14.8083 11.9795 14.9951C12.0661 15.182 12.1686 15.3278 12.2871 15.4326C12.4056 15.5374 12.5674 15.6149 12.7725 15.665V16H9.62109ZM6.99609 12.3086H9.85352L8.55469 7.89941L6.99609 12.3086ZM19.6973 10.1553L18.4326 10.1074L18.3711 10.1826C18.5124 10.3239 18.624 10.5176 18.7061 10.7637C18.7881 11.0052 18.8291 11.2673 18.8291 11.5498C18.8291 12.2926 18.599 12.8669 18.1387 13.2725C17.6829 13.6735 17.0335 13.874 16.1904 13.874C15.8122 13.874 15.4863 13.8262 15.2129 13.7305C14.8665 13.9948 14.6934 14.2546 14.6934 14.5098C14.6934 14.6784 14.7253 14.806 14.7891 14.8926C14.8574 14.9792 14.9668 15.0407 15.1172 15.0771C15.2721 15.1136 15.5046 15.1318 15.8145 15.1318H17.4551C17.9382 15.1318 18.3324 15.207 18.6377 15.3574C18.943 15.5078 19.1595 15.7106 19.2871 15.9658C19.4193 16.2165 19.4854 16.5104 19.4854 16.8477C19.4854 17.276 19.3623 17.6566 19.1162 17.9893C18.8701 18.3265 18.5146 18.5885 18.0498 18.7754C17.585 18.9622 17.0426 19.0557 16.4229 19.0557C15.9626 19.0557 15.541 19.0283 15.1582 18.9736C14.7799 18.9189 14.4541 18.8255 14.1807 18.6934C13.9118 18.5658 13.7021 18.3949 13.5518 18.1807C13.4059 17.971 13.333 17.7067 13.333 17.3877C13.333 17.1006 13.4287 16.8385 13.6201 16.6016C13.8115 16.3691 14.0827 16.1641 14.4336 15.9863C14.2194 15.8997 14.0508 15.7721 13.9277 15.6035C13.8047 15.4349 13.7432 15.2367 13.7432 15.0088C13.7432 14.749 13.8161 14.512 13.9619 14.2979C14.1077 14.0791 14.3652 13.8307 14.7344 13.5527C14.4062 13.3613 14.1556 13.1016 13.9824 12.7734C13.8138 12.4453 13.7295 12.0716 13.7295 11.6523C13.7295 11.2604 13.7933 10.9209 13.9209 10.6338C14.0531 10.3421 14.2331 10.1029 14.4609 9.91602C14.6934 9.72461 14.9668 9.58333 15.2812 9.49219C15.5957 9.39648 15.9352 9.34863 16.2998 9.34863C16.6279 9.34863 16.9538 9.38737 17.2773 9.46484H19.6973V10.1553ZM14.9531 11.543C14.9531 12.1126 15.0693 12.5524 15.3018 12.8623C15.5342 13.1722 15.8691 13.3271 16.3066 13.3271C16.5391 13.3271 16.7373 13.2839 16.9014 13.1973C17.0654 13.1061 17.1976 12.9831 17.2979 12.8281C17.4027 12.6732 17.4779 12.4954 17.5234 12.2949C17.5736 12.0898 17.5986 11.8757 17.5986 11.6523C17.5986 11.2513 17.5417 10.9163 17.4277 10.6475C17.3138 10.3786 17.1589 10.1826 16.9629 10.0596C16.7669 9.93197 16.5413 9.86816 16.2861 9.86816C15.8532 9.86816 15.5228 10.0117 15.2949 10.2988C15.0671 10.5859 14.9531 11.0007 14.9531 11.543ZM15.124 16.1094C14.8916 16.2826 14.7161 16.4648 14.5977 16.6562C14.4837 16.8522 14.4268 17.0732 14.4268 17.3193C14.4268 17.7295 14.5885 18.0303 14.9121 18.2217C15.2402 18.4176 15.7393 18.5156 16.4092 18.5156C16.8193 18.5156 17.1702 18.4609 17.4619 18.3516C17.7581 18.2422 17.9837 18.085 18.1387 17.8799C18.2936 17.6748 18.3711 17.4355 18.3711 17.1621C18.3711 17.0345 18.3551 16.9092 18.3232 16.7861C18.2913 16.6676 18.2298 16.5605 18.1387 16.4648C18.0521 16.3691 17.9268 16.2917 17.7627 16.2324C17.5986 16.1777 17.3844 16.1504 17.1201 16.1504H16.1016C15.7324 16.1504 15.4066 16.1367 15.124 16.1094Z" fill="#333333"/>
</svg>
