<svg width="24" height="24" viewBox="0 0 24 24" fill="none" xmlns="http://www.w3.org/2000/svg">
<path d="M6.95574 5.375L3.66574 15H4.87324L5.78324 12.1825H9.45824L10.3682 15H11.6632L8.35574 5.375H6.95574ZM6.11574 11.185L7.60324 6.5825L9.12574 11.185H6.11574ZM17.4432 14.685C16.8598 14.9883 16.2707 15.14 15.6757 15.14C14.6023 15.14 13.7798 14.7258 13.2082 13.8975C12.7998 13.2908 12.5957 12.5792 12.5957 11.7625C12.5957 10.9342 12.7707 10.2342 13.1207 9.6625C13.4823 9.07917 13.9782 8.65917 14.6082 8.4025C14.8998 8.2625 15.279 8.1925 15.7457 8.1925C16.294 8.1925 16.819 8.30917 17.3207 8.5425L17.6532 8.7L17.7757 8.28H18.5982V15.315C18.5982 15.9333 18.5282 16.4292 18.3882 16.8025C18.2482 17.1758 18.009 17.52 17.6707 17.835C17.3907 18.1033 17.0407 18.3075 16.6207 18.4475C16.2123 18.5992 15.7515 18.675 15.2382 18.675C14.9115 18.675 14.5557 18.6342 14.1707 18.5525C13.7973 18.4708 13.4707 18.3658 13.1907 18.2375L13.4882 17.4325C14.1532 17.6658 14.684 17.7825 15.0807 17.7825C15.7807 17.7825 16.329 17.6133 16.7257 17.275C17.1223 16.9367 17.3557 16.4583 17.4257 15.84C17.4373 15.7117 17.4432 15.385 17.4432 14.86V14.685ZM15.9382 14.2125C16.5215 14.2125 17.0232 14.09 17.4432 13.845V9.4525C16.9182 9.21917 16.399 9.1025 15.8857 9.1025C15.1857 9.1025 14.6548 9.33 14.2932 9.785C13.9315 10.24 13.7507 10.8467 13.7507 11.605C13.7507 12.1533 13.8557 12.6375 14.0657 13.0575C14.2757 13.4775 14.5615 13.7808 14.9232 13.9675C15.2148 14.1308 15.5532 14.2125 15.9382 14.2125Z" fill="#333333"/>
</svg>
