<svg width="24" height="24" viewBox="0 0 24 24" fill="none" xmlns="http://www.w3.org/2000/svg">
<path d="M13.7166 5.952H13.9966C13.9966 5.96444 14.009 5.97067 14.0339 5.97067C14.2455 5.98311 14.457 6.03911 14.6686 6.13867L14.8179 6.19467C14.8802 6.21956 14.961 6.26933 15.0606 6.344C15.1104 6.38133 15.1353 6.43111 15.1353 6.49333C15.1477 6.53067 15.1415 6.59289 15.1166 6.68C15.0544 6.792 14.961 6.91022 14.8366 7.03467C14.7868 7.072 14.7059 7.10311 14.5939 7.128H14.5566L14.3886 7.072C14.3637 7.05956 14.3326 7.04711 14.2953 7.03467C14.2579 7.00978 14.2206 6.99111 14.1833 6.97867C14.1584 6.96622 14.1335 6.96 14.1086 6.96C14.0713 6.94756 14.0215 6.94133 13.9593 6.94133H13.7913C13.7415 6.94133 13.6793 6.95378 13.6046 6.97867L13.4553 7.016C13.4428 7.016 13.4304 7.02222 13.4179 7.03467C13.2437 7.10933 13.113 7.17778 13.0259 7.24L12.8579 7.352L12.6153 7.55733H12.5966L12.5779 7.576L12.6153 7.61333L12.8019 7.72533C13.001 7.83733 13.1753 8.024 13.3246 8.28533C13.3868 8.40978 13.4242 8.51556 13.4366 8.60267C13.4615 8.68978 13.4864 8.82044 13.5113 8.99467V9.48C13.5113 9.51733 13.505 9.57333 13.4926 9.648C13.4926 9.72267 13.4926 9.77867 13.4926 9.816L13.4366 10.208L13.3806 10.488C13.3682 10.5751 13.337 10.7182 13.2873 10.9173C13.2624 11.0418 13.2126 11.2284 13.1379 11.4773V11.5147C13.113 11.6142 13.0882 11.6889 13.0633 11.7387L12.9513 12.1867L12.8393 12.5973L12.7459 12.896L12.6339 13.3067L12.5219 13.7173L12.4659 13.8667L12.3539 14.296C12.3042 14.4951 12.273 14.6444 12.2606 14.744V15.0427C12.2482 15.1049 12.2544 15.1858 12.2793 15.2853C12.2793 15.3351 12.2979 15.3849 12.3353 15.4347C12.3602 15.5093 12.4286 15.5467 12.5406 15.5467C12.5779 15.5467 12.6028 15.5404 12.6153 15.528C12.7024 15.4907 12.7833 15.4284 12.8579 15.3413L12.8766 15.3227C12.9388 15.2604 13.057 15.0987 13.2313 14.8373L13.4553 14.408L13.6419 13.9787C13.6419 13.9662 13.6482 13.9538 13.6606 13.9413L13.8099 13.4933C13.8597 13.344 13.9655 13.2693 14.1273 13.2693C14.289 13.2569 14.457 13.2942 14.6313 13.3813C14.6686 13.3938 14.7122 13.4249 14.7619 13.4747C14.7868 13.5493 14.7993 13.6053 14.7993 13.6427C14.7993 13.68 14.7868 13.736 14.7619 13.8107C14.7246 13.96 14.6686 14.1093 14.5939 14.2587C14.5566 14.3209 14.513 14.4142 14.4633 14.5387L14.4446 14.5573C14.4446 14.5698 14.4446 14.5822 14.4446 14.5947L14.3886 14.6693C14.3388 14.7938 14.2704 14.9182 14.1833 15.0427L14.0339 15.2853L13.9033 15.472C13.8908 15.4844 13.8099 15.584 13.6606 15.7707C13.6482 15.7956 13.6295 15.8204 13.6046 15.8453C13.5797 15.8578 13.5548 15.8764 13.5299 15.9013C13.505 15.9262 13.4864 15.9449 13.4739 15.9573L13.4366 16.0133L13.1006 16.2933C12.9513 16.3929 12.8393 16.4613 12.7646 16.4987C12.6775 16.5484 12.5593 16.592 12.4099 16.6293C12.385 16.6418 12.3539 16.648 12.3166 16.648H12.2606C12.1984 16.6729 12.1113 16.6729 11.9993 16.648L11.7939 16.592C11.6322 16.5298 11.489 16.4053 11.3646 16.2187C11.3024 16.1316 11.2339 15.9884 11.1593 15.7893L11.1033 15.472V15.0987C11.1033 14.9867 11.1095 14.8996 11.1219 14.8373V14.7627L11.1593 14.5387C11.1593 14.4889 11.1717 14.4204 11.1966 14.3333C11.2215 14.2338 11.2339 14.1716 11.2339 14.1467C11.2464 14.1218 11.2526 14.0907 11.2526 14.0533C11.3273 13.8293 11.377 13.6551 11.4019 13.5307L11.4206 13.512L11.4766 13.288L11.5326 13.1013C11.5326 13.0764 11.545 13.0391 11.5699 12.9893C11.5699 12.9644 11.5575 12.952 11.5326 12.952C11.4953 12.952 11.4393 12.9582 11.3646 12.9707C11.2899 12.9707 11.2339 12.9707 11.1966 12.9707C11.1468 12.9707 11.0784 12.9707 10.9913 12.9707C10.9042 12.9582 10.8357 12.952 10.7859 12.952H10.1326C9.95838 12.952 9.82772 12.9582 9.7406 12.9707H9.44194C9.42949 12.9831 9.4046 13.0267 9.36727 13.1013C9.35483 13.1387 9.30505 13.2444 9.21794 13.4187L9.14327 13.624C9.09349 13.6987 9.06238 13.7547 9.04994 13.792C9.03749 13.8044 9.03127 13.8169 9.03127 13.8293L8.7326 14.408L8.4526 14.856C8.27838 15.1422 8.12905 15.3662 8.0046 15.528C7.95483 15.5778 7.8926 15.6524 7.81794 15.752L7.68727 15.9013L7.5006 16.088C7.35127 16.2373 7.23305 16.3369 7.14594 16.3867L6.90327 16.5547C6.8286 16.6044 6.76638 16.6356 6.7166 16.648C6.67927 16.6729 6.61083 16.6978 6.51127 16.7227C6.42416 16.76 6.36816 16.7849 6.34327 16.7973L6.17527 16.8347C6.01349 16.8471 5.83927 16.8471 5.6526 16.8347C5.64016 16.8347 5.60905 16.8284 5.55927 16.816C5.50949 16.816 5.47216 16.816 5.44727 16.816C5.24816 16.7662 5.09883 16.7164 4.99927 16.6667L4.83127 16.592L4.56994 16.4053C4.54505 16.3929 4.52016 16.3742 4.49527 16.3493C4.48283 16.3244 4.45794 16.2996 4.4206 16.2747C4.39571 16.2373 4.37705 16.2124 4.3646 16.2C4.30238 16.1378 4.2526 16.0693 4.21527 15.9947C4.11571 15.8453 4.04727 15.696 4.00994 15.5467L3.95394 15.304C3.95394 15.2293 3.94771 15.1733 3.93527 15.136V15.024C3.93527 14.8747 3.94149 14.7564 3.95394 14.6693C3.96638 14.6444 3.9726 14.5947 3.9726 14.52L4.0846 14.184C4.10949 14.1342 4.13438 14.072 4.15927 13.9973L4.23394 13.848C4.25883 13.8231 4.27127 13.8044 4.27127 13.792C4.29616 13.7422 4.34594 13.68 4.4206 13.6053C4.50771 13.5307 4.60727 13.4933 4.71927 13.4933C4.90594 13.4933 5.06771 13.5493 5.2046 13.6613C5.27927 13.7236 5.33527 13.7982 5.3726 13.8853C5.40994 13.9724 5.39749 14.0596 5.33527 14.1467C5.28549 14.2213 5.23571 14.3458 5.18594 14.52C5.1486 14.7067 5.13616 14.8809 5.1486 15.0427C5.17349 15.2169 5.21083 15.3476 5.2606 15.4347C5.34771 15.5964 5.47838 15.7147 5.6526 15.7893C5.77705 15.8142 5.88283 15.8267 5.96994 15.8267C6.14416 15.8018 6.29971 15.7396 6.4366 15.64C6.44905 15.64 6.47394 15.6213 6.51127 15.584C6.56105 15.5467 6.59838 15.5218 6.62327 15.5093L6.67927 15.4533L6.97794 15.1173C7.00283 15.0924 7.01527 15.0738 7.01527 15.0613L7.25794 14.744C7.28283 14.6942 7.29527 14.6631 7.29527 14.6507C7.3326 14.6009 7.36372 14.5511 7.3886 14.5013L7.4446 14.4267L7.5566 14.2213L7.6686 14.016L7.8366 13.68L7.9486 13.4747L8.04194 13.2693C8.14149 13.0453 8.22238 12.8773 8.2846 12.7653C8.30949 12.6907 8.33438 12.6284 8.35927 12.5787L8.54594 12.1493L8.69527 11.7947C8.76994 11.6453 8.81972 11.5333 8.8446 11.4587C8.9566 11.2222 9.02505 11.0791 9.04994 11.0293L9.31127 10.5067L9.47927 10.1707C9.60372 9.94667 9.67838 9.82222 9.70327 9.79733L9.75927 9.648L10.0393 9.2L10.0953 9.088L10.1886 8.95733L10.3193 8.752L10.3753 8.64C10.4126 8.59022 10.4624 8.52178 10.5246 8.43467C10.5868 8.34756 10.6242 8.29156 10.6366 8.26667H10.5993C10.4126 8.26667 10.2695 8.27289 10.1699 8.28533L9.92727 8.32267C9.84016 8.32267 9.77794 8.32889 9.7406 8.34133L9.27394 8.43467C9.16194 8.45956 8.99394 8.50933 8.76994 8.584C8.70772 8.59644 8.5646 8.64622 8.3406 8.73333L8.2846 8.77067C8.18505 8.808 8.12283 8.83289 8.09794 8.84533L7.92994 8.92L7.85527 8.95733L7.53794 9.144L7.14594 9.424L7.01527 9.536L6.84727 9.68533L6.6606 9.89067C6.51127 10.0649 6.41171 10.2018 6.36194 10.3013L6.1566 10.712L6.1006 10.8987L5.9886 11.2533L5.95127 11.4213C5.95127 11.4462 5.94505 11.4836 5.9326 11.5333C5.9326 11.5831 5.9326 11.6204 5.9326 11.6453C5.90771 11.7076 5.90771 11.776 5.9326 11.8507V11.8693C5.92016 11.9564 5.93883 12.0871 5.9886 12.2613L6.08194 12.448C6.13171 12.5227 6.17527 12.5787 6.2126 12.616C6.3246 12.7404 6.46149 12.8213 6.62327 12.8587L6.84727 12.9147C6.92194 12.9271 6.97171 12.9831 6.9966 13.0827C7.02149 13.1573 7.02771 13.2196 7.01527 13.2693C7.01527 13.3813 6.99038 13.4809 6.9406 13.568C6.89083 13.6676 6.84105 13.736 6.79127 13.7733C6.74149 13.8356 6.66683 13.8729 6.56727 13.8853C6.51749 13.8853 6.43038 13.8729 6.30594 13.848C6.09438 13.7858 5.90149 13.6987 5.72727 13.5867C5.56549 13.4747 5.44727 13.3627 5.3726 13.2507C5.31038 13.1884 5.24816 13.1076 5.18594 13.008C5.09883 12.8711 5.04905 12.7778 5.0366 12.728C4.98683 12.6409 4.93705 12.5102 4.88727 12.336C4.86238 12.2489 4.83749 12.1431 4.8126 12.0187C4.8126 11.9813 4.80638 11.9378 4.79394 11.888C4.79394 11.8382 4.79394 11.7947 4.79394 11.7573C4.79394 11.5458 4.80016 11.3902 4.8126 11.2907C4.83749 11.0667 4.86238 10.9298 4.88727 10.88C4.88727 10.8551 4.9246 10.7369 4.99927 10.5253L5.12994 10.208C5.22949 10.0338 5.31038 9.90311 5.3726 9.816C5.3726 9.80356 5.39127 9.77867 5.4286 9.74133C5.46594 9.69156 5.49083 9.65422 5.50327 9.62933C5.51571 9.61689 5.53438 9.59822 5.55927 9.57333C5.5966 9.536 5.62149 9.51111 5.63394 9.49867C5.72105 9.38667 5.82683 9.27467 5.95127 9.16267C6.17527 8.96356 6.34327 8.82044 6.45527 8.73333L6.79127 8.50933C6.8286 8.48444 6.86594 8.45956 6.90327 8.43467C6.95305 8.40978 7.00283 8.38489 7.0526 8.36C7.11483 8.32267 7.15838 8.29778 7.18327 8.28533L7.42594 8.15467L7.68727 8.024L7.8366 7.968C7.93616 7.91822 8.09794 7.856 8.32194 7.78133L8.65794 7.66933L8.93794 7.59467C9.08727 7.54489 9.20549 7.51378 9.2926 7.50133L9.44194 7.464L10.0019 7.38933C10.3753 7.33956 10.6553 7.32089 10.8419 7.33333H11.1966C11.2588 7.33333 11.3024 7.33956 11.3273 7.352C11.3522 7.352 11.3895 7.33956 11.4393 7.31467L11.5513 7.16533L11.6259 7.10933L11.7006 7.016C11.713 7.016 11.7193 7.016 11.7193 7.016C11.7193 7.00356 11.7255 6.99733 11.7379 6.99733C11.7877 6.94756 11.8624 6.88533 11.9619 6.81067C12.0739 6.71111 12.1922 6.61156 12.3166 6.512C12.3539 6.48711 12.4162 6.44978 12.5033 6.4C12.5904 6.33778 12.6588 6.29422 12.7086 6.26933L12.8206 6.21333C12.9575 6.15111 13.0819 6.10133 13.1939 6.064L13.3433 6.02667C13.3806 6.01422 13.4242 6.008 13.4739 6.008C13.5735 5.98311 13.6419 5.97067 13.6793 5.97067C13.6917 5.97067 13.6979 5.97067 13.6979 5.97067C13.6979 5.95822 13.7042 5.952 13.7166 5.952ZM11.8686 8.37867C11.8437 8.39111 11.8188 8.42222 11.7939 8.472C11.6322 8.696 11.545 8.82044 11.5326 8.84533L11.4766 8.90133C11.4393 8.95111 11.3957 9.02578 11.3459 9.12533C11.2962 9.21244 11.2588 9.26844 11.2339 9.29333L11.1219 9.46133L10.9166 9.83467C10.8544 9.93422 10.7735 10.0836 10.6739 10.2827L10.5246 10.544L10.3379 10.936L10.3006 11.0107L10.1326 11.3653L10.0579 11.5147C10.0455 11.5396 10.0206 11.5956 9.98327 11.6827C9.94594 11.7698 9.91483 11.8382 9.88994 11.888V11.9253H11.8499C11.8499 11.9004 11.8624 11.8631 11.8873 11.8133C11.9122 11.7636 11.9308 11.6889 11.9433 11.5893C11.9682 11.4898 11.993 11.4151 12.0179 11.3653L12.0926 10.9733L12.1486 10.712C12.1984 10.5502 12.2295 10.4133 12.2419 10.3013C12.2917 10.0773 12.3228 9.90933 12.3353 9.79733C12.3477 9.77244 12.3539 9.73511 12.3539 9.68533C12.3539 9.61067 12.3664 9.51111 12.3913 9.38667C12.3913 9.21244 12.3726 9.03822 12.3353 8.864C12.3353 8.82667 12.3228 8.78311 12.2979 8.73333C12.273 8.68356 12.2482 8.65244 12.2233 8.64C12.1984 8.59022 12.1735 8.55911 12.1486 8.54667C12.1362 8.53422 12.0739 8.49067 11.9619 8.416C11.9122 8.39111 11.881 8.37867 11.8686 8.37867ZM12.0179 14.3147L12.0553 14.2773H12.0739L12.0926 14.2587C12.105 14.2587 12.1113 14.2711 12.1113 14.296C12.1362 14.2711 12.1299 14.2276 12.0926 14.1653C12.1424 14.1653 12.1424 14.1529 12.0926 14.128V14.1093C12.0926 14.072 12.0864 14.0471 12.0739 14.0347V14.016L12.1486 13.96C12.1362 13.9476 12.1299 13.904 12.1299 13.8293V13.7733C12.1299 13.7609 12.1175 13.7547 12.0926 13.7547C12.0802 13.7547 12.0677 13.7609 12.0553 13.7733V13.8107C12.0428 13.8107 12.0304 13.8169 12.0179 13.8293V13.7173C12.0055 13.7173 11.9868 13.7236 11.9619 13.736C11.9495 13.7484 11.9308 13.7547 11.9059 13.7547C11.9433 13.7173 11.9308 13.6862 11.8686 13.6613C11.8437 13.7111 11.8126 13.7484 11.7753 13.7733C11.7753 13.7609 11.7628 13.7547 11.7379 13.7547C11.713 13.7547 11.7068 13.7671 11.7193 13.792V13.8293V13.848C11.7068 13.8604 11.7006 13.8729 11.7006 13.8853L11.6073 13.848C11.5824 13.848 11.5637 13.8667 11.5513 13.904C11.5513 13.9413 11.5637 13.9476 11.5886 13.9227C11.6135 13.9227 11.6322 13.9164 11.6446 13.904C11.6695 13.9787 11.6819 14.0409 11.6819 14.0907H11.6446C11.6322 14.1031 11.6073 14.1093 11.5699 14.1093C11.5575 14.1093 11.5513 14.1156 11.5513 14.128L11.6259 14.1653L11.5886 14.2027C11.5886 14.2276 11.5948 14.24 11.6073 14.24H11.5513C11.5264 14.24 11.5139 14.2524 11.5139 14.2773L11.5326 14.296C11.5699 14.296 11.5886 14.3147 11.5886 14.352L11.5326 14.4267C11.5575 14.464 11.5575 14.5262 11.5326 14.6133C11.5077 14.6133 11.4953 14.6196 11.4953 14.632V14.6693L11.5513 14.7253L11.6073 14.688C11.6073 14.7129 11.6197 14.7378 11.6446 14.7627L11.6633 14.744L11.7006 14.7627C11.713 14.7627 11.7255 14.7689 11.7379 14.7813C11.7255 14.7938 11.7068 14.8 11.6819 14.8L11.6446 14.8187C11.6197 14.7938 11.601 14.7813 11.5886 14.7813H11.5513L11.5886 14.8747C11.5886 14.9244 11.5948 14.9556 11.6073 14.968C11.6197 14.968 11.6384 14.9556 11.6633 14.9307H11.7193C11.7317 14.9058 11.7379 14.8809 11.7379 14.856C11.7877 14.856 11.8126 14.8684 11.8126 14.8933L11.7939 14.9307C11.8437 14.9556 11.8686 14.9493 11.8686 14.912C11.8686 14.8871 11.881 14.8622 11.9059 14.8373C11.9184 14.8 11.9122 14.7751 11.8873 14.7627C11.8748 14.7627 11.8624 14.7564 11.8499 14.744C11.8499 14.7316 11.8437 14.7253 11.8313 14.7253C11.8562 14.7129 11.8748 14.7067 11.8873 14.7067V14.632L11.8499 14.6133C11.825 14.6009 11.7939 14.5947 11.7566 14.5947V14.5573L11.8126 14.5013L11.9059 14.5947C11.9184 14.6071 11.937 14.6071 11.9619 14.5947H11.9059C11.9184 14.5822 11.9246 14.5698 11.9246 14.5573C11.9246 14.5449 11.937 14.5324 11.9619 14.52C11.9868 14.4951 11.9993 14.4764 11.9993 14.464C12.0117 14.464 12.0179 14.4578 12.0179 14.4453C12.0553 14.4204 12.0677 14.3956 12.0553 14.3707L12.0179 14.3147ZM12.6526 8.50933C12.6277 8.54667 12.6339 8.584 12.6713 8.62133C12.6713 8.64622 12.6775 8.66489 12.6899 8.67733L12.6526 8.696L12.6153 8.73333L12.7086 8.77067L12.6713 8.808C12.6339 8.808 12.6153 8.82667 12.6153 8.864V8.88267L12.6713 8.92C12.6588 8.92 12.6402 8.92622 12.6153 8.93867C12.6402 8.93867 12.665 8.96356 12.6899 9.01333L12.7086 9.05067C12.721 9.06311 12.7397 9.06933 12.7646 9.06933H12.8019C12.7895 9.08178 12.7833 9.09422 12.7833 9.10667C12.7957 9.09422 12.8019 9.08178 12.8019 9.06933C12.8144 9.06933 12.833 9.10045 12.8579 9.16267C12.8704 9.16267 12.8766 9.16889 12.8766 9.18133C12.8766 9.18133 12.8828 9.18133 12.8953 9.18133L12.8579 9.21867C12.833 9.21867 12.8144 9.22489 12.8019 9.23733L12.7646 9.27467L12.8393 9.312V9.27467C12.8642 9.26222 12.9015 9.256 12.9513 9.256C12.9513 9.21867 12.9575 9.2 12.9699 9.2C12.9699 9.21244 12.9699 9.23111 12.9699 9.256C12.9824 9.26844 12.9948 9.28089 13.0073 9.29333L13.0259 9.312H13.0446C13.057 9.29956 13.0695 9.28711 13.0819 9.27467C13.0819 9.26222 13.0695 9.24356 13.0446 9.21867H13.0633L13.1566 9.18133C13.1442 9.19378 13.1379 9.21244 13.1379 9.23733V9.256L13.1566 9.23733V9.18133C13.1566 9.13156 13.1628 9.10044 13.1753 9.088C13.1753 9.06311 13.169 9.05067 13.1566 9.05067L13.1006 8.93867C13.1504 8.93867 13.1753 8.92 13.1753 8.88267L13.1193 8.808L13.2126 8.64C13.1753 8.60267 13.1566 8.56533 13.1566 8.528L13.1379 8.49067C13.1379 8.47822 13.1379 8.46578 13.1379 8.45333C13.1255 8.45333 13.1068 8.44089 13.0819 8.416C13.0695 8.416 13.0508 8.42222 13.0259 8.43467C13.001 8.44711 12.9762 8.44711 12.9513 8.43467C12.9513 8.42222 12.9388 8.40356 12.9139 8.37867C12.9886 8.37867 13.0259 8.35378 13.0259 8.304C12.9762 8.27911 12.9388 8.27289 12.9139 8.28533C12.9015 8.28533 12.8828 8.29156 12.8579 8.304C12.833 8.304 12.8082 8.304 12.7833 8.304H12.7459C12.7335 8.34133 12.7397 8.40356 12.7646 8.49067L12.8019 8.416V8.49067V8.50933L12.8206 8.528C12.7957 8.55289 12.7833 8.57156 12.7833 8.584C12.7833 8.59644 12.7895 8.61511 12.8019 8.64V8.65867C12.777 8.65867 12.7522 8.65244 12.7273 8.64C12.7273 8.61511 12.7148 8.56533 12.6899 8.49067C12.6775 8.50311 12.665 8.50933 12.6526 8.50933ZM4.7566 15.808V15.8453C4.71927 15.9076 4.68816 15.9387 4.66327 15.9387V15.9573L4.77527 16.0507C4.80016 16.0756 4.81883 16.088 4.83127 16.088C4.85616 16.088 4.87483 16.1004 4.88727 16.1253L4.84994 16.144L4.8126 16.1627C4.82505 16.1627 4.83749 16.1689 4.84994 16.1813C4.87483 16.1813 4.89349 16.1813 4.90594 16.1813H4.9246L4.96194 16.2L4.99927 16.2187C5.01171 16.2187 5.02416 16.2249 5.0366 16.2373V16.256H5.16727H5.18594C5.21083 16.2684 5.22949 16.2747 5.24194 16.2747C5.26683 16.2996 5.28549 16.312 5.29794 16.312C5.32283 16.312 5.34771 16.3244 5.3726 16.3493C5.38505 16.3618 5.39749 16.3618 5.40994 16.3493L5.39127 16.3307L5.3726 16.2933C5.3726 16.2809 5.3726 16.2684 5.3726 16.256V16.2V16.1253C5.36016 16.1378 5.34771 16.144 5.33527 16.144V16.088C5.29794 16.1004 5.24194 16.0818 5.16727 16.032C5.2046 16.032 5.22327 16.0133 5.22327 15.976C5.21083 15.976 5.19216 15.9636 5.16727 15.9387C5.14238 15.9387 5.11749 15.9262 5.0926 15.9013H5.16727C5.17971 15.8889 5.17971 15.8827 5.16727 15.8827C5.15483 15.8578 5.1486 15.8329 5.1486 15.808V15.7147C5.09883 15.6898 5.06771 15.6773 5.05527 15.6773H5.01794C5.03038 15.6649 5.06149 15.6587 5.11127 15.6587C5.12371 15.6711 5.13616 15.6773 5.1486 15.6773C5.16105 15.6773 5.16727 15.6836 5.16727 15.696C5.17971 15.696 5.19216 15.696 5.2046 15.696C5.2046 15.6836 5.19216 15.6711 5.16727 15.6587C5.14238 15.6338 5.13616 15.6151 5.1486 15.6027C5.13616 15.6027 5.11749 15.6027 5.0926 15.6027C5.08016 15.5902 5.06771 15.5778 5.05527 15.5653C5.04283 15.5529 5.03038 15.5404 5.01794 15.528C5.00549 15.5031 4.99305 15.4844 4.9806 15.472H4.90594L4.84994 15.416L4.73794 15.584V15.6773C4.73794 15.7147 4.7566 15.7333 4.79394 15.7333C4.80638 15.7333 4.8126 15.752 4.8126 15.7893C4.80016 15.8018 4.78149 15.808 4.7566 15.808ZM10.8606 8.73333V8.77067C10.873 8.77067 10.8855 8.76444 10.8979 8.752L10.9166 8.73333C10.929 8.74578 10.929 8.77067 10.9166 8.808C10.9166 8.82044 10.9042 8.82667 10.8793 8.82667C10.8668 8.82667 10.8606 8.81422 10.8606 8.78933V8.77067C10.8233 8.74578 10.8108 8.70844 10.8233 8.65867H10.7299L10.6926 8.696L10.6553 8.73333C10.705 8.75822 10.7237 8.78933 10.7113 8.82667V8.90133H10.7486C10.761 8.91378 10.7735 8.91378 10.7859 8.90133C10.8108 8.87644 10.8233 8.88267 10.8233 8.92L10.7673 8.99467C10.7797 9.00711 10.7984 9.032 10.8233 9.06933H10.7486C10.6988 9.05689 10.6553 9.07556 10.6179 9.12533L10.6366 9.144H10.6553C10.6677 9.10667 10.6988 9.10044 10.7486 9.12533H10.7859C10.8233 9.15022 10.8606 9.144 10.8979 9.10667V8.92H11.1033C11.1033 8.85778 11.0659 8.81422 10.9913 8.78933C11.0162 8.77689 11.0286 8.752 11.0286 8.71467C11.0286 8.64 11.0473 8.584 11.0846 8.54667C11.1095 8.54667 11.1219 8.528 11.1219 8.49067C11.1344 8.49067 11.153 8.49689 11.1779 8.50933C11.2028 8.50933 11.2215 8.49689 11.2339 8.472H11.2153C11.1655 8.45956 11.153 8.42844 11.1779 8.37867C11.1779 8.36622 11.1842 8.36 11.1966 8.36V8.32267L11.2526 8.28533L11.2713 8.248L11.2339 8.17333H11.1779C11.1655 8.16089 11.1593 8.14222 11.1593 8.11733C11.1593 8.10489 11.1593 8.08622 11.1593 8.06133C11.1593 8.03644 11.1593 8.01778 11.1593 8.00533C11.1593 7.98044 11.1468 7.95556 11.1219 7.93067C11.0846 7.94311 11.0535 7.94933 11.0286 7.94933L11.0099 7.968C10.985 8.00533 10.9913 8.024 11.0286 8.024H11.0473V8.04267H11.0099L10.9726 8.06133V8.09867L10.9353 8.11733C10.9228 8.12978 10.9166 8.14222 10.9166 8.15467C10.929 8.17956 10.929 8.19822 10.9166 8.21067C10.9042 8.21067 10.8979 8.22933 10.8979 8.26667H10.9166L10.9353 8.248V8.26667H10.8979L10.9353 8.304H10.9539C10.929 8.32889 10.9104 8.34133 10.8979 8.34133V8.416L10.9726 8.472C10.9477 8.49689 10.9353 8.51556 10.9353 8.528V8.50933C10.9104 8.53422 10.8855 8.54667 10.8606 8.54667L10.8979 8.584C10.9104 8.62133 10.9104 8.65244 10.8979 8.67733L10.8606 8.73333ZM12.4659 11.328H12.4286V11.3467L12.4473 11.3653L12.3913 11.4027C12.3788 11.4027 12.3788 11.4089 12.3913 11.4213H12.4286C12.441 11.4338 12.4473 11.4524 12.4473 11.4773C12.4722 11.4898 12.497 11.496 12.5219 11.496C12.5344 11.496 12.5406 11.5022 12.5406 11.5147H12.5219C12.5095 11.5271 12.497 11.5333 12.4846 11.5333C12.4722 11.5333 12.4535 11.5271 12.4286 11.5147V11.5893C12.4037 11.664 12.3975 11.72 12.4099 11.7573C12.4224 11.7698 12.4348 11.776 12.4473 11.776C12.4597 11.776 12.4659 11.7698 12.4659 11.7573L12.4846 11.72V11.664C12.5095 11.6391 12.5095 11.6142 12.4846 11.5893H12.5219L12.5966 11.6453C12.6339 11.6453 12.6402 11.6578 12.6153 11.6827C12.5904 11.7076 12.5779 11.7262 12.5779 11.7387C12.6028 11.7511 12.6277 11.7449 12.6526 11.72H12.7646C12.7397 11.7076 12.7148 11.7013 12.6899 11.7013C12.6526 11.7013 12.6464 11.6889 12.6713 11.664C12.6962 11.6391 12.7086 11.6204 12.7086 11.608C12.7335 11.608 12.7459 11.5893 12.7459 11.552L12.6526 11.4773L12.6339 11.496C12.6215 11.5084 12.6028 11.5147 12.5779 11.5147C12.5779 11.4773 12.5842 11.4587 12.5966 11.4587C12.6588 11.4213 12.6962 11.4089 12.7086 11.4213C12.721 11.4213 12.7273 11.4213 12.7273 11.4213C12.7273 11.4089 12.7335 11.4027 12.7459 11.4027C12.7335 11.3902 12.7148 11.384 12.6899 11.384H12.6339C12.6339 11.3716 12.6277 11.3529 12.6153 11.328V11.2907C12.5904 11.2907 12.5406 11.3031 12.4659 11.328ZM11.8126 15.3227L11.8313 15.3413H11.8126V15.3227L11.7939 15.304C11.7815 15.2791 11.7753 15.2542 11.7753 15.2293L11.8126 15.192C11.8002 15.192 11.7939 15.192 11.7939 15.192C11.7939 15.1796 11.7877 15.1733 11.7753 15.1733H11.7193C11.6819 15.1733 11.657 15.1671 11.6446 15.1547V15.136C11.6073 15.1236 11.5824 15.1298 11.5699 15.1547C11.5699 15.1671 11.5637 15.1733 11.5513 15.1733C11.5513 15.1982 11.5699 15.2169 11.6073 15.2293H11.6819C11.6695 15.2418 11.6633 15.2542 11.6633 15.2667H11.6819V15.2293C11.7068 15.2418 11.7193 15.2667 11.7193 15.304C11.7068 15.3289 11.6819 15.3413 11.6446 15.3413C11.6073 15.3538 11.5886 15.3787 11.5886 15.416C11.5886 15.4409 11.601 15.4533 11.6259 15.4533C11.6384 15.4533 11.6446 15.4409 11.6446 15.416L11.6633 15.3973L11.6819 15.416C11.657 15.4782 11.6633 15.528 11.7006 15.5653H11.7753C11.7877 15.5778 11.7939 15.5902 11.7939 15.6027C11.8064 15.6276 11.8313 15.64 11.8686 15.64V15.584L11.9246 15.472L11.8686 15.36C11.8686 15.3351 11.8499 15.3227 11.8126 15.3227ZM8.99394 12.728C9.00638 12.728 9.02505 12.7404 9.04994 12.7653C9.04994 12.7031 9.08105 12.672 9.14327 12.672L9.08727 12.7093V12.728L9.10594 12.7467C9.13083 12.7467 9.14949 12.7404 9.16194 12.728C9.18683 12.7031 9.19305 12.672 9.1806 12.6347C9.1806 12.6098 9.16194 12.5973 9.1246 12.5973C9.09972 12.5973 9.08727 12.5849 9.08727 12.56C9.08727 12.5351 9.08105 12.5227 9.0686 12.5227L8.97527 12.4107H8.9566C8.90683 12.4107 8.88194 12.4044 8.88194 12.392C8.85705 12.3547 8.86949 12.336 8.91927 12.336L8.97527 12.28C8.95038 12.28 8.92549 12.2862 8.9006 12.2987C8.87572 12.2987 8.85705 12.2987 8.8446 12.2987C8.8446 12.336 8.83216 12.3609 8.80727 12.3733C8.78238 12.3733 8.76994 12.3796 8.76994 12.392C8.74505 12.392 8.7326 12.4107 8.7326 12.448C8.75749 12.4729 8.77616 12.4853 8.7886 12.4853C8.80105 12.4853 8.82594 12.504 8.86327 12.5413L8.91927 12.6347H8.99394C9.00638 12.6596 9.00638 12.6907 8.99394 12.728ZM12.2233 16.1813H12.3166V16.2C12.3415 16.1751 12.3602 16.1627 12.3726 16.1627C12.385 16.1627 12.3975 16.1564 12.4099 16.144L12.3726 16.1067H12.3539L12.4099 16.0507L12.3913 16.032C12.3664 16.0071 12.3664 15.976 12.3913 15.9387L12.4099 15.92C12.3602 15.8827 12.329 15.8889 12.3166 15.9387V15.976C12.3166 15.9884 12.3042 15.9947 12.2793 15.9947C12.2793 15.9324 12.2357 15.8702 12.1486 15.808L12.1673 15.864L12.2233 15.92V15.9573C12.1859 15.9573 12.1673 15.9511 12.1673 15.9387L12.1486 15.92C12.1362 15.92 12.1175 15.9138 12.0926 15.9013C12.0802 15.8889 12.0677 15.8827 12.0553 15.8827L12.0366 15.9013V15.9387L12.0739 15.976C12.0988 15.976 12.1237 15.9884 12.1486 16.0133C12.1735 16.0258 12.1922 16.032 12.2046 16.032L12.1673 16.1067C12.1673 16.1316 12.1548 16.1316 12.1299 16.1067L12.1113 16.088C12.0864 16.0631 12.0739 16.0631 12.0739 16.088C12.0739 16.1004 12.0739 16.1191 12.0739 16.144C12.0864 16.1564 12.0926 16.1689 12.0926 16.1813L12.1299 16.2187C12.1548 16.1938 12.1859 16.1813 12.2233 16.1813ZM12.9326 9.49867V9.51733C12.945 9.54222 12.9886 9.56711 13.0633 9.592C13.0633 9.57956 13.0633 9.56711 13.0633 9.55467L13.0446 9.536C13.0073 9.51111 12.9948 9.48622 13.0073 9.46133L13.0446 9.424C13.0322 9.424 13.0197 9.424 13.0073 9.424L12.9699 9.40533H12.9139H12.9326H12.9139L12.9699 9.34933L12.9513 9.33067C12.9388 9.33067 12.9264 9.33689 12.9139 9.34933V9.40533L12.8766 9.368C12.8393 9.33067 12.8144 9.33067 12.8019 9.368C12.7646 9.38044 12.7397 9.40533 12.7273 9.44267L12.7646 9.48V9.55467C12.7895 9.57956 12.8144 9.57956 12.8393 9.55467C12.8517 9.54222 12.8704 9.52978 12.8953 9.51733L12.9326 9.49867ZM4.34594 14.7813V14.8C4.35838 14.8 4.37705 14.8 4.40194 14.8L4.4206 14.7813L4.45794 14.8187C4.48283 14.8062 4.52016 14.8 4.56994 14.8C4.58238 14.8 4.59483 14.8062 4.60727 14.8187C4.63216 14.8311 4.65705 14.8311 4.68194 14.8187C4.68194 14.8062 4.66949 14.7938 4.6446 14.7813C4.63216 14.7564 4.62594 14.7378 4.62594 14.7253L4.71927 14.7813C4.73171 14.7564 4.73794 14.7316 4.73794 14.7067C4.71305 14.7067 4.7006 14.6942 4.7006 14.6693H4.68194C4.69438 14.6693 4.7006 14.6693 4.7006 14.6693C4.7006 14.6569 4.70683 14.6507 4.71927 14.6507V14.5573H4.7006C4.67571 14.5822 4.66327 14.6009 4.66327 14.6133L4.62594 14.576V14.6133C4.62594 14.6382 4.61971 14.6507 4.60727 14.6507C4.59483 14.6507 4.5886 14.632 4.5886 14.5947C4.5886 14.5822 4.57616 14.576 4.55127 14.576C4.56371 14.6009 4.56994 14.6382 4.56994 14.688L4.55127 14.7253C4.52638 14.7253 4.51394 14.7191 4.51394 14.7067L4.4766 14.6693C4.4766 14.6818 4.47038 14.6942 4.45794 14.7067C4.45794 14.7191 4.45794 14.7316 4.45794 14.744C4.40816 14.7316 4.37083 14.744 4.34594 14.7813ZM11.8686 12.9147C11.9059 12.8898 11.9308 12.8836 11.9433 12.896C11.993 12.9458 12.0428 12.9582 12.0926 12.9333C12.0926 12.9209 12.0926 12.9084 12.0926 12.896C12.0926 12.8711 12.0988 12.8524 12.1113 12.84C12.1237 12.8276 12.1299 12.8027 12.1299 12.7653C12.105 12.7653 12.0677 12.7529 12.0179 12.728L11.9246 12.784L11.9059 12.7653C11.881 12.7778 11.8686 12.8276 11.8686 12.9147ZM11.9059 13.4373V13.4933C11.9308 13.5182 11.9433 13.512 11.9433 13.4747C11.9433 13.512 11.9495 13.5307 11.9619 13.5307C11.9744 13.5307 11.9868 13.5431 11.9993 13.568C12.0117 13.5929 12.0242 13.6053 12.0366 13.6053C12.0615 13.6053 12.0802 13.5991 12.0926 13.5867C12.0926 13.5493 12.0988 13.5307 12.1113 13.5307C12.1362 13.4809 12.1486 13.4436 12.1486 13.4187C12.1237 13.3938 12.1113 13.4 12.1113 13.4373C12.0864 13.4622 12.0739 13.4809 12.0739 13.4933H12.0366C12.0242 13.4684 12.0179 13.4373 12.0179 13.4L11.9619 13.344V13.456C11.9495 13.4436 11.9308 13.4373 11.9059 13.4373ZM8.69527 13.0827L8.71394 13.12C8.75127 13.12 8.75749 13.1324 8.7326 13.1573H8.71394C8.68905 13.1573 8.67038 13.1636 8.65794 13.176L8.6766 13.1947C8.71394 13.1947 8.7326 13.2133 8.7326 13.2507C8.7326 13.2756 8.74505 13.288 8.76994 13.288C8.79483 13.288 8.81972 13.2756 8.8446 13.2507C8.86949 13.2507 8.88194 13.232 8.88194 13.1947C8.88194 13.1698 8.87572 13.1511 8.86327 13.1387C8.83838 13.1511 8.78238 13.1324 8.69527 13.0827ZM11.4766 15.136C11.4642 15.136 11.4579 15.1422 11.4579 15.1547L11.4206 15.248L11.4393 15.2853L11.4579 15.304C11.4828 15.304 11.4953 15.3164 11.4953 15.3413C11.4953 15.3538 11.4953 15.36 11.4953 15.36C11.5077 15.36 11.5139 15.3662 11.5139 15.3787H11.5513V15.3413C11.5388 15.3164 11.5388 15.2978 11.5513 15.2853C11.5637 15.2853 11.5824 15.2791 11.6073 15.2667H11.5513L11.5139 15.2107L11.5513 15.1733C11.5264 15.1484 11.5015 15.136 11.4766 15.136ZM12.5966 8.50933H12.6526C12.6526 8.49689 12.665 8.46578 12.6899 8.416C12.665 8.39111 12.6588 8.36622 12.6713 8.34133C12.6339 8.32889 12.6153 8.29778 12.6153 8.248C12.6153 8.23556 12.609 8.21689 12.5966 8.192C12.5966 8.22933 12.5904 8.248 12.5779 8.248C12.5779 8.27289 12.5655 8.28533 12.5406 8.28533C12.5655 8.31022 12.5779 8.32889 12.5779 8.34133C12.5779 8.37867 12.5842 8.40356 12.5966 8.416V8.472C12.5842 8.48444 12.5842 8.49689 12.5966 8.50933ZM8.19127 14.5387L8.07927 14.6133C8.16638 14.6507 8.23483 14.6444 8.2846 14.5947V14.5573C8.25972 14.4951 8.2286 14.4889 8.19127 14.5387ZM9.53527 12.672V12.6347H9.60994C9.59749 12.6222 9.58505 12.616 9.5726 12.616L9.53527 12.5973C9.52283 12.5849 9.5166 12.5724 9.5166 12.56V12.5787H9.44194H9.36727C9.36727 12.5911 9.36727 12.5973 9.36727 12.5973C9.37972 12.5973 9.38594 12.6036 9.38594 12.616C9.41083 12.616 9.43572 12.6284 9.4606 12.6533C9.47305 12.6658 9.47305 12.6844 9.4606 12.7093C9.51038 12.7218 9.53527 12.7093 9.53527 12.672ZM12.3913 7.14667L12.4473 7.072C12.3975 7.04711 12.3664 7.03467 12.3539 7.03467C12.329 7.03467 12.2979 7.05333 12.2606 7.09067L12.2979 7.16533C12.3353 7.14044 12.3664 7.13422 12.3913 7.14667ZM10.1699 10.1707H10.2259C10.2384 10.1707 10.257 10.1831 10.2819 10.208L10.3006 10.152C10.2882 10.1271 10.2819 10.0898 10.2819 10.04L10.2446 10.0027C10.2197 10.0276 10.1948 10.04 10.1699 10.04L10.2259 10.1147C10.2259 10.1271 10.2135 10.1396 10.1886 10.152C10.1637 10.152 10.1575 10.1582 10.1699 10.1707ZM12.1299 13.064C12.1797 13.064 12.2108 13.0827 12.2233 13.12C12.2357 13.12 12.2419 13.12 12.2419 13.12L12.2793 13.1387C12.3042 13.1387 12.3166 13.1324 12.3166 13.12C12.2917 13.0827 12.2606 13.0827 12.2233 13.12C12.2233 13.1076 12.2233 13.0951 12.2233 13.0827C12.2357 13.0578 12.2482 13.0391 12.2606 13.0267C12.2357 12.9769 12.1984 12.9582 12.1486 12.9707C12.1486 12.9831 12.1424 13.0018 12.1299 13.0267C12.1299 13.0391 12.1299 13.0516 12.1299 13.064ZM9.10594 12.2427C9.11838 12.2053 9.10594 12.1742 9.0686 12.1493C9.04372 12.1244 9.00638 12.1244 8.9566 12.1493C8.98149 12.1742 8.99394 12.1929 8.99394 12.2053C9.01883 12.2427 9.03749 12.2613 9.04994 12.2613C9.06238 12.2738 9.08105 12.2676 9.10594 12.2427ZM10.0579 12.4853V12.5973L10.0766 12.616C10.089 12.6284 10.1015 12.6347 10.1139 12.6347C10.1139 12.6222 10.1139 12.5973 10.1139 12.56C10.1264 12.5102 10.1264 12.4791 10.1139 12.4667H9.9646C9.98949 12.504 10.0206 12.5102 10.0579 12.4853ZM9.47927 12.1307L9.53527 12.2427C9.54772 12.2427 9.56638 12.2302 9.59127 12.2053C9.61616 12.1556 9.60372 12.1182 9.55394 12.0933H9.53527L9.47927 12.1307ZM11.8313 15.808C11.8313 15.8204 11.8375 15.8267 11.8499 15.8267C11.8748 15.8391 11.8873 15.8702 11.8873 15.92C11.8873 15.9324 11.8935 15.9449 11.9059 15.9573L11.9246 15.976C11.937 15.9636 11.9433 15.9387 11.9433 15.9013C11.9433 15.8889 11.937 15.8764 11.9246 15.864C11.9246 15.8516 11.9246 15.8391 11.9246 15.8267C11.937 15.8018 11.9246 15.7831 11.8873 15.7707C11.8624 15.7956 11.8437 15.808 11.8313 15.808ZM9.55394 11.608C9.55394 11.5956 9.56638 11.5769 9.59127 11.552C9.61616 11.552 9.6286 11.5396 9.6286 11.5147C9.60372 11.4898 9.56638 11.4773 9.5166 11.4773C9.5166 11.5396 9.52905 11.5831 9.55394 11.608ZM10.9539 12.4107C10.929 12.3858 10.8979 12.3733 10.8606 12.3733L10.8419 12.392C10.8544 12.4044 10.8606 12.4231 10.8606 12.448C10.8855 12.448 10.9104 12.4604 10.9353 12.4853C10.9477 12.4853 10.9602 12.4791 10.9726 12.4667C10.9726 12.4542 10.9726 12.448 10.9726 12.448L10.9539 12.4107ZM11.8126 14.296C11.7753 14.3084 11.7566 14.3084 11.7566 14.296L11.7193 14.1653H11.7566L11.8126 14.2213V14.296ZM9.60994 11.104C9.63483 11.0916 9.65972 11.0853 9.6846 11.0853H9.7406V11.0107C9.72816 11.0107 9.71572 11.0044 9.70327 10.992L9.6286 11.048C9.6286 11.0729 9.62238 11.0916 9.60994 11.104ZM12.4286 12.0747V12.1307H12.4659L12.4846 12.112V12.0373C12.4846 12.0249 12.4722 12.0062 12.4473 11.9813H12.4099V12.0187C12.4348 12.0436 12.441 12.0622 12.4286 12.0747ZM10.7299 7.93067L10.6739 8.024C10.6739 8.03644 10.6802 8.04267 10.6926 8.04267C10.705 8.05511 10.7113 8.04889 10.7113 8.024L10.7299 8.00533H10.7859C10.7859 7.95556 10.7673 7.93067 10.7299 7.93067ZM12.7646 11.2907V11.1973C12.7646 11.1849 12.7584 11.1787 12.7459 11.1787C12.7459 11.1787 12.7459 11.1724 12.7459 11.16C12.7459 11.1351 12.7335 11.1351 12.7086 11.16V11.2347C12.721 11.272 12.7397 11.2907 12.7646 11.2907ZM10.8793 8.06133C10.8793 8.04889 10.873 8.03022 10.8606 8.00533C10.8357 8.00533 10.8233 8.01778 10.8233 8.04267H10.7673C10.7673 8.08 10.7859 8.09867 10.8233 8.09867C10.8482 8.09867 10.8668 8.08622 10.8793 8.06133ZM11.0099 7.87467C11.0348 7.88711 11.0535 7.88711 11.0659 7.87467V7.83733C11.0784 7.83733 11.097 7.83111 11.1219 7.81867C11.0846 7.78133 11.0473 7.77511 11.0099 7.8V7.87467ZM12.3166 12.9893C12.3166 12.9769 12.3166 12.9707 12.3166 12.9707L12.2979 12.9333C12.2979 12.9084 12.2855 12.896 12.2606 12.896V13.0267C12.2979 13.0391 12.3166 13.0267 12.3166 12.9893ZM10.6739 9.21867L10.6179 9.29333C10.705 9.26844 10.7548 9.22489 10.7673 9.16267L10.6926 9.2L10.6739 9.21867ZM12.0179 13.1013C11.993 13.0889 11.9619 13.0889 11.9246 13.1013C11.8873 13.1138 11.8624 13.1138 11.8499 13.1013C11.8375 13.1013 11.8313 13.1076 11.8313 13.12L11.8499 13.1387H11.9619C11.9868 13.1387 12.0055 13.1262 12.0179 13.1013ZM12.4659 12.3173C12.4784 12.2924 12.4846 12.2738 12.4846 12.2613C12.4846 12.224 12.4722 12.2053 12.4473 12.2053C12.4348 12.2178 12.4286 12.2427 12.4286 12.28C12.4286 12.3049 12.441 12.3173 12.4659 12.3173ZM12.2233 7.03467C12.2233 7.00978 12.2108 6.99733 12.1859 6.99733V7.03467L12.2046 7.072L12.1673 7.09067C12.1797 7.11556 12.1922 7.128 12.2046 7.128L12.2419 7.09067C12.2419 7.06578 12.2357 7.04711 12.2233 7.03467ZM4.5326 15.6773C4.54505 15.64 4.55127 15.6027 4.55127 15.5653V15.5467C4.55127 15.5342 4.54505 15.528 4.5326 15.528C4.50771 15.5529 4.49527 15.5716 4.49527 15.584L4.51394 15.6213C4.51394 15.6338 4.52016 15.6524 4.5326 15.6773ZM12.5779 12.0373L12.5966 12V11.888L12.5779 11.8693V12.0373ZM12.4286 11.888V11.9067H12.4473V11.888C12.4722 11.8631 12.4846 11.8382 12.4846 11.8133C12.4473 11.8009 12.4224 11.8133 12.4099 11.8507C12.385 11.8756 12.3913 11.888 12.4286 11.888ZM12.5219 11.2907C12.5593 11.2658 12.5779 11.2409 12.5779 11.216C12.6028 11.1911 12.5966 11.1787 12.5593 11.1787H12.5219L12.5593 11.2347C12.5219 11.2347 12.5095 11.2533 12.5219 11.2907C12.497 11.2907 12.4784 11.3031 12.4659 11.328C12.4908 11.3031 12.5095 11.2907 12.5219 11.2907ZM11.3086 8.28533C11.3335 8.248 11.3459 8.20444 11.3459 8.15467L11.3273 8.136L11.3086 8.15467V8.28533ZM8.47127 13.736C8.49616 13.7111 8.49616 13.6862 8.47127 13.6613C8.45883 13.6489 8.44016 13.6427 8.41527 13.6427C8.41527 13.6676 8.43394 13.6987 8.47127 13.736ZM11.1406 8.808C11.1406 8.78311 11.153 8.77067 11.1779 8.77067C11.1779 8.74578 11.1717 8.73333 11.1593 8.73333C11.1344 8.72089 11.1157 8.72089 11.1033 8.73333C11.1033 8.77067 11.1157 8.79556 11.1406 8.808ZM12.1486 13.568C12.1486 13.6053 12.1548 13.6364 12.1673 13.6613C12.1673 13.6738 12.1797 13.6738 12.2046 13.6613C12.2046 13.6116 12.1859 13.5804 12.1486 13.568ZM4.71927 15.7893L4.66327 15.8453C4.67571 15.8578 4.68194 15.8702 4.68194 15.8827L4.73794 15.808L4.71927 15.7893ZM11.7566 13.4H11.7193C11.7193 13.4124 11.7379 13.4187 11.7753 13.4187C11.8002 13.4187 11.8126 13.4 11.8126 13.3627C11.8002 13.3627 11.7815 13.3564 11.7566 13.344V13.4ZM4.9806 15.6027L4.96194 15.6213C4.96194 15.584 4.95571 15.5591 4.94327 15.5467L4.96194 15.528H4.9806C5.01794 15.5653 5.01794 15.5902 4.9806 15.6027ZM12.9699 9.77867C12.9824 9.77867 12.9948 9.78489 13.0073 9.79733V9.77867C12.9948 9.74133 12.9637 9.72267 12.9139 9.72267V9.76C12.9264 9.74756 12.945 9.75378 12.9699 9.77867ZM9.55394 11.608L9.64727 11.6453C9.65972 11.608 9.65349 11.5893 9.6286 11.5893C9.61616 11.5893 9.60372 11.5893 9.59127 11.5893L9.55394 11.608ZM12.4846 8.36C12.4846 8.38489 12.497 8.40978 12.5219 8.43467H12.5406V8.37867C12.5282 8.36622 12.5095 8.36 12.4846 8.36ZM10.6179 8.93867C10.593 8.976 10.5868 9.00089 10.5993 9.01333C10.6117 9.02578 10.6242 9.02578 10.6366 9.01333C10.649 9.00089 10.6428 8.976 10.6179 8.93867ZM12.3166 7.27733H12.3353C12.3477 7.24 12.3415 7.22133 12.3166 7.22133L12.2793 7.25867C12.2793 7.296 12.2917 7.30222 12.3166 7.27733ZM10.9539 8.304L10.9913 8.37867L10.9539 8.416V8.304ZM11.6259 15.64L11.6633 15.6773C11.6757 15.6898 11.6819 15.696 11.6819 15.696C11.6944 15.6836 11.7006 15.6649 11.7006 15.64H11.6259ZM11.6073 14.0347C11.5948 14.0347 11.5824 14.0284 11.5699 14.016C11.545 14.016 11.5326 14.0222 11.5326 14.0347L11.5699 14.072C11.5948 14.072 11.6073 14.0596 11.6073 14.0347ZM12.2046 13.176H12.1486C12.1486 13.2133 12.1673 13.232 12.2046 13.232V13.176ZM12.5593 12.4293C12.5468 12.392 12.5219 12.3733 12.4846 12.3733C12.4722 12.3733 12.4659 12.3796 12.4659 12.392L12.5033 12.4107C12.5282 12.4107 12.5468 12.4169 12.5593 12.4293ZM9.5726 11.1973C9.63483 11.1973 9.67838 11.1911 9.70327 11.1787C9.66594 11.1538 9.62238 11.16 9.5726 11.1973ZM9.9086 12.4107L9.88994 12.392C9.87749 12.3796 9.85883 12.3858 9.83394 12.4107V12.4293H9.87127C9.88372 12.4293 9.88994 12.4293 9.88994 12.4293C9.88994 12.4169 9.89616 12.4107 9.9086 12.4107ZM4.28994 14.688C4.28994 14.7129 4.29616 14.7253 4.3086 14.7253H4.32727C4.33971 14.7129 4.34594 14.7004 4.34594 14.688C4.34594 14.6756 4.33349 14.6693 4.3086 14.6693C4.29616 14.6693 4.28994 14.6756 4.28994 14.688ZM9.53527 12.3547C9.52283 12.4169 9.52905 12.4542 9.55394 12.4667C9.55394 12.4169 9.54772 12.3796 9.53527 12.3547ZM12.1299 15.7147L12.1486 15.696C12.161 15.696 12.1735 15.696 12.1859 15.696C12.161 15.6711 12.1299 15.6711 12.0926 15.696H12.1113L12.1299 15.7147ZM4.96194 15.6213L5.01794 15.6773C5.01794 15.6898 5.02416 15.7022 5.0366 15.7147L5.01794 15.696C5.00549 15.696 4.99305 15.696 4.9806 15.696L4.96194 15.6587V15.6213ZM11.8126 15.416C11.825 15.4284 11.8188 15.4533 11.7939 15.4907C11.769 15.4782 11.7753 15.4533 11.8126 15.416ZM9.5166 12.56H9.59127C9.57883 12.5351 9.55394 12.5227 9.5166 12.5227V12.56ZM4.84994 15.6587H4.88727C4.89971 15.6587 4.90594 15.6711 4.90594 15.696L4.88727 15.7147V15.7333L4.8686 15.7147V15.6773L4.84994 15.6587ZM5.24194 16.144C5.22949 16.144 5.22327 16.1502 5.22327 16.1627C5.22327 16.1627 5.21705 16.1627 5.2046 16.1627C5.16727 16.1627 5.16105 16.1502 5.18594 16.1253L5.2046 16.1067L5.24194 16.144ZM13.0819 9.46133H13.1193C13.0944 9.41156 13.0695 9.39911 13.0446 9.424L13.0819 9.46133ZM8.71394 12.9893H8.63927C8.66416 13.0142 8.68905 13.0267 8.71394 13.0267V12.9893ZM11.9433 14.688C11.9806 14.688 12.0055 14.6818 12.0179 14.6693C11.993 14.6444 11.9682 14.6507 11.9433 14.688ZM12.6153 11.2907H12.6526V11.3093L12.6713 11.328L12.6899 11.3093L12.6713 11.2907H12.6526V11.2533C12.6277 11.2533 12.6153 11.2658 12.6153 11.2907ZM8.8446 12.8587L8.86327 12.8773C8.87572 12.8773 8.88816 12.8711 8.9006 12.8587L8.86327 12.8213C8.82594 12.8213 8.81972 12.8338 8.8446 12.8587ZM4.99927 16.088L5.0366 16.1253C4.98683 16.1129 4.96816 16.088 4.9806 16.0507C4.99305 16.0507 4.99927 16.0631 4.99927 16.088ZM12.2793 12.8027C12.2295 12.8027 12.1984 12.8089 12.1859 12.8213L12.2046 12.84L12.2793 12.8027ZM10.8046 9.27467L10.8419 9.23733C10.8295 9.23733 10.8233 9.23733 10.8233 9.23733C10.8233 9.22489 10.817 9.21867 10.8046 9.21867C10.7673 9.21867 10.761 9.23111 10.7859 9.256C10.7859 9.26844 10.7922 9.27467 10.8046 9.27467ZM4.40194 14.8747V14.856L4.38327 14.8373C4.38327 14.8498 4.37705 14.8622 4.3646 14.8747C4.35216 14.8871 4.35216 14.8996 4.3646 14.912C4.38949 14.912 4.40194 14.8996 4.40194 14.8747ZM11.8686 13.4C11.8562 13.4124 11.8499 13.4311 11.8499 13.456C11.8748 13.456 11.8935 13.4498 11.9059 13.4373H11.8873C11.9122 13.4124 11.9059 13.4 11.8686 13.4ZM11.4953 14.464C11.4704 14.464 11.4579 14.4702 11.4579 14.4827H11.4393C11.4393 14.4951 11.4455 14.5013 11.4579 14.5013C11.4704 14.5138 11.4766 14.52 11.4766 14.52C11.489 14.5076 11.4953 14.4889 11.4953 14.464ZM10.3566 9.90933V10.0213C10.3815 9.97156 10.3815 9.93422 10.3566 9.90933ZM10.3006 9.704L10.2633 9.68533C10.2508 9.68533 10.2446 9.69156 10.2446 9.704C10.2446 9.71644 10.257 9.72267 10.2819 9.72267C10.2819 9.71022 10.2882 9.704 10.3006 9.704ZM10.4313 12.4667L10.4873 12.4107C10.4375 12.4107 10.4126 12.4231 10.4126 12.448C10.425 12.448 10.4313 12.4542 10.4313 12.4667ZM12.4286 8.248H12.4659L12.4846 8.22933L12.4659 8.21067H12.4473C12.4348 8.21067 12.4286 8.22311 12.4286 8.248ZM9.49794 11.3467C9.48549 11.3342 9.47927 11.3218 9.47927 11.3093L9.4606 11.328H9.44194C9.44194 11.3529 9.45438 11.3653 9.47927 11.3653C9.47927 11.3529 9.48549 11.3467 9.49794 11.3467ZM11.7379 13.6053H11.7753L11.7939 13.5867C11.7815 13.5742 11.769 13.568 11.7566 13.568C11.7442 13.568 11.7379 13.5804 11.7379 13.6053ZM5.5406 12.2613H5.46594C5.50327 12.2987 5.52816 12.2987 5.5406 12.2613ZM12.4473 7.072L12.4659 7.03467C12.4659 7.00978 12.4659 6.99111 12.4659 6.97867C12.441 6.99111 12.4348 7.02222 12.4473 7.072ZM12.4846 11.1413L12.5593 11.104C12.5095 11.0916 12.4846 11.104 12.4846 11.1413ZM11.4019 8.34133L11.4206 8.32267C11.4206 8.31022 11.4144 8.304 11.4019 8.304H11.3646C11.3646 8.31644 11.3708 8.32267 11.3833 8.32267L11.4019 8.34133ZM12.0926 15.752C12.0677 15.7271 12.049 15.7147 12.0366 15.7147C12.0366 15.7396 12.0553 15.752 12.0926 15.752ZM11.6633 15.7707V15.6773C11.6259 15.7147 11.6259 15.7458 11.6633 15.7707ZM9.5166 11.384V11.4213C9.54149 11.4213 9.55394 11.4089 9.55394 11.384H9.5166ZM4.43927 14.576C4.42683 14.5636 4.40816 14.5573 4.38327 14.5573V14.5947H4.40194C4.41438 14.5822 4.42683 14.576 4.43927 14.576ZM12.5033 11.44L12.4846 11.4213C12.4846 11.4089 12.4908 11.3964 12.5033 11.384C12.5157 11.384 12.5219 11.3902 12.5219 11.4027C12.5219 11.4151 12.5157 11.4276 12.5033 11.44ZM5.89527 10.04C5.87038 10.04 5.85171 10.0462 5.83927 10.0587L5.85794 10.0773C5.88283 10.0773 5.89527 10.0649 5.89527 10.04ZM12.5406 8.09867C12.5282 8.11111 12.5219 8.12356 12.5219 8.136L12.5406 8.15467C12.553 8.15467 12.5593 8.14844 12.5593 8.136C12.5593 8.12356 12.553 8.11733 12.5406 8.11733C12.5406 8.11733 12.5406 8.11111 12.5406 8.09867ZM9.59127 11.8693H9.60994L9.59127 11.8507H9.55394V11.8693C9.56638 11.8818 9.57883 11.8818 9.59127 11.8693ZM11.5513 15.6027C11.5762 15.5778 11.5886 15.5591 11.5886 15.5467C11.5637 15.5467 11.5513 15.5653 11.5513 15.6027ZM12.7086 9.29333L12.7273 9.27467C12.7273 9.24978 12.7148 9.23733 12.6899 9.23733C12.7024 9.24978 12.7086 9.26844 12.7086 9.29333ZM12.0553 13.008L12.1299 13.064C12.1175 13.0267 12.0926 13.008 12.0553 13.008ZM12.1299 13.3067H12.1486V13.288C12.1362 13.288 12.1299 13.288 12.1299 13.288C12.1299 13.2756 12.1237 13.2693 12.1113 13.2693C12.0988 13.2693 12.105 13.2818 12.1299 13.3067ZM4.43927 14.8373L4.40194 14.8747H4.4206L4.43927 14.8933V14.8373ZM12.8019 11.1227V11.1413C12.8019 11.1538 12.8082 11.1662 12.8206 11.1787L12.8393 11.16L12.8206 11.1413L12.8019 11.1227ZM12.5033 16.032H12.5219V15.976C12.5095 15.976 12.5033 15.9822 12.5033 15.9947V16.032ZM12.6713 9.38667V9.44267C12.6962 9.41778 12.6962 9.39911 12.6713 9.38667ZM4.83127 15.6587L4.84994 15.6213C4.86238 15.6089 4.87483 15.6027 4.88727 15.6027L4.83127 15.6587ZM11.1966 8.32267C11.1966 8.28533 11.209 8.26044 11.2339 8.248L11.1966 8.32267ZM4.8126 14.7813L4.84994 14.744C4.8126 14.744 4.80016 14.7564 4.8126 14.7813ZM12.9699 8.77067C12.9948 8.75822 13.0135 8.75822 13.0259 8.77067C13.0135 8.78311 12.9948 8.78311 12.9699 8.77067ZM10.1326 10.5253H10.1699L10.1513 10.488L10.1326 10.5067V10.5253ZM4.28994 14.5947V14.6693V14.5947ZM11.9993 14.2587V14.2213C12.0117 14.2213 12.0242 14.2151 12.0366 14.2027C12.0242 14.2151 12.0117 14.2276 11.9993 14.24C11.9993 14.24 11.9993 14.2462 11.9993 14.2587ZM12.9326 9.68533C12.9077 9.66044 12.8953 9.66667 12.8953 9.704C12.9077 9.69156 12.9202 9.68533 12.9326 9.68533ZM11.5886 12.448L11.6073 12.4293L11.5886 12.4107H11.5699C11.5699 12.4231 11.5762 12.4356 11.5886 12.448ZM12.1673 7.94933L12.1486 7.912L12.1299 7.89333V7.912L12.1673 7.94933ZM11.9059 13.4933L11.8313 13.5307C11.8686 13.5307 11.8935 13.5182 11.9059 13.4933ZM11.7566 13.68H11.7939C11.7939 13.6427 11.7815 13.6364 11.7566 13.6613V13.68ZM12.8019 9.66667H12.7833V9.704H12.8019V9.66667ZM11.1779 8.584V8.60267C11.1904 8.60267 11.1966 8.60267 11.1966 8.60267C11.1966 8.59022 11.2028 8.584 11.2153 8.584V8.56533C11.2028 8.56533 11.1966 8.57156 11.1966 8.584C11.1966 8.584 11.1904 8.584 11.1779 8.584ZM9.64727 12.5227H9.6286V12.5413L9.64727 12.56C9.65972 12.56 9.66594 12.5538 9.66594 12.5413L9.64727 12.5227ZM8.20994 14.1467L8.2286 14.128L8.20994 14.1093H8.19127C8.20372 14.1218 8.20994 14.1342 8.20994 14.1467ZM12.5219 7.09067H12.4846L12.5033 7.10933C12.5157 7.10933 12.5219 7.10311 12.5219 7.09067ZM13.0259 8.99467V8.93867L13.0446 8.976C13.0446 8.98844 13.0384 8.99467 13.0259 8.99467ZM12.4659 12.5227H12.5406C12.5282 12.5102 12.5033 12.5102 12.4659 12.5227ZM9.9086 12.5413C9.88372 12.5164 9.87127 12.5227 9.87127 12.56H9.88994C9.90238 12.56 9.9086 12.5538 9.9086 12.5413ZM5.35394 12.28V12.3173H5.3726C5.3726 12.3049 5.36638 12.2987 5.35394 12.2987C5.35394 12.2987 5.35394 12.2924 5.35394 12.28ZM10.1886 10.3013V10.3387C10.201 10.3262 10.2073 10.3138 10.2073 10.3013V10.2827L10.1886 10.3013ZM12.7459 11.6827C12.721 11.6702 12.7024 11.664 12.6899 11.664C12.7024 11.6764 12.721 11.6827 12.7459 11.6827ZM12.1859 12.9147H12.2046C12.2046 12.9022 12.1984 12.896 12.1859 12.896H12.1673L12.1859 12.9147ZM11.7939 15.6587L11.7753 15.64H11.7566C11.7566 15.6524 11.7628 15.6587 11.7753 15.6587H11.7939ZM11.8873 15.64C11.8873 15.6649 11.8935 15.6773 11.9059 15.6773C11.9184 15.6773 11.9246 15.6711 11.9246 15.6587L11.8873 15.64ZM11.8126 14.296C11.8002 14.2836 11.7939 14.2711 11.7939 14.2587C11.8064 14.2587 11.8126 14.2711 11.8126 14.296ZM10.9353 12.3173L10.9166 12.336L10.9353 12.3547H10.9539C10.9415 12.3422 10.9353 12.3298 10.9353 12.3173ZM12.8953 8.71467V8.73333C12.8953 8.75822 12.889 8.77067 12.8766 8.77067C12.8766 8.74578 12.8828 8.72711 12.8953 8.71467ZM12.7833 8.73333V8.71467H12.8019V8.752L12.7833 8.73333ZM11.7006 12.672H11.7379L11.7193 12.6533C11.7068 12.6533 11.7006 12.6596 11.7006 12.672ZM11.5326 12.6533H11.5699C11.5699 12.6409 11.5575 12.6347 11.5326 12.6347V12.6533ZM10.2633 7.744H10.3193C10.3068 7.73156 10.2882 7.73156 10.2633 7.744ZM13.0633 8.37867H13.0819C13.0819 8.36622 13.0757 8.36 13.0633 8.36H13.0446L13.0633 8.37867ZM11.6259 7.61333V7.65067H11.6446C11.6446 7.63822 11.6384 7.632 11.6259 7.632C11.6259 7.632 11.6259 7.62578 11.6259 7.61333ZM10.6366 7.744V7.76267C10.649 7.76267 10.6553 7.75644 10.6553 7.744V7.72533L10.6366 7.744ZM12.6899 11.776C12.6775 11.776 12.6713 11.7822 12.6713 11.7947C12.6837 11.7947 12.6899 11.8009 12.6899 11.8133C12.6899 11.8009 12.6962 11.7947 12.7086 11.7947L12.6899 11.776ZM4.77527 14.5947C4.77527 14.5822 4.76905 14.576 4.7566 14.576V14.6133L4.77527 14.5947ZM12.5779 12.2613L12.5966 12.2427L12.5779 12.224L12.5593 12.2427C12.5717 12.2427 12.5779 12.2489 12.5779 12.2613ZM11.7939 15.6587V15.7147C11.8064 15.6898 11.8064 15.6711 11.7939 15.6587ZM12.2419 16.1813V16.2187C12.2419 16.2311 12.2482 16.2373 12.2606 16.2373C12.2606 16.2249 12.2544 16.2062 12.2419 16.1813ZM9.5166 11.4773L9.4606 11.44C9.47305 11.4649 9.49172 11.4773 9.5166 11.4773ZM8.75127 12.728V12.6907C8.73883 12.7031 8.7326 12.7156 8.7326 12.728H8.75127ZM4.66327 15.6213H4.6446V15.6587C4.65705 15.6462 4.66327 15.6338 4.66327 15.6213ZM8.2846 13.6987V13.736H8.30327C8.30327 13.7236 8.29705 13.7111 8.2846 13.6987ZM11.8686 7.912L11.8499 7.89333H11.8313L11.8499 7.912H11.8686ZM5.4846 12.1493L5.50327 12.1307C5.49083 12.1307 5.4846 12.1244 5.4846 12.112L5.46594 12.1307L5.4846 12.1493ZM12.3353 7.38933L12.3166 7.408L12.3353 7.42667C12.3353 7.41422 12.3415 7.408 12.3539 7.408L12.3353 7.38933ZM4.73794 14.072H4.7006L4.71927 14.0907L4.73794 14.072ZM10.0766 12.3547C10.0766 12.3422 10.0828 12.336 10.0953 12.336H10.0579C10.0579 12.3484 10.0642 12.3547 10.0766 12.3547ZM13.7539 14.8L13.7353 14.7813L13.7166 14.8H13.7353H13.7539ZM12.3726 12.2613V12.2427L12.3539 12.224V12.2427C12.3539 12.2551 12.3602 12.2613 12.3726 12.2613ZM10.3006 9.79733H10.2819L10.2633 9.816H10.2819C10.2944 9.816 10.3006 9.80978 10.3006 9.79733ZM10.3939 7.89333C10.3815 7.89333 10.3753 7.89333 10.3753 7.89333C10.3753 7.88089 10.369 7.87467 10.3566 7.87467V7.89333H10.3753H10.3939ZM4.43927 14.6507H4.40194L4.4206 14.6693C4.43305 14.6693 4.43927 14.6631 4.43927 14.6507ZM8.86327 12.8027C8.86327 12.8151 8.86949 12.8213 8.88194 12.8213C8.89438 12.8213 8.9006 12.8151 8.9006 12.8027H8.86327ZM4.34594 14.8373V14.8L4.32727 14.8187V14.8373H4.34594ZM12.5966 11.7947H12.5779V11.8133C12.5904 11.8133 12.5966 11.8071 12.5966 11.7947ZM4.27127 14.8187H4.2526V14.8373C4.26505 14.8373 4.27127 14.8311 4.27127 14.8187ZM4.79394 15.5467H4.84994H4.79394ZM9.47927 11.0853L9.4606 11.104V11.1227L9.47927 11.0853ZM5.2046 15.7707V15.7147V15.7707ZM10.3753 9.66667H10.3939V9.648C10.3815 9.648 10.3753 9.65422 10.3753 9.66667ZM8.82594 12.6907H8.8446C8.8446 12.6782 8.83838 12.672 8.82594 12.672V12.6907ZM13.7726 14.6693H13.7539V14.688H13.7726V14.6693ZM10.3566 9.57333L10.3379 9.55467C10.3379 9.56711 10.3317 9.57333 10.3193 9.57333H10.3379H10.3566ZM11.8499 14.3707H11.8313C11.8313 14.3582 11.825 14.352 11.8126 14.352H11.8313C11.8437 14.352 11.8499 14.3582 11.8499 14.3707ZM11.8499 13.0453H11.8313V13.064C11.8437 13.064 11.8499 13.0578 11.8499 13.0453ZM12.2046 7.27733H12.2233V7.25867H12.2046V7.27733ZM11.6633 13.7547C11.6508 13.7547 11.6446 13.7609 11.6446 13.7733C11.657 13.7733 11.6633 13.7671 11.6633 13.7547ZM4.62594 15.1173C4.61349 15.1173 4.60727 15.1236 4.60727 15.136C4.61971 15.136 4.62594 15.1298 4.62594 15.1173ZM10.8233 7.856V7.83733H10.8046V7.856H10.8233ZM11.7939 12.672H11.7753V12.6907H11.7939V12.672ZM11.5513 7.55733V7.576H11.5699C11.5699 7.56356 11.5637 7.55733 11.5513 7.55733ZM10.3379 12.7093H10.3193V12.728H10.3379V12.7093ZM9.5166 11.9627V11.944H9.49794C9.49794 11.9564 9.50416 11.9627 9.5166 11.9627ZM11.4766 15.1173V15.0613V15.1173ZM11.6259 12.5787V12.5973H11.6446C11.6446 12.5849 11.6384 12.5787 11.6259 12.5787ZM11.5326 14.184H11.5139V14.2027C11.5264 14.2027 11.5326 14.1964 11.5326 14.184ZM8.5646 13.232H8.54594V13.2507C8.55838 13.2507 8.5646 13.2444 8.5646 13.232ZM4.6446 14.4453V14.464H4.66327C4.66327 14.4516 4.65705 14.4453 4.6446 14.4453ZM12.9699 9.77867C12.945 9.77867 12.9264 9.77244 12.9139 9.76C12.9388 9.76 12.9575 9.76622 12.9699 9.77867ZM12.9699 8.99467L12.9513 9.01333V8.99467L12.9699 8.976V8.99467ZM13.0446 9.872V9.85333H13.0259V9.872H13.0446ZM13.0259 8.49067L13.0446 8.472V8.50933L13.0259 8.49067ZM12.8206 8.36V8.37867H12.8019V8.36H12.8206ZM12.5033 16.2747H12.5406L12.5219 16.256L12.5033 16.2747ZM12.3353 12.5413H12.3539V12.5227H12.3353V12.5413ZM12.6153 11.6453H12.5966L12.6153 11.6267V11.6453ZM8.60194 13.6053H8.5646H8.60194ZM13.0073 8.22933V8.248L13.0259 8.22933H13.0073ZM11.6073 7.87467H11.6259V7.856L11.6073 7.87467ZM10.5993 7.65067V7.66933H10.6179C10.6179 7.65689 10.6117 7.65067 10.5993 7.65067ZM10.9353 9.256V9.27467C10.9477 9.27467 10.9539 9.26844 10.9539 9.256H10.9353ZM4.73794 14.856V14.8187L4.71927 14.8373L4.73794 14.856ZM8.37794 13.736V13.7173H8.35927L8.37794 13.736ZM4.79394 15.5467V15.5653C4.79394 15.5778 4.78771 15.584 4.77527 15.584C4.78771 15.5716 4.79394 15.5591 4.79394 15.5467ZM9.04994 12.2053L9.08727 12.2427C9.06238 12.2427 9.04994 12.2302 9.04994 12.2053ZM12.2419 13.344H12.2233V13.3627C12.2357 13.3627 12.2419 13.3564 12.2419 13.344ZM8.97527 12.728H8.99394C8.99394 12.7156 8.98772 12.7093 8.97527 12.7093V12.728ZM10.7486 7.83733H10.7299V7.856C10.7424 7.856 10.7486 7.84978 10.7486 7.83733ZM12.3353 7.464H12.3166V7.48267C12.329 7.48267 12.3353 7.47644 12.3353 7.464ZM8.71394 13.6613H8.69527V13.68C8.70772 13.68 8.71394 13.6738 8.71394 13.6613ZM12.3539 11.9813V11.9627C12.3415 11.9627 12.3353 11.9689 12.3353 11.9813H12.3539ZM11.3833 7.89333V7.87467H11.3646L11.3833 7.89333ZM4.94327 14.6133V14.5947H4.9246L4.94327 14.6133ZM4.5326 14.5947H4.51394V14.6133L4.5326 14.5947ZM11.7566 15.1547V15.136H11.7379C11.7379 15.1484 11.7442 15.1547 11.7566 15.1547ZM12.9886 8.864H13.0073V8.88267L12.9886 8.864ZM12.7833 10.3013H12.7646V10.32L12.7833 10.3013ZM8.99394 12.784V12.8027H9.0126L8.99394 12.784ZM8.54594 13.6987H8.5646V13.68L8.54594 13.6987ZM12.7459 8.864H12.7273V8.84533C12.7397 8.84533 12.7459 8.85156 12.7459 8.864ZM12.1673 15.752C12.1673 15.7396 12.161 15.7333 12.1486 15.7333H12.1299C12.1424 15.7458 12.1548 15.752 12.1673 15.752ZM4.60727 15.192L4.62594 15.1733H4.60727V15.192ZM13.0633 9.21867C13.0633 9.19378 13.0695 9.17511 13.0819 9.16267L13.0633 9.18133C13.0633 9.19378 13.0633 9.20622 13.0633 9.21867ZM13.1006 9.032L13.0819 9.05067V9.032H13.1006ZM11.7379 14.4453H11.7566L11.7379 14.464V14.4453ZM5.33527 16.0133V15.9947H5.3166L5.33527 16.0133ZM10.5619 7.94933V7.968L10.5806 7.94933H10.5619ZM12.9513 10.0773H12.9326V10.096L12.9513 10.0773ZM11.9993 14.1467L11.9806 14.128H11.9993V14.1467ZM9.6286 11.384H9.64727V11.3653L9.6286 11.384ZM11.4953 12.4667L11.5139 12.4853V12.4667H11.4953ZM12.5593 12.336H12.5779V12.3173L12.5593 12.336ZM4.4766 14.4827L4.49527 14.464H4.4766V14.4827ZM11.7566 15.7147H11.7939C11.7815 15.7022 11.769 15.7022 11.7566 15.7147ZM11.8686 15.2667L11.8499 15.248V15.2667H11.8686ZM11.4953 15.5653L11.5513 15.6027C11.5264 15.5778 11.5077 15.5653 11.4953 15.5653ZM11.8313 7.688L11.8126 7.66933L11.8313 7.688ZM11.6259 7.76267L11.6073 7.744V7.76267H11.6259ZM4.45794 15.304V15.2853H4.43927L4.45794 15.304ZM9.44194 12.672V12.6907L9.4606 12.7093C9.44816 12.6969 9.44194 12.6844 9.44194 12.672ZM10.5433 12.448V12.4293H10.5246L10.5433 12.448ZM10.3193 12.3547V12.3733L10.3379 12.3547H10.3193ZM9.47927 11.8693L9.49794 11.888V11.8693H9.47927ZM8.6206 13.6053C8.6206 13.6302 8.62683 13.6427 8.63927 13.6427L8.6206 13.624V13.6053ZM12.6339 16.088V16.0693H12.6153L12.6339 16.088ZM9.53527 11.6827V11.664V11.6827ZM7.7806 15.0427H7.79927H7.7806ZM4.5886 14.9307V14.912V14.9307ZM11.6073 15.024H11.6259C11.6135 15.0116 11.6073 15.0116 11.6073 15.024ZM4.7566 15.9387H4.77527V15.9573L4.7566 15.9387ZM10.0393 10.488V10.4693H10.0206L10.0393 10.488ZM16.6585 15.864C16.6336 15.8764 16.6087 15.8951 16.5838 15.92C16.5589 15.9324 16.5403 15.9387 16.5278 15.9387C16.4407 15.976 16.3536 16.0258 16.2665 16.088C16.2167 16.1129 16.1732 16.1253 16.1358 16.1253C15.9367 16.1876 15.8123 16.2249 15.7625 16.2373C15.6878 16.2498 15.5696 16.256 15.4078 16.256L15.0718 16.2C15.0469 16.1876 14.9972 16.1751 14.9225 16.1627C14.8603 16.1502 14.8167 16.1316 14.7918 16.1067L14.6798 16.0507C14.4807 15.9387 14.3252 15.8018 14.2132 15.64C14.1758 15.6027 14.1323 15.5467 14.0825 15.472L13.9892 15.304C13.9892 15.2916 13.9829 15.2729 13.9705 15.248C13.9083 15.1484 13.8709 15.0489 13.8585 14.9493L13.7838 14.6507C13.7838 14.6258 13.7838 14.5884 13.7838 14.5387C13.7714 14.4889 13.7652 14.4516 13.7652 14.4267C13.7527 14.3396 13.7465 14.2151 13.7465 14.0533C13.7465 13.9538 13.7589 13.8044 13.7838 13.6053C13.7838 13.5804 13.7901 13.5431 13.8025 13.4933C13.8025 13.4436 13.8025 13.4 13.8025 13.3627C13.8274 13.2133 13.8523 13.1076 13.8772 13.0453L13.9145 12.9333C13.9269 12.8213 13.9705 12.6782 14.0452 12.504C14.0949 12.3298 14.1323 12.2302 14.1572 12.2053L14.2878 11.888L14.4372 11.608C14.5741 11.3964 14.6549 11.2782 14.6798 11.2533C14.7296 11.1787 14.8167 11.0667 14.9412 10.9173L15.1092 10.7493C15.1714 10.6871 15.2647 10.6062 15.3892 10.5067C15.6007 10.3324 15.8309 10.2018 16.0798 10.1147L16.4532 10.0027C16.6398 9.96533 16.8203 9.94667 16.9945 9.94667C17.0816 9.94667 17.1874 9.95911 17.3118 9.984C17.3243 9.984 17.3429 9.99022 17.3678 10.0027C17.3927 10.0027 17.4114 10.0027 17.4238 10.0027C17.6478 10.1022 17.7847 10.1644 17.8345 10.1893L18.0585 10.376L18.2452 10.5813L18.3012 10.6373C18.3136 10.6124 18.3198 10.5876 18.3198 10.5627L18.4318 10.2267C18.4443 10.1769 18.4754 10.1147 18.5252 10.04C18.5749 9.95289 18.6621 9.90933 18.7865 9.90933C18.8363 9.89689 18.9234 9.89067 19.0478 9.89067H19.2905C19.3776 9.89067 19.4523 9.90933 19.5145 9.94667C19.5767 9.97156 19.6016 10.0089 19.5892 10.0587V10.2267L19.5145 10.5067C19.5021 10.544 19.4772 10.6311 19.4398 10.768L19.4025 10.8613L19.3278 11.1413L19.2532 11.328L19.1598 11.6453L19.0478 12.0373L18.9545 12.3173L18.8425 12.672L18.7678 12.952C18.7554 12.9769 18.7367 13.0204 18.7118 13.0827C18.6994 13.1449 18.6869 13.1884 18.6745 13.2133C18.6496 13.3129 18.6247 13.4 18.5998 13.4747V13.512C18.5501 13.624 18.5189 13.7236 18.5065 13.8107L18.2825 14.5573L18.2078 14.8C18.2078 14.8124 18.1892 14.856 18.1518 14.9307C18.1269 15.0053 18.1083 15.0676 18.0958 15.1173C18.0709 15.1796 18.0274 15.2916 17.9652 15.4533C17.9154 15.6151 17.8718 15.7396 17.8345 15.8267C17.7847 15.9262 17.7536 16.0009 17.7412 16.0507C17.7163 16.1004 17.7038 16.1378 17.7038 16.1627C17.7038 16.1751 17.7163 16.1813 17.7412 16.1813L17.7972 16.144C17.9963 16.0196 18.1456 15.9138 18.2452 15.8267L18.4318 15.6587L18.6372 15.4533L18.8052 15.248L19.0852 14.8187L19.2718 14.4453L19.3838 14.2027C19.4087 14.1778 19.4212 14.1591 19.4212 14.1467C19.4212 14.1342 19.4274 14.1093 19.4398 14.072C19.4647 14.0222 19.4834 13.9849 19.4958 13.96L19.5518 13.8293C19.6016 13.6676 19.6327 13.5618 19.6452 13.512C19.6452 13.4996 19.6763 13.4498 19.7385 13.3627L19.7945 13.3067C19.8941 13.2818 19.9625 13.2693 19.9998 13.2693L20.2985 13.3253C20.3981 13.3378 20.4976 13.3938 20.5972 13.4933C20.6345 13.5307 20.6532 13.6053 20.6532 13.7173C20.6283 13.8169 20.6034 13.8978 20.5785 13.96L20.4105 14.3707L20.2612 14.688L20.0932 15.0053L19.9252 15.2853L19.6452 15.6773C19.5954 15.752 19.5083 15.864 19.3838 16.0133C19.3714 16.0382 19.3527 16.0631 19.3278 16.088C19.3029 16.1004 19.2781 16.1191 19.2532 16.144C19.2283 16.1689 19.2096 16.1876 19.1972 16.2L19.1598 16.2373C19.1474 16.2622 19.1287 16.2871 19.1038 16.312C19.0789 16.3369 19.0478 16.368 19.0105 16.4053C18.9732 16.4302 18.9483 16.4489 18.9358 16.4613C18.9234 16.4738 18.8425 16.536 18.6932 16.648C18.6807 16.6604 18.6185 16.704 18.5065 16.7787L18.3012 16.9093L18.2825 16.928C18.2701 16.928 18.2576 16.928 18.2452 16.928L18.1892 16.9653C18.0398 17.0524 17.8656 17.1271 17.6665 17.1893L17.4425 17.264L17.1625 17.32C17.1501 17.3324 17.1376 17.3511 17.1252 17.376L17.1065 17.4133L17.0318 17.5253C16.8949 17.7493 16.8016 17.8924 16.7518 17.9547C16.7145 18.0169 16.5901 18.1662 16.3785 18.4027L16.3225 18.4587L16.1732 18.5893L15.8932 18.8133C15.8558 18.8507 15.8123 18.8756 15.7625 18.888C15.6132 18.9876 15.4203 19.0684 15.1838 19.1307H15.1465C15.1216 19.1431 15.1029 19.1493 15.0905 19.1493C15.0158 19.1742 14.9474 19.1867 14.8852 19.1867C14.8603 19.1867 14.8292 19.1867 14.7918 19.1867C14.7545 19.1991 14.7296 19.2053 14.7172 19.2053H14.5118C14.4994 19.2053 14.4683 19.1991 14.4185 19.1867C14.3687 19.1867 14.3314 19.1867 14.3065 19.1867L14.0825 19.1307C13.9083 19.0684 13.7527 18.9876 13.6158 18.888C13.5163 18.8258 13.4229 18.7262 13.3358 18.5893L13.2425 18.4587C13.2176 18.4089 13.1927 18.3218 13.1678 18.1973C13.1305 18.0729 13.1367 17.9236 13.1865 17.7493C13.1989 17.6 13.2612 17.4631 13.3732 17.3387C13.4229 17.2391 13.5038 17.1458 13.6158 17.0587C13.7403 16.9591 13.8398 16.8907 13.9145 16.8533L14.1198 16.7787L14.2318 16.7227C14.4558 16.648 14.6798 16.592 14.9038 16.5547L15.4452 16.48C15.5447 16.48 15.6194 16.4738 15.6692 16.4613H15.9678C16.0301 16.4489 16.1234 16.4427 16.2478 16.4427H16.3972C16.4221 16.4427 16.4407 16.4302 16.4532 16.4053C16.4656 16.3804 16.4967 16.312 16.5465 16.2C16.5714 16.1502 16.5963 16.0756 16.6212 15.976C16.6461 15.9511 16.6585 15.9138 16.6585 15.864ZM14.9598 13.848C14.9598 14.0471 14.9661 14.1902 14.9785 14.2773C15.0158 14.4267 15.0718 14.576 15.1465 14.7253C15.2212 14.8622 15.3269 14.968 15.4638 15.0427C15.5509 15.0924 15.6505 15.1173 15.7625 15.1173C15.8745 15.1173 16.0176 15.0738 16.1918 14.9867L16.3038 14.912C16.3536 14.8871 16.4407 14.8124 16.5652 14.688L16.8638 14.352C16.8638 14.3396 16.8887 14.3084 16.9385 14.2587C16.9883 14.1964 17.0256 14.1467 17.0505 14.1093C17.0629 14.0844 17.0878 14.0471 17.1252 13.9973C17.1625 13.9351 17.1936 13.8853 17.2185 13.848C17.2434 13.7982 17.2621 13.7547 17.2745 13.7173L17.5545 13.176L17.6478 12.8773L17.6852 12.728C17.6852 12.6907 17.6852 12.6471 17.6852 12.5973C17.6976 12.5351 17.7038 12.4916 17.7038 12.4667C17.7287 12.3049 17.7287 12.1493 17.7038 12C17.6789 11.7884 17.6229 11.6018 17.5358 11.44C17.5358 11.4151 17.5234 11.3902 17.4985 11.3653C17.3989 11.2409 17.3305 11.16 17.2932 11.1227C17.2185 11.0604 17.1438 11.0231 17.0692 11.0107C16.9198 10.9609 16.7332 10.9609 16.5092 11.0107C16.4345 11.0356 16.3349 11.0853 16.2105 11.16C16.0861 11.2222 15.9367 11.3529 15.7625 11.552C15.6629 11.6764 15.5945 11.776 15.5572 11.8507L15.5012 11.9627C15.4389 12.0622 15.3705 12.2116 15.2958 12.4107C15.2461 12.4978 15.2025 12.616 15.1652 12.7653L15.0718 13.008C15.0469 13.1573 15.0221 13.2818 14.9972 13.3813C14.9598 13.568 14.9474 13.7236 14.9598 13.848ZM18.3198 11.832H18.3385L18.3945 11.776C18.3945 11.8009 18.3758 11.8196 18.3385 11.832L18.3572 11.8507C18.3821 11.8631 18.4069 11.8631 18.4318 11.8507H18.4505C18.4505 11.888 18.4629 11.8942 18.4878 11.8693L18.5065 11.8507H18.5438C18.5563 11.8756 18.5812 11.888 18.6185 11.888C18.6309 11.888 18.6496 11.8942 18.6745 11.9067C18.6994 11.9067 18.7181 11.9067 18.7305 11.9067L18.7865 11.8133C18.7492 11.7884 18.7429 11.7387 18.7678 11.664L18.7865 11.6453C18.7865 11.6329 18.7865 11.6204 18.7865 11.608C18.7741 11.5707 18.7678 11.5147 18.7678 11.44C18.7429 11.4649 18.7181 11.4711 18.6932 11.4587L18.7305 11.4213L18.6932 11.4027C18.6807 11.4027 18.6683 11.3964 18.6558 11.384L18.6372 11.3653L18.5998 11.3467C18.5998 11.3342 18.6185 11.328 18.6558 11.328V11.384C18.6807 11.384 18.6932 11.3716 18.6932 11.3467C18.6683 11.3093 18.6621 11.2782 18.6745 11.2533H18.7492V11.1787L18.7865 11.216C18.7989 11.2036 18.8176 11.1973 18.8425 11.1973C18.8674 11.1849 18.8798 11.1662 18.8798 11.1413V11.0667H19.0292C19.0167 11.0169 18.9669 10.9796 18.8798 10.9547C18.8549 10.9796 18.8425 10.9982 18.8425 11.0107C18.8425 11.048 18.8301 11.0542 18.8052 11.0293V10.992C18.8176 10.9547 18.8425 10.9298 18.8798 10.9173C18.9047 10.8924 18.9296 10.8862 18.9545 10.8987C18.9794 10.8987 18.9918 10.8862 18.9918 10.8613C18.9794 10.8489 18.9732 10.8364 18.9732 10.824C18.9732 10.7991 18.9732 10.7804 18.9732 10.768V10.712C18.9483 10.6622 18.9234 10.6622 18.8985 10.712L18.8612 10.7493C18.8363 10.7493 18.8176 10.7431 18.8052 10.7307L18.7865 10.712H18.8238L18.8425 10.6933H18.8612L18.8238 10.5813H18.8425C18.8549 10.544 18.8425 10.5129 18.8052 10.488C18.7927 10.5253 18.7989 10.5564 18.8238 10.5813C18.7741 10.5813 18.7492 10.5627 18.7492 10.5253C18.7492 10.5129 18.7429 10.5067 18.7305 10.5067V10.6187L18.6745 10.656C18.6745 10.6436 18.6621 10.6373 18.6372 10.6373C18.6372 10.6622 18.6247 10.6871 18.5998 10.712L18.5252 10.768C18.5003 10.7431 18.4816 10.7307 18.4692 10.7307V10.824C18.5438 10.7991 18.5936 10.7867 18.6185 10.7867C18.6434 10.8116 18.6496 10.8364 18.6372 10.8613C18.5625 10.8364 18.5127 10.8302 18.4878 10.8427L18.4692 10.824C18.4567 10.824 18.4318 10.8053 18.3945 10.768C18.3696 10.7058 18.3323 10.6996 18.2825 10.7493L18.3198 10.824V10.8613H18.2265L18.1518 10.768C18.1394 10.7804 18.1145 10.7867 18.0772 10.7867C18.0523 10.7742 18.0149 10.768 17.9652 10.768C17.9403 10.768 17.9216 10.7618 17.9092 10.7493H17.8905H17.7972V10.768L17.8158 10.7493H17.7972C17.7474 10.7618 17.6852 10.7556 17.6105 10.7307C17.5981 10.7307 17.5918 10.7182 17.5918 10.6933H17.6292C17.6292 10.656 17.6416 10.6187 17.6665 10.5813C17.6416 10.5813 17.6292 10.5689 17.6292 10.544L17.4798 10.4693L17.4612 10.488V10.5067C17.4985 10.5191 17.5109 10.5378 17.4985 10.5627L17.4798 10.5813L17.5358 10.6373C17.5234 10.6373 17.5172 10.6498 17.5172 10.6747L17.5358 10.6933C17.5483 10.7182 17.5545 10.7369 17.5545 10.7493C17.5296 10.7867 17.5421 10.8053 17.5918 10.8053L17.6292 10.768C17.6292 10.7929 17.6167 10.8053 17.5918 10.8053L17.6478 10.8427C17.6229 10.88 17.5918 10.9111 17.5545 10.936V10.9547C17.5669 10.9547 17.5856 10.9671 17.6105 10.992C17.6105 11.0293 17.6167 11.0604 17.6292 11.0853L17.6665 11.104C17.6789 11.104 17.6852 11.1102 17.6852 11.1227C17.6976 11.1351 17.7101 11.1476 17.7225 11.16C17.7349 11.1724 17.7474 11.1849 17.7598 11.1973C17.7474 11.2098 17.7412 11.2284 17.7412 11.2533C17.7661 11.2782 17.7847 11.2907 17.7972 11.2907C17.8345 11.328 17.8283 11.3529 17.7785 11.3653C17.7785 11.3778 17.7723 11.384 17.7598 11.384L17.8532 11.4213L17.8718 11.4027H17.9092C17.9092 11.4151 17.9029 11.4338 17.8905 11.4587C17.8905 11.4836 17.8843 11.5022 17.8718 11.5147C17.8594 11.5271 17.8532 11.5396 17.8532 11.552C17.8656 11.5644 17.8781 11.5707 17.8905 11.5707L17.9652 11.6267L17.9465 11.6453C17.9216 11.6702 17.9154 11.7013 17.9278 11.7387V11.7573C17.9278 11.7324 17.9527 11.6951 18.0025 11.6453C18.0274 11.6329 18.0585 11.6267 18.0958 11.6267C18.1083 11.6267 18.1145 11.6329 18.1145 11.6453C18.1269 11.6578 18.1269 11.6702 18.1145 11.6827C18.1145 11.6951 18.1021 11.7138 18.0772 11.7387C18.0398 11.7636 18.0274 11.8009 18.0398 11.8507H18.0025C18.0149 11.8631 18.0274 11.8631 18.0398 11.8507L18.1332 11.9253H18.2078C18.2203 11.9253 18.2265 11.9253 18.2265 11.9253L18.2638 11.944C18.3136 11.9316 18.3323 11.8942 18.3198 11.832ZM15.8932 17.3947H15.6318C15.4327 17.4196 15.2772 17.432 15.1652 17.432C15.0532 17.4444 14.8852 17.4756 14.6612 17.5253C14.5616 17.5627 14.4807 17.6062 14.4185 17.656C14.3189 17.7307 14.3065 17.8178 14.3812 17.9173C14.3936 17.9671 14.4309 18.0044 14.4932 18.0293C14.6674 18.0791 14.7918 18.0978 14.8665 18.0853C15.0905 18.0729 15.3083 17.9796 15.5198 17.8053C15.5572 17.7929 15.6318 17.7244 15.7438 17.6C15.7812 17.5502 15.8309 17.4818 15.8932 17.3947ZM17.9465 13.456L17.9278 13.4747V13.4933H17.9652C17.9652 13.5058 17.9963 13.5244 18.0585 13.5493L18.0212 13.568C17.9589 13.6053 17.9403 13.6551 17.9652 13.7173V13.736C17.9652 13.7609 17.9589 13.7733 17.9465 13.7733C17.9465 13.7858 17.9341 13.792 17.9092 13.792L17.8718 13.7733L17.8532 13.7547L17.9092 13.6987L17.8158 13.624C17.7909 13.6364 17.7785 13.6613 17.7785 13.6987C17.7536 13.6987 17.7412 13.6862 17.7412 13.6613C17.7287 13.6613 17.7163 13.6676 17.7038 13.68H17.6852H17.6105L17.6478 13.736C17.6603 13.7236 17.6789 13.7236 17.7038 13.736C17.7287 13.7484 17.7474 13.7547 17.7598 13.7547V13.6987L17.7972 13.7733C17.7972 13.7858 17.8034 13.8107 17.8158 13.848C17.8283 13.8853 17.8283 13.9164 17.8158 13.9413V13.9973C17.8532 13.9973 17.8781 13.9911 17.8905 13.9787C17.9029 13.9911 17.9092 14.0036 17.9092 14.016L17.8905 14.0347C17.8656 14.0347 17.8532 14.0409 17.8532 14.0533L17.8905 14.0907C17.9029 14.1156 17.9154 14.1342 17.9278 14.1467C17.9652 14.1342 17.9838 14.1156 17.9838 14.0907V14.0347C17.9714 13.9973 17.9714 13.9662 17.9838 13.9413V13.904C17.9838 13.8667 17.9714 13.8604 17.9465 13.8853L17.9838 13.8107C17.9963 13.7858 18.0025 13.7609 18.0025 13.736V13.6987L18.0398 13.68H18.1145C18.1269 13.68 18.1332 13.6676 18.1332 13.6427L18.0958 13.6053L18.1518 13.512L18.0958 13.4747C18.0585 13.4871 18.0149 13.4933 17.9652 13.4933C17.9652 13.4684 17.9589 13.456 17.9465 13.456ZM16.8825 15.472V15.4533C16.8949 15.4409 16.9012 15.4284 16.9012 15.416C16.9012 15.4036 16.9136 15.3849 16.9385 15.36L16.8265 15.304C16.8016 15.304 16.7643 15.2916 16.7145 15.2667C16.7145 15.2542 16.7518 15.2231 16.8265 15.1733L16.7518 15.136C16.7394 15.1236 16.7332 15.1049 16.7332 15.08H16.7145C16.7145 15.0924 16.7083 15.1111 16.6958 15.136C16.6709 15.1484 16.6523 15.1547 16.6398 15.1547C16.6647 15.1796 16.6709 15.2044 16.6585 15.2293C16.6336 15.2542 16.6087 15.2542 16.5838 15.2293C16.5714 15.2169 16.5589 15.2169 16.5465 15.2293C16.5341 15.2418 16.5278 15.2542 16.5278 15.2667L16.5652 15.3227C16.5527 15.3476 16.5465 15.3787 16.5465 15.416L16.5838 15.4533C16.6087 15.4782 16.6087 15.5031 16.5838 15.528C16.5838 15.5529 16.5901 15.5716 16.6025 15.584L16.6585 15.5093H16.7332V15.472C16.7456 15.4596 16.7518 15.4409 16.7518 15.416C16.7518 15.3911 16.7705 15.3787 16.8078 15.3787C16.8327 15.3787 16.8514 15.3911 16.8638 15.416C16.8638 15.4284 16.8701 15.4471 16.8825 15.472C16.8701 15.472 16.8638 15.4844 16.8638 15.5093L16.8825 15.528V15.472ZM14.3998 13.4933C14.4123 13.4809 14.4061 13.4684 14.3812 13.456C14.4061 13.4062 14.4185 13.3689 14.4185 13.344L14.3625 13.288H14.4372C14.4496 13.2756 14.4621 13.2693 14.4745 13.2693V13.2507L14.3812 13.1947C14.3189 13.1573 14.2754 13.176 14.2505 13.2507L14.2318 13.2693C14.2194 13.2942 14.2132 13.3129 14.2132 13.3253L14.2505 13.3627C14.2629 13.3627 14.2692 13.3564 14.2692 13.344L14.3065 13.3813C14.2941 13.3938 14.2754 13.4062 14.2505 13.4187L14.2318 13.4373C14.2069 13.512 14.2194 13.568 14.2692 13.6053C14.2941 13.6178 14.3189 13.6116 14.3438 13.5867L14.3065 13.5493C14.2941 13.5369 14.2754 13.5307 14.2505 13.5307C14.2629 13.5182 14.2754 13.512 14.2878 13.512L14.3065 13.4933L14.3625 13.456H14.3812L14.3998 13.4933ZM16.4905 17.2453L16.4718 17.2267V17.3013C16.4718 17.3138 16.4594 17.3324 16.4345 17.3573C16.4594 17.3698 16.4656 17.4009 16.4532 17.4507L16.3972 17.3947C16.3847 17.3947 16.3723 17.4009 16.3598 17.4133L16.4158 17.4693C16.4034 17.4693 16.3847 17.4818 16.3598 17.5067C16.3474 17.5191 16.3412 17.544 16.3412 17.5813L16.4158 17.544L16.4345 17.5627C16.4594 17.5751 16.4718 17.5876 16.4718 17.6V17.6187L16.4532 17.6373C16.4532 17.6622 16.4594 17.6747 16.4718 17.6747H16.5092C16.5465 17.6373 16.5714 17.6187 16.5838 17.6187L16.5465 17.544L16.5652 17.5253H16.5838V17.4693H16.4718C16.4967 17.4818 16.5092 17.4631 16.5092 17.4133C16.5589 17.4009 16.6087 17.4009 16.6585 17.4133C16.6461 17.4009 16.6398 17.3884 16.6398 17.376C16.6274 17.3636 16.6087 17.3573 16.5838 17.3573C16.5465 17.3573 16.5278 17.3449 16.5278 17.32C16.5278 17.2702 16.5154 17.2453 16.4905 17.2453ZM17.2372 14.8187L17.2558 14.8373C17.2558 14.8622 17.2558 14.8809 17.2558 14.8933C17.2683 14.856 17.2621 14.8249 17.2372 14.8C17.2247 14.7876 17.2185 14.7689 17.2185 14.744C17.1936 14.7191 17.1749 14.7067 17.1625 14.7067C17.1501 14.7067 17.1438 14.7191 17.1438 14.744C17.1314 14.7689 17.1252 14.8062 17.1252 14.856C17.1127 14.856 17.1003 14.8622 17.0878 14.8747C17.0754 14.8871 17.0692 14.8996 17.0692 14.912C17.0816 14.912 17.0941 14.912 17.1065 14.912C17.1314 14.8996 17.1501 14.8933 17.1625 14.8933L17.1812 14.912C17.1936 14.9369 17.1936 14.9556 17.1812 14.968C17.1812 14.9804 17.1812 14.9867 17.1812 14.9867L17.1625 15.024C17.1749 15.0489 17.1687 15.0738 17.1438 15.0987V15.136L17.2185 15.192L17.2932 15.1173C17.3181 15.1173 17.3305 15.0987 17.3305 15.0613H17.2558C17.2434 15.0613 17.2309 15.0551 17.2185 15.0427C17.2185 15.0302 17.2185 15.024 17.2185 15.024L17.2372 14.9867C17.2372 14.9742 17.2434 14.9618 17.2558 14.9493H17.2745V14.9307C17.2496 14.9307 17.2123 14.9182 17.1625 14.8933C17.1625 14.8809 17.1749 14.8622 17.1998 14.8373C17.2123 14.8373 17.2247 14.8311 17.2372 14.8187ZM16.9198 15.0987H16.9758C16.9883 15.0862 16.9883 15.08 16.9758 15.08C17.0256 15.0676 17.0567 15.0364 17.0692 14.9867C17.0318 14.9244 16.9821 14.8933 16.9198 14.8933C16.9198 14.9058 16.9198 14.912 16.9198 14.912L16.9385 14.9493C16.9136 14.9618 16.8701 14.968 16.8078 14.968L16.8265 14.9867C16.8389 15.0116 16.8514 15.024 16.8638 15.024C16.9012 15.0489 16.9198 15.0738 16.9198 15.0987ZM18.4692 11.7013H18.5065C18.5065 11.6764 18.5127 11.6578 18.5252 11.6453H18.5812C18.5687 11.6578 18.5625 11.6764 18.5625 11.7013C18.5376 11.7262 18.5065 11.7262 18.4692 11.7013C18.4567 11.7013 18.4505 11.6951 18.4505 11.6827C18.4256 11.6204 18.3883 11.5893 18.3385 11.5893H18.3198L18.3012 11.5707C18.3012 11.5582 18.3012 11.5458 18.3012 11.5333C18.3136 11.5209 18.3198 11.5084 18.3198 11.496L18.3758 11.44C18.4007 11.44 18.4132 11.4524 18.4132 11.4773C18.4132 11.5396 18.4381 11.5769 18.4878 11.5893C18.5003 11.6142 18.4941 11.6516 18.4692 11.7013ZM17.1438 15.6587L17.1812 15.5093L17.1065 15.472C17.0816 15.472 17.0629 15.4782 17.0505 15.4907C17.0132 15.5156 17.0069 15.5529 17.0318 15.6027C17.0443 15.6151 17.0505 15.6338 17.0505 15.6587L17.0692 15.696L17.1438 15.6587ZM17.4238 16.48H17.4052L17.3678 16.4613C17.3181 16.4364 17.2807 16.424 17.2558 16.424L17.2372 16.4427C17.2123 16.4676 17.2123 16.48 17.2372 16.48C17.2372 16.5049 17.2496 16.5173 17.2745 16.5173L17.3305 16.592C17.3305 16.6044 17.3305 16.6231 17.3305 16.648C17.3429 16.6729 17.3554 16.6916 17.3678 16.704V16.6293C17.3803 16.6044 17.3865 16.5796 17.3865 16.5547L17.4238 16.48ZM14.6425 13.456C14.6425 13.4436 14.6363 13.4311 14.6238 13.4187C14.6238 13.3938 14.6238 13.3751 14.6238 13.3627C14.6238 13.3502 14.6363 13.3316 14.6612 13.3067C14.6861 13.3067 14.6985 13.2942 14.6985 13.2693C14.7109 13.2693 14.7172 13.2631 14.7172 13.2507L14.6985 13.232C14.6861 13.232 14.6674 13.232 14.6425 13.232C14.6301 13.232 14.6176 13.2382 14.6052 13.2507C14.5554 13.2631 14.5305 13.3004 14.5305 13.3627L14.6052 13.4373C14.6052 13.4747 14.6176 13.4809 14.6425 13.456ZM17.4612 10.8427L17.4238 10.768C17.4114 10.7307 17.4114 10.7058 17.4238 10.6933C17.4363 10.6809 17.4363 10.6684 17.4238 10.656C17.4238 10.6436 17.4176 10.6373 17.4052 10.6373C17.3927 10.6373 17.3741 10.6436 17.3492 10.656C17.3367 10.656 17.3243 10.656 17.3118 10.656L17.2932 10.6747L17.3118 10.6933L17.3305 10.712V10.7867C17.3305 10.8116 17.3429 10.824 17.3678 10.824C17.3927 10.8116 17.4114 10.8116 17.4238 10.824C17.4238 10.8364 17.4363 10.8427 17.4612 10.8427ZM13.7465 18.048V18.0667L13.8398 18.104C13.8398 18.0667 13.8461 18.048 13.8585 18.048C13.8709 18.048 13.8896 18.0169 13.9145 17.9547L13.9332 17.936C13.9456 17.9111 13.9581 17.8987 13.9705 17.8987V17.88C13.9456 17.8551 13.9269 17.8427 13.9145 17.8427C13.9145 17.8551 13.9083 17.8676 13.8958 17.88C13.8958 17.9049 13.8896 17.9236 13.8772 17.936L13.8398 17.9733C13.8149 17.9733 13.7963 17.9858 13.7838 18.0107C13.7714 18.0356 13.7589 18.048 13.7465 18.048ZM18.6372 11.608L18.5625 11.552L18.5438 11.5333C18.5314 11.5209 18.5189 11.5147 18.5065 11.5147C18.5065 11.4773 18.5189 11.4462 18.5438 11.4213C18.5563 11.4338 18.5812 11.44 18.6185 11.44C18.6309 11.4898 18.6372 11.5458 18.6372 11.608ZM14.1198 18.664C14.1447 18.664 14.1634 18.6578 14.1758 18.6453C14.2256 18.5956 14.2318 18.5458 14.1945 18.496C14.1945 18.4836 14.1821 18.4773 14.1572 18.4773L14.1385 18.4587H14.1198L14.1012 18.496L14.1572 18.5707C14.1447 18.5831 14.1385 18.5956 14.1385 18.608C14.1385 18.6204 14.1323 18.6267 14.1198 18.6267C14.1198 18.6391 14.1198 18.6516 14.1198 18.664ZM14.3998 13.5493C14.3749 13.5742 14.3563 13.5867 14.3438 13.5867C14.3563 13.5867 14.3749 13.5929 14.3998 13.6053H14.4372L14.5492 13.568H14.5865L14.5678 13.5307C14.5554 13.5182 14.5492 13.4996 14.5492 13.4747L14.4932 13.5307C14.4683 13.5556 14.4372 13.5618 14.3998 13.5493ZM15.2772 11.3467C15.3021 11.3342 15.3145 11.3218 15.3145 11.3093C15.3145 11.2969 15.3021 11.2782 15.2772 11.2533H15.2585L15.2398 11.2347C15.2149 11.2098 15.2025 11.216 15.2025 11.2533V11.328H15.2398C15.2523 11.3404 15.2647 11.3467 15.2772 11.3467ZM15.6692 10.6933C15.6443 10.6684 15.6318 10.6498 15.6318 10.6373C15.6069 10.6124 15.5821 10.6124 15.5572 10.6373C15.5447 10.6747 15.5447 10.6996 15.5572 10.712L15.6132 10.7493C15.6007 10.7244 15.6132 10.712 15.6505 10.712L15.6692 10.6933ZM17.3865 10.432H17.3305C17.2932 10.432 17.2869 10.4444 17.3118 10.4693C17.3118 10.4818 17.3181 10.488 17.3305 10.488C17.3429 10.488 17.3492 10.4818 17.3492 10.4693L17.3305 10.488C17.3305 10.5004 17.3305 10.5129 17.3305 10.5253H17.3865C17.4114 10.5253 17.4238 10.5129 17.4238 10.488C17.4238 10.4756 17.4114 10.4569 17.3865 10.432ZM18.1705 13.0827V13.1387C18.1954 13.064 18.2016 13.0018 18.1892 12.952C18.1518 12.9396 18.1207 12.9458 18.0958 12.9707C18.1456 12.9956 18.1705 13.0329 18.1705 13.0827ZM13.6345 18.0667C13.6345 18.0791 13.6221 18.0978 13.5972 18.1227C13.5847 18.1351 13.5723 18.1413 13.5598 18.1413C13.5474 18.1538 13.5412 18.1724 13.5412 18.1973C13.5536 18.1849 13.5785 18.1787 13.6158 18.1787L13.6718 18.104L13.6345 18.0667ZM17.2558 15.9013H17.2745C17.1998 15.864 17.1438 15.8516 17.1065 15.864L17.2185 15.9387C17.2558 15.9387 17.2683 15.9262 17.2558 15.9013ZM18.8612 10.8427L18.8798 10.824C18.8798 10.8116 18.8861 10.8053 18.8985 10.8053H18.9172L18.9358 10.824C18.9109 10.8613 18.8674 10.88 18.8052 10.88C18.7927 10.88 18.7803 10.8613 18.7678 10.824C18.7803 10.824 18.7927 10.8302 18.8052 10.8427C18.8301 10.8427 18.8487 10.8427 18.8612 10.8427ZM15.9118 16.9093C15.9243 16.9093 15.9305 16.9218 15.9305 16.9467C15.9429 16.9467 15.9492 16.9653 15.9492 17.0027L16.0052 16.928C16.0176 16.9156 16.0238 16.9031 16.0238 16.8907C15.9989 16.8658 15.9803 16.8658 15.9678 16.8907C15.9429 16.8907 15.9243 16.8969 15.9118 16.9093ZM18.1892 13.624C18.2141 13.6489 18.2389 13.6551 18.2638 13.6427C18.2638 13.6302 18.2265 13.5867 18.1518 13.512C18.1518 13.5369 18.1643 13.5742 18.1892 13.624ZM17.7598 14.0907V14.0533H17.7972V14.0347C17.7847 14.0347 17.7723 14.0409 17.7598 14.0533C17.7723 14.016 17.7661 13.9849 17.7412 13.96C17.7287 13.9476 17.7163 13.9476 17.7038 13.96V13.9787C17.7163 13.9911 17.7225 14.0098 17.7225 14.0347C17.7225 14.0596 17.7287 14.072 17.7412 14.072C17.7412 14.0844 17.7474 14.0907 17.7598 14.0907ZM16.2852 10.656V10.5813C16.2727 10.5813 16.2541 10.5813 16.2292 10.5813C16.2043 10.5689 16.1856 10.5627 16.1732 10.5627L16.1918 10.6L16.2852 10.656ZM17.4798 14.2027V14.2773L17.5172 14.296C17.5296 14.296 17.5358 14.2836 17.5358 14.2587C17.5358 14.2462 17.5234 14.2151 17.4985 14.1653C17.4861 14.1653 17.4798 14.1778 17.4798 14.2027ZM14.2878 18.6453C14.3127 18.6453 14.3252 18.6329 14.3252 18.608C14.3252 18.5831 14.3065 18.5582 14.2692 18.5333C14.2692 18.608 14.2754 18.6453 14.2878 18.6453ZM17.7972 14.2213L17.8158 14.24C17.8532 14.24 17.8718 14.2524 17.8718 14.2773C17.8843 14.2898 17.9029 14.2836 17.9278 14.2587C17.9154 14.2089 17.8718 14.1964 17.7972 14.2213ZM16.3785 17.2453C16.4034 17.2702 16.4283 17.2764 16.4532 17.264C16.4532 17.2516 16.4594 17.2391 16.4718 17.2267L16.4345 17.1893C16.3972 17.2267 16.3785 17.2453 16.3785 17.2453ZM16.9385 15.1547C16.9509 15.1422 16.9447 15.1236 16.9198 15.0987C16.8949 15.0738 16.8763 15.0676 16.8638 15.08H16.8452V15.0987L16.8825 15.1173C16.9074 15.1422 16.9261 15.1547 16.9385 15.1547ZM16.2105 17.5067V17.5253C16.2105 17.5751 16.2292 17.5876 16.2665 17.5627L16.2852 17.544C16.2852 17.5316 16.2789 17.5253 16.2665 17.5253C16.2665 17.5253 16.2665 17.5191 16.2665 17.5067C16.2541 17.4942 16.2354 17.4942 16.2105 17.5067ZM17.4425 14.5573C17.4425 14.5947 17.4549 14.6258 17.4798 14.6507H17.5358L17.4425 14.5573ZM15.9678 10.824C15.9927 10.8489 16.0176 10.8489 16.0425 10.824C16.0549 10.8116 16.0425 10.7929 16.0052 10.768C16.0052 10.7804 15.9927 10.7991 15.9678 10.824ZM17.4798 15.2107C17.5172 15.2107 17.5483 15.2169 17.5732 15.2293C17.5732 15.2169 17.5794 15.2107 17.5918 15.2107V15.192C17.5918 15.1796 17.5856 15.1671 17.5732 15.1547H17.5545C17.5545 15.1671 17.5296 15.1858 17.4798 15.2107ZM17.4985 15.0053C17.5234 15.0302 17.5358 15.0489 17.5358 15.0613L17.5732 15.024C17.5856 15.024 17.5918 15.0178 17.5918 15.0053H17.4985ZM18.4692 11.4027L18.4505 11.4213C18.4505 11.4338 18.4505 11.4462 18.4505 11.4587C18.4381 11.4711 18.4256 11.4773 18.4132 11.4773C18.4256 11.44 18.4256 11.4027 18.4132 11.3653C18.4256 11.3653 18.4443 11.3778 18.4692 11.4027ZM15.7812 18.384C15.7687 18.3964 15.7625 18.4338 15.7625 18.496C15.8123 18.4462 15.8185 18.4089 15.7812 18.384ZM16.6025 16.8347C16.5901 16.7973 16.5652 16.7787 16.5278 16.7787H16.5092V16.7973C16.5341 16.8222 16.5652 16.8347 16.6025 16.8347ZM17.9278 10.7307C17.9403 10.7307 17.9527 10.7244 17.9652 10.712C17.9776 10.6996 17.9714 10.6809 17.9465 10.656C17.9216 10.6684 17.9154 10.6933 17.9278 10.7307ZM16.3038 17.152H16.2852C16.2727 17.1644 16.2603 17.1707 16.2478 17.1707V17.1893C16.2852 17.2142 16.3038 17.2018 16.3038 17.152ZM15.8932 18.4027C15.8807 18.3902 15.8621 18.3964 15.8372 18.4213C15.8372 18.4462 15.8434 18.4587 15.8558 18.4587C15.8683 18.4587 15.8745 18.4524 15.8745 18.44C15.8869 18.44 15.8932 18.4276 15.8932 18.4027ZM14.5865 18.4773C14.5865 18.4649 14.5803 18.4524 14.5678 18.44C14.5678 18.4276 14.5678 18.4151 14.5678 18.4027C14.5429 18.4151 14.5367 18.4338 14.5492 18.4587C14.5492 18.4711 14.5616 18.4773 14.5865 18.4773ZM17.4052 16.4613L17.3492 16.3493H17.3305C17.3305 16.3618 17.3429 16.3804 17.3678 16.4053C17.3678 16.4178 17.3803 16.4364 17.4052 16.4613ZM17.0318 15.864L17.0692 15.8453C17.0692 15.8204 17.0505 15.808 17.0132 15.808C17.0007 15.8204 17.0007 15.8329 17.0132 15.8453L17.0318 15.864ZM17.4798 10.824H17.5172L17.4798 10.7493C17.4549 10.7742 17.4549 10.7991 17.4798 10.824ZM14.5492 14.464H14.5678C14.5678 14.4267 14.5554 14.408 14.5305 14.408L14.5118 14.4267C14.5118 14.4516 14.5243 14.464 14.5492 14.464ZM17.0132 16.648C17.0256 16.6853 17.0443 16.704 17.0692 16.704H17.0878V16.6853C17.0878 16.6729 17.0629 16.6604 17.0132 16.648ZM17.7598 14.0907V14.184C17.7847 14.184 17.7972 14.1716 17.7972 14.1467C17.7723 14.1218 17.7598 14.1031 17.7598 14.0907ZM17.4798 14.2027H17.4425C17.4425 14.1902 17.4301 14.184 17.4052 14.184L17.3865 14.2027V14.2213H17.4052C17.4425 14.2213 17.4674 14.2151 17.4798 14.2027ZM14.4745 18.5333H14.5118C14.5243 18.5333 14.5305 18.5271 14.5305 18.5147V18.4773C14.5056 18.4773 14.4869 18.496 14.4745 18.5333ZM18.3198 10.768C18.3696 10.7804 18.3945 10.7991 18.3945 10.824H18.3758L18.3572 10.8053C18.3447 10.7929 18.3323 10.7804 18.3198 10.768ZM17.3492 16.0507C17.3616 16.0507 17.3678 16.0507 17.3678 16.0507C17.3678 16.0382 17.3741 16.032 17.3865 16.032C17.3741 16.0196 17.3492 16.0133 17.3118 16.0133C17.3118 16.0382 17.3243 16.0507 17.3492 16.0507ZM18.0025 11.8507C18.0025 11.8382 17.9963 11.8258 17.9838 11.8133C17.9838 11.7884 17.9714 11.776 17.9465 11.776C17.9465 11.8009 17.9652 11.8258 18.0025 11.8507ZM17.1625 15.7893C17.1749 15.8267 17.1936 15.8453 17.2185 15.8453C17.2309 15.8453 17.2372 15.8391 17.2372 15.8267V15.808C17.2123 15.808 17.1874 15.8018 17.1625 15.7893ZM18.4878 11.2347V11.1973H18.5438V11.216C18.5314 11.2284 18.5189 11.2347 18.5065 11.2347H18.4878ZM17.3678 10.5627H17.3118V10.5813C17.3243 10.5813 17.3305 10.5813 17.3305 10.5813L17.3678 10.6C17.3678 10.5876 17.3741 10.5813 17.3865 10.5813L17.3678 10.5627ZM17.7038 14.7813C17.6789 14.7813 17.6665 14.7876 17.6665 14.8C17.6665 14.8124 17.6789 14.8187 17.7038 14.8187L17.7225 14.8L17.7038 14.7813ZM18.0398 13.3067C18.0398 13.2693 18.0336 13.2444 18.0212 13.232H18.0025C18.0025 13.2569 18.0149 13.2818 18.0398 13.3067ZM13.7465 18.0667C13.7465 18.0791 13.7465 18.0916 13.7465 18.104C13.7341 18.1289 13.7278 18.1476 13.7278 18.16L13.7465 18.1787V18.0667ZM17.8345 10.8053V10.824C17.8221 10.824 17.8158 10.8178 17.8158 10.8053C17.7909 10.7929 17.7847 10.7804 17.7972 10.768L17.8345 10.8053ZM17.2745 14.688C17.2496 14.6631 17.2247 14.6507 17.1998 14.6507C17.2123 14.6756 17.2372 14.688 17.2745 14.688ZM17.0878 16.816L17.0318 16.8907C17.0692 16.8782 17.0878 16.8533 17.0878 16.816ZM16.9572 15.4907L17.0132 15.4533L16.9572 15.4347C16.9323 15.4596 16.9323 15.4782 16.9572 15.4907ZM16.9198 10.6C16.9323 10.5876 16.9447 10.5813 16.9572 10.5813C16.9821 10.5564 16.9821 10.544 16.9572 10.544C16.9323 10.5689 16.9198 10.5876 16.9198 10.6ZM17.1625 16.8347C17.1749 16.8222 17.1874 16.816 17.1998 16.816V16.7973C17.1749 16.7724 17.1625 16.7724 17.1625 16.7973C17.1376 16.7973 17.1376 16.8098 17.1625 16.8347ZM18.5438 11.4213C18.5065 11.4213 18.4816 11.4151 18.4692 11.4027H18.5065C18.5189 11.4027 18.5314 11.4089 18.5438 11.4213ZM17.3678 14.9493L17.3492 14.9307L17.3305 14.9493V14.968C17.3305 14.9804 17.3367 14.9867 17.3492 14.9867C17.3616 14.9742 17.3678 14.9618 17.3678 14.9493ZM14.2318 14.2213L14.2132 14.184C14.2007 14.184 14.1945 14.1964 14.1945 14.2213L14.2132 14.24C14.2132 14.2276 14.2194 14.2213 14.2318 14.2213ZM18.5065 11.3093L18.4878 11.2907H18.5065L18.5252 11.272H18.5438V11.2907C18.5314 11.2907 18.5252 11.2969 18.5252 11.3093C18.5252 11.3093 18.5189 11.3093 18.5065 11.3093ZM18.9172 10.5067C18.9172 10.5316 18.9234 10.544 18.9358 10.544H18.9545V10.5253C18.9545 10.5129 18.9421 10.5067 18.9172 10.5067ZM17.2372 16.3307L17.2185 16.3493C17.2185 16.3867 17.2309 16.3929 17.2558 16.368C17.2558 16.3556 17.2496 16.3431 17.2372 16.3307ZM14.5678 15.192C14.5554 15.192 14.5492 15.1858 14.5492 15.1733L14.5118 15.2107H14.5305C14.5429 15.2107 14.5554 15.2044 14.5678 15.192ZM18.4692 11.9627V11.9813H18.5065V11.9627C18.5065 11.9502 18.5003 11.944 18.4878 11.944L18.4692 11.9627ZM14.0265 17.8053C14.0389 17.7804 14.0389 17.7556 14.0265 17.7307C14.0141 17.768 14.0141 17.7929 14.0265 17.8053ZM14.3998 13.4933V13.5493C14.4247 13.5369 14.4247 13.5182 14.3998 13.4933ZM13.8212 17.8987L13.7652 17.8427C13.7652 17.8676 13.7838 17.8862 13.8212 17.8987ZM16.9572 14.7813C16.9447 14.8062 16.9509 14.8311 16.9758 14.856C16.9758 14.8311 16.9696 14.8062 16.9572 14.7813ZM18.0958 13.7547V13.736C18.0709 13.7111 18.0585 13.7111 18.0585 13.736V13.7547H18.0958ZM13.7652 18.5147V18.5333H13.7838C13.7963 18.5333 13.8025 18.5209 13.8025 18.496C13.7901 18.496 13.7838 18.496 13.7838 18.496C13.7838 18.5084 13.7776 18.5147 13.7652 18.5147ZM14.1758 18.1413V18.1787C14.1883 18.1787 14.1945 18.1662 14.1945 18.1413H14.1758ZM17.5732 14.184C17.5981 14.184 17.6105 14.1716 17.6105 14.1467H17.5918C17.5794 14.1467 17.5732 14.1591 17.5732 14.184ZM14.6052 18.552L14.5865 18.5333L14.5678 18.552L14.5865 18.5707L14.6052 18.552ZM18.0772 11.944H18.0585C18.0585 11.9564 18.0585 11.9627 18.0585 11.9627C18.0709 11.9627 18.0772 11.9689 18.0772 11.9813L18.0958 11.9627L18.0772 11.944ZM14.7545 12.5973C14.7421 12.5724 14.7234 12.56 14.6985 12.56C14.7234 12.5849 14.7421 12.5973 14.7545 12.5973ZM13.9518 17.712L13.9332 17.7307L13.9518 17.7493C13.9643 17.7493 13.9705 17.7431 13.9705 17.7307C13.9581 17.7307 13.9518 17.7244 13.9518 17.712ZM15.1465 11.7573H15.1652L15.1838 11.7387L15.1652 11.72C15.1652 11.7324 15.1589 11.7449 15.1465 11.7573ZM18.5812 11.6453C18.6185 11.6453 18.6434 11.6391 18.6558 11.6267C18.6309 11.664 18.6061 11.6702 18.5812 11.6453ZM15.4452 15.9013V15.8827H15.4078V15.9013H15.4452ZM17.8718 13.512H17.8905H17.9092C17.9216 13.512 17.9278 13.5058 17.9278 13.4933C17.9029 13.4933 17.8843 13.4996 17.8718 13.512ZM15.2212 18.4027L15.2585 18.44C15.2585 18.4151 15.2461 18.4027 15.2212 18.4027ZM18.0585 13.8107H18.0025L18.0212 13.8293C18.0336 13.8293 18.0461 13.8231 18.0585 13.8107ZM18.6745 11.16L18.6932 11.1787L18.6745 11.1973L18.6558 11.1787L18.6745 11.16ZM16.8825 15.2107C16.8825 15.248 16.8887 15.2667 16.9012 15.2667V15.248L16.8825 15.2293V15.2107ZM14.9785 18.5893H14.9412V18.608H14.9598C14.9723 18.608 14.9785 18.6018 14.9785 18.5893ZM14.8665 12.4853L14.8478 12.4667L14.8292 12.4853V12.504L14.8478 12.4853H14.8665ZM14.6798 18.4587L14.6612 18.4773H14.6985V18.4587H14.6798ZM18.0772 13.0267C18.0772 13.0391 18.0709 13.0453 18.0585 13.0453C18.0709 13.0453 18.0772 13.0516 18.0772 13.064C18.0772 13.064 18.0834 13.064 18.0958 13.064V13.0453C18.0958 13.0329 18.0896 13.0267 18.0772 13.0267ZM17.1812 16.256L17.1625 16.2373V16.256C17.1625 16.2684 17.1687 16.2747 17.1812 16.2747C17.1936 16.2747 17.1936 16.2684 17.1812 16.256ZM14.2318 18.272L14.2505 18.2533L14.2318 18.2347L14.2132 18.2533C14.2256 18.2533 14.2318 18.2596 14.2318 18.272ZM17.1998 16.0507L17.2185 16.032H17.1998C17.1874 16.032 17.1874 16.0382 17.1998 16.0507ZM18.0958 13.848L18.0585 13.8667C18.0709 13.8791 18.0834 13.8729 18.0958 13.848ZM16.9198 15.528H16.8825C16.8825 15.5404 16.8949 15.5467 16.9198 15.5467V15.528ZM17.3492 15.9387L17.3678 15.9573C17.3803 15.9573 17.3865 15.9511 17.3865 15.9387H17.3492ZM16.9945 16.2933L17.0132 16.2747H16.9758V16.2933H16.9945ZM16.3038 17.32H16.3225L16.3038 17.3013H16.2852C16.2852 17.3138 16.2914 17.32 16.3038 17.32ZM16.4158 16.9467L16.3972 16.928V16.9653C16.4096 16.9653 16.4158 16.9591 16.4158 16.9467ZM18.5998 11.216V11.1973C18.5998 11.1849 18.6061 11.1787 18.6185 11.1787V11.1973C18.6185 11.2098 18.6123 11.216 18.5998 11.216ZM17.7412 10.656H17.7038L17.7225 10.6747C17.7349 10.6747 17.7412 10.6684 17.7412 10.656ZM18.0585 13.8667L17.9838 13.904C18.0087 13.904 18.0336 13.8916 18.0585 13.8667ZM17.4798 10.936L17.4985 10.9547C17.5109 10.9547 17.5172 10.9484 17.5172 10.936H17.4798ZM14.2318 14.3333H14.1758L14.2132 14.352L14.2318 14.3333ZM17.9465 13.456V13.4187H17.9278V13.4373C17.9403 13.4373 17.9465 13.4436 17.9465 13.456ZM17.8158 11.16V11.1973L17.7972 11.1787C17.7972 11.1662 17.8034 11.16 17.8158 11.16ZM16.4532 17.096L16.4718 17.1147C16.4843 17.1147 16.4905 17.1084 16.4905 17.096H16.4532ZM18.2452 11.5707L18.2638 11.5893H18.2265L18.2452 11.5707ZM18.4318 11.7013V11.7573C18.4194 11.7449 18.4194 11.7262 18.4318 11.7013ZM14.4185 12.504V12.4667L14.3998 12.4853C14.3998 12.4978 14.4061 12.504 14.4185 12.504ZM18.1892 12.0373V12.0187H18.1705C18.1705 12.0311 18.1767 12.0373 18.1892 12.0373ZM17.3865 14.5573L17.3678 14.5387V14.576L17.3865 14.5573ZM17.3305 14.8373V14.8187H17.3118V14.8373H17.3305ZM18.9918 11.1227H18.9732V11.1413C18.9856 11.1413 18.9918 11.1351 18.9918 11.1227ZM18.8238 11.4587L18.8052 11.44C18.7927 11.44 18.7803 11.44 18.7678 11.44C18.7803 11.4524 18.7989 11.4587 18.8238 11.4587ZM16.6398 17.2827V17.264H16.6212V17.2827H16.6398ZM13.8958 18.496H13.9145V18.4773H13.8958V18.496ZM14.2878 18.4027V18.384H14.2692C14.2692 18.3964 14.2754 18.4027 14.2878 18.4027ZM16.6585 15.2293L16.6398 15.2107H16.6212L16.6398 15.2293H16.6585ZM18.9358 10.264H18.9172C18.9172 10.2764 18.9234 10.2827 18.9358 10.2827V10.264ZM16.0052 10.6747V10.656H15.9865C15.9865 10.6684 15.9927 10.6747 16.0052 10.6747ZM16.5278 15.3973H16.5092V15.416H16.5278V15.3973ZM17.6105 16.648H17.6292V16.6293H17.6105V16.648ZM18.7865 11.4027L18.8052 11.384L18.7865 11.3653V11.4027ZM14.6238 12.4107H14.6425C14.6425 12.3982 14.6363 12.392 14.6238 12.392V12.4107ZM18.0772 11.4213L18.0585 11.44H18.0398L18.0585 11.4213H18.0772ZM18.2638 12.672V12.6533H18.2452C18.2452 12.6658 18.2514 12.672 18.2638 12.672ZM17.2185 16.0133H17.2372V15.9947C17.2247 15.9947 17.2185 16.0009 17.2185 16.0133ZM14.6052 18.664L14.6238 18.6827V18.6453L14.6052 18.664ZM16.3598 16.7227L16.3972 16.7413C16.3847 16.7413 16.3723 16.7351 16.3598 16.7227ZM17.6478 14.9307L17.6292 14.912V14.9493L17.6478 14.9307ZM16.0425 17.9547V17.9733H16.0612C16.0612 17.9609 16.0549 17.9547 16.0425 17.9547ZM16.5278 15.3227C16.5154 15.3227 16.5092 15.3289 16.5092 15.3413C16.5216 15.3413 16.5278 15.3351 16.5278 15.3227ZM14.8478 18.44L14.8665 18.4213H14.8292L14.8478 18.44ZM16.3598 16.7227C16.3474 16.7227 16.3349 16.7289 16.3225 16.7413C16.3474 16.7413 16.3598 16.7351 16.3598 16.7227ZM13.7278 17.992H13.7465V17.9733L13.7278 17.992ZM17.6478 11.16H17.6665C17.6665 11.1476 17.6603 11.1413 17.6478 11.1413V11.16ZM17.0878 14.7627H17.0692V14.7813C17.0816 14.7813 17.0878 14.7751 17.0878 14.7627ZM14.6612 12.896H14.6425V12.9147L14.6612 12.896ZM18.6745 11.7387V11.72L18.6932 11.7387H18.6745ZM16.7705 15.528V15.5093H16.7518C16.7518 15.5218 16.7581 15.528 16.7705 15.528ZM17.5172 14.5573L17.4985 14.5387C17.4985 14.5511 17.5047 14.5573 17.5172 14.5573ZM17.1998 10.4507V10.432L17.1812 10.4507H17.1998ZM16.9198 16.3867V16.4053H16.9385L16.9198 16.3867ZM16.3972 16.6853H16.4158V16.6667C16.4034 16.6667 16.3972 16.6729 16.3972 16.6853ZM18.8425 11.2533V11.2347H18.8238L18.8425 11.2533ZM13.7838 17.7307H13.8025V17.712C13.7901 17.712 13.7838 17.7182 13.7838 17.7307ZM17.0318 15.8827V15.864L17.0132 15.8827H17.0318ZM15.9492 18.0667H15.9678V18.048C15.9554 18.048 15.9492 18.0542 15.9492 18.0667ZM14.3812 14.7067H14.3998V14.688C14.3874 14.688 14.3812 14.6942 14.3812 14.7067ZM18.9545 10.4693V10.4507C18.9421 10.4507 18.9358 10.4569 18.9358 10.4693H18.9545ZM17.3492 16.0693L17.3305 16.088H17.3492V16.0693ZM17.9838 11.4027V11.4213H17.9652L17.9838 11.4027ZM15.1092 18.4213V18.44L15.1278 18.4213H15.1092ZM13.8585 17.4693V17.488H13.8772L13.8585 17.4693ZM14.6612 18.4773C14.6487 18.4898 14.6425 18.5022 14.6425 18.5147L14.6612 18.4773ZM17.8905 11.104H17.9092L17.8905 11.1227V11.104ZM17.4985 13.9973L17.5172 14.016V13.9973H17.4985ZM14.0638 18.608L14.0452 18.6267C14.0576 18.6267 14.0638 18.6204 14.0638 18.608ZM14.2318 18.7013V18.72H14.2505L14.2318 18.7013ZM14.6985 12.4293H14.6798V12.448L14.6985 12.4293ZM17.0318 14.7253V14.744V14.7253V14.7067V14.7253ZM17.0505 15.3973H17.0692V15.3787L17.0505 15.3973ZM16.4532 16.76V16.7787H16.4718L16.4532 16.76ZM16.6025 15.0987H16.6212L16.6025 15.08V15.0987ZM18.2265 11.7573V11.776H18.2078L18.2265 11.7573ZM14.4372 14.52L14.4185 14.5013V14.52H14.4372ZM14.8852 18.4587C14.8852 18.4462 14.8789 18.4338 14.8665 18.4213C14.8665 18.4338 14.8727 18.4462 14.8852 18.4587ZM17.4798 15.4347V15.416C17.4674 15.4284 17.4674 15.4347 17.4798 15.4347ZM16.1358 10.656H16.1172V10.6747C16.1172 10.6622 16.1234 10.656 16.1358 10.656ZM14.0078 17.5253H14.0265H14.0078ZM14.0452 18.6453V18.6267C14.0327 18.6267 14.0327 18.6329 14.0452 18.6453ZM18.3572 11.552V11.5333H18.3385L18.3572 11.552ZM16.2105 17.0213V17.04V17.0213ZM14.7358 15.0613H14.7545H14.7358ZM17.3305 16.312V16.2933H17.3118L17.3305 16.312ZM20.0185 13.9787H19.9998V13.9973C19.9998 13.9849 20.0061 13.9787 20.0185 13.9787Z" fill="#888888"/>
</svg>
