<svg width="24" height="24" viewBox="0 0 24 24" fill="none" xmlns="http://www.w3.org/2000/svg">
<path d="M13.2875 7.964H13.4975C13.4975 7.97333 13.5068 7.978 13.5255 7.978C13.6841 7.98733 13.8428 8.02933 14.0015 8.104L14.1135 8.146C14.1601 8.16467 14.2208 8.202 14.2955 8.258C14.3328 8.286 14.3515 8.32333 14.3515 8.37C14.3608 8.398 14.3561 8.44467 14.3375 8.51C14.2908 8.594 14.2208 8.68267 14.1275 8.776C14.0901 8.804 14.0295 8.82733 13.9455 8.846H13.9175L13.7915 8.804C13.7728 8.79467 13.7495 8.78533 13.7215 8.776C13.6935 8.75733 13.6655 8.74333 13.6375 8.734C13.6188 8.72467 13.6001 8.72 13.5815 8.72C13.5535 8.71067 13.5161 8.706 13.4695 8.706H13.3435C13.3061 8.706 13.2595 8.71533 13.2035 8.734L13.0915 8.762C13.0821 8.762 13.0728 8.76667 13.0635 8.776C12.9328 8.832 12.8348 8.88333 12.7695 8.93L12.6435 9.014L12.4615 9.168H12.4475L12.4335 9.182L12.4615 9.21L12.6015 9.294C12.7508 9.378 12.8815 9.518 12.9935 9.714C13.0401 9.80733 13.0681 9.88667 13.0775 9.952C13.0961 10.0173 13.1148 10.1153 13.1335 10.246V10.61C13.1335 10.638 13.1288 10.68 13.1195 10.736C13.1195 10.792 13.1195 10.834 13.1195 10.862L13.0775 11.156L13.0355 11.366C13.0261 11.4313 13.0028 11.5387 12.9655 11.688C12.9468 11.7813 12.9095 11.9213 12.8535 12.108V12.136C12.8348 12.2107 12.8161 12.2667 12.7975 12.304L12.7135 12.64L12.6295 12.948L12.5595 13.172L12.4755 13.48L12.3915 13.788L12.3495 13.9L12.2655 14.222C12.2281 14.3713 12.2048 14.4833 12.1955 14.558V14.782C12.1861 14.8287 12.1908 14.8893 12.2095 14.964C12.2095 15.0013 12.2235 15.0387 12.2515 15.076C12.2701 15.132 12.3215 15.16 12.4055 15.16C12.4335 15.16 12.4521 15.1553 12.4615 15.146C12.5268 15.118 12.5875 15.0713 12.6435 15.006L12.6575 14.992C12.7041 14.9453 12.7928 14.824 12.9235 14.628L13.0915 14.306L13.2315 13.984C13.2315 13.9747 13.2361 13.9653 13.2455 13.956L13.3575 13.62C13.3948 13.508 13.4741 13.452 13.5955 13.452C13.7168 13.4427 13.8428 13.4707 13.9735 13.536C14.0015 13.5453 14.0341 13.5687 14.0715 13.606C14.0901 13.662 14.0995 13.704 14.0995 13.732C14.0995 13.76 14.0901 13.802 14.0715 13.858C14.0435 13.97 14.0015 14.082 13.9455 14.194C13.9175 14.2407 13.8848 14.3107 13.8475 14.404L13.8335 14.418C13.8335 14.4273 13.8335 14.4367 13.8335 14.446L13.7915 14.502C13.7541 14.5953 13.7028 14.6887 13.6375 14.782L13.5255 14.964L13.4275 15.104C13.4181 15.1133 13.3575 15.188 13.2455 15.328C13.2361 15.3467 13.2221 15.3653 13.2035 15.384C13.1848 15.3933 13.1661 15.4073 13.1475 15.426C13.1288 15.4447 13.1148 15.4587 13.1055 15.468L13.0775 15.51L12.8255 15.72C12.7135 15.7947 12.6295 15.846 12.5735 15.874C12.5081 15.9113 12.4195 15.944 12.3075 15.972C12.2888 15.9813 12.2655 15.986 12.2375 15.986H12.1955C12.1488 16.0047 12.0835 16.0047 11.9995 15.986L11.8455 15.944C11.7241 15.8973 11.6168 15.804 11.5235 15.664C11.4768 15.5987 11.4255 15.4913 11.3695 15.342L11.3275 15.104V14.824C11.3275 14.74 11.3321 14.6747 11.3415 14.628V14.572L11.3695 14.404C11.3695 14.3667 11.3788 14.3153 11.3975 14.25C11.4161 14.1753 11.4255 14.1287 11.4255 14.11C11.4348 14.0913 11.4395 14.068 11.4395 14.04C11.4955 13.872 11.5328 13.7413 11.5515 13.648L11.5655 13.634L11.6075 13.466L11.6495 13.326C11.6495 13.3073 11.6588 13.2793 11.6775 13.242C11.6775 13.2233 11.6681 13.214 11.6495 13.214C11.6215 13.214 11.5795 13.2187 11.5235 13.228C11.4675 13.228 11.4255 13.228 11.3975 13.228C11.3601 13.228 11.3088 13.228 11.2435 13.228C11.1781 13.2187 11.1268 13.214 11.0895 13.214H10.5995C10.4688 13.214 10.3708 13.2187 10.3055 13.228H10.0815C10.0721 13.2373 10.0535 13.27 10.0255 13.326C10.0161 13.354 9.97879 13.4333 9.91345 13.564L9.85745 13.718C9.82012 13.774 9.79679 13.816 9.78745 13.844C9.77812 13.8533 9.77345 13.8627 9.77345 13.872L9.54945 14.306L9.33945 14.642C9.20879 14.8567 9.09679 15.0247 9.00345 15.146C8.96612 15.1833 8.91945 15.2393 8.86345 15.314L8.76545 15.426L8.62545 15.566C8.51345 15.678 8.42479 15.7527 8.35945 15.79L8.17745 15.916C8.12145 15.9533 8.07479 15.9767 8.03745 15.986C8.00945 16.0047 7.95812 16.0233 7.88345 16.042C7.81812 16.07 7.77612 16.0887 7.75745 16.098L7.63145 16.126C7.51012 16.1353 7.37945 16.1353 7.23945 16.126C7.23012 16.126 7.20679 16.1213 7.16945 16.112C7.13212 16.112 7.10412 16.112 7.08545 16.112C6.93612 16.0747 6.82412 16.0373 6.74945 16L6.62345 15.944L6.42745 15.804C6.40879 15.7947 6.39012 15.7807 6.37145 15.762C6.36212 15.7433 6.34345 15.7247 6.31545 15.706C6.29679 15.678 6.28279 15.6593 6.27345 15.65C6.22679 15.6033 6.18945 15.552 6.16145 15.496C6.08679 15.384 6.03545 15.272 6.00745 15.16L5.96545 14.978C5.96545 14.922 5.96079 14.88 5.95145 14.852V14.768C5.95145 14.656 5.95612 14.5673 5.96545 14.502C5.97479 14.4833 5.97945 14.446 5.97945 14.39L6.06345 14.138C6.08212 14.1007 6.10079 14.054 6.11945 13.998L6.17545 13.886C6.19412 13.8673 6.20345 13.8533 6.20345 13.844C6.22212 13.8067 6.25945 13.76 6.31545 13.704C6.38079 13.648 6.45545 13.62 6.53945 13.62C6.67945 13.62 6.80079 13.662 6.90345 13.746C6.95945 13.7927 7.00145 13.8487 7.02945 13.914C7.05745 13.9793 7.04812 14.0447 7.00145 14.11C6.96412 14.166 6.92679 14.2593 6.88945 14.39C6.86145 14.53 6.85212 14.6607 6.86145 14.782C6.88012 14.9127 6.90812 15.0107 6.94545 15.076C7.01079 15.1973 7.10879 15.286 7.23945 15.342C7.33279 15.3607 7.41212 15.37 7.47745 15.37C7.60812 15.3513 7.72479 15.3047 7.82745 15.23C7.83679 15.23 7.85545 15.216 7.88345 15.188C7.92079 15.16 7.94879 15.1413 7.96745 15.132L8.00945 15.09L8.23345 14.838C8.25212 14.8193 8.26145 14.8053 8.26145 14.796L8.44345 14.558C8.46212 14.5207 8.47145 14.4973 8.47145 14.488C8.49945 14.4507 8.52279 14.4133 8.54145 14.376L8.58345 14.32L8.66745 14.166L8.75145 14.012L8.87745 13.76L8.96145 13.606L9.03145 13.452C9.10612 13.284 9.16679 13.158 9.21345 13.074C9.23212 13.018 9.25079 12.9713 9.26945 12.934L9.40945 12.612L9.52145 12.346C9.57745 12.234 9.61479 12.15 9.63345 12.094C9.71745 11.9167 9.76879 11.8093 9.78745 11.772L9.98345 11.38L10.1095 11.128C10.2028 10.96 10.2588 10.8667 10.2775 10.848L10.3195 10.736L10.5295 10.4L10.5715 10.316L10.6415 10.218L10.7395 10.064L10.7815 9.98C10.8095 9.94267 10.8468 9.89133 10.8935 9.826C10.9401 9.76067 10.9681 9.71867 10.9775 9.7H10.9495C10.8095 9.7 10.7021 9.70467 10.6275 9.714L10.4455 9.742C10.3801 9.742 10.3335 9.74667 10.3055 9.756L9.95545 9.826C9.87145 9.84467 9.74545 9.882 9.57745 9.938C9.53079 9.94733 9.42345 9.98467 9.25545 10.05L9.21345 10.078C9.13879 10.106 9.09212 10.1247 9.07345 10.134L8.94745 10.19L8.89145 10.218L8.65345 10.358L8.35945 10.568L8.26145 10.652L8.13545 10.764L7.99545 10.918C7.88345 11.0487 7.80879 11.1513 7.77145 11.226L7.61745 11.534L7.57545 11.674L7.49145 11.94L7.46345 12.066C7.46345 12.0847 7.45879 12.1127 7.44945 12.15C7.44945 12.1873 7.44945 12.2153 7.44945 12.234C7.43079 12.2807 7.43079 12.332 7.44945 12.388V12.402C7.44012 12.4673 7.45412 12.5653 7.49145 12.696L7.56145 12.836C7.59879 12.892 7.63145 12.934 7.65945 12.962C7.74345 13.0553 7.84612 13.116 7.96745 13.144L8.13545 13.186C8.19145 13.1953 8.22879 13.2373 8.24745 13.312C8.26612 13.368 8.27079 13.4147 8.26145 13.452C8.26145 13.536 8.24279 13.6107 8.20545 13.676C8.16812 13.7507 8.13079 13.802 8.09345 13.83C8.05612 13.8767 8.00012 13.9047 7.92545 13.914C7.88812 13.914 7.82279 13.9047 7.72945 13.886C7.57079 13.8393 7.42612 13.774 7.29545 13.69C7.17412 13.606 7.08545 13.522 7.02945 13.438C6.98279 13.3913 6.93612 13.3307 6.88945 13.256C6.82412 13.1533 6.78679 13.0833 6.77745 13.046C6.74012 12.9807 6.70279 12.8827 6.66545 12.752C6.64679 12.6867 6.62812 12.6073 6.60945 12.514C6.60945 12.486 6.60479 12.4533 6.59545 12.416C6.59545 12.3787 6.59545 12.346 6.59545 12.318C6.59545 12.1593 6.60012 12.0427 6.60945 11.968C6.62812 11.8 6.64679 11.6973 6.66545 11.66C6.66545 11.6413 6.69345 11.5527 6.74945 11.394L6.84745 11.156C6.92212 11.0253 6.98279 10.9273 7.02945 10.862C7.02945 10.8527 7.04345 10.834 7.07145 10.806C7.09945 10.7687 7.11812 10.7407 7.12745 10.722C7.13679 10.7127 7.15079 10.6987 7.16945 10.68C7.19745 10.652 7.21612 10.6333 7.22545 10.624C7.29079 10.54 7.37012 10.456 7.46345 10.372C7.63145 10.2227 7.75745 10.1153 7.84145 10.05L8.09345 9.882C8.12145 9.86333 8.14945 9.84467 8.17745 9.826C8.21479 9.80733 8.25212 9.78867 8.28945 9.77C8.33612 9.742 8.36879 9.72333 8.38745 9.714L8.56945 9.616L8.76545 9.518L8.87745 9.476C8.95212 9.43867 9.07345 9.392 9.24145 9.336L9.49345 9.252L9.70345 9.196C9.81545 9.15867 9.90412 9.13533 9.96945 9.126L10.0815 9.098L10.5015 9.042C10.7815 9.00467 10.9915 8.99067 11.1315 9H11.3975C11.4441 9 11.4768 9.00467 11.4955 9.014C11.5141 9.014 11.5421 9.00467 11.5795 8.986L11.6635 8.874L11.7195 8.832L11.7755 8.762C11.7848 8.762 11.7895 8.762 11.7895 8.762C11.7895 8.75267 11.7941 8.748 11.8035 8.748C11.8408 8.71067 11.8968 8.664 11.9715 8.608C12.0555 8.53333 12.1441 8.45867 12.2375 8.384C12.2655 8.36533 12.3121 8.33733 12.3775 8.3C12.4428 8.25333 12.4941 8.22067 12.5315 8.202L12.6155 8.16C12.7181 8.11333 12.8115 8.076 12.8955 8.048L13.0075 8.02C13.0355 8.01067 13.0681 8.006 13.1055 8.006C13.1801 7.98733 13.2315 7.978 13.2595 7.978C13.2688 7.978 13.2735 7.978 13.2735 7.978C13.2735 7.96867 13.2781 7.964 13.2875 7.964ZM11.9015 9.784C11.8828 9.79333 11.8641 9.81667 11.8455 9.854C11.7241 10.022 11.6588 10.1153 11.6495 10.134L11.6075 10.176C11.5795 10.2133 11.5468 10.2693 11.5095 10.344C11.4721 10.4093 11.4441 10.4513 11.4255 10.47L11.3415 10.596L11.1875 10.876C11.1408 10.9507 11.0801 11.0627 11.0055 11.212L10.8935 11.408L10.7535 11.702L10.7255 11.758L10.5995 12.024L10.5435 12.136C10.5341 12.1547 10.5155 12.1967 10.4875 12.262C10.4595 12.3273 10.4361 12.3787 10.4175 12.416V12.444H11.8875C11.8875 12.4253 11.8968 12.3973 11.9155 12.36C11.9341 12.3227 11.9481 12.2667 11.9575 12.192C11.9761 12.1173 11.9948 12.0613 12.0135 12.024L12.0695 11.73L12.1115 11.534C12.1488 11.4127 12.1721 11.31 12.1815 11.226C12.2188 11.058 12.2421 10.932 12.2515 10.848C12.2608 10.8293 12.2655 10.8013 12.2655 10.764C12.2655 10.708 12.2748 10.6333 12.2935 10.54C12.2935 10.4093 12.2795 10.2787 12.2515 10.148C12.2515 10.12 12.2421 10.0873 12.2235 10.05C12.2048 10.0127 12.1861 9.98933 12.1675 9.98C12.1488 9.94267 12.1301 9.91933 12.1115 9.91C12.1021 9.90067 12.0555 9.868 11.9715 9.812C11.9341 9.79333 11.9108 9.784 11.9015 9.784ZM12.0135 14.236L12.0415 14.208H12.0555L12.0695 14.194C12.0788 14.194 12.0835 14.2033 12.0835 14.222C12.1021 14.2033 12.0975 14.1707 12.0695 14.124C12.1068 14.124 12.1068 14.1147 12.0695 14.096V14.082C12.0695 14.054 12.0648 14.0353 12.0555 14.026V14.012L12.1115 13.97C12.1021 13.9607 12.0975 13.928 12.0975 13.872V13.83C12.0975 13.8207 12.0881 13.816 12.0695 13.816C12.0601 13.816 12.0508 13.8207 12.0415 13.83V13.858C12.0321 13.858 12.0228 13.8627 12.0135 13.872V13.788C12.0041 13.788 11.9901 13.7927 11.9715 13.802C11.9621 13.8113 11.9481 13.816 11.9295 13.816C11.9575 13.788 11.9481 13.7647 11.9015 13.746C11.8828 13.7833 11.8595 13.8113 11.8315 13.83C11.8315 13.8207 11.8221 13.816 11.8035 13.816C11.7848 13.816 11.7801 13.8253 11.7895 13.844V13.872V13.886C11.7801 13.8953 11.7755 13.9047 11.7755 13.914L11.7055 13.886C11.6868 13.886 11.6728 13.9 11.6635 13.928C11.6635 13.956 11.6728 13.9607 11.6915 13.942C11.7101 13.942 11.7241 13.9373 11.7335 13.928C11.7521 13.984 11.7615 14.0307 11.7615 14.068H11.7335C11.7241 14.0773 11.7055 14.082 11.6775 14.082C11.6681 14.082 11.6635 14.0867 11.6635 14.096L11.7195 14.124L11.6915 14.152C11.6915 14.1707 11.6961 14.18 11.7055 14.18H11.6635C11.6448 14.18 11.6355 14.1893 11.6355 14.208L11.6495 14.222C11.6775 14.222 11.6915 14.236 11.6915 14.264L11.6495 14.32C11.6681 14.348 11.6681 14.3947 11.6495 14.46C11.6308 14.46 11.6215 14.4647 11.6215 14.474V14.502L11.6635 14.544L11.7055 14.516C11.7055 14.5347 11.7148 14.5533 11.7335 14.572L11.7475 14.558L11.7755 14.572C11.7848 14.572 11.7941 14.5767 11.8035 14.586C11.7941 14.5953 11.7801 14.6 11.7615 14.6L11.7335 14.614C11.7148 14.5953 11.7008 14.586 11.6915 14.586H11.6635L11.6915 14.656C11.6915 14.6933 11.6961 14.7167 11.7055 14.726C11.7148 14.726 11.7288 14.7167 11.7475 14.698H11.7895C11.7988 14.6793 11.8035 14.6607 11.8035 14.642C11.8408 14.642 11.8595 14.6513 11.8595 14.67L11.8455 14.698C11.8828 14.7167 11.9015 14.712 11.9015 14.684C11.9015 14.6653 11.9108 14.6467 11.9295 14.628C11.9388 14.6 11.9341 14.5813 11.9155 14.572C11.9061 14.572 11.8968 14.5673 11.8875 14.558C11.8875 14.5487 11.8828 14.544 11.8735 14.544C11.8921 14.5347 11.9061 14.53 11.9155 14.53V14.474L11.8875 14.46C11.8688 14.4507 11.8455 14.446 11.8175 14.446V14.418L11.8595 14.376L11.9295 14.446C11.9388 14.4553 11.9528 14.4553 11.9715 14.446H11.9295C11.9388 14.4367 11.9435 14.4273 11.9435 14.418C11.9435 14.4087 11.9528 14.3993 11.9715 14.39C11.9901 14.3713 11.9995 14.3573 11.9995 14.348C12.0088 14.348 12.0135 14.3433 12.0135 14.334C12.0415 14.3153 12.0508 14.2967 12.0415 14.278L12.0135 14.236ZM12.4895 9.882C12.4708 9.91 12.4755 9.938 12.5035 9.966C12.5035 9.98467 12.5081 9.99867 12.5175 10.008L12.4895 10.022L12.4615 10.05L12.5315 10.078L12.5035 10.106C12.4755 10.106 12.4615 10.12 12.4615 10.148V10.162L12.5035 10.19C12.4941 10.19 12.4801 10.1947 12.4615 10.204C12.4801 10.204 12.4988 10.2227 12.5175 10.26L12.5315 10.288C12.5408 10.2973 12.5548 10.302 12.5735 10.302H12.6015C12.5921 10.3113 12.5875 10.3207 12.5875 10.33C12.5968 10.3207 12.6015 10.3113 12.6015 10.302C12.6108 10.302 12.6248 10.3253 12.6435 10.372C12.6528 10.372 12.6575 10.3767 12.6575 10.386C12.6575 10.386 12.6621 10.386 12.6715 10.386L12.6435 10.414C12.6248 10.414 12.6108 10.4187 12.6015 10.428L12.5735 10.456L12.6295 10.484V10.456C12.6481 10.4467 12.6761 10.442 12.7135 10.442C12.7135 10.414 12.7181 10.4 12.7275 10.4C12.7275 10.4093 12.7275 10.4233 12.7275 10.442C12.7368 10.4513 12.7461 10.4607 12.7555 10.47L12.7695 10.484H12.7835C12.7928 10.4747 12.8021 10.4653 12.8115 10.456C12.8115 10.4467 12.8021 10.4327 12.7835 10.414H12.7975L12.8675 10.386C12.8581 10.3953 12.8535 10.4093 12.8535 10.428V10.442L12.8675 10.428V10.386C12.8675 10.3487 12.8721 10.3253 12.8815 10.316C12.8815 10.2973 12.8768 10.288 12.8675 10.288L12.8255 10.204C12.8628 10.204 12.8815 10.19 12.8815 10.162L12.8395 10.106L12.9095 9.98C12.8815 9.952 12.8675 9.924 12.8675 9.896L12.8535 9.868C12.8535 9.85867 12.8535 9.84933 12.8535 9.84C12.8441 9.84 12.8301 9.83067 12.8115 9.812C12.8021 9.812 12.7881 9.81667 12.7695 9.826C12.7508 9.83533 12.7321 9.83533 12.7135 9.826C12.7135 9.81667 12.7041 9.80267 12.6855 9.784C12.7415 9.784 12.7695 9.76533 12.7695 9.728C12.7321 9.70933 12.7041 9.70467 12.6855 9.714C12.6761 9.714 12.6621 9.71867 12.6435 9.728C12.6248 9.728 12.6061 9.728 12.5875 9.728H12.5595C12.5501 9.756 12.5548 9.80267 12.5735 9.868L12.6015 9.812V9.868V9.882L12.6155 9.896C12.5968 9.91467 12.5875 9.92867 12.5875 9.938C12.5875 9.94733 12.5921 9.96133 12.6015 9.98V9.994C12.5828 9.994 12.5641 9.98933 12.5455 9.98C12.5455 9.96133 12.5361 9.924 12.5175 9.868C12.5081 9.87733 12.4988 9.882 12.4895 9.882ZM6.56745 15.356V15.384C6.53945 15.4307 6.51612 15.454 6.49745 15.454V15.468L6.58145 15.538C6.60012 15.5567 6.61412 15.566 6.62345 15.566C6.64212 15.566 6.65612 15.5753 6.66545 15.594L6.63745 15.608L6.60945 15.622C6.61879 15.622 6.62812 15.6267 6.63745 15.636C6.65612 15.636 6.67012 15.636 6.67945 15.636H6.69345L6.72145 15.65L6.74945 15.664C6.75879 15.664 6.76812 15.6687 6.77745 15.678V15.692H6.87545H6.88945C6.90812 15.7013 6.92212 15.706 6.93145 15.706C6.95012 15.7247 6.96412 15.734 6.97345 15.734C6.99212 15.734 7.01079 15.7433 7.02945 15.762C7.03879 15.7713 7.04812 15.7713 7.05745 15.762L7.04345 15.748L7.02945 15.72C7.02945 15.7107 7.02945 15.7013 7.02945 15.692V15.65V15.594C7.02012 15.6033 7.01079 15.608 7.00145 15.608V15.566C6.97345 15.5753 6.93145 15.5613 6.87545 15.524C6.90345 15.524 6.91745 15.51 6.91745 15.482C6.90812 15.482 6.89412 15.4727 6.87545 15.454C6.85679 15.454 6.83812 15.4447 6.81945 15.426H6.87545C6.88479 15.4167 6.88479 15.412 6.87545 15.412C6.86612 15.3933 6.86145 15.3747 6.86145 15.356V15.286C6.82412 15.2673 6.80079 15.258 6.79145 15.258H6.76345C6.77279 15.2487 6.79612 15.244 6.83345 15.244C6.84279 15.2533 6.85212 15.258 6.86145 15.258C6.87079 15.258 6.87545 15.2627 6.87545 15.272C6.88479 15.272 6.89412 15.272 6.90345 15.272C6.90345 15.2627 6.89412 15.2533 6.87545 15.244C6.85679 15.2253 6.85212 15.2113 6.86145 15.202C6.85212 15.202 6.83812 15.202 6.81945 15.202C6.81012 15.1927 6.80079 15.1833 6.79145 15.174C6.78212 15.1647 6.77279 15.1553 6.76345 15.146C6.75412 15.1273 6.74479 15.1133 6.73545 15.104H6.67945L6.63745 15.062L6.55345 15.188V15.258C6.55345 15.286 6.56745 15.3 6.59545 15.3C6.60479 15.3 6.60945 15.314 6.60945 15.342C6.60012 15.3513 6.58612 15.356 6.56745 15.356ZM11.1455 10.05V10.078C11.1548 10.078 11.1641 10.0733 11.1735 10.064L11.1875 10.05C11.1968 10.0593 11.1968 10.078 11.1875 10.106C11.1875 10.1153 11.1781 10.12 11.1595 10.12C11.1501 10.12 11.1455 10.1107 11.1455 10.092V10.078C11.1175 10.0593 11.1081 10.0313 11.1175 9.994H11.0475L11.0195 10.022L10.9915 10.05C11.0288 10.0687 11.0428 10.092 11.0335 10.12V10.176H11.0615C11.0708 10.1853 11.0801 10.1853 11.0895 10.176C11.1081 10.1573 11.1175 10.162 11.1175 10.19L11.0755 10.246C11.0848 10.2553 11.0988 10.274 11.1175 10.302H11.0615C11.0241 10.2927 10.9915 10.3067 10.9635 10.344L10.9775 10.358H10.9915C11.0008 10.33 11.0241 10.3253 11.0615 10.344H11.0895C11.1175 10.3627 11.1455 10.358 11.1735 10.33V10.19H11.3275C11.3275 10.1433 11.2995 10.1107 11.2435 10.092C11.2621 10.0827 11.2715 10.064 11.2715 10.036C11.2715 9.98 11.2855 9.938 11.3135 9.91C11.3321 9.91 11.3415 9.896 11.3415 9.868C11.3508 9.868 11.3648 9.87267 11.3835 9.882C11.4021 9.882 11.4161 9.87267 11.4255 9.854H11.4115C11.3741 9.84467 11.3648 9.82133 11.3835 9.784C11.3835 9.77467 11.3881 9.77 11.3975 9.77V9.742L11.4395 9.714L11.4535 9.686L11.4255 9.63H11.3835C11.3741 9.62067 11.3695 9.60667 11.3695 9.588C11.3695 9.57867 11.3695 9.56467 11.3695 9.546C11.3695 9.52733 11.3695 9.51333 11.3695 9.504C11.3695 9.48533 11.3601 9.46667 11.3415 9.448C11.3135 9.45733 11.2901 9.462 11.2715 9.462L11.2575 9.476C11.2388 9.504 11.2435 9.518 11.2715 9.518H11.2855V9.532H11.2575L11.2295 9.546V9.574L11.2015 9.588C11.1921 9.59733 11.1875 9.60667 11.1875 9.616C11.1968 9.63467 11.1968 9.64867 11.1875 9.658C11.1781 9.658 11.1735 9.672 11.1735 9.7H11.1875L11.2015 9.686V9.7H11.1735L11.2015 9.728H11.2155C11.1968 9.74667 11.1828 9.756 11.1735 9.756V9.812L11.2295 9.854C11.2108 9.87267 11.2015 9.88667 11.2015 9.896V9.882C11.1828 9.90067 11.1641 9.91 11.1455 9.91L11.1735 9.938C11.1828 9.966 11.1828 9.98933 11.1735 10.008L11.1455 10.05ZM12.3495 11.996H12.3215V12.01L12.3355 12.024L12.2935 12.052C12.2841 12.052 12.2841 12.0567 12.2935 12.066H12.3215C12.3308 12.0753 12.3355 12.0893 12.3355 12.108C12.3541 12.1173 12.3728 12.122 12.3915 12.122C12.4008 12.122 12.4055 12.1267 12.4055 12.136H12.3915C12.3821 12.1453 12.3728 12.15 12.3635 12.15C12.3541 12.15 12.3401 12.1453 12.3215 12.136V12.192C12.3028 12.248 12.2981 12.29 12.3075 12.318C12.3168 12.3273 12.3261 12.332 12.3355 12.332C12.3448 12.332 12.3495 12.3273 12.3495 12.318L12.3635 12.29V12.248C12.3821 12.2293 12.3821 12.2107 12.3635 12.192H12.3915L12.4475 12.234C12.4755 12.234 12.4801 12.2433 12.4615 12.262C12.4428 12.2807 12.4335 12.2947 12.4335 12.304C12.4521 12.3133 12.4708 12.3087 12.4895 12.29H12.5735C12.5548 12.2807 12.5361 12.276 12.5175 12.276C12.4895 12.276 12.4848 12.2667 12.5035 12.248C12.5221 12.2293 12.5315 12.2153 12.5315 12.206C12.5501 12.206 12.5595 12.192 12.5595 12.164L12.4895 12.108L12.4755 12.122C12.4661 12.1313 12.4521 12.136 12.4335 12.136C12.4335 12.108 12.4381 12.094 12.4475 12.094C12.4941 12.066 12.5221 12.0567 12.5315 12.066C12.5408 12.066 12.5455 12.066 12.5455 12.066C12.5455 12.0567 12.5501 12.052 12.5595 12.052C12.5501 12.0427 12.5361 12.038 12.5175 12.038H12.4755C12.4755 12.0287 12.4708 12.0147 12.4615 11.996V11.968C12.4428 11.968 12.4055 11.9773 12.3495 11.996ZM11.8595 14.992L11.8735 15.006H11.8595V14.992L11.8455 14.978C11.8361 14.9593 11.8315 14.9407 11.8315 14.922L11.8595 14.894C11.8501 14.894 11.8455 14.894 11.8455 14.894C11.8455 14.8847 11.8408 14.88 11.8315 14.88H11.7895C11.7615 14.88 11.7428 14.8753 11.7335 14.866V14.852C11.7055 14.8427 11.6868 14.8473 11.6775 14.866C11.6775 14.8753 11.6728 14.88 11.6635 14.88C11.6635 14.8987 11.6775 14.9127 11.7055 14.922H11.7615C11.7521 14.9313 11.7475 14.9407 11.7475 14.95H11.7615V14.922C11.7801 14.9313 11.7895 14.95 11.7895 14.978C11.7801 14.9967 11.7615 15.006 11.7335 15.006C11.7055 15.0153 11.6915 15.034 11.6915 15.062C11.6915 15.0807 11.7008 15.09 11.7195 15.09C11.7288 15.09 11.7335 15.0807 11.7335 15.062L11.7475 15.048L11.7615 15.062C11.7428 15.1087 11.7475 15.146 11.7755 15.174H11.8315C11.8408 15.1833 11.8455 15.1927 11.8455 15.202C11.8548 15.2207 11.8735 15.23 11.9015 15.23V15.188L11.9435 15.104L11.9015 15.02C11.9015 15.0013 11.8875 14.992 11.8595 14.992ZM9.74545 13.046C9.75479 13.046 9.76879 13.0553 9.78745 13.074C9.78745 13.0273 9.81079 13.004 9.85745 13.004L9.81545 13.032V13.046L9.82945 13.06C9.84812 13.06 9.86212 13.0553 9.87145 13.046C9.89012 13.0273 9.89479 13.004 9.88545 12.976C9.88545 12.9573 9.87145 12.948 9.84345 12.948C9.82479 12.948 9.81545 12.9387 9.81545 12.92C9.81545 12.9013 9.81079 12.892 9.80145 12.892L9.73145 12.808H9.71745C9.68012 12.808 9.66145 12.8033 9.66145 12.794C9.64279 12.766 9.65212 12.752 9.68945 12.752L9.73145 12.71C9.71279 12.71 9.69412 12.7147 9.67545 12.724C9.65679 12.724 9.64279 12.724 9.63345 12.724C9.63345 12.752 9.62412 12.7707 9.60545 12.78C9.58679 12.78 9.57745 12.7847 9.57745 12.794C9.55879 12.794 9.54945 12.808 9.54945 12.836C9.56812 12.8547 9.58212 12.864 9.59145 12.864C9.60079 12.864 9.61945 12.878 9.64745 12.906L9.68945 12.976H9.74545C9.75479 12.9947 9.75479 13.018 9.74545 13.046ZM12.1675 15.636H12.2375V15.65C12.2561 15.6313 12.2701 15.622 12.2795 15.622C12.2888 15.622 12.2981 15.6173 12.3075 15.608L12.2795 15.58H12.2655L12.3075 15.538L12.2935 15.524C12.2748 15.5053 12.2748 15.482 12.2935 15.454L12.3075 15.44C12.2701 15.412 12.2468 15.4167 12.2375 15.454V15.482C12.2375 15.4913 12.2281 15.496 12.2095 15.496C12.2095 15.4493 12.1768 15.4027 12.1115 15.356L12.1255 15.398L12.1675 15.44V15.468C12.1395 15.468 12.1255 15.4633 12.1255 15.454L12.1115 15.44C12.1021 15.44 12.0881 15.4353 12.0695 15.426C12.0601 15.4167 12.0508 15.412 12.0415 15.412L12.0275 15.426V15.454L12.0555 15.482C12.0741 15.482 12.0928 15.4913 12.1115 15.51C12.1301 15.5193 12.1441 15.524 12.1535 15.524L12.1255 15.58C12.1255 15.5987 12.1161 15.5987 12.0975 15.58L12.0835 15.566C12.0648 15.5473 12.0555 15.5473 12.0555 15.566C12.0555 15.5753 12.0555 15.5893 12.0555 15.608C12.0648 15.6173 12.0695 15.6267 12.0695 15.636L12.0975 15.664C12.1161 15.6453 12.1395 15.636 12.1675 15.636ZM12.6995 10.624V10.638C12.7088 10.6567 12.7415 10.6753 12.7975 10.694C12.7975 10.6847 12.7975 10.6753 12.7975 10.666L12.7835 10.652C12.7555 10.6333 12.7461 10.6147 12.7555 10.596L12.7835 10.568C12.7741 10.568 12.7648 10.568 12.7555 10.568L12.7275 10.554H12.6855H12.6995H12.6855L12.7275 10.512L12.7135 10.498C12.7041 10.498 12.6948 10.5027 12.6855 10.512V10.554L12.6575 10.526C12.6295 10.498 12.6108 10.498 12.6015 10.526C12.5735 10.5353 12.5548 10.554 12.5455 10.582L12.5735 10.61V10.666C12.5921 10.6847 12.6108 10.6847 12.6295 10.666C12.6388 10.6567 12.6528 10.6473 12.6715 10.638L12.6995 10.624ZM6.25945 14.586V14.6C6.26879 14.6 6.28279 14.6 6.30145 14.6L6.31545 14.586L6.34345 14.614C6.36212 14.6047 6.39012 14.6 6.42745 14.6C6.43679 14.6 6.44612 14.6047 6.45545 14.614C6.47412 14.6233 6.49279 14.6233 6.51145 14.614C6.51145 14.6047 6.50212 14.5953 6.48345 14.586C6.47412 14.5673 6.46945 14.5533 6.46945 14.544L6.53945 14.586C6.54879 14.5673 6.55345 14.5487 6.55345 14.53C6.53479 14.53 6.52545 14.5207 6.52545 14.502H6.51145C6.52079 14.502 6.52545 14.502 6.52545 14.502C6.52545 14.4927 6.53012 14.488 6.53945 14.488V14.418H6.52545C6.50679 14.4367 6.49745 14.4507 6.49745 14.46L6.46945 14.432V14.46C6.46945 14.4787 6.46479 14.488 6.45545 14.488C6.44612 14.488 6.44145 14.474 6.44145 14.446C6.44145 14.4367 6.43212 14.432 6.41345 14.432C6.42279 14.4507 6.42745 14.4787 6.42745 14.516L6.41345 14.544C6.39479 14.544 6.38545 14.5393 6.38545 14.53L6.35745 14.502C6.35745 14.5113 6.35279 14.5207 6.34345 14.53C6.34345 14.5393 6.34345 14.5487 6.34345 14.558C6.30612 14.5487 6.27812 14.558 6.25945 14.586ZM11.9015 13.186C11.9295 13.1673 11.9481 13.1627 11.9575 13.172C11.9948 13.2093 12.0321 13.2187 12.0695 13.2C12.0695 13.1907 12.0695 13.1813 12.0695 13.172C12.0695 13.1533 12.0741 13.1393 12.0835 13.13C12.0928 13.1207 12.0975 13.102 12.0975 13.074C12.0788 13.074 12.0508 13.0647 12.0135 13.046L11.9435 13.088L11.9295 13.074C11.9108 13.0833 11.9015 13.1207 11.9015 13.186ZM11.9295 13.578V13.62C11.9481 13.6387 11.9575 13.634 11.9575 13.606C11.9575 13.634 11.9621 13.648 11.9715 13.648C11.9808 13.648 11.9901 13.6573 11.9995 13.676C12.0088 13.6947 12.0181 13.704 12.0275 13.704C12.0461 13.704 12.0601 13.6993 12.0695 13.69C12.0695 13.662 12.0741 13.648 12.0835 13.648C12.1021 13.6107 12.1115 13.5827 12.1115 13.564C12.0928 13.5453 12.0835 13.55 12.0835 13.578C12.0648 13.5967 12.0555 13.6107 12.0555 13.62H12.0275C12.0181 13.6013 12.0135 13.578 12.0135 13.55L11.9715 13.508V13.592C11.9621 13.5827 11.9481 13.578 11.9295 13.578ZM9.52145 13.312L9.53545 13.34C9.56345 13.34 9.56812 13.3493 9.54945 13.368H9.53545C9.51679 13.368 9.50279 13.3727 9.49345 13.382L9.50745 13.396C9.53545 13.396 9.54945 13.41 9.54945 13.438C9.54945 13.4567 9.55879 13.466 9.57745 13.466C9.59612 13.466 9.61479 13.4567 9.63345 13.438C9.65212 13.438 9.66145 13.424 9.66145 13.396C9.66145 13.3773 9.65679 13.3633 9.64745 13.354C9.62879 13.3633 9.58679 13.3493 9.52145 13.312ZM11.6075 14.852C11.5981 14.852 11.5935 14.8567 11.5935 14.866L11.5655 14.936L11.5795 14.964L11.5935 14.978C11.6121 14.978 11.6215 14.9873 11.6215 15.006C11.6215 15.0153 11.6215 15.02 11.6215 15.02C11.6308 15.02 11.6355 15.0247 11.6355 15.034H11.6635V15.006C11.6541 14.9873 11.6541 14.9733 11.6635 14.964C11.6728 14.964 11.6868 14.9593 11.7055 14.95H11.6635L11.6355 14.908L11.6635 14.88C11.6448 14.8613 11.6261 14.852 11.6075 14.852ZM12.4475 9.882H12.4895C12.4895 9.87267 12.4988 9.84933 12.5175 9.812C12.4988 9.79333 12.4941 9.77467 12.5035 9.756C12.4755 9.74667 12.4615 9.72333 12.4615 9.686C12.4615 9.67667 12.4568 9.66267 12.4475 9.644C12.4475 9.672 12.4428 9.686 12.4335 9.686C12.4335 9.70467 12.4241 9.714 12.4055 9.714C12.4241 9.73267 12.4335 9.74667 12.4335 9.756C12.4335 9.784 12.4381 9.80267 12.4475 9.812V9.854C12.4381 9.86333 12.4381 9.87267 12.4475 9.882ZM9.14345 14.404L9.05945 14.46C9.12479 14.488 9.17612 14.4833 9.21345 14.446V14.418C9.19479 14.3713 9.17145 14.3667 9.14345 14.404ZM10.1515 13.004V12.976H10.2075C10.1981 12.9667 10.1888 12.962 10.1795 12.962L10.1515 12.948C10.1421 12.9387 10.1375 12.9293 10.1375 12.92V12.934H10.0815H10.0255C10.0255 12.9433 10.0255 12.948 10.0255 12.948C10.0348 12.948 10.0395 12.9527 10.0395 12.962C10.0581 12.962 10.0768 12.9713 10.0955 12.99C10.1048 12.9993 10.1048 13.0133 10.0955 13.032C10.1328 13.0413 10.1515 13.032 10.1515 13.004ZM12.2935 8.86L12.3355 8.804C12.2981 8.78533 12.2748 8.776 12.2655 8.776C12.2468 8.776 12.2235 8.79 12.1955 8.818L12.2235 8.874C12.2515 8.85533 12.2748 8.85067 12.2935 8.86ZM10.6275 11.128H10.6695C10.6788 11.128 10.6928 11.1373 10.7115 11.156L10.7255 11.114C10.7161 11.0953 10.7115 11.0673 10.7115 11.03L10.6835 11.002C10.6648 11.0207 10.6461 11.03 10.6275 11.03L10.6695 11.086C10.6695 11.0953 10.6601 11.1047 10.6415 11.114C10.6228 11.114 10.6181 11.1187 10.6275 11.128ZM12.0975 13.298C12.1348 13.298 12.1581 13.312 12.1675 13.34C12.1768 13.34 12.1815 13.34 12.1815 13.34L12.2095 13.354C12.2281 13.354 12.2375 13.3493 12.2375 13.34C12.2188 13.312 12.1955 13.312 12.1675 13.34C12.1675 13.3307 12.1675 13.3213 12.1675 13.312C12.1768 13.2933 12.1861 13.2793 12.1955 13.27C12.1768 13.2327 12.1488 13.2187 12.1115 13.228C12.1115 13.2373 12.1068 13.2513 12.0975 13.27C12.0975 13.2793 12.0975 13.2887 12.0975 13.298ZM9.82945 12.682C9.83879 12.654 9.82945 12.6307 9.80145 12.612C9.78279 12.5933 9.75479 12.5933 9.71745 12.612C9.73612 12.6307 9.74545 12.6447 9.74545 12.654C9.76412 12.682 9.77812 12.696 9.78745 12.696C9.79679 12.7053 9.81079 12.7007 9.82945 12.682ZM10.5435 12.864V12.948L10.5575 12.962C10.5668 12.9713 10.5761 12.976 10.5855 12.976C10.5855 12.9667 10.5855 12.948 10.5855 12.92C10.5948 12.8827 10.5948 12.8593 10.5855 12.85H10.4735C10.4921 12.878 10.5155 12.8827 10.5435 12.864ZM10.1095 12.598L10.1515 12.682C10.1608 12.682 10.1748 12.6727 10.1935 12.654C10.2121 12.6167 10.2028 12.5887 10.1655 12.57H10.1515L10.1095 12.598ZM11.8735 15.356C11.8735 15.3653 11.8781 15.37 11.8875 15.37C11.9061 15.3793 11.9155 15.4027 11.9155 15.44C11.9155 15.4493 11.9201 15.4587 11.9295 15.468L11.9435 15.482C11.9528 15.4727 11.9575 15.454 11.9575 15.426C11.9575 15.4167 11.9528 15.4073 11.9435 15.398C11.9435 15.3887 11.9435 15.3793 11.9435 15.37C11.9528 15.3513 11.9435 15.3373 11.9155 15.328C11.8968 15.3467 11.8828 15.356 11.8735 15.356ZM10.1655 12.206C10.1655 12.1967 10.1748 12.1827 10.1935 12.164C10.2121 12.164 10.2215 12.1547 10.2215 12.136C10.2028 12.1173 10.1748 12.108 10.1375 12.108C10.1375 12.1547 10.1468 12.1873 10.1655 12.206ZM11.2155 12.808C11.1968 12.7893 11.1735 12.78 11.1455 12.78L11.1315 12.794C11.1408 12.8033 11.1455 12.8173 11.1455 12.836C11.1641 12.836 11.1828 12.8453 11.2015 12.864C11.2108 12.864 11.2201 12.8593 11.2295 12.85C11.2295 12.8407 11.2295 12.836 11.2295 12.836L11.2155 12.808ZM11.8595 14.222C11.8315 14.2313 11.8175 14.2313 11.8175 14.222L11.7895 14.124H11.8175L11.8595 14.166V14.222ZM10.2075 11.828C10.2261 11.8187 10.2448 11.814 10.2635 11.814H10.3055V11.758C10.2961 11.758 10.2868 11.7533 10.2775 11.744L10.2215 11.786C10.2215 11.8047 10.2168 11.8187 10.2075 11.828ZM12.3215 12.556V12.598H12.3495L12.3635 12.584V12.528C12.3635 12.5187 12.3541 12.5047 12.3355 12.486H12.3075V12.514C12.3261 12.5327 12.3308 12.5467 12.3215 12.556ZM11.0475 9.448L11.0055 9.518C11.0055 9.52733 11.0101 9.532 11.0195 9.532C11.0288 9.54133 11.0335 9.53667 11.0335 9.518L11.0475 9.504H11.0895C11.0895 9.46667 11.0755 9.448 11.0475 9.448ZM12.5735 11.968V11.898C12.5735 11.8887 12.5688 11.884 12.5595 11.884C12.5595 11.884 12.5595 11.8793 12.5595 11.87C12.5595 11.8513 12.5501 11.8513 12.5315 11.87V11.926C12.5408 11.954 12.5548 11.968 12.5735 11.968ZM11.1595 9.546C11.1595 9.53667 11.1548 9.52267 11.1455 9.504C11.1268 9.504 11.1175 9.51333 11.1175 9.532H11.0755C11.0755 9.56 11.0895 9.574 11.1175 9.574C11.1361 9.574 11.1501 9.56467 11.1595 9.546ZM11.2575 9.406C11.2761 9.41533 11.2901 9.41533 11.2995 9.406V9.378C11.3088 9.378 11.3228 9.37333 11.3415 9.364C11.3135 9.336 11.2855 9.33133 11.2575 9.35V9.406ZM12.2375 13.242C12.2375 13.2327 12.2375 13.228 12.2375 13.228L12.2235 13.2C12.2235 13.1813 12.2141 13.172 12.1955 13.172V13.27C12.2235 13.2793 12.2375 13.27 12.2375 13.242ZM11.0055 10.414L10.9635 10.47C11.0288 10.4513 11.0661 10.4187 11.0755 10.372L11.0195 10.4L11.0055 10.414ZM12.0135 13.326C11.9948 13.3167 11.9715 13.3167 11.9435 13.326C11.9155 13.3353 11.8968 13.3353 11.8875 13.326C11.8781 13.326 11.8735 13.3307 11.8735 13.34L11.8875 13.354H11.9715C11.9901 13.354 12.0041 13.3447 12.0135 13.326ZM12.3495 12.738C12.3588 12.7193 12.3635 12.7053 12.3635 12.696C12.3635 12.668 12.3541 12.654 12.3355 12.654C12.3261 12.6633 12.3215 12.682 12.3215 12.71C12.3215 12.7287 12.3308 12.738 12.3495 12.738ZM12.1675 8.776C12.1675 8.75733 12.1581 8.748 12.1395 8.748V8.776L12.1535 8.804L12.1255 8.818C12.1348 8.83667 12.1441 8.846 12.1535 8.846L12.1815 8.818C12.1815 8.79933 12.1768 8.78533 12.1675 8.776ZM6.39945 15.258C6.40879 15.23 6.41345 15.202 6.41345 15.174V15.16C6.41345 15.1507 6.40879 15.146 6.39945 15.146C6.38079 15.1647 6.37145 15.1787 6.37145 15.188L6.38545 15.216C6.38545 15.2253 6.39012 15.2393 6.39945 15.258ZM12.4335 12.528L12.4475 12.5V12.416L12.4335 12.402V12.528ZM12.3215 12.416V12.43H12.3355V12.416C12.3541 12.3973 12.3635 12.3787 12.3635 12.36C12.3355 12.3507 12.3168 12.36 12.3075 12.388C12.2888 12.4067 12.2935 12.416 12.3215 12.416ZM12.3915 11.968C12.4195 11.9493 12.4335 11.9307 12.4335 11.912C12.4521 11.8933 12.4475 11.884 12.4195 11.884H12.3915L12.4195 11.926C12.3915 11.926 12.3821 11.94 12.3915 11.968C12.3728 11.968 12.3588 11.9773 12.3495 11.996C12.3681 11.9773 12.3821 11.968 12.3915 11.968ZM11.4815 9.714C11.5001 9.686 11.5095 9.65333 11.5095 9.616L11.4955 9.602L11.4815 9.616V9.714ZM9.35345 13.802C9.37212 13.7833 9.37212 13.7647 9.35345 13.746C9.34412 13.7367 9.33012 13.732 9.31145 13.732C9.31145 13.7507 9.32545 13.774 9.35345 13.802ZM11.3555 10.106C11.3555 10.0873 11.3648 10.078 11.3835 10.078C11.3835 10.0593 11.3788 10.05 11.3695 10.05C11.3508 10.0407 11.3368 10.0407 11.3275 10.05C11.3275 10.078 11.3368 10.0967 11.3555 10.106ZM12.1115 13.676C12.1115 13.704 12.1161 13.7273 12.1255 13.746C12.1255 13.7553 12.1348 13.7553 12.1535 13.746C12.1535 13.7087 12.1395 13.6853 12.1115 13.676ZM6.53945 15.342L6.49745 15.384C6.50679 15.3933 6.51145 15.4027 6.51145 15.412L6.55345 15.356L6.53945 15.342ZM11.8175 13.55H11.7895C11.7895 13.5593 11.8035 13.564 11.8315 13.564C11.8501 13.564 11.8595 13.55 11.8595 13.522C11.8501 13.522 11.8361 13.5173 11.8175 13.508V13.55ZM6.73545 15.202L6.72145 15.216C6.72145 15.188 6.71679 15.1693 6.70745 15.16L6.72145 15.146H6.73545C6.76345 15.174 6.76345 15.1927 6.73545 15.202ZM12.7275 10.834C12.7368 10.834 12.7461 10.8387 12.7555 10.848V10.834C12.7461 10.806 12.7228 10.792 12.6855 10.792V10.82C12.6948 10.8107 12.7088 10.8153 12.7275 10.834ZM10.1655 12.206L10.2355 12.234C10.2448 12.206 10.2401 12.192 10.2215 12.192C10.2121 12.192 10.2028 12.192 10.1935 12.192L10.1655 12.206ZM12.3635 9.77C12.3635 9.78867 12.3728 9.80733 12.3915 9.826H12.4055V9.784C12.3961 9.77467 12.3821 9.77 12.3635 9.77ZM10.9635 10.204C10.9448 10.232 10.9401 10.2507 10.9495 10.26C10.9588 10.2693 10.9681 10.2693 10.9775 10.26C10.9868 10.2507 10.9821 10.232 10.9635 10.204ZM12.2375 8.958H12.2515C12.2608 8.93 12.2561 8.916 12.2375 8.916L12.2095 8.944C12.2095 8.972 12.2188 8.97667 12.2375 8.958ZM11.2155 9.728L11.2435 9.784L11.2155 9.812V9.728ZM11.7195 15.23L11.7475 15.258C11.7568 15.2673 11.7615 15.272 11.7615 15.272C11.7708 15.2627 11.7755 15.2487 11.7755 15.23H11.7195ZM11.7055 14.026C11.6961 14.026 11.6868 14.0213 11.6775 14.012C11.6588 14.012 11.6495 14.0167 11.6495 14.026L11.6775 14.054C11.6961 14.054 11.7055 14.0447 11.7055 14.026ZM12.1535 13.382H12.1115C12.1115 13.41 12.1255 13.424 12.1535 13.424V13.382ZM12.4195 12.822C12.4101 12.794 12.3915 12.78 12.3635 12.78C12.3541 12.78 12.3495 12.7847 12.3495 12.794L12.3775 12.808C12.3961 12.808 12.4101 12.8127 12.4195 12.822ZM10.1795 11.898C10.2261 11.898 10.2588 11.8933 10.2775 11.884C10.2495 11.8653 10.2168 11.87 10.1795 11.898ZM10.4315 12.808L10.4175 12.794C10.4081 12.7847 10.3941 12.7893 10.3755 12.808V12.822H10.4035C10.4128 12.822 10.4175 12.822 10.4175 12.822C10.4175 12.8127 10.4221 12.808 10.4315 12.808ZM6.21745 14.516C6.21745 14.5347 6.22212 14.544 6.23145 14.544H6.24545C6.25479 14.5347 6.25945 14.5253 6.25945 14.516C6.25945 14.5067 6.25012 14.502 6.23145 14.502C6.22212 14.502 6.21745 14.5067 6.21745 14.516ZM10.1515 12.766C10.1421 12.8127 10.1468 12.8407 10.1655 12.85C10.1655 12.8127 10.1608 12.7847 10.1515 12.766ZM12.0975 15.286L12.1115 15.272C12.1208 15.272 12.1301 15.272 12.1395 15.272C12.1208 15.2533 12.0975 15.2533 12.0695 15.272H12.0835L12.0975 15.286ZM6.72145 15.216L6.76345 15.258C6.76345 15.2673 6.76812 15.2767 6.77745 15.286L6.76345 15.272C6.75412 15.272 6.74479 15.272 6.73545 15.272L6.72145 15.244V15.216ZM11.8595 15.062C11.8688 15.0713 11.8641 15.09 11.8455 15.118C11.8268 15.1087 11.8315 15.09 11.8595 15.062ZM10.1375 12.92H10.1935C10.1841 12.9013 10.1655 12.892 10.1375 12.892V12.92ZM6.63745 15.244H6.66545C6.67479 15.244 6.67945 15.2533 6.67945 15.272L6.66545 15.286V15.3L6.65145 15.286V15.258L6.63745 15.244ZM6.93145 15.608C6.92212 15.608 6.91745 15.6127 6.91745 15.622C6.91745 15.622 6.91279 15.622 6.90345 15.622C6.87545 15.622 6.87079 15.6127 6.88945 15.594L6.90345 15.58L6.93145 15.608ZM12.8115 10.596H12.8395C12.8208 10.5587 12.8021 10.5493 12.7835 10.568L12.8115 10.596ZM9.53545 13.242H9.47945C9.49812 13.2607 9.51679 13.27 9.53545 13.27V13.242ZM11.9575 14.516C11.9855 14.516 12.0041 14.5113 12.0135 14.502C11.9948 14.4833 11.9761 14.488 11.9575 14.516ZM12.4615 11.968H12.4895V11.982L12.5035 11.996L12.5175 11.982L12.5035 11.968H12.4895V11.94C12.4708 11.94 12.4615 11.9493 12.4615 11.968ZM9.63345 13.144L9.64745 13.158C9.65679 13.158 9.66612 13.1533 9.67545 13.144L9.64745 13.116C9.61945 13.116 9.61479 13.1253 9.63345 13.144ZM6.74945 15.566L6.77745 15.594C6.74012 15.5847 6.72612 15.566 6.73545 15.538C6.74479 15.538 6.74945 15.5473 6.74945 15.566ZM12.2095 13.102C12.1721 13.102 12.1488 13.1067 12.1395 13.116L12.1535 13.13L12.2095 13.102ZM11.1035 10.456L11.1315 10.428C11.1221 10.428 11.1175 10.428 11.1175 10.428C11.1175 10.4187 11.1128 10.414 11.1035 10.414C11.0755 10.414 11.0708 10.4233 11.0895 10.442C11.0895 10.4513 11.0941 10.456 11.1035 10.456ZM6.30145 14.656V14.642L6.28745 14.628C6.28745 14.6373 6.28279 14.6467 6.27345 14.656C6.26412 14.6653 6.26412 14.6747 6.27345 14.684C6.29212 14.684 6.30145 14.6747 6.30145 14.656ZM11.9015 13.55C11.8921 13.5593 11.8875 13.5733 11.8875 13.592C11.9061 13.592 11.9201 13.5873 11.9295 13.578H11.9155C11.9341 13.5593 11.9295 13.55 11.9015 13.55ZM11.6215 14.348C11.6028 14.348 11.5935 14.3527 11.5935 14.362H11.5795C11.5795 14.3713 11.5841 14.376 11.5935 14.376C11.6028 14.3853 11.6075 14.39 11.6075 14.39C11.6168 14.3807 11.6215 14.3667 11.6215 14.348ZM10.7675 10.932V11.016C10.7861 10.9787 10.7861 10.9507 10.7675 10.932ZM10.7255 10.778L10.6975 10.764C10.6881 10.764 10.6835 10.7687 10.6835 10.778C10.6835 10.7873 10.6928 10.792 10.7115 10.792C10.7115 10.7827 10.7161 10.778 10.7255 10.778ZM10.8235 12.85L10.8655 12.808C10.8281 12.808 10.8095 12.8173 10.8095 12.836C10.8188 12.836 10.8235 12.8407 10.8235 12.85ZM12.3215 9.686H12.3495L12.3635 9.672L12.3495 9.658H12.3355C12.3261 9.658 12.3215 9.66733 12.3215 9.686ZM10.1235 12.01C10.1141 12.0007 10.1095 11.9913 10.1095 11.982L10.0955 11.996H10.0815C10.0815 12.0147 10.0908 12.024 10.1095 12.024C10.1095 12.0147 10.1141 12.01 10.1235 12.01ZM11.8035 13.704H11.8315L11.8455 13.69C11.8361 13.6807 11.8268 13.676 11.8175 13.676C11.8081 13.676 11.8035 13.6853 11.8035 13.704ZM7.15545 12.696H7.09945C7.12745 12.724 7.14612 12.724 7.15545 12.696ZM12.3355 8.804L12.3495 8.776C12.3495 8.75733 12.3495 8.74333 12.3495 8.734C12.3308 8.74333 12.3261 8.76667 12.3355 8.804ZM12.3635 11.856L12.4195 11.828C12.3821 11.8187 12.3635 11.828 12.3635 11.856ZM11.5515 9.756L11.5655 9.742C11.5655 9.73267 11.5608 9.728 11.5515 9.728H11.5235C11.5235 9.73733 11.5281 9.742 11.5375 9.742L11.5515 9.756ZM12.0695 15.314C12.0508 15.2953 12.0368 15.286 12.0275 15.286C12.0275 15.3047 12.0415 15.314 12.0695 15.314ZM11.7475 15.328V15.258C11.7195 15.286 11.7195 15.3093 11.7475 15.328ZM10.1375 12.038V12.066C10.1561 12.066 10.1655 12.0567 10.1655 12.038H10.1375ZM6.32945 14.432C6.32012 14.4227 6.30612 14.418 6.28745 14.418V14.446H6.30145C6.31079 14.4367 6.32012 14.432 6.32945 14.432ZM12.3775 12.08L12.3635 12.066C12.3635 12.0567 12.3681 12.0473 12.3775 12.038C12.3868 12.038 12.3915 12.0427 12.3915 12.052C12.3915 12.0613 12.3868 12.0707 12.3775 12.08ZM7.42145 11.03C7.40279 11.03 7.38879 11.0347 7.37945 11.044L7.39345 11.058C7.41212 11.058 7.42145 11.0487 7.42145 11.03ZM12.4055 9.574C12.3961 9.58333 12.3915 9.59267 12.3915 9.602L12.4055 9.616C12.4148 9.616 12.4195 9.61133 12.4195 9.602C12.4195 9.59267 12.4148 9.588 12.4055 9.588C12.4055 9.588 12.4055 9.58333 12.4055 9.574ZM10.1935 12.402H10.2075L10.1935 12.388H10.1655V12.402C10.1748 12.4113 10.1841 12.4113 10.1935 12.402ZM11.6635 15.202C11.6821 15.1833 11.6915 15.1693 11.6915 15.16C11.6728 15.16 11.6635 15.174 11.6635 15.202ZM12.5315 10.47L12.5455 10.456C12.5455 10.4373 12.5361 10.428 12.5175 10.428C12.5268 10.4373 12.5315 10.4513 12.5315 10.47ZM12.0415 13.256L12.0975 13.298C12.0881 13.27 12.0695 13.256 12.0415 13.256ZM12.0975 13.48H12.1115V13.466C12.1021 13.466 12.0975 13.466 12.0975 13.466C12.0975 13.4567 12.0928 13.452 12.0835 13.452C12.0741 13.452 12.0788 13.4613 12.0975 13.48ZM6.32945 14.628L6.30145 14.656H6.31545L6.32945 14.67V14.628ZM12.6015 11.842V11.856C12.6015 11.8653 12.6061 11.8747 12.6155 11.884L12.6295 11.87L12.6155 11.856L12.6015 11.842ZM12.3775 15.524H12.3915V15.482C12.3821 15.482 12.3775 15.4867 12.3775 15.496V15.524ZM12.5035 10.54V10.582C12.5221 10.5633 12.5221 10.5493 12.5035 10.54ZM6.62345 15.244L6.63745 15.216C6.64679 15.2067 6.65612 15.202 6.66545 15.202L6.62345 15.244ZM11.3975 9.742C11.3975 9.714 11.4068 9.69533 11.4255 9.686L11.3975 9.742ZM6.60945 14.586L6.63745 14.558C6.60945 14.558 6.60012 14.5673 6.60945 14.586ZM12.7275 10.078C12.7461 10.0687 12.7601 10.0687 12.7695 10.078C12.7601 10.0873 12.7461 10.0873 12.7275 10.078ZM10.5995 11.394H10.6275L10.6135 11.366L10.5995 11.38V11.394ZM6.21745 14.446V14.502V14.446ZM11.9995 14.194V14.166C12.0088 14.166 12.0181 14.1613 12.0275 14.152C12.0181 14.1613 12.0088 14.1707 11.9995 14.18C11.9995 14.18 11.9995 14.1847 11.9995 14.194ZM12.6995 10.764C12.6808 10.7453 12.6715 10.75 12.6715 10.778C12.6808 10.7687 12.6901 10.764 12.6995 10.764ZM11.6915 12.836L11.7055 12.822L11.6915 12.808H11.6775C11.6775 12.8173 11.6821 12.8267 11.6915 12.836ZM12.1255 9.462L12.1115 9.434L12.0975 9.42V9.434L12.1255 9.462ZM11.9295 13.62L11.8735 13.648C11.9015 13.648 11.9201 13.6387 11.9295 13.62ZM11.8175 13.76H11.8455C11.8455 13.732 11.8361 13.7273 11.8175 13.746V13.76ZM12.6015 10.75H12.5875V10.778H12.6015V10.75ZM11.3835 9.938V9.952C11.3928 9.952 11.3975 9.952 11.3975 9.952C11.3975 9.94267 11.4021 9.938 11.4115 9.938V9.924C11.4021 9.924 11.3975 9.92867 11.3975 9.938C11.3975 9.938 11.3928 9.938 11.3835 9.938ZM10.2355 12.892H10.2215V12.906L10.2355 12.92C10.2448 12.92 10.2495 12.9153 10.2495 12.906L10.2355 12.892ZM9.15745 14.11L9.17145 14.096L9.15745 14.082H9.14345C9.15279 14.0913 9.15745 14.1007 9.15745 14.11ZM12.3915 8.818H12.3635L12.3775 8.832C12.3868 8.832 12.3915 8.82733 12.3915 8.818ZM12.7695 10.246V10.204L12.7835 10.232C12.7835 10.2413 12.7788 10.246 12.7695 10.246ZM12.3495 12.892H12.4055C12.3961 12.8827 12.3775 12.8827 12.3495 12.892ZM10.4315 12.906C10.4128 12.8873 10.4035 12.892 10.4035 12.92H10.4175C10.4268 12.92 10.4315 12.9153 10.4315 12.906ZM7.01545 12.71V12.738H7.02945C7.02945 12.7287 7.02479 12.724 7.01545 12.724C7.01545 12.724 7.01545 12.7193 7.01545 12.71ZM10.6415 11.226V11.254C10.6508 11.2447 10.6555 11.2353 10.6555 11.226V11.212L10.6415 11.226ZM12.5595 12.262C12.5408 12.2527 12.5268 12.248 12.5175 12.248C12.5268 12.2573 12.5408 12.262 12.5595 12.262ZM12.1395 13.186H12.1535C12.1535 13.1767 12.1488 13.172 12.1395 13.172H12.1255L12.1395 13.186ZM11.8455 15.244L11.8315 15.23H11.8175C11.8175 15.2393 11.8221 15.244 11.8315 15.244H11.8455ZM11.9155 15.23C11.9155 15.2487 11.9201 15.258 11.9295 15.258C11.9388 15.258 11.9435 15.2533 11.9435 15.244L11.9155 15.23ZM11.8595 14.222C11.8501 14.2127 11.8455 14.2033 11.8455 14.194C11.8548 14.194 11.8595 14.2033 11.8595 14.222ZM11.2015 12.738L11.1875 12.752L11.2015 12.766H11.2155C11.2061 12.7567 11.2015 12.7473 11.2015 12.738ZM12.6715 10.036V10.05C12.6715 10.0687 12.6668 10.078 12.6575 10.078C12.6575 10.0593 12.6621 10.0453 12.6715 10.036ZM12.5875 10.05V10.036H12.6015V10.064L12.5875 10.05ZM11.7755 13.004H11.8035L11.7895 12.99C11.7801 12.99 11.7755 12.9947 11.7755 13.004ZM11.6495 12.99H11.6775C11.6775 12.9807 11.6681 12.976 11.6495 12.976V12.99ZM10.6975 9.308H10.7395C10.7301 9.29867 10.7161 9.29867 10.6975 9.308ZM12.7975 9.784H12.8115C12.8115 9.77467 12.8068 9.77 12.7975 9.77H12.7835L12.7975 9.784ZM11.7195 9.21V9.238H11.7335C11.7335 9.22867 11.7288 9.224 11.7195 9.224C11.7195 9.224 11.7195 9.21933 11.7195 9.21ZM10.9775 9.308V9.322C10.9868 9.322 10.9915 9.31733 10.9915 9.308V9.294L10.9775 9.308ZM12.5175 12.332C12.5081 12.332 12.5035 12.3367 12.5035 12.346C12.5128 12.346 12.5175 12.3507 12.5175 12.36C12.5175 12.3507 12.5221 12.346 12.5315 12.346L12.5175 12.332ZM6.58145 14.446C6.58145 14.4367 6.57679 14.432 6.56745 14.432V14.46L6.58145 14.446ZM12.4335 12.696L12.4475 12.682L12.4335 12.668L12.4195 12.682C12.4288 12.682 12.4335 12.6867 12.4335 12.696ZM11.8455 15.244V15.286C11.8548 15.2673 11.8548 15.2533 11.8455 15.244ZM12.1815 15.636V15.664C12.1815 15.6733 12.1861 15.678 12.1955 15.678C12.1955 15.6687 12.1908 15.6547 12.1815 15.636ZM10.1375 12.108L10.0955 12.08C10.1048 12.0987 10.1188 12.108 10.1375 12.108ZM9.56345 13.046V13.018C9.55412 13.0273 9.54945 13.0367 9.54945 13.046H9.56345ZM6.49745 15.216H6.48345V15.244C6.49279 15.2347 6.49745 15.2253 6.49745 15.216ZM9.21345 13.774V13.802H9.22745C9.22745 13.7927 9.22279 13.7833 9.21345 13.774ZM11.9015 9.434L11.8875 9.42H11.8735L11.8875 9.434H11.9015ZM7.11345 12.612L7.12745 12.598C7.11812 12.598 7.11345 12.5933 7.11345 12.584L7.09945 12.598L7.11345 12.612ZM12.2515 9.042L12.2375 9.056L12.2515 9.07C12.2515 9.06067 12.2561 9.056 12.2655 9.056L12.2515 9.042ZM6.55345 14.054H6.52545L6.53945 14.068L6.55345 14.054ZM10.5575 12.766C10.5575 12.7567 10.5621 12.752 10.5715 12.752H10.5435C10.5435 12.7613 10.5481 12.766 10.5575 12.766ZM13.3155 14.6L13.3015 14.586L13.2875 14.6H13.3015H13.3155ZM12.2795 12.696V12.682L12.2655 12.668V12.682C12.2655 12.6913 12.2701 12.696 12.2795 12.696ZM10.7255 10.848H10.7115L10.6975 10.862H10.7115C10.7208 10.862 10.7255 10.8573 10.7255 10.848ZM10.7955 9.42C10.7861 9.42 10.7815 9.42 10.7815 9.42C10.7815 9.41067 10.7768 9.406 10.7675 9.406V9.42H10.7815H10.7955ZM6.32945 14.488H6.30145L6.31545 14.502C6.32479 14.502 6.32945 14.4973 6.32945 14.488ZM9.64745 13.102C9.64745 13.1113 9.65212 13.116 9.66145 13.116C9.67079 13.116 9.67545 13.1113 9.67545 13.102H9.64745ZM6.25945 14.628V14.6L6.24545 14.614V14.628H6.25945ZM12.4475 12.346H12.4335V12.36C12.4428 12.36 12.4475 12.3553 12.4475 12.346ZM6.20345 14.614H6.18945V14.628C6.19879 14.628 6.20345 14.6233 6.20345 14.614ZM6.59545 15.16H6.63745H6.59545ZM10.1095 11.814L10.0955 11.828V11.842L10.1095 11.814ZM6.90345 15.328V15.286V15.328ZM10.7815 10.75H10.7955V10.736C10.7861 10.736 10.7815 10.7407 10.7815 10.75ZM9.61945 13.018H9.63345C9.63345 13.0087 9.62879 13.004 9.61945 13.004V13.018ZM13.3295 14.502H13.3155V14.516H13.3295V14.502ZM10.7675 10.68L10.7535 10.666C10.7535 10.6753 10.7488 10.68 10.7395 10.68H10.7535H10.7675ZM11.8875 14.278H11.8735C11.8735 14.2687 11.8688 14.264 11.8595 14.264H11.8735C11.8828 14.264 11.8875 14.2687 11.8875 14.278ZM11.8875 13.284H11.8735V13.298C11.8828 13.298 11.8875 13.2933 11.8875 13.284ZM12.1535 8.958H12.1675V8.944H12.1535V8.958ZM11.7475 13.816C11.7381 13.816 11.7335 13.8207 11.7335 13.83C11.7428 13.83 11.7475 13.8253 11.7475 13.816ZM6.46945 14.838C6.46012 14.838 6.45545 14.8427 6.45545 14.852C6.46479 14.852 6.46945 14.8473 6.46945 14.838ZM11.1175 9.392V9.378H11.1035V9.392H11.1175ZM11.8455 13.004H11.8315V13.018H11.8455V13.004ZM11.6635 9.168V9.182H11.6775C11.6775 9.17267 11.6728 9.168 11.6635 9.168ZM10.7535 13.032H10.7395V13.046H10.7535V13.032ZM10.1375 12.472V12.458H10.1235C10.1235 12.4673 10.1281 12.472 10.1375 12.472ZM11.6075 14.838V14.796V14.838ZM11.7195 12.934V12.948H11.7335C11.7335 12.9387 11.7288 12.934 11.7195 12.934ZM11.6495 14.138H11.6355V14.152C11.6448 14.152 11.6495 14.1473 11.6495 14.138ZM9.42345 13.424H9.40945V13.438C9.41879 13.438 9.42345 13.4333 9.42345 13.424ZM6.48345 14.334V14.348H6.49745C6.49745 14.3387 6.49279 14.334 6.48345 14.334ZM12.7275 10.834C12.7088 10.834 12.6948 10.8293 12.6855 10.82C12.7041 10.82 12.7181 10.8247 12.7275 10.834ZM12.7275 10.246L12.7135 10.26V10.246L12.7275 10.232V10.246ZM12.7835 10.904V10.89H12.7695V10.904H12.7835ZM12.7695 9.868L12.7835 9.854V9.882L12.7695 9.868ZM12.6155 9.77V9.784H12.6015V9.77H12.6155ZM12.3775 15.706H12.4055L12.3915 15.692L12.3775 15.706ZM12.2515 12.906H12.2655V12.892H12.2515V12.906ZM12.4615 12.234H12.4475L12.4615 12.22V12.234ZM9.45145 13.704H9.42345H9.45145ZM12.7555 9.672V9.686L12.7695 9.672H12.7555ZM11.7055 9.406H11.7195V9.392L11.7055 9.406ZM10.9495 9.238V9.252H10.9635C10.9635 9.24267 10.9588 9.238 10.9495 9.238ZM11.2015 10.442V10.456C11.2108 10.456 11.2155 10.4513 11.2155 10.442H11.2015ZM6.55345 14.642V14.614L6.53945 14.628L6.55345 14.642ZM9.28345 13.802V13.788H9.26945L9.28345 13.802ZM6.59545 15.16V15.174C6.59545 15.1833 6.59079 15.188 6.58145 15.188C6.59079 15.1787 6.59545 15.1693 6.59545 15.16ZM9.78745 12.654L9.81545 12.682C9.79679 12.682 9.78745 12.6727 9.78745 12.654ZM12.1815 13.508H12.1675V13.522C12.1768 13.522 12.1815 13.5173 12.1815 13.508ZM9.73145 13.046H9.74545C9.74545 13.0367 9.74079 13.032 9.73145 13.032V13.046ZM11.0615 9.378H11.0475V9.392C11.0568 9.392 11.0615 9.38733 11.0615 9.378ZM12.2515 9.098H12.2375V9.112C12.2468 9.112 12.2515 9.10733 12.2515 9.098ZM9.53545 13.746H9.52145V13.76C9.53079 13.76 9.53545 13.7553 9.53545 13.746ZM12.2655 12.486V12.472C12.2561 12.472 12.2515 12.4767 12.2515 12.486H12.2655ZM11.5375 9.42V9.406H11.5235L11.5375 9.42ZM6.70745 14.46V14.446H6.69345L6.70745 14.46ZM6.39945 14.446H6.38545V14.46L6.39945 14.446ZM11.8175 14.866V14.852H11.8035C11.8035 14.8613 11.8081 14.866 11.8175 14.866ZM12.7415 10.148H12.7555V10.162L12.7415 10.148ZM12.5875 11.226H12.5735V11.24L12.5875 11.226ZM9.74545 13.088V13.102H9.75945L9.74545 13.088ZM9.40945 13.774H9.42345V13.76L9.40945 13.774ZM12.5595 10.148H12.5455V10.134C12.5548 10.134 12.5595 10.1387 12.5595 10.148ZM12.1255 15.314C12.1255 15.3047 12.1208 15.3 12.1115 15.3H12.0975C12.1068 15.3093 12.1161 15.314 12.1255 15.314ZM6.45545 14.894L6.46945 14.88H6.45545V14.894ZM12.7975 10.414C12.7975 10.3953 12.8021 10.3813 12.8115 10.372L12.7975 10.386C12.7975 10.3953 12.7975 10.4047 12.7975 10.414ZM12.8255 10.274L12.8115 10.288V10.274H12.8255ZM11.8035 14.334H11.8175L11.8035 14.348V14.334ZM7.00145 15.51V15.496H6.98745L7.00145 15.51ZM10.9215 9.462V9.476L10.9355 9.462H10.9215ZM12.7135 11.058H12.6995V11.072L12.7135 11.058ZM11.9995 14.11L11.9855 14.096H11.9995V14.11ZM10.2215 12.038H10.2355V12.024L10.2215 12.038ZM11.6215 12.85L11.6355 12.864V12.85H11.6215ZM12.4195 12.752H12.4335V12.738L12.4195 12.752ZM6.35745 14.362L6.37145 14.348H6.35745V14.362ZM11.8175 15.286H11.8455C11.8361 15.2767 11.8268 15.2767 11.8175 15.286ZM11.9015 14.95L11.8875 14.936V14.95H11.9015ZM11.6215 15.174L11.6635 15.202C11.6448 15.1833 11.6308 15.174 11.6215 15.174ZM11.8735 9.266L11.8595 9.252L11.8735 9.266ZM11.7195 9.322L11.7055 9.308V9.322H11.7195ZM6.34345 14.978V14.964H6.32945L6.34345 14.978ZM10.0815 13.004V13.018L10.0955 13.032C10.0861 13.0227 10.0815 13.0133 10.0815 13.004ZM10.9075 12.836V12.822H10.8935L10.9075 12.836ZM10.7395 12.766V12.78L10.7535 12.766H10.7395ZM10.1095 12.402L10.1235 12.416V12.402H10.1095ZM9.46545 13.704C9.46545 13.7227 9.47012 13.732 9.47945 13.732L9.46545 13.718V13.704ZM12.4755 15.566V15.552H12.4615L12.4755 15.566ZM10.1515 12.262V12.248V12.262ZM8.83545 14.782H8.84945H8.83545ZM6.44145 14.698V14.684V14.698ZM11.7055 14.768H11.7195C11.7101 14.7587 11.7055 14.7587 11.7055 14.768ZM6.56745 15.454H6.58145V15.468L6.56745 15.454ZM10.5295 11.366V11.352H10.5155L10.5295 11.366ZM15.4939 15.398C15.4752 15.4073 15.4565 15.4213 15.4379 15.44C15.4192 15.4493 15.4052 15.454 15.3959 15.454C15.3305 15.482 15.2652 15.5193 15.1999 15.566C15.1625 15.5847 15.1299 15.594 15.1019 15.594C14.9525 15.6407 14.8592 15.6687 14.8219 15.678C14.7659 15.6873 14.6772 15.692 14.5559 15.692L14.3039 15.65C14.2852 15.6407 14.2479 15.6313 14.1919 15.622C14.1452 15.6127 14.1125 15.5987 14.0939 15.58L14.0099 15.538C13.8605 15.454 13.7439 15.3513 13.6599 15.23C13.6319 15.202 13.5992 15.16 13.5619 15.104L13.4919 14.978C13.4919 14.9687 13.4872 14.9547 13.4779 14.936C13.4312 14.8613 13.4032 14.7867 13.3939 14.712L13.3379 14.488C13.3379 14.4693 13.3379 14.4413 13.3379 14.404C13.3285 14.3667 13.3239 14.3387 13.3239 14.32C13.3145 14.2547 13.3099 14.1613 13.3099 14.04C13.3099 13.9653 13.3192 13.8533 13.3379 13.704C13.3379 13.6853 13.3425 13.6573 13.3519 13.62C13.3519 13.5827 13.3519 13.55 13.3519 13.522C13.3705 13.41 13.3892 13.3307 13.4079 13.284L13.4359 13.2C13.4452 13.116 13.4779 13.0087 13.5339 12.878C13.5712 12.7473 13.5992 12.6727 13.6179 12.654L13.7159 12.416L13.8279 12.206C13.9305 12.0473 13.9912 11.9587 14.0099 11.94C14.0472 11.884 14.1125 11.8 14.2059 11.688L14.3319 11.562C14.3785 11.5153 14.4485 11.4547 14.5419 11.38C14.7005 11.2493 14.8732 11.1513 15.0599 11.086L15.3399 11.002C15.4799 10.974 15.6152 10.96 15.7459 10.96C15.8112 10.96 15.8905 10.9693 15.9839 10.988C15.9932 10.988 16.0072 10.9927 16.0259 11.002C16.0445 11.002 16.0585 11.002 16.0679 11.002C16.2359 11.0767 16.3385 11.1233 16.3759 11.142L16.5439 11.282L16.6839 11.436L16.7259 11.478C16.7352 11.4593 16.7399 11.4407 16.7399 11.422L16.8239 11.17C16.8332 11.1327 16.8565 11.086 16.8939 11.03C16.9312 10.9647 16.9965 10.932 17.0899 10.932C17.1272 10.9227 17.1925 10.918 17.2859 10.918H17.4679C17.5332 10.918 17.5892 10.932 17.6359 10.96C17.6825 10.9787 17.7012 11.0067 17.6919 11.044V11.17L17.6359 11.38C17.6265 11.408 17.6079 11.4733 17.5799 11.576L17.5519 11.646L17.4959 11.856L17.4399 11.996L17.3699 12.234L17.2859 12.528L17.2159 12.738L17.1319 13.004L17.0759 13.214C17.0665 13.2327 17.0525 13.2653 17.0339 13.312C17.0245 13.3587 17.0152 13.3913 17.0059 13.41C16.9872 13.4847 16.9685 13.55 16.9499 13.606V13.634C16.9125 13.718 16.8892 13.7927 16.8799 13.858L16.7119 14.418L16.6559 14.6C16.6559 14.6093 16.6419 14.642 16.6139 14.698C16.5952 14.754 16.5812 14.8007 16.5719 14.838C16.5532 14.8847 16.5205 14.9687 16.4739 15.09C16.4365 15.2113 16.4039 15.3047 16.3759 15.37C16.3385 15.4447 16.3152 15.5007 16.3059 15.538C16.2872 15.5753 16.2779 15.6033 16.2779 15.622C16.2779 15.6313 16.2872 15.636 16.3059 15.636L16.3479 15.608C16.4972 15.5147 16.6092 15.4353 16.6839 15.37L16.8239 15.244L16.9779 15.09L17.1039 14.936L17.3139 14.614L17.4539 14.334L17.5379 14.152C17.5565 14.1333 17.5659 14.1193 17.5659 14.11C17.5659 14.1007 17.5705 14.082 17.5799 14.054C17.5985 14.0167 17.6125 13.9887 17.6219 13.97L17.6639 13.872C17.7012 13.7507 17.7245 13.6713 17.7339 13.634C17.7339 13.6247 17.7572 13.5873 17.8039 13.522L17.8459 13.48C17.9205 13.4613 17.9719 13.452 17.9999 13.452L18.2239 13.494C18.2985 13.5033 18.3732 13.5453 18.4479 13.62C18.4759 13.648 18.4899 13.704 18.4899 13.788C18.4712 13.8627 18.4525 13.9233 18.4339 13.97L18.3079 14.278L18.1959 14.516L18.0699 14.754L17.9439 14.964L17.7339 15.258C17.6965 15.314 17.6312 15.398 17.5379 15.51C17.5285 15.5287 17.5145 15.5473 17.4959 15.566C17.4772 15.5753 17.4585 15.5893 17.4399 15.608C17.4212 15.6267 17.4072 15.6407 17.3979 15.65L17.3699 15.678C17.3605 15.6967 17.3465 15.7153 17.3279 15.734C17.3092 15.7527 17.2859 15.776 17.2579 15.804C17.2299 15.8227 17.2112 15.8367 17.2019 15.846C17.1925 15.8553 17.1319 15.902 17.0199 15.986C17.0105 15.9953 16.9639 16.028 16.8799 16.084L16.7259 16.182L16.7119 16.196C16.7025 16.196 16.6932 16.196 16.6839 16.196L16.6419 16.224C16.5299 16.2893 16.3992 16.3453 16.2499 16.392L16.0819 16.448L15.8719 16.49C15.8625 16.4993 15.8532 16.5133 15.8439 16.532L15.8299 16.56L15.7739 16.644C15.6712 16.812 15.6012 16.9193 15.5639 16.966C15.5359 17.0127 15.4425 17.1247 15.2839 17.302L15.2419 17.344L15.1299 17.442L14.9199 17.61C14.8919 17.638 14.8592 17.6567 14.8219 17.666C14.7099 17.7407 14.5652 17.8013 14.3879 17.848H14.3599C14.3412 17.8573 14.3272 17.862 14.3179 17.862C14.2619 17.8807 14.2105 17.89 14.1639 17.89C14.1452 17.89 14.1219 17.89 14.0939 17.89C14.0659 17.8993 14.0472 17.904 14.0379 17.904H13.8839C13.8745 17.904 13.8512 17.8993 13.8139 17.89C13.7765 17.89 13.7485 17.89 13.7299 17.89L13.5619 17.848C13.4312 17.8013 13.3145 17.7407 13.2119 17.666C13.1372 17.6193 13.0672 17.5447 13.0019 17.442L12.9319 17.344C12.9132 17.3067 12.8945 17.2413 12.8759 17.148C12.8479 17.0547 12.8525 16.9427 12.8899 16.812C12.8992 16.7 12.9459 16.5973 13.0299 16.504C13.0672 16.4293 13.1279 16.3593 13.2119 16.294C13.3052 16.2193 13.3799 16.168 13.4359 16.14L13.5899 16.084L13.6739 16.042C13.8419 15.986 14.0099 15.944 14.1779 15.916L14.5839 15.86C14.6585 15.86 14.7145 15.8553 14.7519 15.846H14.9759C15.0225 15.8367 15.0925 15.832 15.1859 15.832H15.2979C15.3165 15.832 15.3305 15.8227 15.3399 15.804C15.3492 15.7853 15.3725 15.734 15.4099 15.65C15.4285 15.6127 15.4472 15.5567 15.4659 15.482C15.4845 15.4633 15.4939 15.4353 15.4939 15.398ZM14.2199 13.886C14.2199 14.0353 14.2245 14.1427 14.2339 14.208C14.2619 14.32 14.3039 14.432 14.3599 14.544C14.4159 14.6467 14.4952 14.726 14.5979 14.782C14.6632 14.8193 14.7379 14.838 14.8219 14.838C14.9059 14.838 15.0132 14.8053 15.1439 14.74L15.2279 14.684C15.2652 14.6653 15.3305 14.6093 15.4239 14.516L15.6479 14.264C15.6479 14.2547 15.6665 14.2313 15.7039 14.194C15.7412 14.1473 15.7692 14.11 15.7879 14.082C15.7972 14.0633 15.8159 14.0353 15.8439 13.998C15.8719 13.9513 15.8952 13.914 15.9139 13.886C15.9325 13.8487 15.9465 13.816 15.9559 13.788L16.1659 13.382L16.2359 13.158L16.2639 13.046C16.2639 13.018 16.2639 12.9853 16.2639 12.948C16.2732 12.9013 16.2779 12.8687 16.2779 12.85C16.2965 12.7287 16.2965 12.612 16.2779 12.5C16.2592 12.3413 16.2172 12.2013 16.1519 12.08C16.1519 12.0613 16.1425 12.0427 16.1239 12.024C16.0492 11.9307 15.9979 11.87 15.9699 11.842C15.9139 11.7953 15.8579 11.7673 15.8019 11.758C15.6899 11.7207 15.5499 11.7207 15.3819 11.758C15.3259 11.7767 15.2512 11.814 15.1579 11.87C15.0645 11.9167 14.9525 12.0147 14.8219 12.164C14.7472 12.2573 14.6959 12.332 14.6679 12.388L14.6259 12.472C14.5792 12.5467 14.5279 12.6587 14.4719 12.808C14.4345 12.8733 14.4019 12.962 14.3739 13.074L14.3039 13.256C14.2852 13.368 14.2665 13.4613 14.2479 13.536C14.2199 13.676 14.2105 13.7927 14.2199 13.886ZM16.7399 12.374H16.7539L16.7959 12.332C16.7959 12.3507 16.7819 12.3647 16.7539 12.374L16.7679 12.388C16.7865 12.3973 16.8052 12.3973 16.8239 12.388H16.8379C16.8379 12.416 16.8472 12.4207 16.8659 12.402L16.8799 12.388H16.9079C16.9172 12.4067 16.9359 12.416 16.9639 12.416C16.9732 12.416 16.9872 12.4207 17.0059 12.43C17.0245 12.43 17.0385 12.43 17.0479 12.43L17.0899 12.36C17.0619 12.3413 17.0572 12.304 17.0759 12.248L17.0899 12.234C17.0899 12.2247 17.0899 12.2153 17.0899 12.206C17.0805 12.178 17.0759 12.136 17.0759 12.08C17.0572 12.0987 17.0385 12.1033 17.0199 12.094L17.0479 12.066L17.0199 12.052C17.0105 12.052 17.0012 12.0473 16.9919 12.038L16.9779 12.024L16.9499 12.01C16.9499 12.0007 16.9639 11.996 16.9919 11.996V12.038C17.0105 12.038 17.0199 12.0287 17.0199 12.01C17.0012 11.982 16.9965 11.9587 17.0059 11.94H17.0619V11.884L17.0899 11.912C17.0992 11.9027 17.1132 11.898 17.1319 11.898C17.1505 11.8887 17.1599 11.8747 17.1599 11.856V11.8H17.2719C17.2625 11.7627 17.2252 11.7347 17.1599 11.716C17.1412 11.7347 17.1319 11.7487 17.1319 11.758C17.1319 11.786 17.1225 11.7907 17.1039 11.772V11.744C17.1132 11.716 17.1319 11.6973 17.1599 11.688C17.1785 11.6693 17.1972 11.6647 17.2159 11.674C17.2345 11.674 17.2439 11.6647 17.2439 11.646C17.2345 11.6367 17.2299 11.6273 17.2299 11.618C17.2299 11.5993 17.2299 11.5853 17.2299 11.576V11.534C17.2112 11.4967 17.1925 11.4967 17.1739 11.534L17.1459 11.562C17.1272 11.562 17.1132 11.5573 17.1039 11.548L17.0899 11.534H17.1179L17.1319 11.52H17.1459L17.1179 11.436H17.1319C17.1412 11.408 17.1319 11.3847 17.1039 11.366C17.0945 11.394 17.0992 11.4173 17.1179 11.436C17.0805 11.436 17.0619 11.422 17.0619 11.394C17.0619 11.3847 17.0572 11.38 17.0479 11.38V11.464L17.0059 11.492C17.0059 11.4827 16.9965 11.478 16.9779 11.478C16.9779 11.4967 16.9685 11.5153 16.9499 11.534L16.8939 11.576C16.8752 11.5573 16.8612 11.548 16.8519 11.548V11.618C16.9079 11.5993 16.9452 11.59 16.9639 11.59C16.9825 11.6087 16.9872 11.6273 16.9779 11.646C16.9219 11.6273 16.8845 11.6227 16.8659 11.632L16.8519 11.618C16.8425 11.618 16.8239 11.604 16.7959 11.576C16.7772 11.5293 16.7492 11.5247 16.7119 11.562L16.7399 11.618V11.646H16.6699L16.6139 11.576C16.6045 11.5853 16.5859 11.59 16.5579 11.59C16.5392 11.5807 16.5112 11.576 16.4739 11.576C16.4552 11.576 16.4412 11.5713 16.4319 11.562H16.4179H16.3479V11.576L16.3619 11.562H16.3479C16.3105 11.5713 16.2639 11.5667 16.2079 11.548C16.1985 11.548 16.1939 11.5387 16.1939 11.52H16.2219C16.2219 11.492 16.2312 11.464 16.2499 11.436C16.2312 11.436 16.2219 11.4267 16.2219 11.408L16.1099 11.352L16.0959 11.366V11.38C16.1239 11.3893 16.1332 11.4033 16.1239 11.422L16.1099 11.436L16.1519 11.478C16.1425 11.478 16.1379 11.4873 16.1379 11.506L16.1519 11.52C16.1612 11.5387 16.1659 11.5527 16.1659 11.562C16.1472 11.59 16.1565 11.604 16.1939 11.604L16.2219 11.576C16.2219 11.5947 16.2125 11.604 16.1939 11.604L16.2359 11.632C16.2172 11.66 16.1939 11.6833 16.1659 11.702V11.716C16.1752 11.716 16.1892 11.7253 16.2079 11.744C16.2079 11.772 16.2125 11.7953 16.2219 11.814L16.2499 11.828C16.2592 11.828 16.2639 11.8327 16.2639 11.842C16.2732 11.8513 16.2825 11.8607 16.2919 11.87C16.3012 11.8793 16.3105 11.8887 16.3199 11.898C16.3105 11.9073 16.3059 11.9213 16.3059 11.94C16.3245 11.9587 16.3385 11.968 16.3479 11.968C16.3759 11.996 16.3712 12.0147 16.3339 12.024C16.3339 12.0333 16.3292 12.038 16.3199 12.038L16.3899 12.066L16.4039 12.052H16.4319C16.4319 12.0613 16.4272 12.0753 16.4179 12.094C16.4179 12.1127 16.4132 12.1267 16.4039 12.136C16.3945 12.1453 16.3899 12.1547 16.3899 12.164C16.3992 12.1733 16.4085 12.178 16.4179 12.178L16.4739 12.22L16.4599 12.234C16.4412 12.2527 16.4365 12.276 16.4459 12.304V12.318C16.4459 12.2993 16.4645 12.2713 16.5019 12.234C16.5205 12.2247 16.5439 12.22 16.5719 12.22C16.5812 12.22 16.5859 12.2247 16.5859 12.234C16.5952 12.2433 16.5952 12.2527 16.5859 12.262C16.5859 12.2713 16.5765 12.2853 16.5579 12.304C16.5299 12.3227 16.5205 12.3507 16.5299 12.388H16.5019C16.5112 12.3973 16.5205 12.3973 16.5299 12.388L16.5999 12.444H16.6559C16.6652 12.444 16.6699 12.444 16.6699 12.444L16.6979 12.458C16.7352 12.4487 16.7492 12.4207 16.7399 12.374ZM14.9199 16.546H14.7239C14.5745 16.5647 14.4579 16.574 14.3739 16.574C14.2899 16.5833 14.1639 16.6067 13.9959 16.644C13.9212 16.672 13.8605 16.7047 13.8139 16.742C13.7392 16.798 13.7299 16.8633 13.7859 16.938C13.7952 16.9753 13.8232 17.0033 13.8699 17.022C14.0005 17.0593 14.0939 17.0733 14.1499 17.064C14.3179 17.0547 14.4812 16.9847 14.6399 16.854C14.6679 16.8447 14.7239 16.7933 14.8079 16.7C14.8359 16.6627 14.8732 16.6113 14.9199 16.546ZM16.4599 13.592L16.4459 13.606V13.62H16.4739C16.4739 13.6293 16.4972 13.6433 16.5439 13.662L16.5159 13.676C16.4692 13.704 16.4552 13.7413 16.4739 13.788V13.802C16.4739 13.8207 16.4692 13.83 16.4599 13.83C16.4599 13.8393 16.4505 13.844 16.4319 13.844L16.4039 13.83L16.3899 13.816L16.4319 13.774L16.3619 13.718C16.3432 13.7273 16.3339 13.746 16.3339 13.774C16.3152 13.774 16.3059 13.7647 16.3059 13.746C16.2965 13.746 16.2872 13.7507 16.2779 13.76H16.2639H16.2079L16.2359 13.802C16.2452 13.7927 16.2592 13.7927 16.2779 13.802C16.2965 13.8113 16.3105 13.816 16.3199 13.816V13.774L16.3479 13.83C16.3479 13.8393 16.3525 13.858 16.3619 13.886C16.3712 13.914 16.3712 13.9373 16.3619 13.956V13.998C16.3899 13.998 16.4085 13.9933 16.4179 13.984C16.4272 13.9933 16.4319 14.0027 16.4319 14.012L16.4179 14.026C16.3992 14.026 16.3899 14.0307 16.3899 14.04L16.4179 14.068C16.4272 14.0867 16.4365 14.1007 16.4459 14.11C16.4739 14.1007 16.4879 14.0867 16.4879 14.068V14.026C16.4785 13.998 16.4785 13.9747 16.4879 13.956V13.928C16.4879 13.9 16.4785 13.8953 16.4599 13.914L16.4879 13.858C16.4972 13.8393 16.5019 13.8207 16.5019 13.802V13.774L16.5299 13.76H16.5859C16.5952 13.76 16.5999 13.7507 16.5999 13.732L16.5719 13.704L16.6139 13.634L16.5719 13.606C16.5439 13.6153 16.5112 13.62 16.4739 13.62C16.4739 13.6013 16.4692 13.592 16.4599 13.592ZM15.6619 15.104V15.09C15.6712 15.0807 15.6759 15.0713 15.6759 15.062C15.6759 15.0527 15.6852 15.0387 15.7039 15.02L15.6199 14.978C15.6012 14.978 15.5732 14.9687 15.5359 14.95C15.5359 14.9407 15.5639 14.9173 15.6199 14.88L15.5639 14.852C15.5545 14.8427 15.5499 14.8287 15.5499 14.81H15.5359C15.5359 14.8193 15.5312 14.8333 15.5219 14.852C15.5032 14.8613 15.4892 14.866 15.4799 14.866C15.4985 14.8847 15.5032 14.9033 15.4939 14.922C15.4752 14.9407 15.4565 14.9407 15.4379 14.922C15.4285 14.9127 15.4192 14.9127 15.4099 14.922C15.4005 14.9313 15.3959 14.9407 15.3959 14.95L15.4239 14.992C15.4145 15.0107 15.4099 15.034 15.4099 15.062L15.4379 15.09C15.4565 15.1087 15.4565 15.1273 15.4379 15.146C15.4379 15.1647 15.4425 15.1787 15.4519 15.188L15.4939 15.132H15.5499V15.104C15.5592 15.0947 15.5639 15.0807 15.5639 15.062C15.5639 15.0433 15.5779 15.034 15.6059 15.034C15.6245 15.034 15.6385 15.0433 15.6479 15.062C15.6479 15.0713 15.6525 15.0853 15.6619 15.104C15.6525 15.104 15.6479 15.1133 15.6479 15.132L15.6619 15.146V15.104ZM13.7999 13.62C13.8092 13.6107 13.8045 13.6013 13.7859 13.592C13.8045 13.5547 13.8139 13.5267 13.8139 13.508L13.7719 13.466H13.8279C13.8372 13.4567 13.8465 13.452 13.8559 13.452V13.438L13.7859 13.396C13.7392 13.368 13.7065 13.382 13.6879 13.438L13.6739 13.452C13.6645 13.4707 13.6599 13.4847 13.6599 13.494L13.6879 13.522C13.6972 13.522 13.7019 13.5173 13.7019 13.508L13.7299 13.536C13.7205 13.5453 13.7065 13.5547 13.6879 13.564L13.6739 13.578C13.6552 13.634 13.6645 13.676 13.7019 13.704C13.7205 13.7133 13.7392 13.7087 13.7579 13.69L13.7299 13.662C13.7205 13.6527 13.7065 13.648 13.6879 13.648C13.6972 13.6387 13.7065 13.634 13.7159 13.634L13.7299 13.62L13.7719 13.592H13.7859L13.7999 13.62ZM15.3679 16.434L15.3539 16.42V16.476C15.3539 16.4853 15.3445 16.4993 15.3259 16.518C15.3445 16.5273 15.3492 16.5507 15.3399 16.588L15.2979 16.546C15.2885 16.546 15.2792 16.5507 15.2699 16.56L15.3119 16.602C15.3025 16.602 15.2885 16.6113 15.2699 16.63C15.2605 16.6393 15.2559 16.658 15.2559 16.686L15.3119 16.658L15.3259 16.672C15.3445 16.6813 15.3539 16.6907 15.3539 16.7V16.714L15.3399 16.728C15.3399 16.7467 15.3445 16.756 15.3539 16.756H15.3819C15.4099 16.728 15.4285 16.714 15.4379 16.714L15.4099 16.658L15.4239 16.644H15.4379V16.602H15.3539C15.3725 16.6113 15.3819 16.5973 15.3819 16.56C15.4192 16.5507 15.4565 16.5507 15.4939 16.56C15.4845 16.5507 15.4799 16.5413 15.4799 16.532C15.4705 16.5227 15.4565 16.518 15.4379 16.518C15.4099 16.518 15.3959 16.5087 15.3959 16.49C15.3959 16.4527 15.3865 16.434 15.3679 16.434ZM15.9279 14.614L15.9419 14.628C15.9419 14.6467 15.9419 14.6607 15.9419 14.67C15.9512 14.642 15.9465 14.6187 15.9279 14.6C15.9185 14.5907 15.9139 14.5767 15.9139 14.558C15.8952 14.5393 15.8812 14.53 15.8719 14.53C15.8625 14.53 15.8579 14.5393 15.8579 14.558C15.8485 14.5767 15.8439 14.6047 15.8439 14.642C15.8345 14.642 15.8252 14.6467 15.8159 14.656C15.8065 14.6653 15.8019 14.6747 15.8019 14.684C15.8112 14.684 15.8205 14.684 15.8299 14.684C15.8485 14.6747 15.8625 14.67 15.8719 14.67L15.8859 14.684C15.8952 14.7027 15.8952 14.7167 15.8859 14.726C15.8859 14.7353 15.8859 14.74 15.8859 14.74L15.8719 14.768C15.8812 14.7867 15.8765 14.8053 15.8579 14.824V14.852L15.9139 14.894L15.9699 14.838C15.9885 14.838 15.9979 14.824 15.9979 14.796H15.9419C15.9325 14.796 15.9232 14.7913 15.9139 14.782C15.9139 14.7727 15.9139 14.768 15.9139 14.768L15.9279 14.74C15.9279 14.7307 15.9325 14.7213 15.9419 14.712H15.9559V14.698C15.9372 14.698 15.9092 14.6887 15.8719 14.67C15.8719 14.6607 15.8812 14.6467 15.8999 14.628C15.9092 14.628 15.9185 14.6233 15.9279 14.614ZM15.6899 14.824H15.7319C15.7412 14.8147 15.7412 14.81 15.7319 14.81C15.7692 14.8007 15.7925 14.7773 15.8019 14.74C15.7739 14.6933 15.7365 14.67 15.6899 14.67C15.6899 14.6793 15.6899 14.684 15.6899 14.684L15.7039 14.712C15.6852 14.7213 15.6525 14.726 15.6059 14.726L15.6199 14.74C15.6292 14.7587 15.6385 14.768 15.6479 14.768C15.6759 14.7867 15.6899 14.8053 15.6899 14.824ZM16.8519 12.276H16.8799C16.8799 12.2573 16.8845 12.2433 16.8939 12.234H16.9359C16.9265 12.2433 16.9219 12.2573 16.9219 12.276C16.9032 12.2947 16.8799 12.2947 16.8519 12.276C16.8425 12.276 16.8379 12.2713 16.8379 12.262C16.8192 12.2153 16.7912 12.192 16.7539 12.192H16.7399L16.7259 12.178C16.7259 12.1687 16.7259 12.1593 16.7259 12.15C16.7352 12.1407 16.7399 12.1313 16.7399 12.122L16.7819 12.08C16.8005 12.08 16.8099 12.0893 16.8099 12.108C16.8099 12.1547 16.8285 12.1827 16.8659 12.192C16.8752 12.2107 16.8705 12.2387 16.8519 12.276ZM15.8579 15.244L15.8859 15.132L15.8299 15.104C15.8112 15.104 15.7972 15.1087 15.7879 15.118C15.7599 15.1367 15.7552 15.1647 15.7739 15.202C15.7832 15.2113 15.7879 15.2253 15.7879 15.244L15.8019 15.272L15.8579 15.244ZM16.0679 15.86H16.0539L16.0259 15.846C15.9885 15.8273 15.9605 15.818 15.9419 15.818L15.9279 15.832C15.9092 15.8507 15.9092 15.86 15.9279 15.86C15.9279 15.8787 15.9372 15.888 15.9559 15.888L15.9979 15.944C15.9979 15.9533 15.9979 15.9673 15.9979 15.986C16.0072 16.0047 16.0165 16.0187 16.0259 16.028V15.972C16.0352 15.9533 16.0399 15.9347 16.0399 15.916L16.0679 15.86ZM13.9819 13.592C13.9819 13.5827 13.9772 13.5733 13.9679 13.564C13.9679 13.5453 13.9679 13.5313 13.9679 13.522C13.9679 13.5127 13.9772 13.4987 13.9959 13.48C14.0145 13.48 14.0239 13.4707 14.0239 13.452C14.0332 13.452 14.0379 13.4473 14.0379 13.438L14.0239 13.424C14.0145 13.424 14.0005 13.424 13.9819 13.424C13.9725 13.424 13.9632 13.4287 13.9539 13.438C13.9165 13.4473 13.8979 13.4753 13.8979 13.522L13.9539 13.578C13.9539 13.606 13.9632 13.6107 13.9819 13.592ZM16.0959 11.632L16.0679 11.576C16.0585 11.548 16.0585 11.5293 16.0679 11.52C16.0772 11.5107 16.0772 11.5013 16.0679 11.492C16.0679 11.4827 16.0632 11.478 16.0539 11.478C16.0445 11.478 16.0305 11.4827 16.0119 11.492C16.0025 11.492 15.9932 11.492 15.9839 11.492L15.9699 11.506L15.9839 11.52L15.9979 11.534V11.59C15.9979 11.6087 16.0072 11.618 16.0259 11.618C16.0445 11.6087 16.0585 11.6087 16.0679 11.618C16.0679 11.6273 16.0772 11.632 16.0959 11.632ZM13.3099 17.036V17.05L13.3799 17.078C13.3799 17.05 13.3845 17.036 13.3939 17.036C13.4032 17.036 13.4172 17.0127 13.4359 16.966L13.4499 16.952C13.4592 16.9333 13.4685 16.924 13.4779 16.924V16.91C13.4592 16.8913 13.4452 16.882 13.4359 16.882C13.4359 16.8913 13.4312 16.9007 13.4219 16.91C13.4219 16.9287 13.4172 16.9427 13.4079 16.952L13.3799 16.98C13.3612 16.98 13.3472 16.9893 13.3379 17.008C13.3285 17.0267 13.3192 17.036 13.3099 17.036ZM16.9779 12.206L16.9219 12.164L16.9079 12.15C16.8985 12.1407 16.8892 12.136 16.8799 12.136C16.8799 12.108 16.8892 12.0847 16.9079 12.066C16.9172 12.0753 16.9359 12.08 16.9639 12.08C16.9732 12.1173 16.9779 12.1593 16.9779 12.206ZM13.5899 17.498C13.6085 17.498 13.6225 17.4933 13.6319 17.484C13.6692 17.4467 13.6739 17.4093 13.6459 17.372C13.6459 17.3627 13.6365 17.358 13.6179 17.358L13.6039 17.344H13.5899L13.5759 17.372L13.6179 17.428C13.6085 17.4373 13.6039 17.4467 13.6039 17.456C13.6039 17.4653 13.5992 17.47 13.5899 17.47C13.5899 17.4793 13.5899 17.4887 13.5899 17.498ZM13.7999 13.662C13.7812 13.6807 13.7672 13.69 13.7579 13.69C13.7672 13.69 13.7812 13.6947 13.7999 13.704H13.8279L13.9119 13.676H13.9399L13.9259 13.648C13.9165 13.6387 13.9119 13.6247 13.9119 13.606L13.8699 13.648C13.8512 13.6667 13.8279 13.6713 13.7999 13.662ZM14.4579 12.01C14.4765 12.0007 14.4859 11.9913 14.4859 11.982C14.4859 11.9727 14.4765 11.9587 14.4579 11.94H14.4439L14.4299 11.926C14.4112 11.9073 14.4019 11.912 14.4019 11.94V11.996H14.4299C14.4392 12.0053 14.4485 12.01 14.4579 12.01ZM14.7519 11.52C14.7332 11.5013 14.7239 11.4873 14.7239 11.478C14.7052 11.4593 14.6865 11.4593 14.6679 11.478C14.6585 11.506 14.6585 11.5247 14.6679 11.534L14.7099 11.562C14.7005 11.5433 14.7099 11.534 14.7379 11.534L14.7519 11.52ZM16.0399 11.324H15.9979C15.9699 11.324 15.9652 11.3333 15.9839 11.352C15.9839 11.3613 15.9885 11.366 15.9979 11.366C16.0072 11.366 16.0119 11.3613 16.0119 11.352L15.9979 11.366C15.9979 11.3753 15.9979 11.3847 15.9979 11.394H16.0399C16.0585 11.394 16.0679 11.3847 16.0679 11.366C16.0679 11.3567 16.0585 11.3427 16.0399 11.324ZM16.6279 13.312V13.354C16.6465 13.298 16.6512 13.2513 16.6419 13.214C16.6139 13.2047 16.5905 13.2093 16.5719 13.228C16.6092 13.2467 16.6279 13.2747 16.6279 13.312ZM13.2259 17.05C13.2259 17.0593 13.2165 17.0733 13.1979 17.092C13.1885 17.1013 13.1792 17.106 13.1699 17.106C13.1605 17.1153 13.1559 17.1293 13.1559 17.148C13.1652 17.1387 13.1839 17.134 13.2119 17.134L13.2539 17.078L13.2259 17.05ZM15.9419 15.426H15.9559C15.8999 15.398 15.8579 15.3887 15.8299 15.398L15.9139 15.454C15.9419 15.454 15.9512 15.4447 15.9419 15.426ZM17.1459 11.632L17.1599 11.618C17.1599 11.6087 17.1645 11.604 17.1739 11.604H17.1879L17.2019 11.618C17.1832 11.646 17.1505 11.66 17.1039 11.66C17.0945 11.66 17.0852 11.646 17.0759 11.618C17.0852 11.618 17.0945 11.6227 17.1039 11.632C17.1225 11.632 17.1365 11.632 17.1459 11.632ZM14.9339 16.182C14.9432 16.182 14.9479 16.1913 14.9479 16.21C14.9572 16.21 14.9619 16.224 14.9619 16.252L15.0039 16.196C15.0132 16.1867 15.0179 16.1773 15.0179 16.168C14.9992 16.1493 14.9852 16.1493 14.9759 16.168C14.9572 16.168 14.9432 16.1727 14.9339 16.182ZM16.6419 13.718C16.6605 13.7367 16.6792 13.7413 16.6979 13.732C16.6979 13.7227 16.6699 13.69 16.6139 13.634C16.6139 13.6527 16.6232 13.6807 16.6419 13.718ZM16.3199 14.068V14.04H16.3479V14.026C16.3385 14.026 16.3292 14.0307 16.3199 14.04C16.3292 14.012 16.3245 13.9887 16.3059 13.97C16.2965 13.9607 16.2872 13.9607 16.2779 13.97V13.984C16.2872 13.9933 16.2919 14.0073 16.2919 14.026C16.2919 14.0447 16.2965 14.054 16.3059 14.054C16.3059 14.0633 16.3105 14.068 16.3199 14.068ZM15.2139 11.492V11.436C15.2045 11.436 15.1905 11.436 15.1719 11.436C15.1532 11.4267 15.1392 11.422 15.1299 11.422L15.1439 11.45L15.2139 11.492ZM16.1099 14.152V14.208L16.1379 14.222C16.1472 14.222 16.1519 14.2127 16.1519 14.194C16.1519 14.1847 16.1425 14.1613 16.1239 14.124C16.1145 14.124 16.1099 14.1333 16.1099 14.152ZM13.7159 17.484C13.7345 17.484 13.7439 17.4747 13.7439 17.456C13.7439 17.4373 13.7299 17.4187 13.7019 17.4C13.7019 17.456 13.7065 17.484 13.7159 17.484ZM16.3479 14.166L16.3619 14.18C16.3899 14.18 16.4039 14.1893 16.4039 14.208C16.4132 14.2173 16.4272 14.2127 16.4459 14.194C16.4365 14.1567 16.4039 14.1473 16.3479 14.166ZM15.2839 16.434C15.3025 16.4527 15.3212 16.4573 15.3399 16.448C15.3399 16.4387 15.3445 16.4293 15.3539 16.42L15.3259 16.392C15.2979 16.42 15.2839 16.434 15.2839 16.434ZM15.7039 14.866C15.7132 14.8567 15.7085 14.8427 15.6899 14.824C15.6712 14.8053 15.6572 14.8007 15.6479 14.81H15.6339V14.824L15.6619 14.838C15.6805 14.8567 15.6945 14.866 15.7039 14.866ZM15.1579 16.63V16.644C15.1579 16.6813 15.1719 16.6907 15.1999 16.672L15.2139 16.658C15.2139 16.6487 15.2092 16.644 15.1999 16.644C15.1999 16.644 15.1999 16.6393 15.1999 16.63C15.1905 16.6207 15.1765 16.6207 15.1579 16.63ZM16.0819 14.418C16.0819 14.446 16.0912 14.4693 16.1099 14.488H16.1519L16.0819 14.418ZM14.9759 11.618C14.9945 11.6367 15.0132 11.6367 15.0319 11.618C15.0412 11.6087 15.0319 11.5947 15.0039 11.576C15.0039 11.5853 14.9945 11.5993 14.9759 11.618ZM16.1099 14.908C16.1379 14.908 16.1612 14.9127 16.1799 14.922C16.1799 14.9127 16.1845 14.908 16.1939 14.908V14.894C16.1939 14.8847 16.1892 14.8753 16.1799 14.866H16.1659C16.1659 14.8753 16.1472 14.8893 16.1099 14.908ZM16.1239 14.754C16.1425 14.7727 16.1519 14.7867 16.1519 14.796L16.1799 14.768C16.1892 14.768 16.1939 14.7633 16.1939 14.754H16.1239ZM16.8519 12.052L16.8379 12.066C16.8379 12.0753 16.8379 12.0847 16.8379 12.094C16.8285 12.1033 16.8192 12.108 16.8099 12.108C16.8192 12.08 16.8192 12.052 16.8099 12.024C16.8192 12.024 16.8332 12.0333 16.8519 12.052ZM14.8359 17.288C14.8265 17.2973 14.8219 17.3253 14.8219 17.372C14.8592 17.3347 14.8639 17.3067 14.8359 17.288ZM15.4519 16.126C15.4425 16.098 15.4239 16.084 15.3959 16.084H15.3819V16.098C15.4005 16.1167 15.4239 16.126 15.4519 16.126ZM16.4459 11.548C16.4552 11.548 16.4645 11.5433 16.4739 11.534C16.4832 11.5247 16.4785 11.5107 16.4599 11.492C16.4412 11.5013 16.4365 11.52 16.4459 11.548ZM15.2279 16.364H15.2139C15.2045 16.3733 15.1952 16.378 15.1859 16.378V16.392C15.2139 16.4107 15.2279 16.4013 15.2279 16.364ZM14.9199 17.302C14.9105 17.2927 14.8965 17.2973 14.8779 17.316C14.8779 17.3347 14.8825 17.344 14.8919 17.344C14.9012 17.344 14.9059 17.3393 14.9059 17.33C14.9152 17.33 14.9199 17.3207 14.9199 17.302ZM13.9399 17.358C13.9399 17.3487 13.9352 17.3393 13.9259 17.33C13.9259 17.3207 13.9259 17.3113 13.9259 17.302C13.9072 17.3113 13.9025 17.3253 13.9119 17.344C13.9119 17.3533 13.9212 17.358 13.9399 17.358ZM16.0539 15.846L16.0119 15.762H15.9979C15.9979 15.7713 16.0072 15.7853 16.0259 15.804C16.0259 15.8133 16.0352 15.8273 16.0539 15.846ZM15.7739 15.398L15.8019 15.384C15.8019 15.3653 15.7879 15.356 15.7599 15.356C15.7505 15.3653 15.7505 15.3747 15.7599 15.384L15.7739 15.398ZM16.1099 11.618H16.1379L16.1099 11.562C16.0912 11.5807 16.0912 11.5993 16.1099 11.618ZM13.9119 14.348H13.9259C13.9259 14.32 13.9165 14.306 13.8979 14.306L13.8839 14.32C13.8839 14.3387 13.8932 14.348 13.9119 14.348ZM15.7599 15.986C15.7692 16.014 15.7832 16.028 15.8019 16.028H15.8159V16.014C15.8159 16.0047 15.7972 15.9953 15.7599 15.986ZM16.3199 14.068V14.138C16.3385 14.138 16.3479 14.1287 16.3479 14.11C16.3292 14.0913 16.3199 14.0773 16.3199 14.068ZM16.1099 14.152H16.0819C16.0819 14.1427 16.0725 14.138 16.0539 14.138L16.0399 14.152V14.166H16.0539C16.0819 14.166 16.1005 14.1613 16.1099 14.152ZM13.8559 17.4H13.8839C13.8932 17.4 13.8979 17.3953 13.8979 17.386V17.358C13.8792 17.358 13.8652 17.372 13.8559 17.4ZM16.7399 11.576C16.7772 11.5853 16.7959 11.5993 16.7959 11.618H16.7819L16.7679 11.604C16.7585 11.5947 16.7492 11.5853 16.7399 11.576ZM16.0119 15.538C16.0212 15.538 16.0259 15.538 16.0259 15.538C16.0259 15.5287 16.0305 15.524 16.0399 15.524C16.0305 15.5147 16.0119 15.51 15.9839 15.51C15.9839 15.5287 15.9932 15.538 16.0119 15.538ZM16.5019 12.388C16.5019 12.3787 16.4972 12.3693 16.4879 12.36C16.4879 12.3413 16.4785 12.332 16.4599 12.332C16.4599 12.3507 16.4739 12.3693 16.5019 12.388ZM15.8719 15.342C15.8812 15.37 15.8952 15.384 15.9139 15.384C15.9232 15.384 15.9279 15.3793 15.9279 15.37V15.356C15.9092 15.356 15.8905 15.3513 15.8719 15.342ZM16.8659 11.926V11.898H16.9079V11.912C16.8985 11.9213 16.8892 11.926 16.8799 11.926H16.8659ZM16.0259 11.422H15.9839V11.436C15.9932 11.436 15.9979 11.436 15.9979 11.436L16.0259 11.45C16.0259 11.4407 16.0305 11.436 16.0399 11.436L16.0259 11.422ZM16.2779 14.586C16.2592 14.586 16.2499 14.5907 16.2499 14.6C16.2499 14.6093 16.2592 14.614 16.2779 14.614L16.2919 14.6L16.2779 14.586ZM16.5299 13.48C16.5299 13.452 16.5252 13.4333 16.5159 13.424H16.5019C16.5019 13.4427 16.5112 13.4613 16.5299 13.48ZM13.3099 17.05C13.3099 17.0593 13.3099 17.0687 13.3099 17.078C13.3005 17.0967 13.2959 17.1107 13.2959 17.12L13.3099 17.134V17.05ZM16.3759 11.604V11.618C16.3665 11.618 16.3619 11.6133 16.3619 11.604C16.3432 11.5947 16.3385 11.5853 16.3479 11.576L16.3759 11.604ZM15.9559 14.516C15.9372 14.4973 15.9185 14.488 15.8999 14.488C15.9092 14.5067 15.9279 14.516 15.9559 14.516ZM15.8159 16.112L15.7739 16.168C15.8019 16.1587 15.8159 16.14 15.8159 16.112ZM15.7179 15.118L15.7599 15.09L15.7179 15.076C15.6992 15.0947 15.6992 15.1087 15.7179 15.118ZM15.6899 11.45C15.6992 11.4407 15.7085 11.436 15.7179 11.436C15.7365 11.4173 15.7365 11.408 15.7179 11.408C15.6992 11.4267 15.6899 11.4407 15.6899 11.45ZM15.8719 16.126C15.8812 16.1167 15.8905 16.112 15.8999 16.112V16.098C15.8812 16.0793 15.8719 16.0793 15.8719 16.098C15.8532 16.098 15.8532 16.1073 15.8719 16.126ZM16.9079 12.066C16.8799 12.066 16.8612 12.0613 16.8519 12.052H16.8799C16.8892 12.052 16.8985 12.0567 16.9079 12.066ZM16.0259 14.712L16.0119 14.698L15.9979 14.712V14.726C15.9979 14.7353 16.0025 14.74 16.0119 14.74C16.0212 14.7307 16.0259 14.7213 16.0259 14.712ZM13.6739 14.166L13.6599 14.138C13.6505 14.138 13.6459 14.1473 13.6459 14.166L13.6599 14.18C13.6599 14.1707 13.6645 14.166 13.6739 14.166ZM16.8799 11.982L16.8659 11.968H16.8799L16.8939 11.954H16.9079V11.968C16.8985 11.968 16.8939 11.9727 16.8939 11.982C16.8939 11.982 16.8892 11.982 16.8799 11.982ZM17.1879 11.38C17.1879 11.3987 17.1925 11.408 17.2019 11.408H17.2159V11.394C17.2159 11.3847 17.2065 11.38 17.1879 11.38ZM15.9279 15.748L15.9139 15.762C15.9139 15.79 15.9232 15.7947 15.9419 15.776C15.9419 15.7667 15.9372 15.7573 15.9279 15.748ZM13.9259 14.894C13.9165 14.894 13.9119 14.8893 13.9119 14.88L13.8839 14.908H13.8979C13.9072 14.908 13.9165 14.9033 13.9259 14.894ZM16.8519 12.472V12.486H16.8799V12.472C16.8799 12.4627 16.8752 12.458 16.8659 12.458L16.8519 12.472ZM13.5199 16.854C13.5292 16.8353 13.5292 16.8167 13.5199 16.798C13.5105 16.826 13.5105 16.8447 13.5199 16.854ZM13.7999 13.62V13.662C13.8185 13.6527 13.8185 13.6387 13.7999 13.62ZM13.3659 16.924L13.3239 16.882C13.3239 16.9007 13.3379 16.9147 13.3659 16.924ZM15.7179 14.586C15.7085 14.6047 15.7132 14.6233 15.7319 14.642C15.7319 14.6233 15.7272 14.6047 15.7179 14.586ZM16.5719 13.816V13.802C16.5532 13.7833 16.5439 13.7833 16.5439 13.802V13.816H16.5719ZM13.3239 17.386V17.4H13.3379C13.3472 17.4 13.3519 17.3907 13.3519 17.372C13.3425 17.372 13.3379 17.372 13.3379 17.372C13.3379 17.3813 13.3332 17.386 13.3239 17.386ZM13.6319 17.106V17.134C13.6412 17.134 13.6459 17.1247 13.6459 17.106H13.6319ZM16.1799 14.138C16.1985 14.138 16.2079 14.1287 16.2079 14.11H16.1939C16.1845 14.11 16.1799 14.1193 16.1799 14.138ZM13.9539 17.414L13.9399 17.4L13.9259 17.414L13.9399 17.428L13.9539 17.414ZM16.5579 12.458H16.5439C16.5439 12.4673 16.5439 12.472 16.5439 12.472C16.5532 12.472 16.5579 12.4767 16.5579 12.486L16.5719 12.472L16.5579 12.458ZM14.0659 12.948C14.0565 12.9293 14.0425 12.92 14.0239 12.92C14.0425 12.9387 14.0565 12.948 14.0659 12.948ZM13.4639 16.784L13.4499 16.798L13.4639 16.812C13.4732 16.812 13.4779 16.8073 13.4779 16.798C13.4685 16.798 13.4639 16.7933 13.4639 16.784ZM14.3599 12.318H14.3739L14.3879 12.304L14.3739 12.29C14.3739 12.2993 14.3692 12.3087 14.3599 12.318ZM16.9359 12.234C16.9639 12.234 16.9825 12.2293 16.9919 12.22C16.9732 12.248 16.9545 12.2527 16.9359 12.234ZM14.5839 15.426V15.412H14.5559V15.426H14.5839ZM16.4039 13.634H16.4179H16.4319C16.4412 13.634 16.4459 13.6293 16.4459 13.62C16.4272 13.62 16.4132 13.6247 16.4039 13.634ZM14.4159 17.302L14.4439 17.33C14.4439 17.3113 14.4345 17.302 14.4159 17.302ZM16.5439 13.858H16.5019L16.5159 13.872C16.5252 13.872 16.5345 13.8673 16.5439 13.858ZM17.0059 11.87L17.0199 11.884L17.0059 11.898L16.9919 11.884L17.0059 11.87ZM15.6619 14.908C15.6619 14.936 15.6665 14.95 15.6759 14.95V14.936L15.6619 14.922V14.908ZM14.2339 17.442H14.2059V17.456H14.2199C14.2292 17.456 14.2339 17.4513 14.2339 17.442ZM14.1499 12.864L14.1359 12.85L14.1219 12.864V12.878L14.1359 12.864H14.1499ZM14.0099 17.344L13.9959 17.358H14.0239V17.344H14.0099ZM16.5579 13.27C16.5579 13.2793 16.5532 13.284 16.5439 13.284C16.5532 13.284 16.5579 13.2887 16.5579 13.298C16.5579 13.298 16.5625 13.298 16.5719 13.298V13.284C16.5719 13.2747 16.5672 13.27 16.5579 13.27ZM15.8859 15.692L15.8719 15.678V15.692C15.8719 15.7013 15.8765 15.706 15.8859 15.706C15.8952 15.706 15.8952 15.7013 15.8859 15.692ZM13.6739 17.204L13.6879 17.19L13.6739 17.176L13.6599 17.19C13.6692 17.19 13.6739 17.1947 13.6739 17.204ZM15.8999 15.538L15.9139 15.524H15.8999C15.8905 15.524 15.8905 15.5287 15.8999 15.538ZM16.5719 13.886L16.5439 13.9C16.5532 13.9093 16.5625 13.9047 16.5719 13.886ZM15.6899 15.146H15.6619C15.6619 15.1553 15.6712 15.16 15.6899 15.16V15.146ZM16.0119 15.454L16.0259 15.468C16.0352 15.468 16.0399 15.4633 16.0399 15.454H16.0119ZM15.7459 15.72L15.7599 15.706H15.7319V15.72H15.7459ZM15.2279 16.49H15.2419L15.2279 16.476H15.2139C15.2139 16.4853 15.2185 16.49 15.2279 16.49ZM15.3119 16.21L15.2979 16.196V16.224C15.3072 16.224 15.3119 16.2193 15.3119 16.21ZM16.9499 11.912V11.898C16.9499 11.8887 16.9545 11.884 16.9639 11.884V11.898C16.9639 11.9073 16.9592 11.912 16.9499 11.912ZM16.3059 11.492H16.2779L16.2919 11.506C16.3012 11.506 16.3059 11.5013 16.3059 11.492ZM16.5439 13.9L16.4879 13.928C16.5065 13.928 16.5252 13.9187 16.5439 13.9ZM16.1099 11.702L16.1239 11.716C16.1332 11.716 16.1379 11.7113 16.1379 11.702H16.1099ZM13.6739 14.25H13.6319L13.6599 14.264L13.6739 14.25ZM16.4599 13.592V13.564H16.4459V13.578C16.4552 13.578 16.4599 13.5827 16.4599 13.592ZM16.3619 11.87V11.898L16.3479 11.884C16.3479 11.8747 16.3525 11.87 16.3619 11.87ZM15.3399 16.322L15.3539 16.336C15.3632 16.336 15.3679 16.3313 15.3679 16.322H15.3399ZM16.6839 12.178L16.6979 12.192H16.6699L16.6839 12.178ZM16.8239 12.276V12.318C16.8145 12.3087 16.8145 12.2947 16.8239 12.276ZM13.8139 12.878V12.85L13.7999 12.864C13.7999 12.8733 13.8045 12.878 13.8139 12.878ZM16.6419 12.528V12.514H16.6279C16.6279 12.5233 16.6325 12.528 16.6419 12.528ZM16.0399 14.418L16.0259 14.404V14.432L16.0399 14.418ZM15.9979 14.628V14.614H15.9839V14.628H15.9979ZM17.2439 11.842H17.2299V11.856C17.2392 11.856 17.2439 11.8513 17.2439 11.842ZM17.1179 12.094L17.1039 12.08C17.0945 12.08 17.0852 12.08 17.0759 12.08C17.0852 12.0893 17.0992 12.094 17.1179 12.094ZM15.4799 16.462V16.448H15.4659V16.462H15.4799ZM13.4219 17.372H13.4359V17.358H13.4219V17.372ZM13.7159 17.302V17.288H13.7019C13.7019 17.2973 13.7065 17.302 13.7159 17.302ZM15.4939 14.922L15.4799 14.908H15.4659L15.4799 14.922H15.4939ZM17.2019 11.198H17.1879C17.1879 11.2073 17.1925 11.212 17.2019 11.212V11.198ZM15.0039 11.506V11.492H14.9899C14.9899 11.5013 14.9945 11.506 15.0039 11.506ZM15.3959 15.048H15.3819V15.062H15.3959V15.048ZM16.2079 15.986H16.2219V15.972H16.2079V15.986ZM17.0899 12.052L17.1039 12.038L17.0899 12.024V12.052ZM13.9679 12.808H13.9819C13.9819 12.7987 13.9772 12.794 13.9679 12.794V12.808ZM16.5579 12.066L16.5439 12.08H16.5299L16.5439 12.066H16.5579ZM16.6979 13.004V12.99H16.6839C16.6839 12.9993 16.6885 13.004 16.6979 13.004ZM15.9139 15.51H15.9279V15.496C15.9185 15.496 15.9139 15.5007 15.9139 15.51ZM13.9539 17.498L13.9679 17.512V17.484L13.9539 17.498ZM15.2699 16.042L15.2979 16.056C15.2885 16.056 15.2792 16.0513 15.2699 16.042ZM16.2359 14.698L16.2219 14.684V14.712L16.2359 14.698ZM15.0319 16.966V16.98H15.0459C15.0459 16.9707 15.0412 16.966 15.0319 16.966ZM15.3959 14.992C15.3865 14.992 15.3819 14.9967 15.3819 15.006C15.3912 15.006 15.3959 15.0013 15.3959 14.992ZM14.1359 17.33L14.1499 17.316H14.1219L14.1359 17.33ZM15.2699 16.042C15.2605 16.042 15.2512 16.0467 15.2419 16.056C15.2605 16.056 15.2699 16.0513 15.2699 16.042ZM13.2959 16.994H13.3099V16.98L13.2959 16.994ZM16.2359 11.87H16.2499C16.2499 11.8607 16.2452 11.856 16.2359 11.856V11.87ZM15.8159 14.572H15.8019V14.586C15.8112 14.586 15.8159 14.5813 15.8159 14.572ZM13.9959 13.172H13.9819V13.186L13.9959 13.172ZM17.0059 12.304V12.29L17.0199 12.304H17.0059ZM15.5779 15.146V15.132H15.5639C15.5639 15.1413 15.5685 15.146 15.5779 15.146ZM16.1379 14.418L16.1239 14.404C16.1239 14.4133 16.1285 14.418 16.1379 14.418ZM15.8999 11.338V11.324L15.8859 11.338H15.8999ZM15.6899 15.79V15.804H15.7039L15.6899 15.79ZM15.2979 16.014H15.3119V16C15.3025 16 15.2979 16.0047 15.2979 16.014ZM17.1319 11.94V11.926H17.1179L17.1319 11.94ZM13.3379 16.798H13.3519V16.784C13.3425 16.784 13.3379 16.7887 13.3379 16.798ZM15.7739 15.412V15.398L15.7599 15.412H15.7739ZM14.9619 17.05H14.9759V17.036C14.9665 17.036 14.9619 17.0407 14.9619 17.05ZM13.7859 14.53H13.7999V14.516C13.7905 14.516 13.7859 14.5207 13.7859 14.53ZM17.2159 11.352V11.338C17.2065 11.338 17.2019 11.3427 17.2019 11.352H17.2159ZM16.0119 15.552L15.9979 15.566H16.0119V15.552ZM16.4879 12.052V12.066H16.4739L16.4879 12.052ZM14.3319 17.316V17.33L14.3459 17.316H14.3319ZM13.3939 16.602V16.616H13.4079L13.3939 16.602ZM13.9959 17.358C13.9865 17.3673 13.9819 17.3767 13.9819 17.386L13.9959 17.358ZM16.4179 11.828H16.4319L16.4179 11.842V11.828ZM16.1239 13.998L16.1379 14.012V13.998H16.1239ZM13.5479 17.456L13.5339 17.47C13.5432 17.47 13.5479 17.4653 13.5479 17.456ZM13.6739 17.526V17.54H13.6879L13.6739 17.526ZM14.0239 12.822H14.0099V12.836L14.0239 12.822ZM15.7739 14.544V14.558V14.544V14.53V14.544ZM15.7879 15.048H15.8019V15.034L15.7879 15.048ZM15.3399 16.07V16.084H15.3539L15.3399 16.07ZM15.4519 14.824H15.4659L15.4519 14.81V14.824ZM16.6699 12.318V12.332H16.6559L16.6699 12.318ZM13.8279 14.39L13.8139 14.376V14.39H13.8279ZM14.1639 17.344C14.1639 17.3347 14.1592 17.3253 14.1499 17.316C14.1499 17.3253 14.1545 17.3347 14.1639 17.344ZM16.1099 15.076V15.062C16.1005 15.0713 16.1005 15.076 16.1099 15.076ZM15.1019 11.492H15.0879V11.506C15.0879 11.4967 15.0925 11.492 15.1019 11.492ZM13.5059 16.644H13.5199H13.5059ZM13.5339 17.484V17.47C13.5245 17.47 13.5245 17.4747 13.5339 17.484ZM16.7679 12.164V12.15H16.7539L16.7679 12.164ZM15.1579 16.266V16.28V16.266ZM14.0519 14.796H14.0659H14.0519ZM15.9979 15.734V15.72H15.9839L15.9979 15.734ZM18.0139 13.984H17.9999V13.998C17.9999 13.9887 18.0045 13.984 18.0139 13.984Z" fill="#333333"/>
</svg>
