<svg width="24" height="24" viewBox="0 0 24 24" fill="none" xmlns="http://www.w3.org/2000/svg">
<path d="M11.5967 18H7.94629L7.49512 15.9424H5.0957L4.66504 18H2.19727L4.6582 8.33398H8.9375L11.5967 18ZM6.32617 9.83789L5.38965 14.3428H7.34473L6.53809 9.83789H6.32617ZM17.8379 16.7285C17.6465 17.1296 17.3503 17.4417 16.9492 17.665C16.5482 17.8883 16.0856 18 15.5615 18C15.001 18 14.5111 17.8952 14.0918 17.6855C13.6771 17.4759 13.333 17.2002 13.0596 16.8584C12.7861 16.5166 12.5811 16.1247 12.4443 15.6826C12.3122 15.2406 12.2461 14.7871 12.2461 14.3223C12.2461 13.8438 12.3145 13.3743 12.4512 12.9141C12.5924 12.4492 12.7975 12.0345 13.0664 11.6699C13.3398 11.3008 13.6771 11.0046 14.0781 10.7812C14.4792 10.5534 14.9417 10.4395 15.4658 10.4395C15.8031 10.4395 16.1038 10.4782 16.3682 10.5557C16.637 10.6331 16.874 10.7448 17.0791 10.8906C17.2842 11.0319 17.4619 11.2028 17.6123 11.4033C17.7627 11.5993 17.8926 11.8203 18.002 12.0664C18.002 12.0254 17.9974 11.9411 17.9883 11.8135C17.9792 11.6859 17.9655 11.5469 17.9473 11.3965C17.9336 11.2461 17.9176 11.1003 17.8994 10.959C17.8812 10.8132 17.863 10.7015 17.8447 10.624H20.7979V16.4141C20.7979 17.2389 20.6953 17.9544 20.4902 18.5605C20.2897 19.1712 20.0003 19.6771 19.6221 20.0781C19.2438 20.4837 18.779 20.7845 18.2275 20.9805C17.6807 21.181 17.0632 21.2812 16.375 21.2812C16.097 21.2812 15.8486 21.2744 15.6299 21.2607C15.4157 21.2471 15.2106 21.2266 15.0146 21.1992C14.8187 21.1719 14.6204 21.1377 14.4199 21.0967C14.224 21.0557 14.0075 21.0078 13.7705 20.9531L13.9756 19.2305C14.1032 19.2669 14.2467 19.3011 14.4062 19.333C14.5703 19.3649 14.7389 19.3923 14.9121 19.415C15.0898 19.4424 15.2699 19.4629 15.4521 19.4766C15.6344 19.4948 15.8076 19.5039 15.9717 19.5039C16.3636 19.5039 16.6803 19.4287 16.9219 19.2783C17.168 19.1279 17.3571 18.9251 17.4893 18.6699C17.626 18.4147 17.7171 18.1208 17.7627 17.7881C17.8128 17.4508 17.8379 17.0977 17.8379 16.7285ZM15.001 14.3291C15.001 14.7028 15.042 15.015 15.124 15.2656C15.2061 15.5163 15.3132 15.7191 15.4453 15.874C15.582 16.0244 15.7347 16.1338 15.9033 16.2021C16.0765 16.266 16.252 16.2979 16.4297 16.2979C16.6074 16.2979 16.7806 16.266 16.9492 16.2021C17.1178 16.1338 17.2682 16.0244 17.4004 15.874C17.5326 15.7191 17.6374 15.5163 17.7148 15.2656C17.7969 15.0104 17.8379 14.696 17.8379 14.3223C17.8379 13.9531 17.7969 13.6432 17.7148 13.3926C17.6374 13.1374 17.5326 12.9323 17.4004 12.7773C17.2682 12.6224 17.1178 12.513 16.9492 12.4492C16.7852 12.3809 16.6143 12.3467 16.4365 12.3467C16.2588 12.3467 16.0833 12.3809 15.9102 12.4492C15.7415 12.513 15.5889 12.6224 15.4521 12.7773C15.3154 12.9323 15.2061 13.1374 15.124 13.3926C15.042 13.6432 15.001 13.9554 15.001 14.3291Z" fill="#333333"/>
</svg>
