<svg width="24" height="24" viewBox="0 0 24 24" fill="none" xmlns="http://www.w3.org/2000/svg">
<path d="M10.4209 7.28613H11.7402L12.4102 17H11.2344L11.0566 14.1768H7.05078L5.25977 17H4.18652L10.4209 7.28613ZM10.708 8.4209L7.69336 13.1582H10.9951L10.708 8.4209ZM18.6172 10.2803C19.1504 10.2803 19.7109 10.4603 20.2988 10.8203L20.5518 10.417H21.3379L19.3145 17.4785C19.2734 17.6152 19.2301 17.7451 19.1846 17.8682C19.1436 17.9912 19.0661 18.1667 18.9521 18.3945C18.8428 18.627 18.7197 18.8366 18.583 19.0234C18.4508 19.2103 18.2708 19.4131 18.043 19.6318C17.8197 19.8506 17.5758 20.0329 17.3115 20.1787C17.0472 20.3245 16.7236 20.4476 16.3408 20.5479C15.9626 20.6481 15.557 20.6982 15.124 20.6982C14.445 20.6982 13.8024 20.5524 13.1963 20.2607L13.7432 19.4473C14.2308 19.6569 14.7321 19.7617 15.2471 19.7617C16.7829 19.7617 17.7946 18.8981 18.2822 17.1709L18.4258 16.6719C17.765 16.9818 17.1383 17.1367 16.5459 17.1367C16.2588 17.1367 15.9876 17.0957 15.7324 17.0137C15.4772 16.9362 15.2425 16.8177 15.0283 16.6582C14.8187 16.4941 14.6523 16.2731 14.5293 15.9951C14.4062 15.7126 14.3447 15.3844 14.3447 15.0107C14.3447 14.6416 14.4131 14.2132 14.5498 13.7256C14.6956 13.2152 14.8984 12.7549 15.1582 12.3447C15.4225 11.9346 15.6982 11.6042 15.9854 11.3535C16.277 11.1029 16.5892 10.8955 16.9219 10.7314C17.2546 10.5628 17.5599 10.4466 17.8379 10.3828C18.1159 10.3145 18.3757 10.2803 18.6172 10.2803ZM18.4326 11.1895C17.8174 11.1895 17.2568 11.4105 16.751 11.8525C16.2451 12.2946 15.8874 12.8779 15.6777 13.6025C15.5775 13.9443 15.5273 14.2747 15.5273 14.5938C15.5273 15.0859 15.6595 15.4801 15.9238 15.7764C16.1927 16.068 16.5938 16.2139 17.127 16.2139C17.6146 16.2139 18.1273 16.0885 18.665 15.8379L19.8887 11.5586C19.3509 11.3125 18.8656 11.1895 18.4326 11.1895Z" fill="#888888"/>
</svg>
