<svg width="24" height="24" viewBox="0 0 24 24" fill="none" xmlns="http://www.w3.org/2000/svg">
<path d="M3.29565 18.282C3.02498 18.282 2.79632 18.226 2.60965 18.114C2.35765 17.974 2.23165 17.7547 2.23165 17.456C2.23165 17.1947 2.31565 16.9613 2.48365 16.756C2.67032 16.5413 2.88498 16.434 3.12765 16.434C3.30498 16.434 3.45898 16.4993 3.58965 16.63C3.70165 16.7607 3.75765 16.8913 3.75765 17.022C3.75765 17.2553 3.66898 17.4467 3.49165 17.596C3.34231 17.736 3.17431 17.806 2.98765 17.806C2.81031 17.806 2.65631 17.7407 2.52565 17.61C2.58165 17.8153 2.77298 17.918 3.09965 17.918C3.59431 17.918 4.18231 17.5867 4.86365 16.924C5.11565 16.6813 5.38632 16.3873 5.67565 16.042C5.95565 15.706 6.24965 15.314 6.55765 14.866C6.76298 14.5673 6.96365 14.2733 7.15965 13.984C7.35565 13.6853 7.55632 13.3867 7.76165 13.088C7.08032 12.0427 6.73965 11.058 6.73965 10.134C6.73965 9.602 6.86098 9.17267 7.10365 8.846C7.35565 8.51933 7.67765 8.356 8.06965 8.356C8.79765 8.356 9.55832 8.86 10.3516 9.868C11.2476 8.944 12.1623 8.16 13.0956 7.516C14.3463 6.648 15.3776 6.214 16.1896 6.214C16.5163 6.214 16.6796 6.284 16.6796 6.424C16.6796 6.46133 16.6656 6.508 16.6376 6.564C14.5376 10.3253 13.3616 12.878 13.1096 14.222C13.091 14.3527 13.0723 14.474 13.0536 14.586C13.0443 14.698 13.0396 14.8007 13.0396 14.894C13.0396 15.482 13.2776 15.776 13.7536 15.776C14.239 15.776 14.9203 14.8613 15.7976 13.032C15.835 12.9387 15.8863 12.8827 15.9516 12.864H15.9656C16.003 12.864 16.0216 12.8967 16.0216 12.962C16.0216 13.018 15.9983 13.0927 15.9516 13.186C15.6903 13.7087 15.4803 14.124 15.3216 14.432C15.1723 14.74 15.0696 14.936 15.0136 15.02C14.7523 15.4307 14.491 15.734 14.2296 15.93C13.9683 16.126 13.7116 16.224 13.4596 16.224C13.1423 16.224 12.839 16.1027 12.5496 15.86C12.1856 15.5427 11.985 15.0993 11.9476 14.53C11.6956 12.9993 11.1403 11.6927 10.2816 10.61C9.98298 10.9273 9.66565 11.296 9.32965 11.716C9.00298 12.136 8.65298 12.6073 8.27965 13.13C8.70898 13.8113 9.19898 14.4413 9.74965 15.02C10.3096 15.5987 10.9303 16.1213 11.6116 16.588C11.677 16.6253 11.7096 16.672 11.7096 16.728C11.7096 16.8027 11.6816 16.84 11.6256 16.84C11.5976 16.84 11.5556 16.826 11.4996 16.798C11.2383 16.6393 10.9676 16.448 10.6876 16.224C10.4076 16.0093 10.1136 15.7573 9.80565 15.468C9.46032 15.1507 9.13832 14.8287 8.83965 14.502C8.55032 14.166 8.27965 13.8253 8.02765 13.48C7.39298 14.376 6.88898 15.0807 6.51565 15.594C6.15165 16.1073 5.91832 16.4293 5.81565 16.56C5.05032 17.512 4.39232 18.058 3.84165 18.198C3.66432 18.254 3.48231 18.282 3.29565 18.282ZM12.0456 13.536C12.1016 13.2933 12.181 13.0413 12.2836 12.78C12.3956 12.5093 12.531 12.234 12.6896 11.954C13.4923 10.526 14.2996 9.21933 15.1116 8.034C15.205 7.90333 15.2516 7.78667 15.2516 7.684C15.2516 7.56267 15.163 7.502 14.9856 7.502C14.4443 7.502 13.6743 7.84733 12.6756 8.538C12.2743 8.818 11.9056 9.10267 11.5696 9.392C11.2336 9.672 10.921 9.95667 10.6316 10.246C11.2663 11.198 11.7376 12.2947 12.0456 13.536ZM8.02765 12.71C8.39165 12.2153 8.73232 11.7627 9.04965 11.352C9.37632 10.9413 9.68432 10.5773 9.97365 10.26C9.38565 9.63467 8.86298 9.322 8.40565 9.322C8.12565 9.322 7.90632 9.448 7.74765 9.7C7.57965 9.96133 7.49565 10.2973 7.49565 10.708C7.49565 11.352 7.67298 12.0193 8.02765 12.71ZM15.0059 19.654C14.5112 19.654 14.1425 19.4907 13.8999 19.164C13.7972 19.0053 13.7459 18.7953 13.7459 18.534C13.7459 18.3287 13.7739 18.1793 13.8299 18.086L14.0819 18.072C14.0352 18.24 14.0119 18.3847 14.0119 18.506C14.0119 19.01 14.3059 19.262 14.8939 19.262C15.4352 19.262 15.9859 18.828 16.5459 17.96C16.7045 17.7173 16.8632 17.4233 17.0219 17.078C17.1899 16.742 17.3485 16.3593 17.4979 15.93C17.6005 15.65 17.6985 15.37 17.7919 15.09C17.8945 14.8007 17.9972 14.5113 18.0999 14.222C17.7639 14.7633 17.4279 15.1973 17.0919 15.524C16.7465 15.8507 16.4292 16.014 16.1399 16.014C15.9065 16.014 15.7199 15.9067 15.5799 15.692C15.4305 15.4867 15.3559 15.202 15.3559 14.838C15.3559 13.9607 15.7479 13.046 16.5319 12.094C16.6625 11.9353 16.8119 11.7907 16.9799 11.66C17.1479 11.5293 17.3299 11.4127 17.5259 11.31C17.9272 11.1047 18.3145 11.002 18.6879 11.002C19.1452 11.002 19.5092 11.1513 19.7799 11.45C19.8452 11.5153 19.8779 11.59 19.8779 11.674C19.8779 11.8327 19.7939 11.8933 19.6259 11.856C19.5325 11.52 19.3179 11.352 18.9819 11.352C18.5899 11.352 18.1279 11.6273 17.5959 12.178C17.2039 12.5887 16.8632 13.032 16.5739 13.508C16.1819 14.1613 15.9859 14.7073 15.9859 15.146C15.9859 15.4633 16.1025 15.622 16.3359 15.622C16.6159 15.622 16.9332 15.4167 17.2879 15.006C17.6705 14.5487 18.0859 13.8953 18.5339 13.046C18.7112 12.71 18.8512 12.4813 18.9539 12.36C19.1032 12.2107 19.2805 12.1407 19.4859 12.15L19.7799 12.192C19.8919 12.22 19.9899 12.2247 20.0739 12.206C20.0085 12.2713 19.9432 12.3413 19.8779 12.416C19.8125 12.4907 19.7565 12.5653 19.7099 12.64C19.6259 12.7707 19.5325 12.9387 19.4299 13.144C19.3272 13.34 19.2245 13.5733 19.1219 13.844C19.0099 14.1333 18.9025 14.4133 18.7999 14.684C18.7065 14.9547 18.6085 15.2113 18.5059 15.454C18.2725 16.0513 18.0579 16.5693 17.8619 17.008C17.6659 17.4467 17.4932 17.8107 17.3439 18.1C17.2412 18.3053 17.1105 18.492 16.9519 18.66C16.8025 18.828 16.6299 18.9867 16.4339 19.136C15.9765 19.4813 15.5005 19.654 15.0059 19.654Z" fill="#888888"/>
</svg>
