<svg width="24" height="24" viewBox="0 0 24 24" fill="none" xmlns="http://www.w3.org/2000/svg">
<path d="M6.72949 15.9453C6.72949 15.9818 6.71126 16 6.6748 16H3.18164C3.14518 16 3.12695 15.9818 3.12695 15.9453V15.7812C3.12695 15.7448 3.15658 15.7266 3.21582 15.7266C3.84017 15.6992 4.26172 15.3665 4.48047 14.7285L7.26953 6.65527C7.27409 6.64616 7.27637 6.63477 7.27637 6.62109L7.20117 6.39551C7.20117 6.37272 7.21029 6.36133 7.22852 6.36133H8.5957C8.60482 6.36589 8.61621 6.37044 8.62988 6.375C8.64811 6.37956 8.66178 6.39323 8.6709 6.41602L11.5625 14.5303C11.6263 14.6533 11.6764 14.765 11.7129 14.8652C11.7539 14.9655 11.7995 15.0566 11.8496 15.1387C11.959 15.3255 12.139 15.4691 12.3896 15.5693C12.5993 15.6742 12.7907 15.7266 12.9639 15.7266C13.0003 15.7266 13.0186 15.7471 13.0186 15.7881V15.9453C13.0186 15.9818 13.0003 16 12.9639 16H8.78027C8.74382 16 8.72559 15.9818 8.72559 15.9453V15.7812C8.72559 15.7448 8.8099 15.722 8.97852 15.7129C9.14714 15.7038 9.28613 15.6947 9.39551 15.6855C10.029 15.6172 10.3457 15.403 10.3457 15.043C10.3457 15.0156 10.3411 14.9837 10.332 14.9473L9.2998 12.0352C9.29525 12.026 9.28613 12.0055 9.27246 11.9736C9.21777 11.8187 9.12207 11.7412 8.98535 11.7412H6.55859C6.42188 11.7412 6.31478 11.8164 6.2373 11.9668C6.22363 11.9987 6.2168 12.0169 6.2168 12.0215L5.19141 15.0225V15.084C5.19141 15.2025 5.25293 15.3096 5.37598 15.4053C5.65397 15.6195 6.02767 15.7266 6.49707 15.7266H6.6748C6.71126 15.7266 6.72949 15.7448 6.72949 15.7812V15.9453ZM8.75293 10.9824C8.83496 10.9824 8.87598 10.9482 8.87598 10.8799C8.87598 10.8434 8.86686 10.8024 8.84863 10.7568L7.83008 7.9541C7.78451 7.83105 7.75033 7.76953 7.72754 7.76953C7.70475 7.76953 7.66829 7.83333 7.61816 7.96094L6.66113 10.7568C6.6429 10.8024 6.63379 10.8525 6.63379 10.9072C6.63379 10.9574 6.66797 10.9824 6.73633 10.9824H8.75293ZM18.6582 10.3193C18.6582 10.3193 19.2689 10.292 20.4902 10.2373C20.5951 10.2373 20.6634 10.2487 20.6953 10.2715C20.7272 10.2943 20.7614 10.374 20.7979 10.5107C20.8343 10.6429 20.8525 10.7682 20.8525 10.8867C20.8525 11.0052 20.8411 11.0736 20.8184 11.0918C20.7956 11.11 20.75 11.1191 20.6816 11.1191H19.1641C19.1914 11.1693 19.221 11.2217 19.2529 11.2764C19.2848 11.3311 19.3258 11.4222 19.376 11.5498C19.4261 11.6774 19.4512 11.8757 19.4512 12.1445C19.4512 12.4089 19.3851 12.6868 19.2529 12.9785C19.1253 13.2656 18.9362 13.5208 18.6855 13.7441C18.1296 14.2454 17.4095 14.4961 16.5254 14.4961C16.293 14.4961 16.0378 14.4528 15.7598 14.3662C15.6914 14.4391 15.6003 14.5075 15.4863 14.5713C15.3724 14.6305 15.2607 14.6921 15.1514 14.7559C14.8779 14.9108 14.7412 15.0658 14.7412 15.2207C14.7412 15.6081 15.3838 15.8063 16.6689 15.8154C17.9541 15.8245 18.7972 15.8678 19.1982 15.9453C19.6038 16.0182 19.9183 16.1663 20.1416 16.3896C20.4925 16.7406 20.668 17.1416 20.668 17.5928C20.668 17.9801 20.5016 18.3789 20.1689 18.7891C19.5902 19.5137 18.7061 19.9967 17.5166 20.2383C17.0928 20.3249 16.6439 20.3682 16.1699 20.3682C15.3086 20.3682 14.6546 20.2109 14.208 19.8965C13.7614 19.5866 13.5381 19.2106 13.5381 18.7686C13.5381 18.527 13.5951 18.3265 13.709 18.167C13.8229 18.012 13.9665 17.8639 14.1396 17.7227C14.3174 17.5859 14.5111 17.4401 14.7207 17.2852C14.9303 17.1348 15.1309 16.9411 15.3223 16.7041C14.8848 16.6676 14.5088 16.5286 14.1943 16.2871C13.8844 16.0456 13.7295 15.8086 13.7295 15.5762C13.7295 15.3438 13.791 15.1729 13.9141 15.0635C14.0371 14.9495 14.1875 14.8538 14.3652 14.7764C14.543 14.6943 14.7298 14.6191 14.9258 14.5508C15.1217 14.4824 15.2926 14.3936 15.4385 14.2842C14.9281 14.0837 14.5339 13.8079 14.2559 13.457C13.9779 13.1016 13.8389 12.7142 13.8389 12.2949C13.8389 11.5156 14.1214 10.8799 14.6865 10.3877C15.2562 9.89551 15.9421 9.64941 16.7441 9.64941C17.5462 9.64941 18.1842 9.87272 18.6582 10.3193ZM14.9395 17.4492C14.8346 17.554 14.748 17.6657 14.6797 17.7842C14.6113 17.9027 14.5771 18.0508 14.5771 18.2285C14.5771 18.4108 14.641 18.5999 14.7686 18.7959C14.9007 18.9964 15.0785 19.1764 15.3018 19.3359C15.7939 19.7005 16.3864 19.8828 17.0791 19.8828C17.7718 19.8828 18.3984 19.68 18.959 19.2744C19.5241 18.8734 19.8066 18.4313 19.8066 17.9482C19.8066 17.4697 19.5742 17.1484 19.1094 16.9844C18.8906 16.9115 18.3278 16.8659 17.4209 16.8477C16.514 16.8294 15.9261 16.8044 15.6572 16.7725C15.5387 16.9092 15.4157 17.0299 15.2881 17.1348C15.165 17.2396 15.0488 17.3444 14.9395 17.4492ZM18.3301 12.1377C18.3301 11.4951 18.1683 10.9733 17.8447 10.5723C17.5257 10.1667 17.1019 9.96387 16.5732 9.96387C15.8896 9.96387 15.4066 10.2852 15.124 10.9277C15.0146 11.1738 14.96 11.4564 14.96 11.7754C14.96 12.4271 15.0944 12.9694 15.3633 13.4023C15.6914 13.9219 16.1221 14.1816 16.6553 14.1816C17.1885 14.1816 17.6009 14.0016 17.8926 13.6416C18.1842 13.2816 18.3301 12.7803 18.3301 12.1377Z" fill="#333333"/>
</svg>
