<svg width="24" height="24" viewBox="0 0 24 24" fill="none" xmlns="http://www.w3.org/2000/svg">
<path d="M3.18066 15.918C3.18066 15.7904 3.22852 15.7266 3.32422 15.7266H3.47461C3.64779 15.7266 3.77995 15.6947 3.87109 15.6309C3.96224 15.5625 4.12174 15.3802 4.34961 15.084C4.57747 14.7832 4.89421 14.3685 5.2998 13.8398C5.70996 13.3112 6.12012 12.778 6.53027 12.2402C6.94499 11.7025 7.35514 11.167 7.76074 10.6338C8.1709 10.1006 8.56283 9.59017 8.93652 9.10254C9.31478 8.61035 9.66797 8.15007 9.99609 7.72168C10.3288 7.28874 10.5703 6.97428 10.7207 6.77832C10.8711 6.58236 10.9805 6.45703 11.0488 6.40234C11.1217 6.3431 11.2106 6.31348 11.3154 6.31348H11.4932C11.6253 6.31348 11.7096 6.34993 11.7461 6.42285C11.7826 6.49121 11.8031 6.5778 11.8076 6.68262L12.0059 14.9746C12.0195 15.3574 12.2542 15.5944 12.71 15.6855C12.833 15.7129 12.9515 15.7266 13.0654 15.7266H13.3662C13.4255 15.7266 13.4551 15.7607 13.4551 15.8291V15.9043C13.4551 15.9681 13.4232 16 13.3594 16H9.11426C9.05046 16 9.01855 15.9749 9.01855 15.9248V15.7949C9.01855 15.7493 9.07552 15.7266 9.18945 15.7266C9.30339 15.7266 9.42188 15.722 9.54492 15.7129C9.67253 15.7038 9.77962 15.6901 9.86621 15.6719C10.1943 15.6172 10.4085 15.5238 10.5088 15.3916C10.609 15.2594 10.6774 15.1341 10.7139 15.0156C10.7686 14.8424 10.7959 14.5964 10.7959 14.2773L10.748 12.3086V12.1855C10.748 11.985 10.6273 11.8848 10.3857 11.8848H7.6377C7.4554 11.8848 7.30729 11.9622 7.19336 12.1172C6.96094 12.4316 6.72396 12.7415 6.48242 13.0469C6.24544 13.3522 6.05404 13.6029 5.9082 13.7988C5.76237 13.9902 5.65983 14.127 5.60059 14.209C5.54134 14.291 5.48665 14.3753 5.43652 14.4619C5.32259 14.6579 5.26562 14.8538 5.26562 15.0498C5.26562 15.2458 5.34993 15.4076 5.51855 15.5352C5.69173 15.6628 5.91732 15.7266 6.19531 15.7266H6.53027C6.58952 15.7266 6.61914 15.7516 6.61914 15.8018C6.60091 15.9157 6.57812 15.9772 6.55078 15.9863C6.52799 15.9954 6.49382 16 6.44824 16H3.31055C3.22396 16 3.18066 15.9727 3.18066 15.918ZM10.7207 11.0303L10.6455 7.96777C10.6455 7.84473 10.6227 7.7832 10.5771 7.7832C10.527 7.78776 10.4587 7.84928 10.3721 7.96777C10.2855 8.08626 10.151 8.26628 9.96875 8.50781C9.78646 8.74935 9.58594 9.00911 9.36719 9.28711C8.88411 9.9069 8.54004 10.3535 8.33496 10.627C8.12988 10.8958 8.01595 11.0462 7.99316 11.0781C7.97038 11.1055 7.94759 11.1351 7.9248 11.167C7.86556 11.249 7.83594 11.3037 7.83594 11.3311C7.83594 11.3584 7.84733 11.3721 7.87012 11.3721H10.3926C10.4928 11.3721 10.5726 11.3424 10.6318 11.2832C10.6911 11.2194 10.7207 11.1351 10.7207 11.0303ZM19.5801 10.3877C19.5801 10.4561 19.5391 10.4902 19.457 10.4902H18.6504C18.6686 10.5677 18.6914 10.6543 18.7188 10.75C18.7507 10.8411 18.7803 10.946 18.8076 11.0645C18.8714 11.3333 18.9033 11.6227 18.9033 11.9326C18.9033 12.238 18.8555 12.5251 18.7598 12.7939C18.6686 13.0628 18.5456 13.3112 18.3906 13.5391C18.1354 13.9128 17.748 14.3115 17.2285 14.7354C17.0508 14.8812 16.7842 15.0316 16.4287 15.1865C16.0778 15.3415 15.8431 15.4554 15.7246 15.5283C15.6061 15.6012 15.5469 15.7038 15.5469 15.8359C15.5469 15.9635 15.6152 16.1071 15.752 16.2666C15.8887 16.4261 16.0596 16.5833 16.2646 16.7383C16.4743 16.8932 16.6976 17.0505 16.9346 17.21C17.1761 17.3695 17.3994 17.5358 17.6045 17.709C18.0876 18.11 18.3291 18.4997 18.3291 18.8779C18.3291 19.5387 17.764 19.9922 16.6338 20.2383C16.2282 20.3294 15.8158 20.375 15.3965 20.375C14.9772 20.375 14.5807 20.359 14.207 20.3271C13.8333 20.2952 13.5075 20.2337 13.2295 20.1426C12.6143 19.9512 12.3066 19.6139 12.3066 19.1309C12.3066 18.7572 12.5938 18.3721 13.168 17.9756C13.4779 17.7614 13.7627 17.5837 14.0225 17.4424C14.2822 17.3011 14.4554 17.2031 14.542 17.1484C14.7972 16.9935 14.9453 16.8955 14.9863 16.8545C14.9635 16.7679 14.9339 16.679 14.8975 16.5879C14.861 16.5013 14.8428 16.4102 14.8428 16.3145C14.8428 16.2188 14.8587 16.1344 14.8906 16.0615C14.9225 15.9886 14.9635 15.9202 15.0137 15.8564C15.0684 15.7926 15.1299 15.7266 15.1982 15.6582C15.3669 15.4987 15.4512 15.4053 15.4512 15.3779C15.4512 15.3506 15.4261 15.3118 15.376 15.2617C15.3304 15.207 15.2757 15.1478 15.2119 15.084C15.0752 14.9655 14.9613 14.8584 14.8701 14.7627C14.7835 14.6624 14.7038 14.5439 14.6309 14.4072C14.5625 14.2705 14.5055 14.1247 14.46 13.9697C14.3779 13.6689 14.3369 13.375 14.3369 13.0879C14.3369 12.7962 14.387 12.5228 14.4873 12.2676C14.5876 12.0124 14.7243 11.7663 14.8975 11.5293C15.0706 11.2923 15.2689 11.0713 15.4922 10.8662C15.7201 10.6611 15.9616 10.4834 16.2168 10.333C16.7637 10.0094 17.2855 9.84766 17.7822 9.84766C18.7848 9.84766 19.3704 9.89779 19.5391 9.99805C19.5664 10.0117 19.5801 10.0368 19.5801 10.0732V10.3877ZM13.585 18.1328C13.4574 18.2604 13.3548 18.3926 13.2773 18.5293C13.1953 18.6706 13.1543 18.8415 13.1543 19.042C13.1543 19.2425 13.2113 19.4202 13.3252 19.5752C13.4346 19.7347 13.5941 19.86 13.8037 19.9512C14.1592 20.1016 14.7357 20.1768 15.5332 20.1768C16.194 20.1768 16.7432 20.0446 17.1807 19.7803C17.4678 19.6071 17.6113 19.3883 17.6113 19.124C17.6113 18.8232 17.3128 18.4701 16.7158 18.0645C16.5518 17.9505 16.3831 17.8366 16.21 17.7227L15.1982 17.0391C15.1253 17.0938 15.0228 17.1576 14.8906 17.2305C14.763 17.3034 14.624 17.3854 14.4736 17.4766C14.3232 17.5723 14.1683 17.6748 14.0088 17.7842C13.8538 17.8936 13.7126 18.0098 13.585 18.1328ZM18.0146 11.5977C18.0146 10.6543 17.707 10.1826 17.0918 10.1826C16.7546 10.1826 16.4378 10.3672 16.1416 10.7363C15.7542 11.2376 15.4945 11.9121 15.3623 12.7598C15.3213 13.0104 15.3008 13.2292 15.3008 13.416C15.3008 13.5983 15.3145 13.776 15.3418 13.9492C15.3737 14.1178 15.4261 14.2728 15.499 14.4141C15.6676 14.7513 15.9183 14.9199 16.251 14.9199C16.4652 14.9199 16.6885 14.8014 16.9209 14.5645C17.1579 14.3229 17.3379 14.0905 17.4609 13.8672C17.5885 13.6439 17.6934 13.4092 17.7754 13.1631C17.9349 12.6846 18.0146 12.1628 18.0146 11.5977Z" fill="#888888"/>
</svg>
