<svg width="24" height="24" viewBox="0 0 24 24" fill="none" xmlns="http://www.w3.org/2000/svg">
<path d="M9.36373 13.122H7.50173L8.41173 10.532L9.36373 13.122ZM7.17973 7.48L3.60973 17H6.14373L6.80173 15.124H10.0917L10.7777 17.14L13.2837 16.888L9.72773 7.48H7.17973ZM20.7449 10.224H19.4709L18.1969 11.82V17.21C18.1969 17.4807 18.0662 17.7047 17.8049 17.882C17.5529 18.0687 17.2262 18.162 16.8249 18.162C16.5449 18.162 16.2275 18.1293 15.8729 18.064C15.5275 18.008 15.1262 17.868 14.6689 17.644L13.8989 19.436C14.1229 19.576 14.3795 19.6973 14.6689 19.8C14.9675 19.9027 15.2662 19.982 15.5649 20.038C15.8729 20.1033 16.1529 20.15 16.4049 20.178C16.6662 20.206 16.8669 20.22 17.0069 20.22C17.7629 20.22 18.4209 20.0893 18.9809 19.828C19.5409 19.576 19.9749 19.2213 20.2829 18.764C20.5909 18.316 20.7449 17.8027 20.7449 17.224V10.224ZM19.0229 14.27C18.7522 14.55 18.5002 14.774 18.2669 14.942C18.0335 15.11 17.8049 15.194 17.5809 15.194C17.3195 15.194 17.0955 15.1333 16.9089 15.012C16.7222 14.8907 16.5775 14.7133 16.4749 14.48C16.3815 14.2373 16.3349 13.9433 16.3349 13.598C16.3349 13.2433 16.3862 12.9447 16.4889 12.702C16.5915 12.45 16.7269 12.2587 16.8949 12.128C17.0722 11.9973 17.2635 11.932 17.4689 11.932C17.7115 11.932 17.9635 12.002 18.2249 12.142C18.4862 12.2727 18.7522 12.464 19.0229 12.716L19.7369 11.218C19.4755 10.9193 19.2095 10.6813 18.9389 10.504C18.6775 10.3173 18.4069 10.182 18.1269 10.098C17.8562 10.014 17.5809 9.972 17.3009 9.972C16.5915 9.972 15.9662 10.1073 15.4249 10.378C14.8835 10.6487 14.4589 11.0547 14.1509 11.596C13.8522 12.128 13.7029 12.8 13.7029 13.612C13.7029 14.4147 13.8522 15.082 14.1509 15.614C14.4589 16.1367 14.8742 16.524 15.3969 16.776C15.9289 17.028 16.5262 17.154 17.1889 17.154C17.5435 17.154 17.8795 17.0933 18.1969 16.972C18.5235 16.8507 18.8175 16.6967 19.0789 16.51C19.3495 16.314 19.5689 16.1133 19.7369 15.908L19.0229 14.27Z" fill="#888888"/>
</svg>
