<svg width="24" height="24" viewBox="0 0 24 24" fill="none" xmlns="http://www.w3.org/2000/svg">
<path d="M8.03745 6.48H8.68145L12.3075 15.93L11.6075 16.084L10.4735 13.018H6.34345L5.26545 16H4.57945L8.03745 6.48ZM10.2775 12.472L8.37345 7.404L6.53945 12.472H10.2775ZM18.4992 9.21V16.868C18.4992 17.54 18.2705 18.1 17.8132 18.548C17.3652 18.996 16.6978 19.22 15.8112 19.22C15.6338 19.22 15.3958 19.1967 15.0972 19.15C14.7985 19.1033 14.4998 19.0333 14.2012 18.94C13.9118 18.856 13.6785 18.758 13.5012 18.646L13.7672 18.156C14.0845 18.296 14.3925 18.4127 14.6912 18.506C14.9898 18.5993 15.3538 18.646 15.7832 18.646C16.3525 18.646 16.8332 18.5107 17.2252 18.24C17.6172 17.9787 17.8132 17.568 17.8132 17.008V15.454C17.5612 15.678 17.2765 15.8553 16.9592 15.986C16.6512 16.1167 16.3105 16.182 15.9372 16.182C15.2745 16.182 14.7238 16.028 14.2852 15.72C13.8558 15.412 13.5338 14.9873 13.3192 14.446C13.1138 13.8953 13.0112 13.27 13.0112 12.57C13.0112 11.8887 13.1232 11.282 13.3472 10.75C13.5712 10.218 13.9072 9.798 14.3552 9.49C14.8125 9.182 15.3725 9.028 16.0352 9.028C16.3898 9.028 16.7398 9.10733 17.0852 9.266C17.4305 9.42467 17.7198 9.59733 17.9532 9.784L18.1212 9.21H18.4992ZM13.7252 12.556C13.7252 13.1067 13.8045 13.6153 13.9632 14.082C14.1218 14.5487 14.3645 14.922 14.6912 15.202C15.0178 15.4727 15.4332 15.608 15.9372 15.608C16.3852 15.608 16.7492 15.5193 17.0292 15.342C17.3185 15.1647 17.5798 14.95 17.8132 14.698V10.372C17.5892 10.1667 17.3278 9.98933 17.0292 9.84C16.7305 9.68133 16.3898 9.602 16.0072 9.602C15.5125 9.602 15.0925 9.73733 14.7472 10.008C14.4112 10.2787 14.1545 10.638 13.9772 11.086C13.8092 11.534 13.7252 12.024 13.7252 12.556Z" fill="#333333"/>
</svg>
