<svg width="24" height="24" viewBox="0 0 24 24" fill="none" xmlns="http://www.w3.org/2000/svg">
<path d="M6.229 17.462C6.061 17.3687 5.96767 17.266 5.949 17.154C5.93967 17.042 6.005 16.846 6.145 16.566C6.285 16.286 6.50433 15.852 6.803 15.264C7.027 14.844 7.17633 14.5173 7.251 14.284C7.335 14.0413 7.38167 13.8687 7.391 13.766C7.40033 13.6633 7.405 13.598 7.405 13.57C7.38633 13.486 7.39567 13.4207 7.433 13.374C7.47033 13.318 7.531 13.2713 7.615 13.234C7.66167 13.1873 7.769 13.1033 7.937 12.982C8.105 12.8607 8.23567 12.716 8.329 12.548C8.413 12.352 8.50633 12.1513 8.609 11.946C8.721 11.7407 8.86567 11.484 9.043 11.176C9.22033 10.8587 9.45833 10.448 9.757 9.944C9.94367 9.61733 10.163 9.24867 10.415 8.838C10.6763 8.42733 10.933 8.054 11.185 7.718C11.2877 7.58733 11.395 7.48467 11.507 7.41C11.619 7.33533 11.717 7.298 11.801 7.298C12.0063 7.298 12.2117 7.354 12.417 7.466C12.6223 7.56867 12.8043 7.69933 12.963 7.858C13.1217 8.01667 13.229 8.166 13.285 8.306C13.3317 8.38067 13.3503 8.53933 13.341 8.782C13.3317 9.02467 13.313 9.31867 13.285 9.664C13.257 10.0093 13.2243 10.378 13.187 10.77C13.159 11.1527 13.117 11.6053 13.061 12.128C13.005 12.6507 12.949 13.1967 12.893 13.766C12.8463 14.3353 12.809 14.886 12.781 15.418C12.753 15.9407 12.753 16.398 12.781 16.79C12.7903 16.874 12.7903 16.9533 12.781 17.028C12.7717 17.1027 12.767 17.1633 12.767 17.21C12.711 17.266 12.5897 17.2893 12.403 17.28C12.2163 17.28 12.0343 17.252 11.857 17.196C11.6797 17.14 11.5817 17.07 11.563 16.986C11.535 16.958 11.5163 16.9347 11.507 16.916C11.4977 16.8973 11.4977 16.8087 11.507 16.65C11.5163 16.482 11.5303 16.1787 11.549 15.74L11.619 13.598L11.437 13.612C11.353 13.612 11.199 13.6213 10.975 13.64C10.7603 13.6587 10.5223 13.6867 10.261 13.724C10.009 13.752 9.77567 13.7847 9.561 13.822C9.34633 13.85 9.197 13.878 9.113 13.906C9.029 13.906 8.92633 13.962 8.805 14.074C8.693 14.186 8.58567 14.3307 8.483 14.508C8.44567 14.6387 8.37567 14.7787 8.273 14.928C8.17967 15.068 8.133 15.1613 8.133 15.208C8.06767 15.2547 8.01167 15.3107 7.965 15.376C7.92767 15.4413 7.909 15.474 7.909 15.474C7.909 15.53 7.867 15.67 7.783 15.894C7.699 16.1087 7.59633 16.3513 7.475 16.622C7.35367 16.8833 7.22767 17.112 7.097 17.308L6.719 17.84L6.229 17.462ZM9.575 12.646C9.575 12.646 9.62633 12.6367 9.729 12.618C9.83167 12.5993 9.953 12.5807 10.093 12.562C10.2423 12.534 10.373 12.52 10.485 12.52C10.6997 12.464 10.877 12.422 11.017 12.394C11.1663 12.366 11.2877 12.352 11.381 12.352C11.4743 12.3427 11.549 12.352 11.605 12.38C11.6423 12.4267 11.675 12.4547 11.703 12.464C11.7403 12.4733 11.759 12.478 11.759 12.478C11.7683 12.4593 11.787 12.3613 11.815 12.184C11.843 12.0067 11.8757 11.7873 11.913 11.526C11.9503 11.2647 11.9877 10.994 12.025 10.714C12.0623 10.4247 12.095 10.1587 12.123 9.916C12.151 9.664 12.1697 9.468 12.179 9.328C12.1883 9.15067 12.1837 8.992 12.165 8.852C12.1463 8.70267 12.137 8.628 12.137 8.628C12.081 8.628 11.9737 8.73067 11.815 8.936C11.6657 9.132 11.4883 9.398 11.283 9.734C11.087 10.0607 10.891 10.4153 10.695 10.798C10.6017 10.9753 10.513 11.1153 10.429 11.218C10.3543 11.3207 10.2937 11.372 10.247 11.372C10.2283 11.3907 10.177 11.4653 10.093 11.596C10.0183 11.7173 9.93433 11.8573 9.841 12.016C9.757 12.1653 9.68233 12.3053 9.617 12.436C9.561 12.5573 9.547 12.6273 9.575 12.646ZM15.5214 19.8C15.2601 19.9027 14.9847 19.884 14.6954 19.744C14.4154 19.6133 14.1727 19.4033 13.9674 19.114C13.9301 19.058 13.8741 18.9553 13.7994 18.806C13.7247 18.666 13.6501 18.512 13.5754 18.344C13.5101 18.176 13.4587 18.0313 13.4214 17.91C13.3934 17.7887 13.3934 17.7187 13.4214 17.7C13.4587 17.5973 13.5427 17.5367 13.6734 17.518C13.8041 17.4993 13.9347 17.504 14.0654 17.532C14.1961 17.5693 14.2707 17.616 14.2894 17.672C14.3174 17.7373 14.3454 17.8027 14.3734 17.868C14.4014 17.9427 14.4341 18.008 14.4714 18.064C14.5181 18.1293 14.5601 18.1853 14.5974 18.232C14.7001 18.3907 14.8121 18.498 14.9334 18.554C15.0547 18.6193 15.1481 18.6287 15.2134 18.582C15.3721 18.4607 15.4887 18.316 15.5634 18.148C15.6474 17.9893 15.7547 17.7047 15.8854 17.294C15.9881 16.9487 16.0767 16.65 16.1514 16.398C16.2261 16.146 16.3054 15.9127 16.3894 15.698C16.4174 15.586 16.4501 15.4927 16.4874 15.418C16.5341 15.334 16.5761 15.2733 16.6134 15.236H16.6974C16.4921 15.3667 16.3194 15.4973 16.1794 15.628C16.0394 15.7587 15.8481 15.8753 15.6054 15.978C15.5494 16.0433 15.4094 16.0853 15.1854 16.104C14.9707 16.1133 14.7607 16.0853 14.5554 16.02C14.4247 15.9453 14.3174 15.8707 14.2334 15.796C14.1587 15.712 14.0934 15.6187 14.0374 15.516C13.9907 15.4133 13.9394 15.292 13.8834 15.152C13.8181 15.012 13.8087 14.7833 13.8554 14.466C13.9021 14.1487 13.9861 13.8313 14.1074 13.514C14.2194 13.2807 14.3827 13.0287 14.5974 12.758C14.8121 12.4873 15.0407 12.2447 15.2834 12.03C15.5261 11.806 15.7454 11.666 15.9414 11.61C16.0161 11.5727 16.1467 11.5307 16.3334 11.484C16.5201 11.428 16.6974 11.4233 16.8654 11.47C17.0241 11.4887 17.1454 11.526 17.2294 11.582C17.3134 11.6287 17.4487 11.7313 17.6354 11.89C17.7567 12.0113 17.9061 12.17 18.0834 12.366C18.2607 12.5527 18.3727 12.7113 18.4194 12.842C18.4847 12.982 18.4987 13.136 18.4614 13.304C18.4241 13.4627 18.3587 13.6027 18.2654 13.724C18.1814 13.8453 18.0927 13.9667 17.9994 14.088C17.9061 14.2093 17.8361 14.3773 17.7894 14.592C17.7427 14.872 17.6541 15.1893 17.5234 15.544C17.3927 15.8893 17.2901 16.2113 17.2154 16.51L16.9914 17.378C16.7581 18.1713 16.5014 18.7453 16.2214 19.1C15.9414 19.464 15.7081 19.6973 15.5214 19.8ZM15.2274 14.984C15.4141 14.9747 15.5727 14.956 15.7034 14.928C15.8434 14.8907 15.9741 14.816 16.0954 14.704C16.2167 14.5827 16.3567 14.4007 16.5154 14.158C16.6741 13.934 16.7861 13.7287 16.8514 13.542C16.9167 13.3553 16.9401 13.1453 16.9214 12.912C16.9121 12.7627 16.8701 12.6647 16.7954 12.618C16.7207 12.5713 16.6227 12.5573 16.5014 12.576C16.3241 12.604 16.1654 12.6787 16.0254 12.8C15.8854 12.912 15.7221 13.0893 15.5354 13.332C15.3954 13.5187 15.2787 13.7427 15.1854 14.004C15.0921 14.284 15.0501 14.508 15.0594 14.676C15.0781 14.844 15.1341 14.9467 15.2274 14.984Z" fill="#888888"/>
</svg>
