<svg width="24" height="24" viewBox="0 0 24 24" fill="none" xmlns="http://www.w3.org/2000/svg">
<path d="M9.08285 13.22C9.10152 13.2013 9.20885 13.1827 9.40485 13.164C9.61019 13.136 9.84819 13.052 10.1189 12.912C10.1282 12.912 10.1235 12.8 10.1049 12.576C10.0769 12.184 10.0535 11.904 10.0349 11.736C10.0162 11.512 9.99752 11.3533 9.97885 11.26C9.97885 11.0827 9.90885 10.714 9.76885 10.154L9.15285 12.24C9.02219 12.8187 8.97085 13.1733 8.99885 13.304L9.08285 13.22ZM7.19285 13.626L7.27685 13.01C7.27685 12.8887 7.29552 12.7673 7.33285 12.646C7.33285 12.4873 7.41218 12.2493 7.57085 11.932C7.57085 11.9133 7.61285 11.792 7.69685 11.568C7.69685 11.5493 7.78552 11.274 7.96285 10.742L8.13085 10.336C8.13085 10.2987 8.15418 10.2287 8.20085 10.126C8.24752 10.014 8.28018 9.90667 8.29885 9.804C8.32685 9.692 8.35952 9.58467 8.39685 9.482C8.52752 9.23 8.64418 9.01533 8.74685 8.838C8.94285 8.46467 9.30685 8.29667 9.83885 8.334L10.2869 8.376C10.5669 8.45067 10.7815 8.53 10.9309 8.614C11.1455 8.698 11.2902 8.79133 11.3649 8.894C11.4395 8.98733 11.4722 9.146 11.4629 9.37C11.4722 9.482 11.5002 9.96733 11.5469 10.826C11.5935 11.6847 11.6169 12.1187 11.6169 12.128L11.6869 12.73C11.6869 12.786 11.7895 13.458 11.9949 14.746L12.3029 15.726C12.4895 16.2487 12.5875 16.524 12.5969 16.552C12.6155 16.5707 12.6575 16.6687 12.7229 16.846C12.8255 17.154 12.7369 17.3593 12.4569 17.462C12.2049 17.4993 12.0182 17.476 11.8969 17.392C11.8502 17.392 11.7429 17.35 11.5749 17.266C11.5562 17.2193 11.5002 17.1727 11.4069 17.126C11.3229 17.0887 11.2669 17.056 11.2389 17.028C11.1362 17 11.0429 16.8553 10.9589 16.594C10.9309 16.5753 10.8795 16.5007 10.8049 16.37C10.7395 16.2393 10.7209 16.132 10.7489 16.048C10.6835 15.964 10.6509 15.7913 10.6509 15.53C10.5669 15.39 10.5249 15.1707 10.5249 14.872C10.5249 14.5733 10.4782 14.34 10.3849 14.172C9.90885 14.3867 9.40019 14.5033 8.85885 14.522C8.75618 14.522 8.70485 14.5407 8.70485 14.578C8.70485 14.662 8.67685 14.8113 8.62085 15.026L8.38285 16.566C8.47618 17.2567 8.39218 17.6207 8.13085 17.658C8.05619 17.658 7.93018 17.6767 7.75285 17.714C7.58485 17.7513 7.44485 17.7187 7.33285 17.616C7.11818 17.4947 6.96418 17.3687 6.87085 17.238C6.78685 17.1167 6.74952 16.9767 6.75885 16.818C6.76818 16.6873 6.79152 16.4073 6.82885 15.978C6.84752 15.9593 6.85218 15.8567 6.84285 15.67C6.84285 15.474 6.85685 15.3247 6.88485 15.222L7.10885 14.354C7.13685 14.3353 7.17418 14.1953 7.22085 13.934C7.21152 13.9153 7.20685 13.8687 7.20685 13.794L7.19285 13.626ZM15.212 14.27L15.24 14.816L15.338 15.082L15.478 15.362C15.506 15.558 15.5993 15.6747 15.758 15.712C15.87 15.7307 15.9773 15.67 16.08 15.53C16.136 15.4833 16.178 15.4507 16.206 15.432C16.262 15.3853 16.29 15.2827 16.29 15.124C16.29 14.956 16.304 14.8207 16.332 14.718C16.3227 14.6713 16.3273 14.508 16.346 14.228C16.374 13.9387 16.3973 13.7193 16.416 13.57C16.444 13.4113 16.4533 13.304 16.444 13.248C16.3787 13.164 16.318 12.9913 16.262 12.73C16.0753 12.5433 15.9493 12.4407 15.884 12.422C15.6787 12.3473 15.5527 12.338 15.506 12.394C15.4407 12.4593 15.3707 12.7673 15.296 13.318C15.24 13.4113 15.212 13.5327 15.212 13.682C15.2213 13.822 15.2213 13.9293 15.212 14.004V14.27ZM17.816 13.892C17.8533 14.3587 17.872 14.7227 17.872 14.984L17.886 15.166L17.858 16.02C17.858 16.1507 17.8533 16.272 17.844 16.384V16.608L17.788 16.972V17.112C17.788 17.4573 17.6293 17.9473 17.312 18.582C17.2 18.8153 17.0273 19.0533 16.794 19.296C16.402 19.716 15.9213 19.9353 15.352 19.954C14.876 19.954 14.526 19.856 14.302 19.66L14.162 19.59C14.05 19.534 13.924 19.3567 13.784 19.058C13.784 19.03 13.7607 18.9693 13.714 18.876C13.714 18.7453 13.742 18.6427 13.798 18.568C13.8353 18.4933 13.9613 18.428 14.176 18.372C14.2693 18.3533 14.442 18.4467 14.694 18.652C14.8807 18.8573 15.1 18.9647 15.352 18.974C15.6133 19.0113 15.814 18.89 15.954 18.61C16.094 18.33 16.2013 17.9567 16.276 17.49C16.3133 17.3127 16.332 17.112 16.332 16.888C16.332 16.664 16.3227 16.5147 16.304 16.44C16.052 16.5707 15.828 16.6267 15.632 16.608H15.506C15.4313 16.6267 15.3193 16.6267 15.17 16.608C15.0207 16.58 14.8807 16.5193 14.75 16.426L14.484 16.244C14.4933 16.2533 14.4887 16.258 14.47 16.258L14.4 16.216L14.204 16.062C14.12 16.0153 14.078 15.9267 14.078 15.796C14.0127 15.7587 13.966 15.712 13.938 15.656C13.8633 15.628 13.826 15.5627 13.826 15.46L13.756 15.18C13.756 15.1333 13.7327 15.0167 13.686 14.83C13.6393 14.7553 13.6253 14.6807 13.644 14.606C13.672 14.5313 13.686 14.4707 13.686 14.424L13.728 13.948V13.85C13.7 13.822 13.7 13.7333 13.728 13.584C13.756 13.528 13.77 13.486 13.77 13.458C13.826 13.1593 13.868 12.9727 13.896 12.898C13.924 12.814 13.9427 12.7207 13.952 12.618C13.9707 12.5153 14.008 12.422 14.064 12.338L14.204 12.016C14.26 11.9133 14.4093 11.7687 14.652 11.582C14.7453 11.4887 14.862 11.428 15.002 11.4L15.394 11.428L15.8 11.526C15.8093 11.526 15.982 11.596 16.318 11.736C16.318 11.5587 16.4067 11.4093 16.584 11.288C16.6587 11.2133 16.822 11.2087 17.074 11.274H17.2C17.3027 11.2647 17.4147 11.3067 17.536 11.4C17.592 11.4653 17.6527 11.6147 17.718 11.848C17.7833 12.716 17.816 13.3973 17.816 13.892Z" fill="#888888"/>
</svg>
