<svg width="24" height="24" viewBox="0 0 24 24" fill="none" xmlns="http://www.w3.org/2000/svg">
<path d="M12.2925 6.62C12.2658 7.34 12.2525 8.16 12.2525 9.08C12.2525 10 12.2992 11.0733 12.3925 12.3C12.4992 13.5133 12.6258 14.36 12.7725 14.84L12.9925 15.54C12.0992 16.2467 10.8525 17.0133 9.2525 17.84C9.26583 17.36 9.2725 16.8867 9.2725 16.42C9.2725 15.9533 9.26583 15.5 9.2525 15.06C8.71917 15.1533 8.19917 15.2 7.6925 15.2C7.19917 15.2 6.7925 15.1933 6.4725 15.18C6.28583 15.7133 6.02583 16.5267 5.6925 17.62C5.2125 17.38 4.68583 17.0133 4.1125 16.52C3.53917 16.0133 3.0925 15.5133 2.7725 15.02C3.18583 14.6067 3.56583 14.02 3.9125 13.26C4.65917 11.6733 5.33917 9.79333 5.9525 7.62C8.8325 7.40667 10.9458 7.07333 12.2925 6.62ZM8.8325 9.74C8.32583 10.5 7.7125 11.8267 6.9925 13.72C7.2725 13.7333 8.00583 13.74 9.1925 13.74C9.1125 12.3533 9.0125 11.18 8.8925 10.22L8.8325 9.74ZM13.3673 17.24C13.7673 17.4667 14.4607 17.58 15.4473 17.58C16.434 17.58 17.2273 17.26 17.8273 16.62C18.4273 15.9667 18.814 15.18 18.9873 14.26C18.654 14.78 18.2473 15.2467 17.7673 15.66C17.3007 16.06 16.914 16.3333 16.6073 16.48L16.1273 16.7C15.3673 16.5667 14.734 16.2267 14.2273 15.68C13.694 15.12 13.4273 14.64 13.4273 14.24C13.4273 13.8267 13.514 13.38 13.6873 12.9C13.8607 12.42 14.114 11.9333 14.4473 11.44C14.794 10.9333 15.254 10.5067 15.8273 10.16C16.4007 9.8 17.0207 9.62 17.6873 9.62C18.2873 9.62 18.7807 9.8 19.1673 10.16C19.5007 10.48 19.7473 10.8267 19.9073 11.2C18.694 11.3467 17.7873 11.8067 17.1873 12.58C16.5873 13.34 16.2873 14.1 16.2873 14.86C16.2873 14.94 16.2873 15.02 16.2873 15.1C16.354 15.0733 16.5473 14.9333 16.8673 14.68C17.2007 14.4267 17.4807 14.1867 17.7073 13.96C18.2807 13.4 18.7807 12.7533 19.2073 12.02L19.9673 8.7C20.6073 8.78 21.154 8.94667 21.6073 9.2C22.0607 9.45333 22.354 9.68667 22.4873 9.9L22.6873 10.22C22.6207 10.7267 22.494 11.2133 22.3073 11.68C22.134 12.1467 21.9673 12.4867 21.8073 12.7L21.5873 13.02C21.5607 15.1933 20.994 16.9067 19.8873 18.16C18.7807 19.4133 17.2273 20.04 15.2273 20.04C15.0007 19.9333 14.7607 19.7067 14.5073 19.36C14.014 18.7067 13.634 18 13.3673 17.24Z" fill="#888888"/>
</svg>
