<svg width="24" height="24" viewBox="0 0 24 24" fill="none" xmlns="http://www.w3.org/2000/svg">
<path d="M7.17842 7.2H8.71842L12.2604 17H10.6084L9.76842 14.676H6.11442L5.27442 17H3.62242L7.17842 7.2ZM9.39042 13.318L7.94842 9.174H7.92042L6.50642 13.318H9.39042ZM19.6114 10.028V18.652L18.1694 20.08H14.4874L13.2694 18.862V17.938H14.8374V18.4L15.1874 18.75H17.4834L18.0294 18.19V16.006L16.9514 17H14.3474L12.9614 15.6V11.428L14.3474 10.028H17.0634L18.1274 11.064V10.028H19.6114ZM18.0294 12.436L16.9094 11.386H15.1314L14.5434 11.974V15.054L15.1314 15.642H16.7834L18.0294 14.424V12.436Z" fill="#888888"/>
</svg>
