<svg width="24" height="24" viewBox="0 0 24 24" fill="none" xmlns="http://www.w3.org/2000/svg">
<path d="M7.77413 7.2H8.54413L11.8621 17H11.3021L10.3081 14.046H6.01013L5.01613 17H4.45613L7.77413 7.2ZM10.1401 13.542L8.18013 7.732H8.13813L6.19213 13.542H10.1401ZM18.7672 10.028V18.918L17.6332 20.052H14.3992L13.4752 19.128V18.386H14.0072V18.946L14.6232 19.562H17.4092L18.2352 18.736V15.642L16.7232 17H14.2732L13.1252 15.852V11.176L14.2732 10.028H16.7512L18.2352 11.54V10.028H18.7672ZM18.2352 12.24L16.5412 10.518H14.4832L13.6572 11.344V15.684L14.4832 16.51H16.5412L18.2352 14.97V12.24Z" fill="#333333"/>
</svg>
