<svg width="24" height="24" viewBox="0 0 24 24" fill="none" xmlns="http://www.w3.org/2000/svg">
<path d="M9.78751 14.32H6.83351L6.37151 16H4.28551L6.70751 7.25H9.91351L12.3355 16H10.2495L9.78751 14.32ZM9.35351 12.766L8.37351 9.224H8.24751L7.26751 12.766H9.35351ZM16.4617 14.642C17.199 14.7353 17.7543 14.8473 18.1277 14.978C18.501 15.0993 18.7623 15.272 18.9117 15.496C19.061 15.7107 19.1357 16.0187 19.1357 16.42C19.1357 17.12 18.9023 17.6193 18.4357 17.918C17.969 18.226 17.2037 18.38 16.1397 18.38C15.001 18.38 13.9837 18.2307 13.0877 17.932L13.3397 16.448C14.217 16.6813 15.015 16.798 15.7337 16.798C16.2937 16.798 16.8023 16.756 17.2597 16.672V15.902C16.345 15.8367 15.6917 15.7573 15.2997 15.664C14.9077 15.5613 14.7117 15.426 14.7117 15.258L15.1177 13.928C14.3523 13.8347 13.8017 13.5873 13.4657 13.186C13.1297 12.7847 12.9617 12.1827 12.9617 11.38C12.9617 10.7547 13.0597 10.2553 13.2557 9.882C13.461 9.49933 13.783 9.224 14.2217 9.056C14.6697 8.87867 15.2623 8.79 15.9997 8.79C16.597 8.79 17.101 8.846 17.5117 8.958L18.6177 8.104L19.6257 9.084L18.8417 10.064C18.9817 10.4093 19.0517 10.848 19.0517 11.38C19.0517 12.248 18.8557 12.8827 18.4637 13.284C18.0717 13.676 17.423 13.9 16.5177 13.956L16.4617 14.642ZM14.9777 12.808H16.2937C16.5737 12.808 16.7697 12.7613 16.8817 12.668C16.9937 12.5653 17.0497 12.3927 17.0497 12.15V9.966H15.7197C15.4397 9.966 15.2437 10.0127 15.1317 10.106C15.029 10.1993 14.9777 10.372 14.9777 10.624V12.808Z" fill="#333333"/>
</svg>
