<svg width="24" height="24" viewBox="0 0 24 24" fill="none" xmlns="http://www.w3.org/2000/svg">
<path d="M4.6908 16L7.3928 7.25H8.7228L11.4388 16H10.5288L8.1208 8.048H7.99481L5.6008 16H4.6908ZM5.8528 13.844V13.06H10.3048V13.844H5.8528ZM14.9882 13.942C14.3162 13.942 13.7936 13.872 13.4202 13.732C13.0562 13.5827 12.7996 13.3213 12.6502 12.948C12.5009 12.5747 12.4262 12.052 12.4262 11.38C12.4262 10.708 12.5009 10.1853 12.6502 9.812C12.7996 9.43867 13.0562 9.17733 13.4202 9.028C13.7936 8.86933 14.3162 8.79 14.9882 8.79C15.6602 8.79 16.1829 8.86933 16.5562 9.028C16.9296 9.17733 17.1909 9.43867 17.3402 9.812C17.4896 10.1853 17.5642 10.708 17.5642 11.38C17.5642 12.0427 17.4896 12.5607 17.3402 12.934C17.1909 13.3073 16.9296 13.5687 16.5562 13.718C16.1829 13.8673 15.6602 13.942 14.9882 13.942ZM13.3642 13.2H15.4082C15.8656 13.2 16.1829 13.1253 16.3602 12.976C16.5376 12.8267 16.6262 12.5607 16.6262 12.178V9.532H14.5962C14.1389 9.532 13.8169 9.60667 13.6302 9.756C13.4529 9.90533 13.3642 10.1713 13.3642 10.554V13.2ZM17.6482 16.644C17.6482 17.0547 17.5642 17.3767 17.3962 17.61C17.2376 17.8527 16.9669 18.0207 16.5842 18.114C16.2016 18.2167 15.6789 18.268 15.0162 18.268C14.5309 18.268 14.0596 18.2307 13.6022 18.156C13.1542 18.0813 12.7949 17.9833 12.5242 17.862L12.6502 17.106C13.1449 17.2273 13.5509 17.3113 13.8682 17.358C14.1949 17.4047 14.5262 17.428 14.8622 17.428C15.3009 17.428 15.6696 17.414 15.9682 17.386C16.2762 17.358 16.5702 17.3113 16.8502 17.246V16.014C15.8702 15.9673 15.1749 15.902 14.7642 15.818C14.3536 15.7247 14.1482 15.6033 14.1482 15.454L14.5402 13.816L15.1002 13.802L15.0162 15.188C15.5949 15.244 16.0569 15.3047 16.4022 15.37C16.7476 15.4353 17.0089 15.5193 17.1862 15.622C17.3729 15.7153 17.4942 15.8413 17.5502 16C17.6156 16.168 17.6482 16.3827 17.6482 16.644ZM17.1582 9.924L16.5282 9.238L17.6482 8.384L18.1242 8.874L17.1582 9.924Z" fill="#888888"/>
</svg>
