<svg width="24" height="24" viewBox="0 0 24 24" fill="none" xmlns="http://www.w3.org/2000/svg">
<path d="M9.09741 14.474H6.36741L5.96141 16H3.49741L5.82141 7.25H9.64341L11.9674 16H9.50341L9.09741 14.474ZM8.60741 12.668L7.79541 9.602H7.66941L6.85741 12.668H8.60741ZM16.2814 14.474C17 14.5673 17.546 14.684 17.9194 14.824C18.302 14.964 18.568 15.1507 18.7174 15.384C18.876 15.6173 18.9554 15.9393 18.9554 16.35C18.9554 17.0687 18.708 17.5913 18.2134 17.918C17.7187 18.254 16.9254 18.422 15.8334 18.422C14.6854 18.422 13.612 18.268 12.6134 17.96L12.9074 16.224C13.794 16.4667 14.6107 16.588 15.3574 16.588C15.8334 16.588 16.2954 16.56 16.7434 16.504V15.86C15.8567 15.7947 15.2174 15.7107 14.8254 15.608C14.4427 15.5053 14.2514 15.37 14.2514 15.202L14.6574 13.914C13.9014 13.8113 13.3507 13.5593 13.0054 13.158C12.66 12.7473 12.4874 12.1593 12.4874 11.394C12.4874 10.4793 12.7347 9.81667 13.2294 9.406C13.7334 8.99533 14.5454 8.79 15.6654 8.79C16.244 8.79 16.7247 8.83667 17.1074 8.93L18.2834 8.02L19.4734 9.154L18.6894 10.162C18.82 10.5073 18.8854 10.918 18.8854 11.394C18.8854 12.2247 18.68 12.8453 18.2694 13.256C17.868 13.6573 17.2147 13.8907 16.3094 13.956L16.2814 14.474ZM14.8394 12.682H15.9174C16.1414 12.682 16.2954 12.64 16.3794 12.556C16.4727 12.472 16.5194 12.332 16.5194 12.136V10.092H15.4274C15.2034 10.092 15.0494 10.134 14.9654 10.218C14.8814 10.2927 14.8394 10.4373 14.8394 10.652V12.682Z" fill="#333333"/>
</svg>
