<svg width="24" height="24" viewBox="0 0 24 24" fill="none" xmlns="http://www.w3.org/2000/svg">
<path d="M9.97077 14.166H6.82077L6.28877 16H4.56677L7.07277 7.25H9.70477L12.2108 16H10.4888L9.97077 14.166ZM9.59277 12.85L8.45877 8.86H8.33277L7.18477 12.85H9.59277ZM16.1765 14.81C16.9418 14.9033 17.5065 15.0107 17.8705 15.132C18.2345 15.244 18.4865 15.4027 18.6265 15.608C18.7665 15.804 18.8365 16.098 18.8365 16.49C18.8365 16.9473 18.7385 17.3067 18.5425 17.568C18.3558 17.8387 18.0525 18.0347 17.6325 18.156C17.2218 18.2773 16.6618 18.338 15.9525 18.338C15.4298 18.338 14.9165 18.3007 14.4125 18.226C13.9178 18.1513 13.4745 18.044 13.0825 17.904L13.3065 16.644C13.7825 16.7653 14.1978 16.854 14.5525 16.91C14.9072 16.966 15.2665 16.994 15.6305 16.994C16.2745 16.994 16.8298 16.9473 17.2965 16.854V15.944C16.3632 15.8787 15.6958 15.7993 15.2945 15.706C14.9025 15.6127 14.7065 15.482 14.7065 15.314L15.0985 13.942C14.3145 13.858 13.7592 13.62 13.4325 13.228C13.1152 12.836 12.9565 12.22 12.9565 11.38C12.9565 10.736 13.0498 10.2273 13.2365 9.854C13.4232 9.48067 13.7218 9.21 14.1325 9.042C14.5525 8.874 15.1218 8.79 15.8405 8.79C16.5125 8.79 17.0445 8.85533 17.4365 8.986L18.4725 8.188L19.3265 9.014L18.5285 9.966C18.6778 10.33 18.7525 10.8013 18.7525 11.38C18.7525 11.9867 18.6685 12.472 18.5005 12.836C18.3418 13.2 18.0805 13.4707 17.7165 13.648C17.3618 13.8253 16.8718 13.928 16.2465 13.956L16.1765 14.81ZM14.6365 12.92H16.1765C16.5125 12.92 16.7458 12.864 16.8765 12.752C17.0072 12.64 17.0725 12.4393 17.0725 12.15V9.826H15.5325C15.1965 9.826 14.9632 9.882 14.8325 9.994C14.7018 10.106 14.6365 10.3067 14.6365 10.596V12.92Z" fill="#333333"/>
</svg>
