<svg width="24" height="24" viewBox="0 0 24 24" fill="none" xmlns="http://www.w3.org/2000/svg">
<path d="M13.9258 14.2716C14.0204 14.3346 14.0676 14.4252 14.0676 14.5434C14.0676 14.7482 13.977 14.9491 13.7959 15.146C13.6225 15.343 13.398 15.5045 13.1223 15.6305C12.8545 15.7487 12.5906 15.8077 12.3306 15.8077C11.921 15.8077 11.6059 15.6581 11.3853 15.3587C11.1726 15.0515 11.0387 14.7876 10.9836 14.567C10.9363 14.3386 10.8693 13.9329 10.7827 13.3499C10.7591 13.1845 10.7157 13.0782 10.6527 13.0309C10.5897 12.9758 10.4676 12.9482 10.2864 12.9482L8.28944 12.96C7.64349 14.0077 7.06055 14.7561 6.54063 15.2051C6.02071 15.6463 5.46928 15.8668 4.88634 15.8668C4.52398 15.8668 4.24826 15.7959 4.0592 15.6541C3.87014 15.5123 3.77561 15.3272 3.77561 15.0988C3.77561 14.9176 3.83469 14.7561 3.95285 14.6143C4.07102 14.4725 4.23645 14.374 4.44914 14.3189C4.44914 14.634 4.49247 14.8467 4.57912 14.957C4.67365 15.0594 4.82332 15.1106 5.02814 15.1106C5.42202 15.1106 5.80408 14.957 6.17432 14.6497C6.55245 14.3346 7.0251 13.7675 7.59228 12.9482C7.4111 12.9324 7.28112 12.9009 7.20234 12.8537C7.13145 12.8064 7.096 12.7355 7.096 12.641C7.096 12.5701 7.11569 12.4755 7.15508 12.3574C7.19447 12.2313 7.23385 12.1526 7.27324 12.121C7.39928 12.1683 7.6553 12.2195 8.0413 12.2747C8.48244 11.6051 8.96298 10.8449 9.48289 9.99411C10.0028 9.14334 10.3179 8.62736 10.4282 8.44617C10.5779 8.20197 10.7906 7.85142 11.0663 7.39452C11.1608 7.25272 11.2435 7.15032 11.3144 7.0873C11.3932 7.02428 11.4917 6.99277 11.6098 6.99277C11.7122 6.99277 11.8343 7.01246 11.9761 7.05185C11.8895 7.19364 11.8225 7.39846 11.7753 7.6663C11.7359 7.93413 11.7122 8.22166 11.7044 8.52889L11.6925 9.01336C11.6925 9.42299 11.7004 9.90352 11.7162 10.4549C11.7398 10.9985 11.7634 11.4436 11.7871 11.7902C11.8343 12.4834 11.8895 13.0427 11.9525 13.4681C12.0155 13.8856 12.1219 14.2362 12.2715 14.5198C12.4291 14.7955 12.6457 14.9333 12.9214 14.9333C13.1026 14.9333 13.2799 14.8743 13.4532 14.7561C13.6265 14.63 13.784 14.4686 13.9258 14.2716ZM9.87283 12.3928C10.0934 12.3928 10.3691 12.3849 10.7 12.3692L10.6882 10.514C10.6882 9.85232 10.7157 9.30483 10.7709 8.87156C10.0461 10.0296 9.60893 10.7385 9.45926 10.9985L8.66757 12.3337C9.11659 12.3731 9.51834 12.3928 9.87283 12.3928ZM19.0814 10.7267C19.1602 10.774 19.1996 10.8252 19.1996 10.8803C19.1996 10.967 19.0578 11.6563 18.7742 12.9482C18.4906 14.2401 18.3213 15.0121 18.2661 15.2642L18.1007 16.0204C17.5729 18.4152 16.8324 20.1168 15.8792 21.1251C14.9339 22.1413 13.8153 22.6494 12.5234 22.6494C11.6726 22.6494 11.066 22.4761 10.7037 22.1295C10.3413 21.7829 10.1601 21.3693 10.1601 20.8888C10.1601 20.7233 10.1798 20.55 10.2192 20.3688C10.2586 20.1877 10.3098 20.0459 10.3728 19.9435C10.5934 20.4319 10.9203 20.7903 11.3536 21.0187C11.779 21.2551 12.2752 21.3732 12.8424 21.3732C13.8586 21.3732 14.674 21.0581 15.2884 20.4279C15.9028 19.8056 16.3361 19.1242 16.5882 18.3837C16.8403 17.6432 17.0372 16.8751 17.179 16.0795C17.1869 16.0244 17.2302 15.788 17.309 15.3705C17.1199 15.5123 16.923 15.6266 16.7182 15.7132C16.5134 15.792 16.3322 15.8314 16.1746 15.8314C15.9698 15.8314 15.7414 15.7644 15.4893 15.6305C15.2451 15.4966 15.0363 15.3311 14.863 15.1342C14.6897 14.9373 14.6031 14.7482 14.6031 14.567C14.7764 13.8187 14.9457 12.9915 15.1112 12.0856C15.1427 11.9123 15.2805 11.7154 15.5247 11.4948C15.7689 11.2663 16.0446 11.0733 16.3519 10.9158C16.667 10.7582 16.9348 10.6795 17.1554 10.6795C17.2972 10.6795 17.4547 10.7149 17.628 10.7858C17.8013 10.8488 17.9628 10.9394 18.1125 11.0576L18.207 10.4195L18.2543 10.4077C18.2937 10.4628 18.3803 10.5101 18.5143 10.5495C18.6561 10.5889 18.7388 10.6125 18.7624 10.6204C18.9357 10.6676 19.0421 10.7031 19.0814 10.7267ZM17.9471 11.9793C17.9865 11.7823 18.0062 11.6681 18.0062 11.6366C17.7935 11.4318 17.5532 11.3294 17.2854 11.3294C17.0254 11.3294 16.7812 11.4278 16.5527 11.6248C16.3322 11.8138 16.1825 12.058 16.1037 12.3574L15.891 13.4681L15.7256 14.4134C15.7256 14.6182 15.7926 14.7955 15.9265 14.9451C16.0683 15.0948 16.2298 15.1697 16.4109 15.1697C16.5527 15.1697 16.7064 15.1224 16.8718 15.0279C17.0372 14.9333 17.1829 14.7994 17.309 14.6261C17.4429 14.4449 17.5335 14.2322 17.5808 13.988L17.9471 11.9793Z" fill="#888888"/>
</svg>
