<svg width="24" height="24" viewBox="0 0 24 24" fill="none" xmlns="http://www.w3.org/2000/svg">
<g clip-path="url(#clip0_201_1519)">
<path d="M14.4087 14.474C14.446 14.5673 14.4647 14.656 14.4647 14.74C14.4647 14.9547 14.3667 15.1693 14.1707 15.384C13.9747 15.5893 13.7367 15.7573 13.4567 15.888C13.186 16.0187 12.9433 16.084 12.7287 16.084C12.2433 16.084 11.8887 15.79 11.6647 15.202C11.45 14.6047 11.282 13.8813 11.1607 13.032C11.1327 12.836 11.0813 12.71 11.0067 12.654C10.932 12.5887 10.7967 12.556 10.6007 12.556L8.66866 12.57C8.38866 12.57 8.04332 12.5607 7.63266 12.542L7.46466 12.808C6.97932 13.592 6.57332 14.2033 6.24666 14.642C5.92932 15.0713 5.56999 15.4307 5.16866 15.72C4.76732 16.0093 4.31932 16.154 3.82466 16.154C3.47932 16.154 3.19932 16.0887 2.98466 15.958C2.76066 15.8273 2.59732 15.6687 2.49466 15.482C2.39199 15.2953 2.34066 15.118 2.34066 14.95C2.34066 14.7727 2.38732 14.614 2.48066 14.474C2.57399 14.3247 2.68132 14.2173 2.80266 14.152C2.80266 14.5533 2.90066 14.88 3.09666 15.132C3.28332 15.3747 3.55866 15.496 3.92266 15.496C4.42666 15.496 4.90732 15.2533 5.36466 14.768C5.82199 14.2733 6.36799 13.5127 7.00266 12.486C6.50799 12.43 6.24666 12.3367 6.21866 12.206C6.19999 12.1593 6.20932 12.08 6.24666 11.968C6.29332 11.856 6.34466 11.772 6.40066 11.716C6.54066 11.772 6.86266 11.8327 7.36666 11.898C7.47866 11.702 7.62799 11.4547 7.81466 11.156C9.41999 8.496 10.456 6.79733 10.9227 6.06C11.0253 5.892 11.1233 5.78 11.2167 5.724C11.31 5.668 11.4127 5.64 11.5247 5.64C11.674 5.64 11.828 5.66333 11.9867 5.71C11.7907 6.05533 11.6833 6.63867 11.6647 7.46L11.6507 8.146C11.6507 9.098 11.688 10.1573 11.7627 11.324C11.8467 12.6493 11.9727 13.6527 12.1407 14.334C12.318 15.006 12.6073 15.342 13.0087 15.342C13.2047 15.342 13.4287 15.2627 13.6807 15.104C13.942 14.936 14.1847 14.726 14.4087 14.474ZM9.62066 12.038C9.87266 12.038 10.3487 12.024 11.0487 11.996C11.03 11.3053 11.0113 10.5447 10.9927 9.714C10.9833 8.874 10.974 8.146 10.9647 7.53V7.068C9.89132 8.86933 8.90199 10.5027 7.99666 11.968C8.60332 12.0147 9.14466 12.038 9.62066 12.038ZM19.9079 9.63C20.0199 9.742 20.1319 9.83533 20.2439 9.91C20.3373 9.98467 20.3979 10.0453 20.4259 10.092C20.4633 10.1293 20.4819 10.1853 20.4819 10.26C20.4819 10.3347 20.4633 10.428 20.4259 10.54C20.2393 11.2587 19.9919 12.29 19.6839 13.634C19.4786 14.5487 19.2919 15.3327 19.1239 15.986C18.6386 17.9553 18.1393 19.542 17.6259 20.746C17.1219 21.95 16.4873 22.8693 15.7219 23.504C14.9659 24.148 14.0186 24.47 12.8799 24.47C12.1333 24.47 11.5033 24.3393 10.9899 24.078C10.4766 23.826 10.0986 23.504 9.85592 23.112C9.61325 22.72 9.49192 22.3187 9.49192 21.908C9.49192 21.8147 9.50125 21.7353 9.51992 21.67C9.53859 21.614 9.58526 21.5253 9.65992 21.404C10.2106 22.9067 11.2933 23.658 12.9079 23.658C13.9159 23.658 14.7559 23.3593 15.4279 22.762C16.0999 22.174 16.6646 21.3387 17.1219 20.256C17.5793 19.1827 18.0319 17.764 18.4799 16L18.5499 15.72C18.5686 15.6453 18.5873 15.5753 18.6059 15.51C18.6246 15.4447 18.6386 15.3793 18.6479 15.314C18.3866 15.566 18.0833 15.762 17.7379 15.902C17.3926 16.042 17.1033 16.112 16.8699 16.112C16.6273 16.112 16.3893 16.0327 16.1559 15.874C15.9319 15.7153 15.7499 15.5193 15.6099 15.286C15.4699 15.0433 15.3999 14.81 15.3999 14.586C15.4559 14.362 15.5213 14.0773 15.5959 13.732C15.6706 13.3867 15.7266 13.1207 15.7639 12.934L16.0999 11.422C16.1466 11.226 16.2959 11.016 16.5479 10.792C16.7999 10.568 17.0846 10.3813 17.4019 10.232C17.7286 10.0827 18.0086 10.008 18.2419 10.008C18.4939 10.008 18.7413 10.1013 18.9839 10.288C19.2266 10.4747 19.4413 10.722 19.6279 11.03C19.6839 10.7687 19.7353 10.4607 19.7819 10.106L19.8519 9.644L19.9079 9.63ZM19.4599 11.772C19.2826 11.4267 19.0773 11.1513 18.8439 10.946C18.6199 10.7407 18.4006 10.638 18.1859 10.638C18.0366 10.638 17.8546 10.6893 17.6399 10.792C17.4253 10.8853 17.2293 11.016 17.0519 11.184C16.8746 11.3427 16.7626 11.52 16.7159 11.716C16.6506 11.996 16.5293 12.6213 16.3519 13.592L16.1839 14.544C16.1839 14.768 16.2633 14.978 16.4219 15.174C16.5899 15.37 16.7813 15.468 16.9959 15.468C17.1546 15.468 17.3786 15.412 17.6679 15.3C17.9573 15.188 18.2233 15.0293 18.4659 14.824C18.7086 14.6093 18.8626 14.362 18.9279 14.082L19.4599 11.772Z" fill="#333333"/>
</g>
<defs>
<clipPath id="clip0_201_1519">
<rect width="24" height="24" fill="white"/>
</clipPath>
</defs>
</svg>
