<svg width="24" height="24" viewBox="0 0 24 24" fill="none" xmlns="http://www.w3.org/2000/svg">
<path d="M11.8933 16.3333H11.6833C11.5588 16.3333 11.4655 16.2944 11.4033 16.2167C11.341 16.1233 11.2944 16.03 11.2633 15.9367L10.5866 13.86H7.3666L6.64327 15.9833C6.61216 16.0767 6.55771 16.1622 6.47993 16.24C6.41771 16.3022 6.33216 16.3333 6.22327 16.3333H6.05993C5.90438 16.3333 5.79549 16.2711 5.73327 16.1467C5.67105 16.0222 5.65549 15.9056 5.6866 15.7967L8.39327 7.28C8.42438 7.24889 8.44771 7.21 8.46327 7.16333C8.47882 7.11667 8.50216 7.07778 8.53327 7.04667C8.59549 6.95333 8.68882 6.90667 8.81327 6.90667H9.1166C9.33438 6.90667 9.48216 7.02333 9.55994 7.25667L12.2666 15.7967C12.2977 15.9056 12.2822 16.0222 12.2199 16.1467C12.1577 16.2711 12.0488 16.3333 11.8933 16.3333ZM8.95327 8.63333C8.75105 9.38 8.53327 10.1344 8.29993 10.8967C8.0666 11.6589 7.87993 12.2811 7.73993 12.7633H10.2133L8.95327 8.63333ZM16.1472 18.13H14.0939C14.0161 18.13 13.9306 18.0989 13.8372 18.0367C13.7594 17.9744 13.7206 17.8733 13.7206 17.7333V17.57C13.7206 17.3211 13.845 17.1967 14.0939 17.1967H16.1472C16.7539 17.1967 17.0572 16.8311 17.0572 16.1V15.8433C16.6994 15.9989 16.3728 16.0767 16.0772 16.0767H15.2372C14.6928 16.0767 14.2572 15.9056 13.9306 15.5633C13.6039 15.2056 13.4406 14.7078 13.4406 14.07V11.48C13.4406 10.8422 13.6039 10.3522 13.9306 10.01C14.2572 9.65222 14.6928 9.47333 15.2372 9.47333H17.5939C17.7028 9.47333 17.7883 9.52 17.8506 9.61333C17.9128 9.69111 17.9439 9.76889 17.9439 9.84667V16.1233C17.9439 16.7611 17.7806 17.2511 17.4539 17.5933C17.1272 17.9511 16.6917 18.13 16.1472 18.13ZM15.1906 10.43C14.8794 10.43 14.6539 10.5156 14.5139 10.6867C14.3894 10.8578 14.3272 11.1222 14.3272 11.48V14.07C14.3272 14.7856 14.6306 15.1433 15.2372 15.1433H16.0772C16.7306 15.1433 17.0572 14.8011 17.0572 14.1167L17.1039 10.4067L15.1906 10.43Z" fill="#888888"/>
</svg>
