<svg width="24" height="24" viewBox="0 0 24 24" fill="none" xmlns="http://www.w3.org/2000/svg">
<path d="M10.0063 6.234C10.6503 6.234 10.9769 6.37867 10.9863 6.668L11.3363 10.966L11.5043 16.692C11.5043 16.916 11.4716 17.0607 11.4063 17.126C11.3409 17.1913 11.1729 17.224 10.9023 17.224C10.0716 17.224 9.65627 17.0467 9.65627 16.692L9.57227 13.808H7.61227L6.75827 16.706C6.7116 16.874 6.67427 16.9813 6.64627 17.028C6.59027 17.1587 6.40827 17.224 6.10027 17.224C5.8016 17.224 5.58693 17.224 5.45627 17.224C5.05493 17.2053 4.8216 17.1307 4.75627 17C4.7376 16.9627 4.72827 16.9207 4.72827 16.874C4.72827 16.818 4.7376 16.7573 4.75627 16.692C5.93227 12.8467 6.7396 10.2193 7.17827 8.81C7.62627 7.40067 7.86427 6.64933 7.89227 6.556C7.9576 6.34133 8.66227 6.234 10.0063 6.234ZM9.32027 8.068L8.11627 12.114H9.50227L9.32027 8.068ZM12.6111 18.75C13.4511 18.8433 14.1185 18.89 14.6131 18.89C15.1078 18.89 15.4158 18.8527 15.5371 18.778C15.6678 18.7033 15.7611 18.4887 15.8171 18.134L15.9571 16.776C15.4811 17.0653 14.8838 17.21 14.1651 17.21C13.4465 17.21 12.9611 16.9627 12.7091 16.468C12.5505 16.16 12.4711 15.7913 12.4711 15.362C12.4711 14.9233 12.4991 14.494 12.5551 14.074C12.7231 12.898 12.9378 12.0113 13.1991 11.414C13.4605 10.8167 13.8058 10.406 14.2351 10.182C14.6738 9.94867 15.2805 9.832 16.0551 9.832H16.9231C17.3898 9.832 17.8658 9.89733 18.3511 10.028L18.5751 10.098L17.4691 18.134C17.3851 18.918 17.1098 19.4827 16.6431 19.828C16.1858 20.1827 15.4065 20.36 14.3051 20.36C13.7825 20.36 13.1478 20.2853 12.4011 20.136C12.3265 20.1173 12.2798 20.0847 12.2611 20.038C12.2518 19.9913 12.2471 19.9307 12.2471 19.856C12.2471 19.7813 12.2565 19.66 12.2751 19.492C12.3498 18.9973 12.4525 18.75 12.5831 18.75C12.5831 18.75 12.5878 18.75 12.5971 18.75H12.6111ZM14.5711 14.074C14.5431 14.2793 14.5151 14.466 14.4871 14.634C14.4685 14.802 14.4545 14.9653 14.4451 15.124C14.4358 15.2733 14.4311 15.4367 14.4311 15.614C14.4311 15.782 14.4685 15.866 14.5431 15.866C15.0098 15.866 15.5465 15.698 16.1531 15.362L16.7411 11.162H15.8731C15.6305 11.162 15.4438 11.2227 15.3131 11.344C15.0425 11.596 14.7951 12.506 14.5711 14.074Z" fill="#333333"/>
</svg>
