<svg width="24" height="24" viewBox="0 0 24 24" fill="none" xmlns="http://www.w3.org/2000/svg">
<path d="M9.92784 7.396L11.7758 17H8.72384L8.38784 15.292H5.33584L4.53784 17H1.72384L6.27384 7.396H9.92784ZM7.60384 10.35H7.53384L6.30184 13.262H8.00984L7.60384 10.35ZM16.1156 9.706C16.5916 9.706 17.0163 9.804 17.3896 10C17.7723 10.196 18.071 10.4947 18.2856 10.896L19.3916 9.846H20.3716L19.4476 16.44C19.2983 17.4853 18.883 18.274 18.2016 18.806C17.5296 19.338 16.6943 19.604 15.6956 19.604C14.7063 19.604 13.8803 19.422 13.2176 19.058C12.555 18.694 12.2236 18.0967 12.2236 17.266H15.0096C15.0096 17.4153 15.075 17.5553 15.2056 17.686C15.3363 17.8167 15.5323 17.882 15.7936 17.882C16.0736 17.882 16.2696 17.7887 16.3816 17.602C16.503 17.4247 16.587 17.1913 16.6336 16.902L16.7596 15.852C16.4983 16.132 16.195 16.3513 15.8496 16.51C15.5136 16.6593 15.1543 16.734 14.7716 16.734C14.0156 16.734 13.451 16.4727 13.0776 15.95C12.7043 15.4273 12.5176 14.7693 12.5176 13.976C12.5176 13.276 12.6436 12.5993 12.8956 11.946C13.157 11.2927 13.5583 10.756 14.0996 10.336C14.641 9.916 15.313 9.706 16.1156 9.706ZM16.5076 11.4C16.2556 11.4 16.0316 11.4933 15.8356 11.68C15.649 11.8573 15.537 12.0907 15.4996 12.38L15.3736 13.22C15.3363 13.4347 15.3083 13.626 15.2896 13.794C15.271 13.962 15.2616 14.0833 15.2616 14.158C15.2616 14.4007 15.3316 14.6013 15.4716 14.76C15.6116 14.9093 15.789 14.984 16.0036 14.984C16.293 14.984 16.5216 14.8953 16.6896 14.718C16.867 14.5313 16.9743 14.2933 17.0116 14.004L17.0956 13.416C17.1983 12.744 17.2496 12.3427 17.2496 12.212C17.2496 11.9507 17.1796 11.75 17.0396 11.61C16.909 11.47 16.7316 11.4 16.5076 11.4Z" fill="#333333"/>
</svg>
