<svg width="24" height="24" viewBox="0 0 24 24" fill="none" xmlns="http://www.w3.org/2000/svg">
<path d="M10.3431 14.62H5.27508L4.29508 17H3.51108L7.48708 7.396H8.18708L12.1631 17H11.3371L10.3431 14.62ZM5.55508 13.934H10.0631L7.83708 8.432H7.78108L5.55508 13.934ZM18.2439 16.062C18.7292 16.062 19.1259 16.2207 19.4339 16.538C19.7419 16.8553 19.8959 17.252 19.8959 17.728C19.8959 18.0827 19.8072 18.4047 19.6299 18.694C19.4619 18.9833 19.2239 19.212 18.9159 19.38C18.6172 19.548 18.2766 19.632 17.8939 19.632H14.8559C14.5292 19.632 14.2306 19.548 13.9599 19.38C13.6892 19.212 13.4746 18.9927 13.3159 18.722C13.1666 18.4513 13.0919 18.162 13.0919 17.854C13.0919 17.5087 13.1852 17.1867 13.3719 16.888C13.5586 16.58 13.8106 16.3607 14.1279 16.23C13.7079 15.978 13.4979 15.6047 13.4979 15.11C13.4979 14.7833 13.5959 14.5033 13.7919 14.27C13.9972 14.0273 14.2772 13.836 14.6319 13.696C14.3332 13.4813 14.0999 13.2247 13.9319 12.926C13.7639 12.6273 13.6799 12.3053 13.6799 11.96C13.6799 11.2973 13.9086 10.756 14.3659 10.336C14.8232 9.916 15.5046 9.706 16.4099 9.706C17.0166 9.706 17.5346 9.80867 17.9639 10.014C18.3092 9.92067 18.5939 9.748 18.8179 9.496C19.0419 9.244 19.1772 8.93133 19.2239 8.558H19.8959C19.8959 8.96867 19.7652 9.35133 19.5039 9.706C19.2519 10.0607 18.9206 10.266 18.5099 10.322L18.4959 10.378C18.7012 10.5553 18.8599 10.784 18.9719 11.064C19.0839 11.3347 19.1399 11.6333 19.1399 11.96C19.1399 12.6227 18.9112 13.164 18.4539 13.584C17.9966 13.9947 17.3152 14.2 16.4099 14.2H15.2619C14.9632 14.2 14.7112 14.284 14.5059 14.452C14.3099 14.62 14.2119 14.8487 14.2119 15.138C14.2119 15.4273 14.3099 15.656 14.5059 15.824C14.7019 15.9827 14.9539 16.062 15.2619 16.062H18.2439ZM18.4259 11.96C18.4259 11.5027 18.2439 11.12 17.8799 10.812C17.5252 10.504 17.0352 10.35 16.4099 10.35C15.7846 10.35 15.2899 10.504 14.9259 10.812C14.5712 11.12 14.3939 11.5027 14.3939 11.96C14.3939 12.4173 14.5712 12.8 14.9259 13.108C15.2899 13.416 15.7846 13.57 16.4099 13.57C17.0352 13.57 17.5252 13.416 17.8799 13.108C18.2439 12.8 18.4259 12.4173 18.4259 11.96ZM17.9359 18.988C18.2719 18.988 18.5612 18.8667 18.8039 18.624C19.0559 18.3907 19.1819 18.106 19.1819 17.77C19.1819 17.4993 19.0839 17.2613 18.8879 17.056C18.6919 16.8507 18.4586 16.748 18.1879 16.748H14.9119C14.6039 16.748 14.3379 16.8553 14.1139 17.07C13.8992 17.294 13.7919 17.56 13.7919 17.868C13.7919 18.176 13.8992 18.4373 14.1139 18.652C14.3379 18.876 14.6039 18.988 14.9119 18.988H17.9359Z" fill="#888888"/>
</svg>
