<svg width="24" height="24" viewBox="0 0 24 24" fill="none" xmlns="http://www.w3.org/2000/svg">
<path d="M12.1329 16.3V17H9.5849V16.3H10.7469L8.7589 12.38H4.6569L3.0329 16.3H4.1389V17H1.5909V16.3H2.7249L4.6429 6.864H3.5649V6.164H8.7309L11.1249 16.3H12.1329ZM4.9509 11.68H8.3949L6.5049 7.956L4.9509 11.68ZM21.2676 12.772L19.7976 10.896H18.8176L20.8196 13.472L18.6216 16.3H19.8256L20.6376 15.194V18.12H18.5096L19.3216 17H15.6956L13.1196 13.472L15.7796 10.196H21.2676V12.772ZM18.2016 16.3V10.896H15.8496V16.3H18.2016Z" fill="#888888"/>
</svg>
