<svg width="24" height="24" viewBox="0 0 24 24" fill="none" xmlns="http://www.w3.org/2000/svg">
<path d="M12.3379 15.86H12.4639V16H7.99786V15.86H8.12386C8.32919 15.86 8.47853 15.7993 8.57186 15.678C8.67453 15.5473 8.72586 15.426 8.72586 15.314C8.72586 15.202 8.70253 15.09 8.65586 14.978L7.96986 13.256H4.69386L3.96586 14.978C3.91919 15.0993 3.89586 15.216 3.89586 15.328C3.89586 15.4307 3.94719 15.5473 4.04986 15.678C4.15253 15.7993 4.30653 15.86 4.51186 15.86H4.62386V16H1.62786V15.86H1.75386C1.96853 15.86 2.18319 15.7947 2.39786 15.664C2.61253 15.5333 2.78986 15.3373 2.92986 15.076L6.16386 7.754C6.60253 6.83 6.83586 6.21867 6.86386 5.92H6.98986L11.1479 15.048C11.2879 15.3187 11.4652 15.524 11.6799 15.664C11.8945 15.7947 12.1139 15.86 12.3379 15.86ZM4.93186 12.668H7.73186L6.37386 9.224L4.93186 12.668ZM13.4896 15.006C12.6589 14.222 12.2436 13.1487 12.2436 11.786C12.2436 10.4233 12.6589 9.35467 13.4896 8.58C14.3296 7.80533 15.4822 7.418 16.9476 7.418C17.6009 7.418 18.2449 7.47867 18.8796 7.6C19.5142 7.712 20.0276 7.866 20.4196 8.062V10.288H20.3076C19.8969 8.748 18.9169 7.978 17.3676 7.978C16.3969 7.978 15.6549 8.31867 15.1416 9C14.6376 9.672 14.3856 10.6147 14.3856 11.828C14.3856 13.032 14.6142 13.9653 15.0716 14.628C15.5382 15.2907 16.1962 15.622 17.0456 15.622C17.5122 15.622 17.9322 15.5147 18.3056 15.3C18.6789 15.076 18.9262 14.7587 19.0476 14.348L19.0616 12.668C19.0616 12.4907 19.0056 12.3553 18.8936 12.262C18.7909 12.1593 18.6416 12.108 18.4456 12.108H18.2496V11.996H21.8476V12.108H21.6796C21.2689 12.108 21.0636 12.2947 21.0636 12.668V14.544C20.7369 14.964 20.1862 15.342 19.4116 15.678C18.6369 16.014 17.7876 16.182 16.8636 16.182C15.4542 16.1727 14.3296 15.7807 13.4896 15.006Z" fill="#333333"/>
</svg>
