<svg width="24" height="24" viewBox="0 0 24 24" fill="none" xmlns="http://www.w3.org/2000/svg">
<path d="M12.2109 15.6104C12.2155 15.6286 12.2178 15.6559 12.2178 15.6924C12.2178 15.7881 12.1859 15.8656 12.1221 15.9248C12.0583 15.984 11.9717 16.0137 11.8623 16.0137H9.98242C9.88216 16.0137 9.79785 15.984 9.72949 15.9248C9.66113 15.861 9.6224 15.7812 9.61328 15.6855L9.46289 14.373H6.1543L5.4502 15.6787C5.39551 15.7744 5.32031 15.8542 5.22461 15.918C5.13346 15.9772 5.03776 16.0068 4.9375 16.0068H2.91406C2.83203 16.0068 2.77051 15.9909 2.72949 15.959C2.68848 15.9225 2.66797 15.8747 2.66797 15.8154C2.66797 15.7516 2.69076 15.681 2.73633 15.6035L8.2666 6.34082C8.3304 6.236 8.41016 6.15397 8.50586 6.09473C8.60612 6.03548 8.7041 6.00586 8.7998 6.00586H10.2422C10.3424 6.00586 10.4268 6.03776 10.4951 6.10156C10.568 6.16081 10.6136 6.24056 10.6318 6.34082L12.2109 15.6104ZM9.23047 12.3086L8.88867 9.28027L7.26172 12.3086H9.23047ZM19.5117 10.0391C19.571 10.0391 19.6188 10.0573 19.6553 10.0938C19.6917 10.1257 19.71 10.1689 19.71 10.2236C19.71 10.251 19.7077 10.2738 19.7031 10.292L18.6094 15.6035L18.5205 16.0273C18.3975 16.6426 18.1536 17.1917 17.7891 17.6748C17.4245 18.1624 16.9688 18.5452 16.4219 18.8232C15.875 19.1058 15.278 19.2539 14.6309 19.2676C14.2161 19.2767 13.8105 19.2038 13.4141 19.0488C13.0176 18.8984 12.6895 18.6911 12.4297 18.4268C12.3978 18.3949 12.3818 18.3561 12.3818 18.3105C12.3818 18.2422 12.4229 18.1556 12.5049 18.0508L13.2705 17.1074L13.6191 16.6768C13.6693 16.613 13.7308 16.5811 13.8037 16.5811C13.863 16.5811 13.9131 16.6038 13.9541 16.6494C14.0726 16.7816 14.2275 16.8887 14.4189 16.9707C14.6104 17.0527 14.804 17.0938 15 17.0938C15.2962 17.0938 15.5628 16.9935 15.7998 16.793C16.0368 16.597 16.194 16.3441 16.2715 16.0342L16.333 15.7129C15.8773 16.0456 15.3714 16.2119 14.8154 16.2119C14.3916 16.2119 14.0225 16.1162 13.708 15.9248C13.3981 15.7334 13.1611 15.4645 12.9971 15.1182C12.833 14.7718 12.751 14.3708 12.751 13.915C12.751 13.6325 12.7852 13.3294 12.8535 13.0059C12.9811 12.3952 13.2067 11.8483 13.5303 11.3652C13.8584 10.8776 14.2526 10.4971 14.7129 10.2236C15.1732 9.9502 15.6608 9.81348 16.1758 9.81348C16.5176 9.81348 16.8138 9.88184 17.0645 10.0186C17.3151 10.1553 17.5156 10.3535 17.666 10.6133L17.9805 10.1484C18.0033 10.1165 18.0352 10.0915 18.0762 10.0732C18.1172 10.0505 18.1559 10.0391 18.1924 10.0391H19.5117ZM15.0137 13.0195C14.9954 13.1198 14.9863 13.195 14.9863 13.2451C14.9863 13.4684 15.0547 13.6553 15.1914 13.8057C15.3281 13.9515 15.5059 14.0244 15.7246 14.0244C15.8978 14.0244 16.0664 13.9811 16.2305 13.8945C16.3945 13.8034 16.5335 13.6803 16.6475 13.5254C16.766 13.3704 16.8457 13.2018 16.8867 13.0195C16.9049 12.9466 16.9141 12.8669 16.9141 12.7803C16.9141 12.5479 16.8434 12.3587 16.7021 12.2129C16.5654 12.0625 16.3854 11.9873 16.1621 11.9873C15.9935 11.9873 15.8271 12.0329 15.6631 12.124C15.5036 12.2152 15.3646 12.3405 15.2461 12.5C15.1322 12.6549 15.0547 12.8281 15.0137 13.0195Z" fill="#333333"/>
</svg>
