<svg width="24" height="24" viewBox="0 0 24 24" fill="none" xmlns="http://www.w3.org/2000/svg">
<path d="M12.5801 16.7539C12.5938 16.7949 12.6006 16.8291 12.6006 16.8564C12.6006 16.9066 12.5824 16.9453 12.5459 16.9727C12.514 17 12.4684 17.0137 12.4092 17.0137H11.5889C11.5387 17.0137 11.4932 16.9977 11.4521 16.9658C11.4111 16.9294 11.3815 16.8838 11.3633 16.8291L10.4883 14.6143H5.7168L4.84863 16.8223C4.8304 16.8815 4.7985 16.9294 4.75293 16.9658C4.70736 16.9977 4.65951 17.0137 4.60938 17.0137H3.7959C3.67285 17.0137 3.61133 16.9635 3.61133 16.8633C3.61133 16.8314 3.61816 16.7949 3.63184 16.7539L7.54883 7.19043C7.57161 7.13118 7.60579 7.08561 7.65137 7.05371C7.7015 7.01725 7.75163 6.99902 7.80176 6.99902H8.41016C8.46484 6.99902 8.51497 7.01725 8.56055 7.05371C8.60612 7.09017 8.6403 7.13802 8.66309 7.19727L12.5801 16.7539ZM10.0986 13.6162L8.10254 8.54395L6.10645 13.6162H10.0986ZM17.4268 16.8359C18.124 16.8359 18.6641 16.984 19.0469 17.2803C19.4342 17.5765 19.6279 17.9935 19.6279 18.5312C19.6279 18.9596 19.5049 19.3288 19.2588 19.6387C19.0127 19.9531 18.6618 20.1924 18.2061 20.3564C17.7549 20.5205 17.2217 20.6025 16.6064 20.6025C16.137 20.6025 15.6654 20.5661 15.1914 20.4932C14.7174 20.4202 14.3187 20.3109 13.9951 20.165C13.9587 20.1468 13.929 20.1217 13.9062 20.0898C13.888 20.0579 13.8789 20.0215 13.8789 19.9805C13.8789 19.9486 13.8857 19.9189 13.8994 19.8916L14.125 19.3242C14.1615 19.2513 14.2184 19.2148 14.2959 19.2148C14.3096 19.2148 14.3346 19.2194 14.3711 19.2285C14.6582 19.347 15.0046 19.4382 15.4102 19.502C15.8203 19.5703 16.2191 19.6045 16.6064 19.6045C17.2308 19.6045 17.723 19.5156 18.083 19.3379C18.4476 19.1647 18.6299 18.9232 18.6299 18.6133C18.6299 18.3444 18.5296 18.1462 18.3291 18.0186C18.1331 17.891 17.8346 17.8271 17.4336 17.8271H15.5742C15.2096 17.8271 14.8838 17.7633 14.5967 17.6357C14.3141 17.5127 14.0931 17.3372 13.9336 17.1094C13.7741 16.8815 13.6943 16.6195 13.6943 16.3232C13.6943 16.0498 13.7604 15.7992 13.8926 15.5713C14.0293 15.3434 14.2093 15.1771 14.4326 15.0723C14.2458 14.849 14.0999 14.6006 13.9951 14.3271C13.8949 14.0537 13.8447 13.7643 13.8447 13.459C13.8447 12.9805 13.9518 12.5498 14.166 12.167C14.3848 11.7796 14.6833 11.4766 15.0615 11.2578C15.4398 11.0391 15.8636 10.9297 16.333 10.9297C16.4378 10.9297 16.5791 10.9456 16.7568 10.9775C16.9346 11.0094 17.1077 11.0527 17.2764 11.1074H19.0811C19.1494 11.1074 19.2041 11.1279 19.2451 11.1689C19.2861 11.2054 19.3066 11.2578 19.3066 11.3262V11.8115C19.3066 11.8708 19.2861 11.9232 19.2451 11.9688C19.2041 12.0098 19.1494 12.0303 19.0811 12.0303L18.3359 12.0371C18.4954 12.224 18.623 12.4404 18.7188 12.6865C18.819 12.9281 18.8691 13.1901 18.8691 13.4727C18.8691 13.9375 18.7575 14.359 18.5342 14.7373C18.3109 15.1156 18.0055 15.4118 17.6182 15.626C17.2308 15.8402 16.8001 15.9473 16.3262 15.9473C15.8887 15.9473 15.4854 15.8424 15.1162 15.6328C14.9886 15.6829 14.8861 15.7627 14.8086 15.8721C14.7357 15.9814 14.6992 16.109 14.6992 16.2549C14.6992 16.4235 14.7812 16.5625 14.9453 16.6719C15.1139 16.7812 15.3236 16.8359 15.5742 16.8359H17.4268ZM16.3398 11.9619C16.071 11.9619 15.8249 12.028 15.6016 12.1602C15.3783 12.2923 15.2028 12.4723 15.0752 12.7002C14.9476 12.9281 14.8838 13.1787 14.8838 13.4521C14.8838 13.721 14.9476 13.9671 15.0752 14.1904C15.2028 14.4137 15.376 14.5892 15.5947 14.7168C15.818 14.8444 16.0641 14.9082 16.333 14.9082C16.611 14.9082 16.8639 14.8444 17.0918 14.7168C17.3197 14.5892 17.4997 14.416 17.6318 14.1973C17.764 13.974 17.8301 13.7279 17.8301 13.459C17.8301 13.181 17.764 12.9281 17.6318 12.7002C17.4997 12.4723 17.3197 12.2923 17.0918 12.1602C16.8685 12.028 16.6178 11.9619 16.3398 11.9619Z" fill="#888888"/>
</svg>
