<svg width="24" height="24" viewBox="0 0 24 24" fill="none" xmlns="http://www.w3.org/2000/svg">
<path d="M12.7852 14.665C12.8034 14.7061 12.8125 14.7516 12.8125 14.8018C12.8125 14.8656 12.7897 14.918 12.7441 14.959C12.7031 14.9954 12.6416 15.0137 12.5596 15.0137H11.0625C10.985 15.0137 10.9121 14.9886 10.8438 14.9385C10.7799 14.8883 10.7344 14.8223 10.707 14.7402L10.0986 13.0723H6.09961L5.49805 14.7334C5.4707 14.8154 5.42285 14.8815 5.35449 14.9316C5.28613 14.9818 5.21094 15.0068 5.12891 15.0068H3.63867C3.55664 15.0068 3.49284 14.9886 3.44727 14.9521C3.40625 14.9157 3.38574 14.8656 3.38574 14.8018C3.38574 14.7516 3.39486 14.7061 3.41309 14.665L7.17285 5.28613C7.20475 5.19954 7.25488 5.13118 7.32324 5.08105C7.3916 5.03092 7.4668 5.00586 7.54883 5.00586H8.66309C8.74056 5.00586 8.81348 5.03092 8.88184 5.08105C8.9502 5.13118 9.00033 5.19954 9.03223 5.28613L12.7852 14.665ZM9.49707 11.4111L8.0957 7.56934L6.70117 11.4111H9.49707ZM17.4131 14.5693C17.8688 14.5693 18.2721 14.6468 18.623 14.8018C18.974 14.9567 19.2451 15.1777 19.4365 15.4648C19.6325 15.752 19.7305 16.0869 19.7305 16.4697C19.7305 16.9619 19.6029 17.3835 19.3477 17.7344C19.0924 18.0898 18.7301 18.3587 18.2607 18.541C17.7959 18.7279 17.2513 18.8213 16.627 18.8213C16.1621 18.8213 15.6813 18.7826 15.1846 18.7051C14.6924 18.6322 14.2708 18.5319 13.9199 18.4043C13.806 18.3542 13.749 18.2721 13.749 18.1582C13.749 18.1217 13.7559 18.083 13.7695 18.042L14.1865 16.9961C14.2048 16.9414 14.2367 16.8981 14.2822 16.8662C14.3324 16.8343 14.3848 16.8184 14.4395 16.8184C14.4577 16.8184 14.485 16.8229 14.5215 16.832C14.804 16.9186 15.1367 16.9915 15.5195 17.0508C15.9069 17.1146 16.276 17.1465 16.627 17.1465C17.069 17.1465 17.4176 17.1032 17.6729 17.0166C17.9326 16.93 18.0625 16.8001 18.0625 16.627C18.0625 16.472 18.0101 16.3672 17.9053 16.3125C17.8005 16.2624 17.6364 16.2373 17.4131 16.2373H15.7246C15.2962 16.2373 14.918 16.1644 14.5898 16.0186C14.2617 15.8773 14.0065 15.6699 13.8242 15.3965C13.6419 15.123 13.5508 14.7995 13.5508 14.4258C13.5508 14.1478 13.61 13.8949 13.7285 13.667C13.847 13.4346 14.0088 13.2523 14.2139 13.1201C14.0452 12.9014 13.9154 12.6553 13.8242 12.3818C13.7376 12.1084 13.6943 11.8167 13.6943 11.5068C13.6943 10.9919 13.806 10.5339 14.0293 10.1328C14.2526 9.72721 14.5648 9.41276 14.9658 9.18945C15.3669 8.96159 15.8203 8.84766 16.3262 8.84766C16.4674 8.84766 16.6338 8.86589 16.8252 8.90234C17.0166 8.9388 17.2035 8.98893 17.3857 9.05273H19.2656C19.3704 9.05273 19.4502 9.08236 19.5049 9.1416C19.5641 9.19629 19.5938 9.27376 19.5938 9.37402V10.2695C19.5938 10.3561 19.5641 10.429 19.5049 10.4883C19.4456 10.5475 19.3659 10.5771 19.2656 10.5771L18.7393 10.584C18.9033 10.8757 18.9854 11.1855 18.9854 11.5137C18.9899 12.015 18.876 12.4639 18.6436 12.8604C18.4157 13.2568 18.0967 13.5667 17.6865 13.79C17.2809 14.0133 16.8229 14.125 16.3125 14.125C16.0026 14.125 15.6973 14.0749 15.3965 13.9746C15.2826 14.0384 15.2256 14.1455 15.2256 14.2959C15.2256 14.3825 15.2689 14.4508 15.3555 14.501C15.4466 14.5465 15.5697 14.5693 15.7246 14.5693H17.4131ZM16.333 10.5771C16.0778 10.5771 15.8636 10.666 15.6904 10.8438C15.5218 11.0169 15.4375 11.2357 15.4375 11.5C15.4375 11.7507 15.5218 11.9626 15.6904 12.1357C15.8636 12.3044 16.0755 12.3887 16.3262 12.3887C16.5905 12.3887 16.8092 12.3044 16.9824 12.1357C17.1602 11.9671 17.249 11.7575 17.249 11.5068C17.249 11.2425 17.1602 11.0215 16.9824 10.8438C16.8092 10.666 16.5928 10.5771 16.333 10.5771Z" fill="#333333"/>
</svg>
