<svg width="24" height="24" viewBox="0 0 24 24" fill="none" xmlns="http://www.w3.org/2000/svg">
<path d="M12.7852 16.665C12.8034 16.7061 12.8125 16.7516 12.8125 16.8018C12.8125 16.8656 12.7897 16.918 12.7441 16.959C12.7031 16.9954 12.6416 17.0137 12.5596 17.0137H11.0625C10.985 17.0137 10.9121 16.9886 10.8438 16.9385C10.7799 16.8883 10.7344 16.8223 10.707 16.7402L10.0986 15.0723H6.09961L5.49805 16.7334C5.4707 16.8154 5.42285 16.8815 5.35449 16.9316C5.28613 16.9818 5.21094 17.0068 5.12891 17.0068H3.63867C3.55664 17.0068 3.49284 16.9886 3.44727 16.9521C3.40625 16.9157 3.38574 16.8656 3.38574 16.8018C3.38574 16.7516 3.39486 16.7061 3.41309 16.665L7.17285 7.28613C7.20475 7.19954 7.25488 7.13118 7.32324 7.08105C7.3916 7.03092 7.4668 7.00586 7.54883 7.00586H8.66309C8.74056 7.00586 8.81348 7.03092 8.88184 7.08105C8.9502 7.13118 9.00033 7.19954 9.03223 7.28613L12.7852 16.665ZM9.49707 13.4111L8.0957 9.56934L6.70117 13.4111H9.49707ZM17.4131 16.5693C17.8688 16.5693 18.2721 16.6468 18.623 16.8018C18.974 16.9567 19.2451 17.1777 19.4365 17.4648C19.6325 17.752 19.7305 18.0869 19.7305 18.4697C19.7305 18.9619 19.6029 19.3835 19.3477 19.7344C19.0924 20.0898 18.7301 20.3587 18.2607 20.541C17.7959 20.7279 17.2513 20.8213 16.627 20.8213C16.1621 20.8213 15.6813 20.7826 15.1846 20.7051C14.6924 20.6322 14.2708 20.5319 13.9199 20.4043C13.806 20.3542 13.749 20.2721 13.749 20.1582C13.749 20.1217 13.7559 20.083 13.7695 20.042L14.1865 18.9961C14.2048 18.9414 14.2367 18.8981 14.2822 18.8662C14.3324 18.8343 14.3848 18.8184 14.4395 18.8184C14.4577 18.8184 14.485 18.8229 14.5215 18.832C14.804 18.9186 15.1367 18.9915 15.5195 19.0508C15.9069 19.1146 16.276 19.1465 16.627 19.1465C17.069 19.1465 17.4176 19.1032 17.6729 19.0166C17.9326 18.93 18.0625 18.8001 18.0625 18.627C18.0625 18.472 18.0101 18.3672 17.9053 18.3125C17.8005 18.2624 17.6364 18.2373 17.4131 18.2373H15.7246C15.2962 18.2373 14.918 18.1644 14.5898 18.0186C14.2617 17.8773 14.0065 17.6699 13.8242 17.3965C13.6419 17.123 13.5508 16.7995 13.5508 16.4258C13.5508 16.1478 13.61 15.8949 13.7285 15.667C13.847 15.4346 14.0088 15.2523 14.2139 15.1201C14.0452 14.9014 13.9154 14.6553 13.8242 14.3818C13.7376 14.1084 13.6943 13.8167 13.6943 13.5068C13.6943 12.9919 13.806 12.5339 14.0293 12.1328C14.2526 11.7272 14.5648 11.4128 14.9658 11.1895C15.3669 10.9616 15.8203 10.8477 16.3262 10.8477C16.4674 10.8477 16.6338 10.8659 16.8252 10.9023C17.0166 10.9388 17.2035 10.9889 17.3857 11.0527H19.2656C19.3704 11.0527 19.4502 11.0824 19.5049 11.1416C19.5641 11.1963 19.5938 11.2738 19.5938 11.374V12.2695C19.5938 12.3561 19.5641 12.429 19.5049 12.4883C19.4456 12.5475 19.3659 12.5771 19.2656 12.5771L18.7393 12.584C18.9033 12.8757 18.9854 13.1855 18.9854 13.5137C18.9899 14.015 18.876 14.4639 18.6436 14.8604C18.4157 15.2568 18.0967 15.5667 17.6865 15.79C17.2809 16.0133 16.8229 16.125 16.3125 16.125C16.0026 16.125 15.6973 16.0749 15.3965 15.9746C15.2826 16.0384 15.2256 16.1455 15.2256 16.2959C15.2256 16.3825 15.2689 16.4508 15.3555 16.501C15.4466 16.5465 15.5697 16.5693 15.7246 16.5693H17.4131ZM16.333 12.5771C16.0778 12.5771 15.8636 12.666 15.6904 12.8438C15.5218 13.0169 15.4375 13.2357 15.4375 13.5C15.4375 13.7507 15.5218 13.9626 15.6904 14.1357C15.8636 14.3044 16.0755 14.3887 16.3262 14.3887C16.5905 14.3887 16.8092 14.3044 16.9824 14.1357C17.1602 13.9671 17.249 13.7575 17.249 13.5068C17.249 13.2425 17.1602 13.0215 16.9824 12.8438C16.8092 12.666 16.5928 12.5771 16.333 12.5771Z" fill="#888888"/>
</svg>
