<svg width="24" height="24" viewBox="0 0 24 24" fill="none" xmlns="http://www.w3.org/2000/svg">
<path d="M12.4453 16.8291C12.4499 16.8428 12.4521 16.8633 12.4521 16.8906C12.4521 16.9772 12.4043 17.0205 12.3086 17.0205H12.0488C12.026 17.0205 12.0033 17.0091 11.9805 16.9863C11.9577 16.9635 11.944 16.9362 11.9395 16.9043L11.4473 14.2314H6.25879L4.63184 16.8975C4.61361 16.9339 4.58626 16.9635 4.5498 16.9863C4.5179 17.0091 4.48828 17.0205 4.46094 17.0205H4.19434C4.12142 17.0205 4.08496 16.9932 4.08496 16.9385C4.08496 16.8975 4.09635 16.861 4.11914 16.8291L10.1006 7.11523C10.1188 7.07878 10.1439 7.04915 10.1758 7.02637C10.2122 7.00358 10.2441 6.99219 10.2715 6.99219H10.4697C10.4971 6.99219 10.5221 7.00586 10.5449 7.0332C10.5723 7.05599 10.5882 7.08561 10.5928 7.12207L12.4453 16.8291ZM11.3652 13.7803L10.2441 7.69629L6.53223 13.7803H11.3652ZM20.1426 11.1348C20.2155 11.1348 20.2451 11.1758 20.2314 11.2578L19.1719 16.248H19.1787L19.0078 17.0342C18.8848 17.5902 18.6432 18.1029 18.2832 18.5723C17.9277 19.0462 17.4971 19.4222 16.9912 19.7002C16.4899 19.9827 15.9681 20.124 15.4258 20.124C15.0293 20.124 14.6624 20.0534 14.3252 19.9121C13.988 19.7708 13.7214 19.568 13.5254 19.3037C13.5072 19.2809 13.498 19.2559 13.498 19.2285C13.498 19.1966 13.5186 19.1602 13.5596 19.1191L13.7236 18.9346C13.7555 18.9118 13.7829 18.9004 13.8057 18.9004C13.8285 18.9004 13.8512 18.9141 13.874 18.9414C14.0472 19.1693 14.2705 19.3447 14.5439 19.4678C14.8174 19.5954 15.1204 19.6592 15.4531 19.6592C15.9089 19.6592 16.3532 19.5407 16.7861 19.3037C17.2191 19.0667 17.5905 18.7454 17.9004 18.3398C18.2148 17.9388 18.4222 17.5013 18.5225 17.0273L18.584 16.7334L18.8232 15.6328C18.4951 16.1341 18.0781 16.5124 17.5723 16.7676C17.071 17.0182 16.5241 17.1436 15.9316 17.1436C15.4805 17.1436 15.0817 17.0433 14.7354 16.8428C14.3936 16.6423 14.1292 16.3643 13.9424 16.0088C13.7555 15.6488 13.6621 15.2432 13.6621 14.792C13.6621 14.5824 13.6872 14.3477 13.7373 14.0879C13.8604 13.5182 14.0973 12.9987 14.4482 12.5293C14.8037 12.0553 15.2275 11.6839 15.7197 11.415C16.2165 11.1416 16.7269 11.0049 17.251 11.0049C17.8206 11.0049 18.2992 11.1598 18.6865 11.4697C19.0785 11.7751 19.3359 12.1898 19.459 12.7139L19.8213 11.2373C19.835 11.1689 19.8805 11.1348 19.958 11.1348H20.1426ZM16.0957 16.6719C16.556 16.6719 17.0003 16.5579 17.4287 16.3301C17.8617 16.0977 18.2285 15.7832 18.5293 15.3867C18.8346 14.9902 19.0374 14.5573 19.1377 14.0879C19.1787 13.8874 19.1992 13.6937 19.1992 13.5068C19.1992 13.1195 19.1149 12.7731 18.9463 12.4678C18.7822 12.1579 18.5475 11.9163 18.2422 11.7432C17.9414 11.5654 17.5951 11.4766 17.2031 11.4766C16.7611 11.4766 16.3281 11.5928 15.9043 11.8252C15.485 12.0576 15.125 12.3743 14.8242 12.7754C14.5234 13.1719 14.3206 13.6094 14.2158 14.0879C14.1748 14.293 14.1543 14.4889 14.1543 14.6758C14.1543 15.0586 14.234 15.4027 14.3936 15.708C14.5576 16.0088 14.7855 16.2458 15.0771 16.4189C15.3734 16.5876 15.7129 16.6719 16.0957 16.6719Z" fill="#888888"/>
</svg>
