<svg width="24" height="24" viewBox="0 0 24 24" fill="none" xmlns="http://www.w3.org/2000/svg">
<path d="M5.15039 15.3135L4.87012 18H1.34961L3.09961 7.09668H8.96484L10.7148 18H7.18066L6.91406 15.3135H5.15039ZM5.32812 14.0898H6.73633L6.02539 8.69629L5.32812 14.0898ZM17.7832 17.3096C17.6419 17.4691 17.4779 17.6104 17.291 17.7334C17.1087 17.8564 16.9105 17.959 16.6963 18.041C16.4867 18.1276 16.2656 18.1914 16.0332 18.2324C15.8008 18.278 15.5684 18.3008 15.3359 18.3008C15.0124 18.3008 14.6956 18.2484 14.3857 18.1436C14.0804 18.0387 13.807 17.877 13.5654 17.6582C13.3285 17.4395 13.137 17.1637 12.9912 16.8311C12.8454 16.4938 12.7725 16.0973 12.7725 15.6416V11.6904C12.7725 11.2119 12.8454 10.7949 12.9912 10.4395C13.1416 10.084 13.3376 9.79004 13.5791 9.55762C13.8252 9.32064 14.1055 9.14518 14.4199 9.03125C14.7344 8.91732 15.0557 8.86035 15.3838 8.86035C15.6481 8.86035 15.9102 8.88997 16.1699 8.94922C16.4297 9.00846 16.6758 9.09733 16.9082 9.21582C17.1452 9.32975 17.3617 9.47559 17.5576 9.65332C17.7536 9.8265 17.9199 10.027 18.0566 10.2549L18.3711 9.11328H21.1807V17.6035C21.1807 18.1367 21.1237 18.6152 21.0098 19.0391C20.8958 19.4674 20.7409 19.8457 20.5449 20.1738C20.349 20.502 20.1165 20.7822 19.8477 21.0146C19.5833 21.2471 19.2962 21.4362 18.9863 21.582C18.6764 21.7324 18.3506 21.8418 18.0088 21.9102C17.667 21.9785 17.3252 22.0127 16.9834 22.0127C16.6735 22.0127 16.3682 21.9854 16.0674 21.9307C15.7712 21.876 15.4863 21.7962 15.2129 21.6914C14.944 21.5911 14.6956 21.4681 14.4678 21.3223C14.2399 21.1764 14.0417 21.0124 13.873 20.8301C13.7044 20.6523 13.5723 20.4587 13.4766 20.249C13.3854 20.0394 13.3398 19.8184 13.3398 19.5859C13.3398 19.4857 13.349 19.4036 13.3672 19.3398C13.3854 19.276 13.415 19.1917 13.4561 19.0869L16.8945 19.1689V19.9688H17.7832V17.3096ZM17.7832 10.7539H16.1699V16.3799H17.7832V10.7539Z" fill="#333333"/>
</svg>
