<svg width="24" height="24" viewBox="0 0 24 24" fill="none" xmlns="http://www.w3.org/2000/svg">
<path d="M6.54395 8.22949H6.41406L5.8877 13.0625H7.10449L6.54395 8.22949ZM5.76465 14.498L5.38867 17H1.38281L3.37891 6.09668H9.5791L11.6094 17H7.59668L7.22754 14.498H5.76465ZM17.3447 9.45312H16.2031V14.8398H17.3447V9.45312ZM15.1914 7.92871C16.2669 7.93783 17.0394 8.25684 17.5088 8.88574L17.7549 8.12012H21.248V15.3867C21.248 16.8177 20.8493 17.8682 20.0518 18.5381C19.2588 19.208 18.0192 19.543 16.333 19.543C15.1663 19.543 14.0794 19.404 13.0723 19.126L13.4619 17.1367C14.1045 17.3145 14.8929 17.4033 15.8271 17.4033C16.6156 17.4033 17.151 17.319 17.4336 17.1504V15.5986C17.2285 15.8584 16.9255 16.0544 16.5244 16.1865C16.1234 16.3141 15.6722 16.3779 15.1709 16.3779C13.2568 16.3779 12.2998 15.487 12.2998 13.7051V10.6631C12.2998 8.84017 13.2637 7.92871 15.1914 7.92871Z" fill="#333333"/>
</svg>
