<svg width="24" height="24" viewBox="0 0 24 24" fill="none" xmlns="http://www.w3.org/2000/svg">
<g clip-path="url(#clip0_201_1636)">
<path d="M0.707031 17.5469L4.64453 6.0625H4.91797L9.29297 17.5469L10.6602 17.9023V18.3672H6.96875L7.78906 17.5469L6.71582 14.7305H2.60059L1.63672 17.5469L2.45703 18.3672H-0.660156V17.9023L0.707031 17.5469ZM2.88086 13.9102H6.40137L4.54883 9.04297L2.88086 13.9102ZM14.4883 17.4307C14.5065 16.9385 14.6706 16.4805 14.9805 16.0566C15.2904 15.6283 15.7757 15.3366 16.4365 15.1816C16.1904 15.0768 16.0081 14.9355 15.8896 14.7578C15.7757 14.5801 15.7096 14.3636 15.6914 14.1084C15.7005 13.7848 15.7826 13.5365 15.9375 13.3633C16.0924 13.1901 16.2998 13.0762 16.5596 13.0215C16.2725 12.7708 16.0492 12.5065 15.8896 12.2285C15.7347 11.9505 15.6481 11.5882 15.6299 11.1416C15.6709 10.4535 15.9967 9.94076 16.6074 9.60352C17.2227 9.26172 17.9518 9.08398 18.7949 9.07031C19.278 9.0931 19.7132 9.14779 20.1006 9.23438C20.488 9.32096 20.8708 9.4987 21.249 9.76758L21.7275 10.1982C22.0374 9.6696 22.5547 9.3916 23.2793 9.36426L23.5322 10.1709C22.9671 10.1982 22.5934 10.5036 22.4111 11.0869C22.5433 11.374 22.6139 11.7272 22.623 12.1465C22.5501 12.8802 22.2744 13.3906 21.7959 13.6777C21.3219 13.9648 20.7181 14.1289 19.9844 14.1699C19.5514 14.1608 19.1458 14.1152 18.7676 14.0332C18.3939 13.9512 18.0316 13.8145 17.6807 13.623C17.4756 13.6777 17.3206 13.7529 17.2158 13.8486C17.1156 13.9443 17.0654 14.0651 17.0654 14.2109C17.0837 14.5527 17.2682 14.7624 17.6191 14.8398L18.6719 14.9561C19.5059 14.9925 20.1917 15.0677 20.7295 15.1816C21.7458 15.4141 22.4408 15.7171 22.8145 16.0908C23.1927 16.46 23.3887 16.9066 23.4023 17.4307C23.3613 18.1553 22.9352 18.7113 22.124 19.0986C21.3174 19.4906 20.2555 19.7025 18.9385 19.7344C17.626 19.7025 16.5641 19.4906 15.7529 19.0986C14.9463 18.7113 14.5247 18.1553 14.4883 17.4307ZM19.9844 13.2744C20.8092 13.2562 21.2467 12.8802 21.2969 12.1465C21.265 11.7637 21.151 11.4059 20.9551 11.0732C20.7637 10.736 20.3991 10.4352 19.8613 10.1709C19.3053 9.92025 18.7858 9.861 18.3027 9.99316C17.9518 10.0889 17.6921 10.2301 17.5234 10.417C17.3594 10.6038 17.2682 10.8454 17.25 11.1416C17.2591 11.5426 17.3229 11.8662 17.4414 12.1123C17.5599 12.3538 17.7012 12.543 17.8652 12.6797C18.1888 12.9167 18.5238 13.0716 18.8701 13.1445C19.221 13.2129 19.5924 13.2562 19.9844 13.2744ZM16.1699 17.4307C16.2018 17.9684 16.4707 18.3353 16.9766 18.5312C17.487 18.7272 18.141 18.8389 18.9385 18.8662C19.7816 18.848 20.5199 18.7181 21.1533 18.4766C21.7868 18.2396 22.1126 17.891 22.1309 17.4307C22.1217 17.1481 22.0192 16.8997 21.8232 16.6855C21.6273 16.4668 21.3037 16.2708 20.8525 16.0977C20.1735 15.8516 19.4466 15.7194 18.6719 15.7012H17.7422C17.209 15.7559 16.8193 15.945 16.5732 16.2686C16.3271 16.5876 16.1927 16.9749 16.1699 17.4307Z" fill="#333333"/>
</g>
<defs>
<clipPath id="clip0_201_1636">
<rect width="24" height="24" fill="white"/>
</clipPath>
</defs>
</svg>
