<svg width="24" height="24" viewBox="0 0 24 24" fill="none" xmlns="http://www.w3.org/2000/svg">
<path d="M6.80371 6.99219C6.80371 7.0651 6.79004 7.12435 6.7627 7.16992C6.73535 7.21549 6.71257 7.27474 6.69434 7.34766H6.47559C6.4209 7.3112 6.37077 7.28841 6.3252 7.2793C6.27962 7.27018 6.25684 7.22461 6.25684 7.14258C6.25684 7.10612 6.26139 7.07422 6.27051 7.04688C6.27962 7.01042 6.28418 6.97852 6.28418 6.95117C6.33887 6.86914 6.41634 6.82812 6.5166 6.82812C6.55306 6.82812 6.60775 6.83724 6.68066 6.85547C6.69889 6.89193 6.71257 6.91927 6.72168 6.9375C6.73079 6.95573 6.75814 6.97396 6.80371 6.99219ZM7.56934 8.31836C7.55111 8.35482 7.51921 8.40039 7.47363 8.45508C7.42806 8.50065 7.40072 8.53711 7.3916 8.56445L7.32324 8.5918C7.25033 8.5918 7.19108 8.57812 7.14551 8.55078C7.09993 8.52344 7.04525 8.48698 6.98145 8.44141C6.99967 8.36849 7.0179 8.29102 7.03613 8.20898C7.06348 8.11784 7.12728 8.07227 7.22754 8.07227C7.31868 8.07227 7.3916 8.09049 7.44629 8.12695C7.51009 8.1543 7.55111 8.2181 7.56934 8.31836ZM8.19824 10.082L8.03418 10.2734C7.97949 10.2917 7.94303 10.3008 7.9248 10.3008C7.87923 10.3008 7.83366 10.2917 7.78809 10.2734C7.75163 10.2552 7.71061 10.237 7.66504 10.2188C7.65592 10.1914 7.64681 10.1641 7.6377 10.1367C7.62858 10.1094 7.62402 10.0775 7.62402 10.041C7.62402 10.0319 7.63314 10 7.65137 9.94531C7.74251 9.85417 7.861 9.80859 8.00684 9.80859C8.07975 9.88151 8.14355 9.97266 8.19824 10.082ZM6.14746 8.57812C6.14746 8.65104 6.11556 8.71484 6.05176 8.76953C5.98796 8.8151 5.9196 8.83789 5.84668 8.83789C5.81022 8.83789 5.77376 8.82878 5.7373 8.81055C5.71908 8.81966 5.70085 8.82878 5.68262 8.83789C5.66439 8.83789 5.64616 8.84245 5.62793 8.85156C5.61882 8.79688 5.60514 8.74219 5.58691 8.6875C5.5778 8.6237 5.57324 8.56445 5.57324 8.50977C5.57324 8.45508 5.58691 8.41862 5.61426 8.40039C5.65072 8.37305 5.68717 8.33659 5.72363 8.29102C5.76921 8.29102 5.81934 8.29557 5.87402 8.30469C5.92871 8.30469 5.97884 8.30469 6.02441 8.30469C6.04264 8.35026 6.06543 8.39583 6.09277 8.44141C6.12923 8.47786 6.14746 8.52344 6.14746 8.57812ZM8.84082 11.5449C8.84082 11.5814 8.83171 11.6178 8.81348 11.6543C8.80436 11.6908 8.7998 11.7272 8.7998 11.7637C8.75423 11.7728 8.71322 11.791 8.67676 11.8184C8.6403 11.8366 8.59928 11.8457 8.55371 11.8457C8.50814 11.8457 8.46257 11.832 8.41699 11.8047C8.37142 11.7682 8.32585 11.7454 8.28027 11.7363C8.28027 11.7181 8.28483 11.7044 8.29395 11.6953C8.30306 11.6771 8.30762 11.6589 8.30762 11.6406C8.30762 11.6224 8.30306 11.6042 8.29395 11.5859C8.28483 11.5586 8.27572 11.5358 8.2666 11.5176C8.31217 11.4629 8.3623 11.4128 8.41699 11.3672C8.47168 11.3125 8.53548 11.2852 8.6084 11.2852C8.6722 11.2852 8.72689 11.3125 8.77246 11.3672C8.81803 11.4219 8.84082 11.4811 8.84082 11.5449ZM9.26465 13.0762C9.26465 13.1947 9.22819 13.263 9.15527 13.2812C9.09147 13.2904 9.01855 13.3177 8.93652 13.3633C8.90007 13.3268 8.86361 13.2995 8.82715 13.2812C8.79069 13.263 8.75879 13.2311 8.73145 13.1855C8.72233 13.14 8.71322 13.0944 8.7041 13.0488C8.69499 12.9941 8.68132 12.944 8.66309 12.8984C8.71777 12.8711 8.77246 12.8483 8.82715 12.8301C8.89095 12.8027 8.95931 12.7891 9.03223 12.7891C9.12337 12.7891 9.18262 12.8164 9.20996 12.8711C9.24642 12.9258 9.26465 12.9941 9.26465 13.0762ZM9.85254 14.1699C9.85254 14.2428 9.83887 14.3203 9.81152 14.4023C9.76595 14.4206 9.72038 14.4388 9.6748 14.457C9.62923 14.4661 9.58366 14.4707 9.53809 14.4707C9.38314 14.4707 9.30566 14.3932 9.30566 14.2383C9.30566 14.2109 9.30566 14.1882 9.30566 14.1699C9.31478 14.1426 9.31934 14.1198 9.31934 14.1016L9.45605 13.9375C9.50163 13.9557 9.54264 13.9648 9.5791 13.9648C9.62467 13.9648 9.67025 13.9694 9.71582 13.9785C9.77962 14.0423 9.8252 14.1061 9.85254 14.1699ZM5.42285 10.0957C5.36816 10.1504 5.30436 10.2005 5.23145 10.2461C5.16764 10.2917 5.09473 10.3145 5.0127 10.3145C4.96712 10.3145 4.91699 10.2871 4.8623 10.2324C4.83496 10.1686 4.82129 10.1003 4.82129 10.0273C4.82129 10 4.82585 9.97266 4.83496 9.94531C4.84408 9.91797 4.84863 9.89062 4.84863 9.86328C4.88509 9.84505 4.91699 9.82682 4.94434 9.80859C4.98079 9.78125 5.02181 9.76758 5.06738 9.76758C5.10384 9.76758 5.13574 9.78125 5.16309 9.80859C5.19954 9.80859 5.23145 9.81315 5.25879 9.82227C5.28613 9.83138 5.31348 9.83594 5.34082 9.83594C5.35905 9.89062 5.36816 9.9362 5.36816 9.97266C5.37728 10.0091 5.39551 10.0501 5.42285 10.0957ZM7.9248 13.3496C7.9248 13.4408 7.88379 13.5137 7.80176 13.5684C7.72884 13.5775 7.64225 13.6048 7.54199 13.6504L7.32324 13.5C7.34147 13.4635 7.34603 13.4316 7.33691 13.4043C7.33691 13.3678 7.33691 13.3268 7.33691 13.2812C7.38249 13.1992 7.41895 13.1445 7.44629 13.1172C7.47363 13.0898 7.49642 13.0762 7.51465 13.0762C7.54199 13.0671 7.56478 13.0625 7.58301 13.0625C7.61035 13.0534 7.6377 13.0352 7.66504 13.0078L7.87012 13.1172V13.1855C7.87012 13.2129 7.87923 13.2402 7.89746 13.2676C7.91569 13.2858 7.9248 13.3132 7.9248 13.3496ZM10.2627 15.6465C10.2354 15.7467 10.1898 15.8242 10.126 15.8789C10.0713 15.9245 9.99382 15.9609 9.89355 15.9883C9.84798 15.9427 9.80241 15.9062 9.75684 15.8789C9.72038 15.8424 9.68392 15.8014 9.64746 15.7559C9.65658 15.7194 9.66569 15.6875 9.6748 15.6602C9.68392 15.6237 9.68848 15.5827 9.68848 15.5371C9.73405 15.5189 9.76595 15.4961 9.78418 15.4688C9.80241 15.4414 9.82975 15.4141 9.86621 15.3867C9.9209 15.4049 9.97559 15.4186 10.0303 15.4277C10.085 15.4368 10.1396 15.4551 10.1943 15.4824C10.1943 15.528 10.1989 15.5599 10.208 15.5781L10.2627 15.6465ZM10.7412 17.0273C10.723 17.0638 10.6956 17.0957 10.6592 17.123C10.6318 17.1504 10.6045 17.1732 10.5771 17.1914C10.5042 17.1732 10.4404 17.1641 10.3857 17.1641C10.3311 17.1641 10.2809 17.1595 10.2354 17.1504C10.2262 17.1048 10.2126 17.0592 10.1943 17.0137C10.1852 16.9681 10.1807 16.9225 10.1807 16.877C10.1807 16.8223 10.2126 16.7767 10.2764 16.7402C10.3402 16.7038 10.3994 16.6855 10.4541 16.6855C10.527 16.6855 10.6045 16.6992 10.6865 16.7266C10.7048 16.7721 10.7139 16.8223 10.7139 16.877C10.723 16.9225 10.7321 16.9727 10.7412 17.0273ZM6.73535 13.2676C6.73535 13.3132 6.73079 13.3542 6.72168 13.3906C6.72168 13.4271 6.72168 13.4681 6.72168 13.5137L6.65332 13.5547C6.55306 13.5911 6.44368 13.6094 6.3252 13.6094C6.25228 13.5365 6.21582 13.4772 6.21582 13.4316C6.21582 13.377 6.20671 13.304 6.18848 13.2129C6.28874 13.1126 6.39811 13.0625 6.5166 13.0625H6.6123C6.63053 13.099 6.64876 13.1354 6.66699 13.1719C6.68522 13.2083 6.70801 13.2402 6.73535 13.2676ZM4.69824 11.8047C4.65267 11.832 4.60254 11.8639 4.54785 11.9004C4.50228 11.9277 4.45215 11.9414 4.39746 11.9414C4.32454 11.8958 4.2653 11.8548 4.21973 11.8184C4.17415 11.7819 4.15137 11.7227 4.15137 11.6406L4.12402 11.5586C4.22428 11.4948 4.29264 11.4629 4.3291 11.4629C4.37467 11.4629 4.44759 11.4583 4.54785 11.4492L4.60254 11.4766C4.64811 11.5221 4.6709 11.5768 4.6709 11.6406C4.6709 11.6953 4.68001 11.75 4.69824 11.8047ZM5.5459 13.3906L5.39551 13.582C5.35905 13.6003 5.32259 13.6094 5.28613 13.6094C5.24967 13.6094 5.21322 13.6048 5.17676 13.5957C5.14941 13.5866 5.11751 13.5775 5.08105 13.5684C5.06283 13.5319 5.04915 13.5 5.04004 13.4727C5.03092 13.4362 5.00358 13.4089 4.95801 13.3906C4.97624 13.3086 5.00358 13.2493 5.04004 13.2129C5.0765 13.1673 5.12663 13.1172 5.19043 13.0625C5.236 13.0807 5.28158 13.0898 5.32715 13.0898C5.37272 13.0898 5.41829 13.0944 5.46387 13.1035C5.4821 13.1491 5.49121 13.1992 5.49121 13.2539C5.50033 13.2995 5.51855 13.3451 5.5459 13.3906ZM4.11035 13.1582C4.07389 13.2129 4.03743 13.2676 4.00098 13.3223C3.96452 13.377 3.90983 13.4043 3.83691 13.4043C3.77311 13.4043 3.70475 13.377 3.63184 13.3223C3.56803 13.2676 3.53613 13.2083 3.53613 13.1445C3.53613 13.0898 3.55892 13.0306 3.60449 12.9668C3.65007 12.8939 3.70475 12.8574 3.76855 12.8574C3.81413 12.8574 3.85059 12.8665 3.87793 12.8848C3.91439 12.903 3.9554 12.9167 4.00098 12.9258C4.03743 12.9622 4.05566 12.9987 4.05566 13.0352C4.06478 13.0716 4.08301 13.1126 4.11035 13.1582ZM3.50879 14.4707C3.50879 14.5527 3.47233 14.6211 3.39941 14.6758C3.3265 14.7214 3.25358 14.7533 3.18066 14.7715C3.11686 14.7168 3.03939 14.6758 2.94824 14.6484C2.94824 14.612 2.94368 14.5846 2.93457 14.5664C2.92546 14.5391 2.9209 14.5072 2.9209 14.4707C2.9209 14.4251 2.93913 14.3796 2.97559 14.334C3.01204 14.2884 3.04395 14.252 3.07129 14.2246C3.19889 14.2246 3.31283 14.2428 3.41309 14.2793C3.43132 14.3158 3.44499 14.3477 3.4541 14.375C3.46322 14.4023 3.47689 14.4342 3.49512 14.4707H3.50879ZM2.93457 15.8652C2.93457 15.9199 2.90723 15.9746 2.85254 16.0293C2.79785 16.0749 2.74316 16.0977 2.68848 16.0977C2.65202 16.0977 2.61556 16.0794 2.5791 16.043C2.53353 16.0247 2.49251 15.9974 2.45605 15.9609C2.4196 15.9245 2.40137 15.8835 2.40137 15.8379V15.7422C2.42871 15.7148 2.4515 15.6966 2.46973 15.6875C2.49707 15.6693 2.5153 15.6374 2.52441 15.5918H2.64746C2.69303 15.5918 2.73405 15.6009 2.77051 15.6191C2.80697 15.6283 2.84342 15.6419 2.87988 15.6602C2.91634 15.7513 2.93457 15.8197 2.93457 15.8652ZM2.53809 16.9316C2.53809 16.959 2.52897 17 2.51074 17.0547C2.4834 17.082 2.45605 17.0957 2.42871 17.0957C2.40137 17.0957 2.3877 17.1185 2.3877 17.1641H2.2373C2.16439 17.1641 2.09603 17.1413 2.03223 17.0957C1.97754 17.0501 1.9502 16.9909 1.9502 16.918C1.9502 16.8086 2.00488 16.7083 2.11426 16.6172C2.13249 16.6263 2.15527 16.6354 2.18262 16.6445C2.20996 16.6536 2.23275 16.6582 2.25098 16.6582C2.26921 16.6582 2.28288 16.6582 2.29199 16.6582C2.30111 16.6491 2.31478 16.6445 2.33301 16.6445C2.37858 16.6445 2.41504 16.6582 2.44238 16.6855C2.46973 16.7038 2.49707 16.722 2.52441 16.7402C2.52441 16.7767 2.52441 16.8132 2.52441 16.8496C2.53353 16.877 2.53809 16.9043 2.53809 16.9316ZM20.5576 8.38672C20.5576 8.43229 20.5303 8.49154 20.4756 8.56445C20.43 8.62826 20.3799 8.66016 20.3252 8.66016C20.2249 8.66016 20.1475 8.64648 20.0928 8.61914C20.0381 8.5918 19.988 8.53255 19.9424 8.44141C19.9515 8.41406 19.9561 8.38672 19.9561 8.35938C19.9652 8.32292 19.9788 8.29557 19.9971 8.27734L20.0244 8.14062C20.0426 8.14062 20.0609 8.13607 20.0791 8.12695C20.1156 8.10872 20.1475 8.09961 20.1748 8.09961C20.2204 8.09961 20.2614 8.10872 20.2979 8.12695C20.3343 8.13607 20.3753 8.14062 20.4209 8.14062C20.4574 8.17708 20.4893 8.2181 20.5166 8.26367C20.5439 8.30013 20.5576 8.34115 20.5576 8.38672ZM19.6006 7.64844C19.6006 7.6849 19.5824 7.73047 19.5459 7.78516C19.473 7.82161 19.4046 7.83984 19.3408 7.83984C19.3135 7.83984 19.2861 7.83984 19.2588 7.83984C19.2406 7.83073 19.2178 7.82161 19.1904 7.8125C19.154 7.77604 19.1221 7.73503 19.0947 7.68945C19.0674 7.64388 19.0309 7.60286 18.9854 7.56641C19.0309 7.5026 19.0811 7.44336 19.1357 7.38867C19.1904 7.33398 19.2542 7.30664 19.3271 7.30664C19.3363 7.30664 19.3682 7.31576 19.4229 7.33398C19.4684 7.37956 19.5094 7.42513 19.5459 7.4707C19.5824 7.51628 19.6006 7.57552 19.6006 7.64844ZM18.5342 6.91016C18.5342 7.09245 18.4521 7.18359 18.2881 7.18359C18.2152 7.18359 18.1468 7.16081 18.083 7.11523C18.0192 7.06966 17.9873 7.00586 17.9873 6.92383V6.8418C18.0238 6.79622 18.0648 6.75521 18.1104 6.71875C18.165 6.67318 18.2243 6.65039 18.2881 6.65039C18.3428 6.65039 18.3838 6.66862 18.4111 6.70508C18.4476 6.73242 18.4886 6.75977 18.5342 6.78711V6.91016ZM17.0303 6.75977C17.0303 6.80534 17.0257 6.85091 17.0166 6.89648C17.0075 6.94206 16.9984 6.98763 16.9893 7.0332C16.9163 7.05143 16.8617 7.06055 16.8252 7.06055C16.6976 7.06055 16.5791 7.00586 16.4697 6.89648V6.81445C16.4697 6.77799 16.4697 6.74609 16.4697 6.71875C16.4788 6.69141 16.4788 6.66406 16.4697 6.63672C16.5335 6.61849 16.5973 6.57747 16.6611 6.51367C16.734 6.52279 16.7933 6.54102 16.8389 6.56836C16.8936 6.58659 16.9574 6.60482 17.0303 6.62305V6.75977ZM15.7314 7.22461C15.6312 7.30664 15.5446 7.34766 15.4717 7.34766C15.4352 7.34766 15.4033 7.3431 15.376 7.33398C15.3486 7.31576 15.3213 7.29753 15.2939 7.2793C15.2757 7.2793 15.2393 7.28841 15.1846 7.30664C15.1846 7.24284 15.1846 7.18359 15.1846 7.12891C15.1846 7.0651 15.1891 7.0013 15.1982 6.9375C15.2894 6.8737 15.376 6.8418 15.458 6.8418C15.5036 6.8418 15.5446 6.85091 15.5811 6.86914C15.6175 6.88737 15.6585 6.9056 15.7041 6.92383C15.7041 6.9694 15.7087 7.01953 15.7178 7.07422C15.7269 7.12891 15.7314 7.17904 15.7314 7.22461ZM20.4756 12.707C20.4665 12.7526 20.4574 12.7982 20.4482 12.8438C20.4391 12.8893 20.4163 12.9303 20.3799 12.9668C20.3343 12.985 20.2933 12.9941 20.2568 12.9941C20.2295 12.9941 20.1976 13.0169 20.1611 13.0625C20.0973 13.0169 20.0381 12.9759 19.9834 12.9395C19.9287 12.903 19.9014 12.8438 19.9014 12.7617C19.9196 12.7161 19.9333 12.6751 19.9424 12.6387C19.9606 12.6022 19.9834 12.5658 20.0107 12.5293C20.1019 12.5111 20.1702 12.502 20.2158 12.502C20.3434 12.502 20.43 12.5703 20.4756 12.707ZM19.3818 12.6113C19.3818 12.7298 19.3454 12.8255 19.2725 12.8984C19.236 12.8984 19.1995 12.903 19.1631 12.9121C19.1357 12.9121 19.1038 12.9121 19.0674 12.9121C19.0309 12.9121 18.9854 12.8893 18.9307 12.8438C18.8851 12.7891 18.8532 12.748 18.835 12.7207C18.8532 12.5749 18.8896 12.4837 18.9443 12.4473C18.999 12.4017 19.0947 12.3789 19.2314 12.3789C19.2497 12.4062 19.2633 12.4336 19.2725 12.4609C19.2816 12.4792 19.2952 12.502 19.3135 12.5293C19.359 12.5475 19.3818 12.5749 19.3818 12.6113ZM14.4053 7.78516C14.3779 7.85807 14.3643 7.92643 14.3643 7.99023C14.3278 8.04492 14.2868 8.08138 14.2412 8.09961C14.2048 8.11784 14.1637 8.14062 14.1182 8.16797C14.0726 8.16797 14.027 8.15885 13.9814 8.14062C13.9359 8.1224 13.8903 8.11328 13.8447 8.11328C13.8447 8.09505 13.8447 8.08138 13.8447 8.07227C13.8538 8.06315 13.8584 8.04948 13.8584 8.03125C13.8493 8.00391 13.8402 7.97656 13.8311 7.94922C13.8219 7.92188 13.8174 7.89453 13.8174 7.86719C13.8174 7.83073 13.8219 7.80339 13.8311 7.78516C13.8402 7.76693 13.8356 7.73503 13.8174 7.68945C13.863 7.67122 13.9085 7.65299 13.9541 7.63477C14.0088 7.60742 14.0635 7.59375 14.1182 7.59375C14.1911 7.59375 14.2458 7.61654 14.2822 7.66211C14.3187 7.69857 14.3597 7.73958 14.4053 7.78516ZM20.4346 14.1562C20.4346 14.2292 20.4027 14.293 20.3389 14.3477C20.2842 14.3932 20.2204 14.416 20.1475 14.416C20.111 14.416 20.0654 14.4069 20.0107 14.3887C19.9834 14.3431 19.9469 14.3021 19.9014 14.2656C19.8649 14.2201 19.8467 14.1699 19.8467 14.1152C19.8467 14.0788 19.8558 14.0423 19.874 14.0059C19.9196 13.9785 19.9606 13.9512 19.9971 13.9238C20.0426 13.8965 20.0882 13.8737 20.1338 13.8555C20.1885 13.8555 20.2249 13.8691 20.2432 13.8965C20.2614 13.9147 20.3115 13.9147 20.3936 13.8965C20.3936 13.9421 20.3981 13.9876 20.4072 14.0332C20.4255 14.0697 20.4346 14.1107 20.4346 14.1562ZM18.0557 12.625C18.0557 12.6615 18.0374 12.7161 18.001 12.7891C17.9645 12.862 17.9417 12.9076 17.9326 12.9258H17.6455C17.609 12.8984 17.5771 12.8711 17.5498 12.8438C17.5316 12.8073 17.5042 12.7708 17.4678 12.7344C17.486 12.6888 17.4951 12.6432 17.4951 12.5977C17.4951 12.543 17.4951 12.4928 17.4951 12.4473C17.568 12.4473 17.609 12.4427 17.6182 12.4336C17.6364 12.4245 17.6729 12.3971 17.7275 12.3516C17.7731 12.3789 17.805 12.3926 17.8232 12.3926C17.8506 12.3835 17.887 12.3835 17.9326 12.3926C17.96 12.429 17.9873 12.4655 18.0146 12.502C18.042 12.5384 18.0557 12.5794 18.0557 12.625ZM20.3936 15.5234C20.348 15.569 20.3115 15.6055 20.2842 15.6328C20.266 15.6602 20.2204 15.6738 20.1475 15.6738H20.0107C19.9743 15.6374 19.9424 15.6055 19.915 15.5781C19.8968 15.5508 19.8695 15.528 19.833 15.5098C19.833 15.4642 19.8376 15.4232 19.8467 15.3867C19.8649 15.3503 19.874 15.3092 19.874 15.2637C19.9196 15.2181 19.9561 15.1862 19.9834 15.168C20.0107 15.1406 20.0609 15.127 20.1338 15.127C20.1794 15.1452 20.2158 15.1634 20.2432 15.1816C20.2796 15.1999 20.3206 15.2135 20.3662 15.2227C20.3662 15.2682 20.3708 15.3184 20.3799 15.373C20.389 15.4277 20.3936 15.4779 20.3936 15.5234ZM13.2432 9.27539C13.1976 9.36654 13.152 9.42122 13.1064 9.43945C13.0609 9.45768 12.988 9.4668 12.8877 9.4668C12.8421 9.42122 12.792 9.38021 12.7373 9.34375C12.6917 9.29818 12.6689 9.23893 12.6689 9.16602C12.7145 9.08398 12.751 9.02474 12.7783 8.98828C12.8057 8.94271 12.8695 8.91992 12.9697 8.91992C13.0335 8.91992 13.1019 8.94271 13.1748 8.98828C13.2204 9.07031 13.2432 9.16602 13.2432 9.27539ZM16.6885 12.6523V12.748C16.6338 12.7663 16.6019 12.7891 16.5928 12.8164C16.5928 12.8346 16.5837 12.8665 16.5654 12.9121H16.4971C16.4788 12.9212 16.4561 12.9303 16.4287 12.9395C16.4014 12.9486 16.3786 12.9531 16.3604 12.9531C16.3239 12.9531 16.2738 12.9349 16.21 12.8984C16.1553 12.8529 16.1143 12.8164 16.0869 12.7891C16.0869 12.7617 16.0824 12.7344 16.0732 12.707C16.0732 12.6797 16.0732 12.6523 16.0732 12.625C16.0732 12.5521 16.096 12.4974 16.1416 12.4609C16.1872 12.4245 16.2327 12.388 16.2783 12.3516C16.2874 12.3516 16.3193 12.3607 16.374 12.3789C16.3923 12.388 16.415 12.3926 16.4424 12.3926L16.6611 12.4746C16.6611 12.4928 16.6657 12.5156 16.6748 12.543C16.6748 12.5612 16.6748 12.5794 16.6748 12.5977C16.6839 12.6159 16.6885 12.6341 16.6885 12.6523ZM20.4756 16.4668C20.4756 16.6126 20.43 16.7357 20.3389 16.8359C20.3024 16.8359 20.266 16.8405 20.2295 16.8496C20.2021 16.8496 20.1702 16.8496 20.1338 16.8496C20.0791 16.8496 20.0244 16.8223 19.9697 16.7676C19.9424 16.7038 19.9287 16.6354 19.9287 16.5625C19.9287 16.526 19.9287 16.4941 19.9287 16.4668C19.9378 16.4303 19.9424 16.3893 19.9424 16.3438C19.9697 16.3346 19.9971 16.3255 20.0244 16.3164C20.0609 16.3073 20.0928 16.3027 20.1201 16.3027H20.3115L20.4756 16.4668ZM19.4229 16.7812L19.3955 16.9727C19.3317 17.0729 19.2451 17.123 19.1357 17.123C19.0719 17.123 19.0218 17.1048 18.9854 17.0684C18.9489 17.041 18.9033 17.0137 18.8486 16.9863V16.8906C18.8486 16.8086 18.8714 16.7402 18.917 16.6855C18.9626 16.6217 19.0309 16.5898 19.1221 16.5898C19.1859 16.5898 19.2178 16.6035 19.2178 16.6309C19.2269 16.6582 19.2679 16.6628 19.3408 16.6445L19.4229 16.7812ZM12.6006 10.8203C12.6006 10.8841 12.5915 10.9297 12.5732 10.957C12.5459 10.9844 12.5186 11.0117 12.4912 11.0391C12.4639 11.0573 12.4274 11.0664 12.3818 11.0664C12.2816 11.0664 12.2087 11.0573 12.1631 11.0391C12.1266 11.0208 12.0719 10.9753 11.999 10.9023C12.0173 10.8659 12.0264 10.8385 12.0264 10.8203C12.0081 10.8021 11.999 10.7793 11.999 10.752V10.6836C12.0628 10.6654 12.113 10.638 12.1494 10.6016C12.1859 10.5651 12.2406 10.5469 12.3135 10.5469C12.359 10.5651 12.4001 10.5788 12.4365 10.5879C12.473 10.5879 12.5003 10.597 12.5186 10.6152C12.5459 10.6243 12.5641 10.6471 12.5732 10.6836C12.5915 10.7109 12.6006 10.7565 12.6006 10.8203ZM18.3154 17.082V17.1367C18.279 17.1823 18.2334 17.2233 18.1787 17.2598C18.1331 17.2962 18.083 17.3145 18.0283 17.3145H17.9463C17.8278 17.2598 17.7686 17.1686 17.7686 17.041C17.7686 17.0046 17.7777 16.959 17.7959 16.9043C17.8415 16.8861 17.887 16.8678 17.9326 16.8496C17.9782 16.8314 18.0283 16.8223 18.083 16.8223C18.1468 16.8223 18.2015 16.8451 18.2471 16.8906C18.2653 16.9271 18.279 16.959 18.2881 16.9863C18.2972 17.0137 18.3063 17.0456 18.3154 17.082ZM12.5869 12.584V12.748C12.5231 12.8118 12.432 12.8438 12.3135 12.8438H12.1631C12.1357 12.8164 12.1038 12.7845 12.0674 12.748C12.04 12.7116 12.0264 12.6706 12.0264 12.625C12.0264 12.5612 12.0355 12.5111 12.0537 12.4746C12.0719 12.4382 12.0993 12.3971 12.1357 12.3516C12.1722 12.3424 12.2041 12.3333 12.2314 12.3242C12.2588 12.3151 12.2861 12.3105 12.3135 12.3105C12.359 12.3105 12.3955 12.3151 12.4229 12.3242C12.4593 12.3333 12.5003 12.347 12.5459 12.3652C12.5732 12.4382 12.5869 12.5111 12.5869 12.584ZM16.8936 16.8223C16.8844 16.8405 16.8708 16.877 16.8525 16.9316C16.8708 16.9499 16.8799 16.9727 16.8799 17C16.8252 17.0456 16.7751 17.0866 16.7295 17.123C16.6839 17.1686 16.6338 17.1914 16.5791 17.1914C16.5153 17.1914 16.4743 17.1732 16.4561 17.1367C16.4378 17.1003 16.3968 17.0775 16.333 17.0684C16.3239 17.0319 16.3193 16.9818 16.3193 16.918C16.3193 16.8177 16.3512 16.7357 16.415 16.6719C16.4333 16.6719 16.4561 16.6719 16.4834 16.6719C16.5107 16.6628 16.5381 16.6582 16.5654 16.6582C16.6383 16.6582 16.6976 16.6764 16.7432 16.7129C16.7979 16.7402 16.848 16.7767 16.8936 16.8223ZM13.1201 14.375C13.0745 14.4206 13.0426 14.457 13.0244 14.4844C13.0062 14.5117 12.9743 14.5391 12.9287 14.5664C12.8558 14.5664 12.8011 14.5664 12.7646 14.5664C12.7373 14.5573 12.71 14.5482 12.6826 14.5391C12.6644 14.5208 12.6416 14.5026 12.6143 14.4844C12.596 14.457 12.5641 14.4251 12.5186 14.3887V14.293C12.5186 14.2018 12.5505 14.138 12.6143 14.1016C12.6781 14.056 12.751 14.0332 12.833 14.0332C12.9242 14.0332 13.0107 14.0651 13.0928 14.1289C13.0928 14.1471 13.0882 14.1654 13.0791 14.1836C13.0791 14.2018 13.0791 14.2201 13.0791 14.2383C13.0791 14.293 13.0928 14.3385 13.1201 14.375ZM15.2803 16.4668C15.2712 16.5124 15.2666 16.5534 15.2666 16.5898C15.2757 16.6172 15.2803 16.6491 15.2803 16.6855L15.1162 16.8496C15.0342 16.8405 14.9521 16.8177 14.8701 16.7812C14.7881 16.7448 14.7471 16.6764 14.7471 16.5762C14.7471 16.5397 14.7471 16.5078 14.7471 16.4805C14.7562 16.4531 14.7562 16.4212 14.7471 16.3848C14.8564 16.3392 14.9521 16.3164 15.0342 16.3164C15.1618 16.3164 15.2438 16.3665 15.2803 16.4668ZM13.8037 15.8105C13.8037 15.8561 13.7946 15.9154 13.7764 15.9883L13.4482 16.0156C13.4027 15.9701 13.3571 15.929 13.3115 15.8926C13.2751 15.847 13.2568 15.7878 13.2568 15.7148C13.2568 15.6419 13.2842 15.5872 13.3389 15.5508C13.4027 15.5052 13.471 15.4824 13.5439 15.4824C13.5986 15.4824 13.6624 15.4961 13.7354 15.5234C13.7809 15.6328 13.8037 15.7285 13.8037 15.8105Z" fill="#333333"/>
</svg>
