<svg width="24" height="24" viewBox="0 0 24 24" fill="none" xmlns="http://www.w3.org/2000/svg">
<path d="M7.16044 9.692C6.7591 9.692 6.46044 9.80867 6.26444 10.042C6.07777 10.2753 5.98444 10.6907 5.98444 11.288V12.94H8.30844V11.26C8.30844 10.868 8.26177 10.5553 8.16844 10.322C8.0751 10.0793 7.94444 9.916 7.77644 9.832C7.61777 9.73867 7.41244 9.692 7.16044 9.692ZM8.30844 14.872H5.98444V15.614C5.98444 16.09 5.85844 16.44 5.60644 16.664C5.35444 16.888 4.92044 17 4.30444 17C4.0431 17 3.82844 16.9627 3.66044 16.888C3.49244 16.8133 3.3431 16.6873 3.21244 16.51C3.0911 16.3327 2.99777 16.076 2.93244 15.74C2.87644 15.3947 2.82977 14.984 2.79244 14.508C2.76444 14.0227 2.75044 13.4113 2.75044 12.674C2.75044 12.03 2.81577 11.442 2.94644 10.91C3.08644 10.3687 3.26844 9.91133 3.49244 9.538C3.72577 9.16467 3.9871 8.838 4.27644 8.558C4.56577 8.26867 4.87844 8.04467 5.21444 7.886C5.55977 7.72733 5.8911 7.61067 6.20844 7.536C6.5351 7.452 6.86177 7.41 7.18844 7.41C7.58044 7.41 7.96777 7.466 8.35044 7.578C8.7331 7.68067 9.12044 7.86267 9.51244 8.124C9.90444 8.38533 10.2451 8.712 10.5344 9.104C10.8331 9.48667 11.0758 9.986 11.2624 10.602C11.4491 11.218 11.5424 11.9087 11.5424 12.674C11.5424 13.906 11.4958 14.8207 11.4024 15.418C11.3184 16.006 11.1691 16.4167 10.9544 16.65C10.7491 16.8833 10.4271 17 9.98844 17C9.37244 17 8.93844 16.888 8.68644 16.664C8.43444 16.44 8.30844 16.09 8.30844 15.614V14.872ZM15.3072 17.084C14.5699 17.084 13.9586 16.7853 13.4732 16.188C12.9879 15.5813 12.7452 14.7507 12.7452 13.696C12.7452 12.632 12.9832 11.7873 13.4592 11.162C13.9352 10.5367 14.5466 10.224 15.2932 10.224C16.0492 10.224 16.7492 10.4853 17.3932 11.008C17.6359 10.5507 18.0372 10.322 18.5972 10.322C19.1012 10.322 19.4932 10.434 19.7732 10.658C20.0626 10.882 20.2072 11.2833 20.2072 11.862V14.424C20.2072 15.3293 20.1466 16.1087 20.0252 16.762C19.9132 17.406 19.7126 17.9753 19.4232 18.47C19.1432 18.9647 18.7512 19.3333 18.2472 19.576C17.7526 19.8187 17.1412 19.94 16.4132 19.94C15.9092 19.94 15.4426 19.87 15.0132 19.73C14.5839 19.59 14.2432 19.4173 13.9912 19.212C13.7392 19.0067 13.5432 18.8013 13.4032 18.596C13.2632 18.3907 13.1932 18.2133 13.1932 18.064C13.1932 17.8867 13.2446 17.7373 13.3472 17.616C13.4499 17.4947 13.5946 17.434 13.7812 17.434C13.8932 17.434 14.1732 17.5553 14.6212 17.798C15.0786 18.0407 15.4472 18.162 15.7272 18.162C16.6792 18.162 17.1552 17.672 17.1552 16.692C16.6139 16.9533 15.9979 17.084 15.3072 17.084ZM17.2112 14.984L17.1972 12.338C17.0386 12.0767 16.8379 11.946 16.5952 11.946C16.4272 11.946 16.2779 12.0347 16.1472 12.212C16.0259 12.3893 15.9326 12.6087 15.8672 12.87C15.8112 13.1313 15.7832 13.4067 15.7832 13.696C15.7832 14.1347 15.8532 14.522 15.9932 14.858C16.1332 15.1847 16.3292 15.348 16.5812 15.348C16.8332 15.348 17.0432 15.2267 17.2112 14.984Z" fill="#888888"/>
</svg>
