<svg width="24" height="24" viewBox="0 0 24 24" fill="none" xmlns="http://www.w3.org/2000/svg">
<path d="M3.45721 17C3.19588 17 2.99521 16.888 2.85521 16.664C2.71521 16.44 2.70121 16.202 2.81321 15.95L6.74721 6.556C6.88721 6.22933 7.11588 6.066 7.43321 6.066C7.76921 6.066 7.99788 6.22933 8.11921 6.556L12.0672 15.978C12.1699 16.2393 12.1512 16.4773 12.0112 16.692C11.8805 16.8973 11.6799 17 11.4092 17C11.2692 17 11.1339 16.9627 11.0032 16.888C10.8819 16.804 10.7932 16.692 10.7372 16.552L9.95321 14.592H4.92721L4.12921 16.552C4.06388 16.7013 3.96588 16.8133 3.83521 16.888C3.71388 16.9627 3.58788 17 3.45721 17ZM5.41721 13.388H9.46321L7.46121 8.404L5.41721 13.388ZM16.5135 17.056C15.8135 17.056 15.1929 16.8927 14.6515 16.566C14.1195 16.23 13.6995 15.7727 13.3915 15.194C13.0835 14.606 12.9295 13.934 12.9295 13.178C12.9295 12.4127 13.0929 11.7407 13.4195 11.162C13.7555 10.574 14.2129 10.1167 14.7915 9.79C15.3702 9.454 16.0375 9.286 16.7935 9.286C17.5402 9.286 18.2029 9.454 18.7815 9.79C19.3602 10.1167 19.8129 10.574 20.1395 11.162C20.4755 11.7407 20.6435 12.4127 20.6435 13.178V16.202C20.6435 16.9393 20.4802 17.6067 20.1535 18.204C19.8269 18.8107 19.3695 19.2913 18.7815 19.646C18.2029 20.0007 17.5309 20.178 16.7655 20.178C16.1029 20.178 15.4822 20.0473 14.9035 19.786C14.3249 19.5247 13.8349 19.142 13.4335 18.638C13.3122 18.4793 13.2655 18.316 13.2935 18.148C13.3309 17.98 13.4242 17.8447 13.5735 17.742C13.7415 17.63 13.9142 17.5927 14.0915 17.63C14.2782 17.6673 14.4275 17.7607 14.5395 17.91C14.7915 18.2273 15.1089 18.4747 15.4915 18.652C15.8742 18.8293 16.3082 18.918 16.7935 18.918C17.2415 18.918 17.6522 18.8107 18.0255 18.596C18.4082 18.3813 18.7115 18.064 18.9355 17.644C19.1595 17.224 19.2715 16.7107 19.2715 16.104V15.418C18.9822 15.922 18.5995 16.3233 18.1235 16.622C17.6475 16.9113 17.1109 17.056 16.5135 17.056ZM16.7935 15.796C17.2789 15.796 17.7082 15.684 18.0815 15.46C18.4549 15.236 18.7442 14.928 18.9495 14.536C19.1642 14.144 19.2715 13.6913 19.2715 13.178C19.2715 12.6647 19.1642 12.212 18.9495 11.82C18.7442 11.4187 18.4549 11.106 18.0815 10.882C17.7082 10.658 17.2789 10.546 16.7935 10.546C16.3082 10.546 15.8789 10.658 15.5055 10.882C15.1322 11.106 14.8382 11.4187 14.6235 11.82C14.4089 12.212 14.3015 12.6647 14.3015 13.178C14.3015 13.6913 14.4089 14.144 14.6235 14.536C14.8382 14.928 15.1322 15.236 15.5055 15.46C15.8789 15.684 16.3082 15.796 16.7935 15.796Z" fill="#333333"/>
</svg>
