<svg width="24" height="24" viewBox="0 0 24 24" fill="none" xmlns="http://www.w3.org/2000/svg">
<path d="M3.07057 17C3.3739 16.4587 3.69124 15.8917 4.02257 15.299C4.3539 14.7017 4.67124 14.1347 4.97457 13.598L6.87857 10.168C7.2099 9.58 7.51324 9.03867 7.78857 8.544C8.06857 8.04467 8.35324 7.536 8.64257 7.018H10.7986C10.8639 7.522 10.9316 8.02367 11.0016 8.523C11.0716 9.01767 11.1462 9.57067 11.2256 10.182L11.6876 13.626C11.7622 14.172 11.8392 14.739 11.9186 15.327C12.0026 15.915 12.0796 16.4727 12.1496 17H10.5186C10.4579 16.44 10.3926 15.8613 10.3226 15.264C10.2526 14.6667 10.1849 14.095 10.1196 13.549L9.53157 8.46H9.39157L6.68257 13.528C6.38857 14.088 6.0829 14.6643 5.76557 15.257C5.44824 15.8497 5.1379 16.4307 4.83457 17H3.07057ZM5.62557 14.648L6.03857 13.388H10.8826L10.7496 14.648H5.62557ZM15.4145 19.835C15.0365 19.835 14.6679 19.7977 14.3085 19.723C13.9539 19.6483 13.6412 19.5317 13.3705 19.373C13.1045 19.219 12.9085 19.0207 12.7825 18.778C12.6519 18.54 12.6239 18.2577 12.6985 17.931C12.7592 17.6417 12.8875 17.406 13.0835 17.224C13.2842 17.0467 13.5012 16.9137 13.7345 16.825C13.9679 16.7317 14.1732 16.6687 14.3505 16.636V16.531C14.2712 16.4937 14.1779 16.4283 14.0705 16.335C13.9679 16.2417 13.8839 16.118 13.8185 15.964C13.7532 15.81 13.7439 15.6233 13.7905 15.404C13.8325 15.2127 13.9142 15.0517 14.0355 14.921C14.1569 14.7857 14.3039 14.6783 14.4765 14.599C14.6492 14.515 14.8382 14.4497 15.0435 14.403V14.284C14.8895 14.2 14.7309 14.088 14.5675 13.948C14.4042 13.808 14.2549 13.6377 14.1195 13.437C13.9889 13.2363 13.8979 13.0077 13.8465 12.751C13.7952 12.4897 13.8022 12.1957 13.8675 11.869C13.9515 11.4537 14.1172 11.0967 14.3645 10.798C14.6165 10.4993 14.9385 10.2707 15.3305 10.112C15.7225 9.95333 16.1775 9.874 16.6955 9.874C16.9989 9.874 17.2485 9.88567 17.4445 9.909C17.6452 9.93233 17.8389 9.958 18.0255 9.986C18.2169 10.0093 18.4455 10.021 18.7115 10.021H21.0285L20.7975 11.099C20.3542 11.099 19.9225 11.099 19.5025 11.099C19.0825 11.099 18.6602 11.099 18.2355 11.099L18.6555 10.546C19.0055 10.8167 19.2412 11.12 19.3625 11.456C19.4839 11.792 19.5072 12.149 19.4325 12.527C19.3392 13.0217 19.1572 13.416 18.8865 13.71C18.6159 14.004 18.2869 14.228 17.8995 14.382C17.5169 14.536 17.1109 14.6457 16.6815 14.711C16.2242 14.767 15.8672 14.8393 15.6105 14.928C15.3539 15.0167 15.2139 15.1287 15.1905 15.264C15.1672 15.3667 15.1905 15.453 15.2605 15.523C15.3352 15.5883 15.4449 15.6373 15.5895 15.67C15.7389 15.7027 15.9092 15.719 16.1005 15.719H16.7095C17.3162 15.719 17.8109 15.803 18.1935 15.971C18.5809 16.1343 18.8492 16.3677 18.9985 16.671C19.1525 16.9743 19.1852 17.3313 19.0965 17.742C19.0172 18.1153 18.8585 18.4327 18.6205 18.694C18.3872 18.96 18.0979 19.177 17.7525 19.345C17.4119 19.513 17.0385 19.6367 16.6325 19.716C16.2312 19.7953 15.8252 19.835 15.4145 19.835ZM15.5965 18.68C16.0352 18.68 16.4039 18.631 16.7025 18.533C17.0059 18.4397 17.2392 18.3253 17.4025 18.19C17.5705 18.0593 17.6685 17.9357 17.6965 17.819C17.7385 17.665 17.7245 17.5203 17.6545 17.385C17.5892 17.2497 17.4375 17.14 17.1995 17.056C16.9615 16.972 16.6045 16.93 16.1285 16.93H15.8415C15.6129 16.9347 15.3679 16.965 15.1065 17.021C14.8452 17.0817 14.6165 17.175 14.4205 17.301C14.2245 17.427 14.1032 17.5973 14.0565 17.812C14.0239 17.9567 14.0472 18.0827 14.1265 18.19C14.2059 18.302 14.3225 18.393 14.4765 18.463C14.6352 18.5377 14.8125 18.5913 15.0085 18.624C15.2045 18.6613 15.4005 18.68 15.5965 18.68ZM16.2755 13.598C16.4622 13.584 16.6512 13.5583 16.8425 13.521C17.0339 13.479 17.2135 13.4207 17.3815 13.346C17.5495 13.2667 17.6919 13.1593 17.8085 13.024C17.9299 12.8887 18.0139 12.716 18.0605 12.506C18.1165 12.24 18.0932 12.002 17.9905 11.792C17.8925 11.5773 17.7339 11.4093 17.5145 11.288C17.2952 11.162 17.0409 11.099 16.7515 11.099C16.4855 11.099 16.2452 11.1363 16.0305 11.211C15.8159 11.2857 15.6385 11.4023 15.4985 11.561C15.3585 11.715 15.2652 11.911 15.2185 12.149C15.1672 12.4103 15.1882 12.639 15.2815 12.835C15.3795 13.0263 15.5195 13.1873 15.7015 13.318C15.8835 13.444 16.0749 13.5373 16.2755 13.598Z" fill="#888888"/>
</svg>
