<svg width="24" height="24" viewBox="0 0 24 24" fill="none" xmlns="http://www.w3.org/2000/svg">
<path d="M2.6433 17C2.92796 16.454 3.2243 15.8847 3.5323 15.292C3.8403 14.6993 4.1343 14.1323 4.4143 13.591L6.1853 10.175C6.48863 9.587 6.76863 9.04333 7.0253 8.544C7.28663 8.04467 7.5503 7.536 7.8163 7.018H11.5193C11.566 7.536 11.6126 8.04 11.6593 8.53C11.7106 9.02 11.7643 9.57067 11.8203 10.182L12.1563 13.654C12.2123 14.186 12.2683 14.746 12.3243 15.334C12.3803 15.9173 12.434 16.4727 12.4853 17H9.6503C9.62696 16.5007 9.60363 15.9897 9.5803 15.467C9.55696 14.9397 9.53596 14.4357 9.5173 13.955L9.3143 9.426H9.1183L7.0953 13.927C6.8713 14.4217 6.6403 14.9327 6.4023 15.46C6.1643 15.9873 5.9333 16.5007 5.7093 17H2.6433ZM5.7583 15.152L6.5143 13.017H10.6373L10.4623 15.152H5.7583ZM15.6698 19.87C15.2731 19.87 14.8788 19.8373 14.4868 19.772C14.0994 19.7067 13.7541 19.5993 13.4508 19.45C13.1521 19.3053 12.9281 19.1117 12.7787 18.869C12.6294 18.631 12.5944 18.3323 12.6737 17.973C12.7251 17.7257 12.8441 17.5227 13.0307 17.364C13.2174 17.21 13.4251 17.0933 13.6538 17.014C13.8871 16.9347 14.0994 16.8787 14.2908 16.846V16.692C14.1881 16.6453 14.0761 16.573 13.9548 16.475C13.8381 16.3723 13.7448 16.2417 13.6748 16.083C13.6094 15.9197 13.6001 15.7237 13.6468 15.495C13.6888 15.2803 13.7774 15.1053 13.9128 14.97C14.0481 14.8347 14.2021 14.7273 14.3748 14.648C14.5521 14.5687 14.7271 14.5057 14.8998 14.459V14.291C14.7084 14.1743 14.5311 14.0343 14.3678 13.871C14.2091 13.7077 14.0738 13.5233 13.9618 13.318C13.8498 13.108 13.7751 12.8817 13.7378 12.639C13.7004 12.3917 13.7098 12.1233 13.7658 11.834C13.8451 11.4513 14.0014 11.106 14.2348 10.798C14.4728 10.4853 14.7971 10.238 15.2078 10.056C15.6184 9.874 16.1224 9.783 16.7198 9.783C17.1211 9.783 17.4478 9.797 17.6998 9.825C17.9564 9.853 18.1991 9.881 18.4278 9.909C18.6564 9.937 18.9271 9.951 19.2398 9.951H21.3818L21.0388 11.568C20.6188 11.568 20.2198 11.568 19.8418 11.568C19.4684 11.568 19.0858 11.568 18.6938 11.568L19.3868 10.756C19.6388 11.0173 19.8044 11.295 19.8838 11.589C19.9678 11.883 19.9724 12.205 19.8978 12.555C19.8044 12.9937 19.6154 13.346 19.3308 13.612C19.0508 13.8733 18.7194 14.0717 18.3368 14.207C17.9541 14.3423 17.5668 14.4403 17.1748 14.501C16.8668 14.543 16.6264 14.5897 16.4538 14.641C16.2811 14.6923 16.1831 14.7693 16.1598 14.872C16.1411 14.9513 16.1574 15.0143 16.2088 15.061C16.2648 15.1077 16.3418 15.1403 16.4398 15.159C16.5378 15.1777 16.6451 15.187 16.7618 15.187H17.3428C17.8748 15.187 18.3344 15.2733 18.7218 15.446C19.1138 15.6187 19.3984 15.8753 19.5758 16.216C19.7578 16.5567 19.7951 16.979 19.6878 17.483C19.5944 17.9357 19.4148 18.3137 19.1488 18.617C18.8874 18.9203 18.5701 19.163 18.1968 19.345C17.8281 19.5317 17.4244 19.6647 16.9858 19.744C16.5518 19.828 16.1131 19.87 15.6698 19.87ZM15.9708 18.225C16.2228 18.225 16.4398 18.197 16.6218 18.141C16.8084 18.0897 16.9531 18.0243 17.0558 17.945C17.1631 17.8703 17.2261 17.791 17.2448 17.707C17.2634 17.6183 17.2494 17.5273 17.2028 17.434C17.1608 17.3453 17.0581 17.2707 16.8948 17.21C16.7314 17.1493 16.4841 17.119 16.1528 17.119H15.9428C15.8168 17.1237 15.6721 17.1423 15.5088 17.175C15.3454 17.2077 15.1984 17.2613 15.0678 17.336C14.9371 17.4153 14.8601 17.5227 14.8368 17.658C14.8181 17.7373 14.8321 17.812 14.8788 17.882C14.9254 17.952 14.9978 18.0103 15.0958 18.057C15.1984 18.1083 15.3221 18.148 15.4668 18.176C15.6161 18.2087 15.7841 18.225 15.9708 18.225ZM16.6428 13.227C16.7641 13.2177 16.8808 13.2013 16.9928 13.178C17.1094 13.1547 17.2168 13.1197 17.3148 13.073C17.4128 13.0263 17.4968 12.9633 17.5668 12.884C17.6368 12.8047 17.6834 12.7113 17.7068 12.604C17.7394 12.4687 17.7254 12.3427 17.6648 12.226C17.6088 12.1093 17.5131 12.016 17.3778 11.946C17.2471 11.8713 17.0791 11.834 16.8738 11.834C16.7338 11.834 16.6054 11.855 16.4888 11.897C16.3721 11.939 16.2741 12.002 16.1948 12.086C16.1154 12.1653 16.0641 12.268 16.0408 12.394C16.0128 12.52 16.0244 12.639 16.0758 12.751C16.1318 12.8583 16.2111 12.954 16.3138 13.038C16.4164 13.1173 16.5261 13.1803 16.6428 13.227Z" fill="#888888"/>
</svg>
