<svg width="24" height="24" viewBox="0 0 24 24" fill="none" xmlns="http://www.w3.org/2000/svg">
<path d="M2.45725 17C2.73258 16.454 3.01725 15.8847 3.31125 15.292C3.60992 14.6993 3.89458 14.1323 4.16525 13.591L5.87325 10.175C6.16725 9.587 6.44025 9.04333 6.69225 8.544C6.94425 8.04467 7.19858 7.536 7.45525 7.018H11.8373C11.8793 7.54067 11.9189 8.047 11.9563 8.537C11.9983 9.02233 12.0426 9.57067 12.0893 10.182L12.3693 13.668C12.4113 14.1907 12.4556 14.746 12.5023 15.334C12.5489 15.9173 12.5933 16.4727 12.6353 17H9.26125C9.25658 16.5287 9.25192 16.0457 9.24725 15.551C9.24725 15.0563 9.24725 14.5827 9.24725 14.13L9.21925 9.86H8.99525L7.27325 14.102C7.08658 14.5687 6.89058 15.0517 6.68525 15.551C6.48458 16.0503 6.28858 16.5333 6.09725 17H2.45725ZM5.81725 15.376L6.72725 12.856H10.5353L10.3393 15.376H5.81725ZM15.7801 19.884C15.3741 19.884 14.9704 19.8537 14.5691 19.793C14.1678 19.7323 13.8084 19.6297 13.4911 19.485C13.1738 19.345 12.9358 19.1537 12.7771 18.911C12.6184 18.6683 12.5788 18.3627 12.6581 17.994C12.7094 17.7607 12.8261 17.5717 13.0081 17.427C13.1854 17.2823 13.3884 17.1727 13.6171 17.098C13.8504 17.0233 14.0674 16.972 14.2681 16.944V16.762C14.1514 16.7153 14.0301 16.6407 13.9041 16.538C13.7828 16.4307 13.6871 16.2953 13.6171 16.132C13.5471 15.964 13.5354 15.7633 13.5821 15.53C13.6241 15.3107 13.7151 15.1333 13.8551 14.998C13.9951 14.858 14.1538 14.7483 14.3311 14.669C14.5084 14.5897 14.6741 14.5267 14.8281 14.48V14.298C14.6228 14.1627 14.4384 14.0087 14.2751 13.836C14.1164 13.6633 13.9858 13.472 13.8831 13.262C13.7804 13.052 13.7128 12.828 13.6801 12.59C13.6521 12.3473 13.6661 12.0907 13.7221 11.82C13.7968 11.4513 13.9484 11.1107 14.1771 10.798C14.4104 10.4807 14.7348 10.2263 15.1501 10.035C15.5701 9.84367 16.0974 9.748 16.7321 9.748C17.1754 9.748 17.5371 9.762 17.8171 9.79C18.0971 9.818 18.3584 9.846 18.6011 9.874C18.8484 9.902 19.1401 9.916 19.4761 9.916H21.5341L21.1421 11.764C20.7361 11.764 20.3534 11.764 19.9941 11.764C19.6394 11.764 19.2754 11.764 18.9021 11.764L19.7141 10.854C19.9194 11.106 20.0524 11.3697 20.1131 11.645C20.1784 11.9203 20.1714 12.226 20.0921 12.562C19.9988 12.968 19.8098 13.2947 19.5251 13.542C19.2404 13.7893 18.9068 13.9783 18.5241 14.109C18.1461 14.235 17.7681 14.326 17.3901 14.382C17.1474 14.4147 16.9584 14.4497 16.8231 14.487C16.6924 14.5197 16.6154 14.5827 16.5921 14.676C16.5781 14.746 16.5921 14.802 16.6341 14.844C16.6761 14.8813 16.7344 14.9093 16.8091 14.928C16.8884 14.9467 16.9748 14.956 17.0681 14.956H17.6281C18.1181 14.956 18.5591 15.0423 18.9511 15.215C19.3478 15.3877 19.6418 15.6537 19.8331 16.013C20.0291 16.3677 20.0688 16.818 19.9521 17.364C19.8494 17.8493 19.6604 18.253 19.3851 18.575C19.1098 18.9017 18.7784 19.1607 18.3911 19.352C18.0084 19.5433 17.5908 19.6787 17.1381 19.758C16.6901 19.842 16.2374 19.884 15.7801 19.884ZM16.1301 18.036C16.3028 18.036 16.4544 18.0173 16.5851 17.98C16.7158 17.9473 16.8208 17.903 16.9001 17.847C16.9794 17.791 17.0261 17.728 17.0401 17.658C17.0541 17.5927 17.0424 17.5227 17.0051 17.448C16.9724 17.378 16.8908 17.3173 16.7601 17.266C16.6294 17.2193 16.4288 17.196 16.1581 17.196H15.9901C15.9014 17.2007 15.7964 17.2123 15.6751 17.231C15.5538 17.2543 15.4418 17.294 15.3391 17.35C15.2411 17.406 15.1828 17.4853 15.1641 17.588C15.1548 17.644 15.1641 17.6977 15.1921 17.749C15.2248 17.805 15.2784 17.854 15.3531 17.896C15.4324 17.938 15.5351 17.9707 15.6611 17.994C15.7918 18.022 15.9481 18.036 16.1301 18.036ZM16.8021 13.08C16.8908 13.0753 16.9748 13.0637 17.0541 13.045C17.1381 13.0263 17.2151 13.0007 17.2851 12.968C17.3551 12.9307 17.4134 12.8863 17.4601 12.835C17.5068 12.779 17.5394 12.716 17.5581 12.646C17.5768 12.5713 17.5651 12.4967 17.5231 12.422C17.4858 12.3473 17.4181 12.2843 17.3201 12.233C17.2221 12.1817 17.0914 12.156 16.9281 12.156C16.8441 12.156 16.7648 12.17 16.6901 12.198C16.6154 12.226 16.5524 12.2657 16.5011 12.317C16.4498 12.3683 16.4148 12.4313 16.3961 12.506C16.3821 12.576 16.3914 12.6483 16.4241 12.723C16.4614 12.7977 16.5128 12.8677 16.5781 12.933C16.6434 12.9937 16.7181 13.0427 16.8021 13.08Z" fill="#888888"/>
</svg>
