<svg width="24" height="24" viewBox="0 0 24 24" fill="none" xmlns="http://www.w3.org/2000/svg">
<path d="M3.71588 17C3.89788 16.4633 4.08922 15.8987 4.28988 15.306C4.49055 14.7133 4.67955 14.151 4.85688 13.619L6.01888 10.196C6.22888 9.57533 6.41788 9.01767 6.58588 8.523C6.75855 8.02367 6.92888 7.522 7.09688 7.018H9.63088C9.80355 7.54067 9.97388 8.04933 10.1419 8.544C10.3099 9.03867 10.4965 9.58933 10.7019 10.196L11.8499 13.626C12.0365 14.1767 12.2279 14.7437 12.4239 15.327C12.6199 15.9103 12.8066 16.468 12.9839 17H10.9609C10.7929 16.454 10.6202 15.8917 10.4429 15.313C10.2655 14.7343 10.0975 14.1883 9.93888 13.675L8.41988 8.705H8.26588L6.73288 13.619C6.56488 14.1557 6.38988 14.718 6.20788 15.306C6.03055 15.8893 5.85555 16.454 5.68288 17H3.71588ZM5.93488 14.774L6.13088 13.29H10.7929L10.9539 14.774H5.93488ZM16.3379 19.856C15.8152 19.856 15.3765 19.8117 15.0219 19.723C14.6672 19.6343 14.3849 19.5107 14.1749 19.352C13.9695 19.198 13.8225 19.023 13.7339 18.827C13.6452 18.6357 13.6009 18.4397 13.6009 18.239C13.6009 17.9263 13.6755 17.6673 13.8249 17.462C13.9742 17.2613 14.1469 17.105 14.3429 16.993C14.5435 16.8763 14.7139 16.7947 14.8539 16.748V16.622C14.7792 16.5987 14.6859 16.5473 14.5739 16.468C14.4619 16.3887 14.3615 16.279 14.2729 16.139C14.1842 15.9943 14.1399 15.8123 14.1399 15.593C14.1399 15.439 14.1679 15.292 14.2239 15.152C14.2799 15.012 14.3685 14.8837 14.4899 14.767C14.6159 14.6457 14.7769 14.5407 14.9729 14.452V14.326C14.8422 14.27 14.6929 14.1883 14.5249 14.081C14.3569 13.969 14.1935 13.8267 14.0349 13.654C13.8809 13.4813 13.7525 13.2713 13.6499 13.024C13.5472 12.7767 13.4959 12.4873 13.4959 12.156C13.4959 11.7127 13.6055 11.3183 13.8249 10.973C14.0442 10.6277 14.3685 10.3547 14.7979 10.154C15.2272 9.95333 15.7569 9.853 16.3869 9.853C16.6342 9.853 16.8512 9.867 17.0379 9.895C17.2245 9.91833 17.4182 9.944 17.6189 9.972C17.8195 9.99533 18.0692 10.007 18.3679 10.007H20.3629V11.239C19.9195 11.239 19.4925 11.239 19.0819 11.239C18.6712 11.239 18.2535 11.239 17.8289 11.239L18.3049 10.455C18.6409 10.651 18.8859 10.9007 19.0399 11.204C19.1985 11.5073 19.2779 11.8573 19.2779 12.254C19.2779 12.7207 19.1775 13.1127 18.9769 13.43C18.7809 13.7473 18.5125 14.004 18.1719 14.2C17.8312 14.3913 17.4439 14.5337 17.0099 14.627C16.5899 14.7203 16.2795 14.8043 16.0789 14.879C15.8782 14.9537 15.7779 15.061 15.7779 15.201C15.7779 15.3037 15.8199 15.383 15.9039 15.439C15.9879 15.4903 16.1209 15.5277 16.3029 15.551C16.4895 15.5697 16.7299 15.579 17.0239 15.579H17.3109C17.9222 15.579 18.4355 15.6327 18.8509 15.74C19.2709 15.8427 19.5882 16.02 19.8029 16.272C20.0222 16.5193 20.1319 16.8623 20.1319 17.301C20.1319 17.7583 20.0199 18.148 19.7959 18.47C19.5719 18.7967 19.2709 19.0603 18.8929 19.261C18.5195 19.4663 18.1112 19.6157 17.6679 19.709C17.2245 19.807 16.7812 19.856 16.3379 19.856ZM16.5479 18.533C16.9772 18.533 17.3319 18.477 17.6119 18.365C17.8965 18.2577 18.1089 18.1317 18.2489 17.987C18.3935 17.8423 18.4659 17.7163 18.4659 17.609C18.4659 17.483 18.4215 17.3733 18.3329 17.28C18.2442 17.1867 18.0809 17.1143 17.8429 17.063C17.6095 17.0163 17.2689 16.993 16.8209 16.993H16.5899C16.3752 17.0023 16.1582 17.042 15.9389 17.112C15.7242 17.182 15.5445 17.2777 15.3999 17.399C15.2552 17.5203 15.1829 17.658 15.1829 17.812C15.1829 17.9007 15.2085 17.9893 15.2599 18.078C15.3112 18.1667 15.3905 18.2437 15.4979 18.309C15.6052 18.379 15.7452 18.4327 15.9179 18.47C16.0952 18.512 16.3052 18.533 16.5479 18.533ZM16.3379 13.479C16.4685 13.4603 16.6109 13.43 16.7649 13.388C16.9189 13.3413 17.0635 13.276 17.1989 13.192C17.3389 13.108 17.4509 13.0007 17.5349 12.87C17.6235 12.7393 17.6679 12.583 17.6679 12.401C17.6679 12.1443 17.6025 11.9343 17.4719 11.771C17.3412 11.6077 17.1755 11.4863 16.9749 11.407C16.7789 11.3277 16.5782 11.288 16.3729 11.288C16.1629 11.288 15.9645 11.3277 15.7779 11.407C15.5912 11.4863 15.4372 11.603 15.3159 11.757C15.1945 11.911 15.1339 12.0977 15.1339 12.317C15.1339 12.5363 15.1899 12.7253 15.3019 12.884C15.4185 13.0427 15.5679 13.1733 15.7499 13.276C15.9319 13.374 16.1279 13.4417 16.3379 13.479Z" fill="#888888"/>
</svg>
