<svg width="24" height="24" viewBox="0 0 24 24" fill="none" xmlns="http://www.w3.org/2000/svg">
<path d="M2.84318 17C3.13718 16.454 3.44285 15.8847 3.76018 15.292C4.07751 14.6993 4.38085 14.1323 4.67018 13.591L6.51118 10.175C6.82385 9.587 7.11318 9.04333 7.37918 8.544C7.64985 8.04467 7.92285 7.536 8.19818 7.018H11.1802C11.2362 7.52667 11.2922 8.02833 11.3482 8.523C11.4088 9.01767 11.4742 9.57067 11.5442 10.182L11.9362 13.64C12.0015 14.1767 12.0668 14.739 12.1322 15.327C12.2022 15.915 12.2675 16.4727 12.3282 17H10.0532C10.0112 16.4727 9.96685 15.929 9.92018 15.369C9.87818 14.809 9.83618 14.2747 9.79418 13.766L9.41618 8.971H9.24118L6.90318 13.738C6.64651 14.2653 6.38051 14.809 6.10518 15.369C5.82985 15.9243 5.56151 16.468 5.30018 17H2.84318ZM5.69218 14.914L6.28718 13.192H10.7532L10.5992 14.914H5.69218ZM15.5456 19.856C15.1582 19.856 14.7779 19.821 14.4046 19.751C14.0312 19.681 13.6999 19.569 13.4106 19.415C13.1259 19.2657 12.9136 19.0697 12.7736 18.827C12.6336 18.589 12.6032 18.2973 12.6826 17.952C12.7386 17.686 12.8622 17.469 13.0536 17.301C13.2449 17.1377 13.4572 17.014 13.6906 16.93C13.9239 16.8413 14.1316 16.7807 14.3136 16.748V16.615C14.2202 16.573 14.1176 16.5053 14.0056 16.412C13.8982 16.314 13.8096 16.1857 13.7396 16.027C13.6742 15.8683 13.6649 15.677 13.7116 15.453C13.7536 15.2477 13.8376 15.0797 13.9636 14.949C14.0942 14.8137 14.2482 14.7063 14.4256 14.627C14.6029 14.543 14.7849 14.4777 14.9716 14.431V14.291C14.7989 14.1883 14.6309 14.0623 14.4676 13.913C14.3042 13.759 14.1596 13.5793 14.0336 13.374C13.9122 13.1687 13.8282 12.94 13.7816 12.688C13.7396 12.436 13.7512 12.156 13.8166 11.848C13.8959 11.4513 14.0569 11.1013 14.2996 10.798C14.5422 10.4947 14.8642 10.2567 15.2656 10.084C15.6669 9.91133 16.1476 9.825 16.7076 9.825C17.0622 9.825 17.3539 9.839 17.5826 9.867C17.8112 9.89033 18.0306 9.916 18.2406 9.944C18.4506 9.972 18.7002 9.986 18.9896 9.986H21.2156L20.9216 11.365C20.4922 11.365 20.0769 11.365 19.6756 11.365C19.2789 11.365 18.8776 11.365 18.4716 11.365L19.0456 10.658C19.3396 10.924 19.5379 11.2133 19.6406 11.526C19.7432 11.8387 19.7572 12.177 19.6826 12.541C19.5892 13.017 19.4026 13.3973 19.1226 13.682C18.8472 13.962 18.5182 14.1743 18.1356 14.319C17.7529 14.4637 17.3562 14.5663 16.9456 14.627C16.5629 14.6737 16.2642 14.732 16.0496 14.802C15.8349 14.872 15.7159 14.963 15.6926 15.075C15.6786 15.1683 15.7019 15.2407 15.7626 15.292C15.8279 15.3433 15.9212 15.3807 16.0426 15.404C16.1639 15.4273 16.2946 15.439 16.4346 15.439H17.0436C17.6129 15.439 18.0912 15.523 18.4786 15.691C18.8659 15.859 19.1412 16.1063 19.3046 16.433C19.4726 16.755 19.5076 17.147 19.4096 17.609C19.3209 18.0243 19.1506 18.3743 18.8986 18.659C18.6512 18.9437 18.3479 19.1747 17.9886 19.352C17.6339 19.5293 17.2442 19.6577 16.8196 19.737C16.3996 19.8163 15.9749 19.856 15.5456 19.856ZM15.7976 18.421C16.1382 18.421 16.4276 18.3837 16.6656 18.309C16.9036 18.2343 17.0879 18.148 17.2186 18.05C17.3539 17.952 17.4332 17.8563 17.4566 17.763C17.4846 17.6417 17.4706 17.525 17.4146 17.413C17.3632 17.3057 17.2372 17.217 17.0366 17.147C16.8406 17.077 16.5419 17.042 16.1406 17.042H15.8956C15.7229 17.0467 15.5316 17.07 15.3216 17.112C15.1162 17.154 14.9342 17.224 14.7756 17.322C14.6169 17.4247 14.5189 17.5623 14.4816 17.735C14.4582 17.8377 14.4769 17.931 14.5376 18.015C14.6029 18.1037 14.6986 18.176 14.8246 18.232C14.9506 18.2927 15.0976 18.3393 15.2656 18.372C15.4336 18.4047 15.6109 18.421 15.7976 18.421ZM16.4696 13.381C16.6236 13.3717 16.7752 13.353 16.9246 13.325C17.0739 13.2923 17.2139 13.2457 17.3446 13.185C17.4752 13.1243 17.5849 13.0427 17.6736 12.94C17.7669 12.8373 17.8299 12.709 17.8626 12.555C17.9092 12.3637 17.8929 12.1887 17.8136 12.03C17.7389 11.8667 17.6152 11.736 17.4426 11.638C17.2699 11.54 17.0599 11.491 16.8126 11.491C16.6166 11.491 16.4369 11.5213 16.2736 11.582C16.1102 11.638 15.9749 11.7243 15.8676 11.841C15.7602 11.953 15.6902 12.0953 15.6576 12.268C15.6202 12.4593 15.6389 12.6297 15.7136 12.779C15.7882 12.9237 15.8932 13.0473 16.0286 13.15C16.1686 13.2527 16.3156 13.3297 16.4696 13.381Z" fill="#888888"/>
</svg>
