<svg width="24" height="24" viewBox="0 0 24 24" fill="none" xmlns="http://www.w3.org/2000/svg">
<path d="M10.9194 15.126C10.8354 15.126 10.7467 15.1213 10.6534 15.112C10.56 15.1027 10.4714 15.0747 10.3874 15.028C10.3127 15.0187 10.224 15.0093 10.1214 15C10.028 14.9907 9.93938 14.972 9.85538 14.944C9.77138 14.916 9.69672 14.874 9.63138 14.818C9.57538 14.762 9.54738 14.692 9.54738 14.608C9.54738 14.5707 9.56605 14.524 9.60338 14.468C9.65005 14.4027 9.70605 14.3467 9.77138 14.3C9.75272 14.272 9.74338 14.244 9.74338 14.216C9.74338 14.188 9.73405 14.16 9.71538 14.132L9.64538 13.978C9.51472 13.6887 9.39805 13.3853 9.29538 13.068C9.19272 12.7507 9.09938 12.4427 9.01538 12.144L8.98738 12.06V12.074L8.90338 11.626L8.83338 11.556L8.65138 11.5C8.50205 11.4533 8.37605 11.4253 8.27338 11.416C8.22672 11.416 8.17538 11.4207 8.11938 11.43C8.06338 11.43 8.00272 11.43 7.93738 11.43C7.80672 11.43 7.68072 11.4253 7.55938 11.416C7.43805 11.4067 7.33072 11.3927 7.23738 11.374C7.21872 11.3927 7.20938 11.4253 7.20938 11.472C7.20938 11.5747 7.18605 11.71 7.13938 11.878C7.10205 12.046 7.05072 12.2327 6.98538 12.438C6.92938 12.6433 6.86872 12.8627 6.80338 13.096C6.73805 13.32 6.68672 13.544 6.64938 13.768L6.55138 14.146H6.59338C6.61205 14.146 6.63072 14.146 6.64938 14.146C6.66805 14.1367 6.68672 14.132 6.70538 14.132H7.05538C7.14872 14.1413 7.22338 14.1693 7.27938 14.216V14.202C7.40072 14.23 7.47538 14.286 7.50338 14.37C7.54072 14.4447 7.55938 14.5053 7.55938 14.552C7.55938 14.692 7.48938 14.79 7.34938 14.846C7.20938 14.8927 7.05538 14.916 6.88738 14.916H6.83138C6.61672 14.9347 6.44872 14.9767 6.32738 15.042C6.21538 15.1073 6.07538 15.14 5.90738 15.14C5.76738 15.14 5.66005 15.1213 5.58538 15.084C5.51072 15.0467 5.38472 15 5.20738 14.944L4.78738 14.818C4.74072 14.7713 4.70805 14.7293 4.68938 14.692C4.66138 14.6453 4.64738 14.5847 4.64738 14.51C4.64738 14.482 4.66138 14.4447 4.68938 14.398C4.71738 14.342 4.75472 14.2907 4.80138 14.244L4.91338 14.202C4.96938 14.174 5.04405 14.1507 5.13738 14.132H5.24938C5.26805 14.132 5.28672 14.132 5.30538 14.132C5.33338 14.1227 5.36605 14.118 5.40338 14.118V14.132C5.43138 14.0293 5.46405 13.9127 5.50138 13.782C5.53872 13.642 5.57138 13.502 5.59938 13.362C5.63672 13.2127 5.67405 13.0633 5.71138 12.914C5.74872 12.7647 5.78605 12.6293 5.82338 12.508C5.84205 12.4053 5.87472 12.242 5.92138 12.018C5.97738 11.794 6.03805 11.5373 6.10338 11.248C6.16872 10.9493 6.23872 10.6367 6.31338 10.31C6.38805 9.98333 6.45338 9.666 6.50938 9.358L6.60738 8.924C6.64472 8.74667 6.68672 8.574 6.73338 8.406C6.78005 8.22867 6.83138 8.05133 6.88738 7.874L7.19538 7.006C7.19538 6.95933 7.20938 6.922 7.23738 6.894C7.27472 6.85667 7.29338 6.81467 7.29338 6.768L7.36338 6.628C7.42872 6.488 7.47538 6.35733 7.50338 6.236C7.54072 6.11467 7.58272 6.012 7.62938 5.928C7.68538 5.83467 7.76005 5.76 7.85338 5.704C7.94672 5.648 8.08672 5.62 8.27338 5.62C8.41338 5.66667 8.52072 5.71333 8.59538 5.76C8.67938 5.79733 8.74472 5.84867 8.79138 5.914C8.84738 5.97933 8.89405 6.05867 8.93138 6.152C8.97805 6.236 9.03872 6.348 9.11338 6.488L9.29538 7.048C9.46338 7.57067 9.65005 8.14 9.85538 8.756C10.0607 9.372 10.2334 9.96 10.3734 10.52C10.4854 10.9493 10.602 11.3833 10.7234 11.822C10.8447 12.2607 10.9754 12.676 11.1154 13.068L11.1994 13.264C11.2647 13.4227 11.316 13.586 11.3534 13.754C11.4 13.9127 11.4327 14.0713 11.4514 14.23L11.8294 14.272C11.9507 14.2907 12.03 14.3373 12.0674 14.412C12.114 14.4867 12.156 14.5707 12.1934 14.664L12.1374 14.776C12.1094 14.8413 12.0674 14.902 12.0114 14.958L11.5774 15.014C11.5027 15.014 11.4 15.0327 11.2694 15.07C11.1387 15.1073 11.022 15.126 10.9194 15.126ZM8.51138 10.534C8.53005 10.534 8.54405 10.534 8.55338 10.534C8.57205 10.5247 8.59538 10.5153 8.62338 10.506C8.59538 10.3473 8.54872 10.2027 8.48338 10.072C8.41805 9.932 8.38538 9.77333 8.38538 9.596C8.38538 9.55867 8.38538 9.52133 8.38538 9.484C8.39472 9.44667 8.40405 9.40467 8.41338 9.358C8.41338 9.34867 8.40872 9.344 8.39938 9.344C8.39938 9.33467 8.39938 9.32533 8.39938 9.316C8.32472 9.16667 8.26405 9.04067 8.21738 8.938C8.17072 8.83533 8.13338 8.742 8.10538 8.658C8.07738 8.56467 8.05405 8.476 8.03538 8.392C8.02605 8.29867 8.01672 8.196 8.00738 8.084C7.97005 8.26133 7.92338 8.434 7.86738 8.602C7.82072 8.76067 7.78805 8.90533 7.76938 9.036L7.62938 9.54C7.52672 9.77333 7.47072 9.95533 7.46138 10.086C7.46138 10.2167 7.46138 10.3613 7.46138 10.52C7.48005 10.52 7.50338 10.52 7.53138 10.52C7.55938 10.5107 7.60605 10.506 7.67138 10.506C7.74605 10.506 7.84405 10.5107 7.96538 10.52C8.08672 10.52 8.24538 10.5247 8.44138 10.534H8.51138ZM14.801 14.622C14.6703 14.622 14.5303 14.65 14.381 14.706C14.241 14.7527 14.0963 14.776 13.947 14.776C13.8537 14.776 13.7603 14.7667 13.667 14.748C13.583 14.72 13.5037 14.692 13.429 14.664C13.429 14.6827 13.415 14.72 13.387 14.776C13.359 14.832 13.345 14.9113 13.345 15.014C13.345 15.1073 13.373 15.196 13.429 15.28C13.4943 15.3733 13.569 15.4573 13.653 15.532C13.737 15.6067 13.8303 15.672 13.933 15.728C14.0357 15.784 14.129 15.8213 14.213 15.84L14.955 15.952C15.1417 15.952 15.3517 15.9893 15.585 16.064C15.8183 16.148 16.0143 16.26 16.173 16.4V16.386C16.3877 16.526 16.5603 16.68 16.691 16.848C16.831 17.016 16.9243 17.212 16.971 17.436V17.576C16.971 17.5947 16.9663 17.6227 16.957 17.66C16.957 17.6973 16.957 17.7393 16.957 17.786C16.9477 17.8327 16.943 17.884 16.943 17.94L16.971 17.744V17.758C16.9337 18.0193 16.8917 18.234 16.845 18.402C16.7983 18.5793 16.7377 18.7333 16.663 18.864C16.5977 18.9947 16.5137 19.116 16.411 19.228C16.3177 19.34 16.201 19.466 16.061 19.606L16.033 19.634C15.977 19.6713 15.8697 19.7087 15.711 19.746C15.5617 19.7833 15.3843 19.816 15.179 19.844C14.983 19.872 14.7777 19.8953 14.563 19.914C14.3577 19.9327 14.171 19.942 14.003 19.942C13.5643 19.942 13.177 19.8067 12.841 19.536C12.5143 19.2747 12.3183 18.92 12.253 18.472C12.253 18.1173 12.2857 17.814 12.351 17.562C12.4163 17.3193 12.5283 17.1 12.687 16.904C12.7057 16.8853 12.757 16.8433 12.841 16.778C12.925 16.722 12.967 16.6613 12.967 16.596C12.967 16.5867 12.9623 16.5773 12.953 16.568C12.953 16.5587 12.953 16.5493 12.953 16.54C12.8503 16.4467 12.757 16.33 12.673 16.19C12.589 16.0593 12.5143 15.9193 12.449 15.77C12.393 15.6207 12.3463 15.476 12.309 15.336C12.281 15.196 12.267 15.07 12.267 14.958C12.267 14.8273 12.2857 14.6827 12.323 14.524C12.3697 14.3653 12.4303 14.2113 12.505 14.062C12.505 14.0433 12.505 14.034 12.505 14.034C12.5143 14.0247 12.519 14.0107 12.519 13.992C12.519 13.9827 12.5143 13.978 12.505 13.978C12.505 13.9687 12.505 13.9593 12.505 13.95C12.2623 13.6793 12.1037 13.4087 12.029 13.138C11.9543 12.858 11.917 12.55 11.917 12.214C11.917 11.962 11.931 11.7427 11.959 11.556L12.001 11.402C12.0197 11.346 12.029 11.3087 12.029 11.29C12.0663 11.0567 12.1363 10.8047 12.239 10.534C12.3417 10.254 12.477 9.99733 12.645 9.764C12.8223 9.52133 13.0323 9.32067 13.275 9.162C13.5177 9.00333 13.7977 8.924 14.115 8.924H14.549L14.969 9.008C15.109 9.008 15.2817 9.036 15.487 9.092C15.6923 9.148 15.879 9.21333 16.047 9.288C16.1403 9.344 16.243 9.372 16.355 9.372V9.386L16.453 9.316C16.5277 9.232 16.6117 9.18067 16.705 9.162C16.8077 9.134 16.9057 9.12 16.999 9.12C17.2697 9.12 17.517 9.20867 17.741 9.386C17.965 9.56333 18.077 9.80133 18.077 10.1C18.077 10.296 18.035 10.422 17.951 10.478C17.867 10.534 17.769 10.5527 17.657 10.534C17.545 10.506 17.4283 10.464 17.307 10.408C17.1857 10.352 17.0877 10.3147 17.013 10.296C17.0223 10.352 17.0363 10.4407 17.055 10.562C17.083 10.6833 17.1063 10.8093 17.125 10.94C17.153 11.0613 17.1763 11.178 17.195 11.29C17.2137 11.402 17.223 11.4813 17.223 11.528C17.223 11.696 17.2043 11.8827 17.167 12.088C17.139 12.2933 17.097 12.494 17.041 12.69C16.985 12.886 16.915 13.0727 16.831 13.25C16.7563 13.418 16.6723 13.5487 16.579 13.642L16.411 13.852C16.3923 13.8707 16.3737 13.894 16.355 13.922C16.3363 13.9407 16.3177 13.9687 16.299 14.006V13.992C16.187 14.2067 16.0097 14.3653 15.767 14.468C15.5243 14.5707 15.2537 14.622 14.955 14.622H14.829H14.801ZM15.557 10.842C15.557 10.6647 15.5383 10.506 15.501 10.366L15.487 10.352L15.431 10.254C15.319 10.0953 15.179 9.99733 15.011 9.96C14.843 9.92267 14.661 9.904 14.465 9.904C14.3623 9.904 14.269 9.92267 14.185 9.96C14.101 9.988 14.031 10.0627 13.975 10.184C13.9283 10.268 13.877 10.3987 13.821 10.576C13.765 10.744 13.709 10.9307 13.653 11.136C13.6063 11.332 13.5643 11.5373 13.527 11.752C13.499 11.9573 13.485 12.1393 13.485 12.298C13.485 12.438 13.4897 12.5967 13.499 12.774C13.5177 12.942 13.5503 13.1007 13.597 13.25C13.653 13.39 13.723 13.5113 13.807 13.614C13.9003 13.7167 14.017 13.768 14.157 13.768C14.2877 13.768 14.437 13.7633 14.605 13.754C14.7823 13.7353 14.9457 13.628 15.095 13.432V13.446C15.1697 13.3153 15.235 13.18 15.291 13.04C15.347 12.9 15.3843 12.7507 15.403 12.592C15.4123 12.5173 15.417 12.4473 15.417 12.382C15.4263 12.3167 15.4403 12.256 15.459 12.2V12.214C15.459 12.0833 15.473 11.962 15.501 11.85C15.5383 11.738 15.557 11.6307 15.557 11.528V10.842ZM13.625 18.85C13.7277 18.878 13.835 18.9013 13.947 18.92C14.059 18.948 14.2503 18.9527 14.521 18.934L15.165 18.822C15.3143 18.794 15.4357 18.738 15.529 18.654C15.6317 18.57 15.7063 18.444 15.753 18.276V18.29C15.753 18.2713 15.7623 18.2387 15.781 18.192C15.7997 18.1547 15.809 18.1173 15.809 18.08C15.809 18.0147 15.7997 17.9493 15.781 17.884C15.7717 17.8187 15.7343 17.7533 15.669 17.688C15.613 17.6227 15.515 17.5573 15.375 17.492C15.2443 17.436 15.0623 17.3753 14.829 17.31L14.465 17.184C14.4463 17.184 14.4323 17.1793 14.423 17.17C14.423 17.17 14.4137 17.17 14.395 17.17C14.339 17.17 14.2783 17.2027 14.213 17.268L14.087 17.394C13.9283 17.5527 13.8023 17.716 13.709 17.884C13.6157 18.052 13.5363 18.2713 13.471 18.542C13.471 18.6073 13.485 18.668 13.513 18.724C13.541 18.7893 13.5783 18.8313 13.625 18.85ZM15.753 18.29C15.7437 18.3087 15.739 18.3273 15.739 18.346L15.753 18.29Z" fill="#333333"/>
</svg>
