<svg width="24" height="24" viewBox="0 0 24 24" fill="none" xmlns="http://www.w3.org/2000/svg">
<path d="M11.8832 6.286C11.8645 5.99667 11.8085 5.74 11.7152 5.516C11.6312 5.28267 11.5239 5.11 11.3932 4.998C11.6639 5.24067 11.8552 5.47867 11.9672 5.712C12.0792 5.936 12.1352 6.22067 12.1352 6.566C12.1352 6.594 12.1119 6.72933 12.0652 6.972C12.0279 7.20533 11.9812 7.48067 11.9252 7.798C11.8692 8.106 11.8179 8.42333 11.7712 8.75C11.7339 9.07667 11.7152 9.34733 11.7152 9.562C11.7152 9.646 11.7292 9.75333 11.7572 9.884C11.7852 10.0147 11.7992 10.094 11.7992 10.122C11.7805 10.178 11.7479 10.2247 11.7012 10.262C11.6639 10.2993 11.6219 10.3413 11.5752 10.388C11.4072 10.4813 11.3092 10.584 11.2812 10.696C11.2532 10.808 11.2159 10.9433 11.1692 11.102C11.0759 11.382 11.0012 11.6107 10.9452 11.788C10.8892 11.9653 10.8379 12.1287 10.7912 12.278C10.8099 12.39 10.8192 12.4973 10.8192 12.6C10.8192 12.7027 10.8332 12.7913 10.8612 12.866C10.6745 12.838 10.5719 12.754 10.5532 12.614C10.5345 12.4647 10.5252 12.2873 10.5252 12.082C10.5252 11.9513 10.5439 11.8253 10.5812 11.704C10.6279 11.5733 10.6745 11.4473 10.7212 11.326C10.7772 11.1953 10.8285 11.0647 10.8752 10.934C10.9219 10.8033 10.9545 10.6727 10.9732 10.542C10.9825 10.458 11.0152 10.3927 11.0712 10.346C11.1272 10.29 11.1879 10.2387 11.2532 10.192C11.3185 10.1453 11.3792 10.0987 11.4352 10.052C11.4912 10.0053 11.5192 9.94467 11.5192 9.87C11.5192 9.79533 11.5052 9.716 11.4772 9.632C11.4492 9.53867 11.4352 9.45 11.4352 9.366C11.4445 9.254 11.4492 9.156 11.4492 9.072C11.4585 8.97867 11.4679 8.87133 11.4772 8.75C11.4959 8.62867 11.5192 8.47467 11.5472 8.288C11.5845 8.10133 11.6312 7.85867 11.6872 7.56V7.518C11.6872 7.33133 11.7105 7.13067 11.7572 6.916C11.8039 6.70133 11.8365 6.48667 11.8552 6.272L11.8832 6.286ZM8.97119 10.528C8.98985 10.556 9.00385 10.5887 9.01319 10.626C9.03185 10.654 9.04119 10.696 9.04119 10.752C9.04119 10.808 9.02719 10.8873 8.99919 10.99C8.97119 11.0833 8.93852 11.186 8.90119 11.298C8.86385 11.41 8.82652 11.522 8.78919 11.634C8.76119 11.746 8.73319 11.8393 8.70519 11.914C8.67719 12.0073 8.64452 12.1193 8.60719 12.25C8.56985 12.3713 8.52785 12.4973 8.48119 12.628C8.43452 12.7493 8.38319 12.8707 8.32719 12.992C8.27119 13.104 8.21052 13.1973 8.14519 13.272C7.95852 13.5613 7.77652 13.7573 7.59919 13.86C7.42185 13.9627 7.18385 14.014 6.88519 14.014C6.72652 14.014 6.56785 13.986 6.40919 13.93C6.25985 13.874 6.14785 13.7993 6.07319 13.706C6.17585 13.7527 6.28319 13.7807 6.39519 13.79C6.51652 13.7993 6.62852 13.804 6.73119 13.804C7.06719 13.804 7.36585 13.6547 7.62719 13.356C7.89785 13.0573 8.15452 12.5393 8.39719 11.802C8.41585 11.7273 8.43919 11.6247 8.46719 11.494C8.49519 11.354 8.52785 11.2187 8.56519 11.088C8.61185 10.948 8.65852 10.822 8.70519 10.71C8.76119 10.598 8.81719 10.5187 8.87319 10.472L8.94319 10.514L8.97119 10.528ZM10.4832 13.972C10.6139 13.972 10.7352 13.958 10.8472 13.93C10.9685 13.8927 11.0945 13.8507 11.2252 13.804C11.6639 13.5427 12.0045 13.314 12.2472 13.118C12.4992 12.922 12.6812 12.6933 12.7932 12.432L12.9612 12.348C12.9892 12.348 13.0125 12.3807 13.0312 12.446C13.0592 12.5113 13.0732 12.5767 13.0732 12.642C13.0172 12.7727 12.9519 12.8847 12.8772 12.978C12.8025 13.0713 12.7139 13.1647 12.6112 13.258C12.5645 13.3233 12.4759 13.412 12.3452 13.524C12.2145 13.6267 12.0605 13.7293 11.8832 13.832C11.7059 13.9253 11.5192 14.0047 11.3232 14.07C11.1272 14.1447 10.9405 14.182 10.7632 14.182C10.6325 14.182 10.4925 14.1447 10.3432 14.07C10.2032 14.0047 10.0819 13.9207 9.97919 13.818C10.0725 13.874 10.1612 13.9113 10.2452 13.93C10.3292 13.9487 10.4085 13.9627 10.4832 13.972ZM9.96519 6.762C9.98385 6.65933 10.0212 6.57067 10.0772 6.496C10.0772 6.552 10.0725 6.608 10.0632 6.664C10.0632 6.71067 10.0632 6.762 10.0632 6.818C10.0632 6.80867 10.0585 6.804 10.0492 6.804C10.0399 6.804 10.0305 6.84133 10.0212 6.916C10.0119 6.98133 10.0025 7.056 9.99319 7.14L9.95119 7.252C9.92319 7.31733 9.89519 7.378 9.86719 7.434C9.83919 7.48067 9.81119 7.53667 9.78319 7.602C9.75519 7.658 9.72719 7.728 9.69919 7.812C9.67119 7.896 9.64319 7.99867 9.61519 8.12C9.60585 8.15733 9.58252 8.23667 9.54519 8.358C9.51719 8.47933 9.47985 8.60533 9.43319 8.736C9.39585 8.85733 9.35385 8.96933 9.30719 9.072C9.26052 9.17467 9.21852 9.226 9.18119 9.226C9.16252 9.226 9.15319 9.22133 9.15319 9.212C9.27452 8.81067 9.40519 8.40933 9.54519 8.008C9.69452 7.59733 9.83452 7.182 9.96519 6.762ZM7.43119 10.402C7.47785 10.4113 7.52919 10.4207 7.58519 10.43C7.64119 10.4393 7.68785 10.4953 7.72519 10.598C7.65052 10.5887 7.58052 10.57 7.51519 10.542C7.45919 10.514 7.42185 10.4627 7.40319 10.388H7.43119V10.402ZM17.9063 12.334C17.9343 12.3153 17.9529 12.2827 17.9623 12.236C17.9716 12.1893 17.9856 12.1427 18.0043 12.096H18.0183L18.0043 12.138L18.0323 12.152C18.0789 12.152 18.1256 12.1567 18.1723 12.166C18.2283 12.1753 18.2796 12.1893 18.3263 12.208L18.2843 12.348C18.2656 12.4507 18.2143 12.53 18.1303 12.586C18.0463 12.642 17.9669 12.7027 17.8923 12.768C17.7336 12.8987 17.5563 13.0153 17.3603 13.118C17.1736 13.2207 17.0103 13.3327 16.8703 13.454C16.6556 13.594 16.4876 13.7107 16.3663 13.804C16.2449 13.8973 16.1516 13.9907 16.0863 14.084C16.0209 14.1773 15.9743 14.2847 15.9463 14.406C15.9183 14.5273 15.8903 14.686 15.8623 14.882C15.8343 15.078 15.7923 15.3253 15.7363 15.624C15.6896 15.9227 15.6149 16.3007 15.5123 16.758L15.4143 17.108C15.3676 17.388 15.2883 17.6167 15.1763 17.794C15.0643 17.9807 14.9289 18.13 14.7703 18.242C14.6116 18.3633 14.4389 18.4567 14.2523 18.522C14.0656 18.5873 13.8836 18.6387 13.7063 18.676C13.5756 18.676 13.4543 18.648 13.3423 18.592C13.2303 18.536 13.1369 18.4613 13.0623 18.368C13.1929 18.4333 13.3143 18.466 13.4263 18.466C13.4916 18.4473 13.5569 18.4287 13.6223 18.41C13.6876 18.4007 13.7529 18.3867 13.8183 18.368C13.8276 18.368 13.8929 18.3447 14.0143 18.298C14.1449 18.2607 14.2849 18.186 14.4343 18.074C14.5929 17.9713 14.7376 17.8267 14.8683 17.64C15.0083 17.4533 15.0923 17.206 15.1203 16.898C15.2789 16.506 15.3909 16.1233 15.4563 15.75C15.5216 15.3767 15.5683 15.036 15.5963 14.728C15.6243 14.448 15.6989 14.2147 15.8203 14.028C15.9416 13.8507 16.1003 13.6827 16.2963 13.524C16.5016 13.356 16.7396 13.1833 17.0103 13.006C17.2809 12.8287 17.5796 12.6047 17.9063 12.334ZM14.5743 12.488C14.5369 12.5627 14.5043 12.6187 14.4763 12.656C14.4576 12.6933 14.4249 12.7167 14.3783 12.726L14.2943 12.222C14.3596 12.0353 14.4249 11.774 14.4903 11.438C14.5649 11.102 14.7049 10.71 14.9103 10.262C14.9103 10.2527 14.9196 10.1873 14.9383 10.066C14.9569 9.94467 14.9896 9.814 15.0363 9.674C15.0829 9.534 15.1436 9.408 15.2183 9.296C15.3023 9.184 15.4049 9.128 15.5263 9.128C15.5636 9.128 15.5916 9.156 15.6103 9.212C15.6289 9.268 15.6476 9.30533 15.6663 9.324C15.6196 9.38 15.5729 9.436 15.5263 9.492C15.4889 9.548 15.4609 9.59933 15.4423 9.646C15.2929 10.094 15.1529 10.5373 15.0223 10.976C14.9009 11.4053 14.7656 11.844 14.6163 12.292L14.5743 12.488ZM13.1182 17.276C13.0249 17.248 12.9549 17.2153 12.9083 17.178C12.8616 17.1407 12.8383 17.0287 12.8383 16.842C12.8383 16.758 12.8709 16.6367 12.9363 16.478C13.0016 16.3287 13.0809 16.1747 13.1743 16.016C13.2676 15.8667 13.3656 15.7313 13.4683 15.61C13.5803 15.4887 13.6783 15.4093 13.7623 15.372V15.82C13.6969 15.8667 13.6269 15.9413 13.5523 16.044C13.4776 16.1467 13.4076 16.2587 13.3423 16.38C13.2769 16.5013 13.2209 16.6227 13.1743 16.744C13.1369 16.8653 13.1182 16.968 13.1182 17.052V17.276ZM16.5063 9.212C16.5063 9.05333 16.4643 8.88533 16.3803 8.708C16.3056 8.53067 16.2029 8.38133 16.0723 8.26C16.2123 8.33467 16.3569 8.46533 16.5063 8.652C16.6556 8.83867 16.7489 9.09533 16.7863 9.422V9.478C16.7863 9.59933 16.7723 9.72533 16.7443 9.856C16.7163 9.97733 16.6229 10.0473 16.4643 10.066C16.3803 10.066 16.3243 9.98667 16.2963 9.828C16.3989 9.79067 16.4596 9.70667 16.4783 9.576C16.4969 9.436 16.5063 9.31467 16.5063 9.212ZM16.7163 11.186H16.7863C16.9356 11.186 17.0103 11.2747 17.0103 11.452C17.0103 11.5547 16.9869 11.6993 16.9403 11.886C16.8283 11.97 16.7163 12.0587 16.6043 12.152V12.096C16.6043 11.9467 16.6229 11.8253 16.6603 11.732C16.6976 11.6293 16.7163 11.4847 16.7163 11.298V11.172V11.186ZM16.7023 11.158L16.7163 11.172L16.7023 11.158Z" fill="#333333"/>
</svg>
