<svg width="24" height="24" viewBox="0 0 24 24" fill="none" xmlns="http://www.w3.org/2000/svg">
<path d="M11.9659 14.384C11.9659 14.44 11.9612 14.496 11.9519 14.552C11.9519 14.5987 11.9472 14.65 11.9379 14.706C11.9099 14.874 11.8119 14.9627 11.6439 14.972C11.5692 14.9907 11.5179 14.9767 11.4899 14.93C11.4619 14.874 11.4385 14.8087 11.4199 14.734C11.3732 14.5847 11.3172 14.44 11.2519 14.3C11.1959 14.16 11.1539 14.02 11.1259 13.88C11.0792 13.6653 11.0465 13.446 11.0279 13.222C11.0092 12.9887 10.9905 12.7553 10.9719 12.522C10.9252 12.2047 10.8832 11.8687 10.8459 11.514C10.8179 11.3367 10.7572 11.2153 10.6639 11.15C10.5705 11.0753 10.4399 11.0427 10.2719 11.052C10.1972 11.0613 10.1319 11.0753 10.0759 11.094C10.0199 11.1033 9.95921 11.108 9.89388 11.108C9.75388 11.108 9.64188 11.1127 9.55788 11.122C9.48321 11.1313 9.42254 11.1547 9.37588 11.192C9.33854 11.2293 9.31054 11.29 9.29188 11.374C9.27321 11.4487 9.25921 11.556 9.24988 11.696C9.22188 11.948 9.19854 12.2 9.17988 12.452C9.17054 12.6947 9.15654 12.942 9.13788 13.194C9.11921 13.4087 9.10521 13.6187 9.09587 13.824C9.08654 14.02 9.07254 14.2207 9.05388 14.426C9.04454 14.4727 9.03521 14.5287 9.02588 14.594C9.01654 14.65 8.99788 14.692 8.96988 14.72C8.92321 14.7667 8.86254 14.8133 8.78788 14.86C8.72254 14.9067 8.66188 14.93 8.60588 14.93C8.55921 14.93 8.51254 14.8973 8.46588 14.832C8.41921 14.7573 8.37721 14.692 8.33988 14.636C8.32121 14.5987 8.31188 14.5567 8.31188 14.51C8.32121 14.4633 8.32588 14.4167 8.32588 14.37C8.36321 14.0807 8.39588 13.796 8.42388 13.516C8.45188 13.2267 8.46588 12.9327 8.46588 12.634C8.47521 12.3633 8.50321 12.0973 8.54988 11.836C8.59654 11.5653 8.62921 11.2947 8.64788 11.024C8.69454 10.6973 8.73188 10.3753 8.75988 10.058C8.79721 9.73133 8.83921 9.40933 8.88588 9.092C8.89521 9.01733 8.89988 8.952 8.89988 8.896C8.90921 8.83067 8.92321 8.76533 8.94188 8.7C9.04454 8.40133 9.11921 8.098 9.16588 7.79C9.21254 7.47267 9.24521 7.15533 9.26388 6.838C9.27321 6.67933 9.31054 6.52067 9.37588 6.362C9.44121 6.20333 9.50188 6.04467 9.55788 5.886C9.58588 5.802 9.61854 5.72733 9.65588 5.662C9.70254 5.58733 9.74454 5.51733 9.78188 5.452C9.86588 5.29333 9.98254 5.19533 10.1319 5.158C10.2812 5.12067 10.4212 5.16267 10.5519 5.284C10.6079 5.33067 10.6452 5.396 10.6639 5.48C10.7105 5.77867 10.7525 6.07733 10.7899 6.376C10.8272 6.66533 10.8692 6.95467 10.9159 7.244C10.9345 7.40267 10.9625 7.56133 10.9999 7.72C11.0465 7.87867 11.0839 8.03733 11.1119 8.196C11.1585 8.46667 11.2005 8.74667 11.2379 9.036C11.2845 9.32533 11.3312 9.61467 11.3779 9.904C11.4245 10.2867 11.4712 10.66 11.5179 11.024C11.5645 11.388 11.6112 11.766 11.6579 12.158L11.9939 14.384H11.9659ZM10.2719 8.056C10.2812 8.04667 10.2999 8.042 10.3279 8.042C10.2999 7.82733 10.2765 7.61267 10.2579 7.398C10.2392 7.18333 10.2159 6.97333 10.1879 6.768C10.1785 6.74 10.1599 6.712 10.1319 6.684C10.1039 6.656 10.0805 6.62333 10.0619 6.586C10.0432 6.63267 10.0245 6.69333 10.0059 6.768C9.99654 6.81467 9.99188 6.86133 9.99188 6.908C10.0012 6.95467 9.99654 7.00133 9.97788 7.048C9.84721 7.50533 9.75388 7.96267 9.69788 8.42C9.65121 8.87733 9.59521 9.33 9.52988 9.778C9.48321 10.03 9.50654 10.198 9.59988 10.282C9.69321 10.366 9.86588 10.38 10.1179 10.324C10.1739 10.3053 10.2299 10.2913 10.2859 10.282C10.3419 10.2633 10.3932 10.2353 10.4399 10.198C10.4772 10.1793 10.5099 10.1513 10.5379 10.114C10.5659 10.0767 10.5752 10.0347 10.5659 9.988C10.5659 9.85733 10.5565 9.736 10.5379 9.624C10.5285 9.50267 10.5145 9.37667 10.4959 9.246C10.4585 9.04067 10.4212 8.84 10.3839 8.644C10.3465 8.43867 10.3092 8.24267 10.2719 8.056ZM15.5527 9.064C15.5341 9.316 15.5154 9.55867 15.4967 9.792C15.4781 10.016 15.4641 10.2353 15.4547 10.45C15.4361 10.9633 15.4174 11.4767 15.3987 11.99C15.3894 12.5033 15.3754 13.0167 15.3567 13.53L15.2727 15.42C15.2634 15.5227 15.2634 15.6207 15.2727 15.714C15.2821 15.8073 15.2821 15.9053 15.2727 16.008C15.2634 16.288 15.2214 16.5913 15.1467 16.918C15.0814 17.2447 14.9694 17.5387 14.8107 17.8C14.6521 18.0707 14.4467 18.2853 14.1947 18.444C13.9521 18.6027 13.6534 18.654 13.2987 18.598C13.1027 18.5793 12.9161 18.4767 12.7387 18.29C12.5707 18.1033 12.4447 17.9073 12.3607 17.702C12.2861 17.506 12.2721 17.338 12.3187 17.198C12.3654 17.0673 12.5101 17.0393 12.7527 17.114C12.8461 17.142 12.9254 17.1887 12.9907 17.254C13.0654 17.3287 13.1401 17.3987 13.2147 17.464C13.2894 17.5387 13.3687 17.5993 13.4527 17.646C13.5367 17.6927 13.6347 17.7067 13.7467 17.688C13.9054 17.66 14.0314 17.5573 14.1247 17.38C14.2274 17.2027 14.3021 17.044 14.3487 16.904C14.3954 16.736 14.4234 16.5633 14.4327 16.386C14.4421 16.2087 14.4421 16.0267 14.4327 15.84C14.4327 15.6627 14.4281 15.4807 14.4187 15.294C14.4187 15.1167 14.4281 14.9393 14.4467 14.762C14.3161 14.818 14.1994 14.874 14.0967 14.93C14.0034 14.9767 13.9007 15.014 13.7887 15.042C13.6861 15.0793 13.5741 15.0933 13.4527 15.084C13.3407 15.084 13.2101 15.0467 13.0607 14.972C12.7714 14.832 12.5801 14.6173 12.4867 14.328C12.3934 14.0293 12.3467 13.7073 12.3467 13.362C12.3467 13.0073 12.3701 12.6527 12.4167 12.298C12.4634 11.9433 12.4821 11.64 12.4727 11.388C12.4634 11.0333 12.4681 10.6833 12.4867 10.338C12.5054 9.99267 12.5521 9.64733 12.6267 9.302C12.7481 8.714 13.0934 8.294 13.6627 8.042C13.8307 7.96733 14.0034 7.916 14.1807 7.888C14.3581 7.86933 14.5121 7.89267 14.6427 7.958C14.7174 8.00467 14.7827 8.03733 14.8387 8.056C14.9041 8.06533 14.9787 8.06067 15.0627 8.042C15.1841 8.014 15.2681 8.042 15.3147 8.126C15.3707 8.21 15.4127 8.294 15.4407 8.378C15.4781 8.49 15.5014 8.61133 15.5107 8.742C15.5201 8.86333 15.5341 8.97067 15.5527 9.064ZM13.2007 13.684C13.2007 13.796 13.2101 13.8987 13.2287 13.992C13.2567 14.0853 13.3221 14.1553 13.4247 14.202C13.5274 14.258 13.6254 14.2953 13.7187 14.314C13.8214 14.3233 13.9194 14.2907 14.0127 14.216C14.1714 14.1133 14.3067 13.992 14.4187 13.852C14.5401 13.712 14.5914 13.544 14.5727 13.348C14.5541 13.1333 14.5541 12.928 14.5727 12.732C14.6007 12.5267 14.6241 12.3213 14.6427 12.116C14.6707 11.7707 14.6941 11.43 14.7127 11.094C14.7407 10.758 14.7641 10.422 14.7827 10.086C14.7827 9.946 14.7734 9.80133 14.7547 9.652C14.7361 9.50267 14.7174 9.35333 14.6987 9.204C14.6894 9.15733 14.6707 9.11533 14.6427 9.078C14.6147 9.04067 14.5821 9.00333 14.5447 8.966C14.1341 8.658 13.7981 8.714 13.5367 9.134C13.4061 9.32067 13.3221 9.526 13.2847 9.75C13.2567 9.974 13.2334 10.1933 13.2147 10.408C13.1961 10.6787 13.1867 10.9493 13.1867 11.22C13.1961 11.4813 13.2007 11.7473 13.2007 12.018V13.684Z" fill="#333333"/>
</svg>
