<svg width="24" height="24" viewBox="0 0 24 24" fill="none" xmlns="http://www.w3.org/2000/svg">
<path d="M11.5701 12.004C11.6354 12.62 11.6868 13.096 11.7241 13.432C11.7614 13.768 11.7894 14.02 11.8081 14.188C11.8361 14.3467 11.8548 14.4447 11.8641 14.482C11.8734 14.5193 11.8781 14.5427 11.8781 14.552C11.8594 14.664 11.7941 14.7573 11.6821 14.832C11.5794 14.9067 11.4488 14.9533 11.2901 14.972C11.1034 14.9907 10.9681 14.958 10.8841 14.874C10.8001 14.79 10.7348 14.6827 10.6881 14.552C10.6881 14.524 10.6788 14.496 10.6601 14.468C10.6508 14.44 10.6368 14.4073 10.6181 14.37H10.6321C10.5948 14.3047 10.5808 14.2533 10.5901 14.216H10.5761C10.5294 14.1413 10.4921 14.0573 10.4641 13.964C10.4361 13.8707 10.4174 13.7913 10.4081 13.726C10.3708 13.5673 10.3428 13.3993 10.3241 13.222C10.3148 13.0353 10.3008 12.8487 10.2821 12.662L10.2541 12.396C10.2354 12.2373 10.2168 12.0833 10.1981 11.934C10.1794 11.7847 10.1608 11.6307 10.1421 11.472C10.1234 11.416 10.0954 11.3647 10.0581 11.318C10.0208 11.2713 9.97877 11.2527 9.9321 11.262L9.8201 11.29C9.74544 11.3087 9.66144 11.318 9.5681 11.318C9.44677 11.3273 9.37677 11.346 9.3581 11.374C9.33943 11.3927 9.32077 11.4813 9.3021 11.64C9.2741 11.8827 9.25077 12.1207 9.2321 12.354C9.22277 12.578 9.20877 12.8113 9.1901 13.054C9.17144 13.1847 9.15744 13.3107 9.1481 13.432C9.1481 13.5533 9.14343 13.6793 9.1341 13.81C9.1341 13.838 9.1341 13.8753 9.1341 13.922C9.1341 13.9687 9.12943 14.0107 9.1201 14.048C9.1201 14.076 9.11543 14.1133 9.1061 14.16C9.1061 14.2067 9.1061 14.2393 9.1061 14.258C9.09677 14.314 9.08277 14.3747 9.0641 14.44C9.04543 14.5053 8.99877 14.5753 8.9241 14.65H8.9381C8.87277 14.7247 8.7841 14.79 8.6721 14.846C8.56943 14.902 8.4621 14.93 8.3501 14.93C8.21943 14.93 8.1121 14.888 8.0281 14.804C7.9441 14.72 7.87877 14.6407 7.8321 14.566L7.8041 14.538C7.75743 14.4073 7.73877 14.314 7.7481 14.258V14.118C7.78543 13.8473 7.8181 13.5767 7.8461 13.306C7.8741 13.0353 7.8881 12.7647 7.8881 12.494C7.89743 12.382 7.9021 12.2747 7.9021 12.172C7.91143 12.06 7.92543 11.9573 7.9441 11.864C7.9441 11.8173 7.94877 11.7707 7.9581 11.724C7.96743 11.668 7.9721 11.6213 7.9721 11.584L8.0001 11.416C8.01877 11.3413 8.0281 11.2667 8.0281 11.192C8.03743 11.1173 8.04677 11.038 8.0561 10.954L8.1681 10.072C8.18677 9.91333 8.20543 9.75933 8.2241 9.61C8.24277 9.46067 8.26143 9.30667 8.2801 9.148C8.2801 9.12933 8.2801 9.11533 8.2801 9.106C8.28943 9.09667 8.2941 9.08267 8.2941 9.064V9.008C8.2941 8.98 8.30343 8.91933 8.3221 8.826C8.33143 8.78867 8.34077 8.74667 8.3501 8.7C8.44343 8.42933 8.50877 8.154 8.5461 7.874C8.59277 7.58467 8.62543 7.29533 8.6441 7.006C8.65343 6.87533 8.67677 6.754 8.7141 6.642C8.75143 6.52067 8.7981 6.39467 8.8541 6.264L8.9381 6.04L9.1201 5.676L9.1761 5.578C9.25077 5.42867 9.34877 5.31667 9.4701 5.242C9.60077 5.16733 9.7361 5.13 9.8761 5.13C10.0628 5.13 10.2354 5.19533 10.3941 5.326C10.4688 5.37267 10.5201 5.43333 10.5481 5.508C10.5854 5.57333 10.6134 5.634 10.6321 5.69L10.7161 6.25C10.7348 6.32467 10.7441 6.39933 10.7441 6.474C10.7534 6.54867 10.7628 6.62333 10.7721 6.698C10.7908 6.81 10.8048 6.922 10.8141 7.034C10.8328 7.146 10.8514 7.25333 10.8701 7.356C10.8888 7.44 10.9028 7.524 10.9121 7.608C10.9308 7.692 10.9494 7.776 10.9681 7.86L11.0521 8.266C11.1361 8.742 11.2154 9.232 11.2901 9.736L11.3041 9.89C11.3134 9.98333 11.3228 10.0767 11.3321 10.17C11.3414 10.2633 11.3554 10.3613 11.3741 10.464L11.4581 11.038L11.5701 12.004ZM9.6941 7.902C9.6661 8.20067 9.64277 8.49933 9.6241 8.798C9.60544 9.08733 9.58677 9.386 9.5681 9.694C9.5401 9.87133 9.58677 9.946 9.7081 9.918C9.71743 9.918 9.72677 9.918 9.7361 9.918C9.74543 9.90867 9.75477 9.904 9.7641 9.904C9.78277 9.904 9.8201 9.89 9.8761 9.862L9.6941 7.902ZM15.9438 9.862L15.9018 10.534L15.8178 12.9C15.8178 12.9653 15.8131 13.0493 15.8038 13.152C15.8038 13.2547 15.8038 13.334 15.8038 13.39L15.7338 15.182V15.952C15.7245 16.2413 15.6778 16.5493 15.5938 16.876C15.5098 17.2027 15.3791 17.5013 15.2018 17.772C15.0245 18.0427 14.7958 18.262 14.5158 18.43C14.2451 18.598 13.9138 18.6587 13.5218 18.612C13.3631 18.5933 13.2091 18.528 13.0598 18.416C12.9198 18.3133 12.7938 18.192 12.6818 18.052C12.5698 17.912 12.4765 17.7627 12.4018 17.604C12.3365 17.4547 12.3038 17.3193 12.3038 17.198C12.3038 16.974 12.3691 16.8107 12.4998 16.708C12.6305 16.6147 12.8498 16.624 13.1578 16.736H13.1438C13.1998 16.7547 13.2511 16.7873 13.2978 16.834C13.3445 16.89 13.3911 16.946 13.4378 17.002C13.4938 17.0673 13.5545 17.1233 13.6198 17.17C13.6945 17.226 13.7831 17.2587 13.8858 17.268C13.9791 17.24 14.0538 17.1747 14.1098 17.072C14.1658 16.9787 14.2078 16.8667 14.2358 16.736C14.2638 16.6147 14.2825 16.4887 14.2918 16.358C14.3011 16.2273 14.3058 16.1153 14.3058 16.022C14.3058 15.994 14.3011 15.966 14.2918 15.938C14.2918 15.91 14.2918 15.8773 14.2918 15.84V15.644C14.2918 15.616 14.2871 15.5693 14.2778 15.504C14.2778 15.448 14.2778 15.3827 14.2778 15.308C14.2778 15.2427 14.2778 15.1773 14.2778 15.112C14.2778 15.0467 14.2778 15 14.2778 14.972C14.2031 15 14.1238 15.0233 14.0398 15.042C13.9558 15.07 13.8671 15.084 13.7738 15.084C13.5965 15.084 13.4098 15.0373 13.2138 14.944C12.8871 14.7853 12.6631 14.552 12.5418 14.244C12.4205 13.936 12.3598 13.6047 12.3598 13.25C12.3598 13.1193 12.3645 12.9747 12.3738 12.816C12.3831 12.648 12.3971 12.4987 12.4158 12.368C12.4158 12.3493 12.4158 12.3213 12.4158 12.284C12.4251 12.2467 12.4298 12.2187 12.4298 12.2C12.4485 12.0413 12.4578 11.8967 12.4578 11.766C12.4671 11.626 12.4718 11.5047 12.4718 11.402C12.4625 11.066 12.4671 10.73 12.4858 10.394C12.5045 10.058 12.5511 9.73133 12.6258 9.414C12.7005 9.134 12.8405 8.87267 13.0458 8.63C13.2605 8.38733 13.5031 8.20067 13.7738 8.07C13.8485 8.03267 13.9371 8 14.0398 7.972C14.1518 7.93467 14.2545 7.91133 14.3478 7.902C14.4318 7.89267 14.5158 7.90667 14.5998 7.944C14.6838 7.98133 14.7585 8.02333 14.8238 8.07C14.8985 8.10733 14.9591 8.14467 15.0058 8.182C15.0618 8.21 15.0991 8.21467 15.1178 8.196C15.2391 8.07467 15.3418 8.014 15.4258 8.014C15.5098 8.00467 15.5798 8.028 15.6358 8.084C15.7011 8.14 15.7525 8.21 15.7898 8.294C15.8271 8.378 15.8551 8.45267 15.8738 8.518C15.9018 8.59267 15.9205 8.67667 15.9298 8.77C15.9391 8.854 15.9485 8.94733 15.9578 9.05L15.9858 9.26L15.9438 9.862ZM13.8158 13.516C13.8158 13.6187 13.8391 13.7073 13.8858 13.782C13.9325 13.8473 13.9745 13.8613 14.0118 13.824C14.1145 13.7587 14.2031 13.6747 14.2778 13.572C14.3618 13.4693 14.4085 13.3573 14.4178 13.236C14.4085 13.096 14.4038 12.956 14.4038 12.816C14.4131 12.6667 14.4271 12.5267 14.4458 12.396L14.4878 12.046C14.5158 11.738 14.5391 11.4253 14.5578 11.108C14.5765 10.7907 14.5951 10.4827 14.6138 10.184C14.6138 10.0067 14.5998 9.82 14.5718 9.624C14.5625 9.53067 14.5438 9.442 14.5158 9.358C14.4878 9.274 14.4085 9.232 14.2778 9.232C14.2031 9.232 14.1378 9.274 14.0818 9.358C14.0351 9.442 13.9931 9.54467 13.9558 9.666C13.9278 9.778 13.9045 9.89 13.8858 10.002C13.8671 10.114 13.8531 10.198 13.8438 10.254C13.8438 10.2727 13.8391 10.296 13.8298 10.324C13.8298 10.3427 13.8298 10.3613 13.8298 10.38V10.506C13.8205 10.5993 13.8158 10.688 13.8158 10.772C13.8158 10.8467 13.8158 10.9307 13.8158 11.024V13.516Z" fill="#333333"/>
</svg>
