<svg width="24" height="24" viewBox="0 0 24 24" fill="none" xmlns="http://www.w3.org/2000/svg">
<path d="M8.33354 9.8C8.14687 9.81867 7.98821 9.87 7.85754 9.954C7.72687 10.0287 7.62421 10.1593 7.54954 10.346C7.35354 10.8687 7.10621 11.3633 6.80754 11.83C6.51821 12.2873 6.21021 12.7307 5.88354 13.16C5.73421 13.356 5.55221 13.5333 5.33754 13.692C5.11354 13.8413 4.87087 13.916 4.60954 13.916C4.50687 13.916 4.39487 13.902 4.27354 13.874C4.14287 13.8367 4.07754 13.7573 4.07754 13.636C4.07754 13.5613 4.09621 13.4913 4.13354 13.426C4.17087 13.3513 4.22687 13.3047 4.30154 13.286C4.66554 13.1927 4.96421 13.076 5.19754 12.936C5.43087 12.796 5.65487 12.5953 5.86954 12.334C6.00954 12.166 6.14487 11.984 6.27554 11.788C6.41554 11.5827 6.53687 11.382 6.63954 11.186C6.75154 10.99 6.84021 10.808 6.90554 10.64C6.97087 10.472 7.00354 10.3413 7.00354 10.248C6.75154 10.3507 6.50887 10.4533 6.27554 10.556C6.04221 10.6587 5.83221 10.8033 5.64554 10.99C5.60821 11.018 5.57554 11.046 5.54754 11.074C5.51954 11.0927 5.48687 11.102 5.44954 11.102C5.31887 11.102 5.25354 11.0413 5.25354 10.92C5.25354 10.7987 5.32821 10.682 5.47754 10.57C5.61754 10.4487 5.78087 10.3367 5.96754 10.234C6.16354 10.122 6.35954 10.024 6.55554 9.94C6.76087 9.856 6.91954 9.79067 7.03154 9.744C7.18087 9.67867 7.32087 9.54333 7.45154 9.338C7.58221 9.12333 7.70821 8.88533 7.82954 8.624C7.95087 8.35333 8.06287 8.07333 8.16554 7.784C8.26821 7.49467 8.37087 7.24267 8.47354 7.028C8.56687 6.82267 8.66487 6.608 8.76754 6.384C8.87021 6.15067 8.99154 5.94067 9.13154 5.754C9.27154 5.558 9.43021 5.39933 9.60754 5.278C9.78487 5.15667 9.99954 5.096 10.2515 5.096C10.5595 5.096 10.7695 5.20333 10.8815 5.418C10.9935 5.63267 11.0495 5.894 11.0495 6.202C11.0495 6.44467 11.0449 6.692 11.0355 6.944C11.0355 7.196 11.0355 7.44333 11.0355 7.686C11.0355 7.742 11.0402 7.798 11.0495 7.854C11.0589 7.91 11.0635 7.97067 11.0635 8.036C11.2969 8.036 11.5162 8.008 11.7215 7.952C11.9362 7.896 12.1555 7.84933 12.3795 7.812C12.4169 7.96133 12.4355 8.078 12.4355 8.162C12.4355 8.29267 12.3702 8.38133 12.2395 8.428C11.9035 8.53067 11.6422 8.61 11.4555 8.666C11.2689 8.722 11.1289 8.78267 11.0355 8.848C10.9422 8.91333 10.8862 8.99267 10.8675 9.086C10.8489 9.17933 10.8395 9.31933 10.8395 9.506C10.8302 9.73 10.8209 9.954 10.8115 10.178C10.8022 10.3927 10.7975 10.612 10.7975 10.836C10.7975 11.0227 10.8069 11.2047 10.8255 11.382C10.8442 11.5593 10.8535 11.7367 10.8535 11.914C10.8535 12.082 10.8489 12.2313 10.8395 12.362C10.8302 12.4927 10.7789 12.6233 10.6855 12.754C10.5829 12.894 10.4662 13.0527 10.3355 13.23C10.2142 13.4073 10.0789 13.5753 9.92954 13.734C9.78954 13.8927 9.64487 14.0233 9.49554 14.126C9.34621 14.238 9.19687 14.294 9.04754 14.294C8.88887 14.294 8.75821 14.21 8.65554 14.042C8.56221 13.8833 8.48754 13.6873 8.43154 13.454C8.37554 13.2113 8.33821 12.964 8.31954 12.712C8.30087 12.4507 8.29154 12.2267 8.29154 12.04C8.29154 11.7133 8.30554 11.382 8.33354 11.046C8.37087 10.7007 8.38954 10.3647 8.38954 10.038C8.38954 9.954 8.37087 9.87467 8.33354 9.8ZM8.22154 9.184C8.32421 9.128 8.39887 9.06733 8.44554 9.002C8.50154 8.93667 8.54354 8.86667 8.57154 8.792C8.59954 8.708 8.61821 8.61933 8.62754 8.526C8.64621 8.43267 8.66954 8.33467 8.69754 8.232C8.55754 8.38133 8.45021 8.53067 8.37554 8.68C8.30087 8.82933 8.24954 8.99733 8.22154 9.184ZM17.448 11.494C17.308 11.6527 17.1726 11.8113 17.042 11.97C16.9206 12.1193 16.7946 12.2733 16.664 12.432C16.608 12.5627 16.566 12.7167 16.538 12.894C16.51 13.0713 16.4866 13.258 16.468 13.454C16.4586 13.6407 16.4493 13.8273 16.44 14.014C16.44 14.21 16.4306 14.392 16.412 14.56C16.384 14.7933 16.328 15.0593 16.244 15.358C16.16 15.6567 16.0433 15.9367 15.894 16.198C15.7446 16.4687 15.5626 16.6927 15.348 16.87C15.1426 17.0567 14.9 17.15 14.62 17.15C14.2 17.15 13.864 17.0753 13.612 16.926C13.36 16.7767 13.234 16.492 13.234 16.072C13.234 15.82 13.318 15.54 13.486 15.232C13.654 14.924 13.8406 14.6533 14.046 14.42C14.0833 14.3827 14.1346 14.336 14.2 14.28C14.2746 14.224 14.3446 14.168 14.41 14.112C14.4753 14.056 14.5313 14.0093 14.578 13.972C14.6246 13.9253 14.648 13.888 14.648 13.86C14.648 13.8133 14.6293 13.7667 14.592 13.72C14.3493 13.9627 14.1253 14.1307 13.92 14.224C13.724 14.3173 13.4766 14.364 13.178 14.364C12.9726 14.364 12.7673 14.3173 12.562 14.224C12.3566 14.14 12.17 14.0233 12.002 13.874C11.8433 13.7153 11.7126 13.5287 11.61 13.314C11.5073 13.0993 11.456 12.8707 11.456 12.628C11.456 12.4507 11.47 12.264 11.498 12.068C11.5166 11.872 11.5446 11.6807 11.582 11.494C11.6193 11.27 11.7126 11.0273 11.862 10.766C12.002 10.5047 12.1793 10.2667 12.394 10.052C12.6086 9.828 12.8466 9.646 13.108 9.506C13.3786 9.35667 13.6493 9.282 13.92 9.282C14.1533 9.282 14.354 9.338 14.522 9.45C14.6993 9.55267 14.8626 9.702 15.012 9.898C15.1893 9.83267 15.3573 9.78133 15.516 9.744C15.684 9.69733 15.8613 9.66467 16.048 9.646C16.188 9.646 16.2953 9.69267 16.37 9.786C16.454 9.87 16.5146 9.982 16.552 10.122C16.5986 10.262 16.6266 10.4253 16.636 10.612C16.6546 10.7893 16.664 10.9667 16.664 11.144V11.844C16.8413 11.62 17.0046 11.4333 17.154 11.284C17.3033 11.1347 17.4293 11.06 17.532 11.06C17.616 11.06 17.658 11.102 17.658 11.186C17.658 11.242 17.6346 11.298 17.588 11.354C17.5413 11.4007 17.4946 11.4473 17.448 11.494ZM14.032 13.776C14.2 13.7013 14.34 13.6127 14.452 13.51C14.5733 13.398 14.634 13.2627 14.634 13.104C14.6246 13.02 14.62 12.936 14.62 12.852C14.62 12.768 14.62 12.6887 14.62 12.614C14.62 12.2407 14.6433 11.872 14.69 11.508C14.746 11.1347 14.774 10.766 14.774 10.402C14.774 10.3273 14.7693 10.234 14.76 10.122C14.7506 10.01 14.69 9.94467 14.578 9.926C14.41 10.0287 14.2653 10.1873 14.144 10.402C14.0226 10.6167 13.92 10.8547 13.836 11.116C13.752 11.368 13.6866 11.634 13.64 11.914C13.6026 12.1847 13.584 12.4227 13.584 12.628C13.584 12.8613 13.612 13.0713 13.668 13.258C13.724 13.4447 13.8453 13.6173 14.032 13.776ZM14.606 14.21C14.5406 14.2287 14.508 14.2427 14.508 14.252C14.396 14.3827 14.284 14.5273 14.172 14.686C14.06 14.8447 13.9573 15.0033 13.864 15.162C13.7706 15.33 13.6913 15.4933 13.626 15.652C13.57 15.8107 13.542 15.946 13.542 16.058C13.542 16.198 13.5746 16.3427 13.64 16.492C13.7053 16.6507 13.8126 16.7393 13.962 16.758C14.1206 16.758 14.242 16.6693 14.326 16.492C14.4193 16.3147 14.4893 16.1047 14.536 15.862C14.5826 15.6193 14.6106 15.3627 14.62 15.092C14.6386 14.8307 14.648 14.616 14.648 14.448C14.648 14.4013 14.6433 14.3593 14.634 14.322C14.6246 14.294 14.6153 14.2567 14.606 14.21Z" fill="#333333"/>
</svg>
