<svg width="24" height="24" viewBox="0 0 24 24" fill="none" xmlns="http://www.w3.org/2000/svg">
<path d="M6.08691 12.9648L5.60156 14.2432C5.50586 14.4938 5.43066 14.6966 5.37598 14.8516C5.32585 15.002 5.30078 15.1182 5.30078 15.2002C5.30078 15.2777 5.32129 15.3369 5.3623 15.3779C5.40332 15.4189 5.46712 15.4508 5.55371 15.4736L6.20996 15.665L6.23047 16.0205C5.56966 16.0068 5.0319 16 4.61719 16C4.18424 16 3.68978 16.0068 3.13379 16.0205L3.09961 15.6787L3.83105 15.46C4.00423 15.4098 4.13184 15.3278 4.21387 15.2139C4.2959 15.0954 4.38704 14.9176 4.4873 14.6807L7.8916 6.38867L8.62988 6.2793L11.5762 14.5918C11.6901 14.9108 11.7926 15.1273 11.8838 15.2412C11.9795 15.3506 12.1139 15.4303 12.2871 15.4805L12.957 15.6787L12.9775 16.0205C12.3623 16.0068 11.7425 16 11.1182 16C10.2933 16 9.48893 16.0068 8.70508 16.0205L8.6709 15.6787L9.34766 15.4805C9.4388 15.4531 9.50488 15.4189 9.5459 15.3779C9.58691 15.3369 9.60742 15.2754 9.60742 15.1934C9.60742 15.1022 9.58464 14.9837 9.53906 14.8379C9.49349 14.6875 9.42741 14.4915 9.34082 14.25L8.88965 12.9648H6.08691ZM7.56348 9.04102C7.48145 9.27799 7.39258 9.52409 7.29688 9.7793L6.36035 12.2539H8.64355L7.80273 9.78613C7.71615 9.52637 7.63639 9.27799 7.56348 9.04102ZM20.4355 10.0049L18.8496 10.4082C19.1868 10.7956 19.3555 11.2331 19.3555 11.7207C19.3555 12.4544 19.0889 13.04 18.5557 13.4775C18.027 13.9105 17.3298 14.127 16.4639 14.127C15.9261 14.127 15.4521 14.0495 15.042 13.8945C14.8643 14.2181 14.7754 14.487 14.7754 14.7012C14.7754 14.8197 14.8346 14.8994 14.9531 14.9404C15.0762 14.9814 15.3268 15.002 15.7051 15.002C15.9785 15.002 16.3135 14.9997 16.71 14.9951C17.1064 14.986 17.4665 14.9814 17.79 14.9814C18.5602 14.9814 19.1527 15.125 19.5674 15.4121C19.9821 15.6947 20.1895 16.1253 20.1895 16.7041C20.1895 17.5563 19.7656 18.2376 18.918 18.748C18.0749 19.263 17.1201 19.5205 16.0537 19.5205C15.1742 19.5205 14.4769 19.3883 13.9619 19.124C13.4515 18.8643 13.1963 18.527 13.1963 18.1123C13.1963 17.5745 13.5518 17.0186 14.2627 16.4443C13.7933 16.2529 13.5586 15.9704 13.5586 15.5967C13.5586 15.1455 13.9027 14.5075 14.5908 13.6826C13.8981 13.277 13.5518 12.6732 13.5518 11.8711C13.5518 11.1602 13.8161 10.5882 14.3447 10.1553C14.8779 9.72233 15.5957 9.50586 16.498 9.50586C16.735 9.50586 17.0563 9.5332 17.4619 9.58789C17.8538 9.65169 18.1569 9.68359 18.3711 9.68359C19.1185 9.68359 19.793 9.67676 20.3945 9.66309L20.4355 10.0049ZM14.8574 16.5332C14.6387 16.9388 14.5293 17.3148 14.5293 17.6611C14.5293 18.0166 14.6934 18.2946 15.0215 18.4951C15.3542 18.7002 15.8053 18.8027 16.375 18.8027C17.0586 18.8027 17.651 18.6683 18.1523 18.3994C18.6536 18.1351 18.9043 17.7773 18.9043 17.3262C18.9043 17.0801 18.8018 16.8841 18.5967 16.7383C18.3916 16.5924 17.9404 16.5195 17.2432 16.5195C16.9697 16.515 16.6735 16.5195 16.3545 16.5332C16.0355 16.5469 15.7393 16.5537 15.4658 16.5537C15.2699 16.5537 15.0671 16.5469 14.8574 16.5332ZM15.4932 11.7549C15.4932 12.3473 15.5684 12.8053 15.7188 13.1289C15.8691 13.4525 16.1243 13.6143 16.4844 13.6143C16.849 13.6143 17.0973 13.4639 17.2295 13.1631C17.3662 12.8577 17.4346 12.4134 17.4346 11.8301C17.4346 11.2695 17.3617 10.8275 17.2158 10.5039C17.07 10.1803 16.8102 10.0186 16.4365 10.0186C16.0719 10.0186 15.8236 10.1667 15.6914 10.4629C15.5592 10.7591 15.4932 11.1898 15.4932 11.7549Z" fill="#333333"/>
</svg>
