<svg width="24" height="24" viewBox="0 0 24 24" fill="none" xmlns="http://www.w3.org/2000/svg">
<path d="M3.66152 17L6.97952 7.13C7.05419 6.934 7.21752 6.836 7.46952 6.836C7.57219 6.836 8.07152 6.864 8.96752 6.92L12.3135 17H10.6755L9.76552 14.06H6.22352L5.32752 17H3.66152ZM6.60152 12.8H9.37352L7.97352 8.264V8.348L6.60152 12.8ZM19.2953 10.028V16.552C19.2953 17.6907 18.9966 18.5633 18.3993 19.17C17.8113 19.7767 16.9713 20.08 15.8793 20.08C15.2073 20.08 14.7033 20.0333 14.3673 19.94C14.0406 19.8467 13.7979 19.772 13.6393 19.716C13.4899 19.6693 13.4059 19.646 13.3873 19.646L13.7093 18.512C14.3439 18.7453 14.9039 18.862 15.3893 18.862C15.8746 18.862 16.2386 18.834 16.4813 18.778C16.7239 18.722 16.9526 18.61 17.1673 18.442C17.5779 18.1247 17.7833 17.434 17.7833 16.37V16.146C17.6153 16.4073 17.3586 16.6453 17.0133 16.86C16.6679 17.0653 16.2526 17.168 15.7673 17.168C14.9646 17.168 14.2879 16.8647 13.7373 16.258C13.1866 15.6513 12.9113 14.7227 12.9113 13.472C12.9113 12.212 13.2099 11.2133 13.8073 10.476C14.4046 9.72933 15.3053 9.356 16.5093 9.356C17.4519 9.356 18.3806 9.58 19.2953 10.028ZM14.5073 13.332C14.5073 14.312 14.6473 15.0027 14.9273 15.404C15.2073 15.796 15.6086 15.992 16.1313 15.992C16.6633 15.992 17.0693 15.8053 17.3493 15.432C17.6386 15.0587 17.7833 14.6153 17.7833 14.102V10.714C17.4473 10.5927 17.0553 10.532 16.6073 10.532C15.8513 10.532 15.3099 10.756 14.9833 11.204C14.6659 11.6427 14.5073 12.352 14.5073 13.332Z" fill="#888888"/>
</svg>
