<svg width="24" height="24" viewBox="0 0 24 24" fill="none" xmlns="http://www.w3.org/2000/svg">
<path d="M10.9327 14.356C11.1007 14.356 11.3247 14.1647 11.6047 13.782C11.8847 13.39 12.16 12.8907 12.4307 12.284C12.7107 11.668 12.8787 11.36 12.9347 11.36C13 11.36 13.0327 11.3973 13.0327 11.472C13.0327 11.7333 12.8973 12.1487 12.6267 12.718C11.8893 14.286 11.264 15.07 10.7507 15.07C10.3213 15.07 10.0133 14.9953 9.82667 14.846C9.74267 14.762 9.70067 13.8753 9.70067 12.186L7.40467 12.354C7.22734 12.8393 7.06867 13.3247 6.92867 13.81C6.78867 14.2953 6.69534 14.594 6.64867 14.706C6.54601 14.9487 6.29867 15.07 5.90667 15.07C5.64534 15.07 5.51467 14.958 5.51467 14.734C5.51467 14.51 5.69201 14.1833 6.04667 13.754C6.11201 13.67 6.32667 13.2173 6.69067 12.396C6.56001 12.4053 6.43401 12.41 6.31267 12.41C5.98601 12.41 5.82267 12.27 5.82267 11.99C5.82267 11.738 5.95334 11.612 6.21467 11.612C6.23334 11.612 6.49934 11.6353 7.01267 11.682C7.15267 11.3553 7.30201 11.0333 7.46067 10.716C8.68334 8.15867 9.52334 6.88 9.98067 6.88C10.326 6.88 10.564 8.48067 10.6947 11.682H10.8207C10.886 11.682 10.9187 11.7287 10.9187 11.822C10.9187 11.9153 10.8487 11.9947 10.7087 12.06C10.7647 13.5907 10.8393 14.356 10.9327 14.356ZM7.61467 11.752C8.70667 11.752 9.40201 11.7473 9.70067 11.738C9.69134 11.5887 9.68201 11.3273 9.67267 10.954C9.66334 10.5807 9.65401 10.2587 9.64467 9.988C9.63534 9.708 9.62601 9.41867 9.61667 9.12C9.57934 8.476 9.52334 8.154 9.44867 8.154C9.34601 8.154 9.13601 8.45733 8.81867 9.064C8.50134 9.67067 8.25401 10.184 8.07667 10.604C7.83401 11.2107 7.68001 11.5933 7.61467 11.752ZM15.6083 12.858C15.319 13.6233 15.0483 14.1833 14.7963 14.538C14.5537 14.8927 14.2317 15.07 13.8303 15.07C13.429 15.07 13.0883 14.8973 12.8083 14.552C12.5377 14.2067 12.4023 13.656 12.4023 12.9C12.4023 12.144 12.6123 11.4767 13.0323 10.898C13.4617 10.3193 14.0217 10.03 14.7123 10.03C14.8523 10.03 15.0203 10.0907 15.2163 10.212C15.4123 10.324 15.585 10.464 15.7343 10.632C15.7623 10.5387 15.8977 10.394 16.1403 10.198C16.383 9.99267 16.5697 9.89 16.7003 9.89C16.8403 9.89 16.9103 10.0907 16.9103 10.492C16.9103 10.8933 16.8263 11.248 16.6583 11.556C16.565 12.1813 16.5137 12.76 16.5043 13.292C17.419 12.1347 17.9043 11.5233 17.9603 11.458C18.0257 11.3927 18.0817 11.36 18.1283 11.36C18.2217 11.36 18.2683 11.4067 18.2683 11.5C18.2683 11.556 18.2497 11.6167 18.2123 11.682C17.9137 12.1207 17.3257 12.8907 16.4483 13.992C16.3923 15.1027 16.355 15.8587 16.3363 16.26C16.2897 17.4453 16.1217 18.276 15.8323 18.752C15.5523 19.2373 15.0483 19.48 14.3203 19.48C14.003 19.48 13.7043 19.382 13.4243 19.186C13.1537 18.9993 13.0183 18.668 13.0183 18.192C13.0183 17.7253 13.1957 17.2447 13.5503 16.75C13.9143 16.2553 14.5723 15.4947 15.5243 14.468L15.6083 12.858ZM14.6283 10.534C14.367 10.534 14.087 10.7393 13.7883 11.15C13.499 11.5513 13.3543 12.018 13.3543 12.55C13.3543 13.0727 13.429 13.502 13.5783 13.838C13.737 14.1647 13.933 14.328 14.1663 14.328C14.3997 14.328 14.6237 14.1367 14.8383 13.754C15.053 13.3713 15.3283 12.7133 15.6643 11.78C15.683 11.4627 15.6923 11.262 15.6923 11.178C15.6177 11.038 15.4637 10.898 15.2303 10.758C14.997 10.6087 14.7963 10.534 14.6283 10.534ZM15.4823 15.126C14.4183 16.274 13.8863 17.1933 13.8863 17.884C13.8863 18.2013 13.9423 18.4627 14.0543 18.668C14.1663 18.8733 14.3203 18.976 14.5163 18.976C14.815 18.976 15.025 18.8127 15.1463 18.486C15.2677 18.1593 15.3563 17.4967 15.4123 16.498L15.4823 15.126Z" fill="#333333"/>
</svg>
