<svg width="24" height="24" viewBox="0 0 24 24" fill="none" xmlns="http://www.w3.org/2000/svg">
<path d="M11.2581 16.004C11.4778 16.004 11.7707 15.7538 12.1369 15.2534C12.503 14.7408 12.8631 14.0878 13.217 13.2945C13.5832 12.4889 13.8029 12.0862 13.8761 12.0862C13.9615 12.0862 14.0043 12.135 14.0043 12.2326C14.0043 12.5744 13.8273 13.1175 13.4733 13.862C12.5091 15.9125 11.6914 16.9377 11.0201 16.9377C10.4587 16.9377 10.0559 16.8401 9.8118 16.6448C9.70196 16.5349 9.64703 15.3754 9.64703 13.1663L6.64457 13.386C6.41267 14.0207 6.20519 14.6553 6.02211 15.29C5.83903 15.9247 5.71698 16.3152 5.65596 16.4617C5.5217 16.779 5.19826 16.9377 4.68565 16.9377C4.3439 16.9377 4.17303 16.7912 4.17303 16.4983C4.17303 16.2054 4.40493 15.7782 4.86873 15.2168C4.95416 15.1069 5.23488 14.515 5.71088 13.4409C5.54001 13.4531 5.37524 13.4592 5.21657 13.4592C4.78939 13.4592 4.5758 13.2762 4.5758 12.91C4.5758 12.5805 4.74667 12.4157 5.08842 12.4157C5.11283 12.4157 5.46067 12.4462 6.13196 12.5072C6.31503 12.0801 6.51031 11.659 6.7178 11.244C8.31667 7.89979 9.41514 6.22769 10.0132 6.22769C10.4648 6.22769 10.776 8.32087 10.9469 12.5072H11.1116C11.1971 12.5072 11.2398 12.5683 11.2398 12.6903C11.2398 12.8124 11.1483 12.9161 10.9652 13.0015C11.0384 15.0032 11.1361 16.004 11.2581 16.004ZM6.91919 12.5988C8.34719 12.5988 9.25647 12.5927 9.64703 12.5805C9.63483 12.3852 9.62262 12.0434 9.61042 11.5552C9.59821 11.067 9.58601 10.6459 9.5738 10.292C9.5616 9.92585 9.54939 9.54749 9.53719 9.15692C9.48837 8.31477 9.41514 7.89369 9.31749 7.89369C9.18324 7.89369 8.90862 8.29036 8.49365 9.08369C8.07867 9.87702 7.75524 10.5483 7.52334 11.0975C7.20601 11.8909 7.00462 12.3913 6.91919 12.5988ZM17.3724 14.0451C16.9941 15.0459 16.6401 15.7782 16.3106 16.242C15.9933 16.7058 15.5722 16.9377 15.0474 16.9377C14.5226 16.9377 14.0771 16.7119 13.7109 16.2603C13.357 15.8087 13.18 15.0886 13.18 14.1C13.18 13.1114 13.4546 12.2387 14.0038 11.482C14.5653 10.7253 15.2976 10.3469 16.2008 10.3469C16.3838 10.3469 16.6035 10.4263 16.8598 10.5849C17.1161 10.7314 17.3419 10.9145 17.5372 11.1342C17.5738 11.0121 17.7508 10.8229 18.0681 10.5666C18.3855 10.2981 18.6296 10.1638 18.8004 10.1638C18.9835 10.1638 19.0751 10.4263 19.0751 10.9511C19.0751 11.4759 18.9652 11.9397 18.7455 12.3425C18.6235 13.1602 18.5563 13.9169 18.5441 14.6126C19.7402 13.0992 20.3749 12.2997 20.4481 12.2143C20.5336 12.1289 20.6068 12.0862 20.6678 12.0862C20.7899 12.0862 20.8509 12.1472 20.8509 12.2692C20.8509 12.3425 20.8265 12.4218 20.7777 12.5072C20.3871 13.0809 19.6182 14.0878 18.4709 15.528C18.3977 16.9804 18.3489 17.969 18.3244 18.4938C18.2634 20.0439 18.0437 21.1302 17.6654 21.7526C17.2992 22.3873 16.6401 22.7046 15.6881 22.7046C15.2732 22.7046 14.8826 22.5765 14.5164 22.3202C14.1625 22.0761 13.9855 21.6428 13.9855 21.0203C13.9855 20.4101 14.2174 19.7815 14.6812 19.1346C15.1572 18.4877 16.0177 17.493 17.2626 16.1505L17.3724 14.0451ZM16.0909 11.006C15.7492 11.006 15.383 11.2745 14.9924 11.8115C14.6141 12.3364 14.4249 12.9466 14.4249 13.6423C14.4249 14.3258 14.5226 14.8872 14.7178 15.3266C14.9253 15.7538 15.1816 15.9674 15.4868 15.9674C15.7919 15.9674 16.0848 15.7172 16.3655 15.2168C16.6462 14.7164 17.0063 13.8559 17.4457 12.6354C17.4701 12.2204 17.4823 11.958 17.4823 11.8482C17.3847 11.6651 17.1833 11.482 16.8781 11.2989C16.573 11.1036 16.3106 11.006 16.0909 11.006ZM17.2077 17.0109C15.8163 18.5122 15.1206 19.7144 15.1206 20.6175C15.1206 21.0325 15.1938 21.3743 15.3403 21.6428C15.4868 21.9113 15.6881 22.0455 15.9444 22.0455C16.335 22.0455 16.6096 21.8319 16.7683 21.4048C16.927 20.9776 17.0429 20.111 17.1161 18.8051L17.2077 17.0109Z" fill="#888888"/>
</svg>
