<svg width="24" height="24" viewBox="0 0 24 24" fill="none" xmlns="http://www.w3.org/2000/svg">
<g clip-path="url(#clip0_201_1742)">
<path d="M4.00195 13.6182H6.1416L5.08887 9.63965L4.00195 13.6182ZM2.23828 18C1.90104 18 1.60482 17.9567 1.34961 17.8701C1.0944 17.7835 0.880208 17.6673 0.707031 17.5215C0.538411 17.3711 0.410807 17.2002 0.324219 17.0088C0.23763 16.8128 0.194336 16.6055 0.194336 16.3867C0.194336 16.2773 0.219401 16.1999 0.269531 16.1543C0.319661 16.1042 0.385742 16.0654 0.467773 16.0381C0.549805 16.0107 0.640951 15.9857 0.741211 15.9629C0.846029 15.9401 0.950846 15.8991 1.05566 15.8398C1.16048 15.7806 1.26074 15.6963 1.35645 15.5869C1.45215 15.473 1.53418 15.3112 1.60254 15.1016L3.28418 9.97461C3.31608 9.87891 3.33887 9.7946 3.35254 9.72168C3.37077 9.64876 3.37988 9.58496 3.37988 9.53027C3.37988 9.389 3.34115 9.29329 3.26367 9.24316C3.1862 9.19303 3.09961 9.1543 3.00391 9.12695C2.91276 9.09961 2.82845 9.06771 2.75098 9.03125C2.6735 8.99023 2.63477 8.91048 2.63477 8.79199C2.63477 8.76009 2.63704 8.73503 2.6416 8.7168C2.68717 8.40234 2.8125 8.14258 3.01758 7.9375C3.22266 7.72786 3.49382 7.5638 3.83105 7.44531C4.17285 7.32227 4.57389 7.23568 5.03418 7.18555C5.49447 7.13542 6.0026 7.11035 6.55859 7.11035C7.02799 7.11035 7.47689 7.12858 7.90527 7.16504C8.33822 7.19694 8.72786 7.26986 9.07422 7.38379C9.42057 7.49772 9.70996 7.65951 9.94238 7.86914C10.1748 8.07878 10.3275 8.36133 10.4004 8.7168C10.4095 8.76237 10.4141 8.79427 10.4141 8.8125C10.4141 8.88997 10.3913 8.94922 10.3457 8.99023C10.3047 9.02669 10.2523 9.05632 10.1885 9.0791C10.1247 9.10189 10.0563 9.1224 9.9834 9.14062C9.91048 9.1543 9.84212 9.17708 9.77832 9.20898C9.71452 9.24089 9.65983 9.28874 9.61426 9.35254C9.57324 9.41178 9.55273 9.49609 9.55273 9.60547C9.55273 9.70117 9.57324 9.82422 9.61426 9.97461L11.125 15.1016C11.1842 15.3066 11.2594 15.4661 11.3506 15.5801C11.4417 15.694 11.5374 15.7806 11.6377 15.8398C11.7425 15.8991 11.8451 15.9401 11.9453 15.9629C12.0501 15.9857 12.1436 16.0107 12.2256 16.0381C12.3076 16.0654 12.3737 16.1042 12.4238 16.1543C12.474 16.1999 12.499 16.2773 12.499 16.3867C12.499 16.9564 12.2051 17.3688 11.6172 17.624C11.0293 17.8747 10.1794 18 9.06738 18C8.52962 18 8.05111 17.9704 7.63184 17.9111C7.21712 17.8473 6.86621 17.7516 6.5791 17.624C6.29199 17.4919 6.07324 17.3232 5.92285 17.1182C5.77702 16.9131 5.7041 16.6693 5.7041 16.3867C5.7041 16.291 5.72461 16.2204 5.76562 16.1748C5.8112 16.1247 5.86589 16.0882 5.92969 16.0654C5.99349 16.0381 6.06413 16.0153 6.1416 15.9971C6.21908 15.9788 6.28971 15.9538 6.35352 15.9219C6.41732 15.8854 6.46973 15.8353 6.51074 15.7715C6.55632 15.7031 6.5791 15.6074 6.5791 15.4844C6.5791 15.3796 6.56315 15.2611 6.53125 15.1289L6.42188 14.6572H3.64648L3.48242 15.1289C3.42318 15.3021 3.39355 15.4434 3.39355 15.5527C3.39355 15.6576 3.41406 15.7396 3.45508 15.7988C3.50065 15.8535 3.55534 15.8968 3.61914 15.9287C3.68294 15.9561 3.75358 15.9788 3.83105 15.9971C3.90853 16.0153 3.97917 16.0381 4.04297 16.0654C4.10677 16.0882 4.15918 16.1247 4.2002 16.1748C4.24577 16.2249 4.26855 16.2956 4.26855 16.3867C4.26855 16.6055 4.22526 16.8128 4.13867 17.0088C4.05208 17.2002 3.9222 17.3711 3.74902 17.5215C3.5804 17.6673 3.36849 17.7835 3.11328 17.8701C2.86263 17.9567 2.57096 18 2.23828 18ZM18.2822 8.94238C18.8063 8.94238 19.2734 8.99479 19.6836 9.09961C20.0938 9.20443 20.4492 9.35254 20.75 9.54395C20.8776 9.46191 21.0189 9.38444 21.1738 9.31152C21.3333 9.23861 21.4974 9.1748 21.666 9.12012C21.8392 9.06543 22.0146 9.02214 22.1924 8.99023C22.3701 8.95833 22.5433 8.94238 22.7119 8.94238C22.8988 8.94238 23.0742 8.96517 23.2383 9.01074C23.4069 9.05176 23.5527 9.12012 23.6758 9.21582C23.7988 9.30697 23.8968 9.42773 23.9697 9.57812C24.0426 9.72852 24.0791 9.91309 24.0791 10.1318C24.0791 10.2731 24.054 10.4121 24.0039 10.5488C23.9583 10.681 23.8877 10.8018 23.792 10.9111C23.6963 11.016 23.5755 11.1025 23.4297 11.1709C23.2884 11.2347 23.1221 11.2666 22.9307 11.2666C22.7393 11.2666 22.5889 11.2393 22.4795 11.1846C22.3747 11.1299 22.2926 11.0615 22.2334 10.9795C22.1742 10.8975 22.1309 10.8086 22.1035 10.7129C22.0762 10.6172 22.0465 10.5283 22.0146 10.4463C21.9827 10.3643 21.9417 10.2959 21.8916 10.2412C21.846 10.1865 21.7731 10.1592 21.6729 10.1592C21.6501 10.1592 21.625 10.1615 21.5977 10.166C21.5703 10.1706 21.5384 10.1774 21.502 10.1865C21.707 10.4281 21.8597 10.6878 21.96 10.9658C22.0602 11.2438 22.1104 11.5264 22.1104 11.8135C22.1104 12.2236 22.0146 12.6292 21.8232 13.0303C21.6364 13.4268 21.3561 13.7845 20.9824 14.1035C20.6133 14.4225 20.153 14.68 19.6016 14.876C19.0547 15.0719 18.4235 15.1699 17.708 15.1699C17.3434 15.1699 16.9811 15.1426 16.6211 15.0879V15.2588C16.6211 15.3727 16.71 15.457 16.8877 15.5117C17.07 15.5618 17.307 15.6029 17.5986 15.6348C17.8903 15.6667 18.223 15.6986 18.5967 15.7305C18.9749 15.7578 19.3577 15.8034 19.7451 15.8672C20.137 15.931 20.5199 16.0244 20.8936 16.1475C21.2718 16.2705 21.6068 16.4414 21.8984 16.6602C22.1901 16.8743 22.4248 17.1478 22.6025 17.4805C22.7848 17.8132 22.876 18.2233 22.876 18.7109C22.876 19.1074 22.8167 19.4652 22.6982 19.7842C22.5798 20.1032 22.4157 20.388 22.2061 20.6387C21.9964 20.8893 21.748 21.1058 21.4609 21.2881C21.1738 21.4704 20.8617 21.6208 20.5244 21.7393C20.1872 21.8577 19.8294 21.9443 19.4512 21.999C19.0775 22.0583 18.6992 22.0879 18.3164 22.0879C17.9108 22.0879 17.5075 22.0674 17.1064 22.0264C16.7054 21.9899 16.3226 21.9238 15.958 21.8281C15.5934 21.737 15.2539 21.6162 14.9395 21.4658C14.6296 21.32 14.3584 21.1354 14.126 20.9121C13.8981 20.6934 13.7181 20.4336 13.5859 20.1328C13.4538 19.8366 13.3877 19.4948 13.3877 19.1074C13.3877 18.8522 13.4287 18.6335 13.5107 18.4512C13.5928 18.2734 13.6999 18.1276 13.832 18.0137C13.5996 17.8451 13.415 17.6354 13.2783 17.3848C13.1462 17.1296 13.0801 16.8174 13.0801 16.4482C13.0801 16.1976 13.1234 15.972 13.21 15.7715C13.2965 15.571 13.4196 15.3932 13.5791 15.2383C13.7386 15.0833 13.93 14.9512 14.1533 14.8418C14.3812 14.7279 14.6341 14.6322 14.9121 14.5547C14.6569 14.4271 14.4245 14.2767 14.2148 14.1035C14.0098 13.9303 13.832 13.7367 13.6816 13.5225C13.5358 13.3083 13.4219 13.0736 13.3398 12.8184C13.2578 12.5586 13.2168 12.2783 13.2168 11.9775C13.2168 11.5993 13.3193 11.2301 13.5244 10.8701C13.7295 10.5055 14.0394 10.182 14.4541 9.89941C14.8734 9.6123 15.3997 9.38216 16.0332 9.20898C16.6712 9.03125 17.4209 8.94238 18.2822 8.94238ZM19.4307 19.2988C19.4307 19.1803 19.376 19.0869 19.2666 19.0186C19.1618 18.9502 19.016 18.8978 18.8291 18.8613C18.6468 18.8249 18.4303 18.7998 18.1797 18.7861C17.9336 18.7725 17.667 18.7588 17.3799 18.7451C17.0973 18.736 16.8034 18.7223 16.498 18.7041C16.1973 18.6859 15.901 18.6562 15.6094 18.6152C15.6139 18.7337 15.6185 18.8522 15.623 18.9707C15.6276 19.0938 15.6504 19.2122 15.6914 19.3262C15.7324 19.4447 15.7962 19.554 15.8828 19.6543C15.974 19.7546 16.1038 19.8434 16.2725 19.9209C16.4456 19.9984 16.6621 20.0576 16.9219 20.0986C17.1862 20.1442 17.5143 20.167 17.9062 20.167C18.2435 20.167 18.5124 20.1396 18.7129 20.085C18.9134 20.0303 19.0661 19.9596 19.1709 19.873C19.2803 19.7865 19.3509 19.6908 19.3828 19.5859C19.4147 19.4857 19.4307 19.39 19.4307 19.2988ZM17.8516 10.6924C17.6875 10.6924 17.5462 10.722 17.4277 10.7812C17.3138 10.8359 17.2204 10.9111 17.1475 11.0068C17.0791 11.1025 17.0267 11.2142 16.9902 11.3418C16.9583 11.4694 16.9424 11.6038 16.9424 11.7451C16.9424 11.9274 16.9674 12.112 17.0176 12.2988C17.0677 12.4811 17.1361 12.6475 17.2227 12.7979C17.3138 12.9482 17.4186 13.0713 17.5371 13.167C17.6602 13.2627 17.7923 13.3105 17.9336 13.3105C18.0885 13.3105 18.2253 13.2764 18.3438 13.208C18.4622 13.1351 18.5602 13.0417 18.6377 12.9277C18.7152 12.8092 18.7721 12.6771 18.8086 12.5312C18.8496 12.3809 18.8701 12.2259 18.8701 12.0664C18.8701 11.8978 18.8473 11.7314 18.8018 11.5674C18.7607 11.4033 18.6969 11.2575 18.6104 11.1299C18.5238 10.9977 18.4167 10.8929 18.2891 10.8154C18.166 10.7334 18.0202 10.6924 17.8516 10.6924Z" fill="#333333"/>
</g>
<defs>
<clipPath id="clip0_201_1742">
<rect width="24" height="24" fill="white"/>
</clipPath>
</defs>
</svg>
