<svg width="24" height="24" viewBox="0 0 24 24" fill="none" xmlns="http://www.w3.org/2000/svg">
<path d="M12.3228 15.832C12.3601 15.832 12.3788 15.86 12.3788 15.916C12.3788 15.972 12.3601 16 12.3228 16C12.1828 16 11.9541 15.9907 11.6368 15.972C11.3008 15.9533 11.0254 15.944 10.8108 15.944C10.6054 15.944 10.3441 15.9533 10.0268 15.972C9.72811 15.9907 9.50877 16 9.36877 16C9.33144 16 9.31277 15.972 9.31277 15.916C9.31277 15.86 9.33144 15.832 9.36877 15.832C9.66744 15.832 9.88211 15.79 10.0128 15.706C10.1434 15.622 10.2088 15.4727 10.2088 15.258C10.2088 15.1927 10.1901 15.048 10.1528 14.824L9.56477 11.702H7.52077L6.16277 14.18C5.90144 14.6373 5.77077 14.992 5.77077 15.244C5.77077 15.4587 5.85477 15.6127 6.02277 15.706C6.19077 15.79 6.44744 15.832 6.79277 15.832C6.83011 15.832 6.84411 15.86 6.83477 15.916C6.83477 15.972 6.81611 16 6.77877 16C6.65744 16 6.42877 15.9907 6.09277 15.972C5.68211 15.9533 5.36944 15.944 5.15477 15.944C4.95877 15.944 4.73011 15.9533 4.46877 15.972C4.20744 15.9907 4.00677 16 3.86677 16C3.82944 16 3.81077 15.972 3.81077 15.916C3.81077 15.86 3.82944 15.832 3.86677 15.832C4.12811 15.832 4.42677 15.692 4.76277 15.412C5.10811 15.132 5.43944 14.712 5.75677 14.152L9.69077 7.124C9.70944 7.096 9.74677 7.082 9.80277 7.082C9.83077 7.082 9.85877 7.08667 9.88677 7.096C9.91477 7.10533 9.93344 7.11933 9.94277 7.138L11.3708 14.824C11.4268 15.1227 11.4781 15.3373 11.5248 15.468C11.5714 15.5893 11.6508 15.6827 11.7628 15.748C11.8841 15.804 12.0708 15.832 12.3228 15.832ZM7.71677 11.352H9.50877L9.04677 8.93L7.71677 11.352ZM18.2243 10.302C18.243 10.2833 18.2617 10.274 18.2803 10.274C18.3083 10.274 18.3363 10.2833 18.3643 10.302C18.3923 10.3113 18.4017 10.3207 18.3923 10.33L17.2583 16.602C17.0623 17.666 16.6843 18.4873 16.1243 19.066C15.5643 19.6447 14.869 19.934 14.0383 19.934C13.5623 19.934 13.175 19.8407 12.8763 19.654C12.5777 19.4673 12.4283 19.2247 12.4283 18.926C12.4283 18.702 12.4937 18.534 12.6243 18.422C12.7457 18.31 12.895 18.254 13.0723 18.254C13.2403 18.254 13.357 18.3007 13.4223 18.394C13.497 18.4967 13.567 18.6507 13.6323 18.856C13.707 19.108 13.8003 19.2993 13.9123 19.43C14.0243 19.57 14.225 19.64 14.5143 19.64C14.869 19.64 15.1817 19.4487 15.4523 19.066C15.723 18.6833 15.9563 17.9693 16.1523 16.924L16.7263 13.634C16.353 14.418 15.9097 15.0387 15.3963 15.496C14.8923 15.9533 14.4023 16.182 13.9263 16.182C13.637 16.182 13.413 16.098 13.2543 15.93C13.0957 15.7527 13.0163 15.4867 13.0163 15.132C13.0163 14.488 13.217 13.7973 13.6183 13.06C14.029 12.3133 14.533 11.688 15.1303 11.184C15.737 10.6707 16.311 10.414 16.8523 10.414C17.0297 10.414 17.2023 10.4467 17.3703 10.512C17.5477 10.568 17.697 10.6567 17.8183 10.778C18.005 10.6193 18.1403 10.4607 18.2243 10.302ZM14.6963 15.272C15.0323 15.272 15.3777 15.0807 15.7323 14.698C16.0963 14.3153 16.3997 13.858 16.6423 13.326C16.885 12.794 17.0063 12.3367 17.0063 11.954C17.0063 11.6647 16.9363 11.4407 16.7963 11.282C16.6563 11.114 16.4557 11.03 16.1943 11.03C15.8957 11.03 15.6063 11.1513 15.3263 11.394C15.0463 11.6273 14.8037 11.954 14.5983 12.374C14.4023 12.7847 14.2623 13.2467 14.1783 13.76C14.141 13.984 14.1223 14.1987 14.1223 14.404C14.1223 14.9827 14.3137 15.272 14.6963 15.272Z" fill="#333333"/>
</svg>
