<svg width="24" height="24" viewBox="0 0 24 24" fill="none" xmlns="http://www.w3.org/2000/svg">
<path d="M12.3146 15.832C12.352 15.832 12.3706 15.86 12.3706 15.916C12.3706 15.972 12.352 16 12.3146 16C12.1746 16 11.9553 15.9907 11.6566 15.972C11.3206 15.9533 11.0546 15.944 10.8586 15.944C10.6533 15.944 10.4013 15.9533 10.1026 15.972C9.80396 15.9907 9.58929 16 9.45863 16C9.43063 16 9.41663 15.972 9.41663 15.916C9.41663 15.86 9.43063 15.832 9.45863 15.832C9.78529 15.832 10.014 15.79 10.1446 15.706C10.2753 15.622 10.3406 15.468 10.3406 15.244C10.3406 15.1133 10.3266 14.9733 10.2986 14.824L9.73863 11.534H7.63863L6.19663 14.166C5.92596 14.6513 5.79063 15.0247 5.79063 15.286C5.79063 15.4913 5.86996 15.636 6.02863 15.72C6.18729 15.7947 6.42996 15.832 6.75663 15.832C6.79396 15.832 6.80796 15.86 6.79863 15.916C6.79863 15.972 6.77996 16 6.74263 16C6.63063 16 6.40663 15.9907 6.07063 15.972C5.69729 15.9533 5.40796 15.944 5.20263 15.944C5.00663 15.944 4.77796 15.9533 4.51663 15.972C4.25529 15.9907 4.05462 16 3.91462 16C3.87729 16 3.85862 15.972 3.85862 15.916C3.85862 15.86 3.87729 15.832 3.91462 15.832C4.18529 15.832 4.47929 15.706 4.79663 15.454C5.12329 15.1927 5.44529 14.782 5.76263 14.222L9.73863 7.11C9.75729 7.082 9.78996 7.068 9.83663 7.068C9.92063 7.068 9.97196 7.09133 9.99063 7.138L11.3206 14.824C11.3673 15.1133 11.414 15.3233 11.4606 15.454C11.5166 15.5847 11.6053 15.6827 11.7266 15.748C11.8573 15.804 12.0533 15.832 12.3146 15.832ZM7.82063 11.212H9.68263L9.23463 8.622L7.82063 11.212ZM18.1465 10.302C18.1652 10.2833 18.1838 10.274 18.2025 10.274C18.2305 10.274 18.2585 10.2833 18.2865 10.302C18.3145 10.3113 18.3238 10.3207 18.3145 10.33L17.1525 16.742C16.9752 17.7687 16.6158 18.5573 16.0745 19.108C15.5425 19.6587 14.8658 19.934 14.0445 19.934C13.5965 19.934 13.2278 19.8407 12.9385 19.654C12.6585 19.4767 12.5185 19.2433 12.5185 18.954C12.5185 18.758 12.5745 18.6087 12.6865 18.506C12.7985 18.4033 12.9245 18.352 13.0645 18.352C13.2045 18.352 13.3072 18.3893 13.3725 18.464C13.4378 18.548 13.5078 18.6833 13.5825 18.87C13.6852 19.1127 13.7972 19.2993 13.9185 19.43C14.0492 19.5607 14.2638 19.626 14.5625 19.626C14.9265 19.626 15.2485 19.444 15.5285 19.08C15.8178 18.716 16.0512 18.0487 16.2285 17.078L16.8585 13.424C16.4572 14.2733 15.9952 14.9453 15.4725 15.44C14.9498 15.9347 14.4412 16.182 13.9465 16.182C13.6665 16.182 13.4472 16.098 13.2885 15.93C13.1392 15.7527 13.0645 15.4867 13.0645 15.132C13.0645 15.048 13.0738 14.9127 13.0925 14.726C13.1858 14.082 13.4332 13.424 13.8345 12.752C14.2452 12.0707 14.7258 11.5107 15.2765 11.072C15.8272 10.6333 16.3452 10.414 16.8305 10.414C17.2225 10.414 17.5398 10.54 17.7825 10.792C17.9598 10.6427 18.0812 10.4793 18.1465 10.302ZM14.5765 15.384C14.8938 15.384 15.2252 15.2207 15.5705 14.894C15.9252 14.5673 16.2378 14.1567 16.5085 13.662C16.7885 13.1673 16.9752 12.6913 17.0685 12.234C17.0965 12.1033 17.1105 11.9773 17.1105 11.856C17.1105 11.5853 17.0405 11.3707 16.9005 11.212C16.7605 11.0533 16.5598 10.974 16.2985 10.974C15.9812 10.974 15.6638 11.1047 15.3465 11.366C15.0292 11.618 14.7538 11.968 14.5205 12.416C14.2872 12.864 14.1285 13.368 14.0445 13.928C14.0072 14.2267 13.9885 14.4227 13.9885 14.516C13.9885 15.0947 14.1845 15.384 14.5765 15.384Z" fill="#333333"/>
</svg>
