<svg width="24" height="24" viewBox="0 0 24 24" fill="none" xmlns="http://www.w3.org/2000/svg">
<path d="M13.0744 15.832C13.1117 15.832 13.1304 15.86 13.1304 15.916C13.1304 15.972 13.1117 16 13.0744 16C12.9064 16 12.6357 15.9907 12.2624 15.972C11.9077 15.9533 11.6464 15.944 11.4784 15.944C11.2824 15.944 11.0257 15.9533 10.7084 15.972C10.4097 15.9907 10.1857 16 10.0364 16C9.99907 16 9.9804 15.972 9.9804 15.916C9.9804 15.86 9.99907 15.832 10.0364 15.832C10.4191 15.832 10.6944 15.7993 10.8624 15.734C11.0304 15.6593 11.1144 15.538 11.1144 15.37C11.1144 15.2393 11.0631 15.0573 10.9604 14.824L9.2944 11.254H6.6204L5.3604 14.278C5.22973 14.5953 5.1644 14.8567 5.1644 15.062C5.1644 15.3327 5.2764 15.5287 5.5004 15.65C5.7244 15.7713 6.0744 15.832 6.5504 15.832C6.59707 15.832 6.6204 15.86 6.6204 15.916C6.6204 15.972 6.59707 16 6.5504 16C6.3824 16 6.13973 15.9907 5.8224 15.972C5.46773 15.9533 5.15973 15.944 4.8984 15.944C4.66507 15.944 4.38973 15.9533 4.0724 15.972C3.7924 15.9907 3.56373 16 3.3864 16C3.33973 16 3.3164 15.972 3.3164 15.916C3.3164 15.86 3.33973 15.832 3.3864 15.832C3.64773 15.832 3.86707 15.7853 4.0444 15.692C4.23107 15.5987 4.40373 15.4307 4.5624 15.188C4.7304 14.9453 4.90773 14.6 5.0944 14.152L8.0204 7.11C8.03907 7.082 8.06707 7.068 8.1044 7.068C8.15107 7.068 8.17907 7.082 8.1884 7.11L11.4364 14.082C11.6511 14.558 11.8424 14.922 12.0104 15.174C12.1784 15.4167 12.3417 15.5893 12.5004 15.692C12.6684 15.7853 12.8597 15.832 13.0744 15.832ZM6.7324 10.988H9.1824L7.8804 8.216L6.7324 10.988ZM18.4398 10.484C18.4491 10.4747 18.4725 10.4747 18.5098 10.484C18.5471 10.484 18.5658 10.4933 18.5658 10.512V16.98C18.5658 17.876 18.3231 18.59 17.8378 19.122C17.3525 19.6633 16.6805 19.934 15.8218 19.934C15.2711 19.934 14.8231 19.8313 14.4778 19.626C14.1418 19.4207 13.9738 19.1733 13.9738 18.884C13.9738 18.7533 14.0065 18.6553 14.0718 18.59C14.1465 18.5247 14.2305 18.492 14.3238 18.492C14.4265 18.492 14.5151 18.52 14.5898 18.576C14.6645 18.6413 14.7485 18.7393 14.8418 18.87C15.0378 19.1127 15.2385 19.2993 15.4438 19.43C15.6491 19.57 15.9478 19.64 16.3398 19.64C16.8251 19.64 17.2078 19.4767 17.4878 19.15C17.7771 18.8233 17.9218 18.212 17.9218 17.316V14.894C17.5858 15.2673 17.2311 15.566 16.8578 15.79C16.4938 16.014 16.0925 16.126 15.6538 16.126C15.0845 16.126 14.6085 15.9207 14.2258 15.51C13.8431 15.09 13.6518 14.5067 13.6518 13.76C13.6518 13.088 13.8105 12.5 14.1278 11.996C14.4451 11.4827 14.8418 11.0907 15.3178 10.82C15.8031 10.5493 16.2745 10.414 16.7318 10.414C16.9838 10.414 17.2265 10.456 17.4598 10.54C17.7025 10.6147 17.9171 10.7173 18.1038 10.848C18.2531 10.764 18.3651 10.6427 18.4398 10.484ZM16.0598 15.734C16.6478 15.734 17.2685 15.3793 17.9218 14.67V11.87C17.9218 11.534 17.7631 11.254 17.4458 11.03C17.1285 10.7967 16.7738 10.68 16.3818 10.68C15.8125 10.68 15.3458 10.932 14.9818 11.436C14.6271 11.9307 14.4498 12.5747 14.4498 13.368C14.4498 14.068 14.5945 14.6373 14.8838 15.076C15.1731 15.5147 15.5651 15.734 16.0598 15.734Z" fill="#888888"/>
</svg>
