<svg width="24" height="24" viewBox="0 0 24 24" fill="none" xmlns="http://www.w3.org/2000/svg">
<path d="M12.9745 15.832C13.0118 15.832 13.0305 15.86 13.0305 15.916C13.0305 15.972 13.0118 16 12.9745 16C12.7971 16 12.5218 15.9907 12.1485 15.972C11.7751 15.9533 11.5045 15.944 11.3365 15.944C11.1311 15.944 10.8698 15.9533 10.5525 15.972C10.2538 15.9907 10.0251 16 9.86648 16C9.82914 16 9.81048 15.972 9.81048 15.916C9.81048 15.86 9.82914 15.832 9.86648 15.832C10.2118 15.832 10.4638 15.7993 10.6225 15.734C10.7811 15.6687 10.8605 15.5567 10.8605 15.398C10.8605 15.2673 10.7998 15.0667 10.6785 14.796L9.06848 11.366H6.42248L5.21848 14.222C5.08781 14.5393 5.02248 14.8007 5.02248 15.006C5.02248 15.5567 5.47981 15.832 6.39448 15.832C6.44114 15.832 6.46448 15.86 6.46448 15.916C6.46448 15.972 6.44114 16 6.39448 16C6.22648 16 5.98381 15.9907 5.66648 15.972C5.31181 15.9533 5.00381 15.944 4.74248 15.944C4.49981 15.944 4.21981 15.9533 3.90248 15.972C3.62248 15.9907 3.38914 16 3.20248 16C3.15581 16 3.13248 15.972 3.13248 15.916C3.13248 15.86 3.15581 15.832 3.20248 15.832C3.46381 15.832 3.68314 15.7853 3.86048 15.692C4.04714 15.5893 4.21981 15.4167 4.37848 15.174C4.54648 14.922 4.72848 14.5627 4.92448 14.096L7.87848 7.124C7.89714 7.096 7.92981 7.082 7.97648 7.082C8.02314 7.082 8.05114 7.096 8.06048 7.124L11.3645 14.082C11.6818 14.7727 11.9525 15.2393 12.1765 15.482C12.4005 15.7153 12.6665 15.832 12.9745 15.832ZM6.54848 11.072H8.92848L7.66848 8.412L6.54848 11.072ZM17.1766 16.168C16.4299 16.168 15.7766 16.014 15.2166 15.706C14.6659 15.3887 14.2459 14.9733 13.9566 14.46C13.6672 13.9467 13.5226 13.4053 13.5226 12.836C13.5226 12.108 13.6859 11.478 14.0126 10.946C14.3392 10.4047 14.8059 9.994 15.4126 9.714C16.0192 9.42467 16.7332 9.28 17.5546 9.28C17.9466 9.28 18.3199 9.31733 18.6746 9.392C19.0292 9.46667 19.3279 9.574 19.5706 9.714C19.6266 9.742 19.6592 9.77933 19.6686 9.826C19.6872 9.87267 19.7012 9.938 19.7106 10.022L19.8506 11.338C19.8506 11.366 19.8226 11.3847 19.7666 11.394C19.7199 11.394 19.6919 11.38 19.6826 11.352C19.4772 10.708 19.1692 10.2367 18.7586 9.938C18.3479 9.63933 17.8346 9.49 17.2186 9.49C16.3972 9.49 15.7392 9.77467 15.2446 10.344C14.7592 10.904 14.5166 11.674 14.5166 12.654C14.5166 13.298 14.6379 13.872 14.8806 14.376C15.1232 14.8707 15.4686 15.258 15.9166 15.538C16.3739 15.818 16.9059 15.958 17.5126 15.958C17.9792 15.958 18.3199 15.916 18.5346 15.832C18.7586 15.748 18.9079 15.5893 18.9826 15.356C19.0572 15.1133 19.0946 14.74 19.0946 14.236C19.0946 13.9933 19.0666 13.8253 19.0106 13.732C18.9639 13.6293 18.8566 13.564 18.6886 13.536C18.5299 13.4987 18.2499 13.48 17.8486 13.48C17.7926 13.48 17.7646 13.4427 17.7646 13.368C17.7646 13.34 17.7692 13.3167 17.7786 13.298C17.7972 13.27 17.8159 13.256 17.8346 13.256C18.3199 13.2933 18.8099 13.312 19.3046 13.312C19.5286 13.312 19.9019 13.3027 20.4246 13.284C20.4432 13.284 20.4572 13.298 20.4666 13.326C20.4852 13.3447 20.4946 13.3633 20.4946 13.382C20.4946 13.4473 20.4712 13.48 20.4246 13.48C20.2379 13.4707 20.1072 13.4847 20.0326 13.522C19.9579 13.5593 19.9112 13.6387 19.8926 13.76C19.8739 13.872 19.8646 14.0773 19.8646 14.376C19.8646 14.796 19.8739 15.09 19.8926 15.258C19.9112 15.426 19.9206 15.5427 19.9206 15.608C19.9206 15.664 19.9112 15.7013 19.8926 15.72C19.8832 15.7293 19.8412 15.748 19.7666 15.776C19.1506 16.0373 18.2872 16.168 17.1766 16.168Z" fill="#333333"/>
</svg>
