<svg width="24" height="24" viewBox="0 0 24 24" fill="none" xmlns="http://www.w3.org/2000/svg">
<path d="M13.3205 15.832C13.3578 15.832 13.3765 15.86 13.3765 15.916C13.3765 15.972 13.3578 16 13.3205 16C13.1805 16 12.9705 15.9907 12.6905 15.972C12.3545 15.9533 12.0931 15.944 11.9065 15.944C11.7105 15.944 11.4631 15.9533 11.1645 15.972C10.8845 15.9907 10.6791 16 10.5485 16C10.5205 16 10.5065 15.972 10.5065 15.916C10.5065 15.86 10.5205 15.832 10.5485 15.832C10.8938 15.832 11.1318 15.79 11.2625 15.706C11.4025 15.6127 11.4725 15.4493 11.4725 15.216C11.4725 15.0573 11.4631 14.9267 11.4445 14.824L10.8845 11.38H8.77048L7.24448 14.152C6.95514 14.6933 6.81048 15.0853 6.81048 15.328C6.81048 15.524 6.88514 15.6593 7.03448 15.734C7.18381 15.7993 7.41248 15.832 7.72048 15.832C7.75781 15.832 7.77181 15.86 7.76248 15.916C7.76248 15.972 7.74381 16 7.70648 16C7.60381 16 7.39381 15.9907 7.07648 15.972C6.72181 15.9533 6.44648 15.944 6.25048 15.944C6.05448 15.944 5.82581 15.9533 5.56448 15.972C5.30314 15.9907 5.10248 16 4.96248 16C4.92514 16 4.90648 15.972 4.90648 15.916C4.90648 15.86 4.92514 15.832 4.96248 15.832C5.23314 15.832 5.52248 15.7153 5.83048 15.482C6.13848 15.2393 6.45581 14.838 6.78248 14.278L10.7865 7.11C10.8051 7.082 10.8378 7.068 10.8845 7.068C10.9685 7.068 11.0198 7.09133 11.0385 7.138L12.2705 14.824C12.3171 15.1133 12.3685 15.3233 12.4245 15.454C12.4805 15.5847 12.5738 15.6827 12.7045 15.748C12.8445 15.804 13.0498 15.832 13.3205 15.832ZM8.92448 11.086H10.8425L10.4085 8.384L8.92448 11.086ZM19.069 10.302C19.0783 10.274 19.111 10.2647 19.167 10.274C19.223 10.2833 19.2463 10.2973 19.237 10.316L18.047 16.868C17.8697 17.8667 17.5243 18.6273 17.011 19.15C16.507 19.6727 15.849 19.934 15.037 19.934C14.6077 19.934 14.2577 19.8407 13.987 19.654C13.7163 19.4767 13.581 19.2527 13.581 18.982C13.581 18.9167 13.5857 18.87 13.595 18.842C13.6323 18.5807 13.7863 18.45 14.057 18.45C14.1783 18.45 14.267 18.4827 14.323 18.548C14.379 18.6133 14.4443 18.7253 14.519 18.884C14.6123 19.1173 14.729 19.2993 14.869 19.43C15.0183 19.5607 15.2563 19.626 15.583 19.626C15.9657 19.626 16.3017 19.4487 16.591 19.094C16.8803 18.7487 17.109 18.1187 17.277 17.204L17.963 13.298C17.5337 14.166 17.0483 14.866 16.507 15.398C15.975 15.9207 15.4617 16.182 14.967 16.182C14.3883 16.182 14.099 15.8367 14.099 15.146C14.099 15.0713 14.1083 14.9313 14.127 14.726C14.2203 14.0633 14.4677 13.396 14.869 12.724C15.2703 12.052 15.7417 11.5013 16.283 11.072C16.8243 10.6333 17.333 10.414 17.809 10.414C17.9863 10.414 18.159 10.4467 18.327 10.512C18.495 10.5773 18.6303 10.6753 18.733 10.806C18.901 10.666 19.013 10.498 19.069 10.302ZM15.471 15.496C15.807 15.496 16.1617 15.3233 16.535 14.978C16.9177 14.6327 17.2583 14.1987 17.557 13.676C17.8557 13.144 18.0563 12.626 18.159 12.122C18.187 12.0007 18.1963 11.8933 18.187 11.8C18.187 11.52 18.1123 11.3007 17.963 11.142C17.823 10.9833 17.6083 10.904 17.319 10.904C16.9923 10.9133 16.6563 11.0627 16.311 11.352C15.975 11.632 15.681 12.0147 15.429 12.5C15.177 12.976 15.009 13.508 14.925 14.096C14.897 14.3013 14.883 14.488 14.883 14.656C14.883 15.216 15.079 15.496 15.471 15.496Z" fill="#888888"/>
</svg>
