<svg width="24" height="24" viewBox="0 0 24 24" fill="none" xmlns="http://www.w3.org/2000/svg">
<path d="M13.0249 15.832C13.0622 15.832 13.0809 15.86 13.0809 15.916C13.0809 15.972 13.0622 16 13.0249 16C12.8849 16 12.6749 15.9907 12.3949 15.972C12.0776 15.9533 11.8256 15.944 11.6389 15.944C11.4616 15.944 11.2236 15.9533 10.9249 15.972C10.6449 15.9907 10.4396 16 10.3089 16C10.2809 16 10.2669 15.972 10.2669 15.916C10.2669 15.86 10.2809 15.832 10.3089 15.832C10.6822 15.832 10.9342 15.79 11.0649 15.706C11.2049 15.6127 11.2749 15.4447 11.2749 15.202C11.2749 15.1367 11.2656 15.0107 11.2469 14.824L10.8269 11.982H8.1529L6.9769 14.138C6.6689 14.6887 6.5149 15.0947 6.5149 15.356C6.5149 15.5427 6.5849 15.6687 6.7249 15.734C6.87423 15.7993 7.09357 15.832 7.3829 15.832C7.42023 15.832 7.43423 15.86 7.4249 15.916C7.4249 15.972 7.40623 16 7.3689 16C7.26623 16 7.06557 15.9907 6.7669 15.972C6.4309 15.9533 6.16957 15.944 5.9829 15.944C5.7869 15.944 5.55823 15.9533 5.2969 15.972C5.03557 15.9907 4.8349 16 4.6949 16C4.65757 16 4.6389 15.972 4.6389 15.916C4.6389 15.86 4.65757 15.832 4.6949 15.832C5.3109 15.832 5.90823 15.328 6.4869 14.32L10.5189 7.11C10.5376 7.082 10.5702 7.068 10.6169 7.068C10.7009 7.068 10.7522 7.09133 10.7709 7.138L11.9329 14.824C11.9702 15.104 12.0169 15.314 12.0729 15.454C12.1382 15.5847 12.2409 15.6827 12.3809 15.748C12.5209 15.804 12.7356 15.832 13.0249 15.832ZM8.2929 11.73H10.7849L10.2529 8.174L8.2929 11.73ZM18.8998 10.498C18.9464 10.498 18.9698 10.5493 18.9698 10.652C18.9698 10.7547 18.9464 10.862 18.8998 10.974C18.8624 11.086 18.8251 11.1327 18.7878 11.114C18.5918 11.03 18.3678 10.988 18.1158 10.988C18.0318 10.988 17.8964 10.9973 17.7098 11.016C17.9058 11.268 18.0038 11.5947 18.0038 11.996C18.0038 12.1547 17.9804 12.3413 17.9338 12.556C17.8498 12.9573 17.6911 13.3167 17.4578 13.634C17.2244 13.9513 16.9444 14.1987 16.6178 14.376C16.3004 14.544 15.9784 14.628 15.6518 14.628C15.5304 14.628 15.4138 14.614 15.3018 14.586C15.1524 14.7447 15.0731 14.9127 15.0638 15.09C15.0358 15.3327 15.1291 15.5427 15.3438 15.72C15.5584 15.8973 15.8898 16.098 16.3378 16.322C16.8604 16.5927 17.2571 16.84 17.5278 17.064C17.7984 17.2973 17.9338 17.5867 17.9338 17.932C17.9338 18.268 17.8031 18.59 17.5418 18.898C17.2804 19.206 16.9258 19.4533 16.4778 19.64C16.0298 19.836 15.5491 19.934 15.0358 19.934C14.3918 19.934 13.8831 19.794 13.5098 19.514C13.1364 19.2433 12.9498 18.9073 12.9498 18.506C12.9498 18.0953 13.1224 17.7313 13.4678 17.414C13.8038 17.106 14.3124 16.756 14.9938 16.364C14.6578 16.1213 14.4898 15.86 14.4898 15.58C14.4898 15.5147 14.4944 15.4633 14.5038 15.426C14.5411 15.2767 14.6064 15.132 14.6998 14.992C14.7931 14.852 14.9284 14.698 15.1058 14.53C14.8351 14.4273 14.6251 14.25 14.4758 13.998C14.3264 13.746 14.2518 13.452 14.2518 13.116C14.2518 12.9573 14.2751 12.7707 14.3218 12.556C14.4338 11.968 14.7091 11.4827 15.1478 11.1C15.5864 10.708 16.0811 10.512 16.6318 10.512C17.0051 10.512 17.3131 10.6193 17.5558 10.834C18.0318 10.61 18.4798 10.498 18.8998 10.498ZM17.3038 13.004C17.3318 12.836 17.3458 12.6587 17.3458 12.472C17.3458 12.0053 17.2524 11.604 17.0658 11.268C16.8884 10.9227 16.6271 10.75 16.2818 10.75C15.9831 10.75 15.7031 10.8853 15.4418 11.156C15.1898 11.4173 15.0311 11.744 14.9658 12.136C14.9284 12.2947 14.9098 12.4767 14.9098 12.682C14.9098 13.1393 15.0031 13.536 15.1898 13.872C15.3858 14.208 15.6564 14.376 16.0018 14.376C16.3004 14.376 16.5711 14.2547 16.8138 14.012C17.0564 13.76 17.2198 13.424 17.3038 13.004ZM17.3738 18.408C17.3738 18.0813 17.2431 17.806 16.9818 17.582C16.7204 17.3673 16.3424 17.1293 15.8478 16.868C15.5678 16.728 15.3298 16.5927 15.1338 16.462C14.7978 16.6487 14.5318 16.8073 14.3358 16.938C14.1398 17.078 13.9718 17.246 13.8318 17.442C13.6918 17.6473 13.6218 17.8807 13.6218 18.142C13.6218 18.5527 13.8131 18.8887 14.1958 19.15C14.5784 19.4207 15.0778 19.556 15.6938 19.556C16.2164 19.556 16.6271 19.4487 16.9258 19.234C17.2244 19.0193 17.3738 18.744 17.3738 18.408Z" fill="#888888"/>
</svg>
