<svg width="24" height="24" viewBox="0 0 24 24" fill="none" xmlns="http://www.w3.org/2000/svg">
<path d="M13.246 15.832C13.2927 15.832 13.316 15.86 13.316 15.916C13.316 15.972 13.2927 16 13.246 16C13.0593 16 12.77 15.9907 12.378 15.972C11.9673 15.9533 11.6733 15.944 11.496 15.944C11.2627 15.944 10.978 15.9533 10.642 15.972C10.3247 15.9907 10.0727 16 9.88601 16C9.84867 16 9.83001 15.972 9.83001 15.916C9.83001 15.86 9.84867 15.832 9.88601 15.832C10.1287 15.832 10.3013 15.8087 10.404 15.762C10.516 15.706 10.572 15.6127 10.572 15.482C10.572 15.3233 10.4787 15.0573 10.292 14.684L8.83601 11.814H6.34401L5.35001 14.012C5.22867 14.2827 5.16801 14.5347 5.16801 14.768C5.16801 15.104 5.28467 15.3653 5.51801 15.552C5.76067 15.7387 6.08267 15.832 6.48401 15.832C6.53067 15.832 6.55401 15.86 6.55401 15.916C6.55401 15.972 6.53067 16 6.48401 16C6.31601 16 6.07334 15.9907 5.75601 15.972C5.40134 15.9533 5.09334 15.944 4.83201 15.944C4.58001 15.944 4.27667 15.9533 3.92201 15.972C3.60467 15.9907 3.34801 16 3.15201 16C3.11467 16 3.09601 15.972 3.09601 15.916C3.09601 15.86 3.11467 15.832 3.15201 15.832C3.41334 15.832 3.63267 15.7807 3.81001 15.678C3.98734 15.566 4.16467 15.3747 4.34201 15.104C4.51934 14.824 4.72934 14.4133 4.97201 13.872L8.01001 7.194C8.02867 7.166 8.07067 7.152 8.13601 7.152C8.21067 7.152 8.25267 7.166 8.26201 7.194L11.762 14.082C12.0887 14.7447 12.3593 15.202 12.574 15.454C12.7887 15.706 13.0127 15.832 13.246 15.832ZM6.52601 11.422H8.64001L7.52001 9.21L6.52601 11.422ZM18.8855 10.428C18.8948 10.4187 18.9088 10.414 18.9275 10.414C18.9462 10.414 18.9648 10.4233 18.9835 10.442C19.0115 10.4513 19.0255 10.4653 19.0255 10.484V16.98C19.0255 17.8573 18.7642 18.5667 18.2415 19.108C17.7188 19.6587 16.9862 19.934 16.0435 19.934C15.4275 19.934 14.9235 19.8407 14.5315 19.654C14.1395 19.4767 13.9435 19.2153 13.9435 18.87C13.9435 18.6273 14.0135 18.4453 14.1535 18.324C14.2935 18.212 14.4615 18.156 14.6575 18.156C14.9188 18.156 15.1102 18.2167 15.2315 18.338C15.3622 18.4593 15.4882 18.6413 15.6095 18.884C15.7308 19.136 15.8568 19.3227 15.9875 19.444C16.1275 19.5747 16.3422 19.64 16.6315 19.64C16.9582 19.64 17.2195 19.472 17.4155 19.136C17.6115 18.8 17.7095 18.1933 17.7095 17.316V15.272C17.4015 15.552 17.0935 15.776 16.7855 15.944C16.4868 16.1027 16.1508 16.182 15.7775 16.182C15.3948 16.182 15.0402 16.0887 14.7135 15.902C14.3962 15.706 14.1442 15.4213 13.9575 15.048C13.7708 14.6747 13.6775 14.2267 13.6775 13.704C13.6775 13.0413 13.8315 12.4627 14.1395 11.968C14.4475 11.464 14.8535 11.0813 15.3575 10.82C15.8615 10.5587 16.4028 10.428 16.9815 10.428C17.4855 10.428 17.9382 10.5493 18.3395 10.792C18.5542 10.6987 18.7362 10.5773 18.8855 10.428ZM16.4915 15.44C16.8648 15.44 17.2708 15.2907 17.7095 14.992V11.968C17.7095 11.604 17.6068 11.3053 17.4015 11.072C17.2055 10.8387 16.9442 10.722 16.6175 10.722C16.1508 10.722 15.7822 10.9553 15.5115 11.422C15.2502 11.8887 15.1195 12.4907 15.1195 13.228C15.1195 13.928 15.2362 14.474 15.4695 14.866C15.7122 15.2487 16.0528 15.44 16.4915 15.44Z" fill="#333333"/>
</svg>
