<svg width="24" height="24" viewBox="0 0 24 24" fill="none" xmlns="http://www.w3.org/2000/svg">
<path d="M7.48047 6.88574C7.66276 6.88574 7.80859 6.9222 7.91797 6.99512C8.0319 7.06348 8.11621 7.17513 8.1709 7.33008L10.584 14.0703H11.001C11.1559 14.0703 11.2653 14.1068 11.3291 14.1797C11.3975 14.248 11.4316 14.3665 11.4316 14.5352C11.4316 14.7038 11.3975 14.8245 11.3291 14.8975C11.2653 14.9658 11.1559 15 11.001 15H8.58105C8.42611 15 8.31445 14.9658 8.24609 14.8975C8.18229 14.8245 8.15039 14.7038 8.15039 14.5352C8.15039 14.3665 8.18229 14.248 8.24609 14.1797C8.31445 14.1068 8.42611 14.0703 8.58105 14.0703H9.50391L8.94336 12.4434H5.62793L5.06055 14.0703H5.8877C6.04264 14.0703 6.15202 14.1068 6.21582 14.1797C6.28418 14.248 6.31836 14.3665 6.31836 14.5352C6.31836 14.7038 6.28418 14.8245 6.21582 14.8975C6.15202 14.9658 6.04264 15 5.8877 15H3.60449C3.44954 15 3.33789 14.9658 3.26953 14.8975C3.20573 14.8245 3.17383 14.7038 3.17383 14.5352C3.17383 14.3665 3.20573 14.248 3.26953 14.1797C3.33789 14.1068 3.44954 14.0703 3.60449 14.0703H3.9873L6.25 7.81543H4.97168C4.81673 7.81543 4.70508 7.78125 4.63672 7.71289C4.57292 7.63997 4.54102 7.51921 4.54102 7.35059C4.54102 7.18197 4.57292 7.06348 4.63672 6.99512C4.70508 6.9222 4.81673 6.88574 4.97168 6.88574H7.48047ZM7.22754 7.81543L5.94922 11.5137H8.62891L7.35742 7.81543H7.22754ZM15.3213 8.5332C15.7679 8.5332 16.1803 8.63346 16.5586 8.83398C16.9368 9.03451 17.2695 9.32161 17.5566 9.69531V9.14844C17.5566 8.97982 17.5885 8.86133 17.6523 8.79297C17.7207 8.72005 17.8324 8.68359 17.9873 8.68359H19.0742C19.2292 8.68359 19.3385 8.72005 19.4023 8.79297C19.4707 8.86133 19.5049 8.97982 19.5049 9.14844C19.5049 9.31706 19.4707 9.43783 19.4023 9.51074C19.3385 9.5791 19.2292 9.61328 19.0742 9.61328H18.5137V15.2051C18.5137 15.7474 18.3975 16.2122 18.165 16.5996C17.9372 16.9915 17.6045 17.29 17.167 17.4951C16.7295 17.7002 16.2031 17.8027 15.5879 17.8027C15.1504 17.8027 14.7083 17.764 14.2617 17.6865C13.8151 17.6136 13.3981 17.5065 13.0107 17.3652C12.833 17.3014 12.7441 17.1807 12.7441 17.0029C12.7441 16.93 12.7624 16.8389 12.7988 16.7295C12.8809 16.4788 13.0107 16.3535 13.1885 16.3535C13.2386 16.3535 13.2887 16.3626 13.3389 16.3809C13.6943 16.5085 14.068 16.6087 14.46 16.6816C14.8519 16.7546 15.2279 16.791 15.5879 16.791C16.2168 16.791 16.6908 16.6406 17.0098 16.3398C17.3288 16.0436 17.4883 15.6357 17.4883 15.1162V13.7422C16.9232 14.4531 16.2008 14.8086 15.3213 14.8086C14.7562 14.8086 14.2503 14.6833 13.8037 14.4326C13.3571 14.1774 13.0062 13.8128 12.751 13.3389C12.4958 12.8649 12.3682 12.3089 12.3682 11.6709C12.3682 11.0329 12.4958 10.4769 12.751 10.0029C13.0062 9.52897 13.3571 9.16667 13.8037 8.91602C14.2503 8.66081 14.7562 8.5332 15.3213 8.5332ZM15.3896 9.54492C14.984 9.54492 14.6354 9.63607 14.3438 9.81836C14.0521 9.99609 13.8288 10.2467 13.6738 10.5703C13.5234 10.8893 13.4482 11.2562 13.4482 11.6709C13.4482 12.0856 13.5234 12.4548 13.6738 12.7783C13.8288 13.0973 14.0521 13.348 14.3438 13.5303C14.6354 13.708 14.984 13.7969 15.3896 13.7969C15.7952 13.7969 16.1553 13.7126 16.4697 13.5439C16.7887 13.3753 17.0371 13.1315 17.2148 12.8125C17.3971 12.4889 17.4883 12.1084 17.4883 11.6709C17.4883 11.2334 17.3971 10.8551 17.2148 10.5361C17.0371 10.2126 16.7887 9.96647 16.4697 9.79785C16.1553 9.62923 15.7952 9.54492 15.3896 9.54492Z" fill="#333333"/>
</svg>
