<svg width="24" height="24" viewBox="0 0 24 24" fill="none" xmlns="http://www.w3.org/2000/svg">
<path d="M8.41016 6.88574C8.59245 6.88574 8.73145 6.9222 8.82715 6.99512C8.92741 7.06348 8.99121 7.17513 9.01855 7.33008L10.2422 14.0703H10.6797C10.8073 14.0703 10.8984 14.0931 10.9531 14.1387C11.0124 14.1842 11.042 14.2617 11.042 14.3711C11.042 14.4395 11.0374 14.4941 11.0283 14.5352C11.001 14.7038 10.9486 14.8245 10.8711 14.8975C10.7936 14.9658 10.6774 15 10.5225 15H8.10254C7.97493 15 7.88151 14.9772 7.82227 14.9316C7.76302 14.8815 7.7334 14.8018 7.7334 14.6924C7.7334 14.6605 7.73796 14.6081 7.74707 14.5352C7.77897 14.3665 7.83366 14.248 7.91113 14.1797C7.98861 14.1068 8.10482 14.0703 8.25977 14.0703H9.2168L8.94336 12.4434H5.62793L4.77344 14.0703H5.56641C5.69401 14.0703 5.78516 14.0931 5.83984 14.1387C5.89909 14.1842 5.92871 14.2617 5.92871 14.3711C5.92871 14.4395 5.92415 14.4941 5.91504 14.5352C5.8877 14.7038 5.83529 14.8245 5.75781 14.8975C5.68034 14.9658 5.56413 15 5.40918 15H3.12598C2.99837 15 2.90495 14.9772 2.8457 14.9316C2.78646 14.8815 2.75684 14.8018 2.75684 14.6924C2.75684 14.6605 2.76139 14.6081 2.77051 14.5352C2.80241 14.3665 2.8571 14.248 2.93457 14.1797C3.01204 14.1068 3.12826 14.0703 3.2832 14.0703H3.64551L7.01562 7.81543H5.75781C5.63021 7.81543 5.53678 7.79264 5.47754 7.74707C5.42285 7.7015 5.39551 7.62402 5.39551 7.51465C5.39551 7.44629 5.40007 7.3916 5.40918 7.35059C5.44108 7.18197 5.49577 7.06348 5.57324 6.99512C5.65072 6.9222 5.76693 6.88574 5.92188 6.88574H8.41016ZM8.04785 7.81543L6.11328 11.5137H8.79297L8.17773 7.81543H8.04785ZM16.0801 8.5332C16.5312 8.5332 16.9277 8.6403 17.2695 8.85449C17.6113 9.06868 17.887 9.37174 18.0967 9.76367L18.2266 9.05957C18.2539 8.89551 18.3063 8.78158 18.3838 8.71777C18.4613 8.64941 18.5934 8.61523 18.7803 8.61523C18.9352 8.61523 19.0423 8.63802 19.1016 8.68359C19.1654 8.72917 19.1973 8.80208 19.1973 8.90234C19.1973 8.92513 19.1927 8.97754 19.1836 9.05957L18.083 15.2734C17.9372 16.0892 17.584 16.7135 17.0234 17.1465C16.4674 17.584 15.7314 17.8027 14.8154 17.8027C13.8994 17.8027 13.0609 17.6432 12.2998 17.3242C12.1357 17.2604 12.0537 17.1442 12.0537 16.9756C12.0537 16.889 12.0742 16.791 12.1152 16.6816C12.2109 16.431 12.3431 16.3057 12.5117 16.3057C12.5755 16.3057 12.6302 16.3171 12.6758 16.3398C13.0085 16.4857 13.3708 16.5973 13.7627 16.6748C14.1546 16.7523 14.542 16.791 14.9248 16.791C15.54 16.791 16.0322 16.6406 16.4014 16.3398C16.7751 16.0391 17.0052 15.6312 17.0918 15.1162L17.3174 13.8105C16.9801 14.1432 16.6247 14.3939 16.251 14.5625C15.8773 14.7266 15.474 14.8086 15.041 14.8086C14.5488 14.8086 14.1136 14.7061 13.7354 14.501C13.3571 14.2913 13.0632 13.9951 12.8535 13.6123C12.6439 13.2249 12.5391 12.776 12.5391 12.2656C12.5391 11.6048 12.6803 10.9896 12.9629 10.4199C13.25 9.85026 13.6602 9.39453 14.1934 9.05273C14.7311 8.70638 15.36 8.5332 16.0801 8.5332ZM15.9707 9.54492C15.4831 9.54492 15.0592 9.67253 14.6992 9.92773C14.3438 10.1784 14.0726 10.5065 13.8857 10.9121C13.7035 11.3132 13.6123 11.737 13.6123 12.1836C13.6123 12.6758 13.7513 13.0677 14.0293 13.3594C14.3073 13.651 14.7061 13.7969 15.2256 13.7969C15.7633 13.7969 16.2214 13.6693 16.5996 13.4141C16.9779 13.1543 17.2627 12.8239 17.4541 12.4229C17.6455 12.0218 17.7412 11.6139 17.7412 11.1992C17.7412 10.6797 17.5794 10.2741 17.2559 9.98242C16.9368 9.69076 16.5085 9.54492 15.9707 9.54492Z" fill="#333333"/>
</svg>
