<svg width="24" height="24" viewBox="0 0 24 24" fill="none" xmlns="http://www.w3.org/2000/svg">
<path d="M9.4834 13.7441H6.0791L5.55273 14.5986H5.89453C6.20898 14.5986 6.4209 14.6465 6.53027 14.7422C6.63965 14.8379 6.69434 14.9746 6.69434 15.1523C6.69434 15.4349 6.5599 15.6696 6.29102 15.8564C6.14974 15.9521 5.9196 16 5.60059 16H3.70703C3.39714 16 3.1875 15.9521 3.07812 15.8564C2.96419 15.7562 2.90723 15.6195 2.90723 15.4463C2.90723 15.2093 3.00065 15.0065 3.1875 14.8379C3.37891 14.6693 3.66374 14.5895 4.04199 14.5986L7.41211 9.11621H6.48926C6.17936 9.11621 5.96745 9.06836 5.85352 8.97266C5.74414 8.8724 5.68945 8.7334 5.68945 8.55566C5.68945 8.27767 5.82161 8.04525 6.08594 7.8584C6.23177 7.75814 6.46647 7.70801 6.79004 7.70801H9.81836L11.1445 14.5986C11.4635 14.5895 11.6823 14.6351 11.8008 14.7354C11.9193 14.8356 11.9785 14.9746 11.9785 15.1523C11.9785 15.4349 11.8418 15.6696 11.5684 15.8564C11.4316 15.9521 11.2015 16 10.8779 16H8.99121C8.68132 16 8.4694 15.9521 8.35547 15.8564C8.24609 15.7562 8.19141 15.6195 8.19141 15.4463C8.19141 15.1683 8.32357 14.9359 8.58789 14.749C8.73372 14.6488 8.96842 14.5986 9.29199 14.5986H9.63379L9.4834 13.7441ZM9.19629 12.3428L8.65625 9.56738L6.93359 12.3428H9.19629ZM18.3086 10.0664L18.5615 9.79297H20.2021C20.5166 9.79297 20.7285 9.8431 20.8379 9.94336C20.9518 10.0391 21.0088 10.1758 21.0088 10.3535C21.0088 10.6224 20.8789 10.8503 20.6191 11.0371C20.4733 11.1419 20.2363 11.1943 19.9082 11.1943H19.6689L18.582 16.2939C18.4772 16.777 18.2835 17.2008 18.001 17.5654C17.723 17.9346 17.3379 18.2536 16.8457 18.5225C16.3535 18.7913 15.8408 18.9258 15.3076 18.9258H13.7217C13.4118 18.9258 13.1999 18.8779 13.0859 18.7822C12.9766 18.6865 12.9219 18.5498 12.9219 18.3721C12.9219 18.0895 13.0563 17.8548 13.3252 17.668C13.4665 17.5723 13.6966 17.5244 14.0156 17.5244H15.5605C15.9889 17.5244 16.3467 17.4082 16.6338 17.1758C16.9209 16.9479 17.1032 16.654 17.1807 16.2939L17.3242 15.6104C16.9733 15.8109 16.6247 15.9613 16.2783 16.0615C15.9365 16.1618 15.597 16.2119 15.2598 16.2119C14.4395 16.2119 13.7786 15.9704 13.2773 15.4873C12.7806 14.9997 12.5322 14.3867 12.5322 13.6484C12.5322 12.9876 12.7122 12.3382 13.0723 11.7002C13.4368 11.0622 13.9495 10.5518 14.6104 10.1689C15.2757 9.78158 15.9661 9.58789 16.6816 9.58789C16.9779 9.58789 17.2445 9.62435 17.4814 9.69727C17.723 9.76562 17.9987 9.88867 18.3086 10.0664ZM15.5332 14.8037C16.1621 14.8037 16.7204 14.569 17.208 14.0996C17.6956 13.6257 17.9395 13.0924 17.9395 12.5C17.9395 12.0762 17.7913 11.7184 17.4951 11.4268C17.1989 11.1351 16.8275 10.9893 16.3809 10.9893C15.752 10.9893 15.1937 11.2285 14.7061 11.707C14.2184 12.181 13.9746 12.7051 13.9746 13.2793C13.9746 13.7168 14.1204 14.0814 14.4121 14.373C14.7083 14.6602 15.082 14.8037 15.5332 14.8037Z" fill="#333333"/>
</svg>
