<svg width="24" height="24" viewBox="0 0 24 24" fill="none" xmlns="http://www.w3.org/2000/svg">
<path d="M8.25391 12.3428H5.32812C5.18229 12.8258 5.10938 13.1471 5.10938 13.3066C5.10938 13.4753 5.14811 13.6097 5.22559 13.71C5.30306 13.8102 5.39648 13.8786 5.50586 13.915C5.61523 13.9515 5.72461 13.9811 5.83398 14.0039C5.94792 14.0267 6.04362 14.0586 6.12109 14.0996C6.19857 14.1406 6.2373 14.2021 6.2373 14.2842C6.2373 15.2777 6.02539 15.8792 5.60156 16.0889C5.15039 16.0296 4.53743 16 3.7627 16C2.98796 16 2.375 16.0296 1.92383 16.0889C1.65039 15.9111 1.51367 15.4349 1.51367 14.6602C1.51367 14.446 1.55469 14.2865 1.63672 14.1816C1.72331 14.0768 1.83496 14.0085 1.97168 13.9766C2.11296 13.9447 2.25651 13.9128 2.40234 13.8809C2.55273 13.849 2.70312 13.7715 2.85352 13.6484C3.00846 13.5254 3.12923 13.3477 3.21582 13.1152L4.89062 8.7334C5 8.44629 5.05469 8.23665 5.05469 8.10449C5.05469 7.99967 5.03418 7.92448 4.99316 7.87891C4.95215 7.82878 4.9043 7.79915 4.84961 7.79004C4.79492 7.77637 4.73796 7.7627 4.67871 7.74902C4.62402 7.73079 4.57617 7.6875 4.53516 7.61914C4.49414 7.55078 4.47363 7.45052 4.47363 7.31836C4.47363 6.87174 4.52148 6.50716 4.61719 6.22461C4.71289 5.94206 4.81771 5.77572 4.93164 5.72559C5.70638 5.78939 6.56315 5.82129 7.50195 5.82129C8.36328 5.82129 9.01725 5.78939 9.46387 5.72559C9.55957 5.75749 9.65299 5.89421 9.74414 6.13574L11.877 11.8711C12.082 12.4271 12.3031 12.9193 12.54 13.3477C12.7816 13.776 12.9798 13.9902 13.1348 13.9902C13.2168 14.0039 13.2783 14.0176 13.3193 14.0312C13.3649 14.0404 13.4173 14.0609 13.4766 14.0928C13.5404 14.1247 13.5859 14.1702 13.6133 14.2295C13.6406 14.2887 13.6543 14.3617 13.6543 14.4482C13.6543 14.7718 13.6064 15.1068 13.5107 15.4531C13.4196 15.7949 13.2897 16.0068 13.1211 16.0889C12.6107 16.0296 11.8838 16 10.9404 16C9.69173 16 8.75977 16.0296 8.14453 16.0889C7.97591 16.0068 7.84375 15.7949 7.74805 15.4531C7.6569 15.1068 7.61133 14.7718 7.61133 14.4482C7.61133 14.3617 7.625 14.2887 7.65234 14.2295C7.68424 14.1702 7.72754 14.1247 7.78223 14.0928C7.84147 14.0609 7.89388 14.0381 7.93945 14.0244C7.98958 14.0107 8.05339 13.9993 8.13086 13.9902C8.36784 13.9857 8.48633 13.7852 8.48633 13.3887C8.48633 13.0469 8.40885 12.6982 8.25391 12.3428ZM7.95312 11.1807C7.86654 10.9118 7.63184 10.2327 7.24902 9.14355C7.23079 9.08887 7.20345 9.01139 7.16699 8.91113C7.12598 8.78809 7.09408 8.69922 7.07129 8.64453C7.05306 8.58984 7.03027 8.53288 7.00293 8.47363C6.98014 8.40983 6.95964 8.36654 6.94141 8.34375C6.92318 8.32096 6.90723 8.30957 6.89355 8.30957C6.85254 8.30957 6.76139 8.4987 6.62012 8.87695L5.77246 11.1807H7.95312ZM22.8008 16.752C22.8008 18.6842 21.3698 19.6504 18.5078 19.6504C17.929 19.6504 17.3958 19.6094 16.9082 19.5273C16.4251 19.4453 16.0309 19.32 15.7256 19.1514C15.4248 18.9873 15.2744 18.7982 15.2744 18.584C15.2744 18.2103 15.4613 17.8001 15.835 17.3535C14.9463 17.1165 14.502 16.6107 14.502 15.8359C14.502 15.6354 14.5316 15.4395 14.5908 15.248C14.6501 15.0566 14.7389 14.8675 14.8574 14.6807C14.9805 14.4938 15.0898 14.3389 15.1855 14.2158C15.2812 14.0928 15.4089 13.9424 15.5684 13.7646C14.8893 13.2178 14.5498 12.5 14.5498 11.6113C14.5498 11.0781 14.641 10.611 14.8232 10.21C15.0101 9.80436 15.2676 9.48079 15.5957 9.23926C15.9284 8.99772 16.3089 8.81771 16.7373 8.69922C17.1657 8.58073 17.6396 8.52148 18.1592 8.52148C18.4463 8.52148 18.6947 8.53743 18.9043 8.56934C19.1139 8.59668 19.3669 8.65137 19.6631 8.7334C19.9639 8.81087 20.1621 8.861 20.2578 8.88379C20.2669 8.87467 20.3102 8.81543 20.3877 8.70605C20.4652 8.59212 20.5404 8.49642 20.6133 8.41895C20.6908 8.34147 20.7865 8.2526 20.9004 8.15234C21.0189 8.04753 21.1556 7.96777 21.3105 7.91309C21.4655 7.8584 21.6296 7.83105 21.8027 7.83105C22.0124 7.83105 22.1901 7.86751 22.3359 7.94043C22.4818 8.00879 22.5866 8.09993 22.6504 8.21387C22.7188 8.32324 22.7666 8.42578 22.7939 8.52148C22.8213 8.61263 22.835 8.69922 22.835 8.78125C22.835 9.09115 22.7643 9.29395 22.623 9.38965C22.4863 9.48079 22.2288 9.52637 21.8506 9.52637C21.3994 9.52637 21.1738 9.55371 21.1738 9.6084C21.7572 10.21 22.0488 10.889 22.0488 11.6455C22.0488 12.4066 21.6865 13.0492 20.9619 13.5732C20.2373 14.0928 19.3258 14.3525 18.2275 14.3525C18.0999 14.3525 17.9655 14.3434 17.8242 14.3252C17.6829 14.3024 17.6055 14.291 17.5918 14.291C17.487 14.4049 17.4346 14.4984 17.4346 14.5713C17.4346 14.6989 17.5326 14.7946 17.7285 14.8584C17.929 14.9222 18.1865 14.9632 18.501 14.9814C18.8154 14.9951 19.1618 15.0065 19.54 15.0156C19.9229 15.0247 20.3057 15.0566 20.6885 15.1113C21.0713 15.1615 21.4199 15.2412 21.7344 15.3506C22.0488 15.4554 22.304 15.6263 22.5 15.8633C22.7005 16.1003 22.8008 16.3965 22.8008 16.752ZM18.3027 13.375C18.5534 13.3568 18.722 13.1995 18.8086 12.9033C18.8997 12.6071 18.9453 12.1628 18.9453 11.5703C18.9453 10.9779 18.8883 10.5016 18.7744 10.1416C18.665 9.77702 18.4964 9.59473 18.2686 9.59473C18.1455 9.59473 18.0384 9.64941 17.9473 9.75879C17.8607 9.86816 17.7946 10.0163 17.749 10.2031C17.7035 10.39 17.6715 10.5791 17.6533 10.7705C17.6351 10.9574 17.626 11.1556 17.626 11.3652C17.626 11.4609 17.6328 11.5908 17.6465 11.7549C17.6602 11.9189 17.6852 12.1377 17.7217 12.4111C17.7627 12.68 17.8333 12.9079 17.9336 13.0947C18.0339 13.2816 18.1569 13.375 18.3027 13.375ZM17.5713 17.5244C17.2796 17.5244 17.0267 17.5153 16.8125 17.4971V17.627C16.8125 17.7181 16.8171 17.7933 16.8262 17.8525C16.8398 17.9163 16.8649 17.9824 16.9014 18.0508C16.9424 18.1191 17.0062 18.1693 17.0928 18.2012C17.1839 18.2376 17.2979 18.2559 17.4346 18.2559C18.9248 18.2559 19.8294 18.2331 20.1484 18.1875C20.472 18.1419 20.6338 17.9938 20.6338 17.7432C20.6338 17.6475 20.529 17.5859 20.3193 17.5586C20.1143 17.5358 19.8021 17.5244 19.3828 17.5244H17.5713Z" fill="#333333"/>
</svg>
