<svg width="24" height="24" viewBox="0 0 24 24" fill="none" xmlns="http://www.w3.org/2000/svg">
<path d="M2.74441 17C2.61375 17 2.54841 16.9627 2.54841 16.888C2.54841 16.86 2.55308 16.8273 2.56241 16.79L2.68841 16.09C2.70708 16.006 2.73508 15.95 2.77241 15.922C2.80041 15.894 2.86108 15.8847 2.95441 15.894H3.80841L8.03641 7.69C8.11108 7.55933 8.21841 7.494 8.35841 7.494H9.56241C9.71175 7.494 9.79575 7.564 9.81441 7.704L11.0604 15.656C11.0884 15.8427 11.1257 15.9733 11.1724 16.048C11.2191 16.1227 11.2984 16.16 11.4104 16.16C11.5317 16.16 11.6671 16.132 11.8164 16.076C11.9751 16.0107 12.0871 16.0433 12.1524 16.174L12.2504 16.384C12.2691 16.4213 12.2784 16.4727 12.2784 16.538C12.2784 16.594 12.2364 16.6453 12.1524 16.692C11.6764 17.0093 11.2144 17.168 10.7664 17.168C10.3277 17.168 10.0337 17.0747 9.88441 16.888C9.73508 16.7013 9.62308 16.398 9.54841 15.978L9.18441 14.004H6.06241L5.09641 15.894H5.96441C6.05775 15.8847 6.11375 15.894 6.13241 15.922C6.16041 15.95 6.16508 16.006 6.14641 16.09L6.00641 16.79C5.98775 16.93 5.89908 17 5.74041 17H2.74441ZM9.05841 12.954L8.49841 9.104L6.55241 12.954H9.05841ZM20.8925 10.07C21.0231 10.07 21.0885 10.1073 21.0885 10.182C21.0885 10.21 21.0838 10.2427 21.0745 10.28L20.9485 11.022C20.9298 11.106 20.9018 11.162 20.8645 11.19C20.8365 11.218 20.7758 11.2273 20.6825 11.218L20.0525 11.204L19.1985 16.132C19.0865 16.8133 18.9745 17.3873 18.8625 17.854C18.4425 19.5247 17.2991 20.36 15.4325 20.36C14.5178 20.36 13.7525 20.2107 13.1365 19.912C13.0338 19.8653 12.9825 19.8187 12.9825 19.772C12.9825 19.7347 12.9965 19.6833 13.0245 19.618L13.2765 18.904C13.3138 18.82 13.3511 18.7687 13.3885 18.75C13.4258 18.7407 13.4818 18.7547 13.5565 18.792C14.0791 19.044 14.6438 19.17 15.2505 19.17C15.8665 19.17 16.3518 19.0207 16.7065 18.722C17.0611 18.4233 17.3038 17.9147 17.4345 17.196L17.6305 16.146C17.4065 16.4447 17.1031 16.692 16.7205 16.888C16.3378 17.0747 15.9271 17.168 15.4885 17.168C14.7511 17.168 14.1725 16.9673 13.7525 16.566C13.3325 16.1553 13.1225 15.5253 13.1225 14.676C13.1225 13.8267 13.2485 13.0567 13.5005 12.366C13.7525 11.666 14.1631 11.0827 14.7325 10.616C15.3018 10.1493 15.9878 9.916 16.7905 9.916C17.5931 9.916 18.2325 10.2053 18.7085 10.784L18.7925 10.28C18.8111 10.196 18.8345 10.14 18.8625 10.112C18.8998 10.084 18.9651 10.07 19.0585 10.07H20.8925ZM18.3865 11.848C18.0225 11.3627 17.5231 11.1153 16.8885 11.106C16.4871 11.106 16.1325 11.2087 15.8245 11.414C15.5258 11.6193 15.3018 11.8947 15.1525 12.24C14.8445 12.9027 14.6905 13.626 14.6905 14.41C14.6905 15.4367 15.1525 15.95 16.0765 15.95C16.4965 15.95 16.8885 15.8193 17.2525 15.558C17.6165 15.2873 17.8358 14.914 17.9105 14.438L18.3865 11.848Z" fill="#333333"/>
</svg>
