<svg width="24" height="24" viewBox="0 0 24 24" fill="none" xmlns="http://www.w3.org/2000/svg">
<path d="M4.31641 17L4.27539 16.3164L4.98633 16.0977L7.76172 9.37109L8.89648 8.72852L12.0547 16.0977L12.752 16.3164L12.7109 17H9.07422L9.01953 16.3164L9.89453 16.0977L9.15625 14.334L9.00586 13.8691L7.63867 10.6289L8.03516 10.7383L6.90039 13.8281L6.76367 14.2383L6.12109 16.0977L6.99609 16.3164L6.95508 17H4.31641ZM6.44922 14.6758V13.7461C6.6224 13.7552 6.82292 13.7689 7.05078 13.7871C7.28776 13.7962 7.59766 13.8008 7.98047 13.8008C8.34505 13.8008 8.64583 13.7962 8.88281 13.7871C9.12891 13.7689 9.33854 13.7552 9.51172 13.7461V14.6621C9.33854 14.6621 9.12891 14.6576 8.88281 14.6484C8.63672 14.6393 8.33594 14.6348 7.98047 14.6348C7.60677 14.6348 7.30143 14.6393 7.06445 14.6484C6.82747 14.6576 6.6224 14.6667 6.44922 14.6758ZM15.8965 20.1172C14.9303 20.1172 14.1738 19.985 13.627 19.7207C13.0892 19.4564 12.8203 19.0918 12.8203 18.627C12.8203 18.3262 12.9798 18.0436 13.2988 17.7793C13.627 17.5241 14.069 17.319 14.625 17.1641L15.2129 17.2188C14.9941 17.3737 14.821 17.5514 14.6934 17.752C14.5658 17.9525 14.502 18.1621 14.502 18.3809C14.502 18.6908 14.6296 18.9277 14.8848 19.0918C15.1491 19.265 15.5319 19.3516 16.0332 19.3516C16.5254 19.3516 16.9355 19.2422 17.2637 19.0234C17.5918 18.8138 17.7559 18.5495 17.7559 18.2305C17.7559 18.0026 17.6738 17.8294 17.5098 17.7109C17.3457 17.6016 17.0632 17.5286 16.6621 17.4922L14.9258 17.3418L14.8027 17.2734C14.3379 17.2734 13.9779 17.1823 13.7227 17C13.4674 16.8268 13.3398 16.599 13.3398 16.3164C13.3398 16.0247 13.4811 15.7559 13.7637 15.5098C14.0553 15.2546 14.4518 15.054 14.9531 14.9082L15.1719 15.1406C15.0716 15.2044 14.9896 15.2773 14.9258 15.3594C14.862 15.4323 14.8301 15.5052 14.8301 15.5781C14.8301 15.6875 14.862 15.7695 14.9258 15.8242C14.9987 15.8789 15.099 15.9154 15.2266 15.9336L17.3457 16.1387C18.0202 16.2025 18.5215 16.3802 18.8496 16.6719C19.1777 16.9635 19.3418 17.3464 19.3418 17.8203C19.3418 18.2487 19.1914 18.6361 18.8906 18.9824C18.599 19.3288 18.1888 19.6022 17.6602 19.8027C17.1406 20.0124 16.5527 20.1172 15.8965 20.1172ZM15.9512 15.3867C15.4043 15.3867 14.9212 15.2956 14.502 15.1133C14.0918 14.9219 13.7728 14.6621 13.5449 14.334C13.3171 13.9967 13.2031 13.6094 13.2031 13.1719C13.2031 12.7253 13.3262 12.3288 13.5723 11.9824C13.8184 11.6361 14.151 11.3626 14.5703 11.1621C14.9987 10.9616 15.4772 10.8613 16.0059 10.8613C16.5254 10.8613 16.9857 10.9661 17.3867 11.1758C17.7969 11.3763 18.1204 11.6497 18.3574 11.9961C18.5944 12.3424 18.7129 12.7344 18.7129 13.1719C18.7129 13.6003 18.5944 13.9831 18.3574 14.3203C18.1204 14.6484 17.7969 14.9082 17.3867 15.0996C16.9766 15.291 16.498 15.3867 15.9512 15.3867ZM16.0605 14.5938C16.3431 14.5938 16.5664 14.4707 16.7305 14.2246C16.8945 13.9694 16.9766 13.6276 16.9766 13.1992C16.9766 12.7344 16.8854 12.3607 16.7031 12.0781C16.5299 11.7956 16.293 11.6543 15.9922 11.6543C15.7188 11.6543 15.4954 11.7865 15.3223 12.0508C15.1491 12.3151 15.0625 12.666 15.0625 13.1035C15.0625 13.5501 15.1536 13.9102 15.3359 14.1836C15.5182 14.457 15.7598 14.5938 16.0605 14.5938ZM19.4648 12.1191L17.6191 11.9414L17.209 11.2988L19.4648 11.0254V12.1191Z" fill="#888888"/>
</svg>
