<svg width="24" height="24" viewBox="0 0 24 24" fill="none" xmlns="http://www.w3.org/2000/svg">
<path d="M4.02246 17L3.98145 16.2207L4.70605 15.9609L7.46777 9.48047L8.82129 8.72852L12.0752 15.9609L12.7998 16.2207L12.7588 17H8.53418L8.46582 16.2207L9.36816 15.9609L8.69824 14.3887L8.54785 13.8828L7.24902 10.957L7.71387 11.2578L6.75684 13.8145L6.63379 14.2246L6.03223 15.9609L6.93457 16.2207L6.89355 17H4.02246ZM6.2373 14.8125V13.7461C6.42871 13.7552 6.62012 13.7689 6.81152 13.7871C7.01204 13.8053 7.28548 13.8145 7.63184 13.8145C7.96908 13.8145 8.24251 13.8053 8.45215 13.7871C8.66178 13.7689 8.85775 13.7552 9.04004 13.7461V14.7988C8.96712 14.7988 8.82129 14.7943 8.60254 14.7852C8.38379 14.776 8.06022 14.7715 7.63184 14.7715C7.18522 14.7715 6.8571 14.776 6.64746 14.7852C6.44694 14.7943 6.31022 14.8034 6.2373 14.8125ZM16.0674 20.1172C15.0192 20.1172 14.208 19.985 13.6338 19.7207C13.0596 19.4655 12.7725 19.1055 12.7725 18.6406C12.7725 18.3398 12.9593 18.0618 13.333 17.8066C13.7158 17.5514 14.1898 17.3874 14.7549 17.3145L15.3701 17.3281C15.2061 17.4648 15.0693 17.6243 14.96 17.8066C14.8597 17.998 14.8096 18.1849 14.8096 18.3672C14.8096 18.6406 14.9281 18.8503 15.165 18.9961C15.4111 19.1419 15.7757 19.2148 16.2588 19.2148C16.6963 19.2148 17.0654 19.1237 17.3662 18.9414C17.667 18.7591 17.8174 18.5358 17.8174 18.2715C17.8174 18.0892 17.7536 17.9525 17.626 17.8613C17.5075 17.7702 17.3024 17.7109 17.0107 17.6836L15.0283 17.4922L14.9463 17.4238C14.4085 17.4238 14.0029 17.3327 13.7295 17.1504C13.4561 16.9772 13.3193 16.7448 13.3193 16.4531C13.3193 16.1341 13.4788 15.847 13.7979 15.5918C14.126 15.3275 14.568 15.127 15.124 14.9902L15.3701 15.1953C15.3063 15.2318 15.2471 15.2819 15.1924 15.3457C15.1468 15.4004 15.124 15.4642 15.124 15.5371C15.124 15.6283 15.1423 15.6921 15.1787 15.7285C15.2243 15.765 15.2881 15.7878 15.3701 15.7969L17.7627 16.0293C18.4463 16.0931 18.9476 16.2845 19.2666 16.6035C19.5856 16.9134 19.7451 17.3008 19.7451 17.7656C19.7451 18.2031 19.5856 18.5996 19.2666 18.9551C18.9567 19.3105 18.5238 19.5931 17.9678 19.8027C17.4118 20.0124 16.7783 20.1172 16.0674 20.1172ZM16.0947 15.4277C15.5023 15.4277 14.9827 15.332 14.5361 15.1406C14.0986 14.9492 13.7614 14.6803 13.5244 14.334C13.2874 13.9785 13.1689 13.5638 13.1689 13.0898C13.1689 12.6341 13.3011 12.2331 13.5654 11.8867C13.8389 11.5312 14.2035 11.2533 14.6592 11.0527C15.1149 10.8522 15.6299 10.752 16.2041 10.752C16.751 10.752 17.2386 10.8613 17.667 11.0801C18.1045 11.2988 18.4463 11.5905 18.6924 11.9551C18.9476 12.3197 19.0752 12.7253 19.0752 13.1719C19.0752 13.6185 18.9521 14.0104 18.7061 14.3477C18.46 14.6849 18.1136 14.9492 17.667 15.1406C17.2204 15.332 16.6963 15.4277 16.0947 15.4277ZM16.2314 14.4844C16.4411 14.4844 16.6097 14.3659 16.7373 14.1289C16.874 13.8919 16.9424 13.5684 16.9424 13.1582C16.9424 12.7207 16.874 12.3698 16.7373 12.1055C16.6006 11.832 16.4183 11.6953 16.1904 11.6953C15.9717 11.6953 15.7939 11.8229 15.6572 12.0781C15.5296 12.3333 15.4658 12.666 15.4658 13.0762C15.4658 13.4954 15.5342 13.8372 15.6709 14.1016C15.8167 14.3568 16.0036 14.4844 16.2314 14.4844ZM19.7725 12.1875L17.8037 11.9551L17.5576 11.2441L19.7725 10.9434V12.1875Z" fill="#888888"/>
</svg>
