<svg width="24" height="24" viewBox="0 0 24 24" fill="none" xmlns="http://www.w3.org/2000/svg">
<path d="M4.49809 16L8.74009 6.2H10.8401L11.6381 16H9.88809L9.69209 13.55H7.28409L6.24809 16H4.49809ZM7.70409 12.43H9.65009L9.42609 8.44H9.37009L7.70409 12.43ZM14.2566 18.94C13.9113 18.94 13.58 18.9073 13.2626 18.842C12.9453 18.786 12.6886 18.7253 12.4926 18.66L12.6186 17.96H14.1586C14.6813 17.96 15.106 17.7967 15.4326 17.47C15.7686 17.1527 16.0066 16.5927 16.1466 15.79C15.9973 15.8927 15.8106 15.9767 15.5866 16.042C15.372 16.1073 15.1433 16.14 14.9006 16.14C14.3873 16.14 13.9626 16.0233 13.6266 15.79C13.2906 15.5473 13.0666 15.16 12.9546 14.628C12.8426 14.096 12.866 13.3867 13.0246 12.5C13.1833 11.6133 13.4166 10.904 13.7246 10.372C14.042 9.84 14.448 9.45733 14.9426 9.224C15.4373 8.98133 16.0346 8.86 16.7346 8.86C17.2293 8.86 17.6446 8.89733 17.9806 8.972C18.326 9.03733 18.6573 9.14 18.9746 9.28L17.8966 15.44C17.7473 16.28 17.514 16.9567 17.1966 17.47C16.8886 17.9833 16.492 18.3567 16.0066 18.59C15.5213 18.8233 14.938 18.94 14.2566 18.94ZM15.4886 15.16C15.666 15.16 15.8246 15.132 15.9646 15.076C16.114 15.0107 16.2306 14.9453 16.3146 14.88L17.1966 9.84H16.5666C16.2866 9.84 16.0253 9.91467 15.7826 10.064C15.5493 10.2133 15.3393 10.484 15.1526 10.876C14.9753 11.2587 14.826 11.8 14.7046 12.5C14.5833 13.2 14.5413 13.7413 14.5786 14.124C14.6253 14.5067 14.728 14.7773 14.8866 14.936C15.0546 15.0853 15.2553 15.16 15.4886 15.16Z" fill="#888888"/>
</svg>
