<svg width="24" height="24" viewBox="0 0 24 24" fill="none" xmlns="http://www.w3.org/2000/svg">
<path d="M4.49809 16L7.01809 6.2H9.11809L11.6381 16H9.88809L9.27209 13.55H6.86409L6.24809 16H4.49809ZM7.08809 12.43H9.03409L8.09609 8.44H8.04009L7.08809 12.43ZM14.7886 18.94C14.462 18.94 14.1353 18.912 13.8086 18.856C13.482 18.8 13.202 18.7347 12.9686 18.66V17.96H14.5086C15.05 17.96 15.4513 17.792 15.7126 17.456C15.9833 17.1293 16.1186 16.574 16.1186 15.79C15.8106 16.0233 15.414 16.14 14.9286 16.14C14.1166 16.14 13.4913 15.8553 13.0526 15.286C12.6233 14.7073 12.4086 13.7787 12.4086 12.5C12.4086 11.1933 12.6513 10.26 13.1366 9.7C13.6313 9.14 14.4153 8.86 15.4886 8.86C15.9646 8.86 16.3753 8.89267 16.7206 8.958C17.0753 9.02333 17.4346 9.13067 17.7986 9.28V15.44C17.7986 16.6813 17.556 17.5727 17.0706 18.114C16.5853 18.6647 15.8246 18.94 14.7886 18.94ZM15.3486 15.16C15.5166 15.16 15.666 15.132 15.7966 15.076C15.9366 15.02 16.044 14.9547 16.1186 14.88V9.84H15.4886C15.0313 9.84 14.6813 10.036 14.4386 10.428C14.2053 10.82 14.0886 11.5107 14.0886 12.5C14.0886 13.48 14.2006 14.1707 14.4246 14.572C14.6486 14.964 14.9566 15.16 15.3486 15.16Z" fill="#333333"/>
</svg>
