<svg width="24" height="24" viewBox="0 0 24 24" fill="none" xmlns="http://www.w3.org/2000/svg">
<path d="M6.01758 16C6.12695 16 6.21126 15.9727 6.27051 15.918C6.33431 15.8587 6.36621 15.7881 6.36621 15.7061C6.36621 15.6286 6.33431 15.5602 6.27051 15.501C6.21126 15.4417 6.12923 15.4121 6.02441 15.4121H4.9375L5.70312 13.3203H9.00488L9.73633 15.4121H8.46484C8.36003 15.4121 8.27799 15.4417 8.21875 15.501C8.15951 15.5557 8.12988 15.6217 8.12988 15.6992C8.12988 15.7812 8.15951 15.8519 8.21875 15.9111C8.28255 15.9704 8.36914 16 8.47852 16H10.9805C11.0853 16 11.1673 15.9704 11.2266 15.9111C11.2904 15.8519 11.3223 15.7812 11.3223 15.6992C11.3223 15.6217 11.2926 15.5557 11.2334 15.501C11.1787 15.4417 11.099 15.4121 10.9941 15.4121H10.4541L7.97949 8.43945C7.87467 8.14323 7.6901 7.99512 7.42578 7.99512H5.35449C5.24967 7.99512 5.16764 8.02474 5.1084 8.08398C5.04915 8.14323 5.01953 8.21159 5.01953 8.28906C5.01953 8.37109 5.04915 8.44173 5.1084 8.50098C5.16764 8.55566 5.25195 8.58301 5.36133 8.58301H6.84473L4.21289 15.4121H3.63184C3.52702 15.4121 3.44499 15.4417 3.38574 15.501C3.3265 15.5602 3.29688 15.6286 3.29688 15.7061C3.29688 15.7881 3.3265 15.8587 3.38574 15.918C3.44499 15.9727 3.5293 16 3.63867 16H6.01758ZM7.43945 8.67188L8.7998 12.7529H5.92871L7.43945 8.67188ZM14.2275 14.7012C14.2275 14.5827 14.2845 14.4733 14.3984 14.373C14.5169 14.2682 14.6742 14.1862 14.8701 14.127C15.0706 14.0677 15.2871 14.0381 15.5195 14.0381C16.2897 14.0381 16.8639 13.8991 17.2422 13.6211C17.625 13.3431 17.8164 12.9056 17.8164 12.3086C17.8164 11.8984 17.6865 11.5316 17.4268 11.208L18.582 10.7021C18.901 10.7021 19.1312 10.6702 19.2725 10.6064C19.4183 10.5426 19.4912 10.4583 19.4912 10.3535C19.4912 10.1211 19.359 10.0049 19.0947 10.0049C18.8258 10.0049 18.5501 10.1006 18.2676 10.292L17.2285 10.9824C17.0143 10.8047 16.766 10.6702 16.4834 10.5791C16.2008 10.488 15.9046 10.4424 15.5947 10.4424C15.1891 10.4424 14.8177 10.5107 14.4805 10.6475C14.1478 10.7796 13.8812 10.9847 13.6807 11.2627C13.4847 11.5361 13.3867 11.8734 13.3867 12.2744C13.3867 12.6481 13.4847 12.9466 13.6807 13.1699C13.8766 13.3887 14.1706 13.5778 14.5625 13.7373C14.4303 13.7555 14.2868 13.8125 14.1318 13.9082C13.9769 13.9993 13.8447 14.1201 13.7354 14.2705C13.626 14.4163 13.5713 14.5713 13.5713 14.7354C13.5713 14.9404 13.6237 15.1113 13.7285 15.248C13.8379 15.3802 13.9997 15.4987 14.2139 15.6035C13.9723 15.722 13.7764 15.902 13.626 16.1436C13.4756 16.3896 13.4004 16.6768 13.4004 17.0049C13.4004 17.5062 13.5964 17.8617 13.9883 18.0713C14.3802 18.2855 14.8838 18.3926 15.499 18.3926C15.9867 18.3926 16.4424 18.3333 16.8662 18.2148C17.2946 18.0964 17.6387 17.9163 17.8984 17.6748C18.1628 17.4333 18.2949 17.1348 18.2949 16.7793C18.2949 16.36 18.2038 16.041 18.0215 15.8223C17.8392 15.6035 17.5771 15.4554 17.2354 15.3779C16.8936 15.2959 16.4424 15.2549 15.8818 15.2549H15.2461C14.9635 15.2549 14.7471 15.2321 14.5967 15.1865C14.4508 15.1364 14.3529 15.0726 14.3027 14.9951C14.2526 14.9131 14.2275 14.8151 14.2275 14.7012ZM15.54 13.5322C15.1025 13.5322 14.7425 13.4274 14.46 13.2178C14.182 13.0036 14.043 12.696 14.043 12.2949C14.043 11.862 14.1865 11.5384 14.4736 11.3242C14.7607 11.11 15.1299 11.0029 15.5811 11.0029C16.0413 11.0029 16.4196 11.1123 16.7158 11.3311C17.012 11.5452 17.1602 11.8848 17.1602 12.3496C17.1602 12.7826 17.0098 13.0879 16.709 13.2656C16.4082 13.4434 16.0186 13.5322 15.54 13.5322ZM15.9023 15.7471C16.3535 15.7471 16.7021 15.779 16.9482 15.8428C17.1943 15.902 17.3698 16.0068 17.4746 16.1572C17.584 16.3076 17.6387 16.5241 17.6387 16.8066C17.6387 17.1621 17.4222 17.4219 16.9893 17.5859C16.5609 17.75 16.0596 17.832 15.4854 17.832C14.9932 17.832 14.6309 17.7591 14.3984 17.6133C14.1706 17.472 14.0566 17.2122 14.0566 16.834C14.0566 16.7064 14.0863 16.5628 14.1455 16.4033C14.2093 16.2484 14.2868 16.1094 14.3779 15.9863C14.4691 15.8587 14.5579 15.779 14.6445 15.7471H15.9023Z" fill="#333333"/>
</svg>
