<svg width="24" height="24" viewBox="0 0 24 24" fill="none" xmlns="http://www.w3.org/2000/svg">
<path d="M5.76021 17.218C5.48021 17.0687 5.30288 16.9147 5.22821 16.756C5.15354 16.5973 5.11621 16.462 5.11621 16.35C5.11621 16.098 5.20488 15.762 5.38221 15.342C5.56888 14.9127 5.81621 14.4227 6.12421 13.872C6.43221 13.3213 6.78221 12.7473 7.17421 12.15C6.88488 12.1313 6.60954 12.1173 6.34821 12.108C6.08688 12.0987 5.75088 12.094 5.34021 12.094H5.11621C5.24688 11.758 5.45221 11.5247 5.73221 11.394C6.02154 11.254 6.35754 11.184 6.74021 11.184C6.89888 11.184 7.06221 11.1933 7.23021 11.212C7.40754 11.2307 7.58954 11.2493 7.77621 11.268C8.47621 10.26 9.15754 9.34067 9.82021 8.51C10.4829 7.67 11.0522 7.02133 11.5282 6.564C11.9762 6.116 12.3029 5.892 12.5082 5.892C12.6389 5.892 12.7835 5.94333 12.9422 6.046C13.1102 6.14867 13.2829 6.27933 13.4602 6.438C13.3669 6.51267 13.2455 6.704 13.0962 7.012C12.9562 7.32 12.8022 7.712 12.6342 8.188C12.4755 8.65467 12.3122 9.168 12.1442 9.728C11.9855 10.288 11.8409 10.8573 11.7102 11.436C11.5795 12.0147 11.4722 12.57 11.3882 13.102C11.3135 13.6247 11.2762 14.0867 11.2762 14.488C11.2762 15.2253 11.4395 15.594 11.7662 15.594C11.9809 15.594 12.2469 15.4307 12.5642 15.104C12.8815 14.7773 13.2362 14.2453 13.6282 13.508L13.8802 13.774C13.5909 14.5393 13.2129 15.1693 12.7462 15.664C12.2889 16.1587 11.7989 16.406 11.2762 16.406C10.8282 16.406 10.5109 16.2147 10.3242 15.832C10.1375 15.44 10.0442 14.908 10.0442 14.236C10.0442 14.0213 10.0582 13.7787 10.0862 13.508C10.1142 13.2373 10.1609 12.9013 10.2262 12.5C9.81554 12.4347 9.45154 12.3833 9.13421 12.346C8.81688 12.3087 8.51354 12.2713 8.22421 12.234C7.77621 13.0273 7.34221 13.8487 6.92221 14.698C6.50221 15.5473 6.11488 16.3873 5.76021 17.218ZM10.3662 11.814C10.4875 11.2633 10.6275 10.708 10.7862 10.148C10.9542 9.57867 11.1269 9.03733 11.3042 8.524C11.4909 8.00133 11.6729 7.53467 11.8502 7.124C11.4209 7.46 10.9262 8.01533 10.3662 8.79C9.81554 9.55533 9.25088 10.4373 8.67221 11.436C8.95221 11.492 9.23221 11.5527 9.51221 11.618C9.79221 11.6833 10.0769 11.7487 10.3662 11.814ZM13.9373 19.92C13.704 19.92 13.4846 19.85 13.2793 19.71C13.0833 19.57 12.9853 19.3413 12.9853 19.024C12.9853 18.7253 13.0693 18.4547 13.2373 18.212C13.4146 17.9787 13.6433 17.7593 13.9233 17.554C14.2126 17.358 14.5206 17.176 14.8473 17.008C15.174 16.84 15.4913 16.6813 15.7993 16.532C15.902 16.28 16 16.0093 16.0933 15.72C16.1866 15.4307 16.2753 15.118 16.3593 14.782C16.0326 15.1927 15.6873 15.5333 15.3233 15.804C14.9686 16.0747 14.6046 16.21 14.2313 16.21C13.858 16.21 13.5593 16.0793 13.3353 15.818C13.1206 15.5567 13.0133 15.2113 13.0133 14.782C13.0133 14.2873 13.1346 13.8253 13.3773 13.396C13.6293 12.9573 13.9513 12.57 14.3433 12.234C14.7353 11.8887 15.1553 11.6227 15.6033 11.436C16.0513 11.24 16.4806 11.142 16.8913 11.142C17.19 11.142 17.414 11.198 17.5633 11.31C17.7126 11.4127 17.7873 11.534 17.7873 11.674C17.7873 11.786 17.7546 11.8747 17.6893 11.94C17.624 12.0053 17.582 12.0427 17.5633 12.052C17.47 11.9493 17.372 11.884 17.2693 11.856C17.176 11.8187 17.064 11.8 16.9333 11.8C16.5693 11.8 16.2193 11.9027 15.8833 12.108C15.5473 12.3133 15.2486 12.5793 14.9873 12.906C14.7353 13.2233 14.5346 13.5547 14.3853 13.9C14.236 14.2453 14.1613 14.558 14.1613 14.838C14.1613 15.0247 14.2033 15.1693 14.2873 15.272C14.3713 15.3653 14.474 15.412 14.5953 15.412C14.8566 15.412 15.174 15.244 15.5473 14.908C15.9206 14.5627 16.28 14.1473 16.6253 13.662C16.6533 13.522 16.6813 13.396 16.7093 13.284C16.8026 12.9107 16.9146 12.6353 17.0453 12.458C17.176 12.2807 17.358 12.192 17.5913 12.192C17.638 12.192 17.694 12.1967 17.7593 12.206C17.834 12.2153 17.9133 12.2293 17.9973 12.248C17.9973 12.416 17.9506 12.6913 17.8573 13.074C17.764 13.4567 17.638 13.9047 17.4793 14.418C17.3206 14.922 17.1433 15.44 16.9473 15.972C17.2366 15.8507 17.5306 15.6827 17.8293 15.468C18.128 15.244 18.4033 14.978 18.6553 14.67C18.9073 14.3527 19.0986 14.0027 19.2293 13.62L19.4813 13.872C19.332 14.3013 19.0986 14.6933 18.7813 15.048C18.4733 15.4027 18.1373 15.7107 17.7733 15.972C17.4093 16.224 17.0733 16.42 16.7653 16.56C16.5133 17.176 16.238 17.736 15.9393 18.24C15.65 18.7533 15.3373 19.1593 15.0013 19.458C14.6746 19.766 14.32 19.92 13.9373 19.92ZM13.8813 19.276C14.0493 19.276 14.278 19.1173 14.5673 18.8C14.866 18.4827 15.188 17.946 15.5333 17.19C15.188 17.358 14.8706 17.5307 14.5813 17.708C14.292 17.8853 14.0586 18.072 13.8813 18.268C13.704 18.464 13.6153 18.6693 13.6153 18.884C13.6153 19.1453 13.704 19.276 13.8813 19.276Z" fill="#333333"/>
</svg>
