<svg width="24" height="24" viewBox="0 0 24 24" fill="none" xmlns="http://www.w3.org/2000/svg">
<path d="M4.47889 17L6.99889 9.118H9.33689L11.9269 17H10.4009L9.72889 14.774H6.66289L5.99089 17H4.47889ZM8.18889 9.72L6.99889 13.668H9.39289L8.18889 9.72ZM14.2706 19.562V18.218H16.7906V15.978H16.7626C16.7532 15.9967 16.7112 16.0667 16.6366 16.188C16.5712 16.3093 16.4639 16.4447 16.3146 16.594C16.1652 16.7433 15.9692 16.874 15.7266 16.986C15.4932 17.0887 15.1992 17.14 14.8446 17.14C13.9952 17.14 13.3839 16.8693 13.0106 16.328C12.6372 15.7867 12.4506 15.082 12.4506 14.214C12.4506 13.3087 12.6372 12.59 13.0106 12.058C13.3932 11.5167 14.0046 11.246 14.8446 11.246C15.2179 11.246 15.5259 11.3067 15.7686 11.428C16.0112 11.54 16.2026 11.6753 16.3426 11.834C16.4826 11.9927 16.5806 12.1373 16.6366 12.268C16.7019 12.3987 16.7392 12.478 16.7486 12.506H16.7766L16.7906 11.246H18.2606V17.49C18.2606 18.2553 18.1066 18.792 17.7986 19.1C17.4999 19.408 17.0332 19.562 16.3986 19.562H14.2706ZM15.2926 15.936C15.8152 15.936 16.1932 15.7773 16.4266 15.46C16.6599 15.1333 16.7766 14.718 16.7766 14.214C16.7766 13.7287 16.6646 13.3273 16.4406 13.01C16.2166 12.6833 15.8432 12.52 15.3206 12.52C14.9379 12.52 14.6392 12.604 14.4246 12.772C14.2099 12.9307 14.0559 13.1407 13.9626 13.402C13.8786 13.654 13.8366 13.9247 13.8366 14.214C13.8366 14.5033 13.8739 14.7833 13.9486 15.054C14.0326 15.3153 14.1772 15.53 14.3826 15.698C14.5972 15.8567 14.9006 15.936 15.2926 15.936Z" fill="#888888"/>
</svg>
