<svg width="24" height="24" viewBox="0 0 24 24" fill="none" xmlns="http://www.w3.org/2000/svg">
<path d="M5.46457 17L8.36257 9.118H9.41257L12.3386 17H11.6666L10.7286 14.41H7.06057L6.10857 17H5.46457ZM8.89457 9.398L7.27057 13.85H10.5186L8.89457 9.398ZM14.4427 19.24V18.638H17.4387V15.614H17.4107C17.3921 15.6793 17.3361 15.7913 17.2427 15.95C17.1587 16.1087 17.0327 16.2813 16.8647 16.468C16.6967 16.6547 16.4774 16.8133 16.2067 16.944C15.9454 17.0747 15.6281 17.14 15.2547 17.14C14.7134 17.14 14.2514 17.0093 13.8687 16.748C13.4954 16.4867 13.2107 16.1367 13.0147 15.698C12.8187 15.2593 12.7207 14.7693 12.7207 14.228C12.7207 13.6773 12.8187 13.1827 13.0147 12.744C13.2201 12.3053 13.5094 11.96 13.8827 11.708C14.2654 11.4467 14.7274 11.316 15.2687 11.316C15.6514 11.316 15.9734 11.386 16.2347 11.526C16.5054 11.6567 16.7201 11.8153 16.8787 12.002C17.0467 12.1793 17.1681 12.352 17.2427 12.52C17.3267 12.6787 17.3781 12.7907 17.3967 12.856H17.4247L17.4387 11.316H18.0967V18.218C18.0967 18.5167 18.0407 18.7593 17.9287 18.946C17.8261 19.142 17.6067 19.24 17.2707 19.24H14.4427ZM15.3387 16.538C15.9081 16.538 16.3934 16.3373 16.7947 15.936C17.2054 15.5347 17.4107 14.9653 17.4107 14.228C17.4107 13.5093 17.2194 12.9493 16.8367 12.548C16.4541 12.1373 15.9827 11.932 15.4227 11.932C14.9561 11.932 14.5687 12.044 14.2607 12.268C13.9527 12.4827 13.7241 12.7673 13.5747 13.122C13.4254 13.4673 13.3507 13.836 13.3507 14.228C13.3507 14.62 13.4161 14.9933 13.5467 15.348C13.6867 15.7027 13.9014 15.992 14.1907 16.216C14.4894 16.4307 14.8721 16.538 15.3387 16.538Z" fill="#888888"/>
</svg>
