<svg width="24" height="24" viewBox="0 0 24 24" fill="none" xmlns="http://www.w3.org/2000/svg">
<path d="M12.8262 17.3398C12.735 17.3398 12.6576 17.3672 12.5938 17.4219C12.4388 16.8385 12.3112 15.9863 12.2109 14.8652C12.1107 13.7441 11.9876 12.8965 11.8418 12.3223C11.5866 12.304 11.0898 12.2083 10.3516 12.0352C9.6224 11.8529 9.09831 11.7617 8.7793 11.7617C8.55143 12.0169 8.00456 12.8053 7.13867 14.127C6.88346 14.5098 6.56901 14.8561 6.19531 15.166C5.83073 15.4668 5.4707 15.6172 5.11523 15.6172C5.10612 15.6172 5.09701 15.6172 5.08789 15.6172L4.43164 15.6035C4.34049 15.5488 4.29492 15.485 4.29492 15.4121C4.29492 15.3392 4.34049 15.2754 4.43164 15.2207C4.52279 15.2389 4.65951 15.248 4.8418 15.248C5.0332 15.248 5.30208 15.1523 5.64844 14.9609C6.00391 14.7604 6.36393 14.4323 6.72852 13.9766C7.32096 13.2474 7.8724 12.4225 8.38281 11.502C8.34635 11.4928 8.25977 11.4382 8.12305 11.3379C7.98633 11.2285 7.89974 11.1602 7.86328 11.1328C7.83594 11.0964 7.74023 11.0007 7.57617 10.8457C7.41211 10.6908 7.26628 10.5495 7.13867 10.4219C6.79232 10.0938 6.60091 9.84766 6.56445 9.68359C6.56445 9.5651 6.60091 9.49219 6.67383 9.46484C6.75586 9.4375 6.84245 9.42383 6.93359 9.42383H7.09766C7.38021 9.42383 7.79036 9.51042 8.32812 9.68359C8.86589 9.85677 9.27148 9.94336 9.54492 9.94336C9.76367 9.67904 10.0781 9.0319 10.4883 8.00195C10.9076 6.96289 11.2174 6.30664 11.418 6.0332C11.6367 5.64128 11.7871 5.44531 11.8691 5.44531C11.9147 5.44531 11.9375 5.50911 11.9375 5.63672V5.78711L12.252 11.502H12.3887C12.9629 11.2285 13.3229 11.0918 13.4688 11.0918C13.6146 11.0918 13.6875 11.1283 13.6875 11.2012C13.6875 11.3105 13.5417 11.4609 13.25 11.6523C12.9583 11.8346 12.6712 11.9531 12.3887 12.0078C12.3796 12.099 12.375 12.304 12.375 12.623C12.375 12.9329 12.4525 13.7305 12.6074 15.0156C12.7624 16.3008 12.8398 17.0072 12.8398 17.1348C12.849 17.2715 12.8444 17.3398 12.8262 17.3398ZM9.14844 11.3789C9.39453 11.4427 9.73633 11.5065 10.1738 11.5703C10.6113 11.6341 10.8893 11.6842 11.0078 11.7207C10.6615 11.2376 10.2103 10.8639 9.6543 10.5996C9.64518 10.6178 9.59961 10.6862 9.51758 10.8047C9.3444 11.0234 9.22135 11.2148 9.14844 11.3789ZM9.99609 10.2031L11.7598 11.6387C11.7689 11.4564 11.7734 11.1784 11.7734 10.8047C11.7734 10.4219 11.7552 9.76107 11.7188 8.82227C11.6823 7.88346 11.6367 7.15885 11.582 6.64844L9.99609 10.2031ZM7.60352 9.82031C7.54883 9.8112 7.4987 9.80664 7.45312 9.80664C7.31641 9.80664 7.24805 9.85221 7.24805 9.94336C7.24805 10.1439 7.45312 10.3945 7.86328 10.6953C8.28255 10.9961 8.58789 11.1465 8.7793 11.1465C8.82487 11.1465 8.86589 11.1374 8.90234 11.1191C8.95703 11.0553 9.01172 10.946 9.06641 10.791C9.12109 10.6361 9.19401 10.4857 9.28516 10.3398C9.21224 10.3034 8.65169 10.1302 7.60352 9.82031ZM16.6133 13.0879L16.5039 15.9043C16.5039 15.9134 16.5039 15.9544 16.5039 16.0273C16.513 16.1003 16.5176 16.1458 16.5176 16.1641C16.791 16.0547 17.1966 15.8451 17.7344 15.5352C18.2721 15.2161 18.7689 14.9928 19.2246 14.8652C19.3158 14.9199 19.3613 14.9883 19.3613 15.0703C19.3613 15.0885 19.1517 15.1979 18.7324 15.3984C17.4199 16.0365 16.6361 16.5059 16.3809 16.8066C16.2441 18.2103 16.1302 19.1217 16.0391 19.541C15.957 19.9603 15.9023 20.2246 15.875 20.334C15.8568 20.4525 15.8066 20.6211 15.7246 20.8398C15.6426 21.0586 15.556 21.2181 15.4648 21.3184C15.2188 21.5918 14.9362 21.7285 14.6172 21.7285C14.2982 21.7285 13.9837 21.6647 13.6738 21.5371C13.373 21.4186 13.1543 21.2637 13.0176 21.0723C12.9993 20.9811 12.9902 20.8307 12.9902 20.6211C12.9902 19.9466 13.3503 19.1719 14.0703 18.2969C14.125 18.2513 14.2936 18.1146 14.5762 17.8867C15.3327 17.276 15.7656 16.916 15.875 16.8066C15.9661 16.6517 16.0117 16.3509 16.0117 15.9043C16.0117 15.877 16.0072 15.7904 15.998 15.6445C15.998 15.4987 15.998 15.4121 15.998 15.3848C15.3418 15.8223 14.7949 16.041 14.3574 16.041C13.9746 16.0228 13.6966 15.8086 13.5234 15.3984C13.4505 15.2161 13.4141 14.9974 13.4141 14.7422C13.4141 14.4779 13.5326 14.1725 13.7695 13.8262C14.1523 13.2793 14.7858 12.8783 15.6699 12.623C16.2988 12.623 16.6133 12.778 16.6133 13.0879ZM13.4004 20.5664C13.4004 20.7943 13.528 20.9766 13.7832 21.1133C14.0384 21.2591 14.2982 21.332 14.5625 21.332C14.8359 21.332 15.0684 21.168 15.2598 20.8398C15.4603 20.5208 15.597 20.1198 15.6699 19.6367C15.8066 18.8255 15.875 18.1602 15.875 17.6406V17.3262C15.2734 17.7181 14.7083 18.2148 14.1797 18.8164C13.6602 19.4271 13.4004 20.0104 13.4004 20.5664ZM13.9199 15.3301C13.9199 15.5488 14.084 15.6582 14.4121 15.6582C14.9681 15.64 15.3965 15.4212 15.6973 15.002C15.998 14.5827 16.1484 14.2181 16.1484 13.9082C16.1484 13.8809 16.1484 13.8535 16.1484 13.8262V13.6895C16.1484 13.4889 16.1029 13.3294 16.0117 13.2109C15.9206 13.0833 15.793 13.0195 15.6289 13.0195C15.5924 13.0104 15.5514 13.0059 15.5059 13.0059C15.0957 13.0059 14.7174 13.2383 14.3711 13.7031C14.0339 14.168 13.8652 14.5827 13.8652 14.9473C13.8652 15.0749 13.8835 15.2025 13.9199 15.3301Z" fill="#888888"/>
</svg>
