<svg width="24" height="24" viewBox="0 0 24 24" fill="none" xmlns="http://www.w3.org/2000/svg">
<path d="M1.2666 16.3711L2.98242 9.86328C3.44727 8.09049 4.96029 7.20182 7.52148 7.19727H11.2061C11.3747 7.19727 11.5137 7.26107 11.623 7.38867C11.737 7.51628 11.7939 7.66439 11.7939 7.83301V16.3711C11.7939 16.5488 11.7301 16.6992 11.6025 16.8223C11.4749 16.9408 11.3223 17 11.1445 17H9.85938C9.67253 17 9.51758 16.9408 9.39453 16.8223C9.27604 16.6992 9.2168 16.5443 9.2168 16.3574V14.6348H4.35645L3.89844 16.3574C3.85286 16.5443 3.75033 16.6992 3.59082 16.8223C3.43132 16.9408 3.2627 17 3.08496 17H1.73828C1.56055 17 1.43294 16.9499 1.35547 16.8496C1.27799 16.7448 1.23926 16.6536 1.23926 16.5762C1.24382 16.4987 1.25293 16.4303 1.2666 16.3711ZM4.8623 12.7002H9.2168V9.13184H7.26855C6.83105 9.13184 6.44824 9.25716 6.12012 9.50781C5.79655 9.75391 5.5778 10.0866 5.46387 10.5059L4.8623 12.7002ZM16.6475 16.4258C15.613 16.4258 14.7767 16.1136 14.1387 15.4893C13.5052 14.8649 13.1885 13.999 13.1885 12.8916C13.1885 11.7842 13.5508 10.9206 14.2754 10.3008C15 9.68099 16.0391 9.37109 17.3926 9.37109C18.0534 9.37109 18.7393 9.44629 19.4502 9.59668C20.1611 9.74251 20.6966 9.92253 21.0566 10.1367V16.4668C21.0566 17.4831 20.7217 18.2327 20.0518 18.7158C19.3818 19.2035 18.4408 19.4473 17.2285 19.4473C16.0208 19.4473 15.0889 19.2946 14.4326 18.9893C13.7809 18.6885 13.4551 18.1895 13.4551 17.4922C13.4551 17.3691 13.4938 17.2666 13.5713 17.1846C13.6533 17.1071 13.7559 17.0684 13.8789 17.0684H14.8975C15.2256 17.0684 15.4876 17.1891 15.6836 17.4307C15.9342 17.7406 16.3786 17.8955 17.0166 17.8955C17.6592 17.8955 18.099 17.7907 18.3359 17.5811C18.5729 17.3714 18.6914 17 18.6914 16.4668V16.1455C17.9622 16.3324 17.2809 16.4258 16.6475 16.4258ZM17.249 11.0254C16.1689 11.0208 15.6289 11.6452 15.6289 12.8984C15.6289 14.1471 16.1553 14.7715 17.208 14.7715C17.6455 14.7715 18.14 14.7031 18.6914 14.5664V11.1758C18.2995 11.071 17.8187 11.0208 17.249 11.0254Z" fill="#333333"/>
</svg>
