<svg width="24" height="24" viewBox="0 0 24 24" fill="none" xmlns="http://www.w3.org/2000/svg">
<path d="M5.66938 14.566C5.66938 14.4073 5.68804 14.258 5.72538 14.118C5.77204 13.9687 5.82804 13.8333 5.89338 13.712C5.96804 13.5067 6.04738 13.2733 6.13138 13.012C6.21538 12.7507 6.31804 12.452 6.43938 12.116C6.43004 12.088 6.42538 12.0553 6.42538 12.018C6.42538 11.9807 6.42538 11.9527 6.42538 11.934C6.42538 11.7473 6.44871 11.5933 6.49538 11.472C6.54204 11.3413 6.64004 11.2293 6.78938 11.136L8.00738 8.28C8.06338 8.168 8.12404 8.042 8.18938 7.902C8.25471 7.762 8.32471 7.636 8.39938 7.524C8.47404 7.40267 8.55338 7.3 8.63738 7.216C8.72138 7.132 8.81004 7.09 8.90338 7.09C9.16471 7.09 9.40271 7.23933 9.61738 7.538C9.83204 7.82733 10.028 8.196 10.2054 8.644C10.392 9.092 10.56 9.58667 10.7094 10.128C10.8587 10.6693 10.994 11.1873 11.1154 11.682C11.246 12.1673 11.3627 12.5967 11.4654 12.97C11.5774 13.3433 11.6847 13.5907 11.7874 13.712C11.8527 13.796 11.9087 13.866 11.9554 13.922C12.002 13.9687 12.0394 14.02 12.0674 14.076C12.0954 14.1227 12.114 14.1833 12.1234 14.258C12.142 14.3233 12.1514 14.412 12.1514 14.524C12.1514 14.6733 12.128 14.79 12.0814 14.874C12.0347 14.9487 11.9787 15.0047 11.9134 15.042C11.8574 15.0887 11.792 15.1167 11.7174 15.126C11.652 15.1353 11.596 15.14 11.5494 15.14C11.456 15.14 11.3674 15.0887 11.2834 14.986C11.1994 14.874 11.12 14.7433 11.0454 14.594C10.98 14.4447 10.9194 14.286 10.8634 14.118C10.8167 13.95 10.7794 13.8053 10.7514 13.684C10.6767 13.4227 10.6114 13.208 10.5554 13.04C10.5087 12.872 10.4574 12.7413 10.4014 12.648C10.3547 12.5547 10.294 12.4893 10.2194 12.452C10.154 12.4147 10.0607 12.396 9.93938 12.396H7.58738C7.52204 12.396 7.46604 12.4007 7.41938 12.41C7.38204 12.4193 7.34471 12.4473 7.30738 12.494C7.27938 12.5313 7.25138 12.5873 7.22338 12.662C7.19538 12.7367 7.15804 12.8393 7.11138 12.97L6.67738 14.216C6.65871 14.4027 6.62604 14.552 6.57938 14.664C6.53271 14.776 6.47671 14.8647 6.41138 14.93C6.35538 14.986 6.29938 15.0233 6.24338 15.042C6.18738 15.07 6.15004 15.084 6.13138 15.084C5.98204 15.084 5.86538 15.0513 5.78138 14.986C5.70671 14.9113 5.66938 14.7713 5.66938 14.566ZM7.78338 11.094C8.05404 11.1033 8.29671 11.1127 8.51138 11.122C8.72604 11.122 8.95471 11.122 9.19738 11.122C9.30938 11.122 9.42604 11.122 9.54738 11.122C9.66871 11.122 9.79938 11.1173 9.93938 11.108C9.87404 10.9213 9.79004 10.7067 9.68738 10.464C9.59404 10.212 9.48671 9.96 9.36538 9.708L8.84738 8.602C8.80071 8.63 8.73071 8.742 8.63738 8.938C8.54404 9.134 8.44138 9.36267 8.32938 9.624C8.22671 9.88533 8.12404 10.1513 8.02138 10.422C7.91871 10.6927 7.83938 10.9167 7.78338 11.094ZM13.228 12.326C13.228 11.8873 13.2746 11.4627 13.368 11.052C13.4706 10.632 13.62 10.2587 13.816 9.932C14.012 9.60533 14.264 9.344 14.572 9.148C14.88 8.952 15.244 8.854 15.664 8.854C16 8.854 16.322 8.938 16.63 9.106C16.938 9.274 17.2086 9.48867 17.442 9.75C17.6846 10.0113 17.876 10.296 18.016 10.604C18.1653 10.912 18.24 11.206 18.24 11.486L18.114 14.524C18.114 14.5427 18.1093 14.5567 18.1 14.566C18.1 14.5753 18.1 14.5893 18.1 14.608C18.044 14.9627 17.9973 15.3407 17.96 15.742C17.9226 16.1527 17.8526 16.5307 17.75 16.876C17.6473 17.2307 17.4886 17.5247 17.274 17.758C17.0593 17.9913 16.742 18.108 16.322 18.108C16.238 18.108 16.1026 18.094 15.916 18.066C15.7293 18.038 15.5426 17.9867 15.356 17.912C15.1693 17.8467 15.0013 17.7533 14.852 17.632C14.712 17.52 14.642 17.3707 14.642 17.184C14.642 16.988 14.6653 16.8247 14.712 16.694C14.768 16.5727 14.88 16.512 15.048 16.512C15.1133 16.512 15.1646 16.526 15.202 16.554C15.2393 16.5913 15.2953 16.6287 15.37 16.666C15.454 16.7033 15.5706 16.736 15.72 16.764C15.8786 16.8013 16.1073 16.82 16.406 16.82C16.6113 16.82 16.7606 16.7267 16.854 16.54C16.9566 16.3627 17.0313 16.1387 17.078 15.868C17.1246 15.6067 17.1573 15.322 17.176 15.014C17.1946 14.706 17.218 14.426 17.246 14.174C17.1993 14.3327 17.1153 14.4727 16.994 14.594C16.8726 14.706 16.7326 14.804 16.574 14.888C16.4153 14.972 16.2473 15.0327 16.07 15.07C15.902 15.1167 15.7433 15.14 15.594 15.14C14.8193 15.14 14.2313 14.9067 13.83 14.44C13.4286 13.9733 13.228 13.2687 13.228 12.326ZM14.124 12.242C14.124 12.578 14.1613 12.858 14.236 13.082C14.32 13.2967 14.432 13.4693 14.572 13.6C14.7213 13.7307 14.894 13.824 15.09 13.88C15.286 13.9267 15.5006 13.95 15.734 13.95C15.9486 13.95 16.1446 13.8893 16.322 13.768C16.4993 13.6467 16.6533 13.4973 16.784 13.32C16.924 13.1333 17.0406 12.9327 17.134 12.718C17.2273 12.5033 17.2973 12.3027 17.344 12.116C17.316 11.892 17.274 11.6633 17.218 11.43C17.1713 11.1873 17.092 10.968 16.98 10.772C16.868 10.576 16.7186 10.4127 16.532 10.282C16.3453 10.1513 16.1073 10.086 15.818 10.086C15.5006 10.086 15.2346 10.1467 15.02 10.268C14.8053 10.38 14.6326 10.5387 14.502 10.744C14.3713 10.94 14.2733 11.1687 14.208 11.43C14.152 11.6913 14.124 11.962 14.124 12.242Z" fill="#333333"/>
</svg>
