<svg width="24" height="24" viewBox="0 0 24 24" fill="none" xmlns="http://www.w3.org/2000/svg">
<path d="M9.46973 14.6846L7.30273 8.01953L5.13574 14.6846H9.46973ZM9.69531 15.3818H4.91016L4.06934 18H2.75L6.27734 7.20605H8.32812L11.8555 18H10.5361L9.69531 15.3818ZM14.084 18.6904C14.084 18.9092 14.1113 19.0846 14.166 19.2168C14.2253 19.349 14.3118 19.4538 14.4258 19.5312C14.5443 19.6133 14.6924 19.693 14.8701 19.7705C15.0524 19.8525 15.4717 19.8936 16.1279 19.8936H16.5791C16.734 19.8936 16.9733 19.8867 17.2969 19.873C17.6159 19.8639 17.9486 19.7933 18.2949 19.6611C18.7415 19.4925 18.9648 19.1917 18.9648 18.7588C18.9648 18.3213 18.819 17.9977 18.5273 17.7881C18.2402 17.583 17.7139 17.4805 16.9482 17.4805H14.7471C14.5374 17.6126 14.3734 17.7926 14.2549 18.0205C14.141 18.2529 14.084 18.4762 14.084 18.6904ZM14.3506 12.3262C14.3506 12.6634 14.4668 13.0257 14.6992 13.4131C14.9362 13.7959 15.237 14.0671 15.6016 14.2266C15.8431 14.2266 16.2738 14.1559 16.8936 14.0146C17.1351 13.9554 17.3652 13.8301 17.584 13.6387C17.903 13.3607 18.0625 12.8548 18.0625 12.1211C18.0625 11.6836 17.944 11.3555 17.707 11.1367C17.4336 10.8906 16.9437 10.7676 16.2373 10.7676C15.7132 10.7676 15.278 10.8678 14.9316 11.0684C14.7493 11.1777 14.6058 11.3304 14.501 11.5264C14.4007 11.7223 14.3506 11.9889 14.3506 12.3262ZM16.374 16.5166C17.012 16.5166 17.5908 16.5645 18.1104 16.6602C18.4066 16.7148 18.6663 16.7946 18.8896 16.8994C19.113 17.0042 19.3158 17.1364 19.498 17.2959C19.6849 17.4508 19.8262 17.6514 19.9219 17.8975C20.0221 18.139 20.0723 18.4238 20.0723 18.752C20.0723 19.0801 19.9902 19.3786 19.8262 19.6475C19.6667 19.9163 19.4639 20.1283 19.2178 20.2832C18.9762 20.4382 18.6891 20.5658 18.3564 20.666C18.0238 20.7663 17.707 20.8324 17.4062 20.8643C17.11 20.9007 16.7614 20.9189 16.3604 20.9189C15.9639 20.9189 15.5651 20.8939 15.1641 20.8438C13.724 20.6615 13.0039 19.9984 13.0039 18.8545C13.0039 18.139 13.3822 17.6104 14.1387 17.2686C13.8971 17.1045 13.7012 16.8926 13.5508 16.6328C13.4004 16.3685 13.3252 16.0791 13.3252 15.7646C13.3252 15.4502 13.4482 15.1654 13.6943 14.9102C13.945 14.6504 14.2458 14.4932 14.5967 14.4385C14.1729 14.2516 13.8424 13.9486 13.6055 13.5293C13.3685 13.1055 13.25 12.6178 13.25 12.0664C13.25 11.5104 13.4688 11.041 13.9062 10.6582C14.5124 10.1296 15.2985 9.86523 16.2646 9.86523C17.0941 9.86523 17.7321 10.0384 18.1787 10.3848C18.484 10.2253 18.7939 10.1227 19.1084 10.0771C19.4274 10.027 19.8125 9.99967 20.2637 9.99512V10.9863H18.6367C19.015 11.2096 19.2041 11.7178 19.2041 12.5107C19.1995 13.3037 18.9421 13.8939 18.4316 14.2812C18.2038 14.4544 17.9417 14.6003 17.6455 14.7188C17.3493 14.8372 17.0462 14.9193 16.7363 14.9648C16.431 15.0104 16.1302 15.056 15.834 15.1016C15.5378 15.1471 15.2734 15.1904 15.041 15.2314C14.8132 15.2679 14.6286 15.334 14.4873 15.4297C14.346 15.5254 14.2754 15.6598 14.2754 15.833C14.2754 16.0062 14.3232 16.25 14.4189 16.5645L16.374 16.5166Z" fill="#333333"/>
</svg>
