<svg width="24" height="24" viewBox="0 0 24 24" fill="none" xmlns="http://www.w3.org/2000/svg">
<path d="M3.36073 13.108L4.87273 14.564V17.994L3.36073 19.366V13.108ZM10.4867 19.366L8.97473 17.924V14.48L10.4867 13.108V19.366ZM4.98473 13.612C4.65807 13.3507 4.32673 13.094 3.99073 12.842L4.98473 12.1H8.80673L9.78673 12.842L8.80673 13.612H4.98473ZM3.76673 5.758H10.0247L8.63874 7.27H5.20873L3.76673 5.758ZM3.31873 12.618V6.36L4.83073 7.718V11.19L3.31873 12.618ZM10.4447 6.36V12.618L8.93273 11.26V7.802L10.4447 6.36ZM14.978 19.982L16.42 18.47H19.878L21.236 19.982H14.978ZM14.558 13.108L16.07 14.564V17.994L14.558 19.366V13.108ZM21.684 19.366L20.172 17.924V14.48L21.684 13.108V19.366ZM16.182 13.612C15.8553 13.3507 15.524 13.094 15.188 12.842L16.182 12.1H20.004L20.984 12.842L20.004 13.612H16.182ZM14.964 5.758H21.222L19.836 7.27H16.406L14.964 5.758ZM14.516 12.618V6.36L16.028 7.718V11.19L14.516 12.618Z" fill="#888888"/>
</svg>
