<svg width="24" height="24" viewBox="0 0 24 24" fill="none" xmlns="http://www.w3.org/2000/svg">
<path d="M14.0245 14.4301V14.7913H7.71607V14.4301H8.33767C8.48327 14.4301 8.60087 14.3993 8.69047 14.3377C8.78567 14.2705 8.83327 14.1725 8.83327 14.0437C8.83327 13.9149 8.75207 13.7497 8.58967 13.5481L8.27887 13.1617H4.55767C4.39527 13.4137 4.31407 13.6377 4.31407 13.8337C4.31407 14.0241 4.37287 14.1725 4.49047 14.2789C4.60807 14.3797 4.75927 14.4301 4.94407 14.4301H5.72527V14.7913H2.06287V14.4301C2.23647 14.4301 2.41847 14.3881 2.60887 14.3041C2.79927 14.2145 2.96727 14.1081 3.11287 13.9849C3.25847 13.8617 3.39287 13.7357 3.51607 13.6069C3.63927 13.4781 3.73167 13.3717 3.79327 13.2877C3.86047 13.2037 3.89407 13.1589 3.89407 13.1533L6.05287 10.4065L5.84287 10.1461C5.70847 9.9837 5.56567 9.8689 5.41447 9.8017C5.26887 9.7289 5.06727 9.6925 4.80967 9.6925H4.14607V9.3313H8.95087L13.0669 14.4301H14.0245ZM9.97567 14.4301H10.6225L6.80047 9.6925H6.15367L9.97567 14.4301ZM4.87687 12.7585H7.95967L6.38047 10.8097L4.87687 12.7585ZM18.5559 14.1529L18.9087 14.1445C19.7487 14.1445 20.4431 14.2257 20.9919 14.3881C21.2999 14.4833 21.5519 14.6457 21.7479 14.8753C21.9439 15.1049 22.0419 15.3821 22.0419 15.7069C22.0419 16.0373 21.9187 16.3369 21.6723 16.6057C21.4259 16.8745 21.1067 17.0733 20.7147 17.2021C20.6139 16.9837 20.3843 16.8129 20.0259 16.6897C19.6731 16.5665 19.2671 16.4909 18.8079 16.4629C18.3543 16.4405 17.8699 16.4041 17.3547 16.3537C16.8395 16.3033 16.3691 16.2389 15.9435 16.1605C15.5179 16.0877 15.1651 15.9393 14.8851 15.7153C14.6051 15.4913 14.4651 15.1945 14.4651 14.8249C14.4651 14.1025 15.0111 13.5789 16.1031 13.2541C15.6159 13.0805 15.2323 12.8621 14.9523 12.5989C14.6723 12.3357 14.5323 12.0529 14.5323 11.7505C14.5323 11.2297 14.8767 10.7957 15.5655 10.4485C16.2543 10.0957 17.1615 9.9193 18.2871 9.9193H18.5055C18.9031 9.1465 19.3343 8.5921 19.7991 8.2561C20.2639 7.9201 20.7847 7.7521 21.3615 7.7521C21.7871 7.7521 22.1511 7.8669 22.4535 8.0965C22.7559 8.3205 22.9071 8.5977 22.9071 8.9281C22.9071 9.2529 22.7531 9.5301 22.4451 9.7597C22.1371 9.9893 21.7787 10.1041 21.3699 10.1041C20.9611 10.1041 20.6055 9.9977 20.3031 9.7849C20.0063 9.5721 19.8243 9.3313 19.7571 9.0625C19.4771 9.2697 19.2139 9.5637 18.9675 9.9445C19.9027 10.0173 20.6475 10.2217 21.2019 10.5577C21.7563 10.8937 22.0335 11.2913 22.0335 11.7505C22.0335 12.2601 21.6667 12.6941 20.9331 13.0525C20.2051 13.4109 19.3231 13.5901 18.2871 13.5901C17.8223 13.5901 17.3715 13.5509 16.9347 13.4725C16.8059 13.5397 16.7415 13.6265 16.7415 13.7329C16.7415 13.9849 17.0943 14.1193 17.7999 14.1361C18.0295 14.1473 18.2815 14.1529 18.5559 14.1529ZM19.1271 10.6753C18.9143 10.4177 18.6343 10.2889 18.2871 10.2889C17.9399 10.2889 17.6571 10.4177 17.4387 10.6753C17.2259 10.9273 17.1195 11.2857 17.1195 11.7505C17.1195 12.2097 17.2399 12.5709 17.4807 12.8341C17.7215 13.0973 17.9903 13.2289 18.2871 13.2289C18.5839 13.2289 18.8527 13.0973 19.0935 12.8341C19.3343 12.5709 19.4547 12.2097 19.4547 11.7505C19.4547 11.2857 19.3455 10.9273 19.1271 10.6753ZM14.9355 14.8081C14.9355 15.5417 15.9211 15.9561 17.8923 16.0513C18.8443 16.0961 19.5079 16.1549 19.8831 16.2277C20.2583 16.3061 20.5607 16.4433 20.7903 16.6393L20.8575 16.6225C20.7903 16.1969 20.4067 15.9197 19.7067 15.7909C19.3931 15.7293 18.7939 15.6789 17.9091 15.6397C16.1843 15.5669 15.2323 15.1749 15.0531 14.4637L14.9943 14.4721C14.9551 14.5841 14.9355 14.6961 14.9355 14.8081ZM15.6327 11.7505C15.6327 11.1905 16.0443 10.7509 16.8675 10.4317L16.8423 10.3561C16.2879 10.5073 15.8511 10.7033 15.5319 10.9441C15.2183 11.1849 15.0615 11.4565 15.0615 11.7589C15.0615 12.0557 15.2211 12.3273 15.5403 12.5737C15.8595 12.8145 16.2963 13.0105 16.8507 13.1617L16.8843 13.0861C16.4923 12.9349 16.1843 12.7445 15.9603 12.5149C15.7419 12.2853 15.6327 12.0305 15.6327 11.7505ZM19.5639 10.4485C19.8439 10.9021 19.9839 11.3389 19.9839 11.7589C19.9839 12.1789 19.8411 12.6213 19.5555 13.0861L19.6143 13.1029C19.8943 12.9461 20.1211 12.7417 20.2947 12.4897C20.4683 12.2321 20.5551 11.9913 20.5551 11.7673C20.5551 11.5377 20.4683 11.2969 20.2947 11.0449C20.1267 10.7929 19.9027 10.5885 19.6227 10.4317L19.5639 10.4485ZM20.7063 9.7513C20.5215 9.5161 20.4291 9.2361 20.4291 8.9113C20.4291 8.5865 20.5215 8.3149 20.7063 8.0965C20.5103 8.1805 20.3507 8.2981 20.2275 8.4493C20.1043 8.5949 20.0427 8.7545 20.0427 8.9281C20.0427 9.0961 20.1043 9.2557 20.2275 9.4069C20.3507 9.5525 20.5103 9.6673 20.7063 9.7513Z" fill="#888888"/>
</svg>
