<svg width="24" height="24" viewBox="0 0 24 24" fill="none" xmlns="http://www.w3.org/2000/svg">
<path d="M2.83979 17L8.14579 7.2H10.1758L12.0238 17H10.1338L9.74179 14.732H5.91979L4.72979 17H2.83979ZM6.63379 13.36H9.51779L8.80379 9.216L6.63379 13.36ZM16.5342 14.928C16.1982 14.928 15.8902 14.8907 15.6102 14.816L15.0782 15.264C15.2462 15.3667 15.4562 15.4507 15.7082 15.516C15.9602 15.572 16.3195 15.6187 16.7862 15.656C17.6729 15.7307 18.3029 15.936 18.6762 16.272C19.0495 16.5987 19.2362 17.0187 19.2362 17.532C19.2362 18.064 19.0775 18.5307 18.7602 18.932C18.4522 19.3427 18.0275 19.6647 17.4862 19.898C16.9449 20.1313 16.3242 20.248 15.6242 20.248C14.7282 20.248 14.0095 20.0847 13.4682 19.758C12.9269 19.4313 12.6562 18.946 12.6562 18.302C12.6562 17.9007 12.7635 17.532 12.9782 17.196C13.2022 16.8693 13.5102 16.5753 13.9022 16.314C13.5942 16.1553 13.3562 15.978 13.1882 15.782L13.2442 15.46L14.6302 14.242C14.2755 13.878 14.0982 13.4207 14.0982 12.87C14.0982 12.3193 14.2475 11.82 14.5462 11.372C14.8449 10.9147 15.2415 10.5553 15.7362 10.294C16.2402 10.0233 16.8002 9.888 17.4162 9.888C17.8082 9.888 18.1629 9.944 18.4802 10.056H21.1122L20.9162 11.148L19.7122 11.232C19.7869 11.456 19.8242 11.694 19.8242 11.946C19.8242 12.506 19.6749 13.01 19.3762 13.458C19.0869 13.906 18.6902 14.2653 18.1862 14.536C17.6915 14.7973 17.1409 14.928 16.5342 14.928ZM16.7722 13.57C17.2109 13.57 17.5702 13.4393 17.8502 13.178C18.1395 12.9167 18.2842 12.5807 18.2842 12.17C18.2842 11.8807 18.1815 11.6567 17.9762 11.498C17.7709 11.3393 17.5049 11.26 17.1782 11.26C16.7302 11.26 16.3615 11.3953 16.0722 11.666C15.7922 11.9273 15.6522 12.2587 15.6522 12.66C15.6522 12.9493 15.7502 13.1733 15.9462 13.332C16.1515 13.4907 16.4269 13.57 16.7722 13.57ZM14.3502 17.952C14.3502 18.26 14.4855 18.4933 14.7562 18.652C15.0362 18.8107 15.4002 18.89 15.8482 18.89C16.3242 18.89 16.7255 18.7873 17.0522 18.582C17.3882 18.386 17.5562 18.1013 17.5562 17.728C17.5562 17.5133 17.4722 17.3267 17.3042 17.168C17.1455 17.0093 16.8282 16.916 16.3522 16.888C15.9695 16.86 15.6102 16.8133 15.2742 16.748C14.9569 16.9067 14.7235 17.0887 14.5742 17.294C14.4249 17.5087 14.3502 17.728 14.3502 17.952Z" fill="#888888"/>
</svg>
