<svg width="24" height="24" viewBox="0 0 24 24" fill="none" xmlns="http://www.w3.org/2000/svg">
<path d="M3.39488 17V16.706L3.77288 16.594C3.96888 16.538 4.11821 16.454 4.22087 16.342C4.33288 16.23 4.42154 16.076 4.48688 15.88L7.31488 7.704H8.47688L11.2909 15.936C11.3655 16.1413 11.4495 16.3 11.5429 16.412C11.6362 16.5147 11.7855 16.5987 11.9909 16.664L12.2009 16.72V17H8.64488V16.72L8.88288 16.65C9.08821 16.5847 9.20954 16.482 9.24688 16.342C9.29354 16.202 9.28421 16.0293 9.21888 15.824L8.63088 14.018H5.53688L4.93488 15.796C4.86954 16.0013 4.85088 16.1693 4.87888 16.3C4.90688 16.4307 5.02354 16.5333 5.22888 16.608L5.53688 16.706V17H3.39488ZM5.67688 13.612H8.50488L7.13288 9.398L5.67688 13.612ZM15.6383 14.606C15.0223 14.606 14.495 14.5033 14.0563 14.298V14.802C14.0563 15.082 14.1963 15.25 14.4763 15.306L16.9683 15.768C17.4443 15.8613 17.8643 15.978 18.2283 16.118C18.5923 16.2487 18.877 16.44 19.0823 16.692C19.2876 16.9347 19.3903 17.266 19.3903 17.686C19.3903 18.134 19.241 18.5493 18.9423 18.932C18.653 19.324 18.219 19.6367 17.6403 19.87C17.071 20.1127 16.357 20.234 15.4983 20.234C14.761 20.234 14.173 20.1547 13.7343 19.996C13.305 19.8467 12.997 19.6507 12.8103 19.408C12.6236 19.1653 12.5303 18.904 12.5303 18.624C12.5303 18.288 12.6423 17.952 12.8663 17.616C13.0996 17.28 13.3983 17 13.7623 16.776C13.193 16.5613 12.9083 16.2207 12.9083 15.754C12.9083 15.5767 12.9503 15.4133 13.0343 15.264C13.1183 15.1147 13.221 14.9653 13.3423 14.816L13.8463 14.186C13.1743 13.794 12.8383 13.1827 12.8383 12.352C12.8383 11.6707 13.0763 11.12 13.5523 10.7C14.0376 10.28 14.733 10.07 15.6383 10.07C16.5436 10.07 17.2436 10.28 17.7383 10.7C18.037 10.6533 18.317 10.5787 18.5783 10.476C18.8396 10.3733 19.0823 10.2333 19.3063 10.056L19.5023 10.196V10.98H17.9903C18.289 11.3533 18.4383 11.8107 18.4383 12.352C18.4383 13.0147 18.1956 13.556 17.7103 13.976C17.2343 14.396 16.5436 14.606 15.6383 14.606ZM15.6103 14.228C16.0023 14.228 16.287 14.0787 16.4643 13.78C16.651 13.472 16.7443 12.982 16.7443 12.31C16.7443 11.6473 16.6556 11.1713 16.4783 10.882C16.301 10.5927 16.0256 10.448 15.6523 10.448C15.279 10.448 14.999 10.5973 14.8123 10.896C14.635 11.1853 14.5463 11.666 14.5463 12.338C14.5463 13.01 14.6303 13.4953 14.7983 13.794C14.9663 14.0833 15.237 14.228 15.6103 14.228ZM13.6223 18.218C13.6223 18.7313 13.7856 19.114 14.1123 19.366C14.439 19.6273 14.957 19.758 15.6663 19.758C16.4503 19.758 17.029 19.6273 17.4023 19.366C17.785 19.114 17.9763 18.778 17.9763 18.358C17.9763 18.0967 17.8783 17.8913 17.6823 17.742C17.4956 17.5927 17.1783 17.476 16.7303 17.392L14.2243 16.902C14.187 16.8927 14.1496 16.8833 14.1123 16.874C13.9723 17.0607 13.8556 17.2753 13.7623 17.518C13.669 17.7607 13.6223 17.994 13.6223 18.218Z" fill="#888888"/>
</svg>
