<svg width="24" height="24" viewBox="0 0 24 24" fill="none" xmlns="http://www.w3.org/2000/svg">
<path d="M5.40986 16.2164C5.17908 16.2164 4.9555 16.1298 4.73914 15.9567C4.5372 15.7836 4.43623 15.5601 4.43623 15.286C4.43623 15.1706 4.45786 15.048 4.50114 14.9182L7.22732 7.79982C7.32829 7.54018 7.49417 7.34545 7.72496 7.21564C7.95574 7.08582 8.19374 7.02091 8.43896 7.02091C8.69859 7.02091 8.9438 7.08582 9.17459 7.21564C9.4198 7.34545 9.5929 7.54018 9.69387 7.79982L12.6148 14.8749C12.6436 14.9326 12.658 14.9903 12.658 15.048C12.658 15.1057 12.658 15.1634 12.658 15.2211C12.658 15.524 12.5571 15.762 12.3551 15.9351C12.1532 16.1082 11.9296 16.1947 11.6844 16.1947C11.5113 16.1947 11.3382 16.1442 11.1651 16.0433C11.0065 15.9567 10.8911 15.8125 10.819 15.6105L10.1915 13.9229C10.1771 13.8364 10.1194 13.7931 10.0184 13.7931H7.0975C6.99653 13.7931 6.93162 13.8364 6.90277 13.9229L6.29696 15.6322C6.19599 15.8197 6.06617 15.9639 5.9075 16.0649C5.74883 16.1659 5.58296 16.2164 5.40986 16.2164ZM7.87641 12.1055H9.15296C9.2395 12.1055 9.30441 12.0766 9.34768 12.0189C9.40538 11.9468 9.4198 11.8602 9.39096 11.7593L8.82841 10.2231C8.74187 9.9923 8.63368 9.87691 8.50386 9.87691C8.37405 9.87691 8.26586 9.99951 8.17932 10.2447L7.63841 11.7809C7.60956 11.8675 7.61677 11.9468 7.66005 12.0189C7.70332 12.0766 7.77544 12.1055 7.87641 12.1055ZM16.5776 19.1373C16.1737 19.1373 15.7843 19.094 15.4092 19.0075C15.0342 18.9353 14.6952 18.8199 14.3923 18.6613C14.0462 18.4738 13.8731 18.1853 13.8731 17.7958C13.8731 17.5506 13.9596 17.3342 14.1327 17.1467C14.3058 16.9736 14.5077 16.8871 14.7385 16.8871C14.926 16.8871 15.0919 16.9304 15.2362 17.0169C15.4669 17.1467 15.7049 17.2405 15.9502 17.2982C16.2098 17.3559 16.4622 17.3847 16.7074 17.3847C17.2555 17.3847 17.6594 17.2621 17.9191 17.0169C18.1931 16.7717 18.3302 16.4472 18.3302 16.0433V15.5456C17.8686 15.9928 17.2988 16.2164 16.6209 16.2164C15.6545 16.2164 14.8755 15.9135 14.2842 15.3076C13.7072 14.6874 13.4187 13.8652 13.4187 12.8411C13.4187 11.817 13.7 11.0092 14.2625 10.4178C14.8395 9.812 15.604 9.50909 16.556 9.50909C17.2483 9.50909 17.8469 9.77594 18.3518 10.3096C18.3951 10.1077 18.496 9.94182 18.6547 9.812C18.8278 9.68218 19.0369 9.61727 19.2822 9.61727C19.5706 9.61727 19.8014 9.70382 19.9745 9.87691C20.1476 10.05 20.2342 10.2664 20.2342 10.526V16.0865C20.2342 17.0097 19.9096 17.7453 19.2605 18.2935C18.6259 18.856 17.7315 19.1373 16.5776 19.1373ZM16.7723 14.4638C17.2051 14.4638 17.5512 14.3124 17.8109 14.0095C18.0849 13.6921 18.222 13.3027 18.222 12.8411C18.222 12.3651 18.0849 11.9828 17.8109 11.6944C17.5512 11.4059 17.2051 11.2616 16.7723 11.2616C16.3252 11.2616 15.9646 11.4059 15.6905 11.6944C15.4309 11.9828 15.3011 12.3651 15.3011 12.8411C15.3011 13.3027 15.4309 13.6921 15.6905 14.0095C15.9646 14.3124 16.3252 14.4638 16.7723 14.4638Z" fill="#888888"/>
</svg>
