<svg width="24" height="24" viewBox="0 0 24 24" fill="none" xmlns="http://www.w3.org/2000/svg">
<path d="M5.86669 17C5.79202 17 5.71269 16.986 5.62869 16.958C5.54469 16.9207 5.47469 16.874 5.41869 16.818C5.36269 16.7527 5.33469 16.6827 5.33469 16.608C5.33469 16.5707 5.33935 16.538 5.34869 16.51L8.27469 7.018C8.31202 6.89667 8.38202 6.81267 8.48469 6.766C8.58735 6.71 8.69935 6.682 8.82069 6.682C8.95135 6.682 9.06802 6.71 9.17069 6.766C9.28269 6.822 9.35269 6.906 9.38069 7.018L12.2927 16.51C12.302 16.538 12.3067 16.566 12.3067 16.594C12.3067 16.6687 12.2787 16.7387 12.2227 16.804C12.1667 16.86 12.0967 16.9067 12.0127 16.944C11.9287 16.9813 11.84 17 11.7467 17C11.672 17 11.602 16.9813 11.5367 16.944C11.4714 16.9067 11.4247 16.846 11.3967 16.762L10.7527 14.606H6.88869L6.24469 16.762C6.21669 16.846 6.17002 16.9067 6.10469 16.944C6.03935 16.9813 5.96002 17 5.86669 17ZM7.11269 13.808H10.5147L8.82069 8.166L7.11269 13.808ZM15.8079 20.248C15.2572 20.248 14.7672 20.1687 14.3379 20.01C13.9179 19.8607 13.5819 19.646 13.3299 19.366C13.0872 19.0953 12.9659 18.7687 12.9659 18.386C12.9659 17.9753 13.0872 17.6487 13.3299 17.406C13.5726 17.1633 13.8479 16.9813 14.1559 16.86C13.9319 16.776 13.7452 16.664 13.5959 16.524C13.4559 16.3747 13.3859 16.1647 13.3859 15.894C13.3859 15.6327 13.4512 15.4273 13.5819 15.278C13.7126 15.1193 13.8806 14.9887 14.0859 14.886C13.8339 14.6807 13.6379 14.4287 13.4979 14.13C13.3672 13.822 13.3019 13.486 13.3019 13.122V12.59C13.3019 12.142 13.3999 11.7453 13.5959 11.4C13.8012 11.0547 14.0859 10.784 14.4499 10.588C14.8139 10.392 15.2386 10.294 15.7239 10.294C16.0506 10.294 16.3539 10.3453 16.6339 10.448C16.9139 10.5507 17.1566 10.6953 17.3619 10.882C17.5019 10.5927 17.6606 10.3733 17.8379 10.224C18.0152 10.0747 18.1832 10 18.3419 10C18.4912 10 18.5986 10.042 18.6639 10.126C18.7386 10.2007 18.7759 10.28 18.7759 10.364C18.7759 10.448 18.7526 10.518 18.7059 10.574C18.6592 10.6207 18.6032 10.6533 18.5379 10.672C18.4259 10.6907 18.2952 10.742 18.1459 10.826C18.0059 10.91 17.8752 11.0593 17.7539 11.274C17.8846 11.4513 17.9826 11.652 18.0479 11.876C18.1132 12.1 18.1459 12.338 18.1459 12.59V13.122C18.1459 13.5607 18.0432 13.9573 17.8379 14.312C17.6326 14.6667 17.3432 14.9467 16.9699 15.152C16.6059 15.348 16.1859 15.446 15.7099 15.446C15.3086 15.446 14.9492 15.3667 14.6319 15.208C14.5292 15.264 14.4312 15.334 14.3379 15.418C14.2446 15.4927 14.1979 15.6047 14.1979 15.754C14.1979 15.9593 14.3052 16.1087 14.5199 16.202C14.7346 16.2953 15.0052 16.3607 15.3319 16.398C15.6586 16.4353 16.0039 16.4773 16.3679 16.524C16.7412 16.5613 17.0912 16.636 17.4179 16.748C17.7539 16.86 18.0246 17.0327 18.2299 17.266C18.4446 17.4993 18.5519 17.8307 18.5519 18.26C18.5519 18.6987 18.4306 19.0627 18.1879 19.352C17.9546 19.6507 17.6326 19.8747 17.2219 20.024C16.8112 20.1733 16.3399 20.248 15.8079 20.248ZM15.7939 19.562C16.3819 19.562 16.8392 19.4453 17.1659 19.212C17.4926 18.9787 17.6559 18.6707 17.6559 18.288C17.6559 17.9893 17.5672 17.7607 17.3899 17.602C17.2126 17.4527 16.9839 17.3453 16.7039 17.28C16.4332 17.2147 16.1486 17.168 15.8499 17.14C15.5606 17.112 15.3086 17.084 15.0939 17.056C14.7672 17.1587 14.4779 17.308 14.2259 17.504C13.9739 17.7 13.8479 17.966 13.8479 18.302C13.8479 18.6753 14.0206 18.9787 14.3659 19.212C14.7112 19.4453 15.1872 19.562 15.7939 19.562ZM15.7379 14.76C16.2046 14.76 16.5732 14.606 16.8439 14.298C17.1146 13.9807 17.2499 13.5887 17.2499 13.122V12.59C17.2499 12.1327 17.1146 11.75 16.8439 11.442C16.5826 11.134 16.2092 10.98 15.7239 10.98C15.2386 10.98 14.8606 11.134 14.5899 11.442C14.3286 11.75 14.1979 12.1327 14.1979 12.59V13.108C14.1979 13.5747 14.3332 13.9667 14.6039 14.284C14.8746 14.6013 15.2526 14.76 15.7379 14.76Z" fill="#888888"/>
</svg>
