<svg width="24" height="24" viewBox="0 0 24 24" fill="none" xmlns="http://www.w3.org/2000/svg">
<path d="M10.0439 17L9.36035 14.6211H5.91504L5.22461 17H3.08496L6.33203 6.96484H8.92285L12.1836 17H10.0439ZM8.86816 12.8438L8.22559 10.6562C8.19824 10.5742 8.15723 10.4398 8.10254 10.2529C8.04785 10.0661 7.98861 9.861 7.9248 9.6377C7.86556 9.40983 7.80859 9.18197 7.75391 8.9541C7.69922 8.72624 7.66048 8.53255 7.6377 8.37305C7.61947 8.47331 7.5944 8.5918 7.5625 8.72852C7.53516 8.86523 7.50098 9.01107 7.45996 9.16602C7.4235 9.31641 7.38477 9.46908 7.34375 9.62402C7.30273 9.77897 7.264 9.9248 7.22754 10.0615C7.19108 10.1982 7.1569 10.319 7.125 10.4238C7.09766 10.5286 7.07715 10.6061 7.06348 10.6562L6.42773 12.8438H8.86816ZM19.6074 9.37109V10.5059L18.4932 10.8545C18.5843 11.0094 18.6481 11.1712 18.6846 11.3398C18.721 11.5039 18.7393 11.6816 18.7393 11.873C18.7393 12.2604 18.6777 12.6159 18.5547 12.9395C18.4316 13.2585 18.2493 13.5319 18.0078 13.7598C17.7663 13.9876 17.4632 14.1654 17.0986 14.293C16.734 14.416 16.3102 14.4775 15.8271 14.4775C15.7223 14.4775 15.6084 14.473 15.4854 14.4639C15.3623 14.4502 15.2712 14.4365 15.2119 14.4229C15.1208 14.5003 15.0479 14.5824 14.9932 14.6689C14.943 14.751 14.918 14.8512 14.918 14.9697C14.918 15.0654 14.9476 15.1429 15.0068 15.2021C15.0661 15.2568 15.1436 15.3024 15.2393 15.3389C15.335 15.3708 15.4466 15.3936 15.5742 15.4072C15.7018 15.4163 15.834 15.4209 15.9707 15.4209H17.1602C17.5293 15.4209 17.8597 15.4642 18.1514 15.5508C18.443 15.6328 18.6891 15.7604 18.8896 15.9336C19.0947 16.1068 19.252 16.3278 19.3613 16.5967C19.4707 16.861 19.5254 17.1777 19.5254 17.5469C19.5254 17.9798 19.4388 18.3695 19.2656 18.7158C19.0924 19.0667 18.8327 19.363 18.4863 19.6045C18.1445 19.8506 17.7184 20.0374 17.208 20.165C16.6976 20.2972 16.1074 20.3633 15.4375 20.3633C14.918 20.3633 14.4645 20.3132 14.0771 20.2129C13.6898 20.1172 13.3662 19.9759 13.1064 19.7891C12.8467 19.6068 12.6507 19.3857 12.5186 19.126C12.391 18.8662 12.3271 18.5723 12.3271 18.2441C12.3271 17.9661 12.375 17.7246 12.4707 17.5195C12.5664 17.3145 12.694 17.139 12.8535 16.9932C13.013 16.8473 13.193 16.7288 13.3936 16.6377C13.5986 16.5465 13.8083 16.4759 14.0225 16.4258C13.9268 16.3848 13.8311 16.3278 13.7354 16.2549C13.6442 16.182 13.5599 16.0977 13.4824 16.002C13.4095 15.9062 13.348 15.8014 13.2979 15.6875C13.2523 15.569 13.2295 15.446 13.2295 15.3184C13.2295 15.1725 13.25 15.0404 13.291 14.9219C13.3366 14.8034 13.4004 14.694 13.4824 14.5938C13.5645 14.4889 13.667 14.391 13.79 14.2998C13.9131 14.2087 14.0521 14.1152 14.207 14.0195C13.806 13.8464 13.487 13.5684 13.25 13.1855C13.0176 12.8027 12.9014 12.3516 12.9014 11.832C12.9014 11.4219 12.9652 11.055 13.0928 10.7314C13.2204 10.4079 13.4072 10.1344 13.6533 9.91113C13.8994 9.68327 14.2048 9.51009 14.5693 9.3916C14.9339 9.27311 15.3532 9.21387 15.8271 9.21387C15.9183 9.21387 16.0208 9.2207 16.1348 9.23438C16.2487 9.24349 16.3604 9.25716 16.4697 9.27539C16.5837 9.28906 16.6885 9.30501 16.7842 9.32324C16.8799 9.34147 16.9551 9.35742 17.0098 9.37109H19.6074ZM14.1387 18.0801C14.1387 18.194 14.1615 18.3034 14.207 18.4082C14.2572 18.5176 14.3369 18.6133 14.4463 18.6953C14.5557 18.7773 14.6992 18.8411 14.877 18.8867C15.0547 18.9368 15.2734 18.9619 15.5332 18.9619C16.2441 18.9619 16.7796 18.8617 17.1396 18.6611C17.4997 18.4606 17.6797 18.1917 17.6797 17.8545C17.6797 17.5674 17.568 17.376 17.3447 17.2803C17.1214 17.1846 16.7751 17.1367 16.3057 17.1367H15.3418C15.2188 17.1367 15.0866 17.1504 14.9453 17.1777C14.804 17.2096 14.6742 17.262 14.5557 17.335C14.4372 17.4079 14.3369 17.5036 14.2549 17.6221C14.1774 17.7451 14.1387 17.8978 14.1387 18.0801ZM14.8906 11.8594C14.8906 12.2741 14.9681 12.5954 15.123 12.8232C15.278 13.0511 15.5127 13.165 15.8271 13.165C16.1553 13.165 16.3923 13.0511 16.5381 12.8232C16.6839 12.5954 16.7568 12.2741 16.7568 11.8594C16.7568 11.4492 16.6839 11.1234 16.5381 10.8818C16.3968 10.6403 16.1598 10.5195 15.8271 10.5195C15.2028 10.5195 14.8906 10.9661 14.8906 11.8594Z" fill="#333333"/>
</svg>
