<svg width="24" height="24" viewBox="0 0 24 24" fill="none" xmlns="http://www.w3.org/2000/svg">
<path d="M12.375 12.3496H13.0654L12.7715 12.9785H12.1152L10.8438 16H9.93457L11.1992 12.9785H8.22559C8.20736 13.015 8.18913 13.0492 8.1709 13.0811C8.15723 13.1084 8.14128 13.138 8.12305 13.1699C7.77214 13.8034 7.42806 14.3138 7.09082 14.7012C6.75358 15.084 6.43001 15.3825 6.12012 15.5967C5.81022 15.8063 5.51855 15.9453 5.24512 16.0137C4.97168 16.0866 4.72103 16.123 4.49316 16.123C4.2972 16.123 4.11719 16.0911 3.95312 16.0273C3.78451 15.9681 3.63867 15.8838 3.51562 15.7744C3.39258 15.6605 3.29688 15.5215 3.22852 15.3574C3.1556 15.1934 3.11914 15.0088 3.11914 14.8037C3.11914 14.4163 3.22168 14.07 3.42676 13.7646C3.62728 13.4593 3.90755 13.2018 4.26758 12.9922C4.6276 12.7826 5.05599 12.623 5.55273 12.5137C6.05404 12.4043 6.60091 12.3496 7.19336 12.3496H7.6377C8.12988 11.5111 8.57878 10.7773 8.98438 10.1484C9.38997 9.51953 9.76367 8.97721 10.1055 8.52148C10.4473 8.06576 10.7594 7.6875 11.042 7.38672C11.3291 7.08594 11.598 6.84896 11.8486 6.67578C12.0993 6.49805 12.3363 6.375 12.5596 6.30664C12.7874 6.23372 13.0107 6.19727 13.2295 6.19727C13.5166 6.19727 13.7445 6.28385 13.9131 6.45703C14.0817 6.62565 14.166 6.89681 14.166 7.27051C14.166 7.53483 14.1204 7.84701 14.0293 8.20703C13.9382 8.56706 13.7923 8.98633 13.5918 9.46484L12.375 12.3496ZM13.1543 6.4502C13.0039 6.4502 12.8581 6.4707 12.7168 6.51172C12.5755 6.54818 12.4206 6.63249 12.252 6.76465C12.0833 6.89681 11.8919 7.09277 11.6777 7.35254C11.4681 7.60775 11.2174 7.9541 10.9258 8.3916C10.6387 8.8291 10.3037 9.37142 9.9209 10.0186C9.53809 10.6611 9.09147 11.4382 8.58105 12.3496H11.459L12.6689 9.46484C12.9333 8.82682 13.1429 8.29818 13.2979 7.87891C13.4574 7.45508 13.5371 7.1224 13.5371 6.88086C13.5371 6.73503 13.5075 6.62793 13.4482 6.55957C13.389 6.48665 13.291 6.4502 13.1543 6.4502ZM4.54785 15.7812C4.84863 15.7812 5.11751 15.7083 5.35449 15.5625C5.59603 15.4121 5.81706 15.2161 6.01758 14.9746C6.22266 14.7331 6.41406 14.4596 6.5918 14.1543C6.77409 13.849 6.9541 13.5391 7.13184 13.2246L7.27539 12.9785H6.87207C6.22038 12.9785 5.67578 13.0309 5.23828 13.1357C4.80078 13.236 4.44987 13.3704 4.18555 13.5391C3.92122 13.7077 3.73438 13.9014 3.625 14.1201C3.51107 14.3343 3.4541 14.5531 3.4541 14.7764C3.4541 14.904 3.47461 15.0293 3.51562 15.1523C3.55208 15.2708 3.61361 15.3779 3.7002 15.4736C3.78678 15.5648 3.90072 15.64 4.04199 15.6992C4.17871 15.7539 4.34733 15.7812 4.54785 15.7812ZM18.4453 13.5049C18.2266 13.7783 18.0169 14.029 17.8164 14.2568C17.6159 14.4847 17.4154 14.6989 17.2148 14.8994C17.0189 15.0954 16.8206 15.2822 16.6201 15.46C16.4196 15.6377 16.21 15.8177 15.9912 16L15.335 17.5791C15.1891 17.93 15.0387 18.2467 14.8838 18.5293C14.7334 18.8118 14.5716 19.0511 14.3984 19.2471C14.2253 19.443 14.0384 19.5934 13.8379 19.6982C13.6374 19.8031 13.4163 19.8555 13.1748 19.8555C13.0153 19.8555 12.8809 19.8281 12.7715 19.7734C12.6621 19.7233 12.5732 19.6572 12.5049 19.5752C12.4365 19.4932 12.3887 19.402 12.3613 19.3018C12.3294 19.2015 12.3135 19.1058 12.3135 19.0146C12.3135 18.7139 12.3978 18.4359 12.5664 18.1807C12.735 17.93 12.9561 17.6885 13.2295 17.4561C13.4984 17.2236 13.8014 16.9912 14.1387 16.7588C14.4714 16.5309 14.8063 16.2871 15.1436 16.0273L16.4834 12.8008C16.5107 12.7324 16.5244 12.6914 16.5244 12.6777C16.5244 12.6322 16.5085 12.6094 16.4766 12.6094C16.4355 12.6094 16.3923 12.6436 16.3467 12.7119C16.3193 12.7484 16.2646 12.8258 16.1826 12.9443C16.1006 13.0628 16.0003 13.2041 15.8818 13.3682C15.7633 13.5322 15.6357 13.71 15.499 13.9014C15.3623 14.0928 15.2256 14.2796 15.0889 14.4619C14.9521 14.6442 14.8223 14.8105 14.6992 14.9609C14.5762 15.1113 14.4714 15.2298 14.3848 15.3164C14.166 15.5352 13.9723 15.7083 13.8037 15.8359C13.6351 15.959 13.4688 16.0205 13.3047 16.0205C13.25 16.0205 13.1908 16.0091 13.127 15.9863C13.0586 15.9635 12.9971 15.9248 12.9424 15.8701C12.8831 15.8109 12.8353 15.7311 12.7988 15.6309C12.7624 15.526 12.7441 15.3939 12.7441 15.2344C12.7441 14.9974 12.7988 14.7354 12.9082 14.4482C13.013 14.1611 13.1589 13.8695 13.3457 13.5732C13.5326 13.2725 13.7536 12.9785 14.0088 12.6914C14.264 12.4043 14.5397 12.1468 14.8359 11.9189C15.1367 11.6865 15.4512 11.4928 15.7793 11.3379C16.1074 11.1829 16.4401 11.0895 16.7773 11.0576V11.1807C16.4993 11.2627 16.2327 11.3903 15.9775 11.5635C15.7223 11.7321 15.4831 11.9281 15.2598 12.1514C15.0365 12.3747 14.8337 12.6139 14.6514 12.8691C14.4691 13.1198 14.3118 13.3682 14.1797 13.6143C14.0475 13.8604 13.9473 14.0951 13.8789 14.3184C13.806 14.5371 13.7695 14.7217 13.7695 14.8721C13.7695 14.9541 13.7832 15.0225 13.8105 15.0771C13.8333 15.1318 13.8675 15.1592 13.9131 15.1592C13.9632 15.1592 14.0384 15.1182 14.1387 15.0361C14.2344 14.9541 14.346 14.8447 14.4736 14.708C14.6012 14.5667 14.7402 14.4072 14.8906 14.2295C15.041 14.0472 15.1937 13.8581 15.3486 13.6621C15.5036 13.4661 15.6562 13.2679 15.8066 13.0674C15.9616 12.8669 16.1051 12.6777 16.2373 12.5C16.4378 12.2266 16.6042 12.001 16.7363 11.8232C16.873 11.6455 16.9893 11.5042 17.085 11.3994C17.1852 11.29 17.2741 11.2148 17.3516 11.1738C17.429 11.1328 17.5133 11.1123 17.6045 11.1123C17.7002 11.1123 17.7663 11.1374 17.8027 11.1875C17.8392 11.2376 17.8574 11.2992 17.8574 11.3721C17.8574 11.4313 17.8483 11.4928 17.8301 11.5566C17.8164 11.6204 17.7982 11.6774 17.7754 11.7275L16.1895 15.5283C16.4902 15.2686 16.8115 14.9655 17.1533 14.6191C17.4997 14.2682 17.8734 13.8512 18.2744 13.3682L18.4453 13.5049ZM14.9727 16.4443C14.6081 16.7087 14.2777 16.9456 13.9814 17.1553C13.6852 17.3695 13.4346 17.5723 13.2295 17.7637C13.0199 17.9596 12.8604 18.1579 12.751 18.3584C12.637 18.5589 12.5801 18.7799 12.5801 19.0215C12.5801 19.0853 12.5892 19.1514 12.6074 19.2197C12.6257 19.2881 12.6553 19.3496 12.6963 19.4043C12.7327 19.459 12.7829 19.5023 12.8467 19.5342C12.9105 19.5706 12.988 19.5889 13.0791 19.5889C13.307 19.5889 13.5166 19.4613 13.708 19.2061C13.8949 18.9508 14.0771 18.609 14.2549 18.1807L14.9727 16.4443Z" fill="#333333"/>
</svg>
