<svg width="24" height="24" viewBox="0 0 24 24" fill="none" xmlns="http://www.w3.org/2000/svg">
<path d="M3.72891 17.07C3.61691 17.07 3.52357 17.0513 3.44891 17.014C3.37424 16.986 3.33691 16.9393 3.33691 16.874C3.33691 16.7993 3.37424 16.7387 3.44891 16.692C3.52357 16.6453 3.62624 16.5987 3.75691 16.552C4.00891 16.4773 4.23757 16.3653 4.44291 16.216C4.64824 16.0667 4.81624 15.838 4.94691 15.53C5.19891 14.9607 5.43224 14.4193 5.64691 13.906C5.86157 13.3833 6.06691 12.87 6.26291 12.366C6.45891 11.862 6.65957 11.344 6.86491 10.812C7.07024 10.2707 7.28024 9.69667 7.49491 9.09C7.57891 8.87533 7.63957 8.698 7.67691 8.558C7.71424 8.40867 7.73757 8.278 7.74691 8.166C7.86824 8.138 7.98024 8.11 8.08291 8.082C8.18557 8.04467 8.29757 7.99333 8.41891 7.928C8.53091 7.872 8.61491 7.79267 8.67091 7.69C8.73624 7.578 8.78757 7.49867 8.82491 7.452C8.84357 7.44267 8.86224 7.438 8.88091 7.438C8.90891 7.42867 8.93224 7.44267 8.95091 7.48C8.97891 7.52667 8.99757 7.578 9.00691 7.634C9.02557 7.69 9.04424 7.75067 9.06291 7.816C9.27757 8.49733 9.49691 9.19267 9.72091 9.902C9.95424 10.602 10.1829 11.288 10.4069 11.96C10.6309 12.632 10.8409 13.2573 11.0369 13.836C11.2329 14.4053 11.4009 14.9047 11.5409 15.334C11.6436 15.642 11.7649 15.88 11.9049 16.048C12.0449 16.2067 12.1942 16.328 12.3529 16.412C12.5116 16.4867 12.6842 16.5427 12.8709 16.58C13.0109 16.608 13.1136 16.65 13.1789 16.706C13.2536 16.762 13.2909 16.8273 13.2909 16.902C13.2909 16.958 13.2536 16.9953 13.1789 17.014C13.1136 17.042 13.0296 17.056 12.9269 17.056C12.7776 17.056 12.5816 17.0467 12.3389 17.028C12.0962 17.0187 11.8442 17.0093 11.5829 17C11.3216 16.9907 11.0836 16.986 10.8689 16.986C10.6916 16.986 10.4956 16.986 10.2809 16.986C10.0662 16.986 9.86091 16.9907 9.66491 17C9.47824 17.0093 9.31491 17.014 9.17491 17.014C9.06291 17.014 8.96957 17 8.89491 16.972C8.82957 16.9347 8.79691 16.888 8.79691 16.832C8.79691 16.7573 8.83891 16.6967 8.92291 16.65C9.00691 16.6033 9.10491 16.5707 9.21691 16.552C9.53424 16.496 9.76291 16.412 9.90291 16.3C10.0522 16.188 10.1129 16.0387 10.0849 15.852C10.0756 15.6933 10.0429 15.4973 9.98691 15.264C9.93091 15.0213 9.86557 14.7693 9.79091 14.508C9.71624 14.2373 9.64624 13.99 9.58091 13.766C9.56224 13.6913 9.52957 13.6447 9.48291 13.626C9.43624 13.6073 9.35691 13.598 9.24491 13.598H6.65491C6.60824 13.598 6.56624 13.6167 6.52891 13.654C6.49157 13.682 6.45424 13.7427 6.41691 13.836C6.38891 13.948 6.34224 14.0927 6.27691 14.27C6.22091 14.438 6.16491 14.62 6.10891 14.816C6.05291 15.0027 6.00157 15.18 5.95491 15.348C5.91757 15.5067 5.89424 15.6233 5.88491 15.698C5.85691 15.9313 5.91291 16.118 6.05291 16.258C6.20224 16.3887 6.42157 16.4913 6.71091 16.566C6.99091 16.6407 7.13091 16.734 7.13091 16.846C7.13091 16.9113 7.09357 16.958 7.01891 16.986C6.95357 17.0047 6.86491 17.014 6.75291 17.014C6.57557 17.014 6.37024 17.0093 6.13691 17C5.90357 16.9907 5.65624 16.986 5.39491 16.986C5.09624 16.986 4.80691 17 4.52691 17.028C4.24691 17.056 3.98091 17.07 3.72891 17.07ZM7.04691 13.024H9.09091C9.22157 13.024 9.28691 13.0007 9.28691 12.954C9.28691 12.926 9.28224 12.9027 9.27291 12.884C9.27291 12.8653 9.26824 12.8373 9.25891 12.8L8.22291 9.482C8.17624 9.33267 8.13891 9.258 8.11091 9.258C8.09224 9.258 8.05957 9.328 8.01291 9.468L6.79491 12.8C6.77624 12.856 6.76691 12.8933 6.76691 12.912C6.76691 12.9587 6.79024 12.9913 6.83691 13.01C6.89291 13.0193 6.96291 13.024 7.04691 13.024ZM16.037 21.06C15.2063 21.06 14.5483 20.9107 14.063 20.612C13.587 20.3133 13.349 19.912 13.349 19.408C13.349 19.1467 13.3863 18.932 13.461 18.764C13.5357 18.596 13.6617 18.442 13.839 18.302C13.9883 18.19 14.161 18.0547 14.357 17.896C14.5623 17.7373 14.763 17.5833 14.959 17.434L15.589 17.532C15.1877 17.7747 14.903 18.0127 14.735 18.246C14.567 18.4887 14.483 18.778 14.483 19.114C14.483 19.4967 14.6463 19.814 14.973 20.066C15.2997 20.318 15.7057 20.444 16.191 20.444C16.779 20.444 17.227 20.318 17.535 20.066C17.7497 19.898 17.913 19.6833 18.025 19.422C18.1463 19.1607 18.207 18.89 18.207 18.61C18.207 18.4233 18.1417 18.2693 18.011 18.148C17.8803 18.0267 17.6703 17.9287 17.381 17.854C17.0917 17.7793 16.6997 17.7233 16.205 17.686C15.2997 17.6113 14.665 17.4713 14.301 17.266C13.937 17.0607 13.755 16.7667 13.755 16.384C13.755 16.2907 13.7783 16.202 13.825 16.118C13.881 16.034 13.9697 15.9453 14.091 15.852C14.2777 15.7027 14.427 15.586 14.539 15.502C14.651 15.418 14.735 15.348 14.791 15.292C14.8563 15.2267 14.9123 15.152 14.959 15.068L15.505 15.306C15.309 15.3807 15.1457 15.4787 15.015 15.6C14.8843 15.7213 14.819 15.8287 14.819 15.922C14.819 16.0433 14.8843 16.1507 15.015 16.244C15.1457 16.328 15.351 16.3933 15.631 16.44C15.911 16.4867 16.2657 16.5287 16.695 16.566C17.6097 16.622 18.2817 16.7667 18.711 17C19.1403 17.2333 19.355 17.5647 19.355 17.994C19.355 18.3673 19.257 18.7313 19.061 19.086C18.8743 19.45 18.6223 19.7813 18.305 20.08C17.9877 20.3787 17.633 20.6167 17.241 20.794C16.849 20.9713 16.4477 21.06 16.037 21.06ZM16.219 15.026C16.555 15.026 16.8257 14.8533 17.031 14.508C17.2457 14.1627 17.353 13.7193 17.353 13.178C17.353 12.8793 17.297 12.6087 17.185 12.366C17.073 12.1233 16.9237 11.932 16.737 11.792C16.5597 11.6427 16.359 11.568 16.135 11.568C15.9297 11.568 15.7383 11.6427 15.561 11.792C15.3837 11.9413 15.2437 12.142 15.141 12.394C15.0383 12.6367 14.987 12.9073 14.987 13.206C14.987 13.542 15.0383 13.85 15.141 14.13C15.253 14.4007 15.4023 14.62 15.589 14.788C15.785 14.9467 15.995 15.026 16.219 15.026ZM16.107 15.558C15.715 15.558 15.337 15.46 14.973 15.264C14.609 15.068 14.3103 14.8067 14.077 14.48C13.8437 14.144 13.727 13.7753 13.727 13.374C13.727 12.9167 13.8483 12.52 14.091 12.184C14.3337 11.8387 14.651 11.5727 15.043 11.386C15.4443 11.19 15.8643 11.092 16.303 11.092C16.583 11.092 16.8303 11.1293 17.045 11.204C17.269 11.2693 17.4977 11.3253 17.731 11.372C17.9457 11.428 18.123 11.4653 18.263 11.484C18.4123 11.4933 18.571 11.498 18.739 11.498C18.8603 11.498 19.0003 11.4933 19.159 11.484C19.3177 11.4653 19.4343 11.456 19.509 11.456C19.6397 11.456 19.705 11.54 19.705 11.708C19.705 11.8293 19.6537 11.946 19.551 12.058C19.495 12.114 19.4483 12.142 19.411 12.142H19.033C18.7903 12.142 18.6457 12.1793 18.599 12.254C18.5803 12.282 18.5617 12.324 18.543 12.38C18.5337 12.4267 18.5243 12.492 18.515 12.576C18.515 12.66 18.515 12.7673 18.515 12.898C18.515 13.3833 18.403 13.8267 18.179 14.228C17.955 14.6293 17.661 14.9513 17.297 15.194C16.9423 15.4367 16.5457 15.558 16.107 15.558Z" fill="#888888"/>
</svg>
