<svg width="24" height="24" viewBox="0 0 24 24" fill="none" xmlns="http://www.w3.org/2000/svg">
<path d="M3.9833 17.07C3.7593 17.07 3.6473 17 3.6473 16.86C3.6473 16.804 3.68464 16.7573 3.7593 16.72C3.82464 16.6827 3.94597 16.6407 4.1233 16.594C4.86997 16.398 5.4813 16.0293 5.9573 15.488C6.66664 14.704 7.32464 13.934 7.9313 13.178C8.53797 12.422 9.22397 11.54 9.9893 10.532C9.91464 10.6253 10.302 10.126 11.1513 9.034L11.4173 8.698C11.5013 8.586 11.576 8.49267 11.6413 8.418C11.7066 8.334 11.758 8.292 11.7953 8.292C11.9446 8.292 12.052 8.27333 12.1173 8.236C12.192 8.18933 12.262 8.13333 12.3273 8.068C12.3926 8.00267 12.4393 7.95133 12.4673 7.914C12.5046 7.86733 12.5606 7.80667 12.6353 7.732C12.71 7.648 12.7613 7.59667 12.7893 7.578C12.8266 7.55 12.8593 7.536 12.8873 7.536C12.9526 7.536 12.9853 7.59667 12.9853 7.718C12.9853 7.82067 12.976 7.90933 12.9573 7.984L11.5013 15.292C11.4546 15.4973 11.4313 15.7027 11.4313 15.908C11.4313 16.1227 11.4733 16.286 11.5573 16.398C11.6506 16.51 11.7953 16.594 11.9913 16.65C12.1686 16.6967 12.2853 16.7387 12.3413 16.776C12.4066 16.804 12.4393 16.846 12.4393 16.902C12.4393 17.014 12.2946 17.07 12.0053 17.07L11.3473 17.042C10.8993 17.0047 10.554 16.986 10.3113 16.986L8.9253 17C8.7013 17 8.5893 16.9347 8.5893 16.804C8.5893 16.748 8.62664 16.6967 8.70131 16.65C8.77597 16.6033 8.8693 16.5707 8.9813 16.552C9.29864 16.496 9.5413 16.4353 9.70931 16.37C9.87731 16.2953 10.008 16.188 10.1013 16.048C10.1946 15.908 10.2786 15.7027 10.3533 15.432L10.7873 13.766C10.8246 13.6353 10.8013 13.542 10.7173 13.486C10.6426 13.4207 10.5306 13.388 10.3813 13.388L8.8133 13.416C8.66397 13.416 8.54264 13.4347 8.4493 13.472C8.35597 13.5093 8.27664 13.5747 8.2113 13.668L6.7693 15.572C6.58264 15.8053 6.4893 16.0013 6.4893 16.16C6.4893 16.2533 6.52197 16.328 6.5873 16.384C6.65264 16.4307 6.74597 16.4773 6.8673 16.524C7.10064 16.5987 7.2173 16.7013 7.2173 16.832C7.2173 16.9533 7.08664 17.014 6.8253 17.014C6.67597 17.014 6.55464 17.0093 6.4613 17L5.7333 16.986C5.51864 16.986 5.3273 16.9907 5.1593 17C4.9913 17.0093 4.8513 17.0187 4.7393 17.028C4.4593 17.056 4.2073 17.07 3.9833 17.07ZM10.6613 12.926C10.764 12.926 10.8433 12.898 10.8993 12.842C10.9553 12.7767 11.002 12.674 11.0393 12.534L11.7113 9.468C11.7393 9.36533 11.7533 9.29067 11.7533 9.244C11.7533 9.17867 11.7253 9.146 11.6693 9.146C11.5666 9.146 11.478 9.202 11.4033 9.314L8.9113 12.632C8.83664 12.744 8.79931 12.8093 8.79931 12.828C8.79931 12.9027 8.92064 12.94 9.1633 12.94L10.6613 12.926ZM15.2841 21.06C14.4441 21.06 13.7488 20.92 13.1981 20.64C12.6381 20.36 12.3581 19.9867 12.3581 19.52C12.3581 19.24 12.6148 18.9693 13.1281 18.708C13.6415 18.4467 14.3135 18.1807 15.1441 17.91C15.2188 17.882 15.2281 17.84 15.1721 17.784C14.9295 17.5787 14.7568 17.4153 14.6541 17.294C14.5515 17.1727 14.5001 17.0467 14.5001 16.916C14.5001 16.692 14.7335 16.4073 15.2001 16.062C15.2748 15.9967 15.3121 15.9407 15.3121 15.894C15.3121 15.866 15.2748 15.838 15.2001 15.81C14.9201 15.6793 14.7288 15.5113 14.6261 15.306C14.5235 15.1007 14.4721 14.8347 14.4721 14.508C14.4721 14.0787 14.5935 13.6027 14.8361 13.08C15.0881 12.5573 15.4195 12.114 15.8301 11.75C16.2501 11.386 16.6935 11.204 17.1601 11.204C17.3841 11.204 17.5428 11.232 17.6361 11.288C17.7295 11.3347 17.7855 11.3627 17.8041 11.372C17.8228 11.3813 17.8695 11.4093 17.9441 11.456C18.0281 11.5027 18.1121 11.526 18.1961 11.526C18.2895 11.526 18.4948 11.498 18.8121 11.442C18.8775 11.4327 18.9941 11.414 19.1621 11.386C19.3301 11.358 19.4655 11.344 19.5681 11.344C19.6335 11.344 19.6988 11.372 19.7641 11.428C19.8388 11.484 19.8761 11.5633 19.8761 11.666C19.8761 11.8247 19.8481 11.946 19.7921 12.03C19.7455 12.114 19.6895 12.156 19.6241 12.156C19.4841 12.156 19.2835 12.1233 19.0221 12.058C18.9568 12.0487 18.8775 12.0347 18.7841 12.016C18.7001 11.9973 18.6161 11.988 18.5321 11.988C18.3828 11.988 18.3268 12.0533 18.3641 12.184C18.4015 12.324 18.4201 12.492 18.4201 12.688C18.4201 13.164 18.2941 13.654 18.0421 14.158C17.7901 14.662 17.4681 15.082 17.0761 15.418C16.6841 15.754 16.2875 15.922 15.8861 15.922C15.7741 15.922 15.6715 15.978 15.5781 16.09C15.4755 16.2207 15.4241 16.356 15.4241 16.496C15.4241 16.664 15.4661 16.804 15.5501 16.916C15.6341 17.0187 15.7975 17.154 16.0401 17.322L16.7401 17.784C17.3188 18.1573 17.6641 18.386 17.7761 18.47C17.9721 18.61 18.1121 18.7453 18.1961 18.876C18.2801 19.0067 18.3221 19.142 18.3221 19.282C18.3221 19.59 18.1635 19.8793 17.8461 20.15C17.5288 20.43 17.1321 20.6493 16.6561 20.808C16.1801 20.976 15.7228 21.06 15.2841 21.06ZM15.8441 15.586C16.1055 15.586 16.3761 15.3807 16.6561 14.97C16.9455 14.5593 17.1881 14.0833 17.3841 13.542C17.5895 12.9913 17.6921 12.562 17.6921 12.254C17.6921 12.1047 17.6408 11.96 17.5381 11.82C17.4448 11.6707 17.3328 11.596 17.2021 11.596C16.9315 11.596 16.6468 11.7827 16.3481 12.156C16.0588 12.5293 15.8115 12.982 15.6061 13.514C15.4008 14.046 15.2888 14.5127 15.2701 14.914C15.2701 15.0913 15.3261 15.25 15.4381 15.39C15.5501 15.5207 15.6855 15.586 15.8441 15.586ZM15.7041 20.64C16.2361 20.64 16.6328 20.5467 16.8941 20.36C17.1648 20.1733 17.3001 19.9447 17.3001 19.674C17.3001 19.338 17.1088 19.0533 16.7261 18.82C16.6141 18.7453 16.4695 18.652 16.2921 18.54C16.1241 18.428 15.9981 18.3487 15.9141 18.302C15.7461 18.2087 15.6155 18.162 15.5221 18.162C15.4381 18.162 15.3215 18.1807 15.1721 18.218C14.5748 18.4047 14.1175 18.6053 13.8001 18.82C13.4828 19.0347 13.3241 19.2773 13.3241 19.548C13.3241 19.744 13.4408 19.926 13.6741 20.094C13.9075 20.262 14.2061 20.3927 14.5701 20.486C14.9435 20.5887 15.3215 20.64 15.7041 20.64Z" fill="#333333"/>
</svg>
