<svg width="24" height="24" viewBox="0 0 24 24" fill="none" xmlns="http://www.w3.org/2000/svg">
<path d="M3.51666 17.07C3.25533 17.07 3.12466 17 3.12466 16.86C3.12466 16.7853 3.15266 16.7247 3.20866 16.678C3.274 16.6313 3.372 16.5847 3.50266 16.538C4.08133 16.3887 4.478 16.062 4.69266 15.558C5.53266 13.626 6.36333 11.526 7.18466 9.258C7.26866 9.006 7.334 8.79133 7.38066 8.614C7.43666 8.42733 7.474 8.30133 7.49266 8.236C7.82866 8.152 8.09466 8.068 8.29066 7.984C8.44 7.90933 8.56133 7.816 8.65466 7.704C8.75733 7.58267 8.818 7.51267 8.83666 7.494C8.91133 7.438 8.96733 7.44733 9.00466 7.522C9.02333 7.55933 9.06533 7.676 9.13066 7.872C9.476 8.97333 9.87266 10.2193 10.3207 11.61C10.778 12.9913 11.0953 13.948 11.2727 14.48L11.5947 15.432C11.716 15.7867 11.8747 16.048 12.0707 16.216C12.2667 16.3747 12.5233 16.4913 12.8407 16.566C13.0927 16.622 13.2187 16.7247 13.2187 16.874C13.2187 16.986 13.1113 17.042 12.8967 17.042L11.9307 17.014C11.5107 16.986 11.114 16.972 10.7407 16.972C10.5353 16.972 10.1993 16.9813 9.73266 17C9.30333 17.0187 9.00933 17.028 8.85066 17.028C8.748 17.028 8.664 17.014 8.59866 16.986C8.53333 16.9487 8.50066 16.8973 8.50066 16.832C8.50066 16.6827 8.62666 16.5847 8.87866 16.538C9.196 16.482 9.42466 16.4073 9.56466 16.314C9.714 16.2113 9.78866 16.076 9.78866 15.908C9.78866 15.8427 9.784 15.796 9.77466 15.768C9.7 15.3573 9.53666 14.7227 9.28466 13.864C9.266 13.78 9.23333 13.724 9.18666 13.696C9.14933 13.668 9.084 13.654 8.99066 13.654H6.47066C6.35866 13.654 6.27933 13.738 6.23266 13.906C5.95266 14.7367 5.78 15.306 5.71466 15.614C5.70533 15.6607 5.70066 15.726 5.70066 15.81C5.70066 16.006 5.766 16.16 5.89666 16.272C6.03666 16.384 6.256 16.4773 6.55466 16.552C6.80666 16.608 6.93266 16.706 6.93266 16.846C6.93266 16.902 6.9 16.9487 6.83466 16.986C6.77866 17.014 6.69933 17.028 6.59666 17.028L5.92466 17.014C5.60733 16.9953 5.346 16.986 5.14066 16.986C5.01 16.986 4.856 16.9907 4.67866 17C4.51066 17.0187 4.38466 17.028 4.30066 17.028C4.03933 17.056 3.778 17.07 3.51666 17.07ZM8.79466 13.01C8.86933 13.01 8.92066 13.0053 8.94866 12.996C8.97666 12.9867 8.99066 12.9633 8.99066 12.926C8.99066 12.9167 8.98133 12.8653 8.96266 12.772L7.98266 9.538C7.936 9.40733 7.90333 9.342 7.88466 9.342C7.87533 9.342 7.84266 9.40267 7.78666 9.524L6.61066 12.772C6.592 12.8093 6.58266 12.8467 6.58266 12.884C6.58266 12.968 6.67133 13.01 6.84866 13.01H8.79466ZM19.6998 11.372C19.7651 11.372 19.8165 11.3953 19.8538 11.442C19.8911 11.4887 19.9098 11.5587 19.9098 11.652C19.9098 11.708 19.8911 11.778 19.8538 11.862C19.8258 11.9367 19.7885 12.0067 19.7418 12.072C19.6951 12.128 19.6485 12.156 19.6018 12.156H19.2238C18.9625 12.156 18.8038 12.1933 18.7478 12.268C18.7198 12.324 18.7011 12.3987 18.6918 12.492C18.6825 12.576 18.6778 12.7207 18.6778 12.926C18.6778 13.402 18.5611 13.8453 18.3278 14.256C18.0945 14.6667 17.7818 14.998 17.3898 15.25C16.9978 15.4927 16.5731 15.614 16.1158 15.614C15.8171 15.614 15.5185 15.558 15.2198 15.446C15.1078 15.5113 15.0191 15.586 14.9538 15.67C14.8885 15.754 14.8558 15.824 14.8558 15.88C14.8558 16.048 15.0005 16.1787 15.2898 16.272C15.5885 16.3653 16.0878 16.4353 16.7878 16.482C17.7491 16.5567 18.4491 16.7107 18.8878 16.944C19.3358 17.168 19.5598 17.4947 19.5598 17.924C19.5598 18.4187 19.3871 18.9087 19.0418 19.394C18.6965 19.8793 18.2485 20.276 17.6978 20.584C17.1565 20.892 16.6105 21.046 16.0598 21.046C15.1825 21.046 14.4965 20.9013 14.0018 20.612C13.5071 20.332 13.2598 19.9353 13.2598 19.422C13.2598 19.1513 13.2971 18.932 13.3718 18.764C13.4465 18.596 13.5865 18.4373 13.7918 18.288C13.9691 18.1387 14.1791 17.98 14.4218 17.812L14.7298 17.574C14.3565 17.4527 14.0811 17.294 13.9038 17.098C13.7358 16.902 13.6518 16.6593 13.6518 16.37C13.6518 16.1833 13.7731 16.006 14.0158 15.838C14.4078 15.5673 14.6598 15.362 14.7718 15.222C14.4265 15.0073 14.1511 14.7367 13.9458 14.41C13.7405 14.0833 13.6378 13.7287 13.6378 13.346C13.6378 12.898 13.7638 12.4967 14.0158 12.142C14.2678 11.7873 14.5991 11.512 15.0098 11.316C15.4205 11.1107 15.8591 11.008 16.3258 11.008C16.5778 11.008 16.9185 11.064 17.3478 11.176C17.5531 11.232 17.7305 11.2693 17.8798 11.288C18.2158 11.372 18.5658 11.414 18.9298 11.414C19.0511 11.414 19.2145 11.4047 19.4198 11.386L19.6998 11.372ZM16.2418 15.04C16.5498 15.04 16.8018 14.872 16.9978 14.536C17.1938 14.1907 17.2918 13.7473 17.2918 13.206C17.2918 12.73 17.1845 12.3333 16.9698 12.016C16.7551 11.6987 16.4891 11.54 16.1718 11.54C15.8825 11.54 15.6305 11.7033 15.4158 12.03C15.2105 12.3473 15.1078 12.7347 15.1078 13.192C15.1078 13.7053 15.2151 14.144 15.4298 14.508C15.6538 14.8627 15.9245 15.04 16.2418 15.04ZM18.1458 18.694C18.1458 18.4327 18.0058 18.2413 17.7258 18.12C17.4551 17.9987 16.9558 17.9053 16.2278 17.84C15.9758 17.8213 15.6911 17.784 15.3738 17.728C15.0565 17.9147 14.8231 18.1153 14.6738 18.33C14.5338 18.5447 14.4638 18.792 14.4638 19.072C14.4638 19.4453 14.6225 19.758 14.9398 20.01C15.2665 20.262 15.6771 20.388 16.1718 20.388C16.7878 20.388 17.2358 20.262 17.5158 20.01C17.7118 19.842 17.8658 19.6413 17.9778 19.408C18.0898 19.1747 18.1458 18.9367 18.1458 18.694Z" fill="#333333"/>
</svg>
