<svg width="24" height="24" viewBox="0 0 24 24" fill="none" xmlns="http://www.w3.org/2000/svg">
<path d="M3.9833 17.07C3.8713 17.07 3.79197 17.056 3.7453 17.028C3.69864 17 3.66597 16.9533 3.6473 16.888C3.63797 16.8133 3.67997 16.7573 3.7733 16.72C3.8573 16.6733 3.97397 16.6313 4.1233 16.594C4.38464 16.5193 4.62264 16.4307 4.8373 16.328C5.0613 16.2253 5.26664 16.104 5.4533 15.964C5.63997 15.8147 5.80797 15.656 5.9573 15.488C6.64797 14.7227 7.27797 13.9853 7.8473 13.276C8.42597 12.5667 8.9813 11.862 9.51331 11.162C10.0453 10.462 10.5913 9.75267 11.1513 9.034C11.2633 8.894 11.3613 8.768 11.4453 8.656C11.5293 8.544 11.5993 8.45533 11.6553 8.39C11.7113 8.32467 11.758 8.292 11.7953 8.292C11.9913 8.292 12.122 8.25933 12.1873 8.194C12.262 8.12867 12.3553 8.03533 12.4673 7.914C12.598 7.76467 12.6866 7.66667 12.7333 7.62C12.7893 7.564 12.8406 7.536 12.8873 7.536C12.934 7.536 12.9666 7.564 12.9853 7.62C13.004 7.676 12.9946 7.79733 12.9573 7.984L11.5013 15.292C11.408 15.74 11.3986 16.062 11.4733 16.258C11.5573 16.4447 11.73 16.5753 11.9913 16.65C12.1406 16.6873 12.2526 16.7247 12.3273 16.762C12.402 16.79 12.4393 16.8367 12.4393 16.902C12.4393 16.958 12.4066 17 12.3413 17.028C12.276 17.056 12.164 17.07 12.0053 17.07C11.884 17.07 11.7253 17.0607 11.5293 17.042C11.3426 17.0327 11.142 17.0187 10.9273 17C10.7126 16.9907 10.5073 16.986 10.3113 16.986C10.1433 16.986 9.97064 16.986 9.7933 16.986C9.62531 16.986 9.46197 16.9907 9.3033 17C9.15397 17 9.02797 17 8.9253 17C8.7293 17 8.6173 16.944 8.5893 16.832C8.57997 16.7667 8.61264 16.7107 8.6873 16.664C8.76197 16.608 8.85997 16.5707 8.9813 16.552C9.2893 16.496 9.5273 16.4353 9.6953 16.37C9.87264 16.2953 10.008 16.188 10.1013 16.048C10.204 15.8987 10.288 15.6933 10.3533 15.432L10.7873 13.766C10.8246 13.626 10.7966 13.528 10.7033 13.472C10.6193 13.416 10.512 13.388 10.3813 13.388L8.8133 13.416C8.66397 13.416 8.54264 13.4347 8.4493 13.472C8.3653 13.5 8.28597 13.5653 8.2113 13.668L6.7693 15.572C6.6013 15.796 6.50797 15.9733 6.4893 16.104C6.47997 16.2253 6.51264 16.3187 6.5873 16.384C6.6713 16.44 6.76464 16.4867 6.8673 16.524C6.96997 16.5613 7.05397 16.6033 7.1193 16.65C7.18464 16.6967 7.2173 16.7573 7.2173 16.832C7.2173 16.8973 7.17997 16.944 7.1053 16.972C7.03064 17 6.9373 17.014 6.8253 17.014C6.70397 17.014 6.54997 17.0093 6.3633 17C6.18597 16.9907 5.97597 16.986 5.7333 16.986C5.44397 16.986 5.1313 17 4.7953 17.028C4.46864 17.056 4.19797 17.07 3.9833 17.07ZM9.1633 12.94L10.6613 12.926C10.764 12.926 10.8433 12.898 10.8993 12.842C10.9553 12.786 11.002 12.6833 11.0393 12.534L11.7113 9.468C11.7393 9.356 11.7486 9.27667 11.7393 9.23C11.7393 9.174 11.716 9.146 11.6693 9.146C11.632 9.146 11.59 9.15533 11.5433 9.174C11.4966 9.19267 11.45 9.23933 11.4033 9.314L8.9113 12.632C8.84597 12.7253 8.80864 12.8 8.79931 12.856C8.78997 12.912 8.9113 12.94 9.1633 12.94ZM15.2841 21.06C14.7428 21.06 14.2481 20.9947 13.8001 20.864C13.3615 20.7427 13.0115 20.5653 12.7501 20.332C12.4888 20.108 12.3581 19.8373 12.3581 19.52C12.3581 19.3053 12.5028 19.1 12.7921 18.904C13.0815 18.7173 13.4408 18.54 13.8701 18.372C14.2995 18.204 14.7241 18.05 15.1441 17.91C15.2188 17.882 15.2281 17.84 15.1721 17.784C14.9668 17.6067 14.8035 17.4527 14.6821 17.322C14.5608 17.2007 14.5001 17.0653 14.5001 16.916C14.5001 16.7853 14.5655 16.65 14.6961 16.51C14.8361 16.3607 15.0041 16.2113 15.2001 16.062C15.2468 16.0153 15.2748 15.978 15.2841 15.95C15.3028 15.922 15.3121 15.9033 15.3121 15.894C15.3121 15.866 15.2748 15.838 15.2001 15.81C15.0135 15.7167 14.8641 15.6093 14.7521 15.488C14.6495 15.3667 14.5748 15.2267 14.5281 15.068C14.4908 14.9 14.4721 14.7133 14.4721 14.508C14.4721 14.1907 14.5421 13.8453 14.6821 13.472C14.8221 13.0893 15.0135 12.7253 15.2561 12.38C15.4988 12.0347 15.7835 11.7547 16.1101 11.54C16.4368 11.316 16.7868 11.204 17.1601 11.204C17.3561 11.204 17.4961 11.2273 17.5801 11.274C17.6735 11.3113 17.7481 11.344 17.8041 11.372C17.8695 11.4093 17.9348 11.4467 18.0001 11.484C18.0655 11.512 18.1308 11.526 18.1961 11.526C18.2988 11.526 18.4341 11.512 18.6021 11.484C18.7701 11.4467 18.9428 11.414 19.1201 11.386C19.2975 11.358 19.4468 11.344 19.5681 11.344C19.6241 11.344 19.6895 11.372 19.7641 11.428C19.8388 11.4747 19.8761 11.554 19.8761 11.666C19.8761 11.8433 19.8481 11.9693 19.7921 12.044C19.7361 12.1187 19.6801 12.156 19.6241 12.156C19.5401 12.156 19.4235 12.142 19.2741 12.114C19.1248 12.086 18.9801 12.058 18.8401 12.03C18.7095 12.002 18.6068 11.988 18.5321 11.988C18.4855 11.988 18.4388 12.002 18.3921 12.03C18.3548 12.058 18.3455 12.1093 18.3641 12.184C18.3828 12.2587 18.3968 12.338 18.4061 12.422C18.4155 12.506 18.4201 12.5947 18.4201 12.688C18.4201 13.052 18.3455 13.4253 18.1961 13.808C18.0561 14.1813 17.8648 14.5313 17.6221 14.858C17.3795 15.1753 17.1041 15.432 16.7961 15.628C16.4975 15.824 16.1941 15.922 15.8861 15.922C15.8208 15.922 15.7601 15.9407 15.7041 15.978C15.6575 16.006 15.6155 16.0433 15.5781 16.09C15.4755 16.2207 15.4241 16.356 15.4241 16.496C15.4241 16.664 15.4661 16.804 15.5501 16.916C15.6435 17.028 15.8068 17.1633 16.0401 17.322C16.1988 17.4247 16.3855 17.546 16.6001 17.686C16.8241 17.8353 17.0435 17.9753 17.2581 18.106C17.4728 18.246 17.6455 18.3673 17.7761 18.47C17.9815 18.6193 18.1215 18.7547 18.1961 18.876C18.2801 19.0067 18.3221 19.142 18.3221 19.282C18.3221 19.5247 18.2241 19.7533 18.0281 19.968C17.8415 20.1827 17.5941 20.3693 17.2861 20.528C16.9781 20.696 16.6468 20.8267 16.2921 20.92C15.9468 21.0133 15.6108 21.06 15.2841 21.06ZM15.7041 20.64C16.0775 20.64 16.3808 20.5933 16.6141 20.5C16.8475 20.4067 17.0201 20.2853 17.1321 20.136C17.2441 19.996 17.3001 19.842 17.3001 19.674C17.3001 19.534 17.2581 19.3847 17.1741 19.226C17.0901 19.0767 16.9408 18.9413 16.7261 18.82C16.6515 18.764 16.5208 18.6753 16.3341 18.554C16.1568 18.4327 16.0168 18.3487 15.9141 18.302C15.7461 18.2087 15.6155 18.162 15.5221 18.162C15.4661 18.162 15.4055 18.1667 15.3401 18.176C15.2841 18.1853 15.2281 18.1993 15.1721 18.218C14.6121 18.3953 14.1641 18.5867 13.8281 18.792C13.4921 19.0067 13.3241 19.2587 13.3241 19.548C13.3241 19.7533 13.4455 19.9353 13.6881 20.094C13.9215 20.262 14.2201 20.3927 14.5841 20.486C14.9481 20.5887 15.3215 20.64 15.7041 20.64ZM15.8441 15.586C16.0121 15.586 16.1801 15.502 16.3481 15.334C16.5255 15.166 16.6935 14.9467 16.8521 14.676C17.0108 14.4053 17.1508 14.1207 17.2721 13.822C17.4028 13.514 17.5055 13.22 17.5801 12.94C17.6548 12.66 17.6921 12.4313 17.6921 12.254C17.6921 12.114 17.6455 11.9693 17.5521 11.82C17.4588 11.6707 17.3421 11.596 17.2021 11.596C17.0248 11.596 16.8475 11.6707 16.6701 11.82C16.4928 11.9693 16.3201 12.17 16.1521 12.422C15.9935 12.6647 15.8488 12.9353 15.7181 13.234C15.5875 13.5233 15.4801 13.8173 15.3961 14.116C15.3215 14.4053 15.2795 14.6713 15.2701 14.914C15.2701 15.0913 15.3261 15.25 15.4381 15.39C15.5595 15.5207 15.6948 15.586 15.8441 15.586Z" fill="#888888"/>
</svg>
