<svg width="24" height="24" viewBox="0 0 24 24" fill="none" xmlns="http://www.w3.org/2000/svg">
<path d="M12.2324 18H10.9609L9.92188 15.252H5.76562L4.78809 18H3.50977L7.26953 8.19727H8.45898L12.2324 18ZM9.5459 14.2197L8.00781 10.043C7.95768 9.90625 7.90755 9.6875 7.85742 9.38672H7.83008C7.78451 9.66471 7.7321 9.88346 7.67285 10.043L6.14844 14.2197H9.5459ZM19.5059 17.4395C19.5059 20.0098 18.2754 21.2949 15.8145 21.2949C14.9486 21.2949 14.1921 21.1309 13.5449 20.8027V19.6816C14.3333 20.1191 15.0853 20.3379 15.8008 20.3379C17.5234 20.3379 18.3848 19.4219 18.3848 17.5898V16.8242H18.3574C17.8242 17.7174 17.0221 18.1641 15.9512 18.1641C15.0807 18.1641 14.3789 17.8542 13.8457 17.2344C13.3171 16.61 13.0527 15.7738 13.0527 14.7256C13.0527 13.5361 13.3376 12.5905 13.9072 11.8887C14.4814 11.1868 15.2653 10.8359 16.2588 10.8359C17.2021 10.8359 17.9017 11.2142 18.3574 11.9707H18.3848V11H19.5059V17.4395ZM18.3848 14.835V13.8027C18.3848 13.2467 18.1956 12.7705 17.8174 12.374C17.4437 11.9775 16.9766 11.7793 16.416 11.7793C15.7233 11.7793 15.181 12.0322 14.7891 12.5381C14.3971 13.0394 14.2012 13.7435 14.2012 14.6504C14.2012 15.4297 14.388 16.054 14.7617 16.5234C15.14 16.9883 15.639 17.2207 16.2588 17.2207C16.8877 17.2207 17.3981 16.9974 17.79 16.5508C18.1865 16.1042 18.3848 15.5322 18.3848 14.835Z" fill="#333333"/>
</svg>
