<svg width="24" height="24" viewBox="0 0 24 24" fill="none" xmlns="http://www.w3.org/2000/svg">
<path d="M11.8389 17C11.4189 17 11.1669 16.972 11.0829 16.916C11.0083 16.86 10.9336 16.6733 10.8589 16.356L10.2429 13.57H8.11495L7.35895 17C7.20961 17 7.07895 17 6.96695 17C6.85495 17 6.76161 16.9907 6.68695 16.972C6.61228 16.9533 6.56561 16.93 6.54695 16.902C6.52828 16.874 6.51895 16.8273 6.51895 16.762C6.51895 16.6967 7.25628 13.416 8.73095 6.92H9.62695L11.9089 17H11.8389ZM10.1449 12.8L10.0189 12.45L9.31895 8.712H9.05295L8.36695 12.45L8.24095 12.8H10.1449ZM15.1509 19.8H14.5209C14.1756 19.8 13.9703 19.772 13.9049 19.716C13.8489 19.66 13.8209 19.4687 13.8209 19.142L15.1509 19.044C15.6643 19.044 15.9863 18.9507 16.1169 18.764C16.1823 18.652 16.2196 18.54 16.2289 18.428C16.2476 18.3253 16.2569 18.1807 16.2569 17.994C16.2569 17.8073 16.2476 17.672 16.2289 17.588C16.2196 17.504 16.1823 17.42 16.1169 17.336C16.0049 17.1773 15.6969 17.098 15.1929 17.098C14.0916 17.098 13.4429 17.0467 13.2469 16.944C13.0603 16.8413 12.9669 16.5287 12.9669 16.006C12.9669 15.4833 13.0229 15.1193 13.1349 14.914C13.2563 14.6993 13.4383 14.536 13.6809 14.424C13.4103 14.228 13.2236 13.9947 13.1209 13.724C13.0183 13.444 12.9669 13.0147 12.9669 12.436C12.9669 11.8573 12.9716 11.456 12.9809 11.232C12.9996 11.008 13.0323 10.7793 13.0789 10.546C13.1256 10.3127 13.1909 10.1353 13.2749 10.014C13.3683 9.89267 13.4896 9.776 13.6389 9.664C13.9096 9.47733 14.3716 9.384 15.0249 9.384H17.1949C17.1949 9.72933 17.1623 9.93467 17.0969 10C17.0409 10.056 16.8356 10.084 16.4809 10.084C16.6303 10.364 16.7189 10.6253 16.7469 10.868C16.7749 11.1107 16.7889 11.6007 16.7889 12.338C16.7889 13.0753 16.7749 13.5607 16.7469 13.794C16.7189 14.018 16.6443 14.2327 16.5229 14.438C16.4109 14.6433 16.2336 14.788 15.9909 14.872C15.7576 14.9467 15.4823 14.984 15.1649 14.984C14.8476 14.984 14.6236 14.9887 14.4929 14.998C14.3623 14.998 14.2456 15.012 14.1429 15.04C14.0403 15.068 13.9656 15.096 13.9189 15.124C13.8723 15.1427 13.8349 15.194 13.8069 15.278C13.7789 15.362 13.7649 15.432 13.7649 15.488V15.922C13.7649 16.1087 13.8349 16.2207 13.9749 16.258C14.1149 16.2953 14.5489 16.314 15.2769 16.314C16.0049 16.314 16.4809 16.4073 16.7049 16.594C16.9383 16.7807 17.0549 17.2287 17.0549 17.938C17.0549 18.6567 16.9383 19.1467 16.7049 19.408C16.4716 19.6693 15.9536 19.8 15.1509 19.8ZM13.7929 12.058C13.7929 12.8793 13.8676 13.4487 14.0169 13.766C14.1756 14.0833 14.4976 14.242 14.9829 14.242C15.4683 14.242 15.7623 14.1253 15.8649 13.892C15.9676 13.6587 16.0189 13.1127 16.0189 12.254C16.0189 11.3953 15.9816 10.8587 15.9069 10.644C15.7856 10.2987 15.4729 10.126 14.9689 10.126C14.4649 10.126 14.1429 10.2427 14.0029 10.476C13.8629 10.7093 13.7929 11.2367 13.7929 12.058Z" fill="#888888"/>
</svg>
