<svg width="24" height="24" viewBox="0 0 24 24" fill="none" xmlns="http://www.w3.org/2000/svg">
<path d="M13.2841 15.286L13.2701 16H8.86012L8.77612 15.552C9.03745 15.3933 9.44345 15.1973 9.99412 14.964L9.40612 13.452H6.07412L5.45812 15.104L6.74612 15.286L6.73212 16H2.92412L2.84012 15.552C3.12012 15.3747 3.50745 15.188 4.00212 14.992L7.09612 7.39L6.92812 6.956L8.76212 6.452L12.2901 15.146L13.2841 15.286ZM9.00012 12.388L7.74012 9.084L6.48012 12.388H9.00012ZM20.6932 10.036L20.3852 10.022C20.0118 10.022 19.6712 10.0827 19.3632 10.204C19.6245 10.568 19.7552 10.974 19.7552 11.422C19.7552 12.1313 19.4472 12.71 18.8312 13.158C18.2245 13.606 17.4685 13.83 16.5632 13.83L16.0872 13.802L15.3592 14.432C16.0965 14.4413 16.9132 14.53 17.8092 14.698C18.7052 14.8567 19.4938 15.048 20.1752 15.272C20.2685 15.5427 20.3152 15.818 20.3152 16.098C20.3152 16.9847 19.8952 17.7547 19.0552 18.408C18.2152 19.0613 17.2305 19.388 16.1012 19.388C15.3172 19.388 14.6405 19.2107 14.0712 18.856C13.5018 18.5107 13.2078 17.988 13.1892 17.288L14.7292 15.902L13.8472 15.846L13.5672 14.95C14.0525 14.418 14.5752 13.97 15.1352 13.606C14.6032 13.4193 14.1832 13.1347 13.8752 12.752C13.5672 12.36 13.4132 11.9213 13.4132 11.436C13.4132 10.736 13.7165 10.1527 14.3232 9.686C14.9392 9.21933 15.6998 8.986 16.6052 8.986C17.3612 8.986 18.0098 9.14933 18.5512 9.476C18.8685 8.72 19.4658 8.30467 20.3432 8.23L20.6932 10.036ZM17.2212 12.822C17.5758 12.5607 17.7532 12.136 17.7532 11.548C17.7532 11.128 17.6272 10.7593 17.3752 10.442C17.1232 10.1247 16.8012 9.966 16.4092 9.966C16.2132 9.966 16.0078 10.0127 15.7932 10.106C15.5318 10.3673 15.4012 10.792 15.4012 11.38C15.4012 11.828 15.5132 12.1967 15.7372 12.486C15.9612 12.7753 16.2692 12.92 16.6612 12.92C16.8105 12.92 16.9972 12.8873 17.2212 12.822ZM16.3812 17.82C16.8852 17.82 17.3798 17.7267 17.8652 17.54C18.3505 17.3533 18.7052 17.092 18.9292 16.756C18.0892 16.4013 16.9692 16.1447 15.5692 15.986C15.0652 16.3687 14.8132 16.7093 14.8132 17.008C14.8132 17.26 14.9578 17.456 15.2472 17.596C15.5458 17.7453 15.9238 17.82 16.3812 17.82Z" fill="#333333"/>
</svg>
