<svg width="24" height="24" viewBox="0 0 24 24" fill="none" xmlns="http://www.w3.org/2000/svg">
<path d="M12.8193 15.07C12.3713 15.07 11.928 14.9487 11.4893 14.706C11.0507 14.454 10.7007 13.9687 10.4393 13.25L10.0893 12.34H6.16933L5.04933 15H4.41933L8.33933 5.76H8.75933L11.8393 13.25C12.0727 13.7913 12.292 14.1647 12.4973 14.37C12.7027 14.566 12.9967 14.6827 13.3793 14.72V15C13.2113 15.0467 13.0247 15.07 12.8193 15.07ZM9.80933 11.78L8.12933 7.72L6.37933 11.78H9.80933ZM16.442 17.8C15.4994 17.8 14.748 17.6273 14.188 17.282C13.6374 16.9367 13.362 16.386 13.362 15.63C13.362 15.2007 13.5067 14.8273 13.796 14.51C14.0854 14.1927 14.454 13.9593 14.902 13.81C14.5287 13.6047 14.342 13.3247 14.342 12.97C14.342 12.7833 14.384 12.6387 14.468 12.536C14.552 12.4333 14.6734 12.3213 14.832 12.2C14.5334 12.0507 14.2814 11.8173 14.076 11.5C13.88 11.1827 13.782 10.8093 13.782 10.38C13.782 8.98 14.6687 8.28 16.442 8.28H19.032V8.63L18.122 8.77C18.402 8.94733 18.6354 9.176 18.822 9.456C19.0087 9.736 19.102 10.044 19.102 10.38C19.102 11.78 18.2154 12.48 16.442 12.48C15.462 12.48 14.972 12.6433 14.972 12.97C14.972 13.2967 15.462 13.46 16.442 13.46C17.3474 13.46 18.0847 13.642 18.654 14.006C19.2327 14.3607 19.522 14.902 19.522 15.63C19.522 16.386 19.242 16.9367 18.682 17.282C18.1314 17.6273 17.3847 17.8 16.442 17.8ZM16.442 11.99C16.862 11.99 17.198 11.864 17.45 11.612C17.7114 11.3507 17.842 10.94 17.842 10.38C17.842 9.848 17.7114 9.44667 17.45 9.176C17.198 8.90533 16.862 8.77 16.442 8.77C16.022 8.77 15.6814 8.90067 15.42 9.162C15.168 9.414 15.042 9.82 15.042 10.38C15.042 10.94 15.168 11.3507 15.42 11.612C15.6814 11.864 16.022 11.99 16.442 11.99ZM16.442 17.24C17.002 17.24 17.4454 17.1047 17.772 16.834C18.0987 16.5727 18.262 16.1713 18.262 15.63C18.262 14.6967 17.702 14.16 16.582 14.02L15.812 13.95C15.4294 14.0993 15.1354 14.3093 14.93 14.58C14.7247 14.8507 14.622 15.2007 14.622 15.63C14.622 16.1713 14.7854 16.5727 15.112 16.834C15.4387 17.1047 15.882 17.24 16.442 17.24Z" fill="#333333"/>
</svg>
