<svg width="24" height="24" viewBox="0 0 24 24" fill="none" xmlns="http://www.w3.org/2000/svg">
<path d="M12.0957 15.056C11.5077 15.056 10.9757 14.9347 10.4997 14.692C10.0237 14.44 9.63638 13.9547 9.33771 13.236L9.01571 12.452H5.29171L4.14371 15H3.41571L7.54571 5.76H8.17571L11.3117 13.236C11.6664 14.104 12.1517 14.5707 12.7677 14.636V14.986C12.5997 15.0327 12.3757 15.056 12.0957 15.056ZM8.74971 11.822L7.20971 8.168L5.58571 11.822H8.74971ZM15.9942 17.8C14.9302 17.8 14.0902 17.6273 13.4742 17.282C12.8675 16.946 12.5642 16.3953 12.5642 15.63C12.5642 15.1633 12.7508 14.776 13.1242 14.468C13.4975 14.16 13.9408 13.9407 14.4542 13.81C14.0342 13.6793 13.8242 13.4227 13.8242 13.04C13.8242 12.7227 14.0108 12.4893 14.3842 12.34C13.9828 12.2 13.6468 11.9573 13.3762 11.612C13.1148 11.2667 12.9842 10.884 12.9842 10.464C12.9842 9.69867 13.2548 9.14333 13.7962 8.798C14.3468 8.45267 15.0795 8.28 15.9942 8.28H18.9342V8.658L17.6742 8.826C18.0662 8.97533 18.3835 9.204 18.6262 9.512C18.8782 9.82 19.0042 10.1373 19.0042 10.464C19.0042 11.2293 18.7428 11.78 18.2202 12.116C17.7068 12.452 16.9648 12.62 15.9942 12.62C15.5088 12.62 15.1542 12.648 14.9302 12.704C14.7062 12.7507 14.5942 12.8627 14.5942 13.04C14.5942 13.1893 14.7062 13.2873 14.9302 13.334C15.1542 13.3807 15.5088 13.4087 15.9942 13.418C17.0022 13.4367 17.8235 13.6373 18.4582 14.02C19.1022 14.3933 19.4242 14.93 19.4242 15.63C19.4242 16.3953 19.1162 16.946 18.5002 17.282C17.8935 17.6273 17.0582 17.8 15.9942 17.8ZM15.9942 12.06C16.7408 12.06 17.1142 11.528 17.1142 10.464C17.1142 9.94133 17.0115 9.54 16.8062 9.26C16.6008 8.98 16.3302 8.84 15.9942 8.84C15.6488 8.84 15.3735 8.97533 15.1682 9.246C14.9722 9.51667 14.8742 9.92267 14.8742 10.464C14.8742 11.528 15.2475 12.06 15.9942 12.06ZM15.9942 17.17C16.4795 17.17 16.8575 17.0393 17.1282 16.778C17.3988 16.526 17.5342 16.1433 17.5342 15.63C17.5342 15.2193 17.4035 14.8787 17.1422 14.608C16.8902 14.328 16.5448 14.146 16.1062 14.062L15.4482 13.992C15.1215 14.132 14.8742 14.3327 14.7062 14.594C14.5382 14.8553 14.4542 15.2007 14.4542 15.63C14.4542 16.1433 14.5895 16.526 14.8602 16.778C15.1308 17.0393 15.5088 17.17 15.9942 17.17Z" fill="#333333"/>
</svg>
