<svg width="24" height="24" viewBox="0 0 24 24" fill="none" xmlns="http://www.w3.org/2000/svg">
<path d="M8.54359 12.556H6.76559C6.72826 12.7707 6.69093 12.99 6.65359 13.214C6.62559 13.438 6.58826 13.6667 6.54159 13.9C6.50426 14.124 6.46693 14.348 6.42959 14.572C6.39226 14.796 6.35493 15.02 6.31759 15.244C6.27093 15.4027 6.17759 15.496 6.03759 15.524C5.89759 15.552 5.76226 15.5567 5.63159 15.538C5.52893 15.5193 5.44493 15.4913 5.37959 15.454C5.32359 15.4073 5.30026 15.328 5.30959 15.216C5.33759 14.6373 5.37959 14.1473 5.43559 13.746C5.50093 13.3353 5.56626 12.948 5.63159 12.584C5.64093 12.5373 5.63626 12.5 5.61759 12.472C5.60826 12.4347 5.57559 12.4067 5.51959 12.388C5.46359 12.36 5.42159 12.3227 5.39359 12.276C5.36559 12.22 5.34693 12.1593 5.33759 12.094C5.33759 12.0287 5.35159 11.9727 5.37959 11.926C5.40759 11.87 5.45893 11.828 5.53359 11.8C5.66426 11.7627 5.74359 11.7253 5.77159 11.688C5.79959 11.6507 5.82293 11.5807 5.84159 11.478C5.96293 10.918 6.12159 10.372 6.31759 9.84C6.52293 9.308 6.75626 8.79 7.01759 8.286C7.12959 8.05267 7.28826 7.88933 7.49359 7.796C7.70826 7.70267 7.93226 7.656 8.16559 7.656C8.40826 7.656 8.64626 7.69333 8.87959 7.768C9.12226 7.84267 9.33693 7.93133 9.52359 8.034C9.81293 8.258 10.0323 8.524 10.1816 8.832C10.3309 9.13067 10.4336 9.448 10.4896 9.784C10.5456 10.12 10.5689 10.4653 10.5596 10.82C10.5503 11.1747 10.5316 11.5107 10.5036 11.828C10.4943 11.884 10.5036 11.9307 10.5316 11.968C10.5596 12.0053 10.5923 12.038 10.6296 12.066C10.6669 12.094 10.6949 12.122 10.7136 12.15C10.7416 12.178 10.7509 12.2153 10.7416 12.262C10.7416 12.3087 10.7229 12.3507 10.6856 12.388C10.6576 12.416 10.6203 12.444 10.5736 12.472C10.5363 12.5 10.4989 12.5327 10.4616 12.57C10.4336 12.598 10.4149 12.64 10.4056 12.696C10.3589 13.032 10.3169 13.3727 10.2796 13.718C10.2423 14.054 10.1956 14.39 10.1396 14.726C10.1209 14.8007 10.1023 14.894 10.0836 15.006C10.0649 15.118 10.0369 15.23 9.99959 15.342C9.97159 15.454 9.92959 15.5567 9.87359 15.65C9.82693 15.7433 9.76626 15.8087 9.69159 15.846C9.61693 15.8927 9.51893 15.9347 9.39759 15.972C9.27626 16 9.15493 16.014 9.03359 16.014C8.91226 16.0233 8.80493 16.0093 8.71159 15.972C8.61826 15.9253 8.55759 15.846 8.52959 15.734C8.45493 15.3793 8.42693 15.0247 8.44559 14.67C8.46426 14.3153 8.47826 13.9607 8.48759 13.606C8.49693 13.438 8.50626 13.27 8.51559 13.102C8.52493 12.9247 8.53426 12.7427 8.54359 12.556ZM8.08159 8.23C7.92293 8.50067 7.78759 8.78067 7.67559 9.07C7.56359 9.35 7.46559 9.63933 7.38159 9.938C7.29759 10.2273 7.21826 10.5213 7.14359 10.82C7.07826 11.1187 7.00359 11.4127 6.91959 11.702C7.20893 11.7207 7.48893 11.7347 7.75959 11.744C8.03959 11.7533 8.31959 11.7673 8.59959 11.786C8.61826 11.5247 8.63226 11.2727 8.64159 11.03C8.66026 10.778 8.66959 10.5307 8.66959 10.288C8.66959 10.12 8.66493 9.93333 8.65559 9.728C8.65559 9.52267 8.63693 9.322 8.59959 9.126C8.57159 8.93 8.51559 8.75267 8.43159 8.594C8.35693 8.43533 8.24026 8.314 8.08159 8.23ZM18.2338 9.294C18.3084 9.34067 18.3504 9.406 18.3598 9.49C18.3784 9.574 18.3644 9.65333 18.3178 9.728C18.0658 10.12 17.7998 10.5027 17.5198 10.876C17.2491 11.2493 16.9784 11.674 16.7078 12.15C16.8944 12.794 16.9924 13.3633 17.0018 13.858C17.0204 14.3433 16.9691 14.8193 16.8478 15.286C16.7171 15.7993 16.4371 16.2007 16.0078 16.49C15.7558 16.6487 15.4991 16.7233 15.2378 16.714C14.9951 16.7047 14.8038 16.6393 14.6638 16.518C14.5331 16.3967 14.4584 16.2147 14.4398 15.972C14.4304 15.8227 14.4304 15.6733 14.4398 15.524C14.4584 15.3653 14.4911 15.216 14.5378 15.076C14.6124 14.852 14.7011 14.6327 14.8038 14.418C14.9064 14.194 15.0091 13.9747 15.1118 13.76C15.1584 13.6667 15.1911 13.592 15.2098 13.536C15.2378 13.48 15.2518 13.4287 15.2518 13.382C15.2611 13.326 15.2564 13.2653 15.2378 13.2C15.2284 13.1253 15.2051 13.0227 15.1678 12.892C15.0371 13.1907 14.8971 13.494 14.7478 13.802C14.5984 14.11 14.3978 14.4273 14.1458 14.754C13.9778 14.9687 13.7491 15.118 13.4598 15.202C13.1798 15.286 12.8904 15.3047 12.5918 15.258C12.3024 15.2113 12.0318 15.104 11.7798 14.936C11.5371 14.768 11.3691 14.5347 11.2758 14.236C11.0704 13.5827 11.0004 12.8827 11.0658 12.136C11.1311 11.3893 11.2944 10.68 11.5558 10.008C11.8824 9.17733 12.4144 8.50067 13.1518 7.978C13.7024 7.614 14.3044 7.45067 14.9578 7.488C15.4338 7.516 15.7371 7.75867 15.8678 8.216C15.9331 8.412 15.9704 8.61267 15.9798 8.818C15.9891 9.014 15.9844 9.21467 15.9658 9.42C15.9564 9.60667 15.8491 9.7 15.6438 9.7C15.4478 9.69067 15.3451 9.59267 15.3358 9.406C15.3264 9.35 15.3124 9.24733 15.2938 9.098C15.2751 8.93933 15.2471 8.776 15.2098 8.608C15.1818 8.44 15.1398 8.29067 15.0838 8.16C15.0278 8.02 14.9624 7.94067 14.8878 7.922C14.8131 7.922 14.7384 7.95 14.6638 8.006C14.5891 8.062 14.5144 8.13667 14.4398 8.23C14.3651 8.32333 14.2904 8.43067 14.2158 8.552C14.1504 8.664 14.0898 8.776 14.0338 8.888C13.8844 9.17733 13.7398 9.518 13.5998 9.91C13.4598 10.2927 13.3338 10.694 13.2218 11.114C13.1098 11.534 13.0164 11.9493 12.9418 12.36C12.8764 12.7707 12.8298 13.144 12.8018 13.48C12.7831 13.816 12.7878 14.1007 12.8158 14.334C12.8531 14.5673 12.9278 14.712 13.0398 14.768C13.0958 14.796 13.1704 14.7727 13.2638 14.698C13.3571 14.614 13.4551 14.5067 13.5578 14.376C13.6698 14.2453 13.7771 14.1007 13.8798 13.942C13.9824 13.774 14.0711 13.62 14.1458 13.48C14.2764 13.228 14.4024 12.976 14.5238 12.724C14.6451 12.472 14.7664 12.2153 14.8878 11.954C14.9158 11.8887 14.9298 11.8187 14.9298 11.744C14.9391 11.6693 14.9438 11.5947 14.9438 11.52C14.9344 11.3707 14.9484 11.268 14.9858 11.212C15.0324 11.1467 15.1258 11.1047 15.2658 11.086C15.3591 11.0673 15.4618 11.058 15.5738 11.058C15.6858 11.058 15.7931 11.072 15.8958 11.1C15.9984 11.1187 16.0918 11.1607 16.1758 11.226C16.2691 11.282 16.3391 11.3613 16.3858 11.464C16.6098 11.1093 16.8431 10.764 17.0858 10.428C17.3284 10.0827 17.5711 9.73267 17.8138 9.378C17.9258 9.21933 18.0658 9.19133 18.2338 9.294ZM15.2378 16.322C15.3684 16.2567 15.4711 16.154 15.5458 16.014C15.6204 15.874 15.6671 15.72 15.6858 15.552C15.7044 15.3747 15.6951 15.188 15.6578 14.992C15.6298 14.7867 15.5784 14.586 15.5038 14.39C15.3918 14.5207 15.2984 14.6793 15.2238 14.866C15.1584 15.0433 15.1118 15.2253 15.0838 15.412C15.0558 15.5893 15.0511 15.762 15.0698 15.93C15.0978 16.0887 15.1538 16.2193 15.2378 16.322Z" fill="#333333"/>
</svg>
