<svg width="24" height="24" viewBox="0 0 24 24" fill="none" xmlns="http://www.w3.org/2000/svg">
<path d="M12.3614 16.65V16.874H7.85338V16.65H8.76338L7.68538 13.542H5.37538L4.88538 14.984C4.76405 15.348 4.70338 15.6187 4.70338 15.796C4.70338 16.1227 4.81072 16.3467 5.02538 16.468C5.24938 16.5893 5.56205 16.65 5.96338 16.65H6.45338V16.874H2.85538V16.65C3.13538 16.65 3.36405 16.622 3.54138 16.566C3.72805 16.5007 3.88672 16.3793 4.01738 16.202C4.14805 16.0153 4.24138 15.852 4.29738 15.712C4.36272 15.572 4.45605 15.3247 4.57738 14.97L6.99938 8.11C7.07405 7.89533 7.14405 7.72733 7.20938 7.606C7.27472 7.48467 7.41005 7.36333 7.61538 7.242C7.83005 7.11133 8.10072 7.046 8.42738 7.046L11.7734 16.65H12.3614ZM6.53738 10.21L5.45938 13.318H7.61538L6.53738 10.21ZM12.6971 12.912C12.6971 12.0347 13.0097 11.358 13.6351 10.882C14.2604 10.406 15.0211 10.168 15.9171 10.168C16.2064 10.168 16.4911 10.196 16.7711 10.252C16.5377 9.99067 16.4211 9.67333 16.4211 9.3C16.4211 8.92667 16.5471 8.60467 16.7991 8.334C17.0604 8.06333 17.3731 7.928 17.7371 7.928C18.1104 7.928 18.4184 8.03533 18.6611 8.25C18.9037 8.46467 19.0251 8.74 19.0251 9.076C19.0251 9.412 18.9271 9.68733 18.7311 9.902C18.5351 10.1073 18.2877 10.21 17.9891 10.21C17.6997 10.21 17.4571 10.126 17.2611 9.958C17.0744 9.78067 16.9811 9.55667 16.9811 9.286C16.9811 9.01533 17.0744 8.80067 17.2611 8.642C17.4011 8.57667 17.4711 8.502 17.4711 8.418C17.4711 8.334 17.4291 8.292 17.3451 8.292C17.2891 8.292 17.2191 8.32 17.1351 8.376C16.8271 8.60933 16.6731 8.922 16.6731 9.314C16.6731 9.80867 16.9577 10.2007 17.5271 10.49C18.6004 10.9567 19.1371 11.764 19.1371 12.912C19.1371 13.7893 18.8244 14.466 18.1991 14.942C17.5737 15.418 16.8131 15.656 15.9171 15.656C15.3011 15.656 14.7504 15.5487 14.2651 15.334C13.6677 15.586 13.3691 15.8473 13.3691 16.118C13.3691 16.3047 13.4437 16.4307 13.5931 16.496C13.7424 16.552 13.9991 16.58 14.3631 16.58C14.7271 16.58 15.3057 16.4867 16.0991 16.3C16.9017 16.1133 17.4291 16.02 17.6811 16.02C18.2224 16.02 18.6517 16.16 18.9691 16.44C19.2864 16.72 19.4451 17.0887 19.4451 17.546C19.4451 18.2647 19.1417 18.876 18.5351 19.38C17.9284 19.884 17.2004 20.136 16.3511 20.136C15.3431 20.136 14.5217 19.7393 13.8871 18.946C13.4297 18.9087 13.0611 18.736 12.7811 18.428C12.5011 18.12 12.3611 17.7467 12.3611 17.308C12.3611 16.8787 12.5011 16.4727 12.7811 16.09C13.0704 15.7073 13.4717 15.404 13.9851 15.18C13.1264 14.6947 12.6971 13.9387 12.6971 12.912ZM15.5951 15.32C15.6884 15.376 15.7957 15.404 15.9171 15.404C16.0384 15.404 16.1411 15.376 16.2251 15.32C16.3184 15.2547 16.3884 15.1567 16.4351 15.026C16.4911 14.886 16.5331 14.7553 16.5611 14.634C16.5984 14.5033 16.6217 14.3213 16.6311 14.088C16.6404 13.8547 16.6451 13.668 16.6451 13.528C16.6544 13.388 16.6591 13.1827 16.6591 12.912C16.6591 12.6413 16.6544 12.436 16.6451 12.296C16.6451 12.156 16.6404 11.9693 16.6311 11.736C16.6217 11.5027 16.5984 11.3253 16.5611 11.204C16.5331 11.0733 16.4911 10.9427 16.4351 10.812C16.3884 10.672 16.3184 10.574 16.2251 10.518C16.1411 10.4527 16.0384 10.42 15.9171 10.42C15.7957 10.42 15.6884 10.4527 15.5951 10.518C15.5111 10.574 15.4411 10.672 15.3851 10.812C15.3384 10.9427 15.2964 11.0733 15.2591 11.204C15.2311 11.3253 15.2124 11.5027 15.2031 11.736C15.1937 11.9693 15.1844 12.156 15.1751 12.296C15.1751 12.436 15.1751 12.6413 15.1751 12.912C15.1751 13.1827 15.1751 13.388 15.1751 13.528C15.1844 13.668 15.1937 13.8547 15.2031 14.088C15.2124 14.3213 15.2311 14.5033 15.2591 14.634C15.2964 14.7553 15.3384 14.886 15.3851 15.026C15.4411 15.1567 15.5111 15.2547 15.5951 15.32ZM17.5971 18.414C17.3357 18.414 16.7851 18.498 15.9451 18.666C15.1051 18.834 14.5357 18.9273 14.2371 18.946C14.7597 19.5713 15.4644 19.884 16.3511 19.884C16.8364 19.884 17.2891 19.786 17.7091 19.59C18.1384 19.4033 18.3531 19.184 18.3531 18.932C18.3531 18.5867 18.1011 18.414 17.5971 18.414Z" fill="#888888"/>
</svg>
