<svg width="24" height="24" viewBox="0 0 24 24" fill="none" xmlns="http://www.w3.org/2000/svg">
<path d="M12.3614 15.65V15.874H7.85338V15.65H8.76338L7.68538 12.542H5.37538L4.88538 13.984C4.76405 14.348 4.70338 14.6187 4.70338 14.796C4.70338 15.1227 4.81072 15.3467 5.02538 15.468C5.24938 15.5893 5.56205 15.65 5.96338 15.65H6.45338V15.874H2.85538V15.65C3.13538 15.65 3.36405 15.622 3.54138 15.566C3.72805 15.5007 3.88672 15.3793 4.01738 15.202C4.14805 15.0153 4.24138 14.852 4.29738 14.712C4.36272 14.572 4.45605 14.3247 4.57738 13.97L6.99938 7.11C7.07405 6.89533 7.14405 6.72733 7.20938 6.606C7.27472 6.48467 7.41005 6.36333 7.61538 6.242C7.83005 6.11133 8.10072 6.046 8.42738 6.046L11.7734 15.65H12.3614ZM6.53738 9.21L5.45938 12.318H7.61538L6.53738 9.21ZM12.6971 11.912C12.6971 11.0347 13.0097 10.358 13.6351 9.882C14.2604 9.406 15.0211 9.168 15.9171 9.168C16.2064 9.168 16.4911 9.196 16.7711 9.252C16.5377 8.99067 16.4211 8.67333 16.4211 8.3C16.4211 7.92667 16.5471 7.60467 16.7991 7.334C17.0604 7.06333 17.3731 6.928 17.7371 6.928C18.1104 6.928 18.4184 7.03533 18.6611 7.25C18.9037 7.46467 19.0251 7.74 19.0251 8.076C19.0251 8.412 18.9271 8.68733 18.7311 8.902C18.5351 9.10733 18.2877 9.21 17.9891 9.21C17.6997 9.21 17.4571 9.126 17.2611 8.958C17.0744 8.78067 16.9811 8.55667 16.9811 8.286C16.9811 8.01533 17.0744 7.80067 17.2611 7.642C17.4011 7.57667 17.4711 7.502 17.4711 7.418C17.4711 7.334 17.4291 7.292 17.3451 7.292C17.2891 7.292 17.2191 7.32 17.1351 7.376C16.8271 7.60933 16.6731 7.922 16.6731 8.314C16.6731 8.80867 16.9577 9.20067 17.5271 9.49C18.6004 9.95667 19.1371 10.764 19.1371 11.912C19.1371 12.7893 18.8244 13.466 18.1991 13.942C17.5737 14.418 16.8131 14.656 15.9171 14.656C15.3011 14.656 14.7504 14.5487 14.2651 14.334C13.6677 14.586 13.3691 14.8473 13.3691 15.118C13.3691 15.3047 13.4437 15.4307 13.5931 15.496C13.7424 15.552 13.9991 15.58 14.3631 15.58C14.7271 15.58 15.3057 15.4867 16.0991 15.3C16.9017 15.1133 17.4291 15.02 17.6811 15.02C18.2224 15.02 18.6517 15.16 18.9691 15.44C19.2864 15.72 19.4451 16.0887 19.4451 16.546C19.4451 17.2647 19.1417 17.876 18.5351 18.38C17.9284 18.884 17.2004 19.136 16.3511 19.136C15.3431 19.136 14.5217 18.7393 13.8871 17.946C13.4297 17.9087 13.0611 17.736 12.7811 17.428C12.5011 17.12 12.3611 16.7467 12.3611 16.308C12.3611 15.8787 12.5011 15.4727 12.7811 15.09C13.0704 14.7073 13.4717 14.404 13.9851 14.18C13.1264 13.6947 12.6971 12.9387 12.6971 11.912ZM15.5951 14.32C15.6884 14.376 15.7957 14.404 15.9171 14.404C16.0384 14.404 16.1411 14.376 16.2251 14.32C16.3184 14.2547 16.3884 14.1567 16.4351 14.026C16.4911 13.886 16.5331 13.7553 16.5611 13.634C16.5984 13.5033 16.6217 13.3213 16.6311 13.088C16.6404 12.8547 16.6451 12.668 16.6451 12.528C16.6544 12.388 16.6591 12.1827 16.6591 11.912C16.6591 11.6413 16.6544 11.436 16.6451 11.296C16.6451 11.156 16.6404 10.9693 16.6311 10.736C16.6217 10.5027 16.5984 10.3253 16.5611 10.204C16.5331 10.0733 16.4911 9.94267 16.4351 9.812C16.3884 9.672 16.3184 9.574 16.2251 9.518C16.1411 9.45267 16.0384 9.42 15.9171 9.42C15.7957 9.42 15.6884 9.45267 15.5951 9.518C15.5111 9.574 15.4411 9.672 15.3851 9.812C15.3384 9.94267 15.2964 10.0733 15.2591 10.204C15.2311 10.3253 15.2124 10.5027 15.2031 10.736C15.1937 10.9693 15.1844 11.156 15.1751 11.296C15.1751 11.436 15.1751 11.6413 15.1751 11.912C15.1751 12.1827 15.1751 12.388 15.1751 12.528C15.1844 12.668 15.1937 12.8547 15.2031 13.088C15.2124 13.3213 15.2311 13.5033 15.2591 13.634C15.2964 13.7553 15.3384 13.886 15.3851 14.026C15.4411 14.1567 15.5111 14.2547 15.5951 14.32ZM17.5971 17.414C17.3357 17.414 16.7851 17.498 15.9451 17.666C15.1051 17.834 14.5357 17.9273 14.2371 17.946C14.7597 18.5713 15.4644 18.884 16.3511 18.884C16.8364 18.884 17.2891 18.786 17.7091 18.59C18.1384 18.4033 18.3531 18.184 18.3531 17.932C18.3531 17.5867 18.1011 17.414 17.5971 17.414Z" fill="#333333"/>
</svg>
