<svg width="24" height="24" viewBox="0 0 24 24" fill="none" xmlns="http://www.w3.org/2000/svg">
<path d="M11.5564 17L10.7724 14.235H7.27236L6.49536 17H4.36736L7.43336 6.64H10.6464L13.7054 17H11.5564ZM7.78336 12.429H10.2614L9.02236 8.026L7.78336 12.429ZM16.9799 20.22C16.6019 20.22 16.2099 20.1967 15.8039 20.15C15.3979 20.1033 15.0223 20.031 14.6769 19.933V18.239C15.4049 18.4397 16.1119 18.54 16.7979 18.54C17.4839 18.54 17.9856 18.3977 18.3029 18.113C18.6203 17.833 18.7789 17.3593 18.7789 16.692V16.181H18.6739C18.4826 16.461 18.2353 16.6803 17.9319 16.839C17.6286 16.993 17.2786 17.07 16.8819 17.07C16.3873 17.07 15.9323 16.937 15.5169 16.671C15.1063 16.405 14.7749 15.992 14.5229 15.432C14.2709 14.8673 14.1449 14.1627 14.1449 13.318C14.1449 10.588 15.5053 9.22067 18.2259 9.216C18.6833 9.216 19.1499 9.25333 19.6259 9.328C20.1019 9.398 20.5336 9.50067 20.9209 9.636V16.314C20.9209 17.2287 20.7763 17.973 20.4869 18.547C20.1976 19.1257 19.7613 19.548 19.1779 19.814C18.5993 20.0847 17.8666 20.22 16.9799 20.22ZM17.7569 15.306C17.9483 15.306 18.1349 15.271 18.3169 15.201C18.4989 15.131 18.6529 15.0307 18.7789 14.9V10.938C18.5083 10.882 18.2586 10.854 18.0299 10.854C17.4559 10.854 17.0266 11.029 16.7419 11.379C16.4619 11.729 16.3219 12.3123 16.3219 13.129C16.3219 13.6843 16.3779 14.123 16.4899 14.445C16.6019 14.7623 16.7606 14.9863 16.9659 15.117C17.1759 15.243 17.4396 15.306 17.7569 15.306Z" fill="#888888"/>
</svg>
