<svg width="24" height="24" viewBox="0 0 24 24" fill="none" xmlns="http://www.w3.org/2000/svg">
<path d="M4.45526 18L7.56326 7.64H9.54426L12.6523 18H11.2803L10.3493 14.808H6.73726L5.80626 18H4.45526ZM7.08026 13.618H9.99926L8.53626 8.634L7.08026 13.618ZM15.5878 21.22C15.2891 21.22 14.9671 21.1967 14.6218 21.15C14.2764 21.1033 13.9614 21.0333 13.6768 20.94V19.813C14.2928 20.009 14.8971 20.107 15.4898 20.107C16.1384 20.107 16.6284 19.953 16.9598 19.645C17.2958 19.337 17.4638 18.7933 17.4638 18.014V17.244H17.3868C17.2281 17.4867 17.0041 17.692 16.7148 17.86C16.4301 18.0233 16.0941 18.105 15.7068 18.105C15.2774 18.105 14.8714 17.986 14.4888 17.748C14.1061 17.51 13.7958 17.118 13.5578 16.572C13.3198 16.0213 13.2008 15.277 13.2008 14.339C13.2008 12.9623 13.4971 11.9403 14.0898 11.273C14.6871 10.601 15.5714 10.265 16.7428 10.265C17.0881 10.265 17.4498 10.2953 17.8278 10.356C18.2058 10.4167 18.5348 10.4983 18.8148 10.601V17.804C18.8148 19.0313 18.5418 19.9063 17.9958 20.429C17.4498 20.9563 16.6471 21.22 15.5878 21.22ZM16.1968 16.95C16.4394 16.95 16.6774 16.8917 16.9108 16.775C17.1441 16.6537 17.3284 16.4787 17.4638 16.25V11.448C17.3564 11.4247 17.2258 11.4037 17.0718 11.385C16.9224 11.3617 16.7801 11.35 16.6448 11.35C15.9914 11.35 15.4851 11.5623 15.1258 11.987C14.7711 12.407 14.5938 13.149 14.5938 14.213C14.5938 14.955 14.6614 15.5243 14.7968 15.921C14.9368 16.313 15.1258 16.5837 15.3638 16.733C15.6064 16.8777 15.8841 16.95 16.1968 16.95Z" fill="#333333"/>
</svg>
