<svg width="24" height="24" viewBox="0 0 24 24" fill="none" xmlns="http://www.w3.org/2000/svg">
<path d="M3.62488 17L7.51688 6.64H8.34988L12.2419 17H11.5699L7.83888 6.983H8.01388L4.28288 17H3.62488ZM5.40288 13.381L5.57788 12.807H10.2889L10.4569 13.381H5.40288ZM17.5744 17.063C16.627 17.063 15.829 16.9183 15.1804 16.629C14.5364 16.335 14.0487 15.8777 13.7174 15.257C13.386 14.6363 13.2204 13.8313 13.2204 12.842C13.2204 11.8247 13.3907 11.0033 13.7314 10.378C14.0767 9.748 14.5574 9.29067 15.1734 9.006C15.7894 8.71667 16.5057 8.572 17.3224 8.572C17.6677 8.572 18.0084 8.593 18.3444 8.635C18.6804 8.677 18.9977 8.74 19.2964 8.824V9.412C18.9324 9.30933 18.5917 9.237 18.2744 9.195C17.9617 9.153 17.649 9.132 17.3364 9.132C16.641 9.132 16.0344 9.251 15.5164 9.489C14.9984 9.727 14.597 10.1167 14.3124 10.658C14.0277 11.1993 13.8854 11.9273 13.8854 12.842C13.8854 13.71 14.0207 14.4147 14.2914 14.956C14.5667 15.4927 14.9774 15.887 15.5234 16.139C16.0694 16.3863 16.7484 16.51 17.5604 16.51C17.8264 16.51 18.0924 16.4983 18.3584 16.475C18.629 16.4517 18.8764 16.4167 19.1004 16.37L18.8624 16.65V12.954H19.4784V16.902C19.1377 16.958 18.8087 16.9977 18.4914 17.021C18.1787 17.049 17.873 17.063 17.5744 17.063Z" fill="#888888"/>
</svg>
