<svg width="24" height="24" viewBox="0 0 24 24" fill="none" xmlns="http://www.w3.org/2000/svg">
<path d="M9.58714 18L9.04114 15.592H6.26214L5.72314 18H3.06314L5.61114 7.64H9.72714L12.2751 18H9.58714ZM6.78014 13.282H8.51614L7.64114 9.418L6.78014 13.282ZM15.2223 21.22C14.8676 21.22 14.4919 21.199 14.0953 21.157C13.6986 21.1197 13.3323 21.0613 12.9963 20.982V18.854C13.6543 19.022 14.3123 19.106 14.9703 19.106C15.5396 19.106 15.9596 18.9847 16.2303 18.742C16.5009 18.504 16.6363 18.1027 16.6363 17.538V17.16H16.5103C16.3609 17.454 16.1556 17.6803 15.8943 17.839C15.6376 17.993 15.3343 18.07 14.9843 18.07C14.5409 18.07 14.1256 17.9347 13.7383 17.664C13.3509 17.3887 13.0359 16.9687 12.7933 16.404C12.5553 15.8347 12.4363 15.13 12.4363 14.29C12.4363 12.946 12.7653 11.9263 13.4233 11.231C14.0859 10.531 15.1243 10.1787 16.5383 10.174C17.0143 10.174 17.4996 10.2137 17.9943 10.293C18.4889 10.3723 18.9369 10.4867 19.3383 10.636V17.048C19.3383 18.0233 19.1843 18.819 18.8763 19.435C18.5729 20.051 18.1179 20.5013 17.5113 20.786C16.9093 21.0753 16.1463 21.22 15.2223 21.22ZM16.1883 15.844C16.3609 15.844 16.5103 15.816 16.6363 15.76V12.246C16.4869 12.2273 16.3703 12.218 16.2863 12.218C16.0436 12.218 15.8429 12.2717 15.6843 12.379C15.5256 12.4863 15.4043 12.6753 15.3203 12.946C15.2363 13.212 15.1943 13.5807 15.1943 14.052C15.1943 14.5327 15.2293 14.9013 15.2993 15.158C15.3693 15.4147 15.4743 15.5943 15.6143 15.697C15.7543 15.795 15.9456 15.844 16.1883 15.844Z" fill="#333333"/>
</svg>
