<svg width="24" height="24" viewBox="0 0 24 24" fill="none" xmlns="http://www.w3.org/2000/svg">
<path d="M10.5564 18L9.77236 15.235H6.27236L5.49536 18H3.36736L6.43336 7.64H9.64636L12.7054 18H10.5564ZM6.78336 13.429H9.26136L8.02236 9.026L6.78336 13.429ZM15.9799 21.22C15.6019 21.22 15.2099 21.1967 14.8039 21.15C14.3979 21.1033 14.0223 21.031 13.6769 20.933V19.239C14.4049 19.4397 15.1119 19.54 15.7979 19.54C16.4839 19.54 16.9856 19.3977 17.3029 19.113C17.6203 18.833 17.7789 18.3593 17.7789 17.692V17.181H17.6739C17.4826 17.461 17.2353 17.6803 16.9319 17.839C16.6286 17.993 16.2786 18.07 15.8819 18.07C15.3873 18.07 14.9323 17.937 14.5169 17.671C14.1063 17.405 13.7749 16.992 13.5229 16.432C13.2709 15.8673 13.1449 15.1627 13.1449 14.318C13.1449 11.588 14.5053 10.2207 17.2259 10.216C17.6833 10.216 18.1499 10.2533 18.6259 10.328C19.1019 10.398 19.5336 10.5007 19.9209 10.636V17.314C19.9209 18.2287 19.7763 18.973 19.4869 19.547C19.1976 20.1257 18.7613 20.548 18.1779 20.814C17.5993 21.0847 16.8666 21.22 15.9799 21.22ZM16.7569 16.306C16.9483 16.306 17.1349 16.271 17.3169 16.201C17.4989 16.131 17.6529 16.0307 17.7789 15.9V11.938C17.5083 11.882 17.2586 11.854 17.0299 11.854C16.4559 11.854 16.0266 12.029 15.7419 12.379C15.4619 12.729 15.3219 13.3123 15.3219 14.129C15.3219 14.6843 15.3779 15.123 15.4899 15.445C15.6019 15.7623 15.7606 15.9863 15.9659 16.117C16.1759 16.243 16.4396 16.306 16.7569 16.306Z" fill="#333333"/>
</svg>
