<svg width="24" height="24" viewBox="0 0 24 24" fill="none" xmlns="http://www.w3.org/2000/svg">
<path d="M13.0167 17L11.7077 13.304H7.33973L6.03073 17H5.52673L9.22973 6.64H9.83173L13.5417 17H13.0167ZM7.50773 12.842H11.5397L9.52373 7.158L7.50773 12.842ZM16.755 20.22C16.4516 20.22 16.1273 20.1897 15.782 20.129C15.4413 20.073 15.1403 19.9937 14.879 19.891V19.415C15.5323 19.6437 16.16 19.758 16.762 19.758C17.3033 19.758 17.7466 19.6763 18.092 19.513C18.4373 19.3497 18.6963 19.079 18.869 18.701C19.0416 18.3277 19.128 17.8283 19.128 17.203V16.251H19.086C18.862 16.5077 18.5796 16.7177 18.239 16.881C17.903 17.0443 17.5273 17.126 17.112 17.126C16.3093 17.126 15.663 16.8343 15.173 16.251C14.683 15.6677 14.438 14.7087 14.438 13.374C14.438 10.6767 15.5626 9.328 17.812 9.328C18.1106 9.328 18.421 9.35367 18.743 9.405C19.0696 9.45167 19.3566 9.517 19.604 9.601V17.175C19.604 18.253 19.3683 19.03 18.897 19.506C18.4256 19.982 17.7116 20.22 16.755 20.22ZM17.14 16.664C17.532 16.664 17.9076 16.5683 18.267 16.377C18.6263 16.1857 18.9133 15.9103 19.128 15.551V9.951C18.946 9.90433 18.7336 9.867 18.491 9.839C18.253 9.80633 18.022 9.79 17.798 9.79C16.8506 9.79 16.1366 10.07 15.656 10.63C15.18 11.19 14.942 12.086 14.942 13.318C14.942 14.5593 15.1356 15.4273 15.523 15.922C15.915 16.4167 16.454 16.664 17.14 16.664Z" fill="#888888"/>
</svg>
