<svg width="24" height="24" viewBox="0 0 24 24" fill="none" xmlns="http://www.w3.org/2000/svg">
<path d="M9.44813 18L8.58013 15.473H4.30313L3.43513 18H0.600125L4.34513 7.64H8.56613L12.3181 18H9.44813ZM5.05213 13.303H7.83813L6.44513 9.243L5.05213 13.303ZM16.659 21.22C15.5017 21.22 14.4353 21.101 13.46 20.863V18.7C13.992 18.8353 14.517 18.938 15.035 19.008C15.5577 19.078 16.0267 19.113 16.442 19.113C17.016 19.113 17.4757 19.0547 17.821 18.938C18.1663 18.826 18.416 18.6557 18.57 18.427C18.724 18.1983 18.801 17.9043 18.801 17.545V17.167H18.675C18.0823 17.7083 17.3077 17.979 16.351 17.979C15.7163 17.979 15.1353 17.8367 14.608 17.552C14.0853 17.2673 13.67 16.8497 13.362 16.299C13.054 15.7483 12.9 15.0903 12.9 14.325C12.9 13.4617 13.089 12.722 13.467 12.106C13.8497 11.49 14.419 11.0187 15.175 10.692C15.931 10.3607 16.8597 10.195 17.961 10.195C18.5863 10.195 19.2327 10.2393 19.9 10.328C20.5673 10.412 21.153 10.5287 21.657 10.678V16.985C21.657 17.965 21.4797 18.7653 21.125 19.386C20.7703 20.0113 20.2243 20.4733 19.487 20.772C18.7543 21.0707 17.8117 21.22 16.659 21.22ZM17.373 15.732C17.6297 15.732 17.8817 15.6993 18.129 15.634C18.3763 15.564 18.6003 15.4637 18.801 15.333V12.421C18.4743 12.3417 18.1127 12.302 17.716 12.302C17.0627 12.302 16.5657 12.4537 16.225 12.757C15.889 13.0603 15.721 13.5083 15.721 14.101C15.721 14.6657 15.8657 15.0787 16.155 15.34C16.4443 15.6013 16.8503 15.732 17.373 15.732Z" fill="#333333"/>
</svg>
