<svg width="24" height="24" viewBox="0 0 24 24" fill="none" xmlns="http://www.w3.org/2000/svg">
<path d="M1.59117 18L5.19617 7.64H8.63317L12.2452 18H9.90017L8.98317 15.242H4.82517L3.90117 18H1.59117ZM5.43417 13.415H8.36717L6.90417 9.019L5.43417 13.415ZM16.1916 21.22C15.7436 21.22 15.2793 21.1943 14.7986 21.143C14.3226 21.0917 13.8513 21.003 13.3846 20.877V19.085C13.8653 19.211 14.332 19.3043 14.7846 19.365C15.2373 19.4257 15.648 19.456 16.0166 19.456C16.8426 19.456 17.433 19.3137 17.7876 19.029C18.1423 18.7443 18.3196 18.2823 18.3196 17.643V17.167H18.2146C17.958 17.4423 17.6453 17.6547 17.2766 17.804C16.9126 17.9533 16.4996 18.028 16.0376 18.028C15.4636 18.028 14.934 17.895 14.4486 17.629C13.968 17.3583 13.5806 16.95 13.2866 16.404C12.9926 15.858 12.8456 15.1673 12.8456 14.332C12.8456 13.0207 13.2283 12.008 13.9936 11.294C14.7636 10.58 15.9163 10.223 17.4516 10.223C17.9836 10.223 18.5343 10.2603 19.1036 10.335C19.6776 10.4097 20.191 10.517 20.6436 10.657V17.209C20.6436 18.6137 20.2796 19.6333 19.5516 20.268C18.8283 20.9027 17.7083 21.22 16.1916 21.22ZM16.8846 16.159C17.1413 16.159 17.3956 16.1193 17.6476 16.04C17.8996 15.9607 18.1236 15.8347 18.3196 15.662V12.092C18.1796 12.0547 18.0163 12.0243 17.8296 12.001C17.6476 11.9777 17.4516 11.966 17.2416 11.966C16.565 11.966 16.0493 12.141 15.6946 12.491C15.3446 12.8363 15.1696 13.3847 15.1696 14.136C15.1696 14.9013 15.326 15.431 15.6386 15.725C15.956 16.0143 16.3713 16.159 16.8846 16.159Z" fill="#333333"/>
</svg>
