<svg width="24" height="24" viewBox="0 0 24 24" fill="none" xmlns="http://www.w3.org/2000/svg">
<path d="M3.71522 17L7.77522 6.64H8.95122L13.0112 17H12.1152L8.26522 7.067H8.44722L4.59022 17H3.71522ZM5.70322 13.493L5.92022 12.758H10.7992L11.0162 13.493H5.70322ZM16.8636 20.22C16.5043 20.22 16.1123 20.1873 15.6876 20.122C15.2676 20.0613 14.878 19.9703 14.5186 19.849V19.107C14.9433 19.2423 15.347 19.3403 15.7296 19.401C16.1123 19.4663 16.481 19.499 16.8356 19.499C17.7456 19.499 18.4176 19.3053 18.8516 18.918C19.2856 18.5307 19.5026 17.8587 19.5026 16.902V16.167H19.4466C19.1806 16.447 18.8493 16.6733 18.4526 16.846C18.0606 17.0187 17.615 17.105 17.1156 17.105C16.5463 17.105 16.0283 16.9837 15.5616 16.741C15.095 16.4937 14.724 16.097 14.4486 15.551C14.1733 15.0003 14.0356 14.2723 14.0356 13.367C14.0356 12.0043 14.367 10.987 15.0296 10.315C15.697 9.643 16.6746 9.307 17.9626 9.307C18.2333 9.307 18.504 9.321 18.7746 9.349C19.05 9.37233 19.3206 9.40967 19.5866 9.461C19.8526 9.51233 20.107 9.573 20.3496 9.643V16.783C20.3496 18.0103 20.058 18.89 19.4746 19.422C18.896 19.954 18.0256 20.22 16.8636 20.22ZM17.3116 16.363C17.713 16.363 18.1073 16.2813 18.4946 16.118C18.8866 15.9547 19.2226 15.698 19.5026 15.348V10.224C19.2926 10.168 19.0476 10.1213 18.7676 10.084C18.4923 10.0467 18.1983 10.028 17.8856 10.028C16.9103 10.028 16.1683 10.287 15.6596 10.805C15.1556 11.323 14.9036 12.149 14.9036 13.283C14.9036 14.0623 15.0086 14.676 15.2186 15.124C15.4286 15.572 15.7133 15.8917 16.0726 16.083C16.4366 16.2697 16.8496 16.363 17.3116 16.363Z" fill="#888888"/>
</svg>
