<svg width="24" height="24" viewBox="0 0 24 24" fill="none" xmlns="http://www.w3.org/2000/svg">
<path d="M4.50912 17L7.33012 6.64H10.4031L13.2241 17H11.1871L8.73012 7.578H8.96112L6.52512 17H4.50912ZM6.21712 14.207L6.61612 12.45H11.1101L11.5091 14.207H6.21712ZM16.1448 20.22C15.8321 20.22 15.4891 20.199 15.1158 20.157C14.7471 20.115 14.3994 20.0497 14.0728 19.961V18.323C14.3994 18.4163 14.7191 18.484 15.0318 18.526C15.3491 18.5727 15.6618 18.596 15.9698 18.596C16.5718 18.596 17.0244 18.4607 17.3278 18.19C17.6311 17.924 17.7828 17.4503 17.7828 16.769V16.202H17.6848C17.5354 16.4727 17.3231 16.6873 17.0478 16.846C16.7724 17.0047 16.4504 17.084 16.0818 17.084C15.6571 17.084 15.2511 16.9603 14.8638 16.713C14.4811 16.461 14.1661 16.0597 13.9188 15.509C13.6761 14.9537 13.5548 14.2233 13.5548 13.318C13.5548 11.9693 13.8651 10.9497 14.4858 10.259C15.1064 9.56833 16.0724 9.223 17.3838 9.223C17.6544 9.223 17.9321 9.23933 18.2168 9.272C18.5061 9.3 18.7884 9.34433 19.0638 9.405C19.3391 9.461 19.5934 9.53333 19.8268 9.622V16.419C19.8268 17.7723 19.5164 18.743 18.8958 19.331C18.2798 19.9237 17.3628 20.22 16.1448 20.22ZM16.9358 15.383C17.0991 15.383 17.2578 15.3503 17.4118 15.285C17.5658 15.2197 17.6894 15.1263 17.7828 15.005V10.854C17.7034 10.8353 17.6101 10.8213 17.5028 10.812C17.4001 10.798 17.3021 10.791 17.2088 10.791C16.7141 10.791 16.3291 10.959 16.0538 11.295C15.7784 11.6263 15.6408 12.2377 15.6408 13.129C15.6408 13.7403 15.6921 14.2093 15.7948 14.536C15.8974 14.8627 16.0444 15.0867 16.2358 15.208C16.4318 15.3247 16.6651 15.383 16.9358 15.383Z" fill="#888888"/>
</svg>
