<svg width="24" height="24" viewBox="0 0 24 24" fill="none" xmlns="http://www.w3.org/2000/svg">
<path d="M2.50702 17L5.98602 6.64H8.69502L12.174 17H10.319L7.21802 7.473H7.43502L4.34102 17H2.50702ZM4.70502 14.025L5.11102 12.52H9.56302L9.96902 14.025H4.70502ZM15.7795 20.22C15.3968 20.22 14.9908 20.1943 14.5615 20.143C14.1368 20.0917 13.7285 20.01 13.3365 19.898V18.435C13.7518 18.5563 14.1555 18.645 14.5475 18.701C14.9395 18.757 15.3058 18.785 15.6465 18.785C16.4211 18.785 16.9858 18.631 17.3405 18.323C17.6998 18.0197 17.8795 17.504 17.8795 16.776V16.188H17.7885C17.5645 16.454 17.2821 16.6663 16.9415 16.825C16.6008 16.9837 16.2088 17.063 15.7655 17.063C15.2428 17.063 14.7575 16.9347 14.3095 16.678C13.8615 16.4213 13.4998 16.02 13.2245 15.474C12.9538 14.928 12.8185 14.2163 12.8185 13.339C12.8185 11.9997 13.1661 10.9823 13.8615 10.287C14.5568 9.59167 15.5998 9.244 16.9905 9.244C17.2938 9.244 17.6065 9.26033 17.9285 9.293C18.2505 9.321 18.5631 9.36533 18.8665 9.426C19.1745 9.48667 19.4591 9.559 19.7205 9.643V16.447C19.7205 17.7817 19.3938 18.743 18.7405 19.331C18.0918 19.9237 17.1048 20.22 15.7795 20.22ZM16.4305 15.551C16.6965 15.551 16.9578 15.502 17.2145 15.404C17.4758 15.306 17.6975 15.152 17.8795 14.942V10.784C17.7441 10.7467 17.5855 10.7163 17.4035 10.693C17.2215 10.6697 17.0301 10.658 16.8295 10.658C16.1341 10.658 15.5998 10.854 15.2265 11.246C14.8578 11.6333 14.6735 12.2773 14.6735 13.178C14.6735 13.794 14.7481 14.2747 14.8975 14.62C15.0468 14.9653 15.2521 15.208 15.5135 15.348C15.7795 15.4833 16.0851 15.551 16.4305 15.551Z" fill="#888888"/>
</svg>
