<svg width="24" height="24" viewBox="0 0 24 24" fill="none" xmlns="http://www.w3.org/2000/svg">
<path d="M3.26904 18L5.94304 7.64H9.57604L12.25 18H9.85604L9.23304 15.417H6.25104L5.63504 18H3.26904ZM6.74804 13.359H8.73604L7.73504 9.229L6.74804 13.359ZM15.1871 21.22C14.8651 21.22 14.5104 21.199 14.1231 21.157C13.7358 21.1197 13.3718 21.059 13.0311 20.975V19.071C13.6798 19.2437 14.3261 19.33 14.9701 19.33C15.5441 19.33 15.9758 19.204 16.2651 18.952C16.5544 18.7047 16.6991 18.2683 16.6991 17.643V17.181H16.5871C16.4378 17.461 16.2301 17.6803 15.9641 17.839C15.6981 17.9977 15.3854 18.077 15.0261 18.077C14.6061 18.077 14.2001 17.9487 13.8081 17.692C13.4208 17.4353 13.1034 17.0293 12.8561 16.474C12.6134 15.9187 12.4921 15.1953 12.4921 14.304C12.4921 12.9787 12.8071 11.9637 13.4371 11.259C14.0671 10.5497 15.0774 10.195 16.4681 10.195C16.9021 10.195 17.3524 10.2323 17.8191 10.307C18.2904 10.377 18.7174 10.4843 19.1001 10.629V17.216C19.1001 18.6393 18.7711 19.6613 18.1131 20.282C17.4598 20.9073 16.4844 21.22 15.1871 21.22ZM16.0691 16.089C16.3304 16.089 16.5404 16.0167 16.6991 15.872V12.064C16.6338 12.0547 16.5591 12.0453 16.4751 12.036C16.3958 12.0267 16.3188 12.022 16.2441 12.022C15.8334 12.022 15.5138 12.1667 15.2851 12.456C15.0564 12.7407 14.9421 13.2843 14.9421 14.087C14.9421 14.633 14.9841 15.0507 15.0681 15.34C15.1521 15.6247 15.2781 15.8207 15.4461 15.928C15.6141 16.0353 15.8218 16.089 16.0691 16.089Z" fill="#333333"/>
</svg>
