<svg width="24" height="24" viewBox="0 0 24 24" fill="none" xmlns="http://www.w3.org/2000/svg">
<path d="M4.36819 17L7.72819 6.64H9.78619L13.1392 17H11.7112L8.63819 7.305H8.84119L5.78219 17H4.36819ZM6.22319 13.815L6.53119 12.618H10.9762L11.2842 13.815H6.22319ZM16.3953 20.22C16.0639 20.22 15.7069 20.1943 15.3243 20.143C14.9463 20.0917 14.5939 20.0147 14.2673 19.912V18.757C14.6313 18.869 14.9813 18.9507 15.3173 19.002C15.6579 19.0533 15.9846 19.079 16.2973 19.079C17.0206 19.079 17.5596 18.918 17.9143 18.596C18.2689 18.2787 18.4463 17.7257 18.4463 16.937V16.216H18.3693C18.1779 16.4727 17.9236 16.6827 17.6063 16.846C17.2889 17.0093 16.9203 17.091 16.5003 17.091C16.0196 17.091 15.5716 16.9697 15.1563 16.727C14.7456 16.4843 14.4143 16.09 14.1623 15.544C13.9103 14.9933 13.7843 14.2607 13.7843 13.346C13.7843 11.9787 14.0993 10.9567 14.7293 10.28C15.3639 9.60333 16.3066 9.265 17.5573 9.265C17.8093 9.265 18.0706 9.28133 18.3413 9.314C18.6166 9.342 18.8826 9.38167 19.1393 9.433C19.4006 9.48433 19.6386 9.54733 19.8533 9.622V16.713C19.8533 17.9637 19.5639 18.8597 18.9853 19.401C18.4066 19.947 17.5433 20.22 16.3953 20.22ZM16.9833 15.901C17.2586 15.901 17.5293 15.8427 17.7953 15.726C18.0613 15.6047 18.2783 15.4227 18.4463 15.18V10.504C18.3156 10.4713 18.1593 10.4433 17.9773 10.42C17.7999 10.3967 17.6226 10.385 17.4453 10.385C16.7313 10.385 16.1806 10.5997 15.7933 11.029C15.4106 11.4537 15.2193 12.1817 15.2193 13.213C15.2193 13.927 15.2939 14.48 15.4433 14.872C15.5973 15.2593 15.8073 15.5277 16.0733 15.677C16.3393 15.8263 16.6426 15.901 16.9833 15.901Z" fill="#888888"/>
</svg>
