<svg width="24" height="24" viewBox="0 0 24 24" fill="none" xmlns="http://www.w3.org/2000/svg">
<path d="M4.15416 18L7.38816 7.64H8.90016L12.1342 18H11.0562L10.0202 14.633H6.24716L5.21816 18H4.15416ZM6.53416 13.695H9.73316L8.13016 8.473L6.53416 13.695ZM15.0526 21.22C14.7586 21.22 14.4436 21.1943 14.1076 21.143C13.7763 21.0963 13.4776 21.0263 13.2116 20.933V20.03C13.8183 20.2307 14.4109 20.331 14.9896 20.331C15.6616 20.331 16.1679 20.1677 16.5086 19.841C16.8539 19.519 17.0266 18.945 17.0266 18.119V17.265H16.9636C16.8003 17.4937 16.5716 17.692 16.2776 17.86C15.9883 18.028 15.6453 18.112 15.2486 18.112C14.8146 18.112 14.4063 17.9977 14.0236 17.769C13.6456 17.5357 13.3399 17.146 13.1066 16.6C12.8733 16.0493 12.7566 15.3003 12.7566 14.353C12.7566 12.9623 13.0483 11.938 13.6316 11.28C14.2149 10.6173 15.0619 10.286 16.1726 10.286C16.4853 10.286 16.8166 10.314 17.1666 10.37C17.5213 10.426 17.8246 10.5007 18.0766 10.594V17.972C18.0766 19.1433 17.8199 19.9763 17.3066 20.471C16.7933 20.9703 16.0419 21.22 15.0526 21.22ZM15.5776 17.195C15.8576 17.195 16.1306 17.125 16.3966 16.985C16.6673 16.8403 16.8773 16.6327 17.0266 16.362V11.266C16.9099 11.238 16.7653 11.2147 16.5926 11.196C16.4246 11.1727 16.2613 11.161 16.1026 11.161C15.3839 11.161 14.8263 11.392 14.4296 11.854C14.0376 12.3113 13.8416 13.1093 13.8416 14.248C13.8416 15.0507 13.9163 15.6643 14.0656 16.089C14.2196 16.5137 14.4273 16.8053 14.6886 16.964C14.9499 17.118 15.2463 17.195 15.5776 17.195Z" fill="#333333"/>
</svg>
