<svg width="24" height="24" viewBox="0 0 24 24" fill="none" xmlns="http://www.w3.org/2000/svg">
<path d="M2.25523 17L5.73423 6.64H9.82923L13.3012 17H10.5432L7.63823 7.83H7.89723L4.98523 17H2.25523ZM5.08323 14.459L5.71323 12.31H9.83623L10.4522 14.459H5.08323ZM17.2961 20.22C16.8201 20.22 16.3348 20.1943 15.8401 20.143C15.3455 20.0917 14.8508 20.0077 14.3561 19.891V17.791C14.8555 17.917 15.3408 18.0103 15.8121 18.071C16.2835 18.1317 16.7058 18.162 17.0791 18.162C17.8771 18.162 18.4418 18.0337 18.7731 17.777C19.1091 17.5203 19.2771 17.1167 19.2771 16.566V16.167H19.1511C18.8991 16.4377 18.5935 16.6453 18.2341 16.79C17.8795 16.9347 17.4758 17.007 17.0231 17.007C16.4491 17.007 15.9171 16.8693 15.4271 16.594C14.9371 16.3187 14.5428 15.908 14.2441 15.362C13.9455 14.816 13.7961 14.1347 13.7961 13.318C13.7961 12.0253 14.1951 11.015 14.9931 10.287C15.7911 9.559 16.9928 9.195 18.5981 9.195C18.9761 9.195 19.3681 9.21367 19.7741 9.251C20.1801 9.28833 20.5768 9.342 20.9641 9.412C21.3561 9.47733 21.7108 9.56133 22.0281 9.664V16.041C22.0281 17.4923 21.6431 18.5517 20.8731 19.219C20.1078 19.8863 18.9155 20.22 17.2961 20.22ZM18.0591 14.809C18.2738 14.809 18.4861 14.781 18.6961 14.725C18.9108 14.669 19.1045 14.5827 19.2771 14.466V11.337C19.1558 11.309 19.0158 11.2857 18.8571 11.267C18.6985 11.2483 18.5305 11.239 18.3531 11.239C17.7651 11.239 17.3148 11.3883 17.0021 11.687C16.6941 11.9857 16.5401 12.4547 16.5401 13.094C16.5401 13.5233 16.6008 13.864 16.7221 14.116C16.8481 14.368 17.0255 14.5477 17.2541 14.655C17.4828 14.7577 17.7511 14.809 18.0591 14.809Z" fill="#888888"/>
</svg>
