<svg width="24" height="24" viewBox="0 0 24 24" fill="none" xmlns="http://www.w3.org/2000/svg">
<path d="M4.29349 18L7.87049 7.64H8.99749L12.5815 18H11.7275L10.5305 14.486H6.32349L5.12649 18H4.29349ZM6.56849 13.758H10.2855L8.42349 8.326L6.56849 13.758ZM15.8041 21.22C15.4915 21.22 15.1578 21.192 14.8031 21.136C14.4485 21.08 14.1265 21.0007 13.8371 20.898V20.177C14.1825 20.2937 14.5161 20.3777 14.8381 20.429C15.1601 20.485 15.4705 20.513 15.7691 20.513C16.5345 20.513 17.1061 20.3357 17.4841 19.981C17.8668 19.6263 18.0581 19.001 18.0581 18.105V17.244H18.0021C17.8061 17.482 17.5425 17.6873 17.2111 17.86C16.8845 18.028 16.5018 18.112 16.0631 18.112C15.5871 18.112 15.1438 17.9953 14.7331 17.762C14.3271 17.5287 14.0005 17.139 13.7531 16.593C13.5058 16.047 13.3821 15.3027 13.3821 14.36C13.3821 12.974 13.6831 11.952 14.2851 11.294C14.8918 10.636 15.7621 10.307 16.8961 10.307C17.2275 10.307 17.5705 10.335 17.9251 10.391C18.2798 10.4423 18.5948 10.5147 18.8701 10.608V18.007C18.8701 19.1643 18.6111 19.988 18.0931 20.478C17.5751 20.9727 16.8121 21.22 15.8041 21.22ZM16.2591 17.391C16.5998 17.391 16.9335 17.3117 17.2601 17.153C17.5915 16.9897 17.8575 16.7447 18.0581 16.418V11.154C17.9041 11.112 17.7175 11.077 17.4981 11.049C17.2835 11.021 17.0665 11.007 16.8471 11.007C15.9978 11.007 15.3468 11.259 14.8941 11.763C14.4461 12.2623 14.2221 13.1023 14.2221 14.283C14.2221 15.109 14.3108 15.7483 14.4881 16.201C14.6701 16.649 14.9151 16.9593 15.2231 17.132C15.5311 17.3047 15.8765 17.391 16.2591 17.391Z" fill="#333333"/>
</svg>
