<svg width="24" height="24" viewBox="0 0 24 24" fill="none" xmlns="http://www.w3.org/2000/svg">
<path d="M4.44241 18L7.85841 7.64H8.67041L12.0864 18H11.4424L10.2594 14.381H6.25541L5.07941 18H4.44241ZM6.44441 13.807H10.0704L8.25741 8.242L6.44441 13.807ZM15.0101 21.22C14.7255 21.22 14.4245 21.192 14.1071 21.136C13.7945 21.0847 13.5145 21.0123 13.2671 20.919V20.338C13.5798 20.45 13.8785 20.5317 14.1631 20.583C14.4478 20.6343 14.7255 20.66 14.9961 20.66C15.7008 20.66 16.2328 20.485 16.5921 20.135C16.9515 19.785 17.1311 19.1643 17.1311 18.273V17.293H17.0891C16.9211 17.5077 16.6855 17.7013 16.3821 17.874C16.0835 18.042 15.7311 18.126 15.3251 18.126C14.8865 18.126 14.4781 18.014 14.1001 17.79C13.7221 17.566 13.4165 17.181 13.1831 16.635C12.9545 16.089 12.8401 15.333 12.8401 14.367C12.8401 12.953 13.1225 11.9263 13.6871 11.287C14.2565 10.643 15.0521 10.321 16.0741 10.321C16.3541 10.321 16.6505 10.3467 16.9631 10.398C17.2758 10.4447 17.5371 10.5053 17.7471 10.58V18.217C17.7471 19.309 17.5138 20.0813 17.0471 20.534C16.5805 20.9913 15.9015 21.22 15.0101 21.22ZM15.4231 17.552C15.7545 17.552 16.0788 17.4657 16.3961 17.293C16.7135 17.1157 16.9585 16.859 17.1311 16.523V11.007C16.9958 10.9743 16.8278 10.944 16.6271 10.916C16.4311 10.888 16.2421 10.874 16.0601 10.874C15.2388 10.874 14.6041 11.133 14.1561 11.651C13.7081 12.169 13.4841 13.0533 13.4841 14.304C13.4841 15.186 13.5705 15.8627 13.7431 16.334C13.9158 16.8007 14.1491 17.1203 14.4431 17.293C14.7371 17.4657 15.0638 17.552 15.4231 17.552Z" fill="#333333"/>
</svg>
