<svg width="24" height="24" viewBox="0 0 24 24" fill="none" xmlns="http://www.w3.org/2000/svg">
<path d="M3.06314 18L5.61114 7.64H9.72714L12.2751 18H9.58714L9.04114 15.592H6.26214L5.72314 18H3.06314ZM6.78014 13.282H8.51614L7.64114 9.418L6.78014 13.282ZM15.2223 21.22C14.8956 21.22 14.5316 21.2013 14.1303 21.164C13.7336 21.1267 13.3556 21.066 12.9963 20.982V18.854C13.6543 19.022 14.3123 19.106 14.9703 19.106C15.5256 19.106 15.9409 18.9893 16.2163 18.756C16.4963 18.5227 16.6363 18.1167 16.6363 17.538V17.16H16.5103C16.2069 17.7667 15.6983 18.07 14.9843 18.07C14.5643 18.07 14.1583 17.9393 13.7663 17.678C13.3789 17.412 13.0593 17.0013 12.8073 16.446C12.5599 15.8907 12.4363 15.172 12.4363 14.29C12.4363 12.9787 12.7583 11.966 13.4023 11.252C14.0463 10.5333 15.0916 10.174 16.5383 10.174C17.0003 10.174 17.4786 10.2137 17.9733 10.293C18.4726 10.3677 18.9276 10.482 19.3383 10.636V17.048C19.3383 18.5227 18.9929 19.5867 18.3023 20.24C17.6163 20.8933 16.5896 21.22 15.2223 21.22ZM16.1883 15.844C16.3609 15.844 16.5103 15.816 16.6363 15.76V12.246C16.5803 12.2367 16.5219 12.2297 16.4613 12.225C16.4006 12.2203 16.3423 12.218 16.2863 12.218C15.9456 12.218 15.6773 12.3417 15.4813 12.589C15.2899 12.8363 15.1943 13.324 15.1943 14.052C15.1943 14.5373 15.2293 14.9107 15.2993 15.172C15.3693 15.4287 15.4766 15.606 15.6213 15.704C15.7706 15.7973 15.9596 15.844 16.1883 15.844Z" fill="#333333"/>
</svg>
