<svg width="24" height="24" viewBox="0 0 24 24" fill="none" xmlns="http://www.w3.org/2000/svg">
<path d="M1.44958 17L5.31358 6.64H8.87658L12.7476 17H10.3046L6.95858 7.69H7.21058L3.86458 17H1.44958ZM4.39658 14.256L4.97758 12.401H9.20558L9.77258 14.256H4.39658ZM17.0407 20.22C16.5413 20.22 16.035 20.192 15.5217 20.136C15.0083 20.08 14.4973 19.9867 13.9887 19.856V18.001C14.5253 18.141 15.041 18.2437 15.5357 18.309C16.0303 18.379 16.4737 18.414 16.8657 18.414C17.7617 18.414 18.3963 18.267 18.7697 17.973C19.143 17.6837 19.3297 17.2263 19.3297 16.601V16.16H19.2177C18.9283 16.4307 18.5853 16.6407 18.1887 16.79C17.7967 16.9347 17.351 17.007 16.8517 17.007C16.231 17.007 15.6617 16.8717 15.1437 16.601C14.6257 16.3257 14.2103 15.9173 13.8977 15.376C13.5897 14.83 13.4357 14.1487 13.4357 13.332C13.4357 12.0347 13.844 11.0267 14.6607 10.308C15.482 9.58467 16.6953 9.223 18.3007 9.223C18.6833 9.223 19.0777 9.24167 19.4837 9.279C19.8943 9.31167 20.2933 9.36067 20.6807 9.426C21.068 9.49133 21.425 9.573 21.7517 9.671V16.139C21.7517 17.5577 21.369 18.5913 20.6037 19.24C19.843 19.8933 18.6553 20.22 17.0407 20.22ZM17.6987 15.082C17.988 15.082 18.275 15.04 18.5597 14.956C18.8443 14.8673 19.101 14.732 19.3297 14.55V11.169C19.1663 11.127 18.9797 11.0943 18.7697 11.071C18.5597 11.043 18.3333 11.029 18.0907 11.029C17.3533 11.029 16.7933 11.2063 16.4107 11.561C16.028 11.911 15.8367 12.4383 15.8367 13.143C15.8367 13.6143 15.916 13.9923 16.0747 14.277C16.2333 14.5617 16.4503 14.767 16.7257 14.893C17.0057 15.019 17.33 15.082 17.6987 15.082Z" fill="#888888"/>
</svg>
