<svg width="24" height="24" viewBox="0 0 24 24" fill="none" xmlns="http://www.w3.org/2000/svg">
<path d="M12.2579 17L10.7389 13.381H5.5519L4.0399 17H3.3679L7.7359 6.64H8.5759L12.9369 17H12.2579ZM5.7969 12.807H10.5009L8.1489 7.193L5.7969 12.807ZM17.0738 20.22C16.6958 20.22 16.2828 20.185 15.8348 20.115C15.3915 20.045 14.9878 19.9447 14.6238 19.814V19.233C15.4778 19.513 16.2945 19.653 17.0738 19.653C17.7551 19.653 18.3058 19.5597 18.7258 19.373C19.1505 19.191 19.4655 18.8923 19.6708 18.477C19.8808 18.0663 19.9858 17.5157 19.9858 16.825V16.118H19.9368C19.6288 16.4353 19.2578 16.6827 18.8238 16.86C18.3898 17.0327 17.9115 17.119 17.3888 17.119C16.7495 17.119 16.1871 16.9907 15.7018 16.734C15.2165 16.4727 14.8338 16.0643 14.5538 15.509C14.2738 14.949 14.1338 14.2373 14.1338 13.374C14.1338 12.0253 14.4698 11.0127 15.1418 10.336C15.8185 9.65933 16.8218 9.321 18.1518 9.321C19.0058 9.321 19.8271 9.43533 20.6158 9.664V16.748C20.6158 17.5693 20.4851 18.2343 20.2238 18.743C19.9625 19.2563 19.5705 19.6297 19.0478 19.863C18.5298 20.101 17.8718 20.22 17.0738 20.22ZM17.4868 16.538C17.9675 16.538 18.4248 16.447 18.8588 16.265C19.2975 16.083 19.6731 15.803 19.9858 15.425V10.119C19.4165 9.965 18.7818 9.888 18.0818 9.888C16.9805 9.888 16.1545 10.168 15.6038 10.728C15.0578 11.2833 14.7848 12.142 14.7848 13.304C14.7848 14.4427 15.0251 15.2663 15.5058 15.775C15.9911 16.2837 16.6515 16.538 17.4868 16.538Z" fill="#888888"/>
</svg>
