<svg width="24" height="24" viewBox="0 0 24 24" fill="none" xmlns="http://www.w3.org/2000/svg">
<path d="M9.4787 18L8.8767 15.613H5.7687L5.1737 18H2.3737L5.1947 7.64H9.4927L12.3067 18H9.4787ZM6.3567 13.261H8.2887L7.3227 9.418L6.3567 13.261ZM15.5991 21.22C14.6751 21.22 13.8398 21.1313 13.0931 20.954V18.749C13.8538 18.9403 14.6051 19.036 15.3471 19.036C15.9818 19.036 16.4414 18.9193 16.7261 18.686C17.0108 18.4527 17.1531 18.0653 17.1531 17.524V17.167H17.0271C16.8451 17.4517 16.6071 17.6687 16.3131 17.818C16.0238 17.9673 15.6901 18.042 15.3121 18.042C14.8221 18.042 14.3648 17.9043 13.9401 17.629C13.5154 17.349 13.1724 16.929 12.9111 16.369C12.6544 15.8043 12.5261 15.1137 12.5261 14.297C12.5261 12.967 12.8854 11.9497 13.6041 11.245C14.3274 10.5357 15.4334 10.1787 16.9221 10.174C17.4448 10.174 17.9791 10.216 18.5251 10.3C19.0758 10.3793 19.5658 10.496 19.9951 10.65V16.999C19.9951 17.9837 19.8341 18.7863 19.5121 19.407C19.1948 20.0277 18.7118 20.485 18.0631 20.779C17.4191 21.073 16.5978 21.22 15.5991 21.22ZM16.5161 15.732C16.7588 15.732 16.9711 15.69 17.1531 15.606V12.351C16.9804 12.3183 16.8171 12.302 16.6631 12.302C16.2384 12.302 15.9211 12.435 15.7111 12.701C15.5058 12.9623 15.4031 13.4127 15.4031 14.052C15.4031 14.4907 15.4428 14.8313 15.5221 15.074C15.6061 15.3167 15.7274 15.487 15.8861 15.585C16.0448 15.683 16.2548 15.732 16.5161 15.732Z" fill="#333333"/>
</svg>
