<svg width="24" height="24" viewBox="0 0 24 24" fill="none" xmlns="http://www.w3.org/2000/svg">
<path d="M11.721 18L10.524 14.493H6.31698L5.11998 18H4.27298L7.85698 7.64H8.99798L12.589 18H11.721ZM6.56898 13.758H10.272L8.41698 8.326L6.56898 13.758ZM15.818 21.22C15.496 21.22 15.1553 21.192 14.796 21.136C14.4413 21.08 14.1216 21.0007 13.837 20.898V20.17C14.523 20.394 15.1716 20.506 15.783 20.506C16.3056 20.506 16.7326 20.429 17.064 20.275C17.4 20.121 17.6496 19.869 17.813 19.519C17.981 19.169 18.065 18.7023 18.065 18.119V17.244H18.009C17.799 17.5007 17.526 17.7107 17.19 17.874C16.8586 18.0327 16.4876 18.112 16.077 18.112C15.2743 18.112 14.6233 17.818 14.124 17.23C13.6293 16.6373 13.382 15.683 13.382 14.367C13.382 12.995 13.6806 11.9753 14.278 11.308C14.88 10.6407 15.7573 10.307 16.91 10.307C17.2413 10.307 17.5866 10.335 17.946 10.391C18.3053 10.4423 18.6203 10.5147 18.891 10.608V18.014C18.891 19.1433 18.6366 19.96 18.128 20.464C17.624 20.968 16.854 21.22 15.818 21.22ZM16.266 17.377C16.6253 17.377 16.966 17.293 17.288 17.125C17.6146 16.957 17.8736 16.7167 18.065 16.404V11.161C17.897 11.119 17.7056 11.084 17.491 11.056C17.2763 11.028 17.0663 11.014 16.861 11.014C15.9883 11.014 15.3326 11.273 14.894 11.791C14.4553 12.3043 14.236 13.135 14.236 14.283C14.236 15.4357 14.4133 16.2407 14.768 16.698C15.1273 17.1507 15.6266 17.377 16.266 17.377Z" fill="#333333"/>
</svg>
