<svg width="24" height="24" viewBox="0 0 24 24" fill="none" xmlns="http://www.w3.org/2000/svg">
<path d="M5.45526 17L8.56326 6.64H10.5443L13.6523 17H12.2803L9.43826 7.291H9.64126L6.80626 17H5.45526ZM7.08626 13.808L7.36626 12.618H11.7343L12.0143 13.808H7.08626ZM16.5878 20.22C16.2891 20.22 15.9671 20.1967 15.6218 20.15C15.2764 20.1033 14.9614 20.0333 14.6768 19.94V18.813C14.9941 18.9157 15.3021 18.9903 15.6008 19.037C15.9041 19.0837 16.2004 19.107 16.4898 19.107C17.1431 19.107 17.6354 18.953 17.9668 18.645C18.2981 18.337 18.4638 17.7933 18.4638 17.014V16.244H18.3868C18.2281 16.4867 18.0064 16.692 17.7218 16.86C17.4371 17.0233 17.0988 17.105 16.7068 17.105C16.2774 17.105 15.8714 16.986 15.4888 16.748C15.1061 16.51 14.7958 16.118 14.5578 15.572C14.3198 15.0213 14.2008 14.277 14.2008 13.339C14.2008 11.9623 14.4971 10.9403 15.0898 10.273C15.6871 9.601 16.5714 9.265 17.7428 9.265C17.9714 9.265 18.2094 9.279 18.4568 9.307C18.7041 9.335 18.9444 9.37467 19.1778 9.426C19.4158 9.47267 19.6281 9.531 19.8148 9.601V16.804C19.8148 18.0313 19.5418 18.9063 18.9958 19.429C18.4544 19.9563 17.6518 20.22 16.5878 20.22ZM17.1968 15.95C17.4394 15.95 17.6774 15.8917 17.9108 15.775C18.1441 15.6537 18.3284 15.4787 18.4638 15.25V10.448C18.3564 10.42 18.2258 10.3967 18.0718 10.378C17.9224 10.3593 17.7801 10.35 17.6448 10.35C16.9914 10.35 16.4851 10.5623 16.1258 10.987C15.7711 11.407 15.5938 12.149 15.5938 13.213C15.5938 13.955 15.6614 14.5243 15.7968 14.921C15.9321 15.313 16.1211 15.5837 16.3638 15.733C16.6064 15.8777 16.8841 15.95 17.1968 15.95Z" fill="#888888"/>
</svg>
