<svg width="24" height="24" viewBox="0 0 24 24" fill="none" xmlns="http://www.w3.org/2000/svg">
<path d="M11.3943 17L10.4983 14.018H6.77427L5.87827 17H4.12127L7.34127 6.64H9.95927L13.1793 17H11.3943ZM7.22227 12.527H10.0503L8.63627 7.816L7.22227 12.527ZM16.4444 20.22C16.0804 20.22 15.7024 20.1943 15.3104 20.143C14.9184 20.0963 14.5568 20.024 14.2254 19.926V18.505C14.9348 18.715 15.6278 18.82 16.3044 18.82C16.7804 18.82 17.1701 18.7547 17.4734 18.624C17.7768 18.4933 18.0031 18.281 18.1524 17.987C18.3018 17.6977 18.3764 17.3103 18.3764 16.825V16.202H18.2854C18.0848 16.4773 17.8281 16.6943 17.5154 16.853C17.2028 17.007 16.8481 17.084 16.4514 17.084C15.9474 17.084 15.4901 16.9557 15.0794 16.699C14.6688 16.4377 14.3398 16.027 14.0924 15.467C13.8451 14.9023 13.7214 14.1907 13.7214 13.332C13.7214 10.6113 15.0304 9.24867 17.6484 9.244C18.0684 9.244 18.5001 9.279 18.9434 9.349C19.3868 9.41433 19.7858 9.50767 20.1404 9.629V16.524C20.1404 17.3967 20.0028 18.1037 19.7274 18.645C19.4568 19.191 19.0484 19.59 18.5024 19.842C17.9611 20.094 17.2751 20.22 16.4444 20.22ZM17.1234 15.614C17.3614 15.614 17.5924 15.565 17.8164 15.467C18.0404 15.369 18.2271 15.2267 18.3764 15.04V10.714C18.1011 10.6487 17.8071 10.616 17.4944 10.616C16.8364 10.616 16.3418 10.8143 16.0104 11.211C15.6791 11.6077 15.5134 12.261 15.5134 13.171C15.5134 13.7963 15.5788 14.2887 15.7094 14.648C15.8401 15.0073 16.0221 15.2593 16.2554 15.404C16.4888 15.544 16.7781 15.614 17.1234 15.614Z" fill="#888888"/>
</svg>
