<svg width="24" height="24" viewBox="0 0 24 24" fill="none" xmlns="http://www.w3.org/2000/svg">
<path d="M12.721 17L11.524 13.493H7.31698L6.11998 17H5.27298L8.85698 6.64H9.99798L13.589 17H12.721ZM7.56898 12.758H11.272L9.41698 7.326L7.56898 12.758ZM16.818 20.22C16.496 20.22 16.1553 20.192 15.796 20.136C15.4413 20.08 15.1216 20.0007 14.837 19.898V19.17C15.523 19.394 16.1716 19.506 16.783 19.506C17.3056 19.506 17.7326 19.429 18.064 19.275C18.4 19.121 18.6496 18.869 18.813 18.519C18.981 18.169 19.065 17.7023 19.065 17.119V16.244H19.009C18.799 16.5007 18.526 16.7107 18.19 16.874C17.8586 17.0327 17.4876 17.112 17.077 17.112C16.2743 17.112 15.6233 16.818 15.124 16.23C14.6293 15.6373 14.382 14.683 14.382 13.367C14.382 11.995 14.6806 10.9753 15.278 10.308C15.88 9.64067 16.7573 9.307 17.91 9.307C18.2413 9.307 18.5866 9.335 18.946 9.391C19.3053 9.44233 19.6203 9.51467 19.891 9.608V17.014C19.891 18.1433 19.6366 18.96 19.128 19.464C18.624 19.968 17.854 20.22 16.818 20.22ZM17.266 16.377C17.6253 16.377 17.966 16.293 18.288 16.125C18.6146 15.957 18.8736 15.7167 19.065 15.404V10.161C18.897 10.119 18.7056 10.084 18.491 10.056C18.2763 10.028 18.0663 10.014 17.861 10.014C16.9883 10.014 16.3326 10.273 15.894 10.791C15.4553 11.3043 15.236 12.135 15.236 13.283C15.236 14.4357 15.4133 15.2407 15.768 15.698C16.1273 16.1507 16.6266 16.377 17.266 16.377Z" fill="#888888"/>
</svg>
