<svg width="24" height="24" viewBox="0 0 24 24" fill="none" xmlns="http://www.w3.org/2000/svg">
<path d="M3.30261 17L7.01961 6.64H8.62261L12.3396 17H11.1846L7.71261 7.179H7.90861L4.43661 17H3.30261ZM5.24861 13.647L5.51461 12.688H10.1206L10.3866 13.647H5.24861ZM17.8529 17.077C16.8309 17.077 15.9769 16.9277 15.2909 16.629C14.6049 16.3303 14.0869 15.8707 13.7369 15.25C13.3915 14.6247 13.2189 13.8243 13.2189 12.849C13.2189 11.855 13.3985 11.043 13.7579 10.413C14.1172 9.783 14.6282 9.31867 15.2909 9.02C15.9582 8.71667 16.7492 8.565 17.6639 8.565C18.0139 8.565 18.3569 8.586 18.6929 8.628C19.0335 8.66533 19.3532 8.72367 19.6519 8.803V9.755C19.3112 9.66167 18.9845 9.59633 18.6719 9.559C18.3639 9.517 18.0535 9.496 17.7409 9.496C17.0362 9.496 16.4342 9.60567 15.9349 9.825C15.4402 10.0443 15.0599 10.399 14.7939 10.889C14.5279 11.379 14.3949 12.0347 14.3949 12.856C14.3949 13.6307 14.5209 14.263 14.7729 14.753C15.0249 15.2383 15.4005 15.593 15.8999 15.817C16.3992 16.041 17.0222 16.153 17.7689 16.153C18.0209 16.153 18.2752 16.1437 18.5319 16.125C18.7932 16.1017 19.0312 16.0713 19.2459 16.034L18.7909 16.461V12.954H19.8549V16.909C19.5049 16.965 19.1619 17.007 18.8259 17.035C18.4899 17.063 18.1655 17.077 17.8529 17.077Z" fill="#888888"/>
</svg>
