<svg width="24" height="24" viewBox="0 0 24 24" fill="none" xmlns="http://www.w3.org/2000/svg">
<path d="M4.51486 17L8.45586 6.64H9.05786L12.9989 17H12.4739L8.66586 6.92H8.83386L5.02586 17H4.51486ZM6.24386 13.304L6.38386 12.842H11.1299L11.2699 13.304H6.24386ZM16.514 20.22C16.2013 20.22 15.856 20.1873 15.478 20.122C15.1046 20.0613 14.7663 19.975 14.463 19.863V19.387C14.841 19.513 15.198 19.6063 15.534 19.667C15.87 19.7277 16.199 19.758 16.521 19.758C17.3843 19.758 18.026 19.5597 18.446 19.163C18.8706 18.771 19.083 18.078 19.083 17.084V16.209H19.041C18.8076 16.4657 18.5066 16.6827 18.138 16.86C17.774 17.0373 17.3516 17.126 16.871 17.126C16.3483 17.126 15.87 17.0093 15.436 16.776C15.002 16.538 14.6543 16.146 14.393 15.6C14.1363 15.054 14.008 14.312 14.008 13.374C14.008 11.9833 14.3136 10.9613 14.925 10.308C15.541 9.65467 16.423 9.328 17.571 9.328C17.7996 9.328 18.0283 9.33967 18.257 9.363C18.4903 9.38633 18.7166 9.42133 18.936 9.468C19.1553 9.51 19.363 9.56133 19.559 9.622V17.049C19.559 18.1923 19.3023 19.0067 18.789 19.492C18.2756 19.9773 17.5173 20.22 16.514 20.22ZM16.899 16.664C17.3096 16.664 17.711 16.573 18.103 16.391C18.4996 16.2043 18.8263 15.9197 19.083 15.537V9.979C18.887 9.923 18.6536 9.87867 18.383 9.846C18.117 9.80867 17.837 9.79 17.543 9.79C16.5583 9.79 15.807 10.0653 15.289 10.616C14.771 11.1667 14.512 12.0673 14.512 13.318C14.512 14.186 14.617 14.8627 14.827 15.348C15.0416 15.8333 15.3286 16.174 15.688 16.37C16.0473 16.566 16.451 16.664 16.899 16.664Z" fill="#888888"/>
</svg>
