<svg width="24" height="24" viewBox="0 0 24 24" fill="none" xmlns="http://www.w3.org/2000/svg">
<path d="M11.2562 18L10.1432 14.5H6.2372L5.1312 18H4.3052L7.6372 7.64H8.7712L12.1032 18H11.2562ZM6.4752 13.758H9.9122L8.1902 8.347L6.4752 13.758ZM15.0313 21.22C14.7373 21.22 14.4269 21.1943 14.1003 21.143C13.7783 21.0917 13.4936 21.0193 13.2463 20.926V20.198C13.8343 20.4033 14.4176 20.506 14.9963 20.506C15.4723 20.506 15.8619 20.4313 16.1653 20.282C16.4733 20.1373 16.7043 19.8947 16.8583 19.554C17.0123 19.218 17.0893 18.7677 17.0893 18.203V17.279H17.0333C16.8559 17.5217 16.6156 17.7223 16.3123 17.881C16.0136 18.0397 15.6729 18.119 15.2903 18.119C14.5576 18.119 13.9603 17.8273 13.4983 17.244C13.0363 16.656 12.8053 15.6947 12.8053 14.36C12.8053 11.658 13.9113 10.307 16.1233 10.307C16.4126 10.307 16.7229 10.335 17.0543 10.391C17.3856 10.4423 17.6679 10.5077 17.9013 10.587V18.105C17.9013 19.2063 17.6633 19.9997 17.1873 20.485C16.7159 20.975 15.9973 21.22 15.0313 21.22ZM15.5003 17.391C15.8176 17.391 16.1209 17.3093 16.4103 17.146C16.7043 16.978 16.9306 16.7447 17.0893 16.446V11.126C16.7206 11.0467 16.3846 11.007 16.0813 11.007C15.2739 11.007 14.6649 11.2637 14.2543 11.777C13.8483 12.2857 13.6453 13.1187 13.6453 14.276C13.6453 15.0833 13.7246 15.718 13.8833 16.18C14.0419 16.6373 14.2543 16.9547 14.5203 17.132C14.7909 17.3047 15.1176 17.391 15.5003 17.391Z" fill="#333333"/>
</svg>
