<svg width="24" height="24" viewBox="0 0 24 24" fill="none" xmlns="http://www.w3.org/2000/svg">
<path d="M2.57554 17L5.92154 6.64H9.23254L12.5785 17H10.3385L7.44054 7.634H7.67854L4.78754 17H2.57554ZM4.89954 14.235L5.38954 12.422H9.75754L10.2405 14.235H4.89954ZM18.4588 17.105C17.2828 17.105 16.3051 16.9487 15.5258 16.636C14.7464 16.3233 14.1631 15.8543 13.7758 15.229C13.3884 14.599 13.1948 13.808 13.1948 12.856C13.1948 11.932 13.3931 11.1503 13.7898 10.511C14.1864 9.87167 14.7721 9.38867 15.5468 9.062C16.3261 8.73067 17.2898 8.565 18.4378 8.565C18.7971 8.565 19.1471 8.58133 19.4878 8.614C19.8331 8.64667 20.1504 8.69567 20.4398 8.761V10.518C20.1551 10.4573 19.8611 10.4107 19.5578 10.378C19.2591 10.3407 18.9558 10.322 18.6478 10.322C17.9244 10.322 17.3341 10.4107 16.8768 10.588C16.4241 10.7607 16.0881 11.036 15.8688 11.414C15.6541 11.792 15.5468 12.282 15.5468 12.884C15.5468 13.4487 15.6448 13.9153 15.8408 14.284C16.0414 14.648 16.3401 14.9187 16.7368 15.096C17.1381 15.2733 17.6398 15.362 18.2418 15.362C18.4564 15.362 18.6851 15.3527 18.9278 15.334C19.1704 15.3153 19.3874 15.292 19.5788 15.264L18.6198 16.048V12.954H20.7058V16.909C20.3324 16.9697 19.9521 17.0163 19.5648 17.049C19.1821 17.0863 18.8134 17.105 18.4588 17.105Z" fill="#888888"/>
</svg>
