<svg width="24" height="24" viewBox="0 0 24 24" fill="none" xmlns="http://www.w3.org/2000/svg">
<path d="M2.42273 17L6.53173 6.64H8.79273L12.9017 17H11.2987L7.54673 7.347H7.75673L4.00473 17H2.42273ZM4.92173 13.836L5.31373 12.597H10.0107L10.3957 13.836H4.92173ZM19.1976 17.084C17.9982 17.084 16.9996 16.9253 16.2016 16.608C15.4036 16.2907 14.8062 15.8193 14.4096 15.194C14.0129 14.564 13.8146 13.7847 13.8146 12.856C13.8146 11.918 14.0222 11.1317 14.4376 10.497C14.8576 9.85767 15.4596 9.377 16.2436 9.055C17.0276 8.72833 17.9679 8.565 19.0646 8.565C19.4566 8.565 19.8462 8.586 20.2336 8.628C20.6209 8.67 20.9779 8.72833 21.3046 8.803V10.063C20.9359 9.97433 20.5766 9.91133 20.2266 9.874C19.8812 9.832 19.5312 9.811 19.1766 9.811C18.3832 9.811 17.7112 9.92067 17.1606 10.14C16.6099 10.3547 16.1899 10.6883 15.9006 11.141C15.6159 11.589 15.4736 12.1653 15.4736 12.87C15.4736 13.5187 15.6042 14.067 15.8656 14.515C16.1316 14.9583 16.5306 15.292 17.0626 15.516C17.5946 15.74 18.2666 15.852 19.0786 15.852C19.3772 15.852 19.6922 15.8403 20.0236 15.817C20.3549 15.7937 20.6536 15.7587 20.9196 15.712L20.0936 16.426V12.954H21.5916V16.888C21.1902 16.9487 20.7842 16.9953 20.3736 17.028C19.9676 17.0653 19.5756 17.084 19.1976 17.084Z" fill="#888888"/>
</svg>
