<svg width="24" height="24" viewBox="0 0 24 24" fill="none" xmlns="http://www.w3.org/2000/svg">
<path d="M11.9837 17L11.1577 14.011H7.73469L6.91569 17H5.22869L8.19669 6.64H10.7237L13.6917 17H11.9837ZM8.14069 12.534H10.7517L9.44269 7.809L8.14069 12.534ZM16.6163 20.22C16.2989 20.22 15.9606 20.1967 15.6013 20.15C15.2419 20.1033 14.9176 20.0357 14.6283 19.947V18.568C15.2489 18.7593 15.8649 18.855 16.4763 18.855C17.1249 18.855 17.6033 18.7057 17.9113 18.407C18.2193 18.1083 18.3733 17.6043 18.3733 16.895V16.223H18.2893C18.1259 16.489 17.9019 16.7013 17.6173 16.86C17.3326 17.0187 17.0083 17.098 16.6443 17.098C16.1869 17.098 15.7693 16.972 15.3913 16.72C15.0133 16.4633 14.7076 16.0527 14.4743 15.488C14.2456 14.9233 14.1313 14.2023 14.1313 13.325C14.1313 11.9623 14.4346 10.9427 15.0413 10.266C15.6526 9.58933 16.5766 9.24867 17.8133 9.244C18.1959 9.244 18.5903 9.27667 18.9963 9.342C19.4023 9.40733 19.7593 9.496 20.0673 9.608V16.615C20.0673 17.8797 19.7826 18.7967 19.2133 19.366C18.6439 19.9353 17.7783 20.22 16.6163 20.22ZM17.3163 15.67C17.5216 15.67 17.7199 15.6233 17.9113 15.53C18.1073 15.432 18.2613 15.299 18.3733 15.131V10.651C18.1399 10.5997 17.9066 10.574 17.6733 10.574C17.0713 10.574 16.6186 10.7723 16.3153 11.169C16.0166 11.5657 15.8673 12.233 15.8673 13.171C15.8673 13.8243 15.9256 14.3353 16.0423 14.704C16.1589 15.068 16.3199 15.32 16.5253 15.46C16.7353 15.6 16.9989 15.67 17.3163 15.67Z" fill="#888888"/>
</svg>
