<svg width="24" height="24" viewBox="0 0 24 24" fill="none" xmlns="http://www.w3.org/2000/svg">
<path d="M4.24744 17L8.06944 6.64H9.21744L13.0394 17H12.1714L8.54544 7.067H8.72744L5.10144 17H4.24744ZM6.10244 13.493L6.31244 12.758H10.9814L11.1844 13.493H6.10244ZM16.577 20.22C16.2456 20.22 15.884 20.1897 15.492 20.129C15.1046 20.073 14.7476 19.9867 14.421 19.87V19.142C14.8083 19.268 15.177 19.359 15.527 19.415C15.8816 19.4757 16.2223 19.506 16.549 19.506C17.389 19.506 18.012 19.3193 18.418 18.946C18.824 18.5773 19.027 17.931 19.027 17.007V16.202H18.971C18.7423 16.4633 18.446 16.6803 18.082 16.853C17.7226 17.0257 17.3073 17.112 16.836 17.112C16.3133 17.112 15.8326 16.993 15.394 16.755C14.96 16.5123 14.61 16.118 14.344 15.572C14.0826 15.0213 13.952 14.2863 13.952 13.367C13.952 11.9903 14.2693 10.9707 14.904 10.308C15.5386 9.64067 16.4626 9.307 17.676 9.307C17.9233 9.307 18.173 9.321 18.425 9.349C18.6816 9.37233 18.9313 9.40733 19.174 9.454C19.4166 9.50067 19.643 9.559 19.853 9.629V16.895C19.853 18.085 19.5776 18.9367 19.027 19.45C18.481 19.9633 17.6643 20.22 16.577 20.22ZM17.032 16.377C17.4053 16.377 17.7693 16.2953 18.124 16.132C18.4833 15.9687 18.7843 15.719 19.027 15.383V10.189C18.845 10.1377 18.6303 10.0957 18.383 10.063C18.1356 10.0303 17.879 10.014 17.613 10.014C16.6983 10.014 16.0006 10.2707 15.52 10.784C15.044 11.2927 14.806 12.1257 14.806 13.283C14.806 14.0857 14.904 14.711 15.1 15.159C15.296 15.607 15.562 15.922 15.898 16.104C16.234 16.286 16.612 16.377 17.032 16.377Z" fill="#888888"/>
</svg>
