<svg width="24" height="24" viewBox="0 0 24 24" fill="none" xmlns="http://www.w3.org/2000/svg">
<path d="M10.5657 18L9.41772 14.836H4.88872L3.74072 18H2.22172L6.06472 7.64H8.26272L12.1127 18H10.5657ZM5.34372 13.597H8.96272L7.15672 8.613L5.34372 13.597ZM16.0033 21.22C15.588 21.22 15.1563 21.1897 14.7083 21.129C14.265 21.0683 13.8473 20.9797 13.4553 20.863V19.645C14.3186 19.9017 15.1353 20.03 15.9053 20.03C16.4933 20.03 16.9693 19.953 17.3333 19.799C17.702 19.6497 17.9726 19.4093 18.1453 19.078C18.3226 18.7513 18.4113 18.315 18.4113 17.769V17.16H18.3343C18.0636 17.4493 17.737 17.6733 17.3543 17.832C16.9716 17.9907 16.5446 18.07 16.0733 18.07C15.4806 18.07 14.9486 17.9393 14.4773 17.678C14.006 17.412 13.6326 17.0013 13.3573 16.446C13.082 15.886 12.9443 15.186 12.9443 14.346C12.9443 13.0067 13.299 11.9917 14.0083 11.301C14.7223 10.6103 15.777 10.265 17.1723 10.265C17.639 10.265 18.1126 10.3 18.5933 10.37C19.074 10.4353 19.5173 10.531 19.9233 10.657V17.51C19.9233 18.3827 19.7786 19.0897 19.4893 19.631C19.2046 20.177 18.7753 20.5783 18.2013 20.835C17.6273 21.0917 16.8946 21.22 16.0033 21.22ZM16.5633 16.817C16.918 16.817 17.2563 16.754 17.5783 16.628C17.9003 16.4973 18.178 16.3037 18.4113 16.047V11.609C17.9913 11.5017 17.534 11.448 17.0393 11.448C16.1853 11.448 15.5436 11.672 15.1143 12.12C14.685 12.568 14.4703 13.2657 14.4703 14.213C14.4703 15.151 14.6546 15.8207 15.0233 16.222C15.392 16.6187 15.9053 16.817 16.5633 16.817Z" fill="#333333"/>
</svg>
