<svg width="24" height="24" viewBox="0 0 24 24" fill="none" xmlns="http://www.w3.org/2000/svg">
<path d="M9.90083 18L8.97683 15.242H4.81883L3.89483 18H1.56383L5.18283 7.64H8.63383L12.2528 18H9.90083ZM5.42783 13.415H8.36783L6.89783 9.026L5.42783 13.415ZM16.2193 21.22C15.2113 21.22 14.2686 21.1057 13.3913 20.877V19.078C13.8626 19.204 14.327 19.2973 14.7843 19.358C15.2416 19.4233 15.6616 19.456 16.0443 19.456C16.595 19.456 17.0383 19.393 17.3743 19.267C17.7103 19.1457 17.9553 18.9543 18.1093 18.693C18.2633 18.4317 18.3403 18.0887 18.3403 17.664V17.181H18.2283C17.967 17.4517 17.652 17.6593 17.2833 17.804C16.9193 17.9487 16.511 18.021 16.0583 18.021C15.4656 18.021 14.9266 17.8857 14.4413 17.615C13.9606 17.3397 13.5756 16.9243 13.2863 16.369C13.0016 15.8137 12.8593 15.1347 12.8593 14.332C12.8593 13.0067 13.249 11.9917 14.0283 11.287C14.8076 10.5777 15.9556 10.223 17.4723 10.223C18.0183 10.223 18.5783 10.2627 19.1523 10.342C19.7263 10.4167 20.235 10.5217 20.6783 10.657V17.23C20.6783 18.1587 20.5173 18.917 20.1953 19.505C19.8733 20.093 19.3856 20.5247 18.7323 20.8C18.079 21.08 17.2413 21.22 16.2193 21.22ZM16.8983 16.152C17.1643 16.152 17.4233 16.11 17.6753 16.026C17.9273 15.9373 18.149 15.809 18.3403 15.641V12.099C17.995 12.015 17.638 11.973 17.2693 11.973C16.5786 11.973 16.0583 12.1503 15.7083 12.505C15.3583 12.8597 15.1833 13.4057 15.1833 14.143C15.1833 14.8663 15.3326 15.382 15.6313 15.69C15.93 15.998 16.3523 16.152 16.8983 16.152Z" fill="#333333"/>
</svg>
