<svg width="24" height="24" viewBox="0 0 24 24" fill="none" xmlns="http://www.w3.org/2000/svg">
<path d="M12.8003 17L11.3723 13.388H6.48628L5.05828 17H4.39328L8.51628 6.64H9.35628L13.4793 17H12.8003ZM6.71728 12.807H11.1413L8.92928 7.207L6.71728 12.807ZM17.301 20.22C16.9463 20.22 16.5613 20.185 16.146 20.115C15.7353 20.0497 15.3643 19.9587 15.033 19.842V19.254C15.8216 19.5153 16.5753 19.646 17.294 19.646C17.924 19.646 18.4373 19.5573 18.834 19.38C19.2306 19.2073 19.527 18.9203 19.723 18.519C19.919 18.1223 20.017 17.5927 20.017 16.93V16.16H19.968C19.688 16.454 19.3473 16.6873 18.946 16.86C18.5446 17.0327 18.1013 17.119 17.616 17.119C17.0186 17.119 16.4913 16.993 16.034 16.741C15.5813 16.489 15.222 16.083 14.956 15.523C14.69 14.963 14.557 14.2443 14.557 13.367C14.557 12.0137 14.879 11.001 15.523 10.329C16.167 9.657 17.119 9.321 18.379 9.321C19.1676 9.321 19.9236 9.42833 20.647 9.643V16.86C20.647 18.0407 20.3716 18.8947 19.821 19.422C19.2703 19.954 18.4303 20.22 17.301 20.22ZM17.721 16.538C18.1643 16.538 18.5866 16.4493 18.988 16.272C19.394 16.09 19.737 15.817 20.017 15.453V10.091C19.4943 9.95567 18.9296 9.888 18.323 9.888C17.287 9.888 16.5076 10.1657 15.985 10.721C15.467 11.2717 15.208 12.1327 15.208 13.304C15.208 14.4613 15.432 15.2897 15.88 15.789C16.328 16.2883 16.9416 16.538 17.721 16.538Z" fill="#888888"/>
</svg>
