<svg width="24" height="24" viewBox="0 0 24 24" fill="none" xmlns="http://www.w3.org/2000/svg">
<path d="M10.1679 18L9.06187 15.039H4.39287L3.27987 18H1.30587L5.29587 7.64H8.17987L12.1699 18H10.1679ZM4.96687 13.499H8.48087L6.72387 8.816L4.96687 13.499ZM16.4221 21.22C15.3908 21.22 14.4248 21.094 13.5241 20.842V19.309C14.5135 19.5843 15.4375 19.722 16.2961 19.722C16.9121 19.722 17.4068 19.652 17.7801 19.512C18.1581 19.372 18.4335 19.1503 18.6061 18.847C18.7835 18.5483 18.8721 18.1517 18.8721 17.657V17.146H18.7741C18.4755 17.4353 18.1231 17.657 17.7171 17.811C17.3111 17.9603 16.8608 18.035 16.3661 18.035C15.7315 18.035 15.1575 17.8997 14.6441 17.629C14.1355 17.3537 13.7318 16.9383 13.4331 16.383C13.1345 15.8277 12.9851 15.1487 12.9851 14.346C12.9851 13.0253 13.3795 12.0127 14.1681 11.308C14.9568 10.5987 16.1141 10.244 17.6401 10.244C18.1815 10.244 18.7345 10.2813 19.2991 10.356C19.8638 10.4307 20.3795 10.5357 20.8461 10.671V17.293C20.8461 18.2077 20.6875 18.9543 20.3701 19.533C20.0528 20.1117 19.5675 20.5363 18.9141 20.807C18.2655 21.0823 17.4348 21.22 16.4221 21.22ZM17.0241 16.446C17.3695 16.446 17.7031 16.39 18.0251 16.278C18.3471 16.166 18.6295 15.9957 18.8721 15.767V11.903C18.4335 11.7957 17.9645 11.742 17.4651 11.742C15.7898 11.742 14.9521 12.5563 14.9521 14.185C14.9521 14.9783 15.1341 15.5547 15.4981 15.914C15.8668 16.2687 16.3755 16.446 17.0241 16.446Z" fill="#333333"/>
</svg>
