<svg width="24" height="24" viewBox="0 0 24 24" fill="none" xmlns="http://www.w3.org/2000/svg">
<path d="M4.12127 17L7.34827 6.64H9.95927L13.1863 17H11.4013L8.53127 7.452H8.74827L5.87827 17H4.12127ZM6.05327 14.018L6.43127 12.527H10.8693L11.2403 14.018H6.05327ZM16.4444 20.22C16.0991 20.22 15.7304 20.1943 15.3384 20.143C14.9464 20.0963 14.5754 20.024 14.2254 19.926V18.505C14.5941 18.6123 14.9534 18.6917 15.3034 18.743C15.6534 18.7943 15.9894 18.82 16.3114 18.82C17.0114 18.82 17.5294 18.6707 17.8654 18.372C18.2061 18.0733 18.3764 17.56 18.3764 16.832V16.202H18.2854C18.0941 16.468 17.8421 16.6803 17.5294 16.839C17.2214 16.9977 16.8621 17.077 16.4514 17.077C15.9754 17.077 15.5298 16.9533 15.1144 16.706C14.6991 16.454 14.3631 16.055 14.1064 15.509C13.8498 14.9583 13.7214 14.2327 13.7214 13.332C13.7214 11.9833 14.0458 10.966 14.6944 10.28C15.3478 9.58933 16.3324 9.244 17.6484 9.244C17.9238 9.244 18.2084 9.26033 18.5024 9.293C18.7964 9.321 19.0834 9.363 19.3634 9.419C19.6434 9.475 19.9024 9.545 20.1404 9.629V16.531C20.1404 17.8423 19.8324 18.785 19.2164 19.359C18.6004 19.933 17.6764 20.22 16.4444 20.22ZM17.1234 15.614C17.3568 15.614 17.5854 15.5673 17.8094 15.474C18.0381 15.376 18.2271 15.2313 18.3764 15.04V10.714C18.2598 10.686 18.1221 10.6627 17.9634 10.644C17.8094 10.6253 17.6554 10.616 17.5014 10.616C16.8621 10.616 16.3698 10.8073 16.0244 11.19C15.6838 11.5727 15.5134 12.2353 15.5134 13.178C15.5134 13.822 15.5811 14.3213 15.7164 14.676C15.8518 15.026 16.0384 15.271 16.2764 15.411C16.5191 15.5463 16.8014 15.614 17.1234 15.614Z" fill="#888888"/>
</svg>
