<svg width="24" height="24" viewBox="0 0 24 24" fill="none" xmlns="http://www.w3.org/2000/svg">
<path d="M3.50315 18L7.67515 7.64H8.27715L12.4561 18H11.9241L10.4401 14.304H5.49815L4.01415 18H3.50315ZM5.68015 13.842H10.2581L7.96915 8.13L5.68015 13.842ZM16.2661 21.22C15.9348 21.22 15.5638 21.1873 15.1531 21.122C14.7471 21.0567 14.3785 20.961 14.0471 20.835V20.359C14.4531 20.499 14.8381 20.5993 15.2021 20.66C15.5708 20.7253 15.9301 20.758 16.2801 20.758C17.2135 20.758 17.9065 20.5503 18.3591 20.135C18.8118 19.7243 19.0381 19.001 19.0381 17.965V17.16H18.9961C18.7255 17.4447 18.3895 17.678 17.9881 17.86C17.5868 18.0373 17.1341 18.126 16.6301 18.126C16.0608 18.126 15.5451 18.007 15.0831 17.769C14.6211 17.5263 14.2525 17.1297 13.9771 16.579C13.7065 16.0283 13.5711 15.2933 13.5711 14.374C13.5711 13.002 13.8908 11.9847 14.5301 11.322C15.1695 10.6593 16.1028 10.328 17.3301 10.328C18.0721 10.328 18.8001 10.433 19.5141 10.643V17.923C19.5141 19.1083 19.2411 19.953 18.6951 20.457C18.1491 20.9657 17.3395 21.22 16.2661 21.22ZM16.6581 17.664C17.0968 17.664 17.5285 17.573 17.9531 17.391C18.3778 17.209 18.7395 16.9173 19.0381 16.516V11C18.8141 10.9393 18.5505 10.8903 18.2471 10.853C17.9485 10.811 17.6288 10.79 17.2881 10.79C16.2335 10.79 15.4331 11.0723 14.8871 11.637C14.3458 12.197 14.0751 13.0907 14.0751 14.318C14.0751 15.1673 14.1871 15.837 14.4111 16.327C14.6398 16.8123 14.9478 17.1577 15.3351 17.363C15.7271 17.5637 16.1681 17.664 16.6581 17.664Z" fill="#333333"/>
</svg>
