<svg width="24" height="24" viewBox="0 0 24 24" fill="none" xmlns="http://www.w3.org/2000/svg">
<path d="M12.566 17L11.124 13.493H6.021L4.579 17H3.676L7.981 6.64H9.178L13.476 17H12.566ZM6.329 12.751H10.816L8.569 7.298L6.329 12.751ZM17.6296 20.22C17.233 20.22 16.806 20.185 16.3486 20.115C15.896 20.045 15.4806 19.947 15.1026 19.821V19.072C15.9846 19.3473 16.82 19.485 17.6086 19.485C18.276 19.485 18.8173 19.3963 19.2326 19.219C19.648 19.0463 19.956 18.764 20.1566 18.372C20.3573 17.98 20.4576 17.455 20.4576 16.797V16.125H20.4016C20.0936 16.433 19.725 16.6733 19.2956 16.846C18.871 17.0187 18.3996 17.105 17.8816 17.105C17.2423 17.105 16.6776 16.9743 16.1876 16.713C15.6976 16.4517 15.3103 16.0433 15.0256 15.488C14.741 14.928 14.5986 14.221 14.5986 13.367C14.5986 12.023 14.9463 11.0103 15.6416 10.329C16.337 9.64767 17.3683 9.307 18.7356 9.307C19.641 9.307 20.5043 9.426 21.3256 9.664V16.671C21.3256 17.5063 21.1903 18.1853 20.9196 18.708C20.649 19.2307 20.2406 19.6133 19.6946 19.856C19.1533 20.0987 18.465 20.22 17.6296 20.22ZM18.0776 16.342C18.535 16.342 18.9713 16.258 19.3866 16.09C19.802 15.922 20.159 15.663 20.4576 15.313V10.259C19.921 10.1143 19.3166 10.042 18.6446 10.042C17.59 10.042 16.799 10.308 16.2716 10.84C15.749 11.3673 15.4876 12.1817 15.4876 13.283C15.4876 14.361 15.7186 15.1403 16.1806 15.621C16.6426 16.1017 17.275 16.342 18.0776 16.342Z" fill="#888888"/>
</svg>
