<svg width="24" height="24" viewBox="0 0 24 24" fill="none" xmlns="http://www.w3.org/2000/svg">
<path d="M11.3813 18L9.81327 14.304H4.57727L3.00927 18H2.49127L6.90127 7.64H7.50327L11.9133 18H11.3813ZM4.77327 13.842H9.61727L7.19527 8.116L4.77327 13.842ZM16.0251 21.22C15.6565 21.22 15.2528 21.1827 14.8141 21.108C14.3755 21.038 13.9811 20.94 13.6311 20.814V20.338C14.4711 20.618 15.2738 20.758 16.0391 20.758C16.7298 20.758 17.2898 20.6623 17.7191 20.471C18.1485 20.2843 18.4681 19.9787 18.6781 19.554C18.8881 19.1293 18.9931 18.56 18.9931 17.846V17.118H18.9511C18.6431 17.4353 18.2698 17.6827 17.8311 17.86C17.3971 18.0373 16.9165 18.126 16.3891 18.126C15.7498 18.126 15.1875 17.9977 14.7021 17.741C14.2168 17.4843 13.8341 17.0783 13.5541 16.523C13.2788 15.963 13.1411 15.2467 13.1411 14.374C13.1411 11.6767 14.4571 10.328 17.0891 10.328C17.8918 10.328 18.6851 10.44 19.4691 10.664V17.804C19.4691 18.6113 19.3408 19.267 19.0841 19.771C18.8321 20.275 18.4518 20.6413 17.9431 20.87C17.4391 21.1033 16.7998 21.22 16.0251 21.22ZM16.4171 17.664C16.9165 17.664 17.3901 17.5707 17.8381 17.384C18.2861 17.1927 18.6711 16.8987 18.9931 16.502V11.028C18.4238 10.8693 17.7705 10.79 17.0331 10.79C15.9038 10.79 15.0568 11.0793 14.4921 11.658C13.9275 12.232 13.6451 13.1187 13.6451 14.318C13.6451 15.494 13.8925 16.3457 14.3871 16.873C14.8865 17.4003 15.5631 17.664 16.4171 17.664Z" fill="#333333"/>
</svg>
