<svg width="24" height="24" viewBox="0 0 24 24" fill="none" xmlns="http://www.w3.org/2000/svg">
<path d="M2.69016 17L6.89716 6.64H8.58416L12.7982 17H11.5662L7.63916 7.2H7.83516L3.90116 17H2.69016ZM4.98616 13.654L5.28716 12.681H10.1942L10.4952 13.654H4.98616ZM18.9472 17.077C17.8086 17.077 16.8566 16.9183 16.0912 16.601C15.3259 16.2837 14.7519 15.8123 14.3692 15.187C13.9866 14.5617 13.7952 13.7847 13.7952 12.856C13.7952 11.8947 13.9982 11.0967 14.4042 10.462C14.8149 9.82733 15.3912 9.35367 16.1332 9.041C16.8752 8.72367 17.7502 8.565 18.7582 8.565C19.1596 8.565 19.5539 8.58833 19.9412 8.635C20.3286 8.68167 20.6879 8.74467 21.0192 8.824V9.811C20.6272 9.713 20.2539 9.643 19.8992 9.601C19.5446 9.559 19.1899 9.538 18.8352 9.538C18.0559 9.538 17.3839 9.65467 16.8192 9.888C16.2546 10.1167 15.8182 10.476 15.5102 10.966C15.2069 11.4513 15.0552 12.0813 15.0552 12.856C15.0552 13.5747 15.1952 14.1767 15.4752 14.662C15.7599 15.1473 16.1846 15.5113 16.7492 15.754C17.3139 15.9967 18.0209 16.118 18.8702 16.118C19.1829 16.118 19.5072 16.1063 19.8432 16.083C20.1792 16.055 20.4802 16.0153 20.7462 15.964L20.1442 16.517V12.954H21.2852V16.888C20.8932 16.9487 20.4966 16.9953 20.0952 17.028C19.6986 17.0607 19.3159 17.077 18.9472 17.077Z" fill="#888888"/>
</svg>
