<svg width="24" height="24" viewBox="0 0 24 24" fill="none" xmlns="http://www.w3.org/2000/svg">
<path d="M10.2469 18L9.56094 15.438H6.27094L5.59194 18H3.09994L6.03294 7.64H9.83394L12.7599 18H10.2469ZM6.82394 13.338H9.00094L7.90894 9.243L6.82394 13.338ZM16.0429 21.22C15.6463 21.22 15.2379 21.1967 14.8179 21.15C14.3979 21.108 14.0036 21.0403 13.6349 20.947V18.973C14.4003 19.169 15.1306 19.267 15.8259 19.267C16.4839 19.267 16.9623 19.1387 17.2609 18.882C17.5643 18.6253 17.7159 18.1983 17.7159 17.601V17.167H17.5969C17.4149 17.4517 17.1746 17.671 16.8759 17.825C16.5773 17.979 16.2343 18.056 15.8469 18.056C15.3523 18.056 14.8949 17.9207 14.4749 17.65C14.0596 17.3747 13.7236 16.957 13.4669 16.397C13.2103 15.8323 13.0819 15.1347 13.0819 14.304C13.0819 12.9647 13.4296 11.9473 14.1249 11.252C14.8249 10.552 15.8936 10.1997 17.3309 10.195C17.8256 10.195 18.3296 10.2347 18.8429 10.314C19.3609 10.3887 19.8253 10.4983 20.2359 10.643V17.146C20.2359 18.098 20.0819 18.8727 19.7739 19.47C19.4659 20.072 19.0039 20.513 18.3879 20.793C17.7719 21.0777 16.9903 21.22 16.0429 21.22ZM16.8969 15.998C17.0509 15.998 17.1979 15.977 17.3379 15.935C17.4826 15.8883 17.6086 15.823 17.7159 15.739V12.162C17.5059 12.12 17.3029 12.099 17.1069 12.099C16.6169 12.099 16.2483 12.2507 16.0009 12.554C15.7583 12.8573 15.6369 13.3683 15.6369 14.087C15.6369 14.577 15.6836 14.962 15.7769 15.242C15.8749 15.522 16.0149 15.718 16.1969 15.83C16.3789 15.942 16.6123 15.998 16.8969 15.998Z" fill="#333333"/>
</svg>
