<svg width="24" height="24" viewBox="0 0 24 24" fill="none" xmlns="http://www.w3.org/2000/svg">
<path d="M1.237 17L4.877 6.64H9.693L13.333 17H10.085L7.131 8.012H7.411L4.457 17H1.237ZM4.625 14.662L5.395 12.212H9.161L9.917 14.662H4.625ZM20.3034 17.126C18.838 17.126 17.6317 16.9627 16.6844 16.636C15.737 16.3093 15.0347 15.831 14.5774 15.201C14.12 14.571 13.8914 13.7987 13.8914 12.884C13.8914 12.03 14.1224 11.2787 14.5844 10.63C15.0464 9.97667 15.758 9.468 16.7194 9.104C17.6854 8.74 18.922 8.558 20.4294 8.558C20.7794 8.558 21.1457 8.572 21.5284 8.6C21.9157 8.62333 22.2634 8.66067 22.5714 8.712V11.176C22.3147 11.1387 22.0207 11.106 21.6894 11.078C21.3627 11.05 21.0267 11.036 20.6814 11.036C19.8227 11.036 19.1507 11.113 18.6654 11.267C18.18 11.421 17.837 11.6403 17.6364 11.925C17.4357 12.2097 17.3354 12.548 17.3354 12.94C17.3354 13.2807 17.4264 13.5817 17.6084 13.843C17.7904 14.1043 18.075 14.3097 18.4624 14.459C18.8544 14.6037 19.3654 14.676 19.9954 14.676C20.2474 14.676 20.5274 14.6667 20.8354 14.648C21.1434 14.6247 21.4234 14.5967 21.6754 14.564L19.8694 16.02V12.954H22.9354V16.888C22.5014 16.958 22.058 17.014 21.6054 17.056C21.1574 17.1027 20.7234 17.126 20.3034 17.126Z" fill="#888888"/>
</svg>
