<svg width="24" height="24" viewBox="0 0 24 24" fill="none" xmlns="http://www.w3.org/2000/svg">
<path d="M2.4094 17L6.7144 6.64H7.9114L12.2094 17H11.2994L7.2114 7.074H7.3934L3.3124 17H2.4094ZM4.5374 13.493L4.7684 12.751H9.8574L10.0814 13.493H4.5374ZM18.2317 17.063C17.1444 17.063 16.232 16.9067 15.4947 16.594C14.762 16.2813 14.209 15.8123 13.8357 15.187C13.4624 14.5617 13.2757 13.7823 13.2757 12.849C13.2757 11.869 13.474 11.064 13.8707 10.434C14.272 9.804 14.8274 9.33733 15.5367 9.034C16.246 8.726 17.065 8.572 17.9937 8.572C18.3997 8.572 18.7964 8.59533 19.1837 8.642C19.571 8.68867 19.9327 8.75633 20.2687 8.845V9.601C19.858 9.49367 19.473 9.419 19.1137 9.377C18.759 9.33033 18.402 9.307 18.0427 9.307C17.2774 9.307 16.6054 9.42833 16.0267 9.671C15.448 9.91367 14.9977 10.294 14.6757 10.812C14.3537 11.33 14.1927 12.0067 14.1927 12.842C14.1927 13.6213 14.342 14.2723 14.6407 14.795C14.9394 15.313 15.385 15.7027 15.9777 15.964C16.5704 16.2207 17.3077 16.349 18.1897 16.349C18.5117 16.349 18.843 16.335 19.1837 16.307C19.5244 16.279 19.8277 16.2393 20.0937 16.188L19.6807 16.594V12.954H20.5277V16.888C20.1404 16.944 19.7507 16.986 19.3587 17.014C18.9667 17.0467 18.591 17.063 18.2317 17.063Z" fill="#888888"/>
</svg>
