<svg width="24" height="24" viewBox="0 0 24 24" fill="none" xmlns="http://www.w3.org/2000/svg">
<path d="M5.4149 17L8.6489 6.64H10.1609L13.3949 17H12.3169L9.2999 7.165H9.4889L6.4789 17H5.4149ZM7.0179 13.633L7.2489 12.695H11.5539L11.7849 13.633H7.0179ZM18.2447 17.077C17.3487 17.077 16.595 16.937 15.9837 16.657C15.3724 16.377 14.9104 15.9267 14.5977 15.306C14.2897 14.6853 14.1357 13.864 14.1357 12.842C14.1357 11.82 14.2897 10.9963 14.5977 10.371C14.9104 9.741 15.3584 9.28367 15.9417 8.999C16.5297 8.70967 17.2367 8.565 18.0627 8.565C18.366 8.565 18.6624 8.58367 18.9517 8.621C19.241 8.65367 19.514 8.70733 19.7707 8.782V9.692C19.4907 9.608 19.2154 9.54733 18.9447 9.51C18.6787 9.47267 18.4104 9.454 18.1397 9.454C17.5097 9.454 16.9777 9.559 16.5437 9.769C16.1144 9.97433 15.7877 10.3243 15.5637 10.819C15.3444 11.3137 15.2347 11.9903 15.2347 12.849C15.2347 13.689 15.3444 14.3517 15.5637 14.837C15.783 15.3223 16.1097 15.67 16.5437 15.88C16.9777 16.0853 17.519 16.188 18.1677 16.188C18.3544 16.188 18.5387 16.181 18.7207 16.167C18.9074 16.153 19.0824 16.1297 19.2457 16.097L18.9307 16.412V12.954H19.9247V16.923C19.6167 16.979 19.325 17.0187 19.0497 17.042C18.779 17.0653 18.5107 17.077 18.2447 17.077Z" fill="#888888"/>
</svg>
