<svg width="24" height="24" viewBox="0 0 24 24" fill="none" xmlns="http://www.w3.org/2000/svg">
<path d="M5.31888 17L8.66488 6.64H9.76388L13.1029 17H12.2769L9.11288 7.053H9.28787L6.13088 17H5.31888ZM6.89388 13.486L7.08288 12.765H11.3319L11.5279 13.486H6.89388ZM16.0313 20.22C15.7419 20.22 15.4363 20.1943 15.1143 20.143C14.7923 20.0917 14.5029 20.017 14.2463 19.919V19.212C14.5589 19.3193 14.8599 19.3987 15.1493 19.45C15.4386 19.5013 15.7186 19.527 15.9893 19.527C16.6846 19.527 17.2073 19.3567 17.5573 19.016C17.9119 18.6753 18.0893 18.0733 18.0893 17.21V16.279H18.0403C17.8723 16.503 17.6413 16.699 17.3473 16.867C17.0533 17.035 16.7033 17.119 16.2973 17.119C15.8586 17.119 15.4503 17.0047 15.0723 16.776C14.6943 16.5473 14.3886 16.1623 14.1553 15.621C13.9219 15.075 13.8053 14.3213 13.8053 13.36C13.8053 11.9553 14.0923 10.9287 14.6663 10.28C15.2403 9.63133 16.0569 9.307 17.1163 9.307C17.3123 9.307 17.5176 9.321 17.7323 9.349C17.9469 9.37233 18.1546 9.405 18.3553 9.447C18.5559 9.48433 18.7309 9.531 18.8803 9.587V17.119C18.8803 18.239 18.6376 19.0347 18.1523 19.506C17.6716 19.982 16.9646 20.22 16.0313 20.22ZM16.4863 16.405C16.7989 16.405 17.1023 16.3257 17.3963 16.167C17.6949 16.0037 17.9259 15.768 18.0893 15.46V10.119C17.9633 10.0817 17.8069 10.0513 17.6203 10.028C17.4336 10.0047 17.2539 9.993 17.0813 9.993C16.2973 9.993 15.6929 10.2403 15.2683 10.735C14.8436 11.225 14.6313 12.0743 14.6313 13.283C14.6313 14.1323 14.7129 14.781 14.8763 15.229C15.0396 15.677 15.2613 15.985 15.5413 16.153C15.8259 16.321 16.1409 16.405 16.4863 16.405Z" fill="#888888"/>
</svg>
