<svg width="24" height="24" viewBox="0 0 24 24" fill="none" xmlns="http://www.w3.org/2000/svg">
<path d="M9.8457 14.0957L9.51074 12.2637C9.29199 12.2546 9.07552 12.2477 8.86133 12.2432C8.64714 12.2386 8.43066 12.2363 8.21191 12.2363C7.97949 12.2363 7.74479 12.2386 7.50781 12.2432C7.27083 12.2477 7.03385 12.2546 6.79688 12.2637C6.73763 12.5736 6.68066 12.8789 6.62598 13.1797C6.57585 13.4805 6.52572 13.7812 6.47559 14.082L5.19727 14.0957C5.39779 13.2891 5.58464 12.4756 5.75781 11.6553C5.93555 10.835 6.10645 10.0124 6.27051 9.1875C6.43457 8.36263 6.59635 7.53776 6.75586 6.71289C6.91536 5.88802 7.07715 5.06999 7.24121 4.25879L9.00488 4.22461C9.33301 5.86979 9.67708 7.52181 10.0371 9.18066C10.4017 10.8395 10.7959 12.4779 11.2197 14.0957H9.8457ZM8.1709 5.47559C7.95215 6.43717 7.74479 7.40332 7.54883 8.37402C7.35286 9.34017 7.16146 10.3109 6.97461 11.2861C7.17513 11.2952 7.37337 11.2975 7.56934 11.293C7.7653 11.2884 7.96582 11.2861 8.1709 11.2861C8.36686 11.2861 8.55827 11.2884 8.74512 11.293C8.93197 11.2975 9.12109 11.2952 9.3125 11.2861C9.13021 10.3063 8.94564 9.33333 8.75879 8.36719C8.57194 7.40104 8.37598 6.43717 8.1709 5.47559ZM16.5176 7.06836C16.7181 7.27344 16.8822 7.50358 17.0098 7.75879C17.1374 8.00944 17.2376 8.26921 17.3105 8.53809C17.3835 8.80697 17.4336 9.07585 17.4609 9.34473C17.4883 9.61361 17.502 9.86426 17.502 10.0967C17.4974 10.5843 17.4495 11.0241 17.3584 11.416C17.2718 11.8034 17.1556 12.1497 17.0098 12.4551C16.8639 12.7559 16.6953 13.0156 16.5039 13.2344C16.3125 13.4531 16.1097 13.6331 15.8955 13.7744C15.6859 13.9157 15.4694 14.0182 15.2461 14.082C15.0273 14.1504 14.8177 14.1846 14.6172 14.1846C14.4486 14.1846 14.2868 14.1709 14.1318 14.1436C13.9814 14.1162 13.8402 14.082 13.708 14.041C13.5895 14.1276 13.4824 14.221 13.3867 14.3213C13.2956 14.4215 13.2158 14.5218 13.1475 14.6221C13.0791 14.7269 13.0267 14.8294 12.9902 14.9297C12.9538 15.0299 12.9355 15.1257 12.9355 15.2168C12.9355 15.3717 12.9788 15.4902 13.0654 15.5723C13.1566 15.6543 13.2432 15.6953 13.3252 15.6953C13.4437 15.6953 13.5645 15.6611 13.6875 15.5928C13.8105 15.529 13.9382 15.4469 14.0703 15.3467C14.207 15.2464 14.3483 15.137 14.4941 15.0186C14.6445 14.9046 14.7995 14.7975 14.959 14.6973C15.123 14.597 15.2962 14.5127 15.4785 14.4443C15.6608 14.3805 15.8545 14.3486 16.0596 14.3486C16.2419 14.3486 16.4173 14.3737 16.5859 14.4238C16.7546 14.474 16.9095 14.5469 17.0508 14.6426C17.1966 14.7428 17.3219 14.8659 17.4268 15.0117C17.5316 15.1576 17.6113 15.3285 17.666 15.5244C17.6888 15.6019 17.7025 15.6771 17.707 15.75C17.7161 15.8229 17.7207 15.8981 17.7207 15.9756C17.7207 16.3584 17.6318 16.6979 17.4541 16.9941C17.2809 17.2904 17.0462 17.5387 16.75 17.7393C16.4538 17.9443 16.1074 18.097 15.7109 18.1973C15.319 18.3021 14.902 18.3545 14.46 18.3545C14.2913 18.3545 14.1204 18.3431 13.9473 18.3203C13.7786 18.3021 13.61 18.2702 13.4414 18.2246L13.5645 17.6094C13.6556 17.6322 13.7445 17.6481 13.8311 17.6572C13.9222 17.6663 14.0111 17.6709 14.0977 17.6709C14.3164 17.6709 14.5192 17.6504 14.7061 17.6094C14.8929 17.5729 15.0547 17.5296 15.1914 17.4795C15.3509 17.4248 15.499 17.361 15.6357 17.2881C16.0049 17.083 16.2669 16.8848 16.4219 16.6934C16.5814 16.502 16.6611 16.3128 16.6611 16.126C16.6611 16.0303 16.6429 15.9391 16.6064 15.8525C16.5745 15.7705 16.529 15.6953 16.4697 15.627C16.4105 15.5632 16.3398 15.5107 16.2578 15.4697C16.1758 15.4333 16.0846 15.415 15.9844 15.415C15.8249 15.415 15.6403 15.4652 15.4307 15.5654C15.221 15.6702 14.9863 15.8389 14.7266 16.0713C14.5078 16.2627 14.2799 16.404 14.043 16.4951C13.806 16.5863 13.5667 16.6318 13.3252 16.6318C13.1657 16.6318 13.0039 16.6068 12.8398 16.5566C12.6803 16.5111 12.5345 16.4427 12.4023 16.3516C12.2747 16.2604 12.1676 16.1442 12.0811 16.0029C11.999 15.8662 11.958 15.7067 11.958 15.5244C11.958 15.3831 11.9808 15.2327 12.0264 15.0732C12.0719 14.9183 12.1403 14.7611 12.2314 14.6016C12.3226 14.4466 12.4342 14.2939 12.5664 14.1436C12.7031 13.9932 12.8581 13.8519 13.0312 13.7197C12.7578 13.5238 12.5299 13.2845 12.3477 13.002C12.1654 12.7148 12.0173 12.4072 11.9033 12.0791C11.7894 11.751 11.7074 11.4137 11.6572 11.0674C11.6117 10.7165 11.5889 10.377 11.5889 10.0488C11.5889 9.40169 11.6618 8.84342 11.8076 8.37402C11.958 7.90462 12.1608 7.51725 12.416 7.21191C12.6758 6.90658 12.9788 6.68099 13.3252 6.53516C13.6761 6.38932 14.0544 6.31641 14.46 6.31641C14.7061 6.31641 14.9339 6.33691 15.1436 6.37793C15.3532 6.41439 15.5469 6.4668 15.7246 6.53516L16.3945 4.83301L17.3857 5.53027L16.5176 7.06836ZM16.5176 10.083C16.5176 9.94173 16.5107 9.78223 16.4971 9.60449C16.488 9.42676 16.4629 9.24447 16.4219 9.05762C16.3854 8.87077 16.3307 8.6862 16.2578 8.50391C16.1895 8.31706 16.0983 8.14616 15.9844 7.99121L15.3691 9.08496L14.8359 8.79102L15.3555 7.46484C15.237 7.41471 15.1071 7.3737 14.9658 7.3418C14.8245 7.3099 14.6696 7.29395 14.501 7.29395C13.8356 7.32129 13.348 7.56966 13.0381 8.03906C12.7282 8.50846 12.5732 9.17383 12.5732 10.0352C12.5732 10.6276 12.6279 11.1266 12.7373 11.5322C12.8512 11.9378 12.9971 12.266 13.1748 12.5166C13.3525 12.7627 13.5508 12.9404 13.7695 13.0498C13.9928 13.1592 14.2139 13.2139 14.4326 13.2139C14.665 13.2139 14.902 13.1569 15.1436 13.043C15.3896 12.9245 15.613 12.7399 15.8135 12.4893C16.0186 12.234 16.1849 11.9105 16.3125 11.5186C16.4447 11.1221 16.513 10.6436 16.5176 10.083Z" fill="#333333"/>
</svg>
