<svg width="24" height="24" viewBox="0 0 24 24" fill="none" xmlns="http://www.w3.org/2000/svg">
<path d="M3.52694 17L6.19394 6.661H9.10594L11.7519 17H9.85494L7.64294 7.802H7.65694L5.42394 17H3.52694ZM5.24894 14.487V13.01H10.0509V14.487H5.24894ZM18.1134 16.265C18.5521 16.307 18.9371 16.3887 19.2684 16.51C19.5997 16.6313 19.8587 16.811 20.0454 17.049C20.2321 17.2917 20.3254 17.6137 20.3254 18.015C20.3254 18.463 20.1737 18.8503 19.8704 19.177C19.5671 19.5037 19.1214 19.7557 18.5334 19.933C17.9501 20.1103 17.2314 20.199 16.3774 20.199C15.1361 20.199 14.1817 20.0193 13.5144 19.66C12.8471 19.3053 12.5134 18.8223 12.5134 18.211C12.5134 18.0383 12.5344 17.882 12.5764 17.742C12.6184 17.602 12.6697 17.4853 12.7304 17.392L14.4174 17.637C14.3894 17.6743 14.3614 17.7327 14.3334 17.812C14.3054 17.896 14.2914 17.9963 14.2914 18.113C14.2914 18.4023 14.4851 18.61 14.8724 18.736C15.2644 18.8667 15.7847 18.932 16.4334 18.932C16.9094 18.932 17.3061 18.8993 17.6234 18.834C17.9454 18.7687 18.1881 18.6753 18.3514 18.554C18.5194 18.4327 18.6034 18.2903 18.6034 18.127C18.6034 17.8843 18.4937 17.728 18.2744 17.658C18.0551 17.588 17.7937 17.5413 17.4904 17.518L14.6694 17.259C14.1654 17.2077 13.7501 17.0583 13.4234 16.811C13.1014 16.5637 12.9404 16.237 12.9404 15.831C12.9404 15.5837 13.0057 15.355 13.1364 15.145C13.2717 14.935 13.4257 14.76 13.5984 14.62C13.7711 14.4753 13.9181 14.3867 14.0394 14.354L15.0894 14.872C14.9914 14.886 14.8747 14.949 14.7394 15.061C14.6087 15.173 14.5434 15.306 14.5434 15.46C14.5434 15.6047 14.6087 15.726 14.7394 15.824C14.8701 15.9173 15.1221 15.9827 15.4954 16.02L18.1134 16.265ZM18.9464 9.566H20.5984L19.9264 12.45C19.8004 12.9913 19.5974 13.4767 19.3174 13.906C19.0374 14.3353 18.6641 14.6737 18.1974 14.921C17.7307 15.1683 17.1427 15.292 16.4334 15.292C15.6961 15.292 15.0591 15.173 14.5224 14.935C13.9904 14.6923 13.5797 14.354 13.2904 13.92C13.0011 13.4813 12.8564 12.9773 12.8564 12.408C12.8564 11.8247 13.0034 11.3113 13.2974 10.868C13.5961 10.42 14.0044 10.07 14.5224 9.818C15.0451 9.566 15.6354 9.44 16.2934 9.44C16.8254 9.44 17.3037 9.52867 17.7284 9.706C18.1531 9.87867 18.4914 10.105 18.7434 10.385C19.0001 10.665 19.1377 10.9637 19.1564 11.281L18.7434 11.358L18.9464 9.566ZM16.4264 13.871C16.7857 13.871 17.0961 13.8127 17.3574 13.696C17.6187 13.5793 17.8217 13.4113 17.9664 13.192C18.1111 12.968 18.1834 12.6973 18.1834 12.38C18.1834 12.0673 18.1111 11.799 17.9664 11.575C17.8217 11.351 17.6187 11.1807 17.3574 11.064C17.0961 10.9427 16.7881 10.882 16.4334 10.882C16.0881 10.882 15.7824 10.9427 15.5164 11.064C15.2504 11.1853 15.0404 11.3603 14.8864 11.589C14.7371 11.813 14.6624 12.0813 14.6624 12.394C14.6624 12.7067 14.7347 12.975 14.8794 13.199C15.0287 13.4183 15.2341 13.5863 15.4954 13.703C15.7614 13.815 16.0717 13.871 16.4264 13.871Z" fill="#888888"/>
</svg>
