<svg width="24" height="24" viewBox="0 0 24 24" fill="none" xmlns="http://www.w3.org/2000/svg">
<path d="M1.57723 16L6.26723 5.668H10.2292L10.5092 16H8.05923L8.05223 13.718H5.23123L4.25123 16H1.57723ZM6.05723 11.807H8.04523L8.03823 7.208L6.05723 11.807ZM14.8522 16.175C14.2875 16.175 13.7835 16.056 13.3402 15.818C12.8968 15.5753 12.5468 15.2183 12.2902 14.747C12.0382 14.271 11.9122 13.6853 11.9122 12.99C11.9122 12.3553 12.0148 11.7627 12.2202 11.212C12.4302 10.6567 12.7242 10.1713 13.1022 9.756C13.4848 9.336 13.9352 9.00933 14.4532 8.776C14.9712 8.538 15.5405 8.419 16.1612 8.419C16.6138 8.419 17.0315 8.51 17.4142 8.692C17.8015 8.874 18.1212 9.133 18.3732 9.469L18.5622 8.566H21.0612L19.4932 15.958C19.3158 16.7933 18.9962 17.4443 18.5342 17.911C18.0722 18.3823 17.5262 18.7137 16.8962 18.905C16.2662 19.0963 15.6105 19.192 14.9292 19.192C14.5185 19.192 14.1008 19.1523 13.6762 19.073C13.2515 18.9937 12.8595 18.87 12.5002 18.702C12.1455 18.5387 11.8585 18.324 11.6392 18.058C11.4245 17.792 11.3172 17.4747 11.3172 17.106C11.3172 16.9893 11.3242 16.882 11.3382 16.784C11.3522 16.6907 11.3662 16.602 11.3802 16.518H13.8792C13.8745 16.546 13.8675 16.5787 13.8582 16.616C13.8535 16.6533 13.8512 16.6907 13.8512 16.728C13.8512 16.9333 13.9585 17.1037 14.1732 17.239C14.3925 17.3743 14.7028 17.442 15.1042 17.442C15.6082 17.442 16.0212 17.3207 16.3432 17.078C16.6698 16.8353 16.8868 16.462 16.9942 15.958L17.1342 15.293C16.4482 15.881 15.6875 16.175 14.8522 16.175ZM14.5652 12.619C14.5652 13.095 14.6842 13.4543 14.9222 13.697C15.1648 13.9397 15.4728 14.061 15.8462 14.061C16.2382 14.061 16.6092 13.9443 16.9592 13.711C17.3092 13.473 17.5542 13.1253 17.6942 12.668L17.8552 11.919C17.8645 11.821 17.8692 11.737 17.8692 11.667C17.8692 11.2657 17.7338 10.967 17.4632 10.771C17.1972 10.5703 16.8962 10.47 16.5602 10.47C15.9815 10.47 15.5032 10.6707 15.1252 11.072C14.7518 11.4687 14.5652 11.9843 14.5652 12.619Z" fill="#333333"/>
</svg>
