<svg width="24" height="24" viewBox="0 0 24 24" fill="none" xmlns="http://www.w3.org/2000/svg">
<path d="M4.19154 17L9.32954 6.64H10.6665L11.3735 17H10.5125L9.90354 7.235H9.91754L5.13654 17H4.19154ZM6.16554 14.123L6.31254 13.36H10.8275L10.6805 14.123H6.16554ZM15.871 20.15C15.5117 20.15 15.1524 20.1103 14.793 20.031C14.4337 19.9563 14.1024 19.8397 13.799 19.681C13.5004 19.5223 13.26 19.317 13.078 19.065C12.9007 18.8177 12.812 18.5213 12.812 18.176C12.812 18.078 12.819 17.987 12.833 17.903C12.847 17.819 12.8657 17.728 12.889 17.63H13.757C13.7384 17.714 13.7244 17.7863 13.715 17.847C13.7057 17.9077 13.701 17.9683 13.701 18.029C13.701 18.3463 13.8037 18.6077 14.009 18.813C14.219 19.0183 14.492 19.17 14.828 19.268C15.1687 19.3707 15.5304 19.422 15.913 19.422C16.3704 19.422 16.802 19.345 17.208 19.191C17.614 19.037 17.9664 18.7733 18.265 18.4C18.5684 18.0267 18.79 17.5133 18.93 16.86L20.484 9.566H21.352L19.805 16.86C19.6744 17.476 19.4807 17.994 19.224 18.414C18.9674 18.8387 18.664 19.177 18.314 19.429C17.964 19.681 17.5814 19.863 17.166 19.975C16.7507 20.0917 16.319 20.15 15.871 20.15ZM16.424 17.133C15.892 17.133 15.402 17.0233 14.954 16.804C14.506 16.5847 14.1467 16.2533 13.876 15.81C13.61 15.362 13.477 14.802 13.477 14.13C13.477 13.4767 13.5867 12.87 13.806 12.31C14.0254 11.7453 14.3334 11.2507 14.73 10.826C15.1314 10.3967 15.6004 10.063 16.137 9.825C16.6737 9.58233 17.257 9.461 17.887 9.461C18.3957 9.461 18.846 9.55667 19.238 9.748C19.63 9.93467 19.938 10.2077 20.162 10.567C20.386 10.9217 20.498 11.351 20.498 11.855C20.498 11.981 20.4864 12.1327 20.463 12.31C20.4444 12.4873 20.4187 12.632 20.386 12.744H19.812C19.8354 12.6647 19.854 12.5597 19.868 12.429C19.8867 12.2937 19.896 12.1817 19.896 12.093C19.896 11.715 19.8097 11.3883 19.637 11.113C19.4644 10.833 19.2264 10.6183 18.923 10.469C18.6197 10.3197 18.2697 10.245 17.873 10.245C17.3457 10.245 16.8674 10.3453 16.438 10.546C16.0087 10.742 15.64 11.015 15.332 11.365C15.0287 11.715 14.793 12.121 14.625 12.583C14.4617 13.045 14.38 13.5397 14.38 14.067C14.38 14.5803 14.4757 15.0073 14.667 15.348C14.863 15.684 15.1267 15.936 15.458 16.104C15.7894 16.2673 16.1627 16.349 16.578 16.349C17.0354 16.349 17.4717 16.2487 17.887 16.048C18.3024 15.8427 18.6594 15.558 18.958 15.194C19.2614 14.83 19.4644 14.4053 19.567 13.92L20.176 13.955C20.036 14.627 19.7817 15.201 19.413 15.677C19.0444 16.1483 18.601 16.51 18.083 16.762C17.565 17.0093 17.012 17.133 16.424 17.133Z" fill="#888888"/>
</svg>
