<svg width="24" height="24" viewBox="0 0 24 24" fill="none" xmlns="http://www.w3.org/2000/svg">
<path d="M1.80412 16L6.57812 5.661H10.0151L10.3791 16H8.25113L8.20913 13.606H5.19213L4.12813 16H1.80412ZM5.94113 11.912H8.18813L8.11113 7.019L5.94113 11.912ZM14.9027 16.168C14.3427 16.168 13.8387 16.0513 13.3907 15.818C12.9427 15.58 12.588 15.2277 12.3267 14.761C12.0653 14.2943 11.9347 13.7133 11.9347 13.018C11.9347 12.3787 12.0397 11.7813 12.2497 11.226C12.4643 10.666 12.7653 10.1783 13.1527 9.763C13.54 9.343 13.995 9.01633 14.5177 8.783C15.0403 8.545 15.6143 8.426 16.2397 8.426C16.697 8.426 17.1193 8.517 17.5067 8.699C17.8987 8.881 18.216 9.14 18.4587 9.476L18.6547 8.566H20.8247L19.2707 15.916C19.0933 16.7513 18.7807 17.407 18.3327 17.883C17.8847 18.359 17.355 18.695 16.7437 18.891C16.1323 19.087 15.4953 19.185 14.8327 19.185C14.4267 19.185 14.0183 19.1453 13.6077 19.066C13.197 18.9867 12.8167 18.863 12.4667 18.695C12.1213 18.5317 11.8437 18.3193 11.6337 18.058C11.4237 17.7967 11.3187 17.4817 11.3187 17.113C11.3187 17.001 11.3257 16.8983 11.3397 16.805C11.3537 16.7163 11.37 16.6277 11.3887 16.539H13.5587C13.5493 16.581 13.54 16.6207 13.5307 16.658C13.526 16.7 13.5237 16.742 13.5237 16.784C13.5237 17.0453 13.6543 17.2507 13.9157 17.4C14.1817 17.5493 14.5363 17.624 14.9797 17.624C15.5117 17.624 15.9643 17.491 16.3377 17.225C16.7157 16.959 16.9677 16.5227 17.0937 15.916L17.2337 15.279C16.543 15.8717 15.766 16.168 14.9027 16.168ZM14.2377 12.717C14.2377 13.2583 14.3753 13.6597 14.6507 13.921C14.9307 14.1823 15.2807 14.313 15.7007 14.313C16.1393 14.313 16.5547 14.18 16.9467 13.914C17.3433 13.6433 17.6187 13.2513 17.7727 12.738L17.9617 11.849C17.9757 11.7417 17.9827 11.646 17.9827 11.562C17.9827 11.1233 17.8357 10.7943 17.5417 10.575C17.2523 10.351 16.9163 10.239 16.5337 10.239C16.0763 10.239 15.675 10.3463 15.3297 10.561C14.989 10.771 14.7207 11.0627 14.5247 11.436C14.3333 11.8093 14.2377 12.2363 14.2377 12.717Z" fill="#333333"/>
</svg>
