<svg width="24" height="24" viewBox="0 0 24 24" fill="none" xmlns="http://www.w3.org/2000/svg">
<path d="M3.97373 16L6.81573 5.647H8.67773L11.4987 16H10.2667L9.54573 13.263H5.93373L5.20573 16H3.97373ZM6.21373 12.213H9.26573L7.74673 6.452L6.21373 12.213ZM17.858 15.545C18.4553 15.5917 18.943 15.7363 19.321 15.979C19.7037 16.217 19.895 16.6043 19.895 17.141C19.895 17.7383 19.5893 18.226 18.978 18.604C18.3667 18.982 17.4333 19.171 16.178 19.171C14.9973 19.171 14.106 18.9983 13.504 18.653C12.902 18.3123 12.601 17.8457 12.601 17.253C12.601 17.0663 12.622 16.9007 12.664 16.756C12.7107 16.616 12.762 16.5017 12.818 16.413L13.952 16.581C13.9147 16.6323 13.8773 16.7093 13.84 16.812C13.8073 16.9193 13.791 17.043 13.791 17.183C13.791 17.5563 14.0033 17.8177 14.428 17.967C14.8527 18.121 15.4547 18.198 16.234 18.198C17.1067 18.198 17.7483 18.1093 18.159 17.932C18.5697 17.7547 18.775 17.5143 18.775 17.211C18.775 16.9077 18.6467 16.7187 18.39 16.644C18.138 16.574 17.8253 16.525 17.452 16.497L14.624 16.287C14.1527 16.2497 13.7677 16.105 13.469 15.853C13.175 15.5963 13.028 15.286 13.028 14.922C13.028 14.6373 13.112 14.3737 13.28 14.131C13.4527 13.8837 13.6253 13.7087 13.798 13.606C13.182 13.0647 12.874 12.3507 12.874 11.464C12.874 10.8947 13.0117 10.3837 13.287 9.931C13.567 9.47367 13.9543 9.11433 14.449 8.853C14.9437 8.587 15.5107 8.454 16.15 8.454C16.7567 8.454 17.2817 8.566 17.725 8.79C18.173 9.014 18.516 9.28233 18.754 9.595L18.887 8.566H20.007L19.545 11.492C19.461 12.038 19.286 12.5327 19.02 12.976C18.754 13.4147 18.39 13.7647 17.928 14.026C17.4707 14.2827 16.9037 14.411 16.227 14.411C15.6203 14.411 15.0767 14.3083 14.596 14.103C14.5027 14.173 14.4163 14.2593 14.337 14.362C14.2623 14.4647 14.225 14.5767 14.225 14.698C14.225 14.8707 14.2927 15.013 14.428 15.125C14.5633 15.2323 14.8317 15.3023 15.233 15.335L17.858 15.545ZM16.22 13.347C16.9013 13.347 17.4333 13.1813 17.816 12.85C18.2033 12.5187 18.397 12.0473 18.397 11.436C18.397 10.848 18.2033 10.3813 17.816 10.036C17.4287 9.69067 16.899 9.518 16.227 9.518C15.583 9.518 15.058 9.69533 14.652 10.05C14.246 10.4047 14.043 10.8737 14.043 11.457C14.043 12.0497 14.2367 12.514 14.624 12.85C15.0113 13.1813 15.5433 13.347 16.22 13.347Z" fill="#333333"/>
</svg>
