<svg width="24" height="24" viewBox="0 0 24 24" fill="none" xmlns="http://www.w3.org/2000/svg">
<path d="M2.99816 16L8.04516 5.647H9.90716L10.5302 16H9.34716L9.20716 13.263H5.59516L4.28616 16H2.99816ZM6.09916 12.213H9.15116L8.85716 6.452L6.09916 12.213ZM15.5061 16.14C14.9647 16.14 14.4631 16.0327 14.0011 15.818C13.5437 15.5987 13.1751 15.265 12.8951 14.817C12.6151 14.369 12.4751 13.7973 12.4751 13.102C12.4751 12.444 12.5847 11.835 12.8041 11.275C13.0281 10.7103 13.3407 10.218 13.7421 9.798C14.1434 9.37333 14.6147 9.04433 15.1561 8.811C15.6974 8.573 16.2877 8.454 16.9271 8.454C17.4171 8.454 17.8581 8.54267 18.2501 8.72C18.6467 8.89267 18.9594 9.15633 19.1881 9.511L19.3911 8.566H20.5881L19.0551 15.79C18.8777 16.6253 18.5861 17.288 18.1801 17.778C17.7741 18.2727 17.2934 18.625 16.7381 18.835C16.1874 19.0497 15.6041 19.157 14.9881 19.157C14.6194 19.157 14.2461 19.1197 13.8681 19.045C13.4947 18.9703 13.1494 18.8513 12.8321 18.688C12.5194 18.5293 12.2674 18.3217 12.0761 18.065C11.8894 17.8083 11.7961 17.498 11.7961 17.134C11.7961 16.98 11.8171 16.805 11.8591 16.609H13.0491C13.0211 16.763 13.0071 16.875 13.0071 16.945C13.0071 17.2297 13.1004 17.4607 13.2871 17.638C13.4784 17.82 13.7281 17.953 14.0361 18.037C14.3487 18.121 14.6871 18.163 15.0511 18.163C15.4711 18.163 15.8701 18.093 16.2481 17.953C16.6261 17.813 16.9551 17.5703 17.2351 17.225C17.5197 16.8797 17.7274 16.4013 17.8581 15.79L17.9771 15.237C17.6271 15.5403 17.2397 15.7667 16.8151 15.916C16.3951 16.0653 15.9587 16.14 15.5061 16.14ZM13.7281 13.025C13.7281 13.7437 13.9194 14.264 14.3021 14.586C14.6894 14.9033 15.1654 15.062 15.7301 15.062C16.1127 15.062 16.4884 14.9803 16.8571 14.817C17.2304 14.649 17.5594 14.4063 17.8441 14.089C18.1287 13.7717 18.3364 13.3867 18.4671 12.934L18.7401 11.639C18.7587 11.4897 18.7681 11.3637 18.7681 11.261C18.7681 10.6963 18.5884 10.267 18.2291 9.973C17.8697 9.679 17.4287 9.532 16.9061 9.532C16.2387 9.532 15.6671 9.686 15.1911 9.994C14.7151 10.302 14.3511 10.7197 14.0991 11.247C13.8517 11.7743 13.7281 12.367 13.7281 13.025Z" fill="#333333"/>
</svg>
