<svg width="24" height="24" viewBox="0 0 24 24" fill="none" xmlns="http://www.w3.org/2000/svg">
<path d="M2.7932 16L5.3692 5.661H8.8062L11.3682 16H9.1422L8.5962 13.606H5.5722L5.0192 16H2.7932ZM5.9642 11.912H8.2112L7.0912 7.019L5.9642 11.912ZM17.7378 15.118C18.4238 15.188 18.9768 15.356 19.3968 15.622C19.8168 15.8833 20.0268 16.3243 20.0268 16.945C20.0268 17.6637 19.6744 18.2213 18.9698 18.618C18.2651 19.0147 17.2641 19.213 15.9668 19.213C14.6928 19.213 13.7058 19.0287 13.0058 18.66C12.3104 18.296 11.9628 17.8083 11.9628 17.197C11.9628 17.0243 11.9814 16.868 12.0188 16.728C12.0608 16.5927 12.1121 16.476 12.1728 16.378L14.1468 16.665C14.1234 16.6977 14.0978 16.7467 14.0698 16.812C14.0464 16.882 14.0348 16.9683 14.0348 17.071C14.0348 17.323 14.2191 17.5073 14.5878 17.624C14.9611 17.7453 15.4418 17.806 16.0298 17.806C16.6504 17.806 17.1358 17.7407 17.4858 17.61C17.8358 17.4793 18.0108 17.302 18.0108 17.078C18.0108 16.868 17.9081 16.7303 17.7028 16.665C17.5021 16.5997 17.2688 16.553 17.0028 16.525L14.1888 16.238C13.6708 16.1867 13.2414 16.0373 12.9008 15.79C12.5601 15.5427 12.3898 15.209 12.3898 14.789C12.3898 14.481 12.4878 14.2057 12.6838 13.963C12.8798 13.7157 13.0758 13.5313 13.2718 13.41C12.6558 12.8967 12.3478 12.2177 12.3478 11.373C12.3478 10.7897 12.4994 10.2763 12.8028 9.833C13.1108 9.38967 13.5284 9.04433 14.0558 8.797C14.5878 8.54967 15.1898 8.426 15.8618 8.426C16.4078 8.426 16.9048 8.52167 17.3528 8.713C17.8008 8.90433 18.1438 9.14933 18.3818 9.448L18.4728 8.566H20.3838L19.6068 11.422C19.4621 11.968 19.2474 12.4533 18.9628 12.878C18.6781 13.298 18.2978 13.6293 17.8218 13.872C17.3504 14.11 16.7554 14.229 16.0368 14.229C15.4208 14.229 14.8654 14.1497 14.3708 13.991C14.2494 14.0983 14.1888 14.2127 14.1888 14.334C14.1888 14.4693 14.2541 14.5837 14.3848 14.677C14.5154 14.7657 14.7604 14.8263 15.1198 14.859L17.7378 15.118ZM16.0228 12.64C16.4894 12.64 16.8651 12.528 17.1498 12.304C17.4344 12.08 17.5768 11.7603 17.5768 11.345C17.5768 10.9437 17.4321 10.6287 17.1428 10.4C16.8581 10.1713 16.4848 10.057 16.0228 10.057C15.5794 10.057 15.2084 10.1737 14.9098 10.407C14.6158 10.6357 14.4688 10.9553 14.4688 11.366C14.4688 11.772 14.6111 12.087 14.8958 12.311C15.1851 12.5303 15.5608 12.64 16.0228 12.64Z" fill="#333333"/>
</svg>
