<svg width="24" height="24" viewBox="0 0 24 24" fill="none" xmlns="http://www.w3.org/2000/svg">
<path d="M1.84366 16L6.44266 5.675H10.9297L11.1187 16H8.35366L8.38166 13.83H5.76366L4.86066 16H1.84366ZM6.65266 11.709H8.40266L8.45166 7.397L6.65266 11.709ZM15.3154 16.182C14.4567 16.182 13.7544 15.9067 13.2084 15.356C12.667 14.8053 12.3964 14.0073 12.3964 12.962C12.3964 12.332 12.499 11.7417 12.7044 11.191C12.9097 10.6403 13.199 10.1573 13.5724 9.742C13.9504 9.322 14.396 8.99533 14.9094 8.762C15.4227 8.52867 15.985 8.412 16.5964 8.412C17.0397 8.412 17.4527 8.50533 17.8354 8.692C18.2227 8.874 18.5424 9.12833 18.7944 9.455L18.9834 8.566H21.8044L20.2294 16C20.0987 16.63 19.8794 17.1503 19.5714 17.561C19.268 17.9763 18.9017 18.303 18.4724 18.541C18.0477 18.779 17.5834 18.947 17.0794 19.045C16.58 19.1477 16.069 19.199 15.5464 19.199C15.1217 19.199 14.69 19.1593 14.2514 19.08C13.8174 19.0007 13.416 18.877 13.0474 18.709C12.6787 18.541 12.3824 18.324 12.1584 18.058C11.9344 17.792 11.8224 17.4723 11.8224 17.099C11.8224 16.9777 11.8294 16.8657 11.8434 16.763C11.8574 16.665 11.8737 16.5763 11.8924 16.497H14.7134C14.7087 16.5157 14.704 16.539 14.6994 16.567C14.6947 16.5997 14.6924 16.6347 14.6924 16.672C14.6924 16.8213 14.7764 16.9567 14.9444 17.078C15.1124 17.1993 15.3807 17.26 15.7494 17.26C16.2207 17.26 16.594 17.1503 16.8694 16.931C17.1447 16.7117 17.3244 16.4013 17.4084 16L17.5554 15.314C16.874 15.8927 16.1274 16.182 15.3154 16.182ZM15.3994 12.514C15.3994 12.934 15.502 13.256 15.7074 13.48C15.9127 13.6993 16.1787 13.809 16.5054 13.809C16.8507 13.809 17.175 13.7087 17.4784 13.508C17.7864 13.3027 18.0034 12.9993 18.1294 12.598L18.2624 11.982C18.2717 11.9027 18.2764 11.8303 18.2764 11.765C18.2764 11.4057 18.1527 11.1397 17.9054 10.967C17.658 10.7943 17.3897 10.708 17.1004 10.708C16.6337 10.708 16.2324 10.8737 15.8964 11.205C15.565 11.5363 15.3994 11.9727 15.3994 12.514Z" fill="#333333"/>
</svg>
