<svg width="24" height="24" viewBox="0 0 24 24" fill="none" xmlns="http://www.w3.org/2000/svg">
<path d="M7.89363 18L7.80963 16.502H6.95563L6.87163 18H2.46163C2.55496 16.4693 2.74629 14.9013 3.03563 13.296C3.32496 11.6813 3.59096 10.4493 3.83363 9.6L4.18363 8.326H10.8196C10.9223 8.662 11.053 9.12867 11.2116 9.726C11.3703 10.3233 11.6036 11.4713 11.9116 13.17C12.2196 14.8593 12.4296 16.4693 12.5416 18H7.89363ZM7.16563 13.03L7.05363 15.214H7.71163L7.61363 13.03H7.16563ZM18.5903 15.522H19.2063C20.6343 15.522 21.3483 16.1147 21.3483 17.3C21.3483 17.9253 21.1243 18.4153 20.6763 18.77C20.2283 19.1247 19.4396 19.302 18.3103 19.302H16.0003C14.8243 19.302 14.0169 19.148 13.5783 18.84C13.1489 18.532 12.9343 18.1213 12.9343 17.608C12.9343 16.572 13.4756 16.054 14.5583 16.054H14.8663C14.7076 16.026 14.5629 15.9653 14.4323 15.872C14.3016 15.7787 14.2363 15.662 14.2363 15.522C14.2363 15.242 14.4649 15.06 14.9223 14.976C14.3436 14.976 13.8816 14.78 13.5363 14.388C13.1909 13.996 13.0183 13.4267 13.0183 12.68C13.0183 11.644 13.2843 10.8927 13.8163 10.426C14.3576 9.95 15.2349 9.712 16.4483 9.712H21.3063V13.632H20.8303C20.6809 14.6867 19.9343 15.214 18.5903 15.214V15.522ZM17.8623 16.502H16.3223C16.2009 16.502 16.1029 16.5393 16.0283 16.614C15.9536 16.6793 15.9163 16.7727 15.9163 16.894C15.9163 17.006 15.9536 17.104 16.0283 17.188C16.1029 17.2627 16.2009 17.3 16.3223 17.3H17.8623C17.9836 17.3 18.0816 17.2627 18.1563 17.188C18.2309 17.104 18.2683 17.006 18.2683 16.894C18.2683 16.7727 18.2309 16.6793 18.1563 16.614C18.0816 16.5393 17.9836 16.502 17.8623 16.502ZM16.6863 13.254V14.122C16.6863 14.3833 16.8169 14.514 17.0783 14.514C17.1903 14.514 17.2836 14.4767 17.3583 14.402C17.4423 14.3273 17.4843 14.234 17.4843 14.122V13.254C17.4843 13.1327 17.4423 13.0347 17.3583 12.96C17.2836 12.8853 17.1856 12.848 17.0643 12.848C16.9523 12.848 16.8589 12.8853 16.7843 12.96C16.7189 13.0347 16.6863 13.1327 16.6863 13.254Z" fill="#333333"/>
</svg>
