<svg width="24" height="24" viewBox="0 0 24 24" fill="none" xmlns="http://www.w3.org/2000/svg">
<path d="M6.11426 13.3545H10.3252L11.2891 16H12.3281L8.80762 6.60059H7.64551L4.11133 16H5.14355L6.11426 13.3545ZM6.3877 12.5615L8.22656 7.58496L10.0518 12.5615H6.3877ZM16.0469 19.3018C16.612 19.3018 17.1064 19.2129 17.5303 19.0352C17.9587 18.8574 18.2913 18.5999 18.5283 18.2627C18.7699 17.9255 18.8906 17.5221 18.8906 17.0527V8.98633H17.9131V17.0527C17.9131 17.5404 17.7331 17.9072 17.373 18.1533C17.0176 18.3994 16.5641 18.5225 16.0127 18.5225C15.4613 18.5225 15.0078 18.3994 14.6523 18.1533C14.2969 17.9072 14.1191 17.5404 14.1191 17.0527H13.251C13.2373 17.5312 13.3467 17.9368 13.5791 18.2695C13.8161 18.6068 14.1465 18.862 14.5703 19.0352C14.9941 19.2129 15.4863 19.3018 16.0469 19.3018ZM13.0049 12.4932C13.0049 13.1995 13.1165 13.8216 13.3398 14.3594C13.5632 14.8926 13.8776 15.3096 14.2832 15.6104C14.6934 15.9111 15.1764 16.0615 15.7324 16.0615C16.2383 16.0615 16.71 15.9316 17.1475 15.6719C17.585 15.4076 17.9655 15.027 18.2891 14.5303L17.9473 14.2021C17.7057 14.5531 17.4118 14.8197 17.0654 15.002C16.7191 15.1797 16.3659 15.2686 16.0059 15.2686C15.418 15.2686 14.9326 15.0247 14.5498 14.5371C14.1715 14.0495 13.9824 13.3682 13.9824 12.4932C13.9824 11.6182 14.1715 10.9368 14.5498 10.4492C14.9326 9.95703 15.418 9.71094 16.0059 9.71094C16.3659 9.71094 16.7191 9.80208 17.0654 9.98438C17.4118 10.1667 17.7057 10.4333 17.9473 10.7842L18.2891 10.4561C17.9655 9.95475 17.585 9.57194 17.1475 9.30762C16.71 9.04329 16.2383 8.91113 15.7324 8.91113C15.1764 8.91113 14.6934 9.0638 14.2832 9.36914C13.8776 9.66992 13.5632 10.0892 13.3398 10.627C13.1165 11.1647 13.0049 11.7868 13.0049 12.4932Z" fill="#888888"/>
</svg>
