<svg width="24" height="24" viewBox="0 0 24 24" fill="none" xmlns="http://www.w3.org/2000/svg">
<path d="M3.99588 17L7.67788 6.738H8.44788L12.1299 17H11.5139L10.2959 13.626H5.81588L4.59788 17H3.99588ZM5.95588 13.108H10.1139L8.05588 7.27L5.95588 13.108ZM15.5904 20.416C15.1051 20.416 14.6757 20.346 14.3024 20.206C13.9384 20.0753 13.6491 19.87 13.4344 19.59C13.2291 19.31 13.1264 18.9553 13.1264 18.526V18.134C13.1264 17.686 13.2477 17.3173 13.4904 17.028C13.7331 16.7387 14.0364 16.524 14.4004 16.384C14.7644 16.244 15.1331 16.174 15.5064 16.174L15.5904 16.51C15.2637 16.51 14.9557 16.5613 14.6664 16.664C14.3771 16.7667 14.1344 16.9347 13.9384 17.168C13.7517 17.4013 13.6584 17.7047 13.6584 18.078V18.47C13.6584 19.0207 13.8404 19.4033 14.2044 19.618C14.5777 19.842 15.0677 19.954 15.6744 19.954H17.5644C18.2457 19.954 18.7777 19.8233 19.1604 19.562C19.5524 19.3007 19.7484 18.8947 19.7484 18.344V18.022C19.7484 17.714 19.6877 17.448 19.5664 17.224C19.4544 17 19.2537 16.8273 18.9644 16.706C18.6844 16.5753 18.2784 16.51 17.7464 16.51H15.1704C14.7411 16.51 14.3864 16.4073 14.1064 16.202C13.8357 15.9873 13.7004 15.698 13.7004 15.334C13.7004 14.97 13.8124 14.69 14.0364 14.494C14.2604 14.298 14.5777 14.1627 14.9884 14.088C14.6057 13.9573 14.3117 13.7707 14.1064 13.528C13.9011 13.2853 13.7564 13.024 13.6724 12.744C13.5977 12.4547 13.5604 12.1747 13.5604 11.904C13.5604 11.316 13.6817 10.8493 13.9244 10.504C14.1671 10.1493 14.4937 9.89733 14.9044 9.748C15.3244 9.59867 15.7911 9.524 16.3044 9.524H20.2804V9.874L18.2924 9.986C18.4324 10.0607 18.5957 10.168 18.7824 10.308C18.9691 10.4387 19.1277 10.644 19.2584 10.924C19.3984 11.204 19.4684 11.5913 19.4684 12.086C19.4684 12.45 19.3891 12.8047 19.2304 13.15C19.0811 13.4953 18.8151 13.7847 18.4324 14.018C18.0591 14.242 17.5364 14.354 16.8644 14.354H15.7444C15.2684 14.354 14.8951 14.424 14.6244 14.564C14.3631 14.6947 14.2324 14.9373 14.2324 15.292C14.2324 15.5533 14.3257 15.7447 14.5124 15.866C14.6991 15.978 14.8904 16.034 15.0864 16.034H17.8024C18.3717 16.034 18.8384 16.1087 19.2024 16.258C19.5757 16.4073 19.8464 16.6267 20.0144 16.916C20.1917 17.196 20.2804 17.546 20.2804 17.966V18.33C20.2804 18.9833 20.0517 19.492 19.5944 19.856C19.1371 20.2293 18.4697 20.416 17.5924 20.416H15.5904ZM15.9404 13.878H16.8084C17.3871 13.878 17.8257 13.7893 18.1244 13.612C18.4324 13.4347 18.6424 13.2107 18.7544 12.94C18.8664 12.66 18.9224 12.366 18.9224 12.058C18.9224 11.554 18.8337 11.1527 18.6564 10.854C18.4884 10.546 18.2597 10.3313 17.9704 10.21C17.6811 10.0793 17.3451 10.014 16.9624 10.014H16.1644C15.5297 10.014 15.0257 10.1587 14.6524 10.448C14.2884 10.728 14.1064 11.2227 14.1064 11.932C14.1064 12.6133 14.2697 13.108 14.5964 13.416C14.9324 13.724 15.3804 13.878 15.9404 13.878Z" fill="#888888"/>
</svg>
