<svg width="24" height="24" viewBox="0 0 24 24" fill="none" xmlns="http://www.w3.org/2000/svg">
<path d="M3.98905 17L7.67105 6.738H8.44105L12.123 17H11.507L10.289 13.626H5.80905L4.59105 17H3.98905ZM5.94905 13.094H10.107L8.04905 7.27L5.94905 13.094ZM15.5836 20.416C14.8462 20.416 14.2489 20.262 13.7916 19.954C13.3436 19.646 13.1196 19.17 13.1196 18.526V18.134C13.1196 17.686 13.2456 17.3127 13.4976 17.014C13.7589 16.7247 14.0669 16.51 14.4216 16.37C14.1976 16.2767 14.0202 16.146 13.8896 15.978C13.7589 15.8007 13.6936 15.586 13.6936 15.334C13.6936 14.97 13.8056 14.69 14.0296 14.494C14.2536 14.298 14.5709 14.1627 14.9816 14.088C14.5989 13.948 14.3049 13.7613 14.0996 13.528C13.8942 13.2853 13.7496 13.024 13.6656 12.744C13.5909 12.464 13.5536 12.184 13.5536 11.904C13.5536 11.316 13.6749 10.8493 13.9176 10.504C14.1602 10.1587 14.4869 9.91133 14.8976 9.762C15.3176 9.60333 15.7842 9.524 16.2976 9.524H20.2736V9.874L18.2856 9.986C18.4256 10.0607 18.5889 10.168 18.7756 10.308C18.9622 10.4387 19.1209 10.644 19.2516 10.924C19.3916 11.204 19.4616 11.5913 19.4616 12.086C19.4616 12.45 19.3822 12.8047 19.2236 13.15C19.0742 13.4953 18.8082 13.7847 18.4256 14.018C18.0522 14.242 17.5296 14.354 16.8576 14.354H15.7376C15.2616 14.354 14.8882 14.424 14.6176 14.564C14.3562 14.6947 14.2256 14.9373 14.2256 15.292C14.2256 15.5533 14.3189 15.74 14.5056 15.852C14.6922 15.964 14.8882 16.02 15.0936 16.02H17.7956C18.6636 16.02 19.2936 16.188 19.6856 16.524C20.0776 16.8507 20.2736 17.3313 20.2736 17.966V18.33C20.2736 18.9833 20.0402 19.492 19.5736 19.856C19.1162 20.2293 18.4536 20.416 17.5856 20.416H15.5836ZM15.9476 13.878H16.8016C17.3709 13.878 17.8096 13.7893 18.1176 13.612C18.4256 13.4347 18.6356 13.206 18.7476 12.926C18.8596 12.646 18.9156 12.3567 18.9156 12.058C18.9156 11.2927 18.7289 10.7607 18.3556 10.462C17.9822 10.1633 17.5202 10.014 16.9696 10.014H16.1576C15.5229 10.014 15.0189 10.1587 14.6456 10.448C14.2816 10.728 14.0996 11.2227 14.0996 11.932C14.0996 12.6227 14.2676 13.122 14.6036 13.43C14.9396 13.7287 15.3876 13.878 15.9476 13.878ZM15.6676 19.94H17.5576C18.2389 19.94 18.7709 19.8093 19.1536 19.548C19.5456 19.296 19.7416 18.8947 19.7416 18.344V18.022C19.7416 17.714 19.6809 17.448 19.5596 17.224C19.4476 17 19.2469 16.8273 18.9576 16.706C18.6682 16.5753 18.2622 16.51 17.7396 16.51H15.5836C15.2662 16.51 14.9582 16.5613 14.6596 16.664C14.3702 16.7667 14.1276 16.9347 13.9316 17.168C13.7449 17.4013 13.6516 17.7047 13.6516 18.078V18.47C13.6516 19.0207 13.8336 19.4033 14.1976 19.618C14.5709 19.8327 15.0609 19.94 15.6676 19.94Z" fill="#333333"/>
</svg>
