<svg width="24" height="24" viewBox="0 0 24 24" fill="none" xmlns="http://www.w3.org/2000/svg">
<path d="M3.86305 17L9.08505 6.696H10.513L12.361 17H11.199L10.667 14.06H6.50905L5.01105 17H3.86305ZM6.95705 13.066H10.555L9.63105 7.704L6.95705 13.066ZM15.4413 20.29L13.4113 20.192L13.5373 19.436H15.8053C16.2253 19.436 16.6219 19.38 16.9953 19.268C17.3779 19.156 17.6953 18.974 17.9473 18.722C18.1993 18.4793 18.3626 18.148 18.4373 17.728L18.6893 16.202C18.2693 16.4913 17.8073 16.7107 17.3033 16.86C16.8086 17.0093 16.3513 17.084 15.9313 17.084C15.3433 17.084 14.8533 16.8647 14.4613 16.426C14.0786 15.978 13.8873 15.376 13.8873 14.62C13.8873 14.3773 13.9013 14.1113 13.9293 13.822C13.9666 13.5327 14.0039 13.2527 14.0413 12.982C14.2373 11.7593 14.6386 10.8633 15.2453 10.294C15.8613 9.72467 16.7526 9.44 17.9193 9.44C18.5633 9.44 19.1373 9.47733 19.6413 9.552C20.1453 9.61733 20.5373 9.68267 20.8173 9.748L19.5153 17.882C19.4126 18.554 19.1559 19.072 18.7453 19.436C18.3439 19.8 17.8493 20.0427 17.2613 20.164C16.6826 20.2947 16.0759 20.3367 15.4413 20.29ZM16.4213 16.174C16.8319 16.174 17.2193 16.118 17.5833 16.006C17.9473 15.8847 18.3486 15.712 18.7873 15.488L19.5853 10.462C19.2959 10.434 19.0066 10.4153 18.7173 10.406C18.4279 10.3873 18.1433 10.3733 17.8633 10.364C17.0419 10.3267 16.4213 10.532 16.0013 10.98C15.5813 11.428 15.2919 12.1373 15.1333 13.108C15.0866 13.3973 15.0493 13.6447 15.0213 13.85C15.0026 14.0553 14.9933 14.2513 14.9933 14.438C14.9933 15.0353 15.1286 15.474 15.3993 15.754C15.6793 16.034 16.0199 16.174 16.4213 16.174Z" fill="#333333"/>
</svg>
