<svg width="24" height="24" viewBox="0 0 24 24" fill="none" xmlns="http://www.w3.org/2000/svg">
<path d="M3.79436 17L7.32236 6.696H8.75036L12.2784 17H11.1304L10.0944 14.06H5.95036L4.94236 17H3.79436ZM6.23036 13.052H9.81436L8.03636 7.676L6.23036 13.052ZM15.5132 20.43C15.0279 20.43 14.5986 20.36 14.2252 20.22C13.8612 20.0893 13.5719 19.884 13.3572 19.604C13.1519 19.3333 13.0492 18.9927 13.0492 18.582V18.246C13.0492 17.8167 13.1659 17.4573 13.3992 17.168C13.6419 16.8787 13.9452 16.664 14.3092 16.524C14.6732 16.3747 15.0466 16.3 15.4292 16.3L15.7092 16.748C15.4292 16.748 15.1679 16.7947 14.9252 16.888C14.6826 16.972 14.4819 17.112 14.3232 17.308C14.1739 17.504 14.0992 17.756 14.0992 18.064V18.372C14.0992 18.82 14.2486 19.1373 14.5472 19.324C14.8459 19.52 15.2519 19.618 15.7652 19.618H17.5012C18.0612 19.618 18.4999 19.5107 18.8172 19.296C19.1439 19.0813 19.3072 18.7453 19.3072 18.288V18.008C19.3072 17.7467 19.2559 17.5227 19.1532 17.336C19.0506 17.1493 18.8779 17.0047 18.6352 16.902C18.4019 16.7993 18.0706 16.748 17.6412 16.748H15.3872C14.8086 16.748 14.3559 16.6267 14.0292 16.384C13.7119 16.132 13.5532 15.81 13.5532 15.418C13.5532 15.0447 13.6606 14.7507 13.8752 14.536C14.0992 14.3213 14.4119 14.172 14.8132 14.088C14.4679 13.948 14.1972 13.7613 14.0012 13.528C13.8052 13.2853 13.6699 13.0287 13.5952 12.758C13.5206 12.478 13.4832 12.198 13.4832 11.918C13.4832 11.3393 13.5999 10.8727 13.8332 10.518C14.0666 10.1633 14.3979 9.90667 14.8272 9.748C15.2659 9.58933 15.7792 9.51 16.3672 9.51H20.3572V10.14L18.6772 10.28C18.7986 10.364 18.9339 10.476 19.0832 10.616C19.2326 10.7467 19.3586 10.938 19.4612 11.19C19.5732 11.4327 19.6292 11.7687 19.6292 12.198C19.6292 12.5807 19.5452 12.9447 19.3772 13.29C19.2186 13.6353 18.9479 13.92 18.5652 14.144C18.1826 14.3587 17.6552 14.466 16.9832 14.466H15.7932C15.4012 14.466 15.0886 14.5267 14.8552 14.648C14.6312 14.76 14.5192 14.9653 14.5192 15.264C14.5192 15.488 14.6032 15.6467 14.7712 15.74C14.9392 15.8333 15.1166 15.88 15.3032 15.88H17.7812C18.3599 15.88 18.8359 15.9547 19.2092 16.104C19.5919 16.2533 19.8766 16.482 20.0632 16.79C20.2592 17.0887 20.3572 17.4713 20.3572 17.938V18.246C20.3572 18.9273 20.1239 19.4593 19.6572 19.842C19.1999 20.234 18.5139 20.43 17.5992 20.43H15.5132ZM16.0312 13.612H16.8712C17.3472 13.612 17.7066 13.542 17.9492 13.402C18.2012 13.2527 18.3739 13.0613 18.4672 12.828C18.5606 12.5947 18.6072 12.3427 18.6072 12.072C18.6072 11.652 18.5372 11.3207 18.3972 11.078C18.2666 10.826 18.0799 10.6487 17.8372 10.546C17.5946 10.434 17.3146 10.378 16.9972 10.378H16.1992C15.6672 10.378 15.2472 10.4993 14.9392 10.742C14.6406 10.9753 14.4912 11.386 14.4912 11.974C14.4912 12.5527 14.6266 12.9727 14.8972 13.234C15.1772 13.486 15.5552 13.612 16.0312 13.612Z" fill="#888888"/>
</svg>
