<svg width="24" height="24" viewBox="0 0 24 24" fill="none" xmlns="http://www.w3.org/2000/svg">
<path d="M3.97373 17L9.29373 6.724H10.3437L12.2617 17H11.4217L10.8197 13.822H6.46573L4.81373 17H3.97373ZM6.80173 13.094H10.7217L9.69973 7.48L6.80173 13.094ZM15.5399 20.304L13.4539 20.22L13.5379 19.66H15.7779C16.2259 19.66 16.6506 19.5993 17.0519 19.478C17.4533 19.3567 17.7893 19.1607 18.0599 18.89C18.3399 18.6193 18.5173 18.26 18.5919 17.812L18.8579 16.188C18.4006 16.496 17.9153 16.7247 17.4019 16.874C16.8886 17.014 16.4126 17.084 15.9739 17.084C15.4046 17.084 14.9146 16.874 14.5039 16.454C14.1026 16.0247 13.9019 15.4227 13.9019 14.648C13.9019 14.4147 13.9159 14.158 13.9439 13.878C13.9813 13.598 14.0186 13.318 14.0559 13.038C14.2519 11.834 14.6393 10.938 15.2179 10.35C15.7966 9.75267 16.6926 9.454 17.9059 9.454C18.5313 9.454 19.0866 9.48667 19.5719 9.552C20.0573 9.608 20.4306 9.664 20.6919 9.72L19.3899 17.91C19.3153 18.414 19.1473 18.8247 18.8859 19.142C18.6339 19.4687 18.3213 19.7207 17.9479 19.898C17.5839 20.0753 17.1919 20.192 16.7719 20.248C16.3519 20.304 15.9413 20.3227 15.5399 20.304ZM16.2959 16.398C16.7439 16.398 17.1686 16.3373 17.5699 16.216C17.9806 16.0947 18.4379 15.908 18.9419 15.656L19.7959 10.238C19.4693 10.2193 19.1473 10.2007 18.8299 10.182C18.5126 10.1633 18.1906 10.1493 17.8639 10.14C16.9399 10.1027 16.2493 10.3313 15.7919 10.826C15.3346 11.3113 15.0219 12.086 14.8539 13.15C14.8166 13.43 14.7839 13.682 14.7559 13.906C14.7279 14.13 14.7139 14.34 14.7139 14.536C14.7139 15.18 14.8679 15.6513 15.1759 15.95C15.4839 16.2487 15.8573 16.398 16.2959 16.398Z" fill="#333333"/>
</svg>
