<svg width="24" height="24" viewBox="0 0 24 24" fill="none" xmlns="http://www.w3.org/2000/svg">
<path d="M8.05425 8.34C8.18492 8.34 8.26892 8.40067 8.30625 8.522L11.6803 18H11.0783L9.88825 14.598H5.43625L4.24625 18H3.64425L7.01825 8.522C7.05558 8.40067 7.13958 8.34 7.27025 8.34H8.05425ZM7.18625 9.6L5.61825 14.094H9.70625L8.13825 9.6C8.08225 9.46933 8.03092 9.33867 7.98425 9.208C7.94692 9.07733 7.90492 8.94667 7.85825 8.816H7.46625C7.41958 8.94667 7.37292 9.07733 7.32625 9.208C7.27958 9.33867 7.23292 9.46933 7.18625 9.6ZM15.7038 11.084C16.2638 11.084 16.7305 11.14 17.1038 11.252H19.2178L19.1758 11.616L17.8738 11.672C18.0698 11.8493 18.2098 12.064 18.2938 12.316C18.3778 12.568 18.4198 12.862 18.4198 13.198C18.4198 13.9073 18.2145 14.4347 17.8038 14.78C17.3932 15.116 16.6885 15.284 15.6898 15.284C14.9992 15.284 14.4485 15.2 14.0378 15.032C13.8605 15.2373 13.7485 15.4567 13.7018 15.69C13.6645 15.9233 13.7112 16.1333 13.8418 16.32C13.9818 16.4973 14.2385 16.6187 14.6118 16.684L17.2718 17.132C17.8785 17.244 18.2845 17.44 18.4898 17.72C18.6952 18 18.7978 18.4107 18.7978 18.952C18.7978 19.6893 18.5692 20.2027 18.1118 20.492C17.6545 20.7813 16.8752 20.926 15.7738 20.926C15.0085 20.926 14.3972 20.8653 13.9398 20.744C13.4918 20.6227 13.1652 20.4173 12.9598 20.128C12.7638 19.8387 12.6658 19.4513 12.6658 18.966C12.6658 18.4993 12.7312 18.126 12.8618 17.846C13.0018 17.566 13.2725 17.3187 13.6738 17.104L13.8698 16.992C13.5618 16.8427 13.3612 16.6373 13.2678 16.376C13.1745 16.1147 13.1698 15.8487 13.2538 15.578C13.3378 15.298 13.4965 15.0647 13.7298 14.878C13.4592 14.71 13.2585 14.486 13.1278 14.206C13.0065 13.926 12.9458 13.59 12.9458 13.198C12.9458 12.4887 13.1512 11.9613 13.5618 11.616C13.9818 11.2613 14.6958 11.084 15.7038 11.084ZM15.6898 11.546C14.8778 11.546 14.3038 11.6813 13.9678 11.952C13.6412 12.2227 13.4778 12.638 13.4778 13.198C13.4778 13.7487 13.6458 14.1593 13.9818 14.43C14.3178 14.6913 14.8872 14.822 15.6898 14.822C16.5018 14.822 17.0712 14.6913 17.3978 14.43C17.7245 14.1593 17.8878 13.7487 17.8878 13.198C17.8878 12.638 17.7245 12.2227 17.3978 11.952C17.0805 11.6813 16.5112 11.546 15.6898 11.546ZM13.2118 18.938C13.2118 19.5073 13.3985 19.8993 13.7718 20.114C14.1545 20.3287 14.8172 20.436 15.7598 20.436C16.6745 20.436 17.3185 20.324 17.6918 20.1C18.0652 19.8853 18.2518 19.498 18.2518 18.938C18.2518 18.518 18.1725 18.21 18.0138 18.014C17.8645 17.818 17.5378 17.6733 17.0338 17.58L14.3458 17.132H14.3178L14.0238 17.314C13.6972 17.5193 13.4778 17.7387 13.3658 17.972C13.2632 18.2053 13.2118 18.5273 13.2118 18.938Z" fill="#333333"/>
</svg>
