<svg width="24" height="24" viewBox="0 0 24 24" fill="none" xmlns="http://www.w3.org/2000/svg">
<path d="M8.61622 8.34C8.71889 8.34 8.77955 8.38667 8.79822 8.48L10.9262 18H10.5622L9.79222 14.472H5.18622L3.40822 18H3.01622L7.83222 8.452C7.86955 8.37733 7.93022 8.34 8.01422 8.34H8.61622ZM7.70622 9.446L5.34022 14.164H9.72222L8.67222 9.418C8.64422 9.28733 8.61622 9.16133 8.58822 9.04C8.56955 8.91867 8.54155 8.79267 8.50422 8.662H8.09822C8.03289 8.79267 7.96755 8.92333 7.90222 9.054C7.84622 9.18467 7.78089 9.31533 7.70622 9.446ZM16.1711 11.112C16.5817 11.112 16.9924 11.1307 17.4031 11.168C17.8137 11.196 18.2384 11.2333 18.6771 11.28H18.7891L17.7251 18.084C17.5851 18.9613 17.2631 19.6567 16.7591 20.17C16.2551 20.6927 15.5597 20.996 14.6731 21.08C14.4771 21.0987 14.2157 21.108 13.8891 21.108C13.5717 21.1173 13.2451 21.1173 12.9091 21.108C12.5731 21.0987 12.2744 21.08 12.0131 21.052L12.0551 20.8C12.4657 20.8187 12.8857 20.828 13.3151 20.828C13.7444 20.828 14.1597 20.8093 14.5611 20.772C15.3917 20.688 16.0357 20.4267 16.4931 19.988C16.9504 19.5587 17.2491 18.9147 17.3891 18.056C17.4637 17.6173 17.5291 17.2487 17.5851 16.95C17.6411 16.642 17.6924 16.3993 17.7391 16.222C17.3377 16.67 16.9224 17.0387 16.4931 17.328C16.0731 17.608 15.6671 17.818 15.2751 17.958C14.8831 18.098 14.5424 18.168 14.2531 18.168C13.6837 18.168 13.2637 18.042 12.9931 17.79C12.7317 17.5287 12.5824 17.1367 12.5451 16.614C12.5077 16.0913 12.5544 15.424 12.6851 14.612C12.7971 13.912 12.9277 13.338 13.0771 12.89C13.2357 12.4327 13.4364 12.0733 13.6791 11.812C13.9311 11.5507 14.2577 11.3687 14.6591 11.266C15.0604 11.1633 15.5644 11.112 16.1711 11.112ZM13.0211 14.668C12.9091 15.4053 12.8624 16.012 12.8811 16.488C12.8997 16.9547 13.0164 17.3 13.2311 17.524C13.4457 17.7387 13.7864 17.846 14.2531 17.846C14.5611 17.846 14.9111 17.7713 15.3031 17.622C15.6951 17.4633 16.1011 17.2393 16.5211 16.95C16.9504 16.6513 17.3517 16.2873 17.7251 15.858L18.3971 11.518C17.9397 11.4993 17.5477 11.4807 17.2211 11.462C16.8944 11.434 16.5584 11.42 16.2131 11.42C15.6437 11.42 15.1771 11.4667 14.8131 11.56C14.4491 11.644 14.1504 11.8027 13.9171 12.036C13.6931 12.2693 13.5111 12.6007 13.3711 13.03C13.2404 13.45 13.1237 13.996 13.0211 14.668Z" fill="#333333"/>
</svg>
