<svg width="24" height="24" viewBox="0 0 24 24" fill="none" xmlns="http://www.w3.org/2000/svg">
<path d="M9.69394 7.34C9.89927 7.34 10.0813 7.41 10.2399 7.55C10.4079 7.69 10.5059 7.86267 10.5339 8.068L11.9059 17H9.27394L8.57394 10.308C8.55527 10.1307 8.54127 9.958 8.53194 9.79C8.53194 9.622 8.53194 9.454 8.53194 9.286H8.13994C8.1026 9.426 8.0606 9.58467 8.01394 9.762C7.96727 9.93933 7.9066 10.112 7.83194 10.28L5.18594 17H2.45594L6.34794 7.97C6.4226 7.76467 6.53927 7.61067 6.69794 7.508C6.86594 7.396 7.05727 7.34 7.27194 7.34H9.69394ZM10.2819 12.786L10.0579 14.732H5.01794L5.25594 12.786H10.2819ZM18.0945 10.07L20.5865 10.266L19.7745 15.992C19.6625 16.804 19.4758 17.4667 19.2145 17.98C18.9532 18.4933 18.6265 18.8853 18.2345 19.156C17.8518 19.4267 17.4225 19.6133 16.9465 19.716C16.4705 19.8187 15.9665 19.8747 15.4345 19.884C15.2665 19.884 15.0052 19.8747 14.6505 19.856C14.3052 19.8373 13.9365 19.7953 13.5445 19.73C13.1525 19.674 12.8025 19.5807 12.4945 19.45L12.6345 18.05C12.7838 18.05 12.9332 18.05 13.0825 18.05C13.2412 18.05 13.4278 18.05 13.6425 18.05C13.8665 18.05 14.1512 18.05 14.4965 18.05C15.1592 18.0407 15.7285 17.9567 16.2045 17.798C16.6805 17.6393 17.0165 17.3547 17.2125 16.944C17.3525 16.6827 17.4458 16.4213 17.4925 16.16C17.5485 15.8893 17.6418 15.6373 17.7725 15.404L17.3385 15.236L18.0945 10.07ZM16.5405 9.846C17.1005 9.846 17.6418 9.86933 18.1645 9.916C18.6965 9.95333 19.1725 10.0047 19.5925 10.07C20.0125 10.1353 20.3392 10.2007 20.5725 10.266L18.6965 11.582C18.3978 11.5727 18.1132 11.568 17.8425 11.568C17.5812 11.5587 17.2965 11.554 16.9885 11.554C16.7085 11.554 16.4798 11.582 16.3025 11.638C16.1252 11.694 15.9805 11.7873 15.8685 11.918C15.7658 12.0393 15.6818 12.2167 15.6165 12.45C15.5512 12.674 15.4905 12.9587 15.4345 13.304C15.3412 13.8267 15.2945 14.228 15.2945 14.508C15.2945 14.788 15.3412 14.9793 15.4345 15.082C15.5278 15.1753 15.6725 15.2127 15.8685 15.194C16.0925 15.166 16.3212 15.0727 16.5545 14.914C16.7972 14.7553 17.0352 14.5453 17.2685 14.284C17.5018 14.0133 17.7118 13.71 17.8985 13.374L18.3185 14.102C18.1598 14.7087 17.9125 15.2313 17.5765 15.67C17.2405 16.0993 16.8392 16.4353 16.3725 16.678C15.9152 16.9113 15.4018 17.0373 14.8325 17.056C14.1978 17.084 13.7125 16.958 13.3765 16.678C13.0498 16.3887 12.8445 15.964 12.7605 15.404C12.6858 14.8347 12.7138 14.1487 12.8445 13.346C12.9658 12.534 13.1338 11.8947 13.3485 11.428C13.5725 10.952 13.8338 10.602 14.1325 10.378C14.4405 10.154 14.7952 10.0093 15.1965 9.944C15.5978 9.87867 16.0458 9.846 16.5405 9.846Z" fill="#888888"/>
</svg>
