<svg width="24" height="24" viewBox="0 0 24 24" fill="none" xmlns="http://www.w3.org/2000/svg">
<path d="M9.05513 7.34C9.2698 7.34 9.45647 7.40067 9.61513 7.522C9.78313 7.64333 9.89513 7.81133 9.95113 8.026L12.5971 17H9.90913L8.21513 10.336C8.1778 10.1773 8.14513 10.0093 8.11713 9.832C8.08913 9.64533 8.06113 9.47267 8.03313 9.314H7.65513C7.63647 9.47267 7.60847 9.64533 7.57113 9.832C7.54313 10.0093 7.51047 10.1773 7.47313 10.336L5.77913 17H3.09113L5.73713 8.026C5.79313 7.81133 5.90047 7.64333 6.05913 7.522C6.22713 7.40067 6.41847 7.34 6.63313 7.34H9.05513ZM10.3851 12.814V14.704H5.30313V12.814H10.3851ZM16.5024 9.846C17.3517 9.846 18.0237 9.92067 18.5184 10.07C19.0224 10.2193 19.3817 10.4527 19.5964 10.77C19.8204 11.0873 19.9324 11.5167 19.9324 12.058C19.9324 12.59 19.825 13.0193 19.6104 13.346C19.3957 13.6633 19.0317 13.8967 18.5184 14.046C18.0144 14.186 17.3377 14.256 16.4884 14.256C15.6484 14.256 14.9717 14.186 14.4584 14.046C13.9544 13.8967 13.5904 13.6633 13.3664 13.346C13.1424 13.0193 13.0304 12.59 13.0304 12.058C13.0304 11.526 13.1424 11.1013 13.3664 10.784C13.5997 10.4573 13.9684 10.2193 14.4724 10.07C14.9857 9.92067 15.6624 9.846 16.5024 9.846ZM16.4884 11.302C16.0684 11.302 15.779 11.358 15.6204 11.47C15.471 11.5727 15.3964 11.7687 15.3964 12.058C15.3964 12.3473 15.471 12.548 15.6204 12.66C15.779 12.7627 16.0684 12.814 16.4884 12.814C16.9177 12.814 17.207 12.7627 17.3564 12.66C17.5057 12.548 17.5804 12.3473 17.5804 12.058C17.5804 11.7687 17.5057 11.5727 17.3564 11.47C17.207 11.358 16.9177 11.302 16.4884 11.302ZM20.7304 10.042L20.6044 11.022L18.7004 11.316L18.1824 10.042H20.7304ZM14.3324 13.85L15.5364 14.06C15.4244 14.1067 15.3404 14.2 15.2844 14.34C15.2377 14.4707 15.2517 14.6013 15.3264 14.732C15.401 14.8533 15.5504 14.9233 15.7744 14.942L18.3224 15.166C19.097 15.2313 19.643 15.4413 19.9604 15.796C20.287 16.1413 20.4504 16.6453 20.4504 17.308C20.4504 17.9333 20.3197 18.4093 20.0584 18.736C19.797 19.072 19.3817 19.3007 18.8124 19.422C18.2524 19.5433 17.5104 19.604 16.5864 19.604C15.793 19.604 15.1444 19.5667 14.6404 19.492C14.1457 19.4173 13.7584 19.3007 13.4784 19.142C13.1984 18.9927 13.0024 18.7873 12.8904 18.526C12.7877 18.274 12.7364 17.9613 12.7364 17.588C12.7364 17.2987 12.7877 17.0467 12.8904 16.832C13.0024 16.6173 13.1984 16.426 13.4784 16.258C13.7677 16.09 14.1644 15.936 14.6684 15.796L15.7884 15.488L16.6564 15.81L16.1524 16.118C15.891 16.3047 15.6857 16.4493 15.5364 16.552C15.387 16.6547 15.2797 16.7527 15.2144 16.846C15.149 16.93 15.1164 17.056 15.1164 17.224C15.1164 17.392 15.1584 17.518 15.2424 17.602C15.3264 17.6953 15.471 17.756 15.6764 17.784C15.891 17.8213 16.1804 17.84 16.5444 17.84C16.9457 17.84 17.2537 17.8213 17.4684 17.784C17.6924 17.756 17.8464 17.7 17.9304 17.616C18.0237 17.5413 18.0704 17.4293 18.0704 17.28C18.0704 17.1307 18.033 17.0233 17.9584 16.958C17.8837 16.8927 17.7624 16.846 17.5944 16.818C17.4357 16.7807 17.221 16.748 16.9504 16.72L14.9204 16.538C14.5377 16.5007 14.2297 16.398 13.9964 16.23C13.7724 16.062 13.6184 15.8613 13.5344 15.628C13.4504 15.3853 13.427 15.1427 13.4644 14.9C13.5017 14.6573 13.595 14.4427 13.7444 14.256C13.903 14.06 14.099 13.9247 14.3324 13.85Z" fill="#888888"/>
</svg>
