<svg width="24" height="24" viewBox="0 0 24 24" fill="none" xmlns="http://www.w3.org/2000/svg">
<path d="M8.61622 7.34C8.66289 7.34 8.70022 7.354 8.72822 7.382C8.76555 7.40067 8.78889 7.43333 8.79822 7.48L10.9262 17H10.5622L8.67222 8.418C8.64422 8.28733 8.61622 8.16133 8.58822 8.04C8.56955 7.91867 8.54155 7.79267 8.50422 7.662H8.09822C8.03289 7.79267 7.96755 7.92333 7.90222 8.054C7.84622 8.18467 7.78089 8.31533 7.70622 8.446L3.40822 17H3.01622L7.83222 7.452C7.85089 7.40533 7.87422 7.37733 7.90222 7.368C7.93955 7.34933 7.97689 7.34 8.01422 7.34H8.61622ZM9.96022 13.164L9.91822 13.472H5.01822L5.06022 13.164H9.96022ZM18.4391 10.28H18.7891L17.7251 17.084C17.6597 17.5227 17.5431 17.9147 17.3751 18.26C17.2164 18.6147 17.0111 18.918 16.7591 19.17C16.5071 19.4313 16.2084 19.6367 15.8631 19.786C15.5177 19.9353 15.1211 20.0333 14.6731 20.08C14.4771 20.0987 14.2157 20.108 13.8891 20.108C13.5717 20.1173 13.2451 20.1173 12.9091 20.108C12.5731 20.0987 12.2744 20.08 12.0131 20.052L12.0551 19.8C12.3257 19.8093 12.6011 19.8187 12.8811 19.828C13.1704 19.8373 13.4551 19.8373 13.7351 19.828C14.0151 19.8187 14.2904 19.8 14.5611 19.772C15.3917 19.688 16.0357 19.4267 16.4931 18.988C16.9504 18.5587 17.2491 17.9147 17.3891 17.056C17.4731 16.5333 17.5477 16.1087 17.6131 15.782C17.6784 15.4553 17.7391 15.2173 17.7951 15.068L17.7111 14.956L18.4391 10.28ZM16.1711 10.112C16.4417 10.112 16.7124 10.1213 16.9831 10.14C17.2537 10.1493 17.5291 10.168 17.8091 10.196C18.0984 10.2147 18.3877 10.2427 18.6771 10.28L18.5371 10.532C18.0331 10.504 17.6084 10.4807 17.2631 10.462C16.9271 10.434 16.5771 10.42 16.2131 10.42C15.6437 10.42 15.1771 10.4667 14.8131 10.56C14.4491 10.644 14.1504 10.8027 13.9171 11.036C13.6931 11.2693 13.5111 11.6007 13.3711 12.03C13.2404 12.45 13.1237 12.996 13.0211 13.668C12.9091 14.4053 12.8624 15.012 12.8811 15.488C12.8997 15.9547 13.0164 16.3 13.2311 16.524C13.4457 16.7387 13.7864 16.846 14.2531 16.846C14.5611 16.846 14.9111 16.7713 15.3031 16.622C15.7044 16.4633 16.1151 16.2347 16.5351 15.936C16.9644 15.628 17.3704 15.2593 17.7531 14.83L17.8231 15.138C17.4217 15.6047 17.0017 15.9873 16.5631 16.286C16.1244 16.5847 15.7044 16.8087 15.3031 16.958C14.9017 17.098 14.5517 17.168 14.2531 17.168C13.6837 17.168 13.2637 17.042 12.9931 16.79C12.7317 16.5287 12.5824 16.1367 12.5451 15.614C12.5077 15.0913 12.5544 14.424 12.6851 13.612C12.7971 12.912 12.9277 12.338 13.0771 11.89C13.2357 11.4327 13.4364 11.0733 13.6791 10.812C13.9311 10.5507 14.2577 10.3687 14.6591 10.266C15.0604 10.1633 15.5644 10.112 16.1711 10.112Z" fill="#888888"/>
</svg>
