<svg width="24" height="24" viewBox="0 0 24 24" fill="none" xmlns="http://www.w3.org/2000/svg">
<path d="M8.05425 7.34C8.11958 7.34 8.17092 7.354 8.20825 7.382C8.25492 7.41 8.28758 7.45667 8.30625 7.522L11.6803 17H11.0783L8.13825 8.6C8.09158 8.46933 8.04492 8.33867 7.99825 8.208C7.95158 8.07733 7.90492 7.94667 7.85825 7.816H7.46625C7.41958 7.94667 7.37292 8.07733 7.32625 8.208C7.27958 8.33867 7.23292 8.46933 7.18625 8.6L4.24625 17H3.64425L7.01825 7.522C7.03692 7.45667 7.06958 7.41 7.11625 7.382C7.16292 7.354 7.21425 7.34 7.27025 7.34H8.05425ZM10.0983 13.094V13.598H5.19825V13.094H10.0983ZM15.7038 10.084C16.3665 10.084 16.8938 10.1633 17.2858 10.322C17.6872 10.4807 17.9765 10.714 18.1538 11.022C18.3312 11.33 18.4198 11.722 18.4198 12.198C18.4198 12.6647 18.3312 13.0567 18.1538 13.374C17.9765 13.682 17.6872 13.9107 17.2858 14.06C16.8938 14.2093 16.3618 14.284 15.6898 14.284C15.0365 14.284 14.5045 14.2093 14.0938 14.06C13.6925 13.9107 13.3985 13.682 13.2118 13.374C13.0345 13.0567 12.9458 12.6647 12.9458 12.198C12.9458 11.722 13.0345 11.33 13.2118 11.022C13.3985 10.714 13.6925 10.4807 14.0938 10.322C14.4952 10.1633 15.0318 10.084 15.7038 10.084ZM15.6898 10.546C14.8778 10.546 14.3038 10.6813 13.9678 10.952C13.6412 11.2227 13.4778 11.638 13.4778 12.198C13.4778 12.758 13.6458 13.1687 13.9818 13.43C14.3178 13.6913 14.8872 13.822 15.6898 13.822C16.5112 13.822 17.0805 13.6913 17.3978 13.43C17.7245 13.1687 17.8878 12.758 17.8878 12.198C17.8878 11.638 17.7245 11.2227 17.3978 10.952C17.0805 10.6813 16.5112 10.546 15.6898 10.546ZM19.2178 10.252L19.1758 10.616L17.4958 10.686L17.0058 10.252H19.2178ZM13.8138 13.808L14.2058 13.864C13.9725 14.0787 13.8138 14.3167 13.7298 14.578C13.6552 14.83 13.6832 15.0587 13.8138 15.264C13.9445 15.4693 14.2105 15.6093 14.6118 15.684L17.2718 16.132C17.8785 16.2347 18.2845 16.4307 18.4898 16.72C18.6952 17 18.7978 17.4107 18.7978 17.952C18.7978 18.4467 18.6998 18.834 18.5038 19.114C18.3078 19.4033 17.9858 19.6087 17.5378 19.73C17.0898 19.8607 16.5018 19.926 15.7738 19.926C15.1952 19.926 14.7052 19.8887 14.3038 19.814C13.9118 19.7487 13.5945 19.6413 13.3518 19.492C13.1092 19.3427 12.9318 19.142 12.8198 18.89C12.7172 18.638 12.6658 18.33 12.6658 17.966C12.6658 17.6487 12.6938 17.378 12.7498 17.154C12.8058 16.9393 12.9085 16.748 13.0578 16.58C13.2072 16.4027 13.4125 16.244 13.6738 16.104L14.3318 15.74L14.7238 15.866L14.0238 16.314C13.8092 16.454 13.6412 16.5987 13.5198 16.748C13.4078 16.888 13.3285 17.0513 13.2818 17.238C13.2352 17.4247 13.2118 17.658 13.2118 17.938C13.2118 18.3113 13.2912 18.6053 13.4498 18.82C13.6178 19.044 13.8885 19.2027 14.2618 19.296C14.6352 19.3893 15.1345 19.436 15.7598 19.436C16.3758 19.436 16.8658 19.3893 17.2298 19.296C17.5938 19.2027 17.8552 19.044 18.0138 18.82C18.1725 18.6053 18.2518 18.3113 18.2518 17.938C18.2518 17.658 18.2192 17.4293 18.1538 17.252C18.0978 17.0747 17.9812 16.9347 17.8038 16.832C17.6265 16.72 17.3698 16.636 17.0338 16.58L14.3458 16.132C14.0565 16.0853 13.8232 15.9967 13.6458 15.866C13.4685 15.726 13.3425 15.5673 13.2678 15.39C13.1932 15.2033 13.1698 15.0167 13.1978 14.83C13.2258 14.634 13.2912 14.4473 13.3938 14.27C13.4965 14.0833 13.6365 13.9293 13.8138 13.808Z" fill="#888888"/>
</svg>
