<svg width="24" height="24" viewBox="0 0 24 24" fill="none" xmlns="http://www.w3.org/2000/svg">
<path d="M9.51741 7.34C9.66674 7.34 9.79741 7.38667 9.90941 7.48C10.0214 7.57333 10.0867 7.69467 10.1054 7.844L11.7434 17H9.99341L8.85941 9.552C8.84074 9.40267 8.82207 9.25333 8.80341 9.104C8.79407 8.94533 8.78474 8.796 8.77541 8.656H8.35541C8.30874 8.78667 8.25741 8.93133 8.20141 9.09C8.14541 9.24867 8.08474 9.40267 8.01941 9.552L4.78541 17H2.95141L7.16541 7.774C7.22141 7.62467 7.30541 7.51733 7.41741 7.452C7.52941 7.37733 7.66007 7.34 7.80941 7.34H9.51741ZM10.3854 12.87L10.2174 14.27H5.26141L5.44341 12.87H10.3854ZM18.3338 10.238L20.0138 10.308L19.1178 16.552C19.0431 17.14 18.8985 17.644 18.6838 18.064C18.4785 18.4933 18.2031 18.8433 17.8578 19.114C17.5218 19.3847 17.1205 19.5853 16.6538 19.716C16.1871 19.8467 15.6598 19.9167 15.0718 19.926C14.9318 19.926 14.7078 19.9213 14.3998 19.912C14.1011 19.9027 13.7791 19.8747 13.4338 19.828C13.0885 19.7813 12.7805 19.7113 12.5098 19.618L12.6358 18.596C12.8225 18.6053 13.0045 18.61 13.1818 18.61C13.3685 18.6193 13.5831 18.624 13.8258 18.624C14.0778 18.624 14.3765 18.6193 14.7218 18.61C15.3845 18.6007 15.9585 18.4793 16.4438 18.246C16.9291 18.022 17.2511 17.6207 17.4098 17.042C17.5031 16.7433 17.5825 16.454 17.6478 16.174C17.7131 15.8847 17.8205 15.614 17.9698 15.362L17.6058 15.222L18.3338 10.238ZM16.4018 9.958C16.8311 9.958 17.2651 9.97667 17.7038 10.014C18.1518 10.042 18.5718 10.084 18.9638 10.14C19.3651 10.1867 19.7105 10.2427 19.9998 10.308L18.9638 11.274C18.5251 11.2553 18.1285 11.2413 17.7738 11.232C17.4191 11.2227 17.1111 11.218 16.8498 11.218C16.4578 11.218 16.1358 11.246 15.8838 11.302C15.6411 11.358 15.4405 11.4653 15.2818 11.624C15.1325 11.7827 15.0111 12.016 14.9178 12.324C14.8338 12.6227 14.7545 13.0147 14.6798 13.5C14.5865 14.116 14.5445 14.592 14.5538 14.928C14.5631 15.2547 14.6331 15.4833 14.7638 15.614C14.8945 15.7353 15.0905 15.7913 15.3518 15.782C15.6505 15.7727 15.9491 15.6933 16.2478 15.544C16.5465 15.3947 16.8451 15.1847 17.1438 14.914C17.4518 14.634 17.7645 14.3027 18.0818 13.92L18.4038 14.536C18.1891 15.0213 17.8998 15.46 17.5358 15.852C17.1811 16.2347 16.7705 16.5427 16.3038 16.776C15.8465 17 15.3425 17.1167 14.7918 17.126C14.2505 17.1353 13.8211 17.0187 13.5038 16.776C13.1865 16.5333 12.9811 16.1413 12.8878 15.6C12.8038 15.0493 12.8271 14.3353 12.9578 13.458C13.0791 12.6647 13.2378 12.0347 13.4338 11.568C13.6298 11.1013 13.8678 10.756 14.1478 10.532C14.4371 10.2987 14.7685 10.1447 15.1418 10.07C15.5151 9.99533 15.9351 9.958 16.4018 9.958Z" fill="#888888"/>
</svg>
