<svg width="24" height="24" viewBox="0 0 24 24" fill="none" xmlns="http://www.w3.org/2000/svg">
<path d="M5.4485 13.774L4.7065 16H2.7325L6.3865 5.822H8.3465L12.0005 16H9.9285L7.4085 8.426L7.2965 7.908L7.1705 8.454L5.9805 12.08L5.8125 12.36L6.0225 12.332H7.0865C7.29183 12.332 7.46917 12.3787 7.6185 12.472C7.76783 12.5653 7.8985 12.682 8.0105 12.822C8.1225 12.962 8.21583 13.1207 8.2905 13.298C8.3745 13.466 8.43983 13.6247 8.4865 13.774H5.4485ZM15.076 12.64C15.076 12.864 15.0947 13.0973 15.132 13.34C15.1693 13.5827 15.23 13.8067 15.314 14.012C15.4073 14.208 15.5287 14.3713 15.678 14.502C15.8367 14.6233 16.0373 14.6793 16.28 14.67C16.56 14.6607 16.7793 14.754 16.938 14.95C17.0967 15.1367 17.2553 15.3653 17.414 15.636C17.1527 15.776 16.882 15.8927 16.602 15.986C16.3313 16.0793 16.0747 16.126 15.832 16.126C15.384 16.126 14.9827 16.0233 14.628 15.818C14.2827 15.6127 13.984 15.3467 13.732 15.02C13.4893 14.684 13.3027 14.3107 13.172 13.9C13.0507 13.48 12.99 13.06 12.99 12.64C12.99 12.08 13.0787 11.5573 13.256 11.072C13.4333 10.5773 13.69 10.148 14.026 9.784C14.362 9.42 14.7727 9.13067 15.258 8.916C15.7527 8.70133 16.3127 8.594 16.938 8.594C17.134 8.594 17.33 8.59867 17.526 8.608C17.722 8.61733 17.932 8.64067 18.156 8.678C18.38 8.706 18.6273 8.748 18.898 8.804C19.1687 8.86 19.4767 8.93 19.822 9.014V16C19.822 16.644 19.724 17.1853 19.528 17.624C19.332 18.072 19.066 18.4313 18.73 18.702C18.394 18.982 18.002 19.1827 17.554 19.304C17.106 19.4347 16.6253 19.5 16.112 19.5C15.748 19.5 15.3327 19.4627 14.866 19.388C14.3993 19.3133 13.8907 19.1547 13.34 18.912L13.83 17.61C14.306 17.7967 14.712 17.9227 15.048 17.988C15.384 18.0627 15.7013 18.1 16 18.1C16.2613 18.1 16.504 18.058 16.728 17.974C16.9613 17.89 17.1667 17.7687 17.344 17.61C17.5213 17.4513 17.6613 17.2507 17.764 17.008C17.8667 16.7653 17.918 16.4807 17.918 16.154V10.148C17.7313 10.1013 17.5587 10.0733 17.4 10.064C17.2507 10.0453 17.1247 10.036 17.022 10.036C16.7047 10.036 16.4247 10.1013 16.182 10.232C15.9393 10.3533 15.734 10.5307 15.566 10.764C15.4073 10.988 15.286 11.2633 15.202 11.59C15.118 11.9073 15.076 12.2573 15.076 12.64Z" fill="#333333"/>
</svg>
