<svg width="24" height="24" viewBox="0 0 24 24" fill="none" xmlns="http://www.w3.org/2000/svg">
<path d="M6.55805 5.822H8.28005L11.9341 16H10.1001L7.46805 8.188L7.35606 7.712L7.24405 8.202L5.91405 12.164L5.74605 12.444L5.94205 12.416H7.31405C7.50072 12.416 7.66405 12.458 7.80406 12.542C7.95339 12.6167 8.07939 12.7147 8.18205 12.836C8.28472 12.9573 8.37339 13.0973 8.44806 13.256C8.52272 13.4053 8.58339 13.55 8.63005 13.69H5.41005L4.64005 16H2.90405L6.55805 5.822ZM13.0258 12.556C13.0258 11.996 13.1145 11.4733 13.2918 10.988C13.4692 10.5027 13.7258 10.0873 14.0618 9.742C14.3978 9.38733 14.8038 9.112 15.2798 8.916C15.7558 8.71067 16.2878 8.608 16.8758 8.608C17.0718 8.608 17.2678 8.61733 17.4638 8.636C17.6598 8.64533 17.8652 8.66867 18.0798 8.706C18.3038 8.734 18.5372 8.776 18.7798 8.832C19.0318 8.888 19.3118 8.958 19.6198 9.042V16C19.6198 16.5973 19.5265 17.1153 19.3398 17.554C19.1625 17.9927 18.9152 18.3567 18.5978 18.646C18.2805 18.9353 17.9025 19.15 17.4638 19.29C17.0345 19.43 16.5632 19.5 16.0498 19.5C15.6858 19.5 15.2752 19.4627 14.8178 19.388C14.3698 19.3133 13.8892 19.1547 13.3758 18.912L13.8098 17.736C14.2578 17.932 14.6498 18.0673 14.9858 18.142C15.3218 18.2167 15.6392 18.254 15.9378 18.254C16.2085 18.254 16.4652 18.2073 16.7078 18.114C16.9598 18.03 17.1745 17.8993 17.3518 17.722C17.5385 17.554 17.6832 17.3393 17.7858 17.078C17.8978 16.8167 17.9538 16.5087 17.9538 16.154V10.008C17.7578 9.96133 17.5712 9.92867 17.3938 9.91C17.2258 9.89133 17.0718 9.882 16.9318 9.882C16.2692 9.882 15.7558 10.1247 15.3918 10.61C15.0278 11.086 14.8458 11.7347 14.8458 12.556C14.8458 12.8453 14.8692 13.13 14.9158 13.41C14.9718 13.6807 15.0558 13.9233 15.1678 14.138C15.2892 14.3527 15.4432 14.5253 15.6298 14.656C15.8165 14.7773 16.0452 14.8287 16.3158 14.81C16.5678 14.7913 16.7778 14.8613 16.9458 15.02C17.1232 15.1693 17.2912 15.3653 17.4498 15.608C17.2072 15.7573 16.9505 15.8787 16.6798 15.972C16.4185 16.056 16.1712 16.1027 15.9378 16.112C15.4992 16.1307 15.1025 16.0467 14.7478 15.86C14.3932 15.664 14.0852 15.4027 13.8238 15.076C13.5718 14.74 13.3758 14.3573 13.2358 13.928C13.0958 13.4893 13.0258 13.032 13.0258 12.556Z" fill="#333333"/>
</svg>
