<svg width="24" height="24" viewBox="0 0 24 24" fill="none" xmlns="http://www.w3.org/2000/svg">
<path d="M3.68531 17L7.35331 6.822H8.65531L12.3233 17H10.8953L8.05331 8.796L7.95531 8.39L7.85731 8.796L6.28931 13.29L6.13531 13.584L6.30331 13.556H8.19331C8.41731 13.556 8.60398 13.6027 8.75331 13.696C8.90731 13.7893 9.03331 13.913 9.13131 14.067C9.23398 14.221 9.31798 14.3867 9.38331 14.564H5.85531L5.01531 17H3.68531ZM16.4326 20.5C16.0686 20.5 15.6696 20.4603 15.2356 20.381C14.8063 20.3063 14.3606 20.15 13.8986 19.912L14.2626 18.96C14.664 19.156 15.0326 19.2937 15.3686 19.373C15.7093 19.4523 16.0266 19.492 16.3206 19.492C16.7126 19.492 17.072 19.408 17.3986 19.24C17.7253 19.072 17.9866 18.8153 18.1826 18.47C18.3786 18.1247 18.4766 17.686 18.4766 17.154V10.784C18.262 10.728 18.059 10.6883 17.8676 10.665C17.681 10.6417 17.4826 10.63 17.2726 10.63C16.5726 10.63 16.008 10.8703 15.5786 11.351C15.1493 11.8317 14.9346 12.52 14.9346 13.416C14.9346 13.9433 15.0046 14.4147 15.1446 14.83C15.2893 15.2407 15.504 15.558 15.7886 15.782C16.078 16.006 16.4373 16.0947 16.8666 16.048C17.072 16.0247 17.2703 16.0527 17.4616 16.132C17.653 16.2113 17.8326 16.356 18.0006 16.566C17.772 16.72 17.534 16.839 17.2866 16.923C17.0393 17.007 16.8106 17.0607 16.6006 17.084C16.1853 17.1167 15.7933 17.0537 15.4246 16.895C15.0606 16.7317 14.7386 16.4867 14.4586 16.16C14.1786 15.8333 13.9593 15.4367 13.8006 14.97C13.642 14.5033 13.5626 13.9853 13.5626 13.416C13.5626 12.6553 13.7213 11.9903 14.0386 11.421C14.356 10.8517 14.7923 10.4107 15.3476 10.098C15.9076 9.78067 16.5493 9.622 17.2726 9.622C17.534 9.622 17.793 9.63833 18.0496 9.671C18.3063 9.699 18.5723 9.74567 18.8476 9.811C19.1276 9.87633 19.4286 9.96267 19.7506 10.07V17C19.7506 17.6953 19.6153 18.3043 19.3446 18.827C19.0786 19.3543 18.696 19.765 18.1966 20.059C17.702 20.353 17.114 20.5 16.4326 20.5Z" fill="#888888"/>
</svg>
