<svg width="24" height="24" viewBox="0 0 24 24" fill="none" xmlns="http://www.w3.org/2000/svg">
<path d="M7.2091 5.822H8.7071L12.3751 16H10.7511L8.0071 7.978L7.9091 7.544L7.7971 7.992L6.3411 12.234L6.1871 12.514L6.3551 12.486H8.0071C8.18444 12.486 8.33844 12.5187 8.4691 12.584C8.6091 12.6493 8.73044 12.738 8.8331 12.85C8.93577 12.9527 9.01977 13.074 9.0851 13.214C9.15977 13.3447 9.22044 13.48 9.2671 13.62H5.8791L5.0671 16H3.5551L7.2091 5.822ZM13.5408 12.486C13.5408 11.9167 13.6295 11.3987 13.8068 10.932C13.9935 10.456 14.2502 10.0453 14.5768 9.7C14.9128 9.35467 15.3095 9.08867 15.7668 8.902C16.2335 8.706 16.7515 8.608 17.3208 8.608C17.7128 8.608 18.1048 8.64067 18.4968 8.706C18.8982 8.77133 19.3742 8.888 19.9248 9.056V16C19.9248 16.56 19.8408 17.0547 19.6728 17.484C19.5048 17.9227 19.2668 18.2913 18.9588 18.59C18.6602 18.8887 18.3008 19.1127 17.8808 19.262C17.4608 19.4207 16.9942 19.5 16.4808 19.5C16.1168 19.5 15.7155 19.4627 15.2768 19.388C14.8382 19.3133 14.3762 19.1547 13.8908 18.912L14.2828 17.862C14.7028 18.0487 15.0808 18.1793 15.4168 18.254C15.7528 18.338 16.0702 18.38 16.3688 18.38C16.6582 18.38 16.9288 18.3333 17.1808 18.24C17.4328 18.156 17.6522 18.0207 17.8388 17.834C18.0348 17.6473 18.1888 17.414 18.3008 17.134C18.4128 16.8633 18.4688 16.5367 18.4688 16.154V9.896C18.2542 9.84 18.0582 9.80267 17.8808 9.784C17.7035 9.756 17.5262 9.742 17.3488 9.742C16.6675 9.742 16.1262 9.98467 15.7248 10.47C15.3235 10.946 15.1228 11.618 15.1228 12.486C15.1228 12.8313 15.1555 13.158 15.2208 13.466C15.2955 13.774 15.4028 14.0447 15.5428 14.278C15.6828 14.502 15.8602 14.6747 16.0748 14.796C16.2895 14.9173 16.5462 14.964 16.8448 14.936C17.2742 14.908 17.6522 15.1227 17.9788 15.58C17.7362 15.7387 17.4842 15.86 17.2228 15.944C16.9708 16.028 16.7375 16.0793 16.5228 16.098C16.1028 16.126 15.7108 16.0513 15.3468 15.874C14.9828 15.6967 14.6655 15.4447 14.3948 15.118C14.1335 14.7913 13.9235 14.404 13.7648 13.956C13.6155 13.4987 13.5408 13.0087 13.5408 12.486Z" fill="#333333"/>
</svg>
