<svg width="24" height="24" viewBox="0 0 24 24" fill="none" xmlns="http://www.w3.org/2000/svg">
<path d="M10.3423 14.452H4.70031L3.42631 17H2.44631L7.54231 7.06H8.29831L13.1003 17H11.5323L10.3423 14.452ZM10.0203 13.78L7.61231 8.628L5.03631 13.78H10.0203ZM20.9999 10.308C20.6919 10.168 20.3373 10.098 19.9359 10.098C19.4973 10.098 19.1239 10.1587 18.8159 10.28C19.3013 10.4667 19.6746 10.7327 19.9359 11.078C20.1973 11.4233 20.3279 11.8387 20.3279 12.324C20.3279 12.996 20.0573 13.5607 19.5159 14.018C18.9839 14.466 18.1766 14.7087 17.0939 14.746C16.6833 14.7647 16.3379 14.8253 16.0579 14.928C15.7779 15.0213 15.6379 15.138 15.6379 15.278C15.6379 15.3993 15.7266 15.4927 15.9039 15.558C16.0906 15.614 16.3239 15.642 16.6039 15.642H17.2059C18.3633 15.642 19.2546 15.8053 19.8799 16.132C20.5146 16.4493 20.8319 16.9067 20.8319 17.504C20.8319 17.952 20.6686 18.3393 20.3419 18.666C20.0246 19.002 19.5673 19.2587 18.9699 19.436C18.3819 19.6227 17.6959 19.716 16.9119 19.716C16.1653 19.716 15.5119 19.6367 14.9519 19.478C14.4013 19.3287 13.9719 19.114 13.6639 18.834C13.3653 18.5633 13.2159 18.246 13.2159 17.882C13.2159 17.49 13.4026 17.1633 13.7759 16.902C14.1493 16.6313 14.7279 16.4447 15.5119 16.342C15.0826 16.286 14.7653 16.1787 14.5599 16.02C14.3546 15.852 14.2519 15.656 14.2519 15.432C14.2519 15.208 14.3779 15.0073 14.6299 14.83C14.8819 14.6527 15.2133 14.5407 15.6239 14.494C14.9986 14.326 14.5319 14.0553 14.2239 13.682C13.9253 13.3087 13.7759 12.8513 13.7759 12.31C13.7759 11.61 14.0746 11.05 14.6719 10.63C15.2693 10.21 16.0626 10 17.0519 10C17.4813 10 17.8546 10.0327 18.1719 10.098C18.4239 9.86467 18.7133 9.68733 19.0399 9.566C19.3666 9.44467 19.7119 9.384 20.0759 9.384C20.4493 9.384 20.7573 9.426 20.9999 9.51V10.308ZM17.0519 14.158C17.6959 14.158 18.1906 14.0087 18.5359 13.71C18.8813 13.402 19.0539 12.954 19.0539 12.366C19.0539 11.7873 18.8813 11.344 18.5359 11.036C18.1906 10.728 17.6959 10.574 17.0519 10.574C16.4173 10.574 15.9273 10.728 15.5819 11.036C15.2366 11.344 15.0639 11.7873 15.0639 12.366C15.0639 12.954 15.2319 13.402 15.5679 13.71C15.9133 14.0087 16.4079 14.158 17.0519 14.158ZM17.3319 16.426C16.3519 16.426 15.5866 16.552 15.0359 16.804C14.4853 17.0467 14.2099 17.3827 14.2099 17.812C14.2099 18.2227 14.4573 18.554 14.9519 18.806C15.4466 19.0673 16.1046 19.198 16.9259 19.198C17.7846 19.198 18.4706 19.0487 18.9839 18.75C19.5066 18.4513 19.7679 18.0687 19.7679 17.602C19.7679 17.21 19.5439 16.916 19.0959 16.72C18.6573 16.524 18.0693 16.426 17.3319 16.426Z" fill="#333333"/>
</svg>
