<svg width="24" height="24" viewBox="0 0 24 24" fill="none" xmlns="http://www.w3.org/2000/svg">
<path d="M12.112 16H9.984L9.592 13.9L9.522 13.648L5.882 13.676L5.812 13.9L5.406 16H3.516L4.216 13.9L6.036 7.6L6.512 5.5H9.06L9.522 7.6L11.412 13.9L12.112 16ZM9.046 11.982L7.674 7.264L6.344 12.01L9.046 11.982ZM19.8308 7.6L19.7048 9.686V14.712C19.7048 16.112 19.3081 17.1667 18.5148 17.876C17.7215 18.5947 16.5968 18.954 15.1408 18.954L14.3848 17.652L14.4828 17.54C15.1455 17.54 15.7428 17.442 16.2748 17.246C16.8161 17.05 17.2408 16.7747 17.5488 16.42C17.8568 16.0653 18.0108 15.6593 18.0108 15.202V15.048C17.8335 15.384 17.5628 15.6453 17.1988 15.832C16.8441 16.0187 16.4708 16.112 16.0788 16.112C15.1268 16.112 14.3848 15.7433 13.8528 15.006C13.3301 14.2593 13.0688 13.186 13.0688 11.786C13.0688 10.2927 13.3161 9.196 13.8108 8.496C14.3148 7.78667 15.0661 7.432 16.0648 7.432C16.4941 7.432 16.8815 7.48333 17.2268 7.586C17.5815 7.68867 17.8801 7.83333 18.1228 8.02L18.1928 7.6H19.8308ZM16.3868 14.488C16.7135 14.488 17.0215 14.446 17.3108 14.362C17.6095 14.2687 17.8428 14.1427 18.0108 13.984V9.336C17.6468 9.17733 17.1521 9.098 16.5268 9.098C16.0788 9.098 15.7335 9.17733 15.4908 9.336C15.2481 9.48533 15.0755 9.75133 14.9728 10.134C14.8701 10.5167 14.8188 11.0673 14.8188 11.786C14.8188 12.4673 14.8655 13.004 14.9588 13.396C15.0615 13.7787 15.2248 14.0587 15.4488 14.236C15.6821 14.404 15.9948 14.488 16.3868 14.488Z" fill="#333333"/>
</svg>
