<svg width="24" height="24" viewBox="0 0 24 24" fill="none" xmlns="http://www.w3.org/2000/svg">
<path d="M4.72546 17L4.79546 16.398L5.57946 16.216L9.40146 7.844H10.2135L11.7955 16.216L12.6495 16.398L12.5935 17H9.38746L9.44346 16.398L10.4235 16.216L10.1155 14.41H7.28746L6.50346 16.188L7.55346 16.398L7.48346 17H4.72546ZM7.65146 13.584H9.96146L9.38746 10.196L9.34546 9.776H9.30346L9.13546 10.196L7.65146 13.584ZM14.711 19.352C14.0296 19.352 13.507 19.24 13.143 19.016C12.779 18.792 12.597 18.4653 12.597 18.036C12.597 17.9333 12.6203 17.8167 12.667 17.686C12.7043 17.5647 12.7556 17.448 12.821 17.336C12.877 17.224 12.947 17.1213 13.031 17.028C13.115 16.944 13.1943 16.8833 13.269 16.846H13.829V18.148C13.9783 18.2693 14.2023 18.3673 14.501 18.442C14.7996 18.5167 15.0983 18.554 15.397 18.554C15.789 18.554 16.1016 18.442 16.335 18.218C16.5683 18.0033 16.7363 17.6627 16.839 17.196C16.9136 16.8133 16.9836 16.4727 17.049 16.174C17.1143 15.8753 17.175 15.6187 17.231 15.404C17.287 15.1893 17.343 15.0307 17.399 14.928L17.343 14.886C17.063 15.4087 16.7223 15.8193 16.321 16.118C15.929 16.4073 15.5276 16.552 15.117 16.552C14.5943 16.552 14.193 16.3653 13.913 15.992C13.6423 15.6187 13.507 15.0727 13.507 14.354C13.507 13.8033 13.591 13.262 13.759 12.73C13.9363 12.1887 14.1696 11.6987 14.459 11.26C14.7483 10.8213 15.0703 10.4713 15.425 10.21C15.789 9.94867 16.1576 9.818 16.531 9.818C16.8016 9.818 17.091 9.86 17.399 9.944C17.707 10.0187 17.9963 10.1307 18.267 10.28L18.617 9.762H19.317L18.155 16.692C18.0243 17.532 17.651 18.1853 17.035 18.652C16.4283 19.1187 15.6536 19.352 14.711 19.352ZM15.593 15.586C15.7983 15.586 16.0596 15.474 16.377 15.25C16.6943 15.026 17.007 14.732 17.315 14.368L17.833 11.414C17.553 11.2087 17.245 11.05 16.909 10.938C16.5823 10.826 16.307 10.77 16.083 10.77C15.9616 10.77 15.8776 10.7793 15.831 10.798C15.7936 10.8073 15.7516 10.84 15.705 10.896C15.593 11.0453 15.4856 11.2507 15.383 11.512C15.2896 11.764 15.201 12.044 15.117 12.352C15.0423 12.66 14.977 12.9727 14.921 13.29C14.8743 13.6073 14.851 13.906 14.851 14.186C14.851 14.6247 14.921 14.97 15.061 15.222C15.201 15.4647 15.3783 15.586 15.593 15.586Z" fill="#888888"/>
</svg>
