<svg width="24" height="24" viewBox="0 0 24 24" fill="none" xmlns="http://www.w3.org/2000/svg">
<path d="M3.71927 17L3.84527 16.09L4.62927 15.95L8.33927 7.816H9.89327L11.4893 15.922L12.4693 16.09L12.4133 17H8.32527L8.39527 16.09L9.30527 15.95L9.06727 14.592H6.50527L5.94527 15.922L7.05127 16.09L6.93927 17H3.71927ZM6.95327 13.57H8.89927L8.49327 10.518L8.47927 10.07H8.40927L8.26927 10.518L6.95327 13.57ZM14.166 19.436C13.41 19.436 12.836 19.31 12.444 19.058C12.0427 18.8153 11.842 18.4607 11.842 17.994C11.842 17.9007 11.8747 17.77 11.94 17.602C12.0053 17.4433 12.0847 17.28 12.178 17.112C12.2713 16.9533 12.36 16.8227 12.444 16.72C12.528 16.608 12.5887 16.5613 12.626 16.58H13.522V17.826C13.718 17.9473 13.9653 18.0453 14.264 18.12C14.5627 18.204 14.8427 18.246 15.104 18.246C15.44 18.246 15.6827 18.1807 15.832 18.05C15.9907 17.9193 16.1027 17.6767 16.168 17.322C16.2613 16.818 16.336 16.4213 16.392 16.132C16.4573 15.8333 16.5087 15.6047 16.546 15.446C16.5927 15.2873 16.6347 15.1567 16.672 15.054L16.616 15.012C16.196 15.5813 15.8227 15.9827 15.496 16.216C15.1693 16.44 14.824 16.552 14.46 16.552C13.9187 16.552 13.5127 16.37 13.242 16.006C12.9807 15.6327 12.85 15.0773 12.85 14.34C12.85 13.7613 12.934 13.2013 13.102 12.66C13.27 12.1187 13.4987 11.6333 13.788 11.204C14.0773 10.7747 14.3993 10.4387 14.754 10.196C15.118 9.944 15.496 9.818 15.888 9.818C16.1587 9.818 16.448 9.86 16.756 9.944C17.064 10.028 17.372 10.154 17.68 10.322L18.212 9.762H19.36L18.254 16.426C18.1047 17.3593 17.6613 18.092 16.924 18.624C16.196 19.1653 15.2767 19.436 14.166 19.436ZM15.258 15.138C15.4633 15.138 15.692 15.0353 15.944 14.83C16.2053 14.6153 16.4807 14.3027 16.77 13.892L17.134 11.89C16.8727 11.582 16.6113 11.358 16.35 11.218C16.0887 11.078 15.8693 11.008 15.692 11.008C15.608 11.008 15.5473 11.0127 15.51 11.022C15.482 11.022 15.454 11.0313 15.426 11.05C15.3513 11.2273 15.2813 11.428 15.216 11.652C15.1507 11.876 15.0947 12.1187 15.048 12.38C15.0013 12.632 14.964 12.9027 14.936 13.192C14.908 13.472 14.894 13.7613 14.894 14.06C14.894 14.48 14.9267 14.7647 14.992 14.914C15.0667 15.0633 15.1553 15.138 15.258 15.138Z" fill="#888888"/>
</svg>
