<svg width="24" height="24" viewBox="0 0 24 24" fill="none" xmlns="http://www.w3.org/2000/svg">
<path d="M4.50606 17L4.54806 16.552L5.31806 16.342L9.19606 7.858H9.64406L11.2121 16.37L11.9961 16.552L11.9541 17H9.19606L9.23806 16.552L10.2601 16.342L9.91006 14.312H6.94206L6.04606 16.328L7.06806 16.552L7.02606 17H4.50606ZM7.26406 13.598H9.77006L9.11206 10.042L9.04206 9.622H9.01406L8.84606 10.042L7.26406 13.598ZM14.2334 19.31C13.5894 19.31 13.0948 19.2027 12.7494 18.988C12.4041 18.7733 12.2314 18.4653 12.2314 18.064C12.2314 17.952 12.2454 17.84 12.2734 17.728C12.3014 17.6253 12.3388 17.5273 12.3854 17.434C12.4321 17.35 12.4928 17.266 12.5674 17.182C12.6514 17.1073 12.7401 17.0373 12.8334 16.972H13.2254V18.302C13.3561 18.4233 13.5708 18.5213 13.8694 18.596C14.1681 18.6707 14.4761 18.708 14.7934 18.708C15.2134 18.708 15.5588 18.5727 15.8294 18.302C16.1094 18.0407 16.3054 17.6533 16.4174 17.14C16.4921 16.8133 16.5621 16.5007 16.6274 16.202C16.6928 15.894 16.7581 15.6233 16.8234 15.39C16.8888 15.1473 16.9494 14.97 17.0054 14.858L16.9634 14.83C16.7488 15.3247 16.4268 15.7353 15.9974 16.062C15.5681 16.3887 15.1341 16.552 14.6954 16.552C14.1821 16.552 13.7854 16.3653 13.5054 15.992C13.2254 15.6093 13.0854 15.0633 13.0854 14.354C13.0854 13.822 13.1741 13.29 13.3514 12.758C13.5288 12.2167 13.7621 11.7267 14.0514 11.288C14.3408 10.84 14.6628 10.4853 15.0174 10.224C15.3721 9.95333 15.7314 9.818 16.0954 9.818C16.3661 9.818 16.6554 9.86 16.9634 9.944C17.2808 10.0187 17.5608 10.1213 17.8034 10.252L18.0694 9.762H18.5314L17.3554 16.832C17.2248 17.6253 16.8841 18.2367 16.3334 18.666C15.7921 19.0953 15.0921 19.31 14.2334 19.31ZM15.0034 15.81C15.2088 15.81 15.4841 15.698 15.8294 15.474C16.1841 15.2407 16.5201 14.956 16.8374 14.62L17.4254 11.176C17.1454 11.0267 16.8188 10.9053 16.4454 10.812C16.0814 10.7093 15.7734 10.658 15.5214 10.658C15.3908 10.658 15.2974 10.6673 15.2414 10.686C15.1948 10.7047 15.1434 10.7467 15.0874 10.812C14.9661 10.952 14.8448 11.1573 14.7234 11.428C14.6114 11.6987 14.5041 12.002 14.4014 12.338C14.3081 12.674 14.2288 13.01 14.1634 13.346C14.1074 13.682 14.0794 13.9853 14.0794 14.256C14.0794 14.704 14.1634 15.0773 14.3314 15.376C14.5088 15.6653 14.7328 15.81 15.0034 15.81Z" fill="#888888"/>
</svg>
