<svg width="24" height="24" viewBox="0 0 24 24" fill="none" xmlns="http://www.w3.org/2000/svg">
<path d="M10.7551 7.256L9.27109 7.214C8.36576 7.214 7.74043 7.312 7.39509 7.508C7.24576 7.592 7.08243 7.718 6.90509 7.886C6.73709 8.054 6.60643 8.25933 6.51309 8.502C6.28909 9.08067 6.17709 9.804 6.17709 10.672C5.88776 10.868 5.56576 11.12 5.21109 11.428C5.21109 9.62667 5.80376 8.24067 6.98909 7.27C7.67976 6.71 8.63643 6.43 9.85909 6.43C9.88709 6.43 10.6571 6.472 12.1691 6.556C11.8984 7.09733 11.7631 8.6 11.7631 11.064C11.7631 13.192 11.8051 14.522 11.8891 15.054C11.9824 15.5767 12.0758 15.9033 12.1691 16.034C12.2718 16.1647 12.4398 16.23 12.6731 16.23C12.9064 16.23 13.2424 16.0993 13.6811 15.838L13.7371 15.95C13.2331 16.398 12.6871 16.7993 12.0991 17.154C11.6791 17.154 11.3898 16.9953 11.2311 16.678C11.1378 16.4913 11.0631 16.314 11.0071 16.146C10.9511 15.978 10.9044 15.7073 10.8671 15.334C10.8298 14.83 10.8018 14.102 10.7831 13.15H8.23509C8.16976 13.2713 8.06709 13.4813 7.92709 13.78C7.62843 14.368 7.39976 14.7693 7.24109 14.984C6.20509 16.4027 5.09443 17.112 3.90909 17.112H3.04109L3.69909 16.216C4.03509 16.3 4.39443 16.342 4.77709 16.342C5.16909 16.342 5.47243 16.2533 5.68709 16.076C5.91109 15.8987 6.18176 15.544 6.49909 15.012C6.81643 14.48 7.49309 13.2293 8.52909 11.26C9.56509 9.29067 10.3071 7.956 10.7551 7.256ZM10.7691 12.464C10.7598 12.1187 10.7551 11.6613 10.7551 11.092C10.7551 10.5227 10.7598 9.94867 10.7691 9.37C10.7784 8.782 10.7831 8.474 10.7831 8.446C10.5031 8.95 10.1204 9.66867 9.63509 10.602C9.15909 11.5353 8.83709 12.156 8.66909 12.464H10.7691ZM17.039 10.7C16.4043 10.7 15.961 10.868 15.709 11.204C15.4663 11.5307 15.289 12.1793 15.177 13.15C15.0743 14.1207 15.023 14.7927 15.023 15.166C15.023 15.53 15.0697 15.852 15.163 16.132C16.4137 14.8067 17.3377 13.0427 17.935 10.84C17.7297 10.7467 17.431 10.7 17.039 10.7ZM17.557 9.986H18.831C18.7657 10.462 18.6537 11.358 18.495 12.674C18.3363 13.99 18.1963 15.082 18.075 15.95C17.8977 17.2473 17.5103 18.246 16.913 18.946C16.325 19.6553 15.5223 20.01 14.505 20.01C14.1223 20.01 13.763 19.968 13.427 19.884L13.973 19.03C14.3743 19.1513 14.7523 19.212 15.107 19.212C15.7697 19.212 16.241 19.0767 16.521 18.806C16.801 18.5447 17.0063 17.9053 17.137 16.888C17.4543 14.3867 17.6457 13.08 17.711 12.968L17.669 12.94C17.641 12.9867 17.5337 13.1687 17.347 13.486C17.1603 13.8033 17.025 14.032 16.941 14.172C16.857 14.3027 16.717 14.5173 16.521 14.816C16.3343 15.1147 16.171 15.3527 16.031 15.53C15.891 15.7073 15.723 15.908 15.527 16.132C15.1537 16.58 14.7663 16.9067 14.365 17.112C14.1783 16.7107 14.085 16.1787 14.085 15.516C14.085 14.844 14.197 14.0413 14.421 13.108C14.925 11.0267 15.9703 9.986 17.557 9.986Z" fill="#888888"/>
</svg>
