<svg width="24" height="24" viewBox="0 0 24 24" fill="none" xmlns="http://www.w3.org/2000/svg">
<path d="M9.9881 14.718L9.9041 14.676C9.5121 14.5733 9.09677 14.508 8.6581 14.48C8.21944 14.452 7.77144 14.3913 7.3141 14.298C7.7621 14.3913 8.20077 14.466 8.6301 14.522C9.05943 14.5687 9.4841 14.662 9.9041 14.802C9.77344 14.886 9.63344 14.928 9.4841 14.928C9.30677 14.9093 9.12944 14.8813 8.9521 14.844C8.7841 14.8067 8.6021 14.7787 8.4061 14.76C8.4061 14.704 8.4201 14.662 8.4481 14.634C8.17744 14.634 7.90677 14.606 7.6361 14.55C7.37477 14.494 7.1181 14.4333 6.8661 14.368C6.6141 14.2933 6.36677 14.228 6.1241 14.172C5.89077 14.1067 5.67144 14.074 5.4661 14.074C5.4661 14.102 5.46144 14.116 5.4521 14.116C5.69477 14.1627 5.92344 14.228 6.1381 14.312C6.35277 14.396 6.59544 14.4613 6.8661 14.508C7.12744 14.5733 7.37944 14.62 7.6221 14.648C7.8741 14.676 8.12144 14.7133 8.3641 14.76C7.9721 14.7227 7.57077 14.6667 7.1601 14.592C6.75877 14.5173 6.3621 14.4333 5.9701 14.34L5.3121 14.172C5.07877 14.7693 4.84077 15.3573 4.5981 15.936C4.36477 16.5053 4.1361 17.084 3.9121 17.672C3.89343 17.6347 3.86077 17.6113 3.8141 17.602C3.77677 17.602 3.73477 17.602 3.6881 17.602C3.65077 17.602 3.61343 17.588 3.5761 17.56C3.53877 17.5413 3.5201 17.4947 3.5201 17.42C3.5201 17.3453 3.53877 17.238 3.5761 17.098C3.61343 16.9673 3.68343 16.79 3.7861 16.566C3.76744 16.5473 3.73477 16.538 3.6881 16.538C3.65077 16.5287 3.62277 16.524 3.6041 16.524C3.41743 16.916 3.23543 17.2147 3.0581 17.42C2.8901 17.6347 2.75477 17.742 2.6521 17.742C2.5401 17.742 2.4841 17.6347 2.4841 17.42C2.4841 17.2427 2.51677 17.0187 2.5821 16.748C2.64743 16.468 2.72677 16.1693 2.8201 15.852C2.92277 15.5347 3.03477 15.208 3.1561 14.872C3.27743 14.5267 3.3941 14.1907 3.5061 13.864C3.40343 13.7987 3.29143 13.752 3.1701 13.724C3.0581 13.696 2.9321 13.6727 2.7921 13.654C2.8201 13.6167 2.8341 13.57 2.8341 13.514C2.8341 13.458 2.83877 13.402 2.8481 13.346C2.85743 13.29 2.8761 13.2433 2.9041 13.206C2.9321 13.1687 2.98343 13.15 3.0581 13.15C3.07677 13.15 3.13277 13.1593 3.2261 13.178V13.052C3.07677 12.9773 2.9601 12.8887 2.8761 12.786C2.80143 12.6833 2.7641 12.5807 2.7641 12.478C2.7641 12.254 2.97877 12.142 3.4081 12.142C3.52943 12.142 3.65077 12.1513 3.7721 12.17C3.90277 12.1793 4.03343 12.1933 4.1641 12.212L4.8081 10.742C4.9481 10.4247 5.09743 10.098 5.2561 9.762C5.4241 9.426 5.6201 9.09467 5.8441 8.768C6.0681 8.44133 6.3201 8.13333 6.6001 7.844C6.88944 7.54533 7.22077 7.27933 7.5941 7.046L7.8041 6.962C8.06544 7.02733 8.27544 7.08333 8.4341 7.13C8.6021 7.16733 8.73744 7.19533 8.8401 7.214C8.93344 7.25133 9.0081 7.27467 9.0641 7.284H9.0501L9.0641 7.326C9.0641 7.33533 9.05944 7.34467 9.0501 7.354L9.2181 7.648C9.82477 8.66533 10.3381 9.72 10.7581 10.812C11.1781 11.904 11.5374 12.9773 11.8361 14.032C11.9108 14.2653 11.9994 14.5173 12.1021 14.788C12.2141 15.0493 12.3168 15.3013 12.4101 15.544C12.5128 15.7773 12.5968 15.992 12.6621 16.188C12.7274 16.3747 12.7601 16.51 12.7601 16.594C12.7601 16.6593 12.7461 16.7013 12.7181 16.72C12.6901 16.7293 12.6528 16.734 12.6061 16.734C12.3634 16.1273 12.1348 15.53 11.9201 14.942C11.7054 14.3633 11.4954 13.78 11.2901 13.192C11.4768 13.78 11.6728 14.3633 11.8781 14.942C12.0928 15.53 12.3074 16.1273 12.5221 16.734H12.4241C12.3681 16.734 12.3308 16.762 12.3121 16.818C12.3308 16.8367 12.3541 16.888 12.3821 16.972C12.4101 17.0467 12.4381 17.126 12.4661 17.21C12.4941 17.3033 12.5174 17.3967 12.5361 17.49C12.5548 17.5833 12.5641 17.6533 12.5641 17.7C12.5641 17.9053 12.5034 18.008 12.3821 18.008C12.3168 18.008 12.2654 17.994 12.2281 17.966C12.1908 17.938 12.1488 17.9007 12.1021 17.854L11.9621 17.714C11.9061 17.658 11.8361 17.602 11.7521 17.546L10.4081 13.682C10.6041 14.2887 10.7954 14.8953 10.9821 15.502C11.1781 16.1087 11.3788 16.706 11.5841 17.294C11.4348 17.1167 11.2948 16.902 11.1641 16.65C11.0428 16.398 10.9261 16.132 10.8141 15.852C10.7114 15.572 10.6134 15.2873 10.5201 14.998C10.4268 14.6993 10.3334 14.4193 10.2401 14.158C10.2401 14.1767 10.2401 14.1953 10.2401 14.214C10.2494 14.2233 10.2541 14.2373 10.2541 14.256C10.2541 14.4053 10.2074 14.5173 10.1141 14.592L9.9881 14.718ZM9.9041 13.262C9.92277 13.262 9.95077 13.2573 9.9881 13.248C10.0254 13.2293 10.0534 13.22 10.0721 13.22C9.7641 12.4453 9.4561 11.694 9.1481 10.966C8.84944 10.238 8.5181 9.538 8.1541 8.866L8.0701 8.95L8.2801 9.328C8.60677 9.92533 8.90077 10.5413 9.1621 11.176C9.42344 11.8107 9.67077 12.464 9.9041 13.136C9.63344 12.408 9.33944 11.6847 9.0221 10.966C8.7141 10.238 8.38277 9.58 8.0281 8.992L7.9721 9.02C7.65477 9.34667 7.3561 9.73867 7.0761 10.196C6.80544 10.6533 6.54877 11.12 6.3061 11.596L5.9421 12.478L6.1801 12.534C6.3201 12.5713 6.45544 12.6133 6.5861 12.66C6.7261 12.6973 6.84744 12.7393 6.9501 12.786C7.15544 12.8887 7.4261 12.968 7.7621 13.024C8.0981 13.08 8.42477 13.136 8.7421 13.192C9.06877 13.2387 9.34877 13.2947 9.5821 13.36C9.82477 13.416 9.9461 13.5 9.9461 13.612L8.2381 13.416C8.34077 13.4347 8.46677 13.458 8.6161 13.486C8.76544 13.5047 8.91477 13.528 9.0641 13.556C9.22277 13.584 9.37677 13.612 9.5261 13.64C9.67544 13.6587 9.80144 13.6773 9.9041 13.696C9.9041 13.724 9.89944 13.752 9.8901 13.78C9.8901 13.7987 9.8901 13.8173 9.8901 13.836C9.8901 13.8547 9.89944 13.8687 9.9181 13.878C9.9461 13.878 9.9741 13.8827 10.0021 13.892C10.0394 13.892 10.0721 13.9013 10.1001 13.92C10.1281 13.9293 10.1561 13.9573 10.1841 14.004L9.9041 13.262ZM6.8661 10.266C6.88477 10.266 6.88944 10.28 6.8801 10.308C6.8801 10.3267 6.88477 10.336 6.8941 10.336C6.91277 10.336 6.96877 10.2707 7.0621 10.14C7.15544 10.0093 7.26277 9.86 7.3841 9.692C7.50544 9.524 7.6221 9.36533 7.7341 9.216C7.8461 9.06667 7.92544 8.96867 7.9721 8.922L7.9021 8.824C7.7061 9.01067 7.5241 9.23 7.3561 9.482C7.1881 9.734 7.02477 9.99533 6.8661 10.266ZM8.2801 8.754C8.57877 9.258 8.8541 9.78533 9.1061 10.336C9.34877 10.8773 9.57744 11.4187 9.7921 11.96C9.61477 11.4187 9.4001 10.8773 9.1481 10.336C8.88677 9.78533 8.6021 9.258 8.2941 8.754H8.2801ZM10.4221 10.854C10.7114 11.6007 10.9961 12.3613 11.2761 13.136C11.0148 12.38 10.7394 11.6333 10.4501 10.896C10.1794 10.168 9.86677 9.43533 9.5121 8.698C9.8481 9.40733 10.1514 10.126 10.4221 10.854ZM8.3641 8.446C8.48544 8.474 8.56944 8.502 8.6161 8.53C8.66277 8.558 8.69544 8.572 8.7141 8.572L8.7281 8.53C8.73744 8.53 8.71877 8.52533 8.6721 8.516C8.62544 8.50667 8.5881 8.49733 8.5601 8.488L8.5881 8.432L8.4201 8.376L8.3641 8.446ZM7.6781 8.306L7.7901 8.6L7.7761 8.306C7.75744 8.306 7.7341 8.30133 7.7061 8.292C7.68744 8.28267 7.66877 8.278 7.6501 8.278L7.6781 8.306ZM8.0421 8.712L7.9441 8.782L8.0281 8.894L8.1121 8.81L8.0421 8.712ZM8.2381 8.684H8.2521L8.1821 8.586V8.6L8.2381 8.684ZM19.2619 12.072V12.044L18.8979 11.932L19.1359 11.526L20.7739 12.03C20.7739 12.338 20.7879 12.6553 20.8159 12.982C20.8532 13.2993 20.8906 13.626 20.9279 13.962C20.9746 14.298 21.0119 14.6433 21.0399 14.998C21.0772 15.3433 21.0959 15.6933 21.0959 16.048C21.0959 16.524 21.0539 17.0047 20.9699 17.49C20.8859 17.9753 20.7459 18.4373 20.5499 18.876C20.3632 19.3147 20.1112 19.7207 19.7939 20.094C19.4859 20.4673 19.0986 20.7753 18.6319 21.018C18.3799 21.186 18.0532 21.34 17.6519 21.48C17.2599 21.6293 16.8726 21.7133 16.4899 21.732H16.3219C15.9486 21.732 15.6359 21.69 15.3839 21.606C15.1319 21.5313 14.9312 21.4427 14.7819 21.34C14.6326 21.2467 14.5252 21.1533 14.4599 21.06C14.4039 20.976 14.3759 20.9247 14.3759 20.906C14.3759 20.8687 14.3946 20.85 14.4319 20.85C14.7212 21.0647 15.0339 21.2187 15.3699 21.312C15.7059 21.4053 16.0419 21.452 16.3779 21.452C16.9472 21.452 17.4746 21.34 17.9599 21.116C18.4266 20.892 18.8466 20.612 19.2199 20.276C18.8466 20.6027 18.4219 20.8733 17.9459 21.088C17.4606 21.3027 16.9426 21.41 16.3919 21.41C16.0652 21.41 15.7432 21.3633 15.4259 21.27C15.1179 21.1767 14.8286 21.0227 14.5579 20.808C14.5859 20.808 14.6186 20.7987 14.6559 20.78C14.6932 20.7707 14.7119 20.7473 14.7119 20.71L14.5999 20.612C14.5346 20.5467 14.4552 20.4627 14.3619 20.36C14.2779 20.2573 14.1986 20.136 14.1239 19.996C14.0586 19.856 14.0259 19.7067 14.0259 19.548C14.0259 19.3893 14.0866 19.31 14.2079 19.31C14.3012 19.31 14.4086 19.3707 14.5299 19.492C14.6512 19.6133 14.7959 19.744 14.9639 19.884C15.1319 20.0333 15.3326 20.1687 15.5659 20.29C15.8086 20.4113 16.0932 20.472 16.4199 20.472C16.8866 20.472 17.3066 20.3787 17.6799 20.192C18.0532 20.0147 18.3799 19.7673 18.6599 19.45C18.3892 19.7487 18.0719 19.982 17.7079 20.15C17.3532 20.318 16.9472 20.402 16.4899 20.402C16.2099 20.402 15.9439 20.3553 15.6919 20.262C15.4492 20.1687 15.2532 20.0427 15.1039 19.884C15.2626 19.9307 15.4586 19.982 15.6919 20.038C15.9346 20.094 16.1959 20.122 16.4759 20.122C16.9799 20.122 17.4232 19.9913 17.8059 19.73C18.1979 19.478 18.5339 19.156 18.8139 18.764L19.0099 18.792C19.2246 18.4187 19.3739 18.0173 19.4579 17.588C19.5512 17.168 19.5979 16.7247 19.5979 16.258C19.5979 15.9407 19.5839 15.6187 19.5559 15.292C19.5279 14.9653 19.4906 14.634 19.4439 14.298L19.3739 14.396C19.4206 14.7227 19.4532 15.0447 19.4719 15.362C19.4999 15.67 19.5139 15.9733 19.5139 16.272C19.5139 16.6453 19.4766 17.014 19.4019 17.378C19.3272 17.7513 19.2106 18.092 19.0519 18.4C19.2106 18.0733 19.3226 17.7233 19.3879 17.35C19.4532 16.986 19.4859 16.594 19.4859 16.174C19.4392 15.9313 19.4159 15.6887 19.4159 15.446C19.4159 15.2033 19.4066 14.9607 19.3879 14.718L19.3599 14.438C19.2946 14.5313 19.1966 14.662 19.0659 14.83C18.9352 14.998 18.7812 15.166 18.6039 15.334C18.4266 15.4927 18.2259 15.6327 18.0019 15.754C17.7872 15.8753 17.5586 15.936 17.3159 15.936L16.9659 15.978C16.4712 15.978 16.0279 15.852 15.6359 15.6C15.2439 15.348 14.9079 15.0307 14.6279 14.648C14.3479 14.256 14.1332 13.8313 13.9839 13.374C13.8346 12.9073 13.7599 12.4593 13.7599 12.03C13.7506 11.9833 13.7459 11.946 13.7459 11.918V11.792C13.7459 11.2227 13.8486 10.7327 14.0539 10.322C14.2592 9.902 14.5392 9.56133 14.8939 9.3C15.2579 9.03867 15.6826 8.84733 16.1679 8.726C16.6532 8.59533 17.1759 8.53 17.7359 8.53C18.3892 8.53 19.0519 8.61867 19.7239 8.796C19.6679 8.81467 19.6399 8.84733 19.6399 8.894C19.6399 8.93133 19.6446 8.96867 19.6539 9.006C19.6726 9.034 19.6819 9.06667 19.6819 9.104V9.132C19.6539 9.17867 19.5886 9.202 19.4859 9.202C19.3832 9.202 19.2339 9.188 19.0379 9.16C18.8419 9.132 18.5666 9.09467 18.2119 9.048V9.216C18.5292 9.25333 18.7999 9.314 19.0239 9.398C19.2479 9.47267 19.4299 9.55667 19.5699 9.65C19.7099 9.74333 19.8079 9.832 19.8639 9.916C19.9292 10 19.9619 10.07 19.9619 10.126C19.9619 10.1633 19.9386 10.1913 19.8919 10.21C19.8546 10.2193 19.8126 10.224 19.7659 10.224C19.6632 10.224 19.4766 10.2053 19.2059 10.168C18.9446 10.1307 18.6132 10.112 18.2119 10.112C17.8292 10.112 17.4699 10.1353 17.1339 10.182C16.7979 10.2287 16.5039 10.3173 16.2519 10.448C16.0092 10.5787 15.8179 10.7607 15.6779 10.994C15.5379 11.2273 15.4679 11.5307 15.4679 11.904C15.4679 12.212 15.5146 12.506 15.6079 12.786C15.7106 13.066 15.8319 13.3133 15.9719 13.528C16.1212 13.7427 16.2846 13.9153 16.4619 14.046C16.6392 14.1673 16.8119 14.228 16.9799 14.228C17.0919 14.228 17.2272 14.1487 17.3859 13.99C17.5539 13.8313 17.7266 13.6353 17.9039 13.402C18.0906 13.1687 18.2679 12.9213 18.4359 12.66C18.6039 12.3987 18.7486 12.1653 18.8699 11.96L19.2619 12.072ZM18.7579 14.886C18.6646 14.9793 18.5619 15.082 18.4499 15.194C18.3379 15.2967 18.2119 15.3947 18.0719 15.488C17.9412 15.572 17.7919 15.6513 17.6239 15.726C17.4559 15.7913 17.2739 15.8333 17.0779 15.852L17.1759 15.894C17.4559 15.8567 17.7126 15.7773 17.9459 15.656C18.1792 15.5253 18.3846 15.376 18.5619 15.208C18.7486 15.04 18.9119 14.8673 19.0519 14.69C19.1919 14.5127 19.3132 14.3587 19.4159 14.228L19.3879 14.06C19.3039 14.1813 19.2012 14.3167 19.0799 14.466C18.9679 14.6153 18.8606 14.7553 18.7579 14.886ZM19.7799 16.244C19.7799 16.6547 19.7379 17.056 19.6539 17.448C19.5699 17.8213 19.4532 18.1713 19.3039 18.498C19.4626 18.162 19.5886 17.7933 19.6819 17.392C19.7846 16.9813 19.8359 16.5613 19.8359 16.132C19.8359 15.9173 19.8266 15.698 19.8079 15.474C19.7986 15.25 19.7846 15.026 19.7659 14.802L19.6959 13.976L19.6259 14.06C19.6632 14.424 19.6959 14.788 19.7239 15.152C19.7612 15.516 19.7799 15.88 19.7799 16.244ZM20.8159 16.16C20.8159 15.6653 20.7926 15.1847 20.7459 14.718C20.7086 14.2513 20.6619 13.7893 20.6059 13.332C20.6432 13.7613 20.6852 14.1907 20.7319 14.62C20.7786 15.04 20.8019 15.474 20.8019 15.922C20.8019 16.23 20.7832 16.5567 20.7459 16.902C20.7179 17.238 20.6619 17.574 20.5779 17.91C20.4939 18.246 20.3772 18.5727 20.2279 18.89C20.0879 19.1887 19.9106 19.4687 19.6959 19.73C20.0692 19.3007 20.3352 18.8153 20.4939 18.274C20.6619 17.714 20.7692 17.1587 20.8159 16.608V16.16Z" fill="#333333"/>
</svg>
