<svg width="24" height="24" viewBox="0 0 24 24" fill="none" xmlns="http://www.w3.org/2000/svg">
<path d="M9.31447 14.431H5.21247L4.36547 17H3.52547L6.71047 7.382H7.89347L11.0855 17H10.1615L9.31447 14.431ZM5.51347 13.619H9.02047L7.27747 8.215L5.51347 13.619ZM18.843 8.985L19.165 9.937C18.8337 10.0303 18.4907 10.0863 18.136 10.105C17.7813 10.1237 17.4033 10.133 17.002 10.133C17.4173 10.3243 17.7277 10.5787 17.933 10.896C18.1383 11.2087 18.241 11.5657 18.241 11.967C18.241 12.6997 18.0077 13.3017 17.541 13.773C17.079 14.2443 16.4257 14.48 15.581 14.48C15.3057 14.48 15.0817 14.4683 14.909 14.445C14.7363 14.417 14.5683 14.375 14.405 14.319C14.2883 14.4077 14.188 14.5243 14.104 14.669C14.0247 14.8137 13.985 14.9653 13.985 15.124C13.985 15.3153 14.0597 15.474 14.209 15.6C14.363 15.726 14.6337 15.789 15.021 15.789H16.379C16.8503 15.789 17.2773 15.8753 17.66 16.048C18.0473 16.2207 18.353 16.454 18.577 16.748C18.8057 17.042 18.92 17.3733 18.92 17.742C18.92 18.456 18.619 18.9973 18.017 19.366C17.4197 19.7393 16.5913 19.926 15.532 19.926C14.4307 19.926 13.6607 19.7533 13.222 19.408C12.7833 19.0627 12.564 18.512 12.564 17.756H13.362C13.362 18.064 13.4203 18.3183 13.537 18.519C13.6583 18.7197 13.873 18.869 14.181 18.967C14.489 19.0697 14.93 19.121 15.504 19.121C17.184 19.121 18.024 18.68 18.024 17.798C18.024 17.4107 17.8443 17.1213 17.485 16.93C17.1257 16.7387 16.694 16.643 16.19 16.643H14.832C14.244 16.643 13.81 16.5053 13.53 16.23C13.25 15.9547 13.11 15.6397 13.11 15.285C13.11 14.8043 13.376 14.3867 13.908 14.032C13.1007 13.6073 12.697 12.9377 12.697 12.023C12.697 11.5423 12.816 11.113 13.054 10.735C13.292 10.357 13.6233 10.0583 14.048 9.839C14.4727 9.61967 14.965 9.51 15.525 9.51C16.1643 9.50067 16.673 9.47733 17.051 9.44C17.4337 9.398 17.7557 9.33967 18.017 9.265C18.283 9.19033 18.5583 9.097 18.843 8.985ZM15.504 10.196C14.8413 10.196 14.356 10.371 14.048 10.721C13.7447 11.071 13.593 11.5097 13.593 12.037C13.593 12.5597 13.7493 12.9983 14.062 13.353C14.3747 13.703 14.8693 13.878 15.546 13.878C16.1107 13.878 16.5423 13.7147 16.841 13.388C17.1397 13.0613 17.289 12.6087 17.289 12.03C17.289 11.4327 17.1397 10.9777 16.841 10.665C16.5423 10.3523 16.0967 10.196 15.504 10.196Z" fill="#333333"/>
</svg>
