<svg width="24" height="24" viewBox="0 0 24 24" fill="none" xmlns="http://www.w3.org/2000/svg">
<path d="M8.95709 17L8.71909 14.83H5.70909L4.86909 17H2.75509L7.05309 7.312H9.53109L11.0991 17H8.95709ZM6.29709 13.304H8.55109L8.06109 8.74L6.29709 13.304ZM16.1972 9.356C17.2332 9.356 18.2132 9.60333 19.1372 10.098L18.1992 16.524C18.0125 17.784 17.6112 18.694 16.9952 19.254C16.3885 19.814 15.5252 20.094 14.4052 20.094C13.9572 20.094 13.4858 20.024 12.9912 19.884C12.5058 19.744 12.0672 19.5527 11.6752 19.31L12.3472 17.966C13.0565 18.358 13.7285 18.554 14.3632 18.554C14.8672 18.554 15.2825 18.428 15.6092 18.176C15.9358 17.9333 16.1505 17.462 16.2532 16.762L16.3652 15.992C16.0945 16.3 15.7912 16.5473 15.4552 16.734C15.1192 16.9113 14.7552 17 14.3632 17C13.5978 17 13.0005 16.7433 12.5712 16.23C12.1512 15.7073 11.9412 15.012 11.9412 14.144C11.9412 13.3787 12.0858 12.632 12.3752 11.904C12.6738 11.1667 13.1405 10.56 13.7752 10.084C14.4098 9.59867 15.2172 9.356 16.1972 9.356ZM16.1552 10.798C15.6605 10.798 15.2498 10.966 14.9232 11.302C14.5965 11.638 14.3585 12.058 14.2092 12.562C14.0598 13.066 13.9852 13.5793 13.9852 14.102C13.9852 15.0353 14.3118 15.502 14.9652 15.502C15.4878 15.502 16.0152 15.1333 16.5472 14.396L17.0792 10.966C16.7898 10.854 16.4818 10.798 16.1552 10.798Z" fill="#333333"/>
</svg>
