<svg width="24" height="24" viewBox="0 0 24 24" fill="none" xmlns="http://www.w3.org/2000/svg">
<path d="M10.0056 17L9.47361 14.746H6.67361L6.14161 17H4.30761L6.99561 7.326H9.20761L11.8816 17H10.0056ZM6.98161 13.374H9.16561L8.07361 8.712L6.98161 13.374ZM18.6598 9.972C18.2305 10.1493 17.5911 10.238 16.7418 10.238C17.1618 10.4247 17.4745 10.6767 17.6798 10.994C17.8851 11.302 17.9878 11.68 17.9878 12.128C17.9878 12.8747 17.7405 13.4767 17.2458 13.934C16.7511 14.3913 16.0838 14.62 15.2438 14.62C14.9358 14.62 14.6745 14.5827 14.4598 14.508C14.3758 14.5733 14.3058 14.6573 14.2498 14.76C14.2031 14.8533 14.1798 14.956 14.1798 15.068C14.1798 15.236 14.2358 15.3713 14.3478 15.474C14.4691 15.5673 14.6791 15.614 14.9778 15.614H15.9158C16.6998 15.614 17.3205 15.81 17.7778 16.202C18.2351 16.594 18.4638 17.0933 18.4638 17.7C18.4638 18.4187 18.1745 18.988 17.5958 19.408C17.0171 19.828 16.1818 20.038 15.0898 20.038C13.9418 20.038 13.1345 19.842 12.6678 19.45C12.2105 19.0673 11.9818 18.4933 11.9818 17.728H13.5498C13.5498 18.12 13.6571 18.4 13.8718 18.568C14.0865 18.736 14.4971 18.82 15.1038 18.82C15.6918 18.82 16.1071 18.7313 16.3498 18.554C16.5925 18.386 16.7138 18.1387 16.7138 17.812C16.7138 17.2053 16.3265 16.902 15.5518 16.902H14.7678C14.0585 16.902 13.5358 16.7713 13.1998 16.51C12.8638 16.2487 12.6958 15.908 12.6958 15.488C12.6958 15.2267 12.7658 14.9793 12.9058 14.746C13.0458 14.5127 13.2418 14.312 13.4938 14.144C13.0831 13.9013 12.7798 13.612 12.5838 13.276C12.3971 12.94 12.3038 12.5293 12.3038 12.044C12.3038 11.2413 12.5605 10.602 13.0738 10.126C13.5965 9.64067 14.2825 9.398 15.1318 9.398C15.8318 9.398 16.3965 9.33267 16.8258 9.202C17.2645 9.07133 17.7265 8.87067 18.2118 8.6L18.6598 9.972ZM15.1598 10.574C14.7958 10.574 14.5158 10.6953 14.3198 10.938C14.1331 11.1807 14.0398 11.54 14.0398 12.016C14.0398 12.4827 14.1378 12.8467 14.3338 13.108C14.5298 13.36 14.8051 13.486 15.1598 13.486C15.5425 13.486 15.8271 13.3693 16.0138 13.136C16.2005 12.8933 16.2938 12.5153 16.2938 12.002C16.2938 11.05 15.9158 10.574 15.1598 10.574Z" fill="#888888"/>
</svg>
