<svg width="24" height="24" viewBox="0 0 24 24" fill="none" xmlns="http://www.w3.org/2000/svg">
<path d="M10.4436 17L10.1496 14.368H6.98565L5.94965 17H5.10965L9.02965 7.41H10.0656L11.2976 17H10.4436ZM7.25165 13.682H10.0796L9.44965 8.082L7.25165 13.682ZM16.1219 9.524C16.7565 9.524 17.3725 9.70133 17.9699 10.056L16.9899 17.042C16.7285 18.9367 15.8372 19.884 14.3159 19.884C13.9612 19.884 13.6112 19.8233 13.2659 19.702C12.9205 19.5807 12.6125 19.4173 12.3419 19.212L12.6779 18.666C13.1819 19.0207 13.7325 19.198 14.3299 19.198C15.4032 19.198 16.0332 18.4747 16.2199 17.028L16.3879 15.824C16.1265 16.1973 15.8465 16.4867 15.5479 16.692C15.2585 16.8973 14.9225 17 14.5399 17C13.9519 17 13.4899 16.776 13.1539 16.328C12.8272 15.88 12.6639 15.2733 12.6639 14.508C12.6639 13.724 12.7852 12.9493 13.0279 12.184C13.2799 11.4187 13.6625 10.784 14.1759 10.28C14.6985 9.776 15.3472 9.524 16.1219 9.524ZM16.0939 10.168C15.5152 10.168 15.0252 10.3873 14.6239 10.826C14.2319 11.2647 13.9379 11.8153 13.7419 12.478C13.5552 13.1407 13.4619 13.808 13.4619 14.48C13.4619 15.0867 13.5645 15.5487 13.7699 15.866C13.9752 16.1833 14.2739 16.342 14.6659 16.342C15.3005 16.342 15.9119 15.8567 16.4999 14.886L17.1439 10.406C16.7892 10.2473 16.4392 10.168 16.0939 10.168Z" fill="#888888"/>
</svg>
