<svg width="24" height="24" viewBox="0 0 24 24" fill="none" xmlns="http://www.w3.org/2000/svg">
<path d="M11.7675 17L10.8995 14.158H6.92347L6.05547 17H5.74747L8.71547 7.466H9.10747L12.0895 17H11.7675ZM7.02147 13.864H10.8015L8.91147 7.718L7.02147 13.864ZM18.4285 9.636C17.9805 9.76667 17.3365 9.83667 16.4965 9.846C16.9165 9.99533 17.2385 10.252 17.4625 10.616C17.6958 10.98 17.8125 11.4467 17.8125 12.016C17.8125 12.744 17.6118 13.3133 17.2105 13.724C16.8092 14.1347 16.2632 14.34 15.5725 14.34C15.2738 14.34 14.9612 14.2747 14.6345 14.144C14.2052 14.424 13.9905 14.774 13.9905 15.194C13.9905 15.81 14.4292 16.118 15.3065 16.118H16.2445C16.8885 16.118 17.3878 16.272 17.7425 16.58C18.0972 16.8787 18.2745 17.2847 18.2745 17.798C18.2745 18.4047 18.0505 18.8807 17.6025 19.226C17.1638 19.5807 16.5105 19.758 15.6425 19.758C14.7185 19.758 14.0512 19.604 13.6405 19.296C13.2298 18.9973 13.0245 18.5027 13.0245 17.812H13.3185C13.3372 18.4187 13.5192 18.8433 13.8645 19.086C14.2098 19.338 14.8025 19.464 15.6425 19.464C16.4265 19.464 17.0052 19.3193 17.3785 19.03C17.7612 18.7407 17.9525 18.3347 17.9525 17.812C17.9525 17.364 17.8032 17.0187 17.5045 16.776C17.2058 16.524 16.7812 16.398 16.2305 16.398H15.2785C14.7558 16.398 14.3592 16.2953 14.0885 16.09C13.8178 15.8753 13.6825 15.5907 13.6825 15.236C13.6825 14.7693 13.9205 14.368 14.3965 14.032C13.6592 13.6213 13.2905 12.94 13.2905 11.988C13.2905 11.2507 13.4958 10.6673 13.9065 10.238C14.3172 9.80867 14.8678 9.594 15.5585 9.594C16.4172 9.594 17.0145 9.57533 17.3505 9.538C17.6865 9.49133 18.0132 9.412 18.3305 9.3L18.4285 9.636ZM15.5585 9.874C14.9332 9.874 14.4525 10.0653 14.1165 10.448C13.7805 10.8213 13.6125 11.3347 13.6125 11.988C13.6125 12.6507 13.7945 13.164 14.1585 13.528C14.5318 13.8827 15.0032 14.06 15.5725 14.06C16.1792 14.06 16.6505 13.8873 16.9865 13.542C17.3225 13.1873 17.4905 12.6787 17.4905 12.016C17.4905 11.344 17.3178 10.8213 16.9725 10.448C16.6365 10.0653 16.1652 9.874 15.5585 9.874Z" fill="#888888"/>
</svg>
