<svg width="24" height="24" viewBox="0 0 24 24" fill="none" xmlns="http://www.w3.org/2000/svg">
<path d="M11.4898 17L10.7058 14.298H6.98177L6.18377 17H5.55377L8.45177 7.424H9.26377L12.1618 17H11.4898ZM7.14977 13.738H10.5378L8.84377 7.956L7.14977 13.738ZM18.5972 9.776C18.2332 9.89733 17.6405 9.96733 16.8192 9.986C17.5565 10.3687 17.9252 11.05 17.9252 12.03C17.9252 12.758 17.7152 13.3367 17.2952 13.766C16.8752 14.186 16.3012 14.396 15.5732 14.396C15.2465 14.396 14.9618 14.3493 14.7192 14.256C14.5418 14.3587 14.4018 14.4893 14.2992 14.648C14.2058 14.8067 14.1592 14.9747 14.1592 15.152C14.1592 15.7027 14.5465 15.978 15.3212 15.978H16.2592C16.9312 15.978 17.4585 16.146 17.8412 16.482C18.2238 16.8087 18.4152 17.238 18.4152 17.77C18.4152 18.414 18.1772 18.918 17.7012 19.282C17.2345 19.646 16.5392 19.828 15.6152 19.828C14.6538 19.828 13.9585 19.6647 13.5292 19.338C13.1092 19.0113 12.8992 18.4933 12.8992 17.784H13.4732C13.4918 18.3347 13.6552 18.722 13.9632 18.946C14.2805 19.1793 14.8312 19.296 15.6152 19.296C17.0525 19.296 17.7712 18.8013 17.7712 17.812C17.7712 17.4013 17.6312 17.084 17.3512 16.86C17.0805 16.636 16.6885 16.524 16.1752 16.524H15.2792C14.7192 16.524 14.2898 16.412 13.9912 16.188C13.7018 15.9547 13.5572 15.6513 13.5572 15.278C13.5572 14.802 13.7998 14.396 14.2852 14.06C13.5478 13.64 13.1792 12.9493 13.1792 11.988C13.1792 11.2507 13.3938 10.6627 13.8232 10.224C14.2618 9.776 14.8452 9.552 15.5732 9.552C16.3758 9.56133 16.9545 9.538 17.3092 9.482C17.6638 9.41667 18.0278 9.30933 18.4012 9.16L18.5972 9.776ZM15.5732 10.056C14.9945 10.056 14.5558 10.2287 14.2572 10.574C13.9678 10.91 13.8232 11.3813 13.8232 11.988C13.8232 12.5947 13.9772 13.066 14.2852 13.402C14.6025 13.738 15.0272 13.906 15.5592 13.906C16.1192 13.906 16.5438 13.7473 16.8332 13.43C17.1318 13.1127 17.2812 12.6413 17.2812 12.016C17.2812 11.4093 17.1365 10.9333 16.8472 10.588C16.5672 10.2333 16.1425 10.056 15.5732 10.056Z" fill="#333333"/>
</svg>
