<svg width="24" height="24" viewBox="0 0 24 24" fill="none" xmlns="http://www.w3.org/2000/svg">
<path d="M9.01571 17L8.63771 15.11H6.32771L5.96371 17H2.95371L5.79571 7.256H9.23971L12.0677 17H9.01571ZM6.73371 13.094H8.23171L7.47571 9.272L6.73371 13.094ZM19.6919 10.028C19.1972 10.252 18.4879 10.364 17.5639 10.364C18.0679 10.5787 18.4366 10.8353 18.6699 11.134C18.9032 11.4233 19.0199 11.82 19.0199 12.324C19.0199 12.7907 18.8846 13.2153 18.6139 13.598C18.3432 13.9713 17.9559 14.2653 17.4519 14.48C16.9572 14.6853 16.3739 14.788 15.7019 14.788C15.3379 14.788 15.0719 14.774 14.9039 14.746C14.7919 14.802 14.7359 14.8907 14.7359 15.012C14.7359 15.1147 14.7826 15.1987 14.8759 15.264C14.9692 15.3293 15.1652 15.362 15.4639 15.362H16.5419C17.1579 15.362 17.6946 15.4553 18.1519 15.642C18.6092 15.8287 18.9592 16.0947 19.2019 16.44C19.4539 16.776 19.5799 17.1587 19.5799 17.588C19.5799 18.3907 19.2206 19.0207 18.5019 19.478C17.7926 19.9447 16.7706 20.178 15.4359 20.178C14.4559 20.178 13.6859 20.0753 13.1259 19.87C12.5752 19.6647 12.1879 19.38 11.9639 19.016C11.7492 18.652 11.6419 18.2087 11.6419 17.686H14.1199C14.1199 17.882 14.1572 18.0313 14.2319 18.134C14.3066 18.2367 14.4419 18.3113 14.6379 18.358C14.8339 18.4047 15.1279 18.428 15.5199 18.428C16.0239 18.428 16.3599 18.3673 16.5279 18.246C16.7052 18.134 16.7939 17.98 16.7939 17.784C16.7939 17.6253 16.7286 17.4947 16.5979 17.392C16.4766 17.2893 16.2759 17.238 15.9959 17.238H14.9599C14.1012 17.238 13.4666 17.1027 13.0559 16.832C12.6452 16.552 12.4399 16.188 12.4399 15.74C12.4399 15.4507 12.5286 15.1707 12.7059 14.9C12.8832 14.6293 13.1119 14.41 13.3919 14.242C12.8879 13.9713 12.5286 13.6633 12.3139 13.318C12.0992 12.9727 11.9919 12.5527 11.9919 12.058C11.9919 11.1713 12.3092 10.4807 12.9439 9.986C13.5786 9.49133 14.4326 9.244 15.5059 9.244C16.2152 9.272 16.8499 9.18333 17.4099 8.978C17.9792 8.76333 18.5392 8.46933 19.0899 8.096L19.6919 10.028ZM15.5899 11.036C15.3379 11.036 15.1326 11.12 14.9739 11.288C14.8152 11.456 14.7359 11.694 14.7359 12.002C14.7359 12.338 14.8152 12.5947 14.9739 12.772C15.1326 12.94 15.3379 13.024 15.5899 13.024C16.1592 13.024 16.4439 12.6693 16.4439 11.96C16.4439 11.6333 16.3739 11.4 16.2339 11.26C16.0939 11.1107 15.8792 11.036 15.5899 11.036Z" fill="#333333"/>
</svg>
