<svg width="24" height="24" viewBox="0 0 24 24" fill="none" xmlns="http://www.w3.org/2000/svg">
<path d="M9.20116 17L8.87916 15.082H6.91916L6.59716 17H3.72716L6.24716 7.256H9.60716L12.1132 17H9.20116ZM7.24116 13.122H8.54316L7.88516 9.23L7.24116 13.122ZM19.0531 10.014C18.6331 10.238 17.9938 10.35 17.1351 10.35C17.6111 10.546 17.9564 10.798 18.1711 11.106C18.3858 11.4047 18.4931 11.806 18.4931 12.31C18.4931 12.786 18.3671 13.2107 18.1151 13.584C17.8724 13.9573 17.5178 14.2513 17.0511 14.466C16.5844 14.6807 16.0384 14.788 15.4131 14.788C15.2078 14.788 14.9744 14.7693 14.7131 14.732C14.6011 14.7973 14.5451 14.8953 14.5451 15.026C14.5451 15.1473 14.5871 15.2407 14.6711 15.306C14.7644 15.3713 14.9464 15.404 15.2171 15.404H16.0851C16.9904 15.404 17.6951 15.6047 18.1991 16.006C18.7124 16.4073 18.9691 16.9393 18.9691 17.602C18.9691 18.3953 18.6378 19.0207 17.9751 19.478C17.3124 19.9447 16.3698 20.178 15.1471 20.178C14.2324 20.178 13.5184 20.0753 13.0051 19.87C12.4918 19.6647 12.1324 19.38 11.9271 19.016C11.7311 18.6613 11.6331 18.2227 11.6331 17.7H14.0691C14.0691 17.9893 14.1438 18.19 14.2931 18.302C14.4424 18.4233 14.7411 18.484 15.1891 18.484C15.5998 18.484 15.8798 18.4187 16.0291 18.288C16.1784 18.1667 16.2531 18.0033 16.2531 17.798C16.2531 17.3967 16.0011 17.196 15.4971 17.196H14.7131C13.9011 17.196 13.3038 17.0607 12.9211 16.79C12.5478 16.5193 12.3611 16.1553 12.3611 15.698C12.3611 15.4087 12.4404 15.1333 12.5991 14.872C12.7671 14.6107 12.9771 14.396 13.2291 14.228C12.7718 13.9667 12.4451 13.668 12.2491 13.332C12.0531 12.9867 11.9551 12.562 11.9551 12.058C11.9551 11.162 12.2491 10.4713 12.8371 9.986C13.4344 9.49133 14.2558 9.25333 15.3011 9.272C15.9078 9.28133 16.4491 9.19267 16.9251 9.006C17.4011 8.81 17.9051 8.53467 18.4371 8.18L19.0531 10.014ZM15.3011 10.994C14.8438 10.994 14.6151 11.33 14.6151 12.002C14.6151 12.702 14.8391 13.052 15.2871 13.052C15.5204 13.052 15.6884 12.968 15.7911 12.8C15.9031 12.632 15.9591 12.352 15.9591 11.96C15.9591 11.6053 15.9031 11.358 15.7911 11.218C15.6884 11.0687 15.5251 10.994 15.3011 10.994Z" fill="#333333"/>
</svg>
