<svg width="24" height="24" viewBox="0 0 24 24" fill="none" xmlns="http://www.w3.org/2000/svg">
<path d="M10.2368 17L9.69082 14.83H6.65282L6.10682 17H3.96482L6.94682 7.312H9.45282L12.4208 17H10.2368ZM7.04482 13.304H9.29882L8.16482 8.838L7.04482 13.304ZM19.9099 9.986C19.4246 10.1727 18.7106 10.266 17.7679 10.266C18.2346 10.4713 18.5799 10.728 18.8039 11.036C19.0279 11.3347 19.1399 11.7127 19.1399 12.17C19.1399 12.646 19.0139 13.0753 18.7619 13.458C18.5193 13.8313 18.1646 14.1253 17.6979 14.34C17.2406 14.5547 16.7039 14.662 16.0879 14.662C15.7613 14.662 15.4719 14.6293 15.2199 14.564C15.0333 14.6853 14.9399 14.8487 14.9399 15.054C14.9399 15.2033 14.9959 15.3247 15.1079 15.418C15.2293 15.502 15.4579 15.544 15.7939 15.544H16.9279C17.4786 15.544 17.9593 15.6373 18.3699 15.824C18.7899 16.0013 19.1119 16.2533 19.3359 16.58C19.5693 16.8973 19.6859 17.2613 19.6859 17.672C19.6859 18.428 19.3593 19.016 18.7059 19.436C18.0619 19.8653 17.1286 20.08 15.9059 20.08C15.0286 20.08 14.3333 19.9867 13.8199 19.8C13.3159 19.6227 12.9613 19.3613 12.7559 19.016C12.5506 18.6707 12.4479 18.2367 12.4479 17.714H14.2259C14.2259 17.9567 14.2726 18.148 14.3659 18.288C14.4593 18.4373 14.6273 18.5447 14.8699 18.61C15.1219 18.6847 15.4813 18.722 15.9479 18.722C16.5919 18.722 17.0399 18.6427 17.2919 18.484C17.5533 18.3253 17.6839 18.1013 17.6839 17.812C17.6839 17.5507 17.5859 17.35 17.3899 17.21C17.1939 17.07 16.9046 17 16.5219 17H15.4299C14.6926 17 14.1419 16.8647 13.7779 16.594C13.4139 16.314 13.2319 15.964 13.2319 15.544C13.2319 15.2827 13.3066 15.0307 13.4559 14.788C13.6146 14.536 13.8293 14.326 14.0999 14.158C13.6426 13.906 13.3066 13.612 13.0919 13.276C12.8866 12.9307 12.7839 12.52 12.7839 12.044C12.7839 11.5027 12.9146 11.0313 13.1759 10.63C13.4466 10.2193 13.8199 9.90667 14.2959 9.692C14.7813 9.468 15.3319 9.356 15.9479 9.356C16.7133 9.37467 17.3433 9.30933 17.8379 9.16C18.3326 9.01067 18.8599 8.77733 19.4199 8.46L19.9099 9.986ZM15.9899 10.686C15.6166 10.686 15.3179 10.8073 15.0939 11.05C14.8793 11.2833 14.7719 11.6053 14.7719 12.016C14.7719 12.436 14.8793 12.7673 15.0939 13.01C15.3179 13.2527 15.6213 13.374 16.0039 13.374C16.4053 13.374 16.7086 13.2573 16.9139 13.024C17.1193 12.7907 17.2219 12.4453 17.2219 11.988C17.2219 11.12 16.8113 10.686 15.9899 10.686Z" fill="#888888"/>
</svg>
