<svg width="24" height="24" viewBox="0 0 24 24" fill="none" xmlns="http://www.w3.org/2000/svg">
<path d="M11.0118 17L10.2978 14.298H6.9238L6.2098 17H5.5938L8.2258 7.424H9.0378L11.6698 17H11.0118ZM7.0778 13.752H10.1578L8.6178 7.956L7.0778 13.752ZM17.5723 9.776C17.2363 9.89733 16.695 9.96733 15.9483 9.986C16.6297 10.3687 16.9703 11.05 16.9703 12.03C16.9703 12.7673 16.779 13.346 16.3963 13.766C16.0137 14.186 15.4817 14.396 14.8003 14.396C14.5017 14.396 14.245 14.3493 14.0303 14.256C13.8717 14.3587 13.7457 14.4893 13.6523 14.648C13.5683 14.8067 13.5263 14.9747 13.5263 15.152C13.5263 15.712 13.895 15.992 14.6323 15.992H15.3603C16.0043 15.992 16.5037 16.1553 16.8583 16.482C17.2223 16.8087 17.4043 17.238 17.4043 17.77C17.4043 18.4047 17.185 18.904 16.7463 19.268C16.317 19.6413 15.6777 19.828 14.8283 19.828C13.951 19.828 13.3163 19.66 12.9243 19.324C12.5323 18.9973 12.3363 18.484 12.3363 17.784H12.9103C12.9197 18.3253 13.0643 18.7127 13.3443 18.946C13.6243 19.1793 14.119 19.296 14.8283 19.296C15.5003 19.296 15.9903 19.1653 16.2983 18.904C16.6157 18.6427 16.7743 18.2787 16.7743 17.812C16.7743 17.392 16.6437 17.0747 16.3823 16.86C16.1303 16.636 15.757 16.524 15.2623 16.524H14.6183C14.049 16.524 13.6243 16.412 13.3443 16.188C13.0737 15.964 12.9383 15.6607 12.9383 15.278C12.9383 14.8113 13.1623 14.41 13.6103 14.074C12.929 13.6447 12.5883 12.9493 12.5883 11.988C12.5883 11.232 12.789 10.6393 13.1903 10.21C13.5917 9.77133 14.133 9.552 14.8143 9.552C15.5423 9.552 16.0697 9.524 16.3963 9.468C16.723 9.40267 17.0543 9.3 17.3903 9.16L17.5723 9.776ZM14.8003 10.056C14.2777 10.056 13.8857 10.224 13.6243 10.56C13.363 10.8867 13.2323 11.3627 13.2323 11.988C13.2323 12.5947 13.3723 13.066 13.6523 13.402C13.9323 13.738 14.3103 13.906 14.7863 13.906C15.8223 13.906 16.3403 13.276 16.3403 12.016C16.3403 11.4093 16.2097 10.9333 15.9483 10.588C15.687 10.2333 15.3043 10.056 14.8003 10.056Z" fill="#888888"/>
</svg>
