<svg width="24" height="24" viewBox="0 0 24 24" fill="none" xmlns="http://www.w3.org/2000/svg">
<path d="M9.66573 17L9.23173 14.886H6.76773L6.33373 17H4.06573L6.68373 7.298H9.37173L11.9757 17H9.66573ZM7.10373 13.276H8.89573L7.99973 8.936L7.10373 13.276ZM18.8213 10C18.392 10.1867 17.7526 10.28 16.9033 10.28C17.3513 10.4853 17.678 10.742 17.8833 11.05C18.098 11.3487 18.2053 11.736 18.2053 12.212C18.2053 12.688 18.0886 13.1173 17.8553 13.5C17.622 13.8733 17.286 14.1673 16.8473 14.382C16.418 14.5873 15.9093 14.69 15.3213 14.69C15.0413 14.69 14.7893 14.662 14.5653 14.606C14.4066 14.7087 14.3273 14.858 14.3273 15.054C14.3273 15.2033 14.3786 15.32 14.4813 15.404C14.5933 15.488 14.794 15.53 15.0833 15.53H15.9933C16.8146 15.53 17.468 15.7307 17.9533 16.132C18.4386 16.524 18.6813 17.0327 18.6813 17.658C18.6813 18.414 18.3733 19.0067 17.7573 19.436C17.1413 19.8747 16.2593 20.094 15.1113 20.094C13.8793 20.094 13.0253 19.8933 12.5493 19.492C12.0733 19.0907 11.8353 18.498 11.8353 17.714H13.7673C13.7673 18.0593 13.8606 18.3067 14.0473 18.456C14.234 18.6053 14.598 18.68 15.1393 18.68C15.6526 18.68 16.012 18.6007 16.2173 18.442C16.4226 18.2927 16.5253 18.0827 16.5253 17.812C16.5253 17.2893 16.194 17.028 15.5313 17.028H14.7333C13.9866 17.028 13.436 16.8973 13.0813 16.636C12.7266 16.3653 12.5493 16.0107 12.5493 15.572C12.5493 15.3013 12.624 15.0447 12.7733 14.802C12.9226 14.5593 13.1233 14.3493 13.3753 14.172C12.946 13.92 12.6333 13.626 12.4373 13.29C12.2506 12.954 12.1573 12.5387 12.1573 12.044C12.1573 11.204 12.4326 10.5413 12.9833 10.056C13.5433 9.57067 14.29 9.33267 15.2233 9.342C15.8766 9.35133 16.4226 9.28133 16.8613 9.132C17.3 8.97333 17.7853 8.74 18.3173 8.432L18.8213 10ZM15.2233 10.756C14.598 10.756 14.2853 11.176 14.2853 12.016C14.2853 12.4453 14.3646 12.7673 14.5233 12.982C14.6913 13.1967 14.9246 13.304 15.2233 13.304C15.5313 13.304 15.7646 13.2013 15.9233 12.996C16.082 12.7813 16.1613 12.4453 16.1613 11.988C16.1613 11.5587 16.082 11.246 15.9233 11.05C15.774 10.854 15.5406 10.756 15.2233 10.756Z" fill="#888888"/>
</svg>
