<svg width="24" height="24" viewBox="0 0 24 24" fill="none" xmlns="http://www.w3.org/2000/svg">
<path d="M10.9154 17L10.5374 14.368H6.98143L5.87543 17H5.03543L9.23543 7.41H10.2574L11.7554 17H10.9154ZM7.27543 13.682H10.4394L9.64143 8.082L7.27543 13.682ZM16.8188 9.524C17.2108 9.524 17.5702 9.57067 17.8968 9.664C18.2328 9.75733 18.5688 9.89733 18.9048 10.084L17.9108 17C17.6308 18.9227 16.6835 19.884 15.0688 19.884C14.6768 19.884 14.2895 19.8233 13.9068 19.702C13.5335 19.5807 13.1975 19.4173 12.8988 19.212L13.2208 18.638C13.8368 19.0207 14.4482 19.212 15.0548 19.212C16.2402 19.212 16.9355 18.4747 17.1408 17L17.3088 15.782C16.7208 16.594 16.0488 17 15.2928 17C14.6488 17 14.1402 16.7667 13.7668 16.3C13.4028 15.824 13.2208 15.1753 13.2208 14.354C13.2208 13.598 13.3468 12.8513 13.5988 12.114C13.8508 11.3673 14.2475 10.7513 14.7888 10.266C15.3302 9.77133 16.0068 9.524 16.8188 9.524ZM16.8188 10.168C16.1935 10.168 15.6708 10.3827 15.2508 10.812C14.8402 11.232 14.5322 11.764 14.3268 12.408C14.1308 13.0427 14.0328 13.6867 14.0328 14.34C14.0328 14.9933 14.1495 15.4927 14.3828 15.838C14.6255 16.174 14.9708 16.342 15.4188 16.342C16.1282 16.342 16.7955 15.8427 17.4208 14.844L18.0648 10.462C17.6915 10.266 17.2762 10.168 16.8188 10.168Z" fill="#888888"/>
</svg>
