<svg width="24" height="24" viewBox="0 0 24 24" fill="none" xmlns="http://www.w3.org/2000/svg">
<path d="M9.2057 17L8.9957 14.732H6.2237L5.3977 17H3.5777L7.5817 7.326H9.7377L11.0257 17H9.2057ZM6.7137 13.388H8.8837L8.4497 8.628L6.7137 13.388ZM15.9305 9.398C16.7892 9.398 17.6292 9.61733 18.4505 10.056L17.4845 16.734C17.3165 17.9007 16.9525 18.7453 16.3925 19.268C15.8418 19.8 15.0765 20.066 14.0965 20.066C13.6765 20.066 13.2518 19.996 12.8225 19.856C12.3932 19.7253 12.0058 19.5433 11.6605 19.31L12.2765 18.148C12.8925 18.512 13.4852 18.694 14.0545 18.694C14.5212 18.694 14.9085 18.568 15.2165 18.316C15.5245 18.064 15.7252 17.588 15.8185 16.888L15.9305 16.006C15.6692 16.314 15.3938 16.5567 15.1045 16.734C14.8152 16.9113 14.4838 17 14.1105 17C13.4385 17 12.9158 16.762 12.5425 16.286C12.1692 15.8007 11.9825 15.152 11.9825 14.34C11.9825 13.528 12.1178 12.7487 12.3885 12.002C12.6592 11.246 13.0885 10.6253 13.6765 10.14C14.2738 9.64533 15.0252 9.398 15.9305 9.398ZM15.8605 10.672C15.3845 10.672 14.9832 10.854 14.6565 11.218C14.3392 11.582 14.1012 12.044 13.9425 12.604C13.7932 13.164 13.7185 13.7427 13.7185 14.34C13.7185 15.2453 14.0172 15.698 14.6145 15.698C14.8852 15.698 15.1372 15.6 15.3705 15.404C15.6132 15.1987 15.8558 14.914 16.0985 14.55L16.6585 10.812C16.4065 10.7187 16.1405 10.672 15.8605 10.672Z" fill="#333333"/>
</svg>
