<svg width="24" height="24" viewBox="0 0 24 24" fill="none" xmlns="http://www.w3.org/2000/svg">
<path d="M10.3539 17L9.96186 14.158H6.40586L5.21586 17H4.87986L8.91186 7.466H9.31786L10.6899 17H10.3539ZM6.53186 13.864H9.93386L9.09386 7.732L6.53186 13.864ZM15.586 9.594C16.1647 9.594 16.6967 9.75267 17.182 10.07L16.188 17.154C15.936 18.89 15.152 19.758 13.836 19.758C13.4814 19.758 13.1454 19.6973 12.828 19.576C12.5107 19.4547 12.2307 19.296 11.988 19.1L12.142 18.904C12.674 19.296 13.2434 19.492 13.85 19.492C14.3727 19.492 14.8114 19.3053 15.166 18.932C15.53 18.568 15.768 17.9707 15.88 17.14L16.104 15.558C15.544 16.5193 14.872 17 14.088 17C13.528 17 13.0894 16.7853 12.772 16.356C12.464 15.9173 12.3054 15.32 12.296 14.564C12.296 13.7893 12.4127 13.024 12.646 12.268C12.8794 11.5027 13.2434 10.868 13.738 10.364C14.2327 9.85067 14.8487 9.594 15.586 9.594ZM15.572 9.86C14.9187 9.86 14.368 10.098 13.92 10.574C13.472 11.05 13.1407 11.6473 12.926 12.366C12.7207 13.0753 12.618 13.7893 12.618 14.508C12.618 15.1893 12.744 15.726 12.996 16.118C13.248 16.51 13.612 16.706 14.088 16.706C14.8534 16.706 15.544 16.16 16.16 15.068L16.86 10.196C16.496 9.972 16.0667 9.86 15.572 9.86Z" fill="#333333"/>
</svg>
