<svg width="24" height="24" viewBox="0 0 24 24" fill="none" xmlns="http://www.w3.org/2000/svg">
<path d="M8.87347 14.781H5.68847L5.08647 17H3.10547L6.13647 7.319H8.48847L11.5125 17H9.47547L8.87347 14.781ZM6.03147 13.346H8.51647L7.27747 8.754L6.03147 13.346ZM19.018 8.544L19.48 9.986C19.2 10.084 18.885 10.154 18.535 10.196C18.185 10.2333 17.7837 10.252 17.331 10.252C17.7837 10.448 18.1267 10.6977 18.36 11.001C18.598 11.2997 18.717 11.68 18.717 12.142C18.717 12.6227 18.5933 13.052 18.346 13.43C18.1033 13.808 17.7557 14.1043 17.303 14.319C16.855 14.5337 16.3207 14.641 15.7 14.641C15.5087 14.641 15.3383 14.6317 15.189 14.613C15.0397 14.5943 14.895 14.5687 14.755 14.536C14.6617 14.5873 14.5893 14.662 14.538 14.76C14.4867 14.858 14.461 14.9583 14.461 15.061C14.461 15.201 14.5147 15.3223 14.622 15.425C14.734 15.523 14.972 15.572 15.336 15.572H16.596C17.142 15.572 17.6203 15.6653 18.031 15.852C18.4463 16.034 18.7683 16.2813 18.997 16.594C19.2303 16.9067 19.347 17.266 19.347 17.672C19.347 18.4187 19.0227 19.002 18.374 19.422C17.7253 19.842 16.778 20.052 15.532 20.052C14.6407 20.052 13.9453 19.961 13.446 19.779C12.9513 19.597 12.6037 19.331 12.403 18.981C12.2023 18.6357 12.102 18.218 12.102 17.728H13.747C13.747 17.966 13.7937 18.162 13.887 18.316C13.985 18.47 14.1647 18.5843 14.426 18.659C14.692 18.7337 15.0723 18.771 15.567 18.771C16.0617 18.771 16.449 18.7313 16.729 18.652C17.0137 18.5727 17.2143 18.4583 17.331 18.309C17.4477 18.1643 17.506 17.994 17.506 17.798C17.506 17.532 17.394 17.3243 17.17 17.175C16.946 17.0257 16.6287 16.951 16.218 16.951H14.993C14.2463 16.951 13.7027 16.8063 13.362 16.517C13.0213 16.223 12.851 15.8847 12.851 15.502C12.851 15.2407 12.921 14.991 13.061 14.753C13.2057 14.5103 13.411 14.305 13.677 14.137C13.2197 13.8943 12.8883 13.605 12.683 13.269C12.4823 12.9283 12.382 12.5177 12.382 12.037C12.382 11.5003 12.5173 11.0337 12.788 10.637C13.0587 10.2403 13.4343 9.93233 13.915 9.713C14.3957 9.49367 14.9487 9.384 15.574 9.384C16.148 9.38867 16.6357 9.35367 17.037 9.279C17.443 9.20433 17.8 9.10167 18.108 8.971C18.4207 8.84033 18.724 8.698 19.018 8.544ZM15.609 10.616C15.1703 10.616 14.8343 10.7443 14.601 11.001C14.3723 11.2577 14.258 11.5983 14.258 12.023C14.258 12.4617 14.377 12.8093 14.615 13.066C14.853 13.3227 15.1867 13.451 15.616 13.451C16.0407 13.451 16.3627 13.3273 16.582 13.08C16.806 12.828 16.918 12.4687 16.918 12.002C16.918 11.5353 16.806 11.1877 16.582 10.959C16.3627 10.7303 16.0383 10.616 15.609 10.616Z" fill="#888888"/>
</svg>
