<svg width="24" height="24" viewBox="0 0 24 24" fill="none" xmlns="http://www.w3.org/2000/svg">
<path d="M9.17447 14.543H5.35947L4.58947 17H3.39247L6.52847 7.361H8.08247L11.2185 17H9.94447L9.17447 14.543ZM5.67447 13.535H8.85947L7.27747 8.383L5.67447 13.535ZM18.899 8.845L19.263 9.951C18.9457 10.049 18.6097 10.1097 18.255 10.133C17.905 10.1563 17.5223 10.168 17.107 10.168C17.961 10.56 18.388 11.1783 18.388 12.023C18.388 12.751 18.143 13.3507 17.653 13.822C17.1677 14.2933 16.4887 14.529 15.616 14.529C15.3687 14.529 15.161 14.5173 14.993 14.494C14.8297 14.4707 14.671 14.4357 14.517 14.389C14.405 14.4683 14.3117 14.5733 14.237 14.704C14.167 14.83 14.132 14.963 14.132 15.103C14.132 15.2803 14.202 15.4273 14.342 15.544C14.482 15.6607 14.741 15.719 15.119 15.719H16.449C16.9437 15.719 17.387 15.8077 17.779 15.985C18.171 16.1623 18.4813 16.4027 18.71 16.706C18.9387 17.0047 19.053 17.343 19.053 17.721C19.053 18.4443 18.745 18.9997 18.129 19.387C17.5177 19.7743 16.652 19.968 15.532 19.968C14.748 19.968 14.1297 19.8863 13.677 19.723C13.2243 19.5643 12.9 19.3193 12.704 18.988C12.5127 18.6613 12.417 18.2483 12.417 17.749H13.481C13.481 18.0337 13.537 18.2693 13.649 18.456C13.761 18.6427 13.964 18.7803 14.258 18.869C14.552 18.9623 14.9743 19.009 15.525 19.009C16.337 19.009 16.9297 18.9063 17.303 18.701C17.6763 18.5003 17.863 18.1993 17.863 17.798C17.863 17.448 17.7043 17.1843 17.387 17.007C17.0697 16.8297 16.673 16.741 16.197 16.741H14.881C14.2417 16.741 13.7727 16.601 13.474 16.321C13.1753 16.041 13.026 15.719 13.026 15.355C13.026 14.851 13.2967 14.4217 13.838 14.067C13.012 13.6283 12.599 12.9493 12.599 12.03C12.599 11.5307 12.7227 11.0897 12.97 10.707C13.2173 10.3197 13.5627 10.0163 14.006 9.797C14.4493 9.57767 14.9603 9.468 15.539 9.468C16.1597 9.468 16.6637 9.44233 17.051 9.391C17.4383 9.33967 17.7697 9.26733 18.045 9.174C18.325 9.08067 18.6097 8.971 18.899 8.845ZM15.539 10.329C14.9463 10.329 14.5077 10.49 14.223 10.812C13.943 11.134 13.803 11.54 13.803 12.03C13.803 12.5293 13.9453 12.94 14.23 13.262C14.5193 13.584 14.965 13.745 15.567 13.745C16.085 13.745 16.4817 13.5933 16.757 13.29C17.0323 12.9867 17.17 12.5643 17.17 12.023C17.17 10.8937 16.6263 10.329 15.539 10.329Z" fill="#333333"/>
</svg>
