<svg width="24" height="24" viewBox="0 0 24 24" fill="none" xmlns="http://www.w3.org/2000/svg">
<path d="M10.2643 17L9.87227 14.872H7.71627L7.33827 17H5.15427L7.50627 7.298H10.1383L12.4903 17H10.2643ZM8.01027 13.29H9.59227L8.79427 8.908L8.01027 13.29ZM18.8023 9.986C18.457 10.1727 17.8783 10.266 17.0663 10.266C17.477 10.4527 17.7803 10.7047 17.9763 11.022C18.1723 11.33 18.2703 11.722 18.2703 12.198C18.2703 12.9353 18.0276 13.5327 17.5423 13.99C17.0663 14.4473 16.413 14.676 15.5823 14.676C15.321 14.676 15.097 14.648 14.9103 14.592C14.761 14.6947 14.6863 14.8533 14.6863 15.068C14.6863 15.2267 14.733 15.348 14.8263 15.432C14.929 15.516 15.111 15.558 15.3723 15.558H16.1283C16.931 15.558 17.5563 15.754 18.0043 16.146C18.4616 16.538 18.6903 17.042 18.6903 17.658C18.6903 18.3953 18.401 18.9833 17.8223 19.422C17.253 19.87 16.4363 20.094 15.3723 20.094C14.2243 20.094 13.431 19.8933 12.9923 19.492C12.5536 19.0907 12.3343 18.498 12.3343 17.714H14.2103C14.2103 18.0687 14.2896 18.3207 14.4483 18.47C14.6163 18.6287 14.929 18.708 15.3863 18.708C16.189 18.708 16.5903 18.4093 16.5903 17.812C16.5903 17.5413 16.511 17.336 16.3523 17.196C16.203 17.0653 15.9696 17 15.6523 17H15.0923C14.355 17 13.8183 16.874 13.4823 16.622C13.1463 16.3607 12.9783 16.006 12.9783 15.558C12.9783 15.2873 13.0483 15.0353 13.1883 14.802C13.3283 14.5593 13.5196 14.354 13.7623 14.186C13.361 13.934 13.067 13.64 12.8803 13.304C12.703 12.968 12.6143 12.548 12.6143 12.044C12.6143 11.204 12.871 10.546 13.3843 10.07C13.8976 9.594 14.5976 9.356 15.4843 9.356C16.0723 9.356 16.567 9.28133 16.9683 9.132C17.379 8.98267 17.8176 8.76333 18.2843 8.474L18.8023 9.986ZM15.4983 10.728C15.2276 10.728 15.0223 10.8307 14.8823 11.036C14.7516 11.232 14.6863 11.5587 14.6863 12.016C14.6863 12.884 14.9523 13.318 15.4843 13.318C15.7456 13.318 15.9416 13.22 16.0723 13.024C16.203 12.828 16.2683 12.4827 16.2683 11.988C16.2683 11.54 16.203 11.218 16.0723 11.022C15.951 10.826 15.7596 10.728 15.4983 10.728Z" fill="#333333"/>
</svg>
