<svg width="24" height="24" viewBox="0 0 24 24" fill="none" xmlns="http://www.w3.org/2000/svg">
<path d="M10.4172 17L9.81518 14.76H6.60918L6.00718 17H4.08918L7.09918 7.326H9.38118L12.3772 17H10.4172ZM6.97318 13.36H9.43718L8.20518 8.74L6.97318 13.36ZM19.8393 9.986C19.3633 10.154 18.6493 10.238 17.6973 10.238C18.1546 10.4433 18.4906 10.7 18.7053 11.008C18.9293 11.3067 19.0413 11.6847 19.0413 12.142C19.0413 12.6273 18.92 13.0567 18.6773 13.43C18.444 13.8033 18.0986 14.0973 17.6413 14.312C17.1933 14.5267 16.666 14.634 16.0593 14.634C15.7233 14.634 15.4293 14.5967 15.1773 14.522C14.972 14.662 14.8693 14.844 14.8693 15.068C14.8693 15.4133 15.168 15.586 15.7653 15.586H16.8993C17.4406 15.586 17.912 15.6747 18.3133 15.852C18.724 16.0293 19.0413 16.2813 19.2653 16.608C19.4893 16.9253 19.6013 17.2847 19.6013 17.686C19.6013 18.4327 19.284 19.0113 18.6493 19.422C18.0146 19.842 17.1 20.052 15.9053 20.052C15.0466 20.052 14.37 19.9633 13.8753 19.786C13.39 19.6087 13.0446 19.352 12.8393 19.016C12.634 18.68 12.5313 18.2507 12.5313 17.728H14.1413C14.1413 17.9893 14.188 18.1947 14.2813 18.344C14.384 18.4933 14.5613 18.6053 14.8133 18.68C15.0746 18.7547 15.448 18.792 15.9333 18.792C16.6146 18.792 17.0953 18.708 17.3753 18.54C17.6553 18.372 17.7953 18.1293 17.7953 17.812C17.7953 17.532 17.688 17.3127 17.4733 17.154C17.2586 17.0047 16.946 16.93 16.5353 16.93H15.4153C14.7153 16.93 14.188 16.7947 13.8333 16.524C13.4786 16.2533 13.3013 15.9127 13.3013 15.502C13.3013 15.2407 13.376 14.9887 13.5253 14.746C13.684 14.5033 13.8986 14.298 14.1693 14.13C13.7213 13.8967 13.39 13.612 13.1753 13.276C12.97 12.9307 12.8673 12.52 12.8673 12.044C12.8673 11.512 12.998 11.0453 13.2593 10.644C13.5206 10.2427 13.88 9.93467 14.3373 9.72C14.804 9.496 15.336 9.384 15.9333 9.384C16.7173 9.40267 17.3473 9.34667 17.8233 9.216C18.3086 9.076 18.8313 8.85667 19.3913 8.558L19.8393 9.986ZM15.9613 10.602C15.56 10.602 15.2426 10.7327 15.0093 10.994C14.7853 11.246 14.6733 11.5867 14.6733 12.016C14.6733 12.464 14.79 12.8187 15.0233 13.08C15.2566 13.3413 15.5786 13.472 15.9893 13.472C16.4186 13.472 16.7453 13.346 16.9693 13.094C17.1933 12.8327 17.3053 12.4687 17.3053 12.002C17.3053 11.0687 16.8573 10.602 15.9613 10.602Z" fill="#888888"/>
</svg>
