<svg width="24" height="24" viewBox="0 0 24 24" fill="none" xmlns="http://www.w3.org/2000/svg">
<path d="M13.0283 15.958C13.0283 16.0327 12.9863 16.07 12.9023 16.07C12.8556 16.07 12.823 16.0467 12.8043 16L11.4043 13.186H6.0703L4.6843 16C4.66563 16.0467 4.63296 16.07 4.5863 16.07C4.5023 16.07 4.4603 16.0327 4.4603 15.958C4.4603 15.9393 4.46496 15.9207 4.4743 15.902L8.5203 7.726H7.6103C7.53563 7.726 7.4983 7.68867 7.4983 7.614C7.4983 7.53 7.53563 7.488 7.6103 7.488H8.7723C8.81896 7.488 8.85163 7.50667 8.8703 7.544L13.0143 15.902C13.0236 15.9207 13.0283 15.9393 13.0283 15.958ZM8.7443 7.81L6.1963 12.948H11.2923L8.7443 7.81ZM18.2679 18.492C17.9319 18.7627 17.5399 18.9493 17.0919 19.052C16.6532 19.164 16.1446 19.22 15.5659 19.22C14.9966 19.22 14.4646 19.066 13.9699 18.758C13.4752 18.45 13.2279 18.0113 13.2279 17.442C13.2279 16.882 13.5172 16.42 14.0959 16.056C13.8159 15.916 13.6759 15.706 13.6759 15.426C13.6759 15.0247 14.0912 14.6747 14.9219 14.376C14.1939 14.0213 13.8299 13.438 13.8299 12.626C13.8299 12.0567 14.0212 11.5947 14.4039 11.24C14.7959 10.876 15.2719 10.694 15.8319 10.694C16.3919 10.694 16.8632 10.834 17.2459 11.114C17.7126 10.7593 17.9459 10.316 17.9459 9.784C17.9459 9.54133 17.8899 9.27533 17.7779 8.986C17.7406 8.92067 17.7452 8.87867 17.7919 8.86C17.8386 8.832 17.8712 8.818 17.8899 8.818C17.9366 8.818 17.9692 8.846 17.9879 8.902C18.1186 9.22867 18.1839 9.52267 18.1839 9.784C18.1839 10.3627 17.9272 10.8527 17.4139 11.254C17.8059 11.618 18.0019 12.0893 18.0019 12.668C18.0019 13.2373 17.7966 13.6993 17.3859 14.054C16.9846 14.3993 16.4899 14.572 15.9019 14.572C15.6499 14.572 15.4306 14.544 15.2439 14.488C14.3572 14.7493 13.9139 15.062 13.9139 15.426C13.9139 15.7433 14.2406 15.9533 14.8939 16.056C15.2206 16.1027 15.6592 16.1587 16.2099 16.224C16.7699 16.2893 17.1199 16.3313 17.2599 16.35C17.7359 16.4153 18.1092 16.5367 18.3799 16.714C18.6506 16.8913 18.7859 17.1667 18.7859 17.54C18.7859 17.9133 18.6132 18.2307 18.2679 18.492ZM14.3199 16.154C13.7506 16.49 13.4659 16.9007 13.4659 17.386C13.4659 17.8807 13.6712 18.268 14.0819 18.548C14.5019 18.8373 15.0666 18.982 15.7759 18.982C16.4946 18.982 17.1339 18.8513 17.6939 18.59C18.2539 18.3287 18.5339 17.9787 18.5339 17.54C18.5339 17.008 18.0999 16.686 17.2319 16.574C15.8786 16.4153 15.1039 16.322 14.9079 16.294C14.7212 16.266 14.5252 16.2193 14.3199 16.154ZM17.7639 12.64C17.7639 12.136 17.5912 11.7253 17.2459 11.408C16.9006 11.0907 16.4526 10.932 15.9019 10.932C15.3606 10.932 14.9172 11.0907 14.5719 11.408C14.2359 11.7253 14.0679 12.136 14.0679 12.64C14.0679 13.1347 14.2359 13.5407 14.5719 13.858C14.9172 14.1753 15.3606 14.334 15.9019 14.334C16.4526 14.334 16.9006 14.1753 17.2459 13.858C17.5912 13.5407 17.7639 13.1347 17.7639 12.64Z" fill="#888888"/>
</svg>
