<svg width="24" height="24" viewBox="0 0 24 24" fill="none" xmlns="http://www.w3.org/2000/svg">
<path d="M11.1515 15.7144L7.34395 6.57637C7.22496 6.2908 6.9394 6.12422 6.65383 6.12422C6.34447 6.12422 6.05891 6.2908 5.93992 6.57637L2.13239 15.7144C1.96581 16.119 2.15619 16.5473 2.53694 16.7139C2.94149 16.8805 3.36984 16.6901 3.53642 16.3094L4.29793 14.5008H8.98595L9.74745 16.3094C9.86644 16.5949 10.152 16.7853 10.4614 16.7853C10.5566 16.7853 10.6517 16.7615 10.7469 16.7139C11.1277 16.5473 11.3181 16.0952 11.1515 15.7144ZM4.91665 12.954L6.65383 8.86088L8.36722 12.954H4.91665ZM21.8839 11.431C21.8839 14.8577 19.0521 16.7377 16.5296 16.7377C13.3646 16.7377 11.2229 14.2152 11.2229 11.431C11.2229 8.48013 13.6264 6.10042 16.5534 6.10042C18.5524 6.10042 20.5275 7.43306 20.5275 8.21836C20.5275 8.64671 20.1706 8.97987 19.766 8.97987C19.0283 8.97987 18.6713 7.64723 16.5534 7.64723C14.4593 7.64723 12.7459 9.31303 12.7459 11.431C12.7459 12.2639 13.4122 15.2147 16.5534 15.2147C18.4334 15.2147 19.9802 13.9059 20.3133 12.1925H17.1245C16.6962 12.1925 16.363 11.8593 16.363 11.431C16.363 11.0264 16.6962 10.6933 17.1245 10.6933H21.1224C21.527 10.6695 21.8839 11.0264 21.8839 11.431Z" fill="#888888"/>
</svg>
