<svg width="24" height="24" viewBox="0 0 24 24" fill="none" xmlns="http://www.w3.org/2000/svg">
<path d="M8.52734 5.89453H8.93066L11.3506 12.8809C11.5283 13.4004 11.722 13.8265 11.9316 14.1592C12.1458 14.4873 12.4056 14.6582 12.7109 14.6719V15H10.2568V14.6719H10.4141C10.4915 14.6719 10.5303 14.5967 10.5303 14.4463C10.5303 14.4007 10.5212 14.3506 10.5029 14.2959L9.68262 11.917H6.69531C6.38086 12.8011 6.22363 13.4596 6.22363 13.8926C6.22363 14.1204 6.29655 14.3073 6.44238 14.4531C6.59277 14.599 6.78874 14.6719 7.03027 14.6719H7.39258V15H4.33008V14.6719C4.84049 14.6445 5.30534 14.0999 5.72461 13.0381L8.52734 5.89453ZM8.28809 7.86328L6.85254 11.5H9.53223L8.28809 7.86328ZM16.2725 12.5391C16.2178 12.5482 16.1357 12.5596 16.0264 12.5732C15.6982 12.6279 15.4521 12.6553 15.2881 12.6553C14.7321 12.6553 14.2695 12.5049 13.9004 12.2041C13.5312 11.8988 13.3467 11.5046 13.3467 11.0215C13.3467 10.3926 13.6566 9.8252 14.2764 9.31934C14.9007 8.81348 15.5911 8.56055 16.3477 8.56055C16.5436 8.56055 16.71 8.57878 16.8467 8.61523C16.9834 8.65169 17.2386 8.74512 17.6123 8.89551C18.0088 9.05957 18.2936 9.16439 18.4668 9.20996C18.64 9.25553 18.8451 9.27832 19.082 9.27832H19.5674V9.59961H18.1729C18.2822 9.83659 18.3369 10.0531 18.3369 10.249C18.3369 10.5225 18.264 10.8027 18.1182 11.0898C17.9723 11.377 17.6214 11.7598 17.0654 12.2383C16.5231 12.7077 16.252 13.0381 16.252 13.2295C16.252 13.3799 16.3499 13.5143 16.5459 13.6328C16.7373 13.7559 17.0768 13.8971 17.5645 14.0566C18.2663 14.2891 18.7812 14.5192 19.1094 14.7471C19.4375 14.9749 19.6016 15.278 19.6016 15.6562C19.6016 16.3398 19.1641 16.9209 18.2891 17.3994C17.4141 17.8825 16.4274 18.124 15.3291 18.124C14.5179 18.124 13.8434 17.9805 13.3057 17.6934C12.7679 17.4108 12.499 17.0371 12.499 16.5723C12.499 16.112 12.7998 15.6995 13.4014 15.335C14.0075 14.9749 14.8232 14.6947 15.8486 14.4941C15.6846 14.3757 15.5592 14.2549 15.4727 14.1318C15.3906 14.0042 15.3496 13.8721 15.3496 13.7354C15.3496 13.5485 15.4134 13.373 15.541 13.209C15.6686 13.0449 15.9124 12.8216 16.2725 12.5391ZM15.9033 8.9707C15.443 8.9707 15.0853 9.13477 14.8301 9.46289C14.5749 9.79102 14.4473 10.1829 14.4473 10.6387C14.4473 11.099 14.5749 11.4909 14.8301 11.8145C15.0853 12.138 15.4225 12.2998 15.8418 12.2998C16.2474 12.2998 16.5846 12.1403 16.8535 11.8213C17.127 11.5023 17.2637 11.1035 17.2637 10.625C17.2637 10.1419 17.1315 9.74544 16.8672 9.43555C16.6074 9.12565 16.2861 8.9707 15.9033 8.9707ZM16.2725 14.6719C15.3382 14.9089 14.6364 15.1755 14.167 15.4717C13.6976 15.7725 13.4629 16.1006 13.4629 16.4561C13.4629 16.7751 13.6543 17.0622 14.0371 17.3174C14.4245 17.5771 15.0033 17.707 15.7734 17.707C16.6621 17.707 17.3617 17.5384 17.8721 17.2012C18.3825 16.8639 18.6377 16.4788 18.6377 16.0459C18.6377 15.8089 18.5329 15.6221 18.3232 15.4854C18.1182 15.3486 17.6966 15.1709 17.0586 14.9521L16.2725 14.6719Z" fill="#333333"/>
</svg>
