<svg width="24" height="24" viewBox="0 0 24 24" fill="none" xmlns="http://www.w3.org/2000/svg">
<path d="M11.6969 14.838C11.7809 15.0527 11.8556 15.2067 11.9209 15.3C11.9956 15.3933 12.0936 15.4587 12.2149 15.496C12.3363 15.524 12.5276 15.538 12.7889 15.538V16H8.58892V15.538H9.24692C9.49892 15.538 9.62492 15.4307 9.62492 15.216C9.62492 15.132 9.61092 15.0433 9.58292 14.95L8.78492 12.724H5.90092L5.10292 14.992C5.07492 15.0853 5.06092 15.1693 5.06092 15.244C5.06092 15.3467 5.08892 15.4213 5.14492 15.468C5.21026 15.5147 5.31759 15.538 5.46692 15.538H6.05492V16H3.14292V15.538C3.52559 15.538 3.79626 15.4913 3.95492 15.398C4.11359 15.2953 4.25359 15.0853 4.37492 14.768L7.45492 6.76H8.78492L11.6969 14.838ZM8.60292 12.206L7.35692 8.748H7.31492L6.08292 12.206H8.60292ZM19.7887 9.266C20.0967 9.266 20.3394 9.34067 20.5167 9.49C20.694 9.63 20.7827 9.826 20.7827 10.078C20.7827 10.274 20.7314 10.4327 20.6287 10.554C20.526 10.6753 20.372 10.736 20.1667 10.736C19.9987 10.736 19.868 10.6987 19.7747 10.624C19.6814 10.54 19.6347 10.4327 19.6347 10.302C19.6347 10.2367 19.6394 10.176 19.6487 10.12C19.6674 10.064 19.6767 10.0173 19.6767 9.98C19.6767 9.94267 19.658 9.91 19.6207 9.882C19.5834 9.854 19.5274 9.84 19.4527 9.84C19.2474 9.84 19.0607 9.952 18.8927 10.176C19.21 10.5213 19.3687 10.9647 19.3687 11.506C19.3687 12.2247 19.0887 12.766 18.5287 13.13C17.978 13.494 17.2687 13.676 16.4007 13.676C16.0647 13.676 15.7567 13.648 15.4767 13.592C15.1874 13.7413 15.0427 13.9 15.0427 14.068C15.0427 14.18 15.1127 14.278 15.2527 14.362C15.3927 14.446 15.6307 14.488 15.9667 14.488H17.4087C18.2487 14.488 18.8787 14.6607 19.2987 15.006C19.7187 15.3513 19.9287 15.8507 19.9287 16.504C19.9287 17.316 19.6114 17.9273 18.9767 18.338C18.342 18.758 17.446 18.968 16.2887 18.968C15.3647 18.968 14.6274 18.828 14.0767 18.548C13.5354 18.2773 13.2647 17.8667 13.2647 17.316C13.2647 16.6813 13.666 16.2053 14.4687 15.888C14.282 15.7667 14.1327 15.6127 14.0207 15.426C13.918 15.2393 13.8667 15.0387 13.8667 14.824C13.8667 14.2547 14.2167 13.7973 14.9167 13.452C14.4687 13.2933 14.1187 13.0507 13.8667 12.724C13.6147 12.3973 13.4887 11.996 13.4887 11.52C13.4887 10.7827 13.7687 10.2273 14.3287 9.854C14.8887 9.47133 15.5887 9.28 16.4287 9.28C17.3247 9.28 18.0387 9.476 18.5707 9.868C18.86 9.46667 19.266 9.266 19.7887 9.266ZM16.4287 13.228C16.7647 13.228 17.012 13.088 17.1707 12.808C17.3294 12.528 17.4087 12.066 17.4087 11.422C17.4087 10.806 17.3387 10.372 17.1987 10.12C17.068 9.85867 16.8254 9.728 16.4707 9.728C16.1067 9.728 15.8547 9.86333 15.7147 10.134C15.5747 10.3953 15.5047 10.8527 15.5047 11.506C15.5047 12.1407 15.57 12.5887 15.7007 12.85C15.8407 13.102 16.0834 13.228 16.4287 13.228ZM18.6687 17.19C18.6687 16.8073 18.5054 16.532 18.1787 16.364C17.8614 16.2053 17.362 16.126 16.6807 16.126H15.2667H15.2387C14.884 16.3873 14.7067 16.742 14.7067 17.19C14.7067 17.6007 14.8654 17.9227 15.1827 18.156C15.5094 18.3987 15.9854 18.52 16.6107 18.52C17.2267 18.52 17.7214 18.4033 18.0947 18.17C18.4774 17.946 18.6687 17.6193 18.6687 17.19Z" fill="#888888"/>
</svg>
