<svg width="24" height="24" viewBox="0 0 24 24" fill="none" xmlns="http://www.w3.org/2000/svg">
<path d="M5.45533 14.746C5.23599 15.1053 5.14499 15.3993 5.18233 15.628C5.22433 15.8567 5.35499 16.0153 5.57433 16.104L5.84733 16.202C5.94533 16.2487 6.01299 16.3047 6.05033 16.37C6.09233 16.4307 6.11333 16.4937 6.11333 16.559C6.11333 16.6943 6.06433 16.8017 5.96633 16.881C5.86833 16.9603 5.73766 17 5.57433 17H3.30633C3.14299 17 3.01933 16.9673 2.93533 16.902C2.85133 16.832 2.80933 16.7387 2.80933 16.622C2.80933 16.51 2.84199 16.4097 2.90733 16.321C2.97266 16.2323 3.10566 16.1343 3.30633 16.027C3.47899 15.9383 3.66566 15.7657 3.86633 15.509C4.06699 15.2477 4.26766 14.942 4.46833 14.592L7.40133 9.748C8.00333 8.81933 8.64733 8.13333 9.33333 7.69C10.024 7.242 10.745 7.018 11.4963 7.018C11.7903 7.018 11.998 7.06 12.1193 7.144C12.2407 7.228 12.3013 7.33533 12.3013 7.466C12.3013 7.55467 12.2803 7.63167 12.2383 7.697C12.201 7.76233 12.1333 7.823 12.0353 7.879C11.83 7.95833 11.669 8.07967 11.5523 8.243C11.4357 8.40633 11.375 8.649 11.3703 8.971C11.3703 9.13433 11.368 9.35367 11.3633 9.629C11.3587 9.89967 11.3517 10.2077 11.3423 10.553C11.3377 10.8937 11.333 11.253 11.3283 11.631C11.3237 12.0043 11.3167 12.3753 11.3073 12.744C11.3027 13.1127 11.298 13.4603 11.2933 13.787C11.2933 14.109 11.2933 14.3913 11.2933 14.634C11.2933 14.872 11.2933 15.0517 11.2933 15.173C11.2933 15.355 11.3027 15.5067 11.3213 15.628C11.3447 15.7493 11.3913 15.852 11.4613 15.936C11.536 16.0153 11.6503 16.097 11.8043 16.181C11.9537 16.2837 12.0283 16.4143 12.0283 16.573C12.0283 16.6943 11.9793 16.797 11.8813 16.881C11.788 16.9603 11.655 17 11.4823 17H8.10133C7.938 17 7.82366 16.9627 7.75833 16.888C7.69299 16.8133 7.66033 16.7223 7.66033 16.615C7.66033 16.503 7.69533 16.412 7.76533 16.342C7.83533 16.272 7.938 16.209 8.07333 16.153L8.38833 16.076C8.53766 16.0247 8.64499 15.9243 8.71033 15.775C8.77566 15.6257 8.81066 15.439 8.81533 15.215C8.82 15.047 8.82466 14.83 8.82933 14.564C8.83866 14.298 8.848 13.997 8.85733 13.661C8.86666 13.325 8.876 12.9727 8.88533 12.604C8.89466 12.2307 8.90399 11.855 8.91333 11.477C8.92266 11.0943 8.92966 10.7257 8.93433 10.371C8.939 10.0163 8.94366 9.68967 8.94833 9.391C8.95766 9.08767 8.96233 8.831 8.96233 8.621L9.49433 8.768C9.39166 8.81933 9.27733 8.89633 9.15133 8.999C9.02533 9.097 8.88299 9.24167 8.72433 9.433C8.56566 9.61967 8.379 9.87633 8.16433 10.203L5.45533 14.746ZM5.42033 13.906L5.57433 13.164H9.55033L9.48733 13.906H5.42033ZM19.282 16.846C19.1093 17.6347 18.8106 18.3043 18.386 18.855C17.966 19.4103 17.42 19.8327 16.748 20.122C16.076 20.4113 15.2826 20.556 14.368 20.556C13.6306 20.556 13.0683 20.4253 12.681 20.164C12.2936 19.9073 12.1 19.5737 12.1 19.163C12.1 18.883 12.1956 18.6427 12.387 18.442C12.5736 18.246 12.8303 18.148 13.157 18.148C13.3996 18.148 13.6213 18.2203 13.822 18.365C14.0226 18.5143 14.2093 18.6847 14.382 18.876C14.5546 19.072 14.725 19.2423 14.893 19.387C15.061 19.5317 15.2336 19.604 15.411 19.604C15.5976 19.604 15.768 19.5597 15.922 19.471C16.076 19.3823 16.2136 19.2353 16.335 19.03C16.461 18.8247 16.566 18.5517 16.65 18.211L17.553 14.599L17.868 14.788C17.7093 15.278 17.476 15.705 17.168 16.069C16.86 16.4283 16.503 16.706 16.097 16.902C15.691 17.0933 15.2616 17.189 14.809 17.189C14.417 17.189 14.081 17.105 13.801 16.937C13.521 16.769 13.3156 16.5147 13.185 16.174C13.059 15.8333 13.024 15.4063 13.08 14.893C13.1266 14.4357 13.241 13.9853 13.423 13.542C13.6096 13.0987 13.857 12.681 14.165 12.289C14.473 11.897 14.8393 11.5517 15.264 11.253C15.6886 10.9543 16.167 10.721 16.699 10.553C17.231 10.3803 17.812 10.294 18.442 10.294C19.0113 10.294 19.4826 10.3337 19.856 10.413C20.2293 10.4877 20.5023 10.5903 20.675 10.721C20.8476 10.8517 20.9246 10.9963 20.906 11.155C20.8873 11.3043 20.836 11.4093 20.752 11.47C20.6726 11.5307 20.5886 11.5937 20.5 11.659C20.416 11.7197 20.3576 11.8247 20.325 11.974L19.282 16.846ZM15.53 14.83C15.502 15.0913 15.5043 15.299 15.537 15.453C15.5743 15.607 15.6303 15.7167 15.705 15.782C15.7796 15.8473 15.866 15.88 15.964 15.88C16.1273 15.88 16.2953 15.8147 16.468 15.684C16.6453 15.5487 16.8203 15.362 16.993 15.124C17.1656 14.8813 17.3266 14.6037 17.476 14.291C17.63 13.9737 17.763 13.6283 17.875 13.255C17.9916 12.8817 18.0756 12.4967 18.127 12.1C18.183 11.778 18.183 11.5423 18.127 11.393C18.071 11.2437 17.9636 11.169 17.805 11.169C17.6043 11.169 17.4013 11.2413 17.196 11.386C16.9953 11.526 16.8016 11.722 16.615 11.974C16.433 12.2213 16.265 12.5037 16.111 12.821C15.957 13.1337 15.8286 13.4627 15.726 13.808C15.628 14.1487 15.5626 14.4893 15.53 14.83Z" fill="#888888"/>
</svg>
