<svg width="24" height="24" viewBox="0 0 24 24" fill="none" xmlns="http://www.w3.org/2000/svg">
<path d="M5.05245 15.019C4.85645 15.3503 4.77712 15.621 4.81445 15.831C4.85179 16.0363 4.97312 16.1763 5.17845 16.251L5.50045 16.328C5.58912 16.3653 5.65212 16.412 5.68945 16.468C5.73145 16.5193 5.75245 16.5753 5.75245 16.636C5.75245 16.748 5.71045 16.8367 5.62645 16.902C5.54245 16.9673 5.42812 17 5.28345 17H3.09245C2.94312 17 2.83112 16.972 2.75645 16.916C2.68179 16.86 2.64445 16.7807 2.64445 16.678C2.64445 16.5847 2.67712 16.503 2.74245 16.433C2.80312 16.3583 2.91979 16.279 3.09245 16.195C3.26512 16.125 3.44479 15.978 3.63145 15.754C3.81812 15.53 4.00712 15.25 4.19845 14.914L7.49545 9.524C8.06012 8.67467 8.64345 8.04933 9.24545 7.648C9.84745 7.242 10.4658 7.039 11.1005 7.039C11.3385 7.039 11.5065 7.074 11.6045 7.144C11.7025 7.20933 11.7515 7.29567 11.7515 7.403C11.7515 7.48233 11.7305 7.55 11.6885 7.606C11.6511 7.65733 11.5881 7.704 11.4995 7.746C11.3081 7.81133 11.1565 7.921 11.0445 8.075C10.9371 8.229 10.8811 8.453 10.8765 8.747C10.8765 8.915 10.8718 9.14367 10.8625 9.433C10.8578 9.72233 10.8508 10.0513 10.8415 10.42C10.8368 10.784 10.8298 11.169 10.8205 11.575C10.8158 11.981 10.8088 12.3847 10.7995 12.786C10.7948 13.1873 10.7901 13.5653 10.7855 13.92C10.7808 14.2747 10.7785 14.585 10.7785 14.851C10.7785 15.117 10.7785 15.3153 10.7785 15.446C10.7785 15.6093 10.7925 15.7447 10.8205 15.852C10.8531 15.9547 10.9091 16.0433 10.9885 16.118C11.0725 16.188 11.1915 16.258 11.3455 16.328C11.4901 16.4073 11.5625 16.5147 11.5625 16.65C11.5625 16.748 11.5228 16.832 11.4435 16.902C11.3641 16.9673 11.2498 17 11.1005 17H7.99245C7.85712 17 7.76145 16.9697 7.70545 16.909C7.64945 16.8483 7.62145 16.7737 7.62145 16.685C7.62145 16.5963 7.64945 16.5217 7.70545 16.461C7.76612 16.4003 7.85245 16.349 7.96445 16.307L8.36345 16.216C8.50812 16.1693 8.61545 16.083 8.68545 15.957C8.75545 15.831 8.79279 15.6677 8.79745 15.467C8.80212 15.299 8.80679 15.0727 8.81145 14.788C8.81612 14.5033 8.82312 14.179 8.83245 13.815C8.84645 13.451 8.85812 13.066 8.86745 12.66C8.87679 12.254 8.88612 11.8457 8.89545 11.435C8.90479 11.0197 8.91179 10.623 8.91645 10.245C8.92579 9.86233 8.93279 9.51467 8.93745 9.202C8.94679 8.88933 8.95145 8.63033 8.95145 8.425L9.37845 8.558C9.28512 8.60467 9.17779 8.67933 9.05645 8.782C8.93979 8.88 8.80445 9.01767 8.65045 9.195C8.50112 9.37233 8.32612 9.61033 8.12545 9.909L5.05245 15.019ZM5.31145 13.843L5.47245 13.227H9.43445L9.37845 13.843H5.31145ZM18.3893 16.916C18.2166 17.7047 17.918 18.3697 17.4933 18.911C17.0686 19.4523 16.5296 19.8583 15.8763 20.129C15.2276 20.4043 14.474 20.542 13.6153 20.542C12.9713 20.542 12.486 20.4347 12.1593 20.22C11.828 20.0053 11.6623 19.7277 11.6623 19.387C11.6623 19.1537 11.7416 18.9553 11.9003 18.792C12.059 18.6287 12.2736 18.547 12.5443 18.547C12.7543 18.547 12.9456 18.6053 13.1183 18.722C13.2956 18.8433 13.4613 18.981 13.6153 19.135C13.774 19.2937 13.9326 19.4313 14.0913 19.548C14.25 19.6647 14.4133 19.723 14.5813 19.723C14.8286 19.723 15.062 19.667 15.2813 19.555C15.5006 19.443 15.6943 19.2587 15.8623 19.002C16.0303 18.75 16.1656 18.4117 16.2683 17.987L17.1713 14.326L17.4373 14.494C17.2366 15.0493 16.973 15.5277 16.6463 15.929C16.3196 16.3303 15.9533 16.6383 15.5473 16.853C15.1413 17.063 14.7096 17.168 14.2523 17.168C13.8976 17.168 13.592 17.091 13.3353 16.937C13.0786 16.783 12.8896 16.5473 12.7683 16.23C12.6516 15.9127 12.6166 15.5113 12.6633 15.026C12.7053 14.5593 12.8173 14.102 12.9993 13.654C13.186 13.2013 13.4333 12.7767 13.7413 12.38C14.0493 11.9833 14.411 11.6357 14.8263 11.337C15.2463 11.0337 15.713 10.798 16.2263 10.63C16.7396 10.4573 17.2903 10.371 17.8783 10.371C18.359 10.371 18.7556 10.4037 19.0683 10.469C19.381 10.5343 19.612 10.623 19.7613 10.735C19.9106 10.847 19.9783 10.9707 19.9643 11.106C19.9503 11.232 19.9083 11.3253 19.8383 11.386C19.773 11.442 19.703 11.5003 19.6283 11.561C19.5536 11.617 19.5046 11.708 19.4813 11.834L18.3893 16.916ZM14.6303 14.921C14.6023 15.2197 14.6116 15.4553 14.6583 15.628C14.705 15.796 14.775 15.9173 14.8683 15.992C14.9663 16.062 15.076 16.097 15.1973 16.097C15.398 16.097 15.6033 16.0177 15.8133 15.859C16.028 15.7003 16.238 15.481 16.4433 15.201C16.6486 14.921 16.8376 14.6037 17.0103 14.249C17.1876 13.8943 17.3346 13.5187 17.4513 13.122C17.5726 12.7207 17.6543 12.3217 17.6963 11.925C17.7336 11.6403 17.722 11.4327 17.6613 11.302C17.6006 11.1667 17.491 11.099 17.3323 11.099C17.0896 11.099 16.847 11.1713 16.6043 11.316C16.3616 11.4607 16.1283 11.6613 15.9043 11.918C15.6803 12.17 15.4773 12.4593 15.2953 12.786C15.1133 13.1127 14.964 13.458 14.8473 13.822C14.7306 14.186 14.6583 14.5523 14.6303 14.921Z" fill="#888888"/>
</svg>
