<svg width="24" height="24" viewBox="0 0 24 24" fill="none" xmlns="http://www.w3.org/2000/svg">
<path d="M5.59468 13.283H9.83668L9.90668 13.584H5.49668L5.59468 13.283ZM5.95868 16.888C5.95868 16.9207 5.94235 16.9487 5.90968 16.972C5.88168 16.9907 5.83501 17 5.76968 17H3.65568C3.58568 17 3.53435 16.9907 3.50168 16.972C3.46901 16.9533 3.45268 16.9277 3.45268 16.895C3.45268 16.867 3.46668 16.846 3.49468 16.832C3.52268 16.8133 3.58335 16.7923 3.67668 16.769L4.02668 16.678C4.14801 16.6453 4.23435 16.594 4.28568 16.524C4.34168 16.4493 4.40468 16.3117 4.47468 16.111L7.37268 7.725C7.41001 7.627 7.41001 7.55933 7.37268 7.522C7.34001 7.48 7.24201 7.44967 7.07868 7.431C6.94801 7.417 6.85701 7.40067 6.80568 7.382C6.75901 7.36333 6.73568 7.33533 6.73568 7.298C6.73568 7.26533 6.75201 7.242 6.78468 7.228C6.82201 7.20933 6.87101 7.2 6.93168 7.2H8.76568C8.83101 7.2 8.87768 7.20933 8.90568 7.228C8.93835 7.242 8.95468 7.263 8.95468 7.291C8.95468 7.32833 8.93368 7.35867 8.89168 7.382C8.84968 7.40067 8.76101 7.417 8.62568 7.431C8.48101 7.445 8.39468 7.46833 8.36668 7.501C8.33868 7.53367 8.33868 7.592 8.36668 7.676L11.4047 16.377C11.442 16.4937 11.5073 16.5823 11.6007 16.643C11.694 16.699 11.8363 16.7387 12.0277 16.762C12.1303 16.7713 12.198 16.7853 12.2307 16.804C12.268 16.8227 12.2867 16.8507 12.2867 16.888C12.2867 16.9207 12.268 16.9487 12.2307 16.972C12.198 16.9907 12.149 17 12.0837 17H9.92068C9.86468 17 9.81801 16.9907 9.78068 16.972C9.74801 16.9487 9.73168 16.9207 9.73168 16.888C9.73168 16.8553 9.74801 16.8297 9.78068 16.811C9.81335 16.7877 9.86701 16.7737 9.94168 16.769L10.6137 16.713C10.7303 16.7037 10.798 16.6663 10.8167 16.601C10.8353 16.5357 10.819 16.4307 10.7677 16.286L7.68068 7.466L7.82768 7.445L4.84568 16.104C4.80368 16.23 4.78268 16.335 4.78268 16.419C4.78268 16.4983 4.80835 16.5613 4.85968 16.608C4.91568 16.65 4.99735 16.678 5.10468 16.692L5.74868 16.769C5.82801 16.7783 5.88168 16.7923 5.90968 16.811C5.94235 16.825 5.95868 16.8507 5.95868 16.888ZM16.8519 16.944C16.1799 16.8087 15.6899 16.685 15.3819 16.573C15.0739 16.461 14.8779 16.3537 14.7939 16.251C14.7099 16.1483 14.6679 16.0457 14.6679 15.943C14.6679 15.817 14.7145 15.7003 14.8079 15.593C14.9012 15.4857 15.0669 15.3737 15.3049 15.257L15.0389 15.187C14.8335 15.2803 14.6702 15.3783 14.5489 15.481C14.4322 15.5837 14.3505 15.6887 14.3039 15.796C14.2572 15.9033 14.2339 16.0083 14.2339 16.111C14.2339 16.2697 14.2899 16.4167 14.4019 16.552C14.5185 16.6827 14.7472 16.811 15.0879 16.937C15.4285 17.063 15.9372 17.1913 16.6139 17.322C17.1739 17.4293 17.6009 17.553 17.8949 17.693C18.1935 17.8377 18.3989 17.994 18.5109 18.162C18.6229 18.3347 18.6789 18.5213 18.6789 18.722C18.6789 19.0113 18.5832 19.2633 18.3919 19.478C18.2005 19.6973 17.9182 19.8653 17.5449 19.982C17.1762 20.1033 16.7212 20.164 16.1799 20.164C15.2232 20.164 14.5395 20.0193 14.1289 19.73C13.7229 19.4453 13.5199 19.0813 13.5199 18.638C13.5199 18.2367 13.7299 17.8797 14.1499 17.567C14.5745 17.259 15.1999 17.063 16.0259 16.979L15.8159 16.783C14.8032 16.9137 14.0915 17.1587 13.6809 17.518C13.2702 17.8773 13.0649 18.2647 13.0649 18.68C13.0649 19.002 13.1745 19.2937 13.3939 19.555C13.6179 19.821 13.9539 20.0333 14.4019 20.192C14.8545 20.3507 15.4309 20.43 16.1309 20.43C17.0875 20.43 17.8272 20.2643 18.3499 19.933C18.8725 19.6017 19.1339 19.177 19.1339 18.659C19.1339 18.393 19.0662 18.1527 18.9309 17.938C18.8002 17.7233 18.5692 17.532 18.2379 17.364C17.9065 17.196 17.4445 17.056 16.8519 16.944ZM17.4959 11.169L17.6989 11.267C17.9042 10.9683 18.0675 10.7747 18.1889 10.686C18.3102 10.5973 18.4245 10.553 18.5319 10.553C18.6112 10.553 18.6765 10.5787 18.7279 10.63C18.7792 10.6767 18.8259 10.7303 18.8679 10.791C18.9145 10.8517 18.9635 10.9077 19.0149 10.959C19.0662 11.0103 19.1292 11.036 19.2039 11.036C19.3019 11.036 19.3765 11.0033 19.4279 10.938C19.4839 10.8727 19.5119 10.784 19.5119 10.672C19.5119 10.518 19.4489 10.3897 19.3229 10.287C19.2015 10.1843 19.0382 10.133 18.8329 10.133C18.6322 10.133 18.4362 10.196 18.2449 10.322C18.0535 10.448 17.8762 10.6277 17.7129 10.861L17.4959 11.169ZM18.5949 12.947C18.5949 12.471 18.4782 12.044 18.2449 11.666C18.0162 11.2833 17.7035 10.9823 17.3069 10.763C16.9149 10.5437 16.4739 10.434 15.9839 10.434C15.4985 10.434 15.0552 10.546 14.6539 10.77C14.2572 10.9893 13.9399 11.295 13.7019 11.687C13.4639 12.079 13.3449 12.5387 13.3449 13.066C13.3449 13.5327 13.4615 13.9573 13.6949 14.34C13.9282 14.7227 14.2409 15.0237 14.6329 15.243C15.0295 15.4623 15.4729 15.572 15.9629 15.572C16.4435 15.572 16.8845 15.4623 17.2859 15.243C17.6872 15.0237 18.0045 14.7157 18.2379 14.319C18.4759 13.9223 18.5949 13.465 18.5949 12.947ZM15.8789 10.721C16.5322 10.721 17.0595 10.9473 17.4609 11.4C17.8622 11.848 18.0629 12.4243 18.0629 13.129C18.0629 13.787 17.8855 14.312 17.5309 14.704C17.1762 15.0913 16.6862 15.285 16.0609 15.285C15.6269 15.285 15.2442 15.1823 14.9129 14.977C14.5862 14.7717 14.3319 14.487 14.1499 14.123C13.9679 13.759 13.8769 13.3437 13.8769 12.877C13.8769 12.4383 13.9562 12.058 14.1149 11.736C14.2735 11.4093 14.5022 11.1597 14.8009 10.987C15.1042 10.8097 15.4635 10.721 15.8789 10.721Z" fill="#888888"/>
</svg>
