<svg width="24" height="24" viewBox="0 0 24 24" fill="none" xmlns="http://www.w3.org/2000/svg">
<path d="M13.0871 15.642C13.1991 15.8753 13.2597 16.076 13.2691 16.244C13.2784 16.4027 13.2271 16.5473 13.1151 16.678C13.0124 16.7993 12.8397 16.9207 12.5971 17.042C12.2237 17.2193 11.9344 17.2707 11.7291 17.196C11.5237 17.1307 11.3324 16.9113 11.1551 16.538L8.41108 10.798L5.68108 16.538C5.49441 16.902 5.29841 17.1167 5.09308 17.182C4.89708 17.2567 4.61241 17.2053 4.23908 17.028C3.99641 16.916 3.81908 16.7993 3.70708 16.678C3.60441 16.5473 3.55774 16.398 3.56708 16.23C3.57641 16.0527 3.64174 15.8473 3.76308 15.614L7.44508 7.956C7.53841 7.76933 7.67374 7.62 7.85108 7.508C8.03775 7.396 8.22908 7.34 8.42508 7.34C8.56508 7.34 8.69574 7.368 8.81708 7.424C8.93841 7.47067 9.04575 7.54067 9.13908 7.634C9.24175 7.72733 9.32575 7.83933 9.39108 7.97L13.0871 15.642ZM6.05908 14.844L6.92708 13.038H9.90908L10.7771 14.844H6.05908ZM16.5443 20.01C16.2176 20.01 15.891 19.968 15.5643 19.884C15.2376 19.8 14.939 19.688 14.6683 19.548C14.3976 19.408 14.183 19.2587 14.0243 19.1C13.8656 18.9413 13.7863 18.7827 13.7863 18.624C13.7863 18.4747 13.8143 18.3347 13.8703 18.204C13.9263 18.0827 14.0103 17.9613 14.1223 17.84C14.253 17.7 14.365 17.5927 14.4583 17.518C14.5516 17.4433 14.6636 17.406 14.7943 17.406C14.925 17.406 15.0416 17.4387 15.1443 17.504C15.247 17.5787 15.3543 17.658 15.4663 17.742C15.5876 17.826 15.737 17.9007 15.9143 17.966C16.0916 18.0407 16.3156 18.078 16.5863 18.078C16.7823 18.078 16.9596 18.0407 17.1183 17.966C17.277 17.9007 17.417 17.798 17.5383 17.658C17.6596 17.5273 17.753 17.3687 17.8183 17.182C17.8836 17.0047 17.9163 16.804 17.9163 16.58V10.784C17.9443 10.5413 18.0376 10.3687 18.1963 10.266C18.3643 10.154 18.6163 10.098 18.9523 10.098C19.2883 10.098 19.5216 10.1493 19.6523 10.252C19.7923 10.3453 19.8763 10.4713 19.9043 10.63C19.9416 10.7887 19.9603 10.9567 19.9603 11.134V16.664C19.9603 17.196 19.8623 17.6673 19.6663 18.078C19.4703 18.498 19.209 18.848 18.8823 19.128C18.5556 19.4173 18.1916 19.6367 17.7903 19.786C17.389 19.9353 16.9736 20.01 16.5443 20.01ZM16.2923 16.944C15.8723 16.944 15.471 16.8553 15.0883 16.678C14.715 16.4913 14.379 16.2393 14.0803 15.922C13.791 15.6047 13.5623 15.2407 13.3943 14.83C13.2263 14.4193 13.1423 13.9853 13.1423 13.528C13.1423 13.0707 13.2263 12.6413 13.3943 12.24C13.5623 11.8293 13.791 11.47 14.0803 11.162C14.379 10.8447 14.715 10.5973 15.0883 10.42C15.471 10.2333 15.8723 10.14 16.2923 10.14C16.703 10.14 17.053 10.224 17.3423 10.392C17.6316 10.5507 17.865 10.784 18.0423 11.092C18.229 11.3907 18.3643 11.75 18.4483 12.17C18.5323 12.5807 18.5743 13.0427 18.5743 13.556C18.5743 14.2467 18.4996 14.8487 18.3503 15.362C18.201 15.866 17.9583 16.258 17.6223 16.538C17.2863 16.8087 16.843 16.944 16.2923 16.944ZM16.5443 14.914C16.787 14.914 17.0063 14.8533 17.2023 14.732C17.3983 14.6013 17.5523 14.4333 17.6643 14.228C17.7856 14.0227 17.8463 13.7893 17.8463 13.528C17.8463 13.2667 17.7856 13.0333 17.6643 12.828C17.5523 12.6227 17.3936 12.4593 17.1883 12.338C16.9923 12.2167 16.7683 12.156 16.5163 12.156C16.2643 12.156 16.0403 12.2167 15.8443 12.338C15.6483 12.4593 15.4896 12.6273 15.3683 12.842C15.2563 13.0473 15.2003 13.2807 15.2003 13.542C15.2003 13.794 15.261 14.0227 15.3823 14.228C15.5036 14.4333 15.6623 14.6013 15.8583 14.732C16.0636 14.8533 16.2923 14.914 16.5443 14.914Z" fill="#888888"/>
</svg>
