<svg width="24" height="24" viewBox="0 0 24 24" fill="none" xmlns="http://www.w3.org/2000/svg">
<g clip-path="url(#clip0_201_2743)">
<path d="M12.5664 16.207C12.5755 16.2435 12.571 16.2708 12.5527 16.2891C12.5345 16.3073 12.5345 16.3346 12.5527 16.3711C12.4342 16.4896 12.2611 16.5807 12.0332 16.6445C11.9603 16.6719 11.8783 16.6855 11.7871 16.6855C11.7324 16.6855 11.6777 16.681 11.623 16.6719C11.5684 16.6628 11.5182 16.6628 11.4727 16.6719C11.3997 16.6992 11.3451 16.7448 11.3086 16.8086C11.2812 16.8724 11.2585 16.9408 11.2402 17.0137C11.14 17.0592 11.0397 17.0866 10.9395 17.0957C10.8483 17.1139 10.7617 17.1413 10.6797 17.1777C10.6432 17.196 10.6113 17.2096 10.584 17.2188C10.5658 17.237 10.5339 17.2552 10.4883 17.2734C10.4427 17.2917 10.3971 17.3008 10.3516 17.3008C10.3151 17.3008 10.2786 17.3281 10.2422 17.3828C10.1237 17.4102 10.0052 17.4466 9.88672 17.4922C9.76823 17.5469 9.64974 17.5879 9.53125 17.6152C9.41276 17.6517 9.29427 17.6699 9.17578 17.6699C9.05729 17.679 8.94336 17.6517 8.83398 17.5879C8.67904 17.4056 8.5651 17.2507 8.49219 17.123C8.41927 17.0046 8.33268 16.8861 8.23242 16.7676C8.19596 16.722 8.15495 16.681 8.10938 16.6445C8.07292 16.599 8.04557 16.5534 8.02734 16.5078C7.96354 16.3802 7.91341 16.2891 7.87695 16.2344C7.84049 16.1797 7.80404 16.1204 7.76758 16.0566C7.68555 15.9382 7.61263 15.8151 7.54883 15.6875C7.49414 15.5599 7.42122 15.4414 7.33008 15.332C7.01107 15.332 6.70117 15.3503 6.40039 15.3867C6.09961 15.4232 5.80794 15.4414 5.52539 15.4414C5.47982 15.4414 5.43424 15.4368 5.38867 15.4277C5.35221 15.4186 5.3112 15.4095 5.26562 15.4004C5.22005 15.4004 5.17448 15.4049 5.12891 15.4141C5.08333 15.4232 5.03776 15.4232 4.99219 15.4141C4.8737 15.3958 4.79167 15.3776 4.74609 15.3594C4.70964 15.332 4.66406 15.3138 4.60938 15.3047C4.49089 15.2865 4.38151 15.3001 4.28125 15.3457C4.18099 15.3913 4.08984 15.4414 4.00781 15.4961C3.95312 15.4688 3.90755 15.4688 3.87109 15.4961C3.83464 15.5143 3.78906 15.5326 3.73438 15.5508C3.67057 15.569 3.59766 15.5781 3.51562 15.5781C3.44271 15.5781 3.36979 15.5872 3.29688 15.6055C3.22396 15.6237 3.14648 15.6374 3.06445 15.6465C2.98242 15.6465 2.91406 15.6647 2.85938 15.7012C2.84115 15.7194 2.8138 15.7695 2.77734 15.8516C2.75 15.9245 2.72721 15.9746 2.70898 16.002C2.69987 16.0293 2.69531 16.0566 2.69531 16.084C2.69531 16.1113 2.6862 16.1387 2.66797 16.166C2.61328 16.321 2.56771 16.4941 2.53125 16.6855C2.49479 16.8678 2.44922 17.0365 2.39453 17.1914C2.34896 17.2279 2.30794 17.2643 2.27148 17.3008C2.24414 17.3464 2.20768 17.3737 2.16211 17.3828C2.09831 17.401 2.02083 17.401 1.92969 17.3828C1.83854 17.3737 1.75651 17.3737 1.68359 17.3828C1.64714 17.3919 1.61068 17.401 1.57422 17.4102C1.53776 17.4193 1.49674 17.4238 1.45117 17.4238C1.36914 17.4329 1.28255 17.4329 1.19141 17.4238C1.10938 17.4147 1.03646 17.4193 0.972656 17.4375C0.936198 17.4466 0.895182 17.4648 0.849609 17.4922C0.804036 17.5286 0.749349 17.5469 0.685547 17.5469C0.61263 17.556 0.539714 17.5423 0.466797 17.5059C0.421224 17.4876 0.375651 17.4512 0.330078 17.3965C0.29362 17.3509 0.270833 17.2917 0.261719 17.2188C0.261719 17.1549 0.270833 17.0775 0.289062 16.9863C0.307292 16.8952 0.330078 16.8086 0.357422 16.7266C0.384766 16.6445 0.416667 16.5625 0.453125 16.4805C0.498698 16.3802 0.544271 16.2708 0.589844 16.1523C0.635417 16.0247 0.68099 15.9062 0.726562 15.7969C0.644531 15.7786 0.553385 15.7786 0.453125 15.7969C0.352865 15.806 0.252604 15.8197 0.152344 15.8379C0.106771 15.847 0.0520833 15.8516 -0.0117188 15.8516C-0.0664062 15.8516 -0.116536 15.8516 -0.162109 15.8516C-0.298828 15.8424 -0.380859 15.806 -0.408203 15.7422C-0.435547 15.6784 -0.453776 15.6055 -0.462891 15.5234C-0.462891 15.4414 -0.458333 15.3594 -0.449219 15.2773C-0.43099 15.1953 -0.408203 15.1315 -0.380859 15.0859C-0.380859 14.9492 -0.394531 14.8262 -0.421875 14.7168C-0.421875 14.6895 -0.426432 14.6621 -0.435547 14.6348C-0.444661 14.6074 -0.449219 14.5846 -0.449219 14.5664C-0.41276 14.4388 -0.399089 14.3385 -0.408203 14.2656C-0.408203 14.1927 -0.394531 14.1335 -0.367188 14.0879C-0.339844 14.0423 -0.303385 14.0059 -0.257812 13.9785C-0.21224 13.9876 -0.171224 13.9831 -0.134766 13.9648C-0.0983073 13.9375 -0.0572917 13.9193 -0.0117188 13.9102C0.106771 13.8919 0.220703 13.8874 0.330078 13.8965C0.448568 13.9056 0.567057 13.8919 0.685547 13.8555C0.794922 13.9557 0.940755 13.9785 1.12305 13.9238C1.15039 13.9147 1.18229 13.9056 1.21875 13.8965C1.25521 13.8874 1.29167 13.8783 1.32812 13.8691C1.41927 13.8327 1.48307 13.8099 1.51953 13.8008C1.63802 13.7917 1.70638 13.7461 1.72461 13.6641C1.75195 13.582 1.74284 13.5137 1.69727 13.459C1.77018 13.2858 1.83398 13.1126 1.88867 12.9395C1.95247 12.7663 2.02083 12.5931 2.09375 12.4199C2.12109 12.2923 2.15299 12.1738 2.18945 12.0645C2.23503 11.946 2.29883 11.8503 2.38086 11.7773C2.41732 11.7409 2.46745 11.7135 2.53125 11.6953C2.59505 11.6771 2.64062 11.6452 2.66797 11.5996C2.69531 11.554 2.70898 11.4902 2.70898 11.4082C2.7181 11.3171 2.71354 11.2487 2.69531 11.2031C2.6862 11.1849 2.66797 11.1621 2.64062 11.1348C2.6224 11.1074 2.61328 11.0801 2.61328 11.0527C2.60417 11.0254 2.60872 10.998 2.62695 10.9707C2.64518 10.9342 2.66341 10.8932 2.68164 10.8477C2.79102 10.5924 2.90039 10.3236 3.00977 10.041C3.12826 9.75846 3.24674 9.48047 3.36523 9.20703C3.41081 9.00651 3.47005 8.81966 3.54297 8.64648C3.625 8.47331 3.69336 8.29102 3.74805 8.09961C3.69336 7.99935 3.61589 7.88086 3.51562 7.74414C3.42448 7.59831 3.38802 7.44792 3.40625 7.29297C3.41536 7.22917 3.43359 7.18359 3.46094 7.15625C3.4974 7.11979 3.53841 7.07878 3.58398 7.0332C3.6569 6.98763 3.72982 6.95573 3.80273 6.9375C3.87565 6.91016 3.94857 6.87826 4.02148 6.8418C4.06706 6.82357 4.10807 6.80078 4.14453 6.77344C4.1901 6.74609 4.23568 6.72331 4.28125 6.70508C4.32682 6.68685 4.36784 6.67773 4.4043 6.67773C4.44987 6.66862 4.49089 6.65039 4.52734 6.62305C4.86458 6.56836 5.16536 6.45443 5.42969 6.28125C5.45703 6.26302 5.47982 6.24023 5.49805 6.21289C5.52539 6.18555 5.56185 6.16276 5.60742 6.14453C5.65299 6.1263 5.70312 6.10807 5.75781 6.08984C5.82161 6.0625 5.88997 6.03516 5.96289 6.00781C6.09961 5.94401 6.24544 5.90299 6.40039 5.88477C6.56445 5.86654 6.71484 5.89388 6.85156 5.9668C6.90625 5.94857 6.94271 5.95312 6.96094 5.98047C6.97917 6.00781 7.01107 6.04427 7.05664 6.08984C7.07487 6.1263 7.09766 6.15365 7.125 6.17188C7.15234 6.1901 7.17969 6.22201 7.20703 6.26758C7.30729 6.4043 7.39388 6.5638 7.4668 6.74609C7.54883 6.92839 7.63997 7.09701 7.74023 7.25195C7.76758 7.29753 7.79036 7.34766 7.80859 7.40234C7.83594 7.44792 7.86784 7.49349 7.9043 7.53906C7.92253 7.58464 7.94076 7.62565 7.95898 7.66211C7.98633 7.68945 8.01367 7.72591 8.04102 7.77148C8.05924 7.79883 8.07292 7.82617 8.08203 7.85352C8.10026 7.87174 8.11393 7.88997 8.12305 7.9082C8.14128 7.95378 8.16406 7.99935 8.19141 8.04492C8.21875 8.08138 8.23698 8.11328 8.24609 8.14062C8.25521 8.1862 8.25065 8.22721 8.23242 8.26367C8.22331 8.30013 8.21875 8.33659 8.21875 8.37305C8.23698 8.51888 8.28711 8.64648 8.36914 8.75586C8.45117 8.86523 8.5332 8.95638 8.61523 9.0293C8.64258 9.05664 8.67448 9.08398 8.71094 9.11133C8.7474 9.13867 8.78385 9.16602 8.82031 9.19336C8.84766 9.2207 8.86589 9.2526 8.875 9.28906C8.89323 9.32552 8.92513 9.35286 8.9707 9.37109C9.01628 9.44401 9.05273 9.52604 9.08008 9.61719C9.11654 9.70833 9.16211 9.78581 9.2168 9.84961C9.26237 9.9681 9.32161 10.082 9.39453 10.1914C9.46745 10.3008 9.53125 10.4147 9.58594 10.5332C9.60417 10.5788 9.6224 10.6243 9.64062 10.6699C9.65885 10.7155 9.67708 10.7611 9.69531 10.8066C9.77734 10.9889 9.86849 11.1712 9.96875 11.3535C10.069 11.5358 10.1647 11.7181 10.2559 11.9004C10.3014 11.9368 10.3333 11.9779 10.3516 12.0234C10.3698 12.069 10.3926 12.1146 10.4199 12.1602C10.4655 12.2057 10.5111 12.265 10.5566 12.3379C10.6113 12.4017 10.6478 12.4792 10.666 12.5703C10.6751 12.625 10.6751 12.6888 10.666 12.7617C10.666 12.8255 10.6615 12.8939 10.6523 12.9668C10.6432 13.0306 10.6387 13.099 10.6387 13.1719C10.6478 13.2357 10.6706 13.2949 10.707 13.3496C10.8073 13.4954 10.9577 13.6048 11.1582 13.6777C11.1764 13.7233 11.2083 13.7643 11.2539 13.8008C11.2995 13.8281 11.3405 13.8646 11.377 13.9102C11.5228 14.1836 11.6549 14.416 11.7734 14.6074C11.8919 14.7897 12.0013 14.9857 12.1016 15.1953C12.1198 15.2409 12.1426 15.291 12.1699 15.3457C12.2064 15.3913 12.2337 15.4368 12.252 15.4824C12.2793 15.528 12.2975 15.5736 12.3066 15.6191C12.3158 15.6556 12.3294 15.6921 12.3477 15.7285C12.3659 15.7741 12.3841 15.8151 12.4023 15.8516C12.4206 15.888 12.4388 15.9336 12.457 15.9883C12.4753 16.0247 12.498 16.0658 12.5254 16.1113C12.5527 16.1478 12.5664 16.1797 12.5664 16.207ZM0.548828 14.8125C0.567057 14.694 0.539714 14.6165 0.466797 14.5801C0.402995 14.5436 0.334635 14.5163 0.261719 14.498C0.115885 14.4889 0.0292969 14.5254 0.00195312 14.6074C-0.0253906 14.6803 -0.0208333 14.7396 0.015625 14.7852C0.0611979 14.8307 0.111328 14.8717 0.166016 14.9082C0.229818 14.9447 0.29362 14.972 0.357422 14.9902C0.402995 14.972 0.439453 14.9492 0.466797 14.9219C0.494141 14.8854 0.521484 14.849 0.548828 14.8125ZM4.26758 8.50977C4.24935 8.56445 4.22201 8.6237 4.18555 8.6875C4.1582 8.74219 4.14453 8.7832 4.14453 8.81055C4.14453 8.85612 4.16276 8.90625 4.19922 8.96094C4.24479 9.00651 4.29036 9.02474 4.33594 9.01562C4.36328 9.00651 4.39062 8.97917 4.41797 8.93359C4.44531 8.88802 4.4681 8.84701 4.48633 8.81055C4.51367 8.76497 4.5319 8.72396 4.54102 8.6875C4.55924 8.65104 4.57747 8.61003 4.5957 8.56445C4.62305 8.49154 4.66862 8.41406 4.73242 8.33203C4.79622 8.25 4.82812 8.17253 4.82812 8.09961C4.82812 8.06315 4.81901 8.02669 4.80078 7.99023C4.78255 7.94466 4.76432 7.89909 4.74609 7.85352C4.70052 7.75326 4.65495 7.66211 4.60938 7.58008C4.57292 7.48893 4.50456 7.45247 4.4043 7.4707C4.31315 7.48893 4.26302 7.52995 4.25391 7.59375C4.21745 7.69401 4.22656 7.77604 4.28125 7.83984C4.34505 7.89453 4.37695 7.96745 4.37695 8.05859C4.38607 8.14974 4.37695 8.23177 4.34961 8.30469C4.32227 8.36849 4.29492 8.43685 4.26758 8.50977ZM3.88477 9.37109C3.81185 9.38021 3.75716 9.41211 3.7207 9.4668C3.69336 9.52148 3.67513 9.58529 3.66602 9.6582C3.66602 9.72201 3.67969 9.78581 3.70703 9.84961C3.73438 9.91341 3.77083 9.95898 3.81641 9.98633C3.89844 9.97721 3.95768 9.94987 3.99414 9.9043C4.0306 9.84961 4.04427 9.79036 4.03516 9.72656C4.03516 9.66276 4.01693 9.59896 3.98047 9.53516C3.95312 9.46224 3.92122 9.40755 3.88477 9.37109ZM6.46875 13.459C6.48698 13.3861 6.47331 13.3314 6.42773 13.2949C6.38216 13.2493 6.35482 13.1901 6.3457 13.1172C6.33659 13.0443 6.34115 12.9759 6.35938 12.9121C6.3776 12.8392 6.3776 12.7708 6.35938 12.707C6.34115 12.6341 6.30469 12.5794 6.25 12.543C6.20443 12.5065 6.16797 12.4609 6.14062 12.4062C6.04036 12.4062 5.97201 12.3652 5.93555 12.2832C5.9082 12.2012 5.87174 12.1146 5.82617 12.0234C5.72591 11.8776 5.66211 11.7728 5.63477 11.709C5.61654 11.6361 5.58008 11.5768 5.52539 11.5312C5.44336 11.3307 5.3431 11.1348 5.22461 10.9434C5.10612 10.7428 4.99674 10.5469 4.89648 10.3555C4.8418 10.401 4.8099 10.4648 4.80078 10.5469C4.79167 10.6289 4.77799 10.7064 4.75977 10.7793C4.70508 10.8887 4.67318 10.957 4.66406 10.9844C4.66406 11.0026 4.65951 11.0208 4.65039 11.0391C4.61393 11.1029 4.57747 11.1302 4.54102 11.1211C4.50456 11.112 4.45898 11.1165 4.4043 11.1348C4.31315 11.153 4.24935 11.2122 4.21289 11.3125C4.17643 11.4036 4.16276 11.4993 4.17188 11.5996C4.17188 11.6452 4.18099 11.6908 4.19922 11.7363C4.21745 11.7819 4.22656 11.8275 4.22656 11.873C4.23568 11.9368 4.22201 12.0052 4.18555 12.0781C4.1582 12.1419 4.1263 12.2103 4.08984 12.2832C4.04427 12.4108 4.00781 12.5339 3.98047 12.6523C3.95312 12.7708 3.90755 12.8802 3.84375 12.9805C3.81641 13.1172 3.77539 13.2402 3.7207 13.3496C3.67513 13.459 3.64323 13.5775 3.625 13.7051C4.03516 13.6868 4.41797 13.6777 4.77344 13.6777C5.13802 13.6686 5.49349 13.6367 5.83984 13.582C5.90365 13.5729 5.95833 13.5638 6.00391 13.5547C6.05859 13.5365 6.11328 13.5273 6.16797 13.5273C6.21354 13.5273 6.26367 13.5273 6.31836 13.5273C6.37305 13.5182 6.42318 13.4954 6.46875 13.459ZM8.30078 15.1543C8.31901 15.1178 8.32812 15.0632 8.32812 14.9902C8.33724 14.9082 8.33724 14.8535 8.32812 14.8262C8.31901 14.7715 8.28711 14.6986 8.23242 14.6074C8.17773 14.5163 8.13672 14.4616 8.10938 14.4434C8.0638 14.416 8.01367 14.4115 7.95898 14.4297C7.91341 14.4388 7.85417 14.4434 7.78125 14.4434C7.64453 14.4342 7.53516 14.4342 7.45312 14.4434C7.37109 14.4525 7.29362 14.4616 7.2207 14.4707C7.1569 14.4889 7.09766 14.4935 7.04297 14.4844C6.9974 14.4753 6.95638 14.4753 6.91992 14.4844C6.90169 14.5208 6.87891 14.5527 6.85156 14.5801C6.83333 14.6074 6.81966 14.6439 6.81055 14.6895C6.86523 14.735 6.91992 14.7487 6.97461 14.7305C7.0293 14.7122 7.10221 14.7077 7.19336 14.7168C7.22982 14.7168 7.26172 14.7214 7.28906 14.7305C7.31641 14.7305 7.34375 14.7259 7.37109 14.7168C7.41667 14.7077 7.45312 14.694 7.48047 14.6758C7.51693 14.6576 7.54883 14.6484 7.57617 14.6484C7.64909 14.6484 7.69466 14.6712 7.71289 14.7168C7.73112 14.7533 7.75391 14.7943 7.78125 14.8398C7.79036 14.8581 7.80404 14.8809 7.82227 14.9082C7.84049 14.9264 7.85872 14.9538 7.87695 14.9902C7.91341 15.0632 7.94076 15.1178 7.95898 15.1543C7.97721 15.1908 8.01823 15.2181 8.08203 15.2363C8.1276 15.2181 8.16862 15.209 8.20508 15.209C8.25065 15.1999 8.28255 15.1816 8.30078 15.1543ZM9.59961 12.3242C9.69076 12.2513 9.70443 12.1237 9.64062 11.9414C9.6224 11.9049 9.59505 11.873 9.55859 11.8457C9.53125 11.8092 9.50391 11.7682 9.47656 11.7227C9.45833 11.6862 9.43555 11.6452 9.4082 11.5996C9.38997 11.554 9.36263 11.5039 9.32617 11.4492C9.30794 11.4036 9.28516 11.3626 9.25781 11.3262C9.23958 11.2897 9.22135 11.2487 9.20312 11.2031C9.19401 11.1667 9.18945 11.1348 9.18945 11.1074C9.18945 11.0801 9.1849 11.0527 9.17578 11.0254C9.15755 10.9889 9.13932 10.9525 9.12109 10.916C9.10286 10.8704 9.08008 10.8294 9.05273 10.793C9.00716 10.7201 8.96159 10.6654 8.91602 10.6289C8.87956 10.5833 8.82031 10.5514 8.73828 10.5332C8.71094 10.5605 8.66992 10.5788 8.61523 10.5879C8.56966 10.597 8.52865 10.597 8.49219 10.5879C8.45573 10.7155 8.47852 10.8158 8.56055 10.8887C8.65169 10.9525 8.73372 11.0072 8.80664 11.0527C8.88867 11.153 8.94792 11.3034 8.98438 11.5039C9.02995 11.7044 9.08464 11.8776 9.14844 12.0234C9.15755 12.0599 9.16667 12.0918 9.17578 12.1191C9.19401 12.1465 9.21224 12.1784 9.23047 12.2148C9.27604 12.2786 9.32161 12.3197 9.36719 12.3379C9.42188 12.347 9.49935 12.3424 9.59961 12.3242ZM11.5684 16.1797C11.5957 16.1706 11.6367 16.1387 11.6914 16.084C11.7552 16.0202 11.7871 15.9655 11.7871 15.9199C11.7871 15.9108 11.7689 15.8607 11.7324 15.7695C11.7051 15.6784 11.6777 15.5918 11.6504 15.5098C11.623 15.4277 11.5638 15.3958 11.4727 15.4141C11.4362 15.4232 11.3997 15.4414 11.3633 15.4688C11.3268 15.4961 11.2995 15.5326 11.2812 15.5781C11.263 15.6237 11.2493 15.6921 11.2402 15.7832C11.2402 15.8652 11.2539 15.929 11.2812 15.9746C11.2995 16.0202 11.3405 16.0703 11.4043 16.125C11.4681 16.1706 11.5228 16.1888 11.5684 16.1797ZM7.54883 6.37695C7.53971 6.35872 7.53516 6.33594 7.53516 6.30859C7.53516 6.27214 7.5306 6.24479 7.52148 6.22656C7.50326 6.1901 7.48958 6.16732 7.48047 6.1582C7.47135 6.13997 7.4668 6.11263 7.4668 6.07617C7.48503 6.04883 7.52148 6.03516 7.57617 6.03516C7.63086 6.03516 7.67643 6.03516 7.71289 6.03516C7.74023 6.07161 7.77669 6.12174 7.82227 6.18555C7.84049 6.23112 7.85872 6.27669 7.87695 6.32227C7.9043 6.35872 7.92708 6.39974 7.94531 6.44531C7.98177 6.54557 8.00456 6.60026 8.01367 6.60938C8.02279 6.61849 8.02734 6.63216 8.02734 6.65039C8.02734 6.66862 8.01367 6.69141 7.98633 6.71875C7.95898 6.74609 7.92708 6.75977 7.89062 6.75977C7.84505 6.75065 7.79948 6.71419 7.75391 6.65039C7.71745 6.57747 7.68555 6.52279 7.6582 6.48633C7.63997 6.4681 7.61719 6.44987 7.58984 6.43164C7.57161 6.41341 7.55794 6.39518 7.54883 6.37695ZM2.87305 8.38672C2.90039 8.34115 2.93229 8.28646 2.96875 8.22266C3.00521 8.14974 3.01432 8.07682 2.99609 8.00391C2.98698 7.96745 2.96419 7.93099 2.92773 7.89453C2.89128 7.84896 2.85482 7.80794 2.81836 7.77148C2.7819 7.72591 2.75 7.68034 2.72266 7.63477C2.70443 7.58919 2.70443 7.53451 2.72266 7.4707C2.72266 7.46159 2.73633 7.42969 2.76367 7.375C2.80013 7.32031 2.82747 7.28841 2.8457 7.2793C2.91862 7.36133 2.96419 7.42969 2.98242 7.48438C3.00065 7.52995 3.01888 7.57552 3.03711 7.62109C3.08268 7.69401 3.12826 7.78516 3.17383 7.89453C3.2194 7.99479 3.26497 8.09049 3.31055 8.18164C3.30143 8.27279 3.27409 8.3457 3.22852 8.40039C3.19206 8.45508 3.1556 8.52799 3.11914 8.61914C3.10091 8.67383 3.08268 8.72396 3.06445 8.76953C3.04622 8.8151 3.03255 8.86979 3.02344 8.93359C2.86849 8.84245 2.79102 8.75586 2.79102 8.67383C2.80013 8.58268 2.82747 8.48698 2.87305 8.38672ZM8.27344 7.60742C8.23698 7.53451 8.19141 7.46615 8.13672 7.40234C8.09115 7.32943 8.05924 7.25651 8.04102 7.18359C8.08659 7.16536 8.1276 7.16536 8.16406 7.18359C8.20052 7.19271 8.24154 7.19271 8.28711 7.18359C8.32357 7.22917 8.35547 7.27474 8.38281 7.32031C8.41927 7.35677 8.45573 7.39779 8.49219 7.44336C8.51042 7.53451 8.54688 7.60742 8.60156 7.66211C8.65625 7.7168 8.70638 7.7806 8.75195 7.85352C8.79753 7.92643 8.82943 7.99479 8.84766 8.05859C8.86589 8.1224 8.89779 8.19076 8.94336 8.26367C9.04362 8.44596 9.14388 8.62826 9.24414 8.81055C9.35352 8.99284 9.46289 9.17513 9.57227 9.35742C9.56315 9.38477 9.56315 9.42122 9.57227 9.4668C9.58138 9.50326 9.59049 9.54427 9.59961 9.58984C9.60872 9.63542 9.60872 9.67643 9.59961 9.71289C9.59049 9.74023 9.56771 9.75846 9.53125 9.76758C9.49479 9.76758 9.45378 9.74479 9.4082 9.69922C9.36263 9.65365 9.33529 9.62174 9.32617 9.60352C9.30794 9.58529 9.29427 9.5625 9.28516 9.53516C9.27604 9.4987 9.26237 9.4668 9.24414 9.43945C9.22591 9.42122 9.20768 9.39844 9.18945 9.37109C9.18034 9.34375 9.16667 9.32096 9.14844 9.30273C9.11198 9.24805 9.08008 9.19336 9.05273 9.13867C9.03451 9.08398 9.01172 9.03385 8.98438 8.98828C8.96615 8.96094 8.9388 8.93815 8.90234 8.91992C8.86589 8.89258 8.83854 8.86523 8.82031 8.83789C8.77474 8.79232 8.73828 8.72852 8.71094 8.64648C8.68359 8.56445 8.66081 8.48698 8.64258 8.41406C8.62435 8.34115 8.60156 8.27279 8.57422 8.20898C8.55599 8.13607 8.5332 8.06771 8.50586 8.00391C8.45117 7.95833 8.41016 7.89909 8.38281 7.82617C8.35547 7.75326 8.31901 7.68034 8.27344 7.60742ZM1.21875 13.5547C1.14583 13.5729 1.05924 13.5775 0.958984 13.5684C0.858724 13.5501 0.817708 13.5046 0.835938 13.4316C0.845052 13.3952 0.890625 13.3587 0.972656 13.3223C1.05469 13.2767 1.11849 13.2539 1.16406 13.2539C1.20052 13.2357 1.22331 13.2174 1.23242 13.1992C1.24154 13.1719 1.25977 13.1491 1.28711 13.1309C1.29622 13.0306 1.35091 12.9486 1.45117 12.8848C1.47852 12.8301 1.50586 12.7799 1.5332 12.7344C1.56055 12.6797 1.58789 12.625 1.61523 12.5703C1.64258 12.7526 1.62435 12.9121 1.56055 13.0488C1.49674 13.1764 1.45117 13.3223 1.42383 13.4863C1.35091 13.5228 1.28255 13.5456 1.21875 13.5547ZM4.51367 13.1309C4.54102 13.1491 4.58203 13.1582 4.63672 13.1582C4.69141 13.1582 4.74609 13.1628 4.80078 13.1719C4.85547 13.1719 4.90104 13.181 4.9375 13.1992C4.98307 13.2083 5.01042 13.2357 5.01953 13.2812C4.83724 13.3815 4.66406 13.4362 4.5 13.4453C4.34505 13.4453 4.19466 13.4499 4.04883 13.459C4.00326 13.3952 3.9987 13.3268 4.03516 13.2539C4.07161 13.181 4.08073 13.1035 4.0625 13.0215C4.10807 12.985 4.13997 12.944 4.1582 12.8984C4.18555 12.8529 4.21745 12.8118 4.25391 12.7754C4.24479 12.7116 4.25391 12.6523 4.28125 12.5977C4.31771 12.543 4.36784 12.5247 4.43164 12.543C4.45898 12.5885 4.4681 12.6432 4.45898 12.707C4.45898 12.7617 4.45443 12.8164 4.44531 12.8711C4.44531 12.9258 4.44531 12.9759 4.44531 13.0215C4.44531 13.0671 4.4681 13.1035 4.51367 13.1309ZM0.111328 16.1387C0.156901 16.1569 0.179688 16.1979 0.179688 16.2617C0.188802 16.3255 0.202474 16.3984 0.220703 16.4805C0.184245 16.4987 0.152344 16.526 0.125 16.5625C0.106771 16.5898 0.0703125 16.5944 0.015625 16.5762C-0.0664062 16.5853 -0.130208 16.5625 -0.175781 16.5078C-0.221354 16.4531 -0.266927 16.4121 -0.3125 16.3848C-0.339844 16.3757 -0.389974 16.3802 -0.462891 16.3984C-0.508464 16.3984 -0.563151 16.3984 -0.626953 16.3984C-0.681641 16.3893 -0.731771 16.3893 -0.777344 16.3984C-0.822917 16.4076 -0.854818 16.4121 -0.873047 16.4121C-0.891276 16.403 -0.923177 16.3893 -0.96875 16.3711C-1.00521 16.3529 -1.03711 16.3301 -1.06445 16.3027C-1.0918 16.2754 -1.11003 16.2344 -1.11914 16.1797C-1.13737 16.1068 -1.13281 16.0293 -1.10547 15.9473C-1.08724 15.8652 -1.07812 15.7878 -1.07812 15.7148C-1.07812 15.6693 -1.07812 15.6237 -1.07812 15.5781C-1.08724 15.5326 -1.08268 15.4915 -1.06445 15.4551C-1.05534 15.4368 -1.03711 15.4141 -1.00977 15.3867C-0.982422 15.3594 -0.950521 15.3366 -0.914062 15.3184C-0.886719 15.3001 -0.859375 15.2956 -0.832031 15.3047C-0.804688 15.3047 -0.786458 15.3229 -0.777344 15.3594C-0.768229 15.4141 -0.772786 15.4779 -0.791016 15.5508C-0.80013 15.6237 -0.809245 15.6966 -0.818359 15.7695C-0.827474 15.8424 -0.827474 15.9154 -0.818359 15.9883C-0.80013 16.0521 -0.763672 16.1068 -0.708984 16.1523C-0.608724 16.1432 -0.549479 16.1478 -0.53125 16.166C-0.503906 16.1751 -0.476562 16.1797 -0.449219 16.1797C-0.367188 16.1888 -0.271484 16.1751 -0.162109 16.1387C-0.0527344 16.0931 0.0384115 16.0931 0.111328 16.1387ZM3.76172 15.8379C3.82552 15.8288 3.88477 15.8424 3.93945 15.8789C3.86654 15.9883 3.78906 16.043 3.70703 16.043C3.57031 16.1706 3.47005 16.2708 3.40625 16.3438C3.34245 16.4076 3.28776 16.485 3.24219 16.5762C3.23307 16.6855 3.21029 16.7812 3.17383 16.8633C3.13737 16.9453 3.09635 17.0228 3.05078 17.0957C2.99609 17.0957 2.94141 17.1139 2.88672 17.1504C2.85026 17.1139 2.8457 17.0729 2.87305 17.0273C2.90039 16.9909 2.90495 16.9408 2.88672 16.877C2.90495 16.7311 2.93229 16.6081 2.96875 16.5078C3.01432 16.4076 3.03255 16.3438 3.02344 16.3164C3.01432 16.2799 3.01888 16.248 3.03711 16.2207C3.04622 16.1934 3.06445 16.166 3.0918 16.1387C3.11914 16.1113 3.13737 16.0885 3.14648 16.0703C3.25586 16.0065 3.36523 15.9655 3.47461 15.9473C3.5931 15.9199 3.6888 15.8835 3.76172 15.8379ZM11.7324 16.9727C11.7689 16.9635 11.8099 16.9818 11.8555 17.0273C11.9102 17.0729 11.9329 17.1139 11.9238 17.1504C11.8509 17.2689 11.778 17.3418 11.7051 17.3691C11.6413 17.3965 11.5775 17.4193 11.5137 17.4375C11.4772 17.4466 11.4408 17.4512 11.4043 17.4512C11.377 17.4603 11.3496 17.4512 11.3223 17.4238C11.3678 17.2871 11.4225 17.1823 11.4863 17.1094C11.5501 17.0456 11.6322 17 11.7324 16.9727ZM10.625 17.5469C10.6432 17.5651 10.6797 17.5697 10.7344 17.5605C10.7982 17.5514 10.8301 17.5697 10.8301 17.6152C10.8301 17.6517 10.7754 17.6882 10.666 17.7246C10.5566 17.7611 10.4883 17.7884 10.4609 17.8066L9.50391 18.2852C9.48568 18.3125 9.45833 18.3262 9.42188 18.3262C9.38542 18.3353 9.35352 18.349 9.32617 18.3672C9.28971 18.3854 9.25781 18.4082 9.23047 18.4355C9.21224 18.4629 9.17578 18.4811 9.12109 18.4902C9.07552 18.4993 9.02995 18.4902 8.98438 18.4629C8.9388 18.4447 8.89323 18.431 8.84766 18.4219C8.80208 18.4219 8.76107 18.4219 8.72461 18.4219C8.69727 18.431 8.66992 18.431 8.64258 18.4219C8.49674 18.3854 8.36914 18.3079 8.25977 18.1895C8.15951 18.071 8.07292 17.9616 8 17.8613C8 17.8158 7.99089 17.7839 7.97266 17.7656C7.95443 17.7474 7.94076 17.7201 7.93164 17.6836C7.84049 17.6289 7.77669 17.5788 7.74023 17.5332C7.71289 17.4967 7.70833 17.4466 7.72656 17.3828C7.74479 17.3464 7.77669 17.319 7.82227 17.3008C7.86784 17.2826 7.9043 17.2826 7.93164 17.3008C8.00456 17.319 8.05924 17.3737 8.0957 17.4648C8.13216 17.556 8.18229 17.638 8.24609 17.7109C8.29167 17.7839 8.35091 17.8477 8.42383 17.9023C8.49674 17.9661 8.56966 18.0208 8.64258 18.0664C8.68815 18.0755 8.73372 18.0892 8.7793 18.1074C8.82487 18.1257 8.87044 18.1348 8.91602 18.1348C9.01628 18.1257 9.11198 18.1029 9.20312 18.0664C9.29427 18.0391 9.38997 18.0208 9.49023 18.0117C9.74544 17.9479 9.95508 17.8704 10.1191 17.7793C10.2832 17.6973 10.4518 17.6198 10.625 17.5469ZM13.5918 8.96094C13.5736 8.97917 13.5553 9.00195 13.5371 9.0293C13.528 9.05664 13.5052 9.07487 13.4688 9.08398C13.4232 9.04753 13.4095 9.00651 13.4277 8.96094C13.446 8.90625 13.4642 8.86068 13.4824 8.82422C13.528 8.76953 13.5599 8.71029 13.5781 8.64648C13.6055 8.58268 13.6419 8.51432 13.6875 8.44141C13.7148 8.40495 13.7513 8.38216 13.7969 8.37305C13.8424 8.36393 13.888 8.3457 13.9336 8.31836C13.9701 8.30013 14.002 8.27734 14.0293 8.25C14.0658 8.21354 14.1022 8.1862 14.1387 8.16797C14.1842 8.14062 14.2253 8.11784 14.2617 8.09961C14.2982 8.08138 14.3346 8.05859 14.3711 8.03125C14.4167 7.98568 14.444 7.94466 14.4531 7.9082C14.4714 7.87174 14.5078 7.83984 14.5625 7.8125C14.681 7.75781 14.7585 7.72135 14.7949 7.70312C14.8314 7.6849 14.8724 7.67122 14.918 7.66211C14.9909 7.65299 15.0729 7.65299 15.1641 7.66211C15.2643 7.66211 15.3053 7.69857 15.2871 7.77148C15.2324 7.80794 15.1732 7.83529 15.1094 7.85352C15.0547 7.87174 15 7.89909 14.9453 7.93555C14.8451 7.99935 14.7493 8.05404 14.6582 8.09961C14.5671 8.13607 14.4714 8.1862 14.3711 8.25C14.3073 8.29557 14.2435 8.3457 14.1797 8.40039C14.125 8.44596 14.0658 8.49609 14.002 8.55078C13.9108 8.61458 13.8379 8.67839 13.7832 8.74219C13.7285 8.83333 13.6875 8.88802 13.6602 8.90625C13.6328 8.92448 13.61 8.94271 13.5918 8.96094ZM23.3398 12.9531C23.2578 13.0534 23.1393 13.1035 22.9844 13.1035C22.8294 13.1035 22.6882 13.1263 22.5605 13.1719C22.5514 13.2357 22.5514 13.2949 22.5605 13.3496C22.5697 13.4043 22.5742 13.4544 22.5742 13.5C22.5742 13.6003 22.5605 13.7005 22.5332 13.8008C22.5059 13.901 22.4785 14.0013 22.4512 14.1016C22.4238 14.2018 22.401 14.3066 22.3828 14.416C22.3646 14.5163 22.3281 14.6029 22.2734 14.6758C22.2734 14.7214 22.2598 14.7624 22.2324 14.7988C22.2142 14.8262 22.1914 14.8626 22.1641 14.9082C22.1276 14.9538 22.0957 14.9948 22.0684 15.0312C22.0501 15.0586 22.0273 15.0951 22 15.1406C21.9544 15.1862 21.9134 15.2318 21.877 15.2773C21.8496 15.3138 21.8132 15.3548 21.7676 15.4004C21.7311 15.4277 21.6992 15.4505 21.6719 15.4688C21.6445 15.487 21.6172 15.5052 21.5898 15.5234C21.5443 15.5508 21.5124 15.5827 21.4941 15.6191C21.4759 15.6465 21.4577 15.6693 21.4395 15.6875C21.2845 15.7786 21.1615 15.847 21.0703 15.8926C20.9792 15.929 20.8835 15.9609 20.7832 15.9883C20.7467 16.0065 20.7057 16.0156 20.6602 16.0156C20.6146 16.0156 20.5736 16.0247 20.5371 16.043C20.4733 16.0612 20.3958 16.0703 20.3047 16.0703C20.2135 16.0703 20.1406 16.0475 20.0859 16.002C19.9219 15.9655 19.776 15.9473 19.6484 15.9473C19.5208 15.9473 19.3887 15.9792 19.252 16.043C19.1973 16.0703 19.138 16.1068 19.0742 16.1523C19.0195 16.1979 18.9648 16.2344 18.9102 16.2617C18.7188 16.3073 18.5273 16.3301 18.3359 16.3301C18.1445 16.321 17.9622 16.3255 17.7891 16.3438C17.6979 16.362 17.6432 16.3665 17.625 16.3574C17.6159 16.3483 17.6022 16.3438 17.584 16.3438C17.5566 16.3438 17.5293 16.3483 17.502 16.3574C17.4837 16.3574 17.4564 16.3574 17.4199 16.3574C17.2194 16.3665 17.0189 16.362 16.8184 16.3438C16.627 16.3164 16.431 16.2936 16.2305 16.2754C16.0938 16.2389 15.9525 16.2207 15.8066 16.2207C15.6608 16.2116 15.5195 16.1842 15.3828 16.1387C15.2552 16.0658 15.1595 16.0247 15.0957 16.0156C15.0319 16.0065 14.9863 15.9792 14.959 15.9336C14.9225 15.9336 14.8952 15.9245 14.877 15.9062C14.8587 15.888 14.8314 15.8789 14.7949 15.8789C14.722 15.806 14.6309 15.7422 14.5215 15.6875C14.4212 15.6328 14.3301 15.5599 14.248 15.4688C14.2298 15.4505 14.207 15.4232 14.1797 15.3867C14.1523 15.3503 14.125 15.3184 14.0977 15.291C14.0703 15.2546 14.043 15.2227 14.0156 15.1953C13.9883 15.1589 13.9609 15.127 13.9336 15.0996C13.8607 15.0085 13.8242 14.9492 13.8242 14.9219C13.8242 14.8854 13.8242 14.8581 13.8242 14.8398C13.8151 14.7943 13.806 14.7487 13.7969 14.7031C13.7969 14.6484 13.7878 14.5938 13.7695 14.5391C13.7604 14.4935 13.7467 14.4434 13.7285 14.3887C13.7194 14.334 13.7057 14.2884 13.6875 14.252C13.6146 14.179 13.569 14.1289 13.5508 14.1016C13.5417 14.0742 13.528 14.0514 13.5098 14.0332C13.3913 13.8509 13.291 13.6549 13.209 13.4453C13.1725 13.2904 13.1361 13.1354 13.0996 12.9805C13.0814 12.9349 13.0723 12.8893 13.0723 12.8438C13.0814 12.7891 13.0814 12.7344 13.0723 12.6797C13.0632 12.6341 13.054 12.5885 13.0449 12.543C13.0358 12.4974 13.0267 12.4564 13.0176 12.4199C13.0176 12.3743 13.0176 12.3333 13.0176 12.2969C13.0267 12.2604 13.0312 12.2194 13.0312 12.1738C13.0312 12.1283 13.0221 12.0827 13.0039 12.0371C12.9948 11.9824 12.9902 11.9323 12.9902 11.8867C12.9902 11.832 12.9993 11.7819 13.0176 11.7363C13.0449 11.6908 13.0586 11.6406 13.0586 11.5859C13.1589 11.5039 13.1953 11.3626 13.168 11.1621C13.1589 11.1074 13.1452 11.0573 13.127 11.0117C13.1178 10.957 13.1178 10.9069 13.127 10.8613C13.1361 10.8158 13.1497 10.7747 13.168 10.7383C13.1953 10.6927 13.2044 10.6471 13.1953 10.6016C13.2318 10.5469 13.2546 10.4876 13.2637 10.4238C13.2728 10.36 13.2865 10.2962 13.3047 10.2324C13.3594 10.1139 13.3913 10.041 13.4004 10.0137C13.4095 9.97721 13.4232 9.94076 13.4414 9.9043C13.4596 9.85872 13.4824 9.81771 13.5098 9.78125C13.5462 9.74479 13.569 9.69466 13.5781 9.63086C13.7331 9.42122 13.888 9.21615 14.043 9.01562C14.1979 8.80599 14.4076 8.64193 14.6719 8.52344C14.7083 8.49609 14.7402 8.46875 14.7676 8.44141C14.804 8.40495 14.8451 8.37305 14.8906 8.3457C15.0091 8.30013 15.0775 8.27279 15.0957 8.26367C15.1139 8.24544 15.1413 8.22721 15.1777 8.20898C15.2871 8.17253 15.3509 8.14974 15.3691 8.14062C15.3965 8.1224 15.4193 8.10872 15.4375 8.09961C15.4648 8.08138 15.4922 8.07682 15.5195 8.08594C15.5469 8.08594 15.5742 8.08138 15.6016 8.07227C15.638 8.05404 15.6699 8.03581 15.6973 8.01758C15.7337 7.99023 15.7702 7.96745 15.8066 7.94922C15.916 7.93099 15.9798 7.91732 15.998 7.9082C16.0163 7.89909 16.0345 7.88997 16.0527 7.88086C16.153 7.87174 16.2168 7.86263 16.2441 7.85352C16.2715 7.83529 16.3079 7.82161 16.3535 7.8125C16.3809 7.79427 16.4128 7.78971 16.4492 7.79883C16.4857 7.79883 16.5221 7.78971 16.5586 7.77148C16.6497 7.73503 16.6999 7.72135 16.709 7.73047C16.7272 7.73047 16.7454 7.72591 16.7637 7.7168C16.8366 7.70768 16.9049 7.69401 16.9688 7.67578C17.0417 7.64844 17.1146 7.64388 17.1875 7.66211C17.3333 7.61654 17.4655 7.59375 17.584 7.59375C17.7025 7.59375 17.8392 7.58919 17.9941 7.58008C18.1126 7.59831 18.2038 7.62109 18.2676 7.64844C18.3314 7.67578 18.3997 7.69857 18.4727 7.7168C18.5 7.7168 18.5365 7.7168 18.582 7.7168C18.6276 7.7168 18.6641 7.71224 18.6914 7.70312C18.737 7.6849 18.7734 7.66667 18.8008 7.64844C18.8281 7.62109 18.8691 7.60742 18.9238 7.60742C18.9785 7.60742 19.0332 7.61198 19.0879 7.62109C19.1426 7.62109 19.1973 7.62109 19.252 7.62109C19.2975 7.63021 19.3477 7.63477 19.4023 7.63477C19.4661 7.63477 19.5208 7.64388 19.5664 7.66211C19.694 7.69857 19.776 7.72135 19.8125 7.73047C19.849 7.73047 19.8854 7.74414 19.9219 7.77148C20.1589 7.83529 20.3639 7.88997 20.5371 7.93555C20.7103 7.98112 20.8789 8.02669 21.043 8.07227C21.1341 8.14518 21.2253 8.21354 21.3164 8.27734C21.4167 8.33203 21.5169 8.39128 21.6172 8.45508C21.6536 8.53711 21.7083 8.61914 21.7812 8.70117C21.8633 8.7832 21.877 8.88346 21.8223 9.00195C21.804 9.04753 21.7767 9.09766 21.7402 9.15234C21.7038 9.19792 21.6673 9.23893 21.6309 9.27539C21.6035 9.30273 21.5671 9.33464 21.5215 9.37109C21.485 9.39844 21.4486 9.42578 21.4121 9.45312C21.3574 9.50781 21.3118 9.54883 21.2754 9.57617C21.2389 9.5944 21.1842 9.61263 21.1113 9.63086C21.0749 9.63997 21.043 9.64909 21.0156 9.6582C20.9883 9.66732 20.9655 9.67188 20.9473 9.67188C20.8652 9.63542 20.8151 9.61719 20.7969 9.61719C20.7878 9.61719 20.7741 9.61263 20.7559 9.60352C20.6738 9.57617 20.5918 9.53971 20.5098 9.49414C20.4368 9.43945 20.3594 9.40299 20.2773 9.38477C20.2318 9.36654 20.1908 9.35742 20.1543 9.35742C20.127 9.35742 20.0951 9.35286 20.0586 9.34375C20.013 9.32552 19.9674 9.30729 19.9219 9.28906C19.8763 9.26172 19.8262 9.23893 19.7715 9.2207C19.7441 9.21159 19.7168 9.20703 19.6895 9.20703C19.6621 9.20703 19.6348 9.20247 19.6074 9.19336C19.5801 9.18424 19.5527 9.17513 19.5254 9.16602C19.5072 9.1569 19.4844 9.14779 19.457 9.13867C19.4297 9.12044 19.3796 9.11133 19.3066 9.11133C19.1973 9.07487 19.1289 9.0612 19.1016 9.07031C19.0742 9.07943 19.0423 9.08398 19.0059 9.08398C18.9147 9.05664 18.8509 9.04753 18.8145 9.05664C18.7871 9.05664 18.7598 9.05664 18.7324 9.05664C18.5866 9.0293 18.4909 9.02018 18.4453 9.0293C18.4089 9.03841 18.3724 9.01562 18.3359 8.96094C18.2812 8.96094 18.2357 8.95182 18.1992 8.93359C18.1628 8.91536 18.1217 8.91081 18.0762 8.91992C17.8939 8.99284 17.7663 9.05664 17.6934 9.11133C17.5931 9.19336 17.5156 9.23893 17.4609 9.24805C17.4062 9.24805 17.3561 9.25716 17.3105 9.27539C17.2923 9.29362 17.265 9.31641 17.2285 9.34375C17.2012 9.36198 17.1693 9.38021 17.1328 9.39844C17.0872 9.4349 17.0417 9.46224 16.9961 9.48047C16.9505 9.4987 16.9049 9.5306 16.8594 9.57617C16.832 9.61263 16.8092 9.65365 16.791 9.69922C16.7819 9.74479 16.7591 9.78125 16.7227 9.80859C16.6315 9.90885 16.5723 10.0091 16.5449 10.1094C16.5267 10.2005 16.4993 10.2962 16.4629 10.3965C16.4447 10.4967 16.4401 10.5879 16.4492 10.6699C16.4583 10.752 16.4492 10.8385 16.4219 10.9297C16.4219 10.9935 16.4264 11.0527 16.4355 11.1074C16.4538 11.153 16.4492 11.2077 16.4219 11.2715C16.4036 11.3079 16.3809 11.3444 16.3535 11.3809C16.3262 11.4082 16.3171 11.4447 16.3262 11.4902C16.3717 11.5723 16.3945 11.6178 16.3945 11.627C16.3945 11.6361 16.3991 11.6497 16.4082 11.668C16.4264 11.6862 16.4447 11.709 16.4629 11.7363C16.4811 11.7546 16.4948 11.7728 16.5039 11.791C16.513 11.8184 16.513 11.8503 16.5039 11.8867C16.4948 11.9232 16.4902 11.9642 16.4902 12.0098C16.5085 12.1191 16.513 12.1829 16.5039 12.2012C16.5039 12.2103 16.5039 12.224 16.5039 12.2422C16.5039 12.2878 16.513 12.3242 16.5312 12.3516C16.5495 12.3789 16.5632 12.4108 16.5723 12.4473C16.554 12.5566 16.554 12.6569 16.5723 12.748C16.5723 12.7845 16.5768 12.8164 16.5859 12.8438C16.5951 12.8711 16.5996 12.903 16.5996 12.9395C16.6178 13.0397 16.6315 13.1491 16.6406 13.2676C16.6589 13.377 16.6771 13.4818 16.6953 13.582C16.6953 13.6094 16.6999 13.6367 16.709 13.6641C16.7272 13.6914 16.7318 13.7142 16.7227 13.7324L16.668 13.8965C16.6224 13.9967 16.627 14.1061 16.6816 14.2246C16.7363 14.2428 16.8092 14.2611 16.9004 14.2793C16.9824 14.3796 17.0417 14.457 17.0781 14.5117C17.1237 14.5664 17.1738 14.6165 17.2285 14.6621C17.2467 14.6803 17.2695 14.6986 17.2969 14.7168C17.3333 14.7259 17.3698 14.7396 17.4062 14.7578C17.4427 14.776 17.4746 14.7988 17.502 14.8262C17.5293 14.8444 17.5612 14.8581 17.5977 14.8672C17.6615 14.8854 17.7253 14.8991 17.7891 14.9082C17.862 14.9173 17.9395 14.931 18.0215 14.9492C18.1309 14.9766 18.1992 14.9857 18.2266 14.9766C18.2539 14.9583 18.2812 14.9492 18.3086 14.9492C18.3633 14.9492 18.418 14.9583 18.4727 14.9766C18.5273 14.9857 18.5866 14.9857 18.6504 14.9766C18.7415 14.9401 18.8099 14.9173 18.8555 14.9082C18.901 14.8991 18.9466 14.8945 18.9922 14.8945C19.0378 14.8945 19.0924 14.89 19.1562 14.8809C19.2656 14.8535 19.3249 14.8444 19.334 14.8535C19.3522 14.8535 19.3704 14.849 19.3887 14.8398C19.416 14.8307 19.4388 14.8216 19.457 14.8125C19.4844 14.7943 19.5117 14.776 19.5391 14.7578C19.6576 14.7214 19.7441 14.6849 19.7988 14.6484C19.8535 14.6029 19.9036 14.571 19.9492 14.5527C19.9766 14.4889 20.0039 14.4251 20.0312 14.3613C20.0586 14.2975 20.0859 14.2337 20.1133 14.1699C20.1224 14.1061 20.1224 14.0514 20.1133 14.0059C20.1133 13.9603 20.1315 13.9102 20.168 13.8555C20.1953 13.8099 20.2363 13.7734 20.291 13.7461C20.3548 13.7096 20.3867 13.6686 20.3867 13.623C20.3685 13.6048 20.3503 13.582 20.332 13.5547C20.3138 13.5273 20.3001 13.5046 20.291 13.4863C20.2728 13.4499 20.2454 13.4043 20.209 13.3496C20.1816 13.2949 20.1452 13.2676 20.0996 13.2676C20.0358 13.2676 19.9674 13.2721 19.8945 13.2812C19.8307 13.2904 19.7578 13.2949 19.6758 13.2949C19.4661 13.2767 19.2975 13.2767 19.1699 13.2949C19.0423 13.3132 18.9193 13.3223 18.8008 13.3223C18.7279 13.2858 18.6549 13.222 18.582 13.1309C18.5091 13.0397 18.4818 12.9349 18.5 12.8164C18.5 12.7617 18.5091 12.7116 18.5273 12.666C18.5456 12.6113 18.5638 12.5612 18.582 12.5156C18.6094 12.4701 18.6185 12.4199 18.6094 12.3652C18.6003 12.3014 18.5866 12.2422 18.5684 12.1875C18.5592 12.1237 18.5501 12.0645 18.541 12.0098C18.541 11.946 18.5592 11.8867 18.5957 11.832C18.6139 11.8138 18.6367 11.8001 18.6641 11.791C18.6914 11.7728 18.7096 11.7546 18.7188 11.7363C18.8281 11.7272 18.9466 11.7227 19.0742 11.7227C19.2109 11.7135 19.3431 11.7044 19.4707 11.6953C19.5436 11.6862 19.612 11.6862 19.6758 11.6953C19.7487 11.6953 19.8216 11.6908 19.8945 11.6816C19.9401 11.6725 19.9766 11.6634 20.0039 11.6543C20.0404 11.6452 20.0814 11.6361 20.127 11.627C20.1999 11.627 20.2682 11.627 20.332 11.627C20.3958 11.627 20.4596 11.6224 20.5234 11.6133C20.569 11.6133 20.61 11.6133 20.6465 11.6133C20.6829 11.6042 20.724 11.5996 20.7695 11.5996C20.8607 11.5996 20.9518 11.5859 21.043 11.5586C21.1341 11.5221 21.2207 11.5039 21.3027 11.5039C21.3483 11.4948 21.403 11.4902 21.4668 11.4902C21.5306 11.4902 21.5853 11.4993 21.6309 11.5176C21.6764 11.5358 21.7174 11.5632 21.7539 11.5996C21.7995 11.627 21.8542 11.6406 21.918 11.6406C22.0182 11.5951 22.1322 11.5677 22.2598 11.5586C22.3874 11.5495 22.5104 11.5358 22.6289 11.5176C22.7474 11.4993 22.875 11.4948 23.0117 11.5039C23.1484 11.513 23.2441 11.5677 23.2988 11.668C23.3079 11.7135 23.3125 11.7591 23.3125 11.8047C23.3125 11.8503 23.3171 11.9004 23.3262 11.9551C23.3353 12.0007 23.349 12.0462 23.3672 12.0918C23.3854 12.1374 23.3991 12.1966 23.4082 12.2695C23.4082 12.2969 23.4036 12.3288 23.3945 12.3652C23.3945 12.4017 23.3945 12.4427 23.3945 12.4883C23.3854 12.5703 23.3854 12.6569 23.3945 12.748C23.4036 12.8301 23.3854 12.8984 23.3398 12.9531ZM19.8672 12.1875C19.8854 12.1328 19.8763 12.0781 19.8398 12.0234C19.6849 12.0417 19.5345 12.0599 19.3887 12.0781C19.252 12.0872 19.1243 12.1283 19.0059 12.2012C18.9967 12.2559 19.0013 12.3242 19.0195 12.4062C19.0378 12.4883 19.0788 12.5384 19.1426 12.5566C19.1973 12.5293 19.2337 12.4928 19.252 12.4473C19.2793 12.3926 19.3021 12.3424 19.3203 12.2969C19.3477 12.2513 19.3887 12.2285 19.4434 12.2285C19.5072 12.2194 19.5618 12.2148 19.6074 12.2148C19.6348 12.2331 19.6758 12.2422 19.7305 12.2422C19.7852 12.2331 19.8307 12.2148 19.8672 12.1875ZM20.6191 8.41406C20.5736 8.49609 20.5872 8.55078 20.6602 8.57812C20.7422 8.60547 20.8105 8.62826 20.8652 8.64648C20.929 8.69206 20.9792 8.74674 21.0156 8.81055C21.0521 8.86523 21.0977 8.91536 21.1523 8.96094C21.1797 8.95182 21.207 8.94271 21.2344 8.93359C21.2617 8.92448 21.2891 8.91536 21.3164 8.90625C21.3346 8.85156 21.3301 8.80143 21.3027 8.75586C21.2754 8.70117 21.2435 8.66016 21.207 8.63281C21.125 8.63281 21.0612 8.61003 21.0156 8.56445C20.9701 8.50977 20.9108 8.47786 20.8379 8.46875C20.8197 8.42318 20.7878 8.40039 20.7422 8.40039C20.7057 8.40039 20.6647 8.40495 20.6191 8.41406ZM14.8496 15.3047C14.9134 15.3047 14.9499 15.2819 14.959 15.2363C14.9681 15.1908 14.9544 15.1452 14.918 15.0996C14.8724 15.0632 14.8223 15.0312 14.7676 15.0039C14.7129 14.9674 14.6719 14.9219 14.6445 14.8672C14.6081 14.8216 14.5853 14.7806 14.5762 14.7441C14.5671 14.6986 14.5397 14.653 14.4941 14.6074C14.4668 14.5983 14.4395 14.5846 14.4121 14.5664C14.3939 14.5482 14.3665 14.5482 14.3301 14.5664C14.3118 14.612 14.3118 14.6621 14.3301 14.7168C14.3483 14.7624 14.3665 14.8079 14.3848 14.8535C14.403 14.9355 14.4258 14.9857 14.4531 15.0039C14.4896 15.0221 14.5306 15.054 14.5762 15.0996C14.6035 15.1361 14.6263 15.168 14.6445 15.1953C14.6628 15.2135 14.681 15.2318 14.6992 15.25C14.7357 15.2865 14.7858 15.3047 14.8496 15.3047ZM14.7812 9.15234C14.7812 9.10677 14.7676 9.07031 14.7402 9.04297C14.722 9.01562 14.7038 8.98372 14.6855 8.94727C14.6673 8.95638 14.6445 8.97005 14.6172 8.98828C14.599 8.9974 14.5762 9.01107 14.5488 9.0293C14.5215 9.04753 14.4941 9.06576 14.4668 9.08398C14.4486 9.10221 14.4303 9.12044 14.4121 9.13867C14.3939 9.1569 14.3802 9.17969 14.3711 9.20703C14.362 9.23438 14.3483 9.26628 14.3301 9.30273C14.2572 9.39388 14.2116 9.4668 14.1934 9.52148C14.1842 9.56706 14.1706 9.61263 14.1523 9.6582C14.1341 9.70378 14.1113 9.75846 14.084 9.82227C14.0566 9.87695 14.0475 9.91797 14.0566 9.94531C14.0658 10.0365 14.0521 10.0957 14.0156 10.123C13.9883 10.1504 13.9518 10.1777 13.9062 10.2051C13.8698 10.2324 13.8333 10.2643 13.7969 10.3008C13.7695 10.3372 13.7604 10.3737 13.7695 10.4102C13.7695 10.4284 13.7878 10.4557 13.8242 10.4922C13.8607 10.5195 13.888 10.5332 13.9062 10.5332C13.9792 10.5514 14.043 10.5469 14.0977 10.5195C14.1523 10.4922 14.1888 10.4603 14.207 10.4238C14.1888 10.3691 14.1979 10.3236 14.2344 10.2871C14.2708 10.2507 14.2982 10.2096 14.3164 10.1641C14.3346 10.1185 14.3392 10.0729 14.3301 10.0273C14.321 9.97266 14.321 9.91797 14.3301 9.86328C14.3301 9.83594 14.3346 9.80859 14.3438 9.78125C14.3529 9.75391 14.362 9.72656 14.3711 9.69922C14.3802 9.57161 14.4121 9.49414 14.4668 9.4668C14.5306 9.43034 14.5716 9.38021 14.5898 9.31641C14.6081 9.27995 14.64 9.25716 14.6855 9.24805C14.7402 9.22982 14.7721 9.19792 14.7812 9.15234ZM15.3691 8.83789C15.3874 8.79232 15.3783 8.76042 15.3418 8.74219C15.3145 8.71484 15.2917 8.69206 15.2734 8.67383C15.2279 8.70117 15.1732 8.73307 15.1094 8.76953C15.0547 8.80599 15.0365 8.85156 15.0547 8.90625C15.0638 8.94271 15.082 8.96094 15.1094 8.96094C15.1367 8.96094 15.1641 8.95638 15.1914 8.94727C15.2279 8.92904 15.2598 8.91081 15.2871 8.89258C15.3236 8.86523 15.3509 8.84701 15.3691 8.83789ZM21.6855 14.8262C21.7129 14.7897 21.7448 14.735 21.7812 14.6621C21.8177 14.5892 21.8268 14.5345 21.8086 14.498C21.8086 14.4889 21.7904 14.4707 21.7539 14.4434C21.7266 14.416 21.7038 14.3978 21.6855 14.3887C21.6582 14.3704 21.6309 14.375 21.6035 14.4023C21.5853 14.4206 21.5534 14.4342 21.5078 14.4434C21.4349 14.5436 21.362 14.6439 21.2891 14.7441C21.2253 14.8353 21.1432 14.9173 21.043 14.9902C21.0247 15.0085 21.0111 15.0312 21.002 15.0586C21.002 15.0768 20.9928 15.0996 20.9746 15.127C21.1296 15.1999 21.2435 15.1999 21.3164 15.127C21.3984 15.054 21.4759 14.9857 21.5488 14.9219C21.5762 14.9036 21.599 14.89 21.6172 14.8809C21.6445 14.8626 21.6673 14.8444 21.6855 14.8262ZM17.3516 10.1367C17.306 10.1823 17.265 10.2324 17.2285 10.2871C17.1921 10.3327 17.1374 10.3691 17.0645 10.3965C16.9733 10.3236 16.9323 10.2598 16.9414 10.2051C16.9596 10.1504 16.987 10.1003 17.0234 10.0547C17.0599 10 17.0964 9.95443 17.1328 9.91797C17.1784 9.8724 17.2103 9.82227 17.2285 9.76758C17.2741 9.73112 17.3151 9.69922 17.3516 9.67188C17.388 9.64453 17.4154 9.61263 17.4336 9.57617C17.4883 9.53971 17.5475 9.51237 17.6113 9.49414C17.6751 9.4668 17.7298 9.43945 17.7754 9.41211C17.8027 9.37565 17.8301 9.34375 17.8574 9.31641C17.8848 9.27995 17.9212 9.2526 17.9668 9.23438C18.0671 9.23438 18.1673 9.24349 18.2676 9.26172C18.3678 9.27083 18.459 9.29362 18.541 9.33008C18.5957 9.40299 18.582 9.45768 18.5 9.49414C18.418 9.52148 18.3451 9.54427 18.2812 9.5625C18.1536 9.61719 18.0443 9.6582 17.9531 9.68555C17.8438 9.75846 17.7344 9.82682 17.625 9.89062C17.5247 9.95443 17.4336 10.0365 17.3516 10.1367ZM21.1387 9.93164C21.1842 9.91341 21.2253 9.88151 21.2617 9.83594C21.3073 9.79036 21.3665 9.77669 21.4395 9.79492C21.4668 9.81315 21.4941 9.84049 21.5215 9.87695C21.5488 9.91341 21.5443 9.95443 21.5078 10C21.4896 10.0182 21.4668 10.0365 21.4395 10.0547C21.4121 10.0729 21.3848 10.0911 21.3574 10.1094C21.3027 10.1458 21.2435 10.1868 21.1797 10.2324C21.125 10.278 21.0612 10.2826 20.9883 10.2461C20.9336 10.2279 20.8835 10.196 20.8379 10.1504C20.8014 10.1048 20.7832 10.0456 20.7832 9.97266C20.9382 9.96354 21.0566 9.94987 21.1387 9.93164ZM16.7637 11.2578C16.7181 11.2031 16.6953 11.1348 16.6953 11.0527C16.6953 10.9707 16.709 10.8978 16.7363 10.834C16.7637 10.7611 16.8001 10.7109 16.8457 10.6836C16.9004 10.6562 16.9642 10.6699 17.0371 10.7246C17.0098 10.7793 16.9961 10.8385 16.9961 10.9023C16.9961 10.957 16.9915 11.0117 16.9824 11.0664C16.9824 11.1211 16.9642 11.1667 16.9277 11.2031C16.9004 11.2396 16.8457 11.2578 16.7637 11.2578ZM23.9414 11.9277C23.9688 11.9915 23.987 12.0599 23.9961 12.1328C24.0143 12.1966 24.0007 12.2513 23.9551 12.2969C23.8457 12.3516 23.7773 12.3516 23.75 12.2969C23.7227 12.2422 23.709 12.1875 23.709 12.1328C23.7181 12.069 23.7409 12.0189 23.7773 11.9824C23.8138 11.9368 23.8685 11.9186 23.9414 11.9277ZM23.9824 12.7207C23.9915 12.7936 23.9779 12.862 23.9414 12.9258C23.9141 12.9805 23.9004 13.0443 23.9004 13.1172C23.9004 13.1354 23.9004 13.1628 23.9004 13.1992C23.9095 13.2266 23.9141 13.2493 23.9141 13.2676C23.9049 13.3861 23.8548 13.4681 23.7637 13.5137C23.6725 13.5592 23.5768 13.582 23.4766 13.582C23.349 13.6641 23.2669 13.7826 23.2305 13.9375C23.2031 14.0924 23.1576 14.2337 23.0938 14.3613C23.0664 14.3978 23.0208 14.4297 22.957 14.457C22.9023 14.4753 22.8568 14.4661 22.8203 14.4297C22.8385 14.3021 22.8613 14.1882 22.8887 14.0879C22.916 13.9785 22.9388 13.86 22.957 13.7324C22.9661 13.6868 22.9661 13.6458 22.957 13.6094C22.957 13.5729 22.9661 13.541 22.9844 13.5137C23.0208 13.5137 23.0482 13.5091 23.0664 13.5C23.0938 13.4818 23.1257 13.4681 23.1621 13.459C23.235 13.4408 23.3079 13.4316 23.3809 13.4316C23.4538 13.4316 23.513 13.4089 23.5586 13.3633C23.5768 13.3451 23.5951 13.3132 23.6133 13.2676C23.6406 13.2129 23.6589 13.1673 23.668 13.1309C23.6953 13.0306 23.709 12.9349 23.709 12.8438C23.709 12.7435 23.7318 12.6523 23.7773 12.5703C23.8229 12.5247 23.8639 12.5293 23.9004 12.584C23.9368 12.6296 23.9642 12.6751 23.9824 12.7207ZM13.3867 14.7578C13.4505 14.8854 13.5143 15.0085 13.5781 15.127C13.6419 15.2363 13.7103 15.3411 13.7832 15.4414C13.8197 15.4961 13.8652 15.5462 13.9199 15.5918C13.9746 15.6283 14.0111 15.6784 14.0293 15.7422C13.8743 15.7604 13.7513 15.7513 13.6602 15.7148C13.5781 15.6784 13.5098 15.6009 13.4551 15.4824C13.4368 15.446 13.4141 15.4141 13.3867 15.3867C13.3594 15.3594 13.3366 15.3229 13.3184 15.2773C13.2819 15.2044 13.2409 15.1224 13.1953 15.0312C13.1497 14.931 13.127 14.8307 13.127 14.7305C13.1361 14.6484 13.1361 14.6029 13.127 14.5938C13.127 14.5846 13.127 14.571 13.127 14.5527C13.127 14.4889 13.1497 14.4342 13.1953 14.3887C13.2409 14.3431 13.3047 14.3294 13.3867 14.3477C13.4323 14.4115 13.446 14.4844 13.4277 14.5664C13.4186 14.6393 13.4049 14.7031 13.3867 14.7578ZM16.1484 16.4941C16.194 16.5124 16.235 16.5306 16.2715 16.5488C16.3079 16.5671 16.3307 16.6035 16.3398 16.6582C16.2943 16.7038 16.2441 16.722 16.1895 16.7129C16.1439 16.6947 16.0983 16.681 16.0527 16.6719C15.9434 16.6719 15.8704 16.6673 15.834 16.6582C15.7975 16.64 15.7702 16.6354 15.752 16.6445C15.6517 16.6628 15.5742 16.6628 15.5195 16.6445C15.474 16.6172 15.4284 16.6035 15.3828 16.6035C15.2461 16.5853 15.1367 16.5716 15.0547 16.5625C14.9818 16.5443 14.918 16.526 14.8633 16.5078C14.8359 16.4987 14.8086 16.4896 14.7812 16.4805C14.7539 16.4622 14.7311 16.4486 14.7129 16.4395C14.5488 16.403 14.4349 16.3574 14.3711 16.3027C14.3073 16.248 14.2754 16.1706 14.2754 16.0703C14.4121 16.0156 14.5033 16.0065 14.5488 16.043C14.6035 16.0794 14.6536 16.1204 14.6992 16.166C14.7448 16.2025 14.7949 16.2389 14.8496 16.2754C14.9043 16.3027 14.9727 16.3164 15.0547 16.3164C15.2188 16.3711 15.3965 16.4121 15.5879 16.4395C15.7884 16.4577 15.9753 16.4759 16.1484 16.4941Z" fill="#333333"/>
</g>
<defs>
<clipPath id="clip0_201_2743">
<rect width="24" height="24" fill="white"/>
</clipPath>
</defs>
</svg>
