<svg width="24" height="24" viewBox="0 0 24 24" fill="none" xmlns="http://www.w3.org/2000/svg">
<path d="M10.1172 13.746H6.12717L4.82517 16H3.25717L9.12317 6.116L12.3292 16H10.8172L10.1172 13.746ZM9.71117 12.402L8.70317 9.238L6.88317 12.402H9.71117ZM18.2827 10.106H19.6547L18.9407 15.846C18.922 16.0233 18.894 16.2193 18.8567 16.434C18.8193 16.658 18.768 16.882 18.7027 17.106C18.6467 17.3393 18.5673 17.5633 18.4647 17.778C18.362 17.9927 18.2313 18.1887 18.0727 18.366C17.886 18.5713 17.606 18.7627 17.2327 18.94C16.8687 19.1267 16.3927 19.22 15.8047 19.22C15.506 19.22 15.2073 19.178 14.9087 19.094C14.61 19.0193 14.33 18.8747 14.0687 18.66C13.7513 18.3893 13.5273 18.0673 13.3967 17.694C13.266 17.33 13.1913 16.9847 13.1727 16.658H14.5027C14.512 16.8167 14.5447 16.9893 14.6007 17.176C14.666 17.3627 14.7593 17.5213 14.8807 17.652C15.03 17.8013 15.1933 17.8947 15.3707 17.932C15.548 17.9693 15.716 17.988 15.8747 17.988C16.0333 17.988 16.2107 17.9647 16.4067 17.918C16.612 17.8713 16.8033 17.7593 16.9807 17.582C17.1673 17.3953 17.298 17.1667 17.3727 16.896C17.4473 16.6347 17.5033 16.3687 17.5407 16.098L17.6387 15.342C17.508 15.5287 17.3633 15.678 17.2047 15.79C17.0553 15.902 16.9013 15.986 16.7427 16.042C16.5933 16.098 16.4487 16.1353 16.3087 16.154C16.1687 16.1727 16.0427 16.182 15.9307 16.182C15.6133 16.182 15.2913 16.126 14.9647 16.014C14.6473 15.902 14.3487 15.706 14.0687 15.426C13.826 15.1833 13.63 14.894 13.4807 14.558C13.3313 14.2127 13.2567 13.802 13.2567 13.326C13.2567 12.85 13.3453 12.388 13.5227 11.94C13.7 11.492 13.9613 11.1 14.3067 10.764C14.6053 10.4653 14.9227 10.2553 15.2587 10.134C15.604 10.0127 16.0053 9.952 16.4627 9.952C16.556 9.952 16.6727 9.96133 16.8127 9.98C16.9527 9.98933 17.0973 10.022 17.2467 10.078C17.4053 10.1247 17.564 10.204 17.7227 10.316C17.8907 10.4187 18.0493 10.5633 18.1987 10.75L18.2827 10.106ZM16.5467 11.184C16.276 11.184 16.0287 11.2307 15.8047 11.324C15.5807 11.4173 15.394 11.5433 15.2447 11.702C15.058 11.8887 14.918 12.1267 14.8247 12.416C14.7313 12.7053 14.6847 12.9853 14.6847 13.256C14.6847 13.5547 14.7313 13.8067 14.8247 14.012C14.918 14.208 15.016 14.362 15.1187 14.474C15.2493 14.6047 15.4033 14.7167 15.5807 14.81C15.7673 14.9033 15.9727 14.95 16.1967 14.95C16.4113 14.95 16.6167 14.9127 16.8127 14.838C17.0087 14.7633 17.2 14.6327 17.3867 14.446C17.5453 14.2873 17.69 14.0773 17.8207 13.816C17.9513 13.5547 18.0167 13.2187 18.0167 12.808C18.0167 12.6027 17.984 12.3973 17.9187 12.192C17.8627 11.9773 17.746 11.7813 17.5687 11.604C17.4567 11.492 17.3167 11.394 17.1487 11.31C16.9807 11.226 16.78 11.184 16.5467 11.184Z" fill="#333333"/>
</svg>
