<svg width="24" height="24" viewBox="0 0 24 24" fill="none" xmlns="http://www.w3.org/2000/svg">
<path d="M6.23151 14.838L5.97951 16H2.39551L5.62951 6.662H9.38151L12.7135 16H9.11551L8.80751 14.838H6.23151ZM7.78551 10.834C7.73884 10.6473 7.70151 10.47 7.67351 10.302C7.64551 10.1247 7.62217 9.952 7.60351 9.784H7.47751C7.46817 9.98 7.44951 10.162 7.42151 10.33C7.40284 10.498 7.37017 10.666 7.32351 10.834L6.86151 12.626H8.21951L7.78551 10.834ZM20.9358 15.622C20.9358 16.098 20.8704 16.5227 20.7398 16.896C20.6184 17.2693 20.3804 17.638 20.0258 18.002C19.7831 18.254 19.5218 18.4547 19.2418 18.604C18.9711 18.7627 18.6911 18.884 18.4018 18.968C18.1218 19.0613 17.8324 19.122 17.5338 19.15C17.2444 19.1873 16.9598 19.206 16.6798 19.206C16.1198 19.206 15.5971 19.1593 15.1118 19.066C14.6358 18.982 14.2484 18.8887 13.9498 18.786L13.3898 18.59L14.1038 16.378C14.2531 16.4993 14.4024 16.602 14.5518 16.686C14.7104 16.77 14.8691 16.8493 15.0278 16.924C15.2144 16.9987 15.4011 17.0593 15.5878 17.106C15.7744 17.1527 15.9751 17.176 16.1898 17.176C16.3951 17.176 16.6051 17.148 16.8198 17.092C17.0344 17.0453 17.2351 16.9287 17.4218 16.742C17.5804 16.5833 17.6878 16.4153 17.7438 16.238C17.7998 16.0607 17.8371 15.8787 17.8558 15.692L17.9118 15.048H17.8418C17.7578 15.2253 17.6551 15.3793 17.5338 15.51C17.4124 15.6313 17.2864 15.734 17.1558 15.818C16.9691 15.9393 16.7731 16.0187 16.5678 16.056C16.3718 16.0933 16.1804 16.112 15.9938 16.112C15.2378 16.112 14.5984 15.846 14.0758 15.314C13.7491 14.9873 13.5064 14.5907 13.3478 14.124C13.1891 13.6573 13.1098 13.186 13.1098 12.71C13.1098 12.2247 13.1984 11.7347 13.3758 11.24C13.5624 10.7453 13.8191 10.3393 14.1458 10.022C14.3418 9.83533 14.5891 9.66733 14.8878 9.518C15.1958 9.35933 15.5644 9.28 15.9938 9.28C16.1244 9.28 16.2924 9.29867 16.4978 9.336C16.7031 9.364 16.9038 9.44333 17.0998 9.574C17.2304 9.66733 17.3611 9.78867 17.4918 9.938C17.6318 10.0873 17.7484 10.232 17.8418 10.372H17.9118C17.8838 10.2693 17.8651 10.1853 17.8558 10.12C17.8464 10.0453 17.8418 9.96133 17.8418 9.868V9.462H20.9358V15.622ZM16.2038 12.724C16.2038 12.976 16.2831 13.186 16.4418 13.354C16.5444 13.466 16.6518 13.5453 16.7638 13.592C16.8758 13.6387 16.9971 13.662 17.1278 13.662C17.3424 13.662 17.5244 13.592 17.6738 13.452C17.7951 13.34 17.8698 13.228 17.8978 13.116C17.9258 12.9947 17.9398 12.8827 17.9398 12.78C17.9398 12.6867 17.9258 12.57 17.8978 12.43C17.8791 12.2807 17.8091 12.15 17.6878 12.038C17.6131 11.9727 17.5198 11.9167 17.4078 11.87C17.3051 11.8233 17.1978 11.8 17.0858 11.8C16.9831 11.8 16.8804 11.8187 16.7778 11.856C16.6751 11.8933 16.5724 11.9633 16.4698 12.066C16.2924 12.2433 16.2038 12.4627 16.2038 12.724Z" fill="#333333"/>
</svg>
