<svg width="24" height="24" viewBox="0 0 24 24" fill="none" xmlns="http://www.w3.org/2000/svg">
<path d="M10.7577 12.934H6.78172L5.15772 16H4.45772L9.56772 6.382L12.2697 16H11.6257L10.7577 12.934ZM10.6037 12.374L9.39972 7.95L7.07572 12.374H10.6037ZM19.4368 10.288L18.7648 15.832C18.7368 16.028 18.7042 16.2333 18.6668 16.448C18.6388 16.672 18.5875 16.896 18.5128 17.12C18.4475 17.344 18.3588 17.5633 18.2468 17.778C18.1348 17.9927 17.9948 18.1887 17.8268 18.366C17.5842 18.6273 17.2715 18.8327 16.8888 18.982C16.5062 19.1407 16.0722 19.22 15.5868 19.22C15.1108 19.22 14.7188 19.15 14.4108 19.01C14.1028 18.87 13.8648 18.716 13.6968 18.548C13.5008 18.3613 13.3328 18.114 13.1928 17.806C13.0622 17.498 12.9922 17.1527 12.9828 16.77H13.5708C13.5802 17.0033 13.6222 17.2413 13.6968 17.484C13.7808 17.7267 13.9068 17.9367 14.0748 18.114C14.2055 18.254 14.3968 18.3847 14.6488 18.506C14.9008 18.6273 15.2368 18.688 15.6568 18.688C16.1235 18.688 16.4922 18.6133 16.7628 18.464C17.0428 18.324 17.2482 18.1887 17.3788 18.058C17.5188 17.918 17.6355 17.7593 17.7288 17.582C17.8222 17.4047 17.8968 17.218 17.9528 17.022C18.0182 16.826 18.0695 16.6253 18.1068 16.42C18.1442 16.2147 18.1768 16.0187 18.2048 15.832L18.3028 15.02C18.0602 15.3747 17.7522 15.6453 17.3788 15.832C17.1455 15.9533 16.9168 16.0373 16.6928 16.084C16.4782 16.1307 16.2635 16.154 16.0488 16.154C15.6755 16.154 15.3255 16.1027 14.9988 16C14.6815 15.888 14.3922 15.6967 14.1308 15.426C13.9255 15.2113 13.7528 14.936 13.6128 14.6C13.4728 14.264 13.4028 13.872 13.4028 13.424C13.4028 12.9853 13.4775 12.556 13.6268 12.136C13.7762 11.716 14.0095 11.3427 14.3268 11.016C14.6535 10.68 14.9942 10.456 15.3488 10.344C15.7035 10.2227 16.0815 10.162 16.4828 10.162C16.7068 10.162 16.9542 10.1853 17.2248 10.232C17.4955 10.2787 17.7662 10.386 18.0368 10.554C18.1115 10.6007 18.2142 10.6847 18.3448 10.806C18.4848 10.918 18.6202 11.0767 18.7508 11.282L18.8768 10.288H19.4368ZM16.4968 10.694C16.1888 10.694 15.8902 10.7453 15.6008 10.848C15.3115 10.9507 15.0548 11.1093 14.8308 11.324C14.5788 11.5667 14.3782 11.8747 14.2288 12.248C14.0888 12.6213 14.0188 13.0133 14.0188 13.424C14.0188 13.816 14.0842 14.1427 14.2148 14.404C14.3455 14.656 14.4808 14.8613 14.6208 15.02C14.8168 15.2347 15.0408 15.3887 15.2928 15.482C15.5542 15.5753 15.8528 15.622 16.1888 15.622C16.4595 15.622 16.7348 15.58 17.0148 15.496C17.3042 15.4027 17.5748 15.2253 17.8268 14.964C18.0695 14.712 18.2562 14.404 18.3868 14.04C18.5175 13.6667 18.5828 13.2747 18.5828 12.864C18.5828 12.4907 18.5222 12.1687 18.4008 11.898C18.2888 11.6273 18.1488 11.4127 17.9808 11.254C17.8035 11.0767 17.5842 10.9413 17.3228 10.848C17.0615 10.7453 16.7862 10.694 16.4968 10.694Z" fill="#333333"/>
</svg>
