<svg width="24" height="24" viewBox="0 0 24 24" fill="none" xmlns="http://www.w3.org/2000/svg">
<path d="M10.1669 13.368H6.19094L4.74894 16H3.57294L9.07494 6.214L12.0569 16H10.9369L10.1669 13.368ZM9.88694 12.388L8.76694 8.65L6.72294 12.388H9.88694ZM18.2879 10.19H19.2959L18.6099 15.86C18.5819 16.084 18.5493 16.308 18.5119 16.532C18.4839 16.7653 18.4373 16.9893 18.3719 17.204C18.3066 17.4187 18.2179 17.624 18.1059 17.82C18.0033 18.016 17.8679 18.2027 17.6999 18.38C17.5133 18.576 17.2379 18.7627 16.8739 18.94C16.5099 19.1267 16.0293 19.22 15.4319 19.22C14.9279 19.22 14.5173 19.15 14.1999 19.01C13.8919 18.87 13.6493 18.7113 13.4719 18.534C13.3133 18.3753 13.1873 18.2027 13.0939 18.016C13.0099 17.8293 12.9446 17.6473 12.8979 17.47C12.8606 17.302 12.8373 17.1433 12.8279 16.994C12.8186 16.8447 12.8139 16.728 12.8139 16.644V16.56H13.8079V16.616C13.8079 16.8213 13.8313 17.0407 13.8779 17.274C13.9246 17.5073 14.0553 17.722 14.2699 17.918C14.4566 18.086 14.6573 18.1933 14.8719 18.24C15.0866 18.296 15.2873 18.324 15.4739 18.324C15.8566 18.324 16.1646 18.268 16.3979 18.156C16.6313 18.0533 16.8133 17.9367 16.9439 17.806C17.0746 17.6847 17.1773 17.5447 17.2519 17.386C17.3359 17.2367 17.3966 17.0827 17.4339 16.924C17.4806 16.7653 17.5133 16.6067 17.5319 16.448C17.5506 16.2987 17.5693 16.1587 17.5879 16.028L17.6719 15.188C17.6066 15.2907 17.5086 15.412 17.3779 15.552C17.2473 15.6827 17.0699 15.804 16.8459 15.916C16.6873 15.9907 16.5099 16.0513 16.3139 16.098C16.1273 16.1447 15.9313 16.168 15.7259 16.168C14.9139 16.168 14.2746 15.9207 13.8079 15.426C13.5093 15.118 13.3133 14.7867 13.2199 14.432C13.1266 14.0773 13.0799 13.7507 13.0799 13.452C13.0799 12.976 13.1593 12.514 13.3179 12.066C13.4766 11.6087 13.7099 11.2213 14.0179 10.904C14.2233 10.6893 14.4986 10.4933 14.8439 10.316C15.1893 10.1387 15.6326 10.05 16.1739 10.05C16.3233 10.05 16.5193 10.064 16.7619 10.092C17.0046 10.12 17.2379 10.1993 17.4619 10.33C17.5833 10.3953 17.7093 10.484 17.8399 10.596C17.9706 10.708 18.0873 10.848 18.1899 11.016L18.2879 10.19ZM16.2859 10.946C15.7353 10.946 15.2686 11.1233 14.8859 11.478C14.6433 11.702 14.4566 11.9773 14.3259 12.304C14.1953 12.6307 14.1299 12.99 14.1299 13.382C14.1299 13.69 14.1766 13.9653 14.2699 14.208C14.3633 14.4507 14.4893 14.6513 14.6479 14.81C14.8159 14.978 15.0026 15.0993 15.2079 15.174C15.4133 15.2393 15.6233 15.272 15.8379 15.272C16.1926 15.272 16.4866 15.2207 16.7199 15.118C16.9533 15.006 17.1353 14.8893 17.2659 14.768C17.5179 14.5347 17.7046 14.236 17.8259 13.872C17.9473 13.508 18.0079 13.1627 18.0079 12.836C18.0079 12.5933 17.9659 12.346 17.8819 12.094C17.7979 11.842 17.6719 11.6227 17.5039 11.436C17.3733 11.3053 17.2099 11.1933 17.0139 11.1C16.8273 10.9973 16.5846 10.946 16.2859 10.946Z" fill="#333333"/>
</svg>
