<svg width="24" height="24" viewBox="0 0 24 24" fill="none" xmlns="http://www.w3.org/2000/svg">
<path d="M9.91236 14.04H6.14636L5.32036 16H3.34636L7.36436 6.662H8.79236L12.6984 16H10.7384L9.91236 14.04ZM9.38036 12.556L8.05036 9.196L6.72036 12.556H9.38036ZM18.1566 9.938H19.8646V15.72C19.8646 15.9533 19.8553 16.1867 19.8366 16.42C19.8179 16.6533 19.7806 16.882 19.7246 17.106C19.6686 17.33 19.5846 17.5493 19.4726 17.764C19.3606 17.9787 19.2113 18.1793 19.0246 18.366C18.8099 18.5807 18.5113 18.7767 18.1286 18.954C17.7553 19.1313 17.2559 19.22 16.6306 19.22C16.0426 19.22 15.5666 19.1453 15.2026 18.996C14.8386 18.856 14.5586 18.6973 14.3626 18.52C14.1199 18.3147 13.9146 18.0487 13.7466 17.722C13.5786 17.3953 13.4573 17.0593 13.3826 16.714H15.2306C15.2679 16.854 15.3193 16.9893 15.3846 17.12C15.4593 17.2507 15.5479 17.358 15.6506 17.442C15.8186 17.6007 16.0006 17.694 16.1966 17.722C16.4019 17.75 16.5653 17.764 16.6866 17.764C16.9293 17.764 17.1346 17.7267 17.3026 17.652C17.4706 17.5773 17.6106 17.4887 17.7226 17.386C17.9186 17.1993 18.0399 16.9893 18.0866 16.756C18.1333 16.5227 18.1566 16.2847 18.1566 16.042V15.188C18.0073 15.412 17.8486 15.594 17.6806 15.734C17.5126 15.8647 17.3446 15.9627 17.1766 16.028C17.0086 16.1027 16.8453 16.1493 16.6866 16.168C16.5373 16.1867 16.4066 16.196 16.2946 16.196C15.8839 16.196 15.5059 16.1307 15.1606 16C14.8153 15.8693 14.4933 15.6593 14.1946 15.37C13.9706 15.146 13.7513 14.838 13.5366 14.446C13.3313 14.0447 13.2286 13.55 13.2286 12.962C13.2286 12.486 13.3079 12.038 13.4666 11.618C13.6346 11.198 13.8679 10.8433 14.1666 10.554C14.4373 10.2927 14.7499 10.092 15.1046 9.952C15.4593 9.812 15.8419 9.742 16.2526 9.742C16.5326 9.742 16.7799 9.77933 16.9946 9.854C17.2093 9.91933 17.3913 10.0033 17.5406 10.106C17.6899 10.1993 17.8159 10.302 17.9186 10.414C18.0213 10.526 18.1006 10.6287 18.1566 10.722V9.938ZM16.6726 11.254C16.4019 11.254 16.1686 11.3007 15.9726 11.394C15.7859 11.478 15.6413 11.5713 15.5386 11.674C15.3986 11.8047 15.2726 11.9727 15.1606 12.178C15.0486 12.3833 14.9926 12.6447 14.9926 12.962C14.9926 13.2327 15.0346 13.466 15.1186 13.662C15.2026 13.858 15.3099 14.0213 15.4406 14.152C15.6273 14.348 15.8279 14.488 16.0426 14.572C16.2573 14.6467 16.4673 14.684 16.6726 14.684C16.8873 14.684 17.0926 14.6467 17.2886 14.572C17.4846 14.4973 17.6573 14.3947 17.8066 14.264C17.9839 14.1053 18.1193 13.9093 18.2126 13.676C18.3059 13.4427 18.3526 13.2047 18.3526 12.962C18.3526 12.6727 18.3013 12.43 18.1986 12.234C18.0959 12.038 17.9839 11.8747 17.8626 11.744C17.6946 11.5667 17.5126 11.4407 17.3166 11.366C17.1206 11.2913 16.9059 11.254 16.6726 11.254Z" fill="#333333"/>
</svg>
