<svg width="24" height="24" viewBox="0 0 24 24" fill="none" xmlns="http://www.w3.org/2000/svg">
<path d="M11.1497 16.21C11.1124 16.3313 10.9957 16.392 10.7997 16.392C10.6131 16.392 10.4777 16.35 10.3937 16.266L9.90373 14.88L9.73573 14.208C9.68906 14.0493 9.63306 13.9187 9.56773 13.816C9.50239 13.704 9.44173 13.6247 9.38573 13.578L8.36373 13.62C7.86906 13.6387 7.41639 13.6947 7.00573 13.788C6.59506 13.8813 6.31039 13.9793 6.15173 14.082C6.10506 14.334 6.04439 14.6093 5.96973 14.908C5.89506 15.2067 5.81106 15.5287 5.71773 15.874C5.66173 16.0047 5.51706 16.07 5.28373 16.07C5.05039 16.07 4.93373 15.9953 4.93373 15.846C4.93373 15.7807 4.94306 15.6873 4.96173 15.566C4.98973 15.4353 5.02239 15.2953 5.05973 15.146C5.09706 14.9967 5.13439 14.8427 5.17173 14.684C5.21839 14.516 5.26039 14.3573 5.29773 14.208C5.28839 14.1707 5.28373 14.1333 5.28373 14.096C5.28373 14.0587 5.28373 14.0213 5.28373 13.984C5.28373 13.8907 5.29773 13.76 5.32573 13.592C5.36306 13.4147 5.40039 13.242 5.43773 13.074C5.48439 12.8967 5.52173 12.7427 5.54973 12.612C5.58706 12.472 5.60573 12.388 5.60573 12.36L6.08173 11.086C6.10973 10.946 6.16573 10.7687 6.24973 10.554C6.33373 10.33 6.42239 10.1107 6.51573 9.896C6.60906 9.672 6.69773 9.462 6.78173 9.266C6.87506 9.07 6.93573 8.92067 6.96373 8.818C7.02906 8.594 7.19706 8.482 7.46773 8.482C7.68239 8.482 7.82706 8.56133 7.90173 8.72C7.89239 8.70133 7.92039 8.74333 7.98573 8.846C8.05106 8.94867 8.13039 9.08867 8.22373 9.266C8.32639 9.434 8.43373 9.62067 8.54573 9.826C8.66706 10.022 8.77906 10.218 8.88173 10.414C8.98439 10.6007 9.06839 10.764 9.13373 10.904C9.20839 11.044 9.24573 11.1327 9.24573 11.17C9.27373 11.2167 9.32039 11.31 9.38573 11.45C9.46039 11.59 9.53506 11.744 9.60973 11.912C9.69373 12.0707 9.76839 12.2247 9.83373 12.374C9.90839 12.514 9.96439 12.6027 10.0017 12.64C10.0951 12.7613 10.1837 12.9247 10.2677 13.13C10.3517 13.3353 10.4217 13.5407 10.4777 13.746C10.5431 13.9513 10.5991 14.1427 10.6457 14.32C10.7017 14.488 10.7484 14.6 10.7857 14.656C10.7857 14.7213 10.8044 14.8193 10.8417 14.95C10.8884 15.0807 10.9351 15.2207 10.9817 15.37C11.0377 15.51 11.0844 15.6453 11.1217 15.776C11.1591 15.8973 11.1777 15.986 11.1777 16.042C11.1777 16.0793 11.1684 16.1353 11.1497 16.21ZM9.00773 12.752L8.69973 11.842C8.60639 11.5713 8.48039 11.3427 8.32173 11.156C8.23773 10.9693 8.13039 10.7547 7.99973 10.512C7.87839 10.2693 7.73373 10.0033 7.56573 9.714C7.32306 10.0967 7.09906 10.68 6.89373 11.464C6.67906 11.9027 6.50173 12.4347 6.36173 13.06C6.38039 13.06 6.43173 13.0507 6.51573 13.032C6.60906 13.0133 6.70706 12.9947 6.80973 12.976C6.91239 12.9573 7.01039 12.9387 7.10373 12.92C7.20639 12.9013 7.28106 12.892 7.32773 12.892C7.39306 12.892 7.46306 12.9013 7.53773 12.92C7.62173 12.9013 7.72439 12.8873 7.84573 12.878C7.96706 12.8687 8.09306 12.8593 8.22373 12.85C8.36373 12.8407 8.49906 12.8313 8.62973 12.822C8.76973 12.8033 8.89573 12.78 9.00773 12.752ZM17.6616 11.226C17.6896 11.3567 17.7036 11.52 17.7036 11.716C17.7036 12.0427 17.6616 12.472 17.5776 13.004C17.5869 13.0413 17.5916 13.116 17.5916 13.228C17.5916 13.3307 17.5823 13.452 17.5636 13.592C17.5543 13.732 17.5403 13.8953 17.5216 14.082C17.5309 14.1287 17.5356 14.18 17.5356 14.236C17.5356 14.2827 17.5356 14.3387 17.5356 14.404C17.5356 14.628 17.5216 14.908 17.4936 15.244C17.4656 15.58 17.4283 15.972 17.3816 16.42C17.2509 17.4747 16.8169 18.254 16.0796 18.758C15.5289 18.954 14.9596 19.052 14.3716 19.052C14.1196 19.052 13.8303 19.0007 13.5036 18.898L12.7616 18.604L12.0756 18.058C11.9449 17.9553 11.8516 17.8713 11.7956 17.806C11.7396 17.75 11.7116 17.6893 11.7116 17.624C11.7116 17.4653 11.7536 17.3347 11.8376 17.232C11.9309 17.1293 12.0429 17.078 12.1736 17.078C12.2763 17.078 12.3789 17.106 12.4816 17.162L13.2796 17.806C13.6436 18.0393 14.0729 18.1653 14.5676 18.184C14.6423 18.184 14.8196 18.1467 15.0996 18.072L15.6036 17.946C15.7996 17.834 15.9816 17.638 16.1496 17.358C16.3176 17.0873 16.4203 16.798 16.4576 16.49V16.42C16.4483 16.3547 16.4529 16.2613 16.4716 16.14C16.4903 16.028 16.5089 15.8833 16.5276 15.706L16.6256 14.74C16.6069 14.7493 16.5369 14.796 16.4156 14.88C16.3036 14.9547 16.1403 15.0387 15.9256 15.132C15.7109 15.2253 15.4496 15.3093 15.1416 15.384C14.8336 15.4587 14.4883 15.496 14.1056 15.496C14.0029 15.496 13.8769 15.4447 13.7276 15.342C13.5783 15.23 13.3543 15.048 13.0556 14.796L12.7196 14.18C12.6356 14.0307 12.5749 13.8767 12.5376 13.718C12.5096 13.55 12.4956 13.3867 12.4956 13.228C12.4956 12.9853 12.5983 12.738 12.8036 12.486C13.0089 12.234 13.2609 12.0053 13.5596 11.8C13.8583 11.5947 14.1803 11.4267 14.5256 11.296C14.8803 11.1653 15.2069 11.1 15.5056 11.1C15.6363 11.1 15.8229 11.1093 16.0656 11.128C16.3083 11.1467 16.5369 11.2307 16.7516 11.38C16.7516 11.352 16.7563 11.3147 16.7656 11.268C16.7843 11.2213 16.8076 11.1747 16.8356 11.128C16.8636 11.0813 16.9056 11.044 16.9616 11.016C17.0269 10.9787 17.1109 10.96 17.2136 10.96C17.4749 10.96 17.6243 11.0487 17.6616 11.226ZM16.6536 12.318C16.5323 12.206 16.3876 12.1313 16.2196 12.094C16.0516 12.0473 15.8929 12.0053 15.7436 11.968C15.4823 11.996 15.1089 12.0753 14.6236 12.206C13.8863 12.626 13.5176 13.032 13.5176 13.424C13.5176 13.4893 13.5409 13.578 13.5876 13.69C13.6436 13.7927 13.7089 13.9047 13.7836 14.026C13.8676 14.138 13.9563 14.2453 14.0496 14.348C14.1523 14.4507 14.2549 14.53 14.3576 14.586C14.7403 14.586 15.2069 14.474 15.7576 14.25C16.0189 14.2033 16.2943 13.97 16.5836 13.55C16.6023 13.3633 16.6163 13.1813 16.6256 13.004C16.6443 12.8267 16.6536 12.6587 16.6536 12.5V12.318Z" fill="#888888"/>
</svg>
