<svg width="24" height="24" viewBox="0 0 24 24" fill="none" xmlns="http://www.w3.org/2000/svg">
<path d="M10.7664 5.494C10.3837 5.69933 9.9777 6.08667 9.54837 6.656C9.11903 7.216 8.68503 7.93467 8.24637 8.812C8.58237 8.87733 8.89037 8.952 9.17037 9.036C9.4597 9.12 9.72103 9.20867 9.95437 9.302L10.7664 5.494ZM11.8584 4.5C12.0544 4.5 12.2504 4.51867 12.4464 4.556C12.6424 4.584 12.815 4.63067 12.9644 4.696L10.7664 15H8.75037L9.82837 9.918C9.5017 9.76867 9.1937 9.65667 8.90437 9.582C8.61503 9.498 8.2977 9.442 7.95237 9.414C7.42037 10.5713 6.9817 11.7473 6.63637 12.942C6.30037 14.1367 6.13237 15.0933 6.13237 15.812C6.13237 15.98 6.14637 16.1247 6.17437 16.246C6.2117 16.3767 6.26303 16.4933 6.32837 16.596C5.61903 16.596 5.12903 16.4747 4.85837 16.232C4.5877 15.9893 4.45237 15.616 4.45237 15.112C4.45237 14.4867 4.63903 13.6513 5.01237 12.606C5.39503 11.5607 5.89437 10.4967 6.51037 9.414C6.03437 9.442 5.66103 9.51667 5.39037 9.638C5.12903 9.75933 4.95637 9.92733 4.87237 10.142C4.9097 10.142 4.94703 10.1933 4.98437 10.296C5.03103 10.3893 5.05437 10.4827 5.05437 10.576C5.05437 10.7347 4.9797 10.8653 4.83037 10.968C4.68103 11.0707 4.49437 11.122 4.27037 11.122C4.00903 11.122 3.79903 11.052 3.64037 10.912C3.4817 10.7627 3.40237 10.562 3.40237 10.31C3.40237 9.82467 3.67303 9.41867 4.21437 9.092C4.76503 8.756 5.44637 8.588 6.25837 8.588C6.3517 8.588 6.45903 8.59267 6.58037 8.602C6.7017 8.602 6.83703 8.61133 6.98637 8.63C7.8077 7.33267 8.64303 6.32 9.49237 5.592C10.3417 4.864 11.1304 4.5 11.8584 4.5ZM17.1779 8.644V8.728L17.3319 8H19.3479L17.9619 14.496C18.4286 14.328 18.7926 14.0947 19.0539 13.796C19.3246 13.488 19.5486 13.054 19.7259 12.494H20.3139C20.0993 13.2033 19.7913 13.7727 19.3899 14.202C18.9979 14.6313 18.4799 14.9347 17.8359 15.112L17.6259 16.12C17.4579 16.904 17.1639 17.4967 16.7439 17.898C16.3239 18.2993 15.7779 18.5 15.1059 18.5C14.6299 18.5 14.2473 18.3787 13.9579 18.136C13.6779 17.8933 13.5379 17.562 13.5379 17.142C13.5379 16.6847 13.7246 16.2787 14.0979 15.924C14.4806 15.5787 15.0546 15.2893 15.8199 15.056L15.9879 14.314C15.7453 14.566 15.4839 14.7573 15.2039 14.888C14.9239 15.0187 14.6253 15.084 14.3079 15.084C13.7293 15.084 13.2719 14.888 12.9359 14.496C12.6093 14.104 12.4459 13.5487 12.4459 12.83C12.4459 12.3073 12.5253 11.7613 12.6839 11.192C12.8426 10.6227 13.0619 10.1047 13.3419 9.638C13.6873 9.08733 14.0886 8.66733 14.5459 8.378C15.0033 8.07933 15.5026 7.93 16.0439 7.93C16.4079 7.93 16.6879 7.99533 16.8839 8.126C17.0799 8.24733 17.1779 8.42 17.1779 8.644ZM17.0519 9.316C17.0426 9.16667 16.9866 9.04533 16.8839 8.952C16.7813 8.84933 16.6459 8.798 16.4779 8.798C15.9646 8.798 15.5073 9.22733 15.1059 10.086C14.7139 10.9447 14.5179 11.794 14.5179 12.634C14.5179 12.998 14.5693 13.2733 14.6719 13.46C14.7746 13.6373 14.9566 13.726 15.2179 13.726C15.4419 13.726 15.6613 13.6233 15.8759 13.418C16.0999 13.2127 16.2539 12.9513 16.3379 12.634L17.0519 9.316ZM15.6799 15.756C15.2133 15.9333 14.8679 16.1153 14.6439 16.302C14.4199 16.498 14.3079 16.7127 14.3079 16.946C14.3079 17.0673 14.3546 17.1747 14.4479 17.268C14.5413 17.3613 14.6533 17.408 14.7839 17.408C14.9426 17.408 15.0966 17.296 15.2459 17.072C15.3953 16.848 15.5119 16.5447 15.5959 16.162L15.6799 15.756Z" fill="#333333"/>
</svg>
