<svg width="24" height="24" viewBox="0 0 24 24" fill="none" xmlns="http://www.w3.org/2000/svg">
<path d="M12.6494 16.8633C12.6494 17.0638 12.4398 17.1641 12.0205 17.1641C11.6969 17.1641 11.501 17.0843 11.4326 16.9248L10.1543 13.9854H5.69043L4.40527 17.0068C4.35514 17.1117 4.22754 17.1641 4.02246 17.1641C3.74447 17.1641 3.60547 17.0957 3.60547 16.959C3.60547 16.9544 3.61003 16.9339 3.61914 16.8975L7.49512 7.78516C7.55436 7.63477 7.76855 7.55957 8.1377 7.55957C8.45671 7.55957 8.65267 7.63932 8.72559 7.79883L12.6084 16.7402C12.6357 16.804 12.6494 16.8451 12.6494 16.8633ZM9.8877 13.3633L7.89844 8.7832L5.9502 13.3633H9.8877ZM19.8818 16.7949C19.8818 17.8294 19.5309 18.5814 18.8291 19.0508C18.1318 19.5247 17.3138 19.7617 16.375 19.7617C15.8418 19.7617 15.2585 19.6706 14.625 19.4883C13.9961 19.306 13.5267 18.987 13.2168 18.5312C13.1895 18.4902 13.1758 18.4515 13.1758 18.415C13.1758 18.2145 13.3649 18.1143 13.7432 18.1143C13.9893 18.1143 14.1602 18.1803 14.2559 18.3125C14.4655 18.6178 14.7822 18.832 15.2061 18.9551C15.6299 19.0781 16.0218 19.1396 16.3818 19.1396C17.9769 19.1396 18.7744 18.3581 18.7744 16.7949V16.1455C18.2731 16.82 17.5257 17.1572 16.5322 17.1572C15.4886 17.1572 14.666 16.8223 14.0645 16.1523C13.4674 15.4779 13.1689 14.6462 13.1689 13.6572C13.1689 12.6637 13.4674 11.832 14.0645 11.1621C14.666 10.4922 15.4886 10.1572 16.5322 10.1572C17.5075 10.1572 18.2549 10.5036 18.7744 11.1963L18.7812 10.4717C18.7812 10.262 18.9658 10.1572 19.335 10.1572C19.6995 10.1572 19.8818 10.262 19.8818 10.4717V16.7949ZM16.5322 16.5352C17.2933 16.5352 17.8584 16.2207 18.2275 15.5918C18.5967 14.9629 18.7812 14.318 18.7812 13.6572C18.7812 12.9919 18.5967 12.347 18.2275 11.7227C17.8584 11.0938 17.2933 10.7793 16.5322 10.7793C15.7757 10.7793 15.2106 11.0938 14.8369 11.7227C14.4678 12.347 14.2832 12.9919 14.2832 13.6572C14.2832 14.318 14.4678 14.9629 14.8369 15.5918C15.2106 16.2207 15.7757 16.5352 16.5322 16.5352Z" fill="#888888"/>
</svg>
