<svg width="24" height="24" viewBox="0 0 24 24" fill="none" xmlns="http://www.w3.org/2000/svg">
<path d="M11.8828 15.3984C11.9876 15.4076 12.056 15.4281 12.0879 15.46C12.1243 15.4919 12.1426 15.5534 12.1426 15.6445C12.138 15.722 12.1107 15.8018 12.0605 15.8838C12.015 15.9613 11.958 16 11.8896 16H8.17773C8.10938 16 8.05469 15.959 8.01367 15.877C7.97721 15.7949 7.96354 15.722 7.97266 15.6582C7.9681 15.5807 7.98177 15.5215 8.01367 15.4805C8.05013 15.4349 8.11393 15.4076 8.20508 15.3984L8.56055 15.3779C8.78841 15.3688 8.94564 15.3529 9.03223 15.3301C9.11882 15.3073 9.16211 15.2549 9.16211 15.1729L9.14844 15.0771L8.73828 12.999H5.14258L4.07617 14.9404C4.03971 15.0133 4.02148 15.0771 4.02148 15.1318C4.02148 15.2275 4.09668 15.2913 4.24707 15.3232C4.40202 15.3506 4.65951 15.3757 5.01953 15.3984C5.11068 15.4121 5.1722 15.4395 5.2041 15.4805C5.236 15.5169 5.25423 15.5739 5.25879 15.6514C5.24967 15.7334 5.22461 15.8132 5.18359 15.8906C5.14258 15.9635 5.08333 16 5.00586 16H1.875C1.81576 16 1.77018 15.9658 1.73828 15.8975C1.70638 15.8291 1.69043 15.7585 1.69043 15.6855C1.69043 15.5762 1.70866 15.5033 1.74512 15.4668C1.78158 15.4303 1.84766 15.4076 1.94336 15.3984L2.12793 15.3779C2.31022 15.3551 2.45833 15.3301 2.57227 15.3027C2.69076 15.2754 2.80469 15.2253 2.91406 15.1523C3.02799 15.0749 3.12142 14.9655 3.19434 14.8242L8.04102 6.12891H8.99805L10.9463 14.8311C10.9919 14.9906 11.0648 15.1113 11.165 15.1934C11.2653 15.2708 11.3678 15.321 11.4727 15.3438C11.582 15.3665 11.7188 15.3848 11.8828 15.3984ZM5.47754 12.3906H8.61523L7.78125 8.2002L5.47754 12.3906ZM15.5264 19.2061C14.8701 19.2061 14.2845 19.1195 13.7695 18.9463C13.2591 18.7777 12.8626 18.5384 12.5801 18.2285C12.2975 17.9232 12.1585 17.5723 12.1631 17.1758C12.1676 16.8021 12.277 16.4831 12.4912 16.2188C12.71 15.959 13.0107 15.7585 13.3936 15.6172C13.2796 15.5078 13.193 15.3916 13.1338 15.2686C13.0791 15.141 13.0518 14.9928 13.0518 14.8242C13.0563 14.446 13.1794 14.1224 13.4209 13.8535C13.667 13.5846 13.9837 13.3818 14.3711 13.2451C14.125 13.1403 13.9154 12.9967 13.7422 12.8145C13.5736 12.6276 13.446 12.4271 13.3594 12.2129C13.2728 11.9941 13.2318 11.7822 13.2363 11.5771C13.2409 11.0439 13.3776 10.5905 13.6465 10.2168C13.9154 9.83854 14.2891 9.55371 14.7676 9.3623C15.2461 9.16634 15.7975 9.06836 16.4219 9.06836C16.8822 9.06836 17.2878 9.1276 17.6387 9.24609C17.9941 9.36458 18.2767 9.52865 18.4863 9.73828C18.6367 9.56966 18.8509 9.41471 19.1289 9.27344C19.4069 9.1276 19.6644 9.05469 19.9014 9.05469C20.1976 9.05469 20.4255 9.13672 20.585 9.30078C20.749 9.46029 20.8311 9.68815 20.8311 9.98438C20.8265 10.235 20.7559 10.4264 20.6191 10.5586C20.4824 10.6908 20.3229 10.7568 20.1406 10.7568C20.0404 10.7568 19.9469 10.7363 19.8604 10.6953C19.7783 10.6497 19.7191 10.5882 19.6826 10.5107C19.5778 10.3649 19.4821 10.1849 19.3955 9.9707C19.3818 9.95247 19.3568 9.94336 19.3203 9.94336C19.2064 9.94336 19.0241 10.0117 18.7734 10.1484C18.8327 10.2168 18.8851 10.3262 18.9307 10.4766C18.9762 10.6224 18.999 10.7682 18.999 10.9141C18.9945 11.429 18.8669 11.8848 18.6162 12.2812C18.3656 12.6732 18.0078 12.9785 17.543 13.1973C17.0781 13.416 16.5312 13.5254 15.9023 13.5254C15.5286 13.5254 15.2051 13.4958 14.9316 13.4365C14.7721 13.4867 14.6286 13.5846 14.501 13.7305C14.3734 13.8717 14.3096 14.0085 14.3096 14.1406C14.3096 14.2865 14.3734 14.4049 14.501 14.4961C14.6331 14.5827 14.8177 14.6396 15.0547 14.667L16.9072 14.8584C17.7275 14.9495 18.3245 15.1364 18.6982 15.4189C19.0765 15.6969 19.2656 16.098 19.2656 16.6221C19.2656 17.1872 19.097 17.6634 18.7598 18.0508C18.4225 18.4427 17.9714 18.7321 17.4062 18.9189C16.8411 19.1104 16.2145 19.2061 15.5264 19.2061ZM15.998 12.876C16.4993 12.876 16.8639 12.7028 17.0918 12.3564C17.3242 12.0101 17.4404 11.5293 17.4404 10.9141C17.4404 10.5358 17.3424 10.235 17.1465 10.0117C16.9505 9.78841 16.6589 9.67676 16.2715 9.67676C15.7292 9.67676 15.3555 9.84993 15.1504 10.1963C14.9453 10.5381 14.8428 11.0029 14.8428 11.5908C14.8428 11.9782 14.9408 12.2904 15.1367 12.5273C15.3327 12.7598 15.6198 12.876 15.998 12.876ZM15.6289 18.5498C16.2897 18.5498 16.8389 18.4359 17.2764 18.208C17.7184 17.9801 17.9417 17.6156 17.9463 17.1143C17.9508 16.8499 17.7891 16.6562 17.4609 16.5332C17.1328 16.4102 16.6885 16.319 16.1279 16.2598L14.7881 16.1094C14.4508 16.0775 14.1706 16.016 13.9473 15.9248C13.8242 16.0387 13.7354 16.18 13.6807 16.3486C13.6305 16.5218 13.6055 16.7292 13.6055 16.9707C13.6055 17.4993 13.7855 17.8936 14.1455 18.1533C14.5101 18.4176 15.0046 18.5498 15.6289 18.5498Z" fill="#333333"/>
</svg>
