<svg width="24" height="24" viewBox="0 0 24 24" fill="none" xmlns="http://www.w3.org/2000/svg">
<path d="M12.3965 16.3984C12.4967 16.4121 12.5605 16.4349 12.5879 16.4668C12.6198 16.4941 12.6357 16.5557 12.6357 16.6514C12.6266 16.7243 12.5993 16.8018 12.5537 16.8838C12.5081 16.9613 12.4512 17 12.3828 17H8.92383C8.85091 17 8.79395 16.959 8.75293 16.877C8.71647 16.7904 8.7028 16.7152 8.71191 16.6514C8.70736 16.5739 8.72331 16.5146 8.75977 16.4736C8.79622 16.4326 8.85775 16.4076 8.94434 16.3984C9.09928 16.3893 9.21094 16.3848 9.2793 16.3848C9.52995 16.3757 9.7054 16.3597 9.80566 16.3369C9.90592 16.3141 9.95605 16.2594 9.95605 16.1729C9.95605 16.1592 9.9515 16.1341 9.94238 16.0977L9.51855 13.9443H6.13477L4.96582 16.0977C4.95215 16.1204 4.94531 16.1523 4.94531 16.1934C4.94531 16.2708 5 16.321 5.10938 16.3438C5.22331 16.3665 5.40332 16.3802 5.64941 16.3848L5.93652 16.3984C6.01855 16.4076 6.07324 16.4326 6.10059 16.4736C6.13249 16.5146 6.15072 16.5739 6.15527 16.6514C6.14616 16.7243 6.11882 16.8018 6.07324 16.8838C6.02767 16.9613 5.9707 17 5.90234 17H2.80566C2.7373 17 2.68945 16.959 2.66211 16.877C2.63021 16.7949 2.61882 16.7197 2.62793 16.6514C2.62793 16.5511 2.64388 16.4873 2.67578 16.46C2.70768 16.4281 2.77376 16.4076 2.87402 16.3984C2.91504 16.3939 2.98112 16.3916 3.07227 16.3916C3.24544 16.387 3.389 16.3757 3.50293 16.3574C3.62142 16.3346 3.73991 16.2868 3.8584 16.2139C3.97689 16.141 4.07259 16.027 4.14551 15.8721L8.89648 7.15625H9.53223L11.4258 15.8721C11.485 16.0863 11.583 16.2253 11.7197 16.2891C11.8564 16.3483 12.0251 16.3802 12.2256 16.3848L12.3965 16.3984ZM6.46289 13.3428H9.39551L8.61621 9.38477L6.46289 13.3428ZM15.7803 20.2812C15.1878 20.2812 14.6501 20.1878 14.167 20.001C13.6885 19.8187 13.3125 19.568 13.0391 19.249C12.7702 18.93 12.638 18.5814 12.6426 18.2031C12.6471 17.8066 12.7474 17.474 12.9434 17.2051C13.1393 16.9408 13.4333 16.7334 13.8252 16.583C13.6611 16.3825 13.5791 16.1455 13.5791 15.8721C13.5837 15.4665 13.6999 15.1361 13.9277 14.8809C14.1602 14.6257 14.4814 14.4365 14.8916 14.3135C14.641 14.2178 14.4245 14.0742 14.2422 13.8828C14.0599 13.6868 13.9209 13.4749 13.8252 13.2471C13.734 13.0192 13.6885 12.805 13.6885 12.6045C13.6885 12.085 13.8092 11.6338 14.0508 11.251C14.2923 10.8682 14.6432 10.5765 15.1035 10.376C15.5638 10.1709 16.1107 10.0684 16.7441 10.0684C17.1543 10.0684 17.5257 10.1299 17.8584 10.2529C18.1956 10.376 18.4622 10.5469 18.6582 10.7656C18.7949 10.597 18.9954 10.4398 19.2598 10.2939C19.5241 10.1436 19.7633 10.0684 19.9775 10.0684C20.5563 10.0684 20.8457 10.3486 20.8457 10.9092C20.8457 11.1598 20.7819 11.3512 20.6543 11.4834C20.5312 11.6156 20.3854 11.6816 20.2168 11.6816C20.1393 11.6816 20.0664 11.6657 19.998 11.6338C19.9342 11.6019 19.8818 11.5563 19.8408 11.4971C19.7542 11.4014 19.6836 11.3125 19.6289 11.2305C19.5788 11.1484 19.5309 11.0527 19.4854 10.9434C19.4717 10.916 19.4443 10.9023 19.4033 10.9023C19.3167 10.9023 19.1458 10.9753 18.8906 11.1211C18.9544 11.1667 19.0137 11.2692 19.0684 11.4287C19.1276 11.5837 19.1572 11.7409 19.1572 11.9004C19.1572 12.388 19.0433 12.8324 18.8154 13.2334C18.5876 13.6344 18.2526 13.9535 17.8105 14.1904C17.3685 14.4274 16.8353 14.5459 16.2109 14.5459C16.0833 14.5459 15.9466 14.5413 15.8008 14.5322C15.6549 14.5231 15.5365 14.5117 15.4453 14.498C15.3268 14.5254 15.2083 14.5824 15.0898 14.6689C14.9759 14.7555 14.8825 14.8558 14.8096 14.9697C14.7367 15.0837 14.7002 15.1908 14.7002 15.291C14.7002 15.446 14.7686 15.569 14.9053 15.6602C15.042 15.7467 15.2288 15.8037 15.4658 15.8311L17.1338 16.002C17.8766 16.0794 18.4258 16.248 18.7812 16.5078C19.1413 16.763 19.3213 17.139 19.3213 17.6357C19.3213 18.2373 19.1595 18.7363 18.8359 19.1328C18.5169 19.5293 18.0908 19.8187 17.5576 20.001C17.0244 20.1878 16.432 20.2812 15.7803 20.2812ZM16.2725 13.8828C16.8102 13.8828 17.1999 13.7165 17.4414 13.3838C17.6875 13.0511 17.8105 12.5771 17.8105 11.9619C17.8105 11.7295 17.765 11.5176 17.6738 11.3262C17.5827 11.1302 17.446 10.9753 17.2637 10.8613C17.0814 10.7428 16.8604 10.6836 16.6006 10.6836C15.9945 10.6836 15.5775 10.8613 15.3496 11.2168C15.1263 11.5677 15.0146 12.0326 15.0146 12.6113C15.0146 12.8483 15.0625 13.0625 15.1582 13.2539C15.2539 13.4453 15.3975 13.598 15.5889 13.7119C15.7803 13.8258 16.0081 13.8828 16.2725 13.8828ZM15.8486 19.6182C16.5641 19.6182 17.152 19.502 17.6123 19.2695C18.0771 19.0417 18.3141 18.6611 18.3232 18.1279C18.3232 17.9183 18.2253 17.752 18.0293 17.6289C17.8379 17.5104 17.6009 17.4238 17.3184 17.3691C17.0358 17.319 16.6895 17.2734 16.2793 17.2324L15.3633 17.1367C14.9076 17.0957 14.543 17.0137 14.2695 16.8906C14.1191 17.0046 14.0189 17.1458 13.9688 17.3145C13.9186 17.4876 13.8936 17.7064 13.8936 17.9707C13.8936 18.3581 13.9847 18.6748 14.167 18.9209C14.3538 19.167 14.5931 19.3447 14.8848 19.4541C15.181 19.5635 15.5023 19.6182 15.8486 19.6182Z" fill="#888888"/>
</svg>
