<svg width="24" height="24" viewBox="0 0 24 24" fill="none" xmlns="http://www.w3.org/2000/svg">
<path d="M11.876 15.3984C11.9808 15.403 12.0537 15.4235 12.0947 15.46C12.1357 15.4919 12.1562 15.5534 12.1562 15.6445C12.1517 15.7266 12.1221 15.8063 12.0674 15.8838C12.0173 15.9613 11.958 16 11.8896 16H7.93164C7.86328 16 7.81087 15.9635 7.77441 15.8906C7.74251 15.8132 7.72656 15.738 7.72656 15.665C7.72656 15.501 7.80859 15.4121 7.97266 15.3984L8.30078 15.3779C8.51953 15.3688 8.66764 15.3529 8.74512 15.3301C8.82715 15.3073 8.86816 15.2526 8.86816 15.166C8.86816 15.1432 8.86133 15.1045 8.84766 15.0498L8.45117 13.0537H4.65039L3.69336 14.7832C3.67057 14.8197 3.65007 14.8675 3.63184 14.9268C3.61361 14.986 3.60449 15.0316 3.60449 15.0635C3.60449 15.1637 3.68652 15.2389 3.85059 15.2891C4.01921 15.3346 4.27214 15.3734 4.60938 15.4053C4.70964 15.4144 4.77572 15.4372 4.80762 15.4736C4.83952 15.5101 4.85547 15.5671 4.85547 15.6445C4.85547 15.7311 4.83496 15.8132 4.79395 15.8906C4.75293 15.9635 4.69368 16 4.61621 16H1.44434C1.38053 16 1.33496 15.9704 1.30762 15.9111C1.27572 15.8473 1.25977 15.779 1.25977 15.7061C1.25977 15.5921 1.28255 15.5169 1.32812 15.4805C1.36914 15.4395 1.43066 15.4121 1.5127 15.3984C1.74512 15.3574 1.92741 15.321 2.05957 15.2891C2.19173 15.2526 2.31706 15.1956 2.43555 15.1182C2.55859 15.0361 2.65885 14.9222 2.73633 14.7764L7.68555 6.1084H8.95703L10.9736 14.7832C11.083 15.1751 11.3838 15.3802 11.876 15.3984ZM4.99219 12.4385H8.32812L7.44629 8.01562L4.99219 12.4385ZM15.7725 19.1377C15.0479 19.1377 14.4144 19.0602 13.8721 18.9053C13.3298 18.7503 12.9105 18.5225 12.6143 18.2217C12.3226 17.9209 12.1768 17.5609 12.1768 17.1416C12.1813 16.7816 12.3021 16.4762 12.5391 16.2256C12.7806 15.9749 13.0905 15.7835 13.4688 15.6514C13.3184 15.5374 13.2067 15.4121 13.1338 15.2754C13.0654 15.1387 13.0312 14.9723 13.0312 14.7764C13.0312 14.4209 13.1589 14.1019 13.4141 13.8193C13.6693 13.5368 13.9814 13.3203 14.3506 13.1699C14.0042 13.0104 13.7399 12.7871 13.5576 12.5C13.3753 12.2083 13.2865 11.8984 13.291 11.5703C13.291 11.0234 13.4391 10.5632 13.7354 10.1895C14.0316 9.8112 14.4281 9.53092 14.9248 9.34863C15.4215 9.16178 15.9775 9.06836 16.5928 9.06836C17.1077 9.06836 17.5498 9.12533 17.9189 9.23926C18.2926 9.34863 18.5889 9.50814 18.8076 9.71777C18.9808 9.5446 19.2132 9.38965 19.5049 9.25293C19.7965 9.11621 20.0723 9.04785 20.332 9.04785C20.6237 9.04785 20.8607 9.13444 21.043 9.30762C21.2253 9.48079 21.3141 9.72233 21.3096 10.0322C21.3096 10.2874 21.2367 10.4857 21.0908 10.627C20.945 10.7682 20.7718 10.8389 20.5713 10.8389C20.4437 10.8389 20.3275 10.8115 20.2227 10.7568C20.1178 10.7021 20.0495 10.627 20.0176 10.5312C19.9583 10.4082 19.89 10.2305 19.8125 9.99805C19.8034 9.98893 19.7829 9.98438 19.751 9.98438C19.6872 9.98438 19.596 10.0049 19.4775 10.0459C19.359 10.0824 19.2497 10.1257 19.1494 10.1758C19.1995 10.2669 19.2428 10.3763 19.2793 10.5039C19.3158 10.627 19.334 10.7523 19.334 10.8799C19.334 11.4313 19.1973 11.9053 18.9238 12.3018C18.6549 12.6937 18.2767 12.9922 17.7891 13.1973C17.3014 13.3978 16.7363 13.498 16.0938 13.498C15.6335 13.498 15.2415 13.4593 14.918 13.3818C14.7812 13.4411 14.6628 13.5277 14.5625 13.6416C14.4668 13.751 14.4167 13.8604 14.4121 13.9697C14.4121 14.111 14.4736 14.2272 14.5967 14.3184C14.7197 14.4095 14.9043 14.4688 15.1504 14.4961L17.1807 14.7217C17.7868 14.79 18.2744 14.904 18.6436 15.0635C19.0173 15.2184 19.2884 15.4235 19.457 15.6787C19.6257 15.9294 19.71 16.2393 19.71 16.6084C19.71 17.1416 19.5322 17.5973 19.1768 17.9756C18.8258 18.3584 18.3519 18.6478 17.7549 18.8438C17.1579 19.0397 16.4971 19.1377 15.7725 19.1377ZM16.2236 12.876C16.6839 12.876 17.0234 12.6937 17.2422 12.3291C17.4609 11.9645 17.5703 11.4769 17.5703 10.8662C17.5703 10.0641 17.1966 9.66309 16.4492 9.66309C15.9753 9.66309 15.6426 9.83398 15.4512 10.1758C15.2598 10.5176 15.1641 10.9824 15.1641 11.5703C15.1641 11.985 15.2484 12.3063 15.417 12.5342C15.5902 12.762 15.859 12.876 16.2236 12.876ZM15.916 18.4746C16.5221 18.4746 17.0326 18.3607 17.4473 18.1328C17.862 17.9095 18.0716 17.5632 18.0762 17.0938C18.0762 16.8613 17.9326 16.6836 17.6455 16.5605C17.3584 16.4375 16.971 16.3486 16.4834 16.2939L14.7197 16.082C14.4736 16.0592 14.2777 16.0205 14.1318 15.9658C14.0316 16.0798 13.9541 16.221 13.8994 16.3896C13.8447 16.5628 13.8174 16.7542 13.8174 16.9639C13.8174 17.4606 13.9906 17.8366 14.3369 18.0918C14.6878 18.347 15.2142 18.4746 15.916 18.4746Z" fill="#333333"/>
</svg>
