<svg width="24" height="24" viewBox="0 0 24 24" fill="none" xmlns="http://www.w3.org/2000/svg">
<path d="M12.5218 17H11.5838L10.9538 14.452L11.1218 14.592H7.00583L7.18783 14.452L6.48783 17H5.60583L7.80383 9.342C7.89716 8.99667 7.99049 8.73533 8.08383 8.558C8.18649 8.38067 8.32183 8.25933 8.48983 8.194C8.66716 8.12867 8.92383 8.096 9.25983 8.096L10.2818 8.11L12.5218 17ZM8.69983 9.034L7.32783 13.92L7.22983 13.78H10.9398L10.8278 13.92L9.58183 8.908H8.82583C8.78849 8.908 8.76049 8.922 8.74183 8.95C8.72316 8.96867 8.70916 8.99667 8.69983 9.034ZM17.0373 16.23V10.742L17.1633 10.868L14.3913 10.84C14.3166 10.84 14.2793 10.8773 14.2793 10.952V16.23C14.2793 16.3047 14.3166 16.342 14.3913 16.342H16.9253C16.9999 16.342 17.0373 16.3047 17.0373 16.23ZM16.9253 19.002C16.9999 19.002 17.0373 18.96 17.0373 18.876V16.342L17.1353 15.866C17.1353 16.2953 17.0466 16.608 16.8693 16.804C16.6919 16.9907 16.3886 17.084 15.9593 17.084H14.8533C14.3399 17.084 13.9619 16.986 13.7193 16.79C13.4859 16.594 13.3693 16.2393 13.3693 15.726V11.484C13.3693 10.952 13.4906 10.588 13.7333 10.392C13.9759 10.1867 14.3679 10.0887 14.9093 10.098L17.9473 10.14V18.316C17.9473 18.848 17.8213 19.2167 17.5693 19.422C17.3173 19.6367 16.9113 19.744 16.3513 19.744H13.5933V19.002H16.9253Z" fill="#888888"/>
</svg>
