<svg width="24" height="24" viewBox="0 0 24 24" fill="none" xmlns="http://www.w3.org/2000/svg">
<path d="M12.5195 16L10.373 7.31836L9.25195 7.29102C8.70508 7.29102 8.33594 7.40495 8.14453 7.63281C8.01693 7.79688 7.88932 8.10677 7.76172 8.5625L5.66992 16H6.6543L7.26953 13.7031H10.8926L11.4668 16H12.5195ZM8.73242 8.34375C8.75977 8.27083 8.80534 8.22982 8.86914 8.2207H9.58008L10.7012 12.8008H7.51562L8.73242 8.34375ZM16.8809 15.1387C16.8809 15.2207 16.8398 15.2617 16.7578 15.2617H14.4473C14.3743 15.2435 14.3333 15.2025 14.3242 15.1387V10.2168C14.3424 10.1439 14.3835 10.1029 14.4473 10.0938L16.8809 10.1211V15.1387ZM16.7578 17.8457H13.5449V18.6934H16.252C17.0723 18.6934 17.5827 18.4609 17.7832 17.9961C17.8652 17.7865 17.9062 17.5267 17.9062 17.2168V9.30078L14.8848 9.25977C14.1283 9.25065 13.6543 9.44661 13.4629 9.84766C13.3626 10.0573 13.3125 10.3307 13.3125 10.668V14.7148C13.3125 15.4167 13.554 15.8451 14.0371 16C14.2376 16.0638 14.4928 16.0957 14.8027 16.0957H15.7871C16.3796 16.0866 16.7441 15.877 16.8809 15.4668V17.7227C16.8626 17.7956 16.8216 17.8366 16.7578 17.8457Z" fill="#333333"/>
</svg>
