<svg width="24" height="24" viewBox="0 0 24 24" fill="none" xmlns="http://www.w3.org/2000/svg">
<path d="M12.0177 17H9.95973L9.53973 14.886L9.70773 15.026H6.55773L6.72573 14.886L6.24973 17H4.31773L6.13773 9.72C6.24973 9.28133 6.37573 8.94067 6.51573 8.698C6.65573 8.446 6.85173 8.26867 7.10373 8.166C7.35573 8.06333 7.69639 8.02133 8.12573 8.04L10.1417 8.11L12.0177 17ZM7.83173 10.084L7.07573 13.388L6.96373 13.248H9.35773L9.24573 13.388L8.55973 9.888H8.02773C7.96239 9.888 7.91573 9.902 7.88773 9.93C7.86906 9.958 7.85039 10.0093 7.83173 10.084ZM16.1691 15.334V11.554L16.3791 11.778H14.7971C14.6664 11.778 14.6011 11.8433 14.6011 11.974V15.334C14.6011 15.4647 14.6664 15.53 14.7971 15.53H15.9731C16.1037 15.53 16.1691 15.4647 16.1691 15.334ZM15.9731 18.148C16.1037 18.148 16.1691 18.0827 16.1691 17.952V15.53H16.2251C16.2251 16.0153 16.1131 16.4073 15.8891 16.706C15.6651 16.9953 15.3057 17.14 14.8111 17.14H14.4611C13.8357 17.14 13.3737 17.0047 13.0751 16.734C12.7857 16.4633 12.6411 16.0153 12.6411 15.39V11.988C12.6411 11.288 12.7997 10.798 13.1171 10.518C13.4344 10.2287 13.9757 10.0887 14.7411 10.098L18.1711 10.14V17.7C18.1711 18.4373 17.9844 18.9693 17.6111 19.296C17.2377 19.632 16.6311 19.8 15.7911 19.8H12.9631V18.148H15.9731Z" fill="#888888"/>
</svg>
