<svg width="24" height="24" viewBox="0 0 24 24" fill="none" xmlns="http://www.w3.org/2000/svg">
<path d="M12.499 16L10.5439 7.31836L8.93066 7.26367C8.29264 7.24544 7.85514 7.38216 7.61816 7.67383C7.4541 7.88346 7.30827 8.24349 7.18066 8.75391L5.2666 16H6.77051L7.29004 13.9082H10.4482L10.8994 16H12.499ZM8.54785 8.86328C8.59342 8.76302 8.64811 8.70833 8.71191 8.69922H9.31348L10.1611 12.5273H7.63184L8.54785 8.86328ZM16.6963 14.7012C16.6963 14.8105 16.6416 14.8652 16.5322 14.8652H14.8916C14.7822 14.8652 14.7275 14.8105 14.7275 14.7012V10.7227C14.7458 10.6224 14.8005 10.5677 14.8916 10.5586L16.6963 10.5723V14.7012ZM16.5322 17.4355H13.4697V18.7207H16.2178C17.2386 18.7207 17.8721 18.4154 18.1182 17.8047C18.2093 17.5586 18.2549 17.2624 18.2549 16.916V9.30078L15.042 9.25977C14.167 9.25065 13.6156 9.4694 13.3877 9.91602C13.2601 10.1621 13.1963 10.4948 13.1963 10.9141V14.5508C13.1963 15.3529 13.4834 15.8451 14.0576 16.0273C14.2764 16.0911 14.5407 16.123 14.8506 16.123H15.4658C16.1312 16.1139 16.5413 15.8314 16.6963 15.2754V17.2715C16.6963 17.3809 16.6416 17.4355 16.5322 17.4355Z" fill="#333333"/>
</svg>
