<svg width="24" height="24" viewBox="0 0 24 24" fill="none" xmlns="http://www.w3.org/2000/svg">
<path d="M2.52414 17.2L5.26814 9.5756C5.45107 9.1052 5.69934 8.74587 6.01294 8.4976C6.32654 8.23627 6.83614 8.1056 7.54174 8.1056C8.16894 8.1056 8.64587 8.2232 8.97254 8.4584C9.31227 8.6936 9.5736 9.066 9.75654 9.5756L12.5593 17.2H10.3837L9.54094 14.848H4.89574L4.07254 17.2H2.52414ZM5.20934 14.0052H9.16854L7.93374 10.4184C7.88147 10.2485 7.8096 10.0983 7.71814 9.9676C7.63974 9.83693 7.46334 9.7716 7.18894 9.7716C6.90147 9.7716 6.712 9.84347 6.62054 9.9872C6.52907 10.1179 6.4572 10.2616 6.40494 10.4184L5.20934 14.0052ZM17.4979 19.4736C17.119 19.4736 16.7401 19.4605 16.3611 19.4344C15.9822 19.4083 15.6294 19.3625 15.3027 19.2972C14.9891 19.2319 14.7278 19.1339 14.5187 19.0032C14.3227 18.8856 14.2247 18.7288 14.2247 18.5328C14.2247 18.4805 14.2247 18.4087 14.2247 18.3172C14.2247 18.2257 14.2247 18.1604 14.2247 18.1212C14.3946 18.2127 14.6494 18.2911 14.9891 18.3564C15.3419 18.4348 15.7143 18.4936 16.1063 18.5328C16.5114 18.5851 16.8642 18.6112 17.1647 18.6112C17.9226 18.6112 18.5041 18.5001 18.9091 18.278C19.3142 18.0559 19.5886 17.6965 19.7323 17.2C19.8761 16.7165 19.9218 16.0697 19.8695 15.2596H20.1831C20.0525 15.6908 19.8369 16.024 19.5363 16.2592C19.2489 16.4944 18.8961 16.6577 18.4779 16.7492C18.0598 16.8407 17.5894 16.8864 17.0667 16.8864C16.2958 16.8864 15.6555 16.7949 15.1459 16.612C14.6494 16.416 14.2835 16.0567 14.0483 15.534C13.8262 15.0113 13.7151 14.2535 13.7151 13.2604C13.7151 12.4241 13.787 11.7512 13.9307 11.2416C14.0875 10.7189 14.3358 10.3204 14.6755 10.046C15.0283 9.75853 15.4791 9.56907 16.0279 9.4776C16.5898 9.37307 17.2823 9.3208 18.1055 9.3208C18.3799 9.3208 18.7066 9.33387 19.0855 9.36C19.4645 9.38613 19.8369 9.41227 20.2027 9.4384C20.5817 9.46453 20.9083 9.49067 21.1827 9.5168C21.4702 9.54293 21.6662 9.56253 21.7707 9.5756C21.7577 9.6148 21.7446 9.71933 21.7315 9.8892C21.7315 10.0591 21.7315 10.2551 21.7315 10.4772C21.7315 10.6863 21.7315 10.8953 21.7315 11.1044L21.7119 15.7496C21.7119 16.7035 21.5682 17.4483 21.2807 17.984C20.9933 18.5328 20.5359 18.9183 19.9087 19.1404C19.2946 19.3625 18.491 19.4736 17.4979 19.4736ZM17.5763 15.828C18.0075 15.828 18.393 15.7757 18.7327 15.6712C19.0725 15.5667 19.3469 15.3903 19.5559 15.142C19.7781 14.8937 19.8891 14.554 19.8891 14.1228V10.5164C19.7715 10.4903 19.5233 10.4576 19.1443 10.4184C18.7654 10.3792 18.3277 10.3596 17.8311 10.3596C17.2693 10.3596 16.825 10.4315 16.4983 10.5752C16.1717 10.7189 15.9365 10.9868 15.7927 11.3788C15.649 11.7708 15.5771 12.3392 15.5771 13.084C15.5771 13.8157 15.6425 14.3841 15.7731 14.7892C15.9169 15.1812 16.1325 15.4556 16.4199 15.6124C16.7074 15.7561 17.0929 15.828 17.5763 15.828Z" fill="#888888"/>
</svg>
