<svg width="24" height="24" viewBox="0 0 24 24" fill="none" xmlns="http://www.w3.org/2000/svg">
<path d="M3.61002 16.7692L6.02448 8.60508C6.14725 8.16856 6.31776 7.84118 6.53602 7.62292C6.75428 7.39102 7.14987 7.27508 7.72279 7.27508C8.29571 7.27508 8.68448 7.37738 8.8891 7.582C9.10735 7.78661 9.28469 8.12764 9.4211 8.60508L11.9174 16.7692H11.4059L10.526 13.8842H4.8991L4.03971 16.7692H3.61002ZM5.00141 13.5158H10.4237L8.93002 8.646C8.84817 8.38682 8.73223 8.16174 8.58217 7.97077C8.44576 7.76615 8.15248 7.66384 7.70233 7.66384C7.21125 7.66384 6.89069 7.76615 6.74064 7.97077C6.59058 8.17538 6.48146 8.40046 6.41325 8.646L5.00141 13.5158ZM17.0334 19.0405C16.897 19.0405 16.6651 19.0268 16.3377 18.9995C16.0104 18.9859 15.6693 18.9518 15.3147 18.8972C14.96 18.8563 14.6531 18.7881 14.3939 18.6926C14.1347 18.6108 14.0051 18.5016 14.0051 18.3652C14.0051 18.3379 14.0051 18.297 14.0051 18.2425C14.0051 18.2015 14.0051 18.1674 14.0051 18.1402C14.2234 18.2629 14.5098 18.3652 14.8645 18.4471C15.2328 18.5289 15.6079 18.5903 15.9899 18.6312C16.3855 18.6722 16.7197 18.6926 16.9925 18.6926C17.7973 18.6926 18.4248 18.5698 18.875 18.3243C19.3388 18.0788 19.6593 17.6627 19.8367 17.0762C20.0276 16.5032 20.1027 15.7325 20.0617 14.764L20.3482 14.7435C20.2118 15.2346 19.9526 15.6097 19.5707 15.8689C19.2024 16.1145 18.7795 16.285 18.302 16.3805C17.8246 16.4759 17.3676 16.5237 16.9311 16.5237C16.1672 16.5237 15.5261 16.435 15.0077 16.2577C14.503 16.0804 14.1211 15.7121 13.8619 15.1528C13.6164 14.5935 13.4936 13.7477 13.4936 12.6155C13.4936 11.7152 13.5686 10.9991 13.7187 10.4671C13.8687 9.92143 14.1006 9.5122 14.4144 9.23938C14.7281 8.95292 15.1237 8.76877 15.6011 8.68692C16.0922 8.59143 16.6719 8.54369 17.3404 8.54369C17.6268 8.54369 17.9337 8.55733 18.2611 8.58461C18.6021 8.59826 18.9295 8.61872 19.2433 8.646C19.5707 8.65964 19.8503 8.6801 20.0822 8.70738C20.3277 8.73467 20.4983 8.76195 20.5937 8.78923C20.5801 8.84379 20.5665 8.97338 20.5528 9.178C20.5392 9.38261 20.5324 9.61451 20.5324 9.87369C20.5324 10.1329 20.5324 10.3716 20.5324 10.5898L20.5119 15.4188C20.5119 16.2782 20.3959 16.9738 20.164 17.5058C19.9321 18.0378 19.5638 18.4266 19.0591 18.6722C18.5544 18.9177 17.8792 19.0405 17.0334 19.0405ZM16.8084 16.1554C17.4358 16.1554 17.9883 16.094 18.4657 15.9712C18.9432 15.8348 19.3251 15.6302 19.6116 15.3574C19.898 15.0709 20.0481 14.7026 20.0617 14.2525V9.15754C19.9117 9.11661 19.5843 9.06887 19.0796 9.01431C18.5749 8.9461 17.9747 8.912 17.279 8.912C16.4605 8.912 15.8126 9.01431 15.3351 9.21892C14.8577 9.4099 14.5098 9.76456 14.2916 10.2829C14.087 10.8013 13.9847 11.5379 13.9847 12.4928C13.9847 13.4749 14.0733 14.232 14.2507 14.764C14.4416 15.296 14.7417 15.6643 15.151 15.8689C15.5602 16.0599 16.1127 16.1554 16.8084 16.1554Z" fill="#888888"/>
</svg>
