<svg width="24" height="24" viewBox="0 0 24 24" fill="none" xmlns="http://www.w3.org/2000/svg">
<path d="M1.15333 16.5434L4.1971 9.69495C4.41451 9.21181 4.72251 8.83134 5.1211 8.55353C5.53176 8.27573 6.1538 8.13683 6.98722 8.13683C7.66361 8.13683 8.21922 8.26969 8.65404 8.53542C9.10094 8.78906 9.44518 9.17557 9.68674 9.69495L12.7305 16.5434H8.87145L8.09239 14.8404H4.59569L3.87098 16.5434H1.15333ZM5.15733 13.5178H7.42204L6.51616 11.3799C6.50408 11.3195 6.47992 11.2591 6.44369 11.1987C6.41953 11.1383 6.37725 11.1081 6.31686 11.1081C6.24439 11.1081 6.19004 11.1383 6.1538 11.1987C6.12965 11.2591 6.10549 11.3195 6.08133 11.3799L5.15733 13.5178ZM17.3058 18.7538C16.7019 18.7538 16.1825 18.7357 15.7477 18.6994C15.3249 18.6753 14.9746 18.6209 14.6968 18.5364C14.4311 18.4639 14.2318 18.3491 14.099 18.1921C13.9661 18.0351 13.8997 17.8298 13.8997 17.5761C13.8997 17.5037 13.8997 17.3949 13.8997 17.25C13.8997 17.1051 13.8997 17.0084 13.8997 16.9601C14.0204 17.0084 14.2379 17.0628 14.5519 17.1232C14.878 17.1836 15.2343 17.2379 15.6208 17.2862C16.0194 17.3346 16.3757 17.3587 16.6898 17.3587C17.3783 17.3587 17.8916 17.2681 18.2298 17.0869C18.568 16.9058 18.7854 16.6219 18.882 16.2354C18.9786 15.8368 18.9968 15.3295 18.9364 14.7135L19.2625 14.7679C19.1296 15.1182 18.9666 15.396 18.7733 15.6013C18.5921 15.8066 18.3264 15.9576 17.9761 16.0542C17.6379 16.1388 17.1669 16.1811 16.563 16.1811C15.7899 16.1811 15.1679 16.0844 14.6968 15.8912C14.2379 15.6979 13.8997 15.3658 13.6823 14.8947C13.4769 14.4237 13.3743 13.7654 13.3743 12.9199C13.3743 12.1831 13.4467 11.5792 13.5917 11.1081C13.7487 10.625 14.0084 10.2506 14.3707 9.98483C14.7452 9.7191 15.2404 9.53793 15.8564 9.4413C16.4844 9.33259 17.2756 9.27824 18.2298 9.27824C18.4955 9.27824 18.8277 9.29032 19.2263 9.31448C19.6369 9.33863 20.0536 9.36279 20.4764 9.38695C20.8991 9.4111 21.2675 9.43526 21.5815 9.45942C21.9077 9.48357 22.1251 9.50773 22.2338 9.53189C22.2217 9.55604 22.2096 9.63455 22.1975 9.76742C22.1975 9.8882 22.1975 10.0271 22.1975 10.1841C22.1975 10.3411 22.1975 10.5163 22.1975 10.7095V15.0397C22.1975 16.0663 22.0224 16.8454 21.6721 17.3768C21.3339 17.9083 20.8085 18.2706 20.0959 18.4639C19.3833 18.6571 18.4532 18.7538 17.3058 18.7538ZM17.7225 14.4055C17.9278 14.4055 18.1211 14.3693 18.3023 14.2968C18.4955 14.2123 18.6525 14.0673 18.7733 13.862C18.9062 13.6567 18.9726 13.3487 18.9726 12.938V11.0175C18.8881 11.0175 18.725 11.0115 18.4834 10.9994C18.2419 10.9753 18.0003 10.9632 17.7587 10.9632C17.4809 10.9632 17.2575 11.0115 17.0884 11.1081C16.9314 11.1927 16.8166 11.3618 16.7441 11.6154C16.6717 11.857 16.6354 12.2193 16.6354 12.7025C16.6354 13.1615 16.6777 13.5178 16.7623 13.7714C16.8468 14.013 16.9676 14.1821 17.1246 14.2787C17.2937 14.3633 17.493 14.4055 17.7225 14.4055Z" fill="#888888"/>
</svg>
