<svg width="24" height="24" viewBox="0 0 24 24" fill="none" xmlns="http://www.w3.org/2000/svg">
<path d="M1.80355 17L4.80355 9.28C4.99022 8.78667 5.26355 8.40667 5.62356 8.14C5.98355 7.86 6.56355 7.72 7.36355 7.72C8.03022 7.72 8.55689 7.84667 8.94355 8.1C9.33022 8.35333 9.63022 8.74667 9.84356 9.28L12.8836 17H9.98356L9.12355 14.78H4.66355L3.86355 17H1.80355ZM5.10355 13.72H8.62355L7.46355 10.48C7.42355 10.3467 7.36355 10.2267 7.28355 10.12C7.21689 10 7.08355 9.94 6.88356 9.94C6.65689 9.94 6.50355 10 6.42355 10.12C6.35689 10.2267 6.29689 10.3467 6.24355 10.48L5.10355 13.72ZM17.907 19.36C17.4403 19.36 17.0003 19.3467 16.587 19.32C16.1737 19.2933 15.807 19.24 15.487 19.16C15.167 19.0933 14.9137 18.9867 14.727 18.84C14.5403 18.7067 14.447 18.5267 14.447 18.3C14.447 18.2333 14.447 18.14 14.447 18.02C14.447 17.9133 14.447 17.8333 14.447 17.78C14.607 17.86 14.8603 17.9333 15.207 18C15.567 18.08 15.9537 18.14 16.367 18.18C16.7803 18.2333 17.147 18.26 17.467 18.26C18.2403 18.26 18.827 18.1533 19.227 17.94C19.627 17.7267 19.8937 17.38 20.027 16.9C20.1603 16.4067 20.1937 15.7733 20.127 15L20.467 15.04C20.3203 15.4533 20.1137 15.78 19.847 16.02C19.5937 16.2467 19.2603 16.4133 18.847 16.52C18.4337 16.6133 17.9337 16.66 17.347 16.66C16.5337 16.66 15.8737 16.56 15.367 16.36C14.8603 16.16 14.487 15.8 14.247 15.28C14.007 14.7467 13.887 13.98 13.887 12.98C13.887 12.14 13.967 11.46 14.127 10.94C14.3003 10.4067 14.567 10 14.927 9.72C15.3003 9.42667 15.787 9.23333 16.387 9.14C17.0003 9.03333 17.7603 8.98 18.667 8.98C18.9603 8.98 19.307 8.99333 19.707 9.02C20.107 9.03333 20.507 9.05333 20.907 9.08C21.3203 9.10667 21.6803 9.13333 21.987 9.16C22.307 9.18667 22.5203 9.21333 22.627 9.24C22.6137 9.28 22.6003 9.38 22.587 9.54C22.587 9.7 22.587 9.88667 22.587 10.1C22.587 10.3 22.587 10.5 22.587 10.7L22.567 15.46C22.567 16.4867 22.407 17.28 22.087 17.84C21.767 18.4133 21.267 18.8067 20.587 19.02C19.907 19.2467 19.0137 19.36 17.907 19.36ZM18.127 15.28C18.5003 15.28 18.8337 15.2333 19.127 15.14C19.4337 15.0333 19.6803 14.86 19.867 14.62C20.0537 14.38 20.1537 14.0333 20.167 13.58V10.4C20.0603 10.3867 19.827 10.3667 19.467 10.34C19.1203 10.3 18.7403 10.28 18.327 10.28C17.8337 10.28 17.4403 10.3467 17.147 10.48C16.867 10.6133 16.6603 10.86 16.527 11.22C16.407 11.58 16.347 12.1 16.347 12.78C16.347 13.46 16.407 13.98 16.527 14.34C16.6603 14.7 16.8537 14.9467 17.107 15.08C17.3737 15.2133 17.7137 15.28 18.127 15.28Z" fill="#888888"/>
</svg>
