<svg width="24" height="24" viewBox="0 0 24 24" fill="none" xmlns="http://www.w3.org/2000/svg">
<path d="M3.96707 16L6.72507 10.554C6.89307 10.218 7.10307 9.96133 7.35507 9.784C7.60707 9.59733 7.98507 9.504 8.48907 9.504C8.93707 9.504 9.26374 9.588 9.46907 9.756C9.68374 9.924 9.83307 10.19 9.91707 10.554L11.1491 16H9.59507L9.23107 14.32H5.89907L5.08707 16H3.96707ZM6.22107 13.718H9.04907L8.54507 11.156C8.51707 11.0347 8.47507 10.9273 8.41907 10.834C8.36307 10.7407 8.2464 10.694 8.06907 10.694C7.8544 10.694 7.70974 10.7453 7.63507 10.848C7.5604 10.9413 7.49507 11.044 7.43907 11.156L6.22107 13.718ZM14.3853 17.624C14.1239 17.624 13.8579 17.6147 13.5873 17.596C13.3166 17.5773 13.0693 17.5447 12.8453 17.498C12.6213 17.4513 12.4439 17.3813 12.3133 17.288C12.1826 17.204 12.1266 17.092 12.1453 16.952C12.1546 16.9147 12.1639 16.8633 12.1733 16.798C12.1826 16.7327 12.1873 16.686 12.1873 16.658C12.2993 16.7233 12.4719 16.7793 12.7053 16.826C12.9479 16.882 13.2093 16.924 13.4893 16.952C13.7693 16.9893 14.0166 17.008 14.2313 17.008C14.7726 17.008 15.1973 16.9287 15.5053 16.77C15.8226 16.6113 16.0559 16.3547 16.2053 16C16.3639 15.6547 16.4619 15.1927 16.4993 14.614H16.7233C16.5833 14.922 16.3966 15.16 16.1633 15.328C15.9393 15.496 15.6733 15.6127 15.3653 15.678C15.0573 15.7433 14.7166 15.776 14.3433 15.776C13.7926 15.776 13.3493 15.706 13.0133 15.566C12.6773 15.426 12.4486 15.1693 12.3273 14.796C12.2153 14.4227 12.2106 13.886 12.3133 13.186C12.3879 12.5887 12.5046 12.108 12.6633 11.744C12.8313 11.3707 13.0506 11.086 13.3213 10.89C13.5919 10.6847 13.9326 10.5493 14.3433 10.484C14.7539 10.4093 15.2533 10.372 15.8413 10.372C16.0373 10.372 16.2659 10.3813 16.5273 10.4C16.7979 10.4187 17.0639 10.4373 17.3253 10.456C17.5959 10.4747 17.8293 10.4933 18.0253 10.512C18.2213 10.5307 18.3566 10.5447 18.4313 10.554C18.4219 10.582 18.4033 10.6567 18.3753 10.778C18.3566 10.8993 18.3333 11.0393 18.3053 11.198C18.2866 11.3473 18.2679 11.4967 18.2493 11.646L17.7733 14.964C17.6799 15.6453 17.5026 16.1773 17.2413 16.56C16.9799 16.952 16.6159 17.2273 16.1493 17.386C15.6919 17.5447 15.1039 17.624 14.3853 17.624ZM14.8193 15.02C15.1179 15.02 15.3933 14.9827 15.6453 14.908C15.9066 14.8333 16.1259 14.7073 16.3033 14.53C16.4806 14.3527 16.5926 14.11 16.6393 13.802L17.0033 11.226C16.9193 11.2073 16.7419 11.184 16.4713 11.156C16.2099 11.128 15.9019 11.114 15.5473 11.114C15.1459 11.114 14.8193 11.1653 14.5673 11.268C14.3153 11.3707 14.1193 11.562 13.9793 11.842C13.8393 12.122 13.7319 12.528 13.6573 13.06C13.5919 13.5733 13.5826 13.9747 13.6293 14.264C13.6853 14.544 13.8113 14.74 14.0073 14.852C14.2033 14.964 14.4739 15.02 14.8193 15.02Z" fill="#888888"/>
</svg>
