<svg width="24" height="24" viewBox="0 0 24 24" fill="none" xmlns="http://www.w3.org/2000/svg">
<path d="M6.55762 13.1016L5.72363 14.9678C5.66439 15.109 5.70085 15.2116 5.83301 15.2754C5.96517 15.3392 6.20215 15.3916 6.54395 15.4326L6.46875 16H3.64551L3.7207 15.4326C4.01693 15.3779 4.24251 15.321 4.39746 15.2617C4.55697 15.2025 4.66634 15.1045 4.72559 14.9678L7.87695 7.81738C8.00911 7.71257 8.14811 7.61914 8.29395 7.53711C8.44434 7.45052 8.59473 7.37305 8.74512 7.30469C8.90007 7.23633 9.05273 7.17708 9.20312 7.12695C9.35352 7.07682 9.49479 7.03353 9.62695 6.99707L11.1992 14.9678C11.2129 15.0316 11.2311 15.0885 11.2539 15.1387C11.2812 15.1888 11.32 15.2321 11.3701 15.2686C11.4202 15.305 11.4886 15.3369 11.5752 15.3643C11.6618 15.3916 11.7734 15.4144 11.9102 15.4326L11.835 16H8.5127L8.58789 15.4326C8.92057 15.4098 9.14844 15.3643 9.27148 15.2959C9.39909 15.2275 9.44922 15.1182 9.42188 14.9678L9.05957 13.1016H6.55762ZM8.88867 12.2061L8.28027 9.14355L6.9541 12.2061H8.88867ZM14.8086 14.7969C14.8542 14.7969 14.9157 14.7809 14.9932 14.749C15.0752 14.7171 15.1777 14.6465 15.3008 14.5371C15.4284 14.4277 15.5788 14.2705 15.752 14.0654C15.9251 13.8604 16.1279 13.5846 16.3604 13.2383C16.374 12.974 16.3945 12.6937 16.4219 12.3975C16.4492 12.0967 16.4925 11.7663 16.5518 11.4062C16.5654 11.3288 16.5859 11.2513 16.6133 11.1738C16.472 11.0417 16.3307 10.9232 16.1895 10.8184C16.0482 10.7135 15.916 10.6611 15.793 10.6611C15.6061 10.6611 15.4375 10.7044 15.2871 10.791C15.1367 10.8776 15.0023 10.9938 14.8838 11.1396C14.7699 11.2809 14.6696 11.445 14.583 11.6318C14.4964 11.8187 14.4258 12.0146 14.3711 12.2197C14.3164 12.4202 14.2754 12.6253 14.248 12.835C14.2207 13.04 14.207 13.2314 14.207 13.4092C14.207 13.8968 14.264 14.25 14.3779 14.4688C14.4919 14.6875 14.6354 14.7969 14.8086 14.7969ZM18.8896 10.1143C18.7347 10.2419 18.6117 10.3991 18.5205 10.5859C18.4339 10.7728 18.3701 11.0303 18.3291 11.3584C18.2653 11.9007 18.2197 12.3815 18.1924 12.8008C18.1696 13.2155 18.1468 13.6029 18.124 13.9629C18.1058 14.3184 18.083 14.6579 18.0557 14.9814C18.0329 15.305 17.9896 15.6423 17.9258 15.9932C17.8711 16.3076 17.7708 16.6107 17.625 16.9023C17.4837 17.194 17.3128 17.4674 17.1123 17.7227C16.9118 17.9779 16.6885 18.208 16.4424 18.4131C16.2008 18.6227 15.9479 18.8005 15.6836 18.9463C15.4238 19.0967 15.1618 19.2129 14.8975 19.2949C14.6331 19.377 14.3825 19.418 14.1455 19.418C13.904 19.418 13.6624 19.3929 13.4209 19.3428C13.1794 19.2972 12.9629 19.2357 12.7715 19.1582C12.5801 19.0853 12.4229 19.0033 12.2998 18.9121C12.1813 18.8255 12.1221 18.7412 12.1221 18.6592C12.1221 18.609 12.1449 18.543 12.1904 18.4609C12.236 18.3789 12.293 18.29 12.3613 18.1943C12.4297 18.1032 12.5049 18.0098 12.5869 17.9141C12.6689 17.8229 12.7487 17.7386 12.8262 17.6611C12.9036 17.5882 12.972 17.5267 13.0312 17.4766C13.0905 17.431 13.1292 17.4082 13.1475 17.4082C13.2021 17.4082 13.2705 17.4447 13.3525 17.5176C13.4391 17.5905 13.5462 17.6702 13.6738 17.7568C13.806 17.848 13.9632 17.93 14.1455 18.0029C14.3278 18.0758 14.5465 18.1123 14.8018 18.1123C14.9521 18.1123 15.0934 18.0895 15.2256 18.0439C15.3623 18.0029 15.4854 17.9163 15.5947 17.7842C15.7087 17.6566 15.8089 17.4766 15.8955 17.2441C15.9867 17.0117 16.0664 16.7064 16.1348 16.3281C16.1895 15.9909 16.2282 15.681 16.251 15.3984C16.2783 15.1159 16.2988 14.8402 16.3125 14.5713C15.9297 15.1045 15.5537 15.5238 15.1846 15.8291C14.8154 16.1299 14.4349 16.2803 14.043 16.2803C13.8926 16.2803 13.724 16.237 13.5371 16.1504C13.3503 16.0638 13.1748 15.9271 13.0107 15.7402C12.8512 15.5488 12.7145 15.305 12.6006 15.0088C12.4912 14.708 12.4365 14.3434 12.4365 13.915C12.4365 13.1904 12.612 12.5114 12.9629 11.8779C13.3138 11.2399 13.8288 10.6953 14.5078 10.2441C14.7585 10.0755 15.0592 9.92741 15.4102 9.7998C15.7611 9.66764 16.1621 9.60156 16.6133 9.60156C16.7773 9.60156 16.9574 9.64941 17.1533 9.74512C17.3493 9.84082 17.5384 9.94564 17.7207 10.0596C17.8893 9.95931 18.0511 9.87272 18.2061 9.7998C18.3656 9.72689 18.5046 9.66081 18.623 9.60156L18.8896 10.1143Z" fill="#333333"/>
</svg>
