<svg width="24" height="24" viewBox="0 0 24 24" fill="none" xmlns="http://www.w3.org/2000/svg">
<path d="M6.88574 12.999L5.94238 15.1729C5.88314 15.3141 5.9196 15.4144 6.05176 15.4736C6.18848 15.5329 6.43001 15.5876 6.77637 15.6377L6.72852 16H4.07617L4.12402 15.6377C4.41569 15.583 4.64583 15.526 4.81445 15.4668C4.98307 15.403 5.09701 15.305 5.15625 15.1729L8.44434 7.65332C8.52181 7.58496 8.6084 7.51888 8.7041 7.45508C8.80436 7.39128 8.90462 7.33203 9.00488 7.27734C9.1097 7.2181 9.20996 7.16569 9.30566 7.12012C9.40592 7.06999 9.49479 7.02897 9.57227 6.99707L11.0693 15.1729C11.083 15.2367 11.1012 15.2936 11.124 15.3438C11.1514 15.3893 11.1924 15.4326 11.2471 15.4736C11.3018 15.5101 11.3724 15.542 11.459 15.5693C11.5501 15.5967 11.6686 15.6195 11.8145 15.6377L11.7734 16H8.9707L9.01172 15.6377C9.33529 15.6149 9.56543 15.5693 9.70215 15.501C9.83887 15.4281 9.89355 15.3187 9.86621 15.1729L9.4834 12.999H6.88574ZM9.35352 12.3086L8.72461 8.75391L7.18652 12.3086H9.35352ZM14.6719 15.207C14.7539 15.207 14.8656 15.1478 15.0068 15.0293C15.1481 14.9062 15.3053 14.7354 15.4785 14.5166C15.6562 14.2979 15.8385 14.0381 16.0254 13.7373C16.2122 13.432 16.39 13.097 16.5586 12.7324C16.5768 12.5319 16.5973 12.3245 16.6201 12.1104C16.6475 11.8916 16.6816 11.6569 16.7227 11.4062C16.7318 11.3288 16.7477 11.2536 16.7705 11.1807C16.7933 11.1077 16.8184 11.0371 16.8457 10.9688C16.7728 10.9095 16.6953 10.8457 16.6133 10.7773C16.5312 10.709 16.4447 10.6475 16.3535 10.5928C16.2624 10.5381 16.1667 10.4925 16.0664 10.4561C15.9661 10.4196 15.8636 10.4014 15.7588 10.4014C15.5537 10.4014 15.3623 10.4515 15.1846 10.5518C15.0114 10.6475 14.8496 10.7773 14.6992 10.9414C14.5534 11.1055 14.4212 11.2923 14.3027 11.502C14.1888 11.7116 14.0908 11.9281 14.0088 12.1514C13.9313 12.3747 13.8698 12.5957 13.8242 12.8145C13.7832 13.0332 13.7627 13.2314 13.7627 13.4092C13.7627 13.6917 13.7855 13.9447 13.8311 14.168C13.8812 14.3867 13.9473 14.5736 14.0293 14.7285C14.1113 14.8835 14.207 15.002 14.3164 15.084C14.4303 15.166 14.5488 15.207 14.6719 15.207ZM18.4658 9.90918C18.3109 10.0368 18.1878 10.194 18.0967 10.3809C18.0101 10.5677 17.9463 10.8252 17.9053 11.1533C17.8415 11.6956 17.7959 12.1878 17.7686 12.6299C17.7412 13.0674 17.7161 13.4775 17.6934 13.8604C17.6706 14.2432 17.6455 14.6077 17.6182 14.9541C17.5908 15.2959 17.5452 15.6423 17.4814 15.9932C17.3994 16.4671 17.2467 16.9115 17.0234 17.3262C16.8001 17.7409 16.5358 18.1032 16.2305 18.4131C15.9251 18.723 15.5924 18.9668 15.2324 19.1445C14.8724 19.3268 14.5146 19.418 14.1592 19.418C13.9541 19.418 13.7376 19.3906 13.5098 19.3359C13.2865 19.2812 13.0791 19.2129 12.8877 19.1309C12.7008 19.0534 12.5459 18.9668 12.4229 18.8711C12.2998 18.7799 12.2383 18.6934 12.2383 18.6113C12.2383 18.5339 12.2725 18.4404 12.3408 18.3311C12.4092 18.2262 12.4867 18.1237 12.5732 18.0234C12.6644 17.9232 12.751 17.8389 12.833 17.7705C12.9196 17.7021 12.9788 17.668 13.0107 17.668C13.0654 17.668 13.127 17.7113 13.1953 17.7979C13.2637 17.889 13.3594 17.987 13.4824 18.0918C13.6055 18.2012 13.765 18.2992 13.9609 18.3857C14.1569 18.4769 14.4076 18.5225 14.7129 18.5225C15.1185 18.5225 15.4466 18.3447 15.6973 17.9893C15.9525 17.6383 16.1462 17.0846 16.2783 16.3281C16.3193 16.0957 16.3512 15.8747 16.374 15.665C16.3968 15.4554 16.415 15.2549 16.4287 15.0635C16.4469 14.8675 16.4583 14.6761 16.4629 14.4893C16.472 14.3024 16.4811 14.1133 16.4902 13.9219C16.3307 14.2044 16.1553 14.487 15.9639 14.7695C15.7725 15.0521 15.5719 15.305 15.3623 15.5283C15.1572 15.7516 14.9476 15.9316 14.7334 16.0684C14.5192 16.2096 14.3118 16.2803 14.1113 16.2803C13.9609 16.2803 13.7969 16.237 13.6191 16.1504C13.446 16.0638 13.2842 15.9271 13.1338 15.7402C12.9834 15.5488 12.8581 15.305 12.7578 15.0088C12.6576 14.708 12.6074 14.3434 12.6074 13.915C12.6074 13.555 12.6484 13.2041 12.7305 12.8623C12.8171 12.516 12.9424 12.1878 13.1064 11.8779C13.2751 11.5635 13.4847 11.2695 13.7354 10.9961C13.9906 10.7181 14.2868 10.4674 14.624 10.2441C14.7516 10.1621 14.8883 10.0824 15.0342 10.0049C15.1846 9.92741 15.3395 9.85905 15.499 9.7998C15.6585 9.74056 15.8203 9.69271 15.9844 9.65625C16.1484 9.61979 16.3125 9.60156 16.4766 9.60156C16.5723 9.60156 16.6657 9.61751 16.7568 9.64941C16.8525 9.67676 16.946 9.71322 17.0371 9.75879C17.1283 9.7998 17.2148 9.84766 17.2969 9.90234C17.3835 9.95703 17.4655 10.0094 17.543 10.0596C17.666 9.96387 17.7891 9.87956 17.9121 9.80664C18.0397 9.72917 18.1628 9.66081 18.2812 9.60156L18.4658 9.90918Z" fill="#333333"/>
</svg>
