<svg width="24" height="24" viewBox="0 0 24 24" fill="none" xmlns="http://www.w3.org/2000/svg">
<path d="M8.00677 17L11.0728 7.06H11.3108V17H11.0448V13.906H9.23877L8.27277 17H8.00677ZM9.32277 13.64H11.0448V7.97L9.32277 13.64ZM12.0456 19.982L12.1016 19.744C12.2136 19.7813 12.3162 19.8047 12.4096 19.814C12.5122 19.8327 12.6149 19.842 12.7176 19.842C12.9509 19.842 13.1469 19.7813 13.3056 19.66C13.4736 19.5387 13.6089 19.338 13.7116 19.058C13.8236 18.778 13.9169 18.4093 13.9916 17.952L14.1596 16.86C14.0756 16.9253 13.9869 16.9767 13.8936 17.014C13.8096 17.0607 13.7256 17.0933 13.6416 17.112C13.5576 17.1307 13.4689 17.14 13.3756 17.14C13.1609 17.14 12.9742 17.0607 12.8156 16.902C12.6662 16.7433 12.5542 16.51 12.4796 16.202C12.4049 15.894 12.3676 15.5253 12.3676 15.096C12.3676 14.4053 12.4189 13.7287 12.5216 13.066C12.6242 12.394 12.7782 11.7873 12.9836 11.246C13.1889 10.6953 13.4456 10.2567 13.7536 9.93C14.0709 9.60333 14.4349 9.44 14.8456 9.44C14.9016 9.44 14.9576 9.44467 15.0136 9.454C15.0789 9.46333 15.1396 9.47733 15.1956 9.496C15.2609 9.51467 15.3216 9.538 15.3776 9.566C15.4429 9.594 15.5082 9.622 15.5736 9.65L14.2296 17.994C14.1176 18.722 13.9449 19.2493 13.7116 19.576C13.4782 19.912 13.1562 20.08 12.7456 20.08C12.6149 20.08 12.4889 20.0707 12.3676 20.052C12.2556 20.0427 12.1482 20.0193 12.0456 19.982ZM15.2796 9.79C15.1956 9.75267 15.1116 9.72467 15.0276 9.706C14.9529 9.68733 14.8876 9.678 14.8316 9.678C14.5049 9.678 14.2062 9.82733 13.9356 10.126C13.6742 10.4247 13.4456 10.826 13.2496 11.33C13.0536 11.834 12.8996 12.4033 12.7876 13.038C12.6849 13.6727 12.6336 14.326 12.6336 14.998C12.6336 15.6233 12.6989 16.0947 12.8296 16.412C12.9696 16.7293 13.1656 16.888 13.4176 16.888C13.5016 16.888 13.5902 16.874 13.6836 16.846C13.7862 16.818 13.8842 16.7807 13.9776 16.734C14.0709 16.6873 14.1456 16.636 14.2016 16.58L15.2796 9.79Z" fill="#888888"/>
</svg>
