<svg width="24" height="24" viewBox="0 0 24 24" fill="none" xmlns="http://www.w3.org/2000/svg">
<path d="M4.42354 17L7.83954 7.088H8.77754L12.2075 17H11.2555L10.3315 14.27H6.25754L5.33354 17H4.42354ZM6.45354 13.528H10.1355L8.28754 8.068L6.45354 13.528ZM15.9736 20.08C14.9096 20.08 14.1023 19.9073 13.5516 19.562C13.0103 19.226 12.7396 18.7173 12.7396 18.036C12.7396 17.7747 12.7816 17.532 12.8656 17.308C12.9496 17.084 13.085 16.8833 13.2716 16.706C13.4583 16.5193 13.6963 16.3607 13.9856 16.23L14.5736 16.426C14.3123 16.5287 14.1023 16.6547 13.9436 16.804C13.785 16.9533 13.6683 17.1167 13.5936 17.294C13.5283 17.4713 13.4956 17.6673 13.4956 17.882C13.4956 18.2273 13.589 18.512 13.7756 18.736C13.9623 18.9693 14.2423 19.142 14.6156 19.254C14.9983 19.366 15.4696 19.422 16.0296 19.422C16.6083 19.422 17.0983 19.3567 17.4996 19.226C17.901 19.1047 18.2043 18.9227 18.4096 18.68C18.6243 18.4373 18.7316 18.1433 18.7316 17.798C18.7316 17.5367 18.6756 17.322 18.5636 17.154C18.461 16.986 18.293 16.86 18.0596 16.776C17.8356 16.6827 17.551 16.636 17.2056 16.636H15.1616C14.723 16.636 14.3543 16.58 14.0556 16.468C13.757 16.356 13.5283 16.1927 13.3696 15.978C13.2203 15.754 13.1456 15.488 13.1456 15.18C13.1456 14.844 13.2296 14.55 13.3976 14.298C13.575 14.046 13.8316 13.822 14.1676 13.626L14.6716 13.822C14.4103 13.9713 14.205 14.1393 14.0556 14.326C13.9156 14.5127 13.8456 14.732 13.8456 14.984C13.8456 15.2547 13.9483 15.474 14.1536 15.642C14.3683 15.81 14.7043 15.894 15.1616 15.894H17.4296C18.1296 15.894 18.657 16.048 19.0116 16.356C19.3756 16.664 19.5576 17.1213 19.5576 17.728C19.5576 18.2133 19.413 18.6333 19.1236 18.988C18.8436 19.3427 18.4376 19.6133 17.9056 19.8C17.383 19.9867 16.739 20.08 15.9736 20.08ZM16.0296 14.172C15.115 14.172 14.429 13.9713 13.9716 13.57C13.5143 13.1687 13.2856 12.5713 13.2856 11.778C13.2856 10.9847 13.5143 10.3873 13.9716 9.986C14.429 9.58467 15.115 9.384 16.0296 9.384C16.9443 9.384 17.6303 9.58467 18.0876 9.986C18.545 10.3873 18.7736 10.9847 18.7736 11.778C18.7736 12.5713 18.545 13.1687 18.0876 13.57C17.6303 13.9713 16.9443 14.172 16.0296 14.172ZM16.0296 13.542C16.683 13.542 17.1636 13.402 17.4716 13.122C17.789 12.842 17.9476 12.394 17.9476 11.778C17.9476 11.1527 17.789 10.7 17.4716 10.42C17.1636 10.14 16.683 10 16.0296 10C15.3856 10 14.905 10.14 14.5876 10.42C14.2796 10.7 14.1256 11.1527 14.1256 11.778C14.1256 12.394 14.2796 12.842 14.5876 13.122C14.905 13.402 15.3856 13.542 16.0296 13.542ZM18.0176 10.42L17.6536 9.93C17.7656 9.65 17.943 9.44 18.1856 9.3C18.4283 9.15067 18.7223 9.076 19.0676 9.076C19.161 9.076 19.245 9.08067 19.3196 9.09C19.3943 9.09 19.4736 9.104 19.5576 9.132L19.4736 9.832C19.4083 9.81333 19.3383 9.804 19.2636 9.804C19.1983 9.79467 19.1283 9.79 19.0536 9.79C18.8203 9.79 18.615 9.84133 18.4376 9.944C18.2696 10.0373 18.1296 10.196 18.0176 10.42Z" fill="#888888"/>
</svg>
