<svg width="24" height="24" viewBox="0 0 24 24" fill="none" xmlns="http://www.w3.org/2000/svg">
<path d="M4.62895 17L8.11495 7.074H8.63295L12.1329 17H11.5449L10.5229 14.074H6.22495L5.20295 17H4.62895ZM6.36495 13.584H10.3829L8.36695 7.858L6.36495 13.584ZM15.9603 20.08C14.9056 20.08 14.1076 19.9073 13.5663 19.562C13.025 19.226 12.7543 18.708 12.7543 18.008C12.7543 17.7467 12.7963 17.4993 12.8803 17.266C12.9643 17.042 13.0996 16.8367 13.2863 16.65C13.473 16.4633 13.7156 16.3047 14.0143 16.174L14.4343 16.314C14.145 16.4353 13.9116 16.58 13.7343 16.748C13.5663 16.9067 13.445 17.084 13.3703 17.28C13.2956 17.4853 13.2583 17.7 13.2583 17.924C13.2583 18.316 13.3563 18.638 13.5523 18.89C13.7576 19.142 14.061 19.3287 14.4623 19.45C14.873 19.5807 15.377 19.646 15.9743 19.646C16.5996 19.646 17.1223 19.5713 17.5423 19.422C17.9716 19.282 18.2983 19.0767 18.5223 18.806C18.7463 18.5353 18.8583 18.2133 18.8583 17.84C18.8583 17.5413 18.7976 17.294 18.6763 17.098C18.555 16.9113 18.373 16.7713 18.1303 16.678C17.897 16.5753 17.5983 16.524 17.2343 16.524H15.0643C14.6443 16.524 14.2943 16.4727 14.0143 16.37C13.7343 16.258 13.5243 16.0993 13.3843 15.894C13.2536 15.6793 13.1883 15.4273 13.1883 15.138C13.1883 14.8207 13.2676 14.536 13.4263 14.284C13.5943 14.032 13.8463 13.8033 14.1823 13.598L14.5183 13.766C14.2383 13.9247 14.0236 14.1113 13.8743 14.326C13.725 14.5313 13.6503 14.7693 13.6503 15.04C13.6503 15.3387 13.7623 15.5813 13.9863 15.768C14.2103 15.9453 14.5696 16.034 15.0643 16.034H17.3323C18.0136 16.034 18.5223 16.1833 18.8583 16.482C19.2036 16.7807 19.3763 17.224 19.3763 17.812C19.3763 18.288 19.241 18.694 18.9703 19.03C18.6996 19.366 18.3123 19.6227 17.8083 19.8C17.3043 19.9867 16.6883 20.08 15.9603 20.08ZM15.9743 14.102C15.0876 14.102 14.425 13.9107 13.9863 13.528C13.5476 13.136 13.3283 12.548 13.3283 11.764C13.3283 10.98 13.5476 10.392 13.9863 10C14.425 9.608 15.0876 9.412 15.9743 9.412C16.861 9.412 17.519 9.608 17.9483 10C18.387 10.392 18.6063 10.98 18.6063 11.764C18.6063 12.548 18.387 13.136 17.9483 13.528C17.519 13.9107 16.861 14.102 15.9743 14.102ZM15.9743 13.682C16.693 13.682 17.2203 13.528 17.5563 13.22C17.9016 12.912 18.0743 12.4267 18.0743 11.764C18.0743 11.092 17.9016 10.602 17.5563 10.294C17.2203 9.986 16.693 9.832 15.9743 9.832C15.2556 9.832 14.7236 9.986 14.3783 10.294C14.033 10.602 13.8603 11.092 13.8603 11.764C13.8603 12.4267 14.033 12.912 14.3783 13.22C14.7236 13.528 15.2556 13.682 15.9743 13.682ZM17.7943 10.266L17.5283 9.944C17.6403 9.67333 17.813 9.468 18.0463 9.328C18.289 9.188 18.5736 9.118 18.9003 9.118C18.9843 9.118 19.059 9.12267 19.1243 9.132C19.1896 9.132 19.2643 9.14133 19.3483 9.16L19.3063 9.636C19.241 9.61733 19.1756 9.608 19.1103 9.608C19.045 9.59867 18.975 9.594 18.9003 9.594C18.639 9.594 18.415 9.65 18.2283 9.762C18.051 9.86467 17.9063 10.0327 17.7943 10.266Z" fill="#888888"/>
</svg>
