<svg width="24" height="24" viewBox="0 0 24 24" fill="none" xmlns="http://www.w3.org/2000/svg">
<path d="M2.87458 17L7.25658 7.116H10.0706L11.4006 17H9.00658L8.81058 15.11H6.05258L5.26858 17H2.87458ZM6.73858 13.346H8.71258L8.40458 8.936L6.73858 13.346ZM11.6595 19.506L12.2335 17.854C12.5788 17.9753 12.9521 18.078 13.3535 18.162C13.7548 18.246 14.1375 18.288 14.5015 18.288C14.8281 18.288 15.1081 18.2413 15.3415 18.148C15.5841 18.0547 15.7755 17.896 15.9155 17.672C16.0648 17.448 16.1675 17.1447 16.2235 16.762L16.2655 16.384C16.0788 16.4867 15.8641 16.5753 15.6215 16.65C15.3788 16.7247 15.1455 16.7853 14.9215 16.832C14.6975 16.8693 14.5015 16.888 14.3335 16.888C13.8575 16.888 13.4515 16.79 13.1155 16.594C12.7888 16.398 12.5415 16.1227 12.3735 15.768C12.2148 15.404 12.1355 14.9793 12.1355 14.494C12.1355 13.738 12.2195 13.0427 12.3875 12.408C12.5555 11.764 12.8168 11.2087 13.1715 10.742C13.5355 10.266 14.0021 9.89733 14.5715 9.636C15.1408 9.37467 15.8268 9.244 16.6295 9.244C16.8628 9.244 17.1148 9.25333 17.3855 9.272C17.6561 9.29067 17.9221 9.32333 18.1835 9.37C18.4541 9.40733 18.7015 9.454 18.9255 9.51C19.1588 9.55667 19.3455 9.60333 19.4855 9.65L18.3795 16.636C18.2021 17.7933 17.8055 18.6567 17.1895 19.226C16.5735 19.7953 15.7241 20.08 14.6415 20.08C14.1001 20.08 13.5728 20.0287 13.0595 19.926C12.5555 19.8233 12.0888 19.6833 11.6595 19.506ZM17.1055 11.05C17.0028 11.0033 16.8861 10.966 16.7555 10.938C16.6341 10.91 16.4801 10.896 16.2935 10.896C15.9948 10.896 15.7241 10.9847 15.4815 11.162C15.2481 11.3393 15.0428 11.5773 14.8655 11.876C14.6975 12.1653 14.5668 12.4873 14.4735 12.842C14.3801 13.1873 14.3335 13.5467 14.3335 13.92C14.3335 14.3587 14.4268 14.6807 14.6135 14.886C14.8001 15.0913 15.0615 15.194 15.3975 15.194C15.5001 15.194 15.6168 15.18 15.7475 15.152C15.8781 15.1147 16.0088 15.0727 16.1395 15.026C16.2795 14.9793 16.4008 14.9233 16.5035 14.858L17.1055 11.05Z" fill="#888888"/>
</svg>
