<svg width="24" height="24" viewBox="0 0 24 24" fill="none" xmlns="http://www.w3.org/2000/svg">
<path d="M13.2291 16.566V17H9.5891V16.566H10.7091L9.7571 13.808H6.3831L5.8511 15.068C5.6831 15.4973 5.5991 15.8147 5.5991 16.02C5.5991 16.216 5.6271 16.356 5.6831 16.44C5.7391 16.524 6.0331 16.566 6.5651 16.566V17H3.5131V16.566C3.99843 16.5753 4.34843 16.5147 4.5631 16.384C4.7871 16.244 5.02977 15.8053 5.2911 15.068L8.3291 7.088H8.8891L12.1931 16.566H13.2291ZM6.5791 13.276H9.5611L8.1751 9.174L6.5791 13.276ZM18.4938 10.504H20.7478L20.4678 11.246L18.8578 11.106C19.2964 11.5167 19.5204 11.988 19.5298 12.52C19.5484 12.94 19.4364 13.3507 19.1938 13.752C18.9511 14.1533 18.6384 14.452 18.2558 14.648C17.7704 14.9187 17.2898 15.054 16.8138 15.054C16.6644 15.054 16.5338 15.0353 16.4218 14.998L16.0298 15.334C15.8711 15.4927 15.7918 15.6373 15.7918 15.768C15.7918 15.9827 15.9131 16.132 16.1558 16.216C16.2678 16.2533 16.4918 16.2813 16.8278 16.3L19.0118 16.468C20.0851 16.5427 20.6218 17.0607 20.6218 18.022C20.6218 18.7593 20.2858 19.4033 19.6138 19.954C18.9511 20.5047 18.0551 20.78 16.9258 20.78C16.0858 20.78 15.3858 20.584 14.8258 20.192C14.2658 19.8187 13.9858 19.352 13.9858 18.792C13.9858 18.2413 14.1771 17.826 14.5598 17.546C14.8118 17.3313 15.1431 17.196 15.5538 17.14C14.9658 16.9907 14.6718 16.7247 14.6718 16.342C14.6718 16.0527 14.8398 15.754 15.1758 15.446C15.3064 15.334 15.5538 15.166 15.9178 14.942C15.6378 14.9327 15.3064 14.7553 14.9238 14.41C14.5411 14.0647 14.3451 13.6307 14.3358 13.108C14.3078 12.296 14.5831 11.6613 15.1618 11.204C15.7404 10.7373 16.4591 10.4993 17.3178 10.49C17.8124 10.49 18.2044 10.4947 18.4938 10.504ZM16.9398 14.564C17.3784 14.564 17.7284 14.4147 17.9898 14.116C18.2604 13.808 18.3864 13.3927 18.3678 12.87C18.3584 12.338 18.2418 11.918 18.0178 11.61C17.7471 11.19 17.3691 10.98 16.8838 10.98C16.4078 10.98 16.0484 11.148 15.8058 11.484C15.5631 11.82 15.4418 12.2587 15.4418 12.8C15.4418 13.332 15.5818 13.7613 15.8618 14.088C16.1511 14.4053 16.5104 14.564 16.9398 14.564ZM17.6398 17.434L16.1838 17.308C15.9318 17.3173 15.6891 17.434 15.4558 17.658C15.1758 17.8913 15.0358 18.1993 15.0358 18.582C15.0358 19.1607 15.2178 19.5947 15.5818 19.884C15.9551 20.1827 16.4731 20.332 17.1358 20.332C17.8078 20.332 18.3771 20.164 18.8438 19.828C19.3104 19.492 19.5438 19.0487 19.5438 18.498C19.5438 18.1153 19.3851 17.854 19.0678 17.714C18.8158 17.5927 18.3398 17.4993 17.6398 17.434Z" fill="#888888"/>
</svg>
