<svg width="24" height="24" viewBox="0 0 24 24" fill="none" xmlns="http://www.w3.org/2000/svg">
<path d="M12.6301 16H11.3561C11.2908 15.7013 10.9688 14.7447 10.3901 13.13H6.87611C6.27878 14.6513 5.93811 15.608 5.85411 16H4.73411C5.19144 15.0947 6.35344 12.1407 8.22011 7.138H9.21411C9.50344 7.93133 9.77411 8.67333 10.0261 9.364C10.2874 10.0453 10.5301 10.68 10.7541 11.268C11.7994 14.0773 12.4248 15.6547 12.6301 16ZM10.0961 12.276C9.83478 11.5387 9.58744 10.82 9.35411 10.12C9.13011 9.42 8.91544 8.734 8.71011 8.062C8.57944 8.46333 8.38811 9.014 8.13611 9.714C7.88411 10.4047 7.56211 11.2587 7.17011 12.276H10.0961ZM19.144 10.568C19.1254 11.0067 19.1114 11.548 19.102 12.192C19.0927 12.8267 19.088 13.5733 19.088 14.432C19.088 16.1027 19.046 17.106 18.962 17.442C18.8314 17.9367 18.5374 18.3287 18.08 18.618C17.6134 18.9167 17.0954 19.066 16.526 19.066C15.8727 19.066 15.308 18.9587 14.832 18.744C14.7667 18.7067 14.678 18.6647 14.566 18.618C14.454 18.5807 14.3187 18.534 14.16 18.478L14.678 17.624C15.098 18.016 15.6207 18.2447 16.246 18.31C16.2927 18.3193 16.3347 18.324 16.372 18.324C16.4094 18.324 16.4514 18.324 16.498 18.324C16.722 18.324 16.9367 18.2867 17.142 18.212C17.3474 18.1373 17.5247 18.0347 17.674 17.904C17.8327 17.7827 17.9587 17.6333 18.052 17.456C18.1454 17.2787 18.2014 17.0873 18.22 16.882C18.2294 16.5927 18.2434 16 18.262 15.104C17.8234 15.776 17.1747 16.112 16.316 16.112C15.4574 16.112 14.7574 15.832 14.216 15.272C13.6934 14.74 13.4414 14.068 13.46 13.256C13.4694 12.4627 13.7354 11.8047 14.258 11.282C14.79 10.75 15.476 10.484 16.316 10.484C17.2027 10.484 17.8374 10.792 18.22 11.408C18.22 11.2867 18.22 11.156 18.22 11.016C18.22 10.876 18.2154 10.7267 18.206 10.568H19.144ZM16.344 11.226C15.756 11.226 15.266 11.422 14.874 11.814C14.4914 12.2153 14.3 12.7053 14.3 13.284C14.3 13.8533 14.496 14.3387 14.888 14.74C15.2894 15.1413 15.7747 15.342 16.344 15.342C16.876 15.342 17.31 15.1787 17.646 14.852C17.9914 14.516 18.1967 14.082 18.262 13.55V12.92C18.1874 12.416 17.9774 12.01 17.632 11.702C17.2867 11.3847 16.8574 11.226 16.344 11.226Z" fill="#888888"/>
</svg>
