<svg width="24" height="24" viewBox="0 0 24 24" fill="none" xmlns="http://www.w3.org/2000/svg">
<path d="M5.01041 17H0.902896L4.12328 7.72772H9.97466L13.1951 17H9.09362L8.55891 15.4323H5.54511L5.01041 17ZM6.29249 13.2449H7.81154L7.05201 10.942L6.29249 13.2449ZM22.0116 9.69641V15.4323C22.0116 16.684 21.6916 17.5995 21.0516 18.1788C20.4156 18.7621 19.4292 19.0538 18.0925 19.0538C16.3506 19.0538 14.9065 18.7013 13.7601 17.9965V14.6728C14.6554 15.5437 15.6519 15.9792 16.7496 15.9792C17.7623 15.9792 18.2687 15.6673 18.2687 15.0435C18.2687 14.9827 18.2626 14.9179 18.2505 14.849C17.8332 15.1123 17.3188 15.244 16.7071 15.244C15.7997 15.244 15.0766 14.9928 14.5379 14.4905C14.0032 13.9882 13.7358 13.3158 13.7358 12.4732C13.7358 11.9183 13.8493 11.4423 14.0761 11.0453C14.307 10.6443 14.5743 10.3526 14.8782 10.1703C15.186 9.98806 15.5263 9.86451 15.899 9.7997C16.2716 9.73084 16.9036 9.69641 17.7947 9.69641H22.0116ZM18.2505 11.7502H18.1654C17.3269 11.7502 16.9076 12.056 16.9076 12.6677C16.9076 12.9188 16.9826 13.1193 17.1324 13.2692C17.2823 13.415 17.4808 13.488 17.7279 13.488C17.9466 13.488 18.1208 13.4353 18.2505 13.33V11.7502Z" fill="#888888"/>
</svg>
