<svg width="24" height="24" viewBox="0 0 24 24" fill="none" xmlns="http://www.w3.org/2000/svg">
<path d="M5.42285 14.8906C5.10384 14.763 4.83952 14.5762 4.62988 14.3301C4.42936 14.0749 4.2653 13.7878 4.1377 13.4688C4.01921 13.1406 3.93262 12.7943 3.87793 12.4297C3.82324 12.056 3.78678 11.6868 3.76855 11.3223C3.75944 10.9486 3.75944 10.5977 3.76855 10.2695C3.78678 9.93229 3.80046 9.64062 3.80957 9.39453C3.84603 8.58333 4.00098 7.84961 4.27441 7.19336C4.54785 6.52799 4.95345 5.86263 5.49121 5.19727C5.83757 4.78711 6.16113 4.51823 6.46191 4.39062C6.77181 4.25391 7.05436 4.22201 7.30957 4.29492C7.56478 4.35872 7.7972 4.50456 8.00684 4.73242C8.21647 4.95117 8.39421 5.21094 8.54004 5.51172C8.68587 5.80339 8.7998 6.10872 8.88184 6.42773C8.97298 6.74674 9.02767 7.03841 9.0459 7.30273C9.06413 7.56706 9.0459 7.78581 8.99121 7.95898C8.93652 8.12305 8.84082 8.19596 8.7041 8.17773C8.64941 7.93164 8.6084 7.75391 8.58105 7.64453C8.56283 7.53516 8.53548 7.42578 8.49902 7.31641C8.46257 7.20703 8.40332 7.06576 8.32129 6.89258C8.24837 6.71029 8.12988 6.42773 7.96582 6.04492C7.71061 5.53451 7.45085 5.21094 7.18652 5.07422C6.9222 4.9375 6.66699 4.94206 6.4209 5.08789C6.1748 5.23372 5.93783 5.49349 5.70996 5.86719C5.49121 6.24089 5.29069 6.67839 5.1084 7.17969C4.92611 7.67188 4.77116 8.20052 4.64355 8.76562C4.51595 9.33073 4.4248 9.88216 4.37012 10.4199C4.31543 10.9486 4.30176 11.4362 4.3291 11.8828C4.35645 12.3294 4.43392 12.6849 4.56152 12.9492C4.62533 13.1133 4.7028 13.2865 4.79395 13.4688C4.89421 13.651 5.0127 13.8151 5.14941 13.9609C5.28613 14.0977 5.43652 14.207 5.60059 14.2891C5.77376 14.3711 5.96517 14.3939 6.1748 14.3574C6.6123 14.2663 6.99056 14.0794 7.30957 13.7969C7.62858 13.5143 7.90202 13.1725 8.12988 12.7715C8.35775 12.3704 8.54915 11.9238 8.7041 11.4316C8.85905 10.9395 8.98665 10.4427 9.08691 9.94141C9.19629 9.4401 9.28743 8.95247 9.36035 8.47852C9.43327 7.99544 9.49707 7.56706 9.55176 7.19336C9.61556 6.81055 9.67936 6.50065 9.74316 6.26367C9.81608 6.01758 9.90267 5.8763 10.0029 5.83984C10.0941 5.8125 10.1715 5.81706 10.2354 5.85352C10.2992 5.88997 10.3493 5.94466 10.3857 6.01758C10.4222 6.09049 10.445 6.17253 10.4541 6.26367C10.4632 6.3457 10.4587 6.41862 10.4404 6.48242C10.1396 7.00195 9.93001 7.5306 9.81152 8.06836C9.70215 8.59701 9.66113 9.11654 9.68848 9.62695C9.72493 10.1283 9.81608 10.6113 9.96191 11.0762C10.1169 11.5319 10.3037 11.9557 10.5225 12.3477C10.7503 12.7305 10.9964 13.0723 11.2607 13.373C11.5342 13.6647 11.8031 13.8971 12.0674 14.0703C12.3408 14.2344 12.596 14.3301 12.833 14.3574C13.0791 14.3848 13.2887 14.321 13.4619 14.166C13.8265 13.7832 14.109 13.5508 14.3096 13.4688C14.5101 13.3776 14.6423 13.3776 14.7061 13.4688C14.7699 13.5508 14.7699 13.6966 14.7061 13.9062C14.6423 14.1159 14.5283 14.3255 14.3643 14.5352C14.2002 14.7357 13.9906 14.9089 13.7354 15.0547C13.4801 15.2096 13.1976 15.2734 12.8877 15.2461C12.5778 15.2279 12.2406 15.0866 11.876 14.8223C11.5114 14.5579 11.1377 14.1204 10.7549 13.5098C10.5999 13.3092 10.4541 13.0859 10.3174 12.8398C10.1807 12.5938 10.0485 12.3431 9.9209 12.0879C9.80241 11.8327 9.68848 11.5775 9.5791 11.3223C9.47884 11.0671 9.38314 10.821 9.29199 10.584C9.2373 10.8483 9.15527 11.1628 9.0459 11.5273C8.94564 11.8828 8.81348 12.2474 8.64941 12.6211C8.49447 12.9857 8.30762 13.3411 8.08887 13.6875C7.87923 14.0247 7.6377 14.3073 7.36426 14.5352C7.09993 14.763 6.80371 14.918 6.47559 15C6.14746 15.082 5.79655 15.0456 5.42285 14.8906ZM16.5381 22.8613C16.1917 22.6973 15.9001 22.4512 15.6631 22.123C15.4261 21.804 15.2347 21.4349 15.0889 21.0156C14.943 20.6055 14.8382 20.168 14.7744 19.7031C14.7106 19.2474 14.6742 18.8008 14.665 18.3633C14.6559 17.9258 14.6696 17.5202 14.7061 17.1465C14.7425 16.7728 14.7881 16.4629 14.8428 16.2168C14.861 16.1257 14.9066 16.0072 14.9795 15.8613C15.0615 15.7246 15.139 15.5833 15.2119 15.4375C15.2848 15.2917 15.3441 15.1504 15.3896 15.0137C15.4443 14.877 15.4535 14.7676 15.417 14.6855H15.1299C14.9749 14.6855 14.8337 14.6309 14.7061 14.5215C14.5785 14.403 14.4645 14.2708 14.3643 14.125C14.2731 13.9792 14.1956 13.8333 14.1318 13.6875C14.068 13.5417 14.0225 13.4323 13.9951 13.3594C13.9769 13.1862 13.9587 12.9948 13.9404 12.7852C13.9313 12.5755 13.9268 12.3659 13.9268 12.1562C13.9359 11.9466 13.9541 11.737 13.9814 11.5273C14.0088 11.3086 14.0589 11.1035 14.1318 10.9121C14.2139 10.6751 14.3324 10.388 14.4873 10.0508C14.6514 9.70443 14.8382 9.36719 15.0479 9.03906C15.2575 8.71094 15.4899 8.41927 15.7451 8.16406C16.0094 7.90885 16.2829 7.74479 16.5654 7.67188C16.8571 7.59896 17.1579 7.64909 17.4678 7.82227C17.7777 7.98633 18.0876 8.33268 18.3975 8.86133C18.4704 8.87956 18.5433 8.88411 18.6162 8.875C18.6891 8.85677 18.7575 8.8431 18.8213 8.83398C18.8851 8.81576 18.9398 8.80664 18.9854 8.80664C19.04 8.80664 19.0902 8.82487 19.1357 8.86133C19.1449 8.9707 19.154 9.17122 19.1631 9.46289C19.1722 9.75456 19.1768 10.0736 19.1768 10.4199C19.1768 10.7663 19.1585 11.1081 19.1221 11.4453C19.0947 11.7734 19.0446 12.0378 18.9717 12.2383C18.9717 12.3568 18.9671 12.5436 18.958 12.7988C18.9489 13.054 18.9398 13.3411 18.9307 13.6602C18.9215 13.9701 18.9124 14.3027 18.9033 14.6582C18.8942 15.0046 18.8851 15.3327 18.876 15.6426C18.876 15.9616 18.8714 16.2441 18.8623 16.4902C18.8532 16.7454 18.8486 16.9323 18.8486 17.0508C18.8395 17.1055 18.8258 17.2148 18.8076 17.3789C18.7985 17.543 18.7848 17.7161 18.7666 17.8984C18.7484 18.0807 18.7301 18.2539 18.7119 18.418C18.7028 18.5911 18.6982 18.7096 18.6982 18.7734C18.6891 18.8281 18.6618 18.9831 18.6162 19.2383C18.5798 19.4935 18.5205 19.7897 18.4385 20.127C18.3564 20.4733 18.2562 20.8288 18.1377 21.1934C18.0192 21.5671 17.8779 21.8952 17.7139 22.1777C17.5589 22.4694 17.3812 22.6836 17.1807 22.8203C16.9893 22.9661 16.7751 22.9798 16.5381 22.8613ZM16.1143 21.7539C16.3057 21.9727 16.4788 22.082 16.6338 22.082C16.7887 22.0911 16.93 22.0228 17.0576 21.877C17.1852 21.7402 17.2992 21.5397 17.3994 21.2754C17.5088 21.0202 17.5999 20.7376 17.6729 20.4277C17.7549 20.127 17.8232 19.8171 17.8779 19.498C17.9326 19.179 17.9782 18.8874 18.0146 18.623C18.0511 18.3587 18.0785 18.1354 18.0967 17.9531C18.1149 17.7799 18.124 17.6842 18.124 17.666C18.1331 17.5749 18.1468 17.4336 18.165 17.2422C18.1833 17.0508 18.1969 16.8548 18.2061 16.6543C18.2243 16.4629 18.238 16.2852 18.2471 16.1211C18.2562 15.9661 18.2607 15.8659 18.2607 15.8203C18.2699 15.7292 18.2744 15.5697 18.2744 15.3418C18.2744 15.123 18.2744 14.8906 18.2744 14.6445C18.2744 14.3984 18.2744 14.166 18.2744 13.9473C18.2744 13.7194 18.2699 13.5599 18.2607 13.4688H17.96L16.251 14.6855C15.9958 14.8678 15.7861 15.1367 15.6221 15.4922C15.4671 15.8568 15.3532 16.2624 15.2803 16.709C15.2074 17.1647 15.1755 17.6387 15.1846 18.1309C15.1937 18.6322 15.2347 19.1107 15.3076 19.5664C15.3805 20.0312 15.4854 20.4551 15.6221 20.8379C15.7588 21.2298 15.9229 21.5352 16.1143 21.7539ZM14.8428 13.6738C15.3532 13.8379 15.8226 13.8789 16.251 13.7969C16.6885 13.7057 17.0622 13.5326 17.3721 13.2773C17.682 13.013 17.9189 12.6803 18.083 12.2793C18.2562 11.8783 18.3337 11.4499 18.3154 10.9941C18.3063 10.5384 18.1924 10.0736 17.9736 9.59961C17.764 9.11654 17.4359 8.66536 16.9893 8.24609C16.734 8.18229 16.488 8.25065 16.251 8.45117C16.0231 8.64258 15.8089 8.91602 15.6084 9.27148C15.417 9.62695 15.2484 10.028 15.1025 10.4746C14.9567 10.9121 14.8473 11.3451 14.7744 11.7734C14.7015 12.2018 14.665 12.5892 14.665 12.9355C14.6742 13.2819 14.7334 13.528 14.8428 13.6738Z" fill="#333333"/>
</svg>
