<svg width="24" height="24" viewBox="0 0 24 24" fill="none" xmlns="http://www.w3.org/2000/svg">
<path d="M4.82107 17C4.75574 17 4.7184 16.9813 4.70907 16.944C4.69974 16.8973 4.7044 16.8133 4.72307 16.692C4.77907 16.2533 4.8724 15.7307 5.00307 15.124C5.13374 14.5173 5.28774 13.8733 5.46507 13.192C5.6424 12.5013 5.83374 11.8153 6.03907 11.134C6.2444 10.4433 6.4544 9.80867 6.66907 9.23C6.88374 8.642 7.08907 8.152 7.28507 7.76C7.31307 7.704 7.34574 7.662 7.38307 7.634C7.4204 7.59667 7.4624 7.578 7.50907 7.578H8.71307C8.75974 7.58733 8.80174 7.606 8.83907 7.634C8.88574 7.65267 8.92307 7.69467 8.95107 7.76C9.13774 8.14267 9.3384 8.628 9.55307 9.216C9.76774 9.804 9.97774 10.4433 10.1831 11.134C10.3884 11.8247 10.5797 12.52 10.7571 13.22C10.9344 13.9107 11.0884 14.5593 11.2191 15.166C11.3497 15.7633 11.4431 16.2673 11.4991 16.678C11.5271 16.8087 11.5317 16.8973 11.5131 16.944C11.5037 16.9813 11.4664 17 11.4011 17H10.4071C10.3604 17 10.3277 16.986 10.3091 16.958C10.2904 16.93 10.2671 16.86 10.2391 16.748C10.2017 16.5053 10.1504 16.2207 10.0851 15.894C10.0197 15.5673 9.9544 15.2453 9.88907 14.928C9.87974 14.872 9.86107 14.8393 9.83307 14.83C9.8144 14.8113 9.77707 14.802 9.72107 14.802H6.50107C6.44507 14.802 6.40774 14.8113 6.38907 14.83C6.3704 14.8393 6.35174 14.8767 6.33307 14.942C6.26774 15.25 6.2024 15.5673 6.13707 15.894C6.07174 16.2207 6.0204 16.5053 5.98307 16.748C5.9644 16.86 5.94574 16.93 5.92707 16.958C5.9084 16.986 5.87107 17 5.81507 17H4.82107ZM6.76707 13.794H9.44107C9.48774 13.794 9.5204 13.78 9.53907 13.752C9.55774 13.724 9.55774 13.668 9.53907 13.584C9.36174 12.8933 9.17507 12.1933 8.97907 11.484C8.7924 10.7653 8.57774 10.0933 8.33507 9.468C8.3164 9.40267 8.27907 9.37 8.22307 9.37H7.99907C7.9524 9.37 7.91507 9.40267 7.88707 9.468C7.76574 9.79467 7.6304 10.1913 7.48107 10.658C7.33174 11.1247 7.18707 11.6193 7.04707 12.142C6.90707 12.6553 6.78107 13.1547 6.66907 13.64C6.65974 13.6773 6.65974 13.7147 6.66907 13.752C6.6784 13.78 6.71107 13.794 6.76707 13.794ZM12.5037 13.612C12.5037 12.9867 12.5877 12.4267 12.7557 11.932C12.9237 11.428 13.2223 11.0313 13.6517 10.742C14.081 10.4527 14.6783 10.308 15.4437 10.308C15.8077 10.308 16.167 10.336 16.5217 10.392C16.8763 10.448 17.189 10.532 17.4597 10.644C17.637 10.7 17.749 10.7793 17.7957 10.882C17.8423 10.9753 17.875 11.1247 17.8937 11.33C17.9777 12.0393 18.0243 12.8513 18.0337 13.766C18.043 14.6713 17.9917 15.6 17.8797 16.552C17.777 17.3547 17.483 17.9427 16.9977 18.316C16.5217 18.6893 15.8637 18.876 15.0237 18.876C14.6877 18.876 14.3237 18.8293 13.9317 18.736C13.5397 18.6427 13.1803 18.4747 12.8537 18.232C12.807 18.1947 12.7743 18.1527 12.7557 18.106C12.737 18.0593 12.7417 18.0127 12.7697 17.966C12.7977 17.91 12.8397 17.8307 12.8957 17.728C12.961 17.6253 13.0123 17.546 13.0497 17.49C13.087 17.4153 13.1243 17.3733 13.1617 17.364C13.199 17.364 13.2457 17.3827 13.3017 17.42C13.4323 17.504 13.591 17.5833 13.7777 17.658C13.9737 17.742 14.1743 17.8073 14.3797 17.854C14.5943 17.91 14.7903 17.938 14.9677 17.938C15.201 17.938 15.4297 17.9007 15.6537 17.826C15.8777 17.7513 16.0737 17.6207 16.2417 17.434C16.419 17.2567 16.531 17.0093 16.5777 16.692C16.5777 16.6733 16.5777 16.6593 16.5777 16.65C16.587 16.6313 16.5917 16.6173 16.5917 16.608C16.601 16.5427 16.587 16.5007 16.5497 16.482C16.5123 16.454 16.4517 16.4493 16.3677 16.468C16.2183 16.5053 16.041 16.5427 15.8357 16.58C15.6397 16.608 15.439 16.622 15.2337 16.622C14.683 16.622 14.1977 16.5053 13.7777 16.272C13.367 16.0387 13.0497 15.698 12.8257 15.25C12.6017 14.802 12.4943 14.256 12.5037 13.612ZM13.7917 13.444C13.7917 13.8733 13.8383 14.256 13.9317 14.592C14.025 14.928 14.1883 15.194 14.4217 15.39C14.655 15.5767 14.9723 15.67 15.3737 15.67C15.5603 15.67 15.7423 15.6607 15.9197 15.642C16.097 15.614 16.2603 15.572 16.4097 15.516C16.5963 15.4413 16.699 15.3247 16.7177 15.166C16.7363 14.9327 16.7457 14.6573 16.7457 14.34C16.7457 14.0133 16.741 13.6867 16.7317 13.36C16.7317 13.024 16.7223 12.716 16.7037 12.436C16.6943 12.1467 16.6803 11.9133 16.6617 11.736C16.6617 11.68 16.6477 11.61 16.6197 11.526C16.5917 11.442 16.5357 11.3813 16.4517 11.344C16.349 11.288 16.2043 11.246 16.0177 11.218C15.831 11.19 15.6257 11.176 15.4017 11.176C15.0003 11.176 14.683 11.274 14.4497 11.47C14.2163 11.6567 14.0483 11.9227 13.9457 12.268C13.843 12.604 13.7917 12.996 13.7917 13.444Z" fill="#888888"/>
</svg>
