<svg width="24" height="24" viewBox="0 0 24 24" fill="none" xmlns="http://www.w3.org/2000/svg">
<path d="M4.9814 17C4.8974 17 4.8554 16.9673 4.8554 16.902C4.8554 16.8367 4.89273 16.7107 4.9674 16.524C5.1074 16.104 5.3034 15.6 5.5554 15.012C5.81673 14.4147 6.10607 13.7847 6.4234 13.122C6.74073 12.4593 7.07207 11.7967 7.4174 11.134C7.77207 10.4713 8.11273 9.85533 8.4394 9.286C8.7754 8.70733 9.0834 8.22667 9.3634 7.844C9.42873 7.76 9.4894 7.69467 9.5454 7.648C9.6014 7.60133 9.66207 7.578 9.7274 7.578H11.0574C11.1227 7.606 11.1741 7.63867 11.2114 7.676C11.2581 7.704 11.2907 7.76 11.3094 7.844C11.4307 8.22667 11.5381 8.70733 11.6314 9.286C11.7247 9.85533 11.8041 10.4713 11.8694 11.134C11.9347 11.7967 11.9861 12.464 12.0234 13.136C12.0607 13.7987 12.0794 14.4287 12.0794 15.026C12.0887 15.614 12.0794 16.1133 12.0514 16.524C12.0421 16.7107 12.0187 16.8367 11.9814 16.902C11.9534 16.9673 11.8927 17 11.7994 17H10.3574C10.2921 17 10.2454 16.9813 10.2174 16.944C10.1987 16.8973 10.1941 16.7853 10.2034 16.608C10.2127 16.3933 10.2174 16.1413 10.2174 15.852C10.2174 15.5533 10.2174 15.292 10.2174 15.068C10.2174 15.0027 10.2081 14.9653 10.1894 14.956C10.1801 14.9373 10.1427 14.928 10.0774 14.928H7.5854C7.52007 14.9373 7.47807 14.9467 7.4594 14.956C7.45007 14.9653 7.4314 15.0073 7.4034 15.082C7.3194 15.2967 7.21207 15.5533 7.0814 15.852C6.95073 16.1413 6.8434 16.398 6.7594 16.622C6.69407 16.79 6.64273 16.8973 6.6054 16.944C6.56807 16.9813 6.51207 17 6.4374 17H4.9814ZM8.2854 13.514H9.9934C10.0587 13.514 10.0961 13.5047 10.1054 13.486C10.1147 13.458 10.1241 13.4113 10.1334 13.346C10.1147 12.87 10.0867 12.3753 10.0494 11.862C10.0214 11.3393 9.9794 10.868 9.9234 10.448C9.93273 10.364 9.9094 10.322 9.8534 10.322H9.7554C9.7274 10.322 9.6854 10.364 9.6294 10.448C9.50807 10.6907 9.3634 10.9753 9.1954 11.302C9.0274 11.6287 8.85473 11.9693 8.6774 12.324C8.5094 12.6787 8.35073 13.024 8.2014 13.36C8.1734 13.416 8.16407 13.458 8.1734 13.486C8.18273 13.5047 8.22007 13.514 8.2854 13.514ZM13.4337 13.612C13.5737 12.9773 13.7837 12.4127 14.0637 11.918C14.353 11.414 14.7497 11.022 15.2537 10.742C15.7577 10.4527 16.411 10.308 17.2137 10.308C17.587 10.308 17.9463 10.3407 18.2917 10.406C18.637 10.462 18.9357 10.5413 19.1877 10.644C19.4023 10.728 19.519 10.8213 19.5377 10.924C19.5657 11.0267 19.5703 11.1993 19.5517 11.442C19.477 12.198 19.3463 13.0147 19.1597 13.892C18.9823 14.7693 18.749 15.6233 18.4597 16.454C18.189 17.266 17.7597 17.8587 17.1717 18.232C16.5837 18.6147 15.8557 18.806 14.9877 18.806C14.6423 18.806 14.2737 18.7547 13.8817 18.652C13.4897 18.5587 13.135 18.3767 12.8177 18.106C12.7897 18.078 12.771 18.0313 12.7617 17.966C12.743 17.9007 12.7617 17.8353 12.8177 17.77C12.8457 17.7233 12.897 17.6533 12.9717 17.56C13.037 17.476 13.107 17.3873 13.1817 17.294C13.2563 17.21 13.3123 17.1447 13.3497 17.098C13.4337 16.986 13.4943 16.9253 13.5317 16.916C13.5783 16.9067 13.6437 16.9347 13.7277 17C13.8117 17.0747 13.9377 17.1493 14.1057 17.224C14.283 17.2987 14.465 17.364 14.6517 17.42C14.8383 17.476 14.9923 17.504 15.1137 17.504C15.263 17.504 15.431 17.4807 15.6177 17.434C15.8137 17.3873 15.9957 17.3033 16.1637 17.182C16.341 17.0607 16.4717 16.8787 16.5557 16.636C16.5557 16.6267 16.5557 16.6173 16.5557 16.608C16.565 16.5987 16.5743 16.5893 16.5837 16.58C16.6023 16.5147 16.6023 16.4633 16.5837 16.426C16.565 16.3793 16.509 16.3653 16.4157 16.384C16.341 16.4027 16.229 16.4213 16.0797 16.44C15.9397 16.4493 15.8043 16.454 15.6737 16.454C15.1697 16.454 14.7217 16.3513 14.3297 16.146C13.947 15.9407 13.667 15.628 13.4897 15.208C13.3217 14.7787 13.303 14.2467 13.4337 13.612ZM15.3797 13.318C15.305 13.6633 15.2677 13.976 15.2677 14.256C15.277 14.536 15.3423 14.7553 15.4637 14.914C15.5943 15.0633 15.8043 15.138 16.0937 15.138C16.2243 15.138 16.3503 15.1333 16.4717 15.124C16.6023 15.1053 16.719 15.0727 16.8217 15.026C16.8963 15.0073 16.9523 14.9747 16.9897 14.928C17.0363 14.8813 17.069 14.8207 17.0877 14.746C17.1437 14.5593 17.1997 14.3353 17.2557 14.074C17.321 13.8033 17.377 13.528 17.4237 13.248C17.4797 12.9587 17.5263 12.702 17.5637 12.478C17.6103 12.2447 17.6383 12.0673 17.6477 11.946C17.6663 11.89 17.671 11.8293 17.6617 11.764C17.6523 11.6893 17.629 11.6427 17.5917 11.624C17.517 11.5773 17.419 11.5447 17.2977 11.526C17.1857 11.498 17.0457 11.484 16.8777 11.484C16.4577 11.484 16.131 11.6567 15.8977 12.002C15.6643 12.338 15.4917 12.7767 15.3797 13.318Z" fill="#888888"/>
</svg>
