<svg width="24" height="24" viewBox="0 0 24 24" fill="none" xmlns="http://www.w3.org/2000/svg">
<path d="M9.2666 7.7168L9.19824 7.25195C9.17546 7.10156 9.16406 7.01725 9.16406 6.99902C9.16406 6.95345 9.19824 6.91471 9.2666 6.88281L10.4219 6.34277C10.4401 6.33366 10.4606 6.3291 10.4834 6.3291C10.5472 6.3291 10.5882 6.37012 10.6064 6.45215L12.4658 15.7217C12.4977 15.8903 12.5365 16.0111 12.582 16.084C12.6322 16.1569 12.7256 16.2344 12.8623 16.3164C12.9671 16.3802 13.0195 16.4531 13.0195 16.5352V16.8359C13.0195 16.9453 12.9762 17 12.8896 17H10.6064C10.4834 17 10.4219 16.9453 10.4219 16.8359V16.5352C10.4219 16.4303 10.4948 16.3415 10.6406 16.2686C10.8184 16.1729 10.9072 16.043 10.9072 15.8789C10.9072 15.8333 10.9027 15.7809 10.8936 15.7217L10.6064 14.293H8.82227L8.53516 15.667C8.52148 15.7262 8.51465 15.7695 8.51465 15.7969C8.51465 15.9336 8.61719 16.084 8.82227 16.248C8.95443 16.3574 9.02051 16.4531 9.02051 16.5352V16.8359C9.02051 16.9453 8.95443 17 8.82227 17H7.39355C7.23405 17 7.1543 16.9453 7.1543 16.8359V16.4805C7.1543 16.3848 7.20443 16.3073 7.30469 16.248C7.49154 16.1341 7.61458 15.9404 7.67383 15.667L9.2666 7.7168ZM9.73145 9.91113L9.02051 13.418H10.4219L9.73145 9.91113ZM16.417 10.6836C16.7314 10.3646 17.014 10.2051 17.2646 10.2051C17.4242 10.2051 17.5632 10.2529 17.6816 10.3486C17.8001 10.4398 17.8594 10.5605 17.8594 10.7109C17.8594 10.9798 17.7249 11.1143 17.4561 11.1143C17.3695 11.1143 17.2715 11.0846 17.1621 11.0254C17.0755 10.9798 17.014 10.957 16.9775 10.957C16.9046 10.957 16.8317 10.9775 16.7588 11.0186C17.096 11.488 17.2646 12.0052 17.2646 12.5703C17.2646 13.2812 17.1097 13.8464 16.7998 14.2656C16.4899 14.6849 16.057 14.8945 15.501 14.8945C15.3551 14.8945 15.1751 14.8763 14.9609 14.8398L14.6123 15.708H15.2412C16.8044 15.708 17.5859 16.248 17.5859 17.3281C17.5859 17.8841 17.3763 18.3193 16.957 18.6338C16.5423 18.9528 15.9977 19.1123 15.3232 19.1123C14.7855 19.1123 14.3617 19.0189 14.0518 18.832C13.7464 18.6452 13.5938 18.3923 13.5938 18.0732C13.5938 17.891 13.653 17.7383 13.7715 17.6152C13.89 17.4967 14.0449 17.4375 14.2363 17.4375C14.4141 17.4375 14.5622 17.4899 14.6807 17.5947C14.8037 17.6995 14.8652 17.8317 14.8652 17.9912C14.8652 18.0869 14.8333 18.1963 14.7695 18.3193C14.9883 18.4242 15.2139 18.4766 15.4463 18.4766C15.7425 18.4766 15.9954 18.3991 16.2051 18.2441C16.4193 18.0892 16.5264 17.8978 16.5264 17.6699C16.5264 17.1777 15.984 16.9316 14.8994 16.9316C14.6807 16.9316 14.4163 16.9385 14.1064 16.9521C13.9469 16.9613 13.8285 16.9658 13.751 16.9658C13.6051 16.9658 13.5322 16.9225 13.5322 16.8359C13.5322 16.7721 13.5664 16.6514 13.6348 16.4736L14.3936 14.5801C13.8831 14.138 13.6279 13.5 13.6279 12.666C13.6279 12.0143 13.776 11.4766 14.0723 11.0527C14.373 10.6243 14.8311 10.4102 15.4463 10.4102C15.8109 10.4102 16.1344 10.5013 16.417 10.6836ZM15.4395 14.2861C15.6309 14.2861 15.763 14.179 15.8359 13.9648C15.9089 13.7507 15.9453 13.3382 15.9453 12.7275C15.9453 12.0303 15.9089 11.5723 15.8359 11.3535C15.763 11.1302 15.64 11.0186 15.4668 11.0186C15.2389 11.0186 15.0954 11.1826 15.0361 11.5107C14.9769 11.8389 14.9473 12.3333 14.9473 12.9941C14.9473 13.459 14.9837 13.7917 15.0566 13.9922C15.1296 14.1882 15.2572 14.2861 15.4395 14.2861Z" fill="#888888"/>
</svg>
