<svg width="24" height="24" viewBox="0 0 24 24" fill="none" xmlns="http://www.w3.org/2000/svg">
<path d="M11.4483 16.28C11.1916 16.28 10.963 16.2333 10.7623 16.14C10.5663 16.0467 10.3913 15.8903 10.2373 15.671C10.1953 15.573 10.151 15.4657 10.1043 15.349C10.0623 15.2277 10.0203 15.104 9.97831 14.978C9.9363 14.852 9.88964 14.7283 9.83831 14.607C9.78697 14.481 9.72631 14.3643 9.65631 14.257C9.57697 14.117 9.48597 14.0097 9.3833 13.935C9.2853 13.8603 9.15464 13.809 8.9913 13.781C8.9213 13.7623 8.81864 13.7483 8.68331 13.739C8.54797 13.725 8.39864 13.7133 8.23531 13.704C8.07664 13.6947 7.92264 13.69 7.77331 13.69C7.55397 13.69 7.32764 13.697 7.09431 13.711C6.86564 13.725 6.6673 13.7413 6.4993 13.76C6.34064 13.7833 6.21697 13.823 6.12831 13.879C6.03964 13.935 5.96264 14.0213 5.8973 14.138C5.83664 14.2453 5.77597 14.3737 5.7153 14.523C5.65464 14.6723 5.59164 14.8263 5.5263 14.985C5.46097 15.1437 5.39564 15.3 5.3303 15.454C5.2043 15.6687 5.04797 15.839 4.8613 15.965C4.67464 16.091 4.4063 16.154 4.0563 16.154C3.77164 16.154 3.5313 16.1097 3.3353 16.021C3.14397 15.937 3.00164 15.797 2.9083 15.601C2.81497 15.4003 2.7683 15.132 2.7683 14.796C2.7683 14.5533 2.79864 14.2827 2.8593 13.984C2.91997 13.6807 3.00164 13.3633 3.1043 13.032C3.21164 12.7007 3.33064 12.374 3.4613 12.052C3.59197 11.7253 3.72497 11.4127 3.8603 11.114C3.99564 10.8153 4.12397 10.5493 4.2453 10.316C4.3713 10.078 4.47864 9.88667 4.5673 9.742C4.72597 9.48067 4.9103 9.224 5.1203 8.972C5.3303 8.71533 5.5683 8.482 5.8343 8.272C6.10497 8.062 6.40597 7.894 6.7373 7.768C7.06864 7.63733 7.43264 7.572 7.8293 7.572C8.43597 7.572 8.99831 7.73067 9.51631 8.048C10.0343 8.36067 10.5033 8.79 10.9233 9.336C11.0866 9.53667 11.2476 9.784 11.4063 10.078C11.565 10.372 11.7143 10.6963 11.8543 11.051C11.999 11.401 12.132 11.7627 12.2533 12.136C12.3746 12.5093 12.4796 12.878 12.5683 13.242C12.657 13.606 12.7246 13.949 12.7713 14.271C12.8226 14.593 12.8483 14.8753 12.8483 15.118C12.8483 15.5473 12.72 15.8483 12.4633 16.021C12.2113 16.1937 11.873 16.28 11.4483 16.28ZM9.1243 12.094C9.21764 12.0613 9.28064 12.0123 9.3133 11.947C9.34597 11.877 9.3623 11.772 9.3623 11.632C9.3623 11.5153 9.34364 11.3753 9.3063 11.212C9.26897 11.044 9.21764 10.8713 9.1523 10.694C9.08697 10.512 9.0123 10.3463 8.9283 10.197C8.81164 9.973 8.67164 9.78867 8.5083 9.644C8.34497 9.49933 8.1723 9.427 7.9903 9.427C7.76164 9.427 7.54931 9.518 7.35331 9.7C7.1573 9.87733 6.9893 10.092 6.8493 10.344C6.7933 10.4373 6.73497 10.547 6.67431 10.673C6.6183 10.799 6.56464 10.9273 6.51331 11.058C6.46664 11.1887 6.42697 11.3147 6.3943 11.436C6.36164 11.5527 6.3453 11.6553 6.3453 11.744C6.3453 11.8933 6.4083 12.0007 6.5343 12.066C6.66497 12.1267 6.83997 12.157 7.0593 12.157C7.4093 12.157 7.71497 12.1547 7.97631 12.15C8.23764 12.1453 8.46164 12.1383 8.64831 12.129C8.83964 12.1197 8.99831 12.108 9.1243 12.094ZM17.0181 19.164C16.3555 19.164 15.8071 19.1197 15.3731 19.031C14.9438 18.9423 14.6055 18.828 14.3581 18.688C14.1108 18.5527 13.9358 18.3987 13.8331 18.226C13.7351 18.058 13.6861 17.8947 13.6861 17.736C13.6861 17.5633 13.7421 17.4187 13.8541 17.302C13.9708 17.19 14.1271 17.1037 14.3231 17.043C14.5238 16.9823 14.7431 16.952 14.9811 16.952C15.1445 16.952 15.3265 16.9683 15.5271 17.001C15.7278 17.0337 15.9378 17.0663 16.1571 17.099C16.3811 17.1363 16.6145 17.1643 16.8571 17.183C17.1045 17.2063 17.3565 17.2087 17.6131 17.19C17.8558 17.1807 18.0611 17.1293 18.2291 17.036C18.4018 16.9473 18.5418 16.833 18.6491 16.693C18.7565 16.553 18.8335 16.399 18.8801 16.231C18.9315 16.063 18.9571 15.8973 18.9571 15.734C18.9571 15.6967 18.9525 15.664 18.9431 15.636C18.9338 15.6033 18.9221 15.5777 18.9081 15.559C18.8941 15.5403 18.8708 15.531 18.8381 15.531C18.7868 15.531 18.7098 15.5613 18.6071 15.622C18.5045 15.6827 18.3715 15.7527 18.2081 15.832C18.0495 15.9067 17.8581 15.9743 17.6341 16.035C17.4101 16.0957 17.1511 16.126 16.8571 16.126C16.1198 16.126 15.4991 16.007 14.9951 15.769C14.4958 15.531 14.1178 15.181 13.8611 14.719C13.6045 14.2523 13.4761 13.6783 13.4761 12.997C13.4761 12.4137 13.5975 11.9073 13.8401 11.478C14.0828 11.044 14.4095 10.687 14.8201 10.407C15.2355 10.1223 15.7021 9.91 16.2201 9.77C16.7428 9.63 17.2841 9.56 17.8441 9.56C18.4508 9.56 19.0015 9.651 19.4961 9.833C19.9908 10.015 20.4178 10.281 20.7771 10.631C21.1365 10.981 21.4118 11.4103 21.6031 11.919C21.7991 12.4277 21.8971 13.011 21.8971 13.669C21.8971 14.5743 21.7945 15.37 21.5891 16.056C21.3885 16.7467 21.0851 17.3207 20.6791 17.778C20.2731 18.24 19.7645 18.5853 19.1531 18.814C18.5418 19.0473 17.8301 19.164 17.0181 19.164ZM17.5921 14.46C17.8488 14.46 18.0845 14.4227 18.2991 14.348C18.5185 14.2733 18.7075 14.166 18.8661 14.026C19.0248 13.886 19.1485 13.7203 19.2371 13.529C19.3305 13.333 19.3771 13.1183 19.3771 12.885C19.3771 12.591 19.3141 12.3343 19.1881 12.115C19.0668 11.8957 18.8895 11.723 18.6561 11.597C18.4228 11.471 18.1381 11.408 17.8021 11.408C17.5921 11.408 17.3798 11.4383 17.1651 11.499C16.9505 11.555 16.7521 11.646 16.5701 11.772C16.3881 11.8933 16.2435 12.0567 16.1361 12.262C16.0288 12.4673 15.9751 12.717 15.9751 13.011C15.9751 13.291 16.0381 13.5407 16.1641 13.76C16.2948 13.9793 16.4815 14.152 16.7241 14.278C16.9668 14.3993 17.2561 14.46 17.5921 14.46Z" fill="#888888"/>
</svg>
