<svg width="24" height="24" viewBox="0 0 24 24" fill="none" xmlns="http://www.w3.org/2000/svg">
<path d="M11.1519 16.28C10.9279 16.28 10.7296 16.231 10.5569 16.133C10.3889 16.0397 10.2419 15.8903 10.1159 15.685C10.0692 15.573 10.0226 15.4447 9.97591 15.3C9.92924 15.1553 9.88257 15.0083 9.83591 14.859C9.78924 14.705 9.74024 14.558 9.68891 14.418C9.63757 14.2733 9.58391 14.1473 9.52791 14.04C9.45324 13.8953 9.36691 13.788 9.26891 13.718C9.17091 13.6433 9.03557 13.592 8.86291 13.564C8.77891 13.55 8.65524 13.536 8.49191 13.522C8.33324 13.508 8.15591 13.4963 7.95991 13.487C7.76857 13.4777 7.58657 13.473 7.41391 13.473C7.15257 13.473 6.88657 13.48 6.61591 13.494C6.34991 13.508 6.11891 13.5243 5.92291 13.543C5.75024 13.5663 5.61724 13.6083 5.52391 13.669C5.43057 13.725 5.35357 13.816 5.29291 13.942C5.23224 14.0633 5.16924 14.2103 5.10391 14.383C5.04324 14.551 4.98024 14.7283 4.91491 14.915C4.84957 15.1017 4.78191 15.2813 4.71191 15.454C4.60457 15.6733 4.46924 15.8437 4.30591 15.965C4.14257 16.0863 3.91391 16.147 3.61991 16.147C3.38191 16.147 3.18357 16.1097 3.02491 16.035C2.86624 15.9603 2.74724 15.839 2.66791 15.671C2.58857 15.503 2.54891 15.2767 2.54891 14.992C2.54891 14.7633 2.57924 14.4997 2.63991 14.201C2.70524 13.8977 2.78924 13.578 2.89191 13.242C2.99924 12.9013 3.11591 12.5607 3.24191 12.22C3.37257 11.8747 3.50557 11.5457 3.64091 11.233C3.77624 10.9157 3.90457 10.631 4.02591 10.379C4.14724 10.1223 4.25224 9.91933 4.34091 9.77C4.49957 9.49467 4.68157 9.22633 4.88691 8.965C5.09691 8.699 5.33024 8.461 5.58691 8.251C5.84824 8.03633 6.13524 7.866 6.44791 7.74C6.76524 7.614 7.11291 7.551 7.49091 7.551C8.08357 7.551 8.62491 7.719 9.11491 8.055C9.60491 8.38633 10.0459 8.832 10.4379 9.392C10.5872 9.59267 10.7342 9.84467 10.8789 10.148C11.0282 10.4467 11.1729 10.778 11.3129 11.142C11.4529 11.506 11.5812 11.8817 11.6979 12.269C11.8146 12.6563 11.9172 13.039 12.0059 13.417C12.0992 13.7903 12.1692 14.1403 12.2159 14.467C12.2672 14.789 12.2929 15.069 12.2929 15.307C12.2929 15.6617 12.1902 15.9113 11.9849 16.056C11.7796 16.2053 11.5019 16.28 11.1519 16.28ZM8.97491 12.115C9.07291 12.0917 9.13824 12.0473 9.17091 11.982C9.20357 11.9167 9.21991 11.8163 9.21991 11.681C9.21991 11.5503 9.19657 11.3917 9.14991 11.205C9.10791 11.0137 9.04957 10.8153 8.97491 10.61C8.90024 10.4 8.81391 10.2063 8.71591 10.029C8.57591 9.76767 8.41257 9.55067 8.22591 9.378C8.03924 9.20067 7.83624 9.112 7.61691 9.112C7.36957 9.112 7.13624 9.21 6.91691 9.406C6.69757 9.602 6.50391 9.84467 6.33591 10.134C6.27057 10.246 6.20291 10.3767 6.13291 10.526C6.06291 10.6707 5.99757 10.82 5.93691 10.974C5.87624 11.128 5.82724 11.275 5.78991 11.415C5.75257 11.5503 5.73391 11.667 5.73391 11.765C5.73391 11.9097 5.79224 12.0123 5.90891 12.073C6.03024 12.129 6.20757 12.157 6.44091 12.157C6.87957 12.157 7.25991 12.157 7.58191 12.157C7.90391 12.157 8.17924 12.1547 8.40791 12.15C8.63657 12.1407 8.82557 12.129 8.97491 12.115ZM16.4699 19.129C15.8493 19.129 15.3266 19.0847 14.9019 18.996C14.4773 18.912 14.1366 18.8 13.8799 18.66C13.6279 18.5247 13.4436 18.3753 13.3269 18.212C13.2149 18.0533 13.1589 17.9017 13.1589 17.757C13.1589 17.6077 13.2079 17.484 13.3059 17.386C13.4039 17.288 13.5346 17.2133 13.6979 17.162C13.8613 17.1107 14.0433 17.085 14.2439 17.085C14.3886 17.085 14.5543 17.106 14.7409 17.148C14.9323 17.1947 15.1399 17.2437 15.3639 17.295C15.5879 17.351 15.8306 17.3977 16.0919 17.435C16.3579 17.4723 16.6449 17.4817 16.9529 17.463C17.2609 17.4583 17.5223 17.3977 17.7369 17.281C17.9563 17.169 18.1336 17.022 18.2689 16.84C18.4043 16.6627 18.5023 16.4667 18.5629 16.252C18.6236 16.0373 18.6539 15.825 18.6539 15.615C18.6539 15.573 18.6493 15.5357 18.6399 15.503C18.6353 15.4703 18.6236 15.4447 18.6049 15.426C18.5909 15.4073 18.5699 15.398 18.5419 15.398C18.4906 15.398 18.4113 15.4377 18.3039 15.517C18.1966 15.5917 18.0543 15.6803 17.8769 15.783C17.6996 15.881 17.4826 15.9673 17.2259 16.042C16.9693 16.1213 16.6706 16.161 16.3299 16.161C15.5926 16.161 14.9719 16.0397 14.4679 15.797C13.9686 15.5543 13.5906 15.202 13.3339 14.74C13.0819 14.2733 12.9559 13.7087 12.9559 13.046C12.9559 12.4627 13.0726 11.9587 13.3059 11.534C13.5393 11.1047 13.8566 10.75 14.2579 10.47C14.6593 10.19 15.1143 9.98233 15.6229 9.847C16.1316 9.71167 16.6613 9.644 17.2119 9.644C17.8093 9.644 18.3483 9.735 18.8289 9.917C19.3096 10.099 19.7203 10.365 20.0609 10.715C20.4016 11.0603 20.6629 11.4827 20.8449 11.982C21.0269 12.4813 21.1179 13.053 21.1179 13.697C21.1179 14.6163 21.0199 15.4167 20.8239 16.098C20.6279 16.7793 20.3363 17.344 19.9489 17.792C19.5616 18.24 19.0763 18.5737 18.4929 18.793C17.9143 19.017 17.2399 19.129 16.4699 19.129ZM16.9109 14.733C17.2003 14.733 17.4709 14.691 17.7229 14.607C17.9749 14.5183 18.1943 14.3923 18.3809 14.229C18.5676 14.0657 18.7123 13.8743 18.8149 13.655C18.9223 13.431 18.9759 13.1837 18.9759 12.913C18.9759 12.5863 18.9059 12.297 18.7659 12.045C18.6259 11.7883 18.4206 11.5877 18.1499 11.443C17.8839 11.2937 17.5573 11.219 17.1699 11.219C16.9319 11.219 16.6893 11.2493 16.4419 11.31C16.1946 11.3707 15.9659 11.471 15.7559 11.611C15.5459 11.751 15.3756 11.94 15.2449 12.178C15.1189 12.4113 15.0559 12.703 15.0559 13.053C15.0559 13.389 15.1306 13.683 15.2799 13.935C15.4339 14.187 15.6486 14.383 15.9239 14.523C16.2039 14.663 16.5329 14.733 16.9109 14.733Z" fill="#888888"/>
</svg>
