<svg width="24" height="24" viewBox="0 0 24 24" fill="none" xmlns="http://www.w3.org/2000/svg">
<path d="M3.40289 14.221L5.90712 9.23383L4.764 7.93121H10.9953L10.033 9.28168L12.2767 14.2104L13.675 15.5556H8.09234L9.25141 14.221L9.02279 13.6628H5.51367L5.26378 14.221L6.78971 15.5556H1.83973L3.40289 14.221ZM8.57617 12.5515L7.35861 9.55284L6.01345 12.5515H8.57617ZM13.675 16.6827C13.675 16.5268 13.7229 16.385 13.8186 16.2574C13.9143 16.1298 14.0437 16.0146 14.2067 15.9118C14.3698 15.809 14.5594 15.7186 14.7756 15.6406C14.9918 15.5626 15.2204 15.4971 15.4615 15.4439C15.2559 15.4014 15.0698 15.35 14.9032 15.2897C14.7366 15.2295 14.5931 15.1586 14.4725 15.077C14.3556 14.9955 14.2634 14.9034 14.1961 14.8006C14.1323 14.6978 14.1004 14.5843 14.1004 14.4603C14.1004 14.315 14.1447 14.1856 14.2333 14.0722C14.3254 13.9552 14.4424 13.8542 14.5842 13.7691C14.7295 13.684 14.8926 13.6149 15.0734 13.5617C15.2541 13.5086 15.4349 13.4714 15.6157 13.4501C15.4243 13.3615 15.2506 13.2569 15.0946 13.1364C14.9387 13.0159 14.804 12.883 14.6905 12.7376C14.5771 12.5888 14.4885 12.4275 14.4247 12.2538C14.3644 12.0766 14.3343 11.8852 14.3343 11.6796C14.3343 11.3109 14.4336 10.9884 14.6321 10.7119C14.8305 10.4319 15.0928 10.1997 15.4189 10.0154C15.745 9.83109 16.1155 9.69285 16.5302 9.60069C16.9449 9.50854 17.3702 9.46246 17.8062 9.46246C18.2067 9.46246 18.5984 9.50145 18.9812 9.57943C19.3676 9.65741 19.7185 9.77615 20.034 9.93565C20.073 9.73007 20.1474 9.55284 20.2573 9.40397C20.3672 9.2551 20.4965 9.13281 20.6454 9.03711C20.7978 8.94141 20.9626 8.87051 21.1399 8.82444C21.3206 8.77836 21.4996 8.75532 21.6769 8.75532C21.9037 8.75532 22.1075 8.78013 22.2883 8.82975C22.4691 8.87938 22.6233 8.95558 22.7509 9.05838C22.8785 9.15762 22.9759 9.28346 23.0433 9.43587C23.1142 9.58829 23.1496 9.76552 23.1496 9.96756C23.1496 10.042 23.1425 10.1217 23.1284 10.2068C23.1142 10.2883 23.0911 10.3752 23.0592 10.4673L21.7035 10.7757C21.7141 10.7013 21.7194 10.6304 21.7194 10.563C21.7194 10.4425 21.7035 10.3415 21.6715 10.26C21.6396 10.1749 21.5989 10.1058 21.5493 10.0526C21.4996 9.99946 21.4429 9.96224 21.3791 9.94097C21.3153 9.91616 21.2515 9.90375 21.1877 9.90375C21.0459 9.90375 20.9307 9.94629 20.8421 10.0314C20.7535 10.1129 20.6897 10.2157 20.6507 10.3397C20.8492 10.5134 21.0034 10.7119 21.1133 10.9352C21.2267 11.155 21.2834 11.4031 21.2834 11.6796C21.2834 12.0482 21.1824 12.3708 20.9804 12.6472C20.7819 12.9237 20.5178 13.1559 20.1882 13.3437C19.8621 13.5281 19.4899 13.6663 19.0716 13.7585C18.6534 13.8506 18.2262 13.8967 17.7903 13.8967C17.2338 13.8967 16.7074 13.824 16.2112 13.6787C16.1722 13.7071 16.1403 13.7372 16.1155 13.7691C16.0942 13.801 16.0836 13.8364 16.0836 13.8754C16.0836 13.964 16.1243 14.042 16.2058 14.1094C16.2909 14.1732 16.4362 14.2281 16.6418 14.2742C16.8474 14.3167 17.1257 14.3486 17.4766 14.3699C17.8275 14.3912 18.2688 14.4018 18.8005 14.4018C19.5306 14.4018 20.1421 14.4372 20.6348 14.5081C21.131 14.5755 21.5298 14.68 21.8311 14.8218C22.1323 14.9601 22.3468 15.1338 22.4744 15.3429C22.6055 15.552 22.6711 15.7966 22.6711 16.0766C22.6711 16.4452 22.5612 16.7554 22.3415 17.0071C22.1253 17.2623 21.8098 17.4696 21.3951 17.6291C20.9839 17.7886 20.4806 17.9038 19.8851 17.9747C19.2931 18.0456 18.6215 18.0811 17.87 18.0811C17.232 18.0811 16.6542 18.0527 16.1367 17.996C15.6228 17.9393 15.1832 17.8524 14.8181 17.7355C14.4531 17.622 14.1713 17.4767 13.9728 17.2995C13.7743 17.1258 13.675 16.9202 13.675 16.6827ZM16.5993 11.6796C16.5993 11.8887 16.6312 12.0695 16.695 12.2219C16.7588 12.3743 16.8456 12.5001 16.9555 12.5994C17.0654 12.6986 17.193 12.7713 17.3383 12.8174C17.4872 12.8635 17.6432 12.8865 17.8062 12.8865C17.9693 12.8865 18.1234 12.8617 18.2688 12.8121C18.4176 12.7624 18.547 12.688 18.6569 12.5888C18.7668 12.4895 18.8536 12.3655 18.9174 12.2166C18.9812 12.0642 19.0131 11.8852 19.0131 11.6796C19.0131 11.4669 18.983 11.2826 18.9227 11.1266C18.8625 10.9707 18.7774 10.8413 18.6675 10.7385C18.5612 10.6357 18.4336 10.5595 18.2847 10.5099C18.1394 10.4602 17.9799 10.4354 17.8062 10.4354C17.6432 10.4354 17.4872 10.4602 17.3383 10.5099C17.193 10.5595 17.0654 10.6357 16.9555 10.7385C16.8456 10.8413 16.7588 10.9707 16.695 11.1266C16.6312 11.2826 16.5993 11.4669 16.5993 11.6796ZM16.2803 16.2308C16.2803 16.3513 16.3033 16.4647 16.3494 16.5711C16.399 16.6774 16.4876 16.7696 16.6152 16.8475C16.7428 16.9255 16.9165 16.9858 17.1363 17.0283C17.3596 17.0744 17.6467 17.0974 17.9976 17.0974C18.2599 17.0974 18.5258 17.0886 18.7951 17.0709C19.0681 17.0567 19.3144 17.0248 19.5342 16.9752C19.7539 16.9291 19.9329 16.86 20.0712 16.7678C20.2094 16.6792 20.2785 16.5604 20.2785 16.4116C20.2785 16.2627 20.2378 16.1369 20.1563 16.0341C20.0747 15.9313 19.9276 15.848 19.715 15.7842C19.5058 15.7239 19.2205 15.6796 18.8589 15.6513C18.4974 15.6229 18.0366 15.6087 17.4766 15.6087C17.3419 15.6087 17.2072 15.607 17.0725 15.6034C16.9413 15.5999 16.812 15.5945 16.6844 15.5875C16.5603 15.6619 16.461 15.7541 16.3866 15.8639C16.3157 15.9738 16.2803 16.0961 16.2803 16.2308Z" fill="#888888"/>
</svg>
