<svg width="24" height="24" viewBox="0 0 24 24" fill="none" xmlns="http://www.w3.org/2000/svg">
<path d="M6.2373 11.8711H9.46387L8.54785 9.06836C8.48405 8.86784 8.41113 8.64453 8.3291 8.39844C8.25618 8.15234 8.17415 7.88346 8.08301 7.5918C8.00098 7.29102 7.93717 7.06771 7.8916 6.92188H7.80957C7.78223 7.01302 7.56348 7.72852 7.15332 9.06836L6.2373 11.8711ZM2.95605 16L6.86621 5.18555H8.84863L12.7451 16H10.8311L9.94238 13.3203H5.75879L4.87012 16H2.95605ZM14.9189 11.9121C14.9189 12.7142 15.0739 13.3385 15.3838 13.7852C15.7028 14.2318 16.1221 14.4551 16.6416 14.4551C17.152 14.4551 17.5622 14.2363 17.8721 13.7988C18.182 13.3613 18.3369 12.7279 18.3369 11.8984C18.3369 11.0872 18.182 10.4583 17.8721 10.0117C17.5622 9.5651 17.1566 9.3418 16.6553 9.3418C16.1266 9.3418 15.7028 9.57422 15.3838 10.0391C15.0739 10.5039 14.9189 11.1283 14.9189 11.9121ZM13.1553 11.9258C13.1553 10.6953 13.4606 9.71094 14.0713 8.97266C14.682 8.23438 15.4658 7.86523 16.4229 7.86523C16.9059 7.86523 17.3115 7.98828 17.6396 8.23438C17.9769 8.47135 18.2139 8.73568 18.3506 9.02734V8.11133H20.0732V14.9062C20.0732 16.3919 19.7816 17.4902 19.1982 18.2012C18.624 18.9212 17.7354 19.2812 16.5322 19.2812C15.2106 19.2812 14.1852 18.7708 13.4561 17.75L14.6045 16.957C15.1331 17.5768 15.7848 17.8867 16.5596 17.8867C17.0609 17.8867 17.4756 17.6953 17.8037 17.3125C18.1318 16.9297 18.3096 16.4284 18.3369 15.8086C18.3551 15.444 18.3643 15.1432 18.3643 14.9062C18.1911 15.1979 17.9313 15.444 17.585 15.6445C17.2386 15.8359 16.8695 15.9316 16.4775 15.9316C15.484 15.9316 14.682 15.5671 14.0713 14.8379C13.4606 14.0996 13.1553 13.1289 13.1553 11.9258Z" fill="#333333"/>
</svg>
