<svg width="24" height="24" viewBox="0 0 24 24" fill="none" xmlns="http://www.w3.org/2000/svg">
<path d="M3.52382 16.098C3.83182 15.314 4.15849 14.4787 4.50382 13.592C4.84915 12.696 5.19449 11.8093 5.53982 10.932C5.89449 10.0453 6.23515 9.19133 6.56182 8.37C6.89782 7.53933 7.19649 6.79267 7.45782 6.13C7.61649 6.05533 7.78915 5.99933 7.97582 5.962C8.16249 5.92467 8.34915 5.906 8.53582 5.906L12.2458 15.944C12.1618 15.9907 12.0452 16.028 11.8958 16.056C11.7465 16.0933 11.5692 16.112 11.3638 16.112C11.3172 16.112 11.2705 16.112 11.2238 16.112C11.1865 16.112 11.1445 16.1073 11.0978 16.098L10.0058 13.13H5.52582C5.19915 14.1287 4.90982 15.0807 4.65782 15.986C4.57382 16.0327 4.46182 16.0653 4.32182 16.084C4.19115 16.112 4.05582 16.126 3.91582 16.126C3.83182 16.126 3.75715 16.1213 3.69182 16.112C3.62649 16.112 3.57049 16.1073 3.52382 16.098ZM7.75182 6.942C7.42515 7.79133 7.08915 8.68733 6.74382 9.63C6.40782 10.5633 6.07649 11.506 5.74982 12.458H9.76782L7.75182 6.942ZM16.4121 13.634C16.2721 13.634 16.1368 13.6293 16.0061 13.62C15.8848 13.6013 15.7588 13.5827 15.6281 13.564C15.3855 13.6573 15.1895 13.7787 15.0401 13.928C14.8908 14.068 14.8161 14.2267 14.8161 14.404C14.8161 14.6747 14.9561 14.8613 15.2361 14.964C15.5161 15.0667 15.9268 15.132 16.4681 15.16L17.9381 15.23C18.3768 15.2487 18.7455 15.3187 19.0441 15.44C19.3521 15.5613 19.5995 15.7153 19.7861 15.902C19.9728 16.0793 20.1081 16.28 20.1921 16.504C20.2761 16.728 20.3181 16.952 20.3181 17.176C20.3181 17.5587 20.2201 17.9087 20.0241 18.226C19.8281 18.5433 19.5528 18.814 19.1981 19.038C18.8528 19.262 18.4375 19.4347 17.9521 19.556C17.4668 19.6867 16.9348 19.752 16.3561 19.752C15.9175 19.752 15.5161 19.7147 15.1521 19.64C14.7881 19.5653 14.4708 19.4487 14.2001 19.29C13.9388 19.1407 13.7335 18.954 13.5841 18.73C13.4348 18.5153 13.3601 18.2587 13.3601 17.96C13.3601 17.7267 13.4021 17.5213 13.4861 17.344C13.5795 17.1667 13.6961 17.0127 13.8361 16.882C13.9855 16.7513 14.1488 16.6393 14.3261 16.546C14.5035 16.462 14.6808 16.3967 14.8581 16.35C14.9048 16.3687 14.9421 16.406 14.9701 16.462C14.9981 16.518 15.0168 16.5693 15.0261 16.616C14.8581 16.7093 14.7135 16.8353 14.5921 16.994C14.4708 17.1527 14.4101 17.3767 14.4101 17.666C14.4101 17.9087 14.4708 18.1187 14.5921 18.296C14.7228 18.4827 14.9001 18.6367 15.1241 18.758C15.3481 18.8793 15.6141 18.968 15.9221 19.024C16.2395 19.08 16.5848 19.108 16.9581 19.108C17.7515 19.108 18.3441 18.968 18.7361 18.688C19.1375 18.408 19.3381 18.058 19.3381 17.638C19.3381 17.218 19.1888 16.8773 18.8901 16.616C18.5915 16.3547 18.0735 16.2007 17.3361 16.154L15.8801 16.07C15.1801 16.0233 14.6668 15.9067 14.3401 15.72C14.0135 15.524 13.8501 15.23 13.8501 14.838C13.8501 14.67 13.8828 14.5113 13.9481 14.362C14.0228 14.2127 14.1161 14.0773 14.2281 13.956C14.3495 13.8347 14.4801 13.7273 14.6201 13.634C14.7695 13.5313 14.9141 13.4473 15.0541 13.382C14.6435 13.2047 14.3215 12.9433 14.0881 12.598C13.8548 12.2433 13.7381 11.814 13.7381 11.31C13.7381 10.9273 13.8175 10.568 13.9761 10.232C14.1441 9.896 14.3728 9.60667 14.6621 9.364C14.9515 9.112 15.2875 8.916 15.6701 8.776C16.0621 8.62667 16.4821 8.552 16.9301 8.552C17.0888 8.552 17.2381 8.56133 17.3781 8.58C17.5181 8.59867 17.6535 8.622 17.7841 8.65C17.8308 8.65933 17.8775 8.664 17.9241 8.664C17.9801 8.664 18.0455 8.664 18.1201 8.664C18.5308 8.664 18.8108 8.59867 18.9601 8.468C19.1188 8.328 19.1981 8.15533 19.1981 7.95C19.1981 7.82867 19.1748 7.726 19.1281 7.642C19.0815 7.54867 19.0208 7.46933 18.9461 7.404C19.2355 7.13333 19.5808 6.998 19.9821 6.998C20.0661 7.07267 20.1361 7.17533 20.1921 7.306C20.2481 7.42733 20.2761 7.56733 20.2761 7.726C20.2761 8.118 20.1175 8.42133 19.8001 8.636C19.4921 8.84133 19.0861 8.95333 18.5821 8.972C18.9368 9.20533 19.1888 9.49933 19.3381 9.854C19.4968 10.2087 19.5761 10.5633 19.5761 10.918C19.5761 11.3287 19.4921 11.702 19.3241 12.038C19.1561 12.3647 18.9275 12.6493 18.6381 12.892C18.3581 13.1253 18.0221 13.3073 17.6301 13.438C17.2475 13.5687 16.8415 13.634 16.4121 13.634ZM16.5801 9.112C16.3468 9.112 16.1275 9.154 15.9221 9.238C15.7261 9.31267 15.5488 9.42933 15.3901 9.588C15.2408 9.73733 15.1195 9.924 15.0261 10.148C14.9421 10.372 14.9001 10.6333 14.9001 10.932C14.9001 11.268 14.9468 11.5713 15.0401 11.842C15.1335 12.1033 15.2595 12.3273 15.4181 12.514C15.5861 12.6913 15.7821 12.8313 16.0061 12.934C16.2301 13.0273 16.4681 13.074 16.7201 13.074C16.9535 13.074 17.1728 13.0413 17.3781 12.976C17.5835 12.9107 17.7608 12.808 17.9101 12.668C18.0688 12.528 18.1901 12.346 18.2741 12.122C18.3675 11.898 18.4141 11.6273 18.4141 11.31C18.4141 11.0207 18.3721 10.7453 18.2881 10.484C18.2135 10.2227 18.0968 9.98933 17.9381 9.784C17.7888 9.57867 17.5975 9.41533 17.3641 9.294C17.1401 9.17267 16.8788 9.112 16.5801 9.112Z" fill="#333333"/>
</svg>
