<svg width="24" height="24" viewBox="0 0 24 24" fill="none" xmlns="http://www.w3.org/2000/svg">
<g clip-path="url(#clip0_201_2990)">
<path d="M11.2656 14.7314C11.2656 14.9919 11.1273 15.1221 10.8506 15.1221C10.5218 15.1221 10.0303 15.1009 9.37598 15.0586C8.72168 15.0195 8.23014 15 7.90137 15C7.55306 15 7.02897 15.013 6.3291 15.0391C5.62923 15.0684 5.10514 15.083 4.75684 15.083C4.41504 15.083 4.24414 15.0016 4.24414 14.8389C4.24414 14.7021 4.35156 14.6077 4.56641 14.5557C4.76497 14.5166 4.96354 14.4775 5.16211 14.4385C5.37695 14.3766 5.486 14.2611 5.48926 14.0918C5.49251 13.7663 5.29232 13.5563 4.88867 13.4619C4.69987 13.4163 4.34668 13.3952 3.8291 13.3984L2.84277 13.4082C2.53353 13.4115 2.37891 13.6035 2.37891 13.9844C2.37891 14.0755 2.39193 14.2139 2.41797 14.3994C2.44727 14.585 2.46191 14.7233 2.46191 14.8145C2.46191 14.9707 2.32845 15.0488 2.06152 15.0488C1.90202 15.0488 1.5472 14.8893 0.99707 14.5703C0.430664 14.2415 0.147461 14.0153 0.147461 13.8916C0.147461 13.68 0.241862 13.5742 0.430664 13.5742C0.554362 13.5742 0.673177 13.6068 0.787109 13.6719C0.845703 13.7044 0.930339 13.7679 1.04102 13.8623C1.12565 13.9307 1.18424 13.9648 1.2168 13.9648C1.43164 13.9648 1.63021 13.737 1.8125 13.2812C2.17057 12.3958 2.75326 11.3298 3.56055 10.083C3.77865 9.74772 4.17741 9.23828 4.75684 8.55469C5.44043 7.75065 5.86361 7.34863 6.02637 7.34863C6.23145 7.34863 6.62858 7.75391 7.21777 8.56445C7.69954 9.22526 8.04297 9.75098 8.24805 10.1416C8.52474 10.6755 8.84212 11.4095 9.2002 12.3438C9.30762 12.6986 9.41667 13.055 9.52734 13.4131C9.6901 13.9209 9.84473 14.2269 9.99121 14.3311C10.0368 14.3636 10.2793 14.4027 10.7188 14.4482C11.0833 14.4873 11.2656 14.5817 11.2656 14.7314ZM4.66895 12.0801C4.25228 11.4583 3.97884 11.1475 3.84863 11.1475C3.72493 11.1475 3.53451 11.3639 3.27734 11.7969C3.02669 12.2168 2.90137 12.5 2.90137 12.6465C2.90137 12.7441 3.09831 12.7979 3.49219 12.8076C3.72982 12.8011 3.96908 12.7962 4.20996 12.793C4.29134 12.7995 4.37109 12.806 4.44922 12.8125C4.60221 12.8223 4.72266 12.8223 4.81055 12.8125C4.93099 12.7962 4.98958 12.762 4.98633 12.71C4.97656 12.5895 4.87077 12.3796 4.66895 12.0801ZM22.877 10.708C22.877 10.8187 22.8265 10.9049 22.7256 10.9668C22.5726 11.0645 22.4766 11.1361 22.4375 11.1816C22.3366 11.3118 22.2861 11.5137 22.2861 11.7871C22.2861 12.0898 22.3431 12.5374 22.457 13.1299C22.571 13.7223 22.6279 14.1699 22.6279 14.4727C22.6279 14.8112 22.5205 14.9805 22.3057 14.9805C22.1755 14.9805 22.0794 14.93 22.0176 14.8291C21.9883 14.7803 21.9557 14.6745 21.9199 14.5117C21.8776 14.3359 21.7376 14.2529 21.5 14.2627C21.1387 14.4157 20.7139 14.5915 20.2256 14.79C19.4476 15.0537 18.7168 15.1855 18.0332 15.1855C16.3926 15.1855 15.1702 14.8991 14.3662 14.3262C13.4385 13.6654 12.9746 12.5732 12.9746 11.0498C12.9746 9.92676 13.458 9.03158 14.4248 8.36426C15.2777 7.77832 16.2835 7.48535 17.4424 7.48535C18.6468 7.48535 19.6852 7.66764 20.5576 8.03223C20.626 7.89876 20.6943 7.7653 20.7627 7.63184C20.8604 7.49186 20.9906 7.42188 21.1533 7.42188C21.3844 7.42188 21.5 7.51628 21.5 7.70508C21.5 7.8125 21.3454 8.26497 21.0361 9.0625C20.7269 9.85677 20.5723 10.3532 20.5723 10.5518C20.5723 10.6722 20.6292 10.7324 20.7432 10.7324C20.9482 10.7324 21.2428 10.6673 21.627 10.5371C22.0111 10.4036 22.2992 10.3369 22.4912 10.3369C22.7484 10.3369 22.877 10.4606 22.877 10.708ZM19.8936 10.6104C19.8936 10.1709 19.7389 9.68262 19.4297 9.14551C19.0846 8.54329 18.7103 8.24219 18.3066 8.24219C18.0755 8.24219 17.877 8.57747 17.7109 9.24805C17.584 9.77539 17.5205 10.2165 17.5205 10.5713C17.5205 10.6429 17.5286 10.7585 17.5449 10.918C17.5612 11.0742 17.5693 11.1865 17.5693 11.2549C17.5824 11.2581 17.6035 11.2663 17.6328 11.2793C17.6621 11.2923 17.6865 11.2988 17.7061 11.2988C17.9827 11.2988 18.3896 11.2337 18.9268 11.1035C19.5713 10.944 19.8936 10.7796 19.8936 10.6104ZM19.0879 13.5596C19.0879 13.4033 19.0146 13.1022 18.8682 12.6562C18.7152 12.1842 18.5898 11.9157 18.4922 11.8506C18.3978 11.7822 18.2432 11.748 18.0283 11.748C17.7354 11.748 17.5889 11.748 17.5889 11.748C17.5661 11.8359 17.5547 11.8978 17.5547 11.9336C17.5547 12.3535 17.6328 12.8223 17.7891 13.3398C17.9909 14.0104 18.2464 14.3457 18.5557 14.3457C18.9105 14.3457 19.0879 14.0837 19.0879 13.5596Z" fill="#333333"/>
</g>
<defs>
<clipPath id="clip0_201_2990">
<rect width="24" height="24" fill="white"/>
</clipPath>
</defs>
</svg>
