<svg width="24" height="24" viewBox="0 0 24 24" fill="none" xmlns="http://www.w3.org/2000/svg">
<path d="M10.5588 13.758H6.58282L5.42082 16.81C5.41149 16.8567 5.37882 16.88 5.32282 16.88H4.51082C4.44549 16.88 4.42682 16.8473 4.45482 16.782L8.17882 7.22C8.20682 7.17333 8.23949 7.15 8.27682 7.15H8.87882C8.93482 7.15 8.96749 7.17333 8.97682 7.22L12.7008 16.782C12.7195 16.8473 12.7008 16.88 12.6448 16.88H11.8328C11.7768 16.88 11.7442 16.8567 11.7348 16.81L10.5588 13.758ZM9.00482 9.698L8.57082 8.41L8.12282 9.698L6.87682 12.96H10.2508L9.00482 9.698ZM14.4179 17.16C14.4739 17.1787 14.4879 17.216 14.4599 17.272C14.4412 17.328 14.4272 17.3933 14.4179 17.468C14.4086 17.5427 14.4039 17.6173 14.4039 17.692C14.4039 18.0467 14.5672 18.3267 14.8939 18.532C15.2206 18.7373 15.7386 18.84 16.4479 18.84C17.0639 18.84 17.5679 18.7187 17.9599 18.476C18.3612 18.2333 18.5619 17.9113 18.5619 17.51C18.5619 17.2113 18.4266 16.978 18.1559 16.81C17.8946 16.642 17.5212 16.5627 17.0359 16.572L15.5939 16.586C15.1739 16.5953 14.8332 16.4833 14.5719 16.25C14.3106 16.0167 14.1799 15.7553 14.1799 15.466C14.1799 15.27 14.2219 15.0647 14.3059 14.85C14.3899 14.6353 14.5159 14.4393 14.6839 14.262C14.3572 14.066 14.1052 13.814 13.9279 13.506C13.7506 13.1887 13.6666 12.834 13.6759 12.442C13.6852 12.0033 13.8019 11.6207 14.0259 11.294C14.2499 10.958 14.5532 10.6967 14.9359 10.51C15.3279 10.314 15.7759 10.2207 16.2799 10.23C16.7186 10.23 17.1152 10.314 17.4699 10.482L19.4019 10.3C19.4579 10.3 19.4859 10.328 19.4859 10.384V10.986C19.4859 11.042 19.4579 11.07 19.4019 11.07H18.2399C18.5479 11.4433 18.7019 11.8867 18.7019 12.4C18.7019 12.8293 18.5899 13.212 18.3659 13.548C18.1512 13.884 17.8526 14.15 17.4699 14.346C17.0872 14.5327 16.6439 14.626 16.1399 14.626C15.7946 14.626 15.4726 14.5793 15.1739 14.486C15.1086 14.598 15.0526 14.724 15.0059 14.864C14.9686 14.9947 14.9499 15.116 14.9499 15.228C14.9499 15.3773 15.0012 15.5127 15.1039 15.634C15.2066 15.7553 15.3746 15.816 15.6079 15.816L17.2599 15.802C17.9506 15.7927 18.4872 15.9467 18.8699 16.264C19.2619 16.572 19.4532 16.9733 19.4439 17.468C19.4439 17.944 19.3039 18.3407 19.0239 18.658C18.7532 18.9753 18.3892 19.2133 17.9319 19.372C17.4839 19.5307 16.9799 19.61 16.4199 19.61C15.4866 19.6007 14.7726 19.4373 14.2779 19.12C13.7832 18.812 13.5359 18.3173 13.5359 17.636C13.5359 17.4213 13.5872 17.202 13.6899 16.978C13.7179 16.9313 13.7552 16.9173 13.8019 16.936L14.4179 17.16ZM16.1399 13.884C16.6532 13.884 17.0686 13.7487 17.3859 13.478C17.7032 13.2073 17.8619 12.848 17.8619 12.4C17.8619 11.9613 17.7079 11.616 17.3999 11.364C17.1012 11.1027 16.7092 10.972 16.2239 10.972C15.7106 10.972 15.2952 11.112 14.9779 11.392C14.6699 11.6627 14.5159 12.0313 14.5159 12.498C14.5159 12.918 14.6652 13.254 14.9639 13.506C15.2626 13.758 15.6546 13.884 16.1399 13.884Z" fill="#888888"/>
</svg>
