<svg width="24" height="24" viewBox="0 0 24 24" fill="none" xmlns="http://www.w3.org/2000/svg">
<path d="M4.65 16.105C4.57533 16.105 4.49367 16.1027 4.405 16.098C4.321 16.098 4.23467 16.0933 4.146 16.084C4.062 16.0793 3.985 16.0723 3.915 16.063C3.84033 16.0583 3.77967 16.0513 3.733 16.042C3.82633 15.8273 3.97333 15.5053 4.174 15.076C4.37467 14.6467 4.61033 14.1497 4.881 13.585C5.15167 13.0203 5.43867 12.4253 5.742 11.8C6.04533 11.1747 6.34867 10.554 6.652 9.938C6.95533 9.322 7.24 8.748 7.506 8.216C7.77667 7.684 8.00767 7.236 8.199 6.872C8.311 6.84867 8.479 6.823 8.703 6.795C8.927 6.767 9.179 6.74367 9.459 6.725C9.739 6.70167 10.0167 6.69 10.292 6.69C10.432 6.69 10.579 6.69467 10.733 6.704C10.8917 6.70867 11.0317 6.72033 11.153 6.739C11.1343 7.14967 11.0877 7.65367 11.013 8.251C10.943 8.84367 10.845 9.52967 10.719 10.309C10.5977 11.0837 10.4483 11.947 10.271 12.899C10.0937 13.851 9.893 14.8917 9.669 16.021C9.585 16.0397 9.48933 16.0537 9.382 16.063C9.27933 16.077 9.17433 16.0863 9.067 16.091C8.95967 16.1003 8.857 16.105 8.759 16.105C8.78233 15.9697 8.81967 15.776 8.871 15.524C8.92233 15.272 8.98067 14.9897 9.046 14.677C9.11133 14.3597 9.17433 14.0447 9.235 13.732C9.30033 13.4193 9.35867 13.1347 9.41 12.878C9.466 12.6213 9.51033 12.4253 9.543 12.29C9.39367 12.29 9.19533 12.297 8.948 12.311C8.70067 12.3203 8.43467 12.3367 8.15 12.36C7.86533 12.3787 7.59 12.3997 7.324 12.423C7.06267 12.4463 6.83633 12.4673 6.645 12.486C6.45833 12.5047 6.337 12.5187 6.281 12.528C6.06167 12.9807 5.84467 13.438 5.63 13.9C5.42 14.3573 5.22867 14.7797 5.056 15.167C4.88333 15.5543 4.748 15.867 4.65 16.105ZM6.617 11.8C6.841 11.7533 7.135 11.7137 7.499 11.681C7.863 11.6437 8.24333 11.6133 8.64 11.59C9.03667 11.562 9.39367 11.541 9.711 11.527C9.74367 11.3543 9.79267 11.0953 9.858 10.75C9.92333 10.4 9.991 10.0173 10.061 9.602C10.131 9.18667 10.194 8.78767 10.25 8.405C10.3107 8.02233 10.3503 7.70967 10.369 7.467C10.243 7.467 10.0633 7.474 9.83 7.488C9.59667 7.502 9.37033 7.52067 9.151 7.544C8.93633 7.56267 8.78 7.57667 8.682 7.586C8.626 7.698 8.535 7.87767 8.409 8.125C8.283 8.36767 8.129 8.671 7.947 9.035C7.76967 9.399 7.56667 9.81433 7.338 10.281C7.114 10.7477 6.87367 11.254 6.617 11.8ZM15.1677 14.502C14.5097 14.502 13.9894 14.3923 13.6067 14.173C13.2241 13.949 12.9511 13.662 12.7877 13.312C12.6291 12.962 12.5497 12.598 12.5497 12.22C12.5497 11.52 12.7271 10.8993 13.0817 10.358C13.4364 9.812 13.9077 9.385 14.4957 9.077C15.0884 8.76433 15.7417 8.608 16.4557 8.608C17.2911 8.608 17.9234 8.80633 18.3527 9.203C18.7821 9.59967 18.9967 10.134 18.9967 10.806C18.9967 11.5433 18.8287 12.1897 18.4927 12.745C18.1614 13.3003 17.7064 13.732 17.1277 14.04C16.5537 14.348 15.9004 14.502 15.1677 14.502ZM13.5087 19.493C12.9021 19.493 12.3631 19.43 11.8917 19.304C11.4204 19.178 11.0517 18.9843 10.7857 18.723C10.5151 18.4617 10.3797 18.128 10.3797 17.722C10.3797 17.3533 10.4707 17.0243 10.6527 16.735C10.8301 16.4503 11.0681 16.2077 11.3667 16.007C11.6701 15.811 12.0037 15.6593 12.3677 15.552C12.7364 15.4447 13.1121 15.3887 13.4947 15.384C13.7841 15.384 14.1037 15.384 14.4537 15.384C14.8037 15.3793 15.1281 15.377 15.4267 15.377C16.0801 15.377 16.6004 15.4983 16.9877 15.741C17.3751 15.979 17.5687 16.3407 17.5687 16.826C17.5687 17.316 17.4614 17.7313 17.2467 18.072C17.0367 18.4173 16.7451 18.6927 16.3717 18.898C15.9984 19.108 15.5667 19.2597 15.0767 19.353C14.5867 19.4463 14.0641 19.493 13.5087 19.493ZM13.6627 18.856C14.1714 18.856 14.6544 18.7977 15.1117 18.681C15.5737 18.569 15.9494 18.38 16.2387 18.114C16.5281 17.848 16.6727 17.4863 16.6727 17.029C16.6727 16.763 16.5981 16.56 16.4487 16.42C16.3041 16.28 16.1221 16.1843 15.9027 16.133C15.6881 16.0817 15.4664 16.056 15.2377 16.056C14.9111 16.056 14.5844 16.056 14.2577 16.056C13.9357 16.056 13.6207 16.056 13.3127 16.056C13.0001 16.056 12.6874 16.1143 12.3747 16.231C12.0621 16.3523 11.8031 16.525 11.5977 16.749C11.3924 16.9777 11.2897 17.253 11.2897 17.575C11.2897 17.883 11.3971 18.1303 11.6117 18.317C11.8264 18.5083 12.1111 18.646 12.4657 18.73C12.8251 18.814 13.2241 18.856 13.6627 18.856ZM12.8787 15.874C12.5007 15.8133 12.2207 15.6757 12.0387 15.461C11.8614 15.2417 11.7727 15.0177 11.7727 14.789C11.7727 14.5557 11.8357 14.348 11.9617 14.166C12.0924 13.984 12.2627 13.8347 12.4727 13.718C12.6827 13.5967 12.9067 13.515 13.1447 13.473L13.5787 13.865C13.2801 13.9443 13.0397 14.0563 12.8577 14.201C12.6804 14.3457 12.5917 14.5137 12.5917 14.705C12.5917 14.8823 12.6664 15.041 12.8157 15.181C12.9697 15.3163 13.1961 15.384 13.4947 15.384L12.8787 15.874ZM15.1607 13.774C15.7441 13.774 16.2621 13.6573 16.7147 13.424C17.1721 13.1907 17.5291 12.864 17.7857 12.444C18.0471 12.024 18.1777 11.5363 18.1777 10.981C18.1777 10.5097 18.0331 10.1223 17.7437 9.819C17.4591 9.511 17.0321 9.357 16.4627 9.357C15.8981 9.357 15.3871 9.47133 14.9297 9.7C14.4724 9.924 14.1107 10.2437 13.8447 10.659C13.5787 11.0697 13.4457 11.555 13.4457 12.115C13.4457 12.591 13.5904 12.9877 13.8797 13.305C14.1737 13.6177 14.6007 13.774 15.1607 13.774ZM18.4437 9.973L18.0167 9.567C18.1474 9.385 18.3084 9.196 18.4997 9C18.6957 8.804 18.8941 8.61967 19.0947 8.447C19.2954 8.27433 19.4727 8.132 19.6267 8.02C19.6547 8.06667 19.6967 8.132 19.7527 8.216C19.8087 8.29533 19.8671 8.37467 19.9277 8.454C19.9931 8.52867 20.0421 8.587 20.0747 8.629C20.0094 8.671 19.9021 8.75033 19.7527 8.867C19.6081 8.979 19.4471 9.10733 19.2697 9.252C19.0924 9.392 18.9267 9.52967 18.7727 9.665C18.6234 9.79567 18.5137 9.89833 18.4437 9.973Z" fill="#888888"/>
</svg>
