<svg width="24" height="24" viewBox="0 0 24 24" fill="none" xmlns="http://www.w3.org/2000/svg">
<path d="M4.79848 16.105C4.68182 16.105 4.52082 16.1003 4.31548 16.091C4.11482 16.0863 3.89548 16.0793 3.65748 16.07C3.41948 16.0653 3.19082 16.0583 2.97148 16.049C2.75215 16.0397 2.57015 16.0303 2.42548 16.021C2.55148 15.7317 2.72182 15.363 2.93648 14.915C3.14648 14.467 3.38448 13.97 3.65048 13.424C3.92115 12.878 4.20348 12.3087 4.49748 11.716C4.79615 11.1187 5.09482 10.526 5.39348 9.938C5.69215 9.35 5.97915 8.79233 6.25448 8.265C6.53448 7.73767 6.78648 7.26867 7.01048 6.858C7.33715 6.816 7.65915 6.781 7.97648 6.753C8.29848 6.72033 8.61348 6.69467 8.92148 6.676C9.22948 6.65733 9.53048 6.648 9.82448 6.648C10.0718 6.648 10.3145 6.655 10.5525 6.669C10.7952 6.683 11.0332 6.70633 11.2665 6.739C11.2478 7.14967 11.2152 7.621 11.1685 8.153C11.1218 8.685 11.0472 9.31267 10.9445 10.036C10.8465 10.7547 10.7158 11.6017 10.5525 12.577C10.3892 13.5477 10.1838 14.6793 9.93648 15.972C9.77782 15.9907 9.55148 16.0117 9.25748 16.035C8.96815 16.0583 8.66715 16.0747 8.35448 16.084C8.04182 16.098 7.76415 16.105 7.52148 16.105C7.54482 15.9743 7.57515 15.8227 7.61248 15.65C7.64982 15.4727 7.68948 15.286 7.73148 15.09C7.77815 14.894 7.82482 14.6957 7.87148 14.495C7.91815 14.2943 7.96248 14.1007 8.00448 13.914C8.05115 13.7273 8.09548 13.5547 8.13748 13.396C7.98815 13.4007 7.82715 13.4077 7.65448 13.417C7.48182 13.4217 7.30682 13.431 7.12948 13.445C6.95215 13.4543 6.78415 13.466 6.62548 13.48C6.46682 13.4893 6.32682 13.501 6.20548 13.515C6.08882 13.529 6.00248 13.5407 5.94648 13.55C5.79248 13.8673 5.64082 14.187 5.49148 14.509C5.34215 14.831 5.20682 15.132 5.08548 15.412C4.96882 15.6873 4.87315 15.9183 4.79848 16.105ZM6.75848 11.604C6.87048 11.5853 7.04315 11.5667 7.27648 11.548C7.50982 11.5247 7.75015 11.506 7.99748 11.492C8.24948 11.478 8.45248 11.4687 8.60648 11.464C8.62515 11.366 8.66482 11.1817 8.72548 10.911C8.78615 10.6357 8.85148 10.337 8.92148 10.015C8.99148 9.68833 9.05448 9.38967 9.11048 9.119C9.16648 8.84367 9.20148 8.65467 9.21548 8.552C9.14082 8.552 9.02648 8.55667 8.87248 8.566C8.72315 8.57533 8.57615 8.58467 8.43148 8.594C8.28682 8.60333 8.18648 8.61267 8.13048 8.622C8.06515 8.75733 7.97415 8.94633 7.85748 9.189C7.74548 9.427 7.62182 9.693 7.48648 9.987C7.35582 10.2763 7.22748 10.5633 7.10148 10.848C6.97548 11.128 6.86115 11.38 6.75848 11.604ZM15.4892 14.201C14.6446 14.201 13.9866 14.0913 13.5152 13.872C13.0486 13.6527 12.7219 13.368 12.5352 13.018C12.3486 12.6633 12.2552 12.2877 12.2552 11.891C12.2552 11.163 12.4466 10.5563 12.8292 10.071C13.2166 9.581 13.7299 9.21467 14.3692 8.972C15.0086 8.72933 15.7062 8.608 16.4622 8.608C17.4702 8.608 18.2052 8.80867 18.6672 9.21C19.1339 9.60667 19.3672 10.1457 19.3672 10.827C19.3672 11.541 19.1946 12.15 18.8492 12.654C18.5086 13.158 18.0466 13.543 17.4632 13.809C16.8799 14.0703 16.2219 14.201 15.4892 14.201ZM13.7672 19.493C13.0859 19.493 12.4862 19.43 11.9682 19.304C11.4502 19.1827 11.0489 18.9797 10.7642 18.695C10.4749 18.4103 10.3302 18.0253 10.3302 17.54C10.3302 17.12 10.4376 16.7467 10.6522 16.42C10.8669 16.098 11.1539 15.825 11.5132 15.601C11.8772 15.377 12.2809 15.202 12.7242 15.076C13.1722 14.9453 13.6272 14.866 14.0892 14.838C14.3739 14.8193 14.6609 14.8077 14.9502 14.803C15.2442 14.7937 15.6106 14.789 16.0492 14.789C16.7119 14.789 17.2299 14.929 17.6032 15.209C17.9766 15.4843 18.1632 15.902 18.1632 16.462C18.1632 17.0127 18.0466 17.4793 17.8132 17.862C17.5799 18.2493 17.2579 18.562 16.8472 18.8C16.4412 19.0427 15.9746 19.2177 15.4472 19.325C14.9199 19.437 14.3599 19.493 13.7672 19.493ZM14.0822 18.135C14.4089 18.135 14.7169 18.0953 15.0062 18.016C15.3002 17.9413 15.5382 17.82 15.7202 17.652C15.9069 17.484 16.0002 17.267 16.0002 17.001C16.0002 16.847 15.9559 16.7257 15.8672 16.637C15.7786 16.553 15.6619 16.4923 15.5172 16.455C15.3772 16.4177 15.2256 16.399 15.0622 16.399C14.8709 16.399 14.6562 16.399 14.4182 16.399C14.1802 16.399 13.9632 16.399 13.7672 16.399C13.5432 16.399 13.3379 16.434 13.1512 16.504C12.9692 16.574 12.8222 16.679 12.7102 16.819C12.5982 16.959 12.5422 17.134 12.5422 17.344C12.5422 17.5167 12.6052 17.6613 12.7312 17.778C12.8619 17.8993 13.0416 17.988 13.2702 18.044C13.5036 18.1047 13.7742 18.135 14.0822 18.135ZM13.0112 15.566C12.5072 15.454 12.1502 15.3023 11.9402 15.111C11.7302 14.9197 11.6252 14.712 11.6252 14.488C11.6252 14.2733 11.6859 14.0727 11.8072 13.886C11.9286 13.6947 12.0849 13.529 12.2762 13.389C12.4676 13.2443 12.6659 13.1463 12.8712 13.095L14.0892 13.802C13.8699 13.8673 13.6996 13.956 13.5782 14.068C13.4616 14.1753 13.4032 14.2873 13.4032 14.404C13.4032 14.516 13.4592 14.6163 13.5712 14.705C13.6832 14.7937 13.8559 14.838 14.0892 14.838L13.0112 15.566ZM15.6782 12.535C15.9816 12.535 16.2592 12.486 16.5112 12.388C16.7679 12.2853 16.9709 12.136 17.1202 11.94C17.2696 11.7393 17.3442 11.4897 17.3442 11.191C17.3442 10.897 17.2462 10.6637 17.0502 10.491C16.8542 10.3183 16.5976 10.232 16.2802 10.232C15.9862 10.232 15.7039 10.281 15.4332 10.379C15.1672 10.477 14.9479 10.6263 14.7752 10.827C14.6072 11.0277 14.5232 11.2867 14.5232 11.604C14.5232 11.898 14.6282 12.1267 14.8382 12.29C15.0482 12.4533 15.3282 12.535 15.6782 12.535ZM18.9892 10.372L18.0162 9.329C18.1189 9.147 18.2776 8.95333 18.4922 8.748C18.7069 8.538 18.9379 8.34433 19.1852 8.167C19.4372 7.985 19.6706 7.84733 19.8852 7.754C19.9272 7.852 19.9856 7.98733 20.0602 8.16C20.1396 8.328 20.2236 8.50067 20.3122 8.678C20.4009 8.85067 20.4756 8.99533 20.5362 9.112C20.4149 9.16333 20.2796 9.23333 20.1302 9.322C19.9856 9.41067 19.8409 9.511 19.6962 9.623C19.5516 9.735 19.4162 9.85633 19.2902 9.987C19.1642 10.113 19.0639 10.2413 18.9892 10.372Z" fill="#888888"/>
</svg>
