<svg width="24" height="24" viewBox="0 0 24 24" fill="none" xmlns="http://www.w3.org/2000/svg">
<path d="M5.05032 11.498C5.14365 11.33 5.26965 11.148 5.42832 10.952C5.59632 10.756 5.78299 10.56 5.98832 10.364C6.19365 10.168 6.41299 9.986 6.64632 9.818H7.17832C7.11299 9.986 7.06165 10.196 7.02432 10.448C6.98699 10.6907 6.95899 11.0267 6.94032 11.456C6.93099 11.8853 6.92632 12.4593 6.92632 13.178C6.92632 13.8967 6.92632 14.816 6.92632 15.936L7.96232 16.202L7.57032 16.958C7.42099 16.9767 7.23899 16.9953 7.02432 17.014C6.81899 17.042 6.61365 17.0653 6.40832 17.084C6.21232 17.112 6.03965 17.1307 5.89032 17.14C5.75032 17.1493 5.65699 17.154 5.61032 17.154C5.52632 17.126 5.44232 17.0747 5.35832 17C5.27432 16.916 5.19965 16.832 5.13432 16.748C5.07832 16.6547 5.04099 16.5847 5.02232 16.538C5.04099 16.1833 5.07365 15.838 5.12032 15.502C5.17632 15.1567 5.20432 14.7647 5.20432 14.326C5.20432 13.9807 5.18565 13.6493 5.14832 13.332C5.11099 13.0147 5.07832 12.7067 5.05032 12.408C5.03165 12.1 5.03165 11.7967 5.05032 11.498ZM7.68232 12.8L9.97832 12.702V13.682L7.68232 13.584V12.8ZM8.29832 9.79V15.404C8.29832 15.46 8.26565 15.5627 8.20032 15.712C8.14432 15.852 8.06499 16.0153 7.96232 16.202H7.54232V9.79H8.29832ZM4.63032 9.468L4.72832 8.11C5.29765 8.15667 5.89499 8.21267 6.52032 8.278C7.14565 8.334 7.74765 8.39933 8.32632 8.474C8.90499 8.53933 9.41832 8.6 9.86632 8.656C10.3143 8.712 10.641 8.768 10.8463 8.824C10.8743 8.824 10.9257 8.86133 11.0003 8.936C11.075 9.01067 11.1543 9.09467 11.2383 9.188C11.3223 9.28133 11.3923 9.37467 11.4483 9.468C11.5137 9.552 11.5463 9.608 11.5463 9.636V15.922L12.3163 16.188V16.958C12.1577 16.9767 11.971 17 11.7563 17.028C11.551 17.056 11.341 17.0793 11.1263 17.098C10.9117 17.126 10.7203 17.1447 10.5523 17.154C10.3937 17.1633 10.2957 17.1633 10.2583 17.154C10.1743 17.126 10.0903 17.07 10.0063 16.986C9.92232 16.902 9.84765 16.818 9.78232 16.734C9.72632 16.6407 9.68899 16.5753 9.67032 16.538V10.294L6.98232 9.93L6.49232 9.958L6.46432 9.874L4.63032 9.468ZM15.8183 19.562C15.6036 19.562 15.3423 19.5433 15.0343 19.506C14.7356 19.4687 14.437 19.422 14.1383 19.366C13.8396 19.31 13.5876 19.2587 13.3823 19.212L13.0603 17.924L14.7963 16.482C14.4976 16.4353 14.2176 16.3 13.9563 16.076C13.7043 15.852 13.499 15.5487 13.3403 15.166C13.191 14.7833 13.1163 14.3353 13.1163 13.822C13.1163 13.4953 13.149 13.1547 13.2143 12.8C13.2796 12.436 13.359 12.1467 13.4523 11.932C13.527 11.8293 13.667 11.6987 13.8723 11.54C14.087 11.3813 14.3156 11.218 14.5583 11.05C14.8103 10.882 15.039 10.742 15.2443 10.63C15.4496 10.518 15.599 10.462 15.6923 10.462C15.739 10.462 15.851 10.476 16.0283 10.504C16.2056 10.532 16.4156 10.5693 16.6583 10.616C16.901 10.6533 17.1436 10.6953 17.3863 10.742C17.629 10.7887 17.8343 10.826 18.0023 10.854C18.1796 10.882 18.287 10.9007 18.3243 10.91V17.308C18.3243 17.5413 18.231 17.7887 18.0443 18.05C17.8576 18.3113 17.6243 18.554 17.3443 18.778C17.0643 19.0113 16.7843 19.198 16.5043 19.338C16.2336 19.4873 16.005 19.562 15.8183 19.562ZM16.2383 18.736C16.313 18.736 16.3736 18.638 16.4203 18.442C16.4763 18.2553 16.5183 18.022 16.5463 17.742C16.5743 17.462 16.5883 17.1913 16.5883 16.93V16.272L16.5183 16.23C16.3876 16.3513 16.2336 16.5007 16.0563 16.678C15.879 16.846 15.697 17.0233 15.5103 17.21C15.333 17.3967 15.165 17.5647 15.0063 17.714C14.8476 17.8727 14.7263 17.994 14.6423 18.078V18.176C14.7076 18.2133 14.8056 18.26 14.9363 18.316C15.0763 18.3813 15.2303 18.4467 15.3983 18.512C15.5756 18.5773 15.739 18.6287 15.8883 18.666C16.0376 18.7127 16.1543 18.736 16.2383 18.736ZM15.7763 15.572C15.8043 15.572 15.8556 15.5487 15.9303 15.502C16.0143 15.4553 16.103 15.3993 16.1963 15.334C16.2896 15.2687 16.369 15.2127 16.4343 15.166C16.4996 15.1193 16.5323 15.096 16.5323 15.096V11.792C16.467 11.764 16.355 11.7173 16.1963 11.652C16.047 11.5773 15.8976 11.512 15.7483 11.456C15.6083 11.4 15.5103 11.386 15.4543 11.414C15.3796 11.442 15.3143 11.512 15.2583 11.624C15.2023 11.736 15.1556 11.89 15.1183 12.086C15.081 12.282 15.053 12.5107 15.0343 12.772C15.025 13.0333 15.0203 13.332 15.0203 13.668C15.0203 14.0973 15.0576 14.4567 15.1323 14.746C15.2163 15.026 15.319 15.236 15.4403 15.376C15.5616 15.5067 15.6736 15.572 15.7763 15.572Z" fill="#888888"/>
</svg>
