<svg width="24" height="24" viewBox="0 0 24 24" fill="none" xmlns="http://www.w3.org/2000/svg">
<path d="M12.4629 16.468L12.3789 17H9.41093L9.50893 16.356L10.4049 16.118L10.1529 14.158H7.66093L6.86293 16.118L7.75893 16.356L7.64693 17H4.67893L4.76293 16.468L5.64493 16.188L9.10293 8.558L10.5589 8.432L10.7269 8.6L11.6789 16.188L12.4629 16.468ZM7.96893 13.416H10.0689L9.78893 9.37H9.70493L7.96893 13.416ZM16.0615 10.602C16.1828 10.602 16.5281 10.644 17.0975 10.728C17.6761 10.8027 18.0821 10.8633 18.3155 10.91L17.1815 17.294C17.1441 17.518 16.9761 17.8073 16.6775 18.162C16.3881 18.5167 16.0755 18.834 15.7395 19.114C15.4035 19.394 15.1655 19.534 15.0255 19.534C14.7268 19.534 13.8588 19.268 12.4215 18.736L12.5755 17.77L14.2695 16.314C13.9521 16.23 13.6908 16.0433 13.4855 15.754C13.2895 15.4553 13.1915 15.0633 13.1915 14.578C13.1915 14.158 13.2381 13.7053 13.3315 13.22C13.4341 12.7253 13.5788 12.3147 13.7655 11.988C13.9335 11.792 14.3161 11.512 14.9135 11.148C15.5201 10.784 15.9028 10.602 16.0615 10.602ZM15.4735 11.428C15.3148 11.484 15.1561 11.666 14.9975 11.974C14.8388 12.2727 14.7081 12.6507 14.6055 13.108C14.5028 13.556 14.4515 14.018 14.4515 14.494C14.4515 14.858 14.5028 15.124 14.6055 15.292C14.7175 15.46 14.8528 15.558 15.0115 15.586L16.5935 13.864L16.9715 11.68C16.7568 11.596 16.5281 11.5307 16.2855 11.484C16.0521 11.428 15.8515 11.4 15.6835 11.4C15.5995 11.4 15.5295 11.4093 15.4735 11.428ZM16.0055 17.084C16.1175 16.524 16.2481 15.8147 16.3975 14.956H16.3135C15.5668 15.8987 14.6988 16.916 13.7095 18.008L13.6955 18.12C13.9195 18.2507 14.2321 18.4047 14.6335 18.582C15.0348 18.7593 15.3101 18.848 15.4595 18.848C15.5155 18.848 15.5948 18.6753 15.6975 18.33C15.8001 17.994 15.9028 17.5787 16.0055 17.084Z" fill="#888888"/>
</svg>
