<svg width="24" height="24" viewBox="0 0 24 24" fill="none" xmlns="http://www.w3.org/2000/svg">
<path d="M5.05032 11.498C5.18099 11.2553 5.37232 10.994 5.62432 10.714C5.88565 10.434 6.17032 10.1727 6.47832 9.93L6.46432 9.874L4.63032 9.468L4.72832 8.11C5.29765 8.15667 5.89499 8.21267 6.52032 8.278C7.14565 8.334 7.74765 8.39467 8.32632 8.46C8.90499 8.52533 9.41832 8.59067 9.86632 8.656C10.3143 8.72133 10.641 8.77733 10.8463 8.824C10.8837 8.824 10.9583 8.88467 11.0703 9.006C11.1823 9.12733 11.2897 9.25333 11.3923 9.384C11.495 9.51467 11.5463 9.59867 11.5463 9.636V15.922L12.3163 16.188V16.958C12.111 16.986 11.8543 17.014 11.5463 17.042C11.2477 17.0793 10.9723 17.1073 10.7203 17.126C10.4683 17.154 10.3143 17.1633 10.2583 17.154C10.137 17.1167 10.011 17.0233 9.88032 16.874C9.75899 16.7153 9.68899 16.6033 9.67032 16.538V13.668L8.29832 13.612V15.404C8.29832 15.46 8.26565 15.5627 8.20032 15.712C8.13499 15.852 8.05565 16.0153 7.96232 16.202L7.57032 16.958C7.36499 16.9767 7.11765 17.0047 6.82832 17.042C6.53899 17.0793 6.27765 17.1073 6.04432 17.126C5.81099 17.154 5.66632 17.1633 5.61032 17.154C5.48899 17.126 5.36299 17.0327 5.23232 16.874C5.11099 16.7153 5.04099 16.6033 5.02232 16.538C5.04099 16.174 5.07365 15.824 5.12032 15.488C5.17632 15.152 5.20432 14.7647 5.20432 14.326C5.20432 13.8127 5.16699 13.3273 5.09232 12.87C5.02699 12.4033 5.01299 11.946 5.05032 11.498ZM6.92632 15.936L7.54232 16.09V10L7.12232 9.944C7.07565 10.112 7.03832 10.3267 7.01032 10.588C6.98232 10.84 6.95899 11.1853 6.94032 11.624C6.93099 12.0533 6.92632 12.618 6.92632 13.318C6.92632 14.0087 6.92632 14.8813 6.92632 15.936ZM9.67032 10.294L8.29832 10.098V12.772L9.67032 12.716V10.294ZM15.8183 19.562C15.6036 19.562 15.3423 19.5433 15.0343 19.506C14.7356 19.4687 14.437 19.422 14.1383 19.366C13.8396 19.31 13.5876 19.2587 13.3823 19.212L13.0603 17.924L14.7963 16.482C14.3483 16.4073 13.9563 16.1413 13.6203 15.684C13.2843 15.2267 13.1163 14.606 13.1163 13.822C13.1163 13.5047 13.149 13.164 13.2143 12.8C13.2796 12.436 13.359 12.1467 13.4523 11.932C13.5363 11.8293 13.681 11.6987 13.8863 11.54C14.0916 11.3813 14.3156 11.218 14.5583 11.05C14.801 10.882 15.025 10.742 15.2303 10.63C15.445 10.518 15.599 10.462 15.6923 10.462C15.739 10.462 15.851 10.476 16.0283 10.504C16.2056 10.532 16.4156 10.5693 16.6583 10.616C16.901 10.6533 17.1436 10.6953 17.3863 10.742C17.629 10.7887 17.8343 10.826 18.0023 10.854C18.1796 10.882 18.287 10.9007 18.3243 10.91V17.308C18.3243 17.5413 18.231 17.7887 18.0443 18.05C17.8576 18.3113 17.6243 18.554 17.3443 18.778C17.0643 19.0113 16.7843 19.198 16.5043 19.338C16.2243 19.4873 15.9956 19.562 15.8183 19.562ZM15.7763 15.572C15.8136 15.572 15.893 15.5347 16.0143 15.46C16.1356 15.376 16.2523 15.2967 16.3643 15.222C16.4763 15.138 16.5323 15.096 16.5323 15.096V11.792C16.467 11.764 16.355 11.7173 16.1963 11.652C16.047 11.5773 15.8976 11.512 15.7483 11.456C15.599 11.4 15.501 11.386 15.4543 11.414C15.305 11.47 15.193 11.694 15.1183 12.086C15.053 12.4687 15.0203 12.996 15.0203 13.668C15.0203 14.312 15.109 14.7927 15.2863 15.11C15.4636 15.418 15.627 15.572 15.7763 15.572ZM16.2383 18.736C16.313 18.736 16.3736 18.638 16.4203 18.442C16.4763 18.2553 16.5183 18.022 16.5463 17.742C16.5743 17.4713 16.5883 17.2007 16.5883 16.93V16.272L16.5183 16.23C16.341 16.3887 16.1263 16.594 15.8743 16.846C15.6316 17.098 15.3936 17.336 15.1603 17.56C14.927 17.7933 14.7543 17.966 14.6423 18.078V18.176C14.7263 18.2227 14.8756 18.288 15.0903 18.372C15.305 18.4653 15.5196 18.5493 15.7343 18.624C15.9583 18.6987 16.1263 18.736 16.2383 18.736Z" fill="#333333"/>
</svg>
