<svg width="24" height="24" viewBox="0 0 24 24" fill="none" xmlns="http://www.w3.org/2000/svg">
<path d="M5.18408 11.764C5.27741 11.6053 5.42208 11.414 5.61808 11.19C5.82341 10.966 6.06141 10.742 6.33208 10.518C6.60274 10.294 6.87808 10.1073 7.15808 9.958H7.78808C7.70408 10.1167 7.63874 10.3033 7.59208 10.518C7.54541 10.7327 7.51274 11.036 7.49408 11.428C7.47541 11.82 7.46141 12.366 7.45208 13.066C7.45208 13.7567 7.45208 14.662 7.45208 15.782L8.37608 16.076L7.90008 16.986C7.71341 17.014 7.50808 17.0373 7.28408 17.056C7.06941 17.084 6.85941 17.1073 6.65408 17.126C6.44874 17.154 6.27141 17.168 6.12208 17.168C5.97274 17.1773 5.87474 17.1773 5.82808 17.168C5.70674 17.1307 5.59941 17.07 5.50608 16.986C5.41274 16.8927 5.33808 16.7947 5.28208 16.692C5.22608 16.5893 5.18408 16.51 5.15608 16.454C5.17474 16.0993 5.21208 15.754 5.26808 15.418C5.33341 15.082 5.36608 14.718 5.36608 14.326C5.36608 14.0087 5.34274 13.7147 5.29608 13.444C5.25874 13.164 5.22608 12.8887 5.19808 12.618C5.17008 12.3473 5.16541 12.0627 5.18408 11.764ZM8.16608 12.744L10.1961 12.632V13.766L8.16608 13.654V12.744ZM8.74008 9.888V15.278C8.74008 15.334 8.70275 15.4367 8.62808 15.586C8.56274 15.726 8.47874 15.8893 8.37608 16.076H7.98408V9.888H8.74008ZM4.87608 9.552L4.98808 7.97C5.59474 8.01667 6.22008 8.07267 6.86408 8.138C7.50808 8.194 8.12408 8.25933 8.71208 8.334C9.30941 8.39933 9.83674 8.46 10.2941 8.516C10.7514 8.572 11.0921 8.62333 11.3161 8.67C11.3441 8.67 11.4001 8.71667 11.4841 8.81C11.5774 8.90333 11.6754 9.01533 11.7781 9.146C11.8901 9.26733 11.9834 9.384 12.0581 9.496C12.1421 9.59867 12.1841 9.67333 12.1841 9.72V15.754L12.8841 16.076V16.986C12.6974 17.0047 12.4827 17.028 12.2401 17.056C12.0067 17.084 11.7734 17.1073 11.5401 17.126C11.3067 17.154 11.1014 17.1727 10.9241 17.182C10.7561 17.1913 10.6441 17.1867 10.5881 17.168C10.4761 17.1307 10.3734 17.0653 10.2801 16.972C10.1867 16.8787 10.1074 16.7853 10.0421 16.692C9.98608 16.5893 9.94408 16.51 9.91608 16.454V10.378L7.52208 10.014L7.00408 10.042L6.97608 9.958L4.87608 9.552ZM16.2688 19.59C16.0448 19.59 15.7741 19.5667 15.4568 19.52C15.1395 19.4733 14.8315 19.4173 14.5328 19.352C14.2435 19.2867 14.0055 19.2307 13.8188 19.184L13.4968 17.84L15.2468 16.426C14.9015 16.342 14.5981 16.188 14.3368 15.964C14.0848 15.7307 13.8888 15.4367 13.7488 15.082C13.6088 14.718 13.5388 14.3027 13.5388 13.836C13.5388 13.4813 13.5761 13.122 13.6508 12.758C13.7255 12.394 13.8095 12.1093 13.9028 11.904C13.9868 11.8013 14.1361 11.666 14.3508 11.498C14.5748 11.33 14.8175 11.162 15.0788 10.994C15.3401 10.8167 15.5781 10.672 15.7928 10.56C16.0168 10.4387 16.1755 10.378 16.2688 10.378C16.3155 10.378 16.4368 10.3967 16.6328 10.434C16.8381 10.462 17.0761 10.504 17.3468 10.56C17.6175 10.6067 17.8835 10.658 18.1448 10.714C18.4155 10.77 18.6395 10.8167 18.8168 10.854C19.0035 10.882 19.1015 10.896 19.1108 10.896V17.308C19.1108 17.5413 19.0035 17.7887 18.7888 18.05C18.5835 18.3207 18.3221 18.5727 18.0048 18.806C17.6875 19.0393 17.3701 19.226 17.0528 19.366C16.7448 19.5153 16.4835 19.59 16.2688 19.59ZM16.6888 18.638C16.7635 18.638 16.8288 18.554 16.8848 18.386C16.9408 18.218 16.9828 18.008 17.0108 17.756C17.0388 17.504 17.0528 17.2613 17.0528 17.028V16.384L16.9688 16.342C16.8568 16.454 16.7261 16.5893 16.5768 16.748C16.4275 16.8973 16.2735 17.0513 16.1148 17.21C15.9655 17.378 15.8255 17.5273 15.6948 17.658C15.5641 17.798 15.4615 17.9053 15.3868 17.98V18.092C15.4428 18.12 15.5268 18.162 15.6388 18.218C15.7508 18.2833 15.8768 18.3487 16.0168 18.414C16.1568 18.4793 16.2875 18.5307 16.4088 18.568C16.5301 18.6147 16.6235 18.638 16.6888 18.638ZM16.3948 15.32C16.4228 15.32 16.4648 15.3013 16.5208 15.264C16.5861 15.2267 16.6515 15.1847 16.7168 15.138C16.7915 15.082 16.8521 15.0353 16.8988 14.998C16.9548 14.9607 16.9828 14.942 16.9828 14.942V11.862C16.9548 11.8527 16.8801 11.806 16.7588 11.722C16.6468 11.638 16.5301 11.5587 16.4088 11.484C16.2968 11.4 16.2175 11.372 16.1708 11.4C16.1148 11.428 16.0635 11.498 16.0168 11.61C15.9795 11.7127 15.9421 11.8573 15.9048 12.044C15.8768 12.2307 15.8535 12.45 15.8348 12.702C15.8255 12.954 15.8208 13.2433 15.8208 13.57C15.8208 13.9153 15.8441 14.2233 15.8908 14.494C15.9468 14.7553 16.0168 14.9607 16.1008 15.11C16.1941 15.25 16.2921 15.32 16.3948 15.32Z" fill="#888888"/>
</svg>
