<svg width="24" height="24" viewBox="0 0 24 24" fill="none" xmlns="http://www.w3.org/2000/svg">
<path d="M5.46195 16.58L6.30195 16.356L8.56995 8.656C8.77528 8.61867 8.98995 8.586 9.21395 8.558C9.44728 8.53 9.61528 8.51133 9.71795 8.502C9.75528 8.502 9.82528 8.53933 9.92795 8.614L12.2099 16.356L13.0639 16.58V17H10.2779V16.524L11.1879 16.3L10.5579 14.116H7.82795L7.23995 16.3L8.17795 16.524V17H5.46195V16.58ZM10.3899 13.514L9.26995 9.44H9.11595L7.99595 13.514H10.3899ZM16.3109 19.506C15.9095 19.506 15.4009 19.4593 14.7849 19.366C14.1782 19.2727 13.7069 19.1793 13.3709 19.086L13.4689 18.288L15.3029 16.594C14.9762 16.5847 14.6775 16.468 14.4069 16.244C14.1455 16.0107 13.9355 15.6933 13.7769 15.292C13.6275 14.8813 13.5529 14.41 13.5529 13.878C13.5529 13.5233 13.5809 13.178 13.6369 12.842C13.7022 12.4967 13.7862 12.2073 13.8889 11.974C14.0102 11.7967 14.2015 11.6053 14.4629 11.4C14.7242 11.1853 14.9855 11.008 15.2469 10.868C15.5175 10.7187 15.7042 10.644 15.8069 10.644C16.0215 10.644 16.7262 10.7373 17.9209 10.924V17.462C17.9209 17.742 17.8275 18.0407 17.6409 18.358C17.4542 18.6847 17.2302 18.9553 16.9689 19.17C16.7169 19.394 16.4975 19.506 16.3109 19.506ZM15.8489 16.062C15.9329 16.062 16.3062 15.796 16.9689 15.264V11.512C16.4462 11.372 16.0169 11.302 15.6809 11.302C15.5502 11.302 15.4662 11.3113 15.4289 11.33C15.1862 11.414 14.9762 11.666 14.7989 12.086C14.6309 12.506 14.5469 13.094 14.5469 13.85C14.5469 14.6527 14.6775 15.222 14.9389 15.558C15.2095 15.894 15.5129 16.062 15.8489 16.062ZM16.5909 18.974C16.6375 18.974 16.6935 18.8807 16.7589 18.694C16.8242 18.5167 16.8802 18.2833 16.9269 17.994C16.9735 17.714 16.9969 17.42 16.9969 17.112V15.95L16.9409 15.922C16.3249 16.4727 15.4242 17.322 14.2389 18.47V18.54C14.4069 18.6053 14.7662 18.694 15.3169 18.806C15.8675 18.918 16.2922 18.974 16.5909 18.974Z" fill="#333333"/>
</svg>
