<svg width="24" height="24" viewBox="0 0 24 24" fill="none" xmlns="http://www.w3.org/2000/svg">
<path d="M12.6712 15.992L12.5172 17H8.33118L8.51318 15.88L9.38118 15.698L9.31118 14.648H7.09918L6.72118 15.656L7.78518 15.88L7.60318 17H3.41718L3.57118 15.992L4.57918 15.782L8.24718 8.418L10.7952 8.292L11.0612 8.558L11.8732 15.81L12.6712 15.992ZM7.61718 13.346H9.21318L9.04518 10.308H8.91918L7.61718 13.346ZM16.9011 10.322C17.0131 10.322 17.4285 10.378 18.1471 10.49C18.8751 10.602 19.3558 10.6813 19.5891 10.728L18.4551 17.224C18.4085 17.4853 18.1938 17.8027 17.8111 18.176C17.4285 18.5493 17.0085 18.8807 16.5511 19.17C16.1031 19.4593 15.7998 19.604 15.6411 19.604C15.4918 19.604 15.0578 19.5433 14.3391 19.422C13.6205 19.3007 13.0045 19.1887 12.4911 19.086L12.7711 17.504L14.2831 16.664C13.8631 16.524 13.5551 16.2767 13.3591 15.922C13.1631 15.5673 13.0651 15.1333 13.0651 14.62C13.0651 14.1813 13.1258 13.7053 13.2471 13.192C13.3778 12.6787 13.5598 12.1747 13.7931 11.68C14.1105 11.4467 14.6518 11.162 15.4171 10.826C16.1918 10.49 16.6865 10.322 16.9011 10.322ZM16.2011 11.456C16.0985 11.4933 15.9911 11.6287 15.8791 11.862C15.7765 12.086 15.6878 12.3753 15.6131 12.73C15.5385 13.0753 15.5011 13.4253 15.5011 13.78C15.5011 14.1347 15.5338 14.4147 15.5991 14.62C15.6738 14.8253 15.8091 14.956 16.0051 15.012L16.7891 14.172C16.8825 13.528 17.0178 12.6927 17.1951 11.666C16.6071 11.498 16.2758 11.428 16.2011 11.456ZM15.9071 18.442C15.9818 18.442 16.0425 18.3487 16.0891 18.162C16.1358 17.9753 16.2105 17.588 16.3131 17L16.5791 15.46H16.3691C15.6878 16.384 15.1605 17.112 14.7871 17.644L14.7591 17.896C14.9365 18.0173 15.1558 18.1387 15.4171 18.26C15.6878 18.3813 15.8511 18.442 15.9071 18.442Z" fill="#333333"/>
</svg>
