<svg width="24" height="24" viewBox="0 0 24 24" fill="none" xmlns="http://www.w3.org/2000/svg">
<path d="M11.1797 5.67773C11.1615 5.80534 11.1387 5.86914 11.1113 5.86914C11.084 5.86914 11.0612 5.87826 11.043 5.89648C11.0156 5.94206 10.9837 5.97852 10.9473 6.00586C10.9108 6.02409 10.8743 6.05599 10.8379 6.10156L10.7012 6.21094C10.6374 6.26562 10.5781 6.32487 10.5234 6.38867C10.4779 6.45247 10.4186 6.50716 10.3457 6.55273C10.3275 6.59831 10.3047 6.63477 10.2773 6.66211C10.2591 6.68945 10.2363 6.7168 10.209 6.74414C10.2181 6.85352 10.2135 6.92643 10.1953 6.96289C10.1862 6.99023 10.1816 7.01302 10.1816 7.03125C10.1816 7.06771 10.1908 7.13151 10.209 7.22266C10.209 7.28646 10.2135 7.35026 10.2227 7.41406C10.2409 7.46875 10.2546 7.53255 10.2637 7.60547C10.2819 7.66016 10.291 7.7194 10.291 7.7832C10.3001 7.83789 10.3138 7.88802 10.332 7.93359C10.3867 8.0612 10.4186 8.14779 10.4277 8.19336C10.4368 8.22982 10.4505 8.27083 10.4688 8.31641L10.5234 8.49414C10.5234 8.56706 10.528 8.61719 10.5371 8.64453C10.5462 8.66276 10.5553 8.68099 10.5645 8.69922C10.5827 8.77214 10.6009 8.84505 10.6191 8.91797C10.6465 8.99089 10.6829 9.05469 10.7285 9.10938C10.7467 9.19141 10.765 9.27344 10.7832 9.35547C10.8105 9.4375 10.8424 9.51497 10.8789 9.58789C10.888 9.70638 10.8971 9.79297 10.9062 9.84766C10.9245 9.90234 10.9427 9.95247 10.9609 9.99805C10.9792 10.0527 10.9928 10.1029 11.002 10.1484C11.0202 10.194 11.043 10.2396 11.0703 10.2852C11.0977 10.3854 11.1341 10.4811 11.1797 10.5723C11.1979 10.6361 11.2161 10.6816 11.2344 10.709C11.2526 10.7272 11.2663 10.75 11.2754 10.7773L11.3438 10.9824C11.362 11.0371 11.3802 11.0918 11.3984 11.1465C11.4167 11.1921 11.4349 11.2422 11.4531 11.2969C11.5078 11.3789 11.5352 11.4382 11.5352 11.4746C11.5443 11.5111 11.5579 11.543 11.5762 11.5703C11.5944 11.6341 11.6172 11.6888 11.6445 11.7344C11.6719 11.7799 11.6992 11.8392 11.7266 11.9121C11.7539 11.9941 11.7812 12.0762 11.8086 12.1582C11.8359 12.2402 11.8678 12.3223 11.9043 12.4043C11.9408 12.4772 11.9727 12.5456 12 12.6094C12.0182 12.6367 12.0273 12.6686 12.0273 12.7051C12.0273 12.7324 12.0365 12.7552 12.0547 12.7734C12.0911 12.8737 12.1185 12.9512 12.1367 13.0059C12.1641 13.0514 12.1868 13.1016 12.2051 13.1562C12.2415 13.2383 12.2643 13.3066 12.2734 13.3613C12.2826 13.4069 12.2962 13.4479 12.3145 13.4844C12.3418 13.5299 12.3646 13.5755 12.3828 13.6211L12.4512 13.7578C12.4967 13.8307 12.5195 13.8854 12.5195 13.9219C12.5195 13.9492 12.5286 13.9811 12.5469 14.0176C12.5924 14.0814 12.6152 14.127 12.6152 14.1543C12.6152 14.1816 12.6198 14.209 12.6289 14.2363C12.6471 14.2728 12.6654 14.3047 12.6836 14.332C12.7018 14.3594 12.7201 14.3913 12.7383 14.4277C12.793 14.5371 12.834 14.61 12.8613 14.6465C12.8887 14.6829 12.9115 14.7194 12.9297 14.7559C13.0117 14.8835 13.0801 14.9701 13.1348 15.0156C13.2077 15.0521 13.2624 15.0931 13.2988 15.1387C13.3353 15.1751 13.3763 15.207 13.4219 15.2344C13.4948 15.2799 13.5404 15.3164 13.5586 15.3438C13.6771 15.4076 13.7546 15.4486 13.791 15.4668C13.8548 15.5306 13.8958 15.5625 13.9141 15.5625C13.9323 15.5625 13.9505 15.5671 13.9688 15.5762C14.0143 15.5944 14.0645 15.6172 14.1191 15.6445C14.1829 15.6628 14.2376 15.681 14.2832 15.6992C14.3288 15.7174 14.3652 15.7311 14.3926 15.7402C14.429 15.7493 14.4701 15.7585 14.5156 15.7676C14.5521 15.7767 14.5885 15.7812 14.625 15.7812C14.6706 15.7721 14.7116 15.7858 14.748 15.8223C14.666 15.8678 14.625 15.8952 14.625 15.9043C14.625 15.9134 14.6159 15.918 14.5977 15.918C14.5703 15.918 14.5384 15.9134 14.502 15.9043C14.4655 15.8952 14.4245 15.8906 14.3789 15.8906C14.2969 15.8815 14.2057 15.8861 14.1055 15.9043C14.0143 15.9225 13.9186 15.9362 13.8184 15.9453C13.7546 15.9544 13.6862 15.959 13.6133 15.959C13.5495 15.959 13.4811 15.9635 13.4082 15.9727C13.2715 15.9727 13.1712 15.9772 13.1074 15.9863C13.0527 15.9954 12.9889 16 12.916 16C12.8796 16 12.8477 16.0046 12.8203 16.0137C12.8021 16.0228 12.7839 16.0319 12.7656 16.041C12.6654 16.0501 12.5651 16.0501 12.4648 16.041C12.3646 16.041 12.2689 16.0456 12.1777 16.0547C12.123 16.0547 12.0684 16.0592 12.0137 16.0684C11.959 16.0775 11.9043 16.082 11.8496 16.082C11.722 16.0911 11.599 16.0957 11.4805 16.0957C11.362 16.1048 11.2435 16.1139 11.125 16.123C11.0703 16.123 11.0156 16.1185 10.9609 16.1094C10.9062 16.1094 10.8516 16.1139 10.7969 16.123C10.7057 16.1322 10.6191 16.1413 10.5371 16.1504C10.4551 16.1686 10.373 16.1732 10.291 16.1641C10.2454 16.1641 10.2044 16.1595 10.168 16.1504C10.1406 16.1413 10.1042 16.1367 10.0586 16.1367C10.0312 16.1367 10.0039 16.1367 9.97656 16.1367C9.94922 16.1458 9.92188 16.1504 9.89453 16.1504C9.76693 16.1413 9.65755 16.1413 9.56641 16.1504C9.48438 16.1686 9.4069 16.1732 9.33398 16.1641C9.19727 16.1641 9.08333 16.1367 8.99219 16.082C9.03776 15.9727 9.07422 15.9134 9.10156 15.9043C9.12891 15.8952 9.16081 15.8815 9.19727 15.8633C9.26107 15.8359 9.32487 15.8086 9.38867 15.7812C9.46159 15.7539 9.53451 15.722 9.60742 15.6855C9.65299 15.6764 9.72135 15.6536 9.8125 15.6172C9.92188 15.5534 10.013 15.5124 10.0859 15.4941C10.1315 15.4759 10.1725 15.4531 10.209 15.4258C10.2546 15.3984 10.3001 15.3757 10.3457 15.3574C10.373 15.3392 10.4004 15.3301 10.4277 15.3301C10.4551 15.3301 10.4779 15.321 10.4961 15.3027C10.5964 15.2389 10.651 15.2116 10.6602 15.2207C10.6784 15.2207 10.6966 15.2161 10.7148 15.207C10.7786 15.1706 10.8151 15.1432 10.8242 15.125C10.8424 15.0977 10.8607 15.0749 10.8789 15.0566C10.9245 15.0566 10.9564 15.0475 10.9746 15.0293C11.002 15.002 11.0247 14.9792 11.043 14.9609C11.1159 14.9062 11.166 14.8652 11.1934 14.8379C11.2025 14.7832 11.2161 14.7285 11.2344 14.6738C11.2526 14.61 11.2572 14.5417 11.248 14.4688C11.1934 14.3776 11.166 14.3275 11.166 14.3184C11.1751 14.3092 11.1751 14.2956 11.166 14.2773C11.1296 14.2135 11.1113 14.1634 11.1113 14.127C11.1113 14.0814 11.1068 14.0358 11.0977 13.9902C11.0703 13.8809 11.0566 13.8171 11.0566 13.7988C11.0566 13.7715 11.0521 13.7487 11.043 13.7305C11.0247 13.6849 11.002 13.6393 10.9746 13.5938C10.9564 13.5391 10.9382 13.4889 10.9199 13.4434C10.8926 13.334 10.8698 13.2611 10.8516 13.2246C10.8424 13.179 10.8288 13.1335 10.8105 13.0879C10.7467 13.0241 10.6829 12.9876 10.6191 12.9785C10.5645 12.9694 10.5052 12.9557 10.4414 12.9375C10.332 12.9102 10.2546 12.8965 10.209 12.8965C10.1634 12.8965 10.1133 12.8965 10.0586 12.8965C9.99479 12.8874 9.93099 12.8783 9.86719 12.8691C9.8125 12.8509 9.75326 12.8418 9.68945 12.8418C9.67122 12.8418 9.64388 12.8464 9.60742 12.8555C9.57096 12.8555 9.53451 12.8555 9.49805 12.8555C9.3431 12.8646 9.19727 12.8737 9.06055 12.8828C8.93294 12.8828 8.77799 12.8828 8.5957 12.8828H8.44531C8.39062 12.8737 8.33138 12.8737 8.26758 12.8828C8.16732 12.8919 8.10352 12.8919 8.07617 12.8828C8.04883 12.8737 8.02148 12.8646 7.99414 12.8555C7.83919 12.8372 7.6888 12.8372 7.54297 12.8555L7.37891 12.8965C7.30599 12.9056 7.23307 12.9102 7.16016 12.9102C7.09635 12.9102 7.03255 12.9102 6.96875 12.9102C6.89583 12.9102 6.83203 12.9056 6.77734 12.8965C6.72266 12.8874 6.66341 12.8874 6.59961 12.8965C6.52669 12.9056 6.45378 12.9193 6.38086 12.9375C6.30794 12.9466 6.24414 12.9557 6.18945 12.9648C6.17122 13.0469 6.14388 13.138 6.10742 13.2383C6.08008 13.3294 6.06185 13.4297 6.05273 13.5391C6.05273 13.5664 6.05273 13.5938 6.05273 13.6211C6.06185 13.6484 6.06641 13.6803 6.06641 13.7168C6.06641 13.7624 6.05729 13.8034 6.03906 13.8398C6.02995 13.8672 6.03451 13.9036 6.05273 13.9492C6.06185 14.0312 6.08464 14.1133 6.12109 14.1953C6.09375 14.3138 6.08008 14.3958 6.08008 14.4414C6.08919 14.487 6.09375 14.5326 6.09375 14.5781C6.08464 14.651 6.07552 14.7285 6.06641 14.8105C6.06641 14.8835 6.08464 14.9518 6.12109 15.0156C6.13932 15.0521 6.16667 15.0977 6.20312 15.1523C6.23958 15.1979 6.2806 15.2389 6.32617 15.2754C6.37174 15.3118 6.43099 15.3438 6.50391 15.3711C6.57682 15.3984 6.64062 15.4303 6.69531 15.4668C6.75911 15.5215 6.80013 15.5534 6.81836 15.5625C6.8457 15.5625 6.87305 15.5716 6.90039 15.5898C6.96419 15.6172 7.03711 15.6536 7.11914 15.6992C7.20117 15.7448 7.27409 15.7904 7.33789 15.8359C7.36523 15.8542 7.39714 15.8678 7.43359 15.877C7.47005 15.877 7.48372 15.8997 7.47461 15.9453C7.38346 16 7.31966 16.0228 7.2832 16.0137C7.25586 16.0046 7.22396 16 7.1875 16C7.14193 16.0091 7.09635 16.0137 7.05078 16.0137C7.01432 16.0137 6.97331 16.0228 6.92773 16.041C6.89128 16.041 6.85482 16.0456 6.81836 16.0547C6.79102 16.0729 6.75456 16.082 6.70898 16.082C6.49023 16.0729 6.29883 16.0729 6.13477 16.082C5.9707 16.1003 5.8112 16.1139 5.65625 16.123C5.5651 16.123 5.47396 16.1185 5.38281 16.1094C5.29167 16.1003 5.20052 16.0911 5.10938 16.082C5.00911 16.0729 4.91341 16.0729 4.82227 16.082C4.73112 16.1003 4.63997 16.1048 4.54883 16.0957C4.51237 16.0957 4.47591 16.0911 4.43945 16.082C4.41211 16.0729 4.37565 16.0684 4.33008 16.0684C4.29362 16.0684 4.25716 16.0729 4.2207 16.082C4.19336 16.0911 4.16146 16.0957 4.125 16.0957C4.02474 16.0957 3.97461 16.0911 3.97461 16.082C3.97461 16.082 3.97005 16.082 3.96094 16.082C3.91536 16.0911 3.86979 16.1003 3.82422 16.1094C3.78776 16.1185 3.74674 16.123 3.70117 16.123C3.62826 16.123 3.5599 16.1139 3.49609 16.0957C3.44141 16.0866 3.38672 16.082 3.33203 16.082C3.28646 16.082 3.24089 16.082 3.19531 16.082C3.14974 16.0911 3.10417 16.0957 3.05859 16.0957C3.03125 16.1048 2.99479 16.1139 2.94922 16.123C2.89453 16.1322 2.8444 16.1367 2.79883 16.1367C2.68945 16.0547 2.65755 16.0091 2.70312 16C2.73958 16 2.76693 15.9909 2.78516 15.9727C2.89453 15.8997 2.95378 15.8587 2.96289 15.8496C3.06315 15.7858 3.11784 15.7493 3.12695 15.7402C3.20898 15.6582 3.28646 15.6035 3.35938 15.5762C3.42318 15.5488 3.47786 15.526 3.52344 15.5078C3.6237 15.4531 3.6875 15.4212 3.71484 15.4121C3.74219 15.3939 3.77409 15.3757 3.81055 15.3574C3.83789 15.3392 3.86523 15.3255 3.89258 15.3164C3.92904 15.3073 3.96094 15.2936 3.98828 15.2754C4.04297 15.2389 4.08854 15.1979 4.125 15.1523C4.16146 15.1068 4.21159 15.0658 4.27539 15.0293C4.29362 14.9564 4.32096 14.8971 4.35742 14.8516C4.39388 14.806 4.43034 14.7604 4.4668 14.7148C4.51237 14.6419 4.5306 14.6055 4.52148 14.6055C4.52148 14.5964 4.52604 14.5872 4.53516 14.5781C4.55339 14.5599 4.57161 14.528 4.58984 14.4824C4.61719 14.4368 4.6263 14.3913 4.61719 14.3457C4.69922 14.2272 4.75846 14.1361 4.79492 14.0723C4.83138 13.9993 4.85872 13.9264 4.87695 13.8535C4.89518 13.7441 4.90885 13.6849 4.91797 13.6758C4.92708 13.6667 4.9362 13.653 4.94531 13.6348C4.98177 13.5436 5.01367 13.4434 5.04102 13.334C5.06836 13.2155 5.10482 13.1061 5.15039 13.0059C5.16862 12.9603 5.18229 12.9147 5.19141 12.8691C5.20964 12.8236 5.22786 12.7643 5.24609 12.6914C5.27344 12.582 5.29622 12.5182 5.31445 12.5C5.33268 12.4727 5.34635 12.4408 5.35547 12.4043C5.3737 12.3678 5.37826 12.3359 5.36914 12.3086C5.36003 12.2721 5.36458 12.2357 5.38281 12.1992L5.47852 12.0352C5.49674 12.0078 5.51042 11.985 5.51953 11.9668C5.53776 11.9395 5.55599 11.9121 5.57422 11.8848C5.59245 11.8392 5.60612 11.7982 5.61523 11.7617C5.62435 11.7253 5.63802 11.6842 5.65625 11.6387C5.72005 11.5293 5.75651 11.4564 5.76562 11.4199C5.77474 11.3835 5.78841 11.3424 5.80664 11.2969C5.82487 11.2513 5.8431 11.2012 5.86133 11.1465C5.87956 11.0918 5.88411 11.028 5.875 10.9551C5.92057 10.9095 5.95247 10.8457 5.9707 10.7637C5.99805 10.6816 6.02995 10.6042 6.06641 10.5312C6.08464 10.5039 6.09831 10.4857 6.10742 10.4766C6.12565 10.4583 6.13477 10.4264 6.13477 10.3809C6.14388 10.3353 6.14388 10.2943 6.13477 10.2578C6.12565 10.2214 6.11198 10.1803 6.09375 10.1348C6.11198 10.0892 6.12565 10.0482 6.13477 10.0117C6.15299 9.97526 6.16667 9.93424 6.17578 9.88867C6.21224 9.82487 6.23503 9.7793 6.24414 9.75195C6.26237 9.72461 6.2806 9.69727 6.29883 9.66992C6.32617 9.60612 6.36263 9.5332 6.4082 9.45117C6.42643 9.41471 6.4401 9.37826 6.44922 9.3418C6.46745 9.29622 6.48568 9.25065 6.50391 9.20508C6.55859 9.11393 6.58594 9.05924 6.58594 9.04102C6.58594 9.01367 6.59049 8.99089 6.59961 8.97266C6.63607 8.89974 6.67253 8.82682 6.70898 8.75391C6.74544 8.68099 6.7819 8.60807 6.81836 8.53516C6.83659 8.48958 6.85026 8.44857 6.85938 8.41211C6.86849 8.37565 6.88216 8.33919 6.90039 8.30273C6.91862 8.25716 6.93685 8.2207 6.95508 8.19336C6.97331 8.1569 6.98698 8.11589 6.99609 8.07031C7.01432 8.03385 7.01888 8.00195 7.00977 7.97461C7.00977 7.93815 7.01888 7.90169 7.03711 7.86523C7.03711 7.84701 7.04167 7.82422 7.05078 7.79688C7.0599 7.76953 7.06901 7.74219 7.07812 7.71484C7.17839 7.53255 7.24674 7.40495 7.2832 7.33203C7.32878 7.25 7.37891 7.1543 7.43359 7.04492C7.45182 6.99023 7.47005 6.93555 7.48828 6.88086C7.51562 6.81706 7.52474 6.76693 7.51562 6.73047C7.4974 6.6849 7.45638 6.65755 7.39258 6.64844C7.33789 6.63021 7.29232 6.60742 7.25586 6.58008C7.1556 6.59831 7.05534 6.59831 6.95508 6.58008C6.86393 6.55273 6.77279 6.52539 6.68164 6.49805C6.58138 6.4707 6.46289 6.45703 6.32617 6.45703C6.18945 6.45703 6.04362 6.45247 5.88867 6.44336C5.81576 6.44336 5.73828 6.44336 5.65625 6.44336C5.57422 6.43424 5.49674 6.43424 5.42383 6.44336C5.33268 6.46159 5.24609 6.48893 5.16406 6.52539C5.08203 6.55273 5.00456 6.57552 4.93164 6.59375C4.77669 6.63932 4.62174 6.69401 4.4668 6.75781C4.37565 6.82161 4.33008 6.85807 4.33008 6.86719C4.33008 6.8763 4.32096 6.88542 4.30273 6.89453C4.2207 6.96745 4.17057 7.02214 4.15234 7.05859C4.13411 7.08594 4.11133 7.10872 4.08398 7.12695C4.04753 7.22721 4.0293 7.31836 4.0293 7.40039C4.0293 7.48242 4.03385 7.58268 4.04297 7.70117C4.04297 7.73763 4.03841 7.77409 4.0293 7.81055C4.0293 7.84701 4.03385 7.88346 4.04297 7.91992C4.04297 7.95638 4.05664 8.00651 4.08398 8.07031C4.11133 8.13411 4.13411 8.1888 4.15234 8.23438C4.17057 8.26172 4.21159 8.29818 4.27539 8.34375C4.31185 8.42578 4.34375 8.48047 4.37109 8.50781C4.39844 8.53516 4.42578 8.56706 4.45312 8.60352C4.4987 8.64909 4.52604 8.68555 4.53516 8.71289C4.55339 8.74023 4.58984 8.77214 4.64453 8.80859C4.77214 8.84505 4.84961 8.85872 4.87695 8.84961C4.9043 8.84049 4.94076 8.82682 4.98633 8.80859C5.05924 8.79036 5.11849 8.77214 5.16406 8.75391C5.20964 8.73568 5.26432 8.69922 5.32812 8.64453C5.34635 8.6263 5.36914 8.60807 5.39648 8.58984C5.43294 8.57161 5.46029 8.55339 5.47852 8.53516C5.49674 8.51693 5.50586 8.49414 5.50586 8.4668C5.51497 8.43945 5.52865 8.41667 5.54688 8.39844C5.59245 8.2526 5.58333 8.14779 5.51953 8.08398C5.46484 8.02018 5.41016 7.96549 5.35547 7.91992C5.25521 7.85612 5.18685 7.83333 5.15039 7.85156C5.12305 7.86068 5.0957 7.87435 5.06836 7.89258C5.0319 7.90169 5 7.91536 4.97266 7.93359C4.95443 7.94271 4.9362 7.95638 4.91797 7.97461L4.74023 8.05664C4.6582 8.03841 4.59896 8.03841 4.5625 8.05664C4.57161 7.97461 4.59896 7.88346 4.64453 7.7832C4.70833 7.70117 4.74479 7.66016 4.75391 7.66016C4.82682 7.60547 4.87695 7.57357 4.9043 7.56445C4.94076 7.55534 4.97266 7.54167 5 7.52344C5.02734 7.50521 5.05013 7.49609 5.06836 7.49609C5.08659 7.48698 5.11849 7.47331 5.16406 7.45508C5.20052 7.44596 5.23242 7.43685 5.25977 7.42773C5.28711 7.41862 5.31901 7.41862 5.35547 7.42773C5.45573 7.43685 5.53776 7.48242 5.60156 7.56445C5.67448 7.63737 5.7474 7.69661 5.82031 7.74219C5.85677 7.8151 5.90234 7.88346 5.95703 7.94727C6.01172 8.01107 6.03906 8.08854 6.03906 8.17969C6.01172 8.33464 5.98893 8.42578 5.9707 8.45312C5.95247 8.48047 5.92513 8.50781 5.88867 8.53516C5.86133 8.55339 5.82487 8.58529 5.7793 8.63086C5.74284 8.6582 5.70638 8.6901 5.66992 8.72656C5.64258 8.76302 5.61068 8.79492 5.57422 8.82227C5.47396 8.9043 5.42839 8.94531 5.4375 8.94531C5.35547 8.99089 5.30534 9.02279 5.28711 9.04102C5.26888 9.05013 5.25065 9.0638 5.23242 9.08203C5.15039 9.14583 5.0957 9.17773 5.06836 9.17773C5.05013 9.17773 5.0319 9.18229 5.01367 9.19141C4.9681 9.22786 4.93164 9.24609 4.9043 9.24609C4.87695 9.24609 4.84049 9.25065 4.79492 9.25977C4.75846 9.26888 4.73112 9.27799 4.71289 9.28711C4.69466 9.29622 4.66276 9.29167 4.61719 9.27344C4.55339 9.26432 4.4987 9.24154 4.45312 9.20508C4.40755 9.16862 4.36198 9.14128 4.31641 9.12305C4.27083 9.07747 4.22526 9.04557 4.17969 9.02734C4.14323 9.00911 4.11133 8.98633 4.08398 8.95898C4.0293 8.89518 3.97005 8.83138 3.90625 8.76758C3.85156 8.70378 3.80143 8.63542 3.75586 8.5625C3.72852 8.4987 3.69661 8.4349 3.66016 8.37109C3.63281 8.30729 3.61003 8.24349 3.5918 8.17969C3.57357 8.10677 3.5599 8.0293 3.55078 7.94727C3.54167 7.85612 3.53255 7.76042 3.52344 7.66016C3.51432 7.5599 3.50521 7.47331 3.49609 7.40039C3.49609 7.31836 3.50521 7.23633 3.52344 7.1543C3.53255 7.11784 3.54167 7.08138 3.55078 7.04492C3.56901 7.00846 3.58268 6.96745 3.5918 6.92188C3.60091 6.88542 3.60091 6.84896 3.5918 6.8125C3.5918 6.77604 3.59635 6.74414 3.60547 6.7168C3.63281 6.67122 3.67383 6.62565 3.72852 6.58008C3.79232 6.52539 3.84701 6.47526 3.89258 6.42969C3.91081 6.41146 3.92448 6.39323 3.93359 6.375C3.94271 6.34766 3.96094 6.32487 3.98828 6.30664C4.05208 6.25195 4.10677 6.22005 4.15234 6.21094C4.20703 6.19271 4.25716 6.17448 4.30273 6.15625C4.34831 6.13802 4.38477 6.11979 4.41211 6.10156C4.44857 6.07422 4.48958 6.05143 4.53516 6.0332C4.67188 6.01497 4.77214 5.99674 4.83594 5.97852C4.90885 5.96029 4.97266 5.94661 5.02734 5.9375C5.07292 5.92839 5.11849 5.92839 5.16406 5.9375C5.21875 5.9375 5.26888 5.9375 5.31445 5.9375C5.3418 5.9375 5.36914 5.93294 5.39648 5.92383C5.43294 5.91471 5.4694 5.9056 5.50586 5.89648C5.64258 5.88737 5.78841 5.88737 5.94336 5.89648C6.09831 5.89648 6.23503 5.89648 6.35352 5.89648C6.42643 5.89648 6.49479 5.89648 6.55859 5.89648C6.63151 5.88737 6.70443 5.88281 6.77734 5.88281C6.85938 5.88281 6.94141 5.89193 7.02344 5.91016C7.10547 5.91927 7.20117 5.92383 7.31055 5.92383C7.34701 5.91471 7.37891 5.91471 7.40625 5.92383C7.43359 5.92383 7.46094 5.92383 7.48828 5.92383C7.5612 5.92383 7.63411 5.92839 7.70703 5.9375C7.78906 5.9375 7.86654 5.9375 7.93945 5.9375C8.05794 5.9375 8.18555 5.9375 8.32227 5.9375C8.4681 5.92839 8.60482 5.93294 8.73242 5.95117C8.75977 5.96029 8.79622 5.96484 8.8418 5.96484C8.89648 5.95573 8.94206 5.95117 8.97852 5.95117H9.25195C9.37044 5.94206 9.44792 5.93294 9.48438 5.92383C9.52083 5.91471 9.55729 5.9056 9.59375 5.89648C9.63932 5.88737 9.6849 5.88737 9.73047 5.89648C9.77604 5.89648 9.82161 5.89193 9.86719 5.88281C9.97656 5.86458 10.0814 5.84635 10.1816 5.82812C10.2819 5.80078 10.3822 5.76888 10.4824 5.73242C10.5189 5.72331 10.5553 5.71875 10.5918 5.71875C10.6283 5.70964 10.6693 5.70052 10.7148 5.69141C10.7695 5.68229 10.8379 5.68229 10.9199 5.69141C10.9473 5.65495 10.9883 5.64128 11.043 5.65039C11.0977 5.65951 11.1432 5.66862 11.1797 5.67773ZM9.41602 9.0957L9.29297 8.80859C9.26562 8.73568 9.23828 8.66276 9.21094 8.58984C9.18359 8.51693 9.15625 8.44401 9.12891 8.37109C9.11979 8.34375 9.11068 8.31641 9.10156 8.28906C9.09245 8.26172 9.08333 8.23893 9.07422 8.2207C9.05599 8.1569 9.04232 8.09766 9.0332 8.04297C9.02409 7.98828 9.01042 7.93815 8.99219 7.89258C8.98307 7.85612 8.96029 7.81055 8.92383 7.75586C8.88737 7.63737 8.85091 7.54167 8.81445 7.46875C8.76888 7.35026 8.74609 7.29102 8.74609 7.29102C8.68229 7.20898 8.61849 7.15885 8.55469 7.14062C8.47266 7.17708 8.42253 7.20443 8.4043 7.22266C8.39518 7.24089 8.39062 7.25456 8.39062 7.26367C8.3724 7.2819 8.34961 7.30469 8.32227 7.33203C8.30404 7.35026 8.28581 7.36849 8.26758 7.38672C8.24935 7.41406 8.23568 7.44596 8.22656 7.48242C8.22656 7.50977 8.21745 7.54622 8.19922 7.5918C8.16276 7.61914 8.1263 7.6556 8.08984 7.70117C8.05339 7.74674 8.02604 7.78776 8.00781 7.82422L7.87109 7.97461C7.80729 8.14779 7.77083 8.24805 7.76172 8.27539C7.69792 8.39388 7.6569 8.48958 7.63867 8.5625C7.62044 8.6263 7.59766 8.6901 7.57031 8.75391C7.5612 8.82682 7.54753 8.86784 7.5293 8.87695C7.52018 8.88607 7.51562 8.89518 7.51562 8.9043C7.4974 8.93164 7.48372 8.96354 7.47461 9C7.47461 9.02734 7.47005 9.05469 7.46094 9.08203C7.45182 9.10938 7.44727 9.14128 7.44727 9.17773C7.44727 9.20508 7.44271 9.23242 7.43359 9.25977C7.36979 9.36003 7.32878 9.44661 7.31055 9.51953C7.30143 9.58333 7.2832 9.63346 7.25586 9.66992C7.23763 9.69727 7.2194 9.72917 7.20117 9.76562C7.19206 9.80208 7.18294 9.82943 7.17383 9.84766C7.10091 10.0573 7.03711 10.2533 6.98242 10.4355C6.92773 10.6087 6.86849 10.7682 6.80469 10.9141C6.78646 10.9596 6.76367 11.0052 6.73633 11.0508C6.70898 11.0964 6.6862 11.1419 6.66797 11.1875C6.64974 11.2331 6.64062 11.2741 6.64062 11.3105C6.64062 11.347 6.63151 11.3835 6.61328 11.4199C6.60417 11.4564 6.59049 11.4928 6.57227 11.5293C6.55404 11.5566 6.53581 11.5931 6.51758 11.6387C6.49023 11.7116 6.47201 11.7936 6.46289 11.8848C6.45378 11.9668 6.44466 12.0488 6.43555 12.1309C6.53581 12.1673 6.64062 12.181 6.75 12.1719C6.85938 12.1536 6.96875 12.1536 7.07812 12.1719C7.15104 12.181 7.2194 12.1992 7.2832 12.2266C7.34701 12.2448 7.41081 12.2585 7.47461 12.2676C7.53841 12.2767 7.60677 12.2767 7.67969 12.2676C7.76172 12.2585 7.84375 12.2585 7.92578 12.2676C7.98958 12.2676 8.05339 12.2721 8.11719 12.2812C8.18099 12.2904 8.24479 12.2949 8.30859 12.2949C8.3724 12.2949 8.42708 12.2904 8.47266 12.2812C8.52734 12.2721 8.58659 12.2676 8.65039 12.2676C8.69596 12.2676 8.74154 12.2721 8.78711 12.2812C8.83268 12.2812 8.87826 12.2812 8.92383 12.2812C9.0332 12.2812 9.14258 12.2812 9.25195 12.2812C9.36133 12.2721 9.47526 12.263 9.59375 12.2539C9.72135 12.2357 9.85352 12.2174 9.99023 12.1992C10.1361 12.1719 10.2454 12.1354 10.3184 12.0898C10.3366 11.8984 10.3184 11.7253 10.2637 11.5703C10.209 11.4154 10.1589 11.2559 10.1133 11.0918C10.1133 11.0736 10.1133 11.0508 10.1133 11.0234C10.1133 10.987 10.1087 10.9596 10.0996 10.9414C10.0449 10.832 10.013 10.7546 10.0039 10.709C10.0039 10.6634 9.99935 10.6178 9.99023 10.5723C9.98112 10.554 9.96745 10.5221 9.94922 10.4766C9.9401 10.4219 9.93555 10.3854 9.93555 10.3672C9.94466 10.2943 9.9401 10.2396 9.92188 10.2031C9.91276 10.1667 9.90365 10.1257 9.89453 10.0801C9.8763 10.0072 9.86263 9.93424 9.85352 9.86133C9.85352 9.78841 9.83984 9.72917 9.8125 9.68359L9.68945 9.56055C9.66211 9.52409 9.63477 9.49219 9.60742 9.46484C9.58919 9.42839 9.56641 9.39648 9.53906 9.36914C9.53906 9.31445 9.52083 9.26888 9.48438 9.23242C9.45703 9.18685 9.43424 9.14128 9.41602 9.0957ZM21.3652 9C21.3652 9.08203 21.3424 9.13672 21.2969 9.16406C21.2604 9.19141 21.2194 9.21419 21.1738 9.23242L20.9277 9.35547C20.8275 9.41016 20.7728 9.44206 20.7637 9.45117C20.7637 9.46029 20.7591 9.4694 20.75 9.47852C20.6589 9.50586 20.5951 9.52865 20.5586 9.54688C20.5221 9.5651 20.4811 9.58333 20.4355 9.60156C20.4173 9.61979 20.3945 9.63802 20.3672 9.65625C20.349 9.67448 20.3216 9.69271 20.2852 9.71094C20.2122 9.75651 20.1393 9.79753 20.0664 9.83398C20.0482 9.85221 20.0254 9.87044 19.998 9.88867C19.9707 9.89779 19.9434 9.91146 19.916 9.92969C19.8613 9.97526 19.8112 10.0436 19.7656 10.1348C19.7201 10.2259 19.6882 10.3034 19.6699 10.3672C19.6608 10.3945 19.6562 10.4264 19.6562 10.4629C19.6654 10.4993 19.6654 10.5312 19.6562 10.5586C19.6471 10.5951 19.638 10.627 19.6289 10.6543C19.6289 10.6725 19.6289 10.6908 19.6289 10.709C19.6198 10.7637 19.6198 10.8184 19.6289 10.873C19.638 10.9277 19.6426 10.9915 19.6426 11.0645C19.6426 11.11 19.638 11.1556 19.6289 11.2012C19.6289 11.2376 19.6289 11.2786 19.6289 11.3242C19.6289 11.4609 19.6289 11.6068 19.6289 11.7617C19.638 11.9076 19.6471 12.0534 19.6562 12.1992C19.6562 12.2812 19.6562 12.3633 19.6562 12.4453C19.6654 12.5182 19.6699 12.5911 19.6699 12.6641C19.6882 12.8646 19.7018 13.0651 19.7109 13.2656C19.7201 13.457 19.6745 13.6302 19.5742 13.7852C19.6107 13.9128 19.6289 13.9993 19.6289 14.0449C19.638 14.0814 19.6471 14.1224 19.6562 14.168C19.6745 14.2591 19.6927 14.3913 19.7109 14.5645C19.7201 14.6921 19.7292 14.8288 19.7383 14.9746C19.7565 15.1113 19.7747 15.2572 19.793 15.4121C19.793 15.4577 19.793 15.5033 19.793 15.5488C19.793 15.5944 19.7975 15.64 19.8066 15.6855C19.8066 15.7311 19.8112 15.7767 19.8203 15.8223C19.8385 15.8587 19.8477 15.8997 19.8477 15.9453C19.8568 15.9909 19.8613 16.0365 19.8613 16.082C19.8613 16.1367 19.8659 16.1868 19.875 16.2324C19.875 16.278 19.875 16.319 19.875 16.3555C19.8841 16.3919 19.8932 16.4329 19.9023 16.4785C19.9297 16.6517 19.9479 16.834 19.957 17.0254C19.9753 17.2168 19.9889 17.4082 19.998 17.5996C20.0072 17.6452 20.0072 17.6908 19.998 17.7363C19.998 17.7819 19.998 17.8275 19.998 17.873C19.998 17.9733 19.9935 18.069 19.9844 18.1602C19.9753 18.2513 19.9707 18.347 19.9707 18.4473C19.9707 18.4928 19.9753 18.5293 19.9844 18.5566C19.9935 18.5931 19.9935 18.6341 19.9844 18.6797C19.9753 18.7253 19.9525 18.7754 19.916 18.8301C19.8796 18.8939 19.8477 18.9486 19.8203 18.9941C19.7656 19.0762 19.7246 19.1263 19.6973 19.1445C19.6699 19.1628 19.6471 19.181 19.6289 19.1992C19.6107 19.2174 19.5924 19.2357 19.5742 19.2539C19.556 19.2812 19.5378 19.304 19.5195 19.3223C19.4831 19.3587 19.4466 19.3952 19.4102 19.4316C19.3737 19.4681 19.3327 19.5046 19.2871 19.541C19.2689 19.5592 19.2507 19.5775 19.2324 19.5957C19.2142 19.6139 19.196 19.6322 19.1777 19.6504C19.1322 19.6868 19.082 19.7188 19.0273 19.7461C18.9818 19.7734 18.9362 19.8099 18.8906 19.8555C18.7721 19.9375 18.6901 19.9876 18.6445 20.0059C18.6081 20.0241 18.5671 20.0469 18.5215 20.0742C18.4486 20.1198 18.3893 20.1608 18.3438 20.1973C18.3073 20.2337 18.248 20.2611 18.166 20.2793C18.1204 20.2975 18.0703 20.3158 18.0156 20.334C17.9701 20.3522 17.9245 20.375 17.8789 20.4023C17.7878 20.4388 17.6921 20.4889 17.5918 20.5527C17.5553 20.571 17.5189 20.5892 17.4824 20.6074C17.4551 20.6257 17.4186 20.6439 17.373 20.6621C17.3275 20.6803 17.2728 20.6986 17.209 20.7168C17.1543 20.735 17.0996 20.7578 17.0449 20.7852C17.0085 20.7669 16.972 20.7533 16.9355 20.7441C16.8991 20.7441 16.8581 20.7396 16.8125 20.7305C16.7578 20.7122 16.694 20.7031 16.6211 20.7031C16.5482 20.7031 16.4798 20.694 16.416 20.6758L16.0742 20.6484C16.0013 20.6393 15.9238 20.6257 15.8418 20.6074C15.7598 20.5892 15.6777 20.571 15.5957 20.5527C15.5228 20.5345 15.4499 20.5117 15.377 20.4844C15.3132 20.4661 15.2448 20.4388 15.1719 20.4023C15.0443 20.3203 14.9531 20.2565 14.8984 20.2109C14.8346 20.1654 14.7936 20.1289 14.7754 20.1016C14.7572 20.0742 14.7389 20.0469 14.7207 20.0195C14.6569 19.9648 14.625 19.9329 14.625 19.9238C14.6341 19.9238 14.6296 19.9147 14.6113 19.8965C14.5931 19.8783 14.5703 19.86 14.543 19.8418C14.5247 19.8327 14.5065 19.819 14.4883 19.8008C14.4609 19.7188 14.4427 19.6732 14.4336 19.6641C14.4245 19.6549 14.4154 19.6413 14.4062 19.623C14.3698 19.5684 14.3379 19.5137 14.3105 19.459C14.2832 19.4043 14.2604 19.3405 14.2422 19.2676C14.224 19.222 14.2057 19.1536 14.1875 19.0625C14.1419 18.9076 14.1191 18.7663 14.1191 18.6387C14.1191 18.5202 14.1283 18.3971 14.1465 18.2695C14.1647 18.151 14.1784 18.028 14.1875 17.9004C14.1875 17.8548 14.1829 17.8138 14.1738 17.7773C14.1738 17.7409 14.1784 17.6999 14.1875 17.6543C14.1966 17.554 14.2194 17.4629 14.2559 17.3809C14.2923 17.2988 14.3197 17.2077 14.3379 17.1074C14.3926 17.0618 14.4427 16.9935 14.4883 16.9023C14.5339 16.8112 14.5931 16.7383 14.666 16.6836C14.7754 16.6289 14.8438 16.5924 14.8711 16.5742C14.9076 16.556 14.9486 16.5378 14.9941 16.5195C15.1126 16.474 15.1947 16.4557 15.2402 16.4648C15.2858 16.474 15.3314 16.474 15.377 16.4648C15.4316 16.4557 15.4863 16.4466 15.541 16.4375C15.5957 16.4284 15.6549 16.4193 15.7188 16.4102C15.7826 16.4102 15.8555 16.4056 15.9375 16.3965C16.0286 16.3874 16.1016 16.3874 16.1562 16.3965C16.2018 16.4056 16.2565 16.4238 16.3203 16.4512C16.3932 16.4785 16.4525 16.5059 16.498 16.5332C16.6074 16.597 16.694 16.6654 16.7578 16.7383C16.8216 16.8203 16.8854 16.9069 16.9492 16.998C17.0039 17.0801 17.0449 17.1393 17.0723 17.1758C17.0996 17.2214 17.1224 17.2669 17.1406 17.3125C17.1589 17.349 17.1725 17.3945 17.1816 17.4492C17.1908 17.513 17.1953 17.5632 17.1953 17.5996C17.1953 17.6361 17.1771 17.6908 17.1406 17.7637C17.1042 17.8275 17.0814 17.8776 17.0723 17.9141C17.0632 17.9505 17.054 17.9779 17.0449 17.9961C17.0358 18.0234 17.0221 18.0462 17.0039 18.0645C16.9948 18.0918 16.9811 18.1146 16.9629 18.1328C16.8809 18.2331 16.8307 18.3014 16.8125 18.3379C16.7943 18.3561 16.7715 18.3743 16.7441 18.3926C16.7168 18.4199 16.694 18.4427 16.6758 18.4609C16.6302 18.5339 16.5938 18.584 16.5664 18.6113C16.4844 18.6751 16.4206 18.7207 16.375 18.748C16.3385 18.7754 16.3021 18.7982 16.2656 18.8164C16.1927 18.8346 16.1152 18.8346 16.0332 18.8164C15.9603 18.7982 15.901 18.7754 15.8555 18.748C15.8099 18.7207 15.7507 18.6751 15.6777 18.6113C15.6048 18.5566 15.5592 18.5065 15.541 18.4609C15.5228 18.4427 15.5091 18.4017 15.5 18.3379C15.4909 18.2741 15.4818 18.224 15.4727 18.1875C15.4635 18.0781 15.4681 17.9779 15.4863 17.8867C15.5046 17.7956 15.5273 17.7135 15.5547 17.6406C15.5911 17.5495 15.6139 17.4993 15.623 17.4902C15.6413 17.4811 15.6641 17.4629 15.6914 17.4355C15.7096 17.4173 15.737 17.4082 15.7734 17.4082C15.819 17.4082 15.8646 17.4036 15.9102 17.3945C15.9557 17.3854 15.9967 17.3763 16.0332 17.3672C16.0697 17.3581 16.1107 17.3626 16.1562 17.3809C16.2018 17.4447 16.2337 17.5221 16.252 17.6133C16.2702 17.7135 16.252 17.8001 16.1973 17.873C16.1882 17.9095 16.179 17.9505 16.1699 17.9961C16.1699 18.0417 16.1517 18.069 16.1152 18.0781C16.0697 18.0599 16.0378 18.0326 16.0195 17.9961C16.0104 17.9596 16.0059 17.9186 16.0059 17.873C15.9967 17.8275 16.0013 17.7819 16.0195 17.7363C16.0469 17.6999 16.0423 17.668 16.0059 17.6406C15.9512 17.6224 15.9056 17.6315 15.8691 17.668C15.8418 17.7135 15.819 17.7591 15.8008 17.8047C15.7826 17.8411 15.7689 17.8958 15.7598 17.9688C15.7507 18.0417 15.7507 18.1009 15.7598 18.1465C15.7689 18.1921 15.7871 18.2331 15.8145 18.2695C15.8509 18.3151 15.8874 18.3516 15.9238 18.3789C16.015 18.4701 16.1335 18.4655 16.2793 18.3652C16.3704 18.2832 16.4251 18.224 16.4434 18.1875C16.4616 18.1602 16.4935 18.1191 16.5391 18.0645C16.5573 18.0189 16.5892 17.9642 16.6348 17.9004C16.6895 17.8457 16.7214 17.7956 16.7305 17.75C16.7396 17.7135 16.735 17.6361 16.7168 17.5176C16.6986 17.3991 16.6667 17.3079 16.6211 17.2441C16.5846 17.1895 16.5208 17.1348 16.4297 17.0801C16.4023 17.0618 16.3659 17.0436 16.3203 17.0254C16.2839 17.0163 16.2428 16.998 16.1973 16.9707C16.1335 16.9342 16.0833 16.8932 16.0469 16.8477C16.0104 16.8021 15.9648 16.7702 15.9102 16.752C15.8646 16.7337 15.8145 16.7292 15.7598 16.7383C15.7142 16.7474 15.6595 16.7565 15.5957 16.7656C15.5592 16.7747 15.5137 16.7747 15.459 16.7656C15.4043 16.7656 15.3542 16.7702 15.3086 16.7793C15.2539 16.7975 15.2038 16.8249 15.1582 16.8613C15.1126 16.8978 15.0579 16.9206 14.9941 16.9297C14.9303 17.0208 14.8802 17.112 14.8438 17.2031C14.8346 17.2396 14.8301 17.2715 14.8301 17.2988C14.8301 17.3262 14.8255 17.3581 14.8164 17.3945C14.7982 17.4492 14.7845 17.4993 14.7754 17.5449C14.7663 17.5996 14.7572 17.6634 14.748 17.7363C14.7572 17.8366 14.7526 17.9186 14.7344 17.9824C14.7161 18.0553 14.7025 18.11 14.6934 18.1465C14.6934 18.1829 14.6934 18.2148 14.6934 18.2422C14.7025 18.2786 14.7116 18.3197 14.7207 18.3652C14.7207 18.429 14.7161 18.4883 14.707 18.543C14.707 18.5977 14.7161 18.6615 14.7344 18.7344C14.7708 18.862 14.7891 18.9486 14.7891 18.9941C14.7891 19.0397 14.8027 19.0898 14.8301 19.1445C14.8665 19.1992 14.8848 19.2357 14.8848 19.2539C14.8848 19.2721 14.8939 19.2904 14.9121 19.3086C14.9303 19.3359 14.9531 19.3678 14.9805 19.4043C15.0078 19.4499 15.0352 19.4909 15.0625 19.5273C15.1354 19.5911 15.1764 19.623 15.1855 19.623C15.2038 19.6322 15.222 19.6413 15.2402 19.6504C15.2858 19.7051 15.3223 19.737 15.3496 19.7461C15.3861 19.7643 15.4271 19.7826 15.4727 19.8008C15.5729 19.8464 15.6413 19.8691 15.6777 19.8691C15.7233 19.8691 15.7643 19.8737 15.8008 19.8828C15.8737 19.901 15.9466 19.9102 16.0195 19.9102C16.0924 19.9193 16.1654 19.9329 16.2383 19.9512C16.2839 19.9603 16.3203 19.9694 16.3477 19.9785C16.375 19.9967 16.4023 20.0104 16.4297 20.0195C16.4753 20.0286 16.5254 20.0332 16.5801 20.0332C16.6439 20.0332 16.6986 20.0332 16.7441 20.0332C16.8079 20.0332 16.8672 20.0332 16.9219 20.0332C16.9766 20.0332 17.0267 20.0286 17.0723 20.0195C17.1178 20.0104 17.1589 19.9967 17.1953 19.9785C17.2318 19.9603 17.2682 19.9421 17.3047 19.9238C17.3776 19.8965 17.4277 19.8737 17.4551 19.8555C17.4824 19.8372 17.5098 19.819 17.5371 19.8008C17.6191 19.7643 17.6784 19.7279 17.7148 19.6914C17.7604 19.6549 17.8014 19.6185 17.8379 19.582C17.8835 19.5456 17.9382 19.5046 18.002 19.459C18.0658 19.4225 18.125 19.3815 18.1797 19.3359L18.3711 19.1719C18.4076 19.1445 18.4349 19.1263 18.4531 19.1172C18.4805 19.1081 18.5033 19.0944 18.5215 19.0762C18.5853 19.0124 18.6309 18.9531 18.6582 18.8984C18.6855 18.8438 18.7038 18.7845 18.7129 18.7207C18.722 18.6569 18.7402 18.5931 18.7676 18.5293C18.7949 18.4837 18.8086 18.4336 18.8086 18.3789C18.8268 18.306 18.8451 18.2148 18.8633 18.1055C18.8906 18.0052 18.9089 17.9049 18.918 17.8047C18.918 17.7318 18.9134 17.6589 18.9043 17.5859C18.8952 17.513 18.8906 17.4264 18.8906 17.3262C18.9089 17.2533 18.918 17.2031 18.918 17.1758C18.9089 17.1302 18.8997 17.0892 18.8906 17.0527C18.8815 17.0163 18.877 16.9753 18.877 16.9297C18.877 16.8659 18.8815 16.8066 18.8906 16.752C18.8997 16.7064 18.8997 16.6471 18.8906 16.5742C18.8815 16.5104 18.8815 16.4603 18.8906 16.4238C18.8997 16.3965 18.9089 16.3691 18.918 16.3418C18.9271 16.2415 18.9271 16.1413 18.918 16.041C18.918 15.9408 18.918 15.8405 18.918 15.7402C18.9089 15.64 18.9043 15.5443 18.9043 15.4531C18.9134 15.362 18.9225 15.2708 18.9316 15.1797C18.9499 14.9792 18.9635 14.7878 18.9727 14.6055C18.9818 14.4141 18.9909 14.2272 19 14.0449C18.9727 14.0358 18.9499 14.0495 18.9316 14.0859C18.9134 14.1133 18.8952 14.1406 18.877 14.168C18.804 14.2682 18.7585 14.3411 18.7402 14.3867C18.722 14.4232 18.7038 14.4596 18.6855 14.4961C18.6491 14.5508 18.6263 14.5872 18.6172 14.6055C18.6081 14.6237 18.5898 14.6465 18.5625 14.6738C18.4987 14.7923 18.4303 14.8971 18.3574 14.9883C18.3392 15.0065 18.321 15.0247 18.3027 15.043C18.2845 15.0612 18.2663 15.0794 18.248 15.0977C18.2207 15.1706 18.1797 15.2344 18.125 15.2891C18.1068 15.3073 18.084 15.321 18.0566 15.3301C18.0384 15.3301 18.0156 15.3392 17.9883 15.3574C17.9062 15.4121 17.8607 15.444 17.8516 15.4531C17.8516 15.4531 17.8424 15.4577 17.8242 15.4668C17.7422 15.5124 17.6829 15.5488 17.6465 15.5762C17.61 15.6035 17.5736 15.6263 17.5371 15.6445C17.3913 15.6992 17.2728 15.7402 17.1816 15.7676C17.0996 15.7858 16.9993 15.7904 16.8809 15.7812C16.7988 15.7812 16.7259 15.7721 16.6621 15.7539C16.6074 15.7266 16.5436 15.7038 16.4707 15.6855C16.334 15.6582 16.2292 15.6354 16.1562 15.6172C16.0924 15.599 16.0378 15.5807 15.9922 15.5625C15.974 15.5443 15.9466 15.5397 15.9102 15.5488C15.8737 15.5488 15.8464 15.5397 15.8281 15.5215C15.737 15.4668 15.6823 15.4349 15.6641 15.4258C15.6458 15.4167 15.6276 15.403 15.6094 15.3848C15.5273 15.3301 15.4818 15.3027 15.4727 15.3027C15.3906 15.2572 15.3359 15.2207 15.3086 15.1934C15.2812 15.1569 15.2539 15.125 15.2266 15.0977C15.1901 15.0703 15.1582 15.0475 15.1309 15.0293C15.1035 15.002 15.0716 14.9746 15.0352 14.9473C14.9714 14.8926 14.9121 14.8379 14.8574 14.7832C14.8118 14.7194 14.7526 14.6693 14.6797 14.6328C14.6615 14.5964 14.6387 14.5645 14.6113 14.5371C14.584 14.5007 14.5566 14.4642 14.5293 14.4277C14.4746 14.373 14.4382 14.3229 14.4199 14.2773C14.4108 14.2227 14.3926 14.1725 14.3652 14.127C14.3105 14.0358 14.2741 13.9811 14.2559 13.9629C14.2467 13.9447 14.2422 13.9264 14.2422 13.9082C14.224 13.8079 14.2103 13.7533 14.2012 13.7441C14.1921 13.735 14.1875 13.7214 14.1875 13.7031C14.1784 13.6393 14.1738 13.571 14.1738 13.498C14.1829 13.416 14.1875 13.3477 14.1875 13.293C14.1784 13.1471 14.1693 13.0332 14.1602 12.9512C14.151 12.86 14.1465 12.7689 14.1465 12.6777C14.1556 12.6322 14.1647 12.5957 14.1738 12.5684C14.1921 12.5319 14.2012 12.4909 14.2012 12.4453C14.2012 12.418 14.1966 12.3906 14.1875 12.3633C14.1875 12.3268 14.1875 12.2949 14.1875 12.2676C14.1875 12.0306 14.2057 11.8346 14.2422 11.6797C14.2422 11.6615 14.2422 11.6387 14.2422 11.6113C14.2422 11.5749 14.2467 11.5475 14.2559 11.5293C14.2923 11.4017 14.3151 11.3242 14.3242 11.2969C14.3333 11.2604 14.3424 11.2194 14.3516 11.1738C14.3607 11.1465 14.3607 11.1191 14.3516 11.0918C14.3516 11.0645 14.3561 11.0371 14.3652 11.0098C14.4199 10.9004 14.4518 10.832 14.4609 10.8047C14.4701 10.7682 14.4883 10.7318 14.5156 10.6953C14.5521 10.6406 14.5703 10.6087 14.5703 10.5996C14.5794 10.5814 14.5931 10.5632 14.6113 10.5449C14.666 10.472 14.6934 10.431 14.6934 10.4219C14.7025 10.4128 14.7161 10.3991 14.7344 10.3809C14.8529 10.2806 14.9531 10.1849 15.0352 10.0938C15.1172 10.0026 15.2083 9.92057 15.3086 9.84766C15.3724 9.8112 15.4134 9.78841 15.4316 9.7793C15.4499 9.76107 15.4681 9.74284 15.4863 9.72461C15.5137 9.70638 15.541 9.69727 15.5684 9.69727C15.5957 9.68815 15.6185 9.67448 15.6367 9.65625C15.7096 9.61068 15.7507 9.59245 15.7598 9.60156C15.7689 9.60156 15.7826 9.59701 15.8008 9.58789C15.8555 9.56966 15.9056 9.54688 15.9512 9.51953C15.9967 9.48307 16.0423 9.45573 16.0879 9.4375C16.1152 9.41927 16.1426 9.41016 16.1699 9.41016C16.1973 9.41016 16.2292 9.40104 16.2656 9.38281C16.2839 9.3737 16.3021 9.36458 16.3203 9.35547C16.3477 9.34635 16.3796 9.33724 16.416 9.32812C16.4889 9.29167 16.5436 9.26888 16.5801 9.25977C16.6074 9.25065 16.6348 9.24154 16.6621 9.23242C16.6895 9.22331 16.7168 9.21419 16.7441 9.20508C16.7806 9.20508 16.8171 9.20508 16.8535 9.20508C16.89 9.20508 16.9264 9.20052 16.9629 9.19141C17.0085 9.18229 17.054 9.17318 17.0996 9.16406C17.1543 9.14583 17.2181 9.14583 17.291 9.16406C17.3092 9.16406 17.3275 9.16862 17.3457 9.17773C17.373 9.18685 17.4049 9.19141 17.4414 9.19141C17.4779 9.19141 17.5234 9.19141 17.5781 9.19141C17.6419 9.19141 17.6921 9.19596 17.7285 9.20508C17.8288 9.29622 17.8971 9.35091 17.9336 9.36914C18.0065 9.4056 18.0521 9.42839 18.0703 9.4375C18.0885 9.44661 18.1068 9.46029 18.125 9.47852C18.1523 9.50586 18.1751 9.5332 18.1934 9.56055C18.2207 9.57878 18.2435 9.59701 18.2617 9.61523C18.3164 9.67904 18.3483 9.72005 18.3574 9.73828C18.3757 9.75651 18.3939 9.7793 18.4121 9.80664C18.4577 9.87956 18.485 9.92513 18.4941 9.94336C18.5124 9.95247 18.5306 9.96615 18.5488 9.98438C18.64 10.0664 18.7129 10.1439 18.7676 10.2168C18.7949 10.2624 18.8177 10.3079 18.8359 10.3535C18.8633 10.39 18.8997 10.4219 18.9453 10.4492C18.9635 10.4036 18.9635 10.3535 18.9453 10.2988C18.9362 10.2441 18.9316 10.1895 18.9316 10.1348C18.9316 10.1165 18.9316 10.0846 18.9316 10.0391C18.9408 9.99349 18.9408 9.94792 18.9316 9.90234C18.9225 9.86589 18.9134 9.83854 18.9043 9.82031C18.8952 9.79297 18.8861 9.76562 18.877 9.73828C18.8678 9.71094 18.8633 9.68359 18.8633 9.65625C18.8633 9.61979 18.8587 9.58789 18.8496 9.56055C18.8405 9.5332 18.8314 9.50586 18.8223 9.47852C18.8223 9.44206 18.8177 9.41016 18.8086 9.38281C18.7995 9.32812 18.7812 9.27799 18.7539 9.23242C18.7357 9.17773 18.763 9.1276 18.8359 9.08203C18.9453 9.15495 19.0592 9.18685 19.1777 9.17773C19.2962 9.15951 19.4102 9.14583 19.5195 9.13672C19.5924 9.13672 19.6608 9.14128 19.7246 9.15039C19.7975 9.15951 19.8704 9.16406 19.9434 9.16406C19.998 9.16406 20.0527 9.15951 20.1074 9.15039C20.1621 9.14128 20.2168 9.13216 20.2715 9.12305C20.3444 9.11393 20.4082 9.10938 20.4629 9.10938C20.5267 9.10938 20.5905 9.10482 20.6543 9.0957C20.709 9.08659 20.7637 9.07747 20.8184 9.06836C20.873 9.05013 20.9323 9.03646 20.9961 9.02734C21.0599 9.01823 21.1237 9.01823 21.1875 9.02734C21.2513 9.02734 21.3105 9.01823 21.3652 9ZM17.1406 9.56055C17.0768 9.55143 17.0221 9.55143 16.9766 9.56055C16.931 9.56966 16.8991 9.57422 16.8809 9.57422C16.8262 9.57422 16.7715 9.57422 16.7168 9.57422C16.6621 9.5651 16.612 9.56966 16.5664 9.58789C16.5391 9.59701 16.5072 9.61068 16.4707 9.62891C16.4434 9.63802 16.416 9.65169 16.3887 9.66992C16.3522 9.68815 16.3112 9.70182 16.2656 9.71094C16.2292 9.72005 16.1973 9.73372 16.1699 9.75195C16.0788 9.81576 16.0241 9.84766 16.0059 9.84766C15.9421 9.92057 15.901 9.96159 15.8828 9.9707C15.8646 9.9707 15.8509 9.97526 15.8418 9.98438C15.778 10.0755 15.737 10.1302 15.7188 10.1484C15.6732 10.2669 15.6276 10.3581 15.582 10.4219C15.5456 10.4857 15.5091 10.5495 15.4727 10.6133C15.4544 10.6406 15.4408 10.6725 15.4316 10.709C15.4225 10.7454 15.4089 10.7819 15.3906 10.8184C15.3724 10.8548 15.3542 10.8867 15.3359 10.9141C15.3177 10.9414 15.304 10.9733 15.2949 11.0098C15.2767 11.0553 15.2676 11.1055 15.2676 11.1602C15.2676 11.2057 15.263 11.2513 15.2539 11.2969C15.2448 11.388 15.2357 11.4746 15.2266 11.5566C15.2266 11.6387 15.2311 11.7253 15.2402 11.8164C15.2493 11.9622 15.2493 12.0671 15.2402 12.1309C15.2402 12.1947 15.2402 12.263 15.2402 12.3359C15.2493 12.4089 15.2585 12.4772 15.2676 12.541C15.2767 12.6048 15.2858 12.6732 15.2949 12.7461C15.2949 12.8099 15.2904 12.8691 15.2812 12.9238C15.2812 12.9785 15.2858 13.0286 15.2949 13.0742C15.2949 13.1107 15.2995 13.1426 15.3086 13.1699C15.3268 13.1973 15.3451 13.2337 15.3633 13.2793C15.3724 13.3158 15.377 13.3568 15.377 13.4023C15.377 13.4388 15.3815 13.4798 15.3906 13.5254C15.3997 13.5618 15.4089 13.5983 15.418 13.6348C15.4271 13.6621 15.4362 13.6986 15.4453 13.7441C15.4544 13.7806 15.459 13.8216 15.459 13.8672C15.459 13.9036 15.4635 13.9447 15.4727 13.9902C15.5182 14.0814 15.5456 14.1497 15.5547 14.1953C15.5638 14.2318 15.5775 14.2728 15.5957 14.3184L15.6777 14.4824C15.696 14.5736 15.7142 14.6328 15.7324 14.6602C15.8053 14.7604 15.8555 14.8197 15.8828 14.8379C15.9375 14.8926 16.0104 14.9427 16.1016 14.9883C16.1471 15.0247 16.1927 15.0612 16.2383 15.0977C16.2839 15.125 16.3203 15.1432 16.3477 15.1523C16.4206 15.1797 16.4889 15.1934 16.5527 15.1934C16.6257 15.1934 16.6849 15.1934 16.7305 15.1934C16.8216 15.1842 16.8809 15.1706 16.9082 15.1523C16.9447 15.1341 16.9993 15.1022 17.0723 15.0566C17.127 15.0293 17.1816 15.002 17.2363 14.9746C17.291 14.9382 17.3366 14.9062 17.373 14.8789C17.4277 14.8333 17.4779 14.7923 17.5234 14.7559C17.5781 14.7103 17.6283 14.6738 17.6738 14.6465C17.7832 14.5736 17.8652 14.5098 17.9199 14.4551C17.9746 14.3913 18.0293 14.3275 18.084 14.2637C18.1113 14.2363 18.1432 14.1862 18.1797 14.1133C18.207 14.0768 18.2344 14.0404 18.2617 14.0039C18.2891 13.9583 18.321 13.9264 18.3574 13.9082C18.4121 13.8353 18.4486 13.7806 18.4668 13.7441C18.4941 13.7077 18.5169 13.6712 18.5352 13.6348C18.5807 13.571 18.6217 13.5072 18.6582 13.4434C18.7038 13.3704 18.7402 13.3021 18.7676 13.2383C18.8314 13.1562 18.8724 13.0742 18.8906 12.9922C18.9089 12.9557 18.918 12.9147 18.918 12.8691C18.918 12.8236 18.9225 12.778 18.9316 12.7324C18.9499 12.623 18.959 12.5046 18.959 12.377C18.959 12.2493 18.9499 12.1354 18.9316 12.0352C18.9225 11.9987 18.9134 11.9668 18.9043 11.9395C18.9043 11.9121 18.8997 11.8757 18.8906 11.8301C18.8815 11.7663 18.8815 11.7025 18.8906 11.6387C18.8997 11.5658 18.8952 11.4974 18.877 11.4336C18.8678 11.388 18.8496 11.347 18.8223 11.3105C18.804 11.2741 18.7858 11.2331 18.7676 11.1875C18.7493 11.1419 18.7266 11.1009 18.6992 11.0645C18.6719 11.0189 18.6491 10.9733 18.6309 10.9277C18.5579 10.8822 18.4987 10.8275 18.4531 10.7637C18.4167 10.6908 18.3711 10.6224 18.3164 10.5586L18.1523 10.3945C18.1159 10.3581 18.0794 10.3216 18.043 10.2852C18.0156 10.2487 17.9883 10.2168 17.9609 10.1895C17.9062 10.1257 17.8743 10.0892 17.8652 10.0801C17.8652 10.0618 17.8607 10.0482 17.8516 10.0391C17.8333 10.0026 17.8105 9.96615 17.7832 9.92969C17.765 9.89323 17.7467 9.85677 17.7285 9.82031C17.6829 9.77474 17.6374 9.74284 17.5918 9.72461C17.5462 9.69727 17.5052 9.66081 17.4688 9.61523C17.4049 9.61523 17.3457 9.60612 17.291 9.58789C17.2454 9.56966 17.1953 9.56055 17.1406 9.56055Z" fill="#333333"/>
</svg>
