<svg width="24" height="24" viewBox="0 0 24 24" fill="none" xmlns="http://www.w3.org/2000/svg">
<path d="M11.2145 17H10.1645L9.71648 13.906H6.55248L5.25048 17H4.27048L8.52648 7.2H9.67448L11.2145 17ZM9.61848 12.996L8.94648 8.264L6.91648 12.996H9.61848ZM14.3713 17.098C13.1393 17.098 12.5233 16.286 12.5233 14.662C12.5233 13.1593 12.8126 11.9833 13.3913 11.134C13.9699 10.2847 14.7166 9.86 15.6313 9.86C16.3406 9.86 16.8819 10.2053 17.2553 10.896L17.7033 9.986H18.2633L17.2553 17.294C17.1153 18.302 16.7793 19.0533 16.2473 19.548C15.7153 20.052 15.0666 20.304 14.3013 20.304C13.8719 20.304 13.5126 20.248 13.2233 20.136C12.9433 20.024 12.6493 19.898 12.3413 19.758L12.6213 19.016C13.2839 19.268 13.8533 19.394 14.3293 19.394C14.8146 19.394 15.2346 19.2307 15.5893 18.904C15.9439 18.5773 16.1679 18.0827 16.2613 17.42L16.4153 16.258L16.3313 16.328C15.6219 16.8413 14.9686 17.098 14.3713 17.098ZM16.9473 12.296C16.9473 11.8387 16.8119 11.47 16.5413 11.19C16.2706 10.91 15.9859 10.77 15.6873 10.77C14.9219 10.77 14.3666 11.1153 14.0213 11.806C13.6759 12.4873 13.5033 13.388 13.5033 14.508C13.5033 15.628 13.8533 16.188 14.5533 16.188C15.1693 16.188 15.8366 15.8753 16.5553 15.25C16.8166 13.3833 16.9473 12.3987 16.9473 12.296Z" fill="#888888"/>
</svg>
