<svg width="24" height="24" viewBox="0 0 24 24" fill="none" xmlns="http://www.w3.org/2000/svg">
<path d="M8.19653 7.256L5.13053 16.664V16.65C5.07453 16.79 4.9952 16.9067 4.89253 17C4.7992 17.084 4.68253 17.126 4.54253 17.126C4.46786 17.126 4.3932 17.1167 4.31853 17.098C4.2532 17.0887 4.1832 17.0747 4.10853 17.056H4.12253C3.59053 16.888 3.39453 16.5893 3.53453 16.16L6.72653 6.458C6.7732 6.30867 6.85253 6.18267 6.96453 6.08C7.08586 5.97733 7.22586 5.91667 7.38453 5.898C7.5432 5.87 7.6972 5.85133 7.84653 5.842C7.99586 5.82333 8.11253 5.814 8.19653 5.814C8.28053 5.814 8.3972 5.82333 8.54653 5.842C8.69586 5.85133 8.84986 5.86533 9.00853 5.884C9.1392 5.90267 9.2652 5.97267 9.38653 6.094C9.5172 6.21533 9.6152 6.33667 9.68053 6.458C10.2032 8.06333 10.7305 9.68267 11.2625 11.316C11.8039 12.94 12.3359 14.5547 12.8585 16.16C12.9892 16.5893 12.7932 16.888 12.2705 17.056C12.1959 17.0747 12.1259 17.0887 12.0605 17.098C12.0045 17.1167 11.9392 17.126 11.8645 17.126C11.7339 17.126 11.6125 17.084 11.5005 17C11.3979 16.9067 11.3232 16.79 11.2765 16.65V16.664L8.19653 7.256ZM9.24653 13.64C9.24653 13.9387 9.1392 14.1953 8.92453 14.41C8.7192 14.6153 8.4672 14.718 8.16853 14.718C7.86986 14.718 7.61786 14.6153 7.41253 14.41C7.2072 14.1953 7.10453 13.9387 7.10453 13.64C7.10453 13.3413 7.2072 13.0893 7.41253 12.884C7.61786 12.6693 7.86986 12.562 8.16853 12.562C8.4672 12.562 8.7192 12.6693 8.92453 12.884C9.1392 13.0893 9.24653 13.3413 9.24653 13.64ZM16.2402 16.02C15.9975 16.02 15.7455 15.978 15.4842 15.894C15.2322 15.81 14.9849 15.6887 14.7422 15.53C14.2382 15.2033 13.9862 14.6527 13.9862 13.878V10.714C13.9862 10.322 14.0515 9.986 14.1822 9.706C14.3222 9.426 14.5089 9.20667 14.7422 9.048C14.9849 8.89867 15.2322 8.782 15.4842 8.698C15.7362 8.614 15.9835 8.572 16.2262 8.572H18.5782C18.8115 8.572 19.0542 8.62333 19.3062 8.726C19.5582 8.82867 19.7915 8.95933 20.0062 9.118C20.2209 9.29533 20.3935 9.52867 20.5242 9.818C20.6549 10.1073 20.7202 10.434 20.7202 10.798V16.734C20.7202 17.126 20.6549 17.4573 20.5242 17.728C20.4029 18.008 20.2302 18.2413 20.0062 18.428C19.7915 18.6053 19.5582 18.7407 19.3062 18.834C19.0635 18.9367 18.8209 18.988 18.5782 18.988H16.2262C15.7315 18.988 15.2322 18.8433 14.7282 18.554C14.4669 18.4047 14.2755 18.2133 14.1542 17.98C14.0422 17.7467 13.9862 17.476 13.9862 17.168V17C13.9862 16.8133 14.0469 16.664 14.1682 16.552C14.2895 16.44 14.4809 16.384 14.7422 16.384C15.2649 16.44 15.5262 16.6453 15.5262 17V17.154C15.5262 17.2567 15.5962 17.3687 15.7362 17.49C15.8855 17.6113 16.1329 17.672 16.4782 17.672H18.2282C18.5735 17.672 18.8162 17.574 18.9562 17.378C19.1055 17.182 19.1802 16.9627 19.1802 16.72V10.812C19.1802 10.5787 19.1055 10.3687 18.9562 10.182C18.8162 9.986 18.5735 9.888 18.2282 9.888H16.4782C16.1329 9.888 15.8855 9.986 15.7362 10.182C15.5962 10.3687 15.5262 10.5787 15.5262 10.812V13.766C15.5262 13.9993 15.5962 14.2187 15.7362 14.424C15.8855 14.62 16.1329 14.718 16.4782 14.718H17.9342C18.2702 14.718 18.4382 14.9327 18.4382 15.362C18.4382 15.558 18.3962 15.7167 18.3122 15.838C18.2375 15.9593 18.1115 16.02 17.9342 16.02H16.2402Z" fill="#888888"/>
</svg>
