<svg width="24" height="24" viewBox="0 0 24 24" fill="none" xmlns="http://www.w3.org/2000/svg">
<g clip-path="url(#clip0_235_406)">
<path d="M10.744 16.9091L10.4728 15.4853L10.179 14.4683L8.05463 14.4231L6.17884 14.4683L5.88505 15.3723L5.59125 16.9091H3.33127L7.01504 6.01597H9.74962L13.0944 16.9091H10.744ZM8.41623 8.16296H8.25803L6.76644 12.7055L8.23543 12.7281L9.70442 12.7055L8.41623 8.16296ZM21.9607 10.1065C21.6593 10.1819 21.2224 10.2647 20.6499 10.3551L20.6047 10.4229C20.7704 10.7544 20.8533 11.1311 20.8533 11.5529C20.8533 12.3967 20.5444 13.0747 19.9267 13.5869C19.324 14.0841 18.4954 14.3327 17.4407 14.3327C17.1243 14.3327 16.8004 14.3026 16.4689 14.2423C16.3032 14.408 16.2203 14.5587 16.2203 14.6943C16.2203 14.8902 16.3484 15.0333 16.6045 15.1237C16.8757 15.199 17.3277 15.2744 17.9605 15.3497C18.5933 15.425 19.1282 15.523 19.5651 15.6435C20.002 15.749 20.3787 15.9448 20.6951 16.2311C21.0266 16.5174 21.1923 16.9166 21.1923 17.4289C21.1923 17.9562 21.0266 18.4308 20.6951 18.8527C20.002 19.7567 18.8796 20.2087 17.3277 20.2087C16.3032 20.2087 15.5122 19.9977 14.9547 19.5759C14.3973 19.154 14.1185 18.6041 14.1185 17.9261C14.4651 17.444 14.9397 17.0221 15.5423 16.6605V16.5701C14.7287 16.2688 14.3219 15.7565 14.3219 15.0333C14.6233 14.6717 15.0075 14.3252 15.4745 13.9937V13.9259C14.6459 13.4739 14.2315 12.7809 14.2315 11.8467C14.2315 10.8975 14.5329 10.1743 15.1355 9.67714C15.7533 9.16488 16.5895 8.90875 17.6441 8.90875C18.2618 8.90875 18.8118 9.01422 19.2939 9.22515C20.1075 9.07448 20.9362 8.84848 21.7799 8.54715L21.9607 8.70535V10.1065ZM18.9097 11.5981C18.9097 10.7393 18.4502 10.3099 17.5311 10.3099C16.6271 10.3099 16.1751 10.7469 16.1751 11.6207C16.1751 12.5398 16.6196 12.9918 17.5085 12.9767C18.4426 12.9918 18.9097 12.5323 18.9097 11.5981ZM19.3165 17.8583C19.3165 17.5419 19.1508 17.3234 18.8193 17.2029C18.4878 17.0974 18.081 17.0146 17.5989 16.9543C17.1318 16.9091 16.8531 16.8714 16.7627 16.8413C16.2354 17.2029 15.9717 17.5419 15.9717 17.8583C15.9717 18.1897 16.1073 18.4459 16.3785 18.6267C16.6497 18.8075 17.0414 18.8979 17.5537 18.8979C18.081 18.8979 18.5029 18.7999 18.8193 18.6041C19.1508 18.4233 19.3165 18.1747 19.3165 17.8583Z" fill="#888888"/>
</g>
<defs>
<clipPath id="clip0_235_406">
<rect width="24" height="24" fill="white"/>
</clipPath>
</defs>
</svg>
