<svg width="24" height="24" viewBox="0 0 24 24" fill="none" xmlns="http://www.w3.org/2000/svg">
<path d="M5.79248 18.044C5.38181 18.044 4.99914 17.946 4.64448 17.75C4.28981 17.554 4.00514 17.274 3.79048 16.91C3.58514 16.546 3.48248 16.112 3.48248 15.608C3.48248 15.16 3.58048 14.6653 3.77648 14.124C3.97248 13.592 4.26648 13.1113 4.65848 12.682C5.05048 12.2527 5.48448 11.912 5.96048 11.66C6.43648 11.3987 6.89848 11.268 7.34648 11.268C7.72914 11.268 8.06048 11.3987 8.34048 11.66C8.62981 11.912 8.77448 12.29 8.77448 12.794C8.77448 13.0367 8.73248 13.3073 8.64848 13.606C8.49914 14.1193 8.28914 14.5253 8.01848 14.824C7.74781 15.1227 7.46781 15.3373 7.17848 15.468C6.88914 15.5893 6.62781 15.65 6.39448 15.65C6.06781 15.65 5.87181 15.5707 5.80648 15.412C5.79714 15.3933 5.79248 15.37 5.79248 15.342C5.79248 15.286 5.81581 15.258 5.86248 15.258C5.90914 15.258 5.93248 15.286 5.93248 15.342C5.95114 15.4727 6.09581 15.538 6.36648 15.538C6.55314 15.538 6.76781 15.482 7.01048 15.37C7.26248 15.258 7.50514 15.0667 7.73848 14.796C7.98114 14.516 8.17248 14.1287 8.31248 13.634C8.40581 13.3167 8.45248 13.0227 8.45248 12.752C8.45248 12.3133 8.34048 11.9867 8.11648 11.772C7.89248 11.548 7.62181 11.436 7.30448 11.436C6.84714 11.436 6.42248 11.5713 6.03048 11.842C5.63848 12.1127 5.29314 12.458 4.99448 12.878C4.70514 13.298 4.47648 13.7413 4.30848 14.208C4.20581 14.4973 4.13114 14.7727 4.08448 15.034C4.03781 15.2953 4.01448 15.5427 4.01448 15.776C4.01448 16.4107 4.17314 16.9147 4.49048 17.288C4.81714 17.6707 5.26048 17.862 5.82048 17.862C6.38048 17.862 6.92181 17.722 7.44448 17.442C7.96714 17.162 8.46648 16.7793 8.94248 16.294C9.42781 15.818 9.88514 15.2813 10.3145 14.684C10.7438 14.0867 11.1405 13.466 11.5045 12.822C11.6445 12.5793 11.7798 12.3507 11.9105 12.136C12.0505 11.912 12.1858 11.702 12.3165 11.506C11.7751 11.4967 11.2665 11.5853 10.7905 11.772C10.3238 11.9587 9.96914 12.3273 9.72648 12.878C9.70781 12.9247 9.67048 12.9713 9.61448 13.018C9.55848 13.0647 9.51181 13.088 9.47448 13.088C9.45581 13.088 9.44648 13.074 9.44648 13.046C9.44648 12.9807 9.48381 12.8873 9.55848 12.766C9.91314 12.1407 10.3471 11.73 10.8605 11.534C11.3831 11.3287 11.9198 11.2353 12.4705 11.254C13.0491 10.3953 13.5905 9.69533 14.0945 9.154C14.6078 8.61267 15.0745 8.19267 15.4945 7.894C15.9145 7.59533 16.2738 7.39 16.5725 7.278C16.8711 7.15667 17.0951 7.096 17.2445 7.096C17.2631 7.096 17.2305 7.194 17.1465 7.39C17.0625 7.57667 16.9505 7.83333 16.8105 8.16C16.6705 8.47733 16.5071 8.83667 16.3205 9.238C16.1338 9.63 15.9425 10.036 15.7465 10.456C15.5598 10.8667 15.3778 11.2587 15.2005 11.632C15.2471 11.6413 15.2938 11.646 15.3405 11.646C15.3965 11.646 15.4478 11.646 15.4945 11.646C15.6251 11.646 15.7418 11.6367 15.8445 11.618C15.9471 11.5993 16.0358 11.5667 16.1105 11.52C16.2131 11.464 16.2831 11.436 16.3205 11.436C16.3578 11.436 16.3765 11.45 16.3765 11.478C16.3765 11.5153 16.3298 11.5667 16.2365 11.632C16.1431 11.6973 16.0311 11.744 15.9005 11.772C15.7698 11.7907 15.6251 11.8 15.4665 11.8C15.4105 11.8 15.3545 11.8 15.2985 11.8C15.2425 11.8 15.1818 11.7953 15.1165 11.786C14.8925 12.262 14.6638 12.738 14.4305 13.214C14.1971 13.6807 13.9918 14.1613 13.8145 14.656C13.6838 15.048 13.6185 15.342 13.6185 15.538C13.6185 15.7807 13.7071 15.902 13.8845 15.902C14.0991 15.902 14.4305 15.72 14.8785 15.356C15.2051 15.0853 15.5411 14.754 15.8865 14.362C16.2318 13.97 16.5211 13.578 16.7545 13.186C16.7545 13.1767 16.7545 13.172 16.7545 13.172C16.7638 13.172 16.7685 13.172 16.7685 13.172C16.7965 13.172 16.8245 13.1907 16.8525 13.228C16.8898 13.256 16.8991 13.2793 16.8805 13.298C16.6658 13.6713 16.3905 14.0587 16.0545 14.46C15.7185 14.852 15.3778 15.188 15.0325 15.468C14.7991 15.6547 14.5798 15.7947 14.3745 15.888C14.1785 15.9813 14.0011 16.028 13.8425 16.028C13.6651 16.028 13.5205 15.9627 13.4085 15.832C13.2965 15.692 13.2405 15.4867 13.2405 15.216C13.2405 14.964 13.2871 14.6793 13.3805 14.362C13.5111 13.914 13.6745 13.4707 13.8705 13.032C14.0665 12.584 14.2671 12.15 14.4725 11.73C14.1645 11.6833 13.8425 11.6367 13.5065 11.59C13.1705 11.5433 12.8391 11.5153 12.5125 11.506C12.3631 11.7207 12.2138 11.9493 12.0645 12.192C11.9245 12.4347 11.7798 12.6867 11.6305 12.948C11.0705 13.9467 10.4731 14.8333 9.83848 15.608C9.20381 16.3733 8.54581 16.9707 7.86448 17.4C7.19248 17.8293 6.50181 18.044 5.79248 18.044ZM14.5705 11.534C15.0091 10.6753 15.4291 9.90067 15.8305 9.21C16.2318 8.51933 16.5211 7.978 16.6985 7.586C16.7451 7.502 16.6705 7.488 16.4745 7.544C16.2785 7.6 15.9891 7.75867 15.6065 8.02C15.2331 8.28133 14.7945 8.678 14.2905 9.21C13.7865 9.73267 13.2451 10.4187 12.6665 11.268C13.0025 11.2773 13.3291 11.3147 13.6465 11.38C13.9731 11.436 14.2811 11.4873 14.5705 11.534ZM15.0223 20.466C14.789 20.466 14.5976 20.41 14.4483 20.298C14.2896 20.1953 14.2103 20.0413 14.2103 19.836C14.2103 19.7053 14.2476 19.5607 14.3223 19.402C14.3876 19.2433 14.4996 19.0707 14.6583 18.884C14.9103 18.576 15.2463 18.2867 15.6663 18.016C16.0863 17.7547 16.5203 17.5027 16.9683 17.26C17.4163 17.0267 17.813 16.8027 18.1583 16.588C18.233 16.3547 18.3076 16.0933 18.3823 15.804C18.4663 15.5147 18.541 15.2393 18.6063 14.978C18.429 15.2673 18.2143 15.524 17.9623 15.748C17.7196 15.9627 17.4256 16.07 17.0803 16.07C16.819 16.07 16.5996 15.972 16.4223 15.776C16.245 15.58 16.1563 15.2673 16.1563 14.838C16.1563 14.6607 16.1796 14.4647 16.2263 14.25C16.273 14.0353 16.343 13.8113 16.4363 13.578C16.5296 13.3353 16.6696 13.088 16.8563 12.836C17.0523 12.5747 17.2856 12.36 17.5563 12.192C17.827 12.0147 18.1303 11.926 18.4663 11.926C18.821 11.926 19.0683 11.9913 19.2083 12.122C19.3483 12.2527 19.4323 12.3553 19.4603 12.43C19.4696 12.4487 19.4743 12.472 19.4743 12.5C19.4743 12.5653 19.4416 12.598 19.3763 12.598C19.339 12.598 19.3063 12.5793 19.2783 12.542C19.1476 12.3833 19.017 12.2713 18.8863 12.206C18.765 12.1407 18.6436 12.108 18.5223 12.108C18.2983 12.108 18.0883 12.1967 17.8923 12.374C17.6963 12.5513 17.5236 12.766 17.3743 13.018C17.225 13.2607 17.099 13.4893 16.9963 13.704C16.9403 13.8253 16.875 14.0213 16.8003 14.292C16.7256 14.5627 16.6883 14.8287 16.6883 15.09C16.6883 15.3047 16.7256 15.4913 16.8003 15.65C16.875 15.7993 17.015 15.874 17.2203 15.874C17.463 15.874 17.687 15.7853 17.8923 15.608C18.0976 15.4213 18.275 15.2067 18.4243 14.964C18.583 14.7213 18.7043 14.5067 18.7883 14.32C19.0776 13.6853 19.3343 13.144 19.5583 12.696C19.7823 12.2387 19.983 11.912 20.1603 11.716C20.319 11.548 20.4496 11.464 20.5523 11.464C20.6643 11.464 20.7203 11.534 20.7203 11.674C20.7203 11.8047 20.6643 11.926 20.5523 12.038C20.4216 12.1687 20.2536 12.332 20.0483 12.528C19.843 12.7147 19.661 12.9527 19.5023 13.242C19.2223 13.7647 19.0356 14.2873 18.9423 14.81C18.849 15.3327 18.751 15.8553 18.6483 16.378C19.1523 16.042 19.5676 15.7247 19.8943 15.426C20.221 15.1273 20.5056 14.8287 20.7483 14.53C20.991 14.222 21.2336 13.8953 21.4763 13.55C21.5043 13.5127 21.537 13.494 21.5743 13.494C21.621 13.494 21.6443 13.522 21.6443 13.578C21.6443 13.6247 21.6256 13.6713 21.5883 13.718C21.383 13.998 21.1496 14.3013 20.8883 14.628C20.627 14.9453 20.3096 15.2813 19.9363 15.636C19.5723 15.9813 19.1196 16.336 18.5783 16.7C18.429 17.428 18.1863 18.03 17.8503 18.506C17.5143 18.9913 17.155 19.374 16.7723 19.654C16.399 19.9433 16.0676 20.1533 15.7783 20.284C15.5263 20.4053 15.2743 20.466 15.0223 20.466ZM14.9523 20.256C15.2136 20.256 15.4656 20.1813 15.7083 20.032C16.203 19.7333 16.6463 19.3273 17.0383 18.814C17.4303 18.31 17.7663 17.666 18.0463 16.882C17.7196 17.0687 17.3556 17.2693 16.9543 17.484C16.5623 17.708 16.1843 17.9413 15.8203 18.184C15.4563 18.436 15.1576 18.7113 14.9243 19.01C14.7656 19.206 14.6536 19.374 14.5883 19.514C14.5136 19.6633 14.4763 19.7893 14.4763 19.892C14.4763 20.0133 14.523 20.102 14.6163 20.158C14.7096 20.2233 14.8216 20.256 14.9523 20.256Z" fill="#888888"/>
</svg>
