<svg width="24" height="24" viewBox="0 0 24 24" fill="none" xmlns="http://www.w3.org/2000/svg">
<path d="M9.3877 16.4189L10.3311 16.2617L9.25098 13.6025H5.14941L4.07617 16.2617L5.04004 16.4189V17H2.10742V16.4189L3.1875 16.2617L6.77637 7.38867L6.48926 6.71191L7.59668 6.24707L11.6846 16.2617L12.7852 16.4189V17H9.3877V16.4189ZM5.4707 12.7754H8.9502L7.20703 8.38672L5.4707 12.7754ZM18.999 11.2373C19.2132 11.5837 19.3203 12.0143 19.3203 12.5293C19.3203 13.2539 18.9557 13.8965 18.2266 14.457C17.9076 14.7031 17.5339 14.9082 17.1055 15.0723L16.0596 15.4688C15.5583 15.6556 15.2734 15.7855 15.2051 15.8584C15.1413 15.9268 15.1094 15.9837 15.1094 16.0293C15.1094 16.0703 15.1322 16.1113 15.1777 16.1523C15.2233 16.1934 15.2985 16.2321 15.4033 16.2686C15.654 16.3551 16.0049 16.3984 16.4561 16.3984C16.9072 16.3984 17.3288 16.4235 17.7207 16.4736C18.1126 16.5192 18.459 16.6081 18.7598 16.7402C19.416 17.0365 19.7441 17.5423 19.7441 18.2578C19.7441 18.7409 19.555 19.1898 19.1768 19.6045C18.6527 20.1742 17.9098 20.5547 16.9482 20.7461C16.6611 20.8008 16.3444 20.8281 15.998 20.8281C15.6517 20.8281 15.2985 20.7917 14.9385 20.7188C14.5785 20.6458 14.264 20.5319 13.9951 20.377C13.4255 20.0534 13.1406 19.568 13.1406 18.9209C13.1406 18.4196 13.3525 18.0345 13.7764 17.7656L14.2207 17.499C14.3438 17.4352 14.4805 17.3874 14.6309 17.3555C14.7858 17.3236 14.9408 17.2871 15.0957 17.2461C14.6035 17.1504 14.264 16.9544 14.0771 16.6582C14.0133 16.5534 13.9814 16.444 13.9814 16.3301C13.9814 16.2116 14.0042 16.1113 14.0498 16.0293C14.0954 15.9473 14.1774 15.8652 14.2959 15.7832C14.4144 15.7012 14.5785 15.61 14.7881 15.5098L15.6016 15.127C15.1732 15.0449 14.7721 14.8467 14.3984 14.5322C13.8835 14.0993 13.626 13.4886 13.626 12.7002C13.626 11.9437 13.9587 11.3034 14.624 10.7793C15.2119 10.3099 15.859 10.0752 16.5654 10.0752C17.2718 10.0752 17.8825 10.2415 18.3975 10.5742C18.7256 10.3464 19.2679 10.1846 20.0244 10.0889L20.209 10.3008L19.8877 11.2373H18.999ZM14.3779 18.5244C14.3506 18.652 14.3369 18.8115 14.3369 19.0029C14.3369 19.1943 14.4076 19.3698 14.5488 19.5293C14.6901 19.6934 14.8701 19.8187 15.0889 19.9053C15.4443 20.0465 15.8454 20.1172 16.292 20.1172C16.7432 20.1172 17.0872 20.0807 17.3242 20.0078C17.5612 19.9349 17.7686 19.8301 17.9463 19.6934C18.3473 19.3926 18.5479 19.0007 18.5479 18.5176C18.5479 17.9115 18.1195 17.5697 17.2627 17.4922C17.012 17.4694 16.75 17.458 16.4766 17.458C15.6927 17.458 15.0706 17.6882 14.6104 18.1484C14.4827 18.276 14.4053 18.4014 14.3779 18.5244ZM14.8975 11.6953C14.8018 11.9186 14.7539 12.1921 14.7539 12.5156C14.7539 12.8346 14.8018 13.1126 14.8975 13.3496C14.9932 13.5866 15.123 13.7871 15.2871 13.9512C15.6198 14.2839 16.0482 14.4502 16.5723 14.4502C17.2559 14.4502 17.7435 14.1631 18.0352 13.5889C18.1445 13.3747 18.1992 13.1104 18.1992 12.7959C18.1992 12.4769 18.1514 12.1943 18.0557 11.9482C17.96 11.7021 17.8301 11.4925 17.666 11.3193C17.3242 10.9593 16.8958 10.7793 16.3809 10.7793C15.6517 10.7793 15.1572 11.0846 14.8975 11.6953Z" fill="#333333"/>
</svg>
