<svg width="24" height="24" viewBox="0 0 24 24" fill="none" xmlns="http://www.w3.org/2000/svg">
<path d="M2.53283 17.008C2.43016 17.008 2.33683 16.9753 2.25283 16.91C2.17816 16.854 2.13149 16.77 2.11283 16.658C2.04749 16.21 1.99149 15.7667 1.94483 15.328C1.90749 14.88 1.88883 14.4413 1.88883 14.012C1.88883 13.3213 1.94483 12.6493 2.05683 11.996C2.16883 11.3333 2.34149 10.6987 2.57483 10.092C2.86416 9.35467 3.24216 8.71533 3.70883 8.174C4.17549 7.62333 4.70749 7.194 5.30483 6.886C5.9115 6.578 6.56483 6.424 7.26483 6.424C7.97416 6.424 8.63683 6.58733 9.25283 6.914C9.86883 7.24067 10.4102 7.684 10.8768 8.244C11.3528 8.79467 11.7215 9.42 11.9828 10.12C12.2255 10.7173 12.4028 11.3613 12.5148 12.052C12.6268 12.7333 12.6828 13.4333 12.6828 14.152C12.6828 14.572 12.6642 14.992 12.6268 15.412C12.5988 15.8227 12.5522 16.2333 12.4868 16.644C12.4775 16.7747 12.4262 16.868 12.3328 16.924C12.2488 16.98 12.1602 17.008 12.0668 17.008C11.9548 17.008 11.8475 16.9613 11.7448 16.868C11.6515 16.784 11.6188 16.672 11.6468 16.532C11.6935 16.1773 11.7308 15.818 11.7588 15.454C11.7868 15.0807 11.8008 14.712 11.8008 14.348C11.8008 13.6293 11.7448 12.9293 11.6328 12.248C11.5208 11.5573 11.3435 10.9273 11.1008 10.358C10.8675 9.77933 10.5548 9.26133 10.1628 8.804C9.77083 8.34667 9.32283 7.98733 8.81883 7.726C8.32416 7.45533 7.7875 7.32 7.20883 7.32C6.64883 7.32 6.1355 7.446 5.66883 7.698C5.20216 7.94067 4.78683 8.27667 4.42283 8.706C4.06816 9.13533 3.76483 9.62533 3.51283 10.176C3.27016 10.7173 3.08816 11.2867 2.96683 11.884H10.6248C10.7742 11.884 10.8815 11.9307 10.9468 12.024C11.0122 12.108 11.0448 12.2013 11.0448 12.304C11.0448 12.4067 11.0075 12.5047 10.9328 12.598C10.8582 12.682 10.7555 12.724 10.6248 12.724H2.82683C2.80816 12.892 2.78949 13.0787 2.77083 13.284C2.76149 13.4893 2.75683 13.7087 2.75683 13.942C2.75683 14.39 2.77549 14.8473 2.81283 15.314C2.85016 15.7807 2.89216 16.182 2.93883 16.518C2.95749 16.6767 2.92016 16.798 2.82683 16.882C2.73349 16.966 2.63549 17.008 2.53283 17.008ZM19.4536 18.716C19.0522 18.716 18.7116 18.5807 18.4316 18.31C18.1516 18.0393 18.0209 17.6987 18.0396 17.288C18.0956 16.8867 18.2729 16.5647 18.5716 16.322C18.8796 16.0793 19.2482 15.8927 19.6776 15.762C20.1069 15.622 20.5316 15.5147 20.9516 15.44C20.9796 15.16 20.9982 14.978 21.0076 14.894C21.0262 14.8007 21.0402 14.7307 21.0496 14.684C20.6016 15.048 20.0882 15.3327 19.5096 15.538C18.9309 15.7433 18.3522 15.846 17.7736 15.846C17.2229 15.846 16.7096 15.748 16.2336 15.552C15.5336 15.2533 14.9969 14.796 14.6236 14.18C14.2596 13.5547 14.0776 12.8873 14.0776 12.178C14.0776 11.4127 14.2596 10.736 14.6236 10.148C14.9969 9.56 15.5009 9.098 16.1356 8.762C16.7702 8.426 17.4796 8.258 18.2636 8.258C18.8236 8.258 19.3509 8.35133 19.8456 8.538C20.3402 8.72467 20.7696 9.00933 21.1336 9.392C21.2922 9.392 21.3996 9.42467 21.4556 9.49C21.5209 9.55533 21.5629 9.63933 21.5816 9.742C21.6842 10.2087 21.7636 10.7827 21.8196 11.464C21.8849 12.1453 21.9176 12.8173 21.9176 13.48C21.9176 13.844 21.9082 14.1893 21.8896 14.516C21.8709 14.8427 21.8382 15.132 21.7916 15.384C22.2396 15.384 22.4402 15.538 22.3936 15.846C22.3936 15.9487 22.3516 16.0373 22.2676 16.112C22.1929 16.1867 22.0856 16.224 21.9456 16.224C21.9269 16.2147 21.8989 16.21 21.8616 16.21C21.8242 16.21 21.7496 16.21 21.6376 16.21C21.5349 16.6673 21.3949 17.0827 21.2176 17.456C21.0402 17.8387 20.8069 18.142 20.5176 18.366C20.2376 18.5993 19.8829 18.716 19.4536 18.716ZM16.8356 14.866C17.1249 14.9593 17.4422 15.006 17.7876 15.006C18.4036 15.006 19.0149 14.8613 19.6216 14.572C20.2282 14.2827 20.7229 13.8953 21.1056 13.41C21.1056 13.2607 21.0962 13.046 21.0776 12.766C21.0589 12.486 21.0309 12.1873 20.9936 11.87C20.9656 11.5433 20.9329 11.2493 20.8956 10.988C20.8676 10.7173 20.8442 10.5213 20.8256 10.4C20.6669 10.1107 20.4336 9.868 20.1256 9.672C19.8176 9.476 19.4769 9.33133 19.1036 9.238C18.7396 9.13533 18.3802 9.084 18.0256 9.084C17.4002 9.10267 16.8589 9.252 16.4016 9.532C15.9442 9.80267 15.5896 10.1713 15.3376 10.638C15.0949 11.0953 14.9736 11.6227 14.9736 12.22C14.9736 12.8453 15.1322 13.396 15.4496 13.872C15.7762 14.348 16.2382 14.6793 16.8356 14.866ZM19.4816 17.904C19.7149 17.904 19.9109 17.82 20.0696 17.652C20.2376 17.484 20.3776 17.2787 20.4896 17.036C20.6016 16.7933 20.6902 16.5553 20.7556 16.322C20.4942 16.378 20.2189 16.4527 19.9296 16.546C19.6402 16.6393 19.3929 16.7513 19.1876 16.882C18.9916 17.022 18.8936 17.1947 18.8936 17.4C18.8936 17.54 18.9496 17.6567 19.0616 17.75C19.1829 17.8527 19.3229 17.904 19.4816 17.904Z" fill="#888888"/>
</svg>
