<svg width="24" height="24" viewBox="0 0 24 24" fill="none" xmlns="http://www.w3.org/2000/svg">
<path d="M2.51046 17C2.42646 17 2.38446 16.9533 2.38446 16.86V16.65C2.38446 16.5567 2.43113 16.5007 2.52446 16.482L3.30846 16.3C3.42046 16.2627 3.51379 16.2113 3.58846 16.146C3.66313 16.0807 3.72379 15.992 3.77046 15.88L7.53646 6.78C7.57379 6.696 7.63913 6.64467 7.73246 6.626L8.43246 6.486C8.51646 6.458 8.56779 6.49533 8.58646 6.598L8.75446 7.312L12.5765 15.894C12.6231 16.006 12.6838 16.0947 12.7585 16.16C12.8331 16.2253 12.9311 16.272 13.0525 16.3L13.7525 16.482C13.8365 16.51 13.8785 16.566 13.8785 16.65V16.874C13.8785 16.958 13.8318 17 13.7385 17H9.16046C9.07646 17 9.03446 16.9533 9.03446 16.86V16.65C9.03446 16.566 9.08113 16.51 9.17446 16.482L10.1405 16.314C10.4205 16.2673 10.5838 16.188 10.6305 16.076C10.6865 15.964 10.6585 15.7867 10.5465 15.544L7.28446 7.956L8.26446 7.382L5.00246 15.53C4.89046 15.8007 4.86713 15.9873 4.93246 16.09C4.99779 16.1927 5.16113 16.2673 5.42246 16.314L6.44446 16.496C6.52846 16.5053 6.57046 16.5567 6.57046 16.65V16.874C6.57046 16.958 6.52379 17 6.43046 17H2.51046ZM5.46446 12.646C6.31379 12.6833 7.16313 12.6973 8.01246 12.688C8.87113 12.6787 9.72046 12.6553 10.5605 12.618V13.514C9.72046 13.5513 8.87113 13.5747 8.01246 13.584C7.16313 13.584 6.31379 13.5653 5.46446 13.528V12.646ZM17.5026 20.136C16.5226 20.136 15.7806 19.9867 15.2766 19.688C14.7819 19.3987 14.5346 18.9647 14.5346 18.386C14.5346 18.1713 14.5999 17.966 14.7306 17.77C14.8706 17.574 15.0573 17.392 15.2906 17.224C15.5239 17.0653 15.7853 16.9393 16.0746 16.846L16.4946 17.014C16.2706 17.1447 16.0979 17.294 15.9766 17.462C15.8646 17.63 15.8086 17.8167 15.8086 18.022C15.8086 18.4233 15.9859 18.7313 16.3406 18.946C16.6953 19.17 17.1993 19.282 17.8526 19.282C19.2713 19.282 19.9806 18.8807 19.9806 18.078C19.9806 17.7887 19.8779 17.5693 19.6726 17.42C19.4766 17.2707 19.1966 17.196 18.8326 17.196H17.1386C16.5039 17.196 16.0139 17.0747 15.6686 16.832C15.3326 16.5893 15.1646 16.244 15.1646 15.796C15.1646 15.6 15.2066 15.4273 15.2906 15.278C15.3746 15.1193 15.5193 14.9607 15.7246 14.802C15.9393 14.6433 16.2286 14.466 16.5926 14.27L17.0266 14.326C16.7839 14.466 16.6019 14.6247 16.4806 14.802C16.3593 14.9793 16.2986 15.1567 16.2986 15.334C16.2986 15.5487 16.3733 15.7027 16.5226 15.796C16.6813 15.8893 16.9193 15.936 17.2366 15.936H19.3086C19.9246 15.936 20.3959 16.076 20.7226 16.356C21.0493 16.636 21.2126 17.0373 21.2126 17.56C21.2126 18.0827 21.0586 18.5353 20.7506 18.918C20.4519 19.31 20.0273 19.6087 19.4766 19.814C18.9259 20.0287 18.2679 20.136 17.5026 20.136ZM17.7826 13.962C18.2399 13.962 18.5946 13.8267 18.8466 13.556C19.1079 13.2853 19.2386 12.912 19.2386 12.436C19.2386 11.9507 19.0939 11.554 18.8046 11.246C18.5153 10.938 18.1373 10.784 17.6706 10.784C17.2506 10.784 16.9146 10.9147 16.6626 11.176C16.4106 11.4373 16.2846 11.792 16.2846 12.24C16.2846 12.7533 16.4199 13.1687 16.6906 13.486C16.9706 13.8033 17.3346 13.962 17.7826 13.962ZM19.0006 10.308C19.5046 10.5133 19.8966 10.8027 20.1766 11.176C20.4659 11.54 20.6106 11.946 20.6106 12.394C20.6106 12.8607 20.4939 13.276 20.2606 13.64C20.0273 13.9947 19.6959 14.2747 19.2666 14.48C18.8466 14.676 18.3473 14.774 17.7686 14.774C17.1806 14.774 16.6626 14.6713 16.2146 14.466C15.7759 14.2607 15.4306 13.9807 15.1786 13.626C14.9359 13.2713 14.8146 12.856 14.8146 12.38C14.8146 11.904 14.9406 11.484 15.1926 11.12C15.4446 10.756 15.7946 10.476 16.2426 10.28C16.6906 10.0747 17.2086 9.972 17.7966 9.972C18.2259 9.972 18.6553 10 19.0846 10.056C19.5139 10.112 19.9713 10.1727 20.4566 10.238L19.5046 10.182L21.1286 9.748C21.2126 9.73867 21.2779 9.77133 21.3246 9.846C21.3713 9.97667 21.4133 10.1307 21.4506 10.308C21.4879 10.476 21.5066 10.6393 21.5066 10.798C21.5159 10.882 21.4739 10.924 21.3806 10.924H19.0006V10.308Z" fill="#888888"/>
</svg>
