<svg width="24" height="24" viewBox="0 0 24 24" fill="none" xmlns="http://www.w3.org/2000/svg">
<path d="M2.61984 17C2.54517 17 2.50784 16.958 2.50784 16.874V16.72C2.50784 16.636 2.54517 16.5893 2.61984 16.58L3.62784 16.412C3.72117 16.384 3.79584 16.3467 3.85184 16.3C3.91717 16.244 3.9685 16.1693 4.00584 16.076L7.71584 6.808C7.7345 6.73333 7.78584 6.69133 7.86984 6.682L8.33184 6.57C8.4065 6.55133 8.45317 6.584 8.47184 6.668L8.61184 7.312L12.3778 16.118C12.4152 16.202 12.4665 16.2673 12.5318 16.314C12.5972 16.3607 12.6765 16.398 12.7698 16.426L13.6938 16.58C13.7685 16.608 13.8058 16.6593 13.8058 16.734V16.888C13.8058 16.9627 13.7685 17 13.6938 17H9.42384C9.34917 17 9.31184 16.958 9.31184 16.874V16.72C9.31184 16.6547 9.35384 16.608 9.43784 16.58L10.5858 16.44C10.8472 16.4027 11.0012 16.3373 11.0478 16.244C11.0945 16.1413 11.0665 15.9733 10.9638 15.74L7.57584 7.648L8.23384 7.326L4.94384 15.754C4.8505 15.9967 4.8365 16.1647 4.90184 16.258C4.96717 16.342 5.12584 16.4027 5.37784 16.44L6.55384 16.594C6.6285 16.6033 6.66584 16.65 6.66584 16.734V16.888C6.66584 16.9627 6.62384 17 6.53984 17H2.61984ZM5.68584 12.604C6.4885 12.632 7.28184 12.646 8.06584 12.646C8.85917 12.6367 9.6525 12.618 10.4458 12.59V13.262C9.6525 13.29 8.85917 13.304 8.06584 13.304C7.28184 13.304 6.4885 13.2947 5.68584 13.276V12.604ZM17.5596 20.164C16.5889 20.164 15.8516 20.0053 15.3476 19.688C14.8436 19.38 14.5916 18.932 14.5916 18.344C14.5916 18.1107 14.6616 17.8913 14.8016 17.686C14.9509 17.4807 15.1376 17.294 15.3616 17.126C15.5949 16.9673 15.8423 16.846 16.1036 16.762L16.5096 16.888C16.1736 17.0467 15.9216 17.2333 15.7536 17.448C15.5856 17.6627 15.5016 17.896 15.5016 18.148C15.5016 18.5773 15.6929 18.9087 16.0756 19.142C16.4583 19.3753 16.9996 19.492 17.6996 19.492C19.3329 19.492 20.1496 19.0113 20.1496 18.05C20.1496 17.7327 20.0376 17.4853 19.8136 17.308C19.5989 17.14 19.2956 17.056 18.9036 17.056H17.1676C16.5423 17.056 16.0709 16.9487 15.7536 16.734C15.4363 16.51 15.2776 16.1833 15.2776 15.754C15.2776 15.5673 15.3103 15.404 15.3756 15.264C15.4503 15.124 15.5856 14.984 15.7816 14.844C15.9776 14.6947 16.2436 14.5173 16.5796 14.312L16.9156 14.41C16.6356 14.5873 16.4303 14.7647 16.2996 14.942C16.1783 15.11 16.1176 15.292 16.1176 15.488C16.1176 15.7213 16.2016 15.894 16.3696 16.006C16.5469 16.1087 16.8129 16.16 17.1676 16.16H19.1276C19.7436 16.16 20.2149 16.3 20.5416 16.58C20.8683 16.8507 21.0316 17.2427 21.0316 17.756C21.0316 18.2507 20.8916 18.6753 20.6116 19.03C20.3316 19.394 19.9303 19.674 19.4076 19.87C18.8943 20.066 18.2783 20.164 17.5596 20.164ZM17.6996 14.144C18.2689 14.144 18.7076 13.9947 19.0156 13.696C19.3329 13.388 19.4916 12.9633 19.4916 12.422C19.4916 11.8993 19.3189 11.4793 18.9736 11.162C18.6283 10.8353 18.1756 10.672 17.6156 10.672C17.1116 10.672 16.7056 10.8213 16.3976 11.12C16.0989 11.4187 15.9496 11.82 15.9496 12.324C15.9496 12.856 16.1083 13.2947 16.4256 13.64C16.7523 13.976 17.1769 14.144 17.6996 14.144ZM18.8756 10.336C19.3609 10.4947 19.7389 10.756 20.0096 11.12C20.2896 11.484 20.4296 11.9087 20.4296 12.394C20.4296 12.87 20.3176 13.29 20.0936 13.654C19.8696 14.0087 19.5523 14.284 19.1416 14.48C18.7309 14.6667 18.2456 14.76 17.6856 14.76C17.1443 14.76 16.6683 14.662 16.2576 14.466C15.8469 14.27 15.5249 13.9947 15.2916 13.64C15.0676 13.2853 14.9556 12.8747 14.9556 12.408C14.9556 11.932 15.0676 11.5167 15.2916 11.162C15.5249 10.8073 15.8469 10.532 16.2576 10.336C16.6683 10.14 17.1489 10.042 17.6996 10.042C18.0543 10.042 18.4323 10.0653 18.8336 10.112C19.2443 10.1587 19.6969 10.21 20.1916 10.266L19.4776 10.252L20.9756 9.832C21.0503 9.82267 21.1109 9.85067 21.1576 9.916C21.2043 10.0093 21.2463 10.1213 21.2836 10.252C21.3303 10.3827 21.3583 10.5133 21.3676 10.644C21.3769 10.7187 21.3443 10.756 21.2696 10.756H18.8616L18.8756 10.336Z" fill="#888888"/>
</svg>
