<svg width="24" height="24" viewBox="0 0 24 24" fill="none" xmlns="http://www.w3.org/2000/svg">
<path d="M2.62569 17C2.56035 17 2.52769 16.9673 2.52769 16.902V16.762C2.52769 16.6967 2.56502 16.6593 2.63969 16.65L3.78769 16.496C3.86235 16.4773 3.92769 16.4447 3.98369 16.398C4.03969 16.3513 4.07702 16.286 4.09569 16.202L7.77769 6.836C7.80569 6.77067 7.85235 6.72867 7.91769 6.71L8.25369 6.64C8.31902 6.62133 8.36102 6.64933 8.37969 6.724L8.50569 7.298L12.2297 16.258C12.2577 16.3233 12.3044 16.3793 12.3697 16.426C12.435 16.4633 12.5097 16.4913 12.5937 16.51L13.6717 16.65C13.737 16.6593 13.7697 16.6967 13.7697 16.762V16.902C13.7697 16.9673 13.737 17 13.6717 17H9.55569C9.49035 17 9.45769 16.9673 9.45769 16.902V16.762C9.45769 16.6967 9.49035 16.6593 9.55569 16.65L10.8297 16.524C11.063 16.496 11.1984 16.4353 11.2357 16.342C11.2824 16.2487 11.259 16.0947 11.1657 15.88L7.70769 7.48L8.16969 7.34L4.86569 15.908C4.78169 16.132 4.77235 16.286 4.83769 16.37C4.90302 16.4447 5.05235 16.496 5.28569 16.524L6.58769 16.664C6.65302 16.664 6.68569 16.6967 6.68569 16.762V16.902C6.68569 16.9673 6.65302 17 6.58769 17H2.62569ZM5.77569 12.59C6.54102 12.6087 7.30169 12.618 8.05769 12.618C8.82302 12.6087 9.58835 12.5947 10.3537 12.576V13.122C9.58835 13.1407 8.82302 13.15 8.05769 13.15C7.30169 13.15 6.54102 13.1453 5.77569 13.136V12.59ZM17.5257 20.164C16.5831 20.164 15.8597 20.0053 15.3557 19.688C14.8517 19.3707 14.5997 18.9133 14.5997 18.316C14.5997 18.064 14.6744 17.8307 14.8237 17.616C14.9824 17.4013 15.1784 17.2147 15.4117 17.056C15.6544 16.9067 15.8924 16.7947 16.1257 16.72L16.5037 16.832C16.1024 17 15.7991 17.196 15.5937 17.42C15.3977 17.6533 15.2997 17.9147 15.2997 18.204C15.2997 18.652 15.5004 18.9973 15.9017 19.24C16.3031 19.4827 16.8677 19.604 17.5957 19.604C19.3411 19.604 20.2137 19.072 20.2137 18.008C20.2137 17.6907 20.0971 17.4387 19.8637 17.252C19.6397 17.0653 19.3271 16.972 18.9257 16.972H17.1617C16.5271 16.972 16.0604 16.8693 15.7617 16.664C15.4631 16.4587 15.3137 16.146 15.3137 15.726C15.3137 15.558 15.3464 15.4087 15.4117 15.278C15.4771 15.138 15.5984 14.998 15.7757 14.858C15.9624 14.7087 16.2144 14.5407 16.5317 14.354L16.8257 14.438C16.5271 14.6433 16.3124 14.8347 16.1817 15.012C16.0511 15.1893 15.9857 15.3807 15.9857 15.586C15.9857 15.8287 16.0791 16.0107 16.2657 16.132C16.4617 16.244 16.7557 16.3 17.1477 16.3H19.0377C19.6351 16.3 20.0971 16.4353 20.4237 16.706C20.7504 16.9767 20.9137 17.364 20.9137 17.868C20.9137 18.344 20.7784 18.7547 20.5077 19.1C20.2371 19.4453 19.8497 19.7067 19.3457 19.884C18.8417 20.0707 18.2351 20.164 17.5257 20.164ZM17.6097 14.228C18.2351 14.228 18.7204 14.0693 19.0657 13.752C19.4111 13.4347 19.5837 12.9867 19.5837 12.408C19.5837 11.8573 19.4017 11.4187 19.0377 11.092C18.6737 10.7653 18.1837 10.602 17.5677 10.602C17.0077 10.602 16.5597 10.7653 16.2237 11.092C15.8877 11.4093 15.7197 11.834 15.7197 12.366C15.7197 12.9167 15.8924 13.3647 16.2377 13.71C16.5831 14.0553 17.0404 14.228 17.6097 14.228ZM18.7577 10.322C19.2431 10.4713 19.6211 10.7327 19.8917 11.106C20.1624 11.47 20.2977 11.904 20.2977 12.408C20.2977 12.884 20.1857 13.2993 19.9617 13.654C19.7471 13.9993 19.4344 14.27 19.0237 14.466C18.6224 14.662 18.1464 14.76 17.5957 14.76C17.0731 14.76 16.6157 14.662 16.2237 14.466C15.8317 14.2607 15.5237 13.9853 15.2997 13.64C15.0851 13.2853 14.9777 12.8747 14.9777 12.408C14.9777 11.9413 15.0851 11.5353 15.2997 11.19C15.5237 10.8353 15.8364 10.5647 16.2377 10.378C16.6391 10.182 17.1057 10.084 17.6377 10.084C17.9457 10.084 18.2911 10.1027 18.6737 10.14C19.0657 10.168 19.5184 10.2053 20.0317 10.252L19.4297 10.28L20.8997 9.874C20.9651 9.85533 21.0164 9.874 21.0537 9.93C21.1004 10.0233 21.1471 10.1213 21.1937 10.224C21.2404 10.3267 21.2777 10.4387 21.3057 10.56C21.3151 10.6253 21.2824 10.658 21.2077 10.658H18.7437L18.7577 10.322Z" fill="#888888"/>
</svg>
