<svg width="24" height="24" viewBox="0 0 24 24" fill="none" xmlns="http://www.w3.org/2000/svg">
<path d="M6.84521 11.744H9.36521L8.07721 7.684L7.95121 8.258L6.84521 11.744ZM9.16921 15.328C9.16921 15.132 9.18788 14.9593 9.22521 14.81C9.69188 14.7167 10.0279 14.6093 10.2332 14.488L9.56121 12.374H6.64921L5.94921 14.6C6.17321 14.7213 6.52788 14.7913 7.01321 14.81C7.01321 14.9313 6.99454 15.104 6.95721 15.328H4.21321C4.21321 15.132 4.23188 14.9593 4.26921 14.81C4.79188 14.7167 5.13721 14.446 5.30521 13.998L7.76921 6.578C8.07721 6.48467 8.50654 6.438 9.05721 6.438L11.5072 13.998C11.6005 14.2873 11.7265 14.4927 11.8852 14.614C12.0532 14.726 12.3005 14.7913 12.6272 14.81C12.6085 15.034 12.5852 15.2067 12.5572 15.328H9.16921ZM15.1427 12.262C15.4041 12.5607 15.7214 12.71 16.0947 12.71C16.4681 12.71 16.7621 12.57 16.9767 12.29C17.2007 12.01 17.3127 11.618 17.3127 11.114C17.3127 10.498 17.1821 10.0407 16.9207 9.742C16.6687 9.434 16.3514 9.28 15.9687 9.28C15.5954 9.28 15.3014 9.42 15.0867 9.7C14.8721 9.98 14.7647 10.3673 14.7647 10.862C14.7647 11.4873 14.8907 11.954 15.1427 12.262ZM17.7887 15.454H14.9887C14.7927 15.454 14.6201 15.44 14.4707 15.412C14.1161 15.7107 13.9387 16.0513 13.9387 16.434C13.9387 16.826 14.1161 17.1293 14.4707 17.344C14.8347 17.568 15.3667 17.68 16.0667 17.68C16.7761 17.68 17.3687 17.5167 17.8447 17.19C18.3301 16.8727 18.5727 16.5227 18.5727 16.14C18.5727 15.6827 18.3114 15.454 17.7887 15.454ZM17.9007 14.376C18.4421 14.376 18.8527 14.4973 19.1327 14.74C19.4221 14.9733 19.5667 15.3 19.5667 15.72C19.5574 16.4667 19.1654 17.1527 18.3907 17.778C17.6161 18.4033 16.7014 18.716 15.6467 18.716C14.8534 18.716 14.2141 18.5433 13.7287 18.198C13.2434 17.862 13.0007 17.386 13.0007 16.77C13.0007 16.154 13.3321 15.65 13.9947 15.258C13.5561 15.0433 13.3367 14.6607 13.3367 14.11C13.3367 13.5593 13.6867 13.1253 14.3867 12.808C13.6867 12.3973 13.3367 11.7907 13.3367 10.988C13.3367 10.3067 13.5934 9.76533 14.1067 9.364C14.6201 8.96267 15.2407 8.762 15.9687 8.762C16.6967 8.762 17.2987 8.92067 17.7747 9.238C18.3347 8.82733 19.0021 8.622 19.7767 8.622C19.7861 8.66867 19.7907 8.75267 19.7907 8.874C19.7907 8.99533 19.7674 9.196 19.7207 9.476L18.2507 9.644C18.5681 10.0173 18.7267 10.4653 18.7267 10.988C18.7267 11.6693 18.4701 12.2153 17.9567 12.626C17.4527 13.0273 16.8134 13.228 16.0387 13.228C15.6281 13.228 15.2407 13.1627 14.8767 13.032C14.4754 13.2373 14.2747 13.4847 14.2747 13.774C14.2747 13.9513 14.3447 14.1007 14.4847 14.222C14.6247 14.334 14.8301 14.39 15.1007 14.39L17.8307 14.376C17.8494 14.376 17.8727 14.376 17.9007 14.376Z" fill="#333333"/>
</svg>
