<svg width="24" height="24" viewBox="0 0 24 24" fill="none" xmlns="http://www.w3.org/2000/svg">
<path d="M6.89596 11.926H9.63996L8.23996 7.628L8.09996 8.23L6.89596 11.926ZM9.47196 15.314C9.47196 15.1553 9.49063 15.02 9.52796 14.908C9.94796 14.8427 10.2746 14.74 10.508 14.6L9.79396 12.43H6.74196L5.99996 14.684C6.28929 14.8147 6.63929 14.8893 7.04996 14.908C7.04996 15.0107 7.03129 15.146 6.99396 15.314H4.41796C4.41796 15.1927 4.43663 15.0573 4.47396 14.908C4.78196 14.8613 5.01529 14.7773 5.17396 14.656C5.33263 14.5253 5.44929 14.3527 5.52396 14.138L8.01596 6.704C8.23996 6.62 8.54329 6.578 8.92596 6.578L11.39 14.124C11.474 14.3947 11.6046 14.5907 11.782 14.712C11.9593 14.824 12.2113 14.8893 12.538 14.908C12.5193 15.0947 12.496 15.23 12.468 15.314H9.47196ZM14.795 12.346C15.103 12.6727 15.4764 12.836 15.915 12.836C16.3537 12.836 16.699 12.6867 16.951 12.388C17.2124 12.0893 17.343 11.6973 17.343 11.212C17.343 10.54 17.189 10.036 16.881 9.7C16.5824 9.364 16.2137 9.196 15.775 9.196C15.3457 9.196 15.0004 9.35 14.739 9.658C14.4777 9.966 14.347 10.3813 14.347 10.904C14.347 11.5387 14.4964 12.0193 14.795 12.346ZM14.291 15.342C13.8524 15.6593 13.633 16.0373 13.633 16.476C13.633 16.9147 13.8197 17.2553 14.193 17.498C14.5757 17.7407 15.131 17.862 15.859 17.862C16.587 17.862 17.2124 17.6753 17.735 17.302C18.2577 16.938 18.5144 16.546 18.505 16.126C18.505 15.622 18.225 15.37 17.665 15.37L14.809 15.384C14.613 15.384 14.4404 15.37 14.291 15.342ZM17.735 14.53C18.2577 14.53 18.659 14.6467 18.939 14.88C19.2284 15.1133 19.373 15.4307 19.373 15.832C19.3637 16.5227 18.9764 17.162 18.211 17.75C17.4457 18.338 16.559 18.632 15.551 18.632C14.767 18.632 14.137 18.4593 13.661 18.114C13.1944 17.778 12.961 17.302 12.961 16.686C12.961 16.0793 13.2737 15.5893 13.899 15.216C13.4604 15.0013 13.241 14.6327 13.241 14.11C13.241 13.5873 13.5957 13.1673 14.305 12.85C13.6144 12.4393 13.269 11.828 13.269 11.016C13.269 10.3347 13.5164 9.79333 14.011 9.392C14.5057 8.98133 15.0984 8.776 15.789 8.776C16.4797 8.776 17.049 8.93467 17.497 9.252C18.0477 8.86 18.701 8.664 19.457 8.664C19.4664 8.70133 19.471 8.77133 19.471 8.874C19.471 8.96733 19.4477 9.14467 19.401 9.406L17.875 9.574C18.2297 9.95667 18.407 10.4653 18.407 11.1C18.407 11.7253 18.1644 12.2433 17.679 12.654C17.1937 13.0553 16.5824 13.256 15.845 13.256C15.453 13.256 15.075 13.1907 14.711 13.06C14.2537 13.2747 14.025 13.5453 14.025 13.872C14.025 14.068 14.0997 14.2313 14.249 14.362C14.4077 14.4927 14.6457 14.558 14.963 14.558L17.679 14.53C17.6977 14.53 17.7164 14.53 17.735 14.53Z" fill="#333333"/>
</svg>
