<svg width="24" height="24" viewBox="0 0 24 24" fill="none" xmlns="http://www.w3.org/2000/svg">
<path d="M6.16266 12.268H8.15066L7.12866 8.824L7.03066 9.314L6.16266 12.268ZM7.91266 16.37C7.91266 16.034 7.92666 15.768 7.95466 15.572C8.40266 15.4693 8.762 15.3527 9.03266 15.222L8.44466 13.234H5.86866L5.23866 15.39C5.45333 15.5113 5.83133 15.572 6.37266 15.572C6.37266 15.852 6.354 16.118 6.31666 16.37H3.18066C3.18066 16.314 3.18066 16.2207 3.18066 16.09C3.18066 15.95 3.19466 15.7773 3.22266 15.572C3.50266 15.488 3.71266 15.376 3.85266 15.236C4.002 15.096 4.12333 14.9 4.21666 14.648L6.61066 7.284C7.18 7.172 7.93133 7.10667 8.86466 7.088L11.2447 14.69C11.3567 15.026 11.478 15.2547 11.6087 15.376C11.7487 15.4973 11.9773 15.5627 12.2947 15.572C12.2947 15.7307 12.276 15.9967 12.2387 16.37H7.91266ZM15.2815 11.722C15.2815 12.842 15.5381 13.402 16.0515 13.402C16.4995 13.402 16.7188 12.912 16.7095 11.932C16.6815 10.9613 16.4248 10.476 15.9395 10.476C15.5008 10.476 15.2815 10.8913 15.2815 11.722ZM17.5635 16.636H14.9035C14.7915 16.636 14.6328 16.6267 14.4275 16.608C14.2688 16.8227 14.1895 17.056 14.1895 17.308C14.1895 17.924 14.8055 18.232 16.0375 18.232C16.7188 18.232 17.2461 18.1247 17.6195 17.91C18.0021 17.6953 18.1935 17.448 18.1935 17.168C18.1935 16.8133 17.9835 16.636 17.5635 16.636ZM14.9035 14.97H17.6755C18.9075 14.97 19.5235 15.4693 19.5235 16.468C19.5235 17.3547 19.1221 18.148 18.3195 18.848C17.5261 19.548 16.5368 19.898 15.3515 19.898C14.5395 19.898 13.8768 19.7253 13.3635 19.38C12.8595 19.044 12.6075 18.5587 12.6075 17.924C12.6075 17.2893 12.9668 16.7713 13.6855 16.37C13.2468 16.1087 13.0275 15.7027 13.0275 15.152C13.0275 14.8253 13.1208 14.536 13.3075 14.284C13.4941 14.032 13.7461 13.836 14.0635 13.696C13.3355 13.2853 12.9715 12.7207 12.9715 12.002C12.9715 11.274 13.2561 10.714 13.8255 10.322C14.3948 9.93 15.0901 9.734 15.9115 9.734C16.7421 9.734 17.4188 9.888 17.9415 10.196C18.4641 9.748 19.1595 9.524 20.0275 9.524C20.0461 9.59867 20.0555 9.72 20.0555 9.888C20.0555 10.0467 20.0321 10.294 19.9855 10.63L18.6275 10.798C18.8701 11.1153 18.9915 11.4933 18.9915 11.932C18.9915 12.6133 18.7068 13.1547 18.1375 13.556C17.5775 13.9573 16.8635 14.158 15.9955 14.158C15.5381 14.158 15.1181 14.102 14.7355 13.99C14.4835 14.1207 14.3575 14.298 14.3575 14.522C14.3575 14.6527 14.4088 14.76 14.5115 14.844C14.6141 14.928 14.7448 14.97 14.9035 14.97Z" fill="#888888"/>
</svg>
