<svg width="24" height="24" viewBox="0 0 24 24" fill="none" xmlns="http://www.w3.org/2000/svg">
<path d="M12.5947 16.8496C12.6038 16.8587 12.6107 16.8724 12.6152 16.8906C12.6198 16.9043 12.6221 16.9157 12.6221 16.9248C12.6221 16.9749 12.5811 17 12.499 17C12.4535 17.0046 12.3167 17 12.0889 16.9863C11.8656 16.9681 11.7106 16.959 11.624 16.959C11.4782 16.959 11.2594 16.9704 10.9678 16.9932C10.8584 17.0023 10.7809 17.0046 10.7354 17C10.6579 17 10.6191 16.9727 10.6191 16.918C10.6191 16.8952 10.626 16.877 10.6396 16.8633C10.6533 16.8451 10.7513 16.7653 10.9336 16.624C11.0749 16.5146 11.1455 16.4167 11.1455 16.3301C11.1546 16.2799 11.1637 16.2093 11.1729 16.1182C11.1865 16.0225 11.1934 15.9131 11.1934 15.79C11.1934 15.2887 11.1159 14.7965 10.9609 14.3135C10.7376 13.6208 10.3617 12.9759 9.83301 12.3789C9.514 12.0234 9.14941 11.7204 8.73926 11.4697C8.33366 11.2145 7.87793 11.0026 7.37207 10.834C7.1123 11.2943 6.89128 11.7979 6.70898 12.3447C6.46745 13.0739 6.34668 13.7552 6.34668 14.3887C6.34668 15.0814 6.36263 15.5781 6.39453 15.8789C6.44922 16.403 6.56999 16.8724 6.75684 17.2871C6.87533 17.5378 7.05306 17.7565 7.29004 17.9434C7.41764 18.0436 7.58171 18.1439 7.78223 18.2441C7.83691 18.2715 7.86426 18.3034 7.86426 18.3398C7.86426 18.3717 7.84147 18.3945 7.7959 18.4082C7.66374 18.4492 7.53613 18.4925 7.41309 18.5381C7.2946 18.5837 7.1556 18.6452 6.99609 18.7227C6.84115 18.8001 6.70671 18.8799 6.59277 18.9619C6.5153 19.0166 6.44238 19.0736 6.37402 19.1328C6.33757 19.1602 6.30794 19.1738 6.28516 19.1738C6.24414 19.1738 6.22363 19.1374 6.22363 19.0645C6.22363 18.9232 6.2168 18.7614 6.20312 18.5791C6.18945 18.3968 6.15527 18.1074 6.10059 17.7109C6.01855 17.2415 5.94336 16.7767 5.875 16.3164C5.80664 15.8561 5.77246 15.4232 5.77246 15.0176C5.77246 14.1836 5.87956 13.361 6.09375 12.5498C6.2806 11.8389 6.52441 11.2214 6.8252 10.6973C6.72493 10.679 6.61784 10.6631 6.50391 10.6494C6.39453 10.6357 6.26693 10.6289 6.12109 10.6289C5.86133 10.6289 5.59017 10.6608 5.30762 10.7246C5.02962 10.7839 4.78581 10.8841 4.57617 11.0254C4.29818 11.2122 4.15918 11.431 4.15918 11.6816C4.15918 11.9414 4.264 12.0918 4.47363 12.1328C4.49186 12.1374 4.51921 12.1396 4.55566 12.1396C4.65137 12.1396 4.7334 12.1169 4.80176 12.0713C4.87467 12.0257 4.91569 11.9574 4.9248 11.8662C4.93848 11.7751 4.96354 11.7295 5 11.7295C5.02734 11.7295 5.04785 11.7546 5.06152 11.8047C5.07975 11.8548 5.08887 11.9186 5.08887 11.9961C5.08887 12.0371 5.08431 12.0827 5.0752 12.1328C5.06608 12.1784 5.05697 12.224 5.04785 12.2695C4.98861 12.4382 4.88835 12.5794 4.74707 12.6934C4.60579 12.8027 4.43034 12.8574 4.2207 12.8574C4.19336 12.862 4.16829 12.8643 4.14551 12.8643C3.90397 12.8643 3.69889 12.7754 3.53027 12.5977C3.36621 12.4154 3.28418 12.1829 3.28418 11.9004C3.28418 11.431 3.53939 11.0413 4.0498 10.7314C4.38704 10.5264 4.7653 10.3828 5.18457 10.3008C5.3304 10.2734 5.49219 10.2529 5.66992 10.2393C5.84766 10.2256 6.02995 10.2188 6.2168 10.2188C6.58594 10.2188 6.87533 10.2415 7.08496 10.2871C7.74577 9.41211 8.47721 8.73535 9.2793 8.25684C10.2044 7.7054 11.2093 7.42969 12.2939 7.42969C12.4443 7.42969 12.5195 7.4502 12.5195 7.49121C12.5195 7.50944 12.5036 7.53451 12.4717 7.56641C12.3213 7.73503 12.2256 7.8877 12.1846 8.02441C12.1299 8.21582 12.1025 8.56445 12.1025 9.07031V16.3301C12.1025 16.4167 12.1709 16.5124 12.3076 16.6172C12.4899 16.7585 12.5856 16.8359 12.5947 16.8496ZM11.1455 13.4043V8.00391C10.4893 8.12695 9.83757 8.41406 9.19043 8.86523C8.83496 9.11133 8.54785 9.34603 8.3291 9.56934C8.11035 9.79264 7.87793 10.0866 7.63184 10.4512C8.02376 10.5833 8.38151 10.7383 8.70508 10.916C8.99219 11.0755 9.28613 11.276 9.58691 11.5176C9.9196 11.7819 10.2067 12.0622 10.4482 12.3584C10.6715 12.6318 10.904 12.9805 11.1455 13.4043ZM20.4697 17.6426C20.4697 18.3854 20.0482 18.9801 19.2051 19.4268C18.4714 19.8141 17.6077 20.0078 16.6143 20.0078C15.8942 20.0078 15.2653 19.862 14.7275 19.5703C14.1351 19.2513 13.8389 18.8411 13.8389 18.3398C13.8389 18.0345 13.9255 17.7907 14.0986 17.6084C14.2764 17.4307 14.5042 17.3418 14.7822 17.3418C15.042 17.3418 15.2493 17.3988 15.4043 17.5127C15.5638 17.6266 15.6572 17.7839 15.6846 17.9844C15.6937 18.0299 15.6982 18.0641 15.6982 18.0869C15.6982 18.1872 15.6709 18.276 15.6162 18.3535C15.5889 18.3809 15.5661 18.3945 15.5479 18.3945C15.5205 18.3945 15.5023 18.3809 15.4932 18.3535C15.4385 18.2214 15.3587 18.1234 15.2539 18.0596C15.1536 18.0003 15.0329 17.9707 14.8916 17.9707C14.7594 17.9707 14.6478 18.0254 14.5566 18.1348C14.4701 18.2487 14.4268 18.3717 14.4268 18.5039C14.4268 18.8685 14.6615 19.1556 15.1309 19.3652C15.541 19.5475 16.04 19.6387 16.6279 19.6387C17.3434 19.6387 17.9814 19.4495 18.542 19.0713C19.1436 18.6657 19.4443 18.1667 19.4443 17.5742C19.4443 17.0547 19.2074 16.6309 18.7334 16.3027C18.3005 16.002 17.7855 15.8516 17.1885 15.8516C16.6416 15.8516 16.1859 15.9382 15.8213 16.1113C15.6299 16.2025 15.4476 16.3346 15.2744 16.5078C15.2334 16.5488 15.1878 16.5443 15.1377 16.4941C15.042 16.4349 14.9645 16.3825 14.9053 16.3369C14.846 16.2913 14.7959 16.248 14.7549 16.207C14.7184 16.1706 14.723 16.1296 14.7686 16.084C14.7731 16.0794 14.8962 15.9997 15.1377 15.8447C15.2197 15.7946 15.3245 15.7194 15.4521 15.6191C15.7028 15.4368 15.8965 15.2705 16.0332 15.1201C16.1335 15.0153 16.2223 14.8945 16.2998 14.7578C15.7894 14.6621 15.32 14.4342 14.8916 14.0742C14.3538 13.623 14.085 13.0944 14.085 12.4883C14.085 11.8184 14.3789 11.2692 14.9668 10.8408C15.5137 10.4443 16.1631 10.2461 16.915 10.2461C17.3206 10.2461 17.6602 10.2757 17.9336 10.335C18.2116 10.3896 18.5055 10.5013 18.8154 10.6699C18.9066 10.5697 18.9795 10.4648 19.0342 10.3555C19.1071 10.2051 19.1436 10.0456 19.1436 9.87695C19.1436 9.74479 19.1094 9.63997 19.041 9.5625C18.959 9.4668 18.8428 9.42578 18.6924 9.43945C18.6149 9.43945 18.5465 9.45768 18.4873 9.49414C18.4645 9.50781 18.4281 9.53971 18.3779 9.58984C18.3551 9.61263 18.3369 9.61947 18.3232 9.61035C18.3096 9.60124 18.305 9.57617 18.3096 9.53516C18.3324 9.37565 18.3825 9.23438 18.46 9.11133C18.5785 8.92904 18.7334 8.83789 18.9248 8.83789C19.1891 8.83789 19.3896 8.92676 19.5264 9.10449C19.6449 9.25944 19.7041 9.47591 19.7041 9.75391C19.7041 9.96354 19.6426 10.1846 19.5195 10.417C19.4147 10.6175 19.2985 10.7656 19.1709 10.8613C19.4899 11.0983 19.7269 11.3581 19.8818 11.6406C20.0368 11.9232 20.1143 12.2559 20.1143 12.6387C20.1143 13.3086 19.818 13.8509 19.2256 14.2656C18.6787 14.6484 18.0088 14.8398 17.2158 14.8398C17.1429 14.8398 17.0609 14.8376 16.9697 14.833C16.8831 14.8239 16.8148 14.8171 16.7646 14.8125C16.6872 14.9447 16.555 15.1019 16.3682 15.2842C16.1813 15.4665 16.0218 15.6009 15.8896 15.6875C16.1266 15.61 16.3704 15.5576 16.6211 15.5303C16.8717 15.4984 17.1338 15.4824 17.4072 15.4824C18.1865 15.4824 18.861 15.6442 19.4307 15.9678C20.1234 16.3643 20.4697 16.9225 20.4697 17.6426ZM19.1846 12.625C19.1846 12.3379 19.1481 12.0895 19.0752 11.8799C19.0023 11.6702 18.8747 11.4629 18.6924 11.2578C18.5876 11.3262 18.4805 11.3786 18.3711 11.415C18.2663 11.4469 18.1455 11.4629 18.0088 11.4629C17.749 11.4629 17.5462 11.39 17.4004 11.2441C17.2865 11.1302 17.2295 11.0117 17.2295 10.8887C17.2295 10.8385 17.2386 10.8135 17.2568 10.8135C17.2705 10.8135 17.2887 10.8249 17.3115 10.8477C17.3799 10.9297 17.4346 10.9844 17.4756 11.0117C17.585 11.0846 17.7171 11.1211 17.8721 11.1211C17.9814 11.1211 18.0817 11.1074 18.1729 11.0801C18.264 11.0527 18.346 11.0163 18.4189 10.9707C18.2913 10.8431 18.1045 10.7314 17.8584 10.6357C17.6123 10.54 17.3617 10.4922 17.1064 10.4922C16.5231 10.4922 16.0173 10.6813 15.5889 11.0596C15.1605 11.4333 14.9463 11.9004 14.9463 12.4609C14.9463 12.9531 15.0739 13.3792 15.3291 13.7393C15.5889 14.0993 15.9535 14.3431 16.4229 14.4707C16.4502 14.3796 16.4639 14.2952 16.4639 14.2178C16.4639 14.0811 16.4183 13.9375 16.3271 13.7871C16.2952 13.7324 16.3135 13.6937 16.3818 13.6709C16.4502 13.6436 16.5072 13.623 16.5527 13.6094C16.6029 13.5911 16.6758 13.5615 16.7715 13.5205C16.8672 13.4795 16.9469 13.4385 17.0107 13.3975C17.0791 13.3519 17.152 13.304 17.2295 13.2539C17.2568 13.2266 17.2796 13.222 17.2979 13.2402C17.3161 13.2539 17.3252 13.2812 17.3252 13.3223C17.3252 13.4271 17.2773 13.6071 17.1816 13.8623C17.0905 14.1175 17.0016 14.334 16.915 14.5117C16.9971 14.5254 17.0791 14.5322 17.1611 14.5322C17.6533 14.5322 18.109 14.3454 18.5283 13.9717C18.9658 13.5798 19.1846 13.1309 19.1846 12.625Z" fill="#333333"/>
</svg>
