<svg width="24" height="24" viewBox="0 0 24 24" fill="none" xmlns="http://www.w3.org/2000/svg">
<path d="M2.23047 16.2549C2.57682 16.2549 2.80924 16.2093 2.92773 16.1182C3.11003 15.9769 3.26953 15.7422 3.40625 15.4141H3.39941L6.81738 6.54102C7.07259 6.54102 7.31868 6.50228 7.55566 6.4248C7.79264 6.34733 7.94076 6.28809 8 6.24707L11.1582 14.71C11.4043 15.4255 11.6755 15.9017 11.9717 16.1387C12.0628 16.2116 12.1471 16.248 12.2246 16.248C12.4525 16.248 12.6348 16.2048 12.7715 16.1182L12.6211 17H8.55371L8.65625 16.248C9.42643 16.2617 9.84342 16.1159 9.90723 15.8105C9.93001 15.7194 9.93001 15.6191 9.90723 15.5098L9.03223 13.1924H5.38184L4.50684 15.6943C4.42025 15.904 4.47038 16.0703 4.65723 16.1934C4.70736 16.2298 4.80078 16.248 4.9375 16.248C5.07878 16.248 5.19954 16.2435 5.2998 16.2344C5.5459 16.2207 5.72819 16.1911 5.84668 16.1455L5.7373 17H2.1416L2.23047 16.2549ZM8.71777 12.3516L7.14551 8.1748L5.67578 12.3516H8.71777ZM15.8545 14.3613C15.5674 14.5892 15.4238 14.7852 15.4238 14.9492C15.4238 15.1087 15.4535 15.2295 15.5127 15.3115C15.5765 15.389 15.6722 15.4528 15.7998 15.5029C15.9639 15.5667 16.3695 15.6351 17.0166 15.708L17.6729 15.79C18.5843 15.904 19.236 16.084 19.6279 16.3301C20.1247 16.6445 20.373 17.1094 20.373 17.7246C20.373 18.5632 20.0381 19.2445 19.3682 19.7686C18.7028 20.2835 17.8324 20.541 16.7568 20.541C15.1481 20.541 14.0908 20.1719 13.585 19.4336C13.4255 19.1966 13.3457 18.9482 13.3457 18.6885C13.3457 18.4287 13.3822 18.1963 13.4551 17.9912C13.5326 17.7907 13.6396 17.6038 13.7764 17.4307C14.0635 17.0706 14.4417 16.7949 14.9111 16.6035C14.3734 16.362 14.1045 16.0452 14.1045 15.6533C14.1045 15.2477 14.3073 14.8398 14.7129 14.4297C14.8223 14.3158 14.9294 14.2269 15.0342 14.1631C14.1956 13.8532 13.6852 13.263 13.5029 12.3926C13.4482 12.1465 13.4209 11.8708 13.4209 11.5654C13.4209 11.2601 13.5098 10.932 13.6875 10.5811C13.8698 10.2256 14.1227 9.91113 14.4463 9.6377C15.1663 9.03613 16.0664 8.73535 17.1465 8.73535C17.6478 8.73535 18.1126 8.83561 18.541 9.03613L20.6875 8.72852V9.89062L19.5664 9.91113C19.8444 10.3213 19.9834 10.7907 19.9834 11.3193C19.9834 11.848 19.8786 12.2946 19.6689 12.6592C19.4639 13.0238 19.195 13.3314 18.8623 13.582C18.1787 14.1107 17.3994 14.375 16.5244 14.375C16.3695 14.375 16.235 14.375 16.1211 14.375C16.0117 14.375 15.9229 14.3704 15.8545 14.3613ZM16.8115 13.5547C17.0895 13.5547 17.3356 13.516 17.5498 13.4385C17.7686 13.3564 17.9577 13.2357 18.1172 13.0762C18.4544 12.748 18.623 12.29 18.623 11.7021C18.623 11.0869 18.4567 10.5924 18.124 10.2188C17.7731 9.82227 17.2946 9.62402 16.6885 9.62402C16.137 9.62402 15.7132 9.73796 15.417 9.96582C15.0114 10.2712 14.8086 10.7998 14.8086 11.5518C14.8086 12.085 15 12.5475 15.3828 12.9395C15.7839 13.3496 16.2601 13.5547 16.8115 13.5547ZM15.6562 16.8154C15.0775 17.1527 14.7881 17.6494 14.7881 18.3057C14.7881 18.7295 14.9932 19.0645 15.4033 19.3105C15.7952 19.543 16.251 19.6592 16.7705 19.6592C17.2946 19.6592 17.7025 19.625 17.9941 19.5566C18.2858 19.4883 18.5251 19.3926 18.7119 19.2695C19.0719 19.0371 19.252 18.709 19.252 18.2852C19.252 17.8385 19.0173 17.5241 18.5479 17.3418C18.2197 17.2096 17.4883 17.0661 16.3535 16.9111L15.6562 16.8154Z" fill="#333333"/>
</svg>
