<svg width="24" height="24" viewBox="0 0 24 24" fill="none" xmlns="http://www.w3.org/2000/svg">
<path d="M5.62891 16H3.25684L6.94824 6.04688H9.0127L12.7178 16H10.3457L9.7168 14.0723H6.25098L5.62891 16ZM6.83887 12.2744H9.13574L7.98047 8.76074L6.83887 12.2744ZM13.1689 12.2471C13.1689 11.4951 13.2897 10.8366 13.5312 10.2715C13.7773 9.70182 14.126 9.25977 14.5771 8.94531C15.0283 8.6263 15.5638 8.4668 16.1836 8.4668C16.6074 8.4668 16.9697 8.53743 17.2705 8.67871C17.5713 8.81543 17.8265 9.01139 18.0361 9.2666L18.1113 8.60352H20.0527V15.7266C20.0527 16.4056 19.8978 16.9821 19.5879 17.4561C19.2826 17.93 18.8542 18.29 18.3027 18.5361C17.7559 18.7868 17.1201 18.9121 16.3955 18.9121C16.0902 18.9121 15.762 18.8711 15.4111 18.7891C15.0648 18.707 14.7344 18.5817 14.4199 18.4131C14.1055 18.2445 13.8434 18.0348 13.6338 17.7842L14.5635 16.4717C14.7731 16.7041 15.026 16.8932 15.3223 17.0391C15.6185 17.1849 15.9489 17.2578 16.3135 17.2578C16.8193 17.2578 17.2113 17.1234 17.4893 16.8545C17.7673 16.5902 17.9062 16.2119 17.9062 15.7197V15.3848C17.6921 15.6217 17.4414 15.8063 17.1543 15.9385C16.8717 16.0706 16.5436 16.1367 16.1699 16.1367C15.5547 16.1367 15.0215 15.9749 14.5703 15.6514C14.1237 15.3232 13.7773 14.8766 13.5312 14.3115C13.2897 13.7464 13.1689 13.1061 13.1689 12.3906V12.2471ZM15.3086 12.3906C15.3086 12.9557 15.4225 13.4342 15.6504 13.8262C15.8783 14.2135 16.2337 14.4072 16.7168 14.4072C17.0039 14.4072 17.2432 14.3571 17.4346 14.2568C17.6305 14.152 17.7878 14.0085 17.9062 13.8262V10.7705C17.6693 10.3877 17.2773 10.1963 16.7305 10.1963C16.252 10.1963 15.8942 10.3923 15.6572 10.7842C15.4248 11.1761 15.3086 11.6637 15.3086 12.2471V12.3906Z" fill="#333333"/>
</svg>
