<svg width="24" height="24" viewBox="0 0 24 24" fill="none" xmlns="http://www.w3.org/2000/svg">
<path d="M5.58105 16H3.29102L6.98926 6.04688H8.97852L12.6973 16H10.4072L9.75781 14.0176H6.23047L5.58105 16ZM6.79785 12.2812H9.18359L7.9873 8.66504L6.79785 12.2812ZM13.1758 12.2471C13.1758 11.4951 13.2965 10.8366 13.5381 10.2715C13.7842 9.70182 14.1328 9.25977 14.584 8.94531C15.0352 8.6263 15.5706 8.4668 16.1904 8.4668C16.6188 8.4668 16.9834 8.53743 17.2842 8.67871C17.5895 8.81999 17.847 9.02051 18.0566 9.28027L18.1387 8.60352H20.0117V15.7334C20.0117 16.4124 19.859 16.9889 19.5537 17.4629C19.2529 17.9368 18.8314 18.2969 18.2891 18.543C17.7467 18.7891 17.1178 18.9121 16.4023 18.9121C16.097 18.9121 15.7712 18.8711 15.4248 18.7891C15.0785 18.707 14.7458 18.5817 14.4268 18.4131C14.1123 18.2445 13.8503 18.0303 13.6406 17.7705L14.543 16.5059C14.7617 16.752 15.0215 16.9456 15.3223 17.0869C15.623 17.2327 15.9535 17.3057 16.3135 17.3057C16.8285 17.3057 17.2272 17.1689 17.5098 16.8955C17.7969 16.6266 17.9404 16.2393 17.9404 15.7334V15.3711C17.7217 15.6126 17.4665 15.8018 17.1748 15.9385C16.8877 16.0706 16.555 16.1367 16.1768 16.1367C15.5615 16.1367 15.0283 15.9749 14.5771 15.6514C14.1305 15.3232 13.7842 14.8766 13.5381 14.3115C13.2965 13.7464 13.1758 13.1061 13.1758 12.3906V12.2471ZM15.2471 12.3906C15.2471 12.9694 15.3633 13.4593 15.5957 13.8604C15.8327 14.2614 16.2018 14.4619 16.7031 14.4619C17.0039 14.4619 17.2546 14.4072 17.4551 14.2979C17.6556 14.1885 17.8174 14.0358 17.9404 13.8398V10.7568C17.6898 10.3467 17.2819 10.1416 16.7168 10.1416C16.2201 10.1416 15.8509 10.3444 15.6094 10.75C15.3678 11.151 15.2471 11.6501 15.2471 12.2471V12.3906Z" fill="#333333"/>
</svg>
