<svg width="24" height="24" viewBox="0 0 24 24" fill="none" xmlns="http://www.w3.org/2000/svg">
<path d="M5.05469 17H3.6875L7.48828 7.04688H8.36328L8.34277 7.92188L5.05469 17ZM7.7959 7.92188L7.78223 7.04688H8.65039L12.458 17H11.0977L7.7959 7.92188ZM10.9336 14.3955H5.33496V13.3223H10.9336V14.3955ZM19.5537 9.60352V16.8428C19.5537 17.4945 19.4193 18.0505 19.1504 18.5107C18.8861 18.971 18.5169 19.3197 18.043 19.5566C17.5736 19.7982 17.0312 19.9189 16.416 19.9189C16.1608 19.9189 15.86 19.8779 15.5137 19.7959C15.1719 19.7184 14.8346 19.584 14.502 19.3926C14.1738 19.2057 13.8981 18.9528 13.6748 18.6338L14.3379 17.8887C14.6478 18.2624 14.9714 18.5221 15.3086 18.668C15.6504 18.8184 15.9876 18.8936 16.3203 18.8936C16.9173 18.8936 17.3913 18.7227 17.7422 18.3809C18.0977 18.0436 18.2754 17.5514 18.2754 16.9043V11.2305L18.3916 9.60352H19.5537ZM13.2988 13.2402C13.2988 12.4883 13.4173 11.8298 13.6543 11.2646C13.8913 10.695 14.2285 10.2529 14.666 9.93848C15.1035 9.62402 15.623 9.4668 16.2246 9.4668C16.6895 9.4668 17.0951 9.54883 17.4414 9.71289C17.7923 9.8724 18.0885 10.1048 18.3301 10.4102C18.5762 10.7155 18.7699 11.0846 18.9111 11.5176C19.057 11.9505 19.1572 12.4382 19.2119 12.9805V13.6436C19.1436 14.359 18.9909 14.9788 18.7539 15.5029C18.5215 16.0225 18.1956 16.4258 17.7764 16.7129C17.3571 16.9954 16.8353 17.1367 16.2109 17.1367C15.6185 17.1367 15.1035 16.9749 14.666 16.6514C14.2331 16.3232 13.8958 15.8766 13.6543 15.3115C13.4173 14.7464 13.2988 14.1038 13.2988 13.3838V13.2402ZM14.5771 13.3838C14.5771 13.876 14.6432 14.3249 14.7754 14.7305C14.9121 15.1361 15.124 15.4619 15.4111 15.708C15.6982 15.9495 16.0697 16.0703 16.5254 16.0703C16.9447 16.0703 17.2887 15.9814 17.5576 15.8037C17.8265 15.626 18.043 15.3913 18.207 15.0996C18.3711 14.8079 18.4987 14.4912 18.5898 14.1494V12.4883C18.5352 12.2376 18.4577 11.9961 18.3574 11.7637C18.2572 11.5267 18.125 11.3171 17.9609 11.1348C17.7969 10.9479 17.5964 10.7998 17.3594 10.6904C17.127 10.5811 16.8535 10.5264 16.5391 10.5264C16.0788 10.5264 15.7028 10.6494 15.4111 10.8955C15.124 11.1416 14.9121 11.472 14.7754 11.8867C14.6432 12.2969 14.5771 12.748 14.5771 13.2402V13.3838Z" fill="#888888"/>
</svg>
