<svg width="24" height="24" viewBox="0 0 24 24" fill="none" xmlns="http://www.w3.org/2000/svg">
<path d="M10.6632 12.681V13.605H5.00722V12.681H10.6632ZM12.3502 16.041H13.3652V17H8.87822V16.041H11.2512L7.65322 7.298L8.30422 7.746H7.28222L7.93322 7.298L4.33522 16.041H6.70822V17H2.27022V16.041H3.29222L7.22622 6.472H8.40922L12.3502 16.041ZM17.4741 20.094C16.8208 20.094 16.2281 20.031 15.6961 19.905C15.1688 19.7837 14.7488 19.59 14.4361 19.324C14.1234 19.058 13.9671 18.7057 13.9671 18.267C13.9671 17.8283 14.1234 17.4947 14.4361 17.266C14.7534 17.042 15.1618 16.895 15.6611 16.825V16.706L16.9071 16.825C16.3891 16.825 15.9831 16.8857 15.6891 17.007C15.3951 17.133 15.1874 17.2917 15.0661 17.483C14.9448 17.679 14.8841 17.8797 14.8841 18.085C14.8841 18.4023 15.0008 18.6497 15.2341 18.827C15.4674 19.0043 15.7801 19.1303 16.1721 19.205C16.5688 19.2797 17.0121 19.317 17.5021 19.317C18.4868 19.317 19.2054 19.184 19.6581 18.918C20.1154 18.6567 20.3441 18.2903 20.3441 17.819C20.3441 17.1563 19.9148 16.825 19.0561 16.825H16.2001C15.6401 16.825 15.1991 16.7247 14.8771 16.524C14.5598 16.3187 14.4011 16.0247 14.4011 15.642C14.4011 15.278 14.5458 15.0003 14.8351 14.809C15.1244 14.613 15.5374 14.494 16.0741 14.452V14.242L17.3481 14.606H16.5851C16.1838 14.606 15.8781 14.662 15.6681 14.774C15.4581 14.8813 15.3531 15.047 15.3531 15.271C15.3531 15.481 15.4488 15.6327 15.6401 15.726C15.8361 15.8147 16.1301 15.859 16.5221 15.859H19.0281C19.5088 15.859 19.9171 15.9383 20.2531 16.097C20.5938 16.251 20.8504 16.4727 21.0231 16.762C21.2004 17.0513 21.2891 17.3967 21.2891 17.798C21.2891 18.2273 21.1678 18.6147 20.9251 18.96C20.6824 19.31 20.2811 19.5853 19.7211 19.786C19.1658 19.9913 18.4168 20.094 17.4741 20.094ZM17.3481 14.606C16.7554 14.606 16.2281 14.4987 15.7661 14.284C15.3041 14.0693 14.9401 13.7683 14.6741 13.381C14.4081 12.9937 14.2751 12.5387 14.2751 12.016C14.2751 11.4933 14.4058 11.0383 14.6671 10.651C14.9331 10.259 15.2948 9.95567 15.7521 9.741C16.2141 9.52167 16.7461 9.412 17.3481 9.412C17.9594 9.412 18.4984 9.52633 18.9651 9.755C19.4364 9.98367 19.7958 10.301 20.0431 10.707C20.1644 10.8937 20.2531 11.0967 20.3091 11.316C20.3698 11.5307 20.4001 11.764 20.4001 12.016C20.4001 12.5387 20.2694 12.9937 20.0081 13.381C19.7468 13.7683 19.3851 14.0693 18.9231 14.284C18.4658 14.4987 17.9408 14.606 17.3481 14.606ZM17.3481 13.78C17.7448 13.78 18.0971 13.7077 18.4051 13.563C18.7178 13.4183 18.9628 13.213 19.1401 12.947C19.3221 12.681 19.4131 12.3707 19.4131 12.016C19.4131 11.6613 19.3221 11.351 19.1401 11.085C18.9628 10.8143 18.7178 10.6067 18.4051 10.462C18.0971 10.3127 17.7448 10.238 17.3481 10.238C16.9421 10.238 16.5828 10.3127 16.2701 10.462C15.9574 10.6067 15.7101 10.8143 15.5281 11.085C15.3508 11.351 15.2621 11.6613 15.2621 12.016C15.2621 12.3707 15.3508 12.681 15.5281 12.947C15.7101 13.213 15.9574 13.4183 16.2701 13.563C16.5874 13.7077 16.9468 13.78 17.3481 13.78ZM20.4001 12.016L20.0501 11.197L19.7421 10.693L20.0221 10.581C20.0081 10.5343 19.9964 10.4877 19.9871 10.441C19.9824 10.3897 19.9801 10.336 19.9801 10.28C19.9801 10.084 20.0268 9.90667 20.1201 9.748C20.2134 9.58933 20.3488 9.46333 20.5261 9.37C20.7034 9.27667 20.9204 9.23 21.1771 9.23C21.2424 9.23 21.3008 9.23233 21.3521 9.237C21.4081 9.24167 21.4618 9.251 21.5131 9.265V10.238C21.4244 10.224 21.3428 10.2147 21.2681 10.21C21.1934 10.2007 21.1188 10.196 21.0441 10.196C20.8481 10.196 20.6894 10.224 20.5681 10.28C20.4514 10.336 20.3674 10.4083 20.3161 10.497C20.2648 10.581 20.2391 10.6743 20.2391 10.777C20.2391 10.875 20.2531 10.9823 20.2811 11.099C20.3091 11.211 20.3348 11.3417 20.3581 11.491C20.3861 11.6403 20.4001 11.8153 20.4001 12.016Z" fill="#888888"/>
</svg>
