<svg width="24" height="24" viewBox="0 0 24 24" fill="none" xmlns="http://www.w3.org/2000/svg">
<path d="M5.42875 16H3.90275L7.16475 6.564H9.05475L12.2748 16H10.7348L9.99275 13.69H6.18475L5.42875 16ZM8.10275 7.656C8.03742 7.92667 7.52875 9.53667 6.57675 12.486H9.60075C8.78875 9.97533 8.28942 8.36533 8.10275 7.656ZM16.4769 10.008C15.9636 10.008 15.5483 10.2273 15.2309 10.666C14.9136 11.0953 14.7549 11.674 14.7549 12.402C14.7549 13.1207 14.9229 13.6713 15.2589 14.054C15.6043 14.4367 16.0149 14.628 16.4909 14.628C16.9669 14.628 17.3823 14.4413 17.7369 14.068C18.1009 13.6853 18.2829 13.116 18.2829 12.36C18.2829 11.5947 18.1103 11.0113 17.7649 10.61C17.4289 10.2087 16.9996 10.008 16.4769 10.008ZM19.6549 15.398C19.6549 16.49 19.3423 17.3113 18.7169 17.862C18.1009 18.422 17.3216 18.702 16.3789 18.702C15.4363 18.702 14.6523 18.548 14.0269 18.24V16.854C14.6243 17.246 15.3476 17.442 16.1969 17.442C17.5876 17.442 18.2829 16.756 18.2829 15.384V14.656C17.8256 15.4213 17.1676 15.804 16.3089 15.804C15.4503 15.804 14.7363 15.51 14.1669 14.922C13.5976 14.3247 13.3129 13.494 13.3129 12.43C13.3129 11.366 13.5789 10.498 14.1109 9.826C14.6429 9.14467 15.3616 8.804 16.2669 8.804C17.1816 8.804 17.8536 9.20533 18.2829 10.008V8.902H19.6549V15.398Z" fill="#333333"/>
</svg>
