<svg width="24" height="24" viewBox="0 0 24 24" fill="none" xmlns="http://www.w3.org/2000/svg">
<path d="M6.78418 10.01L6.65818 10.416H9.31818L9.19218 9.996C8.87485 8.988 8.61351 8.14333 8.40818 7.462C8.21218 6.77133 8.09085 6.33733 8.04418 6.16L7.98818 5.88C7.90418 6.34667 7.50285 7.72333 6.78418 10.01ZM5.52418 14H3.67618L6.86818 4.564H9.15018L12.3422 14H10.4382L9.76618 11.858H6.19618L5.52418 14ZM19.8858 13.356C19.8858 14.476 19.5591 15.316 18.9058 15.876C18.2618 16.4453 17.4404 16.73 16.4418 16.73C15.5084 16.73 14.6918 16.562 13.9918 16.226V14.518C14.6264 14.966 15.3871 15.19 16.2738 15.19C17.5618 15.19 18.2058 14.574 18.2058 13.342V12.726C17.7764 13.426 17.1044 13.776 16.1898 13.776C15.3964 13.776 14.7151 13.4867 14.1458 12.908C13.5858 12.32 13.3058 11.4707 13.3058 10.36C13.3058 9.33333 13.5718 8.48867 14.1038 7.826C14.6451 7.154 15.3544 6.818 16.2318 6.818C17.1184 6.818 17.7764 7.18667 18.2058 7.924V6.902H19.8858V13.356ZM15.0558 10.36C15.0558 11.0227 15.2004 11.5313 15.4898 11.886C15.7791 12.2313 16.1478 12.404 16.5958 12.404C17.0531 12.404 17.4358 12.2267 17.7438 11.872C18.0518 11.508 18.2058 11.0367 18.2058 10.458C18.2058 9.702 18.0564 9.14667 17.7578 8.792C17.4591 8.43733 17.0811 8.26 16.6238 8.26C16.1384 8.26 15.7558 8.45133 15.4758 8.834C15.1958 9.20733 15.0558 9.716 15.0558 10.36Z" fill="#333333"/>
</svg>
