<svg width="24" height="24" viewBox="0 0 24 24" fill="none" xmlns="http://www.w3.org/2000/svg">
<path d="M6.83827 9.996L6.74027 10.332H9.00827L8.91027 9.996C8.6396 9.08133 8.4156 8.302 8.23827 7.658C8.07027 7.014 7.9676 6.59867 7.93027 6.412L7.87427 6.132C7.7996 6.64533 7.45427 7.93333 6.83827 9.996ZM5.64827 14H3.39427L6.54427 4.564H9.26027L12.4103 14H10.1003L9.52627 12.068H6.22227L5.64827 14ZM20.1583 13.314C20.1583 14.4527 19.8176 15.3067 19.1363 15.876C18.4549 16.4547 17.6009 16.744 16.5743 16.744C15.5756 16.744 14.7029 16.5667 13.9563 16.212V14.126C14.6096 14.6487 15.4123 14.91 16.3643 14.91C16.9803 14.91 17.4283 14.7793 17.7083 14.518C17.9883 14.2567 18.1283 13.846 18.1283 13.286V12.81C17.7176 13.4447 17.0643 13.762 16.1683 13.762C15.3843 13.762 14.7076 13.4727 14.1383 12.894C13.5783 12.3153 13.2983 11.4567 13.2983 10.318C13.2983 9.31 13.5689 8.47933 14.1103 7.826C14.6609 7.16333 15.3796 6.832 16.2663 6.832C17.1063 6.832 17.7269 7.168 18.1283 7.84V6.902H20.1583V13.314ZM15.4263 10.332C15.4263 10.92 15.5383 11.368 15.7623 11.676C15.9863 11.984 16.3083 12.138 16.7283 12.138C17.1669 12.138 17.5076 11.9747 17.7503 11.648C18.0023 11.312 18.1283 10.9107 18.1283 10.444C18.1283 9.17467 17.6663 8.54 16.7423 8.54C16.3316 8.54 16.0096 8.69867 15.7763 9.016C15.5429 9.33333 15.4263 9.772 15.4263 10.332Z" fill="#333333"/>
</svg>
