<svg width="24" height="24" viewBox="0 0 24 24" fill="none" xmlns="http://www.w3.org/2000/svg">
<path d="M6.17114 10.024L5.98914 10.556H9.33514L9.15314 10.01L7.68314 5.474C7.57114 5.87533 7.06714 7.392 6.17114 10.024ZM4.82714 14H3.60914L6.89914 4.564H8.46714L11.7011 14H10.4831L9.65714 11.522H5.66714L4.82714 14ZM18.9453 13.426C18.9453 14.5087 18.6466 15.3207 18.0493 15.862C17.4519 16.4127 16.6819 16.688 15.7393 16.688C14.8806 16.688 14.1479 16.5433 13.5413 16.254V15.148C14.1386 15.4933 14.8386 15.666 15.6413 15.666C16.3226 15.666 16.8593 15.484 17.2513 15.12C17.6433 14.756 17.8393 14.1867 17.8393 13.412V12.614C17.3726 13.4167 16.6773 13.818 15.7533 13.818C14.9413 13.818 14.2459 13.5193 13.6673 12.922C13.0979 12.3247 12.8133 11.494 12.8133 10.43C12.8133 9.37533 13.0793 8.50733 13.6113 7.826C14.1433 7.14467 14.8386 6.804 15.6973 6.804C16.6679 6.804 17.3819 7.22867 17.8393 8.078V6.902H18.9453V13.426ZM13.9613 10.402C13.9613 11.1953 14.1573 11.802 14.5493 12.222C14.9413 12.6327 15.3846 12.838 15.8793 12.838C16.3926 12.838 16.8453 12.642 17.2373 12.25C17.6386 11.8487 17.8393 11.256 17.8393 10.472C17.8393 9.56667 17.6479 8.89467 17.2653 8.456C16.8826 8.01733 16.4393 7.798 15.9353 7.798C15.3286 7.798 14.8479 8.04067 14.4933 8.526C14.1386 9.002 13.9613 9.62733 13.9613 10.402Z" fill="#333333"/>
</svg>
