<svg width="24" height="24" viewBox="0 0 24 24" fill="none" xmlns="http://www.w3.org/2000/svg">
<path d="M6.73075 10.01L6.57675 10.486H9.60075L9.44675 10.01C9.09208 8.90867 8.80275 7.99867 8.57875 7.28C8.35475 6.552 8.21942 6.09933 8.17275 5.922L8.10275 5.656C8.00008 6.09467 7.54275 7.546 6.73075 10.01ZM5.42875 14H3.90275L7.16475 4.564H9.05475L12.2748 14H10.7348L9.99275 11.69H6.18475L5.42875 14ZM19.6549 13.398C19.6549 14.49 19.3423 15.3113 18.7169 15.862C18.1009 16.422 17.3076 16.702 16.3369 16.702C15.4223 16.702 14.6523 16.548 14.0269 16.24V14.854C14.6243 15.246 15.3476 15.442 16.1969 15.442C17.5876 15.442 18.2829 14.756 18.2829 13.384V12.656C17.8256 13.4213 17.1396 13.804 16.2249 13.804C15.4223 13.804 14.7363 13.51 14.1669 12.922C13.5976 12.3247 13.3129 11.4847 13.3129 10.402C13.3129 9.35667 13.5789 8.498 14.1109 7.826C14.6429 7.14467 15.3476 6.804 16.2249 6.804C17.1676 6.804 17.8536 7.20533 18.2829 8.008V6.902H19.6549V13.398ZM14.7549 10.374C14.7549 11.1113 14.9229 11.6713 15.2589 12.054C15.6043 12.4367 16.0103 12.628 16.4769 12.628C16.9623 12.628 17.3823 12.4413 17.7369 12.068C18.1009 11.6853 18.2829 11.1533 18.2829 10.472C18.2829 9.632 18.1103 9.01133 17.7649 8.61C17.4289 8.20867 17.0183 8.008 16.5329 8.008C15.9823 8.008 15.5483 8.22733 15.2309 8.666C14.9136 9.09533 14.7549 9.66467 14.7549 10.374Z" fill="#333333"/>
</svg>
