<svg width="24" height="24" viewBox="0 0 24 24" fill="none" xmlns="http://www.w3.org/2000/svg">
<path d="M10.8527 19L9.64866 15.906H5.68666L4.49666 19H3.22266L7.12866 8.962H8.26266L12.1547 19H10.8527ZM8.15066 11.762C8.12266 11.6873 8.07599 11.552 8.01066 11.356C7.94532 11.16 7.87999 10.9593 7.81466 10.754C7.75866 10.5393 7.71199 10.376 7.67466 10.264C7.60932 10.5533 7.53466 10.838 7.45066 11.118C7.36666 11.3887 7.29666 11.6033 7.24066 11.762L6.10666 14.786H9.27066L8.15066 11.762ZM16.0141 11.356C16.5087 11.356 16.9521 11.4493 17.3441 11.636C17.7454 11.8227 18.0861 12.1073 18.3661 12.49H18.4361L18.6041 11.496H19.5841V19.126C19.5841 20.1993 19.3087 21.0067 18.7581 21.548C18.2167 22.0893 17.3721 22.36 16.2241 22.36C15.1227 22.36 14.2221 22.2013 13.5221 21.884V20.75C14.2594 21.142 15.1834 21.338 16.2941 21.338C16.9381 21.338 17.4421 21.1467 17.8061 20.764C18.1794 20.3907 18.3661 19.8773 18.3661 19.224V18.93C18.3661 18.818 18.3707 18.6593 18.3801 18.454C18.3894 18.2393 18.3987 18.09 18.4081 18.006H18.3521C17.8481 18.762 17.0734 19.14 16.0281 19.14C15.0574 19.14 14.2967 18.7993 13.7461 18.118C13.2047 17.4367 12.9341 16.4847 12.9341 15.262C12.9341 14.0673 13.2047 13.12 13.7461 12.42C14.2967 11.7107 15.0527 11.356 16.0141 11.356ZM16.1821 12.392C15.5567 12.392 15.0714 12.644 14.7261 13.148C14.3807 13.6427 14.2081 14.352 14.2081 15.276C14.2081 16.2 14.3761 16.9093 14.7121 17.404C15.0574 17.8893 15.5567 18.132 16.2101 18.132C16.9661 18.132 17.5167 17.9313 17.8621 17.53C18.2074 17.1193 18.3801 16.4613 18.3801 15.556V15.262C18.3801 14.2353 18.2027 13.5027 17.8481 13.064C17.4934 12.616 16.9381 12.392 16.1821 12.392Z" fill="#333333"/>
</svg>
