<svg width="24" height="24" viewBox="0 0 24 24" fill="none" xmlns="http://www.w3.org/2000/svg">
<path d="M8.0957 17L7.72656 15.2363H4.86914L4.50684 17H0.617188V13.5547L1.45801 13.3838L3.47461 6.5H9.12109L11.1445 13.3838L11.9854 13.5547V17H8.0957ZM5.45703 12.8916H7.13867L6.29785 8.93359L5.45703 12.8916ZM12.6621 12.0576C12.6621 11.2008 12.792 10.4626 13.0518 9.84277C13.3115 9.21842 13.6807 8.70573 14.1592 8.30469C14.6377 7.89909 15.2142 7.60059 15.8887 7.40918C16.5677 7.21322 17.3242 7.11523 18.1582 7.11523C18.6641 7.11523 19.1198 7.1403 19.5254 7.19043C19.9355 7.24056 20.3024 7.30436 20.626 7.38184C20.9541 7.45931 21.2412 7.5459 21.4873 7.6416C21.738 7.73275 21.959 7.82161 22.1504 7.9082V10.8818H20.2158C20.111 10.7314 20.0062 10.6016 19.9014 10.4922C19.8011 10.3783 19.6917 10.2871 19.5732 10.2188C19.4548 10.1458 19.3226 10.0911 19.1768 10.0547C19.0309 10.0182 18.86 10 18.6641 10C18.4271 10 18.1947 10.0365 17.9668 10.1094C17.7435 10.1777 17.543 10.2939 17.3652 10.458C17.1921 10.6175 17.0508 10.8294 16.9414 11.0938C16.8366 11.3535 16.7842 11.6748 16.7842 12.0576C16.7842 12.5042 16.8275 12.8711 16.9141 13.1582C17.0007 13.4408 17.126 13.6663 17.29 13.835C17.4541 13.999 17.6546 14.113 17.8916 14.1768C18.1331 14.2406 18.4089 14.2725 18.7188 14.2725C18.8828 14.2725 19.0514 14.2611 19.2246 14.2383C19.4023 14.2155 19.5938 14.1722 19.7988 14.1084V13.3291H18.4248V11.6475H22.4238V16.1865C22.0866 16.3278 21.7288 16.46 21.3506 16.583C20.9723 16.7061 20.5918 16.8132 20.209 16.9043C19.8307 16.9954 19.4593 17.0547 19.0947 17.082C18.7301 17.1094 18.3929 17.123 18.083 17.123C17.3219 17.123 16.611 17.0319 15.9502 16.8496C15.2894 16.6673 14.7152 16.3643 14.2275 15.9404C13.7399 15.5166 13.3571 14.9834 13.0791 14.3408C12.8011 13.6937 12.6621 12.9326 12.6621 12.0576Z" fill="#333333"/>
</svg>
