<svg width="24" height="24" viewBox="0 0 24 24" fill="none" xmlns="http://www.w3.org/2000/svg">
<path d="M6.69602 17L8.90802 7.2H10.77L12.898 17H11.75L11.064 14.116H8.51602L7.88602 17H6.69602ZM8.72602 13.164H10.854L9.84602 8.124H9.74802L8.72602 13.164ZM14.6116 18.4H16.0536C16.2683 18.4 16.4363 18.3253 16.5576 18.176C16.6883 18.036 16.7536 17.854 16.7536 17.63V17.014H15.5916C15.0783 17.014 14.6443 16.846 14.2896 16.51C13.9349 16.174 13.7576 15.754 13.7576 15.25V11.484C13.7576 10.98 13.9349 10.56 14.2896 10.224C14.6536 9.888 15.0923 9.72 15.6056 9.72H17.8876V17.532C17.8876 18.0547 17.7429 18.47 17.4536 18.778C17.1736 19.086 16.7769 19.24 16.2636 19.24H14.6116V18.4ZM16.7676 16.174V10.56H15.8296C15.5683 10.56 15.3443 10.6487 15.1576 10.826C14.9709 11.0033 14.8776 11.2227 14.8776 11.484V15.25C14.8776 15.5113 14.9709 15.7307 15.1576 15.908C15.3443 16.0853 15.5683 16.174 15.8296 16.174H16.7676Z" fill="#888888"/>
</svg>
