<svg width="24" height="24" viewBox="0 0 24 24" fill="none" xmlns="http://www.w3.org/2000/svg">
<path d="M5.69602 17L7.90802 7.2H9.77002L11.898 17H10.75L10.064 14.116H7.51602L6.88602 17H5.69602ZM7.72602 13.164H9.85402L8.84602 8.124H8.74802L7.72602 13.164ZM13.6116 18.4H15.0536C15.2683 18.4 15.4363 18.3253 15.5576 18.176C15.6883 18.036 15.7536 17.854 15.7536 17.63V17.014H14.5916C14.0783 17.014 13.6443 16.846 13.2896 16.51C12.9349 16.174 12.7576 15.754 12.7576 15.25V11.484C12.7576 10.98 12.9349 10.56 13.2896 10.224C13.6536 9.888 14.0923 9.72 14.6056 9.72H16.8876V17.532C16.8876 18.0547 16.7429 18.47 16.4536 18.778C16.1736 19.086 15.7769 19.24 15.2636 19.24H13.6116V18.4ZM15.7676 16.174V10.56H14.8296C14.5683 10.56 14.3443 10.6487 14.1576 10.826C13.9709 11.0033 13.8776 11.2227 13.8776 11.484V15.25C13.8776 15.5113 13.9709 15.7307 14.1576 15.908C14.3443 16.0853 14.5683 16.174 14.8296 16.174H15.7676Z" fill="#333333"/>
</svg>
