<svg width="24" height="24" viewBox="0 0 24 24" fill="none" xmlns="http://www.w3.org/2000/svg">
<path d="M15.1676 12.3284C15.1544 12.5074 15.1179 12.6433 15.0582 12.7361C15.0052 12.8223 14.9455 12.9018 14.8793 12.9747C14.8196 13.0477 14.7566 13.1305 14.6903 13.2233C14.6307 13.3161 14.5843 13.4553 14.5511 13.6409C14.3324 13.7271 14.1733 13.8299 14.0739 13.9492C13.9744 14.0619 13.8883 14.1679 13.8153 14.2674C13.7491 14.3668 13.6662 14.443 13.5668 14.4961C13.474 14.5491 13.3182 14.559 13.0994 14.5259C13.0663 14.4861 13.0298 14.4497 12.9901 14.4165C12.9569 14.3834 12.9171 14.3502 12.8707 14.3171C12.8177 14.4563 12.7481 14.5491 12.6619 14.5955C12.5824 14.6419 12.4929 14.675 12.3935 14.6949C12.294 14.7082 12.1913 14.7281 12.0852 14.7546C11.9792 14.7811 11.8764 14.8474 11.777 14.9534C11.5251 14.9203 11.3229 14.864 11.1705 14.7844C11.0246 14.7049 10.9086 14.6187 10.8224 14.5259C10.7363 14.4265 10.6667 14.3237 10.6136 14.2176C10.5672 14.105 10.5175 13.9989 10.4645 13.8995C10.4115 13.8 10.3452 13.7105 10.2656 13.631C10.1927 13.5448 10.0833 13.4785 9.9375 13.4321C9.87121 13.4122 9.81487 13.4089 9.76847 13.4222C9.72869 13.4354 9.69223 13.4586 9.65909 13.4918C9.62595 13.5249 9.5928 13.5647 9.55966 13.6111C9.53314 13.6509 9.5 13.6873 9.46023 13.7205L9.35085 13.6111C9.29119 13.7702 9.2017 13.8961 9.08239 13.989C8.9697 14.0751 8.83712 14.1414 8.68466 14.1878C8.53883 14.2276 8.38305 14.2541 8.21733 14.2674C8.05824 14.274 7.90578 14.2773 7.75994 14.2773C7.68703 14.4364 7.59754 14.5557 7.49148 14.6353C7.38542 14.7148 7.2661 14.7745 7.13352 14.8142C7.00758 14.854 6.875 14.8838 6.7358 14.9037C6.59659 14.9236 6.45407 14.9534 6.30824 14.9932C6.24858 14.98 6.18229 14.9833 6.10938 15.0032C6.04309 15.023 5.97348 15.0429 5.90057 15.0628C5.83428 15.0893 5.76468 15.1092 5.69176 15.1225C5.62547 15.1357 5.56913 15.1291 5.52273 15.1026C5.46307 15.0694 5.43324 15.0297 5.43324 14.9833C5.43324 14.9369 5.41667 14.8938 5.38352 14.854H5.36364C5.22443 14.8408 5.11174 14.7977 5.02557 14.7247C4.93939 14.6452 4.86648 14.5524 4.80682 14.4463C4.74053 14.3403 4.68419 14.2276 4.63778 14.1083C4.59138 13.989 4.54498 13.8796 4.49858 13.7801C4.49858 13.6343 4.49195 13.4752 4.47869 13.3029C4.45881 13.1239 4.45549 12.9482 4.46875 12.7759C4.48201 12.5969 4.51847 12.4312 4.57813 12.2787C4.63778 12.1263 4.73722 12.0036 4.87642 11.9108L4.90625 11.8909L4.79688 11.8015C4.88305 11.7285 4.93608 11.6589 4.95597 11.5926C4.96922 11.5197 4.97254 11.4336 4.96591 11.3341C5.01231 11.2612 5.06534 11.1982 5.125 11.1452C5.17803 11.0855 5.23438 11.0292 5.29403 10.9762C5.45975 10.8038 5.6089 10.6248 5.74148 10.4392C5.87405 10.2536 5.94034 10.0349 5.94034 9.78299C5.94034 9.74984 5.93703 9.72001 5.9304 9.6935C5.9304 9.66698 5.9304 9.63715 5.9304 9.60401C6.0232 9.57749 6.10938 9.53441 6.18892 9.47475C6.27509 9.40846 6.35795 9.34549 6.4375 9.28583C6.51705 9.21954 6.59991 9.16651 6.68608 9.12674C6.77225 9.08696 6.86174 9.07702 6.95455 9.09691C6.94129 9.05713 6.92803 9.02068 6.91477 8.98753C6.90152 8.95439 6.89489 8.91793 6.89489 8.87816C6.89489 8.76547 6.93466 8.66604 7.0142 8.57986C7.10038 8.49369 7.17661 8.41746 7.2429 8.35117C7.29593 8.29814 7.35559 8.23516 7.42188 8.16225C7.48816 8.0827 7.53788 8.02636 7.57102 7.99321L7.51136 7.93355C7.6108 7.92693 7.68371 7.8971 7.73011 7.84407C7.77652 7.78441 7.8196 7.72475 7.85938 7.66509C7.90578 7.60543 7.95549 7.5524 8.00852 7.506C8.06155 7.45297 8.1411 7.42645 8.24716 7.42645H8.27699C8.33002 7.32039 8.40956 7.22759 8.51563 7.14804C8.62169 7.06187 8.73106 6.97901 8.84375 6.89946C8.96307 6.81992 9.07907 6.73706 9.19176 6.65088C9.30445 6.56471 9.39063 6.45865 9.45028 6.3327C9.54972 6.29956 9.63589 6.25647 9.70881 6.20344C9.78172 6.14378 9.85133 6.09075 9.91761 6.04435C9.99053 5.99132 10.0668 5.94492 10.1463 5.90515C10.2325 5.86537 10.3352 5.84217 10.4545 5.83554C10.4877 5.8024 10.5308 5.75931 10.5838 5.70628C10.6368 5.65325 10.6799 5.62674 10.7131 5.62674C10.7462 5.62674 10.7661 5.63999 10.7727 5.66651C10.786 5.6864 10.7992 5.70628 10.8125 5.72617C10.8523 5.69302 10.9053 5.68308 10.9716 5.69634C11.0445 5.70297 11.1174 5.72285 11.1903 5.756C11.2633 5.78914 11.3329 5.8256 11.3991 5.86537C11.4654 5.90515 11.5185 5.93498 11.5582 5.95486C11.724 6.36585 11.7438 6.78677 11.6179 7.21765C11.5848 7.21765 11.5483 7.22096 11.5085 7.22759C11.4687 7.22759 11.429 7.22759 11.3892 7.22759C11.3892 7.20107 11.4058 7.17124 11.4389 7.1381C11.4721 7.10496 11.4953 7.08176 11.5085 7.0685C11.429 7.02873 11.3693 6.97569 11.3295 6.90941C11.2898 6.83649 11.2533 6.76689 11.2202 6.7006C11.187 6.62768 11.1439 6.56471 11.0909 6.51168C11.0445 6.45202 10.9683 6.41556 10.8622 6.4023C10.7164 6.38242 10.5805 6.40893 10.4545 6.48185C10.3286 6.54814 10.2126 6.62437 10.1065 6.71054C10.0005 6.79009 9.90104 6.86632 9.80824 6.93924C9.71544 7.00552 9.62595 7.03204 9.53977 7.01878C9.5 7.09833 9.4536 7.16462 9.40057 7.21765C9.35417 7.27068 9.30777 7.32371 9.26136 7.37674C9.22159 7.42977 9.18845 7.48943 9.16193 7.55571C9.14205 7.622 9.14536 7.70818 9.17188 7.81424C8.93324 8.03962 8.68797 8.25837 8.43608 8.47049C8.19081 8.67598 7.96212 8.90799 7.75 9.16651L7.64063 9.05713C7.64063 9.10354 7.62405 9.14662 7.59091 9.1864C7.56439 9.21954 7.53788 9.256 7.51136 9.29577C7.48485 9.33554 7.46165 9.38194 7.44176 9.43498C7.4285 9.48138 7.43182 9.53441 7.4517 9.59407C7.39867 9.62721 7.35227 9.66698 7.3125 9.71338C7.27936 9.75316 7.24621 9.79956 7.21307 9.85259C7.1733 9.91225 7.13021 9.96859 7.08381 10.0216C7.04403 10.068 6.991 10.1144 6.92472 10.1608L6.91477 10.1708C6.9214 10.2371 6.92472 10.3 6.92472 10.3597C6.92472 10.4194 6.92472 10.4856 6.92472 10.5586C6.8518 10.6712 6.76231 10.7773 6.65625 10.8767C6.55019 10.9762 6.44744 11.0789 6.34801 11.185C6.24858 11.2844 6.15909 11.3938 6.07955 11.5131C6.00663 11.6324 5.96354 11.765 5.95028 11.9108C5.83759 11.9506 5.75805 12.0169 5.71165 12.1097C5.66525 12.2025 5.62879 12.2986 5.60227 12.398C5.57576 12.4975 5.55256 12.5936 5.53267 12.6864C5.51278 12.7792 5.47301 12.8488 5.41335 12.8952L5.50284 12.9847C5.33049 13.0841 5.20455 13.2068 5.125 13.3526C5.04545 13.4984 5.0322 13.6708 5.08523 13.8696L5.09517 13.8796V13.8895C5.28741 14.0552 5.48295 14.1447 5.68182 14.158C5.88068 14.1712 6.09612 14.1613 6.32813 14.1282C6.43419 14.1149 6.53362 14.1083 6.62642 14.1083C6.72585 14.1016 6.82197 14.0983 6.91477 14.0983H6.93466C7.02746 14.0055 7.12689 13.9492 7.23295 13.9293C7.33902 13.9028 7.45502 13.8895 7.58097 13.8895C7.68703 13.8895 7.78977 13.8829 7.8892 13.8696C7.98864 13.8564 8.07481 13.8067 8.14773 13.7205C8.17424 13.694 8.19413 13.6675 8.20739 13.6409C8.22064 13.6144 8.23722 13.5879 8.2571 13.5614C8.27036 13.5481 8.28362 13.5349 8.29688 13.5216C8.31013 13.5084 8.32339 13.4951 8.33665 13.4819C8.48248 13.515 8.61837 13.4984 8.74432 13.4321C8.87027 13.3592 8.98958 13.273 9.10227 13.1736C9.22159 13.0742 9.33759 12.9747 9.45028 12.8753C9.5696 12.7693 9.68892 12.6963 9.80824 12.6566C9.9607 12.5041 10.0601 12.3384 10.1065 12.1594C10.1596 11.9804 10.1927 11.7915 10.206 11.5926C10.2126 11.4932 10.2192 11.4004 10.2259 11.3142C10.2391 11.2281 10.2557 11.1485 10.2756 11.0756C10.3021 10.9961 10.3385 10.9231 10.3849 10.8569C10.4313 10.7839 10.4976 10.711 10.5838 10.6381L10.6037 10.6182C10.5904 10.5652 10.5772 10.5188 10.5639 10.479C10.5507 10.4392 10.544 10.3895 10.544 10.3299C10.544 10.2039 10.5672 10.0846 10.6136 9.97191C10.66 9.85922 10.7098 9.74653 10.7628 9.63384C10.8224 9.51452 10.8755 9.38857 10.9219 9.256C10.9683 9.12342 10.9915 8.97427 10.9915 8.80855C11.0843 8.64946 11.187 8.48706 11.2997 8.32134C11.4124 8.15562 11.535 7.99653 11.6676 7.84407C11.8002 7.6916 11.9427 7.55571 12.0952 7.4364C12.2476 7.31708 12.4134 7.22427 12.5923 7.15799C12.6785 7.16462 12.7647 7.17456 12.8509 7.18782C12.9437 7.19444 13.0298 7.20439 13.1094 7.21765C13.0696 7.31045 13.0497 7.41982 13.0497 7.54577C13.0497 7.66509 13.0431 7.78441 13.0298 7.90373C13.0232 8.01641 12.9967 8.11916 12.9503 8.21196C12.9039 8.30477 12.8177 8.37105 12.6918 8.41083C12.705 8.43071 12.7116 8.47049 12.7116 8.53015C12.7183 8.58318 12.7216 8.62295 12.7216 8.64946C12.7216 8.84833 12.6785 9.03725 12.5923 9.21623C12.5062 9.3952 12.4067 9.57418 12.294 9.75316C12.188 9.92551 12.0819 10.1012 11.9759 10.2801C11.8764 10.4591 11.8068 10.6414 11.767 10.827C11.7472 10.9132 11.7008 10.9927 11.6278 11.0657C11.5616 11.1386 11.492 11.2115 11.419 11.2844C11.3527 11.3573 11.2964 11.4369 11.25 11.523C11.2102 11.6026 11.2069 11.6921 11.2401 11.7915C11.187 11.8777 11.1241 11.9506 11.0511 12.0103C10.9848 12.0633 10.9252 12.1196 10.8722 12.1793C10.8191 12.2323 10.7827 12.2986 10.7628 12.3782C10.7429 12.4577 10.7562 12.5604 10.8026 12.6864H10.8125V12.6963C10.8854 12.809 10.9418 12.925 10.9815 13.0444C11.0213 13.1637 11.0644 13.2797 11.1108 13.3924C11.1638 13.5051 11.2301 13.6078 11.3097 13.7006C11.3958 13.7934 11.5152 13.863 11.6676 13.9094C11.6809 13.8365 11.7107 13.8 11.7571 13.8C11.8035 13.7934 11.8532 13.7901 11.9062 13.7901C11.9394 13.8232 11.9725 13.8564 12.0057 13.8895C12.0388 13.916 12.072 13.9459 12.1051 13.979C12.3968 13.979 12.6288 13.9691 12.8011 13.9492C12.9735 13.9293 13.1193 13.8928 13.2386 13.8398C13.3646 13.7868 13.4872 13.7105 13.6065 13.6111C13.7259 13.5051 13.8816 13.3692 14.0739 13.2034C14.2528 13.051 14.4318 12.9018 14.6108 12.756C14.7898 12.6035 14.9754 12.461 15.1676 12.3284ZM11.8665 9.49463C11.8333 9.42172 11.777 9.38526 11.6974 9.38526C11.6179 9.38526 11.545 9.38857 11.4787 9.3952C11.5317 9.44823 11.5781 9.50789 11.6179 9.57418C11.6643 9.64047 11.7074 9.70344 11.7472 9.7631C11.7803 9.72996 11.8134 9.69018 11.8466 9.64378C11.8864 9.59738 11.893 9.54766 11.8665 9.49463ZM21.3324 12.0401C21.2595 12.1329 21.2031 12.2356 21.1634 12.3483C21.1236 12.461 21.0739 12.5671 21.0142 12.6665C20.9612 12.7659 20.8916 12.8488 20.8054 12.9151C20.7259 12.9814 20.6132 13.0112 20.4673 13.0046C20.3613 13.0444 20.2817 13.1173 20.2287 13.2233C20.1823 13.3228 20.1359 13.4255 20.0895 13.5316C20.0431 13.631 19.9834 13.7139 19.9105 13.7801C19.8376 13.8398 19.7282 13.8464 19.5824 13.8C19.3968 13.8796 19.2277 13.9856 19.0753 14.1182C18.9295 14.2442 18.7902 14.3767 18.6577 14.5159C18.6113 14.5623 18.5582 14.622 18.4986 14.6949C18.4389 14.7612 18.3826 14.8109 18.3295 14.8441C18.2831 14.8706 18.2367 14.8739 18.1903 14.854C18.1439 14.8341 18.1009 14.8142 18.0611 14.7944C18.0213 14.7678 17.9815 14.7546 17.9418 14.7546C17.9086 14.7546 17.8788 14.7844 17.8523 14.8441C17.8987 14.9369 17.9086 14.9998 17.8821 15.033C17.8556 15.0728 17.8125 15.1026 17.7528 15.1225C17.6932 15.1424 17.6302 15.1589 17.5639 15.1722C17.4976 15.1854 17.4446 15.2086 17.4048 15.2418C17.3253 15.3147 17.2689 15.4042 17.2358 15.5103C17.2027 15.6163 17.1728 15.7224 17.1463 15.8284C17.1198 15.9345 17.08 16.0339 17.027 16.1267C16.9806 16.2262 16.901 16.3024 16.7884 16.3554C16.8546 16.4018 16.8812 16.4482 16.8679 16.4946C16.8613 16.541 16.8447 16.5874 16.8182 16.6338C16.7917 16.6869 16.7718 16.7366 16.7585 16.783C16.7519 16.8294 16.7784 16.8758 16.8381 16.9222C16.7386 17.0481 16.6491 17.184 16.5696 17.3299C16.4967 17.4757 16.4238 17.6215 16.3509 17.7674C16.2779 17.9198 16.1984 18.0657 16.1122 18.2049C16.0327 18.3507 15.9299 18.48 15.804 18.5926L15.8338 18.8313C15.7344 18.8048 15.6714 18.8081 15.6449 18.8412C15.625 18.8744 15.6151 18.9208 15.6151 18.9804C15.6151 19.0401 15.6151 19.0997 15.6151 19.1594C15.6217 19.2257 15.6018 19.2754 15.5554 19.3086C15.5355 19.3351 15.5123 19.355 15.4858 19.3682C15.4659 19.3815 15.446 19.398 15.4261 19.4179C15.214 19.577 15.0682 19.7792 14.9886 20.0245C14.9754 20.0642 14.9654 20.104 14.9588 20.1438C14.9522 20.1836 14.9422 20.2266 14.929 20.273C14.8958 20.3658 14.8428 20.462 14.7699 20.5614C14.697 20.6608 14.6174 20.7636 14.5313 20.8696C14.4451 20.9757 14.3622 21.0851 14.2827 21.1978C14.2031 21.3171 14.1402 21.4364 14.0938 21.5557C13.9877 21.5425 13.9048 21.5524 13.8452 21.5855C13.7789 21.6253 13.7259 21.675 13.6861 21.7347C13.6463 21.801 13.6132 21.8706 13.5866 21.9435C13.5601 22.0164 13.527 22.0794 13.4872 22.1324C13.4408 22.1921 13.3845 22.2352 13.3182 22.2617C13.2453 22.2948 13.1525 22.2948 13.0398 22.2617L12.5923 22.6693C12.5128 22.6229 12.4366 22.613 12.3636 22.6395C12.2841 22.666 12.2079 22.7025 12.1349 22.7489C12.0554 22.7953 11.9792 22.8318 11.9063 22.8583C11.8267 22.8848 11.7438 22.8748 11.6577 22.8284C11.6113 22.8815 11.5715 22.908 11.5384 22.908C11.5052 22.9146 11.4654 22.8881 11.419 22.8284L11.2699 22.9875C11.1903 22.9212 11.0942 22.8583 10.9815 22.7986C10.8622 22.7456 10.7528 22.6826 10.6534 22.6097C10.554 22.5434 10.4744 22.4639 10.4148 22.3711C10.3551 22.2849 10.3452 22.1722 10.3849 22.033C10.3717 21.9932 10.3518 21.9501 10.3253 21.9037C10.2921 21.8573 10.2656 21.8076 10.2457 21.7546C10.2259 21.7082 10.2126 21.6585 10.206 21.6054C10.1993 21.559 10.2126 21.5159 10.2457 21.4762C10.1861 21.3635 10.1662 21.2475 10.1861 21.1282C10.1993 21.0155 10.2225 20.9028 10.2557 20.7901C10.2888 20.6774 10.3153 20.5647 10.3352 20.452C10.3551 20.3393 10.3352 20.2266 10.2756 20.114C10.3551 20.0543 10.4148 19.9781 10.4545 19.8853C10.4877 19.7925 10.5208 19.6963 10.554 19.5969C10.5805 19.4975 10.6103 19.4014 10.6435 19.3086C10.6766 19.2158 10.733 19.1395 10.8125 19.0799L10.8026 18.9208C11.1141 18.5893 11.4455 18.2844 11.7969 18.006C12.1416 17.7342 12.5327 17.532 12.9702 17.3995C13.0563 17.247 13.169 17.1343 13.3082 17.0614C13.4474 16.9951 13.59 16.9321 13.7358 16.8725C13.875 16.8194 14.0043 16.7498 14.1236 16.6637C14.2429 16.5841 14.3324 16.4549 14.392 16.2759C14.4252 16.3488 14.4583 16.3786 14.4915 16.3654C14.5246 16.3587 14.5578 16.3422 14.5909 16.3157C14.6307 16.2958 14.6671 16.2792 14.7003 16.2659C14.7334 16.2593 14.7666 16.2891 14.7997 16.3554C14.866 16.1566 14.9721 15.9975 15.1179 15.8782C15.2704 15.7588 15.4361 15.6528 15.6151 15.56C15.8007 15.4738 15.9863 15.3876 16.1719 15.3015C16.3575 15.2219 16.5199 15.1225 16.6591 15.0032C16.8049 14.8838 16.9143 14.738 16.9872 14.5657C17.0601 14.3867 17.0767 14.158 17.0369 13.8796C17.0966 13.8398 17.1364 13.7901 17.1563 13.7304C17.1761 13.6641 17.1894 13.5979 17.196 13.5316C17.2093 13.4653 17.2259 13.4056 17.2457 13.3526C17.2656 13.2996 17.3087 13.2631 17.375 13.2432C17.3286 13.1703 17.2723 13.1372 17.206 13.1438C17.1397 13.1504 17.0701 13.1703 16.9972 13.2034C16.9309 13.2366 16.8679 13.2697 16.8082 13.3029C16.7486 13.336 16.6989 13.3426 16.6591 13.3228C16.6392 13.4156 16.5961 13.4819 16.5298 13.5216C16.4702 13.5614 16.4039 13.5979 16.331 13.631C16.258 13.6575 16.1818 13.6873 16.1023 13.7205C16.0227 13.7536 15.9598 13.8067 15.9134 13.8796C15.8537 13.8531 15.7973 13.8663 15.7443 13.9194C15.6979 13.9658 15.6482 14.0188 15.5952 14.0784C15.5488 14.1315 15.4957 14.1712 15.4361 14.1978C15.3764 14.2243 15.3068 14.1978 15.2273 14.1182C15.1875 14.2243 15.1212 14.2939 15.0284 14.327C14.9422 14.3602 14.8461 14.3767 14.7401 14.3767C14.634 14.3767 14.5246 14.3701 14.4119 14.3569C14.3059 14.3436 14.2098 14.3469 14.1236 14.3668L13.9545 14.1978C13.9413 14.2309 13.9214 14.2574 13.8949 14.2773C13.8617 14.2972 13.8286 14.3005 13.7955 14.2872C13.7424 14.1746 13.6927 14.0552 13.6463 13.9293C13.5933 13.7967 13.5601 13.6675 13.5469 13.5415C13.527 13.4089 13.5369 13.283 13.5767 13.1637C13.6165 13.0377 13.696 12.9283 13.8153 12.8355C14.0009 12.4975 14.2429 12.2323 14.5412 12.0401C14.5743 12.0666 14.6108 12.0765 14.6506 12.0699C14.6903 12.0567 14.7301 12.0401 14.7699 12.0202C14.8163 11.9937 14.8594 11.9672 14.8991 11.9407C14.9389 11.9075 14.9754 11.8876 15.0085 11.881C15.0284 11.8081 15.0649 11.7385 15.1179 11.6722C15.1776 11.6059 15.2405 11.5462 15.3068 11.4932C15.3797 11.4402 15.4527 11.3938 15.5256 11.354C15.6051 11.3076 15.678 11.2678 15.7443 11.2347C15.8703 11.175 15.9863 11.1021 16.0923 11.0159C16.205 10.9231 16.3177 10.837 16.4304 10.7574C16.5431 10.6712 16.6591 10.5983 16.7784 10.5387C16.8977 10.479 17.0336 10.4492 17.1861 10.4492L17.3651 10.6083C17.2524 10.6746 17.1529 10.7574 17.0668 10.8569C16.9872 10.9497 16.9044 11.0458 16.8182 11.1452C16.732 11.238 16.6392 11.3242 16.5398 11.4037C16.4403 11.4833 16.3177 11.5363 16.1719 11.5628C16.0526 11.7948 15.8902 11.9937 15.6847 12.1594C15.4858 12.3185 15.2803 12.4676 15.0682 12.6069C15.0682 12.7063 15.0384 12.7858 14.9787 12.8455C14.919 12.9051 14.8494 12.9582 14.7699 13.0046C14.6903 13.051 14.6108 13.0941 14.5313 13.1338C14.4517 13.167 14.3854 13.2134 14.3324 13.273C14.286 13.3261 14.2628 13.3957 14.2628 13.4819C14.2628 13.5614 14.3059 13.6675 14.392 13.8C14.4716 13.7603 14.5677 13.7337 14.6804 13.7205C14.7931 13.7072 14.9025 13.6907 15.0085 13.6708C15.1146 13.6443 15.2074 13.6078 15.2869 13.5614C15.3731 13.5084 15.4328 13.4288 15.4659 13.3228C15.5587 13.2432 15.6581 13.1935 15.7642 13.1736C15.8703 13.1537 15.9796 13.1504 16.0923 13.1637C16.3111 12.925 16.5298 12.7063 16.7486 12.5074C16.974 12.3019 17.1861 12.0931 17.3849 11.881C17.5838 11.6689 17.7661 11.4435 17.9318 11.2049C18.1042 10.9596 18.2533 10.6779 18.3793 10.3597C18.5118 10.3199 18.6312 10.3365 18.7372 10.4094C18.8433 10.4823 18.9195 10.5751 18.9659 10.6878C18.9527 10.7674 18.9295 10.8436 18.8963 10.9165C18.8698 10.9828 18.8433 11.0491 18.8168 11.1154C18.7969 11.175 18.7803 11.2413 18.767 11.3142C18.7604 11.3872 18.7737 11.47 18.8068 11.5628C18.7538 11.5496 18.7107 11.5661 18.6776 11.6125C18.651 11.6589 18.6212 11.6987 18.5881 11.7319C18.608 11.818 18.6046 11.8976 18.5781 11.9705C18.5516 12.0368 18.5185 12.1031 18.4787 12.1694C18.4389 12.229 18.4025 12.2953 18.3693 12.3682C18.3428 12.4411 18.3362 12.5207 18.3494 12.6069C18.2566 12.7792 18.187 12.9615 18.1406 13.1537C18.1009 13.3393 18.0743 13.5283 18.0611 13.7205L18.2401 13.8796C18.3262 13.7536 18.4323 13.6641 18.5582 13.6111C18.6908 13.5581 18.8234 13.515 18.956 13.4819C19.0885 13.4421 19.2178 13.399 19.3438 13.3526C19.4697 13.2996 19.5791 13.2101 19.6719 13.0841C19.7116 12.8919 19.7945 12.756 19.9205 12.6765C20.0464 12.5903 20.179 12.5174 20.3182 12.4577C20.4574 12.398 20.59 12.3318 20.7159 12.2588C20.8485 12.1793 20.9413 12.0533 20.9943 11.881H21.2429C21.2296 11.9141 21.2363 11.944 21.2628 11.9705C21.2893 11.997 21.3125 12.0202 21.3324 12.0401ZM15.8338 16.4449C15.7675 16.4847 15.6946 16.5211 15.6151 16.5543C15.5355 16.5874 15.456 16.6239 15.3764 16.6637C15.2969 16.7034 15.224 16.7498 15.1577 16.8029C15.0914 16.8559 15.0417 16.9222 15.0085 17.0017C14.9356 16.962 14.866 16.9586 14.7997 16.9918C14.7401 17.0316 14.6804 17.0747 14.6207 17.1211C14.5611 17.1741 14.4981 17.2172 14.4318 17.2503C14.3722 17.2835 14.3059 17.2801 14.233 17.2404C14.107 17.3199 13.9877 17.4061 13.875 17.4989C13.7557 17.5917 13.6364 17.6812 13.517 17.7674C13.3977 17.8602 13.2751 17.943 13.1491 18.0159C13.0166 18.0955 12.8774 18.1551 12.7315 18.1949C12.6586 18.3142 12.5625 18.407 12.4432 18.4733C12.3239 18.5462 12.2045 18.6158 12.0852 18.6821C11.9593 18.7484 11.8466 18.828 11.7472 18.9208C11.6477 19.0136 11.5848 19.1428 11.5582 19.3086C11.3527 19.4411 11.2135 19.6102 11.1406 19.8157C11.0611 20.0278 11.018 20.2498 11.0114 20.4818C11.0047 20.7205 11.0147 20.9591 11.0412 21.1978C11.0677 21.443 11.081 21.6651 11.081 21.864C11.1671 21.9634 11.2533 22.033 11.3395 22.0728C11.4257 22.1125 11.5152 22.1324 11.608 22.1324C11.7008 22.1324 11.7969 22.1192 11.8963 22.0926C11.9891 22.0728 12.0919 22.0529 12.2045 22.033C12.2311 21.9336 12.2808 21.8673 12.3537 21.8341C12.42 21.8076 12.4929 21.7877 12.5724 21.7745C12.6454 21.7612 12.715 21.7413 12.7813 21.7148C12.8409 21.6949 12.8741 21.6419 12.8807 21.5557L12.9702 21.6353C12.9768 21.5292 13.0066 21.4397 13.0597 21.3668C13.1127 21.3005 13.1757 21.2375 13.2486 21.1779C13.3215 21.1182 13.401 21.0619 13.4872 21.0088C13.5668 20.9558 13.6364 20.8961 13.696 20.8299C13.6828 20.7039 13.706 20.5979 13.7656 20.5117C13.8253 20.4255 13.8916 20.346 13.9645 20.273C14.0374 20.2001 14.1037 20.1206 14.1634 20.0344C14.2164 19.9482 14.2363 19.8389 14.223 19.7063C14.2893 19.6798 14.3357 19.6367 14.3622 19.577C14.3887 19.5174 14.4152 19.461 14.4418 19.408C14.4683 19.355 14.5014 19.3152 14.5412 19.2887C14.5876 19.2622 14.6572 19.2688 14.75 19.3086C14.6572 19.2356 14.6174 19.1793 14.6307 19.1395C14.6506 19.0997 14.6837 19.0633 14.7301 19.0301C14.7765 19.0036 14.8196 18.9705 14.8594 18.9307C14.8991 18.8909 14.8991 18.8313 14.8594 18.7517C15.0185 18.6854 15.1212 18.5893 15.1676 18.4634C15.214 18.3374 15.2472 18.2015 15.267 18.0557C15.2936 17.9165 15.33 17.7773 15.3764 17.6381C15.4228 17.5055 15.5256 17.3995 15.6847 17.3199C15.6714 17.2006 15.6913 17.0945 15.7443 17.0017C15.804 16.9156 15.8603 16.8327 15.9134 16.7532C15.973 16.6736 16.0128 16.5908 16.0327 16.5046C16.0592 16.4184 16.036 16.3157 15.9631 16.1963L15.8338 16.4449Z" fill="#888888"/>
</svg>
