<svg width="24" height="24" viewBox="0 0 24 24" fill="none" xmlns="http://www.w3.org/2000/svg">
<path d="M12.5571 16.706L12.4311 17H7.8671L7.9931 16.706L8.7631 16.552C9.0991 16.4867 9.3231 16.4027 9.4351 16.3C9.55644 16.1973 9.6311 16.0153 9.6591 15.754L9.8271 13.836H6.4531L4.4791 15.95C4.37643 16.0807 4.3251 16.1833 4.3251 16.258C4.3251 16.3887 4.43243 16.468 4.6471 16.496L5.7111 16.706L5.5851 17H1.9031L2.0291 16.706L2.8971 16.524C3.1211 16.4773 3.30777 16.412 3.4571 16.328C3.61577 16.2347 3.77443 16.104 3.9331 15.936L10.2331 9.104L10.2751 8.11C10.5364 8.10067 10.7838 8.04933 11.0171 7.956C11.2598 7.85333 11.4604 7.732 11.6191 7.592C11.7778 7.452 11.8804 7.33067 11.9271 7.228H12.1091L11.3671 16.034C11.3578 16.1927 11.3904 16.3047 11.4651 16.37C11.5491 16.4353 11.7031 16.496 11.9271 16.552L12.5571 16.706ZM6.8731 13.374H9.8691L10.1911 9.818L6.8731 13.374ZM20.9112 9.468C21.0978 9.468 21.2425 9.524 21.3452 9.636C21.4478 9.748 21.4992 9.89267 21.4992 10.07C21.4992 10.3127 21.4245 10.5647 21.2752 10.826C21.1352 11.0873 20.9392 11.3067 20.6872 11.484C20.4352 11.652 20.1505 11.736 19.8332 11.736C19.6745 11.736 19.5112 11.694 19.3432 11.61L19.3152 11.694C19.5112 11.918 19.6092 12.2353 19.6092 12.646C19.6092 13.066 19.4925 13.4953 19.2592 13.934C19.0258 14.3727 18.6852 14.7413 18.2372 15.04C17.7985 15.3293 17.2758 15.474 16.6692 15.474C16.5665 15.474 16.4872 15.4693 16.4312 15.46C15.3952 15.5067 14.8772 15.6653 14.8772 15.936C14.8772 16.02 14.9052 16.09 14.9612 16.146C15.0265 16.1927 15.1525 16.244 15.3392 16.3C15.5352 16.3467 15.8338 16.4073 16.2352 16.482C16.9352 16.342 17.7752 16.1973 18.7552 16.048L18.8112 16.342C18.0365 16.4913 17.5138 16.5987 17.2432 16.664C18.0925 16.8413 18.6898 17.0513 19.0352 17.294C19.3898 17.5367 19.5672 17.854 19.5672 18.246C19.5672 18.694 19.3525 19.1 18.9232 19.464C18.5032 19.828 17.9292 20.1127 17.2012 20.318C16.4732 20.5233 15.6705 20.626 14.7932 20.626C14.0652 20.626 13.4492 20.4907 12.9452 20.22C12.4318 19.9493 12.1752 19.5807 12.1752 19.114C12.1752 18.2833 12.8985 17.63 14.3452 17.154C14.0652 17.0327 13.8645 16.8973 13.7432 16.748C13.6125 16.5987 13.5472 16.4167 13.5472 16.202C13.5472 15.978 13.7385 15.7773 14.1212 15.6C14.5038 15.4133 15.0032 15.292 15.6192 15.236C15.3298 15.096 15.0965 14.9 14.9192 14.648C14.7418 14.3867 14.6532 14.0787 14.6532 13.724C14.6532 13.276 14.7698 12.8187 15.0032 12.352C15.2365 11.8853 15.5772 11.498 16.0252 11.19C16.4825 10.882 17.0238 10.728 17.6492 10.728C17.8638 10.728 18.0598 10.7513 18.2372 10.798C18.4238 10.8447 18.6385 10.91 18.8812 10.994C18.9185 11.0127 19.0025 11.0453 19.1332 11.092C19.2638 11.1387 19.3805 11.176 19.4832 11.204C19.5952 11.2227 19.6978 11.232 19.7912 11.232C19.9592 11.232 20.0898 11.1947 20.1832 11.12C20.2858 11.036 20.3372 10.91 20.3372 10.742C20.3372 10.6953 20.3185 10.6207 20.2812 10.518C20.2438 10.406 20.2252 10.322 20.2252 10.266C20.2252 10.0047 20.2905 9.80867 20.4212 9.678C20.5518 9.538 20.7152 9.468 20.9112 9.468ZM16.5712 15.012C16.9072 15.012 17.2198 14.8673 17.5092 14.578C17.7985 14.2793 18.0272 13.9107 18.1952 13.472C18.3725 13.024 18.4612 12.59 18.4612 12.17C18.4612 11.834 18.4005 11.5447 18.2792 11.302C18.1485 11.1993 17.9665 11.148 17.7332 11.148C17.3972 11.148 17.0845 11.2973 16.7952 11.596C16.5152 11.8947 16.2865 12.2633 16.1092 12.702C15.9412 13.1407 15.8525 13.5467 15.8432 13.92C15.8152 14.648 16.0578 15.012 16.5712 15.012ZM18.1812 18.694C18.1812 18.5167 18.1252 18.3673 18.0132 18.246C17.9012 18.1247 17.6865 18.008 17.3692 17.896C17.0612 17.7933 16.6085 17.6907 16.0112 17.588C15.5912 17.5133 15.2505 17.4387 14.9892 17.364C13.9625 17.7747 13.4492 18.316 13.4492 18.988C13.4492 19.352 13.6125 19.6227 13.9392 19.8C14.2752 19.9867 14.7045 20.08 15.2272 20.08C16.1045 20.08 16.8138 19.9493 17.3552 19.688C17.9058 19.436 18.1812 19.1047 18.1812 18.694Z" fill="#333333"/>
</svg>
