<svg width="24" height="24" viewBox="0 0 24 24" fill="none" xmlns="http://www.w3.org/2000/svg">
<path d="M11.9686 16.692L11.8426 17H7.20856L7.33456 16.692L8.10456 16.538C8.41256 16.4727 8.6179 16.3933 8.72056 16.3C8.83256 16.2067 8.90256 16.0387 8.93056 15.796L9.11256 13.836H5.80856L3.80656 15.964C3.7319 16.0667 3.69456 16.1553 3.69456 16.23C3.69456 16.3513 3.79256 16.4353 3.98856 16.482L5.12256 16.692L4.99656 17H1.30056L1.42656 16.692L2.30856 16.51C2.5139 16.4633 2.6819 16.398 2.81256 16.314C2.95256 16.23 3.09256 16.1087 3.23256 15.95L9.51856 9.216L9.56056 8.11C9.84056 8.10067 10.1066 8.04933 10.3586 7.956C10.6199 7.85333 10.8346 7.732 11.0026 7.592C11.1706 7.452 11.2732 7.33067 11.3106 7.228H11.5066L10.7646 16.16C10.7552 16.2533 10.7879 16.328 10.8626 16.384C10.9466 16.44 11.0959 16.4913 11.3106 16.538L11.9686 16.692ZM6.24256 13.374H9.15456L9.44856 9.972L6.24256 13.374ZM20.4763 9.412C20.6723 9.412 20.8216 9.468 20.9243 9.58C21.027 9.692 21.0783 9.84133 21.0783 10.028C21.0783 10.28 21.0036 10.546 20.8543 10.826C20.705 11.0967 20.4996 11.3253 20.2383 11.512C19.977 11.6893 19.6876 11.778 19.3703 11.778C19.277 11.778 19.193 11.7687 19.1183 11.75C19.053 11.722 18.983 11.6893 18.9083 11.652L18.8803 11.736C19.0576 11.9693 19.1463 12.2867 19.1463 12.688C19.1463 13.1173 19.0296 13.5513 18.7963 13.99C18.563 14.4287 18.2176 14.7973 17.7603 15.096C17.303 15.3853 16.7616 15.53 16.1363 15.53C16.0243 15.53 15.9403 15.5253 15.8843 15.516C14.867 15.5533 14.3583 15.6933 14.3583 15.936C14.3583 16.0107 14.3863 16.076 14.4423 16.132C14.5076 16.1787 14.6383 16.23 14.8343 16.286C15.0303 16.3327 15.3383 16.3933 15.7583 16.468C16.4863 16.328 17.3076 16.188 18.2223 16.048L18.2783 16.356C17.709 16.4587 17.2143 16.5613 16.7943 16.664C17.6623 16.832 18.2736 17.0327 18.6283 17.266C18.983 17.5087 19.1603 17.8307 19.1603 18.232C19.1603 18.6893 18.941 19.1 18.5023 19.464C18.073 19.828 17.4803 20.1127 16.7243 20.318C15.9776 20.5233 15.1563 20.626 14.2603 20.626C13.523 20.626 12.893 20.4907 12.3703 20.22C11.8476 19.9493 11.5863 19.576 11.5863 19.1C11.5863 18.288 12.305 17.644 13.7423 17.168C13.2196 16.944 12.9583 16.6267 12.9583 16.216C12.9583 15.992 13.1543 15.7913 13.5463 15.614C13.9476 15.4273 14.4516 15.32 15.0583 15.292C14.7503 15.1333 14.5076 14.9233 14.3303 14.662C14.153 14.4007 14.0643 14.0927 14.0643 13.738C14.0643 13.2807 14.181 12.814 14.4143 12.338C14.657 11.862 15.007 11.4653 15.4643 11.148C15.931 10.8307 16.4816 10.672 17.1163 10.672C17.359 10.672 17.5783 10.7 17.7743 10.756C17.9703 10.812 18.1803 10.8867 18.4043 10.98C18.4603 10.9987 18.5816 11.0453 18.7683 11.12C18.9643 11.1947 19.151 11.232 19.3283 11.232C19.4963 11.232 19.6316 11.19 19.7343 11.106C19.8463 11.022 19.9023 10.896 19.9023 10.728C19.9023 10.6813 19.879 10.602 19.8323 10.49C19.795 10.3687 19.7763 10.28 19.7763 10.224C19.7763 9.96267 19.8416 9.762 19.9723 9.622C20.1123 9.482 20.2803 9.412 20.4763 9.412ZM16.0243 15.04C16.3696 15.04 16.687 14.8907 16.9763 14.592C17.2656 14.2933 17.4943 13.92 17.6623 13.472C17.8396 13.024 17.9283 12.5853 17.9283 12.156C17.9283 11.82 17.8723 11.5353 17.7603 11.302C17.667 11.19 17.485 11.134 17.2143 11.134C16.8596 11.134 16.5376 11.302 16.2483 11.638C15.959 11.9647 15.7303 12.3613 15.5623 12.828C15.3943 13.2947 15.3103 13.7053 15.3103 14.06C15.3103 14.7133 15.5483 15.04 16.0243 15.04ZM17.6623 18.694C17.6623 18.526 17.6063 18.3813 17.4943 18.26C17.3823 18.148 17.1676 18.0407 16.8503 17.938C16.5423 17.8353 16.085 17.7327 15.4783 17.63C15.105 17.5647 14.741 17.4853 14.3863 17.392C13.397 17.8027 12.9023 18.3347 12.9023 18.988C12.9023 19.352 13.0656 19.6227 13.3923 19.8C13.719 19.9773 14.1436 20.066 14.6663 20.066C15.5623 20.066 16.2856 19.9353 16.8363 19.674C17.387 19.422 17.6623 19.0953 17.6623 18.694Z" fill="#333333"/>
</svg>
