<svg width="24" height="24" viewBox="0 0 24 24" fill="none" xmlns="http://www.w3.org/2000/svg">
<path d="M10.7744 17L9.90635 14.074H6.39235L5.52435 17H4.40435L7.45635 7.228H8.85635L11.9224 17H10.7744ZM8.52035 9.44L8.21235 8.222H8.07235L7.76435 9.44L6.65835 13.15H9.65435L8.52035 9.44ZM18.7978 17.812C18.7978 18.5773 18.5364 19.128 18.0138 19.464C17.5004 19.8 16.7024 19.968 15.6198 19.968C14.5838 19.968 13.8418 19.814 13.3938 19.506C12.9551 19.198 12.7358 18.7547 12.7358 18.176C12.7358 17.784 12.8338 17.476 13.0298 17.252C13.2258 17.028 13.4778 16.888 13.7858 16.832V16.636C13.5991 16.5333 13.4498 16.4027 13.3378 16.244C13.2351 16.076 13.1838 15.88 13.1838 15.656C13.1838 15.3573 13.2678 15.1007 13.4358 14.886C13.6131 14.6713 13.8978 14.5407 14.2898 14.494V14.34C13.9164 14.1533 13.6224 13.878 13.4078 13.514C13.2024 13.1407 13.0998 12.674 13.0998 12.114C13.0998 11.2927 13.3238 10.672 13.7718 10.252C14.2198 9.832 14.8218 9.622 15.5778 9.622C16.0258 9.622 16.4318 9.70133 16.7958 9.86V9.608C16.7958 9.33733 16.8564 9.14133 16.9778 9.02C17.0991 8.89867 17.2951 8.838 17.5658 8.838H18.5318V9.776H17.2858V10.168C17.5284 10.3827 17.7151 10.6487 17.8458 10.966C17.9858 11.2833 18.0558 11.666 18.0558 12.114C18.0558 12.9353 17.8318 13.556 17.3838 13.976C16.9358 14.396 16.3338 14.606 15.5778 14.606C15.3538 14.606 15.1251 14.5827 14.8918 14.536C14.6304 14.5827 14.4298 14.69 14.2898 14.858C14.1591 15.0167 14.0938 15.18 14.0938 15.348C14.0938 15.5347 14.1591 15.6747 14.2898 15.768C14.4204 15.8613 14.6351 15.908 14.9338 15.908H16.5158C17.3278 15.908 17.9111 16.0713 18.2658 16.398C18.6204 16.7247 18.7978 17.196 18.7978 17.812ZM17.8038 17.882C17.8038 17.5647 17.7058 17.322 17.5098 17.154C17.3138 16.9953 16.9778 16.916 16.5018 16.916H14.3038C14.0891 17.0187 13.9351 17.1493 13.8418 17.308C13.7578 17.4667 13.7158 17.6673 13.7158 17.91C13.7158 18.274 13.8278 18.5587 14.0518 18.764C14.2758 18.9787 14.6351 19.086 15.1298 19.086H16.0538C16.6324 19.086 17.0664 18.988 17.3558 18.792C17.6544 18.6053 17.8038 18.302 17.8038 17.882ZM15.5778 13.738C16.0164 13.738 16.3571 13.626 16.5998 13.402C16.8424 13.178 16.9638 12.8327 16.9638 12.366V11.848C16.9638 11.3813 16.8424 11.036 16.5998 10.812C16.3571 10.588 16.0164 10.476 15.5778 10.476C15.1391 10.476 14.7984 10.588 14.5558 10.812C14.3131 11.036 14.1918 11.3813 14.1918 11.848V12.366C14.1918 12.8327 14.3131 13.178 14.5558 13.402C14.7984 13.626 15.1391 13.738 15.5778 13.738Z" fill="#888888"/>
</svg>
