<svg width="24" height="24" viewBox="0 0 24 24" fill="none" xmlns="http://www.w3.org/2000/svg">
<path d="M7.45574 17V16.559H8.00874L9.30374 7.179H9.97574L11.3057 16.559H11.9847V17H9.80074V16.559H10.4097L9.45074 9.041L8.47074 16.559H9.00974V17H7.45574ZM8.55474 14.704V14.284H10.3327V14.704H8.55474ZM14.3235 20.486C13.9175 20.486 13.5675 20.3997 13.2735 20.227C12.9842 20.059 12.7625 19.8327 12.6085 19.548C12.4545 19.2633 12.3775 18.9553 12.3775 18.624C12.3775 18.3347 12.4148 18.0897 12.4895 17.889C12.5642 17.6883 12.6575 17.5227 12.7695 17.392C12.8815 17.2613 12.9912 17.1587 13.0985 17.084C13.2105 17.014 13.3015 16.965 13.3715 16.937C13.3295 16.9277 13.2642 16.902 13.1755 16.86C13.0868 16.818 12.9935 16.7573 12.8955 16.678C12.8022 16.594 12.7205 16.4843 12.6505 16.349C12.5805 16.209 12.5455 16.041 12.5455 15.845C12.5455 15.6583 12.5828 15.4997 12.6575 15.369C12.7322 15.2383 12.8185 15.138 12.9165 15.068C13.0192 14.9933 13.1148 14.9513 13.2035 14.942C13.2175 14.942 13.2362 14.9397 13.2595 14.935C13.2875 14.9303 13.3062 14.9303 13.3155 14.935C13.2548 14.8883 13.1872 14.8043 13.1125 14.683C13.0378 14.5617 12.9655 14.4053 12.8955 14.214C12.8255 14.018 12.7672 13.7847 12.7205 13.514C12.6785 13.2387 12.6575 12.926 12.6575 12.576C12.6575 12.0207 12.7042 11.554 12.7975 11.176C12.8908 10.798 13.0168 10.4947 13.1755 10.266C13.3342 10.0327 13.5138 9.867 13.7145 9.769C13.9152 9.66633 14.1252 9.615 14.3445 9.615C14.7085 9.615 15.0072 9.73167 15.2405 9.965C15.4785 10.1983 15.6558 10.5273 15.7725 10.952C15.8938 11.372 15.9545 11.869 15.9545 12.443C15.9545 12.9703 15.9102 13.423 15.8215 13.801C15.7328 14.1743 15.6115 14.4777 15.4575 14.711C15.3082 14.9443 15.1332 15.1147 14.9325 15.222C14.7365 15.3293 14.5288 15.383 14.3095 15.383C14.1042 15.383 13.9432 15.3573 13.8265 15.306C13.7145 15.2547 13.6492 15.2243 13.6305 15.215C13.6258 15.2103 13.6188 15.208 13.6095 15.208C13.6048 15.208 13.5955 15.208 13.5815 15.208C13.4882 15.208 13.3902 15.257 13.2875 15.355C13.1895 15.453 13.1405 15.5837 13.1405 15.747C13.1405 15.971 13.2315 16.146 13.4135 16.272C13.6002 16.398 13.9432 16.496 14.4425 16.566C15.0772 16.65 15.5438 16.846 15.8425 17.154C16.1458 17.462 16.2975 17.91 16.2975 18.498C16.2975 18.8387 16.2415 19.135 16.1295 19.387C16.0175 19.639 15.8658 19.8443 15.6745 20.003C15.4878 20.1663 15.2778 20.2877 15.0445 20.367C14.8112 20.4463 14.5708 20.486 14.3235 20.486ZM14.3235 20.066C14.6782 20.066 14.9628 19.9353 15.1775 19.674C15.3968 19.4173 15.5065 19.093 15.5065 18.701C15.5065 18.2437 15.4388 17.91 15.3035 17.7C15.1682 17.49 14.9302 17.3453 14.5895 17.266C14.4915 17.238 14.3958 17.21 14.3025 17.182C14.2092 17.1587 14.1252 17.1353 14.0505 17.112C13.9758 17.0887 13.9175 17.0723 13.8755 17.063C13.7122 17.1517 13.5745 17.273 13.4625 17.427C13.3552 17.581 13.2735 17.7537 13.2175 17.945C13.1615 18.141 13.1335 18.351 13.1335 18.575C13.1335 18.8223 13.1755 19.0603 13.2595 19.289C13.3482 19.5177 13.4812 19.7043 13.6585 19.849C13.8358 19.9937 14.0575 20.066 14.3235 20.066ZM14.3095 14.935C14.4542 14.935 14.5848 14.872 14.7015 14.746C14.8182 14.62 14.9115 14.3797 14.9815 14.025C15.0515 13.6657 15.0865 13.1477 15.0865 12.471C15.0865 11.813 15.0515 11.3113 14.9815 10.966C14.9162 10.6207 14.8252 10.385 14.7085 10.259C14.5965 10.1283 14.4705 10.063 14.3305 10.063C14.1905 10.063 14.0575 10.1283 13.9315 10.259C13.8102 10.385 13.7122 10.6253 13.6375 10.98C13.5628 11.33 13.5255 11.841 13.5255 12.513C13.5255 13.1803 13.5628 13.689 13.6375 14.039C13.7122 14.3843 13.8078 14.62 13.9245 14.746C14.0458 14.872 14.1742 14.935 14.3095 14.935ZM14.9185 10.063C14.9558 9.80167 15.0725 9.594 15.2685 9.44C15.4692 9.286 15.6768 9.209 15.8915 9.209C16.0735 9.209 16.2018 9.24867 16.2765 9.328C16.3512 9.40733 16.3885 9.517 16.3885 9.657C16.3885 9.77367 16.3558 9.86933 16.2905 9.944C16.2252 10.0187 16.1365 10.056 16.0245 10.056C15.9312 10.056 15.8612 10.035 15.8145 9.993C15.7725 9.94633 15.7328 9.902 15.6955 9.86C15.6628 9.81333 15.6092 9.79 15.5345 9.79C15.4738 9.79 15.4202 9.81567 15.3735 9.867C15.3268 9.91833 15.3035 9.99067 15.3035 10.084L14.9185 10.063Z" fill="#888888"/>
</svg>
