<svg width="24" height="24" viewBox="0 0 24 24" fill="none" xmlns="http://www.w3.org/2000/svg">
<path d="M9.91504 11.2354C9.91504 11.29 9.92871 11.3333 9.95605 11.3652C9.9834 11.3971 10.0176 11.4222 10.0586 11.4404C10.1042 11.4541 10.152 11.4632 10.2021 11.4678C10.2523 11.4723 10.3001 11.4746 10.3457 11.4746H10.4346C10.4391 11.4701 10.4528 11.4678 10.4756 11.4678C10.5029 11.4632 10.5303 11.4587 10.5576 11.4541C10.5895 11.4495 10.6169 11.4473 10.6396 11.4473C10.667 11.4427 10.6829 11.4404 10.6875 11.4404C10.6966 11.4313 10.7467 11.4268 10.8379 11.4268C10.9154 11.4268 10.9974 11.429 11.084 11.4336C11.1706 11.4382 11.223 11.4404 11.2412 11.4404C11.2458 11.4404 11.2572 11.4382 11.2754 11.4336C11.2936 11.429 11.3118 11.4245 11.3301 11.4199C11.3483 11.4108 11.3643 11.404 11.3779 11.3994C11.3962 11.3949 11.4076 11.3926 11.4121 11.3926C11.4668 11.3835 11.5215 11.3789 11.5762 11.3789C11.6309 11.3789 11.6833 11.3743 11.7334 11.3652C11.7835 11.3516 11.8291 11.3333 11.8701 11.3105C11.9111 11.2832 11.9453 11.2376 11.9727 11.1738C11.9772 11.1693 11.9818 11.1579 11.9863 11.1396C11.9954 11.1169 12.0046 11.0941 12.0137 11.0713C12.0228 11.0439 12.0296 11.0212 12.0342 11.0029C12.0433 10.9801 12.0501 10.9642 12.0547 10.9551C12.0911 10.8685 12.1344 10.7842 12.1846 10.7021C12.2347 10.6156 12.278 10.529 12.3145 10.4424C12.3737 10.3148 12.4215 10.1872 12.458 10.0596C12.4945 9.92741 12.5628 9.80208 12.6631 9.68359C12.6631 9.67448 12.6654 9.66081 12.6699 9.64258C12.679 9.62435 12.6882 9.61068 12.6973 9.60156C12.7747 9.4056 12.8385 9.20964 12.8887 9.01367C12.9388 8.81315 13.0163 8.61947 13.1211 8.43262C13.153 8.37337 13.1895 8.30273 13.2305 8.2207C13.276 8.13411 13.3171 8.04525 13.3535 7.9541C13.3945 7.86296 13.4264 7.77181 13.4492 7.68066C13.4766 7.58952 13.4902 7.50977 13.4902 7.44141C13.4583 7.44141 13.4355 7.44596 13.4219 7.45508C13.4128 7.46419 13.3968 7.48014 13.374 7.50293C13.2738 7.63509 13.1644 7.7513 13.0459 7.85156C12.932 7.95182 12.8158 8.0612 12.6973 8.17969C12.6927 8.18424 12.6859 8.19336 12.6768 8.20703C12.6676 8.2207 12.6585 8.23438 12.6494 8.24805C12.6357 8.26628 12.6243 8.28451 12.6152 8.30273C12.597 8.32096 12.5719 8.34603 12.54 8.37793C12.5127 8.40527 12.4967 8.4235 12.4922 8.43262C12.4785 8.44629 12.458 8.45768 12.4307 8.4668C12.417 8.47135 12.4056 8.47591 12.3965 8.48047C12.3874 8.4987 12.36 8.52832 12.3145 8.56934C12.2734 8.61035 12.2438 8.6377 12.2256 8.65137C12.1846 8.69694 12.1413 8.75618 12.0957 8.8291C12.0547 8.89746 12.0137 8.95215 11.9727 8.99316C11.877 9.08431 11.7744 9.1709 11.665 9.25293C11.5557 9.33496 11.4554 9.42155 11.3643 9.5127C11.1592 9.71777 10.9632 9.92969 10.7764 10.1484C10.5895 10.3672 10.3867 10.5791 10.168 10.7842C10.1589 10.8343 10.1406 10.8753 10.1133 10.9072C10.0859 10.9391 10.0563 10.971 10.0244 11.0029C9.99707 11.0348 9.97201 11.069 9.94922 11.1055C9.92643 11.1374 9.91504 11.1807 9.91504 11.2354ZM2.91504 16C2.91504 15.9909 2.91276 15.9704 2.9082 15.9385C2.90365 15.902 2.90137 15.8815 2.90137 15.877C2.90137 15.7949 2.91732 15.7311 2.94922 15.6855C2.98112 15.64 3.02441 15.6081 3.0791 15.5898C3.12923 15.5671 3.1862 15.5534 3.25 15.5488C3.30924 15.5397 3.36849 15.5329 3.42773 15.5283C3.44596 15.5283 3.48242 15.526 3.53711 15.5215C3.58724 15.5124 3.64193 15.5033 3.70117 15.4941C3.76042 15.485 3.8151 15.4759 3.86523 15.4668C3.91536 15.4577 3.94954 15.4486 3.96777 15.4395C3.99967 15.3984 4.03613 15.3779 4.07715 15.3779C4.11361 15.3734 4.15007 15.3665 4.18652 15.3574C4.22754 15.3438 4.27767 15.3278 4.33691 15.3096C4.39616 15.2913 4.4554 15.2708 4.51465 15.248C4.57389 15.2207 4.63086 15.1934 4.68555 15.166C4.74479 15.1341 4.79264 15.1022 4.8291 15.0703C4.84277 15.0566 4.86784 15.0316 4.9043 14.9951C4.94076 14.9541 4.97949 14.9131 5.02051 14.8721C5.06608 14.8265 5.1071 14.7855 5.14355 14.749C5.18457 14.7126 5.20964 14.6898 5.21875 14.6807C5.22786 14.6715 5.26204 14.651 5.32129 14.6191C5.38053 14.5827 5.41927 14.5599 5.4375 14.5508C5.45117 14.5326 5.47852 14.5029 5.51953 14.4619C5.56055 14.4163 5.58789 14.389 5.60156 14.3799C5.60612 14.3708 5.61296 14.3548 5.62207 14.332C5.63574 14.3047 5.64941 14.2773 5.66309 14.25C5.67676 14.2227 5.68815 14.1953 5.69727 14.168C5.71094 14.1406 5.72005 14.1224 5.72461 14.1133C5.76562 14.0586 5.80664 14.0244 5.84766 14.0107C5.89323 13.9925 5.93652 13.9583 5.97754 13.9082C5.98665 13.8991 6.00488 13.8786 6.03223 13.8467C6.06413 13.8102 6.09603 13.7738 6.12793 13.7373C6.16439 13.7008 6.19629 13.6667 6.22363 13.6348C6.25553 13.5983 6.27604 13.5755 6.28516 13.5664C6.41732 13.4206 6.54948 13.2975 6.68164 13.1973C6.8138 13.0924 6.95508 12.974 7.10547 12.8418C7.10547 12.8327 7.11003 12.8236 7.11914 12.8145C7.12826 12.8008 7.13737 12.7939 7.14648 12.7939C7.14648 12.7894 7.15788 12.7689 7.18066 12.7324C7.20801 12.696 7.22396 12.6755 7.22852 12.6709C7.23307 12.6663 7.24674 12.6504 7.26953 12.623C7.29688 12.5957 7.32422 12.5684 7.35156 12.541C7.37891 12.5137 7.40397 12.4886 7.42676 12.4658C7.4541 12.4385 7.47005 12.4225 7.47461 12.418C7.48372 12.418 7.49284 12.4043 7.50195 12.377C7.51107 12.3496 7.51562 12.3314 7.51562 12.3223C7.59766 12.2357 7.67285 12.1719 7.74121 12.1309C7.81413 12.0898 7.89616 12.0397 7.9873 11.9805C8.01921 11.9805 8.03516 11.9645 8.03516 11.9326C8.12174 11.8278 8.21745 11.7275 8.32227 11.6318C8.42708 11.5361 8.53418 11.4427 8.64355 11.3516C8.65267 11.3379 8.6709 11.3174 8.69824 11.29C8.72559 11.2627 8.75521 11.2331 8.78711 11.2012C8.81901 11.1693 8.84863 11.1396 8.87598 11.1123C8.90788 11.085 8.93066 11.0645 8.94434 11.0508C8.94889 11.0417 8.96712 11.012 8.99902 10.9619C9.03548 10.9118 9.05827 10.8844 9.06738 10.8799C9.10384 10.8298 9.15169 10.7956 9.21094 10.7773C9.27018 10.7591 9.31803 10.7204 9.35449 10.6611C9.514 10.4515 9.6849 10.2578 9.86719 10.0801C10.0495 9.89779 10.2386 9.72461 10.4346 9.56055C10.4847 9.51042 10.5257 9.45801 10.5576 9.40332C10.5941 9.34408 10.6374 9.29622 10.6875 9.25977C10.7467 9.20964 10.8128 9.15723 10.8857 9.10254C10.9587 9.04785 11.0179 8.99544 11.0635 8.94531C11.0726 8.94076 11.0885 8.92253 11.1113 8.89062C11.1341 8.85417 11.1455 8.83138 11.1455 8.82227C11.1637 8.81315 11.1888 8.79264 11.2207 8.76074C11.2526 8.72428 11.2731 8.70378 11.2822 8.69922C11.3506 8.63997 11.4144 8.57617 11.4736 8.50781C11.5329 8.4349 11.5967 8.36654 11.665 8.30273C11.7288 8.24805 11.7995 8.19792 11.877 8.15234C11.959 8.10677 12.0365 8.05892 12.1094 8.00879C12.1823 7.9541 12.2461 7.89486 12.3008 7.83105C12.3555 7.7627 12.3874 7.68294 12.3965 7.5918H12.4307C12.4808 7.5918 12.5309 7.58268 12.5811 7.56445C12.6312 7.54622 12.6699 7.52572 12.6973 7.50293C12.8568 7.36165 13.014 7.22038 13.1689 7.0791C13.3239 6.93327 13.4811 6.78743 13.6406 6.6416C13.6452 6.6416 13.6634 6.63021 13.6953 6.60742C13.7318 6.58464 13.7546 6.56868 13.7637 6.55957C13.7773 6.55046 13.8047 6.52311 13.8457 6.47754C13.8867 6.42741 13.9163 6.39779 13.9346 6.38867C13.9756 6.38867 14.0166 6.39095 14.0576 6.39551C14.0986 6.40007 14.1396 6.40234 14.1807 6.40234C14.2718 6.40234 14.3652 6.39779 14.4609 6.38867C14.5566 6.375 14.6501 6.35905 14.7412 6.34082C14.7731 6.33626 14.8027 6.32487 14.8301 6.30664C14.862 6.28841 14.8939 6.27018 14.9258 6.25195C14.9622 6.22917 15.001 6.21094 15.042 6.19727C15.083 6.17904 15.1309 6.16992 15.1855 6.16992C15.2767 6.16992 15.3337 6.19727 15.3564 6.25195C15.3838 6.30664 15.3975 6.375 15.3975 6.45703C15.3975 6.53451 15.3838 6.60742 15.3564 6.67578C15.3291 6.74414 15.2949 6.8125 15.2539 6.88086C15.2174 6.94466 15.1787 7.01074 15.1377 7.0791C15.1012 7.1429 15.0693 7.21126 15.042 7.28418C15.042 7.29329 15.0352 7.32292 15.0215 7.37305C15.0124 7.41862 15.0033 7.44596 14.9941 7.45508C14.9349 7.64648 14.8597 7.82878 14.7686 8.00195C14.682 8.17057 14.6045 8.34375 14.5361 8.52148C14.5316 8.5306 14.527 8.54655 14.5225 8.56934C14.5179 8.58757 14.5133 8.61035 14.5088 8.6377C14.5088 8.66048 14.5065 8.68327 14.502 8.70605C14.502 8.72428 14.502 8.73568 14.502 8.74023C14.4883 8.74935 14.4769 8.76302 14.4678 8.78125C14.4587 8.79948 14.4541 8.81315 14.4541 8.82227C14.3675 9.01367 14.2923 9.20736 14.2285 9.40332C14.1647 9.59473 14.0941 9.78385 14.0166 9.9707C14.0075 9.97982 13.9915 10.0026 13.9688 10.0391C13.946 10.071 13.9346 10.0892 13.9346 10.0938C13.93 10.1074 13.9209 10.1393 13.9072 10.1895C13.8981 10.235 13.8936 10.2624 13.8936 10.2715C13.8844 10.2897 13.8708 10.3216 13.8525 10.3672C13.8343 10.4082 13.8206 10.4333 13.8115 10.4424C13.807 10.4469 13.7979 10.4583 13.7842 10.4766C13.7705 10.4948 13.7568 10.513 13.7432 10.5312C13.7295 10.5495 13.7158 10.5677 13.7021 10.5859C13.6885 10.5996 13.6794 10.6087 13.6748 10.6133C13.6657 10.6315 13.652 10.668 13.6338 10.7227C13.6156 10.7728 13.6019 10.8092 13.5928 10.832C13.5837 10.8503 13.5723 10.8844 13.5586 10.9346C13.5449 10.9801 13.5312 11.0303 13.5176 11.085C13.5039 11.1396 13.4925 11.1943 13.4834 11.249C13.4743 11.2992 13.4674 11.3333 13.4629 11.3516C13.4447 11.3607 13.415 11.4085 13.374 11.4951C13.3376 11.5817 13.2988 11.6774 13.2578 11.7822C13.2168 11.887 13.1781 11.9873 13.1416 12.083C13.1097 12.1742 13.0869 12.2288 13.0732 12.2471C13.0732 12.2516 13.0641 12.2676 13.0459 12.2949C13.0277 12.3177 13.0072 12.3428 12.9844 12.3701C12.9661 12.3975 12.9479 12.4248 12.9297 12.4521C12.916 12.4795 12.9069 12.4954 12.9023 12.5C12.8978 12.5091 12.891 12.5296 12.8818 12.5615C12.8773 12.5934 12.8704 12.6299 12.8613 12.6709C12.8522 12.7074 12.8431 12.7415 12.834 12.7734C12.8249 12.8053 12.818 12.8281 12.8135 12.8418C12.7816 12.9512 12.7451 13.0423 12.7041 13.1152C12.6676 13.1882 12.6221 13.2839 12.5674 13.4023C12.5674 13.4115 12.5628 13.4251 12.5537 13.4434C12.5446 13.4616 12.5355 13.4821 12.5264 13.5049C12.5173 13.5277 12.5081 13.5482 12.499 13.5664C12.4945 13.5846 12.4922 13.596 12.4922 13.6006C12.4785 13.6188 12.4671 13.6507 12.458 13.6963C12.4489 13.7373 12.4443 13.7624 12.4443 13.7715C12.4352 13.7806 12.4147 13.8125 12.3828 13.8672C12.3509 13.9219 12.3281 13.9629 12.3145 13.9902C12.2734 14.0586 12.2324 14.1361 12.1914 14.2227C12.1549 14.3092 12.1185 14.3981 12.082 14.4893C12.0501 14.5758 12.0205 14.6624 11.9932 14.749C11.9658 14.8356 11.943 14.9108 11.9248 14.9746C11.902 14.9746 11.8883 14.9883 11.8838 15.0156C11.8838 15.043 11.8838 15.068 11.8838 15.0908V15.1523C11.8838 15.2253 11.9111 15.2822 11.9658 15.3232C12.0251 15.3643 12.098 15.3984 12.1846 15.4258C12.2712 15.4486 12.3623 15.4691 12.458 15.4873C12.5583 15.5055 12.6517 15.5306 12.7383 15.5625C12.8249 15.5898 12.8955 15.6263 12.9502 15.6719C13.0094 15.7174 13.0391 15.7812 13.0391 15.8633C13.0391 15.959 13.0163 16.0114 12.9707 16.0205C12.9297 16.0342 12.8659 16.0433 12.7793 16.0479C12.7702 16.0479 12.7542 16.0501 12.7314 16.0547C12.7132 16.0592 12.6904 16.0638 12.6631 16.0684C12.6403 16.0729 12.6198 16.0775 12.6016 16.082C12.5833 16.0866 12.5719 16.0889 12.5674 16.0889H12.499C12.4215 16.0889 12.3464 16.0729 12.2734 16.041C12.2051 16.0137 12.1322 16 12.0547 16H11.6035H11.1455C11.141 16 11.1273 16.0023 11.1045 16.0068C11.0817 16.0114 11.0544 16.016 11.0225 16.0205C10.9951 16.0296 10.9701 16.0365 10.9473 16.041C10.9245 16.0456 10.9108 16.0479 10.9062 16.0479H10.8789H10.8584C10.8538 16.0479 10.8402 16.0456 10.8174 16.041C10.7992 16.0365 10.7764 16.0296 10.749 16.0205C10.7262 16.016 10.7057 16.0114 10.6875 16.0068C10.6693 16.0023 10.6579 16 10.6533 16H10.25C10.0951 16 9.94466 16.0068 9.79883 16.0205C9.65299 16.0387 9.50488 16.0479 9.35449 16.0479C9.15397 16.0479 9.05371 15.9521 9.05371 15.7607C9.05371 15.665 9.09701 15.5944 9.18359 15.5488C9.27474 15.5033 9.37956 15.4691 9.49805 15.4463C9.61654 15.4235 9.73503 15.4007 9.85352 15.3779C9.97656 15.3551 10.07 15.3164 10.1338 15.2617C10.1429 15.2617 10.1566 15.2435 10.1748 15.207C10.193 15.1706 10.2067 15.1523 10.2158 15.1523C10.2386 15.1159 10.2591 15.0999 10.2773 15.1045C10.3001 15.109 10.3229 15.0977 10.3457 15.0703C10.3548 15.043 10.3708 15.0042 10.3936 14.9541C10.4209 14.904 10.4482 14.8516 10.4756 14.7969C10.5029 14.7422 10.528 14.6921 10.5508 14.6465C10.5781 14.5964 10.5964 14.5645 10.6055 14.5508C10.6055 14.5417 10.6077 14.5257 10.6123 14.5029C10.6214 14.4756 10.6305 14.4482 10.6396 14.4209C10.6488 14.3936 10.6579 14.3685 10.667 14.3457C10.6761 14.3184 10.6829 14.3001 10.6875 14.291C10.7376 14.1634 10.7992 14.0426 10.8721 13.9287C10.9495 13.8148 11.0133 13.694 11.0635 13.5664C11.1364 13.4069 11.1888 13.2428 11.2207 13.0742C11.2572 12.9056 11.305 12.7438 11.3643 12.5889C11.3688 12.5798 11.3779 12.5638 11.3916 12.541C11.4053 12.5137 11.4189 12.4863 11.4326 12.459C11.4508 12.4271 11.4645 12.3997 11.4736 12.377C11.4873 12.3496 11.4941 12.3314 11.4941 12.3223V12.2676C11.4941 12.2311 11.4896 12.1947 11.4805 12.1582C11.4714 12.1172 11.4486 12.0876 11.4121 12.0693C11.3893 12.0693 11.3506 12.0671 11.2959 12.0625C11.2412 12.0579 11.1842 12.0534 11.125 12.0488C11.0703 12.0443 11.0156 12.0397 10.9609 12.0352C10.9108 12.0306 10.8766 12.0283 10.8584 12.0283C10.8493 12.0283 10.8242 12.026 10.7832 12.0215C10.7422 12.0124 10.6966 12.0033 10.6465 11.9941C10.6009 11.9805 10.5576 11.9691 10.5166 11.96C10.4756 11.9508 10.4482 11.9417 10.4346 11.9326H10.3867C10.3092 11.9326 10.2318 11.944 10.1543 11.9668C10.0768 11.985 9.99707 11.9941 9.91504 11.9941C9.80566 11.9941 9.70312 11.985 9.60742 11.9668C9.51172 11.944 9.40918 11.9326 9.2998 11.9326C9.21777 11.9326 9.14258 11.9349 9.07422 11.9395C9.00586 11.944 8.93066 11.9577 8.84863 11.9805C8.83496 11.9941 8.8099 12.0169 8.77344 12.0488C8.73698 12.0807 8.69824 12.1149 8.65723 12.1514C8.62077 12.1878 8.58431 12.222 8.54785 12.2539C8.51139 12.2858 8.48633 12.3086 8.47266 12.3223C8.41341 12.377 8.36328 12.4294 8.32227 12.4795C8.28581 12.5296 8.25163 12.5798 8.21973 12.6299C8.18783 12.68 8.15365 12.7301 8.11719 12.7803C8.08073 12.8258 8.03743 12.876 7.9873 12.9307C7.97819 12.9398 7.9554 12.9557 7.91895 12.9785C7.88704 12.9967 7.86882 13.0081 7.86426 13.0127L7.83008 13.0469C7.80729 13.0697 7.79134 13.0902 7.78223 13.1084C7.75944 13.1266 7.72982 13.1562 7.69336 13.1973C7.66146 13.2337 7.625 13.2725 7.58398 13.3135C7.54753 13.3545 7.51335 13.391 7.48145 13.4229C7.4541 13.4548 7.43815 13.4707 7.43359 13.4707C7.43359 13.4798 7.42676 13.4958 7.41309 13.5186C7.40397 13.5368 7.39714 13.5527 7.39258 13.5664L6.36719 14.5986C6.33984 14.6351 6.31706 14.6693 6.29883 14.7012C6.2806 14.7285 6.26009 14.7559 6.2373 14.7832C6.21908 14.8105 6.2054 14.8333 6.19629 14.8516C6.15983 14.9108 6.12109 14.9723 6.08008 15.0361C6.04362 15.0954 6.02539 15.1637 6.02539 15.2412C6.02539 15.2913 6.04134 15.3301 6.07324 15.3574C6.10514 15.3802 6.14388 15.3962 6.18945 15.4053C6.23503 15.4144 6.28288 15.4212 6.33301 15.4258C6.38314 15.4303 6.42643 15.4349 6.46289 15.4395C6.46745 15.4486 6.47884 15.4577 6.49707 15.4668C6.51986 15.4759 6.53353 15.4805 6.53809 15.4805C6.55632 15.4896 6.5791 15.501 6.60645 15.5146C6.63835 15.5238 6.65885 15.5283 6.66797 15.5283H6.80469C6.80924 15.5329 6.81836 15.5397 6.83203 15.5488C6.85026 15.5579 6.86849 15.5671 6.88672 15.5762C6.90495 15.5853 6.92318 15.5944 6.94141 15.6035C6.95964 15.6081 6.97103 15.6104 6.97559 15.6104C7.0166 15.6331 7.06217 15.6491 7.1123 15.6582C7.16243 15.6673 7.20801 15.6787 7.24902 15.6924C7.2946 15.7061 7.33105 15.7266 7.3584 15.7539C7.38574 15.7812 7.39941 15.8245 7.39941 15.8838C7.39941 15.9476 7.38574 15.9977 7.3584 16.0342C7.33561 16.0706 7.28548 16.0889 7.20801 16.0889H7.1875C7.17383 16.0889 7.14193 16.0866 7.0918 16.082C7.04622 16.0775 6.99609 16.0729 6.94141 16.0684C6.89128 16.0638 6.84342 16.0592 6.79785 16.0547C6.75228 16.0501 6.72493 16.0479 6.71582 16.0479C6.65202 16.0387 6.5791 16.0273 6.49707 16.0137C6.4196 16.0046 6.34896 16 6.28516 16C6.13021 16 5.97298 16.016 5.81348 16.0479C5.65853 16.0843 5.50358 16.098 5.34863 16.0889C5.33952 16.0889 5.32129 16.0843 5.29395 16.0752C5.27116 16.0706 5.24609 16.0615 5.21875 16.0479C5.19141 16.0387 5.16406 16.0296 5.13672 16.0205C5.11393 16.0114 5.10026 16.0046 5.0957 16H5.06152H5.04785C4.84277 16.0456 4.63542 16.0661 4.42578 16.0615C4.2207 16.0615 4.01107 16.0706 3.79688 16.0889C3.78776 16.0889 3.7627 16.0934 3.72168 16.1025C3.68066 16.1162 3.6556 16.123 3.64648 16.123H3.48926C3.39811 16.123 3.30241 16.1139 3.20215 16.0957C3.09733 16.082 3.00163 16.0501 2.91504 16ZM15.8213 13.4365C15.8213 13.4821 15.8327 13.5231 15.8555 13.5596C15.8828 13.596 15.9147 13.6279 15.9512 13.6553C15.9876 13.6826 16.0264 13.7031 16.0674 13.7168C16.113 13.7305 16.1562 13.7373 16.1973 13.7373H16.2109C16.3841 13.6462 16.5413 13.5391 16.6826 13.416C16.8239 13.2884 16.9538 13.1517 17.0723 13.0059C17.0996 12.9648 17.1338 12.9329 17.1748 12.9102C17.2204 12.8828 17.2546 12.8418 17.2773 12.7871C17.2773 12.7734 17.2842 12.7529 17.2979 12.7256L17.3252 12.6709C17.3298 12.6527 17.3411 12.623 17.3594 12.582C17.3776 12.541 17.3981 12.5 17.4209 12.459C17.4437 12.418 17.4642 12.3815 17.4824 12.3496C17.5052 12.3132 17.5212 12.2904 17.5303 12.2812C17.5394 12.2721 17.5645 12.2402 17.6055 12.1855C17.6465 12.1309 17.6784 12.0898 17.7012 12.0625L17.7217 12.042C17.7399 12.0329 17.749 12.0238 17.749 12.0146C17.8083 11.9281 17.8493 11.8278 17.8721 11.7139C17.8994 11.5999 17.9268 11.4906 17.9541 11.3857C17.986 11.2855 18.0247 11.1989 18.0703 11.126C18.1159 11.0485 18.1387 10.9551 18.1387 10.8457C18.1387 10.791 18.1341 10.734 18.125 10.6748C18.1204 10.6156 18.1068 10.5609 18.084 10.5107C18.0658 10.4606 18.0384 10.4196 18.002 10.3877C17.9655 10.3558 17.9154 10.3398 17.8516 10.3398C17.8014 10.3398 17.7536 10.349 17.708 10.3672C17.6624 10.3854 17.6146 10.3945 17.5645 10.3945C17.5371 10.3945 17.5143 10.39 17.4961 10.3809C17.4141 10.4583 17.3275 10.5449 17.2363 10.6406C17.1497 10.7318 17.0632 10.8275 16.9766 10.9277C16.89 11.0234 16.8057 11.1214 16.7236 11.2217C16.6462 11.3219 16.5755 11.4176 16.5117 11.5088C16.498 11.5179 16.4798 11.5452 16.457 11.5908C16.4388 11.6364 16.4251 11.6637 16.416 11.6729C16.416 11.6774 16.4092 11.6865 16.3955 11.7002C16.3864 11.7139 16.3727 11.7298 16.3545 11.748C16.3408 11.7617 16.3271 11.7754 16.3135 11.7891C16.3044 11.7982 16.2998 11.805 16.2998 11.8096C16.2952 11.8096 16.2907 11.821 16.2861 11.8438C16.2816 11.862 16.277 11.8848 16.2725 11.9121C16.2679 11.9349 16.2633 11.9577 16.2588 11.9805C16.2588 11.9987 16.2588 12.0101 16.2588 12.0146C16.2542 12.0192 16.2474 12.0306 16.2383 12.0488C16.2292 12.0625 16.2178 12.0807 16.2041 12.1035C16.195 12.1217 16.1859 12.14 16.1768 12.1582C16.1676 12.1764 16.1631 12.1855 16.1631 12.1855C16.154 12.2174 16.138 12.2653 16.1152 12.3291C16.0924 12.3929 16.0697 12.459 16.0469 12.5273C16.0286 12.5957 16.0104 12.6595 15.9922 12.7188C15.974 12.7734 15.9626 12.8099 15.958 12.8281C15.9535 12.8372 15.9489 12.8577 15.9443 12.8896C15.9398 12.917 15.9352 12.9466 15.9307 12.9785C15.9261 13.0104 15.9215 13.0423 15.917 13.0742C15.9124 13.1016 15.9102 13.1198 15.9102 13.1289C15.9102 13.1335 15.9033 13.1494 15.8896 13.1768C15.8805 13.1995 15.8714 13.2269 15.8623 13.2588C15.8532 13.2861 15.8441 13.3135 15.835 13.3408C15.8258 13.3682 15.8213 13.3864 15.8213 13.3955V13.4365ZM16.0742 16.3418H15.9033H15.7734C15.7507 16.3509 15.7165 16.3577 15.6709 16.3623C15.6299 16.3714 15.5866 16.3783 15.541 16.3828C15.4954 16.3919 15.4544 16.3988 15.418 16.4033C15.3815 16.4124 15.3587 16.4193 15.3496 16.4238C15.3451 16.4238 15.3268 16.4261 15.2949 16.4307C15.2676 16.4352 15.2357 16.4398 15.1992 16.4443C15.1673 16.4489 15.1354 16.4535 15.1035 16.458C15.0762 16.4626 15.0579 16.4671 15.0488 16.4717C15.0443 16.4717 15.0238 16.4854 14.9873 16.5127C14.9554 16.54 14.9349 16.5537 14.9258 16.5537C14.9121 16.5583 14.8825 16.5651 14.8369 16.5742C14.7959 16.5879 14.7708 16.5947 14.7617 16.5947C14.6934 16.6403 14.6318 16.6973 14.5771 16.7656C14.5225 16.834 14.4769 16.9069 14.4404 16.9844C14.3994 17.0664 14.3698 17.1484 14.3516 17.2305C14.3288 17.3171 14.3174 17.3968 14.3174 17.4697C14.3174 17.6292 14.347 17.7751 14.4062 17.9072C14.4609 18.0439 14.5339 18.1784 14.625 18.3105C14.6523 18.3607 14.6888 18.3971 14.7344 18.4199C14.7799 18.4473 14.8278 18.4701 14.8779 18.4883C14.9326 18.5065 14.985 18.5225 15.0352 18.5361C15.0898 18.5544 15.14 18.5771 15.1855 18.6045C15.3177 18.6865 15.4499 18.7663 15.582 18.8438C15.7188 18.9212 15.8555 18.9987 15.9922 19.0762C16.0059 19.0853 16.0514 19.099 16.1289 19.1172C16.2109 19.14 16.2998 19.1605 16.3955 19.1787C16.4912 19.2015 16.5824 19.2197 16.6689 19.2334C16.7555 19.2516 16.8102 19.2607 16.833 19.2607C16.9242 19.2607 17.0199 19.2448 17.1201 19.2129C17.2249 19.181 17.3206 19.1514 17.4072 19.124C17.4163 19.1195 17.4323 19.1126 17.4551 19.1035C17.4824 19.0944 17.5098 19.083 17.5371 19.0693C17.5645 19.0602 17.5895 19.0511 17.6123 19.042C17.6351 19.0374 17.651 19.0352 17.6602 19.0352C17.8698 18.9805 18.0156 18.8734 18.0977 18.7139C18.1797 18.5544 18.2207 18.3766 18.2207 18.1807V17.9277C18.1842 17.8366 18.1364 17.7546 18.0771 17.6816C18.0179 17.6133 17.9632 17.5358 17.9131 17.4492C17.9131 17.4447 17.9085 17.4333 17.8994 17.415C17.8949 17.4014 17.888 17.3831 17.8789 17.3604C17.8743 17.3421 17.8675 17.3239 17.8584 17.3057C17.8493 17.292 17.8447 17.2852 17.8447 17.2852C17.8356 17.2806 17.8197 17.2715 17.7969 17.2578C17.7741 17.2441 17.7513 17.2305 17.7285 17.2168C17.7057 17.2031 17.6829 17.1895 17.6602 17.1758C17.6419 17.1667 17.6305 17.1621 17.626 17.1621C17.5531 17.112 17.4801 17.0482 17.4072 16.9707C17.3389 16.8978 17.266 16.8454 17.1885 16.8135C17.1794 16.8089 17.1589 16.7998 17.127 16.7861C17.0996 16.777 17.0814 16.7725 17.0723 16.7725C17.0449 16.7588 17.0062 16.7406 16.9561 16.7178C16.9059 16.6995 16.8535 16.6768 16.7988 16.6494C16.7441 16.6266 16.6917 16.6061 16.6416 16.5879C16.596 16.5697 16.5664 16.5583 16.5527 16.5537C16.4844 16.5309 16.4069 16.4922 16.3203 16.4375C16.2337 16.3874 16.1517 16.3555 16.0742 16.3418ZM13.0869 17.2646C13.0869 17.2373 13.1097 17.1872 13.1553 17.1143C13.2008 17.0459 13.2533 16.9707 13.3125 16.8887C13.3672 16.8112 13.4242 16.7383 13.4834 16.6699C13.5381 16.6061 13.5791 16.5674 13.6064 16.5537C13.6064 16.5537 13.6201 16.5514 13.6475 16.5469C13.6702 16.5423 13.6953 16.5378 13.7227 16.5332C13.75 16.5332 13.7773 16.5309 13.8047 16.5264C13.832 16.5218 13.8503 16.5195 13.8594 16.5195C13.8639 16.515 13.8844 16.499 13.9209 16.4717C13.9528 16.4489 13.9893 16.4238 14.0303 16.3965C14.0667 16.3737 14.1032 16.3509 14.1396 16.3281C14.1715 16.3099 14.1921 16.3008 14.2012 16.3008H14.29H14.6045H14.6729C14.682 16.3008 14.7184 16.2871 14.7822 16.2598C14.846 16.2324 14.8939 16.2142 14.9258 16.2051C14.944 16.2096 14.9714 16.2142 15.0078 16.2188C15.0488 16.2233 15.0898 16.2279 15.1309 16.2324C15.1719 16.237 15.2083 16.2415 15.2402 16.2461C15.2767 16.2507 15.2972 16.2529 15.3018 16.2529C15.3154 16.2575 15.3473 16.2598 15.3975 16.2598C15.4476 16.2643 15.5 16.2666 15.5547 16.2666C15.6094 16.2712 15.6595 16.2734 15.7051 16.2734C15.7507 16.2734 15.778 16.2734 15.7871 16.2734C15.8509 16.2643 15.9033 16.2484 15.9443 16.2256C15.9854 16.2028 16.0059 16.1732 16.0059 16.1367C16.0059 16.0866 15.9557 16.0365 15.8555 15.9863C15.7552 15.9316 15.6458 15.8656 15.5273 15.7881C15.4089 15.7106 15.2995 15.6126 15.1992 15.4941C15.099 15.3711 15.0488 15.2139 15.0488 15.0225C15.0488 14.9176 15.0693 14.8014 15.1104 14.6738C15.1514 14.5417 15.2152 14.4391 15.3018 14.3662C15.3291 14.348 15.3587 14.3343 15.3906 14.3252C15.4271 14.3115 15.4613 14.2956 15.4932 14.2773C15.5296 14.2591 15.5592 14.2386 15.582 14.2158C15.6048 14.193 15.6162 14.1634 15.6162 14.127C15.6162 14.0358 15.5889 13.9606 15.5342 13.9014C15.4795 13.8421 15.4339 13.7715 15.3975 13.6895C15.3883 13.6712 15.3724 13.6348 15.3496 13.5801C15.3314 13.5208 15.3154 13.4821 15.3018 13.4639C15.3018 13.4593 15.2926 13.4479 15.2744 13.4297C15.2607 13.4115 15.2425 13.391 15.2197 13.3682C15.2015 13.3408 15.1833 13.318 15.165 13.2998C15.1514 13.277 15.1445 13.2611 15.1445 13.252C15.1354 13.2474 15.124 13.236 15.1104 13.2178C15.1012 13.195 15.0967 13.1813 15.0967 13.1768V13.1494C15.0967 12.8805 15.1172 12.639 15.1582 12.4248C15.2038 12.2061 15.2676 12.001 15.3496 11.8096C15.4316 11.6182 15.5296 11.4313 15.6436 11.249C15.762 11.0622 15.8942 10.8617 16.04 10.6475C16.0719 10.5973 16.113 10.554 16.1631 10.5176C16.2178 10.4811 16.2725 10.4469 16.3271 10.415C16.3864 10.3786 16.4411 10.3421 16.4912 10.3057C16.5459 10.2692 16.5938 10.2259 16.6348 10.1758C16.7852 10.1165 16.9287 10.0596 17.0654 10.0049C17.2067 9.94564 17.3594 9.91602 17.5234 9.91602C17.6283 9.91602 17.7354 9.92969 17.8447 9.95703C17.9541 9.98438 18.0521 10.0277 18.1387 10.0869C18.1842 10.1234 18.2275 10.1644 18.2686 10.21C18.3141 10.251 18.3597 10.2897 18.4053 10.3262C18.4508 10.3581 18.501 10.3854 18.5557 10.4082C18.6104 10.431 18.6742 10.4424 18.7471 10.4424C18.8063 10.4424 18.8564 10.4424 18.8975 10.4424C18.943 10.4424 18.9863 10.4401 19.0273 10.4355C19.0684 10.431 19.1117 10.4242 19.1572 10.415C19.2028 10.4059 19.2575 10.3923 19.3213 10.374C19.3304 10.3695 19.3464 10.3649 19.3691 10.3604C19.3965 10.3558 19.4215 10.349 19.4443 10.3398L19.54 10.3125H19.6221C19.6676 10.3125 19.695 10.3171 19.7041 10.3262C19.7087 10.3262 19.7383 10.3307 19.793 10.3398C19.8477 10.3444 19.8796 10.3512 19.8887 10.3604C20.0163 10.3786 20.1257 10.4264 20.2168 10.5039C20.3079 10.5768 20.3535 10.6816 20.3535 10.8184C20.3535 11.1647 20.194 11.3379 19.875 11.3379C19.8021 11.3379 19.7406 11.3265 19.6904 11.3037C19.6403 11.2809 19.5924 11.2536 19.5469 11.2217C19.5013 11.1852 19.4535 11.1488 19.4033 11.1123C19.3577 11.0713 19.3053 11.0348 19.2461 11.0029C19.2324 10.9984 19.196 10.9893 19.1367 10.9756C19.082 10.9574 19.0479 10.9482 19.0342 10.9482H18.9658H18.9316C18.9134 10.9482 18.8997 10.9505 18.8906 10.9551C18.8815 10.9596 18.8724 10.9733 18.8633 10.9961C18.8633 11.0007 18.8564 11.0257 18.8428 11.0713C18.8337 11.1169 18.8245 11.1442 18.8154 11.1533C18.8154 11.1715 18.8018 11.2057 18.7744 11.2559C18.7516 11.3014 18.7357 11.3288 18.7266 11.3379C18.7266 11.347 18.7288 11.3675 18.7334 11.3994C18.738 11.4268 18.7402 11.4564 18.7402 11.4883C18.7402 11.5156 18.7357 11.5339 18.7266 11.543C18.7129 11.625 18.6969 11.6956 18.6787 11.7549C18.6605 11.8096 18.64 11.8643 18.6172 11.9189C18.599 11.9736 18.5762 12.0306 18.5488 12.0898C18.526 12.1445 18.501 12.2083 18.4736 12.2812C18.4691 12.2858 18.4645 12.3018 18.46 12.3291C18.46 12.3519 18.4577 12.377 18.4531 12.4043C18.4486 12.4316 18.444 12.459 18.4395 12.4863C18.4349 12.5137 18.4303 12.5296 18.4258 12.5342C18.4076 12.6071 18.3734 12.6937 18.3232 12.7939C18.2777 12.8896 18.223 12.9854 18.1592 13.0811C18.0999 13.1768 18.0361 13.2679 17.9678 13.3545C17.904 13.4411 17.847 13.5072 17.7969 13.5527C17.7786 13.5618 17.7536 13.5778 17.7217 13.6006C17.6898 13.6234 17.6693 13.6393 17.6602 13.6484C17.651 13.6484 17.6237 13.653 17.5781 13.6621C17.5371 13.6712 17.5098 13.6803 17.4961 13.6895C17.4915 13.694 17.4756 13.71 17.4482 13.7373C17.4255 13.7601 17.3981 13.7874 17.3662 13.8193C17.3389 13.8467 17.3115 13.874 17.2842 13.9014C17.2614 13.9242 17.2454 13.9378 17.2363 13.9424C17.2318 13.9469 17.2181 13.9515 17.1953 13.9561C17.1725 13.9606 17.1452 13.9652 17.1133 13.9697C17.0859 13.9743 17.0586 13.9788 17.0312 13.9834C17.0085 13.988 16.9925 13.9902 16.9834 13.9902C16.9743 13.9902 16.9447 14.0016 16.8945 14.0244C16.849 14.0472 16.8193 14.0632 16.8057 14.0723C16.71 14.1178 16.6211 14.1543 16.5391 14.1816C16.4616 14.2044 16.3682 14.2204 16.2588 14.2295C16.236 14.2386 16.2064 14.2454 16.1699 14.25C16.1335 14.25 16.097 14.2546 16.0605 14.2637C16.0286 14.2682 16.0013 14.2796 15.9785 14.2979C15.9557 14.3161 15.9443 14.3434 15.9443 14.3799C15.9443 14.4528 15.9535 14.5303 15.9717 14.6123C15.9899 14.6943 16.015 14.7741 16.0469 14.8516C16.0833 14.929 16.1266 15.002 16.1768 15.0703C16.2269 15.1341 16.2839 15.1865 16.3477 15.2275C16.3568 15.2367 16.3818 15.2458 16.4229 15.2549C16.4684 15.2594 16.498 15.2663 16.5117 15.2754C16.5163 15.2754 16.5299 15.2822 16.5527 15.2959C16.5755 15.305 16.5915 15.3141 16.6006 15.3232C16.7464 15.4007 16.8968 15.4736 17.0518 15.542C17.2113 15.6104 17.3594 15.6901 17.4961 15.7812C17.6009 15.8587 17.7012 15.9362 17.7969 16.0137C17.8926 16.0957 17.9928 16.1755 18.0977 16.2529C18.0977 16.2575 18.1068 16.2643 18.125 16.2734C18.1478 16.2871 18.1706 16.3008 18.1934 16.3145C18.2207 16.3327 18.2435 16.3486 18.2617 16.3623C18.2845 16.376 18.2982 16.3851 18.3027 16.3896C18.5625 16.6084 18.763 16.8613 18.9043 17.1484C19.0456 17.4401 19.1162 17.7546 19.1162 18.0918C19.1162 18.3652 19.041 18.609 18.8906 18.8232C18.7448 19.042 18.5625 19.2266 18.3438 19.377C18.321 19.3906 18.2891 19.4089 18.248 19.4316C18.2116 19.459 18.1729 19.484 18.1318 19.5068C18.0908 19.5342 18.0498 19.5592 18.0088 19.582C17.9723 19.6048 17.9404 19.6208 17.9131 19.6299C17.8037 19.6709 17.6898 19.6982 17.5713 19.7119C17.4528 19.7301 17.3411 19.7643 17.2363 19.8145H16.2588C16.2497 19.8145 16.2223 19.8076 16.1768 19.7939C16.1312 19.7848 16.097 19.7757 16.0742 19.7666C15.9466 19.7256 15.8099 19.696 15.6641 19.6777C15.5228 19.6595 15.3883 19.6208 15.2607 19.5615C15.2562 19.557 15.2425 19.5456 15.2197 19.5273C15.2015 19.5137 15.181 19.5 15.1582 19.4863C15.1354 19.4727 15.1126 19.459 15.0898 19.4453C15.0671 19.4316 15.0534 19.4248 15.0488 19.4248C14.9714 19.3792 14.8939 19.3519 14.8164 19.3428C14.7389 19.3382 14.6592 19.3177 14.5771 19.2812C14.5225 19.2721 14.4587 19.2425 14.3857 19.1924C14.3128 19.1468 14.2513 19.1081 14.2012 19.0762C14.1875 19.0716 14.1579 19.0534 14.1123 19.0215C14.0667 18.9941 14.0166 18.9622 13.9619 18.9258C13.9027 18.8939 13.848 18.8597 13.7979 18.8232C13.7432 18.7913 13.7021 18.7663 13.6748 18.748C13.5882 18.6842 13.5039 18.609 13.4219 18.5225C13.3353 18.4359 13.2806 18.3379 13.2578 18.2285C13.2578 18.2194 13.2555 18.2012 13.251 18.1738C13.2464 18.151 13.2419 18.1237 13.2373 18.0918C13.2327 18.0645 13.2282 18.0394 13.2236 18.0166C13.2191 17.9938 13.2168 17.9801 13.2168 17.9756C13.2122 17.971 13.2054 17.9596 13.1963 17.9414C13.1872 17.9232 13.1781 17.9027 13.1689 17.8799C13.1598 17.8617 13.153 17.8434 13.1484 17.8252C13.1393 17.807 13.1348 17.7956 13.1348 17.791C13.1257 17.7819 13.1211 17.7477 13.1211 17.6885C13.1211 17.6383 13.1234 17.5814 13.1279 17.5176C13.1325 17.4583 13.1348 17.4242 13.1348 17.415C13.1348 17.4014 13.1257 17.3763 13.1074 17.3398C13.0983 17.3216 13.0915 17.3034 13.0869 17.2852V17.2646Z" fill="#888888"/>
</svg>
