<svg width="24" height="24" viewBox="0 0 24 24" fill="none" xmlns="http://www.w3.org/2000/svg">
<path d="M3.08496 15.7402C3.08496 15.6536 3.11458 15.5876 3.17383 15.542C3.22852 15.4964 3.2946 15.4622 3.37207 15.4395C3.44954 15.4121 3.52702 15.3916 3.60449 15.3779C3.68652 15.3597 3.7526 15.3346 3.80273 15.3027C3.81641 15.2936 3.83464 15.2799 3.85742 15.2617C3.88021 15.2389 3.90527 15.2161 3.93262 15.1934C3.95996 15.166 3.9873 15.1432 4.01465 15.125C4.04199 15.1022 4.0625 15.0863 4.07617 15.0771L4.4043 14.9131C4.44531 14.8949 4.49544 14.8424 4.55469 14.7559C4.61849 14.6693 4.68001 14.5736 4.73926 14.4688C4.80306 14.3594 4.8623 14.2546 4.91699 14.1543C4.97168 14.0495 5.01042 13.972 5.0332 13.9219C5.04232 13.9128 5.04915 13.8877 5.05371 13.8467C5.05827 13.8057 5.06055 13.7738 5.06055 13.751C5.0651 13.7327 5.07422 13.71 5.08789 13.6826C5.10156 13.6507 5.1084 13.6302 5.1084 13.6211C5.11751 13.612 5.13346 13.5915 5.15625 13.5596C5.17904 13.5231 5.2041 13.4867 5.23145 13.4502C5.25879 13.4137 5.28158 13.3796 5.2998 13.3477C5.32259 13.3112 5.33626 13.2884 5.34082 13.2793C5.34538 13.2747 5.34993 13.2588 5.35449 13.2314C5.35905 13.1995 5.36361 13.1676 5.36816 13.1357C5.37272 13.0993 5.37728 13.0651 5.38184 13.0332C5.38639 13.0013 5.38867 12.9808 5.38867 12.9717C5.41602 12.8258 5.45475 12.68 5.50488 12.5342C5.55957 12.3838 5.61198 12.2357 5.66211 12.0898C5.7168 11.944 5.76465 11.7959 5.80566 11.6455C5.84668 11.4951 5.87402 11.3424 5.8877 11.1875L6.35938 9.88867C6.42318 9.70638 6.45964 9.51497 6.46875 9.31445C6.48242 9.10938 6.5166 8.90885 6.57129 8.71289C6.64876 8.53516 6.74219 8.36198 6.85156 8.19336C6.96094 8.02018 7.0612 7.83561 7.15234 7.63965C7.18424 7.53939 7.20247 7.43457 7.20703 7.3252C7.21615 7.21126 7.2526 7.10645 7.31641 7.01074C7.33919 6.97884 7.39616 6.91732 7.4873 6.82617C7.57845 6.73503 7.67643 6.6416 7.78125 6.5459C7.88607 6.4502 7.98861 6.36589 8.08887 6.29297C8.18913 6.22005 8.26204 6.18359 8.30762 6.18359C8.39421 6.18359 8.45345 6.21549 8.48535 6.2793C8.50814 6.29753 8.53092 6.32715 8.55371 6.36816C8.58105 6.40918 8.59473 6.43424 8.59473 6.44336C8.61751 6.52539 8.64941 6.60742 8.69043 6.68945C8.73145 6.77148 8.76562 6.86035 8.79297 6.95605L8.78613 7.10645C8.78613 7.17025 8.7998 7.23861 8.82715 7.31152C8.85905 7.37988 8.88411 7.43685 8.90234 7.48242C8.95247 7.64193 8.99577 7.79688 9.03223 7.94727C9.07324 8.09766 9.10514 8.24805 9.12793 8.39844C9.14616 8.48958 9.17578 8.57389 9.2168 8.65137C9.25781 8.72428 9.27832 8.80859 9.27832 8.9043L9.27148 9.01367C9.35352 9.08659 9.41504 9.15267 9.45605 9.21191C9.49707 9.27116 9.52897 9.33268 9.55176 9.39648C9.5791 9.45573 9.60417 9.52181 9.62695 9.59473C9.6543 9.66309 9.69531 9.7474 9.75 9.84766C9.79557 9.9388 9.82975 10.0254 9.85254 10.1074C9.87533 10.1849 9.89355 10.2646 9.90723 10.3467C9.92546 10.4287 9.94368 10.5153 9.96191 10.6064C9.98014 10.6976 10.0098 10.7956 10.0508 10.9004C10.0553 10.9232 10.069 10.9619 10.0918 11.0166C10.1191 11.0713 10.1328 11.1077 10.1328 11.126V11.3857C10.1328 11.3949 10.1419 11.4154 10.1602 11.4473C10.1784 11.4792 10.1989 11.5156 10.2217 11.5566C10.2445 11.5931 10.265 11.6296 10.2832 11.666C10.3014 11.7025 10.3105 11.7275 10.3105 11.7412C10.3105 11.7458 10.3105 11.7594 10.3105 11.7822C10.3151 11.8005 10.3174 11.8232 10.3174 11.8506C10.3219 11.8734 10.3265 11.8962 10.3311 11.9189C10.3356 11.9417 10.3402 11.9531 10.3447 11.9531L10.5361 12.1445C10.568 12.1719 10.5885 12.2038 10.5977 12.2402C10.6068 12.2767 10.6136 12.3177 10.6182 12.3633C10.6227 12.4043 10.6273 12.4476 10.6318 12.4932C10.6364 12.5342 10.6501 12.5752 10.6729 12.6162C10.7275 12.7438 10.7754 12.876 10.8164 13.0127C10.8574 13.1449 10.9121 13.277 10.9805 13.4092C11.0215 13.5049 11.0557 13.6074 11.083 13.7168C11.1104 13.8216 11.124 13.9242 11.124 14.0244V14.1064C11.1833 14.2113 11.2493 14.3047 11.3223 14.3867C11.3952 14.4688 11.4544 14.5485 11.5 14.626C11.541 14.7262 11.5843 14.806 11.6299 14.8652C11.6755 14.9245 11.7188 14.9723 11.7598 15.0088C11.8053 15.0452 11.8486 15.0749 11.8896 15.0977C11.9307 15.1159 11.9717 15.1364 12.0127 15.1592C12.113 15.2184 12.2155 15.2617 12.3203 15.2891C12.4297 15.3164 12.5664 15.3438 12.7305 15.3711L12.9219 15.4189C12.9811 15.4554 13.0176 15.5101 13.0312 15.583C13.0449 15.6514 13.0518 15.7106 13.0518 15.7607C13.0518 15.8564 13.013 15.9271 12.9355 15.9727C12.8626 16.0137 12.7874 16.0342 12.71 16.0342L12.1289 16H11.9854C11.9626 15.9818 11.9307 15.9681 11.8896 15.959C11.8532 15.9453 11.8145 15.9362 11.7734 15.9316C11.7324 15.9271 11.6937 15.9248 11.6572 15.9248C11.6253 15.9248 11.6048 15.9225 11.5957 15.918H10.7822C10.7458 15.8678 10.7116 15.8405 10.6797 15.8359C10.6523 15.8268 10.6113 15.8223 10.5566 15.8223C10.3698 15.8223 10.1738 15.8473 9.96875 15.8975C9.76823 15.943 9.55404 15.9658 9.32617 15.9658H9.17578C9.10286 15.9658 9.03223 15.9635 8.96387 15.959C8.90007 15.9544 8.8431 15.9362 8.79297 15.9043C8.77018 15.8906 8.75879 15.8519 8.75879 15.7881L8.77246 15.6787C8.78158 15.6559 8.78613 15.6354 8.78613 15.6172C8.78613 15.599 8.78613 15.5853 8.78613 15.5762C8.78613 15.5443 8.7998 15.5238 8.82715 15.5146C8.90918 15.4782 9.0026 15.4508 9.10742 15.4326C9.21224 15.4144 9.3125 15.3939 9.4082 15.3711C9.50391 15.3483 9.58366 15.3164 9.64746 15.2754C9.71582 15.2344 9.75 15.1729 9.75 15.0908V15.0771C9.74544 14.9723 9.73633 14.8538 9.72266 14.7217C9.71354 14.585 9.70898 14.4505 9.70898 14.3184C9.70898 14.2728 9.69303 14.2249 9.66113 14.1748C9.63379 14.1247 9.61784 14.0791 9.61328 14.0381V13.6211C9.60417 13.5618 9.57454 13.4684 9.52441 13.3408C9.47884 13.2087 9.4196 13.0788 9.34668 12.9512C9.27832 12.8236 9.20312 12.7119 9.12109 12.6162C9.03906 12.516 8.95703 12.4658 8.875 12.4658C8.75651 12.4658 8.63346 12.4909 8.50586 12.541C8.38281 12.5911 8.25749 12.6162 8.12988 12.6162C8.02051 12.6162 7.91569 12.5957 7.81543 12.5547C7.71973 12.5091 7.60579 12.4863 7.47363 12.4863H7.03613C6.94043 12.4863 6.84245 12.4932 6.74219 12.5068C6.64648 12.516 6.55762 12.5456 6.47559 12.5957C6.33431 12.6777 6.20443 12.7894 6.08594 12.9307C5.96745 13.0674 5.88086 13.2383 5.82617 13.4434L5.77832 13.9219C5.77832 13.931 5.77376 13.9538 5.76465 13.9902C5.75553 14.0267 5.74642 14.0654 5.7373 14.1064C5.72819 14.1475 5.71908 14.1862 5.70996 14.2227C5.70085 14.2546 5.69629 14.2751 5.69629 14.2842C5.69629 14.2933 5.69401 14.307 5.68945 14.3252C5.6849 14.3434 5.68262 14.3617 5.68262 14.3799C5.68262 14.4619 5.69629 14.5212 5.72363 14.5576C5.75098 14.5941 5.78516 14.6488 5.82617 14.7217C5.84896 14.7627 5.87858 14.8174 5.91504 14.8857C5.95605 14.9541 5.99707 15.0133 6.03809 15.0635C6.10189 15.1182 6.1862 15.1615 6.29102 15.1934C6.40039 15.2253 6.50749 15.2594 6.6123 15.2959C6.71712 15.3324 6.80599 15.3779 6.87891 15.4326C6.95638 15.4873 6.99512 15.5625 6.99512 15.6582V15.7061C6.97233 15.8838 6.90625 16 6.79688 16.0547C6.6875 16.1139 6.54622 16.1436 6.37305 16.1436L5.77832 15.9863H5.53223C5.4502 15.9863 5.36589 15.9886 5.2793 15.9932C5.19271 15.9977 5.1084 16.0046 5.02637 16.0137C4.94889 16.0228 4.87826 16.0342 4.81445 16.0479C4.75521 16.0661 4.70964 16.0866 4.67773 16.1094C4.5638 16.1094 4.44987 16.1117 4.33594 16.1162C4.22656 16.1208 4.1263 16.1253 4.03516 16.1299C3.94857 16.1344 3.87565 16.1367 3.81641 16.1367C3.76172 16.1413 3.72982 16.1436 3.7207 16.1436C3.66146 16.1436 3.59538 16.1344 3.52246 16.1162C3.44954 16.098 3.37891 16.0706 3.31055 16.0342C3.24674 15.9977 3.19434 15.9567 3.15332 15.9111C3.10775 15.861 3.08496 15.804 3.08496 15.7402ZM6.60547 11.1055C6.60091 11.1556 6.59635 11.2057 6.5918 11.2559C6.58724 11.3014 6.58496 11.3447 6.58496 11.3857C6.58496 11.5133 6.61458 11.5999 6.67383 11.6455C6.73307 11.6865 6.82422 11.707 6.94727 11.707C6.96094 11.707 6.97233 11.7025 6.98145 11.6934C6.986 11.6888 6.99056 11.682 6.99512 11.6729C7.00423 11.6729 7.03385 11.6683 7.08398 11.6592C7.13867 11.6501 7.17741 11.6432 7.2002 11.6387C7.24121 11.6432 7.27995 11.6501 7.31641 11.6592C7.35742 11.6683 7.38932 11.6729 7.41211 11.6729H8.48535C8.79525 11.6729 8.9502 11.5316 8.9502 11.249C8.9502 11.208 8.93424 11.1556 8.90234 11.0918C8.875 11.028 8.84082 10.9596 8.7998 10.8867C8.75879 10.8092 8.71777 10.7295 8.67676 10.6475C8.6403 10.5654 8.61296 10.4857 8.59473 10.4082C8.59473 10.3763 8.58333 10.349 8.56055 10.3262L8.23926 9.84766C8.23926 9.82487 8.23014 9.80208 8.21191 9.7793C8.19824 9.75651 8.18685 9.73372 8.17773 9.71094L8.14355 9.56738C8.12077 9.47168 8.09342 9.35547 8.06152 9.21875C8.02962 9.08203 7.99089 8.95215 7.94531 8.8291C7.89974 8.70605 7.84733 8.60124 7.78809 8.51465C7.7334 8.42806 7.67188 8.38477 7.60352 8.38477C7.5625 8.38477 7.51009 8.44401 7.44629 8.5625C7.38249 8.68099 7.31185 8.83138 7.23438 9.01367C7.16146 9.19596 7.08626 9.39876 7.00879 9.62207C6.93587 9.84082 6.86979 10.0505 6.81055 10.251C6.7513 10.4515 6.70117 10.6315 6.66016 10.791C6.6237 10.946 6.60547 11.0508 6.60547 11.1055ZM15.7588 16.1162L15.6357 16.0684L15.2119 15.9863C15.1117 15.9681 15.016 15.9385 14.9248 15.8975C14.8337 15.8564 14.7357 15.82 14.6309 15.7881C14.5716 15.7653 14.5078 15.7471 14.4395 15.7334C14.3757 15.7197 14.3187 15.6947 14.2686 15.6582C14.264 15.6536 14.2594 15.6514 14.2549 15.6514C14.2503 15.6468 14.2458 15.6423 14.2412 15.6377C14.2321 15.6331 14.2253 15.6286 14.2207 15.624L13.9268 15.2412C13.9222 15.2321 13.9131 15.2161 13.8994 15.1934C13.8857 15.1706 13.8698 15.1455 13.8516 15.1182C13.8333 15.0908 13.8151 15.0658 13.7969 15.043C13.7786 15.0156 13.765 14.9951 13.7559 14.9814C13.7467 14.9723 13.7399 14.9632 13.7354 14.9541C13.7262 14.9359 13.7217 14.9222 13.7217 14.9131C13.6807 14.8083 13.6328 14.7103 13.5781 14.6191C13.528 14.5234 13.4779 14.4232 13.4277 14.3184C13.4186 14.3092 13.4095 14.291 13.4004 14.2637C13.3958 14.2318 13.3936 14.2113 13.3936 14.2021C13.3708 14.029 13.348 13.849 13.3252 13.6621C13.307 13.4753 13.2979 13.293 13.2979 13.1152C13.2979 12.9421 13.3138 12.7757 13.3457 12.6162C13.3776 12.4521 13.4209 12.2881 13.4756 12.124C13.4756 12.1104 13.4779 12.0807 13.4824 12.0352C13.4915 11.985 13.5007 11.9554 13.5098 11.9463C13.5143 11.9417 13.5234 11.9281 13.5371 11.9053C13.5553 11.8779 13.5736 11.8506 13.5918 11.8232C13.6146 11.7959 13.6351 11.7708 13.6533 11.748C13.6715 11.7253 13.6829 11.7116 13.6875 11.707C13.6875 11.6979 13.6921 11.682 13.7012 11.6592C13.7103 11.6364 13.7171 11.6204 13.7217 11.6113C13.7855 11.4336 13.8607 11.2764 13.9473 11.1396C14.0384 11.0029 14.1569 10.8685 14.3027 10.7363L14.4668 10.6201L14.6787 10.4082L14.7607 10.2852C14.8063 10.235 14.8587 10.2077 14.918 10.2031C14.9772 10.194 15.0365 10.1781 15.0957 10.1553C15.1048 10.1553 15.1185 10.1507 15.1367 10.1416C15.1549 10.1279 15.1686 10.1211 15.1777 10.1211L15.3076 10.0254C15.3167 10.0254 15.3418 10.0254 15.3828 10.0254C15.4238 10.0208 15.4671 10.0186 15.5127 10.0186C15.5628 10.014 15.6084 10.0094 15.6494 10.0049C15.6904 10.0003 15.7155 9.99577 15.7246 9.99121C15.7292 9.99121 15.7656 9.97526 15.834 9.94336C15.9069 9.91146 15.9684 9.88411 16.0186 9.86133C16.0277 9.86133 16.0391 9.85905 16.0527 9.85449C16.071 9.84538 16.0824 9.83626 16.0869 9.82715C16.1051 9.83626 16.137 9.84082 16.1826 9.84082C16.2327 9.84082 16.2852 9.84082 16.3398 9.84082C16.39 9.84082 16.4401 9.84082 16.4902 9.84082C16.5404 9.84082 16.5768 9.83626 16.5996 9.82715C16.6042 9.82715 16.6156 9.82259 16.6338 9.81348C16.6566 9.80436 16.6794 9.79525 16.7021 9.78613C16.7249 9.77702 16.7454 9.7679 16.7637 9.75879C16.7819 9.74967 16.7933 9.74512 16.7979 9.74512L17.3037 9.66309H17.3926L17.6729 9.74512C17.6865 9.74512 17.7161 9.75879 17.7617 9.78613C17.8073 9.81348 17.8324 9.82715 17.8369 9.82715H18.2539C18.263 9.82715 18.2767 9.83171 18.2949 9.84082C18.3177 9.84538 18.3359 9.85221 18.3496 9.86133C18.4362 9.91602 18.516 9.9707 18.5889 10.0254C18.6663 10.0755 18.7324 10.1348 18.7871 10.2031C18.8418 10.2669 18.8851 10.3398 18.917 10.4219C18.9489 10.5039 18.9648 10.6042 18.9648 10.7227V10.832L18.9238 10.9482C18.9238 10.9574 18.9215 10.9801 18.917 11.0166C18.9124 11.0531 18.9079 11.0941 18.9033 11.1396C18.9033 11.1807 18.901 11.2217 18.8965 11.2627C18.8919 11.2992 18.8874 11.3219 18.8828 11.3311C18.8828 11.3311 18.8737 11.3424 18.8555 11.3652C18.8372 11.3835 18.8145 11.4062 18.7871 11.4336C18.7598 11.4609 18.7301 11.4883 18.6982 11.5156C18.6709 11.543 18.6481 11.5635 18.6299 11.5771C18.6071 11.5954 18.5866 11.609 18.5684 11.6182C18.5547 11.6227 18.5365 11.625 18.5137 11.625C18.4772 11.625 18.4453 11.6159 18.418 11.5977C18.3906 11.5794 18.3678 11.5612 18.3496 11.543C18.2585 11.4336 18.1742 11.3242 18.0967 11.2148C18.0238 11.1055 17.944 11.0029 17.8574 10.9072C17.7708 10.807 17.6774 10.7181 17.5771 10.6406C17.4769 10.5632 17.3584 10.5016 17.2217 10.4561C17.208 10.4515 17.1852 10.4469 17.1533 10.4424C17.126 10.4333 17.0941 10.4242 17.0576 10.415C17.0257 10.4059 16.9938 10.3968 16.9619 10.3877C16.93 10.3786 16.9072 10.374 16.8936 10.374H16.7979C16.7705 10.374 16.7181 10.3809 16.6406 10.3945C16.5677 10.4036 16.4902 10.415 16.4082 10.4287C16.3262 10.4378 16.2464 10.4492 16.1689 10.4629C16.096 10.4766 16.0459 10.4857 16.0186 10.4902C16.0049 10.4948 15.9798 10.5062 15.9434 10.5244C15.9115 10.5381 15.8773 10.554 15.8408 10.5723C15.8044 10.5859 15.7702 10.6019 15.7383 10.6201C15.7109 10.6383 15.6904 10.6543 15.6768 10.668C15.6676 10.6725 15.6449 10.6908 15.6084 10.7227C15.5765 10.7546 15.5423 10.791 15.5059 10.832C15.4694 10.8685 15.4352 10.9027 15.4033 10.9346C15.3714 10.9665 15.3509 10.987 15.3418 10.9961C15.3327 11.0007 15.3213 11.0052 15.3076 11.0098C15.2985 11.0143 15.2894 11.0189 15.2803 11.0234C15.2712 11.028 15.2643 11.0303 15.2598 11.0303C15.1139 11.1214 14.9818 11.2376 14.8633 11.3789C14.7448 11.5202 14.6445 11.6774 14.5625 11.8506C14.4805 12.0192 14.4167 12.1992 14.3711 12.3906C14.3255 12.5775 14.3027 12.7643 14.3027 12.9512C14.3027 13.0286 14.3027 13.113 14.3027 13.2041C14.3073 13.2907 14.3164 13.3773 14.3301 13.4639C14.3483 13.5505 14.3734 13.6325 14.4053 13.71C14.4372 13.7874 14.485 13.8535 14.5488 13.9082L14.7197 14.5303C14.7288 14.5713 14.7471 14.6077 14.7744 14.6396C14.8063 14.667 14.8405 14.6921 14.877 14.7148C14.9134 14.7331 14.9499 14.7513 14.9863 14.7695C15.0273 14.7832 15.0638 14.7992 15.0957 14.8174C15.1094 14.8265 15.1299 14.8538 15.1572 14.8994C15.1891 14.945 15.221 14.9974 15.2529 15.0566C15.2894 15.1113 15.3236 15.166 15.3555 15.2207C15.3874 15.2708 15.4102 15.305 15.4238 15.3232C15.4648 15.3779 15.515 15.4076 15.5742 15.4121C15.6335 15.4121 15.695 15.4258 15.7588 15.4531C15.7633 15.4531 15.7725 15.46 15.7861 15.4736C15.8044 15.4827 15.8226 15.4941 15.8408 15.5078C15.859 15.5215 15.875 15.5352 15.8887 15.5488C15.9069 15.5625 15.9183 15.5716 15.9229 15.5762C16.0231 15.64 16.1211 15.6833 16.2168 15.7061C16.3125 15.7288 16.4196 15.7402 16.5381 15.7402H16.6816C16.6862 15.7402 16.6976 15.7357 16.7158 15.7266C16.7386 15.7174 16.7614 15.7083 16.7842 15.6992C16.807 15.6901 16.8275 15.681 16.8457 15.6719C16.8685 15.6628 16.8844 15.6582 16.8936 15.6582C16.9027 15.6491 16.93 15.6423 16.9756 15.6377C17.0212 15.6286 17.0485 15.624 17.0576 15.624C17.1579 15.5921 17.2285 15.5534 17.2695 15.5078C17.3105 15.4622 17.3379 15.4121 17.3516 15.3574C17.3698 15.3027 17.3857 15.2412 17.3994 15.1729C17.4176 15.1045 17.4541 15.0293 17.5088 14.9473L17.5566 13.9902C17.5566 13.9492 17.5339 13.9173 17.4883 13.8945C17.4427 13.8672 17.3857 13.8444 17.3174 13.8262C17.249 13.8079 17.1738 13.7897 17.0918 13.7715C17.0143 13.7533 16.9414 13.7282 16.873 13.6963C16.8047 13.6644 16.7477 13.6257 16.7021 13.5801C16.6566 13.5299 16.6338 13.4684 16.6338 13.3955C16.6338 13.3682 16.6383 13.3477 16.6475 13.334C16.6611 13.3203 16.6885 13.3021 16.7295 13.2793C16.7295 13.2747 16.7409 13.2679 16.7637 13.2588C16.791 13.2451 16.8206 13.2337 16.8525 13.2246C16.8844 13.2109 16.9141 13.1995 16.9414 13.1904C16.9733 13.1768 16.9961 13.1676 17.0098 13.1631H17.0234C17.1009 13.1631 17.1738 13.1768 17.2422 13.2041C17.3151 13.2314 17.388 13.2451 17.4609 13.2451C17.4701 13.2451 17.4792 13.2428 17.4883 13.2383C17.4928 13.2383 17.4997 13.236 17.5088 13.2314C17.7412 13.2132 17.9759 13.195 18.2129 13.1768C18.4499 13.1585 18.6868 13.1494 18.9238 13.1494L19.1289 13.1631C19.138 13.1631 19.1494 13.179 19.1631 13.2109C19.1813 13.2428 19.2018 13.318 19.2246 13.4365C19.2246 13.4821 19.1973 13.5277 19.1426 13.5732C19.0924 13.6143 19.0332 13.6598 18.9648 13.71C18.901 13.7601 18.8418 13.8193 18.7871 13.8877C18.737 13.9515 18.7119 14.029 18.7119 14.1201C18.7119 14.1748 18.7256 14.2227 18.7529 14.2637C18.7803 14.3001 18.7939 14.3389 18.7939 14.3799C18.7939 14.4391 18.7803 14.487 18.7529 14.5234C18.7256 14.5599 18.7119 14.6146 18.7119 14.6875L18.8418 15.2344C18.8418 15.2845 18.8372 15.3278 18.8281 15.3643C18.819 15.3962 18.8053 15.4281 18.7871 15.46C18.7734 15.4873 18.7529 15.5169 18.7256 15.5488C18.6982 15.5762 18.6663 15.6126 18.6299 15.6582C18.6208 15.6673 18.6117 15.6764 18.6025 15.6855C18.598 15.6901 18.5911 15.6924 18.582 15.6924C18.582 15.6969 18.5706 15.7015 18.5479 15.7061C18.5296 15.7106 18.5091 15.7152 18.4863 15.7197C18.4635 15.7243 18.4408 15.7288 18.418 15.7334C18.3997 15.738 18.3883 15.7402 18.3838 15.7402C18.3063 15.763 18.238 15.8018 18.1787 15.8564C18.1195 15.9066 18.0329 15.9499 17.9189 15.9863C17.9144 15.9909 17.8962 15.9954 17.8643 16C17.8324 16.0046 17.7959 16.0068 17.7549 16.0068C17.7184 16.0114 17.6842 16.016 17.6523 16.0205C17.6204 16.0251 17.5999 16.0296 17.5908 16.0342C17.5452 16.0433 17.4974 16.0592 17.4473 16.082C17.4017 16.1048 17.3538 16.1276 17.3037 16.1504C17.2581 16.1777 17.2126 16.2005 17.167 16.2188C17.1214 16.237 17.0781 16.2461 17.0371 16.2461H16.9688C16.9505 16.2461 16.9368 16.2438 16.9277 16.2393L16.7637 16.1504H16.5176C16.5039 16.1504 16.4811 16.1458 16.4492 16.1367C16.4173 16.1322 16.3945 16.1253 16.3809 16.1162H15.7588Z" fill="#888888"/>
</svg>
