<svg width="24" height="24" viewBox="0 0 24 24" fill="none" xmlns="http://www.w3.org/2000/svg">
<path d="M10.6475 14.76H8.36547L8.50547 13.836H10.4795L10.6475 14.76ZM9.55547 11.05L8.33747 17H7.23147L9.27547 8.152H9.83547L11.8795 17H10.7595L9.55547 11.05ZM14.408 19.436C14.072 19.436 13.7733 19.3987 13.512 19.324C13.26 19.2587 13.0407 19.156 12.854 19.016C12.6767 18.876 12.5413 18.6987 12.448 18.484C12.364 18.2787 12.322 18.0313 12.322 17.742C12.322 17.49 12.3593 17.266 12.434 17.07C12.518 16.874 12.6253 16.706 12.756 16.566C12.8867 16.4167 13.0313 16.3047 13.19 16.23L13.722 16.524C13.6287 16.6267 13.5447 16.7293 13.47 16.832C13.4047 16.9347 13.3533 17.0467 13.316 17.168C13.288 17.2893 13.274 17.434 13.274 17.602C13.274 17.742 13.302 17.8633 13.358 17.966C13.414 18.078 13.4933 18.1667 13.596 18.232C13.6987 18.3067 13.82 18.3627 13.96 18.4C14.1 18.4373 14.2633 18.456 14.45 18.456C14.6927 18.456 14.8933 18.414 15.052 18.33C15.2107 18.2553 15.3273 18.148 15.402 18.008C15.486 17.8773 15.528 17.728 15.528 17.56C15.528 17.3733 15.5 17.224 15.444 17.112C15.388 17 15.2947 16.916 15.164 16.86C15.0333 16.804 14.8513 16.776 14.618 16.776C14.394 16.776 14.1793 16.7667 13.974 16.748C13.778 16.72 13.596 16.678 13.428 16.622C13.26 16.566 13.1153 16.4867 12.994 16.384C12.8727 16.2813 12.7793 16.1553 12.714 16.006C12.6487 15.8567 12.616 15.6793 12.616 15.474C12.616 15.2127 12.6813 14.97 12.812 14.746C12.952 14.5127 13.1153 14.3027 13.302 14.116L13.834 14.494C13.778 14.5967 13.722 14.6853 13.666 14.76C13.6193 14.8253 13.582 14.8907 13.554 14.956C13.526 15.0213 13.512 15.1007 13.512 15.194C13.512 15.3153 13.554 15.418 13.638 15.502C13.722 15.5767 13.862 15.6327 14.058 15.67C14.254 15.7073 14.5293 15.726 14.884 15.726C15.1827 15.726 15.4347 15.768 15.64 15.852C15.8453 15.9267 16.0087 16.0387 16.13 16.188C16.2607 16.3373 16.3493 16.5147 16.396 16.72C16.452 16.9253 16.48 17.1587 16.48 17.42C16.48 17.6907 16.438 17.9427 16.354 18.176C16.2793 18.4187 16.158 18.6333 15.99 18.82C15.822 19.0067 15.6073 19.156 15.346 19.268C15.0847 19.38 14.772 19.436 14.408 19.436ZM14.282 14.83C13.9367 14.83 13.6333 14.7413 13.372 14.564C13.12 14.3773 12.924 14.116 12.784 13.78C12.6533 13.444 12.588 13.0473 12.588 12.59C12.588 12.1233 12.658 11.722 12.798 11.386C12.938 11.0407 13.134 10.7793 13.386 10.602C13.6473 10.4153 13.946 10.322 14.282 10.322C14.618 10.322 14.912 10.4153 15.164 10.602C15.416 10.7793 15.612 11.0407 15.752 11.386C15.892 11.722 15.962 12.1233 15.962 12.59C15.962 13.0567 15.8873 13.458 15.738 13.794C15.598 14.13 15.402 14.3867 15.15 14.564C14.898 14.7413 14.6087 14.83 14.282 14.83ZM14.282 13.864C14.4407 13.864 14.5713 13.8173 14.674 13.724C14.7767 13.6213 14.8513 13.472 14.898 13.276C14.954 13.08 14.982 12.8513 14.982 12.59C14.982 12.31 14.954 12.0767 14.898 11.89C14.8513 11.7033 14.7767 11.5587 14.674 11.456C14.5713 11.3533 14.4407 11.302 14.282 11.302C14.1327 11.302 14.002 11.3533 13.89 11.456C13.7873 11.5587 13.708 11.7033 13.652 11.89C13.596 12.0767 13.568 12.31 13.568 12.59C13.568 12.8513 13.5913 13.08 13.638 13.276C13.694 13.4627 13.7733 13.6073 13.876 13.71C13.988 13.8127 14.1233 13.864 14.282 13.864ZM15.654 11.736L15.29 11.106C15.4767 10.854 15.6773 10.6627 15.892 10.532C16.116 10.4013 16.368 10.35 16.648 10.378L16.732 11.344C16.5267 11.3067 16.3353 11.3207 16.158 11.386C15.9807 11.442 15.8127 11.5587 15.654 11.736Z" fill="#888888"/>
</svg>
