<svg width="24" height="24" viewBox="0 0 24 24" fill="none" xmlns="http://www.w3.org/2000/svg">
<path d="M10.1687 17L9.46873 14.942H6.82273L6.10873 17H4.49873L7.78873 8.208H8.53073L11.8207 17H10.1687ZM8.15273 11.092L7.21473 13.794H9.07673L8.15273 11.092ZM15.514 14.788C15.1593 14.788 14.8233 14.7413 14.506 14.648C14.394 14.7227 14.3007 14.7927 14.226 14.858C14.1607 14.9233 14.128 15.0073 14.128 15.11C14.128 15.278 14.3147 15.404 14.688 15.488C15.0613 15.5627 15.6867 15.6 16.564 15.6C17.1893 15.6 17.684 15.6793 18.048 15.838C18.412 15.9967 18.6687 16.2067 18.818 16.468C18.9767 16.7293 19.056 17.0187 19.056 17.336C19.056 17.7 18.9393 18.0453 18.706 18.372C18.4727 18.6987 18.1087 18.9647 17.614 19.17C17.1193 19.3847 16.48 19.492 15.696 19.492C14.6787 19.492 13.876 19.338 13.288 19.03C12.7093 18.722 12.42 18.3067 12.42 17.784C12.42 17.4947 12.518 17.2333 12.714 17C12.91 16.7573 13.1573 16.566 13.456 16.426C13.2787 16.3233 13.1387 16.1973 13.036 16.048C12.9333 15.8893 12.882 15.7073 12.882 15.502C12.882 15.2407 12.9613 15.0073 13.12 14.802C13.2787 14.5967 13.4747 14.4053 13.708 14.228C13.4467 14.032 13.2413 13.7893 13.092 13.5C12.9427 13.2107 12.868 12.898 12.868 12.562C12.868 12.142 12.98 11.764 13.204 11.428C13.428 11.0827 13.7407 10.8073 14.142 10.602C14.5433 10.3967 15.0007 10.294 15.514 10.294C15.8687 10.294 16.1953 10.3453 16.494 10.448C16.7927 10.5413 17.054 10.672 17.278 10.84C17.558 10.6627 17.8613 10.532 18.188 10.448C18.524 10.3547 18.8833 10.3173 19.266 10.336L19.434 11.428C19.1727 11.3813 18.9113 11.372 18.65 11.4C18.3887 11.428 18.1553 11.4933 17.95 11.596C18.0993 11.8947 18.174 12.2167 18.174 12.562C18.174 12.982 18.0573 13.3647 17.824 13.71C17.6 14.046 17.2873 14.312 16.886 14.508C16.4847 14.6947 16.0273 14.788 15.514 14.788ZM15.514 13.64C15.8873 13.64 16.1953 13.542 16.438 13.346C16.69 13.1407 16.816 12.8793 16.816 12.562C16.816 12.2447 16.69 11.9927 16.438 11.806C16.1953 11.61 15.8873 11.512 15.514 11.512C15.178 11.512 14.8793 11.6147 14.618 11.82C14.3567 12.016 14.226 12.2633 14.226 12.562C14.226 12.8607 14.352 13.1173 14.604 13.332C14.856 13.5373 15.1593 13.64 15.514 13.64ZM13.68 17.532C13.68 17.784 13.876 17.966 14.268 18.078C14.66 18.1993 15.1733 18.26 15.808 18.26C16.4147 18.26 16.8813 18.19 17.208 18.05C17.544 17.9193 17.712 17.7373 17.712 17.504C17.712 17.2893 17.6 17.1353 17.376 17.042C17.1613 16.9487 16.7507 16.902 16.144 16.902C15.8173 16.902 15.4953 16.8927 15.178 16.874C14.87 16.846 14.5853 16.804 14.324 16.748C14.1467 16.8507 13.9927 16.9627 13.862 17.084C13.7407 17.2053 13.68 17.3547 13.68 17.532Z" fill="#333333"/>
</svg>
