<svg width="24" height="24" viewBox="0 0 24 24" fill="none" xmlns="http://www.w3.org/2000/svg">
<path d="M11.108 17L10.604 14.242H8.896L8.392 17H8.112L9.694 8.124H9.806L11.388 17H11.108ZM9.75 9.496L8.938 13.976H10.562L9.75 9.496ZM13.152 14.83C12.9653 14.83 12.8113 14.7787 12.69 14.676C12.606 14.76 12.55 14.844 12.522 14.928C12.494 15.012 12.48 15.1333 12.48 15.292C12.48 15.6093 12.55 15.824 12.69 15.936C12.8393 16.048 13.068 16.104 13.376 16.104C13.7027 16.104 13.9733 16.216 14.188 16.44C14.412 16.664 14.524 17.0093 14.524 17.476C14.524 17.8027 14.4913 18.1153 14.426 18.414C14.37 18.7127 14.2533 18.9507 14.076 19.128C13.908 19.3147 13.6513 19.408 13.306 19.408C12.438 19.408 12.004 18.8573 12.004 17.756C12.004 17.392 12.0507 17.0747 12.144 16.804C12.2373 16.5333 12.3587 16.3047 12.508 16.118C12.312 15.95 12.214 15.7307 12.214 15.46C12.214 15.0493 12.3167 14.7273 12.522 14.494C12.3073 14.1673 12.2 13.556 12.2 12.66C12.2 12.0067 12.27 11.4933 12.41 11.12C12.5593 10.7467 12.8067 10.56 13.152 10.56C13.5347 10.56 13.8007 10.798 13.95 11.274C14.0713 11.0313 14.202 10.8587 14.342 10.756C14.482 10.644 14.6453 10.602 14.832 10.63L14.79 10.966C14.6407 10.938 14.5007 10.9893 14.37 11.12C14.2393 11.2413 14.1227 11.3953 14.02 11.582C14.076 11.8713 14.104 12.2307 14.104 12.66C14.104 13.3973 14.034 13.9433 13.894 14.298C13.754 14.6527 13.5067 14.83 13.152 14.83ZM13.152 14.55C13.404 14.55 13.5767 14.4053 13.67 14.116C13.7633 13.8267 13.81 13.3413 13.81 12.66C13.81 12.1373 13.768 11.7033 13.684 11.358C13.6 11.0127 13.4227 10.84 13.152 10.84C12.8907 10.84 12.7133 11.0127 12.62 11.358C12.536 11.7033 12.494 12.1373 12.494 12.66C12.494 13.3413 12.5453 13.8267 12.648 14.116C12.76 14.4053 12.928 14.55 13.152 14.55ZM12.298 17.644C12.298 18.204 12.382 18.5913 12.55 18.806C12.718 19.03 12.97 19.142 13.306 19.142C13.5767 19.142 13.7727 19.0673 13.894 18.918C14.0247 18.7687 14.1087 18.5773 14.146 18.344C14.1927 18.1107 14.216 17.8727 14.216 17.63C14.216 17.1353 14.1367 16.804 13.978 16.636C13.8287 16.468 13.5907 16.384 13.264 16.384C13.0493 16.384 12.858 16.342 12.69 16.258C12.5593 16.4727 12.4613 16.692 12.396 16.916C12.3307 17.1307 12.298 17.3733 12.298 17.644Z" fill="#333333"/>
</svg>
