<svg width="24" height="24" viewBox="0 0 24 24" fill="none" xmlns="http://www.w3.org/2000/svg">
<path d="M10.506 14.872H8.924L9.022 13.948H10.394L10.506 14.872ZM9.75 11.33L9.106 17H8.084L9.414 8.124H10.086L11.416 17H10.38L9.75 11.33ZM13.236 19.408C12.9747 19.408 12.746 19.3753 12.55 19.31C12.3633 19.2447 12.2047 19.142 12.074 19.002C11.9433 18.8713 11.8453 18.6987 11.78 18.484C11.7147 18.2693 11.682 18.0127 11.682 17.714C11.682 17.4527 11.71 17.2193 11.766 17.014C11.822 16.818 11.8967 16.65 11.99 16.51C12.0927 16.3607 12.2047 16.244 12.326 16.16L12.886 16.51C12.8207 16.6127 12.7647 16.72 12.718 16.832C12.6807 16.9347 12.6527 17.0467 12.634 17.168C12.6153 17.2987 12.606 17.4433 12.606 17.602C12.606 17.742 12.62 17.8633 12.648 17.966C12.676 18.0687 12.718 18.1527 12.774 18.218C12.83 18.2927 12.8953 18.344 12.97 18.372C13.0447 18.4093 13.1333 18.428 13.236 18.428C13.376 18.428 13.4927 18.386 13.586 18.302C13.6793 18.218 13.7493 18.1107 13.796 17.98C13.8427 17.8493 13.866 17.7047 13.866 17.546C13.866 17.3407 13.8427 17.1773 13.796 17.056C13.7587 16.944 13.698 16.8647 13.614 16.818C13.5393 16.7713 13.4507 16.748 13.348 16.748C13.1893 16.748 13.0353 16.7387 12.886 16.72C12.7367 16.7013 12.6013 16.6687 12.48 16.622C12.3587 16.566 12.2513 16.4913 12.158 16.398C12.074 16.2953 12.0087 16.1693 11.962 16.02C11.9153 15.8707 11.892 15.684 11.892 15.46C11.9013 15.2173 11.9667 14.9793 12.088 14.746C12.2093 14.5127 12.3447 14.3027 12.494 14.116L13.04 14.494C12.9933 14.5967 12.9467 14.69 12.9 14.774C12.8627 14.8487 12.8253 14.9233 12.788 14.998C12.76 15.0633 12.746 15.138 12.746 15.222C12.746 15.334 12.7693 15.4273 12.816 15.502C12.8627 15.5673 12.9467 15.6187 13.068 15.656C13.1893 15.684 13.362 15.698 13.586 15.698C13.7913 15.698 13.9687 15.7353 14.118 15.81C14.2673 15.8753 14.3887 15.978 14.482 16.118C14.5753 16.258 14.6407 16.44 14.678 16.664C14.7247 16.8787 14.748 17.1353 14.748 17.434C14.748 17.7047 14.7153 17.9613 14.65 18.204C14.594 18.4467 14.5053 18.6567 14.384 18.834C14.2627 19.0113 14.104 19.1513 13.908 19.254C13.7213 19.3567 13.4973 19.408 13.236 19.408ZM13.18 14.83C12.872 14.83 12.62 14.7507 12.424 14.592C12.2373 14.4333 12.0973 14.1907 12.004 13.864C11.9107 13.528 11.864 13.1033 11.864 12.59C11.864 12.0673 11.9153 11.638 12.018 11.302C12.1207 10.966 12.27 10.714 12.466 10.546C12.662 10.378 12.8953 10.294 13.166 10.294C13.4367 10.294 13.67 10.378 13.866 10.546C14.062 10.714 14.2113 10.966 14.314 11.302C14.4167 11.638 14.468 12.0673 14.468 12.59C14.468 13.1313 14.4073 13.57 14.286 13.906C14.174 14.2327 14.02 14.4707 13.824 14.62C13.628 14.76 13.4133 14.83 13.18 14.83ZM13.18 13.878C13.2827 13.878 13.3573 13.836 13.404 13.752C13.4507 13.6587 13.4787 13.5187 13.488 13.332C13.4973 13.136 13.502 12.8887 13.502 12.59C13.502 12.282 13.4973 12.0347 13.488 11.848C13.4787 11.6613 13.4507 11.526 13.404 11.442C13.3573 11.3487 13.2827 11.302 13.18 11.302C13.0773 11.302 12.998 11.3487 12.942 11.442C12.8953 11.526 12.8627 11.6613 12.844 11.848C12.8347 12.0347 12.83 12.282 12.83 12.59C12.83 12.8887 12.8347 13.136 12.844 13.332C12.8627 13.5187 12.8953 13.6587 12.942 13.752C12.998 13.836 13.0773 13.878 13.18 13.878ZM14.188 11.834L13.908 11.176C14.0387 10.9053 14.174 10.6953 14.314 10.546C14.4633 10.3967 14.6453 10.336 14.86 10.364L14.888 11.358C14.7387 11.33 14.6127 11.358 14.51 11.442C14.4167 11.5167 14.3093 11.6473 14.188 11.834Z" fill="#888888"/>
</svg>
