<svg width="24" height="24" viewBox="0 0 24 24" fill="none" xmlns="http://www.w3.org/2000/svg">
<path d="M10.3493 17L9.56527 14.452H7.10127L6.31727 17H5.39327L8.26327 8.124H8.43127L11.3013 17H10.3493ZM8.33327 10.462L7.33927 13.696H9.32727L8.33327 10.462ZM14.356 14.83C14.0387 14.83 13.7493 14.7693 13.488 14.648C13.3387 14.844 13.264 15.0353 13.264 15.222C13.264 15.446 13.3853 15.6093 13.628 15.712C13.8707 15.8053 14.328 15.852 15 15.852C15.588 15.852 16.0313 15.922 16.33 16.062C16.638 16.202 16.848 16.3933 16.96 16.636C17.072 16.8787 17.128 17.1587 17.128 17.476C17.128 17.8027 17.044 18.1153 16.876 18.414C16.7173 18.7127 16.456 18.9507 16.092 19.128C15.728 19.3147 15.238 19.408 14.622 19.408C13.8193 19.408 13.18 19.268 12.704 18.988C12.228 18.7173 11.99 18.3067 11.99 17.756C11.99 17.4107 12.0787 17.1167 12.256 16.874C12.4333 16.622 12.6433 16.44 12.886 16.328C12.606 16.1227 12.466 15.8333 12.466 15.46C12.466 15.2547 12.5127 15.054 12.606 14.858C12.6993 14.662 12.8253 14.4753 12.984 14.298C12.5547 13.878 12.34 13.3087 12.34 12.59C12.34 11.9553 12.522 11.428 12.886 11.008C13.25 10.5787 13.74 10.364 14.356 10.364C14.6733 10.364 14.958 10.4247 15.21 10.546C15.462 10.658 15.672 10.812 15.84 11.008C16.064 10.7933 16.2927 10.6393 16.526 10.546C16.7687 10.4433 17.0533 10.406 17.38 10.434L17.506 11.26C17.254 11.232 17.016 11.2367 16.792 11.274C16.568 11.3113 16.3627 11.4 16.176 11.54C16.3067 11.8573 16.372 12.2073 16.372 12.59C16.372 13.2247 16.19 13.7567 15.826 14.186C15.4713 14.6153 14.9813 14.83 14.356 14.83ZM14.356 14.004C14.7293 14.004 15.0233 13.8687 15.238 13.598C15.462 13.3273 15.574 12.9913 15.574 12.59C15.574 12.1887 15.462 11.8527 15.238 11.582C15.0233 11.3113 14.7293 11.176 14.356 11.176C13.992 11.176 13.698 11.3113 13.474 11.582C13.25 11.8527 13.138 12.1887 13.138 12.59C13.138 12.9913 13.25 13.3273 13.474 13.598C13.698 13.8687 13.992 14.004 14.356 14.004ZM12.872 17.644C12.872 17.9613 13.026 18.204 13.334 18.372C13.6513 18.5493 14.0853 18.638 14.636 18.638C15.2053 18.638 15.616 18.5447 15.868 18.358C16.12 18.1713 16.246 17.9287 16.246 17.63C16.246 17.4247 16.2133 17.252 16.148 17.112C16.0827 16.9813 15.9473 16.888 15.742 16.832C15.5367 16.7667 15.2287 16.734 14.818 16.734C14.23 16.734 13.754 16.678 13.39 16.566C13.2033 16.706 13.068 16.8507 12.984 17C12.9093 17.1587 12.872 17.3733 12.872 17.644Z" fill="#333333"/>
</svg>
