<svg width="24" height="24" viewBox="0 0 24 24" fill="none" xmlns="http://www.w3.org/2000/svg">
<path d="M10.222 15.306H6.652L6.89 13.934H9.942L10.222 15.306ZM8.514 11.666L7.1 17H5.14L7.912 8.278H9.102L11.874 17H9.886L8.514 11.666ZM15.262 19.562C14.7953 19.562 14.3753 19.5153 14.002 19.422C13.638 19.338 13.33 19.2167 13.078 19.058C12.826 18.8993 12.6347 18.7127 12.504 18.498C12.3733 18.2833 12.308 18.0547 12.308 17.812C12.308 17.6067 12.364 17.4107 12.476 17.224C12.588 17.0373 12.742 16.8693 12.938 16.72C13.134 16.5613 13.3487 16.4353 13.582 16.342L14.492 16.664C14.3893 16.748 14.2727 16.832 14.142 16.916C14.0207 16.9907 13.918 17.07 13.834 17.154C13.75 17.2473 13.708 17.3547 13.708 17.476C13.708 17.5787 13.7547 17.6627 13.848 17.728C13.9413 17.8027 14.0673 17.8587 14.226 17.896C14.394 17.9427 14.5807 17.9753 14.786 17.994C15.0007 18.0127 15.2293 18.022 15.472 18.022C15.78 18.022 16.046 17.9987 16.27 17.952C16.5033 17.9053 16.6807 17.8353 16.802 17.742C16.9327 17.6487 16.998 17.5413 16.998 17.42C16.998 17.3173 16.9607 17.238 16.886 17.182C16.8113 17.126 16.69 17.084 16.522 17.056C16.354 17.0373 16.1347 17.028 15.864 17.028C15.5747 17.028 15.276 17.0187 14.968 17C14.6693 16.972 14.38 16.9253 14.1 16.86C13.82 16.7947 13.5633 16.706 13.33 16.594C13.106 16.482 12.9287 16.342 12.798 16.174C12.6673 15.9967 12.602 15.782 12.602 15.53C12.602 15.1847 12.7093 14.9 12.924 14.676C13.1387 14.4427 13.386 14.242 13.666 14.074L14.548 14.508C14.464 14.5827 14.38 14.6433 14.296 14.69C14.2213 14.7273 14.156 14.7693 14.1 14.816C14.0533 14.8533 14.03 14.9187 14.03 15.012C14.03 15.096 14.114 15.1707 14.282 15.236C14.45 15.3013 14.7113 15.3527 15.066 15.39C15.4207 15.418 15.878 15.432 16.438 15.432C16.802 15.432 17.1147 15.4833 17.376 15.586C17.6467 15.6793 17.866 15.8147 18.034 15.992C18.2113 16.16 18.342 16.3513 18.426 16.566C18.51 16.7807 18.552 17.0093 18.552 17.252C18.552 17.5413 18.482 17.8213 18.342 18.092C18.2113 18.372 18.006 18.6193 17.726 18.834C17.4553 19.058 17.1147 19.2353 16.704 19.366C16.2933 19.4967 15.8127 19.562 15.262 19.562ZM15.248 14.788C14.7907 14.788 14.366 14.69 13.974 14.494C13.5913 14.298 13.2833 14.032 13.05 13.696C12.826 13.36 12.714 12.9773 12.714 12.548C12.714 12.1187 12.826 11.7313 13.05 11.386C13.2833 11.0407 13.5913 10.7653 13.974 10.56C14.366 10.3547 14.7907 10.252 15.248 10.252C15.7147 10.252 16.1393 10.3547 16.522 10.56C16.9047 10.7653 17.208 11.0407 17.432 11.386C17.6653 11.7313 17.782 12.1187 17.782 12.548C17.782 12.9773 17.6653 13.36 17.432 13.696C17.208 14.032 16.9047 14.298 16.522 14.494C16.1393 14.69 15.7147 14.788 15.248 14.788ZM15.234 13.43C15.402 13.43 15.5513 13.3973 15.682 13.332C15.8127 13.2573 15.9153 13.1547 15.99 13.024C16.074 12.884 16.116 12.7253 16.116 12.548C16.116 12.3707 16.074 12.2213 15.99 12.1C15.9153 11.9787 15.808 11.8853 15.668 11.82C15.5373 11.7453 15.3927 11.708 15.234 11.708C15.1033 11.708 14.9727 11.7453 14.842 11.82C14.7113 11.8947 14.5993 11.9973 14.506 12.128C14.422 12.2493 14.38 12.3893 14.38 12.548C14.38 12.7067 14.4173 12.856 14.492 12.996C14.576 13.1267 14.6833 13.234 14.814 13.318C14.9447 13.3927 15.0847 13.43 15.234 13.43ZM17.376 11.708L16.634 10.77C16.8953 10.602 17.208 10.4667 17.572 10.364C17.936 10.2613 18.3093 10.224 18.692 10.252L18.86 11.512C18.5987 11.4467 18.3327 11.4373 18.062 11.484C17.7913 11.5213 17.5627 11.596 17.376 11.708Z" fill="#888888"/>
</svg>
