<svg width="24" height="24" viewBox="0 0 24 24" fill="none" xmlns="http://www.w3.org/2000/svg">
<path d="M9.98673 17L9.37073 15.096H6.92073L6.29073 17H4.47073L7.69073 8.236H8.62873L11.8347 17H9.98673ZM8.15273 11.344L7.34073 13.836H8.96473L8.15273 11.344ZM15.528 14.788C15.1827 14.788 14.856 14.7413 14.548 14.648C14.4453 14.7133 14.352 14.774 14.268 14.83C14.1933 14.886 14.156 14.9653 14.156 15.068C14.156 15.2173 14.3473 15.3293 14.73 15.404C15.122 15.4787 15.766 15.516 16.662 15.516C17.2593 15.516 17.7353 15.6 18.09 15.768C18.454 15.9267 18.7153 16.1413 18.874 16.412C19.0327 16.6827 19.112 16.9767 19.112 17.294C19.112 17.6673 18.9907 18.022 18.748 18.358C18.5053 18.694 18.1273 18.9693 17.614 19.184C17.1007 19.408 16.4473 19.52 15.654 19.52C14.6367 19.52 13.834 19.3567 13.246 19.03C12.6673 18.7127 12.378 18.302 12.378 17.798C12.378 17.518 12.4713 17.2613 12.658 17.028C12.854 16.804 13.1013 16.6173 13.4 16.468C13.2133 16.356 13.064 16.2253 12.952 16.076C12.8493 15.9173 12.798 15.7307 12.798 15.516C12.798 15.236 12.882 14.9933 13.05 14.788C13.218 14.5733 13.428 14.382 13.68 14.214C13.4093 14.0087 13.1947 13.766 13.036 13.486C12.8867 13.1967 12.812 12.884 12.812 12.548C12.812 12.128 12.9287 11.7453 13.162 11.4C13.4047 11.0547 13.7313 10.784 14.142 10.588C14.5527 10.3827 15.0147 10.28 15.528 10.28C15.864 10.28 16.1813 10.3267 16.48 10.42C16.7787 10.504 17.0447 10.6207 17.278 10.77C17.5487 10.6113 17.8567 10.49 18.202 10.406C18.5473 10.3127 18.916 10.28 19.308 10.308L19.476 11.47C18.944 11.3767 18.4633 11.428 18.034 11.624C18.174 11.9133 18.244 12.2213 18.244 12.548C18.244 12.9773 18.1227 13.36 17.88 13.696C17.6467 14.032 17.3247 14.298 16.914 14.494C16.5127 14.69 16.0507 14.788 15.528 14.788ZM15.528 13.514C15.8733 13.514 16.158 13.43 16.382 13.262C16.606 13.0847 16.718 12.8467 16.718 12.548C16.718 12.2587 16.6013 12.03 16.368 11.862C16.144 11.694 15.864 11.61 15.528 11.61C15.2293 11.61 14.9587 11.6987 14.716 11.876C14.4733 12.0533 14.352 12.2773 14.352 12.548C14.352 12.8187 14.4687 13.0473 14.702 13.234C14.9353 13.4207 15.2107 13.514 15.528 13.514ZM13.736 17.504C13.736 17.728 13.9273 17.8867 14.31 17.98C14.6927 18.0827 15.192 18.134 15.808 18.134C16.3773 18.134 16.8253 18.0733 17.152 17.952C17.4787 17.8307 17.642 17.6673 17.642 17.462C17.642 17.2847 17.5347 17.154 17.32 17.07C17.1147 16.9953 16.732 16.958 16.172 16.958C15.8547 16.958 15.5373 16.9487 15.22 16.93C14.912 16.902 14.6227 16.86 14.352 16.804C14.184 16.8973 14.0393 16.9953 13.918 17.098C13.7967 17.21 13.736 17.3453 13.736 17.504Z" fill="#333333"/>
</svg>
