<svg width="24" height="24" viewBox="0 0 24 24" fill="none" xmlns="http://www.w3.org/2000/svg">
<path d="M10.4265 14.606H7.83653L8.00453 13.752H10.2305L10.4265 14.606ZM9.19453 10.77L7.58453 17H6.56253L9.01253 8.138H9.37653L11.8265 17H10.7765L9.19453 10.77ZM14.758 19.422C14.394 19.422 14.0673 19.3847 13.778 19.31C13.4887 19.2447 13.2413 19.142 13.036 19.002C12.8307 18.862 12.672 18.6893 12.56 18.484C12.4573 18.2787 12.406 18.036 12.406 17.756C12.406 17.504 12.448 17.2753 12.532 17.07C12.6253 16.8647 12.7467 16.6967 12.896 16.566C13.0453 16.426 13.2087 16.3187 13.386 16.244L13.848 16.524C13.736 16.6173 13.638 16.7153 13.554 16.818C13.4793 16.9207 13.4187 17.0327 13.372 17.154C13.3347 17.2847 13.316 17.4387 13.316 17.616C13.316 17.7653 13.3487 17.896 13.414 18.008C13.4887 18.1293 13.5913 18.2273 13.722 18.302C13.8527 18.3767 14.0067 18.4327 14.184 18.47C14.3613 18.5073 14.5667 18.526 14.8 18.526C15.108 18.526 15.36 18.484 15.556 18.4C15.752 18.3253 15.8967 18.218 15.99 18.078C16.0833 17.938 16.13 17.7747 16.13 17.588C16.13 17.4013 16.102 17.2473 16.046 17.126C15.99 17.0047 15.878 16.916 15.71 16.86C15.542 16.7947 15.2993 16.762 14.982 16.762C14.7207 16.762 14.478 16.7527 14.254 16.734C14.03 16.706 13.8247 16.6593 13.638 16.594C13.4607 16.5287 13.3067 16.4493 13.176 16.356C13.0453 16.2533 12.9473 16.132 12.882 15.992C12.8167 15.8427 12.784 15.6653 12.784 15.46C12.784 15.208 12.8493 14.97 12.98 14.746C13.1107 14.522 13.274 14.312 13.47 14.116L13.974 14.494C13.8993 14.5967 13.834 14.6853 13.778 14.76C13.7313 14.8347 13.694 14.9047 13.666 14.97C13.6473 15.0353 13.638 15.11 13.638 15.194C13.638 15.334 13.6847 15.4507 13.778 15.544C13.8713 15.628 14.03 15.6887 14.254 15.726C14.4873 15.7633 14.8047 15.782 15.206 15.782C15.57 15.782 15.8733 15.824 16.116 15.908C16.3587 15.992 16.5453 16.1087 16.676 16.258C16.816 16.398 16.914 16.5707 16.97 16.776C17.0353 16.9813 17.068 17.2053 17.068 17.448C17.068 17.7 17.0213 17.9427 16.928 18.176C16.844 18.4187 16.7133 18.6333 16.536 18.82C16.3587 19.0067 16.1207 19.1513 15.822 19.254C15.5327 19.366 15.178 19.422 14.758 19.422ZM14.576 14.83C14.2027 14.83 13.876 14.7367 13.596 14.55C13.316 14.354 13.0967 14.088 12.938 13.752C12.7887 13.416 12.714 13.0287 12.714 12.59C12.714 12.1513 12.7887 11.764 12.938 11.428C13.0967 11.0827 13.316 10.8167 13.596 10.63C13.876 10.434 14.2027 10.336 14.576 10.336C14.9493 10.336 15.2713 10.434 15.542 10.63C15.822 10.8167 16.0367 11.0827 16.186 11.428C16.3447 11.764 16.424 12.1513 16.424 12.59C16.424 13.0287 16.3447 13.416 16.186 13.752C16.0367 14.088 15.822 14.354 15.542 14.55C15.2713 14.7367 14.9493 14.83 14.576 14.83ZM14.576 13.92C14.772 13.92 14.94 13.864 15.08 13.752C15.22 13.64 15.3273 13.486 15.402 13.29C15.486 13.0847 15.528 12.8513 15.528 12.59C15.528 12.3193 15.486 12.086 15.402 11.89C15.3273 11.6847 15.22 11.526 15.08 11.414C14.94 11.302 14.772 11.246 14.576 11.246C14.38 11.246 14.2073 11.3067 14.058 11.428C13.918 11.54 13.8107 11.694 13.736 11.89C13.6613 12.086 13.624 12.3193 13.624 12.59C13.624 12.842 13.6613 13.0707 13.736 13.276C13.8107 13.4813 13.918 13.64 14.058 13.752C14.2073 13.864 14.38 13.92 14.576 13.92ZM16.102 11.68L15.738 11.134C15.9527 10.8727 16.1813 10.6813 16.424 10.56C16.6667 10.4293 16.9513 10.378 17.278 10.406L17.376 11.302C17.1333 11.274 16.9047 11.2833 16.69 11.33C16.4847 11.3767 16.2887 11.4933 16.102 11.68Z" fill="#888888"/>
</svg>
