<svg width="24" height="24" viewBox="0 0 24 24" fill="none" xmlns="http://www.w3.org/2000/svg">
<path d="M9.85927 17L9.32727 14.942H7.35327L6.80727 17H5.35127L7.98327 8.194H8.72527L11.3433 17H9.85927ZM8.34727 11.176L7.63327 13.864H9.04727L8.34727 11.176ZM14.412 14.816C14.1227 14.816 13.852 14.7693 13.6 14.676C13.5253 14.7507 13.46 14.8207 13.404 14.886C13.3573 14.9513 13.334 15.0307 13.334 15.124C13.334 15.2827 13.4787 15.404 13.768 15.488C14.0667 15.572 14.5753 15.614 15.294 15.614C16.0407 15.614 16.5587 15.782 16.848 16.118C17.1373 16.4447 17.282 16.86 17.282 17.364C17.282 17.728 17.184 18.0687 16.988 18.386C16.8013 18.7127 16.5027 18.974 16.092 19.17C15.6813 19.3753 15.1587 19.478 14.524 19.478C13.684 19.478 13.026 19.324 12.55 19.016C12.0833 18.7173 11.85 18.302 11.85 17.77C11.85 17.4807 11.9293 17.2193 12.088 16.986C12.2467 16.7527 12.4473 16.5613 12.69 16.412C12.5407 16.3093 12.4193 16.1833 12.326 16.034C12.242 15.8847 12.2047 15.7027 12.214 15.488C12.214 15.2453 12.2793 15.0213 12.41 14.816C12.5407 14.6107 12.6993 14.424 12.886 14.256C12.6807 14.0507 12.5173 13.808 12.396 13.528C12.2747 13.2387 12.214 12.9213 12.214 12.576C12.214 12.128 12.3073 11.736 12.494 11.4C12.6807 11.0547 12.9373 10.784 13.264 10.588C13.6 10.392 13.9827 10.294 14.412 10.294C14.9813 10.294 15.4667 10.4713 15.868 10.826C16.092 10.6487 16.3347 10.518 16.596 10.434C16.8667 10.3407 17.156 10.308 17.464 10.336L17.604 11.4C17.156 11.3253 16.7593 11.386 16.414 11.582C16.5353 11.89 16.596 12.2213 16.596 12.576C16.596 13.024 16.498 13.416 16.302 13.752C16.1153 14.088 15.854 14.3493 15.518 14.536C15.1913 14.7227 14.8227 14.816 14.412 14.816ZM14.398 13.696C14.678 13.696 14.902 13.598 15.07 13.402C15.2473 13.1967 15.336 12.9213 15.336 12.576C15.336 12.2307 15.2473 11.96 15.07 11.764C14.902 11.5587 14.678 11.456 14.398 11.456C14.146 11.456 13.9267 11.5587 13.74 11.764C13.5627 11.9693 13.474 12.24 13.474 12.576C13.474 12.9027 13.5627 13.1733 13.74 13.388C13.9173 13.5933 14.1367 13.696 14.398 13.696ZM13.012 17.56C13.012 17.812 13.1613 17.9987 13.46 18.12C13.768 18.2413 14.1553 18.302 14.622 18.302C15.0887 18.302 15.4433 18.2273 15.686 18.078C15.938 17.938 16.064 17.7513 16.064 17.518C16.064 17.2847 15.98 17.1167 15.812 17.014C15.6533 16.9207 15.35 16.874 14.902 16.874C14.65 16.874 14.398 16.8647 14.146 16.846C13.9033 16.8273 13.6747 16.79 13.46 16.734C13.3293 16.8553 13.222 16.9767 13.138 17.098C13.054 17.2193 13.012 17.3733 13.012 17.56Z" fill="#333333"/>
</svg>
