<svg width="24" height="24" viewBox="0 0 24 24" fill="none" xmlns="http://www.w3.org/2000/svg">
<path d="M10.4935 17L10.1715 15.068H8.93947L8.60347 17H7.20347L9.12147 8.18H9.98947L11.9075 17H10.4935ZM9.55547 11.456L9.12147 13.976H9.98947L9.55547 11.456ZM14.296 14.816C14.1093 14.816 13.932 14.7927 13.764 14.746C13.708 14.8207 13.6613 14.8907 13.624 14.956C13.5867 15.012 13.568 15.0773 13.568 15.152C13.568 15.3013 13.6753 15.4133 13.89 15.488C14.1047 15.5533 14.4733 15.586 14.996 15.586C15.556 15.586 15.9573 15.74 16.2 16.048C16.4427 16.356 16.564 16.7947 16.564 17.364C16.564 17.7467 16.48 18.0967 16.312 18.414C16.1533 18.7313 15.9107 18.9833 15.584 19.17C15.2573 19.366 14.8467 19.464 14.352 19.464C12.9333 19.464 12.224 18.89 12.224 17.742C12.224 17.4527 12.28 17.196 12.392 16.972C12.504 16.748 12.6533 16.5567 12.84 16.398C12.728 16.2953 12.6393 16.1693 12.574 16.02C12.5087 15.8707 12.4807 15.6933 12.49 15.488C12.49 15.264 12.5413 15.0587 12.644 14.872C12.756 14.676 12.8867 14.494 13.036 14.326C12.672 13.9433 12.49 13.36 12.49 12.576C12.49 11.8387 12.658 11.274 12.994 10.882C13.33 10.4807 13.764 10.28 14.296 10.28C14.8 10.28 15.2107 10.448 15.528 10.784C15.6867 10.6253 15.8593 10.504 16.046 10.42C16.242 10.336 16.452 10.3033 16.676 10.322L16.76 11.414C16.48 11.358 16.2187 11.4233 15.976 11.61C16.06 11.8993 16.102 12.2213 16.102 12.576C16.102 13.3507 15.92 13.92 15.556 14.284C15.2013 14.6387 14.7813 14.816 14.296 14.816ZM14.296 13.71C14.6693 13.71 14.856 13.332 14.856 12.576C14.856 11.8293 14.6693 11.456 14.296 11.456C14.128 11.456 13.9927 11.5493 13.89 11.736C13.7873 11.9133 13.736 12.1933 13.736 12.576C13.736 13.332 13.9227 13.71 14.296 13.71ZM13.344 17.56C13.344 17.812 13.442 17.994 13.638 18.106C13.8433 18.2273 14.1047 18.288 14.422 18.288C14.7207 18.288 14.9587 18.2087 15.136 18.05C15.3227 17.8913 15.416 17.7047 15.416 17.49C15.416 17.238 15.346 17.07 15.206 16.986C15.0753 16.8927 14.884 16.846 14.632 16.846C14.464 16.846 14.296 16.8413 14.128 16.832C13.96 16.8227 13.8013 16.7993 13.652 16.762C13.5587 16.8833 13.484 17.0047 13.428 17.126C13.372 17.2473 13.344 17.392 13.344 17.56Z" fill="#333333"/>
</svg>
