<svg width="24" height="24" viewBox="0 0 24 24" fill="none" xmlns="http://www.w3.org/2000/svg">
<path d="M10.2025 17L9.86653 15.25H8.50853L8.17253 17H6.50653L8.66253 8.222H9.74053L11.8965 17H10.2025ZM9.20853 11.666L8.74653 14.004H9.64253L9.20853 11.666ZM14.618 14.802C14.394 14.802 14.1793 14.774 13.974 14.718C13.9087 14.7833 13.8527 14.844 13.806 14.9C13.7687 14.9467 13.75 15.012 13.75 15.096C13.75 15.2173 13.8853 15.3153 14.156 15.39C14.436 15.4553 14.8887 15.488 15.514 15.488C16.1207 15.488 16.5593 15.6513 16.83 15.978C17.11 16.3047 17.25 16.748 17.25 17.308C17.25 17.7 17.152 18.0593 16.956 18.386C16.76 18.722 16.466 18.9927 16.074 19.198C15.6913 19.4033 15.2107 19.506 14.632 19.506C13.8387 19.506 13.2367 19.352 12.826 19.044C12.4247 18.736 12.224 18.3067 12.224 17.756C12.224 17.4947 12.2847 17.252 12.406 17.028C12.5367 16.804 12.7047 16.6127 12.91 16.454C12.7793 16.3513 12.672 16.2207 12.588 16.062C12.5133 15.9033 12.476 15.7167 12.476 15.502C12.476 15.25 12.5413 15.026 12.672 14.83C12.812 14.6247 12.9753 14.4427 13.162 14.284C12.966 14.088 12.812 13.85 12.7 13.57C12.588 13.2807 12.532 12.9447 12.532 12.562C12.532 11.8433 12.728 11.2787 13.12 10.868C13.5213 10.4573 14.0207 10.252 14.618 10.252C15.15 10.252 15.6027 10.4107 15.976 10.728C16.1627 10.5787 16.3727 10.462 16.606 10.378C16.8487 10.294 17.1007 10.2613 17.362 10.28L17.474 11.47C17.306 11.4327 17.1427 11.4327 16.984 11.47C16.8347 11.498 16.6947 11.554 16.564 11.638C16.6667 11.918 16.718 12.226 16.718 12.562C16.718 13.066 16.62 13.486 16.424 13.822C16.228 14.1487 15.9713 14.396 15.654 14.564C15.3367 14.7227 14.9913 14.802 14.618 14.802ZM14.618 13.57C15.0287 13.57 15.234 13.234 15.234 12.562C15.234 12.226 15.178 11.9833 15.066 11.834C14.954 11.6753 14.8047 11.596 14.618 11.596C14.4593 11.596 14.3147 11.6753 14.184 11.834C14.0627 11.9927 14.002 12.2353 14.002 12.562C14.002 12.8887 14.058 13.1407 14.17 13.318C14.2913 13.486 14.4407 13.57 14.618 13.57ZM13.498 17.518C13.498 17.742 13.6193 17.9007 13.862 17.994C14.1047 18.0873 14.4033 18.134 14.758 18.134C15.094 18.134 15.3693 18.0687 15.584 17.938C15.7987 17.8073 15.906 17.644 15.906 17.448C15.906 17.2333 15.8313 17.0933 15.682 17.028C15.5327 16.9627 15.318 16.93 15.038 16.93C14.842 16.93 14.6413 16.9253 14.436 16.916C14.24 16.8973 14.044 16.8693 13.848 16.832C13.7547 16.9347 13.6707 17.0373 13.596 17.14C13.5307 17.252 13.498 17.378 13.498 17.518Z" fill="#333333"/>
</svg>
