<svg width="24" height="24" viewBox="0 0 24 24" fill="none" xmlns="http://www.w3.org/2000/svg">
<path d="M10.7035 15.208H8.32347L8.47747 14.046H10.5215L10.7035 15.208ZM9.55547 11.666L8.72947 17H7.18947L9.05147 8.18H10.0595L11.9215 17H10.3675L9.55547 11.666ZM14.324 19.464C13.96 19.464 13.6427 19.4267 13.372 19.352C13.1107 19.2867 12.8867 19.1793 12.7 19.03C12.5227 18.89 12.3873 18.708 12.294 18.484C12.21 18.2693 12.168 18.022 12.168 17.742C12.168 17.4993 12.2053 17.28 12.28 17.084C12.364 16.8973 12.476 16.7293 12.616 16.58C12.756 16.4213 12.9147 16.2953 13.092 16.202L13.876 16.566C13.8013 16.6687 13.722 16.7713 13.638 16.874C13.5633 16.9673 13.5027 17.0653 13.456 17.168C13.4093 17.28 13.386 17.4013 13.386 17.532C13.386 17.6533 13.4093 17.756 13.456 17.84C13.512 17.924 13.5867 17.9893 13.68 18.036C13.7733 18.092 13.8807 18.134 14.002 18.162C14.1233 18.19 14.2587 18.204 14.408 18.204C14.5947 18.204 14.758 18.1667 14.898 18.092C15.0473 18.0267 15.1593 17.938 15.234 17.826C15.318 17.714 15.36 17.5927 15.36 17.462C15.36 17.294 15.3273 17.168 15.262 17.084C15.206 17 15.122 16.944 15.01 16.916C14.898 16.888 14.772 16.874 14.632 16.874C14.4173 16.874 14.2027 16.8693 13.988 16.86C13.7733 16.8413 13.5727 16.804 13.386 16.748C13.1993 16.692 13.0313 16.6127 12.882 16.51C12.7327 16.4073 12.616 16.2767 12.532 16.118C12.448 15.95 12.4107 15.74 12.42 15.488C12.42 15.208 12.504 14.9513 12.672 14.718C12.8493 14.4753 13.05 14.27 13.274 14.102L14.03 14.494C13.9647 14.5873 13.8993 14.6667 13.834 14.732C13.7687 14.7973 13.7127 14.8627 13.666 14.928C13.6193 14.984 13.596 15.054 13.596 15.138C13.596 15.222 13.6427 15.292 13.736 15.348C13.8387 15.404 13.9973 15.446 14.212 15.474C14.4267 15.502 14.7067 15.516 15.052 15.516C15.3227 15.516 15.556 15.558 15.752 15.642C15.948 15.7167 16.1067 15.8333 16.228 15.992C16.3587 16.1413 16.452 16.328 16.508 16.552C16.564 16.776 16.592 17.042 16.592 17.35C16.592 17.6393 16.5453 17.91 16.452 18.162C16.3587 18.4233 16.214 18.652 16.018 18.848C15.8313 19.044 15.5933 19.1933 15.304 19.296C15.024 19.408 14.6973 19.464 14.324 19.464ZM14.31 14.816C13.918 14.816 13.582 14.732 13.302 14.564C13.022 14.396 12.8073 14.1487 12.658 13.822C12.5087 13.4953 12.434 13.08 12.434 12.576C12.434 12.0627 12.5133 11.6333 12.672 11.288C12.8307 10.9427 13.05 10.686 13.33 10.518C13.6193 10.3407 13.946 10.252 14.31 10.252C14.674 10.252 14.996 10.3407 15.276 10.518C15.556 10.686 15.7753 10.9427 15.934 11.288C16.0927 11.6333 16.172 12.0627 16.172 12.576C16.172 13.108 16.0833 13.5373 15.906 13.864C15.738 14.1907 15.5093 14.4333 15.22 14.592C14.94 14.7413 14.6367 14.816 14.31 14.816ZM14.31 13.626C14.422 13.626 14.5107 13.5933 14.576 13.528C14.6507 13.4533 14.7067 13.3413 14.744 13.192C14.7813 13.0333 14.8 12.828 14.8 12.576C14.8 12.3147 14.7813 12.1093 14.744 11.96C14.7067 11.8107 14.6507 11.7033 14.576 11.638C14.5107 11.5633 14.422 11.526 14.31 11.526C14.2167 11.526 14.1327 11.5633 14.058 11.638C13.9833 11.7127 13.9227 11.8247 13.876 11.974C13.8387 12.1233 13.82 12.324 13.82 12.576C13.82 12.8187 13.8387 13.0193 13.876 13.178C13.9133 13.3367 13.9693 13.4533 14.044 13.528C14.1187 13.5933 14.2073 13.626 14.31 13.626ZM15.808 11.862L15.304 11.008C15.4907 10.784 15.7007 10.602 15.934 10.462C16.1673 10.322 16.4193 10.266 16.69 10.294L16.774 11.456C16.578 11.4093 16.4007 11.428 16.242 11.512C16.0927 11.596 15.948 11.7127 15.808 11.862Z" fill="#888888"/>
</svg>
