<svg width="24" height="24" viewBox="0 0 24 24" fill="none" xmlns="http://www.w3.org/2000/svg">
<path d="M9.83127 14.27H6.76527L6.90527 13.724H9.67727L9.83127 14.27ZM8.34727 9.79L6.16327 17H5.50527L8.27727 8.124H8.41727L11.1893 17H10.5173L8.34727 9.79ZM14.636 19.408C14.216 19.408 13.8427 19.3707 13.516 19.296C13.1987 19.2213 12.9327 19.114 12.718 18.974C12.5033 18.834 12.34 18.6613 12.228 18.456C12.1253 18.26 12.074 18.0313 12.074 17.77C12.074 17.49 12.1207 17.2473 12.214 17.042C12.3073 16.846 12.4333 16.678 12.592 16.538C12.7507 16.3887 12.928 16.2673 13.124 16.174L13.46 16.356C13.3013 16.468 13.1613 16.5847 13.04 16.706C12.928 16.8273 12.8393 16.9673 12.774 17.126C12.7087 17.2847 12.676 17.476 12.676 17.7C12.676 17.8867 12.718 18.05 12.802 18.19C12.886 18.3393 13.0073 18.4607 13.166 18.554C13.3247 18.6567 13.5253 18.7313 13.768 18.778C14.0107 18.834 14.3 18.862 14.636 18.862C15.0653 18.862 15.4153 18.806 15.686 18.694C15.9567 18.582 16.1573 18.428 16.288 18.232C16.428 18.0453 16.498 17.8353 16.498 17.602C16.5073 17.3687 16.4747 17.1773 16.4 17.028C16.3253 16.8787 16.176 16.7713 15.952 16.706C15.728 16.6313 15.3873 16.594 14.93 16.594C14.6407 16.594 14.37 16.5847 14.118 16.566C13.8753 16.538 13.656 16.496 13.46 16.44C13.264 16.384 13.096 16.314 12.956 16.23C12.816 16.1367 12.7087 16.0247 12.634 15.894C12.5687 15.7633 12.536 15.6093 12.536 15.432C12.536 15.208 12.5967 14.998 12.718 14.802C12.8487 14.606 13.0213 14.41 13.236 14.214L13.558 14.494C13.446 14.606 13.3527 14.704 13.278 14.788C13.2127 14.8627 13.166 14.9373 13.138 15.012C13.11 15.0867 13.096 15.1753 13.096 15.278C13.096 15.474 13.166 15.6233 13.306 15.726C13.4553 15.8287 13.6793 15.9033 13.978 15.95C14.2767 15.9873 14.65 16.006 15.098 16.006C15.5087 16.006 15.8447 16.0433 16.106 16.118C16.3673 16.1833 16.568 16.2813 16.708 16.412C16.8573 16.5333 16.96 16.6873 17.016 16.874C17.0813 17.0607 17.114 17.2707 17.114 17.504C17.114 17.756 17.0627 17.994 16.96 18.218C16.8667 18.442 16.722 18.6427 16.526 18.82C16.33 18.9973 16.0733 19.1373 15.756 19.24C15.448 19.352 15.0747 19.408 14.636 19.408ZM14.426 14.858C14.034 14.858 13.6887 14.7647 13.39 14.578C13.1007 14.3913 12.872 14.13 12.704 13.794C12.5453 13.458 12.466 13.08 12.466 12.66C12.466 12.2493 12.5453 11.8807 12.704 11.554C12.872 11.218 13.1007 10.9567 13.39 10.77C13.6887 10.574 14.034 10.476 14.426 10.476C14.8273 10.476 15.1727 10.574 15.462 10.77C15.7607 10.9567 15.9893 11.218 16.148 11.554C16.316 11.8807 16.4 12.2493 16.4 12.66C16.4 13.08 16.3207 13.458 16.162 13.794C16.0033 14.13 15.7747 14.3913 15.476 14.578C15.1867 14.7647 14.8367 14.858 14.426 14.858ZM14.426 14.298C14.7153 14.298 14.9627 14.2327 15.168 14.102C15.3827 13.962 15.546 13.7707 15.658 13.528C15.77 13.2853 15.826 13.0007 15.826 12.674C15.826 12.3473 15.7653 12.0627 15.644 11.82C15.532 11.5773 15.3687 11.386 15.154 11.246C14.9487 11.106 14.706 11.036 14.426 11.036C14.1553 11.036 13.9127 11.106 13.698 11.246C13.4927 11.386 13.3293 11.5773 13.208 11.82C13.0867 12.0627 13.026 12.3427 13.026 12.66C13.026 12.996 13.0867 13.29 13.208 13.542C13.3293 13.7847 13.4927 13.9713 13.698 14.102C13.9127 14.2327 14.1553 14.298 14.426 14.298ZM16.05 11.596L15.798 11.246C16.0033 10.9753 16.2273 10.784 16.47 10.672C16.722 10.56 17.0207 10.518 17.366 10.546L17.422 11.106C17.1327 11.0687 16.876 11.0873 16.652 11.162C16.4373 11.2273 16.2367 11.372 16.05 11.596Z" fill="#888888"/>
</svg>
