<svg width="24" height="24" viewBox="0 0 24 24" fill="none" xmlns="http://www.w3.org/2000/svg">
<g clip-path="url(#clip0_201_3557)">
<path d="M10.796 17L9.018 14.382H1.08L-0.768 17H-1.272L5.028 8.124H5.252L11.272 17H10.796ZM5.126 8.67L1.36 13.99H8.752L5.126 8.67ZM18.244 14.746C17.74 14.746 17.2687 14.718 16.83 14.662C16.4007 14.5967 16.0087 14.5127 15.654 14.41C15.346 14.5313 15.0613 14.6807 14.8 14.858C14.5387 15.0353 14.408 15.2033 14.408 15.362C14.408 15.586 14.5853 15.7633 14.94 15.894C15.2947 16.0153 15.8593 16.0993 16.634 16.146C17.4087 16.1927 18.4213 16.216 19.672 16.216C20.8293 16.216 21.7487 16.2673 22.43 16.37C23.1207 16.4727 23.6153 16.6173 23.914 16.804C24.222 16.9907 24.376 17.21 24.376 17.462C24.376 17.8353 24.1987 18.1667 23.844 18.456C23.4893 18.7547 22.906 18.988 22.094 19.156C21.282 19.324 20.1947 19.408 18.832 19.408C16.8347 19.408 15.36 19.2727 14.408 19.002C13.456 18.7407 12.98 18.3253 12.98 17.756C12.98 17.4013 13.148 17.0887 13.484 16.818C13.8293 16.5473 14.2447 16.342 14.73 16.202C14.4127 16.09 14.212 15.964 14.128 15.824C14.0533 15.684 14.016 15.5487 14.016 15.418C14.016 15.2127 14.1327 15.0073 14.366 14.802C14.5993 14.5967 14.884 14.4147 15.22 14.256C14.7533 14.0693 14.394 13.836 14.142 13.556C13.89 13.276 13.764 12.9727 13.764 12.646C13.764 12.282 13.946 11.9413 14.31 11.624C14.674 11.3067 15.192 11.05 15.864 10.854C16.536 10.658 17.3293 10.56 18.244 10.56C18.9627 10.56 19.6067 10.6207 20.176 10.742C20.7453 10.8633 21.2213 11.0267 21.604 11.232C22.108 11.008 22.6307 10.8447 23.172 10.742C23.7227 10.6393 24.3667 10.602 25.104 10.63V10.98C24.5347 10.952 23.97 10.9753 23.41 11.05C22.85 11.1247 22.374 11.26 21.982 11.456C22.4767 11.8107 22.724 12.2073 22.724 12.646C22.724 13.2993 22.3227 13.8127 21.52 14.186C20.7267 14.5593 19.6347 14.746 18.244 14.746ZM18.244 14.368C19.504 14.368 20.498 14.2187 21.226 13.92C21.9633 13.6213 22.332 13.1967 22.332 12.646C22.332 12.3287 22.164 12.044 21.828 11.792C21.5013 11.5307 21.03 11.3253 20.414 11.176C19.8073 11.0173 19.084 10.938 18.244 10.938C17.404 10.938 16.676 11.0173 16.06 11.176C15.4533 11.3253 14.982 11.5307 14.646 11.792C14.3193 12.044 14.156 12.3287 14.156 12.646C14.156 13.1407 14.52 13.5513 15.248 13.878C15.976 14.2047 16.9747 14.368 18.244 14.368ZM13.386 17.686C13.386 18.19 13.8573 18.54 14.8 18.736C15.7427 18.932 17.096 19.03 18.86 19.03C20.5587 19.03 21.828 18.904 22.668 18.652C23.508 18.4 23.942 18.0173 23.97 17.504C23.9887 17.2053 23.606 16.9813 22.822 16.832C22.038 16.6733 20.7733 16.594 19.028 16.594C18.1227 16.594 17.3667 16.5707 16.76 16.524C16.1627 16.4773 15.682 16.4213 15.318 16.356C14.7393 16.4867 14.2727 16.6827 13.918 16.944C13.5633 17.2053 13.386 17.4527 13.386 17.686Z" fill="#333333"/>
</g>
<defs>
<clipPath id="clip0_201_3557">
<rect width="24" height="24" fill="white"/>
</clipPath>
</defs>
</svg>
