<svg width="24" height="24" viewBox="0 0 24 24" fill="none" xmlns="http://www.w3.org/2000/svg">
<g clip-path="url(#clip0_201_3559)">
<path d="M9.48 17L7.884 14.746H2.046L0.436 17H-1.636L4.72 8.124H5.28L11.636 17H9.48ZM4.972 10.644L2.998 13.402H6.932L4.972 10.644ZM18.244 14.704C17.6373 14.704 17.0727 14.662 16.55 14.578C16.27 14.662 16.0087 14.7553 15.766 14.858C15.5327 14.9513 15.416 15.0633 15.416 15.194C15.416 15.3807 15.752 15.502 16.424 15.558C17.096 15.6047 18.1787 15.628 19.672 15.628C20.9787 15.628 21.996 15.7027 22.724 15.852C23.452 15.992 23.9653 16.1927 24.264 16.454C24.5627 16.706 24.712 17 24.712 17.336C24.712 17.6813 24.5207 18.008 24.138 18.316C23.7647 18.6333 23.1487 18.89 22.29 19.086C21.4313 19.282 20.2787 19.3893 18.832 19.408C17.6187 19.4173 16.5453 19.3613 15.612 19.24C14.688 19.1187 13.96 18.932 13.428 18.68C12.9053 18.428 12.644 18.12 12.644 17.756C12.644 17.3827 12.826 17.0887 13.19 16.874C13.5633 16.65 14.03 16.4727 14.59 16.342C14.058 16.1273 13.792 15.852 13.792 15.516C13.792 15.3013 13.918 15.0867 14.17 14.872C14.4313 14.6573 14.7813 14.452 15.22 14.256C14.6413 14.0507 14.198 13.794 13.89 13.486C13.582 13.178 13.428 12.8467 13.428 12.492C13.428 12.0813 13.6193 11.7127 14.002 11.386C14.3847 11.0593 14.9353 10.8027 15.654 10.616C16.3727 10.4293 17.236 10.336 18.244 10.336C19.028 10.336 19.728 10.3873 20.344 10.49C20.9693 10.5833 21.492 10.7327 21.912 10.938C22.3693 10.7607 22.85 10.6347 23.354 10.56C23.858 10.476 24.4413 10.4433 25.104 10.462L25.412 11.512C24.936 11.4933 24.4833 11.5027 24.054 11.54C23.634 11.568 23.2373 11.6427 22.864 11.764C22.9947 11.988 23.06 12.2307 23.06 12.492C23.0507 12.9493 22.85 13.3413 22.458 13.668C22.0753 13.9947 21.5247 14.2513 20.806 14.438C20.0873 14.6153 19.2333 14.704 18.244 14.704ZM18.244 13.444C19.224 13.444 20.0033 13.3647 20.582 13.206C21.1607 13.0473 21.45 12.8093 21.45 12.492C21.45 12.1747 21.1607 11.9413 20.582 11.792C20.0033 11.6427 19.224 11.568 18.244 11.568C17.684 11.568 17.1567 11.6007 16.662 11.666C16.1767 11.7313 15.7847 11.834 15.486 11.974C15.1873 12.1047 15.038 12.2773 15.038 12.492C15.038 12.6973 15.1827 12.8747 15.472 13.024C15.7707 13.164 16.1627 13.2713 16.648 13.346C17.1427 13.4113 17.6747 13.444 18.244 13.444ZM14.352 17.462C14.352 17.6673 14.7347 17.8353 15.5 17.966C16.2653 18.0967 17.3853 18.162 18.86 18.162C20.1387 18.162 21.1467 18.106 21.884 17.994C22.6307 17.882 23.004 17.7 23.004 17.448C23.004 17.3173 22.8873 17.2053 22.654 17.112C22.43 17.0187 22.0473 16.9487 21.506 16.902C20.974 16.8553 20.2507 16.8367 19.336 16.846C18.6827 16.8553 18.0807 16.846 17.53 16.818C16.9793 16.79 16.4847 16.7433 16.046 16.678C15.5887 16.7713 15.192 16.8787 14.856 17C14.52 17.1213 14.352 17.2753 14.352 17.462Z" fill="#333333"/>
</g>
<defs>
<clipPath id="clip0_201_3559">
<rect width="24" height="24" fill="white"/>
</clipPath>
</defs>
</svg>
