<svg width="24" height="24" viewBox="0 0 24 24" fill="none" xmlns="http://www.w3.org/2000/svg">
<path d="M11.1335 17L10.0555 14.48H6.51347L5.43547 17H4.37147L8.23547 8.124H8.37547L12.2395 17H11.1335ZM8.29147 10.294L6.84947 13.668H9.71947L8.29147 10.294ZM16.28 14.816C15.832 14.816 15.4213 14.746 15.048 14.606C14.9173 14.7273 14.8193 14.8347 14.754 14.928C14.6887 15.0213 14.656 15.1193 14.656 15.222C14.656 15.446 14.8427 15.6093 15.216 15.712C15.5987 15.8053 16.238 15.852 17.134 15.852C17.918 15.852 18.5153 15.922 18.926 16.062C19.3367 16.1927 19.6167 16.3793 19.766 16.622C19.9153 16.8647 19.99 17.1447 19.99 17.462C19.99 17.798 19.878 18.1107 19.654 18.4C19.4393 18.6987 19.0847 18.9413 18.59 19.128C18.1047 19.3147 17.4513 19.408 16.63 19.408C15.538 19.408 14.6747 19.268 14.04 18.988C13.4053 18.7173 13.088 18.3067 13.088 17.756C13.088 17.4013 13.2 17.1027 13.424 16.86C13.6573 16.6173 13.9467 16.4353 14.292 16.314C13.9187 16.1087 13.732 15.824 13.732 15.46C13.732 15.2547 13.7927 15.054 13.914 14.858C14.0447 14.662 14.222 14.4707 14.446 14.284C13.858 13.864 13.564 13.2993 13.564 12.59C13.564 12.1793 13.6713 11.806 13.886 11.47C14.11 11.134 14.4273 10.868 14.838 10.672C15.2487 10.476 15.7293 10.378 16.28 10.378C16.7 10.378 17.078 10.4387 17.414 10.56C17.75 10.672 18.0393 10.8307 18.282 11.036C18.5713 10.812 18.8747 10.6533 19.192 10.56C19.5187 10.4667 19.9013 10.4293 20.34 10.448L20.494 11.288C20.158 11.26 19.8407 11.2647 19.542 11.302C19.2527 11.3393 18.9773 11.4233 18.716 11.554C18.9027 11.8713 18.996 12.2167 18.996 12.59C18.996 13.0007 18.884 13.3787 18.66 13.724C18.4453 14.06 18.1327 14.326 17.722 14.522C17.3113 14.718 16.8307 14.816 16.28 14.816ZM16.28 13.962C16.812 13.962 17.2507 13.8313 17.596 13.57C17.9413 13.2993 18.114 12.9727 18.114 12.59C18.114 12.198 17.9413 11.876 17.596 11.624C17.2507 11.3627 16.812 11.232 16.28 11.232C15.7667 11.232 15.3327 11.3627 14.978 11.624C14.6233 11.876 14.446 12.198 14.446 12.59C14.446 12.9727 14.6187 13.2993 14.964 13.57C15.3187 13.8313 15.7573 13.962 16.28 13.962ZM14.068 17.63C14.068 17.938 14.306 18.1807 14.782 18.358C15.2673 18.5353 15.888 18.624 16.644 18.624C17.4093 18.624 17.9927 18.5307 18.394 18.344C18.8047 18.1667 19.01 17.924 19.01 17.616C19.01 17.4107 18.9493 17.2427 18.828 17.112C18.716 16.9813 18.506 16.888 18.198 16.832C17.89 16.7667 17.4513 16.734 16.882 16.734C16.4993 16.734 16.1447 16.72 15.818 16.692C15.4913 16.664 15.202 16.622 14.95 16.566C14.6793 16.706 14.4647 16.8507 14.306 17C14.1473 17.1587 14.068 17.3687 14.068 17.63Z" fill="#888888"/>
</svg>
