<svg width="24" height="24" viewBox="0 0 24 24" fill="none" xmlns="http://www.w3.org/2000/svg">
<path d="M10.5255 17L9.37747 14.102H5.24747L4.08547 17H3.65147L7.26347 8.124H7.40347L10.9595 17H10.5255ZM7.33347 8.964L5.38747 13.752H9.23747L7.33347 8.964ZM15.42 14.886C14.8507 14.886 14.3467 14.7647 13.908 14.522C13.684 14.69 13.5113 14.83 13.39 14.942C13.2687 15.054 13.208 15.1847 13.208 15.334C13.208 15.7073 13.4833 15.9453 14.034 16.048C14.594 16.1413 15.364 16.188 16.344 16.188C17.044 16.188 17.5807 16.2347 17.954 16.328C18.3367 16.4213 18.6027 16.5707 18.752 16.776C18.9013 16.972 18.976 17.2193 18.976 17.518C18.976 18.0313 18.7007 18.4747 18.15 18.848C17.6087 19.2213 16.778 19.408 15.658 19.408C14.454 19.408 13.586 19.2587 13.054 18.96C12.522 18.6707 12.256 18.2787 12.256 17.784C12.256 17.3733 12.368 17.0513 12.592 16.818C12.816 16.5753 13.0913 16.3653 13.418 16.188C13.054 16.02 12.872 15.7587 12.872 15.404C12.872 15.208 12.942 15.0307 13.082 14.872C13.2313 14.704 13.4227 14.536 13.656 14.368C13.3853 14.172 13.1707 13.934 13.012 13.654C12.8627 13.374 12.788 13.066 12.788 12.73C12.788 12.338 12.9 11.9833 13.124 11.666C13.348 11.3393 13.656 11.078 14.048 10.882C14.44 10.686 14.8973 10.588 15.42 10.588C15.812 10.588 16.1713 10.6487 16.498 10.77C16.834 10.8913 17.1187 11.0547 17.352 11.26C17.604 11.0173 17.8793 10.8493 18.178 10.756C18.486 10.6627 18.8593 10.63 19.298 10.658L19.312 10.952C18.9387 10.9147 18.6073 10.9333 18.318 11.008C18.0287 11.0827 17.7767 11.2413 17.562 11.484C17.8793 11.848 18.038 12.2633 18.038 12.73C18.038 13.3553 17.8 13.8733 17.324 14.284C16.8573 14.6853 16.2227 14.886 15.42 14.886ZM15.42 14.55C16.12 14.55 16.6707 14.3913 17.072 14.074C17.4827 13.7567 17.688 13.3133 17.688 12.744C17.688 12.1933 17.4733 11.75 17.044 11.414C16.6147 11.078 16.0733 10.91 15.42 10.91C14.7667 10.91 14.2253 11.0827 13.796 11.428C13.3667 11.764 13.152 12.198 13.152 12.73C13.152 13.3273 13.362 13.78 13.782 14.088C14.2113 14.396 14.7573 14.55 15.42 14.55ZM15.644 19.072C16.624 19.0813 17.3567 18.9413 17.842 18.652C18.3273 18.3627 18.584 17.9987 18.612 17.56C18.6213 17.3173 18.5607 17.1213 18.43 16.972C18.2993 16.8133 18.0473 16.6967 17.674 16.622C17.31 16.5473 16.7827 16.51 16.092 16.51C15.5787 16.51 15.126 16.496 14.734 16.468C14.3513 16.44 14.0293 16.3887 13.768 16.314C13.46 16.4633 13.1893 16.6547 12.956 16.888C12.732 17.112 12.62 17.406 12.62 17.77C12.62 18.1807 12.858 18.498 13.334 18.722C13.81 18.9553 14.58 19.072 15.644 19.072Z" fill="#333333"/>
</svg>
