<svg width="24" height="24" viewBox="0 0 24 24" fill="none" xmlns="http://www.w3.org/2000/svg">
<path d="M10.068 17L9.55 15.138H7.45L6.918 17H5.154L8.024 8.25H8.99L11.86 17H10.068ZM8.514 11.4L7.8 13.892H9.2L8.514 11.4ZM15.234 14.802C14.9167 14.802 14.6133 14.7507 14.324 14.648C14.2307 14.7133 14.1513 14.774 14.086 14.83C14.03 14.8767 14.002 14.9513 14.002 15.054C14.002 15.2033 14.1793 15.32 14.534 15.404C14.898 15.4787 15.4953 15.516 16.326 15.516C16.8487 15.516 17.2687 15.6 17.586 15.768C17.9033 15.9267 18.132 16.1413 18.272 16.412C18.412 16.6827 18.482 16.9767 18.482 17.294C18.482 17.6673 18.3653 18.022 18.132 18.358C17.908 18.7033 17.558 18.9833 17.082 19.198C16.6153 19.422 16.0227 19.534 15.304 19.534C14.3707 19.534 13.6427 19.3707 13.12 19.044C12.6067 18.7173 12.35 18.302 12.35 17.798C12.35 17.5367 12.434 17.2893 12.602 17.056C12.7793 16.8227 13.0033 16.6313 13.274 16.482C13.0967 16.37 12.9567 16.2347 12.854 16.076C12.7513 15.9173 12.7 15.7307 12.7 15.516C12.7 15.2267 12.7793 14.9793 12.938 14.774C13.0967 14.5593 13.2927 14.368 13.526 14.2C13.2833 13.9947 13.092 13.752 12.952 13.472C12.8213 13.192 12.756 12.8887 12.756 12.562C12.756 12.1327 12.8633 11.7453 13.078 11.4C13.302 11.0547 13.6007 10.784 13.974 10.588C14.3473 10.3827 14.7673 10.28 15.234 10.28C15.5233 10.28 15.7987 10.322 16.06 10.406C16.3213 10.49 16.5593 10.6067 16.774 10.756C17.026 10.5973 17.3107 10.476 17.628 10.392C17.9547 10.2987 18.3 10.266 18.664 10.294L18.818 11.456C18.3327 11.3627 17.8893 11.4093 17.488 11.596C17.6373 11.8947 17.712 12.2167 17.712 12.562C17.712 12.982 17.6 13.3647 17.376 13.71C17.152 14.046 16.8533 14.312 16.48 14.508C16.1067 14.704 15.6913 14.802 15.234 14.802ZM15.22 13.542C15.5 13.542 15.7333 13.4533 15.92 13.276C16.1067 13.0893 16.2 12.8513 16.2 12.562C16.2 12.2727 16.102 12.044 15.906 11.876C15.7193 11.6987 15.4907 11.61 15.22 11.61C14.9867 11.61 14.7673 11.7033 14.562 11.89C14.3567 12.0673 14.254 12.2913 14.254 12.562C14.254 12.8327 14.3473 13.066 14.534 13.262C14.73 13.4487 14.9587 13.542 15.22 13.542ZM13.652 17.504C13.652 17.7373 13.8247 17.9007 14.17 17.994C14.5247 18.0967 14.9587 18.148 15.472 18.148C15.9667 18.148 16.354 18.0873 16.634 17.966C16.914 17.8447 17.054 17.6767 17.054 17.462C17.054 17.2847 16.9653 17.1587 16.788 17.084C16.6107 17.0093 16.2887 16.972 15.822 16.972C15.542 16.972 15.2573 16.9627 14.968 16.944C14.688 16.916 14.422 16.874 14.17 16.818C14.03 16.9113 13.9087 17.0093 13.806 17.112C13.7033 17.224 13.652 17.3547 13.652 17.504Z" fill="#333333"/>
</svg>
