<svg width="24" height="24" viewBox="0 0 24 24" fill="none" xmlns="http://www.w3.org/2000/svg">
<g clip-path="url(#clip0_201_3601)">
<path d="M10.04 17L8.29 14.578H1.64L-0.124 17H-1.552L4.888 8.124H5.112L11.552 17H10.04ZM4.972 10L2.368 13.57H7.562L4.972 10ZM18.244 14.788C17.8427 14.788 17.46 14.7693 17.096 14.732C16.7413 14.6947 16.41 14.6387 16.102 14.564C15.822 14.6667 15.5793 14.774 15.374 14.886C15.178 14.998 15.08 15.11 15.08 15.222C15.08 15.446 15.472 15.6047 16.256 15.698C17.04 15.782 18.1787 15.824 19.672 15.824C20.652 15.824 21.4547 15.8613 22.08 15.936C22.7147 16.0107 23.2093 16.118 23.564 16.258C23.928 16.398 24.18 16.566 24.32 16.762C24.46 16.9487 24.53 17.1587 24.53 17.392C24.53 17.7467 24.3387 18.078 23.956 18.386C23.5733 18.694 22.962 18.9413 22.122 19.128C21.2913 19.3147 20.1947 19.408 18.832 19.408C17.5907 19.408 16.522 19.3473 15.626 19.226C14.73 19.1047 14.0393 18.918 13.554 18.666C13.0687 18.4233 12.826 18.12 12.826 17.756C12.826 17.4013 13.008 17.1027 13.372 16.86C13.736 16.6173 14.2167 16.4353 14.814 16.314C14.1887 16.0993 13.876 15.8147 13.876 15.46C13.876 15.2547 13.988 15.054 14.212 14.858C14.4453 14.6527 14.7673 14.4567 15.178 14.27C14.6833 14.074 14.296 13.8267 14.016 13.528C13.7453 13.2293 13.61 12.9073 13.61 12.562C13.61 12.1513 13.8013 11.7873 14.184 11.47C14.576 11.1527 15.1173 10.9053 15.808 10.728C16.508 10.5413 17.32 10.448 18.244 10.448C18.9627 10.448 19.616 10.504 20.204 10.616C20.792 10.728 21.2867 10.8867 21.688 11.092C22.1733 10.8773 22.682 10.7233 23.214 10.63C23.7553 10.5273 24.3853 10.49 25.104 10.518L25.356 11.372C24.8147 11.344 24.3013 11.3487 23.816 11.386C23.34 11.414 22.892 11.4933 22.472 11.624C22.7427 11.9133 22.878 12.226 22.878 12.562C22.878 12.9727 22.682 13.3507 22.29 13.696C21.9073 14.032 21.366 14.298 20.666 14.494C19.9753 14.69 19.168 14.788 18.244 14.788ZM18.244 13.85C18.9533 13.85 19.574 13.7987 20.106 13.696C20.638 13.584 21.0533 13.43 21.352 13.234C21.6507 13.038 21.8 12.814 21.8 12.562C21.8 12.3007 21.6507 12.086 21.352 11.918C21.0533 11.7407 20.638 11.6053 20.106 11.512C19.574 11.4187 18.9533 11.372 18.244 11.372C17.628 11.372 17.0493 11.4187 16.508 11.512C15.9667 11.6053 15.528 11.7407 15.192 11.918C14.856 12.086 14.688 12.3007 14.688 12.562C14.688 12.814 14.842 13.038 15.15 13.234C15.4673 13.43 15.892 13.584 16.424 13.696C16.9653 13.7987 17.572 13.85 18.244 13.85ZM14.002 17.602C14.002 17.7233 14.1327 17.8353 14.394 17.938C14.6647 18.05 15.0287 18.1433 15.486 18.218C15.9433 18.302 16.4613 18.3673 17.04 18.414C17.628 18.4607 18.2347 18.484 18.86 18.484C19.7093 18.484 20.47 18.4513 21.142 18.386C21.8233 18.33 22.36 18.232 22.752 18.092C23.1533 17.952 23.354 17.77 23.354 17.546C23.354 17.238 23.0227 17.0327 22.36 16.93C21.7067 16.818 20.6707 16.762 19.252 16.762C18.5987 16.762 17.992 16.748 17.432 16.72C16.8813 16.6827 16.3913 16.6313 15.962 16.566C15.6447 16.6593 15.3367 16.7527 15.038 16.846C14.7393 16.9393 14.492 17.042 14.296 17.154C14.1 17.2753 14.002 17.4247 14.002 17.602Z" fill="#333333"/>
</g>
<defs>
<clipPath id="clip0_201_3601">
<rect width="24" height="24" fill="white"/>
</clipPath>
</defs>
</svg>
