<svg width="24" height="24" viewBox="0 0 24 24" fill="none" xmlns="http://www.w3.org/2000/svg">
<path d="M10.1335 17L9.05547 14.48H5.51347L4.43547 17H3.37147L7.23547 8.124H7.37547L11.2395 17H10.1335ZM7.29147 10.294L5.84947 13.668H8.71947L7.29147 10.294ZM15.28 14.816C14.832 14.816 14.4213 14.746 14.048 14.606C13.9173 14.7273 13.8193 14.8347 13.754 14.928C13.6887 15.0213 13.656 15.1193 13.656 15.222C13.656 15.446 13.8427 15.6093 14.216 15.712C14.5987 15.8053 15.238 15.852 16.134 15.852C16.918 15.852 17.5153 15.922 17.926 16.062C18.3367 16.1927 18.6167 16.3793 18.766 16.622C18.9153 16.8647 18.99 17.1447 18.99 17.462C18.99 17.798 18.878 18.1107 18.654 18.4C18.4393 18.6987 18.0847 18.9413 17.59 19.128C17.1047 19.3147 16.4513 19.408 15.63 19.408C14.538 19.408 13.6747 19.268 13.04 18.988C12.4053 18.7173 12.088 18.3067 12.088 17.756C12.088 17.4013 12.2 17.1027 12.424 16.86C12.6573 16.6173 12.9467 16.4353 13.292 16.314C12.9187 16.1087 12.732 15.824 12.732 15.46C12.732 15.2547 12.7927 15.054 12.914 14.858C13.0447 14.662 13.222 14.4707 13.446 14.284C12.858 13.864 12.564 13.2993 12.564 12.59C12.564 12.1793 12.6713 11.806 12.886 11.47C13.11 11.134 13.4273 10.868 13.838 10.672C14.2487 10.476 14.7293 10.378 15.28 10.378C15.7 10.378 16.078 10.4387 16.414 10.56C16.75 10.672 17.0393 10.8307 17.282 11.036C17.5713 10.812 17.8747 10.6533 18.192 10.56C18.5187 10.4667 18.9013 10.4293 19.34 10.448L19.494 11.288C19.158 11.26 18.8407 11.2647 18.542 11.302C18.2527 11.3393 17.9773 11.4233 17.716 11.554C17.9027 11.8713 17.996 12.2167 17.996 12.59C17.996 13.0007 17.884 13.3787 17.66 13.724C17.4453 14.06 17.1327 14.326 16.722 14.522C16.3113 14.718 15.8307 14.816 15.28 14.816ZM15.28 13.962C15.812 13.962 16.2507 13.8313 16.596 13.57C16.9413 13.2993 17.114 12.9727 17.114 12.59C17.114 12.198 16.9413 11.876 16.596 11.624C16.2507 11.3627 15.812 11.232 15.28 11.232C14.7667 11.232 14.3327 11.3627 13.978 11.624C13.6233 11.876 13.446 12.198 13.446 12.59C13.446 12.9727 13.6187 13.2993 13.964 13.57C14.3187 13.8313 14.7573 13.962 15.28 13.962ZM13.068 17.63C13.068 17.938 13.306 18.1807 13.782 18.358C14.2673 18.5353 14.888 18.624 15.644 18.624C16.4093 18.624 16.9927 18.5307 17.394 18.344C17.8047 18.1667 18.01 17.924 18.01 17.616C18.01 17.4107 17.9493 17.2427 17.828 17.112C17.716 16.9813 17.506 16.888 17.198 16.832C16.89 16.7667 16.4513 16.734 15.882 16.734C15.4993 16.734 15.1447 16.72 14.818 16.692C14.4913 16.664 14.202 16.622 13.95 16.566C13.6793 16.706 13.4647 16.8507 13.306 17C13.1473 17.1587 13.068 17.3687 13.068 17.63Z" fill="#333333"/>
</svg>
