<svg width="24" height="24" viewBox="0 0 24 24" fill="none" xmlns="http://www.w3.org/2000/svg">
<path d="M10.562 17L10.24 14.592H9.26L8.924 17H8.098L9.526 8.124H9.974L11.402 17H10.562ZM9.75 10.994L9.372 13.78H10.128L9.75 10.994ZM13.152 14.83C13.0213 14.83 12.9 14.8067 12.788 14.76C12.7133 14.928 12.676 15.082 12.676 15.222C12.676 15.4273 12.7273 15.5813 12.83 15.684C12.942 15.7773 13.18 15.824 13.544 15.824C13.964 15.824 14.2627 15.9687 14.44 16.258C14.6173 16.5473 14.706 16.9487 14.706 17.462C14.706 17.8073 14.6593 18.1247 14.566 18.414C14.4727 18.7127 14.3187 18.9507 14.104 19.128C13.8987 19.3147 13.6233 19.408 13.278 19.408C12.8113 19.408 12.4427 19.2727 12.172 19.002C11.9107 18.7313 11.78 18.3113 11.78 17.742C11.78 17.406 11.822 17.1213 11.906 16.888C11.9993 16.6547 12.116 16.4727 12.256 16.342C12.0787 16.1367 11.99 15.8427 11.99 15.46C11.9993 15.264 12.0367 15.0773 12.102 14.9C12.1673 14.7133 12.2467 14.5313 12.34 14.354C12.0973 13.9713 11.976 13.3833 11.976 12.59C11.976 11.8713 12.0787 11.316 12.284 10.924C12.4987 10.532 12.788 10.336 13.152 10.336C13.5253 10.336 13.8193 10.5367 14.034 10.938C14.146 10.742 14.2627 10.602 14.384 10.518C14.5147 10.4247 14.664 10.3873 14.832 10.406L14.902 11.288C14.6407 11.2413 14.4213 11.3253 14.244 11.54C14.3093 11.848 14.342 12.198 14.342 12.59C14.342 13.3273 14.23 13.8873 14.006 14.27C13.7913 14.6433 13.5067 14.83 13.152 14.83ZM13.152 13.99C13.348 13.99 13.4693 13.8733 13.516 13.64C13.572 13.3973 13.6 13.0473 13.6 12.59C13.6 12.1327 13.572 11.7873 13.516 11.554C13.4693 11.3113 13.348 11.19 13.152 11.19C12.9747 11.19 12.858 11.3113 12.802 11.554C12.746 11.7873 12.718 12.1327 12.718 12.59C12.718 13.0473 12.746 13.3973 12.802 13.64C12.858 13.8733 12.9747 13.99 13.152 13.99ZM12.536 17.63C12.536 17.938 12.6013 18.1667 12.732 18.316C12.872 18.4653 13.054 18.54 13.278 18.54C13.5393 18.54 13.7167 18.4513 13.81 18.274C13.9127 18.106 13.964 17.882 13.964 17.602C13.964 17.294 13.922 17.07 13.838 16.93C13.754 16.79 13.6047 16.72 13.39 16.72C13.1287 16.72 12.9047 16.692 12.718 16.636C12.5967 16.8693 12.536 17.2007 12.536 17.63Z" fill="#333333"/>
</svg>
