<svg width="24" height="24" viewBox="0 0 24 24" fill="none" xmlns="http://www.w3.org/2000/svg">
<path d="M8.882 14.746H3.492L4.024 13.626H8.448L8.882 14.746ZM6.236 10.658L2.904 17H1.294L5.998 8.152H6.502L11.206 17H9.54L6.236 10.658ZM16.61 19.436C15.9193 19.436 15.294 19.3987 14.734 19.324C14.1833 19.2587 13.7073 19.156 13.306 19.016C12.914 18.876 12.6107 18.6987 12.396 18.484C12.1813 18.2787 12.074 18.0407 12.074 17.77C12.074 17.5087 12.1533 17.28 12.312 17.084C12.48 16.888 12.6993 16.7247 12.97 16.594C13.25 16.454 13.5627 16.342 13.908 16.258L14.874 16.566C14.622 16.65 14.384 16.7387 14.16 16.832C13.936 16.916 13.7493 17.014 13.6 17.126C13.46 17.238 13.39 17.378 13.39 17.546C13.39 17.6673 13.4693 17.7747 13.628 17.868C13.7867 17.9707 14.006 18.0547 14.286 18.12C14.5753 18.1853 14.9207 18.2367 15.322 18.274C15.7233 18.3113 16.1713 18.33 16.666 18.33C17.282 18.33 17.8093 18.2973 18.248 18.232C18.696 18.176 19.0413 18.0873 19.284 17.966C19.5267 17.8447 19.648 17.6953 19.648 17.518C19.648 17.35 19.5687 17.2147 19.41 17.112C19.2513 17.0187 18.976 16.9487 18.584 16.902C18.2013 16.8553 17.6833 16.832 17.03 16.832C16.5353 16.832 16.0733 16.818 15.644 16.79C15.224 16.762 14.8413 16.7153 14.496 16.65C14.1507 16.5847 13.8567 16.5007 13.614 16.398C13.3713 16.2953 13.18 16.1693 13.04 16.02C12.9093 15.8707 12.844 15.6933 12.844 15.488C12.844 15.2267 12.9653 14.984 13.208 14.76C13.4507 14.5267 13.768 14.3073 14.16 14.102L15.028 14.494C14.8787 14.578 14.734 14.6527 14.594 14.718C14.4633 14.7833 14.3513 14.8533 14.258 14.928C14.174 14.9933 14.132 15.0727 14.132 15.166C14.132 15.2967 14.244 15.3993 14.468 15.474C14.692 15.5487 15.042 15.6047 15.518 15.642C16.0033 15.67 16.624 15.684 17.38 15.684C18.0987 15.684 18.6913 15.726 19.158 15.81C19.6247 15.894 19.9933 16.0153 20.264 16.174C20.5347 16.3233 20.726 16.5007 20.838 16.706C20.95 16.9113 21.006 17.1353 21.006 17.378C21.006 17.6393 20.922 17.8913 20.754 18.134C20.5953 18.3767 20.3433 18.596 19.998 18.792C19.6527 18.988 19.2 19.142 18.64 19.254C18.08 19.3753 17.4033 19.436 16.61 19.436ZM16.218 14.774C15.4993 14.774 14.874 14.676 14.342 14.48C13.81 14.2747 13.3947 14.004 13.096 13.668C12.8067 13.3227 12.662 12.9493 12.662 12.548C12.662 12.128 12.8067 11.7547 13.096 11.428C13.3947 11.092 13.81 10.8307 14.342 10.644C14.874 10.448 15.4993 10.35 16.218 10.35C16.9367 10.35 17.562 10.4433 18.094 10.63C18.626 10.8073 19.0367 11.064 19.326 11.4C19.6247 11.7267 19.774 12.1093 19.774 12.548C19.774 12.9773 19.6247 13.36 19.326 13.696C19.0367 14.032 18.626 14.298 18.094 14.494C17.562 14.6807 16.9367 14.774 16.218 14.774ZM16.218 13.668C16.666 13.668 17.058 13.6213 17.394 13.528C17.7393 13.4347 18.0053 13.304 18.192 13.136C18.3787 12.9587 18.472 12.7627 18.472 12.548C18.472 12.3147 18.3787 12.1187 18.192 11.96C18.0053 11.8013 17.7393 11.68 17.394 11.596C17.058 11.5027 16.666 11.456 16.218 11.456C15.8167 11.456 15.4433 11.5027 15.098 11.596C14.762 11.68 14.4867 11.8013 14.272 11.96C14.0667 12.1187 13.964 12.3147 13.964 12.548C13.964 12.7627 14.0667 12.9587 14.272 13.136C14.4773 13.304 14.748 13.4347 15.084 13.528C15.4293 13.6213 15.8073 13.668 16.218 13.668ZM19.186 11.806L18.486 11.12C18.8873 10.868 19.312 10.6813 19.76 10.56C20.2173 10.4387 20.7447 10.392 21.342 10.42L21.566 11.414C21.1087 11.3767 20.6793 11.386 20.278 11.442C19.8767 11.498 19.5127 11.6193 19.186 11.806Z" fill="#888888"/>
</svg>
