<svg width="24" height="24" viewBox="0 0 24 24" fill="none" xmlns="http://www.w3.org/2000/svg">
<g clip-path="url(#clip0_201_3595)">
<path d="M9.676 17L8.024 14.69H1.906L0.24 17H-1.608L4.776 8.124H5.224L11.608 17H9.676ZM4.972 10.42L2.788 13.458H7.142L4.972 10.42ZM18.244 14.732C17.5813 14.732 16.9653 14.6807 16.396 14.578C16.1253 14.6713 15.8733 14.7693 15.64 14.872C15.416 14.9747 15.304 15.082 15.304 15.194C15.304 15.3993 15.6587 15.5347 16.368 15.6C17.0773 15.656 18.1787 15.684 19.672 15.684C20.652 15.684 21.464 15.726 22.108 15.81C22.752 15.894 23.256 16.0107 23.62 16.16C23.9933 16.3 24.2547 16.4727 24.404 16.678C24.5627 16.8833 24.642 17.112 24.642 17.364C24.642 17.7093 24.4507 18.036 24.068 18.344C23.6947 18.652 23.0833 18.904 22.234 19.1C21.3847 19.296 20.2507 19.3987 18.832 19.408C17.6093 19.4173 16.536 19.3613 15.612 19.24C14.6973 19.1187 13.9833 18.932 13.47 18.68C12.966 18.428 12.714 18.12 12.714 17.756C12.714 17.392 12.896 17.098 13.26 16.874C13.624 16.6407 14.0907 16.4587 14.66 16.328C14.1 16.1227 13.82 15.8427 13.82 15.488C13.82 15.2827 13.9413 15.0773 14.184 14.872C14.436 14.6573 14.7767 14.4567 15.206 14.27C14.6553 14.0647 14.2307 13.808 13.932 13.5C13.6427 13.192 13.498 12.8653 13.498 12.52C13.498 12.1093 13.6893 11.7407 14.072 11.414C14.4547 11.0873 15.0007 10.8307 15.71 10.644C16.4193 10.4573 17.264 10.364 18.244 10.364C19.7933 10.364 20.9927 10.574 21.842 10.994C22.2993 10.798 22.7847 10.658 23.298 10.574C23.8207 10.49 24.4227 10.462 25.104 10.49L25.384 11.47C24.8987 11.442 24.432 11.4467 23.984 11.484C23.5453 11.5213 23.1347 11.6007 22.752 11.722C22.92 11.9647 22.9993 12.2307 22.99 12.52C22.99 12.9587 22.794 13.346 22.402 13.682C22.0193 14.0087 21.4687 14.2653 20.75 14.452C20.0407 14.6387 19.2053 14.732 18.244 14.732ZM18.244 13.584C19.252 13.584 20.0593 13.4907 20.666 13.304C21.2727 13.1173 21.576 12.8513 21.576 12.506C21.576 12.17 21.2727 11.9227 20.666 11.764C20.0593 11.596 19.252 11.512 18.244 11.512C17.6653 11.512 17.124 11.5493 16.62 11.624C16.116 11.6893 15.7053 11.7967 15.388 11.946C15.0707 12.0953 14.912 12.282 14.912 12.506C14.912 12.7393 15.0613 12.9353 15.36 13.094C15.668 13.2527 16.074 13.374 16.578 13.458C17.082 13.542 17.6373 13.584 18.244 13.584ZM14.226 17.504C14.226 17.6533 14.4173 17.784 14.8 17.896C15.1827 18.008 15.7193 18.0967 16.41 18.162C17.11 18.2273 17.9267 18.26 18.86 18.26C19.7093 18.26 20.4513 18.232 21.086 18.176C21.73 18.1293 22.2293 18.0453 22.584 17.924C22.948 17.812 23.13 17.6673 23.13 17.49C23.13 17.2473 22.8407 17.0747 22.262 16.972C21.6833 16.86 20.6987 16.8087 19.308 16.818C18.664 16.818 18.0667 16.804 17.516 16.776C16.9653 16.748 16.4707 16.706 16.032 16.65C15.724 16.7153 15.43 16.79 15.15 16.874C14.8793 16.9487 14.6553 17.0373 14.478 17.14C14.31 17.2427 14.226 17.364 14.226 17.504Z" fill="#333333"/>
</g>
<defs>
<clipPath id="clip0_201_3595">
<rect width="24" height="24" fill="white"/>
</clipPath>
</defs>
</svg>
