<svg width="24" height="24" viewBox="0 0 24 24" fill="none" xmlns="http://www.w3.org/2000/svg">
<path d="M16.7286 17.176C16.7286 17.368 16.6859 17.576 16.6006 17.8C16.5152 18.024 16.3979 18.2107 16.2486 18.36C16.1099 18.52 15.9392 18.6 15.7366 18.6C15.5019 18.6 15.2939 18.4933 15.1126 18.28C14.9419 18.0667 14.7979 17.8213 14.6806 17.544C14.5632 17.2773 14.4726 17.048 14.4086 16.856C14.3019 16.5147 14.2219 16.1093 14.1686 15.64C14.1152 15.1707 14.0566 14.7013 13.9926 14.232C13.9392 13.752 13.8539 13.336 13.7366 12.984L13.7206 11.752C13.5179 11.7733 13.3206 11.8 13.1286 11.832C12.9366 11.864 12.7712 11.8907 12.6326 11.912C12.3019 11.9653 11.9872 12.0293 11.6886 12.104C11.3899 12.1787 11.0912 12.2587 10.7926 12.344C10.6006 12.8347 10.4139 13.3253 10.2326 13.816C10.0619 14.3067 9.80058 14.8133 9.44858 15.336C9.21391 15.688 8.90991 16.0187 8.53658 16.328C8.16324 16.6373 7.73658 16.888 7.25658 17.08C6.78724 17.272 6.28058 17.368 5.73658 17.368C5.14991 17.368 4.66991 17.2293 4.29658 16.952C3.93391 16.6747 3.66724 16.296 3.49658 15.816C3.32591 15.336 3.24058 14.792 3.24058 14.184C3.24058 14.056 3.26191 13.9013 3.30458 13.72C3.34724 13.5387 3.40058 13.368 3.46458 13.208C3.52858 13.048 3.58724 12.936 3.64058 12.872C3.74724 12.712 3.88591 12.5253 4.05658 12.312C4.22724 12.0987 4.40858 11.9067 4.60058 11.736C4.80324 11.5547 5.00591 11.432 5.20858 11.368C5.33658 11.3253 5.49124 11.2613 5.67258 11.176C5.86458 11.0907 6.07791 11.048 6.31258 11.048C6.57924 11.048 6.82991 11.1227 7.06458 11.272C7.56591 11.5813 7.95524 11.96 8.23258 12.408C8.52058 12.856 8.66458 13.3627 8.66458 13.928C8.66458 14.44 8.53658 14.792 8.28057 14.984C8.02458 15.176 7.65658 15.2987 7.17658 15.352C7.06991 15.3627 6.98458 15.3307 6.92058 15.256C6.85658 15.1813 6.82458 15.1067 6.82458 15.032C6.82458 14.9467 6.84591 14.8773 6.88858 14.824C6.94191 14.76 7.02191 14.7227 7.12858 14.712C7.39524 14.6907 7.64058 14.6373 7.86458 14.552C8.08858 14.4667 8.20058 14.2747 8.20058 13.976C8.20058 13.528 8.08324 13.0693 7.84858 12.6C7.61391 12.1307 7.29391 11.768 6.88858 11.512C6.72858 11.416 6.56858 11.368 6.40858 11.368C6.20591 11.368 6.01391 11.4107 5.83258 11.496C5.66191 11.5813 5.53391 11.64 5.44858 11.672C5.21391 11.736 4.99524 11.912 4.79258 12.2C4.58991 12.488 4.42458 12.808 4.29658 13.16C4.16858 13.5013 4.10458 13.8107 4.10458 14.088C4.10458 14.8027 4.26991 15.384 4.60058 15.832C4.94191 16.28 5.40591 16.536 5.99258 16.6C6.06724 16.6107 6.13658 16.6213 6.20058 16.632C6.27524 16.632 6.34991 16.632 6.42458 16.632C7.02191 16.632 7.54991 16.4987 8.00858 16.232C8.47791 15.9547 8.84591 15.6133 9.11258 15.208C9.43258 14.7387 9.66724 14.28 9.81658 13.832C9.97657 13.384 10.1366 12.936 10.2966 12.488C10.1259 12.5307 9.95524 12.5787 9.78458 12.632C9.61391 12.6747 9.43791 12.7173 9.25658 12.76C9.13924 12.7813 9.04324 12.76 8.96858 12.696C8.90458 12.6213 8.87257 12.536 8.87257 12.44C8.87257 12.2693 8.95791 12.1627 9.12857 12.12C9.37391 12.0667 9.61391 12.0187 9.84858 11.976C10.0832 11.9227 10.3179 11.8747 10.5526 11.832C10.5739 11.7787 10.5952 11.7307 10.6166 11.688C10.6379 11.6453 10.6592 11.6027 10.6806 11.56C10.8192 11.2827 10.9099 10.9947 10.9526 10.696C11.0059 10.3973 11.0646 10.104 11.1286 9.816C11.1926 9.528 11.3152 9.26667 11.4966 9.032C11.5499 8.95733 11.6192 8.84533 11.7046 8.696C11.7899 8.536 11.8752 8.376 11.9606 8.216C12.0566 8.056 12.1259 7.93867 12.1686 7.864C12.2646 7.704 12.3392 7.53333 12.3926 7.352C12.4566 7.17067 12.5472 7.016 12.6646 6.888C12.7819 6.76 12.9632 6.696 13.2086 6.696C13.4326 6.696 13.6086 6.81333 13.7366 7.048C13.8752 7.28267 13.9819 7.56533 14.0566 7.896C14.1419 8.22667 14.2059 8.552 14.2486 8.872C14.3019 9.192 14.3552 9.432 14.4086 9.592L14.4246 10.776L14.5366 11.128V11.224C14.7072 11.2027 14.8246 11.1867 14.8886 11.176C15.0592 11.144 15.1446 11.1707 15.1446 11.256C15.1446 11.3093 15.1072 11.3733 15.0326 11.448C14.9579 11.5227 14.8566 11.5707 14.7286 11.592C14.6859 11.6027 14.6219 11.6187 14.5366 11.64L14.5526 12.312C14.6379 12.568 14.6859 12.8987 14.6966 13.304C14.7072 13.7093 14.7126 14.1253 14.7126 14.552C14.7126 14.9787 14.7179 15.3947 14.7286 15.8C14.7499 16.1947 14.7979 16.5147 14.8726 16.76C14.9259 16.8987 14.9792 17.0747 15.0326 17.288C15.0859 17.512 15.1606 17.7093 15.2566 17.88C15.3526 18.0507 15.4806 18.136 15.6406 18.136C15.8326 18.136 15.9819 18.072 16.0886 17.944C16.2059 17.816 16.2646 17.656 16.2646 17.464C16.2646 17.3147 16.3019 17.192 16.3766 17.096C16.4512 17.0107 16.5259 16.968 16.6006 16.968C16.6859 16.968 16.7286 17.0373 16.7286 17.176ZM13.7046 11.272L13.5766 10.888L13.5286 9.592C13.4752 9.31467 13.4166 9.04267 13.3526 8.776C13.2886 8.49867 13.2139 8.27467 13.1286 8.104C13.0539 7.92267 12.9632 7.832 12.8566 7.832C12.7712 7.832 12.6752 7.90133 12.5686 8.04C12.5152 8.11467 12.4512 8.232 12.3766 8.392C12.3019 8.552 12.2272 8.712 12.1526 8.872C12.0886 9.02133 12.0299 9.13333 11.9766 9.208C11.8059 9.432 11.6832 9.68267 11.6086 9.96C11.5339 10.2373 11.4646 10.52 11.4006 10.808C11.3366 11.096 11.2352 11.3733 11.0966 11.64L11.0486 11.736C11.2939 11.6933 11.5392 11.6507 11.7846 11.608C12.0299 11.5653 12.2806 11.5227 12.5366 11.48C12.6752 11.4587 12.8459 11.4373 13.0486 11.416C13.2619 11.384 13.4806 11.352 13.7046 11.32V11.272ZM20.5097 12.264C20.5737 12.3387 20.6057 12.4613 20.6057 12.632C20.6057 12.8667 20.5524 13.1653 20.4457 13.528C20.3497 13.8907 20.2324 14.28 20.0937 14.696C19.9657 15.112 19.8484 15.528 19.7417 15.944C19.6457 16.3493 19.5924 16.7227 19.5817 17.064C19.571 17.4907 19.5444 17.8587 19.5017 18.168C19.4697 18.4773 19.4164 18.776 19.3417 19.064C19.267 19.352 19.1604 19.6773 19.0217 20.04C18.8937 20.4027 18.723 20.856 18.5097 21.4C18.0937 21.912 17.6457 22.264 17.1657 22.456C16.6857 22.6587 16.1897 22.7387 15.6777 22.696C15.475 22.6747 15.2617 22.5413 15.0377 22.296C14.803 22.0507 14.6057 21.7253 14.4457 21.32C14.2857 20.9147 14.2057 20.472 14.2057 19.992C14.2057 19.8 14.2217 19.608 14.2537 19.416C14.307 19.096 14.387 18.776 14.4937 18.456C14.6004 18.136 14.755 17.8693 14.9577 17.656C15.1604 17.4427 15.4324 17.336 15.7737 17.336C16.051 17.336 16.307 17.4373 16.5417 17.64C16.787 17.8533 16.9897 18.0933 17.1497 18.36C17.3204 18.6267 17.4324 18.8613 17.4857 19.064C17.5177 19.192 17.5444 19.3253 17.5657 19.464C17.5977 19.6133 17.6137 19.7573 17.6137 19.896C17.6137 20.1413 17.5657 20.312 17.4697 20.408C17.363 20.5253 17.235 20.584 17.0857 20.584C16.9577 20.584 16.8137 20.552 16.6537 20.488C16.547 20.4667 16.4244 20.392 16.2857 20.264C16.147 20.1467 16.0777 19.992 16.0777 19.8C16.0777 19.672 16.1044 19.5493 16.1577 19.432C16.211 19.3147 16.259 19.2347 16.3017 19.192C16.3764 19.1173 16.435 19.08 16.4777 19.08C16.5204 19.08 16.547 19.1013 16.5577 19.144C16.5684 19.1973 16.579 19.2507 16.5897 19.304V19.32C16.5897 19.352 16.5737 19.384 16.5417 19.416C16.5097 19.4587 16.4937 19.5173 16.4937 19.592C16.4937 19.7733 16.5417 19.9013 16.6377 19.976C16.7444 20.0613 16.819 20.104 16.8617 20.104C17.0004 20.104 17.0697 19.9653 17.0697 19.688C17.0697 19.464 17.0057 19.192 16.8777 18.872C16.771 18.6053 16.6217 18.3707 16.4297 18.168C16.2377 17.976 16.019 17.8587 15.7737 17.816C15.635 17.7947 15.491 17.8267 15.3417 17.912C15.1817 18.008 15.043 18.1787 14.9257 18.424C14.851 18.5627 14.803 18.7173 14.7817 18.888C14.7497 19.0587 14.7337 19.2293 14.7337 19.4C14.7337 19.624 14.7497 19.816 14.7817 19.976C14.803 20.5947 14.9684 21.0693 15.2777 21.4C15.587 21.7413 15.987 21.912 16.4777 21.912C16.531 21.912 16.5844 21.912 16.6377 21.912C16.691 21.912 16.7444 21.9067 16.7977 21.896C17.1177 21.8533 17.427 21.6933 17.7257 21.416C18.0244 21.1493 18.275 20.8293 18.4777 20.456C18.6057 20.232 18.6964 19.9547 18.7497 19.624C18.803 19.304 18.8404 18.968 18.8617 18.616C18.8937 18.264 18.931 17.9493 18.9737 17.672C18.995 17.576 19.0057 17.4907 19.0057 17.416C19.0057 17.352 19.0057 17.2987 19.0057 17.256C19.0057 17.1387 18.995 17.0213 18.9737 16.904C18.963 16.776 18.9577 16.5627 18.9577 16.264C18.9577 16.1787 18.9577 16.0827 18.9577 15.976C18.9577 15.8693 18.963 15.7467 18.9737 15.608C18.4724 15.8853 18.0244 16.024 17.6297 16.024C17.1497 16.024 16.7497 15.816 16.4297 15.4C16.3124 15.2507 16.2537 15.08 16.2537 14.888C16.2537 14.632 16.339 14.3653 16.5097 14.088C16.691 13.8 16.9257 13.528 17.2137 13.272C17.5124 13.0053 17.8324 12.7813 18.1737 12.6C18.5257 12.408 18.867 12.2853 19.1977 12.232C19.347 12.2107 19.4964 12.1787 19.6457 12.136C19.8057 12.0827 19.9497 12.056 20.0777 12.056C20.259 12.056 20.403 12.1253 20.5097 12.264ZM19.7097 13.448C19.731 13.352 19.7524 13.2613 19.7737 13.176C19.8057 13.08 19.8217 12.9947 19.8217 12.92C19.8217 12.8667 19.8164 12.8133 19.8057 12.76C19.795 12.696 19.763 12.6427 19.7097 12.6C19.6457 12.5253 19.5444 12.488 19.4057 12.488C19.2244 12.488 19.0057 12.5573 18.7497 12.696C18.4937 12.8347 18.243 13.0267 17.9977 13.272C17.763 13.5067 17.5817 13.7893 17.4537 14.12C17.4004 14.2587 17.347 14.4347 17.2937 14.648C17.2404 14.8507 17.2137 15.0427 17.2137 15.224C17.2137 15.3947 17.2404 15.5227 17.2937 15.608C17.3577 15.6827 17.475 15.72 17.6457 15.72C17.8057 15.72 17.9817 15.688 18.1737 15.624C18.3764 15.5493 18.547 15.4533 18.6857 15.336C19.0057 15.0373 19.235 14.728 19.3737 14.408C19.523 14.0773 19.635 13.7573 19.7097 13.448Z" fill="#888888"/>
</svg>
