<svg width="24" height="24" viewBox="0 0 24 24" fill="none" xmlns="http://www.w3.org/2000/svg">
<path d="M9.54432 7.354L9.55832 7.494C9.55832 7.87667 9.49765 8.20333 9.37632 8.474C9.25499 8.56733 9.06365 8.642 8.80232 8.698L11.1403 15.614L12.4703 15.782C12.4703 16.1647 12.363 16.5707 12.1483 17H8.74632L8.62032 16.23C9.01232 16.0807 9.26899 15.9827 9.39032 15.936L8.83032 14.354H5.68032C5.40032 15.1847 5.25099 15.6187 5.23232 15.656L6.19832 15.782C6.19832 15.978 6.16099 16.2067 6.08632 16.468C6.01165 16.72 5.94165 16.8973 5.87632 17H2.47432L2.34832 16.23C2.76832 16.0527 3.14632 15.922 3.48232 15.838L5.83432 8.642C5.20899 8.54867 4.73765 8.42733 4.42032 8.278C4.42032 8.00733 4.46232 7.76933 4.54632 7.564C4.74232 7.49867 5.19965 7.424 5.91832 7.34C6.64632 7.24667 7.33699 7.2 7.99032 7.2C8.65299 7.2 9.17099 7.25133 9.54432 7.354ZM7.73832 11.204L7.33232 9.356H7.19232L6.74432 11.288L6.08632 13.038H8.42432L7.73832 11.204ZM18.7039 14.578C18.3959 14.774 18.0693 14.9187 17.7239 15.012C17.3786 15.096 17.0426 15.138 16.7159 15.138C16.3986 15.138 16.1186 15.1053 15.8759 15.04C15.7733 15.2827 15.6753 15.4647 15.5819 15.586C15.6566 15.698 16.4406 15.754 17.9339 15.754C18.8673 15.754 19.5253 15.8987 19.9079 16.188C20.0853 16.3093 20.2393 16.5007 20.3699 16.762C20.5099 17.0233 20.5799 17.3593 20.5799 17.77C20.5799 18.19 20.3746 18.61 19.9639 19.03C19.5533 19.45 19.0399 19.7813 18.4239 20.024C17.8079 20.2667 17.1966 20.388 16.5899 20.388C15.5819 20.388 14.7653 20.1873 14.1399 19.786C13.5146 19.394 13.2019 18.904 13.2019 18.316C13.2019 18.204 13.3653 17.9287 13.6919 17.49C14.0186 17.0607 14.2333 16.8133 14.3359 16.748C14.2426 16.7013 14.0793 16.5473 13.8459 16.286C13.6126 16.0153 13.4819 15.824 13.4539 15.712C13.5753 15.376 13.9486 14.956 14.5739 14.452C13.8459 14.0133 13.4819 13.276 13.4819 12.24C13.4819 11.4187 13.7619 10.7933 14.3219 10.364C14.8913 9.93467 15.6379 9.72 16.5619 9.72C17.4953 9.72 18.1999 9.846 18.6759 10.098C19.4693 9.958 20.0293 9.888 20.3559 9.888C20.6919 9.888 20.9113 9.89267 21.0139 9.902C21.0139 10.126 20.9579 10.3827 20.8459 10.672C20.7433 10.952 20.6453 11.148 20.5519 11.26L19.3479 10.98C19.5813 11.316 19.6979 11.75 19.6979 12.282C19.6979 12.814 19.6093 13.2807 19.4319 13.682C19.2546 14.074 19.0119 14.3727 18.7039 14.578ZM18.6339 18.582C18.6993 18.4047 18.7319 18.1993 18.7319 17.966C18.7319 17.7327 18.6293 17.56 18.4239 17.448C18.2186 17.3453 17.9759 17.294 17.6959 17.294C16.6039 17.294 15.8806 17.2847 15.5259 17.266C15.4513 17.4247 15.3579 17.6487 15.2459 17.938C15.1339 18.2367 15.0779 18.414 15.0779 18.47C15.0779 18.526 15.1153 18.6053 15.1899 18.708C15.2646 18.82 15.4233 18.9367 15.6659 19.058C15.9179 19.1793 16.2213 19.24 16.5759 19.24C16.9399 19.24 17.3646 19.156 17.8499 18.988C18.3353 18.82 18.5966 18.6847 18.6339 18.582ZM17.4999 11.148C17.2853 10.896 16.9819 10.77 16.5899 10.77C16.1979 10.77 15.8899 10.896 15.6659 11.148C15.4513 11.4 15.3439 11.7687 15.3439 12.254C15.3439 12.73 15.4559 13.1033 15.6799 13.374C15.9039 13.6447 16.2073 13.78 16.5899 13.78C17.4206 13.78 17.8359 13.2667 17.8359 12.24C17.8359 11.764 17.7239 11.4 17.4999 11.148Z" fill="#333333"/>
</svg>
