<svg width="24" height="24" viewBox="0 0 24 24" fill="none" xmlns="http://www.w3.org/2000/svg">
<path d="M13.4149 16.6364H8.68032V15.9236L10.0676 15.0964L9.29123 13.2H5.3585L4.6585 14.9055L6.60577 15.8091L6.1985 16.6364H2.08759V15.9236L3.46214 14.8927L6.72032 7.04L8.92214 6.39091L12.5367 15.16L13.8349 15.8091L13.4149 16.6364ZM7.34396 8.40182L5.76577 12.22H8.89668L7.34396 8.40182ZM20.5423 11.0109C20.6866 11.2824 20.7587 11.5709 20.7587 11.8764C20.7587 12.3939 20.5381 12.8945 20.0969 13.3782C19.6642 13.8533 19.1254 14.2139 18.4805 14.46C18.2599 14.7145 18.1496 14.9691 18.1496 15.2236C18.1496 15.3424 18.2429 15.4612 18.4296 15.58C18.6163 15.6903 18.909 15.8345 19.3078 16.0127C19.8932 16.2673 20.3429 16.5006 20.6569 16.7127C20.9708 16.9333 21.1278 17.1879 21.1278 17.4764C21.1278 17.7479 20.9581 18.083 20.6187 18.4818C20.2793 18.8891 19.8551 19.2412 19.346 19.5382C18.8454 19.8436 18.3575 19.9964 17.8823 19.9964C17.3648 19.9964 16.7496 19.9158 16.0369 19.7545C15.3242 19.5933 14.7302 19.4321 14.2551 19.2709V16.9927H15.0569C15.4726 17.5527 15.8926 17.977 16.3169 18.2655C16.7496 18.5624 17.2375 18.7109 17.7805 18.7109C18.0605 18.7109 18.2939 18.6473 18.4805 18.52C18.6757 18.4012 18.7732 18.2739 18.7732 18.1382C18.7732 17.943 18.6587 17.7691 18.4296 17.6164C18.209 17.4721 17.8654 17.2939 17.3987 17.0818C16.8981 16.8612 16.5205 16.6661 16.266 16.4964C16.0114 16.3182 15.8842 16.1145 15.8842 15.8855C15.8842 15.6818 16.0369 15.4739 16.3423 15.2618C16.6563 15.0497 17.0296 14.863 17.4623 14.7018C17.2926 14.7188 17.1654 14.7273 17.0805 14.7273C16.5629 14.7273 16.0878 14.6255 15.6551 14.4218C15.2308 14.2182 14.8957 13.9467 14.6496 13.6073C14.4035 13.2594 14.2805 12.8903 14.2805 12.5C14.2805 12.0164 14.4587 11.5539 14.8151 11.1127C15.1714 10.6715 15.6339 10.3194 16.2023 10.0564C16.7708 9.78485 17.352 9.64909 17.946 9.64909C18.6248 9.64909 19.2229 9.81879 19.7405 10.1582H21.8405L21.8532 11.0109H20.5423ZM17.8314 13.2764C18.1029 13.2764 18.3108 13.2127 18.4551 13.0855C18.6078 12.9497 18.6842 12.7503 18.6842 12.4873C18.6842 12.0715 18.5484 11.7448 18.2769 11.5073C18.0139 11.2612 17.6617 11.1382 17.2205 11.1382C16.6605 11.1382 16.3805 11.3885 16.3805 11.8891C16.3805 12.2964 16.512 12.6315 16.7751 12.8945C17.0466 13.1491 17.3987 13.2764 17.8314 13.2764Z" fill="#888888"/>
</svg>
