<svg width="24" height="24" viewBox="0 0 24 24" fill="none" xmlns="http://www.w3.org/2000/svg">
<path d="M13.2812 18H9.22116V17.636L10.4812 16.6L9.36116 13.898H4.60116L3.36916 16.712L5.88916 17.51L5.65116 18H1.45116V17.636L2.72516 16.628L6.75716 7.444L8.01716 6.73L12.1332 16.628L13.5332 17.51L13.2812 18ZM7.05116 8.312L4.83916 13.352H9.13716L7.05116 8.312ZM20.3138 11.49C20.6031 11.882 20.7478 12.3253 20.7478 12.82C20.7478 13.24 20.6311 13.6507 20.3978 14.052C20.1644 14.444 19.8518 14.794 19.4598 15.102C19.0678 15.4007 18.6384 15.6153 18.1718 15.746C17.9291 15.9887 17.8078 16.25 17.8078 16.53C17.8078 16.6887 17.9244 16.8333 18.1578 16.964C18.4004 17.0947 18.7831 17.2627 19.3058 17.468C19.9871 17.7293 20.5051 17.9673 20.8598 18.182C21.2144 18.3967 21.3918 18.6627 21.3918 18.98C21.3918 19.26 21.2098 19.6193 20.8458 20.058C20.4911 20.4967 20.0478 20.8747 19.5158 21.192C18.9931 21.5187 18.4891 21.682 18.0038 21.682C17.4904 21.682 16.8838 21.5933 16.1838 21.416C15.4838 21.2387 14.9004 21.0613 14.4338 20.884V18.798H14.8958C15.4371 19.4513 15.9831 19.946 16.5338 20.282C17.0938 20.618 17.7238 20.786 18.4238 20.786C18.6851 20.786 18.9231 20.73 19.1378 20.618C19.3524 20.5153 19.5204 20.38 19.6418 20.212C19.7631 20.044 19.8238 19.8853 19.8238 19.736C19.8238 19.484 19.6651 19.26 19.3478 19.064C19.0398 18.868 18.5824 18.644 17.9758 18.392C17.3784 18.1493 16.9351 17.944 16.6458 17.776C16.3658 17.5987 16.2258 17.3933 16.2258 17.16C16.2258 16.936 16.3704 16.7073 16.6598 16.474C16.9491 16.2407 17.2898 16.0353 17.6818 15.858C17.5324 15.886 17.3784 15.9 17.2198 15.9C16.7438 15.9 16.3051 15.7927 15.9038 15.578C15.5024 15.3633 15.1851 15.074 14.9518 14.71C14.7278 14.346 14.6158 13.9493 14.6158 13.52C14.6158 13.0067 14.7884 12.512 15.1338 12.036C15.4791 11.56 15.9271 11.1773 16.4778 10.888C17.0284 10.5893 17.5931 10.44 18.1718 10.44C18.8064 10.44 19.3618 10.6267 19.8378 11H22.0218L22.0078 11.49H20.3138ZM18.0038 14.794C18.9091 14.794 19.3618 14.3553 19.3618 13.478C19.3618 12.8993 19.1751 12.428 18.8018 12.064C18.4284 11.7 17.9384 11.518 17.3318 11.518C16.8931 11.518 16.5571 11.6253 16.3238 11.84C16.0998 12.0547 15.9878 12.3813 15.9878 12.82C15.9878 13.408 16.1744 13.884 16.5478 14.248C16.9211 14.612 17.4064 14.794 18.0038 14.794Z" fill="#333333"/>
</svg>
