<svg width="24" height="24" viewBox="0 0 24 24" fill="none" xmlns="http://www.w3.org/2000/svg">
<path d="M5.95622 16.636V17H3.29622V16.636L4.05222 16.552C4.15489 16.5427 4.22955 16.5287 4.27622 16.51C4.32289 16.482 4.36489 16.426 4.40222 16.342C4.44889 16.2487 4.50489 16.09 4.57022 15.866L7.27222 7.48H8.15422L10.8842 15.866C10.9496 16.09 11.0009 16.2487 11.0382 16.342C11.0849 16.426 11.1316 16.482 11.1782 16.51C11.2249 16.5287 11.2949 16.5427 11.3882 16.552L12.1582 16.636V17H8.75622V16.636L9.52622 16.552C9.67555 16.5333 9.75489 16.496 9.76422 16.44C9.78289 16.3747 9.74089 16.1833 9.63822 15.866L9.06422 14.074H5.64822L5.07422 15.866C4.97155 16.1833 4.92489 16.3747 4.93422 16.44C4.95289 16.496 5.03689 16.5333 5.18622 16.552L5.95622 16.636ZM5.78822 13.626H8.92422L7.35622 8.754L5.78822 13.626ZM19.1292 17.812C19.1292 18.5587 18.8539 19.128 18.3032 19.52C17.7619 19.9213 17.0059 20.122 16.0352 20.122C14.9712 20.122 14.1919 19.9353 13.6972 19.562C13.2026 19.198 12.9459 18.736 12.9272 18.176L13.9632 17.966C13.9259 18.4793 14.0612 18.89 14.3692 19.198C14.6866 19.5153 15.2419 19.674 16.0352 19.674C16.7446 19.674 17.3139 19.5433 17.7432 19.282C18.1819 19.0207 18.4012 18.638 18.4012 18.134C18.4012 17.7607 18.2752 17.4807 18.0232 17.294C17.7712 17.1073 17.3559 17.014 16.7772 17.014H15.1112C14.4859 17.014 14.0472 16.8833 13.7952 16.622C13.5432 16.3513 13.4172 16.0527 13.4172 15.726C13.4172 15.4553 13.4826 15.2033 13.6132 14.97C13.7532 14.7273 13.9726 14.4893 14.2712 14.256C13.8979 14.0787 13.5946 13.822 13.3612 13.486C13.1279 13.1407 13.0112 12.7253 13.0112 12.24C13.0112 11.7267 13.1279 11.302 13.3612 10.966C13.6039 10.6207 13.9212 10.364 14.3132 10.196C14.7146 10.0187 15.1579 9.93 15.6432 9.93H15.8812C16.3946 9.93 16.8519 10.0233 17.2532 10.21L19.2832 9.51L19.4372 10.56H17.7992C18.0139 10.7467 18.1819 10.98 18.3032 11.26C18.4339 11.54 18.4992 11.8667 18.4992 12.24C18.4992 12.7347 18.3779 13.1547 18.1352 13.5C17.9019 13.8453 17.5892 14.1067 17.1972 14.284C16.8052 14.452 16.3666 14.536 15.8812 14.536H15.6432C15.4846 14.536 15.3306 14.5267 15.1812 14.508C15.0319 14.4893 14.8872 14.4613 14.7472 14.424C14.5419 14.564 14.3926 14.7087 14.2992 14.858C14.2152 15.0073 14.1732 15.1613 14.1732 15.32C14.1732 15.5067 14.2386 15.656 14.3692 15.768C14.5092 15.88 14.7286 15.936 15.0272 15.936H16.8472C17.5846 15.936 18.1492 16.0947 18.5412 16.412C18.9332 16.7293 19.1292 17.196 19.1292 17.812ZM15.8812 14.088C16.1332 14.088 16.3619 14.032 16.5672 13.92C16.7819 13.808 16.9546 13.6213 17.0852 13.36C17.2159 13.0893 17.2812 12.716 17.2812 12.24C17.2812 11.7547 17.2159 11.3813 17.0852 11.12C16.9546 10.8493 16.7819 10.658 16.5672 10.546C16.3619 10.434 16.1332 10.378 15.8812 10.378H15.6432C15.3912 10.378 15.1579 10.434 14.9432 10.546C14.7286 10.658 14.5559 10.8493 14.4252 11.12C14.2946 11.3813 14.2292 11.7547 14.2292 12.24C14.2292 12.716 14.2946 13.0893 14.4252 13.36C14.5559 13.6213 14.7286 13.808 14.9432 13.92C15.1579 14.032 15.3912 14.088 15.6432 14.088H15.8812Z" fill="#888888"/>
</svg>
