<svg width="24" height="24" viewBox="0 0 24 24" fill="none" xmlns="http://www.w3.org/2000/svg">
<path d="M10.2644 17L9.99843 15.138H6.73643L5.82643 17H4.09043L8.94843 7.48H10.4324L11.9444 17H10.2644ZM8.16443 12.226L7.49243 13.598H9.78843L9.59243 12.226L9.31243 9.818L8.16443 12.226ZM18.8859 17C18.7832 17.5973 18.6246 18.1293 18.4099 18.596C18.1952 19.072 17.8686 19.4453 17.4299 19.716C16.9912 19.9867 16.3846 20.122 15.6099 20.122C14.8726 20.122 14.0746 19.982 13.2159 19.702L13.5659 18.33C13.9672 18.47 14.3406 18.5633 14.6859 18.61C15.0312 18.666 15.3112 18.694 15.5259 18.694C15.9552 18.694 16.2866 18.6193 16.5199 18.47C16.7532 18.33 16.9212 18.1293 17.0239 17.868C17.1359 17.616 17.2199 17.3267 17.2759 17L17.4439 16.034C16.9772 16.4633 16.5572 16.7573 16.1839 16.916C15.8106 17.0653 15.4792 17.14 15.1899 17.14C14.7326 17.14 14.3499 16.9953 14.0419 16.706C13.7432 16.4073 13.5379 16.0013 13.4259 15.488C13.3232 14.9653 13.3232 14.368 13.4259 13.696L13.5239 13.08C13.6919 11.9973 14.0512 11.176 14.6019 10.616C15.1526 10.0467 15.9179 9.762 16.8979 9.762C17.4486 9.762 17.9852 9.84133 18.5079 10C19.0399 10.1587 19.5299 10.3827 19.9779 10.672L18.8859 17ZM15.0779 13.696C14.9752 14.368 14.9846 14.8627 15.1059 15.18C15.2366 15.488 15.4606 15.642 15.7779 15.642C16.0206 15.642 16.3052 15.544 16.6319 15.348C16.9679 15.152 17.3366 14.802 17.7379 14.298L18.2279 11.498C17.8266 11.302 17.4299 11.204 17.0379 11.204C16.4966 11.204 16.0719 11.372 15.7639 11.708C15.4652 12.044 15.2692 12.5013 15.1759 13.08L15.0779 13.696Z" fill="#888888"/>
</svg>
