<svg width="24" height="24" viewBox="0 0 24 24" fill="none" xmlns="http://www.w3.org/2000/svg">
<path d="M11.1096 17L10.2976 14.55H6.44763L5.64963 17H4.78163L7.94563 7.48H8.85563L12.0336 17H11.1096ZM7.31563 11.918L6.71363 13.738H10.0176L9.41563 11.918L8.36563 8.67L7.31563 11.918ZM18.971 17.98C18.971 18.624 18.705 19.142 18.173 19.534C17.641 19.926 16.9176 20.122 16.003 20.122C15.5176 20.122 15.023 20.052 14.519 19.912C14.015 19.772 13.5296 19.548 13.063 19.24L13.399 18.596C13.875 18.8947 14.3276 19.0953 14.757 19.198C15.1956 19.31 15.6156 19.366 16.017 19.366C16.6796 19.366 17.193 19.2447 17.557 19.002C17.9303 18.7687 18.117 18.4513 18.117 18.05C18.117 17.7607 18.0143 17.5367 17.809 17.378C17.613 17.2193 17.2863 17.14 16.829 17.14H15.275C14.7056 17.14 14.295 17.0093 14.043 16.748C13.791 16.4773 13.665 16.1833 13.665 15.866C13.665 15.3993 13.8843 14.9187 14.323 14.424C13.9963 14.2373 13.735 13.976 13.539 13.64C13.343 13.2947 13.245 12.884 13.245 12.408C13.245 11.876 13.3523 11.4373 13.567 11.092C13.791 10.7373 14.0896 10.476 14.463 10.308C14.8456 10.1307 15.2656 10.042 15.723 10.042H15.961C16.2596 10.042 16.5303 10.0887 16.773 10.182H19.209V10.952L17.641 10.77C17.865 10.9473 18.0516 11.1713 18.201 11.442C18.3503 11.7033 18.425 12.0253 18.425 12.408C18.425 12.9213 18.313 13.3553 18.089 13.71C17.865 14.0553 17.5663 14.3213 17.193 14.508C16.829 14.6853 16.4183 14.774 15.961 14.774H15.723C15.4336 14.774 15.1723 14.7413 14.939 14.676C14.771 14.8627 14.6496 15.0447 14.575 15.222C14.5003 15.39 14.463 15.5487 14.463 15.698C14.463 16.1087 14.757 16.314 15.345 16.314H16.815C17.5056 16.314 18.0376 16.454 18.411 16.734C18.7843 17.014 18.971 17.4293 18.971 17.98ZM15.961 14.004C16.381 14.004 16.7496 13.8733 17.067 13.612C17.3843 13.3507 17.543 12.9493 17.543 12.408C17.543 11.8667 17.3843 11.4653 17.067 11.204C16.7496 10.9427 16.381 10.812 15.961 10.812H15.723C15.2936 10.812 14.9203 10.9427 14.603 11.204C14.2856 11.4653 14.127 11.8667 14.127 12.408C14.127 12.9493 14.2856 13.3507 14.603 13.612C14.9203 13.8733 15.2936 14.004 15.723 14.004H15.961Z" fill="#333333"/>
</svg>
