<svg width="24" height="24" viewBox="0 0 24 24" fill="none" xmlns="http://www.w3.org/2000/svg">
<path d="M3.83603 17H3.17978L8.54412 6.81818H9.26003L11.2437 17H10.5874L8.80265 7.61861H8.74796L3.83603 17ZM5.40705 13.1669H10.2991L10.1997 13.7436H5.30762L5.40705 13.1669ZM15.2061 20.0227C14.7321 20.0227 14.3161 19.9598 13.9582 19.8338C13.6002 19.7112 13.3052 19.5355 13.0732 19.3068C12.8445 19.0781 12.6871 18.8063 12.6009 18.4915L13.1478 18.2081C13.2207 18.4534 13.3434 18.6705 13.5157 18.8594C13.6881 19.0483 13.9168 19.1958 14.2018 19.3018C14.4901 19.4112 14.8398 19.4659 15.2508 19.4659C15.9866 19.4659 16.6064 19.2753 17.1102 18.8942C17.614 18.5163 17.9305 17.9363 18.0597 17.1541L18.368 15.255H18.3083C18.1393 15.5864 17.9189 15.8814 17.6471 16.1399C17.3786 16.3951 17.0687 16.5956 16.7174 16.7415C16.3661 16.8873 15.9816 16.9602 15.564 16.9602C14.9575 16.9602 14.452 16.8045 14.0477 16.4929C13.6433 16.1813 13.3599 15.7438 13.1975 15.1804C13.0384 14.6136 13.0219 13.9474 13.1478 13.1818C13.2771 12.4162 13.5157 11.7384 13.8637 11.1484C14.2117 10.5552 14.641 10.0911 15.1514 9.75639C15.6651 9.41832 16.2302 9.24929 16.8467 9.24929C17.2875 9.24929 17.6554 9.33381 17.9504 9.50284C18.2454 9.66856 18.479 9.88897 18.6514 10.1641C18.8237 10.4392 18.9447 10.7408 19.0143 11.0689H19.0839L19.3623 9.36364H19.949L18.6563 17.179C18.5503 17.8187 18.3382 18.3473 18.02 18.7649C17.7018 19.1858 17.3008 19.5007 16.8169 19.7095C16.3363 19.9183 15.7993 20.0227 15.2061 20.0227ZM15.6634 16.3984C16.1705 16.3984 16.6346 16.2692 17.0555 16.0107C17.4797 15.7488 17.836 15.3776 18.1244 14.897C18.4127 14.4131 18.6133 13.8397 18.7259 13.1768C18.832 12.5339 18.8287 11.9588 18.716 11.4517C18.6033 10.9446 18.3862 10.5452 18.0647 10.2536C17.7465 9.96188 17.3273 9.81605 16.8069 9.81605C16.2832 9.81605 15.8093 9.9652 15.385 10.2635C14.9641 10.5585 14.6128 10.9595 14.3311 11.4666C14.0493 11.9737 13.8571 12.5438 13.7544 13.1768C13.6483 13.8132 13.6499 14.3733 13.7593 14.8572C13.8687 15.3378 14.0825 15.7157 14.4007 15.9908C14.7188 16.2625 15.1398 16.3984 15.6634 16.3984Z" fill="#888888"/>
</svg>
