<svg width="24" height="24" viewBox="0 0 24 24" fill="none" xmlns="http://www.w3.org/2000/svg">
<path d="M5.32067 17L5.99183 14.8622H9.50675L10.1779 17H12.8228L9.38743 6.81818H6.11115L2.67578 17H5.32067ZM6.57848 12.9929L7.70703 9.38352H7.78658L8.9201 12.9929H6.57848ZM17.0002 20.0227C19.302 20.0227 20.873 18.9737 20.873 17.0298V9.36364H18.4519V10.6712H18.3823C18.089 9.97017 17.4228 9.2642 16.2196 9.2642C14.6238 9.2642 13.177 10.4922 13.177 13.1719C13.177 15.767 14.5542 16.8956 16.2296 16.8956C17.3532 16.8956 18.1039 16.3736 18.3922 15.6676H18.4767V17.0099C18.4767 17.9844 17.8801 18.3374 17.0648 18.3374C16.2843 18.3374 15.8169 18.0391 15.6877 17.5668L13.3858 17.696C13.5648 19.0334 14.8226 20.0227 17.0002 20.0227ZM17.0748 15.1257C16.1749 15.1257 15.6728 14.3949 15.6728 13.1719C15.6728 11.9538 16.1699 11.1634 17.0748 11.1634C17.9647 11.1634 18.4817 11.9339 18.4817 13.1719C18.4817 14.3999 17.9597 15.1257 17.0748 15.1257Z" fill="#333333"/>
</svg>
