<svg width="24" height="24" viewBox="0 0 24 24" fill="none" xmlns="http://www.w3.org/2000/svg">
<path d="M4.31854 17L5.2532 14.3054H9.23047L10.1602 17H11.7908L8.12678 6.81818H6.35192L2.68786 17H4.31854ZM5.70064 13.0128L7.20206 8.66761H7.28161L8.78303 13.0128H5.70064ZM16.2205 20.0227C18.1644 20.0227 19.6658 19.1328 19.6658 17.169V9.36364H18.2092V10.6016H18.0998C17.8363 10.1293 17.3093 9.2642 15.8874 9.2642C14.043 9.2642 12.6857 10.7209 12.6857 13.152C12.6857 15.5881 14.0728 16.8857 15.8775 16.8857C17.2795 16.8857 17.8214 16.0952 18.0898 15.608H18.1843V17.1094C18.1843 18.3075 17.364 18.8246 16.2354 18.8246C14.9975 18.8246 14.5153 18.2031 14.2518 17.7656L12.9741 18.2926C13.3768 19.2273 14.396 20.0227 16.2205 20.0227ZM16.2056 15.6527C14.8782 15.6527 14.1871 14.6335 14.1871 13.1321C14.1871 11.6655 14.8633 10.527 16.2056 10.527C17.5032 10.527 18.1992 11.5859 18.1992 13.1321C18.1992 14.7081 17.4883 15.6527 16.2056 15.6527Z" fill="#333333"/>
</svg>
