<svg width="24" height="24" viewBox="0 0 24 24" fill="none" xmlns="http://www.w3.org/2000/svg">
<path d="M4.25772 17H3.91966L9.2492 6.81818H9.6867L11.6356 17H11.2975L9.42818 7.21591H9.38841L4.25772 17ZM6.0475 13.2415H10.7805L10.7208 13.5597H5.98784L6.0475 13.2415ZM15.5494 20.0227C15.1252 20.0227 14.7407 19.9647 14.396 19.8487C14.0513 19.736 13.7646 19.5653 13.536 19.3366C13.3073 19.1113 13.1565 18.8295 13.0835 18.4915L13.3818 18.392C13.4481 18.6903 13.579 18.9356 13.7746 19.1278C13.9701 19.3234 14.2187 19.4676 14.5203 19.5604C14.8219 19.6565 15.165 19.7045 15.5494 19.7045C16.3449 19.7045 17.0061 19.4941 17.5331 19.0732C18.0601 18.6522 18.3932 18.0142 18.5324 17.1591L18.8705 15.0909H18.8307C18.6318 15.5152 18.3766 15.8698 18.0651 16.1548C17.7568 16.4366 17.4171 16.6487 17.0459 16.7912C16.678 16.9304 16.3051 17 15.9273 17C15.3307 17 14.8385 16.8393 14.4507 16.5178C14.0629 16.1963 13.7961 15.7505 13.6503 15.1804C13.5045 14.6103 13.4945 13.9508 13.6205 13.2017C13.7464 12.446 13.9784 11.7699 14.3165 11.1733C14.6546 10.5767 15.0722 10.1061 15.5693 9.76136C16.0665 9.41667 16.6167 9.24432 17.2199 9.24432C17.6309 9.24432 17.9905 9.32883 18.2987 9.49787C18.6103 9.66359 18.8638 9.90223 19.0594 10.2138C19.2583 10.522 19.3941 10.8883 19.4671 11.3125H19.5068L19.825 9.36364H20.1432L18.8506 17.1591C18.7445 17.7888 18.544 18.3158 18.249 18.7401C17.954 19.1643 17.5779 19.4841 17.1205 19.6996C16.6631 19.915 16.1394 20.0227 15.5494 20.0227ZM15.9273 16.6818C16.4576 16.6818 16.9465 16.541 17.3939 16.2592C17.8447 15.9775 18.2258 15.5765 18.5374 15.0561C18.8522 14.5357 19.0693 13.9176 19.1887 13.2017C19.3013 12.5123 19.2997 11.8942 19.1837 11.3473C19.071 10.7971 18.8473 10.3629 18.5125 10.0447C18.1811 9.72325 17.7436 9.5625 17.2 9.5625C16.6631 9.5625 16.1676 9.72325 15.7135 10.0447C15.2628 10.3629 14.8816 10.7971 14.57 11.3473C14.2618 11.8942 14.0513 12.5123 13.9387 13.2017C13.826 13.8911 13.8276 14.4976 13.9436 15.0213C14.0629 15.5417 14.2883 15.9493 14.6198 16.2443C14.9545 16.536 15.3904 16.6818 15.9273 16.6818Z" fill="#888888"/>
</svg>
