<svg width="24" height="24" viewBox="0 0 24 24" fill="none" xmlns="http://www.w3.org/2000/svg">
<path d="M3.25772 17L5.06241 13.5597H9.64125L10.2975 17H10.6356L8.6867 6.81818H8.2492L2.91966 17H3.25772ZM5.22647 13.2415L8.38841 7.21591H8.42818L9.58159 13.2415H5.22647ZM14.5494 20.0227C16.3193 20.0227 17.5324 19.0483 17.8506 17.1591L19.1432 9.36364H18.825L18.5068 11.3125H18.4671C18.2483 10.0398 17.4529 9.24432 16.2199 9.24432C14.4102 9.24432 12.9983 10.9347 12.6205 13.2017C12.2426 15.4489 13.1375 17 14.9273 17C16.0608 17 17.2341 16.3636 17.8307 15.0909H17.8705L17.5324 17.1591C17.254 18.8693 16.1404 19.7045 14.5494 19.7045C13.396 19.7045 12.5807 19.2869 12.3818 18.392L12.0835 18.4915C12.3023 19.5057 13.2767 20.0227 14.5494 20.0227ZM14.9273 16.6818C13.3165 16.6818 12.6006 15.2699 12.9387 13.2017C13.2767 11.1335 14.5892 9.5625 16.2 9.5625C17.8307 9.5625 18.5267 11.1335 18.1887 13.2017C17.8307 15.3494 16.5182 16.6818 14.9273 16.6818Z" fill="#333333"/>
</svg>
