<svg width="24" height="24" viewBox="0 0 24 24" fill="none" xmlns="http://www.w3.org/2000/svg">
<path d="M5.48473 17H2.50178L5.86257 6.81818H9.64098L13.0018 17H10.0188L7.79155 9.62216H7.712L5.48473 17ZM4.92791 12.983H10.5359V15.0511H4.92791V12.983ZM17.0996 20.0227C16.334 20.0227 15.6777 19.9134 15.1309 19.6946C14.5873 19.4792 14.1647 19.1809 13.8631 18.7997C13.5648 18.4219 13.3974 17.9877 13.361 17.4972H16.0059C16.0324 17.6596 16.0987 17.7905 16.2047 17.8899C16.3108 17.9893 16.4467 18.0606 16.6124 18.1037C16.7814 18.1501 16.9703 18.1733 17.1792 18.1733C17.5338 18.1733 17.8271 18.0871 18.0591 17.9148C18.2944 17.7424 18.4121 17.4309 18.4121 16.9801V15.6875H18.3326C18.2331 15.946 18.0807 16.1664 17.8752 16.3487C17.6697 16.5277 17.4228 16.6652 17.1344 16.7614C16.8461 16.8542 16.5295 16.9006 16.1848 16.9006C15.6413 16.9006 15.1408 16.7746 14.6834 16.5227C14.2293 16.2708 13.8648 15.8714 13.5897 15.3246C13.3179 14.7777 13.182 14.0634 13.182 13.1818C13.182 12.2604 13.3245 11.5114 13.6096 10.9347C13.8979 10.358 14.2691 9.93537 14.7232 9.6669C15.1806 9.39844 15.6612 9.2642 16.165 9.2642C16.5428 9.2642 16.8742 9.33049 17.1593 9.46307C17.4443 9.59233 17.6829 9.76633 17.8752 9.98508C18.0674 10.2005 18.2132 10.4375 18.3127 10.696H18.3723V9.36364H21.1167V16.9801C21.1167 17.6264 20.9493 18.175 20.6145 18.6257C20.2831 19.0798 19.8158 19.4261 19.2125 19.6648C18.6093 19.9034 17.905 20.0227 17.0996 20.0227ZM17.199 14.9517C17.4509 14.9517 17.6664 14.8821 17.8453 14.7429C18.0276 14.6004 18.1668 14.3982 18.263 14.1364C18.3624 13.8712 18.4121 13.553 18.4121 13.1818C18.4121 12.804 18.3624 12.4808 18.263 12.2124C18.1668 11.9406 18.0276 11.7334 17.8453 11.5909C17.6664 11.4451 17.4509 11.3722 17.199 11.3722C16.9471 11.3722 16.7317 11.4451 16.5527 11.5909C16.3771 11.7334 16.2412 11.9406 16.1451 12.2124C16.0523 12.4808 16.0059 12.804 16.0059 13.1818C16.0059 13.5597 16.0523 13.8812 16.1451 14.1463C16.2412 14.4081 16.3771 14.6087 16.5527 14.7479C16.7317 14.8838 16.9471 14.9517 17.199 14.9517Z" fill="#888888"/>
</svg>
