<svg width="24" height="24" viewBox="0 0 24 24" fill="none" xmlns="http://www.w3.org/2000/svg">
<path d="M4.84837 17H1.86541L6.91655 6.81818H10.695L12.3654 17H9.38246L8.38814 9.62216H8.30859L4.84837 17ZM4.96768 12.983H10.5756L10.2177 15.0511H4.60973L4.96768 12.983ZM15.986 20.0227C15.217 20.0227 14.5774 19.9134 14.0669 19.6946C13.5598 19.4792 13.1853 19.1809 12.9434 18.7997C12.7047 18.4219 12.6053 17.9877 12.6451 17.4972H15.29C15.2966 17.6629 15.3446 17.7955 15.4341 17.8949C15.5236 17.9943 15.6479 18.0656 15.807 18.1087C15.9661 18.1518 16.1517 18.1733 16.3638 18.1733C16.7218 18.1733 17.0317 18.0855 17.2935 17.9098C17.5553 17.7375 17.7161 17.4276 17.7757 16.9801L17.9945 15.6875H17.915C17.7757 15.946 17.5885 16.1664 17.3532 16.3487C17.1178 16.5277 16.8477 16.6652 16.5428 16.7614C16.2379 16.8542 15.9131 16.9006 15.5684 16.9006C15.0248 16.9006 14.5459 16.7746 14.1316 16.5227C13.7206 16.2708 13.4223 15.8714 13.2367 15.3246C13.0544 14.7777 13.0362 14.0634 13.182 13.1818C13.3345 12.2604 13.6029 11.5114 13.9874 10.9347C14.3719 10.358 14.8143 9.93537 15.3148 9.6669C15.8153 9.39844 16.3174 9.2642 16.8212 9.2642C17.199 9.2642 17.5189 9.33049 17.7807 9.46307C18.0426 9.59233 18.2514 9.76633 18.4071 9.98508C18.5629 10.2005 18.6706 10.4375 18.7303 10.696H18.79L19.0087 9.36364H21.753L20.4803 16.9801C20.3809 17.6297 20.1273 18.1799 19.7196 18.6307C19.3153 19.0848 18.7916 19.4295 18.1486 19.6648C17.5089 19.9034 16.7881 20.0227 15.986 20.0227ZM16.9007 14.9517C17.1526 14.9517 17.3813 14.8821 17.5868 14.7429C17.7923 14.6004 17.9663 14.3982 18.1088 14.1364C18.2514 13.8712 18.3525 13.553 18.4121 13.1818C18.4718 12.804 18.4751 12.4808 18.4221 12.2124C18.369 11.9406 18.2646 11.7334 18.1088 11.5909C17.9531 11.4451 17.7492 11.3722 17.4973 11.3722C17.2454 11.3722 17.0184 11.4451 16.8162 11.5909C16.6141 11.7334 16.4434 11.9406 16.3042 12.2124C16.165 12.4808 16.0655 12.804 16.0059 13.1818C15.9462 13.5597 15.9412 13.8812 15.9909 14.1463C16.0407 14.4081 16.1417 14.6087 16.2942 14.7479C16.4467 14.8838 16.6489 14.9517 16.9007 14.9517Z" fill="#888888"/>
</svg>
