<svg width="24" height="24" viewBox="0 0 24 24" fill="none" xmlns="http://www.w3.org/2000/svg">
<path d="M4.01527 17H1.70845L6.91371 6.81818H9.68786L11.5075 17H9.20064L7.96271 9.14489H7.88317L4.01527 17ZM4.54226 12.9979H9.99112L9.70277 14.6783H4.25391L4.54226 12.9979ZM15.3008 20.0227C14.6114 20.0227 14.0363 19.9283 13.5756 19.7393C13.1183 19.5537 12.7702 19.3002 12.5316 18.9787C12.2963 18.6572 12.167 18.2959 12.1438 17.8949L14.1523 17.6314C14.1888 17.7872 14.2584 17.9313 14.3612 18.0639C14.4672 18.1965 14.618 18.3026 14.8136 18.3821C15.0124 18.4616 15.2693 18.5014 15.5842 18.5014C16.0449 18.5014 16.4459 18.3887 16.7873 18.1634C17.1287 17.9413 17.3391 17.5684 17.4187 17.0447L17.6474 15.6477H17.5579C17.4319 15.8598 17.2596 16.0604 17.0408 16.2493C16.8254 16.4382 16.5619 16.5923 16.2504 16.7116C15.9421 16.831 15.5858 16.8906 15.1815 16.8906C14.6048 16.8906 14.1043 16.758 13.68 16.4929C13.2591 16.2244 12.9542 15.8151 12.7653 15.2649C12.5797 14.7114 12.5565 14.0121 12.6957 13.1669C12.8415 12.3018 13.1033 11.5793 13.4812 10.9993C13.859 10.4193 14.3065 9.98509 14.8235 9.69673C15.3406 9.40838 15.8791 9.2642 16.4393 9.2642C16.8668 9.2642 17.2115 9.33712 17.4734 9.48295C17.7385 9.62547 17.9424 9.80445 18.0849 10.0199C18.2274 10.232 18.3285 10.4408 18.3881 10.6463H18.4727L18.6815 9.36364H20.7844L19.5018 17.0746C19.399 17.7275 19.1521 18.2711 18.761 18.7053C18.3732 19.1428 17.881 19.4709 17.2844 19.6896C16.6879 19.9117 16.0266 20.0227 15.3008 20.0227ZM16.0962 15.2997C16.4343 15.2997 16.7376 15.2152 17.006 15.0462C17.2778 14.8738 17.5049 14.6286 17.6871 14.3104C17.8694 13.9889 17.997 13.6044 18.07 13.157C18.1429 12.7095 18.1412 12.3217 18.065 11.9936C17.9921 11.6622 17.8496 11.4053 17.6374 11.223C17.4286 11.0407 17.1535 10.9496 16.8121 10.9496C16.4608 10.9496 16.1526 11.044 15.8874 11.233C15.6223 11.4186 15.4019 11.6771 15.2262 12.0085C15.0539 12.34 14.9329 12.7228 14.8633 13.157C14.7904 13.5978 14.7871 13.9789 14.8533 14.3004C14.9229 14.6186 15.0605 14.8655 15.266 15.0412C15.4715 15.2135 15.7482 15.2997 16.0962 15.2997Z" fill="#888888"/>
</svg>
