<svg width="24" height="24" viewBox="0 0 24 24" fill="none" xmlns="http://www.w3.org/2000/svg">
<path d="M4.56934 17L5.65811 13.9325H9.93368L11.0225 17H11.9969L8.29306 6.81818H7.29874L3.5949 17H4.56934ZM5.95641 13.0973L7.7611 8.02628H7.8307L9.63539 13.0973H5.95641ZM16.4713 20.0227C18.281 20.0227 19.6233 19.1378 19.6233 17.1989V9.36364H18.7583V10.8203H18.6688C18.3556 10.1342 17.7242 9.25923 16.3222 9.25923C14.433 9.25923 13.1652 10.8402 13.1652 13.1619C13.1652 15.5036 14.4777 16.9205 16.3073 16.9205C17.6794 16.9205 18.3506 16.125 18.6539 15.424H18.7334V17.1442C18.7334 18.5661 17.8236 19.2273 16.4713 19.2273C15.1638 19.2273 14.5374 18.5959 14.2142 18.0142L13.4884 18.4915C13.9358 19.3665 14.9102 20.0227 16.4713 20.0227ZM16.4117 16.1101C14.8953 16.1101 14.0551 14.897 14.0551 13.147C14.0551 11.4268 14.8804 10.0646 16.4117 10.0646C17.9081 10.0646 18.7483 11.3572 18.7483 13.147C18.7483 14.9915 17.8833 16.1101 16.4117 16.1101Z" fill="#333333"/>
</svg>
