<svg width="24" height="24" viewBox="0 0 24 24" fill="none" xmlns="http://www.w3.org/2000/svg">
<path d="M5.73943 14.97L4.78743 17H3.07943V16.79L7.61543 7.13H8.37143L12.8794 16.79V17H11.1854L10.2194 14.97H5.73943ZM6.27143 13.598H9.70143L7.99343 9.678L6.27143 13.598ZM18.4838 11.694C18.0358 11.4887 17.5645 11.386 17.0698 11.386C16.4445 11.386 15.9311 11.568 15.5298 11.932C15.1285 12.296 14.9185 12.856 14.8998 13.612C14.8998 14.284 15.0491 14.8253 15.3478 15.236C15.6558 15.6467 16.1411 15.852 16.8038 15.852C17.1025 15.852 17.3591 15.782 17.5738 15.642C17.7885 15.502 17.9611 15.3247 18.0918 15.11C18.2318 14.8953 18.3298 14.6573 18.3858 14.396C18.4511 14.1253 18.4838 13.864 18.4838 13.612V11.694ZM14.0738 18.652C14.3631 18.8013 14.6758 18.932 15.0118 19.044C15.3478 19.1653 15.6791 19.2493 16.0058 19.296C16.3418 19.3427 16.6638 19.3473 16.9718 19.31C17.2798 19.2727 17.5505 19.1747 17.7838 19.016C18.0265 18.8667 18.2178 18.6473 18.3578 18.358C18.4978 18.0687 18.5678 17.6907 18.5678 17.224V15.908C18.1291 16.72 17.4011 17.126 16.3838 17.126C16.0105 17.126 15.6418 17.056 15.2778 16.916C14.9231 16.776 14.6058 16.5613 14.3258 16.272C14.0458 15.9827 13.8171 15.6187 13.6398 15.18C13.4718 14.7413 13.3878 14.2187 13.3878 13.612C13.3971 12.996 13.5045 12.4687 13.7098 12.03C13.9151 11.582 14.1858 11.218 14.5218 10.938C14.8671 10.6487 15.2685 10.4387 15.7258 10.308C16.1925 10.1773 16.6871 10.1167 17.2098 10.126C17.6858 10.126 18.1525 10.182 18.6098 10.294C19.0765 10.406 19.5338 10.56 19.9818 10.756V17.224C19.9818 18.12 19.7905 18.8293 19.4078 19.352C19.0251 19.884 18.5351 20.2527 17.9378 20.458C17.3498 20.6633 16.6965 20.7147 15.9778 20.612C15.2591 20.5187 14.5685 20.29 13.9058 19.926L14.0738 18.652Z" fill="#888888"/>
</svg>
