<svg width="24" height="24" viewBox="0 0 24 24" fill="none" xmlns="http://www.w3.org/2000/svg">
<path d="M5.56427 14.578L4.41627 17H3.19827V16.846L7.76227 7.158H8.29427L12.8163 16.846V17H11.6123L10.4643 14.578H5.56427ZM5.95627 13.57H10.0723L8.01427 8.992L5.95627 13.57ZM18.84 11.428C18.2893 11.1853 17.7153 11.064 17.118 11.064C16.754 11.064 16.4133 11.12 16.096 11.232C15.788 11.344 15.522 11.5073 15.298 11.722C15.074 11.9367 14.8967 12.2027 14.766 12.52C14.6447 12.828 14.584 13.1873 14.584 13.598C14.584 14.41 14.7847 15.0447 15.186 15.502C15.5967 15.9593 16.124 16.188 16.768 16.188C17.132 16.188 17.4447 16.1133 17.706 15.964C17.9673 15.8053 18.182 15.6047 18.35 15.362C18.518 15.11 18.6393 14.83 18.714 14.522C18.798 14.214 18.84 13.906 18.84 13.598V11.428ZM14.136 18.876C14.5187 19.0907 14.934 19.2587 15.382 19.38C15.83 19.5107 16.264 19.576 16.684 19.576C16.9827 19.576 17.2673 19.534 17.538 19.45C17.8087 19.3753 18.042 19.2493 18.238 19.072C18.4433 18.8947 18.602 18.6613 18.714 18.372C18.8353 18.092 18.896 17.7467 18.896 17.336V15.754C18.7 16.258 18.3827 16.6127 17.944 16.818C17.5147 17.0233 17.034 17.126 16.502 17.126C16.11 17.126 15.732 17.056 15.368 16.916C15.004 16.7667 14.682 16.5473 14.402 16.258C14.122 15.9593 13.898 15.5907 13.73 15.152C13.562 14.7133 13.478 14.2 13.478 13.612C13.478 13.024 13.576 12.5107 13.772 12.072C13.968 11.6333 14.234 11.2693 14.57 10.98C14.906 10.6907 15.3027 10.476 15.76 10.336C16.2173 10.196 16.7073 10.126 17.23 10.126C17.706 10.1353 18.1633 10.196 18.602 10.308C19.05 10.4107 19.484 10.5553 19.904 10.742V17.336C19.904 17.896 19.82 18.3767 19.652 18.778C19.4933 19.1793 19.2693 19.506 18.98 19.758C18.7 20.01 18.3687 20.1967 17.986 20.318C17.6127 20.4393 17.216 20.5 16.796 20.5C16.3293 20.5 15.8533 20.4393 15.368 20.318C14.892 20.1967 14.43 20.01 13.982 19.758L14.136 18.876Z" fill="#888888"/>
</svg>
