<svg width="24" height="24" viewBox="0 0 24 24" fill="none" xmlns="http://www.w3.org/2000/svg">
<path d="M7.94913 8.81H7.96313L10.6231 14.508H5.31713L7.94913 8.81ZM9.89513 15.768H6.03113L5.45713 17H3.00713V16.636L7.41713 7.074H8.49513L12.9191 16.636V17H10.4691L9.89513 15.768ZM7.99113 8.502H7.90713L4.42113 16.048H4.60313L5.26113 14.662H10.6791L11.3231 16.048H11.5051L7.99113 8.502ZM7.94913 11.26L6.94113 13.514H8.98513L7.94913 11.26ZM17.7444 16.874C17.4644 16.986 17.1938 17.056 16.9324 17.084C16.6711 17.1213 16.4191 17.14 16.1764 17.14C15.7284 17.14 15.3178 17.0653 14.9444 16.916C14.5711 16.7573 14.2538 16.5287 13.9924 16.23C13.7311 15.9313 13.5258 15.5673 13.3764 15.138C13.2364 14.7087 13.1664 14.2187 13.1664 13.668C13.1758 13.0053 13.2878 12.45 13.5024 12.002C13.7171 11.5447 14.0018 11.176 14.3564 10.896C14.7204 10.616 15.1358 10.4153 15.6024 10.294C16.0691 10.1727 16.5638 10.1167 17.0864 10.126C17.5904 10.126 18.0898 10.182 18.5844 10.294C19.0884 10.406 19.5691 10.5553 20.0264 10.742V16.874C20.0264 17.5087 19.9378 18.05 19.7604 18.498C19.5831 18.9553 19.3358 19.3333 19.0184 19.632C18.7011 19.9307 18.3231 20.15 17.8844 20.29C17.4551 20.43 16.9838 20.5 16.4704 20.5C16.0131 20.5 15.5464 20.4347 15.0704 20.304C14.5944 20.1827 14.1231 20.0007 13.6564 19.758L13.9364 17.952C14.2631 18.1107 14.6224 18.2507 15.0144 18.372C15.4064 18.4933 15.7844 18.554 16.1484 18.554C16.3724 18.554 16.5778 18.526 16.7644 18.47C16.9604 18.4233 17.1284 18.3347 17.2684 18.204C17.4178 18.0733 17.5344 17.9007 17.6184 17.686C17.7024 17.4713 17.7444 17.2007 17.7444 16.874ZM18.8084 17.252C18.8084 17.6253 18.7431 17.952 18.6124 18.232C18.4911 18.512 18.3184 18.7453 18.0944 18.932C17.8704 19.128 17.5998 19.2727 17.2824 19.366C16.9744 19.4593 16.6384 19.506 16.2744 19.506C15.7331 19.506 15.1778 19.3707 14.6084 19.1L14.5664 19.226C14.8371 19.3567 15.1218 19.4593 15.4204 19.534C15.7191 19.6087 16.0038 19.646 16.2744 19.646C16.6664 19.646 17.0258 19.5947 17.3524 19.492C17.6791 19.3893 17.9591 19.2353 18.1924 19.03C18.4351 18.834 18.6218 18.5867 18.7524 18.288C18.8831 17.9893 18.9484 17.644 18.9484 17.252V11.498C18.6498 11.3487 18.3278 11.2367 17.9824 11.162C17.6371 11.078 17.2824 11.036 16.9184 11.036C16.0971 11.036 15.4531 11.2647 14.9864 11.722C14.5291 12.17 14.3004 12.8047 14.3004 13.626C14.3004 14.382 14.4871 14.9933 14.8604 15.46C15.2338 15.9267 15.8078 16.16 16.5824 16.16C16.9184 16.16 17.2918 16.1227 17.7024 16.048C18.1131 15.964 18.4818 15.81 18.8084 15.586V17.252ZM16.5824 16.034C15.8451 16.034 15.3038 15.8147 14.9584 15.376C14.6131 14.9373 14.4404 14.354 14.4404 13.626C14.4404 12.8327 14.6551 12.226 15.0844 11.806C15.5231 11.3767 16.1344 11.162 16.9184 11.162C17.5531 11.162 18.1831 11.2973 18.8084 11.568V15.446C18.4818 15.6793 18.1131 15.838 17.7024 15.922C17.2918 15.9967 16.9184 16.034 16.5824 16.034ZM17.7024 12.184C17.3571 12.1093 17.0771 12.072 16.8624 12.072C16.4424 12.072 16.1204 12.1887 15.8964 12.422C15.6724 12.6553 15.5604 13.0567 15.5604 13.626C15.5418 14.158 15.6584 14.536 15.9104 14.76C16.1624 14.9747 16.4798 15.0727 16.8624 15.054C17.1238 15.0447 17.4038 14.9747 17.7024 14.844V12.184Z" fill="#888888"/>
</svg>
