<svg width="24" height="24" viewBox="0 0 24 24" fill="none" xmlns="http://www.w3.org/2000/svg">
<path d="M7.24601 8.81H7.26001L9.92001 14.508H4.61401L7.24601 8.81ZM9.19201 15.768H5.32801L4.75401 17H2.30401V16.636L6.71401 7.074H7.79201L12.216 16.636V17H9.76601L9.19201 15.768ZM7.28801 8.502H7.20401L3.71801 16.048H3.90001L4.55801 14.662H9.97601L10.62 16.048H10.802L7.28801 8.502ZM7.24601 11.26L6.23801 13.514H8.28201L7.24601 11.26ZM12.3552 12.1C12.3552 11.26 12.4999 10.5273 12.7892 9.902C13.0786 9.27667 13.4612 8.754 13.9372 8.334C14.4132 7.914 14.9499 7.60133 15.5472 7.396C16.1539 7.18133 16.7652 7.074 17.3812 7.074C17.8759 7.074 18.3659 7.144 18.8512 7.284C19.3366 7.41467 19.7846 7.62 20.1952 7.9C20.6059 8.18 20.9606 8.53933 21.2592 8.978C21.5579 9.41667 21.7679 9.93933 21.8892 10.546H19.4252C19.2199 10.126 18.9539 9.82733 18.6272 9.65C18.3006 9.46333 17.8852 9.37 17.3812 9.37C16.9892 9.37 16.6392 9.44467 16.3312 9.594C16.0326 9.734 15.7806 9.93 15.5752 10.182C15.3699 10.4247 15.2112 10.714 15.0992 11.05C14.9966 11.3767 14.9452 11.7267 14.9452 12.1C14.9452 12.5107 15.0012 12.8793 15.1132 13.206C15.2346 13.5327 15.3979 13.8173 15.6032 14.06C15.8179 14.2933 16.0746 14.4753 16.3732 14.606C16.6719 14.7273 17.0079 14.788 17.3812 14.788C17.8852 14.788 18.3052 14.704 18.6412 14.536C18.9772 14.368 19.2572 14.0507 19.4812 13.584H17.3952V11.414H22.0292C22.0572 11.918 22.0572 12.4033 22.0292 12.87C22.0106 13.3367 21.9172 13.808 21.7492 14.284C21.5719 14.7973 21.3292 15.236 21.0212 15.6C20.7132 15.9547 20.3632 16.244 19.9712 16.468C19.5886 16.692 19.1732 16.8553 18.7252 16.958C18.2772 17.0607 17.8292 17.112 17.3812 17.112C16.7652 17.112 16.1539 17.0093 15.5472 16.804C14.9499 16.5893 14.4132 16.2767 13.9372 15.866C13.4612 15.446 13.0786 14.9233 12.7892 14.298C12.4999 13.6727 12.3552 12.94 12.3552 12.1ZM18.3472 12.534H20.7832C20.7739 13.038 20.6806 13.4953 20.5032 13.906C20.3352 14.3167 20.1019 14.6713 19.8032 14.97C19.5046 15.2593 19.1452 15.4833 18.7252 15.642C18.3146 15.8007 17.8666 15.88 17.3812 15.88C16.8492 15.88 16.3592 15.7867 15.9112 15.6C15.4632 15.4133 15.0759 15.152 14.7492 14.816C14.4319 14.48 14.1799 14.0833 13.9932 13.626C13.8159 13.1593 13.7272 12.6507 13.7272 12.1C13.7272 11.5587 13.8159 11.0593 13.9932 10.602C14.1799 10.1353 14.4319 9.734 14.7492 9.398C15.0759 9.05267 15.4632 8.78667 15.9112 8.6C16.3592 8.404 16.8492 8.306 17.3812 8.306C17.6612 8.306 17.9412 8.33867 18.2212 8.404C18.5012 8.46 18.7672 8.55333 19.0192 8.684C19.2712 8.80533 19.4999 8.95933 19.7052 9.146C19.9199 9.33267 20.1019 9.552 20.2512 9.804H20.4192C20.0926 9.25333 19.6492 8.84733 19.0892 8.586C18.5386 8.31533 17.9692 8.18 17.3812 8.18C16.9052 8.18 16.4386 8.264 15.9812 8.432C15.5239 8.6 15.1179 8.852 14.7632 9.188C14.4086 9.51467 14.1192 9.92533 13.8952 10.42C13.6806 10.9053 13.5732 11.4653 13.5732 12.1C13.5732 12.7347 13.6806 13.2993 13.8952 13.794C14.1192 14.2793 14.4086 14.69 14.7632 15.026C15.1179 15.3527 15.5239 15.6 15.9812 15.768C16.4386 15.936 16.9052 16.02 17.3812 16.02C17.8759 16.02 18.3379 15.936 18.7672 15.768C19.2059 15.6 19.5839 15.362 19.9012 15.054C20.2279 14.746 20.4799 14.382 20.6572 13.962C20.8439 13.5327 20.9372 13.0567 20.9372 12.534V12.38H18.3472V12.534Z" fill="#888888"/>
</svg>
