<svg width="24" height="24" viewBox="0 0 24 24" fill="none" xmlns="http://www.w3.org/2000/svg">
<path d="M10.3459 17L9.91187 15.782H7.12587L6.69187 17H4.15787V16.846L7.92387 7.06H9.12787L12.8519 16.846V17H10.3459ZM9.22587 13.794C9.11387 13.4393 9.02053 13.136 8.94587 12.884C8.8712 12.632 8.80587 12.4033 8.74987 12.198C8.7032 11.9927 8.6612 11.7967 8.62387 11.61C8.58653 11.4233 8.5492 11.2227 8.51187 11.008C8.4652 11.2507 8.41853 11.47 8.37187 11.666C8.33453 11.8527 8.28787 12.0487 8.23187 12.254C8.1852 12.4593 8.1292 12.6833 8.06387 12.926C7.99853 13.1687 7.91453 13.458 7.81187 13.794H9.22587ZM16.9598 16.832C16.7171 16.9533 16.4931 17.0327 16.2878 17.07C16.0824 17.1167 15.8771 17.14 15.6718 17.14C15.2891 17.14 14.9391 17.0607 14.6218 16.902C14.3044 16.734 14.0338 16.5007 13.8098 16.202C13.5858 15.894 13.4084 15.53 13.2778 15.11C13.1564 14.69 13.0958 14.2187 13.0958 13.696C13.0958 13.1547 13.1704 12.6647 13.3198 12.226C13.4691 11.7873 13.6884 11.414 13.9778 11.106C14.2671 10.7887 14.6171 10.546 15.0278 10.378C15.4384 10.2007 15.9051 10.112 16.4278 10.112C16.9318 10.112 17.4031 10.1727 17.8418 10.294C18.2804 10.406 18.7098 10.5647 19.1298 10.77V17.056C19.1298 17.6907 19.0551 18.2227 18.9058 18.652C18.7564 19.0907 18.5464 19.4453 18.2758 19.716C18.0051 19.996 17.6831 20.1967 17.3098 20.318C16.9364 20.4393 16.5258 20.5 16.0778 20.5C15.6858 20.5 15.2518 20.4393 14.7758 20.318C14.3091 20.206 13.8518 19.9867 13.4038 19.66L13.8938 17.952C14.1271 18.12 14.3884 18.2553 14.6778 18.358C14.9671 18.47 15.2564 18.526 15.5458 18.526C15.7604 18.526 15.9518 18.5027 16.1198 18.456C16.2971 18.4187 16.4464 18.344 16.5678 18.232C16.6984 18.12 16.7964 17.966 16.8618 17.77C16.9271 17.574 16.9598 17.322 16.9598 17.014V16.832ZM16.9318 12.254C16.8384 12.2073 16.7358 12.1793 16.6238 12.17C16.5211 12.1513 16.4278 12.142 16.3438 12.142C16.0451 12.142 15.8024 12.2773 15.6158 12.548C15.4384 12.8187 15.3498 13.178 15.3498 13.626C15.3498 14.0647 15.4431 14.4193 15.6298 14.69C15.8164 14.9513 16.0591 15.082 16.3578 15.082C16.4418 15.082 16.5351 15.0727 16.6378 15.054C16.7498 15.026 16.8478 14.984 16.9318 14.928V12.254Z" fill="#888888"/>
</svg>
