<svg width="24" height="24" viewBox="0 0 24 24" fill="none" xmlns="http://www.w3.org/2000/svg">
<path d="M5.31161 14.578L3.67361 17H2.41361L2.44161 16.846L9.06361 7.158H9.59561L12.0596 16.846L12.0316 17H10.8696L10.2536 14.578H5.31161ZM5.91361 13.57H10.0716L8.97961 8.992L5.91361 13.57ZM19.19 11.414C18.9287 11.2833 18.6627 11.1947 18.392 11.148C18.1213 11.092 17.8413 11.064 17.552 11.064C17.1507 11.064 16.768 11.1247 16.404 11.246C16.0493 11.358 15.7273 11.5307 15.438 11.764C15.158 11.9973 14.9247 12.282 14.738 12.618C14.5513 12.954 14.43 13.3367 14.374 13.766C14.318 14.046 14.304 14.3307 14.332 14.62C14.3693 14.9093 14.4487 15.1707 14.57 15.404C14.6913 15.6373 14.8593 15.8287 15.074 15.978C15.298 16.118 15.5733 16.188 15.9 16.188C16.264 16.188 16.6 16.1133 16.908 15.964C17.216 15.8053 17.4913 15.6047 17.734 15.362C17.9767 15.11 18.1773 14.83 18.336 14.522C18.504 14.214 18.6253 13.906 18.7 13.598L19.19 11.414ZM12.862 18.89C13.17 19.086 13.5153 19.2447 13.898 19.366C14.2807 19.4873 14.668 19.548 15.06 19.548C15.4053 19.548 15.732 19.5153 16.04 19.45C16.348 19.3847 16.628 19.268 16.88 19.1C17.132 18.932 17.3513 18.7033 17.538 18.414C17.7247 18.134 17.8647 17.7747 17.958 17.336L18.294 15.754C18.0047 16.2393 17.6313 16.5893 17.174 16.804C16.726 17.0187 16.2127 17.126 15.634 17.126C15.1767 17.126 14.7847 17.0327 14.458 16.846C14.1313 16.6593 13.87 16.4167 13.674 16.118C13.478 15.8193 13.3427 15.4833 13.268 15.11C13.2027 14.7367 13.1933 14.3633 13.24 13.99C13.324 13.3553 13.5013 12.7953 13.772 12.31C14.0427 11.8247 14.3787 11.4187 14.78 11.092C15.1907 10.7653 15.6527 10.5227 16.166 10.364C16.6887 10.196 17.2393 10.1167 17.818 10.126C18.294 10.1353 18.7373 10.196 19.148 10.308C19.5587 10.42 19.96 10.5693 20.352 10.756L18.966 17.336C18.8447 17.9053 18.6627 18.3907 18.42 18.792C18.1867 19.1933 17.902 19.52 17.566 19.772C17.2393 20.024 16.8753 20.206 16.474 20.318C16.0727 20.4393 15.6433 20.5 15.186 20.5C14.3367 20.5 13.45 20.2573 12.526 19.772L12.862 18.89Z" fill="#888888"/>
</svg>
