<svg width="24" height="24" viewBox="0 0 24 24" fill="none" xmlns="http://www.w3.org/2000/svg">
<path d="M10.4818 17L9.58582 14.578H5.42782L4.51782 17H3.39782V16.846L7.27582 7.06H7.77982L11.6158 16.846V17H10.4818ZM5.80582 13.57H9.20782L7.51382 9.034L5.80582 13.57ZM12.13 12.086C12.13 11.33 12.228 10.644 12.424 10.028C12.6293 9.412 12.914 8.88467 13.278 8.446C13.642 8.00733 14.0807 7.66667 14.594 7.424C15.1073 7.18133 15.6767 7.06 16.302 7.06C16.7407 7.06 17.156 7.116 17.548 7.228C17.9493 7.33067 18.3087 7.49867 18.626 7.732C18.9527 7.96533 19.2327 8.264 19.466 8.628C19.7087 8.992 19.8907 9.43067 20.012 9.944H18.948C18.836 9.58933 18.6913 9.29533 18.514 9.062C18.3367 8.82867 18.1313 8.642 17.898 8.502C17.674 8.362 17.4267 8.264 17.156 8.208C16.8853 8.152 16.6007 8.124 16.302 8.124C15.8447 8.124 15.4247 8.222 15.042 8.418C14.6687 8.60467 14.3467 8.87067 14.076 9.216C13.8147 9.56133 13.6093 9.97667 13.46 10.462C13.32 10.9473 13.25 11.4887 13.25 12.086C13.25 12.6833 13.32 13.2247 13.46 13.71C13.6093 14.1953 13.8147 14.6107 14.076 14.956C14.3467 15.3013 14.6687 15.572 15.042 15.768C15.4247 15.9547 15.8447 16.048 16.302 16.048C17.1233 16.048 17.7907 15.796 18.304 15.292C18.8267 14.788 19.1487 13.9713 19.27 12.842H16.414V11.848H20.306C20.334 12.6413 20.2547 13.3647 20.068 14.018C19.8907 14.6713 19.6247 15.2313 19.27 15.698C18.9247 16.1553 18.5 16.51 17.996 16.762C17.492 17.014 16.9273 17.14 16.302 17.14C15.6767 17.14 15.1073 17.0187 14.594 16.776C14.0807 16.5333 13.642 16.1927 13.278 15.754C12.914 15.3153 12.6293 14.7833 12.424 14.158C12.228 13.5327 12.13 12.842 12.13 12.086Z" fill="#888888"/>
</svg>
