<svg width="24" height="24" viewBox="0 0 24 24" fill="none" xmlns="http://www.w3.org/2000/svg">
<path d="M10.7929 17L10.1909 15.376H6.97088L6.38288 17H4.31088V16.72L8.09088 7.102H9.08488L12.8509 16.72V17H10.7929ZM8.58088 10.602L8.02088 12.45L7.60088 13.612H9.54688L9.11288 12.436L8.58088 10.602ZM17.2378 16.706C17.0418 16.8553 16.8178 16.9627 16.5658 17.028C16.3138 17.0933 16.0665 17.126 15.8238 17.126C15.4318 17.126 15.0725 17.042 14.7458 16.874C14.4285 16.6967 14.1578 16.4493 13.9338 16.132C13.7098 15.8147 13.5325 15.4413 13.4018 15.012C13.2805 14.5733 13.2198 14.0927 13.2198 13.57C13.2198 13.038 13.2991 12.5573 13.4578 12.128C13.6165 11.6987 13.8405 11.3347 14.1298 11.036C14.4285 10.728 14.7785 10.4947 15.1798 10.336C15.5905 10.1773 16.0478 10.1027 16.5518 10.112C16.9811 10.112 17.4011 10.168 17.8118 10.28C18.2318 10.392 18.6378 10.5413 19.0298 10.728V17.196C19.0298 17.896 18.9271 18.4607 18.7218 18.89C18.5258 19.3193 18.2785 19.6507 17.9798 19.884C17.6905 20.1267 17.3731 20.29 17.0278 20.374C16.6825 20.458 16.3651 20.5 16.0758 20.5C15.6838 20.5 15.2545 20.4347 14.7878 20.304C14.3305 20.1733 13.8825 19.9447 13.4438 19.618L13.8918 18.232C14.1905 18.4467 14.5265 18.6193 14.8998 18.75C15.2731 18.89 15.6231 18.96 15.9498 18.96C16.1271 18.96 16.2951 18.932 16.4538 18.876C16.6125 18.82 16.7478 18.7267 16.8598 18.596C16.9811 18.4653 17.0745 18.288 17.1398 18.064C17.2051 17.8493 17.2378 17.5833 17.2378 17.266V16.706ZM17.2238 11.862C16.9438 11.7687 16.6545 11.722 16.3558 11.722C15.9731 11.722 15.6605 11.89 15.4178 12.226C15.1845 12.562 15.0678 13.01 15.0678 13.57C15.0678 14.186 15.1751 14.6527 15.3898 14.97C15.6045 15.2873 15.8938 15.446 16.2578 15.446C16.3885 15.446 16.5378 15.4273 16.7058 15.39C16.8738 15.3433 17.0465 15.2453 17.2238 15.096V11.862Z" fill="#888888"/>
</svg>
