<svg width="24" height="24" viewBox="0 0 24 24" fill="none" xmlns="http://www.w3.org/2000/svg">
<path d="M4.42124 17V16.832L8.27124 7.13H8.98524L12.8072 16.818V17H11.2812L10.5252 14.97H6.70324L5.96124 17H4.42124ZM10.0352 13.598L9.46124 12.114L8.62124 9.636L7.76724 12.142L7.20724 13.598H10.0352ZM17.5598 16.664C17.2891 16.86 17.0138 16.986 16.7338 17.042C16.4631 17.1073 16.2065 17.14 15.9638 17.14C15.5811 17.14 15.2265 17.07 14.8998 16.93C14.5731 16.7807 14.2885 16.5613 14.0458 16.272C13.8031 15.9827 13.6118 15.6233 13.4718 15.194C13.3411 14.7647 13.2758 14.2607 13.2758 13.682C13.2758 13.066 13.3598 12.534 13.5278 12.086C13.7051 11.638 13.9385 11.2693 14.2278 10.98C14.5265 10.6813 14.8718 10.462 15.2638 10.322C15.6558 10.182 16.0711 10.112 16.5098 10.112C16.9298 10.112 17.3358 10.1727 17.7278 10.294C18.1291 10.406 18.5211 10.5553 18.9038 10.742V17.196C18.9038 17.8213 18.8291 18.344 18.6798 18.764C18.5305 19.184 18.3251 19.52 18.0638 19.772C17.8118 20.0333 17.5131 20.22 17.1678 20.332C16.8318 20.444 16.4725 20.5 16.0898 20.5C15.6978 20.5093 15.2965 20.4487 14.8858 20.318C14.4751 20.1873 14.0738 19.996 13.6818 19.744L13.8778 18.47C14.2325 18.6847 14.6011 18.8573 14.9838 18.988C15.3758 19.1187 15.7445 19.1793 16.0898 19.17C16.2951 19.17 16.4865 19.142 16.6638 19.086C16.8411 19.03 16.9951 18.9273 17.1258 18.778C17.2565 18.6287 17.3591 18.4233 17.4338 18.162C17.5178 17.91 17.5598 17.5787 17.5598 17.168V16.664ZM17.5318 11.652C17.3451 11.568 17.1491 11.512 16.9438 11.484C16.7478 11.456 16.5565 11.442 16.3698 11.442C15.8845 11.442 15.4878 11.624 15.1798 11.988C14.8811 12.352 14.7271 12.9167 14.7178 13.682C14.7085 14.3727 14.8438 14.9 15.1238 15.264C15.4131 15.628 15.7631 15.8147 16.1738 15.824C16.3885 15.8333 16.6125 15.81 16.8458 15.754C17.0791 15.6887 17.3078 15.5627 17.5318 15.376V11.652Z" fill="#888888"/>
</svg>
