<svg width="24" height="24" viewBox="0 0 24 24" fill="none" xmlns="http://www.w3.org/2000/svg">
<path d="M10.5848 17L9.04475 13.766H3.33275L1.79275 17H1.54075V16.986L6.14675 7.186H6.25875L10.8368 16.986V17H10.5848ZM8.94675 13.528L6.20275 7.662L3.43075 13.528H8.94675ZM20.3794 9.692C20.0247 8.84267 19.4974 8.24067 18.7974 7.886C18.0974 7.522 17.2901 7.34 16.3754 7.34C15.6941 7.34933 15.0734 7.47533 14.5134 7.718C13.9534 7.95133 13.4727 8.278 13.0714 8.698C12.6794 9.118 12.3714 9.61733 12.1474 10.196C11.9327 10.7653 11.8254 11.386 11.8254 12.058C11.8254 12.7393 11.9281 13.374 12.1334 13.962C12.3481 14.55 12.6514 15.0587 13.0434 15.488C13.4354 15.9173 13.9114 16.2533 14.4714 16.496C15.0407 16.7387 15.6754 16.86 16.3754 16.86C17.0474 16.86 17.6587 16.748 18.2094 16.524C18.7601 16.3 19.2314 15.992 19.6234 15.6C20.0154 15.1987 20.3234 14.7227 20.5474 14.172C20.7714 13.612 20.8927 13.0007 20.9114 12.338H16.6134V12.114H21.1494C21.1401 12.562 21.0981 12.982 21.0234 13.374C20.9581 13.766 20.8461 14.1347 20.6874 14.48C20.3141 15.3013 19.7634 15.9453 19.0354 16.412C18.3074 16.8787 17.4207 17.112 16.3754 17.112C15.6381 17.112 14.9754 16.986 14.3874 16.734C13.7994 16.4727 13.2954 16.1133 12.8754 15.656C12.4647 15.1987 12.1474 14.6667 11.9234 14.06C11.6994 13.444 11.5874 12.7767 11.5874 12.058C11.5874 11.358 11.7041 10.7047 11.9374 10.098C12.1707 9.49133 12.4974 8.964 12.9174 8.516C13.3374 8.068 13.8414 7.718 14.4294 7.466C15.0174 7.214 15.6707 7.088 16.3894 7.088C17.3787 7.088 18.2374 7.28867 18.9654 7.69C19.7027 8.09133 20.2674 8.75867 20.6594 9.692H20.3794Z" fill="#888888"/>
</svg>
