<svg width="24" height="24" viewBox="0 0 24 24" fill="none" xmlns="http://www.w3.org/2000/svg">
<path d="M3.69336 16C3.45638 16 3.39486 15.8496 3.50879 15.5488L6.91309 6.61426C7.0179 6.33626 7.16829 6.19727 7.36426 6.19727H8.32129C8.51725 6.19727 8.66764 6.33626 8.77246 6.61426L12.1768 15.5488C12.2907 15.8496 12.2292 16 11.9922 16H11.2949C11.0534 16 10.8893 15.8883 10.8027 15.665L9.94824 13.4023H5.7373L4.88281 15.665C4.79622 15.8883 4.63216 16 4.39062 16H3.69336ZM6.16797 12.2812H9.51758L8.47168 9.54688C8.37598 9.29167 8.28027 9.00911 8.18457 8.69922C8.09342 8.38932 7.98405 7.94954 7.85645 7.37988H7.8291C7.7015 7.94954 7.58984 8.38932 7.49414 8.69922C7.40299 9.00911 7.30957 9.29167 7.21387 9.54688L6.16797 12.2812ZM12.9014 12.4111C12.9014 11.4313 13.1383 10.57 13.6123 9.82715C14.0863 9.07975 14.779 8.70605 15.6904 8.70605C16.2145 8.70605 16.6338 8.79264 16.9482 8.96582C17.2627 9.139 17.5452 9.37598 17.7959 9.67676H17.8096L17.8506 9.12988C17.8643 8.9248 17.9531 8.82227 18.1172 8.82227H18.6914C18.8965 8.82227 18.999 8.9248 18.999 9.12988V16.0547C18.999 16.9297 18.7962 17.6133 18.3906 18.1055C17.9896 18.6022 17.1943 18.8506 16.0049 18.8506C15.2074 18.8506 14.6104 18.7594 14.2139 18.5771C13.8174 18.3994 13.5348 18.2103 13.3662 18.0098C13.2432 17.8594 13.2363 17.7318 13.3457 17.627L13.7217 17.2578C13.8265 17.1576 13.9723 17.1895 14.1592 17.3535C14.4007 17.5723 14.6331 17.7272 14.8564 17.8184C15.0798 17.9141 15.4648 17.9619 16.0117 17.9619C16.6315 17.9619 17.0827 17.8298 17.3652 17.5654C17.6523 17.3011 17.7959 16.7542 17.7959 15.9248V15.5146C17.7959 15.3734 17.8005 15.2344 17.8096 15.0977H17.7959C17.5589 15.4121 17.2786 15.6605 16.9551 15.8428C16.6361 16.0251 16.2145 16.1162 15.6904 16.1162C14.779 16.1162 14.0863 15.7448 13.6123 15.002C13.1383 14.2546 12.9014 13.391 12.9014 12.4111ZM14.1729 12.4111C14.1729 13.2497 14.3164 13.9287 14.6035 14.4482C14.8952 14.9678 15.3874 15.2275 16.0801 15.2275C16.5723 15.2275 16.9801 15.0612 17.3037 14.7285C17.6318 14.3913 17.7959 13.8809 17.7959 13.1973V11.625C17.7959 10.9414 17.6318 10.4333 17.3037 10.1006C16.9801 9.76335 16.5723 9.59473 16.0801 9.59473C15.3874 9.59473 14.8952 9.85449 14.6035 10.374C14.3164 10.8936 14.1729 11.5726 14.1729 12.4111Z" fill="#333333"/>
</svg>
