<svg width="24" height="24" viewBox="0 0 24 24" fill="none" xmlns="http://www.w3.org/2000/svg">
<path d="M3.34347 17L7.71147 6.78H8.91547L10.0355 17H9.12547L8.83147 14.144H5.49947L4.30947 17H3.34347ZM5.82147 13.346H8.76147L8.36947 9.608C8.31347 9.06667 8.27614 8.614 8.25747 8.25C8.2388 7.886 8.2248 7.648 8.21547 7.536C8.17814 7.648 8.08947 7.886 7.94947 8.25C7.8188 8.614 7.6368 9.06667 7.40347 9.608L5.82147 13.346ZM12.858 19.52L12.998 18.68H15.196C15.6813 18.68 16.064 18.5587 16.344 18.316C16.6333 18.0733 16.8153 17.714 16.89 17.238L17.016 16.468L17.268 14.942H17.016L17.394 14.48C17.3007 15.0867 17.0253 15.572 16.568 15.936C16.1107 16.2907 15.5553 16.468 14.902 16.468C14.1273 16.468 13.5487 16.2113 13.166 15.698C12.7927 15.1847 12.6713 14.5033 12.802 13.654L13.068 11.988C13.1613 11.4093 13.3433 10.91 13.614 10.49C13.894 10.07 14.244 9.74333 14.664 9.51C15.084 9.27667 15.5507 9.16 16.064 9.16C16.7173 9.16 17.212 9.342 17.548 9.706C17.8933 10.0607 18.0147 10.5413 17.912 11.148L17.73 10.686H17.926L18.15 9.3H19.074L17.814 17.238C17.702 17.9753 17.4033 18.54 16.918 18.932C16.442 19.324 15.8167 19.52 15.042 19.52H12.858ZM15.266 15.67C15.854 15.67 16.344 15.488 16.736 15.124C17.128 14.76 17.3707 14.2607 17.464 13.626L17.716 12.016C17.8187 11.372 17.7347 10.868 17.464 10.504C17.1933 10.14 16.764 9.958 16.176 9.958C15.588 9.958 15.098 10.14 14.706 10.504C14.3233 10.8587 14.0807 11.3627 13.978 12.016L13.726 13.626C13.6327 14.27 13.7167 14.774 13.978 15.138C14.2487 15.4927 14.678 15.67 15.266 15.67Z" fill="#888888"/>
</svg>
