<svg width="24" height="24" viewBox="0 0 24 24" fill="none" xmlns="http://www.w3.org/2000/svg">
<path d="M3.09147 17L7.31947 6.78H9.30747L10.2875 17H8.80347L8.60747 14.41H5.70947L4.67347 17H3.09147ZM6.18547 13.164H8.50947L8.27147 10.21C8.23414 9.68733 8.20147 9.23467 8.17347 8.852C8.1548 8.46 8.14547 8.194 8.14547 8.054C8.0988 8.194 8.00547 8.46 7.86547 8.852C7.7348 9.23467 7.5668 9.68267 7.36147 10.196L6.18547 13.164ZM12.69 19.52L12.886 18.218H15.252C15.644 18.218 15.952 18.1247 16.176 17.938C16.4 17.7513 16.54 17.476 16.596 17.112L16.722 16.342L16.974 14.914H16.652L17.016 14.634C16.9133 15.222 16.652 15.684 16.232 16.02C15.812 16.356 15.2893 16.524 14.664 16.524C13.8707 16.524 13.2827 16.2627 12.9 15.74C12.5267 15.2173 12.41 14.5127 12.55 13.626L12.802 12.058C12.8953 11.4607 13.0773 10.9473 13.348 10.518C13.628 10.0887 13.978 9.75733 14.398 9.524C14.8273 9.28133 15.3033 9.16 15.826 9.16C16.4513 9.16 16.9227 9.33267 17.24 9.678C17.5573 10.014 17.6693 10.476 17.576 11.064L17.296 10.77H17.618L17.828 9.3H19.326L18.094 17.14C17.9727 17.8773 17.6413 18.456 17.1 18.876C16.568 19.3053 15.8867 19.52 15.056 19.52H12.69ZM15.35 15.222C15.8353 15.222 16.2367 15.0773 16.554 14.788C16.8713 14.4893 17.0767 14.0787 17.17 13.556L17.38 12.142C17.4733 11.6193 17.4033 11.2133 17.17 10.924C16.9367 10.6253 16.582 10.476 16.106 10.476C15.6113 10.476 15.2053 10.6207 14.888 10.91C14.58 11.19 14.384 11.6007 14.3 12.142L14.076 13.556C13.992 14.088 14.062 14.4987 14.286 14.788C14.51 15.0773 14.8647 15.222 15.35 15.222Z" fill="#888888"/>
</svg>
