<svg width="24" height="24" viewBox="0 0 24 24" fill="none" xmlns="http://www.w3.org/2000/svg">
<path d="M2.83947 17L6.96947 6.78H9.62947L10.5395 17H8.45347L8.32747 14.69H5.89147L5.03747 17H2.83947ZM6.50747 13.01H8.22947L8.13147 10.546C8.12214 10.1913 8.10347 9.84133 8.07547 9.496C8.0568 9.14133 8.0428 8.866 8.03347 8.67C7.96814 8.866 7.87947 9.13667 7.76747 9.482C7.6648 9.82733 7.54814 10.1773 7.41747 10.532L6.50747 13.01ZM12.508 19.52L12.774 17.84H14.944C15.336 17.84 15.6533 17.742 15.896 17.546C16.1387 17.35 16.288 17.0793 16.344 16.734L16.386 16.44L16.652 14.97H16.162L16.736 14.48C16.624 15.1427 16.358 15.6607 15.938 16.034C15.518 16.398 14.9907 16.58 14.356 16.58C13.5813 16.58 13.0027 16.3093 12.62 15.768C12.2373 15.2267 12.1207 14.494 12.27 13.57L12.494 12.17C12.5873 11.554 12.774 11.022 13.054 10.574C13.3433 10.126 13.698 9.78067 14.118 9.538C14.5473 9.286 15.0187 9.16 15.532 9.16C16.1667 9.16 16.6333 9.34667 16.932 9.72C17.24 10.084 17.3427 10.5973 17.24 11.26L16.82 10.77H17.31L17.478 9.3H19.578L18.388 16.804C18.2573 17.644 17.8653 18.3067 17.212 18.792C16.5587 19.2773 15.7373 19.52 14.748 19.52H12.508ZM15.392 14.76C15.7747 14.76 16.092 14.6527 16.344 14.438C16.596 14.214 16.7547 13.9013 16.82 13.5L17.016 12.24C17.0813 11.8387 17.0207 11.5307 16.834 11.316C16.6567 11.092 16.3767 10.98 15.994 10.98C15.602 10.98 15.2847 11.092 15.042 11.316C14.7993 11.5307 14.6453 11.8387 14.58 12.24L14.384 13.5C14.3187 13.9013 14.37 14.214 14.538 14.438C14.7153 14.6527 15 14.76 15.392 14.76Z" fill="#888888"/>
</svg>
