<svg width="24" height="24" viewBox="0 0 24 24" fill="none" xmlns="http://www.w3.org/2000/svg">
<path d="M10.1653 17L9.87129 15.446H7.65929L7.36529 17H5.46129L7.35129 7.2H10.2493L12.0413 17H10.1653ZM8.73729 9.02L8.19129 12.282L7.88329 13.948H9.63329L9.31129 12.282L8.76529 9.02H8.73729ZM18.1362 9.846V16.258C18.1362 16.9673 18.0429 17.5367 17.8562 17.966C17.6789 18.3953 17.3195 18.7733 16.7782 19.1H13.5862V17.644H15.9802C16.2135 17.504 16.3302 17.28 16.3302 16.972V16.146C15.9849 16.4353 15.4342 16.58 14.6782 16.58H13.6562C12.9002 15.6747 12.5222 14.6247 12.5222 13.43C12.5222 12.5713 12.6435 11.8713 12.8862 11.33C13.1289 10.7793 13.4835 10.2847 13.9502 9.846H14.9862C15.5929 9.846 16.0735 10.042 16.4282 10.434L16.6802 9.846H18.1362ZM16.2742 11.316H14.9162C14.5802 11.8947 14.4122 12.562 14.4122 13.318C14.4122 14.0647 14.5569 14.6807 14.8462 15.166H16.2742V11.316Z" fill="#333333"/>
</svg>
