<svg width="24" height="24" viewBox="0 0 24 24" fill="none" xmlns="http://www.w3.org/2000/svg">
<path d="M10.0116 14H11.7243L10.1656 8.53067H8.23829L8.35029 8.90867L6.92696 14H8.29896L8.47629 13.1273H9.80163L10.0116 14ZM9.07829 10.136L9.57296 12.1753H8.66763L9.07829 10.136ZM13.7564 15.6473C15.0506 15.6473 15.6977 15.0407 15.6977 13.8273V10.71L15.9777 10.514V10.0753L15.1004 10.0333H14.3864L14.307 10.2527C14.0239 10.0816 13.6895 9.996 13.3037 9.996C13.0486 9.996 12.8199 10.0504 12.6177 10.1593C12.4155 10.2651 12.2506 10.4129 12.123 10.6027C11.9986 10.7893 11.9037 11.0071 11.8384 11.256C11.773 11.5018 11.7404 11.7709 11.7404 12.0633C11.7404 12.6887 11.8601 13.1771 12.0997 13.5287C12.3393 13.8802 12.7157 14.056 13.229 14.056C13.6086 14.056 13.9306 13.9191 14.195 13.6453V14.042C14.1919 14.1104 14.1857 14.1727 14.1764 14.2287C14.1701 14.2847 14.1515 14.3469 14.1204 14.4153C14.0893 14.4869 14.0488 14.546 13.999 14.5927C13.9493 14.6424 13.8777 14.6829 13.7844 14.714C13.6941 14.7482 13.5868 14.7653 13.4624 14.7653C13.3379 14.7653 13.1886 14.7404 13.0144 14.6907C12.8401 14.6409 12.7141 14.5864 12.6364 14.5273L12.3424 15.1667C12.4326 15.2662 12.6301 15.3704 12.935 15.4793C13.2399 15.5913 13.5137 15.6473 13.7564 15.6473ZM13.9057 13.2067C13.691 13.2067 13.537 13.0838 13.4437 12.838C13.3908 12.6949 13.3644 12.5238 13.3644 12.3247V11.6013C13.3675 10.9667 13.5759 10.6478 13.9897 10.6447C14.0519 10.6447 14.1204 10.6524 14.195 10.668V13.1273C14.0955 13.1802 13.999 13.2067 13.9057 13.2067Z" fill="#333333"/>
</svg>
