<svg width="24" height="24" viewBox="0 0 24 24" fill="none" xmlns="http://www.w3.org/2000/svg">
<path d="M10.6721 16.112C10.1495 16.112 9.7248 15.986 9.39813 15.734C9.07147 15.482 8.86147 15.1553 8.76813 14.754C8.6188 15.1087 8.32947 15.426 7.90013 15.706C7.48013 15.9767 6.9668 16.112 6.36013 16.112C5.3708 16.112 4.61013 15.748 4.07813 15.02C3.54613 14.2827 3.28013 13.3213 3.28013 12.136C3.28013 10.6707 3.6488 9.41067 4.38613 8.356C5.1328 7.292 6.09413 6.76 7.27013 6.76C8.05413 6.76 8.6748 7.00733 9.13213 7.502C9.5988 7.98733 9.83213 8.54267 9.83213 9.168C9.83213 9.896 9.5428 10.5493 8.96413 11.128H10.1681C10.1588 11.212 10.1215 11.534 10.0561 12.094C9.9908 12.6447 9.95813 13.0973 9.95813 13.452C9.95813 14.264 10.2521 14.67 10.8401 14.67C11.0735 14.67 11.2695 14.6187 11.4281 14.516C11.5868 14.404 11.7128 14.2267 11.8061 13.984C11.9088 13.7413 11.9835 13.5313 12.0301 13.354C12.0768 13.1673 12.1281 12.8967 12.1841 12.542L13.5281 12.962C13.4535 13.4007 13.3555 13.7927 13.2341 14.138C13.1128 14.474 12.9448 14.8007 12.7301 15.118C12.5155 15.4353 12.2355 15.6827 11.8901 15.86C11.5448 16.028 11.1388 16.112 10.6721 16.112ZM6.43013 14.67C7.05547 14.67 7.55947 14.3667 7.94213 13.76C8.33413 13.144 8.53013 12.4253 8.53013 11.604V11.492C8.0448 11.8373 7.53147 12.0567 6.99013 12.15L6.48613 10.806C6.99947 10.6753 7.4288 10.4747 7.77413 10.204C8.1288 9.93333 8.30613 9.61133 8.30613 9.238C8.30613 8.93 8.20813 8.68267 8.01213 8.496C7.82547 8.3 7.5688 8.202 7.24213 8.202C6.51413 8.202 5.92613 8.58 5.47813 9.336C5.03013 10.0827 4.80613 10.974 4.80613 12.01C4.80613 12.794 4.9508 13.4333 5.24013 13.928C5.5388 14.4227 5.93547 14.67 6.43013 14.67ZM14.5365 19.36C13.8458 19.36 13.2998 19.136 12.8985 18.688C12.4971 18.24 12.2871 17.7173 12.2685 17.12L13.5845 16.63C13.5845 16.9567 13.6918 17.2553 13.9065 17.526C14.1211 17.806 14.4011 17.946 14.7465 17.946C15.1945 17.946 15.5631 17.7127 15.8525 17.246C16.1418 16.7793 16.3051 16.1167 16.3425 15.258C16.1745 15.4727 15.9178 15.6687 15.5725 15.846C15.2271 16.0233 14.8538 16.112 14.4525 16.112C13.7618 16.112 13.1878 15.8647 12.7305 15.37C12.2731 14.8753 12.0445 14.2407 12.0445 13.466C12.0445 12.4487 12.3431 11.59 12.9405 10.89C13.5471 10.19 14.3125 9.84 15.2365 9.84C15.7591 9.84 16.2258 9.97067 16.6365 10.232C17.0471 10.4933 17.3271 10.8013 17.4765 11.156L16.3005 11.982C16.2165 11.8047 16.0811 11.646 15.8945 11.506C15.7171 11.3567 15.4885 11.282 15.2085 11.282C14.7885 11.282 14.4105 11.4687 14.0745 11.842C13.7385 12.206 13.5705 12.6633 13.5705 13.214C13.5705 13.6433 13.6685 13.9933 13.8645 14.264C14.0605 14.5347 14.3218 14.67 14.6485 14.67C15.0965 14.67 15.4558 14.4413 15.7265 13.984C15.9971 13.5267 16.1045 12.99 16.0485 12.374H17.5885C17.5885 12.4393 17.5885 12.7707 17.5885 13.368C17.5978 13.9653 17.6025 14.4647 17.6025 14.866C18.5638 14.7167 19.1565 13.942 19.3805 12.542L20.7245 12.962C20.5658 13.97 20.1925 14.7587 19.6045 15.328C19.0258 15.888 18.3258 16.1913 17.5045 16.238C17.3458 17.2367 17.0051 18.0067 16.4825 18.548C15.9691 19.0893 15.3205 19.36 14.5365 19.36Z" fill="#333333"/>
</svg>
