<svg width="24" height="24" viewBox="0 0 24 24" fill="none" xmlns="http://www.w3.org/2000/svg">
<path d="M2.5359 15.44H3.6139C4.30457 13.816 4.99057 12.2013 5.6719 10.596C6.36257 8.99067 7.04857 7.376 7.7299 5.752C8.41123 7.376 9.09257 8.99067 9.7739 10.596C10.4646 12.2013 11.1506 13.816 11.8319 15.44H12.9239V16H10.2219V15.44H11.2439C10.9826 14.8333 10.7259 14.2313 10.4739 13.634C10.2219 13.0273 9.96523 12.416 9.7039 11.8H5.7559C5.49457 12.416 5.2379 13.0273 4.9859 13.634C4.7339 14.2313 4.47723 14.8333 4.2159 15.44H5.2379V16H2.5359V15.44ZM7.8559 7.446L7.7299 7.054C7.71123 7.082 7.6879 7.152 7.6599 7.264C7.64123 7.32 7.6179 7.38067 7.5899 7.446C7.49657 7.68867 7.38457 7.964 7.2539 8.272C7.13257 8.57067 7.0019 8.888 6.8619 9.224C6.7219 9.55067 6.57723 9.88667 6.4279 10.232C6.2879 10.5773 6.1479 10.9133 6.0079 11.24H9.4519L7.8559 7.446ZM18.9372 10.75H20.4632V11.31H19.4132V16.49C19.4132 16.9473 19.3432 17.358 19.2032 17.722C19.0632 18.0953 18.8719 18.4127 18.6292 18.674C18.3866 18.9353 18.1019 19.136 17.7752 19.276C17.4579 19.416 17.1126 19.4907 16.7392 19.5C16.3472 19.4907 15.9506 19.416 15.5492 19.276C15.1572 19.136 14.8352 18.9307 14.5832 18.66L15.0032 18.226C15.2086 18.45 15.4699 18.618 15.7872 18.73C16.1046 18.842 16.4172 18.898 16.7252 18.898C17.0146 18.898 17.2852 18.8373 17.5372 18.716C17.7986 18.604 18.0226 18.4407 18.2092 18.226C18.3959 18.0113 18.5452 17.75 18.6572 17.442C18.7692 17.1433 18.8252 16.812 18.8252 16.448V15.44C18.8346 15.3373 18.8439 15.2347 18.8532 15.132C18.8626 15.02 18.8719 14.9127 18.8812 14.81C18.8066 14.978 18.6992 15.1413 18.5592 15.3C18.4286 15.4493 18.2652 15.5847 18.0692 15.706C17.8826 15.818 17.6679 15.9113 17.4252 15.986C17.1826 16.0607 16.9259 16.098 16.6552 16.098C16.2726 16.098 15.9132 16.028 15.5772 15.888C15.2412 15.7387 14.9472 15.5427 14.6952 15.3C14.4526 15.0573 14.2566 14.7727 14.1072 14.446C13.9672 14.11 13.8972 13.7507 13.8972 13.368C13.8972 12.9947 13.9672 12.6447 14.1072 12.318C14.2566 11.982 14.4526 11.6927 14.6952 11.45C14.9472 11.198 15.2412 11.002 15.5772 10.862C15.9132 10.7127 16.2726 10.638 16.6552 10.638C16.9259 10.638 17.1826 10.68 17.4252 10.764C17.6679 10.8387 17.8872 10.9413 18.0832 11.072C18.2792 11.1933 18.4426 11.338 18.5732 11.506C18.7132 11.6647 18.8159 11.8233 18.8812 11.982C18.8812 11.7767 18.8859 11.5713 18.8952 11.366C18.9139 11.1607 18.9279 10.9553 18.9372 10.75ZM14.4852 13.368C14.4852 13.6667 14.5412 13.9467 14.6532 14.208C14.7652 14.4693 14.9146 14.698 15.1012 14.894C15.2972 15.09 15.5259 15.244 15.7872 15.356C16.0579 15.468 16.3472 15.524 16.6552 15.524C16.9632 15.524 17.2479 15.468 17.5092 15.356C17.7706 15.244 17.9992 15.09 18.1952 14.894C18.3912 14.698 18.5452 14.4693 18.6572 14.208C18.7692 13.9467 18.8252 13.6667 18.8252 13.368C18.8252 13.0693 18.7692 12.7893 18.6572 12.528C18.5452 12.2573 18.3912 12.024 18.1952 11.828C17.9992 11.632 17.7706 11.478 17.5092 11.366C17.2479 11.254 16.9632 11.198 16.6552 11.198C16.3472 11.198 16.0579 11.254 15.7872 11.366C15.5259 11.478 15.2972 11.632 15.1012 11.828C14.9146 12.024 14.7652 12.2573 14.6532 12.528C14.5412 12.7893 14.4852 13.0693 14.4852 13.368Z" fill="#333333"/>
</svg>
