<svg width="24" height="24" viewBox="0 0 24 24" fill="none" xmlns="http://www.w3.org/2000/svg">
<path d="M2.6059 15.44H3.6839C4.59857 13.816 5.51323 12.2013 6.4279 10.596C7.34257 8.99067 8.25257 7.376 9.1579 5.752C9.62457 7.376 10.0819 8.99067 10.5299 10.596C10.9872 12.2013 11.4446 13.816 11.9019 15.44H12.9939L12.9239 16H10.2219L10.2919 15.44H11.3139C11.1366 14.8333 10.9639 14.2313 10.7959 13.634C10.6279 13.0273 10.4552 12.416 10.2779 11.8H6.3439C5.99857 12.416 5.6579 13.0273 5.3219 13.634C4.9859 14.2313 4.64057 14.8333 4.2859 15.44H5.3079L5.2379 16H2.5359L2.6059 15.44ZM9.0459 7.446L8.9759 7.054C8.96657 7.07267 8.9479 7.10067 8.9199 7.138C8.90123 7.17533 8.88257 7.21733 8.8639 7.264C8.8359 7.32 8.8079 7.38067 8.7799 7.446C8.64923 7.68867 8.4999 7.964 8.3319 8.272C8.17323 8.57067 7.9959 8.888 7.7999 9.224C7.61323 9.55067 7.4219 9.88667 7.2259 10.232C7.0299 10.5773 6.84323 10.9133 6.6659 11.24H10.1239L9.0459 7.446ZM20.1552 10.75H21.6812L21.5972 11.31H20.5472L19.8192 16.49C19.7539 16.9473 19.6232 17.358 19.4272 17.722C19.2406 18.0953 19.0072 18.4127 18.7272 18.674C18.4566 18.9353 18.1486 19.136 17.8032 19.276C17.4672 19.416 17.1126 19.4907 16.7392 19.5C16.3472 19.4907 15.9599 19.416 15.5772 19.276C15.2039 19.136 14.9099 18.9307 14.6952 18.66L15.1712 18.226C15.3486 18.45 15.5866 18.618 15.8852 18.73C16.1839 18.842 16.4919 18.898 16.8092 18.898C17.0986 18.898 17.3786 18.8373 17.6492 18.716C17.9199 18.604 18.1672 18.4407 18.3912 18.226C18.6152 18.0113 18.8019 17.75 18.9512 17.442C19.1006 17.1433 19.2032 16.812 19.2592 16.448L19.3852 15.44C19.4132 15.3373 19.4366 15.2347 19.4552 15.132C19.4832 15.02 19.5112 14.9127 19.5392 14.81C19.4366 14.978 19.3059 15.1413 19.1472 15.3C18.9886 15.4493 18.8019 15.5847 18.5872 15.706C18.3819 15.818 18.1532 15.9113 17.9012 15.986C17.6586 16.0607 17.4019 16.098 17.1312 16.098C16.7486 16.098 16.3986 16.028 16.0812 15.888C15.7639 15.7387 15.4979 15.5427 15.2832 15.3C15.0686 15.0573 14.9099 14.7727 14.8072 14.446C14.7139 14.11 14.6952 13.7507 14.7512 13.368C14.8072 12.9947 14.9286 12.6447 15.1152 12.318C15.3019 11.982 15.5352 11.6927 15.8152 11.45C16.1046 11.198 16.4266 11.002 16.7812 10.862C17.1359 10.7127 17.5046 10.638 17.8872 10.638C18.1579 10.638 18.4099 10.68 18.6432 10.764C18.8766 10.8387 19.0819 10.9413 19.2592 11.072C19.4366 11.1933 19.5812 11.338 19.6932 11.506C19.8146 11.6647 19.8939 11.8233 19.9312 11.982C19.9686 11.7767 20.0059 11.5713 20.0432 11.366C20.0806 11.1607 20.1179 10.9553 20.1552 10.75ZM15.3392 13.368C15.2926 13.6667 15.3066 13.9467 15.3812 14.208C15.4559 14.4693 15.5772 14.698 15.7452 14.894C15.9132 15.09 16.1186 15.244 16.3612 15.356C16.6132 15.468 16.8932 15.524 17.2012 15.524C17.5092 15.524 17.8032 15.468 18.0832 15.356C18.3632 15.244 18.6152 15.09 18.8392 14.894C19.0632 14.698 19.2452 14.4693 19.3852 14.208C19.5346 13.9467 19.6326 13.6667 19.6792 13.368C19.7166 13.0693 19.6979 12.7893 19.6232 12.528C19.5486 12.2573 19.4272 12.024 19.2592 11.828C19.0912 11.632 18.8812 11.478 18.6292 11.366C18.3866 11.254 18.1112 11.198 17.8032 11.198C17.4952 11.198 17.2012 11.254 16.9212 11.366C16.6506 11.478 16.4032 11.632 16.1792 11.828C15.9552 12.024 15.7686 12.2573 15.6192 12.528C15.4699 12.7893 15.3766 13.0693 15.3392 13.368Z" fill="#333333"/>
</svg>
