<svg width="24" height="24" viewBox="0 0 24 24" fill="none" xmlns="http://www.w3.org/2000/svg">
<path d="M4.11964 16H3.64364L9.04764 5.682H9.08964L11.9456 16H11.4276L8.80964 6.494L9.15964 6.34L4.11964 16ZM5.98164 12.066H10.6016L10.6576 12.514H5.84164L5.98164 12.066ZM16.3147 18.59C16.0254 18.59 15.7361 18.562 15.4467 18.506C15.1667 18.45 14.8821 18.3333 14.5927 18.156C14.3034 17.9787 14.0047 17.7127 13.6967 17.358L14.0047 17.064C14.2941 17.4 14.5741 17.6473 14.8447 17.806C15.1154 17.9647 15.3721 18.0673 15.6147 18.114C15.8667 18.1607 16.1094 18.184 16.3427 18.184C16.8747 18.184 17.3041 18.0953 17.6307 17.918C17.9667 17.7407 18.2141 17.5027 18.3727 17.204C18.5407 16.9053 18.6527 16.574 18.7087 16.21L18.9467 14.362L19.0587 14.46C18.8161 14.9547 18.4521 15.3513 17.9667 15.65C17.4907 15.9393 16.9727 16.084 16.4127 16.084C15.9087 16.084 15.4607 15.9673 15.0687 15.734C14.6767 15.5007 14.3641 15.188 14.1307 14.796C13.9067 14.3947 13.7947 13.942 13.7947 13.438C13.7947 13.1767 13.8461 12.878 13.9487 12.542C14.0607 12.206 14.2287 11.884 14.4527 11.576C14.6861 11.2587 14.9894 11.002 15.3627 10.806C15.7454 10.6007 16.2074 10.498 16.7487 10.498C17.3647 10.498 17.8967 10.6567 18.3447 10.974C18.8021 11.282 19.1054 11.6833 19.2547 12.178L19.1707 12.374L19.4927 10.624H19.8707L19.1707 16.266C19.1241 16.686 18.9934 17.0687 18.7787 17.414C18.5734 17.7687 18.2701 18.0533 17.8687 18.268C17.4674 18.4827 16.9494 18.59 16.3147 18.59ZM16.8187 10.876C16.3241 10.876 15.9134 10.9693 15.5867 11.156C15.2601 11.3333 14.9987 11.562 14.8027 11.842C14.6067 12.1127 14.4667 12.3927 14.3827 12.682C14.2987 12.9713 14.2567 13.2233 14.2567 13.438C14.2567 13.858 14.3547 14.2407 14.5507 14.586C14.7467 14.922 15.0127 15.1927 15.3487 15.398C15.6847 15.594 16.0767 15.692 16.5247 15.692C16.9261 15.692 17.3041 15.5987 17.6587 15.412C18.0227 15.2253 18.3261 14.9827 18.5687 14.684C18.8114 14.376 18.9654 14.0353 19.0307 13.662L19.1287 12.962C19.1007 12.57 18.9794 12.22 18.7647 11.912C18.5594 11.5947 18.2887 11.3427 17.9527 11.156C17.6167 10.9693 17.2387 10.876 16.8187 10.876Z" fill="#888888"/>
</svg>
