<svg width="24" height="24" viewBox="0 0 24 24" fill="none" xmlns="http://www.w3.org/2000/svg">
<path d="M2.73737 16L7.24537 5.388H7.34337L11.8514 16H9.97537L9.03737 13.606H5.32737L4.34737 16H2.73737ZM5.90137 12.206H8.49137L7.21737 9L5.90137 12.206ZM16.0584 18.954C15.573 18.954 15.1577 18.898 14.8124 18.786C14.467 18.674 14.159 18.5293 13.8884 18.352C13.627 18.1747 13.3797 17.9833 13.1464 17.778L14.0704 16.7C14.341 16.952 14.6257 17.162 14.9244 17.33C15.2324 17.498 15.601 17.582 16.0304 17.582C16.609 17.582 17.071 17.442 17.4164 17.162C17.7617 16.882 17.939 16.4947 17.9484 16V15.006C17.7617 15.3327 17.4677 15.608 17.0664 15.832C16.665 16.0467 16.1797 16.154 15.6104 16.154C15.069 16.154 14.5697 16.0187 14.1124 15.748C13.655 15.468 13.291 15.09 13.0204 14.614C12.7497 14.138 12.6144 13.6013 12.6144 13.004C12.6144 12.388 12.759 11.842 13.0484 11.366C13.3377 10.8807 13.7157 10.5027 14.1824 10.232C14.649 9.952 15.1484 9.812 15.6804 9.812C16.203 9.812 16.665 9.90533 17.0664 10.092C17.477 10.2693 17.7757 10.4933 17.9624 10.764L18.0744 10.078H19.5164V16.028C19.5164 16.5787 19.367 17.0733 19.0684 17.512C18.779 17.96 18.373 18.31 17.8504 18.562C17.3277 18.8233 16.7304 18.954 16.0584 18.954ZM14.1964 12.962C14.1964 13.3167 14.2757 13.6387 14.4344 13.928C14.6024 14.2173 14.8264 14.446 15.1064 14.614C15.3957 14.782 15.7177 14.866 16.0724 14.866C16.539 14.866 16.931 14.754 17.2484 14.53C17.575 14.2967 17.8084 13.9933 17.9484 13.62V12.332C17.827 11.9587 17.5937 11.66 17.2484 11.436C16.9124 11.212 16.5204 11.1 16.0724 11.1C15.5404 11.1 15.0924 11.2727 14.7284 11.618C14.3737 11.9633 14.1964 12.4113 14.1964 12.962Z" fill="#333333"/>
</svg>
