<svg width="24" height="24" viewBox="0 0 24 24" fill="none" xmlns="http://www.w3.org/2000/svg">
<path d="M4.11833 16L8.19233 5.724H8.22033L12.2943 16H11.9863L8.12233 6.186L8.30433 6.144L4.39833 16H4.11833ZM5.81233 12.066H10.6143L10.6423 12.318H5.78433L5.81233 12.066ZM16.6901 18.548C16.4568 18.548 16.2141 18.52 15.9621 18.464C15.7194 18.408 15.4581 18.3007 15.1781 18.142C14.9074 17.9927 14.6181 17.764 14.3101 17.456L14.4641 17.274C14.9214 17.722 15.3321 18.002 15.6961 18.114C16.0601 18.2353 16.3868 18.296 16.6761 18.296C17.3201 18.296 17.8194 18.1933 18.1741 17.988C18.5288 17.792 18.7761 17.526 18.9161 17.19C19.0654 16.8633 19.1494 16.4993 19.1681 16.098L19.1821 14.18L19.2661 14.264C19.0701 14.8053 18.7294 15.244 18.2441 15.58C17.7681 15.916 17.2361 16.084 16.6481 16.084C16.1441 16.084 15.6868 15.9627 15.2761 15.72C14.8654 15.4773 14.5341 15.1507 14.2821 14.74C14.0394 14.32 13.9181 13.8533 13.9181 13.34C13.9181 12.7987 14.0441 12.3227 14.2961 11.912C14.5481 11.492 14.8794 11.17 15.2901 10.946C15.7101 10.7127 16.1721 10.596 16.6761 10.596C17.2361 10.596 17.7448 10.7547 18.2021 11.072C18.6594 11.38 18.9908 11.7767 19.1961 12.262L19.1541 12.416L19.2381 10.708H19.4481V16.112C19.4481 16.5227 19.3688 16.91 19.2101 17.274C19.0514 17.6473 18.7714 17.9507 18.3701 18.184C17.9688 18.4267 17.4088 18.548 16.6901 18.548ZM14.1981 13.34C14.1981 13.8067 14.3054 14.2313 14.5201 14.614C14.7441 14.9873 15.0428 15.286 15.4161 15.51C15.7988 15.734 16.2188 15.846 16.6761 15.846C17.1334 15.846 17.5488 15.7387 17.9221 15.524C18.3048 15.3 18.6081 15.0107 18.8321 14.656C19.0561 14.3013 19.1728 13.9187 19.1821 13.508V12.906C19.1074 12.514 18.9488 12.164 18.7061 11.856C18.4728 11.5387 18.1788 11.2913 17.8241 11.114C17.4788 10.9273 17.0961 10.834 16.6761 10.834C16.2188 10.834 15.7988 10.9413 15.4161 11.156C15.0428 11.3613 14.7441 11.6553 14.5201 12.038C14.3054 12.4113 14.1981 12.8453 14.1981 13.34Z" fill="#888888"/>
</svg>
