<svg width="24" height="24" viewBox="0 0 24 24" fill="none" xmlns="http://www.w3.org/2000/svg">
<path d="M2.82755 17L7.29355 6.43H7.37755L11.8435 17H10.1355L6.88755 8.768L7.96555 8.054L4.29755 17H2.82755ZM5.54355 13.192H9.15555L9.67355 14.48H5.09555L5.54355 13.192ZM16.0639 19.912C15.6066 19.912 15.2099 19.8607 14.8739 19.758C14.5379 19.6553 14.2346 19.5107 13.9639 19.324C13.7026 19.1467 13.4506 18.9553 13.2079 18.75L14.0619 17.756C14.3512 18.0267 14.6499 18.2413 14.9579 18.4C15.2659 18.568 15.6252 18.652 16.0359 18.652C16.4466 18.652 16.7966 18.582 17.0859 18.442C17.3846 18.3113 17.6132 18.1247 17.7719 17.882C17.9306 17.6393 18.0099 17.35 18.0099 17.014L18.0239 15.488L18.1219 15.768C17.9632 16.1507 17.6692 16.4773 17.2399 16.748C16.8106 17.0093 16.2832 17.14 15.6579 17.14C15.1259 17.14 14.6312 17.0047 14.1739 16.734C13.7259 16.4633 13.3666 16.0947 13.0959 15.628C12.8252 15.1613 12.6899 14.634 12.6899 14.046C12.6899 13.43 12.8299 12.8887 13.1099 12.422C13.3992 11.946 13.7772 11.5727 14.2439 11.302C14.7106 11.022 15.2099 10.882 15.7419 10.882C16.2646 10.882 16.7312 10.9847 17.1419 11.19C17.5526 11.386 17.8606 11.6333 18.0659 11.932L17.9819 12.17L18.1359 11.134H19.4659V17.028C19.4659 17.5693 19.3212 18.0547 19.0319 18.484C18.7519 18.9227 18.3599 19.268 17.8559 19.52C17.3519 19.7813 16.7546 19.912 16.0639 19.912ZM14.1459 14.004C14.1459 14.368 14.2299 14.6993 14.3979 14.998C14.5659 15.2967 14.7946 15.5347 15.0839 15.712C15.3826 15.88 15.7139 15.964 16.0779 15.964C16.4046 15.964 16.6986 15.908 16.9599 15.796C17.2212 15.6747 17.4406 15.516 17.6179 15.32C17.8046 15.1147 17.9399 14.8767 18.0239 14.606V13.388C17.9399 13.1173 17.8046 12.8887 17.6179 12.702C17.4312 12.506 17.2072 12.352 16.9459 12.24C16.6846 12.128 16.3952 12.072 16.0779 12.072C15.7139 12.072 15.3826 12.156 15.0839 12.324C14.7946 12.4827 14.5659 12.7067 14.3979 12.996C14.2299 13.2853 14.1459 13.6213 14.1459 14.004Z" fill="#888888"/>
</svg>
