<svg width="24" height="24" viewBox="0 0 24 24" fill="none" xmlns="http://www.w3.org/2000/svg">
<path d="M9.58473 17L8.88473 15.74H6.21073L5.52473 17H2.02473L7.55473 6.5L13.0847 17H9.58473ZM7.55473 11.652L6.71473 13.528H8.39473L7.55473 11.652ZM13.5786 17.49H16.1966C16.2526 17.8447 16.3786 18.0733 16.5746 18.176C16.7799 18.2787 17.0226 18.33 17.3026 18.33C17.7226 18.33 18.0446 18.1993 18.2686 17.938C18.5019 17.6767 18.6186 17.3173 18.6186 16.86V15.824C18.3572 16.1693 18.0352 16.4307 17.6526 16.608C17.2792 16.776 16.8686 16.86 16.4206 16.86C15.9352 16.86 15.4639 16.748 15.0066 16.524C14.5492 16.2907 14.1712 15.936 13.8726 15.46C13.5832 14.984 13.4386 14.3773 13.4386 13.64C13.4386 12.8933 13.5832 12.2867 13.8726 11.82C14.1712 11.344 14.5492 10.994 15.0066 10.77C15.4639 10.5367 15.9352 10.42 16.4206 10.42C16.8686 10.42 17.2792 10.5087 17.6526 10.686C18.0352 10.854 18.3572 11.1107 18.6186 11.456V10.56H21.2086V16.86C21.2086 17.7373 21.0452 18.4373 20.7186 18.96C20.3919 19.4827 19.9439 19.856 19.3746 20.08C18.8146 20.3133 18.1706 20.43 17.4426 20.43C16.5372 20.43 15.8139 20.304 15.2726 20.052C14.7406 19.8093 14.3439 19.464 14.0826 19.016C13.8306 18.5773 13.6626 18.0687 13.5786 17.49ZM16.3226 13.64C16.3226 13.9947 16.4346 14.27 16.6586 14.466C16.8826 14.662 17.1532 14.76 17.4706 14.76C17.7506 14.76 18.0119 14.6713 18.2546 14.494C18.4972 14.3167 18.6186 14.032 18.6186 13.64C18.6186 13.248 18.4972 12.9633 18.2546 12.786C18.0119 12.6087 17.7506 12.52 17.4706 12.52C17.1532 12.52 16.8826 12.618 16.6586 12.814C16.4346 13.01 16.3226 13.2853 16.3226 13.64Z" fill="#333333"/>
</svg>
