<svg width="24" height="24" viewBox="0 0 24 24" fill="none" xmlns="http://www.w3.org/2000/svg">
<path d="M5.10648 13.71H10.1325L9.88048 12.982H5.35848L5.10648 13.71ZM7.59848 8.6L9.53048 13.276L9.60048 13.458L11.0565 17H11.9245L7.59848 6.822L3.27248 17H4.14048L5.61048 13.402L5.69448 13.234L7.59848 8.6ZM12.7469 17.42C12.7469 17.9707 12.8729 18.456 13.1249 18.876C13.3769 19.3053 13.7269 19.6367 14.1749 19.87C14.6322 20.1033 15.1549 20.22 15.7429 20.22C16.2842 20.22 16.7882 20.094 17.2549 19.842C17.7215 19.59 18.0995 19.212 18.3889 18.708C18.6782 18.2133 18.8229 17.5973 18.8229 16.86V10.56H18.0949V16.86C18.0949 17.476 17.9782 17.98 17.7449 18.372C17.5209 18.7733 17.2315 19.0673 16.8769 19.254C16.5222 19.4407 16.1442 19.534 15.7429 19.534C15.2949 19.534 14.8982 19.4407 14.5529 19.254C14.2169 19.0673 13.9555 18.8153 13.7689 18.498C13.5822 18.1807 13.4889 17.8213 13.4889 17.42H12.7469ZM12.5929 13.78C12.5929 14.4707 12.7329 15.068 13.0129 15.572C13.2929 16.076 13.6662 16.4633 14.1329 16.734C14.6089 17.0047 15.1315 17.14 15.7009 17.14C16.2609 17.14 16.7415 16.9953 17.1429 16.706C17.5442 16.4073 17.8569 16.006 18.0809 15.502C18.3142 14.9887 18.4309 14.4147 18.4309 13.78C18.4309 13.136 18.3142 12.562 18.0809 12.058C17.8569 11.554 17.5442 11.1573 17.1429 10.868C16.7415 10.5693 16.2609 10.42 15.7009 10.42C15.1315 10.42 14.6089 10.5553 14.1329 10.826C13.6662 11.0967 13.2929 11.484 13.0129 11.988C12.7329 12.4827 12.5929 13.08 12.5929 13.78ZM13.3349 13.78C13.3349 13.22 13.4422 12.7393 13.6569 12.338C13.8809 11.9367 14.1795 11.6333 14.5529 11.428C14.9355 11.2133 15.3509 11.106 15.7989 11.106C16.0975 11.106 16.3822 11.176 16.6529 11.316C16.9329 11.4467 17.1802 11.6333 17.3949 11.876C17.6189 12.1187 17.7915 12.3987 17.9129 12.716C18.0342 13.0333 18.0949 13.3787 18.0949 13.752C18.0949 14.2747 17.9875 14.7413 17.7729 15.152C17.5582 15.5533 17.2735 15.8707 16.9189 16.104C16.5735 16.3373 16.2002 16.454 15.7989 16.454C15.3509 16.454 14.9355 16.3513 14.5529 16.146C14.1795 15.9313 13.8809 15.6233 13.6569 15.222C13.4422 14.8207 13.3349 14.34 13.3349 13.78Z" fill="#888888"/>
</svg>
