<svg width="24" height="24" viewBox="0 0 24 24" fill="none" xmlns="http://www.w3.org/2000/svg">
<path d="M11.2267 17L9.98072 14.06H6.03272L4.78672 17H3.45672L8.00672 6.71L12.5567 17H11.2267ZM8.00672 9.412L6.50872 12.94H9.50472L8.00672 9.412ZM13.2449 17.42H14.3789C14.3789 17.728 14.4629 18.0127 14.6309 18.274C14.7989 18.5447 15.0369 18.7593 15.3449 18.918C15.6529 19.086 16.0169 19.17 16.4369 19.17C16.7636 19.17 17.0856 19.0907 17.4029 18.932C17.7202 18.7733 17.9816 18.5213 18.1869 18.176C18.4016 17.84 18.5089 17.4013 18.5089 16.86V15.894C18.2756 16.2953 17.9676 16.6033 17.5849 16.818C17.2116 17.0327 16.7869 17.14 16.3109 17.14C15.7322 17.14 15.2002 17.0047 14.7149 16.734C14.2296 16.4633 13.8422 16.076 13.5529 15.572C13.2636 15.068 13.1189 14.4707 13.1189 13.78C13.1189 13.08 13.2636 12.4827 13.5529 11.988C13.8422 11.484 14.2296 11.0967 14.7149 10.826C15.2002 10.5553 15.7322 10.42 16.3109 10.42C16.7869 10.42 17.2116 10.5273 17.5849 10.742C17.9676 10.9567 18.2756 11.2647 18.5089 11.666V10.56H19.6289V16.86C19.6289 17.5973 19.4749 18.2133 19.1669 18.708C18.8589 19.212 18.4622 19.59 17.9769 19.842C17.4916 20.094 16.9782 20.22 16.4369 20.22C15.8116 20.22 15.2562 20.1033 14.7709 19.87C14.2949 19.6367 13.9216 19.3053 13.6509 18.876C13.3802 18.456 13.2449 17.9707 13.2449 17.42ZM14.2529 13.78C14.2529 14.2747 14.3509 14.6947 14.5469 15.04C14.7522 15.3853 15.0229 15.6467 15.3589 15.824C15.6949 16.0013 16.0589 16.09 16.4509 16.09C16.7776 16.09 17.0996 16.0013 17.4169 15.824C17.7342 15.6467 17.9956 15.3853 18.2009 15.04C18.4062 14.6947 18.5089 14.2747 18.5089 13.78C18.5089 13.2853 18.4062 12.8653 18.2009 12.52C17.9956 12.1747 17.7342 11.9133 17.4169 11.736C17.0996 11.5587 16.7776 11.47 16.4509 11.47C16.0589 11.47 15.6949 11.5587 15.3589 11.736C15.0229 11.9133 14.7522 12.1747 14.5469 12.52C14.3509 12.8653 14.2529 13.2853 14.2529 13.78Z" fill="#333333"/>
</svg>
