<svg width="24" height="24" viewBox="0 0 24 24" fill="none" xmlns="http://www.w3.org/2000/svg">
<path d="M10.4929 17L9.84887 14.48H6.34887L4.83687 17H2.94687L9.41487 6.64L12.2849 17H10.4929ZM8.86887 9.972L7.04887 13.08H9.62487L8.86887 9.972ZM12.8161 17.434L14.2721 17.448C14.2628 17.8773 14.3794 18.2367 14.6221 18.526C14.8648 18.8153 15.2428 18.96 15.7561 18.96C16.1201 18.96 16.4561 18.8713 16.7641 18.694C17.0814 18.5167 17.3474 18.2693 17.5621 17.952C17.7768 17.6347 17.9121 17.2707 17.9681 16.86L18.1221 15.964C17.8421 16.3 17.5108 16.566 17.1281 16.762C16.7454 16.958 16.3254 17.056 15.8681 17.056C15.2801 17.056 14.7808 16.9067 14.3701 16.608C13.9594 16.3093 13.6608 15.9127 13.4741 15.418C13.2874 14.914 13.2361 14.3587 13.3201 13.752C13.4134 13.1173 13.6281 12.548 13.9641 12.044C14.3094 11.54 14.7388 11.1433 15.2521 10.854C15.7654 10.5553 16.3161 10.4107 16.9041 10.42C17.3988 10.42 17.8048 10.5413 18.1221 10.784C18.4488 11.0267 18.6961 11.344 18.8641 11.736L19.0601 10.56H20.5161L19.4521 16.86C19.3494 17.5507 19.1254 18.1527 18.7801 18.666C18.4348 19.1793 18.0008 19.576 17.4781 19.856C16.9554 20.136 16.3721 20.276 15.7281 20.276C14.7668 20.276 14.0248 20.01 13.5021 19.478C12.9888 18.9553 12.7601 18.274 12.8161 17.434ZM14.8601 13.752C14.7761 14.2933 14.8648 14.76 15.1261 15.152C15.3968 15.544 15.8028 15.74 16.3441 15.74C16.6428 15.74 16.9368 15.6653 17.2261 15.516C17.5248 15.3667 17.7814 15.1613 17.9961 14.9C18.2201 14.6387 18.3741 14.3353 18.4581 13.99L18.5281 13.64C18.5748 13.1267 18.4674 12.6833 18.2061 12.31C17.9541 11.9367 17.5948 11.7453 17.1281 11.736C16.7548 11.7267 16.4048 11.8107 16.0781 11.988C15.7608 12.1653 15.4948 12.408 15.2801 12.716C15.0654 13.024 14.9254 13.3693 14.8601 13.752Z" fill="#333333"/>
</svg>
