<svg width="24" height="24" viewBox="0 0 24 24" fill="none" xmlns="http://www.w3.org/2000/svg">
<path d="M11.4131 17L10.6571 13.444H6.37315L4.35715 17H3.83915L9.62115 6.892L11.9311 17H11.4131ZM9.45315 7.984L6.59715 13.024H10.5591L9.45315 7.984ZM12.766 17.42H13.186C13.1393 17.8493 13.1767 18.2413 13.298 18.596C13.4193 18.96 13.6293 19.2493 13.928 19.464C14.2267 19.6787 14.614 19.7907 15.09 19.8C15.594 19.8 16.056 19.674 16.476 19.422C16.9053 19.1793 17.26 18.834 17.54 18.386C17.8293 17.9473 18.016 17.4387 18.1 16.86L18.394 15.166C18.114 15.7167 17.7313 16.1833 17.246 16.566C16.77 16.9487 16.2193 17.14 15.594 17.14C14.9967 17.14 14.5067 16.986 14.124 16.678C13.7413 16.3607 13.4707 15.9453 13.312 15.432C13.1533 14.9187 13.1113 14.368 13.186 13.78C13.2793 13.1547 13.4893 12.59 13.816 12.086C14.152 11.5727 14.5673 11.1667 15.062 10.868C15.566 10.56 16.1167 10.4107 16.714 10.42C17.1433 10.42 17.5027 10.5227 17.792 10.728C18.0907 10.924 18.324 11.1853 18.492 11.512C18.6693 11.8387 18.7813 12.1933 18.828 12.576L19.178 10.56H19.612L18.534 16.86C18.4407 17.504 18.2353 18.078 17.918 18.582C17.6007 19.0953 17.1993 19.4967 16.714 19.786C16.2287 20.0753 15.6873 20.22 15.09 20.22C14.53 20.22 14.068 20.094 13.704 19.842C13.34 19.59 13.0787 19.2493 12.92 18.82C12.7613 18.4 12.71 17.9333 12.766 17.42ZM13.634 13.78C13.5593 14.2933 13.5873 14.774 13.718 15.222C13.8487 15.67 14.0773 16.034 14.404 16.314C14.74 16.5847 15.1693 16.72 15.692 16.72C16.1867 16.72 16.6393 16.5753 17.05 16.286C17.47 15.9967 17.82 15.6233 18.1 15.166C18.38 14.6993 18.5573 14.2187 18.632 13.724C18.6973 13.2853 18.6693 12.8467 18.548 12.408C18.4267 11.9693 18.212 11.6007 17.904 11.302C17.6053 11.0033 17.218 10.8493 16.742 10.84C16.2193 10.8307 15.7387 10.9613 15.3 11.232C14.8613 11.4933 14.4927 11.848 14.194 12.296C13.9047 12.744 13.718 13.2387 13.634 13.78Z" fill="#333333"/>
</svg>
