<svg width="24" height="24" viewBox="0 0 24 24" fill="none" xmlns="http://www.w3.org/2000/svg">
<path d="M9.1136 17L8.6096 15.432H5.8096L4.7736 17H1.6656L8.6796 6.5L12.0816 17H9.1136ZM7.8816 11.232L6.6076 13.416H8.4556L7.8816 11.232ZM12.4789 17.476H14.7469C14.7749 17.812 14.8682 18.064 15.0269 18.232C15.1855 18.4 15.4375 18.484 15.7829 18.484C16.2402 18.4933 16.6275 18.3393 16.9449 18.022C17.2622 17.714 17.4535 17.3267 17.5189 16.86L17.6729 15.95C17.3929 16.2487 17.0662 16.4867 16.6929 16.664C16.3195 16.832 15.9135 16.916 15.4749 16.916C14.9242 16.916 14.4482 16.776 14.0469 16.496C13.6549 16.2067 13.3655 15.8193 13.1789 15.334C12.9922 14.8393 12.9362 14.284 13.0109 13.668C13.0949 13.024 13.3002 12.4593 13.6269 11.974C13.9629 11.4793 14.3782 11.0967 14.8729 10.826C15.3675 10.5553 15.8902 10.42 16.4409 10.42C16.9169 10.42 17.3229 10.5273 17.6589 10.742C17.9949 10.9567 18.2515 11.246 18.4289 11.61L18.6109 10.56H20.9069L19.8149 16.86C19.6375 18.008 19.1849 18.8807 18.4569 19.478C17.7289 20.0847 16.8235 20.388 15.7409 20.388C14.6209 20.388 13.7995 20.1267 13.2769 19.604C12.7542 19.0813 12.4882 18.372 12.4789 17.476ZM15.5169 13.682C15.4609 14.0553 15.5262 14.368 15.7129 14.62C15.8995 14.8627 16.1749 14.9933 16.5389 15.012C16.8655 15.0213 17.1735 14.914 17.4629 14.69C17.7615 14.466 17.9575 14.1767 18.0509 13.822L18.0929 13.57C18.1302 13.2153 18.0555 12.9213 17.8689 12.688C17.6915 12.4453 17.4395 12.324 17.1129 12.324C16.7115 12.324 16.3569 12.4547 16.0489 12.716C15.7502 12.9773 15.5729 13.2993 15.5169 13.682Z" fill="#333333"/>
</svg>
