<svg width="24" height="24" viewBox="0 0 24 24" fill="none" xmlns="http://www.w3.org/2000/svg">
<path d="M10.0258 17H12.2938L7.32384 6.626L2.35384 17H4.60784L5.62984 14.774H9.00384L10.0258 17ZM7.32384 10.378L8.54184 13.192H6.10584L7.32384 10.378ZM12.881 17.448C12.993 19.142 14.113 20.304 16.367 20.304C18.215 20.304 19.797 19.268 19.797 16.86V10.56H18.047V11.568C17.557 10.826 16.787 10.42 15.849 10.42C14.225 10.42 12.755 11.568 12.755 13.724C12.755 15.866 14.225 17.014 15.849 17.014C16.787 17.014 17.557 16.608 18.047 15.866V16.86C18.047 18.19 17.221 18.806 16.311 18.806C15.345 18.806 14.701 18.288 14.659 17.448H12.881ZM14.631 13.724C14.631 12.562 15.429 11.918 16.381 11.918C17.179 11.918 18.047 12.534 18.047 13.724C18.047 14.9 17.179 15.516 16.381 15.516C15.429 15.516 14.631 14.872 14.631 13.724Z" fill="#333333"/>
</svg>
