<svg width="24" height="24" viewBox="0 0 24 24" fill="none" xmlns="http://www.w3.org/2000/svg">
<path d="M10.3773 17L9.66332 14.06H5.86932L4.14732 17H2.80332L9.00532 6.696L11.6653 17H10.3773ZM8.58532 9.412L6.52732 12.94H9.41132L8.58532 9.412ZM12.2484 17.42H13.3404C13.3031 17.896 13.4291 18.302 13.7184 18.638C14.0077 18.974 14.4417 19.1467 15.0204 19.156C15.4031 19.156 15.7671 19.0627 16.1124 18.876C16.4577 18.6893 16.7471 18.4187 16.9804 18.064C17.2231 17.7187 17.3771 17.3173 17.4424 16.86L17.5964 15.992C17.3164 16.3373 16.9851 16.6173 16.6024 16.832C16.2197 17.0373 15.7951 17.14 15.3284 17.14C14.7217 17.14 14.2084 16.986 13.7884 16.678C13.3777 16.37 13.0791 15.964 12.8924 15.46C12.7057 14.9467 12.6544 14.3867 12.7384 13.78C12.8317 13.1453 13.0511 12.576 13.3964 12.072C13.7511 11.5587 14.1851 11.1573 14.6984 10.868C15.2211 10.5693 15.7857 10.42 16.3924 10.42C16.8964 10.42 17.3024 10.546 17.6104 10.798C17.9277 11.0407 18.1611 11.3627 18.3104 11.764L18.5204 10.56H19.6404L18.5624 16.86C18.4691 17.5133 18.2544 18.092 17.9184 18.596C17.5917 19.1093 17.1764 19.506 16.6724 19.786C16.1777 20.0753 15.6224 20.22 15.0064 20.22C14.4091 20.22 13.8911 20.0987 13.4524 19.856C13.0231 19.6133 12.7011 19.282 12.4864 18.862C12.2717 18.442 12.1924 17.9613 12.2484 17.42ZM13.8584 13.78C13.7931 14.2 13.8164 14.5827 13.9284 14.928C14.0497 15.2733 14.2457 15.5533 14.5164 15.768C14.7964 15.9733 15.1417 16.076 15.5524 16.076C15.8884 16.076 16.2151 15.992 16.5324 15.824C16.8497 15.656 17.1297 15.4273 17.3724 15.138C17.6151 14.8393 17.7924 14.508 17.9044 14.144L18.0164 13.542C18.0351 13.1687 17.9791 12.828 17.8484 12.52C17.7271 12.212 17.5404 11.9647 17.2884 11.778C17.0457 11.5913 16.7564 11.4933 16.4204 11.484C16.0004 11.4747 15.6084 11.5727 15.2444 11.778C14.8804 11.974 14.5771 12.2493 14.3344 12.604C14.0917 12.9493 13.9331 13.3413 13.8584 13.78Z" fill="#333333"/>
</svg>
