<svg width="24" height="24" viewBox="0 0 24 24" fill="none" xmlns="http://www.w3.org/2000/svg">
<path d="M12.0376 17H12.2056L8.21563 6.99L4.22563 17H4.39363L5.90563 13.192H10.5396L12.0376 17ZM8.21563 7.368L10.4976 13.052H5.94763L8.21563 7.368ZM13.2502 17.42C13.2502 19.086 14.3282 20.22 15.9382 20.22C17.5482 20.22 18.8642 19.086 18.8642 16.86V10.56H18.7242V13.038C18.4582 11.638 17.4782 10.42 16.0222 10.42C14.3422 10.42 13.0402 11.722 13.0402 13.78C13.0402 15.838 14.3422 17.14 16.0222 17.14C17.4782 17.14 18.4582 15.922 18.7242 14.522V16.86C18.7242 19.03 17.4362 20.08 15.9382 20.08C14.4402 20.08 13.3902 19.044 13.3902 17.42H13.2502ZM13.1802 13.78C13.1802 11.806 14.4402 10.56 16.0642 10.56C17.6042 10.56 18.7242 12.226 18.7242 13.71C18.7242 15.404 17.6042 17 16.0642 17C14.4402 17 13.1802 15.754 13.1802 13.78Z" fill="#888888"/>
</svg>
