<svg width="24" height="24" viewBox="0 0 24 24" fill="none" xmlns="http://www.w3.org/2000/svg">
<path d="M9.10677 17H12.0608L8.67277 6.514L1.65877 17H4.75277L5.80277 15.418H8.60277L9.10677 17ZM7.87477 11.218L8.44877 13.416H6.60077L7.87477 11.218ZM12.472 17.476C12.5 19.268 13.508 20.388 15.734 20.388C17.876 20.374 19.458 19.156 19.808 16.86L20.886 10.56H18.604L18.422 11.61C18.058 10.882 17.4 10.42 16.434 10.42C14.768 10.42 13.256 11.736 13.004 13.668C12.78 15.516 13.816 16.916 15.482 16.916C16.35 16.916 17.106 16.552 17.666 15.95L17.512 16.86C17.372 17.798 16.686 18.498 15.776 18.484C15.09 18.484 14.782 18.148 14.726 17.49L12.472 17.476ZM15.496 13.682C15.622 12.912 16.294 12.324 17.092 12.324C17.736 12.324 18.142 12.842 18.086 13.542L18.03 13.836C17.848 14.536 17.162 15.026 16.518 15.012C15.79 14.984 15.384 14.424 15.496 13.682Z" fill="#333333"/>
</svg>
