<svg width="24" height="24" viewBox="0 0 24 24" fill="none" xmlns="http://www.w3.org/2000/svg">
<path d="M9.40202 17H11.978L8.74402 6.556L1.92602 17H4.61402L5.83202 15.11H8.85602L9.40202 17ZM8.04402 10.798L8.67402 13.304H6.58802L8.04402 10.798ZM12.4108 17.462C12.3968 19.212 13.4328 20.346 15.5608 20.346C17.6328 20.332 19.1728 19.086 19.5228 16.86L20.6008 10.56H18.5848L18.3888 11.652C18.0528 10.91 17.3948 10.42 16.4288 10.42C14.7208 10.42 13.1948 11.764 12.9428 13.682C12.7048 15.544 13.7408 16.972 15.4348 16.958C16.3168 16.958 17.0868 16.58 17.6468 15.964L17.4928 16.86C17.3388 17.896 16.5548 18.652 15.5888 18.638C14.8048 18.638 14.4268 18.204 14.4128 17.476L12.4108 17.462ZM15.1128 13.696C15.2528 12.814 16.0228 12.114 16.9328 12.128C17.6748 12.142 18.1228 12.758 18.0668 13.57L18.0108 13.878C17.7868 14.69 17.0308 15.278 16.2888 15.25C15.4488 15.236 14.9868 14.564 15.1128 13.696Z" fill="#888888"/>
</svg>
