<svg width="24" height="24" viewBox="0 0 24 24" fill="none" xmlns="http://www.w3.org/2000/svg">
<path d="M5.58603 14.48H10.626L10.556 13.08H6.10403L5.58603 14.48ZM8.86203 9.972L9.74403 13.612L9.71603 14.018L10.486 17H12.278L9.40803 6.626L2.94003 17H4.83003L6.67803 13.934L6.76203 13.57L8.86203 9.972ZM12.8093 17.434C12.7719 17.994 12.8606 18.484 13.0753 18.904C13.2993 19.3333 13.6353 19.6647 14.0833 19.898C14.5313 20.1407 15.0773 20.262 15.7213 20.262C16.3746 20.262 16.9579 20.122 17.4713 19.842C17.9939 19.562 18.4279 19.1653 18.7733 18.652C19.1186 18.1387 19.3426 17.5413 19.4453 16.86L20.5233 10.56H19.0533L17.9613 16.86C17.9053 17.2707 17.7699 17.6347 17.5553 17.952C17.3406 18.2693 17.0746 18.512 16.7573 18.68C16.4399 18.8573 16.1039 18.946 15.7493 18.946C15.4039 18.946 15.1193 18.8807 14.8953 18.75C14.6713 18.6193 14.5079 18.4373 14.4053 18.204C14.3119 17.98 14.2699 17.7233 14.2793 17.434H12.8093ZM13.3133 13.738C13.2386 14.354 13.2946 14.914 13.4813 15.418C13.6679 15.922 13.9666 16.3233 14.3773 16.622C14.7879 16.9113 15.2873 17.056 15.8753 17.056C16.3046 17.056 16.6966 16.972 17.0513 16.804C17.4153 16.636 17.7326 16.4027 18.0033 16.104C18.2833 15.796 18.5119 15.4413 18.6893 15.04C18.8666 14.6387 18.9879 14.2093 19.0533 13.752C19.1093 13.304 19.1093 12.884 19.0533 12.492C18.9973 12.1 18.8806 11.75 18.7033 11.442C18.5259 11.1247 18.2879 10.8773 17.9893 10.7C17.6906 10.5133 17.3266 10.42 16.8973 10.42C16.3093 10.4107 15.7586 10.5553 15.2453 10.854C14.7413 11.1433 14.3166 11.54 13.9713 12.044C13.6259 12.5387 13.4066 13.1033 13.3133 13.738ZM14.8533 13.752C14.9186 13.3693 15.0586 13.024 15.2733 12.716C15.4973 12.3987 15.7679 12.156 16.0853 11.988C16.4119 11.8107 16.7573 11.7267 17.1213 11.736C17.3639 11.736 17.5786 11.792 17.7653 11.904C17.9613 12.0067 18.1199 12.1513 18.2413 12.338C18.3626 12.5247 18.4466 12.7393 18.4933 12.982C18.5493 13.2153 18.5539 13.4673 18.5073 13.738C18.4606 14.018 18.3673 14.284 18.2273 14.536C18.0966 14.7787 17.9286 14.9933 17.7233 15.18C17.5273 15.3573 17.3079 15.4973 17.0653 15.6C16.8319 15.7027 16.5939 15.7493 16.3513 15.74C15.9873 15.74 15.6839 15.6513 15.4413 15.474C15.1986 15.2873 15.0259 15.0447 14.9233 14.746C14.8299 14.438 14.8066 14.1067 14.8533 13.752Z" fill="#888888"/>
</svg>
