<svg width="24" height="24" viewBox="0 0 24 24" fill="none" xmlns="http://www.w3.org/2000/svg">
<path d="M4.80319 15.11H9.87119L10.0252 13.304H5.26519L4.80319 15.11ZM8.03719 10.798L8.84919 13.976L8.69519 14.564L9.40919 17H11.9712L8.75119 6.542L1.91919 17H4.60719L6.21719 14.494L6.20319 13.962L8.03719 10.798ZM12.4317 17.448C12.4223 18.036 12.5297 18.5447 12.7537 18.974C12.987 19.4127 13.337 19.7487 13.8037 19.982C14.2703 20.2153 14.8583 20.332 15.5677 20.332C16.2677 20.332 16.893 20.1967 17.4437 19.926C18.0037 19.6553 18.461 19.2587 18.8157 18.736C19.1797 18.2227 19.4177 17.5973 19.5297 16.86L20.6077 10.56H18.5917L17.4997 16.846C17.453 17.2007 17.341 17.5133 17.1637 17.784C16.9863 18.0547 16.7623 18.2647 16.4917 18.414C16.2303 18.5633 15.9363 18.638 15.6097 18.638C15.3483 18.638 15.129 18.5867 14.9517 18.484C14.7743 18.3907 14.6437 18.2553 14.5597 18.078C14.4757 17.91 14.429 17.7047 14.4197 17.462L12.4317 17.448ZM12.9497 13.682C12.875 14.298 12.931 14.8533 13.1177 15.348C13.3043 15.8427 13.5983 16.2347 13.9997 16.524C14.401 16.8133 14.8863 16.958 15.4557 16.958C15.8757 16.958 16.2677 16.8787 16.6317 16.72C17.005 16.552 17.327 16.3187 17.5977 16.02C17.8777 15.7213 18.1063 15.376 18.2837 14.984C18.4703 14.5827 18.5917 14.1533 18.6477 13.696C18.7037 13.248 18.699 12.828 18.6337 12.436C18.5777 12.044 18.4563 11.6987 18.2697 11.4C18.083 11.1013 17.8357 10.8633 17.5277 10.686C17.229 10.5087 16.865 10.42 16.4357 10.42C15.8663 10.42 15.3297 10.56 14.8257 10.84C14.331 11.1107 13.9157 11.4933 13.5797 11.988C13.253 12.4827 13.043 13.0473 12.9497 13.682ZM15.1197 13.696C15.1757 13.3973 15.2877 13.1313 15.4557 12.898C15.633 12.6553 15.8477 12.464 16.0997 12.324C16.361 12.184 16.6457 12.1187 16.9537 12.128C17.1403 12.128 17.3083 12.17 17.4577 12.254C17.6163 12.3287 17.7423 12.4407 17.8357 12.59C17.9383 12.73 18.0083 12.8933 18.0457 13.08C18.083 13.2573 18.0877 13.458 18.0597 13.682C18.0223 13.906 17.9477 14.116 17.8357 14.312C17.7237 14.508 17.5837 14.676 17.4157 14.816C17.257 14.956 17.0797 15.068 16.8837 15.152C16.697 15.2267 16.5057 15.2593 16.3097 15.25C16.0203 15.2407 15.7777 15.1707 15.5817 15.04C15.395 14.9 15.2597 14.7133 15.1757 14.48C15.101 14.2467 15.0823 13.9853 15.1197 13.696Z" fill="#888888"/>
</svg>
