<svg width="24" height="24" viewBox="0 0 24 24" fill="none" xmlns="http://www.w3.org/2000/svg">
<path d="M10.8214 17L9.70143 14.48H6.08943L4.96943 17H3.10743L7.89543 6.654L12.6834 17H10.8214ZM7.89543 9.972L6.56543 13.08H9.22543L7.89543 9.972ZM13.3334 17.434H14.8454C14.8641 17.8633 15.0321 18.2227 15.3494 18.512C15.6761 18.8107 16.1101 18.96 16.6514 18.96C16.9688 18.96 17.2721 18.8853 17.5614 18.736C17.8508 18.5867 18.0841 18.358 18.2614 18.05C18.4481 17.742 18.5414 17.3453 18.5414 16.86V15.894C18.0374 16.678 17.3048 17.07 16.3434 17.07C15.7834 17.07 15.2654 16.9393 14.7894 16.678C14.3134 16.4167 13.9308 16.0387 13.6414 15.544C13.3521 15.0493 13.2074 14.452 13.2074 13.752C13.2074 13.0427 13.3521 12.4407 13.6414 11.946C13.9308 11.4513 14.3134 11.0733 14.7894 10.812C15.2654 10.5507 15.7834 10.42 16.3434 10.42C17.3048 10.42 18.0374 10.8167 18.5414 11.61V10.56H20.0254V16.86C20.0254 17.6347 19.8668 18.274 19.5494 18.778C19.2414 19.2913 18.8354 19.6693 18.3314 19.912C17.8274 20.1547 17.2814 20.276 16.6934 20.276C15.6481 20.276 14.8314 20.01 14.2434 19.478C13.6648 18.9553 13.3614 18.274 13.3334 17.434ZM14.7754 13.752C14.7754 14.396 14.9668 14.8907 15.3494 15.236C15.7321 15.5813 16.1848 15.754 16.7074 15.754C16.9968 15.754 17.2814 15.6793 17.5614 15.53C17.8414 15.3807 18.0748 15.1567 18.2614 14.858C18.4481 14.5593 18.5414 14.1907 18.5414 13.752C18.5414 13.3133 18.4481 12.9447 18.2614 12.646C18.0748 12.3473 17.8414 12.1233 17.5614 11.974C17.2814 11.8153 16.9968 11.736 16.7074 11.736C16.1848 11.736 15.7321 11.9133 15.3494 12.268C14.9668 12.6133 14.7754 13.108 14.7754 13.752Z" fill="#333333"/>
</svg>
