<svg width="24" height="24" viewBox="0 0 24 24" fill="none" xmlns="http://www.w3.org/2000/svg">
<path d="M11.0258 17H13.2938L8.32384 6.626L3.35384 17H5.60784L6.62984 14.774H10.0038L11.0258 17ZM8.32384 10.378L9.54184 13.192H7.10584L8.32384 10.378ZM13.881 17.448C13.993 19.142 15.113 20.304 17.367 20.304C19.215 20.304 20.797 19.268 20.797 16.86V10.56H19.047V11.568C18.557 10.826 17.787 10.42 16.849 10.42C15.225 10.42 13.755 11.568 13.755 13.724C13.755 15.866 15.225 17.014 16.849 17.014C17.787 17.014 18.557 16.608 19.047 15.866V16.86C19.047 18.19 18.221 18.806 17.311 18.806C16.345 18.806 15.701 18.288 15.659 17.448H13.881ZM15.631 13.724C15.631 12.562 16.429 11.918 17.381 11.918C18.179 11.918 19.047 12.534 19.047 13.724C19.047 14.9 18.179 15.516 17.381 15.516C16.429 15.516 15.631 14.872 15.631 13.724Z" fill="#888888"/>
</svg>
