<svg width="24" height="24" viewBox="0 0 24 24" fill="none" xmlns="http://www.w3.org/2000/svg">
<path d="M10.486 17H12.278L9.39403 6.626L2.94003 17H4.83003L6.34203 14.48H9.82803L10.486 17ZM8.86203 9.972L9.61803 13.094H7.04203L8.86203 9.972ZM12.8093 17.434C12.6973 19.114 13.7893 20.276 15.7213 20.262C17.6673 20.262 19.1233 18.932 19.4453 16.86L20.5233 10.56H19.0393L18.8433 11.722C18.5213 10.952 17.8913 10.42 16.8973 10.42C15.1193 10.406 13.5793 11.834 13.3133 13.738C13.0753 15.572 14.0973 17.07 15.8613 17.07C16.7713 17.056 17.5553 16.636 18.1153 15.964L17.9613 16.86C17.7793 18.106 16.8133 18.96 15.7493 18.946C14.7273 18.946 14.2373 18.302 14.2653 17.448L12.8093 17.434ZM14.8673 13.752C15.0493 12.604 16.0153 11.722 17.1213 11.736C18.0593 11.764 18.6053 12.59 18.5213 13.612L18.4513 13.976C18.1853 14.998 17.2613 15.754 16.3513 15.754C15.2593 15.74 14.6993 14.844 14.8673 13.752Z" fill="#888888"/>
</svg>
