<svg width="24" height="24" viewBox="0 0 24 24" fill="none" xmlns="http://www.w3.org/2000/svg">
<path d="M11.4271 17H11.9171L9.62115 6.906L3.83915 17H4.35715L6.35915 13.444H10.6571L11.4271 17ZM9.45315 7.97L10.5731 13.024H6.59715L9.45315 7.97ZM12.766 17.42C12.598 18.96 13.396 20.206 15.076 20.206C16.868 20.22 18.24 18.806 18.534 16.86L19.612 10.56H19.178L18.828 12.59C18.674 11.442 18.016 10.434 16.714 10.42C14.922 10.406 13.466 11.918 13.186 13.78C12.948 15.544 13.816 17.14 15.594 17.126C16.854 17.126 17.834 16.258 18.394 15.152L18.1 16.86C17.848 18.582 16.602 19.814 15.09 19.8C13.648 19.786 13.046 18.722 13.186 17.42H12.766ZM13.62 13.78C13.872 12.142 15.174 10.798 16.742 10.84C18.17 10.868 18.828 12.422 18.632 13.724C18.632 13.752 18.632 13.78 18.632 13.794L18.618 13.808C18.366 15.292 17.148 16.72 15.706 16.72C14.124 16.734 13.396 15.334 13.62 13.78Z" fill="#888888"/>
</svg>
