<svg width="24" height="24" viewBox="0 0 24 24" fill="none" xmlns="http://www.w3.org/2000/svg">
<path d="M12.6093 5.86139L13.4084 5.85385C13.4988 5.85385 13.5466 5.85636 13.5516 5.86139C13.5767 5.87646 13.5918 5.93426 13.5968 6.03477C13.5968 6.09005 13.5968 6.21067 13.5968 6.39662C13.5818 7.59774 13.5215 8.73857 13.4159 9.81908C13.0139 13.7994 11.8328 16.9781 9.87285 19.3552C9.83767 19.4005 9.79997 19.4432 9.75977 19.4834C9.72962 19.5035 9.63413 19.5035 9.47331 19.4834C9.4331 19.4633 9.42305 19.4356 9.44315 19.4005C9.44315 19.3954 9.4909 19.3201 9.58638 19.1743C10.0839 18.4305 10.5111 17.639 10.8679 16.7997C11.7926 14.6487 12.3379 11.9726 12.5038 8.77123C12.5138 8.59031 12.5214 8.40687 12.5264 8.22092C12.5565 7.60277 12.5716 6.92933 12.5716 6.20062C12.5716 5.98954 12.5842 5.87646 12.6093 5.86139Z" fill="#888888"/>
</svg>
