<svg width="24" height="24" viewBox="0 0 24 24" fill="none" xmlns="http://www.w3.org/2000/svg">
<path d="M10.8201 6.99L11.1421 6.976H11.1561C11.4081 6.976 11.5434 7.004 11.5621 7.06C11.5714 7.09733 11.6974 8.60933 11.9401 11.596C12.1734 14.6013 12.2994 16.1133 12.3181 16.132C12.3274 16.1413 12.3601 16.1553 12.4161 16.174C12.5281 16.202 12.7987 16.216 13.2281 16.216H13.5081L13.5641 16.258C13.5921 16.3047 13.6061 16.3373 13.6061 16.356L13.4801 16.916C13.4521 16.972 13.3494 16.9953 13.1721 16.986C13.1347 16.986 13.0647 16.986 12.9621 16.986C11.6087 16.9487 10.5027 16.9533 9.64406 17H9.47606L9.43406 16.958C9.39673 16.9207 9.37806 16.8833 9.37806 16.846C9.37806 16.6967 9.42473 16.5147 9.51806 16.3C9.53673 16.244 9.67206 16.216 9.92406 16.216C10.1481 16.1973 10.2974 16.188 10.3721 16.188C10.5867 16.1507 10.7034 16.1133 10.7221 16.076C10.7314 16.0667 10.7127 15.7587 10.6661 15.152C10.6194 14.6107 10.5961 14.3027 10.5961 14.228C10.5961 14.2093 10.0641 14.2 9.00006 14.2H7.39006L6.97006 14.942C6.6714 15.446 6.5174 15.7213 6.50806 15.768C6.47073 15.8613 6.48473 15.9407 6.55006 16.006C6.6434 16.118 6.84406 16.188 7.15206 16.216C7.28273 16.216 7.36673 16.2487 7.40406 16.314L7.41806 16.356L7.34806 16.636C7.31073 16.8133 7.2734 16.9207 7.23606 16.958L7.19406 17H7.02606C6.2514 16.9627 5.51873 16.9533 4.82806 16.972C4.35206 16.9907 4.1094 17 4.10006 17H4.00206L3.96006 16.958C3.92273 16.9207 3.90406 16.888 3.90406 16.86L4.03006 16.3C4.0674 16.244 4.17473 16.216 4.35206 16.216C5.0054 16.188 5.45806 16.0013 5.71006 15.656L8.24406 11.316C9.86806 8.50667 10.6987 7.08333 10.7361 7.046C10.7454 7.03667 10.7734 7.018 10.8201 6.99ZM10.3721 11.4C10.2694 10.0653 10.2181 9.38867 10.2181 9.37C10.2181 9.33267 10.0127 9.67333 9.60206 10.392L8.42606 12.422L7.85206 13.402L9.18206 13.416H10.5261C10.5261 13.4253 10.4747 12.7533 10.3721 11.4ZM17.9601 10.84C18.2774 10.7933 18.5434 10.8073 18.7581 10.882C19.0101 10.9567 19.2434 11.1153 19.4581 11.358L19.5141 11.414L19.6121 11.33C19.8361 11.106 20.0927 11.0407 20.3821 11.134C20.5221 11.1807 20.6154 11.2693 20.6621 11.4C20.6901 11.5027 20.6667 11.722 20.5921 12.058C20.5174 12.394 20.2887 13.3273 19.9061 14.858C19.3461 17.042 19.0661 18.1293 19.0661 18.12C18.9634 18.4093 18.8094 18.6613 18.6041 18.876C18.3521 19.128 18.0721 19.3287 17.7641 19.478C17.4561 19.618 17.2087 19.7067 17.0221 19.744C16.6767 19.8373 16.2987 19.8793 15.8881 19.87C15.3094 19.8607 14.8707 19.786 14.5721 19.646C14.3201 19.534 14.1521 19.3847 14.0681 19.198C13.9934 19.0673 13.9701 18.9133 13.9981 18.736C14.0634 18.372 14.2501 18.1153 14.5581 17.966C14.8381 17.826 15.0994 17.8213 15.3421 17.952C15.4541 18.008 15.5287 18.0827 15.5661 18.176C15.6967 18.428 15.6641 18.7033 15.4681 19.002C15.4401 19.0393 15.4121 19.0767 15.3841 19.114L15.3281 19.184H15.3981L15.8741 19.212C16.2194 19.212 16.4807 19.184 16.6581 19.128C17.0967 18.988 17.4374 18.708 17.6801 18.288C17.7174 18.2227 17.7501 18.1527 17.7781 18.078L18.1841 16.496L18.0721 16.58C17.8387 16.7293 17.6147 16.8367 17.4001 16.902C17.1947 16.9673 16.9707 17 16.7281 17C16.5134 16.972 16.4014 16.958 16.3921 16.958C15.7667 16.8273 15.3187 16.4867 15.0481 15.936C14.8614 15.572 14.7681 15.1753 14.7681 14.746C14.7681 14.494 14.7914 14.2653 14.8381 14.06C15.0341 13.0427 15.5474 12.2027 16.3781 11.54C16.4061 11.5213 16.4341 11.5027 16.4621 11.484C16.9474 11.1107 17.4467 10.896 17.9601 10.84ZM18.3801 11.498C17.9974 11.414 17.6194 11.5493 17.2461 11.904C16.9474 12.184 16.6954 12.6927 16.4901 13.43C16.4434 13.5887 16.3921 13.7753 16.3361 13.99C16.1681 14.6713 16.0887 15.1567 16.0981 15.446C16.1074 15.642 16.1401 15.796 16.1961 15.908C16.3081 16.1133 16.4574 16.244 16.6441 16.3C16.8121 16.3467 16.9987 16.3467 17.2041 16.3C17.4094 16.244 17.6054 16.146 17.7921 16.006C18.0254 15.838 18.2261 15.642 18.3941 15.418L18.4921 15.292L18.8561 13.878L19.2061 12.464L19.1781 12.366C19.0287 11.862 18.7627 11.5727 18.3801 11.498Z" fill="#888888"/>
</svg>
