<svg width="24" height="24" viewBox="0 0 24 24" fill="none" xmlns="http://www.w3.org/2000/svg">
<path d="M8.31588 16L8.37188 15.706C8.80121 15.706 9.08121 15.65 9.21188 15.538L8.77788 13.396H6.08988L5.02588 15.454C5.09121 15.622 5.36654 15.706 5.85188 15.706L5.79588 16H3.49987L3.55587 15.706C4.07854 15.706 4.38654 15.608 4.47988 15.412L8.46988 7.81H9.14188L10.5839 15.412C10.6212 15.608 10.9059 15.706 11.4379 15.706L11.3819 16H8.31588ZM8.04988 9.672L6.34188 12.934H8.69388L8.04988 9.672ZM13.0237 17.246C13.0237 17.582 12.8697 17.806 12.5617 17.918C12.7764 18.17 13.2944 18.296 14.1157 18.296C14.573 18.296 14.965 18.1 15.2917 17.708C15.6277 17.316 15.903 16.6533 16.1177 15.72C15.6417 16 15.0677 16.14 14.3957 16.14C14.125 16.14 13.859 16.098 13.5977 16.014C13.3457 15.9393 13.0937 15.818 12.8417 15.65C12.599 15.482 12.3984 15.23 12.2397 14.894C12.0904 14.558 12.0157 14.166 12.0157 13.718C12.0157 12.4673 12.3797 11.4873 13.1077 10.778C13.8357 10.0593 14.727 9.7 15.7817 9.7C16.1364 9.7 16.463 9.73267 16.7617 9.798C17.0697 9.86333 17.3077 9.94267 17.4757 10.036C17.653 10.12 17.8024 10.2087 17.9237 10.302C18.045 10.386 18.129 10.4607 18.1757 10.526L18.2457 10.624L17.4197 15.594C17.261 16.5553 16.9017 17.33 16.3417 17.918C15.7817 18.506 15.0584 18.8 14.1717 18.8C13.4157 18.8 12.8184 18.674 12.3797 18.422C11.9504 18.1793 11.7357 17.9133 11.7357 17.624C11.7357 17.4 11.8104 17.2133 11.9597 17.064C12.109 16.9147 12.277 16.84 12.4637 16.84C12.837 16.84 13.0237 16.9753 13.0237 17.246ZM16.2157 15.258L17.0277 10.4C16.6264 10.2507 16.2157 10.176 15.7957 10.176C15.189 10.176 14.6244 10.5213 14.1017 11.212C13.5884 11.9027 13.3317 12.7613 13.3317 13.788C13.3317 14.3667 13.4437 14.824 13.6677 15.16C13.901 15.496 14.2184 15.664 14.6197 15.664C15.2357 15.664 15.7677 15.5287 16.2157 15.258Z" fill="#333333"/>
</svg>
