<svg width="24" height="24" viewBox="0 0 24 24" fill="none" xmlns="http://www.w3.org/2000/svg">
<path d="M4.65246 13.528L3.21046 17H2.49646L6.71046 6.92H7.10246L11.3305 17H10.5745L9.13246 13.528H4.65246ZM6.86446 8.04C6.85513 8.04933 6.83646 8.10533 6.80846 8.208C6.67779 8.60933 6.55179 8.95 6.43046 9.23L4.89046 12.954H8.89446L7.35446 9.244C7.02779 8.53467 6.86446 8.13333 6.86446 8.04ZM16.8656 8.348C15.8296 8.348 14.9569 8.74467 14.2476 9.538C13.5476 10.322 13.1976 11.288 13.1976 12.436C13.1976 13.584 13.5943 14.5593 14.3876 15.362C15.1809 16.1553 16.1143 16.552 17.1876 16.552C18.2703 16.552 19.1103 16.426 19.7076 16.174V12.436H20.3516V16.468C19.6236 16.916 18.5923 17.14 17.2576 17.14C15.9229 17.14 14.7983 16.6873 13.8836 15.782C12.9689 14.8767 12.5116 13.766 12.5116 12.45C12.5116 11.1247 12.9223 10.014 13.7436 9.118C14.5743 8.222 15.6429 7.774 16.9496 7.774C18.0043 7.774 19.0356 7.93733 20.0436 8.264L19.8756 8.796C18.9049 8.49733 17.9016 8.348 16.8656 8.348Z" fill="#888888"/>
</svg>
