<svg width="24" height="24" viewBox="0 0 24 24" fill="none" xmlns="http://www.w3.org/2000/svg">
<path d="M4.00666 18.126C3.80133 18.0607 3.64266 17.958 3.53066 17.818C3.41866 17.678 3.36266 17.5147 3.36266 17.328C3.36266 17.1413 3.41866 16.95 3.53066 16.754L8.40266 8.424C8.54266 8.19067 8.74333 8.074 9.00466 8.074C9.126 8.074 9.224 8.10667 9.29866 8.172C9.38266 8.23733 9.43866 8.32133 9.46666 8.424L11.4267 16.754C11.4453 16.866 11.4547 16.95 11.4547 17.006C11.4547 17.2673 11.3707 17.5053 11.2027 17.72C11.0347 17.9253 10.8153 18.0607 10.5447 18.126L9.92866 15.102H5.75666L4.00666 18.126ZM9.74666 14.122L8.66866 9.292L8.57066 9.32L8.68266 9.88L6.28866 14.122H9.74666ZM14.7264 20.926C14.2971 20.926 13.8957 20.856 13.5224 20.716C13.1584 20.576 12.8691 20.3847 12.6544 20.142C12.4397 19.9087 12.3324 19.652 12.3324 19.372C12.3324 19.1107 12.4117 18.9053 12.5704 18.756C12.7384 18.616 12.9671 18.546 13.2564 18.546C13.2377 18.658 13.2284 18.7467 13.2284 18.812C13.2284 19.1947 13.3777 19.498 13.6764 19.722C13.9751 19.946 14.3764 20.058 14.8804 20.058C15.5057 20.058 16.0051 19.904 16.3784 19.596C16.7517 19.288 16.9897 18.8353 17.0924 18.238L17.2464 17.314C17.4051 17.1833 17.5217 17.076 17.5964 16.992L17.5684 16.922C17.2137 17.2487 16.8124 17.51 16.3644 17.706C15.9257 17.8927 15.5057 17.986 15.1044 17.986C14.6471 17.986 14.2411 17.8973 13.8864 17.72C13.5317 17.5427 13.2564 17.3 13.0604 16.992C12.8644 16.684 12.7664 16.3387 12.7664 15.956C12.7664 15.8813 12.7757 15.76 12.7944 15.592L13.2004 13.282C13.3311 12.5073 13.6671 11.9147 14.2084 11.504C14.7591 11.084 15.4777 10.874 16.3644 10.874C17.2511 10.874 17.9464 11.2753 18.4504 12.078L18.4924 12.022L18.2824 11.672C18.3664 11.14 18.7444 10.874 19.4164 10.874L18.1284 18.168C17.9697 19.0547 17.5964 19.736 17.0084 20.212C16.4204 20.688 15.6597 20.926 14.7264 20.926ZM15.4124 17.076C15.9257 17.076 16.3924 16.936 16.8124 16.656C17.2417 16.3667 17.4891 16.026 17.5544 15.634L17.9604 13.24C17.9697 13.1933 17.9744 13.1233 17.9744 13.03C17.9744 12.6753 17.8251 12.3813 17.5264 12.148C17.2277 11.9053 16.8451 11.784 16.3784 11.784C15.1277 11.784 14.4091 12.2927 14.2224 13.31L13.8304 15.564C13.8117 15.648 13.8024 15.7647 13.8024 15.914C13.8024 16.6887 14.3391 17.076 15.4124 17.076Z" fill="#333333"/>
</svg>
