<svg width="24" height="24" viewBox="0 0 24 24" fill="none" xmlns="http://www.w3.org/2000/svg">
<path d="M3.91288 17.126C3.79154 17.0513 3.69821 16.958 3.63288 16.846C3.56754 16.7247 3.53488 16.6033 3.53488 16.482C3.53488 16.37 3.56288 16.2673 3.61888 16.174L8.70088 7.284C8.78488 7.144 8.91088 7.074 9.07888 7.074C9.14421 7.074 9.20488 7.09733 9.26088 7.144C9.31688 7.18133 9.35421 7.228 9.37288 7.284L11.3049 16.16C11.3142 16.188 11.3189 16.23 11.3189 16.286C11.3189 16.454 11.2675 16.6173 11.1649 16.776C11.0715 16.9347 10.9409 17.0513 10.7729 17.126L10.1429 13.892H5.73288L3.91288 17.126ZM9.98888 13.234L8.84088 7.886L8.79888 7.914L8.86888 8.306L6.08288 13.234H9.98888ZM14.7192 19.926C14.2992 19.926 13.9119 19.856 13.5572 19.716C13.2026 19.576 12.9226 19.3847 12.7172 19.142C12.5119 18.9087 12.4092 18.6473 12.4092 18.358C12.4092 18.1527 12.4699 17.9847 12.5912 17.854C12.7126 17.7233 12.8666 17.658 13.0532 17.658C13.0346 17.7887 13.0252 17.8867 13.0252 17.952C13.0252 18.372 13.1839 18.708 13.5012 18.96C13.8279 19.212 14.2712 19.338 14.8312 19.338C15.5032 19.338 16.0446 19.1653 16.4552 18.82C16.8752 18.484 17.1412 17.994 17.2532 17.35L17.4492 16.202C17.4959 16.146 17.6079 16.0293 17.7852 15.852L17.7712 15.782C17.3886 16.1647 16.9732 16.4633 16.5252 16.678C16.0866 16.8833 15.6479 16.986 15.2092 16.986C14.4999 16.986 13.9259 16.8087 13.4872 16.454C13.0579 16.09 12.8432 15.6233 12.8432 15.054C12.8432 14.9327 12.8572 14.802 12.8852 14.662L13.3192 12.212C13.4592 11.4467 13.7952 10.868 14.3272 10.476C14.8686 10.0747 15.5966 9.874 16.5112 9.874C16.9406 9.874 17.3326 9.98133 17.6872 10.196C18.0419 10.4013 18.3406 10.7 18.5832 11.092L18.6112 11.036C18.5739 10.9427 18.5039 10.826 18.4012 10.686C18.4852 10.1447 18.7559 9.874 19.2132 9.874L17.8832 17.378C17.7432 18.1807 17.3932 18.806 16.8332 19.254C16.2732 19.702 15.5686 19.926 14.7192 19.926ZM15.3072 16.384C15.6806 16.384 16.0399 16.3093 16.3852 16.16C16.7306 16.0107 17.0199 15.81 17.2532 15.558C17.4959 15.306 17.6406 15.0353 17.6872 14.746L18.1492 12.128C18.1586 12.0813 18.1632 12.0067 18.1632 11.904C18.1632 11.4933 17.9952 11.1527 17.6592 10.882C17.3232 10.6113 16.8939 10.476 16.3712 10.476C14.9806 10.476 14.1779 11.05 13.9632 12.198L13.5152 14.676C13.4966 14.76 13.4872 14.8813 13.4872 15.04C13.4872 15.4787 13.6412 15.8147 13.9492 16.048C14.2572 16.272 14.7099 16.384 15.3072 16.384Z" fill="#888888"/>
</svg>
