<svg width="24" height="24" viewBox="0 0 24 24" fill="none" xmlns="http://www.w3.org/2000/svg">
<path d="M4.65198 18.126C4.37198 18.07 4.15264 17.9533 3.99398 17.776C3.83531 17.5893 3.75598 17.3653 3.75598 17.104C3.75598 16.9267 3.79798 16.74 3.88198 16.544L7.22798 8.494C7.33998 8.214 7.55464 8.074 7.87198 8.074C8.17064 8.074 8.38064 8.214 8.50198 8.494L11.848 16.544C11.932 16.74 11.974 16.9267 11.974 17.104C11.974 17.356 11.8946 17.5753 11.736 17.762C11.5773 17.9487 11.358 18.07 11.078 18.126L9.87398 15.2H5.85598L4.65198 18.126ZM9.46798 14.066L7.66198 9.488L7.54998 9.53L7.80198 10.174L6.26198 14.066H9.46798ZM15.8744 20.926C15.3891 20.926 14.9364 20.8467 14.5164 20.688C14.0964 20.5293 13.7651 20.3147 13.5224 20.044C13.2797 19.7827 13.1584 19.498 13.1584 19.19C13.1584 18.9473 13.2377 18.77 13.3964 18.658C13.5644 18.546 13.7884 18.49 14.0684 18.49C14.0871 18.9287 14.2551 19.274 14.5724 19.526C14.8991 19.7873 15.3331 19.918 15.8744 19.918C17.0691 19.918 17.6664 19.3393 17.6664 18.182V17.37C17.7971 17.258 17.8951 17.1553 17.9604 17.062L17.9184 16.992C17.6477 17.2813 17.3071 17.5193 16.8964 17.706C16.4951 17.8927 16.0891 17.986 15.6784 17.986C14.8757 17.986 14.2177 17.7667 13.7044 17.328C13.2004 16.88 12.9484 16.292 12.9484 15.564V13.31C12.9484 12.834 13.0651 12.414 13.2984 12.05C13.5411 11.6767 13.8677 11.3873 14.2784 11.182C14.6984 10.9767 15.1604 10.874 15.6644 10.874C16.5791 10.874 17.3444 11.2753 17.9604 12.078L18.0164 12.022L17.7364 11.672C17.7364 11.4107 17.8251 11.2147 18.0024 11.084C18.1891 10.944 18.4877 10.874 18.8984 10.874V18.056C18.8984 18.616 18.7677 19.1107 18.5064 19.54C18.2544 19.9787 17.8997 20.3193 17.4424 20.562C16.9851 20.8047 16.4624 20.926 15.8744 20.926ZM15.9024 16.922C16.3971 16.922 16.8171 16.7913 17.1624 16.53C17.5077 16.2593 17.6804 15.942 17.6804 15.578V13.296C17.6804 12.9133 17.5077 12.5913 17.1624 12.33C16.8264 12.0687 16.4157 11.938 15.9304 11.938C15.3704 11.938 14.9364 12.064 14.6284 12.316C14.3204 12.5587 14.1664 12.9087 14.1664 13.366V15.508C14.1664 15.9467 14.3157 16.292 14.6144 16.544C14.9224 16.796 15.3517 16.922 15.9024 16.922Z" fill="#333333"/>
</svg>
