<svg width="24" height="24" viewBox="0 0 24 24" fill="none" xmlns="http://www.w3.org/2000/svg">
<path d="M4.56502 17.126C4.38769 17.0607 4.24302 16.9533 4.13102 16.804C4.02836 16.6547 3.97702 16.4913 3.97702 16.314C3.97702 16.202 4.00036 16.0853 4.04702 15.964L7.49102 7.354C7.52836 7.26067 7.58436 7.19067 7.65902 7.144C7.73369 7.09733 7.82236 7.074 7.92502 7.074C8.02769 7.074 8.11636 7.102 8.19102 7.158C8.27502 7.20467 8.33102 7.27 8.35902 7.354L11.803 15.95C11.8497 16.0713 11.873 16.188 11.873 16.3C11.873 16.4867 11.817 16.6547 11.705 16.804C11.6024 16.9533 11.4577 17.0607 11.271 17.126L10.067 13.99H5.79702L4.56502 17.126ZM9.75902 13.178L7.77102 8.082L7.70102 8.124L7.88302 8.6L6.09102 13.178H9.75902ZM15.8604 19.926C15.4031 19.926 14.9691 19.842 14.5584 19.674C14.1571 19.5153 13.8304 19.3007 13.5784 19.03C13.3357 18.7687 13.2144 18.4887 13.2144 18.19C13.2144 18.0033 13.2751 17.8587 13.3964 17.756C13.5177 17.6533 13.6764 17.602 13.8724 17.602C13.8817 18.0687 14.0684 18.4513 14.4324 18.75C14.7964 19.0487 15.2724 19.198 15.8604 19.198C16.5137 19.198 17.0084 19.03 17.3444 18.694C17.6804 18.3673 17.8484 17.9007 17.8484 17.294V16.258L18.1144 15.922L18.1004 15.852C17.7924 16.2067 17.4331 16.4867 17.0224 16.692C16.6117 16.888 16.1964 16.986 15.7764 16.986C14.9551 16.986 14.2924 16.7713 13.7884 16.342C13.2937 15.9127 13.0464 15.3433 13.0464 14.634V12.24C13.0464 11.5213 13.2984 10.9473 13.8024 10.518C14.3064 10.0887 14.9691 9.874 15.7904 9.874C16.6864 9.874 17.4564 10.28 18.1004 11.092L18.1284 11.036C18.0817 10.9613 17.9884 10.8447 17.8484 10.686C17.8484 10.406 17.9137 10.2007 18.0444 10.07C18.1844 9.93933 18.3991 9.874 18.6884 9.874V17.266C18.6884 17.7887 18.5671 18.2507 18.3244 18.652C18.0911 19.0627 17.7597 19.3753 17.3304 19.59C16.9011 19.814 16.4111 19.926 15.8604 19.926ZM15.8324 16.23C16.1964 16.23 16.5277 16.16 16.8264 16.02C17.1344 15.88 17.3771 15.6933 17.5544 15.46C17.7411 15.2173 17.8344 14.9607 17.8344 14.69V12.184C17.8344 11.904 17.7457 11.6473 17.5684 11.414C17.3911 11.1713 17.1484 10.98 16.8404 10.84C16.5417 10.7 16.2151 10.63 15.8604 10.63C15.2351 10.63 14.7451 10.7747 14.3904 11.064C14.0451 11.344 13.8724 11.7407 13.8724 12.254V14.62C13.8724 15.1147 14.0451 15.5067 14.3904 15.796C14.7451 16.0853 15.2257 16.23 15.8324 16.23Z" fill="#888888"/>
</svg>
