<svg width="24" height="24" viewBox="0 0 24 24" fill="none" xmlns="http://www.w3.org/2000/svg">
<path d="M4.73006 17.126C4.32873 17.0887 4.01606 16.9673 3.79206 16.762C3.5774 16.5473 3.47006 16.2813 3.47006 15.964C3.47006 15.6 3.60073 15.2127 3.86206 14.802L8.30006 7.76C8.45873 7.51733 8.62673 7.34467 8.80406 7.242C8.9814 7.13 9.18673 7.074 9.42006 7.074C9.89606 7.074 10.1947 7.30267 10.3161 7.76L12.2341 14.802C12.2901 15.026 12.3181 15.236 12.3181 15.432C12.3181 15.908 12.1687 16.3 11.8701 16.608C11.5807 16.9067 11.1841 17.0793 10.6801 17.126L9.98006 14.564H6.35406L4.73006 17.126ZM9.63006 12.8L8.81806 9.216L8.60806 9.3L8.81806 10.238L7.27806 12.8H9.63006ZM15.396 19.926C14.6213 19.926 13.9913 19.786 13.506 19.506C13.03 19.226 12.792 18.862 12.792 18.414C12.792 18.0407 12.9227 17.756 13.184 17.56C13.4453 17.3733 13.8327 17.28 14.346 17.28C14.3087 18.036 14.7473 18.414 15.662 18.414C16.138 18.414 16.5067 18.2927 16.768 18.05C17.0387 17.8167 17.2253 17.4527 17.328 16.958L17.398 16.594C17.5567 16.482 17.6733 16.3887 17.748 16.314L17.706 16.244C17.454 16.4493 17.1133 16.6267 16.684 16.776C16.2547 16.916 15.8627 16.986 15.508 16.986C14.808 16.986 14.2433 16.7947 13.814 16.412C13.394 16.02 13.184 15.516 13.184 14.9C13.184 14.7507 13.198 14.6013 13.226 14.452L13.576 12.422C13.7067 11.6567 14.0567 11.0407 14.626 10.574C15.1953 10.1073 15.8767 9.874 16.67 9.874C17.1553 9.874 17.566 9.972 17.902 10.168C18.238 10.3547 18.518 10.6533 18.742 11.064L18.826 11.008C18.7793 10.896 18.714 10.7747 18.63 10.644C18.6673 10.392 18.8447 10.2007 19.162 10.07C19.4793 9.93933 19.9273 9.874 20.506 9.874L19.316 16.664C19.1387 17.6627 18.6953 18.456 17.986 19.044C17.286 19.632 16.4227 19.926 15.396 19.926ZM16.306 15.348C16.6887 15.348 17.0247 15.2547 17.314 15.068C17.6127 14.872 17.7853 14.6387 17.832 14.368L18.154 12.492C18.1633 12.464 18.168 12.4173 18.168 12.352C18.168 12.1093 18.056 11.9087 17.832 11.75C17.6173 11.5913 17.3373 11.512 16.992 11.512C16.5533 11.512 16.2033 11.6007 15.942 11.778C15.69 11.9553 15.5313 12.2167 15.466 12.562L15.158 14.312C15.1487 14.3587 15.144 14.4287 15.144 14.522C15.144 14.7927 15.242 14.998 15.438 15.138C15.6433 15.278 15.9327 15.348 16.306 15.348Z" fill="#888888"/>
</svg>
