<svg width="24" height="24" viewBox="0 0 24 24" fill="none" xmlns="http://www.w3.org/2000/svg">
<path d="M4.70213 18.126C4.37546 18.0793 4.12346 17.9533 3.94613 17.748C3.76879 17.5427 3.68013 17.2953 3.68013 17.006C3.68013 16.7913 3.72679 16.5767 3.82013 16.362L7.12413 8.564C7.26413 8.23733 7.51146 8.074 7.86613 8.074C8.21146 8.074 8.44946 8.23733 8.58013 8.564L11.8841 16.362C11.9775 16.5767 12.0241 16.7913 12.0241 17.006C12.0241 17.2953 11.9355 17.5427 11.7581 17.748C11.5808 17.9533 11.3288 18.0793 11.0021 18.126L9.81213 15.284H5.90613L4.70213 18.126ZM9.35013 13.996L7.62813 9.67L7.50213 9.726L7.78213 10.44L6.35413 13.996H9.35013ZM15.9083 20.926C15.3949 20.926 14.9283 20.8467 14.5083 20.688C14.0883 20.5387 13.7569 20.3287 13.5143 20.058C13.2716 19.7967 13.1503 19.5073 13.1503 19.19C13.1503 18.686 13.4909 18.434 14.1723 18.434C14.1909 18.854 14.3496 19.1853 14.6483 19.428C14.9563 19.6707 15.3763 19.792 15.9083 19.792C17.0376 19.792 17.6023 19.2367 17.6023 18.126V17.426C17.7329 17.314 17.8309 17.2113 17.8963 17.118L17.8543 17.048C17.5929 17.3187 17.2569 17.5427 16.8463 17.72C16.4449 17.8973 16.0483 17.986 15.6562 17.986C15.1336 17.986 14.6623 17.8833 14.2423 17.678C13.8316 17.4727 13.5096 17.188 13.2763 16.824C13.0429 16.4507 12.9263 16.0213 12.9263 15.536V13.338C12.9263 12.862 13.0476 12.4373 13.2903 12.064C13.5329 11.6907 13.8596 11.4013 14.2703 11.196C14.6809 10.9813 15.1336 10.874 15.6283 10.874C16.1323 10.874 16.5663 10.9813 16.9303 11.196C17.3036 11.4107 17.6349 11.7047 17.9243 12.078L17.9803 12.022C17.8963 11.8913 17.8029 11.77 17.7003 11.658C17.7003 11.1353 18.1389 10.874 19.0163 10.874V17.958C19.0163 18.5367 18.8809 19.05 18.6103 19.498C18.3489 19.9553 17.9803 20.3053 17.5043 20.548C17.0376 20.8 16.5056 20.926 15.9083 20.926ZM15.9503 16.782C16.4263 16.782 16.8229 16.6607 17.1403 16.418C17.4669 16.166 17.6303 15.8673 17.6303 15.522V13.338C17.6303 12.9833 17.4716 12.6847 17.1543 12.442C16.8369 12.1993 16.4449 12.078 15.9783 12.078C15.4463 12.078 15.0356 12.1947 14.7463 12.428C14.4663 12.6613 14.3263 12.988 14.3263 13.408V15.452C14.3263 15.8627 14.4663 16.1893 14.7463 16.432C15.0356 16.6653 15.4369 16.782 15.9503 16.782Z" fill="#333333"/>
</svg>
