<svg width="24" height="24" viewBox="0 0 24 24" fill="none" xmlns="http://www.w3.org/2000/svg">
<path d="M6.74219 6.27246L8.14355 6.19727L11.2539 14.8926L12.416 15.1592V16H8.35547V15.1592L9.6543 14.8926L9.12109 13.3408H5.48438L4.9375 14.8926L6.25 15.1592V16H2.40137V15.1592L3.5498 14.8926L6.74219 6.27246ZM7.33008 8.00879L5.86035 12.2197H8.74512L7.33008 8.00879ZM18.958 9.61523C18.9762 9.64258 19.015 9.71322 19.0742 9.82715C19.138 9.93652 19.1973 10.0983 19.252 10.3125C19.3112 10.5221 19.3408 10.7614 19.3408 11.0303C19.3408 11.9463 19.0651 12.6299 18.5137 13.0811C17.9622 13.5322 17.2103 13.7578 16.2578 13.7578C15.998 13.7578 15.7702 13.7419 15.5742 13.71C15.3783 13.6781 15.2552 13.653 15.2051 13.6348L15.1367 14.9473H17.3105C18.2266 14.9473 18.9215 15.1204 19.3955 15.4668C19.8695 15.8132 20.1064 16.3167 20.1064 16.9775C20.1064 17.7705 19.7988 18.388 19.1836 18.8301C18.5684 19.2767 17.6637 19.5 16.4697 19.5C15.417 19.5 14.5921 19.3428 13.9951 19.0283C13.4027 18.7184 13.1064 18.1989 13.1064 17.4697C13.1064 17.096 13.2158 16.777 13.4346 16.5127C13.6533 16.2529 13.8971 16.0524 14.166 15.9111C14.4395 15.7653 14.5762 15.7015 14.5762 15.7197C14.5762 15.7288 14.4987 15.7106 14.3438 15.665C14.1934 15.6195 14.0544 15.5374 13.9268 15.4189C13.7992 15.3005 13.7354 15.1341 13.7354 14.9199C13.7354 14.7786 13.7878 14.5918 13.8926 14.3594C14.002 14.127 14.1159 13.9128 14.2344 13.7168C14.3529 13.5208 14.4303 13.3955 14.4668 13.3408C14.4668 13.3682 14.3665 13.2975 14.166 13.1289C13.9655 12.9603 13.7855 12.7165 13.626 12.3975C13.4665 12.0739 13.3867 11.6637 13.3867 11.167C13.3867 10.2783 13.6647 9.60156 14.2207 9.13672C14.7767 8.67188 15.5264 8.43945 16.4697 8.43945C16.7386 8.43945 16.9756 8.45768 17.1807 8.49414C17.3857 8.5306 17.543 8.57161 17.6523 8.61719C17.7663 8.6582 17.8369 8.68783 17.8643 8.70605L20.3184 8.65137V9.41699L18.958 9.61523ZM16.3945 9.41699C15.8477 9.41699 15.4421 9.55599 15.1777 9.83398C14.918 10.1074 14.7881 10.529 14.7881 11.0986C14.7881 11.6136 14.918 12.0238 15.1777 12.3291C15.4421 12.6299 15.8249 12.7803 16.3262 12.7803C16.8867 12.7803 17.2946 12.6481 17.5498 12.3838C17.8096 12.1149 17.9395 11.6865 17.9395 11.0986C17.9395 10.5563 17.8096 10.1416 17.5498 9.85449C17.2946 9.56283 16.9095 9.41699 16.3945 9.41699ZM15.417 16C15.417 15.9818 15.3327 16.0296 15.1641 16.1436C14.9954 16.262 14.8428 16.4147 14.7061 16.6016C14.5739 16.7884 14.5078 17.0072 14.5078 17.2578C14.5078 17.7135 14.6878 18.0257 15.0479 18.1943C15.4079 18.363 15.9502 18.4473 16.6748 18.4473C17.3857 18.4473 17.9144 18.3379 18.2607 18.1191C18.6071 17.9004 18.7803 17.5677 18.7803 17.1211C18.7803 16.6927 18.6276 16.3988 18.3223 16.2393C18.0169 16.0798 17.5612 16 16.9551 16H15.417Z" fill="#333333"/>
</svg>
