<svg width="24" height="24" viewBox="0 0 24 24" fill="none" xmlns="http://www.w3.org/2000/svg">
<path d="M12.3149 10.918C12.3149 11.0953 11.9043 11.3007 11.0829 11.534C11.1576 12.5047 11.1949 13.3307 11.1949 14.012C11.1949 15.188 11.0456 15.776 10.7469 15.776C10.5883 15.776 10.4623 15.678 10.3689 15.482C10.2756 15.286 10.2009 14.9453 10.1449 14.46C10.0796 13.564 10.0096 12.6867 9.93495 11.828C9.51495 11.94 9.13228 12.0427 8.78695 12.136C8.44161 12.22 7.91895 12.36 7.21895 12.556C6.39761 14.7027 5.91228 15.776 5.76295 15.776C5.61361 15.776 5.45028 15.6873 5.27295 15.51C5.10495 15.3233 5.02095 15.1273 5.02095 14.922C5.02095 14.8287 5.28695 14.166 5.81895 12.934H5.72095C5.53428 12.934 5.36628 12.8733 5.21695 12.752C5.07695 12.6307 5.00695 12.4813 5.00695 12.304C5.00695 12.1173 5.46895 11.8747 6.39295 11.576C6.54228 11.24 6.66361 10.9367 6.75695 10.666C6.97161 10.134 7.27028 9.406 7.65295 8.482C8.03561 7.558 8.27828 6.97 8.38095 6.718C8.48361 6.45667 8.66095 6.23733 8.91295 6.06C9.17428 5.87333 9.42628 5.78 9.66895 5.78C9.95828 5.78 10.2149 6.242 10.4389 7.166C10.6723 8.09 10.8589 9.23333 10.9989 10.596C11.2603 10.568 11.4889 10.554 11.6849 10.554C12.1049 10.554 12.3149 10.6753 12.3149 10.918ZM7.73695 11.212C8.39961 11.0347 9.09961 10.8853 9.83695 10.764C9.66895 9.168 9.50561 7.96867 9.34695 7.166C8.92695 8.12733 8.39028 9.476 7.73695 11.212ZM18.9145 12.01C18.9145 12.3833 18.7512 12.808 18.4245 13.284C18.1725 13.8533 17.9019 14.6747 17.6125 15.748C17.3232 16.812 17.0805 17.5727 16.8845 18.03C16.4925 18.982 15.8905 19.458 15.0785 19.458C14.4159 19.458 13.8559 19.276 13.3985 18.912C12.9505 18.5573 12.7265 18.2027 12.7265 17.848C12.7265 17.6987 12.7732 17.5493 12.8665 17.4C12.9505 17.2507 13.0392 17.176 13.1325 17.176C13.2352 17.176 13.3472 17.246 13.4685 17.386C13.5899 17.526 13.7019 17.6753 13.8045 17.834C13.9165 18.002 14.0799 18.156 14.2945 18.296C14.5185 18.436 14.7332 18.506 14.9385 18.506C15.1439 18.506 15.2979 18.4733 15.4005 18.408C15.5032 18.352 15.6012 18.254 15.6945 18.114C15.7879 17.9833 15.8672 17.848 15.9325 17.708C15.9979 17.5773 16.0679 17.386 16.1425 17.134C16.2265 16.8913 16.2919 16.6813 16.3385 16.504C16.3852 16.3267 16.4505 16.0793 16.5345 15.762C16.6185 15.4353 16.6885 15.174 16.7445 14.978C16.0165 15.5193 15.4239 15.79 14.9665 15.79C14.5092 15.79 14.1125 15.608 13.7765 15.244C13.4405 14.8707 13.2725 14.4413 13.2725 13.956C13.2725 13.4613 13.4545 12.808 13.8185 11.996C14.1919 11.184 14.6912 10.456 15.3165 9.812C15.9419 9.168 16.5532 8.846 17.1505 8.846C17.5332 8.846 17.8552 8.99067 18.1165 9.28C18.5459 9.756 18.7605 10.4327 18.7605 11.31C18.7605 11.422 18.7559 11.5013 18.7465 11.548C18.8585 11.7067 18.9145 11.8607 18.9145 12.01ZM14.4065 14.096C14.4065 14.2547 14.4579 14.3853 14.5605 14.488C14.6632 14.5813 14.7939 14.628 14.9525 14.628C15.4192 14.628 15.9699 14.3527 16.6045 13.802C17.2392 13.242 17.6872 12.5933 17.9485 11.856C17.9112 11.7347 17.8785 11.548 17.8505 11.296C17.8225 11.044 17.7945 10.8433 17.7665 10.694C17.7385 10.5447 17.6779 10.3953 17.5845 10.246C17.4912 10.0873 17.3699 10.008 17.2205 10.008C16.8565 10.008 16.4459 10.2693 15.9885 10.792C15.5312 11.3147 15.1532 11.898 14.8545 12.542C14.5559 13.186 14.4065 13.704 14.4065 14.096Z" fill="#333333"/>
</svg>
