<svg width="24" height="24" viewBox="0 0 24 24" fill="none" xmlns="http://www.w3.org/2000/svg">
<path d="M2.6625 17L6.1205 7.984H8.9065L12.3645 17H9.6205L8.8645 15.082H6.1485L5.4065 17H2.6625ZM6.4985 13.192H8.5145L7.5065 10.546L6.4985 13.192ZM16.2588 19.464C15.9321 19.464 15.5775 19.45 15.1948 19.422C14.8121 19.4033 14.4481 19.366 14.1028 19.31C13.7668 19.254 13.4868 19.1887 13.2628 19.114V17.434C13.5148 17.518 13.8041 17.588 14.1308 17.644C14.4668 17.7 14.8075 17.742 15.1528 17.77C15.4981 17.798 15.8155 17.812 16.1048 17.812C16.5995 17.812 16.9868 17.784 17.2668 17.728C17.5561 17.6813 17.7008 17.5927 17.7008 17.462C17.7008 17.35 17.6541 17.2753 17.5608 17.238C17.4675 17.21 17.2901 17.196 17.0288 17.196H15.2788C14.5975 17.196 14.0701 17.0887 13.6968 16.874C13.3328 16.65 13.1508 16.3187 13.1508 15.88C13.1508 15.264 13.4915 14.8347 14.1728 14.592C13.7901 14.396 13.5101 14.1487 13.3328 13.85C13.1555 13.5513 13.0668 13.1733 13.0668 12.716C13.0668 11.8573 13.3561 11.2273 13.9348 10.826C14.5228 10.4247 15.3675 10.224 16.4688 10.224C16.7021 10.224 16.9635 10.2427 17.2528 10.28C17.5421 10.308 17.7521 10.336 17.8828 10.364H20.4868L20.4308 11.96H19.5488C19.7168 12.1747 19.8008 12.436 19.8008 12.744C19.8008 13.4253 19.6001 13.9667 19.1988 14.368C18.8068 14.76 18.1861 14.956 17.3368 14.956C17.2155 14.956 17.0848 14.9513 16.9448 14.942C16.8048 14.9233 16.6741 14.9093 16.5528 14.9C16.3475 14.9187 16.1701 14.956 16.0208 15.012C15.8715 15.068 15.7968 15.1613 15.7968 15.292C15.7968 15.3853 15.8388 15.4507 15.9228 15.488C16.0068 15.516 16.1235 15.53 16.2728 15.53H17.7988C18.4801 15.53 19.0168 15.6887 19.4088 16.006C19.8008 16.3233 19.9968 16.79 19.9968 17.406C19.9968 18.0593 19.6935 18.5633 19.0868 18.918C18.4801 19.282 17.5375 19.464 16.2588 19.464ZM16.4828 13.514C16.8935 13.514 17.1781 13.444 17.3368 13.304C17.4955 13.164 17.5748 12.9307 17.5748 12.604C17.5748 12.2773 17.4955 12.0393 17.3368 11.89C17.1781 11.7407 16.8935 11.666 16.4828 11.666C16.1001 11.666 15.8201 11.7407 15.6428 11.89C15.4748 12.03 15.3908 12.268 15.3908 12.604C15.3908 12.9213 15.4701 13.1547 15.6288 13.304C15.7968 13.444 16.0815 13.514 16.4828 13.514Z" fill="#888888"/>
</svg>
