<svg width="24" height="24" viewBox="0 0 24 24" fill="none" xmlns="http://www.w3.org/2000/svg">
<path d="M2.89689 17L6.34089 7.984H8.77689L12.2209 17H9.86889L9.05689 14.956H6.04689L5.24889 17H2.89689ZM6.35489 13.29H8.74889L7.54489 10.154L6.35489 13.29ZM16.2184 19.464C15.8918 19.464 15.5464 19.45 15.1824 19.422C14.8184 19.394 14.4731 19.352 14.1464 19.296C13.8198 19.24 13.5398 19.1747 13.3064 19.1V17.56C13.6798 17.6813 14.1278 17.7747 14.6504 17.84C15.1731 17.9053 15.6538 17.938 16.0924 17.938C16.6618 17.938 17.0864 17.9053 17.3664 17.84C17.6558 17.784 17.8004 17.6813 17.8004 17.532C17.8004 17.4013 17.7444 17.3127 17.6324 17.266C17.5204 17.2193 17.3011 17.196 16.9744 17.196H15.1404C14.5431 17.196 14.0764 17.0887 13.7404 16.874C13.4138 16.6593 13.2504 16.3467 13.2504 15.936C13.2504 15.656 13.3344 15.39 13.5024 15.138C13.6798 14.886 13.9364 14.6993 14.2724 14.578C13.8898 14.382 13.6004 14.1347 13.4044 13.836C13.2084 13.5373 13.1104 13.1593 13.1104 12.702C13.1104 11.8433 13.3858 11.218 13.9364 10.826C14.4964 10.4247 15.3131 10.224 16.3864 10.224C16.6104 10.224 16.8578 10.2427 17.1284 10.28C17.4084 10.308 17.6138 10.336 17.7444 10.364H20.2924L20.2364 11.764H19.2704C19.5038 11.9973 19.6204 12.3427 19.6204 12.8C19.6204 13.444 19.4104 13.962 18.9904 14.354C18.5798 14.746 17.9544 14.942 17.1144 14.942C16.9744 14.942 16.8344 14.9373 16.6944 14.928C16.5638 14.9093 16.4331 14.8953 16.3024 14.886C16.0598 14.914 15.8498 14.9653 15.6724 15.04C15.5044 15.1147 15.4204 15.222 15.4204 15.362C15.4204 15.474 15.4624 15.5487 15.5464 15.586C15.6398 15.6233 15.7751 15.642 15.9524 15.642H17.6464C18.3278 15.642 18.8551 15.8007 19.2284 16.118C19.6111 16.426 19.8024 16.8787 19.8024 17.476C19.8024 18.8013 18.6078 19.464 16.2184 19.464ZM16.4004 13.696C16.8951 13.696 17.2358 13.612 17.4224 13.444C17.6091 13.276 17.7024 12.996 17.7024 12.604C17.7024 12.212 17.6044 11.9273 17.4084 11.75C17.2218 11.5727 16.8858 11.484 16.4004 11.484C15.9431 11.484 15.6118 11.5727 15.4064 11.75C15.2104 11.918 15.1124 12.2027 15.1124 12.604C15.1124 12.9773 15.2058 13.2527 15.3924 13.43C15.5791 13.6073 15.9151 13.696 16.4004 13.696Z" fill="#333333"/>
</svg>
