<svg width="24" height="24" viewBox="0 0 24 24" fill="none" xmlns="http://www.w3.org/2000/svg">
<path d="M2.63285 17L6.10485 7.984H9.61885L13.0909 17H9.56285L8.91885 15.32H6.80485L6.16085 17H2.63285ZM7.16885 13.01H8.54085L7.85485 11.288L7.16885 13.01ZM16.9177 19.464C16.591 19.464 16.2223 19.45 15.8117 19.422C15.401 19.4033 15.009 19.366 14.6357 19.31C14.2623 19.2633 13.9683 19.2027 13.7537 19.128V17.196C14.0057 17.28 14.3043 17.3453 14.6497 17.392C14.995 17.448 15.3497 17.4853 15.7137 17.504C16.0777 17.532 16.409 17.546 16.7077 17.546C17.0623 17.546 17.375 17.532 17.6457 17.504C17.9163 17.476 18.0517 17.4153 18.0517 17.322C18.0517 17.2473 17.9957 17.2007 17.8837 17.182C17.781 17.1727 17.641 17.168 17.4637 17.168H15.8677C15.093 17.168 14.505 17.0653 14.1037 16.86C13.7117 16.6547 13.5157 16.3233 13.5157 15.866C13.5157 15.5393 13.6137 15.2687 13.8097 15.054C14.0057 14.83 14.2763 14.6667 14.6217 14.564C14.2483 14.368 13.9777 14.13 13.8097 13.85C13.6417 13.57 13.5577 13.2013 13.5577 12.744C13.5577 11.876 13.875 11.2413 14.5097 10.84C15.1443 10.4293 16.0357 10.224 17.1837 10.224C17.3517 10.224 17.5383 10.2333 17.7437 10.252C17.9583 10.2613 18.1543 10.28 18.3317 10.308C18.5183 10.3267 18.6537 10.3453 18.7377 10.364H21.4397L21.3837 12.366H20.6557C20.6743 12.422 20.693 12.492 20.7117 12.576C20.7303 12.6507 20.7397 12.7207 20.7397 12.786C20.7397 13.4673 20.553 14.004 20.1797 14.396C19.8157 14.7787 19.2043 14.97 18.3457 14.97C18.2523 14.97 18.1357 14.97 17.9957 14.97C17.8557 14.9607 17.7343 14.9513 17.6317 14.942C17.501 14.9513 17.3797 14.9747 17.2677 15.012C17.165 15.04 17.1137 15.1007 17.1137 15.194C17.1137 15.2687 17.1463 15.32 17.2117 15.348C17.277 15.3667 17.3657 15.376 17.4777 15.376H18.6537C19.3443 15.376 19.8997 15.53 20.3197 15.838C20.7397 16.1367 20.9497 16.6127 20.9497 17.266C20.9497 17.91 20.6323 18.4373 19.9977 18.848C19.3723 19.2587 18.3457 19.464 16.9177 19.464ZM17.2117 13.15C17.473 13.15 17.6503 13.108 17.7437 13.024C17.8463 12.94 17.8977 12.8 17.8977 12.604C17.8977 12.3987 17.8417 12.254 17.7297 12.17C17.627 12.0767 17.4543 12.03 17.2117 12.03C16.7543 12.03 16.5257 12.2213 16.5257 12.604C16.5257 12.7907 16.577 12.9307 16.6797 13.024C16.7823 13.108 16.9597 13.15 17.2117 13.15Z" fill="#888888"/>
</svg>
