<svg width="24" height="24" viewBox="0 0 24 24" fill="none" xmlns="http://www.w3.org/2000/svg">
<path d="M4.02066 17L7.42266 7.984H8.05266L11.4407 17H11.0487L9.99866 14.2H5.47666L4.42666 17H4.02066ZM5.60266 13.85H9.85866L7.73066 8.208L5.60266 13.85ZM15.8841 19.464C15.3895 19.464 14.9321 19.436 14.5121 19.38C14.0921 19.3333 13.7188 19.2493 13.3921 19.128V18.764C13.7748 18.8853 14.1761 18.974 14.5961 19.03C15.0255 19.086 15.4548 19.114 15.8841 19.114C16.3881 19.114 16.8221 19.086 17.1861 19.03C17.5595 18.974 17.8441 18.862 18.0401 18.694C18.2361 18.5353 18.3341 18.288 18.3341 17.952C18.3341 17.5693 18.2221 17.2987 17.9981 17.14C17.7835 16.9907 17.3635 16.916 16.7381 16.916H14.8901C14.2648 16.916 13.8121 16.832 13.5321 16.664C13.2615 16.4867 13.1261 16.2113 13.1261 15.838C13.1261 15.5673 13.2335 15.3247 13.4481 15.11C13.6721 14.886 13.9895 14.732 14.4001 14.648C13.9428 14.4893 13.6255 14.2233 13.4481 13.85C13.2801 13.4673 13.1961 13.0473 13.1961 12.59C13.1961 11.778 13.4108 11.1807 13.8401 10.798C14.2695 10.4153 14.9508 10.224 15.8841 10.224C16.0708 10.224 16.2575 10.2427 16.4441 10.28C16.6308 10.308 16.7848 10.336 16.9061 10.364H19.1881L19.1601 10.728H17.7881C18.0775 10.9613 18.2781 11.2413 18.3901 11.568C18.5115 11.8947 18.5721 12.2353 18.5721 12.59C18.5721 13.374 18.3575 13.962 17.9281 14.354C17.5081 14.7367 16.8268 14.928 15.8841 14.928C15.5855 14.928 15.2588 14.8953 14.9041 14.83C14.5028 14.8767 14.1668 14.984 13.8961 15.152C13.6348 15.3107 13.5041 15.5393 13.5041 15.838C13.5041 16.0807 13.6021 16.2627 13.7981 16.384C13.9941 16.496 14.3628 16.552 14.9041 16.552H16.8081C17.4428 16.552 17.9188 16.6593 18.2361 16.874C18.5535 17.0887 18.7121 17.4387 18.7121 17.924C18.7121 18.3533 18.6001 18.6753 18.3761 18.89C18.1521 19.114 17.8301 19.2633 17.4101 19.338C16.9901 19.422 16.4815 19.464 15.8841 19.464ZM15.8841 14.578C16.7521 14.578 17.3541 14.424 17.6901 14.116C18.0261 13.808 18.1941 13.2993 18.1941 12.59C18.1941 11.8807 18.0168 11.3673 17.6621 11.05C17.3075 10.7327 16.7148 10.574 15.8841 10.574C15.0628 10.574 14.4701 10.728 14.1061 11.036C13.7515 11.344 13.5741 11.862 13.5741 12.59C13.5741 13.2713 13.7421 13.7753 14.0781 14.102C14.4235 14.4193 15.0255 14.578 15.8841 14.578Z" fill="#333333"/>
</svg>
