<svg width="24" height="24" viewBox="0 0 24 24" fill="none" xmlns="http://www.w3.org/2000/svg">
<path d="M4.07988 17L7.50988 7.984H8.85388L12.2699 17H11.0939L10.1419 14.522H6.22188L5.26988 17H4.07988ZM6.41788 13.612H9.93188L8.16788 8.978L6.41788 13.612ZM16.5199 19.464C16.0252 19.464 15.5399 19.436 15.0639 19.38C14.5972 19.324 14.1959 19.2353 13.8599 19.114V18.162C14.2332 18.2833 14.6532 18.3767 15.1199 18.442C15.5865 18.5073 16.0345 18.54 16.4639 18.54C17.1639 18.54 17.6772 18.498 18.0039 18.414C18.3305 18.33 18.4939 18.1153 18.4939 17.77C18.4939 17.5273 18.4052 17.3547 18.2279 17.252C18.0599 17.1493 17.7565 17.098 17.3179 17.098H15.5539C14.3312 17.098 13.7199 16.6873 13.7199 15.866C13.7199 15.5953 13.8039 15.3387 13.9719 15.096C14.1492 14.844 14.4105 14.6667 14.7559 14.564C14.3825 14.3773 14.1072 14.1207 13.9299 13.794C13.7525 13.458 13.6639 13.0613 13.6639 12.604C13.6639 11.7733 13.9019 11.1713 14.3779 10.798C14.8632 10.4153 15.6005 10.224 16.5899 10.224C16.7952 10.224 17.0052 10.2427 17.2199 10.28C17.4439 10.308 17.6165 10.336 17.7379 10.364H20.1319L20.0899 11.148H18.8859C19.1005 11.3253 19.2545 11.54 19.3479 11.792C19.4412 12.0347 19.4879 12.3053 19.4879 12.604C19.4879 13.3413 19.2732 13.9153 18.8439 14.326C18.4145 14.7273 17.7565 14.928 16.8699 14.928C16.7205 14.928 16.5852 14.9233 16.4639 14.914C16.3519 14.8953 16.2165 14.8767 16.0579 14.858C15.7685 14.8673 15.4979 14.9513 15.2459 15.11C14.9939 15.2593 14.8679 15.4553 14.8679 15.698C14.8679 15.8567 14.9285 15.9733 15.0499 16.048C15.1805 16.1227 15.4139 16.16 15.7499 16.16H17.5839C18.2465 16.16 18.7552 16.2953 19.1099 16.566C19.4645 16.8273 19.6419 17.2147 19.6419 17.728C19.6419 18.3813 19.3712 18.834 18.8299 19.086C18.2885 19.338 17.5185 19.464 16.5199 19.464ZM16.5899 14.06C17.2525 14.06 17.7099 13.9527 17.9619 13.738C18.2139 13.5233 18.3399 13.1453 18.3399 12.604C18.3399 12.0627 18.2045 11.6707 17.9339 11.428C17.6725 11.1853 17.2245 11.064 16.5899 11.064C15.9645 11.064 15.5119 11.1807 15.2319 11.414C14.9519 11.6473 14.8119 12.044 14.8119 12.604C14.8119 13.1173 14.9425 13.4907 15.2039 13.724C15.4745 13.948 15.9365 14.06 16.5899 14.06Z" fill="#888888"/>
</svg>
