<svg width="24" height="24" viewBox="0 0 24 24" fill="none" xmlns="http://www.w3.org/2000/svg">
<path d="M9.69411 14.446C9.29278 14.446 9.02678 14.236 8.89611 13.816C8.70011 14.1893 8.50878 14.5113 8.32211 14.782C8.14478 15.0433 7.90678 15.3233 7.60811 15.622C7.30944 15.9113 6.95478 16.1307 6.54411 16.28C6.13344 16.4387 5.67144 16.518 5.15811 16.518C4.43011 16.518 3.82811 16.2893 3.35211 15.832C2.88544 15.3747 2.65211 14.768 2.65211 14.012C2.65211 13.6013 2.80611 13.2467 3.11411 12.948C3.42211 12.64 3.79078 12.486 4.22011 12.486C4.38811 12.486 4.62611 12.5887 4.93411 12.794C5.24211 12.9993 5.54078 13.102 5.83011 13.102C6.69811 13.102 8.10744 11.086 10.0581 7.054C10.3941 6.382 10.8234 6.046 11.3461 6.046C11.7381 6.046 12.0508 6.172 12.2841 6.424C12.5268 6.676 12.6481 7.00733 12.6481 7.418C12.6481 7.614 12.6434 7.91733 12.6341 8.328C12.6248 8.73867 12.6201 9.056 12.6201 9.28C12.6201 10.288 12.6388 11.1653 12.6761 11.912C12.9934 11.9213 13.2688 11.954 13.5021 12.01C13.7448 12.0567 13.9174 12.1127 14.0201 12.178C14.1321 12.2433 14.1881 12.3087 14.1881 12.374C14.1881 12.4767 14.1274 12.5513 14.0061 12.598C13.8941 12.6353 13.7261 12.6633 13.5021 12.682C13.2874 12.7007 13.1334 12.724 13.0401 12.752L12.7461 12.836C12.8954 14.6747 13.1288 15.594 13.4461 15.594C13.6701 15.594 13.7821 15.3887 13.7821 14.978C13.7821 14.9127 13.7774 14.81 13.7681 14.67C13.7588 14.53 13.7541 14.432 13.7541 14.376C13.7541 14.1427 13.8054 14.026 13.9081 14.026C14.0574 14.026 14.1741 14.124 14.2581 14.32C14.3421 14.5067 14.3841 14.7167 14.3841 14.95C14.3841 15.3233 14.2954 15.6267 14.1181 15.86C13.9501 16.0933 13.7354 16.21 13.4741 16.21C12.4568 16.21 11.7988 15.258 11.5001 13.354C11.2668 13.4847 11.0101 13.648 10.7301 13.844C10.4594 14.04 10.2448 14.1893 10.0861 14.292C9.92744 14.3947 9.79678 14.446 9.69411 14.446ZM9.55411 12.584C10.0114 12.3227 10.6088 12.136 11.3461 12.024C11.2901 11.2587 11.2621 10.0453 11.2621 8.384C10.8981 9.69067 10.3288 11.0907 9.55411 12.584ZM18.4617 15.846L18.6437 14.768C18.0091 15.4027 17.3231 15.72 16.5857 15.72C15.9977 15.72 15.5171 15.51 15.1437 15.09C14.7797 14.6607 14.5977 14.138 14.5977 13.522C14.5977 12.962 14.6911 12.4067 14.8777 11.856C15.0737 11.296 15.3864 10.806 15.8157 10.386C16.2451 9.966 16.7444 9.756 17.3137 9.756C17.7337 9.756 18.0837 9.882 18.3637 10.134C18.6437 10.386 18.8397 10.6427 18.9517 10.904C19.0637 10.6893 19.1804 10.5353 19.3017 10.442C19.4231 10.3487 19.5817 10.302 19.7777 10.302C20.1044 10.302 20.2677 10.568 20.2677 11.1C20.2677 11.548 20.2071 12.2527 20.0857 13.214C19.9644 14.166 19.8477 14.8613 19.7357 15.3C19.7637 15.2813 19.9271 15.1647 20.2257 14.95C20.5337 14.726 20.8137 14.53 21.0657 14.362C21.3271 14.1847 21.4951 14.096 21.5697 14.096C21.7191 14.096 21.7937 14.152 21.7937 14.264C21.7937 14.3573 21.5137 14.6373 20.9537 15.104C20.4031 15.5613 19.9504 15.9067 19.5957 16.14C18.9051 18.4453 17.9624 19.598 16.7677 19.598C16.3477 19.598 16.0257 19.4813 15.8017 19.248C15.5871 19.0147 15.4797 18.73 15.4797 18.394C15.4797 18.1047 15.5824 17.8153 15.7877 17.526C16.0024 17.246 16.2777 16.9987 16.6137 16.784C16.9497 16.5693 17.2671 16.3873 17.5657 16.238C17.8644 16.0887 18.1631 15.958 18.4617 15.846ZM17.2297 14.25C17.5004 14.25 17.7477 14.0587 17.9717 13.676C18.1957 13.284 18.3544 12.8313 18.4477 12.318C18.3357 12.374 18.2331 12.402 18.1397 12.402C18.0184 12.402 17.8597 12.3367 17.6637 12.206C17.4771 12.066 17.3277 11.996 17.2157 11.996C17.0477 11.996 16.9077 12.1453 16.7957 12.444C16.6931 12.7427 16.6417 13.0693 16.6417 13.424C16.6417 13.9747 16.8377 14.25 17.2297 14.25ZM18.2937 16.7C17.4164 17.148 16.9777 17.4933 16.9777 17.736C16.9777 17.82 17.0057 17.8947 17.0617 17.96C17.1177 18.0253 17.1831 18.058 17.2577 18.058C17.4817 18.058 17.6824 17.918 17.8597 17.638C18.0464 17.3673 18.1911 17.0547 18.2937 16.7Z" fill="#888888"/>
</svg>
