<svg width="24" height="24" viewBox="0 0 24 24" fill="none" xmlns="http://www.w3.org/2000/svg">
<path d="M5.67178 17L9.12978 8.495H9.65478L11.4538 17H11.0128L10.4738 14.459H7.19078L6.15478 17H5.67178ZM7.35878 13.997H10.3548L9.31878 9.174L7.35878 13.997ZM14.8529 20.367C14.2696 20.367 13.7773 20.2807 13.3759 20.108C12.9793 19.9353 12.6829 19.6997 12.4869 19.401C12.2909 19.1023 12.2046 18.7663 12.2279 18.393C12.2513 18.029 12.3679 17.7117 12.5779 17.441C12.7926 17.175 13.0843 16.9743 13.4529 16.839C13.2103 16.727 13.0353 16.5707 12.9279 16.37C12.8206 16.1647 12.7763 15.943 12.7949 15.705C12.8229 15.369 12.9513 15.096 13.1799 14.886C13.4133 14.676 13.6769 14.5407 13.9709 14.48C13.8076 14.2607 13.6863 13.9993 13.6069 13.696C13.5323 13.3927 13.5113 13.059 13.5439 12.695C13.5906 12.2143 13.7236 11.7943 13.9429 11.435C14.1669 11.071 14.4563 10.7887 14.8109 10.588C15.1656 10.3827 15.5646 10.28 16.0079 10.28C16.3206 10.28 16.6076 10.3313 16.8689 10.434C17.1303 10.5367 17.3473 10.6883 17.5199 10.889C17.5899 10.595 17.6949 10.336 17.8349 10.112C17.9749 9.888 18.1569 9.713 18.3809 9.587C18.6096 9.461 18.8919 9.398 19.2279 9.398L19.0319 9.958C18.6679 9.958 18.3739 10.0583 18.1499 10.259C17.9306 10.455 17.7883 10.777 17.7229 11.225C17.8349 11.421 17.9166 11.6427 17.9679 11.89C18.0193 12.1327 18.0309 12.401 18.0029 12.695C17.9563 13.1757 17.8163 13.605 17.5829 13.983C17.3543 14.361 17.0579 14.6573 16.6939 14.872C16.3299 15.0867 15.9263 15.194 15.4829 15.194C15.2263 15.194 14.9813 15.1567 14.7479 15.082C14.5146 15.0027 14.3093 14.8907 14.1319 14.746C13.9173 14.774 13.7236 14.872 13.5509 15.04C13.3783 15.208 13.2733 15.432 13.2359 15.712C13.2033 15.9593 13.2639 16.1647 13.4179 16.328C13.5766 16.4913 13.9103 16.573 14.4189 16.573H17.0649C17.5363 16.573 17.9003 16.706 18.1569 16.972C18.4136 17.238 18.5279 17.5693 18.4999 17.966C18.4719 18.3673 18.2993 18.7523 17.9819 19.121C17.6646 19.4897 17.2376 19.7883 16.7009 20.017C16.1643 20.2503 15.5483 20.367 14.8529 20.367ZM14.8179 19.954C15.3919 19.954 15.9169 19.863 16.3929 19.681C16.8689 19.499 17.2516 19.2587 17.5409 18.96C17.8349 18.666 17.9959 18.344 18.0239 17.994C18.0473 17.728 17.9796 17.4923 17.8209 17.287C17.6623 17.0817 17.4009 16.979 17.0369 16.979H14.2719C13.8193 16.979 13.4483 17.119 13.1589 17.399C12.8696 17.679 12.7133 18.0127 12.6899 18.4C12.6713 18.8107 12.8276 19.1723 13.1589 19.485C13.4949 19.7977 14.0479 19.954 14.8179 19.954ZM15.5669 14.788C15.9216 14.788 16.2436 14.697 16.5329 14.515C16.8223 14.333 17.0603 14.0833 17.2469 13.766C17.4336 13.4487 17.5456 13.0917 17.5829 12.695C17.6389 12.1117 17.5176 11.6333 17.2189 11.26C16.9249 10.882 16.5073 10.693 15.9659 10.693C15.4339 10.693 14.9859 10.8773 14.6219 11.246C14.2579 11.6147 14.0456 12.0977 13.9849 12.695C13.9243 13.2877 14.0409 13.7847 14.3349 14.186C14.6289 14.5873 15.0396 14.788 15.5669 14.788Z" fill="#888888"/>
</svg>
