<svg width="24" height="24" viewBox="0 0 24 24" fill="none" xmlns="http://www.w3.org/2000/svg">
<path d="M3.35195 17L6.44595 7.914H8.51795L11.4859 17H9.74995L9.11995 15.04H5.74595L5.10195 17H3.35195ZM6.16595 13.794H8.72795L7.45395 9.888L6.16595 13.794ZM15.7276 20.514C14.9483 20.514 14.281 20.4067 13.7256 20.192C13.175 19.9773 12.7526 19.695 12.4586 19.345C12.1646 18.9997 12.0176 18.624 12.0176 18.218C12.0176 17.7373 12.1926 17.364 12.5426 17.098C12.8926 16.8367 13.3336 16.706 13.8656 16.706L15.0696 17.154C14.6123 17.154 14.26 17.2403 14.0126 17.413C13.7653 17.5857 13.6416 17.826 13.6416 18.134C13.6416 18.456 13.826 18.7127 14.1946 18.904C14.568 19.1 15.079 19.198 15.7276 19.198C16.199 19.198 16.6073 19.128 16.9526 18.988C17.298 18.848 17.564 18.666 17.7506 18.442C17.942 18.218 18.0376 17.98 18.0376 17.728C18.0376 17.56 17.9816 17.4223 17.8696 17.315C17.7576 17.2077 17.585 17.154 17.3516 17.154H15.0696C14.6123 17.154 14.1946 17.0817 13.8166 16.937C13.4433 16.7877 13.1446 16.5893 12.9206 16.342C12.7013 16.09 12.5916 15.81 12.5916 15.502C12.5916 15.2173 12.671 14.9723 12.8296 14.767C12.9883 14.557 13.203 14.396 13.4736 14.284C13.749 14.172 14.057 14.116 14.3976 14.116L14.8176 14.662C14.6823 14.662 14.5516 14.69 14.4256 14.746C14.3043 14.7973 14.204 14.8743 14.1246 14.977C14.0453 15.0797 14.0056 15.208 14.0056 15.362C14.0056 15.5487 14.085 15.7003 14.2436 15.817C14.4023 15.9337 14.6776 15.992 15.0696 15.992H17.3516C18.075 15.992 18.642 16.125 19.0526 16.391C19.468 16.657 19.6756 17.0653 19.6756 17.616C19.6756 18.106 19.5146 18.5703 19.1926 19.009C18.8706 19.4523 18.4133 19.814 17.8206 20.094C17.2326 20.374 16.535 20.514 15.7276 20.514ZM15.8116 14.9C15.275 14.9 14.7826 14.7997 14.3346 14.599C13.8913 14.3937 13.5366 14.109 13.2706 13.745C13.0046 13.381 12.8716 12.954 12.8716 12.464C12.8716 11.9647 13.0046 11.5307 13.2706 11.162C13.5366 10.7933 13.8913 10.511 14.3346 10.315C14.7826 10.1143 15.275 10.014 15.8116 10.014C16.3343 10.014 16.8173 10.1143 17.2606 10.315C17.704 10.511 18.061 10.7933 18.3316 11.162C18.6023 11.5307 18.7376 11.9647 18.7376 12.464C18.7376 12.954 18.6023 13.381 18.3316 13.745C18.061 14.109 17.704 14.3937 17.2606 14.599C16.8173 14.7997 16.3343 14.9 15.8116 14.9ZM15.8256 13.752C16.255 13.752 16.577 13.6283 16.7916 13.381C17.0063 13.1337 17.1136 12.828 17.1136 12.464C17.1136 12.072 17.004 11.757 16.7846 11.519C16.57 11.281 16.2456 11.162 15.8116 11.162C15.3916 11.162 15.0696 11.281 14.8456 11.519C14.6216 11.757 14.5096 12.072 14.5096 12.464C14.5096 12.828 14.6216 13.1337 14.8456 13.381C15.0743 13.6283 15.401 13.752 15.8256 13.752ZM18.2196 11.106L17.4636 10.672C17.4636 10.266 17.557 9.91133 17.7436 9.608C17.935 9.3 18.187 9.062 18.4996 8.894C18.817 8.726 19.167 8.642 19.5496 8.642L19.4656 10.224C19.0596 10.224 18.7493 10.2963 18.5346 10.441C18.3246 10.581 18.2196 10.8027 18.2196 11.106Z" fill="#888888"/>
</svg>
