<svg width="24" height="24" viewBox="0 0 24 24" fill="none" xmlns="http://www.w3.org/2000/svg">
<path d="M6.44595 7.914H8.51795L11.4999 17H9.74995L9.11995 15.04H5.74595L5.10195 17H3.35195L6.44595 7.914ZM6.16595 13.794H8.71395L7.45395 9.888L6.16595 13.794ZM13.6976 14.214C13.147 13.7473 12.8716 13.164 12.8716 12.464C12.8716 11.7267 13.161 11.1293 13.7396 10.672C14.2996 10.2333 14.939 10.014 15.6576 10.014C16.3856 10.014 16.9923 10.1493 17.4776 10.42C17.5336 9.888 17.7623 9.45867 18.1636 9.132C18.5556 8.80533 19.0176 8.642 19.5496 8.642L19.4656 10.224C18.663 10.224 18.2476 10.49 18.2196 11.022C18.565 11.4513 18.7376 11.89 18.7376 12.338C18.7376 12.786 18.6583 13.164 18.4996 13.472C18.341 13.7707 18.1263 14.0227 17.8556 14.228C17.2956 14.676 16.6143 14.9 15.8116 14.9C15.3543 14.9 14.939 14.83 14.5656 14.69C14.1923 14.802 14.0056 15.026 14.0056 15.362C14.0056 15.782 14.3603 15.992 15.0696 15.992H17.3516C18.901 15.992 19.6756 16.5333 19.6756 17.616C19.6756 17.98 19.5823 18.3347 19.3956 18.68C19.2183 19.0347 18.957 19.3473 18.6116 19.618C17.8463 20.2153 16.885 20.514 15.7276 20.514C14.6076 20.514 13.6976 20.2853 12.9976 19.828C12.3443 19.3893 12.0176 18.8527 12.0176 18.218C12.0176 17.798 12.1436 17.462 12.3956 17.21C12.657 16.9673 12.9976 16.8133 13.4176 16.748C12.867 16.412 12.5916 15.9967 12.5916 15.502C12.5916 15.1753 12.6943 14.9047 12.8996 14.69C13.105 14.466 13.371 14.3073 13.6976 14.214ZM14.9576 17.154C14.0803 17.1913 13.6416 17.5227 13.6416 18.148C13.6416 18.4653 13.8236 18.7173 14.1876 18.904C14.561 19.1 14.9996 19.198 15.5036 19.198C16.0076 19.198 16.3996 19.156 16.6796 19.072C16.969 18.988 17.2116 18.876 17.4076 18.736C17.8276 18.456 18.0376 18.12 18.0376 17.728C18.0376 17.56 17.977 17.42 17.8556 17.308C17.7436 17.2053 17.5756 17.154 17.3516 17.154H14.9576ZM17.0996 12.45C17.0996 12.0673 16.9923 11.7593 16.7776 11.526C16.5723 11.2833 16.255 11.162 15.8256 11.162C15.3963 11.162 15.0696 11.2833 14.8456 11.526C14.6216 11.7593 14.5096 12.0673 14.5096 12.45C14.5096 12.8233 14.6216 13.1313 14.8456 13.374C15.0696 13.6167 15.3963 13.738 15.8256 13.738C16.255 13.738 16.5723 13.6167 16.7776 13.374C16.9923 13.1313 17.0996 12.8233 17.0996 12.45Z" fill="#333333"/>
</svg>
