<svg width="24" height="24" viewBox="0 0 24 24" fill="none" xmlns="http://www.w3.org/2000/svg">
<path d="M7.40363 8.194H8.74763L11.7016 17H10.5536L9.79763 14.76H6.29763L5.54163 17H4.37963L7.40363 8.194ZM6.59163 13.892H9.51763L8.06163 9.552L6.59163 13.892ZM13.7624 16.79C13.2024 16.5193 12.9224 16.104 12.9224 15.544C12.9224 15.2547 13.0297 15.0027 13.2444 14.788C13.4684 14.564 13.7437 14.4147 14.0704 14.34C13.5664 13.892 13.3144 13.304 13.3144 12.576C13.3144 11.848 13.571 11.26 14.0844 10.812C14.607 10.364 15.223 10.14 15.9324 10.14C16.6417 10.14 17.2437 10.308 17.7384 10.644C17.8037 10.1493 17.9997 9.75267 18.3264 9.454C18.6624 9.15533 19.101 9.006 19.6424 9.006L19.5444 10.098C18.723 10.098 18.2937 10.4433 18.2564 11.134C18.583 11.5353 18.7464 12.016 18.7464 12.576C18.7464 13.2947 18.485 13.8873 17.9624 14.354C17.449 14.8113 16.805 15.04 16.0304 15.04C15.4984 15.04 15.027 14.9327 14.6164 14.718C14.4297 14.7553 14.2617 14.844 14.1124 14.984C13.963 15.1147 13.8884 15.2967 13.8884 15.53C13.8884 16.0247 14.299 16.272 15.1204 16.272H17.7244C18.3497 16.272 18.8444 16.4073 19.2084 16.678C19.5724 16.9393 19.7544 17.308 19.7544 17.784C19.7544 18.4933 19.395 19.114 18.6764 19.646C17.967 20.178 17.0664 20.444 15.9744 20.444C14.8824 20.444 14.0237 20.2387 13.3984 19.828C12.773 19.4267 12.4604 18.918 12.4604 18.302C12.4604 17.9007 12.577 17.574 12.8104 17.322C13.053 17.07 13.3704 16.8927 13.7624 16.79ZM13.5524 18.26C13.5524 18.6147 13.7437 18.918 14.1264 19.17C14.5184 19.4313 15.1064 19.562 15.8904 19.562C16.6837 19.562 17.3417 19.3893 17.8644 19.044C18.3964 18.708 18.6624 18.3113 18.6624 17.854C18.6624 17.6393 18.583 17.4527 18.4244 17.294C18.275 17.1447 18.0417 17.07 17.7244 17.07H15.0224C14.5464 17.0887 14.1824 17.2007 13.9304 17.406C13.6784 17.6207 13.5524 17.9053 13.5524 18.26ZM17.6684 12.576C17.6684 12.0907 17.5237 11.6987 17.2344 11.4C16.945 11.092 16.5437 10.938 16.0304 10.938C15.5264 10.938 15.1297 11.092 14.8404 11.4C14.551 11.6987 14.4064 12.0907 14.4064 12.576C14.4064 13.0613 14.551 13.4627 14.8404 13.78C15.139 14.088 15.5404 14.242 16.0444 14.242C16.5484 14.242 16.945 14.0833 17.2344 13.766C17.5237 13.4487 17.6684 13.052 17.6684 12.576Z" fill="#333333"/>
</svg>
