<svg width="24" height="24" viewBox="0 0 24 24" fill="none" xmlns="http://www.w3.org/2000/svg">
<path d="M11.9992 15H9.46519V14.888C9.46519 14.6827 9.52585 14.552 9.64719 14.496C9.70319 14.468 9.77319 14.4493 9.85719 14.44L10.5572 14.398L9.75919 11.696H6.67919L5.89519 14.37L6.93119 14.454C6.96852 14.818 6.86119 15 6.60919 15H4.25719V14.888C4.25719 14.6827 4.31785 14.552 4.43919 14.496C4.50452 14.468 4.76119 14.4353 5.20919 14.398L7.92519 5.536C8.18652 5.49867 8.44785 5.49867 8.70919 5.536L11.4112 14.37H11.4252L12.3212 14.454C12.3585 14.818 12.2512 15 11.9992 15ZM6.87519 11.066H9.57719L8.21919 6.474L6.87519 11.066ZM15.3687 12.83C15.2007 12.83 14.9954 12.8113 14.7527 12.774C14.4354 13.11 14.2907 13.3433 14.3187 13.474C14.3467 13.5953 14.734 13.6653 15.4807 13.684C16.6754 13.7027 17.5107 13.838 17.9867 14.09C18.472 14.3327 18.7147 14.818 18.7147 15.546C18.7147 16.2833 18.4207 16.8993 17.8327 17.394C17.254 17.8887 16.498 18.136 15.5647 18.136C14.6407 18.136 13.936 17.9587 13.4507 17.604C12.9654 17.2587 12.7227 16.8107 12.7227 16.26C12.7227 15.4947 13.124 14.8367 13.9267 14.286C13.656 14.1833 13.5207 13.9873 13.5207 13.698C13.5207 13.4087 13.754 13.04 14.2207 12.592C13.5207 12.2467 13.138 11.6727 13.0727 10.87C13.0074 10.0673 13.2034 9.39067 13.6607 8.84C14.118 8.28 14.7434 8 15.5367 8C16.0874 8 16.5587 8.13533 16.9507 8.406L18.5887 7.986C18.6727 8.098 18.7194 8.224 18.7287 8.364C18.738 8.49467 18.6914 8.60667 18.5887 8.7C18.4487 8.77467 18.0334 8.80267 17.3427 8.784C17.66 9.18533 17.8094 9.722 17.7907 10.394C17.7814 11.066 17.5667 11.64 17.1467 12.116C16.736 12.592 16.1434 12.83 15.3687 12.83ZM15.4527 8.56C14.958 8.56933 14.566 8.756 14.2767 9.12C13.9874 9.47467 13.8427 9.904 13.8427 10.408C13.8427 10.9027 13.9827 11.3413 14.2627 11.724C14.5427 12.1067 14.93 12.2933 15.4247 12.284C15.9194 12.2747 16.3067 12.0833 16.5867 11.71C16.876 11.3273 17.0207 10.8887 17.0207 10.394C17.0207 9.89 16.8807 9.456 16.6007 9.092C16.33 8.71867 15.9474 8.54133 15.4527 8.56ZM13.4367 16.036C13.4367 16.4747 13.642 16.8107 14.0527 17.044C14.4634 17.2867 15.028 17.408 15.7467 17.408C16.4654 17.408 17.0394 17.2353 17.4687 16.89C17.898 16.5447 18.1127 16.134 18.1127 15.658C18.1127 15.0793 17.7534 14.7247 17.0347 14.594C16.624 14.5193 16.106 14.4727 15.4807 14.454C14.8554 14.4353 14.4774 14.4167 14.3467 14.398C14.076 14.594 13.8567 14.8413 13.6887 15.14C13.5207 15.448 13.4367 15.7467 13.4367 16.036Z" fill="#333333"/>
</svg>
