<svg width="24" height="24" viewBox="0 0 24 24" fill="none" xmlns="http://www.w3.org/2000/svg">
<path d="M11.8951 14H8.61912V13.888C8.61912 13.3747 8.82445 13.0993 9.23512 13.062L9.64112 13.034H9.65512L9.09512 11.004H6.57512L5.98712 13.006L7.12112 13.09C7.14912 13.146 7.14445 13.272 7.10712 13.468C7.02312 13.8227 6.81778 14 6.49112 14H3.67712V13.888C3.67712 13.3747 3.88245 13.0993 4.29312 13.062L4.81112 13.034L7.49912 4.41C7.90045 4.37267 8.37178 4.37267 8.91312 4.41L11.5451 13.006L12.5251 13.09C12.5531 13.146 12.5485 13.272 12.5111 13.468C12.4271 13.8227 12.2218 14 11.8951 14ZM6.84112 10.066H8.84312L7.87712 6.524L6.84112 10.066ZM15.8453 11.956C15.612 11.956 15.3786 11.9327 15.1453 11.886C15.0146 12.1193 14.9493 12.2873 14.9493 12.39C14.9493 12.4927 15.0566 12.5627 15.2713 12.6C15.486 12.628 15.9946 12.656 16.7973 12.684C17.6 12.712 18.2206 12.8567 18.6593 13.118C19.1073 13.37 19.3313 13.8087 19.3313 14.434C19.3313 15.2927 19 15.9787 18.3373 16.492C17.6746 17.0053 16.858 17.262 15.8873 17.262C14.926 17.262 14.2026 17.0847 13.7173 16.73C13.2413 16.3753 13.0033 15.918 13.0033 15.358C13.0033 14.798 13.274 14.266 13.8153 13.762C13.6753 13.594 13.6053 13.37 13.6053 13.09C13.6053 12.5953 13.8386 12.0773 14.3053 11.536C13.5866 11.0693 13.2273 10.36 13.2273 9.408C13.2273 8.63333 13.4746 7.994 13.9693 7.49C14.4733 6.97667 15.1453 6.72 15.9853 6.72C16.536 6.72 17.0213 6.832 17.4413 7.056L19.3173 6.552C19.4013 6.65467 19.448 6.846 19.4573 7.126C19.4666 7.406 19.42 7.59267 19.3173 7.686C19.1773 7.76067 18.8133 7.78867 18.2253 7.77C18.496 8.17133 18.6126 8.73133 18.5753 9.45C18.538 10.1593 18.272 10.7567 17.7773 11.242C17.2826 11.718 16.6386 11.956 15.8453 11.956ZM18.1413 14.868C18.1413 14.6533 17.9826 14.5133 17.6653 14.448C17.348 14.3827 16.8113 14.3313 16.0553 14.294C15.2993 14.2567 14.814 14.2147 14.5993 14.168C14.366 14.448 14.2493 14.7327 14.2493 15.022C14.2493 15.3113 14.3986 15.5493 14.6973 15.736C14.996 15.9227 15.444 16.016 16.0413 16.016C16.6386 16.016 17.138 15.904 17.5393 15.68C17.9406 15.4653 18.1413 15.1947 18.1413 14.868ZM15.8733 10.934C16.2093 10.934 16.4753 10.7987 16.6713 10.528C16.8673 10.248 16.9653 9.86067 16.9653 9.366C16.9653 8.862 16.872 8.47467 16.6853 8.204C16.4986 7.924 16.2326 7.784 15.8873 7.784C15.542 7.784 15.276 7.924 15.0893 8.204C14.912 8.484 14.8233 8.876 14.8233 9.38C14.8233 10.416 15.1733 10.934 15.8733 10.934Z" fill="#333333"/>
</svg>
