<svg width="24" height="24" viewBox="0 0 24 24" fill="none" xmlns="http://www.w3.org/2000/svg">
<path d="M11.8951 16H8.61912V15.888C8.61912 15.3747 8.82445 15.0993 9.23512 15.062L9.64112 15.034H9.65512L9.09512 13.004H6.57512L5.98712 15.006L7.12112 15.09C7.14912 15.146 7.14445 15.272 7.10712 15.468C7.02312 15.8227 6.81778 16 6.49112 16H3.67712V15.888C3.67712 15.3747 3.88245 15.0993 4.29312 15.062L4.81112 15.034L7.49912 6.41C7.90045 6.37267 8.37178 6.37267 8.91312 6.41L11.5451 15.006L12.5251 15.09C12.5531 15.146 12.5485 15.272 12.5111 15.468C12.4271 15.8227 12.2218 16 11.8951 16ZM6.84112 12.066H8.84312L7.87712 8.524L6.84112 12.066ZM15.8453 13.956C15.612 13.956 15.3786 13.9327 15.1453 13.886C15.0146 14.1193 14.9493 14.2873 14.9493 14.39C14.9493 14.4927 15.0566 14.5627 15.2713 14.6C15.486 14.628 15.9946 14.656 16.7973 14.684C17.6 14.712 18.2206 14.8567 18.6593 15.118C19.1073 15.37 19.3313 15.8087 19.3313 16.434C19.3313 17.2927 19 17.9787 18.3373 18.492C17.6746 19.0053 16.858 19.262 15.8873 19.262C14.926 19.262 14.2026 19.0847 13.7173 18.73C13.2413 18.3753 13.0033 17.918 13.0033 17.358C13.0033 16.798 13.274 16.266 13.8153 15.762C13.6753 15.594 13.6053 15.37 13.6053 15.09C13.6053 14.5953 13.8386 14.0773 14.3053 13.536C13.5866 13.0693 13.2273 12.36 13.2273 11.408C13.2273 10.6333 13.4746 9.994 13.9693 9.49C14.4733 8.97667 15.1453 8.72 15.9853 8.72C16.536 8.72 17.0213 8.832 17.4413 9.056L19.3173 8.552C19.4013 8.65467 19.448 8.846 19.4573 9.126C19.4666 9.406 19.42 9.59267 19.3173 9.686C19.1773 9.76067 18.8133 9.78867 18.2253 9.77C18.496 10.1713 18.6126 10.7313 18.5753 11.45C18.538 12.1593 18.272 12.7567 17.7773 13.242C17.2826 13.718 16.6386 13.956 15.8453 13.956ZM18.1413 16.868C18.1413 16.6533 17.9826 16.5133 17.6653 16.448C17.348 16.3827 16.8113 16.3313 16.0553 16.294C15.2993 16.2567 14.814 16.2147 14.5993 16.168C14.366 16.448 14.2493 16.7327 14.2493 17.022C14.2493 17.3113 14.3986 17.5493 14.6973 17.736C14.996 17.9227 15.444 18.016 16.0413 18.016C16.6386 18.016 17.138 17.904 17.5393 17.68C17.9406 17.4653 18.1413 17.1947 18.1413 16.868ZM15.8733 12.934C16.2093 12.934 16.4753 12.7987 16.6713 12.528C16.8673 12.248 16.9653 11.8607 16.9653 11.366C16.9653 10.862 16.872 10.4747 16.6853 10.204C16.4986 9.924 16.2326 9.784 15.8873 9.784C15.542 9.784 15.276 9.924 15.0893 10.204C14.912 10.484 14.8233 10.876 14.8233 11.38C14.8233 12.416 15.1733 12.934 15.8733 12.934Z" fill="#888888"/>
</svg>
