<svg width="24" height="24" viewBox="0 0 24 24" fill="none" xmlns="http://www.w3.org/2000/svg">
<path d="M11.1694 10.74C11.2627 11.0013 11.3654 11.2113 11.4774 11.37C11.5894 11.5193 11.762 11.6827 11.9954 11.86L11.8694 12H9.33536L9.25136 11.748L9.46136 11.692C9.60136 11.6453 9.69936 11.5893 9.75536 11.524C9.82069 11.4493 9.85336 11.3513 9.85336 11.23C9.85336 11.1553 9.80203 10.964 9.69936 10.656L9.41936 9.83H7.24936L7.13736 10.18C6.99736 10.6 6.92736 10.9173 6.92736 11.132C6.92736 11.3373 6.96469 11.524 7.03936 11.692L7.13736 11.86L7.01136 12H5.47136L5.37336 11.748L5.58336 11.692C5.80736 11.6267 5.97536 11.538 6.08736 11.426C6.19936 11.3047 6.30669 11.0947 6.40936 10.796L7.83736 6.68C7.90269 6.44667 7.93536 6.28333 7.93536 6.19C7.93536 5.98467 7.78603 5.84 7.48736 5.756L7.33336 5.714L7.43136 5.462H9.33536L11.1694 10.74ZM9.27936 9.438L8.32736 6.596L7.38936 9.438H9.27936ZM13.8682 13.316C13.8682 13.5213 13.9289 13.6893 14.0502 13.82C14.1809 13.9507 14.3442 14.016 14.5402 14.016C15.1935 14.016 15.5202 13.484 15.5202 12.42V11.062C15.2869 11.3327 15.0442 11.5333 14.7922 11.664C14.5402 11.7947 14.2602 11.86 13.9522 11.86C13.4949 11.86 13.1215 11.6687 12.8322 11.286C12.5522 10.9033 12.4122 10.3993 12.4122 9.774C12.4122 9.02733 12.6409 8.43933 13.0982 8.01C13.5555 7.57133 14.1715 7.352 14.9462 7.352C15.1515 7.352 15.3755 7.37067 15.6182 7.408C15.8702 7.44533 16.0242 7.46867 16.0802 7.478C16.4722 7.534 16.7429 7.57133 16.8922 7.59L17.0042 7.702L16.8922 7.87C16.8082 7.982 16.7662 8.09867 16.7662 8.22V12C16.7662 12.7373 16.5515 13.3067 16.1222 13.708C15.7022 14.1187 15.1142 14.324 14.3582 14.324C13.8915 14.324 13.5135 14.2353 13.2242 14.058C12.9349 13.8807 12.7902 13.6473 12.7902 13.358C12.7902 13.106 12.8649 12.9007 13.0142 12.742C13.1635 12.5927 13.3595 12.518 13.6022 12.518C13.7795 12.518 13.9522 12.5553 14.1202 12.63C13.9522 12.798 13.8682 13.0267 13.8682 13.316ZM14.6242 11.188C14.9975 11.188 15.2915 10.992 15.5062 10.6V7.814C15.2915 7.72067 15.0862 7.674 14.8902 7.674C14.5355 7.674 14.2649 7.83267 14.0782 8.15C13.9009 8.458 13.8122 8.91067 13.8122 9.508C13.8122 10.0493 13.8822 10.4647 14.0222 10.754C14.1622 11.0433 14.3629 11.188 14.6242 11.188Z" fill="#333333"/>
</svg>
