<svg width="24" height="24" viewBox="0 0 24 24" fill="none" xmlns="http://www.w3.org/2000/svg">
<g clip-path="url(#clip0_235_1608)">
<path d="M11.9405 14.8677C12.0984 15.3099 12.2721 15.6653 12.4617 15.9338C12.6512 16.1866 12.9434 16.463 13.3383 16.7631L13.1251 17H8.83676L8.69461 16.5735L9.04999 16.4788C9.28692 16.3998 9.45276 16.305 9.54753 16.1945C9.6581 16.0681 9.71338 15.9023 9.71338 15.6969C9.71338 15.5706 9.62651 15.2468 9.45276 14.7255L8.97892 13.3277H5.30661L5.11707 13.92C4.88015 14.6308 4.76168 15.1678 4.76168 15.5311C4.76168 15.8786 4.82486 16.1945 4.95122 16.4788L5.11707 16.7631L4.90384 17H2.29768L2.13184 16.5735L2.48722 16.4788C2.8663 16.3682 3.15061 16.2182 3.34015 16.0286C3.52968 15.8233 3.71133 15.4679 3.88507 14.9625L6.30168 7.99692C6.41225 7.60205 6.46753 7.32564 6.46753 7.16769C6.46753 6.8202 6.21481 6.57538 5.70938 6.43323L5.44876 6.36215L5.61461 5.93569H8.83676L11.9405 14.8677ZM8.74199 12.6643L7.13092 7.85477L5.54353 12.6643H8.74199ZM16.5077 19.2271C16.5077 19.5746 16.6104 19.8589 16.8157 20.08C17.0368 20.3011 17.3132 20.4117 17.6449 20.4117C18.7506 20.4117 19.3034 19.5114 19.3034 17.7108V15.4126C18.9085 15.8707 18.4979 16.2103 18.0714 16.4314C17.6449 16.6525 17.1711 16.7631 16.6499 16.7631C15.8759 16.7631 15.2441 16.4393 14.7545 15.7917C14.2806 15.1441 14.0437 14.2912 14.0437 13.2329C14.0437 11.9693 14.4307 10.9743 15.2046 10.2477C15.9786 9.50533 17.021 9.13415 18.332 9.13415C18.6795 9.13415 19.0586 9.16574 19.4692 9.22892C19.8957 9.2921 20.1563 9.33159 20.2511 9.34738C20.9145 9.44215 21.3725 9.50533 21.6252 9.53692L21.8148 9.72646L21.6252 10.0108C21.4831 10.2003 21.412 10.3977 21.412 10.6031V17C21.412 18.2478 21.0487 19.2113 20.3222 19.8905C19.6114 20.5854 18.6163 20.9329 17.3369 20.9329C16.5472 20.9329 15.9075 20.7829 15.4179 20.4828C14.9282 20.1827 14.6834 19.7878 14.6834 19.2982C14.6834 18.8717 14.8098 18.5242 15.0625 18.2557C15.3152 18.003 15.6469 17.8766 16.0575 17.8766C16.3577 17.8766 16.6499 17.9398 16.9342 18.0662C16.6499 18.3505 16.5077 18.7374 16.5077 19.2271ZM17.7871 15.6258C18.4189 15.6258 18.9164 15.2942 19.2797 14.6308V9.916C18.9164 9.75805 18.5689 9.67908 18.2372 9.67908C17.637 9.67908 17.179 9.94759 16.8631 10.4846C16.563 11.0058 16.4129 11.7719 16.4129 12.7828C16.4129 13.6989 16.5314 14.4017 16.7683 14.8914C17.0052 15.381 17.3448 15.6258 17.7871 15.6258Z" fill="#888888"/>
</g>
<defs>
<clipPath id="clip0_235_1608">
<rect width="24" height="24" fill="white"/>
</clipPath>
</defs>
</svg>
