<svg width="24" height="24" viewBox="0 0 24 24" fill="none" xmlns="http://www.w3.org/2000/svg">
<path d="M3.64648 14.8057C3.92448 14.8968 4.17741 14.9697 4.40527 15.0244C4.84733 13.2471 5.35091 11.1484 5.91602 8.72852L4.26855 8.55078C4.16374 8.26367 4.11133 7.93783 4.11133 7.57324C4.11133 7.29525 4.14323 7.02409 4.20703 6.75977C4.86784 6.63216 5.62891 6.54102 6.49023 6.48633C7.35612 6.42708 8.09896 6.39746 8.71875 6.39746C9.16536 6.39746 9.50033 6.39974 9.72363 6.4043L10.1543 6.65039C10.9199 8.7513 11.6969 11.5928 12.4854 15.1748C12.4945 15.2113 12.5104 15.2842 12.5332 15.3936C12.5605 15.5029 12.5811 15.6077 12.5947 15.708C12.6084 15.8037 12.6152 15.8949 12.6152 15.9814C12.6152 16.3643 12.4785 16.6742 12.2051 16.9111C11.8223 17.0615 11.3597 17.1367 10.8174 17.1367C10.5622 17.1367 10.3047 17.1094 10.0449 17.0547C9.78516 17 9.6097 16.9157 9.51855 16.8018L9.60059 15.0381L9.42969 14.1221C9.13346 14.1403 8.78483 14.1494 8.38379 14.1494C7.9554 14.1494 7.55436 14.1357 7.18066 14.1084L7.09863 14.4775C6.9209 15.2705 6.77507 15.8333 6.66113 16.166C6.55176 16.4987 6.3877 16.7448 6.16895 16.9043C5.95475 17.0638 5.63346 17.1436 5.20508 17.1436C4.92708 17.1436 4.64681 17.1071 4.36426 17.0342C4.08171 16.9658 3.8265 16.8724 3.59863 16.7539C3.37077 16.6354 3.19987 16.5078 3.08594 16.3711C3.08594 16.043 3.13607 15.7308 3.23633 15.4346C3.33659 15.1383 3.47331 14.9287 3.64648 14.8057ZM8.43848 8.79004H8.12402L7.63184 12.1602H9.16309L8.43848 8.79004ZM17.3047 18.0869C17.61 18.0869 17.8743 18.0527 18.0977 17.9844C18.166 17.916 18.2139 17.8363 18.2412 17.7451C18.2686 17.6585 18.2822 17.5765 18.2822 17.499C18.2822 17.417 18.2754 17.3555 18.2617 17.3145C18.248 17.278 18.2253 17.2438 18.1934 17.2119C18.002 17.18 17.7764 17.1572 17.5166 17.1436C17.2614 17.1344 17.1087 17.1276 17.0586 17.123C16.4251 17.0957 15.9102 17.0501 15.5137 16.9863C15.1172 16.918 14.7777 16.7721 14.4951 16.5488C14.2126 16.321 14.0713 15.9792 14.0713 15.5234C14.0713 15.2773 14.151 15.0472 14.3105 14.833C14.4701 14.6143 14.6774 14.4229 14.9326 14.2588C14.4131 14.0446 13.9961 13.7233 13.6816 13.2949C13.3717 12.862 13.2168 12.3037 13.2168 11.6201C13.2168 10.9411 13.39 10.3965 13.7363 9.98633C14.0872 9.57161 14.5179 9.27995 15.0283 9.11133C15.5387 8.94271 16.0583 8.8584 16.5869 8.8584C16.9196 8.8584 17.2454 8.8903 17.5645 8.9541C17.8835 9.0179 18.1797 9.10905 18.4531 9.22754L18.1592 7.49121C18.4372 7.32259 18.7835 7.23828 19.1982 7.23828C19.499 7.23828 19.7793 7.28841 20.0391 7.38867C20.2988 7.48893 20.4971 7.63249 20.6338 7.81934C20.6429 7.86491 20.6475 7.93783 20.6475 8.03809C20.6475 8.41178 20.5791 8.82878 20.4424 9.28906C20.3102 9.74479 20.0801 10.1117 19.752 10.3896C19.916 10.7178 19.998 11.071 19.998 11.4492C19.998 12.0052 19.891 12.5179 19.6768 12.9873C19.4671 13.4567 19.1162 13.8395 18.624 14.1357C18.1318 14.4274 17.4915 14.5732 16.7031 14.5732C16.4753 14.5732 16.2383 14.5596 15.9922 14.5322C15.9785 14.7601 16.0332 14.988 16.1562 15.2158C16.7715 15.0973 17.2682 15.0358 17.6465 15.0312L18.1113 15.0244C18.7402 15.0244 19.2165 15.0632 19.54 15.1406C19.8955 15.2272 20.1598 15.4232 20.333 15.7285C20.5107 16.0339 20.5996 16.4053 20.5996 16.8428C20.5996 17.5264 20.39 18.1006 19.9707 18.5654C19.556 19.0348 19.016 19.3835 18.3506 19.6113C17.6898 19.8392 16.988 19.9531 16.2451 19.9531C15.557 19.9531 14.944 19.8369 14.4062 19.6045C13.8685 19.3721 13.529 18.946 13.3877 18.3262C13.5381 17.8021 13.8252 17.4056 14.249 17.1367C14.8187 17.4785 15.3633 17.7223 15.8828 17.8682C16.4069 18.014 16.8809 18.0869 17.3047 18.0869ZM16.8877 12.8848C17.2158 12.8848 17.4072 12.8643 17.4619 12.8232C17.585 12.5771 17.6465 12.3242 17.6465 12.0645C17.6465 11.7956 17.585 11.5426 17.4619 11.3057C17.4027 11.2555 17.2705 11.2168 17.0654 11.1895C16.8649 11.1621 16.6462 11.1484 16.4092 11.1484C16.113 11.1484 15.9147 11.1667 15.8145 11.2031C15.6732 11.4538 15.6025 11.7067 15.6025 11.9619C15.6025 12.2217 15.6686 12.4678 15.8008 12.7002C15.901 12.764 16.0514 12.8118 16.252 12.8438C16.457 12.8711 16.6689 12.8848 16.8877 12.8848Z" fill="#333333"/>
</svg>
