<svg width="24" height="24" viewBox="0 0 24 24" fill="none" xmlns="http://www.w3.org/2000/svg">
<path d="M8.0135 17C7.77083 17 7.5375 16.9767 7.3135 16.93C7.0895 16.8833 6.88883 16.7993 6.7115 16.678C6.5435 16.5567 6.4035 16.3887 6.2915 16.174C6.18883 15.9593 6.1375 15.6793 6.1375 15.334V8.516C6.1375 8.19867 6.20283 7.93267 6.3335 7.718C6.46417 7.494 6.6275 7.32133 6.8235 7.2C7.0195 7.06933 7.23417 6.976 7.4675 6.92C7.71017 6.864 7.93883 6.836 8.1535 6.836V17H8.0135ZM8.2935 11.176H9.4275C9.4275 11.5587 9.3575 11.8807 9.2175 12.142C9.0775 12.394 8.79283 12.52 8.3635 12.52H8.2935V11.176ZM9.5255 9.174C9.5255 9.07133 9.51617 8.96867 9.4975 8.866C9.48817 8.754 9.46017 8.656 9.4135 8.572C9.37617 8.47867 9.3155 8.404 9.2315 8.348C9.15683 8.292 9.0495 8.264 8.9095 8.264C8.73217 8.264 8.58283 8.32 8.4615 8.432C8.4055 8.28267 8.3775 8.14733 8.3775 8.026C8.3775 7.87667 8.40083 7.732 8.4475 7.592C8.5035 7.44267 8.5875 7.312 8.6995 7.2C8.8115 7.088 8.9515 6.99933 9.1195 6.934C9.29683 6.85933 9.5115 6.822 9.7635 6.822C10.0435 6.822 10.2908 6.87333 10.5055 6.976C10.7295 7.06933 10.9162 7.20467 11.0655 7.382C11.2148 7.55 11.3268 7.75067 11.4015 7.984C11.4855 8.208 11.5275 8.45067 11.5275 8.712V17C11.2755 17 11.0282 16.9813 10.7855 16.944C10.5522 16.9067 10.3375 16.832 10.1415 16.72C9.95483 16.5987 9.8055 16.4213 9.6935 16.188C9.5815 15.9547 9.5255 15.642 9.5255 15.25V9.174ZM14.7384 14.816C14.7384 14.928 14.7431 15.0353 14.7524 15.138C14.7711 15.2407 14.7991 15.334 14.8364 15.418C14.8831 15.4927 14.9438 15.558 15.0184 15.614C15.1024 15.6607 15.2144 15.684 15.3544 15.684C15.4291 15.684 15.5038 15.6747 15.5784 15.656C15.6624 15.628 15.7371 15.586 15.8024 15.53C15.8398 15.6047 15.8631 15.6793 15.8724 15.754C15.8818 15.8193 15.8864 15.8893 15.8864 15.964C15.8864 16.2627 15.7604 16.51 15.5084 16.706C15.2564 16.902 14.9531 17 14.5984 17C14.0384 17 13.6091 16.8507 13.3104 16.552C13.0118 16.2533 12.8624 15.88 12.8624 15.432V11.54C12.8624 11.232 12.9184 10.9753 13.0304 10.77C13.1518 10.5553 13.3011 10.3827 13.4784 10.252C13.6651 10.1213 13.8658 10.028 14.0804 9.972C14.3044 9.916 14.5238 9.888 14.7384 9.888V14.816ZM16.0544 12.072C16.0544 11.96 16.0451 11.8527 16.0264 11.75C16.0171 11.6473 15.9891 11.5587 15.9424 11.484C15.9051 11.4 15.8444 11.3347 15.7604 11.288C15.6858 11.232 15.5784 11.204 15.4384 11.204C15.3638 11.204 15.2844 11.218 15.2004 11.246C15.1258 11.2647 15.0558 11.302 14.9904 11.358C14.9531 11.2833 14.9298 11.2133 14.9204 11.148C14.9111 11.0733 14.9064 10.9987 14.9064 10.924C14.9064 10.6253 15.0324 10.378 15.2844 10.182C15.5364 9.986 15.8398 9.888 16.1944 9.888C16.7544 9.888 17.1838 10.0327 17.4824 10.322C17.7811 10.602 17.9304 11.008 17.9304 11.54V17.294C17.9304 17.5367 17.8744 17.756 17.7624 17.952C17.6598 18.1573 17.5198 18.3347 17.3424 18.484C17.1651 18.6333 16.9644 18.75 16.7404 18.834C16.5164 18.918 16.2878 18.96 16.0544 18.96V12.072ZM13.7864 19.492C13.7864 19.2027 13.8424 18.9647 13.9544 18.778C14.0664 18.6007 14.2018 18.4607 14.3604 18.358C14.5191 18.2553 14.6871 18.1853 14.8644 18.148C15.0418 18.12 15.1958 18.106 15.3264 18.106C15.4384 18.106 15.5318 18.1153 15.6064 18.134V18.778C15.6064 18.974 15.6531 19.1187 15.7464 19.212C15.8398 19.3053 15.9564 19.352 16.0964 19.352C16.2644 19.352 16.4138 19.296 16.5444 19.184C16.5724 19.2587 16.5864 19.324 16.5864 19.38C16.5958 19.4453 16.6004 19.5153 16.6004 19.59C16.6004 19.702 16.5724 19.828 16.5164 19.968C16.4698 20.1173 16.3904 20.2527 16.2784 20.374C16.1758 20.5047 16.0358 20.612 15.8584 20.696C15.6904 20.7893 15.4851 20.836 15.2424 20.836C14.9904 20.836 14.7711 20.794 14.5844 20.71C14.4071 20.626 14.2578 20.5187 14.1364 20.388C14.0244 20.2667 13.9358 20.1267 13.8704 19.968C13.8144 19.8093 13.7864 19.6507 13.7864 19.492Z" fill="#888888"/>
</svg>
