<svg width="24" height="24" viewBox="0 0 24 24" fill="none" xmlns="http://www.w3.org/2000/svg">
<path d="M6.92178 11.0647H9.92987L8.84696 8.17695C8.70068 7.78059 8.55677 7.33232 8.41521 6.83215C8.33028 7.21908 8.19816 7.66734 8.01885 8.17695L6.92178 11.0647ZM12.5487 15H11.4304L10.2696 12.0415H6.53958L5.39297 15H4.2959L7.97638 5.65015H8.88943L12.5487 15ZM15.944 8.66532C15.4391 8.66532 15.0546 8.7998 14.7903 9.06876C14.5261 9.33771 14.394 9.72464 14.394 10.2295C14.394 10.7297 14.5308 11.1072 14.8045 11.362C15.0781 11.6121 15.4627 11.7371 15.9582 11.7371C16.9915 11.7371 17.5082 11.2369 17.5082 10.2366C17.5082 9.18908 16.9868 8.66532 15.944 8.66532ZM19.3909 8.02123V8.68655L18.0957 8.84226C18.4024 9.22447 18.5557 9.68925 18.5557 10.2366C18.5557 10.9208 18.3222 11.4681 17.855 11.8787C17.3832 12.2845 16.7414 12.4874 15.9298 12.4874C15.7364 12.4874 15.5406 12.4685 15.3424 12.4307C14.8941 12.6714 14.67 12.971 14.67 13.3296C14.67 13.5278 14.7478 13.6717 14.9036 13.7614C15.064 13.8463 15.3329 13.8888 15.7104 13.8888H16.9491C17.704 13.8888 18.2844 14.0492 18.6902 14.3701C19.096 14.6862 19.2989 15.1486 19.2989 15.7573C19.2989 16.5312 18.9875 17.121 18.3646 17.5268C17.7465 17.9326 16.8429 18.1355 15.6538 18.1355C14.7431 18.1355 14.0401 17.9656 13.5446 17.6259C13.0492 17.2861 12.8014 16.8049 12.8014 16.182C12.8014 15.7526 12.9383 15.3846 13.212 15.0779C13.4856 14.7711 13.8678 14.5635 14.3586 14.455C14.1698 14.3701 14.0165 14.2427 13.8985 14.0728C13.7853 13.9029 13.7286 13.7 13.7286 13.4641C13.7286 13.2235 13.7947 13.0088 13.9268 12.82C14.0589 12.6313 14.2736 12.4449 14.5709 12.2609C14.2123 12.1146 13.9174 11.8622 13.6862 11.5035C13.4597 11.1449 13.3464 10.7368 13.3464 10.2791C13.3464 9.51466 13.5753 8.9272 14.033 8.51668C14.4954 8.10145 15.1466 7.89383 15.9865 7.89383C16.3498 7.89383 16.6801 7.9363 16.9774 8.02123H19.3909ZM15.3424 14.8443C14.8611 14.8443 14.486 14.9599 14.217 15.1911C13.9528 15.4223 13.8206 15.7385 13.8206 16.1395C13.8206 16.9323 14.4364 17.3286 15.668 17.3286C16.5362 17.3286 17.1873 17.1989 17.6215 16.9393C18.0603 16.6798 18.2797 16.3165 18.2797 15.8493C18.2797 15.4766 18.1617 15.2147 17.9258 15.0637C17.6946 14.9174 17.2558 14.8443 16.6093 14.8443H15.3424Z" fill="#333333"/>
</svg>
