<svg width="24" height="24" viewBox="0 0 24 24" fill="none" xmlns="http://www.w3.org/2000/svg">
<path d="M12.3136 15H10.1831L9.51075 12.7846H6.11338L5.44098 15H3.31055L6.59467 5.65015H9.00822L12.3136 15ZM6.60883 11.1284H9.03653L7.98193 7.72396C7.90644 7.46916 7.84981 7.25918 7.81206 7.09403C7.68466 7.60364 7.28358 8.94843 6.60883 11.1284ZM14.4012 15.3397C14.1606 15.5096 14.0402 15.729 14.0402 15.998C14.0402 16.2717 14.1676 16.484 14.4224 16.635C14.682 16.7907 15.0429 16.8686 15.5053 16.8686C16.199 16.8686 16.744 16.7718 17.1403 16.5784C17.5367 16.3896 17.7349 16.1301 17.7349 15.7998C17.7349 15.5356 17.6216 15.3515 17.3951 15.2477C17.1686 15.1439 16.803 15.092 16.2981 15.092H15.293C14.9438 15.092 14.6466 15.1746 14.4012 15.3397ZM19.5397 7.87968V8.8635L18.4214 9.15369C18.6243 9.46983 18.7258 9.82609 18.7258 10.2224C18.7258 10.9821 18.4592 11.5767 17.926 12.0061C17.3975 12.4355 16.659 12.6502 15.7106 12.6502L15.0736 12.6006C14.8707 12.7469 14.7693 12.9168 14.7693 13.1102C14.7693 13.3886 15.1279 13.5278 15.8451 13.5278H17.0554C17.8387 13.5278 18.4332 13.6953 18.839 14.0303C19.2495 14.3654 19.4548 14.8584 19.4548 15.5096C19.4548 16.3401 19.1056 16.9842 18.4073 17.4419C17.7136 17.9043 16.718 18.1355 15.4204 18.1355C14.4342 18.1355 13.6769 17.9633 13.1484 17.6188C12.6199 17.2744 12.3557 16.7883 12.3557 16.1608C12.3557 15.7314 12.4902 15.3728 12.7591 15.0849C13.0281 14.7971 13.4221 14.5895 13.9411 14.4621C13.7335 14.3724 13.5566 14.2332 13.4103 14.0445C13.264 13.851 13.1909 13.6363 13.1909 13.4004C13.1909 13.1645 13.264 12.9569 13.4103 12.7776C13.5613 12.5935 13.7949 12.4095 14.111 12.2255C13.7335 12.0556 13.4363 11.7937 13.2192 11.4398C13.0021 11.0812 12.8936 10.6636 12.8936 10.1871C12.8936 9.40849 13.1461 8.80688 13.6509 8.3822C14.1606 7.95753 14.8825 7.7452 15.8168 7.7452C15.9961 7.7452 16.2344 7.76407 16.5316 7.80182C16.8336 7.83957 17.0082 7.86552 17.0554 7.87968H19.5397ZM15.8168 8.92012C15.1043 8.92012 14.748 9.34951 14.748 10.2083C14.748 10.6047 14.8377 10.9137 15.017 11.1355C15.201 11.3573 15.4676 11.4681 15.8168 11.4681C16.1707 11.4681 16.4349 11.3573 16.6095 11.1355C16.7841 10.9137 16.8714 10.6047 16.8714 10.2083C16.8714 9.34951 16.5198 8.92012 15.8168 8.92012Z" fill="#333333"/>
</svg>
