<svg width="24" height="24" viewBox="0 0 24 24" fill="none" xmlns="http://www.w3.org/2000/svg">
<path d="M11.271 15L9.97572 11.7159H6.18906L4.89382 15H4.17188L7.91606 5.65015H8.33365L12 15H11.271ZM7.73204 7.78059L6.42971 11.1284H9.7563L8.48937 7.77351C8.38556 7.51871 8.25816 7.15302 8.10716 6.67644C7.99864 7.05864 7.87359 7.42669 7.73204 7.78059ZM14.8653 14.6744C13.596 14.6744 12.9614 15.1746 12.9614 16.1749C12.9614 17.1234 13.6692 17.5976 15.0847 17.5976C16.9014 17.5976 17.8097 17.0195 17.8097 15.8635C17.8097 15.4435 17.6658 15.1416 17.378 14.9575C17.0948 14.7688 16.6348 14.6744 15.9978 14.6744H14.8653ZM18.567 8.07786V8.51668L17.1302 8.60162C17.5124 9.07347 17.7035 9.59724 17.7035 10.1729C17.7035 10.8382 17.4818 11.3785 17.0382 11.7937C16.5947 12.209 16.0001 12.4166 15.2546 12.4166C14.9385 12.4166 14.7167 12.4024 14.5893 12.3741C14.075 12.6431 13.8178 12.9875 13.8178 13.4075C13.8178 13.634 13.9027 13.7968 14.0726 13.8959C14.2425 13.9949 14.5232 14.0445 14.9149 14.0445H16.1252C16.8801 14.0445 17.4558 14.1978 17.8522 14.5046C18.2532 14.8113 18.4538 15.2595 18.4538 15.8493C18.4538 16.5807 18.1565 17.1446 17.562 17.541C16.9722 17.9373 16.1275 18.1355 15.0281 18.1355C14.1646 18.1355 13.4922 17.968 13.0109 17.633C12.5296 17.2979 12.289 16.8308 12.289 16.2315C12.289 15.7597 12.4352 15.3657 12.7278 15.0495C13.0204 14.7334 13.4238 14.5163 13.9381 14.3984C13.7258 14.3134 13.5559 14.1884 13.4285 14.0233C13.3058 13.8534 13.2445 13.6646 13.2445 13.457C13.2445 12.9946 13.5418 12.5865 14.1363 12.2326C13.7305 12.0674 13.4144 11.8079 13.1879 11.454C12.9661 11.1001 12.8552 10.6943 12.8552 10.2366C12.8552 9.54297 13.0746 8.98854 13.5134 8.57331C13.957 8.15335 14.5492 7.94338 15.29 7.94338C15.7571 7.94338 16.111 7.9882 16.3517 8.07786H18.567ZM17.0665 10.1871C17.0665 9.61611 16.9108 9.182 16.5994 8.88473C16.288 8.58746 15.8491 8.43883 15.2829 8.43883C14.7214 8.43883 14.2826 8.5969 13.9664 8.91304C13.6503 9.22919 13.4922 9.66094 13.4922 10.2083C13.4922 10.7556 13.6526 11.178 13.9735 11.4752C14.2944 11.7725 14.7356 11.9211 15.2971 11.9211C15.8633 11.9211 16.2998 11.7749 16.6065 11.4823C16.9132 11.1898 17.0665 10.758 17.0665 10.1871Z" fill="#333333"/>
</svg>
