<svg width="24" height="24" viewBox="0 0 24 24" fill="none" xmlns="http://www.w3.org/2000/svg">
<path d="M12.7817 15H10.0284L9.57543 13.2518H6.5461L6.07897 15H3.31152L6.34792 5.65015H9.70991L12.7817 15ZM7.06987 11.1921H9.05167C8.46656 8.98382 8.13154 7.64847 8.04661 7.18605C7.95224 7.77115 7.62666 9.1065 7.06987 11.1921ZM15.9712 15.2477C15.7022 15.2477 15.4757 15.3091 15.2917 15.4317C15.1077 15.5592 15.0157 15.7196 15.0157 15.913C15.0157 16.1065 15.1265 16.2646 15.3483 16.3873C15.5701 16.5147 15.865 16.5784 16.233 16.5784C16.8323 16.5784 17.316 16.5029 17.684 16.3519C18.0473 16.2009 18.229 16.0074 18.229 15.7715C18.229 15.5827 18.1228 15.4483 17.9105 15.368C17.6982 15.2878 17.3773 15.2477 16.9479 15.2477H15.9712ZM20.4585 7.78059V8.98382L19.4676 9.35187C19.6045 9.60195 19.6729 9.88743 19.6729 10.2083C19.6729 10.9963 19.3969 11.6026 18.8448 12.0273C18.2974 12.452 17.4858 12.6643 16.41 12.6643C16.1316 12.6643 15.9193 12.6478 15.773 12.6148C15.7116 12.7186 15.681 12.8224 15.681 12.9262C15.681 13.0489 15.7777 13.1432 15.9712 13.2093C16.1693 13.2754 16.4336 13.3084 16.7639 13.3084H17.9671C19.5856 13.3084 20.3948 13.9902 20.3948 15.3539C20.3948 16.2268 20.0173 16.9087 19.2624 17.3994C18.5121 17.8901 17.4622 18.1355 16.1127 18.1355C15.0888 18.1355 14.2984 17.9633 13.7416 17.6188C13.1896 17.2791 12.9135 16.7883 12.9135 16.1466C12.9135 15.2831 13.4491 14.7263 14.5202 14.4762C14.2984 14.3819 14.105 14.2332 13.9398 14.0303C13.7794 13.8227 13.6992 13.6127 13.6992 13.4004C13.6992 13.1834 13.7582 12.9899 13.8761 12.82C13.9988 12.6454 14.2583 12.4378 14.6547 12.1972C14.2725 12.0273 13.9752 11.7678 13.7629 11.4186C13.5553 11.0647 13.4515 10.6353 13.4515 10.1304C13.4515 9.34715 13.7181 8.73846 14.2512 8.30435C14.7892 7.87024 15.5536 7.65318 16.5445 7.65318C16.9078 7.65318 17.3726 7.69565 17.9388 7.78059H20.4585ZM16.5728 9.04044C16.0585 9.04044 15.8013 9.41085 15.8013 10.1517C15.8013 10.8878 16.0585 11.2558 16.5728 11.2558C17.0682 11.2558 17.316 10.8878 17.316 10.1517C17.316 9.41085 17.0682 9.04044 16.5728 9.04044Z" fill="#333333"/>
</svg>
