<svg width="24" height="24" viewBox="0 0 24 24" fill="none" xmlns="http://www.w3.org/2000/svg">
<path d="M6.11475 14.404C6.18008 14.2173 6.24542 14.0353 6.31075 13.858C6.38542 13.6713 6.45542 13.4847 6.52075 13.298C6.56742 13.158 6.62808 13.018 6.70275 12.878C6.77742 12.738 6.84275 12.612 6.89875 12.5C6.94542 12.3413 6.99208 12.2153 7.03875 12.122C7.09475 12.0193 7.12742 11.954 7.13675 11.926C7.13675 11.9073 7.15542 11.8607 7.19275 11.786C7.23942 11.7113 7.29075 11.59 7.34675 11.422C7.37475 11.338 7.39808 11.2493 7.41675 11.156C7.44475 11.0627 7.47742 10.974 7.51475 10.89L7.85075 10.078C7.88808 9.97533 7.91142 9.90067 7.92075 9.854C7.93942 9.798 7.95342 9.75133 7.96275 9.714C7.97208 9.67667 7.98142 9.63467 7.99075 9.588C8.00008 9.54133 8.02808 9.46667 8.07475 9.364C8.12142 9.26133 8.15875 9.16333 8.18675 9.07C8.22408 8.97667 8.26608 8.87867 8.31275 8.776C8.33142 8.72 8.35008 8.664 8.36875 8.608C8.38742 8.552 8.40608 8.496 8.42475 8.44C8.45275 8.36533 8.47608 8.3 8.49475 8.244C8.51342 8.188 8.53208 8.12267 8.55075 8.048C8.56942 8.02933 8.58342 8.006 8.59275 7.978C8.60208 7.94067 8.62075 7.89867 8.64875 7.852C8.70475 7.81467 8.75142 7.796 8.78875 7.796C8.82608 7.78667 8.86342 7.782 8.90075 7.782H9.54475C9.56342 7.81933 9.57275 7.85667 9.57275 7.894C9.57275 7.922 9.58208 7.95467 9.60075 7.992L9.65675 8.202L9.69875 8.314L9.85275 8.748L10.1048 9.462L10.2028 9.644C10.2214 9.66267 10.2401 9.70467 10.2588 9.77C10.2774 9.826 10.3054 9.90067 10.3428 9.994C10.3894 10.1153 10.4361 10.2553 10.4828 10.414C10.5388 10.5633 10.5901 10.7127 10.6368 10.862C10.7021 11.0953 10.7534 11.268 10.7908 11.38C10.8374 11.492 10.8841 11.6087 10.9308 11.73C10.9588 11.7673 10.9774 11.8093 10.9868 11.856C10.9961 11.9027 11.0101 11.9493 11.0288 11.996L11.2108 12.57L11.4488 13.074C11.4768 13.158 11.5048 13.242 11.5328 13.326C11.5701 13.4007 11.6121 13.4753 11.6588 13.55C11.7334 13.7367 11.7941 13.9093 11.8408 14.068C11.8874 14.2173 11.9481 14.3853 12.0228 14.572C12.0601 14.656 12.0974 14.7353 12.1348 14.81C12.1814 14.8847 12.2188 14.964 12.2468 15.048C12.2654 15.0947 12.2841 15.1413 12.3028 15.188C12.3214 15.2347 12.3401 15.2813 12.3588 15.328C12.4054 15.412 12.4428 15.5007 12.4708 15.594C12.5081 15.678 12.5501 15.7713 12.5968 15.874C12.6154 15.93 12.6388 15.986 12.6668 16.042C12.6948 16.098 12.7134 16.1493 12.7228 16.196C12.6761 16.196 12.6294 16.1913 12.5828 16.182C12.5361 16.1727 12.4941 16.168 12.4568 16.168H12.2188C12.1348 16.168 12.0601 16.168 11.9948 16.168C11.9294 16.1773 11.8734 16.182 11.8268 16.182C11.7801 16.07 11.7101 15.9627 11.6168 15.86C11.5328 15.748 11.4441 15.6127 11.3508 15.454C11.3321 15.4073 11.3134 15.3653 11.2948 15.328C11.2761 15.2907 11.2574 15.2533 11.2388 15.216C11.2201 15.16 11.1641 15.0807 11.0708 14.978C10.9868 14.8753 10.9401 14.796 10.9308 14.74C10.8561 14.656 10.8001 14.5907 10.7628 14.544C10.7348 14.488 10.6974 14.4367 10.6508 14.39C10.6134 14.39 10.5668 14.39 10.5108 14.39C10.4548 14.3807 10.4034 14.3713 10.3568 14.362C10.3008 14.3527 10.2401 14.348 10.1748 14.348H9.83875C9.79208 14.348 9.74075 14.3527 9.68475 14.362C9.63808 14.362 9.56342 14.3667 9.46075 14.376C9.35808 14.376 9.21808 14.3807 9.04075 14.39C8.86342 14.39 8.62542 14.39 8.32675 14.39H8.22875C8.15408 14.39 8.09342 14.3993 8.04675 14.418C8.00942 14.4273 7.95342 14.418 7.87875 14.39C7.85075 14.3713 7.78075 14.3667 7.66875 14.376C7.56608 14.3853 7.49608 14.3947 7.45875 14.404L7.27675 14.418L7.20675 14.516C7.18808 14.572 7.15542 14.6373 7.10875 14.712C7.06208 14.7867 7.01542 14.8613 6.96875 14.936C6.92208 15.0107 6.87542 15.0853 6.82875 15.16C6.79142 15.2347 6.76342 15.2953 6.74475 15.342L6.64675 15.594L6.29675 16.238C6.27808 16.2753 6.25008 16.294 6.21275 16.294C6.17542 16.294 6.14742 16.3033 6.12875 16.322H5.41475C5.37742 16.2847 5.35875 16.2613 5.35875 16.252C5.35875 16.2427 5.37742 16.2147 5.41475 16.168C5.41475 16.1307 5.42875 16.0747 5.45675 16C5.48475 15.9347 5.49875 15.8833 5.49875 15.846C5.54542 15.7713 5.58275 15.6967 5.61075 15.622C5.64808 15.538 5.68542 15.4587 5.72275 15.384L6.11475 14.404ZM9.05475 10.932C9.00808 10.9507 8.97542 10.974 8.95675 11.002C8.93808 11.03 8.91942 11.0627 8.90075 11.1C8.86342 11.2307 8.81208 11.3613 8.74675 11.492C8.69075 11.6133 8.63475 11.7393 8.57875 11.87C8.53208 11.9633 8.48542 12.052 8.43875 12.136C8.39208 12.2107 8.35008 12.2947 8.31275 12.388C8.22875 12.5747 8.14475 12.7613 8.06075 12.948C7.97675 13.1253 7.88342 13.3027 7.78075 13.48H7.86475C7.93942 13.48 8.00475 13.4847 8.06075 13.494C8.12608 13.5033 8.19142 13.4987 8.25675 13.48C8.31275 13.4613 8.36408 13.4567 8.41075 13.466C8.46675 13.4753 8.51808 13.48 8.56475 13.48C8.72342 13.48 8.88675 13.48 9.05475 13.48C9.22275 13.4707 9.40942 13.4753 9.61475 13.494C9.71742 13.5033 9.81075 13.5033 9.89475 13.494C9.98808 13.4847 10.0814 13.48 10.1748 13.48H10.3008C10.2914 13.4427 10.2774 13.4147 10.2588 13.396C10.2494 13.368 10.2354 13.34 10.2168 13.312C10.1794 13.2373 10.1374 13.172 10.0908 13.116C10.0534 13.06 10.0208 12.99 9.99275 12.906L9.50275 11.926C9.48408 11.8793 9.46542 11.8187 9.44675 11.744L9.05475 10.932ZM13.3793 12.206C13.3793 12.1873 13.3933 12.1267 13.4213 12.024C13.4587 11.9213 13.482 11.8653 13.4913 11.856C13.51 11.8093 13.524 11.772 13.5333 11.744C13.5427 11.7067 13.5707 11.6553 13.6173 11.59C13.6547 11.5433 13.7013 11.4873 13.7573 11.422C13.8227 11.3567 13.8647 11.31 13.8833 11.282C13.9207 11.226 13.9627 11.1747 14.0093 11.128C14.0467 11.0813 14.1027 11.0347 14.1773 10.988C14.252 10.9413 14.3127 10.8947 14.3593 10.848C14.49 10.8107 14.602 10.7733 14.6953 10.736C14.798 10.6987 14.896 10.68 14.9893 10.68C15.176 10.68 15.3533 10.6847 15.5213 10.694C15.6987 10.7033 15.8527 10.7313 15.9833 10.778C16.1233 10.778 16.24 10.7967 16.3333 10.834C16.4267 10.862 16.52 10.8993 16.6133 10.946C16.66 11.0393 16.7207 11.114 16.7953 11.17C16.87 11.2167 16.9307 11.2633 16.9773 11.31L17.0613 11.394C17.1267 11.3473 17.1547 11.296 17.1453 11.24C17.1453 11.184 17.1547 11.1327 17.1733 11.086C17.192 11.03 17.2013 10.9833 17.2013 10.946C17.2013 10.8993 17.2107 10.8667 17.2293 10.848C17.2573 10.8387 17.29 10.8387 17.3273 10.848C17.3647 10.848 17.402 10.848 17.4393 10.848C17.5233 10.848 17.6307 10.8433 17.7613 10.834C17.892 10.8247 17.99 10.8293 18.0553 10.848C18.074 10.8573 18.0927 10.876 18.1113 10.904C18.13 10.9227 18.1393 10.9367 18.1393 10.946V11.044C18.1393 11.1 18.1393 11.1747 18.1393 11.268C18.1487 11.352 18.1533 11.4407 18.1533 11.534C18.1533 11.618 18.1487 11.702 18.1393 11.786C18.1393 11.87 18.1393 11.94 18.1393 11.996C18.1393 12.0427 18.1347 12.122 18.1253 12.234C18.1253 12.346 18.1253 12.4673 18.1253 12.598C18.1253 12.7193 18.1253 12.8313 18.1253 12.934C18.1253 13.0367 18.13 13.0927 18.1393 13.102C18.1393 13.1953 18.1347 13.298 18.1253 13.41C18.116 13.522 18.116 13.6013 18.1253 13.648L18.1393 14.096C18.1487 14.1613 18.144 14.264 18.1253 14.404C18.116 14.544 18.1207 14.7027 18.1393 14.88C18.1487 14.9453 18.1487 15.0433 18.1393 15.174C18.1393 15.2953 18.1347 15.426 18.1253 15.566C18.1253 15.6967 18.1207 15.8227 18.1113 15.944C18.1113 16.056 18.1113 16.1353 18.1113 16.182C18.1113 16.3593 18.0787 16.5367 18.0133 16.714C17.9573 16.9007 17.906 17.0827 17.8593 17.26C17.8127 17.3533 17.766 17.442 17.7193 17.526C17.6727 17.61 17.6027 17.7033 17.5093 17.806C17.472 17.8527 17.43 17.9087 17.3833 17.974C17.3367 18.0487 17.29 18.1093 17.2433 18.156C17.1967 18.2213 17.1127 18.2913 16.9913 18.366C16.8793 18.45 16.8 18.5293 16.7533 18.604C16.7067 18.66 16.6273 18.7067 16.5153 18.744C16.4033 18.7813 16.324 18.8047 16.2773 18.814L15.7873 18.982C15.7033 19.0287 15.6147 19.066 15.5213 19.094C15.4373 19.1313 15.33 19.1547 15.1993 19.164C15.1807 19.164 15.162 19.1593 15.1433 19.15C15.1247 19.15 15.106 19.1547 15.0873 19.164C14.994 19.164 14.9147 19.1733 14.8493 19.192C14.7933 19.22 14.7187 19.234 14.6253 19.234H14.5413C14.4107 19.234 14.322 19.2293 14.2753 19.22C14.238 19.22 14.14 19.2247 13.9813 19.234C13.972 19.234 13.944 19.2387 13.8973 19.248C13.8507 19.2573 13.8273 19.2527 13.8273 19.234C13.8273 19.0567 13.818 18.8933 13.7993 18.744C13.79 18.5947 13.7853 18.45 13.7853 18.31L13.8833 18.226H14.3593C14.49 18.1793 14.6067 18.1513 14.7093 18.142C14.8213 18.1327 14.9473 18.1047 15.0873 18.058C15.218 17.974 15.3347 17.89 15.4373 17.806C15.5493 17.722 15.6707 17.6567 15.8013 17.61C15.8947 17.526 15.9833 17.4373 16.0673 17.344C16.1513 17.26 16.2167 17.1713 16.2633 17.078C16.3473 16.994 16.3987 16.9053 16.4173 16.812C16.4453 16.7187 16.4827 16.6253 16.5293 16.532C16.5293 16.448 16.5433 16.3593 16.5713 16.266C16.5993 16.182 16.6133 16.0933 16.6133 16V15.636C16.6133 15.5893 16.5993 15.58 16.5713 15.608C16.5527 15.6173 16.5387 15.6267 16.5293 15.636C16.3987 15.72 16.2447 15.7713 16.0673 15.79C15.89 15.7993 15.7127 15.804 15.5353 15.804H15.4373C15.3067 15.7947 15.1807 15.7667 15.0593 15.72C14.938 15.692 14.8353 15.664 14.7513 15.636C14.6673 15.608 14.574 15.566 14.4713 15.51C14.4433 15.4913 14.4013 15.4727 14.3453 15.454C14.2893 15.426 14.196 15.3747 14.0653 15.3L13.8973 15.104L13.5893 14.768C13.5613 14.7213 13.5333 14.6607 13.5053 14.586C13.4867 14.5113 13.4587 14.4227 13.4213 14.32C13.4027 14.264 13.3793 14.2033 13.3513 14.138C13.3233 14.0727 13.3 14.0027 13.2813 13.928V12.752C13.2813 12.7053 13.2907 12.6447 13.3093 12.57C13.3373 12.486 13.3513 12.4253 13.3513 12.388C13.3513 12.3693 13.356 12.3507 13.3653 12.332C13.3653 12.3133 13.3653 12.2947 13.3653 12.276C13.3747 12.2573 13.3793 12.234 13.3793 12.206ZM15.5353 13.746C15.582 13.746 15.624 13.7413 15.6613 13.732C15.708 13.7227 15.7547 13.6947 15.8013 13.648C15.82 13.6107 15.8247 13.5733 15.8153 13.536C15.8153 13.4893 15.8247 13.4567 15.8433 13.438C15.89 13.3633 15.9087 13.3167 15.8993 13.298C15.89 13.2793 15.8853 13.2467 15.8853 13.2C15.8853 13.1533 15.8667 13.0973 15.8293 13.032C15.8013 12.9573 15.764 12.8967 15.7173 12.85C15.6707 12.8033 15.638 12.78 15.6193 12.78C15.6007 12.78 15.54 12.8033 15.4373 12.85C15.372 12.9153 15.3393 13.0507 15.3393 13.256C15.3393 13.2747 15.3347 13.3167 15.3253 13.382C15.3253 13.4473 15.3347 13.508 15.3533 13.564C15.3533 13.5827 15.3767 13.62 15.4233 13.676C15.47 13.7227 15.5073 13.746 15.5353 13.746Z" fill="#888888"/>
</svg>
