<svg width="24" height="24" viewBox="0 0 24 24" fill="none" xmlns="http://www.w3.org/2000/svg">
<path d="M3.1743 17.168C3.04364 17.1773 2.92697 17.1353 2.8243 17.042C2.73097 16.958 2.6843 16.846 2.6843 16.706C2.6843 16.566 2.73097 16.4493 2.8243 16.356C2.92697 16.2627 3.04364 16.2253 3.1743 16.244C3.26764 16.2533 3.36564 16.2627 3.4683 16.272C3.57097 16.2813 3.66897 16.2907 3.7623 16.3H3.7903C3.83697 16.3 3.87897 16.272 3.9163 16.216L8.0183 7.06C8.09297 6.92 8.20964 6.85 8.3683 6.85C8.51764 6.85 8.62964 6.92 8.7043 7.06L12.8203 16.216C12.8576 16.272 12.8996 16.3 12.9463 16.3C13.049 16.3 13.1516 16.2953 13.2543 16.286C13.3663 16.2673 13.469 16.2533 13.5623 16.244C13.693 16.2253 13.805 16.2627 13.8983 16.356C14.001 16.4493 14.0523 16.566 14.0523 16.706C14.0523 16.846 14.001 16.958 13.8983 17.042C13.805 17.1353 13.693 17.1773 13.5623 17.168C13.0303 17.112 12.5963 17.084 12.2603 17.084C11.8963 17.084 11.4623 17.112 10.9583 17.168C10.837 17.1773 10.725 17.1353 10.6223 17.042C10.529 16.958 10.4823 16.846 10.4823 16.706C10.4823 16.566 10.529 16.4493 10.6223 16.356C10.725 16.2627 10.837 16.2253 10.9583 16.244C11.0796 16.2533 11.2056 16.2673 11.3363 16.286C11.4763 16.2953 11.6116 16.3047 11.7423 16.314H11.7703C11.8636 16.314 11.887 16.2673 11.8403 16.174L11.0283 14.354C11.0003 14.2887 10.9536 14.256 10.8883 14.256H5.8483C5.7923 14.256 5.74564 14.2887 5.7083 14.354L4.8963 16.174C4.88697 16.1927 4.8823 16.216 4.8823 16.244C4.8823 16.2907 4.9103 16.314 4.9663 16.314C5.09697 16.314 5.2323 16.3047 5.3723 16.286C5.52164 16.2673 5.65697 16.2533 5.7783 16.244C5.90897 16.2253 6.02097 16.2627 6.1143 16.356C6.20764 16.4493 6.25431 16.566 6.25431 16.706C6.25431 16.846 6.20764 16.958 6.1143 17.042C6.02097 17.1353 5.90897 17.1773 5.7783 17.168C5.23697 17.112 4.80297 17.084 4.4763 17.084C4.10297 17.084 3.66897 17.112 3.1743 17.168ZM6.2963 13.416H10.4403C10.5523 13.416 10.585 13.3647 10.5383 13.262L8.45231 8.6C8.44297 8.544 8.41497 8.516 8.3683 8.516C8.34031 8.516 8.3123 8.544 8.2843 8.6L6.1983 13.262C6.18897 13.2807 6.1843 13.2993 6.1843 13.318C6.1843 13.3833 6.22164 13.416 6.2963 13.416ZM17.5746 20.542C16.5853 20.542 15.8293 20.22 15.3066 19.576C15.0266 19.24 14.8866 18.8853 14.8866 18.512C14.8866 18.2693 14.952 18.0593 15.0826 17.882C15.2226 17.7047 15.4186 17.616 15.6706 17.616C15.9133 17.616 16.1 17.6907 16.2306 17.84C16.3706 17.9987 16.4406 18.176 16.4406 18.372C16.4406 18.484 16.4126 18.596 16.3566 18.708C16.31 18.82 16.2306 18.9273 16.1186 19.03C16.0533 19.0953 16.0393 19.1513 16.0766 19.198C16.338 19.59 16.8373 19.786 17.5746 19.786C17.9946 19.786 18.354 19.6927 18.6526 19.506C18.9606 19.3193 19.2126 19.072 19.4086 18.764C19.6046 18.4653 19.7493 18.134 19.8426 17.77C19.936 17.4153 19.9826 17.0607 19.9826 16.706V16.16C19.9826 16.104 19.9686 16.0713 19.9406 16.062C19.9126 16.0433 19.8753 16.0573 19.8286 16.104C19.558 16.3933 19.25 16.622 18.9046 16.79C18.5686 16.958 18.2093 17.042 17.8266 17.042C17.248 17.042 16.7393 16.9393 16.3006 16.734C15.8713 16.5287 15.512 16.2533 15.2226 15.908C14.9426 15.5627 14.7326 15.18 14.5926 14.76C14.4526 14.34 14.3826 13.9153 14.3826 13.486C14.3826 13.066 14.448 12.6507 14.5786 12.24C14.7186 11.82 14.924 11.4373 15.1946 11.092C15.4653 10.7373 15.806 10.4573 16.2166 10.252C16.6366 10.0373 17.1266 9.93 17.6866 9.93C18.1533 9.93 18.564 10.014 18.9186 10.182C19.2733 10.3407 19.5766 10.56 19.8286 10.84C19.8566 10.868 19.8846 10.882 19.9126 10.882C19.9593 10.882 19.9826 10.8447 19.9826 10.77V10.462C19.9826 10.3313 20.0246 10.224 20.1086 10.14C20.202 10.056 20.3093 10.014 20.4306 10.014H20.9486C20.9766 10.014 21.042 10.0093 21.1446 10C21.2566 9.98133 21.364 9.96733 21.4666 9.958C21.5786 9.93933 21.6486 9.93 21.6766 9.93C21.798 9.91133 21.9053 9.944 21.9986 10.028C22.092 10.112 22.1386 10.2193 22.1386 10.35C22.1386 10.4807 22.092 10.588 21.9986 10.672C21.9053 10.756 21.798 10.7933 21.6766 10.784C21.574 10.7653 21.462 10.7513 21.3406 10.742C21.2286 10.7327 21.112 10.7233 20.9906 10.714H20.9626C20.8973 10.714 20.8646 10.7513 20.8646 10.826V16.706C20.8646 17.098 20.7993 17.5133 20.6686 17.952C20.5473 18.4 20.3513 18.82 20.0806 19.212C19.8193 19.604 19.4786 19.9213 19.0586 20.164C18.648 20.416 18.1533 20.542 17.5746 20.542ZM17.8126 16.188C18.2606 16.188 18.6666 16.104 19.0306 15.936C19.3946 15.7587 19.6933 15.5113 19.9266 15.194C19.964 15.1473 19.9826 15.096 19.9826 15.04V11.862C19.9826 11.806 19.964 11.7547 19.9266 11.708C19.6653 11.4093 19.348 11.176 18.9746 11.008C18.6013 10.84 18.2093 10.756 17.7986 10.756C17.3133 10.756 16.884 10.8727 16.5106 11.106C16.1373 11.3393 15.8433 11.6613 15.6286 12.072C15.414 12.4733 15.3066 12.94 15.3066 13.472C15.3066 13.976 15.414 14.4333 15.6286 14.844C15.8526 15.2547 16.1513 15.5813 16.5246 15.824C16.9073 16.0667 17.3366 16.188 17.8126 16.188Z" fill="#888888"/>
</svg>
