<svg width="24" height="24" viewBox="0 0 24 24" fill="none" xmlns="http://www.w3.org/2000/svg">
<path d="M3.15091 17.14C2.98291 17.14 2.84757 17.098 2.74491 17.014C2.65157 16.93 2.60491 16.8087 2.60491 16.65C2.60491 16.5753 2.60957 16.5193 2.61891 16.482L3.55691 11.204C3.79024 9.86 4.31757 8.83333 5.13891 8.124C5.96957 7.41467 7.05224 7.06 8.38691 7.06C9.50691 7.06 10.3796 7.34933 11.0049 7.928C11.6396 8.49733 11.9569 9.286 11.9569 10.294C11.9569 10.574 11.9289 10.8773 11.8729 11.204L10.9489 16.482C10.9116 16.6967 10.8182 16.86 10.6689 16.972C10.5289 17.084 10.3609 17.14 10.1649 17.14C9.97824 17.14 9.83824 17.0933 9.74491 17C9.65157 16.9067 9.60491 16.7853 9.60491 16.636C9.60491 16.5707 9.60957 16.5193 9.61891 16.482L10.1229 13.626H4.45291L3.93491 16.482C3.89757 16.6873 3.80891 16.8507 3.66891 16.972C3.52891 17.084 3.35624 17.14 3.15091 17.14ZM10.3049 12.562L10.5569 11.162C10.6129 10.826 10.6409 10.5227 10.6409 10.252C10.6409 9.54267 10.4449 9.01533 10.0529 8.67C9.66091 8.32467 9.06357 8.152 8.26091 8.152C7.31824 8.152 6.56224 8.40867 5.99291 8.922C5.43291 9.426 5.06424 10.1727 4.88691 11.162L4.63491 12.562H10.3049ZM15.9368 20.514C15.2648 20.514 14.6628 20.4113 14.1308 20.206C13.5988 20.0007 13.1928 19.7207 12.9128 19.366C12.8475 19.2727 12.8148 19.17 12.8148 19.058C12.8148 18.8993 12.8802 18.7547 13.0108 18.624C13.1415 18.4933 13.2955 18.428 13.4728 18.428C13.5755 18.428 13.6735 18.456 13.7668 18.512C13.8695 18.568 13.9488 18.6333 14.0048 18.708C14.3968 19.212 15.0688 19.464 16.0208 19.464C16.8795 19.464 17.5748 19.2447 18.1068 18.806C18.6388 18.3673 18.9702 17.742 19.1008 16.93L19.2968 15.866C18.4475 16.7433 17.4115 17.182 16.1888 17.182C15.2182 17.182 14.4435 16.9253 13.8648 16.412C13.2862 15.8987 12.9968 15.2033 12.9968 14.326C12.9968 13.4953 13.1882 12.7533 13.5708 12.1C13.9535 11.4467 14.4808 10.938 15.1528 10.574C15.8342 10.2007 16.5995 10.014 17.4488 10.014C18.0368 10.014 18.5548 10.1307 19.0028 10.364C19.4508 10.5973 19.8148 10.9287 20.0948 11.358L20.2208 10.63C20.2582 10.4433 20.3468 10.294 20.4868 10.182C20.6362 10.0607 20.8042 10 20.9908 10C21.1588 10 21.2895 10.0467 21.3828 10.14C21.4762 10.224 21.5228 10.3407 21.5228 10.49C21.5228 10.5553 21.5182 10.602 21.5088 10.63L20.4028 16.93C20.2068 18.0593 19.7122 18.9367 18.9188 19.562C18.1348 20.1967 17.1408 20.514 15.9368 20.514ZM16.5248 16.09C17.1408 16.09 17.6915 15.9547 18.1768 15.684C18.6622 15.4133 19.0402 15.0493 19.3108 14.592C19.5908 14.1253 19.7308 13.612 19.7308 13.052C19.7308 12.4267 19.5255 11.946 19.1148 11.61C18.7135 11.2647 18.1628 11.092 17.4628 11.092C16.8375 11.092 16.2868 11.2273 15.8108 11.498C15.3348 11.7593 14.9662 12.128 14.7048 12.604C14.4528 13.08 14.3268 13.626 14.3268 14.242C14.3268 14.8487 14.5135 15.3107 14.8868 15.628C15.2695 15.936 15.8155 16.09 16.5248 16.09Z" fill="#333333"/>
</svg>
