<svg width="24" height="24" viewBox="0 0 24 24" fill="none" xmlns="http://www.w3.org/2000/svg">
<path d="M3.17207 17.126C2.9574 17.126 2.7894 17.0747 2.66807 16.972C2.55607 16.8693 2.50007 16.7293 2.50007 16.552C2.50007 16.4773 2.50474 16.4213 2.51407 16.384L3.41007 11.288C3.65274 9.916 4.19874 8.87067 5.04807 8.152C5.90674 7.424 7.0174 7.06 8.38007 7.06C9.52807 7.06 10.4287 7.35867 11.0821 7.956C11.7354 8.55333 12.0621 9.37 12.0621 10.406C12.0621 10.686 12.0341 10.98 11.9781 11.288L11.0681 16.384C11.0307 16.6173 10.9281 16.7993 10.7601 16.93C10.5921 17.0607 10.3867 17.126 10.1441 17.126C9.9294 17.126 9.7614 17.0747 9.64007 16.972C9.51874 16.8693 9.45807 16.7247 9.45807 16.538C9.45807 16.4727 9.46274 16.4213 9.47207 16.384L9.93407 13.808H4.55807L4.11007 16.384C4.0634 16.6173 3.95607 16.7993 3.78807 16.93C3.62007 17.0607 3.41474 17.126 3.17207 17.126ZM10.1581 12.562L10.3821 11.246C10.4381 10.9193 10.4661 10.6207 10.4661 10.35C10.4661 9.66867 10.2794 9.16467 9.90607 8.838C9.53274 8.502 8.96807 8.334 8.21207 8.334C6.4294 8.334 5.36074 9.30467 5.00607 11.246L4.78207 12.562H10.1581ZM15.958 20.5C15.258 20.5 14.628 20.3927 14.068 20.178C13.508 19.9727 13.0927 19.688 12.822 19.324C12.7473 19.24 12.71 19.1187 12.71 18.96C12.71 18.7827 12.7753 18.6147 12.906 18.456C13.046 18.2973 13.228 18.218 13.452 18.218C13.704 18.218 13.9373 18.3347 14.152 18.568C14.5533 19.044 15.1927 19.282 16.07 19.282C16.8727 19.282 17.5213 19.0627 18.016 18.624C18.52 18.1853 18.8373 17.5693 18.968 16.776L19.094 15.964C18.6833 16.3747 18.24 16.678 17.764 16.874C17.2973 17.07 16.77 17.168 16.182 17.168C15.202 17.168 14.4227 16.9067 13.844 16.384C13.2653 15.8613 12.976 15.1473 12.976 14.242C12.976 13.4487 13.1673 12.73 13.55 12.086C13.942 11.442 14.4693 10.938 15.132 10.574C15.804 10.2007 16.546 10.014 17.358 10.014C18.478 10.014 19.3367 10.4247 19.934 11.246L20.032 10.742C20.0693 10.518 20.172 10.3407 20.34 10.21C20.508 10.07 20.7087 10 20.942 10C21.1567 10 21.32 10.056 21.432 10.168C21.5533 10.2707 21.614 10.4107 21.614 10.588C21.614 10.6533 21.6093 10.7047 21.6 10.742L20.536 16.776C20.3307 17.9427 19.822 18.8527 19.01 19.506C18.2073 20.1687 17.19 20.5 15.958 20.5ZM16.588 15.894C17.176 15.894 17.694 15.768 18.142 15.516C18.5993 15.264 18.9493 14.9233 19.192 14.494C19.444 14.0647 19.57 13.5887 19.57 13.066C19.57 12.478 19.3787 12.0347 18.996 11.736C18.6133 11.428 18.0907 11.274 17.428 11.274C16.8493 11.274 16.3453 11.4 15.916 11.652C15.4867 11.904 15.1553 12.2493 14.922 12.688C14.6887 13.1173 14.572 13.6027 14.572 14.144C14.572 14.732 14.7493 15.1707 15.104 15.46C15.4587 15.7493 15.9533 15.894 16.588 15.894Z" fill="#333333"/>
</svg>
