<svg width="24" height="24" viewBox="0 0 24 24" fill="none" xmlns="http://www.w3.org/2000/svg">
<path d="M10.2659 13.85H5.84191L4.31591 17H3.30791L7.28391 8.81C7.59191 8.18467 7.88125 7.73667 8.15191 7.466C8.43191 7.186 8.79125 7.046 9.22991 7.046C9.65925 7.046 9.97191 7.17667 10.1679 7.438C10.3732 7.69933 10.5179 8.15667 10.6019 8.81L11.6939 17H10.6719L10.2659 13.85ZM10.1539 13.066L9.60791 8.824C9.56125 8.516 9.50058 8.30133 9.42591 8.18C9.35125 8.04933 9.23925 7.984 9.08991 7.984C8.93125 7.984 8.79125 8.04933 8.66991 8.18C8.55791 8.30133 8.42725 8.516 8.27791 8.824L6.21991 13.066H10.1539ZM20.2677 10.826C20.0717 10.966 19.9317 11.092 19.8477 11.204C19.773 11.3067 19.7217 11.442 19.6937 11.61L18.6017 17.84C18.471 18.6053 18.1677 19.1793 17.6917 19.562C17.2157 19.954 16.553 20.15 15.7037 20.15H14.0237L14.1497 19.408H15.8297C16.343 19.408 16.7537 19.2727 17.0617 19.002C17.379 18.7407 17.5797 18.3533 17.6637 17.84L17.9577 16.09C17.3977 16.6967 16.6464 17 15.7037 17C14.929 17 14.3224 16.7713 13.8837 16.314C13.4544 15.8473 13.2397 15.2453 13.2397 14.508C13.2397 14.3027 13.263 14.06 13.3097 13.78L13.3657 13.486C13.543 12.5713 13.9257 11.806 14.5137 11.19C15.1017 10.574 15.853 10.266 16.7677 10.266C17.2344 10.266 17.645 10.3593 17.9997 10.546C18.3544 10.7327 18.625 10.9987 18.8117 11.344C18.877 11.064 18.975 10.84 19.1057 10.672C19.2457 10.504 19.4277 10.3687 19.6517 10.266L20.2677 10.826ZM15.9137 16.244C16.4644 16.244 16.9217 16.118 17.2857 15.866C17.6497 15.614 17.9577 15.2407 18.2097 14.746L18.6017 12.506C18.443 11.5167 17.855 11.022 16.8377 11.022C16.203 11.022 15.657 11.246 15.1997 11.694C14.7424 12.142 14.4437 12.7393 14.3037 13.486L14.2477 13.78C14.201 14.032 14.1777 14.2513 14.1777 14.438C14.1777 14.998 14.327 15.4413 14.6257 15.768C14.9337 16.0853 15.363 16.244 15.9137 16.244Z" fill="#888888"/>
</svg>
