<svg width="24" height="24" viewBox="0 0 24 24" fill="none" xmlns="http://www.w3.org/2000/svg">
<path d="M10.0814 14.346H5.34935L4.18735 18H3.72535L6.34335 9.586C6.52069 9.01667 6.70735 8.62 6.90335 8.396C7.10869 8.172 7.37935 8.06 7.71535 8.06C8.05135 8.06 8.31735 8.172 8.51335 8.396C8.71869 8.62 8.91002 9.01667 9.08735 9.586L11.7054 18H11.2434L10.0814 14.346ZM9.96935 13.954L8.58335 9.586C8.45269 9.166 8.32202 8.87667 8.19135 8.718C8.07002 8.55933 7.91135 8.48 7.71535 8.48C7.51935 8.48 7.35602 8.55933 7.22535 8.718C7.10402 8.87667 6.97802 9.166 6.84735 9.586L5.46135 13.954H9.96935ZM18.7877 11.532C18.6664 11.644 18.587 11.7373 18.5497 11.812C18.5124 11.8867 18.4937 11.9893 18.4937 12.12V18.672C18.4937 19.3533 18.3117 19.876 17.9477 20.24C17.593 20.6133 17.0797 20.8 16.4077 20.8H14.8117V20.436H16.4077C16.9397 20.436 17.3504 20.282 17.6397 19.974C17.929 19.666 18.0737 19.2273 18.0737 18.658V16.768C17.8497 17.1693 17.537 17.4773 17.1357 17.692C16.7437 17.8973 16.291 18 15.7777 18C15.199 18 14.6904 17.8693 14.2517 17.608C13.8224 17.3373 13.4864 16.9593 13.2437 16.474C13.0104 15.9887 12.8937 15.4287 12.8937 14.794V14.486C12.8937 13.8513 13.0104 13.2913 13.2437 12.806C13.4864 12.3207 13.8224 11.9473 14.2517 11.686C14.6904 11.4153 15.199 11.28 15.7777 11.28C16.291 11.28 16.7437 11.3873 17.1357 11.602C17.5277 11.8073 17.8404 12.1107 18.0737 12.512V12.204C18.0737 11.9613 18.1064 11.7747 18.1717 11.644C18.237 11.504 18.3537 11.3827 18.5217 11.28L18.7877 11.532ZM15.7357 17.636C16.3704 17.636 16.8697 17.4913 17.2337 17.202C17.5977 16.9127 17.8777 16.4973 18.0737 15.956V13.324C17.8777 12.7827 17.5977 12.3673 17.2337 12.078C16.8697 11.7887 16.3704 11.644 15.7357 11.644C15.0077 11.644 14.4197 11.9053 13.9717 12.428C13.533 12.9413 13.3137 13.6273 13.3137 14.486V14.794C13.3137 15.6527 13.533 16.3433 13.9717 16.866C14.4197 17.3793 15.0077 17.636 15.7357 17.636Z" fill="#333333"/>
</svg>
