<svg width="24" height="24" viewBox="0 0 24 24" fill="none" xmlns="http://www.w3.org/2000/svg">
<path d="M9.86582 14.424H5.83382L4.61582 17H2.96382L6.79982 9.062C7.17315 8.29667 7.52315 7.76933 7.84982 7.48C8.18582 7.18133 8.61515 7.032 9.13782 7.032C9.66982 7.032 10.0525 7.186 10.2858 7.494C10.5192 7.79267 10.6872 8.31533 10.7898 9.062L11.8258 17H10.1738L9.86582 14.424ZM9.71182 13.192L9.22182 9.09C9.20315 8.90333 9.16582 8.768 9.10982 8.684C9.06315 8.6 8.98849 8.558 8.88582 8.558C8.78315 8.558 8.68982 8.60467 8.60582 8.698C8.53115 8.782 8.45182 8.91267 8.36782 9.09L6.42182 13.192H9.71182ZM20.7427 11.148C20.4907 11.3253 20.3087 11.484 20.1967 11.624C20.0941 11.7547 20.0241 11.9367 19.9867 12.17L19.0067 17.742C18.8574 18.582 18.5167 19.2073 17.9847 19.618C17.4621 20.038 16.6734 20.248 15.6187 20.248H13.8267L14.0227 19.058H15.8147C16.2721 19.058 16.6407 18.9553 16.9207 18.75C17.2101 18.554 17.3967 18.218 17.4807 17.742L17.7607 16.132C17.2101 16.7107 16.4867 17 15.5907 17C14.8254 17 14.2281 16.776 13.7987 16.328C13.3787 15.8707 13.1687 15.2547 13.1687 14.48C13.1687 14.228 13.1874 13.99 13.2247 13.766L13.2667 13.486C13.3601 12.9073 13.5561 12.3707 13.8547 11.876C14.1627 11.3813 14.5594 10.9893 15.0447 10.7C15.5301 10.4013 16.0807 10.252 16.6967 10.252C17.6487 10.252 18.3114 10.6207 18.6847 11.358C18.7874 11.1153 18.9321 10.9053 19.1187 10.728C19.3054 10.5507 19.5481 10.392 19.8467 10.252L20.7427 11.148ZM16.1367 15.81C16.9954 15.81 17.6254 15.3993 18.0267 14.578L18.3627 12.688C18.3067 12.2587 18.1527 11.946 17.9007 11.75C17.6487 11.5447 17.3221 11.442 16.9207 11.442C16.3701 11.442 15.8987 11.638 15.5067 12.03C15.1241 12.422 14.8861 12.9073 14.7927 13.486L14.7507 13.766C14.7227 13.9433 14.7087 14.1113 14.7087 14.27C14.7087 14.7367 14.8301 15.11 15.0727 15.39C15.3154 15.67 15.6701 15.81 16.1367 15.81Z" fill="#888888"/>
</svg>
