<svg width="24" height="24" viewBox="0 0 24 24" fill="none" xmlns="http://www.w3.org/2000/svg">
<path d="M10.2799 13.85H5.85591L4.88991 17H3.88191L6.41591 8.81C6.62125 8.14733 6.84058 7.69 7.07391 7.438C7.31658 7.17667 7.64791 7.046 8.06791 7.046C8.48791 7.046 8.81925 7.17667 9.06191 7.438C9.30458 7.69 9.52858 8.14733 9.73391 8.81L12.2679 17H11.2459L10.2799 13.85ZM10.0419 13.066L8.73991 8.824C8.63725 8.50667 8.53925 8.28733 8.44591 8.166C8.35258 8.04467 8.22658 7.984 8.06791 7.984C7.91858 7.984 7.79725 8.04467 7.70391 8.166C7.61058 8.28733 7.51258 8.50667 7.40991 8.824L6.10791 13.066H10.0419ZM19.7637 10.826C19.5957 10.966 19.479 11.092 19.4137 11.204C19.3577 11.3067 19.3297 11.442 19.3297 11.61V17.49C19.3297 18.2647 19.1244 18.8433 18.7137 19.226C18.303 19.6087 17.6777 19.8 16.8377 19.8H15.1577V19.058H16.8377C17.351 19.058 17.7384 18.9227 17.9997 18.652C18.261 18.3907 18.3917 18.0033 18.3917 17.49V15.908C18.1677 16.2627 17.869 16.5333 17.4957 16.72C17.1317 16.9067 16.707 17 16.2217 17C15.335 17 14.6304 16.7107 14.1077 16.132C13.585 15.5533 13.3237 14.7693 13.3237 13.78V13.486C13.3237 12.842 13.4404 12.2773 13.6737 11.792C13.9164 11.3067 14.2524 10.9333 14.6817 10.672C15.1204 10.4013 15.629 10.266 16.2077 10.266C16.693 10.266 17.127 10.364 17.5097 10.56C17.9017 10.7467 18.2237 11.022 18.4757 11.386C18.4757 11.134 18.5177 10.924 18.6017 10.756C18.695 10.5787 18.877 10.4153 19.1477 10.266L19.7637 10.826ZM16.3617 16.244C16.903 16.244 17.337 16.118 17.6637 15.866C17.9904 15.614 18.233 15.236 18.3917 14.732V12.534C18.233 12.03 17.9904 11.652 17.6637 11.4C17.337 11.148 16.903 11.022 16.3617 11.022C15.727 11.022 15.2184 11.246 14.8357 11.694C14.453 12.142 14.2617 12.7393 14.2617 13.486V13.78C14.2617 14.5267 14.453 15.124 14.8357 15.572C15.2184 16.02 15.727 16.244 16.3617 16.244Z" fill="#888888"/>
</svg>
