<svg width="24" height="24" viewBox="0 0 24 24" fill="none" xmlns="http://www.w3.org/2000/svg">
<path d="M9.83394 15.718H5.99794L5.33994 18H3.36594L5.75994 10.188C5.92794 9.628 6.10527 9.194 6.29194 8.886C6.4786 8.578 6.69794 8.35867 6.94994 8.228C7.21127 8.09733 7.53327 8.032 7.91594 8.032C8.2986 8.032 8.61594 8.09733 8.86794 8.228C9.11994 8.35867 9.33927 8.578 9.52594 8.886C9.72194 9.194 9.90394 9.628 10.0719 10.188L12.4659 18H10.4919L9.83394 15.718ZM9.39994 14.248L8.22394 10.216C8.1586 9.97333 8.05594 9.852 7.91594 9.852C7.77594 9.852 7.67327 9.97333 7.60794 10.216L6.43194 14.248H9.39994ZM20.5672 12.316C20.3152 12.5027 20.1379 12.6753 20.0352 12.834C19.9419 12.9927 19.8952 13.198 19.8952 13.45V18.196C19.8952 19.1107 19.6432 19.7733 19.1392 20.184C18.6446 20.5947 17.8372 20.8 16.7172 20.8H14.8692V19.4H16.7172C17.1932 19.4 17.5386 19.3067 17.7532 19.12C17.9679 18.9333 18.0752 18.6253 18.0752 18.196V17.146C17.8606 17.426 17.5992 17.6407 17.2912 17.79C16.9926 17.93 16.5772 18 16.0452 18C15.1679 18 14.4679 17.7107 13.9452 17.132C13.4319 16.544 13.1752 15.7553 13.1752 14.766V14.486C13.1752 13.898 13.2826 13.3613 13.4972 12.876C13.7119 12.3813 14.0339 11.9893 14.4632 11.7C14.9019 11.4013 15.4292 11.252 16.0452 11.252C16.9972 11.252 17.7206 11.63 18.2152 12.386C18.2992 12.1433 18.4299 11.9333 18.6072 11.756C18.7939 11.5787 19.0412 11.4107 19.3492 11.252L20.5672 12.316ZM16.5772 16.6C17.3612 16.6 17.8606 16.2173 18.0752 15.452V13.8C17.8606 13.0347 17.3612 12.652 16.5772 12.652C16.0732 12.652 15.6812 12.834 15.4012 13.198C15.1306 13.5527 14.9952 13.982 14.9952 14.486V14.766C14.9952 15.2793 15.1306 15.7133 15.4012 16.068C15.6719 16.4227 16.0639 16.6 16.5772 16.6Z" fill="#333333"/>
</svg>
