<svg width="24" height="24" viewBox="0 0 24 24" fill="none" xmlns="http://www.w3.org/2000/svg">
<path d="M10.0589 15.144H5.84487L4.47287 18H3.14287L7.04887 9.936C7.37553 9.24533 7.69287 8.76 8.00087 8.48C8.30887 8.19067 8.70553 8.046 9.19087 8.046C9.6762 8.046 10.0262 8.186 10.2409 8.466C10.4555 8.746 10.6049 9.236 10.6889 9.936L11.7669 18H10.4229L10.0589 15.144ZM9.93287 14.122L9.41487 9.95C9.37753 9.70733 9.3262 9.53467 9.26087 9.432C9.20487 9.32933 9.1162 9.278 8.99487 9.278C8.85487 9.278 8.7382 9.32933 8.64487 9.432C8.55153 9.53467 8.4442 9.70733 8.32287 9.95L6.32087 14.122H9.93287ZM20.5054 11.994C20.2814 12.1527 20.1227 12.2927 20.0294 12.414C19.936 12.5353 19.8707 12.694 19.8334 12.89L18.7974 18.784C18.6574 19.596 18.3354 20.198 17.8314 20.59C17.3367 20.9913 16.6087 21.192 15.6474 21.192H13.9114L14.0794 20.24H15.8154C16.8234 20.24 17.4067 19.7547 17.5654 18.784L17.8454 17.104C17.2947 17.7013 16.562 18 15.6474 18C14.882 18 14.28 17.7713 13.8414 17.314C13.4027 16.8473 13.1834 16.2407 13.1834 15.494C13.1834 15.298 13.2067 15.06 13.2534 14.78L13.3094 14.486C13.412 13.898 13.6127 13.3613 13.9114 12.876C14.21 12.3907 14.5974 12.0033 15.0734 11.714C15.5587 11.4153 16.1094 11.266 16.7254 11.266C17.2014 11.266 17.6074 11.3593 17.9434 11.546C18.2887 11.7327 18.5547 12.0033 18.7414 12.358C18.8254 12.0967 18.9467 11.882 19.1054 11.714C19.264 11.5367 19.4787 11.3873 19.7494 11.266L20.5054 11.994ZM16.0254 17.034C16.5014 17.034 16.9074 16.922 17.2434 16.698C17.5887 16.4647 17.878 16.1147 18.1114 15.648L18.4754 13.604C18.3354 12.6893 17.7987 12.232 16.8654 12.232C16.2774 12.232 15.7734 12.442 15.3534 12.862C14.9334 13.282 14.6627 13.8233 14.5414 14.486L14.4854 14.78C14.448 15.0413 14.4294 15.228 14.4294 15.34C14.4294 15.8533 14.5647 16.264 14.8354 16.572C15.1154 16.88 15.512 17.034 16.0254 17.034Z" fill="#333333"/>
</svg>
