<svg width="24" height="24" viewBox="0 0 24 24" fill="none" xmlns="http://www.w3.org/2000/svg">
<path d="M9.65194 15.718H5.82994L4.76594 18H2.79194L6.55794 10.188C6.8286 9.628 7.0806 9.194 7.31394 8.886C7.5566 8.578 7.81794 8.35867 8.09794 8.228C8.37794 8.09733 8.70927 8.032 9.09194 8.032C9.49327 8.032 9.8106 8.10667 10.0439 8.256C10.2773 8.396 10.4546 8.62 10.5759 8.928C10.7066 9.236 10.8046 9.656 10.8699 10.188L11.8919 18H9.91794L9.65194 15.718ZM9.48394 14.248L9.02194 10.216C8.99394 9.97333 8.9146 9.852 8.78394 9.852C8.69994 9.852 8.62994 9.88467 8.57394 9.95C8.51794 10.006 8.46194 10.0947 8.40594 10.216L6.51594 14.248H9.48394ZM20.9872 12.316C20.6979 12.512 20.4926 12.6847 20.3712 12.834C20.2592 12.9833 20.1799 13.1887 20.1332 13.45L19.2092 18.686C19.0599 19.5727 18.7052 20.226 18.1452 20.646C17.5946 21.0753 16.7359 21.29 15.5692 21.29H13.7212L13.9592 19.89H15.8072C16.2459 19.89 16.6006 19.806 16.8712 19.638C17.1419 19.47 17.3146 19.1527 17.3892 18.686L17.6552 17.146C17.1139 17.7153 16.4092 18 15.5412 18C14.7852 18 14.1926 17.776 13.7632 17.328C13.3339 16.8707 13.1192 16.25 13.1192 15.466C13.1192 15.2233 13.1379 14.99 13.1752 14.766L13.2172 14.486C13.3012 13.9073 13.4972 13.3707 13.8052 12.876C14.1132 12.3813 14.5099 11.9893 14.9952 11.7C15.4899 11.4013 16.0452 11.252 16.6612 11.252C17.6132 11.252 18.2712 11.63 18.6352 12.386C18.7659 12.1433 18.9339 11.9333 19.1392 11.756C19.3446 11.5787 19.6152 11.4107 19.9512 11.252L20.9872 12.316ZM16.2552 16.6C17.0206 16.6 17.5852 16.2267 17.9492 15.48L18.2432 13.786C18.1592 13.03 17.7299 12.652 16.9552 12.652C16.4419 12.652 16.0126 12.834 15.6672 13.198C15.3219 13.5527 15.1119 13.982 15.0372 14.486L14.9952 14.766C14.9766 14.9527 14.9672 15.088 14.9672 15.172C14.9672 15.6013 15.0699 15.9467 15.2752 16.208C15.4899 16.4693 15.8166 16.6 16.2552 16.6Z" fill="#333333"/>
</svg>
