<svg width="24" height="24" viewBox="0 0 24 24" fill="none" xmlns="http://www.w3.org/2000/svg">
<path d="M7.35326 9.924C7.22259 10.3347 7.09659 10.7407 6.97526 11.142C6.86326 11.534 6.76526 11.8933 6.68126 12.22C6.67192 12.248 6.67192 12.2713 6.68126 12.29C6.69059 12.2993 6.70926 12.304 6.73726 12.304H8.92126C8.94926 12.304 8.96326 12.2947 8.96326 12.276C8.97259 12.2573 8.97726 12.234 8.97726 12.206L8.44526 10.526C8.37992 10.3207 8.32392 10.1387 8.27726 9.98C8.23059 9.82133 8.18392 9.66733 8.13726 9.518C8.09059 9.36867 8.04392 9.21467 7.99726 9.056C7.95059 8.89733 7.89459 8.706 7.82926 8.482C7.78259 8.60333 7.74059 8.72467 7.70326 8.846C7.66592 8.96733 7.62859 9.08867 7.59126 9.21C7.54459 9.33133 7.50259 9.45267 7.46526 9.574C7.42792 9.69533 7.39059 9.812 7.35326 9.924ZM11.9593 16.028C12.0433 16.0933 12.1366 16.14 12.2393 16.168C12.3513 16.196 12.4633 16.2147 12.5753 16.224C12.6406 16.2333 12.6966 16.2427 12.7433 16.252C12.7899 16.2613 12.8273 16.2753 12.8553 16.294C12.8739 16.3127 12.8879 16.336 12.8973 16.364C12.9159 16.4013 12.9253 16.4527 12.9253 16.518C12.9253 16.5927 12.9113 16.644 12.8833 16.672C12.8646 16.7093 12.8413 16.7373 12.8133 16.756C12.7759 16.7653 12.7339 16.77 12.6873 16.77C12.6406 16.77 12.5893 16.77 12.5333 16.77C12.5053 16.77 12.4166 16.77 12.2673 16.77C12.1273 16.77 11.9686 16.7653 11.7913 16.756C11.6046 16.7467 11.4179 16.7373 11.2313 16.728C11.0539 16.728 10.9233 16.728 10.8393 16.728C10.7553 16.728 10.6246 16.728 10.4473 16.728C10.2699 16.7373 10.0926 16.7467 9.91526 16.756C9.72859 16.7653 9.56059 16.77 9.41126 16.77C9.27126 16.77 9.19659 16.77 9.18726 16.77C9.13126 16.77 9.07992 16.77 9.03326 16.77C8.98659 16.77 8.94926 16.7653 8.92126 16.756C8.88392 16.7373 8.85592 16.7093 8.83726 16.672C8.82792 16.644 8.82326 16.5927 8.82326 16.518C8.82326 16.3873 8.84659 16.3033 8.89326 16.266C8.93992 16.238 9.02392 16.2193 9.14526 16.21C9.23859 16.21 9.35992 16.196 9.50926 16.168C9.65859 16.14 9.77526 16.1073 9.85926 16.07C9.91526 16.042 9.95726 16 9.98526 15.944C10.0226 15.8787 10.0273 15.7993 9.99926 15.706L9.25726 13.256C9.23859 13.228 9.21992 13.2047 9.20126 13.186C9.19192 13.1673 9.17326 13.158 9.14526 13.158H6.51326C6.47592 13.158 6.44326 13.1673 6.41526 13.186C6.39659 13.2047 6.38726 13.228 6.38726 13.256L5.70126 15.664C5.67326 15.7573 5.65926 15.8367 5.65926 15.902C5.65926 15.9673 5.69192 16.0233 5.75726 16.07C5.81326 16.126 5.90659 16.168 6.03726 16.196C6.16792 16.224 6.30792 16.2427 6.45726 16.252C6.56926 16.2613 6.64859 16.28 6.69526 16.308C6.75126 16.3453 6.77926 16.42 6.77926 16.532C6.77926 16.5973 6.76992 16.644 6.75126 16.672C6.73259 16.7093 6.70926 16.7373 6.68126 16.756C6.65326 16.7653 6.61592 16.77 6.56926 16.77C6.52259 16.77 6.47126 16.77 6.41526 16.77C6.38726 16.77 6.30792 16.77 6.17726 16.77C6.05592 16.77 5.92059 16.7653 5.77126 16.756C5.62192 16.7467 5.47726 16.7373 5.33726 16.728C5.19726 16.728 5.09926 16.728 5.04326 16.728C4.96859 16.728 4.86126 16.728 4.72126 16.728C4.58126 16.7373 4.44126 16.7467 4.30126 16.756C4.16126 16.7653 4.03526 16.77 3.92326 16.77C3.81126 16.77 3.74592 16.77 3.72726 16.77C3.67126 16.77 3.61992 16.77 3.57326 16.77C3.53592 16.77 3.50792 16.7653 3.48926 16.756C3.46126 16.7373 3.43792 16.7093 3.41926 16.672C3.40059 16.644 3.39126 16.5927 3.39126 16.518C3.39126 16.3873 3.41459 16.3033 3.46126 16.266C3.50792 16.238 3.59192 16.2193 3.71326 16.21C3.78792 16.21 3.87192 16.196 3.96526 16.168C4.05859 16.1493 4.14259 16.1213 4.21726 16.084C4.28259 16.056 4.34326 15.9813 4.39926 15.86C4.46459 15.7387 4.52526 15.6033 4.58126 15.454L7.45126 6.816C7.45126 6.80667 7.45126 6.79733 7.45126 6.788C7.46059 6.76933 7.46992 6.75067 7.47926 6.732C7.48859 6.71333 7.50259 6.69467 7.52126 6.676C7.54926 6.65733 7.58192 6.63867 7.61926 6.62L8.41726 6.228C8.51059 6.19067 8.58059 6.186 8.62726 6.214C8.68326 6.23267 8.72526 6.284 8.75326 6.368L9.32726 8.202C9.50459 8.78067 9.68659 9.378 9.87326 9.994C10.0599 10.6007 10.2513 11.2167 10.4473 11.842C10.6339 12.458 10.8206 13.0693 11.0073 13.676C11.2033 14.2733 11.3946 14.8427 11.5813 15.384C11.6373 15.552 11.6933 15.692 11.7493 15.804C11.8146 15.9067 11.8846 15.9813 11.9593 16.028ZM17.8108 11.954C17.8108 11.4593 17.7082 11.0673 17.5028 10.778C17.2975 10.4793 16.9708 10.33 16.5228 10.33C16.1028 10.33 15.7762 10.4793 15.5428 10.778C15.3095 11.0673 15.1928 11.4593 15.1928 11.954C15.1928 12.43 15.2955 12.8127 15.5008 13.102C15.7062 13.3913 16.0468 13.536 16.5228 13.536C16.9708 13.536 17.2975 13.3913 17.5028 13.102C17.7082 12.8127 17.8108 12.43 17.8108 11.954ZM17.2928 15.958H15.9068C15.6362 15.958 15.3982 16.084 15.1928 16.336C14.9875 16.588 14.8848 16.8727 14.8848 17.19C14.8848 17.6007 15.0202 17.9133 15.2908 18.128C15.5615 18.3427 15.9302 18.45 16.3968 18.45C17.2368 18.45 17.8295 18.324 18.1748 18.072C18.5202 17.8293 18.6928 17.484 18.6928 17.036C18.6928 16.6907 18.5948 16.4247 18.3988 16.238C18.2028 16.0513 17.8342 15.958 17.2928 15.958ZM13.6948 14.936C13.6948 14.7773 13.7462 14.6373 13.8488 14.516C13.9515 14.3947 14.0775 14.2873 14.2268 14.194C14.3668 14.11 14.5162 14.0447 14.6748 13.998C14.8335 13.942 14.9642 13.9 15.0668 13.872C14.9455 13.816 14.8055 13.7413 14.6468 13.648C14.4975 13.5453 14.3528 13.4193 14.2128 13.27C14.0728 13.1207 13.9562 12.948 13.8628 12.752C13.7695 12.556 13.7228 12.332 13.7228 12.08C13.7228 11.352 13.9795 10.778 14.4928 10.358C15.0155 9.92867 15.6828 9.714 16.4948 9.714C16.8122 9.72333 17.0735 9.756 17.2788 9.812C17.4842 9.868 17.7082 9.95667 17.9508 10.078C18.0535 10.1247 18.1608 10.162 18.2728 10.19C18.3848 10.218 18.4968 10.2273 18.6088 10.218H19.7568C19.8688 10.218 19.9575 10.246 20.0228 10.302C20.0882 10.358 20.1208 10.4607 20.1208 10.61C20.1208 10.7687 20.0788 10.876 19.9948 10.932C19.9108 10.988 19.8268 11.016 19.7428 11.016H19.0988C19.0428 11.016 19.0148 11.0253 19.0148 11.044C19.0148 11.0627 19.0242 11.0813 19.0428 11.1C19.0895 11.212 19.1315 11.3567 19.1688 11.534C19.2155 11.7113 19.2388 11.87 19.2388 12.01C19.2388 12.2807 19.1922 12.542 19.0988 12.794C19.0148 13.046 18.8702 13.27 18.6648 13.466C18.4502 13.662 18.1748 13.8207 17.8388 13.942C17.5028 14.054 17.0828 14.11 16.5788 14.11C16.2148 14.11 15.8882 14.152 15.5988 14.236C15.3095 14.32 15.1648 14.418 15.1648 14.53C15.1648 14.6327 15.2068 14.7213 15.2908 14.796C15.3748 14.8613 15.6502 14.894 16.1168 14.894H17.6428C18.4828 14.894 19.0848 15.0527 19.4488 15.37C19.8128 15.678 19.9948 16.112 19.9948 16.672C19.9948 17.3907 19.6308 17.988 18.9028 18.464C18.1748 18.94 17.0642 19.178 15.5708 19.178C14.7682 19.178 14.2175 19.0473 13.9188 18.786C13.6202 18.5247 13.4708 18.142 13.4708 17.638C13.4708 17.2553 13.6015 16.9193 13.8628 16.63C14.1335 16.35 14.4368 16.1027 14.7728 15.888C14.4088 15.804 14.1335 15.6733 13.9468 15.496C13.7695 15.3187 13.6855 15.132 13.6948 14.936Z" fill="#333333"/>
</svg>
