<svg width="24" height="24" viewBox="0 0 24 24" fill="none" xmlns="http://www.w3.org/2000/svg">
<path d="M4.28485 17L4.10285 15.908L4.87285 15.656L7.64485 7.326H9.38085L12.1949 15.656L12.8389 15.908L12.6989 17H9.05885V15.95L10.1789 15.656L9.67485 13.948H6.93085L6.39885 15.712L7.63085 15.936V17H4.28485ZM7.36485 12.478H9.05885L8.31685 9.314L7.36485 12.478ZM15.7961 20.808C15.2455 20.808 14.7648 20.7147 14.3541 20.528C13.9528 20.3507 13.6401 20.1033 13.4161 19.786C13.2015 19.4687 13.0941 19.114 13.0941 18.722C13.0941 18.2833 13.1968 17.9147 13.4021 17.616C13.6168 17.3267 13.8735 17.0933 14.1721 16.916C14.0695 16.804 13.9855 16.6733 13.9201 16.524C13.8641 16.3653 13.8361 16.1833 13.8361 15.978C13.8361 15.7353 13.8828 15.5207 13.9761 15.334C14.0788 15.138 14.2048 14.97 14.3541 14.83C14.0368 14.6247 13.7708 14.354 13.5561 14.018C13.3508 13.6727 13.2481 13.2573 13.2481 12.772C13.2481 12.2027 13.3835 11.722 13.6541 11.33C13.9341 10.938 14.2841 10.6393 14.7041 10.434C15.1335 10.2287 15.5768 10.126 16.0341 10.126C16.3608 10.126 16.6781 10.1773 16.9861 10.28C17.3035 10.3827 17.5881 10.532 17.8401 10.728L19.3661 9.958L19.6881 10L19.8421 11.386L18.5401 11.54C18.6335 11.7173 18.7035 11.9087 18.7501 12.114C18.8061 12.3193 18.8341 12.5387 18.8341 12.772C18.8341 13.332 18.6941 13.7987 18.4141 14.172C18.1435 14.5453 17.7935 14.8253 17.3641 15.012C16.9441 15.1987 16.5008 15.292 16.0341 15.292C15.9688 15.292 15.9035 15.292 15.8381 15.292C15.7821 15.292 15.7261 15.2873 15.6701 15.278L15.4181 15.656L15.4461 15.852L16.8741 16.146C17.3688 16.2487 17.7795 16.3933 18.1061 16.58C18.4328 16.7573 18.6755 16.972 18.8341 17.224C18.9928 17.4853 19.0721 17.7887 19.0721 18.134C19.0721 18.694 18.9228 19.1747 18.6241 19.576C18.3348 19.9773 17.9428 20.2807 17.4481 20.486C16.9535 20.7007 16.4028 20.808 15.7961 20.808ZM16.1741 19.128C16.4355 19.128 16.6828 19.0953 16.9161 19.03C17.1495 18.974 17.3408 18.8853 17.4901 18.764C17.6488 18.652 17.7281 18.5213 17.7281 18.372C17.7281 18.232 17.6488 18.12 17.4901 18.036C17.3315 17.9613 17.1215 17.896 16.8601 17.84C16.6081 17.7933 16.3328 17.742 16.0341 17.686C15.7355 17.6393 15.4461 17.5693 15.1661 17.476C14.9608 17.5973 14.8161 17.728 14.7321 17.868C14.6575 18.0173 14.6201 18.162 14.6201 18.302C14.6201 18.4233 14.6668 18.5447 14.7601 18.666C14.8535 18.7967 15.0121 18.904 15.2361 18.988C15.4601 19.0813 15.7728 19.128 16.1741 19.128ZM16.0341 13.976C16.4075 13.976 16.6781 13.85 16.8461 13.598C17.0141 13.3367 17.0981 13.038 17.0981 12.702C17.0981 12.3753 17.0141 12.086 16.8461 11.834C16.6781 11.5727 16.4075 11.442 16.0341 11.442C15.6701 11.442 15.4041 11.5727 15.2361 11.834C15.0681 12.086 14.9841 12.3753 14.9841 12.702C14.9841 13.038 15.0681 13.3367 15.2361 13.598C15.4041 13.85 15.6701 13.976 16.0341 13.976Z" fill="#888888"/>
</svg>
