<svg width="24" height="24" viewBox="0 0 24 24" fill="none" xmlns="http://www.w3.org/2000/svg">
<path d="M10.7416 17C10.5549 15.9827 10.3543 15.082 10.1396 14.298H5.67359C5.45892 15.082 5.25825 15.9827 5.07159 17H3.68559C4.06825 15.1147 4.53959 13.3833 5.09959 11.806C5.66892 10.2193 6.36892 8.684 7.19959 7.2H8.62759C9.45825 8.67467 10.1536 10.2007 10.7136 11.778C11.2829 13.3553 11.7543 15.096 12.1276 17H10.7416ZM9.84559 13.22C9.34159 11.5027 8.69759 9.89733 7.91359 8.404C7.12025 9.87867 6.47159 11.484 5.96759 13.22H9.84559ZM19.713 8.754C19.9276 8.754 20.0816 8.81933 20.175 8.95C20.2776 9.07133 20.329 9.27667 20.329 9.566C20.329 9.706 20.3243 9.81333 20.315 9.888C19.643 9.888 19.1716 9.97667 18.901 10.154C19.2556 10.5927 19.433 11.12 19.433 11.736C19.433 12.6227 19.1623 13.2947 18.621 13.752C18.0796 14.2 17.2863 14.424 16.241 14.424C15.6716 14.424 15.261 14.466 15.009 14.55C14.7663 14.6247 14.645 14.7507 14.645 14.928C14.645 15.124 14.799 15.2687 15.107 15.362C15.4243 15.446 15.9423 15.488 16.661 15.488C17.7343 15.488 18.5603 15.67 19.139 16.034C19.727 16.398 20.021 16.9113 20.021 17.574C20.021 18.2927 19.7036 18.8527 19.069 19.254C18.4343 19.6553 17.5383 19.856 16.381 19.856C15.2703 19.856 14.4163 19.6787 13.819 19.324C13.231 18.9787 12.937 18.4747 12.937 17.812C12.937 17.42 13.0723 17.0887 13.343 16.818C13.623 16.538 14.0196 16.342 14.533 16.23V16.188C14.225 16.1133 13.9776 15.978 13.791 15.782C13.6136 15.5767 13.525 15.3387 13.525 15.068C13.525 14.8347 13.6183 14.6247 13.805 14.438C14.001 14.2513 14.2623 14.116 14.589 14.032C14.169 13.808 13.8376 13.514 13.595 13.15C13.3616 12.7767 13.245 12.3613 13.245 11.904C13.245 11.008 13.5203 10.3267 14.071 9.86C14.631 9.39333 15.443 9.16 16.507 9.16C17.123 9.16 17.669 9.286 18.145 9.538C18.369 9.29533 18.621 9.104 18.901 8.964C19.181 8.824 19.4516 8.754 19.713 8.754ZM16.325 13.458C16.941 13.458 17.3843 13.3273 17.655 13.066C17.9256 12.8047 18.061 12.38 18.061 11.792C18.061 11.204 17.921 10.7747 17.641 10.504C17.3703 10.2333 16.9316 10.098 16.325 10.098C15.737 10.098 15.303 10.238 15.023 10.518C14.743 10.7887 14.603 11.2133 14.603 11.792C14.603 12.9027 15.177 13.458 16.325 13.458ZM16.437 16.496C15.0183 16.496 14.309 16.8833 14.309 17.658C14.309 18.47 14.9996 18.876 16.381 18.876C17.1463 18.876 17.725 18.7733 18.117 18.568C18.509 18.3627 18.705 18.0593 18.705 17.658C18.705 17.2567 18.523 16.9627 18.159 16.776C17.8043 16.5893 17.2303 16.496 16.437 16.496Z" fill="#333333"/>
</svg>
