<svg width="24" height="24" viewBox="0 0 24 24" fill="none" xmlns="http://www.w3.org/2000/svg">
<path d="M10.7085 17C10.5031 15.9547 10.2745 15.0073 10.0225 14.158H4.80045C4.52045 15.11 4.28712 16.0573 4.10045 17H3.27445C3.69445 15.068 4.20312 13.318 4.80045 11.75C5.40712 10.182 6.14912 8.66533 7.02645 7.2H7.79645C8.67379 8.656 9.41112 10.168 10.0085 11.736C10.6058 13.304 11.1145 15.0587 11.5345 17H10.7085ZM9.81245 13.458C9.16845 11.4327 8.36579 9.62667 7.40445 8.04C6.46179 9.58933 5.66379 11.3953 5.01045 13.458H9.81245ZM19.1661 8.894C19.3341 8.894 19.4554 8.93133 19.5301 9.006C19.6048 9.07133 19.6421 9.19267 19.6421 9.37C19.6421 9.46333 19.6374 9.53333 19.6281 9.58C18.9001 9.58 18.3821 9.706 18.0741 9.958C18.5221 10.406 18.7461 10.9987 18.7461 11.736C18.7461 13.528 17.7148 14.424 15.6521 14.424C14.9521 14.424 14.4481 14.4707 14.1401 14.564C13.8414 14.6573 13.6921 14.816 13.6921 15.04C13.6921 15.3013 13.8601 15.4833 14.1961 15.586C14.5321 15.6793 15.1341 15.726 16.0021 15.726C17.1034 15.726 17.9434 15.8893 18.5221 16.216C19.1008 16.5427 19.3901 17.0187 19.3901 17.644C19.3901 18.3813 19.0914 18.9273 18.4941 19.282C17.9061 19.646 17.0054 19.828 15.7921 19.828C14.7188 19.828 13.8928 19.6553 13.3141 19.31C12.7354 18.974 12.4461 18.484 12.4461 17.84C12.4461 17.4293 12.5721 17.084 12.8241 16.804C13.0761 16.5147 13.4401 16.3047 13.9161 16.174V16.132C13.6361 16.0667 13.4121 15.9407 13.2441 15.754C13.0854 15.5673 13.0061 15.3433 13.0061 15.082C13.0061 14.8207 13.0994 14.6013 13.2861 14.424C13.4821 14.2467 13.7528 14.13 14.0981 14.074C13.6781 13.85 13.3468 13.5513 13.1041 13.178C12.8708 12.8047 12.7541 12.38 12.7541 11.904C12.7541 10.0747 13.8088 9.16 15.9181 9.16C16.5808 9.16 17.1454 9.30467 17.6121 9.594C17.8548 9.37933 18.1114 9.21133 18.3821 9.09C18.6621 8.95933 18.9234 8.894 19.1661 8.894ZM15.7361 13.766C16.5014 13.766 17.0614 13.612 17.4161 13.304C17.7708 12.9867 17.9481 12.4827 17.9481 11.792C17.9481 11.1107 17.7661 10.6067 17.4021 10.28C17.0474 9.95333 16.4921 9.79 15.7361 9.79C14.2708 9.79 13.5381 10.4573 13.5381 11.792C13.5381 12.4267 13.7248 12.9167 14.0981 13.262C14.4808 13.598 15.0268 13.766 15.7361 13.766ZM18.5921 17.728C18.5921 17.2613 18.3774 16.9253 17.9481 16.72C17.5281 16.5147 16.8281 16.412 15.8481 16.412C14.9521 16.412 14.2941 16.5193 13.8741 16.734C13.4541 16.9393 13.2441 17.2707 13.2441 17.728C13.2441 18.2227 13.4494 18.5867 13.8601 18.82C14.2801 19.0533 14.9241 19.17 15.7921 19.17C16.7628 19.17 17.4721 19.0533 17.9201 18.82C18.3681 18.596 18.5921 18.232 18.5921 17.728Z" fill="#333333"/>
</svg>
