<svg width="24" height="24" viewBox="0 0 24 24" fill="none" xmlns="http://www.w3.org/2000/svg">
<path d="M3.3177 17L5.7397 10.21C5.94503 9.61267 6.19236 9.09933 6.4817 8.67C6.78036 8.24067 7.12103 7.89067 7.5037 7.62C7.8957 7.34 8.35303 7.13467 8.8757 7.004C9.4077 6.87333 10.0144 6.808 10.6957 6.808C11.069 6.808 11.4284 6.83133 11.7737 6.878C12.1284 6.91533 12.483 6.976 12.8377 7.06L12.8517 7.228C12.7584 7.508 12.6697 7.844 12.5857 8.236C12.511 8.61867 12.4457 8.95 12.3897 9.23L10.8777 17H9.2537L10.8357 8.908C10.873 8.73067 10.915 8.558 10.9617 8.39C11.0084 8.21267 11.0784 8.05867 11.1717 7.928L11.2697 8.362C11.1857 8.306 11.0504 8.264 10.8637 8.236C10.677 8.208 10.4857 8.194 10.2897 8.194C9.72036 8.194 9.24436 8.278 8.8617 8.446C8.48836 8.614 8.18503 8.85667 7.9517 9.174C7.71836 9.49133 7.5177 9.874 7.3497 10.322L4.9837 17H3.3177ZM5.6417 14.046L6.0897 12.674H10.4437L10.1777 14.046H5.6417ZM15.1453 20.36C14.912 20.36 14.6646 20.346 14.4033 20.318C14.142 20.29 13.8853 20.248 13.6333 20.192C13.3813 20.1453 13.162 20.0847 12.9753 20.01L13.2413 18.638H13.3673C13.638 18.778 13.9413 18.8807 14.2773 18.946C14.6226 19.0113 14.954 19.044 15.2713 19.044C16.1393 19.044 16.8066 18.8293 17.2733 18.4C17.7493 17.98 18.0526 17.364 18.1833 16.552L19.1633 11.554C19.21 11.302 19.2566 11.092 19.3033 10.924C19.3593 10.7467 19.4106 10.5973 19.4573 10.476L19.6953 10.854C19.434 10.7233 19.1913 10.63 18.9673 10.574C18.7526 10.518 18.4633 10.49 18.0993 10.49C17.502 10.49 16.9793 10.6207 16.5313 10.882C16.0833 11.134 15.7333 11.5027 15.4813 11.988C15.2386 12.464 15.1173 13.038 15.1173 13.71C15.1173 14.41 15.3086 14.914 15.6913 15.222C16.074 15.5207 16.6106 15.67 17.3013 15.67C17.6186 15.67 17.8753 15.6467 18.0713 15.6C18.2673 15.5533 18.4306 15.502 18.5613 15.446L18.3093 16.72C18.216 16.7573 18.0993 16.7947 17.9593 16.832C17.8286 16.8693 17.6793 16.902 17.5113 16.93C17.3526 16.9487 17.1846 16.958 17.0073 16.958C16.3353 16.958 15.7333 16.8413 15.2013 16.608C14.6786 16.3747 14.2633 16.0247 13.9553 15.558C13.6566 15.082 13.5073 14.48 13.5073 13.752C13.5073 12.828 13.7033 12.0253 14.0953 11.344C14.4966 10.6627 15.052 10.14 15.7613 9.776C16.48 9.40267 17.3153 9.216 18.2673 9.216C18.7993 9.216 19.308 9.26267 19.7933 9.356C20.2786 9.44 20.7266 9.566 21.1373 9.734L21.2073 9.846C21.142 10.0047 21.0813 10.182 21.0253 10.378C20.9693 10.5647 20.918 10.7607 20.8713 10.966C20.8246 11.162 20.7826 11.3533 20.7453 11.54L19.7093 16.79C19.56 17.546 19.3033 18.1853 18.9393 18.708C18.5753 19.24 18.0806 19.646 17.4553 19.926C16.83 20.2153 16.06 20.36 15.1453 20.36Z" fill="#888888"/>
</svg>
