<svg width="24" height="24" viewBox="0 0 24 24" fill="none" xmlns="http://www.w3.org/2000/svg">
<path d="M4.70009 17L5.82009 10.28C5.91342 9.72 6.04875 9.22533 6.22609 8.796C6.41275 8.36667 6.66009 8.00267 6.96809 7.704C7.27609 7.40533 7.67275 7.18133 8.15809 7.032C8.64342 6.88267 9.23609 6.808 9.93609 6.808C10.2721 6.808 10.6081 6.82667 10.9441 6.864C11.2894 6.892 11.6441 6.948 12.0081 7.032L12.0361 7.2C12.0081 7.38667 11.9848 7.62 11.9661 7.9C11.9568 8.18 11.9521 8.46 11.9521 8.74C11.9521 9.02 11.9521 9.25333 11.9521 9.44V17H10.6081V8.712C10.6081 8.52533 10.6081 8.35267 10.6081 8.194C10.6174 8.026 10.6361 7.86733 10.6641 7.718L10.8881 8.124C10.7668 8.068 10.6174 8.03067 10.4401 8.012C10.2721 7.99333 10.0854 7.984 9.88009 7.984C9.26409 7.984 8.77409 8.068 8.41009 8.236C8.05542 8.404 7.78475 8.656 7.59809 8.992C7.42075 9.328 7.28542 9.75733 7.19209 10.28L6.07209 17H4.70009ZM6.10009 13.92V12.744H11.1681V13.92H6.10009ZM15.8456 20.36C15.5096 20.36 15.141 20.3273 14.7396 20.262C14.3383 20.206 13.9976 20.1173 13.7176 19.996V18.848H13.8296C14.1376 18.988 14.4736 19.086 14.8376 19.142C15.211 19.2073 15.547 19.24 15.8456 19.24C16.4523 19.24 16.9376 19.1513 17.3016 18.974C17.6656 18.7967 17.927 18.526 18.0856 18.162C18.2536 17.798 18.3376 17.336 18.3376 16.776V11.4C18.3376 11.176 18.3423 10.966 18.3516 10.77C18.3703 10.574 18.3936 10.3873 18.4216 10.21L18.6596 10.602C18.4543 10.5367 18.221 10.476 17.9596 10.42C17.7076 10.364 17.4323 10.336 17.1336 10.336C16.5176 10.336 16.0043 10.4433 15.5936 10.658C15.183 10.8633 14.875 11.176 14.6696 11.596C14.4643 12.0067 14.3616 12.52 14.3616 13.136C14.3616 14.032 14.5903 14.704 15.0476 15.152C15.5143 15.6 16.2096 15.824 17.1336 15.824C17.395 15.824 17.6423 15.8053 17.8756 15.768C18.109 15.7307 18.3656 15.656 18.6456 15.544L18.6176 16.72C18.3003 16.7947 18.0203 16.8507 17.7776 16.888C17.535 16.9253 17.3016 16.944 17.0776 16.944C16.275 16.944 15.5703 16.804 14.9636 16.524C14.357 16.2347 13.8856 15.81 13.5496 15.25C13.2136 14.6807 13.0456 13.976 13.0456 13.136C13.0456 12.5293 13.1343 11.988 13.3116 11.512C13.4983 11.0267 13.769 10.616 14.1236 10.28C14.4783 9.93467 14.9076 9.67333 15.4116 9.496C15.9156 9.30933 16.4896 9.216 17.1336 9.216C17.5536 9.216 17.997 9.26733 18.4636 9.37C18.9303 9.46333 19.3456 9.58 19.7096 9.72L19.7376 9.832C19.7003 10 19.6723 10.2287 19.6536 10.518C19.6443 10.8073 19.635 11.1013 19.6256 11.4C19.6256 11.6987 19.6256 11.9413 19.6256 12.128V16.776C19.6256 17.5227 19.4763 18.162 19.1776 18.694C18.8883 19.2353 18.459 19.646 17.8896 19.926C17.3296 20.2153 16.6483 20.36 15.8456 20.36Z" fill="#888888"/>
</svg>
