<svg width="24" height="24" viewBox="0 0 24 24" fill="none" xmlns="http://www.w3.org/2000/svg">
<path d="M2.83049 17L3.95049 10.392C4.07183 9.664 4.26783 9.06667 4.53849 8.6C4.80916 8.13333 5.14516 7.76933 5.54649 7.508C5.95716 7.24667 6.43783 7.06467 6.98849 6.962C7.53916 6.85933 8.15516 6.808 8.83649 6.808C9.22849 6.808 9.65316 6.83133 10.1105 6.878C10.5678 6.92467 10.9832 6.99 11.3565 7.074L11.3845 7.242C11.3472 7.41 11.3192 7.634 11.3005 7.914C11.2912 8.194 11.2818 8.47867 11.2725 8.768C11.2725 9.05733 11.2725 9.29533 11.2725 9.482V17H8.79449V9.734C8.79449 9.46333 8.80383 9.216 8.82249 8.992C8.85049 8.75867 8.88316 8.54867 8.92049 8.362L9.24249 8.964C9.13983 8.936 8.99983 8.91733 8.82249 8.908C8.65449 8.88933 8.49583 8.88 8.34649 8.88C7.90783 8.88 7.55783 8.94067 7.29649 9.062C7.03516 9.174 6.83449 9.34667 6.69449 9.58C6.56383 9.81333 6.46583 10.112 6.40049 10.476L5.32249 17H2.83049ZM4.62249 14.424V12.436H9.94249V14.424H4.62249ZM15.9746 20.36C15.6013 20.36 15.2 20.332 14.7706 20.276C14.3506 20.22 14.01 20.1313 13.7486 20.01V18.064H13.9446C14.1873 18.176 14.4813 18.26 14.8266 18.316C15.172 18.3813 15.4893 18.414 15.7786 18.414C16.2453 18.414 16.6513 18.3627 16.9966 18.26C17.3513 18.1573 17.6266 17.9847 17.8226 17.742C18.0186 17.4993 18.1166 17.1633 18.1166 16.734V12.184C18.1166 11.848 18.1306 11.54 18.1586 11.26C18.1866 10.98 18.2426 10.784 18.3266 10.672L18.5366 11.106C18.4806 11.106 18.3453 11.092 18.1306 11.064C17.9253 11.0267 17.6966 11.008 17.4446 11.008C16.9873 11.008 16.6093 11.0967 16.3106 11.274C16.0213 11.4513 15.8066 11.6987 15.6666 12.016C15.536 12.3333 15.4706 12.6927 15.4706 13.094C15.4706 13.7567 15.6293 14.2653 15.9466 14.62C16.264 14.9747 16.7633 15.152 17.4446 15.152C17.5753 15.152 17.706 15.1473 17.8366 15.138C17.9766 15.1193 18.14 15.0773 18.3266 15.012L18.3126 16.818C18.0606 16.8647 17.832 16.8973 17.6266 16.916C17.4306 16.9347 17.244 16.944 17.0666 16.944C16.236 16.944 15.5126 16.804 14.8966 16.524C14.2806 16.244 13.8046 15.824 13.4686 15.264C13.1326 14.6947 12.9646 13.9853 12.9646 13.136C12.9646 12.4547 13.0813 11.862 13.3146 11.358C13.548 10.854 13.8746 10.4387 14.2946 10.112C14.724 9.78533 15.2233 9.54267 15.7926 9.384C16.362 9.216 16.978 9.132 17.6406 9.132C18.2753 9.132 18.8493 9.19733 19.3626 9.328C19.876 9.45867 20.3006 9.60333 20.6366 9.762L20.6926 9.874C20.6553 10.042 20.6273 10.266 20.6086 10.546C20.5993 10.826 20.59 11.1107 20.5806 11.4C20.5806 11.6893 20.5806 11.932 20.5806 12.128V16.426C20.5806 17.3313 20.3846 18.0733 19.9926 18.652C19.61 19.2307 19.0733 19.66 18.3826 19.94C17.692 20.22 16.8893 20.36 15.9746 20.36Z" fill="#888888"/>
</svg>
