<svg width="24" height="24" viewBox="0 0 24 24" fill="none" xmlns="http://www.w3.org/2000/svg">
<path d="M4.1198 16.986L8.43181 7.2H10.3078L12.2258 16.986H10.6578L10.2098 14.578H6.7658L5.7158 16.986H4.1198ZM9.17381 9.048L7.3258 13.304H9.9578L9.17381 9.048ZM15.5943 19.856C15.2863 19.856 14.9737 19.8047 14.6563 19.702C14.339 19.6087 14.0497 19.478 13.7883 19.31C13.527 19.142 13.3263 18.9553 13.1863 18.75L14.2223 17.798C14.465 18.0407 14.7543 18.2133 15.0903 18.316C15.4357 18.4187 15.767 18.4327 16.0843 18.358C16.4017 18.2927 16.6537 18.12 16.8403 17.84C16.971 17.6907 17.069 17.5133 17.1343 17.308C17.209 17.1027 17.265 16.874 17.3023 16.622C16.705 16.9487 16.131 17.0887 15.5803 17.042C15.039 16.9953 14.5583 16.8133 14.1383 16.496C13.7277 16.1787 13.415 15.7587 13.2003 15.236C12.995 14.7133 12.9297 14.1347 13.0043 13.5C13.079 12.7907 13.275 12.1747 13.5923 11.652C13.9097 11.1293 14.3017 10.7233 14.7683 10.434C15.2443 10.1447 15.7623 9.986 16.3223 9.958C16.8917 9.93 17.475 10.056 18.0723 10.336L18.1423 10H19.6263L18.8003 16.72C18.679 17.6907 18.343 18.456 17.7923 19.016C17.251 19.576 16.5183 19.856 15.5943 19.856ZM14.4603 13.654C14.395 14.214 14.4977 14.6527 14.7683 14.97C15.0483 15.2873 15.431 15.4693 15.9163 15.516C16.4017 15.5627 16.915 15.4693 17.4563 15.236L17.9463 11.75C17.377 11.4327 16.8403 11.302 16.3363 11.358C15.8417 11.4047 15.4263 11.624 15.0903 12.016C14.7543 12.408 14.5443 12.954 14.4603 13.654Z" fill="#888888"/>
</svg>
