<svg width="24" height="24" viewBox="0 0 24 24" fill="none" xmlns="http://www.w3.org/2000/svg">
<path d="M4.20184 17L8.68184 7.2H10.0958L12.1818 17H11.0058L10.4878 14.508H6.52584L5.39184 17H4.20184ZM9.24184 8.544L6.94584 13.57H10.2918L9.24184 8.544ZM15.4973 19.856C15.068 19.856 14.6527 19.7673 14.2513 19.59C13.85 19.422 13.5233 19.212 13.2713 18.96L14.0413 18.204C14.34 18.4467 14.69 18.61 15.0913 18.694C15.502 18.7873 15.894 18.7827 16.2673 18.68C16.6407 18.5773 16.9253 18.358 17.1213 18.022C17.2613 17.826 17.364 17.6113 17.4293 17.378C17.504 17.154 17.5647 16.8787 17.6113 16.552C16.986 16.8973 16.3793 17.0607 15.7913 17.042C15.2127 17.0233 14.6947 16.8647 14.2373 16.566C13.7893 16.2673 13.444 15.8613 13.2013 15.348C12.968 14.8253 12.884 14.2327 12.9493 13.57C13.0333 12.8047 13.2387 12.156 13.5653 11.624C13.9013 11.0827 14.3213 10.672 14.8253 10.392C15.3387 10.112 15.8987 9.96733 16.5053 9.958C17.112 9.94867 17.728 10.0887 18.3533 10.378L18.4233 10H19.5433L18.6893 16.874C18.5773 17.798 18.2553 18.526 17.7233 19.058C17.1913 19.59 16.4493 19.856 15.4973 19.856ZM14.0413 13.696C13.9947 14.1813 14.0647 14.592 14.2513 14.928C14.4473 15.264 14.7227 15.5113 15.0773 15.67C15.4413 15.8287 15.852 15.894 16.3093 15.866C16.7667 15.838 17.238 15.7073 17.7233 15.474L18.2553 11.456C17.5367 11.12 16.874 10.98 16.2673 11.036C15.6607 11.092 15.1613 11.344 14.7693 11.792C14.3773 12.2307 14.1347 12.8653 14.0413 13.696Z" fill="#888888"/>
</svg>
