<svg width="24" height="24" viewBox="0 0 24 24" fill="none" xmlns="http://www.w3.org/2000/svg">
<path d="M13.75 15.4531L13.3672 16L12.6221 15.9863L13.0527 15.3711C12.2096 15.2253 11.46 14.9176 10.8037 14.4482C9.41829 15.5693 8.10124 16.1299 6.85254 16.1299C6.31478 16.1299 5.82259 15.9863 5.37598 15.6992C4.93392 15.4121 4.71289 15.0521 4.71289 14.6191C4.71289 14.3822 4.77897 14.1976 4.91113 14.0654C5.04785 13.9287 5.19824 13.8604 5.3623 13.8604C5.5127 13.8604 5.6403 13.9128 5.74512 14.0176C5.84993 14.1178 5.90234 14.2386 5.90234 14.3799C5.90234 14.5029 5.85677 14.6077 5.76562 14.6943C5.67904 14.7809 5.57194 14.8242 5.44434 14.8242C5.15723 14.8242 5.00456 14.6374 4.98633 14.2637L4.95898 14.2568C4.84961 14.389 4.79492 14.5348 4.79492 14.6943C4.79492 15.0635 5.01139 15.3848 5.44434 15.6582C5.87728 15.9316 6.3763 16.0684 6.94141 16.0684C7.61589 16.0684 8.32454 15.8815 9.06738 15.5078C9.81022 15.1341 10.3708 14.7627 10.749 14.3936C9.73275 13.4365 9.22461 12.4089 9.22461 11.3105C9.22461 10.6361 9.40234 10.0664 9.75781 9.60156C10.1178 9.13216 10.5645 8.89746 11.0977 8.89746C11.7038 8.89746 12.2552 9.14128 12.752 9.62891C13.2487 10.112 13.627 10.75 13.8867 11.543C15.778 9.79297 17.1292 8.64453 17.9404 8.09766C18.7516 7.55078 19.4831 7.1429 20.1348 6.87402C20.791 6.60059 21.4085 6.45247 21.9873 6.42969L20.0664 8.17285C19.1504 9.00228 18.002 10.2282 16.6211 11.8506C15.2402 13.4684 14.3014 14.6442 13.8047 15.3779C14.5794 15.3369 15.2243 15.1045 15.7393 14.6807L15.7871 14.7285C15.2721 15.1523 14.5931 15.3939 13.75 15.4531ZM13.9004 11.6318C13.9688 11.8916 14.0029 12.1605 14.0029 12.4385C14.0029 13.1221 13.8001 13.9219 13.3945 14.8379L13.4492 14.8652C14.6569 13.2018 16.0993 11.5293 17.7764 9.84766C19.4535 8.16602 20.7546 7.07454 21.6797 6.57324L21.666 6.52539C20.7819 6.60742 19.7428 7.01986 18.5488 7.7627C17.3548 8.50553 15.8053 9.79525 13.9004 11.6318ZM10.8037 14.3525C11.1637 14.0791 11.6901 13.6257 12.3828 12.9922C13.0755 12.3542 13.5586 11.887 13.832 11.5908C13.6452 10.9391 13.3193 10.3763 12.8545 9.90234C12.3942 9.42839 11.8883 9.19141 11.3369 9.19141C10.7627 9.19141 10.2819 9.40332 9.89453 9.82715C9.51172 10.251 9.32031 10.7842 9.32031 11.4268C9.32031 12.484 9.81478 13.4593 10.8037 14.3525ZM13.1006 15.3096C13.6611 14.2432 13.9414 13.2884 13.9414 12.4453C13.9414 12.1992 13.9118 11.9395 13.8525 11.666C12.7132 12.7917 11.7152 13.7054 10.8584 14.4072C11.0954 14.6032 11.4349 14.7923 11.877 14.9746C12.319 15.1523 12.7269 15.264 13.1006 15.3096ZM19.4717 13.3408H20.0596L16.7783 16.5879C17.1566 16.4876 17.6374 16.2757 18.2207 15.9521C18.804 15.624 19.2393 15.3346 19.5264 15.084L20.0049 14.6807L20.0527 14.7285C19.3828 15.3164 18.7334 15.7721 18.1045 16.0957C17.4801 16.4238 16.9993 16.6221 16.6621 16.6904C15.5775 17.7842 14.7959 18.5042 14.3174 18.8506C13.8389 19.1969 13.4014 19.3701 13.0049 19.3701C12.8864 19.3701 12.793 19.3428 12.7246 19.2881C12.6562 19.2334 12.6221 19.1673 12.6221 19.0898C12.6221 18.7663 13.0072 18.347 13.7773 17.832C14.5475 17.3171 15.3086 16.9867 16.0605 16.8408L17.4824 15.3643L17.4688 15.3438C16.7943 15.8633 16.2816 16.123 15.9307 16.123C15.7894 16.123 15.6663 16.0615 15.5615 15.9385C15.4613 15.8154 15.4111 15.6719 15.4111 15.5078C15.4111 15.1797 15.5866 14.8493 15.9375 14.5166C16.2884 14.1794 16.7373 13.8923 17.2842 13.6553C17.8356 13.4183 18.2708 13.2998 18.5898 13.2998C18.6992 13.2998 18.7926 13.3294 18.8701 13.3887C18.9521 13.4434 18.9932 13.514 18.9932 13.6006C18.9932 13.6735 18.9681 13.776 18.918 13.9082L19.4717 13.3408ZM15.623 15.7539C15.623 15.9499 15.721 16.0479 15.917 16.0479C16.3089 16.0479 16.9036 15.7152 17.7012 15.0498C18.4987 14.3844 18.8975 13.9128 18.8975 13.6348C18.8975 13.457 18.779 13.3682 18.542 13.3682C18.3324 13.3682 18.0771 13.4593 17.7764 13.6416C17.4801 13.8193 17.127 14.0859 16.7168 14.4414C16.3066 14.7969 16.0218 15.0771 15.8623 15.2822C15.7028 15.4827 15.623 15.64 15.623 15.7539ZM15.958 16.9365C14.9645 17.2145 14.1715 17.5859 13.5791 18.0508C12.9867 18.5202 12.6904 18.862 12.6904 19.0762C12.6904 19.2129 12.8044 19.2812 13.0322 19.2812C13.2692 19.2812 13.5244 19.1969 13.7979 19.0283C14.0667 18.8643 14.5544 18.4085 15.2607 17.6611L15.958 16.9365Z" fill="#333333"/>
</svg>
