<svg width="24" height="24" viewBox="0 0 24 24" fill="none" xmlns="http://www.w3.org/2000/svg">
<path d="M2.32922 16.72H3.57522L6.75322 8.586L6.40322 7.48H5.31122V7.2H8.86722L12.1572 16.72H13.4172V17H7.70522V16.72H9.58122L8.57322 13.794H5.04522L3.89722 16.72H6.12322V17H2.32922V16.72ZM8.48922 13.514L6.90722 9.02L5.15722 13.514H8.48922ZM17.232 19.94C16.3547 19.94 15.5987 19.8513 14.964 19.674C14.3387 19.506 13.858 19.2587 13.522 18.932C13.186 18.6053 13.018 18.2133 13.018 17.756C13.018 17.2053 13.2793 16.748 13.802 16.384C14.334 16.02 15.076 15.7727 16.028 15.642C14.7493 15.5487 13.7413 15.362 13.004 15.082C12.276 14.802 11.912 14.3447 11.912 13.71C11.912 13.5233 11.954 13.36 12.038 13.22C12.122 13.08 12.2433 12.9727 12.402 12.898C12.5513 12.814 12.7287 12.772 12.934 12.772C13.0367 12.772 13.144 12.7907 13.256 12.828C13.368 12.856 13.4847 12.898 13.606 12.954C13.4753 12.7487 13.41 12.5013 13.41 12.212C13.41 11.6053 13.6527 11.106 14.138 10.714C14.6233 10.3127 15.3 10.056 16.168 9.944V8.488H14.726V8.208H19.71V8.488H18.268V9.93C18.856 9.99533 19.3647 10.1307 19.794 10.336C20.2233 10.5413 20.55 10.8027 20.774 11.12C20.998 11.4373 21.11 11.8013 21.11 12.212C21.11 12.6973 20.956 13.1173 20.648 13.472C20.34 13.8173 19.892 14.088 19.304 14.284C18.7253 14.4707 18.044 14.564 17.26 14.564C16.6907 14.564 16.2007 14.5173 15.79 14.424C15.3793 14.3213 15.048 14.2 14.796 14.06C14.5533 13.92 14.292 13.7473 14.012 13.542C13.7787 13.374 13.5873 13.2527 13.438 13.178C13.2887 13.094 13.1207 13.052 12.934 13.052C12.71 13.052 12.5327 13.1127 12.402 13.234C12.2713 13.346 12.206 13.4907 12.206 13.668C12.206 14.088 12.3973 14.4147 12.78 14.648C13.172 14.8813 13.6433 15.0493 14.194 15.152C14.754 15.2453 15.524 15.3387 16.504 15.432C16.7933 15.46 17.0827 15.4927 17.372 15.53C17.6707 15.558 17.96 15.5907 18.24 15.628C19.332 15.796 20.1393 16.048 20.662 16.384C21.194 16.72 21.46 17.1773 21.46 17.756C21.46 18.2133 21.292 18.6053 20.956 18.932C20.62 19.2587 20.1347 19.506 19.5 19.674C18.8747 19.8513 18.1187 19.94 17.232 19.94ZM17.232 19.758C17.6147 19.758 17.9367 19.6787 18.198 19.52C18.4687 19.3707 18.6693 19.1467 18.8 18.848C18.94 18.5493 19.01 18.1853 19.01 17.756C19.01 17.3267 18.94 16.9627 18.8 16.664C18.6693 16.3653 18.4687 16.1367 18.198 15.978C17.9367 15.8193 17.6147 15.74 17.232 15.74C16.8587 15.74 16.5367 15.8193 16.266 15.978C16.0047 16.1367 15.804 16.3653 15.664 16.664C15.524 16.9627 15.454 17.3267 15.454 17.756C15.454 18.1853 15.524 18.5493 15.664 18.848C15.804 19.1467 16.0047 19.3707 16.266 19.52C16.5367 19.6787 16.8587 19.758 17.232 19.758ZM17.26 14.368C17.792 14.368 18.2073 14.1767 18.506 13.794C18.814 13.4113 18.968 12.8747 18.968 12.184C18.968 11.4933 18.814 10.9567 18.506 10.574C18.2073 10.1913 17.792 10 17.26 10C16.7187 10 16.294 10.1913 15.986 10.574C15.6873 10.9567 15.538 11.4933 15.538 12.184C15.538 12.8747 15.6873 13.4113 15.986 13.794C16.294 14.1767 16.7187 14.368 17.26 14.368Z" fill="#888888"/>
</svg>
