<svg width="24" height="24" viewBox="0 0 24 24" fill="none" xmlns="http://www.w3.org/2000/svg">
<path d="M5.17129 7.2H8.60129L12.1993 17H9.39929L8.78329 15.18H4.91929L4.31729 17H1.57329L5.17129 7.2ZM8.11129 13.08L6.90729 9.468H6.79529L5.59129 13.08H8.11129ZM17.2802 19.94C16.4029 19.94 15.6562 19.856 15.0402 19.688C14.4242 19.52 13.9529 19.2727 13.6262 18.946C13.3089 18.6193 13.1502 18.2273 13.1502 17.77C13.1502 17.4433 13.2389 17.1587 13.4162 16.916C13.5935 16.664 13.8409 16.4633 14.1582 16.314C13.6169 16.174 13.2015 15.9453 12.9122 15.628C12.6322 15.3013 12.4922 14.9233 12.4922 14.494C12.4922 14.214 12.5902 13.9433 12.7862 13.682C12.9822 13.4113 13.2809 13.2387 13.6822 13.164C13.6915 13.164 13.6962 13.164 13.6962 13.164C13.6962 13.164 13.7009 13.1593 13.7102 13.15C13.7289 13.15 13.7429 13.15 13.7522 13.15C13.7615 13.15 13.7709 13.15 13.7802 13.15C13.6122 12.898 13.5282 12.5993 13.5282 12.254C13.5282 11.6287 13.7662 11.12 14.2422 10.728C14.7182 10.3267 15.3902 10.0653 16.2582 9.944V8.18H18.6382V9.93C19.2355 10.014 19.7395 10.1587 20.1502 10.364C20.5702 10.5693 20.8922 10.8307 21.1162 11.148C21.3402 11.4653 21.4522 11.834 21.4522 12.254C21.4522 12.73 21.2889 13.1407 20.9622 13.486C20.6449 13.8313 20.1875 14.0973 19.5902 14.284C18.9929 14.4613 18.2882 14.55 17.4762 14.55C17.1402 14.55 16.8509 14.5407 16.6082 14.522C16.3655 14.494 16.1602 14.4613 15.9922 14.424C15.8335 14.3773 15.6795 14.3307 15.5302 14.284C15.4369 14.2467 15.3435 14.2187 15.2502 14.2C15.1662 14.172 15.0729 14.158 14.9702 14.158C14.8582 14.158 14.7695 14.1907 14.7042 14.256C14.6389 14.3213 14.6062 14.4007 14.6062 14.494C14.6062 14.6527 14.6762 14.7787 14.8162 14.872C14.9655 14.956 15.1895 15.0213 15.4882 15.068C15.7869 15.1147 16.1882 15.1473 16.6922 15.166C16.8135 15.1753 16.9395 15.18 17.0702 15.18C17.2009 15.18 17.3362 15.18 17.4762 15.18C18.7642 15.1893 19.7535 15.3993 20.4442 15.81C21.1442 16.2113 21.4942 16.79 21.4942 17.546C21.4942 18.0407 21.3215 18.4653 20.9762 18.82C20.6402 19.184 20.1549 19.4593 19.5202 19.646C18.8949 19.842 18.1482 19.94 17.2802 19.94ZM17.3222 18.204C17.7049 18.204 18.0315 18.176 18.3022 18.12C18.5729 18.064 18.7782 17.9753 18.9182 17.854C19.0582 17.742 19.1282 17.6067 19.1282 17.448C19.1282 17.196 18.9695 17 18.6522 16.86C18.3442 16.72 17.9009 16.65 17.3222 16.65C16.9302 16.65 16.5989 16.6827 16.3282 16.748C16.0575 16.8133 15.8522 16.902 15.7122 17.014C15.5815 17.1353 15.5162 17.28 15.5162 17.448C15.5162 17.6067 15.5815 17.742 15.7122 17.854C15.8522 17.9753 16.0575 18.064 16.3282 18.12C16.6082 18.176 16.9395 18.204 17.3222 18.204ZM17.4762 13.052C17.9895 13.052 18.3862 12.982 18.6662 12.842C18.9555 12.702 19.1002 12.5013 19.1002 12.24C19.1002 11.9787 18.9555 11.778 18.6662 11.638C18.3862 11.4887 17.9895 11.414 17.4762 11.414C16.9629 11.414 16.5662 11.4887 16.2862 11.638C16.0062 11.778 15.8662 11.9787 15.8662 12.24C15.8662 12.5013 16.0062 12.702 16.2862 12.842C16.5662 12.982 16.9629 13.052 17.4762 13.052Z" fill="#888888"/>
</svg>
