<svg width="24" height="24" viewBox="0 0 24 24" fill="none" xmlns="http://www.w3.org/2000/svg">
<path d="M6.52682 7.2H8.20682L12.1968 17H10.8248L9.77482 14.354H4.93082L3.88082 17H2.55082L6.52682 7.2ZM9.36882 13.332L7.35282 8.306H7.33882L5.32282 13.332H9.36882ZM17.2893 19.94C16.468 19.94 15.754 19.8513 15.1473 19.674C14.55 19.4967 14.088 19.2447 13.7613 18.918C13.444 18.5913 13.2853 18.1993 13.2853 17.742C13.2853 17.3313 13.4253 16.9767 13.7053 16.678C13.9853 16.37 14.382 16.1413 14.8953 15.992C14.1673 15.852 13.598 15.6373 13.1873 15.348C12.786 15.0493 12.5853 14.6387 12.5853 14.116C12.5853 13.8547 12.688 13.612 12.8933 13.388C13.108 13.1547 13.3787 13.038 13.7053 13.038C13.724 13.038 13.7427 13.038 13.7613 13.038C13.7893 13.038 13.8127 13.0427 13.8313 13.052C13.8593 13.052 13.8873 13.052 13.9153 13.052C13.9527 13.052 13.9853 13.0567 14.0133 13.066C13.8453 12.8047 13.7613 12.5013 13.7613 12.156C13.7613 11.512 14.0273 10.994 14.5593 10.602C15.1007 10.2007 15.852 9.96267 16.8133 9.888V8.18H17.9193V9.874C18.582 9.91133 19.156 10.028 19.6413 10.224C20.1267 10.4107 20.4953 10.672 20.7473 11.008C21.0087 11.3347 21.1393 11.7173 21.1393 12.156C21.1393 12.6133 20.99 13.0147 20.6913 13.36C20.3927 13.696 19.9633 13.9573 19.4033 14.144C18.8433 14.3213 18.19 14.41 17.4433 14.41C17.0513 14.41 16.706 14.3867 16.4073 14.34C16.1087 14.284 15.866 14.2233 15.6793 14.158C15.4927 14.0927 15.2873 14.0087 15.0633 13.906C14.9047 13.8313 14.7553 13.7707 14.6153 13.724C14.4753 13.668 14.326 13.64 14.1673 13.64C14.0087 13.64 13.878 13.6867 13.7753 13.78C13.682 13.8733 13.6353 13.9853 13.6353 14.116C13.6353 14.396 13.7567 14.62 13.9993 14.788C14.2513 14.956 14.5873 15.082 15.0073 15.166C15.4273 15.2407 15.9407 15.2967 16.5473 15.334C16.6873 15.3433 16.8227 15.3527 16.9533 15.362C17.0933 15.362 17.2333 15.362 17.3733 15.362C18.6147 15.39 19.5853 15.586 20.2853 15.95C20.9853 16.3047 21.3353 16.8693 21.3353 17.644C21.3353 18.1107 21.172 18.5167 20.8453 18.862C20.5187 19.2073 20.0473 19.4733 19.4313 19.66C18.8247 19.8467 18.1107 19.94 17.2893 19.94ZM17.3033 19.002C17.91 19.002 18.4327 18.946 18.8713 18.834C19.31 18.7313 19.6413 18.582 19.8653 18.386C20.0893 18.19 20.2013 17.952 20.2013 17.672C20.2013 17.2333 19.954 16.902 19.4593 16.678C18.9647 16.4447 18.246 16.328 17.3033 16.328C16.6873 16.328 16.16 16.3793 15.7213 16.482C15.292 16.5847 14.9653 16.7387 14.7413 16.944C14.5173 17.1493 14.4053 17.392 14.4053 17.672C14.4053 17.952 14.5173 18.19 14.7413 18.386C14.9653 18.582 15.292 18.7313 15.7213 18.834C16.16 18.946 16.6873 19.002 17.3033 19.002ZM17.4433 13.514C18.2367 13.514 18.862 13.3927 19.3193 13.15C19.7767 12.898 20.0053 12.5573 20.0053 12.128C20.0053 11.6987 19.7767 11.358 19.3193 11.106C18.862 10.8447 18.2367 10.714 17.4433 10.714C16.65 10.714 16.0247 10.8447 15.5673 11.106C15.1193 11.358 14.8953 11.6987 14.8953 12.128C14.8953 12.5573 15.1193 12.898 15.5673 13.15C16.0247 13.3927 16.65 13.514 17.4433 13.514Z" fill="#888888"/>
</svg>
