<svg width="24" height="24" viewBox="0 0 24 24" fill="none" xmlns="http://www.w3.org/2000/svg">
<path d="M1.73084 17L5.44084 7.2H8.32484L12.0348 17H9.66884L8.61884 14.172H5.10484L4.04084 17H1.73084ZM5.20284 13.906H8.52084L6.86884 9.566L5.20284 13.906ZM17.137 19.94C16.2783 19.94 15.541 19.8513 14.925 19.674C14.3183 19.506 13.8516 19.2587 13.525 18.932C13.2076 18.6147 13.049 18.2227 13.049 17.756C13.049 17.2613 13.273 16.818 13.721 16.426C14.1783 16.034 14.9156 15.7913 15.933 15.698C14.7756 15.586 13.9263 15.39 13.385 15.11C12.8436 14.8207 12.573 14.438 12.573 13.962C12.573 13.738 12.6523 13.5467 12.811 13.388C12.9696 13.2293 13.175 13.15 13.427 13.15C13.4736 13.15 13.5203 13.1547 13.567 13.164C13.6136 13.1733 13.6603 13.1827 13.707 13.192C13.7723 13.2107 13.8423 13.234 13.917 13.262C13.9916 13.2807 14.0663 13.3133 14.141 13.36C13.6743 12.94 13.441 12.506 13.441 12.058C13.441 11.498 13.679 11.0313 14.155 10.658C14.631 10.2753 15.3356 10.0327 16.269 9.93V8.18H18.299V9.93C18.9056 9.99533 19.4283 10.1307 19.867 10.336C20.3056 10.532 20.6416 10.7933 20.875 11.12C21.1083 11.4373 21.225 11.806 21.225 12.226C21.225 12.702 21.0663 13.1127 20.749 13.458C20.4316 13.794 19.979 14.0553 19.391 14.242C18.803 14.4193 18.117 14.508 17.333 14.508C16.857 14.508 16.437 14.4753 16.073 14.41C15.7183 14.3353 15.4243 14.2513 15.191 14.158C14.967 14.0647 14.7196 13.948 14.449 13.808C14.2156 13.6773 14.0243 13.584 13.875 13.528C13.7256 13.472 13.5623 13.444 13.385 13.444C13.2263 13.444 13.0956 13.4953 12.993 13.598C12.8996 13.6913 12.853 13.808 12.853 13.948C12.853 14.2373 12.9883 14.4847 13.259 14.69C13.539 14.8953 13.931 15.0587 14.435 15.18C14.9483 15.3013 15.5596 15.3853 16.269 15.432C16.4276 15.4507 16.591 15.4647 16.759 15.474C16.9363 15.474 17.1183 15.474 17.305 15.474C18.5836 15.4833 19.5683 15.6653 20.259 16.02C20.959 16.3653 21.309 16.8833 21.309 17.574C21.309 18.0593 21.141 18.4793 20.805 18.834C20.469 19.1887 19.9836 19.4593 19.349 19.646C18.7236 19.842 17.9863 19.94 17.137 19.94ZM17.165 18.484C17.585 18.484 17.9536 18.4233 18.271 18.302C18.5883 18.19 18.8356 18.0313 19.013 17.826C19.1903 17.63 19.279 17.4013 19.279 17.14C19.279 16.72 19.0876 16.3887 18.705 16.146C18.3316 15.894 17.8183 15.768 17.165 15.768C16.7543 15.768 16.3903 15.824 16.073 15.936C15.7556 16.048 15.5083 16.2113 15.331 16.426C15.1536 16.6313 15.065 16.8693 15.065 17.14C15.065 17.4013 15.1536 17.63 15.331 17.826C15.5083 18.0313 15.7556 18.19 16.073 18.302C16.3903 18.4233 16.7543 18.484 17.165 18.484ZM17.333 14.256C17.9023 14.256 18.3643 14.116 18.719 13.836C19.083 13.556 19.265 13.192 19.265 12.744C19.265 12.2867 19.083 11.9133 18.719 11.624C18.3643 11.3253 17.9023 11.176 17.333 11.176C16.7543 11.176 16.283 11.3253 15.919 11.624C15.5643 11.9133 15.387 12.2867 15.387 12.744C15.387 13.192 15.5643 13.556 15.919 13.836C16.2736 14.116 16.745 14.256 17.333 14.256Z" fill="#888888"/>
</svg>
