<svg width="24" height="24" viewBox="0 0 24 24" fill="none" xmlns="http://www.w3.org/2000/svg">
<path d="M4.89555 7.2H8.87156L12.3436 17H9.09555L8.19955 14.354H5.52556L4.61555 17H1.42355L4.89555 7.2ZM8.10155 14.074L6.86955 10.462L5.62356 14.074H8.10155ZM17.4439 19.94C16.5479 19.94 15.7873 19.856 15.1619 19.688C14.5459 19.52 14.0746 19.2727 13.7479 18.946C13.4306 18.6287 13.2719 18.2367 13.2719 17.77C13.2719 17.2847 13.5006 16.846 13.9579 16.454C14.4153 16.0527 15.2086 15.81 16.3379 15.726C15.1059 15.6047 14.2239 15.3947 13.6919 15.096C13.1693 14.7973 12.9079 14.438 12.9079 14.018C12.9079 13.8033 12.9826 13.6213 13.1319 13.472C13.2813 13.3227 13.4773 13.248 13.7199 13.248C13.7666 13.248 13.8133 13.2527 13.8599 13.262C13.9066 13.2713 13.9533 13.2807 13.9999 13.29C14.0746 13.3087 14.1493 13.3367 14.2239 13.374C14.3079 13.4113 14.3966 13.4533 14.4899 13.5C13.9019 13.0333 13.6079 12.548 13.6079 12.044C13.6079 11.5213 13.8226 11.078 14.2519 10.714C14.6813 10.3407 15.3439 10.0887 16.2399 9.958V8.18H19.0399V9.958C19.6093 10.0513 20.0899 10.2053 20.4819 10.42C20.8833 10.6253 21.1866 10.8867 21.3919 11.204C21.6066 11.512 21.7139 11.8713 21.7139 12.282C21.7139 12.7673 21.5506 13.1873 21.2239 13.542C20.8973 13.8873 20.4259 14.1533 19.8099 14.34C19.2033 14.5173 18.4846 14.606 17.6539 14.606C17.1779 14.606 16.7579 14.5733 16.3939 14.508C16.0299 14.4333 15.7219 14.3493 15.4699 14.256C15.2273 14.1533 14.9659 14.0273 14.6859 13.878C14.4526 13.766 14.2613 13.682 14.1119 13.626C13.9719 13.57 13.8226 13.542 13.6639 13.542C13.5239 13.542 13.4073 13.584 13.3139 13.668C13.2299 13.752 13.1879 13.864 13.1879 14.004C13.1879 14.256 13.3139 14.4847 13.5659 14.69C13.8273 14.886 14.2099 15.0493 14.7139 15.18C15.2179 15.3107 15.8293 15.3993 16.5479 15.446C16.7253 15.4553 16.9073 15.4647 17.0939 15.474C17.2806 15.474 17.4719 15.474 17.6679 15.474C18.9839 15.474 19.9873 15.656 20.6779 16.02C21.3686 16.3747 21.7139 16.8693 21.7139 17.504C21.7139 18.008 21.5413 18.442 21.1959 18.806C20.8506 19.17 20.3559 19.45 19.7119 19.646C19.0773 19.842 18.3213 19.94 17.4439 19.94ZM17.4859 17.966C17.7659 17.966 18.0133 17.9193 18.2279 17.826C18.4519 17.7327 18.6246 17.602 18.7459 17.434C18.8673 17.2753 18.9279 17.0933 18.9279 16.888C18.9279 16.5613 18.7926 16.2907 18.5219 16.076C18.2513 15.8613 17.9059 15.754 17.4859 15.754C17.2059 15.754 16.9539 15.8053 16.7299 15.908C16.5153 16.0013 16.3473 16.1367 16.2259 16.314C16.1046 16.482 16.0439 16.6733 16.0439 16.888C16.0439 17.0933 16.1046 17.2753 16.2259 17.434C16.3473 17.602 16.5153 17.7327 16.7299 17.826C16.9539 17.9193 17.2059 17.966 17.4859 17.966ZM17.6539 14.368C18.0553 14.368 18.3866 14.242 18.6479 13.99C18.9093 13.738 19.0399 13.416 19.0399 13.024C19.0399 12.6227 18.9093 12.2913 18.6479 12.03C18.3866 11.7593 18.0553 11.624 17.6539 11.624C17.2526 11.624 16.9213 11.7593 16.6599 12.03C16.3986 12.2913 16.2679 12.6227 16.2679 13.024C16.2679 13.416 16.3986 13.738 16.6599 13.99C16.9213 14.242 17.2526 14.368 17.6539 14.368Z" fill="#888888"/>
</svg>
