<svg width="24" height="24" viewBox="0 0 24 24" fill="none" xmlns="http://www.w3.org/2000/svg">
<path d="M2.2322 16.72H3.5062L7.0902 8.166L6.8662 7.48H5.5362V7.2H8.4062L12.1022 16.72H13.3902V17H8.4482V16.72H10.4502L9.3162 13.794H5.0462L3.8282 16.72H6.0402V17H2.2322V16.72ZM9.2042 13.514L7.2442 8.558L5.1582 13.514H9.2042ZM17.2079 19.94C16.3679 19.94 15.6399 19.8513 15.0239 19.674C14.4079 19.4967 13.9319 19.2447 13.5959 18.918C13.2693 18.5913 13.1059 18.1993 13.1059 17.742C13.1059 17.1913 13.3626 16.7293 13.8759 16.356C14.3986 15.9827 15.1266 15.74 16.0599 15.628C14.8373 15.5533 13.8806 15.3807 13.1899 15.11C12.4993 14.8393 12.1539 14.3867 12.1539 13.752C12.1539 13.584 12.1959 13.43 12.2799 13.29C12.3639 13.15 12.4806 13.0427 12.6299 12.968C12.7886 12.884 12.9613 12.842 13.1479 12.842C13.2506 12.842 13.3533 12.856 13.4559 12.884C13.5679 12.912 13.6846 12.9493 13.8059 12.996C13.6379 12.7533 13.5539 12.4733 13.5539 12.156C13.5539 11.5307 13.8199 11.0173 14.3519 10.616C14.8839 10.2147 15.6119 9.97667 16.5359 9.902V8.53H14.9959V8.25H19.4339V8.53H17.8939V9.902C18.5286 9.93933 19.0746 10.056 19.5319 10.252C19.9986 10.448 20.3579 10.7093 20.6099 11.036C20.8619 11.3627 20.9879 11.736 20.9879 12.156C20.9879 12.6227 20.8339 13.0287 20.5259 13.374C20.2273 13.7193 19.7979 13.9853 19.2379 14.172C18.6779 14.3587 18.0246 14.452 17.2779 14.452C16.7366 14.452 16.2746 14.41 15.8919 14.326C15.5093 14.242 15.2013 14.1393 14.9679 14.018C14.7346 13.8967 14.4919 13.7473 14.2399 13.57C14.0253 13.4207 13.8386 13.3087 13.6799 13.234C13.5306 13.1593 13.3533 13.122 13.1479 13.122C12.9333 13.122 12.7606 13.1827 12.6299 13.304C12.5086 13.416 12.4479 13.5607 12.4479 13.738C12.4479 14.1487 12.6299 14.466 12.9939 14.69C13.3579 14.914 13.8059 15.0727 14.3379 15.166C14.8793 15.25 15.6026 15.334 16.5079 15.418C16.7786 15.446 17.0493 15.474 17.3199 15.502C17.5906 15.5207 17.8566 15.5487 18.1179 15.586C19.1446 15.726 19.9333 15.9687 20.4839 16.314C21.0346 16.6593 21.3099 17.1353 21.3099 17.742C21.3099 18.1993 21.1419 18.5913 20.8059 18.918C20.4793 19.2447 20.0079 19.4967 19.3919 19.674C18.7759 19.8513 18.0479 19.94 17.2079 19.94ZM17.2079 19.716C17.7306 19.716 18.1833 19.6367 18.5659 19.478C18.9486 19.3287 19.2379 19.1047 19.4339 18.806C19.6393 18.5073 19.7419 18.1527 19.7419 17.742C19.7419 17.3313 19.6393 16.9767 19.4339 16.678C19.2379 16.3793 18.9486 16.1507 18.5659 15.992C18.1833 15.8333 17.7306 15.754 17.2079 15.754C16.6853 15.754 16.2326 15.8333 15.8499 15.992C15.4673 16.1507 15.1733 16.3793 14.9679 16.678C14.7719 16.9767 14.6739 17.3313 14.6739 17.742C14.6739 18.1527 14.7719 18.5073 14.9679 18.806C15.1733 19.1047 15.4673 19.3287 15.8499 19.478C16.2326 19.6367 16.6853 19.716 17.2079 19.716ZM17.2779 14.228C17.9873 14.228 18.5473 14.0413 18.9579 13.668C19.3779 13.2947 19.5879 12.786 19.5879 12.142C19.5879 11.4887 19.3826 10.98 18.9719 10.616C18.5613 10.2427 17.9966 10.056 17.2779 10.056C16.5499 10.056 15.9759 10.2427 15.5559 10.616C15.1453 10.98 14.9399 11.4887 14.9399 12.142C14.9399 12.786 15.1453 13.2947 15.5559 13.668C15.9759 14.0413 16.5499 14.228 17.2779 14.228Z" fill="#888888"/>
</svg>
