<svg width="24" height="24" viewBox="0 0 24 24" fill="none" xmlns="http://www.w3.org/2000/svg">
<path d="M6.32918 7.2H7.93918L11.7052 17H9.29718L8.05118 13.78H4.10318L2.87118 17H2.57718L6.32918 7.2ZM7.95318 13.5L6.09118 8.74H6.06318L4.20118 13.5H7.95318ZM17.2031 19.94C16.3351 19.94 15.5885 19.8513 14.9631 19.674C14.3378 19.4967 13.8571 19.2447 13.5211 18.918C13.1945 18.5913 13.0311 18.1993 13.0311 17.742C13.0311 17.21 13.2831 16.762 13.7871 16.398C14.2911 16.0247 14.9958 15.7727 15.9011 15.642C14.6785 15.5393 13.7218 15.3527 13.0311 15.082C12.3405 14.802 11.9951 14.3493 11.9951 13.724C11.9951 13.4533 12.0885 13.234 12.2751 13.066C12.4618 12.8887 12.6998 12.8 12.9891 12.8C13.0358 12.8 13.0825 12.8047 13.1291 12.814C13.1758 12.8233 13.2225 12.8327 13.2691 12.842C13.3345 12.8607 13.3951 12.8793 13.4511 12.898C13.5165 12.9167 13.5818 12.9353 13.6471 12.954C13.5165 12.7487 13.4511 12.492 13.4511 12.184C13.4511 11.5773 13.6985 11.078 14.1931 10.686C14.6971 10.2847 15.3925 10.0327 16.2791 9.93V8.18H18.0711V9.916C18.6871 9.972 19.2145 10.1027 19.6531 10.308C20.1011 10.504 20.4418 10.7653 20.6751 11.092C20.9178 11.4093 21.0391 11.7733 21.0391 12.184C21.0391 12.6693 20.8851 13.0847 20.5771 13.43C20.2691 13.7753 19.8305 14.046 19.2611 14.242C18.6918 14.4287 18.0198 14.522 17.2451 14.522C16.6851 14.522 16.2091 14.4753 15.8171 14.382C15.4251 14.2887 15.1078 14.1767 14.8651 14.046C14.6318 13.9153 14.3751 13.752 14.0951 13.556C13.8525 13.388 13.6565 13.2667 13.5071 13.192C13.3578 13.1173 13.1851 13.08 12.9891 13.08C12.7745 13.08 12.6018 13.1407 12.4711 13.262C12.3498 13.374 12.2891 13.5187 12.2891 13.696C12.2891 14.116 12.4851 14.4473 12.8771 14.69C13.2785 14.9233 13.7638 15.0913 14.3331 15.194C14.9118 15.2873 15.6818 15.376 16.6431 15.46C16.8578 15.488 17.0725 15.516 17.2871 15.544C17.5018 15.5627 17.7165 15.5813 17.9311 15.6C19.0885 15.74 19.9471 15.978 20.5071 16.314C21.0765 16.6407 21.3611 17.1167 21.3611 17.742C21.3611 18.1993 21.1978 18.5913 20.8711 18.918C20.5445 19.2447 20.0685 19.4967 19.4431 19.674C18.8178 19.8513 18.0711 19.94 17.2031 19.94ZM17.2031 19.702C17.6418 19.702 18.0198 19.6227 18.3371 19.464C18.6638 19.3147 18.9111 19.0907 19.0791 18.792C19.2471 18.5027 19.3311 18.148 19.3311 17.728C19.3311 17.084 19.1491 16.594 18.7851 16.258C18.4211 15.922 17.8938 15.754 17.2031 15.754C16.7551 15.754 16.3678 15.8287 16.0411 15.978C15.7238 16.1273 15.4811 16.3513 15.3131 16.65C15.1451 16.9487 15.0611 17.308 15.0611 17.728C15.0611 18.148 15.1451 18.5027 15.3131 18.792C15.4811 19.0907 15.7238 19.3147 16.0411 19.464C16.3678 19.6227 16.7551 19.702 17.2031 19.702ZM17.2451 14.312C17.8145 14.312 18.2671 14.1253 18.6031 13.752C18.9391 13.3693 19.1071 12.842 19.1071 12.17C19.1071 11.498 18.9391 10.9753 18.6031 10.602C18.2765 10.2193 17.8238 10.028 17.2451 10.028C16.6571 10.028 16.1951 10.2147 15.8591 10.588C15.5325 10.9613 15.3691 11.4887 15.3691 12.17C15.3691 12.842 15.5325 13.3693 15.8591 13.752C16.1858 14.1253 16.6478 14.312 17.2451 14.312Z" fill="#888888"/>
</svg>
