<svg width="24" height="24" viewBox="0 0 24 24" fill="none" xmlns="http://www.w3.org/2000/svg">
<path d="M1.58729 17L5.18529 7.2H8.58729L12.1853 17H9.41329L8.43329 14.256H5.31129L4.31729 17H1.58729ZM5.40929 13.99H8.33529L6.87929 9.986L5.40929 13.99ZM17.2802 19.94C16.4029 19.94 15.6562 19.856 15.0402 19.688C14.4242 19.52 13.9529 19.2727 13.6262 18.946C13.3089 18.6193 13.1502 18.2273 13.1502 17.77C13.1502 17.2753 13.3789 16.832 13.8362 16.44C14.2935 16.048 15.0542 15.8053 16.1182 15.712C14.9329 15.5907 14.0695 15.3853 13.5282 15.096C12.9962 14.8067 12.7302 14.438 12.7302 13.99C12.7302 13.766 12.8049 13.5793 12.9542 13.43C13.1129 13.2713 13.3182 13.192 13.5702 13.192C13.6169 13.192 13.6635 13.1967 13.7102 13.206C13.7569 13.2153 13.8035 13.2247 13.8502 13.234C13.9155 13.2527 13.9855 13.2807 14.0602 13.318C14.1349 13.346 14.2142 13.3833 14.2982 13.43C13.7755 12.982 13.5142 12.52 13.5142 12.044C13.5142 11.5027 13.7429 11.0453 14.2002 10.672C14.6575 10.2987 15.3435 10.056 16.2582 9.944V8.18H18.6522V9.944C19.2402 10.0187 19.7395 10.1587 20.1502 10.364C20.5702 10.5693 20.8922 10.8307 21.1162 11.148C21.3402 11.4653 21.4522 11.834 21.4522 12.254C21.4522 12.73 21.2889 13.1407 20.9622 13.486C20.6449 13.8313 20.1875 14.0973 19.5902 14.284C18.9929 14.4613 18.2882 14.55 17.4762 14.55C17.0002 14.55 16.5802 14.5173 16.2162 14.452C15.8615 14.3773 15.5629 14.2933 15.3202 14.2C15.0869 14.1067 14.8349 13.9853 14.5642 13.836C14.3309 13.7147 14.1395 13.626 13.9902 13.57C13.8409 13.514 13.6822 13.486 13.5142 13.486C13.3649 13.486 13.2435 13.5327 13.1502 13.626C13.0569 13.7193 13.0102 13.836 13.0102 13.976C13.0102 14.2467 13.1409 14.4847 13.4022 14.69C13.6729 14.8953 14.0602 15.0633 14.5642 15.194C15.0775 15.3153 15.6889 15.3993 16.3982 15.446C16.5662 15.4553 16.7389 15.4647 16.9162 15.474C17.1029 15.474 17.2895 15.474 17.4762 15.474C18.7735 15.4833 19.7675 15.6653 20.4582 16.02C21.1489 16.3747 21.4942 16.8833 21.4942 17.546C21.4942 18.0407 21.3215 18.4653 20.9762 18.82C20.6402 19.184 20.1549 19.4593 19.5202 19.646C18.8949 19.842 18.1482 19.94 17.2802 19.94ZM17.3222 18.246C17.6675 18.246 17.9755 18.19 18.2462 18.078C18.5262 17.9753 18.7409 17.8307 18.8902 17.644C19.0395 17.4667 19.1142 17.2613 19.1142 17.028C19.1142 16.6453 18.9509 16.3373 18.6242 16.104C18.2975 15.8707 17.8635 15.754 17.3222 15.754C16.9675 15.754 16.6549 15.81 16.3842 15.922C16.1135 16.0247 15.9035 16.174 15.7542 16.37C15.6049 16.5567 15.5302 16.776 15.5302 17.028C15.5302 17.2613 15.6049 17.4667 15.7542 17.644C15.9035 17.8307 16.1135 17.9753 16.3842 18.078C16.6549 18.19 16.9675 18.246 17.3222 18.246ZM17.4762 14.312C17.9709 14.312 18.3722 14.1813 18.6802 13.92C18.9975 13.6493 19.1562 13.2993 19.1562 12.87C19.1562 12.4407 18.9975 12.086 18.6802 11.806C18.3722 11.526 17.9709 11.386 17.4762 11.386C16.9815 11.386 16.5755 11.526 16.2582 11.806C15.9502 12.086 15.7962 12.4407 15.7962 12.87C15.7962 13.2993 15.9502 13.6493 16.2582 13.92C16.5755 14.1813 16.9815 14.312 17.4762 14.312Z" fill="#888888"/>
</svg>
