<svg width="24" height="24" viewBox="0 0 24 24" fill="none" xmlns="http://www.w3.org/2000/svg">
<path d="M2.37773 16.72H3.60973L6.60573 8.782L6.18573 7.48H5.20573V7.2H9.08373L12.1777 16.72H13.4237V17H7.36173V16.72H9.18173L8.22973 13.794H5.03773L3.93173 16.72H6.17173V17H2.37773V16.72ZM8.14573 13.514L6.75973 9.244L5.14973 13.514H8.14573ZM17.2649 19.94C16.3689 19.94 15.5989 19.8513 14.9549 19.674C14.3202 19.506 13.8349 19.2587 13.4989 18.932C13.1629 18.6053 12.9949 18.2133 12.9949 17.756C12.9949 17.2147 13.2562 16.762 13.7789 16.398C14.3109 16.034 15.0575 15.7867 16.0189 15.656C14.7122 15.5533 13.6855 15.3573 12.9389 15.068C12.1922 14.7787 11.8189 14.3167 11.8189 13.682C11.8189 13.4953 11.8609 13.332 11.9449 13.192C12.0289 13.052 12.1502 12.9447 12.3089 12.87C12.4582 12.786 12.6355 12.744 12.8409 12.744C12.9435 12.744 13.0509 12.7627 13.1629 12.8C13.2842 12.828 13.4055 12.87 13.5269 12.926C13.4055 12.7487 13.3449 12.52 13.3449 12.24C13.3449 11.6427 13.5782 11.148 14.0449 10.756C14.5115 10.3547 15.1649 10.0887 16.0049 9.958V8.46H14.6049V8.18H19.8549V8.46H18.4549V9.944C19.0242 10.028 19.5142 10.1727 19.9249 10.378C20.3355 10.5833 20.6482 10.8447 20.8629 11.162C21.0775 11.4793 21.1849 11.8387 21.1849 12.24C21.1849 12.7347 21.0262 13.1593 20.7089 13.514C20.4009 13.8687 19.9482 14.144 19.3509 14.34C18.7629 14.5267 18.0675 14.62 17.2649 14.62C16.6769 14.62 16.1729 14.5687 15.7529 14.466C15.3329 14.354 14.9922 14.228 14.7309 14.088C14.4789 13.9387 14.2082 13.752 13.9189 13.528C13.6762 13.3507 13.4802 13.2247 13.3309 13.15C13.1815 13.066 13.0182 13.024 12.8409 13.024C12.6169 13.024 12.4395 13.08 12.3089 13.192C12.1782 13.304 12.1129 13.4533 12.1129 13.64C12.1129 14.06 12.3089 14.3913 12.7009 14.634C13.0929 14.8673 13.5735 15.0353 14.1429 15.138C14.7122 15.2407 15.5009 15.3433 16.5089 15.446C16.8075 15.474 17.1062 15.5067 17.4049 15.544C17.7129 15.572 18.0162 15.6093 18.3149 15.656C19.4349 15.8333 20.2515 16.09 20.7649 16.426C21.2782 16.7527 21.5349 17.196 21.5349 17.756C21.5349 18.2133 21.3669 18.6053 21.0309 18.932C20.6949 19.2587 20.2049 19.506 19.5609 19.674C18.9262 19.8513 18.1609 19.94 17.2649 19.94ZM17.2649 19.772C17.5729 19.772 17.8295 19.6927 18.0349 19.534C18.2495 19.3847 18.4082 19.1607 18.5109 18.862C18.6229 18.5633 18.6789 18.1947 18.6789 17.756C18.6789 17.3173 18.6229 16.9487 18.5109 16.65C18.4082 16.3513 18.2495 16.1273 18.0349 15.978C17.8295 15.8193 17.5729 15.74 17.2649 15.74C16.9569 15.74 16.6955 15.8193 16.4809 15.978C16.2662 16.1273 16.1029 16.3513 15.9909 16.65C15.8882 16.9487 15.8369 17.3173 15.8369 17.756C15.8369 18.1947 15.8882 18.5633 15.9909 18.862C16.1029 19.1607 16.2662 19.3847 16.4809 19.534C16.6955 19.6927 16.9569 19.772 17.2649 19.772ZM17.2649 14.438C17.7129 14.438 18.0582 14.2467 18.3009 13.864C18.5529 13.472 18.6789 12.9213 18.6789 12.212C18.6789 11.5027 18.5529 10.952 18.3009 10.56C18.0582 10.168 17.7129 9.972 17.2649 9.972C16.8075 9.972 16.4529 10.168 16.2009 10.56C15.9582 10.952 15.8369 11.5027 15.8369 12.212C15.8369 12.9213 15.9582 13.472 16.2009 13.864C16.4529 14.2467 16.8075 14.438 17.2649 14.438Z" fill="#888888"/>
</svg>
