<svg width="24" height="24" viewBox="0 0 24 24" fill="none" xmlns="http://www.w3.org/2000/svg">
<path d="M2.19053 16.72H3.47853L7.23053 7.984L7.07653 7.48H5.63453V7.2H8.21053L12.0885 16.72H13.3765V17H8.78453V16.72H10.8285L9.63853 13.794H5.04653L3.80053 16.72H5.99853V17H2.19053V16.72ZM9.52653 13.514L7.38453 8.348L5.15853 13.514H9.52653ZM17.1956 19.94C16.3742 19.94 15.6556 19.8513 15.0396 19.674C14.4329 19.4967 13.9662 19.24 13.6396 18.904C13.3129 18.5773 13.1496 18.19 13.1496 17.742C13.1496 17.182 13.4062 16.7153 13.9196 16.342C14.4329 15.9687 15.1516 15.7307 16.0756 15.628C14.8809 15.5627 13.9476 15.3993 13.2756 15.138C12.6036 14.8673 12.2676 14.4147 12.2676 13.78C12.2676 13.612 12.3096 13.458 12.3936 13.318C12.4776 13.178 12.5942 13.0707 12.7436 12.996C12.8929 12.912 13.0609 12.87 13.2476 12.87C13.3502 12.87 13.4529 12.884 13.5556 12.912C13.6676 12.94 13.7796 12.9773 13.8916 13.024C13.7142 12.7627 13.6256 12.4687 13.6256 12.142C13.6256 11.5073 13.9009 10.9893 14.4516 10.588C15.0022 10.1867 15.7536 9.95333 16.7056 9.888V8.544H15.1236V8.264H19.3096V8.544H17.7276V9.888C18.3809 9.916 18.9456 10.028 19.4216 10.224C19.9069 10.4107 20.2802 10.672 20.5416 11.008C20.8029 11.3347 20.9336 11.7127 20.9336 12.142C20.9336 12.5993 20.7842 13.0007 20.4856 13.346C20.1869 13.682 19.7622 13.9433 19.2116 14.13C18.6609 14.3167 18.0169 14.41 17.2796 14.41C16.7569 14.41 16.3089 14.3727 15.9356 14.298C15.5716 14.214 15.2776 14.116 15.0536 14.004C14.8296 13.892 14.5962 13.752 14.3536 13.584C14.1296 13.4347 13.9382 13.3273 13.7796 13.262C13.6302 13.1873 13.4529 13.15 13.2476 13.15C13.0329 13.15 12.8649 13.2107 12.7436 13.332C12.6222 13.4533 12.5616 13.598 12.5616 13.766C12.5616 14.1767 12.7342 14.494 13.0796 14.718C13.4342 14.9327 13.8729 15.082 14.3956 15.166C14.9182 15.25 15.6182 15.334 16.4956 15.418C16.7662 15.4367 17.0322 15.46 17.2936 15.488C17.5549 15.5067 17.8116 15.5347 18.0636 15.572C19.0622 15.7027 19.8416 15.9453 20.4016 16.3C20.9616 16.6453 21.2416 17.126 21.2416 17.742C21.2416 18.19 21.0782 18.5773 20.7516 18.904C20.4249 19.24 19.9536 19.4967 19.3376 19.674C18.7309 19.8513 18.0169 19.94 17.1956 19.94ZM17.1956 19.702C17.7836 19.702 18.2922 19.6227 18.7216 19.464C19.1602 19.3147 19.4916 19.0907 19.7156 18.792C19.9489 18.4933 20.0656 18.1433 20.0656 17.742C20.0656 17.3313 19.9489 16.9813 19.7156 16.692C19.4916 16.3933 19.1602 16.1647 18.7216 16.006C18.2922 15.8473 17.7836 15.768 17.1956 15.768C16.6076 15.768 16.0989 15.8473 15.6696 16.006C15.2402 16.1647 14.9089 16.3933 14.6756 16.692C14.4422 16.9813 14.3256 17.3313 14.3256 17.742C14.3256 18.1433 14.4422 18.4933 14.6756 18.792C14.9089 19.0907 15.2402 19.3147 15.6696 19.464C16.0989 19.6227 16.6076 19.702 17.1956 19.702ZM17.2796 14.172C18.0729 14.172 18.7029 13.99 19.1696 13.626C19.6362 13.2527 19.8696 12.7533 19.8696 12.128C19.8696 11.4933 19.6362 10.994 19.1696 10.63C18.7122 10.266 18.0822 10.084 17.2796 10.084C16.4769 10.084 15.8422 10.266 15.3756 10.63C14.9089 10.994 14.6756 11.4933 14.6756 12.128C14.6756 12.7533 14.9089 13.2527 15.3756 13.626C15.8422 13.99 16.4769 14.172 17.2796 14.172Z" fill="#888888"/>
</svg>
