<svg width="24" height="24" viewBox="0 0 24 24" fill="none" xmlns="http://www.w3.org/2000/svg">
<path d="M1.84142 16.86C1.93476 16.7293 2.05142 16.5567 2.19142 16.342C2.33142 16.118 2.46676 15.8847 2.59742 15.642C2.90542 15.1007 3.20876 14.508 3.50742 13.864C3.81542 13.22 4.06276 12.6647 4.24942 12.198L5.46742 9.062C5.22476 8.67933 4.97742 8.34333 4.72542 8.054C4.47342 7.75533 4.24476 7.54067 4.03942 7.41C4.01142 7.40067 3.98342 7.39133 3.95542 7.382C3.92742 7.36333 3.90409 7.34933 3.88542 7.34L3.89942 7.2C4.37542 7.2 4.84676 7.2 5.31342 7.2C5.78942 7.2 6.26542 7.2 6.74142 7.2H7.51142C7.81009 8.124 8.09942 8.908 8.37942 9.552L10.5214 14.802C10.6334 15.0913 10.7501 15.362 10.8714 15.614C10.9554 15.7913 11.0441 15.9827 11.1374 16.188C11.2401 16.3933 11.3474 16.6173 11.4594 16.86V17H7.73542L7.41342 16.622L7.46942 16.538L7.69342 16.594C7.89876 16.65 8.10876 16.7013 8.32342 16.748C8.54742 16.7853 8.71076 16.804 8.81342 16.804L7.59542 13.78H3.91342C3.85742 13.9107 3.81076 14.0413 3.77342 14.172C3.73609 14.3027 3.69409 14.438 3.64742 14.578C3.37676 15.5207 3.21342 16.2627 3.15742 16.804C3.25076 16.804 3.40476 16.7853 3.61942 16.748C3.84342 16.7013 4.05809 16.65 4.26342 16.594C4.31009 16.5847 4.35209 16.5753 4.38942 16.566C4.42676 16.5567 4.46409 16.5473 4.50142 16.538L4.55742 16.622L4.23542 17H1.84142V16.86ZM7.49742 13.528L6.48942 11.036C6.48009 11.0267 6.47076 11.0127 6.46142 10.994C6.46142 10.9753 6.45676 10.9567 6.44742 10.938C6.32609 10.6393 6.19542 10.3547 6.05542 10.084C5.91542 9.804 5.77076 9.54267 5.62142 9.3L4.01142 13.528H7.49742ZM16.556 19.94C15.7346 19.94 15.002 19.8467 14.358 19.66C13.7233 19.4733 13.2286 19.2167 12.874 18.89C12.5193 18.5633 12.342 18.1853 12.342 17.756C12.342 17.2147 12.6126 16.7573 13.154 16.384C13.6953 16.0107 14.4233 15.7633 15.338 15.642C14.0686 15.5487 13.0653 15.362 12.328 15.082C11.6 14.802 11.236 14.3447 11.236 13.71C11.236 13.5233 11.278 13.36 11.362 13.22C11.446 13.08 11.5626 12.9727 11.712 12.898C11.8706 12.814 12.048 12.772 12.244 12.772C12.3466 12.772 12.454 12.7907 12.566 12.828C12.6873 12.856 12.8086 12.898 12.93 12.954C12.79 12.7487 12.72 12.5013 12.72 12.212C12.72 11.6333 12.9673 11.1433 13.462 10.742C13.9566 10.3407 14.6286 10.0747 15.478 9.944V8.404C15.338 8.404 15.0346 8.474 14.568 8.614L14.4 8.656L14.358 8.572L14.61 8.208H15.884C16.1546 8.208 16.4673 8.19867 16.822 8.18C17.1766 8.152 17.4426 8.11933 17.62 8.082L17.662 8.152C17.6246 8.63733 17.5966 9.23467 17.578 9.944C18.1566 10.0093 18.6606 10.1493 19.09 10.364C19.5193 10.5693 19.8506 10.8307 20.084 11.148C20.3173 11.4653 20.434 11.82 20.434 12.212C20.434 12.688 20.2706 13.1033 19.944 13.458C19.6266 13.8127 19.174 14.088 18.586 14.284C18.0073 14.4707 17.34 14.564 16.584 14.564C16.0053 14.564 15.5153 14.5173 15.114 14.424C14.7126 14.3213 14.3906 14.2047 14.148 14.074C13.9053 13.934 13.6393 13.7613 13.35 13.556C13.1353 13.3787 12.9486 13.2527 12.79 13.178C12.6313 13.094 12.4493 13.052 12.244 13.052C12.0293 13.052 11.8566 13.1127 11.726 13.234C11.5953 13.346 11.53 13.4907 11.53 13.668C11.53 14.088 11.7213 14.4147 12.104 14.648C12.4866 14.8813 12.958 15.0493 13.518 15.152C14.078 15.2453 14.8433 15.3387 15.814 15.432C16.1033 15.46 16.3926 15.4927 16.682 15.53C16.9806 15.558 17.2746 15.5907 17.564 15.628C18.5626 15.7773 19.3466 16.0107 19.916 16.328C20.4853 16.6453 20.77 17.1213 20.77 17.756C20.77 18.1853 20.5926 18.5633 20.238 18.89C19.8926 19.2167 19.398 19.4733 18.754 19.66C18.11 19.8467 17.3773 19.94 16.556 19.94ZM16.556 19.758C16.9106 19.758 17.2233 19.674 17.494 19.506C17.774 19.338 17.9886 19.1 18.138 18.792C18.2873 18.4933 18.362 18.148 18.362 17.756C18.362 17.364 18.2873 17.0187 18.138 16.72C17.9886 16.412 17.774 16.174 17.494 16.006C17.2233 15.8287 16.9106 15.74 16.556 15.74C16.2013 15.74 15.884 15.8287 15.604 16.006C15.3333 16.174 15.1186 16.412 14.96 16.72C14.8106 17.0187 14.736 17.364 14.736 17.756C14.736 18.148 14.8106 18.4933 14.96 18.792C15.1186 19.1 15.3333 19.338 15.604 19.506C15.884 19.674 16.2013 19.758 16.556 19.758ZM16.584 14.368C17.0973 14.368 17.508 14.172 17.816 13.78C18.124 13.3787 18.278 12.8467 18.278 12.184C18.278 11.5213 18.124 10.994 17.816 10.602C17.508 10.2007 17.0973 10 16.584 10C16.0613 10 15.6413 10.2007 15.324 10.602C15.016 10.994 14.862 11.5213 14.862 12.184C14.862 12.8467 15.016 13.3787 15.324 13.78C15.6413 14.172 16.0613 14.368 16.584 14.368Z" fill="#888888"/>
</svg>
