<svg width="24" height="24" viewBox="0 0 24 24" fill="none" xmlns="http://www.w3.org/2000/svg">
<path d="M2.38906 16.846C2.49173 16.6407 2.58506 16.4447 2.66906 16.258C2.7624 16.0713 2.85106 15.8893 2.93506 15.712C3.10306 15.348 3.27573 14.9653 3.45306 14.564C3.6304 14.1627 3.8264 13.71 4.04106 13.206L6.15506 8.166C6.01506 8.138 5.85173 8.11933 5.66506 8.11C5.48773 8.10067 5.27773 8.096 5.03506 8.096C4.9884 8.096 4.94173 8.096 4.89506 8.096C4.8484 8.096 4.80173 8.096 4.75506 8.096L5.07706 7.158C5.4224 7.17667 5.79573 7.19067 6.19706 7.2C6.5984 7.2 6.95306 7.2 7.26106 7.2H7.80706C8.18973 8.21733 8.53973 9.08533 8.85706 9.804L10.8171 14.228C10.9011 14.4147 11.0084 14.6433 11.1391 14.914C11.2791 15.2313 11.4237 15.5533 11.5731 15.88C11.7317 16.2067 11.8904 16.5333 12.0491 16.86V17H9.26306L8.92706 16.006L8.96906 15.922L9.19306 15.964C9.38906 16.0107 9.58973 16.0527 9.79506 16.09C10.0097 16.118 10.1824 16.132 10.3131 16.132L9.40306 13.99H4.81106C4.77373 14.0927 4.73173 14.1907 4.68506 14.284C4.64773 14.3773 4.60573 14.4707 4.55906 14.564C4.25106 15.292 4.04106 15.8147 3.92906 16.132C4.0504 16.132 4.21373 16.118 4.41906 16.09C4.63373 16.0527 4.83906 16.0107 5.03506 15.964C5.0724 15.9547 5.10973 15.95 5.14706 15.95C5.19373 15.9407 5.23573 15.9313 5.27306 15.922L5.32906 16.006L5.00706 17H2.38906V16.846ZM8.99706 13.01L7.55506 9.678C7.55506 9.66867 7.5504 9.65467 7.54106 9.636C7.53173 9.61733 7.5224 9.60333 7.51306 9.594C7.39173 9.286 7.28906 9.05267 7.20506 8.894C7.1304 8.73533 7.05573 8.6 6.98106 8.488L5.20306 13.01H8.99706ZM16.7135 19.94C15.9201 19.94 15.2295 19.8513 14.6415 19.674C14.0535 19.4967 13.6055 19.2353 13.2975 18.89C12.9895 18.554 12.8355 18.1573 12.8355 17.7C12.8355 17.2893 12.9801 16.93 13.2695 16.622C13.5681 16.3047 13.9881 16.0807 14.5295 15.95C13.7641 15.8567 13.1621 15.67 12.7235 15.39C12.2941 15.1007 12.0795 14.704 12.0795 14.2C12.0795 13.9387 12.1401 13.7193 12.2615 13.542C12.3921 13.3553 12.5461 13.2153 12.7235 13.122C12.9101 13.0193 13.0921 12.968 13.2695 12.968C13.3255 12.968 13.3768 12.9727 13.4235 12.982C13.4701 12.9913 13.5168 13.0007 13.5635 13.01C13.3955 12.7767 13.3115 12.492 13.3115 12.156C13.3115 11.5213 13.5728 11.008 14.0955 10.616C14.6181 10.2147 15.3368 9.97667 16.2515 9.902V8.824C16.0835 8.824 15.7708 8.88 15.3135 8.992L15.1315 9.034L15.0895 8.95L15.3555 8.026H16.4335C16.5735 8.026 16.7321 8.02133 16.9095 8.012C17.0868 8.00267 17.2268 7.98867 17.3295 7.97L17.3435 8.082C17.3061 8.67933 17.2875 9.27667 17.2875 9.874C17.9221 9.902 18.4775 10.014 18.9535 10.21C19.4295 10.406 19.7935 10.672 20.0455 11.008C20.3068 11.3347 20.4375 11.7173 20.4375 12.156C20.4375 12.6133 20.2835 13.0147 19.9755 13.36C19.6768 13.7053 19.2568 13.9713 18.7155 14.158C18.1741 14.3447 17.5628 14.438 16.8815 14.438C16.4615 14.438 16.1068 14.4147 15.8175 14.368C15.5281 14.3213 15.2948 14.2653 15.1175 14.2C14.9401 14.1347 14.7535 14.0553 14.5575 13.962C14.3521 13.8687 14.1888 13.8033 14.0675 13.766C13.9461 13.7287 13.7968 13.71 13.6195 13.71C13.4608 13.71 13.3255 13.7567 13.2135 13.85C13.1108 13.934 13.0595 14.0367 13.0595 14.158C13.0595 14.4567 13.1948 14.6853 13.4655 14.844C13.7455 14.9933 14.0955 15.1007 14.5155 15.166C14.9448 15.222 15.5375 15.2733 16.2935 15.32C16.4615 15.3293 16.6248 15.3387 16.7835 15.348C16.9515 15.3573 17.1241 15.3667 17.3015 15.376C18.3001 15.4413 19.1075 15.67 19.7235 16.062C20.3395 16.4447 20.6475 16.972 20.6475 17.644C20.6475 18.1107 20.4841 18.5167 20.1575 18.862C19.8401 19.2073 19.3828 19.4733 18.7855 19.66C18.1975 19.8467 17.5068 19.94 16.7135 19.94ZM16.7415 19.016C17.3108 19.016 17.8101 18.96 18.2395 18.848C18.6688 18.736 19.0001 18.5727 19.2335 18.358C19.4668 18.1527 19.5835 17.9147 19.5835 17.644C19.5835 17.364 19.4668 17.1213 19.2335 16.916C19.0001 16.7107 18.6688 16.552 18.2395 16.44C17.8101 16.3187 17.3108 16.258 16.7415 16.258C16.1628 16.258 15.6588 16.3187 15.2295 16.44C14.8095 16.552 14.4828 16.7107 14.2495 16.916C14.0161 17.1213 13.8995 17.364 13.8995 17.644C13.8995 17.9147 14.0161 18.1527 14.2495 18.358C14.4828 18.5727 14.8095 18.736 15.2295 18.848C15.6588 18.96 16.1628 19.016 16.7415 19.016ZM16.8675 13.584C17.6421 13.584 18.2488 13.458 18.6875 13.206C19.1355 12.9447 19.3595 12.5947 19.3595 12.156C19.3595 11.708 19.1355 11.358 18.6875 11.106C18.2488 10.8447 17.6421 10.714 16.8675 10.714C16.0928 10.714 15.4815 10.8447 15.0335 11.106C14.5948 11.358 14.3755 11.708 14.3755 12.156C14.3755 12.5947 14.5948 12.9447 15.0335 13.206C15.4815 13.458 16.0928 13.584 16.8675 13.584Z" fill="#888888"/>
</svg>
