<svg width="24" height="24" viewBox="0 0 24 24" fill="none" xmlns="http://www.w3.org/2000/svg">
<path d="M2.14202 16.72H3.44402L7.37802 7.802L7.26602 7.48H5.72602V7.2H7.99402L12.054 16.72H13.37V17H9.10002V16.72H11.214L9.96802 13.794H5.04002L3.76602 16.72H5.95002V17H2.14202V16.72ZM9.84202 13.514L7.53202 8.152L5.16602 13.514H9.84202ZM17.1764 19.94C16.3644 19.94 15.655 19.8467 15.0484 19.66C14.451 19.4827 13.989 19.2307 13.6624 18.904C13.345 18.5773 13.1864 18.1853 13.1864 17.728C13.1864 17.1773 13.4384 16.7153 13.9424 16.342C14.4557 15.9593 15.1697 15.7167 16.0844 15.614C14.9177 15.5673 14.0077 15.4133 13.3544 15.152C12.701 14.8907 12.3744 14.4427 12.3744 13.808C12.3744 13.64 12.4164 13.4907 12.5004 13.36C12.5844 13.22 12.701 13.1127 12.8504 13.038C12.9997 12.954 13.1584 12.912 13.3264 12.912C13.4384 12.912 13.5457 12.926 13.6484 12.954C13.751 12.9727 13.8584 13.0053 13.9704 13.052C13.7837 12.7813 13.6904 12.4687 13.6904 12.114C13.6904 11.47 13.975 10.9473 14.5444 10.546C15.1137 10.1447 15.8884 9.92067 16.8684 9.874V8.572H15.2444V8.292H19.1784V8.572H17.5544V9.874C18.2264 9.89267 18.8097 10 19.3044 10.196C19.8084 10.3827 20.1957 10.644 20.4664 10.98C20.737 11.3067 20.8724 11.6847 20.8724 12.114C20.8724 12.5713 20.723 12.968 20.4244 13.304C20.135 13.64 19.7197 13.9013 19.1784 14.088C18.637 14.2653 18.007 14.354 17.2884 14.354C16.775 14.354 16.3364 14.3213 15.9724 14.256C15.6177 14.1813 15.333 14.0927 15.1184 13.99C14.9037 13.878 14.6797 13.7473 14.4464 13.598C14.2317 13.458 14.045 13.3553 13.8864 13.29C13.737 13.2247 13.5504 13.192 13.3264 13.192C13.1304 13.192 12.967 13.2527 12.8364 13.374C12.715 13.486 12.6544 13.626 12.6544 13.794C12.6544 14.2047 12.8224 14.5173 13.1584 14.732C13.5037 14.9467 13.9284 15.096 14.4324 15.18C14.9457 15.264 15.6317 15.3387 16.4904 15.404C16.7424 15.4227 16.9944 15.446 17.2464 15.474C17.5077 15.4927 17.7597 15.5207 18.0024 15.558C18.9731 15.67 19.7431 15.9033 20.3124 16.258C20.891 16.6127 21.1804 17.1027 21.1804 17.728C21.1804 18.1853 21.017 18.5773 20.6904 18.904C20.3637 19.2307 19.897 19.4827 19.2904 19.66C18.693 19.8467 17.9884 19.94 17.1764 19.94ZM17.1764 19.688C17.8297 19.688 18.3944 19.6087 18.8704 19.45C19.3557 19.2913 19.7291 19.0627 19.9904 18.764C20.2517 18.4747 20.3824 18.1293 20.3824 17.728C20.3824 17.336 20.2517 16.9907 19.9904 16.692C19.7291 16.3933 19.3557 16.1647 18.8704 16.006C18.3944 15.8473 17.8297 15.768 17.1764 15.768C16.523 15.768 15.9537 15.8473 15.4684 16.006C14.9924 16.1647 14.6237 16.3933 14.3624 16.692C14.101 16.9907 13.9704 17.336 13.9704 17.728C13.9704 18.1293 14.101 18.4747 14.3624 18.764C14.6237 19.0627 14.9924 19.2913 15.4684 19.45C15.9537 19.6087 16.523 19.688 17.1764 19.688ZM17.2884 14.102C18.1564 14.102 18.847 13.92 19.3604 13.556C19.883 13.192 20.1444 12.7113 20.1444 12.114C20.1444 11.498 19.8877 11.0127 19.3744 10.658C18.861 10.294 18.1657 10.112 17.2884 10.112C16.4017 10.112 15.697 10.294 15.1744 10.658C14.661 11.0127 14.4044 11.498 14.4044 12.114C14.4044 12.7207 14.661 13.206 15.1744 13.57C15.697 13.9247 16.4017 14.102 17.2884 14.102Z" fill="#888888"/>
</svg>
