<svg width="24" height="24" viewBox="0 0 24 24" fill="none" xmlns="http://www.w3.org/2000/svg">
<path d="M2.58205 16.86C2.69405 16.5987 2.80138 16.3513 2.90405 16.118C3.00671 15.8753 3.10938 15.6467 3.21205 15.432C3.40805 14.9933 3.59938 14.55 3.78605 14.102C3.97271 13.654 4.16405 13.1733 4.36005 12.66L5.81605 9.02C5.60138 9.01067 5.38205 9.006 5.15805 9.006C4.93405 9.006 4.70538 9.006 4.47205 9.006C4.43471 9.006 4.39271 9.006 4.34605 9.006C4.30871 9.006 4.27138 9.006 4.23405 9.006L4.85005 7.102C5.43805 7.14867 6.11471 7.17667 6.88005 7.186C7.65471 7.19533 8.29405 7.2 8.79805 7.2H9.52605C9.79671 8.13333 10.1094 9.06667 10.464 10L11.738 13.36C11.9247 13.892 12.1627 14.5313 12.452 15.278C12.564 15.53 12.6714 15.7867 12.774 16.048C12.886 16.3093 13.0027 16.58 13.124 16.86V17H8.74205L8.43405 15.208L8.47605 15.124L8.68605 15.152C8.86338 15.1613 9.04538 15.1753 9.23205 15.194C9.41871 15.2033 9.59605 15.208 9.76405 15.208L9.33005 13.976H6.06805C6.05871 14.0133 6.04471 14.06 6.02605 14.116C6.00738 14.1627 5.98871 14.2093 5.97005 14.256C5.86738 14.5267 5.76005 14.844 5.64805 15.208C5.80671 15.208 5.97471 15.2033 6.15205 15.194C6.33871 15.1753 6.52071 15.1613 6.69805 15.152C6.73538 15.1427 6.77271 15.138 6.81005 15.138C6.85671 15.138 6.89871 15.1333 6.93605 15.124L6.99205 15.208L6.69805 17H2.58205V16.86ZM8.86805 12.324L8.53205 11.428C8.52271 11.4 8.51338 11.372 8.50405 11.344C8.49471 11.316 8.48538 11.2927 8.47605 11.274C8.30805 10.7793 8.15405 10.364 8.01405 10.028C7.87405 9.68267 7.73405 9.412 7.59405 9.216L6.60005 12.324H8.86805ZM17.4446 19.94C16.6326 19.94 15.9419 19.8513 15.3726 19.674C14.8032 19.506 14.3692 19.2587 14.0706 18.932C13.7719 18.6053 13.6226 18.2087 13.6226 17.742C13.6226 17.4247 13.7159 17.14 13.9026 16.888C14.0892 16.6267 14.3412 16.4213 14.6586 16.272C14.0892 16.1693 13.6506 15.9547 13.3426 15.628C13.0439 15.292 12.8946 14.9047 12.8946 14.466C12.8946 14.2513 12.9412 14.046 13.0346 13.85C13.1372 13.6447 13.2772 13.472 13.4546 13.332C13.6412 13.192 13.8652 13.0987 14.1266 13.052C14.1359 13.052 14.1406 13.052 14.1406 13.052C14.1499 13.052 14.1592 13.052 14.1686 13.052C14.0566 12.8093 14.0006 12.5433 14.0006 12.254C14.0006 11.6473 14.2106 11.148 14.6306 10.756C15.0599 10.3547 15.6619 10.0887 16.4366 9.958V9.272C16.3059 9.272 15.9792 9.33267 15.4566 9.454L15.2606 9.496L15.2046 9.412L15.4986 7.62H16.8566C17.1272 7.62 17.4352 7.61067 17.7806 7.592C18.1352 7.564 18.4012 7.53133 18.5786 7.494L18.6206 7.564C18.5646 8.13333 18.5366 8.91733 18.5366 9.916C19.1152 9.98133 19.6052 10.1167 20.0066 10.322C20.4172 10.5273 20.7299 10.7933 20.9446 11.12C21.1592 11.4373 21.2666 11.8153 21.2666 12.254C21.2666 12.7393 21.1126 13.164 20.8046 13.528C20.5059 13.892 20.0812 14.1673 19.5306 14.354C18.9892 14.5407 18.3546 14.634 17.6266 14.634C17.3092 14.634 17.0246 14.62 16.7726 14.592C16.5299 14.5547 16.3246 14.5127 16.1566 14.466C15.9886 14.41 15.8299 14.3493 15.6806 14.284C15.5592 14.2467 15.4566 14.214 15.3726 14.186C15.2886 14.158 15.2046 14.144 15.1206 14.144C14.9992 14.144 14.8966 14.1767 14.8126 14.242C14.7286 14.3073 14.6866 14.382 14.6866 14.466C14.6866 14.6247 14.7659 14.7507 14.9246 14.844C15.0832 14.9373 15.3072 15.0073 15.5966 15.054C15.8859 15.1007 16.2826 15.138 16.7866 15.166C16.9359 15.1753 17.0852 15.18 17.2346 15.18C17.3932 15.18 17.5566 15.18 17.7246 15.18C18.8259 15.1987 19.6986 15.418 20.3426 15.838C20.9959 16.2487 21.3226 16.818 21.3226 17.546C21.3226 18.0407 21.1639 18.4653 20.8466 18.82C20.5386 19.184 20.0906 19.4593 19.5026 19.646C18.9239 19.842 18.2379 19.94 17.4446 19.94ZM17.4726 18.33C17.8366 18.33 18.1539 18.2927 18.4246 18.218C18.7046 18.1527 18.9146 18.05 19.0546 17.91C19.2039 17.77 19.2786 17.6113 19.2786 17.434C19.2786 17.2473 19.2039 17.084 19.0546 16.944C18.9146 16.804 18.7046 16.6967 18.4246 16.622C18.1539 16.5473 17.8366 16.51 17.4726 16.51C17.1086 16.51 16.7912 16.5473 16.5206 16.622C16.2499 16.6967 16.0399 16.804 15.8906 16.944C15.7506 17.084 15.6806 17.2473 15.6806 17.434C15.6806 17.6113 15.7506 17.77 15.8906 17.91C16.0399 18.05 16.2499 18.1527 16.5206 18.218C16.7912 18.2927 17.1086 18.33 17.4726 18.33ZM17.6266 13.29C18.1026 13.29 18.4712 13.2107 18.7326 13.052C18.9939 12.884 19.1246 12.6553 19.1246 12.366C19.1246 12.058 18.9939 11.8247 18.7326 11.666C18.4712 11.498 18.1026 11.414 17.6266 11.414C17.1412 11.414 16.7679 11.498 16.5066 11.666C16.2452 11.8247 16.1146 12.058 16.1146 12.366C16.1146 12.6553 16.2452 12.884 16.5066 13.052C16.7679 13.2107 17.1412 13.29 17.6266 13.29Z" fill="#888888"/>
</svg>
