<svg width="24" height="24" viewBox="0 0 24 24" fill="none" xmlns="http://www.w3.org/2000/svg">
<path d="M2.42011 15.894H3.63811L6.45211 8.782L6.29811 8.306H5.01011V7.2H9.16811L12.3041 15.894H13.5361V17H8.42611V15.894H10.0781L9.30811 13.78H5.64011L4.81411 15.894H6.67611V17H2.42011V15.894ZM8.98611 12.828L7.60011 9.048H7.48811L5.99011 12.828H8.98611ZM17.6285 19.94C16.7885 19.94 16.0698 19.8513 15.4725 19.674C14.8752 19.4967 14.4178 19.24 14.1005 18.904C13.7832 18.5773 13.6245 18.1807 13.6245 17.714C13.6245 17.2753 13.8065 16.902 14.1705 16.594C14.5438 16.2767 15.0618 16.048 15.7245 15.908C14.7818 15.8147 14.0492 15.6187 13.5265 15.32C13.0132 15.0213 12.7565 14.5967 12.7565 14.046C12.7565 13.8593 12.8032 13.682 12.8965 13.514C12.9805 13.346 13.1065 13.2107 13.2745 13.108C13.4518 12.996 13.6525 12.9353 13.8765 12.926C13.9325 12.926 13.9885 12.9353 14.0445 12.954C14.1005 12.9633 14.1612 12.9773 14.2265 12.996C14.0958 12.7627 14.0305 12.5013 14.0305 12.212C14.0305 11.596 14.2732 11.092 14.7585 10.7C15.2532 10.2987 15.9532 10.0513 16.8585 9.958V8.866H15.4025V7.886H19.9805V8.866H18.5385V9.944C19.1452 9.98133 19.6632 10.1027 20.0925 10.308C20.5312 10.504 20.8625 10.7653 21.0865 11.092C21.3198 11.4187 21.4365 11.792 21.4365 12.212C21.4365 12.688 21.2825 13.1033 20.9745 13.458C20.6758 13.8033 20.2465 14.074 19.6865 14.27C19.1265 14.4567 18.4778 14.55 17.7405 14.55C17.2925 14.55 16.9005 14.5173 16.5645 14.452C16.2378 14.3867 15.9718 14.3073 15.7665 14.214C15.5612 14.1207 15.3465 14.004 15.1225 13.864C14.9452 13.752 14.7912 13.668 14.6605 13.612C14.5298 13.556 14.3898 13.528 14.2405 13.528C14.0725 13.528 13.9372 13.5747 13.8345 13.668C13.7318 13.7613 13.6805 13.878 13.6805 14.018C13.6805 14.3353 13.8252 14.5827 14.1145 14.76C14.4038 14.928 14.7678 15.0493 15.2065 15.124C15.6545 15.1893 16.2705 15.2547 17.0545 15.32C17.2598 15.3387 17.4652 15.3573 17.6705 15.376C17.8758 15.3853 18.0858 15.404 18.3005 15.432C19.3645 15.5253 20.1905 15.7587 20.7785 16.132C21.3665 16.5053 21.6605 17.014 21.6605 17.658C21.6605 18.134 21.4972 18.54 21.1705 18.876C20.8438 19.2213 20.3772 19.4827 19.7705 19.66C19.1638 19.8467 18.4498 19.94 17.6285 19.94ZM17.6425 19.1C18.0625 19.1 18.4265 19.0393 18.7345 18.918C19.0425 18.806 19.2758 18.6427 19.4345 18.428C19.5932 18.2133 19.6725 17.952 19.6725 17.644C19.6725 17.336 19.5932 17.0747 19.4345 16.86C19.2758 16.636 19.0425 16.468 18.7345 16.356C18.4265 16.2347 18.0625 16.174 17.6425 16.174C17.2225 16.174 16.8585 16.2347 16.5505 16.356C16.2425 16.468 16.0092 16.636 15.8505 16.86C15.6918 17.0747 15.6125 17.336 15.6125 17.644C15.6125 17.952 15.6918 18.2133 15.8505 18.428C16.0092 18.6427 16.2425 18.806 16.5505 18.918C16.8585 19.0393 17.2225 19.1 17.6425 19.1ZM17.7405 13.71C18.3098 13.71 18.7578 13.5747 19.0845 13.304C19.4205 13.0333 19.5885 12.66 19.5885 12.184C19.5885 11.708 19.4205 11.3347 19.0845 11.064C18.7578 10.7933 18.3098 10.658 17.7405 10.658C17.1525 10.658 16.6952 10.7933 16.3685 11.064C16.0418 11.3347 15.8785 11.708 15.8785 12.184C15.8785 12.66 16.0418 13.0333 16.3685 13.304C16.6952 13.5747 17.1525 13.71 17.7405 13.71Z" fill="#888888"/>
</svg>
