<svg width="24" height="24" viewBox="0 0 24 24" fill="none" xmlns="http://www.w3.org/2000/svg">
<path d="M2.25599 16.3H3.52999L7.02999 8.166L6.94599 7.9H5.43399V7.2H8.41599L12.154 16.3H13.456V17H8.98999V16.3H10.894L9.87199 13.808H5.33599L4.27199 16.3H6.28799V17H2.25599V16.3ZM9.60599 13.136L7.65999 8.46H7.61799L5.61599 13.136H9.60599ZM17.3518 19.94C16.5492 19.94 15.8492 19.8513 15.2518 19.674C14.6545 19.4967 14.1972 19.24 13.8798 18.904C13.5625 18.5773 13.4038 18.1853 13.4038 17.728C13.4038 17.2333 13.6092 16.818 14.0198 16.482C14.4305 16.1367 15.0138 15.9033 15.7698 15.782C14.7712 15.698 13.9918 15.5207 13.4318 15.25C12.8812 14.97 12.6058 14.5407 12.6058 13.962C12.6058 13.7847 12.6478 13.6167 12.7318 13.458C12.8252 13.2993 12.9558 13.1733 13.1238 13.08C13.2918 12.9867 13.4738 12.94 13.6698 12.94C13.7445 12.94 13.8192 12.9493 13.8938 12.968C13.9685 12.9773 14.0432 12.996 14.1178 13.024C13.9498 12.7627 13.8658 12.4687 13.8658 12.142C13.8658 11.5167 14.1318 11.008 14.6638 10.616C15.2052 10.2147 15.9565 9.98133 16.9178 9.916V8.726H15.3638V8.096H19.4658V8.726H17.9258V9.916C18.5885 9.944 19.1532 10.056 19.6198 10.252C20.0958 10.4387 20.4598 10.6953 20.7118 11.022C20.9638 11.3393 21.0898 11.7127 21.0898 12.142C21.0898 12.6087 20.9358 13.0147 20.6278 13.36C20.3292 13.696 19.9045 13.9573 19.3538 14.144C18.8125 14.3307 18.1872 14.424 17.4778 14.424C17.0205 14.424 16.6238 14.3913 16.2878 14.326C15.9518 14.2607 15.6812 14.1813 15.4758 14.088C15.2798 13.9947 15.0652 13.8827 14.8318 13.752C14.6358 13.6307 14.4632 13.542 14.3138 13.486C14.1738 13.43 14.0105 13.402 13.8238 13.402C13.6465 13.402 13.5018 13.4533 13.3898 13.556C13.2872 13.6587 13.2358 13.78 13.2358 13.92C13.2358 14.284 13.3898 14.564 13.6978 14.76C14.0152 14.956 14.4072 15.0913 14.8738 15.166C15.3498 15.2313 16.0078 15.2967 16.8478 15.362C17.0532 15.3807 17.2585 15.3993 17.4638 15.418C17.6692 15.4273 17.8745 15.446 18.0798 15.474C19.0785 15.5673 19.8718 15.8007 20.4598 16.174C21.0478 16.538 21.3418 17.0467 21.3418 17.7C21.3418 18.1573 21.1785 18.554 20.8518 18.89C20.5345 19.226 20.0725 19.4827 19.4658 19.66C18.8685 19.8467 18.1638 19.94 17.3518 19.94ZM17.3658 19.352C17.9445 19.352 18.4438 19.282 18.8638 19.142C19.2932 19.0113 19.6198 18.82 19.8438 18.568C20.0772 18.316 20.1938 18.022 20.1938 17.686C20.1938 17.3407 20.0772 17.042 19.8438 16.79C19.6198 16.538 19.2932 16.342 18.8638 16.202C18.4438 16.062 17.9445 15.992 17.3658 15.992C16.7872 15.992 16.2832 16.062 15.8538 16.202C15.4338 16.342 15.1118 16.538 14.8878 16.79C14.6638 17.042 14.5518 17.3407 14.5518 17.686C14.5518 18.022 14.6638 18.316 14.8878 18.568C15.1212 18.82 15.4478 19.0113 15.8678 19.142C16.2878 19.282 16.7872 19.352 17.3658 19.352ZM17.4778 13.822C18.2525 13.822 18.8638 13.668 19.3118 13.36C19.7692 13.052 19.9978 12.6413 19.9978 12.128C19.9978 11.596 19.7692 11.1807 19.3118 10.882C18.8638 10.574 18.2525 10.42 17.4778 10.42C16.7032 10.42 16.0872 10.574 15.6298 10.882C15.1725 11.1807 14.9438 11.596 14.9438 12.128C14.9438 12.6413 15.1725 13.052 15.6298 13.36C16.0872 13.668 16.7032 13.822 17.4778 13.822Z" fill="#888888"/>
</svg>
