<svg width="24" height="24" viewBox="0 0 24 24" fill="none" xmlns="http://www.w3.org/2000/svg">
<path d="M6.43993 7.2H7.15393L11.2699 17H10.3739L9.01593 13.78H3.97593L2.61793 17H2.32393L6.43993 7.2ZM8.90393 13.514L6.49593 7.83L4.08793 13.514H8.90393ZM16.5055 19.94C15.6935 19.94 14.9842 19.8467 14.3775 19.66C13.7802 19.4827 13.3182 19.2307 12.9915 18.904C12.6742 18.5773 12.5155 18.1853 12.5155 17.728C12.5155 17.196 12.7442 16.748 13.2015 16.384C13.6588 16.02 14.2935 15.768 15.1055 15.628C14.0322 15.5347 13.1968 15.362 12.5995 15.11C12.0022 14.8487 11.7035 14.4147 11.7035 13.808C11.7035 13.556 11.7922 13.346 11.9695 13.178C12.1562 13.0007 12.3848 12.912 12.6555 12.912C12.7022 12.912 12.7488 12.912 12.7955 12.912C12.8422 12.912 12.8888 12.9167 12.9355 12.926C12.9915 12.9447 13.0475 12.9587 13.1035 12.968C13.1595 12.9773 13.2155 12.9913 13.2715 13.01C13.1035 12.7393 13.0195 12.4407 13.0195 12.114C13.0195 11.47 13.2995 10.952 13.8595 10.56C14.4195 10.1587 15.1848 9.93 16.1555 9.874V8.18H16.8555V9.874C17.5275 9.89267 18.1155 9.99533 18.6195 10.182C19.1235 10.3687 19.5108 10.63 19.7815 10.966C20.0615 11.2927 20.2015 11.6753 20.2015 12.114C20.2015 12.5713 20.0522 12.968 19.7535 13.304C19.4642 13.64 19.0488 13.9013 18.5075 14.088C17.9662 14.2653 17.3362 14.354 16.6175 14.354C16.1135 14.354 15.6842 14.3213 15.3295 14.256C14.9842 14.1813 14.7042 14.0927 14.4895 13.99C14.2842 13.8873 14.0555 13.7567 13.8035 13.598C13.5702 13.458 13.3742 13.3553 13.2155 13.29C13.0568 13.2247 12.8702 13.192 12.6555 13.192C12.4595 13.192 12.2962 13.2527 12.1655 13.374C12.0442 13.486 11.9835 13.626 11.9835 13.794C11.9835 14.186 12.1608 14.4987 12.5155 14.732C12.8702 14.956 13.3135 15.1193 13.8455 15.222C14.3868 15.3247 15.0495 15.404 15.8335 15.46C15.9828 15.4693 16.1322 15.4787 16.2815 15.488C16.4308 15.4973 16.5755 15.5067 16.7155 15.516C17.9195 15.5907 18.8482 15.7913 19.5015 16.118C20.1642 16.4447 20.4955 16.9813 20.4955 17.728C20.4955 18.1853 20.3322 18.5773 20.0055 18.904C19.6882 19.2307 19.2262 19.4827 18.6195 19.66C18.0222 19.8467 17.3175 19.94 16.5055 19.94ZM16.5055 19.674C17.1588 19.674 17.7282 19.5947 18.2135 19.436C18.6988 19.2773 19.0722 19.0487 19.3335 18.75C19.5948 18.4607 19.7255 18.12 19.7255 17.728C19.7255 17.0933 19.4502 16.608 18.8995 16.272C18.3488 15.936 17.5508 15.768 16.5055 15.768C15.8428 15.768 15.2688 15.8473 14.7835 16.006C14.3075 16.1647 13.9388 16.3933 13.6775 16.692C13.4162 16.9813 13.2855 17.3267 13.2855 17.728C13.2855 18.12 13.4162 18.4607 13.6775 18.75C13.9388 19.0487 14.3075 19.2773 14.7835 19.436C15.2688 19.5947 15.8428 19.674 16.5055 19.674ZM16.6175 14.102C17.4762 14.102 18.1622 13.92 18.6755 13.556C19.1888 13.192 19.4455 12.7113 19.4455 12.114C19.4455 11.498 19.1888 11.0127 18.6755 10.658C18.1715 10.294 17.4855 10.112 16.6175 10.112C15.7402 10.112 15.0448 10.294 14.5315 10.658C14.0275 11.0127 13.7755 11.498 13.7755 12.114C13.7755 12.7207 14.0228 13.206 14.5175 13.57C15.0215 13.9247 15.7215 14.102 16.6175 14.102Z" fill="#888888"/>
</svg>
