<svg width="24" height="24" viewBox="0 0 24 24" fill="none" xmlns="http://www.w3.org/2000/svg">
<path d="M5.16719 18.26C5.15785 18.26 5.12519 18.2507 5.06919 18.232C5.04119 18.2227 5.00852 18.19 4.97119 18.134C4.96185 18.106 4.95252 18.078 4.94319 18.05C4.93385 18.022 4.92919 17.994 4.92919 17.966C4.90119 17.826 4.88719 17.686 4.88719 17.546V16.58C4.88719 16.496 4.87785 16.412 4.85919 16.328C4.84052 16.244 4.82185 16.16 4.80319 16.076C4.80319 16.0573 4.79385 16.0293 4.77519 15.992C4.76585 15.964 4.75185 15.936 4.73319 15.908C4.71452 15.8707 4.69585 15.838 4.67719 15.81C4.63985 15.7447 4.61185 15.6747 4.59319 15.6C4.57452 15.5253 4.56052 15.4553 4.55119 15.39C4.54185 15.2873 4.54185 15.1893 4.55119 15.096C4.56985 15.04 4.58385 14.9887 4.59319 14.942C4.60252 14.886 4.61652 14.8347 4.63519 14.788C4.66319 14.7133 4.68652 14.6387 4.70519 14.564C4.72385 14.48 4.74719 14.396 4.77519 14.312L4.98519 13.626C5.05052 13.43 5.13452 13.2293 5.23719 13.024C5.33985 12.828 5.43785 12.6087 5.53119 12.366C5.54985 12.31 5.57319 12.2493 5.60119 12.184C5.63852 12.0813 5.67585 11.9833 5.71319 11.89C5.75985 11.7873 5.80185 11.6893 5.83919 11.596L6.04919 11.008C6.06785 10.9707 6.08185 10.9333 6.09119 10.896C6.10052 10.8587 6.10985 10.8213 6.11919 10.784C6.19385 10.5973 6.26852 10.42 6.34319 10.252C6.39919 10.14 6.43652 10.0187 6.45519 9.888C6.47385 9.75733 6.47385 9.62667 6.45519 9.496C6.44585 9.44 6.43652 9.384 6.42719 9.328C6.42719 9.26267 6.42719 9.202 6.42719 9.146C6.42719 9.118 6.41785 9.09467 6.39919 9.076C6.38985 9.048 6.38985 9.02 6.39919 8.992C6.40852 8.97333 6.41785 8.95467 6.42719 8.936C6.44585 8.91733 6.45985 8.89867 6.46919 8.88C6.49719 8.77733 6.53919 8.68867 6.59519 8.614C6.66052 8.53 6.73052 8.45533 6.80519 8.39C6.84252 8.35267 6.89385 8.32467 6.95919 8.306C6.99652 8.28733 7.02919 8.26867 7.05719 8.25C7.09452 8.23133 7.12719 8.208 7.15519 8.18C7.20185 8.14267 7.25319 8.11933 7.30919 8.11C7.38385 8.10067 7.46319 8.07267 7.54719 8.026C7.62185 7.97933 7.70585 7.96533 7.79919 7.984H7.92519C7.99052 7.984 8.06052 8.00733 8.13519 8.054C8.15385 8.06333 8.17252 8.07733 8.19119 8.096C8.21919 8.10533 8.24719 8.11933 8.27519 8.138C8.34985 8.194 8.38719 8.264 8.38719 8.348C8.38719 8.41333 8.39185 8.474 8.40119 8.53C8.41985 8.586 8.43385 8.64667 8.44319 8.712C8.46185 8.768 8.46185 8.82867 8.44319 8.894C8.43385 8.91267 8.42919 8.936 8.42919 8.964C8.42919 8.98267 8.42452 9.00133 8.41519 9.02C8.41519 9.05733 8.41052 9.09467 8.40119 9.132C8.40119 9.16933 8.39652 9.20667 8.38719 9.244C8.35919 9.30933 8.36852 9.37467 8.41519 9.44C8.48985 9.56133 8.55519 9.68733 8.61119 9.818C8.67652 9.94867 8.74185 10.0793 8.80719 10.21L9.05919 10.658C9.13385 10.7793 9.20852 10.924 9.28319 11.092C9.30185 11.12 9.31585 11.148 9.32519 11.176C9.34385 11.204 9.36252 11.232 9.38119 11.26C9.40919 11.3067 9.43252 11.358 9.45119 11.414C9.47919 11.47 9.50719 11.526 9.53519 11.582C9.60985 11.722 9.67052 11.8667 9.71719 12.016C9.77319 12.156 9.82919 12.3053 9.88519 12.464C9.88519 12.4733 9.88519 12.4827 9.88519 12.492C9.89452 12.492 9.89919 12.4967 9.89919 12.506C9.90852 12.5713 9.95519 12.604 10.0392 12.604C10.0672 12.5947 10.0952 12.59 10.1232 12.59C10.1605 12.59 10.1932 12.59 10.2212 12.59C10.3239 12.59 10.4125 12.6087 10.4872 12.646C10.5339 12.6553 10.5805 12.6833 10.6272 12.73C10.7019 12.8047 10.7532 12.8653 10.7812 12.912C10.8092 12.9587 10.8279 13.0287 10.8372 13.122C10.8745 13.2993 10.8372 13.4533 10.7252 13.584L10.6412 13.654C10.6225 13.6727 10.5992 13.6913 10.5712 13.71C10.5432 13.7193 10.5199 13.7333 10.5012 13.752C10.4545 13.7893 10.4265 13.8173 10.4172 13.836C10.4172 13.8547 10.4312 13.8967 10.4592 13.962L10.6692 14.466C10.7532 14.6527 10.8372 14.8393 10.9212 15.026C11.0145 15.2127 11.1079 15.3993 11.2012 15.586C11.2385 15.6513 11.2665 15.7167 11.2852 15.782C11.3132 15.8473 11.3319 15.9173 11.3412 15.992C11.3505 16.048 11.3505 16.104 11.3412 16.16C11.3412 16.216 11.3365 16.272 11.3272 16.328C11.3272 16.3373 11.3179 16.37 11.2992 16.426C11.2712 16.4633 11.2432 16.5007 11.2152 16.538C11.1965 16.5753 11.1732 16.6127 11.1452 16.65C11.0705 16.7527 11.0099 16.8693 10.9632 17C10.9445 17.084 10.8839 17.1493 10.7812 17.196C10.7252 17.224 10.6645 17.224 10.5992 17.196C10.5152 17.168 10.4592 17.112 10.4312 17.028L10.4032 16.958C10.3752 16.8647 10.3332 16.776 10.2772 16.692C10.2399 16.6267 10.2025 16.5613 10.1652 16.496C10.1372 16.4213 10.1045 16.3513 10.0672 16.286C10.0579 16.2673 10.0532 16.2533 10.0532 16.244C10.0532 16.2253 10.0485 16.2113 10.0392 16.202C10.0299 16.146 10.0112 16.0947 9.98319 16.048C9.96452 15.992 9.94119 15.9407 9.91319 15.894C9.85719 15.754 9.79652 15.6187 9.73119 15.488C9.67519 15.348 9.61452 15.208 9.54919 15.068L9.33919 14.62C9.32985 14.592 9.32052 14.564 9.31119 14.536C9.30185 14.4987 9.28785 14.4613 9.26919 14.424L9.10119 14.046C9.10119 14.0273 9.09185 13.9993 9.07319 13.962C9.02652 13.8873 8.96585 13.8453 8.89119 13.836C8.82585 13.836 8.76519 13.8313 8.70919 13.822C8.65319 13.8127 8.59719 13.808 8.54119 13.808C8.39185 13.808 8.24252 13.822 8.09319 13.85C7.94385 13.878 7.80385 13.9293 7.67319 14.004C7.49585 14.1067 7.31385 14.172 7.12719 14.2C7.08985 14.2 7.05252 14.2047 7.01519 14.214C6.97785 14.2233 6.94052 14.2373 6.90319 14.256C6.84719 14.2933 6.81452 14.3353 6.80519 14.382C6.78652 14.438 6.77719 14.48 6.77719 14.508L6.73519 14.704C6.72585 14.7693 6.68852 14.8347 6.62319 14.9C6.57652 14.9467 6.51119 14.97 6.42719 14.97C6.30585 14.9513 6.22652 14.8907 6.18919 14.788C6.17985 14.76 6.17052 14.732 6.16119 14.704C6.15185 14.676 6.14252 14.6433 6.13319 14.606C6.09585 14.662 6.09119 14.7087 6.11919 14.746C6.13785 14.7833 6.12852 14.816 6.09119 14.844C6.07252 14.8627 6.06785 14.8767 6.07719 14.886C6.09585 14.9233 6.09119 14.956 6.06319 14.984C6.03519 15.012 6.02585 15.0447 6.03519 15.082C6.04452 15.1007 6.04452 15.124 6.03519 15.152C5.98852 15.2173 5.95585 15.2967 5.93719 15.39C5.94652 15.4273 5.92319 15.4553 5.86719 15.474C5.84852 15.474 5.83919 15.4833 5.83919 15.502C5.82052 15.53 5.80185 15.572 5.78319 15.628C5.77385 15.6747 5.75985 15.726 5.74119 15.782C5.73185 15.8287 5.71785 15.8753 5.69919 15.922L5.61519 16.272V16.328C5.61519 16.412 5.60585 16.496 5.58719 16.58C5.57785 16.6547 5.57319 16.734 5.57319 16.818L5.53119 17.28C5.52185 17.3453 5.51252 17.4107 5.50319 17.476C5.50319 17.5507 5.50319 17.6253 5.50319 17.7C5.49385 17.756 5.48452 17.8073 5.47519 17.854C5.47519 17.91 5.46585 17.966 5.44719 18.022C5.42852 18.106 5.39585 18.1667 5.34919 18.204C5.31185 18.26 5.25119 18.2787 5.16719 18.26ZM6.98719 12.59H7.00119C7.09452 12.5713 7.18319 12.5573 7.26719 12.548C7.35119 12.5387 7.43519 12.5293 7.51919 12.52C7.57519 12.5107 7.63119 12.506 7.68719 12.506C7.74319 12.4967 7.79919 12.492 7.85519 12.492H8.14919C8.16785 12.492 8.18652 12.492 8.20519 12.492C8.22385 12.4827 8.23785 12.478 8.24719 12.478C8.26585 12.478 8.27519 12.4593 8.27519 12.422C8.24719 12.3847 8.22385 12.3473 8.20519 12.31C8.18652 12.2727 8.16785 12.2353 8.14919 12.198C8.09319 12.0673 8.01852 11.9553 7.92519 11.862C7.91585 11.8433 7.90652 11.8293 7.89719 11.82C7.88785 11.8013 7.87852 11.7827 7.86919 11.764C7.85985 11.7453 7.84585 11.7267 7.82719 11.708C7.81785 11.68 7.80385 11.6567 7.78519 11.638C7.73852 11.6007 7.69185 11.61 7.64519 11.666L7.60319 11.778C7.59385 11.8527 7.57985 11.932 7.56119 12.016C7.54252 12.0907 7.52385 12.1653 7.50519 12.24C7.50519 12.2587 7.49585 12.2867 7.47719 12.324C7.45852 12.38 7.41185 12.422 7.33719 12.45C7.27185 12.478 7.20185 12.4687 7.12719 12.422L7.04319 12.366C7.04319 12.366 7.03385 12.366 7.01519 12.366C6.99652 12.4033 6.98719 12.4313 6.98719 12.45C6.98719 12.4687 6.98719 12.4873 6.98719 12.506C6.99652 12.5247 6.99185 12.5433 6.97319 12.562C6.95452 12.5807 6.95919 12.59 6.98719 12.59ZM17.6088 17.714C17.5715 17.7233 17.5435 17.714 17.5248 17.686C17.4875 17.658 17.4501 17.63 17.4128 17.602C17.3848 17.574 17.3475 17.546 17.3008 17.518C17.2261 17.4807 17.1655 17.4153 17.1188 17.322C17.0348 17.1913 16.9928 17.0513 16.9928 16.902C16.9928 16.8553 16.9881 16.8087 16.9788 16.762C16.9788 16.7153 16.9741 16.6687 16.9648 16.622C16.9648 16.5753 16.9601 16.5333 16.9508 16.496C16.9508 16.4493 16.9508 16.4073 16.9508 16.37C16.9508 16.3233 16.9508 16.2767 16.9508 16.23C16.9508 16.174 16.9461 16.1227 16.9368 16.076C16.9368 16.0667 16.9321 16.062 16.9228 16.062C16.9228 16.0527 16.9228 16.048 16.9228 16.048C16.9041 16.048 16.8901 16.0527 16.8808 16.062L16.7128 16.272C16.6755 16.328 16.6288 16.3793 16.5728 16.426C16.5261 16.4633 16.4795 16.5053 16.4328 16.552C16.2835 16.664 16.1341 16.7573 15.9848 16.832C15.9195 16.86 15.8588 16.8833 15.8028 16.902C15.4855 17.014 15.1728 17.0653 14.8648 17.056C14.7621 17.0467 14.6548 17.0373 14.5428 17.028C14.4401 17.028 14.3328 17.014 14.2208 16.986C14.1368 16.958 14.0528 16.93 13.9688 16.902C13.8941 16.8647 13.8195 16.818 13.7448 16.762C13.6795 16.706 13.6141 16.65 13.5488 16.594C13.4835 16.5287 13.4228 16.4587 13.3668 16.384C13.2735 16.2347 13.2128 16.1413 13.1848 16.104C13.1568 16.0667 13.1148 15.9733 13.0588 15.824L12.9888 15.698C12.9608 15.6233 12.9281 15.5533 12.8908 15.488C12.8628 15.4133 12.8395 15.3387 12.8208 15.264L12.7508 15.068C12.7321 15.0027 12.7135 14.942 12.6948 14.886C12.6761 14.8207 12.6575 14.7553 12.6388 14.69C12.6015 14.5687 12.5688 14.4473 12.5408 14.326C12.5128 14.1953 12.4848 14.0693 12.4568 13.948L12.4148 13.696C12.4148 13.6773 12.4101 13.6587 12.4008 13.64C12.4008 13.612 12.4008 13.584 12.4008 13.556L12.3168 13.15C12.3075 13.1033 12.3028 13.0613 12.3028 13.024C12.3028 12.9773 12.3028 12.9353 12.3028 12.898C12.2935 12.8233 12.2888 12.7487 12.2888 12.674C12.2981 12.5993 12.3028 12.5247 12.3028 12.45C12.3121 12.3473 12.3261 12.2493 12.3448 12.156C12.3635 12.0533 12.3821 11.9553 12.4008 11.862C12.4381 11.7313 12.4755 11.6007 12.5128 11.47C12.5595 11.33 12.6108 11.1993 12.6668 11.078C12.7135 10.9753 12.7601 10.8773 12.8068 10.784C12.8535 10.6813 12.9095 10.5833 12.9748 10.49C13.0588 10.35 13.1475 10.2147 13.2408 10.084C13.3435 9.95333 13.4461 9.82733 13.5488 9.706C13.6235 9.622 13.6981 9.54267 13.7728 9.468C13.8475 9.384 13.9221 9.3 13.9968 9.216C14.1275 9.08533 14.2675 8.97333 14.4168 8.88C14.4915 8.83333 14.5661 8.80533 14.6408 8.796C14.6688 8.78667 14.6921 8.782 14.7108 8.782C14.7388 8.782 14.7621 8.77733 14.7808 8.768C14.8835 8.74933 14.9768 8.754 15.0608 8.782C15.0888 8.79133 15.1168 8.80067 15.1448 8.81C15.1821 8.81933 15.2148 8.82867 15.2428 8.838C15.3641 8.88467 15.4715 8.91267 15.5648 8.922C15.6208 8.922 15.6861 8.94067 15.7608 8.978C15.8075 8.98733 15.8541 9.00133 15.9008 9.02C15.9475 9.02933 15.9941 9.03867 16.0408 9.048C16.0968 9.048 16.1435 9.062 16.1808 9.09C16.1901 9.09 16.1995 9.09467 16.2088 9.104C16.2275 9.104 16.2415 9.104 16.2508 9.104C16.3255 9.11333 16.3908 9.132 16.4468 9.16C16.5028 9.17867 16.5588 9.20667 16.6148 9.244C16.7455 9.328 16.8808 9.42133 17.0208 9.524C17.1048 9.58933 17.1468 9.678 17.1468 9.79V9.86C17.1748 9.972 17.1468 10.084 17.0628 10.196C17.0161 10.28 16.9788 10.336 16.9508 10.364C16.9321 10.3827 16.8761 10.4153 16.7828 10.462C16.7548 10.4713 16.7221 10.4853 16.6848 10.504C16.6568 10.5133 16.6195 10.518 16.5728 10.518C16.5541 10.518 16.5308 10.5227 16.5028 10.532C16.4841 10.532 16.4655 10.532 16.4468 10.532C16.4188 10.5413 16.3908 10.5413 16.3628 10.532C16.3348 10.5227 16.3068 10.518 16.2788 10.518C16.2695 10.5273 16.2555 10.5227 16.2368 10.504L16.0268 10.336C15.8775 10.2053 15.7048 10.1307 15.5088 10.112C15.4715 10.1027 15.4341 10.098 15.3968 10.098C15.3595 10.098 15.3175 10.0933 15.2708 10.084C15.1495 10.084 15.0515 10.1167 14.9768 10.182L14.8788 10.28C14.7948 10.3733 14.7061 10.4667 14.6128 10.56C14.5288 10.6533 14.4448 10.7467 14.3608 10.84C14.2955 10.9053 14.2395 10.98 14.1928 11.064C14.1461 11.148 14.0995 11.232 14.0528 11.316C13.9035 11.6053 13.7915 11.9133 13.7168 12.24C13.7075 12.296 13.6981 12.352 13.6888 12.408C13.6795 12.4547 13.6701 12.5013 13.6608 12.548C13.6608 12.5947 13.6608 12.6413 13.6608 12.688C13.6608 12.7347 13.6655 12.7813 13.6748 12.828C13.6841 12.8653 13.6888 12.9027 13.6888 12.94C13.6888 12.968 13.6935 13.0007 13.7028 13.038L13.7448 13.374C13.7541 13.43 13.7635 13.4907 13.7728 13.556C13.7915 13.612 13.8055 13.668 13.8148 13.724C13.9081 14.088 14.0201 14.4567 14.1508 14.83C14.1975 14.97 14.2535 15.0913 14.3188 15.194L14.4028 15.32C14.4308 15.3573 14.4588 15.3947 14.4868 15.432C14.5148 15.46 14.5428 15.488 14.5708 15.516C14.6268 15.5533 14.6735 15.5767 14.7108 15.586C14.8508 15.614 14.9955 15.628 15.1448 15.628C15.3315 15.6093 15.4901 15.5487 15.6208 15.446C15.6861 15.3993 15.7421 15.348 15.7888 15.292C15.8448 15.236 15.8961 15.1753 15.9428 15.11C16.0548 14.9793 16.1528 14.8393 16.2368 14.69C16.2648 14.634 16.2601 14.578 16.2228 14.522C16.1668 14.4287 16.0968 14.354 16.0128 14.298C15.9101 14.2233 15.8028 14.1627 15.6908 14.116C15.5881 14.06 15.4715 14.0273 15.3408 14.018L15.2708 13.99C15.1961 13.962 15.1168 13.962 15.0328 13.99C14.9675 14.018 14.8975 14.032 14.8228 14.032C14.7575 14.0227 14.6875 14.0133 14.6128 14.004C14.4448 13.9573 14.3001 13.8827 14.1788 13.78C14.1415 13.7333 14.1088 13.6867 14.0808 13.64C14.0621 13.5933 14.0388 13.5513 14.0108 13.514C14.0108 13.4953 14.0061 13.4767 13.9968 13.458C13.9968 13.4393 14.0015 13.4253 14.0108 13.416C14.0108 13.3693 14.0108 13.3227 14.0108 13.276C14.0201 13.2293 14.0295 13.1827 14.0388 13.136C14.0388 13.1267 14.0481 13.094 14.0668 13.038C14.0855 12.9913 14.1088 12.9493 14.1368 12.912C14.1741 12.8653 14.2115 12.8233 14.2488 12.786C14.3981 12.646 14.5615 12.5573 14.7388 12.52C14.8415 12.492 14.9441 12.4733 15.0468 12.464C15.1495 12.4453 15.2475 12.4313 15.3408 12.422H16.5168C16.5915 12.422 16.6708 12.422 16.7548 12.422C16.8388 12.422 16.9228 12.4173 17.0068 12.408C17.0815 12.3987 17.1515 12.394 17.2168 12.394C17.2915 12.394 17.3661 12.394 17.4408 12.394C17.5248 12.394 17.5995 12.408 17.6648 12.436C17.7675 12.464 17.8468 12.5247 17.9028 12.618C17.9308 12.6553 17.9588 12.6973 17.9868 12.744C18.0148 12.7907 18.0335 12.8373 18.0428 12.884C18.0521 12.8933 18.0568 12.9073 18.0568 12.926C18.0568 12.9353 18.0615 12.9493 18.0708 12.968L18.1688 13.486C18.1875 13.5607 18.2015 13.64 18.2108 13.724C18.2201 13.808 18.2295 13.892 18.2388 13.976C18.2388 14.0227 18.2388 14.074 18.2388 14.13C18.2481 14.1767 18.2528 14.2233 18.2528 14.27C18.2528 14.3073 18.2528 14.3493 18.2528 14.396C18.2621 14.4427 18.2668 14.4893 18.2668 14.536V15.18C18.2668 15.2453 18.2668 15.32 18.2668 15.404C18.2761 15.4787 18.2855 15.5533 18.2948 15.628C18.3041 15.6653 18.3088 15.7027 18.3088 15.74C18.3088 15.7773 18.3088 15.8193 18.3088 15.866C18.2995 15.9593 18.3041 16.0573 18.3228 16.16C18.3415 16.2533 18.3555 16.3513 18.3648 16.454C18.3741 16.5007 18.3835 16.552 18.3928 16.608C18.4115 16.6547 18.4255 16.706 18.4348 16.762C18.4441 16.7993 18.4488 16.8413 18.4488 16.888C18.4581 16.9253 18.4628 16.9673 18.4628 17.014C18.4628 17.0513 18.4581 17.0887 18.4488 17.126C18.4488 17.1727 18.4348 17.2147 18.4068 17.252C18.3881 17.2707 18.3695 17.2987 18.3508 17.336C18.3135 17.4387 18.2341 17.5227 18.1128 17.588C18.0195 17.6253 17.9215 17.6533 17.8188 17.672C17.7348 17.672 17.6648 17.686 17.6088 17.714Z" fill="#888888"/>
</svg>
