<svg width="24" height="24" viewBox="0 0 24 24" fill="none" xmlns="http://www.w3.org/2000/svg">
<path d="M5.80905 13.808H9.49106L7.76905 8.53L5.80905 13.808ZM11.6471 16.874C11.5351 17.0327 11.3717 17.112 11.1571 17.112C10.9424 17.112 10.7744 17.0607 10.6531 16.958C10.5411 16.846 10.4431 16.6547 10.3591 16.384L9.72905 14.522H5.52905L4.87105 16.202C4.74039 16.5193 4.61439 16.7527 4.49305 16.902C4.37172 17.042 4.21772 17.112 4.03105 17.112C3.84439 17.112 3.69505 16.9767 3.58305 16.706C3.76972 16.6313 3.91905 16.4493 4.03105 16.16L7.43305 7.62C7.34905 7.396 7.24639 7.22333 7.12506 7.102C7.32106 6.98067 7.49839 6.92 7.65705 6.92C7.92772 6.92 8.13772 7.144 8.28705 7.592L11.2271 16.3C11.3204 16.5893 11.4604 16.7807 11.6471 16.874ZM14.3816 14.172C14.7456 14.5733 15.1656 14.774 15.6416 14.774C16.1176 14.774 16.5143 14.5827 16.8316 14.2C17.149 13.808 17.3076 13.3367 17.3076 12.786C17.3076 12.0673 17.1116 11.498 16.7196 11.078C16.337 10.6487 15.903 10.434 15.4176 10.434C14.9416 10.434 14.545 10.6253 14.2276 11.008C13.9196 11.3813 13.7656 11.82 13.7656 12.324C13.7656 12.408 13.7703 12.4967 13.7796 12.59C13.8263 13.2433 14.027 13.7707 14.3816 14.172ZM16.8036 17.28H15.1376C13.7283 17.28 13.0236 16.832 13.0236 15.936C13.0236 15.4133 13.327 15.04 13.9336 14.816C13.243 14.284 12.8976 13.57 12.8976 12.674C12.8976 11.778 13.1636 11.0827 13.6956 10.588C14.237 10.084 14.853 9.832 15.5436 9.832C15.9823 9.832 16.407 9.944 16.8176 10.168C16.883 9.75733 17.0556 9.41667 17.3356 9.146C17.625 8.87533 17.919 8.74 18.2176 8.74C18.5256 8.74 18.759 8.80533 18.9176 8.936C19.0856 9.06667 19.1696 9.23467 19.1696 9.44C19.1696 9.636 19.081 9.79467 18.9036 9.916C18.6983 9.75733 18.4743 9.678 18.2316 9.678C17.989 9.678 17.7836 9.75733 17.6156 9.916C17.457 10.0747 17.3496 10.2753 17.2936 10.518C17.891 11.0407 18.1896 11.7313 18.1896 12.59C18.1896 13.4393 17.919 14.116 17.3776 14.62C16.8456 15.1147 16.2343 15.362 15.5436 15.362C15.1983 15.362 14.8763 15.3013 14.5776 15.18C14.1016 15.2733 13.8636 15.488 13.8636 15.824C13.8636 16.244 14.3256 16.454 15.2496 16.454H16.7756C17.457 16.454 17.9796 16.5987 18.3436 16.888C18.717 17.1773 18.9036 17.574 18.9036 18.078C18.9036 18.722 18.5676 19.268 17.8956 19.716C17.233 20.164 16.4443 20.388 15.5296 20.388C14.6243 20.388 13.8823 20.2013 13.3036 19.828C12.7343 19.4547 12.445 19.0067 12.4356 18.484C12.4356 17.9707 12.6596 17.658 13.1076 17.546C13.1636 18.8807 14.041 19.548 15.7396 19.548C16.4863 19.548 17.0696 19.4127 17.4896 19.142C17.919 18.8807 18.1336 18.54 18.1336 18.12C18.1336 17.56 17.6903 17.28 16.8036 17.28Z" fill="#888888"/>
</svg>
