<svg width="24" height="24" viewBox="0 0 24 24" fill="none" xmlns="http://www.w3.org/2000/svg">
<path d="M6.56439 13.752H9.58839L8.17439 9.202L6.56439 13.752ZM11.5624 17.126C11.2824 17.126 11.0584 17.056 10.8904 16.916C10.7224 16.776 10.5731 16.5287 10.4424 16.174L9.95239 14.746H6.20039L5.66839 16.118C5.41639 16.79 5.07106 17.126 4.63239 17.126C4.43639 17.126 4.25906 17.0747 4.10039 16.972C3.94172 16.8693 3.82972 16.7433 3.76439 16.594C3.98839 16.5007 4.18439 16.244 4.35239 15.824L7.51639 7.774C7.40439 7.494 7.26439 7.28867 7.09639 7.158C7.33906 6.89667 7.61906 6.766 7.93639 6.766C8.25372 6.766 8.48706 6.85467 8.63639 7.032C8.79506 7.2 8.94906 7.48933 9.09839 7.9L11.8424 15.754C12.0011 16.202 12.2204 16.5007 12.5004 16.65C12.3231 16.9673 12.0104 17.126 11.5624 17.126ZM15.5796 13.976C15.8783 14.368 16.2236 14.564 16.6156 14.564C17.0076 14.564 17.3156 14.396 17.5396 14.06C17.773 13.724 17.8896 13.2853 17.8896 12.744C17.8896 11.9787 17.7356 11.4047 17.4276 11.022C17.129 10.6393 16.7836 10.448 16.3916 10.448C16.009 10.448 15.701 10.616 15.4676 10.952C15.2436 11.2787 15.1316 11.694 15.1316 12.198C15.1316 12.982 15.281 13.5747 15.5796 13.976ZM18.0296 17.644H16.1116C15.4303 17.644 14.8656 17.5133 14.4176 17.252C13.979 17 13.7596 16.5987 13.7596 16.048C13.7596 15.488 14.0956 15.0587 14.7676 14.76C14.0303 14.228 13.6616 13.5047 13.6616 12.59C13.6616 11.6753 13.9416 10.966 14.5016 10.462C15.071 9.94867 15.743 9.692 16.5176 9.692C17.0683 9.692 17.5723 9.82733 18.0296 10.098C18.0856 9.61267 18.249 9.22533 18.5196 8.936C18.7903 8.63733 19.089 8.488 19.4156 8.488C19.7516 8.488 20.0083 8.57667 20.1856 8.754C20.3723 8.922 20.4656 9.15067 20.4656 9.44C20.4656 9.72933 20.3536 9.93933 20.1296 10.07C19.915 9.91133 19.6863 9.832 19.4436 9.832C19.0143 9.832 18.7343 10.07 18.6036 10.546C19.1076 11.0687 19.3596 11.7407 19.3596 12.562C19.3596 13.374 19.075 14.0367 18.5056 14.55C17.9456 15.054 17.283 15.306 16.5176 15.306C16.163 15.306 15.8176 15.25 15.4816 15.138C15.1363 15.2407 14.9636 15.4227 14.9636 15.684C14.9636 15.8987 15.0616 16.0527 15.2576 16.146C15.463 16.23 15.7896 16.272 16.2376 16.272H17.9316C18.613 16.272 19.131 16.4307 19.4856 16.748C19.8496 17.056 20.0316 17.4807 20.0316 18.022C20.0316 18.7407 19.677 19.338 18.9676 19.814C18.2676 20.2993 17.3996 20.542 16.3636 20.542C15.3276 20.542 14.5343 20.36 13.9836 19.996C13.4423 19.6413 13.1716 19.2213 13.1716 18.736C13.1716 18.4373 13.265 18.1947 13.4516 18.008C13.6383 17.8307 13.867 17.728 14.1376 17.7C14.1843 18.8293 15.001 19.394 16.5876 19.394C17.3343 19.394 17.9083 19.2867 18.3096 19.072C18.7203 18.8667 18.9256 18.5913 18.9256 18.246C18.9256 17.8447 18.627 17.644 18.0296 17.644Z" fill="#888888"/>
</svg>
