<svg width="24" height="24" viewBox="0 0 24 24" fill="none" xmlns="http://www.w3.org/2000/svg">
<path d="M6.37868 13.696H8.56268L7.54068 10.098L6.37868 13.696ZM12.4547 16.356C12.3427 16.5987 12.1513 16.7947 11.8807 16.944C11.6193 17.084 11.3067 17.154 10.9427 17.154C10.5787 17.154 10.28 17.0653 10.0467 16.888C9.81335 16.7013 9.60335 16.3747 9.41668 15.908L9.08068 15.04H5.90268L5.55268 16.02C5.29135 16.776 4.84801 17.154 4.22268 17.154C3.92401 17.154 3.63935 17.0887 3.36868 16.958C3.10735 16.818 2.93468 16.6453 2.85068 16.44C3.00935 16.3747 3.14001 16.2673 3.24268 16.118C3.35468 15.9593 3.47601 15.7167 3.60668 15.39L6.47668 7.984C6.30868 7.62 6.12668 7.368 5.93068 7.228C6.22001 6.78 6.66801 6.556 7.27468 6.556C7.74135 6.556 8.08201 6.682 8.29668 6.934C8.51135 7.186 8.74001 7.63867 8.98268 8.292L11.4887 15.068C11.7313 15.7307 12.0533 16.16 12.4547 16.356ZM16.6993 14.284C17.2033 14.284 17.4553 13.7847 17.4553 12.786C17.4553 12.6553 17.4506 12.5153 17.4413 12.366C17.3666 11.0967 17.054 10.462 16.5033 10.462C15.99 10.462 15.7333 10.9613 15.7333 11.96C15.7333 12.0813 15.738 12.2167 15.7473 12.366C15.822 13.6447 16.1393 14.284 16.6993 14.284ZM18.4353 18.092H16.2093C15.4813 18.092 14.856 17.938 14.3333 17.63C13.8106 17.3313 13.5493 16.86 13.5493 16.216C13.5493 15.572 13.932 15.0587 14.6973 14.676C13.8853 14.144 13.4793 13.374 13.4793 12.366C13.4793 11.5073 13.7826 10.8213 14.3893 10.308C14.996 9.78533 15.7333 9.524 16.6013 9.524C17.2826 9.524 17.894 9.692 18.4353 10.028C18.4726 9.44 18.622 8.98733 18.8833 8.67C19.1446 8.34333 19.4573 8.18 19.8213 8.18C20.1853 8.18 20.47 8.292 20.6753 8.516C20.8806 8.74 20.9833 9.00133 20.9833 9.3C20.9833 9.776 20.834 10.1027 20.5353 10.28C20.3206 10.1213 20.1106 10.042 19.9053 10.042C19.504 10.042 19.2426 10.238 19.1213 10.63C19.5133 11.1153 19.7093 11.694 19.7093 12.366C19.7093 13.2247 19.406 13.9153 18.7993 14.438C18.202 14.9607 17.4693 15.222 16.6013 15.222C16.2466 15.222 15.9013 15.1707 15.5653 15.068C15.3413 15.1613 15.2293 15.3153 15.2293 15.53C15.2293 15.7353 15.3133 15.8753 15.4813 15.95C15.6493 16.0153 15.9386 16.048 16.3493 16.048H18.2673C18.9673 16.048 19.4806 16.216 19.8073 16.552C20.1433 16.888 20.3113 17.35 20.3113 17.938C20.3113 18.7687 19.938 19.4453 19.1913 19.968C18.454 20.4907 17.4786 20.752 16.2653 20.752C15.0613 20.752 14.2073 20.5793 13.7033 20.234C13.2086 19.898 12.9613 19.5013 12.9613 19.044C12.9613 18.6893 13.092 18.4093 13.3533 18.204C13.624 17.9987 13.946 17.896 14.3193 17.896C14.3286 18.3627 14.506 18.694 14.8513 18.89C15.206 19.086 15.7613 19.184 16.5173 19.184C17.2733 19.184 17.8426 19.1093 18.2253 18.96C18.608 18.82 18.7993 18.6333 18.7993 18.4C18.7993 18.1947 18.678 18.092 18.4353 18.092Z" fill="#333333"/>
</svg>
