<svg width="24" height="24" viewBox="0 0 24 24" fill="none" xmlns="http://www.w3.org/2000/svg">
<path d="M10.4719 13.472L9.08588 7.977C9.07188 7.91167 9.05554 7.84633 9.03688 7.781C9.02288 7.711 9.00888 7.63867 8.99488 7.564C8.96221 7.63867 8.92954 7.711 8.89688 7.781C8.86888 7.84633 8.83854 7.91167 8.80588 7.977L6.06888 13.472H10.4719ZM11.7669 17H11.4799C11.4052 17 11.3562 16.9627 11.3329 16.888L10.5419 13.759H5.92888L4.36788 16.888C4.34454 16.9207 4.31654 16.9487 4.28388 16.972C4.25588 16.9907 4.22321 17 4.18588 17H3.90587L8.86188 7.158H9.22588L11.7669 17ZM15.3674 14.137C15.6941 14.137 15.9857 14.0717 16.2424 13.941C16.4991 13.8057 16.7161 13.6307 16.8934 13.416C17.0707 13.1967 17.2061 12.9493 17.2994 12.674C17.3927 12.3987 17.4394 12.121 17.4394 11.841C17.4394 11.575 17.4021 11.344 17.3274 11.148C17.2527 10.952 17.1477 10.791 17.0124 10.665C16.8771 10.5343 16.7137 10.4363 16.5224 10.371C16.3311 10.3057 16.1187 10.273 15.8854 10.273C15.5587 10.273 15.2671 10.336 15.0104 10.462C14.7584 10.588 14.5437 10.756 14.3664 10.966C14.1937 11.176 14.0607 11.4163 13.9674 11.687C13.8787 11.9577 13.8344 12.2353 13.8344 12.52C13.8344 13.0567 13.9721 13.4603 14.2474 13.731C14.5274 14.0017 14.9007 14.137 15.3674 14.137ZM17.2854 17.469C17.2854 17.329 17.2691 17.2007 17.2364 17.084C17.2084 16.9673 17.1687 16.86 17.1174 16.762C17.0661 16.664 17.0077 16.573 16.9424 16.489C16.8771 16.405 16.8094 16.3233 16.7394 16.244C16.0441 16.1507 15.4374 16.1343 14.9194 16.195C14.4014 16.2557 13.9674 16.3723 13.6174 16.545C13.2721 16.713 13.0131 16.9207 12.8404 17.168C12.6677 17.42 12.5791 17.6883 12.5744 17.973C12.5744 18.1923 12.6257 18.386 12.7284 18.554C12.8311 18.7267 12.9734 18.869 13.1554 18.981C13.3374 19.0977 13.5544 19.1863 13.8064 19.247C14.0631 19.3077 14.3454 19.338 14.6534 19.338C15.0501 19.338 15.4094 19.2843 15.7314 19.177C16.0534 19.0697 16.3287 18.9273 16.5574 18.75C16.7861 18.5773 16.9634 18.379 17.0894 18.155C17.2154 17.931 17.2807 17.7023 17.2854 17.469ZM18.8534 10.336L18.8464 10.462C18.8417 10.4853 18.8277 10.5087 18.8044 10.532C18.7857 10.5553 18.7484 10.5717 18.6924 10.581L17.3834 10.623C17.6354 10.931 17.7614 11.3323 17.7614 11.827C17.7567 12.1023 17.7194 12.3497 17.6494 12.569C17.5841 12.7883 17.5001 12.9913 17.3974 13.178C17.2994 13.3647 17.1921 13.5373 17.0754 13.696C16.9587 13.85 16.8491 14.0017 16.7464 14.151C16.6484 14.3003 16.5667 14.4497 16.5014 14.599C16.4361 14.7483 16.4034 14.907 16.4034 15.075C16.3987 15.2057 16.4267 15.3293 16.4874 15.446C16.5481 15.558 16.6227 15.67 16.7114 15.782C16.8047 15.8893 16.9051 16.0013 17.0124 16.118C17.1197 16.23 17.2177 16.3537 17.3064 16.489C17.3997 16.6197 17.4744 16.7643 17.5304 16.923C17.5911 17.077 17.6214 17.252 17.6214 17.448C17.6167 17.728 17.5421 17.9963 17.3974 18.253C17.2527 18.5143 17.0474 18.7453 16.7814 18.946C16.5201 19.1513 16.2051 19.3147 15.8364 19.436C15.4724 19.5573 15.0687 19.618 14.6254 19.618C14.2754 19.618 13.9534 19.583 13.6594 19.513C13.3654 19.443 13.1134 19.338 12.9034 19.198C12.6934 19.0627 12.5301 18.8947 12.4134 18.694C12.2921 18.4933 12.2314 18.2623 12.2314 18.001C12.2361 17.637 12.3457 17.3103 12.5604 17.021C12.7797 16.7363 13.0807 16.503 13.4634 16.321C13.8461 16.139 14.2964 16.0177 14.8144 15.957C15.3324 15.8917 15.8924 15.901 16.4944 15.985C16.3871 15.8637 16.2961 15.7377 16.2214 15.607C16.1514 15.4763 16.1164 15.3223 16.1164 15.145C16.1164 15.061 16.1234 14.977 16.1374 14.893C16.1514 14.809 16.1771 14.7203 16.2144 14.627C16.2564 14.5337 16.3101 14.431 16.3754 14.319C16.4407 14.207 16.5247 14.0833 16.6274 13.948C16.4314 14.0927 16.2214 14.2047 15.9974 14.284C15.7734 14.3587 15.5424 14.396 15.3044 14.396C15.0384 14.396 14.7934 14.354 14.5694 14.27C14.3501 14.186 14.1611 14.0647 14.0024 13.906C13.8437 13.7473 13.7201 13.5513 13.6314 13.318C13.5427 13.0847 13.4984 12.8187 13.4984 12.52C13.4984 12.2027 13.5521 11.8947 13.6594 11.596C13.7667 11.2927 13.9231 11.0243 14.1284 10.791C14.3384 10.553 14.5927 10.3617 14.8914 10.217C15.1901 10.0723 15.5307 10 15.9134 10C16.3847 10 16.7744 10.112 17.0824 10.336H18.8534Z" fill="#888888"/>
</svg>
