<svg width="24" height="24" viewBox="0 0 24 24" fill="none" xmlns="http://www.w3.org/2000/svg">
<path d="M12.638 17H11.588C11.4667 17 11.3687 16.9697 11.294 16.909C11.2193 16.8483 11.1633 16.7713 11.126 16.678L10.188 14.256H5.68699L4.74899 16.678C4.71633 16.762 4.66033 16.8367 4.58099 16.902C4.50166 16.9673 4.40366 17 4.28699 17H3.23699L7.24799 6.969H8.62699L12.638 17ZM6.06499 13.276H9.80999L8.23499 9.195C8.13233 8.943 8.03199 8.628 7.93399 8.25C7.88266 8.44133 7.83133 8.61867 7.77999 8.782C7.73333 8.94067 7.68666 9.08067 7.63999 9.202L6.06499 13.276ZM16.0916 9.79C16.3996 9.79 16.6866 9.825 16.9526 9.895C17.2233 9.96033 17.4683 10.0583 17.6876 10.189H19.6126V10.651C19.6126 10.805 19.5146 10.903 19.3186 10.945L18.5136 11.057C18.6723 11.3603 18.7516 11.6987 18.7516 12.072C18.7516 12.4173 18.684 12.7323 18.5486 13.017C18.418 13.297 18.2336 13.5373 17.9956 13.738C17.7623 13.9387 17.4823 14.0927 17.1556 14.2C16.8336 14.3073 16.479 14.361 16.0916 14.361C15.7603 14.361 15.4476 14.3213 15.1536 14.242C15.0043 14.3353 14.89 14.4357 14.8106 14.543C14.736 14.6503 14.6986 14.7553 14.6986 14.858C14.6986 15.026 14.7663 15.1543 14.9016 15.243C15.037 15.327 15.2166 15.3877 15.4406 15.425C15.6646 15.4623 15.919 15.4857 16.2036 15.495C16.4883 15.5043 16.7776 15.5207 17.0716 15.544C17.3703 15.5627 17.662 15.5977 17.9466 15.649C18.2313 15.7003 18.4856 15.7843 18.7096 15.901C18.9336 16.0177 19.1133 16.1787 19.2486 16.384C19.384 16.5893 19.4516 16.8553 19.4516 17.182C19.4516 17.4853 19.3746 17.7793 19.2206 18.064C19.0713 18.3487 18.8543 18.6007 18.5696 18.82C18.285 19.044 17.9373 19.2213 17.5266 19.352C17.116 19.4873 16.6516 19.555 16.1336 19.555C15.6156 19.555 15.1606 19.5037 14.7686 19.401C14.3813 19.2983 14.0593 19.1607 13.8026 18.988C13.546 18.8153 13.3523 18.6147 13.2216 18.386C13.0956 18.162 13.0326 17.9263 13.0326 17.679C13.0326 17.329 13.1423 17.0327 13.3616 16.79C13.5856 16.5427 13.8913 16.3467 14.2786 16.202C14.078 16.1087 13.917 15.985 13.7956 15.831C13.679 15.6723 13.6206 15.4623 13.6206 15.201C13.6206 15.0983 13.6393 14.9933 13.6766 14.886C13.714 14.774 13.77 14.6643 13.8446 14.557C13.924 14.4497 14.0196 14.347 14.1316 14.249C14.2436 14.151 14.3743 14.0647 14.5236 13.99C14.1736 13.794 13.8983 13.535 13.6976 13.213C13.5016 12.8863 13.4036 12.506 13.4036 12.072C13.4036 11.7267 13.469 11.414 13.5996 11.134C13.735 10.8493 13.9216 10.609 14.1596 10.413C14.3976 10.2123 14.68 10.0583 15.0066 9.951C15.338 9.84367 15.6996 9.79 16.0916 9.79ZM18.3036 17.385C18.3036 17.2077 18.2546 17.0653 18.1566 16.958C18.0586 16.8507 17.9256 16.769 17.7576 16.713C17.5896 16.6523 17.396 16.608 17.1766 16.58C16.9573 16.552 16.7263 16.5333 16.4836 16.524C16.241 16.51 15.9936 16.496 15.7416 16.482C15.4896 16.468 15.2493 16.4423 15.0206 16.405C14.7546 16.531 14.5376 16.685 14.3696 16.867C14.2063 17.049 14.1246 17.266 14.1246 17.518C14.1246 17.6767 14.1643 17.8237 14.2436 17.959C14.3276 18.099 14.4536 18.218 14.6216 18.316C14.7896 18.4187 14.9996 18.498 15.2516 18.554C15.5083 18.6147 15.8093 18.645 16.1546 18.645C16.4906 18.645 16.7916 18.6147 17.0576 18.554C17.3236 18.4933 17.5476 18.407 17.7296 18.295C17.9163 18.183 18.0586 18.05 18.1566 17.896C18.2546 17.742 18.3036 17.5717 18.3036 17.385ZM16.0916 13.535C16.3436 13.535 16.5653 13.5 16.7566 13.43C16.9526 13.36 17.116 13.262 17.2466 13.136C17.3773 13.01 17.4753 12.8607 17.5406 12.688C17.606 12.5107 17.6386 12.317 17.6386 12.107C17.6386 11.673 17.5056 11.3277 17.2396 11.071C16.9783 10.8143 16.5956 10.686 16.0916 10.686C15.5923 10.686 15.2096 10.8143 14.9436 11.071C14.6823 11.3277 14.5516 11.673 14.5516 12.107C14.5516 12.317 14.5843 12.5107 14.6496 12.688C14.7196 12.8607 14.82 13.01 14.9506 13.136C15.0813 13.262 15.2423 13.36 15.4336 13.43C15.625 13.5 15.8443 13.535 16.0916 13.535Z" fill="#333333"/>
</svg>
