<svg width="24" height="24" viewBox="0 0 24 24" fill="none" xmlns="http://www.w3.org/2000/svg">
<path d="M9.26706 13.157L8.66505 9.944C8.63239 9.776 8.59506 9.57767 8.55306 9.349C8.51106 9.12033 8.47139 8.873 8.43405 8.607C8.33139 8.873 8.23105 9.12033 8.13306 9.349C8.03505 9.57767 7.94872 9.77833 7.87406 9.951L6.49505 13.157H9.26706ZM12.0811 17H10.5131C10.3357 17 10.1981 16.958 10.1001 16.874C10.0021 16.79 9.93439 16.6803 9.89705 16.545L9.52606 14.564H5.89305L5.03905 16.545C4.97839 16.6663 4.88505 16.7737 4.75905 16.867C4.63305 16.9557 4.48839 17 4.32505 17H2.72905L7.61506 6.843H9.68706L12.0811 17ZM15.1712 18.204C15.4139 18.204 15.6332 18.1737 15.8292 18.113C16.0299 18.0523 16.2002 17.966 16.3402 17.854C16.4849 17.7467 16.5969 17.616 16.6762 17.462C16.7556 17.3127 16.7952 17.1493 16.7952 16.972C16.7952 16.9207 16.7929 16.874 16.7882 16.832C16.7882 16.7853 16.7859 16.741 16.7812 16.699C16.2632 16.6103 15.8199 16.5707 15.4512 16.58C15.0872 16.5893 14.7886 16.6313 14.5552 16.706C14.3266 16.7807 14.1586 16.8787 14.0512 17C13.9486 17.126 13.8972 17.2613 13.8972 17.406C13.8972 17.6673 13.9976 17.8657 14.1982 18.001C14.4036 18.1363 14.7279 18.204 15.1712 18.204ZM15.7872 13.57C15.9786 13.57 16.1466 13.5233 16.2912 13.43C16.4359 13.3367 16.5572 13.2153 16.6552 13.066C16.7532 12.912 16.8279 12.7393 16.8792 12.548C16.9306 12.3567 16.9586 12.1653 16.9632 11.974C16.9632 11.6473 16.8886 11.3953 16.7392 11.218C16.5946 11.036 16.3776 10.945 16.0882 10.945C15.8969 10.945 15.7289 10.9893 15.5842 11.078C15.4396 11.162 15.3182 11.2763 15.2202 11.421C15.1222 11.5657 15.0476 11.7337 14.9962 11.925C14.9496 12.1117 14.9262 12.3053 14.9262 12.506C14.9262 12.842 14.9986 13.1033 15.1432 13.29C15.2926 13.4767 15.5072 13.57 15.7872 13.57ZM19.8052 10.042L19.7212 10.658C19.6886 10.9007 19.5649 11.064 19.3502 11.148L18.6712 11.351C18.7086 11.5283 18.7272 11.7127 18.7272 11.904C18.7272 12.212 18.6829 12.478 18.5942 12.702C18.5056 12.9213 18.4052 13.1267 18.2932 13.318C18.1859 13.5093 18.0879 13.7053 17.9992 13.906C17.9106 14.102 17.8662 14.333 17.8662 14.599C17.8662 14.7903 17.9012 14.9677 17.9712 15.131C18.0459 15.2897 18.1252 15.453 18.2092 15.621C18.2932 15.789 18.3702 15.9687 18.4402 16.16C18.5149 16.3513 18.5522 16.5707 18.5522 16.818C18.5476 17.182 18.4636 17.525 18.3002 17.847C18.1416 18.1737 17.9106 18.4583 17.6072 18.701C17.3086 18.9483 16.9399 19.142 16.5012 19.282C16.0626 19.4267 15.5656 19.499 15.0102 19.499C14.5576 19.499 14.1492 19.4523 13.7852 19.359C13.4212 19.2657 13.1109 19.135 12.8542 18.967C12.6022 18.8037 12.4086 18.6077 12.2732 18.379C12.1379 18.155 12.0702 17.91 12.0702 17.644C12.0702 17.3033 12.1449 17.0117 12.2942 16.769C12.4389 16.5217 12.6302 16.3163 12.8682 16.153C13.1109 15.985 13.3886 15.8543 13.7012 15.761C14.0139 15.663 14.3336 15.5953 14.6602 15.558C14.9916 15.5207 15.3182 15.509 15.6402 15.523C15.9622 15.5323 16.2562 15.5603 16.5222 15.607C16.4942 15.481 16.4802 15.3457 16.4802 15.201C16.4802 14.9397 16.5502 14.648 16.6902 14.326C16.5129 14.4473 16.3076 14.543 16.0742 14.613C15.8456 14.6783 15.5656 14.711 15.2342 14.711C14.9589 14.711 14.6976 14.6667 14.4502 14.578C14.2029 14.4847 13.9836 14.347 13.7922 14.165C13.6009 13.983 13.4492 13.7543 13.3372 13.479C13.2252 13.199 13.1692 12.8723 13.1692 12.499C13.1692 12.1443 13.2346 11.799 13.3652 11.463C13.5006 11.1223 13.6989 10.819 13.9602 10.553C14.2262 10.287 14.5552 10.0747 14.9472 9.916C15.3392 9.75267 15.7919 9.671 16.3052 9.671C16.5759 9.671 16.8326 9.70133 17.0752 9.762C17.3226 9.82267 17.5512 9.916 17.7612 10.042H19.8052Z" fill="#333333"/>
</svg>
