<svg width="24" height="24" viewBox="0 0 24 24" fill="none" xmlns="http://www.w3.org/2000/svg">
<path d="M6.62209 6.76H9.01609L12.7541 16H10.1571L9.52709 14.285H6.11809L5.48809 16H2.87709L6.62209 6.76ZM6.93009 12.164H8.71509L7.83309 9.686H7.81209L6.93009 12.164ZM16.5358 19.08C16.1532 19.08 15.7588 19.0473 15.3528 18.982C14.9468 18.9213 14.5595 18.807 14.1908 18.639C13.8268 18.471 13.5142 18.2283 13.2528 17.911L14.6738 16.406C14.7905 16.5367 14.9282 16.658 15.0868 16.77C15.2455 16.8867 15.4345 16.98 15.6538 17.05C15.8732 17.1247 16.1298 17.162 16.4238 17.162C16.6898 17.162 16.9278 17.1223 17.1378 17.043C17.3478 16.9637 17.5112 16.8377 17.6278 16.665C17.7492 16.497 17.8098 16.28 17.8098 16.014V15.888H20.2458V16.154C20.2458 16.798 20.0802 17.337 19.7488 17.771C19.4222 18.205 18.9788 18.5317 18.4188 18.751C17.8588 18.9703 17.2312 19.08 16.5358 19.08ZM17.8098 16V15.139C17.7632 15.2277 17.6582 15.356 17.4948 15.524C17.3315 15.6873 17.1145 15.8367 16.8438 15.972C16.5778 16.1027 16.2652 16.168 15.9058 16.168C15.3365 16.168 14.8442 16.028 14.4288 15.748C14.0135 15.468 13.6915 15.097 13.4628 14.635C13.2388 14.173 13.1268 13.6713 13.1268 13.13C13.1268 12.5887 13.2388 12.087 13.4628 11.625C13.6915 11.163 14.0135 10.792 14.4288 10.512C14.8442 10.2273 15.3365 10.085 15.9058 10.085C16.2465 10.085 16.5428 10.1363 16.7948 10.239C17.0515 10.3417 17.2615 10.463 17.4248 10.603C17.5928 10.743 17.7118 10.876 17.7818 11.002V10.253H20.2458V16H17.8098ZM15.5558 13.13C15.5558 13.3353 15.6048 13.5243 15.7028 13.697C15.8008 13.865 15.9338 13.998 16.1018 14.096C16.2698 14.194 16.4612 14.243 16.6758 14.243C16.8905 14.243 17.0795 14.194 17.2428 14.096C17.4108 13.998 17.5415 13.865 17.6348 13.697C17.7328 13.5243 17.7818 13.3353 17.7818 13.13C17.7818 12.9247 17.7328 12.738 17.6348 12.57C17.5415 12.3973 17.4108 12.262 17.2428 12.164C17.0795 12.0613 16.8905 12.01 16.6758 12.01C16.4612 12.01 16.2698 12.0613 16.1018 12.164C15.9338 12.262 15.8008 12.3973 15.7028 12.57C15.6048 12.738 15.5558 12.9247 15.5558 13.13Z" fill="#888888"/>
</svg>
