<svg width="24" height="24" viewBox="0 0 24 24" fill="none" xmlns="http://www.w3.org/2000/svg">
<path d="M17.0905 7.06771C17.1148 7.08594 17.127 7.11328 17.127 7.14974C17.127 7.19227 17.1026 7.21354 17.054 7.21354C17.0297 7.21354 17.0115 7.20747 16.9993 7.19531C16.7928 7.05556 16.577 6.95226 16.3522 6.88542C16.1335 6.81858 15.9178 6.77908 15.7051 6.76693C15.6625 6.79731 15.5532 6.8763 15.377 7.00391C15.2007 7.13151 14.985 7.3138 14.7298 7.55078C14.4746 7.78776 14.1981 8.08247 13.9004 8.4349C13.6026 8.78125 13.311 9.18837 13.0254 9.65625C12.7398 10.1241 12.4724 10.6528 12.2233 11.2422C11.9803 11.8316 11.7888 12.4878 11.6491 13.2109C11.8982 13.1502 12.1139 13.0833 12.2962 13.0104C12.4846 12.9314 12.6395 12.8615 12.7611 12.8008C12.8826 12.7339 12.9737 12.6793 13.0345 12.6367C13.1013 12.5881 13.1378 12.5608 13.1439 12.5547C13.1682 12.5425 13.1864 12.5365 13.1986 12.5365C13.2168 12.5365 13.235 12.5425 13.2533 12.5547C13.2715 12.5668 13.2806 12.5851 13.2806 12.6094C13.2806 12.6337 13.2684 12.658 13.2441 12.6823C13.2441 12.6823 13.2107 12.7096 13.1439 12.7643C13.077 12.8129 12.9737 12.8737 12.834 12.9466C12.7003 13.0135 12.5302 13.0894 12.3236 13.1745C12.123 13.2535 11.8861 13.3234 11.6126 13.3841C11.5458 13.7912 11.4972 14.2075 11.4668 14.6328C11.4364 15.0582 11.4212 15.5139 11.4212 16H11.2572C11.2572 15.6172 11.2207 15.2161 11.1478 14.7969C11.0749 14.3776 10.9533 13.9553 10.7832 13.5299C10.6495 13.5421 10.5189 13.5512 10.3913 13.5573C10.2637 13.5634 10.13 13.5664 9.99023 13.5664C9.55881 13.5664 9.18207 13.5451 8.86003 13.5026C8.53798 13.454 8.2615 13.3963 8.0306 13.3294C7.78147 13.7365 7.53537 14.1285 7.29232 14.5052C7.04926 14.8759 6.79405 15.204 6.52669 15.4896C6.26541 15.7752 5.98589 16.003 5.68815 16.1732C5.39041 16.3433 5.06228 16.4284 4.70378 16.4284C4.4668 16.4284 4.26628 16.3889 4.10221 16.3099C3.93815 16.2309 3.80143 16.1306 3.69206 16.0091C3.58268 15.8876 3.49761 15.7569 3.43685 15.6172C3.37609 15.4714 3.33051 15.3377 3.30013 15.2161C3.26975 15.0885 3.25152 14.9792 3.24544 14.888C3.23937 14.7969 3.23633 14.7452 3.23633 14.7331C3.23633 14.6723 3.26367 14.6419 3.31836 14.6419C3.37305 14.6419 3.40039 14.6693 3.40039 14.724C3.40039 14.8455 3.41862 14.9944 3.45508 15.1706C3.49761 15.3407 3.56749 15.5078 3.66471 15.6719C3.76801 15.8359 3.90473 15.9757 4.07487 16.0911C4.24501 16.2066 4.45768 16.2643 4.71289 16.2643C5.04102 16.2643 5.3418 16.1823 5.61523 16.0182C5.89475 15.8602 6.15907 15.6445 6.4082 15.3711C6.65734 15.0977 6.90039 14.7817 7.13737 14.4232C7.37435 14.0586 7.62044 13.6758 7.87565 13.2747C7.57791 13.1532 7.36523 13.0135 7.23763 12.8555C7.11003 12.6975 7.04622 12.5304 7.04622 12.3542C7.04622 12.1901 7.07964 12.0503 7.14648 11.9349C7.2194 11.8134 7.31359 11.7161 7.42904 11.6432C7.55056 11.5703 7.68728 11.5187 7.83919 11.4883C7.9911 11.4518 8.14909 11.4336 8.31315 11.4336C8.4286 11.4336 8.54405 11.4397 8.65951 11.4518C8.78103 11.464 8.90256 11.4883 9.02409 11.5247C9.05447 11.4761 9.08789 11.4275 9.12435 11.3789C9.16081 11.3242 9.19727 11.2726 9.23372 11.224C9.71984 10.5677 10.2029 9.95703 10.6829 9.39193C11.1691 8.82682 11.6673 8.34071 12.1777 7.93359C12.6882 7.5204 13.2168 7.19835 13.7637 6.96745C14.3166 6.73047 14.903 6.61198 15.5228 6.61198C15.7719 6.61198 16.0302 6.64236 16.2975 6.70312C16.571 6.76389 16.8353 6.88542 17.0905 7.06771ZM7.21029 12.3542C7.21029 12.4575 7.23155 12.5486 7.27409 12.6276C7.3227 12.7066 7.38346 12.7795 7.45638 12.8464C7.5293 12.9071 7.60829 12.9618 7.69336 13.0104C7.78451 13.053 7.87565 13.0924 7.9668 13.1289C8.11871 12.8919 8.27062 12.6519 8.42253 12.4089C8.58051 12.1597 8.74761 11.9106 8.92383 11.6615C8.72938 11.6128 8.52582 11.5885 8.31315 11.5885C8.1977 11.5885 8.07617 11.6007 7.94857 11.625C7.82096 11.6432 7.70247 11.6797 7.5931 11.7344C7.48372 11.7891 7.39258 11.8681 7.31966 11.9714C7.24675 12.0686 7.21029 12.1962 7.21029 12.3542ZM9.66211 13.4023C9.83225 13.4023 10.0024 13.4023 10.1725 13.4023C10.3427 13.3963 10.525 13.3841 10.7194 13.3659C10.5553 13.0013 10.3427 12.6701 10.0814 12.3724C9.8201 12.0686 9.48893 11.8498 9.08789 11.7161C8.91168 11.9592 8.74457 12.2053 8.58659 12.4544C8.43468 12.6975 8.27973 12.9405 8.12174 13.1836C8.31011 13.2383 8.52886 13.2869 8.77799 13.3294C9.02713 13.3659 9.32183 13.3902 9.66211 13.4023ZM11.2845 14.7148C11.2967 14.4839 11.3149 14.2622 11.3392 14.0495C11.3696 13.8368 11.403 13.6302 11.4395 13.4297C11.2815 13.4601 11.1174 13.4874 10.9473 13.5117C11.0323 13.7062 11.1022 13.9097 11.1569 14.1224C11.2116 14.329 11.2541 14.5265 11.2845 14.7148ZM13.4355 8.75391C13.6361 8.48047 13.8366 8.23741 14.0371 8.02474C14.2376 7.80599 14.423 7.61458 14.5931 7.45052C14.7693 7.28646 14.9273 7.14974 15.0671 7.04036C15.2129 6.92491 15.3314 6.83377 15.4225 6.76693C14.8392 6.79123 14.2832 6.92187 13.7546 7.15885C13.232 7.38976 12.7246 7.70573 12.2324 8.10677C11.7463 8.50174 11.2663 8.97266 10.7923 9.51953C10.3244 10.0664 9.85048 10.668 9.37044 11.3242C9.34006 11.3668 9.30968 11.4093 9.2793 11.4518C9.24892 11.4883 9.21853 11.5278 9.18815 11.5703C9.6135 11.7283 9.96289 11.9683 10.2363 12.2904C10.5098 12.6124 10.7255 12.9648 10.8835 13.3477C10.9868 13.3355 11.087 13.3234 11.1842 13.3112C11.2875 13.293 11.3848 13.2747 11.4759 13.2565C11.5671 12.7643 11.6825 12.3056 11.8223 11.8802C11.962 11.4488 12.117 11.0477 12.2871 10.6771C12.4633 10.3003 12.6487 9.95399 12.8431 9.63802C13.0375 9.31597 13.235 9.02127 13.4355 8.75391ZM21.0508 14.0404C21.0629 14.0647 21.069 14.0799 21.069 14.0859C21.069 14.1102 21.0569 14.1345 21.0326 14.1589C21.0265 14.1589 20.9444 14.2196 20.7865 14.3411C20.6285 14.4627 20.4158 14.6146 20.1484 14.7969C19.8811 14.9731 19.5681 15.1615 19.2096 15.362C18.8572 15.5564 18.4805 15.7266 18.0794 15.8724C17.8911 15.9392 17.6997 16.0182 17.5052 16.1094C17.3168 16.2005 17.1315 16.2917 16.9492 16.3828C16.615 16.8568 16.2717 17.3216 15.9193 17.7773C15.5729 18.2391 15.2326 18.6675 14.8984 19.0625C14.5642 19.4635 14.2483 19.822 13.9505 20.138C13.6528 20.454 13.3915 20.7092 13.1667 20.9036C13.1606 20.9097 13.1211 20.9401 13.0482 20.9948C12.9753 21.0556 12.8841 21.1194 12.7747 21.1862C12.6654 21.253 12.5438 21.3138 12.4102 21.3685C12.2765 21.4232 12.1458 21.4505 12.0182 21.4505C11.9453 21.4505 11.8754 21.4384 11.8086 21.4141C11.7357 21.3958 11.6688 21.3624 11.6081 21.3138C11.5473 21.2713 11.4987 21.2135 11.4622 21.1406C11.4258 21.0738 11.4076 20.9948 11.4076 20.9036C11.4076 20.7092 11.4896 20.4874 11.6536 20.2383C11.8116 19.9891 12.0273 19.7279 12.3008 19.4544C12.5681 19.181 12.8841 18.8984 13.2487 18.6068C13.6072 18.3212 13.987 18.0386 14.388 17.7591C14.7891 17.4796 15.1992 17.2122 15.6185 16.957C16.0438 16.7018 16.451 16.4709 16.8398 16.2643C16.9918 16.0395 17.1406 15.8238 17.2865 15.6172C17.4384 15.4106 17.6055 15.204 17.7878 14.9974C17.2773 15.3802 16.8216 15.6749 16.4206 15.8815C16.0256 16.0881 15.6458 16.1914 15.2812 16.1914C15.0868 16.1914 14.8984 16.158 14.7161 16.0911C14.5399 16.0304 14.385 15.9423 14.2513 15.8268C14.1176 15.7053 14.0113 15.5625 13.9323 15.3984C13.8533 15.2344 13.8138 15.049 13.8138 14.8424C13.8138 14.2287 14.2422 13.5573 15.099 12.8281C15.7066 12.3116 16.299 11.9227 16.8763 11.6615C17.4536 11.4002 18.0065 11.2695 18.5352 11.2695C18.6749 11.2695 18.8299 11.2817 19 11.306C19.1762 11.3303 19.3403 11.3789 19.4922 11.4518C19.6502 11.5247 19.7808 11.628 19.8841 11.7617C19.9935 11.8893 20.0482 12.0564 20.0482 12.263C20.0482 12.6398 19.8294 13.0742 19.3919 13.5664C19.6107 13.4206 19.8294 13.2778 20.0482 13.138C20.273 12.9922 20.51 12.8585 20.7591 12.737C20.7652 12.737 20.7682 12.737 20.7682 12.737C20.7743 12.7309 20.7834 12.7279 20.7956 12.7279C20.8138 12.7279 20.832 12.737 20.8503 12.7552C20.8685 12.7674 20.8776 12.7856 20.8776 12.8099C20.8776 12.8464 20.8624 12.8737 20.832 12.8919C20.8442 12.8919 20.7925 12.9193 20.6771 12.974C20.5677 13.0226 20.4158 13.1016 20.2214 13.2109C20.033 13.3142 19.8112 13.451 19.556 13.6211C19.3008 13.7912 19.0334 13.9978 18.7539 14.2409C18.4805 14.4779 18.204 14.7513 17.9245 15.0612C17.651 15.365 17.3928 15.7114 17.1497 16.1003C17.2956 16.0334 17.4414 15.9696 17.5872 15.9089C17.7331 15.842 17.8759 15.7812 18.0156 15.7266C18.2526 15.6415 18.4896 15.5412 18.7266 15.4258C18.9635 15.3043 19.1884 15.1827 19.401 15.0612C19.6198 14.9336 19.8203 14.809 20.0026 14.6875C20.191 14.566 20.352 14.4566 20.4857 14.3594C20.6254 14.2622 20.7348 14.1832 20.8138 14.1224C20.8928 14.0616 20.9323 14.0312 20.9323 14.0312C20.9566 14.0191 20.9748 14.013 20.987 14.013C21.0113 14.013 21.0326 14.0221 21.0508 14.0404ZM15.2812 16.0273C15.5365 16.0273 15.7977 15.9757 16.0651 15.8724C16.3385 15.763 16.6059 15.6233 16.8672 15.4531C17.1345 15.283 17.3958 15.0977 17.651 14.8971C17.9063 14.6966 18.1493 14.4991 18.3802 14.3047C18.678 14.0556 18.924 13.8277 19.1185 13.6211C19.3129 13.4084 19.4679 13.2201 19.5833 13.056C19.6988 12.8859 19.7778 12.737 19.8203 12.6094C19.8628 12.4757 19.8841 12.3602 19.8841 12.263C19.8841 12.0929 19.8385 11.9562 19.7474 11.8529C19.6563 11.7435 19.5408 11.6584 19.401 11.5977C19.2674 11.5369 19.1215 11.4944 18.9635 11.4701C18.8116 11.4457 18.6688 11.4336 18.5352 11.4336C18.0247 11.4336 17.49 11.5642 16.931 11.8255C16.372 12.0807 15.7977 12.4544 15.2083 12.9466C14.8073 13.293 14.5004 13.6272 14.2878 13.9492C14.0812 14.2652 13.9779 14.5599 13.9779 14.8333C13.9779 15.0156 14.0113 15.1797 14.0781 15.3255C14.145 15.4714 14.2361 15.5959 14.3516 15.6992C14.4731 15.8025 14.6128 15.8845 14.7708 15.9453C14.9288 16 15.099 16.0273 15.2812 16.0273ZM13.0573 20.7852C13.2821 20.5907 13.5343 20.3477 13.8138 20.056C14.0872 19.7643 14.3759 19.4362 14.6797 19.0716C14.9896 18.707 15.3086 18.3121 15.6367 17.8867C15.9648 17.4614 16.293 17.0178 16.6211 16.556C16.2808 16.7444 15.9193 16.9601 15.5365 17.2031C15.1536 17.4462 14.7739 17.7014 14.3971 17.9688C14.0265 18.2361 13.671 18.5095 13.3307 18.7891C12.9844 19.0747 12.6836 19.3451 12.4284 19.6003C12.1671 19.8615 11.9605 20.1016 11.8086 20.3203C11.6506 20.5451 11.5716 20.7365 11.5716 20.8945C11.5716 20.9674 11.5868 21.0282 11.6172 21.0768C11.6476 21.1315 11.684 21.174 11.7266 21.2044C11.7691 21.2348 11.8177 21.2561 11.8724 21.2682C11.921 21.2865 11.9666 21.2956 12.0091 21.2956C12.1185 21.2956 12.2339 21.2713 12.3555 21.2227C12.4709 21.174 12.5803 21.1194 12.6836 21.0586C12.7808 20.9978 12.8659 20.9401 12.9388 20.8854C13.0056 20.8307 13.0451 20.7973 13.0573 20.7852Z" fill="#888888"/>
</svg>
