<svg width="24" height="24" viewBox="0 0 24 24" fill="none" xmlns="http://www.w3.org/2000/svg">
<path d="M17.0905 5.06771C17.1148 5.08594 17.127 5.11328 17.127 5.14974C17.127 5.19227 17.1026 5.21354 17.054 5.21354C17.0297 5.21354 17.0115 5.20747 16.9993 5.19531C16.7928 5.05556 16.577 4.95226 16.3522 4.88542C16.1335 4.81858 15.9178 4.77908 15.7051 4.76693C15.6625 4.79731 15.5532 4.8763 15.377 5.00391C15.2007 5.13151 14.985 5.3138 14.7298 5.55078C14.4746 5.78776 14.1981 6.08247 13.9004 6.4349C13.6026 6.78125 13.311 7.18837 13.0254 7.65625C12.7398 8.12413 12.4724 8.65278 12.2233 9.24219C11.9803 9.8316 11.7888 10.4878 11.6491 11.2109C11.8982 11.1502 12.1139 11.0833 12.2962 11.0104C12.4846 10.9314 12.6395 10.8615 12.7611 10.8008C12.8826 10.7339 12.9737 10.6793 13.0345 10.6367C13.1013 10.5881 13.1378 10.5608 13.1439 10.5547C13.1682 10.5425 13.1864 10.5365 13.1986 10.5365C13.2168 10.5365 13.235 10.5425 13.2533 10.5547C13.2715 10.5668 13.2806 10.5851 13.2806 10.6094C13.2806 10.6337 13.2684 10.658 13.2441 10.6823C13.2441 10.6823 13.2107 10.7096 13.1439 10.7643C13.077 10.8129 12.9737 10.8737 12.834 10.9466C12.7003 11.0135 12.5302 11.0894 12.3236 11.1745C12.123 11.2535 11.8861 11.3234 11.6126 11.3841C11.5458 11.7912 11.4972 12.2075 11.4668 12.6328C11.4364 13.0582 11.4212 13.5139 11.4212 14H11.2572C11.2572 13.6172 11.2207 13.2161 11.1478 12.7969C11.0749 12.3776 10.9533 11.9553 10.7832 11.5299C10.6495 11.5421 10.5189 11.5512 10.3913 11.5573C10.2637 11.5634 10.13 11.5664 9.99023 11.5664C9.55881 11.5664 9.18207 11.5451 8.86003 11.5026C8.53798 11.454 8.2615 11.3963 8.0306 11.3294C7.78147 11.7365 7.53537 12.1285 7.29232 12.5052C7.04926 12.8759 6.79405 13.204 6.52669 13.4896C6.26541 13.7752 5.98589 14.003 5.68815 14.1732C5.39041 14.3433 5.06228 14.4284 4.70378 14.4284C4.4668 14.4284 4.26628 14.3889 4.10221 14.3099C3.93815 14.2309 3.80143 14.1306 3.69206 14.0091C3.58268 13.8876 3.49761 13.7569 3.43685 13.6172C3.37609 13.4714 3.33051 13.3377 3.30013 13.2161C3.26975 13.0885 3.25152 12.9792 3.24544 12.888C3.23937 12.7969 3.23633 12.7452 3.23633 12.7331C3.23633 12.6723 3.26367 12.6419 3.31836 12.6419C3.37305 12.6419 3.40039 12.6693 3.40039 12.724C3.40039 12.8455 3.41862 12.9944 3.45508 13.1706C3.49761 13.3407 3.56749 13.5078 3.66471 13.6719C3.76801 13.8359 3.90473 13.9757 4.07487 14.0911C4.24501 14.2066 4.45768 14.2643 4.71289 14.2643C5.04102 14.2643 5.3418 14.1823 5.61523 14.0182C5.89475 13.8602 6.15907 13.6445 6.4082 13.3711C6.65734 13.0977 6.90039 12.7817 7.13737 12.4232C7.37435 12.0586 7.62044 11.6758 7.87565 11.2747C7.57791 11.1532 7.36523 11.0135 7.23763 10.8555C7.11003 10.6975 7.04622 10.5304 7.04622 10.3542C7.04622 10.1901 7.07964 10.0503 7.14648 9.9349C7.2194 9.81337 7.31359 9.71615 7.42904 9.64323C7.55056 9.57031 7.68728 9.51866 7.83919 9.48828C7.9911 9.45182 8.14909 9.43359 8.31315 9.43359C8.4286 9.43359 8.54405 9.43967 8.65951 9.45182C8.78103 9.46398 8.90256 9.48828 9.02409 9.52474C9.05447 9.47613 9.08789 9.42752 9.12435 9.37891C9.16081 9.32422 9.19727 9.27257 9.23372 9.22396C9.71984 8.56771 10.2029 7.95703 10.6829 7.39193C11.1691 6.82682 11.6673 6.34071 12.1777 5.93359C12.6882 5.5204 13.2168 5.19835 13.7637 4.96745C14.3166 4.73047 14.903 4.61198 15.5228 4.61198C15.7719 4.61198 16.0302 4.64236 16.2975 4.70312C16.571 4.76389 16.8353 4.88542 17.0905 5.06771ZM7.21029 10.3542C7.21029 10.4575 7.23155 10.5486 7.27409 10.6276C7.3227 10.7066 7.38346 10.7795 7.45638 10.8464C7.5293 10.9071 7.60829 10.9618 7.69336 11.0104C7.78451 11.053 7.87565 11.0924 7.9668 11.1289C8.11871 10.8919 8.27062 10.6519 8.42253 10.4089C8.58051 10.1597 8.74761 9.91059 8.92383 9.66146C8.72938 9.61285 8.52582 9.58854 8.31315 9.58854C8.1977 9.58854 8.07617 9.60069 7.94857 9.625C7.82096 9.64323 7.70247 9.67969 7.5931 9.73438C7.48372 9.78906 7.39258 9.86806 7.31966 9.97135C7.24675 10.0686 7.21029 10.1962 7.21029 10.3542ZM9.66211 11.4023C9.83225 11.4023 10.0024 11.4023 10.1725 11.4023C10.3427 11.3963 10.525 11.3841 10.7194 11.3659C10.5553 11.0013 10.3427 10.6701 10.0814 10.3724C9.8201 10.0686 9.48893 9.84983 9.08789 9.71615C8.91168 9.9592 8.74457 10.2053 8.58659 10.4544C8.43468 10.6975 8.27973 10.9405 8.12174 11.1836C8.31011 11.2383 8.52886 11.2869 8.77799 11.3294C9.02713 11.3659 9.32183 11.3902 9.66211 11.4023ZM11.2845 12.7148C11.2967 12.4839 11.3149 12.2622 11.3392 12.0495C11.3696 11.8368 11.403 11.6302 11.4395 11.4297C11.2815 11.4601 11.1174 11.4874 10.9473 11.5117C11.0323 11.7062 11.1022 11.9097 11.1569 12.1224C11.2116 12.329 11.2541 12.5265 11.2845 12.7148ZM13.4355 6.75391C13.6361 6.48047 13.8366 6.23741 14.0371 6.02474C14.2376 5.80599 14.423 5.61458 14.5931 5.45052C14.7693 5.28646 14.9273 5.14974 15.0671 5.04036C15.2129 4.92491 15.3314 4.83377 15.4225 4.76693C14.8392 4.79123 14.2832 4.92187 13.7546 5.15885C13.232 5.38976 12.7246 5.70573 12.2324 6.10677C11.7463 6.50174 11.2663 6.97266 10.7923 7.51953C10.3244 8.06641 9.85048 8.66797 9.37044 9.32422C9.34006 9.36675 9.30968 9.40929 9.2793 9.45182C9.24892 9.48828 9.21853 9.52778 9.18815 9.57031C9.6135 9.7283 9.96289 9.96832 10.2363 10.2904C10.5098 10.6124 10.7255 10.9648 10.8835 11.3477C10.9868 11.3355 11.087 11.3234 11.1842 11.3112C11.2875 11.293 11.3848 11.2747 11.4759 11.2565C11.5671 10.7643 11.6825 10.3056 11.8223 9.88021C11.962 9.44878 12.117 9.04774 12.2871 8.67708C12.4633 8.30035 12.6487 7.95399 12.8431 7.63802C13.0375 7.31597 13.235 7.02127 13.4355 6.75391ZM21.0508 12.0404C21.0629 12.0647 21.069 12.0799 21.069 12.0859C21.069 12.1102 21.0569 12.1345 21.0326 12.1589C21.0265 12.1589 20.9444 12.2196 20.7865 12.3411C20.6285 12.4627 20.4158 12.6146 20.1484 12.7969C19.8811 12.9731 19.5681 13.1615 19.2096 13.362C18.8572 13.5564 18.4805 13.7266 18.0794 13.8724C17.8911 13.9392 17.6997 14.0182 17.5052 14.1094C17.3168 14.2005 17.1315 14.2917 16.9492 14.3828C16.615 14.8568 16.2717 15.3216 15.9193 15.7773C15.5729 16.2391 15.2326 16.6675 14.8984 17.0625C14.5642 17.4635 14.2483 17.822 13.9505 18.138C13.6528 18.454 13.3915 18.7092 13.1667 18.9036C13.1606 18.9097 13.1211 18.9401 13.0482 18.9948C12.9753 19.0556 12.8841 19.1194 12.7747 19.1862C12.6654 19.253 12.5438 19.3138 12.4102 19.3685C12.2765 19.4232 12.1458 19.4505 12.0182 19.4505C11.9453 19.4505 11.8754 19.4384 11.8086 19.4141C11.7357 19.3958 11.6688 19.3624 11.6081 19.3138C11.5473 19.2713 11.4987 19.2135 11.4622 19.1406C11.4258 19.0738 11.4076 18.9948 11.4076 18.9036C11.4076 18.7092 11.4896 18.4874 11.6536 18.2383C11.8116 17.9891 12.0273 17.7279 12.3008 17.4544C12.5681 17.181 12.8841 16.8984 13.2487 16.6068C13.6072 16.3212 13.987 16.0386 14.388 15.7591C14.7891 15.4796 15.1992 15.2122 15.6185 14.957C16.0438 14.7018 16.451 14.4709 16.8398 14.2643C16.9918 14.0395 17.1406 13.8238 17.2865 13.6172C17.4384 13.4106 17.6055 13.204 17.7878 12.9974C17.2773 13.3802 16.8216 13.6749 16.4206 13.8815C16.0256 14.0881 15.6458 14.1914 15.2812 14.1914C15.0868 14.1914 14.8984 14.158 14.7161 14.0911C14.5399 14.0304 14.385 13.9423 14.2513 13.8268C14.1176 13.7053 14.0113 13.5625 13.9323 13.3984C13.8533 13.2344 13.8138 13.049 13.8138 12.8424C13.8138 12.2287 14.2422 11.5573 15.099 10.8281C15.7066 10.3116 16.299 9.92274 16.8763 9.66146C17.4536 9.40017 18.0065 9.26953 18.5352 9.26953C18.6749 9.26953 18.8299 9.28168 19 9.30599C19.1762 9.33029 19.3403 9.37891 19.4922 9.45182C19.6502 9.52474 19.7808 9.62804 19.8841 9.76172C19.9935 9.88932 20.0482 10.0564 20.0482 10.263C20.0482 10.6398 19.8294 11.0742 19.3919 11.5664C19.6107 11.4206 19.8294 11.2778 20.0482 11.138C20.273 10.9922 20.51 10.8585 20.7591 10.737C20.7652 10.737 20.7682 10.737 20.7682 10.737C20.7743 10.7309 20.7834 10.7279 20.7956 10.7279C20.8138 10.7279 20.832 10.737 20.8503 10.7552C20.8685 10.7674 20.8776 10.7856 20.8776 10.8099C20.8776 10.8464 20.8624 10.8737 20.832 10.8919C20.8442 10.8919 20.7925 10.9193 20.6771 10.974C20.5677 11.0226 20.4158 11.1016 20.2214 11.2109C20.033 11.3142 19.8112 11.451 19.556 11.6211C19.3008 11.7912 19.0334 11.9978 18.7539 12.2409C18.4805 12.4779 18.204 12.7513 17.9245 13.0612C17.651 13.365 17.3928 13.7114 17.1497 14.1003C17.2956 14.0334 17.4414 13.9696 17.5872 13.9089C17.7331 13.842 17.8759 13.7812 18.0156 13.7266C18.2526 13.6415 18.4896 13.5412 18.7266 13.4258C18.9635 13.3043 19.1884 13.1827 19.401 13.0612C19.6198 12.9336 19.8203 12.809 20.0026 12.6875C20.191 12.566 20.352 12.4566 20.4857 12.3594C20.6254 12.2622 20.7348 12.1832 20.8138 12.1224C20.8928 12.0616 20.9323 12.0312 20.9323 12.0312C20.9566 12.0191 20.9748 12.013 20.987 12.013C21.0113 12.013 21.0326 12.0221 21.0508 12.0404ZM15.2812 14.0273C15.5365 14.0273 15.7977 13.9757 16.0651 13.8724C16.3385 13.763 16.6059 13.6233 16.8672 13.4531C17.1345 13.283 17.3958 13.0977 17.651 12.8971C17.9063 12.6966 18.1493 12.4991 18.3802 12.3047C18.678 12.0556 18.924 11.8277 19.1185 11.6211C19.3129 11.4084 19.4679 11.2201 19.5833 11.056C19.6988 10.8859 19.7778 10.737 19.8203 10.6094C19.8628 10.4757 19.8841 10.3602 19.8841 10.263C19.8841 10.0929 19.8385 9.95616 19.7474 9.85286C19.6563 9.74349 19.5408 9.65842 19.401 9.59766C19.2674 9.53689 19.1215 9.49436 18.9635 9.47005C18.8116 9.44575 18.6688 9.43359 18.5352 9.43359C18.0247 9.43359 17.49 9.56424 16.931 9.82552C16.372 10.0807 15.7977 10.4544 15.2083 10.9466C14.8073 11.293 14.5004 11.6272 14.2878 11.9492C14.0812 12.2652 13.9779 12.5599 13.9779 12.8333C13.9779 13.0156 14.0113 13.1797 14.0781 13.3255C14.145 13.4714 14.2361 13.5959 14.3516 13.6992C14.4731 13.8025 14.6128 13.8845 14.7708 13.9453C14.9288 14 15.099 14.0273 15.2812 14.0273ZM13.0573 18.7852C13.2821 18.5907 13.5343 18.3477 13.8138 18.056C14.0872 17.7643 14.3759 17.4362 14.6797 17.0716C14.9896 16.707 15.3086 16.3121 15.6367 15.8867C15.9648 15.4614 16.293 15.0178 16.6211 14.556C16.2808 14.7444 15.9193 14.9601 15.5365 15.2031C15.1536 15.4462 14.7739 15.7014 14.3971 15.9688C14.0265 16.2361 13.671 16.5095 13.3307 16.7891C12.9844 17.0747 12.6836 17.3451 12.4284 17.6003C12.1671 17.8615 11.9605 18.1016 11.8086 18.3203C11.6506 18.5451 11.5716 18.7365 11.5716 18.8945C11.5716 18.9674 11.5868 19.0282 11.6172 19.0768C11.6476 19.1315 11.684 19.174 11.7266 19.2044C11.7691 19.2348 11.8177 19.2561 11.8724 19.2682C11.921 19.2865 11.9666 19.2956 12.0091 19.2956C12.1185 19.2956 12.2339 19.2713 12.3555 19.2227C12.4709 19.174 12.5803 19.1194 12.6836 19.0586C12.7808 18.9978 12.8659 18.9401 12.9388 18.8854C13.0056 18.8307 13.0451 18.7973 13.0573 18.7852Z" fill="#333333"/>
</svg>
