<svg width="24" height="24" viewBox="0 0 24 24" fill="none" xmlns="http://www.w3.org/2000/svg">
<path d="M10.263 11.33C10.263 12.7113 10.3237 13.864 10.445 14.788C10.5757 15.7027 10.8277 16.3887 11.201 16.846C10.7624 17.2007 10.2677 17.378 9.71702 17.378C9.16636 17.378 8.74169 17.1633 8.44302 16.734C8.15369 16.3047 7.96236 15.5953 7.86902 14.606H4.55102C4.44836 14.998 4.39702 15.32 4.39702 15.572C4.39702 16.0667 4.48569 16.4913 4.66302 16.846C4.43902 17.014 4.18236 17.1447 3.89302 17.238C3.60369 17.3313 3.30969 17.378 3.01102 17.378C2.65636 17.378 2.38102 17.266 2.18502 17.042C1.99836 16.8273 1.90502 16.51 1.90502 16.09C1.90502 15.4647 2.15702 14.5687 2.66102 13.402C3.17436 12.2353 4.02369 10.5973 5.20902 8.488L4.76102 7.536C5.18102 7.27467 5.56836 7.088 5.92302 6.976C6.27769 6.864 6.66502 6.808 7.08502 6.808C7.56102 6.808 7.88302 6.91533 8.05102 7.13C8.43369 6.91533 8.76969 6.808 9.05902 6.808C9.47902 6.808 9.78702 6.948 9.98302 7.228C10.179 7.49867 10.277 7.93267 10.277 8.53L10.263 11.33ZM7.79902 13.192V12.534C7.79902 10.686 7.81769 9.33267 7.85502 8.474H7.68702C6.52969 10.2473 5.65236 11.82 5.05502 13.192H7.79902ZM20.137 8.922C20.4076 8.922 20.613 8.992 20.753 9.132C20.893 9.272 20.963 9.47267 20.963 9.734C20.963 11.6007 20.7343 13.332 20.277 14.928C19.8196 16.524 19.0776 17.8213 18.051 18.82C17.0336 19.8187 15.727 20.318 14.131 20.318C13.3283 20.318 12.6983 20.1873 12.241 19.926C11.793 19.674 11.569 19.3193 11.569 18.862C11.569 18.61 11.6436 18.3533 11.793 18.092C11.9423 17.84 12.129 17.644 12.353 17.504C12.773 18.2133 13.445 18.568 14.369 18.568C15.125 18.568 15.8436 18.2787 16.525 17.7C17.2156 17.1307 17.7523 16.1927 18.135 14.886H17.785C17.4863 15.5207 17.071 16.0153 16.539 16.37C16.007 16.7153 15.4283 16.888 14.803 16.888C14.2803 16.888 13.8136 16.7573 13.403 16.496C13.0016 16.2347 12.689 15.866 12.465 15.39C12.2503 14.9047 12.143 14.3447 12.143 13.71C12.143 12.73 12.3716 11.8527 12.829 11.078C13.2863 10.3033 13.9303 9.69667 14.761 9.258C15.601 8.81933 16.567 8.6 17.659 8.6C18.0976 8.6 18.4943 8.63733 18.849 8.712C18.9236 8.908 18.975 9.118 19.003 9.342C19.339 9.062 19.717 8.922 20.137 8.922ZM18.653 11.372C18.6623 11.1947 18.667 10.9193 18.667 10.546C18.667 10.1727 18.6623 9.888 18.653 9.692H18.639L18.653 11.372ZM15.839 15.306C16.2403 15.306 16.651 15.138 17.071 14.802C17.5003 14.4567 17.869 13.864 18.177 13.024C18.485 12.184 18.639 11.0733 18.639 9.692C17.8456 9.73867 17.1363 9.93933 16.511 10.294C15.8856 10.6393 15.3956 11.092 15.041 11.652C14.6863 12.212 14.509 12.8327 14.509 13.514C14.509 14.0833 14.6256 14.5267 14.859 14.844C15.0923 15.152 15.419 15.306 15.839 15.306Z" fill="#333333"/>
</svg>
