<svg width="24" height="24" viewBox="0 0 24 24" fill="none" xmlns="http://www.w3.org/2000/svg">
<path d="M9.77193 7.69C9.77193 8.12867 9.76726 8.48333 9.75793 8.754L9.74393 10.42C9.74393 12.044 9.81393 13.4533 9.95393 14.648C10.1033 15.8333 10.3833 16.622 10.7939 17.014C10.5326 17.2193 10.2293 17.322 9.88393 17.322C9.55726 17.322 9.29126 17.2287 9.08593 17.042C8.88993 16.8647 8.73593 16.5567 8.62393 16.118C8.51193 15.6793 8.4326 15.068 8.38593 14.284H4.59193C4.37726 14.8907 4.26993 15.4087 4.26993 15.838C4.26993 16.342 4.3306 16.734 4.45193 17.014C4.31193 17.126 4.16726 17.2053 4.01793 17.252C3.87793 17.2987 3.70526 17.322 3.49993 17.322C3.28526 17.322 3.11726 17.224 2.99593 17.028C2.88393 16.8413 2.82793 16.566 2.82793 16.202C2.82793 15.4367 3.1966 14.2933 3.93393 12.772C4.6806 11.2507 5.73526 9.50533 7.09793 7.536L6.67793 7.102C6.8926 6.97133 7.0886 6.878 7.26593 6.822C7.4526 6.75667 7.65793 6.724 7.88193 6.724C8.21793 6.724 8.4186 6.81267 8.48393 6.99C8.66126 6.81267 8.8666 6.724 9.09993 6.724C9.32393 6.724 9.49193 6.80333 9.60393 6.962C9.71593 7.11133 9.77193 7.354 9.77193 7.69ZM8.35793 13.458C8.33926 13.1127 8.32993 12.5293 8.32993 11.708V7.984H8.16193C6.62193 10.252 5.54393 12.0767 4.92793 13.458H8.35793ZM19.5135 8.908C19.8309 8.908 19.9895 9.04333 19.9895 9.314C19.9895 11.386 19.7795 13.2433 19.3595 14.886C18.9489 16.5193 18.2769 17.826 17.3435 18.806C16.4195 19.786 15.2202 20.276 13.7455 20.276C13.1295 20.276 12.6209 20.1687 12.2195 19.954C11.8182 19.7487 11.6175 19.4827 11.6175 19.156C11.6175 18.9973 11.6689 18.8293 11.7715 18.652C11.8835 18.4747 12.0329 18.316 12.2195 18.176C12.4249 18.5587 12.6769 18.8387 12.9755 19.016C13.2835 19.2027 13.6662 19.296 14.1235 19.296C14.5809 19.296 15.0709 19.156 15.5935 18.876C16.1162 18.596 16.6202 18.1293 17.1055 17.476C17.6002 16.832 18.0015 15.992 18.3095 14.956H18.0155C17.6795 15.5813 17.2269 16.0713 16.6575 16.426C16.0975 16.7807 15.5189 16.958 14.9215 16.958C14.4082 16.958 13.9555 16.8227 13.5635 16.552C13.1715 16.2813 12.8635 15.9033 12.6395 15.418C12.4249 14.9233 12.3175 14.354 12.3175 13.71C12.3175 12.758 12.5229 11.8947 12.9335 11.12C13.3535 10.3453 13.9555 9.734 14.7395 9.286C15.5235 8.82867 16.4429 8.6 17.4975 8.6C18.0202 8.6 18.4775 8.63733 18.8695 8.712C18.9535 8.84267 19.0095 8.978 19.0375 9.118C19.1682 9.02467 19.2615 8.96867 19.3175 8.95C19.3829 8.922 19.4482 8.908 19.5135 8.908ZM18.8695 11.064L18.8835 10.336C18.8835 10.112 18.8742 9.748 18.8555 9.244H18.8415L18.8695 11.064ZM15.4535 15.95C15.9295 15.95 16.4242 15.7493 16.9375 15.348C17.4602 14.9373 17.9082 14.2327 18.2815 13.234C18.6549 12.2353 18.8415 10.9053 18.8415 9.244C17.7962 9.26267 16.8909 9.46333 16.1255 9.846C15.3602 10.2193 14.7769 10.7373 14.3755 11.4C13.9742 12.0533 13.7735 12.8047 13.7735 13.654C13.7735 14.382 13.9182 14.9467 14.2075 15.348C14.5062 15.7493 14.9215 15.95 15.4535 15.95Z" fill="#333333"/>
</svg>
