<svg width="24" height="24" viewBox="0 0 24 24" fill="none" xmlns="http://www.w3.org/2000/svg">
<path d="M10.5008 11.722C10.5008 12.982 10.5568 14.0133 10.6688 14.816C10.7901 15.6187 11.0328 16.272 11.3968 16.776C10.8554 17.196 10.2721 17.406 9.64675 17.406C9.05875 17.406 8.60142 17.196 8.27475 16.776C7.95742 16.3467 7.74742 15.67 7.64475 14.746H4.56475C4.49942 14.998 4.46675 15.236 4.46675 15.46C4.46675 15.7307 4.49008 15.9687 4.53675 16.174C4.58342 16.3793 4.65808 16.58 4.76075 16.776C4.49942 16.9627 4.19142 17.112 3.83675 17.224C3.48208 17.3453 3.13675 17.406 2.80075 17.406C2.37142 17.406 2.04475 17.2893 1.82075 17.056C1.60608 16.8227 1.49875 16.482 1.49875 16.034C1.49875 15.4553 1.69942 14.662 2.10075 13.654C2.51142 12.6367 3.26275 11.0593 4.35475 8.922L3.89275 7.732C4.41542 7.41467 4.89142 7.19067 5.32075 7.06C5.75008 6.92 6.21675 6.85 6.72075 6.85C7.25275 6.85 7.63542 6.96667 7.86875 7.2C8.30742 6.96667 8.69942 6.85 9.04475 6.85C9.55808 6.85 9.93142 7.01333 10.1648 7.34C10.3981 7.66667 10.5148 8.18933 10.5148 8.908L10.5008 11.722ZM7.56075 13.08V12.912C7.56075 11.176 7.58875 9.77133 7.64475 8.698H7.47675C6.45008 10.322 5.66608 11.7827 5.12475 13.08H7.56075ZM20.4072 8.936C20.7338 8.936 20.9812 9.02 21.1492 9.188C21.3172 9.356 21.4012 9.60333 21.4012 9.93C21.4012 11.7033 21.1632 13.3787 20.6872 14.956C20.2112 16.524 19.4412 17.812 18.3772 18.82C17.3132 19.828 15.9552 20.332 14.3032 20.332C13.4165 20.332 12.7352 20.192 12.2592 19.912C11.7832 19.6413 11.5452 19.2493 11.5452 18.736C11.5452 18.428 11.6292 18.1293 11.7972 17.84C11.9558 17.56 12.1612 17.35 12.4132 17.21C12.6278 17.5553 12.9125 17.812 13.2672 17.98C13.6312 18.1573 14.0325 18.246 14.4712 18.246C15.2272 18.246 15.9225 17.9847 16.5572 17.462C17.2012 16.9393 17.6958 16.0713 18.0412 14.858H17.6772C17.3972 15.4833 16.9958 15.9733 16.4732 16.328C15.9598 16.6827 15.3858 16.86 14.7512 16.86C14.2192 16.86 13.7478 16.7293 13.3372 16.468C12.9358 16.2067 12.6232 15.838 12.3992 15.362C12.1752 14.886 12.0632 14.3353 12.0632 13.71C12.0632 12.7113 12.3012 11.8247 12.7772 11.05C13.2532 10.2753 13.9158 9.67333 14.7652 9.244C15.6238 8.81467 16.6085 8.6 17.7192 8.6C18.1112 8.6 18.4798 8.63733 18.8252 8.712C18.8998 8.92667 18.9512 9.16933 18.9792 9.44C19.3712 9.104 19.8472 8.936 20.4072 8.936ZM15.9972 15.012C16.3612 15.012 16.7392 14.858 17.1312 14.55C17.5232 14.2327 17.8545 13.6913 18.1252 12.926C18.4052 12.1607 18.5452 11.148 18.5452 9.888C17.8638 9.95333 17.2385 10.154 16.6692 10.49C16.0998 10.8167 15.6518 11.2413 15.3252 11.764C14.9985 12.2773 14.8352 12.8373 14.8352 13.444C14.8352 13.9387 14.9378 14.326 15.1432 14.606C15.3485 14.8767 15.6332 15.012 15.9972 15.012ZM18.5452 11.12C18.5545 10.9893 18.5592 10.7887 18.5592 10.518C18.5592 10.238 18.5545 10.028 18.5452 9.888V11.12Z" fill="#333333"/>
</svg>
