<svg width="24" height="24" viewBox="0 0 24 24" fill="none" xmlns="http://www.w3.org/2000/svg">
<path d="M1.97063 17L6.31063 7.2H7.97663L12.3026 17H10.6646L7.83663 10.616C7.7713 10.4947 7.69663 10.3313 7.61263 10.126C7.53797 9.92067 7.45397 9.706 7.36063 9.482C7.27663 9.24867 7.19263 9.02467 7.10863 8.81C7.03397 8.586 6.96863 8.39467 6.91263 8.236L7.30463 8.222C7.22997 8.418 7.15063 8.62333 7.06663 8.838C6.99197 9.05267 6.91263 9.272 6.82863 9.496C6.74463 9.71067 6.66063 9.92067 6.57663 10.126C6.49263 10.322 6.4133 10.504 6.33863 10.672L3.53863 17H1.97063ZM3.87463 14.648L4.44863 13.192H9.67063L10.0906 14.648H3.87463ZM17.8815 20.22C17.1722 20.22 16.5329 20.1313 15.9635 19.954C15.4035 19.786 14.9509 19.5807 14.6055 19.338L15.1235 18.176C15.3195 18.288 15.5575 18.4 15.8375 18.512C16.1175 18.6333 16.4302 18.7313 16.7755 18.806C17.1209 18.89 17.4895 18.932 17.8815 18.932C18.4042 18.932 18.8569 18.834 19.2395 18.638C19.6315 18.442 19.9302 18.1573 20.1355 17.784C20.3502 17.4107 20.4575 16.9533 20.4575 16.412V15.306L20.6115 15.404C20.5649 15.6747 20.3782 15.9453 20.0515 16.216C19.7342 16.4867 19.3329 16.7107 18.8475 16.888C18.3715 17.056 17.8629 17.14 17.3215 17.14C16.5469 17.14 15.8562 16.9767 15.2495 16.65C14.6522 16.3233 14.1809 15.8707 13.8355 15.292C13.4995 14.7133 13.3315 14.0553 13.3315 13.318C13.3315 12.5713 13.5089 11.9133 13.8635 11.344C14.2182 10.7653 14.7035 10.3127 15.3195 9.986C15.9355 9.65933 16.6402 9.496 17.4335 9.496C17.6762 9.496 17.9422 9.52867 18.2315 9.594C18.5302 9.65 18.8242 9.73867 19.1135 9.86C19.4029 9.972 19.6689 10.1027 19.9115 10.252C20.1635 10.4013 20.3642 10.5647 20.5135 10.742C20.6722 10.91 20.7562 11.0827 20.7655 11.26L20.4575 11.372V9.65H21.8995V16.244C21.8995 16.8973 21.7969 17.4713 21.5915 17.966C21.3862 18.47 21.0969 18.8853 20.7235 19.212C20.3595 19.548 19.9302 19.8 19.4355 19.968C18.9502 20.136 18.4322 20.22 17.8815 20.22ZM17.7135 15.81C18.2642 15.81 18.7495 15.7027 19.1695 15.488C19.5989 15.2733 19.9302 14.9793 20.1635 14.606C20.3969 14.2233 20.5135 13.794 20.5135 13.318C20.5135 12.8327 20.3969 12.4033 20.1635 12.03C19.9302 11.6567 19.5989 11.3627 19.1695 11.148C18.7495 10.924 18.2642 10.812 17.7135 10.812C17.1535 10.812 16.6542 10.924 16.2155 11.148C15.7769 11.3627 15.4315 11.6613 15.1795 12.044C14.9275 12.4173 14.8015 12.842 14.8015 13.318C14.8015 13.7847 14.9275 14.2093 15.1795 14.592C15.4315 14.9653 15.7769 15.264 16.2155 15.488C16.6542 15.7027 17.1535 15.81 17.7135 15.81Z" fill="#888888"/>
</svg>
