<svg width="24" height="24" viewBox="0 0 24 24" fill="none" xmlns="http://www.w3.org/2000/svg">
<g clip-path="url(#clip0_246_239)">
<path d="M0.277344 17L5.10734 7.2H7.20734L12.0233 17H9.81134L6.78734 10.882C6.69401 10.686 6.60068 10.4993 6.50734 10.322C6.42334 10.1447 6.34401 9.972 6.26934 9.804C6.19468 9.62667 6.12468 9.44933 6.05934 9.272C5.99401 9.09467 5.92868 8.908 5.86334 8.712L6.36734 8.698C6.30201 8.90333 6.23201 9.09933 6.15734 9.286C6.08268 9.47267 6.00334 9.65467 5.91934 9.832C5.84468 10.0093 5.76534 10.1867 5.68134 10.364C5.59734 10.5413 5.50868 10.728 5.41534 10.924L2.40534 17H0.277344ZM2.46134 15.082L3.18934 13.388H9.04134L9.33534 15.082H2.46134ZM18.6386 20.22C17.7239 20.22 16.9399 20.1267 16.2866 19.94C15.6332 19.7533 15.1012 19.5387 14.6906 19.296L15.3626 17.784C15.5772 17.868 15.8292 17.9707 16.1186 18.092C16.4079 18.2133 16.7439 18.316 17.1266 18.4C17.5186 18.4933 17.9572 18.54 18.4426 18.54C18.9466 18.54 19.3946 18.442 19.7866 18.246C20.1786 18.05 20.4819 17.7607 20.6966 17.378C20.9206 16.9953 21.0326 16.524 21.0326 15.964V15.236L21.3686 15.306C21.3032 15.586 21.0839 15.8567 20.7106 16.118C20.3372 16.3793 19.8706 16.594 19.3106 16.762C18.7599 16.9207 18.1579 17 17.5046 17C16.6832 17 15.9599 16.846 15.3346 16.538C14.7092 16.2207 14.2192 15.782 13.8646 15.222C13.5192 14.6527 13.3466 14.004 13.3466 13.276C13.3466 12.52 13.5332 11.8573 13.9066 11.288C14.2799 10.7093 14.7932 10.2567 15.4466 9.93C16.1092 9.60333 16.8746 9.44 17.7426 9.44C17.9572 9.44 18.2186 9.468 18.5266 9.524C18.8439 9.57067 19.1706 9.64533 19.5066 9.748C19.8426 9.84133 20.1599 9.958 20.4586 10.098C20.7572 10.2287 20.9999 10.3873 21.1866 10.574C21.3732 10.7513 21.4666 10.952 21.4666 11.176L21.0606 11.288L21.1166 9.594H23.0206V15.88C23.0206 16.6173 22.8992 17.2567 22.6566 17.798C22.4139 18.3487 22.0826 18.8013 21.6626 19.156C21.2519 19.5107 20.7852 19.7767 20.2626 19.954C19.7399 20.1313 19.1986 20.22 18.6386 20.22ZM18.3026 15.404C18.8719 15.404 19.3619 15.3153 19.7726 15.138C20.1926 14.9607 20.5146 14.7133 20.7386 14.396C20.9719 14.0693 21.0886 13.696 21.0886 13.276C21.0886 12.856 20.9719 12.4873 20.7386 12.17C20.5146 11.8527 20.1926 11.6053 19.7726 11.428C19.3619 11.2413 18.8719 11.148 18.3026 11.148C17.7239 11.148 17.2059 11.2413 16.7486 11.428C16.3006 11.6053 15.9506 11.8527 15.6986 12.17C15.4559 12.4873 15.3346 12.856 15.3346 13.276C15.3346 13.6867 15.4559 14.0553 15.6986 14.382C15.9506 14.6993 16.3006 14.9513 16.7486 15.138C17.2059 15.3153 17.7239 15.404 18.3026 15.404Z" fill="#888888"/>
</g>
<defs>
<clipPath id="clip0_246_239">
<rect width="24" height="24" fill="white"/>
</clipPath>
</defs>
</svg>
