<svg width="24" height="24" viewBox="0 0 24 24" fill="none" xmlns="http://www.w3.org/2000/svg">
<g clip-path="url(#clip0_246_203)">
<path d="M0.608312 17L5.29831 7.2H7.72031L12.3963 17H9.59631L7.07631 11.778C6.96431 11.5447 6.86631 11.3347 6.78231 11.148C6.69831 10.952 6.62365 10.7653 6.55831 10.588C6.49298 10.4107 6.42765 10.2333 6.36231 10.056C6.30631 9.87867 6.25498 9.69667 6.20831 9.51L6.75431 9.496C6.69831 9.70133 6.63765 9.89733 6.57231 10.084C6.51631 10.2707 6.44631 10.4527 6.36231 10.63C6.28765 10.8073 6.20831 10.9893 6.12431 11.176C6.04031 11.3627 5.95165 11.5633 5.85831 11.778L3.35231 17H0.608312ZM2.83431 15.488L3.68831 13.528H9.31631L9.76431 15.488H2.83431ZM18.1365 20.22C17.2219 20.22 16.4099 20.122 15.7005 19.926C15.0005 19.7393 14.4312 19.5107 13.9925 19.24L14.8745 17.392C15.0892 17.4853 15.3319 17.588 15.6025 17.7C15.8732 17.812 16.1812 17.9053 16.5265 17.98C16.8719 18.0547 17.2685 18.092 17.7165 18.092C18.1832 18.092 18.5892 18.008 18.9345 17.84C19.2799 17.672 19.5412 17.4247 19.7185 17.098C19.9052 16.7713 19.9985 16.3607 19.9985 15.866V15.138L20.5445 15.208C20.4605 15.5067 20.2459 15.782 19.9005 16.034C19.5552 16.2767 19.1259 16.4727 18.6125 16.622C18.0992 16.7713 17.5345 16.846 16.9185 16.846C16.1439 16.846 15.4579 16.6967 14.8605 16.398C14.2632 16.0993 13.8012 15.6793 13.4745 15.138C13.1479 14.5873 12.9845 13.948 12.9845 13.22C12.9845 12.4547 13.1572 11.7873 13.5025 11.218C13.8479 10.6393 14.3285 10.1913 14.9445 9.874C15.5605 9.54733 16.2745 9.384 17.0865 9.384C17.3199 9.384 17.5812 9.40733 17.8705 9.454C18.1692 9.49133 18.4725 9.55667 18.7805 9.65C19.0885 9.734 19.3779 9.846 19.6485 9.986C19.9192 10.126 20.1385 10.2847 20.3065 10.462C20.4839 10.6393 20.5772 10.8447 20.5865 11.078L20.0545 11.204L20.1805 9.538H22.6165V15.866C22.6165 16.6033 22.4952 17.2427 22.2525 17.784C22.0099 18.3253 21.6785 18.7733 21.2585 19.128C20.8479 19.492 20.3719 19.7627 19.8305 19.94C19.2985 20.1267 18.7339 20.22 18.1365 20.22ZM17.8705 14.942C18.3279 14.942 18.7152 14.872 19.0325 14.732C19.3592 14.592 19.6112 14.396 19.7885 14.144C19.9659 13.8827 20.0545 13.5793 20.0545 13.234C20.0545 12.8793 19.9659 12.576 19.7885 12.324C19.6205 12.072 19.3732 11.876 19.0465 11.736C18.7199 11.596 18.3279 11.526 17.8705 11.526C17.4039 11.526 16.9932 11.596 16.6385 11.736C16.2932 11.876 16.0272 12.072 15.8405 12.324C15.6539 12.576 15.5605 12.8793 15.5605 13.234C15.5605 13.5793 15.6539 13.8827 15.8405 14.144C16.0272 14.396 16.2932 14.592 16.6385 14.732C16.9932 14.872 17.4039 14.942 17.8705 14.942Z" fill="#888888"/>
</g>
<defs>
<clipPath id="clip0_246_203">
<rect width="24" height="24" fill="white"/>
</clipPath>
</defs>
</svg>
