<svg width="24" height="24" viewBox="0 0 24 24" fill="none" xmlns="http://www.w3.org/2000/svg">
<path d="M1.80362 17L6.17162 7.2H8.00562L12.3596 17H10.4416L7.75362 10.952C7.67895 10.8027 7.59962 10.6253 7.51562 10.42C7.44095 10.2147 7.36162 10.0047 7.27762 9.79C7.19362 9.566 7.11428 9.35133 7.03962 9.146C6.96495 8.93133 6.89962 8.74 6.84362 8.572L7.26362 8.558C7.19828 8.754 7.12828 8.95933 7.05362 9.174C6.97895 9.37933 6.89962 9.58933 6.81562 9.804C6.73162 10.0187 6.64762 10.224 6.56362 10.42C6.47962 10.616 6.40028 10.8073 6.32562 10.994L3.65162 17H1.80362ZM3.76362 14.844L4.40762 13.262H9.64362L10.0916 14.844H3.76362ZM17.8692 20.22C17.1225 20.22 16.4505 20.1313 15.8532 19.954C15.2652 19.7767 14.7892 19.562 14.4252 19.31L15.0272 17.994C15.2325 18.106 15.4705 18.218 15.7412 18.33C16.0212 18.442 16.3292 18.5353 16.6652 18.61C17.0012 18.6847 17.3652 18.722 17.7572 18.722C18.2705 18.722 18.7092 18.6287 19.0732 18.442C19.4465 18.2553 19.7312 17.9847 19.9272 17.63C20.1325 17.2753 20.2352 16.8367 20.2352 16.314V15.264L20.4872 15.362C20.4312 15.6327 20.2445 15.9033 19.9272 16.174C19.6098 16.4353 19.2085 16.65 18.7232 16.818C18.2472 16.986 17.7385 17.07 17.1972 17.07C16.4318 17.07 15.7505 16.9113 15.1532 16.594C14.5558 16.2673 14.0892 15.8193 13.7532 15.25C13.4172 14.6807 13.2492 14.0273 13.2492 13.29C13.2492 12.5433 13.4218 11.8853 13.7672 11.316C14.1218 10.7373 14.6025 10.2847 15.2092 9.958C15.8158 9.63133 16.5112 9.468 17.2952 9.468C17.5378 9.468 17.8038 9.496 18.0932 9.552C18.3918 9.608 18.6858 9.692 18.9752 9.804C19.2645 9.916 19.5305 10.0467 19.7732 10.196C20.0158 10.3453 20.2118 10.5087 20.3612 10.686C20.5198 10.854 20.6038 11.0313 20.6132 11.218L20.2492 11.33L20.2772 9.622H21.9712V16.188C21.9712 16.8507 21.8638 17.434 21.6492 17.938C21.4438 18.442 21.1498 18.862 20.7672 19.198C20.3938 19.5433 19.9552 19.8 19.4512 19.968C18.9565 20.136 18.4292 20.22 17.8692 20.22ZM17.7012 15.6C18.2145 15.6 18.6672 15.502 19.0592 15.306C19.4512 15.11 19.7545 14.8393 19.9692 14.494C20.1838 14.1393 20.2912 13.7427 20.2912 13.304C20.2912 12.8467 20.1838 12.4453 19.9692 12.1C19.7545 11.7547 19.4512 11.484 19.0592 11.288C18.6672 11.0827 18.2145 10.98 17.7012 10.98C17.1692 10.98 16.6978 11.0827 16.2872 11.288C15.8858 11.484 15.5685 11.7593 15.3352 12.114C15.1018 12.4593 14.9852 12.856 14.9852 13.304C14.9852 13.7333 15.1018 14.1253 15.3352 14.48C15.5685 14.8253 15.8858 15.1007 16.2872 15.306C16.6978 15.502 17.1692 15.6 17.7012 15.6Z" fill="#888888"/>
</svg>
