<svg width="24" height="24" viewBox="0 0 24 24" fill="none" xmlns="http://www.w3.org/2000/svg">
<path d="M3.35129 17L7.11729 7.2H7.57929L11.3453 17H10.9813L8.27929 9.944C8.25129 9.87867 8.19996 9.75733 8.12529 9.58C8.05996 9.39333 7.97596 9.16933 7.87329 8.908C7.77996 8.64667 7.67729 8.376 7.56529 8.096C7.45329 7.80667 7.34596 7.53133 7.24329 7.27L7.39729 7.284C7.34129 7.452 7.26196 7.66667 7.15929 7.928C7.06596 8.18933 6.96329 8.46 6.85129 8.74C6.74862 9.01067 6.65529 9.258 6.57129 9.482C6.48729 9.706 6.42662 9.86467 6.38929 9.958L3.71529 17H3.35129ZM4.75129 13.78L4.86329 13.458H9.86129L9.97329 13.78H4.75129ZM15.6092 20.36C15.1052 20.36 14.6292 20.2713 14.1812 20.094C13.7425 19.9167 13.3738 19.66 13.0752 19.324L13.2292 19.044C13.4252 19.2493 13.6398 19.4267 13.8732 19.576C14.1158 19.7253 14.3818 19.842 14.6712 19.926C14.9605 20.01 15.2685 20.052 15.5952 20.052C16.1272 20.052 16.6218 19.912 17.0792 19.632C17.5458 19.352 17.9192 18.9507 18.1992 18.428C18.4885 17.9147 18.6332 17.2987 18.6332 16.58V14.592L18.7592 14.55C18.6378 15.054 18.4232 15.502 18.1152 15.894C17.8072 16.2767 17.4385 16.58 17.0092 16.804C16.5798 17.028 16.1132 17.14 15.6092 17.14C14.9278 17.14 14.3165 16.9813 13.7752 16.664C13.2432 16.3373 12.8232 15.894 12.5152 15.334C12.2072 14.7647 12.0532 14.116 12.0532 13.388C12.0532 12.6507 12.2118 11.9973 12.5292 11.428C12.8465 10.8493 13.2665 10.3967 13.7892 10.07C14.3212 9.74333 14.9092 9.58 15.5532 9.58C15.8518 9.58 16.1412 9.622 16.4212 9.706C16.7105 9.79 16.9812 9.90667 17.2332 10.056C17.4852 10.2053 17.7138 10.3873 17.9192 10.602C18.1245 10.8073 18.2925 11.036 18.4232 11.288C18.5632 11.54 18.6612 11.8107 18.7172 12.1L18.6332 12.058L18.6612 9.65H18.9412V16.706C18.9412 17.2753 18.8525 17.784 18.6752 18.232C18.5072 18.6893 18.2692 19.072 17.9612 19.38C17.6532 19.6973 17.2985 19.94 16.8972 20.108C16.4958 20.276 16.0665 20.36 15.6092 20.36ZM15.5952 16.832C16.1645 16.832 16.6778 16.6873 17.1352 16.398C17.6018 16.0993 17.9658 15.6887 18.2272 15.166C18.4978 14.6433 18.6332 14.0413 18.6332 13.36C18.6332 12.688 18.4978 12.0907 18.2272 11.568C17.9658 11.0453 17.6018 10.6347 17.1352 10.336C16.6778 10.0373 16.1552 9.888 15.5672 9.888C14.9418 9.888 14.3865 10.0373 13.9012 10.336C13.4158 10.6347 13.0378 11.05 12.7672 11.582C12.4965 12.1047 12.3612 12.7067 12.3612 13.388C12.3612 14.0507 12.4965 14.6433 12.7672 15.166C13.0472 15.6793 13.4298 16.0853 13.9152 16.384C14.4005 16.6827 14.9605 16.832 15.5952 16.832Z" fill="#888888"/>
</svg>
