<svg width="24" height="24" viewBox="0 0 24 24" fill="none" xmlns="http://www.w3.org/2000/svg">
<path d="M1.21616 17L5.54216 7.2H8.02016L12.3182 17H9.29416L7.30616 12.38C7.2035 12.1187 7.11016 11.89 7.02616 11.694C6.9515 11.4887 6.8815 11.2973 6.81616 11.12C6.76016 10.9333 6.70416 10.7467 6.64816 10.56C6.59216 10.364 6.53616 10.1493 6.48016 9.916H7.01216C6.9655 10.1587 6.9095 10.378 6.84416 10.574C6.78816 10.77 6.7275 10.9567 6.66216 11.134C6.59683 11.3113 6.52216 11.498 6.43816 11.694C6.35416 11.89 6.26083 12.1187 6.15816 12.38L4.17016 17H1.21616ZM3.33016 15.6L4.24016 13.542H9.32216L9.96616 15.6H3.33016ZM17.8744 20.22C17.0717 20.22 16.3251 20.122 15.6344 19.926C14.9437 19.7393 14.3791 19.5013 13.9404 19.212L14.8924 17.28C15.1071 17.392 15.3357 17.4947 15.5784 17.588C15.8211 17.6907 16.0871 17.77 16.3764 17.826C16.6751 17.8913 17.0064 17.924 17.3704 17.924C17.8184 17.924 18.1917 17.854 18.4904 17.714C18.7891 17.5833 19.0131 17.3733 19.1624 17.084C19.3211 16.7947 19.4004 16.4353 19.4004 16.006V15.11L20.0304 15.166C19.9464 15.474 19.7551 15.7493 19.4564 15.992C19.1577 16.2347 18.7844 16.4307 18.3364 16.58C17.8977 16.72 17.4217 16.79 16.9084 16.79C16.1897 16.79 15.5551 16.6407 15.0044 16.342C14.4631 16.0433 14.0337 15.628 13.7164 15.096C13.4084 14.5547 13.2544 13.92 13.2544 13.192C13.2544 12.436 13.4131 11.7733 13.7304 11.204C14.0477 10.6253 14.4817 10.1727 15.0324 9.846C15.5831 9.51933 16.2224 9.356 16.9504 9.356C17.2024 9.356 17.4637 9.384 17.7344 9.44C18.0144 9.48667 18.2851 9.55667 18.5464 9.65C18.8077 9.734 19.0457 9.846 19.2604 9.986C19.4751 10.126 19.6524 10.2847 19.7924 10.462C19.9324 10.63 20.0164 10.8213 20.0444 11.036L19.4704 11.162L19.6244 9.51H22.2564V16.048C22.2564 16.7293 22.1444 17.3267 21.9204 17.84C21.7057 18.3627 21.4024 18.8013 21.0104 19.156C20.6184 19.5107 20.1517 19.7767 19.6104 19.954C19.0784 20.1313 18.4997 20.22 17.8744 20.22ZM17.7904 14.76C18.1451 14.76 18.4484 14.6993 18.7004 14.578C18.9524 14.4567 19.1437 14.284 19.2744 14.06C19.4051 13.8267 19.4704 13.5467 19.4704 13.22C19.4704 12.8933 19.4051 12.6133 19.2744 12.38C19.1437 12.1467 18.9524 11.9693 18.7004 11.848C18.4484 11.7267 18.1451 11.666 17.7904 11.666C17.4171 11.666 17.0997 11.7267 16.8384 11.848C16.5864 11.9693 16.3904 12.1467 16.2504 12.38C16.1104 12.6133 16.0404 12.8933 16.0404 13.22C16.0404 13.5467 16.1104 13.8267 16.2504 14.06C16.3904 14.284 16.5864 14.4567 16.8384 14.578C17.0997 14.6993 17.4171 14.76 17.7904 14.76Z" fill="#888888"/>
</svg>
