<svg width="24" height="24" viewBox="0 0 24 24" fill="none" xmlns="http://www.w3.org/2000/svg">
<path d="M2.80605 17L6.55805 7.2H7.80406L11.5281 17H10.3381L7.94405 10.644C7.87872 10.4667 7.80405 10.2613 7.72005 10.028C7.64539 9.78533 7.56139 9.538 7.46805 9.286C7.38405 9.02467 7.30005 8.77267 7.21605 8.53C7.14139 8.28733 7.07139 8.07267 7.00605 7.886H7.28606C7.21139 8.11933 7.13205 8.35733 7.04805 8.6C6.97339 8.83333 6.89405 9.07133 6.81005 9.314C6.72605 9.54733 6.64205 9.78067 6.55805 10.014C6.47405 10.2473 6.39005 10.4807 6.30605 10.714L3.92605 17H2.80605ZM4.40205 14.298L4.80805 13.234H9.44205L9.89005 14.298H4.40205ZM15.9113 20.22C15.3699 20.22 14.8566 20.136 14.3713 19.968C13.8859 19.8 13.4846 19.59 13.1673 19.338L13.5873 18.456C13.7739 18.6053 13.9886 18.736 14.2313 18.848C14.4833 18.9693 14.7539 19.0627 15.0433 19.128C15.3326 19.2027 15.6266 19.24 15.9253 19.24C16.4666 19.24 16.9239 19.1373 17.2973 18.932C17.6799 18.736 17.9693 18.442 18.1653 18.05C18.3706 17.658 18.4733 17.1727 18.4733 16.594V15.194L18.6413 15.152C18.5573 15.5067 18.3753 15.838 18.0953 16.146C17.8153 16.4447 17.4746 16.6873 17.0733 16.874C16.6719 17.0513 16.2473 17.14 15.7993 17.14C15.1179 17.14 14.5066 16.9767 13.9653 16.65C13.4333 16.3233 13.0133 15.8753 12.7053 15.306C12.3973 14.7273 12.2433 14.074 12.2433 13.346C12.2433 12.6087 12.3973 11.9553 12.7053 11.386C13.0226 10.8073 13.4473 10.3547 13.9793 10.028C14.5113 9.70133 15.1086 9.538 15.7713 9.538C16.0606 9.538 16.3406 9.57533 16.6113 9.65C16.8819 9.71533 17.1293 9.81333 17.3533 9.944C17.5866 10.0747 17.7966 10.224 17.9833 10.392C18.1699 10.56 18.3239 10.742 18.4453 10.938C18.5759 11.134 18.6693 11.3347 18.7253 11.54L18.4313 11.498L18.4733 9.692H19.5233V16.552C19.5233 17.14 19.4393 17.658 19.2713 18.106C19.1033 18.5633 18.8559 18.946 18.5293 19.254C18.2119 19.5713 17.8293 19.8093 17.3813 19.968C16.9426 20.136 16.4526 20.22 15.9113 20.22ZM15.9253 16.132C16.4199 16.132 16.8586 16.0153 17.2413 15.782C17.6333 15.5393 17.9413 15.208 18.1653 14.788C18.3893 14.368 18.5013 13.8827 18.5013 13.332C18.5013 12.7907 18.3893 12.31 18.1653 11.89C17.9506 11.47 17.6473 11.1387 17.2553 10.896C16.8633 10.6533 16.4199 10.532 15.9253 10.532C15.4213 10.532 14.9733 10.6533 14.5813 10.896C14.1986 11.1387 13.8953 11.47 13.6713 11.89C13.4473 12.31 13.3353 12.7907 13.3353 13.332C13.3353 13.864 13.4426 14.3447 13.6573 14.774C13.8813 15.194 14.1846 15.5253 14.5673 15.768C14.9593 16.0107 15.4119 16.132 15.9253 16.132Z" fill="#888888"/>
</svg>
