<svg width="24" height="24" viewBox="0 0 24 24" fill="none" xmlns="http://www.w3.org/2000/svg">
<path d="M1.33331 17L5.86931 7.2H6.86331L11.3853 17H10.5873L7.15731 9.552C7.00798 9.19733 6.89131 8.93133 6.80731 8.754C6.72331 8.56733 6.65331 8.42267 6.59731 8.32C6.54131 8.21733 6.48998 8.10067 6.44331 7.97C6.39665 7.83 6.32665 7.634 6.23331 7.382L6.44331 7.368C6.34065 7.676 6.25665 7.90933 6.19131 8.068C6.13531 8.22667 6.07465 8.36667 6.00931 8.488C5.94398 8.6 5.87398 8.74 5.79931 8.908C5.72465 9.06667 5.61731 9.30933 5.47731 9.636L2.06131 17H1.33331ZM3.12531 14.144L3.41931 13.458H9.32731L9.50931 14.144H3.12531ZM17.4766 20.22C16.73 20.22 16.086 20.1267 15.5446 19.94C15.0033 19.7533 14.5506 19.548 14.1866 19.324L14.4946 18.624C14.7093 18.7733 14.9613 18.9133 15.2506 19.044C15.5493 19.184 15.8853 19.296 16.2586 19.38C16.632 19.4733 17.052 19.52 17.5186 19.52C18.116 19.52 18.6526 19.4033 19.1286 19.17C19.614 18.9367 19.9873 18.5727 20.2486 18.078C20.51 17.5833 20.6406 16.944 20.6406 16.16V15.012L20.8646 14.858C20.65 15.334 20.3513 15.74 19.9686 16.076C19.586 16.412 19.1286 16.6687 18.5966 16.846C18.074 17.014 17.4906 17.098 16.8466 17.098C16.072 17.098 15.3813 16.9393 14.7746 16.622C14.1773 16.2953 13.706 15.8473 13.3606 15.278C13.0246 14.7087 12.8566 14.06 12.8566 13.332C12.8566 12.5947 13.0386 11.9413 13.4026 11.372C13.7666 10.8027 14.252 10.3547 14.8586 10.028C15.4746 9.692 16.17 9.524 16.9446 9.524C17.29 9.524 17.626 9.55667 17.9526 9.622C18.2793 9.68733 18.592 9.78067 18.8906 9.902C19.1986 10.014 19.4833 10.168 19.7446 10.364C20.006 10.5507 20.2346 10.77 20.4306 11.022C20.6266 11.2647 20.776 11.5447 20.8786 11.862L20.5706 11.694L20.6406 9.72H21.3406V16.104C21.3406 16.832 21.2333 17.4573 21.0186 17.98C20.8133 18.5027 20.5286 18.9273 20.1646 19.254C19.8006 19.5807 19.3853 19.8233 18.9186 19.982C18.452 20.1407 17.9713 20.22 17.4766 20.22ZM17.0706 16.398C17.78 16.398 18.4006 16.2673 18.9326 16.006C19.474 15.7353 19.894 15.3713 20.1926 14.914C20.5006 14.4567 20.6546 13.934 20.6546 13.346C20.6453 12.73 20.4913 12.1887 20.1926 11.722C19.894 11.2553 19.474 10.8913 18.9326 10.63C18.4006 10.3593 17.7846 10.224 17.0846 10.224C16.422 10.224 15.8293 10.3593 15.3066 10.63C14.784 10.8913 14.3686 11.2553 14.0606 11.722C13.762 12.1793 13.608 12.7113 13.5986 13.318C13.5986 13.906 13.7433 14.4333 14.0326 14.9C14.3313 15.3667 14.742 15.7353 15.2646 16.006C15.7873 16.2673 16.3893 16.398 17.0706 16.398Z" fill="#888888"/>
</svg>
