<svg width="24" height="24" viewBox="0 0 24 24" fill="none" xmlns="http://www.w3.org/2000/svg">
<path d="M2.15154 17L6.58954 7.2H7.03754L11.4755 17H11.1115L7.66754 9.412C7.62087 9.3 7.56021 9.16467 7.48554 9.006C7.42021 8.84733 7.34554 8.67933 7.26154 8.502C7.17754 8.31533 7.08887 8.124 6.99554 7.928C6.91154 7.732 6.82754 7.54533 6.74354 7.368H6.84154C6.77621 7.51733 6.70154 7.68533 6.61754 7.872C6.54287 8.05867 6.46354 8.25 6.37954 8.446C6.29554 8.63267 6.21621 8.81 6.14154 8.978C6.06687 9.146 5.99687 9.29533 5.93154 9.426L2.50154 17H2.15154ZM3.74754 13.85L3.88754 13.542H9.76754L9.90754 13.85H3.74754ZM17.9447 20.36C17.3101 20.36 16.7314 20.262 16.2087 20.066C15.6954 19.87 15.2754 19.618 14.9487 19.31L15.0747 19.016C15.3174 19.2213 15.5787 19.4033 15.8587 19.562C16.1387 19.7207 16.4514 19.842 16.7967 19.926C17.1421 20.01 17.5154 20.052 17.9167 20.052C18.5047 20.052 19.0554 19.9167 19.5687 19.646C20.0914 19.3847 20.5114 18.9787 20.8287 18.428C21.1461 17.8867 21.3047 17.2053 21.3047 16.384V14.494L21.4587 14.48C21.2441 15.0587 20.9501 15.544 20.5767 15.936C20.2034 16.3187 19.7647 16.608 19.2607 16.804C18.7661 17 18.2201 17.098 17.6227 17.098C16.8481 17.098 16.1574 16.9393 15.5507 16.622C14.9441 16.3047 14.4727 15.8613 14.1367 15.292C13.8007 14.7227 13.6327 14.074 13.6327 13.346C13.6327 12.618 13.8054 11.9647 14.1507 11.386C14.5054 10.8073 14.9814 10.3547 15.5787 10.028C16.1854 9.70133 16.8574 9.538 17.5947 9.538C17.9494 9.538 18.2947 9.57533 18.6307 9.65C18.9667 9.71533 19.2794 9.82267 19.5687 9.972C19.8581 10.112 20.1194 10.2893 20.3527 10.504C20.5954 10.7093 20.8054 10.952 20.9827 11.232C21.1694 11.512 21.3234 11.8293 21.4447 12.184L21.3047 12.156L21.3327 9.65H21.6127V16.342C21.6127 17.042 21.5101 17.644 21.3047 18.148C21.1087 18.6613 20.8334 19.0813 20.4787 19.408C20.1334 19.7347 19.7414 19.9727 19.3027 20.122C18.8641 20.2807 18.4114 20.36 17.9447 20.36ZM17.6087 16.79C18.3461 16.79 18.9901 16.6407 19.5407 16.342C20.1007 16.0433 20.5347 15.6373 20.8427 15.124C21.1507 14.6013 21.3047 14.0133 21.3047 13.36C21.2954 12.66 21.1321 12.0487 20.8147 11.526C20.4974 11.0033 20.0634 10.5927 19.5127 10.294C18.9621 9.99533 18.3227 9.846 17.5947 9.846C16.9134 9.846 16.2927 9.99533 15.7327 10.294C15.1821 10.5833 14.7481 10.994 14.4307 11.526C14.1134 12.0487 13.9501 12.6553 13.9407 13.346C13.9407 14.018 14.0994 14.6153 14.4167 15.138C14.7341 15.6513 15.1681 16.0573 15.7187 16.356C16.2787 16.6453 16.9087 16.79 17.6087 16.79Z" fill="#888888"/>
</svg>
