<svg width="24" height="24" viewBox="0 0 24 24" fill="none" xmlns="http://www.w3.org/2000/svg">
<path d="M2.30954 17L6.21554 7.2H8.45554L12.3335 17H9.57554L7.89554 12.45C7.80221 12.198 7.71821 11.9647 7.64354 11.75C7.56887 11.5353 7.49887 11.3253 7.43354 11.12C7.36821 10.9147 7.30287 10.7047 7.23754 10.49C7.18154 10.2753 7.13021 10.042 7.08354 9.79L7.53154 9.776C7.47554 10.0467 7.41487 10.2893 7.34954 10.504C7.29354 10.7187 7.23287 10.924 7.16754 11.12C7.10221 11.316 7.02754 11.5213 6.94354 11.736C6.86887 11.9507 6.78487 12.1887 6.69154 12.45L5.01154 17H2.30954ZM4.21354 15.376L5.03954 13.416H9.57554L10.3455 15.376H4.21354ZM16.4722 20.22C15.8282 20.22 15.1888 20.1267 14.5542 19.94C13.9195 19.7627 13.4015 19.5293 13.0002 19.24L13.8822 17.462C14.0875 17.5927 14.3022 17.7047 14.5262 17.798C14.7595 17.9007 15.0022 17.9753 15.2542 18.022C15.5062 18.0687 15.7722 18.092 16.0522 18.092C16.5002 18.092 16.8642 18.0267 17.1442 17.896C17.4335 17.7747 17.6435 17.5833 17.7742 17.322C17.9142 17.0607 17.9842 16.7247 17.9842 16.314V15.138L18.5302 15.208C18.4648 15.516 18.3062 15.796 18.0542 16.048C17.8022 16.2907 17.4848 16.4867 17.1022 16.636C16.7288 16.776 16.3368 16.846 15.9262 16.846C15.2542 16.846 14.6615 16.6967 14.1482 16.398C13.6348 16.09 13.2288 15.6653 12.9302 15.124C12.6315 14.5827 12.4822 13.948 12.4822 13.22C12.4822 12.464 12.6268 11.8013 12.9162 11.232C13.2148 10.6533 13.6162 10.2007 14.1202 9.874C14.6242 9.54733 15.2028 9.384 15.8562 9.384C16.1362 9.384 16.4022 9.412 16.6542 9.468C16.9062 9.524 17.1395 9.60333 17.3542 9.706C17.5782 9.80867 17.7742 9.93467 17.9422 10.084C18.1102 10.224 18.2455 10.378 18.3482 10.546C18.4602 10.714 18.5348 10.8913 18.5722 11.078L18.0402 11.204L18.1662 9.538H20.6022V16.314C20.6022 16.9393 20.5088 17.49 20.3222 17.966C20.1355 18.4513 19.8602 18.862 19.4962 19.198C19.1415 19.534 18.7075 19.786 18.1942 19.954C17.6902 20.1313 17.1162 20.22 16.4722 20.22ZM16.5422 14.942C16.8595 14.942 17.1302 14.872 17.3542 14.732C17.5782 14.592 17.7508 14.396 17.8722 14.144C17.9935 13.892 18.0542 13.5887 18.0542 13.234C18.0542 12.8793 17.9935 12.576 17.8722 12.324C17.7508 12.0627 17.5782 11.8667 17.3542 11.736C17.1302 11.596 16.8595 11.526 16.5422 11.526C16.2248 11.526 15.9542 11.596 15.7302 11.736C15.5062 11.8667 15.3335 12.0627 15.2122 12.324C15.1002 12.576 15.0442 12.8793 15.0442 13.234C15.0442 13.5887 15.1002 13.892 15.2122 14.144C15.3335 14.396 15.5062 14.592 15.7302 14.732C15.9542 14.872 16.2248 14.942 16.5422 14.942Z" fill="#888888"/>
</svg>
