<svg width="24" height="24" viewBox="0 0 24 24" fill="none" xmlns="http://www.w3.org/2000/svg">
<g clip-path="url(#clip0_246_231)">
<path d="M1.33664 17L6.09664 7.2H7.10464L11.8226 17H11.0246L7.37064 9.384C7.21197 9.01067 7.09064 8.74 7.00664 8.572C6.93197 8.404 6.86664 8.278 6.81064 8.194C6.76397 8.11 6.71731 8.01667 6.67064 7.914C6.62397 7.802 6.55864 7.62 6.47464 7.368H6.67064C6.56797 7.676 6.48397 7.9 6.41864 8.04C6.36264 8.17067 6.30664 8.28267 6.25064 8.376C6.19464 8.46933 6.12931 8.59067 6.05464 8.74C5.97997 8.88933 5.87264 9.132 5.73264 9.468L2.07864 17H1.33664ZM3.21264 14.172L3.52064 13.486H9.69464L9.84864 14.172H3.21264ZM18.2023 20.22C17.3996 20.22 16.7183 20.122 16.1583 19.926C15.6076 19.73 15.1456 19.5293 14.7723 19.324L15.0663 18.624C15.2903 18.764 15.5563 18.904 15.8643 19.044C16.1723 19.184 16.5223 19.296 16.9143 19.38C17.3063 19.4733 17.7449 19.52 18.2303 19.52C18.8556 19.52 19.4109 19.4033 19.8963 19.17C20.3909 18.9367 20.7783 18.568 21.0583 18.064C21.3383 17.56 21.4783 16.902 21.4783 16.09V14.998L21.7023 14.844C21.4689 15.3293 21.1469 15.7447 20.7363 16.09C20.3349 16.426 19.8589 16.678 19.3083 16.846C18.7576 17.014 18.1416 17.098 17.4603 17.098C16.6576 17.098 15.9436 16.9393 15.3183 16.622C14.6929 16.2953 14.2029 15.8473 13.8483 15.278C13.5029 14.6993 13.3303 14.046 13.3303 13.318C13.3303 12.59 13.5169 11.9413 13.8903 11.372C14.2636 10.7933 14.7676 10.3407 15.4023 10.014C16.0463 9.68733 16.7743 9.524 17.5863 9.524C17.9223 9.524 18.2629 9.552 18.6083 9.608C18.9536 9.664 19.2849 9.75267 19.6023 9.874C19.9196 9.986 20.2136 10.1353 20.4843 10.322C20.7643 10.5087 21.0069 10.7327 21.2123 10.994C21.4269 11.246 21.5996 11.54 21.7303 11.876L21.4083 11.708L21.4783 9.72H22.1783V15.992C22.1783 16.7573 22.0663 17.406 21.8423 17.938C21.6183 18.4793 21.3149 18.918 20.9323 19.254C20.5589 19.59 20.1343 19.8327 19.6583 19.982C19.1823 20.1407 18.6969 20.22 18.2023 20.22ZM17.6983 16.398C18.4636 16.398 19.1263 16.2627 19.6863 15.992C20.2556 15.7213 20.6989 15.3573 21.0163 14.9C21.3336 14.4427 21.4923 13.9247 21.4923 13.346C21.4829 12.7207 21.3196 12.1747 21.0023 11.708C20.6849 11.2413 20.2416 10.8773 19.6723 10.616C19.1123 10.3547 18.4589 10.224 17.7123 10.224C17.0309 10.224 16.4149 10.3547 15.8643 10.616C15.3229 10.8773 14.8889 11.2413 14.5623 11.708C14.2449 12.1653 14.0816 12.6973 14.0723 13.304C14.0723 13.9013 14.2263 14.4333 14.5343 14.9C14.8516 15.3667 15.2809 15.7353 15.8223 16.006C16.3729 16.2673 16.9983 16.398 17.6983 16.398Z" fill="#888888"/>
</g>
<defs>
<clipPath id="clip0_246_231">
<rect width="24" height="24" fill="white"/>
</clipPath>
</defs>
</svg>
