<svg width="24" height="24" viewBox="0 0 24 24" fill="none" xmlns="http://www.w3.org/2000/svg">
<path d="M2.22833 17L6.37233 7.2H7.33833L11.4403 17H10.6423L7.66033 9.888C7.539 9.56133 7.43633 9.3 7.35233 9.104C7.27766 8.89867 7.20766 8.71667 7.14233 8.558C7.07699 8.39933 7.01166 8.23133 6.94633 8.054C6.881 7.86733 6.80166 7.63867 6.70833 7.368H6.93233C6.83899 7.68533 6.75499 7.942 6.68033 8.138C6.60566 8.334 6.53099 8.51133 6.45633 8.67C6.391 8.82867 6.31633 9.006 6.23233 9.202C6.15766 9.398 6.05966 9.65467 5.93833 9.972L2.95633 17H2.22833ZM3.89433 14.102L4.18833 13.402H9.52233L9.74633 14.102H3.89433ZM17.095 20.22C16.4417 20.22 15.8677 20.1267 15.373 19.94C14.8877 19.7627 14.4723 19.562 14.127 19.338L14.435 18.666C14.6403 18.8153 14.8737 18.9507 15.135 19.072C15.4057 19.2027 15.709 19.31 16.045 19.394C16.381 19.478 16.745 19.52 17.137 19.52C17.725 19.52 18.2383 19.4033 18.677 19.17C19.1157 18.946 19.4563 18.596 19.699 18.12C19.951 17.644 20.077 17.042 20.077 16.314V15.054L20.287 14.886C20.1097 15.334 19.853 15.726 19.517 16.062C19.181 16.398 18.775 16.6593 18.299 16.846C17.823 17.0327 17.3003 17.126 16.731 17.126C16.0123 17.126 15.373 16.9627 14.813 16.636C14.253 16.3093 13.8097 15.8613 13.483 15.292C13.1563 14.7227 12.993 14.074 12.993 13.346C12.993 12.6087 13.161 11.9553 13.497 11.386C13.833 10.8167 14.2857 10.3687 14.855 10.042C15.4243 9.71533 16.0683 9.552 16.787 9.552C17.095 9.552 17.403 9.58933 17.711 9.664C18.019 9.72933 18.3037 9.82267 18.565 9.944C18.8357 10.0653 19.083 10.2193 19.307 10.406C19.531 10.5927 19.727 10.8073 19.895 11.05C20.063 11.2833 20.1983 11.5447 20.301 11.834L20.007 11.652L20.077 9.72H20.777V16.328C20.777 16.9907 20.679 17.5647 20.483 18.05C20.2963 18.5353 20.035 18.9367 19.699 19.254C19.363 19.5713 18.9663 19.8093 18.509 19.968C18.061 20.136 17.5897 20.22 17.095 20.22ZM16.885 16.426C17.5103 16.426 18.061 16.2953 18.537 16.034C19.0223 15.7633 19.4003 15.3993 19.671 14.942C19.951 14.4753 20.091 13.9433 20.091 13.346C20.091 12.7393 19.951 12.2027 19.671 11.736C19.4003 11.2693 19.0223 10.9053 18.537 10.644C18.061 10.3827 17.515 10.252 16.899 10.252C16.2923 10.252 15.751 10.3873 15.275 10.658C14.799 10.9193 14.421 11.2833 14.141 11.75C13.8703 12.2073 13.735 12.7347 13.735 13.332C13.735 13.92 13.8703 14.4473 14.141 14.914C14.4117 15.3807 14.7803 15.7493 15.247 16.02C15.723 16.2907 16.269 16.426 16.885 16.426Z" fill="#888888"/>
</svg>
