<svg width="24" height="24" viewBox="0 0 24 24" fill="none" xmlns="http://www.w3.org/2000/svg">
<g clip-path="url(#clip0_201_4297)">
<path d="M9.44686 17L8.36886 14.662H3.06286L1.98486 17H0.402859L4.91086 7.2H6.61886L11.0989 17H9.44686ZM4.95286 10.546L3.73486 13.206H7.71086L6.45086 10.49C6.32019 10.2007 6.19419 9.916 6.07286 9.636C5.95153 9.356 5.83486 9.05733 5.72286 8.74C5.59219 9.06667 5.46153 9.37933 5.33086 9.678C5.20953 9.96733 5.08353 10.2567 4.95286 10.546ZM15.3323 18.162C15.631 18.33 16.023 18.498 16.5083 18.666C17.003 18.8433 17.5723 18.932 18.2163 18.932C19.019 18.932 19.663 18.708 20.1483 18.26C20.6337 17.812 20.8763 17.1633 20.8763 16.314V15.754C20.727 15.9873 20.4843 16.2113 20.1483 16.426C19.8123 16.6313 19.4157 16.804 18.9583 16.944C18.5103 17.0747 18.0343 17.14 17.5303 17.14C16.7277 17.14 16.0183 16.9767 15.4023 16.65C14.7957 16.3233 14.3197 15.8707 13.9743 15.292C13.629 14.7133 13.4563 14.0553 13.4563 13.318C13.4563 12.5713 13.6383 11.9133 14.0023 11.344C14.3663 10.7653 14.8657 10.3127 15.5003 9.986C16.135 9.65933 16.8677 9.496 17.6983 9.496C18.4263 9.496 19.0703 9.622 19.6303 9.874C20.1997 10.126 20.615 10.4013 20.8763 10.7V9.65H22.3183V16.146C22.3183 16.8553 22.2063 17.4667 21.9823 17.98C21.7583 18.4933 21.4503 18.9133 21.0583 19.24C20.6757 19.576 20.237 19.8233 19.7423 19.982C19.257 20.1407 18.7483 20.22 18.2163 20.22C17.4603 20.22 16.793 20.1313 16.2143 19.954C15.6357 19.786 15.169 19.5807 14.8143 19.338L15.3323 18.162ZM17.9923 10.812C17.395 10.812 16.863 10.924 16.3963 11.148C15.939 11.3627 15.5797 11.6613 15.3183 12.044C15.057 12.4173 14.9263 12.842 14.9263 13.318C14.9263 13.794 15.057 14.2187 15.3183 14.592C15.5797 14.9653 15.939 15.264 16.3963 15.488C16.863 15.7027 17.395 15.81 17.9923 15.81C18.5803 15.81 19.0937 15.7027 19.5323 15.488C19.971 15.2733 20.3117 14.9793 20.5543 14.606C20.8063 14.2233 20.9323 13.794 20.9323 13.318C20.9323 12.8327 20.8063 12.4033 20.5543 12.03C20.3117 11.6567 19.971 11.3627 19.5323 11.148C19.0937 10.924 18.5803 10.812 17.9923 10.812Z" fill="#333333"/>
</g>
<defs>
<clipPath id="clip0_201_4297">
<rect width="24" height="24" fill="white"/>
</clipPath>
</defs>
</svg>
