<svg width="24" height="24" viewBox="0 0 24 24" fill="none" xmlns="http://www.w3.org/2000/svg">
<g clip-path="url(#clip0_246_201)">
<path d="M0.823836 17L5.48584 7.2H7.68384L12.3318 17H9.88184L7.19384 11.358C7.1005 11.1433 7.00717 10.9427 6.91384 10.756C6.82984 10.5693 6.7505 10.3873 6.67584 10.21C6.6105 10.0233 6.54517 9.83667 6.47984 9.65C6.4145 9.46333 6.35384 9.27667 6.29784 9.09L6.81584 9.076C6.7505 9.28133 6.68517 9.482 6.61984 9.678C6.5545 9.86467 6.47984 10.0513 6.39584 10.238C6.31184 10.4247 6.22784 10.6113 6.14384 10.798C6.05984 10.9753 5.97584 11.1667 5.89184 11.372L3.21784 17H0.823836ZM2.99384 15.236L3.76384 13.444H9.36384L9.76984 15.236H2.99384ZM18.1414 20.22C17.2734 20.22 16.5034 20.1267 15.8314 19.94C15.1687 19.7533 14.6321 19.5293 14.2214 19.268L14.9914 17.63C15.1967 17.7233 15.4347 17.826 15.7054 17.938C15.9854 18.05 16.3027 18.148 16.6574 18.232C17.0121 18.316 17.4134 18.358 17.8614 18.358C18.3467 18.358 18.7714 18.2647 19.1354 18.078C19.4994 17.9007 19.7794 17.6393 19.9754 17.294C20.1714 16.9487 20.2694 16.5147 20.2694 15.992V15.194L20.6894 15.264C20.6147 15.5627 20.4047 15.838 20.0594 16.09C19.7141 16.342 19.2801 16.5473 18.7574 16.706C18.2441 16.8647 17.6841 16.944 17.0774 16.944C16.2841 16.944 15.5841 16.79 14.9774 16.482C14.3801 16.174 13.9134 15.74 13.5774 15.18C13.2507 14.62 13.0874 13.976 13.0874 13.248C13.0874 12.492 13.2601 11.8293 13.6054 11.26C13.9601 10.6813 14.4501 10.2287 15.0754 9.902C15.7007 9.57533 16.4241 9.412 17.2454 9.412C17.4787 9.412 17.7447 9.44 18.0434 9.496C18.3421 9.54267 18.6454 9.61267 18.9534 9.706C19.2707 9.79933 19.5647 9.916 19.8354 10.056C20.1061 10.196 20.3254 10.3593 20.4934 10.546C20.6707 10.7233 20.7594 10.9193 20.7594 11.134L20.3114 11.246L20.3954 9.566H22.5234V15.95C22.5234 16.6593 22.4021 17.28 22.1594 17.812C21.9261 18.3533 21.6041 18.8013 21.1934 19.156C20.7921 19.5107 20.3301 19.7767 19.8074 19.954C19.2847 20.1313 18.7294 20.22 18.1414 20.22ZM17.8894 15.208C18.3841 15.208 18.8134 15.1287 19.1774 14.97C19.5414 14.802 19.8214 14.5733 20.0174 14.284C20.2227 13.9853 20.3254 13.6447 20.3254 13.262C20.3254 12.87 20.2274 12.5293 20.0314 12.24C19.8354 11.9507 19.5554 11.722 19.1914 11.554C18.8274 11.386 18.3934 11.302 17.8894 11.302C17.3761 11.302 16.9234 11.386 16.5314 11.554C16.1487 11.722 15.8501 11.9507 15.6354 12.24C15.4207 12.5293 15.3134 12.87 15.3134 13.262C15.3134 13.6447 15.4207 13.9853 15.6354 14.284C15.8501 14.5733 16.1487 14.802 16.5314 14.97C16.9234 15.1287 17.3761 15.208 17.8894 15.208Z" fill="#888888"/>
</g>
<defs>
<clipPath id="clip0_246_201">
<rect width="24" height="24" fill="white"/>
</clipPath>
</defs>
</svg>
