<svg width="24" height="24" viewBox="0 0 24 24" fill="none" xmlns="http://www.w3.org/2000/svg">
<path d="M9.96109 17L9.03709 14.564H4.93509L4.01109 17H2.47109L6.26509 7.2H7.80509L11.5711 17H9.96109ZM6.23709 11.148L5.49509 13.108H8.49109L7.72109 11.092C7.59976 10.7653 7.47843 10.4153 7.35709 10.042C7.23576 9.65933 7.11443 9.27667 6.99309 8.894C6.86243 9.286 6.73176 9.678 6.60109 10.07C6.47976 10.462 6.35843 10.8213 6.23709 11.148ZM13.8031 18.218C14.0831 18.4327 14.4331 18.6053 14.8531 18.736C15.2731 18.8667 15.6838 18.932 16.0851 18.932C16.8411 18.932 17.4198 18.7453 17.8211 18.372C18.2224 18.008 18.4231 17.4573 18.4231 16.72V15.824C18.2924 16.048 18.1058 16.2627 17.8631 16.468C17.6204 16.664 17.3358 16.8273 17.0091 16.958C16.6824 17.0793 16.3418 17.14 15.9871 17.14C15.3058 17.14 14.6898 16.9767 14.1391 16.65C13.5884 16.3233 13.1498 15.8707 12.8231 15.292C12.5058 14.7133 12.3471 14.0553 12.3471 13.318C12.3471 12.5713 12.5058 11.9133 12.8231 11.344C13.1404 10.7653 13.5698 10.3127 14.1111 9.986C14.6618 9.65933 15.2731 9.496 15.9451 9.496C16.5051 9.496 16.9998 9.622 17.4291 9.874C17.8678 10.1167 18.1991 10.3827 18.4231 10.672V9.65H19.8651V16.552C19.8651 17.4293 19.6878 18.134 19.3331 18.666C18.9878 19.2073 18.5258 19.5993 17.9471 19.842C17.3778 20.094 16.7571 20.22 16.0851 20.22C15.5624 20.22 15.0398 20.136 14.5171 19.968C14.0038 19.8093 13.5884 19.5993 13.2711 19.338L13.8031 18.218ZM16.1411 10.812C15.6931 10.812 15.2918 10.924 14.9371 11.148C14.5918 11.3627 14.3164 11.6613 14.1111 12.044C13.9151 12.4173 13.8171 12.842 13.8171 13.318C13.8171 13.794 13.9151 14.2187 14.1111 14.592C14.3164 14.9653 14.5918 15.264 14.9371 15.488C15.2918 15.7027 15.6931 15.81 16.1411 15.81C16.6078 15.81 17.0138 15.7027 17.3591 15.488C17.7138 15.2733 17.9891 14.9793 18.1851 14.606C18.3811 14.2233 18.4791 13.794 18.4791 13.318C18.4791 12.8327 18.3811 12.4033 18.1851 12.03C17.9891 11.6567 17.7138 11.3627 17.3591 11.148C17.0138 10.924 16.6078 10.812 16.1411 10.812Z" fill="#333333"/>
</svg>
