<svg width="24" height="24" viewBox="0 0 24 24" fill="none" xmlns="http://www.w3.org/2000/svg">
<g clip-path="url(#clip0_246_233)">
<path d="M0.494515 17L5.26852 7.2H6.64052L11.3725 17H10.1545L6.66852 9.804C6.54718 9.524 6.44452 9.3 6.36052 9.132C6.28585 8.964 6.21585 8.81933 6.15052 8.698C6.08518 8.57667 6.01985 8.44133 5.95452 8.292C5.89852 8.14267 5.83318 7.95133 5.75852 7.718L6.08052 7.704C5.97785 7.97467 5.88918 8.194 5.81452 8.362C5.74918 8.52067 5.68385 8.67 5.61852 8.81C5.55318 8.94067 5.47852 9.08533 5.39452 9.244C5.31985 9.40267 5.22185 9.61267 5.10052 9.874L1.64252 17H0.494515ZM2.46852 14.438L2.91652 13.374H8.90852L9.10452 14.438H2.46852ZM17.9256 20.22C17.1043 20.22 16.4043 20.1267 15.8256 19.94C15.2469 19.7533 14.7709 19.5527 14.3976 19.338L14.7896 18.386C15.0136 18.5073 15.2749 18.6333 15.5736 18.764C15.8723 18.8947 16.2176 19.0067 16.6096 19.1C17.0109 19.1933 17.4543 19.24 17.9396 19.24C18.5276 19.24 19.0503 19.128 19.5076 18.904C19.9649 18.68 20.3196 18.3347 20.5716 17.868C20.8329 17.4107 20.9636 16.8273 20.9636 16.118V15.138L21.1456 15.11C21.0056 15.4927 20.7396 15.838 20.3476 16.146C19.9556 16.4447 19.4796 16.6827 18.9196 16.86C18.3689 17.028 17.7623 17.112 17.0996 17.112C16.2783 17.112 15.5503 16.9533 14.9156 16.636C14.2903 16.3093 13.8003 15.8613 13.4456 15.292C13.0909 14.7133 12.9136 14.0553 12.9136 13.318C12.9136 12.5807 13.1003 11.9273 13.4736 11.358C13.8563 10.7793 14.3743 10.3267 15.0276 10C15.6903 9.67333 16.4416 9.51 17.2816 9.51C17.5616 9.51 17.8649 9.538 18.1916 9.594C18.5276 9.65 18.8589 9.734 19.1856 9.846C19.5123 9.958 19.8203 10.098 20.1096 10.266C20.3989 10.434 20.6416 10.63 20.8376 10.854C21.0429 11.0687 21.1783 11.3113 21.2436 11.582L20.9216 11.554L20.9636 9.692H22.0136V15.992C22.0136 16.7387 21.8969 17.378 21.6636 17.91C21.4396 18.442 21.1316 18.876 20.7396 19.212C20.3569 19.5573 19.9183 19.8093 19.4236 19.968C18.9383 20.136 18.4389 20.22 17.9256 20.22ZM17.5056 16.118C18.2056 16.118 18.8169 15.9967 19.3396 15.754C19.8623 15.502 20.2683 15.1707 20.5576 14.76C20.8469 14.34 20.9916 13.864 20.9916 13.332C20.9916 12.772 20.8423 12.282 20.5436 11.862C20.2543 11.442 19.8483 11.1107 19.3256 10.868C18.8123 10.6253 18.2103 10.504 17.5196 10.504C16.8476 10.504 16.2456 10.6253 15.7136 10.868C15.1909 11.1107 14.7756 11.442 14.4676 11.862C14.1596 12.282 14.0056 12.7673 14.0056 13.318C14.0056 13.85 14.1549 14.326 14.4536 14.746C14.7523 15.166 15.1676 15.502 15.6996 15.754C16.2316 15.9967 16.8336 16.118 17.5056 16.118Z" fill="#888888"/>
</g>
<defs>
<clipPath id="clip0_246_233">
<rect width="24" height="24" fill="white"/>
</clipPath>
</defs>
</svg>
