<svg width="24" height="24" viewBox="0 0 24 24" fill="none" xmlns="http://www.w3.org/2000/svg">
<g clip-path="url(#clip0_246_199)">
<path d="M0.962133 17L5.68013 7.2H8.24213L12.9461 17H9.90813L7.50013 12.044C7.38813 11.8013 7.28547 11.5867 7.19213 11.4C7.10813 11.204 7.03347 11.0173 6.96813 10.84C6.91213 10.6627 6.85613 10.49 6.80013 10.322C6.74413 10.1447 6.6928 9.96267 6.64613 9.776H7.22013C7.17347 9.972 7.11747 10.1633 7.05213 10.35C6.99613 10.5273 6.9308 10.7047 6.85613 10.882C6.78147 11.0593 6.70213 11.2413 6.61813 11.428C6.53413 11.6147 6.4408 11.82 6.33813 12.044L3.94413 17H0.962133ZM3.24413 15.656L4.15413 13.598H9.79613L10.2721 15.656H3.24413ZM18.617 20.22C17.6837 20.22 16.853 20.122 16.125 19.926C15.397 19.73 14.8043 19.492 14.347 19.212L15.299 17.238C15.5137 17.3313 15.7517 17.4293 16.013 17.532C16.2837 17.644 16.587 17.7373 16.923 17.812C17.2683 17.8867 17.665 17.924 18.113 17.924C18.5703 17.924 18.9623 17.8447 19.289 17.686C19.625 17.5273 19.877 17.294 20.045 16.986C20.2223 16.6687 20.311 16.2673 20.311 15.782V15.11L20.941 15.166C20.8477 15.474 20.6283 15.7493 20.283 15.992C19.947 16.2347 19.5223 16.4307 19.009 16.58C18.4957 16.72 17.931 16.79 17.315 16.79C16.5403 16.79 15.859 16.6453 15.271 16.356C14.683 16.0573 14.2257 15.6373 13.899 15.096C13.5817 14.5547 13.423 13.92 13.423 13.192C13.423 12.4267 13.591 11.7593 13.927 11.19C14.2723 10.6113 14.7483 10.1633 15.355 9.846C15.9617 9.51933 16.6663 9.356 17.469 9.356C17.7023 9.356 17.9637 9.37933 18.253 9.426C18.5517 9.46333 18.855 9.524 19.163 9.608C19.471 9.692 19.7557 9.804 20.017 9.944C20.2877 10.0747 20.507 10.2333 20.675 10.42C20.8523 10.5973 20.9457 10.8027 20.955 11.036L20.381 11.162L20.535 9.51H23.167V15.824C23.167 16.5613 23.0457 17.2053 22.803 17.756C22.5603 18.3067 22.229 18.764 21.809 19.128C21.389 19.492 20.9037 19.7627 20.353 19.94C19.8117 20.1267 19.233 20.22 18.617 20.22ZM18.365 14.76C18.785 14.76 19.1443 14.6993 19.443 14.578C19.7417 14.4567 19.9703 14.2793 20.129 14.046C20.297 13.8127 20.381 13.5373 20.381 13.22C20.381 12.8933 20.3017 12.618 20.143 12.394C19.9843 12.1607 19.7557 11.9833 19.457 11.862C19.1583 11.7313 18.7943 11.666 18.365 11.666C17.917 11.666 17.5297 11.7313 17.203 11.862C16.8857 11.9833 16.6383 12.1607 16.461 12.394C16.293 12.618 16.209 12.8933 16.209 13.22C16.209 13.5373 16.293 13.8127 16.461 14.046C16.6383 14.2793 16.8857 14.4567 17.203 14.578C17.5297 14.6993 17.917 14.76 18.365 14.76Z" fill="#888888"/>
</g>
<defs>
<clipPath id="clip0_246_199">
<rect width="24" height="24" fill="white"/>
</clipPath>
</defs>
</svg>
