<svg width="24" height="24" viewBox="0 0 24 24" fill="none" xmlns="http://www.w3.org/2000/svg">
<g clip-path="url(#clip0_246_241)">
<path d="M1.61593 17L6.43193 7.2H6.86593L11.6959 17H11.3319L7.46793 9.104C7.4026 8.97333 7.3326 8.838 7.25793 8.698C7.1926 8.54867 7.1226 8.404 7.04793 8.264C6.97326 8.11467 6.8986 7.97 6.82393 7.83C6.7586 7.69 6.6886 7.55467 6.61393 7.424H6.65593C6.5906 7.564 6.5206 7.704 6.44593 7.844C6.3806 7.984 6.3106 8.12867 6.23593 8.278C6.1706 8.418 6.1006 8.558 6.02593 8.698C5.9606 8.838 5.8906 8.978 5.81593 9.118L1.96593 17H1.61593ZM3.33793 13.906L3.49193 13.598H9.86193L10.0019 13.906H3.33793ZM18.0037 20.36C17.3037 20.36 16.669 20.2573 16.0997 20.052C15.5397 19.8467 15.087 19.5993 14.7417 19.31L14.8677 19.002C15.1197 19.2073 15.3997 19.3893 15.7077 19.548C16.0157 19.7067 16.3564 19.828 16.7297 19.912C17.1124 20.0053 17.5277 20.052 17.9757 20.052C18.5917 20.052 19.1704 19.9213 19.7117 19.66C20.2624 19.3987 20.7057 18.988 21.0417 18.428C21.387 17.8773 21.5597 17.1633 21.5597 16.286V14.438H21.7277C21.4477 15.0633 21.1024 15.572 20.6917 15.964C20.281 16.3467 19.8097 16.6267 19.2777 16.804C18.7457 16.9813 18.1484 17.07 17.4857 17.07C16.6644 17.07 15.9317 16.9113 15.2877 16.594C14.653 16.2767 14.1537 15.838 13.7897 15.278C13.435 14.7087 13.2577 14.06 13.2577 13.332C13.2577 12.604 13.4444 11.9507 13.8177 11.372C14.191 10.7933 14.695 10.3407 15.3297 10.014C15.9737 9.678 16.6924 9.51 17.4857 9.51C17.8777 9.51 18.251 9.54267 18.6057 9.608C18.9697 9.67333 19.3057 9.776 19.6137 9.916C19.931 10.056 20.2204 10.2333 20.4817 10.448C20.743 10.6533 20.9764 10.9053 21.1817 11.204C21.3964 11.5027 21.5784 11.8433 21.7277 12.226L21.5597 12.212L21.5877 9.65H21.8677V16.146C21.8677 16.9207 21.7557 17.574 21.5317 18.106C21.317 18.6473 21.023 19.0813 20.6497 19.408C20.2857 19.744 19.8704 19.9867 19.4037 20.136C18.9464 20.2853 18.4797 20.36 18.0037 20.36ZM17.4857 16.762C18.3164 16.762 19.035 16.6127 19.6417 16.314C20.2484 16.0153 20.7197 15.6093 21.0557 15.096C21.3917 14.5827 21.5597 14.004 21.5597 13.36C21.5504 12.6507 21.373 12.03 21.0277 11.498C20.6824 10.966 20.2064 10.5553 19.5997 10.266C18.993 9.96733 18.2884 9.818 17.4857 9.818C16.7577 9.818 16.095 9.96733 15.4977 10.266C14.9097 10.5553 14.443 10.966 14.0977 11.498C13.7524 12.0207 13.575 12.632 13.5657 13.332C13.5657 14.004 13.7337 14.6013 14.0697 15.124C14.415 15.6373 14.8817 16.0387 15.4697 16.328C16.067 16.6173 16.739 16.762 17.4857 16.762Z" fill="#888888"/>
</g>
<defs>
<clipPath id="clip0_246_241">
<rect width="24" height="24" fill="white"/>
</clipPath>
</defs>
</svg>
