<svg width="24" height="24" viewBox="0 0 24 24" fill="none" xmlns="http://www.w3.org/2000/svg">
<path d="M2.1702 17L6.1042 7.2H8.4842L12.3902 17H9.3942L7.8262 12.716C7.72353 12.4267 7.63486 12.1793 7.5602 11.974C7.48553 11.7687 7.4202 11.5773 7.3642 11.4C7.3082 11.2133 7.2522 11.0173 7.1962 10.812C7.1402 10.5973 7.0842 10.3453 7.0282 10.056H7.5042C7.4482 10.3453 7.3922 10.5973 7.3362 10.812C7.2802 11.0173 7.21953 11.2133 7.1542 11.4C7.0982 11.5773 7.0282 11.7687 6.9442 11.974C6.86953 12.1793 6.78086 12.4267 6.6782 12.716L5.1102 17H2.1702ZM4.1302 15.544L5.0122 13.486H9.5622L10.3602 15.544H4.1302ZM16.4455 20.22C15.7735 20.22 15.1062 20.1267 14.4435 19.94C13.7902 19.7533 13.2535 19.5107 12.8335 19.212L13.7995 17.308C14.0048 17.4387 14.2195 17.5507 14.4435 17.644C14.6675 17.7373 14.9008 17.8073 15.1435 17.854C15.3955 17.9007 15.6615 17.924 15.9415 17.924C16.3802 17.924 16.7348 17.8633 17.0055 17.742C17.2762 17.63 17.4722 17.448 17.5935 17.196C17.7242 16.944 17.7895 16.622 17.7895 16.23V15.11L18.4195 15.166C18.3448 15.4833 18.1815 15.7633 17.9295 16.006C17.6775 16.2487 17.3648 16.44 16.9915 16.58C16.6182 16.72 16.2215 16.79 15.8015 16.79C15.1388 16.79 14.5508 16.6407 14.0375 16.342C13.5335 16.0433 13.1322 15.628 12.8335 15.096C12.5442 14.5547 12.3995 13.92 12.3995 13.192C12.3995 12.436 12.5442 11.7733 12.8335 11.204C13.1228 10.6253 13.5148 10.1727 14.0095 9.846C14.5135 9.51933 15.0875 9.356 15.7315 9.356C16.0115 9.356 16.2775 9.384 16.5295 9.44C16.7815 9.496 17.0148 9.57533 17.2295 9.678C17.4442 9.77133 17.6355 9.888 17.8035 10.028C17.9715 10.168 18.1068 10.322 18.2095 10.49C18.3215 10.658 18.3962 10.84 18.4335 11.036L17.8595 11.162L18.0135 9.51H20.6455V16.272C20.6455 16.8973 20.5475 17.4527 20.3515 17.938C20.1648 18.4327 19.8895 18.848 19.5255 19.184C19.1615 19.5293 18.7182 19.786 18.1955 19.954C17.6822 20.1313 17.0988 20.22 16.4455 20.22ZM16.5155 14.76C16.8048 14.76 17.0475 14.6993 17.2435 14.578C17.4488 14.4567 17.6028 14.284 17.7055 14.06C17.8082 13.8267 17.8595 13.5467 17.8595 13.22C17.8595 12.8933 17.8082 12.6133 17.7055 12.38C17.6028 12.1467 17.4488 11.9693 17.2435 11.848C17.0475 11.7267 16.8048 11.666 16.5155 11.666C16.2262 11.666 15.9835 11.7267 15.7875 11.848C15.5915 11.9693 15.4422 12.1467 15.3395 12.38C15.2368 12.6133 15.1855 12.8933 15.1855 13.22C15.1855 13.5467 15.2368 13.8267 15.3395 14.06C15.4422 14.284 15.5915 14.4567 15.7875 14.578C15.9835 14.6993 16.2262 14.76 16.5155 14.76Z" fill="#888888"/>
</svg>
