<svg width="24" height="24" viewBox="0 0 24 24" fill="none" xmlns="http://www.w3.org/2000/svg">
<g clip-path="url(#clip0_246_29)">
<path d="M1.07283 17L5.62283 7.2H7.66683L12.2028 17H10.0048L7.27483 11.12C7.19083 10.9333 7.10683 10.7467 7.02283 10.56C6.93883 10.364 6.85949 10.168 6.78483 9.972C6.71016 9.776 6.63549 9.58 6.56083 9.384C6.49549 9.188 6.43483 8.99667 6.37883 8.81L6.84083 8.796C6.78483 9.00133 6.71949 9.20667 6.64483 9.412C6.57016 9.608 6.49083 9.804 6.40683 10C6.33216 10.1867 6.25283 10.378 6.16883 10.574C6.08483 10.7607 5.99616 10.9567 5.90283 11.162L3.18683 17H1.07283ZM3.14483 15.04L3.85883 13.346H9.33283L9.73883 15.04H3.14483ZM18.1876 20.22C17.3756 20.22 16.6523 20.1267 16.0176 19.94C15.3923 19.7627 14.8789 19.548 14.4776 19.296L15.1636 17.812C15.3689 17.9053 15.6116 18.008 15.8916 18.12C16.1716 18.2413 16.4843 18.3393 16.8296 18.414C17.1843 18.498 17.5716 18.54 17.9916 18.54C18.4956 18.54 18.9343 18.4467 19.3076 18.26C19.6809 18.0827 19.9656 17.812 20.1616 17.448C20.3669 17.0933 20.4696 16.65 20.4696 16.118V15.236L20.8056 15.306C20.7403 15.5953 20.5396 15.8707 20.2036 16.132C19.8676 16.3933 19.4429 16.6033 18.9296 16.762C18.4256 16.9207 17.8796 17 17.2916 17C16.5169 17 15.8263 16.846 15.2196 16.538C14.6223 16.2207 14.1556 15.782 13.8196 15.222C13.4836 14.6527 13.3156 14.004 13.3156 13.276C13.3156 12.52 13.4929 11.8573 13.8476 11.288C14.2023 10.7093 14.6876 10.2567 15.3036 9.93C15.9289 9.60333 16.6429 9.44 17.4456 9.44C17.6789 9.44 17.9449 9.468 18.2436 9.524C18.5423 9.58 18.8409 9.65933 19.1396 9.762C19.4476 9.86467 19.7323 9.986 19.9936 10.126C20.2643 10.2567 20.4789 10.4153 20.6376 10.602C20.8056 10.7793 20.8943 10.9707 20.9036 11.176L20.4976 11.288L20.5536 9.594H22.4576V16.034C22.4576 16.734 22.3409 17.3453 22.1076 17.868C21.8836 18.4 21.5756 18.8387 21.1836 19.184C20.8009 19.5293 20.3483 19.786 19.8256 19.954C19.3123 20.1313 18.7663 20.22 18.1876 20.22ZM17.9776 15.404C18.4909 15.404 18.9389 15.3153 19.3216 15.138C19.7043 14.9607 19.9983 14.7133 20.2036 14.396C20.4183 14.0693 20.5256 13.696 20.5256 13.276C20.5256 12.856 20.4183 12.4873 20.2036 12.17C19.9983 11.8527 19.7043 11.6053 19.3216 11.428C18.9483 11.2413 18.5003 11.148 17.9776 11.148C17.4456 11.148 16.9743 11.2413 16.5636 11.428C16.1623 11.6053 15.8496 11.8527 15.6256 12.17C15.4016 12.4873 15.2896 12.856 15.2896 13.276C15.2896 13.6867 15.4016 14.0553 15.6256 14.382C15.8496 14.6993 16.1623 14.9513 16.5636 15.138C16.9743 15.3153 17.4456 15.404 17.9776 15.404Z" fill="#888888"/>
</g>
<defs>
<clipPath id="clip0_246_29">
<rect width="24" height="24" fill="white"/>
</clipPath>
</defs>
</svg>
