<svg width="24" height="24" viewBox="0 0 24 24" fill="none" xmlns="http://www.w3.org/2000/svg">
<path d="M1.01815 17L5.47015 7.2H7.33215L11.7561 17H9.82415L7.05215 10.896C6.98682 10.728 6.91215 10.546 6.82815 10.35C6.74415 10.1447 6.66015 9.93933 6.57615 9.734C6.49215 9.52867 6.41282 9.32333 6.33815 9.118C6.26348 8.90333 6.19815 8.712 6.14215 8.544L6.57615 8.53C6.51082 8.726 6.44082 8.93133 6.36615 9.146C6.29148 9.35133 6.21215 9.55667 6.12815 9.762C6.04415 9.96733 5.96015 10.168 5.87615 10.364C5.79215 10.5507 5.71282 10.742 5.63815 10.938L2.86615 17H1.01815ZM3.00615 14.844L3.66415 13.262H8.99815L9.41815 14.844H3.00615ZM17.5381 20.22C16.7635 20.22 16.0775 20.1313 15.4801 19.954C14.8828 19.7767 14.4021 19.562 14.0381 19.31L14.6261 17.98C14.8408 18.092 15.0835 18.204 15.3541 18.316C15.6341 18.4373 15.9468 18.5353 16.2921 18.61C16.6375 18.6847 17.0155 18.722 17.4261 18.722C17.9488 18.722 18.3968 18.6287 18.7701 18.442C19.1435 18.2553 19.4328 17.9753 19.6381 17.602C19.8435 17.238 19.9461 16.79 19.9461 16.258V15.264L20.1981 15.362C20.1515 15.6327 19.9601 15.9033 19.6241 16.174C19.2975 16.4353 18.8821 16.65 18.3781 16.818C17.8835 16.986 17.3608 17.07 16.8101 17.07C16.0261 17.07 15.3308 16.9113 14.7241 16.594C14.1268 16.2673 13.6601 15.8193 13.3241 15.25C12.9881 14.6807 12.8201 14.0273 12.8201 13.29C12.8201 12.5433 12.9928 11.8853 13.3381 11.316C13.6928 10.7373 14.1781 10.2847 14.7941 9.958C15.4195 9.63133 16.1335 9.468 16.9361 9.468C17.1695 9.468 17.4355 9.496 17.7341 9.552C18.0328 9.608 18.3315 9.692 18.6301 9.804C18.9288 9.916 19.2041 10.0467 19.4561 10.196C19.7081 10.336 19.9135 10.4947 20.0721 10.672C20.2308 10.84 20.3148 11.022 20.3241 11.218L19.9601 11.33L19.9881 9.622H21.6821V16.132C21.6821 16.8133 21.5701 17.406 21.3461 17.91C21.1315 18.4233 20.8328 18.8527 20.4501 19.198C20.0768 19.5433 19.6381 19.8 19.1341 19.968C18.6301 20.136 18.0981 20.22 17.5381 20.22ZM17.3421 15.6C17.8741 15.6 18.3408 15.502 18.7421 15.306C19.1435 15.11 19.4515 14.8393 19.6661 14.494C19.8901 14.1393 20.0021 13.7427 20.0021 13.304C20.0021 12.8467 19.8901 12.4453 19.6661 12.1C19.4515 11.7547 19.1435 11.484 18.7421 11.288C18.3408 11.0827 17.8741 10.98 17.3421 10.98C16.8008 10.98 16.3201 11.0827 15.9001 11.288C15.4801 11.484 15.1488 11.7593 14.9061 12.114C14.6728 12.4593 14.5561 12.856 14.5561 13.304C14.5561 13.7333 14.6728 14.1253 14.9061 14.48C15.1488 14.8253 15.4801 15.1007 15.9001 15.306C16.3201 15.502 16.8008 15.6 17.3421 15.6Z" fill="#888888"/>
</svg>
