<svg width="24" height="24" viewBox="0 0 24 24" fill="none" xmlns="http://www.w3.org/2000/svg">
<path d="M11.8525 16L10.8585 13.368H6.81251L5.86051 16H5.13251L8.26851 7.488H9.33251L12.5665 16H11.8525ZM8.74451 8.062L7.02251 12.794H10.6345L8.85651 8.062H8.74451ZM18.0948 10.078V16.35C18.0948 16.8167 18.0341 17.2087 17.9128 17.526C17.7914 17.8527 17.6188 18.114 17.3948 18.31C17.1801 18.5153 16.9141 18.66 16.5968 18.744C16.2888 18.8373 15.9434 18.884 15.5608 18.884C15.2061 18.884 14.8748 18.8607 14.5668 18.814C14.2681 18.7673 14.0114 18.7067 13.7968 18.632L13.9508 18.086C14.1654 18.142 14.4034 18.1933 14.6648 18.24C14.9354 18.296 15.2434 18.324 15.5888 18.324C15.8501 18.324 16.0928 18.296 16.3168 18.24C16.5501 18.184 16.7508 18.0813 16.9188 17.932C17.0868 17.7827 17.2174 17.582 17.3108 17.33C17.4134 17.078 17.4648 16.756 17.4648 16.364V15.552C17.1941 15.7293 16.9188 15.874 16.6388 15.986C16.3588 16.0887 16.0228 16.14 15.6308 16.14C14.7908 16.14 14.1748 15.8787 13.7828 15.356C13.4001 14.8333 13.2088 14.0773 13.2088 13.088C13.2088 12.6307 13.2601 12.2107 13.3628 11.828C13.4654 11.436 13.6288 11.1 13.8528 10.82C14.0861 10.54 14.3801 10.3253 14.7348 10.176C15.0894 10.0173 15.5188 9.938 16.0228 9.938C16.3494 9.938 16.6294 9.97533 16.8628 10.05C17.0961 10.1247 17.3248 10.2133 17.5488 10.316L17.6188 10.078H18.0948ZM17.4648 10.932C17.2781 10.82 17.0634 10.722 16.8208 10.638C16.5874 10.5447 16.3214 10.498 16.0228 10.498C15.2948 10.498 14.7534 10.708 14.3988 11.128C14.0441 11.548 13.8668 12.22 13.8668 13.144C13.8668 13.4333 13.8901 13.7227 13.9368 14.012C13.9928 14.3013 14.0908 14.5627 14.2308 14.796C14.3708 15.0293 14.5621 15.2207 14.8048 15.37C15.0568 15.51 15.3788 15.58 15.7708 15.58C16.0974 15.58 16.3914 15.5193 16.6528 15.398C16.9234 15.2767 17.1941 15.118 17.4648 14.922V10.932Z" fill="#333333"/>
</svg>
