<svg width="24" height="24" viewBox="0 0 24 24" fill="none" xmlns="http://www.w3.org/2000/svg">
<path d="M2.42713 17C2.37113 17 2.33379 16.9767 2.31513 16.93C2.29646 16.8833 2.30579 16.818 2.34313 16.734L7.38313 6.78C7.42046 6.71467 7.46246 6.67267 7.50913 6.654C7.55579 6.626 7.61646 6.612 7.69113 6.612H8.78313C8.87646 6.612 8.94179 6.63533 8.97913 6.682C9.01646 6.72867 9.03979 6.78467 9.04913 6.85L11.2471 16.79C11.2565 16.846 11.2518 16.8973 11.2331 16.944C11.2145 16.9813 11.1725 17 11.1071 17H10.1131C9.99179 17 9.92646 16.9393 9.91712 16.818L9.31513 14.13C9.30579 14.0647 9.25913 14.032 9.17513 14.032H5.10113C5.01713 14.032 4.95646 14.074 4.91913 14.158L3.51913 16.902C3.50979 16.9393 3.49113 16.9673 3.46313 16.986C3.43513 16.9953 3.38846 17 3.32313 17H2.42713ZM8.96513 12.968C9.07713 12.968 9.11913 12.9073 9.09113 12.786L8.05513 8.18C8.03646 8.08667 8.00846 8.04467 7.97113 8.054C7.93379 8.054 7.89179 8.10533 7.84513 8.208L5.50713 12.786C5.47913 12.8607 5.46513 12.912 5.46513 12.94C5.47446 12.9587 5.50246 12.968 5.54913 12.968H8.96513ZM15.385 19.45C14.321 19.45 13.5043 19.2867 12.935 18.96C12.375 18.6427 12.095 18.2133 12.095 17.672C12.095 17.28 12.2303 16.9347 12.501 16.636C12.781 16.3373 13.1357 16.0947 13.565 15.908C13.6397 15.88 13.6863 15.852 13.705 15.824C13.7237 15.7867 13.7003 15.754 13.635 15.726C13.467 15.6233 13.341 15.516 13.257 15.404C13.1823 15.292 13.145 15.1567 13.145 14.998C13.145 14.802 13.2057 14.6293 13.327 14.48C13.4577 14.3307 13.6163 14.2047 13.803 14.102C13.9897 13.99 14.1717 13.9013 14.349 13.836C14.4237 13.8173 14.4703 13.7893 14.489 13.752C14.517 13.7053 14.4983 13.6727 14.433 13.654C14.1157 13.486 13.873 13.276 13.705 13.024C13.5463 12.772 13.467 12.4733 13.467 12.128C13.467 11.6893 13.5557 11.3067 13.733 10.98C13.9197 10.644 14.167 10.364 14.475 10.14C14.783 9.916 15.133 9.748 15.525 9.636C15.917 9.524 16.3277 9.468 16.757 9.468C17.3543 9.468 17.821 9.538 18.157 9.678C18.5023 9.80867 18.7637 9.96267 18.941 10.14C18.9877 10.1773 19.039 10.1867 19.095 10.168C19.1603 10.14 19.2163 10.098 19.263 10.042C19.3937 9.93933 19.5337 9.846 19.683 9.762C19.8323 9.66867 19.991 9.594 20.159 9.538C20.3363 9.482 20.495 9.454 20.635 9.454C20.747 9.454 20.8263 9.47267 20.873 9.51C20.9197 9.538 20.9337 9.594 20.915 9.678L20.859 10.154C20.8403 10.2473 20.8123 10.3127 20.775 10.35C20.747 10.3873 20.691 10.406 20.607 10.406C20.4297 10.4153 20.2803 10.434 20.159 10.462C20.0377 10.4807 19.9257 10.5087 19.823 10.546C19.5337 10.6487 19.4123 10.7653 19.459 10.896C19.487 10.9707 19.515 11.064 19.543 11.176C19.571 11.2787 19.585 11.4093 19.585 11.568C19.585 12.0067 19.4917 12.3847 19.305 12.702C19.1183 13.0193 18.8663 13.2807 18.549 13.486C18.2317 13.682 17.877 13.8313 17.485 13.934C17.093 14.0273 16.6917 14.074 16.281 14.074C16.1877 14.074 16.0337 14.0833 15.819 14.102C15.6043 14.1113 15.3757 14.1393 15.133 14.186C14.8997 14.2233 14.699 14.2887 14.531 14.382C14.363 14.466 14.279 14.5827 14.279 14.732C14.279 14.8627 14.3723 14.956 14.559 15.012C14.7457 15.068 15.049 15.11 15.469 15.138L17.247 15.236C17.9937 15.2827 18.5397 15.4553 18.885 15.754C19.2397 16.0527 19.417 16.468 19.417 17C19.417 17.3733 19.3377 17.6953 19.179 17.966C19.0297 18.246 18.8197 18.4793 18.549 18.666C18.2877 18.8527 17.9843 19.002 17.639 19.114C17.303 19.2353 16.939 19.3193 16.547 19.366C16.1643 19.422 15.777 19.45 15.385 19.45ZM15.427 18.722C15.7817 18.722 16.1317 18.694 16.477 18.638C16.8223 18.5913 17.1303 18.5073 17.401 18.386C17.6717 18.274 17.8863 18.1107 18.045 17.896C18.213 17.6907 18.297 17.434 18.297 17.126C18.297 16.8367 18.2037 16.622 18.017 16.482C17.8397 16.342 17.5177 16.258 17.051 16.23L14.769 16.09C14.489 16.1553 14.2277 16.2533 13.985 16.384C13.7423 16.5053 13.5463 16.664 13.397 16.86C13.2477 17.0467 13.173 17.2707 13.173 17.532C13.173 17.952 13.369 18.2553 13.761 18.442C14.1623 18.6287 14.7177 18.722 15.427 18.722ZM16.309 13.332C16.701 13.332 17.0603 13.2713 17.387 13.15C17.723 13.0193 17.9937 12.8187 18.199 12.548C18.4043 12.268 18.507 11.9087 18.507 11.47C18.507 11.0687 18.3623 10.7607 18.073 10.546C17.7837 10.322 17.3497 10.21 16.771 10.21C16.3883 10.21 16.0243 10.2847 15.679 10.434C15.343 10.574 15.0677 10.784 14.853 11.064C14.6477 11.344 14.545 11.6987 14.545 12.128C14.545 12.5107 14.699 12.8093 15.007 13.024C15.3243 13.2293 15.7583 13.332 16.309 13.332Z" fill="#888888"/>
</svg>
