<svg width="24" height="24" viewBox="0 0 24 24" fill="none" xmlns="http://www.w3.org/2000/svg">
<path d="M11.6109 8.39L5.83595 15.103C5.62128 15.355 5.47195 15.544 5.38795 15.67C5.30861 15.7913 5.26895 15.9103 5.26895 16.027C5.26895 16.1763 5.35528 16.3093 5.52795 16.426C5.70528 16.5427 6.00395 16.629 6.42395 16.685L6.27695 17H2.27995L2.43395 16.685C2.74195 16.6383 3.01261 16.58 3.24595 16.51C3.47461 16.44 3.68461 16.3467 3.87595 16.23C4.06728 16.1087 4.25861 15.9547 4.44995 15.768C4.64128 15.5813 4.85595 15.3503 5.09395 15.075L11.8279 7.242L11.6109 8.39ZM10.9249 13.045H7.38995L7.82395 12.527H11.0019L10.9249 13.045ZM11.4989 7.998L11.6949 6.339L13.1089 6.017L11.8489 15.726C11.8069 16.0387 11.8559 16.2673 11.9959 16.412C12.1406 16.5567 12.4673 16.6477 12.9759 16.685L12.8149 17H8.62895L8.78995 16.685C9.16795 16.6803 9.47128 16.6407 9.69995 16.566C9.92861 16.4867 10.1013 16.363 10.2179 16.195C10.3346 16.027 10.4116 15.81 10.4489 15.544L11.4989 7.998ZM19.4037 9.944C19.7024 9.49133 20.015 9.18333 20.3417 9.02C20.673 8.85667 20.9857 8.775 21.2797 8.775C21.5177 8.775 21.7067 8.84267 21.8467 8.978C21.9914 9.11333 22.0637 9.27667 22.0637 9.468C22.0637 9.62667 22.0054 9.75967 21.8887 9.867C21.7767 9.97433 21.6414 10.028 21.4827 10.028C21.38 10.028 21.2937 10.0093 21.2237 9.972C21.1584 9.93 21.0977 9.88567 21.0417 9.839C20.9857 9.78767 20.925 9.74333 20.8597 9.706C20.799 9.664 20.7267 9.643 20.6427 9.643C20.456 9.643 20.288 9.69433 20.1387 9.797C19.994 9.895 19.847 10.0607 19.6977 10.294L19.4037 9.944ZM15.9527 20.136C16.4287 20.136 16.8487 20.073 17.2127 19.947C17.5767 19.8257 17.8614 19.66 18.0667 19.45C18.272 19.24 18.3747 19.002 18.3747 18.736C18.3747 18.5027 18.2767 18.2787 18.0807 18.064C17.8894 17.854 17.6444 17.6977 17.3457 17.595L15.5747 17C15.3787 16.9393 15.2317 16.909 15.1337 16.909C14.835 16.909 14.569 16.979 14.3357 17.119C14.107 17.2637 13.925 17.455 13.7897 17.693C13.6544 17.931 13.5867 18.1947 13.5867 18.484C13.5867 18.8247 13.6847 19.1187 13.8807 19.366C14.0767 19.6133 14.352 19.8023 14.7067 19.933C15.0614 20.0683 15.4767 20.136 15.9527 20.136ZM17.1777 13.976C17.5184 13.976 17.8404 13.8313 18.1437 13.542C18.447 13.248 18.6944 12.8723 18.8857 12.415C19.077 11.953 19.1727 11.47 19.1727 10.966C19.1727 10.6487 19.1144 10.4153 18.9977 10.266C18.8857 10.112 18.6967 10.035 18.4307 10.035C18.1834 10.035 17.936 10.1167 17.6887 10.28C17.446 10.4433 17.222 10.6603 17.0167 10.931C16.816 11.2017 16.655 11.5027 16.5337 11.834C16.4124 12.1653 16.3517 12.5013 16.3517 12.842C16.3517 13.2013 16.424 13.4813 16.5687 13.682C16.7134 13.878 16.9164 13.976 17.1777 13.976ZM15.7567 20.549C15.0894 20.549 14.5014 20.4603 13.9927 20.283C13.484 20.1103 13.0897 19.8677 12.8097 19.555C12.525 19.2423 12.3827 18.876 12.3827 18.456C12.3827 18.0967 12.483 17.7747 12.6837 17.49C12.8844 17.2053 13.1597 16.979 13.5097 16.811C13.8597 16.643 14.2564 16.559 14.6997 16.559C14.2984 16.251 14.0977 15.8637 14.0977 15.397C14.0977 14.9677 14.2774 14.6293 14.6367 14.382C15.0007 14.1347 15.507 14.011 16.1557 14.011L16.1697 13.955C15.5117 13.4883 15.1827 12.8887 15.1827 12.156C15.1827 11.694 15.3157 11.2623 15.5817 10.861C15.8524 10.4597 16.2187 10.1353 16.6807 9.888C17.1474 9.64067 17.677 9.517 18.2697 9.517C18.6944 9.517 19.0677 9.60567 19.3897 9.783C19.7117 9.96033 19.9614 10.2193 20.1387 10.56C20.3207 10.896 20.4117 11.3067 20.4117 11.792C20.4117 12.3007 20.2834 12.7557 20.0267 13.157C19.77 13.5583 19.4224 13.8757 18.9837 14.109C18.5497 14.3377 18.0597 14.452 17.5137 14.452C17.369 14.452 17.1964 14.445 16.9957 14.431C16.795 14.417 16.6084 14.41 16.4357 14.41C16.0064 14.41 15.6867 14.4637 15.4767 14.571C15.2714 14.6737 15.1687 14.8277 15.1687 15.033C15.1687 15.1917 15.2247 15.3293 15.3367 15.446C15.4534 15.5627 15.6284 15.6607 15.8617 15.74L18.0317 16.475C18.4704 16.6243 18.8204 16.86 19.0817 17.182C19.3477 17.5087 19.4807 17.8727 19.4807 18.274C19.4807 18.7127 19.3197 19.1023 18.9977 19.443C18.6804 19.7883 18.2417 20.059 17.6817 20.255C17.1217 20.451 16.48 20.549 15.7567 20.549Z" fill="#888888"/>
</svg>
