<svg width="24" height="24" viewBox="0 0 24 24" fill="none" xmlns="http://www.w3.org/2000/svg">
<path d="M2.22592 17C2.14192 17 2.09526 16.9627 2.08592 16.888C2.07659 16.8133 2.10926 16.6967 2.18392 16.538L7.04192 6.836C7.09792 6.73333 7.15859 6.67267 7.22392 6.654C7.29859 6.626 7.38726 6.612 7.48992 6.612H9.58992C9.69259 6.612 9.76726 6.64933 9.81392 6.724C9.86059 6.79867 9.88859 6.88267 9.89792 6.976L11.9979 16.678C12.0166 16.7527 12.0119 16.8273 11.9839 16.902C11.9559 16.9673 11.8999 17 11.8159 17H9.77192C9.64126 17 9.56192 16.916 9.53392 16.748L9.09992 14.718C9.09059 14.6433 9.03459 14.606 8.93192 14.606H5.54392C5.44126 14.606 5.36192 14.662 5.30592 14.774L4.24192 16.874C4.22326 16.93 4.19526 16.9673 4.15792 16.986C4.12992 16.9953 4.07392 17 3.98992 17H2.22592ZM8.62392 12.744C8.76392 12.744 8.81526 12.6647 8.77792 12.506L8.04992 9.272C8.04059 9.17867 8.01259 9.132 7.96592 9.132C7.92859 9.132 7.88659 9.17867 7.83992 9.272L6.21592 12.534C6.17859 12.6273 6.16459 12.688 6.17392 12.716C6.19259 12.7347 6.23459 12.744 6.29992 12.744H8.62392ZM16.0647 19.436C14.9354 19.436 14.0487 19.2913 13.4047 19.002C12.7607 18.7127 12.4387 18.3067 12.4387 17.784C12.4387 17.4107 12.5834 17.1073 12.8727 16.874C13.162 16.6313 13.5074 16.44 13.9087 16.3C14.002 16.272 14.058 16.2347 14.0767 16.188C14.0954 16.1413 14.058 16.104 13.9647 16.076C13.7594 15.9827 13.6007 15.866 13.4887 15.726C13.386 15.586 13.3347 15.404 13.3347 15.18C13.3347 14.9373 13.4094 14.7273 13.5587 14.55C13.7174 14.3727 13.9087 14.2233 14.1327 14.102C14.366 13.9713 14.59 13.8733 14.8047 13.808C14.9074 13.7707 14.968 13.7333 14.9867 13.696C15.0147 13.6493 14.982 13.6073 14.8887 13.57C14.5527 13.43 14.2914 13.2293 14.1047 12.968C13.918 12.6973 13.8247 12.38 13.8247 12.016C13.8247 11.568 13.9227 11.1853 14.1187 10.868C14.324 10.5507 14.5947 10.2893 14.9307 10.084C15.2667 9.86933 15.64 9.71533 16.0507 9.622C16.4707 9.51933 16.9 9.468 17.3387 9.468C18.0107 9.468 18.5334 9.54267 18.9067 9.692C19.2894 9.832 19.574 9.99067 19.7607 10.168C19.826 10.224 19.9007 10.224 19.9847 10.168C20.0687 10.112 20.1434 10.0467 20.2087 9.972C20.3487 9.82267 20.512 9.69667 20.6987 9.594C20.8854 9.49133 21.072 9.412 21.2587 9.356C21.4454 9.29067 21.604 9.258 21.7347 9.258C21.8374 9.258 21.9167 9.27667 21.9727 9.314C22.0287 9.342 22.052 9.412 22.0427 9.524L21.9027 10.476C21.8934 10.6067 21.8654 10.6953 21.8187 10.742C21.7814 10.7793 21.7207 10.7933 21.6367 10.784C21.4967 10.784 21.352 10.7887 21.2027 10.798C21.0534 10.798 20.9414 10.8073 20.8667 10.826C20.5494 10.8633 20.4327 10.98 20.5167 11.176C20.5447 11.232 20.5634 11.302 20.5727 11.386C20.5914 11.4607 20.6007 11.554 20.6007 11.666C20.6007 12.1047 20.4887 12.478 20.2647 12.786C20.0407 13.0847 19.7467 13.332 19.3827 13.528C19.028 13.7147 18.6407 13.8547 18.2207 13.948C17.8007 14.032 17.39 14.074 16.9887 14.074C16.914 14.074 16.788 14.0787 16.6107 14.088C16.4334 14.0973 16.242 14.1207 16.0367 14.158C15.8407 14.1953 15.668 14.2513 15.5187 14.326C15.3787 14.4007 15.3087 14.5033 15.3087 14.634C15.3087 14.718 15.3694 14.7787 15.4907 14.816C15.6214 14.8533 15.822 14.8813 16.0927 14.9L18.0807 15.012C18.958 15.068 19.5974 15.264 19.9987 15.6C20.4 15.936 20.6007 16.384 20.6007 16.944C20.6007 17.3453 20.5074 17.6907 20.3207 17.98C20.1434 18.2693 19.896 18.5073 19.5787 18.694C19.2707 18.8807 18.9207 19.0253 18.5287 19.128C18.1367 19.24 17.726 19.3193 17.2967 19.366C16.8767 19.4127 16.466 19.436 16.0647 19.436ZM16.1767 18.414C16.55 18.414 16.8907 18.386 17.1987 18.33C17.5067 18.2833 17.768 18.2133 17.9827 18.12C18.1974 18.036 18.3654 17.9193 18.4867 17.77C18.608 17.63 18.6687 17.462 18.6687 17.266C18.6687 17.07 18.594 16.93 18.4447 16.846C18.2954 16.7527 18.0434 16.6967 17.6887 16.678L15.5607 16.566C15.3834 16.5847 15.192 16.636 14.9867 16.72C14.7814 16.7947 14.604 16.8973 14.4547 17.028C14.3147 17.168 14.2447 17.3407 14.2447 17.546C14.2447 17.8353 14.3987 18.05 14.7067 18.19C15.024 18.3393 15.514 18.414 16.1767 18.414ZM17.0447 13.01C17.334 13.01 17.6 12.954 17.8427 12.842C18.0947 12.73 18.2954 12.562 18.4447 12.338C18.594 12.1047 18.6687 11.8293 18.6687 11.512C18.6687 11.2227 18.5567 10.9893 18.3327 10.812C18.118 10.6347 17.796 10.546 17.3667 10.546C17.0774 10.546 16.8067 10.6113 16.5547 10.742C16.312 10.8727 16.1114 11.0547 15.9527 11.288C15.8034 11.512 15.7287 11.778 15.7287 12.086C15.7287 12.3567 15.8454 12.5807 16.0787 12.758C16.3214 12.926 16.6434 13.01 17.0447 13.01Z" fill="#888888"/>
</svg>
