<svg width="24" height="24" viewBox="0 0 24 24" fill="none" xmlns="http://www.w3.org/2000/svg">
<path d="M4.36328 13V4.74H5.62328V13H4.36328ZM6.04328 13V4.74H6.46328V13H6.04328ZM6.88328 13V4.74H7.30328V13H6.88328ZM8.98328 13V4.74H9.40328V13H8.98328ZM9.82328 13V4.74H11.0833V13H9.82328ZM8.45128 16.514H7.40128L7.07928 17.466H6.71528L7.90528 14.162H7.94728L9.15128 17.466H8.77328L8.45128 16.514ZM8.35328 16.234L7.93328 15.002L7.49928 16.234H8.35328ZM11.5 13V4.74H11.92V13H11.5ZM12.34 13V4.74H12.76V13H12.34ZM13.18 13V4.74H13.6V13H13.18ZM15.28 13V4.74H16.54V13H15.28ZM16.96 13V4.74H18.22V13H16.96ZM15.21 17.522C14.9487 17.522 14.7247 17.452 14.538 17.312C14.3513 17.1813 14.2067 16.99 14.104 16.738C14.0013 16.4953 13.95 16.2107 13.95 15.884C13.95 15.4547 14.0153 15.114 14.146 14.862C14.2767 14.61 14.4353 14.4327 14.622 14.33C14.8087 14.2367 14.9953 14.19 15.182 14.19C15.378 14.19 15.5647 14.2413 15.742 14.344C15.9287 14.4373 16.064 14.568 16.148 14.736L15.896 14.932L15.854 14.974L15.84 14.946C15.84 14.918 15.8353 14.89 15.826 14.862C15.8073 14.8433 15.7793 14.8107 15.742 14.764C15.658 14.6707 15.574 14.6053 15.49 14.568C15.406 14.5307 15.3033 14.512 15.182 14.512C14.93 14.512 14.72 14.61 14.552 14.806C14.3933 15.0113 14.314 15.3427 14.314 15.8C14.314 16.248 14.3933 16.5933 14.552 16.836C14.7107 17.0787 14.93 17.2 15.21 17.2C15.3127 17.2 15.42 17.1813 15.532 17.144C15.6533 17.116 15.7513 17.0693 15.826 17.004V16.234H15.238V15.912H16.162V17.186C15.854 17.41 15.5367 17.522 15.21 17.522Z" fill="#333333"/>
</svg>
