<svg width="24" height="24" viewBox="0 0 24 24" fill="none" xmlns="http://www.w3.org/2000/svg">
<path d="M2.59901 17C2.52434 17 2.48701 16.9673 2.48701 16.902C2.48701 16.8553 2.49634 16.818 2.51501 16.79L7.59701 6.766C7.63434 6.70067 7.66701 6.65867 7.69501 6.64C7.73234 6.62133 7.78834 6.612 7.86301 6.612H8.70301C8.85234 6.612 8.93634 6.67733 8.95501 6.808L11.181 16.832V16.874C11.181 16.958 11.139 17 11.055 17H10.327C10.2057 17 10.145 16.9487 10.145 16.846L9.48701 13.976C9.47768 13.9293 9.46368 13.9013 9.44501 13.892C9.43567 13.8827 9.40767 13.878 9.36101 13.878H5.11901C5.04434 13.878 4.98367 13.92 4.93701 14.004L3.45301 16.902C3.44367 16.9393 3.42501 16.9673 3.39701 16.986C3.36901 16.9953 3.32701 17 3.27101 17H2.59901ZM9.17901 13.024C9.28167 13.024 9.31901 12.968 9.29101 12.856L8.17101 7.9C8.16167 7.816 8.13834 7.774 8.10101 7.774C8.06367 7.774 8.02167 7.82533 7.97501 7.928L5.45501 12.842C5.41767 12.9073 5.39901 12.954 5.39901 12.982C5.40834 13.01 5.43634 13.024 5.48301 13.024H9.17901ZM15.3505 19.45C14.3238 19.45 13.5305 19.2867 12.9705 18.96C12.4198 18.6427 12.1445 18.204 12.1445 17.644C12.1445 17.252 12.2752 16.902 12.5365 16.594C12.7978 16.2767 13.1572 16.0153 13.6145 15.81C13.6798 15.7727 13.7172 15.7447 13.7265 15.726C13.7452 15.698 13.7312 15.6653 13.6845 15.628C13.3765 15.4507 13.2225 15.222 13.2225 14.942C13.2225 14.5033 13.6052 14.1393 14.3705 13.85C14.4452 13.8313 14.4872 13.8033 14.4965 13.766C14.5152 13.7193 14.4965 13.6867 14.4405 13.668C13.8245 13.332 13.5165 12.828 13.5165 12.156C13.5165 11.596 13.6612 11.1153 13.9505 10.714C14.2492 10.3033 14.6412 9.99533 15.1265 9.79C15.6212 9.57533 16.1578 9.468 16.7365 9.468C17.6978 9.468 18.4072 9.68733 18.8645 10.126C18.8925 10.154 18.9252 10.168 18.9625 10.168C19.0092 10.168 19.0745 10.1353 19.1585 10.07C19.3545 9.92067 19.5692 9.79 19.8025 9.678C20.0452 9.566 20.2738 9.51 20.4885 9.51C20.6005 9.51 20.6752 9.52867 20.7125 9.566C20.7592 9.594 20.7778 9.64533 20.7685 9.72L20.7125 10.07C20.7032 10.1633 20.6798 10.224 20.6425 10.252C20.6145 10.28 20.5585 10.2987 20.4745 10.308C20.2132 10.3173 19.9472 10.3733 19.6765 10.476C19.5272 10.5413 19.4245 10.602 19.3685 10.658C19.3125 10.7047 19.2938 10.756 19.3125 10.812C19.3592 10.9427 19.3965 11.0593 19.4245 11.162C19.4525 11.2647 19.4665 11.3907 19.4665 11.54C19.4665 12.1 19.3125 12.5713 19.0045 12.954C18.7058 13.3273 18.3092 13.6073 17.8145 13.794C17.3292 13.9807 16.7972 14.074 16.2185 14.074C15.7892 14.074 15.3365 14.1207 14.8605 14.214C14.3845 14.3073 14.1465 14.4893 14.1465 14.76C14.1465 14.8907 14.2445 14.9887 14.4405 15.054C14.6365 15.1193 14.9678 15.166 15.4345 15.194L17.1705 15.292C18.5518 15.376 19.2425 15.95 19.2425 17.014C19.2425 17.854 18.8645 18.47 18.1085 18.862C17.3618 19.254 16.4425 19.45 15.3505 19.45ZM16.2605 13.416C16.9325 13.416 17.4878 13.2573 17.9265 12.94C18.3745 12.6227 18.5985 12.128 18.5985 11.456C18.5985 11.0267 18.4398 10.7 18.1225 10.476C17.8145 10.2427 17.3618 10.126 16.7645 10.126C16.1018 10.126 15.5372 10.3033 15.0705 10.658C14.6132 11.0033 14.3845 11.4933 14.3845 12.128C14.3845 12.548 14.5432 12.87 14.8605 13.094C15.1872 13.3087 15.6538 13.416 16.2605 13.416ZM15.3645 18.806C16.2045 18.806 16.9092 18.6753 17.4785 18.414C18.0478 18.1527 18.3325 17.714 18.3325 17.098C18.3325 16.7807 18.2345 16.5473 18.0385 16.398C17.8425 16.2393 17.5065 16.146 17.0305 16.118L14.6925 15.978C14.2072 16.09 13.8058 16.2813 13.4885 16.552C13.1805 16.8133 13.0265 17.1353 13.0265 17.518C13.0265 18.3767 13.8058 18.806 15.3645 18.806Z" fill="#333333"/>
</svg>
