<svg width="24" height="24" viewBox="0 0 24 24" fill="none" xmlns="http://www.w3.org/2000/svg">
<path d="M2.13438 17V16.608C2.60105 16.5287 2.95105 16.4353 3.18438 16.328C3.42238 16.2207 3.60205 16.069 3.72338 15.873C3.84938 15.677 3.97538 15.4063 4.10138 15.061L6.76138 7.893L6.28538 6.822L7.94438 6.059L11.7314 15.754C11.8154 15.9687 11.9064 16.132 12.0044 16.244C12.1024 16.356 12.2401 16.4377 12.4174 16.489C12.5994 16.5403 12.8537 16.58 13.1804 16.608V17H8.22438V16.608C8.65838 16.5847 8.98738 16.552 9.21138 16.51C9.43538 16.4633 9.56605 16.37 9.60338 16.23C9.64072 16.0853 9.60105 15.852 9.48438 15.53L7.11838 9.069H7.07638L4.83638 15.18C4.72905 15.4787 4.69638 15.7213 4.73838 15.908C4.78038 16.09 4.91805 16.2347 5.15138 16.342C5.38472 16.4447 5.73238 16.5333 6.19438 16.608V17H2.13438ZM5.16538 13.437V12.779H9.21138V13.437H5.16538ZM18.2277 10.035C18.3117 9.797 18.4214 9.55667 18.5567 9.314C18.692 9.06667 18.86 8.859 19.0607 8.691C19.266 8.51833 19.5087 8.432 19.7887 8.432C20.0314 8.432 20.2367 8.49967 20.4047 8.635C20.5774 8.76567 20.6637 8.94533 20.6637 9.174C20.6637 9.36533 20.5984 9.53333 20.4677 9.678C20.3417 9.82267 20.176 9.895 19.9707 9.895C19.8307 9.895 19.7234 9.86467 19.6487 9.804C19.574 9.74333 19.5064 9.68267 19.4457 9.622C19.385 9.56133 19.2964 9.531 19.1797 9.531C19.0397 9.531 18.923 9.61033 18.8297 9.769C18.7364 9.923 18.671 10.1003 18.6337 10.301L18.2277 10.035ZM16.6457 14.158C16.9724 14.158 17.2244 14.046 17.4017 13.822C17.5837 13.598 17.7097 13.3203 17.7797 12.989C17.8544 12.6577 17.8917 12.3357 17.8917 12.023C17.8917 11.827 17.8754 11.6147 17.8427 11.386C17.81 11.1573 17.7517 10.938 17.6677 10.728C17.5884 10.518 17.4717 10.3477 17.3177 10.217C17.1637 10.0817 16.9654 10.014 16.7227 10.014C16.466 10.014 16.256 10.0863 16.0927 10.231C15.934 10.3757 15.808 10.5623 15.7147 10.791C15.626 11.015 15.563 11.2507 15.5257 11.498C15.493 11.7453 15.4767 11.9717 15.4767 12.177C15.4767 12.4383 15.507 12.723 15.5677 13.031C15.6284 13.339 15.7427 13.605 15.9107 13.829C16.0787 14.0483 16.3237 14.158 16.6457 14.158ZM16.6527 14.676C16.144 14.676 15.7707 14.732 15.5327 14.844C15.2947 14.9513 15.1757 15.1077 15.1757 15.313C15.1757 15.4857 15.2947 15.6257 15.5327 15.733C15.7707 15.8357 16.2327 15.9407 16.9187 16.048L17.9197 16.223C18.741 16.3537 19.3454 16.5753 19.7327 16.888C20.12 17.196 20.3137 17.609 20.3137 18.127C20.3137 18.5703 20.1924 18.9507 19.9497 19.268C19.707 19.5853 19.3804 19.8443 18.9697 20.045C18.5637 20.2457 18.1087 20.3927 17.6047 20.486C17.1054 20.5793 16.599 20.626 16.0857 20.626C15.703 20.626 15.3274 20.591 14.9587 20.521C14.59 20.4557 14.2564 20.3507 13.9577 20.206C13.659 20.066 13.4187 19.8817 13.2367 19.653C13.0594 19.4243 12.9707 19.1467 12.9707 18.82C12.9707 18.442 13.113 18.1013 13.3977 17.798C13.687 17.4993 14.177 17.2123 14.8677 16.937L15.3507 17.133C15.0334 17.273 14.786 17.4807 14.6087 17.756C14.4314 18.0313 14.3427 18.323 14.3427 18.631C14.3427 18.9577 14.4384 19.226 14.6297 19.436C14.821 19.6507 15.073 19.8093 15.3857 19.912C15.703 20.0147 16.0437 20.066 16.4077 20.066C16.8277 20.066 17.2384 20.0193 17.6397 19.926C18.041 19.8327 18.3724 19.688 18.6337 19.492C18.8997 19.296 19.0327 19.044 19.0327 18.736C19.0327 18.568 18.9767 18.4163 18.8647 18.281C18.7527 18.1457 18.5427 18.0173 18.2347 17.896C17.9267 17.7793 17.4787 17.6673 16.8907 17.56L15.7427 17.343C15.0567 17.2123 14.555 17.021 14.2377 16.769C13.925 16.5123 13.7687 16.2067 13.7687 15.852C13.7687 15.656 13.827 15.4623 13.9437 15.271C14.065 15.075 14.275 14.8977 14.5737 14.739C14.8724 14.5803 15.29 14.466 15.8267 14.396L16.6527 14.676ZM16.6527 14.676C16.1067 14.676 15.612 14.571 15.1687 14.361C14.73 14.1463 14.3824 13.8477 14.1257 13.465C13.869 13.0777 13.7407 12.6203 13.7407 12.093C13.7407 11.5983 13.8667 11.1573 14.1187 10.77C14.3754 10.3827 14.723 10.077 15.1617 9.853C15.605 9.629 16.1044 9.517 16.6597 9.517C17.2057 9.517 17.7027 9.62667 18.1507 9.846C18.5987 10.0607 18.9557 10.3593 19.2217 10.742C19.4877 11.1247 19.6207 11.5633 19.6207 12.058C19.6207 12.5107 19.497 12.9353 19.2497 13.332C19.0024 13.7287 18.6547 14.053 18.2067 14.305C17.7634 14.5523 17.2454 14.676 16.6527 14.676Z" fill="#888888"/>
</svg>
