<svg width="24" height="24" viewBox="0 0 24 24" fill="none" xmlns="http://www.w3.org/2000/svg">
<path d="M2.00586 17C1.91253 17 1.86119 16.958 1.85186 16.874C1.84253 16.79 1.88453 16.6547 1.97786 16.468L6.77986 6.85C6.82653 6.74733 6.89186 6.682 6.97586 6.654C7.05986 6.626 7.15786 6.612 7.26986 6.612H9.70586C9.82719 6.612 9.90653 6.654 9.94386 6.738C9.99053 6.822 10.0232 6.91533 10.0419 7.018L12.0999 16.636C12.1185 16.72 12.1139 16.804 12.0859 16.888C12.0672 16.9627 12.0065 17 11.9039 17H9.49586C9.36519 17 9.28119 16.9067 9.24386 16.72L8.86586 14.928C8.85653 14.844 8.80053 14.802 8.69786 14.802H5.53386C5.43119 14.802 5.35186 14.858 5.29586 14.97L4.34386 16.874C4.31586 16.9207 4.28319 16.9533 4.24586 16.972C4.21786 16.9907 4.15253 17 4.04986 17H2.00586ZM8.34786 12.674C8.49719 12.674 8.54853 12.5853 8.50186 12.408L7.89986 9.65C7.89053 9.55667 7.86253 9.51 7.81586 9.51C7.76919 9.51 7.72253 9.552 7.67586 9.636L6.28986 12.464C6.26186 12.548 6.25253 12.604 6.26186 12.632C6.28053 12.66 6.32719 12.674 6.40186 12.674H8.34786ZM16.106 19.436C14.958 19.436 14.048 19.296 13.376 19.016C12.7134 18.736 12.382 18.3393 12.382 17.826C12.382 17.462 12.5314 17.1727 12.83 16.958C13.1287 16.734 13.4694 16.5613 13.852 16.44C13.9547 16.4027 14.0107 16.3607 14.02 16.314C14.0387 16.2673 14.0014 16.2253 13.908 16.188C13.684 16.104 13.5114 15.992 13.39 15.852C13.278 15.7027 13.222 15.502 13.222 15.25C13.222 14.9887 13.3014 14.7647 13.46 14.578C13.628 14.3913 13.8334 14.2327 14.076 14.102C14.3187 13.9713 14.552 13.8687 14.776 13.794C14.888 13.7473 14.9534 13.7053 14.972 13.668C15 13.6213 14.9674 13.584 14.874 13.556C14.538 13.4253 14.2674 13.2247 14.062 12.954C13.866 12.6833 13.768 12.3567 13.768 11.974C13.768 11.5353 13.8707 11.1573 14.076 10.84C14.2814 10.5227 14.5567 10.2613 14.902 10.056C15.2474 9.85067 15.6347 9.70133 16.064 9.608C16.4934 9.51467 16.9274 9.468 17.366 9.468C18.066 9.468 18.6074 9.54267 18.99 9.692C19.382 9.832 19.676 9.99533 19.872 10.182C19.9374 10.2473 20.0167 10.2473 20.11 10.182C20.2034 10.1073 20.2827 10.028 20.348 9.944C20.4974 9.776 20.67 9.64067 20.866 9.538C21.062 9.426 21.258 9.342 21.454 9.286C21.65 9.22067 21.8087 9.188 21.93 9.188C22.0327 9.188 22.112 9.20667 22.168 9.244C22.2334 9.272 22.2567 9.34667 22.238 9.468L22.098 10.588C22.0794 10.728 22.0467 10.8213 22 10.868C21.9534 10.9053 21.888 10.9193 21.804 10.91C21.6734 10.91 21.5334 10.91 21.384 10.91C21.2347 10.91 21.1274 10.9147 21.062 10.924C20.7354 10.9427 20.6187 11.0593 20.712 11.274C20.7307 11.3113 20.7447 11.3673 20.754 11.442C20.7634 11.5167 20.768 11.6007 20.768 11.694C20.768 12.1327 20.6514 12.506 20.418 12.814C20.1847 13.1127 19.8814 13.3553 19.508 13.542C19.1347 13.7193 18.7334 13.8547 18.304 13.948C17.8747 14.032 17.4594 14.074 17.058 14.074C16.9927 14.074 16.876 14.0787 16.708 14.088C16.54 14.0973 16.3627 14.1207 16.176 14.158C15.9894 14.1953 15.826 14.2513 15.686 14.326C15.5554 14.3913 15.49 14.48 15.49 14.592C15.49 14.676 15.5414 14.732 15.644 14.76C15.7467 14.7787 15.91 14.7973 16.134 14.816L18.192 14.942C19.1067 14.998 19.774 15.1987 20.194 15.544C20.6234 15.8893 20.838 16.3467 20.838 16.916C20.838 17.3267 20.74 17.6767 20.544 17.966C20.348 18.2647 20.0867 18.5073 19.76 18.694C19.4334 18.8807 19.0647 19.03 18.654 19.142C18.2434 19.254 17.8187 19.3287 17.38 19.366C16.9414 19.4127 16.5167 19.436 16.106 19.436ZM16.26 18.302C16.6427 18.302 16.9787 18.2787 17.268 18.232C17.5667 18.1853 17.814 18.12 18.01 18.036C18.206 17.952 18.3554 17.8493 18.458 17.728C18.5607 17.6067 18.612 17.4713 18.612 17.322C18.612 17.1633 18.5467 17.0467 18.416 16.972C18.2854 16.888 18.052 16.8413 17.716 16.832L15.658 16.72C15.5087 16.7387 15.3407 16.7807 15.154 16.846C14.9674 16.902 14.7994 16.986 14.65 17.098C14.51 17.2193 14.44 17.3733 14.44 17.56C14.44 17.7933 14.58 17.9753 14.86 18.106C15.1494 18.2367 15.616 18.302 16.26 18.302ZM17.114 12.898C17.3754 12.898 17.6134 12.842 17.828 12.73C18.0427 12.618 18.2154 12.4593 18.346 12.254C18.4767 12.0487 18.542 11.806 18.542 11.526C18.542 11.2647 18.444 11.0547 18.248 10.896C18.052 10.7373 17.7627 10.658 17.38 10.658C17.128 10.658 16.8947 10.7233 16.68 10.854C16.4654 10.9753 16.2927 11.1433 16.162 11.358C16.0314 11.5727 15.966 11.8153 15.966 12.086C15.966 12.3193 16.0687 12.5153 16.274 12.674C16.4887 12.8233 16.7687 12.898 17.114 12.898Z" fill="#888888"/>
</svg>
