<svg width="24" height="24" viewBox="0 0 24 24" fill="none" xmlns="http://www.w3.org/2000/svg">
<path d="M2.97313 17C2.91713 17 2.87513 16.9813 2.84713 16.944C2.81913 16.8973 2.81913 16.8367 2.84713 16.762L6.47313 6.808C6.50113 6.73333 6.53379 6.682 6.57113 6.654C6.60846 6.626 6.66913 6.612 6.75313 6.612H7.84513C8.02246 6.612 8.12979 6.682 8.16713 6.822L11.7511 16.762L11.7651 16.832C11.7651 16.944 11.7138 17 11.6111 17H10.6171C10.5051 17 10.4305 16.9533 10.3931 16.86L9.42713 14.144C9.40846 14.1067 9.38979 14.0787 9.37113 14.06C9.35246 14.0413 9.31513 14.032 9.25913 14.032H5.18513C5.10113 14.032 5.04513 14.0693 5.01713 14.144L4.02313 16.874C3.99513 16.958 3.92513 17 3.81313 17H2.97313ZM8.89513 12.968C8.99779 12.968 9.03513 12.9073 9.00713 12.786L7.32713 8.18C7.29913 8.096 7.26646 8.054 7.22913 8.054C7.19179 8.054 7.15913 8.096 7.13113 8.18L5.42313 12.814L5.39513 12.898C5.39513 12.9447 5.43246 12.968 5.50713 12.968H8.89513ZM20.159 9.454C20.3363 9.454 20.425 9.52867 20.425 9.678V10.168C20.425 10.2613 20.4017 10.3313 20.355 10.378C20.3177 10.4153 20.2477 10.4293 20.145 10.42C19.837 10.42 19.5943 10.462 19.417 10.546C19.193 10.6393 19.0997 10.7467 19.137 10.868C19.1463 10.9053 19.1743 10.9753 19.221 11.078C19.2677 11.1807 19.305 11.2973 19.333 11.428C19.361 11.5493 19.375 11.68 19.375 11.82C19.375 12.4827 19.1137 13.024 18.591 13.444C18.0777 13.864 17.3263 14.074 16.337 14.074C15.6743 14.074 15.1983 14.13 14.909 14.242C14.6197 14.354 14.475 14.4987 14.475 14.676C14.475 14.816 14.573 14.9233 14.769 14.998C14.965 15.0633 15.2917 15.11 15.749 15.138L17.555 15.236C18.3577 15.2827 18.955 15.474 19.347 15.81C19.739 16.146 19.935 16.6033 19.935 17.182C19.935 17.8913 19.6223 18.4467 18.997 18.848C18.381 19.2493 17.499 19.45 16.351 19.45C15.1657 19.45 14.2603 19.2773 13.635 18.932C13.019 18.596 12.711 18.1107 12.711 17.476C12.711 16.8507 13.1497 16.3233 14.027 15.894C14.1297 15.8473 14.1297 15.796 14.027 15.74C13.5977 15.5533 13.383 15.278 13.383 14.914C13.383 14.7087 13.4763 14.5127 13.663 14.326C13.859 14.1393 14.1343 13.9853 14.489 13.864C14.5357 13.8547 14.559 13.8313 14.559 13.794C14.559 13.7473 14.5357 13.7147 14.489 13.696C14.0783 13.4813 13.775 13.2247 13.579 12.926C13.383 12.618 13.285 12.2493 13.285 11.82C13.285 11.092 13.5603 10.518 14.111 10.098C14.6617 9.678 15.441 9.468 16.449 9.468C17.3357 9.468 18.0357 9.678 18.549 10.098C18.6143 10.1447 18.661 10.168 18.689 10.168C18.7263 10.168 18.7777 10.1447 18.843 10.098C19.0203 9.92067 19.2257 9.77133 19.459 9.65C19.7017 9.51933 19.935 9.454 20.159 9.454ZM16.337 13.332C16.981 13.332 17.4617 13.2013 17.779 12.94C18.1057 12.6787 18.269 12.3007 18.269 11.806C18.269 11.302 18.1057 10.91 17.779 10.63C17.4523 10.35 16.9717 10.21 16.337 10.21C15.721 10.21 15.2403 10.3547 14.895 10.644C14.5497 10.924 14.377 11.3113 14.377 11.806C14.377 12.2913 14.545 12.6693 14.881 12.94C15.2263 13.2013 15.7117 13.332 16.337 13.332ZM15.105 16.09C14.937 16.0807 14.7457 16.132 14.531 16.244C14.3163 16.3467 14.1343 16.496 13.985 16.692C13.8357 16.888 13.761 17.1027 13.761 17.336C13.761 17.784 13.9897 18.1247 14.447 18.358C14.9043 18.6007 15.581 18.722 16.477 18.722C18.0543 18.722 18.843 18.2553 18.843 17.322C18.843 16.9953 18.731 16.7387 18.507 16.552C18.2923 16.3653 17.9377 16.258 17.443 16.23L15.105 16.09Z" fill="#333333"/>
</svg>
