<svg width="24" height="24" viewBox="0 0 24 24" fill="none" xmlns="http://www.w3.org/2000/svg">
<path d="M5.18655 16.524L4.99055 17H0.671547L0.860547 16.524C1.18721 16.4633 1.46021 16.4027 1.67955 16.342C1.89421 16.2813 2.08788 16.1997 2.26055 16.097C2.43321 15.9943 2.60821 15.8543 2.78555 15.677C2.96755 15.495 3.18455 15.2547 3.43655 14.956L9.38655 7.949L9.51955 6.843L11.6475 6.059L10.5065 15.649C10.4692 15.9523 10.5229 16.1623 10.6675 16.279C10.8169 16.391 11.1389 16.4727 11.6335 16.524L11.4375 17H6.62155L6.81055 16.524C7.25388 16.496 7.58988 16.4517 7.81855 16.391C8.04721 16.3303 8.20821 16.2253 8.30155 16.076C8.39955 15.9267 8.46488 15.7073 8.49755 15.418L8.67955 13.899H5.34055L4.41655 14.977C4.08988 15.3643 3.92655 15.6537 3.92655 15.845C3.92655 15.999 4.02221 16.1273 4.21355 16.23C4.40955 16.3327 4.73388 16.4307 5.18655 16.524ZM5.96355 13.171H8.76355L9.21155 9.384L5.96355 13.171ZM14.6998 20.465C13.9811 20.465 13.3348 20.3787 12.7608 20.206C12.1868 20.0333 11.7318 19.7907 11.3958 19.478C11.0598 19.1653 10.8918 18.799 10.8918 18.379C10.8918 18.015 11.0131 17.6977 11.2558 17.427C11.4984 17.161 11.8228 16.9533 12.2288 16.804C12.6301 16.65 13.0711 16.5683 13.5518 16.559C13.1504 16.2137 12.9498 15.8217 12.9498 15.383C12.9498 14.9397 13.1318 14.5897 13.4958 14.333C13.8644 14.0717 14.3451 13.9177 14.9378 13.871L14.9728 13.808C14.1981 13.3227 13.8108 12.716 13.8108 11.988C13.8108 11.5447 13.9554 11.1293 14.2448 10.742C14.5388 10.3547 14.9308 10.042 15.4208 9.804C15.9108 9.56133 16.4521 9.44 17.0448 9.44C17.3528 9.44 17.6421 9.475 17.9128 9.545C18.1834 9.615 18.4284 9.71533 18.6478 9.846C18.9464 9.47267 19.2638 9.188 19.5998 8.992C19.9358 8.796 20.2601 8.698 20.5728 8.698C20.8854 8.698 21.1374 8.78667 21.3288 8.964C21.5248 9.13667 21.6228 9.36067 21.6228 9.636C21.6228 9.85533 21.5528 10.0443 21.4128 10.203C21.2728 10.357 21.0791 10.434 20.8318 10.434C20.6638 10.434 20.5308 10.399 20.4328 10.329C20.3394 10.2543 20.2601 10.1727 20.1948 10.084C20.1341 9.99067 20.0688 9.909 19.9988 9.839C19.9334 9.76433 19.8401 9.727 19.7188 9.727C19.5274 9.727 19.3104 9.86467 19.0678 10.14C19.3244 10.364 19.5228 10.6277 19.6628 10.931C19.8028 11.2297 19.8728 11.5517 19.8728 11.897C19.8728 12.3963 19.7304 12.8303 19.4458 13.199C19.1611 13.5677 18.7621 13.8547 18.2488 14.06C17.7401 14.2607 17.1451 14.361 16.4638 14.361C16.2444 14.361 16.0718 14.3587 15.9458 14.354C15.8244 14.3447 15.7194 14.3377 15.6308 14.333C15.3088 14.3143 15.0544 14.3563 14.8678 14.459C14.6811 14.557 14.5878 14.7133 14.5878 14.928C14.5878 15.0727 14.6531 15.215 14.7838 15.355C14.9191 15.495 15.1921 15.6467 15.6028 15.81L16.9958 16.356C17.5324 16.566 17.9431 16.8087 18.2278 17.084C18.5171 17.364 18.6618 17.7093 18.6618 18.12C18.6618 18.5773 18.4938 18.981 18.1578 19.331C17.8264 19.6857 17.3644 19.9633 16.7718 20.164C16.1791 20.3647 15.4884 20.465 14.6998 20.465ZM16.4148 13.787C16.6854 13.787 16.9398 13.6517 17.1778 13.381C17.4158 13.1103 17.6071 12.765 17.7518 12.345C17.9011 11.925 17.9758 11.4957 17.9758 11.057C17.9758 10.3663 17.7868 10.021 17.4088 10.021C17.2221 10.021 17.0308 10.1003 16.8348 10.259C16.6434 10.413 16.4661 10.6207 16.3028 10.882C16.1394 11.1387 16.0064 11.4257 15.9038 11.743C15.8058 12.0603 15.7568 12.3777 15.7568 12.695C15.7568 13.0403 15.8128 13.3087 15.9248 13.5C16.0368 13.6913 16.2001 13.787 16.4148 13.787ZM14.8888 19.821C15.2388 19.821 15.5561 19.765 15.8408 19.653C16.1254 19.5457 16.3518 19.401 16.5198 19.219C16.6878 19.037 16.7718 18.841 16.7718 18.631C16.7718 18.3883 16.6551 18.1807 16.4218 18.008C16.1884 17.8353 15.8524 17.6627 15.4138 17.49L14.4898 17.119C14.2191 17.0117 14.0301 16.958 13.9228 16.958C13.7921 16.958 13.6404 17.0233 13.4678 17.154C13.2998 17.2893 13.1528 17.4597 13.0268 17.665C12.9054 17.875 12.8448 18.0943 12.8448 18.323C12.8448 18.6263 12.9381 18.89 13.1248 19.114C13.3161 19.338 13.5658 19.5107 13.8738 19.632C14.1864 19.758 14.5248 19.821 14.8888 19.821Z" fill="#333333"/>
</svg>
