<svg width="24" height="24" viewBox="0 0 24 24" fill="none" xmlns="http://www.w3.org/2000/svg">
<path d="M3.36041 17C3.32308 17 3.29041 16.986 3.26241 16.958C3.24375 16.93 3.23908 16.8973 3.24841 16.86L8.40041 6.752C8.42841 6.696 8.45641 6.65867 8.48441 6.64C8.51241 6.62133 8.55908 6.612 8.62441 6.612H9.08641C9.16108 6.612 9.21708 6.626 9.25441 6.654C9.29175 6.682 9.31041 6.71933 9.31041 6.766L11.5784 16.874C11.5877 16.9113 11.5831 16.944 11.5644 16.972C11.5457 16.9907 11.5131 17 11.4664 17H11.1304C11.0184 17 10.9624 16.958 10.9624 16.874L10.2484 13.752C10.2391 13.696 10.2017 13.668 10.1364 13.668H5.62841C5.55375 13.668 5.50241 13.7053 5.47441 13.78L3.86441 16.916C3.85508 16.9533 3.83641 16.9767 3.80841 16.986C3.78975 16.9953 3.75708 17 3.71041 17H3.36041ZM9.98241 13.108C10.0757 13.108 10.1131 13.0567 10.0944 12.954L8.84841 7.494C8.82975 7.40067 8.80175 7.35867 8.76441 7.368C8.73641 7.37733 8.69908 7.43333 8.65241 7.536L5.86641 12.94C5.83841 13.0053 5.82441 13.052 5.82441 13.08C5.82441 13.0987 5.84308 13.108 5.88041 13.108H9.98241ZM15.7951 19.45C14.7685 19.45 13.9985 19.2773 13.4851 18.932C12.9718 18.596 12.7151 18.1527 12.7151 17.602C12.7151 17.1913 12.8458 16.818 13.1071 16.482C13.3685 16.146 13.7278 15.8707 14.1851 15.656C14.2411 15.628 14.2785 15.6047 14.2971 15.586C14.3158 15.558 14.3018 15.53 14.2551 15.502C14.1151 15.3993 14.0125 15.3013 13.9471 15.208C13.8818 15.1053 13.8491 14.9933 13.8491 14.872C13.8491 14.704 13.9005 14.5547 14.0031 14.424C14.1151 14.2933 14.2505 14.1813 14.4091 14.088C14.5771 13.9947 14.7405 13.92 14.8991 13.864C14.9551 13.8453 14.9925 13.8173 15.0111 13.78C15.0298 13.7427 15.0158 13.7147 14.9691 13.696C14.6611 13.5093 14.4325 13.2947 14.2831 13.052C14.1431 12.8093 14.0731 12.5247 14.0731 12.198C14.0731 11.7593 14.1571 11.372 14.3251 11.036C14.4931 10.7 14.7218 10.4153 15.0111 10.182C15.3005 9.94867 15.6318 9.77133 16.0051 9.65C16.3878 9.52867 16.7891 9.468 17.2091 9.468C17.7691 9.468 18.2031 9.53333 18.5111 9.664C18.8285 9.79467 19.0758 9.944 19.2531 10.112C19.2905 10.1493 19.3278 10.168 19.3651 10.168C19.4118 10.1587 19.4585 10.1353 19.5051 10.098C19.6171 10.0233 19.7385 9.94867 19.8691 9.874C19.9998 9.79 20.1445 9.72 20.3031 9.664C20.4618 9.608 20.6205 9.58 20.7791 9.58C20.8911 9.58 20.9658 9.59867 21.0031 9.636C21.0405 9.664 21.0545 9.71067 21.0451 9.776L21.0171 9.958C21.0078 10.0233 20.9891 10.0747 20.9611 10.112C20.9331 10.14 20.8725 10.1587 20.7791 10.168C20.5925 10.1773 20.4431 10.2007 20.3311 10.238C20.2191 10.2753 20.1025 10.322 19.9811 10.378C19.7105 10.518 19.5891 10.63 19.6171 10.714C19.6545 10.8073 19.6918 10.9193 19.7291 11.05C19.7665 11.1713 19.7851 11.3253 19.7851 11.512C19.7851 11.9507 19.7011 12.3333 19.5331 12.66C19.3651 12.9773 19.1318 13.2433 18.8331 13.458C18.5438 13.6633 18.2125 13.8173 17.8391 13.92C17.4658 14.0227 17.0691 14.074 16.6491 14.074C16.5558 14.074 16.3878 14.0833 16.1451 14.102C15.9118 14.1113 15.6645 14.1393 15.4031 14.186C15.1418 14.2327 14.9178 14.3073 14.7311 14.41C14.5445 14.5033 14.4511 14.634 14.4511 14.802C14.4511 14.9513 14.5631 15.0633 14.7871 15.138C15.0111 15.2033 15.3798 15.25 15.8931 15.278L17.5591 15.376C18.2218 15.4133 18.7071 15.572 19.0151 15.852C19.3325 16.1227 19.4911 16.5193 19.4911 17.042C19.4911 17.3967 19.4258 17.7047 19.2951 17.966C19.1645 18.2367 18.9778 18.4653 18.7351 18.652C18.5018 18.8387 18.2265 18.988 17.9091 19.1C17.6011 19.2213 17.2651 19.31 16.9011 19.366C16.5465 19.422 16.1778 19.45 15.7951 19.45ZM15.7811 18.918C16.1265 18.918 16.4811 18.89 16.8451 18.834C17.2091 18.7873 17.5451 18.694 17.8531 18.554C18.1611 18.4233 18.4085 18.232 18.5951 17.98C18.7911 17.7373 18.8891 17.4247 18.8891 17.042C18.8891 16.6873 18.7865 16.426 18.5811 16.258C18.3758 16.0807 18.0118 15.978 17.4891 15.95L15.0951 15.796C14.7498 15.88 14.4418 16.0013 14.1711 16.16C13.9098 16.3187 13.6998 16.51 13.5411 16.734C13.3918 16.958 13.3171 17.2193 13.3171 17.518C13.3171 18.0313 13.5411 18.3907 13.9891 18.596C14.4465 18.8107 15.0438 18.918 15.7811 18.918ZM16.6771 13.542C17.1251 13.542 17.5405 13.4767 17.9231 13.346C18.3151 13.206 18.6325 12.982 18.8751 12.674C19.1178 12.366 19.2391 11.9553 19.2391 11.442C19.2391 10.9753 19.0711 10.6207 18.7351 10.378C18.3991 10.126 17.8998 10 17.2371 10C16.7891 10 16.3645 10.0793 15.9631 10.238C15.5711 10.3873 15.2491 10.6207 14.9971 10.938C14.7545 11.246 14.6331 11.6473 14.6331 12.142C14.6331 12.5993 14.8105 12.9493 15.1651 13.192C15.5198 13.4253 16.0238 13.542 16.6771 13.542Z" fill="#888888"/>
</svg>
