<svg width="24" height="24" viewBox="0 0 24 24" fill="none" xmlns="http://www.w3.org/2000/svg">
<path d="M0.371094 13V4.74H1.63109V13H0.371094ZM2.05109 13V4.74H2.47109V13H2.05109ZM2.89109 13V4.74H3.31109V13H2.89109ZM4.99109 13V4.74H5.41109V13H4.99109ZM5.83109 13V4.74H7.09109V13H5.83109ZM7.50781 13V4.74H7.92781V13H7.50781ZM9.60781 13V4.74H10.0278V13H9.60781ZM10.4478 13V4.74H10.8678V13H10.4478ZM12.5478 13V4.74H12.9678V13H12.5478ZM14.6478 13V4.74H15.0678V13H14.6478ZM15.4878 13V4.74H15.9078V13H15.4878ZM16.3278 13V4.74H16.7478V13H16.3278ZM17.1678 13V4.74H17.5878V13H17.1678ZM19.2678 13V4.74H20.5278V13H19.2678ZM20.9478 13V4.74H22.2078V13H20.9478Z" fill="#333333"/>
</svg>
