<svg width="24" height="24" viewBox="0 0 24 24" fill="none" xmlns="http://www.w3.org/2000/svg">
<path d="M3.86441 17C3.77108 17 3.73841 16.958 3.76641 16.874L7.47641 6.766C7.49508 6.71 7.51841 6.67267 7.54641 6.654C7.58375 6.626 7.63508 6.612 7.70041 6.612H8.16241C8.30241 6.612 8.38641 6.65867 8.41441 6.752L12.0824 16.86L12.0964 16.902C12.0964 16.9673 12.0544 17 11.9704 17H11.6344C11.5411 17 11.4804 16.9627 11.4524 16.888L10.3184 13.766C10.2904 13.7007 10.2437 13.668 10.1784 13.668H5.67041C5.60508 13.668 5.55841 13.7007 5.53041 13.766L4.36841 16.902C4.35908 16.9673 4.30775 17 4.21441 17H3.86441ZM9.94041 13.108C10.0337 13.108 10.0664 13.0613 10.0384 12.968L8.03641 7.508C8.00841 7.41467 7.97575 7.368 7.93841 7.368C7.91041 7.368 7.87308 7.41933 7.82641 7.522L5.79641 12.996C5.77775 13.0427 5.77308 13.0753 5.78241 13.094C5.79175 13.1033 5.81975 13.108 5.86641 13.108H9.94041ZM20.2891 9.58C20.3918 9.58 20.4618 9.594 20.4991 9.622C20.5365 9.65 20.5551 9.69667 20.5551 9.762V9.944C20.5551 10.0093 20.5365 10.0607 20.4991 10.098C20.4711 10.1353 20.4105 10.1587 20.3171 10.168C20.1398 10.1773 19.9951 10.196 19.8831 10.224C19.7711 10.252 19.6591 10.2987 19.5471 10.364C19.4258 10.4293 19.3418 10.49 19.2951 10.546C19.2578 10.5927 19.2485 10.6393 19.2671 10.686C19.2858 10.7233 19.3231 10.8027 19.3791 10.924C19.4351 11.0453 19.4771 11.1853 19.5051 11.344C19.5425 11.4933 19.5611 11.6567 19.5611 11.834C19.5611 12.4967 19.3231 13.038 18.8471 13.458C18.3805 13.8687 17.6758 14.074 16.7331 14.074C15.9958 14.074 15.4638 14.1393 15.1371 14.27C14.8198 14.4007 14.6611 14.564 14.6611 14.76C14.6611 14.928 14.7778 15.0493 15.0111 15.124C15.2445 15.1987 15.6365 15.25 16.1871 15.278L17.8671 15.376C18.5951 15.4133 19.1365 15.5953 19.4911 15.922C19.8458 16.2487 20.0231 16.6967 20.0231 17.266C20.0231 17.966 19.7291 18.5027 19.1411 18.876C18.5625 19.2587 17.7411 19.45 16.6771 19.45C15.6038 19.45 14.7731 19.268 14.1851 18.904C13.6065 18.54 13.3171 18.0313 13.3171 17.378C13.3171 16.6873 13.7465 16.104 14.6051 15.628C14.7078 15.572 14.7078 15.5207 14.6051 15.474C14.2505 15.3153 14.0731 15.082 14.0731 14.774C14.0731 14.606 14.1478 14.4427 14.2971 14.284C14.4465 14.116 14.6845 13.9807 15.0111 13.878C15.0578 13.8687 15.0811 13.8453 15.0811 13.808C15.0811 13.7707 15.0531 13.738 14.9971 13.71C14.6145 13.4953 14.3345 13.2387 14.1571 12.94C13.9798 12.6413 13.8911 12.2727 13.8911 11.834C13.8911 11.0873 14.1478 10.5087 14.6611 10.098C15.1838 9.678 15.9071 9.468 16.8311 9.468C17.2791 9.468 17.6618 9.51933 17.9791 9.622C18.3058 9.72467 18.5905 9.88333 18.8331 10.098C18.8985 10.1447 18.9405 10.168 18.9591 10.168C18.9871 10.168 19.0291 10.1493 19.0851 10.112C19.2998 9.95333 19.4958 9.82733 19.6731 9.734C19.8598 9.63133 20.0651 9.58 20.2891 9.58ZM16.7471 13.542C18.2498 13.542 19.0011 12.9633 19.0011 11.806C19.0011 11.218 18.8098 10.77 18.4271 10.462C18.0445 10.154 17.4845 10 16.7471 10C16.0191 10 15.4545 10.1587 15.0531 10.476C14.6518 10.7933 14.4511 11.2367 14.4511 11.806C14.4511 12.366 14.6471 12.7953 15.0391 13.094C15.4405 13.3927 16.0098 13.542 16.7471 13.542ZM15.3891 15.796C15.2305 15.7867 15.0298 15.852 14.7871 15.992C14.5538 16.1227 14.3485 16.3047 14.1711 16.538C13.9938 16.7713 13.9051 17.0327 13.9051 17.322C13.9051 17.8353 14.1571 18.2273 14.6611 18.498C15.1651 18.778 15.8791 18.918 16.8031 18.918C17.6711 18.918 18.3245 18.7827 18.7631 18.512C19.2111 18.2413 19.4351 17.826 19.4351 17.266C19.4351 16.8647 19.3138 16.5567 19.0711 16.342C18.8285 16.118 18.4225 15.9873 17.8531 15.95L15.3891 15.796Z" fill="#333333"/>
</svg>
