<svg width="24" height="24" viewBox="0 0 24 24" fill="none" xmlns="http://www.w3.org/2000/svg">
<path d="M9.23434 13.094H5.49634C5.33768 13.4767 5.20234 13.8173 5.09034 14.116C4.97834 14.4053 4.88501 14.6573 4.81034 14.872C4.74501 15.0867 4.69834 15.2687 4.67034 15.418C4.64234 15.5673 4.62834 15.6887 4.62834 15.782C4.62834 16.0433 4.71234 16.2253 4.88034 16.328C5.04834 16.4213 5.32834 16.468 5.72034 16.468V17H2.31834V16.468C2.53301 16.44 2.71501 16.4027 2.86434 16.356C3.02301 16.3093 3.15834 16.244 3.27034 16.16C3.39168 16.076 3.49434 15.9687 3.57834 15.838C3.67168 15.698 3.76034 15.53 3.84434 15.334L7.48434 6.22H8.08634L11.2643 14.116C11.479 14.6387 11.6657 15.0587 11.8243 15.376C11.983 15.684 12.137 15.9173 12.2863 16.076C12.4357 16.2347 12.5943 16.3373 12.7623 16.384C12.9397 16.4307 13.1497 16.454 13.3923 16.454V17H8.82834V16.454C9.32301 16.454 9.66368 16.4073 9.85034 16.314C10.037 16.2207 10.1303 16.0667 10.1303 15.852C10.1303 15.7587 10.1257 15.6747 10.1163 15.6C10.107 15.516 10.0883 15.4273 10.0603 15.334C10.0417 15.2407 10.009 15.138 9.96234 15.026C9.92501 14.9047 9.87368 14.7647 9.80834 14.606L9.23434 13.094ZM5.77634 12.394H8.96834L7.41434 8.264L5.77634 12.394ZM17.0528 13.99C17.4448 13.99 17.7481 13.8127 17.9628 13.458C18.1868 13.1033 18.2988 12.604 18.2988 11.96C18.2988 11.3253 18.1868 10.8353 17.9628 10.49C17.7481 10.1353 17.4401 9.958 17.0388 9.958C16.6375 9.958 16.3155 10.1353 16.0728 10.49C15.8395 10.8447 15.7228 11.33 15.7228 11.946C15.7228 12.562 15.8441 13.0567 16.0868 13.43C16.3295 13.8033 16.6515 13.99 17.0528 13.99ZM16.2828 15.628C16.5068 15.6467 16.7121 15.6653 16.8988 15.684C17.0855 15.7027 17.2675 15.7213 17.4448 15.74C17.6315 15.7587 17.8135 15.782 17.9908 15.81C18.1775 15.838 18.3781 15.866 18.5928 15.894C19.2648 15.9967 19.8015 16.258 20.2028 16.678C20.6135 17.0887 20.8188 17.6067 20.8188 18.232C20.8188 19.016 20.5061 19.6133 19.8808 20.024C19.2648 20.4347 18.3688 20.64 17.1928 20.64C16.6701 20.64 16.1895 20.5933 15.7508 20.5C15.3215 20.4067 14.9528 20.2713 14.6448 20.094C14.3368 19.926 14.0941 19.7207 13.9168 19.478C13.7488 19.2353 13.6648 18.9693 13.6648 18.68C13.6648 18.484 13.6975 18.302 13.7628 18.134C13.8281 17.966 13.9168 17.8167 14.0288 17.686C14.1408 17.5647 14.2715 17.4667 14.4208 17.392C14.5795 17.3173 14.7428 17.28 14.9108 17.28C15.2281 17.28 15.5128 17.378 15.7648 17.574C15.5128 17.63 15.3075 17.7653 15.1488 17.98C14.9901 18.204 14.9108 18.456 14.9108 18.736C14.9108 19.1467 15.1115 19.464 15.5128 19.688C15.9235 19.912 16.5021 20.024 17.2488 20.024C18.8448 20.024 19.6428 19.534 19.6428 18.554C19.6428 18.1807 19.5168 17.868 19.2648 17.616C19.0128 17.3733 18.7141 17.2287 18.3688 17.182C18.1448 17.154 17.9115 17.1213 17.6688 17.084C17.4355 17.056 17.2021 17.028 16.9688 17C16.7448 16.972 16.5348 16.9487 16.3388 16.93C16.1428 16.9113 15.9841 16.8927 15.8628 16.874C15.3401 16.818 14.9435 16.678 14.6728 16.454C14.4021 16.23 14.2668 15.922 14.2668 15.53C14.2668 15.2033 14.4021 14.914 14.6728 14.662C14.9435 14.41 15.2841 14.2513 15.6948 14.186V14.13C15.4895 14.046 15.2981 13.9293 15.1208 13.78C14.9435 13.6213 14.7895 13.444 14.6588 13.248C14.5375 13.052 14.4395 12.842 14.3648 12.618C14.2901 12.3847 14.2528 12.1467 14.2528 11.904C14.2528 11.5493 14.3181 11.2227 14.4488 10.924C14.5888 10.6253 14.7801 10.3687 15.0228 10.154C15.2748 9.93 15.5688 9.75733 15.9048 9.636C16.2408 9.50533 16.6095 9.44 17.0108 9.44C17.4215 9.44 17.8088 9.50533 18.1728 9.636C18.5368 9.75733 18.8495 9.93933 19.1108 10.182C19.4281 9.92067 19.7081 9.734 19.9508 9.622C20.1935 9.50067 20.4221 9.44 20.6368 9.44C20.9728 9.44 21.2388 9.51933 21.4348 9.678C21.6401 9.82733 21.7428 10.0327 21.7428 10.294C21.7428 10.4527 21.6868 10.5787 21.5748 10.672C21.4721 10.7653 21.3415 10.812 21.1828 10.812C21.0521 10.812 20.9448 10.7887 20.8608 10.742C20.7768 10.6953 20.6975 10.6487 20.6228 10.602C20.5575 10.546 20.4875 10.4947 20.4128 10.448C20.3381 10.4013 20.2448 10.378 20.1328 10.378C19.9088 10.378 19.6801 10.4573 19.4468 10.616C19.6708 10.9613 19.7828 11.3953 19.7828 11.918C19.7828 12.7113 19.5355 13.3367 19.0408 13.794C18.5461 14.242 17.8041 14.5033 16.8148 14.578C16.2455 14.6247 15.8488 14.6853 15.6248 14.76C15.4008 14.8347 15.2888 14.97 15.2888 15.166C15.2888 15.3153 15.3728 15.4273 15.5408 15.502C15.7088 15.5673 15.9561 15.6093 16.2828 15.628Z" fill="#333333"/>
</svg>
