<svg width="24" height="24" viewBox="0 0 24 24" fill="none" xmlns="http://www.w3.org/2000/svg">
<path d="M2.82546 17V16.664C3.30613 16.5847 3.66779 16.489 3.91046 16.377C4.15313 16.2603 4.33513 16.104 4.45646 15.908C4.57779 15.7073 4.69679 15.4437 4.81346 15.117L7.49446 7.704L7.10246 6.815L8.55846 6.059L12.2545 15.81C12.3338 16.0247 12.4201 16.188 12.5135 16.3C12.6115 16.412 12.7491 16.4937 12.9265 16.545C13.1038 16.5963 13.3535 16.636 13.6755 16.664V17H9.09746V16.664C9.55013 16.636 9.88846 16.6033 10.1125 16.566C10.3365 16.524 10.4648 16.433 10.4975 16.293C10.5301 16.1483 10.4881 15.9127 10.3715 15.586L7.85146 8.677H7.80946L5.43646 15.278C5.33379 15.5627 5.30579 15.796 5.35246 15.978C5.39913 16.1553 5.53679 16.2977 5.76546 16.405C5.99413 16.5077 6.32779 16.594 6.76646 16.664V17H2.82546ZM5.96146 13.192V12.604H9.79746V13.192H5.96146ZM18.6077 10.035C18.6871 9.80633 18.7921 9.573 18.9227 9.335C19.0534 9.09233 19.2167 8.887 19.4127 8.719C19.6087 8.551 19.8397 8.467 20.1057 8.467C20.3251 8.467 20.5164 8.53 20.6797 8.656C20.8431 8.782 20.9247 8.95467 20.9247 9.174C20.9247 9.36067 20.8617 9.52167 20.7357 9.657C20.6097 9.78767 20.4534 9.853 20.2667 9.853C20.1314 9.853 20.0311 9.82267 19.9657 9.762C19.9004 9.70133 19.8397 9.64067 19.7837 9.58C19.7324 9.51933 19.6484 9.489 19.5317 9.489C19.4057 9.489 19.2914 9.57067 19.1887 9.734C19.0861 9.89267 19.0137 10.0747 18.9717 10.28L18.6077 10.035ZM17.1027 14.193C17.4574 14.193 17.7327 14.0787 17.9287 13.85C18.1294 13.6213 18.2694 13.339 18.3487 13.003C18.4281 12.6623 18.4677 12.3333 18.4677 12.016C18.4677 11.8153 18.4491 11.5983 18.4117 11.365C18.3791 11.127 18.3161 10.903 18.2227 10.693C18.1341 10.4783 18.0034 10.3033 17.8307 10.168C17.6627 10.028 17.4457 9.958 17.1797 9.958C16.8997 9.958 16.6711 10.0327 16.4937 10.182C16.3164 10.3267 16.1787 10.5157 16.0807 10.749C15.9827 10.9777 15.9151 11.218 15.8777 11.47C15.8404 11.722 15.8217 11.953 15.8217 12.163C15.8217 12.429 15.8544 12.7207 15.9197 13.038C15.9851 13.3507 16.1087 13.6213 16.2907 13.85C16.4774 14.0787 16.7481 14.193 17.1027 14.193ZM17.1097 14.655C16.6151 14.655 16.2371 14.7133 15.9757 14.83C15.7144 14.942 15.5837 15.117 15.5837 15.355C15.5837 15.523 15.7004 15.663 15.9337 15.775C16.1717 15.8823 16.6314 15.9873 17.3127 16.09L18.3137 16.265C19.1257 16.391 19.7231 16.6057 20.1057 16.909C20.4931 17.2077 20.6867 17.6137 20.6867 18.127C20.6867 18.5517 20.5677 18.9203 20.3297 19.233C20.0917 19.5457 19.7721 19.8023 19.3707 20.003C18.9741 20.2083 18.5307 20.36 18.0407 20.458C17.5507 20.556 17.0537 20.605 16.5497 20.605C16.1811 20.605 15.8194 20.57 15.4647 20.5C15.1101 20.4347 14.7881 20.3297 14.4987 20.185C14.2141 20.0403 13.9854 19.8537 13.8127 19.625C13.6401 19.3963 13.5537 19.1187 13.5537 18.792C13.5537 18.4093 13.6961 18.064 13.9807 17.756C14.2654 17.4527 14.7554 17.161 15.4507 16.881L15.8777 17.056C15.5231 17.1913 15.2454 17.4013 15.0447 17.686C14.8441 17.9753 14.7437 18.2857 14.7437 18.617C14.7437 18.9577 14.8394 19.2377 15.0307 19.457C15.2221 19.681 15.4764 19.8467 15.7937 19.954C16.1157 20.066 16.4634 20.122 16.8367 20.122C17.2894 20.122 17.7211 20.0707 18.1317 19.968C18.5471 19.8653 18.8854 19.7067 19.1467 19.492C19.4127 19.2773 19.5457 19.002 19.5457 18.666C19.5457 18.4933 19.4897 18.337 19.3777 18.197C19.2657 18.057 19.0487 17.924 18.7267 17.798C18.4094 17.6767 17.9404 17.5577 17.3197 17.441L16.1647 17.224C15.5534 17.1073 15.0937 16.9253 14.7857 16.678C14.4824 16.4307 14.3307 16.1343 14.3307 15.789C14.3307 15.6303 14.3797 15.46 14.4777 15.278C14.5804 15.096 14.7764 14.9257 15.0657 14.767C15.3551 14.6037 15.7821 14.4823 16.3467 14.403L17.1097 14.655ZM17.1097 14.655C16.5637 14.655 16.0807 14.55 15.6607 14.34C15.2407 14.1253 14.9117 13.8267 14.6737 13.444C14.4357 13.0567 14.3167 12.6063 14.3167 12.093C14.3167 11.5983 14.4381 11.1573 14.6807 10.77C14.9281 10.3827 15.2641 10.077 15.6887 9.853C16.1134 9.629 16.5941 9.517 17.1307 9.517C17.6627 9.517 18.1434 9.62667 18.5727 9.846C19.0021 10.0607 19.3427 10.3593 19.5947 10.742C19.8467 11.1247 19.9727 11.561 19.9727 12.051C19.9727 12.513 19.8537 12.9423 19.6157 13.339C19.3777 13.731 19.0441 14.0483 18.6147 14.291C18.1854 14.5337 17.6837 14.655 17.1097 14.655Z" fill="#888888"/>
</svg>
