<svg width="24" height="24" viewBox="0 0 24 24" fill="none" xmlns="http://www.w3.org/2000/svg">
<path d="M10.5048 8.67L5.05179 15.019C4.86512 15.2383 4.73212 15.4157 4.65279 15.551C4.57346 15.6817 4.53379 15.8007 4.53379 15.908C4.53379 16.0573 4.62712 16.1857 4.81379 16.293C5.00512 16.4003 5.32012 16.496 5.75879 16.58L5.58379 17H1.36979L1.54479 16.58C1.86679 16.524 2.13979 16.4633 2.36379 16.398C2.58312 16.3327 2.78379 16.2463 2.96579 16.139C3.14312 16.0317 3.32279 15.887 3.50479 15.705C3.68679 15.523 3.90146 15.2873 4.14879 14.998L10.4698 7.585L10.5048 8.67ZM9.97979 13.612H5.82879L6.19279 12.954H10.2248L9.97979 13.612ZM10.1758 8.621L10.4068 6.675L12.2968 6.045L11.1138 15.677C11.0765 15.9803 11.1301 16.195 11.2748 16.321C11.4195 16.447 11.7415 16.5333 12.2408 16.58L12.0588 17H7.45279L7.63479 16.58C8.05479 16.5567 8.37912 16.5123 8.60779 16.447C8.83646 16.3817 9.00212 16.272 9.10479 16.118C9.20746 15.9593 9.27512 15.74 9.30779 15.46L10.1758 8.621ZM19.0126 9.958C19.3113 9.53333 19.6333 9.223 19.9786 9.027C20.3286 8.82633 20.6623 8.726 20.9796 8.726C21.269 8.726 21.5 8.80767 21.6726 8.971C21.85 9.12967 21.9386 9.33267 21.9386 9.58C21.9386 9.78067 21.8733 9.951 21.7426 10.091C21.612 10.231 21.437 10.301 21.2176 10.301C21.073 10.301 20.9563 10.2707 20.8676 10.21C20.7836 10.1447 20.7113 10.0747 20.6506 10C20.59 9.92067 20.527 9.85067 20.4616 9.79C20.3963 9.72933 20.3076 9.699 20.1956 9.699C20.0556 9.699 19.9203 9.74567 19.7896 9.839C19.659 9.93233 19.5143 10.0863 19.3556 10.301L19.0126 9.958ZM15.4146 19.926C15.8066 19.926 16.1566 19.8677 16.4646 19.751C16.7773 19.639 17.0246 19.4873 17.2066 19.296C17.3886 19.1047 17.4796 18.8947 17.4796 18.666C17.4796 18.428 17.3676 18.2157 17.1436 18.029C16.9243 17.8423 16.6186 17.6743 16.2266 17.525L15.0226 17.077C14.7753 16.9883 14.6003 16.944 14.4976 16.944C14.311 16.944 14.122 17.0117 13.9306 17.147C13.7393 17.2823 13.5806 17.4573 13.4546 17.672C13.3286 17.8913 13.2656 18.127 13.2656 18.379C13.2656 18.6917 13.3613 18.9647 13.5526 19.198C13.744 19.4313 14.0006 19.611 14.3226 19.737C14.6493 19.863 15.0133 19.926 15.4146 19.926ZM16.8426 13.85C17.1366 13.85 17.412 13.7123 17.6686 13.437C17.93 13.157 18.14 12.8 18.2986 12.366C18.462 11.932 18.5436 11.4863 18.5436 11.029C18.5436 10.693 18.4923 10.4433 18.3896 10.28C18.287 10.112 18.1306 10.028 17.9206 10.028C17.7153 10.028 17.5053 10.1073 17.2906 10.266C17.0806 10.4247 16.887 10.6347 16.7096 10.896C16.537 11.1573 16.397 11.449 16.2896 11.771C16.1823 12.093 16.1286 12.4173 16.1286 12.744C16.1286 13.094 16.1893 13.367 16.3106 13.563C16.432 13.7543 16.6093 13.85 16.8426 13.85ZM15.2256 20.493C14.521 20.493 13.8933 20.4067 13.3426 20.234C12.792 20.0613 12.358 19.8187 12.0406 19.506C11.7186 19.1933 11.5576 18.827 11.5576 18.407C11.5576 18.043 11.672 17.7233 11.9006 17.448C12.1293 17.1773 12.4373 16.9627 12.8246 16.804C13.212 16.6453 13.639 16.5637 14.1056 16.559C13.7043 16.2277 13.5036 15.838 13.5036 15.39C13.5036 14.9513 13.6856 14.6037 14.0496 14.347C14.4136 14.0903 14.9013 13.948 15.5126 13.92L15.5406 13.857C14.808 13.3763 14.4416 12.772 14.4416 12.044C14.4416 11.596 14.5816 11.176 14.8616 10.784C15.1463 10.392 15.529 10.0747 16.0096 9.832C16.495 9.58933 17.034 9.468 17.6266 9.468C18.14 9.468 18.5903 9.57067 18.9776 9.776C19.3696 9.98133 19.6753 10.2637 19.8946 10.623C20.114 10.9823 20.2236 11.3953 20.2236 11.862C20.2236 12.366 20.086 12.807 19.8106 13.185C19.5353 13.563 19.155 13.8593 18.6696 14.074C18.1843 14.284 17.622 14.389 16.9826 14.389C16.7913 14.389 16.621 14.3843 16.4716 14.375C16.3223 14.3657 16.1893 14.361 16.0726 14.361C15.7133 14.347 15.4356 14.3913 15.2396 14.494C15.0483 14.5967 14.9526 14.753 14.9526 14.963C14.9526 15.1123 15.0156 15.2547 15.1416 15.39C15.2676 15.5207 15.508 15.6537 15.8626 15.789L17.5146 16.398C18.0186 16.5847 18.4083 16.825 18.6836 17.119C18.9636 17.413 19.1036 17.763 19.1036 18.169C19.1036 18.6217 18.938 19.023 18.6066 19.373C18.28 19.723 17.825 19.996 17.2416 20.192C16.663 20.3927 15.991 20.493 15.2256 20.493Z" fill="#888888"/>
</svg>
