<svg width="24" height="24" viewBox="0 0 24 24" fill="none" xmlns="http://www.w3.org/2000/svg">
<path d="M5.42395 16.685L5.27695 17H1.27995L1.43395 16.685C1.84928 16.6243 2.19695 16.5403 2.47695 16.433C2.75228 16.321 3.01128 16.16 3.25395 15.95C3.50128 15.7353 3.78128 15.4437 4.09395 15.075L10.5479 7.564L10.6949 6.339L12.1089 6.017L10.8489 15.726C10.8069 16.0387 10.8559 16.2673 10.9959 16.412C11.1406 16.5567 11.4673 16.6477 11.9759 16.685L11.8149 17H7.62895L7.78995 16.685C8.35461 16.6757 8.75595 16.5847 8.99395 16.412C9.23661 16.2347 9.38828 15.9453 9.44895 15.544L9.79895 13.045H6.60695L4.83595 15.103C4.62128 15.355 4.47195 15.544 4.38795 15.67C4.30861 15.7913 4.26895 15.9103 4.26895 16.027C4.26895 16.1763 4.35528 16.3093 4.52795 16.426C4.70528 16.5427 5.00395 16.629 5.42395 16.685ZM7.05495 12.527H9.86895L10.4149 8.621L7.05495 12.527ZM14.7567 20.549C14.0894 20.549 13.5014 20.4603 12.9927 20.283C12.484 20.1103 12.0897 19.8677 11.8097 19.555C11.525 19.2423 11.3827 18.876 11.3827 18.456C11.3827 18.0967 11.483 17.7747 11.6837 17.49C11.8844 17.2053 12.1597 16.979 12.5097 16.811C12.8597 16.643 13.2564 16.559 13.6997 16.559C13.2984 16.251 13.0977 15.8637 13.0977 15.397C13.0977 14.9677 13.2774 14.6293 13.6367 14.382C14.0007 14.1347 14.507 14.011 15.1557 14.011L15.1697 13.955C14.5117 13.4883 14.1827 12.8887 14.1827 12.156C14.1827 11.694 14.3157 11.2623 14.5817 10.861C14.8524 10.4597 15.221 10.1353 15.6877 9.888C16.1544 9.64067 16.6817 9.517 17.2697 9.517C17.7364 9.517 18.14 9.62433 18.4807 9.839C18.7654 9.42833 19.0664 9.14833 19.3837 8.999C19.701 8.84967 19.9997 8.775 20.2797 8.775C20.5177 8.775 20.7067 8.84267 20.8467 8.978C20.9914 9.11333 21.0637 9.27667 21.0637 9.468C21.0637 9.62667 21.0054 9.75967 20.8887 9.867C20.7767 9.97433 20.6414 10.028 20.4827 10.028C20.3474 10.028 20.2377 9.99533 20.1537 9.93C20.0744 9.86467 19.9974 9.80167 19.9227 9.741C19.8527 9.67567 19.7594 9.643 19.6427 9.643C19.3347 9.643 19.0617 9.79933 18.8237 10.112C19.0104 10.308 19.155 10.5483 19.2577 10.833C19.3604 11.113 19.4117 11.4327 19.4117 11.792C19.4117 12.3007 19.2834 12.7557 19.0267 13.157C18.77 13.5583 18.4224 13.8757 17.9837 14.109C17.5497 14.3377 17.0597 14.452 16.5137 14.452C16.369 14.452 16.1964 14.445 15.9957 14.431C15.795 14.417 15.6084 14.41 15.4357 14.41C14.591 14.41 14.1687 14.6177 14.1687 15.033C14.1687 15.3457 14.3997 15.5813 14.8617 15.74L17.0317 16.475C17.4704 16.6243 17.8204 16.86 18.0817 17.182C18.3477 17.5087 18.4807 17.8727 18.4807 18.274C18.4807 18.7127 18.3197 19.1023 17.9977 19.443C17.6804 19.7883 17.2417 20.059 16.6817 20.255C16.1217 20.451 15.48 20.549 14.7567 20.549ZM16.1777 13.976C16.5184 13.976 16.8404 13.8313 17.1437 13.542C17.447 13.248 17.6944 12.8723 17.8857 12.415C18.077 11.953 18.1727 11.47 18.1727 10.966C18.1727 10.6487 18.1144 10.4153 17.9977 10.266C17.8857 10.112 17.6967 10.035 17.4307 10.035C17.1834 10.035 16.936 10.1167 16.6887 10.28C16.446 10.4433 16.222 10.6603 16.0167 10.931C15.816 11.2017 15.655 11.5027 15.5337 11.834C15.4124 12.1653 15.3517 12.5013 15.3517 12.842C15.3517 13.2013 15.424 13.4813 15.5687 13.682C15.7134 13.878 15.9164 13.976 16.1777 13.976ZM14.9527 20.136C15.6667 20.136 16.2477 20.0007 16.6957 19.73C17.1484 19.464 17.3747 19.1327 17.3747 18.736C17.3747 18.5027 17.2767 18.2787 17.0807 18.064C16.8894 17.854 16.6444 17.6977 16.3457 17.595L14.5747 17C14.3787 16.9393 14.2317 16.909 14.1337 16.909C13.6904 16.909 13.3217 17.063 13.0277 17.371C12.7337 17.6837 12.5867 18.0547 12.5867 18.484C12.5867 18.9973 12.8014 19.401 13.2307 19.695C13.66 19.989 14.234 20.136 14.9527 20.136Z" fill="#333333"/>
</svg>
