<svg width="24" height="24" viewBox="0 0 24 24" fill="none" xmlns="http://www.w3.org/2000/svg">
<path d="M2.00586 17C1.90319 17 1.85186 16.9533 1.85186 16.86C1.85186 16.776 1.89386 16.6453 1.97786 16.468L6.77986 6.85C6.82653 6.75667 6.88719 6.696 6.96186 6.668C7.03653 6.63067 7.13919 6.612 7.26986 6.612H9.70586C9.80853 6.612 9.88319 6.64933 9.92986 6.724C9.97653 6.78933 10.0139 6.88733 10.0419 7.018L12.0999 16.636C12.1092 16.664 12.1139 16.706 12.1139 16.762C12.1139 16.9207 12.0439 17 11.9039 17H9.49586C9.37453 17 9.29053 16.9067 9.24386 16.72L8.86586 14.928C8.85653 14.8813 8.83786 14.8487 8.80986 14.83C8.79119 14.8113 8.75386 14.802 8.69786 14.802H5.53386C5.43119 14.802 5.35186 14.858 5.29586 14.97L4.34386 16.874C4.31586 16.9207 4.28319 16.9533 4.24586 16.972C4.20853 16.9907 4.14319 17 4.04986 17H2.00586ZM8.34786 12.674C8.49719 12.674 8.54853 12.5853 8.50186 12.408L7.89986 9.65C7.89053 9.55667 7.85786 9.51 7.80186 9.51C7.76453 9.51 7.72253 9.552 7.67586 9.636L6.30386 12.45C6.27586 12.5153 6.26186 12.5667 6.26186 12.604C6.26186 12.6507 6.30853 12.674 6.40186 12.674H8.34786ZM16.106 19.436C14.9487 19.436 14.0387 19.296 13.376 19.016C12.7134 18.736 12.382 18.3393 12.382 17.826C12.382 17.2007 12.872 16.7387 13.852 16.44C13.9734 16.3933 14.034 16.3467 14.034 16.3C14.034 16.2627 13.992 16.2253 13.908 16.188C13.684 16.104 13.5114 15.9873 13.39 15.838C13.278 15.6887 13.222 15.4927 13.222 15.25C13.222 14.9047 13.376 14.6107 13.684 14.368C13.992 14.1253 14.356 13.934 14.776 13.794C14.916 13.7287 14.986 13.6773 14.986 13.64C14.986 13.612 14.9487 13.584 14.874 13.556C14.5287 13.416 14.258 13.2107 14.062 12.94C13.866 12.6693 13.768 12.3473 13.768 11.974C13.768 11.414 13.936 10.9473 14.272 10.574C14.6174 10.1913 15.0607 9.91133 15.602 9.734C16.1527 9.55667 16.7407 9.468 17.366 9.468C18.5234 9.468 19.3587 9.706 19.872 10.182C19.9747 10.2847 20.1334 10.2053 20.348 9.944C20.544 9.72 20.8007 9.538 21.118 9.398C21.4447 9.258 21.7154 9.188 21.93 9.188C22.042 9.188 22.1214 9.21133 22.168 9.258C22.224 9.29533 22.2474 9.36533 22.238 9.468L22.098 10.588C22.0794 10.728 22.0467 10.8213 22 10.868C21.9627 10.9053 21.8974 10.9193 21.804 10.91C21.3934 10.91 21.146 10.9147 21.062 10.924C20.81 10.9333 20.684 11.008 20.684 11.148C20.684 11.204 20.6934 11.246 20.712 11.274C20.7494 11.386 20.768 11.526 20.768 11.694C20.768 12.2353 20.5767 12.688 20.194 13.052C19.8207 13.4067 19.3494 13.668 18.78 13.836C18.2107 13.9947 17.6367 14.074 17.058 14.074C16.7594 14.074 16.4234 14.1113 16.05 14.186C15.6767 14.2607 15.49 14.396 15.49 14.592C15.49 14.6667 15.5367 14.718 15.63 14.746C15.7327 14.774 15.9007 14.7973 16.134 14.816L18.192 14.942C19.088 14.998 19.7507 15.1987 20.18 15.544C20.6187 15.88 20.838 16.3373 20.838 16.916C20.838 17.8493 20.3714 18.5027 19.438 18.876C18.5047 19.2493 17.394 19.436 16.106 19.436ZM17.114 12.898C17.5154 12.898 17.8514 12.772 18.122 12.52C18.402 12.268 18.542 11.9367 18.542 11.526C18.542 11.2553 18.4394 11.0453 18.234 10.896C18.038 10.7373 17.7534 10.658 17.38 10.658C16.988 10.658 16.652 10.798 16.372 11.078C16.1014 11.3487 15.966 11.6847 15.966 12.086C15.966 12.3193 16.0687 12.5153 16.274 12.674C16.4887 12.8233 16.7687 12.898 17.114 12.898ZM16.26 18.302C17.016 18.302 17.5947 18.2133 17.996 18.036C18.4067 17.868 18.612 17.63 18.612 17.322C18.612 17.1633 18.5467 17.0467 18.416 16.972C18.2854 16.888 18.052 16.8413 17.716 16.832L15.658 16.72C15.3594 16.7573 15.0794 16.846 14.818 16.986C14.566 17.1167 14.44 17.308 14.44 17.56C14.44 18.0547 15.0467 18.302 16.26 18.302Z" fill="#333333"/>
</svg>
