<svg width="24" height="24" viewBox="0 0 24 24" fill="none" xmlns="http://www.w3.org/2000/svg">
<path d="M11.8072 16.678C11.8632 16.8927 12.0266 17.0187 12.2972 17.056C12.5772 17.1027 12.9412 17.126 13.3892 17.126C13.5199 17.126 13.6459 17.1447 13.7672 17.182C13.8979 17.2193 13.9632 17.3033 13.9632 17.434C13.9632 17.5647 13.9212 17.6533 13.8372 17.7C13.7532 17.7467 13.6319 17.77 13.4732 17.77H10.2112C10.0432 17.77 9.92656 17.7513 9.86123 17.714C9.80523 17.6767 9.77723 17.6207 9.77723 17.546C9.77723 17.4433 9.82856 17.378 9.93123 17.35C10.0339 17.3313 10.1459 17.308 10.2672 17.28C10.3979 17.2613 10.5146 17.2193 10.6172 17.154C10.7199 17.0887 10.7712 16.9673 10.7712 16.79C10.7712 16.7433 10.7526 16.65 10.7152 16.51C10.6872 16.3607 10.6499 16.1927 10.6032 16.006C10.5566 15.81 10.5052 15.6047 10.4492 15.39C10.3932 15.166 10.3372 14.956 10.2812 14.76C10.2252 14.564 10.1739 14.3867 10.1272 14.228C10.0806 14.0693 10.0479 13.9527 10.0292 13.878H6.55723C6.49189 14.0647 6.42189 14.27 6.34723 14.494C6.28189 14.7087 6.21656 14.9233 6.15123 15.138C6.09523 15.3433 6.04856 15.5347 6.01123 15.712C5.97389 15.88 5.95523 16.006 5.95523 16.09C5.95523 16.146 5.98789 16.1927 6.05323 16.23C6.12789 16.258 6.21656 16.2813 6.31923 16.3C6.43123 16.3093 6.54789 16.314 6.66923 16.314C6.79989 16.314 6.91656 16.314 7.01923 16.314C7.11256 16.314 7.20123 16.3373 7.28523 16.384C7.37856 16.4307 7.42523 16.524 7.42523 16.664C7.42523 16.748 7.39256 16.8273 7.32723 16.902C7.26189 16.9673 7.13589 17 6.94923 17H3.21123C3.12723 17 3.05256 16.972 2.98723 16.916C2.92189 16.8507 2.88923 16.7667 2.88923 16.664C2.88923 16.5707 2.92656 16.5007 3.00123 16.454C3.06656 16.398 3.14589 16.37 3.23923 16.37C3.30456 16.37 3.38856 16.3653 3.49123 16.356C3.59389 16.3467 3.69656 16.3373 3.79923 16.328C3.90189 16.3187 3.99056 16.3093 4.06523 16.3C4.14923 16.2907 4.20523 16.286 4.23323 16.286C4.42923 16.2673 4.57856 16.216 4.68123 16.132C4.78389 16.048 4.86323 15.922 4.91923 15.754C5.05923 15.362 5.21323 14.8813 5.38123 14.312C5.55856 13.7427 5.73589 13.1313 5.91323 12.478C6.09989 11.8247 6.28656 11.1573 6.47323 10.476C6.66923 9.78533 6.85123 9.132 7.01923 8.516C7.18723 7.89067 7.34123 7.32133 7.48123 6.808C7.63056 6.29467 7.75189 5.884 7.84523 5.576C7.86389 5.50133 7.91056 5.436 7.98523 5.38C8.05989 5.31467 8.18123 5.282 8.34923 5.282C8.61989 5.282 8.78323 5.38 8.83923 5.576L11.8072 16.678ZM8.39123 6.99C8.34456 7.16733 8.28389 7.40067 8.20923 7.69C8.13456 7.97933 8.05056 8.30133 7.95723 8.656C7.86389 9.01067 7.76123 9.384 7.64923 9.776C7.54656 10.168 7.44389 10.5553 7.34123 10.938C7.24789 11.3207 7.15456 11.6893 7.06123 12.044C6.96789 12.3893 6.88856 12.6927 6.82323 12.954C7.11256 12.9633 7.38789 12.968 7.64923 12.968C7.91989 12.968 8.19989 12.968 8.48923 12.968C8.70389 12.968 8.92323 12.968 9.14723 12.968C9.38056 12.968 9.60456 12.9633 9.81923 12.954C9.70723 12.5247 9.59056 12.0627 9.46923 11.568C9.34789 11.0733 9.22189 10.5647 9.09123 10.042C8.96989 9.51933 8.84856 9.00133 8.72723 8.488C8.60589 7.96533 8.49389 7.466 8.39123 6.99ZM17.0211 10.56C17.4038 10.56 17.7585 10.6113 18.0851 10.714C18.1971 10.5647 18.3185 10.42 18.4491 10.28C18.5891 10.14 18.7338 10.0187 18.8831 9.916C19.0325 9.81333 19.1818 9.734 19.3311 9.678C19.4805 9.61267 19.6205 9.58 19.7511 9.58C19.8725 9.58 19.9891 9.61733 20.1011 9.692C20.2225 9.75733 20.2831 9.86933 20.2831 10.028C20.2831 10.1307 20.2505 10.2193 20.1851 10.294C20.1291 10.3687 20.0498 10.4153 19.9471 10.434C19.7418 10.4527 19.5271 10.504 19.3031 10.588C19.0791 10.672 18.8738 10.8073 18.6871 10.994C19.0138 11.1993 19.2565 11.4607 19.4151 11.778C19.5738 12.086 19.6531 12.422 19.6531 12.786C19.6531 13.1127 19.5925 13.416 19.4711 13.696C19.3498 13.976 19.1678 14.2187 18.9251 14.424C18.6918 14.6293 18.4025 14.7927 18.0571 14.914C17.7211 15.026 17.3338 15.082 16.8951 15.082C16.7645 15.082 16.6431 15.0773 16.5311 15.068C16.4285 15.0587 16.3165 15.0353 16.1951 14.998C15.9898 15.0727 15.8218 15.1613 15.6911 15.264C15.5605 15.3667 15.4951 15.502 15.4951 15.67C15.4951 15.8567 15.6725 15.992 16.0271 16.076C16.3818 16.1507 16.9231 16.1927 17.6511 16.202C18.0525 16.202 18.4725 16.2207 18.9111 16.258C19.3498 16.2953 19.7511 16.384 20.1151 16.524C20.4885 16.6547 20.7965 16.8553 21.0391 17.126C21.2818 17.406 21.4031 17.7887 21.4031 18.274C21.4031 18.61 21.3051 18.9133 21.1091 19.184C20.9225 19.464 20.6565 19.6973 20.3111 19.884C19.9658 20.08 19.5505 20.2293 19.0651 20.332C18.5891 20.444 18.0618 20.5 17.4831 20.5C17.0258 20.5 16.5918 20.458 16.1811 20.374C15.7705 20.29 15.4111 20.1593 15.1031 19.982C14.7951 19.814 14.5478 19.5993 14.3611 19.338C14.1838 19.0767 14.0951 18.7733 14.0951 18.428C14.0951 17.6253 14.6365 17.1167 15.7191 16.902C15.3551 16.8367 15.0565 16.72 14.8231 16.552C14.5991 16.384 14.4871 16.118 14.4871 15.754C14.4871 15.4833 14.5571 15.2733 14.6971 15.124C14.8465 14.9653 15.0658 14.8207 15.3551 14.69C15.0565 14.494 14.8325 14.2327 14.6831 13.906C14.5431 13.5793 14.4731 13.2387 14.4731 12.884C14.4731 12.548 14.5338 12.24 14.6551 11.96C14.7765 11.68 14.9445 11.4373 15.1591 11.232C15.3831 11.0173 15.6491 10.854 15.9571 10.742C16.2745 10.6207 16.6291 10.56 17.0211 10.56ZM17.8471 17.014C17.5485 17.014 17.2405 17.042 16.9231 17.098C16.6058 17.154 16.3118 17.2427 16.0411 17.364C15.7705 17.4853 15.5465 17.6347 15.3691 17.812C15.2011 17.9987 15.1171 18.2227 15.1171 18.484C15.1171 18.68 15.1918 18.848 15.3411 18.988C15.4998 19.1373 15.7051 19.2587 15.9571 19.352C16.2091 19.4547 16.4891 19.5293 16.7971 19.576C17.1051 19.6227 17.4131 19.646 17.7211 19.646C18.5891 19.646 19.2471 19.5247 19.6951 19.282C20.1525 19.0393 20.3811 18.7407 20.3811 18.386C20.3811 18.162 20.3251 17.9707 20.2131 17.812C20.1011 17.6533 19.9565 17.5227 19.7791 17.42C19.6111 17.3267 19.4245 17.252 19.2191 17.196C19.0138 17.14 18.8178 17.098 18.6311 17.07C18.4445 17.042 18.2765 17.0233 18.1271 17.014C17.9871 17.014 17.8938 17.014 17.8471 17.014ZM17.1191 11.4C16.6151 11.4 16.2185 11.54 15.9291 11.82C15.6398 12.1 15.4951 12.464 15.4951 12.912C15.4951 13.276 15.6258 13.5887 15.8871 13.85C16.1578 14.1113 16.5358 14.242 17.0211 14.242C17.5251 14.242 17.9171 14.1113 18.1971 13.85C18.4865 13.5793 18.6311 13.2247 18.6311 12.786C18.6311 12.366 18.4958 12.03 18.2251 11.778C17.9638 11.526 17.5951 11.4 17.1191 11.4Z" fill="#333333"/>
</svg>
