<svg width="24" height="24" viewBox="0 0 24 24" fill="none" xmlns="http://www.w3.org/2000/svg">
<path d="M14.2104 12.396C14.2104 13.824 14.5651 14.986 15.2744 15.882C14.9011 16.3953 14.4064 16.652 13.7904 16.652C13.1837 16.652 12.7124 16.386 12.3764 15.854C12.0404 15.3313 11.8724 14.5893 11.8724 13.628C11.8724 13.32 11.8864 12.984 11.9144 12.62C10.6451 12.8813 9.10507 12.8907 7.29441 12.648C6.60374 14.328 6.20707 15.7653 6.10441 16.96C6.03907 17.5107 6.07174 18.1547 6.20241 18.892C5.21307 18.8173 4.57374 18.7147 4.28441 18.584C3.79907 18.3787 3.55641 17.9587 3.55641 17.324C3.55641 16.344 4.08841 14.6313 5.15241 12.186C4.35907 11.9247 3.90641 11.6447 3.79441 11.346C3.71974 11.1313 3.68707 10.8 3.69641 10.352C3.70574 9.904 3.69174 9.54467 3.65441 9.274C4.43841 9.67533 5.25041 10.0347 6.09041 10.352C6.45441 9.75467 6.87907 9.13867 7.36441 8.504C7.84974 7.86 8.38641 7.20667 8.97441 6.544C9.57174 5.88133 10.1924 5.32133 10.8364 4.864C11.4897 4.39733 12.0824 4.12667 12.6144 4.052C12.8477 4.08 13.0531 4.136 13.2304 4.22C13.4171 4.29467 13.5664 4.374 13.6784 4.458C13.7997 4.542 13.8977 4.67267 13.9724 4.85C14.0564 5.018 14.1171 5.158 14.1544 5.27C14.2011 5.382 14.2337 5.56867 14.2524 5.83C14.2711 6.082 14.2804 6.26867 14.2804 6.39C14.2897 6.502 14.2897 6.71667 14.2804 7.034C14.2804 7.342 14.2804 7.552 14.2804 7.664C14.2804 8.03733 14.2664 8.75133 14.2384 9.806C14.2197 10.8607 14.2104 11.724 14.2104 12.396ZM8.06441 10.968C9.52974 11.3227 10.8597 11.416 12.0544 11.248C12.0917 10.912 12.1524 10.38 12.2364 9.652C12.3297 8.924 12.3951 8.34067 12.4324 7.902C12.4791 7.454 12.5024 7.09 12.5024 6.81C12.5024 6.28733 12.3671 5.80667 12.0964 5.368C11.6297 5.58267 11.0091 6.22667 10.2344 7.3C9.46907 8.364 8.74574 9.58667 8.06441 10.968ZM19.7429 9.722C20.1349 9.722 20.3963 9.92733 20.5269 10.338C20.6669 10.7487 20.7369 11.5187 20.7369 12.648C20.7369 13.2547 20.6763 13.8893 20.5549 14.552C20.4429 15.2147 20.2656 15.868 20.0229 16.512C19.7896 17.1653 19.4536 17.702 19.0149 18.122C18.5856 18.542 18.0863 18.752 17.5169 18.752C17.0223 18.752 16.6396 18.612 16.3689 18.332C16.0983 18.052 15.9629 17.6507 15.9629 17.128C15.9629 16.3533 16.2243 15.5553 16.7469 14.734C17.2789 13.9127 17.9743 13.152 18.8329 12.452C18.8329 12.3307 18.8283 12.2467 18.8189 12.2C18.3429 12.704 17.8156 12.956 17.2369 12.956C16.7609 12.956 16.3923 12.802 16.1309 12.494C15.8696 12.186 15.7389 11.7567 15.7389 11.206C15.7389 10.366 16.1029 9.60533 16.8309 8.924C17.5683 8.23333 18.3756 7.888 19.2529 7.888C19.5609 7.888 19.8269 7.94867 20.0509 8.07C20.2843 8.19133 20.4009 8.35933 20.4009 8.574C20.4009 8.89133 20.0276 9.148 19.2809 9.344C19.1876 9.12 19.0709 9.008 18.9309 9.008C18.6323 9.008 18.3336 9.26467 18.0349 9.778C17.7456 10.2913 17.6009 10.7767 17.6009 11.234C17.6009 11.598 17.6943 11.78 17.8809 11.78C18.0863 11.78 18.2823 11.6027 18.4689 11.248C18.6649 10.884 18.7163 10.5247 18.6229 10.17C19.0709 9.87133 19.4443 9.722 19.7429 9.722ZM17.5449 17.954C17.8436 17.954 18.1003 17.5433 18.3149 16.722C18.5296 15.91 18.6789 15.0047 18.7629 14.006C17.7923 15.1913 17.3069 16.344 17.3069 17.464C17.3069 17.7907 17.3863 17.954 17.5449 17.954Z" fill="#888888"/>
</svg>
