<svg width="24" height="24" viewBox="0 0 24 24" fill="none" xmlns="http://www.w3.org/2000/svg">
<path d="M9.24627 7.088L11.7803 16.118L12.9283 16.258L12.8443 17H8.86827L8.95227 16.272L10.0723 16.104L9.47027 13.808H6.19427L5.39627 16.104L6.65627 16.272L6.57227 17H3.21227L3.31027 16.258L4.37427 16.104L7.58027 7.27L9.24627 7.088ZM6.48827 12.94H9.24627L8.09827 8.404H8.05627L6.48827 12.94ZM18.7117 13.108L18.5997 13.094L18.2497 14.396C18.091 14.9653 17.9137 15.4553 17.7177 15.866C17.5217 16.2767 17.2697 16.5893 16.9617 16.804C16.6537 17.0187 16.2524 17.126 15.7577 17.126C15.235 17.126 14.815 16.9907 14.4977 16.72C14.1804 16.44 13.947 16.0713 13.7977 15.614C13.6484 15.1567 13.5737 14.662 13.5737 14.13C13.5737 13.2527 13.7137 12.4827 13.9937 11.82C14.2737 11.148 14.6657 10.6253 15.1697 10.252C15.683 9.86933 16.2897 9.678 16.9897 9.678C17.2604 9.678 17.559 9.71067 17.8857 9.776C18.2217 9.832 18.525 9.916 18.7957 10.028L19.4957 9.678L19.9577 9.832L19.7337 15.824C19.715 16.2813 19.6544 16.7247 19.5517 17.154C19.4584 17.5927 19.3137 17.994 19.1177 18.358C18.931 18.7313 18.6837 19.0533 18.3757 19.324C18.077 19.604 17.713 19.8233 17.2837 19.982C16.8637 20.1407 16.3737 20.22 15.8137 20.22C15.543 20.22 15.277 20.192 15.0157 20.136C14.7544 20.0893 14.5164 20.01 14.3017 19.898C14.0964 19.7953 13.9284 19.6507 13.7977 19.464C13.6764 19.2867 13.6157 19.072 13.6157 18.82C13.6157 18.5027 13.709 18.246 13.8957 18.05C14.0824 17.8633 14.3064 17.77 14.5677 17.77C14.6704 17.77 14.7777 17.784 14.8897 17.812C15.0017 17.8493 15.1044 17.896 15.1977 17.952C15.3004 18.008 15.3797 18.0733 15.4357 18.148L15.3097 18.54C15.2537 18.7173 15.2304 18.876 15.2397 19.016C15.249 19.156 15.3144 19.2633 15.4357 19.338C15.5664 19.422 15.7717 19.464 16.0517 19.464C16.537 19.464 16.943 19.3147 17.2697 19.016C17.5964 18.7173 17.853 18.2973 18.0397 17.756C18.2357 17.224 18.371 16.5893 18.4457 15.852L18.7117 13.108ZM16.0937 16.104C16.299 16.104 16.4764 16.0527 16.6257 15.95C16.7844 15.8473 16.9337 15.67 17.0737 15.418C17.2137 15.166 17.3584 14.8113 17.5077 14.354C17.6664 13.8873 17.8437 13.2947 18.0397 12.576L18.5017 10.868C18.3337 10.784 18.1144 10.714 17.8437 10.658C17.573 10.602 17.3397 10.574 17.1437 10.574C16.8264 10.574 16.5417 10.6673 16.2897 10.854C16.0377 11.0313 15.823 11.2833 15.6457 11.61C15.4777 11.9273 15.347 12.296 15.2537 12.716C15.1604 13.136 15.1137 13.5933 15.1137 14.088C15.1137 14.732 15.1884 15.2313 15.3377 15.586C15.487 15.9313 15.739 16.104 16.0937 16.104Z" fill="#888888"/>
</svg>
