<svg width="24" height="24" viewBox="0 0 24 24" fill="none" xmlns="http://www.w3.org/2000/svg">
<path d="M8.70924 7.046L11.2152 15.894L12.2932 16.034L12.2092 17H7.67324L7.77124 16.062L8.84924 15.894L8.35924 13.934H5.26524L4.57924 15.894L5.78324 16.062L5.69924 17H2.15724L2.25524 16.048L3.26324 15.894L6.44124 7.27L8.70924 7.046ZM5.60124 12.856H8.09324L7.11324 8.586H7.05724L5.60124 12.856ZM18.3188 13.038L18.1928 13.024L17.8008 14.466C17.6328 15.0727 17.4322 15.572 17.1988 15.964C16.9748 16.3467 16.7042 16.6313 16.3868 16.818C16.0695 16.9953 15.6868 17.084 15.2388 17.084C14.6695 17.084 14.2122 16.9487 13.8668 16.678C13.5308 16.398 13.2882 16.034 13.1388 15.586C12.9895 15.138 12.9148 14.662 12.9148 14.158C12.9148 13.2807 13.0595 12.5013 13.3488 11.82C13.6475 11.1387 14.0722 10.6067 14.6228 10.224C15.1828 9.832 15.8502 9.636 16.6248 9.636C16.8955 9.636 17.2035 9.66867 17.5488 9.734C17.8942 9.79 18.2068 9.88333 18.4868 10.014L19.5368 9.636L20.0828 9.846L19.8588 15.754C19.8402 16.2393 19.7655 16.706 19.6348 17.154C19.5042 17.602 19.3175 18.0127 19.0748 18.386C18.8322 18.7593 18.5335 19.0813 18.1788 19.352C17.8242 19.6227 17.4135 19.8327 16.9468 19.982C16.4802 20.1407 15.9622 20.22 15.3928 20.22C15.0848 20.22 14.7862 20.1873 14.4968 20.122C14.2168 20.066 13.9695 19.9773 13.7548 19.856C13.5402 19.7347 13.3675 19.576 13.2368 19.38C13.1155 19.1933 13.0548 18.974 13.0548 18.722C13.0548 18.4047 13.1528 18.1387 13.3488 17.924C13.5542 17.7187 13.8202 17.616 14.1468 17.616C14.2495 17.616 14.3662 17.63 14.4968 17.658C14.6368 17.6953 14.7675 17.742 14.8888 17.798C15.0195 17.8633 15.1128 17.938 15.1688 18.022L15.0428 18.4C14.9868 18.568 14.9588 18.7173 14.9588 18.848C14.9588 18.988 15.0102 19.0953 15.1128 19.17C15.2248 19.2447 15.4162 19.282 15.6868 19.282C16.1722 19.282 16.5735 19.128 16.8908 18.82C17.2082 18.5213 17.4555 18.1013 17.6328 17.56C17.8195 17.0187 17.9502 16.384 18.0248 15.656L18.3188 13.038ZM15.8128 15.88C15.9715 15.88 16.1115 15.8333 16.2328 15.74C16.3635 15.6467 16.4895 15.4787 16.6108 15.236C16.7322 14.9933 16.8628 14.6573 17.0028 14.228C17.1428 13.7893 17.3015 13.2293 17.4788 12.548L17.9268 10.868C17.7962 10.8027 17.6282 10.7513 17.4228 10.714C17.2268 10.6673 17.0495 10.644 16.8908 10.644C16.5828 10.644 16.3122 10.742 16.0788 10.938C15.8548 11.134 15.6635 11.4 15.5048 11.736C15.3555 12.072 15.2388 12.45 15.1548 12.87C15.0802 13.29 15.0428 13.7333 15.0428 14.2C15.0428 14.7507 15.0942 15.1707 15.1968 15.46C15.3088 15.74 15.5142 15.88 15.8128 15.88Z" fill="#888888"/>
</svg>
