<svg width="24" height="24" viewBox="0 0 24 24" fill="none" xmlns="http://www.w3.org/2000/svg">
<path d="M9.74402 7.074L12.264 16.02L13.384 16.174L13.3 17H9.08602L9.18402 16.188L10.276 16.02L9.73002 13.864H6.52402L5.76802 16.02L7.01402 16.188L6.91602 17H3.48602L3.58402 16.174L4.63402 16.02L7.82602 7.27L9.74402 7.074ZM6.83202 12.898H9.47802L8.40002 8.474H8.35802L6.83202 12.898ZM19.2475 13.08L19.1495 13.066L18.7715 14.424C18.6128 15.012 18.4262 15.5067 18.2115 15.908C18.0062 16.3093 17.7448 16.6127 17.4275 16.818C17.1195 17.014 16.7275 17.112 16.2515 17.112C15.7102 17.112 15.2715 16.9767 14.9355 16.706C14.6088 16.426 14.3708 16.062 14.2215 15.614C14.0815 15.1567 14.0115 14.6667 14.0115 14.144C14.0115 13.2667 14.1515 12.492 14.4315 11.82C14.7208 11.148 15.1315 10.6207 15.6635 10.238C16.1955 9.85533 16.8208 9.664 17.5395 9.664C17.8195 9.664 18.1275 9.692 18.4635 9.748C18.7995 9.804 19.1075 9.89733 19.3875 10.028L20.2275 9.664L20.7175 9.846L20.4935 15.796C20.4748 16.2627 20.4095 16.7153 20.2975 17.154C20.1855 17.5927 20.0222 17.9987 19.8075 18.372C19.6022 18.7453 19.3362 19.0673 19.0095 19.338C18.6828 19.618 18.2955 19.8327 17.8475 19.982C17.4088 20.1407 16.9095 20.22 16.3495 20.22C16.0602 20.22 15.7802 20.192 15.5095 20.136C15.2388 20.08 14.9962 19.996 14.7815 19.884C14.5762 19.772 14.4082 19.6227 14.2775 19.436C14.1562 19.2493 14.0955 19.03 14.0955 18.778C14.0955 18.4607 14.1888 18.204 14.3755 18.008C14.5715 17.812 14.8142 17.714 15.1035 17.714C15.2062 17.714 15.3182 17.728 15.4395 17.756C15.5608 17.784 15.6728 17.826 15.7755 17.882C15.8875 17.9473 15.9762 18.0173 16.0415 18.092L15.9155 18.484C15.8502 18.6613 15.8222 18.8153 15.8315 18.946C15.8408 19.086 15.9015 19.1933 16.0135 19.268C16.1348 19.3427 16.3308 19.38 16.6015 19.38C17.0962 19.38 17.5022 19.2307 17.8195 18.932C18.1462 18.6333 18.4028 18.2133 18.5895 17.672C18.7762 17.14 18.9068 16.5053 18.9815 15.768L19.2475 13.08ZM16.6855 16.006C16.8722 16.006 17.0355 15.9593 17.1755 15.866C17.3248 15.7727 17.4648 15.6 17.5955 15.348C17.7262 15.096 17.8615 14.746 18.0015 14.298C18.1508 13.8407 18.3235 13.262 18.5195 12.562L18.9675 10.868C18.8182 10.7933 18.6222 10.7327 18.3795 10.686C18.1462 10.63 17.9362 10.602 17.7495 10.602C17.4322 10.602 17.1522 10.6953 16.9095 10.882C16.6668 11.0687 16.4615 11.3253 16.2935 11.652C16.1348 11.9787 16.0088 12.3567 15.9155 12.786C15.8315 13.206 15.7895 13.6587 15.7895 14.144C15.7895 14.7413 15.8548 15.2033 15.9855 15.53C16.1255 15.8473 16.3588 16.006 16.6855 16.006Z" fill="#888888"/>
</svg>
