<svg width="24" height="24" viewBox="0 0 24 24" fill="none" xmlns="http://www.w3.org/2000/svg">
<path d="M4.47827 17L8.51027 7.06H8.91627L12.7803 17H12.3323L11.1843 14.004H6.13027L4.92627 17H4.47827ZM6.28427 13.626H11.0303L8.72027 7.592L6.28427 13.626ZM16.7471 19.94C16.3551 19.94 15.9678 19.8933 15.5851 19.8C15.2118 19.716 14.8898 19.5947 14.6191 19.436L14.7731 19.03C15.0718 19.2073 15.3984 19.3333 15.7531 19.408C16.1078 19.492 16.4438 19.534 16.7611 19.534C17.6944 19.534 18.3664 19.2867 18.7771 18.792C19.1878 18.2973 19.3931 17.4993 19.3931 16.398V14.844C19.1691 15.4973 18.8098 16.0293 18.3151 16.44C17.8298 16.8413 17.2744 17.042 16.6491 17.042C15.8278 17.042 15.1884 16.748 14.7311 16.16C14.2831 15.572 14.0591 14.802 14.0591 13.85C14.0591 13.0847 14.1851 12.4127 14.4371 11.834C14.6984 11.2553 15.0624 10.8027 15.5291 10.476C16.0051 10.1493 16.5651 9.986 17.2091 9.986C17.7224 9.986 18.1704 10.112 18.5531 10.364C18.9451 10.616 19.2018 10.924 19.3231 11.288L19.4491 10.112H19.7991V16.356C19.7991 17.616 19.5564 18.526 19.0711 19.086C18.5858 19.6553 17.8111 19.94 16.7471 19.94ZM17.2091 10.392C16.6678 10.392 16.1918 10.532 15.7811 10.812C15.3798 11.092 15.0671 11.4887 14.8431 12.002C14.6191 12.506 14.5071 13.1033 14.5071 13.794C14.5071 14.6713 14.6984 15.3667 15.0811 15.88C15.4638 16.384 15.9958 16.636 16.6771 16.636C17.2091 16.636 17.6758 16.4727 18.0771 16.146C18.4878 15.8193 18.8098 15.376 19.0431 14.816C19.2764 14.2467 19.3931 13.612 19.3931 12.912C19.3931 12.128 19.1971 11.512 18.8051 11.064C18.4224 10.616 17.8904 10.392 17.2091 10.392Z" fill="#888888"/>
</svg>
