<svg width="24" height="24" viewBox="0 0 24 24" fill="none" xmlns="http://www.w3.org/2000/svg">
<path d="M3.15495 17L7.34095 7.06H8.54495L12.563 17H11.121L10.155 14.522H5.60495L4.59695 17H3.15495ZM6.09495 13.318H9.69295L7.92895 8.796L6.09495 13.318ZM16.0879 19.94C15.6866 19.94 15.2619 19.898 14.8139 19.814C14.3752 19.73 14.0066 19.5993 13.7079 19.422L14.0439 18.246C14.3612 18.4047 14.6972 18.526 15.0519 18.61C15.4066 18.694 15.7706 18.736 16.1439 18.736C17.0026 18.736 17.6139 18.526 17.9779 18.106C18.3419 17.686 18.5379 17.0233 18.5659 16.118L18.5939 15.362C18.3326 15.8567 17.9872 16.244 17.5579 16.524C17.1379 16.804 16.6479 16.944 16.0879 16.944C15.4719 16.944 14.9539 16.8087 14.5339 16.538C14.1139 16.2673 13.7966 15.8893 13.5819 15.404C13.3672 14.9187 13.2599 14.3633 13.2599 13.738C13.2599 12.9913 13.4046 12.3287 13.6939 11.75C13.9926 11.162 14.3986 10.7047 14.9119 10.378C15.4346 10.042 16.0366 9.874 16.7179 9.874C17.1846 9.874 17.5952 9.97667 17.9499 10.182C18.3046 10.378 18.5659 10.6393 18.7339 10.966L18.9019 10H19.8959V15.922C19.8959 17.2567 19.5646 18.26 18.9019 18.932C18.2486 19.604 17.3106 19.94 16.0879 19.94ZM16.7879 11.064C16.1346 11.064 15.6119 11.3067 15.2199 11.792C14.8279 12.268 14.6319 12.884 14.6319 13.64C14.6319 14.312 14.7812 14.8347 15.0799 15.208C15.3879 15.572 15.8032 15.754 16.3259 15.754C16.7459 15.754 17.1239 15.6327 17.4599 15.39C17.8052 15.1473 18.0759 14.816 18.2719 14.396C18.4679 13.976 18.5659 13.5 18.5659 12.968C18.5659 12.38 18.4026 11.918 18.0759 11.582C17.7586 11.2367 17.3292 11.064 16.7879 11.064Z" fill="#888888"/>
</svg>
