<svg width="24" height="24" viewBox="0 0 24 24" fill="none" xmlns="http://www.w3.org/2000/svg">
<path d="M2.67922 17L8.68522 7.06H10.2252L12.5492 17H10.7712L10.2812 14.732H5.92722L4.61122 17H2.67922ZM6.82322 13.206H9.94522L9.11922 9.286L6.82322 13.206ZM15.5945 19.94C15.0999 19.94 14.6239 19.8933 14.1665 19.8C13.7092 19.7067 13.3452 19.5713 13.0745 19.394L13.6625 17.91C14.2692 18.2553 14.9692 18.428 15.7625 18.428C16.5465 18.428 17.1485 18.2413 17.5685 17.868C17.9979 17.4947 18.3105 16.8693 18.5065 15.992L18.6465 15.334C18.3292 15.8753 17.9559 16.272 17.5265 16.524C17.1065 16.776 16.6259 16.902 16.0845 16.902C15.3005 16.902 14.6799 16.6827 14.2225 16.244C13.7745 15.796 13.5505 15.166 13.5505 14.354C13.5505 13.7193 13.6579 13.1267 13.8725 12.576C14.0872 12.0253 14.3905 11.5447 14.7825 11.134C15.1745 10.714 15.6319 10.392 16.1545 10.168C16.6865 9.93467 17.2605 9.818 17.8765 9.818C18.2872 9.818 18.6652 9.874 19.0105 9.986C19.3559 10.098 19.6452 10.2473 19.8785 10.434L20.1025 9.958H21.3065C21.2319 10.322 21.1525 10.7187 21.0685 11.148C20.9845 11.5773 20.9005 12.016 20.8165 12.464L20.2425 15.782C19.9905 17.2007 19.4865 18.246 18.7305 18.918C17.9745 19.5993 16.9292 19.94 15.5945 19.94ZM16.5745 15.404C17.1812 15.404 17.7085 15.152 18.1565 14.648C18.6045 14.144 18.9032 13.4767 19.0525 12.646L19.2205 11.722C18.9125 11.442 18.4739 11.302 17.9045 11.302C17.3819 11.302 16.9245 11.428 16.5325 11.68C16.1499 11.932 15.8512 12.2727 15.6365 12.702C15.4312 13.122 15.3285 13.584 15.3285 14.088C15.3285 14.9653 15.7439 15.404 16.5745 15.404Z" fill="#888888"/>
</svg>
