<svg width="24" height="24" viewBox="0 0 24 24" fill="none" xmlns="http://www.w3.org/2000/svg">
<path d="M9.05688 17L10.1349 11.918C9.78022 11.7593 9.45355 11.6427 9.15488 11.568C8.86555 11.4933 8.56688 11.442 8.25888 11.414C7.99755 11.9833 7.75488 12.5713 7.53088 13.178C7.30688 13.7753 7.11555 14.354 6.95688 14.914C6.79822 15.474 6.67222 16.0013 6.57888 16.496C6.48555 16.9813 6.43888 17.4013 6.43888 17.756C6.43888 18.0267 6.45755 18.218 6.49488 18.33C6.54155 18.442 6.58822 18.5307 6.63488 18.596C6.44822 18.596 6.24288 18.5867 6.01888 18.568C5.80422 18.5493 5.60355 18.4933 5.41688 18.4C5.23022 18.3067 5.07155 18.1573 4.94088 17.952C4.81955 17.756 4.75888 17.476 4.75888 17.112C4.75888 16.7947 4.80555 16.4213 4.89888 15.992C5.00155 15.5627 5.14155 15.1007 5.31888 14.606C5.50555 14.102 5.72488 13.5793 5.97688 13.038C6.22888 12.4873 6.50888 11.946 6.81688 11.414C6.37822 11.442 6.01888 11.512 5.73888 11.624C5.45888 11.7267 5.27222 11.8993 5.17888 12.142C5.21622 12.142 5.25355 12.1887 5.29088 12.282C5.33755 12.3753 5.36088 12.4733 5.36088 12.576C5.36088 12.744 5.28155 12.8793 5.12288 12.982C4.97355 13.0753 4.79155 13.122 4.57688 13.122C4.33422 13.122 4.12888 13.0567 3.96088 12.926C3.79288 12.786 3.70888 12.5807 3.70888 12.31C3.70888 12.0767 3.78355 11.8573 3.93288 11.652C4.07288 11.4373 4.26888 11.2507 4.52088 11.092C4.77288 10.9333 5.07155 10.812 5.41688 10.728C5.76222 10.6347 6.13555 10.588 6.53688 10.588C6.74222 10.588 6.99422 10.602 7.29288 10.63C7.64755 10.07 8.02088 9.54267 8.41288 9.048C8.81422 8.544 9.22488 8.10533 9.64488 7.732C10.0649 7.34933 10.4895 7.05067 10.9189 6.836C11.3482 6.612 11.7729 6.5 12.1929 6.5C12.3329 6.5 12.5055 6.514 12.7109 6.542C12.9162 6.57 13.1029 6.62133 13.2709 6.696L11.0729 17H9.05688ZM11.0729 7.494C10.6529 7.718 10.2235 8.13333 9.78488 8.74C9.35555 9.33733 8.94488 10.028 8.55288 10.812C8.84222 10.868 9.13155 10.938 9.42088 11.022C9.71022 11.0967 9.99022 11.19 10.2609 11.302L11.0729 7.494ZM19.6484 10L17.9264 18.12C17.8238 18.624 17.6744 19.03 17.4784 19.338C17.2918 19.646 17.0818 19.884 16.8484 20.052C16.6244 20.2293 16.3864 20.346 16.1344 20.402C15.8824 20.4673 15.6398 20.5 15.4064 20.5C14.9771 20.5 14.6084 20.388 14.3004 20.164C13.9924 19.94 13.8384 19.5993 13.8384 19.142C13.8384 18.8527 13.9084 18.596 14.0484 18.372C14.1884 18.148 14.3658 17.952 14.5804 17.784C14.8044 17.616 15.0518 17.4713 15.3224 17.35C15.5931 17.238 15.8591 17.14 16.1204 17.056L16.3864 15.866C16.1811 16.118 15.9338 16.3373 15.6444 16.524C15.3644 16.7107 15.0191 16.804 14.6084 16.804C14.3658 16.804 14.1324 16.7667 13.9084 16.692C13.6938 16.608 13.4978 16.4773 13.3204 16.3C13.1431 16.1227 13.0031 15.894 12.9004 15.614C12.7978 15.3247 12.7464 14.97 12.7464 14.55C12.7464 14.2513 12.7791 13.934 12.8444 13.598C12.9098 13.2527 13.0078 12.9073 13.1384 12.562C13.2691 12.2167 13.4324 11.8853 13.6284 11.568C13.8244 11.2507 14.0578 10.9707 14.3284 10.728C14.5991 10.4853 14.8978 10.294 15.2244 10.154C15.5604 10.0047 15.9338 9.93 16.3444 9.93C16.4564 9.93 16.5731 9.93933 16.6944 9.958C16.8251 9.96733 16.9418 10 17.0444 10.056C17.1564 10.1027 17.2498 10.1727 17.3244 10.266C17.4084 10.3593 17.4644 10.49 17.4924 10.658L17.6324 10H19.6484ZM16.7784 10.798C16.4798 10.798 16.2091 10.9287 15.9664 11.19C15.7238 11.442 15.5184 11.75 15.3504 12.114C15.1824 12.478 15.0518 12.8653 14.9584 13.276C14.8651 13.6867 14.8184 14.046 14.8184 14.354C14.8184 14.6247 14.8418 14.8347 14.8884 14.984C14.9444 15.124 15.0051 15.2313 15.0704 15.306C15.1451 15.3713 15.2198 15.4133 15.2944 15.432C15.3784 15.4413 15.4531 15.446 15.5184 15.446C15.6118 15.446 15.7191 15.4227 15.8404 15.376C15.9618 15.3293 16.0784 15.2593 16.1904 15.166C16.3118 15.0633 16.4191 14.9373 16.5124 14.788C16.6151 14.6293 16.6898 14.438 16.7364 14.214L17.3524 11.316C17.3431 11.232 17.2964 11.1247 17.2124 10.994C17.1378 10.8633 16.9931 10.798 16.7784 10.798ZM14.6084 18.946C14.6084 19.0487 14.6458 19.1513 14.7204 19.254C14.8044 19.3567 14.9258 19.408 15.0844 19.408C15.2338 19.408 15.3831 19.3053 15.5324 19.1C15.6818 18.8947 15.8031 18.582 15.8964 18.162L15.9804 17.756C15.8031 17.8213 15.6304 17.8913 15.4624 17.966C15.2944 18.05 15.1451 18.1387 15.0144 18.232C14.8931 18.3347 14.7951 18.442 14.7204 18.554C14.6458 18.6753 14.6084 18.806 14.6084 18.946Z" fill="#888888"/>
</svg>
