<svg width="24" height="24" viewBox="0 0 24 24" fill="none" xmlns="http://www.w3.org/2000/svg">
<path d="M9.3545 17L10.4185 11.974C10.1012 11.7967 9.7185 11.6473 9.2705 11.526C8.8225 11.4047 8.36983 11.3207 7.9125 11.274C7.64183 11.8153 7.38983 12.3753 7.1565 12.954C6.9325 13.5233 6.7365 14.088 6.5685 14.648C6.4005 15.1987 6.26517 15.7307 6.1625 16.244C6.06917 16.7573 6.0225 17.224 6.0225 17.644C6.0225 18.0173 6.0645 18.3347 6.1485 18.596C5.97117 18.596 5.78917 18.5773 5.6025 18.54C5.41583 18.512 5.24317 18.442 5.0845 18.33C4.93517 18.2273 4.80917 18.078 4.7065 17.882C4.61317 17.6953 4.5665 17.4387 4.5665 17.112C4.5665 16.7853 4.61783 16.398 4.7205 15.95C4.8325 15.502 4.98183 15.0213 5.1685 14.508C5.35517 13.9853 5.57917 13.444 5.8405 12.884C6.11117 12.324 6.40983 11.7687 6.7365 11.218C6.4565 11.2273 6.1905 11.2553 5.9385 11.302C5.69583 11.3487 5.48117 11.4093 5.2945 11.484C5.10783 11.5587 4.9585 11.6473 4.8465 11.75C4.74383 11.8527 4.6925 11.9647 4.6925 12.086C4.82317 12.1327 4.9025 12.1887 4.9305 12.254C4.9585 12.3193 4.9725 12.38 4.9725 12.436C4.9725 12.6507 4.89783 12.8 4.7485 12.884C4.59917 12.9587 4.44517 12.996 4.2865 12.996C4.0905 12.996 3.91317 12.9447 3.7545 12.842C3.59583 12.73 3.5165 12.5387 3.5165 12.268C3.5165 12.016 3.59583 11.792 3.7545 11.596C3.90383 11.3907 4.11383 11.218 4.3845 11.078C4.65517 10.938 4.9725 10.8307 5.3365 10.756C5.7005 10.6813 6.08783 10.644 6.4985 10.644C6.59183 10.644 6.68517 10.6487 6.7785 10.658C6.87183 10.658 6.96983 10.6627 7.0725 10.672C7.42717 10.1027 7.80517 9.566 8.2065 9.062C8.60783 8.558 9.0185 8.11933 9.4385 7.746C9.8585 7.36333 10.2832 7.06 10.7125 6.836C11.1512 6.612 11.5805 6.5 12.0005 6.5C12.1405 6.5 12.3132 6.514 12.5185 6.542C12.7238 6.57 12.9105 6.62133 13.0785 6.696L10.8805 17H9.3545ZM8.1505 10.812C8.60783 10.8867 9.04183 10.9893 9.4525 11.12C9.8725 11.2507 10.2225 11.3907 10.5025 11.54L11.4265 7.186C11.1838 7.19533 10.9272 7.298 10.6565 7.494C10.3858 7.68067 10.1058 7.93733 9.8165 8.264C9.5365 8.59067 9.25183 8.97333 8.9625 9.412C8.6825 9.84133 8.41183 10.308 8.1505 10.812ZM13.674 19.24C13.674 19.0067 13.7394 18.7873 13.87 18.582C14.01 18.386 14.1874 18.1993 14.402 18.022C14.6167 17.8447 14.8547 17.686 15.116 17.546C15.3774 17.406 15.6387 17.2847 15.9 17.182L16.18 15.908C15.9374 16.16 15.6574 16.37 15.34 16.538C15.032 16.6967 14.7054 16.776 14.36 16.776C14.136 16.776 13.9167 16.7387 13.702 16.664C13.4874 16.58 13.296 16.4493 13.128 16.272C12.96 16.0853 12.8247 15.852 12.722 15.572C12.6194 15.2827 12.568 14.9327 12.568 14.522C12.568 14.0833 12.6427 13.598 12.792 13.066C12.9507 12.534 13.1794 12.0347 13.478 11.568C13.7767 11.1013 14.15 10.714 14.598 10.406C15.046 10.0887 15.564 9.93 16.152 9.93C16.376 9.93 16.6047 9.98133 16.838 10.084C17.0714 10.1867 17.2254 10.3827 17.3 10.672L17.44 10H18.84L17.118 18.12C17.0154 18.624 16.8987 19.03 16.768 19.338C16.6467 19.646 16.5067 19.884 16.348 20.052C16.1987 20.2293 16.0307 20.346 15.844 20.402C15.6574 20.4673 15.4474 20.5 15.214 20.5C14.7847 20.5 14.4207 20.402 14.122 20.206C13.8234 20.0193 13.674 19.6973 13.674 19.24ZM14.948 15.712C15.0787 15.712 15.2187 15.6793 15.368 15.614C15.5267 15.5487 15.676 15.46 15.816 15.348C15.9654 15.2267 16.1007 15.0867 16.222 14.928C16.3434 14.7693 16.4367 14.5967 16.502 14.41L17.16 11.302C17.132 11.1527 17.062 11.0173 16.95 10.896C16.838 10.7653 16.6747 10.7 16.46 10.7C16.0774 10.7 15.7367 10.8307 15.438 11.092C15.1394 11.344 14.8874 11.6567 14.682 12.03C14.4767 12.394 14.3227 12.786 14.22 13.206C14.1174 13.626 14.066 13.9993 14.066 14.326C14.066 14.858 14.1454 15.222 14.304 15.418C14.4627 15.614 14.6774 15.712 14.948 15.712ZM14.738 19.772C14.9994 19.772 15.2 19.6227 15.34 19.324C15.48 19.0253 15.6014 18.6333 15.704 18.148L15.802 17.7C15.2887 17.924 14.8967 18.1713 14.626 18.442C14.3554 18.7127 14.22 18.974 14.22 19.226C14.22 19.3847 14.262 19.5153 14.346 19.618C14.4394 19.7207 14.57 19.772 14.738 19.772Z" fill="#888888"/>
</svg>
