<svg width="24" height="24" viewBox="0 0 24 24" fill="none" xmlns="http://www.w3.org/2000/svg">
<g clip-path="url(#clip0_246_1435)">
<path d="M8.80467 14.1446C8.37821 14.2709 8.00703 14.3499 7.69113 14.3815C7.39103 14.3973 7.01985 14.3894 6.57759 14.3578C6.13533 14.3104 5.77205 14.2867 5.48774 14.2867C4.76118 14.2867 4.30313 14.5157 4.11359 14.9738L3.75821 16.5849C3.64764 17.1535 3.33174 17.5484 2.81051 17.7695C2.69995 17.3588 2.64467 17.0192 2.64467 16.7507C2.64467 16.4664 2.69205 16.1584 2.78682 15.8267C2.89739 15.495 3.00795 15.2107 3.11851 14.9738C3.24487 14.7211 3.37123 14.421 3.49759 14.0735C3.62395 13.726 3.70292 13.4022 3.73451 13.1021C3.71872 12.96 3.7819 12.8178 3.92405 12.6756C4.082 12.5335 4.23995 12.415 4.3979 12.3203C4.57164 12.2255 4.66641 12.1702 4.68221 12.1544C5.02969 11.9017 5.48774 11.341 6.05636 10.4723C6.64077 9.58775 6.92508 8.94016 6.90928 8.52949C6.90928 8.38734 6.8698 8.2057 6.79082 7.98457C6.71185 7.76344 6.65656 7.60549 6.62498 7.51072C6.59339 7.41595 6.63287 7.2738 6.74344 7.08426C6.80662 6.9737 7.07513 6.83154 7.54898 6.6578C8.03862 6.48405 8.394 6.38139 8.61513 6.3498C8.63092 6.47616 8.67041 6.90262 8.73359 7.62918C8.79677 8.35575 8.88364 8.8059 8.99421 8.97964C9.34169 9.61144 9.84713 10.5828 10.5105 11.8938C11.1739 13.2048 11.7978 14.342 12.3822 15.3055C12.8718 16.1268 13.1167 16.8218 13.1167 17.3904C12.6428 17.3114 12.2479 17.0982 11.9321 16.7507C11.7741 16.5928 11.4108 15.9373 10.8422 14.7843C10.4947 14.0577 9.81554 13.8445 8.80467 14.1446ZM6.34067 11.3015C6.02477 11.6964 5.88262 12.0754 5.91421 12.4387C5.96159 12.802 6.238 13.0231 6.74344 13.1021C8.05441 13.2916 9.11267 13.2916 9.91821 13.1021C9.71287 12.4545 9.38908 11.7832 8.94682 11.0883C8.52036 10.3933 8.0939 9.87995 7.66744 9.54826C7.54108 9.70621 7.09882 10.2906 6.34067 11.3015ZM19.3444 14.9738C19.1707 15.0686 18.7047 15.3845 17.9466 15.9215C17.1884 16.4427 16.5487 16.8139 16.0275 17.035C15.5063 17.2562 14.9376 17.3825 14.3216 17.4141C13.8636 17.4299 13.5398 17.3035 13.3503 17.035C13.1607 16.7665 13.1054 16.3874 13.1844 15.8978C13.2634 15.3766 13.4292 14.9106 13.682 14.5C13.9505 14.0893 14.2348 13.7576 14.5349 13.5049C14.8508 13.2364 15.2693 12.9915 15.7906 12.7704C16.3118 12.5335 16.7698 12.3518 17.1647 12.2255C17.5754 12.0991 18.1203 11.957 18.7995 11.799C18.9416 11.799 19.1233 11.6332 19.3444 11.3015C19.5655 10.9698 19.7551 10.8197 19.913 10.8513C20.0868 10.8829 20.2368 10.9777 20.3632 11.1356C20.4895 11.2778 20.5843 11.4357 20.6475 11.6095C20.7265 11.7674 20.7817 11.9965 20.8133 12.2966C20.8449 12.5967 20.8607 12.8336 20.8607 13.0073C20.8607 13.1811 20.8607 13.4338 20.8607 13.7655C20.8607 13.8129 20.8607 13.8445 20.8607 13.8603C20.8607 14.4131 20.8212 15.3608 20.7423 16.7033C20.6791 18.0301 20.6791 19.0331 20.7423 19.7123C20.7581 20.0913 20.7265 20.4309 20.6475 20.731C20.5843 21.0311 20.4816 21.2838 20.3395 21.4892C20.2131 21.7103 20.0236 21.892 19.7709 22.0341C19.5182 22.1763 19.2654 22.2868 19.0127 22.3658C18.76 22.4448 18.4441 22.508 18.065 22.5553C17.7017 22.6027 17.3701 22.6264 17.07 22.6264C16.7856 22.6422 16.4303 22.6501 16.0038 22.6501C15.1351 22.6501 14.4243 22.5474 13.8715 22.3421C13.3345 22.1526 13.0028 21.7814 12.8764 21.2286C12.8922 20.9601 13.0738 20.7073 13.4213 20.4704C13.7688 20.2335 14.1479 20.044 14.5586 19.9018C14.985 19.7754 15.4036 19.6807 15.8143 19.6175L14.4875 20.9443C15.1825 21.2444 15.9248 21.3707 16.7146 21.3233C17.5201 21.2917 18.2151 21.1022 18.7995 20.7547C19.1944 20.5178 19.455 20.0203 19.5813 19.2621C19.7077 18.504 19.7393 17.7695 19.6761 17.0587C19.6129 16.348 19.5024 15.653 19.3444 14.9738ZM14.1084 16.0873C14.835 16.1979 15.5852 16.1268 16.3592 15.8741C17.1331 15.6056 17.7965 15.2186 18.3493 14.7132C18.9022 14.192 19.2338 13.6549 19.3444 13.1021C18.2546 12.8494 17.1568 13.0547 16.0512 13.7181C14.9613 14.3657 14.3137 15.1554 14.1084 16.0873Z" fill="#888888"/>
</g>
<defs>
<clipPath id="clip0_246_1435">
<rect width="24" height="24" fill="white"/>
</clipPath>
</defs>
</svg>
