<svg width="24" height="24" viewBox="0 0 24 24" fill="none" xmlns="http://www.w3.org/2000/svg">
<path d="M3.16502 17V16.538C3.44502 16.538 3.65969 16.4633 3.80902 16.314C3.95836 16.1647 4.07969 15.9593 4.17302 15.698C4.27569 15.4367 4.39236 15.1333 4.52302 14.788L7.40702 6.934H7.74302L10.865 14.9C10.9397 15.096 11.0237 15.348 11.117 15.656C11.2104 15.964 11.2477 16.2253 11.229 16.44C11.3877 16.4307 11.5464 16.4213 11.705 16.412C11.8637 16.4027 12.0224 16.3933 12.181 16.384V17H8.97502V16.538C9.32969 16.5287 9.56302 16.4493 9.67502 16.3C9.78702 16.1507 9.82902 15.9733 9.80102 15.768C9.77302 15.5627 9.72636 15.376 9.66102 15.208L9.17102 13.892L5.53102 13.976L5.04102 15.474C4.97569 15.698 4.91502 15.8753 4.85902 16.006C4.81236 16.1367 4.75636 16.2813 4.69102 16.44C4.87769 16.4307 5.05969 16.4213 5.23702 16.412C5.42369 16.4027 5.60569 16.3933 5.78302 16.384V17H3.16502ZM5.74102 13.374H8.97502L7.98102 10.7C7.87836 10.4107 7.77102 10.126 7.65902 9.846C7.55636 9.55667 7.45369 9.26733 7.35102 8.978H7.32302C7.22969 9.23933 7.13169 9.50067 7.02902 9.762C6.93569 10.0233 6.83769 10.2893 6.73502 10.56L5.74102 13.374ZM16.0027 20.794C15.1627 20.794 14.486 20.7007 13.9727 20.514C13.4594 20.3273 13.086 20.0893 12.8527 19.8C12.6194 19.5107 12.5027 19.212 12.5027 18.904C12.5027 18.6147 12.568 18.358 12.6987 18.134C12.8387 17.9193 13.0067 17.7327 13.2027 17.574C13.408 17.4153 13.604 17.2987 13.7907 17.224C13.492 17.1213 13.254 16.986 13.0767 16.818C12.9087 16.6407 12.8247 16.4073 12.8247 16.118C12.8247 15.7913 12.9554 15.488 13.2167 15.208C13.478 14.9187 13.814 14.7413 14.2247 14.676C13.7954 14.4707 13.45 14.186 13.1887 13.822C12.9367 13.458 12.8107 13.0333 12.8107 12.548C12.8107 11.988 12.9554 11.5027 13.2447 11.092C13.534 10.672 13.9027 10.35 14.3507 10.126C14.808 9.89267 15.2794 9.776 15.7647 9.776C16.3994 9.776 16.992 9.94867 17.5427 10.294C17.6827 9.902 17.9067 9.58 18.2147 9.328C18.5227 9.06667 18.8634 8.936 19.2367 8.936C19.4794 8.936 19.6614 9.00133 19.7827 9.132C19.9134 9.25333 19.9787 9.42133 19.9787 9.636C19.9787 9.73867 19.932 9.86467 19.8387 10.014C19.7547 10.154 19.6007 10.2193 19.3767 10.21C19.218 10.21 19.0874 10.1633 18.9847 10.07C18.882 9.97667 18.8167 9.86 18.7887 9.72C18.5554 9.75733 18.3734 9.86933 18.2427 10.056C18.112 10.2333 18.0234 10.4293 17.9767 10.644C18.2007 10.8493 18.378 11.0967 18.5087 11.386C18.6487 11.6753 18.7187 11.9833 18.7187 12.31C18.7187 12.8327 18.5787 13.2993 18.2987 13.71C18.028 14.1207 17.6687 14.4427 17.2207 14.676C16.7727 14.9 16.2874 15.012 15.7647 15.012C15.5874 15.012 15.4334 15.0027 15.3027 14.984C15.172 14.956 15.0134 14.942 14.8267 14.942C14.4814 14.942 14.2014 15.026 13.9867 15.194C13.772 15.362 13.6974 15.5627 13.7627 15.796C13.8374 16.02 14.066 16.1647 14.4487 16.23C14.8314 16.286 15.3447 16.328 15.9887 16.356C16.7074 16.384 17.3234 16.468 17.8367 16.608C18.35 16.748 18.742 16.9627 19.0127 17.252C19.2927 17.5507 19.4327 17.952 19.4327 18.456C19.4327 18.8293 19.33 19.1607 19.1247 19.45C18.9287 19.7487 18.6627 19.996 18.3267 20.192C18 20.388 17.6314 20.5373 17.2207 20.64C16.8194 20.7427 16.4134 20.794 16.0027 20.794ZM15.8067 14.508C16.3294 14.508 16.7167 14.326 16.9687 13.962C17.23 13.5887 17.3607 13.1313 17.3607 12.59C17.3607 12.1793 17.3 11.7967 17.1787 11.442C17.0574 11.0873 16.8754 10.8027 16.6327 10.588C16.3994 10.3733 16.1007 10.266 15.7367 10.266C15.2327 10.266 14.8407 10.4573 14.5607 10.84C14.29 11.2133 14.1547 11.68 14.1547 12.24C14.1547 12.912 14.2994 13.458 14.5887 13.878C14.878 14.298 15.284 14.508 15.8067 14.508ZM15.9887 20.248C16.7914 20.248 17.4167 20.0987 17.8647 19.8C18.3127 19.5013 18.5367 19.1513 18.5367 18.75C18.5367 18.4047 18.42 18.1387 18.1867 17.952C17.9534 17.7747 17.636 17.6487 17.2347 17.574C16.8334 17.5087 16.3714 17.4713 15.8487 17.462C15.5967 17.4527 15.3494 17.4387 15.1067 17.42C14.864 17.4107 14.6307 17.3873 14.4067 17.35C13.8747 17.7047 13.6087 18.1667 13.6087 18.736C13.6087 19.1933 13.8234 19.5573 14.2527 19.828C14.6914 20.108 15.27 20.248 15.9887 20.248Z" fill="#333333"/>
</svg>
