<svg width="24" height="24" viewBox="0 0 24 24" fill="none" xmlns="http://www.w3.org/2000/svg">
<path d="M3.52475 17V16.034C3.78608 16.034 3.99608 15.9593 4.15475 15.81C4.31342 15.6607 4.44408 15.4647 4.54675 15.222C4.65875 14.9793 4.76608 14.718 4.86875 14.438L7.59875 6.948H8.57875L11.5608 14.578C11.6168 14.718 11.6914 14.9327 11.7848 15.222C11.8781 15.502 11.9341 15.7493 11.9528 15.964C12.1114 15.9453 12.2608 15.936 12.4008 15.936C12.5501 15.9267 12.6714 15.922 12.7648 15.922V17H8.99875V16.076C9.38142 16.076 9.59608 15.9593 9.64275 15.726C9.68942 15.4833 9.64742 15.1893 9.51675 14.844L9.23675 14.074L6.19875 14.13L5.97475 14.788C5.92808 14.9093 5.85808 15.0913 5.76475 15.334C5.68075 15.5673 5.60142 15.7633 5.52675 15.922C5.67608 15.9033 5.85342 15.894 6.05875 15.894C6.27342 15.8847 6.42742 15.88 6.52075 15.88V17H3.52475ZM6.54875 13.08H8.88675L8.24275 11.33C8.12142 10.994 8.01408 10.658 7.92075 10.322C7.82742 9.97667 7.75742 9.67333 7.71075 9.412H7.69675C7.65942 9.57067 7.60342 9.80867 7.52875 10.126C7.45408 10.4433 7.33742 10.8213 7.17875 11.26L6.54875 13.08ZM16.3223 20.794C15.5196 20.794 14.8849 20.7053 14.4183 20.528C13.9516 20.36 13.6203 20.136 13.4243 19.856C13.2283 19.576 13.1303 19.2773 13.1303 18.96C13.1303 18.6707 13.2236 18.3767 13.4103 18.078C13.6063 17.7793 13.9563 17.5367 14.4603 17.35C14.0776 17.2473 13.8069 17.084 13.6483 16.86C13.4989 16.6267 13.4243 16.3793 13.4243 16.118C13.4243 15.8753 13.5223 15.6047 13.7183 15.306C13.9143 14.998 14.2689 14.7647 14.7823 14.606C14.3903 14.4473 14.0683 14.2 13.8163 13.864C13.5643 13.528 13.4289 13.122 13.4103 12.646C13.3916 12.086 13.5316 11.5913 13.8303 11.162C14.1289 10.7233 14.5209 10.3827 15.0063 10.14C15.4916 9.89733 16.0003 9.776 16.5323 9.776C16.7749 9.776 17.0549 9.80867 17.3723 9.874C17.6896 9.93933 17.9649 10.0513 18.1983 10.21C18.3009 9.92067 18.4316 9.65 18.5903 9.398C18.7583 9.13667 18.9589 8.92667 19.1923 8.768C19.4256 8.6 19.6869 8.516 19.9763 8.516C20.2936 8.516 20.5316 8.6 20.6903 8.768C20.8583 8.92667 20.9423 9.14133 20.9423 9.412C20.9423 9.524 20.9143 9.65 20.8583 9.79C20.8116 9.92067 20.7229 10.0327 20.5923 10.126C20.4709 10.2193 20.2983 10.266 20.0743 10.266C19.9343 10.266 19.7943 10.2147 19.6543 10.112C19.5143 10 19.4303 9.86933 19.4023 9.72C19.2809 9.75733 19.1596 9.87867 19.0383 10.084C18.9169 10.2893 18.8469 10.4713 18.8283 10.63C19.3789 11.106 19.6543 11.708 19.6543 12.436C19.6543 12.9773 19.5003 13.458 19.1923 13.878C18.8936 14.2887 18.5016 14.6153 18.0163 14.858C17.5403 15.0913 17.0269 15.208 16.4763 15.208C16.3549 15.208 16.2196 15.2033 16.0703 15.194C15.9209 15.1753 15.7763 15.166 15.6363 15.166C15.4309 15.166 15.2583 15.2033 15.1183 15.278C14.9783 15.3527 14.9083 15.4553 14.9083 15.586C14.9083 15.7633 15.0436 15.8847 15.3143 15.95C15.5849 16.0153 16.0469 16.0667 16.7003 16.104C17.4189 16.1413 18.0443 16.2347 18.5763 16.384C19.1176 16.524 19.5376 16.748 19.8363 17.056C20.1349 17.364 20.2843 17.7887 20.2843 18.33C20.2843 18.7313 20.1676 19.0813 19.9343 19.38C19.7009 19.688 19.3883 19.9447 18.9963 20.15C18.6136 20.3647 18.1889 20.5233 17.7223 20.626C17.2556 20.738 16.7889 20.794 16.3223 20.794ZM16.5323 14.27C16.7843 14.27 16.9943 14.1907 17.1623 14.032C17.3396 13.8733 17.4703 13.6727 17.5543 13.43C17.6476 13.1873 17.6943 12.94 17.6943 12.688C17.6943 12.3613 17.6523 12.0487 17.5683 11.75C17.4843 11.442 17.3536 11.1947 17.1763 11.008C17.0083 10.812 16.7889 10.714 16.5183 10.714C16.1449 10.714 15.8556 10.882 15.6503 11.218C15.4449 11.554 15.3423 11.9367 15.3423 12.366C15.3423 12.6927 15.3889 13.0053 15.4823 13.304C15.5756 13.5933 15.7109 13.8267 15.8883 14.004C16.0656 14.1813 16.2803 14.27 16.5323 14.27ZM16.7283 19.828C17.3909 19.828 17.8903 19.7067 18.2263 19.464C18.5716 19.2213 18.7443 18.9693 18.7443 18.708C18.7443 18.148 18.0723 17.84 16.7283 17.784C16.5229 17.7653 16.2849 17.7513 16.0143 17.742C15.7436 17.7327 15.5056 17.7093 15.3003 17.672C15.1603 17.784 15.0529 17.924 14.9783 18.092C14.9036 18.26 14.8616 18.4233 14.8523 18.582C14.8336 18.9553 14.9923 19.254 15.3283 19.478C15.6736 19.7113 16.1403 19.828 16.7283 19.828Z" fill="#333333"/>
</svg>
