<svg width="24" height="24" viewBox="0 0 24 24" fill="none" xmlns="http://www.w3.org/2000/svg">
<path d="M8.34207 6.934L10.9881 14.788C11.0534 14.9653 11.1234 15.208 11.1981 15.516C11.2727 15.8147 11.3054 16.0713 11.2961 16.286L12.1641 16.23L12.1361 17H8.86007L8.88807 16.384C9.2054 16.3747 9.42007 16.3047 9.53207 16.174C9.64407 16.034 9.69074 15.866 9.67207 15.67C9.66274 15.474 9.63007 15.278 9.57407 15.082L9.22407 13.948L5.80807 14.032L5.34607 15.25C5.2714 15.4367 5.19674 15.614 5.12207 15.782C5.05674 15.95 4.9774 16.1133 4.88407 16.272L5.93407 16.216L5.89207 17H3.19007L3.21807 16.37C3.57274 16.37 3.85274 16.2113 4.05807 15.894C4.27274 15.5673 4.47807 15.1613 4.67407 14.676L7.82407 6.934H8.34207ZM7.71207 9.062C7.62807 9.286 7.53007 9.538 7.41807 9.818C7.3154 10.098 7.2034 10.3967 7.08207 10.714L6.08807 13.276H9.01407L8.23007 10.826C8.13674 10.5273 8.0434 10.2287 7.95007 9.93C7.86607 9.622 7.78674 9.33267 7.71207 9.062ZM14.7342 20.794C14.4262 20.794 14.1088 20.752 13.7822 20.668C13.4555 20.584 13.1755 20.4487 12.9422 20.262C12.7088 20.0753 12.5922 19.8327 12.5922 19.534C12.5922 19.3287 12.6575 19.1373 12.7882 18.96C12.9188 18.792 13.1008 18.708 13.3342 18.708C13.5302 18.708 13.6982 18.7687 13.8382 18.89C13.9782 19.0207 14.0482 19.2027 14.0482 19.436C14.0482 19.5667 14.0202 19.6927 13.9642 19.814C14.0388 19.9353 14.1648 20.024 14.3422 20.08C14.5288 20.136 14.6922 20.164 14.8322 20.164C15.3082 20.164 15.6862 20.0333 15.9662 19.772C16.2462 19.52 16.4562 19.1793 16.5962 18.75C16.7455 18.3207 16.8528 17.8493 16.9182 17.336C17.0022 16.804 17.0675 16.286 17.1142 15.782C17.1608 15.278 17.2262 14.8067 17.3102 14.368H17.2682C17.0162 15.152 16.7502 15.7447 16.4702 16.146C16.1902 16.538 15.9055 16.804 15.6162 16.944C15.3268 17.084 15.0375 17.154 14.7482 17.154C14.1508 17.154 13.6842 16.9113 13.3482 16.426C13.0122 15.9407 12.8442 15.2967 12.8442 14.494C12.8442 13.878 12.9235 13.29 13.0822 12.73C13.2502 12.17 13.4975 11.6753 13.8242 11.246C14.1602 10.8073 14.5848 10.4667 15.0982 10.224C15.6115 9.972 16.2228 9.846 16.9322 9.846C17.2215 9.846 17.5388 9.86933 17.8842 9.916C18.2388 9.96267 18.5515 10.0233 18.8222 10.098C18.7848 10.7513 18.7335 11.4653 18.6682 12.24C18.6122 13.0147 18.5515 13.7893 18.4862 14.564C18.4302 15.3387 18.3742 16.0433 18.3182 16.678C18.1968 18.022 17.8375 19.044 17.2402 19.744C16.6522 20.444 15.8168 20.794 14.7342 20.794ZM15.1402 16.3C15.3828 16.3 15.6162 16.1787 15.8402 15.936C16.0642 15.6933 16.2695 15.3713 16.4562 14.97C16.6522 14.5687 16.8202 14.1207 16.9602 13.626C17.1095 13.1313 17.2308 12.6273 17.3242 12.114C17.4175 11.5913 17.4735 11.1013 17.4922 10.644C17.3895 10.588 17.2635 10.5507 17.1142 10.532C16.9648 10.504 16.8155 10.49 16.6662 10.49C16.2182 10.49 15.8402 10.602 15.5322 10.826C15.2242 11.05 14.9768 11.3487 14.7902 11.722C14.6035 12.0953 14.4682 12.5107 14.3842 12.968C14.3095 13.4253 14.2722 13.8873 14.2722 14.354C14.2722 14.914 14.3375 15.3807 14.4682 15.754C14.6082 16.118 14.8322 16.3 15.1402 16.3Z" fill="#333333"/>
</svg>
