<svg width="24" height="24" viewBox="0 0 24 24" fill="none" xmlns="http://www.w3.org/2000/svg">
<path d="M8.23494 6.934L10.9089 14.9C10.9836 15.096 11.0536 15.348 11.1189 15.656C11.1936 15.964 11.2216 16.2253 11.2029 16.44L12.1129 16.384L12.0849 17H9.04694L9.06094 16.538C9.4156 16.5287 9.64894 16.4493 9.76094 16.3C9.87294 16.1507 9.9196 15.9733 9.90094 15.768C9.88227 15.5627 9.84494 15.376 9.78894 15.208L9.38294 13.892L5.79894 13.976L5.23894 15.474C5.15494 15.698 5.08027 15.8753 5.01494 16.006C4.95894 16.1367 4.88894 16.2813 4.80494 16.44L5.85494 16.384L5.82694 17H3.26494L3.27894 16.538C3.6336 16.5287 3.91827 16.3653 4.13294 16.048C4.3476 15.7307 4.5576 15.3107 4.76294 14.788L7.92694 6.934H8.23494ZM7.75894 8.88C7.65627 9.14133 7.5536 9.40267 7.45094 9.664C7.34827 9.92533 7.2456 10.1867 7.14294 10.448L6.02294 13.374H9.22894L8.31894 10.574C8.2256 10.294 8.13227 10.014 8.03894 9.734C7.95494 9.454 7.8616 9.16933 7.75894 8.88ZM14.561 20.794C14.393 20.794 14.1923 20.7753 13.959 20.738C13.735 20.7007 13.511 20.6353 13.287 20.542C13.063 20.458 12.8763 20.3367 12.727 20.178C12.5776 20.0287 12.4983 19.842 12.489 19.618C12.489 19.422 12.5496 19.254 12.671 19.114C12.8016 18.974 12.9603 18.904 13.147 18.904C13.315 18.904 13.4596 18.9553 13.581 19.058C13.7116 19.17 13.777 19.3333 13.777 19.548C13.777 19.66 13.749 19.7813 13.693 19.912C13.7863 20.052 13.9263 20.15 14.113 20.206C14.309 20.2713 14.491 20.304 14.659 20.304C15.191 20.304 15.611 20.164 15.919 19.884C16.2363 19.604 16.479 19.2307 16.647 18.764C16.815 18.3067 16.9363 17.8073 17.011 17.266C17.095 16.7153 17.1556 16.1553 17.193 15.586C17.2303 15.0073 17.2816 14.4847 17.347 14.018H17.305C17.109 14.69 16.9036 15.236 16.689 15.656C16.4743 16.0667 16.255 16.384 16.031 16.608C15.807 16.8227 15.583 16.9673 15.359 17.042C15.1443 17.1167 14.9296 17.154 14.715 17.154C14.2856 17.154 13.931 17.0373 13.651 16.804C13.371 16.5613 13.161 16.2347 13.021 15.824C12.8903 15.4133 12.825 14.9513 12.825 14.438C12.825 13.8313 12.9043 13.2573 13.063 12.716C13.231 12.1653 13.4783 11.6753 13.805 11.246C14.141 10.8073 14.5656 10.4667 15.079 10.224C15.6016 9.972 16.213 9.846 16.913 9.846C17.2303 9.846 17.5476 9.86933 17.865 9.916C18.1916 9.95333 18.467 10.0093 18.691 10.084C18.6256 11.2133 18.537 12.3567 18.425 13.514C18.3223 14.6713 18.229 15.768 18.145 16.804C18.033 18.1573 17.6643 19.1607 17.039 19.814C16.4136 20.4673 15.5876 20.794 14.561 20.794ZM15.009 16.496C15.2703 16.496 15.5223 16.37 15.765 16.118C16.017 15.8567 16.2456 15.516 16.451 15.096C16.6656 14.6667 16.8523 14.1907 17.011 13.668C17.179 13.1453 17.3143 12.6133 17.417 12.072C17.5196 11.5213 17.585 11.008 17.613 10.532C17.4916 10.4667 17.347 10.42 17.179 10.392C17.0203 10.364 16.857 10.35 16.689 10.35C16.1756 10.35 15.7463 10.476 15.401 10.728C15.0556 10.9707 14.7803 11.2927 14.575 11.694C14.3696 12.086 14.2203 12.506 14.127 12.954C14.043 13.3927 14.001 13.808 14.001 14.2C14.001 14.6293 14.029 15.0167 14.085 15.362C14.1503 15.7073 14.2576 15.9827 14.407 16.188C14.5563 16.3933 14.757 16.496 15.009 16.496Z" fill="#333333"/>
</svg>
