<svg width="24" height="24" viewBox="0 0 24 24" fill="none" xmlns="http://www.w3.org/2000/svg">
<path d="M3.11816 17V16.37C3.39816 16.37 3.61282 16.2953 3.76216 16.146C3.91149 15.9967 4.03749 15.796 4.14016 15.544C4.24282 15.2827 4.35482 14.9933 4.47616 14.676L7.30416 6.934H7.86416L10.9302 14.788C11.0048 14.9653 11.0842 15.208 11.1682 15.516C11.2615 15.8147 11.3082 16.0713 11.3082 16.286C11.4668 16.2767 11.6208 16.2673 11.7702 16.258C11.9288 16.2393 12.0782 16.23 12.2182 16.23V17H8.81616V16.384C9.14282 16.3747 9.35749 16.3047 9.46016 16.174C9.57216 16.034 9.61416 15.866 9.58616 15.67C9.56749 15.474 9.52082 15.278 9.44616 15.082L9.02616 13.948L5.59616 14.032L5.19016 15.25C5.05949 15.6327 4.93349 15.9733 4.81216 16.272C4.98016 16.2627 5.15749 16.2533 5.34416 16.244C5.54016 16.2253 5.71282 16.216 5.86216 16.216V17H3.11816ZM5.84816 13.276H8.78816L7.90616 10.91C7.79416 10.6113 7.68682 10.308 7.58416 10C7.48149 9.692 7.38816 9.398 7.30416 9.118H7.29016C7.20616 9.35133 7.11749 9.608 7.02416 9.888C6.94016 10.168 6.83749 10.4713 6.71616 10.798L5.84816 13.276ZM15.9379 20.794C15.1072 20.794 14.4446 20.7007 13.9499 20.514C13.4552 20.3367 13.0959 20.1033 12.8719 19.814C12.6572 19.534 12.5499 19.2353 12.5499 18.918C12.5499 18.5447 12.6759 18.2087 12.9279 17.91C13.1892 17.6207 13.4972 17.406 13.8519 17.266C13.1892 17.0607 12.8579 16.678 12.8579 16.118C12.8579 15.8193 12.9746 15.5253 13.2079 15.236C13.4506 14.9467 13.7959 14.7507 14.2439 14.648C13.8332 14.4613 13.4972 14.1907 13.2359 13.836C12.9746 13.4813 12.8439 13.0613 12.8439 12.576C12.8346 12.016 12.9746 11.526 13.2639 11.106C13.5626 10.686 13.9406 10.3593 14.3979 10.126C14.8646 9.89267 15.3499 9.776 15.8539 9.776C16.1432 9.776 16.4419 9.818 16.7499 9.902C17.0579 9.97667 17.3379 10.098 17.5899 10.266C17.7392 9.86467 17.9632 9.51933 18.2619 9.23C18.5699 8.94067 18.9199 8.796 19.3119 8.796C19.5826 8.796 19.7879 8.866 19.9279 9.006C20.0679 9.13667 20.1379 9.32333 20.1379 9.566C20.1379 9.68733 20.0866 9.832 19.9839 10C19.8812 10.1587 19.6992 10.2333 19.4379 10.224C19.2886 10.224 19.1532 10.1773 19.0319 10.084C18.9199 9.99067 18.8499 9.86933 18.8219 9.72C18.6259 9.75733 18.4626 9.874 18.3319 10.07C18.2106 10.2567 18.1312 10.448 18.0939 10.644C18.3366 10.8587 18.5232 11.1153 18.6539 11.414C18.7939 11.7127 18.8639 12.0253 18.8639 12.352C18.8639 12.884 18.7192 13.3553 18.4299 13.766C18.1499 14.1767 17.7812 14.4987 17.3239 14.732C16.8666 14.9653 16.3719 15.082 15.8399 15.082C15.6812 15.082 15.5319 15.0727 15.3919 15.054C15.2519 15.026 15.0979 15.012 14.9299 15.012C14.6312 15.012 14.3839 15.082 14.1879 15.222C14.0012 15.362 13.9312 15.53 13.9779 15.726C14.0246 15.9313 14.2206 16.0667 14.5659 16.132C14.9112 16.1973 15.4106 16.244 16.0639 16.272C16.7826 16.3093 17.3986 16.398 17.9119 16.538C18.4346 16.678 18.8359 16.8973 19.1159 17.196C19.4052 17.4947 19.5499 17.9007 19.5499 18.414C19.5499 18.7967 19.4426 19.1373 19.2279 19.436C19.0226 19.7347 18.7426 19.982 18.3879 20.178C18.0426 20.3833 17.6552 20.5373 17.2259 20.64C16.7966 20.7427 16.3672 20.794 15.9379 20.794ZM15.8819 14.424C16.3486 14.424 16.7032 14.2467 16.9459 13.892C17.1886 13.5373 17.3099 13.1127 17.3099 12.618C17.3099 12.2353 17.2539 11.876 17.1419 11.54C17.0299 11.204 16.8666 10.9333 16.6519 10.728C16.4372 10.5227 16.1619 10.42 15.8259 10.42C15.3686 10.42 15.0139 10.602 14.7619 10.966C14.5099 11.33 14.3839 11.7687 14.3839 12.282C14.3839 12.898 14.5146 13.4113 14.7759 13.822C15.0372 14.2233 15.4059 14.424 15.8819 14.424ZM16.0639 20.108C16.8199 20.108 17.4032 19.968 17.8139 19.688C18.2339 19.408 18.4439 19.0907 18.4439 18.736C18.4439 18.2973 18.2152 17.9987 17.7579 17.84C17.3099 17.6813 16.7172 17.5927 15.9799 17.574C15.7372 17.5647 15.4899 17.5507 15.2379 17.532C14.9859 17.5133 14.7526 17.49 14.5379 17.462C14.0899 17.77 13.8612 18.176 13.8519 18.68C13.8519 19.1187 14.0526 19.464 14.4539 19.716C14.8552 19.9773 15.3919 20.108 16.0639 20.108Z" fill="#333333"/>
</svg>
