<svg width="24" height="24" viewBox="0 0 24 24" fill="none" xmlns="http://www.w3.org/2000/svg">
<path d="M5.00684 13.9238L4.49414 15.0107C4.24349 15.5485 4.11816 15.9154 4.11816 16.1113C4.11816 16.2617 4.26172 16.3369 4.54883 16.3369C4.58984 16.3415 4.67643 16.3483 4.80859 16.3574L4.93848 16.3643V17H2.23828V16.3643L2.36816 16.3574C2.73275 16.3346 2.96061 16.2754 3.05176 16.1797C3.14746 16.084 3.35254 15.6943 3.66699 15.0107L7.43359 6.79395H8.1377L11.9316 15.0176C12.2643 15.6966 12.4762 16.0817 12.5674 16.1729C12.6631 16.264 12.9023 16.3255 13.2852 16.3574L13.374 16.3643V17H9.15625V16.3643L9.28613 16.3574C9.86035 16.321 10.152 16.2321 10.1611 16.0908C10.1702 15.9541 10.0404 15.5918 9.77148 15.0039L9.27246 13.9238H5.00684ZM5.32129 13.2471H8.95117L7.10547 9.31641L5.32129 13.2471ZM15.2812 16.7334C14.7572 16.46 14.4951 16.1318 14.4951 15.749C14.4951 15.5029 14.6136 15.2637 14.8506 15.0312C15.0921 14.7943 15.4521 14.5641 15.9307 14.3408C15.3701 14.1312 14.9486 13.8281 14.666 13.4316C14.388 13.0352 14.249 12.5452 14.249 11.9619C14.249 11.1598 14.5247 10.5195 15.0762 10.041C15.6322 9.5625 16.3727 9.32324 17.2979 9.32324C17.5895 9.32324 17.863 9.34603 18.1182 9.3916C18.3779 9.43717 18.6217 9.50553 18.8496 9.59668L21.6455 9.36426L21.2217 10.4443L19.7383 10.2393C20.1712 10.7542 20.3877 11.3148 20.3877 11.9209C20.3877 12.6729 20.1165 13.304 19.5742 13.8145C19.0319 14.3203 18.3597 14.5732 17.5576 14.5732C17.3936 14.5732 17.1702 14.5618 16.8877 14.5391L16.4912 14.4707C16.3363 14.5892 16.2201 14.7077 16.1426 14.8262C16.0651 14.9401 16.0264 15.0563 16.0264 15.1748C16.0264 15.4619 16.3978 15.6055 17.1406 15.6055H18.2891C19.3555 15.6055 20.1143 15.7399 20.5654 16.0088C21.012 16.2822 21.2354 16.7402 21.2354 17.3828C21.2354 18.1302 20.8753 18.7318 20.1553 19.1875C19.4398 19.6432 18.4919 19.8711 17.3115 19.8711C16.2542 19.8711 15.3883 19.7207 14.7139 19.4199C14.0394 19.1191 13.7021 18.734 13.7021 18.2646C13.7021 17.5811 14.2285 17.0706 15.2812 16.7334ZM16.1494 11.9893C16.1494 12.6546 16.2474 13.1559 16.4434 13.4932C16.6393 13.8258 16.931 13.9922 17.3184 13.9922C17.7103 13.9922 18.002 13.8258 18.1934 13.4932C18.3893 13.1559 18.4873 12.6546 18.4873 11.9893C18.4873 11.3193 18.3893 10.818 18.1934 10.4854C18.002 10.1527 17.7103 9.98633 17.3184 9.98633C16.931 9.98633 16.6393 10.1527 16.4434 10.4854C16.2474 10.818 16.1494 11.3193 16.1494 11.9893ZM15.9375 16.918C15.7507 17.3236 15.6572 17.6494 15.6572 17.8955C15.6572 18.2646 15.835 18.5791 16.1904 18.8389C16.5459 19.1032 16.972 19.2354 17.4688 19.2354C18.0111 19.2354 18.4622 19.0941 18.8223 18.8115C19.1868 18.529 19.3691 18.1781 19.3691 17.7588C19.3691 17.4762 19.2393 17.2643 18.9795 17.123C18.7243 16.9863 18.3392 16.918 17.8242 16.918H15.9375Z" fill="#888888"/>
</svg>
