<svg width="24" height="24" viewBox="0 0 24 24" fill="none" xmlns="http://www.w3.org/2000/svg">
<path d="M4.74413 15.944L3.28813 16L3.14813 15.356H3.23213C3.66146 15.3093 3.98813 15.1927 4.21213 15.006C4.44546 14.81 4.64146 14.4927 4.80013 14.054L7.76813 6.06H8.44013L11.7441 14.278C11.9401 14.7353 12.1128 15.034 12.2621 15.174C12.4208 15.314 12.6728 15.384 13.0181 15.384L13.1721 16C12.4441 15.9533 11.7861 15.93 11.1981 15.93C10.6195 15.93 10.0548 15.9533 9.50413 16L9.37813 15.398H9.43413C10.1715 15.3887 10.5401 15.258 10.5401 15.006C10.5401 14.8847 10.2041 14.054 9.53213 12.514H6.04613L5.36013 14.418C5.33213 14.53 5.31813 14.628 5.31813 14.712C5.31813 14.908 5.40679 15.0573 5.58413 15.16C5.76146 15.2627 6.06479 15.328 6.49413 15.356L6.66213 16L4.74413 15.944ZM7.65613 8.09L6.31213 11.786H9.21013L7.65613 8.09ZM18.7103 11.912C18.7103 12.6027 18.477 13.158 18.0103 13.578C17.5437 13.9887 16.979 14.194 16.3163 14.194C16.167 14.194 16.013 14.1893 15.8543 14.18C15.705 14.1613 15.551 14.1987 15.3923 14.292C15.2337 14.3853 15.1543 14.4973 15.1543 14.628C15.1543 14.852 15.3457 15.02 15.7283 15.132C15.9523 15.188 16.405 15.2487 17.0863 15.314C17.7677 15.3793 18.239 15.468 18.5003 15.58C19.0697 15.8227 19.3543 16.308 19.3543 17.036C19.3543 17.764 19.0277 18.3987 18.3743 18.94C17.7303 19.4813 16.9417 19.752 16.0083 19.752C15.3177 19.752 14.711 19.5933 14.1883 19.276C13.6657 18.968 13.4043 18.492 13.4043 17.848C13.4043 17.5493 13.4697 17.33 13.6003 17.19C13.7403 17.0593 13.885 16.9333 14.0343 16.812C14.193 16.6907 14.375 16.5553 14.5803 16.406C14.7857 16.2567 14.907 16.168 14.9443 16.14C14.711 16.0467 14.501 15.902 14.3143 15.706C14.1277 15.5007 14.0343 15.3187 14.0343 15.16C14.0343 15.0013 14.0717 14.8847 14.1463 14.81C14.333 14.6233 14.6783 14.3573 15.1823 14.012C14.809 13.844 14.4963 13.5967 14.2443 13.27C13.9923 12.9433 13.8663 12.5607 13.8663 12.122C13.8663 11.4593 14.0997 10.9087 14.5663 10.47C15.033 10.0313 15.5977 9.812 16.2603 9.812C16.6243 9.812 16.9603 9.85867 17.2683 9.952C17.679 10.036 18.0897 10.078 18.5003 10.078C18.911 10.078 19.2937 10.0687 19.6483 10.05C19.6483 10.1433 19.6297 10.2973 19.5923 10.512C19.555 10.7173 19.5037 10.862 19.4383 10.946L18.3743 10.75C18.5983 11.0953 18.7103 11.4827 18.7103 11.912ZM16.3583 19.052C16.8903 19.052 17.3243 18.9073 17.6603 18.618C17.9963 18.338 18.1643 17.9833 18.1643 17.554C18.1643 17.1247 17.973 16.8073 17.5903 16.602C17.2077 16.406 16.6103 16.308 15.7983 16.308C15.5837 16.308 15.4017 16.3547 15.2523 16.448C15.103 16.5413 14.991 16.616 14.9163 16.672C14.8417 16.728 14.7577 16.8353 14.6643 16.994C14.571 17.1527 14.5243 17.3347 14.5243 17.54C14.5243 17.9693 14.697 18.3287 15.0423 18.618C15.397 18.9073 15.8357 19.052 16.3583 19.052ZM16.4003 13.578C17.231 13.578 17.6463 13.102 17.6463 12.15C17.6463 11.618 17.5203 11.1933 17.2683 10.876C17.0257 10.5587 16.6897 10.4 16.2603 10.4C15.831 10.4 15.4997 10.5213 15.2663 10.764C15.0423 11.0067 14.9303 11.3753 14.9303 11.87C14.9303 12.3647 15.0703 12.7753 15.3503 13.102C15.6303 13.4193 15.9803 13.578 16.4003 13.578Z" fill="#888888"/>
</svg>
