<svg width="24" height="24" viewBox="0 0 24 24" fill="none" xmlns="http://www.w3.org/2000/svg">
<path d="M11.1351 11.8L8.81111 11.73L7.03311 11.772C6.94911 11.968 6.85578 12.2153 6.75311 12.514C6.65978 12.8127 6.53378 13.1627 6.37511 13.564C6.21644 13.956 6.03444 14.3527 5.82911 14.754C5.37178 15.6407 4.93311 16.084 4.51311 16.084C4.14911 16.084 3.96711 15.8787 3.96711 15.468C3.96711 15.2067 4.22378 14.824 4.73711 14.32C4.95178 14.124 5.19444 13.802 5.46511 13.354C5.74511 12.906 5.98778 12.388 6.19311 11.8H5.68911C5.53978 11.8 5.40911 11.758 5.29711 11.674C5.19444 11.5807 5.14311 11.4547 5.14311 11.296C5.14311 11.1373 5.19911 11.0067 5.31111 10.904C5.42311 10.8013 5.54444 10.75 5.67511 10.75L6.65511 10.764C7.44844 9 8.19978 7.782 8.90911 7.11C8.54511 7.11 7.99444 7.14733 7.25711 7.222C6.51978 7.28733 6.07178 7.32 5.91311 7.32C5.76378 7.32 5.63311 7.278 5.52111 7.194C5.40911 7.10067 5.35311 6.97467 5.35311 6.816C5.35311 6.648 5.40911 6.51267 5.52111 6.41C5.64244 6.30733 5.77311 6.256 5.91311 6.256L8.96511 6.34L12.2831 6.256C12.4511 6.256 12.5864 6.30733 12.6891 6.41C12.7918 6.51267 12.8431 6.64333 12.8431 6.802C12.8431 7.14733 12.6518 7.32 12.2691 7.32H11.9331C11.9331 8.81333 11.9938 10.162 12.1151 11.366C12.2364 12.57 12.3578 13.4987 12.4791 14.152C12.6004 14.8053 12.6611 15.2207 12.6611 15.398C12.6611 15.566 12.6051 15.7247 12.4931 15.874C12.3904 16.014 12.2458 16.084 12.0591 16.084C11.8818 16.084 11.7278 16.0187 11.5971 15.888C11.4664 15.7573 11.3964 15.5707 11.3871 15.328L11.1351 11.8ZM10.8831 7.152L10.5331 7.138C9.47844 7.24067 8.45178 8.454 7.45311 10.778C8.25578 10.7967 8.75044 10.806 8.93711 10.806C9.12378 10.806 9.83311 10.7873 11.0651 10.75C10.9438 8.68733 10.8831 7.488 10.8831 7.152ZM16.9551 10.722C16.3577 10.722 15.8491 10.9273 15.4291 11.338C15.0184 11.7487 14.8131 12.2527 14.8131 12.85C14.8131 13.4473 15.0184 13.956 15.4291 14.376C15.8491 14.7867 16.3484 14.992 16.9271 14.992C17.5057 14.992 17.9864 14.81 18.3691 14.446C18.7611 14.0727 18.9804 13.6107 19.0271 13.06C19.0177 12.7893 19.0131 12.4813 19.0131 12.136C19.0131 11.7907 19.0737 11.5433 19.1951 11.394C19.3257 11.2353 19.4797 11.156 19.6571 11.156C19.8344 11.156 19.9791 11.2307 20.0911 11.38C20.2031 11.52 20.2591 11.6927 20.2591 11.898C20.2591 12.1033 20.2497 12.3087 20.2311 12.514C20.2217 12.71 20.2031 12.9667 20.1751 13.284C20.0817 14.32 20.0351 15.2907 20.0351 16.196C20.0351 17.1013 19.6337 17.9693 18.8311 18.8C18.0284 19.64 17.1324 20.06 16.1431 20.06C15.6484 20.06 15.2191 19.92 14.8551 19.64C14.4911 19.36 14.3091 19.0567 14.3091 18.73C14.3091 18.562 14.3651 18.4127 14.4771 18.282C14.5984 18.1513 14.7384 18.086 14.8971 18.086C15.0651 18.086 15.2144 18.1327 15.3451 18.226C15.4851 18.3193 15.6111 18.422 15.7231 18.534C15.8444 18.646 16.0217 18.7487 16.2551 18.842C16.4977 18.9353 16.7684 18.982 17.0671 18.982C17.6551 18.982 18.1451 18.7627 18.5371 18.324C18.9291 17.8947 19.1251 17.3813 19.1251 16.784C19.1251 16.7093 19.1111 15.93 19.0831 14.446C18.6817 14.95 18.2011 15.3513 17.6411 15.65C17.0904 15.9393 16.5677 16.084 16.0731 16.084C15.4197 16.084 14.8924 15.8507 14.4911 15.384C14.0897 14.9173 13.8891 14.334 13.8891 13.634C13.8891 12.9247 14.1084 12.2433 14.5471 11.59C14.9857 10.9273 15.4991 10.4327 16.0871 10.106C16.6751 9.77933 17.2024 9.616 17.6691 9.616C18.1357 9.616 18.4624 9.69067 18.6491 9.84C18.8451 9.98 18.9431 10.1527 18.9431 10.358C18.9431 10.554 18.8777 10.7173 18.7471 10.848C18.6257 10.9787 18.5044 11.044 18.3831 11.044C18.2711 11.044 18.0657 10.9927 17.7671 10.89C17.4777 10.778 17.2071 10.722 16.9551 10.722Z" fill="#888888"/>
</svg>
