<svg width="24" height="24" viewBox="0 0 24 24" fill="none" xmlns="http://www.w3.org/2000/svg">
<g clip-path="url(#clip0_201_4603)">
<path d="M10.1351 11.8L7.78311 11.73C7.52178 11.73 6.77511 11.7487 5.54311 11.786C5.35644 12.178 5.10911 12.7147 4.80111 13.396C3.89578 15.412 2.99978 17.092 2.11311 18.436C1.39444 19.5187 0.853109 20.06 0.489109 20.06C0.330443 20.06 0.199776 20.004 0.0971093 19.892C-0.00555748 19.7893 -0.0568908 19.6447 -0.0568908 19.458C-0.0568908 19.2713 0.0457758 19.052 0.251109 18.8C0.447109 18.548 0.699109 18.2727 1.00711 17.974C1.30578 17.6847 1.70244 17.1993 2.19711 16.518C2.68244 15.8367 3.14911 15.0527 3.59711 14.166C3.67178 14.026 4.04978 13.2373 4.73111 11.8H4.66111C4.51178 11.8 4.38111 11.758 4.26911 11.674C4.16644 11.5807 4.11511 11.4547 4.11511 11.296C4.11511 11.1373 4.17111 11.0067 4.28311 10.904C4.39511 10.8013 4.53978 10.75 4.71711 10.75C4.90378 10.75 5.08111 10.7547 5.24911 10.764C6.10778 9.00933 6.89178 7.796 7.60111 7.124C5.93978 7.25467 5.03911 7.32 4.89911 7.32C4.76844 7.32 4.64244 7.27333 4.52111 7.18C4.40911 7.08667 4.35311 6.96533 4.35311 6.816C4.35311 6.65733 4.40911 6.52667 4.52111 6.424C4.64244 6.312 4.77311 6.256 4.91311 6.256L7.96511 6.34L11.2831 6.256C11.4511 6.256 11.5864 6.30733 11.6891 6.41C11.7918 6.51267 11.8431 6.648 11.8431 6.816C11.8431 6.97467 11.7871 7.10067 11.6751 7.194C11.5724 7.278 11.4371 7.32 11.2691 7.32H10.9331C10.9331 8.81333 10.9938 10.162 11.1151 11.366C11.2364 12.57 11.3578 13.4987 11.4791 14.152C11.6004 14.8053 11.6611 15.2207 11.6611 15.398C11.6611 15.566 11.6051 15.7247 11.4931 15.874C11.3904 16.014 11.2504 16.084 11.0731 16.084C10.8958 16.084 10.7418 16.0187 10.6111 15.888C10.4804 15.7573 10.4058 15.5707 10.3871 15.328L10.1351 11.8ZM9.88311 7.152L9.46311 7.138C8.35244 7.278 7.21378 8.49133 6.04711 10.778C7.03644 10.7967 7.66178 10.806 7.92311 10.806C8.19378 10.806 8.90778 10.7873 10.0651 10.75C9.94378 9.14467 9.88311 7.94533 9.88311 7.152ZM15.9551 10.722C15.3577 10.722 14.8491 10.9273 14.4291 11.338C14.0184 11.7487 13.8131 12.2527 13.8131 12.85C13.8131 13.4473 14.0184 13.956 14.4291 14.376C14.8491 14.7867 15.3484 14.992 15.9271 14.992C16.5057 14.992 16.9864 14.81 17.3691 14.446C17.7611 14.0727 17.9804 13.6107 18.0271 13.06C18.0177 12.7893 18.0131 12.4813 18.0131 12.136C18.0131 11.7907 18.0737 11.5433 18.1951 11.394C18.3257 11.2353 18.4797 11.156 18.6571 11.156C18.8344 11.156 18.9791 11.2307 19.0911 11.38C19.2031 11.52 19.2591 11.6927 19.2591 11.898C19.2591 12.1033 19.2497 12.3087 19.2311 12.514C19.2217 12.71 19.2031 12.9667 19.1751 13.284C19.0817 14.32 19.0351 15.2907 19.0351 16.196C19.0351 17.1013 18.6337 17.9693 17.8311 18.8C17.0284 19.64 16.1324 20.06 15.1431 20.06C14.6484 20.06 14.2191 19.92 13.8551 19.64C13.4911 19.36 13.3091 19.0567 13.3091 18.73C13.3091 18.562 13.3651 18.4127 13.4771 18.282C13.5984 18.1513 13.7384 18.086 13.8971 18.086C14.0651 18.086 14.2144 18.1327 14.3451 18.226C14.4851 18.3193 14.6111 18.422 14.7231 18.534C14.8444 18.646 15.0217 18.7487 15.2551 18.842C15.4977 18.9353 15.7684 18.982 16.0671 18.982C16.6551 18.982 17.1451 18.7627 17.5371 18.324C17.9291 17.8947 18.1251 17.3813 18.1251 16.784C18.1251 16.7093 18.1111 15.93 18.0831 14.446C17.6817 14.95 17.2011 15.3513 16.6411 15.65C16.0904 15.9393 15.5677 16.084 15.0731 16.084C14.4197 16.084 13.8924 15.8507 13.4911 15.384C13.0897 14.9173 12.8891 14.334 12.8891 13.634C12.8891 12.9247 13.1084 12.2433 13.5471 11.59C13.9857 10.9273 14.4991 10.4327 15.0871 10.106C15.6751 9.77933 16.2024 9.616 16.6691 9.616C17.1357 9.616 17.4624 9.69067 17.6491 9.84C17.8451 9.98 17.9431 10.1527 17.9431 10.358C17.9431 10.554 17.8777 10.7173 17.7471 10.848C17.6257 10.9787 17.5044 11.044 17.3831 11.044C17.2711 11.044 17.0657 10.9927 16.7671 10.89C16.4777 10.778 16.2071 10.722 15.9551 10.722Z" fill="#333333"/>
</g>
<defs>
<clipPath id="clip0_201_4603">
<rect width="24" height="24" fill="white"/>
</clipPath>
</defs>
</svg>
