<svg width="24" height="24" viewBox="0 0 24 24" fill="none" xmlns="http://www.w3.org/2000/svg">
<path d="M7.00704 10.862L6.57304 12.262H9.33104L8.89704 10.862C8.72904 10.3487 8.57037 9.84 8.42104 9.336C8.27171 8.82267 8.12237 8.3 7.97304 7.768H7.91704C7.77704 8.3 7.63237 8.82267 7.48304 9.336C7.33371 9.84 7.17504 10.3487 7.00704 10.862ZM10.493 16L9.62504 13.2H6.27904L5.39704 16H4.20704L7.31504 6.816H8.63104L11.739 16H10.493ZM15.2243 13.074C15.6163 13.074 15.9523 12.9293 16.2323 12.64C16.5216 12.3413 16.6663 11.9447 16.6663 11.45C16.6663 10.9553 16.5263 10.568 16.2463 10.288C15.9663 10.008 15.6256 9.868 15.2243 9.868C14.8229 9.868 14.4823 10.008 14.2023 10.288C13.9223 10.568 13.7823 10.9553 13.7823 11.45C13.7823 11.9447 13.9223 12.3413 14.2023 12.64C14.4916 12.9293 14.8323 13.074 15.2243 13.074ZM15.2243 19.136C14.3936 19.136 13.7169 18.9773 13.1943 18.66C12.6716 18.3427 12.4103 17.89 12.4103 17.302C12.4103 16.7233 12.7416 16.21 13.4043 15.762V15.706C13.2363 15.6033 13.0916 15.4587 12.9703 15.272C12.8583 15.0853 12.8023 14.8613 12.8023 14.6C12.8023 14.3107 12.8816 14.0587 13.0403 13.844C13.1989 13.6293 13.3669 13.4613 13.5443 13.34V13.284C13.3203 13.0973 13.1149 12.8453 12.9283 12.528C12.7509 12.2107 12.6623 11.8513 12.6623 11.45C12.6623 10.7127 12.9143 10.1247 13.4183 9.686C13.9316 9.24733 14.5336 9.028 15.2243 9.028C15.5789 9.028 15.9009 9.084 16.1903 9.196H18.5563V10.078H17.1563C17.3149 10.2367 17.4456 10.4373 17.5483 10.68C17.6603 10.9227 17.7163 11.1887 17.7163 11.478C17.7163 12.206 17.4736 12.7847 16.9883 13.214C16.5029 13.634 15.9149 13.844 15.2243 13.844C14.8603 13.844 14.5196 13.7647 14.2023 13.606C14.0809 13.7087 13.9783 13.8253 13.8943 13.956C13.8103 14.0773 13.7683 14.2313 13.7683 14.418C13.7683 14.6327 13.8523 14.81 14.0203 14.95C14.1883 15.09 14.5056 15.16 14.9723 15.16H16.2883C17.8749 15.16 18.6683 15.7013 18.6683 16.784C18.6683 17.4187 18.3556 17.9693 17.7303 18.436C17.1143 18.9027 16.2789 19.136 15.2243 19.136ZM15.3923 18.338C16.0456 18.338 16.5683 18.1933 16.9603 17.904C17.3523 17.624 17.5483 17.3067 17.5483 16.952C17.5483 16.6347 17.4269 16.4153 17.1843 16.294C16.9509 16.1727 16.6149 16.112 16.1763 16.112H15.0003C14.8696 16.112 14.7249 16.1027 14.5663 16.084C14.4169 16.0653 14.2676 16.0373 14.1183 16C13.6516 16.336 13.4183 16.7187 13.4183 17.148C13.4183 17.512 13.5909 17.8013 13.9363 18.016C14.2909 18.2307 14.7763 18.338 15.3923 18.338Z" fill="#333333"/>
</svg>
