<svg width="24" height="24" viewBox="0 0 24 24" fill="none" xmlns="http://www.w3.org/2000/svg">
<path d="M7.46805 11.38L7.24405 12.22H9.19005L8.98005 11.38C8.84938 10.9227 8.72338 10.4373 8.60205 9.924C8.48071 9.41067 8.35938 8.916 8.23805 8.44H8.18205C8.07005 8.92533 7.95338 9.42467 7.83205 9.938C7.72005 10.442 7.59871 10.9227 7.46805 11.38ZM10.17 16L9.61005 13.83H6.82405L6.26405 16H4.16405L7.02005 6.872H9.49805L12.354 16H10.17ZM15.8154 12.556C16.0861 12.556 16.3101 12.458 16.4874 12.262C16.6741 12.066 16.7674 11.7767 16.7674 11.394C16.7674 11.03 16.6741 10.7547 16.4874 10.568C16.3101 10.372 16.0861 10.274 15.8154 10.274C15.5448 10.274 15.3161 10.3673 15.1294 10.554C14.9521 10.7407 14.8634 11.0207 14.8634 11.394C14.8634 11.7767 14.9521 12.066 15.1294 12.262C15.3161 12.458 15.5448 12.556 15.8154 12.556ZM15.6614 18.954C14.8494 18.954 14.1588 18.814 13.5894 18.534C13.0294 18.254 12.7494 17.806 12.7494 17.19C12.7494 16.63 13.0808 16.1633 13.7434 15.79V15.734C13.5661 15.6127 13.4121 15.4587 13.2814 15.272C13.1601 15.0853 13.0994 14.8473 13.0994 14.558C13.0994 14.306 13.1741 14.0633 13.3234 13.83C13.4728 13.5967 13.6594 13.4053 13.8834 13.256V13.2C13.6408 13.032 13.4214 12.7893 13.2254 12.472C13.0388 12.1547 12.9454 11.7953 12.9454 11.394C12.9454 10.5633 13.2348 9.938 13.8134 9.518C14.4014 9.098 15.0688 8.888 15.8154 8.888C16.2261 8.888 16.5854 8.944 16.8934 9.056H19.4274V10.554H18.3214C18.4708 10.806 18.5454 11.1093 18.5454 11.464C18.5454 12.2667 18.2794 12.8593 17.7474 13.242C17.2248 13.6153 16.5808 13.802 15.8154 13.802C15.5448 13.802 15.2648 13.7553 14.9754 13.662C14.8074 13.802 14.7234 13.9747 14.7234 14.18C14.7234 14.3573 14.8028 14.488 14.9614 14.572C15.1201 14.656 15.3908 14.698 15.7734 14.698H16.8934C17.7521 14.698 18.4054 14.838 18.8534 15.118C19.3108 15.3887 19.5394 15.8367 19.5394 16.462C19.5394 17.1807 19.1894 17.7733 18.4894 18.24C17.7988 18.716 16.8561 18.954 15.6614 18.954ZM15.9834 17.666C16.4408 17.666 16.8188 17.582 17.1174 17.414C17.4254 17.2553 17.5794 17.0547 17.5794 16.812C17.5794 16.5973 17.4861 16.4527 17.2994 16.378C17.1221 16.3033 16.8608 16.266 16.5154 16.266H15.8014C15.3721 16.266 15.0454 16.238 14.8214 16.182C14.5694 16.406 14.4434 16.6347 14.4434 16.868C14.4434 17.1293 14.5834 17.3253 14.8634 17.456C15.1528 17.596 15.5261 17.666 15.9834 17.666Z" fill="#888888"/>
</svg>
