<svg width="24" height="24" viewBox="0 0 24 24" fill="none" xmlns="http://www.w3.org/2000/svg">
<path d="M7.0363 10.568L6.4483 12.29H9.7243L9.1363 10.568C8.94963 10.0267 8.7723 9.504 8.6043 9C8.4363 8.48667 8.27296 7.94533 8.1143 7.376H8.0583C7.89963 7.94533 7.7363 8.48667 7.5683 9C7.4003 9.504 7.22296 10.0267 7.0363 10.568ZM10.9843 16L9.9063 12.836H6.2523L5.1603 16H4.5163L7.7643 6.774H8.4083L11.6563 16H10.9843ZM15.1614 13.368C15.6281 13.368 16.0341 13.1953 16.3794 12.85C16.7248 12.5047 16.8974 12.0473 16.8974 11.478C16.8974 10.9087 16.7248 10.456 16.3794 10.12C16.0434 9.784 15.6374 9.616 15.1614 9.616C14.6854 9.616 14.2748 9.784 13.9294 10.12C13.5841 10.456 13.4114 10.9087 13.4114 11.478C13.4114 12.0473 13.5841 12.5047 13.9294 12.85C14.2841 13.1953 14.6948 13.368 15.1614 13.368ZM15.2594 19.234C14.4101 19.234 13.7381 19.066 13.2434 18.73C12.7488 18.394 12.5014 17.9413 12.5014 17.372C12.5014 16.7747 12.8328 16.2333 13.4954 15.748V15.692C13.3274 15.5987 13.1874 15.4633 13.0754 15.286C12.9634 15.0993 12.9074 14.8753 12.9074 14.614C12.9074 14.3153 12.9914 14.0633 13.1594 13.858C13.3274 13.6433 13.4861 13.4847 13.6354 13.382V13.326C13.4208 13.1487 13.2248 12.8967 13.0474 12.57C12.8794 12.2433 12.7954 11.8793 12.7954 11.478C12.7954 10.7873 13.0241 10.2227 13.4814 9.784C13.9481 9.336 14.5081 9.112 15.1614 9.112C15.3481 9.112 15.5161 9.13067 15.6654 9.168C15.8148 9.20533 15.9408 9.24267 16.0434 9.28H18.3254V9.798H16.7574C16.9721 9.98467 17.1494 10.2273 17.2894 10.526C17.4294 10.8153 17.4994 11.1373 17.4994 11.492C17.4994 12.1827 17.2708 12.752 16.8134 13.2C16.3654 13.6387 15.8148 13.858 15.1614 13.858C14.7321 13.858 14.3588 13.7647 14.0414 13.578C13.8921 13.6993 13.7614 13.8347 13.6494 13.984C13.5468 14.1333 13.4954 14.32 13.4954 14.544C13.4954 14.7867 13.5841 14.9967 13.7614 15.174C13.9388 15.342 14.2794 15.426 14.7834 15.426H16.2254C17.7001 15.426 18.4374 15.9393 18.4374 16.966C18.4374 17.5447 18.1481 18.0673 17.5694 18.534C16.9908 19.0007 16.2208 19.234 15.2594 19.234ZM15.3294 18.73C16.0854 18.73 16.6874 18.5527 17.1354 18.198C17.5834 17.8433 17.8074 17.456 17.8074 17.036C17.8074 16.3547 17.2894 16.014 16.2534 16.014H14.8114C14.7461 16.014 14.6341 16.0093 14.4754 16C14.3168 15.9813 14.1488 15.9487 13.9714 15.902C13.6634 16.1167 13.4394 16.3453 13.2994 16.588C13.1594 16.8307 13.0894 17.0733 13.0894 17.316C13.0894 17.736 13.2854 18.0767 13.6774 18.338C14.0694 18.5993 14.6201 18.73 15.3294 18.73Z" fill="#333333"/>
</svg>
