<svg width="24" height="24" viewBox="0 0 24 24" fill="none" xmlns="http://www.w3.org/2000/svg">
<path d="M13.6432 12.288C13.6539 12.3093 13.6432 12.3253 13.6112 12.336C13.5792 12.336 13.5525 12.3307 13.5312 12.32L13.2432 12.24L13.1152 12.176L12.8112 12.128L12.4272 12.016L12.3312 12L11.7872 11.952L11.6752 12.304C11.6859 12.3467 11.6752 12.4213 11.6432 12.528C11.6219 12.6347 11.6112 12.704 11.6112 12.736L11.5152 12.976L11.4832 13.12C11.4512 13.152 11.4352 13.2107 11.4352 13.296L11.4032 13.584C11.3605 13.7653 11.3339 13.8827 11.3232 13.936L11.3072 14.208C11.2859 14.592 11.3125 14.8853 11.3872 15.088C11.4085 15.248 11.4885 15.392 11.6272 15.52C11.7765 15.6373 11.9259 15.6907 12.0752 15.68C12.2352 15.68 12.3419 15.6427 12.3952 15.568L12.4432 15.616C12.2832 15.872 12.0859 16.0053 11.8512 16.016C11.2325 16.0907 10.8432 15.7813 10.6832 15.088C10.6192 14.928 10.6032 14.608 10.6352 14.128L10.6832 13.792C10.7045 13.6853 10.7312 13.5467 10.7632 13.376C10.7952 13.2053 10.8165 13.0773 10.8272 12.992C10.8379 12.9173 10.8805 12.7467 10.9552 12.48C11.0299 12.2133 11.0779 12.0427 11.0992 11.968L11.0032 11.936H10.8592L10.0592 11.888H9.0352L8.6352 11.872H8.3952C8.38454 11.872 8.35254 11.8773 8.2992 11.888C8.25654 11.8987 8.2192 11.8987 8.1872 11.888C8.1872 11.9093 8.10187 12 7.9312 12.16L7.8992 12.224C7.85654 12.288 7.8032 12.3787 7.7392 12.496C7.6752 12.6027 7.62187 12.6827 7.5792 12.736L7.4672 12.816C7.4672 12.8907 7.41387 12.9707 7.3072 13.056C7.2752 13.088 7.2592 13.1147 7.2592 13.136C7.2272 13.168 7.2112 13.184 7.2112 13.184C7.1472 13.1947 7.10454 13.2533 7.0832 13.36C7.0832 13.3813 7.05654 13.4293 7.0032 13.504C6.92854 13.568 6.88054 13.6373 6.8592 13.712L6.6192 13.952L6.5872 13.968L6.5392 14.064C6.5392 14.128 6.53387 14.1653 6.5232 14.176C6.50187 14.1867 6.46454 14.2347 6.4112 14.32C6.3792 14.384 6.33654 14.4 6.2832 14.368L6.3152 14.464C6.29387 14.5493 6.20854 14.624 6.0592 14.688V14.72C6.0272 14.784 6.00054 14.8693 5.9792 14.976C5.96854 14.9867 5.95254 15.0133 5.9312 15.056C5.90987 15.1093 5.89387 15.1413 5.8832 15.152C5.8192 15.248 5.77654 15.3227 5.7552 15.376L5.7392 15.488L5.6912 15.6L5.4992 15.984C5.4992 16.0267 5.47787 16.1173 5.4352 16.256C5.39254 16.4053 5.3712 16.496 5.3712 16.528L5.3072 16.88L5.2592 17.12C5.24854 17.1413 5.2432 17.168 5.2432 17.2C5.2432 17.2427 5.2432 17.2693 5.2432 17.28C5.2432 17.3013 5.23787 17.3227 5.2272 17.344C5.2272 17.3653 5.2272 17.3813 5.2272 17.392C5.18454 17.3707 5.15787 17.3547 5.1472 17.344C5.07254 17.0667 5.06187 16.7253 5.1152 16.32C5.13654 16.192 5.16854 16.0587 5.2112 15.92C5.25387 15.792 5.3072 15.648 5.3712 15.488C5.4352 15.328 5.47787 15.2107 5.4992 15.136C5.58454 14.9867 5.63787 14.88 5.6592 14.816C5.7872 14.624 5.8672 14.4693 5.8992 14.352L5.9472 14.224L6.0272 14.16C6.03787 14.128 6.04854 14.1013 6.0592 14.08C6.06987 14.0587 6.08054 14.0373 6.0912 14.016C6.10187 14.0053 6.1072 13.9947 6.1072 13.984L6.2352 13.808L6.4272 13.52C6.44854 13.4667 6.50187 13.376 6.5872 13.248L7.0032 12.592C7.02454 12.56 7.0512 12.5227 7.0832 12.48C7.12587 12.4373 7.15787 12.4 7.1792 12.368L7.2592 12.224L7.4672 11.936C7.28587 11.936 7.1632 11.9467 7.0992 11.968H6.7312C6.6672 11.968 6.6032 11.9733 6.5392 11.984C6.48587 11.984 6.42187 11.9893 6.3472 12C6.27254 12.0107 6.21387 12.016 6.1712 12.016C6.1392 12.0053 6.09654 12 6.0432 12C6.00054 12 5.95787 12 5.9152 12C5.86187 11.9787 5.81387 11.904 5.7712 11.776C5.72854 11.6373 5.73387 11.5307 5.7872 11.456C5.87254 11.392 5.94187 11.36 5.9952 11.36C6.14454 11.3387 6.35254 11.328 6.6192 11.328C6.88587 11.328 7.07254 11.3227 7.1792 11.312C7.32854 11.3013 7.52587 11.296 7.7712 11.296L7.8992 11.232C7.95254 11.2427 8.00054 11.216 8.0432 11.152C8.09654 11.088 8.12854 11.0507 8.1392 11.04C8.24587 10.9333 8.30987 10.8587 8.3312 10.816C8.3312 10.7947 8.35254 10.768 8.3952 10.736C8.43787 10.6933 8.46454 10.656 8.4752 10.624L10.0592 8.928C10.1872 8.8 10.4059 8.56 10.7152 8.208C11.0245 7.84533 11.2912 7.568 11.5152 7.376L11.7552 7.232L12.0592 6.896C12.1765 6.74667 12.2885 6.67733 12.3952 6.688C12.4379 6.70933 12.4592 6.704 12.4592 6.672C12.5552 6.608 12.6459 6.58133 12.7312 6.592L12.7952 6.624C12.8272 6.66667 12.9285 6.72 13.0992 6.784C13.1952 6.82667 13.2272 6.90133 13.1952 7.008C13.2059 7.02933 13.2112 7.06133 13.2112 7.104L13.1472 7.264C13.0939 7.38133 13.0779 7.472 13.0992 7.536C13.0992 7.55733 13.1099 7.58933 13.1312 7.632C13.1525 7.67467 13.1579 7.70133 13.1472 7.712C13.1472 7.72267 13.1365 7.74933 13.1152 7.792C13.0939 7.81333 13.0832 7.85067 13.0832 7.904C13.0619 7.97867 13.0352 8.06933 13.0032 8.176C12.9712 8.28267 12.9445 8.368 12.9232 8.432C12.8592 8.63467 12.8219 8.75733 12.8112 8.8C12.7685 8.87467 12.7365 8.96533 12.7152 9.072L12.4912 9.888L12.4272 10.032C12.3739 10.224 12.3152 10.368 12.2512 10.464C12.2512 10.496 12.2352 10.576 12.2032 10.704C12.1819 10.7573 12.1552 10.8267 12.1232 10.912C12.1019 10.9973 12.0859 11.0507 12.0752 11.072C12.0539 11.136 12.0325 11.1787 12.0112 11.2L11.9312 11.44L12.4112 11.536C12.5712 11.5787 12.7899 11.648 13.0672 11.744L13.3072 11.904C13.4245 11.968 13.5259 12.0587 13.6112 12.176C13.6219 12.1867 13.6272 12.1973 13.6272 12.208C13.6272 12.2187 13.6325 12.2453 13.6432 12.288ZM11.2592 11.408L11.4352 10.864C11.4565 10.8107 11.4832 10.7253 11.5152 10.608C11.5472 10.48 11.5685 10.4 11.5792 10.368C11.5899 10.3467 11.6005 10.3147 11.6112 10.272C11.6325 10.2293 11.6485 10.1973 11.6592 10.176L11.7232 9.952L11.8512 9.536L12.0912 8.72C12.2085 8.37867 12.2832 8.176 12.3152 8.112C12.3152 8.05867 12.3792 7.808 12.5072 7.36H12.4272C12.3632 7.44533 12.2139 7.58933 11.9792 7.792C11.9365 7.888 11.8565 7.984 11.7392 8.08C11.6539 8.144 11.5579 8.24533 11.4512 8.384C11.2379 8.55467 11.1045 8.66667 11.0512 8.72C10.9659 8.77333 10.8699 8.88533 10.7632 9.056C10.7525 9.06667 10.7312 9.08267 10.6992 9.104C10.6779 9.12533 10.6565 9.152 10.6352 9.184C10.6139 9.20533 10.5925 9.22667 10.5712 9.248C10.5285 9.312 10.4752 9.36533 10.4112 9.408C10.2832 9.49333 10.1979 9.584 10.1552 9.68C10.1232 9.72267 10.0699 9.776 9.9952 9.84C9.9312 9.89333 9.8832 9.94133 9.8512 9.984C9.76587 10.048 9.71787 10.1013 9.7072 10.144C9.65387 10.176 9.58454 10.2453 9.4992 10.352L9.3552 10.56L8.7472 11.28C8.80054 11.28 8.8752 11.28 8.9712 11.28C9.0672 11.28 9.1312 11.2747 9.1632 11.264C9.20587 11.2747 9.25387 11.2853 9.3072 11.296C9.36054 11.296 9.4192 11.3013 9.4832 11.312C9.55787 11.312 9.6112 11.312 9.6432 11.312C9.68587 11.312 9.74454 11.312 9.8192 11.312C9.90454 11.312 9.96854 11.3067 10.0112 11.296C10.1392 11.328 10.2725 11.3387 10.4112 11.328C10.4539 11.3387 10.5179 11.3493 10.6032 11.36C10.6992 11.36 10.7739 11.36 10.8272 11.36L11.2592 11.408ZM18.5345 15.2C18.5985 15.1893 18.6518 15.2107 18.6945 15.264C18.7478 15.3173 18.7745 15.3707 18.7745 15.424L17.4625 15.792C17.4198 15.8133 17.3931 15.824 17.3825 15.824C17.3078 15.8133 17.2385 15.856 17.1745 15.952C17.1745 15.984 17.1638 16.0107 17.1425 16.032C17.1745 16.0853 17.1958 16.1493 17.2065 16.224L17.0945 16.256C17.0945 16.2667 17.1051 16.304 17.1265 16.368C17.1478 16.432 17.1318 16.4747 17.0785 16.496C17.1425 16.6027 17.1265 16.6773 17.0305 16.72C17.0518 16.816 17.0145 16.8907 16.9185 16.944L16.9825 17.008C16.9611 17.0613 16.9505 17.104 16.9505 17.136C16.9505 17.168 16.9451 17.2053 16.9345 17.248C16.9345 17.2587 16.9291 17.28 16.9185 17.312C16.9185 17.344 16.9185 17.3707 16.9185 17.392V17.44L16.9025 17.568C16.9238 17.664 16.9025 17.7227 16.8385 17.744L16.7585 17.904C16.8118 17.936 16.8438 17.9573 16.8545 17.968C16.8225 18.064 16.7851 18.1973 16.7425 18.368C16.7105 18.528 16.6891 18.624 16.6785 18.656C16.6571 18.6987 16.6358 18.7253 16.6145 18.736V18.752C16.6358 18.8053 16.6358 18.864 16.6145 18.928C16.5611 18.9813 16.5345 19.024 16.5345 19.056C16.4918 19.088 16.4811 19.1147 16.5025 19.136C16.5025 19.2 16.4918 19.248 16.4705 19.28L16.1825 19.904C16.2038 19.936 16.2198 19.952 16.2305 19.952L16.1185 20.032C16.1291 20.0747 16.1345 20.128 16.1345 20.192L16.1185 20.24L16.1345 20.256C16.0598 20.2773 15.9958 20.4053 15.9425 20.64C15.9318 20.672 15.8998 20.7093 15.8465 20.752C15.7931 20.7947 15.7611 20.832 15.7505 20.864L15.7345 20.944C15.7238 21.008 15.6865 21.0187 15.6225 20.976C15.6331 21.0187 15.6598 21.0613 15.7025 21.104C15.7025 21.136 15.6971 21.1573 15.6865 21.168C15.6758 21.1787 15.6491 21.184 15.6065 21.184C15.5638 21.184 15.5371 21.184 15.5265 21.184C15.5691 21.2053 15.6011 21.2267 15.6225 21.248C15.5691 21.2587 15.5318 21.28 15.5105 21.312C15.5318 21.376 15.5051 21.4293 15.4305 21.472C15.3558 21.5147 15.3131 21.5467 15.3025 21.568L15.3985 21.632C15.3558 21.6853 15.3025 21.7653 15.2385 21.872L15.2225 21.856C15.2011 21.8773 15.1638 21.9093 15.1105 21.952C15.0571 21.9947 15.0251 22.0213 15.0145 22.032C15.0145 22.0533 15.0198 22.064 15.0305 22.064H15.0785L15.0945 22.096C15.0411 22.16 14.9611 22.2453 14.8545 22.352C14.7478 22.4587 14.6731 22.5333 14.6305 22.576C14.6305 22.6613 14.5825 22.7413 14.4865 22.816C14.4545 22.848 14.3958 22.896 14.3105 22.96C14.2358 23.024 14.1825 23.0773 14.1505 23.12L14.1185 23.152C14.0971 23.1627 14.0331 23.2 13.9265 23.264C13.8305 23.3387 13.7398 23.376 13.6545 23.376C13.6331 23.3867 13.6118 23.408 13.5905 23.44C13.5585 23.4827 13.5371 23.5093 13.5265 23.52C13.3985 23.5947 13.3078 23.632 13.2545 23.632C13.0838 23.6747 12.8918 23.696 12.6785 23.696C12.6038 23.7173 12.5451 23.7173 12.5025 23.696C12.2038 23.6107 11.9638 23.5147 11.7825 23.408C11.5585 23.312 11.4145 23.168 11.3505 22.976C11.3398 22.9547 11.3185 22.928 11.2865 22.896C11.2545 22.8747 11.2278 22.848 11.2065 22.816C11.0891 22.528 11.0145 22.352 10.9825 22.288L10.9345 22.144C10.9345 22.112 10.9398 22.064 10.9505 22C10.9505 21.9467 10.9558 21.904 10.9665 21.872C11.0091 21.5093 11.0518 21.2373 11.0945 21.056C11.1905 20.64 11.2438 20.416 11.2545 20.384C11.2651 20.3627 11.2811 20.3413 11.3025 20.32L11.3985 19.968L11.5105 19.744C11.6278 19.4987 11.7825 19.2267 11.9745 18.928C12.0278 18.8427 12.1185 18.7147 12.2465 18.544C12.3745 18.3733 12.4598 18.256 12.5025 18.192L12.8865 17.792C13.0358 17.6427 13.1265 17.5573 13.1585 17.536C13.3398 17.3547 13.4465 17.2533 13.4785 17.232L14.2625 16.672C14.4865 16.48 14.7318 16.3307 14.9985 16.224L15.6065 15.888C16.0011 15.728 16.2358 15.6267 16.3105 15.584L16.3745 15.568C16.5451 15.5253 16.6251 15.4187 16.6145 15.248C16.6038 15.2373 16.5985 15.2107 16.5985 15.168C16.6198 15.04 16.6411 14.96 16.6625 14.928C16.6411 14.7787 16.6465 14.64 16.6785 14.512C16.7211 14.384 16.7425 14.3147 16.7425 14.304L16.7585 14.272C16.7798 14.1013 16.8385 13.776 16.9345 13.296C16.9238 13.3067 16.8971 13.312 16.8545 13.312L16.7585 13.296C16.7478 13.296 16.7318 13.312 16.7105 13.344C16.6998 13.3653 16.6891 13.3813 16.6785 13.392C16.6251 13.456 16.5825 13.4987 16.5505 13.52C16.4331 13.68 16.2891 13.824 16.1185 13.952V13.968C16.0225 14 15.9158 14.0427 15.7985 14.096C15.6918 14.1493 15.6118 14.1867 15.5585 14.208C15.3985 14.24 15.3025 14.256 15.2705 14.256C15.1958 14.2773 15.0785 14.2773 14.9185 14.256L14.5185 14.112C14.4971 14.1013 14.4598 14.0533 14.4065 13.968C14.4065 13.904 14.3745 13.8613 14.3105 13.84C14.2358 13.7867 14.1878 13.648 14.1665 13.424C14.1025 13.264 14.1291 13.0133 14.2465 12.672L14.3905 12.384C14.4331 12.2667 14.4865 12.16 14.5505 12.064C14.5611 12.064 14.5665 12.0587 14.5665 12.048C14.6198 12.0053 14.6838 11.9147 14.7585 11.776C14.8438 11.6267 14.9185 11.5253 14.9825 11.472C14.9931 11.4613 15.0571 11.408 15.1745 11.312C15.3025 11.2053 15.3878 11.1467 15.4305 11.136C15.6545 11.0507 15.8358 11.0347 15.9745 11.088C16.0065 11.0987 16.0545 11.104 16.1185 11.104C16.1825 11.104 16.2251 11.104 16.2465 11.104C16.2785 11.136 16.3425 11.168 16.4385 11.2C16.5451 11.232 16.6145 11.2587 16.6465 11.28C16.8171 11.408 16.9451 11.5307 17.0305 11.648L17.1425 11.856C17.1745 11.8347 17.2225 11.7867 17.2865 11.712C17.3505 11.6267 17.3985 11.5733 17.4305 11.552L17.6225 11.6C17.7398 11.6107 17.8678 11.6373 18.0065 11.68L17.9585 11.984C17.9371 12.0267 17.9105 12.0907 17.8785 12.176C17.8571 12.2613 17.8411 12.32 17.8305 12.352C17.8091 12.416 17.7878 12.5013 17.7665 12.608C17.7238 12.7893 17.6705 13.0453 17.6065 13.376C17.5531 13.7067 17.5105 13.9467 17.4785 14.096C17.4678 14.1493 17.4571 14.256 17.4465 14.416C17.4358 14.576 17.4145 14.6987 17.3825 14.784C17.3718 14.8267 17.3665 14.896 17.3665 14.992C17.3665 15.088 17.3558 15.1573 17.3345 15.2C17.3451 15.2533 17.3558 15.28 17.3665 15.28C17.4305 15.28 17.5318 15.2693 17.6705 15.248C17.8091 15.2267 17.9105 15.2107 17.9745 15.2C18.1665 15.1787 18.3531 15.1787 18.5345 15.2ZM16.6625 12.56C16.7051 12.5707 16.7585 12.528 16.8225 12.432L16.6785 12.288C16.6038 12.2133 16.5825 12.128 16.6145 12.032C16.6251 11.9787 16.6145 11.904 16.5825 11.808C16.5505 11.7013 16.5238 11.6373 16.5025 11.616C16.4705 11.5627 16.4225 11.536 16.3585 11.536C16.0491 11.5787 15.8305 11.6693 15.7025 11.808C15.6705 11.84 15.6118 11.888 15.5265 11.952C15.4411 12.016 15.3771 12.0693 15.3345 12.112C15.3238 12.1227 15.3025 12.144 15.2705 12.176C15.2491 12.1973 15.2331 12.2187 15.2225 12.24L15.2385 12.32C15.2171 12.352 15.1745 12.4053 15.1105 12.48C15.0465 12.5547 14.9985 12.6133 14.9665 12.656C14.9345 12.7307 14.8918 12.832 14.8385 12.96C14.7851 13.088 14.7478 13.1733 14.7265 13.216C14.6731 13.408 14.6625 13.5467 14.6945 13.632C14.7051 13.632 14.7318 13.632 14.7745 13.632C14.8171 13.6213 14.8491 13.616 14.8705 13.616C14.9558 13.616 15.1798 13.552 15.5425 13.424L15.9905 13.168H16.0065C16.0705 13.0613 16.1611 12.9813 16.2785 12.928C16.2891 12.928 16.3211 12.9013 16.3745 12.848C16.3851 12.8267 16.4278 12.7947 16.5025 12.752C16.5771 12.6987 16.6198 12.6453 16.6305 12.592C16.6305 12.5707 16.6411 12.56 16.6625 12.56ZM16.3745 16.768C16.3851 16.7253 16.4011 16.6347 16.4225 16.496C16.4545 16.3573 16.4811 16.2507 16.5025 16.176C16.4598 16.1867 16.4011 16.208 16.3265 16.24C16.2518 16.2827 16.1985 16.3093 16.1665 16.32C15.6438 16.5227 15.2705 16.7093 15.0465 16.88C14.9931 16.9227 14.8811 16.992 14.7105 17.088C14.5398 17.1947 14.4118 17.28 14.3265 17.344C14.2838 17.376 14.1931 17.4293 14.0545 17.504C13.9265 17.5893 13.8251 17.664 13.7505 17.728C13.7291 17.76 13.6865 17.8027 13.6225 17.856C13.5585 17.92 13.5158 17.9627 13.4945 17.984C13.4625 18.0053 13.4198 18.032 13.3665 18.064C13.3131 18.1067 13.2758 18.1387 13.2545 18.16C13.1798 18.2347 13.0945 18.336 12.9985 18.464C12.9665 18.496 12.8598 18.5973 12.6785 18.768C12.6678 18.7787 12.6305 18.8267 12.5665 18.912C12.5025 18.9973 12.4438 19.0827 12.3905 19.168C12.3371 19.2533 12.3105 19.312 12.3105 19.344L11.9745 19.84C11.9638 19.84 11.9318 19.8933 11.8785 20C11.8145 20.1067 11.7771 20.1813 11.7665 20.224C11.7131 20.288 11.6811 20.3627 11.6705 20.448C11.6491 20.5013 11.6331 20.576 11.6225 20.672C11.6011 20.768 11.5851 20.8267 11.5745 20.848C11.5745 20.8587 11.5531 20.9493 11.5105 21.12C11.4678 21.2907 11.4411 21.4187 11.4305 21.504C11.4305 21.6 11.4411 21.888 11.4625 22.368C11.4945 22.656 11.6491 22.88 11.9265 23.04L12.0065 23.104L12.0705 23.136C12.3265 23.2213 12.5345 23.232 12.6945 23.168C12.7371 23.1573 12.7958 23.1307 12.8705 23.088C12.9451 23.056 12.9985 23.0347 13.0305 23.024C13.1798 22.9813 13.4091 22.8373 13.7185 22.592C13.7931 22.5387 13.9798 22.3467 14.2785 22.016C14.3745 21.888 14.4971 21.712 14.6465 21.488C14.7958 21.264 14.8865 21.1307 14.9185 21.088C14.9398 21.056 15.1158 20.7253 15.4465 20.096C15.5531 19.8933 15.6491 19.648 15.7345 19.36C15.9478 18.7307 16.0651 18.3573 16.0865 18.24C16.1185 18.1227 16.1558 17.952 16.1985 17.728C16.2411 17.5147 16.2678 17.392 16.2785 17.36C16.3425 17.072 16.3745 16.896 16.3745 16.832V16.768Z" fill="#888888"/>
</svg>
