<svg width="24" height="24" viewBox="0 0 24 24" fill="none" xmlns="http://www.w3.org/2000/svg">
<g clip-path="url(#clip0_201_4753)">
<path d="M3.33915 16.366C3.01248 16.1887 2.70915 15.9833 2.42915 15.75C2.34515 15.694 2.26582 15.6287 2.19115 15.554C2.11648 15.4887 2.02315 15.4 1.91115 15.288C1.80848 15.176 1.74315 15.106 1.71515 15.078C1.44448 14.7327 1.15048 14.434 0.833149 14.182C0.795815 14.2007 0.758482 14.2147 0.721148 14.224C0.693149 14.2427 0.679149 14.2473 0.679149 14.238C0.212482 14.4713 -0.230851 14.6533 -0.650851 14.784C-0.958851 14.8587 -1.29485 14.8633 -1.65885 14.798C-1.81752 14.77 -1.92485 14.672 -1.98085 14.504C-2.01818 14.4293 -2.03218 14.3827 -2.02285 14.364C-2.13485 13.9347 -2.00885 13.5987 -1.64485 13.356C-1.37418 13.2067 -1.19218 13.1273 -1.09885 13.118C-0.538851 13.006 0.0304821 13.1087 0.609149 13.426C0.646483 13.4447 0.697816 13.482 0.763149 13.538C0.837816 13.594 0.898482 13.6313 0.945149 13.65C1.08515 13.594 1.16915 13.5473 1.19715 13.51C1.47715 13.3047 1.84582 13.048 2.30315 12.74C2.76048 12.4227 3.06382 12.208 3.21315 12.096C3.24115 12.096 3.25515 12.0727 3.25515 12.026C3.24582 12.0073 3.23182 11.9793 3.21315 11.942C3.19448 11.8953 3.18515 11.8673 3.18515 11.858C3.00782 11.7273 2.73248 11.5453 2.35915 11.312C1.99515 11.0693 1.72448 10.8827 1.54715 10.752C1.40715 10.612 1.27182 10.5653 1.14115 10.612C0.291815 11.004 -0.534185 11.2653 -1.33685 11.396C-2.16752 11.5453 -2.94218 11.578 -3.66085 11.494C-4.02485 11.4847 -4.41218 11.3727 -4.82285 11.158C-5.11218 11.018 -5.32685 10.7707 -5.46685 10.416C-5.57885 10.0987 -5.51818 9.76267 -5.28485 9.408C-5.12618 9.128 -4.89752 8.92267 -4.59885 8.792C-3.98285 8.47467 -3.36218 8.33 -2.73685 8.358C-2.15818 8.386 -1.51418 8.54467 -0.804851 8.834C-0.272851 9.04867 0.347816 9.40333 1.05715 9.898C1.08515 9.93533 1.14115 9.97733 1.22515 10.024C1.31848 10.0613 1.37915 10.0893 1.40715 10.108C1.63115 10.024 2.06048 9.80933 2.69515 9.464C3.32982 9.11867 3.78248 8.85267 4.05315 8.666C4.05315 8.638 4.04848 8.624 4.03915 8.624C4.02982 8.61467 4.01115 8.61 3.98315 8.61C3.95515 8.60067 3.93182 8.58667 3.91315 8.568C3.31582 8.46533 2.95182 8.39067 2.82115 8.344C2.51315 8.26 2.06048 8.12467 1.46315 7.938C0.753815 7.69533 0.231149 7.49933 -0.104851 7.35C-0.114185 7.34067 -0.132851 7.33133 -0.160851 7.322C-0.179518 7.31267 -0.198184 7.30333 -0.216851 7.294C-0.235518 7.28467 -0.254185 7.27533 -0.272851 7.266C-0.543518 7.126 -0.720851 7.03267 -0.804851 6.986C-1.31818 6.65933 -1.63085 6.44 -1.74285 6.328L-1.88285 6.188C-2.02285 6.01067 -2.13952 5.84733 -2.23285 5.698C-2.24218 5.68867 -2.23752 5.642 -2.21885 5.558L-2.02285 5.376L-1.85485 5.474L-1.71485 5.684C-1.65885 5.77733 -1.61218 5.84267 -1.57485 5.88C-1.50952 5.936 -1.45352 5.992 -1.40685 6.048C-1.35085 6.09467 -1.30885 6.132 -1.28085 6.16C-1.10352 6.31867 -0.870185 6.49133 -0.580851 6.678C-0.366185 6.818 -0.123518 6.944 0.147148 7.056L0.651149 7.252C0.753816 7.29867 0.889149 7.35467 1.05715 7.42C1.23448 7.476 1.34182 7.50867 1.37915 7.518C1.78048 7.63933 2.56448 7.84467 3.73115 8.134C4.02982 8.19 4.26315 8.22267 4.43115 8.232C4.55248 8.29733 4.68315 8.26933 4.82315 8.148C4.95382 8.07333 5.15915 7.97533 5.43915 7.854C5.72848 7.73267 5.94782 7.62067 6.09715 7.518C7.22648 6.80867 7.93582 6.37933 8.22515 6.23C9.10248 5.79133 9.91915 5.45067 10.6751 5.208C11.3845 5.02133 11.9678 4.93733 12.4251 4.956C12.4531 4.956 12.5045 4.956 12.5791 4.956C12.6631 4.94667 12.7285 4.94667 12.7751 4.956C13.5311 4.9 14.2125 5.05867 14.8191 5.432C14.8845 5.46 14.9731 5.52533 15.0851 5.628C15.2065 5.72133 15.2858 5.77733 15.3231 5.796C15.5938 6.048 15.7058 6.37467 15.6591 6.776C15.6125 7.168 15.3931 7.50867 15.0011 7.798C14.6465 8.06867 14.2265 8.288 13.7411 8.456C13.1065 8.66133 12.4158 8.80133 11.6691 8.876C11.2865 8.932 10.6751 8.988 9.83515 9.044C8.64048 9.09067 7.64648 9.07667 6.85315 9.002C6.65715 8.99267 6.44715 8.97867 6.22315 8.96C6.00848 8.932 5.77048 8.904 5.50915 8.876C5.24782 8.83867 5.03782 8.81067 4.87915 8.792C4.72048 8.792 4.61315 8.81067 4.55715 8.848C4.14648 9.072 3.84315 9.24467 3.64715 9.366C2.99382 9.73933 2.62048 9.94933 2.52715 9.996C2.46182 10.0333 2.35915 10.0847 2.21915 10.15C2.08848 10.206 1.99515 10.248 1.93915 10.276C1.92982 10.276 1.91582 10.2807 1.89715 10.29C1.88782 10.2993 1.87382 10.3087 1.85515 10.318C1.84582 10.3273 1.83182 10.3367 1.81315 10.346C1.82248 10.374 1.83648 10.4067 1.85515 10.444C1.88315 10.472 1.89715 10.4907 1.89715 10.5C2.16782 10.724 2.50848 10.9853 2.91915 11.284C3.32982 11.5733 3.60515 11.7507 3.74515 11.816C3.80115 11.788 3.88515 11.732 3.99715 11.648C4.11848 11.5547 4.20715 11.494 4.26315 11.466C4.91648 11.0647 5.49515 10.7893 5.99915 10.64C6.42848 10.5 6.89048 10.4207 7.38515 10.402C7.43182 10.3927 7.49248 10.3927 7.56715 10.402C7.64182 10.402 7.69315 10.3973 7.72115 10.388C8.01982 10.3507 8.43982 10.4393 8.98115 10.654C8.99982 10.654 9.01848 10.6587 9.03715 10.668C9.05582 10.6773 9.07448 10.682 9.09315 10.682C9.24248 10.8313 9.35448 10.9527 9.42915 11.046C9.51315 11.1393 9.59248 11.27 9.66715 11.438C9.74182 11.5967 9.77915 11.7647 9.77915 11.942C9.77915 12.2873 9.64382 12.558 9.37315 12.754C9.22382 12.8847 8.99048 13.006 8.67315 13.118C8.09448 13.2393 7.55782 13.2953 7.06315 13.286L6.22315 13.244C6.10182 13.2347 5.91982 13.1927 5.67715 13.118C5.64915 13.1087 5.60248 13.0947 5.53715 13.076C5.48115 13.0573 5.43448 13.0433 5.39715 13.034C5.35048 13.034 5.29915 13.0247 5.24315 13.006C5.18715 12.978 5.14982 12.964 5.13115 12.964C5.06582 12.908 4.94915 12.852 4.78115 12.796C4.61315 12.7307 4.49648 12.6747 4.43115 12.628C4.22582 12.488 4.00182 12.3713 3.75915 12.278C3.74982 12.2407 3.72182 12.222 3.67515 12.222C3.65648 12.2313 3.62848 12.2453 3.59115 12.264C3.55382 12.2827 3.51648 12.306 3.47915 12.334L1.42115 13.818C1.33715 13.846 1.27182 13.8927 1.22515 13.958C1.28115 14.042 1.32315 14.098 1.35115 14.126L2.10715 14.952C2.73248 15.596 3.29715 16.0067 3.80115 16.184C4.02515 16.2587 4.28182 16.296 4.57115 16.296L4.54315 16.324L4.75315 16.394C4.74382 16.4033 4.72515 16.4173 4.69715 16.436C4.66915 16.4547 4.64115 16.4687 4.61315 16.478C4.39848 16.5527 4.16515 16.5713 3.91315 16.534C3.67048 16.4967 3.47915 16.4407 3.33915 16.366ZM9.56915 8.596C10.7825 8.55867 11.7671 8.46533 12.5231 8.316C13.0458 8.204 13.4845 8.078 13.8391 7.938C14.2591 7.77 14.5951 7.56933 14.8471 7.336C15.2391 6.96267 15.2858 6.594 14.9871 6.23C14.8285 5.95933 14.6138 5.77267 14.3431 5.67C13.8858 5.43667 13.4798 5.32467 13.1251 5.334C12.9198 5.35267 12.6211 5.37133 12.2291 5.39C11.4638 5.46467 10.7451 5.63267 10.0731 5.894C9.20515 6.22067 8.48182 6.538 7.90315 6.846C7.48315 7.098 7.11915 7.32667 6.81115 7.532C6.66182 7.60667 6.46115 7.728 6.20915 7.896C5.95715 8.05467 5.77048 8.16667 5.64915 8.232L5.42515 8.4C5.48115 8.4 5.55115 8.414 5.63515 8.442C5.71915 8.46067 5.77982 8.47 5.81715 8.47C5.87315 8.47 5.99448 8.47933 6.18115 8.498C6.36782 8.51667 6.51715 8.526 6.62915 8.526C7.04915 8.554 7.46448 8.568 7.87515 8.568C8.11782 8.58667 8.68248 8.596 9.56915 8.596ZM-3.39485 11.102C-2.74152 11.1487 -2.14885 11.1067 -1.61685 10.976C-0.888851 10.864 -0.179518 10.6587 0.511149 10.36C0.567149 10.3507 0.627815 10.3133 0.693149 10.248C0.674482 10.1827 0.641816 10.1453 0.595148 10.136C-0.244851 9.548 -1.06618 9.13733 -1.86885 8.904C-2.29818 8.82 -2.66218 8.78267 -2.96085 8.792C-3.59552 8.83867 -4.11352 9.03933 -4.51485 9.394C-4.55218 9.43133 -4.59885 9.464 -4.65485 9.492C-4.96285 9.76267 -5.02352 10.0613 -4.83685 10.388C-4.76218 10.5187 -4.63618 10.6447 -4.45885 10.766C-4.17885 10.9247 -3.82418 11.0367 -3.39485 11.102ZM7.32915 12.824C7.74915 12.824 8.08515 12.7913 8.33715 12.726C8.69182 12.5953 8.90182 12.5113 8.96715 12.474C9.15382 12.3527 9.26582 12.1893 9.30315 11.984C9.34048 11.872 9.32182 11.6993 9.24715 11.466C9.06982 11.158 8.87382 10.976 8.65915 10.92C8.55648 10.8827 8.40248 10.8547 8.19715 10.836C7.99182 10.808 7.86115 10.7893 7.80515 10.78C7.71182 10.7893 7.58115 10.7987 7.41315 10.808C7.24515 10.8173 7.09115 10.8313 6.95115 10.85C6.81115 10.8593 6.68048 10.878 6.55915 10.906C5.83115 11.1207 5.11715 11.452 4.41715 11.9C4.37982 11.9 4.35182 11.9233 4.33315 11.97C4.33315 12.0167 4.34248 12.04 4.36115 12.04C4.39848 12.0773 4.43115 12.096 4.45915 12.096C5.35515 12.6653 6.31182 12.908 7.32915 12.824ZM-1.33685 14.42C-1.06618 14.4387 -0.851518 14.4293 -0.692851 14.392C-0.394185 14.3173 -0.0115179 14.1633 0.455149 13.93L0.581149 13.832C0.562482 13.8227 0.534482 13.8087 0.497149 13.79C0.459815 13.762 0.436482 13.7433 0.427149 13.734C0.147149 13.5567 -0.118851 13.454 -0.370851 13.426C-0.818851 13.3513 -1.20618 13.482 -1.53285 13.818C-1.66352 13.9767 -1.67752 14.1307 -1.57485 14.28C-1.50952 14.3453 -1.43018 14.392 -1.33685 14.42ZM24.0573 14.182C23.8146 14.1913 23.4506 14.1587 22.9653 14.084C22.5266 14.0187 22.032 13.902 21.4813 13.734C21.3226 13.6967 21.0846 13.65 20.7673 13.594C20.6833 13.5753 20.5573 13.5567 20.3893 13.538C19.9693 13.5007 19.6286 13.5333 19.3673 13.636C19.3486 13.6453 19.2553 13.6733 19.0873 13.72C18.9473 13.7667 18.8026 13.734 18.6533 13.622L18.4713 13.426C18.7326 12.8193 19.0966 12.2967 19.5633 11.858C20.0393 11.3913 20.5946 11.1533 21.2293 11.144C21.528 11.144 21.864 11.1673 22.2373 11.214C22.5733 11.2513 23.0586 11.3727 23.6933 11.578C24.0853 11.718 24.524 11.8253 25.0093 11.9L25.4993 11.97C25.938 12.0353 26.4373 12.012 26.9973 11.9C27.1093 11.8813 27.1886 11.858 27.2353 11.83C27.282 11.802 27.3846 11.76 27.5433 11.704C27.702 11.6387 27.814 11.5733 27.8793 11.508C27.9166 11.4707 27.9773 11.424 28.0613 11.368C28.1453 11.312 28.192 11.2793 28.2013 11.27L28.5093 10.99C28.5466 11.0367 28.5373 11.0787 28.4813 11.116C28.3226 11.284 28.1733 11.5033 28.0333 11.774C27.9586 11.9513 27.8 12.1333 27.5573 12.32C27.352 12.4693 27.212 12.6233 27.1373 12.782C27.1 12.866 26.9833 12.992 26.7873 13.16C26.5446 13.384 26.218 13.622 25.8073 13.874C25.4526 14.0607 25.056 14.1633 24.6173 14.182H24.0573ZM19.0873 12.95L19.4093 12.796C19.764 12.628 20.044 12.53 20.2493 12.502C20.744 12.418 21.234 12.404 21.7193 12.46C21.9246 12.4787 22.242 12.5113 22.6713 12.558C23.11 12.5953 23.4413 12.6233 23.6653 12.642C24.16 12.6887 24.65 12.7167 25.1353 12.726C25.7793 12.7447 26.372 12.6 26.9133 12.292C26.9226 12.292 26.946 12.2593 26.9833 12.194C26.61 12.2127 26.3486 12.222 26.1993 12.222C25.7513 12.2407 25.3313 12.222 24.9393 12.166C24.37 12.082 23.7306 11.9373 23.0213 11.732C22.5173 11.5827 22.0786 11.5033 21.7053 11.494C21.22 11.4753 20.8513 11.5173 20.5993 11.62C20.282 11.732 20.0533 11.8393 19.9133 11.942C19.624 12.1567 19.3673 12.4413 19.1433 12.796C19.1246 12.8333 19.106 12.8847 19.0873 12.95ZM24.4073 13.832C24.9393 13.804 25.3873 13.6687 25.7513 13.426L26.0593 13.216C26.0686 13.2067 26.1153 13.174 26.1993 13.118C26.2833 13.0527 26.344 12.9967 26.3813 12.95C26.344 12.9313 26.2506 12.936 26.1013 12.964C25.9893 12.9733 25.8213 12.9967 25.5973 13.034C25.336 13.0527 25.0186 13.0387 24.6453 12.992C24.58 12.992 24.4866 12.992 24.3653 12.992C24.244 12.992 24.1553 12.992 24.0993 12.992C23.7913 12.9547 23.292 12.908 22.6013 12.852C21.9013 12.768 21.2993 12.7447 20.7953 12.782C20.5713 12.7913 20.3473 12.8333 20.1233 12.908C19.946 12.964 19.764 13.0433 19.5773 13.146C19.6426 13.146 19.7406 13.1507 19.8713 13.16C20.0113 13.16 20.1093 13.1647 20.1653 13.174C20.66 13.1833 21.1686 13.272 21.6913 13.44C22.5966 13.7387 23.502 13.8693 24.4073 13.832Z" fill="#333333"/>
</g>
<defs>
<clipPath id="clip0_201_4753">
<rect width="24" height="24" fill="white"/>
</clipPath>
</defs>
</svg>
