<svg width="24" height="24" viewBox="0 0 24 24" fill="none" xmlns="http://www.w3.org/2000/svg">
<path d="M18.382 6.13C18.256 5.64 17.78 5.388 17.304 5.318C16.772 5.248 16.184 5.374 15.68 5.626C15.162 5.878 14.686 6.256 14.252 6.648C13.776 7.096 13.328 7.6 12.922 8.09C12.432 8.678 11.956 9.294 11.522 9.938C10.864 9.91 10.164 10.022 9.53398 10.26C8.39998 10.638 7.26598 11.212 6.27198 11.926C5.36198 12.598 4.54998 13.452 4.01798 14.516C3.61198 15.356 3.42998 16.714 4.47998 17.204C4.95598 17.442 5.54398 17.344 6.03398 17.134C6.59398 16.924 7.04198 16.518 7.47598 16.112C8.39998 15.216 9.08598 14.11 9.74398 13.032C10.346 12.066 10.962 11.072 11.634 10.12C11.76 10.134 11.914 10.162 12.04 10.19C12.586 10.288 13.132 10.554 13.524 10.96C12.978 11.954 12.516 12.962 12.096 13.998C11.844 14.656 11.606 15.328 11.424 16C11.396 16.112 11.564 16.14 11.592 16.042C11.802 15.468 11.984 14.88 12.222 14.292C12.446 13.732 12.684 13.158 12.922 12.612C13.174 12.122 13.398 11.618 13.65 11.156C13.93 11.52 14.098 11.996 14.07 12.458C14.07 12.724 14.014 12.976 13.888 13.214C13.818 13.312 13.986 13.424 14.056 13.298C14.182 13.06 14.266 12.836 14.28 12.542C14.294 12.29 14.266 11.996 14.182 11.73C14.084 11.45 13.944 11.198 13.762 10.96C14.056 10.414 14.35 9.882 14.686 9.35C14.868 9.07 15.05 8.776 15.246 8.482C15.33 8.342 15.414 8.188 15.512 8.062C15.61 7.908 15.694 7.74 15.792 7.6C15.806 7.6 15.778 7.572 15.764 7.6C15.652 7.684 15.568 7.796 15.456 7.936C15.358 8.048 15.274 8.16 15.204 8.272C14.994 8.524 14.826 8.79 14.658 9.056C14.308 9.588 14 10.106 13.692 10.638C13.664 10.694 13.622 10.75 13.594 10.792C13.482 10.666 13.328 10.54 13.202 10.442C12.74 10.162 12.25 9.994 11.746 9.952C11.83 9.854 11.9 9.742 11.956 9.658C12.376 9.098 12.782 8.552 13.244 8.034C13.65 7.53 14.098 7.026 14.588 6.592C15.036 6.186 15.568 5.836 16.128 5.626C16.646 5.43 17.276 5.346 17.808 5.626C18.032 5.724 18.242 5.906 18.34 6.144C18.354 6.172 18.396 6.158 18.382 6.13ZM10.584 11.31C9.91198 12.36 9.26798 13.48 8.52598 14.516C8.16198 15.02 7.76998 15.51 7.32198 15.958C6.91598 16.336 6.45398 16.728 5.92198 16.966C5.44598 17.162 4.85798 17.246 4.42398 16.966C3.96198 16.658 3.83598 16.154 3.87798 15.636C3.91998 15.118 4.14398 14.614 4.40998 14.18C4.68998 13.69 5.06798 13.242 5.45998 12.864C6.28598 12.038 7.27998 11.422 8.32998 10.932C9.28198 10.512 10.318 10.078 11.382 10.106C11.116 10.512 10.864 10.89 10.584 11.31ZM17.4333 12.486C17.4053 12.528 17.3633 12.57 17.3353 12.626C17.1673 12.57 17.0133 12.528 16.8453 12.542C16.6353 12.57 16.4393 12.668 16.2573 12.766C15.8233 13.018 15.4593 13.382 15.1513 13.788C15.0393 13.956 14.8993 14.152 14.9133 14.362C14.9273 14.558 15.1093 14.684 15.3053 14.656C15.5293 14.614 15.7533 14.446 15.9493 14.32C16.1453 14.18 16.3273 14.026 16.5093 13.872C16.6073 13.788 16.7053 13.704 16.8033 13.606C16.5373 14.138 16.3273 14.684 16.0893 15.216C15.8793 15.734 15.6553 16.238 15.4313 16.728C14.9553 16.7 14.4653 16.742 13.9893 16.826C13.1213 16.98 12.2953 17.316 11.5393 17.778C10.7693 18.24 10.0833 18.814 9.50926 19.5C8.89326 20.228 8.34726 21.124 8.31926 22.104C8.31926 22.552 8.45926 23 8.89326 23.168C9.27126 23.322 9.70526 23.252 10.0833 23.14C10.8253 22.916 11.4973 22.524 12.0853 22.02C13.3173 20.998 14.2133 19.584 14.9553 18.17C15.1513 17.778 15.3473 17.386 15.5433 16.994C15.6833 16.994 15.8233 17.008 15.9633 17.022C16.1733 17.036 16.3693 17.05 16.5793 17.078C16.6353 17.078 16.6353 17.008 16.5933 16.98C16.2853 16.868 15.9633 16.784 15.6413 16.756C15.7533 16.532 15.8513 16.308 15.9493 16.084C16.3693 15.146 16.7193 14.18 17.1953 13.27C17.3213 13.032 17.4613 12.808 17.6153 12.584C17.6853 12.472 17.5033 12.374 17.4333 12.486ZM15.1233 17.358C14.4373 18.758 13.6533 20.144 12.5753 21.264C12.0713 21.796 11.4833 22.272 10.8253 22.608C10.5033 22.776 10.1393 22.916 9.78926 23C9.42526 23.07 8.93526 23.084 8.69726 22.748C8.55726 22.552 8.54326 22.3 8.54326 22.076C8.55726 21.838 8.59926 21.6 8.66926 21.376C8.80926 20.928 9.03326 20.508 9.31326 20.116C9.81726 19.402 10.4613 18.786 11.1753 18.296C11.8753 17.806 12.6593 17.428 13.4853 17.204C13.8913 17.092 14.2973 17.022 14.7173 16.994C14.9133 16.98 15.1093 16.98 15.3053 16.98C15.2493 17.106 15.1933 17.232 15.1233 17.358ZM15.6693 14.264C15.5573 14.334 15.2353 14.586 15.1233 14.418C15.0253 14.278 15.1933 14.04 15.2773 13.928C15.5293 13.564 15.8373 13.242 16.2013 13.004C16.3833 12.878 16.5653 12.752 16.7753 12.696C16.9433 12.64 17.1253 12.668 17.2933 12.696C16.8593 13.326 16.2993 13.858 15.6693 14.264Z" fill="#888888"/>
</svg>
