<svg width="24" height="24" viewBox="0 0 24 24" fill="none" xmlns="http://www.w3.org/2000/svg">
<path d="M12.9023 13.8926L12.8066 15.1914L10.0312 15.123L9.96289 13.7969L10.8105 13.8242L10.4551 11.8281L8.65039 11.9102L8.36328 13.6875L9.15625 13.7559L9.04688 14.9863H6.27148L6.20312 13.6602L7.05078 13.6875L8.54102 6.38672L7.84375 6.41406L7.77539 5.25195L11.2617 5.18359L11.1934 6.27734L10.5098 6.30469L12.0547 13.8242L12.9023 13.8926ZM10.2637 10.7617L9.52539 6.56445L8.8418 10.7617H10.2637ZM18.0088 7.76758L16.9424 8.71094C17.0335 8.95247 17.0951 9.21908 17.127 9.51074C17.1589 9.79785 17.1748 10.069 17.1748 10.3242C17.1748 10.6615 17.1338 10.9736 17.0518 11.2607C16.9743 11.5433 16.8512 11.7939 16.6826 12.0127C16.5186 12.2269 16.3066 12.4023 16.0469 12.5391C15.7917 12.6758 15.4886 12.7624 15.1377 12.7988C15.1012 12.8216 15.0602 12.849 15.0146 12.8809C14.9736 12.9128 14.9349 12.9492 14.8984 12.9902C14.862 13.0267 14.8301 13.0677 14.8027 13.1133C14.7799 13.1589 14.7686 13.2044 14.7686 13.25C14.7686 13.291 14.7822 13.3411 14.8096 13.4004C14.8369 13.4551 14.8688 13.5098 14.9053 13.5645C14.9417 13.6191 14.9782 13.6715 15.0146 13.7217C15.0557 13.7718 15.0876 13.8105 15.1104 13.8379C15.4157 13.8379 15.7165 13.8675 16.0127 13.9268C16.3135 13.986 16.5801 14.0885 16.8125 14.2344C17.0495 14.3757 17.2386 14.5648 17.3799 14.8018C17.5257 15.0387 17.5986 15.3372 17.5986 15.6973C17.5986 16.0026 17.5257 16.2806 17.3799 16.5312C17.2386 16.7865 17.0518 17.0052 16.8193 17.1875C16.5915 17.3743 16.334 17.5179 16.0469 17.6182C15.7598 17.723 15.4749 17.7754 15.1924 17.7754C14.8962 17.7754 14.6204 17.7298 14.3652 17.6387C14.1146 17.5521 13.8958 17.4245 13.709 17.2559C13.5267 17.0918 13.3831 16.889 13.2783 16.6475C13.1781 16.4105 13.1279 16.1393 13.1279 15.834C13.1279 15.4967 13.1963 15.1823 13.333 14.8906C13.4743 14.5944 13.6885 14.3529 13.9756 14.166C13.8936 14.0339 13.8206 13.8949 13.7568 13.749C13.693 13.6032 13.6611 13.4551 13.6611 13.3047C13.6611 13.1452 13.7021 12.9902 13.7842 12.8398C13.8662 12.6895 13.9756 12.5755 14.1123 12.498C13.9574 12.3841 13.8229 12.2383 13.709 12.0605C13.5996 11.8828 13.5062 11.6937 13.4287 11.4932C13.3558 11.2881 13.3011 11.0807 13.2646 10.8711C13.2282 10.6569 13.21 10.4564 13.21 10.2695C13.21 9.90495 13.251 9.57227 13.333 9.27148C13.415 8.96615 13.5426 8.7041 13.7158 8.48535C13.889 8.2666 14.11 8.09798 14.3789 7.97949C14.6523 7.85645 14.9782 7.79492 15.3564 7.79492C15.4567 7.79492 15.5456 7.79948 15.623 7.80859C15.7051 7.81771 15.7826 7.83366 15.8555 7.85645C15.9284 7.87467 16.0013 7.89974 16.0742 7.93164C16.1471 7.95898 16.2269 7.99544 16.3135 8.04102L17.1748 6.94727L18.0088 7.76758ZM16.04 10.2422C16.04 10.1146 16.0241 9.97559 15.9922 9.8252C15.9648 9.67025 15.917 9.52897 15.8486 9.40137C15.7803 9.26921 15.6914 9.15983 15.582 9.07324C15.4727 8.98665 15.3382 8.94336 15.1787 8.94336C14.9919 8.94336 14.8438 8.9821 14.7344 9.05957C14.625 9.13249 14.5407 9.23047 14.4814 9.35352C14.4268 9.47201 14.3903 9.60645 14.3721 9.75684C14.3538 9.90723 14.3447 10.0553 14.3447 10.2012C14.3447 10.3242 14.3561 10.4701 14.3789 10.6387C14.4062 10.8073 14.4495 10.9691 14.5088 11.124C14.5726 11.279 14.6569 11.4111 14.7617 11.5205C14.8711 11.6253 15.0101 11.6777 15.1787 11.6777C15.3382 11.6777 15.4727 11.6276 15.582 11.5273C15.6914 11.4225 15.7803 11.2972 15.8486 11.1514C15.917 11.001 15.9648 10.8438 15.9922 10.6797C16.0241 10.5156 16.04 10.3698 16.04 10.2422ZM16.5049 15.6699C16.5049 15.5104 16.4616 15.376 16.375 15.2666C16.2884 15.1572 16.179 15.0684 16.0469 15C15.9193 14.9316 15.778 14.8838 15.623 14.8564C15.4727 14.8245 15.3337 14.8086 15.2061 14.8086C14.9053 14.8086 14.6797 14.902 14.5293 15.0889C14.3789 15.2803 14.3037 15.5195 14.3037 15.8066C14.3037 15.9525 14.3402 16.0755 14.4131 16.1758C14.486 16.276 14.5771 16.3558 14.6865 16.415C14.7959 16.4788 14.9167 16.5244 15.0488 16.5518C15.1855 16.5837 15.3154 16.5996 15.4385 16.5996C15.5661 16.5996 15.6937 16.5768 15.8213 16.5312C15.9489 16.4902 16.0628 16.4287 16.1631 16.3467C16.2679 16.2646 16.3499 16.1667 16.4092 16.0527C16.473 15.9388 16.5049 15.8112 16.5049 15.6699Z" fill="#333333"/>
</svg>
