<svg width="24" height="24" viewBox="0 0 24 24" fill="none" xmlns="http://www.w3.org/2000/svg">
<path d="M11.166 18L10.0449 14.9922H5.71777L4.62402 18H3.65332L7.46777 7.94434H8.34277L12.1367 18H11.166ZM7.8916 8.94922H7.86426C7.83691 9.09961 7.79818 9.25 7.74805 9.40039C7.70247 9.54622 7.12598 11.1436 6.01855 14.1924H9.75098L8.09668 9.67383C8.00553 9.42773 7.93717 9.1862 7.8916 8.94922ZM19.499 17.4531C19.499 18.793 19.1982 19.7819 18.5967 20.4199C17.9951 21.0579 17.0654 21.377 15.8076 21.377C15.0465 21.377 14.3105 21.1992 13.5996 20.8438V19.9893C14.3743 20.4222 15.1104 20.6387 15.8076 20.6387C17.7126 20.6387 18.665 19.6338 18.665 17.624V16.7422H18.6377C18.0771 17.6992 17.2295 18.1777 16.0947 18.1777C15.1924 18.1777 14.4678 17.8542 13.9209 17.207C13.374 16.5553 13.1006 15.6781 13.1006 14.5752C13.1006 13.3994 13.4014 12.4515 14.0029 11.7314C14.6045 11.0114 15.402 10.6514 16.3955 10.6514C17.4209 10.6514 18.1683 11.0684 18.6377 11.9023H18.665V10.8154H19.499V17.4531ZM18.665 13.625C18.665 13.2194 18.5693 12.8434 18.3779 12.4971C18.1911 12.1507 17.9268 11.8773 17.585 11.6768C17.2477 11.4762 16.874 11.376 16.4639 11.376C15.7074 11.376 15.1012 11.6562 14.6455 12.2168C14.1943 12.7773 13.9688 13.543 13.9688 14.5137C13.9688 15.4069 14.1761 16.1201 14.5908 16.6533C15.0055 17.182 15.5638 17.4463 16.2656 17.4463C16.9857 17.4463 17.5645 17.2048 18.002 16.7217C18.444 16.234 18.665 15.6302 18.665 14.9102V13.625Z" fill="#333333"/>
</svg>
