<svg width="24" height="24" viewBox="0 0 24 24" fill="none" xmlns="http://www.w3.org/2000/svg">
<path d="M12.2188 18H10.9951L9.90137 15.1426H5.58789L4.56934 18H3.33887L7.20801 7.9375H8.3291L12.2188 18ZM9.52539 14.1309L7.91895 9.7832C7.8597 9.6237 7.80957 9.40267 7.76855 9.12012H7.73438C7.68424 9.43457 7.62956 9.6556 7.57031 9.7832L5.97754 14.1309H9.52539ZM19.6357 17.4326C19.6357 20.0667 18.3893 21.3838 15.8965 21.3838C15.0215 21.3838 14.2445 21.2129 13.5654 20.8711V19.7637C14.3675 20.2148 15.1423 20.4404 15.8896 20.4404C17.6715 20.4404 18.5625 19.4857 18.5625 17.5762V16.7764H18.5352C17.9701 17.7061 17.1429 18.1709 16.0537 18.1709C15.165 18.1709 14.4473 17.8496 13.9004 17.207C13.3535 16.5645 13.0801 15.71 13.0801 14.6436C13.0801 13.4176 13.3763 12.4469 13.9688 11.7314C14.5612 11.0114 15.3587 10.6514 16.3613 10.6514C17.3366 10.6514 18.0612 11.0433 18.5352 11.8271H18.5625V10.8154H19.6357V17.4326ZM18.5625 13.6729C18.5625 13.0895 18.362 12.5928 17.9609 12.1826C17.5599 11.7725 17.0723 11.5674 16.498 11.5674C15.778 11.5674 15.2106 11.834 14.7959 12.3672C14.3857 12.8958 14.1807 13.6273 14.1807 14.5615C14.1807 15.3727 14.3789 16.0244 14.7754 16.5166C15.1764 17.0042 15.696 17.248 16.334 17.248C16.9811 17.248 17.5143 17.0133 17.9336 16.5439C18.3529 16.0745 18.5625 15.4821 18.5625 14.7666V13.6729Z" fill="#333333"/>
</svg>
