<svg width="24" height="24" viewBox="0 0 24 24" fill="none" xmlns="http://www.w3.org/2000/svg">
<path d="M11.6689 13.906C11.6689 14.13 11.6176 14.3213 11.5149 14.48C11.4123 14.6293 11.2723 14.704 11.0949 14.704H10.9969L11.2069 16.356L11.2209 16.496C11.2209 16.692 11.1369 16.8507 10.9689 16.972C10.8103 17.084 10.6236 17.14 10.4089 17.14C10.2409 17.14 10.0963 17.1027 9.97492 17.028C9.85359 16.9627 9.78826 16.8693 9.77892 16.748L9.55492 14.69L5.97092 14.676L4.96292 16.692C4.82292 16.9813 4.57559 17.126 4.22092 17.126C3.99692 17.126 3.81492 17.07 3.67492 16.958C3.53492 16.846 3.47892 16.7107 3.50692 16.552C3.50692 16.4867 3.53026 16.4167 3.57692 16.342L5.32692 12.898C6.63359 10.3313 7.34759 8.92667 7.46892 8.684C7.77692 8.068 8.03359 7.64333 8.23892 7.41C8.45359 7.16733 8.72426 7.046 9.05092 7.046C9.35892 7.046 9.60626 7.16267 9.79292 7.396C9.98892 7.62 10.1243 8.00267 10.1989 8.544C10.4043 9.90667 10.6143 11.5167 10.8289 13.374H11.1089C11.2863 13.374 11.4216 13.4207 11.5149 13.514C11.6176 13.6073 11.6689 13.738 11.6689 13.906ZM9.41492 13.36L9.05092 10.042C9.00426 9.64067 8.96226 9.36067 8.92492 9.202C8.89692 9.04333 8.85959 8.964 8.81292 8.964C8.76626 8.964 8.70559 9.02467 8.63092 9.146C8.56559 9.258 8.48626 9.412 8.39292 9.608C8.30892 9.79467 8.24826 9.92533 8.21092 10C7.82826 10.7747 7.48292 11.5027 7.17492 12.184L6.62892 13.332L9.41492 13.36ZM19.8636 9.58C20.0316 9.58 20.1856 9.622 20.3256 9.706C20.475 9.79 20.5496 9.902 20.5496 10.042C20.5496 10.098 20.5356 10.1633 20.5076 10.238C20.3676 10.5087 20.2183 10.826 20.0596 11.19L19.9896 13.248C19.971 13.556 19.9523 14.0087 19.9336 14.606C19.9056 15.6047 19.845 16.468 19.7516 17.196C19.5836 18.316 19.1543 19.1467 18.4636 19.688C17.7823 20.2293 16.9003 20.5 15.8176 20.5C15.3136 20.5 14.861 20.4067 14.4596 20.22C14.0583 20.0427 13.741 19.7953 13.5076 19.478C13.2836 19.1607 13.1716 18.806 13.1716 18.414C13.1716 18.1433 13.2276 17.9427 13.3396 17.812C13.461 17.6813 13.6523 17.616 13.9136 17.616C14.2216 17.616 14.3756 17.7513 14.3756 18.022C14.3756 18.4327 14.5063 18.7547 14.7676 18.988C15.029 19.2307 15.3836 19.352 15.8316 19.352C16.5503 19.352 17.1196 19.1933 17.5396 18.876C17.9596 18.568 18.2396 18.0127 18.3796 17.21C18.417 17.0047 18.4543 16.6407 18.4916 16.118C18.2303 16.3793 17.9083 16.5893 17.5256 16.748C17.143 16.9067 16.7183 16.986 16.2516 16.986C15.6636 16.986 15.1503 16.8507 14.7116 16.58C14.273 16.3093 13.937 15.9453 13.7036 15.488C13.4703 15.0307 13.3536 14.5313 13.3536 13.99C13.3536 13.262 13.5263 12.59 13.8716 11.974C14.217 11.3487 14.693 10.854 15.2996 10.49C15.9063 10.1167 16.5736 9.93 17.3016 9.93C17.703 9.93 18.0483 9.986 18.3376 10.098C18.6363 10.21 18.865 10.3453 19.0236 10.504C19.1916 10.168 19.313 9.93933 19.3876 9.818C19.481 9.65933 19.6396 9.58 19.8636 9.58ZM16.4756 15.81C16.8863 15.81 17.3063 15.6933 17.7356 15.46C18.1743 15.2173 18.4543 14.9607 18.5756 14.69L18.6596 11.834C18.6036 11.6567 18.445 11.4887 18.1836 11.33C17.9223 11.1713 17.6143 11.092 17.2596 11.092C16.8023 11.092 16.3776 11.232 15.9856 11.512C15.603 11.792 15.2996 12.156 15.0756 12.604C14.8516 13.052 14.7396 13.5233 14.7396 14.018C14.7396 14.5407 14.8843 14.97 15.1736 15.306C15.463 15.642 15.897 15.81 16.4756 15.81Z" fill="#888888"/>
</svg>
