<svg width="24" height="24" viewBox="0 0 24 24" fill="none" xmlns="http://www.w3.org/2000/svg">
<path d="M11.4621 16.846C11.4808 16.8833 11.4901 16.9207 11.4901 16.958C11.4901 17.014 11.4621 17.056 11.4061 17.084C11.3501 17.1213 11.2941 17.14 11.2381 17.14C11.1634 17.14 11.1074 17.098 11.0701 17.014L10.2581 14.354L5.61009 14.326L4.74209 16.944C4.72343 17 4.70009 17.0373 4.67209 17.056C4.64409 17.084 4.60209 17.098 4.54609 17.098C4.48076 17.098 4.42943 17.0793 4.39209 17.042C4.35476 17.014 4.33609 16.9767 4.33609 16.93L4.35009 16.846C5.28343 14.0647 5.91343 12.1747 6.24009 11.176L7.10809 8.586C7.29476 8.03533 7.45343 7.64333 7.58409 7.41C7.72409 7.17667 7.87809 7.06 8.04609 7.06C8.34476 7.06 8.62943 7.522 8.90009 8.446C9.06809 9.02467 9.24076 9.61267 9.41809 10.21C9.60476 10.798 9.79143 11.4 9.97809 12.016L10.5801 13.962H11.0141C11.0701 13.962 11.1121 13.9807 11.1401 14.018C11.1774 14.0553 11.1961 14.102 11.1961 14.158C11.1961 14.214 11.1774 14.2607 11.1401 14.298C11.1121 14.3353 11.0654 14.354 11.0001 14.354H10.7061L11.4621 16.846ZM10.1321 13.948C9.40409 11.5307 8.86743 9.71533 8.52209 8.502C8.43809 8.194 8.34476 7.942 8.24209 7.746C8.14876 7.55 8.07409 7.452 8.01809 7.452C7.93409 7.452 7.77076 7.816 7.52809 8.544L5.75009 13.906L10.1321 13.948ZM19.3001 15.418C19.3748 15.9407 19.4308 16.3467 19.4681 16.636C19.5055 16.9253 19.5241 17.1587 19.5241 17.336C19.5241 17.952 19.3888 18.498 19.1181 18.974C18.8568 19.4593 18.4788 19.8327 17.9841 20.094C17.4988 20.3647 16.9341 20.5 16.2901 20.5C15.8235 20.5 15.3801 20.3973 14.9601 20.192C14.5495 19.9867 14.2181 19.7113 13.9661 19.366C13.7141 19.03 13.5881 18.6707 13.5881 18.288C13.5881 18.232 13.6068 18.1853 13.6441 18.148C13.6908 18.12 13.7468 18.106 13.8121 18.106C13.8681 18.106 13.9148 18.1247 13.9521 18.162C13.9895 18.2087 14.0081 18.2553 14.0081 18.302C14.0081 18.6007 14.1155 18.8853 14.3301 19.156C14.5448 19.4267 14.8248 19.646 15.1701 19.814C15.5248 19.982 15.8981 20.066 16.2901 20.066C16.8781 20.066 17.3821 19.94 17.8021 19.688C18.2315 19.4453 18.5535 19.114 18.7681 18.694C18.9828 18.2833 19.0901 17.8307 19.0901 17.336C19.0901 17.0747 19.0668 16.762 19.0201 16.398C18.9828 16.034 18.9361 15.7213 18.8801 15.46C18.6281 15.88 18.2688 16.2207 17.8021 16.482C17.3448 16.734 16.8081 16.86 16.1921 16.86C15.4641 16.86 14.8528 16.692 14.3581 16.356C13.8635 16.02 13.4948 15.5907 13.2521 15.068C13.0095 14.536 12.8881 13.9853 12.8881 13.416C12.8881 12.828 13.0141 12.2633 13.2661 11.722C13.5275 11.1807 13.9008 10.742 14.3861 10.406C14.8715 10.0607 15.4455 9.888 16.1081 9.888C16.6028 9.888 17.0368 9.972 17.4101 10.14C17.7835 10.308 18.0635 10.4947 18.2501 10.7L18.3621 10.28C18.4555 9.944 18.5115 9.762 18.5301 9.734C18.5768 9.63133 18.6421 9.58 18.7261 9.58C18.7821 9.58 18.8335 9.594 18.8801 9.622C18.9361 9.65 18.9641 9.68733 18.9641 9.734L18.9501 9.874C18.9315 9.97667 18.8988 10.1213 18.8521 10.308C18.8055 10.4853 18.7681 10.6207 18.7401 10.714L18.6421 11.064C18.7635 11.6987 18.9128 12.6367 19.0901 13.878L19.1881 14.606L19.3001 15.418ZM16.1921 16.426C16.7801 16.426 17.2935 16.286 17.7321 16.006C18.1801 15.726 18.5255 15.3107 18.7681 14.76C18.6468 13.8267 18.4975 12.8513 18.3201 11.834L18.2501 11.414C18.0915 11.0873 17.8068 10.826 17.3961 10.63C16.9855 10.4247 16.5561 10.322 16.1081 10.322C15.5855 10.322 15.1095 10.4667 14.6801 10.756C14.2601 11.036 13.9288 11.414 13.6861 11.89C13.4435 12.366 13.3221 12.8747 13.3221 13.416C13.3221 13.9293 13.4295 14.4147 13.6441 14.872C13.8588 15.3293 14.1808 15.7027 14.6101 15.992C15.0488 16.2813 15.5761 16.426 16.1921 16.426Z" fill="#888888"/>
</svg>
