<svg width="24" height="24" viewBox="0 0 24 24" fill="none" xmlns="http://www.w3.org/2000/svg">
<path d="M11.4512 14.696C11.4512 15.0227 11.3906 15.2887 11.2692 15.494C11.1572 15.6993 11.0079 15.802 10.8212 15.802H10.7372L10.9052 17.034C10.9146 17.0713 10.9192 17.118 10.9192 17.174C10.9192 17.4633 10.8119 17.7013 10.5972 17.888C10.3919 18.0653 10.1306 18.154 9.81322 18.154C9.56122 18.154 9.33722 18.1027 9.14122 18C8.95455 17.8973 8.85189 17.7527 8.83322 17.566L8.66522 15.788L5.85122 15.76L5.02522 17.524C4.82922 17.9347 4.47922 18.14 3.97522 18.14C3.65789 18.14 3.37322 18.0653 3.12122 17.916C2.87855 17.7573 2.78055 17.552 2.82722 17.3C2.84589 17.1787 2.87389 17.0853 2.91122 17.02C4.15255 14.6213 5.37989 12.2087 6.59322 9.782C6.82655 9.32467 7.02255 8.97467 7.18122 8.732C7.34922 8.48933 7.53122 8.312 7.72722 8.2C7.93255 8.088 8.17989 8.032 8.46922 8.032C8.88922 8.032 9.22055 8.158 9.46322 8.41C9.70589 8.65267 9.86922 9.068 9.95322 9.656C10.1119 10.7667 10.2846 12.0733 10.4712 13.576L10.5132 13.982H10.6112C11.1712 13.982 11.4512 14.22 11.4512 14.696ZM8.48322 13.954C8.48322 13.9913 8.45055 13.604 8.38522 12.792L8.32922 12.064C8.29189 11.6347 8.25922 11.35 8.23122 11.21C8.20322 11.0607 8.16589 10.986 8.11922 10.986C8.08189 10.986 8.03522 11.0327 7.97922 11.126C7.93255 11.2193 7.87655 11.3407 7.81122 11.49L7.60122 11.966L6.69122 13.94L8.48322 13.954ZM19.2109 10.594C19.4536 10.594 19.6776 10.6547 19.8829 10.776C20.0976 10.888 20.2049 11.0467 20.2049 11.252C20.2049 11.3547 20.1816 11.448 20.1349 11.532C19.9389 11.9147 19.8129 12.162 19.7569 12.274C19.7009 13.814 19.6543 14.92 19.6169 15.592L19.5749 16.208C19.5656 16.3387 19.5469 16.5953 19.5189 16.978C19.5003 17.3607 19.4629 17.6967 19.4069 17.986C19.1829 19.2273 18.7303 20.1233 18.0489 20.674C17.3769 21.2247 16.4809 21.5 15.3609 21.5C14.8196 21.5 14.3343 21.4113 13.9049 21.234C13.4756 21.0567 13.1396 20.8093 12.8969 20.492C12.6636 20.1747 12.5469 19.8153 12.5469 19.414C12.5469 19.0313 12.6309 18.7467 12.7989 18.56C12.9669 18.3827 13.2236 18.294 13.5689 18.294C13.8116 18.294 13.9889 18.336 14.1009 18.42C14.2223 18.504 14.2829 18.6393 14.2829 18.826C14.2829 19.526 14.6469 19.876 15.3749 19.876C15.7669 19.876 16.0889 19.834 16.3409 19.75C16.6023 19.666 16.8216 19.484 16.9989 19.204C17.1856 18.924 17.3256 18.504 17.4189 17.944C17.4376 17.832 17.4563 17.6873 17.4749 17.51C17.2416 17.678 16.9709 17.8133 16.6629 17.916C16.3549 18.0093 16.0236 18.056 15.6689 18.056C15.0996 18.056 14.5909 17.9253 14.1429 17.664C13.6949 17.3933 13.3449 17.0247 13.0929 16.558C12.8503 16.082 12.7289 15.5453 12.7289 14.948C12.7289 14.2387 12.9063 13.576 13.2609 12.96C13.6156 12.344 14.1009 11.854 14.7169 11.49C15.3329 11.126 16.0143 10.944 16.7609 10.944C17.4609 10.944 17.9696 11.1027 18.2869 11.42C18.3896 11.2053 18.4923 11.0187 18.5949 10.86C18.6603 10.7573 18.7349 10.6873 18.8189 10.65C18.9029 10.6127 19.0336 10.594 19.2109 10.594ZM14.7589 15.032C14.7589 15.4707 14.8663 15.83 15.0809 16.11C15.2956 16.39 15.6176 16.53 16.0469 16.53C16.3643 16.53 16.6863 16.4553 17.0129 16.306C17.3489 16.1567 17.5683 15.984 17.6709 15.788C17.6709 15.2467 17.6756 14.836 17.6849 14.556L17.6989 13.002C17.6243 12.8527 17.5076 12.7313 17.3489 12.638C17.1903 12.5447 16.9989 12.498 16.7749 12.498C16.4016 12.498 16.0609 12.624 15.7529 12.876C15.4449 13.1187 15.2023 13.436 15.0249 13.828C14.8476 14.22 14.7589 14.6213 14.7589 15.032Z" fill="#333333"/>
</svg>
