<svg width="24" height="24" viewBox="0 0 24 24" fill="none" xmlns="http://www.w3.org/2000/svg">
<path d="M11.5348 14.004C11.5348 14.1813 11.4881 14.3353 11.3948 14.466C11.3014 14.5967 11.1661 14.662 10.9888 14.662H10.8908L11.1148 16.524L11.1288 16.65C11.1288 16.7993 11.0588 16.916 10.9188 17C10.7788 17.0933 10.6248 17.14 10.4568 17.14C10.3354 17.14 10.2281 17.112 10.1348 17.056C10.0508 17 10.0041 16.9253 9.99477 16.832L9.74277 14.662L5.78077 14.634C5.33277 15.53 4.96877 16.244 4.68877 16.776C4.57677 17.0093 4.38077 17.126 4.10077 17.126C3.92344 17.126 3.78811 17.0793 3.69477 16.986C3.60144 16.8833 3.56877 16.7807 3.59677 16.678C3.59677 16.6407 3.61544 16.5847 3.65277 16.51L6.01877 11.834C6.49477 10.9193 7.04077 9.85067 7.65677 8.628C7.96477 8.03067 8.20744 7.62 8.38477 7.396C8.57144 7.16267 8.80477 7.046 9.08477 7.046C9.34611 7.046 9.55611 7.158 9.71477 7.382C9.88277 7.606 10.0041 7.97467 10.0788 8.488C10.3121 10.084 10.5361 11.778 10.7508 13.57H11.1008C11.2408 13.57 11.3481 13.612 11.4228 13.696C11.4974 13.7707 11.5348 13.8733 11.5348 14.004ZM9.63077 13.556L9.15477 9.524C9.10811 9.15067 9.06611 8.88 9.02877 8.712C8.99144 8.544 8.94944 8.46 8.90277 8.46C8.85611 8.46 8.78611 8.53467 8.69277 8.684C8.60877 8.83333 8.46877 9.10867 8.27277 9.51L7.60077 10.896C7.18077 11.7827 6.75611 12.6553 6.32677 13.514L9.63077 13.556ZM19.9401 9.58C20.0615 9.58 20.1781 9.61267 20.2901 9.678C20.4115 9.74333 20.4721 9.82733 20.4721 9.93C20.4721 9.986 20.4581 10.042 20.4301 10.098C20.3555 10.2473 20.1968 10.5973 19.9541 11.148L19.8981 12.884C19.8608 13.7053 19.8421 14.2793 19.8421 14.606C19.8421 15.474 19.7815 16.3747 19.6601 17.308C19.5201 18.3627 19.1048 19.156 18.4141 19.688C17.7235 20.2293 16.8508 20.5 15.7961 20.5C15.3108 20.5 14.8721 20.4067 14.4801 20.22C14.0881 20.0427 13.7801 19.7953 13.5561 19.478C13.3321 19.1607 13.2201 18.806 13.2201 18.414C13.2201 18.1993 13.2668 18.0407 13.3601 17.938C13.4628 17.8353 13.6215 17.784 13.8361 17.784C14.0601 17.784 14.1721 17.896 14.1721 18.12C14.1721 18.5587 14.3215 18.9133 14.6201 19.184C14.9188 19.4547 15.3108 19.59 15.7961 19.59C16.5801 19.59 17.2055 19.4127 17.6721 19.058C18.1481 18.7127 18.4561 18.1433 18.5961 17.35C18.6521 17.014 18.6988 16.5333 18.7361 15.908C18.4561 16.2253 18.1061 16.4773 17.6861 16.664C17.2755 16.8507 16.8088 16.944 16.2861 16.944C15.6888 16.944 15.1708 16.8087 14.7321 16.538C14.3028 16.2673 13.9761 15.908 13.7521 15.46C13.5281 15.012 13.4161 14.5313 13.4161 14.018C13.4161 13.2807 13.5888 12.5993 13.9341 11.974C14.2795 11.3487 14.7461 10.8493 15.3341 10.476C15.9315 10.1027 16.5895 9.916 17.3081 9.916C17.7375 9.916 18.1061 9.98133 18.4141 10.112C18.7315 10.2333 18.9695 10.3827 19.1281 10.56C19.3428 10.14 19.4735 9.88333 19.5201 9.79C19.5948 9.65 19.7348 9.58 19.9401 9.58ZM16.4401 15.95C16.7388 15.95 17.0515 15.8847 17.3781 15.754C17.7141 15.614 18.0081 15.4413 18.2601 15.236C18.5215 15.0307 18.6941 14.83 18.7781 14.634L18.8201 13.234C18.8388 12.5807 18.8575 12.086 18.8761 11.75C18.8481 11.6287 18.7595 11.5027 18.6101 11.372C18.4608 11.232 18.2648 11.1153 18.0221 11.022C17.7795 10.9287 17.5181 10.882 17.2381 10.882C16.7341 10.882 16.2721 11.0313 15.8521 11.33C15.4321 11.6193 15.0961 12.0067 14.8441 12.492C14.6015 12.9773 14.4801 13.486 14.4801 14.018C14.4801 14.578 14.6435 15.04 14.9701 15.404C15.2968 15.768 15.7868 15.95 16.4401 15.95Z" fill="#888888"/>
</svg>
