<svg width="24" height="24" viewBox="0 0 24 24" fill="none" xmlns="http://www.w3.org/2000/svg">
<path d="M11.2611 16.202C11.2891 16.286 11.3031 16.3607 11.3031 16.426C11.3031 16.6593 11.2051 16.8413 11.0091 16.972C10.8224 17.0933 10.5984 17.154 10.3371 17.154C10.1317 17.154 9.9544 17.112 9.80507 17.028C9.65574 16.944 9.55774 16.818 9.51107 16.65L8.97907 14.718L5.74507 14.704C5.67974 14.928 5.6144 15.1427 5.54907 15.348C5.49307 15.544 5.44174 15.726 5.39507 15.894L5.18507 16.608C5.12907 16.7853 5.0264 16.916 4.87707 17C4.73707 17.0933 4.56907 17.14 4.37307 17.14C4.11174 17.14 3.88307 17.0747 3.68707 16.944C3.5004 16.8133 3.40707 16.6407 3.40707 16.426C3.40707 16.3793 3.4164 16.3 3.43507 16.188C3.43507 16.188 4.09774 14.2 5.42307 10.224L5.91307 8.726C6.10907 8.11933 6.32374 7.68533 6.55707 7.424C6.7904 7.16267 7.09374 7.032 7.46707 7.032C7.83107 7.032 8.1204 7.14867 8.33507 7.382C8.54974 7.61533 8.7504 8.02133 8.93707 8.6C9.3384 9.81333 9.80974 11.3393 10.3511 13.178H10.7431C10.9391 13.178 11.0931 13.2433 11.2051 13.374C11.3171 13.5047 11.3731 13.696 11.3731 13.948C11.3731 14.4707 11.2097 14.732 10.8831 14.732H10.8131L11.2611 16.202ZM8.54507 13.15C8.26507 12.1047 8.0224 11.2367 7.81707 10.546C7.7984 10.4807 7.77974 10.4247 7.76107 10.378C7.7424 10.3313 7.7284 10.2847 7.71907 10.238C7.6444 9.97667 7.58374 9.78533 7.53707 9.664C7.4904 9.54267 7.44374 9.482 7.39707 9.482C7.3504 9.482 7.30374 9.54267 7.25707 9.664C7.2104 9.78533 7.16374 9.93467 7.11707 10.112C7.0704 10.2987 7.03774 10.42 7.01907 10.476L6.22107 13.136L8.54507 13.15ZM19.6934 14.592C19.7588 15.0773 19.8148 15.53 19.8614 15.95C19.9081 16.3607 19.9314 16.706 19.9314 16.986C19.9314 17.6487 19.7868 18.246 19.4974 18.778C19.2081 19.3193 18.7974 19.7393 18.2654 20.038C17.7428 20.346 17.1361 20.5 16.4454 20.5C15.9041 20.5 15.4048 20.3973 14.9474 20.192C14.4994 19.9867 14.1401 19.7067 13.8694 19.352C13.6081 19.0067 13.4774 18.6287 13.4774 18.218C13.4774 17.994 13.5428 17.8307 13.6734 17.728C13.8041 17.6253 14.0048 17.574 14.2754 17.574C14.6394 17.574 14.8494 17.728 14.9054 18.036C15.0454 18.7547 15.5448 19.114 16.4034 19.114C16.9914 19.114 17.4441 18.932 17.7614 18.568C18.0788 18.2133 18.2374 17.672 18.2374 16.944C18.2374 16.748 18.2234 16.538 18.1954 16.314C17.9808 16.5193 17.7008 16.6873 17.3554 16.818C17.0101 16.9487 16.6228 17.014 16.1934 17.014C15.5308 17.014 14.9428 16.86 14.4294 16.552C13.9161 16.2347 13.5194 15.81 13.2394 15.278C12.9594 14.7367 12.8194 14.144 12.8194 13.5C12.8194 12.8373 12.9594 12.2353 13.2394 11.694C13.5288 11.1433 13.9301 10.714 14.4434 10.406C14.9568 10.0887 15.5448 9.93 16.2074 9.93C16.8794 9.93 17.4068 10.0933 17.7894 10.42C17.8548 10.2333 17.9341 10.0607 18.0274 9.902C18.1301 9.69667 18.3168 9.594 18.5874 9.594C18.8021 9.594 19.0074 9.65467 19.2034 9.776C19.3994 9.888 19.5021 10.0373 19.5114 10.224C19.5114 10.2427 19.5021 10.2987 19.4834 10.392C19.4274 10.5413 19.3388 10.8213 19.2174 11.232C19.3948 12.408 19.5534 13.528 19.6934 14.592ZM16.3614 15.67C16.7254 15.67 17.0708 15.5767 17.3974 15.39C17.7241 15.2033 17.9248 14.9933 17.9994 14.76C17.8874 13.8173 17.7521 12.87 17.5934 11.918C17.5094 11.7593 17.3508 11.6147 17.1174 11.484C16.8934 11.3533 16.6368 11.288 16.3474 11.288C15.8154 11.288 15.3768 11.5027 15.0314 11.932C14.6861 12.3613 14.5134 12.8933 14.5134 13.528C14.5134 14.1253 14.6721 14.634 14.9894 15.054C15.3068 15.4647 15.7641 15.67 16.3614 15.67Z" fill="#888888"/>
</svg>
