<svg width="24" height="24" viewBox="0 0 24 24" fill="none" xmlns="http://www.w3.org/2000/svg">
<path d="M11.2611 17.202C11.2891 17.286 11.3031 17.3607 11.3031 17.426C11.3031 17.6593 11.2051 17.8413 11.0091 17.972C10.8224 18.0933 10.5984 18.154 10.3371 18.154C10.1317 18.154 9.9544 18.112 9.80507 18.028C9.65574 17.944 9.55774 17.818 9.51107 17.65L8.97907 15.718L5.74507 15.704C5.67974 15.928 5.6144 16.1427 5.54907 16.348C5.49307 16.544 5.44174 16.726 5.39507 16.894L5.18507 17.608C5.12907 17.7853 5.0264 17.916 4.87707 18C4.73707 18.0933 4.56907 18.14 4.37307 18.14C4.11174 18.14 3.88307 18.0747 3.68707 17.944C3.5004 17.8133 3.40707 17.6407 3.40707 17.426C3.40707 17.3793 3.4164 17.3 3.43507 17.188C3.43507 17.188 4.09774 15.2 5.42307 11.224L5.91307 9.726C6.10907 9.11933 6.32374 8.68533 6.55707 8.424C6.7904 8.16267 7.09374 8.032 7.46707 8.032C7.83107 8.032 8.1204 8.14867 8.33507 8.382C8.54974 8.61533 8.7504 9.02133 8.93707 9.6C9.3384 10.8133 9.80974 12.3393 10.3511 14.178H10.7431C10.9391 14.178 11.0931 14.2433 11.2051 14.374C11.3171 14.5047 11.3731 14.696 11.3731 14.948C11.3731 15.4707 11.2097 15.732 10.8831 15.732H10.8131L11.2611 17.202ZM8.54507 14.15C8.26507 13.1047 8.0224 12.2367 7.81707 11.546C7.7984 11.4807 7.77974 11.4247 7.76107 11.378C7.7424 11.3313 7.7284 11.2847 7.71907 11.238C7.6444 10.9767 7.58374 10.7853 7.53707 10.664C7.4904 10.5427 7.44374 10.482 7.39707 10.482C7.3504 10.482 7.30374 10.5427 7.25707 10.664C7.2104 10.7853 7.16374 10.9347 7.11707 11.112C7.0704 11.2987 7.03774 11.42 7.01907 11.476L6.22107 14.136L8.54507 14.15ZM19.6934 15.592C19.7588 16.0773 19.8148 16.53 19.8614 16.95C19.9081 17.3607 19.9314 17.706 19.9314 17.986C19.9314 18.6487 19.7868 19.246 19.4974 19.778C19.2081 20.3193 18.7974 20.7393 18.2654 21.038C17.7428 21.346 17.1361 21.5 16.4454 21.5C15.9041 21.5 15.4048 21.3973 14.9474 21.192C14.4994 20.9867 14.1401 20.7067 13.8694 20.352C13.6081 20.0067 13.4774 19.6287 13.4774 19.218C13.4774 18.994 13.5428 18.8307 13.6734 18.728C13.8041 18.6253 14.0048 18.574 14.2754 18.574C14.6394 18.574 14.8494 18.728 14.9054 19.036C15.0454 19.7547 15.5448 20.114 16.4034 20.114C16.9914 20.114 17.4441 19.932 17.7614 19.568C18.0788 19.2133 18.2374 18.672 18.2374 17.944C18.2374 17.748 18.2234 17.538 18.1954 17.314C17.9808 17.5193 17.7008 17.6873 17.3554 17.818C17.0101 17.9487 16.6228 18.014 16.1934 18.014C15.5308 18.014 14.9428 17.86 14.4294 17.552C13.9161 17.2347 13.5194 16.81 13.2394 16.278C12.9594 15.7367 12.8194 15.144 12.8194 14.5C12.8194 13.8373 12.9594 13.2353 13.2394 12.694C13.5288 12.1433 13.9301 11.714 14.4434 11.406C14.9568 11.0887 15.5448 10.93 16.2074 10.93C16.8794 10.93 17.4068 11.0933 17.7894 11.42C17.8548 11.2333 17.9341 11.0607 18.0274 10.902C18.1301 10.6967 18.3168 10.594 18.5874 10.594C18.8021 10.594 19.0074 10.6547 19.2034 10.776C19.3994 10.888 19.5021 11.0373 19.5114 11.224C19.5114 11.2427 19.5021 11.2987 19.4834 11.392C19.4274 11.5413 19.3388 11.8213 19.2174 12.232C19.3948 13.408 19.5534 14.528 19.6934 15.592ZM16.3614 16.67C16.7254 16.67 17.0708 16.5767 17.3974 16.39C17.7241 16.2033 17.9248 15.9933 17.9994 15.76C17.8874 14.8173 17.7521 13.87 17.5934 12.918C17.5094 12.7593 17.3508 12.6147 17.1174 12.484C16.8934 12.3533 16.6368 12.288 16.3474 12.288C15.8154 12.288 15.3768 12.5027 15.0314 12.932C14.6861 13.3613 14.5134 13.8933 14.5134 14.528C14.5134 15.1253 14.6721 15.634 14.9894 16.054C15.3068 16.4647 15.7641 16.67 16.3614 16.67Z" fill="#333333"/>
</svg>
