<svg width="24" height="24" viewBox="0 0 24 24" fill="none" xmlns="http://www.w3.org/2000/svg">
<path d="M12.4216 16.2557C12.4453 16.3384 12.4571 16.4152 12.4571 16.4861C12.4571 16.5451 12.4335 16.6101 12.3862 16.681C12.3508 16.7519 12.3035 16.811 12.2444 16.8582C12.1263 16.9527 11.9963 17 11.8546 17C11.571 17 11.382 16.8819 11.2875 16.6456L10.4191 14.4481H5.58114L4.71279 16.6456C4.63009 16.8819 4.46469 17 4.21658 17C3.95667 17 3.77355 16.8937 3.66722 16.681C3.63177 16.6101 3.61405 16.5451 3.61405 16.4861C3.61405 16.4152 3.62587 16.3384 3.6495 16.2557L6.89253 8.31646C7.11701 7.70211 7.38874 7.35949 7.70772 7.28861C7.80224 7.26498 7.90857 7.25316 8.02671 7.25316C8.27481 7.25316 8.45793 7.30042 8.57608 7.39494C8.80055 7.59578 8.98958 7.90295 9.14317 8.31646L12.4216 16.2557ZM5.93557 13.5266H10.0824L8.00899 8.26329L5.93557 13.5266ZM16.5717 10.9215C15.2367 10.9215 14.5692 11.8135 14.5692 13.5975C14.5692 14.4481 14.7759 15.1097 15.1894 15.5823C15.5439 16.0076 16.0046 16.2203 16.5717 16.2203C17.1506 16.2203 17.6409 15.9958 18.0426 15.5468C18.4797 15.0743 18.6983 14.4363 18.6983 13.6329C18.6983 12.416 18.3261 11.589 17.5818 11.1519C17.3101 10.9983 16.9734 10.9215 16.5717 10.9215ZM16.2882 10.0709C17.4341 10.0709 18.2552 10.5257 18.7514 11.4354V10.6911C18.7633 10.5376 18.8164 10.4253 18.9109 10.3544C19.0173 10.2717 19.1354 10.2304 19.2654 10.2304C19.3953 10.2304 19.5135 10.2717 19.6198 10.3544C19.7261 10.4371 19.7793 10.5612 19.7793 10.7266V17.1418C19.7793 18.5122 19.1472 19.3688 17.8831 19.7114C17.4932 19.8177 17.0974 19.8709 16.6958 19.8709C16.2941 19.8709 15.9692 19.8473 15.7211 19.8C15.473 19.7646 15.2485 19.7114 15.0477 19.6405C14.646 19.4869 14.3388 19.2861 14.1261 19.038C14.0316 18.9435 13.9844 18.843 13.9844 18.7367C13.9844 18.6304 14.0198 18.5359 14.0907 18.4532C14.1734 18.3823 14.262 18.3468 14.3565 18.3468C14.451 18.3468 14.5455 18.3646 14.6401 18.4C14.77 18.4709 14.8941 18.5418 15.0122 18.6127C15.1422 18.6835 15.2839 18.7485 15.4375 18.8076C15.7447 18.9139 16.0814 18.9671 16.4477 18.9671C16.8257 18.9671 17.1447 18.9376 17.4046 18.8785C17.6763 18.8194 17.9067 18.7249 18.0958 18.5949C18.4974 18.3114 18.6983 17.8565 18.6983 17.2304V15.6709C18.3557 16.3207 17.8122 16.7401 17.0679 16.9291C16.8434 16.9764 16.619 17 16.3945 17C15.3903 17 14.6223 16.6633 14.0907 15.9899C13.6181 15.3873 13.3818 14.6076 13.3818 13.6506C13.3818 12.0321 13.9194 10.9392 14.9945 10.3722C15.3607 10.1713 15.792 10.0709 16.2882 10.0709Z" fill="#333333"/>
</svg>
