<svg width="24" height="24" viewBox="0 0 24 24" fill="none" xmlns="http://www.w3.org/2000/svg">
<path d="M7.41211 4.76465C7.45768 4.65983 7.53743 4.60742 7.65137 4.60742C7.7653 4.60742 7.84277 4.65755 7.88379 4.75781L11.7939 13.7061C11.8076 13.7334 11.8145 13.7699 11.8145 13.8154C11.8145 13.984 11.7301 14.0684 11.5615 14.0684C11.443 14.0684 11.3633 14.016 11.3223 13.9111L9.9209 10.7051L5.40918 10.6572L3.98047 13.9248C3.93945 14.0296 3.86198 14.082 3.74805 14.082C3.67513 14.082 3.61361 14.057 3.56348 14.0068C3.51335 13.9613 3.48828 13.902 3.48828 13.8291C3.48828 13.7881 3.49512 13.7539 3.50879 13.7266L7.41211 4.76465ZM7.65137 5.50293L5.62793 10.1445L9.69531 10.1855L7.65137 5.50293ZM15.7656 7.06836C16.1849 7.06836 16.5882 7.16178 16.9756 7.34863C17.3675 7.53092 17.707 7.7679 17.9941 8.05957C18.2812 8.34668 18.484 8.65202 18.6025 8.97559L18.6162 7.30762C18.6162 7.2347 18.639 7.17318 18.6846 7.12305C18.7347 7.07292 18.7962 7.04785 18.8691 7.04785C19.0423 7.04785 19.1289 7.13672 19.1289 7.31445L19.0742 14.0342C19.0697 14.5036 18.9694 14.9456 18.7734 15.3604C18.5775 15.7751 18.3086 16.1419 17.9668 16.4609C17.6296 16.7799 17.2422 17.0306 16.8047 17.2129C16.3672 17.3952 15.9023 17.4863 15.4102 17.4863C14.8587 17.4863 14.3278 17.3633 13.8174 17.1172C13.307 16.8711 12.8786 16.5316 12.5322 16.0986C12.4912 16.0485 12.4707 15.9938 12.4707 15.9346C12.4707 15.8617 12.4958 15.8001 12.5459 15.75C12.596 15.7044 12.6576 15.6816 12.7305 15.6816C12.8216 15.6816 12.89 15.7135 12.9355 15.7773C13.2318 16.1465 13.6009 16.4382 14.043 16.6523C14.485 16.8665 14.9408 16.9736 15.4102 16.9736C15.9753 16.9736 16.4948 16.8369 16.9688 16.5635C17.4473 16.29 17.8301 15.9277 18.1172 15.4766C18.4089 15.0299 18.557 14.54 18.5615 14.0068L18.5752 12.4824C18.3109 12.9518 17.9235 13.3506 17.4131 13.6787C16.9072 14.0068 16.3535 14.1709 15.752 14.1709C15.1276 14.1709 14.5648 14.0068 14.0635 13.6787C13.5667 13.346 13.1725 12.9108 12.8809 12.373C12.5892 11.8307 12.4434 11.2474 12.4434 10.623C12.4434 10.1536 12.5277 9.70703 12.6963 9.2832C12.8649 8.85482 13.0996 8.47428 13.4004 8.1416C13.7012 7.80892 14.0521 7.54688 14.4531 7.35547C14.8587 7.16406 15.2962 7.06836 15.7656 7.06836ZM18.5479 10.6162C18.5479 10.083 18.4271 9.58626 18.1855 9.12598C17.944 8.66569 17.6136 8.29427 17.1943 8.01172C16.7751 7.72461 16.3011 7.58105 15.7725 7.58105C15.2393 7.58105 14.7607 7.72461 14.3369 8.01172C13.9131 8.29427 13.5758 8.66797 13.3252 9.13281C13.0791 9.5931 12.9561 10.0898 12.9561 10.623C12.9561 11.1562 13.0791 11.653 13.3252 12.1133C13.5713 12.5736 13.904 12.9473 14.3232 13.2344C14.7471 13.5169 15.2233 13.6582 15.752 13.6582C16.2806 13.6582 16.7546 13.5169 17.1738 13.2344C17.5977 12.9473 17.9326 12.5736 18.1787 12.1133C18.4248 11.6484 18.5479 11.1494 18.5479 10.6162Z" fill="#333333"/>
</svg>
