<svg width="24" height="24" viewBox="0 0 24 24" fill="none" xmlns="http://www.w3.org/2000/svg">
<path d="M6.10939 16.272L7.11739 16.538V17H4.27539V16.538L5.28339 16.272L7.90139 8.446L8.71339 8.264L11.4714 16.272L12.4794 16.538V17H9.44139V16.538L10.2814 16.3L9.77739 14.872H6.57139L6.10939 16.272ZM8.13939 10.112L6.76739 14.228H9.56739L8.13939 10.112ZM15.4719 19.478C14.7626 19.478 14.2306 19.4127 13.8759 19.282C13.5306 19.1513 13.3019 18.9787 13.1899 18.764C13.0872 18.5587 13.0359 18.344 13.0359 18.12C13.0359 17.9147 13.0919 17.6767 13.2039 17.406C13.3252 17.1353 13.5399 16.8693 13.8479 16.608C13.6986 16.5333 13.5866 16.4307 13.5119 16.3C13.4466 16.16 13.4139 16.006 13.4139 15.838C13.4139 15.6233 13.4979 15.3947 13.6659 15.152C13.8432 14.9 14.0486 14.648 14.2819 14.396C13.9459 14.1627 13.7172 13.8687 13.5959 13.514C13.4746 13.15 13.4139 12.772 13.4139 12.38C13.4139 11.9787 13.5072 11.596 13.6939 11.232C13.8806 10.868 14.1606 10.574 14.5339 10.35C14.9166 10.1167 15.3926 10 15.9619 10C16.2886 10 16.5686 10.0327 16.8019 10.098C17.0446 10.154 17.2732 10.2427 17.4879 10.364L19.4759 9.846V10.826H17.8939C18.1086 11.0127 18.2626 11.2507 18.3559 11.54C18.4492 11.82 18.4959 12.1 18.4959 12.38C18.4959 12.7627 18.4119 13.136 18.2439 13.5C18.0759 13.8547 17.7959 14.144 17.4039 14.368C17.0212 14.592 16.4892 14.704 15.8079 14.704C15.5466 14.704 15.3179 14.69 15.1219 14.662C14.9259 14.6247 14.8279 14.6013 14.8279 14.592C14.7066 14.7693 14.6132 14.9187 14.5479 15.04C14.4826 15.152 14.4499 15.264 14.4499 15.376C14.4499 15.4693 14.4872 15.5673 14.5619 15.67C14.6366 15.7727 14.7439 15.824 14.8839 15.824H17.1939C17.5952 15.824 17.9499 15.8567 18.2579 15.922C18.5659 15.9873 18.8086 16.1227 18.9859 16.328C19.1632 16.524 19.2519 16.818 19.2519 17.21C19.2519 17.5553 19.1212 17.9007 18.8599 18.246C18.6079 18.6007 18.2066 18.8947 17.6559 19.128C17.1052 19.3613 16.3772 19.478 15.4719 19.478ZM15.9899 14.046C16.5126 14.046 16.8626 13.8967 17.0399 13.598C17.2266 13.29 17.3199 12.884 17.3199 12.38C17.3199 11.8853 17.2172 11.4747 17.0119 11.148C16.8066 10.8213 16.4519 10.658 15.9479 10.658C15.4159 10.658 15.0566 10.8213 14.8699 11.148C14.6926 11.4747 14.6039 11.8853 14.6039 12.38C14.6039 12.8933 14.7019 13.2993 14.8979 13.598C15.1032 13.8967 15.4672 14.046 15.9899 14.046ZM15.5839 18.778C16.5546 18.778 17.2406 18.6473 17.6419 18.386C18.0432 18.134 18.2439 17.812 18.2439 17.42C18.2439 17.14 18.1599 16.9533 17.9919 16.86C17.8332 16.7667 17.5906 16.72 17.2639 16.72H14.5199C14.2119 17.0933 14.0579 17.462 14.0579 17.826C14.0579 18.162 14.1606 18.4047 14.3659 18.554C14.5806 18.7033 14.9866 18.778 15.5839 18.778Z" fill="#333333"/>
</svg>
