<svg width="24" height="24" viewBox="0 0 24 24" fill="none" xmlns="http://www.w3.org/2000/svg">
<path d="M4.37584 17L4.45984 16.468L5.46784 16.244L9.44384 8.39L10.2838 8.236L11.4458 16.202L12.3138 16.468L12.2158 17H9.10784L9.19184 16.454L10.0738 16.258L9.79384 14.158H7.38584L6.33584 16.258L7.24584 16.454L7.11984 17H4.37584ZM7.72184 13.5H9.69584L9.27584 10.42L7.72184 13.5ZM14.8301 19.506C14.4661 19.506 14.0788 19.464 13.6681 19.38C13.2575 19.3053 12.9028 19.198 12.6041 19.058L12.8141 18.372C13.0475 18.456 13.3321 18.526 13.6681 18.582C14.0041 18.638 14.3168 18.666 14.6061 18.666C15.1101 18.666 15.5255 18.5773 15.8521 18.4C16.1881 18.2227 16.4541 17.9287 16.6501 17.518C16.8461 17.1073 16.9955 16.5427 17.0981 15.824C16.9115 16.048 16.6968 16.2347 16.4541 16.384C16.2115 16.5333 15.9641 16.6407 15.7121 16.706C15.4601 16.7713 15.2128 16.804 14.9701 16.804C14.6901 16.804 14.4195 16.7527 14.1581 16.65C13.9061 16.538 13.7008 16.3373 13.5421 16.048C13.3835 15.7587 13.3041 15.348 13.3041 14.816C13.3041 14.144 13.3835 13.514 13.5421 12.926C13.7101 12.338 13.9575 11.8153 14.2841 11.358C14.6201 10.9007 15.0355 10.5413 15.5301 10.28C16.0248 10.0187 16.6035 9.888 17.2661 9.888C17.4808 9.888 17.6861 9.90667 17.8821 9.944C18.0875 9.98133 18.2601 10.0187 18.4001 10.056C18.5401 10.0933 18.6241 10.1167 18.6521 10.126L19.0161 9.636L19.6041 9.748L18.2321 16.874C18.1575 17.2753 18.0268 17.6347 17.8401 17.952C17.6628 18.2787 17.4295 18.5587 17.1401 18.792C16.8601 19.0253 16.5241 19.2027 16.1321 19.324C15.7495 19.4453 15.3155 19.506 14.8301 19.506ZM15.5161 15.88C15.6935 15.88 15.8988 15.838 16.1321 15.754C16.3655 15.67 16.5895 15.5393 16.8041 15.362C17.0281 15.1847 17.1961 14.97 17.3081 14.718L18.0641 10.924C17.9521 10.84 17.8075 10.7747 17.6301 10.728C17.4621 10.6813 17.2941 10.658 17.1261 10.658C16.7435 10.658 16.4121 10.7513 16.1321 10.938C15.8615 11.1153 15.6328 11.358 15.4461 11.666C15.2688 11.974 15.1241 12.31 15.0121 12.674C14.9095 13.0287 14.8348 13.388 14.7881 13.752C14.7415 14.1067 14.7181 14.424 14.7181 14.704C14.7181 15.18 14.7881 15.4973 14.9281 15.656C15.0775 15.8053 15.2735 15.88 15.5161 15.88Z" fill="#888888"/>
</svg>
