<svg width="24" height="24" viewBox="0 0 24 24" fill="none" xmlns="http://www.w3.org/2000/svg">
<path d="M4.10121 17V16.384L5.09521 16.034L7.74121 8.404L8.83321 8.222L11.7032 16.034L12.6972 16.37V17H8.80521V16.37L9.71521 16.09L9.30921 14.858H6.62121L6.22921 16.048L7.18121 16.37V17H4.10121ZM6.88721 14.102H9.02921L7.90921 11.078L6.88721 14.102ZM15.8297 19.478C15.2137 19.478 14.7097 19.436 14.3177 19.352C13.935 19.2773 13.641 19.17 13.4357 19.03C13.2304 18.8993 13.0904 18.7547 13.0157 18.596C12.941 18.4373 12.9037 18.274 12.9037 18.106C12.9037 17.8913 12.969 17.672 13.0997 17.448C13.2304 17.224 13.501 16.9953 13.9117 16.762C13.7064 16.6967 13.557 16.5753 13.4637 16.398C13.3704 16.2113 13.3237 16.0387 13.3237 15.88C13.3237 15.6093 13.4264 15.348 13.6317 15.096C13.837 14.844 14.0564 14.606 14.2897 14.382C13.9164 14.1673 13.655 13.8733 13.5057 13.5C13.3564 13.1267 13.2817 12.73 13.2817 12.31C13.2817 11.8527 13.3844 11.4467 13.5897 11.092C13.8044 10.728 14.117 10.4433 14.5277 10.238C14.9477 10.0327 15.4564 9.93 16.0537 9.93C16.4364 9.93 16.7677 9.972 17.0477 10.056C17.3277 10.1307 17.5704 10.224 17.7757 10.336L19.6657 9.776V10.98H18.3497C18.499 11.1293 18.6204 11.33 18.7137 11.582C18.807 11.834 18.8537 12.0767 18.8537 12.31C18.8537 12.7673 18.7604 13.1827 18.5737 13.556C18.387 13.9293 18.0884 14.2233 17.6777 14.438C17.267 14.6527 16.7257 14.76 16.0537 14.76C15.8764 14.76 15.685 14.7507 15.4797 14.732C15.2837 14.704 15.1437 14.676 15.0597 14.648C15.0224 14.732 14.9897 14.83 14.9617 14.942C14.943 15.054 14.9337 15.1333 14.9337 15.18C14.9337 15.292 14.957 15.3853 15.0037 15.46C15.0504 15.5253 15.1624 15.558 15.3397 15.558H17.1177C17.603 15.558 18.0277 15.6093 18.3917 15.712C18.7557 15.8147 19.0404 15.9827 19.2457 16.216C19.451 16.4493 19.5537 16.7713 19.5537 17.182C19.5537 17.5553 19.4184 17.9193 19.1477 18.274C18.877 18.6287 18.4664 18.918 17.9157 19.142C17.365 19.366 16.6697 19.478 15.8297 19.478ZM15.8717 18.54C16.5437 18.54 17.029 18.428 17.3277 18.204C17.6357 17.9893 17.7897 17.7 17.7897 17.336C17.7897 17.084 17.715 16.9393 17.5657 16.902C17.4164 16.8553 17.2064 16.832 16.9357 16.832H15.0317C14.9104 16.9907 14.8217 17.14 14.7657 17.28C14.7097 17.4293 14.6817 17.5973 14.6817 17.784C14.6817 18.008 14.7657 18.19 14.9337 18.33C15.1017 18.47 15.4144 18.54 15.8717 18.54ZM16.0817 13.85C16.4364 13.85 16.6837 13.71 16.8237 13.43C16.973 13.1407 17.0477 12.7673 17.0477 12.31C17.0477 11.8433 16.9684 11.4747 16.8097 11.204C16.6604 10.9333 16.4037 10.798 16.0397 10.798C15.825 10.798 15.6477 10.8587 15.5077 10.98C15.377 11.1013 15.2837 11.274 15.2277 11.498C15.1717 11.722 15.1437 11.9927 15.1437 12.31C15.1437 12.7673 15.2137 13.1407 15.3537 13.43C15.4937 13.71 15.7364 13.85 16.0817 13.85Z" fill="#888888"/>
</svg>
