<svg width="24" height="24" viewBox="0 0 24 24" fill="none" xmlns="http://www.w3.org/2000/svg">
<path d="M8.98268 14.158H6.57468L5.52468 16.258L6.42068 16.454L6.29468 17H3.56468L3.64868 16.468L4.64268 16.244L8.63268 8.39L9.47268 8.236L10.6347 16.202L11.5027 16.468L11.4047 17H8.29668L8.38068 16.454L9.26268 16.258L8.98268 14.158ZM6.91068 13.5H8.88468L8.46468 10.42L6.91068 13.5ZM13.655 19.506C13.235 19.506 12.871 19.464 12.563 19.38C12.255 19.296 11.9376 19.1793 11.611 19.03L11.835 18.372C12.1056 18.4653 12.3623 18.5353 12.605 18.582C12.857 18.638 13.123 18.666 13.403 18.666C13.935 18.666 14.3783 18.582 14.733 18.414C15.097 18.2553 15.391 17.9707 15.615 17.56C15.839 17.1493 16.007 16.5707 16.119 15.824C15.8296 16.1693 15.489 16.4213 15.097 16.58C14.705 16.7293 14.3363 16.804 13.991 16.804C13.711 16.804 13.445 16.7527 13.193 16.65C12.941 16.538 12.731 16.3373 12.563 16.048C12.4043 15.7587 12.325 15.348 12.325 14.816C12.325 14.1533 12.4043 13.528 12.563 12.94C12.731 12.3427 12.9783 11.8153 13.305 11.358C13.641 10.9007 14.0563 10.5413 14.551 10.28C15.0456 10.0187 15.6243 9.888 16.287 9.888C16.6043 9.888 16.903 9.92533 17.183 10C17.463 10.0653 17.6263 10.1073 17.673 10.126L18.037 9.636L18.625 9.748L17.253 16.874C17.0756 17.7327 16.6743 18.386 16.049 18.834C15.4236 19.282 14.6256 19.506 13.655 19.506ZM14.537 15.88C14.705 15.88 14.9056 15.838 15.139 15.754C15.3816 15.67 15.6103 15.544 15.825 15.376C16.049 15.1987 16.217 14.9793 16.329 14.718C16.3383 14.7087 16.3663 14.5733 16.413 14.312C16.469 14.0507 16.5343 13.7193 16.609 13.318C16.6836 12.9167 16.763 12.5013 16.847 12.072C16.931 11.6427 17.0103 11.26 17.085 10.924C16.973 10.84 16.8283 10.7747 16.651 10.728C16.483 10.6813 16.3103 10.658 16.133 10.658C15.7596 10.658 15.433 10.7513 15.153 10.938C14.8823 11.1153 14.6536 11.358 14.467 11.666C14.2896 11.974 14.145 12.31 14.033 12.674C13.9303 13.0287 13.8556 13.3833 13.809 13.738C13.7623 14.0927 13.739 14.4147 13.739 14.704C13.739 15.18 13.809 15.4973 13.949 15.656C14.0983 15.8053 14.2943 15.88 14.537 15.88Z" fill="#333333"/>
</svg>
