<svg width="24" height="24" viewBox="0 0 24 24" fill="none" xmlns="http://www.w3.org/2000/svg">
<path d="M8.68283 14.858H6.12083L5.49083 16.048L6.33083 16.37L6.20483 17H3.32083L3.44683 16.384L4.41283 16.034L8.44483 8.404L9.52283 8.222L10.8108 16.034L11.6928 16.37L11.5668 17H7.82883L7.95483 16.37L8.87883 16.09L8.68283 14.858ZM6.55483 14.032H8.55683L8.10883 11.078L6.55483 14.032ZM13.7588 19.562C13.2361 19.562 12.7881 19.5153 12.4148 19.422C12.0508 19.338 11.7381 19.2213 11.4768 19.072L11.7988 18.26C12.0601 18.3533 12.3075 18.428 12.5408 18.484C12.7741 18.5493 13.0775 18.582 13.4508 18.582C13.7961 18.582 14.1228 18.512 14.4308 18.372C14.7481 18.2413 15.0328 17.9707 15.2848 17.56C15.5368 17.1493 15.7328 16.5333 15.8728 15.712C15.6675 15.964 15.4015 16.1973 15.0748 16.412C14.7575 16.6173 14.3701 16.72 13.9128 16.72C13.6701 16.72 13.4181 16.6593 13.1568 16.538C12.8955 16.4167 12.6715 16.2113 12.4848 15.922C12.3075 15.6233 12.2188 15.2173 12.2188 14.704C12.2188 13.752 12.3821 12.9073 12.7088 12.17C13.0355 11.4233 13.4835 10.84 14.0528 10.42C14.6315 10 15.2895 9.79 16.0268 9.79C16.3255 9.79 16.5868 9.81333 16.8108 9.86C17.0348 9.89733 17.2168 9.944 17.3568 10L17.8888 9.524L18.7848 9.636L17.3848 16.748C17.2635 17.3453 17.0675 17.8307 16.7968 18.204C16.5355 18.5773 16.2275 18.862 15.8728 19.058C15.5275 19.254 15.1681 19.3847 14.7948 19.45C14.4308 19.5247 14.0855 19.562 13.7588 19.562ZM14.5988 15.642C14.7575 15.642 14.9255 15.5953 15.1028 15.502C15.2895 15.3993 15.4621 15.278 15.6208 15.138C15.7888 14.9887 15.9148 14.8487 15.9988 14.718C15.9988 14.6993 16.0268 14.55 16.0828 14.27C16.1388 13.99 16.2041 13.6447 16.2788 13.234C16.3628 12.8233 16.4468 12.408 16.5308 11.988C16.6148 11.5587 16.6895 11.19 16.7548 10.882C16.5215 10.7887 16.2695 10.742 15.9988 10.742C15.6815 10.742 15.4015 10.8587 15.1588 11.092C14.9255 11.316 14.7295 11.6193 14.5708 12.002C14.4121 12.3847 14.2955 12.8093 14.2208 13.276C14.1461 13.7333 14.1088 14.1953 14.1088 14.662C14.1088 15.0447 14.1555 15.306 14.2488 15.446C14.3421 15.5767 14.4588 15.642 14.5988 15.642Z" fill="#333333"/>
</svg>
