<svg width="24" height="24" viewBox="0 0 24 24" fill="none" xmlns="http://www.w3.org/2000/svg">
<path d="M14.4692 12.828L14.3992 13.668C14.1845 13.6493 13.9512 13.64 13.6992 13.64C13.4565 13.64 13.2512 13.6447 13.0832 13.654C12.9525 14.6807 12.8685 15.796 12.8312 17H11.8512C11.7952 16.7573 11.7672 16.4353 11.7672 16.034C11.7672 15.6327 11.7765 15.2873 11.7952 14.998C11.8232 14.6993 11.8559 14.4053 11.8932 14.116C11.9305 13.8267 11.9492 13.6587 11.9492 13.612C11.8185 13.6027 11.5105 13.598 11.0252 13.598C10.5399 13.598 10.2039 13.6073 10.0172 13.626C8.93453 15.082 7.93586 16.188 7.0212 16.944C6.10653 17.6907 5.19186 18.064 4.2772 18.064C3.8292 18.064 3.45586 17.9287 3.1572 17.658C2.8492 17.3873 2.6952 17.028 2.6952 16.58C2.6952 15.7307 3.3392 14.956 4.6272 14.256C5.92453 13.556 7.59986 13.0847 9.6532 12.842C9.89586 12.4687 10.3485 11.8947 11.0112 11.12C11.6739 10.336 12.3272 9.65467 12.9712 9.076C13.2512 8.42267 13.4705 7.97 13.6292 7.718C13.7972 7.45667 13.9605 7.326 14.1192 7.326C14.2779 7.326 14.4085 7.38667 14.5112 7.508C14.6139 7.62933 14.6652 7.788 14.6652 7.984C14.6652 8.17067 14.5579 8.45067 14.3432 8.824C14.1379 9.188 13.9232 9.75733 13.6992 10.532C13.4752 11.2973 13.3212 12.0207 13.2372 12.702C13.7225 12.702 14.1332 12.744 14.4692 12.828ZM7.3292 15.754C8.10386 15.0167 8.6872 14.3167 9.0792 13.654C7.5112 13.7473 6.29786 14.0413 5.4392 14.536C4.58986 15.0307 4.1652 15.558 4.1652 16.118C4.1652 16.3607 4.24453 16.552 4.4032 16.692C4.5712 16.832 4.79053 16.902 5.0612 16.902C5.7892 16.902 6.5452 16.5193 7.3292 15.754ZM12.1172 12.702C12.1825 12.3847 12.2665 11.988 12.3692 11.512C12.4812 11.0267 12.5465 10.742 12.5652 10.658C12.1172 11.0873 11.8045 11.4047 11.6272 11.61C11.4499 11.806 11.1372 12.1887 10.6892 12.758C10.8479 12.7487 11.0392 12.744 11.2632 12.744C11.4965 12.7347 11.6879 12.7253 11.8372 12.716C11.9865 12.7067 12.0799 12.702 12.1172 12.702ZM19.8597 16.496L19.8737 16.832C19.7804 16.888 19.3557 17.056 18.5997 17.336C18.3011 19.1187 17.8624 20.4067 17.2837 21.2C16.7051 21.9933 15.9957 22.39 15.1557 22.39C14.7637 22.39 14.4511 22.264 14.2177 22.012C13.9844 21.76 13.8677 21.4333 13.8677 21.032C13.8677 20.2293 14.2364 19.478 14.9737 18.778C15.7111 18.0873 16.6957 17.5413 17.9277 17.14C18.0677 16.5147 18.3197 15.6327 18.6837 14.494C18.0584 15.446 17.4891 16.09 16.9757 16.426C16.4717 16.762 16.0144 16.93 15.6037 16.93C15.1931 16.93 14.8804 16.818 14.6657 16.594C14.4604 16.37 14.3577 16.0713 14.3577 15.698C14.3577 15.082 14.6144 14.4567 15.1277 13.822C15.6411 13.178 16.2851 12.6553 17.0597 12.254C17.8437 11.8433 18.5997 11.638 19.3277 11.638L19.4397 12.128C18.4037 12.24 17.5124 12.604 16.7657 13.22C16.0284 13.836 15.6597 14.4287 15.6597 14.998C15.6597 15.2407 15.7344 15.4413 15.8837 15.6C16.0331 15.7587 16.2151 15.838 16.4297 15.838C16.7471 15.838 17.2277 15.502 17.8717 14.83C18.5157 14.158 18.9684 13.584 19.2297 13.108L19.7477 13.402C19.2344 14.774 18.8797 15.9313 18.6837 16.874L19.8597 16.496ZM17.8437 17.56C17.0317 17.9333 16.3597 18.3813 15.8277 18.904C15.2957 19.4267 15.0297 19.9027 15.0297 20.332C15.0297 20.556 15.0951 20.738 15.2257 20.878C15.3564 21.018 15.5197 21.088 15.7157 21.088C16.1077 21.088 16.4951 20.8127 16.8777 20.262C17.2604 19.7113 17.5824 18.8107 17.8437 17.56Z" fill="#888888"/>
</svg>
