<svg width="24" height="24" viewBox="0 0 24 24" fill="none" xmlns="http://www.w3.org/2000/svg">
<path d="M11.7402 16.6104C11.7402 16.6924 11.7288 16.7653 11.7061 16.8291C11.6833 16.8883 11.6559 16.943 11.624 16.9932C11.5921 17.0433 11.5557 17.0934 11.5146 17.1436C11.4782 17.1937 11.444 17.2529 11.4121 17.3213L11.3164 17.3076C11.2253 17.3076 11.1341 17.3145 11.043 17.3281C10.9518 17.3418 10.8607 17.3486 10.7695 17.3486C10.6875 17.3486 10.61 17.335 10.5371 17.3076C10.4688 17.2803 10.4163 17.2233 10.3799 17.1367C10.3161 17.1003 10.2523 17.0729 10.1885 17.0547C10.1247 17.041 10.0677 17.0091 10.0176 16.959V16.8906C10.0176 16.8268 9.99707 16.7699 9.95605 16.7197C9.91504 16.6696 9.8877 16.6126 9.87402 16.5488C9.84668 16.4258 9.83529 16.2982 9.83984 16.166C9.8444 16.0293 9.84668 15.8971 9.84668 15.7695C9.84668 15.6556 9.83529 15.5439 9.8125 15.4346C9.78971 15.3252 9.76465 15.2181 9.7373 15.1133C9.70996 15.0039 9.6849 14.8968 9.66211 14.792C9.64388 14.6826 9.63932 14.5732 9.64844 14.4639C9.45247 14.4411 9.25879 14.4229 9.06738 14.4092C8.88053 14.391 8.68685 14.3818 8.48633 14.3818C8.31771 14.3818 8.14681 14.391 7.97363 14.4092C7.80501 14.4229 7.64095 14.4616 7.48145 14.5254C7.39486 14.4753 7.30143 14.4388 7.20117 14.416C7.10547 14.3932 7.00749 14.3818 6.90723 14.3818C6.80241 14.3818 6.70898 14.3955 6.62695 14.4229C6.59049 14.514 6.57227 14.6051 6.57227 14.6963C6.57227 14.7874 6.55859 14.8786 6.53125 14.9697C6.52214 15.0107 6.50618 15.0404 6.4834 15.0586C6.46517 15.0723 6.4515 15.0905 6.44238 15.1133C6.43327 15.1361 6.43099 15.1611 6.43555 15.1885C6.4401 15.2113 6.44238 15.2363 6.44238 15.2637C6.44238 15.291 6.42188 15.3343 6.38086 15.3936C6.3444 15.4528 6.31934 15.5075 6.30566 15.5576C6.28288 15.6761 6.26921 15.8037 6.26465 15.9404C6.26465 16.0726 6.26465 16.2025 6.26465 16.3301C6.26465 16.3574 6.27376 16.3825 6.29199 16.4053C6.31022 16.4235 6.31934 16.444 6.31934 16.4668C6.31934 16.4896 6.28516 16.5511 6.2168 16.6514C6.14844 16.7471 6.07096 16.8519 5.98438 16.9658C5.90234 17.0752 5.82487 17.1732 5.75195 17.2598C5.67904 17.3509 5.6403 17.3988 5.63574 17.4033C5.60384 17.4124 5.57422 17.417 5.54688 17.417C5.51953 17.417 5.49219 17.417 5.46484 17.417C5.30534 17.417 5.15039 17.3783 5 17.3008C4.84961 17.2279 4.71517 17.1413 4.59668 17.041V16.9453C4.59668 16.8268 4.58757 16.7083 4.56934 16.5898C4.55111 16.4668 4.52832 16.346 4.50098 16.2275C4.56478 16.1455 4.60579 16.0612 4.62402 15.9746C4.64225 15.888 4.64681 15.7969 4.6377 15.7012C4.67871 15.6556 4.71289 15.6191 4.74023 15.5918C4.77214 15.5645 4.7972 15.5371 4.81543 15.5098C4.83366 15.4824 4.84505 15.4505 4.84961 15.4141C4.85872 15.3776 4.86328 15.3275 4.86328 15.2637V15.2363L4.95898 15.1543C4.9681 15.1042 4.9681 15.0586 4.95898 15.0176C4.94987 14.972 4.94531 14.9242 4.94531 14.874C4.94531 14.8376 4.94987 14.8079 4.95898 14.7852L5.04785 14.7031C5.05697 14.6758 5.05924 14.6507 5.05469 14.6279C5.05013 14.6006 5.04785 14.5755 5.04785 14.5527C5.04785 14.5299 5.05469 14.5117 5.06836 14.498C5.08203 14.4798 5.09798 14.4616 5.11621 14.4434C5.13444 14.4251 5.15039 14.4069 5.16406 14.3887C5.17773 14.3704 5.18457 14.3499 5.18457 14.3271V14.2998C4.99772 14.2725 4.81543 14.2725 4.6377 14.2998C4.57845 14.2588 4.51693 14.2155 4.45312 14.1699C4.39388 14.1243 4.33919 14.0765 4.28906 14.0264C4.23893 13.9762 4.19792 13.9193 4.16602 13.8555C4.13411 13.7917 4.11816 13.7188 4.11816 13.6367C4.11816 13.4863 4.14779 13.3724 4.20703 13.2949C4.26628 13.2174 4.33691 13.1536 4.41895 13.1035C4.50553 13.0488 4.59668 12.9987 4.69238 12.9531C4.79264 12.9076 4.88151 12.8415 4.95898 12.7549H5.31445C5.39648 12.6729 5.46712 12.584 5.52637 12.4883C5.59017 12.388 5.6403 12.2809 5.67676 12.167C5.69043 12.126 5.69727 12.0827 5.69727 12.0371C5.69727 11.9915 5.7041 11.9482 5.71777 11.9072C5.75879 11.8161 5.81348 11.734 5.88184 11.6611C5.9502 11.5837 6.0026 11.4971 6.03906 11.4014C6.06185 11.3285 6.06868 11.2533 6.05957 11.1758C6.05046 11.0983 6.05729 11.0231 6.08008 10.9502C6.12109 10.8271 6.16667 10.7178 6.2168 10.6221C6.26693 10.5264 6.31478 10.4307 6.36035 10.335C6.41048 10.2347 6.4515 10.123 6.4834 10C6.5153 9.87695 6.53125 9.72656 6.53125 9.54883C6.53125 9.52148 6.52441 9.4987 6.51074 9.48047C6.49707 9.46224 6.49023 9.43945 6.49023 9.41211C6.49023 9.38477 6.50846 9.34375 6.54492 9.28906C6.58594 9.23438 6.61328 9.18652 6.62695 9.14551C6.64062 9.09538 6.64062 9.04753 6.62695 9.00195C6.61784 8.95182 6.61328 8.90169 6.61328 8.85156C6.61328 8.81966 6.63835 8.74902 6.68848 8.63965C6.73861 8.52572 6.79785 8.40723 6.86621 8.28418C6.93457 8.15658 7.00521 8.03809 7.07812 7.92871C7.15104 7.81478 7.21029 7.73958 7.25586 7.70312C7.26042 7.60286 7.27865 7.51628 7.31055 7.44336C7.34245 7.36589 7.37891 7.29297 7.41992 7.22461C7.46094 7.15625 7.50423 7.08789 7.5498 7.01953C7.59538 6.95117 7.63411 6.87598 7.66602 6.79395C7.72982 6.79395 7.77539 6.7666 7.80273 6.71191C7.81185 6.7028 7.82552 6.69824 7.84375 6.69824C7.91667 6.69824 7.9987 6.70508 8.08984 6.71875C8.18099 6.73242 8.28581 6.73926 8.4043 6.73926C8.50911 6.73926 8.60938 6.76432 8.70508 6.81445C8.80534 6.86003 8.89648 6.91471 8.97852 6.97852C9.05599 7.03776 9.12891 7.13802 9.19727 7.2793C9.27018 7.42057 9.33854 7.58464 9.40234 7.77148C9.46615 7.95378 9.52539 8.14974 9.58008 8.35938C9.63932 8.56901 9.69401 8.77409 9.74414 8.97461C9.79427 9.17057 9.84212 9.35286 9.8877 9.52148C9.93327 9.68555 9.97656 9.81771 10.0176 9.91797C10.0404 9.98177 10.07 10.041 10.1064 10.0957C10.1429 10.1458 10.1725 10.2074 10.1953 10.2803C10.209 10.3441 10.2135 10.4102 10.209 10.4785C10.2044 10.5469 10.2135 10.6152 10.2363 10.6836C10.2546 10.7428 10.2773 10.7952 10.3047 10.8408C10.332 10.8864 10.3571 10.9365 10.3799 10.9912C10.4163 11.1325 10.4391 11.2783 10.4482 11.4287C10.4574 11.5745 10.4915 11.7135 10.5508 11.8457C10.6693 12.1146 10.765 12.388 10.8379 12.666C10.9154 12.944 10.9541 13.2266 10.9541 13.5137C10.9541 13.5775 10.9723 13.6436 11.0088 13.7119C11.0088 13.7484 11.0202 13.7871 11.043 13.8281C11.0658 13.8691 11.0908 13.9124 11.1182 13.958C11.1501 13.999 11.1797 14.04 11.207 14.0811C11.2389 14.1221 11.2617 14.1608 11.2754 14.1973C11.2845 14.2246 11.3027 14.2998 11.3301 14.4229C11.3574 14.5413 11.387 14.6849 11.4189 14.8535C11.4554 15.0221 11.4919 15.2044 11.5283 15.4004C11.5648 15.5918 11.599 15.7741 11.6309 15.9473C11.6628 16.1159 11.6878 16.2617 11.7061 16.3848C11.7288 16.5078 11.7402 16.583 11.7402 16.6104ZM9.24512 12.8984C9.24056 12.8073 9.22461 12.7184 9.19727 12.6318C9.16992 12.5452 9.13802 12.4609 9.10156 12.3789C9.06966 12.2923 9.03548 12.2057 8.99902 12.1191C8.96712 12.028 8.94206 11.9368 8.92383 11.8457C8.91016 11.75 8.9056 11.6475 8.91016 11.5381C8.91927 11.4287 8.91016 11.3216 8.88281 11.2168C8.86914 11.1621 8.85319 11.1234 8.83496 11.1006C8.82129 11.0778 8.80762 11.0573 8.79395 11.0391C8.78483 11.0163 8.77572 10.9889 8.7666 10.957C8.75749 10.9206 8.75293 10.8636 8.75293 10.7861C8.75293 10.7451 8.74154 10.7064 8.71875 10.6699C8.70052 10.6335 8.68001 10.597 8.65723 10.5605C8.63444 10.5241 8.61165 10.4808 8.58887 10.4307C8.57064 10.3805 8.56152 10.3213 8.56152 10.2529C8.56152 10.2119 8.56836 10.1709 8.58203 10.1299C8.5957 10.0843 8.6071 10.041 8.61621 10C8.52962 9.92253 8.45671 9.83594 8.39746 9.74023C8.34277 9.64453 8.27897 9.55339 8.20605 9.4668C8.17415 9.48503 8.15365 9.51465 8.14453 9.55566C8.13542 9.59668 8.13086 9.64225 8.13086 9.69238C8.13086 9.73796 8.13086 9.78581 8.13086 9.83594C8.13086 9.88607 8.12402 9.92708 8.11035 9.95898C8.09668 10 8.06934 10.0319 8.02832 10.0547C7.99186 10.0729 7.95996 10.1003 7.93262 10.1367C7.90983 10.1732 7.8916 10.2142 7.87793 10.2598C7.86882 10.3053 7.84375 10.3395 7.80273 10.3623V10.7725C7.69792 10.8955 7.61133 11.0391 7.54297 11.2031C7.47917 11.3672 7.42448 11.5381 7.37891 11.7158C7.33789 11.8936 7.30371 12.0736 7.27637 12.2559C7.25358 12.4336 7.23307 12.5999 7.21484 12.7549C7.22852 12.764 7.24447 12.7708 7.2627 12.7754C7.28092 12.7754 7.29688 12.7754 7.31055 12.7754C7.38802 12.7754 7.46322 12.7663 7.53613 12.748C7.60905 12.7253 7.68424 12.7139 7.76172 12.7139C7.95768 12.7139 8.14909 12.7275 8.33594 12.7549C8.38607 12.764 8.42936 12.7822 8.46582 12.8096C8.50684 12.8324 8.55241 12.8438 8.60254 12.8438C8.62533 12.8438 8.64355 12.8369 8.65723 12.8232C8.67546 12.8096 8.7028 12.8027 8.73926 12.8027C8.81217 12.8027 8.88053 12.8232 8.94434 12.8643C9.00814 12.9053 9.0765 12.9258 9.14941 12.9258C9.17676 12.9258 9.20866 12.9167 9.24512 12.8984ZM18.7881 16.5078C18.8109 16.5306 18.8245 16.5557 18.8291 16.583C18.8382 16.6104 18.8428 16.6377 18.8428 16.665C18.8428 16.7152 18.8337 16.7653 18.8154 16.8154C18.7972 16.8656 18.7881 16.918 18.7881 16.9727C18.7881 17.0273 18.7972 17.0798 18.8154 17.1299C18.8337 17.1846 18.8428 17.2393 18.8428 17.2939C18.8428 17.376 18.8268 17.4557 18.7949 17.5332C18.763 17.6107 18.7266 17.6859 18.6855 17.7588C18.6491 17.8317 18.6149 17.9046 18.583 17.9775C18.5511 18.0505 18.5352 18.1257 18.5352 18.2031C18.5352 18.2214 18.5101 18.2783 18.46 18.374C18.4098 18.4697 18.3529 18.5745 18.2891 18.6885C18.2253 18.807 18.1615 18.9186 18.0977 19.0234C18.0384 19.1283 17.9974 19.1966 17.9746 19.2285C17.9154 19.2513 17.863 19.2809 17.8174 19.3174C17.7718 19.3538 17.724 19.3903 17.6738 19.4268C17.6283 19.4678 17.5781 19.502 17.5234 19.5293C17.4733 19.5612 17.4141 19.5817 17.3457 19.5908C17.3275 19.6501 17.2933 19.6934 17.2432 19.7207C17.1976 19.7526 17.1475 19.7799 17.0928 19.8027C17.0381 19.8301 16.9857 19.8597 16.9355 19.8916C16.8854 19.9235 16.8535 19.9714 16.8398 20.0352H16.7852C16.7259 20.0306 16.6667 20.0352 16.6074 20.0488C16.5527 20.0671 16.4958 20.0876 16.4365 20.1104C16.3773 20.1331 16.318 20.1559 16.2588 20.1787C16.2041 20.2015 16.1471 20.2152 16.0879 20.2197C15.9831 20.2288 15.8783 20.2357 15.7734 20.2402C15.6686 20.2448 15.5638 20.2471 15.459 20.2471C15.3906 20.2471 15.3154 20.2448 15.2334 20.2402C15.1559 20.2402 15.0762 20.2334 14.9941 20.2197C14.9167 20.2061 14.8415 20.1855 14.7686 20.1582C14.6956 20.1309 14.6364 20.0898 14.5908 20.0352C14.5316 20.0124 14.4701 19.9964 14.4062 19.9873C14.347 19.9827 14.2855 19.9668 14.2217 19.9395L14.1396 19.8574C13.9801 19.8073 13.8343 19.7594 13.7021 19.7139C13.57 19.6683 13.4515 19.609 13.3467 19.5361C13.2419 19.4678 13.1462 19.3789 13.0596 19.2695C12.973 19.1647 12.8955 19.028 12.8271 18.8594C12.8135 18.8092 12.7816 18.7751 12.7314 18.7568C12.6813 18.7432 12.638 18.7181 12.6016 18.6816C12.597 18.6178 12.5811 18.5586 12.5537 18.5039C12.5264 18.4492 12.4967 18.3945 12.4648 18.3398C12.4329 18.2852 12.4033 18.2305 12.376 18.1758C12.3486 18.1211 12.335 18.0596 12.335 17.9912C12.335 17.9411 12.3418 17.891 12.3555 17.8408C12.3691 17.7952 12.376 17.7428 12.376 17.6836C12.376 17.6335 12.3737 17.5811 12.3691 17.5264C12.3646 17.4762 12.3623 17.4261 12.3623 17.376C12.3623 17.2939 12.3783 17.2233 12.4102 17.1641C12.4421 17.1094 12.4808 17.057 12.5264 17.0068C12.5719 16.9613 12.6221 16.918 12.6768 16.877C12.7314 16.8314 12.7816 16.7835 12.8271 16.7334C12.8682 16.7334 12.9069 16.7311 12.9434 16.7266C12.9798 16.722 13.0208 16.7197 13.0664 16.7197C13.2806 16.7197 13.4583 16.763 13.5996 16.8496C13.7454 16.9316 13.8639 17.041 13.9551 17.1777C14.0462 17.319 14.1169 17.4762 14.167 17.6494C14.2171 17.8271 14.2559 18.0072 14.2832 18.1895C14.2923 18.2396 14.3128 18.2669 14.3447 18.2715C14.3812 18.2806 14.4199 18.2965 14.4609 18.3193C14.4883 18.3421 14.5133 18.3672 14.5361 18.3945C14.5635 18.4219 14.5954 18.4424 14.6318 18.4561C14.7503 18.4971 14.8711 18.513 14.9941 18.5039C15.1172 18.4993 15.238 18.5107 15.3564 18.5381C15.443 18.5654 15.5251 18.6019 15.6025 18.6475C15.68 18.6976 15.762 18.7227 15.8486 18.7227C15.9124 18.7227 15.9899 18.6976 16.0811 18.6475C16.1768 18.5973 16.2702 18.5381 16.3613 18.4697C16.4525 18.4014 16.5345 18.3285 16.6074 18.251C16.6849 18.1735 16.735 18.1074 16.7578 18.0527C16.7715 18.0208 16.7783 17.9889 16.7783 17.957C16.7783 17.9251 16.7852 17.8955 16.7988 17.8682L16.9014 17.8271V17.7246L16.9834 17.6836C17.0381 17.5742 17.1019 17.4694 17.1748 17.3691C17.2477 17.2734 17.332 17.1823 17.4277 17.0957V16.9727C17.4277 16.8952 17.4414 16.8245 17.4688 16.7607C17.4961 16.6969 17.5303 16.6331 17.5713 16.5693C17.5485 16.5146 17.528 16.4736 17.5098 16.4463C17.4961 16.4144 17.4824 16.3848 17.4688 16.3574C17.4596 16.3255 17.4551 16.2913 17.4551 16.2549C17.4596 16.2184 17.471 16.1683 17.4893 16.1045C17.3571 16.1546 17.25 16.2048 17.168 16.2549C17.0859 16.3005 17.0062 16.3438 16.9287 16.3848C16.8512 16.4212 16.7624 16.4508 16.6621 16.4736C16.5664 16.4964 16.4342 16.5078 16.2656 16.5078C16.2383 16.5078 16.2178 16.5169 16.2041 16.5352C16.1904 16.5488 16.1768 16.5648 16.1631 16.583C16.1494 16.6012 16.1335 16.6195 16.1152 16.6377C16.097 16.6514 16.0697 16.6559 16.0332 16.6514C15.9284 16.6423 15.8236 16.6423 15.7188 16.6514C15.6139 16.6605 15.5091 16.665 15.4043 16.665C15.3405 16.665 15.2904 16.6628 15.2539 16.6582C15.222 16.6491 15.1924 16.6377 15.165 16.624C15.1377 16.6104 15.1081 16.5944 15.0762 16.5762C15.0488 16.5579 15.0078 16.5352 14.9531 16.5078C14.8346 16.4531 14.7116 16.403 14.584 16.3574C14.4609 16.3118 14.3402 16.2594 14.2217 16.2002C14.1123 16.1455 14.0052 16.0749 13.9004 15.9883C13.8001 15.8971 13.7021 15.8014 13.6064 15.7012C13.5107 15.6009 13.4173 15.5007 13.3262 15.4004C13.2396 15.2956 13.153 15.1999 13.0664 15.1133V15.0107C13.0755 14.8649 13.0459 14.7464 12.9775 14.6553C12.9092 14.5596 12.8294 14.4593 12.7383 14.3545C12.7292 14.1813 12.7109 14.0013 12.6836 13.8145C12.6562 13.6276 12.6426 13.4476 12.6426 13.2744C12.6426 13.1559 12.6517 13.0352 12.6699 12.9121C12.6882 12.7891 12.6973 12.6683 12.6973 12.5498C12.6973 12.4906 12.6882 12.4336 12.6699 12.3789C12.6517 12.3242 12.6426 12.2695 12.6426 12.2148C12.6426 12.1784 12.6471 12.1442 12.6562 12.1123C12.6654 12.0804 12.6745 12.0462 12.6836 12.0098C12.6927 11.9688 12.7018 11.9232 12.7109 11.873C12.7201 11.8184 12.7246 11.75 12.7246 11.668C12.7246 11.6589 12.736 11.6201 12.7588 11.5518C12.7816 11.4788 12.8066 11.3991 12.834 11.3125C12.8613 11.2259 12.8864 11.1416 12.9092 11.0596C12.9365 10.973 12.9548 10.9092 12.9639 10.8682C13.055 10.7952 13.1325 10.7178 13.1963 10.6357C13.2601 10.5492 13.3034 10.4489 13.3262 10.335C13.3945 10.3167 13.4538 10.2871 13.5039 10.2461C13.554 10.2005 13.5996 10.1527 13.6406 10.1025C13.6862 10.0524 13.734 10.0068 13.7842 9.96582C13.8343 9.92025 13.8936 9.89062 13.9619 9.87695C13.9528 9.87695 13.9482 9.86556 13.9482 9.84277C13.9482 9.80176 13.9665 9.77897 14.0029 9.77441C14.0394 9.76986 14.0713 9.76074 14.0986 9.74707C14.1533 9.71061 14.2035 9.67188 14.249 9.63086C14.2992 9.58984 14.3516 9.55339 14.4062 9.52148C14.4746 9.48047 14.5566 9.44629 14.6523 9.41895C14.748 9.38704 14.8483 9.35742 14.9531 9.33008C15.0625 9.30273 15.1719 9.27311 15.2812 9.24121C15.3906 9.20475 15.4909 9.15918 15.582 9.10449C15.6595 9.11816 15.7347 9.125 15.8076 9.125C15.8851 9.12044 15.9603 9.11816 16.0332 9.11816C16.1107 9.11361 16.1859 9.11361 16.2588 9.11816C16.3363 9.12272 16.4137 9.13639 16.4912 9.15918C16.5778 9.27311 16.6803 9.36882 16.7988 9.44629C16.9173 9.51921 17.0404 9.58757 17.168 9.65137V9.45312C17.1589 9.29818 17.168 9.14551 17.1953 8.99512C17.2272 8.84473 17.2773 8.70345 17.3457 8.57129C17.4368 8.53027 17.5326 8.49837 17.6328 8.47559C17.7376 8.44824 17.8379 8.43457 17.9336 8.43457C18.002 8.43457 18.0589 8.4528 18.1045 8.48926C18.1546 8.52116 18.2002 8.5599 18.2412 8.60547C18.2822 8.64648 18.3232 8.68978 18.3643 8.73535C18.4098 8.78092 18.4622 8.8151 18.5215 8.83789C18.526 8.89714 18.542 8.9541 18.5693 9.00879C18.6012 9.06348 18.6331 9.11589 18.665 9.16602C18.6969 9.21615 18.7243 9.26855 18.7471 9.32324C18.7744 9.37793 18.7881 9.4349 18.7881 9.49414C18.7881 9.60807 18.7812 9.72201 18.7676 9.83594C18.7539 9.94531 18.7471 10.057 18.7471 10.1709C18.7471 10.2256 18.7402 10.2803 18.7266 10.335C18.7129 10.3896 18.7061 10.4466 18.7061 10.5059C18.7061 10.5286 18.7152 10.5537 18.7334 10.5811C18.7562 10.6084 18.7744 10.6289 18.7881 10.6426C18.8018 10.6882 18.8086 10.7383 18.8086 10.793C18.8086 10.8431 18.8109 10.8932 18.8154 10.9434C18.82 10.9889 18.8291 11.0345 18.8428 11.0801C18.861 11.1211 18.8906 11.1576 18.9316 11.1895C18.8861 11.3216 18.8564 11.4561 18.8428 11.5928C18.8337 11.7249 18.8291 11.8617 18.8291 12.0029C18.8291 12.0804 18.8382 12.1556 18.8564 12.2285C18.8747 12.2969 18.8838 12.3698 18.8838 12.4473C18.8838 12.5065 18.8678 12.5612 18.8359 12.6113C18.804 12.6615 18.7881 12.7161 18.7881 12.7754C18.7881 12.8848 18.804 12.9964 18.8359 13.1104C18.8678 13.2197 18.8997 13.3314 18.9316 13.4453C18.9681 13.5911 18.984 13.7415 18.9795 13.8965C18.9749 14.0469 18.9727 14.1995 18.9727 14.3545C18.9727 14.3955 18.9795 14.4388 18.9932 14.4844C19.0068 14.5254 19.0137 14.571 19.0137 14.6211C19.0137 14.6621 19.0068 14.7008 18.9932 14.7373C18.9795 14.7738 18.9727 14.8148 18.9727 14.8604C18.9727 14.9788 18.9886 15.0973 19.0205 15.2158C19.0524 15.3343 19.0684 15.4574 19.0684 15.585C19.0684 15.7445 19.0501 15.9085 19.0137 16.0771C18.9818 16.2458 18.9066 16.3893 18.7881 16.5078ZM17.4277 12.8438C17.4277 12.7663 17.4368 12.6888 17.4551 12.6113C17.4779 12.5339 17.4893 12.4564 17.4893 12.3789C17.4893 12.3242 17.4801 12.2718 17.4619 12.2217C17.4437 12.1715 17.4255 12.1237 17.4072 12.0781C17.3936 12.028 17.3822 11.9801 17.373 11.9346C17.3639 11.8844 17.3685 11.832 17.3867 11.7773C17.3411 11.7591 17.3001 11.7318 17.2637 11.6953C17.2318 11.6589 17.1999 11.6201 17.168 11.5791C17.1361 11.5335 17.1042 11.4902 17.0723 11.4492C17.0449 11.4036 17.0153 11.3649 16.9834 11.333C16.9561 11.2965 16.9196 11.2715 16.874 11.2578C16.833 11.2396 16.7943 11.2168 16.7578 11.1895C16.7214 11.1621 16.6917 11.1325 16.6689 11.1006C16.6462 11.0687 16.6165 11.0368 16.5801 11.0049C16.4616 10.9137 16.3317 10.8431 16.1904 10.793C16.0537 10.7383 15.9124 10.7109 15.7666 10.7109C15.6663 10.7109 15.5775 10.7223 15.5 10.7451C15.4225 10.7633 15.3496 10.7839 15.2812 10.8066C15.2174 10.8294 15.1559 10.8522 15.0967 10.875C15.0374 10.8932 14.9759 10.9046 14.9121 10.9092C14.8392 11.0094 14.7708 11.1097 14.707 11.21C14.6432 11.3102 14.5612 11.3923 14.4609 11.4561C14.4382 11.6019 14.4085 11.734 14.3721 11.8525C14.3402 11.9665 14.3083 12.0804 14.2764 12.1943C14.2445 12.3037 14.2148 12.4222 14.1875 12.5498C14.1647 12.6774 14.1533 12.8255 14.1533 12.9941C14.1533 13.14 14.1533 13.2607 14.1533 13.3564C14.1579 13.4521 14.1693 13.541 14.1875 13.623C14.2103 13.7051 14.2422 13.7871 14.2832 13.8691C14.3242 13.9512 14.3835 14.0514 14.4609 14.1699C14.4974 14.2292 14.5316 14.293 14.5635 14.3613C14.5954 14.4251 14.6364 14.4798 14.6865 14.5254C14.7275 14.5664 14.7754 14.6006 14.8301 14.6279C14.8893 14.6507 14.944 14.6758 14.9941 14.7031C15.0352 14.7305 15.0807 14.7715 15.1309 14.8262C15.1855 14.8809 15.2334 14.915 15.2744 14.9287C15.279 14.9333 15.3109 14.9424 15.3701 14.9561C15.4294 14.9697 15.4954 14.9857 15.5684 15.0039C15.6413 15.0176 15.7074 15.0312 15.7666 15.0449C15.8304 15.0586 15.8669 15.0654 15.876 15.0654C16.0036 15.0654 16.1266 15.0518 16.2451 15.0244C16.3682 14.9971 16.4935 14.9971 16.6211 15.0244C16.6621 15.0199 16.694 15.0062 16.7168 14.9834C16.7396 14.9561 16.7624 14.931 16.7852 14.9082C16.8079 14.8854 16.833 14.8672 16.8604 14.8535C16.8877 14.8353 16.9287 14.833 16.9834 14.8467C17.0016 14.792 17.029 14.7441 17.0654 14.7031C17.1064 14.6621 17.1475 14.6234 17.1885 14.5869C17.234 14.5505 17.2773 14.514 17.3184 14.4775C17.3594 14.4411 17.3958 14.4001 17.4277 14.3545C17.4596 14.318 17.4779 14.2793 17.4824 14.2383C17.487 14.1927 17.5029 14.1517 17.5303 14.1152C17.5531 14.0924 17.5804 14.0742 17.6123 14.0605C17.6488 14.0469 17.667 14.0195 17.667 13.9785C17.667 13.8509 17.6533 13.7324 17.626 13.623C17.6032 13.5137 17.5758 13.4134 17.5439 13.3223C17.5166 13.2266 17.4893 13.14 17.4619 13.0625C17.4391 12.985 17.4277 12.9121 17.4277 12.8438Z" fill="#333333"/>
</svg>
