<svg width="24" height="24" viewBox="0 0 24 24" fill="none" xmlns="http://www.w3.org/2000/svg">
<path d="M12.8647 16.056C12.8647 16.0933 12.8507 16.126 12.8227 16.154C12.8041 16.154 12.7854 16.1773 12.7667 16.224C12.7667 16.2333 12.7574 16.2473 12.7387 16.266C12.6921 16.3127 12.6501 16.3407 12.6127 16.35L12.5987 16.364C12.5987 16.364 12.5987 16.3687 12.5987 16.378C12.6174 16.4807 12.5847 16.574 12.5007 16.658C12.4821 16.686 12.4634 16.7 12.4447 16.7H12.3747C12.3467 16.7187 12.3141 16.728 12.2767 16.728C12.2487 16.7373 12.2254 16.7607 12.2067 16.798C12.1881 16.8167 12.1694 16.826 12.1507 16.826C12.1414 16.8353 12.1274 16.8447 12.1087 16.854L11.9687 16.868C11.9501 16.868 11.9361 16.8727 11.9267 16.882C11.9174 16.8913 11.9034 16.9007 11.8847 16.91C11.8661 16.9473 11.8334 16.9567 11.7867 16.938C11.7494 16.9193 11.6934 16.9193 11.6187 16.938C11.5347 16.938 11.4787 16.9333 11.4507 16.924C11.4041 16.924 11.3294 16.9193 11.2267 16.91C11.1334 16.91 11.0354 16.91 10.9327 16.91C10.8394 16.91 10.7507 16.91 10.6667 16.91C10.5921 16.91 10.5501 16.91 10.5407 16.91C10.5221 16.9473 10.4894 16.9567 10.4427 16.938C10.4054 16.9193 10.3494 16.9193 10.2747 16.938C10.1907 16.938 10.1347 16.9333 10.1067 16.924C9.90139 16.9147 9.71939 16.8167 9.56072 16.63C9.50472 16.5553 9.45339 16.4807 9.40672 16.406C9.36005 16.3313 9.31339 16.252 9.26672 16.168C9.22939 16.1213 9.19205 16.0653 9.15472 16C9.11739 15.9347 9.08472 15.8693 9.05672 15.804C9.04739 15.7573 9.02405 15.6967 8.98672 15.622C8.96805 15.5847 8.94005 15.5053 8.90272 15.384C8.87472 15.2627 8.84672 15.1367 8.81872 15.006C8.79072 14.8753 8.76272 14.7493 8.73472 14.628C8.70672 14.5067 8.68339 14.4227 8.66472 14.376C8.64605 14.3013 8.62272 14.2267 8.59472 14.152C8.57605 14.068 8.56205 13.984 8.55272 13.9L8.45472 13.494C8.43605 13.4193 8.41739 13.3447 8.39872 13.27C8.38939 13.186 8.37539 13.1067 8.35672 13.032L8.32872 12.822C8.31939 12.71 8.30072 12.6027 8.27272 12.5C8.25405 12.388 8.23539 12.2713 8.21672 12.15C8.20739 12.066 8.18405 11.9633 8.14672 11.842L8.13272 11.744C8.13272 11.744 8.11872 11.73 8.09072 11.702C8.06272 11.702 8.03472 11.702 8.00672 11.702C7.97872 11.6927 7.95072 11.6927 7.92272 11.702C7.71739 11.758 7.54939 11.8047 7.41872 11.842C7.29739 11.87 7.19939 11.8933 7.12472 11.912C7.05005 11.9307 6.98939 11.9493 6.94272 11.968C6.90539 11.9773 6.87272 11.9867 6.84472 11.996C6.77939 12.0147 6.70939 12.0333 6.63472 12.052C6.56939 12.0613 6.49939 12.0847 6.42472 12.122L6.24272 12.22C6.20539 12.2387 6.18205 12.248 6.17272 12.248C6.11672 12.2573 6.07939 12.276 6.06072 12.304C6.04205 12.332 6.02339 12.3693 6.00472 12.416C6.00472 12.4253 6.00005 12.4347 5.99072 12.444C5.99072 12.444 5.99072 12.4533 5.99072 12.472C6.00005 12.4907 6.00005 12.5093 5.99072 12.528C5.98139 12.5467 5.97205 12.5653 5.96272 12.584C5.91605 12.6493 5.89739 12.71 5.90672 12.766C5.90672 12.794 5.89739 12.8173 5.87872 12.836C5.86005 12.892 5.85072 12.9387 5.85072 12.976C5.84139 12.9853 5.83672 12.9947 5.83672 13.004C5.83672 13.0133 5.83205 13.0227 5.82272 13.032L5.79472 13.144C5.79472 13.1813 5.78539 13.2187 5.76672 13.256C5.74805 13.284 5.73405 13.3167 5.72472 13.354C5.67805 13.6807 5.63139 13.928 5.58472 14.096C5.53805 14.2547 5.50539 14.3527 5.48672 14.39L5.12272 15.356C5.12272 15.3747 5.10405 15.4307 5.06672 15.524C5.03872 15.6173 5.00605 15.7247 4.96872 15.846C4.93139 15.958 4.89405 16.0653 4.85672 16.168C4.81939 16.28 4.79605 16.3547 4.78672 16.392C4.63739 16.588 4.51139 16.7047 4.40872 16.742C4.31539 16.7887 4.23139 16.798 4.15672 16.77C4.09139 16.742 4.03539 16.6953 3.98872 16.63C3.95139 16.574 3.91872 16.532 3.89072 16.504C3.85339 16.4853 3.84872 16.406 3.87672 16.266C3.91405 16.1353 3.95605 15.9953 4.00272 15.846L4.19872 15.258C4.22672 15.1833 4.27339 15.0433 4.33872 14.838C4.41339 14.6327 4.48339 14.4227 4.54872 14.208C4.62339 13.984 4.68872 13.788 4.74472 13.62C4.80072 13.452 4.82872 13.3727 4.82872 13.382L4.91272 13.074L5.03872 12.626L5.58472 11.002L5.68272 10.764C5.72939 10.6147 5.77605 10.47 5.82272 10.33C5.87872 10.19 5.94405 10.05 6.01872 9.91C6.04672 9.83533 6.07939 9.76067 6.11672 9.686C6.15405 9.61133 6.18672 9.53667 6.21472 9.462L6.38272 8.986C6.40139 8.93933 6.42472 8.89267 6.45272 8.846C6.48072 8.79933 6.50872 8.75267 6.53672 8.706C6.61139 8.54733 6.68605 8.38867 6.76072 8.23C6.83539 8.07133 6.90072 7.90333 6.95672 7.726L7.01272 7.53C7.04072 7.45533 7.06405 7.38067 7.08272 7.306C7.11072 7.222 7.14339 7.14267 7.18072 7.068L7.30672 6.802C7.30672 6.774 7.31139 6.75533 7.32072 6.746C7.33939 6.72733 7.35805 6.70867 7.37672 6.69L7.41872 6.634C7.42805 6.62467 7.43272 6.606 7.43272 6.578L7.46072 6.116C7.47939 6.06 7.51205 6.02267 7.55872 6.004C7.60539 5.976 7.68005 5.97133 7.78272 5.99C7.81072 5.99 7.83405 5.98533 7.85272 5.976L8.39872 6.06C8.43605 6.06933 8.48272 6.06933 8.53872 6.06C8.60405 6.05067 8.66939 6.04133 8.73472 6.032C8.80939 6.01333 8.87939 5.99933 8.94472 5.99C9.01005 5.98067 9.06605 5.98067 9.11272 5.99C9.14072 5.99 9.16405 5.98533 9.18272 5.976L9.74272 6.06C9.83605 6.07867 9.91539 6.11133 9.98072 6.158C10.0554 6.20467 10.1301 6.25133 10.2047 6.298L10.2467 6.34C10.2561 6.368 10.2841 6.39133 10.3307 6.41C10.4801 6.48467 10.5967 6.58267 10.6807 6.704L10.7367 6.746C10.7554 6.76467 10.7741 6.79267 10.7927 6.83C10.8207 6.86733 10.8441 6.9 10.8627 6.928C10.8907 7.012 10.9281 7.10533 10.9747 7.208C10.9934 7.25467 11.0121 7.306 11.0307 7.362C11.0587 7.40867 11.0821 7.46467 11.1007 7.53C11.1381 7.59533 11.1661 7.67467 11.1847 7.768C11.1847 7.81467 11.1941 7.85667 11.2127 7.894L11.2407 8.034C11.2594 8.10867 11.2734 8.188 11.2827 8.272C11.2921 8.34667 11.3107 8.42133 11.3387 8.496L11.3527 8.65C11.3714 8.706 11.3854 8.762 11.3947 8.818C11.4041 8.86467 11.4134 8.91133 11.4227 8.958C11.4414 8.99533 11.4507 9.03267 11.4507 9.07C11.4507 9.10733 11.4554 9.14933 11.4647 9.196C11.4834 9.27067 11.4927 9.336 11.4927 9.392C11.5021 9.448 11.5067 9.50867 11.5067 9.574C11.5161 9.63933 11.5254 9.70467 11.5347 9.77C11.5441 9.826 11.5581 9.882 11.5767 9.938C11.5767 9.94733 11.5767 9.95667 11.5767 9.966C11.5861 9.966 11.5907 9.97067 11.5907 9.98C11.6094 10.092 11.6281 10.2087 11.6467 10.33C11.6747 10.4513 11.6981 10.5773 11.7167 10.708C11.7261 10.7547 11.7354 10.806 11.7447 10.862C11.7541 10.9087 11.7681 10.9553 11.7867 11.002L11.8007 11.1C11.8194 11.1467 11.8287 11.198 11.8287 11.254C11.8381 11.31 11.8521 11.3613 11.8707 11.408C11.8894 11.4547 11.8987 11.506 11.8987 11.562C11.9081 11.618 11.9174 11.674 11.9267 11.73C11.9267 11.758 11.9361 11.8 11.9547 11.856C11.9734 11.8933 11.9874 11.9307 11.9967 11.968C12.0061 12.0053 12.0154 12.0473 12.0247 12.094C12.0341 12.1407 12.0434 12.1873 12.0527 12.234C12.0621 12.2807 12.0667 12.3273 12.0667 12.374V12.388L12.1647 12.836C12.1834 12.8733 12.1927 12.8967 12.1927 12.906C12.1927 12.99 12.1974 13.074 12.2067 13.158C12.2254 13.2327 12.2441 13.3073 12.2627 13.382C12.2721 13.4287 12.2767 13.4753 12.2767 13.522C12.2861 13.5687 12.3001 13.6107 12.3187 13.648C12.3654 13.732 12.3934 13.8113 12.4027 13.886C12.4121 13.9607 12.4261 14.0353 12.4447 14.11L12.5427 14.432C12.5427 14.4693 12.5474 14.4927 12.5567 14.502C12.5661 14.5487 12.5661 14.586 12.5567 14.614C12.5474 14.642 12.5521 14.6747 12.5707 14.712C12.5987 14.7493 12.6221 14.8147 12.6407 14.908C12.6781 15.0107 12.7107 15.118 12.7387 15.23C12.7667 15.3327 12.7901 15.4353 12.8087 15.538C12.8181 15.594 12.8227 15.6547 12.8227 15.72C12.8227 15.776 12.8274 15.832 12.8367 15.888L12.8647 16.056ZM7.99272 10.834C7.99272 10.8247 7.99272 10.82 7.99272 10.82C8.00205 10.82 8.00672 10.8153 8.00672 10.806C7.99739 10.7593 7.98339 10.722 7.96472 10.694C7.95539 10.6567 7.95539 10.6147 7.96472 10.568C7.96472 10.5587 7.96005 10.5493 7.95072 10.54L7.93672 10.442C7.93672 10.4233 7.93205 10.4093 7.92272 10.4C7.91339 10.3813 7.90405 10.3627 7.89472 10.344V10.33C7.88539 10.274 7.87605 10.218 7.86672 10.162C7.85739 10.106 7.84805 10.0453 7.83872 9.98C7.82005 9.924 7.80605 9.868 7.79672 9.812C7.78739 9.74667 7.78272 9.68133 7.78272 9.616V9.574C7.75472 9.38733 7.72672 9.196 7.69872 9C7.67072 8.804 7.64739 8.60333 7.62872 8.398L7.61472 8.244C7.61472 8.244 7.61005 8.23933 7.60072 8.23L7.58672 8.244C7.56805 8.28133 7.55872 8.3 7.55872 8.3C7.52139 8.384 7.49805 8.46333 7.48872 8.538C7.46072 8.622 7.43272 8.706 7.40472 8.79C7.38605 8.86467 7.35339 8.93933 7.30672 9.014C7.28805 9.03267 7.27872 9.04667 7.27872 9.056C7.25072 9.13067 7.22272 9.20533 7.19472 9.28C7.16672 9.35467 7.14339 9.42933 7.12472 9.504C7.12472 9.52267 7.12005 9.546 7.11072 9.574C7.10139 9.59267 7.09205 9.61133 7.08272 9.63C7.06405 9.67667 7.04539 9.71867 7.02672 9.756C7.00805 9.79333 6.99405 9.83067 6.98472 9.868C6.99405 9.88667 6.99405 9.90067 6.98472 9.91C6.97539 9.91 6.97072 9.91467 6.97072 9.924C6.96139 9.94267 6.95205 9.96133 6.94272 9.98C6.94272 9.99867 6.93339 10.0173 6.91472 10.036C6.91472 10.0547 6.91005 10.0733 6.90072 10.092C6.89139 10.1107 6.88205 10.1293 6.87272 10.148C6.85405 10.1947 6.83539 10.2367 6.81672 10.274C6.79805 10.3113 6.77939 10.3533 6.76072 10.4C6.74205 10.428 6.72805 10.4607 6.71872 10.498C6.70939 10.526 6.69539 10.554 6.67672 10.582L6.64872 10.652C6.62072 10.6987 6.60205 10.7453 6.59272 10.792C6.58339 10.8293 6.56939 10.8713 6.55072 10.918V10.932C6.55072 10.9413 6.55072 10.946 6.55072 10.946C6.55072 10.946 6.55539 10.9507 6.56472 10.96C6.57405 10.9693 6.58805 10.974 6.60672 10.974C6.67205 10.9647 6.73272 10.96 6.78872 10.96C6.85405 10.96 6.91472 10.9553 6.97072 10.946C7.09205 10.9367 7.21339 10.9273 7.33472 10.918C7.46539 10.9087 7.59605 10.9087 7.72672 10.918C7.78272 10.918 7.82472 10.9133 7.85272 10.904C7.89005 10.904 7.91339 10.8947 7.92272 10.876C7.94139 10.848 7.96472 10.8387 7.99272 10.848V10.834ZM19.7654 10.75C19.7747 10.8527 19.7747 10.9507 19.7654 11.044C19.7561 11.0533 19.7514 11.072 19.7514 11.1C19.7514 11.156 19.7467 11.212 19.7374 11.268C19.7374 11.324 19.7374 11.38 19.7374 11.436V11.758C19.7374 11.8047 19.7327 11.856 19.7234 11.912C19.7141 11.9587 19.7001 12.0053 19.6814 12.052C19.6814 12.0707 19.6767 12.0847 19.6674 12.094C19.6674 12.1033 19.6674 12.1173 19.6674 12.136C19.6487 12.2293 19.6394 12.2993 19.6394 12.346C19.6394 12.3927 19.6347 12.4347 19.6254 12.472C19.6254 12.5 19.6207 12.5373 19.6114 12.584C19.5647 12.7427 19.5367 12.9013 19.5274 13.06V13.074C19.5367 13.1487 19.5321 13.2187 19.5134 13.284C19.5041 13.3493 19.4901 13.4193 19.4714 13.494L19.4294 13.816C19.4201 13.9093 19.4107 13.998 19.4014 14.082C19.4014 14.166 19.3921 14.25 19.3734 14.334L19.3314 14.642C19.3314 14.7167 19.3361 14.768 19.3454 14.796C19.3547 14.8147 19.3594 14.838 19.3594 14.866C19.3501 14.9127 19.3454 14.9547 19.3454 14.992C19.3454 15.02 19.3407 15.0527 19.3314 15.09C19.3127 15.1553 19.2987 15.2207 19.2894 15.286C19.2894 15.3513 19.2847 15.4167 19.2754 15.482C19.2754 15.5847 19.2614 15.6827 19.2334 15.776C19.2147 15.8507 19.1961 15.9207 19.1774 15.986C19.1681 16.042 19.1541 16.1073 19.1354 16.182C19.1167 16.2567 19.1074 16.3127 19.1074 16.35C19.0981 16.3967 19.0887 16.4433 19.0794 16.49C19.0701 16.5367 19.0607 16.5833 19.0514 16.63L19.0094 16.826C19.0001 16.854 18.9907 16.882 18.9814 16.91C18.9721 16.938 18.9627 16.9707 18.9534 17.008C18.9441 17.0267 18.9347 17.05 18.9254 17.078C18.9161 17.106 18.9114 17.1387 18.9114 17.176V17.232C18.8927 17.2507 18.8787 17.274 18.8694 17.302C18.8694 17.3393 18.8647 17.372 18.8554 17.4C18.8554 17.4373 18.8461 17.484 18.8274 17.54C18.8087 17.5867 18.7947 17.6333 18.7854 17.68C18.7761 17.7267 18.7714 17.7733 18.7714 17.82C18.7621 17.8387 18.7574 17.8573 18.7574 17.876C18.7574 17.904 18.7481 17.9273 18.7294 17.946C18.7201 17.9553 18.7154 17.9693 18.7154 17.988C18.6967 18.0347 18.6827 18.072 18.6734 18.1C18.6641 18.1373 18.6547 18.1793 18.6454 18.226C18.6361 18.2353 18.6314 18.2493 18.6314 18.268C18.5941 18.4173 18.5661 18.52 18.5474 18.576C18.5381 18.6413 18.5101 18.73 18.4634 18.842C18.4447 18.8887 18.4307 18.9307 18.4214 18.968C18.4121 19.0147 18.3981 19.0613 18.3794 19.108C18.3607 19.164 18.3421 19.22 18.3234 19.276C18.3047 19.332 18.2861 19.388 18.2674 19.444C18.2394 19.5093 18.2067 19.5747 18.1694 19.64C18.1694 19.6587 18.1601 19.6867 18.1414 19.724C18.1227 19.752 18.1087 19.7753 18.0994 19.794C18.0901 19.822 18.0761 19.85 18.0574 19.878C18.0481 19.8873 18.0341 19.9107 18.0154 19.948C17.9781 20.032 17.9221 20.1207 17.8474 20.214C17.8194 20.2513 17.7867 20.3073 17.7494 20.382C17.7307 20.4007 17.7074 20.4193 17.6794 20.438C17.6607 20.4567 17.6421 20.48 17.6234 20.508C17.6141 20.5267 17.6047 20.536 17.5954 20.536C17.5861 20.5453 17.5767 20.5547 17.5674 20.564C17.5114 20.6013 17.4787 20.6247 17.4694 20.634C17.4414 20.6713 17.3901 20.7087 17.3154 20.746C17.2967 20.7553 17.2781 20.76 17.2594 20.76C17.2501 20.7693 17.2361 20.7833 17.2174 20.802C17.1707 20.8207 17.1287 20.8393 17.0914 20.858C17.0541 20.8767 17.0121 20.8907 16.9654 20.9C16.9281 20.9093 16.8954 20.9187 16.8674 20.928C16.8394 20.9373 16.8067 20.9513 16.7694 20.97C16.7507 20.9793 16.7274 20.984 16.6994 20.984C16.6807 20.984 16.6621 20.9887 16.6434 20.998C16.6061 21.0167 16.5314 21.0353 16.4194 21.054C16.3074 21.0727 16.1861 21.0913 16.0554 21.11C15.9061 21.1287 15.7474 21.1473 15.5794 21.166C15.5421 21.166 15.5094 21.166 15.4814 21.166C15.4534 21.1753 15.4207 21.1753 15.3834 21.166C15.3087 21.1473 15.2387 21.1333 15.1734 21.124C15.1174 21.1147 15.0567 21.096 14.9914 21.068C14.9447 21.0493 14.9027 21.0307 14.8654 21.012C14.8374 20.9933 14.8047 20.9653 14.7674 20.928C14.6181 20.8067 14.5107 20.662 14.4454 20.494C14.3707 20.3167 14.3334 20.13 14.3334 19.934L14.3754 19.598C14.3847 19.4953 14.3987 19.402 14.4174 19.318C14.4361 19.234 14.4594 19.1453 14.4874 19.052C14.5061 19.0147 14.5201 18.9773 14.5294 18.94C14.5481 18.912 14.5667 18.8793 14.5854 18.842L14.6834 18.618C14.7021 18.59 14.7114 18.562 14.7114 18.534C14.7207 18.5153 14.7347 18.4967 14.7534 18.478C14.8001 18.3753 14.8514 18.2773 14.9074 18.184C14.9727 18.1 15.0381 18.0113 15.1034 17.918L15.2434 17.736L15.4114 17.526C15.4301 17.4887 15.4534 17.456 15.4814 17.428C15.5094 17.4093 15.5374 17.386 15.5654 17.358L15.7194 17.19C15.7381 17.1713 15.7521 17.1527 15.7614 17.134C15.7801 17.1247 15.7987 17.1107 15.8174 17.092C15.8921 17.036 15.9574 16.9753 16.0134 16.91C16.0787 16.854 16.1441 16.798 16.2094 16.742C16.2934 16.6767 16.3354 16.6393 16.3354 16.63C16.3447 16.6207 16.3587 16.5693 16.3774 16.476C16.3961 16.4293 16.4054 16.3873 16.4054 16.35C16.4147 16.3127 16.4241 16.2707 16.4334 16.224C16.4427 16.1867 16.4474 16.1493 16.4474 16.112C16.4567 16.084 16.4707 16.0467 16.4894 16C16.5081 15.8693 16.5314 15.748 16.5594 15.636C16.5874 15.5147 16.6107 15.3887 16.6294 15.258C16.6481 15.1927 16.6574 15.1273 16.6574 15.062C16.6667 14.9967 16.6761 14.9313 16.6854 14.866V14.754C16.6854 14.7353 16.6761 14.726 16.6574 14.726C16.6387 14.726 16.6294 14.712 16.6294 14.684V14.642L16.6154 14.628C16.6061 14.628 16.5967 14.6327 16.5874 14.642C16.5034 14.7167 16.3914 14.768 16.2514 14.796C16.1954 14.8147 16.1347 14.838 16.0694 14.866C16.0507 14.8847 16.0134 14.9033 15.9574 14.922C15.7707 14.978 15.5841 14.992 15.3974 14.964C15.3227 14.9547 15.2481 14.9407 15.1734 14.922C15.1081 14.9033 15.0381 14.8847 14.9634 14.866C14.8141 14.8007 14.6694 14.7073 14.5294 14.586C14.5014 14.558 14.4781 14.53 14.4594 14.502C14.4501 14.4647 14.4361 14.4273 14.4174 14.39C14.4081 14.3713 14.4034 14.3573 14.4034 14.348C14.4034 14.3293 14.3941 14.3107 14.3754 14.292C14.3381 14.2267 14.3007 14.166 14.2634 14.11C14.2354 14.0447 14.1981 13.984 14.1514 13.928C14.1327 13.928 14.1234 13.9187 14.1234 13.9C14.1234 13.8907 14.1141 13.8533 14.0954 13.788C14.0861 13.7133 14.0721 13.6387 14.0534 13.564C14.0441 13.48 14.0301 13.4053 14.0114 13.34C14.0021 13.2653 13.9927 13.2187 13.9834 13.2C13.9741 13.1907 13.9694 13.1767 13.9694 13.158C13.9787 13.1207 13.9787 13.088 13.9694 13.06C13.9694 13.032 13.9647 12.9993 13.9554 12.962C13.9461 12.9153 13.9414 12.8733 13.9414 12.836C13.9414 12.7987 13.9414 12.7567 13.9414 12.71C13.9321 12.6633 13.9321 12.6167 13.9414 12.57C13.9414 12.514 13.9367 12.458 13.9274 12.402C13.9274 12.3367 13.9321 12.276 13.9414 12.22C13.9414 12.1547 13.9414 12.0893 13.9414 12.024C13.9414 11.9867 13.9507 11.9307 13.9694 11.856C13.9787 11.8093 13.9834 11.7673 13.9834 11.73C13.9927 11.6833 14.0067 11.6367 14.0254 11.59V11.562C14.0254 11.5153 14.0301 11.4687 14.0394 11.422C14.0581 11.3753 14.0767 11.3287 14.0954 11.282C14.0954 11.2633 14.1047 11.254 14.1234 11.254C14.1701 11.254 14.1747 11.2353 14.1374 11.198C14.1281 11.1887 14.1234 11.1747 14.1234 11.156L14.1514 11.086C14.1514 11.0767 14.1514 11.072 14.1514 11.072C14.1607 11.0627 14.1654 11.0533 14.1654 11.044C14.1934 11.016 14.2121 10.9927 14.2214 10.974C14.2307 10.9553 14.2307 10.9413 14.2214 10.932C14.2214 10.9133 14.2261 10.8993 14.2354 10.89C14.2541 10.8527 14.2727 10.806 14.2914 10.75V10.722C14.3194 10.6847 14.3427 10.6473 14.3614 10.61C14.3801 10.5727 14.4081 10.5353 14.4454 10.498C14.4454 10.498 14.4547 10.4887 14.4734 10.47C14.4827 10.442 14.5061 10.4 14.5434 10.344C14.5621 10.3253 14.5761 10.3067 14.5854 10.288C14.5947 10.26 14.6087 10.2367 14.6274 10.218C14.6834 10.1433 14.7254 10.092 14.7534 10.064C14.7534 10.0453 14.7581 10.036 14.7674 10.036C14.8141 10.008 14.8514 9.97533 14.8794 9.938C14.9074 9.89133 14.9401 9.84933 14.9774 9.812C15.0241 9.756 15.0707 9.7 15.1174 9.644C15.1641 9.57867 15.2107 9.518 15.2574 9.462L15.3134 9.406C15.3414 9.378 15.3601 9.35467 15.3694 9.336C15.3881 9.29867 15.4067 9.27067 15.4254 9.252C15.4534 9.23333 15.4814 9.21 15.5094 9.182H15.5374C15.5654 9.182 15.5887 9.17733 15.6074 9.168C15.6261 9.14933 15.6447 9.13067 15.6634 9.112C15.7007 9.07467 15.7381 9.042 15.7754 9.014C15.8127 8.97667 15.8501 8.93467 15.8874 8.888C15.8967 8.888 15.9107 8.87867 15.9294 8.86C15.9761 8.82267 16.0274 8.79 16.0834 8.762C16.1394 8.72467 16.1954 8.68733 16.2514 8.65C16.2701 8.64067 16.2887 8.63133 16.3074 8.622C16.3261 8.61267 16.3447 8.59867 16.3634 8.58C16.3821 8.56133 16.4007 8.54733 16.4194 8.538C16.4381 8.51933 16.4614 8.51 16.4894 8.51C16.5361 8.49133 16.5687 8.468 16.5874 8.44C16.5967 8.42133 16.6154 8.412 16.6434 8.412C16.6621 8.412 16.6901 8.40267 16.7274 8.384C16.7834 8.36533 16.8394 8.34667 16.8954 8.328C16.9514 8.3 17.0074 8.272 17.0634 8.244C17.1194 8.22533 17.1521 8.202 17.1614 8.174H17.1754C17.1941 8.18333 17.2034 8.19267 17.2034 8.202C17.2127 8.21133 17.2221 8.22067 17.2314 8.23C17.2687 8.26733 17.3061 8.28133 17.3434 8.272H17.4134C17.4227 8.28133 17.4274 8.286 17.4274 8.286C17.4367 8.286 17.4461 8.29067 17.4554 8.3C17.4834 8.328 17.5114 8.34667 17.5394 8.356C17.5581 8.356 17.5721 8.36067 17.5814 8.37C17.5907 8.37933 17.6047 8.38867 17.6234 8.398C17.7074 8.49133 17.8101 8.58467 17.9314 8.678C17.9407 8.68733 17.9454 8.706 17.9454 8.734C17.9267 8.80867 17.9174 8.86933 17.9174 8.916C17.9174 8.95333 17.9034 8.972 17.8754 8.972C17.8287 8.99067 17.8007 9.01867 17.7914 9.056C17.7727 9.084 17.7494 9.112 17.7214 9.14C17.7027 9.15867 17.6701 9.17733 17.6234 9.196L17.5394 9.252C17.5301 9.27067 17.5114 9.294 17.4834 9.322C17.4554 9.34067 17.4274 9.35933 17.3994 9.378C17.3807 9.39667 17.3621 9.42 17.3434 9.448C17.3434 9.46667 17.3341 9.476 17.3154 9.476C17.2687 9.504 17.2407 9.532 17.2314 9.56L17.1894 9.602C17.1427 9.62067 17.0961 9.644 17.0494 9.672C17.0121 9.7 16.9701 9.72333 16.9234 9.742C16.9047 9.75133 16.8861 9.76533 16.8674 9.784C16.8301 9.83067 16.7881 9.87267 16.7414 9.91C16.6947 9.94733 16.6481 9.98467 16.6014 10.022C16.5641 10.0407 16.5127 10.0827 16.4474 10.148C16.4007 10.1947 16.3541 10.246 16.3074 10.302C16.2701 10.3487 16.2327 10.4047 16.1954 10.47L16.1254 10.554C16.0507 10.6287 15.9854 10.708 15.9294 10.792C15.8734 10.8667 15.8361 10.9227 15.8174 10.96L15.7754 11.002C15.7567 11.0487 15.7334 11.0907 15.7054 11.128C15.6774 11.1653 15.6541 11.2073 15.6354 11.254C15.5607 11.394 15.5047 11.5153 15.4674 11.618C15.4487 11.674 15.4301 11.73 15.4114 11.786C15.3927 11.8327 15.3741 11.8793 15.3554 11.926C15.3461 11.954 15.3367 11.982 15.3274 12.01C15.3181 12.0287 15.3134 12.052 15.3134 12.08V12.122C15.2947 12.1687 15.2807 12.2153 15.2714 12.262C15.2714 12.3087 15.2714 12.3553 15.2714 12.402V12.458C15.2714 12.5047 15.2667 12.556 15.2574 12.612C15.2574 12.6587 15.2667 12.7053 15.2854 12.752V12.878C15.2667 12.9247 15.2667 12.9667 15.2854 13.004C15.2947 13.0693 15.3041 13.1347 15.3134 13.2C15.3227 13.256 15.3367 13.3213 15.3554 13.396C15.3647 13.4427 15.3741 13.4847 15.3834 13.522C15.4021 13.55 15.4207 13.5873 15.4394 13.634C15.4581 13.6713 15.4767 13.7133 15.4954 13.76C15.5234 13.7973 15.5467 13.8393 15.5654 13.886C15.5654 13.8953 15.5654 13.9047 15.5654 13.914C15.5747 13.914 15.5794 13.9187 15.5794 13.928C15.6261 13.9747 15.6681 14.0213 15.7054 14.068C15.7427 14.1147 15.7847 14.1613 15.8314 14.208C15.8501 14.2267 15.8687 14.2453 15.8874 14.264C15.9061 14.2733 15.9247 14.2873 15.9434 14.306C16.0181 14.3527 16.0927 14.362 16.1674 14.334C16.2234 14.3247 16.2747 14.3013 16.3214 14.264C16.4707 14.1427 16.5874 13.998 16.6714 13.83L16.7974 13.578C16.8161 13.5127 16.8394 13.452 16.8674 13.396C16.8954 13.34 16.9187 13.284 16.9374 13.228C16.9561 13.1813 16.9701 13.144 16.9794 13.116C16.9887 13.0787 16.9981 13.0367 17.0074 12.99L17.0494 12.892C17.0587 12.8733 17.0634 12.8547 17.0634 12.836C17.0727 12.8173 17.0821 12.7987 17.0914 12.78C17.0914 12.752 17.1007 12.7193 17.1194 12.682C17.1381 12.6447 17.1521 12.6073 17.1614 12.57C17.1801 12.5327 17.1987 12.4953 17.2174 12.458C17.2267 12.402 17.2361 12.3507 17.2454 12.304C17.2547 12.248 17.2687 12.1967 17.2874 12.15L17.4134 11.674C17.4134 11.646 17.4227 11.6133 17.4414 11.576L17.4834 11.38C17.4927 11.3613 17.4974 11.3427 17.4974 11.324C17.4974 11.3053 17.5021 11.2867 17.5114 11.268C17.5207 11.24 17.5301 11.212 17.5394 11.184C17.5487 11.1467 17.5487 11.114 17.5394 11.086C17.5394 11.086 17.5394 11.0673 17.5394 11.03L17.5814 10.89C17.6001 10.834 17.6187 10.778 17.6374 10.722C17.6654 10.6567 17.6887 10.5913 17.7074 10.526C17.7167 10.5073 17.7214 10.4887 17.7214 10.47C17.7214 10.442 17.7261 10.414 17.7354 10.386C17.7447 10.3207 17.7821 10.2833 17.8474 10.274C17.8754 10.274 17.8941 10.2693 17.9034 10.26C17.9221 10.2507 17.9501 10.246 17.9874 10.246L19.0514 10.078C19.1074 10.0687 19.1541 10.0687 19.1914 10.078C19.2287 10.0967 19.2614 10.106 19.2894 10.106C19.3081 10.1153 19.3314 10.1247 19.3594 10.134C19.3874 10.134 19.4107 10.1433 19.4294 10.162C19.4667 10.1807 19.4994 10.204 19.5274 10.232C19.5647 10.2507 19.6021 10.274 19.6394 10.302C19.6674 10.3113 19.6861 10.33 19.6954 10.358C19.7421 10.4047 19.7607 10.47 19.7514 10.554C19.7327 10.582 19.7327 10.6193 19.7514 10.666C19.7514 10.7033 19.7561 10.7313 19.7654 10.75ZM15.5374 19.766C15.5561 19.6913 15.5747 19.6213 15.5934 19.556C15.6214 19.4907 15.6447 19.4253 15.6634 19.36C15.7007 19.2293 15.7334 19.1033 15.7614 18.982C15.7987 18.8607 15.8407 18.7393 15.8874 18.618L15.9154 18.506C15.9341 18.45 15.9481 18.394 15.9574 18.338C15.9667 18.2913 15.9807 18.24 15.9994 18.184C16.0181 18.1093 16.0321 18.0393 16.0414 17.974C16.0601 17.9087 16.0787 17.8387 16.0974 17.764L16.1394 17.47V17.456H16.1254C16.0881 17.484 16.0554 17.512 16.0274 17.54C15.9994 17.568 15.9667 17.6007 15.9294 17.638C15.9014 17.666 15.8687 17.694 15.8314 17.722C15.8034 17.7593 15.7754 17.7967 15.7474 17.834L15.6214 17.974C15.5747 18.03 15.5327 18.086 15.4954 18.142C15.4581 18.198 15.4207 18.2587 15.3834 18.324C15.3647 18.3427 15.3367 18.38 15.2994 18.436C15.2527 18.5013 15.2107 18.5667 15.1734 18.632C15.1361 18.6973 15.1034 18.7673 15.0754 18.842C15.0754 18.8513 15.0707 18.856 15.0614 18.856C15.0614 18.856 15.0614 18.8607 15.0614 18.87C15.0427 18.9073 15.0241 18.94 15.0054 18.968C14.9961 19.0053 14.9821 19.0427 14.9634 19.08C14.9541 19.1827 14.9261 19.2853 14.8794 19.388V19.416C14.8701 19.4813 14.8607 19.542 14.8514 19.598C14.8421 19.6633 14.8421 19.7287 14.8514 19.794V19.85C14.8514 19.8967 14.8514 19.9433 14.8514 19.99C14.8514 20.0367 14.8607 20.0833 14.8794 20.13C14.8887 20.1487 14.8934 20.1767 14.8934 20.214C14.9027 20.2793 14.9214 20.34 14.9494 20.396C14.9774 20.4613 15.0101 20.5173 15.0474 20.564C15.0474 20.5733 15.0614 20.578 15.0894 20.578C15.1454 20.5593 15.1874 20.5267 15.2154 20.48L15.3834 20.228C15.4021 20.1907 15.4207 20.144 15.4394 20.088C15.4581 19.9573 15.4907 19.8547 15.5374 19.78V19.766Z" fill="#888888"/>
</svg>
