<svg width="24" height="24" viewBox="0 0 24 24" fill="none" xmlns="http://www.w3.org/2000/svg">
<path d="M8.78008 6.97822L12.0104 16.2207L11.4193 15.9659L12.7135 16.2105L12.6421 17.1276H8.38266L8.454 16.1901C8.75291 16.0542 9.14013 15.9388 9.61567 15.8436L9.41187 16.1188L6.68091 7.67115L6.2733 7.02917C6.63336 6.9952 7.02738 6.97482 7.45536 6.96803C7.89014 6.95444 8.33171 6.95784 8.78008 6.97822ZM7.66935 7.03936L4.67345 16.2207L4.43908 15.9354L5.74342 16.2105L5.67209 17.1276H2.43162L2.50295 16.2309C2.63202 16.1561 2.80186 16.0882 3.01246 16.0271C3.22305 15.9591 3.45403 15.898 3.70539 15.8436L3.06341 16.2207L6.2733 7.02917L7.66935 7.03936ZM4.51041 14.4272L4.84668 13.1636H9.74814L10.0946 14.4272H4.51041ZM16.545 14.631C15.5192 14.631 14.704 14.3831 14.0993 13.8871C13.4947 13.3844 13.1924 12.7119 13.1924 11.8695C13.1924 11.0203 13.4947 10.3444 14.0993 9.84165C14.7107 9.33893 15.5294 9.08758 16.5552 9.08758C17.0783 9.08758 17.598 9.20646 18.1143 9.44423C18.6306 9.682 19.0585 10.0081 19.3982 10.4225C19.7447 10.8369 19.9179 11.3158 19.9179 11.8593C19.9179 12.7017 19.6122 13.3742 19.0008 13.8769C18.3962 14.3797 17.5776 14.631 16.545 14.631ZM16.6469 13.5203C17.2923 13.5203 17.6149 13.021 17.6149 12.0223C17.6149 10.8063 17.2243 10.1983 16.4431 10.1983C15.8113 10.1983 15.4954 10.6976 15.4954 11.6963C15.4954 12.2805 15.5939 12.7323 15.7909 13.0515C15.9879 13.364 16.2732 13.5203 16.6469 13.5203ZM20.7739 10.5651L18.2365 10.4429L16.5552 9.08758C16.8745 9.08758 17.1394 9.10796 17.35 9.14872C17.5606 9.18268 17.7576 9.22005 17.941 9.26081C18.1312 9.30157 18.3452 9.32195 18.583 9.32195C18.7528 9.32195 19.0551 9.31176 19.4899 9.29138C19.9315 9.26421 20.4036 9.22684 20.9064 9.17929L20.7739 10.5651ZM16.3921 20.6942C15.3188 20.6942 14.4628 20.5073 13.8242 20.1337C13.1924 19.7669 12.8765 19.2675 12.8765 18.6357C12.8765 17.7662 13.5525 17.131 14.9044 16.7302L15.5361 17.0767C15.047 17.4571 14.8025 17.8681 14.8025 18.3097C14.8025 18.7037 14.9655 19.006 15.2916 19.2166C15.6245 19.4272 16.1 19.5325 16.7182 19.5325C17.3704 19.5325 17.8901 19.4136 18.2773 19.1758C18.6713 18.9448 18.8683 18.6323 18.8683 18.2383C18.8683 17.8783 18.6407 17.6983 18.1856 17.6983H15.7196C15.1014 17.6983 14.6224 17.559 14.2828 17.2805C13.9499 17.0087 13.7834 16.6181 13.7834 16.1086C13.7834 15.2322 14.3269 14.5223 15.4139 13.9788L16.2393 14.1215C15.7366 14.5019 15.4852 14.8858 15.4852 15.273C15.4852 15.6127 15.7128 15.7825 16.1679 15.7825H18.634C19.4152 15.7825 20.013 15.9421 20.4274 16.2614C20.8486 16.5739 21.0592 17.0257 21.0592 17.6167C21.0592 18.2078 20.8588 18.7343 20.458 19.1962C20.0572 19.665 19.5035 20.0318 18.797 20.2967C18.0973 20.5617 17.2956 20.6942 16.3921 20.6942Z" fill="#888888"/>
</svg>
