<svg width="24" height="24" viewBox="0 0 24 24" fill="none" xmlns="http://www.w3.org/2000/svg">
<path d="M3.28599 15.216L6.84199 5.388H7.98999L11.392 15.216L12.484 15.412V16H8.87199V15.412L10.006 15.216L9.27799 13.018H5.17599L4.43399 15.216L5.56799 15.412V16H2.30599V15.412L3.28599 15.216ZM7.89199 8.874L7.24799 6.816L5.44199 12.206H8.99799L7.89199 8.874ZM16.6912 8.062C17.4752 8.062 18.1099 8.244 18.5952 8.608C18.8005 8.37467 19.1692 8.258 19.7012 8.258H20.5272V9.294H19.1832C19.3885 9.64867 19.4912 10.0827 19.4912 10.596C19.4912 11.1747 19.3512 11.6787 19.0712 12.108C18.7912 12.528 18.4179 12.85 17.9512 13.074C17.4939 13.2887 16.9899 13.396 16.4392 13.396C15.8979 13.396 15.4172 13.312 14.9972 13.144C14.9319 13.3027 14.9039 13.48 14.9132 13.676C14.9225 13.872 14.9272 13.9887 14.9272 14.026C14.9272 14.278 14.9925 14.474 15.1232 14.614C15.2632 14.7447 15.4872 14.8193 15.7952 14.838C16.0752 14.866 16.6632 14.88 17.5592 14.88C18.3432 14.88 18.9312 14.992 19.3232 15.216C19.7245 15.4307 19.9812 15.6873 20.0932 15.986C20.2052 16.2847 20.2612 16.63 20.2612 17.022C20.2612 17.8153 19.9392 18.4453 19.2952 18.912C18.6605 19.388 17.7832 19.626 16.6632 19.626C15.7205 19.626 14.9319 19.4673 14.2972 19.15C13.6719 18.8327 13.3592 18.3147 13.3592 17.596C13.3592 17.2133 13.4759 16.854 13.7092 16.518C13.9519 16.182 14.2225 15.9207 14.5212 15.734C14.2692 15.6407 14.0872 15.5287 13.9752 15.398C13.8632 15.2673 13.7979 15.146 13.7792 15.034C13.7605 14.9127 13.7512 14.7493 13.7512 14.544C13.7512 14.3573 13.8259 14.1007 13.9752 13.774C14.1339 13.438 14.3392 13.158 14.5912 12.934C13.8539 12.4767 13.4852 11.7813 13.4852 10.848C13.4852 10.2413 13.6345 9.728 13.9332 9.308C14.2412 8.888 14.6379 8.57533 15.1232 8.37C15.6179 8.16467 16.1405 8.062 16.6912 8.062ZM16.4252 8.776C15.3425 8.776 14.8012 9.378 14.8012 10.582C14.8012 11.198 14.9505 11.702 15.2492 12.094C15.5479 12.4767 16.0099 12.668 16.6352 12.668C17.1859 12.668 17.5779 12.514 17.8112 12.206C18.0539 11.898 18.1752 11.422 18.1752 10.778C18.1752 10.0967 18.0305 9.59267 17.7412 9.266C17.4519 8.93933 17.0132 8.776 16.4252 8.776ZM15.0392 15.874C14.7685 16.2007 14.6332 16.63 14.6332 17.162C14.6332 17.7407 14.8385 18.1653 15.2492 18.436C15.6599 18.716 16.1872 18.856 16.8312 18.856C17.5779 18.856 18.1565 18.73 18.5672 18.478C18.9872 18.226 19.1972 17.8527 19.1972 17.358C19.1972 17.0407 19.1459 16.7793 19.0432 16.574C18.9405 16.378 18.7445 16.2287 18.4552 16.126C18.1659 16.0233 17.7459 15.972 17.1952 15.972L16.3272 15.958C15.8045 15.958 15.3752 15.93 15.0392 15.874Z" fill="#333333"/>
</svg>
