<svg width="24" height="24" viewBox="0 0 24 24" fill="none" xmlns="http://www.w3.org/2000/svg">
<path d="M3.26548 15.258L6.86348 5.374H7.92748L11.3855 15.258L12.4915 15.44V16H8.94948V15.44L10.0835 15.258L9.31348 12.99H5.11348L4.34348 15.258L5.49148 15.44V16H2.28548V15.44L3.26548 15.258ZM7.82948 8.622L7.24148 6.718L5.36548 12.234H9.04748L7.82948 8.622ZM16.684 8.062C17.4494 8.062 18.0794 8.23933 18.574 8.594C18.798 8.37 19.1807 8.258 19.722 8.258H20.548V9.224H19.134C19.3767 9.60667 19.498 10.064 19.498 10.596C19.498 11.1747 19.358 11.6787 19.078 12.108C18.798 12.528 18.4247 12.85 17.958 13.074C17.4914 13.2887 16.9827 13.396 16.432 13.396C15.8907 13.396 15.4147 13.312 15.004 13.144C14.948 13.2747 14.9107 13.4147 14.892 13.564C14.8827 13.704 14.878 13.8767 14.878 14.082C14.878 14.3527 14.948 14.558 15.088 14.698C15.228 14.8287 15.466 14.9033 15.802 14.922C15.9514 14.9407 16.264 14.95 16.74 14.95H17.538C18.3314 14.95 18.9287 15.0573 19.33 15.272C19.7314 15.4867 19.988 15.7387 20.1 16.028C20.212 16.3267 20.268 16.6673 20.268 17.05C20.268 17.5727 20.1187 18.0253 19.82 18.408C19.5307 18.8 19.1154 19.0987 18.574 19.304C18.0327 19.5187 17.398 19.626 16.67 19.626C15.718 19.626 14.9247 19.4673 14.29 19.15C13.6647 18.842 13.352 18.3287 13.352 17.61C13.352 17.218 13.4734 16.8493 13.716 16.504C13.9587 16.168 14.2247 15.9113 14.514 15.734C14.2807 15.6407 14.108 15.5333 13.996 15.412C13.884 15.2813 13.8187 15.1553 13.8 15.034C13.7814 14.9127 13.772 14.754 13.772 14.558C13.772 14.362 13.8467 14.1007 13.996 13.774C14.1547 13.4473 14.36 13.172 14.612 12.948C13.8467 12.5 13.464 11.8 13.464 10.848C13.464 10.2413 13.618 9.728 13.926 9.308C14.234 8.888 14.6307 8.57533 15.116 8.37C15.6107 8.16467 16.1334 8.062 16.684 8.062ZM16.432 8.734C15.9094 8.734 15.4894 8.88333 15.172 9.182C14.8547 9.48067 14.696 9.95667 14.696 10.61C14.696 11.2353 14.8547 11.744 15.172 12.136C15.4987 12.5187 15.984 12.71 16.628 12.71C17.188 12.71 17.6034 12.5513 17.874 12.234C18.1447 11.9167 18.28 11.4313 18.28 10.778C18.28 10.078 18.126 9.56467 17.818 9.238C17.51 8.902 17.048 8.734 16.432 8.734ZM15.018 15.86C14.7007 16.196 14.542 16.644 14.542 17.204C14.542 17.8013 14.7614 18.2353 15.2 18.506C15.6387 18.7767 16.1847 18.912 16.838 18.912C17.594 18.912 18.1867 18.7813 18.616 18.52C19.0547 18.2587 19.274 17.8713 19.274 17.358C19.274 17.0407 19.218 16.784 19.106 16.588C19.0034 16.392 18.8027 16.238 18.504 16.126C18.2054 16.0233 17.7807 15.972 17.23 15.972L16.264 15.958C15.732 15.958 15.3167 15.9253 15.018 15.86Z" fill="#333333"/>
</svg>
