<svg width="24" height="24" viewBox="0 0 24 24" fill="none" xmlns="http://www.w3.org/2000/svg">
<path d="M9.78374 11.724H5.76574L4.50574 15H3.73574L7.44574 5.354H8.11774L11.8417 15H11.0437L9.78374 11.724ZM9.53174 11.08L7.76774 6.474L6.00374 11.08H9.53174ZM19.4284 8.336L17.6504 8.21C18.0331 8.63 18.2244 9.162 18.2244 9.806C18.2244 10.2447 18.1311 10.646 17.9444 11.01C17.7578 11.374 17.4778 11.668 17.1044 11.892C16.7311 12.1067 16.2691 12.214 15.7184 12.214C15.3824 12.214 15.0604 12.1673 14.7524 12.074C14.3884 12.382 14.1411 12.62 14.0104 12.788C13.8798 12.956 13.8144 13.1473 13.8144 13.362C13.8144 13.5953 13.8984 13.7587 14.0664 13.852C14.2438 13.9453 14.5191 13.992 14.8924 13.992H17.3984C18.0051 13.992 18.4718 14.1507 18.7984 14.468C19.1344 14.7853 19.3024 15.2053 19.3024 15.728C19.3024 16.232 19.1298 16.6893 18.7844 17.1C18.4484 17.52 17.9818 17.8467 17.3844 18.08C16.7871 18.3227 16.1198 18.444 15.3824 18.444C14.4398 18.444 13.7631 18.2667 13.3524 17.912C12.9511 17.5667 12.7504 17.1233 12.7504 16.582C12.7504 16.1713 12.8438 15.8213 13.0304 15.532C13.2171 15.252 13.5298 14.9347 13.9684 14.58C13.6324 14.4867 13.4038 14.342 13.2824 14.146C13.1611 13.95 13.1004 13.726 13.1004 13.474C13.1004 13.2033 13.1798 12.9513 13.3384 12.718C13.4971 12.4753 13.7771 12.1673 14.1784 11.794C13.8611 11.5793 13.6184 11.2993 13.4504 10.954C13.2918 10.6087 13.2124 10.2353 13.2124 9.834C13.2124 9.15267 13.4271 8.58333 13.8564 8.126C14.2858 7.66867 14.9064 7.44 15.7184 7.44C16.2131 7.44 16.6471 7.53333 17.0204 7.72H19.4284V8.336ZM15.7184 11.584C16.2598 11.584 16.6798 11.4207 16.9784 11.094C17.2864 10.758 17.4404 10.3333 17.4404 9.82C17.4404 9.30667 17.2864 8.88667 16.9784 8.56C16.6798 8.23333 16.2598 8.07 15.7184 8.07C15.1864 8.07 14.7664 8.238 14.4584 8.574C14.1504 8.90067 13.9964 9.316 13.9964 9.82C13.9964 10.3333 14.1458 10.758 14.4444 11.094C14.7524 11.4207 15.1771 11.584 15.7184 11.584ZM18.6024 15.812C18.6024 15.0653 18.1918 14.692 17.3704 14.692H14.8924H14.7384C14.3091 15.0187 13.9871 15.3173 13.7724 15.588C13.5671 15.8587 13.4644 16.176 13.4644 16.54C13.4644 16.9973 13.6324 17.324 13.9684 17.52C14.3044 17.716 14.7758 17.814 15.3824 17.814C15.9891 17.814 16.5351 17.716 17.0204 17.52C17.5151 17.324 17.9024 17.0673 18.1824 16.75C18.4624 16.442 18.6024 16.1293 18.6024 15.812Z" fill="#333333"/>
</svg>
