<svg width="24" height="24" viewBox="0 0 24 24" fill="none" xmlns="http://www.w3.org/2000/svg">
<path d="M9.4018 8.278H9.38781C9.06114 9.12733 8.7298 9.96733 8.3938 10.798C8.0578 11.6193 7.72647 12.4547 7.3998 13.304H9.5978L9.4018 8.278ZM5.9018 16.986H4.9498L8.9118 7.186H10.2418L10.7598 16.986H9.8218L9.6678 14.312H6.9658L5.9018 16.986ZM16.2453 11.176C15.928 10.9893 15.6526 10.8727 15.4193 10.826C15.1953 10.7793 15.004 10.756 14.8453 10.756C14.5653 10.756 14.304 10.8633 14.0613 11.078C13.828 11.2833 13.688 11.5307 13.6413 11.82L13.0533 15.152C12.9973 15.4507 13.0486 15.7073 13.2073 15.922C13.3753 16.1367 13.604 16.244 13.8933 16.244C13.968 16.244 14.0426 16.244 14.1173 16.244C14.192 16.2347 14.2853 16.216 14.3973 16.188C14.5093 16.16 14.6446 16.118 14.8033 16.062C14.9713 16.006 15.1766 15.922 15.4193 15.81L16.2453 11.176ZM15.8393 18.498C15.774 18.8527 15.6573 19.156 15.4893 19.408C15.3306 19.6693 15.1346 19.8793 14.9013 20.038C14.6773 20.206 14.4206 20.3273 14.1313 20.402C13.8513 20.486 13.5573 20.528 13.2493 20.528C13.1 20.528 12.9133 20.5047 12.6893 20.458C12.4746 20.4113 12.26 20.36 12.0453 20.304C11.8026 20.2387 11.546 20.1593 11.2753 20.066L11.6673 19.24C11.9193 19.324 12.162 19.3987 12.3953 19.464C12.5913 19.52 12.7826 19.5713 12.9693 19.618C13.1653 19.6647 13.31 19.688 13.4033 19.688C13.7673 19.688 14.0986 19.59 14.3973 19.394C14.7053 19.198 14.892 18.904 14.9573 18.512L15.2653 16.832C14.9386 16.9813 14.6633 17.0653 14.4393 17.084C14.2246 17.112 14.038 17.126 13.8793 17.126H13.7393C13.4686 17.126 13.226 17.0747 13.0113 16.972C12.7966 16.86 12.6193 16.7153 12.4793 16.538C12.3393 16.3513 12.2413 16.1367 12.1853 15.894C12.1293 15.6513 12.1246 15.39 12.1713 15.11L12.7453 11.876C12.792 11.596 12.8853 11.3347 13.0253 11.092C13.1746 10.8493 13.352 10.6393 13.5573 10.462C13.7626 10.2753 13.9866 10.1307 14.2293 10.028C14.4813 9.916 14.7426 9.86 15.0133 9.86C15.2186 9.86 15.452 9.89267 15.7133 9.958C15.984 10.0233 16.264 10.1213 16.5533 10.252L17.0713 9.818L17.5893 10.448L17.1973 10.77L15.8393 18.498Z" fill="#333333"/>
</svg>
