<svg width="24" height="24" viewBox="0 0 24 24" fill="none" xmlns="http://www.w3.org/2000/svg">
<path d="M3.43883 17L6.88283 7.662H9.99083L13.1268 17H10.2568L7.38683 8.012L8.87083 7.886L6.02883 17H3.43883ZM5.58083 15.362L6.05683 13.402H10.1588L10.4248 15.362H5.58083ZM16.7656 17.21C16.159 17.1633 15.6223 17.014 15.1556 16.762C14.6983 16.51 14.339 16.132 14.0776 15.628C13.8163 15.124 13.6856 14.4707 13.6856 13.668C13.6856 12.8933 13.7743 12.2447 13.9516 11.722C14.1383 11.1993 14.409 10.7887 14.7636 10.49C15.1276 10.182 15.5756 9.96267 16.1076 9.832C16.6396 9.70133 17.2556 9.636 17.9556 9.636C18.609 9.636 19.1596 9.72 19.6076 9.888C20.065 10.0467 20.4103 10.2753 20.6436 10.574C20.8863 10.8633 21.0076 11.2133 21.0076 11.624V17C21.0076 17.588 20.9096 18.0873 20.7136 18.498C20.527 18.9087 20.2563 19.2447 19.9016 19.506C19.5563 19.7673 19.1503 19.9587 18.6836 20.08C18.217 20.2013 17.7036 20.262 17.1436 20.262C16.4343 20.262 15.8323 20.2153 15.3376 20.122C14.8523 20.0287 14.493 19.9073 14.2596 19.758V17.532C14.3996 17.6067 14.619 17.6953 14.9176 17.798C15.2256 17.91 15.571 18.0033 15.9536 18.078C16.3363 18.1527 16.7096 18.19 17.0736 18.19C17.4283 18.19 17.7083 18.134 17.9136 18.022C18.1283 17.9193 18.2823 17.77 18.3756 17.574C18.469 17.378 18.5156 17.14 18.5156 16.86V15.67L18.9636 15.936C18.8236 16.1973 18.6603 16.426 18.4736 16.622C18.2963 16.8087 18.0723 16.9533 17.8016 17.056C17.531 17.1587 17.1856 17.21 16.7656 17.21ZM17.5356 15.376C17.7503 15.376 17.9323 15.3573 18.0816 15.32C18.2403 15.2733 18.385 15.2127 18.5156 15.138V12.226C18.5156 12.0487 18.469 11.918 18.3756 11.834C18.2823 11.75 18.1656 11.694 18.0256 11.666C17.8856 11.6287 17.741 11.61 17.5916 11.61C17.2743 11.61 17.013 11.6847 16.8076 11.834C16.6023 11.9833 16.4483 12.2027 16.3456 12.492C16.2523 12.772 16.2056 13.108 16.2056 13.5C16.2056 14.088 16.341 14.55 16.6116 14.886C16.8823 15.2127 17.1903 15.376 17.5356 15.376Z" fill="#888888"/>
</svg>
