<svg width="24" height="24" viewBox="0 0 24 24" fill="none" xmlns="http://www.w3.org/2000/svg">
<path d="M4.2966 17L8.0206 7.662H9.0286L12.7386 17H11.6606L8.4266 8.6L8.6366 8.572L5.3886 17H4.2966ZM5.9346 14.088L6.3686 13.122H10.9466L11.0166 14.088H5.9346ZM16.9747 17.21C16.256 17.21 15.6587 17.07 15.1827 16.79C14.716 16.5007 14.366 16.0947 14.1327 15.572C13.8994 15.04 13.7827 14.4147 13.7827 13.696C13.7827 12.8933 13.89 12.2447 14.1047 11.75C14.3194 11.246 14.5947 10.8633 14.9307 10.602C15.276 10.3313 15.6494 10.1493 16.0507 10.056C16.4614 9.95333 16.858 9.902 17.2407 9.902C17.6794 9.902 18.0947 9.96267 18.4867 10.084C18.888 10.196 19.2147 10.378 19.4667 10.63C19.728 10.882 19.8587 11.218 19.8587 11.638V17.294C19.8587 17.574 19.8167 17.8587 19.7327 18.148C19.6487 18.4373 19.4947 18.7033 19.2707 18.946C19.056 19.198 18.748 19.3987 18.3467 19.548C17.9547 19.6973 17.446 19.772 16.8207 19.772C16.4194 19.772 16.0507 19.7347 15.7147 19.66C15.3787 19.5853 15.0847 19.5153 14.8327 19.45V18.498C14.982 18.5353 15.15 18.5773 15.3367 18.624C15.5327 18.68 15.7427 18.7267 15.9667 18.764C16.2 18.8013 16.4474 18.82 16.7087 18.82C17.3434 18.82 17.81 18.7407 18.1087 18.582C18.4167 18.4327 18.6174 18.2413 18.7107 18.008C18.804 17.784 18.8507 17.5553 18.8507 17.322V16.3L19.2007 16.65C19.0234 16.7433 18.7994 16.832 18.5287 16.916C18.258 17 17.9827 17.07 17.7027 17.126C17.4227 17.182 17.18 17.21 16.9747 17.21ZM16.9747 16.286C17.2734 16.286 17.586 16.2487 17.9127 16.174C18.2487 16.09 18.5614 15.964 18.8507 15.796V11.778C18.8507 11.5167 18.776 11.3207 18.6267 11.19C18.4867 11.05 18.2954 10.9567 18.0527 10.91C17.81 10.854 17.5487 10.826 17.2687 10.826C16.5874 10.826 16.074 10.9613 15.7287 11.232C15.3834 11.4933 15.15 11.8433 15.0287 12.282C14.9074 12.7207 14.8467 13.192 14.8467 13.696C14.8467 14.4613 15.01 15.0867 15.3367 15.572C15.6634 16.048 16.2094 16.286 16.9747 16.286Z" fill="#888888"/>
</svg>
