<svg width="24" height="24" viewBox="0 0 24 24" fill="none" xmlns="http://www.w3.org/2000/svg">
<path d="M3.19274 17L6.72074 7.662H9.19874L12.5027 17H10.1787L7.19674 8.194L8.30274 8.096L5.33474 17H3.19274ZM5.18074 14.984L5.64274 13.318H9.88474L10.0947 14.984H5.18074ZM16.3304 17.21C15.6864 17.1727 15.1311 17.0233 14.6644 16.762C14.2071 16.5007 13.8478 16.118 13.5864 15.614C13.3344 15.1007 13.2084 14.4567 13.2084 13.682C13.2084 12.898 13.3064 12.2493 13.5024 11.736C13.6984 11.2133 13.9691 10.8073 14.3144 10.518C14.6691 10.2287 15.0938 10.0233 15.5884 9.902C16.0831 9.78067 16.6338 9.72 17.2404 9.72C17.8284 9.72 18.3418 9.79467 18.7804 9.944C19.2191 10.0933 19.5598 10.308 19.8024 10.588C20.0451 10.868 20.1664 11.2133 20.1664 11.624V17.084C20.1664 17.5787 20.0871 18.0127 19.9284 18.386C19.7698 18.7687 19.5318 19.086 19.2144 19.338C18.9064 19.5993 18.5284 19.7953 18.0804 19.926C17.6418 20.0567 17.1331 20.122 16.5544 20.122C15.9291 20.122 15.3924 20.0753 14.9444 19.982C14.5058 19.898 14.1698 19.7907 13.9364 19.66V17.826C14.0764 17.882 14.2818 17.9567 14.5524 18.05C14.8231 18.1433 15.1264 18.218 15.4624 18.274C15.7984 18.3393 16.1344 18.372 16.4704 18.372C16.9091 18.372 17.2451 18.3113 17.4784 18.19C17.7211 18.0687 17.8891 17.9053 17.9824 17.7C18.0758 17.4947 18.1224 17.2613 18.1224 17V15.852L18.5284 16.146C18.3791 16.3607 18.2018 16.5473 17.9964 16.706C17.7911 16.8647 17.5484 16.986 17.2684 17.07C16.9978 17.1633 16.6851 17.21 16.3304 17.21ZM16.8624 15.642C17.1051 15.642 17.3291 15.6187 17.5344 15.572C17.7398 15.516 17.9358 15.4367 18.1224 15.334V12.086C18.1224 11.89 18.0664 11.7407 17.9544 11.638C17.8424 11.5353 17.7024 11.4653 17.5344 11.428C17.3664 11.3907 17.1891 11.372 17.0024 11.372C16.5731 11.372 16.2324 11.4653 15.9804 11.652C15.7378 11.8387 15.5604 12.1 15.4484 12.436C15.3458 12.7627 15.2944 13.136 15.2944 13.556C15.2944 14.2 15.4391 14.7087 15.7284 15.082C16.0178 15.4553 16.3958 15.642 16.8624 15.642Z" fill="#888888"/>
</svg>
