<svg width="24" height="24" viewBox="0 0 24 24" fill="none" xmlns="http://www.w3.org/2000/svg">
<path d="M3.37113 17L6.95513 7.662H9.01313L12.4291 17H10.4691L7.41713 8.306L8.25713 8.236L5.20513 17H3.37113ZM5.26113 14.718L5.70913 13.262H10.0631L10.2171 14.718H5.26113ZM16.3737 17.21C15.7111 17.1913 15.1464 17.0467 14.6797 16.776C14.2131 16.5053 13.8537 16.1133 13.6017 15.6C13.3591 15.0773 13.2377 14.438 13.2377 13.682C13.2377 12.8887 13.3357 12.24 13.5317 11.736C13.7277 11.2227 13.9984 10.826 14.3437 10.546C14.6984 10.2567 15.1091 10.056 15.5757 9.944C16.0517 9.832 16.5557 9.776 17.0877 9.776C17.6384 9.776 18.1237 9.846 18.5437 9.986C18.9731 10.126 19.3091 10.3313 19.5517 10.602C19.8037 10.8727 19.9297 11.218 19.9297 11.638V17.154C19.9297 17.5833 19.8597 17.9707 19.7197 18.316C19.5797 18.6707 19.3651 18.974 19.0757 19.226C18.7957 19.478 18.4411 19.6693 18.0117 19.8C17.5824 19.94 17.0691 20.01 16.4717 20.01C15.9211 20.01 15.4404 19.968 15.0297 19.884C14.6191 19.8 14.2924 19.7067 14.0497 19.604V18.022C14.1897 18.078 14.3811 18.1433 14.6237 18.218C14.8757 18.302 15.1557 18.372 15.4637 18.428C15.7717 18.484 16.0797 18.512 16.3877 18.512C16.8824 18.512 17.2557 18.4467 17.5077 18.316C17.7691 18.1853 17.9464 18.0127 18.0397 17.798C18.1331 17.5833 18.1797 17.35 18.1797 17.098V15.992L18.5857 16.3C18.4271 16.4773 18.2311 16.636 17.9977 16.776C17.7737 16.9067 17.5217 17.0093 17.2417 17.084C16.9711 17.168 16.6817 17.21 16.3737 17.21ZM16.7517 15.838C17.0037 15.838 17.2511 15.81 17.4937 15.754C17.7457 15.6887 17.9744 15.5953 18.1797 15.474V12.002C18.1797 11.778 18.1191 11.6147 17.9977 11.512C17.8857 11.4 17.7317 11.3253 17.5357 11.288C17.3491 11.2413 17.1437 11.218 16.9197 11.218C16.4251 11.218 16.0377 11.3207 15.7577 11.526C15.4871 11.7313 15.2957 12.016 15.1837 12.38C15.0717 12.744 15.0157 13.15 15.0157 13.598C15.0157 14.2793 15.1651 14.8253 15.4637 15.236C15.7624 15.6373 16.1917 15.838 16.7517 15.838Z" fill="#888888"/>
</svg>
