<svg width="24" height="24" viewBox="0 0 24 24" fill="none" xmlns="http://www.w3.org/2000/svg">
<path d="M7.78244 16.2578V7.82667C7.78244 7.30815 7.95874 6.9037 8.31133 6.61333C8.66392 6.32296 9.14614 6.17778 9.758 6.17778C10.3698 6.17778 10.8417 6.31259 11.1736 6.58222C11.5158 6.85185 11.6869 7.24593 11.6869 7.76444V15.1222C11.6869 15.34 11.7284 15.4956 11.8113 15.5889C11.9047 15.6719 12.0602 15.7133 12.278 15.7133C12.278 16.3044 11.9461 16.6 11.2824 16.6C10.7328 16.6 10.458 16.2422 10.458 15.5267V12.5556H9.01133V14.9822L9.07355 16.4444C8.72096 16.4963 8.37355 16.5222 8.03133 16.5222C7.8654 16.5222 7.78244 16.4341 7.78244 16.2578ZM9.01133 7.82667V11.5289H10.458V7.82667C10.458 7.62963 10.3906 7.47926 10.2558 7.37556C10.121 7.26148 9.94466 7.20444 9.72688 7.20444C9.50911 7.20444 9.33281 7.26148 9.198 7.37556C9.07355 7.47926 9.01133 7.62963 9.01133 7.82667ZM14.6447 15.4022H14.9559C15.4744 15.4022 15.8685 15.5526 16.1381 15.8533C16.4077 16.1541 16.5425 16.5793 16.5425 17.1289C16.5425 18.2489 16.0344 18.8089 15.0181 18.8089H14.2403C13.7218 18.8089 13.3277 18.6533 13.0581 18.3422C12.7885 18.0415 12.6536 17.6163 12.6536 17.0667C12.6536 16.3096 12.9285 15.8067 13.4781 15.5578V14.4689C12.9907 14.2096 12.747 13.7481 12.747 13.0844V10.4711C12.747 9.95259 12.9077 9.54815 13.2292 9.25778C13.5507 8.96741 13.9862 8.82222 14.5359 8.82222H15.3292L16.2781 8.76V13.0222C16.2781 13.52 16.1277 13.9141 15.827 14.2044C15.5366 14.4844 15.1425 14.64 14.6447 14.6711V15.4022ZM13.9136 10.4089V13.0844C13.9136 13.2607 13.9707 13.4111 14.0847 13.5356C14.1988 13.6496 14.3388 13.7067 14.5047 13.7067C14.681 13.7067 14.8262 13.6496 14.9403 13.5356C15.0544 13.4111 15.1114 13.2607 15.1114 13.0844V9.81778H14.5047C14.3285 9.81778 14.1833 9.87482 14.0692 9.98889C13.9655 10.0926 13.9136 10.2326 13.9136 10.4089ZM15.0025 16.3822H14.1936C13.9136 16.3822 13.7736 16.6207 13.7736 17.0978C13.7736 17.5852 13.9136 17.8289 14.1936 17.8289H15.0025C15.2825 17.8289 15.4225 17.5852 15.4225 17.0978C15.4225 16.6207 15.2825 16.3822 15.0025 16.3822Z" fill="#888888"/>
</svg>
