<svg width="24" height="24" viewBox="0 0 24 24" fill="none" xmlns="http://www.w3.org/2000/svg">
<path d="M9.2373 5.0332L12.7305 15.0068H11.3223L10.4268 12.2793H6.60547L5.70996 15.0068H4.30176L7.79492 5.0332H9.2373ZM6.92676 11.1992H10.0986L8.5127 6.49609L6.92676 11.1992ZM16.8594 7.60352C17.2422 7.60352 17.584 7.67871 17.8848 7.8291C18.1855 7.97493 18.4248 8.1709 18.6025 8.41699L18.6436 7.78125H19.7578V14.3438C19.7578 15.1914 19.5983 15.916 19.2793 16.5176C18.9648 17.1191 18.516 17.5589 17.9326 17.8369C17.5498 18.0192 17.1237 18.1104 16.6543 18.1104C15.319 18.1104 14.3779 17.4701 13.8311 16.1895L14.9453 15.8545C15.0957 16.21 15.3122 16.4902 15.5947 16.6953C15.8773 16.9004 16.2236 17.0029 16.6338 17.0029C17.2855 17.0029 17.7708 16.7728 18.0898 16.3125C18.4134 15.8568 18.5752 15.2575 18.5752 14.5146V14.2275C18.1742 14.8109 17.5863 15.1025 16.8115 15.1025C15.9639 15.1025 15.2643 14.779 14.7129 14.1318C14.1341 13.4528 13.8447 12.5459 13.8447 11.4111C13.8447 10.5817 14.0065 9.85938 14.3301 9.24414C14.6582 8.62891 15.1048 8.17773 15.6699 7.89062C16.0391 7.69922 16.4355 7.60352 16.8594 7.60352ZM18.5752 10.5225C18.5752 10.2445 18.5319 9.99382 18.4453 9.77051C18.3587 9.54264 18.238 9.35352 18.083 9.20312C17.9326 9.04818 17.7572 8.92969 17.5566 8.84766C17.3607 8.77018 17.1602 8.73145 16.9551 8.73145C16.7181 8.73145 16.4993 8.77246 16.2988 8.85449C16.1029 8.93197 15.9365 9.04362 15.7998 9.18945C15.6631 9.33073 15.5469 9.48796 15.4512 9.66113C15.3555 9.82975 15.2757 10.0189 15.2119 10.2285C15.1117 10.5658 15.0615 10.96 15.0615 11.4111C15.0615 11.9762 15.1618 12.4707 15.3623 12.8945C15.5628 13.3138 15.8431 13.6214 16.2031 13.8174C16.431 13.9404 16.6748 14.002 16.9346 14.002C17.29 14.002 17.5931 13.9017 17.8438 13.7012C18.099 13.5007 18.2949 13.2454 18.4316 12.9355C18.5273 12.7031 18.5752 12.4388 18.5752 12.1426V10.5225Z" fill="#333333"/>
</svg>
