<svg width="24" height="24" viewBox="0 0 24 24" fill="none" xmlns="http://www.w3.org/2000/svg">
<path d="M12.1152 11.1465H10.5566L10.9941 10.5312L12.6621 10.6133L13.4277 9.86133C14.3711 8.93164 15.3577 8.12044 16.3877 7.42773C17.4222 6.73503 18.5 6.16081 19.6211 5.70508C19.6439 5.69596 19.6781 5.68685 19.7236 5.67773C19.7692 5.66862 19.8171 5.66406 19.8672 5.66406C19.9082 5.66406 19.9424 5.6709 19.9697 5.68457C20.0016 5.69368 20.0176 5.71875 20.0176 5.75977C20.0176 5.83268 20.0039 5.89421 19.9766 5.94434C19.9538 5.99447 19.9242 6.03776 19.8877 6.07422C19.8512 6.10612 19.8125 6.13346 19.7715 6.15625C19.735 6.17904 19.7031 6.19727 19.6758 6.21094C19.5026 6.29297 19.2998 6.42513 19.0674 6.60742C18.8395 6.78971 18.5957 7.00391 18.3359 7.25C18.0762 7.49154 17.8073 7.75814 17.5293 8.0498C17.2513 8.33691 16.9733 8.63542 16.6953 8.94531C16.4219 9.25065 16.1553 9.55599 15.8955 9.86133C15.6357 10.1667 15.3965 10.4538 15.1777 10.7227L16.2578 10.7637L16.0254 11.1465H14.8223C14.5944 11.4154 14.3551 11.6865 14.1045 11.96C13.8584 12.2288 13.6146 12.4954 13.373 12.7598C13.1315 13.0241 12.9014 13.2816 12.6826 13.5322C12.4639 13.7783 12.2702 14.0085 12.1016 14.2227C11.9329 14.4368 11.7985 14.6305 11.6982 14.8037C11.6025 14.9769 11.5547 15.1204 11.5547 15.2344C11.5547 15.4212 11.5866 15.5443 11.6504 15.6035C11.7142 15.6582 11.8327 15.6855 12.0059 15.6855C12.1973 15.6855 12.416 15.6559 12.6621 15.5967C12.9082 15.5329 13.1589 15.4554 13.4141 15.3643C13.6738 15.2731 13.9268 15.1729 14.1729 15.0635C14.4235 14.9541 14.6491 14.8516 14.8496 14.7559L14.918 14.9199C14.2253 15.2572 13.5986 15.5238 13.0381 15.7197C12.4775 15.9157 12.0013 16.0137 11.6094 16.0137C11.5 16.0137 11.3861 16.0046 11.2676 15.9863C11.1491 15.9681 11.0397 15.9294 10.9395 15.8701C10.8392 15.8109 10.7572 15.7266 10.6934 15.6172C10.6296 15.5078 10.5977 15.362 10.5977 15.1797C10.5977 15.0202 10.6797 14.8083 10.8438 14.5439C11.0078 14.2796 11.2288 13.9743 11.5068 13.6279C11.7894 13.2816 12.1152 12.901 12.4844 12.4863C12.8535 12.0671 13.2454 11.6204 13.6602 11.1465H12.5801C12.2018 11.5384 11.8122 11.9303 11.4111 12.3223C11.0101 12.7142 10.5977 13.0947 10.1738 13.4639C9.75 13.8285 9.3125 14.1725 8.86133 14.4961C8.41471 14.8151 7.94987 15.0977 7.4668 15.3438C7.21159 15.4714 6.97461 15.5785 6.75586 15.665C6.53711 15.7471 6.32747 15.8154 6.12695 15.8701C5.93099 15.9202 5.73958 15.9567 5.55273 15.9795C5.37044 16.0023 5.18815 16.0137 5.00586 16.0137C4.77344 16.0137 4.5752 15.9818 4.41113 15.918C4.25163 15.8496 4.12174 15.7653 4.02148 15.665C3.92122 15.5602 3.84831 15.4463 3.80273 15.3232C3.75716 15.2002 3.73438 15.0794 3.73438 14.9609C3.73438 14.8197 3.75944 14.6898 3.80957 14.5713C3.8597 14.4482 3.92578 14.3434 4.00781 14.2568C4.08984 14.1657 4.18327 14.0973 4.28809 14.0518C4.39746 14.0016 4.50911 13.9766 4.62305 13.9766C4.68685 13.9766 4.75065 13.9857 4.81445 14.0039C4.87826 14.0176 4.93294 14.0449 4.97852 14.0859C5.02865 14.1224 5.06738 14.1748 5.09473 14.2432C5.12663 14.3115 5.14258 14.3958 5.14258 14.4961C5.14258 14.6419 5.10612 14.7604 5.0332 14.8516C4.96484 14.9427 4.88965 15.0202 4.80762 15.084C4.72559 15.1478 4.64811 15.207 4.5752 15.2617C4.50684 15.3118 4.47266 15.3711 4.47266 15.4395C4.47266 15.4896 4.49316 15.5329 4.53418 15.5693C4.5752 15.6012 4.62533 15.6286 4.68457 15.6514C4.74382 15.6696 4.80762 15.6833 4.87598 15.6924C4.94434 15.6969 5.00586 15.6992 5.06055 15.6992C5.2793 15.6992 5.47982 15.6878 5.66211 15.665C5.84896 15.6377 6.02897 15.599 6.20215 15.5488C6.37988 15.4987 6.55762 15.4372 6.73535 15.3643C6.91764 15.2868 7.11589 15.1979 7.33008 15.0977C7.45768 15.0384 7.61035 14.9541 7.78809 14.8447C7.97038 14.7354 8.16178 14.61 8.3623 14.4688C8.56738 14.3275 8.77474 14.1771 8.98438 14.0176C9.19401 13.8581 9.39681 13.6986 9.59277 13.5391C9.78874 13.3796 9.96875 13.2269 10.1328 13.0811C10.3014 12.9307 10.4427 12.7962 10.5566 12.6777L12.1152 11.1465ZM13.0859 10.627L14.084 10.668C14.2845 10.4401 14.4691 10.2305 14.6377 10.0391C14.8109 9.84766 14.9772 9.66536 15.1367 9.49219C15.2962 9.31445 15.4535 9.14128 15.6084 8.97266C15.7679 8.79948 15.9365 8.61947 16.1143 8.43262C16.2965 8.24121 16.4925 8.04069 16.7021 7.83105C16.9118 7.61686 17.1465 7.3776 17.4062 7.11328C17.1283 7.27279 16.8206 7.47103 16.4834 7.70801C16.1462 7.94043 15.8066 8.19108 15.4648 8.45996C15.123 8.72884 14.7926 9.00228 14.4736 9.28027C14.1592 9.55827 13.8835 9.81576 13.6465 10.0527L13.0859 10.627ZM19.3066 14.9336C19.1699 15.0931 19.0355 15.2458 18.9033 15.3916C18.7757 15.5329 18.6458 15.6719 18.5137 15.8086C19.0697 15.5534 19.6439 15.3164 20.2363 15.0977C20.8288 14.8743 21.444 14.6738 22.082 14.4961L22.1504 14.6602C21.9089 14.724 21.6354 14.8083 21.3301 14.9131C21.0247 15.0179 20.6989 15.1387 20.3525 15.2754C20.0107 15.4121 19.6507 15.5625 19.2725 15.7266C18.8988 15.8906 18.5182 16.0638 18.1309 16.2461C17.2969 17.1667 16.5859 17.9688 15.998 18.6523C15.4102 19.3359 14.9316 19.8737 14.5625 20.2656C14.4303 20.4023 14.2913 20.5345 14.1455 20.6621C13.9951 20.7897 13.8356 20.9014 13.667 20.9971C13.4984 21.0928 13.3229 21.1702 13.1406 21.2295C12.9538 21.2887 12.7624 21.3184 12.5664 21.3184C12.4753 21.3184 12.3864 21.307 12.2998 21.2842C12.2132 21.266 12.1357 21.2318 12.0674 21.1816C11.999 21.1361 11.9443 21.0745 11.9033 20.9971C11.8623 20.9242 11.8418 20.8353 11.8418 20.7305C11.8418 20.6029 11.8896 20.4479 11.9854 20.2656C12.0811 20.0879 12.2246 19.8919 12.416 19.6777C12.6029 19.4681 12.8376 19.2448 13.1201 19.0078C13.3981 18.7754 13.724 18.5384 14.0977 18.2969C14.5033 18.028 14.9248 17.7591 15.3623 17.4902C15.8044 17.2214 16.2669 16.957 16.75 16.6973C16.9141 16.4922 17.0758 16.2894 17.2354 16.0889C17.3994 15.8929 17.5612 15.6992 17.7207 15.5078C17.4746 15.681 17.2354 15.8063 17.0029 15.8838C16.7751 15.9613 16.5586 16 16.3535 16C16.1257 16 15.9411 15.9704 15.7998 15.9111C15.6631 15.8473 15.5537 15.7676 15.4717 15.6719C15.3942 15.5716 15.3418 15.46 15.3145 15.3369C15.2871 15.2139 15.2734 15.0885 15.2734 14.9609C15.2734 14.7513 15.3236 14.5303 15.4238 14.2979C15.5241 14.0609 15.6585 13.8285 15.8271 13.6006C16.0003 13.3727 16.1986 13.1562 16.4219 12.9512C16.6497 12.7415 16.889 12.5592 17.1396 12.4043C17.3903 12.2448 17.6432 12.1195 17.8984 12.0283C18.1536 11.9326 18.3997 11.8848 18.6367 11.8848C18.7871 11.8848 18.9284 11.8984 19.0605 11.9258C19.1927 11.9531 19.3066 11.9964 19.4023 12.0557C19.498 12.1104 19.5732 12.1855 19.6279 12.2812C19.6872 12.3724 19.7168 12.4818 19.7168 12.6094C19.7168 12.7552 19.6758 12.9238 19.5938 13.1152L19.3613 13.2246C19.3887 13.1152 19.4023 13.0104 19.4023 12.9102C19.4023 12.8372 19.3932 12.7666 19.375 12.6982C19.3613 12.6253 19.3363 12.5615 19.2998 12.5068C19.2633 12.4521 19.2132 12.4089 19.1494 12.377C19.0902 12.3405 19.015 12.3223 18.9238 12.3223C18.7279 12.3223 18.5273 12.3701 18.3223 12.4658C18.1172 12.557 17.9167 12.68 17.7207 12.835C17.5293 12.9854 17.347 13.1562 17.1738 13.3477C17.0052 13.5345 16.8571 13.7259 16.7295 13.9219C16.6019 14.1178 16.4993 14.307 16.4219 14.4893C16.349 14.6715 16.3125 14.8288 16.3125 14.9609C16.3125 15.1478 16.3558 15.2708 16.4424 15.3301C16.529 15.3848 16.668 15.4121 16.8594 15.4121C17.0872 15.4121 17.3219 15.3415 17.5635 15.2002C17.805 15.0544 18.0671 14.8607 18.3496 14.6191C18.4134 14.5645 18.4795 14.5052 18.5479 14.4414C18.6208 14.373 18.696 14.3001 18.7734 14.2227C18.8236 14.1589 18.8737 14.0973 18.9238 14.0381C18.974 13.9788 19.0241 13.9219 19.0742 13.8672C19.1562 13.7669 19.2542 13.6484 19.3682 13.5117C19.4867 13.375 19.6097 13.2337 19.7373 13.0879C19.8695 12.9375 20.0016 12.7917 20.1338 12.6504C20.2705 12.5091 20.3981 12.3815 20.5166 12.2676C20.6396 12.1536 20.749 12.0625 20.8447 11.9941C20.9404 11.9212 21.0156 11.8848 21.0703 11.8848C21.1068 11.8848 21.1569 11.8916 21.2207 11.9053C21.2845 11.9189 21.346 11.9395 21.4053 11.9668C21.4691 11.9896 21.5215 12.0215 21.5625 12.0625C21.6081 12.099 21.6309 12.14 21.6309 12.1855C21.6309 12.2357 21.5967 12.2995 21.5283 12.377C21.4645 12.4544 21.3848 12.5456 21.2891 12.6504L20.1543 13.9355C20.1224 13.9674 20.0745 14.0199 20.0107 14.0928C19.9469 14.1611 19.874 14.2409 19.792 14.332C19.7145 14.4232 19.6325 14.5212 19.5459 14.626C19.4593 14.7308 19.3796 14.8333 19.3066 14.9336ZM13.7148 20.2246C13.888 20.0514 14.0794 19.8509 14.2891 19.623C14.4941 19.3952 14.7129 19.1468 14.9453 18.8779C15.1732 18.6136 15.4079 18.3333 15.6494 18.0371C15.8955 17.7454 16.1439 17.4447 16.3945 17.1348C15.9753 17.3626 15.5697 17.5973 15.1777 17.8389C14.7858 18.0804 14.4212 18.3197 14.084 18.5566C13.7422 18.7982 13.4346 19.0352 13.1611 19.2676C12.8877 19.5046 12.6621 19.7324 12.4844 19.9512C12.4069 20.0423 12.3408 20.1426 12.2861 20.252C12.2269 20.3659 12.1973 20.4753 12.1973 20.5801C12.1973 20.6712 12.2292 20.7464 12.293 20.8057C12.3522 20.8649 12.4616 20.8945 12.6211 20.8945C12.694 20.8945 12.7783 20.874 12.874 20.833C12.9652 20.7965 13.0586 20.7464 13.1543 20.6826C13.25 20.6234 13.3457 20.5527 13.4414 20.4707C13.5371 20.3932 13.6283 20.3112 13.7148 20.2246Z" fill="#333333"/>
</svg>
