<svg width="24" height="24" viewBox="0 0 24 24" fill="none" xmlns="http://www.w3.org/2000/svg">
<path d="M9.70072 6.584L11.4647 16.244L12.5847 16.426L12.5567 17H8.65072L8.67872 16.426L9.88272 16.258L9.50472 13.962H5.72472L4.67472 16.258L5.94872 16.426L5.89272 17H2.46272L2.51872 16.426L3.47072 16.258L8.17472 6.584H9.70072ZM6.08872 13.164H9.39272L8.67872 8.684L8.59472 7.69L6.08872 13.164ZM18.7899 17.532C18.6966 18.232 18.4492 18.8013 18.0479 19.24C17.6466 19.688 17.1706 20.01 16.6199 20.206C16.0786 20.402 15.5279 20.5 14.9679 20.5C14.6786 20.5 14.3706 20.472 14.0439 20.416C13.7266 20.36 13.4932 20.2993 13.3439 20.234L13.6379 19.058C13.8432 19.17 14.1139 19.2773 14.4499 19.38C14.7859 19.492 15.1172 19.548 15.4439 19.548C16.0319 19.548 16.4659 19.4313 16.7459 19.198C17.0259 18.974 17.2079 18.554 17.2919 17.938L17.5439 16.118C17.2826 16.4167 16.9699 16.664 16.6059 16.86C16.2512 17.0467 15.8592 17.14 15.4299 17.14C14.6552 17.14 14.0719 16.874 13.6799 16.342C13.2972 15.8007 13.1059 15.0913 13.1059 14.214C13.1059 13.4113 13.2832 12.6133 13.6379 11.82C14.0019 11.0173 14.5246 10.3547 15.2059 9.832C15.8872 9.30933 16.6852 9.048 17.5999 9.048C17.8519 9.048 18.1179 9.08067 18.3979 9.146C18.6872 9.202 18.9346 9.272 19.1399 9.356L20.0499 9.048L18.7899 17.532ZM18.4259 10.084C18.1832 9.90667 17.8519 9.818 17.4319 9.818C16.8159 9.818 16.2979 10.042 15.8779 10.49C15.4579 10.938 15.1452 11.498 14.9399 12.17C14.7346 12.8327 14.6319 13.486 14.6319 14.13C14.6319 14.7833 14.7392 15.2967 14.9539 15.67C15.1779 16.034 15.4859 16.216 15.8779 16.216C16.2326 16.216 16.5732 16.1087 16.8999 15.894C17.2266 15.67 17.4879 15.418 17.6839 15.138L18.4259 10.084Z" fill="#333333"/>
</svg>
