<svg width="24" height="24" viewBox="0 0 24 24" fill="none" xmlns="http://www.w3.org/2000/svg">
<path d="M7.46137 6.514H9.00137L12.4034 16.174L13.2714 16.314V17H9.57537V16.314L10.7374 16.174L10.0794 14.102H5.99137L5.33337 16.174L6.53737 16.314V17H3.21937V16.314L4.08737 16.174L7.46137 6.514ZM8.34337 8.754L7.99337 7.522L7.65737 8.782L6.24337 13.276H9.81337L8.34337 8.754ZM17.0707 20.78C15.8761 20.78 15.0081 20.5887 14.4667 20.206C13.9347 19.8327 13.6687 19.3147 13.6687 18.652C13.6687 18.2413 13.7947 17.8633 14.0467 17.518C14.3081 17.1727 14.6161 16.9113 14.9707 16.734C14.5414 16.4913 14.3267 16.0993 14.3267 15.558C14.3267 15.222 14.4247 14.9047 14.6207 14.606C14.8167 14.3073 15.0734 14.0787 15.3907 13.92C14.9241 13.7147 14.5647 13.4207 14.3127 13.038C14.0701 12.6553 13.9487 12.2027 13.9487 11.68C13.9487 11.1387 14.0981 10.6673 14.3967 10.266C14.7047 9.86467 15.1061 9.55667 15.6007 9.342C16.1047 9.12733 16.6367 9.02 17.1967 9.02C18.1394 9.02 18.8767 9.216 19.4087 9.608C19.5487 9.468 19.7634 9.33267 20.0527 9.202C20.3421 9.07133 20.6501 9.006 20.9767 9.006H21.4527V10.238H19.9127C20.1367 10.5833 20.2487 10.9847 20.2487 11.442C20.2487 11.9927 20.1087 12.4827 19.8287 12.912C19.5581 13.332 19.1754 13.6587 18.6807 13.892C18.1954 14.1253 17.6447 14.242 17.0287 14.242C16.6274 14.242 16.2681 14.2 15.9507 14.116C15.8201 14.2467 15.7127 14.3913 15.6287 14.55C15.5447 14.7087 15.5027 14.8627 15.5027 15.012C15.5027 15.348 15.6147 15.5813 15.8387 15.712C16.0627 15.8333 16.4641 15.894 17.0427 15.894H18.6247C19.5301 15.894 20.2021 16.0667 20.6407 16.412C21.0794 16.7573 21.2987 17.2473 21.2987 17.882C21.2987 18.414 21.1074 18.8993 20.7247 19.338C20.3421 19.786 19.8241 20.136 19.1707 20.388C18.5267 20.6493 17.8267 20.78 17.0707 20.78ZM17.1687 13.472C18.2327 13.472 18.7647 12.842 18.7647 11.582C18.7647 10.9567 18.6247 10.4993 18.3447 10.21C18.0741 9.91133 17.6634 9.762 17.1127 9.762C16.5994 9.762 16.1934 9.90667 15.8947 10.196C15.5961 10.476 15.4467 10.9287 15.4467 11.554C15.4467 12.142 15.5867 12.6087 15.8667 12.954C16.1561 13.2993 16.5901 13.472 17.1687 13.472ZM17.1967 19.968C17.6541 19.968 18.0834 19.898 18.4847 19.758C18.8954 19.6273 19.2267 19.4267 19.4787 19.156C19.7307 18.8947 19.8567 18.5867 19.8567 18.232C19.8567 17.812 19.7447 17.504 19.5207 17.308C19.2967 17.1213 18.8627 17.028 18.2187 17.028H16.5667C16.1934 17.028 15.8994 17.0047 15.6847 16.958C15.3021 17.378 15.1107 17.8493 15.1107 18.372C15.1107 18.8947 15.2694 19.2913 15.5867 19.562C15.9041 19.8327 16.4407 19.968 17.1967 19.968Z" fill="#888888"/>
</svg>
