<svg width="24" height="24" viewBox="0 0 24 24" fill="none" xmlns="http://www.w3.org/2000/svg">
<path d="M9.95666 6.57L11.6507 16.076L12.7427 16.286L12.7007 17H8.03866L8.06666 16.286L9.14466 16.09L8.86466 14.144H5.51866L4.69266 16.09L5.98066 16.286L5.92466 17H2.13066L2.18666 16.286L3.13866 16.09L7.61866 6.57H9.95666ZM5.95266 13.122H8.72466L8.17866 9.342L8.12266 8.04L5.95266 13.122ZM19.1988 17.532C19.0588 18.6147 18.5875 19.3847 17.7848 19.842C16.9915 20.3087 16.0582 20.542 14.9848 20.542C14.6768 20.542 14.3315 20.5047 13.9488 20.43C13.5662 20.3647 13.3048 20.2993 13.1648 20.234L13.5148 18.778C13.5802 18.834 13.7155 18.9133 13.9208 19.016C14.1355 19.128 14.3782 19.226 14.6488 19.31C14.9288 19.4033 15.1902 19.45 15.4328 19.45C15.9275 19.45 16.2868 19.352 16.5108 19.156C16.7442 18.96 16.8935 18.5727 16.9588 17.994L17.1268 16.482C16.5855 16.9207 15.9742 17.14 15.2928 17.14C14.4808 17.14 13.8742 16.8693 13.4728 16.328C13.0715 15.7867 12.8708 15.096 12.8708 14.256C12.8708 13.3507 13.0482 12.5013 13.4028 11.708C13.7668 10.9053 14.3035 10.2613 15.0128 9.776C15.7222 9.29067 16.5715 9.048 17.5608 9.048C17.8315 9.048 18.1208 9.08067 18.4288 9.146C18.7462 9.21133 19.0168 9.286 19.2408 9.37L20.3468 9.048L19.1988 17.532ZM18.0368 10.084C17.8222 10.0187 17.6122 9.986 17.4068 9.986C16.8842 9.986 16.4548 10.196 16.1188 10.616C15.7922 11.036 15.5588 11.5633 15.4188 12.198C15.2788 12.8327 15.2088 13.4907 15.2088 14.172C15.2088 14.732 15.2975 15.1707 15.4748 15.488C15.6615 15.8053 15.9135 15.964 16.2308 15.964C16.5948 15.964 16.9355 15.7867 17.2528 15.432L18.0368 10.084Z" fill="#333333"/>
</svg>
