<svg width="24" height="24" viewBox="0 0 24 24" fill="none" xmlns="http://www.w3.org/2000/svg">
<path d="M8.92285 14.7988H5.10156L4.41113 17H2.07324L5.91504 6.48633H8.11621L11.9922 17H9.62012L8.92285 14.7988ZM8.42383 13.2334L7.2959 9.66504L7.00195 8.5918L6.70117 9.66504L5.58691 13.2334H8.42383ZM20.7012 10.752H19.4092C19.5003 11.0163 19.5459 11.3125 19.5459 11.6406C19.5459 12.4746 19.2428 13.1104 18.6367 13.5479C18.0352 13.9854 17.1829 14.2041 16.0801 14.2041C15.8249 14.2041 15.5993 14.1882 15.4033 14.1562C15.3076 14.2337 15.2347 14.3294 15.1846 14.4434C15.1344 14.5527 15.1094 14.6689 15.1094 14.792C15.1094 15.0107 15.1777 15.1566 15.3145 15.2295C15.4512 15.3024 15.6904 15.3389 16.0322 15.3389H17.3311C18.4795 15.3389 19.2656 15.5622 19.6895 16.0088C20.1178 16.4508 20.332 17.0137 20.332 17.6973C20.332 18.2806 20.1452 18.7865 19.7715 19.2148C19.4023 19.6432 18.9102 19.9691 18.2949 20.1924C17.6797 20.4157 17.0166 20.5273 16.3057 20.5273C15.098 20.5273 14.1637 20.3314 13.5029 19.9395C12.8467 19.5521 12.5186 18.9893 12.5186 18.251C12.5186 17.891 12.6279 17.5697 12.8467 17.2871C13.07 17.0091 13.3617 16.7904 13.7217 16.6309C13.5029 16.5169 13.3411 16.3551 13.2363 16.1455C13.1361 15.9359 13.0859 15.7103 13.0859 15.4688C13.0859 15.1589 13.1816 14.8604 13.373 14.5732C13.5645 14.2861 13.8835 14.0514 14.3301 13.8691C13.8333 13.6549 13.4414 13.3587 13.1543 12.9805C12.8717 12.5977 12.7305 12.1715 12.7305 11.7021C12.7305 10.8089 13.0358 10.1527 13.6465 9.7334C14.2572 9.30957 15.1139 9.09766 16.2168 9.09766C17.224 9.09766 18.0101 9.28678 18.5752 9.66504C18.7256 9.53288 18.9056 9.4235 19.1152 9.33691C19.3249 9.25033 19.5641 9.20703 19.833 9.20703H20.7012V10.752ZM16.1143 12.8984C16.5609 12.8984 16.9072 12.8118 17.1533 12.6387C17.404 12.4655 17.5293 12.1533 17.5293 11.7021C17.5293 11.2783 17.4176 10.9593 17.1943 10.7451C16.9756 10.5264 16.6475 10.417 16.21 10.417C15.7679 10.417 15.4193 10.5127 15.1641 10.7041C14.9134 10.891 14.7881 11.2145 14.7881 11.6748C14.7881 12.0576 14.902 12.3584 15.1299 12.5771C15.3577 12.7913 15.6859 12.8984 16.1143 12.8984ZM15.3486 17C15.2484 17 15.1071 16.9954 14.9248 16.9863C14.7334 17.1595 14.6377 17.4238 14.6377 17.7793C14.6377 18.2077 14.7699 18.5632 15.0342 18.8457C15.3031 19.1283 15.7269 19.2695 16.3057 19.2695C16.9072 19.2695 17.3766 19.1761 17.7139 18.9893C18.0557 18.807 18.2266 18.5176 18.2266 18.1211C18.2266 17.8522 18.1855 17.638 18.1035 17.4785C18.0215 17.3236 17.8529 17.2051 17.5977 17.123C17.3424 17.041 16.9642 17 16.4629 17H15.3486Z" fill="#333333"/>
</svg>
