<svg width="24" height="24" viewBox="0 0 24 24" fill="none" xmlns="http://www.w3.org/2000/svg">
<path d="M4.99267 17H2.26267L5.88867 6.528H8.84267L12.4967 17H9.73867L7.65267 9.986L7.31667 8.628L6.96667 9.986L4.99267 17ZM4.53067 15.054L4.82467 13.234H9.59867L9.87867 15.054H4.53067ZM16.7651 20.528C15.3885 20.514 14.3968 20.2947 13.7901 19.87C13.1881 19.45 12.8871 18.8807 12.8871 18.162C12.8871 17.896 12.9478 17.6533 13.0691 17.434C13.1951 17.2193 13.3795 17.0327 13.6221 16.874C13.8648 16.7153 14.1658 16.5893 14.5251 16.496L15.8831 16.58C15.8178 16.6313 15.7385 16.706 15.6451 16.804C15.5518 16.8973 15.4701 17.0187 15.4001 17.168C15.3301 17.3173 15.2951 17.4993 15.2951 17.714C15.2951 17.9473 15.3371 18.1737 15.4211 18.393C15.5098 18.617 15.6685 18.799 15.8971 18.939C16.1305 19.0837 16.4665 19.156 16.9051 19.156C17.2458 19.156 17.5491 19.1163 17.8151 19.037C18.0858 18.9623 18.2981 18.841 18.4521 18.673C18.6061 18.505 18.6831 18.2833 18.6831 18.008C18.6831 17.8073 18.6481 17.6253 18.5781 17.462C18.5081 17.2987 18.3658 17.168 18.1511 17.07C17.9411 16.9767 17.6238 16.93 17.1991 16.93H15.5051C15.3885 16.93 15.2905 16.9113 15.2111 16.874C15.1318 16.8367 15.0385 16.8087 14.9311 16.79C14.8145 16.762 14.7445 16.7387 14.7211 16.72C14.6978 16.7013 14.6231 16.6827 14.4971 16.664C14.1471 16.594 13.8858 16.482 13.7131 16.328C13.5405 16.174 13.4565 15.9407 13.4611 15.628C13.4658 15.446 13.4985 15.2523 13.5591 15.047C13.6198 14.8417 13.7411 14.6457 13.9231 14.459C14.1098 14.2677 14.3898 14.1067 14.7631 13.976L16.1211 14.172C15.9205 14.2467 15.7781 14.3563 15.6941 14.501C15.6148 14.641 15.5751 14.774 15.5751 14.9C15.5751 15.0867 15.6475 15.2173 15.7921 15.292C15.9415 15.3667 16.2005 15.404 16.5691 15.404H17.9831C18.5898 15.404 19.0938 15.46 19.4951 15.572C19.9011 15.684 20.2231 15.838 20.4611 16.034C20.6991 16.2253 20.8671 16.447 20.9651 16.699C21.0678 16.951 21.1191 17.2147 21.1191 17.49C21.1191 18.008 20.9978 18.4583 20.7551 18.841C20.5171 19.2237 20.1905 19.5387 19.7751 19.786C19.3645 20.038 18.8978 20.2247 18.3751 20.346C17.8571 20.472 17.3205 20.5327 16.7651 20.528ZM16.6111 14.382C15.9158 14.382 15.3091 14.284 14.7911 14.088C14.2731 13.8873 13.8695 13.5933 13.5801 13.206C13.2955 12.8187 13.1531 12.3427 13.1531 11.778C13.1531 11.2133 13.2908 10.7327 13.5661 10.336C13.8461 9.93467 14.2428 9.629 14.7561 9.419C15.2741 9.209 15.8925 9.104 16.6111 9.104C17.3438 9.104 17.9715 9.209 18.4941 9.419C19.0215 9.62433 19.4251 9.923 19.7051 10.315C19.9851 10.707 20.1251 11.1807 20.1251 11.736C20.1251 12.3007 19.9991 12.7813 19.7471 13.178C19.4951 13.57 19.1078 13.8687 18.5851 14.074C18.0671 14.2793 17.4091 14.382 16.6111 14.382ZM16.6251 13.066C16.9845 13.066 17.2738 12.982 17.4931 12.814C17.7171 12.646 17.8291 12.296 17.8291 11.764C17.8291 11.358 17.7311 11.0547 17.5351 10.854C17.3391 10.6487 17.0451 10.546 16.6531 10.546C16.4105 10.546 16.2098 10.5833 16.0511 10.658C15.8925 10.728 15.7735 10.8517 15.6941 11.029C15.6148 11.2017 15.5751 11.442 15.5751 11.75C15.5751 12.114 15.6498 12.4243 15.7991 12.681C15.9531 12.9377 16.2285 13.066 16.6251 13.066ZM19.1591 10.952L18.9071 9.888C18.9911 9.76667 19.1661 9.622 19.4321 9.454C19.7028 9.286 20.0365 9.202 20.4331 9.202H21.4411V10.952H19.1591Z" fill="#888888"/>
</svg>
