<svg width="24" height="24" viewBox="0 0 24 24" fill="none" xmlns="http://www.w3.org/2000/svg">
<path d="M9.12891 15.0586H5.49902L4.95215 17H2.22461L5.84766 6.52734H8.81445L12.4648 17H9.70312L9.12891 15.0586ZM8.58887 13.2402L7.625 9.97949L7.2832 8.63281L6.93457 9.97949L6.01172 13.2402H8.58887ZM21.4814 10.9502H20.2236C20.2738 11.1598 20.2988 11.374 20.2988 11.5928C20.2988 12.3949 19.998 13.0146 19.3965 13.4521C18.7995 13.8896 17.8812 14.1084 16.6416 14.1084C16.3682 14.1084 16.1084 14.0947 15.8623 14.0674C15.7803 14.1403 15.7188 14.2269 15.6777 14.3271C15.6367 14.4229 15.6162 14.5208 15.6162 14.6211C15.6162 14.8079 15.6891 14.9401 15.835 15.0176C15.9808 15.0905 16.2383 15.127 16.6074 15.127H18.1523C19.278 15.127 20.0732 15.3457 20.5381 15.7832C21.0029 16.2161 21.2354 16.7858 21.2354 17.4922C21.2354 18.1439 21.028 18.6976 20.6133 19.1533C20.2031 19.6136 19.6631 19.9577 18.9932 20.1855C18.3278 20.4134 17.6146 20.5273 16.8535 20.5273C15.4909 20.5273 14.4723 20.32 13.7979 19.9053C13.1279 19.4906 12.793 18.9118 12.793 18.1689C12.793 17.8226 12.8932 17.5036 13.0938 17.2119C13.2943 16.9202 13.5837 16.6901 13.9619 16.5215C13.7568 16.4121 13.5996 16.2572 13.4902 16.0566C13.3854 15.8516 13.333 15.6237 13.333 15.373C13.333 15.0723 13.431 14.7783 13.627 14.4912C13.8275 14.1995 14.1533 13.958 14.6045 13.7666C14.1032 13.5615 13.7181 13.279 13.4492 12.9189C13.1803 12.5544 13.0459 12.126 13.0459 11.6338C13.0459 10.7952 13.3535 10.1663 13.9688 9.74707C14.5885 9.32324 15.4795 9.10905 16.6416 9.10449C17.7946 9.10449 18.6742 9.2959 19.2803 9.67871C19.4352 9.54655 19.6266 9.4349 19.8545 9.34375C20.0824 9.2526 20.333 9.20703 20.6064 9.20703H21.4814V10.9502ZM16.6621 12.7822C17.0495 12.7822 17.3457 12.6979 17.5508 12.5293C17.7559 12.3561 17.8584 12.0531 17.8584 11.6201C17.8584 10.8135 17.4688 10.4102 16.6895 10.4102C16.2975 10.4102 15.9967 10.5013 15.7871 10.6836C15.5775 10.8613 15.4727 11.1712 15.4727 11.6133C15.4727 11.987 15.5729 12.2764 15.7734 12.4814C15.974 12.682 16.2702 12.7822 16.6621 12.7822ZM15.582 16.9248C15.418 17.1481 15.3359 17.4102 15.3359 17.7109C15.3359 18.1302 15.4521 18.4766 15.6846 18.75C15.9215 19.0234 16.3385 19.1602 16.9355 19.1602C17.4824 19.1602 17.9154 19.0667 18.2344 18.8799C18.5579 18.693 18.7197 18.4014 18.7197 18.0049C18.7197 17.777 18.681 17.5856 18.6035 17.4307C18.5306 17.2757 18.3848 17.1527 18.166 17.0615C17.9518 16.9704 17.6419 16.9248 17.2363 16.9248H15.582Z" fill="#333333"/>
</svg>
