<svg width="24" height="24" viewBox="0 0 24 24" fill="none" xmlns="http://www.w3.org/2000/svg">
<path d="M6.33203 14.7168L10.6182 6.5C10.6318 6.47266 10.6478 6.45215 10.666 6.43848C10.6842 6.42025 10.7048 6.4043 10.7275 6.39062C10.7549 6.38151 10.7799 6.37923 10.8027 6.38379C10.8255 6.38835 10.8529 6.39518 10.8848 6.4043L11.5273 6.56836L10.0303 17.8545C10.2217 17.8317 10.3949 17.8158 10.5498 17.8066C10.7093 17.8021 10.8346 17.7998 10.9258 17.7998C11.0625 17.7998 11.1628 17.8066 11.2266 17.8203C11.2949 17.8385 11.3359 17.8613 11.3496 17.8887C11.3678 17.916 11.3656 17.9479 11.3428 17.9844C11.3245 18.0254 11.2972 18.071 11.2607 18.1211C11.2197 18.1667 11.1878 18.2077 11.165 18.2441C11.1468 18.2806 11.1195 18.3125 11.083 18.3398C11.0465 18.3717 10.9941 18.3991 10.9258 18.4219C10.862 18.4447 10.764 18.4652 10.6318 18.4834C10.5407 18.4971 10.4062 18.5085 10.2285 18.5176C10.0508 18.5312 9.85026 18.5449 9.62695 18.5586C9.4082 18.5768 9.17806 18.5905 8.93652 18.5996C8.69499 18.6133 8.46712 18.6247 8.25293 18.6338C8.04329 18.6475 7.85645 18.6589 7.69238 18.668C7.53288 18.6771 7.4235 18.6816 7.36426 18.6816C7.17285 18.6953 7.07031 18.6748 7.05664 18.6201C7.04297 18.57 7.09538 18.4788 7.21387 18.3467C7.30957 18.2191 7.52832 18.1348 7.87012 18.0938C7.92025 18.0846 8.00684 18.071 8.12988 18.0527C8.25293 18.0391 8.40104 18.0231 8.57422 18.0049L9.03223 14.9834L6.58496 15.209L5.4502 17.3896C5.73275 17.3532 5.93783 17.3372 6.06543 17.3418C6.19303 17.3509 6.24544 17.3874 6.22266 17.4512C6.19076 17.5195 6.1429 17.5993 6.0791 17.6904C6.01986 17.7816 5.93099 17.859 5.8125 17.9229C5.77148 17.9411 5.69629 17.9593 5.58691 17.9775C5.47754 17.9958 5.34993 18.0117 5.2041 18.0254C5.05827 18.0436 4.9056 18.0573 4.74609 18.0664C4.58203 18.0801 4.42936 18.0915 4.28809 18.1006C4.14225 18.1143 4.01465 18.1234 3.90527 18.1279C3.7959 18.137 3.72298 18.1439 3.68652 18.1484C3.57259 18.1576 3.52702 18.1234 3.5498 18.0459C3.57259 17.973 3.65462 17.8818 3.7959 17.7725C3.81868 17.7542 3.84831 17.7337 3.88477 17.7109C3.91667 17.6882 3.97135 17.6631 4.04883 17.6357C4.1263 17.6084 4.23112 17.5811 4.36328 17.5537C4.49544 17.5264 4.6709 17.4967 4.88965 17.4648L6.05176 15.25L5.26562 15.3184C5.23372 15.3184 5.21094 15.3047 5.19727 15.2773C5.17904 15.2409 5.18359 15.209 5.21094 15.1816L5.26562 15.0791C5.36589 14.9196 5.50716 14.8216 5.68945 14.7852L6.33203 14.7168ZM9.11426 14.3682L9.96875 8.63965L6.87891 14.6484L9.11426 14.3682ZM16.292 13.124C16.292 13.1924 16.2829 13.2699 16.2646 13.3564C16.251 13.443 16.2259 13.5456 16.1895 13.6641C16.153 13.7826 16.1006 13.9238 16.0322 14.0879C15.9684 14.252 15.8887 14.4479 15.793 14.6758C15.6243 15.0677 15.4466 15.4665 15.2598 15.8721C15.0775 16.2731 14.8906 16.6673 14.6992 17.0547C14.5078 17.4466 14.3164 17.8203 14.125 18.1758C13.9382 18.5358 13.7559 18.8662 13.5781 19.167C13.4049 19.4678 13.2432 19.7321 13.0928 19.96C12.9424 20.1878 12.8102 20.3633 12.6963 20.4863C12.6279 20.5638 12.5459 20.6208 12.4502 20.6572C12.359 20.6937 12.2633 20.7119 12.1631 20.7119C12.0537 20.7119 11.9535 20.6937 11.8623 20.6572C11.7666 20.6253 11.6846 20.5684 11.6162 20.4863C11.5479 20.4043 11.4954 20.2949 11.459 20.1582C11.418 20.026 11.3975 19.8597 11.3975 19.6592C11.3975 19.4632 11.4339 19.2445 11.5068 19.0029C11.5752 18.7614 11.7051 18.4993 11.8965 18.2168C11.8418 18.5677 11.8145 18.8389 11.8145 19.0303C11.8145 19.2399 11.8395 19.3835 11.8896 19.4609C11.9352 19.5384 11.9899 19.5771 12.0537 19.5771C12.0947 19.5771 12.1426 19.5566 12.1973 19.5156C12.2565 19.4746 12.3271 19.3971 12.4092 19.2832C12.4958 19.1693 12.5938 19.0143 12.7031 18.8184C12.8171 18.627 12.9492 18.3763 13.0996 18.0664C13.209 17.8522 13.3389 17.5947 13.4893 17.2939C13.6169 17.0342 13.7673 16.7174 13.9404 16.3438C14.1182 15.9655 14.3232 15.5257 14.5557 15.0244C14.4007 15.2477 14.2298 15.4756 14.043 15.708C13.8561 15.9404 13.6579 16.1523 13.4482 16.3438C13.2432 16.5306 13.0312 16.6855 12.8125 16.8086C12.5983 16.9271 12.3864 16.9863 12.1768 16.9863C11.9717 16.9863 11.8053 16.9225 11.6777 16.7949C11.5456 16.6673 11.4795 16.4554 11.4795 16.1592C11.4795 15.8265 11.5501 15.4938 11.6914 15.1611C11.8281 14.8239 12.0127 14.4958 12.2451 14.1768C12.4775 13.8577 12.7419 13.5547 13.0381 13.2676C13.3389 12.9805 13.6488 12.7207 13.9678 12.4883C14.2868 12.2513 14.6035 12.0485 14.918 11.8799C15.2324 11.7067 15.5195 11.5791 15.7793 11.4971C15.8066 11.488 15.834 11.4811 15.8613 11.4766C15.8887 11.472 15.916 11.4697 15.9434 11.4697C15.9844 11.4697 16.0186 11.4788 16.0459 11.4971C16.0732 11.5153 16.0869 11.5426 16.0869 11.5791C16.0869 11.7067 16.0436 11.807 15.957 11.8799C15.8704 11.9528 15.7565 12.0212 15.6152 12.085C15.474 12.1442 15.3145 12.2126 15.1367 12.29C14.9635 12.3675 14.7858 12.4723 14.6035 12.6045C14.4076 12.7503 14.2116 12.9417 14.0156 13.1787C13.8197 13.4111 13.6442 13.6618 13.4893 13.9307C13.3343 14.195 13.2067 14.4661 13.1064 14.7441C13.0107 15.0176 12.9629 15.2705 12.9629 15.5029C12.9629 15.6169 12.9811 15.6989 13.0176 15.749C13.054 15.7992 13.1019 15.8242 13.1611 15.8242C13.2386 15.8242 13.3389 15.7764 13.4619 15.6807C13.585 15.5804 13.724 15.4391 13.8789 15.2568C14.0384 15.0745 14.2093 14.8581 14.3916 14.6074C14.5739 14.3568 14.7607 14.0765 14.9521 13.7666C15.0661 13.5843 15.1686 13.4134 15.2598 13.2539C15.3509 13.0944 15.4307 12.9577 15.499 12.8438C15.5719 12.7253 15.6335 12.6318 15.6836 12.5635C15.7337 12.4951 15.7747 12.4609 15.8066 12.4609C15.8385 12.4609 15.8818 12.4814 15.9365 12.5225C15.9958 12.5589 16.0505 12.609 16.1006 12.6729C16.1507 12.7321 16.194 12.8027 16.2305 12.8848C16.2715 12.9622 16.292 13.042 16.292 13.124Z" fill="#333333"/>
</svg>
