<svg width="24" height="24" viewBox="0 0 24 24" fill="none" xmlns="http://www.w3.org/2000/svg">
<g clip-path="url(#clip0_201_4860)">
<path d="M10.0781 15.5938H1.76562L0.453125 18H-1.07812L5.04688 7.5H6.79688L12.9219 18H11.3906L10.0781 15.5938ZM9.42188 14.5L5.92188 8.375L2.42188 14.5H9.42188ZM18.8281 11C18.3177 11 17.8757 11.016 17.502 11.0479C17.1328 11.0798 16.8184 11.1367 16.5586 11.2188C16.2988 11.3008 16.0869 11.4147 15.9229 11.5605C15.7633 11.7064 15.638 11.8932 15.5469 12.1211C15.4603 12.349 15.401 12.6247 15.3691 12.9482C15.3418 13.2673 15.3281 13.6432 15.3281 14.0762C15.3281 14.5046 15.3418 14.8783 15.3691 15.1973C15.401 15.5117 15.4603 15.7829 15.5469 16.0107C15.638 16.234 15.7633 16.4186 15.9229 16.5645C16.0869 16.7103 16.2988 16.8242 16.5586 16.9062C16.8184 16.9883 17.1328 17.0452 17.502 17.0771C17.8757 17.109 18.3177 17.125 18.8281 17.125C19.2656 17.125 19.6553 17.1159 19.9971 17.0977C20.3389 17.0749 20.6396 17.0293 20.8994 16.9609C21.1592 16.888 21.3779 16.7855 21.5557 16.6533C21.738 16.5166 21.8861 16.3366 22 16.1133C22.1139 15.8854 22.196 15.6051 22.2461 15.2725C22.3008 14.9352 22.3281 14.5296 22.3281 14.0557C22.3281 13.5817 22.3008 13.1761 22.2461 12.8389C22.196 12.5016 22.1139 12.2214 22 11.998C21.8861 11.7702 21.738 11.5902 21.5557 11.458C21.3779 11.3258 21.1592 11.2256 20.8994 11.1572C20.6396 11.0889 20.3389 11.0456 19.9971 11.0273C19.6553 11.0091 19.2656 11 18.8281 11ZM23.6406 16.9062C23.6406 17.6719 23.554 18.3076 23.3809 18.8135C23.2077 19.3193 22.9297 19.7272 22.5469 20.0371C22.1641 20.3516 21.6673 20.5703 21.0566 20.6934C20.446 20.8164 19.7031 20.8779 18.8281 20.8779C18.0078 20.8779 17.3174 20.8415 16.7568 20.7686C16.2008 20.6956 15.752 20.5794 15.4102 20.4199C15.0684 20.265 14.8223 20.0622 14.6719 19.8115C14.526 19.5654 14.4531 19.2646 14.4531 18.9092H15.7656C15.7656 19.0869 15.8112 19.2327 15.9023 19.3467C15.998 19.4606 16.1621 19.5495 16.3945 19.6133C16.627 19.6771 16.9391 19.7204 17.3311 19.7432C17.7275 19.7705 18.2266 19.7842 18.8281 19.7842C19.4844 19.7842 20.0358 19.7591 20.4824 19.709C20.929 19.6634 21.2891 19.5518 21.5625 19.374C21.8359 19.1963 22.0319 18.9274 22.1504 18.5674C22.2689 18.2074 22.3281 17.7266 22.3281 17.125C22.2643 17.2344 22.1618 17.3529 22.0205 17.4805C21.8838 17.6081 21.681 17.7266 21.4121 17.8359C21.1478 17.9453 20.806 18.0365 20.3867 18.1094C19.9674 18.1823 19.4479 18.2188 18.8281 18.2188C17.9531 18.2188 17.2103 18.1527 16.5996 18.0205C15.9889 17.8929 15.4922 17.6719 15.1094 17.3574C14.7266 17.043 14.4486 16.6191 14.2754 16.0859C14.1022 15.5527 14.0156 14.8828 14.0156 14.0762C14.0156 13.2559 14.1022 12.5768 14.2754 12.0391C14.4486 11.5013 14.7266 11.0752 15.1094 10.7607C15.4922 10.4463 15.9889 10.2253 16.5996 10.0977C17.2103 9.97005 17.9531 9.90625 18.8281 9.90625C19.4479 9.90625 19.9674 9.93815 20.3867 10.002C20.806 10.0658 21.1478 10.1455 21.4121 10.2412C21.681 10.3369 21.8838 10.4417 22.0205 10.5557C22.1618 10.665 22.2643 10.7653 22.3281 10.8564V10.125H23.6406V16.9062Z" fill="#333333"/>
</g>
<defs>
<clipPath id="clip0_201_4860">
<rect width="24" height="24" fill="white"/>
</clipPath>
</defs>
</svg>
