<svg width="24" height="24" viewBox="0 0 24 24" fill="none" xmlns="http://www.w3.org/2000/svg">
<path d="M12.7324 17H11.4404L10.292 13.9922H5.75293L4.67969 17H3.38086L7.45508 6.41113H8.6377L12.7324 17ZM9.89551 12.9258L8.2002 8.35254C8.15462 8.22493 8.10221 7.99251 8.04297 7.65527H8.00879C7.95866 7.96517 7.90169 8.19759 7.83789 8.35254L6.16309 12.9258H9.89551ZM20.5459 16.4053C20.5459 19.1761 19.2334 20.5615 16.6084 20.5615C15.6787 20.5615 14.8607 20.3815 14.1543 20.0215V18.8594C15.0065 19.3333 15.8223 19.5703 16.6016 19.5703C18.4746 19.5703 19.4111 18.5654 19.4111 16.5557V15.7148H19.3838C18.7913 16.6901 17.9209 17.1777 16.7725 17.1777C15.8245 17.1777 15.0658 16.8382 14.4961 16.1592C13.9264 15.4801 13.6416 14.5824 13.6416 13.4658C13.6416 12.1761 13.9538 11.153 14.5781 10.3965C15.2025 9.63997 16.0433 9.26172 17.1006 9.26172C18.126 9.26172 18.887 9.67415 19.3838 10.499H19.4111V9.43945H20.5459V16.4053ZM19.4111 12.4473C19.4111 11.832 19.1992 11.3102 18.7754 10.8818C18.3516 10.4489 17.8411 10.2324 17.2441 10.2324C16.4876 10.2324 15.8906 10.5104 15.4531 11.0664C15.0202 11.6224 14.8037 12.3949 14.8037 13.3838C14.8037 14.2406 15.0133 14.9264 15.4326 15.4414C15.8519 15.9518 16.3965 16.207 17.0664 16.207C17.7454 16.207 18.306 15.9632 18.748 15.4756C19.1901 14.9834 19.4111 14.3568 19.4111 13.5957V12.4473Z" fill="#888888"/>
</svg>
