<svg width="24" height="24" viewBox="0 0 24 24" fill="none" xmlns="http://www.w3.org/2000/svg">
<path d="M13.4355 16.2175L13.4135 16.6923C13.1632 16.6923 12.7472 16.6886 12.1656 16.6813C11.5841 16.6739 11.1681 16.6702 10.9178 16.6702C10.6896 16.6702 10.3031 16.6739 9.75834 16.6813C9.21357 16.6886 8.82707 16.6923 8.59886 16.6923L8.56573 16.2396C9.29455 16.1733 9.65895 15.9745 9.65895 15.6433C9.65895 15.4592 9.6111 15.2457 9.5154 15.0028L8.69824 12.9488H5.57317L4.80018 14.8924C4.67503 15.2089 4.61246 15.4408 4.61246 15.588C4.61246 15.9561 5.01367 16.1659 5.81611 16.2175L5.79402 16.6923C5.58053 16.6923 5.24557 16.6886 4.78914 16.6813C4.34007 16.6739 4.00879 16.6702 3.7953 16.6702C3.60389 16.6702 3.32046 16.6739 2.94501 16.6813C2.56956 16.6886 2.28981 16.6923 2.10577 16.6923L2.07264 16.2396C2.69103 16.1954 3.13274 16.0224 3.39776 15.7206C3.55236 15.5439 3.76953 15.1132 4.04928 14.4286L7.05288 7.02997C7.16331 6.76495 7.24061 6.56986 7.28478 6.44471L7.48355 5.91466L8.25654 5.82632C8.33015 6.13552 8.41849 6.45944 8.52156 6.79808C8.58045 6.98948 8.66879 7.25819 8.78658 7.60419L11.6356 14.6825C11.8859 15.3009 12.092 15.6911 12.254 15.8531C12.4675 16.0518 12.8613 16.1733 13.4355 16.2175ZM8.378 12.1317L7.13018 9.00661L5.8934 12.1317H8.378ZM21.9053 10.5857L21.839 11.3808H20.3703C20.6133 11.7268 20.7347 12.1243 20.7347 12.5734C20.7347 13.3758 20.4329 14.02 19.8293 14.5059C19.2329 14.9917 18.4784 15.2347 17.5655 15.2347C17.2269 15.2347 16.9287 15.2052 16.671 15.1463C16.4649 15.3009 16.3619 15.485 16.3619 15.6985C16.3619 15.9856 16.6453 16.1291 17.2121 16.1291C17.4109 16.1291 17.7127 16.1255 18.1176 16.1181C18.5225 16.1034 18.8244 16.096 19.0231 16.096C20.8489 16.096 21.7617 16.7622 21.7617 18.0947C21.7617 19.118 21.2354 19.902 20.1826 20.4468C19.3434 20.8812 18.3679 21.0983 17.2563 21.0983C16.4539 21.0983 15.7692 20.9842 15.2024 20.756C14.4736 20.4689 14.1091 20.0346 14.1091 19.453C14.1091 18.6285 14.6797 18.0248 15.8208 17.642C15.0183 17.4285 14.6171 17.0125 14.6171 16.3942C14.6171 15.9009 15.0515 15.3966 15.9201 14.8813C15.5447 14.7194 15.2281 14.458 14.9705 14.0973C14.6834 13.6997 14.5398 13.2654 14.5398 12.7942C14.5398 12.0139 14.8269 11.3845 15.4011 10.906C15.9827 10.4201 16.7263 10.1771 17.6318 10.1771C18.3238 10.1771 18.9238 10.2912 19.4317 10.5195C19.5937 10.5931 19.7704 10.6299 19.9618 10.6299C19.9765 10.6299 20.0354 10.6262 20.1384 10.6188L21.828 10.4974L21.9053 10.5857ZM18.7471 12.9047C18.7471 11.4691 18.3422 10.7514 17.5324 10.7514C16.8625 10.7514 16.5275 11.3329 16.5275 12.4961C16.5275 13.0335 16.6122 13.5047 16.7815 13.9096C17.0023 14.4175 17.3226 14.6715 17.7422 14.6715C18.4121 14.6715 18.7471 14.0826 18.7471 12.9047ZM20.0832 18.7904C20.0832 18.1426 19.3655 17.8187 17.9299 17.8187H17.2232C16.9655 17.8187 16.7152 17.9033 16.4723 18.0726C16.1263 18.3156 15.9533 18.6285 15.9533 19.0113C15.9533 19.7401 16.6306 20.1045 17.9851 20.1045C18.5152 20.1045 18.9826 20.0014 19.3875 19.7953C19.8513 19.545 20.0832 19.21 20.0832 18.7904Z" fill="#888888"/>
</svg>
