<svg width="24" height="24" viewBox="0 0 24 24" fill="none" xmlns="http://www.w3.org/2000/svg">
<path d="M10.5098 12.5801H8.34277L7.81641 13.9199C7.72526 14.1797 7.67969 14.3438 7.67969 14.4121C7.67969 14.5215 7.73438 14.599 7.84375 14.6445C7.95768 14.6901 8.1582 14.7197 8.44531 14.7334L8.4248 14.9932C8.25618 14.9932 8.06706 14.9909 7.85742 14.9863C7.64779 14.9818 7.43587 14.9795 7.22168 14.9795C7.05306 14.9795 6.8776 14.9818 6.69531 14.9863C6.51758 14.9909 6.3444 14.9932 6.17578 14.9932L6.16211 14.7471C6.33984 14.7334 6.48568 14.7129 6.59961 14.6855C6.71354 14.6536 6.81152 14.6012 6.89355 14.5283C6.98014 14.4508 7.0599 14.3438 7.13281 14.207C7.21029 14.0658 7.29915 13.8789 7.39941 13.6465L9.36133 9.01855C9.41602 8.88184 9.46159 8.76335 9.49805 8.66309C9.53906 8.55827 9.58236 8.44661 9.62793 8.32812L10.1064 8.27344C10.1566 8.49219 10.209 8.69271 10.2637 8.875C10.3229 9.05729 10.3776 9.22363 10.4277 9.37402L11.9658 13.8311C12.0342 14.0316 12.0957 14.1888 12.1504 14.3027C12.2051 14.4167 12.2689 14.5033 12.3418 14.5625C12.4147 14.6172 12.5059 14.6559 12.6152 14.6787C12.7292 14.7015 12.875 14.7197 13.0527 14.7334L13.0322 14.9932C12.8408 14.9932 12.6289 14.9909 12.3965 14.9863C12.1686 14.9818 11.9225 14.9795 11.6582 14.9795C11.403 14.9795 11.1774 14.9818 10.9814 14.9863C10.7855 14.9909 10.5918 14.9932 10.4004 14.9932L10.3799 14.7471C10.6351 14.7288 10.8174 14.7015 10.9268 14.665C11.0361 14.624 11.0908 14.5443 11.0908 14.4258C11.0908 14.3757 11.0817 14.3187 11.0635 14.2549C11.0452 14.1865 11.0225 14.1113 10.9951 14.0293L10.5098 12.5801ZM8.5 12.1699H10.3799L9.52539 9.59961L8.5 12.1699ZM13.3672 12.5869C13.3672 12.359 13.4128 12.1471 13.5039 11.9512C13.5996 11.7507 13.7249 11.5775 13.8799 11.4316C14.0394 11.2858 14.2217 11.1719 14.4268 11.0898C14.6318 11.0078 14.8643 10.9668 15.124 10.9668C15.5205 10.9668 15.8509 11.0443 16.1152 11.1992C16.1654 11.2311 16.2109 11.2539 16.252 11.2676C16.2975 11.2767 16.3499 11.2812 16.4092 11.2812C16.4593 11.2767 16.4958 11.2744 16.5186 11.2744L17.5645 11.1992L17.6123 11.2539L17.5713 11.6777H16.6074C16.7943 11.9193 16.8877 12.1768 16.8877 12.4502C16.8877 12.7191 16.833 12.9561 16.7236 13.1611C16.6188 13.3662 16.4798 13.5394 16.3066 13.6807C16.138 13.8174 15.9489 13.9222 15.7393 13.9951C15.5342 14.0635 15.3154 14.0977 15.083 14.0977C14.9235 14.0977 14.7435 14.0749 14.543 14.0293C14.4382 14.0749 14.3538 14.1296 14.29 14.1934C14.2308 14.2572 14.2012 14.3324 14.2012 14.4189C14.2012 14.4873 14.2217 14.5443 14.2627 14.5898C14.3083 14.6309 14.363 14.6605 14.4268 14.6787C14.4951 14.6969 14.568 14.7083 14.6455 14.7129C14.7275 14.7174 14.8005 14.7197 14.8643 14.7197C15.0238 14.7197 15.1992 14.7174 15.3906 14.7129C15.5866 14.7038 15.7848 14.6992 15.9854 14.6992C16.1676 14.6992 16.3499 14.7174 16.5322 14.7539C16.7145 14.7858 16.8786 14.8473 17.0244 14.9385C17.1748 15.0251 17.2956 15.1458 17.3867 15.3008C17.4779 15.4557 17.5234 15.6449 17.5234 15.8682C17.5234 16.1097 17.4596 16.3444 17.332 16.5723C17.2044 16.8047 17.0267 17.0007 16.7988 17.1602C16.571 17.3242 16.2975 17.4587 15.9785 17.5635C15.6641 17.6729 15.3018 17.7275 14.8916 17.7275C14.6956 17.7275 14.4883 17.7002 14.2695 17.6455C14.0553 17.5954 13.8594 17.527 13.6816 17.4404C13.5085 17.3584 13.3672 17.2467 13.2578 17.1055C13.153 16.9688 13.1006 16.8138 13.1006 16.6406C13.1006 16.4857 13.1302 16.3535 13.1895 16.2441C13.2487 16.1393 13.3262 16.0391 13.4219 15.9434C13.5176 15.8522 13.627 15.7611 13.75 15.6699C13.8776 15.5788 14.0007 15.4922 14.1191 15.4102C13.9004 15.3418 13.7272 15.2507 13.5996 15.1367C13.4766 15.0273 13.415 14.8975 13.415 14.7471C13.415 14.6423 13.4378 14.5465 13.4834 14.46C13.5335 14.3734 13.5996 14.2936 13.6816 14.2207C13.7682 14.1432 13.8503 14.0817 13.9277 14.0361C14.0098 13.986 14.0827 13.9382 14.1465 13.8926C13.627 13.6374 13.3672 13.2021 13.3672 12.5869ZM15.3086 15.4922C15.1582 15.4922 15.0329 15.4922 14.9326 15.4922C14.8369 15.4967 14.7572 15.5059 14.6934 15.5195C14.6296 15.5332 14.5726 15.5537 14.5225 15.5811C14.4723 15.6084 14.4199 15.6449 14.3652 15.6904C14.224 15.8089 14.1191 15.9229 14.0508 16.0322C13.9824 16.1416 13.9482 16.276 13.9482 16.4355C13.9482 16.5586 13.987 16.6771 14.0645 16.791C14.1465 16.9049 14.2627 16.9961 14.4131 17.0645C14.568 17.1328 14.7321 17.1738 14.9053 17.1875C15.0785 17.2057 15.2243 17.2148 15.3428 17.2148C15.5023 17.2148 15.6732 17.1921 15.8555 17.1465C16.0378 17.1055 16.1973 17.0485 16.334 16.9756C16.4707 16.9027 16.5778 16.8024 16.6553 16.6748C16.7373 16.5472 16.7783 16.4105 16.7783 16.2646C16.7783 16.1507 16.7373 16.0299 16.6553 15.9023C16.5732 15.7747 16.4548 15.679 16.2998 15.6152C16.1676 15.556 16.0218 15.5195 15.8623 15.5059C15.7028 15.4967 15.541 15.4922 15.377 15.4922H15.3086ZM15.1924 13.7832C15.3063 13.7832 15.4157 13.749 15.5205 13.6807C15.6253 13.6123 15.7096 13.5234 15.7734 13.4141C15.8372 13.3047 15.8828 13.1839 15.9102 13.0518C15.9375 12.9196 15.9512 12.7874 15.9512 12.6553C15.9512 12.4912 15.9329 12.3271 15.8965 12.1631C15.8646 11.9945 15.8122 11.8464 15.7393 11.7188C15.6709 11.5911 15.5775 11.4863 15.459 11.4043C15.3451 11.3223 15.2129 11.2812 15.0625 11.2812C14.9395 11.2812 14.8255 11.3154 14.7207 11.3838C14.6159 11.4476 14.5339 11.5319 14.4746 11.6367C14.4199 11.7415 14.3766 11.8623 14.3447 11.999C14.3174 12.1312 14.3037 12.2656 14.3037 12.4023C14.3037 12.5573 14.3197 12.7168 14.3516 12.8809C14.388 13.0449 14.4404 13.193 14.5088 13.3252C14.5817 13.4574 14.6774 13.5667 14.7959 13.6533C14.9189 13.7399 15.0511 13.7832 15.1924 13.7832Z" fill="#333333"/>
</svg>
