<svg width="24" height="24" viewBox="0 0 24 24" fill="none" xmlns="http://www.w3.org/2000/svg">
<path d="M12.4922 17H10.0312L9.23828 14.5732H5.38965L4.61035 17H2.16309L6.03906 6.41113H8.69141L12.4922 17ZM8.70508 12.8301L7.50195 9.15918C7.42448 8.92676 7.36979 8.61914 7.33789 8.23633H7.27637C7.24902 8.54622 7.1875 8.84473 7.0918 9.13184L5.88184 12.8301H8.70508ZM20.9209 16.166C20.9209 17.5697 20.5199 18.6497 19.7178 19.4062C18.9202 20.1673 17.7695 20.5479 16.2656 20.5479C15.2448 20.5479 14.4336 20.402 13.832 20.1104V18.2236C14.6159 18.6794 15.4066 18.9072 16.2041 18.9072C16.9925 18.9072 17.6077 18.6953 18.0498 18.2715C18.4964 17.8522 18.7197 17.2689 18.7197 16.5215V15.8926H18.6855C18.1523 16.7539 17.3594 17.1846 16.3066 17.1846C15.3542 17.1846 14.5908 16.8451 14.0166 16.166C13.4469 15.487 13.1621 14.5778 13.1621 13.4385C13.1621 12.167 13.4766 11.153 14.1055 10.3965C14.7389 9.63542 15.5684 9.25488 16.5938 9.25488C17.5234 9.25488 18.2207 9.61719 18.6855 10.3418H18.7197V9.43945H20.9209V16.166ZM18.7402 12.7344C18.7402 12.2331 18.5876 11.8115 18.2822 11.4697C17.9814 11.1234 17.6009 10.9502 17.1406 10.9502C16.6029 10.9502 16.1768 11.1621 15.8623 11.5859C15.5524 12.0052 15.3975 12.5954 15.3975 13.3564C15.3975 14.0173 15.5479 14.5391 15.8486 14.9219C16.1494 15.3001 16.5482 15.4893 17.0449 15.4893C17.5462 15.4893 17.9541 15.2956 18.2686 14.9082C18.583 14.5208 18.7402 14.0173 18.7402 13.3975V12.7344Z" fill="#888888"/>
</svg>
