<svg width="24" height="24" viewBox="0 0 24 24" fill="none" xmlns="http://www.w3.org/2000/svg">
<path d="M10.7412 17L9.53125 13.7188H4.95117L3.74805 17H2.91406L6.91309 6.41113H7.6377L11.5889 17H10.7412ZM7.26172 7.36133H7.22754C7.14551 7.68034 7.06576 7.9401 6.98828 8.14062L5.21777 13.0283H9.27832L7.49414 8.1543L7.26172 7.36133ZM19.2998 16.4395C19.2998 17.8477 18.9899 18.8844 18.3701 19.5498C17.7549 20.2152 16.7865 20.5479 15.4648 20.5479C14.7266 20.5479 13.9723 20.3564 13.2021 19.9736V19.2422C14.0133 19.6888 14.7744 19.9121 15.4854 19.9121C17.5544 19.9121 18.5889 18.8161 18.5889 16.624V15.6465H18.5615C17.9554 16.6719 17.0485 17.1846 15.8408 17.1846C15.2165 17.1846 14.6628 17.0296 14.1797 16.7197C13.7012 16.4098 13.332 15.9678 13.0723 15.3936C12.8125 14.8148 12.6826 14.138 12.6826 13.3633C12.6826 12.5658 12.8262 11.8548 13.1133 11.2305C13.4049 10.6016 13.8151 10.1162 14.3438 9.77441C14.8724 9.42806 15.474 9.25488 16.1484 9.25488C17.2513 9.25488 18.0557 9.71289 18.5615 10.6289H18.5889V9.43945H19.2998V16.4395ZM18.5889 12.3516C18.5889 11.9049 18.4863 11.4925 18.2812 11.1143C18.0762 10.736 17.7868 10.4398 17.4131 10.2256C17.0394 10.0068 16.6247 9.89746 16.1689 9.89746C15.3441 9.89746 14.6787 10.2096 14.1729 10.834C13.6715 11.4538 13.4209 12.2764 13.4209 13.3018C13.4209 14.2952 13.6442 15.0837 14.0908 15.667C14.542 16.2503 15.1618 16.542 15.9502 16.542C16.734 16.542 17.3698 16.2845 17.8574 15.7695C18.3451 15.2546 18.5889 14.6074 18.5889 13.8281V12.3516Z" fill="#333333"/>
</svg>
