<svg width="24" height="24" viewBox="0 0 24 24" fill="none" xmlns="http://www.w3.org/2000/svg">
<path d="M10.5576 10.9219H8.15137L7.72754 11.8994C7.62728 12.141 7.57715 12.321 7.57715 12.4395C7.57715 12.4896 7.58398 12.5352 7.59766 12.5762C7.61589 12.6172 7.65007 12.6559 7.7002 12.6924C7.75488 12.7243 7.8278 12.7539 7.91895 12.7812C8.01465 12.804 8.13997 12.82 8.29492 12.8291V13H6.33984V12.8291C6.49479 12.8063 6.62012 12.7721 6.71582 12.7266C6.81152 12.681 6.89355 12.6195 6.96191 12.542C7.03027 12.46 7.0918 12.3551 7.14648 12.2275C7.20573 12.0999 7.27637 11.9427 7.3584 11.7559L9.5459 6.64941H9.70312L11.8633 11.8105C11.9499 12.0247 12.0296 12.1979 12.1025 12.3301C12.18 12.4577 12.2575 12.5579 12.335 12.6309C12.417 12.7038 12.5036 12.7539 12.5947 12.7812C12.6904 12.8086 12.8044 12.8245 12.9365 12.8291V13H10.4824V12.8291C10.7285 12.82 10.8949 12.7812 10.9814 12.7129C11.0726 12.64 11.1182 12.5534 11.1182 12.4531C11.1136 12.321 11.0521 12.1068 10.9336 11.8105L10.5576 10.9219ZM10.4277 10.5801L9.375 8.07129L8.29492 10.5801H10.4277ZM14.4609 11.4688C14.2012 11.3411 14.0029 11.168 13.8662 10.9492C13.7295 10.7259 13.6611 10.4775 13.6611 10.2041C13.6611 9.99447 13.7021 9.7985 13.7842 9.61621C13.8708 9.42936 13.987 9.26758 14.1328 9.13086C14.2832 8.98958 14.4609 8.88021 14.666 8.80273C14.8711 8.7207 15.0944 8.67969 15.3359 8.67969C15.737 8.67969 16.0833 8.77767 16.375 8.97363H17.2637C17.332 8.97363 17.3844 8.97591 17.4209 8.98047C17.4574 8.98047 17.4824 8.98275 17.4961 8.9873C17.5143 8.9873 17.5234 8.99186 17.5234 9.00098C17.528 9.00553 17.5326 9.01237 17.5371 9.02148C17.5508 9.04427 17.5576 9.07389 17.5576 9.11035C17.5622 9.14681 17.5645 9.1901 17.5645 9.24023C17.5645 9.30404 17.5485 9.34505 17.5166 9.36328C17.4893 9.37695 17.4049 9.38379 17.2637 9.38379H16.7168C16.89 9.61165 16.9766 9.89421 16.9766 10.2314C16.9766 10.4229 16.9378 10.6051 16.8604 10.7783C16.7829 10.9469 16.6712 11.0973 16.5254 11.2295C16.3841 11.3571 16.2109 11.4596 16.0059 11.5371C15.8008 11.61 15.5729 11.6465 15.3223 11.6465C15.2174 11.6465 15.1104 11.6396 15.001 11.626C14.8962 11.6123 14.7913 11.5895 14.6865 11.5576C14.5498 11.6761 14.4587 11.7786 14.4131 11.8652C14.3675 11.9473 14.3447 12.0202 14.3447 12.084C14.3447 12.1341 14.3538 12.1751 14.3721 12.207C14.3903 12.2389 14.4336 12.2663 14.502 12.2891C14.5703 12.3118 14.6706 12.3301 14.8027 12.3438C14.9395 12.3574 15.124 12.3665 15.3564 12.3711C15.6709 12.3802 15.9284 12.3916 16.1289 12.4053C16.334 12.4189 16.4844 12.4303 16.5801 12.4395C16.8672 12.4759 17.0928 12.5807 17.2568 12.7539C17.4255 12.9225 17.5098 13.1322 17.5098 13.3828C17.5098 13.6107 17.4437 13.8226 17.3115 14.0186C17.1839 14.2191 17.0107 14.3923 16.792 14.5381C16.5732 14.6885 16.3226 14.807 16.04 14.8936C15.7575 14.9801 15.4658 15.0234 15.165 15.0234C14.9554 15.0234 14.7412 15.0007 14.5225 14.9551C14.3037 14.9095 14.1055 14.848 13.9277 14.7705C13.75 14.693 13.6042 14.5996 13.4902 14.4902C13.3809 14.3854 13.3262 14.2715 13.3262 14.1484C13.3262 14.0801 13.333 14.0163 13.3467 13.957C13.3649 13.8978 13.4014 13.8271 13.4561 13.7451C13.5153 13.6631 13.5996 13.5605 13.709 13.4375C13.8229 13.319 13.9733 13.1618 14.1602 12.9658C14.0007 12.8701 13.889 12.7858 13.8252 12.7129C13.7614 12.6354 13.7295 12.5488 13.7295 12.4531C13.7295 12.3984 13.7363 12.3415 13.75 12.2822C13.7682 12.223 13.8024 12.1569 13.8525 12.084C13.9027 12.0065 13.9756 11.9176 14.0713 11.8174C14.1715 11.7171 14.3014 11.6009 14.4609 11.4688ZM14.4131 13C14.126 13.3145 13.9824 13.5833 13.9824 13.8066C13.9824 13.9115 14.0234 14.0049 14.1055 14.0869C14.1921 14.1689 14.306 14.2373 14.4473 14.292C14.5931 14.3512 14.7617 14.3968 14.9531 14.4287C15.1445 14.4606 15.3496 14.4766 15.5684 14.4766C15.8464 14.4766 16.0856 14.4492 16.2861 14.3945C16.4867 14.3398 16.653 14.2669 16.7852 14.1758C16.9173 14.0892 17.0153 13.9912 17.0791 13.8818C17.1429 13.777 17.1748 13.6699 17.1748 13.5605C17.1748 13.4831 17.1589 13.417 17.127 13.3623C17.0951 13.3076 17.0335 13.262 16.9424 13.2256C16.8558 13.1891 16.735 13.1618 16.5801 13.1436C16.4297 13.1253 16.236 13.1117 15.999 13.1025C15.32 13.0889 14.7913 13.0547 14.4131 13ZM15.2607 8.89844C15.0374 8.89844 14.8483 8.98958 14.6934 9.17188C14.5384 9.34961 14.4609 9.62533 14.4609 9.99902C14.4609 10.2041 14.4814 10.3955 14.5225 10.5732C14.5635 10.7464 14.6227 10.8968 14.7002 11.0244C14.7822 11.152 14.8779 11.2523 14.9873 11.3252C15.1012 11.3936 15.2311 11.4277 15.377 11.4277C15.6094 11.4277 15.8008 11.3411 15.9512 11.168C16.1016 10.9948 16.1768 10.7191 16.1768 10.3408C16.1768 10.1357 16.1562 9.94661 16.1152 9.77344C16.0742 9.5957 16.015 9.44303 15.9375 9.31543C15.86 9.18327 15.7643 9.08073 15.6504 9.00781C15.5365 8.9349 15.4066 8.89844 15.2607 8.89844Z" fill="#333333"/>
</svg>
