<svg width="24" height="24" viewBox="0 0 24 24" fill="none" xmlns="http://www.w3.org/2000/svg">
<path d="M11.7803 18H10.2695L9.18945 15.1016H4.78027L3.76172 18H2.25098L6.28418 7.41113H7.74707L11.7803 18ZM8.76562 13.9053L7.16602 9.50293C7.11589 9.36165 7.0612 9.11556 7.00195 8.76465H6.96777C6.91764 9.08366 6.86068 9.32975 6.79688 9.50293L5.21094 13.9053H8.76562ZM19.71 17.3643C19.71 20.1624 18.3519 21.5615 15.6357 21.5615C14.6969 21.5615 13.8812 21.3861 13.1885 21.0352V19.7432C14.0316 20.2126 14.8405 20.4473 15.6152 20.4473C17.4518 20.4473 18.3701 19.4811 18.3701 17.5488V16.749H18.3428C17.7686 17.7015 16.9118 18.1777 15.7725 18.1777C14.8245 18.1777 14.0658 17.8382 13.4961 17.1592C12.9264 16.4801 12.6416 15.5801 12.6416 14.459C12.6416 13.1693 12.9561 12.1484 13.585 11.3965C14.2139 10.64 15.0524 10.2617 16.1006 10.2617C17.1077 10.2617 17.8551 10.6628 18.3428 11.4648H18.3701V10.4395H19.71V17.3643ZM18.3701 13.502C18.3747 12.9186 18.1787 12.4173 17.7822 11.998C17.3857 11.5788 16.8981 11.3691 16.3193 11.3691C15.5902 11.3691 15.0228 11.638 14.6172 12.1758C14.2116 12.709 14.0088 13.4427 14.0088 14.377C14.0088 15.179 14.2048 15.8285 14.5967 16.3252C14.9886 16.8219 15.5081 17.0703 16.1553 17.0703C16.807 17.0703 17.3402 16.8333 17.7549 16.3594C18.1696 15.8854 18.3747 15.2839 18.3701 14.5547V13.502Z" fill="#333333"/>
</svg>
