<svg width="24" height="24" viewBox="0 0 24 24" fill="none" xmlns="http://www.w3.org/2000/svg">
<g clip-path="url(#clip0_246_963)">
<path d="M11.4197 17.105C11.0557 17.105 10.6567 17.056 10.2227 16.958L9.25671 14.228C8.59871 14.172 7.77971 14.144 6.79971 14.144C5.76371 14.144 5.05671 14.179 4.67871 14.249C4.37071 15.061 4.04871 15.964 3.71271 16.958C3.46071 17.042 3.22971 17.084 3.01971 17.084C2.73971 17.084 2.45271 17.042 2.15871 16.958C2.55071 16.258 3.24371 14.606 4.23771 12.002C5.23171 9.398 5.97371 7.361 6.46371 5.891C6.84171 5.821 7.14971 5.786 7.38771 5.786C7.63971 5.786 7.91971 5.821 8.22771 5.891C8.71771 7.361 9.45971 9.398 10.4537 12.002C11.4477 14.606 12.1407 16.258 12.5327 16.958C12.1827 17.056 11.8117 17.105 11.4197 17.105ZM7.59771 12.989C8.17171 12.989 8.57071 12.982 8.79471 12.968C8.10871 11.092 7.49971 9.531 6.96771 8.285C6.46371 9.447 5.86871 10.994 5.18271 12.926C5.89671 12.968 6.70171 12.989 7.59771 12.989ZM16.8567 20.78C15.4427 20.78 14.3017 20.479 13.4337 19.877C13.4337 19.373 13.5317 18.876 13.7277 18.386C13.9237 17.91 14.1967 17.483 14.5467 17.105C14.0007 16.909 13.7277 16.531 13.7277 15.971C13.7277 15.579 13.8677 15.229 14.1477 14.921C14.4417 14.599 14.8407 14.347 15.3447 14.165C14.8547 13.927 14.4767 13.584 14.2107 13.136C13.9447 12.674 13.8117 12.142 13.8117 11.54C13.8117 10.56 14.1547 9.762 14.8407 9.146C15.5267 8.53 16.4087 8.222 17.4867 8.222C18.2007 8.222 18.8237 8.376 19.3557 8.684C19.6357 8.614 19.9577 8.474 20.3217 8.264C20.6857 8.04 21.0427 7.774 21.3927 7.466C21.5467 7.718 21.6727 8.012 21.7707 8.348C21.8827 8.67 21.9387 8.936 21.9387 9.146C21.4907 9.384 20.9377 9.524 20.2797 9.566C20.5597 10.084 20.6997 10.623 20.6997 11.183C20.6997 11.827 20.5387 12.401 20.2167 12.905C19.8947 13.409 19.4397 13.801 18.8517 14.081C18.2777 14.361 17.6267 14.501 16.8987 14.501C16.2967 14.501 15.8207 14.599 15.4707 14.795C15.1207 14.977 14.9457 15.229 14.9457 15.551L18.8937 15.761C19.6497 15.831 20.2237 16.041 20.6157 16.391C21.0217 16.727 21.2247 17.196 21.2247 17.798C21.2247 18.358 21.0357 18.862 20.6577 19.31C20.2797 19.772 19.7547 20.129 19.0827 20.381C18.4247 20.647 17.6827 20.78 16.8567 20.78ZM17.2137 13.619C17.8017 13.619 18.2567 13.465 18.5787 13.157C18.9147 12.835 19.0827 12.394 19.0827 11.834C19.0827 11.33 18.9287 10.903 18.6207 10.553C18.3267 10.189 17.9137 9.944 17.3817 9.818C16.8077 9.818 16.3317 10.007 15.9537 10.385C15.5897 10.749 15.4077 11.218 15.4077 11.792C15.4077 12.338 15.5757 12.779 15.9117 13.115C16.2477 13.451 16.6817 13.619 17.2137 13.619ZM17.3817 19.415C18.1237 19.415 18.7187 19.303 19.1667 19.079C19.6287 18.855 19.8597 18.561 19.8597 18.197C19.8597 17.917 19.7617 17.707 19.5657 17.567C19.3697 17.441 19.0337 17.371 18.5577 17.357L15.4077 17.189C15.1837 17.595 15.0367 17.973 14.9667 18.323C15.4987 19.051 16.3037 19.415 17.3817 19.415Z" fill="#888888"/>
</g>
<defs>
<clipPath id="clip0_246_963">
<rect width="24" height="24" fill="white"/>
</clipPath>
</defs>
</svg>
