<svg width="24" height="24" viewBox="0 0 24 24" fill="none" xmlns="http://www.w3.org/2000/svg">
<path d="M11.5439 13.07C11.2359 13.07 10.8999 13.0373 10.5359 12.972L10.3819 12.524L9.93385 11.278C9.42985 11.25 8.89319 11.236 8.32385 11.236C7.70785 11.236 7.26919 11.2547 7.00785 11.292C6.76518 11.9173 6.56452 12.4773 6.40585 12.972C6.18185 13.028 5.98118 13.056 5.80385 13.056C5.57052 13.056 5.33252 13.028 5.08985 12.972C5.35118 12.5053 5.81318 11.404 6.47585 9.668C7.13852 7.932 7.63318 6.574 7.95985 5.594C8.33319 5.54733 8.64585 5.524 8.89785 5.524C9.16852 5.524 9.45785 5.54733 9.76585 5.594C10.0925 6.574 10.5872 7.932 11.2499 9.668C11.9125 11.404 12.3745 12.5053 12.6359 12.972C12.2999 13.0373 11.9359 13.07 11.5439 13.07ZM8.85585 10.186C9.03319 10.186 9.25252 10.1767 9.51385 10.158C9.12185 9.05667 8.77185 8.14667 8.46385 7.428C8.06252 8.44533 7.71718 9.35067 7.42785 10.144C7.87585 10.172 8.35185 10.186 8.85585 10.186ZM15.5608 15.52C15.0194 15.52 14.5248 15.464 14.0768 15.352C13.6288 15.2493 13.2694 15.1047 12.9988 14.918C12.9988 14.61 13.0548 14.302 13.1668 13.994C13.2788 13.6953 13.4374 13.4247 13.6428 13.182C13.3441 12.986 13.1948 12.6967 13.1948 12.314C13.1948 12.034 13.2788 11.7773 13.4468 11.544C13.6241 11.3107 13.8668 11.1193 14.1748 10.97C13.9041 10.7927 13.6941 10.5687 13.5448 10.298C13.3954 10.018 13.3208 9.70533 13.3208 9.36C13.3208 8.93067 13.4328 8.548 13.6568 8.212C13.8808 7.876 14.1934 7.61467 14.5948 7.428C15.0054 7.24133 15.4674 7.148 15.9808 7.148C16.5034 7.148 16.9421 7.24133 17.2968 7.428C17.6888 7.316 18.1181 7.05467 18.5848 6.644C18.6874 6.85867 18.7714 7.10133 18.8368 7.372C18.9114 7.64267 18.9488 7.86667 18.9488 8.044C18.7154 8.16533 18.4494 8.24467 18.1508 8.282C18.2721 8.55267 18.3328 8.83267 18.3328 9.122C18.3328 9.55133 18.2161 9.934 17.9828 10.27C17.7494 10.606 17.4228 10.8673 17.0028 11.054C16.5921 11.2407 16.1208 11.334 15.5888 11.334C15.1968 11.334 14.8794 11.3853 14.6368 11.488C14.4034 11.5907 14.2868 11.7213 14.2868 11.88L16.9188 12.02C17.5161 12.0667 17.9688 12.2207 18.2768 12.482C18.5941 12.734 18.7528 13.084 18.7528 13.532C18.7528 13.9053 18.6128 14.2413 18.3328 14.54C18.0528 14.848 17.6701 15.086 17.1848 15.254C16.6994 15.4313 16.1581 15.52 15.5608 15.52ZM15.7988 10.466C16.0788 10.466 16.2981 10.3867 16.4568 10.228C16.6154 10.0693 16.6948 9.84533 16.6948 9.556C16.6948 9.29467 16.6248 9.07533 16.4848 8.898C16.3541 8.71133 16.1628 8.576 15.9108 8.492C15.6308 8.492 15.3974 8.59 15.2108 8.786C15.0334 8.982 14.9448 9.22933 14.9448 9.528C14.9448 9.808 15.0241 10.0367 15.1828 10.214C15.3414 10.382 15.5468 10.466 15.7988 10.466ZM15.9108 14.47C16.3121 14.47 16.6434 14.414 16.9048 14.302C17.1661 14.19 17.2968 14.0547 17.2968 13.896C17.2968 13.756 17.2314 13.6627 17.1008 13.616C16.9794 13.5693 16.7508 13.5367 16.4148 13.518L14.4688 13.406C14.3941 13.5553 14.3428 13.7047 14.3148 13.854C14.6694 14.2647 15.2014 14.47 15.9108 14.47Z" fill="#333333"/>
</svg>
