<svg width="24" height="24" viewBox="0 0 24 24" fill="none" xmlns="http://www.w3.org/2000/svg">
<path d="M14.9496 13.67C14.9496 13.698 14.945 13.7167 14.9356 13.726L14.9776 13.67H14.9496ZM13.6196 10.03C13.1436 10.03 12.7656 10.156 12.4856 10.408C12.6723 10.4267 12.817 10.436 12.9196 10.436C13.489 10.436 13.7736 10.338 13.7736 10.142C13.7736 10.0673 13.7223 10.03 13.6196 10.03ZM15.2716 10.884C14.301 11.864 13.5636 12.578 13.0596 13.026C13.5356 13.2873 14.1143 13.4367 14.7956 13.474C15.0756 12.438 15.2343 11.5747 15.2716 10.884ZM19.7096 6.208C17.4136 8.644 16.037 10.0953 15.5796 10.562C15.5516 11.1407 15.3603 12.116 15.0056 13.488H15.1036C15.5236 12.9 15.771 12.5453 15.8456 12.424C15.9203 12.2933 16.2796 11.724 16.9236 10.716C18.8183 7.748 19.7656 6.25467 19.7656 6.236L19.7096 6.208ZM12.8636 12.9C13.5916 12.256 14.399 11.4767 15.2856 10.562C15.2856 9.862 15.141 9.148 14.8516 8.42C14.693 8 14.4876 7.62667 14.2356 7.3C13.993 6.964 13.657 6.684 13.2276 6.46C12.8076 6.236 12.3316 6.124 11.7996 6.124C10.7543 6.124 10.2316 6.70267 10.2316 7.86C10.2316 8.37333 10.4183 8.882 10.7916 9.386C11.1743 9.89 11.6736 10.2167 12.2896 10.366C12.7003 9.98333 13.1996 9.792 13.7876 9.792C14.0956 9.792 14.2496 9.876 14.2496 10.044C14.2496 10.1747 14.133 10.3147 13.8996 10.464C13.6663 10.604 13.3956 10.674 13.0876 10.674C12.789 10.674 12.523 10.6507 12.2896 10.604C12.0936 10.8467 11.9956 11.1267 11.9956 11.444C11.9956 12.0133 12.285 12.4987 12.8636 12.9ZM6.71763 13.418C6.71763 13.2687 6.78296 13.1333 6.91363 13.012C7.05363 12.8813 7.18896 12.788 7.31963 12.732L7.51562 12.662C7.65563 12.662 7.72563 12.7087 7.72563 12.802C7.72563 12.8953 7.66496 12.956 7.54363 12.984C7.29163 13.04 7.16563 13.1613 7.16563 13.348C7.16563 13.6187 7.38496 13.754 7.82363 13.754C8.64496 13.754 9.28429 13.6 9.74163 13.292C10.2083 12.9747 10.4416 12.606 10.4416 12.186C10.4416 11.906 10.3063 11.6727 10.0356 11.486C9.77429 11.29 9.34963 11.192 8.76163 11.192C7.65096 11.192 6.73163 11.458 6.00363 11.99C5.27563 12.5127 4.91163 13.0913 4.91163 13.726C4.91163 14.202 5.14963 14.5987 5.62563 14.916C6.10163 15.2333 6.77363 15.392 7.64163 15.392C8.50963 15.392 9.32629 15.2147 10.0916 14.86C10.8663 14.496 11.7063 13.922 12.6116 13.138C12.005 12.7647 11.7016 12.27 11.7016 11.654C11.7016 11.262 11.837 10.8933 12.1076 10.548C11.4636 10.3427 10.9316 9.95533 10.5116 9.386C10.101 8.80733 9.89563 8.24267 9.89563 7.692C9.89563 7.132 10.0683 6.68867 10.4136 6.362C10.759 6.026 11.2816 5.858 11.9816 5.858C12.915 5.858 13.7456 6.278 14.4736 7.118C15.2016 7.94867 15.575 8.98933 15.5936 10.24C16.2376 9.55867 17.227 8.504 18.5616 7.076L20.2836 5.228C20.517 4.99467 20.6616 4.878 20.7176 4.878C20.783 4.878 20.8296 4.89667 20.8576 4.934C20.895 4.97133 20.9136 5.032 20.9136 5.116C20.9136 5.19067 20.8623 5.26533 20.7596 5.34C20.6663 5.41467 20.335 5.90467 19.7656 6.81C19.2056 7.706 18.4963 8.84467 17.6376 10.226C16.7883 11.598 16.1023 12.6807 15.5796 13.474C16.1023 13.4087 16.6623 13.2453 17.2596 12.984C17.4463 12.9 17.5583 12.858 17.5956 12.858C17.6423 12.858 17.6656 12.8813 17.6656 12.928C17.6656 13.0213 17.591 13.0913 17.4416 13.138C16.863 13.4087 16.2003 13.5813 15.4536 13.656C14.6603 14.8507 14.1983 15.448 14.0676 15.448C13.9743 15.448 13.9276 15.4013 13.9276 15.308C13.9276 15.2147 14.021 15.042 14.2076 14.79L14.5716 14.258L14.7536 13.67C13.9603 13.642 13.3163 13.502 12.8216 13.25C11.823 14.1273 10.9176 14.7527 10.1056 15.126C9.29363 15.4993 8.42096 15.686 7.48763 15.686C6.55429 15.686 5.84496 15.5087 5.35963 15.154C4.87429 14.8087 4.63163 14.37 4.63163 13.838C4.63163 13.11 5.02363 12.438 5.80763 11.822C6.60096 11.206 7.60429 10.898 8.81763 10.898C10.227 10.898 10.9316 11.2947 10.9316 12.088C10.9316 12.5173 10.7216 12.886 10.3016 13.194C9.89096 13.502 9.45696 13.7167 8.99963 13.838C8.55163 13.95 8.15496 14.006 7.80963 14.006C7.08163 14.006 6.71763 13.81 6.71763 13.418ZM19.9488 13.292C19.8928 12.956 19.6268 12.788 19.1508 12.788C18.6748 12.788 18.2595 12.9607 17.9048 13.306C17.5595 13.6513 17.3868 13.9827 17.3868 14.3C17.3868 14.5987 17.5548 14.748 17.8908 14.748C18.1988 14.748 18.5628 14.622 18.9828 14.37L19.1928 14.244L19.9488 13.292ZM14.6568 18.57C15.3568 18.57 16.3648 17.7673 17.6808 16.162H17.6668C16.7708 16.162 15.9775 16.4093 15.2868 16.904C14.5962 17.408 14.2508 17.856 14.2508 18.248C14.2508 18.4627 14.3862 18.57 14.6568 18.57ZM17.9468 18.08C18.0775 18.108 18.1802 18.122 18.2548 18.122C18.5628 18.122 18.8008 18.0427 18.9688 17.884C19.1368 17.7347 19.2208 17.534 19.2208 17.282C19.2208 17.0393 19.1135 16.8107 18.8988 16.596C18.6935 16.3813 18.4042 16.246 18.0308 16.19C17.5455 16.7407 17.1488 17.1653 16.8408 17.464C16.5422 17.772 16.1782 18.0613 15.7488 18.332C15.3195 18.6027 14.9182 18.738 14.5448 18.738C14.0502 18.738 13.8028 18.5887 13.8028 18.29C13.8028 17.8513 14.2275 17.3567 15.0768 16.806C15.9168 16.2647 16.8362 15.9893 17.8348 15.98L18.8568 14.664C18.5022 14.8787 18.1428 14.986 17.7788 14.986C17.2468 14.986 16.9808 14.776 16.9808 14.356C16.9808 13.964 17.1955 13.5673 17.6248 13.166C18.0635 12.7647 18.5722 12.564 19.1508 12.564C19.7295 12.564 20.0608 12.7413 20.1448 13.096C20.2475 12.984 20.3175 12.886 20.3548 12.802C20.4202 12.6993 20.4902 12.648 20.5648 12.648C20.6488 12.648 20.6908 12.676 20.6908 12.732V12.76C20.6908 12.8813 19.8555 13.9593 18.1848 15.994C18.5955 16.05 18.9128 16.1947 19.1368 16.428C19.3608 16.6707 19.4728 16.9367 19.4728 17.226C19.4728 17.5153 19.3702 17.758 19.1648 17.954C18.9595 18.1593 18.6935 18.262 18.3668 18.262C18.0495 18.262 17.8908 18.22 17.8908 18.136C17.8908 18.0987 17.9095 18.08 17.9468 18.08Z" fill="#333333"/>
</svg>
