<svg width="24" height="24" viewBox="0 0 24 24" fill="none" xmlns="http://www.w3.org/2000/svg">
<path d="M5.54923 16H6.34723L6.86523 13.746H9.80523L10.3232 16H11.1212L8.74123 5.5H7.92923L5.54923 16ZM7.03323 12.976L8.33523 6.984L9.63723 12.976H7.03323ZM14.442 18.562C14.9086 18.562 15.3216 18.4593 15.681 18.254C16.0403 18.0533 16.3226 17.7687 16.528 17.4C16.7333 17.036 16.836 16.6113 16.836 16.126V8.44H16.066V9.014C15.884 8.78067 15.6576 8.59867 15.387 8.468C15.1163 8.33733 14.8013 8.272 14.442 8.272C13.9893 8.272 13.5856 8.37467 13.231 8.58C12.881 8.78067 12.6056 9.063 12.405 9.427C12.2043 9.791 12.104 10.2133 12.104 10.694V12.752C12.104 13.2373 12.2043 13.6643 12.405 14.033C12.6056 14.397 12.881 14.6817 13.231 14.887C13.5856 15.0877 13.9893 15.188 14.442 15.188C14.8013 15.188 15.1163 15.1227 15.387 14.992C15.6576 14.8613 15.884 14.6793 16.066 14.446V16.126C16.066 16.6207 15.9166 17.022 15.618 17.33C15.324 17.638 14.932 17.792 14.442 17.792C13.952 17.792 13.5623 17.638 13.273 17.33C12.9883 17.022 12.846 16.6207 12.846 16.126V15.986H12.076V16.126C12.076 16.854 12.2953 17.442 12.734 17.89C13.1726 18.338 13.742 18.562 14.442 18.562ZM14.491 14.418C13.987 14.418 13.5903 14.264 13.301 13.956C13.0163 13.648 12.874 13.2467 12.874 12.752V10.694C12.874 10.1947 13.0163 9.79567 13.301 9.497C13.5903 9.19367 13.9846 9.042 14.484 9.042C14.9833 9.042 15.3706 9.19367 15.646 9.497C15.926 9.79567 16.066 10.1947 16.066 10.694V12.766C16.066 13.2607 15.9283 13.6597 15.653 13.963C15.3776 14.2663 14.9903 14.418 14.491 14.418Z" fill="#333333"/>
</svg>
