<svg width="24" height="24" viewBox="0 0 24 24" fill="none" xmlns="http://www.w3.org/2000/svg">
<path d="M8.93886 7.56C8.81086 7.32533 8.74686 7.09067 8.74686 6.856C8.74686 6.12 9.94152 5.67733 12.3309 5.528C12.5335 5.08 12.6829 4.71733 12.7789 4.44C12.7789 4.41867 12.7949 4.408 12.8269 4.408C12.8909 4.408 13.0082 4.52533 13.1789 4.76C13.3495 4.99467 13.4349 5.208 13.4349 5.4C13.4349 5.41067 13.4295 5.42667 13.4189 5.448C13.4189 5.46933 13.4189 5.48533 13.4189 5.496C13.5682 5.48533 13.7815 5.48 14.0589 5.48C14.5389 5.48 14.9655 5.512 15.3389 5.576C15.7122 5.64 15.8989 5.71467 15.8989 5.8C15.8989 5.864 15.8615 5.928 15.7869 5.992C14.9229 7.60267 14.0589 9.47467 13.1949 11.608L13.4829 11.528C13.5362 11.528 13.5629 11.5387 13.5629 11.56C13.5629 11.5813 13.4082 11.688 13.0989 11.88C12.2669 13.9493 11.8029 15.464 11.7069 16.424C11.6535 17.0107 11.6269 17.3147 11.6269 17.336C11.6269 17.5707 11.6375 17.7893 11.6589 17.992C11.6802 18.1947 11.7015 18.3493 11.7229 18.456C11.7549 18.5627 11.7709 18.632 11.7709 18.664C11.7709 18.696 11.7549 18.712 11.7229 18.712C11.6055 18.712 11.4455 18.6267 11.2429 18.456C11.0402 18.296 10.8375 18.0293 10.6349 17.656C10.4429 17.2827 10.3469 16.8667 10.3469 16.408C10.3469 15.7147 10.6722 14.4933 11.3229 12.744C10.5975 13.0427 10.0269 13.192 9.61086 13.192C9.31219 13.192 9.04552 13.16 8.81086 13.096C6.80552 15.8053 5.37086 17.16 4.50686 17.16C3.90952 17.16 3.41886 16.9787 3.03486 16.616C2.66152 16.2427 2.47486 15.8053 2.47486 15.304C2.47486 14.4613 2.80552 13.5547 3.46686 12.584C4.12819 11.6133 4.73086 11.128 5.27486 11.128C5.49886 11.128 5.70152 11.16 5.88286 11.224C6.06419 11.288 6.19752 11.352 6.28286 11.416C6.36819 11.48 6.41086 11.5333 6.41086 11.576C6.41086 11.608 6.34686 11.6667 6.21886 11.752C6.10152 11.8267 5.94686 11.9333 5.75486 12.072C5.56286 12.2107 5.40286 12.36 5.27486 12.52C4.88019 13.0107 4.53352 13.6133 4.23486 14.328C3.93619 15.032 3.78686 15.56 3.78686 15.912C3.78686 16.0293 3.80286 16.1093 3.83486 16.152C3.87752 16.184 3.95219 16.2 4.05886 16.2C5.02952 16.2 6.35752 15.064 8.04286 12.792C7.59486 12.536 7.37086 12.3387 7.37086 12.2C7.37086 12.168 7.41352 12.152 7.49886 12.152C7.52019 12.152 7.62686 12.1787 7.81886 12.232C8.02152 12.2853 8.20819 12.3227 8.37886 12.344C9.66952 10.5413 10.8695 8.52 11.9789 6.28C10.4855 6.49333 9.47219 6.92 8.93886 7.56ZM11.6269 11.992C12.5122 9.79467 13.4242 7.832 14.3629 6.104C13.8295 6.12533 13.4242 6.14667 13.1469 6.168C12.2829 7.928 11.0189 9.992 9.35486 12.36C10.0055 12.296 10.7629 12.1733 11.6269 11.992ZM17.4487 11.224C17.8007 11.224 18.2114 11.4587 18.6807 11.928C18.6914 11.896 18.7181 11.8267 18.7607 11.72C18.8034 11.6027 18.8354 11.5173 18.8567 11.464C18.8887 11.4 18.9207 11.3307 18.9527 11.256C18.9954 11.1813 19.0327 11.128 19.0647 11.096C19.1074 11.0533 19.1447 11.032 19.1767 11.032C19.2834 11.032 19.4541 11.1013 19.6887 11.24C19.9341 11.368 20.0567 11.4747 20.0567 11.56C19.8861 12.0507 19.4861 12.8773 18.8567 14.04C18.2274 15.2027 17.5501 16.3707 16.8247 17.544H17.4167C18.3341 17.544 19.0754 17.656 19.6407 17.88C20.2061 18.1147 20.5261 18.4187 20.6007 18.792C19.7047 18.4187 18.6754 18.232 17.5127 18.232C17.0647 18.232 16.6861 18.2533 16.3767 18.296C15.0221 20.4293 14.1047 21.6347 13.6247 21.912C13.3047 21.912 12.8567 21.6507 12.2807 21.128C11.6941 20.6053 11.4007 20.152 11.4007 19.768C11.4007 19.3627 11.8007 18.9467 12.6007 18.52C13.3901 18.0933 14.4087 17.8053 15.6567 17.656C16.2967 16.6213 16.9634 15.4213 17.6567 14.056C16.0354 15.9973 15.0327 16.968 14.6487 16.968C14.3927 16.968 14.1794 16.8773 14.0087 16.696C13.8381 16.504 13.7527 16.2693 13.7527 15.992C13.7527 15.4267 14.0034 14.76 14.5047 13.992C15.0061 13.2133 15.5501 12.5573 16.1367 12.024C16.7234 11.4907 17.1607 11.224 17.4487 11.224ZM14.8247 16.072C14.9421 16.072 15.3474 15.7467 16.0407 15.096C16.7341 14.4453 17.4754 13.688 18.2647 12.824L18.4567 12.424C18.1794 12.2427 17.9874 12.152 17.8807 12.152C17.6354 12.152 17.2567 12.4027 16.7447 12.904C16.2434 13.3947 15.7847 13.9547 15.3687 14.584C14.9527 15.2133 14.7447 15.688 14.7447 16.008C14.7447 16.0507 14.7714 16.072 14.8247 16.072ZM13.2887 21.064C13.6514 20.744 14.2594 19.9013 15.1127 18.536C14.5581 18.6853 14.0567 18.8827 13.6087 19.128C13.1714 19.3733 12.8621 19.592 12.6807 19.784C12.4887 19.976 12.3927 20.1147 12.3927 20.2C12.3927 20.296 12.4994 20.4453 12.7127 20.648C12.9154 20.8613 13.1074 21 13.2887 21.064Z" fill="#888888"/>
</svg>
