<svg width="24" height="24" viewBox="0 0 24 24" fill="none" xmlns="http://www.w3.org/2000/svg">
<g clip-path="url(#clip0_201_5009)">
<path d="M9.91406 10.791C9.23503 10.4629 8.62663 10.2145 8.08887 10.0459C6.92676 11.4495 6.24089 12.8099 6.03125 14.127C5.99935 14.3411 5.9834 14.5576 5.9834 14.7764C5.9834 14.9906 6.00391 15.207 6.04492 15.4258C5.58919 15.763 5.11979 16.0137 4.63672 16.1777C4.4681 16.237 4.33138 16.2666 4.22656 16.2666C4.12174 16.2666 4.01237 16.2393 3.89844 16.1846C3.78906 16.1299 3.6888 16.0456 3.59766 15.9316C3.37891 15.6764 3.26953 15.3369 3.26953 14.9131C3.26953 14.4893 3.34473 14.0609 3.49512 13.6279C3.65007 13.195 3.86198 12.7575 4.13086 12.3154C4.63672 11.4814 5.36589 10.6133 6.31836 9.71094C5.94466 9.68815 5.57324 9.67676 5.2041 9.67676C4.83496 9.67676 4.44987 9.72461 4.04883 9.82031C3.20117 10.0208 2.69531 10.4036 2.53125 10.9688C2.49935 11.069 2.4834 11.2012 2.4834 11.3652C2.4834 11.5247 2.53809 11.7321 2.64746 11.9873C2.55632 12.1559 2.3444 12.2243 2.01172 12.1924C1.66536 12.1605 1.39421 12.0671 1.19824 11.9121C0.829102 11.6204 0.644531 11.2992 0.644531 10.9482C0.644531 10.2646 1.12305 9.71549 2.08008 9.30078C2.96875 8.91341 4.05111 8.71973 5.32715 8.71973C5.89681 8.71973 6.52116 8.79264 7.2002 8.93848C8.90918 7.5166 10.6615 6.47526 12.457 5.81445C13.3229 5.49544 14.0885 5.33594 14.7539 5.33594C15.0638 5.33594 15.2939 5.40658 15.4443 5.54785C15.5993 5.68457 15.6768 5.86003 15.6768 6.07422C15.6768 6.28385 15.6198 6.5459 15.5059 6.86035C15.3965 7.1748 15.2575 7.52572 15.0889 7.91309C14.9202 8.2959 14.738 8.70833 14.542 9.15039C14.3506 9.59245 14.1706 10.0436 14.002 10.5039C13.61 11.5749 13.4141 12.4818 13.4141 13.2246C13.4141 13.7669 13.6533 14.0381 14.1318 14.0381C14.2686 14.0381 14.4189 14.0039 14.583 13.9355C14.6696 13.9948 14.7402 14.0745 14.7949 14.1748C14.8496 14.2705 14.877 14.3548 14.877 14.4277C14.877 14.5007 14.8473 14.6055 14.7881 14.7422C14.7334 14.8789 14.6536 15.0179 14.5488 15.1592C14.444 15.2959 14.3164 15.4281 14.166 15.5557C14.0202 15.6833 13.8584 15.7972 13.6807 15.8975C13.0153 16.2757 12.2952 16.3327 11.5205 16.0684C10.8779 15.8542 10.4199 15.4121 10.1465 14.7422C10.0098 14.3958 9.94141 14.0016 9.94141 13.5596C9.94141 13.1175 10.0098 12.7028 10.1465 12.3154C10.2832 11.9235 10.4609 11.5407 10.6797 11.167C10.903 10.7887 11.1559 10.4242 11.4385 10.0732C11.7256 9.72233 12.0173 9.38737 12.3135 9.06836C12.6143 8.74479 12.9059 8.44173 13.1885 8.15918C13.4756 7.87663 13.7285 7.61458 13.9473 7.37305C14.444 6.83984 14.6924 6.47298 14.6924 6.27246C14.6924 6.16764 14.5967 6.11523 14.4053 6.11523C13.5758 6.11523 12.6302 6.42513 11.5684 7.04492C10.543 7.64648 9.58138 8.4235 8.68359 9.37598C9.4082 9.63574 9.84798 9.87044 10.0029 10.0801C10.1807 10.3171 10.151 10.554 9.91406 10.791ZM21.6924 10.0801C21.8883 9.85677 22.1139 9.74512 22.3691 9.74512C22.5195 9.74512 22.6471 9.78841 22.752 9.875C22.3008 10.5951 21.8359 11.666 21.3574 13.0879C21.2253 13.4798 21.0931 13.8717 20.9609 14.2637C21.7539 14.1543 22.5195 13.7396 23.2578 13.0195C23.4766 12.8008 23.6634 12.5729 23.8184 12.3359C24.0234 12.3223 24.126 12.4066 24.126 12.5889C24.126 12.6618 24.0713 12.8281 23.9619 13.0879C23.8525 13.3477 23.6657 13.6462 23.4014 13.9834C23.1416 14.3206 22.8499 14.6191 22.5264 14.8789C21.8883 15.3848 21.1729 15.7243 20.3799 15.8975C19.9515 17.0003 19.4844 17.832 18.9785 18.3926C18.3633 19.0762 17.6273 19.418 16.7705 19.418C16.1598 19.418 15.6243 19.2425 15.1641 18.8916C14.6719 18.5133 14.4258 18.0508 14.4258 17.5039C14.4258 17.276 14.5352 17.0482 14.7539 16.8203C14.9772 16.5879 15.2119 16.4443 15.458 16.3896C15.654 16.6403 16.0618 16.8454 16.6816 17.0049C16.8411 17.0459 16.9938 17.0664 17.1396 17.0664C17.29 17.0664 17.4518 17.0117 17.625 16.9023C17.8027 16.7975 17.9782 16.6517 18.1514 16.4648C18.4704 16.1139 18.8076 15.6172 19.1631 14.9746C18.5068 15.6582 17.7822 16 16.9893 16C16.5062 16 16.1074 15.8291 15.793 15.4873C15.474 15.141 15.3145 14.6966 15.3145 14.1543C15.3145 13.457 15.5879 12.7803 16.1348 12.124C16.6634 11.486 17.3561 10.9665 18.2129 10.5654C19.1016 10.1507 20.0199 9.94336 20.9678 9.94336C21.2913 9.94336 21.5329 9.98893 21.6924 10.0801ZM17.5156 13.04C17.5156 13.5687 17.7367 13.833 18.1787 13.833C18.8076 13.833 19.6348 13.1107 20.6602 11.666C20.8151 11.4518 20.9609 11.2445 21.0977 11.0439C21.1523 10.9437 21.2389 10.7865 21.3574 10.5723C20.2227 10.5996 19.293 10.8639 18.5684 11.3652C17.8665 11.8438 17.5156 12.402 17.5156 13.04Z" fill="#333333"/>
</g>
<defs>
<clipPath id="clip0_201_5009">
<rect width="24" height="24" fill="white"/>
</clipPath>
</defs>
</svg>
