<svg width="24" height="24" viewBox="0 0 24 24" fill="none" xmlns="http://www.w3.org/2000/svg">
<path d="M5.77832 13.7256H8.93652L7.38477 8.4209L5.77832 13.7256ZM2.66797 17L5.99023 6.91016H8.68359L12.0469 17H9.89355L9.32617 15.0791H5.375L4.78711 17H2.66797ZM16.5449 15.5439C17.151 15.5439 17.6045 15.4346 17.9053 15.2158V11.3125C17.9053 11.2031 17.7754 11.0892 17.5156 10.9707C17.2513 10.8568 16.9141 10.7998 16.5039 10.7998C15.6562 10.7998 15.2324 11.1416 15.2324 11.8252V14.5664C15.2324 15.2181 15.6699 15.5439 16.5449 15.5439ZM16.4492 20.0146C15.3691 20.0146 14.5602 19.887 14.0225 19.6318L14.4053 18.3672C15.0934 18.5586 15.7269 18.6543 16.3057 18.6543C16.889 18.6543 17.3014 18.5381 17.543 18.3057C17.7845 18.0778 17.9053 17.7109 17.9053 17.2051V16.3984C17.4769 16.6536 16.8685 16.7812 16.0801 16.7812C15.2962 16.7812 14.6491 16.5807 14.1387 16.1797C13.6283 15.7741 13.373 15.2135 13.373 14.498V11.8662C13.373 11.2054 13.5872 10.6471 14.0156 10.1914C14.4486 9.73112 15.1663 9.50098 16.1689 9.50098C16.5563 9.50098 16.9346 9.56706 17.3037 9.69922C17.6774 9.82682 17.985 9.98861 18.2266 10.1846L18.3838 9.65137H19.7646V17.082C19.7646 19.0371 18.6595 20.0146 16.4492 20.0146Z" fill="#333333"/>
</svg>
