<svg width="24" height="24" viewBox="0 0 24 24" fill="none" xmlns="http://www.w3.org/2000/svg">
<g clip-path="url(#clip0_201_5019)">
<path d="M4.67773 13.6777L4.87598 13.1855H6.55762L6.75586 13.6777H4.67773ZM4.29492 14.6621L4.48633 14.1699H6.94043L7.15234 14.6621H4.29492ZM3.91211 15.6465L4.10352 15.1543H7.33008L7.53516 15.6465H3.91211ZM-0.0869141 17H-0.620117L3.85742 5.67969H4.39062L8.86133 17H8.33496L4.12402 6.34277L-0.0869141 17ZM4.18555 7.51172L4.46582 8.14062L0.96582 17H0.439453L4.18555 7.51172ZM4.73242 8.81055L4.99219 9.4873L2.03223 17H1.49902L4.73242 8.81055ZM5.25195 10.1641L5.51172 10.8545L3.08496 17H2.55859L5.25195 10.1641ZM12.04 17H11.5068L7.03613 5.67969H7.5625L12.04 17ZM6.50293 5.67969L10.9805 17H10.4541L5.97656 5.67969H6.50293ZM5.44336 5.67969L9.9209 17H9.3877L4.91699 5.67969H5.44336ZM19.8262 12.0098H20.3184V17C19.5892 17.3281 18.835 17.4922 18.0557 17.4922C17.3219 17.4922 16.6201 17.3486 15.9502 17.0615C15.2848 16.7744 14.7106 16.3893 14.2275 15.9062C13.7445 15.4232 13.3594 14.849 13.0723 14.1836C12.7852 13.5137 12.6416 12.8118 12.6416 12.0781C12.6416 11.3444 12.7852 10.6449 13.0723 9.97949C13.3594 9.30957 13.7445 8.73307 14.2275 8.25C14.7106 7.76693 15.2848 7.38184 15.9502 7.09473C16.6201 6.80762 17.3219 6.66406 18.0557 6.66406C18.8942 6.66406 19.6826 6.84635 20.4209 7.21094C21.1592 7.57096 21.7812 8.06771 22.2871 8.70117L21.8906 8.99512C21.4303 8.42546 20.8652 7.97656 20.1953 7.64844C19.5299 7.32031 18.8167 7.15625 18.0557 7.15625C17.3903 7.15625 16.7523 7.28613 16.1416 7.5459C15.5355 7.80566 15.0114 8.15658 14.5693 8.59863C14.1318 9.03613 13.7832 9.56022 13.5234 10.1709C13.2637 10.777 13.1338 11.4128 13.1338 12.0781C13.1338 12.7435 13.2637 13.3815 13.5234 13.9922C13.7832 14.5983 14.1318 15.1224 14.5693 15.5645C15.0114 16.002 15.5355 16.3506 16.1416 16.6104C16.7523 16.8701 17.3903 17 18.0557 17C18.6709 17 19.2611 16.8906 19.8262 16.6719V16.166C19.2565 16.3939 18.6663 16.5078 18.0557 16.5078C17.4541 16.5078 16.8799 16.3916 16.333 16.1592C15.7861 15.9222 15.3145 15.6077 14.918 15.2158C14.526 14.8193 14.2116 14.3477 13.9746 13.8008C13.7422 13.2539 13.626 12.6797 13.626 12.0781C13.626 11.4766 13.7422 10.9023 13.9746 10.3555C14.2116 9.80859 14.526 9.33919 14.918 8.94727C15.3145 8.55078 15.7861 8.23633 16.333 8.00391C16.8799 7.76693 17.4541 7.64844 18.0557 7.64844C18.7438 7.64844 19.3887 7.79655 19.9902 8.09277C20.5964 8.389 21.1068 8.79688 21.5215 9.31641L21.1387 9.62402C20.7695 9.16374 20.3161 8.80143 19.7783 8.53711C19.2406 8.27279 18.6663 8.14062 18.0557 8.14062C17.5225 8.14062 17.012 8.24544 16.5244 8.45508C16.0413 8.66016 15.6221 8.94043 15.2666 9.2959C14.9157 9.64681 14.6354 10.0661 14.4258 10.5537C14.2207 11.0368 14.1182 11.5449 14.1182 12.0781C14.1182 12.6113 14.2207 13.1217 14.4258 13.6094C14.6354 14.0924 14.9157 14.5117 15.2666 14.8672C15.6221 15.2181 16.0413 15.4984 16.5244 15.708C17.012 15.9131 17.5225 16.0156 18.0557 16.0156C18.6846 16.0156 19.2747 15.888 19.8262 15.6328V15.127C19.2747 15.3913 18.6846 15.5234 18.0557 15.5234C17.4313 15.5234 16.8548 15.3708 16.3262 15.0654C15.7975 14.7555 15.3783 14.3363 15.0684 13.8076C14.763 13.279 14.6104 12.7025 14.6104 12.0781C14.6104 11.4538 14.763 10.8773 15.0684 10.3486C15.3783 9.81999 15.7975 9.40299 16.3262 9.09766C16.8548 8.78776 17.4313 8.63281 18.0557 8.63281C18.5889 8.63281 19.0902 8.74902 19.5596 8.98145C20.0335 9.20931 20.43 9.52604 20.749 9.93164L20.3594 10.2324C20.0859 9.88607 19.7464 9.61491 19.3408 9.41895C18.9398 9.22298 18.5114 9.125 18.0557 9.125C17.2399 9.125 16.5426 9.41439 15.9639 9.99316C15.3896 10.5719 15.1025 11.2669 15.1025 12.0781C15.1025 12.8893 15.3896 13.5843 15.9639 14.1631C16.5426 14.7419 17.2399 15.0312 18.0557 15.0312C18.6937 15.0312 19.2839 14.8763 19.8262 14.5664V14.0674C19.293 14.3818 18.7028 14.5391 18.0557 14.5391C17.3766 14.5391 16.7956 14.2998 16.3125 13.8213C15.834 13.3382 15.5947 12.7572 15.5947 12.0781C15.5947 11.3991 15.834 10.8203 16.3125 10.3418C16.7956 9.85872 17.3766 9.61719 18.0557 9.61719C18.4385 9.61719 18.7985 9.7015 19.1357 9.87012C19.473 10.0342 19.7555 10.2598 19.9834 10.5469L19.5869 10.8477C19.1904 10.3555 18.68 10.1094 18.0557 10.1094C17.5133 10.1094 17.0485 10.3031 16.6611 10.6904C16.2783 11.0732 16.0869 11.5358 16.0869 12.0781C16.0869 12.6204 16.2783 13.0853 16.6611 13.4727C17.0485 13.8555 17.5133 14.0469 18.0557 14.0469C18.7529 14.0469 19.3431 13.8532 19.8262 13.4658V12.0098ZM22.7793 12.0098H23.2715V17H22.7793V12.0098ZM21.7949 12.0098H22.2871V17H21.7949V12.0098ZM20.8105 12.0098H21.3027V17H20.8105V12.0098Z" fill="#333333"/>
</g>
<defs>
<clipPath id="clip0_201_5019">
<rect width="24" height="24" fill="white"/>
</clipPath>
</defs>
</svg>
