<svg width="24" height="24" viewBox="0 0 24 24" fill="none" xmlns="http://www.w3.org/2000/svg">
<path d="M10.8662 17H12.3362L7.88422 7.2H6.49822L2.06022 17H3.50222L4.58022 14.55H9.78822L10.8662 17ZM5.07022 13.43L7.18422 8.628L9.29822 13.43H5.07022ZM19.3578 9.58V10.728C18.7278 9.916 17.7198 9.51 16.6138 9.51C14.4718 9.51 12.8478 10.952 12.8478 13.094C12.8478 15.236 14.4718 16.692 16.6138 16.692C17.6778 16.692 18.6438 16.314 19.2878 15.544V16.132C19.2878 17.812 18.4898 18.624 16.7398 18.624C15.6478 18.624 14.5698 18.246 13.8838 17.658L13.2398 18.694C14.0518 19.422 15.4238 19.8 16.7818 19.8C19.3018 19.8 20.6318 18.61 20.6318 15.992V9.58H19.3578ZM16.7678 15.516C15.2698 15.516 14.2058 14.522 14.2058 13.094C14.2058 11.652 15.2698 10.686 16.7678 10.686C18.2518 10.686 19.3158 11.652 19.3158 13.094C19.3158 14.522 18.2518 15.516 16.7678 15.516Z" fill="#888888"/>
</svg>
