<svg width="24" height="24" viewBox="0 0 24 24" fill="none" xmlns="http://www.w3.org/2000/svg">
<path d="M13.8922 16.398V17H10.2102L9.30018 14.886H5.19818L4.28818 17H0.60618V16.398H2.21618L6.19218 7.214H8.30618L12.2682 16.398H13.8922ZM7.25618 10.126L6.02418 12.968H8.47418L7.25618 10.126ZM22.9658 16.398V17H12.4658V16.398H15.5038C14.7572 15.9593 14.1692 15.3667 13.7398 14.62C13.3198 13.864 13.1098 13.01 13.1098 12.058C13.1098 10.6207 13.6045 9.41667 14.5938 8.446C15.5925 7.47533 16.7918 6.99 18.1918 6.99C19.6012 6.99 20.8238 7.452 21.8598 8.376L20.7258 10.014C20.2872 9.63133 19.8812 9.37 19.5078 9.23C19.1438 9.08067 18.7472 9.006 18.3178 9.006C17.4872 9.006 16.7872 9.29067 16.2178 9.86C15.6485 10.42 15.3638 11.162 15.3638 12.086C15.3638 13.01 15.6345 13.752 16.1758 14.312C16.7265 14.8627 17.3798 15.138 18.1358 15.138C18.8918 15.138 19.5218 14.9933 20.0258 14.704V12.016H22.2238V15.488C21.9065 15.8427 21.5285 16.146 21.0898 16.398H22.9658Z" fill="#888888"/>
</svg>
