<svg width="24" height="24" viewBox="0 0 24 24" fill="none" xmlns="http://www.w3.org/2000/svg">
<path d="M12.198 17L9.87397 7.2H6.62597L0.381969 17H3.86797L4.84797 15.292H8.58597L8.90797 17H12.198ZM7.64797 10.406L8.12397 12.912H6.20597L7.64797 10.406ZM19.4189 10.504C19.0269 9.552 18.1449 9.202 17.0809 9.202C14.7849 9.202 12.9649 11.008 12.9649 13.276C12.9649 15.348 14.5749 16.58 16.2689 16.58C17.0249 16.58 17.6689 16.342 18.2009 15.852L18.1589 16.048C17.9769 16.958 17.4869 17.504 16.2549 17.504C15.3309 17.504 14.3649 17.21 13.7489 16.748L12.4049 18.904C13.3569 19.534 14.6449 19.856 16.1989 19.856C18.9569 19.856 20.8189 18.582 21.4349 15.46L22.6529 9.342H19.6429L19.4189 10.504ZM16.1569 13.122C16.1569 12.254 16.7169 11.694 17.5289 11.694C18.2289 11.694 18.6349 12.1 18.6349 12.674C18.6349 13.542 18.0889 14.102 17.2769 14.102C16.5769 14.102 16.1569 13.696 16.1569 13.122Z" fill="#333333"/>
</svg>
