<svg width="24" height="24" viewBox="0 0 24 24" fill="none" xmlns="http://www.w3.org/2000/svg">
<path d="M11.1358 17H12.2278L7.74777 7.2H6.72577L2.24577 17H3.32377L4.49977 14.382H9.95977L11.1358 17ZM4.87777 13.542L7.22977 8.278L9.58177 13.542H4.87777ZM19.4366 9.636V11.05C18.8206 10.084 17.7566 9.58 16.5246 9.58C14.4246 9.58 12.8286 11.022 12.8286 13.136C12.8286 15.25 14.4246 16.72 16.5246 16.72C17.7286 16.72 18.7786 16.23 19.3946 15.292V16.23C19.3946 18.05 18.5406 18.904 16.6786 18.904C15.5446 18.904 14.4806 18.526 13.7806 17.896L13.2766 18.652C14.0466 19.38 15.3626 19.786 16.7066 19.786C19.1426 19.786 20.3886 18.638 20.3886 16.104V9.636H19.4366ZM16.6226 15.838C14.9986 15.838 13.8366 14.732 13.8366 13.136C13.8366 11.54 14.9986 10.448 16.6226 10.448C18.2466 10.448 19.4226 11.54 19.4226 13.136C19.4226 14.732 18.2466 15.838 16.6226 15.838Z" fill="#333333"/>
</svg>
