<svg width="24" height="24" viewBox="0 0 24 24" fill="none" xmlns="http://www.w3.org/2000/svg">
<path d="M6.76472 7.158C4.42672 7.158 2.91472 8.53 2.91472 11.302V17H3.19472V13.766H10.3347V17H10.6147V11.302C10.6147 8.53 9.10272 7.158 6.76472 7.158ZM3.19472 13.5V11.274C3.19472 8.698 4.53872 7.424 6.76472 7.424C8.99072 7.424 10.3347 8.698 10.3347 11.274V13.5H3.19472ZM19.9767 9.762V11.876C19.4867 10.574 18.2547 9.72 16.7007 9.72C14.6707 9.72 13.1447 11.176 13.1447 13.234C13.1447 15.292 14.6707 16.762 16.7007 16.762C18.2547 16.762 19.4867 15.894 19.9767 14.578V16.398C19.9767 18.54 18.9967 19.492 16.9107 19.492C15.6927 19.492 14.6427 19.086 13.9007 18.358L13.7047 18.554C14.3907 19.31 15.5947 19.758 16.9107 19.758C19.1507 19.758 20.2567 18.694 20.2567 16.356V9.762H19.9767ZM16.7007 16.496C14.8107 16.496 13.4247 15.152 13.4247 13.234C13.4247 11.316 14.8107 9.986 16.7007 9.986C18.5907 9.986 19.9767 11.316 19.9767 13.234C19.9767 15.152 18.5907 16.496 16.7007 16.496Z" fill="#333333"/>
</svg>
