<svg width="24" height="24" viewBox="0 0 24 24" fill="none" xmlns="http://www.w3.org/2000/svg">
<path d="M7.81472 7.158C5.36472 7.158 3.89472 8.488 3.33472 11.288L2.20072 17H2.48072L3.12472 13.766H10.2507L9.60672 17H9.88672L11.0207 11.302C11.1047 10.91 11.1327 10.532 11.1327 10.182C11.1327 8.264 9.94272 7.158 7.81472 7.158ZM10.3067 13.5H3.18072L3.61472 11.316C4.13272 8.684 5.49072 7.424 7.81472 7.424C9.77472 7.424 10.8667 8.404 10.8667 10.21C10.8667 10.546 10.8247 10.924 10.7407 11.33L10.3067 13.5ZM20.2567 12.114C20.0747 10.602 18.9827 9.72 17.2187 9.72C14.8247 9.72 13.1027 11.526 13.1027 13.934C13.1027 15.684 14.2927 16.762 16.2247 16.762C17.7927 16.762 19.0387 15.992 19.7247 14.788L19.4027 16.398C18.9827 18.54 17.8067 19.492 15.7207 19.492C14.5167 19.492 13.5227 19.1 12.9347 18.358L12.6827 18.554C13.3127 19.31 14.3907 19.758 15.7067 19.758C17.9887 19.758 19.2067 18.75 19.6827 16.356L20.9987 9.762H20.7187L20.2567 12.114ZM16.2527 16.496C14.4467 16.496 13.3827 15.558 13.3827 13.92C13.3827 11.666 14.9927 9.986 17.1907 9.986C18.9967 9.986 20.0607 10.924 20.0607 12.562C20.0607 14.83 18.4507 16.496 16.2527 16.496Z" fill="#333333"/>
</svg>
