<svg width="24" height="24" viewBox="0 0 24 24" fill="none" xmlns="http://www.w3.org/2000/svg">
<path d="M7.76621 7.13C5.24621 7.13 3.70621 8.474 3.14621 11.316L2.01221 17H2.72621L3.32821 13.976H9.88021L9.27821 17H9.99221L11.1122 11.4C11.1962 11.008 11.2242 10.63 11.2242 10.28C11.2242 8.278 9.96421 7.13 7.76621 7.13ZM10.0062 13.332H3.46821L3.86021 11.344C4.33621 8.908 5.59621 7.788 7.71021 7.788C9.51621 7.788 10.5102 8.67 10.5102 10.336C10.5102 10.658 10.4682 11.008 10.3982 11.386L10.0062 13.332ZM20.1108 11.554C19.7608 10.294 18.6688 9.636 17.1568 9.636C14.7348 9.636 12.9988 11.442 12.9988 13.822C12.9988 15.628 14.2448 16.734 16.1908 16.734C17.5488 16.734 18.6408 16.16 19.3548 15.236L19.1308 16.328C18.7528 18.26 17.6888 19.142 15.7428 19.142C14.5528 19.142 13.5588 18.764 12.9708 18.106L12.5228 18.624C13.2228 19.352 14.3428 19.772 15.6868 19.772C18.0388 19.772 19.3548 18.722 19.8448 16.216L21.1468 9.692H20.4748L20.1108 11.554ZM16.3168 16.104C14.6788 16.104 13.6988 15.25 13.6988 13.794C13.6988 11.764 15.1548 10.266 17.1568 10.266C18.8088 10.266 19.7748 11.12 19.7748 12.576C19.7748 14.62 18.3188 16.104 16.3168 16.104Z" fill="#333333"/>
</svg>
