<svg width="24" height="24" viewBox="0 0 24 24" fill="none" xmlns="http://www.w3.org/2000/svg">
<path d="M7.67636 7.088C5.05836 7.088 3.40636 8.46 2.84636 11.358L1.71236 17H3.08436L3.63036 14.298H9.28636L8.74036 17H10.1404L11.2184 11.54C11.3024 11.134 11.3444 10.756 11.3444 10.392C11.3444 8.292 9.95836 7.088 7.67636 7.088ZM4.20436 11.386C4.63836 9.258 5.73036 8.334 7.55036 8.334C9.09036 8.334 9.94436 9.076 9.94436 10.518C9.94436 10.812 9.91636 11.12 9.84636 11.456L9.52436 13.08H3.86836L4.20436 11.386ZM19.8396 10.938C19.3496 9.958 18.2856 9.51 17.0676 9.51C14.5896 9.51 12.8396 11.316 12.8396 13.668C12.8396 15.544 14.1836 16.692 16.1436 16.692C17.2496 16.692 18.1596 16.314 18.8316 15.67L18.7196 16.202C18.3976 17.812 17.5156 18.61 15.7656 18.61C14.6036 18.61 13.5956 18.246 13.0216 17.714L12.2796 18.75C13.0776 19.422 14.2536 19.8 15.6676 19.8C18.1316 19.8 19.5736 18.68 20.1056 15.992L21.3796 9.58H20.1056L19.8396 10.938ZM16.4096 15.516C15.0236 15.516 14.1976 14.788 14.1976 13.584C14.1976 11.904 15.4156 10.686 17.1096 10.686C18.5096 10.686 19.3216 11.414 19.3216 12.604C19.3216 14.298 18.1036 15.516 16.4096 15.516Z" fill="#333333"/>
</svg>
