<svg width="24" height="24" viewBox="0 0 24 24" fill="none" xmlns="http://www.w3.org/2000/svg">
<path d="M2.34804 17V16.524H3.41204L7.34604 7.382H8.03204L11.966 16.524H13.03V17H9.44604V16.524H11.126L7.43004 7.942H7.75204L4.07004 16.524H5.75004V17H2.34804ZM5.03604 13.85V13.304H10.16V13.85H5.03604ZM16.7503 19.562C16.013 19.562 15.467 19.4173 15.1123 19.128C14.7577 18.8387 14.5803 18.442 14.5803 17.938C14.5803 17.6393 14.655 17.3827 14.8043 17.168C14.963 16.9627 15.1543 16.804 15.3783 16.692C15.6117 16.58 15.8403 16.51 16.0643 16.482L16.1063 16.622C15.9943 16.678 15.8683 16.762 15.7283 16.874C15.5883 16.986 15.467 17.1167 15.3643 17.266C15.2617 17.4247 15.2103 17.616 15.2103 17.84C15.2103 18.2133 15.3317 18.512 15.5743 18.736C15.8263 18.9693 16.2463 19.086 16.8343 19.086H18.7943C19.2143 19.086 19.5503 19.0207 19.8023 18.89C20.0543 18.7593 20.2363 18.5867 20.3483 18.372C20.4603 18.1573 20.5163 17.938 20.5163 17.714C20.5163 17.3593 20.4277 17.0933 20.2503 16.916C20.073 16.7387 19.7883 16.65 19.3963 16.65H15.9663C15.425 16.65 14.9863 16.5147 14.6503 16.244C14.3143 15.964 14.1463 15.5953 14.1463 15.138C14.1463 14.8113 14.221 14.5407 14.3703 14.326C14.529 14.102 14.7343 13.9293 14.9863 13.808C15.2477 13.6867 15.523 13.6213 15.8123 13.612L15.8403 13.934C15.5323 13.9713 15.271 14.0787 15.0563 14.256C14.851 14.424 14.7483 14.676 14.7483 15.012C14.7483 15.3013 14.8603 15.544 15.0843 15.74C15.3177 15.9267 15.621 16.02 15.9943 16.02H19.4663C20.0543 16.02 20.493 16.1553 20.7823 16.426C21.081 16.6967 21.2303 17.07 21.2303 17.546C21.2303 17.8913 21.1417 18.218 20.9643 18.526C20.7963 18.834 20.5257 19.0813 20.1523 19.268C19.7883 19.464 19.3123 19.562 18.7243 19.562H16.7503ZM17.6043 14.536C17.063 14.536 16.5823 14.438 16.1623 14.242C15.7423 14.046 15.4157 13.7753 15.1823 13.43C14.949 13.0753 14.8323 12.6553 14.8323 12.17C14.8323 11.4513 15.089 10.8773 15.6023 10.448C16.125 10.0093 16.811 9.79 17.6603 9.79L19.0323 10.308C19.4243 10.4293 19.7417 10.6533 19.9843 10.98C20.227 11.2973 20.3483 11.7127 20.3483 12.226C20.3483 12.926 20.0963 13.486 19.5923 13.906C19.0977 14.326 18.435 14.536 17.6043 14.536ZM17.6043 14.032C18.211 14.032 18.6917 13.864 19.0463 13.528C19.4103 13.192 19.5923 12.7393 19.5923 12.17C19.5923 11.6007 19.4103 11.148 19.0463 10.812C18.6917 10.4667 18.211 10.294 17.6043 10.294C17.007 10.294 16.5217 10.4667 16.1483 10.812C15.7843 11.148 15.6023 11.6007 15.6023 12.17C15.6023 12.7393 15.7843 13.192 16.1483 13.528C16.5123 13.864 16.9977 14.032 17.6043 14.032ZM19.0323 10.308L17.6603 9.79H21.2303V10.308H19.0323Z" fill="#888888"/>
</svg>
