<svg width="24" height="24" viewBox="0 0 24 24" fill="none" xmlns="http://www.w3.org/2000/svg">
<path d="M11.3571 17H12.1271L7.61915 7.2H6.90515L2.39715 17H3.16715L4.41315 14.242H10.0971L11.3571 17ZM4.69315 13.64L7.25515 7.984L9.83115 13.64H4.69315ZM19.5219 9.692V11.344C18.9339 10.252 17.7999 9.636 16.4559 9.636C14.3839 9.636 12.8159 11.092 12.8159 13.178C12.8159 15.264 14.3839 16.734 16.4559 16.734C17.7719 16.734 18.8919 16.132 19.4939 15.068V16.3C19.4939 18.246 18.5839 19.142 16.6379 19.142C15.4619 19.142 14.4119 18.75 13.6839 18.078L13.3059 18.61C14.0479 19.352 15.3219 19.772 16.6519 19.772C19.0039 19.772 20.1939 18.666 20.1939 16.216V9.692H19.5219ZM16.5119 16.104C14.7899 16.104 13.5299 14.9 13.5299 13.178C13.5299 11.456 14.7899 10.266 16.5119 10.266C18.2479 10.266 19.5079 11.456 19.5079 13.178C19.5079 14.9 18.2479 16.104 16.5119 16.104Z" fill="#333333"/>
</svg>
