<svg width="24" height="24" viewBox="0 0 24 24" fill="none" xmlns="http://www.w3.org/2000/svg">
<path d="M9.75744 17H12.1374L7.75544 7.2H5.51544L1.14744 17H3.47144L4.33944 14.9H8.88944L9.75744 17ZM5.06744 13.178L6.62144 9.426L8.17544 13.178H5.06744ZM18.6298 9.468V10.434C18.0558 9.706 17.1878 9.356 16.1378 9.356C14.0518 9.356 12.3718 10.798 12.3718 12.996C12.3718 15.194 14.0518 16.636 16.1378 16.636C17.1178 16.636 17.9438 16.328 18.5178 15.698V16.02C18.5178 17.378 17.8458 18.078 16.3058 18.078C15.3398 18.078 14.2898 17.742 13.6458 17.224L12.7778 18.792C13.6598 19.478 15.0458 19.828 16.4738 19.828C19.1898 19.828 20.7018 18.54 20.7018 15.74V9.468H18.6298ZM16.5718 14.844C15.4238 14.844 14.5838 14.102 14.5838 12.996C14.5838 11.89 15.4238 11.148 16.5718 11.148C17.7198 11.148 18.5458 11.89 18.5458 12.996C18.5458 14.102 17.7198 14.844 16.5718 14.844Z" fill="#333333"/>
</svg>
