<svg width="24" height="24" viewBox="0 0 24 24" fill="none" xmlns="http://www.w3.org/2000/svg">
<path d="M7.6957 7.116C5.2317 7.116 3.6077 8.572 3.6077 11.442V17H4.6157V14.116H10.7757V17H11.7977V11.442C11.7977 8.572 10.1737 7.116 7.6957 7.116ZM4.6157 13.22V11.344C4.6157 9.118 5.8057 8.04 7.6957 8.04C9.5997 8.04 10.7757 9.118 10.7757 11.344V13.22H4.6157ZM20.5586 9.636V11.05C19.9426 10.084 18.8786 9.58 17.6466 9.58C15.5466 9.58 13.9506 11.022 13.9506 13.136C13.9506 15.25 15.5466 16.72 17.6466 16.72C18.8506 16.72 19.9006 16.23 20.5166 15.292V16.23C20.5166 18.05 19.6626 18.904 17.8006 18.904C16.6666 18.904 15.6026 18.526 14.9026 17.896L14.3986 18.652C15.1686 19.38 16.4846 19.786 17.8286 19.786C20.2646 19.786 21.5106 18.638 21.5106 16.104V9.636H20.5586ZM17.7446 15.838C16.1206 15.838 14.9586 14.732 14.9586 13.136C14.9586 11.54 16.1206 10.448 17.7446 10.448C19.3686 10.448 20.5446 11.54 20.5446 13.136C20.5446 14.732 19.3686 15.838 17.7446 15.838Z" fill="#888888"/>
</svg>
