<svg width="24" height="24" viewBox="0 0 24 24" fill="none" xmlns="http://www.w3.org/2000/svg">
<path d="M6.73021 7.13C4.32221 7.13 2.74021 8.558 2.74021 11.386V17H3.45421V13.976H10.0062V17H10.7202V11.386C10.7202 8.558 9.15221 7.13 6.73021 7.13ZM3.45421 13.332V11.316C3.45421 8.95 4.70021 7.788 6.73021 7.788C8.76021 7.788 10.0062 8.95 10.0062 11.316V13.332H3.45421ZM19.7328 9.692V11.344C19.1448 10.252 18.0108 9.636 16.6668 9.636C14.5948 9.636 13.0268 11.092 13.0268 13.178C13.0268 15.264 14.5948 16.734 16.6668 16.734C17.9828 16.734 19.1028 16.132 19.7048 15.068V16.3C19.7048 18.246 18.7948 19.142 16.8488 19.142C15.6728 19.142 14.6228 18.75 13.8948 18.078L13.5168 18.61C14.2588 19.352 15.5328 19.772 16.8628 19.772C19.2148 19.772 20.4048 18.666 20.4048 16.216V9.692H19.7328ZM16.7228 16.104C15.0008 16.104 13.7408 14.9 13.7408 13.178C13.7408 11.456 15.0008 10.266 16.7228 10.266C18.4588 10.266 19.7188 11.456 19.7188 13.178C19.7188 14.9 18.4588 16.104 16.7228 16.104Z" fill="#333333"/>
</svg>
