<svg width="24" height="24" viewBox="0 0 24 24" fill="none" xmlns="http://www.w3.org/2000/svg">
<path d="M7.02349 6.976C4.16749 6.976 2.19349 8.712 2.19349 11.778V17H5.44149V15.026H8.54949V17H11.8535V11.778C11.8535 8.712 9.87949 6.976 7.02349 6.976ZM5.44149 12.534V11.498C5.44149 10.238 6.09949 9.65 6.99549 9.65C7.89149 9.65 8.54949 10.238 8.54949 11.498V12.534H5.44149ZM18.8114 9.342V10.21C18.3354 9.524 17.5934 9.202 16.5434 9.202C14.5974 9.202 12.8614 10.616 12.8614 12.884C12.8614 15.152 14.5974 16.58 16.5434 16.58C17.4814 16.58 18.1814 16.314 18.6574 15.768V15.908C18.6574 16.93 18.1394 17.504 16.8374 17.504C16.0114 17.504 14.9894 17.21 14.3874 16.748L13.3234 18.904C14.2754 19.534 15.6474 19.856 17.1594 19.856C20.0854 19.856 21.8214 18.442 21.8214 15.474V9.342H18.8114ZM17.3834 14.116C16.6414 14.116 16.0674 13.626 16.0674 12.884C16.0674 12.142 16.6414 11.666 17.3834 11.666C18.1254 11.666 18.6854 12.142 18.6854 12.884C18.6854 13.626 18.1254 14.116 17.3834 14.116Z" fill="#333333"/>
</svg>
