<svg width="24" height="24" viewBox="0 0 24 24" fill="none" xmlns="http://www.w3.org/2000/svg">
<path d="M4.75311 17.3469C4.71003 17.3469 4.65618 17.3415 4.59157 17.3308C4.52695 17.32 4.49464 17.2823 4.49464 17.2177C4.49464 17.1854 4.53234 17.11 4.60772 16.9915C4.67234 16.8838 4.74234 16.7708 4.81772 16.6523C4.89311 16.5338 4.94157 16.4531 4.96311 16.41C4.99541 16.3562 5.01695 16.3023 5.02772 16.2485C5.04926 16.1838 5.0708 16.13 5.09234 16.0869C5.11388 16.0115 5.17849 15.9738 5.28618 15.9738C5.32926 15.9738 5.36157 15.9792 5.38311 15.99C5.57695 15.6562 5.78695 15.3062 6.01311 14.94C6.25003 14.5738 6.46541 14.2454 6.65926 13.9546C6.85311 13.6638 6.98234 13.4754 7.04695 13.3892C6.93926 13.3892 6.82618 13.3946 6.70772 13.4054C6.58926 13.4162 6.46541 13.4215 6.33618 13.4215C6.2608 13.4215 6.15849 13.4108 6.02926 13.3892C5.9108 13.3677 5.85157 13.3192 5.85157 13.2438C5.85157 13.2331 5.85157 13.2277 5.85157 13.2277C5.86234 13.2169 5.86772 13.2062 5.86772 13.1954C5.95388 12.9477 6.04541 12.8023 6.14234 12.7592C6.25003 12.7054 6.42234 12.6785 6.65926 12.6785C6.79926 12.6785 6.93926 12.6785 7.07926 12.6785C7.23003 12.6785 7.37541 12.6892 7.51541 12.7108C8.0108 11.9892 8.45234 11.3754 8.84003 10.8692C9.22772 10.3523 9.58849 9.9 9.92234 9.51231C10.267 9.11384 10.6116 8.74231 10.9562 8.39769C11.3008 8.05308 11.6777 7.69231 12.087 7.31538C12.0762 7.26154 12.06 7.20231 12.0385 7.13769C12.0277 7.06231 12.0223 6.99769 12.0223 6.94384C12.0223 6.85769 12.0923 6.76615 12.2323 6.66923C12.3723 6.56154 12.4746 6.50769 12.5393 6.50769C12.5823 6.50769 12.62 6.51846 12.6523 6.54C12.6954 6.55077 12.7223 6.59384 12.7331 6.66923C12.7654 6.92769 12.7977 7.28308 12.83 7.73538C12.8623 8.17692 12.8893 8.67231 12.9108 9.22154C12.9431 9.77077 12.9646 10.3308 12.9754 10.9015C12.997 11.4615 13.0077 11.9892 13.0077 12.4846V13.0338H13.0723C13.0939 13.0338 13.1585 13.0392 13.2662 13.05C13.3846 13.05 13.4439 13.0662 13.4439 13.0985C13.4439 13.1846 13.3739 13.2492 13.2339 13.2923C13.1046 13.3246 13.0239 13.3408 12.9916 13.3408C12.9916 13.7069 12.9862 14.0515 12.9754 14.3746C12.9646 14.6977 12.9485 15.0369 12.927 15.3923C12.9162 15.5646 12.9054 15.7423 12.8946 15.9254C12.8839 16.0977 12.8677 16.2754 12.8462 16.4585C12.8354 16.5231 12.787 16.6092 12.7008 16.7169C12.6146 16.8138 12.5177 16.9 12.41 16.9754C12.3131 17.0615 12.227 17.1046 12.1516 17.1046C12.1085 17.1046 12.087 17.0831 12.087 17.04C12.087 17.0185 12.0977 16.8838 12.1193 16.6362C12.1516 16.3777 12.1839 16.13 12.2162 15.8931C12.227 15.85 12.2377 15.7046 12.2485 15.4569C12.27 15.1985 12.2916 14.8862 12.3131 14.52C12.3346 14.1431 12.3454 13.7608 12.3454 13.3731C12.087 13.3731 11.527 13.3785 10.6654 13.3892C9.81465 13.3892 8.75926 13.3892 7.49926 13.3892C7.42388 13.4969 7.31618 13.6585 7.17618 13.8738C7.03618 14.0785 6.8908 14.2938 6.74003 14.52C6.60003 14.7462 6.48157 14.9508 6.38465 15.1338C6.23388 15.3923 6.06157 15.6777 5.86772 15.99C5.68465 16.2915 5.51772 16.5769 5.36695 16.8462C5.34541 16.8892 5.29157 16.9808 5.20541 17.1208C5.13003 17.2608 5.05464 17.3308 4.97926 17.3308C4.97926 17.3308 4.97388 17.3308 4.96311 17.3308C4.95234 17.3308 4.94157 17.3254 4.9308 17.3146C4.89849 17.3362 4.83926 17.3469 4.75311 17.3469ZM12.3777 13.0338C12.3777 12.8185 12.3723 12.4846 12.3616 12.0323C12.3616 11.58 12.3508 11.09 12.3293 10.5623C12.3185 10.0238 12.297 9.51231 12.2646 9.02769C12.2431 8.53231 12.2162 8.13384 12.1839 7.83231C12.0546 7.89692 11.8662 8.05846 11.6185 8.31692C11.3816 8.56461 11.1016 8.87154 10.7785 9.23769C10.4662 9.60385 10.1431 10.0023 9.80926 10.4331C9.47541 10.8531 9.15234 11.2731 8.84003 11.6931C8.53849 12.1023 8.27465 12.4738 8.04849 12.8077C8.13465 12.8292 8.22618 12.8562 8.32311 12.8885C8.4308 12.9208 8.51695 12.9585 8.58157 13.0015C8.73234 12.9908 8.90465 12.9908 9.09849 13.0015C9.29234 13.0015 9.49157 13.0015 9.69618 13.0015C10.1485 13.0015 10.5954 13.0069 11.037 13.0177C11.4893 13.0177 11.9362 13.0231 12.3777 13.0338ZM13.3866 22.2092C12.9235 22.2092 12.5143 22.0962 12.1589 21.87C11.8035 21.6438 11.5343 21.3154 11.3512 20.8846C11.2758 20.7015 11.2112 20.5077 11.1573 20.3031C11.1035 20.0985 11.0766 19.8938 11.0766 19.6892C11.0766 19.6246 11.0927 19.5115 11.125 19.35C11.1466 19.1885 11.2004 19.1077 11.2866 19.1077C11.3512 19.1077 11.3889 19.1562 11.3997 19.2531C11.4104 19.35 11.4158 19.42 11.4158 19.4631C11.4158 19.7323 11.475 19.9962 11.5935 20.2546C11.712 20.5131 11.8412 20.75 11.9812 20.9654C12.1427 21.2131 12.342 21.4392 12.5789 21.6438C12.8158 21.8485 13.0904 21.9508 13.4027 21.9508C13.8227 21.9508 14.2104 21.8054 14.5658 21.5146C14.9212 21.2238 15.2443 20.8362 15.535 20.3515C15.8366 19.8777 16.1004 19.35 16.3266 18.7685C16.5635 18.1869 16.7627 17.6 16.9243 17.0077C17.0966 16.4154 17.242 15.8662 17.3604 15.36C17.4789 14.8431 17.565 14.4231 17.6189 14.1C17.5004 14.2831 17.3174 14.5308 17.0697 14.8431C16.8327 15.1554 16.5635 15.4731 16.262 15.7962C15.9712 16.1192 15.6804 16.3938 15.3897 16.62C15.0989 16.8354 14.8458 16.9431 14.6304 16.9431C14.4689 16.9431 14.3666 16.8892 14.3235 16.7815C14.2912 16.6631 14.275 16.5338 14.275 16.3938C14.275 16.0708 14.3235 15.7315 14.4204 15.3762C14.5174 15.01 14.6358 14.6492 14.7758 14.2938C14.9266 13.9385 15.072 13.6208 15.212 13.3408C15.2658 13.2223 15.3466 13.0554 15.4543 12.84C15.5727 12.6246 15.7074 12.4092 15.8581 12.1938C16.0089 11.9677 16.1704 11.7792 16.3427 11.6285C16.515 11.4777 16.682 11.4131 16.8435 11.4346L16.9081 11.4023C16.962 11.3485 17.0212 11.3108 17.0858 11.2892C17.1504 11.2677 17.2204 11.2569 17.2958 11.2569C17.4897 11.2569 17.6835 11.2946 17.8774 11.37C18.0712 11.4346 18.2543 11.4669 18.4266 11.4669C18.4804 11.4669 18.5558 11.4292 18.6527 11.3538C18.7497 11.2677 18.8466 11.1869 18.9435 11.1115C19.0512 11.0362 19.1427 10.9985 19.2181 10.9985C19.2612 10.9985 19.2827 11.0308 19.2827 11.0954C19.2827 11.2246 19.2504 11.3485 19.1858 11.4669C19.0027 11.8008 18.852 12.1669 18.7335 12.5654C18.615 12.9638 18.502 13.3515 18.3943 13.7285C18.2543 14.2346 18.1197 14.7462 17.9904 15.2631C17.872 15.78 17.7427 16.2969 17.6027 16.8138C17.4304 17.4492 17.2258 18.0954 16.9889 18.7523C16.752 19.4092 16.4289 20.0069 16.0197 20.5454C15.6966 20.9762 15.2981 21.3585 14.8243 21.6923C14.3612 22.0369 13.882 22.2092 13.3866 22.2092ZM15.0827 16.2969C15.1366 16.2969 15.2281 16.2431 15.3574 16.1354C15.4866 16.0169 15.6374 15.8715 15.8097 15.6992C15.982 15.5269 16.1489 15.3492 16.3104 15.1662C16.4827 14.9831 16.6227 14.8215 16.7304 14.6815C16.8704 14.5092 17.0266 14.2938 17.1989 14.0354C17.382 13.7769 17.5543 13.5131 17.7158 13.2438C17.8774 12.9638 18.0066 12.7054 18.1035 12.4685C18.2112 12.2208 18.265 12.0269 18.265 11.8869C18.265 11.8115 18.2543 11.7685 18.2327 11.7577C18.2112 11.7362 18.1789 11.7254 18.1358 11.7254C18.0281 11.7254 17.915 11.7146 17.7966 11.6931C17.6889 11.6715 17.5758 11.6608 17.4574 11.6608C17.3174 11.6608 17.1666 11.6877 17.005 11.7415C16.8758 11.7846 16.7304 11.9246 16.5689 12.1615C16.4074 12.3877 16.262 12.63 16.1327 12.8885C16.0035 13.1362 15.9066 13.3192 15.842 13.4377C15.7343 13.6531 15.6104 13.9115 15.4704 14.2131C15.3412 14.5146 15.2281 14.8215 15.1312 15.1338C15.0343 15.4354 14.9858 15.71 14.9858 15.9577C14.9858 15.9792 14.9912 16.0438 15.002 16.1515C15.0127 16.2485 15.0397 16.2969 15.0827 16.2969Z" fill="#888888"/>
</svg>
