<svg width="24" height="24" viewBox="0 0 24 24" fill="none" xmlns="http://www.w3.org/2000/svg">
<path d="M9.73633 17.0547C9.71354 16.7402 9.69076 16.4235 9.66797 16.1045C9.64974 15.7855 9.62695 15.4642 9.59961 15.1406C9.39909 15.127 9.2054 15.1133 9.01855 15.0996C8.83171 15.0859 8.64258 15.0791 8.45117 15.0791H8.3623C8.33952 15.4072 8.31901 15.7308 8.30078 16.0498C8.28255 16.3688 8.2666 16.6855 8.25293 17L6.54395 16.9727C6.8265 15.3457 7.08171 13.7233 7.30957 12.1055C7.53743 10.4876 7.73112 8.85612 7.89062 7.21094L9.94824 7.24512C10.1214 8.87207 10.3288 10.4899 10.5703 12.0986C10.8164 13.7028 11.1035 15.3184 11.4316 16.9453L9.73633 17.0547ZM8.93652 8.93359C8.84538 9.77214 8.75879 10.6084 8.67676 11.4424C8.59473 12.2764 8.51953 13.1172 8.45117 13.9648C8.54688 13.974 8.64486 13.9785 8.74512 13.9785C8.84538 13.9785 8.94792 13.9785 9.05273 13.9785H9.49707C9.4196 13.1309 9.33301 12.29 9.2373 11.4561C9.1416 10.6221 9.04134 9.78125 8.93652 8.93359ZM16.1006 15.168C16.0824 15.7057 16.0641 16.182 16.0459 16.5967C16.0277 17.0068 15.9912 17.3669 15.9365 17.6768C15.8818 17.9867 15.7998 18.2464 15.6904 18.4561C15.5811 18.6657 15.4284 18.8343 15.2324 18.9619C15.041 19.0895 14.7949 19.1807 14.4941 19.2354C14.1979 19.2946 13.8333 19.3242 13.4004 19.3242C13.1862 19.3242 12.9561 19.3151 12.71 19.2969C12.4639 19.2832 12.1995 19.2513 11.917 19.2012L11.9717 17.6973C12.3089 17.7201 12.6051 17.7383 12.8604 17.752C13.1201 17.7656 13.3366 17.777 13.5098 17.7861C13.7148 17.7998 13.8926 17.8089 14.043 17.8135C14.2617 17.8135 14.4258 17.6859 14.5352 17.4307C14.6491 17.1755 14.7129 16.8223 14.7266 16.3711C14.6445 16.5534 14.5511 16.7015 14.4463 16.8154C14.346 16.9294 14.2412 17.0182 14.1318 17.082C14.027 17.1504 13.9222 17.196 13.8174 17.2188C13.7171 17.2415 13.6237 17.2529 13.5371 17.2529C13.3047 17.2529 13.0745 17.1823 12.8467 17.041C12.6188 16.8997 12.4137 16.6673 12.2314 16.3438C12.0537 16.0156 11.9079 15.5895 11.7939 15.0654C11.68 14.5368 11.623 13.8851 11.623 13.1104C11.623 12.5088 11.6709 11.9801 11.7666 11.5244C11.8669 11.0687 11.999 10.6859 12.1631 10.376C12.3271 10.0661 12.5163 9.83366 12.7305 9.67871C12.9447 9.51921 13.168 9.43945 13.4004 9.43945C13.5098 9.43945 13.626 9.45768 13.749 9.49414C13.8766 9.5306 14.0042 9.59668 14.1318 9.69238C14.2594 9.78353 14.3802 9.90885 14.4941 10.0684C14.6126 10.2233 14.7152 10.4238 14.8018 10.6699L14.7881 9.8291L16.0049 9.89062L16.1006 15.168ZM14.6035 13.7666C14.6035 13.6253 14.6012 13.459 14.5967 13.2676C14.5967 13.0716 14.5898 12.8711 14.5762 12.666C14.5671 12.4564 14.5465 12.2513 14.5146 12.0508C14.4827 11.8503 14.4372 11.6702 14.3779 11.5107C14.3232 11.3512 14.2503 11.2236 14.1592 11.1279C14.068 11.0277 13.9541 10.9775 13.8174 10.9775C13.6442 10.9775 13.5075 11.0505 13.4072 11.1963C13.3115 11.3421 13.2386 11.529 13.1885 11.7568C13.1429 11.9847 13.1156 12.2354 13.1064 12.5088C13.0973 12.7822 13.0928 13.0465 13.0928 13.3018C13.0928 13.4795 13.0951 13.6663 13.0996 13.8623C13.1087 14.0583 13.1224 14.2542 13.1406 14.4502C13.1589 14.6416 13.1862 14.8239 13.2227 14.9971C13.2591 15.1702 13.3047 15.3252 13.3594 15.4619C13.4141 15.5941 13.4801 15.6989 13.5576 15.7764C13.6396 15.8538 13.7354 15.8926 13.8447 15.8926C13.9814 15.8926 14.0977 15.8379 14.1934 15.7285C14.2891 15.6146 14.3665 15.4619 14.4258 15.2705C14.4896 15.0791 14.5352 14.8558 14.5625 14.6006C14.5898 14.3408 14.6035 14.0628 14.6035 13.7666Z" fill="#333333"/>
</svg>
