<svg width="24" height="24" viewBox="0 0 24 24" fill="none" xmlns="http://www.w3.org/2000/svg">
<path d="M5.49 17L8.262 6.78H8.738L11.51 17H11.216L8.528 7.046H8.472L5.784 17H5.49ZM6.61 13.57V13.29H10.39V13.57H6.61ZM13.288 19.8C14.688 19.8 15.738 19.5153 16.438 18.946C17.138 18.386 17.488 17.5507 17.488 16.44V10.028L17.642 10.28C17.3713 10.14 17.068 10.0373 16.732 9.972C16.396 9.89733 16.0227 9.86 15.612 9.86C14.9867 9.86 14.492 9.95333 14.128 10.14C13.7733 10.3267 13.5213 10.6533 13.372 11.12C13.2227 11.5773 13.148 12.212 13.148 13.024C13.148 13.892 13.2227 14.578 13.372 15.082C13.5307 15.5767 13.792 15.9267 14.156 16.132C14.52 16.3373 15.0193 16.44 15.654 16.44C16.0367 16.44 16.3867 16.4073 16.704 16.342C17.0307 16.2767 17.3387 16.1833 17.628 16.062L17.74 16.314C17.4787 16.4353 17.1753 16.5333 16.83 16.608C16.494 16.6827 16.102 16.72 15.654 16.72C14.9633 16.72 14.4127 16.6033 14.002 16.37C13.5913 16.1367 13.2973 15.7493 13.12 15.208C12.952 14.6667 12.868 13.9387 12.868 13.024C12.868 12.156 12.952 11.4747 13.12 10.98C13.2973 10.476 13.5867 10.1167 13.988 9.902C14.3893 9.68733 14.9307 9.58 15.612 9.58C16.4707 9.58 17.1893 9.72933 17.768 10.028V16.44C17.768 17.6347 17.39 18.54 16.634 19.156C15.878 19.772 14.7627 20.08 13.288 20.08V19.8Z" fill="#888888"/>
</svg>
