<svg width="24" height="24" viewBox="0 0 24 24" fill="none" xmlns="http://www.w3.org/2000/svg">
<path d="M3.64588 17L7.55188 6.78H9.07788L12.9839 17H11.7519L8.32188 7.746H8.29388L4.87788 17H3.64588ZM5.45188 14.186V13.164H11.1919V14.186H5.45188ZM16.8122 20.08C16.2522 20.08 15.7482 20.0147 15.3002 19.884C14.8522 19.7533 14.4462 19.5527 14.0822 19.282L14.3622 18.386C14.7262 18.6473 15.0949 18.8387 15.4682 18.96C15.8416 19.0813 16.2616 19.142 16.7282 19.142C17.6242 19.142 18.2729 18.9133 18.6742 18.456C19.0849 18.008 19.2902 17.2893 19.2902 16.3V15.656H19.2622C19.0102 15.9827 18.6649 16.244 18.2262 16.44C17.7876 16.6267 17.3022 16.72 16.7702 16.72C15.7996 16.72 15.0389 16.4073 14.4882 15.782C13.9376 15.1473 13.6622 14.27 13.6622 13.15C13.6622 12.03 13.9376 11.1573 14.4882 10.532C15.0389 9.89733 15.7996 9.58 16.7702 9.58C17.3022 9.58 17.7922 9.678 18.2402 9.874C18.6882 10.0607 19.0382 10.3173 19.2902 10.644H19.3182L19.3322 9.72H20.3822V16.3C20.3822 17.5787 20.0882 18.526 19.5002 19.142C18.9216 19.7673 18.0256 20.08 16.8122 20.08ZM17.0082 15.782C17.4469 15.782 17.8342 15.7027 18.1702 15.544C18.5156 15.376 18.7862 15.152 18.9822 14.872C19.1876 14.5827 19.2902 14.2513 19.2902 13.878V12.422C19.2902 12.058 19.1876 11.7313 18.9822 11.442C18.7862 11.1527 18.5156 10.9287 18.1702 10.77C17.8342 10.602 17.4469 10.518 17.0082 10.518C16.2989 10.518 15.7436 10.7467 15.3422 11.204C14.9502 11.6613 14.7542 12.31 14.7542 13.15C14.7542 13.99 14.9502 14.6387 15.3422 15.096C15.7436 15.5533 16.2989 15.782 17.0082 15.782Z" fill="#888888"/>
</svg>
