<svg width="24" height="24" viewBox="0 0 24 24" fill="none" xmlns="http://www.w3.org/2000/svg">
<path d="M3.31092 17L7.41292 6.78H8.36492L12.4529 17H11.6969L7.90292 7.396H7.87492L4.08092 17H3.31092ZM4.97692 13.934V13.276H10.7869V13.934H4.97692ZM16.2559 20.08C15.7239 20.08 15.2199 20.024 14.7439 19.912C14.2772 19.8 13.8666 19.6367 13.5119 19.422L13.6799 18.848C14.0252 19.0533 14.4126 19.2073 14.8419 19.31C15.2712 19.422 15.7286 19.478 16.2139 19.478C17.2032 19.478 17.9126 19.2353 18.3419 18.75C18.7712 18.2647 18.9859 17.4713 18.9859 16.37V15.53H18.9579C18.7246 15.894 18.3699 16.1833 17.8939 16.398C17.4272 16.6127 16.9046 16.72 16.3259 16.72C15.3552 16.72 14.5946 16.4073 14.0439 15.782C13.5026 15.1473 13.2319 14.27 13.2319 13.15C13.2319 12.03 13.5026 11.1573 14.0439 10.532C14.5946 9.89733 15.3552 9.58 16.3259 9.58C16.9046 9.58 17.4272 9.68733 17.8939 9.902C18.3699 10.1167 18.7292 10.406 18.9719 10.77H18.9999V9.72H19.6719V16.37C19.6719 17.658 19.3966 18.596 18.8459 19.184C18.3046 19.7813 17.4412 20.08 16.2559 20.08ZM16.4379 16.118C16.9326 16.118 17.3712 16.0247 17.7539 15.838C18.1366 15.642 18.4352 15.3807 18.6499 15.054C18.8739 14.718 18.9859 14.3353 18.9859 13.906V12.394C18.9859 11.9647 18.8739 11.5867 18.6499 11.26C18.4352 10.924 18.1366 10.6627 17.7539 10.476C17.3712 10.28 16.9326 10.182 16.4379 10.182C15.6446 10.182 15.0239 10.4433 14.5759 10.966C14.1279 11.4793 13.9039 12.2073 13.9039 13.15C13.9039 14.0927 14.1279 14.8253 14.5759 15.348C15.0239 15.8613 15.6446 16.118 16.4379 16.118Z" fill="#888888"/>
</svg>
