<svg width="24" height="24" viewBox="0 0 24 24" fill="none" xmlns="http://www.w3.org/2000/svg">
<path d="M3.34345 17L6.87145 6.78H9.51745L13.0455 17H10.8895L8.20145 8.446H8.17345L5.49945 17H3.34345ZM5.40145 14.662V12.954H11.0015V14.662H5.40145ZM16.9385 20.08C16.3505 20.08 15.7905 20.024 15.2585 19.912C14.7265 19.8 14.2832 19.6413 13.9285 19.436L14.1665 17.98C14.5119 18.1667 14.9132 18.316 15.3705 18.428C15.8372 18.54 16.2945 18.596 16.7425 18.596C17.5265 18.596 18.0819 18.4047 18.4085 18.022C18.7445 17.6487 18.9125 17.028 18.9125 16.16V15.782H18.8845C18.5952 16.0993 18.2592 16.3373 17.8765 16.496C17.4939 16.6453 17.0692 16.72 16.6025 16.72C15.6319 16.72 14.8805 16.4073 14.3485 15.782C13.8165 15.1567 13.5505 14.2793 13.5505 13.15C13.5505 12.0207 13.8165 11.1433 14.3485 10.518C14.8805 9.89267 15.6319 9.58 16.6025 9.58C17.0692 9.58 17.5032 9.65933 17.9045 9.818C18.3152 9.97667 18.6652 10.21 18.9545 10.518H18.9825L18.9965 9.72H20.8305V16.16C20.8305 17.4853 20.5085 18.47 19.8645 19.114C19.2299 19.758 18.2545 20.08 16.9385 20.08ZM17.1625 15.18C17.5079 15.18 17.8065 15.1193 18.0585 14.998C18.3199 14.8767 18.5252 14.7133 18.6745 14.508C18.8332 14.2933 18.9125 14.0507 18.9125 13.78V12.52C18.9125 12.2493 18.8332 12.0113 18.6745 11.806C18.5252 11.5913 18.3199 11.4233 18.0585 11.302C17.8065 11.1807 17.5079 11.12 17.1625 11.12C16.6212 11.12 16.1965 11.2973 15.8885 11.652C15.5899 12.0067 15.4405 12.506 15.4405 13.15C15.4405 13.8033 15.5899 14.3073 15.8885 14.662C16.1965 15.0073 16.6212 15.18 17.1625 15.18Z" fill="#888888"/>
</svg>
