<svg width="24" height="24" viewBox="0 0 24 24" fill="none" xmlns="http://www.w3.org/2000/svg">
<path d="M3.49976 17L7.13976 6.78H8.81976L12.4598 17H10.8078L9.92576 14.284H5.97776L5.09576 17H3.49976ZM6.35576 13.08H9.54776L7.96576 8.18H7.93776L6.35576 13.08ZM14.7325 13.22C14.7325 14.004 14.9051 14.62 15.2505 15.068C15.5958 15.516 16.0391 15.74 16.5805 15.74C17.1685 15.74 17.6398 15.5253 17.9945 15.096C18.3585 14.6573 18.5405 14.0553 18.5405 13.29V13.15C18.5405 12.3753 18.3585 11.7733 17.9945 11.344C17.6305 10.9147 17.1591 10.7 16.5805 10.7C16.0018 10.7 15.5491 10.9147 15.2225 11.344C14.8958 11.764 14.7325 12.3893 14.7325 13.22ZM13.3605 13.22C13.3605 12.0347 13.6125 11.134 14.1165 10.518C14.6205 9.89267 15.3251 9.58 16.2305 9.58C17.2291 9.58 18.0038 9.97667 18.5545 10.77H18.5825L18.6105 9.72H19.9405V16.3C19.9405 18.9133 18.7505 20.22 16.3705 20.22C15.5491 20.22 14.7791 20.08 14.0605 19.8L14.3405 18.68C15.0498 18.96 15.7265 19.1 16.3705 19.1C17.1265 19.1 17.6771 18.89 18.0225 18.47C18.3678 18.0593 18.5405 17.3593 18.5405 16.37V15.74H18.5125C17.9898 16.4867 17.2291 16.86 16.2305 16.86C15.4091 16.86 14.7231 16.5287 14.1725 15.866C13.6311 15.2033 13.3605 14.3213 13.3605 13.22Z" fill="#333333"/>
</svg>
