<svg width="24" height="24" viewBox="0 0 24 24" fill="none" xmlns="http://www.w3.org/2000/svg">
<path d="M3.42581 17L7.05181 6.78H9.41781L13.0298 17H11.1118L8.24181 8.264H8.21381L5.34381 17H3.42581ZM5.41381 14.55V12.996H11.0558V14.55H5.41381ZM16.8965 20.08C16.3179 20.08 15.7672 20.024 15.2445 19.912C14.7312 19.8 14.2972 19.6413 13.9425 19.436L14.1665 18.092C14.5025 18.288 14.8992 18.4373 15.3565 18.54C15.8232 18.652 16.2805 18.708 16.7285 18.708C17.5499 18.708 18.1332 18.512 18.4785 18.12C18.8332 17.7373 19.0105 17.098 19.0105 16.202V15.782H18.9825C18.7025 16.09 18.3619 16.3233 17.9605 16.482C17.5685 16.6407 17.1345 16.72 16.6585 16.72C15.6879 16.72 14.9319 16.4073 14.3905 15.782C13.8492 15.1567 13.5785 14.2793 13.5785 13.15C13.5785 12.0207 13.8492 11.1433 14.3905 10.518C14.9319 9.89267 15.6879 9.58 16.6585 9.58C17.1439 9.58 17.5919 9.664 18.0025 9.832C18.4225 9.99067 18.7679 10.2193 19.0385 10.518H19.0665L19.0805 9.72H20.7045V16.202C20.7045 17.518 20.3965 18.4933 19.7805 19.128C19.1645 19.7627 18.2032 20.08 16.8965 20.08ZM17.1065 15.32C17.4799 15.32 17.8065 15.2547 18.0865 15.124C18.3665 14.9933 18.5905 14.816 18.7585 14.592C18.9265 14.368 19.0105 14.1067 19.0105 13.808V12.492C19.0105 12.2027 18.9265 11.946 18.7585 11.722C18.5905 11.4887 18.3665 11.3067 18.0865 11.176C17.8065 11.0453 17.4799 10.98 17.1065 10.98C16.5279 10.98 16.0752 11.1713 15.7485 11.554C15.4219 11.9273 15.2585 12.4593 15.2585 13.15C15.2585 13.85 15.4219 14.3867 15.7485 14.76C16.0752 15.1333 16.5279 15.32 17.1065 15.32Z" fill="#888888"/>
</svg>
