<svg width="24" height="24" viewBox="0 0 24 24" fill="none" xmlns="http://www.w3.org/2000/svg">
<path d="M9.65292 6.552L9.63892 6.65C9.64826 6.93933 9.74159 7.084 9.91892 7.084C10.3949 7.084 10.8149 6.86 11.1789 6.412C11.5429 5.95467 11.7249 5.49733 11.7249 5.04C11.7249 4.57333 11.5896 4.20933 11.3189 3.948C11.0483 3.68667 10.6283 3.556 10.0589 3.556C9.22826 3.556 8.45826 3.766 7.74892 4.186C7.03959 4.59667 6.46092 5.12867 6.01292 5.782C5.56492 6.43533 5.21492 7.14933 4.96292 7.924C4.72026 8.68933 4.59892 9.45 4.59892 10.206C4.59892 11.2607 4.83226 12.1287 5.29892 12.81C5.77492 13.4913 6.46559 13.832 7.37092 13.832C7.73492 13.832 8.09426 13.762 8.44892 13.622C8.81292 13.482 9.12092 13.3093 9.37292 13.104C9.89559 12.7027 10.2783 12.334 10.5209 11.998L10.6609 11.788C10.5583 11.3493 10.5069 10.878 10.5069 10.374C10.5069 9.87 10.5676 9.39867 10.6889 8.96C10.8103 8.52133 10.9363 8.23667 11.0669 8.106C11.3283 7.826 11.6036 7.686 11.8929 7.686C12.1449 7.686 12.2709 7.87267 12.2709 8.246C12.2709 8.61933 12.2289 8.95067 12.1449 9.24C12.0609 9.52933 11.9163 9.87 11.7109 10.262V10.276C11.7949 10.8267 11.9256 11.3493 12.1029 11.844C12.2803 12.3387 12.4483 12.6933 12.6069 12.908C12.9709 13.44 13.3723 13.706 13.8109 13.706C13.9416 13.706 14.0489 13.692 14.1329 13.664C14.2263 13.6267 14.3056 13.608 14.3709 13.608C14.4363 13.608 14.4689 13.6313 14.4689 13.678C14.4689 13.7993 14.3103 13.958 13.9929 14.154C13.6756 14.3593 13.3303 14.462 12.9569 14.462C12.5929 14.462 12.2149 14.2987 11.8229 13.972C11.4309 13.6453 11.1183 13.1787 10.8849 12.572L10.7169 12.054C10.5489 12.2873 10.3063 12.5627 9.98892 12.88C9.67159 13.1973 9.35892 13.468 9.05092 13.692C8.74292 13.9067 8.35092 14.1027 7.87492 14.28C7.39892 14.4667 6.91826 14.56 6.43292 14.56C5.31292 14.56 4.47292 14.2613 3.91292 13.664C3.36226 13.0667 3.08692 12.278 3.08692 11.298C3.08692 10.6073 3.21759 9.87933 3.47892 9.114C3.74026 8.33933 4.11359 7.59267 4.59892 6.874C5.09359 6.146 5.66292 5.488 6.30692 4.9C6.95092 4.30267 7.69292 3.82667 8.53292 3.472C9.38226 3.11733 10.2456 2.94 11.1229 2.94C12.2896 2.94 12.8729 3.346 12.8729 4.158C12.8729 4.886 12.4623 5.656 11.6409 6.468C10.8196 7.27067 9.97959 7.672 9.12092 7.672C8.70092 7.672 8.49092 7.52733 8.49092 7.238C8.49092 7.06067 8.62159 6.888 8.88292 6.72C9.14426 6.552 9.37292 6.468 9.56892 6.468C9.62492 6.468 9.65292 6.496 9.65292 6.552ZM18.1374 12.992C17.9507 12.152 17.8527 11.4613 17.8434 10.92C17.7874 10.9667 17.7127 10.99 17.6194 10.99C17.47 10.99 17.3954 10.8967 17.3954 10.71C17.3954 10.654 17.4327 10.6027 17.5074 10.556C17.5914 10.5 17.6334 10.43 17.6334 10.346C17.6334 10.1687 17.554 10.08 17.3954 10.08C17.0127 10.08 16.6954 10.29 16.4434 10.71C16.2007 11.1207 16.0794 11.55 16.0794 11.998C16.0794 12.4367 16.168 12.7867 16.3454 13.048C16.5227 13.3093 16.784 13.44 17.1294 13.44C17.4747 13.44 17.8107 13.2907 18.1374 12.992ZM19.1174 20.846C19.2947 20.846 19.4394 20.7387 19.5514 20.524C19.6727 20.3093 19.7334 19.9687 19.7334 19.502C19.7334 19.0447 19.444 17.8127 18.8654 15.806C18.2867 16.702 17.9974 17.64 17.9974 18.62C17.9974 19.264 18.114 19.796 18.3474 20.216C18.59 20.636 18.8467 20.846 19.1174 20.846ZM21.3714 12.628C21.11 13.0667 20.5594 13.7573 19.7194 14.7C19.8874 15.1947 20.0134 15.6147 20.0974 15.96C20.1907 16.3147 20.2794 16.646 20.3634 16.954C20.4474 17.2713 20.508 17.514 20.5454 17.682C20.6387 18.186 20.6854 18.5593 20.6854 18.802C20.6854 19.5767 20.4707 20.202 20.0414 20.678C19.6214 21.1633 19.164 21.406 18.6694 21.406C18.184 21.406 17.7827 21.2053 17.4654 20.804C17.1574 20.4027 17.0034 19.8147 17.0034 19.04C17.0687 18.368 17.2507 17.7473 17.5494 17.178C17.848 16.6087 18.254 16.0253 18.7674 15.428C18.5247 14.5507 18.338 13.8413 18.2074 13.3C17.8527 13.6547 17.484 13.9253 17.1014 14.112C16.7187 14.2987 16.3827 14.392 16.0934 14.392C15.6174 14.392 15.2627 14.266 15.0294 14.014C14.8054 13.762 14.6934 13.4307 14.6934 13.02C14.6934 12.3013 14.9687 11.592 15.5194 10.892C16.0794 10.1827 16.714 9.828 17.4234 9.828C17.8154 9.828 18.0487 9.95867 18.1234 10.22C18.2634 10.0333 18.422 9.87467 18.5994 9.744C18.7767 9.604 18.9307 9.534 19.0614 9.534C19.192 9.534 19.2574 9.632 19.2574 9.828C19.2574 9.884 19.2107 10.0707 19.1174 10.388C19.0334 10.7053 18.9914 10.9153 18.9914 11.018C18.9914 11.7553 19.2107 12.894 19.6494 14.434C20.4054 13.6033 20.9467 12.9453 21.2734 12.46L21.3714 12.628Z" fill="#333333"/>
</svg>
