<svg width="24" height="24" viewBox="0 0 24 24" fill="none" xmlns="http://www.w3.org/2000/svg">
<path d="M9.65292 8.552L9.63892 8.65C9.64826 8.93933 9.74159 9.084 9.91892 9.084C10.3949 9.084 10.8149 8.86 11.1789 8.412C11.5429 7.95467 11.7249 7.49733 11.7249 7.04C11.7249 6.57333 11.5896 6.20933 11.3189 5.948C11.0483 5.68667 10.6283 5.556 10.0589 5.556C9.22826 5.556 8.45826 5.766 7.74892 6.186C7.03959 6.59667 6.46092 7.12867 6.01292 7.782C5.56492 8.43533 5.21492 9.14933 4.96292 9.924C4.72026 10.6893 4.59892 11.45 4.59892 12.206C4.59892 13.2607 4.83226 14.1287 5.29892 14.81C5.77492 15.4913 6.46559 15.832 7.37092 15.832C7.73492 15.832 8.09426 15.762 8.44892 15.622C8.81292 15.482 9.12092 15.3093 9.37292 15.104C9.89559 14.7027 10.2783 14.334 10.5209 13.998L10.6609 13.788C10.5583 13.3493 10.5069 12.878 10.5069 12.374C10.5069 11.87 10.5676 11.3987 10.6889 10.96C10.8103 10.5213 10.9363 10.2367 11.0669 10.106C11.3283 9.826 11.6036 9.686 11.8929 9.686C12.1449 9.686 12.2709 9.87267 12.2709 10.246C12.2709 10.6193 12.2289 10.9507 12.1449 11.24C12.0609 11.5293 11.9163 11.87 11.7109 12.262V12.276C11.7949 12.8267 11.9256 13.3493 12.1029 13.844C12.2803 14.3387 12.4483 14.6933 12.6069 14.908C12.9709 15.44 13.3723 15.706 13.8109 15.706C13.9416 15.706 14.0489 15.692 14.1329 15.664C14.2263 15.6267 14.3056 15.608 14.3709 15.608C14.4363 15.608 14.4689 15.6313 14.4689 15.678C14.4689 15.7993 14.3103 15.958 13.9929 16.154C13.6756 16.3593 13.3303 16.462 12.9569 16.462C12.5929 16.462 12.2149 16.2987 11.8229 15.972C11.4309 15.6453 11.1183 15.1787 10.8849 14.572L10.7169 14.054C10.5489 14.2873 10.3063 14.5627 9.98892 14.88C9.67159 15.1973 9.35892 15.468 9.05092 15.692C8.74292 15.9067 8.35092 16.1027 7.87492 16.28C7.39892 16.4667 6.91826 16.56 6.43292 16.56C5.31292 16.56 4.47292 16.2613 3.91292 15.664C3.36226 15.0667 3.08692 14.278 3.08692 13.298C3.08692 12.6073 3.21759 11.8793 3.47892 11.114C3.74026 10.3393 4.11359 9.59267 4.59892 8.874C5.09359 8.146 5.66292 7.488 6.30692 6.9C6.95092 6.30267 7.69292 5.82667 8.53292 5.472C9.38226 5.11733 10.2456 4.94 11.1229 4.94C12.2896 4.94 12.8729 5.346 12.8729 6.158C12.8729 6.886 12.4623 7.656 11.6409 8.468C10.8196 9.27067 9.97959 9.672 9.12092 9.672C8.70092 9.672 8.49092 9.52733 8.49092 9.238C8.49092 9.06067 8.62159 8.888 8.88292 8.72C9.14426 8.552 9.37292 8.468 9.56892 8.468C9.62492 8.468 9.65292 8.496 9.65292 8.552ZM18.1374 14.992C17.9507 14.152 17.8527 13.4613 17.8434 12.92C17.7874 12.9667 17.7127 12.99 17.6194 12.99C17.47 12.99 17.3954 12.8967 17.3954 12.71C17.3954 12.654 17.4327 12.6027 17.5074 12.556C17.5914 12.5 17.6334 12.43 17.6334 12.346C17.6334 12.1687 17.554 12.08 17.3954 12.08C17.0127 12.08 16.6954 12.29 16.4434 12.71C16.2007 13.1207 16.0794 13.55 16.0794 13.998C16.0794 14.4367 16.168 14.7867 16.3454 15.048C16.5227 15.3093 16.784 15.44 17.1294 15.44C17.4747 15.44 17.8107 15.2907 18.1374 14.992ZM19.1174 22.846C19.2947 22.846 19.4394 22.7387 19.5514 22.524C19.6727 22.3093 19.7334 21.9687 19.7334 21.502C19.7334 21.0447 19.444 19.8127 18.8654 17.806C18.2867 18.702 17.9974 19.64 17.9974 20.62C17.9974 21.264 18.114 21.796 18.3474 22.216C18.59 22.636 18.8467 22.846 19.1174 22.846ZM21.3714 14.628C21.11 15.0667 20.5594 15.7573 19.7194 16.7C19.8874 17.1947 20.0134 17.6147 20.0974 17.96C20.1907 18.3147 20.2794 18.646 20.3634 18.954C20.4474 19.2713 20.508 19.514 20.5454 19.682C20.6387 20.186 20.6854 20.5593 20.6854 20.802C20.6854 21.5767 20.4707 22.202 20.0414 22.678C19.6214 23.1633 19.164 23.406 18.6694 23.406C18.184 23.406 17.7827 23.2053 17.4654 22.804C17.1574 22.4027 17.0034 21.8147 17.0034 21.04C17.0687 20.368 17.2507 19.7473 17.5494 19.178C17.848 18.6087 18.254 18.0253 18.7674 17.428C18.5247 16.5507 18.338 15.8413 18.2074 15.3C17.8527 15.6547 17.484 15.9253 17.1014 16.112C16.7187 16.2987 16.3827 16.392 16.0934 16.392C15.6174 16.392 15.2627 16.266 15.0294 16.014C14.8054 15.762 14.6934 15.4307 14.6934 15.02C14.6934 14.3013 14.9687 13.592 15.5194 12.892C16.0794 12.1827 16.714 11.828 17.4234 11.828C17.8154 11.828 18.0487 11.9587 18.1234 12.22C18.2634 12.0333 18.422 11.8747 18.5994 11.744C18.7767 11.604 18.9307 11.534 19.0614 11.534C19.192 11.534 19.2574 11.632 19.2574 11.828C19.2574 11.884 19.2107 12.0707 19.1174 12.388C19.0334 12.7053 18.9914 12.9153 18.9914 13.018C18.9914 13.7553 19.2107 14.894 19.6494 16.434C20.4054 15.6033 20.9467 14.9453 21.2734 14.46L21.3714 14.628Z" fill="#888888"/>
</svg>
