<svg width="24" height="24" viewBox="0 0 24 24" fill="none" xmlns="http://www.w3.org/2000/svg">
<path d="M6.18524 12.164C6.18524 12.3973 6.60991 12.6213 7.45924 12.836C7.94458 12.948 8.53258 13.0413 9.22324 13.116C8.35524 12.3413 7.49658 11.954 6.64724 11.954C6.33924 11.954 6.18524 12.024 6.18524 12.164ZM11.7292 15.902C11.9252 15.902 12.4106 15.132 13.1852 13.592C12.1399 13.6107 11.4866 13.62 11.2252 13.62C10.9732 13.62 10.6139 13.6107 10.1472 13.592C10.6979 14.2547 11.1459 14.9593 11.4912 15.706C11.5472 15.8367 11.6266 15.902 11.7292 15.902ZM16.1112 6.424C15.8032 6.424 15.3926 6.75533 14.8792 7.418C14.3659 8.07133 13.6846 9 12.8352 10.204C11.9952 11.408 11.2112 12.4067 10.4832 13.2C11.1366 13.2187 11.7059 13.228 12.1912 13.228C12.6859 13.228 13.0826 13.2187 13.3812 13.2C14.0439 11.8933 14.6879 10.512 15.3132 9.056C15.9479 7.6 16.2652 6.76467 16.2652 6.55C16.2652 6.466 16.2139 6.424 16.1112 6.424ZM14.1372 13.172L17.0492 12.962C17.1239 12.962 17.1612 12.9993 17.1612 13.074C17.1612 13.1487 17.0959 13.228 16.9652 13.312C16.8439 13.396 16.6012 13.452 16.2372 13.48C15.8732 13.508 15.1032 13.536 13.9272 13.564C12.9752 15.4213 12.3032 16.35 11.9112 16.35C11.6499 16.35 11.4632 16.2333 11.3512 16C10.9406 15.1693 10.4599 14.4413 9.90924 13.816L9.50324 14.208C8.12191 15.496 6.51191 16.14 4.67324 16.14C4.20658 16.14 3.80058 16.1027 3.45524 16.028C3.10058 15.9627 2.92324 15.8693 2.92324 15.748C2.92324 15.664 2.97458 15.622 3.07724 15.622C3.14258 15.622 3.22191 15.6407 3.31524 15.678C3.59524 15.79 4.12258 15.846 4.89724 15.846C6.28791 15.846 7.60391 15.3 8.84524 14.208C9.29324 13.788 9.52191 13.5733 9.53124 13.564C8.65391 13.4987 7.91658 13.382 7.31924 13.214C6.25524 12.9153 5.72324 12.5607 5.72324 12.15C5.72324 12.01 5.79791 11.8933 5.94724 11.8C6.10591 11.7067 6.31124 11.66 6.56324 11.66C7.67391 11.66 8.72858 12.1593 9.72724 13.158C9.81124 13.158 9.87191 13.1627 9.90924 13.172C10.7399 12.276 11.7526 11.0067 12.9472 9.364C13.3672 8.79467 13.7872 8.244 14.2072 7.712C15.0846 6.61067 15.8032 6.06 16.3632 6.06C16.7272 6.06 16.9092 6.21867 16.9092 6.536C16.9092 6.75067 16.6059 7.59067 15.9992 9.056C15.4019 10.512 14.7812 11.884 14.1372 13.172ZM21.2465 13.676C21.3118 13.6293 21.3725 13.606 21.4285 13.606C21.4845 13.606 21.5125 13.6387 21.5125 13.704V13.732C20.6072 14.4787 19.8978 15.02 19.3845 15.356L16.5845 17.176L15.7165 18.394C14.3725 20.2327 13.7005 21.222 13.7005 21.362C13.5512 21.6887 13.4065 21.852 13.2665 21.852C13.0892 21.852 13.0005 21.7353 13.0005 21.502C13.0005 21.2687 13.1172 20.956 13.3505 20.564C13.5745 20.172 13.7985 19.8547 14.0225 19.612L15.3525 18.212C15.4645 18.0347 15.6932 17.708 16.0385 17.232C16.3838 16.756 16.6125 16.4387 16.7245 16.28L17.3265 15.384L17.3545 15.328C17.3545 15.3093 17.3452 15.3 17.3265 15.3C16.7758 15.7573 16.3185 15.986 15.9545 15.986C15.5905 15.986 15.4085 15.8833 15.4085 15.678C15.4085 15.4633 15.5485 15.1833 15.8285 14.838C16.1085 14.4927 16.4445 14.1567 16.8365 13.83C17.2378 13.5033 17.6765 13.2233 18.1525 12.99C18.6378 12.7473 19.0625 12.626 19.4265 12.626C19.7998 12.626 19.9865 12.7567 19.9865 13.018C19.9865 13.2047 19.8092 13.4287 19.4545 13.69C19.1092 13.9513 18.8945 14.082 18.8105 14.082C18.7358 14.082 18.6985 14.0633 18.6985 14.026C18.6985 13.97 18.7358 13.9187 18.8105 13.872C19.1278 13.648 19.2865 13.438 19.2865 13.242C19.2865 13.0367 19.2025 12.934 19.0345 12.934C18.6238 12.934 18.0498 13.284 17.3125 13.984C16.5845 14.6747 16.2205 15.1647 16.2205 15.454C16.2205 15.538 16.2858 15.58 16.4165 15.58C16.5565 15.58 16.7898 15.4727 17.1165 15.258C17.4432 15.034 17.6905 14.8193 17.8585 14.614L18.2365 14.138C18.2832 14.0727 18.3438 14.04 18.4185 14.04C18.4932 14.04 18.5585 14.0633 18.6145 14.11C18.6705 14.1567 18.6985 14.2033 18.6985 14.25L17.0045 16.602L19.0765 15.3C19.6925 14.9267 20.3085 14.4787 20.9245 13.956L21.2465 13.676Z" fill="#888888"/>
</svg>
