<svg width="24" height="24" viewBox="0 0 24 24" fill="none" xmlns="http://www.w3.org/2000/svg">
<path d="M8.08175 7.18H8.80975L12.1418 16H11.3578L10.3918 13.396H6.44375L5.47775 16H4.70775L8.08175 7.18ZM6.66775 12.808H10.1538L9.04775 9.784C9.02908 9.728 8.99642 9.63 8.94975 9.49C8.90308 9.35 8.85175 9.19133 8.79575 9.014C8.73975 8.83667 8.67908 8.65 8.61375 8.454C8.55775 8.258 8.50642 8.076 8.45975 7.908H8.43175C8.38508 8.076 8.32908 8.25333 8.26375 8.44C8.20775 8.62667 8.14708 8.80867 8.08175 8.986C8.02575 9.154 7.96975 9.308 7.91375 9.448C7.86708 9.588 7.82975 9.7 7.80175 9.784L6.66775 12.808ZM13.1655 11.604C13.1655 11.24 13.2262 10.918 13.3475 10.638C13.4782 10.3487 13.6602 10.1107 13.8935 9.924C14.1268 9.728 14.4022 9.58333 14.7195 9.49C15.0462 9.38733 15.4008 9.336 15.7835 9.336C15.9515 9.336 16.0962 9.34533 16.2175 9.364C16.3482 9.38267 16.4742 9.40133 16.5955 9.42H19.3255V9.98H18.5135L17.2955 9.896C17.5848 10.0547 17.8182 10.288 17.9955 10.596C18.1728 10.904 18.2615 11.2353 18.2615 11.59C18.2615 11.954 18.1962 12.2807 18.0655 12.57C17.9442 12.85 17.7668 13.088 17.5335 13.284C17.3095 13.48 17.0435 13.6293 16.7355 13.732C16.4275 13.8253 16.0915 13.872 15.7275 13.872C15.5968 13.872 15.4662 13.8673 15.3355 13.858C15.2142 13.8487 15.0835 13.83 14.9435 13.802C14.7195 13.886 14.5375 14.0167 14.3975 14.194C14.2575 14.362 14.1875 14.5393 14.1875 14.726C14.1875 14.9687 14.2762 15.146 14.4535 15.258C14.6402 15.3607 14.8735 15.412 15.1535 15.412H16.8615C17.5895 15.412 18.1402 15.566 18.5135 15.874C18.8868 16.182 19.0735 16.5787 19.0735 17.064C19.0735 17.3907 18.9988 17.6847 18.8495 17.946C18.7002 18.2167 18.4855 18.4453 18.2055 18.632C17.9255 18.8187 17.5848 18.9633 17.1835 19.066C16.7822 19.1687 16.3295 19.22 15.8255 19.22C14.9108 19.22 14.1828 19.038 13.6415 18.674C13.1002 18.3193 12.8295 17.8293 12.8295 17.204C12.8295 16.8587 12.9275 16.5647 13.1235 16.322C13.3288 16.0887 13.6182 15.9067 13.9915 15.776C13.8515 15.7013 13.7255 15.58 13.6135 15.412C13.5108 15.2347 13.4595 15.034 13.4595 14.81C13.4595 14.502 13.5482 14.25 13.7255 14.054C13.9028 13.8487 14.1082 13.69 14.3415 13.578C14.1922 13.5127 14.0475 13.4193 13.9075 13.298C13.7675 13.1767 13.6415 13.032 13.5295 12.864C13.4175 12.696 13.3288 12.5093 13.2635 12.304C13.1982 12.0893 13.1655 11.856 13.1655 11.604ZM14.5235 16C14.2528 16.0933 14.0288 16.238 13.8515 16.434C13.6835 16.63 13.5995 16.8587 13.5995 17.12C13.5995 17.624 13.8048 18.002 14.2155 18.254C14.6355 18.506 15.1768 18.632 15.8395 18.632C16.2782 18.632 16.6515 18.5853 16.9595 18.492C17.2768 18.408 17.5335 18.2913 17.7295 18.142C17.9348 18.002 18.0842 17.8387 18.1775 17.652C18.2708 17.4747 18.3175 17.2927 18.3175 17.106C18.3175 16.882 18.2708 16.6953 18.1775 16.546C18.0935 16.406 17.9675 16.294 17.7995 16.21C17.6408 16.1353 17.4495 16.0793 17.2255 16.042C17.0108 16.014 16.7728 16 16.5115 16H14.5235ZM17.5055 11.632C17.5055 11.0813 17.3468 10.6613 17.0295 10.372C16.7122 10.0733 16.2968 9.924 15.7835 9.924C15.5222 9.924 15.2795 9.96133 15.0555 10.036C14.8315 10.1013 14.6355 10.204 14.4675 10.344C14.2995 10.4747 14.1642 10.6427 14.0615 10.848C13.9682 11.0533 13.9215 11.296 13.9215 11.576C13.9215 12.1547 14.0942 12.584 14.4395 12.864C14.7848 13.144 15.2142 13.284 15.7275 13.284C16.2408 13.284 16.6655 13.1487 17.0015 12.878C17.3375 12.6073 17.5055 12.192 17.5055 11.632Z" fill="#888888"/>
</svg>
