<svg width="24" height="24" viewBox="0 0 24 24" fill="none" xmlns="http://www.w3.org/2000/svg">
<path d="M6.36971 12.556H8.81971L8.35771 11.254C8.22704 10.862 8.10104 10.4933 7.97971 10.148C7.86771 9.80267 7.75104 9.42467 7.62971 9.014H7.60171C7.47104 9.39667 7.34504 9.77 7.22371 10.134C7.10238 10.4887 6.97171 10.862 6.83171 11.254L6.36971 12.556ZM6.78971 7.18H8.49771L11.8437 16H10.0377L9.25371 13.83H5.96371L5.17971 16H3.40171L6.78971 7.18ZM12.6876 11.604C12.6876 11.24 12.7576 10.9133 12.8976 10.624C13.0376 10.3253 13.2336 10.0733 13.4856 9.868C13.7376 9.66267 14.0316 9.504 14.3676 9.392C14.713 9.28 15.091 9.224 15.5016 9.224C15.651 9.224 15.8096 9.238 15.9776 9.266C16.1456 9.28467 16.3043 9.31267 16.4536 9.35H19.2956V10.442H18.7636L17.8116 10.302C17.9423 10.47 18.0496 10.6707 18.1336 10.904C18.227 11.128 18.2736 11.3613 18.2736 11.604C18.2736 11.9587 18.2083 12.2807 18.0776 12.57C17.947 12.8593 17.7556 13.1067 17.5036 13.312C17.261 13.5173 16.967 13.676 16.6216 13.788C16.2856 13.8907 15.9076 13.942 15.4876 13.942C15.2263 13.942 15.0023 13.9233 14.8156 13.886C14.5356 14.0073 14.3956 14.1847 14.3956 14.418C14.3956 14.7353 14.643 14.894 15.1376 14.894H16.7056C17.4336 14.894 18.0123 15.0573 18.4416 15.384C18.871 15.7013 19.0856 16.1913 19.0856 16.854C19.0856 17.218 19.0016 17.5493 18.8336 17.848C18.6656 18.1467 18.423 18.4033 18.1056 18.618C17.7976 18.8327 17.4243 18.996 16.9856 19.108C16.547 19.2293 16.057 19.29 15.5156 19.29C14.517 19.29 13.7283 19.1127 13.1496 18.758C12.571 18.4127 12.2816 17.904 12.2816 17.232C12.2816 16.9053 12.3843 16.6253 12.5896 16.392C12.8043 16.168 13.089 15.9953 13.4436 15.874C13.2943 15.7713 13.159 15.6407 13.0376 15.482C12.9256 15.314 12.8696 15.0993 12.8696 14.838C12.8696 14.5393 12.9583 14.2827 13.1356 14.068C13.3223 13.844 13.565 13.6667 13.8636 13.536C13.5556 13.3773 13.2803 13.144 13.0376 12.836C12.8043 12.5187 12.6876 12.108 12.6876 11.604ZM14.3816 16.154C14.2043 16.2287 14.0643 16.336 13.9616 16.476C13.859 16.616 13.8076 16.7887 13.8076 16.994C13.8076 17.3207 13.943 17.5727 14.2136 17.75C14.4936 17.9367 14.9463 18.03 15.5716 18.03C15.9076 18.03 16.1923 17.9973 16.4256 17.932C16.6683 17.876 16.8643 17.7967 17.0136 17.694C17.1723 17.5913 17.2843 17.4747 17.3496 17.344C17.4243 17.2133 17.4616 17.078 17.4616 16.938C17.4616 16.6393 17.359 16.434 17.1536 16.322C16.9483 16.21 16.6543 16.154 16.2716 16.154H14.3816ZM16.6356 11.604C16.6356 11.184 16.5283 10.876 16.3136 10.68C16.099 10.4747 15.8236 10.372 15.4876 10.372C15.1423 10.372 14.8623 10.4747 14.6476 10.68C14.433 10.8853 14.3256 11.184 14.3256 11.576C14.3256 11.9867 14.433 12.29 14.6476 12.486C14.8716 12.682 15.1516 12.78 15.4876 12.78C15.833 12.78 16.1083 12.682 16.3136 12.486C16.5283 12.29 16.6356 11.996 16.6356 11.604Z" fill="#888888"/>
</svg>
