<svg width="24" height="24" viewBox="0 0 24 24" fill="none" xmlns="http://www.w3.org/2000/svg">
<path d="M2.30342 17L6.67142 7.13H7.80542L12.2434 17H10.8994L9.68142 14.2L10.2414 14.536H4.23542L4.85142 14.2L3.63342 17H2.30342ZM7.21742 8.586L5.03342 13.766L4.69742 13.472H9.77942L9.51342 13.766L7.27342 8.586H7.21742ZM16.575 20.136C15.959 20.136 15.3943 20.0613 14.881 19.912C14.3677 19.7627 13.9057 19.534 13.495 19.226L13.831 18.288C14.1203 18.484 14.405 18.6427 14.685 18.764C14.965 18.8853 15.2543 18.974 15.553 19.03C15.861 19.086 16.1783 19.114 16.505 19.114C17.1957 19.114 17.7137 18.9367 18.059 18.582C18.4043 18.2273 18.577 17.7233 18.577 17.07V15.096H18.717C18.5677 15.628 18.2597 16.0527 17.793 16.37C17.3357 16.678 16.7943 16.832 16.169 16.832C15.5343 16.832 14.979 16.692 14.503 16.412C14.0363 16.1227 13.6723 15.7167 13.411 15.194C13.1497 14.662 13.019 14.0413 13.019 13.332C13.019 12.6133 13.1497 11.9927 13.411 11.47C13.6723 10.9473 14.0363 10.546 14.503 10.266C14.979 9.97667 15.5343 9.832 16.169 9.832C16.7943 9.832 17.3357 9.986 17.793 10.294C18.2503 10.602 18.5537 11.0267 18.703 11.568L18.577 11.442L18.703 9.958H19.935C19.907 10.238 19.879 10.518 19.851 10.798C19.8323 11.078 19.823 11.3533 19.823 11.624V16.916C19.823 17.9613 19.5477 18.7593 18.997 19.31C18.4557 19.8607 17.6483 20.136 16.575 20.136ZM16.449 15.824C17.093 15.824 17.6063 15.6047 17.989 15.166C18.3717 14.7273 18.563 14.116 18.563 13.332C18.563 12.5387 18.3717 11.9273 17.989 11.498C17.6063 11.0687 17.093 10.854 16.449 10.854C15.7957 10.854 15.273 11.0687 14.881 11.498C14.4983 11.9273 14.307 12.5387 14.307 13.332C14.307 14.116 14.4983 14.7273 14.881 15.166C15.273 15.6047 15.7957 15.824 16.449 15.824Z" fill="#888888"/>
</svg>
