<svg width="24" height="24" viewBox="0 0 24 24" fill="none" xmlns="http://www.w3.org/2000/svg">
<path d="M1.74342 17L7.67942 7.13H8.81342L11.6834 17H10.3954L9.61142 14.2L10.1294 14.536H4.12342L4.78142 14.2L3.12942 17H1.74342ZM8.05742 8.586L5.04742 13.766L4.75342 13.472H9.83542L9.52742 13.766L8.09942 8.586H8.05742ZM15.581 20.136C14.9837 20.136 14.4377 20.0613 13.943 19.912C13.4483 19.7627 13.019 19.534 12.655 19.226L13.075 18.274C13.3363 18.47 13.593 18.6287 13.845 18.75C14.1063 18.8807 14.3817 18.974 14.671 19.03C14.9697 19.086 15.287 19.114 15.623 19.114C16.3137 19.114 16.855 18.9367 17.247 18.582C17.6483 18.2273 17.9003 17.7233 18.003 17.07L18.311 15.096H18.479C18.255 15.628 17.9003 16.0527 17.415 16.37C16.9297 16.678 16.3743 16.832 15.749 16.832C15.105 16.832 14.559 16.6827 14.111 16.384C13.6723 16.076 13.3597 15.6467 13.173 15.096C12.9863 14.536 12.9537 13.8873 13.075 13.15C13.2523 12.0767 13.663 11.2553 14.307 10.686C14.9603 10.1167 15.7537 9.832 16.687 9.832C17.3123 9.832 17.835 9.986 18.255 10.294C18.675 10.602 18.9223 11.0267 18.997 11.568L18.899 11.442L19.263 9.958H20.495C20.4203 10.238 20.3503 10.518 20.285 10.798C20.2197 11.078 20.1637 11.3533 20.117 11.624L19.277 16.916C19.1183 17.9613 18.7263 18.7593 18.101 19.31C17.4757 19.8607 16.6357 20.136 15.581 20.136ZM16.085 15.824C16.7383 15.824 17.2843 15.6047 17.723 15.166C18.171 14.7273 18.4557 14.1207 18.577 13.346C18.7077 12.5433 18.6143 11.9273 18.297 11.498C17.9797 11.0687 17.4943 10.854 16.841 10.854C16.1877 10.854 15.637 11.0687 15.189 11.498C14.7503 11.9273 14.4657 12.534 14.335 13.318C14.2043 14.1113 14.2977 14.7273 14.615 15.166C14.9417 15.6047 15.4317 15.824 16.085 15.824Z" fill="#888888"/>
</svg>
