<svg width="24" height="24" viewBox="0 0 24 24" fill="none" xmlns="http://www.w3.org/2000/svg">
<path d="M2.42969 17L6.89569 7.13H8.40769L12.9297 17H11.0957L9.89169 14.228L10.6197 14.718H4.69769L5.45369 14.228L4.24969 17H2.42969ZM7.63769 9.062L5.66369 13.738L5.29969 13.304H10.0037L9.70969 13.738L7.69369 9.062H7.63769ZM17.0893 20.136C16.436 20.136 15.8433 20.066 15.3113 19.926C14.7887 19.786 14.322 19.5713 13.9113 19.282L14.2893 18.022C14.56 18.1993 14.84 18.344 15.1293 18.456C15.4187 18.568 15.7173 18.652 16.0253 18.708C16.3333 18.764 16.646 18.792 16.9633 18.792C17.6167 18.792 18.102 18.6287 18.4193 18.302C18.746 17.9847 18.9093 17.5273 18.9093 16.93V15.236H19.0493C18.9 15.7213 18.5967 16.1087 18.1393 16.398C17.6913 16.6873 17.1733 16.832 16.5853 16.832C15.9507 16.832 15.3953 16.692 14.9193 16.412C14.4527 16.1227 14.0887 15.712 13.8273 15.18C13.566 14.648 13.4353 14.0227 13.4353 13.304C13.4353 12.5853 13.566 11.9647 13.8273 11.442C14.0887 10.91 14.4527 10.504 14.9193 10.224C15.3953 9.93467 15.9507 9.79 16.5853 9.79C17.1827 9.79 17.7007 9.93467 18.1393 10.224C18.5873 10.504 18.886 10.8867 19.0353 11.372L18.9093 11.288L19.0493 9.93H20.7433C20.706 10.2193 20.678 10.5133 20.6593 10.812C20.6407 11.1107 20.6313 11.4047 20.6313 11.694V16.72C20.6313 17.8307 20.328 18.6753 19.7213 19.254C19.124 19.842 18.2467 20.136 17.0893 20.136ZM17.0613 15.488C17.6213 15.488 18.0647 15.3013 18.3913 14.928C18.7273 14.5453 18.8953 14.004 18.8953 13.304C18.8953 12.604 18.7273 12.0673 18.3913 11.694C18.0647 11.3207 17.6213 11.134 17.0613 11.134C16.492 11.134 16.0393 11.3207 15.7033 11.694C15.3673 12.0673 15.1993 12.604 15.1993 13.304C15.1993 14.004 15.3673 14.5453 15.7033 14.928C16.0393 15.3013 16.492 15.488 17.0613 15.488Z" fill="#888888"/>
</svg>
