<svg width="24" height="24" viewBox="0 0 24 24" fill="none" xmlns="http://www.w3.org/2000/svg">
<path d="M9.83995 14.788H5.19195L4.07195 17H1.83195L7.17995 7.032H8.95795L12.752 17H10.624L9.83995 14.788ZM9.25195 13.122L7.93595 9.37L6.03195 13.122H9.25195ZM21.177 9.902L20.645 16.594C20.5517 17.8167 20.169 18.7127 19.497 19.282C18.8343 19.8513 17.8963 20.136 16.683 20.136C15.5163 20.136 14.5083 19.9167 13.659 19.478L14.121 17.896C14.541 18.1293 14.961 18.2973 15.381 18.4C15.8103 18.5027 16.263 18.554 16.739 18.554C17.2897 18.554 17.7143 18.414 18.013 18.134C18.321 17.8633 18.4983 17.4293 18.545 16.832L18.615 15.866C18.3817 16.1647 18.0783 16.398 17.705 16.566C17.3317 16.7247 16.9117 16.804 16.445 16.804C15.8383 16.804 15.3063 16.6687 14.849 16.398C14.3917 16.1273 14.0323 15.7447 13.771 15.25C13.519 14.7553 13.393 14.1813 13.393 13.528C13.393 12.8093 13.533 12.1607 13.813 11.582C14.1023 11.0033 14.5037 10.5507 15.017 10.224C15.5303 9.888 16.123 9.72 16.795 9.72C17.803 9.72 18.545 10.0887 19.021 10.826L19.091 9.902H21.177ZM17.131 15.194C17.663 15.194 18.083 15.0073 18.391 14.634C18.699 14.2607 18.853 13.7613 18.853 13.136C18.853 12.548 18.7083 12.1 18.419 11.792C18.139 11.484 17.7377 11.33 17.215 11.33C16.683 11.33 16.263 11.5213 15.955 11.904C15.647 12.2773 15.493 12.7907 15.493 13.444C15.493 13.9947 15.6377 14.424 15.927 14.732C16.2163 15.04 16.6177 15.194 17.131 15.194Z" fill="#333333"/>
</svg>
