<svg width="24" height="24" viewBox="0 0 24 24" fill="none" xmlns="http://www.w3.org/2000/svg">
<path d="M1.57897 17L7.68297 7.13H9.48897L12.513 17H10.385L9.61497 14.256L10.385 14.858H4.51897L5.48497 14.256L3.86097 17H1.57897ZM8.29897 9.426L5.80697 13.71L5.51297 13.178H9.92297L9.51697 13.71L8.35497 9.426H8.29897ZM16.1657 20.136C15.4937 20.136 14.901 20.066 14.3877 19.926C13.8743 19.7953 13.4217 19.5947 13.0297 19.324L13.5897 17.798C13.823 17.966 14.075 18.1013 14.3457 18.204C14.6163 18.316 14.901 18.4 15.1997 18.456C15.5077 18.512 15.8157 18.54 16.1237 18.54C16.777 18.54 17.2717 18.3907 17.6077 18.092C17.953 17.7933 18.1677 17.3687 18.2517 16.818L18.4897 15.348H18.6297C18.443 15.7773 18.1303 16.132 17.6917 16.412C17.253 16.6827 16.7397 16.818 16.1517 16.818C15.517 16.818 14.971 16.6687 14.5137 16.37C14.0563 16.0713 13.725 15.642 13.5197 15.082C13.3237 14.5127 13.291 13.836 13.4217 13.052C13.599 11.9787 14.0143 11.162 14.6677 10.602C15.321 10.042 16.119 9.762 17.0617 9.762C17.631 9.762 18.1163 9.89733 18.5177 10.168C18.9283 10.4293 19.171 10.7793 19.2457 11.218L19.1477 11.162L19.4837 9.902H21.5277C21.4437 10.21 21.3643 10.5227 21.2897 10.84C21.2243 11.148 21.1683 11.4513 21.1217 11.75L20.3517 16.58C20.1743 17.728 19.731 18.6053 19.0217 19.212C18.3217 19.828 17.3697 20.136 16.1657 20.136ZM16.8797 15.236C17.3837 15.236 17.8037 15.0727 18.1397 14.746C18.4757 14.41 18.6903 13.934 18.7837 13.318C18.877 12.674 18.8023 12.1887 18.5597 11.862C18.317 11.526 17.9437 11.358 17.4397 11.358C16.9357 11.358 16.5157 11.5213 16.1797 11.848C15.8437 12.1747 15.6243 12.646 15.5217 13.262C15.419 13.906 15.4937 14.396 15.7457 14.732C15.9977 15.068 16.3757 15.236 16.8797 15.236Z" fill="#888888"/>
</svg>
