<svg width="24" height="24" viewBox="0 0 24 24" fill="none" xmlns="http://www.w3.org/2000/svg">
<path d="M9.70389 14.942H5.27989L4.39789 17H1.76589L6.42789 7.032H8.49989L13.1759 17H10.5859L9.70389 14.942ZM8.84989 12.968L7.49189 9.818L6.13389 12.968H8.84989ZM21.1777 9.888V16.552C21.1777 17.7187 20.8277 18.6053 20.1277 19.212C19.4277 19.828 18.401 20.136 17.0477 20.136C15.8903 20.136 14.887 19.9307 14.0377 19.52L14.4157 17.672C14.8357 17.8587 15.265 18.0033 15.7037 18.106C16.1517 18.218 16.5717 18.274 16.9637 18.274C17.5423 18.274 17.967 18.148 18.2377 17.896C18.5177 17.6533 18.6577 17.2707 18.6577 16.748V15.698C18.4243 16.006 18.107 16.2673 17.7057 16.482C17.3137 16.6967 16.8937 16.804 16.4457 16.804C15.839 16.804 15.293 16.6593 14.8077 16.37C14.3317 16.0713 13.9583 15.656 13.6877 15.124C13.417 14.5827 13.2817 13.9573 13.2817 13.248C13.2817 12.548 13.417 11.932 13.6877 11.4C13.9583 10.8587 14.3317 10.4387 14.8077 10.14C15.293 9.84133 15.839 9.692 16.4457 9.692C16.9217 9.692 17.3557 9.79 17.7477 9.986C18.1397 10.182 18.443 10.448 18.6577 10.784V9.888H21.1777ZM17.2297 14.914C17.6777 14.914 18.0277 14.7693 18.2797 14.48C18.5317 14.1813 18.6577 13.7707 18.6577 13.248C18.6577 12.744 18.5317 12.3473 18.2797 12.058C18.0277 11.7593 17.6777 11.61 17.2297 11.61C16.7817 11.61 16.427 11.7547 16.1657 12.044C15.9137 12.3333 15.7877 12.7347 15.7877 13.248C15.7877 13.7613 15.9183 14.1673 16.1797 14.466C16.441 14.7647 16.791 14.914 17.2297 14.914Z" fill="#333333"/>
</svg>
