<svg width="24" height="24" viewBox="0 0 24 24" fill="none" xmlns="http://www.w3.org/2000/svg">
<path d="M6.37234 6.808H9.03234L12.0703 17H9.88634L8.16434 10.196L7.71634 8.516H7.68834L7.24034 10.196L5.51834 17H3.33434L6.37234 6.808ZM6.42834 12.8H8.97634L9.34034 14.424H6.06434L6.42834 12.8ZM15.696 15.068C15.0987 15.068 14.5573 14.956 14.072 14.732C13.5867 14.508 13.1993 14.1907 12.91 13.78C12.63 13.3693 12.49 12.884 12.49 12.324C12.49 11.764 12.63 11.2787 12.91 10.868C13.1993 10.448 13.5867 10.126 14.072 9.902C14.5573 9.678 15.0987 9.566 15.696 9.566C16.2933 9.566 16.83 9.678 17.306 9.902C17.7913 10.126 18.174 10.448 18.454 10.868C18.7433 11.2787 18.888 11.764 18.888 12.324C18.888 12.8747 18.748 13.36 18.468 13.78C18.1973 14.1907 17.8193 14.508 17.334 14.732C16.858 14.956 16.312 15.068 15.696 15.068ZM15.696 13.766C15.9573 13.766 16.1767 13.7053 16.354 13.584C16.5313 13.4627 16.662 13.2947 16.746 13.08C16.83 12.8653 16.872 12.6133 16.872 12.324C16.872 12.0347 16.83 11.7827 16.746 11.568C16.662 11.344 16.5313 11.1713 16.354 11.05C16.1767 10.9287 15.9573 10.868 15.696 10.868C15.4347 10.868 15.2153 10.9287 15.038 11.05C14.8607 11.1713 14.7253 11.344 14.632 11.568C14.548 11.7827 14.506 12.0347 14.506 12.324C14.506 12.6133 14.5527 12.8653 14.646 13.08C14.7393 13.2947 14.87 13.4627 15.038 13.584C15.2153 13.7053 15.4347 13.766 15.696 13.766ZM15.556 20.29C15.136 20.29 14.7113 20.2527 14.282 20.178C13.862 20.1127 13.4793 20.0053 13.134 19.856C12.7887 19.7067 12.5133 19.5013 12.308 19.24C12.1027 18.988 12 18.68 12 18.316C12 17.9147 12.1027 17.5833 12.308 17.322C12.5133 17.07 12.784 16.8553 13.12 16.678V16.65C12.9427 16.538 12.812 16.4167 12.728 16.286C12.6533 16.146 12.616 15.9873 12.616 15.81C12.616 15.53 12.7233 15.264 12.938 15.012C13.1527 14.7507 13.4 14.5173 13.68 14.312L14.478 14.69C14.366 14.7927 14.2727 14.9 14.198 15.012C14.1327 15.124 14.1 15.2407 14.1 15.362C14.1 15.4927 14.1607 15.5907 14.282 15.656C14.4033 15.712 14.5853 15.7493 14.828 15.768L16.676 15.88C16.956 15.8987 17.264 15.9313 17.6 15.978C17.936 16.0247 18.2533 16.1087 18.552 16.23C18.8507 16.3513 19.098 16.5333 19.294 16.776C19.4993 17.0093 19.602 17.3313 19.602 17.742C19.602 18.1713 19.4573 18.5773 19.168 18.96C18.8787 19.352 18.4353 19.6693 17.838 19.912C17.2407 20.164 16.48 20.29 15.556 20.29ZM15.71 18.764C16.1953 18.764 16.5873 18.722 16.886 18.638C17.1847 18.554 17.404 18.4467 17.544 18.316C17.684 18.1853 17.754 18.0453 17.754 17.896C17.754 17.7653 17.712 17.658 17.628 17.574C17.5533 17.4993 17.446 17.4387 17.306 17.392C17.166 17.3547 17.0167 17.322 16.858 17.294C16.7087 17.2753 16.5547 17.2613 16.396 17.252L14.8 17.154C14.6133 17.1353 14.4547 17.112 14.324 17.084C14.1933 17.056 14.086 17.0187 14.002 16.972L14.17 17C14.0393 17.0747 13.918 17.182 13.806 17.322C13.7033 17.462 13.652 17.6113 13.652 17.77C13.652 17.9473 13.7033 18.0967 13.806 18.218C13.9087 18.3487 14.0533 18.4513 14.24 18.526C14.4267 18.61 14.646 18.6707 14.898 18.708C15.15 18.7453 15.4207 18.764 15.71 18.764ZM16.494 9.72H19.686V10.798H18.062L16.494 9.72Z" fill="#888888"/>
</svg>
