<svg width="24" height="24" viewBox="0 0 24 24" fill="none" xmlns="http://www.w3.org/2000/svg">
<path d="M2.34766 17L5.52566 8.334C5.68432 7.90467 5.94566 7.58267 6.30966 7.368C6.67366 7.144 7.08432 7.032 7.54166 7.032C7.99899 7.032 8.40966 7.13933 8.77366 7.354C9.13766 7.55933 9.39899 7.88133 9.55766 8.32L12.7497 17H10.2157L9.59966 15.11H5.44166L4.79766 17H2.34766ZM6.04366 13.164H8.99766L7.75166 9.258C7.73299 9.202 7.70499 9.16467 7.66766 9.146C7.63966 9.118 7.60232 9.104 7.55566 9.104C7.50899 9.104 7.46699 9.118 7.42966 9.146C7.40166 9.174 7.38299 9.21133 7.37366 9.258L6.04366 13.164ZM14.656 19.842V17.98H18.24C18.38 17.98 18.4966 17.9333 18.59 17.84C18.6833 17.756 18.73 17.6487 18.73 17.518V15.936H18.688C18.5013 16.1507 18.3006 16.3327 18.086 16.482C17.8806 16.6313 17.6473 16.7433 17.386 16.818C17.134 16.8927 16.8493 16.93 16.532 16.93C15.8973 16.93 15.328 16.7807 14.824 16.482C14.3293 16.174 13.9373 15.7493 13.648 15.208C13.368 14.6667 13.228 14.0507 13.228 13.36C13.228 12.6787 13.3726 12.058 13.662 11.498C13.9606 10.938 14.3946 10.49 14.964 10.154C15.5333 9.818 16.2286 9.65 17.05 9.65C17.834 9.65 18.5106 9.81333 19.08 10.14C19.6586 10.4573 20.1066 10.91 20.424 11.498C20.7413 12.0767 20.9 12.758 20.9 13.542V17.742C20.9 18.386 20.7086 18.8947 20.326 19.268C19.9526 19.6507 19.4346 19.842 18.772 19.842H14.656ZM17.064 15.11C17.4 15.11 17.6893 15.0353 17.932 14.886C18.1746 14.7273 18.3613 14.5173 18.492 14.256C18.6226 13.9947 18.688 13.7053 18.688 13.388C18.688 13.052 18.6226 12.744 18.492 12.464C18.3613 12.184 18.1746 11.9647 17.932 11.806C17.6893 11.638 17.4 11.554 17.064 11.554C16.7373 11.554 16.448 11.6333 16.196 11.792C15.9533 11.9507 15.7666 12.1653 15.636 12.436C15.5053 12.7067 15.44 13.01 15.44 13.346C15.44 13.6727 15.5053 13.9713 15.636 14.242C15.7666 14.5033 15.9533 14.7133 16.196 14.872C16.448 15.0307 16.7373 15.11 17.064 15.11Z" fill="#888888"/>
</svg>
