<svg width="24" height="24" viewBox="0 0 24 24" fill="none" xmlns="http://www.w3.org/2000/svg">
<path d="M2.24512 17L5.39512 8.39C5.56312 7.942 5.83845 7.60133 6.22112 7.368C6.61312 7.13467 7.05178 7.018 7.53712 7.018C8.02245 7.018 8.45645 7.13 8.83912 7.354C9.23112 7.578 9.51112 7.91867 9.67912 8.376L12.8291 17H9.95912L9.38512 15.208H5.63312L5.03112 17H2.24512ZM6.26312 13.08H8.76912L7.69112 9.538C7.67245 9.46333 7.62112 9.426 7.53712 9.426C7.47178 9.426 7.42512 9.46333 7.39712 9.538L6.26312 13.08ZM14.6331 19.842V17.77H18.1471C18.3058 17.77 18.4318 17.7233 18.5251 17.63C18.6185 17.546 18.6651 17.434 18.6651 17.294V15.866H18.6091C18.3758 16.146 18.0911 16.3747 17.7551 16.552C17.4285 16.7293 17.0131 16.818 16.5091 16.818C15.8745 16.818 15.3145 16.6687 14.8291 16.37C14.3438 16.062 13.9611 15.6467 13.6811 15.124C13.4105 14.6013 13.2751 14.0133 13.2751 13.36C13.2751 12.688 13.4245 12.0673 13.7231 11.498C14.0218 10.9287 14.4605 10.476 15.0391 10.14C15.6178 9.79467 16.3225 9.622 17.1531 9.622C17.9465 9.622 18.6371 9.78533 19.2251 10.112C19.8225 10.4387 20.2845 10.896 20.6111 11.484C20.9378 12.0627 21.1011 12.744 21.1011 13.528V17.672C21.1011 18.344 20.9051 18.8713 20.5131 19.254C20.1211 19.646 19.5705 19.842 18.8611 19.842H14.6331ZM17.1951 14.844C17.6151 14.844 17.9558 14.6993 18.2171 14.41C18.4878 14.1207 18.6231 13.7707 18.6231 13.36C18.6231 12.9213 18.4878 12.5527 18.2171 12.254C17.9558 11.946 17.6151 11.792 17.1951 11.792C16.7658 11.792 16.4158 11.9413 16.1451 12.24C15.8838 12.5293 15.7531 12.8933 15.7531 13.332C15.7531 13.752 15.8838 14.1113 16.1451 14.41C16.4158 14.6993 16.7658 14.844 17.1951 14.844Z" fill="#333333"/>
</svg>
