<svg width="24" height="24" viewBox="0 0 24 24" fill="none" xmlns="http://www.w3.org/2000/svg">
<path d="M2.24513 17L5.66113 8.054C5.79179 7.69933 5.96913 7.438 6.19313 7.27C6.41713 7.102 6.67846 7.018 6.97713 7.018C7.28513 7.018 7.55113 7.102 7.77513 7.27C7.99913 7.42867 8.17646 7.68533 8.30713 8.04L11.7511 17H10.6451L9.66513 14.424H4.28913L3.30913 17H2.24513ZM4.59713 13.528H9.35713L7.45313 8.39C7.39713 8.24067 7.33179 8.124 7.25713 8.04C7.19179 7.956 7.10313 7.914 6.99113 7.914C6.86979 7.914 6.77646 7.956 6.71113 8.04C6.65513 8.124 6.59446 8.24067 6.52913 8.39L4.59713 13.528ZM13.9571 19.842V18.988H17.3591C17.8164 18.988 18.1664 18.8573 18.4091 18.596C18.6518 18.344 18.7731 17.9893 18.7731 17.532V15.488H18.7451C18.5771 15.7587 18.3624 16.02 18.1011 16.272C17.8398 16.524 17.5271 16.7293 17.1631 16.888C16.8084 17.0467 16.3978 17.126 15.9311 17.126C15.2311 17.126 14.6244 16.9673 14.1111 16.65C13.5978 16.3233 13.1964 15.88 12.9071 15.32C12.6271 14.76 12.4871 14.1207 12.4871 13.402C12.4871 12.702 12.6271 12.072 12.9071 11.512C13.1964 10.952 13.6118 10.5133 14.1531 10.196C14.6944 9.86933 15.3478 9.706 16.1131 9.706C16.8318 9.706 17.4618 9.86467 18.0031 10.182C18.5538 10.49 18.9831 10.924 19.2911 11.484C19.5991 12.044 19.7531 12.688 19.7531 13.416V17.644C19.7531 18.316 19.5571 18.848 19.1651 19.24C18.7731 19.6413 18.2364 19.842 17.5551 19.842H13.9571ZM16.0851 16.272C16.6078 16.272 17.0698 16.1507 17.4711 15.908C17.8724 15.656 18.1851 15.3153 18.4091 14.886C18.6424 14.4567 18.7591 13.9667 18.7591 13.416C18.7591 12.8653 18.6471 12.3753 18.4231 11.946C18.2084 11.5167 17.9004 11.176 17.4991 10.924C17.0978 10.672 16.6311 10.546 16.0991 10.546C15.5484 10.546 15.0771 10.6767 14.6851 10.938C14.3024 11.19 14.0038 11.5353 13.7891 11.974C13.5838 12.4127 13.4811 12.9073 13.4811 13.458C13.4811 13.9807 13.5838 14.4567 13.7891 14.886C13.9944 15.306 14.2931 15.642 14.6851 15.894C15.0771 16.146 15.5438 16.272 16.0851 16.272Z" fill="#333333"/>
</svg>
