<svg width="24" height="24" viewBox="0 0 24 24" fill="none" xmlns="http://www.w3.org/2000/svg">
<path d="M4.96861 13.774L3.98861 16H2.22461L6.53661 6.214H8.30061L12.6126 16H10.8486L9.86861 13.774H4.96861ZM9.19661 12.248L7.41861 8.216L5.64061 12.248H9.19661ZM20.6372 8.552V15.048C20.6372 16.364 20.2779 17.3487 19.5592 18.002C18.8499 18.6647 17.9352 18.996 16.8152 18.996C15.6952 18.996 14.6826 18.646 13.7772 17.946L14.5192 16.756C15.2472 17.3067 15.9799 17.582 16.7172 17.582C17.4639 17.582 18.0519 17.3907 18.4812 17.008C18.9199 16.6253 19.1392 16.014 19.1392 15.174V14.222C18.9059 14.6607 18.5699 15.0107 18.1312 15.272C17.7019 15.5333 17.2166 15.664 16.6752 15.664C15.6859 15.664 14.8739 15.3187 14.2392 14.628C13.6046 13.9373 13.2872 13.0787 13.2872 12.052C13.2872 11.0253 13.6046 10.1667 14.2392 9.476C14.8739 8.78533 15.6812 8.44 16.6612 8.44C17.6506 8.44 18.4532 8.846 19.0692 9.658V8.552H20.6372ZM14.8272 11.996C14.8272 12.6027 15.0139 13.13 15.3872 13.578C15.7699 14.0167 16.2786 14.236 16.9132 14.236C17.5572 14.236 18.0752 14.0213 18.4672 13.592C18.8686 13.1627 19.0692 12.6307 19.0692 11.996C19.0692 11.352 18.8686 10.8107 18.4672 10.372C18.0659 9.924 17.5479 9.7 16.9132 9.7C16.2786 9.7 15.7699 9.92867 15.3872 10.386C15.0139 10.8433 14.8272 11.38 14.8272 11.996Z" fill="#333333"/>
</svg>
