<svg width="24" height="24" viewBox="0 0 24 24" fill="none" xmlns="http://www.w3.org/2000/svg">
<path d="M11.9854 14H9.5791L8.88184 11.8193H5.39551L4.70508 14H2.3125L5.88086 4.19727H8.49902L11.9854 14ZM8.37598 10.124L7.32324 6.8291C7.24577 6.58301 7.19108 6.28906 7.15918 5.94727H7.10449C7.08171 6.23438 7.02474 6.51921 6.93359 6.80176L5.86719 10.124H8.37598ZM19.8604 13.2002C19.8604 14.499 19.4844 15.5039 18.7324 16.2148C17.9805 16.9303 16.8913 17.2881 15.4648 17.2881C14.5215 17.2881 13.7741 17.1536 13.2227 16.8848V15.0664C13.9427 15.4857 14.6696 15.6953 15.4033 15.6953C16.1325 15.6953 16.6976 15.5016 17.0986 15.1143C17.4997 14.7314 17.7002 14.2096 17.7002 13.5488V12.9951H17.6729C17.1807 13.779 16.4538 14.1709 15.4922 14.1709C14.599 14.1709 13.8903 13.8564 13.3662 13.2275C12.8421 12.5986 12.5801 11.7555 12.5801 10.6982C12.5801 9.51335 12.8717 8.57227 13.4551 7.875C14.0384 7.17773 14.8063 6.8291 15.7588 6.8291C16.611 6.8291 17.249 7.15723 17.6729 7.81348H17.7002V7H19.8604V13.2002ZM17.7275 10.6367V10.083C17.7275 9.64095 17.5954 9.26497 17.3311 8.95508C17.0713 8.64062 16.7318 8.4834 16.3125 8.4834C15.834 8.4834 15.458 8.67025 15.1846 9.04395C14.9111 9.41764 14.7744 9.94401 14.7744 10.623C14.7744 11.2064 14.9043 11.6689 15.1641 12.0107C15.4238 12.348 15.7793 12.5166 16.2305 12.5166C16.6771 12.5166 17.0371 12.3457 17.3105 12.0039C17.5885 11.6576 17.7275 11.2018 17.7275 10.6367Z" fill="#333333"/>
</svg>
