<svg width="24" height="24" viewBox="0 0 24 24" fill="none" xmlns="http://www.w3.org/2000/svg">
<path d="M6.72949 12.2676L6.08691 14.168C6.00488 14.3867 5.9502 14.5736 5.92285 14.7285C5.89551 14.8835 5.91374 15.0111 5.97754 15.1113C6.04134 15.2025 6.15072 15.2708 6.30566 15.3164C6.46973 15.362 6.70215 15.3848 7.00293 15.3848V16.0273C6.74772 16.0182 6.46517 16.0137 6.15527 16.0137C5.85449 16.0137 5.5446 16.0137 5.22559 16.0137C4.91569 16.0137 4.61035 16.0137 4.30957 16.0137C4.00879 16.0137 3.73079 16.0182 3.47559 16.0273V15.3574C3.73079 15.3574 3.93587 15.3392 4.09082 15.3027C4.25488 15.2572 4.38704 15.1842 4.4873 15.084C4.59668 14.9837 4.68783 14.8516 4.76074 14.6875C4.84277 14.5234 4.92936 14.3092 5.02051 14.0449L8.05566 5.32227H8.82129L11.7744 14.0723C11.8656 14.3457 11.9521 14.5645 12.0342 14.7285C12.1253 14.8926 12.2301 15.0202 12.3486 15.1113C12.4671 15.2025 12.6038 15.2708 12.7588 15.3164C12.9229 15.3529 13.1234 15.3848 13.3604 15.4121V16.0273C13.1051 16.0182 12.8089 16.0137 12.4717 16.0137C12.1344 16.0137 11.7881 16.0137 11.4326 16.0137C11.0771 16.0137 10.7308 16.0137 10.3936 16.0137C10.0563 16.0137 9.76009 16.0182 9.50488 16.0273V15.3848C9.80566 15.3848 10.0335 15.3711 10.1885 15.3438C10.3525 15.3164 10.4619 15.2617 10.5166 15.1797C10.5713 15.0977 10.5758 14.9746 10.5303 14.8105C10.4938 14.6465 10.43 14.4232 10.3389 14.1406L9.70996 12.2676H6.72949ZM6.98926 11.502H9.46387L8.24707 7.86523L6.98926 11.502ZM15.0146 15.7402C14.6045 15.5579 14.3402 15.321 14.2217 15.0293C14.1032 14.7285 14.0804 14.4095 14.1533 14.0723C14.363 13.9447 14.5498 13.8307 14.7139 13.7305C14.887 13.6211 15.0192 13.5299 15.1104 13.457C14.7913 13.2747 14.5179 13.0378 14.29 12.7461C14.0713 12.4453 13.9619 12.0397 13.9619 11.5293C13.9619 11.2012 14.0212 10.8958 14.1396 10.6133C14.2581 10.3307 14.4359 10.0846 14.6729 9.875C14.9098 9.65625 15.2061 9.48763 15.5615 9.36914C15.917 9.24154 16.3271 9.17773 16.792 9.17773C17.0472 9.17773 17.2842 9.20508 17.5029 9.25977C17.7308 9.30534 17.9359 9.35091 18.1182 9.39648C18.3005 9.46029 18.4964 9.51497 18.7061 9.56055C18.9157 9.60612 19.1527 9.62891 19.417 9.62891C19.499 9.62891 19.5674 9.62891 19.6221 9.62891C19.6768 9.62891 19.736 9.62435 19.7998 9.61523C19.8454 9.61523 19.9001 9.61068 19.9639 9.60156C20.0368 9.58333 20.1826 9.5651 20.4014 9.54688V10.5039L19.1572 10.4492C19.1937 10.4948 19.2347 10.6133 19.2803 10.8047C19.3258 10.9961 19.3486 11.2012 19.3486 11.4199C19.3486 11.7845 19.2803 12.1126 19.1436 12.4043C19.016 12.696 18.8291 12.9466 18.583 13.1562C18.3369 13.3568 18.0407 13.5117 17.6943 13.6211C17.3571 13.7305 16.9834 13.7852 16.5732 13.7852C16.4639 13.7852 16.3499 13.7852 16.2314 13.7852C16.1221 13.7852 16.0127 13.776 15.9033 13.7578C15.6663 13.8854 15.5479 14.0723 15.5479 14.3184C15.5479 14.5553 15.6117 14.7148 15.7393 14.7969C15.8669 14.8789 16.0765 14.9199 16.3682 14.9199C16.7054 14.9199 17.0244 14.9245 17.3252 14.9336C17.6351 14.9336 17.9404 14.9336 18.2412 14.9336C18.5511 14.9336 18.8382 14.9701 19.1025 15.043C19.376 15.1068 19.6084 15.2116 19.7998 15.3574C20.0003 15.4941 20.1553 15.6719 20.2646 15.8906C20.374 16.1003 20.4287 16.3509 20.4287 16.6426C20.4287 16.9889 20.3285 17.3216 20.1279 17.6406C19.9274 17.9596 19.6494 18.2422 19.2939 18.4883C18.9385 18.7435 18.5192 18.944 18.0361 19.0898C17.5531 19.2448 17.0335 19.3223 16.4775 19.3223C16.0036 19.3223 15.5889 19.263 15.2334 19.1445C14.8779 19.026 14.5817 18.8757 14.3447 18.6934C14.1077 18.5111 13.93 18.3105 13.8115 18.0918C13.693 17.873 13.6338 17.6589 13.6338 17.4492C13.6338 17.0208 13.7705 16.6608 14.0439 16.3691C14.3174 16.0775 14.641 15.8678 15.0146 15.7402ZM15.4932 11.3789C15.4932 11.8711 15.5934 12.2858 15.7939 12.623C15.9945 12.9512 16.2861 13.1152 16.6689 13.1152C17.1156 13.1152 17.43 12.9648 17.6123 12.6641C17.8037 12.3633 17.8994 11.9987 17.8994 11.5703C17.8994 11.3698 17.8721 11.1693 17.8174 10.9688C17.7718 10.7591 17.6989 10.5723 17.5986 10.4082C17.4984 10.235 17.3662 10.0938 17.2021 9.98438C17.0381 9.875 16.8467 9.82031 16.6279 9.82031C16.4365 9.82031 16.2679 9.87044 16.1221 9.9707C15.9854 10.0618 15.8669 10.1849 15.7666 10.3398C15.6755 10.4857 15.6071 10.6543 15.5615 10.8457C15.516 11.028 15.4932 11.2057 15.4932 11.3789ZM14.9736 17.2441C14.9736 17.472 15.0192 17.668 15.1104 17.832C15.2015 17.9961 15.3245 18.1328 15.4795 18.2422C15.6344 18.3516 15.8167 18.429 16.0264 18.4746C16.2451 18.5293 16.473 18.5566 16.71 18.5566C17.0381 18.5566 17.3434 18.5202 17.626 18.4473C17.9176 18.3835 18.1683 18.2878 18.3779 18.1602C18.5967 18.0326 18.7653 17.8776 18.8838 17.6953C19.0023 17.5221 19.0615 17.3216 19.0615 17.0938C19.0615 16.8841 19.0114 16.7109 18.9111 16.5742C18.82 16.4375 18.6878 16.3281 18.5146 16.2461C18.3506 16.1641 18.1546 16.1048 17.9268 16.0684C17.6989 16.041 17.4528 16.0273 17.1885 16.0273C16.4502 16.0273 15.8942 16.1367 15.5205 16.3555C15.1559 16.5742 14.9736 16.8704 14.9736 17.2441Z" fill="#333333"/>
</svg>
