<svg width="24" height="24" viewBox="0 0 24 24" fill="none" xmlns="http://www.w3.org/2000/svg">
<path d="M5.73929 14.8639L4.79633 17H3.10286L7.25956 7.58969H8.95304L13.0905 17H11.397L10.4541 14.8639H5.73929ZM9.81902 13.3821L8.1063 9.51409L6.39359 13.3821H9.81902ZM20.8093 9.84124V16.0763C20.8093 17.3079 20.4757 18.2509 19.8086 18.9052C19.1415 19.5595 18.2498 19.8866 17.1337 19.8866C16.0817 19.8866 15.1067 19.5466 14.2086 18.8667L14.9206 17.7313C15.6391 18.2573 16.3511 18.5203 17.0567 18.5203C18.5962 18.5203 19.366 17.7505 19.366 16.211V15.2873C19.1479 15.7107 18.8272 16.0506 18.4038 16.3072C17.9804 16.551 17.5121 16.6729 16.999 16.6729C16.0496 16.6729 15.267 16.3457 14.6512 15.6914C14.0482 15.0243 13.7467 14.1968 13.7467 13.2089C13.7467 12.2082 14.0482 11.3808 14.6512 10.7265C15.267 10.0593 16.0496 9.72577 16.999 9.72577C17.9483 9.72577 18.7181 10.1171 19.3083 10.8997V9.84124H20.8093ZM17.2491 15.3065C17.8521 15.3065 18.3461 15.1013 18.7309 14.6907C19.1158 14.2674 19.3083 13.7478 19.3083 13.132C19.3083 12.5033 19.1094 11.9837 18.7117 11.5732C18.3268 11.1498 17.8329 10.9381 17.2299 10.9381C16.6269 10.9381 16.1394 11.1562 15.7674 11.5924C15.4081 12.0158 15.2285 12.529 15.2285 13.132C15.2285 13.7478 15.4146 14.2674 15.7866 14.6907C16.1587 15.1013 16.6462 15.3065 17.2491 15.3065Z" fill="#888888"/>
</svg>
