<svg width="24" height="24" viewBox="0 0 24 24" fill="none" xmlns="http://www.w3.org/2000/svg">
<path d="M8.49316 7.08789L9.53223 7.15625C9.78743 8.28646 10.3115 9.88607 11.1045 11.9551C11.8975 14.015 12.4215 15.5553 12.6768 16.5762C12.6768 16.8405 12.6312 17.0365 12.54 17.1641C12.4489 17.3008 12.335 17.3691 12.1982 17.3691C12.0798 17.3691 11.9658 17.319 11.8564 17.2188C11.7562 17.1276 11.6878 16.9954 11.6514 16.8223C11.5693 16.4212 11.305 15.6191 10.8584 14.416C8.98079 14.179 7.80046 14.0332 7.31738 13.9785C7.19889 14.3066 7.05306 14.8398 6.87988 15.5781C6.70671 16.3164 6.56999 16.8268 6.46973 17.1094C6.33301 17.2734 6.17806 17.3555 6.00488 17.3555C5.81348 17.3555 5.64941 17.2689 5.5127 17.0957C5.37598 16.9316 5.30762 16.7266 5.30762 16.4805C5.59928 15.4141 6.12793 13.8464 6.89355 11.7773C7.65918 9.70833 8.19238 8.14518 8.49316 7.08789ZM8.97168 8.46875C8.78939 9.57161 8.28353 11.1895 7.4541 13.3223H8.98535C9.67806 13.3223 10.2568 13.3451 10.7217 13.3906C9.78288 11.3763 9.19954 9.73568 8.97168 8.46875ZM17.3936 9.94531L18.0088 9.80859C18.0088 10.082 18.0133 10.2962 18.0225 10.4512C18.0771 12.4473 18.1045 13.7461 18.1045 14.3477C18.1045 14.5573 18.109 14.8854 18.1182 15.332C18.1273 15.7786 18.1318 16.1159 18.1318 16.3438C18.1318 16.8451 18.1136 17.278 18.0771 17.6426C18.0498 18.0072 17.9814 18.3854 17.8721 18.7773C17.7627 19.1784 17.6123 19.502 17.4209 19.748C17.2386 20.0033 16.9743 20.2129 16.6279 20.377C16.2907 20.541 15.8896 20.623 15.4248 20.623C15.0238 20.623 14.3174 20.5638 13.3057 20.4453C13.2965 20.3451 13.2783 20.2357 13.251 20.1172C13.2327 19.9987 13.2236 19.9076 13.2236 19.8438C13.2236 19.707 13.2373 19.5977 13.2646 19.5156C13.3376 19.5247 13.6201 19.5612 14.1123 19.625C14.6136 19.6888 14.9827 19.7207 15.2197 19.7207C15.8486 19.7207 16.3317 19.5293 16.6689 19.1465C17.0062 18.7637 17.1794 18.0482 17.1885 17C16.7419 17.2552 16.2725 17.3828 15.7803 17.3828C15.3701 17.3828 15.0101 17.2962 14.7002 17.123C14.3903 16.959 14.1442 16.7493 13.9619 16.4941C13.7796 16.2298 13.6292 15.9154 13.5107 15.5508C13.4014 15.1771 13.3239 14.8171 13.2783 14.4707C13.2419 14.1243 13.2236 13.7552 13.2236 13.3633C13.2236 12.3789 13.4378 11.554 13.8662 10.8887C14.3037 10.2233 14.9645 9.89062 15.8486 9.89062C16.3682 9.89062 16.8786 10.0501 17.3799 10.3691C17.389 10.278 17.3936 10.1367 17.3936 9.94531ZM17.2295 15.6738L17.2705 11.2578C17.2158 11.0938 17.0426 10.9661 16.751 10.875C16.4684 10.7747 16.154 10.7246 15.8076 10.7246C15.3154 10.7246 14.9326 10.9525 14.6592 11.4082C14.3857 11.8548 14.249 12.4017 14.249 13.0488C14.249 13.3861 14.2673 13.7188 14.3037 14.0469C14.3402 14.3659 14.4131 14.7214 14.5225 15.1133C14.6318 15.4961 14.8096 15.806 15.0557 16.043C15.3018 16.2799 15.6071 16.3984 15.9717 16.3984C16.2451 16.3984 16.4958 16.3346 16.7236 16.207C16.9515 16.0703 17.1201 15.8926 17.2295 15.6738Z" fill="#888888"/>
</svg>
