<svg width="24" height="24" viewBox="0 0 24 24" fill="none" xmlns="http://www.w3.org/2000/svg">
<path d="M6.79102 17.2L6.86484 16.8227L5.35547 16.6668L6.56953 13.2789H10.1133L11.2535 16.6012L9.8918 16.8473L9.81797 17.1918H13.173L13.2387 16.8145L12.1559 16.6586L8.75156 6.79844L8.3168 6.91328L4.72383 16.6094L3.55898 16.8555L3.51797 17.2H6.79102ZM8.37422 8.29961L9.95742 12.8195H6.73359L8.37422 8.29961ZM16.725 20.3746C17.3539 20.3746 17.9391 20.2598 18.4805 20.0301C19.0273 19.8004 19.4594 19.4941 19.7766 19.1113C20.0992 18.7285 20.2605 18.3211 20.2605 17.8891C20.2605 17.3313 20.0609 16.9238 19.6617 16.6668C19.268 16.4043 18.6719 16.2703 17.8734 16.2648H16.725C15.8719 16.2648 15.4453 16.0434 15.4453 15.6004C15.4453 15.4582 15.4973 15.3297 15.6012 15.2148C15.7051 15.1 15.8719 14.9414 16.1016 14.7391C16.1672 14.7719 16.2766 14.8074 16.4297 14.8457C16.5883 14.8785 16.7414 14.8949 16.8891 14.8949C17.2773 14.8949 17.6547 14.7855 18.0211 14.5668C18.393 14.3426 18.6938 14.0445 18.9234 13.6727C19.1586 13.2953 19.2762 12.8961 19.2762 12.475C19.2762 12.207 19.2242 11.909 19.1203 11.5809C19.0219 11.2473 18.9316 11.0203 18.8496 10.9L18.8906 10.8672L20.1949 11.1953L20.2605 11.1789L20.5148 10.5309L20.4328 10.4242C20.2523 10.4406 19.957 10.4652 19.5469 10.498C19.1367 10.5309 18.8168 10.5527 18.5871 10.5637C18.0895 10.2137 17.6219 10.0387 17.1844 10.0387C16.725 10.0387 16.3039 10.1535 15.9211 10.3832C15.5438 10.6129 15.2457 10.9219 15.027 11.3102C14.8082 11.6984 14.6988 12.1168 14.6988 12.5652C14.6988 12.9098 14.759 13.2242 14.8793 13.5086C14.9996 13.7875 15.1473 14.0199 15.3223 14.2059C15.4973 14.3863 15.6668 14.5176 15.8309 14.5996C15.5137 14.8184 15.2457 15.0453 15.027 15.2805C14.8137 15.5102 14.707 15.7125 14.707 15.8875C14.707 16.1008 14.7836 16.2895 14.9367 16.4535C15.0898 16.6176 15.2758 16.7461 15.4945 16.8391V16.8801C15.068 17.0934 14.7152 17.3285 14.4363 17.5855C14.1574 17.848 14.018 18.1816 14.018 18.5863C14.018 18.9309 14.1246 19.2371 14.3379 19.5051C14.5566 19.7785 14.8684 19.9918 15.273 20.1449C15.6832 20.298 16.1672 20.3746 16.725 20.3746ZM16.9875 10.416C17.2719 10.416 17.5289 10.5172 17.7586 10.7195C17.9883 10.9164 18.1688 11.1898 18.3 11.5398C18.4313 11.8844 18.4969 12.2645 18.4969 12.6801C18.4969 13.052 18.4313 13.3719 18.3 13.6398C18.1742 13.9023 18.0047 14.102 17.7914 14.2387C17.5836 14.3699 17.3566 14.4355 17.1105 14.4355C16.7824 14.4355 16.4926 14.3344 16.241 14.132C15.9895 13.9242 15.7953 13.6617 15.6586 13.3445C15.5219 13.0273 15.4535 12.702 15.4535 12.3684C15.4535 11.7887 15.5793 11.3184 15.8309 10.9574C16.0824 10.5965 16.468 10.416 16.9875 10.416ZM17.734 16.9457C18.3957 16.9457 18.8633 17.0633 19.1367 17.2984C19.4102 17.5391 19.5469 17.8754 19.5469 18.3074C19.5469 18.6191 19.432 18.8898 19.2023 19.1195C18.9781 19.3492 18.6855 19.5215 18.3246 19.6363C17.9637 19.7566 17.5891 19.8168 17.2008 19.8168C15.6039 19.8168 14.8055 19.2809 14.8055 18.209C14.8055 17.941 14.8875 17.7141 15.0516 17.5281C15.2156 17.3422 15.3988 17.1945 15.6012 17.0852C15.809 16.9758 15.9129 16.9293 15.9129 16.9457H17.734Z" fill="#888888"/>
</svg>
