<svg width="24" height="24" viewBox="0 0 24 24" fill="none" xmlns="http://www.w3.org/2000/svg">
<path d="M4.64437 14.207V12.961H9.62137V14.207H4.64437ZM12.9324 16.041L14.0594 16.468V17H8.52937V16.468L9.65637 16.097L6.91937 9.265H7.12937L4.51137 16.083L5.58237 16.468V17H1.92137V16.468L3.02737 16.097L6.53437 7.445H9.32037L12.9324 16.041ZM17.6099 20.556C16.9612 20.556 16.4152 20.5233 15.9719 20.458C15.5286 20.3927 15.1716 20.297 14.9009 20.171C14.6349 20.045 14.4412 19.8957 14.3199 19.723C14.2032 19.555 14.1449 19.3683 14.1449 19.163C14.1449 18.981 14.1846 18.8177 14.2639 18.673C14.3432 18.533 14.4902 18.407 14.7049 18.295C14.9196 18.183 15.2229 18.0827 15.6149 17.994C16.0069 17.9053 16.5156 17.8237 17.1409 17.749H17.9249L17.9319 17.868C17.4419 17.9193 17.0686 17.9847 16.8119 18.064C16.5599 18.148 16.3872 18.246 16.2939 18.358C16.2052 18.47 16.1609 18.603 16.1609 18.757C16.1609 18.939 16.2239 19.0953 16.3499 19.226C16.4759 19.3613 16.6766 19.464 16.9519 19.534C17.2319 19.6087 17.5936 19.646 18.0369 19.646C18.4896 19.646 18.8629 19.611 19.1569 19.541C19.4509 19.471 19.6679 19.373 19.8079 19.247C19.9479 19.121 20.0179 18.9833 20.0179 18.834C20.0179 18.722 19.9852 18.6263 19.9199 18.547C19.8592 18.4677 19.7356 18.4 19.5489 18.344C19.3622 18.288 19.0892 18.2413 18.7299 18.204C18.3706 18.1667 17.8969 18.1293 17.3089 18.092C16.7209 18.0593 16.2402 17.9917 15.8669 17.889C15.4982 17.791 15.2136 17.6627 15.0129 17.504C14.8122 17.3453 14.6746 17.168 14.5999 16.972C14.5252 16.7713 14.4902 16.5567 14.4949 16.328C14.5089 15.8567 14.6932 15.4833 15.0479 15.208C15.4026 14.9327 15.9556 14.7623 16.7069 14.697L16.9169 15.005C16.6276 15.0237 16.4339 15.068 16.3359 15.138C16.2426 15.208 16.1959 15.3013 16.1959 15.418C16.1959 15.5113 16.2216 15.5883 16.2729 15.649C16.3289 15.7097 16.4362 15.761 16.5949 15.803C16.7582 15.8403 17.0009 15.8707 17.3229 15.894C17.6496 15.9173 18.0836 15.9383 18.6249 15.957C19.2269 15.9803 19.7332 16.034 20.1439 16.118C20.5546 16.1973 20.8836 16.3163 21.1309 16.475C21.3782 16.629 21.5579 16.825 21.6699 17.063C21.7819 17.3057 21.8379 17.5927 21.8379 17.924C21.8426 18.4513 21.6839 18.911 21.3619 19.303C21.0446 19.6997 20.5709 20.0077 19.9409 20.227C19.3156 20.4463 18.5386 20.556 17.6099 20.556ZM17.6169 15.11C16.9122 15.11 16.3196 15.0143 15.8389 14.823C15.3629 14.627 15.0012 14.3493 14.7539 13.99C14.5112 13.626 14.3899 13.1967 14.3899 12.702C14.3899 12.1793 14.5252 11.7383 14.7959 11.379C15.0666 11.0197 15.4446 10.749 15.9299 10.567C16.4199 10.3803 16.9869 10.287 17.6309 10.287C18.1816 10.287 18.6576 10.357 19.0589 10.497C19.4649 10.637 19.8009 10.826 20.0669 11.064C20.3329 11.2973 20.5312 11.5563 20.6619 11.841C20.7926 12.1257 20.8579 12.4103 20.8579 12.695C20.8579 13.213 20.7226 13.654 20.4519 14.018C20.1859 14.3773 19.8102 14.6503 19.3249 14.837C18.8396 15.019 18.2702 15.11 17.6169 15.11ZM17.6729 14.172C17.8782 14.172 18.0369 14.0763 18.1489 13.885C18.2656 13.6937 18.3239 13.3273 18.3239 12.786C18.3239 12.1653 18.2586 11.743 18.1279 11.519C17.9972 11.2903 17.8176 11.176 17.5889 11.176C17.3836 11.176 17.2249 11.2717 17.1129 11.463C17.0009 11.6543 16.9449 12.023 16.9449 12.569C16.9449 13.185 17.0079 13.6073 17.1339 13.836C17.2646 14.06 17.4442 14.172 17.6729 14.172ZM18.7229 10.945L18.6109 10.42C18.9936 10.4573 19.3366 10.4737 19.6399 10.469C19.9432 10.4597 20.2139 10.441 20.4519 10.413C20.6946 10.385 20.9069 10.357 21.0889 10.329C21.2756 10.301 21.4412 10.287 21.5859 10.287C21.7492 10.287 21.8659 10.329 21.9359 10.413C22.0106 10.497 22.0479 10.651 22.0479 10.875C22.0479 11.2297 21.9919 11.4677 21.8799 11.589C21.7679 11.7103 21.6396 11.771 21.4949 11.771C21.3596 11.771 21.2196 11.7243 21.0749 11.631C20.9349 11.5377 20.7646 11.4327 20.5639 11.316C20.3679 11.1993 20.1229 11.1013 19.8289 11.022C19.5349 10.9427 19.1662 10.917 18.7229 10.945Z" fill="#888888"/>
</svg>
