<svg width="24" height="24" viewBox="0 0 24 24" fill="none" xmlns="http://www.w3.org/2000/svg">
<path d="M5.93067 13.57V12.779H10.6907V13.57H5.93067ZM12.4547 16.216L13.5817 16.573V17H9.85767V16.573L11.0967 16.223L7.84867 8.306H8.27567L5.27967 16.223L6.46967 16.573V17H3.25667V16.573L4.36267 16.223L7.91167 7.305H8.74467L12.4547 16.216ZM16.7659 20.556C16.2526 20.556 15.8022 20.5187 15.4149 20.444C15.0322 20.3693 14.7126 20.2597 14.4559 20.115C14.1992 19.9703 14.0056 19.793 13.8749 19.583C13.7489 19.3777 13.6859 19.142 13.6859 18.876C13.6859 18.6847 13.7349 18.5027 13.8329 18.33C13.9309 18.1573 14.0849 17.9987 14.2949 17.854C14.5096 17.7093 14.7826 17.5833 15.1139 17.476C15.4452 17.3687 15.8466 17.2847 16.3179 17.224H16.7449V17.378C16.2689 17.434 15.8932 17.525 15.6179 17.651C15.3472 17.777 15.1559 17.931 15.0439 18.113C14.9319 18.295 14.8759 18.498 14.8759 18.722C14.8759 18.9787 14.9436 19.1957 15.0789 19.373C15.2189 19.555 15.4359 19.6903 15.7299 19.779C16.0239 19.8723 16.4042 19.919 16.8709 19.919C17.3749 19.919 17.8019 19.8607 18.1519 19.744C18.5066 19.6273 18.7749 19.4663 18.9569 19.261C19.1436 19.0603 19.2369 18.8293 19.2369 18.568C19.2369 18.3907 19.1996 18.239 19.1249 18.113C19.0502 17.987 18.9219 17.882 18.7399 17.798C18.5579 17.714 18.3059 17.6487 17.9839 17.602C17.6666 17.5553 17.2606 17.5227 16.7659 17.504C16.2712 17.4853 15.8629 17.4363 15.5409 17.357C15.2236 17.2823 14.9739 17.182 14.7919 17.056C14.6099 16.9347 14.4816 16.7947 14.4069 16.636C14.3369 16.4773 14.3019 16.3047 14.3019 16.118C14.3019 15.8053 14.4512 15.5393 14.7499 15.32C15.0486 15.096 15.4896 14.9373 16.0729 14.844L16.1989 14.991C15.9422 15.019 15.7486 15.089 15.6179 15.201C15.4872 15.3083 15.4219 15.4623 15.4219 15.663C15.4219 15.775 15.4429 15.8753 15.4849 15.964C15.5269 16.0527 15.6156 16.1297 15.7509 16.195C15.8862 16.2557 16.0916 16.307 16.3669 16.349C16.6422 16.391 17.0109 16.4213 17.4729 16.44C17.9396 16.4587 18.3526 16.5053 18.7119 16.58C19.0712 16.65 19.3722 16.7573 19.6149 16.902C19.8622 17.042 20.0489 17.2217 20.1749 17.441C20.3009 17.6603 20.3639 17.9287 20.3639 18.246C20.3639 18.6707 20.2216 19.058 19.9369 19.408C19.6522 19.758 19.2416 20.0357 18.7049 20.241C18.1729 20.451 17.5266 20.556 16.7659 20.556ZM16.7729 15.11C16.2596 15.11 15.8022 15.0143 15.4009 14.823C14.9996 14.6317 14.6869 14.3633 14.4629 14.018C14.2389 13.668 14.1269 13.2643 14.1269 12.807C14.1269 12.3403 14.2389 11.9343 14.4629 11.589C14.6869 11.2437 14.9996 10.9753 15.4009 10.784C15.8022 10.5927 16.2596 10.497 16.7729 10.497C17.1602 10.497 17.5149 10.553 17.8369 10.665C18.1589 10.7723 18.4366 10.9287 18.6699 11.134C18.9032 11.3347 19.0852 11.5773 19.2159 11.862C19.3466 12.142 19.4119 12.4547 19.4119 12.8C19.4119 13.262 19.2999 13.668 19.0759 14.018C18.8519 14.3633 18.5416 14.6317 18.1449 14.823C17.7482 15.0143 17.2909 15.11 16.7729 15.11ZM16.8289 14.487C17.2489 14.487 17.5872 14.3493 17.8439 14.074C18.1006 13.794 18.2289 13.3903 18.2289 12.863C18.2289 12.3077 18.0982 11.8783 17.8369 11.575C17.5802 11.2717 17.2116 11.12 16.7309 11.12C16.3109 11.12 15.9702 11.2577 15.7089 11.533C15.4476 11.8083 15.3169 12.212 15.3169 12.744C15.3169 13.2947 15.4476 13.724 15.7089 14.032C15.9749 14.3353 16.3482 14.487 16.8289 14.487ZM17.7669 11.113L17.4729 10.609C17.7856 10.637 18.0796 10.6487 18.3549 10.644C18.6349 10.6393 18.8939 10.6253 19.1319 10.602C19.3699 10.5787 19.5869 10.5553 19.7829 10.532C19.9789 10.5087 20.1492 10.497 20.2939 10.497C20.4246 10.497 20.5226 10.539 20.5879 10.623C20.6579 10.707 20.6929 10.8377 20.6929 11.015C20.6929 11.2017 20.6462 11.3603 20.5529 11.491C20.4642 11.617 20.3569 11.68 20.2309 11.68C20.1189 11.68 20.0046 11.6543 19.8879 11.603C19.7712 11.5517 19.6266 11.4933 19.4539 11.428C19.2812 11.358 19.0596 11.295 18.7889 11.239C18.5229 11.1783 18.1822 11.1363 17.7669 11.113Z" fill="#888888"/>
</svg>
