<svg width="24" height="24" viewBox="0 0 24 24" fill="none" xmlns="http://www.w3.org/2000/svg">
<path d="M5.12988 14.8535C5.12988 14.5983 5.21647 14.3841 5.38965 14.2109C5.57194 14.0286 5.79069 13.9375 6.0459 13.9375H8.1377L7.78223 12.9258C7.63639 12.5521 7.49056 12.2012 7.34473 11.873C7.20801 11.5358 7.0485 11.2305 6.86621 10.957C6.70215 10.6836 6.5153 10.5378 6.30566 10.5195C6.08691 10.5378 5.89095 10.6836 5.71777 10.957C5.5446 11.2305 5.38509 11.5358 5.23926 11.873C5.10254 12.2012 4.96126 12.5521 4.81543 12.9258L3.5166 16.4805C3.42546 16.6719 3.30697 16.8314 3.16113 16.959C3.02441 17.0775 2.81478 17.1367 2.53223 17.1367C2.2679 17.1367 2.04915 17.0456 1.87598 16.8633C1.71191 16.681 1.639 16.4622 1.65723 16.207C1.66634 16.0885 1.69368 15.9792 1.73926 15.8789L3.24316 11.9961C3.66243 10.9753 4.08171 10.1504 4.50098 9.52148C4.91113 8.90169 5.5127 8.58724 6.30566 8.57812C7.08952 8.58724 7.68652 8.90169 8.09668 9.52148C8.51595 10.1322 8.93522 10.957 9.35449 11.9961L10.8584 15.8789C10.904 15.9792 10.9313 16.0885 10.9404 16.207C10.9587 16.4622 10.8812 16.681 10.708 16.8633C10.5439 17.0456 10.3298 17.1367 10.0654 17.1367C9.76465 17.1367 9.54134 17.0775 9.39551 16.959C9.25879 16.8314 9.14486 16.6719 9.05371 16.4805L8.79395 15.7695H6.0459C5.79069 15.7695 5.5765 15.6784 5.40332 15.4961C5.22103 15.3229 5.12988 15.1087 5.12988 14.8535ZM19.9775 12.9531C19.9775 12.7253 19.859 12.6068 19.6221 12.5977H14.8369C14.6637 12.6068 14.5133 12.6842 14.3857 12.8301C14.2581 12.9668 14.1624 13.1309 14.0986 13.3223C14.0439 13.5046 14.0166 13.6914 14.0166 13.8828C14.0166 14.0651 14.0439 14.252 14.0986 14.4434C14.1624 14.6257 14.2581 14.7897 14.3857 14.9355C14.5133 15.0723 14.6637 15.1406 14.8369 15.1406H18.3369C18.5921 15.1406 18.8063 15.2318 18.9795 15.4141C19.1618 15.5872 19.2529 15.8014 19.2529 16.0566C19.2529 16.3118 19.1618 16.526 18.9795 16.6992C18.8063 16.8815 18.5921 16.9727 18.3369 16.9727H14.8916C14.2536 16.9635 13.7249 16.7858 13.3057 16.4395C12.8955 16.084 12.5993 15.6875 12.417 15.25C12.2438 14.8034 12.1572 14.3431 12.1572 13.8691C12.1572 13.4134 12.2484 12.9668 12.4307 12.5293C12.613 12.0827 12.9092 11.6862 13.3193 11.3398C13.7295 10.9844 14.3356 10.793 15.1377 10.7656H20.8799C21.1351 10.7656 21.3538 10.8522 21.5361 11.0254C21.7184 11.1895 21.8141 11.3991 21.8232 11.6543V15.9746C21.8232 16.7038 21.723 17.3919 21.5225 18.0391C21.3402 18.6133 21.0394 19.0964 20.6201 19.4883C20.21 19.8893 19.6859 20.1081 19.0479 20.1445H14.3174C14.0713 20.1354 13.8617 20.0443 13.6885 19.8711C13.5244 19.707 13.4378 19.502 13.4287 19.2559C13.4287 19.0007 13.5107 18.7819 13.6748 18.5996C13.848 18.4173 14.0622 18.3216 14.3174 18.3125H18.583C18.9294 18.2943 19.2165 18.1621 19.4443 17.916C19.6722 17.6699 19.818 17.3828 19.8818 17.0547C19.9456 16.7266 19.9775 16.3027 19.9775 15.7832V12.9531Z" fill="#333333"/>
</svg>
