<svg width="24" height="24" viewBox="0 0 24 24" fill="none" xmlns="http://www.w3.org/2000/svg">
<path d="M7.3741 8.48C7.43943 8.284 7.5141 8.14867 7.5981 8.074C7.69144 7.99 7.80344 7.948 7.9341 7.948C8.11144 7.948 8.2421 7.98533 8.3261 8.06C8.41944 8.13467 8.4661 8.21867 8.4661 8.312C8.4661 8.37733 8.4381 8.45667 8.3821 8.55L11.6441 18H10.8461L9.9221 15.27H5.8061L4.8821 18H4.0841L7.3741 8.48ZM9.7121 14.626L7.8781 8.998L6.0441 14.626H9.7121ZM15.2399 21.052C14.9039 21.052 14.5586 21.0147 14.2039 20.94C13.8586 20.8653 13.5646 20.7767 13.3219 20.674L13.5739 20.044C13.7699 20.1373 14.0172 20.2167 14.3159 20.282C14.6239 20.3567 14.9319 20.394 15.2399 20.394C16.1172 20.394 16.7519 20.17 17.1439 19.722C17.5359 19.274 17.7319 18.5693 17.7319 17.608V16.698C17.4799 17.0993 17.1579 17.4167 16.7659 17.65C16.3739 17.8833 15.9212 18 15.4079 18C14.3999 18 13.6579 17.6687 13.1819 17.006C12.7152 16.3433 12.4819 15.48 12.4819 14.416C12.4819 13.4453 12.7292 12.6473 13.2239 12.022C13.7279 11.3873 14.4559 11.07 15.4079 11.07C15.9586 11.07 16.4206 11.1867 16.7939 11.42C17.1672 11.644 17.4846 11.9613 17.7459 12.372C17.7459 12.0827 17.7832 11.8167 17.8579 11.574C17.9419 11.322 18.0306 11.154 18.1239 11.07L18.7819 11.336C18.6792 11.5133 18.5999 11.714 18.5439 11.938C18.4879 12.162 18.4599 12.4793 18.4599 12.89V17.79C18.4599 18.8447 18.1612 19.652 17.5639 20.212C16.9759 20.772 16.2012 21.052 15.2399 21.052ZM15.4079 17.342C15.8746 17.342 16.2806 17.2207 16.6259 16.978C16.9806 16.7353 17.2512 16.4273 17.4379 16.054C17.6339 15.6713 17.7319 15.2747 17.7319 14.864V14.192C17.7319 13.7813 17.6339 13.3847 17.4379 13.002C17.2512 12.6193 16.9806 12.3113 16.6259 12.078C16.2806 11.8447 15.8746 11.728 15.4079 11.728C14.6612 11.728 14.1106 11.9893 13.7559 12.512C13.4106 13.0347 13.2379 13.6693 13.2379 14.416C13.2379 15.256 13.3966 15.956 13.7139 16.516C14.0406 17.0667 14.6052 17.342 15.4079 17.342Z" fill="#333333"/>
</svg>
