<svg width="24" height="24" viewBox="0 0 24 24" fill="none" xmlns="http://www.w3.org/2000/svg">
<path d="M7.28036 7.704C7.46703 7.2 7.79369 6.948 8.26036 6.948C8.55903 6.948 8.79703 7.01333 8.97436 7.144C9.15169 7.27467 9.24036 7.44267 9.24036 7.648C9.24036 7.704 9.22169 7.788 9.18436 7.9L12.5584 17H10.8224L9.89836 14.382H6.48236L5.55836 17H3.83636L7.28036 7.704ZM9.53436 13.066L8.20436 9.244L6.87436 13.066H9.53436ZM16.1595 20.052C15.3569 20.052 14.5729 19.8607 13.8075 19.478L14.2975 18.288C14.8482 18.5773 15.4689 18.722 16.1595 18.722C16.8875 18.722 17.4055 18.54 17.7135 18.176C18.0215 17.812 18.1755 17.28 18.1755 16.58V16.09C17.9329 16.3793 17.6435 16.6033 17.3075 16.762C16.9715 16.9207 16.5935 17 16.1735 17C15.2122 17 14.4515 16.692 13.8915 16.076C13.3315 15.46 13.0515 14.6013 13.0515 13.5C13.0515 12.4267 13.3269 11.5867 13.8775 10.98C14.4282 10.364 15.1655 10.056 16.0895 10.056C16.9949 10.056 17.7509 10.42 18.3575 11.148C18.3855 10.7093 18.5349 10.3407 18.8055 10.042L20.1355 10.56C20.0142 10.7653 19.9255 10.98 19.8695 11.204C19.8229 11.4187 19.7995 11.6987 19.7995 12.044V16.482C19.7995 17.6487 19.4822 18.5353 18.8475 19.142C18.2222 19.7487 17.3262 20.052 16.1595 20.052ZM16.4255 15.698C16.9855 15.698 17.4195 15.4973 17.7275 15.096C18.0355 14.6947 18.1895 14.2093 18.1895 13.64V13.388C18.1895 12.7907 18.0309 12.3053 17.7135 11.932C17.4055 11.5493 16.9622 11.358 16.3835 11.358C15.8235 11.358 15.3989 11.5493 15.1095 11.932C14.8295 12.3053 14.6895 12.828 14.6895 13.5C14.6895 14.9653 15.2682 15.698 16.4255 15.698Z" fill="#888888"/>
</svg>
