<svg width="24" height="24" viewBox="0 0 24 24" fill="none" xmlns="http://www.w3.org/2000/svg">
<path d="M8.1803 8.76C8.47896 8.21867 8.8943 7.948 9.4263 7.948C9.72496 7.948 9.9583 8.00867 10.1263 8.13C10.3036 8.242 10.3923 8.40067 10.3923 8.606C10.3923 8.69933 10.3736 8.78333 10.3363 8.858C10.3083 8.92333 10.2896 8.96533 10.2803 8.984L12.0863 18H10.1963L9.7343 15.41H6.4863L5.1003 18H3.0703L8.1803 8.76ZM9.5803 13.926L8.9783 10.552L7.1723 13.926H9.5803ZM15.1499 21.052C14.3192 21.052 13.5352 20.8467 12.7979 20.436L13.5819 19.106C14.0952 19.4047 14.7066 19.554 15.4159 19.554C16.1159 19.554 16.6339 19.3813 16.9699 19.036C17.3152 18.6907 17.5439 18.2007 17.6559 17.566L17.7259 17.188C17.4552 17.44 17.1426 17.6407 16.7879 17.79C16.4332 17.93 16.0599 18 15.6679 18C14.8466 18 14.2026 17.776 13.7359 17.328C13.2692 16.88 13.0359 16.2407 13.0359 15.41C13.0359 14.598 13.1992 13.8607 13.5259 13.198C13.8526 12.526 14.3006 11.9987 14.8699 11.616C15.4486 11.2333 16.0832 11.042 16.7739 11.042C17.6606 11.042 18.3512 11.392 18.8459 12.092C18.9672 11.6813 19.1866 11.3267 19.5039 11.028L20.9039 11.616C20.7452 11.8213 20.6192 12.036 20.5259 12.26C20.4419 12.4747 20.3672 12.75 20.3019 13.086L19.5319 17.398C19.3172 18.602 18.8366 19.512 18.0899 20.128C17.3432 20.744 16.3632 21.052 15.1499 21.052ZM16.2419 16.53C16.7646 16.53 17.1939 16.3433 17.5299 15.97C17.8659 15.5873 18.0899 15.1253 18.2019 14.584L18.2299 14.444C18.2672 14.2667 18.2859 14.0847 18.2859 13.898C18.2859 13.4687 18.1692 13.1327 17.9359 12.89C17.7026 12.638 17.3572 12.512 16.8999 12.512C16.5079 12.512 16.1579 12.624 15.8499 12.848C15.5512 13.072 15.3179 13.3893 15.1499 13.8C14.9819 14.2013 14.8979 14.6633 14.8979 15.186C14.8979 16.082 15.3459 16.53 16.2419 16.53Z" fill="#333333"/>
</svg>
