<svg width="24" height="24" viewBox="0 0 24 24" fill="none" xmlns="http://www.w3.org/2000/svg">
<path d="M8.01493 8.648C8.26693 8.18133 8.6076 7.948 9.03693 7.948C9.2796 7.948 9.46626 7.99933 9.59693 8.102C9.7276 8.19533 9.79293 8.32133 9.79293 8.48C9.79293 8.564 9.7556 8.67133 9.68093 8.802L11.4029 18H9.94693L9.49893 15.354H5.90093L4.51493 18H2.96093L8.01493 8.648ZM9.37293 14.206L8.67293 9.922L6.46093 14.206H9.37293ZM14.4223 21.052C13.6383 21.052 12.9243 20.8793 12.2803 20.534L12.8823 19.484C13.377 19.7547 13.9603 19.89 14.6323 19.89C15.435 19.89 16.023 19.6893 16.3963 19.288C16.779 18.8867 17.0357 18.3173 17.1663 17.58L17.2643 16.992C16.975 17.3093 16.6343 17.5567 16.2423 17.734C15.8597 17.9113 15.449 18 15.0103 18C14.2263 18 13.6103 17.7667 13.1623 17.3C12.7143 16.824 12.4903 16.1847 12.4903 15.382C12.4903 14.5513 12.6443 13.8093 12.9523 13.156C13.2697 12.5027 13.7083 11.9893 14.2683 11.616C14.8283 11.2427 15.463 11.056 16.1723 11.056C17.1057 11.056 17.801 11.4387 18.2583 12.204C18.3143 11.9613 18.3983 11.742 18.5103 11.546C18.6317 11.3407 18.7623 11.1727 18.9023 11.042L19.9803 11.49C19.8217 11.7047 19.6957 11.9287 19.6023 12.162C19.5183 12.386 19.4437 12.6707 19.3783 13.016L18.5663 17.552C18.361 18.7093 17.9083 19.582 17.2083 20.17C16.5177 20.758 15.589 21.052 14.4223 21.052ZM15.4163 16.852C16.0043 16.852 16.499 16.6373 16.9003 16.208C17.311 15.7787 17.5723 15.2747 17.6843 14.696L17.7543 14.346C17.7823 14.178 17.7963 14.01 17.7963 13.842C17.7963 13.3567 17.6563 12.96 17.3763 12.652C17.1057 12.344 16.7137 12.19 16.2003 12.19C15.7617 12.19 15.365 12.3207 15.0103 12.582C14.665 12.8433 14.3943 13.2073 14.1983 13.674C14.0023 14.1407 13.9043 14.668 13.9043 15.256C13.9043 16.32 14.4083 16.852 15.4163 16.852Z" fill="#333333"/>
</svg>
