<svg width="24" height="24" viewBox="0 0 24 24" fill="none" xmlns="http://www.w3.org/2000/svg">
<path d="M8.17899 7.592C8.40299 7.16267 8.70166 6.948 9.07499 6.948C9.28033 6.948 9.43899 6.99467 9.55099 7.088C9.67233 7.172 9.73299 7.27933 9.73299 7.41C9.73299 7.48467 9.69566 7.58733 9.62099 7.718L11.301 17H10.069L9.62099 14.326H5.85499L4.45499 17H3.15299L8.17899 7.592ZM9.50899 13.346L8.76699 8.614L6.34499 13.346H9.50899ZM14.312 20.052C13.9293 20.052 13.5606 20.0053 13.206 19.912C12.8513 19.828 12.5386 19.716 12.268 19.576L12.786 18.666C13.01 18.7873 13.2666 18.8807 13.556 18.946C13.8546 19.0207 14.1673 19.058 14.494 19.058C15.3526 19.058 15.978 18.8433 16.37 18.414C16.762 17.9847 17.028 17.378 17.168 16.594L17.294 15.894C16.9953 16.2393 16.6453 16.51 16.244 16.706C15.8426 16.902 15.4086 17 14.942 17C14.1766 17 13.57 16.762 13.122 16.286C12.6833 15.8007 12.464 15.1613 12.464 14.368C12.464 13.5373 12.618 12.7953 12.926 12.142C13.234 11.4887 13.6633 10.98 14.214 10.616C14.774 10.2427 15.4133 10.056 16.132 10.056C17.084 10.056 17.7793 10.4573 18.218 11.26C18.274 10.9987 18.358 10.7607 18.47 10.546C18.5913 10.322 18.7173 10.154 18.848 10.042L19.772 10.434C19.6133 10.6487 19.4873 10.8727 19.394 11.106C19.31 11.3393 19.2353 11.6287 19.17 11.974L18.344 16.636C18.1386 17.7653 17.7 18.6147 17.028 19.184C16.356 19.7627 15.4506 20.052 14.312 20.052ZM15.25 16.02C15.67 16.02 16.0526 15.9127 16.398 15.698C16.7433 15.474 17.028 15.1893 17.252 14.844C17.476 14.4893 17.6206 14.1253 17.686 13.752L17.77 13.29C17.798 13.1313 17.812 12.9727 17.812 12.814C17.812 12.3007 17.6626 11.876 17.364 11.54C17.0653 11.204 16.6453 11.036 16.104 11.036C15.6373 11.036 15.2173 11.176 14.844 11.456C14.4706 11.736 14.1766 12.1233 13.962 12.618C13.7566 13.1127 13.654 13.6727 13.654 14.298C13.654 14.83 13.78 15.25 14.032 15.558C14.2933 15.866 14.6993 16.02 15.25 16.02Z" fill="#888888"/>
</svg>
