<svg width="24" height="24" viewBox="0 0 24 24" fill="none" xmlns="http://www.w3.org/2000/svg">
<path d="M7.1303 8.76C7.3263 8.21867 7.6903 7.948 8.2223 7.948C8.5583 7.948 8.8243 8.018 9.0203 8.158C9.2163 8.298 9.3143 8.48933 9.3143 8.732C9.3143 8.788 9.29563 8.872 9.2583 8.984L12.6603 18H10.7003L9.7763 15.41H6.5283L5.6043 18H3.6443L7.1303 8.76ZM9.3703 13.926L8.1663 10.552L6.9623 13.926H9.3703ZM16.2699 21.052C15.4299 21.052 14.6086 20.8467 13.8059 20.436L14.3519 19.106C14.9212 19.4047 15.5606 19.554 16.2699 19.554C16.9699 19.554 17.4599 19.3813 17.7399 19.036C18.0199 18.6907 18.1599 18.2007 18.1599 17.566V17.188C17.9266 17.44 17.6466 17.6407 17.3199 17.79C16.9932 17.93 16.6339 18 16.2419 18C15.2899 18 14.5246 17.7013 13.9459 17.104C13.3672 16.4973 13.0779 15.6387 13.0779 14.528C13.0779 13.7907 13.2086 13.1607 13.4699 12.638C13.7312 12.1153 14.0906 11.7187 14.5479 11.448C15.0052 11.1773 15.5326 11.042 16.1299 11.042C17.0259 11.042 17.7772 11.392 18.3839 12.092C18.4306 11.6813 18.5892 11.3267 18.8599 11.028L20.3579 11.616C20.2366 11.8307 20.1479 12.0453 20.0919 12.26C20.0359 12.4747 20.0079 12.75 20.0079 13.086V17.398C20.0079 18.5927 19.6859 19.498 19.0419 20.114C18.4072 20.7393 17.4832 21.052 16.2699 21.052ZM16.5639 16.53C17.0866 16.53 17.4879 16.3433 17.7679 15.97C18.0479 15.5873 18.1879 15.1253 18.1879 14.584V14.444C18.1879 13.856 18.0432 13.3893 17.7539 13.044C17.4739 12.6893 17.0586 12.512 16.5079 12.512C15.9946 12.512 15.6026 12.6847 15.3319 13.03C15.0612 13.366 14.9259 13.8653 14.9259 14.528C14.9259 15.2187 15.0612 15.7273 15.3319 16.054C15.6119 16.3713 16.0226 16.53 16.5639 16.53Z" fill="#333333"/>
</svg>
