<svg width="24" height="24" viewBox="0 0 24 24" fill="none" xmlns="http://www.w3.org/2000/svg">
<path d="M7.10099 8.592C7.17566 8.368 7.27366 8.20467 7.39499 8.102C7.51633 7.99933 7.67499 7.948 7.87099 7.948C8.10433 7.948 8.28633 7.99933 8.41699 8.102C8.55699 8.20467 8.62699 8.33067 8.62699 8.48C8.62699 8.51733 8.60366 8.59667 8.55699 8.718L11.875 18H10.601L9.67699 15.326H5.91099L4.98699 18H3.72699L7.10099 8.592ZM9.39699 14.346L7.81499 9.614L6.23299 14.346H9.39699ZM15.432 21.052C15.0493 21.052 14.6713 21.0053 14.298 20.912C13.9246 20.828 13.5933 20.716 13.304 20.576L13.668 19.666C13.9013 19.7873 14.172 19.8807 14.48 19.946C14.788 20.0207 15.1053 20.058 15.432 20.058C16.244 20.058 16.8226 19.8527 17.168 19.442C17.5133 19.0407 17.686 18.4247 17.686 17.594V16.894C17.4433 17.2393 17.14 17.51 16.776 17.706C16.412 17.902 15.9966 18 15.53 18C14.5406 18 13.7893 17.6827 13.276 17.048C12.7626 16.404 12.506 15.5407 12.506 14.458C12.506 13.4313 12.7673 12.61 13.29 11.994C13.8126 11.378 14.5453 11.07 15.488 11.07C16.0013 11.07 16.44 11.1727 16.804 11.378C17.1773 11.5833 17.504 11.8773 17.784 12.26C17.7933 12.008 17.8353 11.7793 17.91 11.574C17.994 11.3593 18.092 11.1913 18.204 11.07L19.198 11.462C19.086 11.6673 19.002 11.8773 18.946 12.092C18.89 12.2973 18.862 12.5913 18.862 12.974V17.636C18.862 18.7467 18.554 19.5913 17.938 20.17C17.3313 20.758 16.496 21.052 15.432 21.052ZM15.656 17.02C16.076 17.02 16.44 16.9127 16.748 16.698C17.056 16.4833 17.2893 16.2033 17.448 15.858C17.616 15.5033 17.7 15.1347 17.7 14.752V14.29C17.7 13.8887 17.616 13.52 17.448 13.184C17.2893 12.8387 17.0513 12.5633 16.734 12.358C16.426 12.1527 16.0573 12.05 15.628 12.05C14.9746 12.05 14.4893 12.274 14.172 12.722C13.8546 13.17 13.696 13.7487 13.696 14.458C13.696 15.242 13.85 15.8673 14.158 16.334C14.466 16.7913 14.9653 17.02 15.656 17.02Z" fill="#333333"/>
</svg>
