<svg width="24" height="24" viewBox="0 0 24 24" fill="none" xmlns="http://www.w3.org/2000/svg">
<path d="M9.45605 7.82129L8.15723 10.6445L6.28418 14.7119H10.4062L9.8252 10.5967L9.45605 7.82129ZM8.59473 7.21973H10.4883L12.04 18H10.8574L10.4951 15.3887H5.96973L4.77344 18H3.60449L8.59473 7.21973ZM14.9658 12.6133C14.9658 12.8594 15.0068 13.0645 15.0889 13.2285C15.1755 13.388 15.2871 13.5179 15.4238 13.6182C15.5651 13.7139 15.7246 13.7822 15.9023 13.8232C16.0846 13.8597 16.2738 13.8779 16.4697 13.8779C17.1807 13.887 17.7048 13.748 18.042 13.4609C18.3838 13.1738 18.5547 12.7318 18.5547 12.1348C18.5547 11.9251 18.5114 11.7406 18.4248 11.5811C18.3382 11.4215 18.222 11.2871 18.0762 11.1777C17.9349 11.0684 17.7708 10.9863 17.584 10.9316C17.3971 10.8724 17.2035 10.8428 17.0029 10.8428C16.6611 10.8428 16.3626 10.8861 16.1074 10.9727C15.8522 11.0547 15.6403 11.1732 15.4717 11.3281C15.3031 11.4785 15.1755 11.6631 15.0889 11.8818C15.0068 12.1006 14.9658 12.3444 14.9658 12.6133ZM13.6807 18.6768C13.6807 19.0596 13.8561 19.3353 14.207 19.5039C14.5579 19.6725 15.1048 19.7568 15.8477 19.7568C16.7227 19.7568 17.3857 19.6452 17.8369 19.4219C18.2881 19.1986 18.5137 18.8659 18.5137 18.4238C18.5137 18.2096 18.4567 18.0342 18.3428 17.8975C18.2334 17.7562 18.0944 17.6423 17.9258 17.5557C17.7572 17.4691 17.5726 17.4053 17.3721 17.3643C17.1715 17.3187 16.9824 17.2845 16.8047 17.2617L14.9932 17.0361C14.542 17.3096 14.2093 17.5807 13.9951 17.8496C13.7855 18.1139 13.6807 18.3896 13.6807 18.6768ZM19.5117 12.1621C19.5117 12.4766 19.4525 12.7751 19.334 13.0576C19.2155 13.3356 19.04 13.5885 18.8076 13.8164C18.5798 14.0397 18.2995 14.2334 17.9668 14.3975C17.6341 14.557 17.2559 14.6777 16.832 14.7598L14.9658 15.1357C14.4736 15.2314 14.2344 15.4069 14.248 15.6621C14.2435 15.7806 14.2822 15.8809 14.3643 15.9629C14.4463 16.0449 14.5557 16.1133 14.6924 16.168C14.8337 16.2227 14.9932 16.266 15.1709 16.2979C15.3532 16.3298 15.54 16.3571 15.7314 16.3799C15.9229 16.4027 16.112 16.4232 16.2988 16.4414C16.4857 16.4596 16.6566 16.4801 16.8115 16.5029C17.2354 16.5667 17.6068 16.6419 17.9258 16.7285C18.2493 16.8151 18.5182 16.9336 18.7324 17.084C18.9512 17.2298 19.113 17.4144 19.2178 17.6377C19.3271 17.8564 19.3818 18.1299 19.3818 18.458C19.3818 18.7816 19.318 19.0596 19.1904 19.292C19.0674 19.5244 18.901 19.7227 18.6914 19.8867C18.4863 20.0508 18.2516 20.1829 17.9873 20.2832C17.723 20.3835 17.4518 20.4609 17.1738 20.5156C16.8958 20.5749 16.6201 20.6136 16.3467 20.6318C16.0778 20.6501 15.8363 20.6592 15.6221 20.6592C15.221 20.6592 14.8451 20.6159 14.4941 20.5293C14.1478 20.4473 13.8447 20.3288 13.585 20.1738C13.3298 20.0234 13.127 19.8389 12.9766 19.6201C12.8307 19.4059 12.7578 19.1644 12.7578 18.8955C12.7806 18.5674 12.8558 18.2894 12.9834 18.0615C13.1156 17.8337 13.2637 17.64 13.4277 17.4805C13.5098 17.3984 13.6077 17.3187 13.7217 17.2412C13.8356 17.1637 13.945 17.0977 14.0498 17.043C14.1546 16.9837 14.2412 16.9382 14.3096 16.9062C14.3825 16.8698 14.4167 16.8538 14.4121 16.8584C14.3483 16.8311 14.2868 16.8037 14.2275 16.7764C14.1729 16.749 14.1182 16.7194 14.0635 16.6875C13.9723 16.6374 13.8812 16.5804 13.79 16.5166C13.7035 16.4528 13.6396 16.3867 13.5986 16.3184C13.4938 16.1361 13.4414 15.9059 13.4414 15.6279C13.4323 15.0537 13.8926 14.6618 14.8223 14.4521L15.5811 14.2744C15.3395 14.2334 15.1208 14.1673 14.9248 14.0762C14.7288 13.985 14.5579 13.8711 14.4121 13.7344C14.2708 13.5931 14.1615 13.429 14.084 13.2422C14.0065 13.0553 13.9678 12.8434 13.9678 12.6064C13.9678 12.2327 14.0361 11.8887 14.1729 11.5742C14.3096 11.2552 14.5033 10.9818 14.7539 10.7539C15.0091 10.5215 15.3145 10.3415 15.6699 10.2139C16.0254 10.0817 16.4219 10.0156 16.8594 10.0156C17.2103 10.0156 17.527 10.0589 17.8096 10.1455C18.0967 10.2321 18.3861 10.3779 18.6777 10.583C18.9102 10.4691 19.113 10.3757 19.2861 10.3027C19.4639 10.2253 19.6302 10.1615 19.7852 10.1113C19.9447 10.0612 20.0996 10.0247 20.25 10.002C20.4004 9.97917 20.5553 9.96094 20.7148 9.94727L20.7285 10.9727H18.9854C19.0856 11.123 19.1699 11.2575 19.2383 11.376C19.3066 11.4899 19.3613 11.5947 19.4023 11.6904C19.4434 11.7816 19.4707 11.8659 19.4844 11.9434C19.5026 12.0163 19.5117 12.0892 19.5117 12.1621Z" fill="#333333"/>
</svg>
