<svg width="24" height="24" viewBox="0 0 24 24" fill="none" xmlns="http://www.w3.org/2000/svg">
<path d="M2.18262 18.5293C2.15527 18.5111 2.11426 18.4655 2.05957 18.3926C1.99577 18.3288 1.94564 18.2604 1.90918 18.1875C1.87272 18.1146 1.85905 18.0508 1.86816 17.9961C1.86816 17.9414 1.91829 17.9141 2.01855 17.9141C2.20996 18.1784 2.47884 18.2786 2.8252 18.2148C3.17155 18.151 3.54525 17.9915 3.94629 17.7363C4.34733 17.4902 4.75293 17.1758 5.16309 16.793C5.58236 16.4193 5.95605 16.0456 6.28418 15.6719C6.62142 15.2982 6.89486 14.9609 7.10449 14.6602C7.32324 14.3594 7.43262 14.1589 7.43262 14.0586C7.43262 14.0312 7.39616 13.9902 7.32324 13.9355C7.25033 13.8717 7.16374 13.8079 7.06348 13.7441C6.97233 13.6803 6.88574 13.6211 6.80371 13.5664C6.72168 13.5117 6.67155 13.4707 6.65332 13.4434C6.68066 13.3522 6.76725 13.2839 6.91309 13.2383C7.05892 13.1836 7.22298 13.138 7.40527 13.1016C7.58757 13.056 7.7653 13.015 7.93848 12.9785C8.12077 12.9329 8.25749 12.8783 8.34863 12.8145C8.83171 12.1126 9.25098 11.4837 9.60645 10.9277C9.97103 10.3626 10.3128 9.8112 10.6318 9.27344C10.96 8.72656 11.2926 8.16602 11.6299 7.5918C11.9671 7.01758 12.3545 6.37044 12.792 5.65039C12.9105 5.44987 13.0062 5.38151 13.0791 5.44531C13.152 5.50911 13.2067 5.66406 13.2432 5.91016C13.2796 6.15625 13.3024 6.4707 13.3115 6.85352C13.3206 7.22721 13.3206 7.63281 13.3115 8.07031C13.3024 8.50781 13.2842 8.95443 13.2568 9.41016C13.2386 9.86589 13.2158 10.2852 13.1885 10.668C13.1702 11.0508 13.152 11.3835 13.1338 11.666C13.1247 11.9395 13.1247 12.1172 13.1338 12.1992C13.1702 12.6641 13.193 13.0697 13.2021 13.416C13.2204 13.7533 13.266 14.0677 13.3389 14.3594C13.4118 14.6419 13.5348 14.9199 13.708 15.1934C13.8903 15.4577 14.1637 15.7493 14.5283 16.0684C14.2275 16.1686 13.9769 16.1595 13.7764 16.041C13.585 15.9316 13.4255 15.763 13.2979 15.5352C13.1794 15.2982 13.0791 15.0293 12.9971 14.7285C12.9242 14.4186 12.8512 14.1224 12.7783 13.8398C12.7145 13.5482 12.637 13.2975 12.5459 13.0879C12.4639 12.8691 12.3499 12.7279 12.2041 12.6641C12.195 12.6641 12.1676 12.6641 12.1221 12.6641C12.0856 12.6549 12.04 12.6504 11.9854 12.6504C11.9398 12.6504 11.8942 12.6549 11.8486 12.6641C11.8031 12.6641 11.7712 12.6641 11.7529 12.6641C11.6709 12.6823 11.516 12.7188 11.2881 12.7734C11.0693 12.8281 10.8278 12.8874 10.5635 12.9512C10.2992 13.015 10.0439 13.0788 9.79785 13.1426C9.56087 13.2064 9.3877 13.252 9.27832 13.2793C9.05046 13.3431 8.80892 13.4889 8.55371 13.7168C8.30762 13.9447 8.04329 14.2227 7.76074 14.5508C7.4873 14.8698 7.2002 15.2207 6.89941 15.6035C6.60775 15.9863 6.30697 16.36 5.99707 16.7246C5.68717 17.0892 5.37272 17.4264 5.05371 17.7363C4.7347 18.0462 4.41569 18.2969 4.09668 18.4883C3.77767 18.6797 3.45866 18.7845 3.13965 18.8027C2.81152 18.8301 2.49251 18.7389 2.18262 18.5293ZM9.59277 12.5137C9.611 12.5228 9.65658 12.5273 9.72949 12.5273C9.81152 12.5273 9.86621 12.5228 9.89355 12.5137C10.0576 12.4863 10.2627 12.4544 10.5088 12.418C10.7549 12.3815 11.001 12.3405 11.2471 12.2949C11.4932 12.2402 11.721 12.181 11.9307 12.1172C12.1403 12.0443 12.2861 11.9668 12.3682 11.8848C12.3682 11.8848 12.3818 11.7891 12.4092 11.5977C12.4365 11.4062 12.4684 11.1647 12.5049 10.873C12.5413 10.5723 12.5778 10.2441 12.6143 9.88867C12.6598 9.52409 12.7008 9.16862 12.7373 8.82227C12.7738 8.47591 12.8011 8.1569 12.8193 7.86523C12.8467 7.56445 12.8649 7.33203 12.874 7.16797C12.7738 7.1224 12.6416 7.24089 12.4775 7.52344C12.3135 7.79688 12.0993 8.17513 11.835 8.6582C11.5798 9.14128 11.2653 9.70638 10.8916 10.3535C10.527 10.9915 10.0941 11.6569 9.59277 12.3496V12.5137ZM12.9697 19.8555C12.6872 19.7552 12.4593 19.6048 12.2861 19.4043C12.1038 19.2038 11.9671 18.985 11.876 18.748C11.7757 18.5202 11.7165 18.2878 11.6982 18.0508C11.6709 17.8138 11.6755 17.6042 11.7119 17.4219C11.7393 17.2396 11.7939 17.0983 11.876 16.998C11.9489 16.9069 12.0355 16.8841 12.1357 16.9297C12.1266 17.7227 12.2223 18.3197 12.4229 18.7207C12.6143 19.1309 12.8695 19.3861 13.1885 19.4863C13.4984 19.5957 13.8538 19.5729 14.2549 19.418C14.6468 19.263 15.0433 19.0215 15.4443 18.6934C15.8545 18.3743 16.2419 17.987 16.6064 17.5312C16.9801 17.0846 17.2946 16.6152 17.5498 16.123C17.805 15.64 17.9873 15.1615 18.0967 14.6875C18.2061 14.2044 18.2015 13.7669 18.083 13.375C17.2627 13.9674 16.6247 14.3411 16.1689 14.4961C15.7132 14.651 15.3942 14.6602 15.2119 14.5234C15.0387 14.3776 14.984 14.1224 15.0479 13.7578C15.1117 13.3932 15.2484 12.9922 15.458 12.5547C15.6676 12.1172 15.932 11.6797 16.251 11.2422C16.57 10.7956 16.8981 10.4219 17.2354 10.1211C17.5726 9.82031 17.8962 9.62891 18.2061 9.54688C18.5251 9.46484 18.7894 9.56055 18.999 9.83398C19.2087 10.1165 19.3408 10.4993 19.3955 10.9824C19.4502 11.4564 19.4365 11.985 19.3545 12.5684C19.2725 13.1517 19.1266 13.7624 18.917 14.4004C18.7165 15.0384 18.4658 15.6582 18.165 16.2598C17.8643 16.8704 17.5179 17.4355 17.126 17.9551C16.7432 18.4746 16.3285 18.9076 15.8818 19.2539C15.4352 19.6003 14.9658 19.8327 14.4736 19.9512C13.9814 20.0788 13.4801 20.0469 12.9697 19.8555ZM15.7588 13.0742C15.7497 13.1016 15.7406 13.1517 15.7314 13.2246C15.7314 13.2975 15.7314 13.375 15.7314 13.457C15.7314 13.5391 15.7314 13.6165 15.7314 13.6895C15.7406 13.7624 15.7497 13.8125 15.7588 13.8398C16.0505 13.9128 16.3512 13.8444 16.6611 13.6348C16.971 13.4251 17.2536 13.1562 17.5088 12.8281C17.7731 12.5 17.9919 12.1536 18.165 11.7891C18.3473 11.4245 18.4567 11.1191 18.4932 10.873C18.5387 10.627 18.4932 10.4902 18.3564 10.4629C18.2197 10.4264 17.9691 10.5723 17.6045 10.9004C17.4951 11.0007 17.3493 11.1374 17.167 11.3105C16.9847 11.4837 16.7979 11.6706 16.6064 11.8711C16.4242 12.0716 16.251 12.2812 16.0869 12.5C15.932 12.7096 15.8226 12.901 15.7588 13.0742Z" fill="#333333"/>
</svg>
