<svg width="24" height="24" viewBox="0 0 24 24" fill="none" xmlns="http://www.w3.org/2000/svg">
<path d="M6.32715 17H3.56543L3.51074 16.2822L4.2627 16.1455L8.45312 7.75098H10.0869L11.8438 16.1523L12.5684 16.2822L12.4521 17H8.91797L8.86328 16.2822L9.7998 16.1523L9.43066 14.293H6.44336L5.53418 16.1592L6.44336 16.2822L6.32715 17ZM8.4873 10.1162L6.83984 13.4795H9.2666L8.59668 10.1162H8.4873ZM13.0264 18.2783C13.7646 18.5791 14.4232 18.8024 15.002 18.9482C15.5853 19.0941 16.0752 19.167 16.4717 19.167C16.7406 18.93 16.973 18.5768 17.1689 18.1074C17.3695 17.638 17.5199 17.0661 17.6201 16.3916L17.7432 15.4756C17.3968 16.0133 16.9867 16.4281 16.5127 16.7197C16.0433 17.0068 15.5557 17.1504 15.0498 17.1504C14.3389 17.1504 13.8467 16.9225 13.5732 16.4668C13.3044 16.0065 13.2314 15.3343 13.3545 14.4502L13.5322 13.165C13.6963 12.0303 14.1383 11.1257 14.8584 10.4512C15.5785 9.77214 16.4717 9.43262 17.5381 9.43262C17.9756 9.43262 18.4495 9.48047 18.96 9.57617C19.4749 9.66732 19.9876 9.7972 20.498 9.96582L19.6367 16.1182C19.459 17.3213 19.0124 18.2897 18.2969 19.0234C17.5859 19.7572 16.7269 20.124 15.7197 20.124C15.264 20.124 14.7741 20.0693 14.25 19.96C13.7259 19.8551 13.2223 19.7048 12.7393 19.5088L13.0264 18.2783ZM15.4258 13.8486C15.3164 14.6462 15.2913 15.25 15.3506 15.6602C15.4144 16.0703 15.5898 16.2754 15.877 16.2754C16.1732 16.2754 16.5013 16.0999 16.8613 15.749C17.2214 15.3936 17.57 14.915 17.9072 14.3135L18.4678 10.2871C18.3311 10.2461 18.1647 10.2119 17.9688 10.1846C17.7773 10.1572 17.5882 10.1436 17.4014 10.1436C17.2191 10.1436 17.0254 10.1663 16.8203 10.2119C16.6152 10.2575 16.4329 10.3145 16.2734 10.3828C16.1276 10.6927 15.9909 11.055 15.8633 11.4697C15.7402 11.8844 15.6354 12.3789 15.5488 12.9531L15.4258 13.8486Z" fill="#888888"/>
</svg>
