<svg width="24" height="24" viewBox="0 0 24 24" fill="none" xmlns="http://www.w3.org/2000/svg">
<path d="M4.10449 16.3301L4.84277 16.1318L7.85059 7.75098H8.86914L11.8018 16.1318L12.54 16.3301L12.4033 17H9.77148L9.63477 16.3301L10.5098 16.1318L9.86719 14.2246H6.51074L5.85449 16.1318L6.72949 16.3301L6.59277 17H4.24121L4.10449 16.3301ZM6.81836 13.3428H9.56641L8.24023 9.45312H8.17188L6.81836 13.3428ZM18.1182 10.3145L18.0908 10.3828C18.2868 10.515 18.4577 10.7132 18.6035 10.9775C18.7493 11.2419 18.8223 11.5176 18.8223 11.8047V11.9756C18.8223 12.7412 18.5716 13.3519 18.0703 13.8076C17.5736 14.2588 16.9128 14.4844 16.0879 14.4844C15.7917 14.4844 15.5205 14.457 15.2744 14.4023C15.0283 14.6302 14.8278 14.8467 14.6729 15.0518C14.5225 15.2523 14.4473 15.4141 14.4473 15.5371C14.4473 15.6556 14.4883 15.7467 14.5703 15.8105C14.6569 15.8743 14.7777 15.9062 14.9326 15.9062H16.4639C17.5485 15.9062 18.3597 16.0635 18.8975 16.3779C19.4398 16.6924 19.7109 17.1868 19.7109 17.8613C19.7109 18.5996 19.3942 19.1602 18.7607 19.543C18.1318 19.9303 17.2363 20.124 16.0742 20.124C15.0625 20.124 14.3151 20.0169 13.832 19.8027C13.3535 19.5885 13.1143 19.2445 13.1143 18.7705C13.1143 18.4652 13.2373 18.1576 13.4834 17.8477C13.734 17.5378 14.0872 17.2347 14.543 16.9385C14.2148 16.8747 13.9574 16.7562 13.7705 16.583C13.5837 16.4098 13.4902 16.182 13.4902 15.8994C13.4902 15.6305 13.5973 15.348 13.8115 15.0518C14.0303 14.7555 14.3174 14.473 14.6729 14.2041C14.2809 14.0173 13.9847 13.7643 13.7842 13.4453C13.5882 13.1263 13.4902 12.7845 13.4902 12.4199V12.2422C13.4902 11.349 13.7386 10.6585 14.2354 10.1709C14.7321 9.67871 15.3952 9.43262 16.2246 9.43262C16.3568 9.43262 16.5231 9.44857 16.7236 9.48047C16.9287 9.50781 17.111 9.54199 17.2705 9.58301H19.417L19.54 10.3145H18.1182ZM15.2949 17C14.9759 17.237 14.7139 17.4854 14.5088 17.7451C14.3083 18.0049 14.208 18.2464 14.208 18.4697C14.208 18.7933 14.3743 19.012 14.707 19.126C15.0443 19.2445 15.6367 19.3037 16.4844 19.3037C16.8353 19.3037 17.1885 19.2741 17.5439 19.2148C17.904 19.1602 18.223 19.0736 18.501 18.9551C18.5785 18.8457 18.64 18.7135 18.6855 18.5586C18.7311 18.4082 18.7539 18.2555 18.7539 18.1006C18.7539 17.6859 18.5876 17.3988 18.2549 17.2393C17.9268 17.0798 17.3571 17 16.5459 17H15.2949ZM17.5918 11.7773C17.5918 11.2988 17.4414 10.9251 17.1406 10.6562C16.8398 10.3874 16.4798 10.2529 16.0605 10.2529C15.8509 10.2529 15.6527 10.2734 15.4658 10.3145C15.279 10.3509 15.1217 10.3988 14.9941 10.458C14.8984 10.7041 14.8278 10.9548 14.7822 11.21C14.7412 11.4652 14.7207 11.6999 14.7207 11.9141V12.1738C14.7207 12.6159 14.8825 12.9759 15.2061 13.2539C15.5296 13.5273 15.8783 13.6641 16.252 13.6641C16.4707 13.6641 16.6667 13.6481 16.8398 13.6162C17.0176 13.5798 17.1771 13.5273 17.3184 13.459C17.3958 13.3132 17.4596 13.1149 17.5098 12.8643C17.5645 12.609 17.5918 12.3333 17.5918 12.0371V11.7773Z" fill="#333333"/>
</svg>
