<svg width="24" height="24" viewBox="0 0 24 24" fill="none" xmlns="http://www.w3.org/2000/svg">
<path d="M2.18491 17V16.86H2.71691C2.87558 16.86 3.02491 16.8367 3.16491 16.79C3.31425 16.7433 3.44958 16.65 3.57091 16.51C3.69225 16.37 3.79491 16.1647 3.87891 15.894L6.70691 7.004H8.82091L11.9429 15.922C12.0269 16.146 12.1249 16.328 12.2369 16.468C12.3489 16.5987 12.4749 16.6967 12.6149 16.762C12.7642 16.8273 12.9229 16.86 13.0909 16.86H13.1189V17H8.06491V16.86H8.62491C8.83958 16.86 8.98891 16.8227 9.07291 16.748C9.15691 16.664 9.19891 16.552 9.19891 16.412C9.19891 16.3467 9.18958 16.2813 9.17091 16.216C9.16158 16.1413 9.14758 16.0667 9.12891 15.992C9.11025 15.908 9.08691 15.824 9.05891 15.74L8.30291 13.332H4.84491L4.15891 15.488C4.12158 15.6093 4.08425 15.726 4.04691 15.838C4.01891 15.9407 3.99558 16.0387 3.97691 16.132C3.95825 16.2253 3.94891 16.314 3.94891 16.398C3.94891 16.5473 3.99091 16.664 4.07491 16.748C4.15891 16.8227 4.30358 16.86 4.50891 16.86H5.50291V17H2.18491ZM4.88691 13.192H8.26091L7.28091 10.112C7.22491 9.93467 7.15491 9.71067 7.07091 9.44C6.99625 9.16933 6.91691 8.88933 6.83291 8.6C6.74891 8.30133 6.66958 8.026 6.59491 7.774C6.54825 7.942 6.49691 8.124 6.44091 8.32C6.38491 8.50667 6.32425 8.698 6.25891 8.894C6.19358 9.09 6.12825 9.29067 6.06291 9.496C6.00691 9.692 5.94625 9.888 5.88091 10.084L4.88691 13.192ZM16.1927 20.262C15.0913 20.262 14.2233 20.1267 13.5887 19.856C12.9633 19.5853 12.6507 19.198 12.6507 18.694C12.6507 18.4233 12.7487 18.19 12.9447 17.994C13.15 17.8073 13.4533 17.658 13.8547 17.546C14.2653 17.4433 14.7833 17.3827 15.4087 17.364C14.746 17.308 14.2513 17.126 13.9247 16.818C13.598 16.51 13.4347 16.1693 13.4347 15.796C13.4347 15.4413 13.5747 15.124 13.8547 14.844C14.144 14.5547 14.564 14.34 15.1147 14.2C14.5173 14.032 14.0553 13.7427 13.7287 13.332C13.402 12.9213 13.2387 12.4033 13.2387 11.778C13.2387 11.0033 13.5 10.3967 14.0227 9.958C14.5547 9.51 15.3853 9.286 16.5147 9.286C16.9253 9.286 17.3033 9.33267 17.6487 9.426C17.994 9.51 18.2973 9.63133 18.5587 9.79C18.6427 9.58467 18.75 9.40733 18.8807 9.258C19.0207 9.10867 19.1793 8.992 19.3567 8.908C19.5433 8.824 19.7487 8.782 19.9727 8.782C20.2807 8.782 20.5187 8.866 20.6867 9.034C20.864 9.202 20.9527 9.42133 20.9527 9.692C20.9527 9.98133 20.8547 10.2053 20.6587 10.364C20.4627 10.5133 20.1967 10.588 19.8607 10.588C19.8607 10.308 19.8 10.084 19.6787 9.916C19.5667 9.73867 19.4173 9.65 19.2307 9.65C19.1373 9.65 19.0487 9.67333 18.9647 9.72C18.8807 9.75733 18.792 9.81333 18.6987 9.888C19.0347 10.1213 19.2913 10.4153 19.4687 10.77C19.6553 11.1153 19.7487 11.5027 19.7487 11.932C19.7487 12.6413 19.4873 13.2293 18.9647 13.696C18.4513 14.1533 17.6347 14.382 16.5147 14.382C16.2907 14.382 16.076 14.3727 15.8707 14.354C15.6653 14.326 15.4693 14.2887 15.2827 14.242C15.1893 14.3073 15.1193 14.382 15.0727 14.466C15.0353 14.5407 15.0167 14.6293 15.0167 14.732C15.0167 14.8813 15.0867 15.0213 15.2267 15.152C15.3667 15.2733 15.656 15.334 16.0947 15.334H17.5507C18.2227 15.334 18.778 15.418 19.2167 15.586C19.6553 15.7447 19.982 15.9873 20.1967 16.314C20.4113 16.6313 20.5187 17.0327 20.5187 17.518C20.5187 18.3673 20.164 19.0347 19.4547 19.52C18.7453 20.0147 17.658 20.262 16.1927 20.262ZM16.5147 20.122C16.944 20.122 17.308 20.0613 17.6067 19.94C17.9053 19.828 18.1293 19.6553 18.2787 19.422C18.4373 19.198 18.5167 18.918 18.5167 18.582C18.5167 18.2087 18.414 17.9333 18.2087 17.756C18.0033 17.588 17.686 17.504 17.2567 17.504H15.7307C15.516 17.504 15.3293 17.5553 15.1707 17.658C15.012 17.7607 14.8907 17.9007 14.8067 18.078C14.732 18.2647 14.6947 18.4793 14.6947 18.722C14.6947 19.03 14.7647 19.2867 14.9047 19.492C15.0447 19.6973 15.25 19.8513 15.5207 19.954C15.7913 20.066 16.1227 20.122 16.5147 20.122ZM16.4867 14.242C16.7107 14.242 16.888 14.1673 17.0187 14.018C17.1493 13.8687 17.2427 13.626 17.2987 13.29C17.3547 12.9447 17.3827 12.4873 17.3827 11.918C17.3827 11.302 17.3547 10.812 17.2987 10.448C17.2427 10.084 17.1493 9.82267 17.0187 9.664C16.888 9.50533 16.7107 9.426 16.4867 9.426C16.2627 9.426 16.0853 9.50533 15.9547 9.664C15.824 9.82267 15.726 10.0887 15.6607 10.462C15.6047 10.826 15.5767 11.316 15.5767 11.932C15.5767 12.5013 15.6047 12.954 15.6607 13.29C15.726 13.626 15.824 13.8687 15.9547 14.018C16.0853 14.1673 16.2627 14.242 16.4867 14.242Z" fill="#888888"/>
</svg>
