<svg width="24" height="24" viewBox="0 0 24 24" fill="none" xmlns="http://www.w3.org/2000/svg">
<path d="M4.5503 17L9.1003 6.976H11.4243L11.7883 17H9.8843L9.8703 14.508H7.6023L6.5383 17H4.5503ZM8.2743 12.898H9.8983V9.986C9.8983 9.75267 9.8983 9.51933 9.8983 9.286C9.8983 9.05267 9.90763 8.81933 9.9263 8.586H9.8843C9.83763 8.81 9.7723 9.02933 9.6883 9.244C9.61363 9.45867 9.52963 9.68733 9.4363 9.93L8.2743 12.898ZM14.5407 20.36C14.1021 20.36 13.7054 20.3133 13.3507 20.22C13.0054 20.136 12.7021 20.024 12.4407 19.884V18.288C12.6087 18.3907 12.8047 18.484 13.0287 18.568C13.2527 18.6613 13.4907 18.7313 13.7427 18.778C14.0041 18.834 14.2561 18.862 14.4987 18.862C14.9281 18.862 15.2734 18.7407 15.5347 18.498C15.7961 18.2553 15.9781 17.9053 16.0807 17.448L16.1647 17.112C16.1834 17.028 16.2067 16.9347 16.2347 16.832C16.2627 16.72 16.2954 16.6033 16.3327 16.482C16.3701 16.3607 16.4027 16.244 16.4307 16.132H16.4027C16.2441 16.3467 16.0761 16.5287 15.8987 16.678C15.7214 16.8273 15.5301 16.9393 15.3247 17.014C15.1287 17.098 14.9094 17.14 14.6667 17.14C14.3401 17.14 14.0507 17.0513 13.7987 16.874C13.5467 16.6967 13.3507 16.4353 13.2107 16.09C13.0707 15.7447 13.0007 15.3153 13.0007 14.802C13.0007 14.3727 13.0427 13.906 13.1267 13.402C13.2201 12.898 13.3507 12.3987 13.5187 11.904C13.6961 11.4093 13.9154 10.9613 14.1767 10.56C14.4381 10.1493 14.7367 9.82733 15.0727 9.594C15.4087 9.35133 15.7914 9.23 16.2207 9.23C16.4914 9.23 16.7201 9.272 16.9067 9.356C17.0934 9.44 17.2521 9.56133 17.3827 9.72C17.5134 9.87867 17.6254 10.0793 17.7187 10.322H17.7467L18.0827 9.37H19.5807L17.8867 17.378C17.7374 18.0967 17.5087 18.6753 17.2007 19.114C16.9021 19.5527 16.5287 19.87 16.0807 20.066C15.6421 20.262 15.1287 20.36 14.5407 20.36ZM15.5067 15.614C15.6934 15.614 15.8614 15.5487 16.0107 15.418C16.1694 15.278 16.3094 15.096 16.4307 14.872C16.5614 14.648 16.6734 14.4007 16.7667 14.13C16.8694 13.85 16.9534 13.5653 17.0187 13.276C17.0841 12.9773 17.1307 12.6927 17.1587 12.422C17.1961 12.142 17.2147 11.8947 17.2147 11.68C17.2147 11.4 17.1541 11.176 17.0327 11.008C16.9114 10.84 16.7387 10.756 16.5147 10.756C16.3094 10.756 16.1181 10.8447 15.9407 11.022C15.7727 11.1993 15.6187 11.4373 15.4787 11.736C15.3387 12.0253 15.2221 12.3427 15.1287 12.688C15.0354 13.024 14.9654 13.36 14.9187 13.696C14.8721 14.0227 14.8487 14.312 14.8487 14.564C14.8487 14.9093 14.9047 15.1707 15.0167 15.348C15.1287 15.5253 15.2921 15.614 15.5067 15.614Z" fill="#888888"/>
</svg>
