<svg width="24" height="24" viewBox="0 0 24 24" fill="none" xmlns="http://www.w3.org/2000/svg">
<path d="M10.3382 17L9.56821 14.354H6.15221L5.38221 17H3.36621L6.72621 6.962H8.98021L12.3542 17H10.3382ZM8.32221 10.238C8.28488 10.0887 8.23354 9.91133 8.16821 9.706C8.11221 9.49133 8.05621 9.272 8.00021 9.048C7.95354 8.824 7.90688 8.614 7.86021 8.418C7.82288 8.642 7.77621 8.866 7.72021 9.09C7.66421 9.30467 7.60821 9.51 7.55221 9.706C7.50554 9.902 7.45888 10.0793 7.41221 10.238L6.62821 12.814H9.12021L8.32221 10.238ZM15.7506 9.272C16.2173 9.272 16.6233 9.36533 16.9686 9.552C17.314 9.73867 17.6033 10.0187 17.8366 10.392H17.8926L18.0606 9.412H19.6286V17.056C19.6286 17.7747 19.498 18.3767 19.2366 18.862C18.9753 19.3567 18.5833 19.73 18.0606 19.982C17.5473 20.234 16.894 20.36 16.1006 20.36C15.5686 20.36 15.0833 20.3227 14.6446 20.248C14.2153 20.1827 13.8046 20.066 13.4126 19.898V18.442C13.6833 18.5633 13.9586 18.666 14.2386 18.75C14.528 18.8433 14.8266 18.9133 15.1346 18.96C15.4426 19.0067 15.7693 19.03 16.1146 19.03C16.656 19.03 17.0666 18.8667 17.3466 18.54C17.636 18.2133 17.7806 17.7467 17.7806 17.14V16.944C17.7806 16.804 17.7853 16.6407 17.7946 16.454C17.8133 16.2673 17.8273 16.118 17.8366 16.006H17.7806C17.5566 16.398 17.2766 16.6873 16.9406 16.874C16.6046 17.0513 16.1986 17.14 15.7226 17.14C14.8733 17.14 14.2013 16.7947 13.7066 16.104C13.2213 15.4133 12.9786 14.452 12.9786 13.22C12.9786 12.3893 13.0906 11.68 13.3146 11.092C13.5386 10.504 13.856 10.056 14.2666 9.748C14.6866 9.43067 15.1813 9.272 15.7506 9.272ZM16.3106 10.714C15.9933 10.714 15.7273 10.812 15.5126 11.008C15.3073 11.1947 15.1486 11.4747 15.0366 11.848C14.9246 12.2213 14.8686 12.688 14.8686 13.248C14.8686 14.0693 14.99 14.69 15.2326 15.11C15.4753 15.53 15.8393 15.74 16.3246 15.74C16.6046 15.74 16.8426 15.7027 17.0386 15.628C17.2346 15.544 17.3933 15.4133 17.5146 15.236C17.636 15.0493 17.7293 14.816 17.7946 14.536C17.86 14.2467 17.8926 13.9013 17.8926 13.5V13.234C17.8926 12.6273 17.8366 12.142 17.7246 11.778C17.622 11.4047 17.454 11.134 17.2206 10.966C16.9873 10.798 16.684 10.714 16.3106 10.714Z" fill="#888888"/>
</svg>
