<svg width="24" height="24" viewBox="0 0 24 24" fill="none" xmlns="http://www.w3.org/2000/svg">
<path d="M10.0584 17L9.26038 14.102H6.48838L5.70438 17H4.19238L7.02038 6.99H8.70038L11.5704 17H10.0584ZM8.19638 9.818C8.15905 9.65 8.11705 9.47267 8.07038 9.286C8.03305 9.09933 7.99572 8.91267 7.95838 8.726C7.92105 8.53933 7.88838 8.376 7.86038 8.236C7.84172 8.39467 7.81372 8.56733 7.77638 8.754C7.73905 8.93133 7.70172 9.10867 7.66438 9.286C7.62705 9.46333 7.58505 9.636 7.53838 9.804L6.78238 12.814H8.96638L8.19638 9.818ZM14.6552 9.3C15.0472 9.3 15.3925 9.39333 15.6912 9.58C15.9992 9.75733 16.2652 10.042 16.4892 10.434H16.5592L16.7132 9.44H17.8612V16.986C17.8612 17.7047 17.7492 18.316 17.5252 18.82C17.3105 19.324 16.9699 19.7067 16.5032 19.968C16.0459 20.2293 15.4579 20.36 14.7392 20.36C14.3192 20.36 13.9365 20.3227 13.5912 20.248C13.2459 20.1733 12.9192 20.0567 12.6112 19.898V18.638C12.8445 18.7593 13.0779 18.862 13.3112 18.946C13.5445 19.03 13.7779 19.0907 14.0112 19.128C14.2539 19.1653 14.4965 19.184 14.7392 19.184C15.3085 19.184 15.7425 19.03 16.0412 18.722C16.3399 18.4233 16.4892 17.9427 16.4892 17.28V17.056C16.4892 16.916 16.4939 16.748 16.5032 16.552C16.5125 16.3467 16.5265 16.1553 16.5452 15.978H16.4892C16.2652 16.37 15.9992 16.664 15.6912 16.86C15.3925 17.0467 15.0332 17.14 14.6132 17.14C13.8479 17.14 13.2505 16.804 12.8212 16.132C12.4012 15.46 12.1912 14.4987 12.1912 13.248C12.1912 12.408 12.2892 11.694 12.4852 11.106C12.6812 10.518 12.9612 10.07 13.3252 9.762C13.6985 9.454 14.1419 9.3 14.6552 9.3ZM14.9772 10.504C14.6692 10.504 14.4125 10.6113 14.2072 10.826C14.0019 11.0313 13.8479 11.3393 13.7452 11.75C13.6519 12.1607 13.6052 12.6693 13.6052 13.276C13.6052 14.1907 13.7219 14.8673 13.9552 15.306C14.1885 15.7447 14.5385 15.964 15.0052 15.964C15.2572 15.964 15.4765 15.9173 15.6632 15.824C15.8499 15.7213 16.0039 15.572 16.1252 15.376C16.2559 15.1707 16.3492 14.9187 16.4052 14.62C16.4705 14.312 16.5032 13.9527 16.5032 13.542V13.206C16.5032 12.5713 16.4472 12.058 16.3352 11.666C16.2325 11.2647 16.0692 10.9707 15.8452 10.784C15.6212 10.5973 15.3319 10.504 14.9772 10.504Z" fill="#888888"/>
</svg>
