<svg width="24" height="24" viewBox="0 0 24 24" fill="none" xmlns="http://www.w3.org/2000/svg">
<path d="M5.19873 17L9.70673 6.976H10.6167L10.9527 17H10.1827L10.0707 13.458H7.59273L6.02473 17H5.19873ZM7.90073 12.758H10.0707L10.0147 9.132C10.0054 8.908 9.99607 8.684 9.98673 8.46C9.98673 8.22667 9.9914 8.01667 10.0007 7.83H9.95873C9.8934 8.01667 9.81873 8.21733 9.73473 8.432C9.65073 8.64667 9.54807 8.88467 9.42673 9.146L7.90073 12.758ZM13.2929 20.36C12.9663 20.36 12.6583 20.318 12.3689 20.234C12.0889 20.15 11.8603 20.0567 11.6829 19.954V19.212C11.8043 19.2867 11.9489 19.3613 12.1169 19.436C12.2943 19.5107 12.4856 19.5713 12.6909 19.618C12.8963 19.674 13.0969 19.702 13.2929 19.702C13.8809 19.702 14.3336 19.5153 14.6509 19.142C14.9776 18.778 15.2203 18.232 15.3789 17.504L15.5189 16.846C15.5469 16.7527 15.5749 16.6453 15.6029 16.524C15.6309 16.3933 15.6589 16.258 15.6869 16.118C15.7243 15.978 15.7616 15.8427 15.7989 15.712H15.7709C15.6029 15.992 15.4163 16.2393 15.2109 16.454C15.0149 16.6687 14.7956 16.8367 14.5529 16.958C14.3196 17.0793 14.0629 17.14 13.7829 17.14C13.4656 17.14 13.1903 17.056 12.9569 16.888C12.7236 16.72 12.5463 16.4727 12.4249 16.146C12.3129 15.81 12.2569 15.4087 12.2569 14.942C12.2569 14.494 12.2989 14.018 12.3829 13.514C12.4669 13.01 12.5929 12.52 12.7609 12.044C12.9383 11.5587 13.1529 11.12 13.4049 10.728C13.6569 10.3267 13.9509 10.0093 14.2869 9.776C14.6229 9.54267 15.0009 9.426 15.4209 9.426C15.6916 9.426 15.9249 9.48667 16.1209 9.608C16.3169 9.72 16.4709 9.874 16.5829 10.07C16.6949 10.2567 16.7743 10.476 16.8209 10.728H16.8769L17.1849 9.566H17.8009L16.1069 17.532C15.9763 18.1573 15.7896 18.68 15.5469 19.1C15.3136 19.52 15.0103 19.8327 14.6369 20.038C14.2729 20.2527 13.8249 20.36 13.2929 20.36ZM14.0209 16.482C14.2823 16.482 14.5203 16.398 14.7349 16.23C14.9589 16.0527 15.1596 15.8193 15.3369 15.53C15.5236 15.2313 15.6869 14.9047 15.8269 14.55C15.9763 14.186 16.1023 13.8173 16.2049 13.444C16.3076 13.0613 16.3823 12.6973 16.4289 12.352C16.4849 12.0067 16.5129 11.7033 16.5129 11.442C16.5129 11.022 16.4196 10.6907 16.2329 10.448C16.0556 10.2053 15.7943 10.084 15.4489 10.084C15.1409 10.084 14.8563 10.1913 14.5949 10.406C14.3429 10.6113 14.1189 10.8913 13.9229 11.246C13.7269 11.5913 13.5636 11.9787 13.4329 12.408C13.3023 12.828 13.1996 13.2527 13.1249 13.682C13.0596 14.1113 13.0269 14.5173 13.0269 14.9C13.0269 15.432 13.1109 15.8287 13.2789 16.09C13.4469 16.3513 13.6943 16.482 14.0209 16.482Z" fill="#888888"/>
</svg>
