<svg width="24" height="24" viewBox="0 0 24 24" fill="none" xmlns="http://www.w3.org/2000/svg">
<path d="M5.12255 17L9.32255 6.962H10.9886L11.0446 17H9.68656L9.70055 14.004H7.75455L6.55055 17H5.12255ZM8.20255 12.828H9.75655L9.82655 9.454C9.82655 9.23 9.83122 9.02 9.84055 8.824C9.84989 8.61867 9.86389 8.42267 9.88256 8.236H9.84055C9.80322 8.41333 9.75189 8.6 9.68656 8.796C9.63055 8.992 9.56055 9.21133 9.47655 9.454L8.20255 12.828ZM13.2965 20.36C12.9698 20.36 12.6571 20.3133 12.3585 20.22C12.0598 20.136 11.8125 20.0333 11.6165 19.912V18.736C11.7378 18.82 11.8918 18.904 12.0785 18.988C12.2651 19.072 12.4658 19.142 12.6805 19.198C12.8951 19.254 13.1051 19.282 13.3105 19.282C13.7771 19.282 14.1458 19.128 14.4165 18.82C14.6871 18.5213 14.8925 18.0873 15.0325 17.518L15.1305 17.042C15.1491 16.9673 15.1678 16.8833 15.1865 16.79C15.2145 16.6873 15.2425 16.5753 15.2705 16.454C15.3078 16.3233 15.3451 16.1973 15.3825 16.076H15.3545C15.1958 16.3187 15.0278 16.5193 14.8505 16.678C14.6825 16.8367 14.5005 16.9533 14.3045 17.028C14.1178 17.1027 13.9171 17.14 13.7025 17.14C13.3945 17.14 13.1331 17.0607 12.9185 16.902C12.7038 16.7433 12.5358 16.51 12.4145 16.202C12.3025 15.894 12.2465 15.516 12.2465 15.068C12.2465 14.648 12.2838 14.186 12.3585 13.682C12.4425 13.1687 12.5638 12.6553 12.7225 12.142C12.8905 11.6287 13.0958 11.162 13.3385 10.742C13.5811 10.3127 13.8658 9.96733 14.1925 9.706C14.5191 9.44467 14.8925 9.314 15.3125 9.314C15.5551 9.314 15.7558 9.356 15.9145 9.44C16.0825 9.524 16.2178 9.64533 16.3205 9.804C16.4325 9.96267 16.5211 10.1633 16.5865 10.406H16.6145L16.9085 9.454H17.9865L16.3065 17.476C16.1665 18.148 15.9611 18.694 15.6905 19.114C15.4291 19.5433 15.0978 19.856 14.6965 20.052C14.3045 20.2573 13.8378 20.36 13.2965 20.36ZM14.2065 16.034C14.4211 16.034 14.6171 15.9547 14.7945 15.796C14.9811 15.6373 15.1445 15.4227 15.2845 15.152C15.4338 14.8813 15.5645 14.5827 15.6765 14.256C15.7885 13.92 15.8818 13.5793 15.9565 13.234C16.0311 12.8887 16.0871 12.5573 16.1245 12.24C16.1711 11.9133 16.1945 11.6333 16.1945 11.4C16.1945 11.092 16.1291 10.854 15.9985 10.686C15.8678 10.518 15.6858 10.434 15.4525 10.434C15.2098 10.434 14.9858 10.5413 14.7805 10.756C14.5845 10.9707 14.4071 11.2507 14.2485 11.596C14.0991 11.932 13.9731 12.3007 13.8705 12.702C13.7678 13.1033 13.6885 13.5 13.6325 13.892C13.5858 14.2747 13.5625 14.6107 13.5625 14.9C13.5625 15.2733 13.6138 15.558 13.7165 15.754C13.8191 15.9407 13.9825 16.034 14.2065 16.034Z" fill="#888888"/>
</svg>
