<svg width="24" height="24" viewBox="0 0 24 24" fill="none" xmlns="http://www.w3.org/2000/svg">
<path d="M10.843 17L9.62504 13.304H5.97104L4.72504 17H4.16504L7.53904 6.99H8.11304L11.403 17H10.843ZM8.19704 8.81C8.15971 8.68867 8.11771 8.56267 8.07104 8.432C8.03371 8.292 7.99171 8.14733 7.94504 7.998C7.90771 7.84867 7.86571 7.69933 7.81904 7.55C7.77237 7.69 7.72571 7.83467 7.67904 7.984C7.64171 8.124 7.59971 8.264 7.55304 8.404C7.51571 8.544 7.47371 8.67933 7.42704 8.81L6.12504 12.8H9.45704L8.19704 8.81ZM14.9815 9.454C15.5601 9.454 16.0175 9.58 16.3535 9.832C16.6895 10.084 16.9461 10.4013 17.1235 10.784H17.1655L17.2495 9.594H17.6835V17.336C17.6835 17.9707 17.5808 18.512 17.3755 18.96C17.1795 19.4173 16.8668 19.7673 16.4375 20.01C16.0175 20.2527 15.4621 20.374 14.7715 20.374C14.2955 20.374 13.8755 20.3273 13.5115 20.234C13.1475 20.15 12.8161 20.0333 12.5175 19.884V19.338C12.7228 19.4407 12.9421 19.534 13.1755 19.618C13.4181 19.702 13.6701 19.7673 13.9315 19.814C14.2021 19.8607 14.4821 19.884 14.7715 19.884C15.6021 19.884 16.2041 19.6647 16.5775 19.226C16.9601 18.7967 17.1515 18.1807 17.1515 17.378V16.832C17.1515 16.608 17.1515 16.3933 17.1515 16.188C17.1608 15.9827 17.1748 15.7587 17.1935 15.516H17.1515C16.9835 16.02 16.7035 16.4167 16.3115 16.706C15.9195 16.9953 15.4295 17.14 14.8415 17.14C13.9921 17.14 13.3295 16.8227 12.8535 16.188C12.3775 15.5533 12.1395 14.6107 12.1395 13.36C12.1395 12.548 12.2421 11.8527 12.4475 11.274C12.6621 10.686 12.9795 10.238 13.3995 9.93C13.8195 9.61267 14.3468 9.454 14.9815 9.454ZM15.0095 9.93C14.4775 9.93 14.0388 10.07 13.6935 10.35C13.3575 10.6207 13.1055 11.0127 12.9375 11.526C12.7788 12.0393 12.6995 12.6507 12.6995 13.36C12.6995 14.4613 12.8861 15.2873 13.2595 15.838C13.6328 16.3887 14.1788 16.664 14.8975 16.664C15.3361 16.664 15.7001 16.58 15.9895 16.412C16.2788 16.244 16.5075 16.02 16.6755 15.74C16.8528 15.4507 16.9741 15.1287 17.0395 14.774C17.1141 14.41 17.1515 14.0367 17.1515 13.654V12.814C17.1515 12.2447 17.0815 11.7453 16.9415 11.316C16.8108 10.8867 16.5868 10.5507 16.2695 10.308C15.9615 10.056 15.5415 9.93 15.0095 9.93Z" fill="#888888"/>
</svg>
