<svg width="24" height="24" viewBox="0 0 24 24" fill="none" xmlns="http://www.w3.org/2000/svg">
<path d="M3.76647 17L9.22647 6.99H10.0525L11.2285 17H10.4445L10.0385 13.542H6.49647L4.64847 17H3.76647ZM6.88847 12.814H9.96847L9.61847 9.678C9.59047 9.40733 9.56247 9.11333 9.53447 8.796C9.50647 8.46933 9.4878 8.17067 9.47847 7.9H9.45047C9.3198 8.18 9.1798 8.474 9.03047 8.782C8.89047 9.09 8.74114 9.398 8.58247 9.706L6.88847 12.814ZM14.2426 20.36C13.832 20.36 13.4493 20.3133 13.0946 20.22C12.74 20.1267 12.4413 20.0193 12.1986 19.898V19.128C12.3666 19.2213 12.558 19.31 12.7726 19.394C12.9966 19.478 13.2346 19.5433 13.4866 19.59C13.7386 19.646 13.986 19.674 14.2286 19.674C14.9193 19.674 15.4653 19.4827 15.8666 19.1C16.2773 18.7173 16.5573 18.1573 16.7066 17.42L16.8326 16.874C16.87 16.7153 16.9073 16.5427 16.9446 16.356C16.9913 16.16 17.038 15.9733 17.0846 15.796C17.1406 15.6093 17.1873 15.4413 17.2246 15.292H17.1826C16.9866 15.6 16.7533 15.894 16.4826 16.174C16.212 16.454 15.9133 16.6873 15.5866 16.874C15.26 17.0513 14.9053 17.14 14.5226 17.14C14.1026 17.14 13.748 17.042 13.4586 16.846C13.1693 16.6407 12.95 16.3467 12.8006 15.964C12.6513 15.5813 12.5766 15.124 12.5766 14.592C12.5766 14.0973 12.628 13.6027 12.7306 13.108C12.8333 12.6133 12.9826 12.142 13.1786 11.694C13.3746 11.246 13.6173 10.854 13.9066 10.518C14.2053 10.1727 14.546 9.902 14.9286 9.706C15.3113 9.51 15.7313 9.412 16.1886 9.412C16.5713 9.412 16.8886 9.49133 17.1406 9.65C17.402 9.79933 17.612 9.99533 17.7706 10.238C17.9293 10.4713 18.0413 10.7187 18.1066 10.98H18.1486L18.5546 9.552H19.1706L17.4906 17.406C17.36 18.0593 17.1546 18.6007 16.8746 19.03C16.604 19.4687 16.2493 19.8 15.8106 20.024C15.372 20.248 14.8493 20.36 14.2426 20.36ZM14.7606 16.454C14.994 16.454 15.232 16.398 15.4746 16.286C15.7173 16.174 15.9506 16.0153 16.1746 15.81C16.3986 15.6047 16.604 15.362 16.7906 15.082C16.9866 14.802 17.1593 14.494 17.3086 14.158C17.458 13.822 17.57 13.4627 17.6446 13.08C17.7286 12.6973 17.7706 12.31 17.7706 11.918C17.7706 11.33 17.64 10.882 17.3786 10.574C17.1173 10.2567 16.7346 10.098 16.2306 10.098C15.876 10.098 15.5446 10.1867 15.2366 10.364C14.938 10.532 14.672 10.7653 14.4386 11.064C14.2146 11.3627 14.0233 11.7033 13.8646 12.086C13.706 12.4687 13.5846 12.8747 13.5006 13.304C13.426 13.7333 13.3886 14.1627 13.3886 14.592C13.3886 15.1893 13.5006 15.6513 13.7246 15.978C13.9486 16.2953 14.294 16.454 14.7606 16.454Z" fill="#888888"/>
</svg>
