<svg width="24" height="24" viewBox="0 0 24 24" fill="none" xmlns="http://www.w3.org/2000/svg">
<path d="M2.65303 17H5.84503V16.524L4.31903 16.314H4.05303L2.65303 16.524V17ZM3.60503 17H4.34703L7.10503 8.138L7.14703 7.942H6.85303L9.73703 17H12.159L8.57503 6.5H7.11903L3.60503 17ZM5.17303 13.682H9.96103L9.83503 13.192H5.29903L5.17303 13.682ZM8.16903 17H12.943V16.51L10.941 16.3H10.073L8.16903 16.51V17ZM16.5827 20.626C19.4947 20.626 21.1747 19.156 21.1747 17.63C21.1747 16.398 20.3347 15.488 18.0247 15.488H15.9807C15.2387 15.488 14.9307 15.25 14.9307 14.802C14.9307 14.396 15.0707 14.116 15.3787 13.682L15.1267 13.556V13.682C14.0347 14.382 13.6987 15.054 13.6987 15.726C13.6987 16.412 14.1187 16.902 14.8887 17.14V17.196C15.3367 17.35 15.7147 17.35 16.5827 17.35H18.1367C19.0747 17.35 19.3827 17.882 19.3827 18.33C19.3827 19.38 18.4587 20.01 16.5687 20.01C15.3367 20.01 14.5947 19.464 14.5947 18.428C14.5947 17.826 14.8327 17.504 15.2527 17L15.2247 16.93C13.9087 17.35 13.2927 18.036 13.2927 18.792C13.2927 19.786 13.9927 20.626 16.5827 20.626ZM16.8627 14.242C19.0607 14.242 20.1107 13.136 20.1107 11.708C20.1107 11.05 19.9007 10.476 19.5227 10.056L19.4527 9.986C18.9487 9.454 18.0947 9.118 16.8767 9.118C14.6647 9.118 13.6147 10.21 13.6147 11.708C13.6147 13.136 14.6647 14.242 16.8627 14.242ZM16.8627 13.794C16.0507 13.794 15.6447 12.996 15.6447 11.708C15.6447 10.35 16.0927 9.566 16.8767 9.566C17.6327 9.566 18.0947 10.336 18.0947 11.708C18.0947 12.996 17.6607 13.794 16.8627 13.794ZM18.9627 10.126L21.3147 10.364V9.272L21.0627 9.118L19.0467 9.916H18.9627V10.126Z" fill="#888888"/>
</svg>
