<svg width="24" height="24" viewBox="0 0 24 24" fill="none" xmlns="http://www.w3.org/2000/svg">
<path d="M10.354 17L9.66796 14.326H6.95196L6.26596 17H4.45996L7.25996 6.99H9.31796L12.146 17H10.354ZM8.64596 10.056C8.60863 9.87867 8.56663 9.692 8.51996 9.496C8.48263 9.29067 8.44063 9.09 8.39396 8.894C8.35663 8.698 8.32396 8.52067 8.29596 8.362C8.27729 8.52067 8.24463 8.70267 8.19796 8.908C8.16063 9.104 8.11863 9.3 8.07196 9.496C8.03463 9.692 7.99729 9.874 7.95996 10.042L7.27396 12.856H9.34596L8.64596 10.056ZM15.1956 9.258C15.5876 9.258 15.9282 9.34667 16.2176 9.524C16.5162 9.70133 16.7776 9.986 17.0016 10.378H17.0856L17.2396 9.398H18.6116V16.874C18.6116 17.6207 18.4949 18.2507 18.2616 18.764C18.0376 19.2867 17.6829 19.6833 17.1976 19.954C16.7122 20.2247 16.0962 20.36 15.3496 20.36C14.9109 20.36 14.5096 20.318 14.1456 20.234C13.7909 20.1593 13.4502 20.038 13.1236 19.87V18.456C13.3756 18.5773 13.6229 18.68 13.8656 18.764C14.1082 18.848 14.3509 18.9087 14.5936 18.946C14.8456 18.9927 15.0976 19.016 15.3496 19.016C15.8816 19.016 16.2876 18.876 16.5676 18.596C16.8569 18.316 17.0016 17.8633 17.0016 17.238V17.056C17.0016 16.9067 17.0062 16.734 17.0156 16.538C17.0249 16.3327 17.0389 16.146 17.0576 15.978H16.9876C16.7729 16.3793 16.5162 16.6733 16.2176 16.86C15.9189 17.0467 15.5596 17.14 15.1396 17.14C14.3836 17.14 13.7909 16.804 13.3616 16.132C12.9322 15.4507 12.7176 14.4847 12.7176 13.234C12.7176 12.3847 12.8156 11.666 13.0116 11.078C13.2169 10.49 13.5016 10.042 13.8656 9.734C14.2389 9.41667 14.6822 9.258 15.1956 9.258ZM15.6296 10.644C15.3496 10.644 15.1162 10.742 14.9296 10.938C14.7429 11.134 14.6029 11.428 14.5096 11.82C14.4256 12.2027 14.3836 12.6833 14.3836 13.262C14.3836 14.1113 14.4862 14.7413 14.6916 15.152C14.9062 15.5627 15.2282 15.768 15.6576 15.768C15.8909 15.768 16.0916 15.726 16.2596 15.642C16.4369 15.5487 16.5816 15.4087 16.6936 15.222C16.8056 15.0353 16.8896 14.802 16.9456 14.522C17.0016 14.2327 17.0296 13.892 17.0296 13.5V13.164C17.0296 12.576 16.9782 12.0953 16.8756 11.722C16.7822 11.3487 16.6329 11.078 16.4276 10.91C16.2222 10.7327 15.9562 10.644 15.6296 10.644Z" fill="#888888"/>
</svg>
