<svg width="24" height="24" viewBox="0 0 24 24" fill="none" xmlns="http://www.w3.org/2000/svg">
<path d="M4.35157 17V16.342H4.51957C4.6689 16.342 4.7949 16.314 4.89757 16.258C5.00957 16.202 5.10757 16.0993 5.19157 15.95C5.2849 15.8007 5.37824 15.5767 5.47157 15.278L8.11757 7.004H9.57357L12.2056 15.558C12.2709 15.7633 12.3409 15.922 12.4156 16.034C12.4996 16.146 12.5976 16.2253 12.7096 16.272C12.8309 16.3187 12.9662 16.342 13.1156 16.342H13.2696V17H9.44757V16.342H9.82557C10.0122 16.342 10.1616 16.3 10.2736 16.216C10.3856 16.1227 10.4416 15.9827 10.4416 15.796C10.4416 15.7307 10.4322 15.656 10.4136 15.572C10.4042 15.488 10.3902 15.404 10.3716 15.32C10.3529 15.236 10.3296 15.1567 10.3016 15.082L9.89557 13.668H6.89957L6.53557 14.942C6.5169 15.0167 6.49357 15.1053 6.46557 15.208C6.4469 15.3013 6.42824 15.3993 6.40957 15.502C6.3909 15.5953 6.38157 15.6793 6.38157 15.754C6.38157 15.9407 6.4329 16.0853 6.53557 16.188C6.64757 16.2907 6.8109 16.342 7.02557 16.342H7.44557V17H4.35157ZM7.15157 12.912H9.65757L8.94357 10.322C8.87824 10.0793 8.8129 9.84133 8.74757 9.608C8.68224 9.37467 8.62624 9.15067 8.57957 8.936C8.5329 8.72133 8.48624 8.52067 8.43957 8.334C8.41157 8.474 8.37424 8.62333 8.32757 8.782C8.29024 8.93133 8.24824 9.08533 8.20157 9.244C8.16424 9.40267 8.12224 9.566 8.07557 9.734C8.0289 9.902 7.98224 10.0653 7.93557 10.224L7.15157 12.912ZM15.8332 20.332C14.9092 20.332 14.2185 20.1593 13.7612 19.814C13.3039 19.4687 13.0752 18.9787 13.0752 18.344C13.0752 17.9987 13.1452 17.7 13.2852 17.448C13.4252 17.2053 13.6165 17.014 13.8592 16.874C14.1019 16.7247 14.3725 16.6267 14.6712 16.58C14.4752 16.4867 14.2839 16.3513 14.0972 16.174C13.9199 15.9967 13.8312 15.7493 13.8312 15.432C13.8312 15.1427 13.9245 14.8907 14.1112 14.676C14.3072 14.452 14.5545 14.2467 14.8532 14.06C14.4799 13.9013 14.1765 13.6353 13.9432 13.262C13.7192 12.8793 13.6072 12.436 13.6072 11.932C13.6072 11.1107 13.8125 10.476 14.2232 10.028C14.6339 9.57067 15.2639 9.342 16.1132 9.342C16.4212 9.342 16.6919 9.384 16.9252 9.468C17.1679 9.54267 17.3825 9.64533 17.5692 9.776C17.6812 9.664 17.7979 9.54733 17.9192 9.426C18.0405 9.30467 18.1759 9.202 18.3252 9.118C18.4839 9.034 18.6565 8.992 18.8432 8.992C19.1045 8.992 19.3005 9.06667 19.4312 9.216C19.5619 9.36533 19.6272 9.54733 19.6272 9.762C19.6272 9.96733 19.5665 10.1493 19.4452 10.308C19.3332 10.4573 19.1372 10.532 18.8572 10.532C18.8572 10.364 18.8105 10.2287 18.7172 10.126C18.6332 10.014 18.5352 9.958 18.4232 9.958C18.3299 9.958 18.2459 9.97667 18.1712 10.014C18.0965 10.042 18.0265 10.084 17.9612 10.14C18.1292 10.336 18.2692 10.574 18.3812 10.854C18.4932 11.1247 18.5492 11.4653 18.5492 11.876C18.5492 12.5947 18.3532 13.1827 17.9612 13.64C17.5692 14.0973 16.9532 14.326 16.1132 14.326C16.0199 14.326 15.8985 14.3213 15.7492 14.312C15.6092 14.3027 15.4972 14.2887 15.4132 14.27C15.3012 14.3353 15.1985 14.438 15.1052 14.578C15.0119 14.718 14.9652 14.886 14.9652 15.082C14.9652 15.2687 15.0259 15.404 15.1472 15.488C15.2685 15.572 15.4365 15.614 15.6512 15.614H17.0232C17.5459 15.614 17.9705 15.7027 18.2972 15.88C18.6239 16.0573 18.8665 16.3047 19.0252 16.622C19.1839 16.93 19.2632 17.2847 19.2632 17.686C19.2632 18.5073 18.9832 19.1513 18.4232 19.618C17.8632 20.094 16.9999 20.332 15.8332 20.332ZM15.8612 19.576C16.3559 19.576 16.7525 19.5107 17.0512 19.38C17.3592 19.2493 17.5832 19.0673 17.7232 18.834C17.8632 18.6007 17.9332 18.3347 17.9332 18.036C17.9332 17.672 17.8445 17.4153 17.6672 17.266C17.4899 17.1167 17.2285 17.042 16.8832 17.042H15.5392C15.3619 17.042 15.1845 17.0747 15.0072 17.14C14.8299 17.2147 14.6805 17.3407 14.5592 17.518C14.4472 17.6953 14.3912 17.952 14.3912 18.288C14.3912 18.5493 14.4472 18.7733 14.5592 18.96C14.6712 19.156 14.8345 19.3053 15.0492 19.408C15.2639 19.52 15.5345 19.576 15.8612 19.576ZM16.0852 13.612C16.3372 13.612 16.5332 13.5467 16.6732 13.416C16.8132 13.2853 16.9112 13.094 16.9672 12.842C17.0325 12.5807 17.0652 12.2633 17.0652 11.89C17.0652 11.498 17.0325 11.1713 16.9672 10.91C16.9112 10.6393 16.8132 10.434 16.6732 10.294C16.5332 10.1447 16.3372 10.07 16.0852 10.07C15.8425 10.07 15.6512 10.1447 15.5112 10.294C15.3712 10.4433 15.2685 10.6533 15.2032 10.924C15.1379 11.1853 15.1052 11.512 15.1052 11.904C15.1052 12.268 15.1332 12.576 15.1892 12.828C15.2545 13.08 15.3572 13.276 15.4972 13.416C15.6465 13.5467 15.8425 13.612 16.0852 13.612Z" fill="#888888"/>
</svg>
