<svg width="24" height="24" viewBox="0 0 24 24" fill="none" xmlns="http://www.w3.org/2000/svg">
<path d="M2.49417 17H5.65817V16.566L4.13217 16.384H3.88017L2.49417 16.566V17ZM3.48817 17H4.13217L7.01617 7.9L7.07217 7.704H6.77817L9.78817 17H11.4962L7.98217 6.64H6.94617L3.48817 17ZM5.02817 13.584H9.53617L9.46617 13.122H5.09817L5.02817 13.584ZM8.12217 17H12.4762V16.552L10.5862 16.384H9.99817L8.12217 16.552V17ZM16.026 20.64C18.728 20.64 20.24 19.282 20.24 17.896C20.24 16.706 19.428 15.922 17.496 15.922H15.452C14.696 15.922 14.388 15.628 14.388 15.166C14.388 14.732 14.57 14.438 14.99 13.962L14.696 13.808V13.934C13.758 14.606 13.422 15.166 13.422 15.796C13.422 16.44 13.8 16.902 14.542 17.098V17.14C14.906 17.252 15.242 17.266 15.844 17.266H17.496C18.588 17.266 18.938 17.798 18.938 18.344C18.938 19.38 17.972 20.094 16.04 20.094C14.752 20.094 14.01 19.562 14.01 18.54C14.01 17.882 14.304 17.518 14.906 16.986L14.85 16.888C13.59 17.35 12.974 17.98 12.974 18.792C12.974 19.842 13.744 20.64 16.026 20.64ZM16.236 14.452C18.112 14.452 19.176 13.416 19.176 11.946C19.176 11.232 18.952 10.644 18.532 10.224L18.476 10.168C18.014 9.692 17.258 9.412 16.25 9.412C14.36 9.412 13.31 10.434 13.31 11.946C13.31 13.416 14.346 14.452 16.236 14.452ZM16.236 14.018C15.298 14.018 14.752 13.206 14.752 11.946C14.752 10.644 15.326 9.832 16.25 9.832C17.16 9.832 17.748 10.63 17.748 11.932C17.748 13.192 17.174 14.018 16.236 14.018ZM18.028 10.336L20.324 10.476V9.594L20.086 9.44L18.112 10.112H18.028V10.336Z" fill="#888888"/>
</svg>
