<svg width="24" height="24" viewBox="0 0 24 24" fill="none" xmlns="http://www.w3.org/2000/svg">
<path d="M9.92636 17L9.36636 14.83H6.37036L5.81036 17H3.31836L6.37036 6.976H9.32436L12.4044 17H9.92636ZM8.35836 10.728C8.31169 10.5413 8.25569 10.3173 8.19036 10.056C8.13436 9.79467 8.07369 9.53333 8.00836 9.272C7.95236 9.00133 7.90103 8.77267 7.85436 8.586C7.82636 8.77267 7.77969 9.00133 7.71436 9.272C7.65836 9.53333 7.59769 9.79467 7.53236 10.056C7.47636 10.3173 7.42503 10.5413 7.37836 10.728L6.83236 12.912H8.90436L8.35836 10.728ZM15.6302 9.174C16.0875 9.174 16.4702 9.26733 16.7782 9.454C17.0955 9.63133 17.3708 9.90667 17.6042 10.28H17.6742L17.8562 9.314H19.7742V16.818C19.7742 17.5833 19.6388 18.2273 19.3682 18.75C19.0975 19.282 18.6822 19.6833 18.1222 19.954C17.5622 20.2247 16.8575 20.36 16.0082 20.36C15.4855 20.36 15.0095 20.3227 14.5802 20.248C14.1602 20.1733 13.7495 20.0473 13.3482 19.87V18.008C13.6468 18.1387 13.9362 18.246 14.2162 18.33C14.4962 18.4233 14.7808 18.4887 15.0702 18.526C15.3688 18.5727 15.6722 18.596 15.9802 18.596C16.4935 18.596 16.8808 18.4793 17.1422 18.246C17.4035 18.0127 17.5342 17.644 17.5342 17.14V17.014C17.5342 16.8647 17.5388 16.7013 17.5482 16.524C17.5668 16.3373 17.5855 16.1647 17.6042 16.006H17.5342C17.3195 16.3793 17.0535 16.664 16.7362 16.86C16.4188 17.0467 16.0362 17.14 15.5882 17.14C14.7855 17.14 14.1462 16.7947 13.6702 16.104C13.2035 15.4133 12.9702 14.438 12.9702 13.178C12.9702 12.3287 13.0775 11.6053 13.2922 11.008C13.5068 10.4107 13.8148 9.958 14.2162 9.65C14.6175 9.33267 15.0888 9.174 15.6302 9.174ZM16.3862 10.994C16.1342 10.994 15.9195 11.078 15.7422 11.246C15.5742 11.4047 15.4482 11.6473 15.3642 11.974C15.2895 12.3007 15.2522 12.716 15.2522 13.22C15.2522 13.9387 15.3455 14.4707 15.5322 14.816C15.7282 15.1613 16.0222 15.334 16.4142 15.334C16.6288 15.334 16.8108 15.2967 16.9602 15.222C17.1188 15.1473 17.2495 15.0353 17.3522 14.886C17.4548 14.7273 17.5295 14.5313 17.5762 14.298C17.6228 14.0553 17.6462 13.7707 17.6462 13.444V13.122C17.6462 12.6273 17.6042 12.226 17.5202 11.918C17.4362 11.6007 17.3008 11.3673 17.1142 11.218C16.9368 11.0687 16.6942 10.994 16.3862 10.994Z" fill="#888888"/>
</svg>
