<svg width="24" height="24" viewBox="0 0 24 24" fill="none" xmlns="http://www.w3.org/2000/svg">
<path d="M11.1692 17L10.4412 13.878H8.10323L7.37523 17H6.11523L8.53723 7.004H9.95123L12.4152 17H11.1692ZM9.47523 9.51C9.44723 9.33267 9.41457 9.16467 9.37723 9.006C9.34923 8.838 9.32123 8.67467 9.29323 8.516C9.27457 8.35733 9.2559 8.208 9.23723 8.068C9.2279 8.208 9.20923 8.35733 9.18123 8.516C9.16257 8.67467 9.13457 8.838 9.09723 9.006C9.06923 9.16467 9.03657 9.328 8.99923 9.496L8.28523 12.786H10.2172L9.47523 9.51ZM15.204 9.342C15.5586 9.342 15.8666 9.43067 16.128 9.608C16.3986 9.78533 16.6366 10.0747 16.842 10.476H16.912L17.038 9.482H17.99V17.084C17.99 17.7747 17.892 18.3627 17.696 18.848C17.5 19.3427 17.192 19.716 16.772 19.968C16.352 20.2293 15.8106 20.36 15.148 20.36C14.8026 20.36 14.4853 20.3227 14.196 20.248C13.916 20.1827 13.6406 20.0753 13.37 19.926V18.848C13.5846 18.96 13.79 19.0533 13.986 19.128C14.182 19.2027 14.3733 19.2587 14.56 19.296C14.7466 19.3333 14.9333 19.352 15.12 19.352C15.6986 19.352 16.1326 19.198 16.422 18.89C16.7113 18.5913 16.856 18.078 16.856 17.35V17.126C16.856 16.9673 16.8606 16.79 16.87 16.594C16.8793 16.3887 16.8933 16.174 16.912 15.95H16.856C16.6506 16.3513 16.4126 16.65 16.142 16.846C15.8713 17.042 15.5446 17.14 15.162 17.14C14.4806 17.14 13.9486 16.8133 13.566 16.16C13.1926 15.5067 13.006 14.5453 13.006 13.276C13.006 12.408 13.0946 11.6847 13.272 11.106C13.4493 10.518 13.7013 10.0793 14.028 9.79C14.3546 9.49133 14.7466 9.342 15.204 9.342ZM15.442 10.35C15.1526 10.35 14.91 10.462 14.714 10.686C14.5273 10.91 14.3873 11.2413 14.294 11.68C14.21 12.1093 14.168 12.646 14.168 13.29C14.168 14.2793 14.2753 15.0027 14.49 15.46C14.7046 15.9173 15.036 16.146 15.484 16.146C15.708 16.146 15.904 16.0947 16.072 15.992C16.2493 15.88 16.394 15.7167 16.506 15.502C16.618 15.2873 16.702 15.0213 16.758 14.704C16.8233 14.3773 16.856 13.9993 16.856 13.57V13.22C16.856 12.5573 16.8046 12.016 16.702 11.596C16.6086 11.1667 16.4546 10.854 16.24 10.658C16.0346 10.4527 15.7686 10.35 15.442 10.35Z" fill="#888888"/>
</svg>
