<svg width="24" height="24" viewBox="0 0 24 24" fill="none" xmlns="http://www.w3.org/2000/svg">
<path d="M9.01134 17L8.67534 15.124H5.83334L5.46934 17H2.31934L5.24534 6.962H9.16534L12.1333 17H9.01134ZM7.73734 11.246C7.69067 11.022 7.63467 10.77 7.56934 10.49C7.504 10.21 7.43867 9.92067 7.37334 9.622C7.31734 9.314 7.27067 9.02467 7.23334 8.754C7.196 9.02467 7.14934 9.30933 7.09334 9.608C7.03734 9.90667 6.98134 10.196 6.92534 10.476C6.86934 10.756 6.81334 11.008 6.75734 11.232L6.36534 12.912H8.12934L7.73734 11.246ZM15.2437 9.118C15.7944 9.118 16.2144 9.22533 16.5037 9.44C16.8024 9.64533 17.0264 9.902 17.1757 10.21H17.2317L17.4277 9.258H19.8917V17.014C19.8917 17.742 19.7471 18.3533 19.4577 18.848C19.1684 19.3427 18.7251 19.716 18.1277 19.968C17.5397 20.2293 16.7791 20.36 15.8457 20.36C15.2204 20.36 14.6791 20.3273 14.2217 20.262C13.7644 20.1967 13.3304 20.08 12.9197 19.912V17.686C13.2184 17.8167 13.4891 17.924 13.7317 18.008C13.9744 18.1013 14.2357 18.1667 14.5157 18.204C14.7957 18.2507 15.1411 18.274 15.5517 18.274C16.0651 18.274 16.4431 18.176 16.6857 17.98C16.9377 17.784 17.0637 17.4993 17.0637 17.126V16.986C17.0637 16.8647 17.0684 16.72 17.0777 16.552C17.0964 16.384 17.1244 16.2067 17.1617 16.02H17.0637C16.9424 16.328 16.7371 16.594 16.4477 16.818C16.1677 17.0327 15.7571 17.14 15.2157 17.14C14.4784 17.14 13.8671 16.7993 13.3817 16.118C12.9057 15.4367 12.6677 14.4427 12.6677 13.136C12.6677 12.2587 12.7797 11.526 13.0037 10.938C13.2277 10.3407 13.5357 9.888 13.9277 9.58C14.3197 9.272 14.7584 9.118 15.2437 9.118ZM16.3777 11.19C16.1911 11.19 16.0324 11.2647 15.9017 11.414C15.7804 11.5633 15.6871 11.7873 15.6217 12.086C15.5657 12.3753 15.5377 12.7393 15.5377 13.178C15.5377 13.85 15.6077 14.3353 15.7477 14.634C15.8971 14.9233 16.1211 15.068 16.4197 15.068C16.5971 15.068 16.7417 15.0353 16.8537 14.97C16.9751 14.8953 17.0684 14.7927 17.1337 14.662C17.1991 14.522 17.2411 14.3493 17.2597 14.144C17.2877 13.9387 17.3017 13.696 17.3017 13.416V13.094C17.3017 12.6927 17.2784 12.352 17.2317 12.072C17.1944 11.7827 17.1104 11.5633 16.9797 11.414C16.8491 11.2647 16.6484 11.19 16.3777 11.19Z" fill="#888888"/>
</svg>
