<svg width="24" height="24" viewBox="0 0 24 24" fill="none" xmlns="http://www.w3.org/2000/svg">
<path d="M3.31869 17V16.86H3.76669C3.97202 16.86 4.14002 16.8273 4.27069 16.762C4.40135 16.6967 4.51802 16.5893 4.62069 16.44C4.72335 16.2813 4.82135 16.062 4.91469 15.782L8.02269 7.004H8.91869L12.3207 16.048C12.4047 16.2533 12.484 16.4167 12.5587 16.538C12.6427 16.65 12.736 16.734 12.8387 16.79C12.9507 16.8367 13.0767 16.86 13.2167 16.86H13.3567V17H9.29669V16.86H9.74469C10.0527 16.86 10.2767 16.8227 10.4167 16.748C10.566 16.664 10.6407 16.5193 10.6407 16.314C10.6407 16.258 10.636 16.202 10.6267 16.146C10.6174 16.0807 10.6034 16.0107 10.5847 15.936C10.5754 15.852 10.552 15.768 10.5147 15.684L9.67469 13.36H5.93669L5.15269 15.558C5.11535 15.642 5.08735 15.726 5.06869 15.81C5.05002 15.894 5.03135 15.9733 5.01269 16.048C5.00335 16.1133 4.99869 16.174 4.99869 16.23C4.99869 16.4633 5.09202 16.6267 5.27869 16.72C5.47469 16.8133 5.78735 16.86 6.21669 16.86H6.72069V17H3.31869ZM5.97869 13.22H9.61869L8.63869 10.532C8.53602 10.2333 8.43335 9.93933 8.33069 9.65C8.22802 9.35133 8.13002 9.062 8.03669 8.782C7.95269 8.502 7.87802 8.236 7.81269 7.984C7.74735 8.18 7.68202 8.37133 7.61669 8.558C7.56069 8.74467 7.50002 8.93133 7.43469 9.118C7.36935 9.30467 7.29935 9.496 7.22469 9.692C7.15002 9.888 7.07535 10.098 7.00069 10.322L5.97869 13.22ZM16.3281 20.36C15.3107 20.36 14.5547 20.192 14.0601 19.856C13.5654 19.5293 13.3181 19.086 13.3181 18.526C13.3181 18.2087 13.3927 17.9333 13.5421 17.7C13.7007 17.476 13.9387 17.294 14.2561 17.154C14.5827 17.0233 14.9981 16.9533 15.5021 16.944C15.1007 16.8413 14.7927 16.6593 14.5781 16.398C14.3727 16.1367 14.2701 15.852 14.2701 15.544C14.2701 15.2453 14.3681 14.9747 14.5641 14.732C14.7694 14.48 15.0774 14.284 15.4881 14.144C15.0214 13.9853 14.6481 13.7193 14.3681 13.346C14.0974 12.9727 13.9621 12.5013 13.9621 11.932C13.9621 11.1293 14.1861 10.4993 14.6341 10.042C15.0914 9.57533 15.7727 9.342 16.6781 9.342C17.0141 9.342 17.3174 9.384 17.5881 9.468C17.8681 9.552 18.1154 9.67333 18.3301 9.832C18.4421 9.70133 18.5681 9.57533 18.7081 9.454C18.8481 9.33267 19.0021 9.23467 19.1701 9.16C19.3381 9.076 19.5201 9.034 19.7161 9.034C19.9961 9.034 20.2061 9.10867 20.3461 9.258C20.4861 9.398 20.5561 9.57533 20.5561 9.79C20.5561 9.97667 20.4954 10.14 20.3741 10.28C20.2527 10.4107 20.0427 10.476 19.7441 10.476C19.7441 10.1867 19.6927 9.972 19.5901 9.832C19.4874 9.692 19.3287 9.622 19.1141 9.622C19.0021 9.622 18.8947 9.64533 18.7921 9.692C18.6987 9.72933 18.5821 9.804 18.4421 9.916C18.7127 10.1493 18.9181 10.4387 19.0581 10.784C19.2074 11.12 19.2821 11.4933 19.2821 11.904C19.2821 12.604 19.0674 13.1827 18.6381 13.64C18.2181 14.0973 17.5647 14.326 16.6781 14.326C16.4914 14.326 16.3141 14.3167 16.1461 14.298C15.9781 14.27 15.8147 14.2373 15.6561 14.2C15.4507 14.2933 15.3061 14.4007 15.2221 14.522C15.1474 14.6433 15.1101 14.7787 15.1101 14.928C15.1101 15.1613 15.1894 15.334 15.3481 15.446C15.5161 15.5487 15.7727 15.6 16.1181 15.6H17.7281C18.3067 15.6 18.7687 15.6933 19.1141 15.88C19.4687 16.0573 19.7254 16.3047 19.8841 16.622C20.0521 16.93 20.1361 17.294 20.1361 17.714C20.1361 18.526 19.8281 19.17 19.2121 19.646C18.5961 20.122 17.6347 20.36 16.3281 20.36ZM16.4541 20.22C17.0141 20.22 17.4807 20.15 17.8541 20.01C18.2274 19.8793 18.5074 19.6787 18.6941 19.408C18.8901 19.1373 18.9881 18.792 18.9881 18.372C18.9881 17.9147 18.8667 17.574 18.6241 17.35C18.3814 17.126 18.0081 17.014 17.5041 17.014H16.0061C15.7354 17.014 15.4881 17.0607 15.2641 17.154C15.0401 17.2567 14.8581 17.42 14.7181 17.644C14.5874 17.868 14.5221 18.1713 14.5221 18.554C14.5221 18.9273 14.5967 19.2353 14.7461 19.478C14.9047 19.73 15.1241 19.9167 15.4041 20.038C15.6934 20.1593 16.0434 20.22 16.4541 20.22ZM16.6361 14.186C16.9254 14.186 17.1541 14.1067 17.3221 13.948C17.4901 13.7893 17.6114 13.542 17.6861 13.206C17.7607 12.87 17.7981 12.436 17.7981 11.904C17.7981 11.3347 17.7607 10.8727 17.6861 10.518C17.6114 10.1633 17.4854 9.902 17.3081 9.734C17.1401 9.566 16.9114 9.482 16.6221 9.482C16.3421 9.482 16.1134 9.57067 15.9361 9.748C15.7681 9.92533 15.6421 10.1913 15.5581 10.546C15.4834 10.9007 15.4461 11.358 15.4461 11.918C15.4461 12.45 15.4834 12.884 15.5581 13.22C15.6421 13.556 15.7727 13.8033 15.9501 13.962C16.1274 14.1113 16.3561 14.186 16.6361 14.186Z" fill="#888888"/>
</svg>
