<svg width="24" height="24" viewBox="0 0 24 24" fill="none" xmlns="http://www.w3.org/2000/svg">
<path d="M5.54053 17L10.0905 6.962H10.5105L10.8465 17H10.4965L10.3565 13.08H7.71053L5.93253 17H5.54053ZM7.86453 12.73H10.3425L10.2305 8.572C10.2212 8.376 10.2119 8.18467 10.2025 7.998C10.2025 7.81133 10.2025 7.64333 10.2025 7.494H10.1745C10.1185 7.64333 10.0485 7.80667 9.96453 7.984C9.88053 8.16133 9.79186 8.35733 9.69853 8.572L7.86453 12.73ZM13.0989 20.36C12.8002 20.36 12.5156 20.318 12.2449 20.234C11.9836 20.15 11.7736 20.066 11.6149 19.982V19.576C11.7269 19.6413 11.8622 19.7067 12.0209 19.772C12.1796 19.8467 12.3522 19.9027 12.5389 19.94C12.7256 19.9867 12.9122 20.01 13.0989 20.01C13.7802 20.01 14.2889 19.7953 14.6249 19.366C14.9609 18.946 15.2176 18.3253 15.3949 17.504L15.5769 16.692C15.6049 16.5893 15.6282 16.4727 15.6469 16.342C15.6749 16.2113 15.7076 16.076 15.7449 15.936C15.7822 15.796 15.8149 15.656 15.8429 15.516H15.8149C15.6562 15.8147 15.4742 16.09 15.2689 16.342C15.0636 16.5847 14.8302 16.7807 14.5689 16.93C14.3169 17.07 14.0369 17.14 13.7289 17.14C13.3929 17.14 13.1082 17.056 12.8749 16.888C12.6509 16.7107 12.4829 16.454 12.3709 16.118C12.2589 15.782 12.2029 15.3853 12.2029 14.928C12.2029 14.48 12.2449 14.0087 12.3289 13.514C12.4222 13.0193 12.5529 12.534 12.7209 12.058C12.8889 11.582 13.0942 11.1527 13.3369 10.77C13.5889 10.378 13.8829 10.0653 14.2189 9.832C14.5549 9.59867 14.9329 9.482 15.3529 9.482C15.6516 9.482 15.9036 9.552 16.1089 9.692C16.3142 9.832 16.4682 10.0093 16.5709 10.224C16.6829 10.4387 16.7529 10.6767 16.7809 10.938H16.8229L17.1309 9.622H17.4249L15.7309 17.602C15.6096 18.1713 15.4416 18.6613 15.2269 19.072C15.0216 19.492 14.7462 19.8093 14.4009 20.024C14.0556 20.248 13.6216 20.36 13.0989 20.36ZM13.7569 16.79C14.0649 16.79 14.3402 16.692 14.5829 16.496C14.8349 16.3 15.0636 16.0387 15.2689 15.712C15.4742 15.3853 15.6562 15.026 15.8149 14.634C15.9736 14.2327 16.1042 13.8313 16.2069 13.43C16.3189 13.0193 16.4029 12.6367 16.4589 12.282C16.5149 11.9273 16.5429 11.6333 16.5429 11.4C16.5429 10.9053 16.4356 10.5227 16.2209 10.252C16.0062 9.972 15.7076 9.832 15.3249 9.832C14.9796 9.832 14.6576 9.944 14.3589 10.168C14.0696 10.3827 13.8129 10.672 13.5889 11.036C13.3742 11.4 13.1922 11.806 13.0429 12.254C12.8936 12.702 12.7769 13.1547 12.6929 13.612C12.6182 14.0693 12.5809 14.4987 12.5809 14.9C12.5809 15.544 12.6789 16.02 12.8749 16.328C13.0802 16.636 13.3742 16.79 13.7569 16.79Z" fill="#888888"/>
</svg>
