<svg width="24" height="24" viewBox="0 0 24 24" fill="none" xmlns="http://www.w3.org/2000/svg">
<path d="M3.43457 17V16.86H3.84057C4.0459 16.86 4.21857 16.8273 4.35857 16.762C4.49857 16.6967 4.6199 16.5847 4.72257 16.426C4.82524 16.2673 4.92324 16.048 5.01657 15.768L8.06857 7.004H8.78257L12.2966 16.118C12.3712 16.3047 12.4459 16.454 12.5206 16.566C12.5952 16.6687 12.6792 16.7433 12.7726 16.79C12.8752 16.8367 12.9919 16.86 13.1226 16.86H13.3046V17H9.45457V16.86H9.77657C10.1312 16.86 10.3879 16.818 10.5466 16.734C10.7052 16.65 10.7846 16.5007 10.7846 16.286C10.7846 16.23 10.7799 16.174 10.7706 16.118C10.7612 16.0527 10.7472 15.9827 10.7286 15.908C10.7192 15.8333 10.6959 15.754 10.6586 15.67L9.80457 13.374H6.01057L5.24057 15.572C5.21257 15.6467 5.18924 15.7213 5.17057 15.796C5.1519 15.8707 5.1379 15.9407 5.12857 16.006C5.11924 16.062 5.11457 16.118 5.11457 16.174C5.11457 16.426 5.22657 16.6033 5.45057 16.706C5.67457 16.8087 6.0339 16.86 6.52857 16.86H6.85057V17H3.43457ZM6.05257 13.234H9.74857L8.72657 10.504C8.60524 10.1867 8.49324 9.88333 8.39057 9.594C8.2879 9.30467 8.1899 9.02933 8.09657 8.768C8.01257 8.49733 7.93324 8.236 7.85857 7.984C7.79324 8.18933 7.73257 8.38067 7.67657 8.558C7.62057 8.726 7.56457 8.894 7.50857 9.062C7.45257 9.23 7.38724 9.412 7.31257 9.608C7.24724 9.79467 7.17257 10.014 7.08857 10.266L6.05257 13.234ZM16.2662 20.36C15.2956 20.36 14.5676 20.1827 14.0822 19.828C13.5969 19.4827 13.3542 19.0207 13.3542 18.442C13.3542 18.1153 13.4289 17.8307 13.5782 17.588C13.7276 17.3547 13.9562 17.168 14.2642 17.028C14.5722 16.888 14.9596 16.818 15.4262 16.818C15.0622 16.706 14.7869 16.524 14.6002 16.272C14.4229 16.02 14.3342 15.754 14.3342 15.474C14.3342 15.2033 14.4229 14.9467 14.6002 14.704C14.7869 14.452 15.0716 14.2607 15.4542 14.13C15.0062 13.9713 14.6469 13.71 14.3762 13.346C14.1149 12.9727 13.9842 12.506 13.9842 11.946C13.9842 11.1433 14.2036 10.5133 14.6422 10.056C15.0809 9.58933 15.7389 9.356 16.6162 9.356C16.9429 9.356 17.2369 9.398 17.4982 9.482C17.7596 9.55667 17.9929 9.66867 18.1982 9.818C18.2916 9.71533 18.4036 9.608 18.5342 9.496C18.6742 9.37467 18.8329 9.272 19.0102 9.188C19.1876 9.104 19.3789 9.062 19.5842 9.062C19.8549 9.062 20.0556 9.13667 20.1862 9.286C20.3262 9.426 20.3962 9.59867 20.3962 9.804C20.3962 9.99067 20.3356 10.1447 20.2142 10.266C20.1022 10.3873 19.9156 10.448 19.6542 10.448C19.6542 10.1493 19.6029 9.93 19.5002 9.79C19.4069 9.65 19.2529 9.58 19.0382 9.58C18.9169 9.58 18.8049 9.60333 18.7022 9.65C18.5996 9.68733 18.4689 9.77133 18.3102 9.902C18.5809 10.126 18.7862 10.4107 18.9262 10.756C19.0662 11.1013 19.1362 11.484 19.1362 11.904C19.1362 12.5947 18.9262 13.1687 18.5062 13.626C18.0956 14.0833 17.4656 14.312 16.6162 14.312C16.4389 14.312 16.2662 14.3027 16.0982 14.284C15.9396 14.256 15.7856 14.2233 15.6362 14.186C15.4122 14.2793 15.2582 14.3913 15.1742 14.522C15.0902 14.6527 15.0482 14.7973 15.0482 14.956C15.0482 15.1987 15.1322 15.376 15.3002 15.488C15.4776 15.6 15.7389 15.656 16.0842 15.656H17.6662C18.2262 15.656 18.6742 15.7493 19.0102 15.936C19.3462 16.1133 19.5889 16.3607 19.7382 16.678C19.8969 16.986 19.9762 17.3407 19.9762 17.742C19.9762 18.5447 19.6729 19.1793 19.0662 19.646C18.4689 20.122 17.5356 20.36 16.2662 20.36ZM16.3782 20.22C16.9662 20.22 17.4516 20.1453 17.8342 19.996C18.2169 19.856 18.5016 19.646 18.6882 19.366C18.8749 19.086 18.9682 18.736 18.9682 18.316C18.9682 17.8307 18.8376 17.4713 18.5762 17.238C18.3242 17.014 17.9322 16.902 17.4002 16.902H15.8882C15.6362 16.902 15.3936 16.9487 15.1602 17.042C14.9362 17.1353 14.7496 17.2987 14.6002 17.532C14.4602 17.7653 14.3902 18.0873 14.3902 18.498C14.3902 18.8807 14.4696 19.198 14.6282 19.45C14.7869 19.7113 15.0109 19.9027 15.3002 20.024C15.5989 20.1547 15.9582 20.22 16.3782 20.22ZM16.5742 14.172C16.8822 14.172 17.1249 14.0927 17.3022 13.934C17.4889 13.7753 17.6196 13.528 17.6942 13.192C17.7782 12.856 17.8202 12.4267 17.8202 11.904C17.8202 11.3533 17.7782 10.9007 17.6942 10.546C17.6102 10.1913 17.4749 9.93 17.2882 9.762C17.1109 9.58467 16.8682 9.496 16.5602 9.496C16.2616 9.496 16.0189 9.58933 15.8322 9.776C15.6456 9.95333 15.5102 10.2193 15.4262 10.574C15.3422 10.9287 15.3002 11.3767 15.3002 11.918C15.3002 12.4313 15.3422 12.856 15.4262 13.192C15.5196 13.528 15.6596 13.7753 15.8462 13.934C16.0329 14.0927 16.2756 14.172 16.5742 14.172Z" fill="#888888"/>
</svg>
