<svg width="24" height="24" viewBox="0 0 24 24" fill="none" xmlns="http://www.w3.org/2000/svg">
<path d="M11.2253 17L9.9933 13.556H6.1013L4.8693 17H4.0293L7.7113 6.976H8.4673L12.0653 17H11.2253ZM8.5093 9.216C8.4813 9.12267 8.4393 8.99667 8.3833 8.838C8.3273 8.67933 8.2713 8.51133 8.2153 8.334C8.16863 8.15667 8.12196 7.998 8.0753 7.858C8.02863 8.01667 7.9773 8.18 7.9213 8.348C7.87463 8.516 7.8233 8.67467 7.7673 8.824C7.72063 8.97333 7.67863 9.10867 7.6413 9.23L6.3673 12.828H9.7413L8.5093 9.216ZM15.7784 9.412C16.3197 9.412 16.7677 9.52867 17.1224 9.762C17.4864 9.986 17.7804 10.294 18.0044 10.686H18.0464L18.1724 9.552H18.8164V17.238C18.8164 17.8913 18.709 18.4467 18.4944 18.904C18.289 19.3707 17.9624 19.73 17.5144 19.982C17.0664 20.234 16.4877 20.36 15.7784 20.36C15.2464 20.36 14.775 20.3133 14.3644 20.22C13.963 20.1267 13.599 20.0053 13.2724 19.856V19.086C13.4964 19.198 13.739 19.3007 14.0004 19.394C14.2617 19.4873 14.5464 19.5573 14.8544 19.604C15.1624 19.6507 15.4797 19.674 15.8064 19.674C16.5624 19.674 17.1224 19.4593 17.4864 19.03C17.8504 18.6007 18.0324 18.022 18.0324 17.294V16.846C18.0324 16.65 18.0324 16.454 18.0324 16.258C18.0417 16.0527 18.051 15.8613 18.0604 15.684H18.0184C17.8224 16.16 17.5237 16.524 17.1224 16.776C16.7304 17.0187 16.2497 17.14 15.6804 17.14C14.7844 17.14 14.0797 16.8133 13.5664 16.16C13.0624 15.5067 12.8104 14.5687 12.8104 13.346C12.8104 12.534 12.9224 11.834 13.1464 11.246C13.3797 10.658 13.7157 10.2053 14.1544 9.888C14.6024 9.57067 15.1437 9.412 15.7784 9.412ZM15.8764 10.098C15.3817 10.098 14.9664 10.2287 14.6304 10.49C14.3037 10.742 14.0564 11.1107 13.8884 11.596C13.7204 12.072 13.6364 12.6553 13.6364 13.346C13.6364 14.3633 13.8184 15.138 14.1824 15.67C14.5557 16.202 15.0924 16.468 15.7924 16.468C16.2217 16.468 16.581 16.398 16.8704 16.258C17.1597 16.1087 17.3884 15.9033 17.5564 15.642C17.7244 15.3807 17.8457 15.0727 17.9204 14.718C17.995 14.354 18.0324 13.9667 18.0324 13.556V13.066C18.0324 12.4313 17.9624 11.8947 17.8224 11.456C17.6824 11.0173 17.4537 10.6813 17.1364 10.448C16.819 10.2147 16.399 10.098 15.8764 10.098Z" fill="#888888"/>
</svg>
