<svg width="24" height="24" viewBox="0 0 24 24" fill="none" xmlns="http://www.w3.org/2000/svg">
<path d="M3.28287 17H5.38287L6.86687 11.61C7.17487 10.532 7.46887 9.342 7.74887 8.222H7.80487C8.09887 9.328 8.39287 10.532 8.70087 11.61L10.1849 17H12.3549L9.03687 6.64H6.60087L3.28287 17ZM5.34087 14.34H10.2689V12.744H5.34087V14.34ZM16.1576 20.402C18.7756 20.402 20.4416 19.212 20.4416 17.63C20.4416 16.244 19.4056 15.67 17.5156 15.67H16.1716C15.2616 15.67 14.9396 15.432 14.9396 15.026C14.9396 14.704 15.0656 14.536 15.2756 14.34C15.6256 14.466 15.9756 14.522 16.2836 14.522C17.9776 14.522 19.3216 13.64 19.3216 11.862C19.3216 11.386 19.1676 10.952 18.9576 10.686H20.3016V9.174H17.4736C17.1516 9.048 16.7316 8.978 16.2836 8.978C14.6316 8.978 13.1196 9.958 13.1196 11.806C13.1196 12.73 13.6376 13.472 14.1836 13.864V13.92C13.6936 14.256 13.3016 14.788 13.3016 15.376C13.3016 16.02 13.6096 16.44 14.0156 16.706V16.776C13.2876 17.168 12.8956 17.742 12.8956 18.4C12.8956 19.772 14.3236 20.402 16.1576 20.402ZM16.2836 13.262C15.5976 13.262 15.0516 12.73 15.0516 11.806C15.0516 10.882 15.5976 10.378 16.2836 10.378C16.9836 10.378 17.5156 10.882 17.5156 11.806C17.5156 12.73 16.9696 13.262 16.2836 13.262ZM16.4796 19.1C15.3316 19.1 14.6036 18.736 14.6036 18.078C14.6036 17.756 14.7576 17.448 15.1216 17.154C15.4016 17.238 15.7236 17.266 16.1996 17.266H17.1516C17.9916 17.266 18.4536 17.42 18.4536 17.98C18.4536 18.582 17.6556 19.1 16.4796 19.1Z" fill="#888888"/>
</svg>
