<svg width="24" height="24" viewBox="0 0 24 24" fill="none" xmlns="http://www.w3.org/2000/svg">
<path d="M4.5153 17V16.384H4.7113C4.86064 16.384 4.98664 16.356 5.0893 16.3C5.19197 16.244 5.2853 16.1413 5.3693 15.992C5.4533 15.8333 5.54197 15.6047 5.6353 15.306L8.28131 7.004H9.51331L12.1733 15.67C12.2386 15.8567 12.3086 16.0013 12.3833 16.104C12.458 16.2067 12.5513 16.2813 12.6633 16.328C12.7753 16.3653 12.9106 16.384 13.0693 16.384H13.2093V17H9.6253V16.384H9.93331C10.1573 16.384 10.3253 16.3373 10.4373 16.244C10.5493 16.1507 10.6053 16.0107 10.6053 15.824C10.6053 15.7587 10.6006 15.6887 10.5913 15.614C10.582 15.53 10.5633 15.446 10.5353 15.362C10.5166 15.2687 10.4933 15.18 10.4653 15.096L10.0453 13.654H6.9933L6.6153 14.984C6.59664 15.0587 6.5733 15.1427 6.5453 15.236C6.5173 15.3293 6.49397 15.4227 6.4753 15.516C6.46597 15.6093 6.4613 15.6933 6.4613 15.768C6.4613 15.9547 6.5173 16.104 6.6293 16.216C6.75064 16.328 6.93264 16.384 7.1753 16.384H7.5253V17H4.5153ZM7.2453 12.926H9.8213L9.09331 10.336C9.01864 10.0747 8.94864 9.82733 8.8833 9.594C8.81797 9.35133 8.7573 9.12267 8.70131 8.908C8.6453 8.69333 8.59864 8.49267 8.5613 8.306C8.52397 8.446 8.48664 8.59067 8.4493 8.74C8.4213 8.88933 8.38397 9.048 8.3373 9.216C8.29064 9.37467 8.24397 9.538 8.1973 9.706C8.15064 9.874 8.0993 10.0467 8.0433 10.224L7.2453 12.926ZM15.7365 20.332C14.8592 20.332 14.2012 20.1547 13.7625 19.8C13.3239 19.4547 13.1045 18.9647 13.1045 18.33C13.1045 17.966 13.1745 17.658 13.3145 17.406C13.4545 17.154 13.6412 16.9533 13.8745 16.804C14.1079 16.6547 14.3692 16.5567 14.6585 16.51C14.4719 16.4167 14.2945 16.286 14.1265 16.118C13.9679 15.9407 13.8885 15.698 13.8885 15.39C13.8885 15.11 13.9725 14.8627 14.1405 14.648C14.3085 14.4333 14.5279 14.2373 14.7985 14.06C14.4439 13.892 14.1592 13.6167 13.9445 13.234C13.7299 12.8513 13.6225 12.4173 13.6225 11.932C13.6225 11.1293 13.8185 10.4993 14.2105 10.042C14.6119 9.57533 15.2185 9.342 16.0305 9.342C16.3292 9.342 16.5952 9.38867 16.8285 9.482C17.0712 9.566 17.2765 9.67333 17.4445 9.804C17.5379 9.71067 17.6405 9.60333 17.7525 9.482C17.8739 9.35133 18.0092 9.244 18.1585 9.16C18.3172 9.06667 18.4899 9.02 18.6765 9.02C18.9192 9.02 19.1012 9.09467 19.2225 9.244C19.3439 9.39333 19.4045 9.57067 19.4045 9.776C19.4045 9.972 19.3485 10.1493 19.2365 10.308C19.1339 10.4573 18.9565 10.532 18.7045 10.532C18.7045 10.3733 18.6625 10.2427 18.5785 10.14C18.5039 10.028 18.4059 9.972 18.2845 9.972C18.1912 9.972 18.1025 9.99067 18.0185 10.028C17.9439 10.056 17.8739 10.1027 17.8085 10.168C17.9579 10.3547 18.0839 10.5833 18.1865 10.854C18.2985 11.1247 18.3545 11.4653 18.3545 11.876C18.3545 12.5853 18.1632 13.1733 17.7805 13.64C17.4072 14.0973 16.8239 14.326 16.0305 14.326C15.9279 14.326 15.8065 14.3213 15.6665 14.312C15.5265 14.2933 15.4145 14.27 15.3305 14.242C15.2185 14.326 15.1112 14.4427 15.0085 14.592C14.9059 14.732 14.8545 14.9 14.8545 15.096C14.8545 15.3013 14.9152 15.4507 15.0365 15.544C15.1672 15.6373 15.3539 15.684 15.5965 15.684H16.9265C17.4305 15.684 17.8365 15.7727 18.1445 15.95C18.4619 16.1273 18.6905 16.37 18.8305 16.678C18.9799 16.986 19.0545 17.336 19.0545 17.728C19.0545 18.5307 18.7839 19.1653 18.2425 19.632C17.7012 20.0987 16.8659 20.332 15.7365 20.332ZM15.7645 19.632C16.2965 19.632 16.7165 19.5573 17.0245 19.408C17.3325 19.268 17.5519 19.072 17.6825 18.82C17.8132 18.5773 17.8785 18.302 17.8785 17.994C17.8785 17.5927 17.7805 17.3127 17.5845 17.154C17.3979 17.0047 17.1225 16.93 16.7585 16.93H15.4845C15.2885 16.93 15.0972 16.9627 14.9105 17.028C14.7239 17.1027 14.5699 17.2333 14.4485 17.42C14.3272 17.616 14.2665 17.8913 14.2665 18.246C14.2665 18.5167 14.3179 18.7547 14.4205 18.96C14.5325 19.1653 14.6959 19.3287 14.9105 19.45C15.1345 19.5713 15.4192 19.632 15.7645 19.632ZM15.9885 13.64C16.2592 13.64 16.4692 13.5793 16.6185 13.458C16.7679 13.3273 16.8752 13.1313 16.9405 12.87C17.0059 12.6087 17.0385 12.282 17.0385 11.89C17.0385 11.4793 17.0012 11.1387 16.9265 10.868C16.8612 10.588 16.7539 10.3827 16.6045 10.252C16.4552 10.112 16.2499 10.042 15.9885 10.042C15.7365 10.042 15.5312 10.112 15.3725 10.252C15.2232 10.392 15.1112 10.602 15.0365 10.882C14.9712 11.1527 14.9385 11.4933 14.9385 11.904C14.9385 12.2867 14.9712 12.6087 15.0365 12.87C15.1112 13.122 15.2279 13.3133 15.3865 13.444C15.5452 13.5747 15.7459 13.64 15.9885 13.64Z" fill="#888888"/>
</svg>
