<svg width="24" height="24" viewBox="0 0 24 24" fill="none" xmlns="http://www.w3.org/2000/svg">
<path d="M9.26623 17L8.80423 14.858H5.75223L5.27623 17H2.49023L5.55623 6.962H8.93023L12.0382 17H9.26623ZM7.75423 10.854C7.70757 10.6487 7.65157 10.4247 7.58623 10.182C7.53023 9.93 7.47423 9.67333 7.41823 9.412C7.36223 9.14133 7.3109 8.88 7.26423 8.628C7.2269 8.88 7.18023 9.14133 7.12423 9.412C7.06823 9.67333 7.01223 9.93 6.95623 10.182C6.90957 10.4247 6.85823 10.6487 6.80223 10.854L6.27023 12.87H8.28623L7.75423 10.854ZM15.2392 9.174C15.7432 9.174 16.1539 9.272 16.4712 9.468C16.7885 9.664 17.0359 9.93467 17.2132 10.28H17.2692L17.4512 9.314H19.6212V17.014C19.6212 17.742 19.4765 18.3533 19.1872 18.848C18.9072 19.3427 18.4825 19.716 17.9132 19.968C17.3532 20.2293 16.6299 20.36 15.7432 20.36C15.1645 20.36 14.6465 20.3273 14.1892 20.262C13.7412 20.1967 13.3119 20.08 12.9012 19.912V17.994C13.1999 18.1247 13.4799 18.232 13.7412 18.316C14.0119 18.4093 14.2919 18.4747 14.5812 18.512C14.8799 18.5587 15.2159 18.582 15.5892 18.582C16.1119 18.582 16.4945 18.456 16.7372 18.204C16.9892 17.9613 17.1152 17.5973 17.1152 17.112V16.958C17.1152 16.818 17.1199 16.664 17.1292 16.496C17.1479 16.328 17.1712 16.1647 17.1992 16.006H17.1152C16.9472 16.37 16.7092 16.65 16.4012 16.846C16.1025 17.042 15.7012 17.14 15.1972 17.14C14.4132 17.14 13.7832 16.7947 13.3072 16.104C12.8312 15.4133 12.5932 14.4333 12.5932 13.164C12.5932 12.3053 12.7052 11.582 12.9292 10.994C13.1532 10.3967 13.4612 9.944 13.8532 9.636C14.2545 9.328 14.7165 9.174 15.2392 9.174ZM16.1772 11.036C15.9439 11.036 15.7525 11.12 15.6032 11.288C15.4539 11.4467 15.3372 11.6847 15.2532 12.002C15.1785 12.3193 15.1412 12.7207 15.1412 13.206C15.1412 13.9247 15.2252 14.4567 15.3932 14.802C15.5705 15.138 15.8412 15.306 16.2052 15.306C16.4199 15.306 16.5972 15.2733 16.7372 15.208C16.8772 15.1333 16.9892 15.0213 17.0732 14.872C17.1572 14.7133 17.2179 14.5173 17.2552 14.284C17.2925 14.0507 17.3112 13.7707 17.3112 13.444V13.15C17.3112 12.674 17.2785 12.282 17.2132 11.974C17.1479 11.6567 17.0312 11.4233 16.8632 11.274C16.7045 11.1153 16.4759 11.036 16.1772 11.036Z" fill="#888888"/>
</svg>
