<svg width="24" height="24" viewBox="0 0 24 24" fill="none" xmlns="http://www.w3.org/2000/svg">
<path d="M10.7948 17L9.8568 13.892H6.6788L5.7408 17H4.4668L7.6308 6.976H8.9048L12.0828 17H10.7948ZM8.6248 9.664C8.5968 9.552 8.55946 9.40733 8.5128 9.23C8.46613 9.04333 8.41946 8.85667 8.3728 8.67C8.32613 8.474 8.2888 8.31533 8.2608 8.194C8.22346 8.362 8.18146 8.53467 8.1348 8.712C8.09746 8.88933 8.06013 9.062 8.0228 9.23C7.98546 9.38867 7.94813 9.53333 7.9108 9.664L7.0008 12.786H9.5488L8.6248 9.664ZM15.358 9.356C15.778 9.356 16.1514 9.44933 16.478 9.636C16.8047 9.81333 17.0894 10.098 17.332 10.49H17.388L17.542 9.496H18.508V17.112C18.508 17.812 18.396 18.4047 18.172 18.89C17.9574 19.3753 17.626 19.7393 17.178 19.982C16.7394 20.234 16.17 20.36 15.47 20.36C15.022 20.36 14.6114 20.3227 14.238 20.248C13.874 20.1733 13.5334 20.0567 13.216 19.898V18.792C13.44 18.904 13.6734 19.002 13.916 19.086C14.1587 19.17 14.4107 19.2307 14.672 19.268C14.9427 19.3147 15.218 19.338 15.498 19.338C16.086 19.338 16.5387 19.1607 16.856 18.806C17.1734 18.4607 17.332 17.9473 17.332 17.266V17C17.332 16.8693 17.3367 16.7013 17.346 16.496C17.3554 16.2907 17.3647 16.1227 17.374 15.992H17.318C17.094 16.3747 16.8187 16.664 16.492 16.86C16.1654 17.0467 15.7827 17.14 15.344 17.14C14.5227 17.14 13.8834 16.804 13.426 16.132C12.9687 15.46 12.74 14.5033 12.74 13.262C12.74 12.4407 12.8427 11.7407 13.048 11.162C13.2627 10.574 13.5614 10.126 13.944 9.818C14.336 9.51 14.8074 9.356 15.358 9.356ZM15.568 10.378C15.2134 10.378 14.9194 10.49 14.686 10.714C14.4527 10.938 14.2707 11.2647 14.14 11.694C14.0187 12.1233 13.958 12.6507 13.958 13.276C13.958 14.228 14.0934 14.942 14.364 15.418C14.644 15.894 15.0547 16.132 15.596 16.132C15.8947 16.132 16.1514 16.0853 16.366 15.992C16.59 15.8893 16.772 15.7307 16.912 15.516C17.052 15.3013 17.1547 15.0353 17.22 14.718C17.2947 14.3913 17.332 14.004 17.332 13.556V13.248C17.332 12.576 17.2667 12.03 17.136 11.61C17.0147 11.1807 16.8234 10.868 16.562 10.672C16.31 10.476 15.9787 10.378 15.568 10.378Z" fill="#888888"/>
</svg>
