<svg width="24" height="24" viewBox="0 0 24 24" fill="none" xmlns="http://www.w3.org/2000/svg">
<path d="M5.17708 17V16.86H5.52708C5.69508 16.86 5.83041 16.8367 5.93308 16.79C6.03574 16.734 6.11974 16.6313 6.18508 16.482C6.25974 16.3327 6.33441 16.1133 6.40908 15.824L8.92908 7.004H9.26508L12.0371 16.286C12.0837 16.454 12.1351 16.58 12.1911 16.664C12.2471 16.7387 12.3171 16.79 12.4011 16.818C12.4944 16.846 12.6251 16.86 12.7931 16.86H12.9331V17H10.3431V16.86H10.7071C11.0244 16.86 11.2251 16.832 11.3091 16.776C11.4024 16.7107 11.4491 16.6033 11.4491 16.454C11.4491 16.3887 11.4351 16.3 11.4071 16.188C11.3791 16.076 11.3417 15.9547 11.2951 15.824C11.2577 15.6933 11.2251 15.5767 11.1971 15.474L10.5951 13.374H7.27708L6.73108 15.292C6.70308 15.404 6.66574 15.5393 6.61908 15.698C6.57241 15.8473 6.53041 15.992 6.49308 16.132C6.46508 16.272 6.45108 16.384 6.45108 16.468C6.45108 16.5987 6.50241 16.6967 6.60508 16.762C6.70774 16.8273 6.91308 16.86 7.22108 16.86H7.73908V17H5.17708ZM7.31908 13.234H10.5531L9.61508 10.014C9.51241 9.622 9.41441 9.27667 9.32108 8.978C9.23708 8.67933 9.16241 8.40867 9.09708 8.166C9.03175 7.92333 8.97108 7.70867 8.91508 7.522C8.88708 7.65267 8.84975 7.788 8.80308 7.928C8.76574 8.068 8.72375 8.21733 8.67708 8.376C8.63975 8.52533 8.59308 8.68867 8.53708 8.866C8.49041 9.04333 8.43908 9.23 8.38308 9.426L7.31908 13.234ZM15.5526 20.374C14.7966 20.374 14.2133 20.192 13.8026 19.828C13.3919 19.464 13.1866 18.9507 13.1866 18.288C13.1866 17.952 13.2566 17.6533 13.3966 17.392C13.5366 17.1307 13.7279 16.9113 13.9706 16.734C14.2226 16.5567 14.5119 16.4307 14.8386 16.356C14.5399 16.2627 14.3253 16.1227 14.1946 15.936C14.0733 15.74 14.0126 15.53 14.0126 15.306C14.0126 15.1007 14.0639 14.9 14.1666 14.704C14.2786 14.508 14.4653 14.298 14.7266 14.074C14.3813 13.8967 14.1153 13.6213 13.9286 13.248C13.7513 12.8653 13.6626 12.4313 13.6626 11.946C13.6626 11.0873 13.8353 10.448 14.1806 10.028C14.5353 9.608 15.0346 9.398 15.6786 9.398C15.9586 9.398 16.2106 9.44933 16.4346 9.552C16.6679 9.64533 16.8686 9.79 17.0366 9.986C17.1113 9.846 17.1999 9.71533 17.3026 9.594C17.4053 9.47267 17.5173 9.37467 17.6386 9.3C17.7599 9.216 17.8953 9.174 18.0446 9.174C18.2313 9.174 18.3666 9.23467 18.4506 9.356C18.5439 9.47733 18.5906 9.61733 18.5906 9.776C18.5906 9.944 18.5533 10.0747 18.4786 10.168C18.4133 10.252 18.3246 10.294 18.2126 10.294C18.2126 10.042 18.1799 9.86 18.1146 9.748C18.0493 9.636 17.9373 9.58 17.7786 9.58C17.6573 9.58 17.5453 9.622 17.4426 9.706C17.3399 9.78067 17.2326 9.90667 17.1206 10.084C17.2513 10.2707 17.3586 10.5133 17.4426 10.812C17.5359 11.1107 17.5826 11.4793 17.5826 11.918C17.5826 12.646 17.4239 13.22 17.1066 13.64C16.7986 14.06 16.3179 14.27 15.6646 14.27C15.5339 14.27 15.3939 14.2607 15.2446 14.242C15.1046 14.214 14.9739 14.1767 14.8526 14.13C14.6753 14.2887 14.5493 14.4427 14.4746 14.592C14.4093 14.7413 14.3766 14.8953 14.3766 15.054C14.3766 15.334 14.4699 15.5533 14.6566 15.712C14.8526 15.8707 15.1046 15.95 15.4126 15.95H16.3926C16.8313 15.95 17.1859 16.034 17.4566 16.202C17.7273 16.3607 17.9233 16.5847 18.0446 16.874C18.1753 17.1633 18.2406 17.504 18.2406 17.896C18.2406 18.6427 18.0119 19.24 17.5546 19.688C17.0973 20.1453 16.4299 20.374 15.5526 20.374ZM15.5946 20.234C16.0986 20.234 16.5046 20.1453 16.8126 19.968C17.1299 19.7907 17.3633 19.534 17.5126 19.198C17.6619 18.862 17.7366 18.4607 17.7366 17.994C17.7366 17.4807 17.6246 17.098 17.4006 16.846C17.1859 16.5847 16.7986 16.454 16.2386 16.454H15.2306C14.9319 16.454 14.6659 16.5287 14.4326 16.678C14.2086 16.8273 14.0313 17.0373 13.9006 17.308C13.7699 17.588 13.7046 17.9147 13.7046 18.288C13.7046 18.6987 13.7746 19.0487 13.9146 19.338C14.0546 19.6273 14.2646 19.8467 14.5446 19.996C14.8246 20.1547 15.1746 20.234 15.5946 20.234ZM15.6366 14.13C15.9446 14.13 16.2013 14.0553 16.4066 13.906C16.6213 13.7473 16.7799 13.5047 16.8826 13.178C16.9853 12.8513 17.0366 12.422 17.0366 11.89C17.0366 11.2927 16.9806 10.826 16.8686 10.49C16.7659 10.1447 16.6073 9.902 16.3926 9.762C16.1873 9.61267 15.9306 9.538 15.6226 9.538C15.3333 9.538 15.0813 9.61733 14.8666 9.776C14.6613 9.92533 14.4979 10.1727 14.3766 10.518C14.2646 10.8633 14.2086 11.3253 14.2086 11.904C14.2086 12.4267 14.2599 12.8513 14.3626 13.178C14.4746 13.5047 14.6379 13.7473 14.8526 13.906C15.0673 14.0553 15.3286 14.13 15.6366 14.13Z" fill="#888888"/>
</svg>
