<svg width="24" height="24" viewBox="0 0 24 24" fill="none" xmlns="http://www.w3.org/2000/svg">
<path d="M9.6153 13L8.88731 10.62H5.2473L4.5193 13H2.2373L5.7653 2.962H8.3553L11.8973 13H9.6153ZM7.65531 6.518C7.60864 6.35933 7.54797 6.15867 7.4733 5.916C7.39864 5.67333 7.32397 5.426 7.2493 5.174C7.17464 4.922 7.11397 4.70267 7.06731 4.516C7.02064 4.70267 6.9553 4.936 6.87131 5.216C6.79664 5.48667 6.72197 5.748 6.64731 6C6.58197 6.24267 6.53064 6.41533 6.4933 6.518L5.7793 8.842H8.3833L7.65531 6.518ZM15.4733 5.216C16.416 5.216 17.1533 5.58933 17.6853 6.336H17.7413L17.9093 5.356H19.6733V13.014C19.6733 14.106 19.3513 14.9367 18.7073 15.506C18.0633 16.0753 17.1113 16.36 15.8513 16.36C15.31 16.36 14.806 16.3273 14.3393 16.262C13.882 16.1967 13.434 16.08 12.9953 15.912V14.246C13.938 14.638 14.932 14.834 15.9773 14.834C17.0507 14.834 17.5873 14.2553 17.5873 13.098V12.944C17.5873 12.7853 17.592 12.622 17.6013 12.454C17.62 12.286 17.634 12.1367 17.6433 12.006H17.5873C17.326 12.4073 17.0133 12.6967 16.6493 12.874C16.2853 13.0513 15.8747 13.14 15.4173 13.14C14.512 13.14 13.8027 12.7947 13.2893 12.104C12.7853 11.404 12.5333 10.4333 12.5333 9.192C12.5333 7.94133 12.7947 6.966 13.3173 6.266C13.84 5.566 14.5587 5.216 15.4733 5.216ZM16.1313 6.91C15.1513 6.91 14.6613 7.68 14.6613 9.22C14.6613 10.7413 15.1607 11.502 16.1593 11.502C16.6913 11.502 17.0833 11.3527 17.3353 11.054C17.5967 10.746 17.7273 10.214 17.7273 9.458V9.206C17.7273 8.38467 17.6013 7.79667 17.3493 7.442C17.0973 7.08733 16.6913 6.91 16.1313 6.91Z" fill="#333333"/>
</svg>
