<svg width="24" height="24" viewBox="0 0 24 24" fill="none" xmlns="http://www.w3.org/2000/svg">
<path d="M2.41 17L7.576 7.004H10.544L11.468 17H9.172L9.06 14.858H5.896L4.874 17H2.41ZM6.806 12.912H8.962L8.822 10.196C8.80333 9.95333 8.78933 9.706 8.78 9.454C8.77067 9.202 8.77067 8.95 8.78 8.698H8.738C8.66333 8.93133 8.57467 9.16467 8.472 9.398C8.37867 9.622 8.27133 9.86 8.15 10.112L6.806 12.912ZM15.0295 20.36C14.4601 20.36 13.9841 20.318 13.6015 20.234C13.2281 20.15 12.8735 20.038 12.5375 19.898V17.924C12.8921 18.12 13.2701 18.2647 13.6715 18.358C14.0728 18.4607 14.4928 18.512 14.9315 18.512C15.8275 18.512 16.3875 18.1013 16.6115 17.28L16.6675 17.028C16.7048 16.888 16.7468 16.7293 16.7935 16.552C16.8495 16.3747 16.8961 16.2253 16.9335 16.104H16.8775C16.6628 16.3747 16.4108 16.6127 16.1215 16.818C15.8321 17.014 15.4588 17.112 15.0015 17.112C14.6281 17.112 14.2828 17.0187 13.9655 16.832C13.6575 16.636 13.4101 16.3327 13.2235 15.922C13.0461 15.5113 12.9575 14.97 12.9575 14.298C12.9575 13.738 13.0321 13.1593 13.1815 12.562C13.3401 11.9647 13.5641 11.4093 13.8535 10.896C14.1521 10.3827 14.5161 9.96733 14.9455 9.65C15.3748 9.33267 15.8648 9.174 16.4155 9.174C16.8915 9.174 17.2648 9.26733 17.5355 9.454C17.8061 9.64067 18.0581 9.916 18.2915 10.28H18.3475L18.7255 9.314H20.5595L18.8795 17.182C18.7115 17.9847 18.4408 18.6147 18.0675 19.072C17.7035 19.5387 17.2648 19.87 16.7515 20.066C16.2381 20.262 15.6641 20.36 15.0295 20.36ZM16.1075 15.264C16.3595 15.264 16.5835 15.166 16.7795 14.97C16.9755 14.7647 17.1388 14.5033 17.2695 14.186C17.4095 13.8687 17.5121 13.5327 17.5775 13.178C17.6521 12.814 17.6895 12.4733 17.6895 12.156C17.6895 11.82 17.6241 11.554 17.4935 11.358C17.3628 11.1527 17.1761 11.05 16.9335 11.05C16.7095 11.05 16.4995 11.1433 16.3035 11.33C16.1075 11.5073 15.9348 11.75 15.7855 12.058C15.6455 12.3567 15.5335 12.688 15.4495 13.052C15.3655 13.416 15.3235 13.7847 15.3235 14.158C15.3235 14.8953 15.5848 15.264 16.1075 15.264Z" fill="#333333"/>
</svg>
