<svg width="24" height="24" viewBox="0 0 24 24" fill="none" xmlns="http://www.w3.org/2000/svg">
<path d="M4.33204 17H5.64804L7.45404 11.26C7.83204 10.112 8.15404 8.992 8.49004 7.802H8.54604C8.88204 8.992 9.20404 10.112 9.56804 11.26L11.374 17H12.732L9.26004 6.738H7.80404L4.33204 17ZM6.15204 13.864H10.884V12.842H6.15204V13.864ZM16.6576 20.5C18.9956 20.5 20.4936 19.296 20.4936 17.882C20.4936 16.622 19.6116 16.076 17.8476 16.076H16.3636C15.3416 16.076 15.0196 15.726 15.0196 15.236C15.0196 14.83 15.2436 14.564 15.5096 14.34C15.8596 14.508 16.2796 14.592 16.6436 14.592C18.1976 14.592 19.4296 13.584 19.4296 11.96C19.4296 11.302 19.1776 10.742 18.8136 10.392H20.3676V9.398H17.7216C17.4556 9.3 17.0776 9.216 16.6436 9.216C15.1036 9.216 13.7876 10.252 13.7876 11.932C13.7876 12.842 14.2916 13.57 14.7956 13.976V14.032C14.3896 14.312 13.9416 14.802 13.9416 15.432C13.9416 16.034 14.2356 16.44 14.6276 16.692V16.748C13.9276 17.196 13.5076 17.826 13.5076 18.47C13.5076 19.772 14.7956 20.5 16.6576 20.5ZM16.6436 13.738C15.7616 13.738 15.0196 13.024 15.0196 11.932C15.0196 10.798 15.7476 10.14 16.6436 10.14C17.5396 10.14 18.2676 10.812 18.2676 11.932C18.2676 13.024 17.5256 13.738 16.6436 13.738ZM16.8256 19.632C15.4536 19.632 14.6276 19.114 14.6276 18.288C14.6276 17.854 14.8516 17.392 15.3976 17C15.7476 17.098 16.0976 17.126 16.3916 17.126H17.7076C18.7016 17.126 19.2476 17.364 19.2476 18.078C19.2476 18.862 18.2956 19.632 16.8256 19.632Z" fill="#888888"/>
</svg>
