<svg width="24" height="24" viewBox="0 0 24 24" fill="none" xmlns="http://www.w3.org/2000/svg">
<path d="M3.43457 17V16.412H3.70057C3.88724 16.412 4.03657 16.384 4.14857 16.328C4.26057 16.272 4.36324 16.1647 4.45657 16.006C4.5499 15.8473 4.65257 15.6187 4.76457 15.32L7.87257 7.004H8.96457L12.1286 15.67C12.2032 15.866 12.2826 16.02 12.3666 16.132C12.4506 16.2347 12.5532 16.3093 12.6746 16.356C12.7959 16.3933 12.9452 16.412 13.1226 16.412H13.3046V17H9.45457V16.412H9.77657C10.0566 16.412 10.2666 16.3607 10.4066 16.258C10.5466 16.146 10.6166 15.9733 10.6166 15.74C10.6166 15.684 10.6119 15.6327 10.6026 15.586C10.5932 15.53 10.5792 15.474 10.5606 15.418C10.5512 15.3527 10.5326 15.2873 10.5046 15.222L9.94457 13.654H6.26257L5.73057 15.124C5.70257 15.1987 5.67924 15.2733 5.66057 15.348C5.6419 15.4227 5.6279 15.4927 5.61857 15.558C5.60924 15.614 5.60457 15.67 5.60457 15.726C5.60457 15.9593 5.67924 16.132 5.82857 16.244C5.98724 16.356 6.22057 16.412 6.52857 16.412H6.85057V17H3.43457ZM6.52857 12.954H9.69257L8.82457 10.504C8.73124 10.224 8.6379 9.958 8.54457 9.706C8.46057 9.454 8.38124 9.21133 8.30657 8.978C8.24124 8.74467 8.18057 8.516 8.12457 8.292C8.08724 8.46 8.04524 8.62333 7.99857 8.782C7.96124 8.94067 7.91457 9.104 7.85857 9.272C7.8119 9.43067 7.7559 9.60333 7.69057 9.79C7.63457 9.96733 7.56457 10.1633 7.48057 10.378L6.52857 12.954ZM16.2662 20.36C15.2956 20.36 14.5676 20.178 14.0822 19.814C13.5969 19.4593 13.3542 18.96 13.3542 18.316C13.3542 17.952 13.4336 17.644 13.5922 17.392C13.7602 17.1493 13.9749 16.958 14.2362 16.818C14.5069 16.678 14.7962 16.58 15.1042 16.524C14.9176 16.44 14.7402 16.3047 14.5722 16.118C14.4136 15.922 14.3342 15.6747 14.3342 15.376C14.3342 15.096 14.4042 14.8533 14.5442 14.648C14.6936 14.4427 14.9269 14.2467 15.2442 14.06C14.8429 13.892 14.5302 13.6167 14.3062 13.234C14.0916 12.842 13.9842 12.4127 13.9842 11.946C13.9842 11.1433 14.2036 10.5133 14.6422 10.056C15.0809 9.58933 15.7389 9.356 16.6162 9.356C16.9522 9.356 17.2696 9.40267 17.5682 9.496C17.8669 9.58933 18.0816 9.69667 18.2122 9.818C18.3056 9.71533 18.4176 9.608 18.5482 9.496C18.6789 9.37467 18.8282 9.272 18.9962 9.188C19.1736 9.104 19.3649 9.062 19.5702 9.062C19.8502 9.062 20.0556 9.13667 20.1862 9.286C20.3262 9.426 20.3962 9.594 20.3962 9.79C20.3962 9.986 20.3356 10.1587 20.2142 10.308C20.1022 10.448 19.9156 10.518 19.6542 10.518C19.6542 10.4153 19.6216 10.3127 19.5562 10.21C19.5002 10.098 19.3789 10.042 19.1922 10.042C19.0709 10.042 18.9636 10.056 18.8702 10.084C18.7769 10.112 18.6836 10.154 18.5902 10.21C18.7489 10.406 18.8796 10.6393 18.9822 10.91C19.0849 11.1713 19.1362 11.5027 19.1362 11.904C19.1362 12.5947 18.9262 13.1687 18.5062 13.626C18.0956 14.0833 17.4656 14.312 16.6162 14.312C16.5042 14.312 16.3736 14.3073 16.2242 14.298C16.0842 14.2793 15.9676 14.2607 15.8742 14.242C15.6969 14.3353 15.5429 14.452 15.4122 14.592C15.2816 14.732 15.2162 14.9093 15.2162 15.124C15.2162 15.292 15.2676 15.4227 15.3702 15.516C15.4822 15.6093 15.7202 15.656 16.0842 15.656H17.6662C18.2262 15.656 18.6742 15.7493 19.0102 15.936C19.3462 16.1133 19.5889 16.3607 19.7382 16.678C19.8969 16.986 19.9762 17.3407 19.9762 17.742C19.9762 18.5447 19.6729 19.1793 19.0662 19.646C18.4689 20.122 17.5356 20.36 16.2662 20.36ZM16.2942 19.674C16.9662 19.674 17.4842 19.5993 17.8482 19.45C18.2122 19.31 18.4642 19.1093 18.6042 18.848C18.7536 18.596 18.8282 18.3067 18.8282 17.98C18.8282 17.5507 18.7069 17.2613 18.4642 17.112C18.2216 16.972 17.8669 16.902 17.4002 16.902H16.0282C15.7669 16.902 15.5196 16.9347 15.2862 17C15.0529 17.0747 14.8616 17.2053 14.7122 17.392C14.5629 17.5787 14.4882 17.8587 14.4882 18.232C14.4882 18.5027 14.5396 18.7453 14.6422 18.96C14.7449 19.184 14.9269 19.3567 15.1882 19.478C15.4496 19.6087 15.8182 19.674 16.2942 19.674ZM16.5742 13.64C16.8822 13.64 17.1249 13.5793 17.3022 13.458C17.4889 13.3367 17.6196 13.1453 17.6942 12.884C17.7782 12.6227 17.8202 12.2913 17.8202 11.89C17.8202 11.47 17.7782 11.1247 17.6942 10.854C17.6102 10.574 17.4749 10.3687 17.2882 10.238C17.1109 10.1073 16.8682 10.042 16.5602 10.042C16.2616 10.042 16.0189 10.112 15.8322 10.252C15.6456 10.3827 15.5102 10.588 15.4262 10.868C15.3422 11.1387 15.3002 11.484 15.3002 11.904C15.3002 12.296 15.3422 12.6227 15.4262 12.884C15.5196 13.136 15.6596 13.3273 15.8462 13.458C16.0329 13.5793 16.2756 13.64 16.5742 13.64Z" fill="#888888"/>
</svg>
