<svg width="24" height="24" viewBox="0 0 24 24" fill="none" xmlns="http://www.w3.org/2000/svg">
<path d="M4.25685 17V16.86H4.71885C4.89618 16.86 5.04085 16.832 5.15285 16.776C5.27418 16.7107 5.37685 16.6033 5.46085 16.454C5.54485 16.3047 5.61952 16.104 5.68485 15.852L8.05085 7.004H9.89885L12.4749 15.992C12.5402 16.2067 12.6055 16.3793 12.6709 16.51C12.7455 16.6407 12.8249 16.734 12.9089 16.79C13.0022 16.8367 13.1142 16.86 13.2449 16.86H13.3709V17H9.04485V16.86H9.67485C9.86152 16.86 9.98752 16.818 10.0529 16.734C10.1182 16.6407 10.1509 16.524 10.1509 16.384C10.1509 16.3093 10.1415 16.2347 10.1229 16.16C10.1135 16.0853 10.0995 16.006 10.0809 15.922C10.0622 15.838 10.0435 15.7587 10.0249 15.684L9.45085 13.346H6.49685L5.93685 15.46C5.89952 15.6 5.86685 15.7307 5.83885 15.852C5.82018 15.964 5.80152 16.0667 5.78285 16.16C5.77352 16.244 5.76885 16.3233 5.76885 16.398C5.76885 16.566 5.80619 16.6873 5.88085 16.762C5.95552 16.8273 6.06752 16.86 6.21685 16.86H7.05685V17H4.25685ZM6.53885 13.206H9.40885L8.38685 9.034C8.34952 8.87533 8.31219 8.71667 8.27485 8.558C8.23752 8.39933 8.19552 8.23133 8.14885 8.054C8.11152 7.87667 8.07419 7.68533 8.03685 7.48C8.00885 7.62933 7.97619 7.774 7.93885 7.914C7.91085 8.04467 7.88285 8.17533 7.85485 8.306C7.82685 8.42733 7.79419 8.54867 7.75685 8.67C7.72885 8.782 7.70085 8.894 7.67285 9.006L6.53885 13.206ZM15.8446 20.276C14.9113 20.276 14.1926 20.1407 13.6886 19.87C13.1846 19.6087 12.9326 19.2213 12.9326 18.708C12.9326 18.4187 13.0166 18.176 13.1846 17.98C13.3526 17.784 13.5999 17.63 13.9266 17.518C14.2533 17.406 14.6593 17.3407 15.1446 17.322C14.6219 17.294 14.2299 17.1307 13.9686 16.832C13.7073 16.5333 13.5766 16.1973 13.5766 15.824C13.5766 15.4693 13.6933 15.138 13.9266 14.83C14.1693 14.5127 14.5379 14.298 15.0326 14.186C14.5753 14.0273 14.1926 13.7567 13.8846 13.374C13.5766 12.982 13.4226 12.4873 13.4226 11.89C13.4226 11.0593 13.6419 10.42 14.0806 9.972C14.5193 9.524 15.2099 9.3 16.1526 9.3C16.4793 9.3 16.7873 9.34667 17.0766 9.44C17.3659 9.524 17.6226 9.64533 17.8466 9.804C17.9306 9.64533 18.0193 9.496 18.1126 9.356C18.2059 9.20667 18.3226 9.08533 18.4626 8.992C18.6119 8.89867 18.7986 8.852 19.0226 8.852C19.2933 8.852 19.4986 8.936 19.6386 9.104C19.7879 9.272 19.8626 9.468 19.8626 9.692C19.8626 9.92533 19.7973 10.1307 19.6666 10.308C19.5359 10.4853 19.2979 10.574 18.9526 10.574C18.9526 10.2193 18.9106 9.96267 18.8266 9.804C18.7519 9.64533 18.6259 9.566 18.4486 9.566C18.3553 9.566 18.2713 9.58933 18.1966 9.636C18.1219 9.68267 18.0379 9.76667 17.9446 9.888C18.2339 10.112 18.4579 10.392 18.6166 10.728C18.7753 11.0547 18.8546 11.4187 18.8546 11.82C18.8546 12.576 18.6399 13.192 18.2106 13.668C17.7813 14.1347 17.0953 14.368 16.1526 14.368C15.9846 14.368 15.8213 14.3587 15.6626 14.34C15.5039 14.312 15.3453 14.2793 15.1866 14.242C15.0839 14.3167 15.0046 14.41 14.9486 14.522C14.8926 14.6247 14.8646 14.7367 14.8646 14.858C14.8646 15.054 14.9253 15.2033 15.0466 15.306C15.1773 15.3993 15.3686 15.446 15.6206 15.446H17.0206C17.5806 15.446 18.0426 15.53 18.4066 15.698C18.7706 15.866 19.0413 16.1087 19.2186 16.426C19.4053 16.7433 19.4986 17.126 19.4986 17.574C19.4986 18.414 19.2046 19.072 18.6166 19.548C18.0379 20.0333 17.1139 20.276 15.8446 20.276ZM16.1246 20.136C16.5633 20.136 16.9226 20.0753 17.2026 19.954C17.4826 19.842 17.6926 19.6693 17.8326 19.436C17.9726 19.2027 18.0426 18.9133 18.0426 18.568C18.0426 18.1573 17.9399 17.8447 17.7346 17.63C17.5293 17.4247 17.1839 17.322 16.6986 17.322H15.8166C15.6113 17.322 15.4059 17.3547 15.2006 17.42C14.9953 17.4947 14.8273 17.63 14.6966 17.826C14.5659 18.022 14.5006 18.302 14.5006 18.666C14.5006 19.0393 14.5753 19.3333 14.7246 19.548C14.8739 19.7627 15.0699 19.912 15.3126 19.996C15.5646 20.0893 15.8353 20.136 16.1246 20.136ZM16.1246 14.228C16.3206 14.228 16.4699 14.1673 16.5726 14.046C16.6846 13.9247 16.7639 13.696 16.8106 13.36C16.8573 13.024 16.8806 12.5387 16.8806 11.904C16.8806 11.232 16.8573 10.7187 16.8106 10.364C16.7639 10.0093 16.6846 9.76667 16.5726 9.636C16.4699 9.50533 16.3253 9.44 16.1386 9.44C15.9519 9.44 15.8026 9.50533 15.6906 9.636C15.5786 9.76667 15.4993 10.0093 15.4526 10.364C15.4059 10.7187 15.3826 11.2367 15.3826 11.918C15.3826 12.5433 15.4059 13.024 15.4526 13.36C15.4993 13.696 15.5739 13.9247 15.6766 14.046C15.7886 14.1673 15.9379 14.228 16.1246 14.228Z" fill="#888888"/>
</svg>
