<svg width="24" height="24" viewBox="0 0 24 24" fill="none" xmlns="http://www.w3.org/2000/svg">
<path d="M10.7897 17L9.75366 13.892H6.39366L5.37166 17H4.09766L7.45766 6.976H8.68966L12.0637 17H10.7897ZM8.45166 9.664C8.42366 9.552 8.38166 9.40733 8.32566 9.23C8.27899 9.04333 8.22766 8.85667 8.17166 8.67C8.12499 8.474 8.08766 8.31533 8.05966 8.194C8.03166 8.362 7.99432 8.53467 7.94766 8.712C7.91032 8.88933 7.86832 9.062 7.82166 9.23C7.77499 9.38867 7.73299 9.53333 7.69566 9.664L6.71566 12.786H9.43166L8.45166 9.664ZM15.54 9.356C15.988 9.356 16.3847 9.44933 16.73 9.636C17.0754 9.81333 17.374 10.098 17.626 10.49H17.696L17.85 9.496H18.83V17.112C18.83 17.812 18.7134 18.4047 18.48 18.89C18.256 19.3753 17.9107 19.7393 17.444 19.982C16.9774 20.234 16.38 20.36 15.652 20.36C15.1854 20.36 14.756 20.3227 14.364 20.248C13.972 20.1733 13.6127 20.0567 13.286 19.898V18.792C13.5194 18.904 13.762 19.002 14.014 19.086C14.2754 19.17 14.546 19.2307 14.826 19.268C15.106 19.3147 15.3954 19.338 15.694 19.338C16.31 19.338 16.786 19.1607 17.122 18.806C17.4674 18.4607 17.64 17.9473 17.64 17.266V17C17.64 16.8693 17.6447 16.7013 17.654 16.496C17.6634 16.2907 17.6727 16.1227 17.682 15.992H17.626C17.3834 16.3747 17.0894 16.664 16.744 16.86C16.408 17.0467 16.0067 17.14 15.54 17.14C14.672 17.14 13.9954 16.804 13.51 16.132C13.0247 15.46 12.782 14.5033 12.782 13.262C12.782 12.4407 12.894 11.7407 13.118 11.162C13.342 10.574 13.6547 10.126 14.056 9.818C14.4667 9.51 14.9614 9.356 15.54 9.356ZM15.736 10.378C15.3627 10.378 15.0454 10.49 14.784 10.714C14.532 10.938 14.3407 11.2647 14.21 11.694C14.0794 12.1233 14.014 12.6507 14.014 13.276C14.014 14.228 14.1587 14.942 14.448 15.418C14.7467 15.894 15.1854 16.132 15.764 16.132C16.0907 16.132 16.3707 16.0853 16.604 15.992C16.8374 15.8893 17.0287 15.7307 17.178 15.516C17.3367 15.3013 17.4534 15.0353 17.528 14.718C17.6027 14.3913 17.64 14.004 17.64 13.556V13.248C17.64 12.576 17.5747 12.03 17.444 11.61C17.3134 11.1807 17.1034 10.868 16.814 10.672C16.534 10.476 16.1747 10.378 15.736 10.378Z" fill="#888888"/>
</svg>
