<svg width="24" height="24" viewBox="0 0 24 24" fill="none" xmlns="http://www.w3.org/2000/svg">
<path d="M4.48162 17L8.72362 6.962H11.2996L11.3696 17H9.22762L9.29762 14.732H7.54762L6.69362 17H4.48162ZM8.23362 12.968H9.40962L9.52162 10.126C9.53095 9.902 9.54028 9.68733 9.54962 9.482C9.55895 9.26733 9.57295 9.03867 9.59162 8.796H9.54962C9.51228 9.02 9.46095 9.23467 9.39562 9.44C9.33962 9.64533 9.27428 9.86467 9.19962 10.098L8.23362 12.968ZM13.8919 20.36C13.4906 20.36 13.1079 20.3133 12.7439 20.22C12.3892 20.136 12.0859 20.0287 11.8339 19.898L11.8479 18.162C11.9972 18.2553 12.1839 18.344 12.4079 18.428C12.6319 18.5213 12.8746 18.596 13.1359 18.652C13.3972 18.708 13.6399 18.736 13.8639 18.736C14.2466 18.736 14.5406 18.624 14.7459 18.4C14.9512 18.176 15.0959 17.8727 15.1799 17.49L15.2639 17.182C15.2826 17.098 15.3012 17.0093 15.3199 16.916C15.3479 16.8227 15.3759 16.72 15.4039 16.608C15.4412 16.496 15.4786 16.3793 15.5159 16.258H15.4879C15.3292 16.4727 15.1706 16.6453 15.0119 16.776C14.8532 16.9067 14.6852 17 14.5079 17.056C14.3306 17.112 14.1392 17.14 13.9339 17.14C13.6352 17.14 13.3692 17.056 13.1359 16.888C12.9119 16.72 12.7392 16.4727 12.6179 16.146C12.4966 15.8193 12.4359 15.432 12.4359 14.984C12.4359 14.5733 12.4732 14.116 12.5479 13.612C12.6319 13.0987 12.7579 12.5853 12.9259 12.072C13.0939 11.5587 13.2992 11.0827 13.5419 10.644C13.7846 10.2053 14.0692 9.85067 14.3959 9.58C14.7319 9.30933 15.1146 9.174 15.5439 9.174C15.7866 9.174 15.9872 9.21133 16.1459 9.286C16.3139 9.36067 16.4539 9.47733 16.5659 9.636C16.6779 9.79467 16.7666 10 16.8319 10.252H16.8599L17.1819 9.314H18.8619L17.1399 17.448C16.9999 18.1387 16.7806 18.6987 16.4819 19.128C16.1926 19.5573 15.8286 19.87 15.3899 20.066C14.9606 20.262 14.4612 20.36 13.8919 20.36ZM14.8579 15.446C15.0166 15.446 15.1612 15.3807 15.2919 15.25C15.4319 15.11 15.5532 14.9233 15.6559 14.69C15.7679 14.4567 15.8659 14.2 15.9499 13.92C16.0339 13.64 16.1039 13.3553 16.1599 13.066C16.2159 12.7767 16.2579 12.5013 16.2859 12.24C16.3139 11.9787 16.3279 11.7593 16.3279 11.582C16.3279 11.358 16.2859 11.1853 16.2019 11.064C16.1179 10.9333 15.9919 10.868 15.8239 10.868C15.6466 10.868 15.4832 10.966 15.3339 11.162C15.1939 11.358 15.0679 11.61 14.9559 11.918C14.8439 12.2167 14.7506 12.5387 14.6759 12.884C14.6012 13.2293 14.5452 13.556 14.5079 13.864C14.4706 14.1627 14.4519 14.4007 14.4519 14.578C14.4519 14.8673 14.4846 15.0867 14.5499 15.236C14.6246 15.376 14.7272 15.446 14.8579 15.446Z" fill="#888888"/>
</svg>
