<svg width="24" height="24" viewBox="0 0 24 24" fill="none" xmlns="http://www.w3.org/2000/svg">
<path d="M6.57209 17L10.6601 6.962H11.3181L11.2621 17H10.7301L10.7581 13.192H8.68609L7.13209 17H6.57209ZM8.85409 12.702H10.7721L10.8281 8.67C10.8281 8.474 10.8281 8.28733 10.8281 8.11C10.8374 7.92333 10.8468 7.76467 10.8561 7.634H10.8281C10.7908 7.75533 10.7394 7.90467 10.6741 8.082C10.6088 8.25 10.5294 8.446 10.4361 8.67L8.85409 12.702ZM13.2492 20.36C12.9786 20.36 12.7219 20.318 12.4792 20.234C12.2366 20.1593 12.0499 20.0847 11.9192 20.01V19.464C12.0126 19.5293 12.1292 19.5947 12.2692 19.66C12.4092 19.7253 12.5679 19.7767 12.7452 19.814C12.9226 19.8607 13.0952 19.884 13.2632 19.884C13.8512 19.884 14.2852 19.6927 14.5652 19.31C14.8546 18.9273 15.0832 18.344 15.2512 17.56L15.4472 16.734C15.4566 16.6687 15.4706 16.5893 15.4892 16.496C15.5172 16.3933 15.5452 16.2813 15.5732 16.16C15.6012 16.0387 15.6292 15.9173 15.6572 15.796H15.6292C15.4799 16.076 15.3212 16.3187 15.1532 16.524C14.9852 16.72 14.7986 16.874 14.5932 16.986C14.3972 17.0887 14.1732 17.14 13.9212 17.14C13.6412 17.14 13.3986 17.0607 13.1932 16.902C12.9972 16.7433 12.8479 16.51 12.7452 16.202C12.6426 15.894 12.5912 15.5207 12.5912 15.082C12.5912 14.6527 12.6286 14.186 12.7032 13.682C12.7872 13.178 12.9039 12.6787 13.0532 12.184C13.2119 11.6893 13.4079 11.2367 13.6412 10.826C13.8746 10.4153 14.1452 10.0887 14.4532 9.846C14.7706 9.594 15.1252 9.468 15.5172 9.468C15.7599 9.468 15.9606 9.524 16.1192 9.636C16.2872 9.748 16.4179 9.89733 16.5112 10.084C16.6046 10.2613 16.6699 10.4713 16.7072 10.714H16.7492L17.0152 9.608H17.4352L15.7412 17.644C15.6106 18.2227 15.4426 18.7127 15.2372 19.114C15.0412 19.5247 14.7799 19.8327 14.4532 20.038C14.1359 20.2527 13.7346 20.36 13.2492 20.36ZM14.0332 16.664C14.3319 16.664 14.5932 16.5567 14.8172 16.342C15.0412 16.1273 15.2419 15.8427 15.4192 15.488C15.5966 15.124 15.7506 14.732 15.8812 14.312C16.0119 13.892 16.1146 13.4767 16.1892 13.066C16.2732 12.6553 16.3339 12.2867 16.3712 11.96C16.4086 11.624 16.4272 11.3673 16.4272 11.19C16.4272 10.8167 16.3479 10.518 16.1892 10.294C16.0306 10.0607 15.8066 9.944 15.5172 9.944C15.2092 9.944 14.9292 10.0607 14.6772 10.294C14.4252 10.518 14.2012 10.8213 14.0052 11.204C13.8186 11.5773 13.6552 11.9927 13.5152 12.45C13.3846 12.898 13.2866 13.3507 13.2212 13.808C13.1559 14.256 13.1232 14.6667 13.1232 15.04C13.1232 15.6187 13.2026 16.034 13.3612 16.286C13.5199 16.538 13.7439 16.664 14.0332 16.664Z" fill="#888888"/>
</svg>
