<svg width="24" height="24" viewBox="0 0 24 24" fill="none" xmlns="http://www.w3.org/2000/svg">
<path d="M9.79757 17L9.41957 15.054H7.26357L6.88557 17H4.30957L6.74557 7.004H9.88157L12.3456 17H9.79757ZM8.64957 10.77C8.6029 10.518 8.5609 10.2753 8.52357 10.042C8.48624 9.80867 8.45357 9.58467 8.42557 9.37C8.39757 9.146 8.36957 8.94067 8.34157 8.754C8.3229 8.93133 8.29957 9.12733 8.27157 9.342C8.24357 9.55667 8.20624 9.78067 8.15957 10.014C8.12224 10.2473 8.08024 10.49 8.03357 10.742L7.61357 13.01H9.05557L8.64957 10.77ZM15.1066 9.118C15.4706 9.118 15.774 9.19733 16.0166 9.356C16.2686 9.51467 16.502 9.804 16.7166 10.224H16.8426L17.0246 9.258H18.9846V16.314C18.9846 17.182 18.8586 17.9147 18.6066 18.512C18.364 19.1187 17.9813 19.576 17.4586 19.884C16.936 20.2013 16.2546 20.36 15.4146 20.36C14.9573 20.36 14.542 20.3087 14.1686 20.206C13.8046 20.1127 13.4593 19.968 13.1326 19.772V17.826C13.4126 17.966 13.674 18.078 13.9166 18.162C14.1686 18.2553 14.4113 18.3207 14.6446 18.358C14.8873 18.4047 15.1206 18.428 15.3446 18.428C15.7553 18.428 16.0866 18.33 16.3386 18.134C16.5906 17.9473 16.7166 17.6207 16.7166 17.154V17.07C16.7166 16.9113 16.7213 16.7293 16.7306 16.524C16.7493 16.3187 16.768 16.146 16.7866 16.006H16.7166C16.5113 16.4073 16.278 16.6967 16.0166 16.874C15.7646 17.0513 15.438 17.14 15.0366 17.14C14.346 17.14 13.8 16.7853 13.3986 16.076C12.9973 15.3667 12.7966 14.4053 12.7966 13.192C12.7966 12.3427 12.8853 11.6147 13.0626 11.008C13.2493 10.4013 13.5153 9.93467 13.8606 9.608C14.206 9.28133 14.6213 9.118 15.1066 9.118ZM15.8486 11.064C15.69 11.064 15.5546 11.1433 15.4426 11.302C15.3306 11.4513 15.242 11.6847 15.1766 12.002C15.1206 12.3193 15.0926 12.7253 15.0926 13.22C15.0926 13.8733 15.158 14.368 15.2886 14.704C15.4193 15.0307 15.6106 15.194 15.8626 15.194C16.012 15.194 16.138 15.1613 16.2406 15.096C16.3526 15.0213 16.4413 14.914 16.5066 14.774C16.5813 14.6247 16.6326 14.438 16.6606 14.214C16.698 13.99 16.7166 13.724 16.7166 13.416V13.01C16.7166 12.5433 16.684 12.17 16.6186 11.89C16.5626 11.6007 16.4693 11.3907 16.3386 11.26C16.2173 11.1293 16.054 11.064 15.8486 11.064Z" fill="#888888"/>
</svg>
