<svg width="24" height="24" viewBox="0 0 24 24" fill="none" xmlns="http://www.w3.org/2000/svg">
<path d="M2.32814 17V16.202H2.45414C2.69681 16.202 2.90681 16.1413 3.08414 16.02C3.27081 15.8893 3.44347 15.6187 3.60214 15.208L6.59814 7.004H8.85214L11.7501 15.222C11.8715 15.586 12.0255 15.8427 12.2121 15.992C12.3988 16.132 12.6135 16.202 12.8561 16.202H13.0521V17H8.12414V16.202H8.68414C8.82414 16.202 8.95481 16.1693 9.07614 16.104C9.20681 16.0293 9.27214 15.8987 9.27214 15.712C9.27214 15.5907 9.25347 15.4693 9.21614 15.348C9.18814 15.2267 9.16014 15.1333 9.13214 15.068L8.67014 13.738H5.39414L5.03014 14.83C5.00214 14.942 4.96481 15.0867 4.91814 15.264C4.87147 15.432 4.84814 15.5767 4.84814 15.698C4.84814 16.034 5.03481 16.202 5.40814 16.202H6.05214V17H2.32814ZM5.68814 12.814H8.37614L7.60614 10.308C7.52214 10.0373 7.43347 9.73867 7.34014 9.412C7.24681 9.08533 7.16747 8.76333 7.10214 8.446C7.02747 8.74467 6.93881 9.05733 6.83614 9.384C6.73347 9.70133 6.63547 10 6.54214 10.28L5.68814 12.814ZM16.1172 20.304C13.8305 20.304 12.6872 19.6787 12.6872 18.428C12.6872 17.9613 12.8598 17.588 13.2052 17.308C13.5505 17.028 14.0265 16.8693 14.6332 16.832C14.3625 16.7293 14.1058 16.5847 13.8632 16.398C13.6298 16.202 13.5132 15.9313 13.5132 15.586C13.5132 15.2687 13.6392 14.9933 13.8912 14.76C14.1525 14.5267 14.4885 14.3027 14.8992 14.088C14.4512 13.948 14.0732 13.7007 13.7652 13.346C13.4665 12.982 13.3172 12.4967 13.3172 11.89C13.3172 11.0593 13.5692 10.42 14.0732 9.972C14.5772 9.524 15.3658 9.3 16.4392 9.3C16.7938 9.3 17.1112 9.33267 17.3912 9.398C17.6712 9.46333 17.9325 9.55667 18.1752 9.678C18.4085 9.41667 18.6418 9.216 18.8752 9.076C19.1085 8.936 19.3932 8.866 19.7292 8.866C20.0558 8.866 20.3032 8.95 20.4712 9.118C20.6485 9.286 20.7372 9.482 20.7372 9.706C20.7372 9.93933 20.6625 10.1447 20.5132 10.322C20.3638 10.49 20.0885 10.574 19.6872 10.574C19.6872 10.35 19.6265 10.1913 19.5052 10.098C19.3932 9.99533 19.2812 9.944 19.1692 9.944C19.0852 9.944 19.0012 9.958 18.9172 9.986C18.8332 10.014 18.7632 10.0467 18.7072 10.084C18.9312 10.28 19.1178 10.5273 19.2672 10.826C19.4165 11.1247 19.4912 11.4653 19.4912 11.848C19.4912 12.5947 19.2438 13.2013 18.7492 13.668C18.2638 14.1347 17.4938 14.368 16.4392 14.368C16.3365 14.368 16.1965 14.3633 16.0192 14.354C15.8418 14.3447 15.7112 14.3353 15.6272 14.326C15.5152 14.3633 15.4078 14.4473 15.3052 14.578C15.2118 14.6993 15.1652 14.8347 15.1652 14.984C15.1652 15.1333 15.2258 15.2407 15.3472 15.306C15.4685 15.3713 15.6178 15.404 15.7952 15.404H17.4752C18.4458 15.404 19.1598 15.5907 19.6172 15.964C20.0838 16.328 20.3172 16.86 20.3172 17.56C20.3172 18.4187 19.9718 19.0907 19.2812 19.576C18.5905 20.0613 17.5358 20.304 16.1172 20.304ZM16.4112 13.486C16.7938 13.486 17.0412 13.3367 17.1532 13.038C17.2652 12.73 17.3212 12.3473 17.3212 11.89C17.3212 11.414 17.2605 11.0127 17.1392 10.686C17.0272 10.3593 16.7798 10.196 16.3972 10.196C16.0238 10.196 15.7718 10.364 15.6412 10.7C15.5198 11.036 15.4592 11.4373 15.4592 11.904C15.4592 12.352 15.5245 12.73 15.6552 13.038C15.7858 13.3367 16.0378 13.486 16.4112 13.486ZM16.1452 19.408C17.6665 19.408 18.4272 18.988 18.4272 18.148C18.4272 17.6627 18.0865 17.42 17.4052 17.42H15.6832C15.5245 17.42 15.3565 17.448 15.1792 17.504C15.0112 17.56 14.8665 17.658 14.7452 17.798C14.6238 17.9473 14.5632 18.1573 14.5632 18.428C14.5632 18.7733 14.7078 19.0207 14.9972 19.17C15.2958 19.3287 15.6785 19.408 16.1452 19.408Z" fill="#333333"/>
</svg>
