<svg width="24" height="24" viewBox="0 0 24 24" fill="none" xmlns="http://www.w3.org/2000/svg">
<path d="M9.6153 17L8.88731 14.62H5.2473L4.5193 17H2.2373L5.7653 6.962H8.3553L11.8973 17H9.6153ZM7.65531 10.518C7.60864 10.3593 7.54797 10.1587 7.4733 9.916C7.39864 9.67333 7.32397 9.426 7.2493 9.174C7.17464 8.922 7.11397 8.70267 7.06731 8.516C7.02064 8.70267 6.9553 8.936 6.87131 9.216C6.79664 9.48667 6.72197 9.748 6.64731 10C6.58197 10.2427 6.53064 10.4153 6.4933 10.518L5.7793 12.842H8.3833L7.65531 10.518ZM15.4733 9.216C16.416 9.216 17.1533 9.58933 17.6853 10.336H17.7413L17.9093 9.356H19.6733V17.014C19.6733 18.106 19.3513 18.9367 18.7073 19.506C18.0633 20.0753 17.1113 20.36 15.8513 20.36C15.31 20.36 14.806 20.3273 14.3393 20.262C13.882 20.1967 13.434 20.08 12.9953 19.912V18.246C13.938 18.638 14.932 18.834 15.9773 18.834C17.0507 18.834 17.5873 18.2553 17.5873 17.098V16.944C17.5873 16.7853 17.592 16.622 17.6013 16.454C17.62 16.286 17.634 16.1367 17.6433 16.006H17.5873C17.326 16.4073 17.0133 16.6967 16.6493 16.874C16.2853 17.0513 15.8747 17.14 15.4173 17.14C14.512 17.14 13.8027 16.7947 13.2893 16.104C12.7853 15.404 12.5333 14.4333 12.5333 13.192C12.5333 11.9413 12.7947 10.966 13.3173 10.266C13.84 9.566 14.5587 9.216 15.4733 9.216ZM16.1313 10.91C15.1513 10.91 14.6613 11.68 14.6613 13.22C14.6613 14.7413 15.1607 15.502 16.1593 15.502C16.6913 15.502 17.0833 15.3527 17.3353 15.054C17.5967 14.746 17.7273 14.214 17.7273 13.458V13.206C17.7273 12.3847 17.6013 11.7967 17.3493 11.442C17.0973 11.0873 16.6913 10.91 16.1313 10.91Z" fill="#333333"/>
</svg>
