<svg width="24" height="24" viewBox="0 0 24 24" fill="none" xmlns="http://www.w3.org/2000/svg">
<path d="M2.18491 17V16.146H2.28291C2.44158 16.146 2.59091 16.1227 2.73091 16.076C2.87091 16.02 3.00158 15.922 3.12291 15.782C3.24425 15.642 3.35158 15.4413 3.44491 15.18L6.42691 7.004H8.96091L11.8169 15.208C11.9009 15.4227 11.9989 15.6 12.1109 15.74C12.2229 15.88 12.3489 15.9827 12.4889 16.048C12.6382 16.1133 12.7969 16.146 12.9649 16.146H13.1189V17H7.93891V16.146H8.49891C8.64825 16.146 8.78358 16.118 8.90491 16.062C9.02625 16.006 9.08691 15.8893 9.08691 15.712C9.08691 15.6187 9.07758 15.53 9.05891 15.446C9.04025 15.3527 9.01691 15.2687 8.98891 15.194C8.97025 15.1193 8.95158 15.0633 8.93291 15.026L8.49891 13.752H5.30691L4.98491 14.76C4.96625 14.8347 4.93825 14.928 4.90091 15.04C4.87291 15.152 4.84491 15.2687 4.81691 15.39C4.79825 15.502 4.78891 15.6047 4.78891 15.698C4.78891 15.838 4.82625 15.95 4.90091 16.034C4.97558 16.1087 5.11091 16.146 5.30691 16.146H5.99291V17H2.18491ZM5.61491 12.786H8.19091L7.39291 10.112C7.34625 9.944 7.29491 9.776 7.23891 9.608C7.19225 9.43067 7.14558 9.24867 7.09891 9.062C7.05225 8.866 7.01025 8.66533 6.97291 8.46C6.93558 8.60933 6.89358 8.75867 6.84691 8.908C6.80958 9.048 6.77225 9.188 6.73491 9.328C6.69758 9.468 6.65558 9.60333 6.60891 9.734C6.57158 9.85533 6.53425 9.97667 6.49691 10.098L5.61491 12.786ZM16.1927 20.262C15.0073 20.262 14.1207 20.108 13.5327 19.8C12.9447 19.492 12.6507 19.0393 12.6507 18.442C12.6507 18.1433 12.73 17.8773 12.8887 17.644C13.0567 17.42 13.29 17.238 13.5887 17.098C13.8873 16.958 14.2373 16.8787 14.6387 16.86C14.3493 16.7573 14.074 16.6127 13.8127 16.426C13.5607 16.2393 13.4347 15.9733 13.4347 15.628C13.4347 15.3013 13.57 15.0213 13.8407 14.788C14.1207 14.5453 14.4847 14.312 14.9327 14.088C14.466 13.9573 14.0647 13.7147 13.7287 13.36C13.402 13.0053 13.2387 12.5107 13.2387 11.876C13.2387 11.0453 13.5 10.406 14.0227 9.958C14.5547 9.51 15.3853 9.286 16.5147 9.286C16.888 9.286 17.2147 9.314 17.4947 9.37C17.7747 9.41667 18.0453 9.50067 18.3067 9.622C18.4653 9.454 18.6193 9.30933 18.7687 9.188C18.9273 9.05733 19.1 8.95933 19.2867 8.894C19.4733 8.81933 19.6927 8.782 19.9447 8.782C20.2713 8.782 20.5187 8.87067 20.6867 9.048C20.864 9.216 20.9527 9.42133 20.9527 9.664C20.9527 9.90667 20.8733 10.1213 20.7147 10.308C20.556 10.4947 20.2713 10.588 19.8607 10.588C19.8607 10.336 19.8 10.1633 19.6787 10.07C19.5573 9.97667 19.45 9.93 19.3567 9.93C19.254 9.93 19.1653 9.944 19.0907 9.972C19.016 10 18.9507 10.0233 18.8947 10.042C19.1373 10.2287 19.338 10.4667 19.4967 10.756C19.6647 11.0453 19.7487 11.3953 19.7487 11.806C19.7487 12.5713 19.4873 13.192 18.9647 13.668C18.4513 14.144 17.6347 14.382 16.5147 14.382C16.4213 14.382 16.2813 14.3773 16.0947 14.368C15.908 14.3587 15.7773 14.3447 15.7027 14.326C15.6093 14.354 15.5113 14.4333 15.4087 14.564C15.3153 14.6853 15.2687 14.816 15.2687 14.956C15.2687 15.096 15.3293 15.194 15.4507 15.25C15.572 15.306 15.712 15.334 15.8707 15.334H17.5507C18.2227 15.334 18.778 15.418 19.2167 15.586C19.6553 15.7447 19.982 15.9873 20.1967 16.314C20.4113 16.6313 20.5187 17.0327 20.5187 17.518C20.5187 18.3673 20.164 19.0347 19.4547 19.52C18.7453 20.0147 17.658 20.262 16.1927 20.262ZM16.2347 19.31C16.692 19.31 17.084 19.268 17.4107 19.184C17.7467 19.1 18.0033 18.9693 18.1807 18.792C18.358 18.624 18.4467 18.4187 18.4467 18.176C18.4467 17.9987 18.372 17.84 18.2227 17.7C18.0827 17.5693 17.854 17.504 17.5367 17.504H15.7307C15.6 17.504 15.4507 17.532 15.2827 17.588C15.124 17.644 14.984 17.742 14.8627 17.882C14.7507 18.022 14.6947 18.2133 14.6947 18.456C14.6947 18.6613 14.7647 18.8247 14.9047 18.946C15.0447 19.0767 15.2313 19.17 15.4647 19.226C15.7073 19.282 15.964 19.31 16.2347 19.31ZM16.4867 13.444C16.748 13.444 16.9393 13.374 17.0607 13.234C17.1913 13.094 17.2753 12.9073 17.3127 12.674C17.3593 12.4313 17.3827 12.17 17.3827 11.89C17.3827 11.6007 17.3593 11.33 17.3127 11.078C17.2753 10.826 17.1913 10.6253 17.0607 10.476C16.9393 10.3173 16.748 10.238 16.4867 10.238C16.2347 10.238 16.0433 10.3173 15.9127 10.476C15.782 10.6347 15.6933 10.84 15.6467 11.092C15.6 11.344 15.5767 11.6147 15.5767 11.904C15.5767 12.1747 15.6 12.4313 15.6467 12.674C15.6933 12.9073 15.782 13.094 15.9127 13.234C16.0433 13.374 16.2347 13.444 16.4867 13.444Z" fill="#888888"/>
</svg>
