<svg width="24" height="24" viewBox="0 0 24 24" fill="none" xmlns="http://www.w3.org/2000/svg">
<path d="M4.44793 17V16.86H4.89593C5.07326 16.86 5.21793 16.832 5.32993 16.776C5.44193 16.7107 5.53993 16.6033 5.62393 16.454C5.70793 16.3047 5.7826 16.0993 5.84793 15.838L8.19993 7.004H9.86593L12.4419 16.034C12.5073 16.2393 12.5726 16.4027 12.6379 16.524C12.7033 16.6453 12.7779 16.734 12.8619 16.79C12.9553 16.8367 13.0719 16.86 13.2119 16.86H13.3239V17H9.24993V16.86H9.82393C10.0293 16.86 10.1646 16.818 10.2299 16.734C10.3046 16.65 10.3419 16.5333 10.3419 16.384C10.3419 16.3187 10.3326 16.2487 10.3139 16.174C10.3046 16.09 10.2859 16.006 10.2579 15.922C10.2393 15.838 10.2206 15.754 10.2019 15.67L9.62793 13.346H6.65993L6.09993 15.446C6.0626 15.586 6.02993 15.7167 6.00193 15.838C5.98326 15.9593 5.9646 16.0667 5.94593 16.16C5.92726 16.2533 5.91793 16.3373 5.91793 16.412C5.91793 16.5707 5.95526 16.6873 6.02993 16.762C6.11393 16.8273 6.23993 16.86 6.40793 16.86H7.19193V17H4.44793ZM6.70193 13.206H9.58593L8.57793 9.16C8.53126 8.964 8.4846 8.77733 8.43793 8.6C8.4006 8.42267 8.3586 8.24533 8.31193 8.068C8.2746 7.88133 8.2326 7.68533 8.18593 7.48C8.15793 7.62933 8.12993 7.76933 8.10193 7.9C8.07393 8.03067 8.04126 8.16133 8.00393 8.292C7.97593 8.41333 7.94326 8.53467 7.90593 8.656C7.87793 8.77733 7.84993 8.90333 7.82193 9.034L6.70193 13.206ZM15.7759 20.29C14.8706 20.29 14.1706 20.15 13.6759 19.87C13.1906 19.59 12.9479 19.1887 12.9479 18.666C12.9479 18.3673 13.0272 18.1153 13.1859 17.91C13.3539 17.714 13.5919 17.5553 13.8999 17.434C14.2172 17.3127 14.6092 17.2333 15.0759 17.196C14.5812 17.168 14.2126 17.0093 13.9699 16.72C13.7272 16.4307 13.6059 16.1087 13.6059 15.754C13.6059 15.4273 13.7132 15.1147 13.9279 14.816C14.1519 14.5173 14.4972 14.3027 14.9639 14.172C14.5252 14.0133 14.1612 13.7427 13.8719 13.36C13.5826 12.9773 13.4379 12.492 13.4379 11.904C13.4379 11.064 13.6479 10.4247 14.0679 9.986C14.4879 9.538 15.1506 9.314 16.0559 9.314C16.3732 9.314 16.6719 9.36067 16.9519 9.454C17.2319 9.538 17.4792 9.65933 17.6939 9.818C17.7779 9.66867 17.8619 9.524 17.9459 9.384C18.0392 9.244 18.1559 9.12733 18.2959 9.034C18.4452 8.94067 18.6272 8.894 18.8419 8.894C19.0939 8.894 19.2899 8.97333 19.4299 9.132C19.5699 9.29067 19.6399 9.482 19.6399 9.706C19.6399 9.93 19.5746 10.126 19.4439 10.294C19.3226 10.462 19.1032 10.546 18.7859 10.546C18.7859 10.21 18.7486 9.96267 18.6739 9.804C18.5992 9.64533 18.4732 9.566 18.2959 9.566C18.2026 9.566 18.1186 9.594 18.0439 9.65C17.9692 9.69667 17.8852 9.78533 17.7919 9.916C18.0626 10.1307 18.2726 10.4013 18.4219 10.728C18.5712 11.0547 18.6459 11.4233 18.6459 11.834C18.6459 12.5807 18.4359 13.1873 18.0159 13.654C17.6052 14.1207 16.9519 14.354 16.0559 14.354C15.8972 14.354 15.7386 14.3447 15.5799 14.326C15.4212 14.298 15.2672 14.2653 15.1179 14.228C15.0059 14.312 14.9219 14.41 14.8659 14.522C14.8099 14.634 14.7819 14.7553 14.7819 14.886C14.7819 15.0913 14.8472 15.25 14.9779 15.362C15.1086 15.4647 15.3046 15.516 15.5659 15.516H16.8959C17.4372 15.516 17.8806 15.6 18.2259 15.768C18.5806 15.936 18.8419 16.1787 19.0099 16.496C19.1872 16.804 19.2759 17.1773 19.2759 17.616C19.2759 18.4467 18.9959 19.1 18.4359 19.576C17.8759 20.052 16.9892 20.29 15.7759 20.29ZM16.0279 20.15C16.4666 20.15 16.8259 20.0847 17.1059 19.954C17.3859 19.8327 17.5959 19.646 17.7359 19.394C17.8759 19.1513 17.9459 18.8527 17.9459 18.498C17.9459 18.078 17.8432 17.756 17.6379 17.532C17.4326 17.3173 17.0826 17.21 16.5879 17.21H15.7059C15.4912 17.21 15.2812 17.252 15.0759 17.336C14.8706 17.42 14.7026 17.5647 14.5719 17.77C14.4412 17.9753 14.3759 18.26 14.3759 18.624C14.3759 19.0067 14.4506 19.31 14.5999 19.534C14.7492 19.758 14.9452 19.9167 15.1879 20.01C15.4399 20.1033 15.7199 20.15 16.0279 20.15ZM16.0279 14.214C16.2332 14.214 16.3919 14.1533 16.5039 14.032C16.6252 13.9013 16.7092 13.668 16.7559 13.332C16.8119 12.996 16.8399 12.52 16.8399 11.904C16.8399 11.232 16.8119 10.7233 16.7559 10.378C16.7092 10.0233 16.6252 9.78067 16.5039 9.65C16.3919 9.51933 16.2332 9.454 16.0279 9.454C15.8319 9.454 15.6732 9.51933 15.5519 9.65C15.4399 9.78067 15.3559 10.0233 15.2999 10.378C15.2439 10.7327 15.2159 11.246 15.2159 11.918C15.2159 12.534 15.2392 13.01 15.2859 13.346C15.3419 13.6727 15.4259 13.9013 15.5379 14.032C15.6592 14.1533 15.8226 14.214 16.0279 14.214Z" fill="#888888"/>
</svg>
