<svg width="24" height="24" viewBox="0 0 24 24" fill="none" xmlns="http://www.w3.org/2000/svg">
<path d="M10.6153 16L9.88731 13.62H6.2473L5.5193 16H3.2373L6.7653 5.962H9.3553L12.8973 16H10.6153ZM8.65531 9.518C8.60864 9.35933 8.54797 9.15867 8.4733 8.916C8.39864 8.67333 8.32397 8.426 8.2493 8.174C8.17464 7.922 8.11397 7.70267 8.06731 7.516C8.02064 7.70267 7.9553 7.936 7.87131 8.216C7.79664 8.48667 7.72197 8.748 7.64731 9C7.58197 9.24267 7.53064 9.41533 7.4933 9.518L6.7793 11.842H9.3833L8.65531 9.518ZM16.4733 8.216C16.94 8.216 17.36 8.30933 17.7333 8.496C18.1067 8.68267 18.424 8.96267 18.6853 9.336H18.7413L18.9093 8.356H20.6733V16.014C20.6733 16.742 20.5287 17.3533 20.2393 17.848C19.9593 18.3427 19.5347 18.716 18.9653 18.968C18.396 19.2293 17.6913 19.36 16.8513 19.36C16.31 19.36 15.806 19.3273 15.3393 19.262C14.882 19.1967 14.434 19.08 13.9953 18.912V17.246C14.3127 17.3767 14.63 17.484 14.9473 17.568C15.274 17.6613 15.6053 17.7267 15.9413 17.764C16.2867 17.8107 16.632 17.834 16.9773 17.834C17.5187 17.834 17.92 17.6893 18.1813 17.4C18.452 17.1107 18.5873 16.6767 18.5873 16.098V15.944C18.5873 15.7853 18.592 15.622 18.6013 15.454C18.62 15.286 18.634 15.1367 18.6433 15.006H18.5873C18.326 15.4073 18.0133 15.6967 17.6493 15.874C17.2853 16.0513 16.8747 16.14 16.4173 16.14C15.512 16.14 14.8027 15.7947 14.2893 15.104C13.7853 14.404 13.5333 13.4333 13.5333 12.192C13.5333 11.352 13.65 10.638 13.8833 10.05C14.1167 9.45267 14.4527 9 14.8913 8.692C15.3393 8.37467 15.8667 8.216 16.4733 8.216ZM17.1313 9.91C16.8047 9.91 16.5293 9.99867 16.3053 10.176C16.0907 10.344 15.9273 10.6007 15.8153 10.946C15.7127 11.282 15.6613 11.7067 15.6613 12.22C15.6613 12.9853 15.7827 13.5593 16.0253 13.942C16.268 14.3153 16.646 14.502 17.1593 14.502C17.43 14.502 17.6633 14.4693 17.8593 14.404C18.0553 14.3293 18.214 14.2127 18.3353 14.054C18.466 13.886 18.564 13.6713 18.6293 13.41C18.6947 13.1487 18.7273 12.8313 18.7273 12.458V12.206C18.7273 11.6553 18.6713 11.212 18.5593 10.876C18.4473 10.54 18.2747 10.2973 18.0413 10.148C17.808 9.98933 17.5047 9.91 17.1313 9.91Z" fill="#888888"/>
</svg>
