<svg width="24" height="24" viewBox="0 0 24 24" fill="none" xmlns="http://www.w3.org/2000/svg">
<path d="M7.05882 12.05C7.46482 10.86 7.81482 9.782 8.16482 8.55H8.22082C8.58482 9.782 8.92082 10.86 9.34082 12.05L9.95682 13.898H6.42882L7.05882 12.05ZM4.20282 18H5.04282L6.20482 14.57H10.1808L11.3148 18H12.2108L8.64082 7.794H7.77282L4.20282 18ZM16.1576 21.556C18.3416 21.556 19.7416 20.324 19.7416 19.022C19.7416 17.832 18.9436 17.3 17.2496 17.3H15.6816C14.6036 17.3 14.2816 16.894 14.2816 16.362C14.2816 15.886 14.5616 15.578 14.8696 15.326C15.2056 15.522 15.6676 15.634 16.0736 15.634C17.5436 15.634 18.7056 14.542 18.7056 13.002C18.7056 12.246 18.3836 11.602 17.9356 11.21H19.6156V10.538H17.0676C16.8296 10.44 16.4796 10.342 16.0736 10.342C14.6036 10.342 13.3996 11.434 13.3996 12.988C13.3996 13.884 13.8756 14.626 14.3516 15.018V15.074C14.0156 15.326 13.5256 15.816 13.5256 16.46C13.5256 17.048 13.8196 17.44 14.1976 17.664V17.734C13.5116 18.196 13.0776 18.854 13.0776 19.512C13.0776 20.772 14.2956 21.556 16.1576 21.556ZM16.0736 15.018C15.0796 15.018 14.2116 14.206 14.2116 12.988C14.2116 11.756 15.0516 11 16.0736 11C17.0816 11 17.9216 11.756 17.9216 12.988C17.9216 14.206 17.0536 15.018 16.0736 15.018ZM16.2556 20.94C14.7296 20.94 13.8476 20.324 13.8476 19.414C13.8476 18.91 14.1276 18.364 14.7716 17.916C15.1496 18 15.5416 18.042 15.7096 18.042H17.2356C18.3416 18.042 18.9296 18.336 18.9296 19.134C18.9296 20.03 17.8796 20.94 16.2556 20.94Z" fill="#333333"/>
</svg>
