<svg width="24" height="24" viewBox="0 0 24 24" fill="none" xmlns="http://www.w3.org/2000/svg">
<path d="M3.23047 17L6.74447 6.962H9.37647L12.9185 17H10.6085L9.83847 14.648H6.31047L5.54047 17H3.23047ZM6.81447 12.856H9.34847L8.64847 10.686C8.61114 10.546 8.55047 10.336 8.46647 10.056C8.3918 9.776 8.31714 9.49133 8.24247 9.202C8.1678 8.90333 8.10714 8.66067 8.06047 8.474C8.02314 8.68867 7.96714 8.936 7.89247 9.216C7.82714 9.496 7.7618 9.76667 7.69647 10.028C7.63114 10.2893 7.57514 10.5087 7.52847 10.686L6.81447 12.856ZM16.9138 20.36C16.3258 20.36 15.7985 20.3227 15.3318 20.248C14.8652 20.1827 14.4265 20.066 14.0158 19.898V18.106C14.4358 18.2927 14.8652 18.4373 15.3038 18.54C15.7518 18.6427 16.2652 18.694 16.8438 18.694C17.4318 18.694 17.8752 18.5587 18.1738 18.288C18.4818 18.0173 18.6358 17.644 18.6358 17.168V16.958C18.6358 16.846 18.6405 16.6967 18.6498 16.51C18.6685 16.3233 18.6872 16.16 18.7058 16.02H18.6358C18.4212 16.356 18.1365 16.6267 17.7818 16.832C17.4365 17.0373 17.0025 17.14 16.4798 17.14C15.6025 17.14 14.8978 16.7993 14.3658 16.118C13.8432 15.4367 13.5818 14.4613 13.5818 13.192C13.5818 11.9227 13.8478 10.9427 14.3798 10.252C14.9118 9.56133 15.6165 9.216 16.4938 9.216C17.0258 9.216 17.4692 9.31867 17.8238 9.524C18.1785 9.72 18.4725 9.986 18.7058 10.322H18.7618L18.9578 9.356H20.7498V17.056C20.7498 17.7747 20.6098 18.3767 20.3298 18.862C20.0498 19.3567 19.6252 19.73 19.0558 19.982C18.4958 20.234 17.7818 20.36 16.9138 20.36ZM17.2218 15.488C17.5018 15.488 17.7398 15.446 17.9358 15.362C18.1318 15.278 18.2905 15.1567 18.4118 14.998C18.5332 14.83 18.6218 14.62 18.6778 14.368C18.7432 14.116 18.7758 13.8173 18.7758 13.472V13.164C18.7758 12.6507 18.7245 12.226 18.6218 11.89C18.5192 11.554 18.3512 11.302 18.1178 11.134C17.8845 10.966 17.5718 10.882 17.1798 10.882C16.7132 10.882 16.3538 11.0827 16.1018 11.484C15.8592 11.876 15.7378 12.4547 15.7378 13.22C15.7378 13.9853 15.8592 14.5547 16.1018 14.928C16.3538 15.3013 16.7272 15.488 17.2218 15.488Z" fill="#888888"/>
</svg>
