<svg width="24" height="24" viewBox="0 0 24 24" fill="none" xmlns="http://www.w3.org/2000/svg">
<path d="M4.17515 18H5.02915L7.03115 12.064C7.43715 10.86 7.78715 9.796 8.15115 8.55H8.20715C8.57115 9.782 8.90715 10.86 9.31315 12.064L11.3011 18H12.1831L8.61315 7.794H7.74515L4.17515 18ZM5.85515 14.584H10.4611V13.898H5.85515V14.584ZM16.1576 21.57C18.3416 21.57 19.7276 20.338 19.7276 19.022C19.7276 17.846 18.9296 17.314 17.2496 17.314H15.6816C14.5896 17.314 14.2816 16.894 14.2816 16.362C14.2816 15.9 14.5476 15.592 14.8556 15.34C15.1916 15.522 15.6536 15.634 16.0596 15.634C17.5296 15.634 18.6916 14.542 18.6916 13.016C18.6916 12.246 18.3836 11.616 17.9356 11.21H19.6016V10.538H17.0676C16.8296 10.44 16.4796 10.356 16.0596 10.356C14.5896 10.356 13.3996 11.434 13.3996 13.002C13.3996 13.898 13.8756 14.626 14.3516 15.032V15.088C14.0016 15.34 13.5256 15.816 13.5256 16.474C13.5256 17.048 13.8196 17.44 14.1976 17.678V17.734C13.5116 18.21 13.0776 18.868 13.0776 19.512C13.0776 20.772 14.2816 21.57 16.1576 21.57ZM16.0596 15.018C15.0656 15.018 14.2116 14.206 14.2116 13.002C14.2116 11.756 15.0516 11 16.0596 11C17.0816 11 17.9076 11.77 17.9076 13.002C17.9076 14.206 17.0536 15.018 16.0596 15.018ZM16.2416 20.94C14.7296 20.94 13.8476 20.324 13.8476 19.414C13.8476 18.91 14.1136 18.364 14.7716 17.916C15.1496 18.014 15.5276 18.042 15.7096 18.042H17.2356C18.3276 18.042 18.9156 18.336 18.9156 19.134C18.9156 20.03 17.8796 20.94 16.2416 20.94Z" fill="#888888"/>
</svg>
