<svg width="24" height="24" viewBox="0 0 24 24" fill="none" xmlns="http://www.w3.org/2000/svg">
<path d="M2.60824 16L7.84424 6.004H10.3922L11.4002 16H9.37024L9.20224 13.62H5.96824L4.79224 16H2.60824ZM6.82224 11.842H9.10424L8.92224 9.266C8.90358 8.99533 8.88491 8.72 8.86624 8.44C8.84758 8.16 8.84291 7.87533 8.85224 7.586H8.82424C8.73091 7.838 8.62824 8.09 8.51624 8.342C8.40424 8.58467 8.27824 8.85067 8.13824 9.14L6.82224 11.842ZM14.9133 19.36C14.3439 19.36 13.8726 19.3133 13.4993 19.22C13.1259 19.136 12.7666 19.0193 12.4213 18.87V17.078C12.6639 17.1993 12.9113 17.302 13.1633 17.386C13.4153 17.4793 13.6766 17.5493 13.9473 17.596C14.2273 17.6427 14.5119 17.666 14.8013 17.666C15.2773 17.666 15.6646 17.554 15.9633 17.33C16.2713 17.1153 16.4859 16.7747 16.6073 16.308L16.6633 16.098C16.7006 15.986 16.7379 15.86 16.7753 15.72C16.8126 15.58 16.8499 15.4447 16.8873 15.314C16.9339 15.1833 16.9713 15.0713 16.9993 14.978H16.9433C16.7846 15.1833 16.6073 15.3747 16.4113 15.552C16.2153 15.7293 15.9959 15.874 15.7533 15.986C15.5106 16.0887 15.2306 16.14 14.9133 16.14C14.5493 16.14 14.2086 16.042 13.8913 15.846C13.5833 15.65 13.3313 15.3513 13.1353 14.95C12.9486 14.5393 12.8553 14.012 12.8553 13.368C12.8553 12.8733 12.9066 12.3787 13.0093 11.884C13.1213 11.3893 13.2799 10.9227 13.4853 10.484C13.6906 10.0453 13.9333 9.658 14.2133 9.322C14.5026 8.97667 14.8246 8.706 15.1793 8.51C15.5433 8.314 15.9353 8.216 16.3553 8.216C16.6913 8.216 16.9713 8.26267 17.1953 8.356C17.4286 8.44933 17.6293 8.58 17.7973 8.748C17.9746 8.90667 18.1379 9.10267 18.2873 9.336H18.3433L18.7353 8.356H20.3173L18.6513 16.182C18.4833 16.9847 18.2219 17.6147 17.8673 18.072C17.5219 18.5387 17.1019 18.87 16.6073 19.066C16.1126 19.262 15.5479 19.36 14.9133 19.36ZM15.9073 14.474C16.1033 14.474 16.2806 14.4227 16.4393 14.32C16.5979 14.2173 16.7426 14.0773 16.8733 13.9C17.0133 13.7227 17.1346 13.522 17.2373 13.298C17.3399 13.074 17.4239 12.836 17.4893 12.584C17.5546 12.332 17.6059 12.08 17.6433 11.828C17.6806 11.5667 17.6993 11.3193 17.6993 11.086C17.6993 10.722 17.6153 10.4327 17.4473 10.218C17.2793 9.994 17.0506 9.882 16.7613 9.882C16.5559 9.882 16.3599 9.94733 16.1733 10.078C15.9866 10.2087 15.8186 10.386 15.6693 10.61C15.5199 10.834 15.3893 11.0907 15.2773 11.38C15.1746 11.6693 15.0906 11.9773 15.0253 12.304C14.9693 12.6213 14.9413 12.9433 14.9413 13.27C14.9413 13.6713 15.0253 13.9747 15.1933 14.18C15.3706 14.376 15.6086 14.474 15.9073 14.474Z" fill="#888888"/>
</svg>
