<svg width="24" height="24" viewBox="0 0 24 24" fill="none" xmlns="http://www.w3.org/2000/svg">
<path d="M4.53516 17V16.398H4.68916C4.82916 16.398 4.94583 16.37 5.03916 16.314C5.14183 16.258 5.23516 16.1507 5.31916 15.992C5.40316 15.8333 5.48716 15.6093 5.57116 15.32L8.00716 7.004H9.21116L11.6892 15.712C11.7358 15.8893 11.7965 16.0293 11.8712 16.132C11.9458 16.2253 12.0345 16.2953 12.1372 16.342C12.2492 16.3793 12.3798 16.398 12.5292 16.398H12.6412V17H9.25316V16.398H9.54716C9.7525 16.398 9.9065 16.3513 10.0092 16.258C10.1212 16.1647 10.1772 16.034 10.1772 15.866C10.1772 15.7913 10.1678 15.712 10.1492 15.628C10.1398 15.5347 10.1212 15.4413 10.0932 15.348C10.0745 15.2453 10.0512 15.152 10.0232 15.068L9.64516 13.654H6.83116L6.49516 14.942C6.48583 15.0167 6.46716 15.1053 6.43916 15.208C6.41116 15.3107 6.38783 15.4133 6.36916 15.516C6.3505 15.6093 6.34116 15.698 6.34116 15.782C6.34116 15.9687 6.3925 16.118 6.49516 16.23C6.59783 16.342 6.76583 16.398 6.99916 16.398H7.33516V17H4.53516ZM7.06916 12.94H9.44916L8.74916 10.266C8.69316 9.99533 8.6325 9.74333 8.56716 9.51C8.50183 9.27667 8.44583 9.05733 8.39916 8.852C8.36183 8.64667 8.3245 8.46 8.28716 8.292C8.25916 8.42267 8.2265 8.56267 8.18916 8.712C8.16116 8.852 8.12383 9.00133 8.07716 9.16C8.03983 9.31867 7.99783 9.482 7.95116 9.65C7.91383 9.80867 7.87183 9.972 7.82516 10.14L7.06916 12.94ZM14.9722 20.318C14.1508 20.318 13.5348 20.1407 13.1242 19.786C12.7135 19.4407 12.5082 18.9507 12.5082 18.316C12.5082 17.9613 12.5735 17.6533 12.7042 17.392C12.8348 17.14 13.0075 16.9347 13.2222 16.776C13.4462 16.6173 13.6888 16.5147 13.9502 16.468C13.7728 16.3747 13.6048 16.2487 13.4462 16.09C13.2875 15.922 13.2082 15.684 13.2082 15.376C13.2082 15.096 13.2922 14.8487 13.4602 14.634C13.6375 14.4193 13.8475 14.228 14.0902 14.06C13.7542 13.892 13.4788 13.6167 13.2642 13.234C13.0588 12.8513 12.9562 12.4173 12.9562 11.932C12.9562 11.1293 13.1428 10.4993 13.5162 10.042C13.8988 9.57533 14.4728 9.342 15.2382 9.342C15.5275 9.342 15.7795 9.38867 15.9942 9.482C16.2088 9.566 16.4002 9.67333 16.5682 9.804C16.6615 9.72 16.7595 9.61733 16.8622 9.496C16.9742 9.36533 17.1002 9.25333 17.2402 9.16C17.3895 9.06667 17.5528 9.02 17.7302 9.02C17.9542 9.02 18.1222 9.09467 18.2342 9.244C18.3555 9.39333 18.4162 9.566 18.4162 9.762C18.4162 9.96733 18.3648 10.1493 18.2622 10.308C18.1595 10.4573 17.9915 10.532 17.7582 10.532C17.7582 10.3547 17.7162 10.2147 17.6322 10.112C17.5575 10 17.4688 9.944 17.3662 9.944C17.2728 9.944 17.1888 9.96267 17.1142 10C17.0488 10.0373 16.9835 10.0887 16.9182 10.154C17.0582 10.3407 17.1795 10.5693 17.2822 10.84C17.3942 11.1013 17.4502 11.442 17.4502 11.862C17.4502 12.5807 17.2682 13.1733 16.9042 13.64C16.5495 14.0973 15.9942 14.326 15.2382 14.326C15.1448 14.326 15.0282 14.3213 14.8882 14.312C14.7482 14.2933 14.6408 14.27 14.5662 14.242C14.4728 14.326 14.3795 14.4427 14.2862 14.592C14.2022 14.732 14.1602 14.9047 14.1602 15.11C14.1602 15.3247 14.2255 15.4787 14.3562 15.572C14.4868 15.6653 14.6595 15.712 14.8742 15.712H16.0782C16.5448 15.712 16.9228 15.8007 17.2122 15.978C17.5108 16.1553 17.7302 16.398 17.8702 16.706C18.0102 17.014 18.0802 17.3547 18.0802 17.728C18.0802 18.5307 17.8282 19.1607 17.3242 19.618C16.8202 20.0847 16.0362 20.318 14.9722 20.318ZM15.0002 19.632C15.4855 19.632 15.8682 19.5573 16.1482 19.408C16.4375 19.268 16.6428 19.072 16.7642 18.82C16.8855 18.568 16.9462 18.288 16.9462 17.98C16.9462 17.5787 16.8575 17.294 16.6802 17.126C16.5122 16.9673 16.2602 16.888 15.9242 16.888H14.7342C14.5568 16.888 14.3795 16.9253 14.2022 17C14.0342 17.0747 13.8942 17.21 13.7822 17.406C13.6795 17.6113 13.6282 17.8867 13.6282 18.232C13.6282 18.5027 13.6748 18.7407 13.7682 18.946C13.8708 19.1607 14.0248 19.3287 14.2302 19.45C14.4355 19.5713 14.6922 19.632 15.0002 19.632ZM15.2102 13.654C15.4622 13.654 15.6582 13.5933 15.7982 13.472C15.9475 13.3413 16.0502 13.1453 16.1062 12.884C16.1715 12.6133 16.2042 12.282 16.2042 11.89C16.2042 11.4793 16.1715 11.134 16.1062 10.854C16.0408 10.574 15.9335 10.3687 15.7842 10.238C15.6442 10.098 15.4528 10.028 15.2102 10.028C14.9768 10.028 14.7855 10.098 14.6362 10.238C14.4962 10.378 14.3888 10.588 14.3142 10.868C14.2488 11.148 14.2162 11.4933 14.2162 11.904C14.2162 12.2867 14.2488 12.6087 14.3142 12.87C14.3795 13.1313 14.4868 13.3273 14.6362 13.458C14.7855 13.5887 14.9768 13.654 15.2102 13.654Z" fill="#888888"/>
</svg>
