<svg width="24" height="24" viewBox="0 0 24 24" fill="none" xmlns="http://www.w3.org/2000/svg">
<path d="M3.36933 17L9.01133 6.99H9.82333L11.1813 17H10.3973L9.92133 13.542H6.16933L4.25133 17H3.36933ZM6.57533 12.814H9.83733L9.41733 9.678C9.38933 9.40733 9.35666 9.11333 9.31933 8.796C9.29133 8.46933 9.27266 8.17067 9.26333 7.9H9.22133C9.1 8.18 8.96 8.474 8.80133 8.782C8.64266 9.09 8.484 9.398 8.32533 9.706L6.57533 12.814ZM14.3693 20.36C13.9399 20.36 13.5386 20.3133 13.1653 20.22C12.8013 20.1267 12.4886 20.0193 12.2273 19.898V19.128C12.4046 19.2213 12.6053 19.31 12.8293 19.394C13.0626 19.478 13.3099 19.5433 13.5713 19.59C13.8419 19.646 14.1033 19.674 14.3553 19.674C15.0926 19.674 15.6713 19.4827 16.0913 19.1C16.5113 18.7173 16.8053 18.1573 16.9733 17.42L17.0993 16.874C17.1366 16.7153 17.1739 16.5427 17.2113 16.356C17.2579 16.16 17.3046 15.9733 17.3513 15.796C17.3979 15.6093 17.4399 15.4413 17.4773 15.292H17.4353C17.2299 15.6 16.9873 15.894 16.7073 16.174C16.4273 16.454 16.1146 16.6873 15.7693 16.874C15.4239 17.0513 15.0459 17.14 14.6353 17.14C14.1873 17.14 13.8093 17.0373 13.5013 16.832C13.1933 16.6267 12.9599 16.328 12.8013 15.936C12.6426 15.544 12.5633 15.0773 12.5633 14.536C12.5633 14.0413 12.6146 13.5513 12.7173 13.066C12.8199 12.5713 12.9693 12.1047 13.1653 11.666C13.3706 11.2273 13.6273 10.84 13.9353 10.504C14.2433 10.168 14.5933 9.902 14.9853 9.706C15.3866 9.51 15.8299 9.412 16.3153 9.412C16.7166 9.412 17.0526 9.49133 17.3233 9.65C17.6033 9.79933 17.8273 9.99533 17.9953 10.238C18.1633 10.4713 18.2846 10.7187 18.3593 10.98H18.4013L18.8213 9.552H19.4373L17.7573 17.406C17.6173 18.0593 17.4026 18.6007 17.1133 19.03C16.8333 19.4687 16.4646 19.8 16.0073 20.024C15.5499 20.248 15.0039 20.36 14.3693 20.36ZM14.8593 16.454C15.1113 16.454 15.3586 16.4027 15.6013 16.3C15.8533 16.188 16.0959 16.0293 16.3293 15.824C16.5719 15.6187 16.7959 15.3807 17.0013 15.11C17.2066 14.83 17.3839 14.522 17.5333 14.186C17.6826 13.85 17.7993 13.4953 17.8833 13.122C17.9766 12.7393 18.0233 12.3473 18.0233 11.946C18.0233 11.358 17.8786 10.9053 17.5893 10.588C17.3093 10.2613 16.8986 10.098 16.3573 10.098C15.9746 10.098 15.6246 10.182 15.3073 10.35C14.9993 10.518 14.7239 10.7513 14.4813 11.05C14.2386 11.3393 14.0333 11.6753 13.8653 12.058C13.7066 12.4407 13.5853 12.8467 13.5013 13.276C13.4173 13.696 13.3753 14.1207 13.3753 14.55C13.3753 15.1567 13.4966 15.628 13.7393 15.964C13.9819 16.2907 14.3553 16.454 14.8593 16.454Z" fill="#888888"/>
</svg>
