<svg width="24" height="24" viewBox="0 0 24 24" fill="none" xmlns="http://www.w3.org/2000/svg">
<path d="M3.6548 17L8.4008 6.99H10.8368L11.3828 17H9.4228L9.3668 14.564H6.7768L5.7408 17H3.6548ZM7.5468 12.87H9.3528L9.3108 10.126C9.3108 9.874 9.30613 9.622 9.2968 9.37C9.2968 9.10867 9.30146 8.84733 9.3108 8.586H9.2828C9.20813 8.81933 9.12413 9.05267 9.0308 9.286C8.9468 9.51933 8.85346 9.76667 8.7508 10.028L7.5468 12.87ZM14.3611 20.36C13.8851 20.36 13.4697 20.3133 13.1151 20.22C12.7697 20.136 12.4524 20.024 12.1631 19.884V18.19C12.3684 18.302 12.5831 18.4 12.8071 18.484C13.0311 18.5773 13.2737 18.6473 13.5351 18.694C13.7964 18.7407 14.0531 18.764 14.3051 18.764C14.7344 18.764 15.0797 18.6473 15.3411 18.414C15.6024 18.19 15.7891 17.8447 15.9011 17.378L15.9711 17.112C15.9991 16.9813 16.0317 16.846 16.0691 16.706C16.1064 16.5567 16.1437 16.4213 16.1811 16.3C16.2184 16.1787 16.2417 16.0993 16.2511 16.062H16.2091C16.0597 16.2673 15.8964 16.454 15.7191 16.622C15.5511 16.7807 15.3597 16.9067 15.1451 17C14.9397 17.0933 14.7017 17.14 14.4311 17.14C14.1044 17.14 13.8057 17.0513 13.5351 16.874C13.2737 16.6873 13.0637 16.4073 12.9051 16.034C12.7557 15.6607 12.6811 15.194 12.6811 14.634C12.6811 14.1673 12.7277 13.682 12.8211 13.178C12.9144 12.674 13.0497 12.1887 13.2271 11.722C13.4137 11.2553 13.6377 10.8353 13.8991 10.462C14.1604 10.0793 14.4637 9.776 14.8091 9.552C15.1544 9.328 15.5371 9.216 15.9571 9.216C16.2277 9.216 16.4611 9.26267 16.6571 9.356C16.8531 9.44 17.0211 9.566 17.1611 9.734C17.3104 9.89267 17.4364 10.0887 17.5391 10.322H17.5951L17.9451 9.356H19.4851L17.8051 17.28C17.6464 18.0453 17.4037 18.652 17.0771 19.1C16.7597 19.548 16.3724 19.87 15.9151 20.066C15.4577 20.262 14.9397 20.36 14.3611 20.36ZM15.3551 15.544C15.5324 15.544 15.6957 15.4833 15.8451 15.362C15.9944 15.2407 16.1297 15.082 16.2511 14.886C16.3724 14.6807 16.4797 14.452 16.5731 14.2C16.6757 13.9387 16.7597 13.668 16.8251 13.388C16.8904 13.108 16.9371 12.8373 16.9651 12.576C17.0024 12.3147 17.0211 12.0767 17.0211 11.862C17.0211 11.5447 16.9557 11.2927 16.8251 11.106C16.7037 10.91 16.5217 10.812 16.2791 10.812C16.0924 10.812 15.9151 10.8913 15.7471 11.05C15.5791 11.2087 15.4251 11.4187 15.2851 11.68C15.1544 11.9413 15.0424 12.2353 14.9491 12.562C14.8557 12.8793 14.7811 13.2013 14.7251 13.528C14.6784 13.8547 14.6551 14.1627 14.6551 14.452C14.6551 14.816 14.7157 15.0913 14.8371 15.278C14.9584 15.4553 15.1311 15.544 15.3551 15.544Z" fill="#888888"/>
</svg>
