<svg width="24" height="24" viewBox="0 0 24 24" fill="none" xmlns="http://www.w3.org/2000/svg">
<path d="M10.0525 17L9.33848 14.102H6.70648L5.97848 17H4.43848L7.14048 6.99H8.86248L11.5925 17H10.0525ZM8.30248 9.804C8.27448 9.636 8.23714 9.46333 8.19048 9.286C8.15314 9.09933 8.12048 8.91733 8.09248 8.74C8.06448 8.55333 8.03648 8.38533 8.00848 8.236C7.98981 8.39467 7.96181 8.56733 7.92448 8.754C7.88714 8.93133 7.84981 9.10867 7.81248 9.286C7.77514 9.46333 7.73781 9.636 7.70048 9.804L6.98648 12.814H9.04448L8.30248 9.804ZM14.5289 9.3C14.9115 9.3 15.2429 9.39333 15.5229 9.58C15.8122 9.75733 16.0642 10.042 16.2789 10.434H16.3489L16.4889 9.44H17.6649V16.986C17.6649 17.7047 17.5575 18.316 17.3429 18.82C17.1282 19.324 16.7969 19.7067 16.3489 19.968C15.9102 20.2293 15.3362 20.36 14.6269 20.36C14.2255 20.36 13.8569 20.3227 13.5209 20.248C13.1849 20.1733 12.8629 20.0567 12.5549 19.898V18.638C12.7789 18.7593 13.0029 18.862 13.2269 18.946C13.4509 19.03 13.6795 19.0907 13.9129 19.128C14.1462 19.1653 14.3795 19.184 14.6129 19.184C15.1542 19.184 15.5649 19.03 15.8449 18.722C16.1342 18.4233 16.2789 17.9427 16.2789 17.28V17.056C16.2789 16.916 16.2835 16.748 16.2929 16.552C16.3022 16.3467 16.3162 16.1553 16.3349 15.978H16.2789C16.0642 16.37 15.8122 16.664 15.5229 16.86C15.2429 17.0467 14.8975 17.14 14.4869 17.14C13.7589 17.14 13.1895 16.804 12.7789 16.132C12.3682 15.46 12.1629 14.4987 12.1629 13.248C12.1629 12.408 12.2562 11.694 12.4429 11.106C12.6389 10.518 12.9095 10.07 13.2549 9.762C13.6095 9.454 14.0342 9.3 14.5289 9.3ZM14.8649 10.504C14.5849 10.504 14.3515 10.6113 14.1649 10.826C13.9782 11.0313 13.8335 11.3393 13.7309 11.75C13.6375 12.1607 13.5909 12.6693 13.5909 13.276C13.5909 14.1907 13.6982 14.8673 13.9129 15.306C14.1275 15.7447 14.4542 15.964 14.8929 15.964C15.1355 15.964 15.3409 15.9173 15.5089 15.824C15.6862 15.7213 15.8309 15.572 15.9429 15.376C16.0642 15.1707 16.1529 14.9187 16.2089 14.62C16.2649 14.312 16.2929 13.9527 16.2929 13.542V13.206C16.2929 12.5713 16.2415 12.058 16.1389 11.666C16.0362 11.2647 15.8822 10.9707 15.6769 10.784C15.4715 10.5973 15.2009 10.504 14.8649 10.504Z" fill="#888888"/>
</svg>
