<svg width="24" height="24" viewBox="0 0 24 24" fill="none" xmlns="http://www.w3.org/2000/svg">
<path d="M3.44076 17V16.86H3.88876C4.07542 16.86 4.22942 16.832 4.35076 16.776C4.47209 16.7107 4.57942 16.5987 4.67276 16.44C4.76609 16.2813 4.85476 16.062 4.93876 15.782L7.75276 7.004H8.70476L11.8128 16.09C11.8874 16.286 11.9574 16.44 12.0228 16.552C12.0974 16.664 12.1814 16.7433 12.2748 16.79C12.3774 16.8367 12.5034 16.86 12.6528 16.86H12.7788V17H8.99876V16.86H9.44676C9.73609 16.86 9.94142 16.8227 10.0628 16.748C10.1841 16.6733 10.2448 16.5473 10.2448 16.37C10.2448 16.3047 10.2354 16.2393 10.2168 16.174C10.2074 16.0993 10.1888 16.02 10.1608 15.936C10.1421 15.8427 10.1188 15.7493 10.0908 15.656L9.34876 13.36H5.87676L5.17676 15.502C5.14876 15.6047 5.12076 15.7073 5.09276 15.81C5.06476 15.9127 5.04142 16.006 5.02276 16.09C5.01342 16.1647 5.00876 16.2393 5.00876 16.314C5.00876 16.51 5.08342 16.65 5.23276 16.734C5.39142 16.818 5.64342 16.86 5.98876 16.86H6.54876V17H3.44076ZM5.91876 13.22H9.29276L8.32676 10.168C8.22409 9.84133 8.12609 9.538 8.03276 9.258C7.94876 8.978 7.86942 8.71667 7.79476 8.474C7.72942 8.23133 7.66876 8.00733 7.61276 7.802C7.56609 7.98867 7.51476 8.166 7.45876 8.334C7.41209 8.49267 7.36076 8.656 7.30476 8.824C7.25809 8.98267 7.20209 9.146 7.13676 9.314C7.08076 9.482 7.02009 9.67333 6.95476 9.888L5.91876 13.22ZM15.5429 20.346C14.6002 20.346 13.8909 20.1827 13.4149 19.856C12.9482 19.5293 12.7149 19.086 12.7149 18.526C12.7149 18.2087 12.7849 17.9333 12.9249 17.7C13.0742 17.476 13.2982 17.294 13.5969 17.154C13.9049 17.014 14.2922 16.9253 14.7589 16.888C14.3575 16.804 14.0589 16.636 13.8629 16.384C13.6669 16.132 13.5689 15.852 13.5689 15.544C13.5689 15.2547 13.6622 14.9887 13.8489 14.746C14.0355 14.494 14.3249 14.2887 14.7169 14.13C14.2875 13.9713 13.9422 13.7053 13.6809 13.332C13.4195 12.9587 13.2889 12.4967 13.2889 11.946C13.2889 11.106 13.4989 10.4667 13.9189 10.028C14.3389 9.58 14.9782 9.356 15.8369 9.356C16.1542 9.356 16.4435 9.398 16.7049 9.482C16.9755 9.566 17.2135 9.692 17.4189 9.86C17.5122 9.72 17.6195 9.58933 17.7409 9.468C17.8622 9.33733 17.9975 9.23467 18.1469 9.16C18.3055 9.076 18.4782 9.034 18.6649 9.034C18.9262 9.034 19.1222 9.10867 19.2529 9.258C19.3835 9.398 19.4489 9.57067 19.4489 9.776C19.4489 9.972 19.3929 10.14 19.2809 10.28C19.1689 10.4107 18.9775 10.476 18.7069 10.476C18.7069 10.1773 18.6602 9.958 18.5669 9.818C18.4735 9.678 18.3335 9.608 18.1469 9.608C18.0349 9.608 17.9322 9.636 17.8389 9.692C17.7455 9.73867 17.6429 9.82267 17.5309 9.944C17.7735 10.168 17.9602 10.4433 18.0909 10.77C18.2309 11.0967 18.3009 11.47 18.3009 11.89C18.3009 12.6087 18.1002 13.192 17.6989 13.64C17.2975 14.088 16.6769 14.312 15.8369 14.312C15.6689 14.312 15.5009 14.3027 15.3329 14.284C15.1742 14.2653 15.0249 14.2327 14.8849 14.186C14.6982 14.298 14.5675 14.4147 14.4929 14.536C14.4182 14.6573 14.3809 14.7927 14.3809 14.942C14.3809 15.1753 14.4602 15.3527 14.6189 15.474C14.7869 15.586 15.0295 15.642 15.3469 15.642H16.7749C17.3162 15.642 17.7549 15.7307 18.0909 15.908C18.4269 16.0853 18.6742 16.328 18.8329 16.636C18.9915 16.944 19.0709 17.308 19.0709 17.728C19.0709 18.5307 18.7815 19.1653 18.2029 19.632C17.6242 20.108 16.7375 20.346 15.5429 20.346ZM15.6829 20.206C16.1962 20.206 16.6255 20.136 16.9709 19.996C17.3162 19.856 17.5729 19.646 17.7409 19.366C17.9089 19.086 17.9929 18.7407 17.9929 18.33C17.9929 17.882 17.8762 17.5413 17.6429 17.308C17.4189 17.0747 17.0502 16.958 16.5369 16.958H15.2769C15.0155 16.958 14.7729 17.0093 14.5489 17.112C14.3342 17.224 14.1615 17.392 14.0309 17.616C13.9002 17.8493 13.8349 18.1527 13.8349 18.526C13.8349 18.9087 13.9095 19.226 14.0589 19.478C14.2082 19.73 14.4182 19.912 14.6889 20.024C14.9689 20.1453 15.3002 20.206 15.6829 20.206ZM15.7949 14.172C16.0655 14.172 16.2802 14.0973 16.4389 13.948C16.6069 13.7987 16.7282 13.5607 16.8029 13.234C16.8775 12.898 16.9149 12.4547 16.9149 11.904C16.9149 11.3067 16.8729 10.8353 16.7889 10.49C16.7142 10.1353 16.5929 9.88333 16.4249 9.734C16.2662 9.57533 16.0515 9.496 15.7809 9.496C15.5195 9.496 15.3049 9.57533 15.1369 9.734C14.9782 9.89267 14.8569 10.1493 14.7729 10.504C14.6982 10.8587 14.6609 11.33 14.6609 11.918C14.6609 12.4593 14.6982 12.898 14.7729 13.234C14.8569 13.5607 14.9782 13.7987 15.1369 13.948C15.3049 14.0973 15.5242 14.172 15.7949 14.172Z" fill="#888888"/>
</svg>
