<svg width="24" height="24" viewBox="0 0 24 24" fill="none" xmlns="http://www.w3.org/2000/svg">
<path d="M7.08255 11.91C7.51655 10.678 7.88055 9.642 8.25856 8.368H8.31455C8.69255 9.642 9.04255 10.678 9.47655 11.91L10.1766 13.94H6.36855L7.08255 11.91ZM4.42255 18H4.94055L6.21455 14.388H10.3306L11.5906 18H12.1506L8.51055 7.836H8.04855L4.42255 18ZM16.1576 21.598C18.2296 21.598 19.5596 20.366 19.5596 19.12C19.5596 17.986 18.8176 17.468 17.1936 17.468H15.5556C14.4216 17.468 14.1136 17.006 14.1136 16.446C14.1136 15.942 14.4216 15.592 14.7576 15.326C15.0936 15.536 15.5836 15.662 16.0036 15.662C17.4316 15.662 18.5376 14.514 18.5376 13.044C18.5376 12.204 18.1876 11.518 17.6696 11.084H19.4336V10.622H16.9696C16.7596 10.538 16.4236 10.44 16.0036 10.44C14.5896 10.44 13.4696 11.546 13.4696 13.044C13.4696 13.94 13.9456 14.668 14.4076 15.074V15.13C14.0856 15.354 13.5956 15.816 13.5956 16.488C13.5956 17.048 13.8756 17.44 14.2536 17.664V17.72C13.5676 18.21 13.1336 18.896 13.1336 19.54C13.1336 20.772 14.2816 21.598 16.1576 21.598ZM16.0036 15.2C14.9396 15.2 14.0016 14.318 14.0016 13.044C14.0016 11.714 14.9116 10.902 16.0036 10.902C17.1096 10.902 18.0196 11.728 18.0196 13.044C18.0196 14.318 17.0816 15.2 16.0036 15.2ZM16.1856 21.15C14.5756 21.15 13.6656 20.478 13.6656 19.498C13.6656 18.952 13.9596 18.336 14.6876 17.846C15.0936 17.944 15.4856 17.972 15.5836 17.972H17.2636C18.4256 17.972 19.0416 18.308 19.0416 19.176C19.0416 20.142 17.9496 21.15 16.1856 21.15Z" fill="#333333"/>
</svg>
