<svg width="24" height="24" viewBox="0 0 24 24" fill="none" xmlns="http://www.w3.org/2000/svg">
<path d="M3.26597 17V16.86H3.76997C3.93797 16.86 4.0873 16.8367 4.21797 16.79C4.34864 16.734 4.4653 16.636 4.56797 16.496C4.67997 16.3467 4.77797 16.1413 4.86197 15.88L7.52197 7.004H9.53797L12.45 15.95C12.534 16.1647 12.6226 16.342 12.716 16.482C12.8093 16.6127 12.9166 16.7107 13.038 16.776C13.1686 16.832 13.3086 16.86 13.458 16.86H13.528V17H8.73997V16.86H9.32797C9.5333 16.86 9.6733 16.818 9.74797 16.734C9.82264 16.65 9.85997 16.538 9.85997 16.398C9.85997 16.3327 9.85064 16.2673 9.83197 16.202C9.82264 16.1273 9.80864 16.048 9.78997 15.964C9.7713 15.88 9.75264 15.8007 9.73397 15.726L9.03397 13.332H5.77197L5.12797 15.474C5.09064 15.6047 5.05797 15.726 5.02997 15.838C5.00197 15.95 4.97864 16.0527 4.95997 16.146C4.9413 16.23 4.93197 16.314 4.93197 16.398C4.93197 16.5567 4.9693 16.6733 5.04397 16.748C5.12797 16.8227 5.2633 16.86 5.44997 16.86H6.38797V17H3.26597ZM5.81397 13.192H8.99197L7.99797 9.72C7.9513 9.552 7.8953 9.35133 7.82997 9.118C7.76464 8.88467 7.6993 8.642 7.63397 8.39C7.56864 8.138 7.5033 7.89533 7.43797 7.662C7.40064 7.83 7.35864 7.998 7.31197 8.166C7.2653 8.334 7.21397 8.50667 7.15797 8.684C7.1113 8.852 7.05997 9.02 7.00397 9.188C6.9573 9.356 6.90597 9.524 6.84997 9.692L5.81397 13.192ZM16.3798 20.262C15.3438 20.262 14.5318 20.1267 13.9438 19.856C13.3651 19.5947 13.0758 19.2073 13.0758 18.694C13.0758 18.4233 13.1691 18.19 13.3558 17.994C13.5425 17.798 13.8225 17.644 14.1958 17.532C14.5785 17.4293 15.0545 17.3687 15.6238 17.35C15.0171 17.3033 14.5598 17.1307 14.2518 16.832C13.9531 16.524 13.8038 16.1833 13.8038 15.81C13.8038 15.4553 13.9345 15.1333 14.1958 14.844C14.4665 14.5453 14.8678 14.3307 15.3998 14.2C14.8585 14.032 14.4245 13.7473 14.0978 13.346C13.7805 12.9447 13.6218 12.436 13.6218 11.82C13.6218 11.0267 13.8691 10.406 14.3638 9.958C14.8585 9.51 15.6378 9.286 16.7018 9.286C17.0845 9.286 17.4345 9.33267 17.7518 9.426C18.0785 9.51 18.3678 9.63133 18.6198 9.79C18.7038 9.60333 18.8018 9.44 18.9138 9.3C19.0351 9.15067 19.1798 9.034 19.3478 8.95C19.5158 8.85667 19.7118 8.81 19.9358 8.81C20.2345 8.81 20.4631 8.894 20.6218 9.062C20.7898 9.23 20.8738 9.44 20.8738 9.692C20.8738 9.96267 20.7851 10.182 20.6078 10.35C20.4398 10.5087 20.1878 10.588 19.8518 10.588C19.8518 10.28 19.8005 10.042 19.6978 9.874C19.5951 9.706 19.4505 9.622 19.2638 9.622C19.1705 9.622 19.0818 9.64533 18.9978 9.692C18.9231 9.72933 18.8391 9.79467 18.7458 9.888C19.0631 10.1213 19.3058 10.4107 19.4738 10.756C19.6511 11.092 19.7398 11.47 19.7398 11.89C19.7398 12.618 19.4971 13.2153 19.0118 13.682C18.5265 14.1487 17.7565 14.382 16.7018 14.382C16.4965 14.382 16.3005 14.3727 16.1138 14.354C15.9271 14.326 15.7451 14.2887 15.5678 14.242C15.4651 14.3073 15.3905 14.3867 15.3438 14.48C15.2971 14.5733 15.2738 14.6713 15.2738 14.774C15.2738 14.942 15.3391 15.0867 15.4698 15.208C15.6098 15.32 15.8665 15.376 16.2398 15.376H17.6678C18.3025 15.376 18.8251 15.46 19.2358 15.628C19.6465 15.7867 19.9545 16.0293 20.1598 16.356C20.3651 16.6733 20.4678 17.0653 20.4678 17.532C20.4678 18.3813 20.1365 19.0487 19.4738 19.534C18.8111 20.0193 17.7798 20.262 16.3798 20.262ZM16.6878 20.122C17.1265 20.122 17.4905 20.0613 17.7798 19.94C18.0691 19.828 18.2885 19.6553 18.4378 19.422C18.5871 19.198 18.6618 18.918 18.6618 18.582C18.6618 18.19 18.5591 17.9007 18.3538 17.714C18.1485 17.5273 17.8218 17.434 17.3738 17.434H16.0858C15.8711 17.434 15.6751 17.4807 15.4978 17.574C15.3205 17.6673 15.1805 17.8073 15.0778 17.994C14.9845 18.1807 14.9378 18.4187 14.9378 18.708C14.9378 19.0347 15.0078 19.3007 15.1478 19.506C15.2971 19.7207 15.5025 19.8747 15.7638 19.968C16.0251 20.0707 16.3331 20.122 16.6878 20.122ZM16.6738 14.242C16.8885 14.242 17.0565 14.172 17.1778 14.032C17.2991 13.892 17.3831 13.654 17.4298 13.318C17.4858 12.9727 17.5138 12.506 17.5138 11.918C17.5138 11.274 17.4858 10.7747 17.4298 10.42C17.3831 10.056 17.2991 9.79933 17.1778 9.65C17.0565 9.50067 16.8885 9.426 16.6738 9.426C16.4685 9.426 16.3005 9.50067 16.1698 9.65C16.0485 9.79933 15.9598 10.056 15.9038 10.42C15.8478 10.784 15.8198 11.288 15.8198 11.932C15.8198 12.52 15.8478 12.982 15.9038 13.318C15.9598 13.654 16.0485 13.892 16.1698 14.032C16.2911 14.172 16.4591 14.242 16.6738 14.242Z" fill="#888888"/>
</svg>
