<svg width="24" height="24" viewBox="0 0 24 24" fill="none" xmlns="http://www.w3.org/2000/svg">
<path d="M3.34099 17L8.64699 7.004H10.733L11.825 17H10.103L9.85099 14.34H6.56099L5.21699 17H3.34099ZM7.33099 12.814H9.73899L9.54299 10.42C9.51499 10.1213 9.48699 9.804 9.45899 9.468C9.44033 9.12267 9.43566 8.80067 9.44499 8.502H9.40299C9.29099 8.79133 9.16033 9.09 9.01099 9.398C8.87099 9.706 8.71699 10.028 8.54899 10.364L7.33099 12.814ZM15.2485 20.36C14.7259 20.36 14.2732 20.3133 13.8905 20.22C13.5172 20.136 13.1719 20.0193 12.8545 19.87V18.33C13.0692 18.442 13.2979 18.54 13.5405 18.624C13.7925 18.7173 14.0539 18.7873 14.3245 18.834C14.6045 18.89 14.8845 18.918 15.1645 18.918C15.6779 18.918 16.0979 18.7967 16.4245 18.554C16.7605 18.3113 16.9939 17.924 17.1245 17.392L17.2085 17.056C17.2459 16.9347 17.2832 16.7993 17.3205 16.65C17.3579 16.5007 17.3952 16.356 17.4325 16.216C17.4792 16.0667 17.5165 15.9407 17.5445 15.838H17.4885C17.3112 16.0713 17.1152 16.286 16.9005 16.482C16.6859 16.678 16.4479 16.8367 16.1865 16.958C15.9252 17.0793 15.6265 17.14 15.2905 17.14C14.9172 17.14 14.5719 17.042 14.2545 16.846C13.9465 16.65 13.6992 16.356 13.5125 15.964C13.3352 15.5627 13.2465 15.0587 13.2465 14.452C13.2465 13.9387 13.2979 13.43 13.4005 12.926C13.5125 12.422 13.6712 11.9507 13.8765 11.512C14.0819 11.0733 14.3292 10.686 14.6185 10.35C14.9079 10.014 15.2345 9.75267 15.5985 9.566C15.9719 9.37 16.3732 9.272 16.8025 9.272C17.1385 9.272 17.4232 9.32333 17.6565 9.426C17.8992 9.52867 18.1045 9.66867 18.2725 9.846C18.4499 10.0233 18.6039 10.2287 18.7345 10.462H18.7905L19.2105 9.412H20.5405L18.8605 17.28C18.7019 18.0453 18.4545 18.652 18.1185 19.1C17.7919 19.548 17.3859 19.87 16.9005 20.066C16.4245 20.262 15.8739 20.36 15.2485 20.36ZM16.0605 15.712C16.2659 15.712 16.4572 15.6607 16.6345 15.558C16.8119 15.4553 16.9799 15.3107 17.1385 15.124C17.3065 14.9373 17.4559 14.7273 17.5865 14.494C17.7172 14.2513 17.8245 13.9947 17.9085 13.724C18.0019 13.4533 18.0719 13.1733 18.1185 12.884C18.1745 12.5853 18.2025 12.296 18.2025 12.016C18.2025 11.624 18.1092 11.3067 17.9225 11.064C17.7359 10.8213 17.4605 10.7 17.0965 10.7C16.8539 10.7 16.6252 10.77 16.4105 10.91C16.2052 11.05 16.0139 11.2413 15.8365 11.484C15.6685 11.7267 15.5239 12.0067 15.4025 12.324C15.2812 12.632 15.1832 12.9633 15.1085 13.318C15.0432 13.6727 15.0105 14.032 15.0105 14.396C15.0105 14.8347 15.1039 15.166 15.2905 15.39C15.4772 15.6047 15.7339 15.712 16.0605 15.712Z" fill="#888888"/>
</svg>
