<svg width="24" height="24" viewBox="0 0 24 24" fill="none" xmlns="http://www.w3.org/2000/svg">
<path d="M10.1029 17L9.59895 14.606H7.12095L6.60295 17H4.41895L7.02295 6.99H9.64095L12.2729 17H10.1029ZM8.68895 10.35C8.64228 10.1353 8.60028 9.92533 8.56295 9.72C8.52561 9.50533 8.48828 9.29533 8.45095 9.09C8.42295 8.88467 8.39028 8.68867 8.35295 8.502C8.33428 8.67933 8.30628 8.87067 8.26895 9.076C8.23161 9.28133 8.19428 9.49133 8.15695 9.706C8.11961 9.92067 8.07295 10.1307 8.01695 10.336L7.47095 12.898H9.24895L8.68895 10.35ZM15.1366 9.202C15.5286 9.202 15.8553 9.29067 16.1166 9.468C16.3873 9.636 16.6253 9.92067 16.8306 10.322H16.9286L17.0826 9.342H18.7626V16.734C18.7626 17.5087 18.6413 18.1667 18.3986 18.708C18.1559 19.2493 17.7873 19.66 17.2926 19.94C16.8073 20.22 16.1726 20.36 15.3886 20.36C14.9499 20.36 14.5439 20.318 14.1706 20.234C13.7973 20.15 13.4473 20.024 13.1206 19.856V18.232C13.3819 18.3627 13.6339 18.47 13.8766 18.554C14.1193 18.6473 14.3619 18.7127 14.6046 18.75C14.8473 18.7873 15.0946 18.806 15.3466 18.806C15.8133 18.806 16.1726 18.68 16.4246 18.428C16.6859 18.176 16.8166 17.7653 16.8166 17.196V17.056C16.8166 16.8973 16.8213 16.72 16.8306 16.524C16.8399 16.328 16.8539 16.1507 16.8726 15.992H16.8166C16.6113 16.3933 16.3686 16.6873 16.0886 16.874C15.8179 17.0513 15.4819 17.14 15.0806 17.14C14.3619 17.14 13.7973 16.7947 13.3866 16.104C12.9759 15.4133 12.7706 14.4473 12.7706 13.206C12.7706 12.366 12.8639 11.6473 13.0506 11.05C13.2373 10.4527 13.5079 9.99533 13.8626 9.678C14.2173 9.36067 14.6419 9.202 15.1366 9.202ZM15.7526 10.826C15.5286 10.826 15.3419 10.9147 15.1926 11.092C15.0526 11.2693 14.9453 11.54 14.8706 11.904C14.7959 12.2587 14.7586 12.702 14.7586 13.234C14.7586 14.018 14.8379 14.6013 14.9966 14.984C15.1646 15.3573 15.4213 15.544 15.7666 15.544C15.9533 15.544 16.1119 15.5067 16.2426 15.432C16.3826 15.348 16.4946 15.222 16.5786 15.054C16.6719 14.8767 16.7419 14.6573 16.7886 14.396C16.8353 14.1347 16.8586 13.8267 16.8586 13.472V13.122C16.8586 12.5807 16.8213 12.142 16.7466 11.806C16.6719 11.4607 16.5506 11.2133 16.3826 11.064C16.2239 10.9053 16.0139 10.826 15.7526 10.826Z" fill="#888888"/>
</svg>
