<svg width="24" height="24" viewBox="0 0 24 24" fill="none" xmlns="http://www.w3.org/2000/svg">
<path d="M5.42017 14.038L6.94617 9.25L8.52817 14.038H5.42017ZM11.2582 17.356L7.95417 7.626H6.91817L3.69817 17.314L2.46617 17.496V18H5.82617V17.496L4.37017 17.314L5.23817 14.612H8.71017L9.60617 17.328L8.16417 17.496V18H12.4622V17.496L11.2582 17.356ZM16.2624 15.018C15.3524 15.018 14.8064 14.206 14.8064 12.974C14.8064 11.728 15.3804 10.916 16.3044 10.916C17.2424 10.916 17.7884 11.714 17.7884 12.932C17.7884 14.178 17.2284 15.018 16.2624 15.018ZM17.5504 18.28C18.6004 18.28 18.9924 18.826 18.9924 19.484C18.9924 20.366 18.0684 21.052 16.2904 21.052C15.0584 21.052 14.2464 20.548 14.2464 19.526C14.2464 19.008 14.4284 18.63 14.8064 18.21C15.1004 18.266 15.3804 18.28 15.8284 18.28H17.5504ZM20.3504 10.58L20.0984 10.426L18.3484 11.042C17.8584 10.636 17.1584 10.426 16.3044 10.426C14.5404 10.426 13.4204 11.392 13.4204 12.96C13.4204 13.968 13.8544 14.71 14.6104 15.13C13.8264 15.83 13.5324 16.334 13.5324 16.88C13.5324 17.524 13.8824 17.888 14.5264 18.098C13.4904 18.574 13.0564 19.106 13.0564 19.764C13.0564 20.842 14.0084 21.668 16.2904 21.668C18.9084 21.668 20.2384 20.366 20.2384 18.98C20.2384 17.734 19.4544 16.992 17.6624 16.992H15.6044C14.8204 16.992 14.5824 16.712 14.5824 16.25C14.5824 15.9 14.6944 15.62 14.9604 15.284C15.3384 15.438 15.7864 15.508 16.2904 15.508C18.0404 15.508 19.1744 14.514 19.1744 12.96C19.1744 12.358 19.0204 11.854 18.7264 11.448L20.3504 11.532V10.58Z" fill="#333333"/>
</svg>
