<svg width="24" height="24" viewBox="0 0 24 24" fill="none" xmlns="http://www.w3.org/2000/svg">
<path d="M10.5686 17L9.75655 14.102H6.67655L5.85055 17H4.26855L7.34855 6.976H9.05655L12.1506 17H10.5686ZM8.58056 9.888C8.55255 9.748 8.51055 9.58467 8.45456 9.398C8.40789 9.202 8.36122 9.006 8.31455 8.81C8.27722 8.614 8.23989 8.43667 8.20255 8.278C8.17456 8.46467 8.13722 8.656 8.09055 8.852C8.04389 9.03867 8.00189 9.22067 7.96455 9.398C7.92722 9.57533 7.88522 9.73867 7.83856 9.888L7.02655 12.814H9.40655L8.58056 9.888ZM15.3909 9.314C15.8109 9.314 16.1796 9.40733 16.4969 9.594C16.8142 9.77133 17.0896 10.0513 17.3229 10.434H17.3929L17.5329 9.454H18.7509V17.042C18.7509 17.7607 18.6342 18.3673 18.4009 18.862C18.1769 19.3567 17.8316 19.73 17.3649 19.982C16.8982 20.234 16.2962 20.36 15.5589 20.36C15.1016 20.36 14.6816 20.3227 14.2989 20.248C13.9256 20.1733 13.5709 20.0567 13.2349 19.898V18.624C13.4682 18.7453 13.7109 18.848 13.9629 18.932C14.2149 19.016 14.4762 19.0767 14.7469 19.114C15.0176 19.1607 15.2929 19.184 15.5729 19.184C16.1329 19.184 16.5622 19.0207 16.8609 18.694C17.1596 18.3673 17.3089 17.882 17.3089 17.238V17C17.3089 16.86 17.3136 16.692 17.3229 16.496C17.3322 16.3 17.3416 16.132 17.3509 15.992H17.2949C17.0802 16.384 16.8142 16.6733 16.4969 16.86C16.1796 17.0467 15.8016 17.14 15.3629 17.14C14.5509 17.14 13.9162 16.804 13.4589 16.132C13.0109 15.4507 12.7869 14.4893 12.7869 13.248C12.7869 12.4173 12.8896 11.708 13.0949 11.12C13.3096 10.532 13.6082 10.084 13.9909 9.776C14.3829 9.468 14.8496 9.314 15.3909 9.314ZM15.7269 10.518C15.4096 10.518 15.1436 10.6253 14.9289 10.84C14.7236 11.0453 14.5649 11.3533 14.4529 11.764C14.3409 12.1653 14.2849 12.6647 14.2849 13.262C14.2849 14.158 14.4062 14.83 14.6489 15.278C14.9009 15.726 15.2696 15.95 15.7549 15.95C16.0349 15.95 16.2729 15.9033 16.4689 15.81C16.6649 15.7167 16.8282 15.572 16.9589 15.376C17.0896 15.18 17.1829 14.928 17.2389 14.62C17.3042 14.312 17.3369 13.948 17.3369 13.528V13.22C17.3369 12.5853 17.2809 12.072 17.1689 11.68C17.0569 11.2787 16.8842 10.9847 16.6509 10.798C16.4176 10.6113 16.1096 10.518 15.7269 10.518Z" fill="#888888"/>
</svg>
