<svg width="24" height="24" viewBox="0 0 24 24" fill="none" xmlns="http://www.w3.org/2000/svg">
<path d="M4.37875 17L8.66275 6.962H11.2388L11.3508 17H9.20875L9.26475 14.732H7.47275L6.59075 17H4.37875ZM8.14475 12.968H9.36275L9.46075 10.126C9.47008 9.902 9.47942 9.68733 9.48875 9.482C9.49808 9.26733 9.51208 9.03867 9.53075 8.796H9.48875C9.45142 9.02 9.40008 9.23467 9.33475 9.44C9.27875 9.64533 9.21342 9.86467 9.13875 10.098L8.14475 12.968ZM13.9131 20.36C13.5024 20.36 13.1151 20.3133 12.7511 20.22C12.3871 20.136 12.0791 20.0287 11.8271 19.898V18.162C11.9764 18.2553 12.1677 18.344 12.4011 18.428C12.6344 18.5213 12.8771 18.596 13.1291 18.652C13.3904 18.708 13.6377 18.736 13.8711 18.736C14.2631 18.736 14.5664 18.624 14.7811 18.4C14.9957 18.176 15.1497 17.8727 15.2431 17.49L15.3131 17.182C15.3317 17.098 15.3504 17.0093 15.3691 16.916C15.3971 16.8227 15.4251 16.72 15.4531 16.608C15.4904 16.496 15.5277 16.3793 15.5651 16.258H15.5371C15.3784 16.4727 15.2151 16.6453 15.0471 16.776C14.8884 16.9067 14.7204 17 14.5431 17.056C14.3657 17.112 14.1697 17.14 13.9551 17.14C13.6471 17.14 13.3764 17.056 13.1431 16.888C12.9191 16.72 12.7417 16.4727 12.6111 16.146C12.4897 15.8193 12.4291 15.4273 12.4291 14.97C12.4291 14.5593 12.4664 14.102 12.5411 13.598C12.6251 13.0847 12.7464 12.5713 12.9051 12.058C13.0731 11.5353 13.2831 11.0593 13.5351 10.63C13.7871 10.1913 14.0811 9.84133 14.4171 9.58C14.7531 9.30933 15.1357 9.174 15.5651 9.174C15.8077 9.174 16.0131 9.21133 16.1811 9.286C16.3584 9.36067 16.5031 9.47733 16.6151 9.636C16.7271 9.79467 16.8157 10 16.8811 10.252H16.9091L17.2311 9.314H18.9111L17.2031 17.448C17.0537 18.1387 16.8297 18.6987 16.5311 19.128C16.2417 19.5573 15.8777 19.87 15.4391 20.066C15.0004 20.262 14.4917 20.36 13.9131 20.36ZM14.8791 15.446C15.0377 15.446 15.1824 15.3807 15.3131 15.25C15.4531 15.11 15.5791 14.9233 15.6911 14.69C15.8031 14.4567 15.9011 14.2047 15.9851 13.934C16.0691 13.654 16.1391 13.3693 16.1951 13.08C16.2604 12.7813 16.3071 12.5013 16.3351 12.24C16.3631 11.9787 16.3771 11.7593 16.3771 11.582C16.3771 11.358 16.3304 11.1853 16.2371 11.064C16.1531 10.9333 16.0271 10.868 15.8591 10.868C15.6724 10.868 15.5044 10.966 15.3551 11.162C15.2057 11.358 15.0704 11.61 14.9491 11.918C14.8371 12.2167 14.7437 12.5387 14.6691 12.884C14.5944 13.22 14.5384 13.542 14.5011 13.85C14.4637 14.1487 14.4451 14.3867 14.4451 14.564C14.4451 14.8627 14.4777 15.0867 14.5431 15.236C14.6177 15.376 14.7297 15.446 14.8791 15.446Z" fill="#888888"/>
</svg>
