<svg width="24" height="24" viewBox="0 0 24 24" fill="none" xmlns="http://www.w3.org/2000/svg">
<path d="M5.17839 17V16.426H5.36039C5.50039 16.426 5.61706 16.398 5.71039 16.342C5.80372 16.286 5.88772 16.1787 5.96239 16.02C6.04639 15.8613 6.13039 15.6327 6.21439 15.334L8.65039 7.004H9.68639L12.1784 15.782C12.2251 15.95 12.2811 16.0807 12.3464 16.174C12.4117 16.2673 12.4957 16.3327 12.5984 16.37C12.7104 16.4073 12.8411 16.426 12.9904 16.426H13.1024V17H9.89639V16.426H10.1484C10.3724 16.426 10.5357 16.3793 10.6384 16.286C10.7504 16.1833 10.8064 16.048 10.8064 15.88C10.8064 15.8147 10.7971 15.74 10.7784 15.656C10.7691 15.5627 10.7504 15.4647 10.7224 15.362C10.7037 15.2593 10.6804 15.1613 10.6524 15.068L10.2744 13.64H7.43239L7.08239 14.97C7.06372 15.0447 7.04039 15.1333 7.01239 15.236C6.99372 15.3293 6.97506 15.4273 6.95639 15.53C6.93772 15.6233 6.92839 15.712 6.92839 15.796C6.92839 15.9827 6.97972 16.1367 7.08239 16.258C7.19439 16.37 7.37639 16.426 7.62839 16.426H7.92239V17H5.17839ZM7.65639 12.954H10.0784L9.37839 10.28C9.31306 10 9.24772 9.73867 9.18239 9.496C9.11706 9.25333 9.06106 9.02933 9.01439 8.824C8.96772 8.61867 8.92572 8.432 8.88839 8.264C8.86039 8.39467 8.82772 8.53467 8.79039 8.684C8.76239 8.824 8.72506 8.978 8.67839 9.146C8.64106 9.30467 8.59906 9.468 8.55239 9.636C8.51506 9.804 8.47306 9.972 8.42639 10.14L7.65639 12.954ZM15.41 20.332C14.6167 20.332 14.0193 20.15 13.618 19.786C13.226 19.4313 13.03 18.9367 13.03 18.302C13.03 17.938 13.0953 17.6253 13.226 17.364C13.3567 17.1027 13.5293 16.8927 13.744 16.734C13.9587 16.5753 14.1873 16.468 14.43 16.412C14.262 16.328 14.1033 16.2067 13.954 16.048C13.814 15.88 13.744 15.6467 13.744 15.348C13.744 15.068 13.8233 14.8253 13.982 14.62C14.1407 14.4053 14.332 14.2187 14.556 14.06C14.2293 13.8827 13.968 13.6027 13.772 13.22C13.576 12.828 13.478 12.4033 13.478 11.946C13.478 11.1433 13.66 10.5133 14.024 10.056C14.388 9.58933 14.9387 9.356 15.676 9.356C15.956 9.356 16.2033 9.40267 16.418 9.496C16.6327 9.58 16.8193 9.692 16.978 9.832C17.0527 9.75733 17.1413 9.65933 17.244 9.538C17.3467 9.40733 17.468 9.29533 17.608 9.202C17.7573 9.09933 17.9207 9.048 18.098 9.048C18.3127 9.048 18.4713 9.12267 18.574 9.272C18.686 9.412 18.742 9.58 18.742 9.776C18.742 9.972 18.6953 10.1447 18.602 10.294C18.5087 10.4433 18.3547 10.518 18.14 10.518C18.14 10.3593 18.098 10.224 18.014 10.112C17.9393 10 17.8507 9.944 17.748 9.944C17.6547 9.944 17.5707 9.96733 17.496 10.014C17.4307 10.0513 17.3607 10.1027 17.286 10.168C17.426 10.3547 17.5427 10.5787 17.636 10.84C17.7387 11.1013 17.79 11.4467 17.79 11.876C17.79 12.5853 17.6173 13.1687 17.272 13.626C16.9267 14.0833 16.3947 14.312 15.676 14.312C15.5827 14.312 15.466 14.3073 15.326 14.298C15.186 14.2793 15.0787 14.256 15.004 14.228C14.9107 14.3213 14.8173 14.4427 14.724 14.592C14.6307 14.732 14.584 14.9093 14.584 15.124C14.584 15.3573 14.6493 15.5207 14.78 15.614C14.92 15.7073 15.1067 15.754 15.34 15.754H16.502C16.9593 15.754 17.328 15.8473 17.608 16.034C17.888 16.2113 18.0933 16.454 18.224 16.762C18.3547 17.0607 18.42 17.392 18.42 17.756C18.42 18.5493 18.1727 19.1747 17.678 19.632C17.1927 20.0987 16.4367 20.332 15.41 20.332ZM15.438 19.674C15.942 19.674 16.334 19.5947 16.614 19.436C16.9033 19.2867 17.104 19.0813 17.216 18.82C17.3373 18.5587 17.398 18.2693 17.398 17.952C17.398 17.5227 17.3047 17.224 17.118 17.056C16.9407 16.888 16.6793 16.804 16.334 16.804H15.186C14.9993 16.804 14.8173 16.846 14.64 16.93C14.4627 17.0047 14.318 17.1447 14.206 17.35C14.094 17.5553 14.038 17.84 14.038 18.204C14.038 18.484 14.0847 18.7313 14.178 18.946C14.2807 19.17 14.4347 19.3473 14.64 19.478C14.8453 19.6087 15.1113 19.674 15.438 19.674ZM15.648 13.682C15.9 13.682 16.1007 13.6213 16.25 13.5C16.4087 13.3693 16.5207 13.1733 16.586 12.912C16.6513 12.6413 16.684 12.3007 16.684 11.89C16.684 11.4607 16.6467 11.106 16.572 10.826C16.5067 10.546 16.3947 10.3407 16.236 10.21C16.0867 10.07 15.886 10 15.634 10C15.4007 10 15.2047 10.07 15.046 10.21C14.8967 10.35 14.7847 10.56 14.71 10.84C14.6353 11.12 14.598 11.4747 14.598 11.904C14.598 12.3053 14.6353 12.6367 14.71 12.898C14.7847 13.1593 14.8967 13.3553 15.046 13.486C15.2047 13.6167 15.4053 13.682 15.648 13.682Z" fill="#888888"/>
</svg>
