<svg width="24" height="24" viewBox="0 0 24 24" fill="none" xmlns="http://www.w3.org/2000/svg">
<path d="M5.23112 17V16.664H5.42712C5.58578 16.664 5.70712 16.636 5.79112 16.58C5.88445 16.524 5.96845 16.412 6.04312 16.244C6.11778 16.076 6.19712 15.8287 6.28112 15.502L8.67512 7.004H9.06712L11.6151 16.132C11.6525 16.2813 11.6945 16.3933 11.7411 16.468C11.7971 16.5427 11.8718 16.594 11.9651 16.622C12.0585 16.65 12.1798 16.664 12.3291 16.664H12.4411V17H10.0191V16.664H10.2991C10.5885 16.664 10.7798 16.6313 10.8731 16.566C10.9665 16.5007 11.0131 16.3887 11.0131 16.23C11.0131 16.1833 10.9991 16.1133 10.9711 16.02C10.9525 15.9267 10.9291 15.824 10.9011 15.712C10.8731 15.5907 10.8405 15.474 10.8031 15.362L10.2851 13.514H7.31712L6.85512 15.152C6.82712 15.264 6.78978 15.3947 6.74312 15.544C6.70578 15.684 6.67312 15.8147 6.64512 15.936C6.61712 16.0573 6.60312 16.16 6.60312 16.244C6.60312 16.3747 6.65445 16.4773 6.75712 16.552C6.85978 16.6267 7.05578 16.664 7.34512 16.664H7.65312V17H5.23112ZM7.45712 13.094H10.1731L9.37512 10.14C9.29112 9.79467 9.21178 9.48667 9.13712 9.216C9.06245 8.94533 8.99712 8.70733 8.94112 8.502C8.88512 8.28733 8.83845 8.10067 8.80112 7.942C8.78245 8.06333 8.75445 8.19867 8.71712 8.348C8.67978 8.49733 8.63778 8.656 8.59112 8.824C8.55378 8.992 8.50712 9.16933 8.45112 9.356C8.40445 9.54267 8.35312 9.734 8.29712 9.93L7.45712 13.094ZM14.7671 20.374C14.0018 20.374 13.4418 20.178 13.0871 19.786C12.7418 19.4033 12.5691 18.8853 12.5691 18.232C12.5691 17.8307 12.6344 17.4947 12.7651 17.224C12.9051 16.9533 13.0684 16.734 13.2551 16.566C13.4511 16.398 13.6424 16.2767 13.8291 16.202C13.6984 16.1273 13.5818 16.0153 13.4791 15.866C13.3764 15.7073 13.3251 15.4927 13.3251 15.222C13.3251 14.97 13.3811 14.746 13.4931 14.55C13.6144 14.3447 13.7498 14.172 13.8991 14.032C13.6471 13.8733 13.4324 13.6167 13.2551 13.262C13.0871 12.898 13.0031 12.4733 13.0031 11.988C13.0031 11.092 13.1664 10.4387 13.4931 10.028C13.8198 9.608 14.2818 9.398 14.8791 9.398C15.1311 9.398 15.3598 9.44933 15.5651 9.552C15.7798 9.65467 15.9431 9.77133 16.0551 9.902C16.1391 9.79 16.2231 9.678 16.3071 9.566C16.4004 9.454 16.5031 9.36067 16.6151 9.286C16.7271 9.21133 16.8531 9.174 16.9931 9.174C17.1798 9.174 17.3198 9.23933 17.4131 9.37C17.5064 9.50067 17.5531 9.65 17.5531 9.818C17.5531 9.986 17.5251 10.1213 17.4691 10.224C17.4131 10.3267 17.3198 10.378 17.1891 10.378C17.1891 10.1353 17.1704 9.958 17.1331 9.846C17.0958 9.72467 17.0118 9.664 16.8811 9.664C16.7971 9.664 16.7084 9.706 16.6151 9.79C16.5218 9.86467 16.4098 10 16.2791 10.196C16.3818 10.3827 16.4658 10.6067 16.5311 10.868C16.5964 11.1293 16.6291 11.4793 16.6291 11.918C16.6291 12.6553 16.4798 13.234 16.1811 13.654C15.8918 14.0647 15.4578 14.27 14.8791 14.27C14.7858 14.27 14.6691 14.2653 14.5291 14.256C14.3891 14.2373 14.2818 14.214 14.2071 14.186C14.1044 14.3073 14.0064 14.4473 13.9131 14.606C13.8291 14.7647 13.7871 14.9653 13.7871 15.208C13.7871 15.4787 13.8618 15.67 14.0111 15.782C14.1604 15.894 14.3704 15.95 14.6411 15.95H15.5231C15.9431 15.95 16.2791 16.0387 16.5311 16.216C16.7831 16.384 16.9651 16.6127 17.0771 16.902C17.1891 17.1913 17.2451 17.5227 17.2451 17.896C17.2451 18.652 17.0304 19.254 16.6011 19.702C16.1811 20.15 15.5698 20.374 14.7671 20.374ZM14.7811 19.954C15.2571 19.954 15.6351 19.8653 15.9151 19.688C16.1951 19.52 16.3958 19.282 16.5171 18.974C16.6478 18.666 16.7131 18.3207 16.7131 17.938C16.7131 17.462 16.6198 17.098 16.4331 16.846C16.2464 16.5847 15.8871 16.454 15.3551 16.454H14.4871C14.2258 16.454 13.9878 16.5287 13.7731 16.678C13.5678 16.8273 13.3998 17.0327 13.2691 17.294C13.1478 17.5553 13.0871 17.8587 13.0871 18.204C13.0871 18.5307 13.1384 18.8247 13.2411 19.086C13.3438 19.3473 13.5164 19.5573 13.7591 19.716C14.0111 19.8747 14.3518 19.954 14.7811 19.954ZM14.8371 13.864C15.1264 13.864 15.3644 13.794 15.5511 13.654C15.7378 13.5047 15.8731 13.2853 15.9571 12.996C16.0504 12.6973 16.0971 12.3287 16.0971 11.89C16.0971 11.3767 16.0458 10.9707 15.9431 10.672C15.8498 10.364 15.7098 10.1447 15.5231 10.014C15.3364 9.88333 15.0984 9.818 14.8091 9.818C14.5571 9.818 14.3331 9.89267 14.1371 10.042C13.9504 10.182 13.8058 10.406 13.7031 10.714C13.6004 11.022 13.5491 11.4187 13.5491 11.904C13.5491 12.324 13.5958 12.6833 13.6891 12.982C13.7824 13.2713 13.9224 13.4907 14.1091 13.64C14.3051 13.7893 14.5478 13.864 14.8371 13.864Z" fill="#888888"/>
</svg>
