<svg width="24" height="24" viewBox="0 0 24 24" fill="none" xmlns="http://www.w3.org/2000/svg">
<path d="M6.46923 17L10.5992 6.962H11.2572L11.2432 17H10.7112L10.7252 13.192H8.59723L7.02923 17H6.46923ZM8.76523 12.702H10.7252L10.7672 8.67C10.7672 8.474 10.7672 8.28733 10.7672 8.11C10.7766 7.92333 10.7859 7.76467 10.7952 7.634H10.7672C10.7299 7.75533 10.6786 7.90467 10.6132 8.082C10.5479 8.25933 10.4686 8.46 10.3752 8.684L8.76523 12.702ZM13.2844 20.36C13.0044 20.36 12.743 20.318 12.5004 20.234C12.2577 20.1593 12.0664 20.0847 11.9264 20.01V19.464C12.0197 19.5293 12.1364 19.5947 12.2764 19.66C12.4257 19.7253 12.5844 19.7767 12.7524 19.814C12.9297 19.8607 13.1117 19.884 13.2984 19.884C13.8957 19.884 14.339 19.6927 14.6284 19.31C14.9177 18.9273 15.151 18.344 15.3284 17.56L15.4964 16.734C15.515 16.6687 15.5337 16.5893 15.5524 16.496C15.5804 16.3933 15.6084 16.2813 15.6364 16.16C15.6644 16.0387 15.6924 15.9173 15.7204 15.796H15.6924C15.543 16.076 15.3797 16.3187 15.2024 16.524C15.0344 16.72 14.8477 16.874 14.6424 16.986C14.4464 17.0887 14.2177 17.14 13.9564 17.14C13.667 17.14 13.4197 17.0607 13.2144 16.902C13.009 16.7433 12.8504 16.51 12.7384 16.202C12.6357 15.894 12.5844 15.516 12.5844 15.068C12.5844 14.6387 12.6217 14.172 12.6964 13.668C12.7804 13.164 12.9017 12.6647 13.0604 12.17C13.219 11.6753 13.415 11.2273 13.6484 10.826C13.8817 10.4153 14.157 10.0887 14.4744 9.846C14.7917 9.594 15.151 9.468 15.5524 9.468C15.8044 9.468 16.0144 9.524 16.1824 9.636C16.3504 9.748 16.481 9.89733 16.5744 10.084C16.6677 10.2613 16.733 10.4713 16.7704 10.714H16.8124L17.0784 9.608H17.4984L15.8044 17.644C15.6737 18.2227 15.5057 18.7127 15.3004 19.114C15.1044 19.5247 14.843 19.8327 14.5164 20.038C14.1897 20.2527 13.779 20.36 13.2844 20.36ZM14.0684 16.664C14.3577 16.664 14.619 16.5567 14.8524 16.342C15.0857 16.1273 15.291 15.8427 15.4684 15.488C15.655 15.1333 15.809 14.746 15.9304 14.326C16.061 13.906 16.1684 13.4953 16.2524 13.094C16.3364 12.6833 16.397 12.31 16.4344 11.974C16.4717 11.638 16.4904 11.3813 16.4904 11.204C16.4904 10.8213 16.4064 10.518 16.2384 10.294C16.0797 10.0607 15.851 9.944 15.5524 9.944C15.2444 9.944 14.9597 10.0607 14.6984 10.294C14.437 10.518 14.2084 10.8167 14.0124 11.19C13.8164 11.5633 13.6484 11.974 13.5084 12.422C13.3777 12.87 13.2797 13.3227 13.2144 13.78C13.149 14.2373 13.1164 14.6527 13.1164 15.026C13.1164 15.6047 13.2004 16.0247 13.3684 16.286C13.5364 16.538 13.7697 16.664 14.0684 16.664Z" fill="#888888"/>
</svg>
