<svg width="24" height="24" viewBox="0 0 24 24" fill="none" xmlns="http://www.w3.org/2000/svg">
<path d="M4.25685 17V16.216H4.32685C4.46685 16.216 4.59285 16.1927 4.70485 16.146C4.82618 16.09 4.93352 15.992 5.02685 15.852C5.12952 15.7027 5.21818 15.4927 5.29285 15.222L7.78485 7.004H9.89885L12.2929 15.348C12.3582 15.5533 12.4375 15.7213 12.5309 15.852C12.6242 15.9827 12.7315 16.076 12.8529 16.132C12.9742 16.188 13.1049 16.216 13.2449 16.216H13.3709V17H9.04485V16.216H9.52085C9.64219 16.216 9.74952 16.1833 9.84285 16.118C9.94552 16.0527 9.99685 15.9313 9.99685 15.754C9.99685 15.67 9.98752 15.586 9.96885 15.502C9.95952 15.4087 9.94552 15.32 9.92685 15.236C9.90819 15.152 9.88952 15.0867 9.87085 15.04L9.50685 13.724H6.84685L6.58085 14.816C6.57152 14.8907 6.55285 14.984 6.52485 15.096C6.49685 15.1987 6.47352 15.306 6.45485 15.418C6.43619 15.53 6.42685 15.6327 6.42685 15.726C6.42685 15.8753 6.45485 15.9967 6.51085 16.09C6.57619 16.174 6.69285 16.216 6.86085 16.216H7.42085V17H4.25685ZM7.11285 12.828H9.25485L8.61085 10.154C8.56418 9.958 8.51752 9.76667 8.47085 9.58C8.42419 9.384 8.38219 9.188 8.34485 8.992C8.30752 8.796 8.27018 8.6 8.23285 8.404C8.20485 8.55333 8.17219 8.70267 8.13485 8.852C8.10685 8.992 8.07419 9.13667 8.03685 9.286C8.00885 9.426 7.97619 9.566 7.93885 9.706C7.91085 9.846 7.87819 9.98133 7.84085 10.112L7.11285 12.828ZM15.8866 20.276C14.8973 20.276 14.1553 20.1173 13.6606 19.8C13.1753 19.4827 12.9326 19.016 12.9326 18.4C12.9326 18.0827 12.9979 17.8073 13.1286 17.574C13.2686 17.3407 13.4646 17.1493 13.7166 17C13.9686 16.86 14.2626 16.776 14.5986 16.748C14.3559 16.6453 14.1226 16.5053 13.8986 16.328C13.6839 16.1507 13.5766 15.894 13.5766 15.558C13.5766 15.2407 13.6933 14.9653 13.9266 14.732C14.1599 14.4987 14.4633 14.2793 14.8366 14.074C14.4446 13.934 14.1086 13.6867 13.8286 13.332C13.5579 12.968 13.4226 12.4873 13.4226 11.89C13.4226 11.0593 13.6419 10.42 14.0806 9.972C14.5193 9.524 15.2099 9.3 16.1526 9.3C16.4699 9.3 16.7406 9.33267 16.9646 9.398C17.1979 9.454 17.4266 9.54733 17.6506 9.678C17.7813 9.52867 17.9119 9.39333 18.0426 9.272C18.1733 9.15067 18.3179 9.05267 18.4766 8.978C18.6353 8.894 18.8173 8.852 19.0226 8.852C19.2933 8.852 19.4986 8.936 19.6386 9.104C19.7879 9.272 19.8626 9.468 19.8626 9.692C19.8626 9.92533 19.7973 10.1307 19.6666 10.308C19.5359 10.4853 19.2979 10.574 18.9526 10.574C18.9526 10.3407 18.9013 10.1773 18.7986 10.084C18.6959 9.98133 18.6073 9.93 18.5326 9.93C18.4393 9.93 18.3599 9.94867 18.2946 9.986C18.2386 10.014 18.1873 10.042 18.1406 10.07C18.3366 10.2567 18.5046 10.4947 18.6446 10.784C18.7846 11.064 18.8546 11.4093 18.8546 11.82C18.8546 12.576 18.6399 13.192 18.2106 13.668C17.7813 14.1347 17.0953 14.368 16.1526 14.368C16.0686 14.368 15.9519 14.3633 15.8026 14.354C15.6626 14.3353 15.5553 14.3167 15.4806 14.298C15.4059 14.3447 15.3266 14.4333 15.2426 14.564C15.1586 14.6947 15.1166 14.8393 15.1166 14.998C15.1166 15.1567 15.1679 15.2733 15.2706 15.348C15.3733 15.4133 15.4899 15.446 15.6206 15.446H17.0206C17.5806 15.446 18.0426 15.53 18.4066 15.698C18.7706 15.866 19.0413 16.1087 19.2186 16.426C19.4053 16.7433 19.4986 17.126 19.4986 17.574C19.4986 18.414 19.1999 19.072 18.6026 19.548C18.0146 20.0333 17.1093 20.276 15.8866 20.276ZM15.9286 19.408C16.3113 19.408 16.6379 19.3567 16.9086 19.254C17.1793 19.1513 17.3893 19.002 17.5386 18.806C17.6879 18.61 17.7626 18.3813 17.7626 18.12C17.7626 17.8773 17.7019 17.6813 17.5806 17.532C17.4686 17.392 17.2773 17.322 17.0066 17.322H15.5086C15.3966 17.322 15.2706 17.3547 15.1306 17.42C14.9999 17.4853 14.8833 17.5927 14.7806 17.742C14.6873 17.9007 14.6406 18.1153 14.6406 18.386C14.6406 18.61 14.7013 18.7967 14.8226 18.946C14.9439 19.1047 15.1026 19.2213 15.2986 19.296C15.4946 19.3707 15.7046 19.408 15.9286 19.408ZM16.1246 13.5C16.3486 13.5 16.5119 13.4347 16.6146 13.304C16.7266 13.164 16.7966 12.9727 16.8246 12.73C16.8619 12.4873 16.8806 12.2073 16.8806 11.89C16.8806 11.5633 16.8619 11.274 16.8246 11.022C16.7966 10.7607 16.7266 10.5553 16.6146 10.406C16.5119 10.2567 16.3533 10.182 16.1386 10.182C15.9333 10.182 15.7746 10.2613 15.6626 10.42C15.5506 10.5693 15.4759 10.7747 15.4386 11.036C15.4013 11.288 15.3826 11.5773 15.3826 11.904C15.3826 12.212 15.4013 12.4873 15.4386 12.73C15.4759 12.9727 15.5459 13.164 15.6486 13.304C15.7606 13.4347 15.9193 13.5 16.1246 13.5Z" fill="#888888"/>
</svg>
