<svg width="24" height="24" viewBox="0 0 24 24" fill="none" xmlns="http://www.w3.org/2000/svg">
<path d="M4.29086 17L8.84086 6.976H11.5289L11.8929 17H9.70886L9.69486 14.76H7.51086L6.57286 17H4.29086ZM8.25286 12.954H9.75086L9.76486 10.154C9.77419 9.92067 9.77886 9.692 9.77886 9.468C9.77886 9.244 9.78819 9.01067 9.80686 8.768H9.77886C9.72286 8.992 9.65753 9.21133 9.58286 9.426C9.51753 9.64067 9.43819 9.86467 9.34486 10.098L8.25286 12.954ZM14.7481 20.36C14.2814 20.36 13.8661 20.3133 13.5021 20.22C13.1381 20.136 12.8161 20.0287 12.5361 19.898V18.092C12.7134 18.1947 12.9188 18.288 13.1521 18.372C13.3948 18.4653 13.6468 18.5353 13.9081 18.582C14.1788 18.638 14.4401 18.666 14.6921 18.666C15.0934 18.666 15.4108 18.554 15.6441 18.33C15.8868 18.1153 16.0548 17.8167 16.1481 17.434L16.2181 17.126C16.2368 17.042 16.2601 16.9533 16.2881 16.86C16.3161 16.7573 16.3441 16.65 16.3721 16.538C16.4094 16.426 16.4421 16.3187 16.4701 16.216H16.4281C16.2788 16.4213 16.1201 16.594 15.9521 16.734C15.7841 16.8647 15.6021 16.9627 15.4061 17.028C15.2194 17.0933 15.0048 17.126 14.7621 17.126C14.4354 17.126 14.1461 17.042 13.8941 16.874C13.6421 16.6967 13.4414 16.4353 13.2921 16.09C13.1521 15.7353 13.0821 15.292 13.0821 14.76C13.0821 14.3493 13.1241 13.892 13.2081 13.388C13.2921 12.884 13.4181 12.3893 13.5861 11.904C13.7634 11.4093 13.9828 10.9567 14.2441 10.546C14.5054 10.126 14.8041 9.79467 15.1401 9.552C15.4854 9.3 15.8774 9.174 16.3161 9.174C16.5868 9.174 16.8108 9.216 16.9881 9.3C17.1748 9.37467 17.3334 9.49133 17.4641 9.65C17.5948 9.80867 17.7068 10.0093 17.8001 10.252H17.8421L18.1781 9.314H19.9001L18.1921 17.364C18.0428 18.092 17.8094 18.6753 17.4921 19.114C17.1748 19.5527 16.7874 19.87 16.3301 20.066C15.8728 20.262 15.3454 20.36 14.7481 20.36ZM15.7421 15.39C15.9101 15.39 16.0594 15.3293 16.1901 15.208C16.3301 15.0867 16.4561 14.9233 16.5681 14.718C16.6801 14.5033 16.7781 14.2653 16.8621 14.004C16.9554 13.7427 17.0301 13.4767 17.0861 13.206C17.1514 12.9353 17.1981 12.674 17.2261 12.422C17.2541 12.1607 17.2681 11.9367 17.2681 11.75C17.2681 11.498 17.2168 11.2973 17.1141 11.148C17.0114 10.9987 16.8668 10.924 16.6801 10.924C16.4934 10.924 16.3208 11.0127 16.1621 11.19C16.0128 11.358 15.8774 11.582 15.7561 11.862C15.6348 12.1327 15.5321 12.4267 15.4481 12.744C15.3641 13.0613 15.2988 13.3693 15.2521 13.668C15.2148 13.9667 15.1961 14.228 15.1961 14.452C15.1961 14.76 15.2428 14.9933 15.3361 15.152C15.4294 15.3107 15.5648 15.39 15.7421 15.39Z" fill="#888888"/>
</svg>
