<svg width="24" height="24" viewBox="0 0 24 24" fill="none" xmlns="http://www.w3.org/2000/svg">
<path d="M10.0312 17L9.4012 14.088H7.1612L6.5452 17H5.0332L7.3852 7.004H9.1212L11.5152 17H10.0312ZM8.5052 9.734C8.46787 9.538 8.43054 9.35133 8.3932 9.174C8.3652 8.99667 8.34187 8.82867 8.3232 8.67C8.30454 8.502 8.28587 8.34333 8.2672 8.194C8.25787 8.334 8.2392 8.49267 8.2112 8.67C8.1832 8.838 8.15054 9.01067 8.1132 9.188C8.0852 9.356 8.05254 9.53333 8.0152 9.72L7.3852 12.828H9.1632L8.5052 9.734ZM14.2157 9.3C14.561 9.3 14.8597 9.38867 15.1117 9.566C15.3637 9.734 15.5923 10.0233 15.7977 10.434H15.8677L16.0077 9.44H17.1417V16.944C17.1417 17.672 17.039 18.288 16.8337 18.792C16.6283 19.3053 16.3157 19.6927 15.8957 19.954C15.4757 20.2247 14.925 20.36 14.2437 20.36C13.8797 20.36 13.5483 20.3227 13.2497 20.248C12.9603 20.1733 12.6757 20.0567 12.3957 19.898V18.666C12.6103 18.778 12.8157 18.8713 13.0117 18.946C13.217 19.03 13.4177 19.0907 13.6137 19.128C13.8097 19.1653 14.001 19.184 14.1877 19.184C14.7197 19.184 15.121 19.044 15.3917 18.764C15.6623 18.484 15.7977 18.0033 15.7977 17.322V17.112C15.7977 16.9533 15.8023 16.776 15.8117 16.58C15.821 16.3747 15.835 16.1693 15.8537 15.964H15.7977C15.6017 16.3653 15.373 16.664 15.1117 16.86C14.8503 17.0467 14.533 17.14 14.1597 17.14C13.4877 17.14 12.965 16.8087 12.5917 16.146C12.2277 15.4833 12.0457 14.522 12.0457 13.262C12.0457 12.394 12.1297 11.6707 12.2977 11.092C12.475 10.504 12.7223 10.0607 13.0397 9.762C13.3663 9.454 13.7583 9.3 14.2157 9.3ZM14.5377 10.476C14.2763 10.476 14.0663 10.5833 13.9077 10.798C13.749 11.0033 13.6277 11.316 13.5437 11.736C13.4597 12.1467 13.4177 12.66 13.4177 13.276C13.4177 14.2093 13.511 14.8953 13.6977 15.334C13.8843 15.7633 14.1737 15.978 14.5657 15.978C14.7803 15.978 14.9623 15.9267 15.1117 15.824C15.261 15.7213 15.387 15.572 15.4897 15.376C15.5923 15.1707 15.667 14.9187 15.7137 14.62C15.7697 14.312 15.7977 13.9527 15.7977 13.542V13.178C15.7977 12.5527 15.751 12.0393 15.6577 11.638C15.5737 11.2367 15.4383 10.9427 15.2517 10.756C15.0743 10.5693 14.8363 10.476 14.5377 10.476Z" fill="#888888"/>
</svg>
