<svg width="24" height="24" viewBox="0 0 24 24" fill="none" xmlns="http://www.w3.org/2000/svg">
<path d="M3.45574 17V16.244H3.56774C3.71708 16.244 3.84774 16.216 3.95974 16.16C4.08108 16.104 4.18841 16.006 4.28174 15.866C4.38441 15.7167 4.47774 15.5067 4.56174 15.236L7.20774 7.004H9.20974L11.7717 15.376C11.8371 15.5813 11.9164 15.7493 12.0097 15.88C12.1124 16.0107 12.2244 16.104 12.3457 16.16C12.4671 16.216 12.6024 16.244 12.7517 16.244H12.8917V17H8.53774V16.244H9.01374C9.15374 16.244 9.27508 16.2067 9.37774 16.132C9.48974 16.0573 9.54574 15.9313 9.54574 15.754C9.54574 15.6793 9.53641 15.6 9.51774 15.516C9.50841 15.4227 9.49441 15.334 9.47574 15.25C9.45708 15.166 9.43841 15.1007 9.41974 15.054L9.02774 13.71H6.14374L5.83574 14.844C5.82641 14.9187 5.80774 15.0073 5.77974 15.11C5.75174 15.2127 5.72841 15.32 5.70974 15.432C5.69108 15.544 5.68174 15.642 5.68174 15.726C5.68174 15.8847 5.71908 16.0107 5.79374 16.104C5.87774 16.1973 6.00841 16.244 6.18574 16.244H6.73174V17H3.45574ZM6.42374 12.842H8.76174L8.07574 10.224C8.01974 10.0187 7.96374 9.81333 7.90774 9.608C7.86108 9.40267 7.81441 9.202 7.76774 9.006C7.72108 8.80067 7.67908 8.6 7.64174 8.404C7.61374 8.544 7.58108 8.68867 7.54374 8.838C7.50641 8.98733 7.46908 9.13667 7.43174 9.286C7.39441 9.43533 7.35241 9.58467 7.30574 9.734C7.26841 9.88333 7.23108 10.028 7.19374 10.168L6.42374 12.842ZM15.5263 20.29C14.5183 20.29 13.7623 20.1267 13.2583 19.8C12.7636 19.4827 12.5163 19.016 12.5163 18.4C12.5163 18.0733 12.5863 17.7887 12.7263 17.546C12.8663 17.3127 13.0669 17.126 13.3283 16.986C13.5896 16.846 13.8883 16.762 14.2243 16.734C13.9909 16.6313 13.7669 16.4913 13.5523 16.314C13.3376 16.1273 13.2303 15.866 13.2303 15.53C13.2303 15.222 13.3423 14.956 13.5663 14.732C13.7996 14.4987 14.0983 14.2793 14.4623 14.074C14.0609 13.9247 13.7249 13.6727 13.4543 13.318C13.1836 12.954 13.0483 12.4827 13.0483 11.904C13.0483 11.0733 13.2723 10.434 13.7203 9.986C14.1683 9.538 14.8683 9.314 15.8203 9.314C16.1376 9.314 16.4176 9.34667 16.6603 9.412C16.9029 9.47733 17.1363 9.57533 17.3603 9.706C17.4909 9.55667 17.6216 9.42133 17.7523 9.3C17.8923 9.17867 18.0416 9.08067 18.2003 9.006C18.3589 8.922 18.5456 8.88 18.7603 8.88C19.0403 8.88 19.2503 8.964 19.3903 9.132C19.5396 9.29067 19.6143 9.482 19.6143 9.706C19.6143 9.93 19.5489 10.1307 19.4183 10.308C19.2876 10.476 19.0496 10.56 18.7043 10.56C18.7043 10.3453 18.6529 10.1913 18.5503 10.098C18.4476 9.99533 18.3496 9.944 18.2563 9.944C18.1723 9.944 18.0929 9.958 18.0183 9.986C17.9529 10.014 17.8923 10.0467 17.8363 10.084C18.0323 10.2707 18.1956 10.5087 18.3263 10.798C18.4663 11.0873 18.5363 11.4327 18.5363 11.834C18.5363 12.5807 18.3169 13.1873 17.8783 13.654C17.4489 14.1207 16.7629 14.354 15.8203 14.354C15.7269 14.354 15.6009 14.3493 15.4423 14.34C15.2929 14.3307 15.1809 14.3167 15.1063 14.298C15.0129 14.3447 14.9196 14.438 14.8263 14.578C14.7423 14.7087 14.7003 14.8533 14.7003 15.012C14.7003 15.18 14.7563 15.3013 14.8683 15.376C14.9803 15.4413 15.1156 15.474 15.2743 15.474H16.7303C17.2996 15.474 17.7709 15.558 18.1443 15.726C18.5176 15.894 18.7929 16.1367 18.9703 16.454C19.1476 16.7713 19.2363 17.154 19.2363 17.602C19.2363 18.4327 18.9329 19.086 18.3263 19.562C17.7196 20.0473 16.7863 20.29 15.5263 20.29ZM15.5683 19.436C16.0069 19.436 16.3709 19.38 16.6603 19.268C16.9589 19.1653 17.1829 19.0113 17.3323 18.806C17.4816 18.61 17.5563 18.3767 17.5563 18.106C17.5563 17.8447 17.4863 17.6393 17.3463 17.49C17.2063 17.35 16.9823 17.28 16.6743 17.28H15.1623C15.0316 17.28 14.8869 17.3127 14.7283 17.378C14.5789 17.4433 14.4483 17.5553 14.3363 17.714C14.2336 17.8727 14.1823 18.092 14.1823 18.372C14.1823 18.6053 14.2429 18.8013 14.3643 18.96C14.4856 19.1187 14.6489 19.2353 14.8543 19.31C15.0689 19.394 15.3069 19.436 15.5683 19.436ZM15.7923 13.528C16.0256 13.528 16.2029 13.4627 16.3243 13.332C16.4456 13.192 16.5249 13.0007 16.5623 12.758C16.6089 12.506 16.6323 12.2167 16.6323 11.89C16.6323 11.554 16.6089 11.2553 16.5623 10.994C16.5249 10.7327 16.4456 10.5273 16.3243 10.378C16.2029 10.2287 16.0256 10.154 15.7923 10.154C15.5683 10.154 15.3956 10.2333 15.2743 10.392C15.1529 10.5413 15.0643 10.7467 15.0083 11.008C14.9616 11.2693 14.9383 11.568 14.9383 11.904C14.9383 12.2213 14.9616 12.5013 15.0083 12.744C15.0549 12.9867 15.1389 13.178 15.2603 13.318C15.3909 13.458 15.5683 13.528 15.7923 13.528Z" fill="#888888"/>
</svg>
