<svg width="24" height="24" viewBox="0 0 24 24" fill="none" xmlns="http://www.w3.org/2000/svg">
<path d="M2.32814 17V16.202H2.45414C2.61281 16.202 2.75747 16.174 2.88814 16.118C3.02814 16.062 3.15414 15.964 3.26614 15.824C3.38747 15.684 3.49947 15.4787 3.60214 15.208L6.59814 7.004H8.85214L11.7501 15.222C11.8341 15.4647 11.9321 15.656 12.0441 15.796C12.1561 15.936 12.2775 16.0387 12.4081 16.104C12.5481 16.1693 12.6975 16.202 12.8561 16.202H13.0521V17H8.12414V16.202H8.68414C8.82414 16.202 8.95481 16.1693 9.07614 16.104C9.20681 16.0293 9.27214 15.8987 9.27214 15.712C9.27214 15.628 9.26281 15.544 9.24414 15.46C9.23481 15.376 9.21614 15.3013 9.18814 15.236C9.16947 15.1613 9.15081 15.1053 9.13214 15.068L8.67014 13.738H5.39414L5.03014 14.83C5.01147 14.9047 4.98347 14.9933 4.94614 15.096C4.91814 15.1987 4.89481 15.306 4.87614 15.418C4.85747 15.5207 4.84814 15.614 4.84814 15.698C4.84814 15.8567 4.89481 15.9827 4.98814 16.076C5.09081 16.16 5.23081 16.202 5.40814 16.202H6.05214V17H2.32814ZM5.68814 12.814H8.37614L7.60614 10.308C7.55014 10.1213 7.48947 9.92533 7.42414 9.72C7.36814 9.51467 7.31214 9.30467 7.25614 9.09C7.20014 8.866 7.14881 8.65133 7.10214 8.446C7.06481 8.59533 7.02281 8.74933 6.97614 8.908C6.92947 9.05733 6.88281 9.21133 6.83614 9.37C6.78947 9.52867 6.73814 9.68733 6.68214 9.846C6.63547 9.99533 6.58881 10.14 6.54214 10.28L5.68814 12.814ZM16.1172 20.304C14.9692 20.304 14.1105 20.1453 13.5412 19.828C12.9718 19.5107 12.6872 19.044 12.6872 18.428C12.6872 18.1107 12.7618 17.8353 12.9112 17.602C13.0698 17.378 13.2938 17.196 13.5832 17.056C13.8818 16.9253 14.2318 16.8507 14.6332 16.832C14.3625 16.7293 14.1058 16.58 13.8632 16.384C13.6298 16.188 13.5132 15.922 13.5132 15.586C13.5132 15.2687 13.6392 14.9933 13.8912 14.76C14.1525 14.5267 14.4885 14.3027 14.8992 14.088C14.4605 13.948 14.0872 13.7007 13.7792 13.346C13.4712 12.982 13.3172 12.4967 13.3172 11.89C13.3172 11.0593 13.5692 10.42 14.0732 9.972C14.5772 9.524 15.3658 9.3 16.4392 9.3C16.7938 9.3 17.1112 9.33267 17.3912 9.398C17.6805 9.46333 17.9418 9.55667 18.1752 9.678C18.3338 9.51 18.4878 9.36533 18.6372 9.244C18.7958 9.12267 18.9592 9.02933 19.1272 8.964C19.3045 8.89867 19.5052 8.866 19.7292 8.866C20.0652 8.866 20.3172 8.95 20.4852 9.118C20.6532 9.286 20.7372 9.482 20.7372 9.706C20.7372 9.93 20.6625 10.1307 20.5132 10.308C20.3638 10.4853 20.0885 10.574 19.6872 10.574C19.6872 10.35 19.6265 10.1913 19.5052 10.098C19.3932 9.99533 19.2812 9.944 19.1692 9.944C19.0852 9.944 19.0012 9.958 18.9172 9.986C18.8332 10.014 18.7632 10.0467 18.7072 10.084C18.9312 10.28 19.1178 10.5273 19.2672 10.826C19.4165 11.1247 19.4912 11.4653 19.4912 11.848C19.4912 12.5853 19.2438 13.192 18.7492 13.668C18.2638 14.1347 17.4938 14.368 16.4392 14.368C16.3458 14.368 16.2058 14.3633 16.0192 14.354C15.8418 14.3447 15.7112 14.3353 15.6272 14.326C15.5152 14.3633 15.4078 14.4473 15.3052 14.578C15.2118 14.6993 15.1652 14.8347 15.1652 14.984C15.1652 15.1333 15.2258 15.2407 15.3472 15.306C15.4685 15.3713 15.6178 15.404 15.7952 15.404H17.4752C18.1285 15.404 18.6605 15.488 19.0712 15.656C19.4912 15.8147 19.8038 16.0573 20.0092 16.384C20.2145 16.7013 20.3172 17.0933 20.3172 17.56C20.3172 18.4187 19.9718 19.0907 19.2812 19.576C18.5998 20.0613 17.5452 20.304 16.1172 20.304ZM16.1452 19.408C16.6492 19.408 17.0692 19.3613 17.4052 19.268C17.7412 19.1747 17.9932 19.03 18.1612 18.834C18.3385 18.6473 18.4272 18.4187 18.4272 18.148C18.4272 17.9147 18.3432 17.7327 18.1752 17.602C18.0165 17.4807 17.7598 17.42 17.4052 17.42H15.6832C15.5338 17.42 15.3705 17.448 15.1932 17.504C15.0158 17.56 14.8665 17.658 14.7452 17.798C14.6238 17.9473 14.5632 18.1573 14.5632 18.428C14.5632 18.652 14.6285 18.834 14.7592 18.974C14.8898 19.1233 15.0765 19.2307 15.3192 19.296C15.5618 19.3707 15.8372 19.408 16.1452 19.408ZM16.4112 13.486C16.6632 13.486 16.8545 13.4207 16.9852 13.29C17.1158 13.15 17.2045 12.9587 17.2512 12.716C17.2978 12.4733 17.3212 12.198 17.3212 11.89C17.3212 11.5727 17.2978 11.288 17.2512 11.036C17.2045 10.7747 17.1158 10.5693 16.9852 10.42C16.8545 10.2707 16.6585 10.196 16.3972 10.196C16.1545 10.196 15.9632 10.2753 15.8232 10.434C15.6925 10.5833 15.5992 10.7887 15.5432 11.05C15.4872 11.302 15.4592 11.5867 15.4592 11.904C15.4592 12.2027 15.4872 12.4733 15.5432 12.716C15.5992 12.9493 15.6925 13.136 15.8232 13.276C15.9632 13.416 16.1592 13.486 16.4112 13.486Z" fill="#888888"/>
</svg>
