<svg width="24" height="24" viewBox="0 0 24 24" fill="none" xmlns="http://www.w3.org/2000/svg">
<path d="M4.35743 17V16.356H4.51143C4.65143 16.356 4.7681 16.328 4.86143 16.272C4.9641 16.216 5.05743 16.1133 5.14143 15.964C5.22543 15.8053 5.30943 15.5813 5.39343 15.292L7.85743 7.004H9.27143L11.7214 15.628C11.7774 15.8147 11.8428 15.964 11.9174 16.076C11.9921 16.1787 12.0854 16.2533 12.1974 16.3C12.3094 16.3373 12.4401 16.356 12.5894 16.356H12.7014V17H9.10343V16.356H9.43943C9.6261 16.356 9.77076 16.314 9.87343 16.23C9.9761 16.1367 10.0274 16.006 10.0274 15.838C10.0274 15.7633 10.0181 15.684 9.99943 15.6C9.9901 15.5067 9.97143 15.4133 9.94343 15.32C9.92476 15.2267 9.9061 15.138 9.88743 15.054L9.52343 13.668H6.73743L6.41543 14.914C6.39676 14.9887 6.37343 15.0773 6.34543 15.18C6.32676 15.2827 6.3081 15.3853 6.28943 15.488C6.27076 15.5907 6.26143 15.684 6.26143 15.768C6.26143 15.9453 6.3081 16.09 6.40143 16.202C6.49476 16.3047 6.65343 16.356 6.87743 16.356H7.25543V17H4.35743ZM6.97543 12.912H9.29943L8.62743 10.238C8.5621 9.986 8.49676 9.748 8.43143 9.524C8.37543 9.3 8.3241 9.09 8.27743 8.894C8.2401 8.68867 8.20276 8.49733 8.16543 8.32C8.13743 8.45067 8.10476 8.59067 8.06743 8.74C8.03943 8.88 8.00676 9.02933 7.96943 9.188C7.9321 9.33733 7.8901 9.496 7.84343 9.664C7.8061 9.82267 7.76876 9.97667 7.73143 10.126L6.97543 12.912ZM15.0689 20.318C14.2102 20.318 13.5662 20.1453 13.1369 19.8C12.7075 19.4547 12.4929 18.9647 12.4929 18.33C12.4929 17.9847 12.5582 17.686 12.6889 17.434C12.8195 17.182 12.9969 16.9813 13.2209 16.832C13.4542 16.6733 13.7109 16.5753 13.9909 16.538C13.7949 16.4353 13.6082 16.3 13.4309 16.132C13.2629 15.964 13.1789 15.726 13.1789 15.418C13.1789 15.1287 13.2722 14.8767 13.4589 14.662C13.6455 14.438 13.8789 14.2373 14.1589 14.06C13.8042 13.892 13.5149 13.6213 13.2909 13.248C13.0669 12.8747 12.9549 12.436 12.9549 11.932C12.9549 11.12 13.1509 10.4853 13.5429 10.028C13.9349 9.57067 14.5322 9.342 15.3349 9.342C15.6242 9.342 15.8762 9.384 16.0909 9.468C16.3149 9.54267 16.5202 9.64533 16.7069 9.776C16.8002 9.67333 16.9029 9.56133 17.0149 9.44C17.1362 9.31867 17.2715 9.21133 17.4209 9.118C17.5702 9.02467 17.7382 8.978 17.9249 8.978C18.1582 8.978 18.3355 9.05733 18.4569 9.216C18.5782 9.36533 18.6389 9.54267 18.6389 9.748C18.6389 9.95333 18.5829 10.1353 18.4709 10.294C18.3682 10.4527 18.1862 10.532 17.9249 10.532C17.9249 10.3547 17.8782 10.2147 17.7849 10.112C17.7009 10 17.6122 9.944 17.5189 9.944C17.4255 9.944 17.3462 9.96267 17.2809 10C17.2155 10.0373 17.1502 10.084 17.0849 10.14C17.2435 10.3267 17.3789 10.5553 17.4909 10.826C17.6029 11.0873 17.6589 11.4327 17.6589 11.862C17.6589 12.59 17.4722 13.1827 17.0989 13.64C16.7255 14.0973 16.1375 14.326 15.3349 14.326C15.2509 14.326 15.1389 14.3213 14.9989 14.312C14.8589 14.2933 14.7515 14.2747 14.6769 14.256C14.5835 14.3307 14.4902 14.438 14.3969 14.578C14.3129 14.718 14.2709 14.886 14.2709 15.082C14.2709 15.2873 14.3315 15.4367 14.4529 15.53C14.5742 15.614 14.7329 15.656 14.9289 15.656H16.1749C16.6695 15.656 17.0709 15.7447 17.3789 15.922C17.6962 16.09 17.9249 16.3327 18.0649 16.65C18.2142 16.958 18.2889 17.308 18.2889 17.7C18.2889 18.512 18.0229 19.1513 17.4909 19.618C16.9682 20.0847 16.1609 20.318 15.0689 20.318ZM15.1109 19.576C15.5682 19.576 15.9369 19.506 16.2169 19.366C16.4969 19.2353 16.6975 19.0487 16.8189 18.806C16.9495 18.5727 17.0149 18.3067 17.0149 18.008C17.0149 17.644 16.9355 17.3827 16.7769 17.224C16.6182 17.0653 16.3802 16.986 16.0629 16.986H14.7889C14.6302 16.986 14.4669 17.0233 14.2989 17.098C14.1402 17.1727 14.0095 17.3033 13.9069 17.49C13.8042 17.6767 13.7529 17.9333 13.7529 18.26C13.7529 18.5213 13.8042 18.75 13.9069 18.946C14.0095 19.1513 14.1589 19.3053 14.3549 19.408C14.5602 19.52 14.8122 19.576 15.1109 19.576ZM15.3069 13.626C15.5495 13.626 15.7409 13.5607 15.8809 13.43C16.0209 13.2993 16.1142 13.1033 16.1609 12.842C16.2169 12.5807 16.2449 12.2633 16.2449 11.89C16.2449 11.498 16.2169 11.1667 16.1609 10.896C16.1049 10.6253 16.0069 10.42 15.8669 10.28C15.7362 10.1307 15.5495 10.056 15.3069 10.056C15.0829 10.056 14.9009 10.1307 14.7609 10.28C14.6302 10.4293 14.5322 10.6393 14.4669 10.91C14.4015 11.1807 14.3689 11.512 14.3689 11.904C14.3689 12.268 14.3969 12.5807 14.4529 12.842C14.5182 13.094 14.6209 13.29 14.7609 13.43C14.9009 13.5607 15.0829 13.626 15.3069 13.626Z" fill="#888888"/>
</svg>
