<svg width="24" height="24" viewBox="0 0 24 24" fill="none" xmlns="http://www.w3.org/2000/svg">
<path d="M4.41101 17L10.067 6.976H10.403L11.705 17H11.355L10.851 13.206H6.95901L4.83101 17H4.41101ZM7.15501 12.856H10.809L10.291 8.684C10.2723 8.49733 10.249 8.30133 10.221 8.096C10.193 7.88133 10.1697 7.66667 10.151 7.452H10.123C10.0203 7.65733 9.90834 7.86733 9.78701 8.082C9.67501 8.28733 9.56767 8.488 9.46501 8.684L7.15501 12.856ZM14.6104 20.36C14.2184 20.36 13.8544 20.3133 13.5184 20.22C13.1918 20.1267 12.9071 20.0193 12.6644 19.898V19.492C12.8418 19.5853 13.0331 19.6693 13.2384 19.744C13.4531 19.828 13.6771 19.8933 13.9104 19.94C14.1531 19.9867 14.3911 20.01 14.6244 20.01C15.4644 20.01 16.1084 19.7673 16.5564 19.282C17.0044 18.7967 17.3171 18.148 17.4944 17.336L17.6204 16.762C17.6578 16.5847 17.6998 16.3933 17.7464 16.188C17.7931 15.9733 17.8398 15.7633 17.8864 15.558C17.9424 15.3527 17.9938 15.1613 18.0404 14.984H18.0124C17.8164 15.32 17.5691 15.656 17.2704 15.992C16.9718 16.3187 16.6311 16.594 16.2484 16.818C15.8751 17.0327 15.4691 17.14 15.0304 17.14C14.5824 17.14 14.2091 17.0327 13.9104 16.818C13.6211 16.6033 13.4064 16.3047 13.2664 15.922C13.1264 15.53 13.0564 15.0773 13.0564 14.564C13.0564 14.1067 13.1031 13.64 13.1964 13.164C13.2991 12.688 13.4484 12.2307 13.6444 11.792C13.8404 11.344 14.0831 10.9473 14.3724 10.602C14.6711 10.2567 15.0164 9.98133 15.4084 9.776C15.8098 9.57067 16.2578 9.468 16.7524 9.468C17.1911 9.468 17.5504 9.56133 17.8304 9.748C18.1198 9.92533 18.3391 10.154 18.4884 10.434C18.6471 10.714 18.7451 11.0033 18.7824 11.302H18.8104L19.1884 9.608H19.4964L17.8444 17.392C17.7231 17.9893 17.5318 18.5073 17.2704 18.946C17.0091 19.394 16.6591 19.7393 16.2204 19.982C15.7911 20.234 15.2544 20.36 14.6104 20.36ZM15.0864 16.79C15.3571 16.79 15.6278 16.734 15.8984 16.622C16.1784 16.5007 16.4444 16.3327 16.6964 16.118C16.9578 15.9033 17.2004 15.6513 17.4244 15.362C17.6484 15.0633 17.8444 14.7367 18.0124 14.382C18.1804 14.018 18.3111 13.6307 18.4044 13.22C18.4978 12.8093 18.5444 12.3847 18.5444 11.946C18.5444 11.2273 18.3764 10.6953 18.0404 10.35C17.7138 9.99533 17.2798 9.818 16.7384 9.818C16.2998 9.818 15.9031 9.91133 15.5484 10.098C15.1938 10.2847 14.8811 10.5367 14.6104 10.854C14.3491 11.1713 14.1298 11.5353 13.9524 11.946C13.7844 12.3473 13.6538 12.7767 13.5604 13.234C13.4764 13.682 13.4344 14.1253 13.4344 14.564C13.4344 15.2453 13.5651 15.7867 13.8264 16.188C14.0878 16.5893 14.5078 16.79 15.0864 16.79Z" fill="#888888"/>
</svg>
