<svg width="24" height="24" viewBox="0 0 24 24" fill="none" xmlns="http://www.w3.org/2000/svg">
<path d="M2.30063 17L7.28463 7.004H10.2806L11.0226 17H8.72663L8.65663 14.858H5.68863L4.76463 17H2.30063ZM6.61263 12.912H8.58663L8.50263 10.196C8.4933 9.95333 8.48397 9.706 8.47463 9.454C8.47463 9.202 8.4793 8.95 8.48863 8.698H8.44663C8.37197 8.93133 8.29263 9.16 8.20863 9.384C8.12463 9.608 8.02663 9.85067 7.91463 10.112L6.61263 12.912ZM14.382 20.36C13.8406 20.36 13.388 20.3133 13.024 20.22C12.6693 20.136 12.3333 20.0287 12.016 19.898L12.03 17.924C12.2633 18.0453 12.4966 18.148 12.73 18.232C12.9726 18.3253 13.2293 18.3953 13.5 18.442C13.7706 18.4887 14.0413 18.512 14.312 18.512C14.7413 18.512 15.082 18.4047 15.334 18.19C15.586 17.9847 15.7633 17.6813 15.866 17.28L15.922 17.028C15.95 16.9067 15.978 16.7807 16.006 16.65C16.0433 16.5193 16.0713 16.4027 16.09 16.3C16.118 16.1973 16.1413 16.132 16.16 16.104H16.104C15.9733 16.2813 15.8286 16.4493 15.67 16.608C15.5206 16.7573 15.3386 16.8787 15.124 16.972C14.9093 17.0653 14.662 17.112 14.382 17.112C14.018 17.112 13.6913 17.0187 13.402 16.832C13.1126 16.6453 12.884 16.3513 12.716 15.95C12.548 15.5393 12.464 15.0073 12.464 14.354C12.464 13.906 12.506 13.444 12.59 12.968C12.6833 12.4827 12.8186 12.016 12.996 11.568C13.1826 11.12 13.4113 10.714 13.682 10.35C13.9526 9.986 14.2653 9.70133 14.62 9.496C14.9746 9.28133 15.3713 9.174 15.81 9.174C16.09 9.174 16.3326 9.216 16.538 9.3C16.7433 9.384 16.9206 9.50533 17.07 9.664C17.2286 9.82267 17.3826 10.028 17.532 10.28H17.588L17.952 9.314H19.8L18.12 17.182C17.952 17.9847 17.686 18.6147 17.322 19.072C16.9673 19.5387 16.538 19.87 16.034 20.066C15.53 20.262 14.9793 20.36 14.382 20.36ZM15.502 15.264C15.6513 15.264 15.7913 15.2173 15.922 15.124C16.0526 15.0307 16.1693 14.9 16.272 14.732C16.3746 14.564 16.468 14.3773 16.552 14.172C16.6453 13.9573 16.72 13.7333 16.776 13.5C16.832 13.2573 16.874 13.0193 16.902 12.786C16.93 12.5433 16.944 12.3193 16.944 12.114C16.944 11.7967 16.8926 11.54 16.79 11.344C16.6873 11.148 16.5286 11.05 16.314 11.05C16.1553 11.05 16.0013 11.1107 15.852 11.232C15.712 11.3533 15.5766 11.5213 15.446 11.736C15.3246 11.9413 15.2173 12.1793 15.124 12.45C15.04 12.7113 14.97 12.9913 14.914 13.29C14.8673 13.5887 14.844 13.8873 14.844 14.186C14.844 14.5407 14.9 14.8113 15.012 14.998C15.124 15.1753 15.2873 15.264 15.502 15.264Z" fill="#888888"/>
</svg>
