<svg width="24" height="24" viewBox="0 0 24 24" fill="none" xmlns="http://www.w3.org/2000/svg">
<path d="M5.29996 17L9.48596 6.962H10.914L10.956 17H9.79396L9.80796 13.822H7.81996L6.51796 17H5.29996ZM8.19796 12.8H9.84996L9.90596 9.286C9.90596 9.062 9.91063 8.852 9.91996 8.656C9.92929 8.45067 9.94329 8.264 9.96196 8.096H9.91996C9.88263 8.25467 9.83129 8.432 9.76596 8.628C9.70996 8.824 9.63529 9.04333 9.54196 9.286L8.19796 12.8ZM13.1441 20.36C12.8361 20.36 12.5421 20.3133 12.2621 20.22C11.9821 20.136 11.7488 20.038 11.5621 19.926V18.876C11.6835 18.96 11.8281 19.044 11.9961 19.128C12.1735 19.212 12.3648 19.282 12.5701 19.338C12.7755 19.394 12.9761 19.422 13.1721 19.422C13.6575 19.422 14.0401 19.2587 14.3201 18.932C14.6095 18.6147 14.8288 18.1433 14.9781 17.518L15.0901 17.014C15.1088 16.9393 15.1275 16.8507 15.1461 16.748C15.1741 16.6453 15.2021 16.5333 15.2301 16.412C15.2675 16.2813 15.3048 16.1507 15.3421 16.02H15.3141C15.1555 16.272 14.9875 16.482 14.8101 16.65C14.6328 16.818 14.4461 16.9393 14.2501 17.014C14.0635 17.098 13.8581 17.14 13.6341 17.14C13.3355 17.14 13.0788 17.0653 12.8641 16.916C12.6495 16.7573 12.4861 16.524 12.3741 16.216C12.2621 15.908 12.2061 15.5347 12.2061 15.096C12.2061 14.676 12.2435 14.214 12.3181 13.71C12.4021 13.1967 12.5235 12.6833 12.6821 12.17C12.8408 11.6567 13.0415 11.19 13.2841 10.77C13.5268 10.3407 13.8115 10 14.1381 9.748C14.4648 9.48667 14.8381 9.356 15.2581 9.356C15.4915 9.356 15.6875 9.398 15.8461 9.482C16.0141 9.566 16.1495 9.68733 16.2521 9.846C16.3641 10.0047 16.4481 10.2053 16.5041 10.448H16.5461L16.8261 9.496H17.7501L16.0701 17.476C15.9301 18.148 15.7295 18.694 15.4681 19.114C15.2161 19.5433 14.8988 19.856 14.5161 20.052C14.1335 20.2573 13.6761 20.36 13.1441 20.36ZM14.0401 16.188C14.2641 16.188 14.4695 16.104 14.6561 15.936C14.8521 15.768 15.0295 15.5487 15.1881 15.278C15.3468 14.998 15.4821 14.6853 15.5941 14.34C15.7155 13.9853 15.8135 13.6307 15.8881 13.276C15.9721 12.912 16.0328 12.562 16.0701 12.226C16.1168 11.89 16.1401 11.596 16.1401 11.344C16.1401 11.0173 16.0701 10.7653 15.9301 10.588C15.7901 10.4107 15.5988 10.322 15.3561 10.322C15.0948 10.322 14.8568 10.434 14.6421 10.658C14.4275 10.8727 14.2361 11.1573 14.0681 11.512C13.9095 11.8573 13.7741 12.24 13.6621 12.66C13.5501 13.08 13.4661 13.4953 13.4101 13.906C13.3541 14.3073 13.3261 14.6667 13.3261 14.984C13.3261 15.3853 13.3821 15.6887 13.4941 15.894C13.6061 16.09 13.7881 16.188 14.0401 16.188Z" fill="#888888"/>
</svg>
