<svg width="24" height="24" viewBox="0 0 24 24" fill="none" xmlns="http://www.w3.org/2000/svg">
<path d="M3.45574 17V16.86H3.94574C4.11374 16.86 4.25841 16.832 4.37974 16.776C4.50108 16.7107 4.60374 16.608 4.68774 16.468C4.78108 16.3187 4.86508 16.1087 4.93974 15.838L7.48774 7.004H9.19574L11.9397 15.992C12.0051 16.2067 12.0751 16.3793 12.1497 16.51C12.2337 16.6407 12.3271 16.734 12.4297 16.79C12.5324 16.8367 12.6537 16.86 12.7937 16.86H12.8917V17H8.57974V16.86H9.18174C9.38708 16.86 9.52708 16.8227 9.60174 16.748C9.67641 16.664 9.71374 16.5473 9.71374 16.398C9.71374 16.3327 9.70441 16.2627 9.68574 16.188C9.67641 16.1133 9.66241 16.034 9.64374 15.95C9.62508 15.8567 9.60174 15.768 9.57374 15.684L8.94374 13.346H5.80774L5.20574 15.46C5.15908 15.5907 5.12174 15.7167 5.09374 15.838C5.07508 15.95 5.05641 16.0527 5.03774 16.146C5.01908 16.2393 5.00974 16.3233 5.00974 16.398C5.00974 16.566 5.05174 16.6873 5.13574 16.762C5.21974 16.8273 5.35041 16.86 5.52774 16.86H6.38174V17H3.45574ZM5.84974 13.206H8.90174L7.92174 9.51C7.86574 9.314 7.80974 9.11333 7.75374 8.908C7.69774 8.69333 7.64174 8.47867 7.58574 8.264C7.52974 8.04 7.47841 7.816 7.43174 7.592C7.39441 7.75067 7.35708 7.90933 7.31974 8.068C7.28241 8.21733 7.24041 8.36667 7.19374 8.516C7.14708 8.66533 7.10041 8.81467 7.05374 8.964C7.01641 9.11333 6.97908 9.258 6.94174 9.398L5.84974 13.206ZM15.5263 20.29C14.5556 20.29 13.8089 20.15 13.2863 19.87C12.7729 19.5993 12.5163 19.2027 12.5163 18.68C12.5163 18.3907 12.6003 18.1433 12.7683 17.938C12.9363 17.742 13.1883 17.5833 13.5243 17.462C13.8603 17.3407 14.2803 17.266 14.7843 17.238C14.2616 17.1913 13.8696 17.0233 13.6083 16.734C13.3469 16.4447 13.2163 16.1227 13.2163 15.768C13.2163 15.4227 13.3329 15.1053 13.5663 14.816C13.8089 14.5267 14.1729 14.312 14.6583 14.172C14.1823 14.0133 13.7949 13.7427 13.4963 13.36C13.1976 12.968 13.0483 12.4733 13.0483 11.876C13.0483 11.0547 13.2723 10.4247 13.7203 9.986C14.1683 9.538 14.8683 9.314 15.8203 9.314C16.1563 9.314 16.4689 9.36067 16.7583 9.454C17.0569 9.538 17.3229 9.664 17.5563 9.832C17.6496 9.65467 17.7476 9.496 17.8503 9.356C17.9529 9.216 18.0789 9.104 18.2283 9.02C18.3776 8.92667 18.5549 8.88 18.7603 8.88C19.0403 8.88 19.2503 8.964 19.3903 9.132C19.5396 9.29067 19.6143 9.482 19.6143 9.706C19.6143 9.93933 19.5443 10.14 19.4043 10.308C19.2643 10.476 19.0309 10.56 18.7043 10.56C18.7043 10.2333 18.6576 9.99533 18.5643 9.846C18.4803 9.68733 18.3496 9.608 18.1723 9.608C18.0789 9.608 17.9903 9.63133 17.9063 9.678C17.8316 9.72467 17.7476 9.804 17.6543 9.916C17.9343 10.14 18.1489 10.42 18.2983 10.756C18.4569 11.0827 18.5363 11.4513 18.5363 11.862C18.5363 12.5993 18.3169 13.2013 17.8783 13.668C17.4489 14.1253 16.7629 14.354 15.8203 14.354C15.6429 14.354 15.4703 14.3447 15.3023 14.326C15.1343 14.298 14.9709 14.2653 14.8123 14.228C14.6909 14.312 14.6023 14.41 14.5463 14.522C14.4903 14.6247 14.4623 14.7367 14.4623 14.858C14.4623 15.054 14.5276 15.208 14.6583 15.32C14.7983 15.4227 15.0176 15.474 15.3163 15.474H16.7163C17.2949 15.474 17.7663 15.558 18.1303 15.726C18.5036 15.894 18.7789 16.1367 18.9563 16.454C19.1429 16.7713 19.2363 17.154 19.2363 17.602C19.2363 18.4327 18.9376 19.086 18.3403 19.562C17.7429 20.0473 16.8049 20.29 15.5263 20.29ZM15.7783 20.15C16.2169 20.15 16.5809 20.0893 16.8703 19.968C17.1689 19.8467 17.3929 19.6647 17.5423 19.422C17.6916 19.1793 17.7663 18.876 17.7663 18.512C17.7663 18.1107 17.6636 17.8027 17.4583 17.588C17.2529 17.3827 16.9123 17.28 16.4363 17.28H15.3723C15.1483 17.28 14.9336 17.322 14.7283 17.406C14.5323 17.4993 14.3736 17.644 14.2523 17.84C14.1403 18.0453 14.0843 18.316 14.0843 18.652C14.0843 19.016 14.1543 19.3053 14.2943 19.52C14.4436 19.744 14.6443 19.9027 14.8963 19.996C15.1483 20.0987 15.4423 20.15 15.7783 20.15ZM15.7923 14.214C16.0069 14.214 16.1749 14.1487 16.2963 14.018C16.4176 13.8873 16.5016 13.654 16.5483 13.318C16.6043 12.982 16.6323 12.5107 16.6323 11.904C16.6323 11.2507 16.6043 10.7467 16.5483 10.392C16.5016 10.0373 16.4129 9.79467 16.2823 9.664C16.1609 9.524 15.9976 9.454 15.7923 9.454C15.5869 9.454 15.4189 9.524 15.2883 9.664C15.1669 9.804 15.0783 10.0513 15.0223 10.406C14.9663 10.7607 14.9383 11.2647 14.9383 11.918C14.9383 12.5153 14.9663 12.982 15.0223 13.318C15.0783 13.654 15.1669 13.8873 15.2883 14.018C15.4096 14.1487 15.5776 14.214 15.7923 14.214Z" fill="#888888"/>
</svg>
