<svg width="24" height="24" viewBox="0 0 24 24" fill="none" xmlns="http://www.w3.org/2000/svg">
<path d="M9.84122 17L9.22522 14.326H6.66322L6.04722 17H4.19922L6.85922 6.99H9.00122L11.6752 17H9.84122ZM8.25922 10.056C8.21255 9.86933 8.17055 9.678 8.13322 9.482C8.09589 9.286 8.05855 9.09467 8.02122 8.908C7.99322 8.712 7.96522 8.53 7.93722 8.362C7.91855 8.53 7.89055 8.712 7.85322 8.908C7.81589 9.09467 7.77855 9.286 7.74122 9.482C7.70389 9.66867 7.66189 9.85533 7.61522 10.042L6.98522 12.856H8.90322L8.25922 10.056ZM14.5897 9.258C14.9724 9.258 15.3037 9.34667 15.5837 9.524C15.8637 9.70133 16.1064 9.986 16.3117 10.378H16.3957L16.5357 9.398H17.9497V16.874C17.9497 17.6207 17.8331 18.2507 17.5997 18.764C17.3757 19.2867 17.0304 19.6833 16.5637 19.954C16.0971 20.2247 15.4951 20.36 14.7577 20.36C14.3377 20.36 13.9504 20.318 13.5957 20.234C13.2411 20.1593 12.9051 20.038 12.5877 19.87V18.456C12.8304 18.5773 13.0684 18.68 13.3017 18.764C13.5351 18.848 13.7684 18.9087 14.0017 18.946C14.2444 18.9927 14.4871 19.016 14.7297 19.016C15.2337 19.016 15.6211 18.876 15.8917 18.596C16.1624 18.316 16.2977 17.8633 16.2977 17.238V17.056C16.2977 16.9067 16.3024 16.734 16.3117 16.538C16.3304 16.3327 16.3444 16.146 16.3537 15.978H16.2977C16.0924 16.3793 15.8497 16.6733 15.5697 16.86C15.2897 17.0467 14.9444 17.14 14.5337 17.14C13.8057 17.14 13.2364 16.804 12.8257 16.132C12.4244 15.4507 12.2237 14.4847 12.2237 13.234C12.2237 12.3847 12.3171 11.666 12.5037 11.078C12.6904 10.49 12.9611 10.042 13.3157 9.734C13.6704 9.41667 14.0951 9.258 14.5897 9.258ZM15.0517 10.644C14.7904 10.644 14.5757 10.742 14.4077 10.938C14.2491 11.134 14.1231 11.428 14.0297 11.82C13.9457 12.2027 13.9037 12.6833 13.9037 13.262C13.9037 14.1113 13.9971 14.7413 14.1837 15.152C14.3797 15.5627 14.6737 15.768 15.0657 15.768C15.2897 15.768 15.4764 15.726 15.6257 15.642C15.7844 15.5487 15.9151 15.4087 16.0177 15.222C16.1204 15.0353 16.1951 14.802 16.2417 14.522C16.2977 14.2327 16.3257 13.892 16.3257 13.5V13.164C16.3257 12.576 16.2791 12.0953 16.1857 11.722C16.1017 11.3487 15.9664 11.078 15.7797 10.91C15.5931 10.7327 15.3504 10.644 15.0517 10.644Z" fill="#888888"/>
</svg>
