<svg width="24" height="24" viewBox="0 0 24 24" fill="none" xmlns="http://www.w3.org/2000/svg">
<path d="M4.15366 17V16.3H4.29366C4.44299 16.3 4.57366 16.272 4.68566 16.216C4.79766 16.16 4.90032 16.0573 4.99366 15.908C5.08699 15.7587 5.17566 15.5393 5.25966 15.25L7.90566 7.004H9.62766L12.2177 15.446C12.283 15.6607 12.3623 15.8333 12.4557 15.964C12.549 16.0853 12.6517 16.174 12.7637 16.23C12.885 16.2767 13.0203 16.3 13.1697 16.3H13.3237V17H9.24966V16.3H9.66966C9.82832 16.3 9.96366 16.258 10.0757 16.174C10.1877 16.09 10.2437 15.9593 10.2437 15.782C10.2437 15.7073 10.2343 15.628 10.2157 15.544C10.2063 15.46 10.1923 15.376 10.1737 15.292C10.155 15.208 10.1363 15.1333 10.1177 15.068L9.71166 13.696H6.77166L6.43566 14.9C6.41699 14.9747 6.39366 15.0633 6.36566 15.166C6.33766 15.2593 6.31432 15.3573 6.29566 15.46C6.27699 15.5627 6.26766 15.656 6.26766 15.74C6.26766 15.908 6.31432 16.0433 6.40766 16.146C6.51032 16.2487 6.65966 16.3 6.85566 16.3H7.33166V17H4.15366ZM7.03766 12.87H9.45966L8.77366 10.308C8.71766 10.084 8.65699 9.86467 8.59166 9.65C8.53566 9.426 8.47966 9.20667 8.42366 8.992C8.37699 8.768 8.33499 8.56267 8.29766 8.376C8.26032 8.516 8.22299 8.66533 8.18566 8.824C8.14832 8.97333 8.10632 9.12733 8.05966 9.286C8.02232 9.44467 7.98032 9.60333 7.93366 9.762C7.88699 9.92067 7.84032 10.0793 7.79366 10.238L7.03766 12.87ZM15.9227 20.318C14.9614 20.318 14.2427 20.15 13.7667 19.814C13.2907 19.4873 13.0527 19.0067 13.0527 18.372C13.0527 18.036 13.1181 17.7467 13.2487 17.504C13.3887 17.2613 13.5847 17.07 13.8367 16.93C14.0887 16.79 14.3781 16.7013 14.7047 16.664C14.4901 16.5613 14.2801 16.4213 14.0747 16.244C13.8787 16.0573 13.7807 15.8053 13.7807 15.488C13.7807 15.1893 13.8881 14.928 14.1027 14.704C14.3174 14.48 14.5881 14.2653 14.9147 14.06C14.5227 13.9107 14.2007 13.654 13.9487 13.29C13.7061 12.9167 13.5847 12.4593 13.5847 11.918C13.5847 11.0967 13.7994 10.462 14.2287 10.014C14.6581 9.55667 15.3207 9.328 16.2167 9.328C16.5247 9.328 16.8001 9.36533 17.0427 9.44C17.2854 9.51467 17.5047 9.61733 17.7007 9.748C17.8314 9.608 17.9621 9.47733 18.0927 9.356C18.2234 9.23467 18.3634 9.13667 18.5127 9.062C18.6621 8.98733 18.8347 8.95 19.0307 8.95C19.3014 8.95 19.5067 9.02933 19.6467 9.188C19.7867 9.34667 19.8567 9.53333 19.8567 9.748C19.8567 9.95333 19.7961 10.14 19.6747 10.308C19.5534 10.4667 19.3341 10.546 19.0167 10.546C19.0167 10.3593 18.9654 10.2147 18.8627 10.112C18.7694 10.0093 18.6714 9.958 18.5687 9.958C18.4847 9.958 18.4054 9.972 18.3307 10C18.2561 10.028 18.1907 10.0653 18.1347 10.112C18.3121 10.308 18.4614 10.5507 18.5827 10.84C18.7134 11.1293 18.7787 11.47 18.7787 11.862C18.7787 12.59 18.5734 13.1873 18.1627 13.654C17.7521 14.1113 17.1034 14.34 16.2167 14.34C16.1234 14.34 16.0021 14.3353 15.8527 14.326C15.7034 14.3167 15.5867 14.3027 15.5027 14.284C15.4001 14.3493 15.3021 14.452 15.2087 14.592C15.1247 14.7227 15.0827 14.872 15.0827 15.04C15.0827 15.2173 15.1387 15.348 15.2507 15.432C15.3721 15.516 15.5214 15.558 15.6987 15.558H17.1267C17.6681 15.558 18.1114 15.642 18.4567 15.81C18.8114 15.978 19.0727 16.2207 19.2407 16.538C19.4087 16.8553 19.4927 17.224 19.4927 17.644C19.4927 18.4747 19.1987 19.128 18.6107 19.604C18.0321 20.08 17.1361 20.318 15.9227 20.318ZM15.9647 19.52C16.4314 19.52 16.8141 19.4593 17.1127 19.338C17.4114 19.2167 17.6307 19.0487 17.7707 18.834C17.9201 18.6193 17.9947 18.3673 17.9947 18.078C17.9947 17.7513 17.9107 17.518 17.7427 17.378C17.5841 17.238 17.3461 17.168 17.0287 17.168H15.6007C15.4421 17.168 15.2787 17.2007 15.1107 17.266C14.9521 17.3313 14.8167 17.448 14.7047 17.616C14.5927 17.784 14.5367 18.022 14.5367 18.33C14.5367 18.582 14.5927 18.7967 14.7047 18.974C14.8167 19.1513 14.9801 19.2867 15.1947 19.38C15.4094 19.4733 15.6661 19.52 15.9647 19.52ZM16.1747 13.57C16.4267 13.57 16.6134 13.5047 16.7347 13.374C16.8654 13.2433 16.9541 13.052 17.0007 12.8C17.0567 12.5387 17.0847 12.2353 17.0847 11.89C17.0847 11.526 17.0567 11.2133 17.0007 10.952C16.9541 10.6813 16.8654 10.476 16.7347 10.336C16.6041 10.1867 16.4221 10.112 16.1887 10.112C15.9554 10.112 15.7734 10.1867 15.6427 10.336C15.5121 10.4853 15.4187 10.6953 15.3627 10.966C15.3067 11.2273 15.2787 11.54 15.2787 11.904C15.2787 12.24 15.3067 12.534 15.3627 12.786C15.4187 13.038 15.5121 13.234 15.6427 13.374C15.7827 13.5047 15.9601 13.57 16.1747 13.57Z" fill="#888888"/>
</svg>
