<svg width="24" height="24" viewBox="0 0 24 24" fill="none" xmlns="http://www.w3.org/2000/svg">
<path d="M6.80343 12.792C7.06943 11.756 7.34943 10.538 7.60143 9.446H7.65743C7.93743 10.51 8.20343 11.756 8.48343 12.792L8.70743 13.674H6.57943L6.80343 12.792ZM2.95343 18H5.50143L6.10343 15.606H9.18343L9.78543 18H12.4174L9.18343 7.57H6.18743L2.95343 18ZM16.1716 21.346C18.9436 21.346 20.6936 20.156 20.6936 18.476C20.6936 17.034 19.5736 16.432 17.6136 16.432H16.3536C15.4996 16.432 15.1776 16.264 15.1776 15.9C15.1776 15.62 15.2616 15.508 15.4296 15.34C15.7796 15.438 16.1016 15.48 16.3676 15.48C18.1316 15.48 19.5456 14.668 19.5456 12.806C19.5456 12.428 19.4476 12.064 19.3356 11.84H20.5536V10.034H17.6276C17.2636 9.908 16.8296 9.838 16.3676 9.838C14.6456 9.838 13.0356 10.79 13.0356 12.722C13.0356 13.66 13.5536 14.402 14.1276 14.794V14.85C13.5956 15.214 13.2316 15.774 13.2316 16.334C13.2316 17.006 13.5396 17.426 13.9596 17.706V17.776C13.2176 18.154 12.8396 18.686 12.8396 19.344C12.8396 20.772 14.3376 21.346 16.1716 21.346ZM16.3676 13.982C15.7936 13.982 15.3596 13.562 15.3596 12.722C15.3596 11.924 15.7936 11.504 16.3676 11.504C16.9556 11.504 17.3896 11.924 17.3896 12.722C17.3896 13.562 16.9556 13.982 16.3676 13.982ZM16.5636 19.792C15.5556 19.792 14.8836 19.512 14.8836 18.952C14.8836 18.686 14.9956 18.462 15.2476 18.238C15.4996 18.308 15.8076 18.336 16.3816 18.336H17.1376C17.8796 18.336 18.2996 18.434 18.2996 18.91C18.2996 19.414 17.5856 19.792 16.5636 19.792Z" fill="#333333"/>
</svg>
