<svg width="24" height="24" viewBox="0 0 24 24" fill="none" xmlns="http://www.w3.org/2000/svg">
<path d="M5.20262 17L9.36063 6.962H10.2986L10.3126 17H9.54263L9.55663 13.416H7.48463L6.01462 17H5.20262ZM7.73663 12.73H9.57063L9.62663 8.894C9.62663 8.68867 9.62663 8.49267 9.62663 8.306C9.63596 8.11 9.64529 7.942 9.65463 7.802H9.62663C9.58929 7.942 9.53796 8.10533 9.47263 8.292C9.40729 8.46933 9.32796 8.67467 9.23463 8.908L7.73663 12.73ZM12.4159 20.36C12.1266 20.36 11.8512 20.318 11.5899 20.234C11.3286 20.15 11.1232 20.066 10.9739 19.982V19.254C11.0766 19.3193 11.2026 19.3893 11.3519 19.464C11.5106 19.5387 11.6832 19.5993 11.8699 19.646C12.0566 19.6927 12.2432 19.716 12.4299 19.716C12.9899 19.716 13.4099 19.534 13.6899 19.17C13.9792 18.8153 14.2079 18.274 14.3759 17.546L14.5299 16.832C14.5486 16.7667 14.5672 16.6827 14.5859 16.58C14.6139 16.4773 14.6419 16.3653 14.6699 16.244C14.6979 16.1227 14.7306 16.0013 14.7679 15.88H14.7399C14.5812 16.1507 14.4132 16.3793 14.2359 16.566C14.0679 16.7527 13.8859 16.8973 13.6899 17C13.4939 17.0933 13.2699 17.14 13.0179 17.14C12.7286 17.14 12.4766 17.0607 12.2619 16.902C12.0566 16.7433 11.8979 16.51 11.7859 16.202C11.6832 15.894 11.6319 15.5207 11.6319 15.082C11.6319 14.6527 11.6692 14.186 11.7439 13.682C11.8279 13.1687 11.9492 12.6647 12.1079 12.17C12.2666 11.666 12.4626 11.2087 12.6959 10.798C12.9386 10.3873 13.2186 10.056 13.5359 9.804C13.8532 9.552 14.2126 9.426 14.6139 9.426C14.8659 9.426 15.0759 9.47733 15.2439 9.58C15.4119 9.68267 15.5426 9.82267 15.6359 10C15.7386 10.168 15.8086 10.3733 15.8459 10.616H15.8879L16.1679 9.566H16.7699L15.0759 17.588C14.9452 18.204 14.7679 18.7173 14.5439 19.128C14.3199 19.5387 14.0352 19.8467 13.6899 20.052C13.3446 20.2573 12.9199 20.36 12.4159 20.36ZM13.2419 16.496C13.5032 16.496 13.7412 16.398 13.9559 16.202C14.1799 15.9967 14.3759 15.7353 14.5439 15.418C14.7212 15.0913 14.8706 14.732 14.9919 14.34C15.1226 13.9387 15.2252 13.542 15.2999 13.15C15.3839 12.758 15.4446 12.394 15.4819 12.058C15.5286 11.722 15.5519 11.456 15.5519 11.26C15.5519 10.896 15.4726 10.6113 15.3139 10.406C15.1552 10.1913 14.9359 10.084 14.6559 10.084C14.3666 10.084 14.1006 10.196 13.8579 10.42C13.6152 10.644 13.4006 10.938 13.2139 11.302C13.0272 11.666 12.8686 12.0673 12.7379 12.506C12.6166 12.9447 12.5232 13.3833 12.4579 13.822C12.4019 14.2607 12.3739 14.6573 12.3739 15.012C12.3739 15.5253 12.4439 15.9033 12.5839 16.146C12.7332 16.3793 12.9526 16.496 13.2419 16.496Z" fill="#888888"/>
</svg>
