<svg width="24" height="24" viewBox="0 0 24 24" fill="none" xmlns="http://www.w3.org/2000/svg">
<path d="M5.48787 14.192L6.88787 9.404L8.41387 14.192H5.48787ZM11.8299 17.398L8.46987 7.5H7.01387L3.84987 17.356L2.68787 17.524V18H5.89387V17.524L4.57787 17.342L5.34787 14.682H8.56787L9.42187 17.384L8.17587 17.524V18H12.9499V17.524L11.8299 17.398ZM16.8695 14.906C16.0575 14.906 15.6515 14.066 15.6515 12.708C15.6515 11.35 16.0995 10.538 16.8835 10.538C17.6535 10.538 18.1155 11.336 18.1155 12.708C18.1155 14.066 17.6675 14.906 16.8695 14.906ZM18.1855 18.49C19.0815 18.49 19.4035 19.022 19.4035 19.624C19.4035 20.436 18.5075 21.01 16.6595 21.01C15.3855 21.01 14.6155 20.436 14.6155 19.414C14.6155 18.952 14.7275 18.644 14.9655 18.336C15.4135 18.462 15.8055 18.49 16.6315 18.49H18.1855ZM21.3215 10.272L21.0695 10.118L19.2775 10.832C18.7455 10.384 17.9615 10.118 16.8835 10.118C14.6715 10.118 13.6215 11.21 13.6215 12.708C13.6215 13.632 14.0275 14.43 14.8815 14.892C14.0415 15.634 13.6775 16.152 13.6775 16.852C13.6775 17.552 14.0835 17.916 14.6995 18.196C13.7615 18.56 13.2995 19.106 13.2995 19.722C13.2995 20.744 14.1255 21.626 16.6735 21.626C19.6135 21.626 21.1675 20.31 21.1675 18.742C21.1675 17.482 20.3415 16.614 18.0875 16.614H16.0295C15.2455 16.614 14.9235 16.348 14.9235 15.83C14.9235 15.522 15.0075 15.284 15.1615 15.032C15.6235 15.228 16.1975 15.34 16.8695 15.34C19.0535 15.34 20.1035 14.178 20.1035 12.708C20.1035 12.12 19.9495 11.602 19.6275 11.182L21.3215 11.364V10.272Z" fill="#333333"/>
</svg>
