<svg width="24" height="24" viewBox="0 0 24 24" fill="none" xmlns="http://www.w3.org/2000/svg">
<path d="M3.33204 17H4.64804L6.45404 11.26C6.83204 10.112 7.15404 8.992 7.49004 7.802H7.54604C7.88204 8.992 8.20404 10.112 8.56804 11.26L10.374 17H11.732L8.26004 6.738H6.80404L3.33204 17ZM5.15204 13.864H9.88404V12.842H5.15204V13.864ZM15.6576 20.5C17.9956 20.5 19.4936 19.296 19.4936 17.882C19.4936 16.622 18.6116 16.076 16.8476 16.076H15.3636C14.3416 16.076 14.0196 15.726 14.0196 15.236C14.0196 14.83 14.2436 14.564 14.5096 14.34C14.8596 14.508 15.2796 14.592 15.6436 14.592C17.1976 14.592 18.4296 13.584 18.4296 11.96C18.4296 11.302 18.1776 10.742 17.8136 10.392H19.3676V9.398H16.7216C16.4556 9.3 16.0776 9.216 15.6436 9.216C14.1036 9.216 12.7876 10.252 12.7876 11.932C12.7876 12.842 13.2916 13.57 13.7956 13.976V14.032C13.3896 14.312 12.9416 14.802 12.9416 15.432C12.9416 16.034 13.2356 16.44 13.6276 16.692V16.748C12.9276 17.196 12.5076 17.826 12.5076 18.47C12.5076 19.772 13.7956 20.5 15.6576 20.5ZM15.6436 13.738C14.7616 13.738 14.0196 13.024 14.0196 11.932C14.0196 10.798 14.7476 10.14 15.6436 10.14C16.5396 10.14 17.2676 10.812 17.2676 11.932C17.2676 13.024 16.5256 13.738 15.6436 13.738ZM15.8256 19.632C14.4536 19.632 13.6276 19.114 13.6276 18.288C13.6276 17.854 13.8516 17.392 14.3976 17C14.7476 17.098 15.0976 17.126 15.3916 17.126H16.7076C17.7016 17.126 18.2476 17.364 18.2476 18.078C18.2476 18.862 17.2956 19.632 15.8256 19.632Z" fill="#888888"/>
</svg>
