<svg width="24" height="24" viewBox="0 0 24 24" fill="none" xmlns="http://www.w3.org/2000/svg">
<path d="M3.29786 17V16.86H3.77386C3.95119 16.86 4.10053 16.832 4.22186 16.776C4.34319 16.7107 4.45053 16.6033 4.54386 16.454C4.63719 16.2953 4.72586 16.0807 4.80986 15.81L7.66586 7.004H8.82786L11.8519 16.02C11.9265 16.2347 12.0012 16.4027 12.0759 16.524C12.1599 16.6453 12.2532 16.734 12.3559 16.79C12.4585 16.8367 12.5892 16.86 12.7479 16.86H12.8459V17H8.81386V16.86H9.35986C9.61186 16.86 9.79386 16.8227 9.90586 16.748C10.0179 16.6733 10.0739 16.552 10.0739 16.384C10.0739 16.328 10.0645 16.2627 10.0459 16.188C10.0365 16.1133 10.0179 16.034 9.98986 15.95C9.97119 15.8567 9.94786 15.7633 9.91986 15.67L9.19186 13.36H5.76186L5.06186 15.488C5.02453 15.6093 4.99186 15.726 4.96386 15.838C4.93586 15.9407 4.91253 16.034 4.89386 16.118C4.87519 16.202 4.86586 16.2813 4.86586 16.356C4.86586 16.5427 4.93119 16.6733 5.06186 16.748C5.19253 16.8227 5.39786 16.86 5.67786 16.86H6.40586V17H3.29786ZM5.80386 13.22H9.13586L8.19786 10.14C8.11386 9.86 8.02986 9.58467 7.94586 9.314C7.86186 9.034 7.78253 8.768 7.70786 8.516C7.64253 8.25467 7.58186 8.01667 7.52586 7.802C7.47919 7.97933 7.42786 8.15667 7.37186 8.334C7.31586 8.502 7.25986 8.67467 7.20386 8.852C7.14786 9.02933 7.08719 9.20667 7.02186 9.384C6.96586 9.56133 6.90519 9.74333 6.83986 9.93L5.80386 13.22ZM15.6324 20.346C14.6337 20.346 13.8917 20.192 13.4064 19.884C12.9211 19.576 12.6784 19.1467 12.6784 18.596C12.6784 18.2973 12.7531 18.036 12.9024 17.812C13.0611 17.5973 13.2991 17.42 13.6164 17.28C13.9337 17.1493 14.3444 17.0653 14.8484 17.028C14.4004 16.9533 14.0644 16.7853 13.8404 16.524C13.6164 16.2533 13.5044 15.9547 13.5044 15.628C13.5044 15.3107 13.6071 15.026 13.8124 14.774C14.0271 14.5127 14.3491 14.3027 14.7784 14.144C14.3211 13.9853 13.9524 13.7193 13.6724 13.346C13.4017 12.9633 13.2664 12.492 13.2664 11.932C13.2664 11.092 13.4857 10.4527 13.9244 10.014C14.3631 9.566 15.0304 9.342 15.9264 9.342C16.2624 9.342 16.5704 9.38867 16.8504 9.482C17.1304 9.566 17.3731 9.692 17.5784 9.86C17.6997 9.70133 17.8164 9.55667 17.9284 9.426C18.0497 9.29533 18.1851 9.19267 18.3344 9.118C18.4931 9.034 18.6611 8.992 18.8384 8.992C19.1091 8.992 19.3144 9.06667 19.4544 9.216C19.5944 9.36533 19.6644 9.54733 19.6644 9.762C19.6644 9.958 19.6037 10.1307 19.4824 10.28C19.3611 10.4293 19.1464 10.504 18.8384 10.504C18.8384 10.2147 18.7871 10 18.6844 9.86C18.5911 9.71067 18.4511 9.636 18.2644 9.636C18.1617 9.636 18.0637 9.664 17.9704 9.72C17.8771 9.76667 17.7837 9.846 17.6904 9.958C17.9424 10.182 18.1384 10.4573 18.2784 10.784C18.4184 11.1107 18.4884 11.4793 18.4884 11.89C18.4884 12.6087 18.2784 13.1967 17.8584 13.654C17.4477 14.102 16.8037 14.326 15.9264 14.326C15.7491 14.326 15.5764 14.3167 15.4084 14.298C15.2404 14.2793 15.0817 14.2467 14.9324 14.2C14.7644 14.3027 14.6431 14.4147 14.5684 14.536C14.5031 14.648 14.4704 14.774 14.4704 14.914C14.4704 15.138 14.5451 15.306 14.6944 15.418C14.8531 15.53 15.0864 15.586 15.3944 15.586H16.8644C17.4337 15.586 17.8911 15.6747 18.2364 15.852C18.5911 16.02 18.8524 16.2627 19.0204 16.58C19.1884 16.888 19.2724 17.2567 19.2724 17.686C19.2724 18.5073 18.9737 19.156 18.3764 19.632C17.7884 20.108 16.8737 20.346 15.6324 20.346ZM15.7864 20.206C16.2717 20.206 16.6824 20.136 17.0184 19.996C17.3544 19.8653 17.6064 19.6647 17.7744 19.394C17.9517 19.1327 18.0404 18.8013 18.0404 18.4C18.0404 17.9707 17.9331 17.644 17.7184 17.42C17.5037 17.196 17.1491 17.084 16.6544 17.084H15.4084C15.1284 17.084 14.8811 17.1353 14.6664 17.238C14.4611 17.35 14.2977 17.5133 14.1764 17.728C14.0551 17.952 13.9944 18.2413 13.9944 18.596C13.9944 18.9693 14.0644 19.2727 14.2044 19.506C14.3537 19.7487 14.5591 19.926 14.8204 20.038C15.0911 20.15 15.4131 20.206 15.7864 20.206ZM15.8844 14.186C16.1364 14.186 16.3371 14.116 16.4864 13.976C16.6357 13.8267 16.7431 13.584 16.8084 13.248C16.8831 12.912 16.9204 12.464 16.9204 11.904C16.9204 11.2973 16.8831 10.8167 16.8084 10.462C16.7431 10.1073 16.6357 9.85533 16.4864 9.706C16.3371 9.55667 16.1317 9.482 15.8704 9.482C15.6277 9.482 15.4317 9.56133 15.2824 9.72C15.1331 9.86933 15.0211 10.1213 14.9464 10.476C14.8811 10.8307 14.8484 11.3113 14.8484 11.918C14.8484 12.478 14.8811 12.926 14.9464 13.262C15.0117 13.5887 15.1191 13.8267 15.2684 13.976C15.4271 14.116 15.6324 14.186 15.8844 14.186Z" fill="#888888"/>
</svg>
