<svg width="24" height="24" viewBox="0 0 24 24" fill="none" xmlns="http://www.w3.org/2000/svg">
<path d="M5.55722 13.996L7.12522 9.236L8.72122 13.996H5.55722ZM11.2692 17.328L7.96522 7.668H7.06922L3.80722 17.272L2.56122 17.468V18H5.97722V17.468L4.47922 17.272L5.36122 14.598H8.91722L9.81322 17.286L8.30122 17.468V18H12.4732V17.468L11.2692 17.328ZM16.2474 15.046C15.2954 15.046 14.7214 14.248 14.7214 13.044C14.7214 11.868 15.3234 11.056 16.3034 11.056C17.2694 11.056 17.8294 11.854 17.8294 13.002C17.8294 14.192 17.2414 15.046 16.2474 15.046ZM17.4934 18.21C18.5994 18.21 19.0054 18.756 19.0054 19.442C19.0054 20.352 18.0954 21.052 16.3454 21.052C15.1414 21.052 14.3434 20.59 14.3434 19.568C14.3434 19.036 14.5254 18.63 14.9734 18.182C15.1834 18.196 15.4214 18.21 15.7294 18.21H17.4934ZM20.1954 10.692L19.9714 10.538L18.2214 11.126C17.7454 10.72 17.0734 10.524 16.2894 10.524C14.6794 10.524 13.5174 11.434 13.5174 13.03C13.5174 14.066 13.9654 14.794 14.6934 15.2C13.9234 15.914 13.6434 16.404 13.6434 16.894C13.6434 17.496 14.0074 17.888 14.6374 18.084C13.5594 18.602 13.1534 19.12 13.1534 19.778C13.1534 20.884 14.1194 21.668 16.3454 21.668C18.8514 21.668 20.1254 20.366 20.1254 19.036C20.1254 17.818 19.3414 17.09 17.6614 17.09H15.6314C14.8614 17.09 14.6514 16.824 14.6514 16.376C14.6514 16.012 14.7914 15.718 15.0714 15.368C15.4354 15.494 15.8414 15.564 16.2894 15.564C17.8854 15.564 19.0474 14.64 19.0474 13.03C19.0474 12.442 18.8934 11.952 18.6414 11.56L20.1954 11.602V10.692Z" fill="#333333"/>
</svg>
