<svg width="24" height="24" viewBox="0 0 24 24" fill="none" xmlns="http://www.w3.org/2000/svg">
<path d="M4.22836 17L8.69436 6.976H11.0324L11.3124 17H9.40836V14.508H7.23836L6.23036 17H4.22836ZM7.92436 12.898H9.46436L9.49236 9.986C9.49236 9.75267 9.49236 9.51933 9.49236 9.286C9.50169 9.05267 9.51569 8.81933 9.53436 8.586H9.49236C9.43636 8.81 9.37103 9.02933 9.29636 9.244C9.22169 9.45867 9.13769 9.68733 9.04436 9.93L7.92436 12.898ZM13.9844 20.36C13.5644 20.36 13.1817 20.3133 12.8364 20.22C12.5004 20.136 12.2017 20.024 11.9404 19.884V18.288C12.1084 18.3907 12.2997 18.484 12.5144 18.568C12.7384 18.6613 12.9764 18.7313 13.2284 18.778C13.4804 18.834 13.7231 18.862 13.9564 18.862C14.3764 18.862 14.7077 18.7407 14.9504 18.498C15.1931 18.2553 15.3657 17.9053 15.4684 17.448L15.5524 17.112C15.5711 17.0187 15.5944 16.9113 15.6224 16.79C15.6597 16.6687 15.6924 16.552 15.7204 16.44C15.7577 16.3187 15.7904 16.216 15.8184 16.132H15.7904C15.6317 16.3467 15.4684 16.5287 15.3004 16.678C15.1324 16.8273 14.9504 16.9393 14.7544 17.014C14.5677 17.098 14.3531 17.14 14.1104 17.14C13.7931 17.14 13.5131 17.056 13.2704 16.888C13.0371 16.7107 12.8504 16.4493 12.7104 16.104C12.5704 15.7587 12.5004 15.334 12.5004 14.83C12.5004 14.3913 12.5424 13.92 12.6264 13.416C12.7197 12.912 12.8504 12.4173 13.0184 11.932C13.1957 11.4373 13.4104 10.9847 13.6624 10.574C13.9144 10.1633 14.2084 9.83667 14.5444 9.594C14.8804 9.35133 15.2584 9.23 15.6784 9.23C15.9397 9.23 16.1591 9.272 16.3364 9.356C16.5137 9.44 16.6631 9.56133 16.7844 9.72C16.9057 9.87867 17.0084 10.0793 17.0924 10.322H17.1344L17.4704 9.37H18.9544L17.2604 17.378C17.1111 18.0967 16.8871 18.6753 16.5884 19.114C16.2897 19.5527 15.9211 19.87 15.4824 20.066C15.0531 20.262 14.5537 20.36 13.9844 20.36ZM14.9504 15.614C15.1277 15.614 15.2911 15.5487 15.4404 15.418C15.5897 15.278 15.7251 15.096 15.8464 14.872C15.9677 14.648 16.0751 14.396 16.1684 14.116C16.2711 13.836 16.3504 13.5467 16.4064 13.248C16.4717 12.9493 16.5184 12.6647 16.5464 12.394C16.5837 12.1233 16.6024 11.8853 16.6024 11.68C16.6024 11.3907 16.5464 11.1667 16.4344 11.008C16.3317 10.84 16.1731 10.756 15.9584 10.756C15.7624 10.756 15.5804 10.8447 15.4124 11.022C15.2537 11.1993 15.1091 11.4373 14.9784 11.736C14.8477 12.0253 14.7357 12.3473 14.6424 12.702C14.5491 13.0473 14.4791 13.3833 14.4324 13.71C14.3857 14.0367 14.3624 14.326 14.3624 14.578C14.3624 14.9233 14.4137 15.1847 14.5164 15.362C14.6191 15.53 14.7637 15.614 14.9504 15.614Z" fill="#888888"/>
</svg>
