<svg width="24" height="24" viewBox="0 0 24 24" fill="none" xmlns="http://www.w3.org/2000/svg">
<path d="M4.45312 17.2734V11.8389C4.45312 10.5127 4.67188 9.44857 5.10938 8.64648C5.875 7.24284 6.93685 6.54102 8.29492 6.54102C9.65755 6.54102 10.7194 7.24284 11.4805 8.64648C11.918 9.45312 12.1367 10.5173 12.1367 11.8389C12.1367 13.1423 11.918 14.2064 11.4805 15.0312C10.8652 16.1888 10.0632 16.9362 9.07422 17.2734H9.00586L8.49316 16.2549C9.30436 15.8721 9.9082 15.2865 10.3047 14.498C10.5599 13.9922 10.7103 13.2995 10.7559 12.4199H5.82031V16.6582L4.52148 17.2734H4.45312ZM5.83398 11.2578H10.7559C10.7103 10.3828 10.5599 9.6901 10.3047 9.17969C9.8125 8.19531 9.14258 7.70312 8.29492 7.70312C7.45182 7.70312 6.7819 8.19531 6.28516 9.17969C6.02995 9.6901 5.87956 10.3828 5.83398 11.2578ZM15.4863 11.415C15.304 11.7842 15.2129 12.3926 15.2129 13.2402C15.2129 14.0879 15.3063 14.6986 15.4932 15.0723C15.7939 15.6738 16.2041 15.9746 16.7236 15.9746C17.2432 15.9746 17.6533 15.6738 17.9541 15.0723C18.1455 14.694 18.2412 14.0833 18.2412 13.2402C18.2412 12.3971 18.1455 11.7865 17.9541 11.4082C17.6579 10.8066 17.2477 10.5059 16.7236 10.5059C16.1995 10.5059 15.7871 10.8089 15.4863 11.415ZM13.8457 13.2402C13.8457 12.2923 14.0098 11.5199 14.3379 10.9229C14.9076 9.87012 15.7028 9.34375 16.7236 9.34375C17.7445 9.34375 18.5397 9.87012 19.1094 10.9229C19.4421 11.529 19.6084 12.3014 19.6084 13.2402V16.043C19.6084 16.9772 19.4466 17.7497 19.123 18.3604C18.5579 19.4131 17.7604 19.9395 16.7305 19.9395H15.083V19.8711L15.6025 18.7773H16.7305C17.3047 18.7773 17.7148 18.4766 17.9609 17.875C18.1296 17.4603 18.2139 16.9863 18.2139 16.4531C17.7673 16.9089 17.2705 17.1367 16.7236 17.1367C15.721 17.1367 14.9258 16.6104 14.3379 15.5576C14.0098 14.9697 13.8457 14.1973 13.8457 13.2402Z" fill="#333333"/>
</svg>
