<svg width="24" height="24" viewBox="0 0 24 24" fill="none" xmlns="http://www.w3.org/2000/svg">
<path d="M4.58301 17.2734V9.95898C4.58301 8.97461 4.89062 8.16569 5.50586 7.53223C6.15299 6.87142 6.99609 6.54102 8.03516 6.54102C9.05599 6.54102 9.89909 6.87142 10.5645 7.53223C11.1797 8.1429 11.4873 8.95182 11.4873 9.95898V16.6582L10.1885 17.2734H10.1201V12.2148H5.9502V16.6582L4.65137 17.2734H4.58301ZM5.9502 11.4629H10.1201V9.48047C10.1201 8.86979 9.95605 8.37533 9.62793 7.99707C9.21777 7.52767 8.68685 7.29297 8.03516 7.29297C7.37891 7.29297 6.84798 7.52767 6.44238 7.99707C6.11426 8.37988 5.9502 8.87435 5.9502 9.48047V11.4629ZM15.2471 14.8672C15.2471 15.3913 15.3883 15.7764 15.6709 16.0225C15.958 16.264 16.3066 16.3848 16.7168 16.3848C17.127 16.3848 17.4733 16.264 17.7559 16.0225C18.043 15.7764 18.1865 15.3913 18.1865 14.8672V11.6133C18.1865 11.0892 18.043 10.7064 17.7559 10.4648C17.4733 10.2188 17.127 10.0957 16.7168 10.0957C16.3066 10.0957 15.958 10.2188 15.6709 10.4648C15.3883 10.7064 15.2471 11.0892 15.2471 11.6133V14.8672ZM13.8799 14.4023V12.0781C13.8799 11.3262 14.1624 10.6722 14.7275 10.1162C15.2562 9.60124 15.9193 9.34375 16.7168 9.34375C17.5143 9.34375 18.1774 9.60124 18.7061 10.1162C19.2712 10.6676 19.5537 11.3216 19.5537 12.0781V17.2051C19.5537 17.957 19.2712 18.611 18.7061 19.167C18.1774 19.682 17.5143 19.9395 16.7168 19.9395H14.6113V19.8711L14.9395 19.1875H16.7168C17.127 19.1875 17.4756 19.0645 17.7627 18.8184C18.0452 18.5814 18.1865 18.1986 18.1865 17.6699V16.5557C17.8402 16.943 17.3503 17.1367 16.7168 17.1367C15.9284 17.1367 15.2653 16.8792 14.7275 16.3643C14.1624 15.8174 13.8799 15.1634 13.8799 14.4023Z" fill="#333333"/>
</svg>
