<svg width="24" height="24" viewBox="0 0 24 24" fill="none" xmlns="http://www.w3.org/2000/svg">
<path d="M4.98633 17V9.71289C4.98633 8.87435 5.28711 8.15885 5.88867 7.56641C6.49023 6.9694 7.21712 6.6709 8.06934 6.6709C8.92155 6.6709 9.64844 6.9694 10.25 7.56641C10.8516 8.15885 11.1523 8.87435 11.1523 9.71289V16.5215L10.0586 17V12.3857H6.08008V16.5215L4.98633 17ZM6.08008 11.292H10.0586V9.69238C10.054 9.14551 9.85807 8.68066 9.4707 8.29785C9.07878 7.91048 8.61165 7.7168 8.06934 7.7168C7.52246 7.7168 7.05306 7.91048 6.66113 8.29785C6.27376 8.68066 6.08008 9.13867 6.08008 9.67188V9.69238V11.292ZM17.4141 17.1436V16.5352C16.9811 16.8451 16.4844 17 15.9238 17C15.2129 17 14.6068 16.7493 14.1055 16.248C13.6042 15.7467 13.3535 15.1406 13.3535 14.4297V11.9141C13.3535 11.2031 13.6042 10.597 14.1055 10.0957C14.6068 9.5944 15.2129 9.34375 15.9238 9.34375C16.6348 9.34375 17.2432 9.5944 17.749 10.0957C18.2549 10.597 18.5078 11.2031 18.5078 11.9141V17.1641C18.5078 17.875 18.2549 18.4811 17.749 18.9824C17.2432 19.4837 16.6348 19.7344 15.9238 19.7344C15.2129 19.7344 14.6068 19.4837 14.1055 18.9824C13.7865 18.6634 13.57 18.3034 13.4561 17.9023L14.543 17.6699C14.6159 17.8659 14.7367 18.0413 14.9053 18.1963C15.2197 18.4834 15.5729 18.627 15.9648 18.627C16.3477 18.627 16.6849 18.4834 16.9766 18.1963C17.2591 17.9183 17.4049 17.5674 17.4141 17.1436ZM14.4473 14.4092C14.4473 14.8285 14.5999 15.1794 14.9053 15.4619C15.2152 15.749 15.5684 15.8926 15.9648 15.8926C16.3477 15.8926 16.6849 15.749 16.9766 15.4619C17.2591 15.1839 17.4049 14.833 17.4141 14.4092V11.9346C17.4049 11.5107 17.2591 11.1598 16.9766 10.8818C16.6849 10.5947 16.3203 10.4512 15.8828 10.4512C15.5 10.4512 15.165 10.5947 14.8779 10.8818C14.5954 11.1644 14.4518 11.5016 14.4473 11.8936V11.9346V14.4092Z" fill="#333333"/>
</svg>
