<svg width="24" height="24" viewBox="0 0 24 24" fill="none" xmlns="http://www.w3.org/2000/svg">
<path d="M3.37355 17.084C3.25221 17.084 3.15421 17.056 3.07955 17C3.01421 16.9533 2.97688 16.8833 2.96755 16.79C2.96755 16.6967 2.99088 16.594 3.03755 16.482L6.97155 7.438C7.03688 7.298 7.11621 7.2 7.20955 7.144C7.30288 7.07867 7.39621 7.046 7.48955 7.046C7.60155 7.046 7.69955 7.07867 7.78355 7.144C7.87688 7.2 7.95155 7.298 8.00755 7.438L11.9415 16.482C11.9975 16.594 12.0209 16.6967 12.0115 16.79C12.0115 16.8833 11.9789 16.9533 11.9135 17C11.8575 17.056 11.7689 17.084 11.6475 17.084C11.5169 17.084 11.4095 17.0513 11.3255 16.986C11.2509 16.9113 11.1855 16.8133 11.1295 16.692L10.0515 14.158L10.5135 14.368H4.45155L4.92755 14.158L3.84955 16.692C3.79355 16.832 3.72355 16.9347 3.63955 17C3.56488 17.056 3.47621 17.084 3.37355 17.084ZM7.47555 8.194L5.09555 13.794L4.77355 13.626H10.1915L9.89755 13.794L7.50355 8.194H7.47555ZM16.5447 19.632C16.0407 19.632 15.5507 19.5667 15.0747 19.436C14.608 19.3147 14.1834 19.114 13.8007 18.834C13.726 18.7873 13.6747 18.7267 13.6467 18.652C13.628 18.5773 13.628 18.5027 13.6467 18.428C13.6654 18.3627 13.698 18.302 13.7447 18.246C13.8007 18.19 13.8614 18.1573 13.9267 18.148C14.0014 18.1387 14.076 18.1527 14.1507 18.19C14.5614 18.4607 14.9534 18.6473 15.3267 18.75C15.7094 18.862 16.106 18.918 16.5167 18.918C17.198 18.918 17.716 18.7267 18.0707 18.344C18.4254 17.9707 18.6027 17.434 18.6027 16.734V14.998H18.7427C18.6027 15.5767 18.304 16.0293 17.8467 16.356C17.3894 16.6827 16.848 16.846 16.2227 16.846C15.5974 16.846 15.056 16.706 14.5987 16.426C14.1414 16.1367 13.7867 15.74 13.5347 15.236C13.292 14.7227 13.1707 14.13 13.1707 13.458C13.1707 12.954 13.2407 12.4967 13.3807 12.086C13.5207 11.6753 13.7214 11.3207 13.9827 11.022C14.2534 10.7233 14.5754 10.4947 14.9487 10.336C15.322 10.168 15.7467 10.084 16.2227 10.084C16.848 10.084 17.3894 10.252 17.8467 10.588C18.304 10.9147 18.598 11.358 18.7287 11.918L18.5887 12.002V10.56C18.5887 10.4107 18.626 10.2987 18.7007 10.224C18.7754 10.1493 18.878 10.112 19.0087 10.112C19.1487 10.112 19.2514 10.1493 19.3167 10.224C19.3914 10.2987 19.4287 10.4107 19.4287 10.56V16.608C19.4287 17.6067 19.186 18.358 18.7007 18.862C18.2154 19.3753 17.4967 19.632 16.5447 19.632ZM16.3207 16.118C16.7874 16.118 17.1887 16.0107 17.5247 15.796C17.87 15.572 18.136 15.264 18.3227 14.872C18.5094 14.4707 18.6027 13.9993 18.6027 13.458C18.6027 12.646 18.3974 12.002 17.9867 11.526C17.576 11.05 17.0207 10.812 16.3207 10.812C15.854 10.812 15.448 10.9193 15.1027 11.134C14.7574 11.3487 14.4914 11.6567 14.3047 12.058C14.1274 12.45 14.0387 12.9167 14.0387 13.458C14.0387 14.27 14.244 14.9187 14.6547 15.404C15.0654 15.88 15.6207 16.118 16.3207 16.118Z" fill="#888888"/>
</svg>
