<svg width="24" height="24" viewBox="0 0 24 24" fill="none" xmlns="http://www.w3.org/2000/svg">
<path d="M2.11459 17L6.58059 7.13H8.05059L12.5166 17H10.6966L9.71659 14.718H4.90059L3.93459 17H2.11459ZM7.29459 9.076L5.51659 13.29H9.10059L7.32259 9.076H7.29459ZM16.5522 19.66C15.9175 19.66 15.3202 19.5853 14.7602 19.436C14.2095 19.296 13.7242 19.0767 13.3042 18.778L13.8082 17.56C14.2002 17.8213 14.6202 18.0127 15.0682 18.134C15.5162 18.2647 15.9642 18.33 16.4122 18.33C17.6629 18.33 18.2882 17.728 18.2882 16.524V15.586C18.0922 15.9687 17.7889 16.272 17.3782 16.496C16.9769 16.72 16.5289 16.832 16.0342 16.832C15.4182 16.832 14.8815 16.692 14.4242 16.412C13.9669 16.1227 13.6122 15.7213 13.3602 15.208C13.1082 14.6947 12.9822 14.0973 12.9822 13.416C12.9822 12.7347 13.1082 12.142 13.3602 11.638C13.6122 11.1247 13.9669 10.728 14.4242 10.448C14.8815 10.1587 15.4182 10.014 16.0342 10.014C16.5475 10.014 17.0049 10.1307 17.4062 10.364C17.8075 10.588 18.1015 10.8913 18.2882 11.274V10.154H19.9962V16.314C19.9962 17.4247 19.7022 18.26 19.1142 18.82C18.5262 19.38 17.6722 19.66 16.5522 19.66ZM16.5102 15.502C17.0515 15.502 17.4809 15.3153 17.7982 14.942C18.1155 14.5687 18.2742 14.06 18.2742 13.416C18.2742 12.772 18.1155 12.268 17.7982 11.904C17.4809 11.5307 17.0515 11.344 16.5102 11.344C15.9689 11.344 15.5395 11.5307 15.2222 11.904C14.9049 12.268 14.7462 12.772 14.7462 13.416C14.7462 14.06 14.9049 14.5687 15.2222 14.942C15.5395 15.3153 15.9689 15.502 16.5102 15.502Z" fill="#333333"/>
</svg>
