<svg width="24" height="24" viewBox="0 0 24 24" fill="none" xmlns="http://www.w3.org/2000/svg">
<path d="M2.59901 17L6.95301 7.13H7.93301L12.287 17H11.097L10.005 14.48H4.86701L3.78901 17H2.59901ZM7.42901 8.474L5.28701 13.514H9.59901L7.45701 8.474H7.42901ZM16.5379 19.646C15.9499 19.646 15.3945 19.5667 14.8719 19.408C14.3585 19.2587 13.9012 19.03 13.4999 18.722L13.8779 17.896C14.2979 18.1947 14.7132 18.4093 15.1239 18.54C15.5439 18.6707 15.9965 18.736 16.4819 18.736C17.8259 18.736 18.4979 18.0453 18.4979 16.664V15.46C18.3019 15.8893 17.9939 16.23 17.5739 16.482C17.1632 16.7247 16.6919 16.846 16.1599 16.846C15.5345 16.846 14.9932 16.7013 14.5359 16.412C14.0785 16.1227 13.7239 15.726 13.4719 15.222C13.2292 14.7087 13.1079 14.116 13.1079 13.444C13.1079 12.772 13.2292 12.184 13.4719 11.68C13.7239 11.1667 14.0785 10.77 14.5359 10.49C14.9932 10.21 15.5345 10.07 16.1599 10.07C16.6919 10.07 17.1632 10.1913 17.5739 10.434C17.9939 10.6767 18.3019 11.008 18.4979 11.428V10.196H19.6039V16.51C19.6039 17.5553 19.3425 18.3393 18.8199 18.862C18.3065 19.3847 17.5459 19.646 16.5379 19.646ZM16.3699 15.922C17.0232 15.922 17.5412 15.698 17.9239 15.25C18.3065 14.802 18.4979 14.2 18.4979 13.444C18.4979 12.688 18.3065 12.0907 17.9239 11.652C17.5412 11.204 17.0232 10.98 16.3699 10.98C15.7259 10.98 15.2125 11.204 14.8299 11.652C14.4472 12.0907 14.2559 12.688 14.2559 13.444C14.2559 14.2 14.4472 14.802 14.8299 15.25C15.2125 15.698 15.7259 15.922 16.3699 15.922Z" fill="#333333"/>
</svg>
