<svg width="24" height="24" viewBox="0 0 24 24" fill="none" xmlns="http://www.w3.org/2000/svg">
<path d="M4.32148 17.098C4.15348 17.098 4.01815 17.0607 3.91548 16.986C3.82215 16.9113 3.76615 16.8087 3.74748 16.678C3.72882 16.5473 3.75682 16.4027 3.83148 16.244L7.65348 7.592C7.73748 7.396 7.84482 7.256 7.97548 7.172C8.10615 7.07867 8.25082 7.032 8.40948 7.032C8.56815 7.032 8.70815 7.07867 8.82948 7.172C8.96015 7.256 9.07215 7.396 9.16548 7.592L12.9875 16.244C13.0622 16.4027 13.0902 16.552 13.0715 16.692C13.0622 16.8227 13.0108 16.9253 12.9175 17C12.8242 17.0653 12.6935 17.098 12.5255 17.098C12.3388 17.098 12.1895 17.0513 12.0775 16.958C11.9655 16.8553 11.8675 16.7107 11.7835 16.524L10.7895 14.2L11.3915 14.536H5.39948L6.00148 14.2L5.00748 16.524C4.92348 16.7293 4.83015 16.8787 4.72748 16.972C4.62482 17.056 4.48948 17.098 4.32148 17.098ZM8.38148 8.6L6.19748 13.766L5.86148 13.472H10.9295L10.6075 13.766L8.40948 8.6H8.38148ZM17.5587 19.646C17.0547 19.646 16.5647 19.59 16.0887 19.478C15.622 19.366 15.1974 19.1933 14.8147 18.96C14.6934 18.8853 14.6094 18.7967 14.5627 18.694C14.5254 18.6007 14.516 18.5027 14.5347 18.4C14.5627 18.2973 14.6094 18.204 14.6747 18.12C14.7494 18.0453 14.8334 17.994 14.9267 17.966C15.0294 17.9473 15.132 17.9707 15.2347 18.036C15.6454 18.2693 16.0374 18.428 16.4107 18.512C16.784 18.596 17.1387 18.638 17.4747 18.638C18.1374 18.638 18.632 18.4653 18.9587 18.12C19.2947 17.784 19.4627 17.2893 19.4627 16.636V15.124H19.5887C19.458 15.6467 19.164 16.062 18.7067 16.37C18.2587 16.678 17.736 16.832 17.1387 16.832C16.5227 16.832 15.986 16.692 15.5287 16.412C15.0714 16.1227 14.7167 15.726 14.4647 15.222C14.2127 14.7087 14.0867 14.116 14.0867 13.444C14.0867 12.9307 14.1567 12.4687 14.2967 12.058C14.446 11.638 14.6514 11.2833 14.9127 10.994C15.1834 10.6953 15.5054 10.4667 15.8787 10.308C16.252 10.14 16.672 10.056 17.1387 10.056C17.7454 10.056 18.2727 10.21 18.7207 10.518C19.1687 10.826 19.458 11.2413 19.5887 11.764L19.4347 11.96V10.728C19.4347 10.5133 19.4907 10.3547 19.6027 10.252C19.7147 10.14 19.8734 10.084 20.0787 10.084C20.2747 10.084 20.4287 10.14 20.5407 10.252C20.6527 10.3547 20.7087 10.5133 20.7087 10.728V16.468C20.7087 17.5227 20.438 18.316 19.8967 18.848C19.3647 19.38 18.5854 19.646 17.5587 19.646ZM17.4187 15.824C17.8387 15.824 18.198 15.7307 18.4967 15.544C18.8047 15.348 19.038 15.0727 19.1967 14.718C19.3647 14.354 19.4487 13.9293 19.4487 13.444C19.4487 12.7067 19.2667 12.128 18.9027 11.708C18.5387 11.2787 18.044 11.064 17.4187 11.064C16.9987 11.064 16.6347 11.162 16.3267 11.358C16.028 11.5447 15.7947 11.8153 15.6267 12.17C15.4587 12.5247 15.3747 12.9493 15.3747 13.444C15.3747 14.172 15.5567 14.7507 15.9207 15.18C16.294 15.6093 16.7934 15.824 17.4187 15.824Z" fill="#888888"/>
</svg>
