<svg width="24" height="24" viewBox="0 0 24 24" fill="none" xmlns="http://www.w3.org/2000/svg">
<path d="M2.01948 17L6.63948 7.13H8.66948L13.2895 17H10.7135L9.85948 14.998H5.44948L4.59548 17H2.01948ZM7.63348 9.818L6.28948 13.024H9.00548L7.66148 9.818H7.63348ZM17.0669 19.674C16.3762 19.674 15.7275 19.6087 15.1209 19.478C14.5235 19.3473 14.0102 19.1327 13.5809 18.834L14.2249 17.154C14.5795 17.3687 14.9995 17.5367 15.4849 17.658C15.9795 17.7793 16.4275 17.84 16.8289 17.84C17.3982 17.84 17.8229 17.7187 18.1029 17.476C18.3922 17.2427 18.5369 16.874 18.5369 16.37V15.726C18.3409 16.062 18.0469 16.328 17.6549 16.524C17.2629 16.72 16.8429 16.818 16.3949 16.818C15.7789 16.818 15.2422 16.678 14.7849 16.398C14.3275 16.1087 13.9682 15.7073 13.7069 15.194C13.4549 14.6807 13.3289 14.0787 13.3289 13.388C13.3289 12.6973 13.4549 12.0953 13.7069 11.582C13.9682 11.0687 14.3275 10.672 14.7849 10.392C15.2422 10.1027 15.7789 9.958 16.3949 9.958C16.8615 9.958 17.2862 10.0607 17.6689 10.266C18.0609 10.462 18.3455 10.7233 18.5229 11.05V10.112H20.9589V16.076C20.9589 17.28 20.6229 18.1807 19.9509 18.778C19.2789 19.3753 18.3175 19.674 17.0669 19.674ZM17.1649 14.984C17.5755 14.984 17.9022 14.844 18.1449 14.564C18.3875 14.284 18.5089 13.892 18.5089 13.388C18.5089 12.884 18.3875 12.492 18.1449 12.212C17.9022 11.932 17.5755 11.792 17.1649 11.792C16.7635 11.792 16.4415 11.932 16.1989 12.212C15.9562 12.492 15.8349 12.884 15.8349 13.388C15.8349 13.892 15.9562 14.284 16.1989 14.564C16.4415 14.844 16.7635 14.984 17.1649 14.984Z" fill="#333333"/>
</svg>
