<svg width="24" height="24" viewBox="0 0 24 24" fill="none" xmlns="http://www.w3.org/2000/svg">
<path d="M11.7765 16.328C11.8045 16.3933 11.8185 16.4633 11.8185 16.538C11.8185 16.6967 11.7625 16.8273 11.6505 16.93C11.5385 17.0327 11.4078 17.084 11.2585 17.084C11.0158 17.084 10.8478 16.958 10.7545 16.706L9.9565 14.466H4.7625L3.6005 16.748C3.5445 16.8507 3.46983 16.93 3.3765 16.986C3.2925 17.042 3.20383 17.07 3.1105 17.07C2.9705 17.07 2.8445 17.0233 2.7325 16.93C2.62983 16.8273 2.5785 16.7013 2.5785 16.552C2.5785 16.4493 2.60183 16.356 2.6485 16.272L7.2265 7.466C7.29183 7.33533 7.38517 7.23733 7.5065 7.172C7.62783 7.09733 7.7585 7.06 7.8985 7.06C8.0385 7.06 8.1645 7.09733 8.2765 7.172C8.39783 7.24667 8.4865 7.35867 8.5425 7.508L11.7765 16.328ZM5.2525 13.514H9.6205L7.8145 8.46L5.2525 13.514ZM19.3584 10.042C19.517 10.042 19.643 10.0933 19.7364 10.196C19.839 10.2893 19.8857 10.4247 19.8764 10.602L19.4004 16.538C19.3257 17.5553 19.0084 18.3207 18.4484 18.834C17.8977 19.3567 17.1137 19.618 16.0964 19.618C15.5737 19.618 15.0837 19.5527 14.6264 19.422C14.169 19.2913 13.7724 19.1093 13.4364 18.876C13.2497 18.7453 13.1564 18.5913 13.1564 18.414C13.1564 18.2833 13.1984 18.1713 13.2824 18.078C13.3757 17.9847 13.483 17.938 13.6044 17.938C13.6697 17.938 13.735 17.9567 13.8004 17.994C14.1737 18.2273 14.5424 18.4 14.9064 18.512C15.2704 18.6333 15.6764 18.694 16.1244 18.694C17.459 18.694 18.1777 17.994 18.2804 16.594L18.3644 15.586C18.1497 15.9593 17.8417 16.2533 17.4404 16.468C17.039 16.6827 16.591 16.79 16.0964 16.79C15.2004 16.79 14.4817 16.5053 13.9404 15.936C13.4084 15.3667 13.1424 14.606 13.1424 13.654C13.1424 12.9447 13.273 12.3147 13.5344 11.764C13.805 11.2133 14.183 10.784 14.6684 10.476C15.1537 10.168 15.7184 10.014 16.3624 10.014C16.9037 10.014 17.375 10.1307 17.7764 10.364C18.1777 10.5973 18.481 10.924 18.6864 11.344L18.7424 10.602C18.761 10.4247 18.8264 10.2893 18.9384 10.196C19.0597 10.0933 19.1997 10.042 19.3584 10.042ZM16.3484 15.852C17.0297 15.852 17.5617 15.614 17.9444 15.138C18.3364 14.662 18.5324 14.0087 18.5324 13.178C18.5324 12.4687 18.3504 11.9227 17.9864 11.54C17.6317 11.148 17.1277 10.952 16.4744 10.952C15.793 10.952 15.2564 11.1947 14.8644 11.68C14.4817 12.156 14.2904 12.814 14.2904 13.654C14.2904 14.3633 14.4677 14.9093 14.8224 15.292C15.177 15.6653 15.6857 15.852 16.3484 15.852Z" fill="#333333"/>
</svg>
