<svg width="24" height="24" viewBox="0 0 24 24" fill="none" xmlns="http://www.w3.org/2000/svg">
<path d="M2.06701 17L7.98901 7.13H8.96901L11.741 17H10.621L9.94901 14.48H4.79701L3.31301 17H2.06701ZM8.31101 8.474L5.35701 13.514H9.68301L8.33901 8.474H8.31101ZM15.9359 19.646C15.3012 19.646 14.7319 19.5527 14.2279 19.366C13.7239 19.1887 13.2759 18.9507 12.8839 18.652L13.2759 17.812C13.6865 18.1013 14.0832 18.3253 14.4659 18.484C14.8485 18.652 15.2965 18.736 15.8099 18.736C16.4072 18.736 16.8925 18.582 17.2659 18.274C17.6392 17.9753 17.8772 17.5087 17.9799 16.874L18.1899 15.586C17.9379 15.978 17.6065 16.286 17.1959 16.51C16.7852 16.734 16.3185 16.846 15.7959 16.846C14.9745 16.846 14.3165 16.594 13.8219 16.09C13.3272 15.586 13.0799 14.9093 13.0799 14.06C13.0799 13.36 13.2152 12.7067 13.4859 12.1C13.7565 11.4933 14.1485 11.0033 14.6619 10.63C15.1752 10.2567 15.7959 10.07 16.5239 10.07C17.0465 10.07 17.5132 10.1913 17.9239 10.434C18.3345 10.6673 18.6332 11.0267 18.8199 11.512L19.0299 10.196H20.1359L19.0859 16.818C18.7872 18.7033 17.7372 19.646 15.9359 19.646ZM16.0899 15.922C16.6125 15.922 17.0559 15.782 17.4199 15.502C17.7839 15.222 18.0592 14.8533 18.2459 14.396C18.4325 13.9293 18.5259 13.4253 18.5259 12.884C18.5259 12.2867 18.3625 11.82 18.0359 11.484C17.7092 11.148 17.2519 10.98 16.6639 10.98C16.1319 10.98 15.6839 11.1247 15.3199 11.414C14.9652 11.694 14.6945 12.0627 14.5079 12.52C14.3305 12.9773 14.2372 13.472 14.2279 14.004C14.2279 14.62 14.3912 15.096 14.7179 15.432C15.0445 15.7587 15.5019 15.922 16.0899 15.922Z" fill="#333333"/>
</svg>
