<svg width="24" height="24" viewBox="0 0 24 24" fill="none" xmlns="http://www.w3.org/2000/svg">
<path d="M12.6185 15.418C12.7025 15.5953 12.7445 15.768 12.7445 15.936C12.7445 16.244 12.6185 16.5053 12.3665 16.72C12.1238 16.9347 11.8438 17.042 11.5265 17.042C11.3118 17.042 11.1158 16.986 10.9385 16.874C10.7611 16.762 10.6211 16.594 10.5185 16.37L9.88846 14.956H5.35246L4.70846 16.37C4.60579 16.594 4.46113 16.762 4.27446 16.874C4.09713 16.986 3.90113 17.042 3.68646 17.042C3.36913 17.042 3.07979 16.9347 2.81846 16.72C2.56646 16.5053 2.44046 16.244 2.44046 15.936C2.44046 15.768 2.48246 15.5953 2.56646 15.418L6.26246 7.83C6.38379 7.578 6.56113 7.38667 6.79446 7.256C7.03713 7.116 7.30313 7.046 7.59246 7.046C7.87246 7.046 8.13379 7.116 8.37646 7.256C8.61913 7.38667 8.80113 7.578 8.92246 7.83L12.6185 15.418ZM6.22046 13.024H9.02046L7.62046 9.902L6.22046 13.024ZM19.7689 9.972C20.1422 9.972 20.4409 10.0793 20.6649 10.294C20.8889 10.4993 21.0009 10.7747 21.0009 11.12V16.16C21.0009 17.2987 20.6555 18.162 19.9649 18.75C19.2835 19.338 18.2802 19.632 16.9549 19.632C16.4415 19.632 15.9562 19.5853 15.4989 19.492C15.0415 19.3987 14.6542 19.2633 14.3369 19.086C14.1689 18.9927 14.0335 18.8713 13.9309 18.722C13.8375 18.5727 13.7909 18.4047 13.7909 18.218C13.7909 17.9473 13.8562 17.728 13.9869 17.56C14.1269 17.392 14.3042 17.308 14.5189 17.308C14.6869 17.308 14.9902 17.378 15.4289 17.518C15.7182 17.6113 15.9749 17.6813 16.1989 17.728C16.4229 17.784 16.6515 17.812 16.8849 17.812C17.4542 17.812 17.8695 17.6907 18.1309 17.448C18.4015 17.2147 18.5369 16.8413 18.5369 16.328V15.796C18.3315 16.104 18.0375 16.3513 17.6549 16.538C17.2722 16.7153 16.8569 16.804 16.4089 16.804C15.8115 16.804 15.2795 16.664 14.8129 16.384C14.3462 16.104 13.9822 15.7073 13.7209 15.194C13.4595 14.6713 13.3289 14.0693 13.3289 13.388C13.3289 12.7067 13.4595 12.1047 13.7209 11.582C13.9822 11.0593 14.3462 10.658 14.8129 10.378C15.2795 10.0887 15.8115 9.944 16.4089 9.944C16.8662 9.944 17.2862 10.0373 17.6689 10.224C18.0515 10.4107 18.3455 10.6673 18.5509 10.994C18.5695 10.6767 18.6862 10.4293 18.9009 10.252C19.1249 10.0653 19.4142 9.972 19.7689 9.972ZM17.1649 14.942C17.6035 14.942 17.9442 14.8067 18.1869 14.536C18.4295 14.2653 18.5509 13.8827 18.5509 13.388C18.5509 12.8933 18.4295 12.506 18.1869 12.226C17.9442 11.946 17.6035 11.806 17.1649 11.806C16.7355 11.806 16.3995 11.946 16.1569 12.226C15.9142 12.4967 15.7929 12.884 15.7929 13.388C15.7929 13.8733 15.9142 14.256 16.1569 14.536C16.4089 14.8067 16.7449 14.942 17.1649 14.942Z" fill="#333333"/>
</svg>
