<svg width="24" height="24" viewBox="0 0 24 24" fill="none" xmlns="http://www.w3.org/2000/svg">
<path d="M1.56859 17L7.61659 7.13H9.08659L11.9706 17H10.2486L9.64659 14.718H4.81659L3.47259 17H1.56859ZM8.12059 9.076L5.64259 13.29H9.25459L8.14859 9.076H8.12059ZM16.0342 19.66C15.3622 19.66 14.7509 19.576 14.2002 19.408C13.6495 19.24 13.1549 19.0067 12.7162 18.708L13.2482 17.49C13.6589 17.7513 14.0649 17.9567 14.4662 18.106C14.8675 18.2553 15.3062 18.33 15.7822 18.33C16.3422 18.33 16.7949 18.204 17.1402 17.952C17.4855 17.7 17.7049 17.294 17.7982 16.734L17.9522 15.726C17.7095 16.0807 17.3922 16.356 17.0002 16.552C16.6082 16.7387 16.1789 16.832 15.7122 16.832C14.8909 16.832 14.2282 16.5847 13.7242 16.09C13.2202 15.586 12.9682 14.8953 12.9682 14.018C12.9682 13.2993 13.1082 12.6367 13.3882 12.03C13.6775 11.4233 14.0835 10.938 14.6062 10.574C15.1289 10.2007 15.7449 10.014 16.4542 10.014C16.9489 10.014 17.3875 10.1213 17.7702 10.336C18.1622 10.5507 18.4515 10.8727 18.6382 11.302L18.8202 10.154H20.5282L19.5062 16.636C19.3569 17.616 18.9929 18.3627 18.4142 18.876C17.8355 19.3987 17.0422 19.66 16.0342 19.66ZM16.2442 15.502C16.6829 15.502 17.0515 15.3853 17.3502 15.152C17.6582 14.9093 17.8915 14.592 18.0502 14.2C18.2182 13.7987 18.3022 13.3693 18.3022 12.912C18.3115 12.4267 18.1809 12.044 17.9102 11.764C17.6395 11.484 17.2569 11.344 16.7622 11.344C16.3329 11.344 15.9642 11.4653 15.6562 11.708C15.3575 11.9413 15.1289 12.254 14.9702 12.646C14.8209 13.038 14.7415 13.4627 14.7322 13.92C14.7229 14.4147 14.8489 14.802 15.1102 15.082C15.3809 15.362 15.7589 15.502 16.2442 15.502Z" fill="#333333"/>
</svg>
