<svg width="24" height="24" viewBox="0 0 24 24" fill="none" xmlns="http://www.w3.org/2000/svg">
<path d="M12.0523 16.16C12.099 16.272 12.1223 16.3653 12.1223 16.44C12.1223 16.6173 12.0476 16.7667 11.8983 16.888C11.7583 17.0093 11.5996 17.07 11.4223 17.07C11.301 17.07 11.1843 17.0373 11.0723 16.972C10.9696 16.8973 10.8903 16.7947 10.8343 16.664L9.91029 14.564H4.78629L3.86229 16.664C3.80629 16.7947 3.72229 16.8973 3.61029 16.972C3.49829 17.0373 3.38162 17.07 3.26029 17.07C3.07362 17.07 2.90562 17.0093 2.75629 16.888C2.61629 16.7667 2.54629 16.6173 2.54629 16.44C2.54629 16.3653 2.56962 16.272 2.61629 16.16L6.56429 7.522C6.62962 7.37267 6.73229 7.256 6.87229 7.172C7.02162 7.088 7.17562 7.046 7.33429 7.046C7.49296 7.046 7.64229 7.088 7.78229 7.172C7.93162 7.256 8.03896 7.37267 8.10429 7.522L12.0523 16.16ZM5.30429 13.416H9.40629L7.34829 8.782L5.30429 13.416ZM19.1135 10.028C19.3282 10.028 19.4962 10.0933 19.6175 10.224C19.7482 10.3453 19.8135 10.5087 19.8135 10.714V16.454C19.8135 17.4993 19.5335 18.288 18.9735 18.82C18.4229 19.352 17.6062 19.618 16.5235 19.618C15.5155 19.618 14.6755 19.4267 14.0035 19.044C13.6582 18.848 13.4855 18.6147 13.4855 18.344C13.4855 18.1853 13.5275 18.0547 13.6115 17.952C13.7049 17.8493 13.8169 17.798 13.9475 17.798C14.0689 17.798 14.2602 17.868 14.5215 18.008C14.8575 18.1667 15.1702 18.288 15.4595 18.372C15.7489 18.4653 16.0942 18.512 16.4955 18.512C17.7835 18.512 18.4275 17.8633 18.4275 16.566V15.488C18.2315 15.8987 17.9329 16.2207 17.5315 16.454C17.1302 16.678 16.6635 16.79 16.1315 16.79C15.5342 16.79 15.0022 16.65 14.5355 16.37C14.0689 16.09 13.7049 15.6933 13.4435 15.18C13.1915 14.6667 13.0655 14.074 13.0655 13.402C13.0655 12.73 13.1962 12.1373 13.4575 11.624C13.7189 11.1107 14.0782 10.714 14.5355 10.434C15.0022 10.1447 15.5342 10 16.1315 10C16.6542 10 17.1115 10.112 17.5035 10.336C17.9049 10.56 18.2082 10.8773 18.4135 11.288V10.7C18.4135 10.4947 18.4742 10.3313 18.5955 10.21C18.7262 10.0887 18.8989 10.028 19.1135 10.028ZM16.4675 15.67C17.0742 15.67 17.5502 15.4693 17.8955 15.068C18.2409 14.6667 18.4135 14.1113 18.4135 13.402C18.4135 12.702 18.2409 12.1513 17.8955 11.75C17.5595 11.3393 17.0835 11.134 16.4675 11.134C15.8515 11.134 15.3662 11.3347 15.0115 11.736C14.6662 12.1373 14.4935 12.6927 14.4935 13.402C14.4935 14.1113 14.6709 14.6667 15.0255 15.068C15.3802 15.4693 15.8609 15.67 16.4675 15.67Z" fill="#333333"/>
</svg>
