<svg width="24" height="24" viewBox="0 0 24 24" fill="none" xmlns="http://www.w3.org/2000/svg">
<g clip-path="url(#clip0_259_1741)">
<path d="M0.653963 16.5904C0.594229 16.4336 0.545696 16.2357 0.508363 15.9968C0.471029 15.7579 0.448629 15.5115 0.441163 15.2576C0.441163 14.9963 0.448629 14.7461 0.463563 14.5072C0.485963 14.2683 0.523296 14.0704 0.575563 13.9136C0.814496 13.8613 0.997429 13.7531 1.12436 13.5888C1.25876 13.4171 1.35583 13.2117 1.41556 12.9728C1.4753 12.7264 1.52383 12.4725 1.56116 12.2112C1.60596 11.9349 1.63583 11.6699 1.65076 11.416C1.6657 11.1547 1.63583 10.9344 1.56116 10.7552C1.49396 10.576 1.34463 10.4677 1.11316 10.4304C1.04596 10.296 0.997429 10.1131 0.967563 9.8816C0.937696 9.65013 0.922763 9.40373 0.922763 9.1424C0.930229 8.8736 0.952629 8.616 0.989963 8.3696C1.0273 8.11573 1.0833 7.8992 1.15796 7.72C1.4641 7.74987 1.84116 7.77973 2.28916 7.8096C2.73716 7.832 3.3345 7.8432 4.08116 7.8432C4.5889 7.8432 5.1377 7.82453 5.72756 7.7872C6.3249 7.7424 6.93716 7.70133 7.56436 7.664C8.19156 7.62667 8.80383 7.608 9.40116 7.608C9.9089 7.608 10.3084 7.71627 10.5996 7.9328C10.8982 8.14187 11.1222 8.41813 11.2716 8.7616C11.4209 9.10507 11.518 9.47467 11.5628 9.8704C11.6076 10.2661 11.6262 10.6544 11.6188 11.0352C11.6188 11.4085 11.6188 11.7333 11.6188 12.0096C11.6188 12.4501 11.6598 12.8011 11.742 13.0624C11.8241 13.3163 11.9324 13.5067 12.0668 13.6336C12.2086 13.7605 12.358 13.8539 12.5148 13.9136C12.567 14.0704 12.6006 14.2683 12.6156 14.5072C12.638 14.7461 12.6454 14.9963 12.638 15.2576C12.638 15.5115 12.6193 15.7579 12.582 15.9968C12.5446 16.2357 12.4961 16.4336 12.4364 16.5904C12.1302 16.5605 11.7606 16.5232 11.3276 16.4784C10.902 16.4336 10.3868 16.4112 9.78196 16.4112C9.16223 16.4112 8.5761 16.4336 8.02356 16.4784C7.4785 16.5232 7.0529 16.5605 6.74676 16.5904C6.7169 16.4336 6.69076 16.2357 6.66836 15.9968C6.64596 15.7579 6.63103 15.5115 6.62356 15.2576C6.6161 14.9963 6.6161 14.7461 6.62356 14.5072C6.63103 14.2683 6.64596 14.0704 6.66836 13.9136H6.98196V13.3536H6.00756V13.9136H6.32116C6.35103 14.0704 6.3697 14.2683 6.37716 14.5072C6.3921 14.7461 6.39583 14.9963 6.38836 15.2576C6.3809 15.5115 6.36596 15.7579 6.34356 15.9968C6.32116 16.2357 6.28756 16.4336 6.24276 16.5904C6.04116 16.568 5.82463 16.5419 5.59316 16.512C5.36916 16.4896 5.1041 16.4672 4.79796 16.4448C4.4993 16.4224 4.1297 16.4112 3.68916 16.4112C2.99476 16.4112 2.39743 16.4299 1.89716 16.4672C1.3969 16.512 0.982496 16.5531 0.653963 16.5904ZM6.08596 11.7072H6.89236V11.1808H6.08596V11.7072ZM16.0253 18.3376C15.0173 18.3376 14.2371 18.1435 13.6845 17.7552C13.132 17.3669 12.8557 16.7248 12.8557 15.8288C12.8557 15.4555 12.9267 15.0821 13.0685 14.7088C13.2179 14.3355 13.4381 14.0107 13.7293 13.7344C14.1101 14.0032 14.5955 14.2123 15.1853 14.3616L15.2749 14.048C14.6328 13.8837 14.1363 13.6597 13.7853 13.376C13.4344 13.0923 13.1917 12.7675 13.0573 12.4016C12.9229 12.0357 12.8557 11.6549 12.8557 11.2592C12.8557 10.7216 12.9864 10.2288 13.2477 9.7808C13.5091 9.32533 13.9085 8.95947 14.4461 8.6832C14.9837 8.40693 15.6669 8.2688 16.4957 8.2688C16.9363 8.2688 17.2984 8.31733 17.5821 8.4144C17.8659 8.51147 18.0936 8.63467 18.2653 8.784C18.4371 8.92587 18.5603 9.07893 18.6349 9.2432C18.7096 8.6384 18.8776 8.14187 19.1389 7.7536C19.4078 7.36533 19.74 7.07787 20.1357 6.8912C20.5315 6.69707 20.9608 6.6 21.4237 6.6C21.812 6.6 22.1629 6.68587 22.4765 6.8576C22.7902 7.02187 23.0366 7.2608 23.2158 7.5744C23.4024 7.888 23.4957 8.2688 23.4957 8.7168C23.4957 9.15733 23.4136 9.5232 23.2493 9.8144C23.0925 10.1056 22.8798 10.3259 22.6109 10.4752C22.3421 10.6171 22.0435 10.688 21.715 10.688C21.4163 10.688 21.1475 10.6656 20.9085 10.6208C20.6696 10.5685 20.4605 10.5013 20.2813 10.4192L20.1245 10.6992C20.2589 10.7739 20.4157 10.8336 20.5949 10.8784C20.8787 10.9605 21.1624 11.0128 21.4461 11.0352C21.7299 11.0576 21.995 11.0763 22.2414 11.0912C22.4877 11.0987 22.7043 11.1323 22.8909 11.192C23.0851 11.2517 23.2344 11.36 23.3389 11.5168C23.4509 11.6736 23.5069 11.9088 23.5069 12.2224C23.5069 12.7003 23.3165 13.0997 22.9357 13.4208C22.5624 13.7344 22.0509 13.9733 21.4014 14.1376C20.7518 14.2944 20.0126 14.3915 19.1838 14.4288L19.1949 14.7536C19.74 14.7461 20.2366 14.7499 20.6846 14.7648C21.14 14.7797 21.5432 14.8395 21.8941 14.944C22.2451 15.0485 22.54 15.224 22.7789 15.4704C23.0179 15.7168 23.1971 16.0603 23.3166 16.5008C23.4435 16.9488 23.5069 17.52 23.5069 18.2144C23.0963 18.3115 22.6557 18.36 22.1854 18.36C21.7224 18.3675 21.2744 18.3264 20.8414 18.2368C20.6845 18.1248 20.4643 18.0651 20.1805 18.0576C19.9043 18.0501 19.5645 18.0688 19.1613 18.1136C18.7581 18.1659 18.2952 18.2144 17.7725 18.2592C17.2499 18.3115 16.6675 18.3376 16.0253 18.3376ZM17.8845 11.5168H18.4781V10.6544H17.8845V11.5168Z" fill="#888888"/>
</g>
<defs>
<clipPath id="clip0_259_1741">
<rect width="24" height="24" fill="white"/>
</clipPath>
</defs>
</svg>
