<svg width="24" height="24" viewBox="0 0 24 24" fill="none" xmlns="http://www.w3.org/2000/svg">
<path d="M5.06656 15.818C5.00123 16.0233 4.8519 16.126 4.61856 16.126C4.39456 16.126 4.1379 16 3.84856 15.748C4.12856 14.9267 4.72123 13.606 5.62656 11.786C6.5319 9.95667 7.1199 8.58933 7.39056 7.684C7.4279 7.53467 7.44656 7.432 7.44656 7.376C7.44656 7.236 7.3439 7.02133 7.13856 6.732L7.02656 6.578L7.05456 6.396C7.8479 6.172 8.72523 6.06 9.68656 6.06L10.5406 6.116C10.6432 6.256 10.7226 6.47067 10.7786 6.76C10.9279 7.46933 11.0026 9.294 11.0026 12.234C11.0026 13.3727 11.1006 14.1753 11.2966 14.642C11.3712 14.8193 11.4459 14.908 11.5206 14.908C11.5952 14.908 11.8239 14.8147 12.2066 14.628L12.3886 14.544L12.6686 15.048C12.3139 15.3933 11.9172 15.6687 11.4786 15.874C11.0492 16.07 10.6526 16.168 10.2886 16.168C9.3459 16.168 8.87456 15.4353 8.87456 13.97V12.864C8.6319 12.808 8.26323 12.78 7.76856 12.78C7.2739 12.78 6.73256 12.8267 6.14456 12.92C5.6779 14.0027 5.31856 14.9687 5.06656 15.818ZM8.90256 11.912L8.91656 10.288C8.91656 8.86933 8.8559 7.908 8.73456 7.404C8.6599 7.404 8.6039 7.41333 8.56656 7.432C8.30523 8.15067 8.0579 8.762 7.82456 9.266C7.60056 9.76067 7.35323 10.2927 7.08256 10.862C6.82123 11.422 6.6579 11.772 6.59256 11.912H8.90256ZM14.477 17.512C14.169 17.6987 14.015 17.8807 14.015 18.058C14.015 18.2353 14.113 18.324 14.309 18.324C14.5143 18.324 14.743 18.226 14.995 18.03C15.247 17.8433 15.457 17.5353 15.625 17.106C15.177 17.19 14.7943 17.3253 14.477 17.512ZM18.635 9.896C18.6723 9.93333 18.691 10.0173 18.691 10.148C18.691 10.2693 18.6816 10.4047 18.663 10.554C18.6443 10.694 18.6116 11.016 18.565 11.52C18.5183 12.024 18.4716 12.4627 18.425 12.836C17.949 17.036 16.6703 19.136 14.589 19.136C14.253 19.136 13.945 19.0473 13.665 18.87C13.3943 18.6927 13.259 18.464 13.259 18.184C13.259 17.8107 13.4876 17.47 13.945 17.162C14.4023 16.854 15.0183 16.616 15.793 16.448C15.793 16.4387 15.821 16.308 15.877 16.056C15.933 15.804 15.9703 15.5987 15.989 15.44C15.429 15.8507 14.9016 16.056 14.407 16.056C13.9216 16.056 13.5203 15.8647 13.203 15.482C12.895 15.0993 12.741 14.488 12.741 13.648C12.741 12.5467 12.9883 11.632 13.483 10.904C13.9776 10.1667 14.631 9.798 15.443 9.798C15.9003 9.798 16.353 9.91 16.801 10.134C17.277 9.966 17.7903 9.882 18.341 9.882L18.635 9.896ZM16.073 10.624C15.6716 10.624 15.3543 10.9507 15.121 11.604C14.8876 12.248 14.771 12.9667 14.771 13.76C14.771 14.544 14.9483 14.936 15.303 14.936C15.5363 14.936 15.8116 14.8473 16.129 14.67C16.3903 13.102 16.577 11.8093 16.689 10.792C16.4276 10.68 16.2223 10.624 16.073 10.624Z" fill="#333333"/>
</svg>
