<svg width="24" height="24" viewBox="0 0 24 24" fill="none" xmlns="http://www.w3.org/2000/svg">
<path d="M5.49602 15.818C5.43068 16.0233 5.21135 16.126 4.83802 16.126C4.47402 16.126 4.11002 16 3.74602 15.748C4.03535 14.964 4.60935 13.662 5.46802 11.842C6.33602 10.0127 6.91468 8.65 7.20402 7.754C7.23202 7.642 7.24602 7.54867 7.24602 7.474C7.24602 7.39 7.21335 7.278 7.14802 7.138C7.08268 6.998 7.01268 6.886 6.93802 6.802L6.84002 6.676L6.89602 6.396C7.72668 6.172 8.71135 6.06 9.85002 6.06L10.928 6.116C11.0213 6.2 11.1147 6.41933 11.208 6.774C11.3013 7.12867 11.362 7.66067 11.39 8.37C11.418 9.07933 11.4367 10.4093 11.446 12.36C11.4553 13.8627 11.642 14.614 12.006 14.614C12.0993 14.614 12.3 14.5673 12.608 14.474L12.748 14.432L13.042 15.23C12.6593 15.5193 12.2113 15.748 11.698 15.916C11.1847 16.084 10.7227 16.168 10.312 16.168C9.71468 16.168 9.30402 15.986 9.08002 15.622C8.86535 15.2487 8.75802 14.7727 8.75802 14.194C8.75802 13.606 8.76268 13.2 8.77202 12.976C8.59468 12.9387 8.24935 12.92 7.73602 12.92C7.22268 12.92 6.77935 12.9713 6.40602 13.074C6.06068 13.998 5.75735 14.9127 5.49602 15.818ZM8.82802 11.8C8.87468 10.988 8.89802 10.1713 8.89802 9.35C8.89802 8.52867 8.85135 7.93133 8.75802 7.558C8.66468 7.558 8.59935 7.56733 8.56202 7.586C8.35668 8.21133 7.80602 9.616 6.91002 11.8H8.82802ZM16.6586 15.398C16.0053 15.7527 15.4219 15.93 14.9086 15.93C14.4046 15.93 13.9799 15.7293 13.6346 15.328C13.2986 14.9173 13.1306 14.3107 13.1306 13.508C13.1306 12.4347 13.4199 11.548 13.9986 10.848C14.5866 10.148 15.2866 9.798 16.0986 9.798C16.4906 9.798 16.9339 9.90533 17.4286 10.12C18.0073 9.94267 18.6653 9.854 19.4026 9.854H19.6406C19.6873 9.94733 19.7106 10.1573 19.7106 10.484C19.7106 10.8013 19.6499 11.4313 19.5286 12.374C19.4166 13.3167 19.2906 14.1053 19.1506 14.74C18.8519 16.0933 18.3853 17.162 17.7506 17.946C17.1253 18.7393 16.3366 19.136 15.3846 19.136C14.9179 19.136 14.5353 19.0333 14.2366 18.828C13.9473 18.6227 13.8026 18.3613 13.8026 18.044C13.8026 17.7267 13.8773 17.4607 14.0266 17.246C14.1853 17.0407 14.4093 16.868 14.6986 16.728C15.1933 16.4853 15.7999 16.2847 16.5186 16.126L16.6586 15.398ZM16.7426 10.932C16.4159 10.932 16.1639 11.212 15.9866 11.772C15.8186 12.332 15.7346 12.9387 15.7346 13.592C15.7346 14.2453 15.8886 14.572 16.1966 14.572C16.3273 14.572 16.5186 14.5067 16.7706 14.376C16.8453 13.62 16.9666 12.5 17.1346 11.016C16.9946 10.96 16.8639 10.932 16.7426 10.932ZM15.1466 18.1C15.3239 18.1 15.5246 18.0113 15.7486 17.834C15.9819 17.6567 16.1733 17.3673 16.3226 16.966C15.3053 17.1433 14.7966 17.414 14.7966 17.778C14.8153 17.9927 14.9319 18.1 15.1466 18.1Z" fill="#333333"/>
</svg>
