<svg width="24" height="24" viewBox="0 0 24 24" fill="none" xmlns="http://www.w3.org/2000/svg">
<path d="M4.9609 17.672C4.4009 17.672 3.93423 17.4853 3.5609 17.112C3.1969 16.748 3.0149 16.3233 3.0149 15.838C3.0149 15.3433 3.13157 14.886 3.3649 14.466C3.59823 14.0367 3.92957 13.64 4.3589 13.276C4.79757 12.912 5.3669 12.6133 6.0669 12.38C6.7669 12.1373 7.54157 12.002 8.3909 11.974C8.88557 10.7513 9.32423 9.384 9.7069 7.872C9.71623 7.816 9.7209 7.746 9.7209 7.662C9.7209 7.56867 9.67423 7.48933 9.5809 7.424V7.284C10.3836 7.13467 11.1162 7.06 11.7789 7.06L12.6189 7.116C12.8616 7.54533 12.9969 8.14267 13.0249 8.908C13.0529 9.664 13.0716 10.98 13.0809 12.856C14.0889 13.2947 14.9522 13.85 15.6709 14.522C15.6336 14.6433 15.5589 14.7647 15.4469 14.886C15.3442 14.998 15.2462 15.082 15.1529 15.138L15.0129 15.222C14.4622 14.6807 13.8229 14.2187 13.0949 13.836C13.1136 14.368 13.1649 14.816 13.2489 15.18C13.3796 15.7773 13.5336 16.076 13.7109 16.076C13.8136 16.076 13.9349 16.0527 14.0749 16.006L14.2849 16.552C13.6409 16.9627 13.0249 17.168 12.4369 17.168C11.4662 17.168 10.9809 16.4353 10.9809 14.97V13.136C10.3276 12.9773 9.7349 12.8793 9.2029 12.842C7.98957 16.062 6.57557 17.672 4.9609 17.672ZM8.0409 12.828C6.98623 12.912 6.1089 13.2807 5.4089 13.934C4.7089 14.5873 4.3589 15.1987 4.3589 15.768C4.3589 16.3373 4.57823 16.622 5.0169 16.622C5.9129 16.622 6.9209 15.3573 8.0409 12.828ZM10.8269 8.18C10.8082 8.17067 10.7709 8.166 10.7149 8.166C10.6589 8.166 10.6216 8.17067 10.6029 8.18C10.5189 8.88933 10.1549 10.1633 9.5109 12.002C9.96823 12.03 10.4582 12.0953 10.9809 12.198C10.9809 9.902 10.9296 8.56267 10.8269 8.18ZM18.144 19.464C17.7986 19.6973 17.4673 19.8653 17.15 19.968C16.8326 20.08 16.5246 20.136 16.226 20.136C15.9273 20.136 15.6846 20.052 15.498 19.884C15.3113 19.716 15.218 19.4733 15.218 19.156C15.218 18.848 15.4186 18.554 15.82 18.274C16.2213 17.994 16.618 17.8027 17.01 17.7L17.612 17.56L17.822 16.44C17.2806 16.8507 16.758 17.056 16.254 17.056C15.7593 17.056 15.3533 16.8647 15.036 16.482C14.728 16.0993 14.574 15.488 14.574 14.648C14.574 13.5467 14.8213 12.632 15.316 11.904C15.8106 11.1667 16.464 10.798 17.276 10.798C17.7333 10.798 18.186 10.91 18.634 11.134C19.11 10.966 19.6233 10.882 20.174 10.882L20.468 10.896C20.496 11.008 20.51 11.1667 20.51 11.372C20.51 12.1933 20.216 14.0367 19.628 16.902C19.5253 17.49 19.3386 18.0033 19.068 18.442C18.7973 18.89 18.4893 19.2307 18.144 19.464ZM17.906 11.624C17.5046 11.624 17.1873 11.9507 16.954 12.604C16.7206 13.248 16.604 13.9667 16.604 14.76C16.604 15.544 16.7813 15.936 17.136 15.936C17.3693 15.936 17.6446 15.8473 17.962 15.67C18.2233 14.102 18.41 12.8093 18.522 11.792C18.2606 11.68 18.0553 11.624 17.906 11.624ZM15.848 19.128C15.848 19.3053 15.9506 19.394 16.156 19.394C16.3706 19.394 16.604 19.2727 16.856 19.03C17.108 18.7967 17.3086 18.5073 17.458 18.162C17.15 18.1993 16.8046 18.3113 16.422 18.498C16.0393 18.694 15.848 18.904 15.848 19.128Z" fill="#888888"/>
</svg>
