<svg width="24" height="24" viewBox="0 0 24 24" fill="none" xmlns="http://www.w3.org/2000/svg">
<path d="M9.21777 15.127H6.15527L5.30078 17H2.52539L7.61133 7.00586H11.0498L11.8906 17H9.28613L9.21777 15.127ZM7.13281 12.9941H9.13574L9.01953 10.0957L9.00586 9.50781C9.00586 9.16602 9.01497 8.86751 9.0332 8.6123C8.92383 9.00423 8.78483 9.38249 8.61621 9.74707L7.13281 12.9941ZM21.2559 9.25488L20.9756 10.6699L19.8818 11.0254C19.9274 11.2077 19.9502 11.4219 19.9502 11.668C19.9502 12.5384 19.654 13.2425 19.0615 13.7803C18.4691 14.3135 17.6966 14.5801 16.7441 14.5801C16.3978 14.5801 16.1152 14.5505 15.8965 14.4912C15.8053 14.5413 15.7279 14.5915 15.6641 14.6416C15.6003 14.6917 15.5684 14.7601 15.5684 14.8467C15.5684 15.0426 15.8213 15.1771 16.3271 15.25L17.2637 15.373C18.0566 15.487 18.6263 15.6966 18.9727 16.002C19.319 16.3027 19.4922 16.7334 19.4922 17.2939C19.4922 18.2738 19.1071 19.0303 18.3369 19.5635C17.5713 20.0967 16.4821 20.3633 15.0693 20.3633C14.1032 20.3633 13.3353 20.1901 12.7656 19.8438C12.1914 19.502 11.9043 19.0257 11.9043 18.415C11.9043 17.9684 12.0592 17.5833 12.3691 17.2598C12.679 16.9362 13.1621 16.6673 13.8184 16.4531C13.6497 16.3483 13.5107 16.2116 13.4014 16.043C13.2965 15.8743 13.2441 15.6943 13.2441 15.5029C13.2441 15.1794 13.3604 14.8923 13.5928 14.6416C13.8252 14.391 14.1715 14.1608 14.6318 13.9512C14.0348 13.4818 13.7363 12.8415 13.7363 12.0303C13.7363 11.137 14.0462 10.4284 14.666 9.9043C15.2858 9.38021 16.1243 9.11816 17.1816 9.11816C17.4141 9.11816 17.6579 9.13184 17.9131 9.15918C18.1729 9.18652 18.3779 9.21842 18.5283 9.25488H21.2559ZM14.1602 18.0391C14.1602 18.431 14.5475 18.627 15.3223 18.627C15.8919 18.627 16.3249 18.5609 16.6211 18.4287C16.9219 18.2965 17.0723 18.1097 17.0723 17.8682C17.0723 17.7041 16.9971 17.5788 16.8467 17.4922C16.6963 17.4102 16.4342 17.3486 16.0605 17.3076L15.2744 17.2256C14.9189 17.2757 14.6432 17.3691 14.4473 17.5059C14.2559 17.6471 14.1602 17.8249 14.1602 18.0391ZM16.2314 12.2695C16.2314 12.6979 16.3841 12.9121 16.6895 12.9121C16.9264 12.9121 17.1201 12.7572 17.2705 12.4473C17.4255 12.1328 17.5029 11.7705 17.5029 11.3604C17.5029 10.9274 17.3639 10.7109 17.0859 10.7109C16.9128 10.7109 16.7624 10.7884 16.6348 10.9434C16.5072 11.0938 16.4069 11.292 16.334 11.5381C16.2656 11.7842 16.2314 12.028 16.2314 12.2695Z" fill="#333333"/>
</svg>
