<svg width="24" height="24" viewBox="0 0 24 24" fill="none" xmlns="http://www.w3.org/2000/svg">
<path d="M12.1855 17L11.3242 13.3701H8.78809L7.91309 17H7.21582L9.6084 7.00586H10.4697L12.8828 17H12.1855ZM11.1875 12.7412L10.2988 8.83789C10.2624 8.67839 10.2282 8.52799 10.1963 8.38672C10.1689 8.24544 10.1416 8.10872 10.1143 7.97656C10.0915 7.8444 10.0664 7.70996 10.0391 7.57324C10.0163 7.70996 9.99121 7.8444 9.96387 7.97656C9.94108 8.10417 9.91602 8.23861 9.88867 8.37988C9.86133 8.52116 9.82715 8.67155 9.78613 8.83105L8.91113 12.7412H11.1875ZM15.1113 20.3633C14.4642 20.3633 13.9492 20.1833 13.5664 19.8232C13.1882 19.4632 12.999 18.9619 12.999 18.3193C12.999 17.7725 13.1175 17.3327 13.3545 17C13.5915 16.6673 13.8923 16.4486 14.2568 16.3438C14.0837 16.2526 13.9424 16.1182 13.833 15.9404C13.7282 15.7627 13.6758 15.5508 13.6758 15.3047C13.6758 15.0632 13.7305 14.833 13.8398 14.6143C13.9538 14.3955 14.1201 14.1927 14.3389 14.0059C14.0426 13.8418 13.8125 13.5729 13.6484 13.1992C13.4844 12.821 13.4023 12.3789 13.4023 11.873C13.4023 11.3809 13.4775 10.9525 13.6279 10.5879C13.7783 10.2233 13.9925 9.93848 14.2705 9.7334C14.5485 9.52832 14.8789 9.42578 15.2617 9.42578C15.3848 9.42578 15.4919 9.43262 15.583 9.44629C15.6787 9.4554 15.7653 9.47135 15.8428 9.49414C15.9202 9.51237 15.9909 9.53971 16.0547 9.57617H17.7295V10.041L16.6699 10.1299C16.8249 10.3486 16.9365 10.6084 17.0049 10.9092C17.0732 11.21 17.1074 11.5062 17.1074 11.7979C17.1074 12.5452 16.9434 13.1354 16.6152 13.5684C16.2917 14.0013 15.8359 14.2178 15.248 14.2178C15.0703 14.2178 14.9154 14.1973 14.7832 14.1562C14.6328 14.293 14.5029 14.4479 14.3936 14.6211C14.2887 14.7943 14.2363 15.0039 14.2363 15.25C14.2363 15.4004 14.2682 15.5303 14.332 15.6396C14.3958 15.749 14.487 15.8356 14.6055 15.8994C14.724 15.9632 14.8675 15.9951 15.0361 15.9951H16.0205C16.5583 15.9951 16.9707 16.1546 17.2578 16.4736C17.5495 16.7881 17.6953 17.2643 17.6953 17.9023C17.6953 18.6771 17.472 19.2809 17.0254 19.7139C16.5788 20.1468 15.9408 20.3633 15.1113 20.3633ZM15.166 19.8027C15.5807 19.8027 15.9271 19.7321 16.2051 19.5908C16.4876 19.4541 16.6995 19.2445 16.8408 18.9619C16.9867 18.6839 17.0596 18.333 17.0596 17.9092C17.0596 17.5674 17.0049 17.3008 16.8955 17.1094C16.7861 16.9225 16.6357 16.7949 16.4443 16.7266C16.2575 16.6582 16.0456 16.624 15.8086 16.624H14.9609C14.724 16.624 14.5029 16.6764 14.2979 16.7812C14.0928 16.8861 13.931 17.0547 13.8125 17.2871C13.694 17.5241 13.6348 17.8431 13.6348 18.2441C13.6348 18.7591 13.7715 19.1465 14.0449 19.4062C14.3229 19.6706 14.6966 19.8027 15.166 19.8027ZM15.2617 13.6846C15.6354 13.6846 15.9271 13.5296 16.1367 13.2197C16.3464 12.9053 16.4512 12.4473 16.4512 11.8457C16.4512 11.2122 16.3418 10.7383 16.123 10.4238C15.9089 10.1094 15.6172 9.95215 15.248 9.95215C14.8835 9.95215 14.5941 10.123 14.3799 10.4648C14.1702 10.8021 14.0654 11.2715 14.0654 11.873C14.0654 12.4473 14.1657 12.8939 14.3662 13.2129C14.5667 13.5273 14.8652 13.6846 15.2617 13.6846Z" fill="#888888"/>
</svg>
