<svg width="24" height="24" viewBox="0 0 24 24" fill="none" xmlns="http://www.w3.org/2000/svg">
<path d="M11.2412 17L10.4893 13.7871H8.11719L7.36523 17H6.20312L8.61621 7.00586H9.93555L12.3965 17H11.2412ZM10.2842 12.7822L9.51855 9.3916C9.48665 9.22298 9.45475 9.05892 9.42285 8.89941C9.39551 8.73535 9.36816 8.57812 9.34082 8.42773C9.31803 8.27279 9.29525 8.1224 9.27246 7.97656C9.25879 8.1224 9.24056 8.27279 9.21777 8.42773C9.19499 8.58268 9.16764 8.73991 9.13574 8.89941C9.10384 9.05436 9.06966 9.21387 9.0332 9.37793L8.28809 12.7822H10.2842ZM14.7959 20.3633C14.0804 20.3633 13.5176 20.181 13.1074 19.8164C12.6973 19.4518 12.4922 18.9414 12.4922 18.2852C12.4922 17.7702 12.6152 17.3486 12.8613 17.0205C13.1074 16.6924 13.4242 16.4736 13.8115 16.3643C13.6201 16.2731 13.4629 16.1364 13.3398 15.9541C13.2214 15.7718 13.1621 15.5553 13.1621 15.3047C13.1621 15.0495 13.2214 14.8171 13.3398 14.6074C13.4629 14.3978 13.6338 14.1973 13.8525 14.0059C13.5609 13.8327 13.3307 13.5547 13.1621 13.1719C12.9935 12.7891 12.9092 12.3493 12.9092 11.8525C12.9092 11.3421 12.9912 10.9023 13.1553 10.5332C13.3239 10.1595 13.5654 9.87012 13.8799 9.66504C14.1943 9.45996 14.5703 9.35742 15.0078 9.35742C15.1445 9.35742 15.2653 9.36426 15.3701 9.37793C15.4749 9.3916 15.5684 9.40983 15.6504 9.43262C15.7324 9.4554 15.8053 9.48275 15.8691 9.51465H17.7285V10.1914L16.7236 10.3145C16.8512 10.5195 16.9447 10.7542 17.0039 11.0186C17.0632 11.2783 17.0928 11.5426 17.0928 11.8115C17.0928 12.5817 16.9105 13.1878 16.5459 13.6299C16.1813 14.0674 15.6663 14.2861 15.001 14.2861C14.7959 14.2861 14.6318 14.2656 14.5088 14.2246C14.3857 14.3385 14.2764 14.4684 14.1807 14.6143C14.0895 14.7601 14.0439 14.9401 14.0439 15.1543C14.0439 15.2865 14.0736 15.4027 14.1328 15.5029C14.1966 15.6032 14.2878 15.6807 14.4062 15.7354C14.5247 15.79 14.6706 15.8174 14.8438 15.8174H15.9238C16.4844 15.8174 16.915 15.9792 17.2158 16.3027C17.5212 16.6263 17.6738 17.1185 17.6738 17.7793C17.6738 18.5996 17.4255 19.2354 16.9287 19.6865C16.4365 20.1377 15.7256 20.3633 14.7959 20.3633ZM14.8779 19.5293C15.2744 19.5293 15.6048 19.4678 15.8691 19.3447C16.138 19.2262 16.3385 19.0439 16.4707 18.7979C16.6074 18.5518 16.6758 18.2464 16.6758 17.8818C16.6758 17.5856 16.6279 17.3577 16.5322 17.1982C16.4411 17.0387 16.3089 16.9294 16.1357 16.8701C15.9626 16.8109 15.7552 16.7812 15.5137 16.7812H14.6182C14.4085 16.7812 14.2171 16.8291 14.0439 16.9248C13.8753 17.016 13.7409 17.1641 13.6406 17.3691C13.5404 17.5742 13.4902 17.8477 13.4902 18.1895C13.4902 18.6315 13.6133 18.9642 13.8594 19.1875C14.11 19.4154 14.4495 19.5293 14.8779 19.5293ZM15.0078 13.5068C15.3359 13.5068 15.5889 13.3656 15.7666 13.083C15.9489 12.8005 16.04 12.3857 16.04 11.8389C16.04 11.2646 15.9466 10.8363 15.7598 10.5537C15.5775 10.2712 15.3223 10.1299 14.9941 10.1299C14.6751 10.1299 14.4245 10.2826 14.2422 10.5879C14.0599 10.8887 13.9688 11.3125 13.9688 11.8594C13.9688 12.3835 14.0553 12.7891 14.2285 13.0762C14.4017 13.3633 14.6615 13.5068 15.0078 13.5068Z" fill="#888888"/>
</svg>
