<svg width="24" height="24" viewBox="0 0 24 24" fill="none" xmlns="http://www.w3.org/2000/svg">
<path d="M11.0088 13.377H8.91016L7.39941 17H6.68164L10.8242 6.96484H11.665V17H11.0088V13.377ZM11.0088 12.7002V10.1709L11.0498 7.74414C10.9814 7.99023 10.8538 8.36165 10.667 8.8584C10.4847 9.35059 9.97884 10.6312 9.14941 12.7002H11.0088ZM16.7988 10.1572C16.9355 10.417 17.0039 10.7702 17.0039 11.2168C17.0039 11.6634 16.9014 12.151 16.6963 12.6797C16.4912 13.2038 16.2223 13.6139 15.8896 13.9102C15.557 14.2064 15.1878 14.3545 14.7822 14.3545H14.6113L14.4609 14.3408C13.8913 14.7373 13.6064 15.0973 13.6064 15.4209C13.6064 15.6123 13.6816 15.7536 13.832 15.8447C13.8913 15.8766 14.1829 15.9746 14.707 16.1387C15.2357 16.3027 15.6162 16.5192 15.8486 16.7881C16.0811 17.057 16.1973 17.4215 16.1973 17.8818C16.1973 18.6201 15.9535 19.2171 15.4658 19.6729C14.9827 20.1331 14.363 20.3633 13.6064 20.3633C13.0049 20.3633 12.54 20.2106 12.2119 19.9053C11.8792 19.5999 11.7129 19.1875 11.7129 18.668C11.7129 18.153 11.861 17.6973 12.1572 17.3008C12.4535 16.9089 12.875 16.5898 13.4219 16.3438C13.1348 16.1523 12.9912 15.8949 12.9912 15.5713C12.9912 15.3252 13.0664 15.0905 13.2168 14.8672C13.3672 14.6439 13.627 14.4023 13.9961 14.1426C13.6042 13.8145 13.4082 13.3542 13.4082 12.7617C13.4082 12.1647 13.5199 11.6019 13.7432 11.0732C13.971 10.54 14.2559 10.1344 14.5977 9.85645C14.9395 9.57845 15.3223 9.43945 15.7461 9.43945C16.0378 9.43945 16.2611 9.4873 16.416 9.58301H17.8311L17.7354 10.041L16.7988 10.1572ZM14.0371 12.8164C14.0371 13.5046 14.29 13.8486 14.7959 13.8486C15.083 13.8486 15.3382 13.7301 15.5615 13.4932C15.7939 13.2562 15.9854 12.8962 16.1357 12.4131C16.2861 11.93 16.3613 11.4674 16.3613 11.0254C16.3613 10.3236 16.1152 9.97266 15.623 9.97266C15.3496 9.97266 15.0921 10.1003 14.8506 10.3555C14.6227 10.6061 14.429 10.9775 14.2695 11.4697C14.1146 11.9619 14.0371 12.4108 14.0371 12.8164ZM13.8594 16.5967C13.4264 16.738 13.0618 16.9932 12.7656 17.3623C12.474 17.7314 12.3281 18.1325 12.3281 18.5654C12.3281 19.0029 12.4375 19.3219 12.6562 19.5225C12.8796 19.7275 13.2145 19.8301 13.6611 19.8301C14.2171 19.8301 14.6774 19.6615 15.042 19.3242C15.4111 18.987 15.5957 18.5472 15.5957 18.0049C15.5957 17.3896 15.222 16.9749 14.4746 16.7607L13.8594 16.5967Z" fill="#888888"/>
</svg>
