<svg width="24" height="24" viewBox="0 0 24 24" fill="none" xmlns="http://www.w3.org/2000/svg">
<path d="M12.0947 17H10.8916L9.64746 13.8213H5.6416L4.41113 17H3.23535L7.18652 6.96484H8.16406L12.0947 17ZM9.28516 12.7754L8.12305 9.67871C7.9681 9.27767 7.81315 8.79688 7.6582 8.23633C7.55794 8.66471 7.41439 9.14551 7.22754 9.67871L6.05176 12.7754H9.28516ZM15.4854 15.8105H16.8115C17.6227 15.8105 18.2448 15.9814 18.6777 16.3232C19.1152 16.665 19.334 17.1618 19.334 17.8135C19.334 18.6429 19.0013 19.2741 18.3359 19.707C17.6706 20.1445 16.6999 20.3633 15.4238 20.3633C14.444 20.3633 13.6875 20.181 13.1543 19.8164C12.6257 19.4518 12.3613 18.9368 12.3613 18.2715C12.3613 17.8158 12.5072 17.4215 12.7988 17.0889C13.0951 16.7562 13.5052 16.5306 14.0293 16.4121C13.8288 16.321 13.6647 16.1842 13.5371 16.002C13.4141 15.8197 13.3525 15.6032 13.3525 15.3525C13.3525 15.0973 13.4232 14.8672 13.5645 14.6621C13.7103 14.4525 13.9427 14.252 14.2617 14.0605C13.8789 13.9056 13.5622 13.6344 13.3115 13.2471C13.07 12.8597 12.9492 12.4222 12.9492 11.9346C12.9492 11.1188 13.1953 10.4876 13.6875 10.041C14.1797 9.5944 14.877 9.37109 15.7793 9.37109C16.1621 9.37109 16.5153 9.41667 16.8389 9.50781H19.4297V10.2324L18.042 10.3896C18.3701 10.8044 18.5342 11.3034 18.5342 11.8867C18.5342 12.6204 18.2835 13.2061 17.7822 13.6436C17.2809 14.0811 16.5928 14.2998 15.7178 14.2998C15.5081 14.2998 15.2985 14.2816 15.0889 14.2451C14.6058 14.4958 14.3643 14.8171 14.3643 15.209C14.3643 15.4186 14.4508 15.5713 14.624 15.667C14.7972 15.7627 15.0843 15.8105 15.4854 15.8105ZM15.7314 10.2051C15.1937 10.2051 14.7812 10.3486 14.4941 10.6357C14.2116 10.9229 14.0703 11.3376 14.0703 11.8799C14.0703 12.4176 14.2161 12.8232 14.5078 13.0967C14.804 13.3656 15.2188 13.5 15.752 13.5C16.8594 13.5 17.4131 12.9622 17.4131 11.8867C17.4131 10.7656 16.8525 10.2051 15.7314 10.2051ZM16.4492 16.8291H15.0889C14.5693 16.8291 14.166 16.9521 13.8789 17.1982C13.5964 17.4443 13.4551 17.7839 13.4551 18.2168C13.4551 19.069 14.1159 19.4951 15.4375 19.4951C16.3717 19.4951 17.0713 19.3561 17.5361 19.0781C18.0055 18.8001 18.2402 18.4105 18.2402 17.9092C18.2402 17.499 18.1149 17.2165 17.8643 17.0615C17.6136 16.9066 17.1419 16.8291 16.4492 16.8291Z" fill="#333333"/>
</svg>
