<svg width="24" height="24" viewBox="0 0 24 24" fill="none" xmlns="http://www.w3.org/2000/svg">
<path d="M5.18457 17L9.40234 6.96484H11.1729L11.2412 17H9.77832L9.80566 14.0879H7.87793L6.70898 17H5.18457ZM8.34961 12.8506H9.86719L9.93555 9.54199C9.9401 9.31413 9.94694 9.09993 9.95605 8.89941C9.96517 8.69434 9.97884 8.49609 9.99707 8.30469H9.95605C9.9196 8.48698 9.86947 8.67839 9.80566 8.87891C9.74642 9.07487 9.67578 9.28906 9.59375 9.52148L8.34961 12.8506ZM13.5176 20.3633C12.7611 20.3678 12.1868 20.2197 11.7949 19.9189C11.3984 19.6227 11.2025 19.1784 11.207 18.5859C11.2161 18.0801 11.3779 17.6312 11.6924 17.2393C12.0068 16.8519 12.4398 16.5557 12.9912 16.3506C12.8499 16.2822 12.7314 16.1706 12.6357 16.0156C12.5446 15.8561 12.499 15.6761 12.499 15.4756C12.499 15.2158 12.5856 14.9674 12.7588 14.7305C12.9365 14.4935 13.1963 14.2565 13.5381 14.0195C13.3604 13.9056 13.2168 13.7188 13.1074 13.459C12.998 13.1992 12.9434 12.8939 12.9434 12.543C12.9434 12.0234 13.055 11.513 13.2783 11.0117C13.5062 10.5059 13.8298 10.1025 14.249 9.80176C14.445 9.65137 14.6683 9.53288 14.9189 9.44629C15.1696 9.35514 15.4248 9.30957 15.6846 9.30957C15.9079 9.30957 16.0947 9.33008 16.2451 9.37109C16.4001 9.40755 16.5254 9.44629 16.6211 9.4873H18.501L18.3301 10.3145L17.4209 10.5264C17.471 10.6221 17.5075 10.7337 17.5303 10.8613C17.5531 10.9889 17.5645 11.1279 17.5645 11.2783C17.5645 11.6611 17.4915 12.0622 17.3457 12.4814C17.1999 12.9007 17.0016 13.2562 16.751 13.5479C16.514 13.8213 16.2337 14.0355 15.9102 14.1904C15.5911 14.3408 15.2311 14.416 14.8301 14.416C14.7025 14.416 14.5977 14.4183 14.5156 14.4229C14.4382 14.4229 14.3812 14.432 14.3447 14.4502C14.1123 14.555 13.9391 14.6895 13.8252 14.8535C13.7113 15.013 13.6543 15.1634 13.6543 15.3047C13.6543 15.4505 13.7181 15.5508 13.8457 15.6055C13.8958 15.6283 13.9574 15.6442 14.0303 15.6533C14.1032 15.6624 14.1898 15.667 14.29 15.667H15.4043C15.7689 15.667 16.0628 15.7308 16.2861 15.8584C16.514 15.986 16.6803 16.1683 16.7852 16.4053C16.8945 16.6377 16.9492 16.9111 16.9492 17.2256C16.9492 17.7816 16.8262 18.276 16.5801 18.709C16.334 19.1465 16.0036 19.4974 15.5889 19.7617C15.3018 19.9531 14.9805 20.099 14.625 20.1992C14.2695 20.304 13.9004 20.3587 13.5176 20.3633ZM13.5654 19.3311C13.8252 19.3265 14.0736 19.2855 14.3105 19.208C14.5475 19.1351 14.7594 19.0257 14.9463 18.8799C15.1468 18.7295 15.3086 18.5381 15.4316 18.3057C15.5592 18.0778 15.623 17.834 15.623 17.5742C15.623 17.4694 15.6094 17.3737 15.582 17.2871C15.5547 17.2005 15.5046 17.123 15.4316 17.0547C15.3724 17.0046 15.2835 16.9658 15.165 16.9385C15.0511 16.9066 14.9076 16.8883 14.7344 16.8838H13.8184C13.6133 16.8838 13.4082 16.9658 13.2031 17.1299C12.998 17.2985 12.8271 17.5059 12.6904 17.752C12.5537 17.998 12.4854 18.2396 12.4854 18.4766C12.4854 18.8047 12.5788 19.0303 12.7656 19.1533C12.957 19.2764 13.2236 19.3356 13.5654 19.3311ZM14.8438 13.4453C15.0807 13.4453 15.2949 13.3496 15.4863 13.1582C15.6777 12.9668 15.8372 12.7093 15.9648 12.3857C16.0924 12.0622 16.1722 11.7044 16.2041 11.3125C16.2269 11.0983 16.2269 10.916 16.2041 10.7656C16.1859 10.6152 16.1403 10.499 16.0674 10.417C16.0264 10.3714 15.9762 10.3372 15.917 10.3145C15.8577 10.2871 15.7848 10.2734 15.6982 10.2734C15.5068 10.2734 15.3314 10.3395 15.1719 10.4717C15.0124 10.5993 14.8711 10.7702 14.748 10.9844C14.625 11.194 14.5247 11.4219 14.4473 11.668C14.3743 11.9141 14.3288 12.151 14.3105 12.3789C14.2969 12.543 14.2923 12.6911 14.2969 12.8232C14.306 12.9508 14.3311 13.0579 14.3721 13.1445C14.4587 13.3451 14.6159 13.4453 14.8438 13.4453Z" fill="#888888"/>
</svg>
