<svg width="24" height="24" viewBox="0 0 24 24" fill="none" xmlns="http://www.w3.org/2000/svg">
<path d="M9.07324 14.6211H5.83984L4.66406 17H2.47656L7.71289 6.96484H10.2627L11.2676 17H9.2373L9.07324 14.6211ZM8.9707 12.8438L8.79297 10.4512C8.7474 9.85417 8.72461 9.27767 8.72461 8.72168V8.47559C8.52409 9.02246 8.27572 9.60124 7.97949 10.2119L6.69434 12.8438H8.9707ZM20.2158 9.37109L19.9766 10.5059L18.7871 10.7861C18.86 11.0231 18.8965 11.292 18.8965 11.5928C18.8965 12.4814 18.6208 13.1855 18.0693 13.7051C17.5179 14.2201 16.7682 14.4775 15.8203 14.4775C15.5514 14.4775 15.3258 14.4548 15.1436 14.4092C14.7607 14.5322 14.5693 14.71 14.5693 14.9424C14.5693 15.0973 14.6377 15.209 14.7744 15.2773C14.9111 15.3457 15.1139 15.3981 15.3828 15.4346L16.3193 15.5576C17.0622 15.6533 17.6022 15.847 17.9395 16.1387C18.2812 16.4258 18.4521 16.8428 18.4521 17.3896C18.4521 18.3512 18.0967 19.0872 17.3857 19.5977C16.6748 20.1081 15.6585 20.3633 14.3369 20.3633C13.389 20.3633 12.6484 20.1901 12.1152 19.8438C11.5866 19.502 11.3223 19.0303 11.3223 18.4287C11.3223 17.9639 11.4795 17.5628 11.7939 17.2256C12.1038 16.8929 12.5915 16.6172 13.2568 16.3984C12.9196 16.1842 12.751 15.8812 12.751 15.4893C12.751 15.1657 12.8512 14.8877 13.0518 14.6553C13.2568 14.4183 13.5918 14.1927 14.0566 13.9785C13.7604 13.7552 13.5417 13.5 13.4004 13.2129C13.2591 12.9258 13.1885 12.5771 13.1885 12.167C13.1885 11.2601 13.4733 10.5423 14.043 10.0137C14.6172 9.48047 15.3965 9.21387 16.3809 9.21387C16.7591 9.21387 17.1374 9.26628 17.5156 9.37109H20.2158ZM14.6035 17.041C14.1204 17.1048 13.7536 17.2347 13.5029 17.4307C13.2568 17.6266 13.1338 17.875 13.1338 18.1758C13.1338 18.6999 13.5758 18.9619 14.46 18.9619C15.1481 18.9619 15.6676 18.8594 16.0186 18.6543C16.3695 18.4492 16.5449 18.1598 16.5449 17.7861C16.5449 17.6084 16.4697 17.4717 16.3193 17.376C16.1735 17.2803 15.8613 17.2005 15.3828 17.1367L14.6035 17.041ZM16.3057 10.5195C15.9548 10.5195 15.6699 10.695 15.4512 11.0459C15.237 11.3923 15.1299 11.8275 15.1299 12.3516C15.1299 12.8939 15.3646 13.165 15.834 13.165C16.1758 13.165 16.4515 12.9919 16.6611 12.6455C16.8753 12.2946 16.9824 11.8525 16.9824 11.3193C16.9824 10.7861 16.7568 10.5195 16.3057 10.5195Z" fill="#333333"/>
</svg>
