<svg width="24" height="24" viewBox="0 0 24 24" fill="none" xmlns="http://www.w3.org/2000/svg">
<path d="M9.86719 14.2246H6.55176L5.12305 17H3.38672L8.73926 6.99219H10.6123L11.7471 17H10.1475L9.86719 14.2246ZM9.75781 12.8027C9.57552 10.9069 9.4707 9.76074 9.44336 9.36426C9.42057 8.96322 9.40918 8.64421 9.40918 8.40723C9.15853 9.04069 8.83496 9.74023 8.43848 10.5059L7.2627 12.8027H9.75781ZM20.2988 9.43945L20.0869 10.376L18.7744 10.6016C18.902 10.8659 18.9658 11.1781 18.9658 11.5381C18.9658 12.4176 18.6947 13.1172 18.1523 13.6367C17.61 14.1517 16.8831 14.4092 15.9717 14.4092C15.7347 14.4092 15.5251 14.391 15.3428 14.3545C14.8369 14.5368 14.584 14.7738 14.584 15.0654C14.584 15.2386 14.6546 15.3571 14.7959 15.4209C14.9417 15.4847 15.1514 15.5348 15.4248 15.5713L16.293 15.6807C17.0951 15.7809 17.6693 15.9814 18.0156 16.2822C18.362 16.5785 18.5352 17.0046 18.5352 17.5605C18.5352 18.4538 18.1911 19.1442 17.5029 19.6318C16.8148 20.1195 15.8372 20.3633 14.5703 20.3633C13.6452 20.3633 12.9297 20.1924 12.4238 19.8506C11.9134 19.5088 11.6582 19.0394 11.6582 18.4424C11.6582 17.973 11.8177 17.5674 12.1367 17.2256C12.4512 16.8838 12.9593 16.5944 13.6611 16.3574C13.3148 16.1523 13.1416 15.863 13.1416 15.4893C13.1416 15.1748 13.2464 14.9036 13.4561 14.6758C13.6702 14.4434 14.0052 14.2201 14.4609 14.0059C13.8457 13.6367 13.5381 13.0625 13.5381 12.2832C13.5381 11.39 13.8161 10.6699 14.3721 10.123C14.9326 9.57617 15.6709 9.30273 16.5869 9.30273C16.9515 9.30273 17.3161 9.34831 17.6807 9.43945H20.2988ZM14.7002 16.877C14.1898 16.959 13.7979 17.1208 13.5244 17.3623C13.251 17.6038 13.1143 17.9023 13.1143 18.2578C13.1143 18.554 13.2396 18.7887 13.4902 18.9619C13.7454 19.1396 14.1328 19.2285 14.6523 19.2285C15.3952 19.2285 15.9762 19.1055 16.3955 18.8594C16.8148 18.6133 17.0244 18.2601 17.0244 17.7998C17.0244 17.5674 16.9219 17.3851 16.7168 17.2529C16.5117 17.1208 16.1517 17.0273 15.6367 16.9727L14.7002 16.877ZM16.5459 10.376C16.2497 10.376 15.9899 10.4648 15.7666 10.6426C15.5433 10.8158 15.3701 11.055 15.2471 11.3604C15.124 11.6611 15.0625 11.9915 15.0625 12.3516C15.0625 12.6751 15.1423 12.9258 15.3018 13.1035C15.4658 13.2767 15.6982 13.3633 15.999 13.3633C16.2952 13.3633 16.5505 13.2744 16.7646 13.0967C16.9834 12.9189 17.152 12.6751 17.2705 12.3652C17.3936 12.0553 17.4551 11.7158 17.4551 11.3467C17.4551 10.6995 17.152 10.376 16.5459 10.376Z" fill="#888888"/>
</svg>
