<svg width="24" height="24" viewBox="0 0 24 24" fill="none" xmlns="http://www.w3.org/2000/svg">
<path d="M2.18212 17V8.74C2.18212 8.236 2.35945 7.80667 2.71412 7.452C3.06878 7.09733 3.49812 6.92 4.00212 6.92H10.4281C10.9321 6.92 11.3615 7.09733 11.7161 7.452C12.0801 7.80667 12.2621 8.236 12.2621 8.74V17H10.7361V13.472H3.69412V17H2.18212ZM3.69412 11.96H10.7361V8.95C10.7361 8.74467 10.6988 8.60933 10.6241 8.544C10.5588 8.46933 10.4235 8.432 10.2181 8.432H4.21212C4.00678 8.432 3.86678 8.46933 3.79212 8.544C3.72678 8.60933 3.69412 8.74467 3.69412 8.95V11.96ZM15.0752 20.206V18.68H19.8772C20.0826 18.68 20.2179 18.6427 20.2832 18.568C20.3579 18.5027 20.3952 18.3673 20.3952 18.162V17H15.4672C14.9632 17 14.5339 16.8227 14.1792 16.468C13.8246 16.1133 13.6472 15.684 13.6472 15.18V10.7C13.6472 10.196 13.8246 9.76667 14.1792 9.412C14.5339 9.05733 14.9632 8.88 15.4672 8.88H20.0872C20.5912 8.88 21.0206 9.05733 21.3752 9.412C21.7299 9.76667 21.9072 10.196 21.9072 10.7V18.386C21.9072 18.89 21.7299 19.3193 21.3752 19.674C21.0206 20.0287 20.5912 20.206 20.0872 20.206H15.0752ZM15.6772 15.488H19.8772C20.0826 15.488 20.2179 15.4553 20.2832 15.39C20.3579 15.3153 20.3952 15.1753 20.3952 14.97V10.91C20.3952 10.7047 20.3579 10.5693 20.2832 10.504C20.2179 10.4293 20.0826 10.392 19.8772 10.392H15.6772C15.4719 10.392 15.3319 10.4293 15.2572 10.504C15.1919 10.5693 15.1592 10.7047 15.1592 10.91V14.97C15.1592 15.1753 15.1919 15.3153 15.2572 15.39C15.3319 15.4553 15.4719 15.488 15.6772 15.488Z" fill="#333333"/>
</svg>
