<svg width="24" height="24" viewBox="0 0 24 24" fill="none" xmlns="http://www.w3.org/2000/svg">
<path d="M2.18212 17V8.6C2.18212 8.292 2.25678 8.012 2.40612 7.76C2.55545 7.49867 2.75612 7.29333 3.00812 7.144C3.26945 6.99467 3.55412 6.92 3.86212 6.92H10.5821C10.8901 6.92 11.1701 6.99467 11.4221 7.144C11.6835 7.29333 11.8888 7.49867 12.0381 7.76C12.1875 8.012 12.2621 8.292 12.2621 8.6V17H11.1281V13.318H3.31612V17H2.18212ZM3.31612 12.184H11.1281V8.6C11.1281 8.45067 11.0721 8.32467 10.9601 8.222C10.8575 8.11 10.7315 8.054 10.5821 8.054H3.86212C3.71278 8.054 3.58212 8.11 3.47012 8.222C3.36745 8.32467 3.31612 8.45067 3.31612 8.6V12.184ZM15.1452 20.206V19.044H20.2132C20.3626 19.044 20.4886 18.988 20.5912 18.876C20.7032 18.7733 20.7592 18.6473 20.7592 18.498V17H15.3412C15.0332 17 14.7486 16.9253 14.4872 16.776C14.2352 16.6173 14.0299 16.412 13.8712 16.16C13.7219 15.8987 13.6472 15.614 13.6472 15.306V10.574C13.6472 10.266 13.7219 9.986 13.8712 9.734C14.0299 9.47267 14.2352 9.26733 14.4872 9.118C14.7486 8.95933 15.0332 8.88 15.3412 8.88H20.2132C20.5306 8.88 20.8152 8.95933 21.0672 9.118C21.3286 9.26733 21.5339 9.47267 21.6832 9.734C21.8326 9.986 21.9072 10.266 21.9072 10.574V18.498C21.9072 18.8153 21.8326 19.1 21.6832 19.352C21.5339 19.6133 21.3286 19.8187 21.0672 19.968C20.8152 20.1267 20.5306 20.206 20.2132 20.206H15.1452ZM15.3412 15.852H20.2132C20.3626 15.852 20.4886 15.8007 20.5912 15.698C20.7032 15.586 20.7592 15.4553 20.7592 15.306V10.574C20.7592 10.4247 20.7032 10.2987 20.5912 10.196C20.4886 10.084 20.3626 10.028 20.2132 10.028H15.3412C15.1919 10.028 15.0612 10.084 14.9492 10.196C14.8466 10.2987 14.7952 10.4247 14.7952 10.574V15.306C14.7952 15.4553 14.8466 15.586 14.9492 15.698C15.0612 15.8007 15.1919 15.852 15.3412 15.852Z" fill="#888888"/>
</svg>
