<svg width="24" height="24" viewBox="0 0 24 24" fill="none" xmlns="http://www.w3.org/2000/svg">
<path d="M12.5391 6.39551C12.6074 6.40462 12.6553 6.42969 12.6826 6.4707C12.7145 6.51172 12.7305 6.56185 12.7305 6.62109C12.7305 6.69857 12.7077 6.7806 12.6621 6.86719C12.6165 6.95378 12.5413 7.04948 12.4365 7.1543C12.0309 7.54622 11.6686 7.89941 11.3496 8.21387C11.0352 8.52376 10.748 8.81315 10.4883 9.08203C10.2285 9.34635 9.99154 9.59701 9.77734 9.83398C9.56315 10.071 9.35579 10.3079 9.15527 10.5449C8.95931 10.7773 8.76107 11.0189 8.56055 11.2695C8.36003 11.5202 8.14583 11.7913 7.91797 12.083C8.11393 12.0648 8.32357 12.0488 8.54688 12.0352C8.77018 12.0169 8.99805 12.0078 9.23047 12.0078C9.41732 12.0078 9.59505 12.0146 9.76367 12.0283C9.93685 12.042 10.0964 12.0648 10.2422 12.0967C10.3652 11.7594 10.5202 11.3835 10.707 10.9688C10.8939 10.5495 11.0921 10.1257 11.3018 9.69727C11.516 9.26888 11.7279 8.85189 11.9375 8.44629C12.1517 8.03613 12.3431 7.67155 12.5117 7.35254C12.6849 7.02897 12.8262 6.76465 12.9355 6.55957C13.0449 6.35449 13.1042 6.24284 13.1133 6.22461C13.1133 6.21549 13.127 6.21094 13.1543 6.21094C13.168 6.21094 13.1862 6.21322 13.209 6.21777C13.2318 6.22233 13.2546 6.22461 13.2773 6.22461C13.2865 6.22461 13.2933 6.22233 13.2979 6.21777C13.3024 6.21322 13.3092 6.21094 13.3184 6.21094H13.3525C13.3799 6.21094 13.4049 6.22233 13.4277 6.24512C13.4551 6.26335 13.4801 6.27702 13.5029 6.28613C13.5804 6.32715 13.6465 6.36816 13.7012 6.40918C13.7559 6.44564 13.7832 6.50716 13.7832 6.59375C13.7832 6.60742 13.7832 6.62337 13.7832 6.6416C13.7832 6.65983 13.7786 6.68034 13.7695 6.70312C13.7604 6.74414 13.7171 6.86035 13.6396 7.05176C13.5667 7.24316 13.471 7.48242 13.3525 7.76953C13.234 8.05664 13.0973 8.38021 12.9424 8.74023C12.792 9.10026 12.6325 9.4694 12.4639 9.84766C12.2998 10.2259 12.1335 10.6019 11.9648 10.9756C11.8008 11.3447 11.6458 11.6842 11.5 11.9941C11.4043 12.1947 11.2083 12.6253 10.9121 13.2861C10.6204 13.9424 10.2194 14.8379 9.70898 15.9727C9.69531 16.0091 9.67708 16.0319 9.6543 16.041C9.63151 16.0501 9.60872 16.0547 9.58594 16.0547C9.56315 16.0547 9.54036 16.0524 9.51758 16.0479C9.49935 16.0433 9.4834 16.041 9.46973 16.041C9.44694 16.041 9.42871 16.0547 9.41504 16.082C9.38314 16.1413 9.33757 16.1709 9.27832 16.1709C9.22363 16.1709 9.18945 16.1549 9.17578 16.123C9.15299 16.0866 9.11426 16.0524 9.05957 16.0205C9.00944 15.9886 8.97298 15.9408 8.9502 15.877C8.94108 15.8496 8.92969 15.8245 8.91602 15.8018C8.90234 15.779 8.88867 15.7539 8.875 15.7266C8.86589 15.6947 8.85677 15.6605 8.84766 15.624C8.8431 15.583 8.84082 15.5306 8.84082 15.4668C8.84082 15.3848 8.84082 15.3232 8.84082 15.2822C8.84538 15.2412 8.84766 15.2093 8.84766 15.1865C8.85221 15.1592 8.85677 15.141 8.86133 15.1318C8.86589 15.1182 8.87272 15.0999 8.88184 15.0771C9.07324 14.5941 9.24414 14.1839 9.39453 13.8467C9.54948 13.5094 9.68164 13.2246 9.79102 12.9922C9.60417 13.0104 9.39225 13.0286 9.15527 13.0469C8.92285 13.0605 8.68359 13.0742 8.4375 13.0879C8.19141 13.1016 7.94759 13.1175 7.70605 13.1357C7.46908 13.1494 7.25488 13.1654 7.06348 13.1836C6.98145 13.2839 6.87435 13.4115 6.74219 13.5664C6.61458 13.7214 6.47559 13.8854 6.3252 14.0586C6.17936 14.2272 6.03125 14.3981 5.88086 14.5713C5.73047 14.7445 5.59375 14.904 5.4707 15.0498C5.34766 15.1911 5.24512 15.3096 5.16309 15.4053C5.08105 15.501 5.03776 15.5557 5.0332 15.5693C4.99219 15.6286 4.93978 15.6969 4.87598 15.7744C4.80762 15.8519 4.74154 15.9271 4.67773 16C4.60938 16.0684 4.54785 16.1276 4.49316 16.1777C4.43392 16.2279 4.39062 16.2529 4.36328 16.2529C4.32682 16.2529 4.30176 16.2233 4.28809 16.1641C4.27441 16.1094 4.25618 16.0547 4.2334 16C4.19694 15.9225 4.16276 15.8496 4.13086 15.7812C4.0944 15.7083 4.06478 15.6377 4.04199 15.5693C4.04199 15.5602 4.03971 15.5511 4.03516 15.542C4.0306 15.5329 4.02832 15.5215 4.02832 15.5078C4.02832 15.4622 4.03743 15.4076 4.05566 15.3438C4.07389 15.2754 4.09668 15.207 4.12402 15.1387C4.14681 15.0703 4.17188 15.0088 4.19922 14.9541C4.22656 14.8949 4.25163 14.8516 4.27441 14.8242C4.46582 14.5645 4.65495 14.3115 4.8418 14.0654C5.02409 13.8193 5.21322 13.5732 5.40918 13.3271C5.2998 13.3271 5.22005 13.3249 5.16992 13.3203C5.12435 13.3112 5.09701 13.2952 5.08789 13.2725C5.07878 13.2406 5.06283 13.2201 5.04004 13.2109C5.02181 13.2018 5.00358 13.1973 4.98535 13.1973C4.96257 13.1927 4.94434 13.1859 4.93066 13.1768C4.91699 13.1676 4.91016 13.1471 4.91016 13.1152C4.91016 13.0879 4.91243 13.0537 4.91699 13.0127C4.91699 12.9671 4.92155 12.9215 4.93066 12.876C4.93522 12.8304 4.94434 12.7894 4.95801 12.7529C4.96712 12.7165 4.97852 12.6937 4.99219 12.6846C5.0332 12.639 5.1084 12.5957 5.21777 12.5547C5.32715 12.5091 5.46615 12.4544 5.63477 12.3906C5.76693 12.3451 5.98568 12.3018 6.29102 12.2607C6.7832 11.682 7.27083 11.1351 7.75391 10.6201C8.23698 10.1051 8.69954 9.63346 9.1416 9.20508C9.58366 8.77214 9.99382 8.38477 10.3721 8.04297C10.7549 7.70117 11.0898 7.41178 11.377 7.1748C11.6686 6.93327 11.9033 6.7487 12.0811 6.62109C12.2633 6.48893 12.3727 6.41829 12.4092 6.40918C12.432 6.40918 12.4525 6.4069 12.4707 6.40234C12.4935 6.39779 12.5163 6.39551 12.5391 6.39551ZM13.5781 17.4834C13.5462 17.529 13.5029 17.5791 13.4482 17.6338C13.3981 17.6885 13.3411 17.7386 13.2773 17.7842C13.2135 17.8298 13.1429 17.8685 13.0654 17.9004C12.9925 17.9323 12.9173 17.9482 12.8398 17.9482C12.7624 17.9482 12.694 17.9346 12.6348 17.9072C12.5755 17.8844 12.5459 17.8548 12.5459 17.8184C12.5459 17.7865 12.5641 17.7591 12.6006 17.7363C12.6553 17.6999 12.7122 17.6497 12.7715 17.5859C12.8262 17.5221 12.8535 17.4515 12.8535 17.374C12.6393 17.4105 12.3955 17.4925 12.1221 17.6201C11.8486 17.7523 11.5273 17.93 11.1582 18.1533C10.7891 18.3812 10.4951 18.6068 10.2764 18.8301C10.0531 19.0534 9.94141 19.2676 9.94141 19.4727C9.94141 19.5228 9.95052 19.5729 9.96875 19.623C9.98242 19.6777 10.0098 19.7301 10.0508 19.7803C10.0781 19.8031 10.1146 19.8167 10.1602 19.8213C10.2057 19.8304 10.2536 19.835 10.3037 19.835C10.4587 19.835 10.6523 19.7985 10.8848 19.7256C11.1172 19.6572 11.3656 19.5661 11.6299 19.4521C11.8942 19.3428 12.1654 19.2174 12.4434 19.0762C12.7214 18.9395 12.988 18.8005 13.2432 18.6592C13.5348 18.4951 13.8014 18.3174 14.043 18.126C14.2891 17.9391 14.4987 17.75 14.6719 17.5586C14.8496 17.3672 14.9909 17.1826 15.0957 17.0049C15.2005 16.8271 15.2643 16.6654 15.2871 16.5195C15.2598 16.4694 15.221 16.4215 15.1709 16.376C15.1208 16.335 15.0615 16.2939 14.9932 16.2529C14.9385 16.2256 14.8587 16.2119 14.7539 16.2119C14.5944 16.2119 14.3984 16.237 14.166 16.2871C13.9382 16.3418 13.7057 16.3988 13.4688 16.458C13.2318 16.5218 13.0107 16.5788 12.8057 16.6289C12.6006 16.6836 12.4434 16.7109 12.334 16.7109C12.2656 16.7109 12.2018 16.6904 12.1426 16.6494C12.0788 16.613 12.0218 16.5628 11.9717 16.499C11.9215 16.4398 11.876 16.3737 11.835 16.3008C11.7939 16.2324 11.7643 16.1641 11.7461 16.0957C11.6914 16 11.6641 15.8838 11.6641 15.7471C11.6641 15.6696 11.6777 15.5853 11.7051 15.4941C11.7279 15.4395 11.7871 15.3688 11.8828 15.2822C11.9785 15.1911 12.0902 15.0954 12.2178 14.9951C12.3454 14.8949 12.4821 14.7946 12.6279 14.6943C12.7738 14.5941 12.9082 14.5029 13.0312 14.4209C12.9128 14.2933 12.8193 14.1543 12.751 14.0039C12.6781 13.8535 12.6416 13.6781 12.6416 13.4775C12.6416 13.2178 12.7168 12.9238 12.8672 12.5957C13.013 12.263 13.2682 11.9007 13.6328 11.5088C13.8197 11.3037 14.0225 11.126 14.2412 10.9756C14.4645 10.8252 14.6924 10.6999 14.9248 10.5996C15.1572 10.4993 15.3851 10.4242 15.6084 10.374C15.8363 10.3239 16.0505 10.2988 16.251 10.2988C16.3649 10.2988 16.472 10.3102 16.5723 10.333C16.6771 10.3512 16.7705 10.374 16.8525 10.4014C17.2627 10.0322 17.6273 9.736 17.9463 9.5127C18.2653 9.28483 18.5387 9.10938 18.7666 8.98633C18.9945 8.85872 19.1768 8.77214 19.3135 8.72656C19.4502 8.67643 19.5413 8.64681 19.5869 8.6377C19.6963 8.61035 19.776 8.59668 19.8262 8.59668C19.89 8.59668 19.9401 8.62174 19.9766 8.67188C20.013 8.71745 20.0312 8.7653 20.0312 8.81543C20.0312 8.90202 19.9971 8.99544 19.9287 9.0957C19.8604 9.19596 19.7555 9.28483 19.6143 9.3623C19.1904 9.59473 18.7826 9.8431 18.3906 10.1074C18.0033 10.3672 17.6546 10.6133 17.3447 10.8457C17.3994 10.9368 17.4382 11.0371 17.4609 11.1465C17.4883 11.2513 17.502 11.3516 17.502 11.4473C17.502 11.7298 17.445 12.001 17.3311 12.2607C17.2171 12.5205 17.0713 12.7643 16.8936 12.9922C16.7158 13.2201 16.5199 13.432 16.3057 13.6279C16.0915 13.8193 15.8864 13.9902 15.6904 14.1406C15.3122 14.4368 14.943 14.6488 14.583 14.7764C14.2275 14.8994 13.9199 14.9609 13.6602 14.9609C13.5462 15.043 13.4118 15.1341 13.2568 15.2344C13.1064 15.3346 12.9629 15.4349 12.8262 15.5352C12.6849 15.6354 12.5641 15.7311 12.4639 15.8223C12.359 15.9089 12.2975 15.9818 12.2793 16.041C12.3887 16.041 12.5208 16.0228 12.6758 15.9863C12.8307 15.9499 12.9948 15.9111 13.168 15.8701C13.3411 15.8245 13.5212 15.7835 13.708 15.7471C13.8949 15.7106 14.0749 15.6924 14.248 15.6924C14.2845 15.6924 14.3164 15.6947 14.3438 15.6992C14.3757 15.7038 14.4098 15.7061 14.4463 15.7061C14.8154 15.7425 15.098 15.82 15.2939 15.9385C15.4945 16.057 15.6221 16.2119 15.6768 16.4033C15.7998 16.5264 15.875 16.6449 15.9023 16.7588C15.9115 16.7952 15.9183 16.8294 15.9229 16.8613C15.9274 16.8932 15.9297 16.9274 15.9297 16.9639C15.9297 17.1689 15.8682 17.3854 15.7451 17.6133C15.6221 17.8457 15.4603 18.0781 15.2598 18.3105C15.0592 18.543 14.8291 18.7663 14.5693 18.9805C14.3096 19.1992 14.0407 19.3952 13.7627 19.5684C13.4209 19.7871 13.0973 19.9671 12.792 20.1084C12.4867 20.2497 12.2018 20.3613 11.9375 20.4434C11.6686 20.5299 11.4202 20.5892 11.1924 20.6211C10.96 20.6576 10.7526 20.6758 10.5703 20.6758C10.4245 20.6758 10.3014 20.6621 10.2012 20.6348C10.1009 20.612 10.0189 20.5732 9.95508 20.5186C9.88672 20.4639 9.83203 20.3932 9.79102 20.3066C9.74544 20.2246 9.70671 20.1243 9.6748 20.0059C9.5153 19.7917 9.43555 19.5524 9.43555 19.2881C9.43555 19.124 9.46973 18.9554 9.53809 18.7822C9.60189 18.609 9.70215 18.4359 9.83887 18.2627C9.97103 18.0941 10.1396 17.93 10.3447 17.7705C10.5452 17.6156 10.7845 17.4697 11.0625 17.333C11.4818 17.1143 11.8532 16.9639 12.1768 16.8818C12.4958 16.7998 12.7669 16.7588 12.9902 16.7588C13.0404 16.7588 13.0905 16.7588 13.1406 16.7588C13.1953 16.7633 13.2751 16.777 13.3799 16.7998C13.471 16.8226 13.5348 16.8613 13.5713 16.916C13.6123 16.9707 13.6374 17.0345 13.6465 17.1074C13.6556 17.1302 13.6602 17.1507 13.6602 17.1689C13.6602 17.1872 13.6602 17.2077 13.6602 17.2305C13.6602 17.3307 13.6328 17.415 13.5781 17.4834ZM16.0596 11.167C16.1097 11.1169 16.1576 11.0713 16.2031 11.0303C16.2487 10.9847 16.2943 10.9368 16.3398 10.8867C16.194 10.8913 16.0322 10.9255 15.8545 10.9893C15.6768 11.0531 15.4922 11.1442 15.3008 11.2627C15.1094 11.3766 14.9111 11.5179 14.7061 11.6865C14.5055 11.8506 14.3073 12.042 14.1113 12.2607C13.8242 12.5706 13.6146 12.86 13.4824 13.1289C13.3503 13.3932 13.2842 13.6462 13.2842 13.8877C13.3343 13.9105 13.3844 13.9287 13.4346 13.9424C13.4893 13.9515 13.5508 13.9561 13.6191 13.9561C13.8105 13.9561 14.0452 13.8968 14.3232 13.7783C14.6058 13.6598 14.9316 13.457 15.3008 13.1699C15.5332 12.9922 15.7314 12.8213 15.8955 12.6572C16.0596 12.4886 16.1963 12.3291 16.3057 12.1787C16.415 12.0238 16.4971 11.8802 16.5518 11.748C16.611 11.6113 16.652 11.4837 16.6748 11.3652L16.3809 11.5771C16.3171 11.6273 16.2646 11.6592 16.2236 11.6729C16.1872 11.682 16.1553 11.6865 16.1279 11.6865C16.0915 11.6865 16.0618 11.6797 16.0391 11.666C16.0208 11.6523 15.9935 11.6455 15.957 11.6455C15.9434 11.6455 15.9297 11.6478 15.916 11.6523C15.9023 11.6569 15.8887 11.6592 15.875 11.6592C15.8477 11.6592 15.834 11.6455 15.834 11.6182C15.834 11.5908 15.8408 11.5566 15.8545 11.5156C15.8682 11.4746 15.8864 11.4336 15.9092 11.3926C15.932 11.347 15.9548 11.306 15.9775 11.2695C16.0049 11.2285 16.0322 11.1943 16.0596 11.167Z" fill="#333333"/>
</svg>
