<svg width="24" height="24" viewBox="0 0 24 24" fill="none" xmlns="http://www.w3.org/2000/svg">
<path d="M7.65918 7.52344H9.16309L12.4341 14.9062H13.2646V16H8.88965V14.9062H9.9834L9.49805 13.8125H6.4082L5.95361 14.9062H8.06934V16H3.69434V14.9062H4.58643L7.65918 7.52344ZM6.86279 12.7188H9.0127L8.16504 10.8047C8.05566 10.554 7.96908 10.3079 7.90527 10.0664C7.81641 10.3809 7.73438 10.627 7.65918 10.8047L6.86279 12.7188ZM18.0498 8.48047C18.0498 8.17741 18.1558 7.91992 18.3677 7.70801C18.5819 7.49382 18.8405 7.38672 19.1436 7.38672C19.2575 7.38672 19.3691 7.40381 19.4785 7.43799C19.6198 7.48128 19.7428 7.53825 19.8477 7.60889C19.9548 7.67952 20.0413 7.757 20.1074 7.84131C20.1735 7.92562 20.2271 8.0236 20.2681 8.13525C20.3091 8.24463 20.3364 8.35514 20.3501 8.4668C20.366 8.57617 20.374 8.69808 20.374 8.83252C20.374 8.97152 20.3467 9.11735 20.292 9.27002C20.2373 9.42269 20.1644 9.56738 20.0732 9.7041C19.9844 9.83854 19.8864 9.96501 19.7793 10.0835C19.6745 10.1997 19.5662 10.3022 19.4546 10.3911C19.7941 10.7261 19.9639 11.1374 19.9639 11.625C19.9639 11.9896 19.8841 12.3143 19.7246 12.5991C19.5674 12.8817 19.3498 13.1107 19.0718 13.2861C18.7938 13.4593 18.4759 13.5903 18.1182 13.6792C17.7627 13.7681 17.3753 13.8125 16.9561 13.8125C16.6097 13.8125 16.2782 13.7738 15.9614 13.6963C15.7541 13.7282 15.5946 13.784 15.4829 13.8638C15.3713 13.9435 15.3154 14.0176 15.3154 14.0859C15.3154 14.1543 15.3439 14.217 15.4009 14.2739C15.4578 14.3309 15.5205 14.3594 15.5889 14.3594H17.5029C18.4668 14.3594 19.1629 14.4972 19.5913 14.7729C20.022 15.0487 20.2373 15.5033 20.2373 16.1367C20.2373 16.4421 20.1997 16.7189 20.1245 16.9673C20.0493 17.2179 19.9468 17.431 19.8169 17.6064C19.6893 17.7842 19.5309 17.9403 19.3418 18.0747C19.1527 18.2114 18.9544 18.3208 18.7471 18.4028C18.5397 18.4849 18.3084 18.5509 18.0532 18.6011C17.798 18.6512 17.5508 18.6854 17.3115 18.7036C17.0723 18.7241 16.8171 18.7344 16.5459 18.7344C16.113 18.7344 15.721 18.6865 15.3701 18.5908C15.0215 18.4974 14.7344 18.3687 14.5088 18.2046C14.2855 18.0405 14.1134 17.8514 13.9927 17.6372C13.8719 17.4253 13.8115 17.1986 13.8115 16.957C13.8115 16.4626 14.0952 16.0763 14.6626 15.7983C14.4416 15.6867 14.2673 15.534 14.1396 15.3403C14.012 15.1444 13.9482 14.9085 13.9482 14.6328C13.9482 14.3252 14.0371 14.0461 14.2148 13.7954C14.3926 13.5448 14.6318 13.3625 14.9326 13.2485C14.666 13.0594 14.4575 12.8293 14.3071 12.5581C14.159 12.2869 14.085 11.9759 14.085 11.625C14.085 11.3333 14.1362 11.0713 14.2388 10.8389C14.3436 10.6064 14.4837 10.4139 14.6592 10.2612C14.8369 10.1063 15.0488 9.97868 15.2949 9.87842C15.5433 9.77588 15.8042 9.70296 16.0776 9.65967C16.3511 9.61637 16.6439 9.59473 16.9561 9.59473C17.6761 9.59473 18.2902 9.71322 18.7983 9.9502C18.9146 9.81576 19.0046 9.68929 19.0684 9.5708C18.7835 9.55257 18.542 9.43864 18.3438 9.229C18.1478 9.01937 18.0498 8.76986 18.0498 8.48047ZM17.0244 10.668C16.7031 10.668 16.4513 10.7603 16.269 10.9448C16.089 11.1294 15.999 11.396 15.999 11.7446C15.999 12.0955 16.0902 12.369 16.2725 12.5649C16.4548 12.7586 16.7054 12.8555 17.0244 12.8555C17.3411 12.8555 17.5907 12.7575 17.7729 12.5615C17.9575 12.3633 18.0498 12.091 18.0498 11.7446C18.0498 11.4006 17.9587 11.1351 17.7764 10.9482C17.5941 10.7614 17.3434 10.668 17.0244 10.668ZM15.9819 16C15.7199 16.1868 15.5889 16.4147 15.5889 16.6836C15.5889 16.9548 15.6732 17.1359 15.8418 17.2271C16.0104 17.3205 16.3363 17.3672 16.8193 17.3672C17.9131 17.3672 18.46 17.0938 18.46 16.5469C18.46 16.4102 18.403 16.2848 18.2891 16.1709C18.1751 16.057 18.0498 16 17.9131 16H15.9819Z" fill="#888888"/>
</svg>
