<svg width="24" height="24" viewBox="0 0 24 24" fill="none" xmlns="http://www.w3.org/2000/svg">
<path d="M3.70023 17L7.62023 7.116H9.60823L13.4862 17H11.1622L8.19423 8.796H8.99223L5.98223 17H3.70023ZM5.92623 15.208V13.416H11.3162V15.208H5.92623ZM16.974 20.052C16.2273 20.052 15.5693 19.9213 15 19.66C14.44 19.408 13.9967 19.0487 13.67 18.582L14.986 17.266C15.2287 17.5553 15.4993 17.7747 15.798 17.924C16.106 18.0733 16.4747 18.148 16.904 18.148C17.436 18.148 17.8513 18.0173 18.15 17.756C18.458 17.4947 18.612 17.126 18.612 16.65V14.914L18.976 13.43L18.654 11.946V10.196H20.754V16.594C20.754 17.294 20.5907 17.9007 20.264 18.414C19.9373 18.9273 19.4893 19.3287 18.92 19.618C18.3507 19.9073 17.702 20.052 16.974 20.052ZM16.876 16.79C16.2507 16.79 15.6953 16.6407 15.21 16.342C14.7247 16.0433 14.342 15.6373 14.062 15.124C13.782 14.6107 13.642 14.0413 13.642 13.416C13.642 12.7813 13.782 12.212 14.062 11.708C14.342 11.1947 14.7247 10.7933 15.21 10.504C15.6953 10.2053 16.2507 10.056 16.876 10.056C17.3427 10.056 17.758 10.1447 18.122 10.322C18.4953 10.49 18.794 10.7327 19.018 11.05C19.2513 11.358 19.382 11.7173 19.41 12.128V14.718C19.382 15.1193 19.2513 15.4787 19.018 15.796C18.794 16.104 18.4953 16.3467 18.122 16.524C17.7487 16.7013 17.3333 16.79 16.876 16.79ZM17.282 14.886C17.5807 14.886 17.8373 14.8207 18.052 14.69C18.276 14.5593 18.444 14.3867 18.556 14.172C18.6773 13.948 18.738 13.696 18.738 13.416C18.738 13.136 18.6773 12.884 18.556 12.66C18.444 12.436 18.276 12.2587 18.052 12.128C17.8373 11.9973 17.5807 11.932 17.282 11.932C16.9927 11.932 16.736 11.9973 16.512 12.128C16.288 12.2587 16.1153 12.436 15.994 12.66C15.8727 12.884 15.812 13.136 15.812 13.416C15.812 13.6773 15.8727 13.9247 15.994 14.158C16.1153 14.382 16.2833 14.5593 16.498 14.69C16.722 14.8207 16.9833 14.886 17.282 14.886Z" fill="#888888"/>
</svg>
