<svg width="24" height="24" viewBox="0 0 24 24" fill="none" xmlns="http://www.w3.org/2000/svg">
<path d="M4.08672 17L7.93672 7.536H8.35672L12.1787 17H11.6887L8.03472 7.928H8.24472L4.56272 17H4.08672ZM5.69672 13.878V13.472H10.5827V13.878H5.69672ZM16.1351 19.884C15.5191 19.884 14.9591 19.7673 14.4551 19.534C13.9511 19.3007 13.5451 18.9647 13.2371 18.526L13.5031 18.26C13.7551 18.624 14.1098 18.918 14.5671 19.142C15.0245 19.366 15.5518 19.478 16.1491 19.478C17.0451 19.478 17.7545 19.2307 18.2771 18.736C18.8091 18.2507 19.0751 17.5927 19.0751 16.762V15.124L19.2011 13.612L19.0751 12.142V10.56H19.5091V16.762C19.5091 17.3873 19.3691 17.9333 19.0891 18.4C18.8091 18.8667 18.4125 19.2307 17.8991 19.492C17.3951 19.7533 16.8071 19.884 16.1351 19.884ZM16.3451 17C15.7198 17 15.1598 16.86 14.6651 16.58C14.1798 16.2907 13.7925 15.8987 13.5031 15.404C13.2231 14.9093 13.0831 14.3447 13.0831 13.71C13.0831 13.0847 13.2231 12.5247 13.5031 12.03C13.7831 11.5353 14.1658 11.1433 14.6511 10.854C15.1458 10.5647 15.7011 10.42 16.3171 10.42C16.8118 10.42 17.2598 10.5133 17.6611 10.7C18.0718 10.8773 18.4125 11.134 18.6831 11.47C18.9631 11.806 19.1545 12.2073 19.2571 12.674V14.76C19.1451 15.2173 18.9491 15.614 18.6691 15.95C18.3985 16.286 18.0625 16.5473 17.6611 16.734C17.2691 16.9113 16.8305 17 16.3451 17ZM16.4011 16.594C16.9331 16.594 17.3998 16.4773 17.8011 16.244C18.2118 16.0013 18.5291 15.6653 18.7531 15.236C18.9771 14.7973 19.0891 14.2887 19.0891 13.71C19.0891 13.1407 18.9725 12.6413 18.7391 12.212C18.5151 11.7827 18.1978 11.4467 17.7871 11.204C17.3858 10.952 16.9145 10.826 16.3731 10.826C15.8225 10.826 15.3325 10.952 14.9031 11.204C14.4738 11.4467 14.1378 11.7827 13.8951 12.212C13.6525 12.6413 13.5311 13.136 13.5311 13.696C13.5311 14.256 13.6525 14.7553 13.8951 15.194C14.1471 15.6327 14.4878 15.978 14.9171 16.23C15.3465 16.4727 15.8411 16.594 16.4011 16.594Z" fill="#888888"/>
</svg>
