<svg width="24" height="24" viewBox="0 0 24 24" fill="none" xmlns="http://www.w3.org/2000/svg">
<path d="M9.83602 16.58C9.71468 16.076 9.57002 15.3247 9.40202 14.326C9.01935 14.354 8.62735 14.368 8.22602 14.368C7.83402 14.368 7.43735 14.354 7.03602 14.326C6.34535 15.9873 5.95802 16.9393 5.87402 17.182C4.64202 17.154 4.02602 16.86 4.02602 16.3C4.02602 16.16 4.08668 15.964 4.20802 15.712C4.32935 15.4507 4.57202 14.9653 4.93602 14.256C5.30002 13.5467 5.65002 12.8327 5.98602 12.114C7.06868 9.79933 7.70802 8.30133 7.90402 7.62C8.37068 7.564 8.75335 7.536 9.05202 7.536C9.82668 7.536 10.27 7.83933 10.382 8.446C10.774 10.5833 11.068 12.0673 11.264 12.898C11.6933 14.774 12.02 16.076 12.244 16.804C11.684 17.028 11.1847 17.14 10.746 17.14C10.2233 17.14 9.92002 16.9533 9.83602 16.58ZM8.85602 9.314C8.50135 10.4807 8.07202 11.7033 7.56802 12.982C7.86668 13.0007 8.17468 13.01 8.49202 13.01C8.84668 13.01 9.08935 13.0007 9.22002 12.982C9.07068 11.75 8.94935 10.5273 8.85602 9.314ZM16.4688 10.238C17.5048 10.238 18.4708 10.546 19.3668 11.162C19.0682 12.422 18.8395 13.668 18.6808 14.9C18.6528 15.0867 18.6202 15.3527 18.5828 15.698C18.5548 16.034 18.5268 16.3047 18.4988 16.51C18.4802 16.7153 18.4428 16.972 18.3868 17.28C18.3402 17.588 18.2842 17.84 18.2188 18.036C18.1628 18.232 18.0788 18.456 17.9668 18.708C17.8642 18.96 17.7428 19.1653 17.6028 19.324C17.4722 19.4827 17.3042 19.646 17.0988 19.814C16.8935 19.9913 16.6648 20.1267 16.4128 20.22C16.1702 20.3133 15.8808 20.388 15.5448 20.444C15.2088 20.5093 14.8402 20.542 14.4388 20.542C13.8508 20.542 13.3608 20.458 12.9688 20.29C12.5768 20.1313 12.3808 19.9027 12.3808 19.604C12.3808 19.3613 12.4788 19.1467 12.6748 18.96C12.8708 18.7827 13.0715 18.652 13.2768 18.568C13.5382 19.044 13.9722 19.282 14.5788 19.282C15.7735 19.282 16.4175 18.148 16.5108 15.88C16.2402 16.3187 15.9322 16.6407 15.5868 16.846C15.2415 17.042 14.9148 17.14 14.6068 17.14C14.0188 17.14 13.5755 16.8973 13.2768 16.412C12.9875 15.9173 12.8428 15.32 12.8428 14.62C12.8428 13.4347 13.1882 12.408 13.8788 11.54C14.5788 10.672 15.4422 10.238 16.4688 10.238ZM15.6568 15.894C15.8155 15.894 16.0115 15.7587 16.2448 15.488C16.4782 15.208 16.6695 14.83 16.8188 14.354C16.8655 14.0927 16.9262 13.682 17.0008 13.122C17.0755 12.562 17.1315 12.184 17.1688 11.988C16.9075 11.652 16.6228 11.484 16.3148 11.484C15.9508 11.484 15.6475 11.75 15.4048 12.282C15.1715 12.814 15.0548 13.4627 15.0548 14.228C15.0548 14.7227 15.1062 15.124 15.2088 15.432C15.3208 15.74 15.4702 15.894 15.6568 15.894Z" fill="#333333"/>
</svg>
