<svg width="24" height="24" viewBox="0 0 24 24" fill="none" xmlns="http://www.w3.org/2000/svg">
<path d="M4.16356 17L9.13356 7.2H9.49756L11.0796 17H10.5616L10.0996 14.242H6.12356L4.72356 17H4.16356ZM6.31956 13.822H10.0436L9.39956 9.608C9.28756 8.992 9.20823 8.46933 9.16156 8.04C9.13356 8.11467 8.89556 8.63733 8.44756 9.608L6.31956 13.822ZM14.3826 19.534C15.3999 19.478 16.1606 19.2633 16.6646 18.89C17.1686 18.526 17.4859 17.98 17.6166 17.252L17.8686 15.824C17.2992 16.72 16.5246 17.168 15.5446 17.168C14.9006 17.168 14.3779 16.916 13.9766 16.412C13.5846 15.908 13.3886 15.194 13.3886 14.27C13.3886 12.8887 13.7152 11.778 14.3686 10.938C15.0219 10.098 15.8479 9.678 16.8466 9.678C17.3226 9.678 17.7239 9.79933 18.0506 10.042C18.3772 10.2753 18.6059 10.5553 18.7366 10.882L18.9186 9.846H19.4226L18.1206 17.322C17.8312 18.946 16.6506 19.8327 14.5786 19.982L14.3826 19.534ZM15.6426 16.664C16.5572 16.664 17.3412 16.146 17.9946 15.11L18.6106 11.554C18.4519 11.1153 18.2139 10.7793 17.8966 10.546C17.5792 10.3033 17.2152 10.182 16.8046 10.182C15.9272 10.182 15.2272 10.5507 14.7046 11.288C14.1912 12.0253 13.9346 12.9913 13.9346 14.186C13.9346 14.9607 14.0886 15.5673 14.3966 16.006C14.7139 16.4447 15.1292 16.664 15.6426 16.664Z" fill="#333333"/>
</svg>
