<svg width="24" height="24" viewBox="0 0 24 24" fill="none" xmlns="http://www.w3.org/2000/svg">
<path d="M3.43758 17L7.16858 7.2H8.89058L12.6356 17H10.6826L9.90558 14.928H6.16058L5.39758 17H3.43758ZM6.74858 13.269H9.30358L8.32358 10.644C8.29091 10.5647 8.25591 10.476 8.21858 10.378C8.18124 10.28 8.14624 10.182 8.11358 10.084C8.08091 9.98133 8.05291 9.89267 8.02958 9.818C8.00624 9.89267 7.97825 9.98133 7.94558 10.084C7.91291 10.182 7.87791 10.28 7.84058 10.378C7.80325 10.476 7.76825 10.5647 7.73558 10.644L6.74858 13.269ZM16.5213 19.982L15.5553 18.519C16.2367 18.4677 16.764 18.3907 17.1373 18.288C17.5153 18.1853 17.779 18.0383 17.9283 17.847C18.0777 17.6557 18.1523 17.406 18.1523 17.098V16.58C17.7883 16.972 17.275 17.168 16.6123 17.168C15.9917 17.168 15.4573 17.0187 15.0093 16.72C14.5613 16.4167 14.216 15.985 13.9733 15.425C13.7353 14.8603 13.6163 14.1907 13.6163 13.416C13.6163 12.66 13.74 12.002 13.9873 11.442C14.2393 10.882 14.5893 10.448 15.0373 10.14C15.49 9.832 16.0197 9.678 16.6263 9.678C16.9437 9.678 17.233 9.727 17.4943 9.825C17.7603 9.923 17.9797 10.0653 18.1523 10.252V9.846H19.8953V16.356C19.8953 16.9907 19.837 17.5273 19.7203 17.966C19.6037 18.4047 19.4123 18.764 19.1463 19.044C18.885 19.324 18.5397 19.5363 18.1103 19.681C17.681 19.8303 17.1513 19.9307 16.5213 19.982ZM16.8993 15.495C17.1467 15.495 17.3777 15.439 17.5923 15.327C17.8117 15.2103 17.9983 15.054 18.1523 14.858V11.974C18.0217 11.792 17.842 11.6427 17.6133 11.526C17.3847 11.4047 17.1537 11.344 16.9203 11.344C16.4163 11.344 16.0313 11.5213 15.7653 11.876C15.504 12.226 15.3733 12.7393 15.3733 13.416C15.3733 13.8547 15.4317 14.2303 15.5483 14.543C15.6697 14.851 15.8447 15.0867 16.0733 15.25C16.302 15.4133 16.5773 15.495 16.8993 15.495Z" fill="#888888"/>
</svg>
