<svg width="24" height="24" viewBox="0 0 24 24" fill="none" xmlns="http://www.w3.org/2000/svg">
<path d="M3.78605 17L6.99905 7.2H8.36405L11.584 17H9.99505L7.93005 10.231C7.91138 10.1657 7.88571 10.0723 7.85305 9.951C7.82038 9.825 7.78771 9.69433 7.75505 9.559C7.72238 9.42367 7.69905 9.30233 7.68505 9.195C7.66171 9.30233 7.63371 9.42367 7.60105 9.559C7.57305 9.69433 7.54271 9.825 7.51005 9.951C7.48205 10.0723 7.45871 10.1657 7.44005 10.231L5.38905 17H3.78605ZM5.71105 14.746L6.12405 13.395H9.24605L9.65905 14.746H5.71105ZM15.857 19.877L15.094 18.694C15.794 18.6473 16.3377 18.5563 16.725 18.421C17.1123 18.2857 17.383 18.1013 17.537 17.868C17.6957 17.6393 17.775 17.3547 17.775 17.014V16.426C17.565 16.6827 17.3153 16.8717 17.026 16.993C16.7413 17.1097 16.403 17.168 16.011 17.168C15.4557 17.168 14.9517 17.028 14.499 16.748C14.051 16.468 13.694 16.0503 13.428 15.495C13.162 14.9397 13.029 14.2467 13.029 13.416C13.029 12.6367 13.1573 11.9693 13.414 11.414C13.6707 10.854 14.0253 10.4247 14.478 10.126C14.9307 9.82733 15.4533 9.678 16.046 9.678C16.3353 9.678 16.5897 9.713 16.809 9.783C17.033 9.84833 17.222 9.93233 17.376 10.035C17.5347 10.1377 17.6677 10.2427 17.775 10.35V9.846H19.224V16.405C19.224 17.007 19.154 17.5203 19.014 17.945C18.8787 18.3697 18.671 18.7173 18.391 18.988C18.1157 19.2633 17.7657 19.471 17.341 19.611C16.921 19.751 16.4263 19.8397 15.857 19.877ZM16.277 15.789C16.5943 15.789 16.8813 15.7167 17.138 15.572C17.3947 15.4273 17.607 15.2197 17.775 14.949V11.848C17.6257 11.6147 17.418 11.4233 17.152 11.274C16.8907 11.12 16.599 11.043 16.277 11.043C15.689 11.043 15.2433 11.2483 14.94 11.659C14.6413 12.065 14.492 12.6507 14.492 13.416C14.492 14.1487 14.6507 14.7273 14.968 15.152C15.29 15.5767 15.7263 15.789 16.277 15.789Z" fill="#888888"/>
</svg>
