<svg width="24" height="24" viewBox="0 0 24 24" fill="none" xmlns="http://www.w3.org/2000/svg">
<path d="M10.6765 17L9.72452 14.242H5.63652L4.68452 17H4.13852L7.49852 7.2H7.86252L11.2225 17H10.6765ZM9.59852 13.822L8.17052 9.65C8.16118 9.622 8.11918 9.496 8.04452 9.272C7.96985 9.03867 7.89518 8.81467 7.82052 8.6C7.75518 8.376 7.70852 8.20333 7.68052 8.082C7.65252 8.20333 7.60118 8.38067 7.52652 8.614C7.45185 8.838 7.37718 9.062 7.30252 9.286C7.22785 9.50067 7.18585 9.622 7.17652 9.65L5.76252 13.822H9.59852ZM15.1982 19.982L14.9322 19.534C15.9682 19.478 16.7102 19.2633 17.1582 18.89C17.6062 18.526 17.8302 17.9847 17.8302 17.266V15.824C17.3915 16.72 16.6775 17.168 15.6882 17.168C14.9135 17.168 14.2602 16.8413 13.7282 16.188C13.2055 15.5347 12.9442 14.6107 12.9442 13.416C12.9442 12.2587 13.2009 11.3487 13.7142 10.686C14.2275 10.014 14.9042 9.678 15.7442 9.678C16.2389 9.678 16.6682 9.79933 17.0322 10.042C17.3962 10.2753 17.6622 10.5553 17.8302 10.882V9.846H18.3342V17.322C18.3342 17.8073 18.2455 18.2227 18.0682 18.568C17.9002 18.9227 17.6575 19.1933 17.3402 19.38C17.0229 19.5667 16.6915 19.7067 16.3462 19.8C16.0102 19.8933 15.6275 19.954 15.1982 19.982ZM15.7022 16.664C16.1595 16.664 16.5749 16.5193 16.9482 16.23C17.3309 15.9313 17.6249 15.5627 17.8302 15.124V11.554C17.5969 11.1153 17.2935 10.7793 16.9202 10.546C16.5469 10.3033 16.1549 10.182 15.7442 10.182C15.0162 10.182 14.4562 10.462 14.0642 11.022C13.6815 11.582 13.4902 12.38 13.4902 13.416C13.4902 14.4147 13.7002 15.208 14.1202 15.796C14.5495 16.3747 15.0769 16.664 15.7022 16.664Z" fill="#333333"/>
</svg>
