<svg width="24" height="24" viewBox="0 0 24 24" fill="none" xmlns="http://www.w3.org/2000/svg">
<path d="M4.05905 17L7.29305 7.2H8.04905L11.311 17H10.317L7.95105 9.678C7.93705 9.63133 7.90905 9.54967 7.86705 9.433C7.82971 9.31167 7.79005 9.19033 7.74805 9.069C7.71071 8.94767 7.68505 8.85667 7.67105 8.796C7.65705 8.85667 7.63138 8.94767 7.59405 9.069C7.55671 9.19033 7.51938 9.30933 7.48205 9.426C7.44938 9.54267 7.42371 9.62667 7.40505 9.678L5.08105 17H4.05905ZM5.54305 14.466L5.83705 13.598H9.51905L9.81305 14.466H5.54305ZM15.738 19.982L15.29 19.212C16.0647 19.17 16.655 19.058 17.061 18.876C17.467 18.694 17.7447 18.463 17.894 18.183C18.0433 17.9077 18.118 17.6067 18.118 17.28V16.188C17.9173 16.4867 17.6583 16.7247 17.341 16.902C17.0283 17.0793 16.6013 17.168 16.06 17.168C15.528 17.168 15.031 17.028 14.569 16.748C14.1117 16.468 13.7407 16.0503 13.456 15.495C13.176 14.9397 13.036 14.2467 13.036 13.416C13.036 12.632 13.1667 11.9623 13.428 11.407C13.694 10.847 14.058 10.42 14.52 10.126C14.982 9.82733 15.514 9.678 16.116 9.678C16.5127 9.678 16.844 9.72933 17.11 9.832C17.3807 9.93 17.5953 10.0467 17.754 10.182C17.9173 10.3127 18.0387 10.4247 18.118 10.518V9.846H19.098V16.888C19.098 17.476 19.0047 17.966 18.818 18.358C18.636 18.75 18.3863 19.0603 18.069 19.289C17.7563 19.5223 17.3993 19.6903 16.998 19.793C16.5967 19.9003 16.1767 19.9633 15.738 19.982ZM16.284 16.286C16.6293 16.286 16.9723 16.181 17.313 15.971C17.6537 15.7563 17.922 15.4647 18.118 15.096V11.652C17.9173 11.2927 17.6373 11.022 17.278 10.84C16.9233 10.6533 16.592 10.56 16.284 10.56C15.542 10.56 14.9843 10.8073 14.611 11.302C14.2423 11.792 14.058 12.4967 14.058 13.416C14.058 14.3307 14.2703 15.0377 14.695 15.537C15.1197 16.0363 15.6493 16.286 16.284 16.286Z" fill="#888888"/>
</svg>
