<svg width="24" height="24" viewBox="0 0 24 24" fill="none" xmlns="http://www.w3.org/2000/svg">
<path d="M3.87935 17L8.94735 7.2H9.99735L11.6494 17H10.4454L10.0534 14.592H6.38535L5.15335 17H3.87935ZM6.93135 13.514H9.88535L9.29735 9.888C9.28802 9.82267 9.26469 9.68267 9.22735 9.468C9.19935 9.244 9.18069 9.09933 9.17135 9.034C9.04069 9.342 8.91002 9.622 8.77935 9.874L6.93135 13.514ZM14.4728 18.988C15.1541 18.9507 15.7094 18.8433 16.1388 18.666C16.5681 18.4887 16.8714 18.2787 17.0488 18.036C17.2354 17.8027 17.3661 17.5133 17.4408 17.168L17.5808 16.356C17.1141 16.8973 16.5028 17.168 15.7468 17.168C15.0281 17.168 14.4588 16.8973 14.0388 16.356C13.6188 15.8053 13.4088 15.096 13.4088 14.228C13.4088 12.8933 13.7354 11.8013 14.3888 10.952C15.0421 10.1027 15.8774 9.678 16.8948 9.678C17.6228 9.678 18.1968 9.944 18.6168 10.476L18.7288 9.846H19.9048L18.6308 16.986C18.5281 17.5647 18.3648 18.05 18.1408 18.442C17.9168 18.834 17.6274 19.1327 17.2728 19.338C16.9274 19.5433 16.5681 19.688 16.1948 19.772C15.8214 19.856 15.3734 19.912 14.8508 19.94L14.4728 18.988ZM16.0828 16.062C16.4281 16.062 16.7548 15.964 17.0628 15.768C17.3801 15.572 17.6321 15.3247 17.8188 15.026L18.3928 11.736C18.2901 11.4747 18.1081 11.2507 17.8468 11.064C17.5854 10.868 17.2774 10.77 16.9228 10.77C16.2041 10.77 15.6348 11.092 15.2148 11.736C14.8041 12.38 14.5988 13.164 14.5988 14.088C14.5988 14.6947 14.7294 15.1753 14.9908 15.53C15.2614 15.8847 15.6254 16.062 16.0828 16.062Z" fill="#333333"/>
</svg>
