<svg width="24" height="24" viewBox="0 0 24 24" fill="none" xmlns="http://www.w3.org/2000/svg">
<path d="M9.42936 13.164C9.28936 12.7813 9.14936 12.3847 9.00936 11.974C8.87869 11.554 8.73869 11.106 8.58936 10.63C8.44003 10.154 8.33736 9.82733 8.28136 9.65C7.83336 11.0593 7.42269 12.226 7.04936 13.15C7.64669 13.1687 8.10403 13.178 8.42136 13.178C8.90669 13.178 9.24269 13.1733 9.42936 13.164ZM8.12736 14.214C7.88469 14.214 7.38069 14.2047 6.61536 14.186C6.00869 15.7447 5.63536 16.7807 5.49536 17.294C4.66469 17.2007 4.24936 17.0093 4.24936 16.72C4.24936 16.5893 4.44536 16.062 4.83736 15.138C5.23869 14.2047 5.72403 13.0193 6.29336 11.582C6.86269 10.1447 7.31069 8.87067 7.63736 7.76C7.82403 7.732 8.06669 7.718 8.36536 7.718C8.60803 7.718 8.79469 7.76933 8.92536 7.872C9.06536 7.96533 9.18669 8.16133 9.28936 8.46C10.008 10.7 10.5307 12.24 10.8574 13.08C11.5574 14.9 12.0847 16.16 12.4394 16.86C12.0847 17.0467 11.786 17.14 11.5434 17.14C11.1514 17.14 10.8807 17.014 10.7314 16.762C10.6194 16.4727 10.4607 16.048 10.2554 15.488C10.0594 14.9187 9.90536 14.4847 9.79336 14.186C8.87869 14.2047 8.32336 14.214 8.12736 14.214ZM15.7748 15.362C15.5321 15.362 15.2848 15.3387 15.0328 15.292C14.7154 15.628 14.5568 15.9127 14.5568 16.146C14.5568 16.3327 14.8368 16.426 15.3968 16.426H16.9928C18.4208 16.426 19.1348 16.958 19.1348 18.022C19.1348 18.7593 18.7754 19.3567 18.0568 19.814C17.3381 20.2713 16.4701 20.5 15.4528 20.5C14.5194 20.5 13.8148 20.3367 13.3388 20.01C12.8721 19.6927 12.6388 19.3007 12.6388 18.834C12.6388 18.302 12.9748 17.8073 13.6468 17.35C13.3108 17.154 13.1427 16.9253 13.1427 16.664C13.1427 16.4867 13.2314 16.244 13.4088 15.936C13.5861 15.628 13.8241 15.3433 14.1228 15.082C13.6841 14.8953 13.3481 14.6013 13.1148 14.2C12.8814 13.7987 12.7648 13.3273 12.7648 12.786C12.7648 12.0487 13.0354 11.4327 13.5768 10.938C14.1181 10.4433 14.8041 10.196 15.6348 10.196C16.3628 10.196 16.9694 10.364 17.4548 10.7C17.8468 10.2053 18.2808 9.958 18.7568 9.958C19.2981 9.958 19.5688 10.2007 19.5688 10.686C19.5688 10.826 19.5408 10.9847 19.4848 11.162C19.2794 11.1153 19.1068 11.092 18.9668 11.092C18.6774 11.092 18.3788 11.1573 18.0708 11.288C18.3508 11.7453 18.4908 12.2447 18.4908 12.786C18.4908 13.57 18.2248 14.1953 17.6928 14.662C17.1608 15.1287 16.5214 15.362 15.7748 15.362ZM16.9648 12.898C16.9648 12.422 16.8434 12.0253 16.6008 11.708C16.3581 11.3813 16.0314 11.218 15.6208 11.218C14.7248 11.218 14.2767 11.7033 14.2767 12.674C14.2767 13.15 14.3934 13.5467 14.6268 13.864C14.8694 14.172 15.2008 14.326 15.6208 14.326C16.1061 14.326 16.4514 14.2093 16.6568 13.976C16.8621 13.7427 16.9648 13.3833 16.9648 12.898ZM16.9088 17.588H15.5368C15.0514 17.588 14.6968 17.5693 14.4728 17.532C14.1741 17.9427 14.0248 18.2927 14.0248 18.582C14.0248 19.0673 14.5334 19.31 15.5508 19.31C16.3068 19.31 16.8808 19.2027 17.2728 18.988C17.6648 18.7733 17.8608 18.512 17.8608 18.204C17.8608 17.9707 17.7814 17.8073 17.6228 17.714C17.4641 17.63 17.2261 17.588 16.9088 17.588Z" fill="#888888"/>
</svg>
