<svg width="24" height="24" viewBox="0 0 24 24" fill="none" xmlns="http://www.w3.org/2000/svg">
<path d="M10.8481 17L9.95206 14.466H6.13006L5.27606 17H4.25406L7.65606 7.2H8.41206L11.8421 17H10.8481ZM9.65806 13.598L8.31406 9.678C8.16473 9.258 8.0714 8.964 8.03406 8.796L7.92206 9.16C7.85673 9.412 7.8054 9.58467 7.76806 9.678L6.42406 13.598H9.65806ZM15.9596 19.982L15.5116 19.212C16.5849 19.156 17.3223 18.96 17.7236 18.624C18.1343 18.288 18.3396 17.84 18.3396 17.28V16.188C17.9009 16.8413 17.2476 17.168 16.3796 17.168C15.5583 17.168 14.8629 16.8413 14.2936 16.188C13.7336 15.5253 13.4536 14.6013 13.4536 13.416C13.4536 12.2587 13.7289 11.3487 14.2796 10.686C14.8303 10.014 15.5489 9.678 16.4356 9.678C17.2289 9.678 17.8636 9.958 18.3396 10.518V9.846H19.3196V16.888C19.3196 18.8573 18.1996 19.8887 15.9596 19.982ZM16.6036 16.286C16.9116 16.286 17.2289 16.1787 17.5556 15.964C17.8916 15.74 18.1529 15.4507 18.3396 15.096V11.652C18.1529 11.316 17.8869 11.05 17.5416 10.854C17.2056 10.658 16.8929 10.56 16.6036 10.56C15.9036 10.56 15.3716 10.8073 15.0076 11.302C14.6529 11.7873 14.4756 12.492 14.4756 13.416C14.4756 14.312 14.6716 15.0167 15.0636 15.53C15.4649 16.034 15.9783 16.286 16.6036 16.286Z" fill="#333333"/>
</svg>
