<svg width="24" height="24" viewBox="0 0 24 24" fill="none" xmlns="http://www.w3.org/2000/svg">
<path d="M3.87705 17L7.09705 7.2H8.25905L11.493 17H10.1L7.93705 10.049C7.91838 9.98833 7.89038 9.89733 7.85305 9.776C7.82038 9.65 7.78771 9.52167 7.75505 9.391C7.72238 9.26033 7.69671 9.15067 7.67805 9.062C7.65938 9.15067 7.63371 9.26033 7.60105 9.391C7.56838 9.52167 7.53571 9.64767 7.50305 9.769C7.47505 9.89033 7.44938 9.98367 7.42605 10.049L5.28405 17H3.87705ZM5.65505 14.655L6.02605 13.465H9.33705L9.70805 14.655H5.65505ZM15.815 19.912L15.157 18.869C15.885 18.8223 16.445 18.722 16.837 18.568C17.2337 18.4187 17.5067 18.2203 17.656 17.973C17.81 17.7257 17.887 17.4363 17.887 17.105V16.349C17.6817 16.615 17.4297 16.818 17.131 16.958C16.837 17.098 16.4683 17.168 16.025 17.168C15.479 17.168 14.9797 17.028 14.527 16.748C14.0743 16.468 13.7103 16.0503 13.435 15.495C13.1643 14.9397 13.029 14.2467 13.029 13.416C13.029 12.6367 13.1573 11.9693 13.414 11.414C13.6753 10.854 14.0347 10.4247 14.492 10.126C14.9493 9.82733 15.4743 9.678 16.067 9.678C16.3937 9.678 16.676 9.71767 16.914 9.797C17.152 9.87167 17.3503 9.96733 17.509 10.084C17.6677 10.196 17.7937 10.3033 17.887 10.406V9.846H19.182V16.566C19.182 17.1633 19.105 17.6673 18.951 18.078C18.8017 18.4933 18.58 18.8293 18.286 19.086C17.9967 19.3473 17.6443 19.541 17.229 19.667C16.8137 19.7977 16.3423 19.8793 15.815 19.912ZM16.277 15.957C16.6037 15.957 16.9093 15.873 17.194 15.705C17.4833 15.537 17.7143 15.3013 17.887 14.998V11.785C17.7237 11.5097 17.495 11.2903 17.201 11.127C16.907 10.9637 16.599 10.882 16.277 10.882C15.6423 10.882 15.1617 11.1013 14.835 11.54C14.5083 11.974 14.345 12.5993 14.345 13.416C14.345 14.2093 14.5223 14.8323 14.877 15.285C15.2317 15.733 15.6983 15.957 16.277 15.957Z" fill="#888888"/>
</svg>
