<svg width="24" height="24" viewBox="0 0 24 24" fill="none" xmlns="http://www.w3.org/2000/svg">
<path d="M3.67816 17L8.83016 7.2H10.1462L11.8822 17H10.4262L10.0482 14.718H6.39416L5.20416 17H3.67816ZM7.05216 13.43H9.83816L9.27816 10.098C9.26882 10.0513 9.24549 9.92067 9.20816 9.706C9.18016 9.482 9.16149 9.33733 9.15216 9.272C9.05882 9.496 8.93282 9.76667 8.77416 10.084L7.05216 13.43ZM14.52 18.75C15.4626 18.694 16.1533 18.5213 16.592 18.232C17.0306 17.952 17.3013 17.56 17.404 17.056L17.516 16.398C17.0866 16.9113 16.5033 17.168 15.766 17.168C15.0566 17.168 14.492 16.8973 14.072 16.356C13.652 15.8147 13.442 15.1053 13.442 14.228C13.442 12.8933 13.7733 11.8013 14.436 10.952C15.108 10.1027 15.948 9.678 16.956 9.678C17.6466 9.678 18.1833 9.93467 18.566 10.448L18.678 9.846H20.078L18.818 16.86C18.7153 17.4387 18.552 17.924 18.328 18.316C18.1133 18.708 17.8286 19.0113 17.474 19.226C17.1286 19.4407 16.76 19.5947 16.368 19.688C15.9853 19.7907 15.5233 19.8607 14.982 19.898L14.52 18.75ZM16.186 15.852C16.8393 15.852 17.3666 15.558 17.768 14.97L18.328 11.834C18.2346 11.61 18.0666 11.414 17.824 11.246C17.5906 11.078 17.3106 10.994 16.984 10.994C16.3213 10.994 15.7986 11.288 15.416 11.876C15.0333 12.464 14.842 13.192 14.842 14.06C14.842 14.592 14.9586 15.026 15.192 15.362C15.4346 15.6887 15.766 15.852 16.186 15.852Z" fill="#333333"/>
</svg>
