<svg width="24" height="24" viewBox="0 0 24 24" fill="none" xmlns="http://www.w3.org/2000/svg">
<path d="M10.7999 17L10.0299 14.858H6.15194L5.38194 17H3.60394L7.25794 7.2H8.92394L12.5639 17H10.7999ZM9.49794 13.346L8.41994 10.406C8.27994 10.0513 8.1726 9.72 8.09794 9.412C8.02327 9.68267 7.91594 10.014 7.77594 10.406L6.68394 13.346H9.49794ZM16.4854 19.8L15.6174 18.484C16.5974 18.4187 17.274 18.2647 17.6474 18.022C18.03 17.7887 18.2214 17.4247 18.2214 16.93V16.524C17.8294 16.9533 17.288 17.168 16.5974 17.168C15.72 17.168 15.006 16.846 14.4554 16.202C13.914 15.5487 13.6434 14.62 13.6434 13.416C13.6434 12.2587 13.914 11.3487 14.4554 10.686C15.006 10.014 15.7247 9.678 16.6114 9.678C17.2834 9.678 17.82 9.87867 18.2214 10.28V9.846H19.8594V16.286C19.8594 17.4713 19.6027 18.33 19.0894 18.862C18.5854 19.394 17.7174 19.7067 16.4854 19.8ZM16.8774 15.6C17.4654 15.6 17.9134 15.3667 18.2214 14.9V11.932C17.8947 11.4653 17.4467 11.232 16.8774 11.232C16.364 11.232 15.9674 11.4187 15.6874 11.792C15.4167 12.1653 15.2814 12.7067 15.2814 13.416C15.2814 14.088 15.4214 14.62 15.7014 15.012C15.9814 15.404 16.3734 15.6 16.8774 15.6Z" fill="#333333"/>
</svg>
