<svg width="24" height="24" viewBox="0 0 24 24" fill="none" xmlns="http://www.w3.org/2000/svg">
<path d="M3.56763 17L8.76863 7.2H10.2526L12.0236 17H10.4276L10.0426 14.795H6.40263L5.24763 17H3.56763ZM7.12363 13.367H9.81163L9.27963 10.224C9.26563 10.1587 9.2493 10.0723 9.23063 9.965C9.21197 9.85767 9.19563 9.75033 9.18163 9.643C9.16763 9.53567 9.1583 9.45633 9.15363 9.405C9.1303 9.461 9.0953 9.54033 9.04863 9.643C9.00197 9.741 8.95297 9.84133 8.90163 9.944C8.85497 10.0467 8.81063 10.1307 8.76863 10.196L7.12363 13.367ZM15.0641 19.982L14.5461 18.715C15.1808 18.6823 15.6965 18.596 16.0931 18.456C16.4898 18.3207 16.7885 18.1363 16.9891 17.903C17.1945 17.6743 17.3251 17.4037 17.3811 17.091L17.5001 16.426C17.3275 16.6267 17.0988 16.8017 16.8141 16.951C16.5341 17.0957 16.1981 17.168 15.8061 17.168C15.3255 17.168 14.9125 17.0443 14.5671 16.797C14.2218 16.5497 13.9535 16.2043 13.7621 15.761C13.5755 15.3177 13.4821 14.8067 13.4821 14.228C13.4821 13.3227 13.6385 12.5293 13.9511 11.848C14.2638 11.1667 14.6861 10.6347 15.2181 10.252C15.7501 9.86933 16.3475 9.678 17.0101 9.678C17.3135 9.678 17.6028 9.741 17.8781 9.867C18.1581 9.993 18.3845 10.1773 18.5571 10.42L18.6621 9.846H20.1951L18.9281 16.902C18.7928 17.6767 18.5525 18.2763 18.2071 18.701C17.8618 19.1303 17.4231 19.4383 16.8911 19.625C16.3638 19.8117 15.7548 19.9307 15.0641 19.982ZM16.2751 15.712C16.5925 15.712 16.8771 15.6397 17.1291 15.495C17.3858 15.3457 17.5958 15.1567 17.7591 14.928L18.3051 11.883C18.2258 11.701 18.0788 11.5283 17.8641 11.365C17.6495 11.2017 17.3741 11.12 17.0381 11.12C16.6041 11.12 16.2355 11.253 15.9321 11.519C15.6288 11.7803 15.3978 12.1303 15.2391 12.569C15.0805 13.0077 15.0011 13.493 15.0011 14.025C15.0011 14.5057 15.1085 14.907 15.3231 15.229C15.5425 15.551 15.8598 15.712 16.2751 15.712Z" fill="#888888"/>
</svg>
