<svg width="24" height="24" viewBox="0 0 24 24" fill="none" xmlns="http://www.w3.org/2000/svg">
<path d="M3.37863 15.552L6.10863 6.34H9.74863L12.4786 15.552L12.1846 16H10.1406L9.66463 14.278H6.19263L5.71663 16H3.67263L3.37863 15.552ZM6.83662 12.08H9.02063L8.01263 8.538H7.84463L6.83662 12.08ZM13.4669 13.648V10.904C13.4669 9.336 14.2509 8.552 15.8189 8.552H19.9909V16.448C19.9909 18.016 19.2069 18.8 17.6389 18.8H15.1189L14.1389 18.072V16.77H17.4709C17.5923 16.77 17.6529 16.7093 17.6529 16.588V16H15.8189C14.2509 16 13.4669 15.216 13.4669 13.648ZM15.8049 13.788C15.8049 13.9093 15.8656 13.97 15.9869 13.97H17.6529V10.582H15.9869C15.8656 10.582 15.8049 10.6427 15.8049 10.764V13.788Z" fill="#333333"/>
</svg>
