<svg width="24" height="24" viewBox="0 0 24 24" fill="none" xmlns="http://www.w3.org/2000/svg">
<path d="M3.61854 16.664L6.60054 7.34H9.26054L12.2285 16.664L12.0185 17H10.5765L9.91854 14.872H5.92854L5.25654 17H3.84254L3.61854 16.664ZM6.40454 13.318H9.45654L8.05654 8.894H7.79054L6.40454 13.318ZM13.395 14.788V11.862C13.395 10.3873 14.1324 9.65 15.607 9.65H19.639V17.588C19.639 19.0627 18.9017 19.8 17.427 19.8H14.753L14.011 19.254V18.372H17.357C17.7864 18.372 18.001 18.1573 18.001 17.728V17H15.607C14.1324 17 13.395 16.2627 13.395 14.788ZM15.033 14.928C15.033 15.3573 15.2477 15.572 15.677 15.572H18.001V11.078H15.677C15.2477 11.078 15.033 11.2927 15.033 11.722V14.928Z" fill="#888888"/>
</svg>
