<svg width="24" height="24" viewBox="0 0 24 24" fill="none" xmlns="http://www.w3.org/2000/svg">
<path d="M3.70741 15.706L6.78741 6.34H9.06941L12.1354 15.706L11.9534 16H10.7634L10.0354 13.704H5.82141L5.09341 16H3.90341L3.70741 15.706ZM6.22741 12.416H9.62941L8.07541 7.628H7.78141L6.22741 12.416ZM13.3622 13.844V10.834C13.3622 9.406 14.0808 8.692 15.5182 8.692H19.4942V16.644C19.4942 18.0813 18.7755 18.8 17.3382 18.8H14.5942L13.9502 18.324V17.61H17.3102C17.8515 17.61 18.1222 17.3347 18.1222 16.784V16H15.5182C14.0808 16 13.3622 15.2813 13.3622 13.844ZM14.7342 13.984C14.7342 14.5347 15.0048 14.81 15.5462 14.81H18.1222V9.882H15.5462C15.0048 9.882 14.7342 10.1527 14.7342 10.694V13.984Z" fill="#333333"/>
</svg>
