<svg width="24" height="24" viewBox="0 0 24 24" fill="none" xmlns="http://www.w3.org/2000/svg">
<path d="M3.3718 16.776L6.6338 7.34H8.2298L11.4778 16.776L11.3378 17H10.5678L9.7138 14.424H5.1358L4.2818 17H3.5258L3.3718 16.776ZM5.4438 13.584H9.4198L7.6138 8.194H7.2498L5.4438 13.584ZM12.8098 14.942V11.806C12.8098 10.434 13.4958 9.748 14.8678 9.748H18.7458V17.742C18.7458 19.114 18.0598 19.8 16.6878 19.8H13.8318L13.3558 19.436V19.03H16.7158C17.4811 19.03 17.8638 18.6473 17.8638 17.882V17H14.8678C13.4958 17 12.8098 16.314 12.8098 14.942ZM13.6918 15.082C13.6918 15.8473 14.0744 16.23 14.8398 16.23H17.8638V10.532H14.8398C14.0744 10.532 13.6918 10.91 13.6918 11.666V15.082Z" fill="#888888"/>
</svg>
