<svg width="24" height="24" viewBox="0 0 24 24" fill="none" xmlns="http://www.w3.org/2000/svg">
<path d="M3.16699 18L7.13867 7.82812H7.97949L11.8076 18H10.9053L9.60645 14.5479H5.38867L4.03516 18H3.16699ZM5.72363 13.9053H9.29199C8.2666 10.9613 7.68555 9.22949 7.54883 8.70996C7.49414 8.91048 7.31413 9.44368 7.00879 10.3096C6.70345 11.1755 6.41178 11.9912 6.13379 12.7568L5.72363 13.9053ZM14.0088 21.4795L13.9062 20.7207H15.4922C15.8431 20.7207 16.153 20.6888 16.4219 20.625C16.6908 20.5658 16.9163 20.486 17.0986 20.3857C17.2855 20.29 17.4427 20.1533 17.5703 19.9756C17.7025 19.8024 17.805 19.6292 17.8779 19.4561C17.9508 19.2829 18.0055 19.0573 18.042 18.7793C18.083 18.5059 18.1081 18.2529 18.1172 18.0205C18.1263 17.7926 18.1309 17.5033 18.1309 17.1523C18.1309 17.2025 18.1263 17.1911 18.1172 17.1182C18.0944 16.8037 18.083 16.6465 18.083 16.6465C17.7959 17.0794 17.4564 17.4144 17.0645 17.6514C16.6725 17.8838 16.194 18 15.6289 18C15.1823 18 14.7744 17.9202 14.4053 17.7607C14.0407 17.6012 13.7399 17.3939 13.5029 17.1387C13.2705 16.8835 13.0745 16.5918 12.915 16.2637C12.7555 15.9355 12.6416 15.6097 12.5732 15.2861C12.5049 14.958 12.4707 14.6344 12.4707 14.3154C12.4707 13.9144 12.5026 13.5339 12.5664 13.1738C12.6348 12.8092 12.751 12.4538 12.915 12.1074C13.0791 11.7611 13.2842 11.4626 13.5303 11.2119C13.7764 10.9567 14.0931 10.7539 14.4805 10.6035C14.8678 10.4486 15.3053 10.3711 15.793 10.3711C16.2715 10.3711 16.693 10.4668 17.0576 10.6582C17.4268 10.8451 17.7686 11.1458 18.083 11.5605L18.165 10.5078H18.917V17.4531C18.917 17.7539 18.9124 17.9954 18.9033 18.1777C18.8988 18.3646 18.8714 18.6152 18.8213 18.9297C18.7757 19.2487 18.7096 19.5085 18.623 19.709C18.541 19.9141 18.4134 20.1396 18.2402 20.3857C18.0671 20.6318 17.8574 20.8255 17.6113 20.9668C17.3698 21.1081 17.0576 21.2288 16.6748 21.3291C16.2965 21.4294 15.8659 21.4795 15.3828 21.4795H14.0088ZM15.7383 17.3096C16.071 17.3096 16.3717 17.2572 16.6406 17.1523C16.9095 17.043 17.1305 16.9017 17.3037 16.7285C17.4814 16.5508 17.6296 16.3434 17.748 16.1064C17.8711 15.8695 17.9577 15.6257 18.0078 15.375C18.0579 15.1198 18.083 14.8577 18.083 14.5889V13.8096C18.083 13.4541 18.0397 13.1191 17.9531 12.8047C17.8665 12.4902 17.7321 12.2008 17.5498 11.9365C17.3721 11.6676 17.126 11.4557 16.8115 11.3008C16.4971 11.1458 16.1325 11.0684 15.7178 11.0684C15.3805 11.0684 15.0752 11.1344 14.8018 11.2666C14.5329 11.3942 14.3118 11.5651 14.1387 11.7793C13.9655 11.9935 13.8197 12.2441 13.7012 12.5312C13.5827 12.8184 13.4984 13.1123 13.4482 13.4131C13.4027 13.7093 13.3799 14.0146 13.3799 14.3291C13.3799 14.6071 13.4004 14.8783 13.4414 15.1426C13.487 15.4023 13.5645 15.6667 13.6738 15.9355C13.7878 16.2044 13.9313 16.4391 14.1045 16.6396C14.2777 16.8356 14.5033 16.9974 14.7812 17.125C15.0638 17.248 15.3828 17.3096 15.7383 17.3096Z" fill="#333333"/>
</svg>
