<svg width="24" height="24" viewBox="0 0 24 24" fill="none" xmlns="http://www.w3.org/2000/svg">
<path d="M2.99707 18L6.68164 7.97852H8.69824L12.3281 18H10.4277L9.43652 15.1699H5.92969L4.93164 18H2.99707ZM6.39453 13.7891H8.96484C8.14453 11.1595 7.72298 9.80143 7.7002 9.71484L6.39453 13.7891ZM14.7275 21.3633L14.625 19.9141H15.5342C16.5869 19.9141 17.3229 19.7728 17.7422 19.4902C18.1615 19.2122 18.3711 18.6995 18.3711 17.9521C18.3711 17.6468 18.3574 17.3164 18.3301 16.9609C18.2116 17.125 18.0977 17.2617 17.9883 17.3711C17.8835 17.4759 17.749 17.5807 17.585 17.6855C17.4255 17.7904 17.2318 17.8701 17.0039 17.9248C16.7806 17.9749 16.5254 18 16.2383 18C15.2448 18 14.4268 17.6423 13.7842 16.9268C13.1462 16.2113 12.8271 15.2884 12.8271 14.1582C12.8271 13.5566 12.916 13.0098 13.0938 12.5176C13.2715 12.0208 13.513 11.613 13.8184 11.2939C14.1237 10.9749 14.4746 10.7311 14.8711 10.5625C15.2721 10.3893 15.6982 10.3027 16.1494 10.3027C17.1566 10.3027 17.9062 10.6696 18.3984 11.4033L18.5215 10.4873H20.1211V17.4668C20.1211 17.8405 20.1029 18.1755 20.0664 18.4717C20.0299 18.7725 19.9661 19.0596 19.875 19.333C19.7839 19.611 19.6631 19.8525 19.5127 20.0576C19.3669 20.2627 19.1823 20.4495 18.959 20.6182C18.7357 20.7868 18.4714 20.9235 18.166 21.0283C17.8652 21.1377 17.5143 21.2197 17.1133 21.2744C16.7122 21.3337 16.2611 21.3633 15.7598 21.3633H14.7275ZM16.5254 16.749C17.7604 16.749 18.3848 15.9219 18.3984 14.2676V14.0078C18.3893 13.265 18.2344 12.6908 17.9336 12.2852C17.6328 11.8796 17.193 11.6745 16.6143 11.6699C15.958 11.6699 15.4613 11.8955 15.124 12.3467C14.7868 12.7933 14.6182 13.3971 14.6182 14.1582C14.6182 14.8919 14.7868 15.5072 15.124 16.0039C15.4658 16.5007 15.9329 16.749 16.5254 16.749Z" fill="#333333"/>
</svg>
