<svg width="24" height="24" viewBox="0 0 24 24" fill="none" xmlns="http://www.w3.org/2000/svg">
<path d="M8.22388 10.336L7.20188 13.178H9.28788L8.22388 10.336ZM9.37188 7.48L12.9699 16.748L10.7019 17L9.95988 14.998H6.55788L5.82988 17H3.54788L7.15988 7.48H9.37188ZM15.9436 13.57C15.9436 14.0273 16.0509 14.424 16.2656 14.76C16.4896 15.096 16.8536 15.264 17.3576 15.264C17.5069 15.264 17.6749 15.236 17.8616 15.18C18.0576 15.124 18.2302 15.054 18.3796 14.97V12.324C18.2209 12.1933 18.0342 12.086 17.8196 12.002C17.6049 11.9087 17.4089 11.862 17.2316 11.862C16.7556 11.862 16.4196 12.0533 16.2236 12.436C16.0369 12.8093 15.9436 13.1873 15.9436 13.57ZM20.6756 10.224V17.028C20.6756 17.9613 20.3676 18.6893 19.7516 19.212C19.1356 19.7347 18.2302 19.996 17.0356 19.996C16.7462 19.996 16.3169 19.9353 15.7476 19.814C15.1782 19.6927 14.6882 19.492 14.2776 19.212C14.3896 18.9507 14.5016 18.6847 14.6136 18.414C14.7349 18.1433 14.8516 17.8727 14.9636 17.602C15.4116 17.8167 15.7849 17.9567 16.0836 18.022C16.3822 18.0967 16.6856 18.134 16.9936 18.134C17.4509 18.134 17.7962 18.0407 18.0296 17.854C18.2629 17.6767 18.3796 17.4107 18.3796 17.056V16.79C18.1462 16.8927 17.8942 16.9767 17.6236 17.042C17.3529 17.1167 17.0682 17.154 16.7696 17.154C15.7149 17.154 14.9169 16.818 14.3756 16.146C13.8436 15.4647 13.5776 14.62 13.5776 13.612C13.5776 12.5853 13.8482 11.722 14.3896 11.022C14.9309 10.322 15.7662 9.972 16.8956 9.972C17.2596 9.972 17.6376 10.0513 18.0296 10.21C18.4309 10.3593 18.7809 10.5507 19.0796 10.784L19.5136 10.224H20.6756Z" fill="#888888"/>
</svg>
