<svg width="24" height="24" viewBox="0 0 24 24" fill="none" xmlns="http://www.w3.org/2000/svg">
<path d="M8.40577 9.636L7.01977 13.332H9.81977L8.40577 9.636ZM9.11977 7.48L12.8018 16.776L11.2198 17L10.3098 14.606H6.55777L5.66177 17H4.09377L7.73377 7.48H9.11977ZM18.3848 11.89C18.1515 11.722 17.9088 11.5867 17.6568 11.484C17.4048 11.372 17.1621 11.316 16.9288 11.316C16.2568 11.316 15.7855 11.554 15.5148 12.03C15.2535 12.4967 15.1228 13.01 15.1228 13.57C15.1228 14.186 15.2488 14.718 15.5008 15.166C15.7528 15.6047 16.2288 15.824 16.9288 15.824C17.1621 15.824 17.4048 15.7727 17.6568 15.67C17.9088 15.558 18.1515 15.418 18.3848 15.25V11.89ZM19.9808 17.168C19.9808 17.952 19.7148 18.6053 19.1828 19.128C18.6508 19.66 17.8201 19.926 16.6908 19.926C16.4015 19.926 15.9955 19.8653 15.4728 19.744C14.9501 19.6227 14.5161 19.4453 14.1708 19.212C14.2548 19.0253 14.3341 18.834 14.4088 18.638C14.4928 18.4513 14.5721 18.2647 14.6468 18.078C15.0201 18.2553 15.3515 18.3953 15.6408 18.498C15.9395 18.6007 16.2755 18.652 16.6488 18.652C17.1995 18.652 17.6241 18.5213 17.9228 18.26C18.2308 17.9987 18.3848 17.63 18.3848 17.154V16.58C18.1048 16.7573 17.7968 16.8973 17.4608 17C17.1341 17.112 16.8261 17.168 16.5368 17.168C15.5475 17.168 14.7915 16.8273 14.2688 16.146C13.7555 15.4647 13.4988 14.6107 13.4988 13.584C13.4988 12.548 13.7695 11.6893 14.3108 11.008C14.8521 10.3173 15.6175 9.972 16.6068 9.972C16.9335 9.972 17.2975 10.0467 17.6988 10.196C18.1095 10.3453 18.4595 10.546 18.7488 10.798L19.1268 10.21H19.9808V17.168Z" fill="#888888"/>
</svg>
