<svg width="24" height="24" viewBox="0 0 24 24" fill="none" xmlns="http://www.w3.org/2000/svg">
<path d="M8.2947 8.404L6.4607 13.472H10.1987L8.2947 8.404ZM8.6027 7.48L12.2287 16.846L11.5287 17L10.3947 14.018H6.2647L5.1867 17H4.5007L7.9587 7.48H8.6027ZM17.9799 11.414C17.6905 11.1433 17.3685 10.9427 17.0139 10.812C16.6592 10.672 16.3419 10.602 16.0619 10.602C15.2965 10.602 14.7412 10.896 14.3959 11.484C14.0599 12.0627 13.8919 12.7627 13.8919 13.584C13.8919 14.4147 14.0599 15.1287 14.3959 15.726C14.7412 16.314 15.2965 16.608 16.0619 16.608C16.3419 16.608 16.6592 16.538 17.0139 16.398C17.3685 16.258 17.6905 16.0527 17.9799 15.782V11.414ZM18.6659 17.742C18.6659 18.414 18.4605 18.974 18.0499 19.422C17.6485 19.87 17.0045 20.094 16.1179 20.094C15.8472 20.094 15.4832 20.0427 15.0259 19.94C14.5685 19.8373 14.2092 19.6973 13.9479 19.52L14.2139 19.03C14.5312 19.17 14.8159 19.2867 15.0679 19.38C15.3199 19.4733 15.6605 19.52 16.0899 19.52C16.6592 19.52 17.1165 19.3847 17.4619 19.114C17.8072 18.8527 17.9799 18.442 17.9799 17.882V16.44C17.7092 16.664 17.4012 16.846 17.0559 16.986C16.7199 17.1167 16.3979 17.182 16.0899 17.182C15.1005 17.182 14.3679 16.8507 13.8919 16.188C13.4159 15.516 13.1779 14.662 13.1779 13.626C13.1779 12.5807 13.4159 11.722 13.8919 11.05C14.3679 10.3687 15.1005 10.028 16.0899 10.028C16.4165 10.028 16.7525 10.1073 17.0979 10.266C17.4525 10.4153 17.7699 10.6067 18.0499 10.84L18.2879 10.21H18.6659V17.742Z" fill="#888888"/>
</svg>
