<svg width="24" height="24" viewBox="0 0 24 24" fill="none" xmlns="http://www.w3.org/2000/svg">
<path d="M8.19802 9.502L6.37802 14.458H10.088L8.19802 9.502ZM8.57602 8.48L12.216 17.86L11.432 18L10.312 15.088H6.16802L5.10402 18H4.34802L7.80602 8.48H8.57602ZM16.0365 11.686C15.2712 11.686 14.7205 11.966 14.3845 12.526C14.0578 13.086 13.8945 13.7767 13.8945 14.598C13.8945 15.4287 14.0578 16.124 14.3845 16.684C14.7205 17.244 15.2712 17.524 16.0365 17.524C16.3165 17.524 16.6245 17.4587 16.9605 17.328C17.2965 17.188 17.6092 16.9827 17.8985 16.712V12.512C17.6092 12.2413 17.2965 12.036 16.9605 11.896C16.6245 11.756 16.3165 11.686 16.0365 11.686ZM16.0365 21.094C15.7658 21.094 15.4018 21.0427 14.9445 20.94C14.4872 20.8373 14.1278 20.6973 13.8665 20.52L14.1325 19.96C14.4125 20.0813 14.6785 20.1933 14.9305 20.296C15.1918 20.3987 15.5512 20.45 16.0085 20.45C16.5778 20.45 17.0352 20.3147 17.3805 20.044C17.7258 19.7827 17.8985 19.372 17.8985 18.812V17.44C17.6278 17.664 17.3198 17.846 16.9745 17.986C16.6385 18.1167 16.3165 18.182 16.0085 18.182C15.0192 18.182 14.2865 17.8507 13.8105 17.188C13.3345 16.516 13.0965 15.662 13.0965 14.626C13.0965 13.5807 13.3345 12.722 13.8105 12.05C14.2865 11.3687 15.0192 11.028 16.0085 11.028C16.3352 11.028 16.6712 11.1073 17.0165 11.266C17.3712 11.4153 17.6885 11.6067 17.9685 11.84L18.2065 11.21H18.6825V18.742C18.6825 19.414 18.4632 19.974 18.0245 20.422C17.5858 20.87 16.9232 21.094 16.0365 21.094Z" fill="#333333"/>
</svg>
