<svg width="24" height="24" viewBox="0 0 24 24" fill="none" xmlns="http://www.w3.org/2000/svg">
<path d="M8.2947 9.404L6.4607 14.472H10.1987L8.2947 9.404ZM8.6027 8.48L12.2287 17.846L11.5287 18L10.3947 15.018H6.2647L5.1867 18H4.5007L7.9587 8.48H8.6027ZM17.9799 12.414C17.6905 12.1433 17.3685 11.9427 17.0139 11.812C16.6592 11.672 16.3419 11.602 16.0619 11.602C15.2965 11.602 14.7412 11.896 14.3959 12.484C14.0599 13.0627 13.8919 13.7627 13.8919 14.584C13.8919 15.4147 14.0599 16.1287 14.3959 16.726C14.7412 17.314 15.2965 17.608 16.0619 17.608C16.3419 17.608 16.6592 17.538 17.0139 17.398C17.3685 17.258 17.6905 17.0527 17.9799 16.782V12.414ZM18.6659 18.742C18.6659 19.414 18.4605 19.974 18.0499 20.422C17.6485 20.87 17.0045 21.094 16.1179 21.094C15.8472 21.094 15.4832 21.0427 15.0259 20.94C14.5685 20.8373 14.2092 20.6973 13.9479 20.52L14.2139 20.03C14.5312 20.17 14.8159 20.2867 15.0679 20.38C15.3199 20.4733 15.6605 20.52 16.0899 20.52C16.6592 20.52 17.1165 20.3847 17.4619 20.114C17.8072 19.8527 17.9799 19.442 17.9799 18.882V17.44C17.7092 17.664 17.4012 17.846 17.0559 17.986C16.7199 18.1167 16.3979 18.182 16.0899 18.182C15.1005 18.182 14.3679 17.8507 13.8919 17.188C13.4159 16.516 13.1779 15.662 13.1779 14.626C13.1779 13.5807 13.4159 12.722 13.8919 12.05C14.3679 11.3687 15.1005 11.028 16.0899 11.028C16.4165 11.028 16.7525 11.1073 17.0979 11.266C17.4525 11.4153 17.7699 11.6067 18.0499 11.84L18.2879 11.21H18.6659V18.742Z" fill="#333333"/>
</svg>
