<svg width="24" height="24" viewBox="0 0 24 24" fill="none" xmlns="http://www.w3.org/2000/svg">
<path d="M11.5956 14.488C11.5956 14.488 11.6749 14.5207 11.8336 14.586C12.0016 14.6513 12.0669 14.8707 12.0296 15.244C12.0669 15.3187 12.0856 15.4027 12.0856 15.496C12.0856 15.6453 12.0249 15.7667 11.9036 15.86C11.7823 15.9533 11.6423 16 11.4836 16C11.3436 16 11.2223 15.958 11.1196 15.874C11.0263 15.7807 10.9796 15.65 10.9796 15.482C10.8769 15.4633 10.7696 15.384 10.6576 15.244C10.5549 15.0947 10.5036 14.9453 10.5036 14.796C10.5036 14.7587 10.5129 14.7027 10.5316 14.628C10.4383 14.5813 10.3543 14.488 10.2796 14.348C10.2143 14.1987 10.1676 14.0447 10.1396 13.886C10.1116 13.7273 10.1023 13.6153 10.1116 13.55C9.99026 13.494 9.89226 13.3587 9.81759 13.144C9.75226 12.92 9.72893 12.7287 9.74759 12.57C9.68226 12.598 9.60293 12.612 9.50959 12.612C9.32293 12.612 9.15026 12.556 8.99159 12.444C8.87026 12.5653 8.68826 12.626 8.44559 12.626C8.22159 12.626 8.06293 12.57 7.96959 12.458C7.84826 12.5607 7.71759 12.612 7.57759 12.612C7.46559 12.612 7.37693 12.5887 7.31159 12.542C7.24626 12.5887 7.14826 12.612 7.01759 12.612C6.90559 12.612 6.79359 12.5933 6.68159 12.556C6.56959 12.5187 6.48093 12.4673 6.41559 12.402C6.40626 12.402 6.38293 12.4113 6.34559 12.43C6.40159 12.6073 6.42959 12.766 6.42959 12.906C6.42959 13.1207 6.32226 13.3073 6.10759 13.466C6.14493 13.5407 6.16359 13.6293 6.16359 13.732C6.16359 13.9373 6.09359 14.1333 5.95359 14.32C5.81359 14.5067 5.67826 14.6093 5.54759 14.628C5.58493 14.712 5.60359 14.81 5.60359 14.922C5.60359 15.174 5.51959 15.4073 5.35159 15.622C5.18359 15.8273 4.97826 15.93 4.73559 15.93C4.67026 15.93 4.61893 15.9253 4.58159 15.916C4.46026 15.916 4.36693 15.8787 4.30159 15.804C4.23626 15.7293 4.20359 15.6313 4.20359 15.51C4.20359 15.426 4.22693 15.328 4.27359 15.216C4.26426 15.1787 4.25959 15.1227 4.25959 15.048C4.25959 14.8613 4.35293 14.698 4.53959 14.558C4.53026 14.53 4.52559 14.488 4.52559 14.432C4.52559 14.292 4.55826 14.152 4.62359 14.012C4.69826 13.8627 4.79159 13.7647 4.90359 13.718C4.89426 13.6993 4.88959 13.6573 4.88959 13.592C4.88959 13.4333 4.92693 13.2513 5.00159 13.046C5.07626 12.8313 5.16026 12.71 5.25359 12.682C5.23493 12.2713 5.37026 11.856 5.65959 11.436C5.65959 11.2213 5.69226 11.0207 5.75759 10.834C5.82293 10.638 5.93959 10.498 6.10759 10.414C6.11693 10.2367 6.15893 10.0593 6.23359 9.882C6.30826 9.70467 6.39226 9.55533 6.48559 9.434C6.45759 9.33133 6.44359 9.238 6.44359 9.154C6.44359 9.02333 6.46693 8.92067 6.51359 8.846C6.56959 8.762 6.63026 8.71067 6.69559 8.692C6.68626 8.65467 6.68159 8.59867 6.68159 8.524C6.68159 8.31867 6.75626 8.15533 6.90559 8.034L6.89159 7.95C6.89159 7.81 6.94759 7.684 7.05959 7.572C7.05026 7.53467 7.04559 7.48333 7.04559 7.418C7.04559 7.25 7.08759 7.082 7.17159 6.914C7.25559 6.746 7.34893 6.634 7.45159 6.578C7.61959 6.34467 7.79693 6.228 7.98359 6.228C8.06759 6.228 8.17493 6.256 8.30559 6.312C8.57626 6.32133 8.77226 6.53133 8.89359 6.942C8.97759 7.04467 9.03826 7.166 9.07559 7.306C9.11293 7.43667 9.12693 7.558 9.11759 7.67C9.20159 7.726 9.26226 7.80067 9.29959 7.894C9.34626 7.98733 9.36493 8.08533 9.35559 8.188C9.44893 8.272 9.52826 8.40267 9.59359 8.58C9.66826 8.75733 9.70559 8.92533 9.70559 9.084C9.70559 9.15867 9.70093 9.21 9.69159 9.238C9.75693 9.30333 9.81293 9.39667 9.85959 9.518C9.91559 9.63933 9.94359 9.75133 9.94359 9.854C9.94359 9.91 9.93893 9.952 9.92959 9.98C10.0509 10.064 10.1489 10.1947 10.2236 10.372C10.3076 10.5493 10.3636 10.7267 10.3916 10.904C10.4289 11.072 10.4383 11.1887 10.4196 11.254C10.4383 11.282 10.4896 11.352 10.5736 11.464C10.6576 11.5667 10.7229 11.674 10.7696 11.786C10.8163 11.8887 10.8396 11.9867 10.8396 12.08C10.8396 12.164 10.8303 12.2247 10.8116 12.262C10.8489 12.3087 10.8909 12.3647 10.9376 12.43C10.9843 12.486 11.0216 12.5373 11.0496 12.584C11.0776 12.6307 11.0916 12.6867 11.0916 12.752C11.0916 12.8173 11.0869 12.864 11.0776 12.892C11.1523 12.9667 11.2176 13.0647 11.2736 13.186C11.3296 13.3073 11.3576 13.424 11.3576 13.536C11.3576 13.6293 11.3389 13.6993 11.3016 13.746C11.4043 13.8207 11.4836 13.928 11.5396 14.068C11.5956 14.208 11.6143 14.348 11.5956 14.488ZM9.01959 11.45C9.03826 11.394 9.08026 11.3613 9.14559 11.352C9.21093 11.3333 9.26693 11.338 9.31359 11.366C9.29493 11.31 9.28559 11.268 9.28559 11.24C9.28559 11.1653 9.30426 11.1093 9.34159 11.072C9.25759 11.0067 9.18759 10.9227 9.13159 10.82C9.08493 10.7173 9.06626 10.6147 9.07559 10.512C9.01026 10.4933 8.94959 10.4467 8.89359 10.372C8.84693 10.288 8.82359 10.1993 8.82359 10.106C8.82359 10.078 8.83293 10.0267 8.85159 9.952C8.65559 9.83067 8.55759 9.64867 8.55759 9.406C8.55759 9.31267 8.57159 9.20533 8.59959 9.084C8.59026 9.07467 8.56693 9.056 8.52959 9.028C8.49226 8.99067 8.47826 8.93467 8.48759 8.86C8.30093 8.804 8.21226 8.65467 8.22159 8.412C8.14693 8.37467 8.08626 8.30467 8.03959 8.202C8.05826 8.41667 7.97426 8.58467 7.78759 8.706C7.79693 8.80867 7.77826 8.92533 7.73159 9.056C7.68493 9.18667 7.62893 9.28467 7.56359 9.35C7.57293 9.38733 7.57759 9.448 7.57759 9.532C7.57759 9.74667 7.48893 10.0313 7.31159 10.386C7.26493 10.4887 7.22759 10.582 7.19959 10.666C7.16226 10.7593 7.12026 10.8527 7.07359 10.946C7.03626 11.0393 6.98493 11.1093 6.91959 11.156C6.91959 11.2493 6.90093 11.3333 6.86359 11.408L6.97559 11.394C7.06893 11.394 7.13893 11.4173 7.18559 11.464C7.21359 11.4173 7.26959 11.394 7.35359 11.394C7.40959 11.394 7.45159 11.408 7.47959 11.436C7.59159 11.352 7.73159 11.31 7.89959 11.31C8.02093 11.31 8.13293 11.3287 8.23559 11.366C8.33826 11.4033 8.42226 11.4547 8.48759 11.52C8.58093 11.4173 8.67893 11.366 8.78159 11.366C8.84693 11.366 8.92626 11.394 9.01959 11.45ZM17.1314 17.344C17.1127 17.2693 17.1361 17.1807 17.2014 17.078C17.2667 16.9753 17.3321 16.9193 17.3974 16.91C17.3787 16.8353 17.3694 16.7653 17.3694 16.7C17.3694 16.5787 17.3881 16.462 17.4254 16.35C17.4721 16.2473 17.5327 16.168 17.6074 16.112C17.5981 16.0747 17.5934 16.0233 17.5934 15.958C17.5934 15.8367 17.6167 15.7247 17.6634 15.622C17.7101 15.51 17.7614 15.4353 17.8174 15.398C17.2574 15.678 16.9074 15.7853 16.7674 15.72C16.5247 15.776 16.3287 15.804 16.1794 15.804C15.9834 15.804 15.8481 15.7713 15.7734 15.706C15.6894 15.7527 15.5774 15.776 15.4374 15.776C15.2507 15.776 15.0687 15.734 14.8914 15.65C14.7234 15.5567 14.6067 15.44 14.5414 15.3C14.2894 15.2813 14.0561 15.1507 13.8414 14.908C13.6267 14.656 13.5101 14.3667 13.4914 14.04C13.3234 13.984 13.1927 13.858 13.0994 13.662C13.0154 13.4567 12.9734 13.2327 12.9734 12.99C12.9734 12.7193 13.0247 12.5187 13.1274 12.388C13.0621 12.3413 13.0061 12.234 12.9594 12.066C12.9221 11.8887 12.9034 11.702 12.9034 11.506C12.9034 11.0767 13.0107 10.7873 13.2254 10.638C13.1974 10.5913 13.2021 10.498 13.2394 10.358C13.2767 10.2087 13.3374 10.064 13.4214 9.924C13.5054 9.784 13.5894 9.69533 13.6734 9.658C13.6641 9.574 13.6967 9.48067 13.7714 9.378C13.8461 9.27533 13.9347 9.196 14.0374 9.14C14.1401 9.084 14.2194 9.06533 14.2754 9.084C14.3127 8.92533 14.3921 8.81333 14.5134 8.748C14.6441 8.68267 14.7981 8.63133 14.9754 8.594C15.0221 8.454 15.1247 8.35133 15.2834 8.286C15.4514 8.21133 15.6427 8.174 15.8574 8.174C16.0721 8.174 16.2727 8.20667 16.4594 8.272C16.6554 8.328 16.8001 8.40267 16.8934 8.496C16.9867 8.42133 17.1267 8.384 17.3134 8.384C17.6027 8.384 17.7801 8.50067 17.8454 8.734C17.9201 8.706 17.9947 8.692 18.0694 8.692C18.2281 8.692 18.3681 8.75267 18.4894 8.874C18.6107 8.986 18.6714 9.12133 18.6714 9.28C18.6714 9.364 18.6621 9.42467 18.6434 9.462C18.7367 9.59267 18.8067 9.714 18.8534 9.826C18.9094 9.938 18.9281 10.05 18.9094 10.162C18.9374 10.246 18.9514 10.3207 18.9514 10.386C18.9514 10.5353 18.9141 10.6473 18.8394 10.722C18.8487 10.75 18.8534 10.7873 18.8534 10.834C18.8534 10.9367 18.8161 11.0487 18.7414 11.17C18.8067 11.2633 18.8394 11.366 18.8394 11.478C18.8394 11.59 18.8067 11.6927 18.7414 11.786C18.7601 11.954 18.7694 12.066 18.7694 12.122C18.7974 12.3553 18.8114 12.514 18.8114 12.598C18.8114 12.6447 18.8021 12.7053 18.7834 12.78C18.8581 12.8827 18.8954 13.032 18.8954 13.228C18.8954 13.424 18.8627 13.5733 18.7974 13.676C18.9374 13.9373 19.0074 14.138 19.0074 14.278C19.0074 14.39 18.9747 14.4927 18.9094 14.586C18.9467 14.6513 18.9654 14.726 18.9654 14.81C18.9654 14.9033 18.9374 15.006 18.8814 15.118C18.9374 15.202 18.9654 15.3327 18.9654 15.51C18.9654 15.706 18.9187 15.8787 18.8254 16.028C18.8721 16.0373 18.8814 16.0933 18.8534 16.196C18.8254 16.308 18.7787 16.4153 18.7134 16.518C18.7601 16.6113 18.7834 16.6953 18.7834 16.77C18.7834 16.882 18.7507 16.9893 18.6854 17.092C18.6201 17.204 18.5361 17.2833 18.4334 17.33C18.3121 17.6753 18.1394 17.876 17.9154 17.932C17.9247 18.044 17.8827 18.1513 17.7894 18.254C17.6961 18.366 17.5981 18.4313 17.4954 18.45C17.4487 18.6553 17.2714 18.758 16.9634 18.758C16.8981 18.842 16.7907 18.9073 16.6414 18.954C16.5014 19.0007 16.3427 19.024 16.1654 19.024C15.8201 19.024 15.5587 18.9353 15.3814 18.758C15.2601 18.7487 15.1434 18.702 15.0314 18.618C14.9194 18.5433 14.8354 18.45 14.7794 18.338C14.6394 18.3287 14.5181 18.2727 14.4154 18.17C14.3221 18.0673 14.2707 17.946 14.2614 17.806C14.1867 17.6847 14.1494 17.5773 14.1494 17.484C14.1494 17.3253 14.2147 17.19 14.3454 17.078C14.4761 16.9753 14.6254 16.924 14.7934 16.924C14.9054 16.924 15.0034 16.952 15.0874 17.008C15.1807 17.0733 15.2507 17.1667 15.2974 17.288C15.4934 17.3347 15.6241 17.442 15.6894 17.61C15.8481 17.6287 15.9741 17.6847 16.0674 17.778C16.0954 17.7313 16.1561 17.694 16.2494 17.666C16.3427 17.6473 16.4407 17.638 16.5434 17.638C16.6461 17.638 16.7254 17.652 16.7814 17.68C16.7814 17.6053 16.8187 17.5307 16.8934 17.456C16.9681 17.3907 17.0474 17.3533 17.1314 17.344ZM16.4874 14.642C16.5714 14.5393 16.6974 14.488 16.8654 14.488C17.0054 14.488 17.1034 14.5067 17.1594 14.544C17.1874 14.5067 17.2574 14.4507 17.3694 14.376C17.4907 14.292 17.6121 14.2313 17.7334 14.194C17.6214 14.082 17.5654 13.872 17.5654 13.564C17.5654 13.3587 17.5934 13.172 17.6494 13.004C17.5747 12.8547 17.5374 12.7147 17.5374 12.584C17.5374 12.4627 17.5607 12.3647 17.6074 12.29C17.5701 12.2247 17.5514 12.136 17.5514 12.024C17.5514 11.8653 17.5841 11.7253 17.6494 11.604C17.5934 11.5013 17.5654 11.3753 17.5654 11.226C17.5654 11.1607 17.5747 11.0907 17.5934 11.016C17.5094 10.904 17.4674 10.7453 17.4674 10.54C17.4674 10.4 17.4907 10.274 17.5374 10.162C17.4814 10.1247 17.4347 10.0593 17.3974 9.966C17.3601 9.86333 17.3367 9.77 17.3274 9.686C17.2154 9.69533 17.1034 9.68133 16.9914 9.644C16.8794 9.59733 16.8047 9.53667 16.7674 9.462C16.6461 9.52733 16.5247 9.56 16.4034 9.56C16.2261 9.56 16.0441 9.49467 15.8574 9.364C15.8201 9.43867 15.7221 9.52267 15.5634 9.616C15.4047 9.70933 15.2694 9.76533 15.1574 9.784C15.1481 9.87733 15.1014 9.96133 15.0174 10.036C14.9427 10.1107 14.8447 10.1667 14.7234 10.204C14.7234 10.288 14.6861 10.4 14.6114 10.54C14.5461 10.68 14.4761 10.778 14.4014 10.834L14.4154 11.044C14.4154 11.2213 14.3921 11.3847 14.3454 11.534C14.3081 11.6833 14.2427 11.772 14.1494 11.8C14.2147 11.856 14.2661 11.9447 14.3034 12.066C14.3407 12.178 14.3594 12.2993 14.3594 12.43C14.3594 12.6353 14.3267 12.7987 14.2614 12.92C14.3361 12.9573 14.4107 13.032 14.4854 13.144C14.5601 13.2467 14.5974 13.3633 14.5974 13.494C14.5974 13.5593 14.5834 13.634 14.5554 13.718C14.6021 13.746 14.6627 13.8347 14.7374 13.984C14.8121 14.1333 14.8541 14.2313 14.8634 14.278C15.0034 14.2873 15.1387 14.3153 15.2694 14.362C15.4094 14.4087 15.5074 14.4787 15.5634 14.572C15.7034 14.488 15.8387 14.446 15.9694 14.446C16.1467 14.446 16.3194 14.5113 16.4874 14.642Z" fill="#333333"/>
</svg>
