<svg width="24" height="24" viewBox="0 0 24 24" fill="none" xmlns="http://www.w3.org/2000/svg">
<path d="M11.5069 17.594C11.3576 17.93 11.0589 18.098 10.6109 18.098C10.1629 18.098 9.80361 17.9813 9.53295 17.748C9.27161 17.5147 9.05695 17.1273 8.88895 16.586C8.73028 16.0447 8.59495 15.326 8.48295 14.43H4.38095C3.90495 15.5033 3.66695 16.334 3.66695 16.922C3.66695 17.1927 3.72295 17.4167 3.83495 17.594C3.61095 17.93 3.28895 18.098 2.86895 18.098C2.44895 18.098 2.23895 17.8647 2.23895 17.398C2.23895 17.1367 2.31828 16.754 2.47695 16.25C2.64495 15.7367 3.24695 14.4067 4.28295 12.26C5.31895 10.104 5.96295 8.64333 6.21495 7.878C6.47628 7.10333 6.60695 6.604 6.60695 6.38C6.60695 6.156 6.59295 5.988 6.56495 5.876C6.87295 5.66133 7.20895 5.554 7.57295 5.554C7.93695 5.554 8.22628 5.64733 8.44095 5.834C8.66495 6.01133 8.85628 6.36133 9.01495 6.884C9.18295 7.40667 9.36961 8.79267 9.57495 11.042C9.78961 13.2913 10.0323 14.8827 10.3029 15.816C10.4989 16.5067 10.9003 17.0993 11.5069 17.594ZM7.57295 7.682C7.35828 8.186 6.91495 9.11933 6.24295 10.482C5.57095 11.8447 5.09028 12.8433 4.80095 13.478H8.38495C8.33828 12.89 8.25895 12.1247 8.14695 11.182C8.04428 10.23 7.97428 9.628 7.93695 9.376C7.82495 8.71333 7.70361 8.14867 7.57295 7.682ZM19.2941 15.886C19.2941 17.622 18.9301 18.9987 18.2021 20.016C17.4741 21.0427 16.4988 21.556 15.2761 21.556C14.9028 21.556 14.5621 21.5233 14.2541 21.458C13.9461 21.402 13.6615 21.2713 13.4001 21.066C13.1388 20.8607 13.0081 20.5667 13.0081 20.184C13.0081 19.8013 13.1761 19.4513 13.5121 19.134C14.0535 20.058 14.8235 20.52 15.8221 20.52C16.3261 20.52 16.6901 20.38 16.9141 20.1C17.0541 19.9413 17.1708 19.778 17.2641 19.61C17.3668 19.442 17.4508 19.19 17.5161 18.854C17.5908 18.518 17.6468 18.2053 17.6841 17.916C17.7308 17.6173 17.7681 17.202 17.7961 16.67C17.8335 15.914 17.8708 14.8547 17.9081 13.492C17.4228 14.8547 16.8441 15.9793 16.1721 16.866C15.5001 17.7527 14.8841 18.196 14.3241 18.196C13.7641 18.196 13.2881 17.9067 12.8961 17.328C12.5135 16.74 12.3221 15.858 12.3221 14.682C12.3221 13.1793 12.6581 11.7887 13.3301 10.51C13.6475 9.894 14.0768 9.39467 14.6181 9.012C15.1595 8.62 15.7941 8.424 16.5221 8.424C17.2501 8.424 17.8755 8.73667 18.3981 9.362C18.4728 9.06333 18.5661 8.858 18.6781 8.746C18.7995 8.62467 19.0095 8.564 19.3081 8.564C19.6068 8.564 19.8821 8.662 20.1341 8.858C19.9381 9.194 19.7281 9.64667 19.5041 10.216C19.3641 11.3827 19.2941 13.2727 19.2941 15.886ZM16.4801 9.39C15.6588 9.39 15.0055 9.866 14.5201 10.818C14.0348 11.7607 13.7921 12.932 13.7921 14.332C13.7921 15.032 13.8808 15.606 14.0581 16.054C14.2355 16.4927 14.4968 16.712 14.8421 16.712C15.1875 16.712 15.6121 16.3527 16.1161 15.634C16.6295 14.906 17.0961 14.0193 17.5161 12.974C17.9361 11.9193 18.1928 10.9673 18.2861 10.118C17.6421 9.63267 17.0401 9.39 16.4801 9.39Z" fill="#333333"/>
</svg>
