<svg width="24" height="24" viewBox="0 0 24 24" fill="none" xmlns="http://www.w3.org/2000/svg">
<path d="M1.06152 17.873C1.09342 17.8138 1.11393 17.7796 1.12305 17.7705L1.32129 17.6475C1.37142 17.611 1.46257 17.5016 1.59473 17.3193C1.6084 17.3011 1.66081 17.2578 1.75195 17.1895C1.80208 17.153 1.84538 17.1006 1.88184 17.0322C1.87728 16.9912 1.875 16.9548 1.875 16.9229C1.875 16.8271 1.93652 16.7246 2.05957 16.6152C2.23275 16.4512 2.33757 16.3418 2.37402 16.2871L2.75 15.6035C2.75456 15.599 2.79785 15.5853 2.87988 15.5625L2.90723 15.5352C2.90267 15.485 2.90039 15.4417 2.90039 15.4053C2.90039 15.3506 2.90495 15.3164 2.91406 15.3027L3.08496 15.0771L3.76172 14.0244L3.77539 13.9561C3.73893 13.9287 3.71159 13.915 3.69336 13.915C3.68424 13.915 3.65918 13.9196 3.61816 13.9287C3.59993 13.9333 3.57715 13.9355 3.5498 13.9355C3.51335 13.9355 3.47005 13.9333 3.41992 13.9287C3.39258 13.8421 3.37891 13.7783 3.37891 13.7373C3.37891 13.7145 3.40853 13.6621 3.46777 13.5801C3.50423 13.4616 3.54297 13.3704 3.58398 13.3066C3.65234 13.2109 3.70703 13.1335 3.74805 13.0742C3.83919 13.0742 3.90299 13.0811 3.93945 13.0947C4.13997 13.1631 4.24023 13.1973 4.24023 13.1973C4.24023 13.1973 4.24707 13.1927 4.26074 13.1836C4.27441 13.1335 4.28125 13.097 4.28125 13.0742C4.28125 13.0378 4.26986 12.9854 4.24707 12.917C4.3291 12.8623 4.37467 12.8236 4.38379 12.8008L4.52051 12.541C4.55241 12.4772 4.64128 12.3792 4.78711 12.2471C4.80078 12.1377 4.81445 12.0716 4.82812 12.0488C4.84635 12.026 4.93522 11.944 5.09473 11.8027C5.1084 11.7845 5.16081 11.6615 5.25195 11.4336C5.2793 11.3743 5.40462 11.1784 5.62793 10.8457L6.0791 9.9707L6.26367 9.77246C6.27279 9.69043 6.2819 9.64258 6.29102 9.62891C6.30013 9.61523 6.36393 9.52181 6.48242 9.34863C6.49154 9.33496 6.49609 9.31901 6.49609 9.30078C6.49609 9.26888 6.49154 9.23242 6.48242 9.19141C6.52344 9.15495 6.56673 9.09115 6.6123 9C6.65332 8.91341 6.69661 8.83594 6.74219 8.76758L6.87891 8.96582C6.90169 8.91113 6.91309 8.8724 6.91309 8.84961C6.91309 8.81315 6.89486 8.75846 6.8584 8.68555C6.90397 8.57617 6.93815 8.50781 6.96094 8.48047C7.04753 8.35286 7.09082 8.27767 7.09082 8.25488C7.09538 8.25033 7.09766 8.2002 7.09766 8.10449C7.09766 8.09082 7.12272 8.04069 7.17285 7.9541C7.19108 7.92676 7.23665 7.8151 7.30957 7.61914C7.31868 7.5918 7.34375 7.53027 7.38477 7.43457L7.67871 7.40723L7.65137 7.31836L7.47363 7.23633V7.12695C7.54199 7.07227 7.59212 7.01074 7.62402 6.94238L7.54883 6.87402V6.84668C7.61719 6.78288 7.68327 6.69401 7.74707 6.58008C7.80632 6.4707 7.85872 6.37956 7.9043 6.30664C7.86784 6.24284 7.84961 6.19043 7.84961 6.14941V6.10156V6.0332V5.88965L8.40332 5.50684L8.5332 5.60254C8.57878 5.51595 8.60612 5.45898 8.61523 5.43164C8.64714 5.35417 8.67904 5.31543 8.71094 5.31543C8.74284 5.31543 8.7793 5.32454 8.82031 5.34277C8.8431 5.24707 8.88867 5.17643 8.95703 5.13086C9.04818 5.0625 9.13021 5.02832 9.20312 5.02832C9.33984 5.02832 9.41504 5.19466 9.42871 5.52734C9.47884 5.74609 9.50618 5.89648 9.51074 5.97852C9.52897 6.11979 9.58822 6.2793 9.68848 6.45703C9.74772 6.69401 9.77734 6.84896 9.77734 6.92188C9.77734 6.97201 9.77734 7.02669 9.77734 7.08594L9.50391 7.22949C9.54492 7.32064 9.58366 7.3776 9.62012 7.40039C9.6429 7.40951 9.74544 7.44141 9.92773 7.49609C10.0143 7.52344 10.1055 7.65788 10.2012 7.89941C10.2695 8.06803 10.3037 8.17057 10.3037 8.20703C10.3037 8.23438 10.2764 8.29134 10.2217 8.37793C10.2946 8.45085 10.3424 8.49642 10.3652 8.51465C10.4792 8.61491 10.5407 8.67643 10.5498 8.69922L10.6318 8.91113L10.7686 9.25293C10.7822 9.28027 10.7936 9.35547 10.8027 9.47852C10.944 9.62435 11.0238 9.77474 11.042 9.92969C11.0557 10.0527 11.0625 10.1165 11.0625 10.1211L11.2129 10.3535C11.2311 10.39 11.3268 10.5814 11.5 10.9277L11.3428 11.0234C11.3701 11.11 11.4066 11.1738 11.4521 11.2148L11.5547 11.2354L11.5342 11.3857C11.999 11.8278 12.2383 12.2585 12.252 12.6777C12.2702 12.778 12.3682 12.9899 12.5459 13.3135C12.792 13.7783 12.9287 14.0495 12.9561 14.127C12.9925 14.2272 13.0426 14.3252 13.1064 14.4209L13.5303 15.3574L13.5166 15.5557C13.79 15.7015 13.9268 15.8405 13.9268 15.9727C13.9268 16.0365 13.8607 16.1003 13.7285 16.1641C13.765 16.2415 13.8014 16.2894 13.8379 16.3076C13.847 16.3167 13.8926 16.335 13.9746 16.3623C14.0384 16.3851 14.1068 16.4694 14.1797 16.6152C14.2161 16.6836 14.2754 16.8477 14.3574 17.1074C14.5534 17.4082 14.6764 17.6042 14.7266 17.6953C14.64 17.7637 14.5967 17.8366 14.5967 17.9141C14.5967 17.9414 14.599 17.9756 14.6035 18.0166C14.4486 18.085 14.3392 18.126 14.2754 18.1396C14.2526 18.1488 14.1729 18.1556 14.0361 18.1602C13.9723 18.1647 13.8128 18.2194 13.5576 18.3242C13.4391 18.0553 13.3685 17.8639 13.3457 17.75C13.3275 17.6543 13.2842 17.5518 13.2158 17.4424C13.0928 17.1051 13.0312 16.916 13.0312 16.875C13.0312 16.8431 13.0335 16.8066 13.0381 16.7656C12.9561 16.6882 12.9082 16.6198 12.8945 16.5605C12.89 16.5469 12.8854 16.4762 12.8809 16.3486C12.8717 16.2985 12.8672 16.2643 12.8672 16.2461C12.8672 16.1914 12.89 16.1162 12.9355 16.0205L12.7305 15.8359C12.7852 15.7676 12.8239 15.722 12.8467 15.6992C12.8923 15.6628 12.915 15.6309 12.915 15.6035C12.915 15.5762 12.9105 15.5443 12.9014 15.5078L12.5732 15.5352C12.4639 15.3893 12.3887 15.2731 12.3477 15.1865C12.3249 15.1318 12.2884 14.9883 12.2383 14.7559L12.1357 14.5166C12.0811 14.2249 12.04 14.0518 12.0127 13.9971C11.9352 13.833 11.8076 13.751 11.6299 13.751C11.4704 13.751 11.3815 13.9219 11.3633 14.2637C11.3268 14.2773 11.304 14.2842 11.2949 14.2842C11.2448 14.2842 11.181 14.2523 11.1035 14.1885C10.9714 14.0973 10.8346 14.0381 10.6934 14.0107C10.625 14.0016 10.5293 13.9674 10.4062 13.9082C10.2422 13.8307 10.11 13.792 10.0098 13.792C9.96875 13.792 9.84342 13.8148 9.63379 13.8604L9.43555 13.8262L9.2168 13.8467H9.03223L8.84766 13.874L8.52637 13.8809C8.38965 13.8854 8.2985 13.8877 8.25293 13.8877C8.18457 13.8923 8.15039 13.8945 8.15039 13.8945L7.72656 13.7988L7.52148 13.8398C7.37565 13.7988 7.2959 13.7783 7.28223 13.7783C7.25488 13.7783 7.14551 13.8034 6.9541 13.8535C6.81283 13.8854 6.6875 13.9059 6.57812 13.915L6.38672 13.6963C6.24089 13.7236 6.09505 13.776 5.94922 13.8535C5.93555 13.8626 5.83529 13.8809 5.64844 13.9082C5.58008 13.9173 5.54362 13.9219 5.53906 13.9219C5.48438 13.9219 5.41602 13.915 5.33398 13.9014C5.22005 13.8786 5.11979 13.8672 5.0332 13.8672C4.9694 13.8672 4.85547 13.8877 4.69141 13.9287C4.5957 13.9561 4.49544 13.9743 4.39062 13.9834C4.34049 14.0654 4.30859 14.1201 4.29492 14.1475C4.22656 14.2887 4.1377 14.4255 4.02832 14.5576C3.95085 14.6807 3.84375 14.8607 3.70703 15.0977L3.58398 15.0703C3.54753 15.1068 3.5293 15.141 3.5293 15.1729C3.5293 15.2002 3.53613 15.248 3.5498 15.3164C3.55436 15.3438 3.55892 15.3825 3.56348 15.4326C3.47689 15.5329 3.42904 15.5944 3.41992 15.6172L3.0918 16.2803C3.03255 16.376 2.96875 16.4808 2.90039 16.5947L2.83887 16.6904L2.46289 16.9297C2.44466 16.9434 2.43555 16.9684 2.43555 17.0049C2.43555 17.055 2.48796 17.1234 2.59277 17.21L2.49023 17.5312C2.38086 17.5723 2.30566 17.6087 2.26465 17.6406C2.20085 17.6862 2.13477 17.7865 2.06641 17.9414C1.93424 17.9961 1.84993 18.0371 1.81348 18.0645C1.74967 18.11 1.70182 18.1328 1.66992 18.1328C1.65625 18.1328 1.61068 18.11 1.5332 18.0645C1.51497 18.0508 1.48535 18.0439 1.44434 18.0439C1.41699 18.0439 1.38509 18.0462 1.34863 18.0508C1.26204 17.9642 1.16634 17.9049 1.06152 17.873ZM4.83496 13.1426C4.93522 13.0879 4.99674 13.0605 5.01953 13.0605C5.05143 13.0605 5.09928 13.0902 5.16309 13.1494L5.375 13.1221L5.45703 13.2656C5.55273 13.2337 5.68262 13.2178 5.84668 13.2178H6.45508C6.56901 13.2223 6.72168 13.2565 6.91309 13.3203C7.11361 13.334 7.26172 13.3499 7.35742 13.3682C7.45312 13.5094 7.56478 13.5801 7.69238 13.5801L8.12305 13.3682L8.35547 13.416H8.74512L8.89551 13.457L9.09375 13.4297L9.27832 13.4502L9.46289 13.4365L9.63379 13.4844L10.0371 13.416L10.3516 13.3955L10.96 13.334L11.4658 13.375C11.5387 13.375 11.5752 13.3477 11.5752 13.293C11.5752 13.2702 11.5547 13.1927 11.5137 13.0605C11.5046 13.0241 11.4977 12.9694 11.4932 12.8965C11.4066 12.8372 11.3428 12.7689 11.3018 12.6914C11.1423 12.3678 11.0511 12.2061 11.0283 12.2061C10.9827 12.1423 10.9486 12.0671 10.9258 11.9805C10.9076 11.903 10.8711 11.821 10.8164 11.7344C10.8392 11.6159 10.8506 11.5156 10.8506 11.4336C10.8506 11.388 10.8324 11.3128 10.7959 11.208L10.5566 11.2422C10.5065 11.1374 10.4769 11.069 10.4678 11.0371L10.4199 10.8662L10.2695 10.6543L10.0986 10.3535L10.0234 10.2236C9.99154 10.0368 9.93229 9.86816 9.8457 9.71777C9.7819 9.60384 9.75228 9.50358 9.75684 9.41699L9.89355 9.35547C9.84798 9.28255 9.79102 9.24609 9.72266 9.24609C9.69531 9.24609 9.66341 9.24837 9.62695 9.25293C9.58138 9.15723 9.54948 9.0957 9.53125 9.06836C9.42643 8.91341 9.37174 8.8291 9.36719 8.81543L9.32617 8.54883L9.22363 8.37109L9.12109 8.13184L8.89551 7.85156L8.77246 7.45508L8.65625 7.25C8.59701 7.12695 8.53092 7.01302 8.45801 6.9082C8.34408 6.97656 8.2666 7.04948 8.22559 7.12695C8.14811 7.27734 8.11165 7.41406 8.11621 7.53711H8.0752C7.99772 7.66927 7.89746 7.82194 7.77441 7.99512L7.37793 8.74707C7.30501 8.87467 7.25716 8.98405 7.23438 9.0752C7.15234 9.12533 7.09993 9.18913 7.07715 9.2666C6.99056 9.46257 6.86751 9.58789 6.70801 9.64258L6.74219 9.83398L6.63965 9.88184H6.63281C6.54622 9.87272 6.47103 9.86589 6.40723 9.86133L6.35254 9.9502L6.53027 10.0596C6.47559 10.2373 6.39583 10.4173 6.29102 10.5996C6.07682 11.0098 5.87402 11.2741 5.68262 11.3926C5.63704 11.4199 5.6097 11.4928 5.60059 11.6113C5.59603 11.6979 5.57552 11.7799 5.53906 11.8574C5.53906 11.8574 5.47754 11.9714 5.35449 12.1992L5.19727 12.3701L5.11523 12.5615C5.01042 12.7301 4.94661 12.8441 4.92383 12.9033C4.89648 12.9854 4.86686 13.0651 4.83496 13.1426ZM14.6514 18.249C14.7607 18.2308 14.8496 18.1807 14.918 18.0986C15.0137 17.9801 15.1003 17.9027 15.1777 17.8662C15.4603 17.7523 15.6494 17.6702 15.7451 17.6201C15.7952 17.6794 15.8203 17.7318 15.8203 17.7773C15.8203 17.8275 15.7998 17.873 15.7588 17.9141C15.7497 17.9277 15.6699 17.9893 15.5195 18.0986C15.4922 18.1169 15.4557 18.1624 15.4102 18.2354C15.3281 18.3584 15.2871 18.4769 15.2871 18.5908C15.2871 18.6182 15.2917 18.6615 15.3008 18.7207C15.1868 18.7708 15.1299 18.8278 15.1299 18.8916C15.1299 18.9508 15.1527 18.9896 15.1982 19.0078C15.2074 19.0124 15.2256 19.0146 15.2529 19.0146C15.2894 19.0192 15.3395 19.0329 15.4033 19.0557C15.4352 19.1605 15.515 19.2585 15.6426 19.3496C15.8158 19.4772 15.9525 19.557 16.0527 19.5889L16.1621 19.7666C16.4173 19.8304 16.5837 19.8623 16.6611 19.8623C16.693 19.8623 16.7386 19.8555 16.7979 19.8418C16.8206 19.8372 16.8411 19.835 16.8594 19.835C16.8867 19.835 16.9893 19.9421 17.167 20.1562L17.2285 20.0264C17.2467 19.9307 17.2673 19.8828 17.29 19.8828L18.2539 19.917C18.2676 19.917 18.2972 19.9079 18.3428 19.8896C18.3883 19.8714 18.4613 19.8532 18.5615 19.835C19.0127 19.7529 19.2998 19.6891 19.4229 19.6436C19.7054 19.5342 19.8604 19.4749 19.8877 19.4658C19.9333 19.4567 20.0244 19.4499 20.1611 19.4453C20.1976 19.4089 20.2386 19.3519 20.2842 19.2744C20.2979 19.2562 20.43 19.1719 20.6807 19.0215C20.7764 18.9486 20.8561 18.8962 20.9199 18.8643C20.9382 18.805 20.9723 18.7526 21.0225 18.707C21.0999 18.6432 21.1364 18.5954 21.1318 18.5635L21.0977 18.3105C21.1569 18.1647 21.1888 18.0417 21.1934 17.9414C21.1979 17.8867 21.2048 17.848 21.2139 17.8252C21.2549 17.7158 21.2754 17.652 21.2754 17.6338C21.2754 17.5882 21.2275 17.5495 21.1318 17.5176C21.0771 17.2943 21.0133 17.137 20.9404 17.0459C20.8766 16.9684 20.8447 16.9092 20.8447 16.8682C20.8447 16.8271 20.8493 16.7816 20.8584 16.7314C20.6123 16.5674 20.291 16.4557 19.8945 16.3965H19.8877C19.8285 16.3965 19.7897 16.3965 19.7715 16.3965C19.7487 16.401 19.7373 16.4033 19.7373 16.4033C19.7145 16.4033 19.6302 16.3851 19.4844 16.3486C19.4388 16.3395 19.3978 16.335 19.3613 16.335C19.2975 16.335 19.2223 16.3418 19.1357 16.3555C19.0674 16.3691 19.0081 16.376 18.958 16.376C18.9307 16.376 18.8486 16.335 18.7119 16.2529C18.7028 16.2484 18.6937 16.2461 18.6846 16.2461C18.6572 16.2461 18.5592 16.2871 18.3906 16.3691L18.2266 16.3965L17.96 16.4443L17.6045 16.082L17.3789 16.4307C17.3789 16.4307 17.3356 16.4124 17.249 16.376C17.2126 16.3577 17.1738 16.3486 17.1328 16.3486C17.0964 16.3486 17.0553 16.3509 17.0098 16.3555C16.9368 16.4603 16.8548 16.5127 16.7637 16.5127C16.7181 16.5127 16.6064 16.4899 16.4287 16.4443C16.2783 16.4079 16.1348 16.3509 15.998 16.2734C15.7884 16.1458 15.6722 16.0456 15.6494 15.9727C15.6403 15.9453 15.6266 15.8747 15.6084 15.7607C15.5719 15.6149 15.5537 15.5352 15.5537 15.5215C15.5537 15.4212 15.6243 15.3005 15.7656 15.1592C15.9206 15.0042 16.0208 14.9085 16.0664 14.8721C16.112 14.8356 16.1963 14.7855 16.3193 14.7217L16.4971 14.6123C16.6794 14.5895 16.7865 14.5713 16.8184 14.5576C16.8503 14.5439 16.9141 14.5007 17.0098 14.4277V14.4004C16.9505 14.373 16.9004 14.3594 16.8594 14.3594C16.7956 14.3594 16.7249 14.3639 16.6475 14.373C16.6019 14.3822 16.5632 14.3867 16.5312 14.3867C16.4401 14.3867 16.2988 14.3343 16.1074 14.2295C16.0618 14.2021 16.0345 14.1748 16.0254 14.1475C16.0208 14.1429 16.0026 14.0791 15.9707 13.9561C15.957 13.9014 15.9115 13.8604 15.834 13.833C15.7155 13.8011 15.6562 13.7829 15.6562 13.7783L15.5605 13.6211C15.474 13.5026 15.4307 13.4206 15.4307 13.375C15.4307 13.3659 15.4443 13.2633 15.4717 13.0674C15.4762 12.8532 15.4854 12.7301 15.499 12.6982C15.5081 12.68 15.5469 12.6208 15.6152 12.5205C15.6426 12.484 15.6562 12.443 15.6562 12.3975C15.6562 12.3519 15.6357 12.279 15.5947 12.1787C15.6768 12.1058 15.7952 11.9714 15.9502 11.7754C16.0049 11.7116 16.1188 11.6273 16.292 11.5225L16.6338 11.1943C16.6748 11.1579 16.7249 11.1351 16.7842 11.126C16.8571 11.1077 16.9004 11.0941 16.9141 11.085C16.9323 11.0758 16.9528 11.0485 16.9756 11.0029C17.0758 10.9893 17.3311 10.9255 17.7412 10.8115L17.9736 10.7842C18.1286 10.7523 18.2334 10.7363 18.2881 10.7363C18.3337 10.7363 18.4977 10.7568 18.7803 10.7979C18.9808 10.7979 19.1312 10.8024 19.2314 10.8115C19.3271 10.7158 19.4548 10.6383 19.6143 10.5791C19.6963 10.5472 19.7487 10.5312 19.7715 10.5312C19.8262 10.5312 19.9105 10.5426 20.0244 10.5654C20.1064 10.5837 20.1839 10.5928 20.2568 10.5928C20.3708 10.5928 20.5234 10.5814 20.7148 10.5586H20.7217C20.7627 10.5586 20.8424 10.6087 20.9609 10.709C21.0475 10.6953 21.0908 10.6429 21.0908 10.5518C21.0908 10.5244 21.0885 10.4925 21.084 10.4561C21.2298 10.3786 21.3779 10.3034 21.5283 10.2305C21.542 10.2259 21.5807 10.2214 21.6445 10.2168C21.6855 10.2122 21.7425 10.1986 21.8154 10.1758C21.8473 10.2168 21.8633 10.251 21.8633 10.2783C21.8633 10.4971 21.6924 10.6771 21.3506 10.8184C21.3415 10.9004 21.3255 10.9596 21.3027 10.9961C21.2799 11.028 21.223 11.0758 21.1318 11.1396C21.0316 11.2171 20.9427 11.2627 20.8652 11.2764C20.7376 11.2992 20.6442 11.3105 20.585 11.3105C20.5531 11.3105 20.5348 11.306 20.5303 11.2969L20.3115 10.9961C20.2979 10.9779 20.2819 10.9688 20.2637 10.9688C20.1771 10.9688 20.0951 11.0781 20.0176 11.2969C20.0814 11.3652 20.1247 11.4085 20.1475 11.4268C20.266 11.5316 20.3366 11.5977 20.3594 11.625C20.3776 11.6523 20.3981 11.7093 20.4209 11.7959L20.5371 11.8916V12.1035L20.5576 12.1309L20.3389 12.2402V12.3291C20.4255 12.3883 20.4688 12.443 20.4688 12.4932C20.4688 12.6117 20.3685 12.7757 20.168 12.9854L19.9971 13.1836L19.6416 13.4639L19.5391 13.6348C19.5208 13.6576 19.4616 13.7008 19.3613 13.7646L19.2383 13.8467C19.056 13.9652 18.876 14.0495 18.6982 14.0996C18.4521 14.1771 18.2995 14.2181 18.2402 14.2227C18.1309 14.2363 18.026 14.2591 17.9258 14.291C17.9303 14.3457 17.9326 14.3936 17.9326 14.4346C17.9326 14.4984 17.9053 14.5622 17.8506 14.626C17.641 14.626 17.502 14.6328 17.4336 14.6465C17.3698 14.6602 17.2262 14.7103 17.0029 14.7969C16.6839 14.8652 16.4948 14.9154 16.4355 14.9473C16.2578 15.043 16.1416 15.1501 16.0869 15.2686C16.0641 15.3141 16.0527 15.3392 16.0527 15.3438C16.0801 15.403 16.2487 15.46 16.5586 15.5146C16.6497 15.5693 16.7158 15.6423 16.7568 15.7334C16.8753 15.7015 16.9688 15.6855 17.0371 15.6855L17.4336 15.7402H17.4404C17.5179 15.7402 17.5817 15.7334 17.6318 15.7197C17.6865 15.7106 17.7161 15.7061 17.7207 15.7061C17.7617 15.7152 17.8597 15.8268 18.0146 16.041C18.0557 16.1003 18.099 16.1299 18.1445 16.1299C18.1673 16.1299 18.1878 16.1139 18.2061 16.082C18.2972 15.8906 18.3564 15.7835 18.3838 15.7607C18.557 15.6423 18.7142 15.583 18.8555 15.583L19.0947 15.6035H19.1016L19.4229 15.583C19.473 15.5876 19.5254 15.6491 19.5801 15.7676H19.6758L19.7783 15.5967C19.8512 15.5921 19.9173 15.5898 19.9766 15.5898C20.013 15.5898 20.1133 15.6058 20.2773 15.6377L20.4756 15.6514L20.6738 15.7471C20.9883 15.8473 21.1888 15.9202 21.2754 15.9658C21.2708 16.0023 21.2686 16.0342 21.2686 16.0615C21.2686 16.098 21.3141 16.1732 21.4053 16.2871L21.6309 16.2393C21.7585 16.3031 21.8337 16.3646 21.8564 16.4238C21.861 16.4375 21.8747 16.4899 21.8975 16.5811L21.9932 16.8477L22.0342 17.1348L22.0889 17.3809C22.0889 17.3854 22.0684 17.4925 22.0273 17.7021C22 17.8525 21.9408 18.028 21.8496 18.2285C21.8132 18.306 21.7334 18.4108 21.6104 18.543L21.4736 18.7891C21.4189 18.8802 21.3825 18.9372 21.3643 18.96C21.3551 18.9873 21.3187 19.0033 21.2549 19.0078C21.2048 19.0807 21.1615 19.1286 21.125 19.1514C21.1113 19.165 21.0339 19.2106 20.8926 19.2881C20.7832 19.4157 20.7012 19.4909 20.6465 19.5137C20.5508 19.5547 20.4072 19.6299 20.2158 19.7393L19.8125 19.9033L19.6211 20.0127L19.3613 20.0811L19.1357 20.1836L19.0332 20.1904L18.8281 20.2314L18.3154 20.2725C17.9645 20.3864 17.7572 20.4434 17.6934 20.4434L17.3105 20.416H17.3037C17.1807 20.416 17.1169 20.4115 17.1123 20.4023C17.1077 20.3978 17.0645 20.2975 16.9824 20.1016L16.832 20.3955L16.5449 20.1289L16.2783 20.4092L16.2578 20.3955L16.1484 20.3408C16.0299 20.2542 15.9593 20.2064 15.9365 20.1973C15.9092 20.1927 15.7975 20.1859 15.6016 20.1768C15.5195 20.1722 15.4671 20.1585 15.4443 20.1357L15.2871 20.0332L15.0889 19.9102L14.9385 19.7803C14.779 19.7074 14.6901 19.6641 14.6719 19.6504C14.6309 19.6276 14.5693 19.5319 14.4873 19.3633C14.4098 19.1992 14.3711 19.0465 14.3711 18.9053C14.3711 18.8187 14.4189 18.6729 14.5146 18.4678C14.5602 18.3675 14.6058 18.2946 14.6514 18.249ZM16.5449 13.0605C16.5358 13.1243 16.5312 13.179 16.5312 13.2246C16.5312 13.3112 16.5586 13.375 16.6133 13.416C16.6406 13.4342 16.7181 13.4548 16.8457 13.4775C17.0052 13.6279 17.0986 13.71 17.126 13.7236C17.2581 13.7965 17.4814 13.833 17.7959 13.833C17.8643 13.833 17.9759 13.8102 18.1309 13.7646L18.2949 13.7578L18.7871 13.5527C18.8145 13.5436 18.8805 13.5391 18.9854 13.5391C19.0674 13.4388 19.1927 13.3317 19.3613 13.2178C19.3978 13.1904 19.4251 13.1631 19.4434 13.1357C19.4479 13.1312 19.4684 13.0651 19.5049 12.9375C19.5641 12.7962 19.5938 12.7074 19.5938 12.6709C19.5938 12.5296 19.5846 12.3724 19.5664 12.1992C19.5527 12.0352 19.4548 11.887 19.2725 11.7549C19.1995 11.7002 19.1243 11.6113 19.0469 11.4883C19.015 11.4382 18.9694 11.4017 18.9102 11.3789C18.8874 11.3698 18.7962 11.347 18.6367 11.3105L18.5273 11.249L18.3428 11.1875L18.2812 11.167L17.96 11.2627C17.8187 11.2399 17.7367 11.2285 17.7139 11.2285C17.6546 11.2285 17.5293 11.2627 17.3379 11.3311L17.1396 11.3652C17.1077 11.3698 17.0553 11.4017 16.9824 11.4609C16.9232 11.4701 16.8776 11.4906 16.8457 11.5225C16.7682 11.5999 16.6908 11.6797 16.6133 11.7617C16.5039 11.8802 16.4378 11.9554 16.415 11.9873C16.3923 12.0192 16.3717 12.1104 16.3535 12.2607C16.3262 12.4157 16.3125 12.5684 16.3125 12.7188C16.3125 12.7917 16.3216 12.8441 16.3398 12.876C16.3717 12.9261 16.4401 12.9876 16.5449 13.0605Z" fill="#333333"/>
</svg>
