<svg width="24" height="24" viewBox="0 0 24 24" fill="none" xmlns="http://www.w3.org/2000/svg">
<path d="M15.8623 11.2607C16.5778 11.7256 16.9355 12.3044 16.9355 12.9971C16.9355 13.4118 16.8216 13.7923 16.5938 14.1387C16.3659 14.4805 16.0605 14.7152 15.6777 14.8428C15.7142 14.9704 15.7324 15.1208 15.7324 15.2939C15.7324 15.9912 15.5137 16.5518 15.0762 16.9756C14.6432 17.404 14.0736 17.6182 13.3672 17.6182C13.0254 17.6182 12.7269 17.5475 12.4717 17.4062C12.2894 17.7663 12.0137 18.0534 11.6445 18.2676C11.2754 18.4863 10.8926 18.5957 10.4961 18.5957C9.85352 18.5957 9.32715 18.4408 8.91699 18.1309C8.50684 17.821 8.24023 17.3926 8.11719 16.8457C7.84831 16.8867 7.62044 16.9072 7.43359 16.9072C6.7181 16.9072 6.13932 16.693 5.69727 16.2646C5.25977 15.8363 5.04102 15.3076 5.04102 14.6787C5.04102 14.0589 5.22559 13.5599 5.59473 13.1816C5.14355 13.0267 4.78353 12.7578 4.51465 12.375C4.24577 11.9876 4.11133 11.557 4.11133 11.083C4.11133 10.4587 4.38477 9.84798 4.93164 9.25098C5.47852 8.64941 6.14844 8.26888 6.94141 8.10938C7.26042 7.51693 7.77767 7.05436 8.49316 6.72168C9.21322 6.389 9.94238 6.22266 10.6807 6.22266C11.6423 6.22266 12.5264 6.4209 13.333 6.81738C14.1442 7.21387 14.7822 7.74707 15.2471 8.41699C15.7119 9.08691 15.9443 9.77279 15.9443 10.4746C15.9443 10.7617 15.917 11.0238 15.8623 11.2607ZM9.73047 8.22559C9.73047 8.16634 9.69173 8.11393 9.61426 8.06836C9.58691 8.10938 9.57324 8.15267 9.57324 8.19824C9.57324 8.27116 9.60059 8.30762 9.65527 8.30762C9.7054 8.30762 9.73047 8.28027 9.73047 8.22559ZM11.4941 9.2168C11.2617 9.23503 11.0794 9.32845 10.9473 9.49707C10.8151 9.66113 10.749 9.85254 10.749 10.0713C10.749 10.3857 10.8516 10.6615 11.0566 10.8984C11.1478 10.7799 11.2139 10.6204 11.2549 10.4199L11.2822 10.4746C11.2822 10.6113 11.2207 10.7663 11.0977 10.9395C11.1934 11.0579 11.3255 11.1559 11.4941 11.2334L11.5762 11.2744C11.8132 11.3792 12.0752 11.4453 12.3623 11.4727C12.6266 11.5 12.7975 11.5091 12.875 11.5C13.2259 11.4681 13.4993 11.3428 13.6953 11.124C13.8958 10.9053 13.9961 10.6296 13.9961 10.2969C13.9961 10.1966 13.987 10.0667 13.9688 9.90723C13.9232 9.50163 13.7842 9.12793 13.5518 8.78613C13.2692 8.37142 12.7861 8.04329 12.1025 7.80176L12.0273 7.77441L11.9248 7.78809C11.8701 7.78809 11.8337 7.76074 11.8154 7.70605L11.7744 7.69238C11.738 7.71061 11.7083 7.71973 11.6855 7.71973C11.6491 7.70605 11.6172 7.68783 11.5898 7.66504L11.5352 7.65137C11.5078 7.74251 11.4508 7.78809 11.3643 7.78809C11.2868 7.78809 11.2367 7.74251 11.2139 7.65137L11.1729 7.6377C11.1546 7.66504 11.1159 7.67871 11.0566 7.67871C11.0247 7.67871 10.9792 7.65592 10.9199 7.61035C10.9062 7.65592 10.8698 7.67871 10.8105 7.67871C10.7786 7.67871 10.7399 7.65592 10.6943 7.61035L10.5303 7.6582C10.0518 7.77214 9.76009 7.89518 9.65527 8.02734C9.74186 8.08203 9.78516 8.14811 9.78516 8.22559C9.78516 8.34408 9.74186 8.40332 9.65527 8.40332C9.56413 8.40332 9.51855 8.32585 9.51855 8.1709C9.51855 8.12533 9.53223 8.08203 9.55957 8.04102C9.4502 8.00456 9.35677 7.98633 9.2793 7.98633C9.01042 7.98633 8.75749 8.06836 8.52051 8.23242C8.28353 8.39648 8.14453 8.60384 8.10352 8.85449C8.0625 9.1097 8.0944 9.37174 8.19922 9.64062C8.32227 9.95508 8.55013 10.1715 8.88281 10.29L8.93066 10.3105L8.88965 10.3379C8.7985 10.3379 8.67318 10.2809 8.51367 10.167C8.35417 10.0485 8.22656 9.86849 8.13086 9.62695C8.03516 9.38542 8.00781 9.12793 8.04883 8.85449C8.08984 8.5765 8.22656 8.35319 8.45898 8.18457C8.69596 8.01595 8.95573 7.93164 9.23828 7.93164C9.38867 7.93164 9.50944 7.95443 9.60059 8C9.70996 7.88151 9.88086 7.77897 10.1133 7.69238C10.3457 7.60579 10.5189 7.5625 10.6328 7.5625L10.6807 7.56934C10.7354 7.51009 10.7809 7.48047 10.8174 7.48047L10.8926 7.53516H10.9473C10.9564 7.48958 11.002 7.4668 11.084 7.4668C11.1068 7.4668 11.1318 7.48958 11.1592 7.53516H11.2139C11.2367 7.44401 11.2868 7.39844 11.3643 7.39844C11.4508 7.39844 11.5124 7.44857 11.5488 7.54883L11.5898 7.56934C11.6263 7.52832 11.6582 7.50781 11.6855 7.50781C11.7448 7.50781 11.7881 7.54199 11.8154 7.61035L11.8701 7.6377L11.9248 7.61035C11.9658 7.61035 12.0091 7.64225 12.0547 7.70605C12.7565 7.94759 13.2692 8.27799 13.5928 8.69727C13.8024 9.02995 13.9551 9.44694 14.0508 9.94824C14.0645 9.99837 14.0713 10.0827 14.0713 10.2012C14.0713 10.5885 13.9619 10.9076 13.7432 11.1582C13.529 11.4043 13.2396 11.5365 12.875 11.5547C12.7109 11.5638 12.5355 11.5547 12.3486 11.5273C12.0296 11.4818 11.7721 11.4157 11.5762 11.3291L11.4941 11.2881C11.3346 11.2106 11.1888 11.1126 11.0566 10.9941C10.8835 11.1673 10.6921 11.2995 10.4824 11.3906C10.3548 11.4453 10.1634 11.4909 9.9082 11.5273C9.71224 11.5547 9.49805 11.5684 9.26562 11.5684C8.68685 11.5684 8.1582 11.4111 7.67969 11.0967C7.20117 10.7777 6.889 10.347 6.74316 9.80469C6.69759 9.63607 6.6748 9.43555 6.6748 9.20312C6.6748 8.83398 6.75456 8.49902 6.91406 8.19824C6.18945 8.34863 5.57194 8.7041 5.06152 9.26465C4.55111 9.8252 4.2959 10.4154 4.2959 11.0352C4.2959 11.5046 4.41895 11.9307 4.66504 12.3135C4.91113 12.6917 5.25065 12.9515 5.68359 13.0928C5.98893 12.833 6.32389 12.7031 6.68848 12.7031C7.03483 12.7031 7.20801 12.7829 7.20801 12.9424C7.20801 13.0472 7.12142 13.1292 6.94824 13.1885C6.77507 13.2477 6.54492 13.2773 6.25781 13.2773C6.05729 13.2773 5.86589 13.25 5.68359 13.1953C5.34635 13.5371 5.17773 13.9701 5.17773 14.4941C5.17773 15.2507 5.41471 15.8226 5.88867 16.21C6.36719 16.5973 6.90951 16.791 7.51562 16.791C7.72982 16.791 7.92122 16.7773 8.08984 16.75L8.07617 16.5381L8.08301 16.4355L8.14453 16.7363C8.72331 16.6224 9.16081 16.4082 9.45703 16.0938C9.75781 15.7793 9.9082 15.5218 9.9082 15.3213C9.9082 15.2301 9.92188 15.1846 9.94922 15.1846L9.97656 15.2666C9.97656 15.5173 9.81934 15.8089 9.50488 16.1416C9.19043 16.4743 8.74154 16.7044 8.1582 16.832C8.26758 17.347 8.52051 17.748 8.91699 18.0352C9.31803 18.3268 9.83984 18.4727 10.4824 18.4727C10.8607 18.4727 11.2321 18.3701 11.5967 18.165C11.9613 17.9645 12.2347 17.7025 12.417 17.3789C12.0342 17.1602 11.8428 16.848 11.8428 16.4424C11.8428 16.1644 11.9362 16.0254 12.123 16.0254C12.2643 16.0254 12.3851 16.0983 12.4854 16.2441C12.5902 16.3945 12.6426 16.5586 12.6426 16.7363C12.6426 16.9141 12.6038 17.1009 12.5264 17.2969C12.7542 17.4062 13.0436 17.4609 13.3945 17.4609C14.0326 17.4609 14.568 17.2467 15.001 16.8184C15.4339 16.3945 15.6504 15.8682 15.6504 15.2393C15.6504 15.1117 15.6367 14.9863 15.6094 14.8633C15.4863 14.8997 15.3496 14.918 15.1992 14.918C15.0671 14.918 14.9121 14.8929 14.7344 14.8428C14.5612 14.7926 14.4746 14.7562 14.4746 14.7334L14.5156 14.7061L14.5977 14.7334C14.7708 14.8063 14.9759 14.8428 15.2129 14.8428C15.3542 14.8428 15.4818 14.8245 15.5957 14.7881C15.4772 14.3916 15.2493 14.0771 14.9121 13.8447C14.5794 13.6077 14.2057 13.4893 13.791 13.4893C13.5449 13.4893 13.3011 13.5212 13.0596 13.585C12.8363 13.6442 12.6221 13.7513 12.417 13.9062C12.0798 14.1615 11.8291 14.5374 11.665 15.0342L11.6309 15.1094L11.5898 15.082C11.5898 14.9863 11.6536 14.8086 11.7812 14.5488C11.9089 14.2891 12.1117 14.0521 12.3896 13.8379C12.5856 13.6875 12.8044 13.5804 13.0459 13.5166C13.292 13.4528 13.5449 13.4209 13.8047 13.4209C14.2376 13.4209 14.625 13.5417 14.9668 13.7832C15.3132 14.0247 15.5456 14.3551 15.6641 14.7744C16.0059 14.6559 16.2702 14.4395 16.457 14.125C16.6484 13.8105 16.7441 13.4209 16.7441 12.9561C16.7441 12.3226 16.4456 11.7848 15.8486 11.3428C15.5342 12.596 14.5771 13.2409 12.9775 13.2773C12.7223 13.2819 12.4785 13.2591 12.2461 13.209C12.041 13.1634 11.8177 13.0882 11.5762 12.9834L11.4941 12.9424C11.2845 12.8239 11.1159 12.71 10.9883 12.6006C10.8652 12.4867 10.8037 12.4137 10.8037 12.3818L10.8311 12.3682C10.9906 12.5641 11.2116 12.7373 11.4941 12.8877L11.5762 12.9287C11.8177 13.0335 12.041 13.1087 12.2461 13.1543C12.4557 13.1999 12.695 13.2181 12.9639 13.209C14.4906 13.1543 15.4225 12.514 15.7598 11.2881C15.5775 11.1696 15.3815 11.0807 15.1719 11.0215C15.0762 10.9941 14.9873 10.9805 14.9053 10.9805H14.7959C14.6546 10.9805 14.5361 11.0055 14.4404 11.0557C14.3493 11.1058 14.3037 11.1742 14.3037 11.2607C14.3037 11.3929 14.3789 11.459 14.5293 11.459C14.6022 11.459 14.6387 11.4704 14.6387 11.4932C14.6387 11.516 14.6022 11.5273 14.5293 11.5273C14.3242 11.5273 14.2217 11.4521 14.2217 11.3018C14.2217 11.1878 14.2718 11.0944 14.3721 11.0215C14.4723 10.9486 14.6045 10.9121 14.7686 10.9121H14.9053C14.9736 10.9121 15.0716 10.9303 15.1992 10.9668C15.4089 11.026 15.6003 11.1058 15.7734 11.2061C15.8236 10.96 15.8486 10.7161 15.8486 10.4746C15.8486 9.76823 15.6253 9.10059 15.1787 8.47168C14.7321 7.83822 14.1214 7.33919 13.3467 6.97461C12.5719 6.60547 11.7334 6.4209 10.8311 6.4209C10.0563 6.4209 9.32031 6.57129 8.62305 6.87207C7.93034 7.16829 7.4222 7.57617 7.09863 8.0957C7.24447 8.07747 7.36523 8.06836 7.46094 8.06836C7.56576 8.06836 7.67969 8.07975 7.80273 8.10254C7.93034 8.12533 7.99414 8.14811 7.99414 8.1709C7.99414 8.19824 7.97363 8.21191 7.93262 8.21191L7.88477 8.19824C7.78906 8.15723 7.62044 8.13672 7.37891 8.13672C7.30599 8.13672 7.19661 8.14811 7.05078 8.1709C6.8776 8.48079 6.79102 8.80208 6.79102 9.13477C6.79102 9.35352 6.8138 9.55859 6.85938 9.75C6.99154 10.3105 7.28548 10.7458 7.74121 11.0557C8.19694 11.361 8.72786 11.5137 9.33398 11.5137C9.53906 11.5137 9.72591 11.5 9.89453 11.4727C10.0723 11.4453 10.2682 11.3929 10.4824 11.3154C10.7148 11.2334 10.8926 11.1126 11.0156 10.9531C10.7741 10.6797 10.6533 10.3493 10.6533 9.96191C10.6533 9.72038 10.7285 9.51758 10.8789 9.35352C11.0293 9.1849 11.2344 9.09375 11.4941 9.08008H11.5762C11.8678 9.08008 12.1299 9.16895 12.3623 9.34668C12.5947 9.52441 12.7109 9.73405 12.7109 9.97559C12.7109 10.1351 12.6654 10.2673 12.5742 10.3721C12.4876 10.4723 12.3691 10.5225 12.2188 10.5225C12.1458 10.5225 12.0752 10.5042 12.0068 10.4678C11.943 10.4268 11.8747 10.3288 11.8018 10.1738C11.7288 10.0189 11.6536 9.94368 11.5762 9.94824L11.4941 10.1533L11.4531 10.167C11.3574 10.167 11.3096 10.126 11.3096 10.0439C11.3096 9.94368 11.3711 9.88672 11.4941 9.87305C11.5169 9.86849 11.5443 9.86849 11.5762 9.87305C11.6764 9.88216 11.763 9.96647 11.8359 10.126C11.9089 10.2809 11.9727 10.3766 12.0273 10.4131C12.0866 10.445 12.1504 10.4609 12.2188 10.4609C12.4922 10.4609 12.6289 10.3037 12.6289 9.98926C12.6289 9.78874 12.5218 9.611 12.3076 9.45605C12.0934 9.29655 11.8496 9.2168 11.5762 9.2168H11.4941ZM10.4824 11.3906C10.5007 11.5182 10.5098 11.6253 10.5098 11.7119C10.5098 12.3773 10.3617 12.9652 10.0654 13.4756C10.626 13.6943 10.9062 14.0635 10.9062 14.583C10.9062 14.8291 10.8402 15.0342 10.708 15.1982C10.5804 15.3669 10.4915 15.4512 10.4414 15.4512L10.4277 15.417L10.4551 15.376C10.5189 15.2985 10.5508 15.1686 10.5508 14.9863C10.5508 14.8268 10.4984 14.6833 10.3936 14.5557C10.2933 14.4235 10.0335 14.2686 9.61426 14.0908C9.2998 14.4189 8.93522 14.6719 8.52051 14.8496C8.10579 15.0228 7.69108 15.1094 7.27637 15.1094C6.9209 15.1094 6.64746 15.0251 6.45605 14.8564C6.26465 14.6833 6.16895 14.4782 6.16895 14.2412C6.16895 14.0635 6.21908 13.9176 6.31934 13.8037C6.42415 13.6852 6.56543 13.626 6.74316 13.626C7.09863 13.626 7.27637 13.8037 7.27637 14.1592C7.27637 14.2777 7.23535 14.3711 7.15332 14.4395C7.07585 14.5033 6.97331 14.5352 6.8457 14.5352C6.76367 14.5352 6.67936 14.5078 6.59277 14.4531C6.51074 14.3984 6.45833 14.3392 6.43555 14.2754C6.43555 14.4622 6.45605 14.6035 6.49707 14.6992C6.54264 14.7949 6.63379 14.877 6.77051 14.9453C6.91178 15.0091 7.08496 15.041 7.29004 15.041C7.65462 15.041 8.03743 14.9499 8.43848 14.7676C8.84408 14.5853 9.18587 14.3324 9.46387 14.0088C8.98535 13.7581 8.74609 13.4027 8.74609 12.9424C8.74609 12.6917 8.8304 12.4639 8.99902 12.2588C9.1722 12.0537 9.28385 11.9512 9.33398 11.9512L9.40918 11.9785L9.35449 12.0264C9.1722 12.1494 9.08105 12.3294 9.08105 12.5664C9.08105 12.7487 9.13346 12.9036 9.23828 13.0312C9.3431 13.1543 9.54362 13.2728 9.83984 13.3867C9.95378 13.0814 10.0107 12.7327 10.0107 12.3408C10.0107 12.0446 9.97656 11.7734 9.9082 11.5273L9.89453 11.4727C9.61198 10.4837 9.04688 9.87305 8.19922 9.64062L8.13086 9.62695C7.9349 9.58594 7.77767 9.56543 7.65918 9.56543C7.36751 9.56543 7.10091 9.62695 6.85938 9.75L6.74316 9.80469C6.5153 9.95052 6.33984 10.1419 6.2168 10.3789C6.09375 10.6159 6.03223 10.8643 6.03223 11.124C6.03223 11.4704 6.13932 11.7507 6.35352 11.9648C6.57227 12.179 6.8571 12.2861 7.20801 12.2861C7.58171 12.2861 7.88704 12.195 8.12402 12.0127L8.1582 11.9922L8.19922 12.0195C8.19922 12.056 8.09896 12.1243 7.89844 12.2246C7.70247 12.3203 7.46777 12.3682 7.19434 12.3682C6.77051 12.3682 6.41048 12.2109 6.11426 11.8965C5.81803 11.582 5.66992 11.1969 5.66992 10.7412C5.66992 10.4541 5.75879 10.1715 5.93652 9.89355C6.11426 9.61556 6.36035 9.38542 6.6748 9.20312L6.79102 9.13477C7.13281 8.94792 7.51335 8.85449 7.93262 8.85449H8.10352C8.73698 8.90462 9.27018 9.15527 9.70312 9.60645C10.1406 10.0531 10.4004 10.6227 10.4824 11.3154V11.3906ZM13.9688 9.90723C13.6406 9.70671 13.4766 9.44922 13.4766 9.13477C13.4766 9.01172 13.5016 8.89551 13.5518 8.78613L13.5928 8.69727C13.6839 8.55143 13.8001 8.43522 13.9414 8.34863C14.0872 8.25749 14.2126 8.21191 14.3174 8.21191L14.3789 8.23926L14.2832 8.28711C14.0462 8.36458 13.9277 8.5013 13.9277 8.69727C13.9277 8.79753 13.9596 8.89779 14.0234 8.99805C14.0872 9.09375 14.2718 9.23503 14.5771 9.42188C14.8825 9.60417 15.0807 9.77962 15.1719 9.94824C15.2676 10.1123 15.3154 10.2832 15.3154 10.4609C15.3154 10.6478 15.2767 10.8164 15.1992 10.9668L15.1719 11.0215C15.0898 11.1764 14.985 11.2995 14.8574 11.3906C14.7344 11.4818 14.625 11.5273 14.5293 11.5273C14.4564 11.5273 14.4199 11.516 14.4199 11.4932C14.4199 11.4704 14.4564 11.459 14.5293 11.459C14.6068 11.459 14.6842 11.4157 14.7617 11.3291C14.8438 11.238 14.8916 11.1217 14.9053 10.9805V10.9121C14.9053 10.7572 14.8643 10.6113 14.7822 10.4746C14.7002 10.3379 14.4951 10.1829 14.167 10.0098L14.0508 9.94824L13.9688 9.90723ZM11.5762 11.835H12.2734C12.2826 11.7575 12.3076 11.6549 12.3486 11.5273L12.3623 11.4727C12.5309 10.9121 12.7542 10.4974 13.0322 10.2285C13.3148 9.95508 13.4971 9.81836 13.5791 9.81836L13.6064 9.83203L13.5244 9.9209C13.1507 10.2262 12.9342 10.7526 12.875 11.5V11.5547C12.8659 11.6322 12.8613 11.7643 12.8613 11.9512C12.8613 12.4661 12.8955 12.8854 12.9639 13.209L12.9775 13.2773C13.0049 13.3913 13.0277 13.471 13.0459 13.5166L13.0596 13.585C13.2419 14.1182 13.5449 14.3848 13.9688 14.3848C14.1829 14.3848 14.3721 14.2799 14.5361 14.0703L14.6113 13.9951L14.625 14.0225C14.625 14.1683 14.3356 14.4531 13.7568 14.877C13.5654 15.0182 13.3695 15.237 13.1689 15.5332L13.1416 15.4922C13.1416 15.4421 13.2441 15.278 13.4492 15L13.374 14.959C12.9137 14.7767 12.5947 14.4258 12.417 13.9062L12.3896 13.8379C12.3258 13.6875 12.278 13.4779 12.2461 13.209V13.1543C12.2279 12.931 12.2188 12.7396 12.2188 12.5801V12.3545H11.5762V14.583C11.5762 14.6514 11.5625 14.6855 11.5352 14.6855C11.5078 14.6855 11.4941 14.6514 11.4941 14.583V8.56055C11.4941 8.49219 11.5078 8.45801 11.5352 8.45801C11.5625 8.45801 11.5762 8.49219 11.5762 8.56055V11.835ZM5.76562 13.127C5.94792 13.1816 6.14388 13.209 6.35352 13.209C6.54492 13.209 6.7181 13.1839 6.87305 13.1338C7.03255 13.0837 7.1123 13.029 7.1123 12.9697C7.1123 12.915 7.07585 12.8695 7.00293 12.833C6.93001 12.792 6.83887 12.7715 6.72949 12.7715C6.35124 12.7715 6.02995 12.89 5.76562 13.127ZM12.4717 17.2695C12.5355 17.1055 12.5674 16.9596 12.5674 16.832C12.5674 16.6589 12.5218 16.4971 12.4307 16.3467C12.3441 16.1963 12.2415 16.1211 12.123 16.1211C12.0592 16.1211 12.0068 16.1553 11.9658 16.2236C11.9294 16.292 11.9111 16.3649 11.9111 16.4424C11.9111 16.8024 12.098 17.0781 12.4717 17.2695ZM18.9111 14.2754C18.9111 14.3164 18.8405 14.4007 18.6992 14.5283C18.5579 14.6559 18.305 14.8929 17.9404 15.2393C17.9131 15.2393 17.8994 15.2256 17.8994 15.1982L18.0088 15.041L17.9404 14.9863C17.4665 14.6536 17.2295 14.1774 17.2295 13.5576C17.2295 13.2933 17.3024 13.0312 17.4482 12.7715C17.5941 12.5072 17.8721 12.2269 18.2822 11.9307C18.6924 11.6299 18.9704 11.3975 19.1162 11.2334L19.1436 11.2744C18.9567 11.4749 18.8633 11.5866 18.8633 11.6094C18.8633 11.6322 18.9613 11.7119 19.1572 11.8486C19.3577 11.9854 19.5742 12.0879 19.8066 12.1562C19.8066 12.179 19.7702 12.2041 19.6973 12.2314C19.4967 12.3044 19.3965 12.4251 19.3965 12.5938V13.9062C19.3965 14.0794 19.4831 14.2594 19.6562 14.4463C19.8294 14.6286 19.9365 14.7835 19.9775 14.9111C20.0186 15.0342 20.0391 15.1572 20.0391 15.2803C20.0391 15.736 19.8682 16.1302 19.5264 16.4629C19.1846 16.7956 18.7881 16.9619 18.3369 16.9619C18.068 16.9619 17.8379 16.8981 17.6465 16.7705C17.4596 16.6429 17.3662 16.4766 17.3662 16.2715C17.3662 16.1302 17.4095 16.0163 17.4961 15.9297C17.5872 15.8431 17.6989 15.7998 17.8311 15.7998C17.9632 15.7998 18.0726 15.8408 18.1592 15.9229C18.2458 16.0049 18.2891 16.1074 18.2891 16.2305C18.2891 16.3262 18.2549 16.4059 18.1865 16.4697C18.1227 16.5335 18.0452 16.5654 17.9541 16.5654C17.8584 16.5654 17.7513 16.5426 17.6328 16.4971C17.6328 16.7295 17.863 16.8457 18.3232 16.8457C18.6878 16.8457 19.0046 16.7363 19.2734 16.5176C19.5423 16.2988 19.6768 16.0208 19.6768 15.6836C19.6768 15.5469 19.6517 15.4102 19.6016 15.2734C19.5514 15.1413 19.4398 15 19.2666 14.8496C19.098 14.6992 18.9954 14.5853 18.959 14.5078C18.9271 14.4303 18.9111 14.3529 18.9111 14.2754ZM18.8633 14.1592V12.3682C18.8633 12.3408 18.7926 12.2793 18.6514 12.1836C18.5101 12.0833 18.4281 12.0332 18.4053 12.0332C18.346 12.0332 18.2321 12.1608 18.0635 12.416C17.8994 12.6667 17.8174 13.0016 17.8174 13.4209C17.8174 13.7627 17.888 14.0247 18.0293 14.207C18.1751 14.3893 18.3369 14.4805 18.5146 14.4805C18.6012 14.4805 18.681 14.444 18.7539 14.3711C18.8268 14.2936 18.8633 14.223 18.8633 14.1592Z" fill="#333333"/>
</svg>
