<svg width="24" height="24" viewBox="0 0 24 24" fill="none" xmlns="http://www.w3.org/2000/svg">
<path d="M16.6899 10.4595C17.5588 11.0239 17.9932 11.7267 17.9932 12.5679C17.9932 13.0715 17.8548 13.5335 17.5781 13.9541C17.3014 14.3691 16.9307 14.6541 16.4658 14.8091C16.5101 14.964 16.5322 15.1466 16.5322 15.3569C16.5322 16.2036 16.2666 16.8843 15.7354 17.3989C15.2096 17.9191 14.5179 18.1792 13.6602 18.1792C13.2451 18.1792 12.8826 18.0934 12.5728 17.9219C12.3514 18.359 12.0166 18.7077 11.5684 18.9678C11.1201 19.2334 10.6553 19.3662 10.1738 19.3662C9.39355 19.3662 8.75439 19.1781 8.25635 18.8018C7.7583 18.4255 7.43457 17.9053 7.28516 17.2412C6.95866 17.291 6.68197 17.3159 6.45508 17.3159C5.58626 17.3159 4.88346 17.0558 4.34668 16.5356C3.81543 16.0155 3.54981 15.3735 3.54981 14.6099C3.54981 13.8573 3.77393 13.2513 4.22217 12.792C3.67432 12.6038 3.23714 12.2773 2.91065 11.8125C2.58415 11.3421 2.4209 10.8192 2.4209 10.2437C2.4209 9.48551 2.75293 8.74398 3.41699 8.01904C4.08106 7.28858 4.89453 6.8265 5.85742 6.63281C6.24479 5.91341 6.87288 5.35173 7.7417 4.94776C8.61605 4.54378 9.50146 4.3418 10.3979 4.3418C11.5656 4.3418 12.6392 4.58252 13.6187 5.06397C14.6037 5.54541 15.3784 6.19287 15.9429 7.00635C16.5073 7.81983 16.7896 8.65267 16.7896 9.50488C16.7896 9.85352 16.7563 10.1717 16.6899 10.4595ZM9.24414 6.77393C9.24414 6.70199 9.1971 6.63835 9.10303 6.58301C9.06982 6.63281 9.05322 6.68539 9.05322 6.74072C9.05322 6.82927 9.08643 6.87354 9.15283 6.87354C9.2137 6.87354 9.24414 6.84033 9.24414 6.77393ZM11.3857 7.97754C11.1035 7.99968 10.8822 8.11312 10.7217 8.31787C10.5612 8.51709 10.481 8.74951 10.481 9.01514C10.481 9.39697 10.6055 9.73177 10.8545 10.0195C10.9652 9.87565 11.0454 9.68197 11.0952 9.43848L11.1284 9.50488C11.1284 9.6709 11.0537 9.85905 10.9043 10.0693C11.0205 10.2132 11.181 10.3322 11.3857 10.4263L11.4854 10.4761C11.7731 10.6034 12.0913 10.6836 12.4399 10.7168C12.7609 10.75 12.9684 10.7611 13.0625 10.75C13.4886 10.7113 13.8206 10.5591 14.0586 10.2935C14.3021 10.0278 14.4238 9.69303 14.4238 9.28906C14.4238 9.16732 14.4128 9.0096 14.3906 8.81592C14.3353 8.32341 14.1665 7.86963 13.8843 7.45459C13.5412 6.95101 12.9546 6.55257 12.1245 6.25928L12.0332 6.22608L11.9087 6.24268C11.8423 6.24268 11.798 6.20947 11.7759 6.14307L11.7261 6.12647C11.6818 6.1486 11.6458 6.15967 11.6182 6.15967C11.5739 6.14307 11.5352 6.12093 11.502 6.09326L11.4355 6.07666C11.4023 6.18734 11.3332 6.24268 11.228 6.24268C11.134 6.24268 11.0731 6.18734 11.0454 6.07666L10.9956 6.06006C10.9735 6.09326 10.9264 6.10986 10.8545 6.10986C10.8158 6.10986 10.7604 6.0822 10.6885 6.02686C10.6719 6.0822 10.6276 6.10986 10.5557 6.10986C10.5169 6.10986 10.4699 6.0822 10.4146 6.02686L10.2153 6.08496C9.63428 6.22331 9.28011 6.37272 9.15283 6.5332C9.25798 6.59961 9.31055 6.67985 9.31055 6.77393C9.31055 6.91781 9.25798 6.98975 9.15283 6.98975C9.04216 6.98975 8.98682 6.89567 8.98682 6.70752C8.98682 6.65218 9.00342 6.59961 9.03662 6.54981C8.90381 6.50553 8.79036 6.4834 8.69629 6.4834C8.36979 6.4834 8.06266 6.58301 7.7749 6.78223C7.48714 6.98145 7.31836 7.23324 7.26856 7.5376C7.21875 7.84749 7.25749 8.16569 7.38477 8.49219C7.53418 8.87402 7.81087 9.13688 8.21484 9.28076L8.27295 9.30566L8.22314 9.33887C8.11247 9.33887 7.96029 9.26969 7.7666 9.13135C7.57292 8.98747 7.41797 8.76888 7.30176 8.47559C7.18555 8.18229 7.15234 7.86963 7.20215 7.5376C7.25195 7.20003 7.41797 6.92887 7.7002 6.72412C7.98796 6.51937 8.30339 6.41699 8.64648 6.41699C8.8291 6.41699 8.97575 6.44466 9.08643 6.5C9.21924 6.35612 9.42676 6.23161 9.70898 6.12647C9.99121 6.02132 10.2015 5.96875 10.3398 5.96875L10.3979 5.97705C10.4644 5.90511 10.5197 5.86914 10.564 5.86914L10.6553 5.93555H10.7217C10.7327 5.88021 10.7881 5.85254 10.8877 5.85254C10.9154 5.85254 10.9458 5.88021 10.979 5.93555H11.0454C11.0731 5.82487 11.134 5.76953 11.228 5.76953C11.3332 5.76953 11.4079 5.8304 11.4521 5.95215L11.502 5.97705C11.5462 5.92725 11.585 5.90234 11.6182 5.90234C11.6901 5.90234 11.7427 5.94385 11.7759 6.02686L11.8423 6.06006L11.9087 6.02686C11.9585 6.02686 12.0111 6.06559 12.0664 6.14307C12.9186 6.43636 13.5412 6.83757 13.9341 7.34668C14.1886 7.75065 14.374 8.257 14.4902 8.86572C14.5068 8.9266 14.5151 9.02897 14.5151 9.17285C14.5151 9.64323 14.3823 10.0306 14.1167 10.335C13.8566 10.6338 13.5052 10.7943 13.0625 10.8164C12.8633 10.8275 12.6502 10.8164 12.4233 10.7832C12.036 10.7279 11.7233 10.6476 11.4854 10.5425L11.3857 10.4927C11.1921 10.3986 11.015 10.2796 10.8545 10.1357C10.6442 10.346 10.4118 10.5065 10.1572 10.6172C10.0023 10.6836 9.76986 10.7389 9.45996 10.7832C9.22201 10.8164 8.96191 10.833 8.67969 10.833C7.97689 10.833 7.33496 10.6421 6.75391 10.2603C6.17285 9.87288 5.79378 9.34994 5.6167 8.69141C5.56136 8.48665 5.53369 8.24316 5.53369 7.96094C5.53369 7.5127 5.63053 7.10596 5.82422 6.74072C4.94434 6.92334 4.1945 7.35498 3.57471 8.03565C2.95492 8.71631 2.64502 9.43294 2.64502 10.1855C2.64502 10.7555 2.79443 11.2729 3.09326 11.7378C3.39209 12.1971 3.80436 12.5125 4.33008 12.6841C4.70085 12.3687 5.10759 12.2109 5.55029 12.2109C5.97087 12.2109 6.18115 12.3078 6.18115 12.5015C6.18115 12.6287 6.07601 12.7284 5.86572 12.8003C5.65544 12.8722 5.37598 12.9082 5.02734 12.9082C4.78385 12.9082 4.55143 12.875 4.33008 12.8086C3.92057 13.2236 3.71582 13.7493 3.71582 14.3857C3.71582 15.3044 4.00358 15.9989 4.5791 16.4692C5.16016 16.9396 5.81869 17.1748 6.55469 17.1748C6.81478 17.1748 7.0472 17.1582 7.25195 17.125L7.23535 16.8677L7.24365 16.7432L7.31836 17.1084C8.02116 16.9701 8.55241 16.71 8.91211 16.3281C9.27734 15.9463 9.45996 15.6336 9.45996 15.3901C9.45996 15.2795 9.47656 15.2241 9.50977 15.2241L9.54297 15.3237C9.54297 15.6281 9.35205 15.9823 8.97022 16.3862C8.58838 16.7902 8.04329 17.0697 7.33496 17.2246C7.46777 17.8499 7.7749 18.3369 8.25635 18.6855C8.74333 19.0397 9.37695 19.2168 10.1572 19.2168C10.6165 19.2168 11.0675 19.0923 11.5103 18.8433C11.953 18.5998 12.285 18.2816 12.5063 17.8887C12.0415 17.623 11.8091 17.244 11.8091 16.7515C11.8091 16.4139 11.9225 16.2451 12.1494 16.2451C12.321 16.2451 12.4676 16.3337 12.5894 16.5107C12.7166 16.6934 12.7803 16.8926 12.7803 17.1084C12.7803 17.3242 12.7332 17.5511 12.6392 17.7891C12.9159 17.9219 13.2673 17.9883 13.6934 17.9883C14.4681 17.9883 15.1183 17.7282 15.644 17.208C16.1698 16.6934 16.4326 16.0542 16.4326 15.2905C16.4326 15.1356 16.416 14.9834 16.3828 14.834C16.2334 14.8783 16.0674 14.9004 15.8848 14.9004C15.7243 14.9004 15.5361 14.87 15.3203 14.8091C15.11 14.7482 15.0049 14.7039 15.0049 14.6763L15.0547 14.6431L15.1543 14.6763C15.3646 14.7648 15.6136 14.8091 15.9014 14.8091C16.0729 14.8091 16.2279 14.7869 16.3662 14.7427C16.2223 14.2612 15.9456 13.8794 15.5361 13.5972C15.1322 13.3094 14.6784 13.1655 14.1748 13.1655C13.876 13.1655 13.5799 13.2043 13.2866 13.2817C13.0155 13.3537 12.7554 13.4837 12.5063 13.6719C12.0968 13.9818 11.7925 14.4383 11.5933 15.0415L11.5518 15.1328L11.502 15.0996C11.502 14.9834 11.5794 14.7676 11.7344 14.4521C11.8893 14.1367 12.1356 13.849 12.4731 13.5889C12.7111 13.4063 12.9767 13.2762 13.27 13.1987C13.5688 13.1213 13.876 13.0825 14.1914 13.0825C14.7171 13.0825 15.1875 13.2292 15.6025 13.5225C16.0231 13.8158 16.3053 14.217 16.4492 14.7261C16.8643 14.5822 17.1852 14.3193 17.4121 13.9375C17.6445 13.5557 17.7607 13.0825 17.7607 12.5181C17.7607 11.7489 17.3983 11.0959 16.6733 10.5591C16.2915 12.0809 15.1294 12.8639 13.187 12.9082C12.8771 12.9137 12.5811 12.8861 12.2988 12.8252C12.0498 12.7699 11.7786 12.6785 11.4854 12.5513L11.3857 12.5015C11.1312 12.3576 10.9264 12.2192 10.7715 12.0864C10.6221 11.9481 10.5474 11.8595 10.5474 11.8208L10.5806 11.8042C10.7743 12.0422 11.0426 12.2524 11.3857 12.4351L11.4854 12.4849C11.7786 12.6121 12.0498 12.7035 12.2988 12.7588C12.5534 12.8141 12.8439 12.8363 13.1704 12.8252C15.0243 12.7588 16.1559 11.9813 16.5654 10.4927C16.3441 10.3488 16.1061 10.2409 15.8516 10.1689C15.7354 10.1357 15.6274 10.1191 15.5278 10.1191H15.395C15.2235 10.1191 15.0796 10.1496 14.9634 10.2104C14.8527 10.2713 14.7974 10.3543 14.7974 10.4595C14.7974 10.62 14.8887 10.7002 15.0713 10.7002C15.1598 10.7002 15.2041 10.714 15.2041 10.7417C15.2041 10.7694 15.1598 10.7832 15.0713 10.7832C14.8223 10.7832 14.6978 10.6919 14.6978 10.5093C14.6978 10.3709 14.7586 10.2575 14.8804 10.1689C15.0021 10.0804 15.1626 10.0361 15.3618 10.0361H15.5278C15.6108 10.0361 15.7298 10.0583 15.8848 10.1025C16.1393 10.1745 16.3717 10.2713 16.582 10.3931C16.6429 10.0942 16.6733 9.79818 16.6733 9.50488C16.6733 8.64714 16.4022 7.83643 15.8599 7.07275C15.3175 6.30355 14.576 5.69759 13.6353 5.25488C12.6945 4.80664 11.6763 4.58252 10.5806 4.58252C9.63981 4.58252 8.74609 4.76514 7.89941 5.13037C7.05827 5.49007 6.44124 5.98535 6.04834 6.61621C6.22542 6.59408 6.37207 6.58301 6.48828 6.58301C6.61556 6.58301 6.75391 6.59684 6.90332 6.62451C7.05827 6.65218 7.13574 6.67985 7.13574 6.70752C7.13574 6.74072 7.11084 6.75733 7.06104 6.75733L7.00293 6.74072C6.88672 6.69092 6.68197 6.66602 6.38867 6.66602C6.30013 6.66602 6.16732 6.67985 5.99023 6.70752C5.77995 7.08382 5.67481 7.47396 5.67481 7.87793C5.67481 8.14356 5.70247 8.39258 5.75781 8.625C5.91829 9.30566 6.27523 9.83415 6.82861 10.2104C7.382 10.5812 8.02669 10.7666 8.7627 10.7666C9.01172 10.7666 9.23861 10.75 9.44336 10.7168C9.65918 10.6836 9.89714 10.62 10.1572 10.5259C10.4395 10.4263 10.6553 10.2796 10.8047 10.0859C10.5114 9.75391 10.3647 9.3527 10.3647 8.88232C10.3647 8.58903 10.4561 8.34277 10.6387 8.14356C10.8213 7.9388 11.0703 7.82813 11.3857 7.81152H11.4854C11.8395 7.81152 12.1577 7.91943 12.4399 8.13525C12.7222 8.35107 12.8633 8.60563 12.8633 8.89893C12.8633 9.09261 12.8079 9.25309 12.6973 9.38037C12.5921 9.50212 12.4482 9.56299 12.2656 9.56299C12.1771 9.56299 12.0913 9.54085 12.0083 9.49658C11.9308 9.44678 11.8478 9.3278 11.7593 9.13965C11.6707 8.9515 11.5794 8.86019 11.4854 8.86572L11.3857 9.11475L11.3359 9.13135C11.2197 9.13135 11.1616 9.08154 11.1616 8.98193C11.1616 8.86019 11.2363 8.79102 11.3857 8.77441C11.4134 8.76888 11.4466 8.76888 11.4854 8.77441C11.6071 8.78548 11.7122 8.88786 11.8008 9.08154C11.8893 9.26969 11.9668 9.38591 12.0332 9.43018C12.1051 9.46891 12.1826 9.48828 12.2656 9.48828C12.5977 9.48828 12.7637 9.29736 12.7637 8.91553C12.7637 8.67204 12.6336 8.45622 12.3735 8.26807C12.1134 8.07438 11.8174 7.97754 11.4854 7.97754H11.3857ZM10.1572 10.6172C10.1794 10.7721 10.1904 10.9022 10.1904 11.0073C10.1904 11.8153 10.0106 12.5291 9.65088 13.1489C10.3315 13.4146 10.6719 13.8628 10.6719 14.4937C10.6719 14.7925 10.5916 15.0415 10.4312 15.2407C10.2762 15.4455 10.1683 15.5479 10.1074 15.5479L10.0908 15.5063L10.124 15.4565C10.2015 15.3625 10.2402 15.2048 10.2402 14.9834C10.2402 14.7897 10.1766 14.6154 10.0493 14.4604C9.92757 14.3 9.61214 14.1118 9.10303 13.896C8.72119 14.2944 8.27848 14.6016 7.7749 14.8174C7.27132 15.0277 6.76774 15.1328 6.26416 15.1328C5.83252 15.1328 5.50049 15.0304 5.26807 14.8257C5.03565 14.6154 4.91943 14.3664 4.91943 14.0786C4.91943 13.8628 4.98031 13.6857 5.10205 13.5474C5.22933 13.4035 5.40088 13.3315 5.6167 13.3315C6.04834 13.3315 6.26416 13.5474 6.26416 13.979C6.26416 14.1229 6.21436 14.2363 6.11475 14.3193C6.02067 14.3968 5.89616 14.4355 5.74121 14.4355C5.6416 14.4355 5.53923 14.4023 5.43408 14.3359C5.33447 14.2695 5.27083 14.1976 5.24316 14.1201C5.24316 14.347 5.26807 14.5186 5.31787 14.6348C5.37321 14.751 5.48389 14.8506 5.6499 14.9336C5.82145 15.0111 6.03174 15.0498 6.28076 15.0498C6.72347 15.0498 7.18831 14.9391 7.67529 14.7178C8.16781 14.4964 8.58285 14.1893 8.92041 13.7964C8.33936 13.492 8.04883 13.0604 8.04883 12.5015C8.04883 12.1971 8.1512 11.9204 8.35596 11.6714C8.56624 11.4224 8.70182 11.2979 8.7627 11.2979L8.854 11.3311L8.7876 11.3892C8.56624 11.5386 8.45557 11.7572 8.45557 12.0449C8.45557 12.2663 8.51921 12.4544 8.64648 12.6094C8.77376 12.7588 9.01725 12.9027 9.37695 13.041C9.5153 12.6702 9.58447 12.2469 9.58447 11.771C9.58447 11.4113 9.54297 11.082 9.45996 10.7832L9.44336 10.7168C9.10026 9.51595 8.41406 8.77441 7.38477 8.49219L7.30176 8.47559C7.0638 8.42578 6.87288 8.40088 6.729 8.40088C6.37484 8.40088 6.05111 8.47559 5.75781 8.625L5.6167 8.69141C5.34001 8.86849 5.12695 9.10091 4.97754 9.38867C4.82813 9.67643 4.75342 9.97803 4.75342 10.2935C4.75342 10.714 4.88346 11.0544 5.14356 11.3145C5.40918 11.5745 5.75505 11.7046 6.18115 11.7046C6.63493 11.7046 7.0057 11.5939 7.29346 11.3726L7.33496 11.3477L7.38477 11.3809C7.38477 11.4251 7.26302 11.5081 7.01953 11.6299C6.78158 11.7461 6.49658 11.8042 6.16455 11.8042C5.6499 11.8042 5.21273 11.6133 4.85303 11.2314C4.49333 10.8496 4.31348 10.382 4.31348 9.82861C4.31348 9.47998 4.42139 9.13688 4.63721 8.79932C4.85303 8.46175 5.15186 8.18229 5.53369 7.96094L5.67481 7.87793C6.08984 7.65104 6.55192 7.5376 7.06104 7.5376H7.26856C8.03776 7.59847 8.68522 7.90283 9.21094 8.45068C9.74219 8.993 10.0576 9.68473 10.1572 10.5259V10.6172ZM14.3906 8.81592C13.9922 8.57243 13.793 8.25977 13.793 7.87793C13.793 7.72852 13.8234 7.5874 13.8843 7.45459L13.9341 7.34668C14.0448 7.1696 14.1859 7.02848 14.3574 6.92334C14.5345 6.81266 14.6867 6.75733 14.814 6.75733L14.8887 6.79053L14.7725 6.84863C14.4847 6.94271 14.3408 7.10872 14.3408 7.34668C14.3408 7.46843 14.3796 7.59017 14.457 7.71191C14.5345 7.82813 14.7586 7.99968 15.1294 8.22656C15.5002 8.44792 15.7409 8.66097 15.8516 8.86572C15.9678 9.06494 16.0259 9.27246 16.0259 9.48828C16.0259 9.71517 15.9788 9.91992 15.8848 10.1025L15.8516 10.1689C15.752 10.3571 15.6247 10.5065 15.4697 10.6172C15.3203 10.7279 15.1875 10.7832 15.0713 10.7832C14.9827 10.7832 14.9385 10.7694 14.9385 10.7417C14.9385 10.714 14.9827 10.7002 15.0713 10.7002C15.1654 10.7002 15.2594 10.6476 15.3535 10.5425C15.4531 10.4318 15.5112 10.2907 15.5278 10.1191V10.0361C15.5278 9.84798 15.478 9.6709 15.3784 9.50488C15.2788 9.33887 15.0298 9.15072 14.6313 8.94043L14.4902 8.86572L14.3906 8.81592ZM11.4854 11.1567H12.332C12.3431 11.0627 12.3735 10.9382 12.4233 10.7832L12.4399 10.7168C12.6447 10.0361 12.9159 9.53255 13.2534 9.20606C13.5965 8.87402 13.8179 8.70801 13.9175 8.70801L13.9507 8.72461L13.8511 8.83252C13.3973 9.20329 13.1344 9.84245 13.0625 10.75V10.8164C13.0514 10.9105 13.0459 11.071 13.0459 11.2979C13.0459 11.9232 13.0874 12.4323 13.1704 12.8252L13.187 12.9082C13.2202 13.0465 13.2479 13.1434 13.27 13.1987L13.2866 13.2817C13.508 13.9292 13.876 14.2529 14.3906 14.2529C14.6507 14.2529 14.8804 14.1257 15.0796 13.8711L15.1709 13.7798L15.1875 13.813C15.1875 13.9901 14.8361 14.3359 14.1333 14.8506C13.9009 15.0221 13.6629 15.2878 13.4194 15.6475L13.3862 15.5977C13.3862 15.5368 13.5107 15.3376 13.7598 15L13.6685 14.9502C13.1095 14.7288 12.7222 14.3027 12.5063 13.6719L12.4731 13.5889C12.3957 13.4063 12.3376 13.1517 12.2988 12.8252V12.7588C12.2767 12.4876 12.2656 12.2552 12.2656 12.0615V11.7876H11.4854V14.4937C11.4854 14.5767 11.4687 14.6182 11.4355 14.6182C11.4023 14.6182 11.3857 14.5767 11.3857 14.4937V7.18066C11.3857 7.09766 11.4023 7.05615 11.4355 7.05615C11.4687 7.05615 11.4854 7.09766 11.4854 7.18066V11.1567ZM4.42969 12.7256C4.65104 12.792 4.889 12.8252 5.14356 12.8252C5.37598 12.8252 5.58626 12.7948 5.77441 12.7339C5.9681 12.673 6.06494 12.6066 6.06494 12.5347C6.06494 12.4683 6.02067 12.4129 5.93213 12.3687C5.84359 12.3188 5.73291 12.2939 5.6001 12.2939C5.14079 12.2939 4.75065 12.4378 4.42969 12.7256ZM12.5728 17.7559C12.6502 17.5566 12.689 17.3796 12.689 17.2246C12.689 17.0143 12.6336 16.8179 12.5229 16.6353C12.4178 16.4526 12.2933 16.3613 12.1494 16.3613C12.0719 16.3613 12.0083 16.4028 11.9585 16.4858C11.9142 16.5688 11.8921 16.6574 11.8921 16.7515C11.8921 17.1886 12.119 17.5234 12.5728 17.7559ZM20.3921 14.1201C20.3921 14.1699 20.3063 14.2723 20.1348 14.4272C19.9632 14.5822 19.6561 14.87 19.2134 15.2905C19.1802 15.2905 19.1636 15.2739 19.1636 15.2407L19.2964 15.0498L19.2134 14.9834C18.6379 14.5794 18.3501 14.0011 18.3501 13.2485C18.3501 12.9276 18.4386 12.6094 18.6157 12.2939C18.7928 11.973 19.1304 11.6327 19.6284 11.2729C20.1265 10.9077 20.464 10.6255 20.6411 10.4263L20.6743 10.4761C20.4474 10.7196 20.334 10.8551 20.334 10.8828C20.334 10.9105 20.453 11.0073 20.6909 11.1733C20.9344 11.3394 21.1973 11.4639 21.4795 11.5469C21.4795 11.5745 21.4352 11.605 21.3467 11.6382C21.1032 11.7267 20.9814 11.8734 20.9814 12.0781V13.6719C20.9814 13.8822 21.0866 14.1007 21.2969 14.3276C21.5072 14.549 21.6372 14.7371 21.687 14.8921C21.7368 15.0415 21.7617 15.1909 21.7617 15.3403C21.7617 15.8937 21.5542 16.3724 21.1392 16.7764C20.7241 17.1803 20.2427 17.3823 19.6948 17.3823C19.3683 17.3823 19.0889 17.3049 18.8564 17.1499C18.6296 16.995 18.5161 16.793 18.5161 16.5439C18.5161 16.3724 18.5687 16.234 18.6738 16.1289C18.7845 16.0238 18.9201 15.9712 19.0806 15.9712C19.241 15.9712 19.3739 16.021 19.479 16.1206C19.5841 16.2202 19.6367 16.3447 19.6367 16.4941C19.6367 16.6104 19.5952 16.7072 19.5122 16.7847C19.4347 16.8621 19.3407 16.9009 19.23 16.9009C19.1138 16.9009 18.9837 16.8732 18.8398 16.8179C18.8398 17.1001 19.1193 17.2412 19.6782 17.2412C20.1209 17.2412 20.5055 17.1084 20.832 16.8428C21.1585 16.5771 21.3218 16.2396 21.3218 15.8301C21.3218 15.6641 21.2913 15.498 21.2305 15.332C21.1696 15.1715 21.034 15 20.8237 14.8174C20.619 14.6348 20.4945 14.4964 20.4502 14.4023C20.4115 14.3083 20.3921 14.2142 20.3921 14.1201ZM20.334 13.979V11.8042C20.334 11.771 20.2482 11.6963 20.0767 11.5801C19.9051 11.4583 19.8055 11.3975 19.7778 11.3975C19.7059 11.3975 19.5675 11.5524 19.3628 11.8623C19.1636 12.1667 19.064 12.5734 19.064 13.0825C19.064 13.4976 19.1497 13.8158 19.3213 14.0371C19.4984 14.2585 19.6948 14.3691 19.9106 14.3691C20.0158 14.3691 20.1126 14.3249 20.2012 14.2363C20.2897 14.1423 20.334 14.0565 20.334 13.979Z" fill="#888888"/>
</svg>
