<svg width="24" height="24" viewBox="0 0 24 24" fill="none" xmlns="http://www.w3.org/2000/svg">
<path d="M16.9561 5.28613C17.0882 5.28613 17.2158 5.30892 17.3389 5.35449C17.4665 5.39551 17.5781 5.45703 17.6738 5.53906C17.7741 5.61654 17.8538 5.71452 17.9131 5.83301C17.9723 5.94694 18.002 6.07682 18.002 6.22266C18.002 6.50521 17.9108 6.8265 17.7285 7.18652C17.5462 7.54655 17.3092 7.9681 17.0176 8.45117C16.7031 8.96615 16.4069 9.48112 16.1289 9.99609C15.8509 10.5065 15.5911 11.001 15.3496 11.4795C15.1126 11.9535 14.8939 12.4023 14.6934 12.8262C14.4974 13.2454 14.3265 13.6214 14.1807 13.9541C14.363 13.9769 14.5452 13.9951 14.7275 14.0088C14.9098 14.0225 15.0739 14.027 15.2197 14.0225L15.2334 14.3779C15.2015 14.3779 15.0807 14.3779 14.8711 14.3779C14.666 14.3734 14.3857 14.346 14.0303 14.2959C13.889 14.624 13.7796 14.8792 13.7021 15.0615C13.6292 15.2438 13.5928 15.3395 13.5928 15.3486L12.7793 15.0957L13.1895 14.1592C12.8841 14.0908 12.5628 14.0111 12.2256 13.9199C11.8883 13.8288 11.5443 13.7262 11.1934 13.6123C10.847 13.4938 10.5007 13.3617 10.1543 13.2158C9.80794 13.07 9.47526 12.9105 9.15625 12.7373C8.86003 13.0791 8.53874 13.4163 8.19238 13.749C7.84603 14.0771 7.47461 14.3734 7.07812 14.6377C6.68164 14.8975 6.26009 15.1071 5.81348 15.2666C5.37142 15.4307 4.9043 15.5127 4.41211 15.5127C3.97461 15.5127 3.53711 15.4466 3.09961 15.3145C2.66667 15.1868 2.27702 15 1.93066 14.7539C1.58887 14.5033 1.31087 14.2002 1.09668 13.8447C0.882487 13.4847 0.775391 13.0768 0.775391 12.6211C0.775391 12.2611 0.84375 11.9443 0.980469 11.6709C1.11263 11.3975 1.29492 11.1696 1.52734 10.9873C1.76432 10.805 2.04004 10.6683 2.35449 10.5771C2.6735 10.4814 3.0153 10.4336 3.37988 10.4336C3.65788 10.4336 3.94499 10.4609 4.24121 10.5156C4.54199 10.5703 4.83366 10.6615 5.11621 10.7891C5.39876 10.9167 5.66536 11.0853 5.91602 11.2949C6.16667 11.5046 6.38086 11.7643 6.55859 12.0742L6.25781 12.2656C6.25326 12.2565 6.22591 12.2223 6.17578 12.1631C6.13021 12.0993 6.05957 12.0241 5.96387 11.9375C5.87272 11.8464 5.75423 11.7507 5.6084 11.6504C5.46257 11.5501 5.28711 11.459 5.08203 11.377C4.88151 11.2904 4.64681 11.2197 4.37793 11.165C4.11361 11.1058 3.81283 11.0762 3.47559 11.0762C3.13379 11.0762 2.83529 11.1354 2.58008 11.2539C2.32487 11.3678 2.11068 11.516 1.9375 11.6982C1.76888 11.876 1.64128 12.0765 1.55469 12.2998C1.47266 12.5231 1.43164 12.7396 1.43164 12.9492C1.43164 13.1953 1.47493 13.4209 1.56152 13.626C1.64811 13.8265 1.76432 14.0088 1.91016 14.1729C2.06055 14.3369 2.23372 14.4805 2.42969 14.6035C2.63021 14.722 2.83984 14.8223 3.05859 14.9043C3.2819 14.9863 3.50749 15.0479 3.73535 15.0889C3.96777 15.1299 4.19336 15.1504 4.41211 15.1504C4.86328 15.1504 5.29622 15.0775 5.71094 14.9316C6.12565 14.7812 6.51758 14.5853 6.88672 14.3438C7.25586 14.0977 7.60221 13.8197 7.92578 13.5098C8.25391 13.1999 8.55697 12.8831 8.83496 12.5596C8.52507 12.3727 8.23796 12.1722 7.97363 11.958C7.71387 11.7393 7.48828 11.5068 7.29688 11.2607C7.10547 11.0101 6.95508 10.7435 6.8457 10.4609C6.74089 10.1738 6.68848 9.87077 6.68848 9.55176C6.68848 9.28743 6.73633 9.03906 6.83203 8.80664C6.93229 8.57422 7.06673 8.37142 7.23535 8.19824C7.40853 8.02051 7.61133 7.88151 7.84375 7.78125C8.08073 7.67643 8.33366 7.62402 8.60254 7.62402C8.90332 7.62402 9.18815 7.67188 9.45703 7.76758C9.72591 7.85872 9.98112 7.98633 10.2227 8.15039C10.4642 8.3099 10.6898 8.5013 10.8994 8.72461C11.1136 8.94792 11.3141 9.18945 11.501 9.44922C12.0114 8.87956 12.5195 8.34408 13.0254 7.84277C13.5358 7.33691 14.0257 6.89486 14.4951 6.5166C14.9645 6.13835 15.4066 5.83984 15.8213 5.62109C16.2406 5.39779 16.6188 5.28613 16.9561 5.28613ZM11.7129 9.76367C11.9271 10.0918 12.123 10.4313 12.3008 10.7822C12.4785 11.1331 12.638 11.4772 12.7793 11.8145C12.9251 12.1517 13.0527 12.473 13.1621 12.7783C13.276 13.0791 13.374 13.3457 13.4561 13.5781C13.9893 12.416 14.5589 11.2767 15.165 10.1602C15.7712 9.04362 16.4525 7.94076 17.209 6.85156C17.332 6.66927 17.4186 6.51888 17.4688 6.40039C17.5234 6.27734 17.5508 6.17253 17.5508 6.08594C17.5508 5.9401 17.4893 5.83073 17.3662 5.75781C17.2432 5.68034 17.1019 5.6416 16.9424 5.6416C16.4365 5.6416 15.7461 5.98796 14.8711 6.68066C14.0007 7.36882 12.9479 8.39648 11.7129 9.76367ZM7.31055 9.87988C7.31055 10.1214 7.35612 10.3516 7.44727 10.5703C7.53841 10.7845 7.66374 10.9919 7.82324 11.1924C7.98275 11.3883 8.17188 11.5752 8.39062 11.7529C8.60938 11.9261 8.84635 12.0902 9.10156 12.2451C9.44336 11.8304 9.79199 11.4134 10.1475 10.9941C10.5029 10.5749 10.863 10.1602 11.2275 9.75C11.068 9.54036 10.9017 9.34668 10.7285 9.16895C10.5599 8.98665 10.3822 8.82943 10.1953 8.69727C10.0085 8.5651 9.81478 8.46257 9.61426 8.38965C9.41374 8.31673 9.20638 8.28027 8.99219 8.28027C8.75065 8.28027 8.52734 8.32129 8.32227 8.40332C8.11719 8.48535 7.93945 8.59928 7.78906 8.74512C7.63867 8.88639 7.52018 9.05501 7.43359 9.25098C7.35156 9.44238 7.31055 9.65202 7.31055 9.87988ZM13.1553 13.7764C13.0915 13.5713 13.0049 13.3229 12.8955 13.0312C12.7907 12.7396 12.6654 12.4274 12.5195 12.0947C12.3783 11.7575 12.2165 11.4134 12.0342 11.0625C11.8564 10.7116 11.6605 10.3766 11.4463 10.0576C11.1318 10.4131 10.806 10.7868 10.4688 11.1787C10.1315 11.5706 9.7806 11.9876 9.41602 12.4297C9.73503 12.6074 10.0677 12.7692 10.4141 12.915C10.765 13.0563 11.1045 13.1839 11.4326 13.2979C11.7653 13.4072 12.0798 13.5029 12.376 13.585C12.6768 13.667 12.9365 13.7308 13.1553 13.7764ZM19.2393 14.7676C19.0023 14.9271 18.7562 15.0547 18.501 15.1504C18.2503 15.2507 18.0088 15.3008 17.7764 15.3008C17.6032 15.3008 17.43 15.2757 17.2568 15.2256C17.0837 15.1755 16.9264 15.0934 16.7852 14.9795C16.6439 14.861 16.5299 14.7061 16.4434 14.5146C16.3522 14.3232 16.3066 14.0863 16.3066 13.8037C16.3066 13.4619 16.3682 13.1338 16.4912 12.8193C16.6143 12.5049 16.7783 12.2132 16.9834 11.9443C17.1885 11.6709 17.4232 11.4225 17.6875 11.1992C17.9518 10.9759 18.223 10.7868 18.501 10.6318C18.7835 10.4723 19.0638 10.3493 19.3418 10.2627C19.6198 10.1761 19.8727 10.1328 20.1006 10.1328C20.3239 10.1328 20.513 10.1579 20.668 10.208C20.8275 10.2536 20.9619 10.3128 21.0713 10.3857C21.1807 10.4541 21.2673 10.5293 21.3311 10.6113C21.3949 10.6934 21.4473 10.7708 21.4883 10.8438L21.8574 10.3584L22.083 10.5088C22.083 10.5133 22.0465 10.5863 21.9736 10.7275C21.9007 10.8643 21.805 11.0488 21.6865 11.2812C21.568 11.5137 21.429 11.7871 21.2695 12.1016C21.1146 12.4115 20.9505 12.7419 20.7773 13.0928C20.6087 13.4437 20.4355 13.806 20.2578 14.1797C20.0846 14.5534 19.9183 14.9202 19.7588 15.2803C20.1735 15.0433 20.5381 14.8154 20.8525 14.5967C21.167 14.3779 21.4473 14.1569 21.6934 13.9336C21.944 13.7103 22.1696 13.4779 22.3701 13.2363C22.5706 12.9948 22.7643 12.7327 22.9512 12.4502L23.2041 12.6416C23.0218 12.9378 22.8236 13.2135 22.6094 13.4688C22.3997 13.7194 22.1514 13.9701 21.8643 14.2207C21.5817 14.4668 21.249 14.722 20.8662 14.9863C20.488 15.2461 20.0368 15.5332 19.5127 15.8477C19.0798 16.9095 18.6628 17.7868 18.2617 18.4795C17.8607 19.1768 17.4801 19.7282 17.1201 20.1338C16.7646 20.5394 16.4342 20.8242 16.1289 20.9883C15.819 21.1523 15.541 21.2344 15.2949 21.2344C15.1947 21.2344 15.0876 21.2207 14.9736 21.1934C14.8551 21.1706 14.7458 21.1227 14.6455 21.0498C14.5452 20.9769 14.4632 20.8766 14.3994 20.749C14.3311 20.6214 14.2969 20.4574 14.2969 20.2568C14.2969 19.874 14.3994 19.4958 14.6045 19.1221C14.805 18.7484 15.099 18.377 15.4863 18.0078C15.8691 17.6387 16.3385 17.2718 16.8945 16.9072C17.4551 16.5426 18.0885 16.1758 18.7949 15.8066C18.8815 15.6107 18.9613 15.4238 19.0342 15.2461C19.1071 15.0729 19.1755 14.9134 19.2393 14.7676ZM19.5947 14.0156C19.7178 13.7832 19.8385 13.5553 19.957 13.332C20.0801 13.1042 20.2054 12.8786 20.333 12.6553C20.4652 12.4274 20.6042 12.195 20.75 11.958C20.9004 11.721 21.0667 11.4749 21.249 11.2197C21.2399 11.1514 21.2171 11.0807 21.1807 11.0078C21.1442 10.9349 21.0941 10.8688 21.0303 10.8096C20.9665 10.7458 20.8844 10.6934 20.7842 10.6523C20.6839 10.6113 20.5654 10.5908 20.4287 10.5908C20.2738 10.5908 20.096 10.6113 19.8955 10.6523C19.6995 10.6934 19.4922 10.764 19.2734 10.8643C19.0547 10.9645 18.8314 11.099 18.6035 11.2676C18.3802 11.4362 18.1615 11.6481 17.9473 11.9033C17.6328 12.277 17.3913 12.6507 17.2227 13.0244C17.054 13.3936 16.9697 13.7308 16.9697 14.0361C16.9697 14.3324 17.0449 14.5579 17.1953 14.7129C17.3457 14.8633 17.5508 14.9385 17.8105 14.9385C18.084 14.9385 18.3734 14.8542 18.6787 14.6855C18.9886 14.5169 19.2939 14.2936 19.5947 14.0156ZM15.2949 20.8857C15.4681 20.8857 15.6481 20.8219 15.835 20.6943C16.0218 20.5667 16.2109 20.3913 16.4023 20.168C16.5938 19.9492 16.7829 19.694 16.9697 19.4023C17.1566 19.1107 17.3411 18.7985 17.5234 18.4658C17.7057 18.1377 17.8789 17.8005 18.043 17.4541C18.2116 17.1077 18.3711 16.7682 18.5215 16.4355C17.8424 16.791 17.2614 17.1602 16.7783 17.543C16.2998 17.9303 15.9079 18.2995 15.6025 18.6504C15.2972 19.0013 15.0762 19.318 14.9395 19.6006C14.7982 19.8831 14.7275 20.0996 14.7275 20.25C14.7275 20.4368 14.7686 20.5895 14.8506 20.708C14.9326 20.8265 15.0807 20.8857 15.2949 20.8857Z" fill="#333333"/>
</svg>
