<svg width="24" height="24" viewBox="0 0 24 24" fill="none" xmlns="http://www.w3.org/2000/svg">
<path d="M2.27007 18.8609C1.95991 18.8379 1.80484 18.7403 1.80484 18.568C1.80484 18.4876 1.8393 18.3899 1.90822 18.2751C1.94268 18.1717 2.00012 18.1028 2.08053 18.0683C2.01161 18.2176 1.97714 18.3383 1.97714 18.4302C1.97714 18.6025 2.11499 18.6886 2.39068 18.6886C3.03396 18.6886 3.84381 18.3899 4.82022 17.7926C4.25735 17.5399 3.97591 17.1666 3.97591 16.6726C3.97591 16.3395 4.11376 16.0006 4.38945 15.656C4.96381 14.9553 5.84258 14.4671 7.02576 14.1914C6.87643 13.7549 6.80176 13.2609 6.80176 12.7095C6.80176 12.0088 6.91663 11.3483 7.14637 10.728C7.51396 9.70564 8.00217 8.92451 8.61099 8.38461C9.1394 7.91364 9.67355 7.67815 10.2135 7.67815C10.604 7.67815 10.9257 7.81026 11.1784 8.07446C11.4311 8.32718 11.5575 8.68328 11.5575 9.14277C11.5575 9.52185 11.4426 9.96985 11.2128 10.4868C10.7189 11.5551 9.85735 12.7038 8.62822 13.9329L9.30022 13.864C9.69079 13.4849 10.0871 13.0656 10.4891 12.6062C10.9027 12.1352 11.3277 11.6297 11.7642 11.0898C12.9704 9.58502 13.5735 8.56267 13.5735 8.02277C13.5735 7.77005 13.4356 7.63795 13.1599 7.62646C13.091 7.62646 13.0565 7.60349 13.0565 7.55754C13.0565 7.5001 13.114 7.47138 13.2288 7.47138C13.7687 7.49436 14.0387 7.71836 14.0387 8.14338C14.0387 8.41908 13.9181 8.79241 13.6768 9.26338C13.7113 9.30933 13.717 9.384 13.6941 9.48738C13.5907 9.91241 13.4586 10.4753 13.2978 11.176C13.1484 11.8652 12.9761 12.6923 12.7808 13.6572C13.6768 13.5194 14.1248 13.1518 14.1248 12.5545C14.1248 12.4741 14.1593 12.4338 14.2282 12.4338C14.2627 12.4338 14.2914 12.4626 14.3144 12.52C14.3488 13.2896 13.8262 13.7606 12.7464 13.9329C12.7004 14.2316 12.666 14.5073 12.643 14.76C12.62 15.0127 12.6085 15.2482 12.6085 15.4665C12.6085 15.6503 12.6143 15.8168 12.6258 15.9662C12.6487 16.1155 12.6717 16.2533 12.6947 16.3797C12.821 16.8966 13.0508 17.1551 13.3839 17.1551C13.6711 17.1551 14.0272 16.9598 14.4522 16.5692C14.5326 16.5003 14.6418 16.3912 14.7796 16.2418C14.9175 16.081 15.0955 15.8857 15.3138 15.656C15.4057 15.5641 15.4688 15.5182 15.5033 15.5182C15.5492 15.5182 15.5722 15.5469 15.5722 15.6043C15.5722 15.6388 15.5607 15.679 15.5378 15.7249C15.3769 15.9317 15.2046 16.127 15.0208 16.3108C14.837 16.4831 14.636 16.6496 14.4178 16.8105C13.9238 17.201 13.4816 17.3963 13.091 17.3963C12.5396 17.3963 12.1835 17 12.0227 16.2074C11.9882 16.0466 11.971 15.857 11.971 15.6388C11.971 15.1793 12.0399 14.6336 12.1778 14.0018C11.8791 14.0133 11.5 14.0306 11.0405 14.0535C10.5925 14.065 10.0699 14.0823 9.47253 14.1052L8.04237 15.4665C8.4674 15.8226 9.01304 16.0006 9.6793 16.0006C10.1388 16.0006 10.4834 15.8857 10.7131 15.656C10.7361 15.6215 10.7648 15.6215 10.7993 15.656C10.8223 15.6905 10.8223 15.7192 10.7993 15.7422C10.5466 15.9949 10.1732 16.1212 9.6793 16.1212C8.97858 16.1212 8.39273 15.9374 7.92176 15.5698C6.76155 16.6611 5.85407 17.4021 5.1993 17.7926C5.53243 17.9534 5.94022 18.0568 6.42268 18.1028C6.50309 18.1143 6.5433 18.1372 6.5433 18.1717C6.5433 18.2291 6.48012 18.2464 6.35376 18.2234C5.82535 18.1659 5.38309 18.0568 5.02699 17.896C3.86678 18.5737 2.94781 18.8954 2.27007 18.8609ZM7.23253 14.1397C7.39335 14.1167 7.5714 14.088 7.76668 14.0535C7.96196 14.0191 8.17448 13.9904 8.40422 13.9674C9.57591 12.7612 10.4375 11.5838 10.9888 10.4351C11.2301 9.92964 11.3507 9.4759 11.3507 9.07385C11.3507 8.68328 11.2416 8.37313 11.0233 8.14338C10.8165 7.91364 10.5523 7.79877 10.2307 7.79877C9.74822 7.79877 9.26002 8.02851 8.76607 8.488C8.21468 9.01641 7.76094 9.76882 7.40484 10.7452C7.16361 11.4 7.04299 12.0892 7.04299 12.8129C7.04299 13.0656 7.06022 13.3011 7.09468 13.5194C7.12914 13.7376 7.17509 13.9444 7.23253 14.1397ZM9.79991 13.8295C9.94925 13.8066 10.1273 13.7893 10.3341 13.7778C10.5408 13.7664 10.7706 13.7606 11.0233 13.7606C11.322 13.7491 11.5747 13.7434 11.7815 13.7434C11.9882 13.7434 12.1376 13.7376 12.2295 13.7262C12.2984 13.4505 12.3845 13.1403 12.4879 12.7957C12.5913 12.4511 12.7004 12.0777 12.8153 11.6757L13.3839 9.79754C12.9129 10.5557 12.3616 11.2679 11.7298 11.9342C11.5689 12.1179 11.322 12.3649 10.9888 12.6751C10.6672 12.9852 10.2709 13.3701 9.79991 13.8295ZM7.83561 15.2769L8.99007 14.1742L8.23191 14.312L7.57714 14.9323C7.62309 14.9897 7.6633 15.0472 7.69776 15.1046C7.74371 15.1621 7.78966 15.2195 7.83561 15.2769ZM7.50822 14.8117C7.58863 14.7428 7.6633 14.6738 7.73222 14.6049C7.81263 14.536 7.89304 14.4613 7.97345 14.3809C7.87007 14.4039 7.76668 14.4326 7.6633 14.4671C7.55991 14.4901 7.46227 14.5188 7.37037 14.5532L7.50822 14.8117ZM5.00976 17.6892C5.31991 17.4939 5.69899 17.2068 6.14699 16.8277C6.60648 16.4371 7.13489 15.9547 7.73222 15.3803C7.62884 15.2654 7.5312 15.1506 7.4393 15.0357L7.31868 15.1391C6.43417 15.8857 5.93448 16.2591 5.81961 16.2591C5.78514 16.2591 5.76791 16.2418 5.76791 16.2074C5.75643 16.1844 5.76217 16.1614 5.78514 16.1385C6.23314 15.8513 6.76155 15.4492 7.37037 14.9323C7.31294 14.8404 7.2555 14.7313 7.19807 14.6049C6.56627 14.8117 5.99766 15.0931 5.49222 15.4492C4.82596 15.9087 4.49284 16.3739 4.49284 16.8449C4.49284 17.1436 4.66514 17.425 5.00976 17.6892ZM11.8287 22.7551C11.3003 22.7551 10.8753 22.6172 10.5536 22.3415C10.232 22.0773 10.0712 21.7327 10.0712 21.3077C10.0712 20.8252 10.3239 20.3141 10.8293 19.7742C11.3807 19.1883 12.1848 18.6599 13.2416 18.1889C14.2984 17.7179 15.6769 17.2642 17.377 16.8277L17.6527 15.4837L17.3942 15.7422C17.2104 15.9259 17.0554 16.081 16.929 16.2074C16.8141 16.3223 16.7108 16.4084 16.6189 16.4658C16.2628 16.7301 15.9641 16.8622 15.7229 16.8622C15.4012 16.8622 15.2404 16.6554 15.2404 16.2418C15.2404 15.6445 15.6884 15.0012 16.5844 14.312C17.3196 13.7376 18.049 13.4505 18.7727 13.4505C19.3471 13.4505 19.6342 13.617 19.6342 13.9502C19.6342 14.0995 19.5538 14.2833 19.393 14.5015C19.3585 14.536 19.3298 14.5532 19.3069 14.5532C19.2609 14.5532 19.2379 14.5303 19.2379 14.4843C19.2379 14.4613 19.2494 14.4384 19.2724 14.4154C19.3873 14.289 19.4447 14.1684 19.4447 14.0535C19.4447 13.8238 19.192 13.7089 18.6865 13.7089C18.0318 13.7089 17.3713 14.0248 16.705 14.6566C16.0962 15.2425 15.7918 15.7249 15.7918 16.104C15.7918 16.2533 15.8664 16.328 16.0158 16.328C16.1307 16.328 16.2628 16.2878 16.4121 16.2074C16.8256 16.0236 17.176 15.7651 17.4632 15.432C17.578 15.2827 17.6757 15.0587 17.7561 14.76C17.8135 14.5188 17.848 14.312 17.8595 14.1397C17.8939 14.0018 18.026 13.9329 18.2558 13.9329C18.4625 13.9329 18.5659 13.9846 18.5659 14.088C18.5659 14.2718 18.52 14.5819 18.4281 15.0185C18.3362 15.4435 18.2098 15.9949 18.049 16.6726C18.1294 16.6496 18.2041 16.6382 18.273 16.6382C18.3419 16.6382 18.4109 16.6382 18.4798 16.6382C18.5257 16.6382 18.5717 16.6382 18.6176 16.6382C18.6636 16.6382 18.7095 16.6439 18.7555 16.6554C19.2954 16.7243 19.5653 16.9024 19.5653 17.1895C19.5653 17.3848 19.4562 17.5744 19.2379 17.7582C19.2264 17.7926 19.1977 17.8098 19.1518 17.8098C19.1058 17.8098 19.0829 17.7926 19.0829 17.7582C19.0829 17.7122 19.1001 17.6835 19.1345 17.672C19.2839 17.5227 19.3585 17.3906 19.3585 17.2757C19.3585 17.0459 19.1231 16.9311 18.6521 16.9311C18.5717 16.9311 18.474 16.9368 18.3592 16.9483C18.2443 16.9598 18.1122 16.977 17.9629 17C17.5263 18.6197 16.8256 19.912 15.8607 20.8769C15.3208 21.4283 14.7062 21.8706 14.017 22.2037C13.2474 22.5713 12.5179 22.7551 11.8287 22.7551ZM12.2078 22.4277C13.1612 22.4277 14.1089 22.0199 15.0509 21.2043C16.1536 20.2164 16.906 18.8609 17.3081 17.1378C16.9175 17.2412 16.5729 17.3331 16.2742 17.4135C15.9871 17.5054 15.7401 17.5858 15.5333 17.6548C15.1083 17.7811 14.712 17.9132 14.3444 18.0511C13.9768 18.1889 13.6379 18.3268 13.3278 18.4646C12.4433 18.8667 11.7713 19.3376 11.3118 19.8775C10.9097 20.3485 10.7087 20.8137 10.7087 21.2732C10.7087 21.6293 10.8465 21.9108 11.1222 22.1175C11.3979 22.3243 11.7598 22.4277 12.2078 22.4277Z" fill="#888888"/>
</svg>
