<svg width="24" height="24" viewBox="0 0 24 24" fill="none" xmlns="http://www.w3.org/2000/svg">
<path d="M12.8908 16H8.83075L8.60675 14.67H7.51475L7.27675 16H3.35675L5.05075 7.306H11.1968L12.8908 16ZM8.29875 12.808V11.072H7.85075V12.808H8.29875ZM16.0693 9.126H20.5353V10.876H19.8213V10.946C20.0546 11.198 20.1713 11.5433 20.1713 11.982C20.1713 12.682 19.9613 13.2 19.5413 13.536C19.1306 13.8627 18.4633 14.026 17.5393 14.026H15.7193V14.278H18.5053C19.1773 14.278 19.6673 14.3993 19.9753 14.642C20.2833 14.8847 20.4373 15.258 20.4373 15.762C20.4373 16.5087 20.0826 17.078 19.3733 17.47C18.6733 17.862 17.656 18.058 16.3213 18.058C14.576 18.058 13.5213 17.8433 13.1573 17.414C12.9986 17.2273 12.9193 16.966 12.9193 16.63C12.9193 16.294 13.106 16.042 13.4793 15.874V15.818C13.0313 15.6313 12.8073 15.2813 12.8073 14.768C12.8073 14.1427 13.1573 13.718 13.8573 13.494V13.424C13.1946 13.004 12.8633 12.374 12.8633 11.534C12.8633 10.6847 13.1293 10.0733 13.6613 9.7C14.2026 9.31733 15.0053 9.126 16.0693 9.126ZM15.7193 16.098V16.35H17.7213V16.098H15.7193ZM16.5033 11.24V12.57H16.7833V11.24H16.5033Z" fill="#888888"/>
</svg>
