<svg width="24" height="24" viewBox="0 0 24 24" fill="none" xmlns="http://www.w3.org/2000/svg">
<path d="M12.3488 16H9.4088L9.1288 14.656H7.5748L7.2808 16H4.4668L6.2728 7.306H10.5428L12.3488 16ZM8.9188 12.85L8.3868 9.938H8.3308L7.7848 12.85H8.9188ZM15.7295 9.126H19.5375V10.834H18.5015V10.89C18.7908 11.114 18.9355 11.4453 18.9355 11.884C18.9355 13.3493 17.9928 14.082 16.1075 14.082H15.2255C15.1508 14.082 15.1135 14.124 15.1135 14.208C15.1135 14.292 15.1508 14.334 15.2255 14.334H17.4515C18.6461 14.334 19.2435 14.8193 19.2435 15.79C19.2435 17.302 18.0628 18.058 15.7015 18.058C14.7495 18.058 14.0121 17.9507 13.4895 17.736C12.9668 17.5213 12.7055 17.134 12.7055 16.574C12.7055 16.266 12.8688 16.0373 13.1955 15.888V15.832C12.7661 15.608 12.5515 15.2347 12.5515 14.712C12.5515 14.1893 12.9061 13.7833 13.6155 13.494C12.9621 13.0273 12.6355 12.3833 12.6355 11.562C12.6355 10.7313 12.9061 10.12 13.4475 9.728C13.9888 9.32667 14.7495 9.126 15.7295 9.126ZM15.8555 11.268C15.6128 11.268 15.4915 11.5013 15.4915 11.968C15.4915 12.4347 15.6221 12.668 15.8835 12.668C16.1261 12.668 16.2475 12.4393 16.2475 11.982C16.2475 11.73 16.2195 11.548 16.1635 11.436C16.1075 11.324 16.0048 11.268 15.8555 11.268ZM15.1135 16.406H16.7095C16.7935 16.406 16.8355 16.3733 16.8355 16.308V16.224C16.8355 16.1587 16.7935 16.126 16.7095 16.126H15.1135C15.0481 16.126 15.0155 16.1587 15.0155 16.224V16.308C15.0155 16.3733 15.0481 16.406 15.1135 16.406Z" fill="#333333"/>
</svg>
