<svg width="24" height="24" viewBox="0 0 24 24" fill="none" xmlns="http://www.w3.org/2000/svg">
<path d="M8.76858 7.774C8.29258 7.774 7.85391 8.17067 7.45258 8.964C7.11658 9.608 6.70591 10.8633 6.22058 12.73C5.72591 14.634 5.47858 15.9173 5.47858 16.58C5.47858 16.8507 5.63724 16.986 5.95458 16.986C6.27191 16.986 6.44924 16.8973 6.48658 16.72C6.78524 14.6013 7.01391 13.4673 7.17258 13.318C7.20991 13.2807 7.33124 13.262 7.53658 13.262C7.69524 13.262 8.11058 13.2993 8.78258 13.374C9.41724 13.4487 9.79058 13.5187 9.90258 13.584C9.97724 13.6307 10.1266 14.2467 10.3506 15.432L10.5606 16.51C10.5979 16.6873 10.6726 16.818 10.7846 16.902C10.9059 16.9767 11.0412 17.014 11.1906 17.014C11.4332 17.014 11.5826 16.958 11.6386 16.846C11.6946 16.7247 11.7132 16.6127 11.6946 16.51C11.1346 13.2713 10.5606 10.8867 9.97258 9.356C9.72991 8.74 9.52458 8.31533 9.35658 8.082C9.20725 7.87667 9.01125 7.774 8.76858 7.774ZM8.71258 9.328C8.87125 9.328 9.07658 9.78067 9.32858 10.686C9.58058 11.582 9.70658 12.0953 9.70658 12.226C9.70658 12.338 9.69724 12.4127 9.67858 12.45C9.65991 12.4687 9.58991 12.478 9.46858 12.478C9.20725 12.478 8.84324 12.45 8.37658 12.394C7.86324 12.338 7.56924 12.2727 7.49458 12.198C7.47591 12.1793 7.46658 12.1467 7.46658 12.1C7.46658 11.8947 7.63924 11.386 7.98458 10.574C8.33924 9.74333 8.58191 9.328 8.71258 9.328ZM15.6465 10.546C14.7505 10.546 13.9992 10.8633 13.3925 11.498C12.7952 12.1233 12.4965 12.9587 12.4965 14.004C12.4965 14.4893 12.5852 14.9653 12.7625 15.432C12.9492 15.8893 13.2152 16.272 13.5605 16.58C13.9245 16.888 14.3258 17.042 14.7645 17.042C15.1938 17.042 15.6325 16.8973 16.0805 16.608C16.1085 16.7667 16.1598 16.8787 16.2345 16.944C16.3092 17 16.4165 17.028 16.5565 17.028C16.7058 17.028 16.8085 17.0047 16.8645 16.958C16.9298 16.9113 16.9718 16.8273 16.9905 16.706C17.0278 16.5287 17.0465 16.286 17.0465 15.978V15.656C17.0465 15.1427 16.9765 14.6013 16.8365 14.032C16.7618 13.7893 16.5798 13.612 16.2905 13.5C16.0945 13.4253 15.8472 13.388 15.5485 13.388L15.1565 13.402C14.8578 13.43 14.7085 13.612 14.7085 13.948C14.7085 14.116 14.7785 14.228 14.9185 14.284C15.0678 14.34 15.3432 14.368 15.7445 14.368C15.9218 14.368 16.0105 14.6107 16.0105 15.096C16.0105 15.376 15.8985 15.6093 15.6745 15.796C15.4598 15.9733 15.1798 16.062 14.8345 16.062C14.4985 16.062 14.1952 15.8567 13.9245 15.446C13.6632 15.0447 13.5325 14.5453 13.5325 13.948C13.5325 13.3413 13.7192 12.7953 14.0925 12.31C14.4752 11.8153 14.9605 11.568 15.5485 11.568C15.7818 11.568 16.0478 11.638 16.3465 11.778C16.5332 11.8527 16.6592 11.89 16.7245 11.89C16.8645 11.89 16.9858 11.8433 17.0885 11.75C17.1912 11.6567 17.2425 11.5447 17.2425 11.414C17.2425 11.1713 17.0745 10.966 16.7385 10.798C16.4025 10.63 16.0385 10.546 15.6465 10.546Z" fill="#333333"/>
</svg>
