<svg width="24" height="24" viewBox="0 0 24 24" fill="none" xmlns="http://www.w3.org/2000/svg">
<path d="M4.96828 7.368H9.22428L12.0103 17H8.72028L8.35628 15.152H5.86428L5.45828 17H2.30828L4.96828 7.368ZM8.02028 13.43L7.11028 9.216L6.15828 13.43H8.02028ZM16.6893 20.206C16.176 20.206 15.686 20.1547 15.2193 20.052L15.4433 17.98C15.8073 18.036 16.1433 18.064 16.4513 18.064C17.03 18.064 17.4687 17.8913 17.7673 17.546C18.066 17.21 18.2433 16.6407 18.2993 15.838C17.7487 16.6127 16.9087 17 15.7793 17C15.1633 17 14.594 16.8413 14.0713 16.524C13.558 16.2067 13.1473 15.7773 12.8393 15.236C12.5407 14.6947 12.3913 14.102 12.3913 13.458C12.3913 12.8047 12.5407 12.2073 12.8393 11.666C13.138 11.1153 13.544 10.6813 14.0573 10.364C14.58 10.0467 15.1493 9.888 15.7653 9.888C16.3347 9.888 16.8293 10.0373 17.2493 10.336C17.6787 10.6253 17.9587 11.0173 18.0893 11.512V9.888H21.0433V15.222C21.0433 16.8553 20.67 18.092 19.9233 18.932C19.186 19.7813 18.108 20.206 16.6893 20.206ZM16.6893 14.9C17.0627 14.9 17.3847 14.7693 17.6553 14.508C17.926 14.2373 18.0707 13.92 18.0893 13.556V13.444C18.0707 13.0893 17.9213 12.7767 17.6413 12.506C17.3707 12.2353 17.0533 12.1 16.6893 12.1C16.3067 12.1 15.98 12.24 15.7093 12.52C15.4387 12.7907 15.3033 13.1173 15.3033 13.5C15.3033 13.8827 15.4387 14.214 15.7093 14.494C15.98 14.7647 16.3067 14.9 16.6893 14.9Z" fill="#888888"/>
</svg>
