<svg width="24" height="24" viewBox="0 0 24 24" fill="none" xmlns="http://www.w3.org/2000/svg">
<path d="M1.64535 14.896L1.83244 14.7521L1.84683 14.4498C2.08669 13.8646 2.33135 13.3033 2.5808 12.766C2.83984 12.2288 3.10848 11.6771 3.38672 11.111C3.47307 10.9287 3.55942 10.7464 3.64576 10.5641C3.74171 10.3819 3.83285 10.1948 3.9192 10.0029C3.90961 9.9645 3.90481 9.92612 3.90481 9.88775C3.90481 9.83977 3.91441 9.78701 3.93359 9.72944C4.06791 9.53755 4.17345 9.36486 4.25021 9.21135C4.33655 9.05784 4.41811 8.89953 4.49486 8.73643C4.58121 8.54454 4.67235 8.35266 4.7683 8.16077C4.87384 7.96889 5.00336 7.7818 5.15687 7.5995L5.25761 7.45559L5.41591 7.46998C5.45429 7.45079 5.49267 7.4364 5.53104 7.42681C5.57902 7.40762 5.63658 7.39802 5.70374 7.39802L5.96279 7.4412C6.2794 7.29728 6.55763 7.09101 6.79749 6.82237C7.04694 6.54413 7.2964 6.21313 7.54585 5.82936L7.71854 5.5847L7.94881 5.72862C7.99678 5.7574 8.07353 5.78618 8.17907 5.81497C8.28461 5.84375 8.39494 5.87733 8.51007 5.91571C8.71155 5.96368 8.90824 6.02124 9.10012 6.0884C9.29201 6.14597 9.44072 6.22752 9.54626 6.33306L9.61822 6.46258C9.6374 6.56812 9.6518 6.66406 9.66139 6.75041C9.68058 6.83676 9.69977 6.92311 9.71896 7.00946C9.75733 7.21094 9.79091 7.41242 9.8197 7.6139C9.84848 7.80578 9.86767 8.02165 9.87726 8.26151C9.92523 8.4534 9.96841 8.65008 10.0068 8.85156C10.0548 9.04345 10.0979 9.23533 10.1363 9.42722C10.1843 9.70545 10.237 9.97409 10.2946 10.2331C10.3522 10.4826 10.4289 10.7224 10.5249 10.9527C10.6208 10.9527 10.6784 10.9575 10.6976 10.9671C10.8127 10.9191 10.947 10.8903 11.1005 10.8808L11.2876 10.8664L11.3452 11.0391C11.3644 11.0678 11.3884 11.0966 11.4171 11.1254C11.4459 11.1542 11.4795 11.183 11.5179 11.2118C11.6714 11.2214 11.7817 11.2549 11.8489 11.3125C11.9256 11.3605 11.988 11.4084 12.036 11.4564C12.0552 11.4756 12.0792 11.4996 12.1079 11.5284C12.1367 11.5476 12.1607 11.562 12.1799 11.5715L12.4389 11.6723L12.295 11.9457C12.1895 12.1472 12.0264 12.3439 11.8057 12.5358C11.5946 12.7277 11.3548 12.886 11.0861 13.0107C11.1053 13.0778 11.1149 13.1402 11.1149 13.1978C11.1245 13.2553 11.1389 13.3225 11.1581 13.3993C11.1965 13.5911 11.2253 13.7926 11.2444 14.0037C11.2732 14.2052 11.2732 14.4163 11.2444 14.6369C11.1485 14.8864 11.0334 15.1118 10.8991 15.3133C10.7743 15.5052 10.6208 15.6827 10.4385 15.8458C10.2658 15.9993 10.0691 16.1288 9.84848 16.2344C9.62781 16.3303 9.39755 16.3831 9.15769 16.3927C9.02337 16.3639 8.92263 16.3303 8.85547 16.2919C8.7979 16.2536 8.74513 16.2152 8.69716 16.1768C8.62041 16.1192 8.55805 16.0809 8.51007 16.0617L8.32299 15.9753L8.38055 15.7595C8.40933 15.6827 8.40454 15.6155 8.36616 15.558C8.33738 15.5004 8.27022 15.4237 8.16468 15.3277C8.1263 15.2989 8.09272 15.2701 8.06394 15.2414C8.03516 15.203 8.00158 15.1646 7.9632 15.1262L7.67537 14.7952L8.15029 14.6657C8.43812 14.589 8.63 14.493 8.72595 14.3779C8.82189 14.2532 8.86027 14.0373 8.84108 13.7303C8.60122 13.6823 8.40454 13.6775 8.25103 13.7159C8.09752 13.7447 7.94401 13.7782 7.7905 13.8166C7.56983 13.8742 7.35396 13.9269 7.14289 13.9749C6.93181 14.0133 6.70155 14.0325 6.4521 14.0325C6.28899 14.0325 6.1163 14.0181 5.93401 13.9893L5.7757 13.9749L5.73252 13.8166C5.73252 13.7974 5.71813 13.7782 5.68935 13.759C5.67016 13.7303 5.65097 13.7063 5.63178 13.6871C5.58381 13.6295 5.52625 13.5528 5.45909 13.4568C5.39193 13.3609 5.37754 13.241 5.41591 13.097C5.34875 12.9915 5.31038 12.8812 5.30078 12.766C5.2624 12.8428 5.22882 12.9195 5.20004 12.9963C5.18085 13.0635 5.16166 13.1306 5.14248 13.1978L5.08491 13.3849L4.89782 13.4137C4.87863 13.4328 4.85944 13.4616 4.84026 13.5C4.83066 13.5384 4.83066 13.5672 4.84026 13.5863L4.89782 13.7447L4.75391 13.8742C4.73472 13.903 4.71073 13.9269 4.68195 13.9461C4.65317 13.9653 4.62918 13.9845 4.60999 14.0037C4.5908 14.1092 4.56202 14.21 4.52364 14.3059C4.49486 14.4019 4.46128 14.4978 4.4229 14.5937C4.37493 14.7473 4.32696 14.896 4.27899 15.0399C4.24061 15.1838 4.22142 15.3277 4.22142 15.4716L4.16386 15.6587C4.11589 15.7355 4.05352 15.793 3.97677 15.8314C3.90961 15.8698 3.84245 15.9034 3.77529 15.9322C3.67934 15.9705 3.61218 16.0089 3.57381 16.0473L3.53063 16.2344L3.31476 16.2632C3.19004 16.2919 3.09889 16.3111 3.04132 16.3207C2.99335 16.3303 2.93579 16.3351 2.86863 16.3351L2.68154 16.3207C2.56641 16.2056 2.47046 16.1192 2.39371 16.0617C2.32655 15.9945 2.245 15.937 2.14905 15.889L2.06271 15.7738C2.02433 15.6971 2.00034 15.6299 1.99075 15.5724C1.98115 15.5052 1.96676 15.438 1.94757 15.3709C1.92839 15.2462 1.8996 15.1598 1.86123 15.1118L1.64535 14.896ZM6.23623 11.1542C6.10191 11.3461 5.97238 11.5476 5.84766 11.7586C5.91482 11.749 5.97718 11.7442 6.03475 11.7442C6.10191 11.7442 6.16907 11.7394 6.23623 11.7299C6.57203 11.7107 6.88384 11.6867 7.17167 11.6579C7.4595 11.6291 7.77131 11.5811 8.10711 11.514C8.03036 11.159 7.94401 10.7992 7.84807 10.4346C7.76172 10.0604 7.66578 9.68626 7.56024 9.31209L7.48828 9.456C7.24842 9.71505 7.01816 9.99328 6.79749 10.2907C6.57682 10.5881 6.39453 10.8712 6.25062 11.1398L6.23623 11.1542ZM22.5705 13.6727C22.3403 14.0853 22.038 14.4067 21.6639 14.6369C21.2897 14.8576 20.8771 15.0447 20.4262 15.1982C19.9753 15.3421 19.5003 15.4716 19.0014 15.5868C18.5121 15.7019 18.0372 15.8506 17.5767 16.0329C17.4424 16.0329 17.3224 16.0377 17.2169 16.0473C17.121 16.0569 17.025 16.0713 16.9291 16.0905C16.8427 16.1001 16.7564 16.1144 16.67 16.1336C16.5837 16.1432 16.4877 16.1528 16.3822 16.1624C16.3438 16.1528 16.3198 16.1624 16.3102 16.1912C16.3006 16.2104 16.2863 16.2296 16.2671 16.2488C16.104 16.2775 15.9553 16.2919 15.8209 16.2919C15.6962 16.2919 15.5907 16.2919 15.5043 16.2919C15.3892 16.2919 15.2693 16.3063 15.1445 16.3351C15.0294 16.3735 14.9239 16.3879 14.8279 16.3783C14.1083 16.3399 13.5423 16.0857 13.1297 15.6155C12.7268 15.1358 12.5013 14.4738 12.4533 13.6295C12.4629 13.5816 12.4533 13.5528 12.4245 13.5432C12.4054 13.5336 12.3862 13.5192 12.367 13.5C12.367 13.4041 12.3766 13.3225 12.3958 13.2553C12.4245 13.1882 12.4293 13.1018 12.4102 12.9963C12.6596 12.4686 12.9426 11.9793 13.2593 11.5284C13.5759 11.0678 13.9548 10.6649 14.3962 10.3195C14.4633 10.2619 14.5209 10.2044 14.5689 10.1468C14.6168 10.0892 14.66 10.0317 14.6984 9.97409C14.7464 9.91653 14.7991 9.86856 14.8567 9.83018C14.9143 9.78221 14.9862 9.74863 15.0726 9.72944C15.2741 9.49918 15.5139 9.2881 15.7921 9.09622C16.0704 8.90433 16.363 8.72204 16.67 8.54934C16.977 8.36705 17.2793 8.18955 17.5767 8.01686C17.8837 7.83457 18.1619 7.63309 18.4114 7.41242C18.5169 7.46039 18.5937 7.47478 18.6417 7.45559C18.6896 7.4364 18.7424 7.4364 18.8 7.45559C18.8671 7.5995 18.9583 7.70025 19.0734 7.75781C19.1981 7.81538 19.3181 7.87774 19.4332 7.9449C19.5579 8.00247 19.673 8.07442 19.7786 8.16077C19.8841 8.24712 19.9657 8.36225 20.0232 8.50617C19.9657 8.50617 19.9369 8.53015 19.9369 8.57812C19.9465 8.6165 19.9609 8.65968 19.9801 8.70765C19.9992 8.74602 20.004 8.7892 19.9945 8.83717C19.9945 8.87555 19.9609 8.89474 19.8937 8.89474C19.9033 8.94271 19.9321 8.97149 19.9801 8.98108C20.0376 8.98108 20.0664 9.00507 20.0664 9.05304C20.0664 9.10101 20.052 9.13939 20.0232 9.16817C20.004 9.19696 20.004 9.24493 20.0232 9.31209C19.8313 9.43681 19.6155 9.55674 19.3756 9.67187C19.1454 9.78701 18.9007 9.91173 18.6417 10.0461C18.3922 10.1708 18.1284 10.3099 17.8501 10.4634C17.5815 10.6073 17.3176 10.7752 17.0586 10.9671C16.7995 11.159 16.5357 11.3749 16.2671 11.6147C15.9984 11.845 15.7394 12.0896 15.4899 12.3487C15.2405 12.6077 15.0054 12.8764 14.7847 13.1546C14.5641 13.4232 14.377 13.6919 14.2235 13.9605C14.2427 14.0085 14.2619 14.0469 14.281 14.0757C14.3098 14.0948 14.3338 14.1284 14.353 14.1764C14.66 14.1956 14.9431 14.1956 15.2021 14.1764C15.4707 14.1476 15.7394 14.162 16.008 14.2196C16.0368 14.2004 16.056 14.1716 16.0656 14.1332C16.0752 14.0948 16.0992 14.0661 16.1375 14.0469C16.6844 13.9893 17.1929 13.903 17.663 13.7878C18.1332 13.6631 18.6129 13.5336 19.1022 13.3993C19.0254 13.3705 18.9535 13.3465 18.8863 13.3273C18.8287 13.2985 18.7712 13.2745 18.7136 13.2553C18.6656 13.2074 18.6656 13.169 18.7136 13.1402C18.7712 13.1018 18.8191 13.0635 18.8575 13.0251C18.7232 12.9483 18.6129 12.8524 18.5265 12.7373C18.4498 12.6221 18.4018 12.4686 18.3826 12.2767C18.4402 12.2288 18.469 12.1712 18.469 12.104C18.469 12.0369 18.4402 11.9841 18.3826 11.9457C18.3442 11.9361 18.3202 11.9361 18.3107 11.9457C18.3011 11.9553 18.2915 11.9697 18.2819 11.9889C18.2819 12.0081 18.2771 12.0273 18.2675 12.0465C18.2579 12.0561 18.2339 12.0513 18.1955 12.0321C18.2051 11.9457 18.2243 11.8738 18.2531 11.8162C18.2915 11.7586 18.3202 11.6915 18.3394 11.6147L19.3324 10.9527C19.438 11.0295 19.5675 11.1158 19.721 11.2118C19.8745 11.2981 20.0328 11.3893 20.1959 11.4852C20.3686 11.5715 20.5413 11.6627 20.714 11.7586C20.8963 11.845 21.0642 11.9313 21.2177 12.0177C21.352 12.0752 21.472 12.152 21.5775 12.2479C21.683 12.3439 21.7838 12.4446 21.8797 12.5502C21.9757 12.6461 22.0716 12.742 22.1676 12.838C22.2731 12.9339 22.393 13.0155 22.5273 13.0826C22.5082 13.2074 22.513 13.3081 22.5417 13.3849C22.5705 13.4616 22.5801 13.5576 22.5705 13.6727Z" fill="#888888"/>
</svg>
