<svg width="24" height="24" viewBox="0 0 24 24" fill="none" xmlns="http://www.w3.org/2000/svg">
<path d="M7.00714 18.558C6.05714 18.558 5.30981 18.2477 4.76514 17.627C4.22048 17.0063 3.94814 16.2147 3.94814 15.252C3.94814 13.7067 4.60048 12.2817 5.90514 10.977C6.84248 10.0397 7.81781 9.571 8.83114 9.571C10.0345 9.571 10.6361 10.16 10.6361 11.338C10.6361 11.6927 10.5728 12.0663 10.4461 12.459C10.2815 13.0037 10.0661 13.276 9.80014 13.276C9.69881 13.276 9.64814 13.219 9.64814 13.105C9.64814 13.0543 9.72414 12.839 9.87614 12.459C10.0155 12.0663 10.0851 11.7623 10.0851 11.547C10.0851 11.1417 9.96481 10.7933 9.72415 10.502C9.48348 10.198 9.16681 10.046 8.77414 10.046C8.10281 10.046 7.43781 10.3183 6.77914 10.863C6.48781 11.1037 6.22181 11.3633 5.98114 11.642C5.75314 11.9207 5.55048 12.2247 5.37314 12.554C4.91714 13.4027 4.68914 14.3527 4.68914 15.404C4.68914 16.1893 4.86014 16.81 5.20214 17.266C5.60748 17.798 6.18381 18.064 6.93114 18.064C7.86848 18.064 8.95781 17.4813 10.1991 16.316C10.7945 15.7587 11.6558 14.7833 12.7831 13.39C12.7325 13.39 12.6565 13.39 12.5551 13.39C12.4538 13.3773 12.3208 13.3647 12.1561 13.352L11.9661 13.333H11.9281C12.1181 13.4217 12.2131 13.4913 12.2131 13.542C12.2131 13.618 12.1245 13.656 11.9471 13.656C11.4405 13.656 11.1871 13.5293 11.1871 13.276C11.1871 12.934 11.3391 12.763 11.6431 12.763C11.8078 12.763 12.0611 12.782 12.4031 12.82C12.7451 12.858 12.9985 12.877 13.1631 12.877C13.4038 12.5857 13.6571 12.2563 13.9231 11.889C14.2018 11.509 14.4995 11.091 14.8161 10.635L16.4121 8.336C16.8935 7.652 17.2481 7.31 17.4761 7.31C17.7421 7.31 17.8751 7.652 17.8751 8.336C17.8751 8.64 17.8181 8.84267 17.7041 8.944C17.5521 9.096 17.4065 9.31767 17.2671 9.609C17.0265 10.1283 16.8048 10.6603 16.6021 11.205C16.4121 11.7497 16.2348 12.3133 16.0701 12.896H16.7161C16.7668 12.896 16.8175 12.896 16.8681 12.896C16.9315 12.8833 17.0075 12.877 17.0961 12.877H17.3621C17.6915 12.877 17.8561 12.9277 17.8561 13.029C17.8561 13.2063 17.2165 13.3457 15.9371 13.447C15.8358 13.8777 15.7598 14.2703 15.7091 14.625C15.6585 14.967 15.6331 15.2773 15.6331 15.556C15.6331 16.278 15.8105 16.734 16.1651 16.924C16.2158 16.9493 16.2538 16.962 16.2791 16.962C16.3678 16.962 16.4755 16.8987 16.6021 16.772C16.7288 16.6453 16.8111 16.582 16.8491 16.582C16.9378 16.582 16.9821 16.658 16.9821 16.81C16.9821 17.0127 16.8491 17.171 16.5831 17.285C16.3551 17.3863 16.1335 17.437 15.9181 17.437C15.3481 17.437 15.0631 16.962 15.0631 16.012C15.0631 15.3533 15.1771 14.5047 15.4051 13.466L13.3721 13.428C10.8135 16.848 8.69181 18.558 7.00714 18.558ZM15.4811 12.915C15.7598 11.7623 16.1335 10.578 16.6021 9.362C16.1081 9.94467 15.6268 10.5337 15.1581 11.129C14.6895 11.7117 14.2335 12.3007 13.7901 12.896H14.1321C14.2335 12.896 14.3221 12.9023 14.3981 12.915C14.4868 12.915 14.5628 12.915 14.6261 12.915H15.4811ZM15.6478 23.042C15.2298 23.042 15.0208 22.738 15.0208 22.13C15.0208 21.1673 15.5148 20.135 16.5028 19.033C17.4148 18.0323 18.3585 17.3483 19.3338 16.981L20.1698 14.929C19.2452 16.3857 18.4535 17.114 17.7948 17.114C17.4275 17.114 17.2438 16.848 17.2438 16.316C17.2438 15.4927 17.6175 14.4603 18.3648 13.219C19.1882 11.889 19.9735 11.224 20.7208 11.224C21.1388 11.224 21.3478 11.414 21.3478 11.794C21.3478 12.1487 21.2782 12.326 21.1388 12.326H21.1008C21.0502 12.25 20.9552 12.212 20.8158 12.212C20.4358 12.212 20.0052 12.459 19.5238 12.953C19.1312 13.3457 18.8145 13.7637 18.5738 14.207C17.9785 15.2583 17.6808 15.9993 17.6808 16.43C17.6808 16.5947 17.7378 16.677 17.8518 16.677C18.2065 16.677 18.8272 16.107 19.7138 14.967C20.5625 13.865 21.0502 13.0797 21.1768 12.611V12.592C21.3922 12.4527 21.5758 12.383 21.7278 12.383C21.8418 12.383 21.8988 12.44 21.8988 12.554C21.8988 12.592 21.8862 12.6427 21.8608 12.706C21.8355 12.7693 21.8038 12.8517 21.7658 12.953L19.9418 16.848C19.9925 16.8353 20.0368 16.829 20.0748 16.829C20.1255 16.8163 20.1762 16.81 20.2268 16.81C20.5942 16.81 20.7778 17.0253 20.7778 17.456C20.7778 17.684 20.7335 17.798 20.6448 17.798C20.5055 17.798 20.4485 17.7283 20.4738 17.589V17.551C20.4738 17.285 20.3472 17.152 20.0938 17.152C19.9672 17.152 19.8532 17.1773 19.7518 17.228C19.7138 17.38 19.6252 17.6143 19.4858 17.931C19.3465 18.2603 19.1818 18.615 18.9918 18.995C18.8145 19.375 18.6372 19.7297 18.4598 20.059C18.2952 20.3883 18.1622 20.6353 18.0608 20.8C17.1362 22.2947 16.3318 23.042 15.6478 23.042ZM15.5338 22.643C15.7998 22.643 16.2938 22.187 17.0158 21.275C17.8012 20.287 18.5232 18.995 19.1818 17.399C18.1812 17.893 17.4022 18.4947 16.8448 19.204C16.5535 19.584 16.2432 20.0843 15.9138 20.705C15.5465 21.4143 15.3628 21.9717 15.3628 22.377C15.3628 22.5543 15.4198 22.643 15.5338 22.643Z" fill="#888888"/>
</svg>
