<svg width="24" height="24" viewBox="0 0 24 24" fill="none" xmlns="http://www.w3.org/2000/svg">
<path d="M3.56762 16C3.63296 15.5707 3.74029 15.3327 3.88962 15.286L4.49163 15.062L8.39763 7.208C8.47229 7.05867 8.61696 6.96067 8.83163 6.914C9.05563 6.858 9.23296 6.83 9.36363 6.83C9.57829 6.83 9.76496 6.85333 9.92363 6.9L11.5616 15.006L12.4856 15.23C12.467 15.3887 12.4296 15.524 12.3736 15.636C12.3176 15.748 12.229 15.8693 12.1076 16H8.76163C8.85496 15.5707 8.96696 15.3327 9.09763 15.286L9.88163 15.034L9.50363 13.172H6.40963L5.52763 14.964L6.61963 15.23C6.59163 15.3887 6.54963 15.524 6.49363 15.636C6.43763 15.748 6.34429 15.8693 6.21363 16H3.56762ZM6.85763 12.276H9.32163L8.60763 8.762L6.85763 12.276ZM14.9747 19.612C14.592 19.612 14.242 19.5513 13.9247 19.43C13.6073 19.3087 13.3553 19.136 13.1687 18.912C12.982 18.6973 12.8887 18.4407 12.8887 18.142C12.8887 17.7687 13.0053 17.5027 13.2387 17.344C13.4813 17.1947 13.7473 17.12 14.0367 17.12C14.1393 17.12 14.2373 17.134 14.3307 17.162C14.4333 17.19 14.5173 17.218 14.5827 17.246C14.5547 17.4047 14.5407 17.568 14.5407 17.736C14.5407 18.1093 14.62 18.394 14.7787 18.59C14.9373 18.7953 15.1707 18.898 15.4787 18.898C15.8613 18.898 16.1833 18.7627 16.4447 18.492C16.706 18.2307 16.902 17.7827 17.0327 17.148C17.1727 16.5133 17.2473 15.6453 17.2567 14.544H17.2007C16.9673 15.076 16.6593 15.482 16.2767 15.762C15.894 16.0327 15.488 16.168 15.0587 16.168C14.4987 16.168 14.0553 15.9767 13.7287 15.594C13.4113 15.202 13.2527 14.6047 13.2527 13.802C13.2527 12.99 13.4207 12.262 13.7567 11.618C14.0927 10.974 14.5453 10.4653 15.1147 10.092C15.684 9.71867 16.314 9.532 17.0047 9.532C17.266 9.532 17.5133 9.55533 17.7467 9.602C17.98 9.64867 18.1947 9.72333 18.3907 9.826L18.8807 9.532C19.114 9.532 19.3053 9.55533 19.4547 9.602C19.6133 9.64867 19.6927 9.756 19.6927 9.924C19.6927 9.98933 19.66 10.148 19.5947 10.4C19.5293 10.6427 19.45 10.9413 19.3567 11.296C19.2727 11.6507 19.184 12.0333 19.0907 12.444C18.9973 12.8547 18.918 13.2607 18.8527 13.662C18.7967 14.054 18.7687 14.4133 18.7687 14.74C18.7687 16.3267 18.4747 17.5353 17.8867 18.366C17.308 19.1967 16.3373 19.612 14.9747 19.612ZM15.0587 13.634C15.0587 14.11 15.124 14.4787 15.2547 14.74C15.3853 14.992 15.5953 15.118 15.8847 15.118C16.1833 15.118 16.4493 14.9593 16.6827 14.642C16.9253 14.3153 17.14 13.7973 17.3267 13.088C17.5227 12.3787 17.6953 11.4407 17.8447 10.274C17.742 10.246 17.63 10.2227 17.5087 10.204C17.3873 10.1853 17.2567 10.176 17.1167 10.176C16.7807 10.176 16.482 10.2833 16.2207 10.498C15.9687 10.7033 15.754 10.9787 15.5767 11.324C15.4087 11.66 15.278 12.0333 15.1847 12.444C15.1007 12.8453 15.0587 13.242 15.0587 13.634Z" fill="#333333"/>
</svg>
