<svg width="24" height="24" viewBox="0 0 24 24" fill="none" xmlns="http://www.w3.org/2000/svg">
<path d="M3.75155 16C3.77955 15.8413 3.86355 15.748 4.00355 15.72L4.49355 15.608L8.80555 6.97C8.85221 6.87667 8.90821 6.83 8.97355 6.83C9.02021 6.83 9.04355 6.83933 9.04355 6.858L10.8495 15.58L11.6475 15.748C11.6382 15.8413 11.6149 15.9067 11.5775 15.944C11.5495 15.9813 11.4889 16 11.3955 16H9.46355C9.49155 15.8413 9.57555 15.748 9.71555 15.72L10.4155 15.566L9.84155 12.78H6.18755L4.80155 15.566L5.61355 15.748C5.59488 15.8413 5.56688 15.9067 5.52955 15.944C5.50155 15.9813 5.44088 16 5.34755 16H3.75155ZM6.32755 12.5H9.78555L8.77755 7.614L6.32755 12.5ZM14.1863 19.612C13.7009 19.612 13.3043 19.4533 12.9963 19.136C12.6883 18.828 12.5343 18.422 12.5343 17.918C12.5343 17.7593 12.5576 17.6287 12.6043 17.526C12.6603 17.4233 12.7629 17.372 12.9123 17.372C12.9683 17.372 13.0289 17.386 13.0943 17.414C13.0756 17.5167 13.0616 17.6193 13.0523 17.722C13.0429 17.8247 13.0383 17.9227 13.0383 18.016C13.0383 18.4267 13.1456 18.7627 13.3603 19.024C13.5843 19.2853 13.9203 19.416 14.3683 19.416C14.9003 19.416 15.3436 19.2573 15.6983 18.94C16.0529 18.6227 16.3236 18.0907 16.5103 17.344C16.6969 16.5973 16.7949 15.5753 16.8043 14.278H16.7343C16.5289 14.8847 16.2489 15.3513 15.8943 15.678C15.5396 16.0047 15.1289 16.168 14.6623 16.168C14.1023 16.168 13.6729 15.9673 13.3743 15.566C13.0756 15.1553 12.9263 14.5673 12.9263 13.802C12.9263 12.99 13.0803 12.262 13.3883 11.618C13.7056 10.974 14.1303 10.4653 14.6623 10.092C15.2036 9.71867 15.8103 9.532 16.4823 9.532C16.9583 9.532 17.3596 9.62067 17.6863 9.798L17.8543 9.532C18.0129 9.532 18.0923 9.56933 18.0923 9.644C18.0923 9.76533 18.0596 9.97067 17.9943 10.26C17.9383 10.5493 17.8636 10.8853 17.7703 11.268C17.6769 11.6413 17.5836 12.038 17.4903 12.458C17.3969 12.878 17.3176 13.284 17.2523 13.676C17.1963 14.068 17.1683 14.4133 17.1683 14.712C17.1683 16.2987 16.9396 17.512 16.4823 18.352C16.0343 19.192 15.2689 19.612 14.1863 19.612ZM13.3743 13.718C13.3743 14.0073 13.4163 14.32 13.5003 14.656C13.5843 14.992 13.7289 15.2767 13.9343 15.51C14.1396 15.7433 14.4243 15.86 14.7883 15.86C15.2549 15.86 15.6469 15.678 15.9643 15.314C16.2816 14.9407 16.5663 14.3247 16.8183 13.466C17.0796 12.6073 17.3503 11.4453 17.6303 9.98C17.4903 9.924 17.3269 9.87733 17.1403 9.84C16.9629 9.80267 16.7623 9.784 16.5383 9.784C15.9503 9.784 15.4183 9.952 14.9423 10.288C14.4663 10.6147 14.0836 11.072 13.7943 11.66C13.5143 12.248 13.3743 12.934 13.3743 13.718Z" fill="#333333"/>
</svg>
