<svg width="24" height="24" viewBox="0 0 24 24" fill="none" xmlns="http://www.w3.org/2000/svg">
<path d="M4.41342 16C4.41342 15.888 4.43209 15.804 4.46942 15.748C4.50676 15.6827 4.56276 15.6453 4.63742 15.636L5.35142 15.454L5.08542 15.706L8.27742 7.012C8.29609 6.96533 8.31942 6.928 8.34742 6.9C8.38476 6.872 8.42209 6.85333 8.45942 6.844C8.50609 6.83467 8.55276 6.83 8.59942 6.83C8.62742 6.83 8.65542 6.83467 8.68342 6.844C8.72076 6.844 8.75342 6.84867 8.78142 6.858L12.2394 15.678L11.8754 15.412L13.0514 15.65C13.0514 15.7527 13.0328 15.832 12.9954 15.888C12.9674 15.9347 12.9021 15.972 12.7994 16H10.4474C10.4474 15.888 10.4661 15.804 10.5034 15.748C10.5408 15.6827 10.5968 15.6453 10.6714 15.636L11.5954 15.412L11.4414 15.622L8.33342 7.684L8.48742 7.656L5.53342 15.72L5.50542 15.426L6.59742 15.65C6.59742 15.7527 6.58342 15.832 6.55542 15.888C6.52742 15.9347 6.45742 15.972 6.34542 16H4.41342ZM6.44342 12.85L6.56942 12.458H10.3774L10.5314 12.85H6.44342ZM16.2158 19.78C15.4318 19.78 14.7971 19.598 14.3118 19.234C13.8264 18.87 13.5838 18.394 13.5838 17.806C13.5838 17.4793 13.7144 17.316 13.9758 17.316C14.0504 17.316 14.1158 17.3253 14.1718 17.344C14.2371 17.3627 14.2931 17.4 14.3398 17.456C14.3398 18.1 14.5078 18.59 14.8438 18.926C15.1891 19.262 15.6884 19.43 16.3418 19.43C17.0231 19.43 17.5784 19.2667 18.0078 18.94C18.4371 18.6133 18.6518 18.1933 18.6518 17.68C18.6518 17.3627 18.5864 17.1107 18.4558 16.924C18.3251 16.7373 18.1011 16.5973 17.7838 16.504C17.4664 16.4107 17.0184 16.3407 16.4398 16.294C15.7118 16.238 15.2171 16.1447 14.9558 16.014C14.7038 15.8833 14.5778 15.664 14.5778 15.356C14.5778 15.1227 14.6478 14.8847 14.7878 14.642C14.9371 14.39 15.1238 14.194 15.3478 14.054L15.5438 14.124C15.4038 14.236 15.2964 14.3713 15.2218 14.53C15.1471 14.6887 15.1098 14.852 15.1098 15.02C15.1098 15.188 15.1471 15.3187 15.2218 15.412C15.2964 15.496 15.4458 15.5613 15.6698 15.608C15.9031 15.6547 16.2531 15.6967 16.7198 15.734C17.6251 15.7993 18.2738 15.9673 18.6658 16.238C19.0671 16.5087 19.2678 16.924 19.2678 17.484C19.2678 17.932 19.1371 18.3287 18.8758 18.674C18.6238 19.0287 18.2691 19.2993 17.8118 19.486C17.3544 19.682 16.8224 19.78 16.2158 19.78ZM16.0478 14.264C15.3944 14.264 14.8624 14.0587 14.4518 13.648C14.0411 13.228 13.8358 12.6773 13.8358 11.996C13.8358 11.5013 13.9384 11.072 14.1438 10.708C14.3584 10.3347 14.6524 10.0453 15.0258 9.84C15.4084 9.63467 15.8471 9.532 16.3418 9.532C16.7991 9.532 17.2004 9.63467 17.5458 9.84C17.8911 10.036 18.1618 10.3113 18.3578 10.666C18.5538 11.0113 18.6518 11.4127 18.6518 11.87C18.6518 12.3367 18.5398 12.752 18.3158 13.116C18.1011 13.4707 17.7978 13.7507 17.4058 13.956C17.0231 14.1613 16.5704 14.264 16.0478 14.264ZM16.2718 13.914C16.7758 13.914 17.1818 13.7367 17.4898 13.382C17.8071 13.0273 17.9658 12.5747 17.9658 12.024C17.9658 11.3333 17.8118 10.806 17.5038 10.442C17.2051 10.0687 16.7571 9.882 16.1598 9.882C15.6744 9.882 15.2824 10.0593 14.9838 10.414C14.6851 10.7593 14.5358 11.2167 14.5358 11.786C14.5358 12.514 14.6758 13.0507 14.9558 13.396C15.2358 13.7413 15.6744 13.914 16.2718 13.914ZM18.9458 10.246C18.8244 10.246 18.6751 10.2413 18.4978 10.232C18.3298 10.2227 18.1711 10.2087 18.0218 10.19C17.8724 10.1713 17.7558 10.1433 17.6718 10.106L17.5878 10.008L19.5198 9.616C19.5571 9.644 19.5851 9.68133 19.6038 9.728C19.6224 9.77467 19.6318 9.81667 19.6318 9.854C19.6318 10.1153 19.4031 10.246 18.9458 10.246Z" fill="#888888"/>
</svg>
