<svg width="24" height="24" viewBox="0 0 24 24" fill="none" xmlns="http://www.w3.org/2000/svg">
<path d="M3.25684 16C3.25684 15.58 3.33151 15.342 3.48084 15.286L4.11084 15.062L6.96684 7.208C7.00418 7.11467 7.08351 7.04 7.20484 6.984C7.32618 6.928 7.45684 6.89067 7.59684 6.872C7.73684 6.844 7.85351 6.83 7.94684 6.83C8.14284 6.83 8.34818 6.85333 8.56284 6.9L11.7128 15.034L12.6368 15.23C12.6368 15.3887 12.6182 15.524 12.5808 15.636C12.5435 15.748 12.4642 15.8693 12.3428 16H8.85684C8.85684 15.58 8.93151 15.342 9.08084 15.286L9.83684 15.048L9.10884 13.172H5.83284L5.18884 14.964L6.39284 15.23C6.39284 15.3887 6.37418 15.524 6.33684 15.636C6.29951 15.748 6.22018 15.8693 6.09884 16H3.25684ZM6.15484 12.276H8.75884L7.41484 8.818L6.15484 12.276ZM15.8681 14.348C15.7094 14.348 15.5601 14.3387 15.4201 14.32C15.3268 14.4693 15.2801 14.6187 15.2801 14.768C15.2801 14.8987 15.3128 15.0013 15.3781 15.076C15.4434 15.1507 15.5741 15.2067 15.7701 15.244C15.9754 15.2813 16.2788 15.3187 16.6801 15.356C17.6508 15.44 18.3648 15.6453 18.8221 15.972C19.2888 16.2893 19.5221 16.7467 19.5221 17.344C19.5221 17.8387 19.3821 18.268 19.1021 18.632C18.8221 18.996 18.4254 19.276 17.9121 19.472C17.3988 19.6773 16.7968 19.78 16.1061 19.78C15.2101 19.78 14.4914 19.6027 13.9501 19.248C13.4181 18.9027 13.1521 18.4407 13.1521 17.862C13.1521 17.33 13.4368 17.064 14.0061 17.064C14.3048 17.064 14.5848 17.1247 14.8461 17.246C14.8461 18.5153 15.3781 19.15 16.4421 19.15C16.9181 19.15 17.3008 19.0333 17.5901 18.8C17.8794 18.5667 18.0241 18.254 18.0241 17.862C18.0241 17.5913 17.9634 17.3767 17.8421 17.218C17.7208 17.0593 17.5154 16.9333 17.2261 16.84C16.9368 16.756 16.5308 16.6907 16.0081 16.644C15.2614 16.5787 14.7388 16.4667 14.4401 16.308C14.1508 16.1493 14.0061 15.902 14.0061 15.566C14.0061 15.314 14.0808 15.0713 14.2301 14.838C14.3888 14.5953 14.6034 14.3853 14.8741 14.208C14.3701 14.068 13.9734 13.816 13.6841 13.452C13.4041 13.088 13.2641 12.6353 13.2641 12.094C13.2641 11.59 13.3901 11.1467 13.6421 10.764C13.8941 10.372 14.2441 10.0687 14.6921 9.854C15.1494 9.63933 15.6768 9.532 16.2741 9.532C16.8341 9.532 17.3241 9.63467 17.7441 9.84L19.5081 9.252C19.5734 9.34533 19.6201 9.45267 19.6481 9.574C19.6854 9.69533 19.7041 9.80267 19.7041 9.896C19.7041 10.2693 19.4334 10.456 18.8921 10.456C18.7801 10.456 18.6541 10.4513 18.5141 10.442C18.8221 10.8247 18.9761 11.2867 18.9761 11.828C18.9761 12.3227 18.8454 12.7613 18.5841 13.144C18.3228 13.5173 17.9541 13.8113 17.4781 14.026C17.0114 14.2407 16.4748 14.348 15.8681 14.348ZM16.1481 13.676C16.4841 13.676 16.7548 13.5313 16.9601 13.242C17.1654 12.9527 17.2681 12.556 17.2681 12.052C17.2681 11.464 17.1608 11.0113 16.9461 10.694C16.7408 10.3673 16.4421 10.204 16.0501 10.204C15.7234 10.204 15.4621 10.3487 15.2661 10.638C15.0794 10.9273 14.9861 11.3287 14.9861 11.842C14.9861 13.0647 15.3734 13.676 16.1481 13.676Z" fill="#333333"/>
</svg>
