<svg width="24" height="24" viewBox="0 0 24 24" fill="none" xmlns="http://www.w3.org/2000/svg">
<path d="M3.52345 16C3.52345 15.6733 3.59811 15.4867 3.74745 15.44L4.33545 15.244L7.30345 7.124C7.35011 7.012 7.44811 6.93733 7.59745 6.9C7.75611 6.85333 7.89145 6.83 8.00345 6.83C8.14345 6.83 8.28811 6.84867 8.43745 6.886L11.6854 15.216L12.5954 15.412C12.5954 15.5427 12.5768 15.6547 12.5394 15.748C12.5021 15.832 12.4274 15.916 12.3154 16H9.31945C9.31945 15.6733 9.39411 15.4867 9.54345 15.44L10.2854 15.23L9.41745 13.032H5.93145L5.14745 15.174L6.26745 15.412C6.26745 15.5427 6.24878 15.6547 6.21145 15.748C6.17411 15.832 6.09478 15.916 5.97345 16H3.52345ZM6.16945 12.36H9.16545L7.61145 8.412L6.16945 12.36ZM15.7356 14.306C15.5583 14.306 15.3856 14.292 15.2176 14.264C15.0776 14.46 15.0076 14.6653 15.0076 14.88C15.0076 15.0293 15.0403 15.146 15.1056 15.23C15.1803 15.3047 15.3203 15.3653 15.5256 15.412C15.7403 15.4493 16.0623 15.482 16.4916 15.51C17.4343 15.594 18.1203 15.7853 18.5496 16.084C18.9883 16.3827 19.2076 16.8213 19.2076 17.4C19.2076 17.876 19.0723 18.2913 18.8016 18.646C18.5309 19.0007 18.1483 19.276 17.6536 19.472C17.1683 19.6773 16.5989 19.78 15.9456 19.78C15.0963 19.78 14.4149 19.6027 13.9016 19.248C13.3883 18.8933 13.1316 18.422 13.1316 17.834C13.1316 17.3953 13.3509 17.176 13.7896 17.176C13.8923 17.176 13.9996 17.1853 14.1116 17.204C14.2236 17.232 14.3263 17.2787 14.4196 17.344C14.4196 18.6227 15.0123 19.262 16.1976 19.262C16.7576 19.262 17.2103 19.1267 17.5556 18.856C17.9103 18.5853 18.0876 18.226 18.0876 17.778C18.0876 17.4887 18.0269 17.26 17.9056 17.092C17.7843 16.924 17.5696 16.7933 17.2616 16.7C16.9536 16.6067 16.5289 16.5367 15.9876 16.49C15.2503 16.434 14.7416 16.3313 14.4616 16.182C14.1816 16.0327 14.0416 15.7947 14.0416 15.468C14.0416 15.2347 14.1116 15.006 14.2516 14.782C14.3916 14.5487 14.5876 14.348 14.8396 14.18C14.3636 14.04 13.9856 13.7833 13.7056 13.41C13.4349 13.0367 13.2996 12.5793 13.2996 12.038C13.2996 11.5433 13.4163 11.1093 13.6496 10.736C13.8923 10.3533 14.2189 10.0593 14.6296 9.854C15.0496 9.63933 15.5396 9.532 16.0996 9.532C16.6596 9.532 17.1449 9.65333 17.5556 9.896L19.3056 9.406C19.3616 9.48067 19.3989 9.56467 19.4176 9.658C19.4456 9.742 19.4596 9.81667 19.4596 9.882C19.4596 10.1993 19.2123 10.358 18.7176 10.358C18.6336 10.358 18.5356 10.358 18.4236 10.358C18.3209 10.358 18.2136 10.3533 18.1016 10.344C18.4563 10.7547 18.6336 11.254 18.6336 11.842C18.6336 12.3273 18.5123 12.7567 18.2696 13.13C18.0269 13.494 17.6863 13.7833 17.2476 13.998C16.8089 14.2033 16.3049 14.306 15.7356 14.306ZM16.0016 13.774C16.4029 13.774 16.7296 13.6153 16.9816 13.298C17.2429 12.9807 17.3736 12.5607 17.3736 12.038C17.3736 11.4127 17.2476 10.9273 16.9956 10.582C16.7436 10.2367 16.3749 10.064 15.8896 10.064C15.4976 10.064 15.1803 10.2227 14.9376 10.54C14.7043 10.8573 14.5876 11.282 14.5876 11.814C14.5876 13.1207 15.0589 13.774 16.0016 13.774Z" fill="#333333"/>
</svg>
