<svg width="24" height="24" viewBox="0 0 24 24" fill="none" xmlns="http://www.w3.org/2000/svg">
<path d="M3.75155 16C3.77021 15.916 3.79821 15.8507 3.83555 15.804C3.87288 15.7573 3.92888 15.7293 4.00355 15.72L4.61955 15.58L4.40955 15.776L8.80555 6.97C8.82421 6.93267 8.83821 6.90467 8.84755 6.886C8.86621 6.86733 8.88488 6.85333 8.90355 6.844C8.92221 6.83467 8.94555 6.83 8.97355 6.83C8.99221 6.83 9.00621 6.83467 9.01555 6.844C9.03421 6.844 9.04355 6.84867 9.04355 6.858L10.8915 15.748L10.6255 15.524L11.6475 15.748C11.6382 15.8413 11.6149 15.9067 11.5775 15.944C11.5495 15.9813 11.4889 16 11.3955 16H9.46355C9.48221 15.916 9.51021 15.8507 9.54755 15.804C9.58488 15.7573 9.64088 15.7293 9.71555 15.72L10.5835 15.524L10.4435 15.678L8.76355 7.572L8.80555 7.544L4.68955 15.79L4.71755 15.552L5.61355 15.748C5.59488 15.8413 5.56688 15.9067 5.52955 15.944C5.50155 15.9813 5.44088 16 5.34755 16H3.75155ZM6.08955 12.78L6.24355 12.5H9.85555L9.93955 12.78H6.08955ZM14.1863 19.612C13.8596 19.612 13.5703 19.5373 13.3183 19.388C13.0756 19.248 12.8843 19.052 12.7443 18.8C12.6043 18.548 12.5343 18.254 12.5343 17.918C12.5343 17.8153 12.5436 17.722 12.5623 17.638C12.5903 17.554 12.6323 17.4887 12.6883 17.442C12.7443 17.3953 12.8189 17.372 12.9123 17.372C12.9309 17.372 12.9543 17.372 12.9823 17.372C13.0196 17.3813 13.0569 17.3953 13.0943 17.414C13.0756 17.5167 13.0616 17.6193 13.0523 17.722C13.0429 17.8247 13.0383 17.9227 13.0383 18.016C13.0383 18.4267 13.1456 18.7627 13.3603 19.024C13.5843 19.2853 13.9203 19.416 14.3683 19.416C14.9003 19.416 15.3436 19.2573 15.6983 18.94C16.0529 18.6227 16.3236 18.0907 16.5103 17.344C16.6969 16.5973 16.7949 15.5753 16.8043 14.278H16.7343C16.5289 14.8847 16.2489 15.3513 15.8943 15.678C15.5396 16.0047 15.1289 16.168 14.6623 16.168C14.1023 16.168 13.6729 15.9673 13.3743 15.566C13.0756 15.1553 12.9263 14.5673 12.9263 13.802C12.9263 13.1953 13.0149 12.6353 13.1923 12.122C13.3696 11.5993 13.6169 11.1467 13.9343 10.764C14.2609 10.372 14.6389 10.0687 15.0683 9.854C15.5069 9.63933 15.9783 9.532 16.4823 9.532C16.7529 9.532 17.0003 9.56467 17.2243 9.63C17.4576 9.686 17.6723 9.77933 17.8683 9.91L17.8403 10.078C17.7096 10.0033 17.5323 9.938 17.3083 9.882C17.0843 9.81667 16.8276 9.784 16.5383 9.784C16.0996 9.784 15.6889 9.882 15.3063 10.078C14.9236 10.2647 14.5876 10.5307 14.2983 10.876C14.0089 11.2213 13.7803 11.6367 13.6123 12.122C13.4536 12.598 13.3743 13.13 13.3743 13.718C13.3743 14.0073 13.4163 14.32 13.5003 14.656C13.5843 14.992 13.7289 15.2767 13.9343 15.51C14.1396 15.7433 14.4243 15.86 14.7883 15.86C15.1429 15.86 15.4509 15.7573 15.7123 15.552C15.9736 15.3467 16.2069 15.0153 16.4123 14.558C16.6269 14.0913 16.8323 13.4753 17.0283 12.71C17.2243 11.9447 17.4296 11.002 17.6443 9.882L17.8543 9.532C17.9289 9.532 17.9849 9.54133 18.0223 9.56C18.0689 9.56933 18.0923 9.59733 18.0923 9.644C18.0923 9.76533 18.0596 9.97067 17.9943 10.26C17.9383 10.5493 17.8636 10.8853 17.7703 11.268C17.6769 11.6413 17.5836 12.038 17.4903 12.458C17.3969 12.878 17.3176 13.284 17.2523 13.676C17.1963 14.068 17.1683 14.4133 17.1683 14.712C17.1683 16.2987 16.9396 17.512 16.4823 18.352C16.0343 19.192 15.2689 19.612 14.1863 19.612Z" fill="#888888"/>
</svg>
