<svg width="24" height="24" viewBox="0 0 24 24" fill="none" xmlns="http://www.w3.org/2000/svg">
<path d="M4.04614 16C4.09281 15.7387 4.18614 15.594 4.32614 15.566L4.85814 15.398L9.03014 7.054C9.07681 6.97 9.14681 6.914 9.24014 6.886C9.33347 6.84867 9.41747 6.83 9.49214 6.83C9.60414 6.83 9.68814 6.844 9.74414 6.872L11.4801 15.37L12.3201 15.552C12.3015 15.6733 12.2735 15.7667 12.2361 15.832C12.1988 15.8973 12.1288 15.9533 12.0261 16H9.57614C9.63214 15.7387 9.73014 15.594 9.87014 15.566L10.5981 15.37L10.0941 12.92H6.65014L5.43214 15.342L6.35614 15.552C6.32814 15.6733 6.29081 15.7667 6.24414 15.832C6.20681 15.8973 6.13681 15.9533 6.03414 16H4.04614ZM6.88814 12.416H9.98214L9.08614 8.034L6.88814 12.416ZM14.7393 19.612C14.2166 19.612 13.792 19.4673 13.4653 19.178C13.1386 18.898 12.9753 18.5293 12.9753 18.072C12.9753 17.848 13.0313 17.6707 13.1433 17.54C13.2553 17.4093 13.4046 17.344 13.5913 17.344C13.694 17.344 13.806 17.3627 13.9273 17.4C13.8993 17.5867 13.8853 17.7733 13.8853 17.96C13.8853 18.3427 13.9833 18.6507 14.1793 18.884C14.3846 19.1173 14.6833 19.234 15.0753 19.234C15.5606 19.234 15.9666 19.08 16.2933 18.772C16.6293 18.464 16.8813 17.946 17.0493 17.218C17.2173 16.4993 17.306 15.5147 17.3153 14.264H17.2453C17.0306 14.8707 16.732 15.342 16.3493 15.678C15.976 16.0047 15.556 16.168 15.0893 16.168C14.5386 16.168 14.114 15.9673 13.8153 15.566C13.5166 15.1553 13.3673 14.5673 13.3673 13.802C13.3673 12.99 13.5213 12.262 13.8293 11.618C14.1373 10.974 14.5573 10.4653 15.0893 10.092C15.6306 9.71867 16.2373 9.532 16.9093 9.532C17.404 9.532 17.8333 9.63 18.1973 9.826L18.5193 9.532C18.65 9.532 18.7573 9.546 18.8413 9.574C18.9253 9.602 18.9673 9.66267 18.9673 9.756C18.9673 9.84 18.9346 10.0127 18.8693 10.274C18.8133 10.526 18.7386 10.834 18.6453 11.198C18.5613 11.562 18.4726 11.9493 18.3793 12.36C18.286 12.7707 18.2066 13.1813 18.1413 13.592C18.0853 14.0027 18.0573 14.376 18.0573 14.712C18.0573 16.308 17.8053 17.5213 17.3013 18.352C16.7973 19.192 15.9433 19.612 14.7393 19.612ZM14.3193 13.704C14.3193 14.236 14.408 14.6887 14.5853 15.062C14.772 15.426 15.0753 15.608 15.4953 15.608C15.8966 15.608 16.242 15.426 16.5313 15.062C16.83 14.6887 17.096 14.1007 17.3293 13.298C17.5626 12.486 17.782 11.422 17.9873 10.106C17.866 10.0593 17.7213 10.022 17.5533 9.994C17.3946 9.95667 17.208 9.938 16.9933 9.938C16.48 9.938 16.0226 10.1013 15.6213 10.428C15.22 10.7453 14.9026 11.1887 14.6693 11.758C14.436 12.318 14.3193 12.9667 14.3193 13.704Z" fill="#333333"/>
</svg>
