<svg width="24" height="24" viewBox="0 0 24 24" fill="none" xmlns="http://www.w3.org/2000/svg">
<path d="M3.97095 16C3.99895 15.8507 4.03628 15.734 4.08295 15.65C4.12961 15.566 4.19028 15.5147 4.26495 15.496L5.04895 15.244L4.67095 15.608L8.91295 7.096C8.95028 7.02133 9.00161 6.96533 9.06695 6.928C9.14161 6.89067 9.21628 6.86733 9.29095 6.858C9.37495 6.83933 9.44495 6.83 9.50095 6.83C9.56628 6.83 9.62695 6.83467 9.68295 6.844C9.73895 6.85333 9.78561 6.86733 9.82295 6.886L11.6009 15.58L11.3069 15.23L12.3989 15.468C12.3803 15.5987 12.3476 15.7013 12.3009 15.776C12.2636 15.8507 12.1936 15.9253 12.0909 16H9.41695C9.45428 15.8507 9.49628 15.734 9.54295 15.65C9.58961 15.566 9.65028 15.5147 9.72495 15.496L10.6349 15.244L10.5089 15.524L8.94095 7.852L9.19295 7.838L5.31495 15.608L5.32895 15.216L6.46295 15.468C6.43495 15.5987 6.39761 15.7013 6.35095 15.776C6.30428 15.8507 6.22495 15.9253 6.11295 16H3.97095ZM6.42095 12.976L6.65895 12.388H10.0749L10.1449 12.976H6.42095ZM14.7728 19.612C14.4182 19.612 14.1008 19.5467 13.8208 19.416C13.5502 19.2947 13.3355 19.122 13.1768 18.898C13.0275 18.6833 12.9528 18.4313 12.9528 18.142C12.9528 17.9647 12.9855 17.8153 13.0508 17.694C13.1162 17.582 13.2002 17.4933 13.3028 17.428C13.4148 17.3627 13.5408 17.33 13.6808 17.33C13.7462 17.33 13.8115 17.3347 13.8768 17.344C13.9422 17.3627 14.0075 17.3813 14.0728 17.4C14.0635 17.4933 14.0542 17.582 14.0448 17.666C14.0355 17.7593 14.0308 17.848 14.0308 17.932C14.0308 18.3053 14.1288 18.5993 14.3248 18.814C14.5208 19.038 14.8055 19.15 15.1788 19.15C15.6455 19.15 16.0375 19.0007 16.3548 18.702C16.6722 18.4033 16.9102 17.8947 17.0688 17.176C17.2368 16.4667 17.3208 15.4913 17.3208 14.25H17.2508C17.0455 14.866 16.7468 15.342 16.3548 15.678C15.9722 16.0047 15.5428 16.168 15.0668 16.168C14.5255 16.168 14.1008 15.9673 13.7928 15.566C13.4942 15.1553 13.3448 14.5673 13.3448 13.802C13.3448 13.1953 13.4335 12.6353 13.6108 12.122C13.7882 11.5993 14.0355 11.1467 14.3528 10.764C14.6795 10.372 15.0575 10.0687 15.4868 9.854C15.9162 9.63933 16.3828 9.532 16.8868 9.532C17.2695 9.532 17.6055 9.588 17.8948 9.7C18.1935 9.80267 18.4688 9.97067 18.7208 10.204L18.6788 10.596C18.5668 10.4933 18.3848 10.3673 18.1328 10.218C17.8808 10.0687 17.4982 9.994 16.9848 9.994C16.6208 9.994 16.2848 10.0873 15.9768 10.274C15.6782 10.4513 15.4215 10.708 15.2068 11.044C14.9922 11.38 14.8242 11.772 14.7028 12.22C14.5815 12.668 14.5208 13.158 14.5208 13.69C14.5208 14.0727 14.5582 14.404 14.6328 14.684C14.7075 14.9547 14.8242 15.16 14.9828 15.3C15.1415 15.44 15.3422 15.51 15.5848 15.51C15.8648 15.51 16.1215 15.4073 16.3548 15.202C16.5882 14.9967 16.7982 14.6747 16.9848 14.236C17.1808 13.7973 17.3582 13.2327 17.5168 12.542C17.6755 11.8513 17.8248 11.0253 17.9648 10.064L18.5948 9.532C18.7535 9.532 18.8842 9.55067 18.9868 9.588C19.0895 9.616 19.1408 9.686 19.1408 9.798C19.1408 9.87267 19.1082 10.036 19.0428 10.288C18.9868 10.5307 18.9122 10.8293 18.8188 11.184C18.7348 11.5293 18.6462 11.9073 18.5528 12.318C18.4595 12.7287 18.3802 13.144 18.3148 13.564C18.2588 13.9747 18.2308 14.3573 18.2308 14.712C18.2308 16.308 17.9648 17.5213 17.4328 18.352C16.9102 19.192 16.0235 19.612 14.7728 19.612Z" fill="#888888"/>
</svg>
