<svg width="24" height="24" viewBox="0 0 24 24" fill="none" xmlns="http://www.w3.org/2000/svg">
<path d="M9.89727 10.4H9.19727V9H8.49727V7.6H7.79727V6.2H6.39727V7.6H5.69727V9H4.99727V10.4H4.29727V11.8H3.59727V16H4.99727V13.9H9.19727V16H10.5973V11.8H9.89727V10.4ZM5.69727 11.1H6.39727V9H7.79727V11.1H8.49727V12.5H5.69727V11.1ZM14.1 15.3H14.8V16H19V16.7H18.3V17.4H14.8V18.8H19V18.1H19.7V17.4H20.4V9H14.8V9.7H14.1V10.4H13.4V14.6H14.1V15.3ZM19 10.4V14.6H15.5V13.9H14.8V11.1H15.5V10.4H19Z" fill="#333333"/>
</svg>
