<svg width="24" height="24" viewBox="0 0 24 24" fill="none" xmlns="http://www.w3.org/2000/svg">
<path d="M12.0957 17.056C11.5077 17.056 10.9757 16.9347 10.4997 16.692C10.0237 16.44 9.63638 15.9547 9.33771 15.236L9.01571 14.452H5.29171L4.14371 17H3.41571L7.54571 7.76H8.17571L11.3117 15.236C11.6664 16.104 12.1517 16.5707 12.7677 16.636V16.986C12.5997 17.0327 12.3757 17.056 12.0957 17.056ZM5.58571 13.822H8.74971L7.20971 10.168L5.58571 13.822ZM15.9942 19.8C14.9302 19.8 14.0902 19.6273 13.4742 19.282C12.8675 18.946 12.5642 18.3953 12.5642 17.63C12.5642 17.1633 12.7508 16.776 13.1242 16.468C13.4975 16.16 13.9408 15.9407 14.4542 15.81C14.0342 15.6793 13.8242 15.4227 13.8242 15.04C13.8242 14.7227 14.0108 14.4893 14.3842 14.34C13.9828 14.2 13.6468 13.9573 13.3762 13.612C13.1148 13.2667 12.9842 12.884 12.9842 12.464C12.9842 11.6987 13.2548 11.1433 13.7962 10.798C14.3468 10.4527 15.0795 10.28 15.9942 10.28H18.9342V10.658L17.6742 10.826C18.0662 10.9753 18.3835 11.204 18.6262 11.512C18.8782 11.82 19.0042 12.1373 19.0042 12.464C19.0042 13.2293 18.7428 13.78 18.2202 14.116C17.7068 14.452 16.9648 14.62 15.9942 14.62C15.5088 14.62 15.1542 14.648 14.9302 14.704C14.7062 14.7507 14.5942 14.8627 14.5942 15.04C14.5942 15.1893 14.7062 15.2873 14.9302 15.334C15.1542 15.3807 15.5088 15.4087 15.9942 15.418C17.0022 15.4367 17.8235 15.6373 18.4582 16.02C19.1022 16.3933 19.4242 16.93 19.4242 17.63C19.4242 18.3953 19.1162 18.946 18.5002 19.282C17.8935 19.6273 17.0582 19.8 15.9942 19.8ZM15.9942 14.06C16.7408 14.06 17.1142 13.528 17.1142 12.464C17.1142 11.9413 17.0115 11.54 16.8062 11.26C16.6008 10.98 16.3302 10.84 15.9942 10.84C15.6488 10.84 15.3735 10.9753 15.1682 11.246C14.9722 11.5167 14.8742 11.9227 14.8742 12.464C14.8742 13.528 15.2475 14.06 15.9942 14.06ZM15.9942 19.17C16.4795 19.17 16.8575 19.0393 17.1282 18.778C17.3988 18.526 17.5342 18.1433 17.5342 17.63C17.5342 17.2193 17.4035 16.8787 17.1422 16.608C16.8902 16.328 16.5448 16.146 16.1062 16.062L15.4482 15.992C15.1215 16.132 14.8742 16.3327 14.7062 16.594C14.5382 16.8553 14.4542 17.2007 14.4542 17.63C14.4542 18.1433 14.5895 18.526 14.8602 18.778C15.1308 19.0393 15.5088 19.17 15.9942 19.17Z" fill="#333333"/>
</svg>
