<svg width="24" height="24" viewBox="0 0 24 24" fill="none" xmlns="http://www.w3.org/2000/svg">
<path d="M11.8626 16.006C12.0026 16.0527 12.1426 16.104 12.2826 16.16C12.4226 16.2067 12.5533 16.258 12.6746 16.314L12.5906 17H8.06863L8.20863 16.3L9.62263 15.908L8.72663 8.292L9.20263 8.376L5.21263 15.922C5.41796 15.978 5.62796 16.0387 5.84263 16.104C6.05729 16.1693 6.26729 16.2393 6.47263 16.314L6.38863 17H2.41262L2.53862 16.3L3.58863 15.824L8.15263 7.634H10.5326L11.8626 16.006ZM5.17063 14.298L5.70263 13.15H10.5466L10.6726 14.298H5.17063ZM16.0721 19.856C15.4281 19.856 14.8541 19.7673 14.3501 19.59C13.8555 19.422 13.4635 19.1793 13.1741 18.862C12.8848 18.554 12.7261 18.204 12.6981 17.812C12.9781 17.4947 13.2441 17.252 13.4961 17.084C13.7481 16.9253 14.0421 16.804 14.3781 16.72C14.2941 17.14 14.3221 17.5087 14.4621 17.826C14.6021 18.1527 14.8401 18.4047 15.1761 18.582C15.5121 18.7593 15.9275 18.848 16.4221 18.848C16.8235 18.848 17.1641 18.7873 17.4441 18.666C17.7241 18.5447 17.9155 18.386 18.0181 18.19C18.1301 18.0033 18.1255 17.8027 18.0041 17.588L15.6381 16.93C15.4701 16.7713 15.3441 16.5987 15.2601 16.412C15.1855 16.2253 15.1481 16.0433 15.1481 15.866C15.1481 15.5393 15.2601 15.25 15.4841 14.998C15.7081 14.7367 16.0115 14.592 16.3941 14.564L16.3801 15.53L18.4101 16.076C19.4181 16.3373 19.9221 16.8367 19.9221 17.574C19.9221 18.0033 19.7495 18.3907 19.4041 18.736C19.0681 19.0813 18.6108 19.352 18.0321 19.548C17.4535 19.7533 16.8001 19.856 16.0721 19.856ZM16.5761 14.872C15.7641 14.872 15.1155 14.6713 14.6301 14.27C14.1448 13.8687 13.9021 13.3413 13.9021 12.688C13.9021 12.184 14.0468 11.7313 14.3361 11.33C14.6255 10.9193 15.0128 10.5973 15.4981 10.364C15.9928 10.1307 16.5435 10.014 17.1501 10.014C17.9435 10.014 18.5828 10.2193 19.0681 10.63C19.5535 11.0313 19.7961 11.5633 19.7961 12.226C19.7961 12.73 19.6515 13.1827 19.3621 13.584C19.0821 13.976 18.6995 14.2887 18.2141 14.522C17.7288 14.7553 17.1828 14.872 16.5761 14.872ZM16.9821 13.99C17.2528 13.766 17.4721 13.4953 17.6401 13.178C17.8081 12.8513 17.9108 12.5153 17.9481 12.17C17.9855 11.8153 17.9481 11.4747 17.8361 11.148C17.6681 11.092 17.4908 11.05 17.3041 11.022C17.1175 10.9847 16.9168 10.9613 16.7021 10.952C16.4408 11.176 16.2261 11.4467 16.0581 11.764C15.8995 12.0813 15.8015 12.4173 15.7641 12.772C15.7268 13.1173 15.7641 13.458 15.8761 13.794C16.1095 13.8687 16.3148 13.92 16.4921 13.948C16.6695 13.976 16.8328 13.99 16.9821 13.99ZM19.1521 11.484L17.1501 10.014H20.8181L20.5661 11.26L19.4041 11.022L19.1521 11.484Z" fill="#888888"/>
</svg>
