<svg width="24" height="24" viewBox="0 0 24 24" fill="none" xmlns="http://www.w3.org/2000/svg">
<path d="M11.9896 16.356C12.1669 16.3933 12.3349 16.4353 12.4936 16.482C12.6616 16.5193 12.8249 16.5613 12.9836 16.608V17H9.25961V16.608L10.7016 16.342L7.90161 8.25H8.19561L5.28361 16.3C5.57294 16.3467 5.85294 16.398 6.12361 16.454C6.40361 16.5007 6.68361 16.552 6.96361 16.608V17H3.39361V16.608L4.34561 16.3L7.53761 7.83H8.86761L11.9896 16.356ZM5.77361 13.962V13.22H10.4776V13.962H5.77361ZM16.7298 19.898C15.7965 19.898 15.0591 19.7113 14.5178 19.338C13.9858 18.974 13.7151 18.4607 13.7058 17.798C13.9205 17.4807 14.1818 17.2053 14.4898 16.972C14.8071 16.7387 15.1665 16.552 15.5678 16.412H15.8058C15.4325 16.7107 15.1758 16.9673 15.0358 17.182C14.8958 17.406 14.8258 17.6113 14.8258 17.798C14.8258 18.19 15.0125 18.498 15.3858 18.722C15.7591 18.9553 16.2725 19.072 16.9258 19.072C17.6351 19.072 18.2091 18.9367 18.6478 18.666C19.0865 18.3953 19.3058 18.036 19.3058 17.588C19.3058 17.4293 19.2685 17.2613 19.1938 17.084C19.1285 16.916 19.0305 16.7573 18.8998 16.608H15.3858C15.1525 16.4493 14.9751 16.2627 14.8538 16.048C14.7325 15.824 14.6718 15.6187 14.6718 15.432C14.6718 15.18 14.7511 14.9467 14.9098 14.732C15.0778 14.508 15.2925 14.326 15.5538 14.186L15.5258 15.628H18.7878C19.0865 15.628 19.3618 15.7073 19.6138 15.866C19.8658 16.0153 20.0618 16.2253 20.2018 16.496C20.3511 16.7573 20.4258 17.056 20.4258 17.392C20.4258 17.8867 20.2671 18.3207 19.9498 18.694C19.6418 19.0767 19.2078 19.3707 18.6478 19.576C18.0971 19.7907 17.4578 19.898 16.7298 19.898ZM16.8698 14.634C15.9831 14.634 15.2971 14.4427 14.8118 14.06C14.3265 13.668 14.0838 13.1313 14.0838 12.45C14.0838 11.946 14.2005 11.5167 14.4338 11.162C14.6765 10.798 15.0218 10.5227 15.4698 10.336C15.9178 10.14 16.4545 10.042 17.0798 10.042C17.9665 10.042 18.6571 10.238 19.1518 10.63C19.6558 11.0127 19.9078 11.5493 19.9078 12.24C19.9078 12.7253 19.7818 13.15 19.5298 13.514C19.2871 13.878 18.9418 14.158 18.4938 14.354C18.0458 14.5407 17.5045 14.634 16.8698 14.634ZM16.9258 13.906C17.5138 13.906 17.9711 13.7613 18.2978 13.472C18.6338 13.1827 18.8018 12.786 18.8018 12.282C18.8018 11.8153 18.6385 11.456 18.3118 11.204C17.9851 10.9427 17.5418 10.812 16.9818 10.812C16.7765 10.812 16.5525 10.8307 16.3098 10.868C16.0765 10.896 15.8478 10.9427 15.6238 11.008C15.4838 11.2693 15.3765 11.526 15.3018 11.778C15.2365 12.0207 15.2038 12.24 15.2038 12.436C15.2038 12.884 15.3578 13.2433 15.6658 13.514C15.9738 13.7753 16.3938 13.906 16.9258 13.906ZM18.9698 10.784C18.8765 10.616 18.8018 10.4433 18.7458 10.266C18.6898 10.0887 18.6618 9.93933 18.6618 9.818C18.6618 9.47267 18.7738 9.20667 18.9978 9.02C19.2218 8.824 19.5391 8.726 19.9498 8.726C20.0805 8.726 20.2158 8.74 20.3558 8.768C20.4958 8.78667 20.6545 8.82867 20.8318 8.894L20.7338 9.65H19.3058L19.0958 10.784H18.9698Z" fill="#888888"/>
</svg>
