<svg width="24" height="24" viewBox="0 0 24 24" fill="none" xmlns="http://www.w3.org/2000/svg">
<path d="M11.6181 16.482C11.7861 16.51 11.9447 16.5473 12.0941 16.594C12.2527 16.6313 12.4067 16.6733 12.5561 16.72L12.5281 17H9.02806L9.09806 16.706L10.6801 16.454L9.39206 8.222L9.60206 8.25L4.92606 16.454C5.20606 16.4913 5.4814 16.5333 5.75206 16.58C6.03206 16.6173 6.31206 16.664 6.59206 16.72L6.55006 17H3.10606L3.16206 16.706L4.17006 16.426L9.14006 7.886H10.1621L11.6181 16.482ZM6.01806 13.864L6.32606 13.248H10.6941L10.7641 13.864H6.01806ZM16.2739 19.828C15.5926 19.828 15.0139 19.7207 14.5379 19.506C14.0619 19.2913 13.7259 18.9973 13.5299 18.624C13.3246 18.26 13.2966 17.854 13.4459 17.406C13.6513 17.238 13.8006 17.1213 13.8939 17.056C13.9873 17 14.1179 16.9533 14.2859 16.916C14.0619 17.364 14.0059 17.77 14.1179 18.134C14.2393 18.498 14.4959 18.7827 14.8879 18.988C15.2799 19.2027 15.7886 19.31 16.4139 19.31C17.0019 19.31 17.4919 19.2073 17.8839 19.002C18.2759 18.806 18.5279 18.5493 18.6399 18.232C18.7519 17.924 18.6773 17.6067 18.4159 17.28L16.2459 16.58C16.1059 16.44 16.0033 16.2907 15.9379 16.132C15.8726 15.9733 15.8399 15.8147 15.8399 15.656C15.8399 15.4413 15.8959 15.2407 16.0079 15.054C16.1293 14.858 16.2926 14.7087 16.4979 14.606L16.4839 15.908L18.1359 16.426C19.0506 16.706 19.5079 17.182 19.5079 17.854C19.5079 18.2273 19.3633 18.5633 19.0739 18.862C18.7939 19.1607 18.4066 19.394 17.9119 19.562C17.4266 19.7393 16.8806 19.828 16.2739 19.828ZM16.7359 14.816C16.0919 14.816 15.5646 14.6293 15.1539 14.256C14.7526 13.8733 14.5519 13.3833 14.5519 12.786C14.5519 12.3193 14.6779 11.8947 14.9299 11.512C15.1819 11.12 15.5179 10.8073 15.9379 10.574C16.3673 10.3407 16.8339 10.224 17.3379 10.224C17.9633 10.224 18.4719 10.4153 18.8639 10.798C19.2653 11.1807 19.4659 11.6753 19.4659 12.282C19.4659 12.7393 19.3399 13.1593 19.0879 13.542C18.8453 13.9247 18.5139 14.2327 18.0939 14.466C17.6833 14.6993 17.2306 14.816 16.7359 14.816ZM17.0719 14.382C17.5293 14.186 17.8933 13.9013 18.1639 13.528C18.4346 13.1453 18.5933 12.73 18.6399 12.282C18.6866 11.8247 18.5933 11.4 18.3599 11.008C18.1453 10.9333 17.9166 10.8633 17.6739 10.798C17.4406 10.7327 17.1979 10.6907 16.9459 10.672C16.4979 10.8587 16.1386 11.1433 15.8679 11.526C15.5973 11.8993 15.4386 12.31 15.3919 12.758C15.3453 13.206 15.4386 13.6307 15.6719 14.032C15.9893 14.1533 16.2599 14.242 16.4839 14.298C16.7079 14.354 16.9039 14.382 17.0719 14.382ZM18.5699 10.98L17.3379 10.224H20.2359L20.0819 10.882L18.7239 10.644L18.5699 10.98Z" fill="#888888"/>
</svg>
