<svg width="24" height="24" viewBox="0 0 24 24" fill="none" xmlns="http://www.w3.org/2000/svg">
<path d="M12.0818 16.188C12.2404 16.2347 12.3991 16.2813 12.5578 16.328C12.7258 16.3747 12.8891 16.4213 13.0478 16.468V17H9.00176V16.482L10.3738 16.174L7.71376 8.278H8.10576L5.36176 16.118C5.63242 16.1647 5.89842 16.2207 6.15976 16.286C6.42109 16.342 6.68709 16.4027 6.95776 16.468V17H3.20576V16.482L4.17176 16.118L7.26576 7.746H9.01576L12.0818 16.188ZM5.59976 14.102V13.192H10.5418V14.102H5.59976ZM16.6963 19.912C15.7256 19.912 14.9603 19.7253 14.4003 19.352C13.8496 18.988 13.565 18.4747 13.5463 17.812C13.789 17.504 14.0736 17.238 14.4003 17.014C14.7363 16.79 15.1096 16.6173 15.5203 16.496H15.7443C15.4456 16.7573 15.2356 16.986 15.1143 17.182C15.0023 17.378 14.9463 17.5553 14.9463 17.714C14.9463 18.078 15.119 18.3627 15.4643 18.568C15.819 18.7733 16.3136 18.876 16.9483 18.876C17.6203 18.876 18.157 18.7547 18.5583 18.512C18.9596 18.2787 19.1603 17.9613 19.1603 17.56C19.1603 17.42 19.1276 17.2707 19.0623 17.112C19.0063 16.9627 18.927 16.8273 18.8243 16.706H15.3103C15.0303 16.538 14.8203 16.342 14.6803 16.118C14.5403 15.8847 14.4703 15.6653 14.4703 15.46C14.4703 15.1987 14.5683 14.9513 14.7643 14.718C14.9603 14.4753 15.2216 14.2887 15.5483 14.158L15.5203 15.474H18.8663C19.1836 15.474 19.473 15.558 19.7343 15.726C19.9956 15.8847 20.201 16.104 20.3503 16.384C20.509 16.6547 20.5883 16.9673 20.5883 17.322C20.5883 17.826 20.4203 18.274 20.0843 18.666C19.7576 19.058 19.3003 19.3613 18.7123 19.576C18.1336 19.8 17.4616 19.912 16.6963 19.912ZM16.8643 14.592C15.9123 14.592 15.1843 14.4007 14.6803 14.018C14.1856 13.626 13.9383 13.08 13.9383 12.38C13.9383 11.876 14.0596 11.442 14.3023 11.078C14.545 10.714 14.8996 10.4387 15.3663 10.252C15.833 10.056 16.4023 9.958 17.0743 9.958C18.0263 9.958 18.7543 10.154 19.2583 10.546C19.7623 10.9287 20.0143 11.4747 20.0143 12.184C20.0143 12.6787 19.8883 13.108 19.6363 13.472C19.3936 13.836 19.0343 14.116 18.5583 14.312C18.0916 14.4987 17.527 14.592 16.8643 14.592ZM16.9343 13.696C17.457 13.696 17.863 13.5653 18.1523 13.304C18.451 13.0427 18.6003 12.6833 18.6003 12.226C18.6003 11.7967 18.451 11.47 18.1523 11.246C17.863 11.0127 17.4663 10.896 16.9623 10.896C16.7756 10.896 16.5703 10.91 16.3463 10.938C16.1316 10.966 15.9263 11.008 15.7303 11.064C15.6183 11.2973 15.5296 11.5307 15.4643 11.764C15.399 11.988 15.3663 12.184 15.3663 12.352C15.3663 12.7627 15.5063 13.0893 15.7863 13.332C16.0663 13.5747 16.449 13.696 16.9343 13.696ZM19.0343 10.714C18.9036 10.5273 18.801 10.3407 18.7263 10.154C18.661 9.958 18.6283 9.79 18.6283 9.65C18.6283 9.30467 18.745 9.034 18.9783 8.838C19.221 8.63267 19.5523 8.53 19.9723 8.53C20.1123 8.53 20.2616 8.544 20.4203 8.572C20.579 8.6 20.7563 8.64667 20.9523 8.712L20.8263 9.65H19.3563L19.1883 10.714H19.0343Z" fill="#888888"/>
</svg>
