<svg width="24" height="24" viewBox="0 0 24 24" fill="none" xmlns="http://www.w3.org/2000/svg">
<path d="M6.1707 15.572V7.536C6.1707 7.47067 6.7027 7.242 7.7667 6.85C8.8307 6.44867 9.44204 6.248 9.6007 6.248C9.75937 6.248 9.99737 6.43933 10.3147 6.822C10.6414 7.20467 10.8047 7.55 10.8047 7.858V11.526H11.4907V11.862L10.8047 12.212V14.928C10.8047 15.4413 11.0287 15.7447 11.4767 15.838V16.146L9.9507 17C9.74537 16.916 9.55404 16.7807 9.3767 16.594C9.19937 16.398 9.1107 16.216 9.1107 16.048V12.212H7.8507V14.844C7.8507 15.1893 7.88804 15.4367 7.9627 15.586C8.03737 15.7353 8.19137 15.81 8.4247 15.81V16.244L5.5547 17.448L5.3307 17C5.53604 17 5.73204 16.8787 5.9187 16.636C6.0867 16.4027 6.1707 16.048 6.1707 15.572ZM8.3967 7.55C8.21004 7.55 8.02804 7.62 7.8507 7.76V11.89L8.6767 11.526H9.1107V8.586C9.1107 7.89533 8.8727 7.55 8.3967 7.55ZM12.2 10.322C12.2 10.2287 12.7133 9.99067 13.74 9.608C14.776 9.216 15.4107 9.02 15.644 9.02C15.8773 9.02 16.134 9.23467 16.414 9.664C16.694 10.084 16.834 10.5507 16.834 11.064V15.516C16.834 15.8707 16.6753 16.3747 16.358 17.028C16.0407 17.6907 15.7047 18.2693 15.35 18.764C14.9953 19.268 14.7527 19.52 14.622 19.52C14.3887 19.52 14.076 19.45 13.684 19.31C13.292 19.17 12.956 19.03 12.676 18.89L12.27 18.68V18.26H12.746C13.11 18.26 13.5253 18.05 13.992 17.63C14.4587 17.2193 14.846 16.6687 15.154 15.978C14.0993 16.4727 13.4927 16.72 13.334 16.72C13.0447 16.72 12.7833 16.538 12.55 16.174C12.3167 15.8007 12.2 15.3853 12.2 14.928V10.322ZM15.154 11.54C15.154 10.7187 14.9393 10.308 14.51 10.308C14.286 10.308 14.0807 10.3827 13.894 10.532V13.752C13.894 14.4053 13.9967 14.844 14.202 15.068C14.4073 15.2827 14.7247 15.39 15.154 15.39V11.54Z" fill="#333333"/>
</svg>
