<svg width="24" height="24" viewBox="0 0 24 24" fill="none" xmlns="http://www.w3.org/2000/svg">
<path d="M9.81649 16.824C9.84449 17.132 9.92383 17.356 10.0545 17.496C10.1852 17.636 10.3345 17.7107 10.5025 17.72L10.4465 18C9.97049 17.972 9.29383 17.958 8.41649 17.958C7.46449 17.958 6.76449 17.972 6.31649 18L6.37249 17.72C6.68983 17.7013 6.93716 17.664 7.11449 17.608C7.29183 17.5427 7.41783 17.4307 7.49249 17.272C7.56716 17.104 7.59516 16.8613 7.57649 16.544L7.45049 14.248H4.42649L3.19449 15.998C2.89583 16.418 2.74649 16.7633 2.74649 17.034C2.74649 17.258 2.84449 17.426 3.04049 17.538C3.24583 17.6407 3.53983 17.7013 3.92249 17.72L3.85249 18C3.06849 17.972 2.46183 17.958 2.03249 17.958C1.68716 17.958 1.36516 17.972 1.06649 18L1.12249 17.72C1.36516 17.6547 1.60316 17.5147 1.83649 17.3C2.06049 17.0853 2.34983 16.7307 2.70449 16.236L8.54249 8.018C8.62649 8.02733 8.74783 8.032 8.90649 8.032C9.07449 8.032 9.19116 8.02733 9.25649 8.018L9.81649 16.824ZM7.43649 13.968L7.25449 10.258L4.62249 13.968H7.43649ZM19.285 18C19.3036 17.888 19.313 17.8087 19.313 17.762C19.313 17.482 19.2103 17.342 19.005 17.342C18.781 17.342 18.445 17.454 17.997 17.678C17.577 17.874 17.2083 18.0093 16.891 18.084C16.5736 18.1587 16.219 18.196 15.827 18.196C14.567 18.196 13.601 17.944 12.929 17.44C12.257 16.936 11.921 16.2127 11.921 15.27C11.921 14.3553 12.173 13.436 12.677 12.512C13.1903 11.5787 13.9183 10.8087 14.861 10.202C15.813 9.59533 16.9143 9.292 18.165 9.292C18.697 9.292 19.1496 9.376 19.523 9.544C19.9056 9.70267 20.2463 9.922 20.545 10.202C20.629 10.286 20.7083 10.328 20.783 10.328C20.8763 10.328 20.965 10.2627 21.049 10.132C21.1423 10.0013 21.2403 9.78667 21.343 9.488H21.651C21.3523 10.3467 21.0536 11.42 20.755 12.708H20.447C20.4936 12.3067 20.517 11.9567 20.517 11.658C20.517 11.434 20.503 11.2427 20.475 11.084C20.447 10.9253 20.3956 10.776 20.321 10.636C20.1156 10.2813 19.8216 10.0107 19.439 9.824C19.0656 9.63733 18.613 9.544 18.081 9.544C17.213 9.544 16.4803 9.89867 15.883 10.608C15.295 11.308 14.8563 12.1433 14.567 13.114C14.287 14.0847 14.147 14.9573 14.147 15.732C14.147 17.188 14.791 17.916 16.079 17.916C16.4896 17.916 16.835 17.8273 17.115 17.65C17.4043 17.4727 17.5956 17.188 17.689 16.796L17.941 15.858C18.0156 15.5873 18.053 15.3773 18.053 15.228C18.053 14.976 17.9643 14.7987 17.787 14.696C17.6096 14.5933 17.311 14.5327 16.891 14.514L16.947 14.234C17.5256 14.262 18.3236 14.276 19.341 14.276C20.2183 14.276 20.8716 14.262 21.301 14.234L21.245 14.514C21.0116 14.5327 20.839 14.57 20.727 14.626C20.615 14.682 20.517 14.7893 20.433 14.948C20.3583 15.0973 20.2743 15.354 20.181 15.718L19.565 18H19.285Z" fill="#333333"/>
</svg>
