<svg width="24" height="24" viewBox="0 0 24 24" fill="none" xmlns="http://www.w3.org/2000/svg">
<path d="M9.75317 7.228H12.8892C12.6558 7.46133 12.2498 7.63867 11.6712 7.76C11.0925 7.88133 10.4392 7.97933 9.71117 8.054C8.98317 8.11933 8.50717 8.17533 8.28317 8.222C7.28451 8.45533 6.78517 9.05267 6.78517 10.014C6.49584 9.71533 6.35117 9.39333 6.35117 9.048C6.35117 7.83467 7.48517 7.228 9.75317 7.228ZM13.6032 7.228H14.6112C14.1818 7.63867 13.7432 8.76333 13.2952 10.602C12.8565 12.4313 12.6372 13.8453 12.6372 14.844C12.6372 15.5533 12.7678 16.0433 13.0292 16.314C13.1412 16.4353 13.2812 16.496 13.4492 16.496C13.6172 16.496 13.7945 16.4353 13.9812 16.314L14.0652 16.44C13.9345 16.6267 13.7012 16.79 13.3652 16.93C13.0292 17.0607 12.6978 17.126 12.3712 17.126C11.8858 17.126 11.5545 16.9533 11.3772 16.608C11.1998 16.2627 11.0972 15.8007 11.0692 15.222C11.0692 14.746 11.1298 14.13 11.2512 13.374H8.04517C6.65451 14.8487 5.56251 16.0573 4.76917 17H3.36917C4.24651 16.1973 5.60917 14.8813 7.45717 13.052C9.83717 10.6813 11.4005 9.03867 12.1472 8.124C12.3338 7.9 12.4738 7.746 12.5672 7.662C12.6605 7.56867 12.8005 7.47533 12.9872 7.382C13.1832 7.27933 13.3885 7.228 13.6032 7.228ZM12.1612 9.202C11.0972 10.2007 9.93051 11.358 8.66117 12.674H11.3492C11.5172 11.75 11.7878 10.5927 12.1612 9.202ZM20.3092 11.4H20.8692C20.6732 11.5307 20.4585 11.8153 20.2252 12.254C19.9918 12.6927 19.7912 13.1267 19.6232 13.556C19.4645 13.976 19.2545 14.5547 18.9932 15.292C18.4145 16.9533 17.9105 18.0547 17.4812 18.596C17.0518 19.1467 16.5665 19.5667 16.0252 19.856C15.4932 20.1547 15.0078 20.304 14.5692 20.304C13.6358 20.304 13.1692 20.01 13.1692 19.422C13.1692 19.1887 13.2438 18.9693 13.3932 18.764C13.5332 18.5587 13.7245 18.456 13.9672 18.456C14.2098 18.456 14.3732 18.554 14.4572 18.75C14.3638 18.806 14.2892 18.904 14.2332 19.044C14.1865 19.184 14.1632 19.3147 14.1632 19.436C14.1632 19.5667 14.2098 19.674 14.3032 19.758C14.4058 19.842 14.5365 19.884 14.6952 19.884C15.1432 19.884 15.5492 19.6553 15.9132 19.198C16.2772 18.75 16.5852 18.2273 16.8372 17.63C16.9025 17.4713 17.3505 16.2393 18.1812 13.934C17.0798 16.006 16.0438 17.042 15.0732 17.042C14.4385 17.042 14.1212 16.6127 14.1212 15.754C14.1212 15.1007 14.2612 14.438 14.5412 13.766C14.8305 13.094 15.2412 12.5247 15.7732 12.058C16.3052 11.582 16.8885 11.344 17.5232 11.344C17.8125 11.344 18.0878 11.4093 18.3492 11.54C18.6198 11.6707 18.7925 11.8853 18.8672 12.184C19.0072 11.8853 19.1705 11.68 19.3572 11.568C19.5532 11.456 19.8705 11.4 20.3092 11.4ZM18.8112 12.31C18.7178 12.0113 18.4985 11.862 18.1532 11.862C17.5372 11.862 16.9352 12.296 16.3472 13.164C15.7685 14.0227 15.4792 14.788 15.4792 15.46C15.4792 15.74 15.5912 15.88 15.8152 15.88C16.0578 15.88 16.3425 15.7307 16.6692 15.432C16.9958 15.124 17.2898 14.7647 17.5512 14.354C18.3912 13.0567 18.8112 12.3753 18.8112 12.31Z" fill="#333333"/>
</svg>
