<svg width="24" height="24" viewBox="0 0 24 24" fill="none" xmlns="http://www.w3.org/2000/svg">
<path d="M11.3306 16.824C11.5546 17.4027 11.8766 17.7013 12.2966 17.72V18C11.9232 17.972 11.4239 17.958 10.7986 17.958C9.99591 17.958 9.39858 17.972 9.00658 18V17.72C9.36124 17.7013 9.61324 17.6593 9.76258 17.594C9.92125 17.5193 10.0006 17.3887 10.0006 17.202C10.0006 17.0433 9.94458 16.824 9.83258 16.544L8.97858 14.248H5.59058L5.01658 15.732C4.82991 16.236 4.73658 16.6187 4.73658 16.88C4.73658 17.1693 4.83458 17.3793 5.03058 17.51C5.23591 17.6407 5.54391 17.7107 5.95458 17.72V18C5.42258 17.972 4.88591 17.958 4.34458 17.958C3.92458 17.958 3.57458 17.972 3.29458 18V17.72C3.76124 17.608 4.12991 17.202 4.40058 16.502L7.69058 8.018H7.91458L11.3306 16.824ZM8.86658 13.968L7.29858 9.782L5.70258 13.968H8.86658ZM18.8049 12.05C18.6369 12.05 18.4923 11.994 18.3709 11.882C18.2589 11.77 18.2029 11.6067 18.2029 11.392C18.2029 11.2053 18.2496 10.9907 18.3429 10.748C18.1003 10.8507 17.9089 10.9673 17.7689 11.098C17.6289 11.2193 17.5029 11.3733 17.3909 11.56C17.6056 11.8867 17.7129 12.302 17.7129 12.806C17.7129 13.5433 17.4889 14.0987 17.0409 14.472C16.5929 14.836 16.0003 15.018 15.2629 15.018H15.2489C14.9409 15.1953 14.7076 15.3587 14.5489 15.508C14.3903 15.6573 14.3109 15.8253 14.3109 16.012C14.3109 16.3107 14.5349 16.46 14.9829 16.46H16.7329C17.3676 16.46 17.8903 16.6 18.3009 16.88C18.7209 17.1507 18.9309 17.5613 18.9309 18.112C18.9309 18.56 18.7863 18.9753 18.4969 19.358C18.2076 19.7407 17.7829 20.0487 17.2229 20.282C16.6629 20.5153 15.9863 20.632 15.1929 20.632C14.3809 20.632 13.6996 20.506 13.1489 20.254C12.6076 20.0113 12.3369 19.6473 12.3369 19.162C12.3369 18.8447 12.4629 18.5693 12.7149 18.336C12.9763 18.1027 13.3356 17.9207 13.7929 17.79L13.8769 18.014C13.6716 18.0793 13.5083 18.21 13.3869 18.406C13.2656 18.602 13.2049 18.8213 13.2049 19.064C13.2049 19.4933 13.3963 19.82 13.7789 20.044C14.1709 20.2773 14.6936 20.394 15.3469 20.394C16.0656 20.394 16.6816 20.254 17.1949 19.974C17.7083 19.7033 17.9649 19.2787 17.9649 18.7C17.9649 18.364 17.8436 18.1027 17.6009 17.916C17.3676 17.7293 16.9476 17.636 16.3409 17.636H15.3049C14.7543 17.636 14.3109 17.566 13.9749 17.426C13.6483 17.286 13.4849 17.006 13.4849 16.586C13.4849 16.2967 13.5876 16.0213 13.7929 15.76C14.0076 15.4987 14.3576 15.242 14.8429 14.99C14.2269 14.9247 13.7323 14.71 13.3589 14.346C12.9949 13.982 12.8129 13.4687 12.8129 12.806C12.8129 12.0687 13.0369 11.518 13.4849 11.154C13.9329 10.7807 14.5256 10.594 15.2629 10.594C16.1403 10.594 16.7889 10.8367 17.2089 11.322C17.3863 11.07 17.6103 10.8647 17.8809 10.706C18.1516 10.538 18.4223 10.454 18.6929 10.454C18.9356 10.454 19.1316 10.524 19.2809 10.664C19.4303 10.804 19.5049 11.0047 19.5049 11.266C19.5049 11.5273 19.4303 11.7233 19.2809 11.854C19.1409 11.9847 18.9823 12.05 18.8049 12.05ZM15.2629 14.766C15.6363 14.766 15.9163 14.6213 16.1029 14.332C16.2989 14.0333 16.3969 13.5247 16.3969 12.806C16.3969 12.0873 16.2989 11.5833 16.1029 11.294C15.9163 10.9953 15.6363 10.846 15.2629 10.846C14.8896 10.846 14.6049 10.9953 14.4089 11.294C14.2223 11.5833 14.1289 12.0873 14.1289 12.806C14.1289 13.5247 14.2223 14.0333 14.4089 14.332C14.6049 14.6213 14.8896 14.766 15.2629 14.766Z" fill="#333333"/>
</svg>
