<svg width="24" height="24" viewBox="0 0 24 24" fill="none" xmlns="http://www.w3.org/2000/svg">
<path d="M9.8504 16.824C9.8784 17.132 9.95773 17.356 10.0884 17.496C10.2191 17.636 10.3684 17.7107 10.5364 17.72L10.4804 18C9.93907 17.972 9.1504 17.958 8.1144 17.958C7.03173 17.958 6.2384 17.972 5.7344 18L5.7904 17.72C6.10773 17.7013 6.35507 17.664 6.5324 17.608C6.70973 17.5427 6.83573 17.4307 6.9104 17.272C6.98507 17.104 7.01307 16.8613 6.9944 16.544L6.8684 14.248H4.1244L2.7664 16.166C2.5424 16.4833 2.4304 16.7493 2.4304 16.964C2.4304 17.4027 2.85973 17.6547 3.7184 17.72L3.6624 18C2.70107 17.972 2.0384 17.958 1.6744 17.958C1.35707 17.958 1.05373 17.972 0.764398 18L0.820398 17.72C1.08173 17.6453 1.32907 17.496 1.5624 17.272C1.7864 17.048 2.1084 16.642 2.5284 16.054L8.2404 8.018C8.4644 8.03667 8.64173 8.046 8.7724 8.046C8.9124 8.046 9.08507 8.03667 9.2904 8.018L9.8504 16.824ZM6.8544 13.968L6.6864 10.636L4.3204 13.968H6.8544ZM19.6496 18C19.659 17.9533 19.6636 17.8833 19.6636 17.79C19.6636 17.4913 19.5423 17.342 19.2996 17.342C19.141 17.342 18.973 17.37 18.7956 17.426C18.6183 17.4727 18.3896 17.5567 18.1096 17.678C17.6336 17.8833 17.2416 18.0187 16.9336 18.084C16.6256 18.1587 16.2943 18.196 15.9396 18.196C14.605 18.196 13.5783 17.944 12.8596 17.44C12.141 16.936 11.7816 16.2127 11.7816 15.27C11.7816 14.3553 12.0476 13.436 12.5796 12.512C13.121 11.5787 13.891 10.8087 14.8896 10.202C15.8883 9.59533 17.0456 9.292 18.3616 9.292C19.3323 9.292 20.1443 9.59533 20.7976 10.202C20.8816 10.286 20.961 10.328 21.0356 10.328C21.129 10.328 21.2176 10.2627 21.3016 10.132C21.395 10.0013 21.493 9.78667 21.5956 9.488H21.9036C21.605 10.3467 21.3063 11.42 21.0076 12.708H20.6996C20.7463 12.3067 20.7696 11.9567 20.7696 11.658C20.7696 11.434 20.7556 11.2427 20.7276 11.084C20.6996 10.9253 20.6483 10.776 20.5736 10.636C20.1536 9.908 19.3883 9.544 18.2776 9.544C17.475 9.544 16.7983 9.89867 16.2476 10.608C15.697 11.308 15.2863 12.1433 15.0156 13.114C14.7543 14.0847 14.6236 14.9573 14.6236 15.732C14.6236 16.46 14.759 17.006 15.0296 17.37C15.3003 17.734 15.697 17.916 16.2196 17.916C16.593 17.916 16.8683 17.832 17.0456 17.664C17.223 17.496 17.3536 17.2067 17.4376 16.796L17.6896 15.858C17.7456 15.6433 17.7736 15.4567 17.7736 15.298C17.7736 15.0367 17.6803 14.8453 17.4936 14.724C17.3163 14.6027 17.0316 14.5327 16.6396 14.514L16.6956 14.234C17.3303 14.262 18.2216 14.276 19.3696 14.276C20.3963 14.276 21.1616 14.262 21.6656 14.234L21.6096 14.514C21.3763 14.5327 21.2036 14.57 21.0916 14.626C20.9796 14.682 20.8816 14.7893 20.7976 14.948C20.723 15.0973 20.639 15.354 20.5456 15.718L19.9296 18H19.6496Z" fill="#333333"/>
</svg>
