<svg width="24" height="24" viewBox="0 0 24 24" fill="none" xmlns="http://www.w3.org/2000/svg">
<path d="M11.4009 15.824C11.6249 16.4027 11.9469 16.7013 12.3669 16.72V17C11.9936 16.972 11.4942 16.958 10.8689 16.958C10.0662 16.958 9.46889 16.972 9.07689 17V16.72C9.43156 16.7013 9.68356 16.6593 9.83289 16.594C9.99156 16.5193 10.0709 16.3887 10.0709 16.202C10.0709 16.0433 10.0149 15.824 9.90289 15.544L9.04889 13.248H5.66089L5.08689 14.732C4.90022 15.236 4.80689 15.6187 4.80689 15.88C4.80689 16.1693 4.90489 16.3793 5.10089 16.51C5.30622 16.6407 5.61422 16.7107 6.02489 16.72V17C5.49289 16.972 4.95622 16.958 4.41489 16.958C3.99489 16.958 3.64489 16.972 3.36489 17V16.72C3.83156 16.608 4.20022 16.202 4.47089 15.502L7.76089 7.018H7.98489L11.4009 15.824ZM8.93689 12.968L7.36889 8.782L5.77289 12.968H8.93689ZM17.2093 8.292C17.7319 8.292 18.1519 8.36667 18.4693 8.516C18.7959 8.66533 19.1413 8.894 19.5053 9.202C19.6266 9.29533 19.7199 9.342 19.7853 9.342C19.9626 9.342 20.0793 9.05733 20.1353 8.488H20.4573C20.4199 9.02 20.4013 9.95333 20.4013 11.288H20.0793C20.0046 10.9333 19.9113 10.6207 19.7993 10.35C19.6966 10.0793 19.5566 9.84133 19.3793 9.636C19.0713 9.28133 18.7493 9.01067 18.4133 8.824C18.0773 8.63733 17.6666 8.544 17.1813 8.544C16.6213 8.544 16.1359 8.71667 15.7253 9.062C15.3146 9.398 14.9973 9.88333 14.7733 10.518C14.5493 11.1527 14.4373 11.8993 14.4373 12.758C14.4373 14.186 14.6986 15.236 15.2213 15.908C15.7439 16.58 16.5233 16.916 17.5593 16.916C17.9606 16.916 18.3199 16.8787 18.6373 16.804C18.8053 16.7667 18.9173 16.706 18.9733 16.622C19.0386 16.538 19.0713 16.4213 19.0713 16.272V15.068C19.0713 14.676 19.0339 14.3913 18.9593 14.214C18.8846 14.0367 18.7539 13.9153 18.5673 13.85C18.3806 13.7847 18.0773 13.7427 17.6573 13.724V13.444C18.1613 13.472 18.8193 13.486 19.6313 13.486C20.2659 13.486 20.7513 13.472 21.0873 13.444V13.724C20.8726 13.7427 20.7186 13.78 20.6253 13.836C20.5319 13.892 20.4666 13.9993 20.4293 14.158C20.3919 14.3167 20.3733 14.5733 20.3733 14.928V17H20.0933C20.0746 16.776 20.0046 16.664 19.8833 16.664C19.8273 16.664 19.7246 16.6967 19.5753 16.762C19.4259 16.8273 19.3233 16.8693 19.2673 16.888C18.6699 17.0933 18.0586 17.196 17.4333 17.196C16.0333 17.196 14.9506 16.8227 14.1853 16.076C13.4199 15.32 13.0373 14.2653 13.0373 12.912C13.0373 11.9787 13.2146 11.1667 13.5693 10.476C13.9239 9.776 14.4139 9.23933 15.0393 8.866C15.6739 8.48333 16.3973 8.292 17.2093 8.292Z" fill="#888888"/>
</svg>
