<svg width="24" height="24" viewBox="0 0 24 24" fill="none" xmlns="http://www.w3.org/2000/svg">
<path d="M12.1211 16.824C12.2425 17.1227 12.3731 17.3467 12.5131 17.496C12.6625 17.636 12.8071 17.7107 12.9471 17.72V18C12.2751 17.972 11.4258 17.958 10.3991 17.958C9.33513 17.958 8.55113 17.972 8.04713 18V17.72C8.4018 17.7013 8.6538 17.6593 8.80313 17.594C8.95247 17.5193 9.02713 17.3933 9.02713 17.216C9.02713 17.048 8.97113 16.824 8.85913 16.544L8.03313 14.248H5.20513L4.96713 14.878C4.65913 15.6713 4.50513 16.278 4.50513 16.698C4.50513 17.0807 4.61247 17.342 4.82713 17.482C5.0418 17.622 5.35913 17.7013 5.77913 17.72V18C5.07913 17.972 4.4678 17.958 3.94513 17.958C3.50647 17.958 3.14713 17.972 2.86713 18V17.72C3.10047 17.6827 3.3198 17.538 3.52513 17.286C3.73047 17.034 3.94047 16.6327 4.15513 16.082L7.26313 8.088C7.5618 8.10667 7.80913 8.116 8.00513 8.116C8.1918 8.116 8.43447 8.10667 8.73313 8.088L12.1211 16.824ZM7.93513 13.968L6.66113 10.468L5.31713 13.968H7.93513ZM20.0785 12.148C19.8825 12.148 19.7098 12.0827 19.5605 11.952C19.4205 11.812 19.3505 11.6207 19.3505 11.378C19.3505 11.154 19.4158 10.9113 19.5465 10.65C19.1358 10.818 18.8325 11.056 18.6365 11.364C18.9818 11.728 19.1545 12.1993 19.1545 12.778C19.1545 13.5153 18.8792 14.0753 18.3285 14.458C17.7872 14.8313 17.0592 15.018 16.1445 15.018C15.9672 15.018 15.8365 15.0133 15.7525 15.004C15.5098 15.172 15.3885 15.368 15.3885 15.592C15.3885 15.8907 15.5565 16.04 15.8925 16.04H17.2505C18.2025 16.04 18.9445 16.2033 19.4765 16.53C20.0178 16.8473 20.2885 17.3467 20.2885 18.028C20.2885 18.5133 20.1298 18.952 19.8125 19.344C19.5045 19.736 19.0238 20.0487 18.3705 20.282C17.7265 20.5153 16.9192 20.632 15.9485 20.632C14.9872 20.632 14.2312 20.5247 13.6805 20.31C13.1298 20.0953 12.8545 19.792 12.8545 19.4C12.8545 19.1293 12.9898 18.882 13.2605 18.658C13.5312 18.434 13.9418 18.2567 14.4925 18.126L14.6325 18.35C14.3805 18.658 14.2545 18.9567 14.2545 19.246C14.2545 19.61 14.4178 19.89 14.7445 20.086C15.0805 20.2913 15.5472 20.394 16.1445 20.394C16.7605 20.394 17.2318 20.268 17.5585 20.016C17.8945 19.7733 18.0625 19.4467 18.0625 19.036C18.0625 18.7467 17.9505 18.5133 17.7265 18.336C17.5118 18.168 17.1292 18.084 16.5785 18.084H15.8225C15.1878 18.084 14.7025 17.9627 14.3665 17.72C14.0305 17.4773 13.8625 17.1507 13.8625 16.74C13.8625 16.3667 13.9932 16.04 14.2545 15.76C14.5252 15.48 14.9125 15.2187 15.4165 14.976C14.7072 14.8827 14.1472 14.654 13.7365 14.29C13.3352 13.9167 13.1345 13.4127 13.1345 12.778C13.1345 12.0407 13.4052 11.4853 13.9465 11.112C14.4972 10.7293 15.2298 10.538 16.1445 10.538C17.1245 10.538 17.8805 10.7433 18.4125 11.154C18.5898 10.9113 18.8045 10.72 19.0565 10.58C19.3085 10.44 19.5745 10.37 19.8545 10.37C20.1625 10.37 20.4005 10.4587 20.5685 10.636C20.7365 10.804 20.8205 11.0233 20.8205 11.294C20.8205 11.5553 20.7505 11.7653 20.6105 11.924C20.4705 12.0733 20.2932 12.148 20.0785 12.148ZM16.1445 14.766C16.3312 14.766 16.4712 14.6167 16.5645 14.318C16.6672 14.01 16.7185 13.4967 16.7185 12.778C16.7185 12.0593 16.6672 11.5507 16.5645 11.252C16.4712 10.944 16.3312 10.79 16.1445 10.79C15.9578 10.79 15.8132 10.944 15.7105 11.252C15.6172 11.5507 15.5705 12.0593 15.5705 12.778C15.5705 13.4967 15.6172 14.01 15.7105 14.318C15.8132 14.6167 15.9578 14.766 16.1445 14.766Z" fill="#333333"/>
</svg>
