<svg width="24" height="24" viewBox="0 0 24 24" fill="none" xmlns="http://www.w3.org/2000/svg">
<path d="M11.5091 15.824C11.5371 16.132 11.6165 16.356 11.7471 16.496C11.8778 16.636 12.0271 16.7107 12.1951 16.72L12.1391 17C11.7658 16.972 11.2571 16.958 10.6131 16.958C9.85713 16.958 9.29713 16.972 8.93313 17L8.98913 16.72C9.30646 16.7013 9.54913 16.664 9.71713 16.608C9.89446 16.5427 10.0205 16.4307 10.0951 16.272C10.1698 16.104 10.2025 15.8613 10.1931 15.544L10.0671 13.248H6.62313L5.57313 14.732C5.13446 15.348 4.91512 15.81 4.91512 16.118C4.91512 16.5007 5.26046 16.7013 5.95113 16.72L5.88113 17C5.36779 16.972 4.83579 16.958 4.28512 16.958C3.88379 16.958 3.53379 16.972 3.23512 17L3.30512 16.72C3.73446 16.6267 4.20112 16.2207 4.70513 15.502L10.7391 7.018H10.9491L11.5091 15.824ZM10.0531 12.968L9.81513 8.726L6.81913 12.968H10.0531ZM19.4598 9.034C19.7118 9.034 19.9078 9.104 20.0478 9.244C20.1971 9.384 20.2718 9.594 20.2718 9.874C20.2718 10.1167 20.2111 10.3033 20.0898 10.434C19.9685 10.5647 19.8238 10.63 19.6558 10.63C19.4785 10.63 19.3198 10.5693 19.1798 10.448C19.0491 10.3267 18.9838 10.1493 18.9838 9.916C18.9838 9.748 19.0258 9.552 19.1098 9.328C18.7458 9.48667 18.4798 9.68267 18.3118 9.916C18.7038 10.1867 18.8998 10.6067 18.8998 11.176C18.8998 11.5867 18.7971 11.988 18.5918 12.38C18.3958 12.772 18.1111 13.1127 17.7378 13.402C17.3738 13.682 16.9491 13.8687 16.4638 13.962L16.0018 14.214C15.5631 14.4473 15.2411 14.634 15.0358 14.774C14.8398 14.914 14.7418 15.0493 14.7418 15.18C14.7418 15.2827 14.8071 15.3713 14.9378 15.446C15.0685 15.5207 15.2831 15.5953 15.5818 15.67L16.6038 15.936C17.1358 16.076 17.5325 16.23 17.7938 16.398C18.0551 16.566 18.1858 16.818 18.1858 17.154C18.1858 17.5087 18.0365 17.8867 17.7378 18.288C17.4485 18.6893 16.9958 19.03 16.3798 19.31C15.7731 19.59 15.0218 19.73 14.1258 19.73C13.4071 19.73 12.8611 19.6367 12.4878 19.45C12.1051 19.2633 11.9138 19.0067 11.9138 18.68C11.9138 18.3627 12.0865 18.0407 12.4318 17.714C12.7771 17.3967 13.2671 17.1447 13.9018 16.958L13.9998 17.168C13.3931 17.4853 13.0898 17.91 13.0898 18.442C13.0898 18.7967 13.2111 19.058 13.4538 19.226C13.7058 19.4033 14.0371 19.492 14.4478 19.492C14.8585 19.492 15.2831 19.408 15.7218 19.24C16.1605 19.072 16.5198 18.848 16.7998 18.568C17.0891 18.2973 17.2338 18.0127 17.2338 17.714C17.2338 17.5833 17.1965 17.4947 17.1218 17.448C17.0471 17.4013 16.8931 17.35 16.6598 17.294L14.5178 16.748C14.0138 16.6173 13.7618 16.3373 13.7618 15.908C13.7618 15.6187 13.9111 15.334 14.2098 15.054C14.5178 14.7647 15.0918 14.4193 15.9318 14.018H15.8338C15.2925 14.018 14.8538 13.892 14.5178 13.64C14.1818 13.3787 14.0138 12.996 14.0138 12.492C14.0138 12.1 14.1165 11.68 14.3218 11.232C14.5271 10.784 14.8585 10.4013 15.3158 10.084C15.7731 9.76667 16.3518 9.608 17.0518 9.608C17.4531 9.608 17.7891 9.66867 18.0598 9.79C18.2371 9.566 18.4518 9.384 18.7038 9.244C18.9558 9.104 19.2078 9.034 19.4598 9.034ZM15.9738 13.766C16.4031 13.766 16.7438 13.6027 16.9958 13.276C17.2478 12.94 17.4205 12.5527 17.5138 12.114C17.6071 11.6753 17.6538 11.2693 17.6538 10.896C17.6538 10.5507 17.6071 10.294 17.5138 10.126C17.4205 9.94867 17.2478 9.86 16.9958 9.86C16.5478 9.86 16.1885 10.0607 15.9178 10.462C15.6565 10.854 15.4745 11.288 15.3718 11.764C15.2785 12.24 15.2318 12.6273 15.2318 12.926C15.2318 13.486 15.4791 13.766 15.9738 13.766Z" fill="#888888"/>
</svg>
