<svg width="24" height="24" viewBox="0 0 24 24" fill="none" xmlns="http://www.w3.org/2000/svg">
<path d="M11.9854 14.5049V17H9.72266V14.5049H10.208L10.0645 13.2402H9.05273L8.90234 14.5049H9.42871V17H7.54199V14.5049H7.97266L8.90234 7.66895H10.625L11.582 14.5049H11.9854ZM9.93457 12.2832L9.55859 9.41211L9.16895 12.2832H9.93457ZM15.5127 8.60547V9.68555C15.2985 9.58073 15.1367 9.52832 15.0273 9.52832C14.7949 9.52832 14.6605 9.68555 14.624 10C14.6195 10.0319 14.6149 10.0752 14.6104 10.1299C15.0661 10.3896 15.2939 11.2464 15.2939 12.7002C15.2939 14.2406 14.8678 15.0107 14.0156 15.0107C13.8105 15.0107 13.6055 14.9766 13.4004 14.9082C13.168 15.0996 13.0518 15.2819 13.0518 15.4551C13.0518 15.7285 13.3844 15.8926 14.0498 15.9473C15.0889 16.0247 15.6084 16.6058 15.6084 17.6904C15.6084 18.9163 15.0479 19.5293 13.9268 19.5293C12.7646 19.5293 12.1836 19.028 12.1836 18.0254C12.1836 17.4648 12.416 17.0319 12.8809 16.7266C12.4525 16.5352 12.2383 16.1911 12.2383 15.6943C12.2383 15.2386 12.4525 14.8763 12.8809 14.6074C12.5846 14.3249 12.4365 13.7826 12.4365 12.9805C12.4365 11.7773 12.5345 10.973 12.7305 10.5674C12.931 10.1618 13.3275 9.95898 13.9199 9.95898C13.9609 9.95898 14.0316 9.9681 14.1318 9.98633L14.1455 9.76074C14.2002 8.90397 14.4827 8.47559 14.9932 8.47559C15.139 8.47559 15.3122 8.51888 15.5127 8.60547ZM13.8584 11.3604C13.5804 11.3604 13.4414 11.7363 13.4414 12.4883C13.4414 13.2357 13.5827 13.6094 13.8652 13.6094C14.1478 13.6094 14.2891 13.2197 14.2891 12.4404C14.2891 11.7204 14.1455 11.3604 13.8584 11.3604ZM13.4072 16.918C13.2614 17.1458 13.1885 17.3691 13.1885 17.5879C13.1885 18.0436 13.4346 18.2715 13.9268 18.2715C14.3779 18.2715 14.6035 18.0573 14.6035 17.6289C14.6035 17.237 14.3483 17.0182 13.8379 16.9727C13.6829 16.959 13.5394 16.9408 13.4072 16.918Z" fill="#888888"/>
</svg>
