<svg width="24" height="24" viewBox="0 0 24 24" fill="none" xmlns="http://www.w3.org/2000/svg">
<path d="M7.27024 7.914H8.83824L12.3662 17H10.9522L9.91624 14.242H6.02424L5.00224 17H3.65824L7.27024 7.914ZM9.58024 13.304L8.04024 9.202H7.91424L6.37424 13.304H9.58024ZM16.2351 20.08C15.3111 20.08 14.5317 20.0287 13.8971 19.926V19.03C15.0171 19.1607 15.8337 19.226 16.3471 19.226C16.9911 19.226 17.4577 19.1233 17.7471 18.918C18.0457 18.7127 18.1951 18.372 18.1951 17.896V16.272C18.1764 16.5707 17.9711 16.79 17.5791 16.93C17.1964 17.07 16.7111 17.14 16.1231 17.14C15.4231 17.14 14.8771 17.0747 14.4851 16.944C14.1024 16.8133 13.8271 16.5987 13.6591 16.3C13.5004 16.0013 13.4211 15.5953 13.4211 15.082V12.324C13.4211 11.5213 13.6357 10.9473 14.0651 10.602C14.5037 10.2567 15.2177 10.084 16.2071 10.084C17.3831 10.084 18.0737 10.35 18.2791 10.882V10.224H19.4551V17.644C19.4551 18.2693 19.3384 18.7593 19.1051 19.114C18.8717 19.4687 18.5217 19.716 18.0551 19.856C17.5884 20.0053 16.9817 20.08 16.2351 20.08ZM16.3891 16.3C17.0517 16.3 17.5184 16.2207 17.7891 16.062C18.0597 15.9033 18.1951 15.6047 18.1951 15.166V12.1C18.1951 11.792 18.1437 11.5587 18.0411 11.4C17.9477 11.2413 17.7704 11.1293 17.5091 11.064C17.2477 10.9893 16.8651 10.952 16.3611 10.952C15.8851 10.952 15.5257 10.9847 15.2831 11.05C15.0497 11.1153 14.8864 11.232 14.7931 11.4C14.7091 11.5587 14.6671 11.792 14.6671 12.1V15.166C14.6671 15.4833 14.7137 15.7213 14.8071 15.88C14.9004 16.0387 15.0684 16.1507 15.3111 16.216C15.5537 16.272 15.9131 16.3 16.3891 16.3Z" fill="#333333"/>
</svg>
