<svg width="24" height="24" viewBox="0 0 24 24" fill="none" xmlns="http://www.w3.org/2000/svg">
<path d="M7.98786 7.032L11.4039 15.824C11.5345 16.1693 11.6839 16.4027 11.8519 16.524C12.0292 16.6453 12.1925 16.7107 12.3419 16.72V17C12.1179 16.9813 11.8519 16.972 11.5439 16.972C11.2452 16.9627 10.9419 16.958 10.6339 16.958C10.2419 16.958 9.87786 16.9627 9.54186 16.972C9.20586 16.972 8.93519 16.9813 8.72986 17V16.72C9.20586 16.7013 9.50453 16.622 9.62586 16.482C9.75653 16.3327 9.72853 16.02 9.54186 15.544L7.02186 8.74L7.24586 8.488L4.92186 14.564C4.75386 14.984 4.65119 15.334 4.61386 15.614C4.58586 15.894 4.60919 16.1133 4.68386 16.272C4.76786 16.4307 4.90786 16.5427 5.10386 16.608C5.29986 16.6733 5.54253 16.7107 5.83186 16.72V17C5.55186 16.9813 5.26719 16.972 4.97786 16.972C4.69786 16.9627 4.43186 16.958 4.17986 16.958C3.95586 16.958 3.75519 16.9627 3.57786 16.972C3.40986 16.972 3.25586 16.9813 3.11586 17V16.72C3.31186 16.6733 3.50786 16.5567 3.70386 16.37C3.89986 16.1833 4.08653 15.866 4.26386 15.418L7.51186 7.032C7.58653 7.032 7.66586 7.032 7.74986 7.032C7.83386 7.032 7.91319 7.032 7.98786 7.032ZM9.45786 12.968V13.248H5.28586L5.42586 12.968H9.45786ZM15.2483 19.632C14.7256 19.632 14.2403 19.5807 13.7923 19.478C13.3536 19.3753 12.9989 19.2167 12.7283 19.002C12.4669 18.7967 12.3363 18.5307 12.3363 18.204C12.3363 17.896 12.4669 17.6253 12.7283 17.392C12.9896 17.1587 13.3583 16.9813 13.8343 16.86L13.9323 17.084C13.7363 17.168 13.5823 17.3033 13.4703 17.49C13.3676 17.6767 13.3163 17.882 13.3163 18.106C13.3163 18.5167 13.5076 18.834 13.8903 19.058C14.2729 19.282 14.7769 19.394 15.4023 19.394C15.8223 19.394 16.2189 19.338 16.5923 19.226C16.9749 19.1233 17.2829 18.9507 17.5163 18.708C17.7589 18.4653 17.8803 18.1527 17.8803 17.77C17.8803 17.4713 17.7729 17.2193 17.5583 17.014C17.3436 16.818 16.9189 16.72 16.2843 16.72H15.3043C14.9776 16.72 14.6743 16.692 14.3943 16.636C14.1143 16.58 13.8856 16.4727 13.7083 16.314C13.5403 16.146 13.4563 15.9127 13.4563 15.614C13.4563 15.278 13.5963 14.9607 13.8763 14.662C14.1563 14.3633 14.6276 14.0693 15.2903 13.78L15.4583 13.906C15.1876 14.0553 14.9449 14.2093 14.7303 14.368C14.5249 14.5173 14.4223 14.704 14.4223 14.928C14.4223 15.2267 14.6369 15.376 15.0663 15.376H16.7323C17.1709 15.376 17.5676 15.4367 17.9223 15.558C18.2769 15.67 18.5616 15.852 18.7763 16.104C18.9909 16.356 19.0983 16.6873 19.0983 17.098C19.0983 17.5367 18.9536 17.9473 18.6643 18.33C18.3843 18.722 17.9596 19.0347 17.3903 19.268C16.8209 19.5107 16.1069 19.632 15.2483 19.632ZM15.3323 14.018C14.8563 14.018 14.4223 13.9433 14.0303 13.794C13.6383 13.6353 13.3303 13.3927 13.1063 13.066C12.8823 12.7393 12.7703 12.3193 12.7703 11.806C12.7703 11.2927 12.8823 10.8727 13.1063 10.546C13.3303 10.21 13.6383 9.96733 14.0303 9.818C14.4223 9.65933 14.8563 9.58 15.3323 9.58C15.8269 9.58 16.2656 9.65933 16.6483 9.818C17.0309 9.96733 17.3343 10.21 17.5583 10.546C17.7823 10.8727 17.8943 11.2927 17.8943 11.806C17.8943 12.3193 17.7823 12.7393 17.5583 13.066C17.3343 13.3927 17.0309 13.6353 16.6483 13.794C16.2656 13.9433 15.8269 14.018 15.3323 14.018ZM15.3323 13.766C15.6589 13.766 15.9109 13.626 16.0883 13.346C16.2656 13.066 16.3543 12.5527 16.3543 11.806C16.3543 11.0593 16.2656 10.546 16.0883 10.266C15.9109 9.97667 15.6589 9.832 15.3323 9.832C15.0243 9.832 14.7769 9.97667 14.5903 10.266C14.4036 10.546 14.3103 11.0593 14.3103 11.806C14.3103 12.5527 14.4036 13.066 14.5903 13.346C14.7769 13.626 15.0243 13.766 15.3323 13.766ZM17.4043 10.756L17.1523 10.658C17.2829 10.3313 17.5069 10.0467 17.8243 9.804C18.1416 9.56133 18.4729 9.44 18.8183 9.44C19.0796 9.44 19.2849 9.51467 19.4343 9.664C19.5929 9.804 19.6723 10.0047 19.6723 10.266C19.6723 10.5553 19.5929 10.7607 19.4343 10.882C19.2849 11.0033 19.1263 11.064 18.9583 11.064C18.8089 11.064 18.6689 11.0127 18.5383 10.91C18.4169 10.8073 18.3469 10.6487 18.3283 10.434C18.3096 10.21 18.3796 9.92533 18.5383 9.58L18.6923 9.636C18.3189 9.78533 18.0436 9.944 17.8663 10.112C17.6983 10.2707 17.5443 10.4853 17.4043 10.756Z" fill="#888888"/>
</svg>
