<svg width="24" height="24" viewBox="0 0 24 24" fill="none" xmlns="http://www.w3.org/2000/svg">
<path d="M8.04063 7.046L11.4426 15.824C11.5826 16.16 11.732 16.3933 11.8906 16.524C12.0586 16.6453 12.2126 16.7107 12.3526 16.72V17C12.11 16.9813 11.816 16.972 11.4706 16.972C11.1346 16.9627 10.7893 16.958 10.4346 16.958C10.024 16.958 9.6413 16.9627 9.28663 16.972C8.93197 16.972 8.64263 16.9813 8.41863 17V16.72C8.89463 16.7013 9.19797 16.622 9.32863 16.482C9.4593 16.3327 9.4313 16.02 9.24463 15.544L6.78063 8.894L7.03263 8.586L4.79263 14.396C4.6153 14.8627 4.50797 15.2453 4.47063 15.544C4.4333 15.8427 4.45663 16.076 4.54063 16.244C4.62463 16.412 4.76463 16.5333 4.96063 16.608C5.15663 16.6733 5.3993 16.7107 5.68863 16.72V17C5.38997 16.9813 5.10063 16.972 4.82063 16.972C4.54063 16.9627 4.26063 16.958 3.98063 16.958C3.7753 16.958 3.5793 16.9627 3.39263 16.972C3.2153 16.972 3.05663 16.9813 2.91663 17V16.72C3.12197 16.6733 3.32263 16.552 3.51863 16.356C3.72397 16.16 3.91997 15.8193 4.10663 15.334L7.31263 7.046C7.42463 7.05533 7.54597 7.06 7.67663 7.06C7.8073 7.06 7.92863 7.05533 8.04063 7.046ZM9.25863 12.968V13.248H5.08663L5.22663 12.968H9.25863ZM15.2965 19.632C14.7458 19.632 14.2465 19.5807 13.7985 19.478C13.3505 19.3753 12.9958 19.2213 12.7345 19.016C12.4731 18.82 12.3425 18.568 12.3425 18.26C12.3425 17.9613 12.4731 17.6953 12.7345 17.462C12.9958 17.2287 13.3785 17.0513 13.8825 16.93L13.9805 17.154C13.8031 17.2567 13.6678 17.3967 13.5745 17.574C13.4811 17.7513 13.4345 17.938 13.4345 18.134C13.4345 18.5353 13.6165 18.8433 13.9805 19.058C14.3538 19.282 14.8485 19.394 15.4645 19.394C15.8845 19.394 16.2718 19.338 16.6265 19.226C16.9811 19.114 17.2658 18.9413 17.4805 18.708C17.6951 18.4747 17.8025 18.1853 17.8025 17.84C17.8025 17.5507 17.6951 17.308 17.4805 17.112C17.2751 16.916 16.8598 16.818 16.2345 16.818H15.3105C14.9651 16.818 14.6478 16.7807 14.3585 16.706C14.0785 16.6313 13.8545 16.51 13.6865 16.342C13.5185 16.174 13.4345 15.9407 13.4345 15.642C13.4345 15.278 13.5838 14.9513 13.8825 14.662C14.1811 14.3633 14.6478 14.074 15.2825 13.794L15.4365 13.92C15.2031 14.0413 14.9931 14.172 14.8065 14.312C14.6291 14.452 14.5405 14.6293 14.5405 14.844C14.5405 15.1427 14.7458 15.292 15.1565 15.292H16.7385C17.2238 15.292 17.6531 15.3527 18.0265 15.474C18.4091 15.5953 18.7125 15.7867 18.9365 16.048C19.1605 16.3093 19.2725 16.6547 19.2725 17.084C19.2725 17.532 19.1278 17.9473 18.8385 18.33C18.5491 18.722 18.1105 19.0347 17.5225 19.268C16.9438 19.5107 16.2018 19.632 15.2965 19.632ZM15.4225 14.018C14.9185 14.018 14.4611 13.9433 14.0505 13.794C13.6491 13.6353 13.3318 13.3927 13.0985 13.066C12.8651 12.73 12.7485 12.3053 12.7485 11.792C12.7485 11.2787 12.8651 10.8587 13.0985 10.532C13.3318 10.2053 13.6491 9.96267 14.0505 9.804C14.4611 9.64533 14.9185 9.566 15.4225 9.566C15.9358 9.566 16.3931 9.64533 16.7945 9.804C17.1958 9.96267 17.5131 10.2053 17.7465 10.532C17.9798 10.8587 18.0965 11.2787 18.0965 11.792C18.0965 12.3053 17.9798 12.73 17.7465 13.066C17.5131 13.3927 17.1958 13.6353 16.7945 13.794C16.3931 13.9433 15.9358 14.018 15.4225 14.018ZM15.4225 13.766C15.7025 13.766 15.9218 13.626 16.0805 13.346C16.2485 13.0567 16.3325 12.5387 16.3325 11.792C16.3325 11.0453 16.2485 10.532 16.0805 10.252C15.9218 9.96267 15.7025 9.818 15.4225 9.818C15.1425 9.818 14.9185 9.96267 14.7505 10.252C14.5918 10.532 14.5125 11.0453 14.5125 11.792C14.5125 12.5387 14.5918 13.0567 14.7505 13.346C14.9185 13.626 15.1425 13.766 15.4225 13.766ZM17.5365 10.756L17.2705 10.658C17.4105 10.3127 17.6391 10.0233 17.9565 9.79C18.2738 9.54733 18.6098 9.426 18.9645 9.426C19.2351 9.426 19.4451 9.50067 19.5945 9.65C19.7531 9.79933 19.8325 10.0093 19.8325 10.28C19.8325 10.56 19.7578 10.7653 19.6085 10.896C19.4591 11.0267 19.2958 11.092 19.1185 11.092C18.9598 11.092 18.8151 11.0407 18.6845 10.938C18.5538 10.826 18.4791 10.658 18.4605 10.434C18.4418 10.2007 18.5165 9.91133 18.6845 9.566L18.8245 9.622C18.4605 9.762 18.1898 9.916 18.0125 10.084C17.8351 10.252 17.6765 10.476 17.5365 10.756Z" fill="#888888"/>
</svg>
