<svg width="24" height="24" viewBox="0 0 24 24" fill="none" xmlns="http://www.w3.org/2000/svg">
<path d="M12.0159 15.824C12.1372 16.132 12.2772 16.356 12.4359 16.496C12.5946 16.636 12.7486 16.7107 12.8979 16.72V17C12.3379 16.972 11.6286 16.958 10.7699 16.958C9.81791 16.958 9.10858 16.972 8.64191 17V16.72C8.99658 16.7013 9.24858 16.6593 9.39791 16.594C9.54725 16.5193 9.62191 16.3933 9.62191 16.216C9.62191 16.048 9.56591 15.824 9.45391 15.544L8.61391 13.248H5.56191L5.19791 14.214C4.93658 14.886 4.80591 15.404 4.80591 15.768C4.80591 16.1133 4.90858 16.356 5.11391 16.496C5.32858 16.6267 5.64125 16.7013 6.05191 16.72V17C5.41725 16.972 4.83858 16.958 4.31591 16.958C3.88658 16.958 3.53191 16.972 3.25191 17V16.72C3.70925 16.636 4.11058 16.146 4.45591 15.25L7.64791 7.06C7.75058 7.06933 7.91391 7.074 8.13791 7.074C8.36191 7.074 8.52058 7.06933 8.61391 7.06L12.0159 15.824ZM8.51591 12.968L7.12991 9.188L5.67391 12.968H8.51591ZM19.7718 11.106C19.5851 11.106 19.4265 11.0453 19.2958 10.924C19.1651 10.7933 19.0998 10.6113 19.0998 10.378C19.0998 10.154 19.1558 9.92533 19.2678 9.692C19.0438 9.78533 18.8571 9.89267 18.7078 10.014C18.5678 10.126 18.4465 10.2707 18.3438 10.448C18.6331 10.7933 18.7778 11.2413 18.7778 11.792C18.7778 12.5293 18.5211 13.0847 18.0078 13.458C17.5038 13.8313 16.8318 14.018 15.9918 14.018H15.7398C15.3571 14.242 15.1658 14.4893 15.1658 14.76C15.1658 15.0587 15.3525 15.208 15.7258 15.208H17.2518C18.0731 15.208 18.7265 15.362 19.2118 15.67C19.7065 15.9687 19.9538 16.4307 19.9538 17.056C19.9538 17.532 19.7998 17.9613 19.4918 18.344C19.1931 18.736 18.7358 19.0487 18.1198 19.282C17.5038 19.5153 16.7478 19.632 15.8518 19.632C14.9465 19.632 14.2185 19.5153 13.6678 19.282C13.1265 19.058 12.8558 18.7313 12.8558 18.302C12.8558 18.0127 12.9865 17.7513 13.2478 17.518C13.5091 17.294 13.8965 17.1167 14.4098 16.986L14.5358 17.21C14.1998 17.49 14.0318 17.812 14.0318 18.176C14.0318 18.568 14.2091 18.8667 14.5638 19.072C14.9185 19.2867 15.4085 19.394 16.0338 19.394C16.6871 19.394 17.2145 19.2633 17.6158 19.002C18.0265 18.7407 18.2318 18.372 18.2318 17.896C18.2318 17.588 18.1151 17.3453 17.8818 17.168C17.6578 16.9907 17.2611 16.902 16.6918 16.902H15.8238C15.2265 16.902 14.7598 16.804 14.4238 16.608C14.0878 16.4027 13.9198 16.0947 13.9198 15.684C13.9198 15.3387 14.0411 15.0307 14.2838 14.76C14.5265 14.4893 14.8951 14.228 15.3898 13.976C14.7178 13.892 14.1858 13.668 13.7938 13.304C13.4018 12.94 13.2058 12.436 13.2058 11.792C13.2058 11.0547 13.4578 10.4993 13.9618 10.126C14.4751 9.75267 15.1518 9.566 15.9918 9.566C16.9251 9.566 17.6391 9.78533 18.1338 10.224C18.3111 9.972 18.5305 9.77133 18.7918 9.622C19.0531 9.47267 19.3191 9.398 19.5898 9.398C19.8698 9.398 20.0891 9.482 20.2478 9.65C20.4158 9.80867 20.4998 10.0187 20.4998 10.28C20.4998 10.5413 20.4251 10.7467 20.2758 10.896C20.1358 11.036 19.9678 11.106 19.7718 11.106ZM15.9918 13.766C16.2531 13.766 16.4491 13.6167 16.5798 13.318C16.7198 13.0193 16.7898 12.5107 16.7898 11.792C16.7898 11.0733 16.7198 10.5647 16.5798 10.266C16.4491 9.96733 16.2531 9.818 15.9918 9.818C15.7305 9.818 15.5298 9.96733 15.3898 10.266C15.2591 10.5647 15.1938 11.0733 15.1938 11.792C15.1938 12.5107 15.2591 13.0193 15.3898 13.318C15.5298 13.6167 15.7305 13.766 15.9918 13.766Z" fill="#888888"/>
</svg>
