<svg width="24" height="24" viewBox="0 0 24 24" fill="none" xmlns="http://www.w3.org/2000/svg">
<path d="M4.77846 15.082C4.50779 15.4647 4.37246 15.7727 4.37246 16.006C4.38179 16.2393 4.49846 16.412 4.72246 16.524C4.95579 16.6267 5.24979 16.692 5.60446 16.72L5.54846 17C5.10979 16.9813 4.74579 16.972 4.45646 16.972C4.16713 16.9627 3.89646 16.958 3.64446 16.958C3.43913 16.958 3.27113 16.9627 3.14046 16.972C3.00046 16.972 2.85579 16.9813 2.70646 17L2.76246 16.72C2.93979 16.6733 3.10313 16.5987 3.25246 16.496C3.40179 16.384 3.56979 16.2207 3.75646 16.006C3.93379 15.782 4.15313 15.4927 4.41446 15.138L10.1825 7.018C10.3225 7.03667 10.4718 7.046 10.6305 7.046C10.7985 7.046 10.9431 7.03667 11.0645 7.018L11.6245 15.824C11.6525 16.16 11.7365 16.3933 11.8765 16.524C12.0258 16.6453 12.1705 16.7107 12.3105 16.72L12.2545 17C12.0025 16.9813 11.6665 16.972 11.2465 16.972C10.8265 16.9627 10.4298 16.958 10.0565 16.958C9.60846 16.958 9.18379 16.9627 8.78246 16.972C8.38113 16.972 8.05913 16.9813 7.81646 17L7.87246 16.72C8.32046 16.7013 8.63779 16.622 8.82446 16.482C9.02046 16.3327 9.10446 16.02 9.07646 15.544L8.74046 9.258L9.35646 8.6L4.77846 15.082ZM6.13646 12.968H10.2245L10.1125 13.248H5.88446L6.13646 12.968ZM16.4423 13.822L17.1843 13.738C16.8017 13.8873 16.4797 14.0273 16.2183 14.158C15.957 14.2793 15.7563 14.3913 15.6163 14.494C15.4763 14.5873 15.4063 14.6853 15.4063 14.788C15.4063 14.8627 15.453 14.9327 15.5463 14.998C15.6397 15.054 15.7797 15.11 15.9663 15.166L17.1843 15.6C17.4457 15.6933 17.6977 15.8053 17.9403 15.936C18.183 16.0667 18.3837 16.2347 18.5423 16.44C18.701 16.6453 18.7803 16.902 18.7803 17.21C18.7803 17.5927 18.6543 17.9333 18.4023 18.232C18.1597 18.54 17.8283 18.7967 17.4083 19.002C16.9883 19.2167 16.5217 19.3753 16.0083 19.478C15.5043 19.59 14.9863 19.646 14.4543 19.646C13.9877 19.646 13.5537 19.5993 13.1523 19.506C12.751 19.422 12.429 19.3007 12.1863 19.142C11.9343 18.9833 11.8083 18.7967 11.8083 18.582C11.8083 18.3953 11.9017 18.232 12.0883 18.092C12.2657 17.952 12.499 17.8353 12.7883 17.742C13.0683 17.6487 13.3623 17.5787 13.6703 17.532C13.9877 17.4853 14.2863 17.4573 14.5663 17.448L14.5943 17.658C14.2863 17.826 14.067 17.9987 13.9363 18.176C13.815 18.3533 13.7543 18.526 13.7543 18.694C13.7543 18.9273 13.843 19.1047 14.0203 19.226C14.1977 19.3473 14.445 19.408 14.7623 19.408C15.005 19.408 15.257 19.3753 15.5183 19.31C15.789 19.2447 16.0363 19.1467 16.2603 19.016C16.4937 18.8947 16.6803 18.75 16.8203 18.582C16.9697 18.414 17.0443 18.232 17.0443 18.036C17.0443 17.8493 16.9743 17.7187 16.8343 17.644C16.6943 17.5787 16.5077 17.5133 16.2743 17.448L14.3283 16.86C14.095 16.7853 13.8897 16.6733 13.7123 16.524C13.5443 16.3653 13.4603 16.1647 13.4603 15.922C13.4603 15.642 13.5817 15.3947 13.8243 15.18C14.0763 14.956 14.4263 14.7367 14.8743 14.522C15.3317 14.298 15.8543 14.0647 16.4423 13.822ZM17.0023 9.818C16.8717 9.818 16.7457 9.87867 16.6243 10C16.503 10.1213 16.391 10.2893 16.2883 10.504C16.195 10.7093 16.1157 10.9427 16.0503 11.204C15.985 11.4653 15.9337 11.7453 15.8963 12.044C15.859 12.3333 15.8403 12.6227 15.8403 12.912C15.8403 13.22 15.8683 13.4347 15.9243 13.556C15.9897 13.668 16.083 13.724 16.2043 13.724C16.391 13.724 16.5543 13.6353 16.6943 13.458C16.8437 13.2713 16.9697 13.0287 17.0723 12.73C17.175 12.4313 17.2497 12.1 17.2963 11.736C17.343 11.372 17.3663 11.008 17.3663 10.644C17.3663 10.4293 17.343 10.238 17.2963 10.07C17.259 9.902 17.161 9.818 17.0023 9.818ZM17.3103 9.566C17.945 9.566 18.4677 9.692 18.8783 9.944C19.2983 10.1867 19.5083 10.588 19.5083 11.148C19.5083 11.596 19.3637 12.0393 19.0743 12.478C18.785 12.9167 18.3697 13.276 17.8283 13.556C17.2963 13.836 16.6663 13.976 15.9383 13.976C15.313 13.976 14.7857 13.85 14.3563 13.598C13.9363 13.346 13.7263 12.9447 13.7263 12.394C13.7263 12.0767 13.8057 11.7547 13.9643 11.428C14.123 11.092 14.3517 10.784 14.6503 10.504C14.9583 10.2147 15.3317 9.986 15.7703 9.818C16.2183 9.65 16.7317 9.566 17.3103 9.566ZM18.4443 10.308L18.1643 10.21C18.3043 9.82733 18.533 9.51933 18.8503 9.286C19.1677 9.04333 19.5083 8.922 19.8723 8.922C20.1803 8.922 20.4137 9.006 20.5723 9.174C20.731 9.342 20.8103 9.56133 20.8103 9.832C20.8103 10.1027 20.7403 10.308 20.6003 10.448C20.4603 10.588 20.3063 10.658 20.1383 10.658C19.989 10.658 19.8443 10.602 19.7043 10.49C19.5737 10.3687 19.4897 10.1913 19.4523 9.958C19.415 9.72467 19.471 9.42133 19.6203 9.048L19.7043 9.146C19.3683 9.26733 19.107 9.41667 18.9203 9.594C18.7337 9.77133 18.575 10.0093 18.4443 10.308Z" fill="#888888"/>
</svg>
