<svg width="24" height="24" viewBox="0 0 24 24" fill="none" xmlns="http://www.w3.org/2000/svg">
<path d="M11.587 15.824C11.615 16.132 11.6943 16.356 11.825 16.496C11.9557 16.636 12.105 16.7107 12.273 16.72L12.217 17C11.741 16.972 11.0643 16.958 10.187 16.958C9.235 16.958 8.535 16.972 8.087 17L8.143 16.72C8.46033 16.7013 8.70767 16.664 8.885 16.608C9.06233 16.5427 9.18833 16.4307 9.263 16.272C9.33767 16.104 9.36567 15.8613 9.347 15.544L9.221 13.248H6.197L4.965 14.998C4.66633 15.418 4.517 15.7633 4.517 16.034C4.517 16.258 4.615 16.426 4.811 16.538C5.01633 16.6407 5.31033 16.7013 5.693 16.72L5.623 17C4.839 16.972 4.23233 16.958 3.803 16.958C3.45767 16.958 3.13567 16.972 2.837 17L2.893 16.72C3.13567 16.6547 3.37367 16.5147 3.607 16.3C3.831 16.0853 4.12033 15.7307 4.475 15.236L10.313 7.018C10.397 7.02733 10.5183 7.032 10.677 7.032C10.845 7.032 10.9617 7.02733 11.027 7.018L11.587 15.824ZM9.207 12.968L9.025 9.258L6.393 12.968H9.207ZM19.7675 8.95C20.0568 8.95 20.2808 9.02933 20.4395 9.188C20.5982 9.34667 20.6775 9.566 20.6775 9.846C20.6775 10.098 20.6122 10.2987 20.4815 10.448C20.3508 10.588 20.1968 10.658 20.0195 10.658C19.8328 10.658 19.6695 10.588 19.5295 10.448C19.3895 10.2987 19.3195 10.098 19.3195 9.846C19.3195 9.66867 19.3615 9.46333 19.4455 9.23C19.0815 9.38867 18.8015 9.59867 18.6055 9.86C18.8482 9.98133 19.0348 10.154 19.1655 10.378C19.2962 10.5927 19.3615 10.854 19.3615 11.162C19.3615 11.554 19.2495 11.946 19.0255 12.338C18.8108 12.7207 18.5028 13.0567 18.1015 13.346C17.7002 13.626 17.2335 13.8173 16.7015 13.92C16.1788 14.1533 15.8008 14.34 15.5675 14.48C15.3435 14.62 15.2315 14.7553 15.2315 14.886C15.2315 14.97 15.2828 15.0447 15.3855 15.11C15.4882 15.166 15.6468 15.2267 15.8615 15.292L17.0375 15.684C17.5322 15.852 17.9195 16.048 18.1995 16.272C18.4888 16.4867 18.6335 16.7947 18.6335 17.196C18.6335 17.644 18.4375 18.0547 18.0455 18.428C17.6628 18.8107 17.1448 19.114 16.4915 19.338C15.8382 19.562 15.1335 19.674 14.3775 19.674C13.6495 19.674 13.0428 19.576 12.5575 19.38C12.0722 19.184 11.8295 18.9273 11.8295 18.61C11.8295 18.2833 12.0908 18.0033 12.6135 17.77C13.1362 17.546 13.7288 17.3967 14.3915 17.322L14.4475 17.532C13.8688 17.8493 13.5795 18.218 13.5795 18.638C13.5795 18.8993 13.6775 19.0953 13.8735 19.226C14.0695 19.366 14.3402 19.436 14.6855 19.436C15.0308 19.436 15.3902 19.366 15.7635 19.226C16.1462 19.0953 16.4635 18.9133 16.7155 18.68C16.9675 18.456 17.0935 18.2133 17.0935 17.952C17.0935 17.8027 17.0375 17.6907 16.9255 17.616C16.8228 17.5507 16.6362 17.4807 16.3655 17.406L14.3775 16.832C14.1255 16.7573 13.9202 16.6453 13.7615 16.496C13.6122 16.3373 13.5375 16.146 13.5375 15.922C13.5375 15.586 13.7335 15.2733 14.1255 14.984C14.5268 14.6947 15.1662 14.3633 16.0435 13.99H15.9035C15.2782 13.99 14.7695 13.8593 14.3775 13.598C13.9948 13.3367 13.8035 12.9447 13.8035 12.422C13.8035 11.9927 13.9342 11.5587 14.1955 11.12C14.4662 10.6813 14.8628 10.3173 15.3855 10.028C15.9082 9.72933 16.5288 9.58 17.2475 9.58C17.6395 9.58 18.0035 9.63133 18.3395 9.734C18.5075 9.50067 18.7175 9.314 18.9695 9.174C19.2308 9.02467 19.4968 8.95 19.7675 8.95ZM16.1415 13.738C16.5615 13.738 16.8835 13.4253 17.1075 12.8C17.3315 12.1653 17.4435 11.47 17.4435 10.714C17.4435 10.434 17.4108 10.2193 17.3455 10.07C17.2895 9.91133 17.1728 9.832 16.9955 9.832C16.7248 9.832 16.4868 9.99533 16.2815 10.322C16.0855 10.6487 15.9362 11.0547 15.8335 11.54C15.7402 12.016 15.6935 12.4733 15.6935 12.912C15.6935 13.2107 15.7308 13.4253 15.8055 13.556C15.8802 13.6773 15.9922 13.738 16.1415 13.738Z" fill="#888888"/>
</svg>
