<svg width="24" height="24" viewBox="0 0 24 24" fill="none" xmlns="http://www.w3.org/2000/svg">
<path d="M3.47334 17L7.21134 6.57H8.83534L12.5733 17H11.1033L10.2493 14.55H5.79734L4.94334 17H3.47334ZM6.23134 13.29H9.81534L7.82734 7.564H8.21934L6.23134 13.29ZM17.0581 20.08C16.5261 20.08 16.0315 19.996 15.5741 19.828C15.1261 19.66 14.7388 19.4267 14.4121 19.128C14.0948 18.8387 13.8521 18.498 13.6841 18.106L14.9021 17.546C15.0328 17.9007 15.2801 18.1993 15.6441 18.442C16.0175 18.694 16.4841 18.82 17.0441 18.82C17.4735 18.82 17.8608 18.736 18.2061 18.568C18.5608 18.4093 18.8408 18.1667 19.0461 17.84C19.2515 17.5227 19.3541 17.1353 19.3541 16.678V14.984L19.5921 15.236C19.3308 15.7493 18.9528 16.1413 18.4581 16.412C17.9728 16.6827 17.4361 16.818 16.8481 16.818C16.1388 16.818 15.5041 16.6547 14.9441 16.328C14.3841 15.992 13.9455 15.5393 13.6281 14.97C13.3108 14.3913 13.1521 13.752 13.1521 13.052C13.1521 12.3427 13.3108 11.7033 13.6281 11.134C13.9455 10.5647 14.3795 10.1167 14.9301 9.79C15.4901 9.454 16.1248 9.286 16.8341 9.286C17.4221 9.286 17.9541 9.42133 18.4301 9.692C18.9155 9.95333 19.3028 10.3173 19.5921 10.784L19.3961 11.134V9.454H20.6701V16.678C20.6701 17.3313 20.5161 17.9147 20.2081 18.428C19.9001 18.9413 19.4708 19.3427 18.9201 19.632C18.3788 19.9307 17.7581 20.08 17.0581 20.08ZM16.9601 15.558C17.4081 15.558 17.8095 15.446 18.1641 15.222C18.5281 14.998 18.8175 14.6993 19.0321 14.326C19.2468 13.9433 19.3541 13.5187 19.3541 13.052C19.3541 12.5947 19.2468 12.1747 19.0321 11.792C18.8175 11.4093 18.5281 11.106 18.1641 10.882C17.8095 10.658 17.4081 10.546 16.9601 10.546C16.5028 10.546 16.0875 10.658 15.7141 10.882C15.3408 11.106 15.0468 11.4093 14.8321 11.792C14.6268 12.1653 14.5241 12.5853 14.5241 13.052C14.5241 13.5187 14.6268 13.9433 14.8321 14.326C15.0468 14.6993 15.3361 14.998 15.7001 15.222C16.0735 15.446 16.4935 15.558 16.9601 15.558Z" fill="#888888"/>
</svg>
