<svg width="24" height="24" viewBox="0 0 24 24" fill="none" xmlns="http://www.w3.org/2000/svg">
<path d="M2.6247 17L6.1527 6.57H9.0367L12.5647 17H10.1987L9.4987 14.872H5.6767L4.9767 17H2.6247ZM6.2787 12.982H8.8967L7.3007 8.054H7.8887L6.2787 12.982ZM16.9732 20.08C16.3852 20.08 15.8392 19.982 15.3352 19.786C14.8312 19.59 14.3972 19.3147 14.0332 18.96C13.6785 18.6147 13.4218 18.204 13.2632 17.728L15.2092 17.042C15.3118 17.3967 15.5218 17.6767 15.8392 17.882C16.1565 18.0873 16.5345 18.19 16.9732 18.19C17.3185 18.19 17.6172 18.1247 17.8692 17.994C18.1212 17.8727 18.3125 17.6907 18.4432 17.448C18.5832 17.2053 18.6532 16.9207 18.6532 16.594V14.844L19.0592 15.348C18.7978 15.7773 18.4618 16.0993 18.0512 16.314C17.6405 16.5193 17.1598 16.622 16.6092 16.622C15.8998 16.622 15.2652 16.4633 14.7052 16.146C14.1452 15.8193 13.7065 15.376 13.3892 14.816C13.0718 14.2467 12.9132 13.6027 12.9132 12.884C12.9132 12.1653 13.0718 11.5307 13.3892 10.98C13.7065 10.42 14.1405 9.98133 14.6912 9.664C15.2418 9.34667 15.8672 9.188 16.5672 9.188C17.1178 9.188 17.5985 9.3 18.0092 9.524C18.4198 9.73867 18.7698 10.07 19.0592 10.518L18.7932 11.022V9.356H20.7532V16.594C20.7532 17.266 20.5898 17.8633 20.2632 18.386C19.9365 18.918 19.4885 19.3333 18.9192 19.632C18.3592 19.9307 17.7105 20.08 16.9732 20.08ZM16.9032 14.718C17.2578 14.718 17.5658 14.6433 17.8272 14.494C18.0885 14.3447 18.2892 14.1347 18.4292 13.864C18.5785 13.5933 18.6532 13.276 18.6532 12.912C18.6532 12.548 18.5785 12.2307 18.4292 11.96C18.2798 11.68 18.0745 11.4653 17.8132 11.316C17.5518 11.1573 17.2485 11.078 16.9032 11.078C16.5485 11.078 16.2312 11.1573 15.9512 11.316C15.6805 11.4653 15.4658 11.68 15.3072 11.96C15.1578 12.2307 15.0832 12.548 15.0832 12.912C15.0832 13.2667 15.1578 13.5793 15.3072 13.85C15.4658 14.1207 15.6805 14.3353 15.9512 14.494C16.2312 14.6433 16.5485 14.718 16.9032 14.718Z" fill="#888888"/>
</svg>
