<svg width="24" height="24" viewBox="0 0 24 24" fill="none" xmlns="http://www.w3.org/2000/svg">
<path d="M3.7914 17L7.6554 6.57H8.3274L12.1914 17H11.4214L10.4134 14.242H5.5694L4.5614 17H3.7914ZM5.7934 13.612H10.1894L7.8234 7.144H8.1594L5.7934 13.612ZM16.8537 20.08C16.3777 20.08 15.9344 20.0007 15.5237 19.842C15.1224 19.6927 14.7677 19.4827 14.4597 19.212C14.1517 18.9507 13.9091 18.6567 13.7317 18.33L14.2637 18.022C14.5344 18.4793 14.8937 18.8387 15.3417 19.1C15.7897 19.3613 16.2937 19.492 16.8537 19.492C17.3204 19.492 17.7637 19.394 18.1837 19.198C18.6131 19.0113 18.9631 18.7127 19.2337 18.302C19.5137 17.9007 19.6537 17.3827 19.6537 16.748V14.634L19.7937 14.872C19.5324 15.4787 19.1264 15.9687 18.5757 16.342C18.0344 16.706 17.4091 16.888 16.6997 16.888C16.0184 16.888 15.4071 16.72 14.8657 16.384C14.3337 16.048 13.9137 15.6 13.6057 15.04C13.2977 14.48 13.1437 13.8593 13.1437 13.178C13.1437 12.4967 13.2977 11.876 13.6057 11.316C13.9137 10.756 14.3337 10.308 14.8657 9.972C15.4071 9.636 16.0184 9.468 16.6997 9.468C17.4091 9.468 18.0344 9.65467 18.5757 10.028C19.1264 10.392 19.5324 10.8773 19.7937 11.484L19.6537 11.722V9.636H20.2837V16.748C20.2837 17.392 20.1344 17.966 19.8357 18.47C19.5464 18.974 19.1451 19.366 18.6317 19.646C18.1184 19.9353 17.5257 20.08 16.8537 20.08ZM16.6997 16.258C17.2691 16.258 17.7684 16.1227 18.1977 15.852C18.6364 15.572 18.9817 15.1987 19.2337 14.732C19.4857 14.2653 19.6117 13.7473 19.6117 13.178C19.6117 12.5993 19.4857 12.0813 19.2337 11.624C18.9817 11.1573 18.6364 10.7887 18.1977 10.518C17.7684 10.238 17.2691 10.098 16.6997 10.098C16.1304 10.098 15.6264 10.238 15.1877 10.518C14.7584 10.7887 14.4224 11.1573 14.1797 11.624C13.9371 12.0907 13.8157 12.6087 13.8157 13.178C13.8157 13.7473 13.9371 14.2653 14.1797 14.732C14.4224 15.1987 14.7584 15.572 15.1877 15.852C15.6264 16.1227 16.1304 16.258 16.6997 16.258Z" fill="#888888"/>
</svg>
