<svg width="24" height="24" viewBox="0 0 24 24" fill="none" xmlns="http://www.w3.org/2000/svg">
<path d="M3.69405 17L7.53005 6.57H8.46805L12.3041 17H11.3241L10.3721 14.34H5.62605L4.66005 17H3.69405ZM5.92005 13.5H10.0641L7.82405 7.27H8.16006L5.92005 13.5ZM16.8947 20.08C16.4001 20.08 15.9427 20.0007 15.5227 19.842C15.1027 19.6833 14.7387 19.4687 14.4307 19.198C14.1227 18.9273 13.8801 18.6193 13.7027 18.274L14.4587 17.868C14.6641 18.2693 14.9721 18.6007 15.3827 18.862C15.8027 19.1233 16.3021 19.254 16.8807 19.254C17.3474 19.254 17.7814 19.1607 18.1827 18.974C18.5841 18.7967 18.9107 18.5167 19.1627 18.134C19.4241 17.7607 19.5547 17.2893 19.5547 16.72V14.83L19.7087 15.026C19.4474 15.6047 19.0507 16.062 18.5187 16.398C17.9867 16.7247 17.3941 16.888 16.7407 16.888C16.0501 16.888 15.4294 16.72 14.8787 16.384C14.3281 16.048 13.8941 15.5953 13.5767 15.026C13.2687 14.4567 13.1147 13.8267 13.1147 13.136C13.1147 12.4453 13.2687 11.82 13.5767 11.26C13.8941 10.6907 14.3234 10.238 14.8647 9.902C15.4154 9.566 16.0407 9.398 16.7407 9.398C17.3941 9.398 17.9821 9.56133 18.5047 9.888C19.0274 10.2053 19.4287 10.6347 19.7087 11.176L19.5547 11.442V9.566H20.3947V16.72C20.3947 17.364 20.2454 17.938 19.9467 18.442C19.6481 18.9553 19.2327 19.3567 18.7007 19.646C18.1781 19.9353 17.5761 20.08 16.8947 20.08ZM16.7687 16.048C17.2914 16.048 17.7581 15.9173 18.1687 15.656C18.5887 15.3947 18.9201 15.0447 19.1627 14.606C19.4054 14.158 19.5267 13.668 19.5267 13.136C19.5267 12.604 19.4054 12.1187 19.1627 11.68C18.9201 11.2413 18.5887 10.8913 18.1687 10.63C17.7581 10.3687 17.2914 10.238 16.7687 10.238C16.2367 10.238 15.7607 10.3687 15.3407 10.63C14.9207 10.8913 14.5941 11.2413 14.3607 11.68C14.1274 12.1187 14.0107 12.604 14.0107 13.136C14.0107 13.668 14.1274 14.158 14.3607 14.606C14.5941 15.0447 14.9161 15.3947 15.3267 15.656C15.7467 15.9173 16.2274 16.048 16.7687 16.048Z" fill="#888888"/>
</svg>
