<svg width="24" height="24" viewBox="0 0 24 24" fill="none" xmlns="http://www.w3.org/2000/svg">
<path d="M3.58955 17L7.39755 6.57H8.60155L12.4095 17H11.2335L10.3375 14.452H5.67555L4.76555 17H3.58955ZM6.03955 13.402H9.94555L7.83155 7.41H8.16755L6.03955 13.402ZM16.9289 20.08C16.4156 20.08 15.9396 20.0007 15.5009 19.842C15.0716 19.6833 14.6983 19.464 14.3809 19.184C14.0729 18.9133 13.8349 18.596 13.6669 18.232L14.6329 17.714C14.7823 18.0687 15.0483 18.3767 15.4309 18.638C15.8136 18.8993 16.3036 19.03 16.9009 19.03C17.3583 19.03 17.7783 18.9413 18.1609 18.764C18.5436 18.5867 18.8516 18.3253 19.0849 17.98C19.3183 17.6347 19.4349 17.21 19.4349 16.706V15.04L19.6029 15.194C19.3416 15.7353 18.9543 16.1553 18.4409 16.454C17.9276 16.7433 17.3676 16.888 16.7609 16.888C16.0609 16.888 15.4309 16.72 14.8709 16.384C14.3109 16.048 13.8676 15.5953 13.5409 15.026C13.2236 14.4473 13.0649 13.808 13.0649 13.108C13.0649 12.3987 13.2236 11.7593 13.5409 11.19C13.8676 10.6207 14.3063 10.168 14.8569 9.832C15.4169 9.496 16.0516 9.328 16.7609 9.328C17.3676 9.328 17.9183 9.468 18.4129 9.748C18.9169 10.028 19.3136 10.406 19.6029 10.882L19.4349 11.176V9.496H20.4849V16.706C20.4849 17.35 20.3309 17.924 20.0229 18.428C19.7243 18.9413 19.3043 19.3427 18.7629 19.632C18.2309 19.9307 17.6196 20.08 16.9289 20.08ZM16.8169 15.838C17.3023 15.838 17.7409 15.7167 18.1329 15.474C18.5249 15.222 18.8376 14.8907 19.0709 14.48C19.3136 14.06 19.4349 13.6027 19.4349 13.108C19.4349 12.6133 19.3136 12.1607 19.0709 11.75C18.8376 11.33 18.5249 10.9987 18.1329 10.756C17.7409 10.504 17.3023 10.378 16.8169 10.378C16.3223 10.378 15.8743 10.504 15.4729 10.756C15.0716 10.9987 14.7543 11.3253 14.5209 11.736C14.2969 12.1467 14.1849 12.604 14.1849 13.108C14.1849 13.6027 14.2969 14.06 14.5209 14.48C14.7543 14.8907 15.0669 15.222 15.4589 15.474C15.8603 15.7167 16.3129 15.838 16.8169 15.838Z" fill="#888888"/>
</svg>
