<svg width="24" height="24" viewBox="0 0 24 24" fill="none" xmlns="http://www.w3.org/2000/svg">
<path d="M3.47105 16V15.034H4.81505L7.13905 8.72H5.72505V7.754H8.44105L10.9751 15.034H12.3051V16H8.90306V15.034H9.78506L9.33705 13.76H6.31305L5.83705 15.034H6.73305V16H3.47105ZM6.66305 12.794H9.00106L7.89505 9.168L6.66305 12.794ZM15.3828 14.348C15.2521 14.348 15.1261 14.3433 15.0048 14.334V15.622H16.2368C17.7301 15.622 18.4768 16.1633 18.4768 17.246C18.4768 17.834 18.2108 18.2913 17.6788 18.618C17.1561 18.954 16.4281 19.122 15.4948 19.122C15.1961 19.122 14.8461 19.0893 14.4448 19.024C14.0434 18.9587 13.6608 18.87 13.2968 18.758C12.9421 18.6553 12.6761 18.5527 12.4988 18.45L12.8908 17.624C13.2268 17.8013 13.6421 17.9413 14.1368 18.044C14.6314 18.1467 15.0841 18.198 15.4948 18.198C16.0921 18.198 16.5588 18.128 16.8948 17.988C17.2308 17.848 17.3988 17.6333 17.3988 17.344C17.3988 17.0453 17.2728 16.826 17.0208 16.686C16.7688 16.5553 16.4094 16.49 15.9428 16.49H13.9408V14.096C13.5208 13.9187 13.1988 13.662 12.9748 13.326C12.7508 12.99 12.6388 12.584 12.6388 12.108C12.6388 11.3893 12.8861 10.8247 13.3808 10.414C13.8754 9.994 14.5474 9.784 15.3968 9.784C16.0781 9.784 16.6474 9.91467 17.1048 10.176L19.0928 9.434L19.4148 10.358L17.7628 10.736C18.0428 11.0813 18.1828 11.5153 18.1828 12.038C18.1828 12.7473 17.9308 13.312 17.4268 13.732C16.9228 14.1427 16.2414 14.348 15.3828 14.348ZM15.4108 13.452C15.9241 13.452 16.3301 13.3213 16.6288 13.06C16.9274 12.7987 17.0768 12.4673 17.0768 12.066C17.0768 11.6273 16.9368 11.2867 16.6568 11.044C16.3768 10.8013 15.9614 10.68 15.4108 10.68C14.8601 10.68 14.4448 10.8013 14.1648 11.044C13.8848 11.2867 13.7448 11.6273 13.7448 12.066C13.7448 12.4673 13.8941 12.7987 14.1928 13.06C14.4914 13.3213 14.8974 13.452 15.4108 13.452Z" fill="#333333"/>
</svg>
