<svg width="24" height="24" viewBox="0 0 24 24" fill="none" xmlns="http://www.w3.org/2000/svg">
<path d="M3.12177 16V14.754H4.47977L6.67777 9H5.40377V7.754H8.41377L10.9758 14.754H12.2638V16H8.72177V14.754H9.51977L9.08577 13.522H6.20177L5.75377 14.754H6.59377V16H3.12177ZM6.57977 12.472H8.72177L7.68577 9.28L6.57977 12.472ZM15.5299 14.376C14.6246 14.376 13.9106 14.1753 13.3879 13.774C12.8746 13.3727 12.6179 12.808 12.6179 12.08C12.6179 11.3053 12.8793 10.6987 13.4019 10.26C13.9339 9.812 14.6479 9.588 15.5439 9.588C15.8986 9.588 16.2113 9.62067 16.4819 9.686C16.7526 9.742 17.0093 9.83533 17.2519 9.966L19.3239 9.224L19.7439 10.442L18.0639 10.75C18.2133 10.9273 18.3159 11.128 18.3719 11.352C18.4373 11.5667 18.4699 11.7813 18.4699 11.996C18.4699 12.528 18.3393 12.9713 18.0779 13.326C17.8259 13.6807 17.4759 13.9467 17.0279 14.124C16.5893 14.292 16.0899 14.376 15.5299 14.376ZM15.6419 19.276C15.2033 19.276 14.7786 19.2387 14.3679 19.164C13.9573 19.0893 13.5839 18.996 13.2479 18.884C12.9213 18.772 12.6739 18.6693 12.5059 18.576L13.0099 17.484C13.4113 17.6707 13.8359 17.8153 14.2839 17.918C14.7413 18.03 15.1939 18.086 15.6419 18.086C16.0526 18.086 16.3839 18.0487 16.6359 17.974C16.8973 17.9087 17.0886 17.8153 17.2099 17.694C17.3406 17.582 17.4059 17.4467 17.4059 17.288C17.4059 17.0547 17.3079 16.8727 17.1119 16.742C16.9253 16.6207 16.6033 16.56 16.1459 16.56H14.0179V13.816L15.2079 14.124V15.412H16.3839C17.1773 15.412 17.7699 15.5707 18.1619 15.888C18.5633 16.2053 18.7639 16.658 18.7639 17.246C18.7639 17.7033 18.6286 18.0813 18.3579 18.38C18.0873 18.688 17.7139 18.912 17.2379 19.052C16.7713 19.2013 16.2393 19.276 15.6419 19.276ZM15.5579 13.298C16.0433 13.298 16.4259 13.1767 16.7059 12.934C16.9859 12.6913 17.1259 12.3787 17.1259 11.996C17.1259 11.576 16.9906 11.254 16.7199 11.03C16.4493 10.7967 16.0619 10.68 15.5579 10.68C15.0446 10.68 14.6526 10.7967 14.3819 11.03C14.1113 11.254 13.9759 11.576 13.9759 11.996C13.9759 12.3787 14.1159 12.6913 14.3959 12.934C14.6759 13.1767 15.0633 13.298 15.5579 13.298Z" fill="#888888"/>
</svg>
