<svg width="24" height="24" viewBox="0 0 24 24" fill="none" xmlns="http://www.w3.org/2000/svg">
<path d="M9.74961 14.284H4.87761L3.84161 17H3.51961L7.17361 7.438H7.45361L11.0936 17H10.7716L9.74961 14.284ZM9.65161 14.032L7.31361 7.886L4.97561 14.032H9.65161ZM16.0298 9.342C16.8978 9.342 17.6305 9.566 18.2278 10.014C18.8345 10.462 19.2405 11.0313 19.4458 11.722V9.44H19.7118V17.28C19.7118 17.98 19.5578 18.5867 19.2498 19.1C18.9418 19.6227 18.5311 20.0193 18.0178 20.29C17.5138 20.5607 16.9631 20.696 16.3658 20.696C15.4511 20.696 14.6905 20.472 14.0838 20.024C13.4865 19.5853 13.0758 18.988 12.8518 18.232H13.1318C13.3465 18.9133 13.7245 19.45 14.2658 19.842C14.8165 20.2433 15.5165 20.444 16.3658 20.444C16.9445 20.444 17.4671 20.3133 17.9338 20.052C18.4005 19.7907 18.7691 19.422 19.0398 18.946C19.3105 18.47 19.4458 17.9147 19.4458 17.28V14.704C19.2405 15.404 18.8345 15.978 18.2278 16.426C17.6305 16.874 16.8978 17.098 16.0298 17.098C15.3111 17.098 14.6718 16.944 14.1118 16.636C13.5518 16.3187 13.1178 15.8707 12.8098 15.292C12.5018 14.704 12.3478 14.0133 12.3478 13.22C12.3478 12.4267 12.5018 11.7407 12.8098 11.162C13.1178 10.574 13.5518 10.126 14.1118 9.818C14.6718 9.50067 15.3111 9.342 16.0298 9.342ZM19.4458 13.22C19.4458 12.5013 19.2965 11.8713 18.9978 11.33C18.7085 10.7793 18.3025 10.3547 17.7798 10.056C17.2665 9.748 16.6831 9.594 16.0298 9.594C15.3391 9.594 14.7371 9.73867 14.2238 10.028C13.7198 10.3173 13.3278 10.7373 13.0478 11.288C12.7678 11.8293 12.6278 12.4733 12.6278 13.22C12.6278 13.9667 12.7678 14.6153 13.0478 15.166C13.3278 15.7073 13.7198 16.1227 14.2238 16.412C14.7371 16.7013 15.3391 16.846 16.0298 16.846C16.6831 16.846 17.2665 16.6967 17.7798 16.398C18.3025 16.09 18.7085 15.6653 18.9978 15.124C19.2965 14.5733 19.4458 13.9387 19.4458 13.22Z" fill="#333333"/>
</svg>
