<svg width="24" height="24" viewBox="0 0 24 24" fill="none" xmlns="http://www.w3.org/2000/svg">
<path d="M9.38413 15.502H6.08013L5.59013 17H2.32812L5.95413 7.088H9.53813L13.1501 17H9.87413L9.38413 15.502ZM8.62813 13.164L7.73213 10.406L6.83613 13.164H8.62813ZM16.6983 9.006C17.2116 9.006 17.6549 9.11333 18.0283 9.328C18.4016 9.53333 18.6863 9.818 18.8823 10.182V9.104H21.9763V16.86C21.9763 17.5973 21.8409 18.2693 21.5703 18.876C21.2996 19.4827 20.8609 19.968 20.2543 20.332C19.6569 20.696 18.8869 20.878 17.9443 20.878C16.6749 20.878 15.6669 20.5793 14.9203 19.982C14.1829 19.394 13.7629 18.5913 13.6603 17.574H16.7123C16.7963 17.9847 17.1323 18.19 17.7203 18.19C18.0843 18.19 18.3689 18.0967 18.5743 17.91C18.7796 17.7233 18.8823 17.3733 18.8823 16.86V15.922C18.6863 16.286 18.4016 16.5753 18.0283 16.79C17.6549 16.9953 17.2116 17.098 16.6983 17.098C16.0823 17.098 15.5269 16.9393 15.0323 16.622C14.5376 16.2953 14.1456 15.8287 13.8563 15.222C13.5763 14.606 13.4363 13.8827 13.4363 13.052C13.4363 12.2213 13.5763 11.5027 13.8563 10.896C14.1456 10.28 14.5376 9.81333 15.0323 9.496C15.5269 9.16933 16.0823 9.006 16.6983 9.006ZM18.8823 13.052C18.8823 12.632 18.7749 12.3053 18.5603 12.072C18.3456 11.8387 18.0703 11.722 17.7343 11.722C17.3983 11.722 17.1229 11.8387 16.9083 12.072C16.6936 12.3053 16.5863 12.632 16.5863 13.052C16.5863 13.472 16.6936 13.7987 16.9083 14.032C17.1229 14.2653 17.3983 14.382 17.7343 14.382C18.0703 14.382 18.3456 14.2653 18.5603 14.032C18.7749 13.7987 18.8823 13.472 18.8823 13.052Z" fill="#888888"/>
</svg>
