<svg width="24" height="24" viewBox="0 0 24 24" fill="none" xmlns="http://www.w3.org/2000/svg">
<path d="M8.71996 14.676H4.25396L2.99396 17H1.95796L7.23596 7.34H8.34196L10.19 17H9.15396L8.71996 14.676ZM8.56596 13.892L7.57196 8.558L4.67396 13.892H8.56596ZM16.3408 9.244C17.0594 9.244 17.6521 9.412 18.1188 9.748C18.5948 10.084 18.9028 10.5087 19.0428 11.022L19.3368 9.356H20.3168L18.9448 17.196C18.8234 17.896 18.5621 18.5167 18.1608 19.058C17.7688 19.5993 17.2741 20.0147 16.6768 20.304C16.0794 20.6027 15.4354 20.752 14.7448 20.752C13.7648 20.752 12.9901 20.5187 12.4208 20.052C11.8608 19.5853 11.5714 18.9507 11.5528 18.148H12.5188C12.5934 18.68 12.8361 19.1047 13.2468 19.422C13.6574 19.7393 14.2081 19.898 14.8988 19.898C15.6548 19.898 16.3174 19.6553 16.8868 19.17C17.4561 18.694 17.8154 18.036 17.9648 17.196L18.2868 15.306C17.9694 15.8287 17.5121 16.2627 16.9148 16.608C16.3268 16.944 15.6734 17.112 14.9548 17.112C14.0308 17.112 13.2888 16.8367 12.7288 16.286C12.1781 15.726 11.9028 14.9747 11.9028 14.032C11.9028 13.7613 11.9308 13.472 11.9868 13.164C12.1268 12.38 12.4068 11.694 12.8268 11.106C13.2468 10.5087 13.7601 10.0513 14.3668 9.734C14.9828 9.40733 15.6408 9.244 16.3408 9.244ZM18.6648 13.178C18.7114 12.9167 18.7348 12.6833 18.7348 12.478C18.7348 11.75 18.5154 11.1713 18.0768 10.742C17.6381 10.3127 17.0688 10.098 16.3688 10.098C15.8274 10.098 15.3188 10.2193 14.8428 10.462C14.3761 10.7047 13.9794 11.0593 13.6528 11.526C13.3261 11.9833 13.1068 12.5293 12.9948 13.164C12.9481 13.444 12.9248 13.682 12.9248 13.878C12.9248 14.6153 13.1394 15.1987 13.5688 15.628C14.0074 16.048 14.5768 16.258 15.2768 16.258C15.7994 16.258 16.2988 16.132 16.7748 15.88C17.2601 15.628 17.6661 15.2687 17.9928 14.802C18.3288 14.3353 18.5528 13.794 18.6648 13.178Z" fill="#333333"/>
</svg>
