<svg width="24" height="24" viewBox="0 0 24 24" fill="none" xmlns="http://www.w3.org/2000/svg">
<path d="M8.57673 14.83H4.30673L3.14473 17H1.80073L7.03673 7.298H8.50673L10.3127 17H8.96873L8.57673 14.83ZM8.39473 13.836L7.49873 8.852L4.83873 13.836H8.39473ZM16.4003 9.202C17.063 9.202 17.6183 9.34667 18.0663 9.636C18.5143 9.92533 18.8177 10.2893 18.9763 10.728L19.2283 9.328H20.5163L19.1303 17.168C19.009 17.868 18.7477 18.4887 18.3463 19.03C17.9543 19.5807 17.455 20.01 16.8483 20.318C16.2417 20.626 15.5697 20.78 14.8323 20.78C13.8243 20.78 13.0263 20.5373 12.4383 20.052C11.8503 19.576 11.5657 18.932 11.5843 18.12H12.8583C12.9143 18.5867 13.1337 18.96 13.5163 19.24C13.9083 19.5293 14.4123 19.674 15.0283 19.674C15.7283 19.674 16.3397 19.4547 16.8623 19.016C17.385 18.5773 17.7163 17.9613 17.8563 17.168L18.1363 15.558C17.8003 16.006 17.357 16.3793 16.8063 16.678C16.265 16.9767 15.663 17.126 15.0003 17.126C14.403 17.126 13.8757 17 13.4183 16.748C12.961 16.4867 12.6017 16.118 12.3403 15.642C12.0883 15.166 11.9623 14.6153 11.9623 13.99C11.9623 13.71 11.9903 13.4253 12.0463 13.136C12.1863 12.352 12.4663 11.666 12.8863 11.078C13.3157 10.4807 13.8337 10.0187 14.4403 9.692C15.0563 9.36533 15.7097 9.202 16.4003 9.202ZM18.5563 13.15C18.5937 12.954 18.6123 12.744 18.6123 12.52C18.6123 11.8387 18.407 11.302 17.9963 10.91C17.595 10.5087 17.0817 10.308 16.4563 10.308C15.9803 10.308 15.523 10.42 15.0843 10.644C14.655 10.868 14.2863 11.1947 13.9783 11.624C13.6703 12.0533 13.465 12.5573 13.3623 13.136C13.325 13.332 13.3063 13.5467 13.3063 13.78C13.3063 14.4707 13.507 15.0167 13.9083 15.418C14.3097 15.81 14.823 16.006 15.4483 16.006C15.9243 16.006 16.377 15.894 16.8063 15.67C17.245 15.4367 17.6183 15.1053 17.9263 14.676C18.2437 14.2373 18.4537 13.7287 18.5563 13.15Z" fill="#333333"/>
</svg>
