<svg width="24" height="24" viewBox="0 0 24 24" fill="none" xmlns="http://www.w3.org/2000/svg">
<g clip-path="url(#clip0_201_7306)">
<path d="M5.99258 12.192L3.03858 8.006L0.0145784 12.192H5.99258ZM4.48058 11.436H1.51258L3.01058 9.336L4.48058 11.436ZM8.07858 15.23L6.56658 13.06H-0.587422C-0.848755 13.4147 -1.10542 13.7787 -1.35742 14.152C-1.60009 14.516 -1.85209 14.8753 -2.11342 15.23H-3.23342C-2.24409 13.8393 -1.25942 12.4627 -0.279422 11.1C0.709912 9.73733 1.69458 8.36067 2.67458 6.97H3.34658L9.12858 15.23H8.07858ZM2.29658 6.186L-4.70342 16.014H-1.73542L-0.195422 13.844H6.13258L7.65858 16.014H10.6266L3.76658 6.186H2.29658ZM5.33458 7.278L12.6146 17.722H8.89058L7.47658 16.364L6.90258 15.552H1.37258C1.26058 15.72 1.13458 15.8973 0.994578 16.084C0.863912 16.2707 0.728578 16.4573 0.588579 16.644C0.457912 16.84 0.327245 17.0267 0.196579 17.204C0.0659116 17.3907 -0.0554218 17.5633 -0.167422 17.722H-3.90542L-5.38942 16.364L2.11458 5.836H3.94858L5.33458 7.278ZM22.2002 8.664C21.7802 8.34667 21.3089 8.12733 20.7862 8.006C20.2729 7.88467 19.7549 7.824 19.2322 7.824H17.7062C17.1649 7.824 16.6562 7.88467 16.1802 8.006C15.7135 8.118 15.3075 8.30467 14.9622 8.566C14.6169 8.818 14.3415 9.154 14.1362 9.574C13.9402 9.994 13.8422 10.5027 13.8422 11.1C13.8422 11.7067 13.9402 12.22 14.1362 12.64C14.3322 13.0507 14.6029 13.3867 14.9482 13.648C15.3029 13.9 15.7135 14.0867 16.1802 14.208C16.6469 14.32 17.1555 14.376 17.7062 14.376H19.2322C19.7175 14.376 20.1795 14.3247 20.6182 14.222C21.0662 14.11 21.4675 13.942 21.8222 13.718C22.1769 13.4847 22.4802 13.1907 22.7322 12.836C22.9842 12.472 23.1662 12.0333 23.2782 11.52H19.4142V10.68H24.2582V11.1C24.2582 11.8747 24.1229 12.528 23.8522 13.06C23.5815 13.5827 23.2175 14.0073 22.7602 14.334C22.3029 14.6513 21.7709 14.88 21.1642 15.02C20.5575 15.16 19.9135 15.23 19.2322 15.23H17.7062C17.0249 15.23 16.3949 15.1553 15.8162 15.006C15.2375 14.8567 14.7335 14.6187 14.3042 14.292C13.8842 13.9653 13.5529 13.5407 13.3102 13.018C13.0675 12.4953 12.9462 11.856 12.9462 11.1C12.9462 10.344 13.0675 9.70467 13.3102 9.182C13.5529 8.65933 13.8842 8.23467 14.3042 7.908C14.7335 7.58133 15.2375 7.34333 15.8162 7.194C16.3949 7.04467 17.0249 6.97 17.7062 6.97H19.2322C19.5775 6.97 19.9229 6.984 20.2682 7.012C20.6135 7.03067 20.9495 7.07733 21.2762 7.152C21.6029 7.22667 21.9202 7.334 22.2282 7.474C22.5455 7.60467 22.8395 7.78667 23.1102 8.02L22.2002 8.664ZM24.3002 8.216C23.9735 7.78667 23.6189 7.44133 23.2362 7.18C22.8535 6.91867 22.4475 6.71333 22.0182 6.564C21.5982 6.41467 21.1549 6.31667 20.6882 6.27C20.2215 6.214 19.7362 6.186 19.2322 6.186H17.7062C16.8942 6.186 16.1522 6.27933 15.4802 6.466C14.8082 6.64333 14.2249 6.928 13.7302 7.32C13.2449 7.712 12.8669 8.22067 12.5962 8.846C12.3255 9.462 12.1902 10.2133 12.1902 11.1C12.1902 11.9867 12.3255 12.7427 12.5962 13.368C12.8669 13.984 13.2449 14.488 13.7302 14.88C14.2249 15.272 14.8082 15.5613 15.4802 15.748C16.1522 15.9253 16.8942 16.014 17.7062 16.014H19.2322C20.0349 16.014 20.7862 15.93 21.4862 15.762C22.1955 15.5847 22.8115 15.3047 23.3342 14.922C23.8569 14.53 24.2675 14.0213 24.5662 13.396C24.8742 12.7707 25.0282 12.0053 25.0282 11.1V9.91H18.6302V12.29H22.2702C22.1209 12.542 21.9295 12.752 21.6962 12.92C21.4629 13.088 21.2062 13.2233 20.9262 13.326C20.6555 13.4193 20.3709 13.4893 20.0722 13.536C19.7829 13.5733 19.5029 13.592 19.2322 13.592H17.7062C17.2862 13.592 16.8895 13.55 16.5162 13.466C16.1429 13.382 15.8162 13.2467 15.5362 13.06C15.2562 12.864 15.0322 12.6073 14.8642 12.29C14.6962 11.9727 14.6122 11.576 14.6122 11.1C14.6122 10.6333 14.6962 10.2413 14.8642 9.924C15.0322 9.60667 15.2562 9.35 15.5362 9.154C15.8255 8.958 16.1569 8.818 16.5302 8.734C16.9035 8.65 17.2955 8.608 17.7062 8.608H19.2322C19.7829 8.608 20.3102 8.69667 20.8142 8.874C21.3182 9.042 21.7662 9.33133 22.1582 9.742L24.3002 8.216ZM14.4302 16.224C13.9075 15.776 13.4782 15.3513 13.1422 14.95C12.8062 14.5487 12.5402 14.1473 12.3442 13.746C12.1575 13.3353 12.0269 12.92 11.9522 12.5C11.8775 12.0707 11.8402 11.604 11.8402 11.1C11.8402 10.148 11.9849 9.34067 12.2742 8.678C12.5635 8.006 12.9649 7.46 13.4782 7.04C14.0009 6.62 14.6215 6.31667 15.3402 6.13C16.0589 5.934 16.8475 5.836 17.7062 5.836H19.2322C19.7455 5.836 20.2402 5.85933 20.7162 5.906C21.1922 5.95267 21.6542 6.05067 22.1022 6.2C22.5502 6.34 22.9795 6.55467 23.3902 6.844C23.8102 7.124 24.2162 7.502 24.6082 7.978C24.8882 8.258 25.1169 8.49133 25.2942 8.678C25.4715 8.86467 25.6115 9.02333 25.7142 9.154C25.8262 9.28467 25.9102 9.392 25.9662 9.476C26.0315 9.55067 26.0875 9.62067 26.1342 9.686L25.7142 9.98L26.7362 11.002V12.5C26.7362 13.4613 26.5775 14.2733 26.2602 14.936C25.9429 15.5987 25.5089 16.1353 24.9582 16.546C24.4075 16.966 23.7589 17.2647 23.0122 17.442C22.2749 17.6287 21.4815 17.722 20.6322 17.722H19.1062C18.1542 17.722 17.2675 17.6007 16.4462 17.358C15.6249 17.1247 14.9529 16.7467 14.4302 16.224ZM18.2802 10.4C18.0002 10.4467 17.7389 10.5213 17.4962 10.624C17.2629 10.7173 17.0575 10.848 16.8802 11.016C16.7029 11.184 16.5629 11.394 16.4602 11.646C16.3669 11.8887 16.3202 12.1733 16.3202 12.5C16.3202 12.724 16.3389 12.9107 16.3762 13.06C16.5722 13.1253 16.7822 13.172 17.0062 13.2C17.2302 13.228 17.4635 13.242 17.7062 13.242H18.9662L18.2802 12.64V10.4Z" fill="#333333"/>
</g>
<defs>
<clipPath id="clip0_201_7306">
<rect width="24" height="24" fill="white"/>
</clipPath>
</defs>
</svg>
