<svg width="24" height="24" viewBox="0 0 24 24" fill="none" xmlns="http://www.w3.org/2000/svg">
<path d="M6.47143 8.852C6.44343 8.74 6.42943 8.59533 6.42943 8.418C6.42943 8.24067 6.4341 8.124 6.44343 8.068C7.26476 7.96533 7.8761 7.914 8.27743 7.914C8.67876 7.914 9.01943 7.96067 9.29943 8.054C9.52343 9.80867 10.3028 12.52 11.6374 16.188L12.1554 16.23C12.1741 16.4353 12.1834 16.58 12.1834 16.664C12.1834 16.7387 12.1694 16.8553 12.1414 17.014C11.8801 17.0047 11.4741 17 10.9234 17C10.3728 17 9.9901 17.0047 9.77543 17.014C9.74743 16.874 9.73343 16.7433 9.73343 16.622C9.73343 16.4913 9.74276 16.3607 9.76143 16.23L10.2514 16.188C10.2048 15.964 10.1301 15.642 10.0274 15.222C9.92476 14.7927 9.86876 14.5547 9.85943 14.508C9.32743 14.48 8.74876 14.466 8.12343 14.466C7.50743 14.466 6.92876 14.4847 6.38743 14.522L5.99543 16.188L6.52743 16.23C6.5461 16.4353 6.55543 16.58 6.55543 16.664C6.55543 16.7387 6.54143 16.8553 6.51343 17.014C6.28943 17.0047 5.92076 17 5.40743 17C4.90343 17 4.54876 17.0047 4.34343 17.014C4.31543 16.874 4.30143 16.7433 4.30143 16.622C4.30143 16.4913 4.31076 16.3607 4.32943 16.23L4.81943 16.188C5.93943 13.1173 6.67676 10.686 7.03143 8.894L6.47143 8.852ZM6.63943 13.542C6.95676 13.5513 7.43276 13.556 8.06743 13.556C8.7021 13.556 9.21543 13.542 9.60743 13.514C9.16876 11.8527 8.70676 10.3173 8.22143 8.908H8.13743C7.58676 10.2427 7.08743 11.7873 6.63943 13.542ZM15.2431 10.308C15.3551 10.308 15.4391 10.3127 15.4951 10.322C16.0831 9.426 16.7224 8.978 17.4131 8.978C18.0198 8.978 18.3231 9.272 18.3231 9.86C18.3231 10.2707 18.1178 10.476 17.7071 10.476C17.3058 10.476 17.0724 10.266 17.0071 9.846C16.7364 9.846 16.4844 10.0467 16.2511 10.448C17.1564 10.7467 17.6091 11.4933 17.6091 12.688C17.6091 13.416 17.4644 14.0227 17.1751 14.508C16.8484 15.0493 16.2044 15.32 15.2431 15.32C14.8418 15.32 14.5151 15.2733 14.2631 15.18C14.0671 15.5253 13.9224 15.9033 13.8291 16.314C13.9878 16.342 14.1558 16.356 14.3331 16.356C14.5104 16.356 14.8651 16.3233 15.3971 16.258C15.9291 16.1927 16.3118 16.16 16.5451 16.16C17.0304 16.16 17.4224 16.2813 17.7211 16.524C18.0198 16.7667 18.1691 17.14 18.1691 17.644C18.1691 18.148 18.0058 18.5867 17.6791 18.96C17.1098 19.6133 16.2231 19.94 15.0191 19.94C14.2071 19.94 13.5864 19.8373 13.1571 19.632C12.7278 19.4267 12.5131 19.044 12.5131 18.484C12.5131 18.0733 12.7324 17.6487 13.1711 17.21C12.9938 17.0793 12.9051 16.8973 12.9051 16.664C12.9051 16.1693 13.1431 15.5627 13.6191 14.844C13.1244 14.4427 12.8771 13.724 12.8771 12.688C12.8771 11.1013 13.6658 10.308 15.2431 10.308ZM14.0111 12.702C14.0111 13.8033 14.4218 14.354 15.2431 14.354C16.0644 14.354 16.4751 13.8033 16.4751 12.702C16.4751 11.6007 16.0644 11.05 15.2431 11.05C14.4218 11.05 14.0111 11.6007 14.0111 12.702ZM13.6471 18.274C13.6471 18.8713 14.1931 19.17 15.2851 19.17C15.7518 19.17 16.1671 19.0673 16.5311 18.862C16.9044 18.6567 17.0911 18.3487 17.0911 17.938C17.0911 17.4807 16.8438 17.252 16.3491 17.252C16.1064 17.252 15.7238 17.28 15.2011 17.336C14.6784 17.4013 14.2584 17.434 13.9411 17.434H13.8291C13.7078 17.6953 13.6471 17.9753 13.6471 18.274Z" fill="#888888"/>
</svg>
