<svg width="24" height="24" viewBox="0 0 24 24" fill="none" xmlns="http://www.w3.org/2000/svg">
<path d="M11.9234 17.0658C11.7281 17.0658 11.5755 17.0475 11.4657 17.0109C11.1239 16.9255 10.8859 16.7363 10.7517 16.4434C10.6296 16.1383 10.5686 15.8026 10.5686 15.4365C10.5686 15.0947 10.5991 14.7591 10.6601 14.4295C10.7334 14.1 10.7944 13.8437 10.8432 13.6606C10.3794 14.6981 9.80579 15.5036 9.1223 16.0772C8.45102 16.6509 7.73702 16.9377 6.9803 16.9377C6.27241 16.9377 5.75369 16.7546 5.42415 16.3885C5.09461 16.0101 4.92984 15.5097 4.92984 14.8872C4.92984 14.399 5.00917 13.8925 5.16784 13.3677C5.35092 12.7086 5.60112 12.0251 5.91846 11.3172C6.23579 10.6093 6.62025 9.92585 7.07184 9.26677C7.52343 8.60769 8.04215 8.00964 8.628 7.47261C9.22605 6.93559 9.89123 6.51451 10.6235 6.20938C11.3558 5.89205 12.1675 5.73338 13.0585 5.73338C13.5955 5.73338 14.0166 5.81882 14.3217 5.98969C14.639 6.16056 14.8587 6.40467 14.9808 6.722C15.0296 6.83185 15.054 6.9539 15.054 7.08815C15.054 7.27123 15.0052 7.41159 14.9075 7.50923C14.8221 7.59467 14.7367 7.63738 14.6512 7.63738C14.5902 7.63738 14.5475 7.60077 14.5231 7.52754C14.4987 7.35667 14.401 7.22241 14.2301 7.12477C14.0715 7.02713 13.8823 6.96 13.6626 6.92338C13.4429 6.87456 13.2354 6.85015 13.0401 6.85015C12.5275 6.85015 12.021 7.02713 11.5206 7.38108C11.0324 7.72282 10.5747 8.1561 10.1475 8.68092C9.72035 9.19354 9.33589 9.72446 8.99415 10.2737C8.66461 10.8229 8.3961 11.2989 8.18861 11.7017C7.9201 12.2631 7.6943 12.8551 7.51123 13.4775C7.32815 14.0878 7.23661 14.6187 7.23661 15.0703C7.23661 15.3754 7.28543 15.6195 7.38307 15.8026C7.49292 15.9735 7.66379 16.0589 7.89569 16.0589C8.28625 16.0467 8.66461 15.827 9.03076 15.3998C9.40912 14.9727 9.78748 14.4051 10.1658 13.6972C10.5564 12.9893 10.9531 12.2021 11.3558 11.3355C11.7586 10.469 12.1736 9.5902 12.6008 8.69923C12.7472 8.72364 12.9425 8.76026 13.1866 8.80908C13.4307 8.84569 13.6748 8.90061 13.9189 8.97385C14.1752 9.04708 14.3827 9.13861 14.5414 9.24846C14.7123 9.3461 14.7977 9.47426 14.7977 9.63292C14.7977 9.71836 14.7733 9.80379 14.7245 9.88923C14.2363 10.5361 13.8213 11.2501 13.4795 12.0312C13.15 12.8002 12.8998 13.5508 12.7289 14.2831C12.558 15.0032 12.4726 15.6256 12.4726 16.1505C12.4726 16.3335 12.5092 16.4678 12.5825 16.5532C12.6679 16.6265 12.7289 16.6753 12.7655 16.6997C12.7655 16.8339 12.674 16.9255 12.4909 16.9743C12.3078 17.0353 12.1187 17.0658 11.9234 17.0658ZM15.1774 20.4894C14.5794 20.5016 14.1095 20.4223 13.7677 20.2514C13.4382 20.0805 13.2734 19.812 13.2734 19.4458C13.2734 19.1285 13.3894 18.8478 13.6213 18.6037C13.8654 18.3718 14.1705 18.1643 14.5367 17.9812C14.915 17.8104 15.3056 17.6639 15.7084 17.5418C16.1111 17.4198 16.4834 17.3161 16.8251 17.2306L17.4476 15.4182C17.3866 15.5646 17.2767 15.7599 17.118 16.004C16.9716 16.2359 16.7824 16.4495 16.5505 16.6448C16.3308 16.8401 16.0684 16.9377 15.7633 16.9377C15.1042 16.9377 14.6465 16.779 14.3902 16.4617C14.1461 16.1444 14.024 15.7599 14.024 15.3083C14.024 14.8811 14.0912 14.4356 14.2254 13.9718C14.3719 13.4958 14.5367 13.0565 14.7197 12.6537C14.9028 12.2387 15.0493 11.9153 15.1591 11.6834C15.5253 10.9267 15.8853 10.3652 16.2393 9.99908C16.6054 9.62072 16.9838 9.37051 17.3744 9.24846C17.7771 9.12641 18.1982 9.06538 18.6376 9.06538C18.9549 9.06538 19.2906 9.08369 19.6445 9.12031C19.9985 9.14472 20.3768 9.15692 20.7796 9.15692C21.219 9.15692 21.6828 9.12031 22.171 9.04708C22.2076 9.03487 22.2625 9.02877 22.3357 9.02877C22.4822 9.02877 22.5554 9.05928 22.5554 9.12031C22.5554 9.18133 22.4883 9.24846 22.354 9.32169C22.1832 9.40713 21.994 9.61461 21.7865 9.94415C21.579 10.2615 21.3715 10.6276 21.164 11.0426C20.9688 11.4576 20.7857 11.8543 20.6148 12.2326C20.4561 12.611 20.3402 12.9039 20.267 13.1114C20.1083 13.563 19.9374 14.0756 19.7544 14.6492C19.5835 15.2229 19.3882 15.8026 19.1685 16.3885C19.4858 16.181 19.7849 15.943 20.0656 15.6745C20.3463 15.4059 20.6209 15.1069 20.8894 14.7774C21.1091 14.5089 21.3166 14.2159 21.5119 13.8986C21.7194 13.5813 21.9025 13.2517 22.0611 12.91C22.1221 12.8002 22.2015 12.7452 22.2991 12.7452C22.3846 12.7452 22.4517 12.7818 22.5005 12.8551C22.5615 12.9283 22.5615 13.0137 22.5005 13.1114C22.0001 14.1 21.4631 14.9177 20.8894 15.5646C20.4378 16.0528 19.974 16.4495 19.498 16.7546C19.4004 16.8156 19.3028 16.8706 19.2051 16.9194C19.1075 16.9804 19.0098 17.0353 18.9122 17.0842C18.6681 17.6822 18.3752 18.2375 18.0334 18.7502C17.6917 19.2628 17.2889 19.6777 16.8251 19.9951C16.3613 20.3124 15.8121 20.4772 15.1774 20.4894ZM16.0928 16.4434C16.2759 16.4434 16.4773 16.2847 16.697 15.9674C16.9167 15.6501 17.1364 15.2595 17.356 14.7957C17.3927 14.7225 17.472 14.5394 17.594 14.2465C17.7283 13.9535 17.8809 13.5996 18.0517 13.1846C18.2348 12.7696 18.424 12.3364 18.6193 11.8848C18.8146 11.4332 18.9915 11.006 19.1502 10.6032C19.3211 10.2005 19.4553 9.87092 19.553 9.61461C19.5652 9.578 19.5713 9.53528 19.5713 9.48646C19.5713 9.41323 19.5347 9.37661 19.4614 9.37661C19.3882 9.37661 19.3028 9.40713 19.2051 9.46815C19.1075 9.51697 19.0159 9.5719 18.9305 9.63292C18.7718 9.75497 18.5644 10.0174 18.308 10.4202C18.0639 10.8229 17.8015 11.2989 17.5208 11.8482C17.2523 12.3974 16.9899 12.9588 16.7336 13.5325C16.4895 14.0939 16.2881 14.6126 16.1294 15.0886C15.9708 15.5524 15.8914 15.9003 15.8914 16.1322C15.8914 16.3396 15.9586 16.4434 16.0928 16.4434ZM14.6282 19.7388C15.0066 19.7388 15.3727 19.5557 15.7267 19.1895C16.0928 18.8234 16.3918 18.3596 16.6237 17.7982C16.2698 17.8958 15.8914 18.0117 15.4887 18.146C15.0859 18.2925 14.7441 18.4633 14.4634 18.6586C14.1827 18.8539 14.0424 19.0736 14.0424 19.3177C14.0424 19.4397 14.079 19.5374 14.1522 19.6106C14.2376 19.6961 14.3963 19.7388 14.6282 19.7388Z" fill="#888888"/>
</svg>
