<svg width="24" height="24" viewBox="0 0 24 24" fill="none" xmlns="http://www.w3.org/2000/svg">
<path d="M2.96737 16V15.706L4.33938 15.146L8.38538 4.52H8.60938L12.4314 15.496L13.7194 15.706V16H9.60338V15.706L10.7514 15.524L9.56138 12.206H5.83738L4.70338 15.146L5.96338 15.706V16H2.96737ZM5.94938 11.912H9.46338L7.78338 6.984L5.94938 11.912ZM20.7084 8.09C20.7084 8.454 20.5731 8.76667 20.3024 9.028C20.0318 9.28933 19.6024 9.45733 19.0144 9.532C19.2571 9.88667 19.3784 10.372 19.3784 10.988C19.3784 11.716 19.1171 12.29 18.5944 12.71C18.0811 13.13 17.4278 13.34 16.6344 13.34C16.3078 13.34 16.0091 13.312 15.7384 13.256C15.1411 13.2933 14.8424 13.5267 14.8424 13.956C14.8424 14.1987 14.9404 14.376 15.1364 14.488C15.3418 14.6 15.6638 14.656 16.1024 14.656H17.6704C18.4264 14.656 18.9864 14.81 19.3504 15.118C19.7238 15.426 19.9104 15.9533 19.9104 16.7C19.9104 17.2227 19.7751 17.7033 19.5044 18.142C19.2431 18.5807 18.8604 18.926 18.3564 19.178C17.8524 19.4393 17.2504 19.57 16.5504 19.57C15.4958 19.57 14.7164 19.4113 14.2124 19.094C13.7178 18.7767 13.4704 18.3567 13.4704 17.834C13.4704 17.5167 13.5918 17.2367 13.8344 16.994C14.0771 16.7513 14.4084 16.63 14.8284 16.63C14.9124 16.63 15.0851 16.6487 15.3464 16.686C15.0571 16.994 14.9124 17.358 14.9124 17.778C14.9124 18.1793 15.0524 18.5293 15.3324 18.828C15.6124 19.1267 16.0698 19.276 16.7044 19.276C17.2551 19.276 17.7451 19.1687 18.1744 18.954C18.6131 18.7487 18.9491 18.478 19.1824 18.142C19.4158 17.806 19.5324 17.4607 19.5324 17.106C19.5324 16.714 19.4064 16.4293 19.1544 16.252C18.9024 16.084 18.4544 16 17.8104 16H16.1024C15.4491 16 14.9544 15.874 14.6184 15.622C14.2918 15.3607 14.1284 14.978 14.1284 14.474C14.1284 14.138 14.2218 13.844 14.4084 13.592C14.6044 13.3307 14.8518 13.1627 15.1504 13.088C14.3384 12.7427 13.9324 12.0427 13.9324 10.988C13.9324 10.2507 14.1891 9.672 14.7024 9.252C15.2158 8.832 15.8598 8.622 16.6344 8.622C17.6144 8.622 18.3238 8.82733 18.7624 9.238C19.0238 9.19133 19.2198 9.10733 19.3504 8.986C19.4811 8.85533 19.5464 8.71067 19.5464 8.552C19.5464 8.40267 19.5044 8.29067 19.4204 8.216C19.3364 8.132 19.2384 8.09 19.1264 8.09C19.1264 7.88467 19.2011 7.70733 19.3504 7.558C19.5091 7.39933 19.6958 7.32 19.9104 7.32C20.1438 7.32 20.3351 7.39 20.4844 7.53C20.6338 7.67 20.7084 7.85667 20.7084 8.09ZM18.0624 10.638C18.0624 10.0687 17.9411 9.63 17.6984 9.322C17.4651 9.014 17.1104 8.86 16.6344 8.86C15.7104 8.86 15.2484 9.45267 15.2484 10.638V11.324C15.2484 11.8747 15.3604 12.3087 15.5844 12.626C15.8178 12.9433 16.1678 13.102 16.6344 13.102C17.1104 13.102 17.4651 12.9433 17.6984 12.626C17.9411 12.3087 18.0624 11.8747 18.0624 11.324V10.638Z" fill="#333333"/>
</svg>
