<svg width="24" height="24" viewBox="0 0 24 24" fill="none" xmlns="http://www.w3.org/2000/svg">
<path d="M2.96737 17V16.706L4.33938 16.146L8.38538 5.52H8.60938L12.4314 16.496L13.7194 16.706V17H9.60338V16.706L10.7514 16.524L9.56138 13.206H5.83738L4.70338 16.146L5.96338 16.706V17H2.96737ZM5.94938 12.912H9.46338L7.78338 7.984L5.94938 12.912ZM20.7084 9.09C20.7084 9.454 20.5731 9.76667 20.3024 10.028C20.0318 10.2893 19.6024 10.4573 19.0144 10.532C19.2571 10.8867 19.3784 11.372 19.3784 11.988C19.3784 12.716 19.1171 13.29 18.5944 13.71C18.0811 14.13 17.4278 14.34 16.6344 14.34C16.3078 14.34 16.0091 14.312 15.7384 14.256C15.1411 14.2933 14.8424 14.5267 14.8424 14.956C14.8424 15.1987 14.9404 15.376 15.1364 15.488C15.3418 15.6 15.6638 15.656 16.1024 15.656H17.6704C18.4264 15.656 18.9864 15.81 19.3504 16.118C19.7238 16.426 19.9104 16.9533 19.9104 17.7C19.9104 18.2227 19.7751 18.7033 19.5044 19.142C19.2431 19.5807 18.8604 19.926 18.3564 20.178C17.8524 20.4393 17.2504 20.57 16.5504 20.57C15.4958 20.57 14.7164 20.4113 14.2124 20.094C13.7178 19.7767 13.4704 19.3567 13.4704 18.834C13.4704 18.5167 13.5918 18.2367 13.8344 17.994C14.0771 17.7513 14.4084 17.63 14.8284 17.63C14.9124 17.63 15.0851 17.6487 15.3464 17.686C15.0571 17.994 14.9124 18.358 14.9124 18.778C14.9124 19.1793 15.0524 19.5293 15.3324 19.828C15.6124 20.1267 16.0698 20.276 16.7044 20.276C17.2551 20.276 17.7451 20.1687 18.1744 19.954C18.6131 19.7487 18.9491 19.478 19.1824 19.142C19.4158 18.806 19.5324 18.4607 19.5324 18.106C19.5324 17.714 19.4064 17.4293 19.1544 17.252C18.9024 17.084 18.4544 17 17.8104 17H16.1024C15.4491 17 14.9544 16.874 14.6184 16.622C14.2918 16.3607 14.1284 15.978 14.1284 15.474C14.1284 15.138 14.2218 14.844 14.4084 14.592C14.6044 14.3307 14.8518 14.1627 15.1504 14.088C14.3384 13.7427 13.9324 13.0427 13.9324 11.988C13.9324 11.2507 14.1891 10.672 14.7024 10.252C15.2158 9.832 15.8598 9.622 16.6344 9.622C17.6144 9.622 18.3238 9.82733 18.7624 10.238C19.0238 10.1913 19.2198 10.1073 19.3504 9.986C19.4811 9.85533 19.5464 9.71067 19.5464 9.552C19.5464 9.40267 19.5044 9.29067 19.4204 9.216C19.3364 9.132 19.2384 9.09 19.1264 9.09C19.1264 8.88467 19.2011 8.70733 19.3504 8.558C19.5091 8.39933 19.6958 8.32 19.9104 8.32C20.1438 8.32 20.3351 8.39 20.4844 8.53C20.6338 8.67 20.7084 8.85667 20.7084 9.09ZM18.0624 11.638C18.0624 11.0687 17.9411 10.63 17.6984 10.322C17.4651 10.014 17.1104 9.86 16.6344 9.86C15.7104 9.86 15.2484 10.4527 15.2484 11.638V12.324C15.2484 12.8747 15.3604 13.3087 15.5844 13.626C15.8178 13.9433 16.1678 14.102 16.6344 14.102C17.1104 14.102 17.4651 13.9433 17.6984 13.626C17.9411 13.3087 18.0624 12.8747 18.0624 12.324V11.638Z" fill="#888888"/>
</svg>
