<svg width="24" height="24" viewBox="0 0 24 24" fill="none" xmlns="http://www.w3.org/2000/svg">
<path d="M5.8055 7.214H7.8915L11.7975 17H9.6275L8.7875 14.872H4.9095L4.0695 17H1.8855L5.8055 7.214ZM8.2275 13.178L6.8415 9.454L5.4555 13.178H8.2275ZM16.592 20.22C16.144 20.22 15.6913 20.178 15.234 20.094C14.786 20.01 14.408 19.898 14.1 19.758V18.204C14.8186 18.5213 15.6493 18.68 16.592 18.68C17.348 18.68 17.8893 18.526 18.216 18.218C18.5426 17.91 18.706 17.448 18.706 16.832V16.412C18.4166 16.6733 18.062 16.8693 17.642 17C17.222 17.14 16.774 17.21 16.298 17.21C15.6073 17.21 14.9866 17.0607 14.436 16.762C13.8946 16.454 13.47 16.0293 13.162 15.488C12.854 14.9467 12.7 14.3307 12.7 13.64C12.7 12.9307 12.8493 12.3053 13.148 11.764C13.456 11.2227 13.876 10.8073 14.408 10.518C14.9493 10.2193 15.5653 10.07 16.256 10.07C16.7786 10.07 17.2406 10.1447 17.642 10.294C18.0433 10.4433 18.4213 10.6813 18.776 11.008V10.28H20.82V16.566C20.82 17.7327 20.4746 18.6333 19.784 19.268C19.0933 19.9027 18.0293 20.22 16.592 20.22ZM16.802 15.572C17.2406 15.572 17.6326 15.4553 17.978 15.222C18.3326 14.9793 18.5753 14.662 18.706 14.27V13.01C18.5566 12.618 18.3093 12.3053 17.964 12.072C17.628 11.8387 17.2406 11.722 16.802 11.722C16.2326 11.722 15.766 11.8947 15.402 12.24C15.0473 12.5853 14.87 13.0473 14.87 13.626C14.87 14.214 15.0473 14.6853 15.402 15.04C15.766 15.3947 16.2326 15.572 16.802 15.572Z" fill="#333333"/>
</svg>
