<svg width="24" height="24" viewBox="0 0 24 24" fill="none" xmlns="http://www.w3.org/2000/svg">
<path d="M7.1775 7.214H9.2635L11.0975 17H8.9975L8.6055 14.872H4.7275L3.4395 17H1.1855L7.1775 7.214ZM8.4095 13.178L7.8075 9.454L5.6375 13.178H8.4095ZM15.206 20.22C14.758 20.22 14.3146 20.178 13.876 20.094C13.4373 20.01 13.0826 19.898 12.812 19.758L13.134 18.204C13.778 18.5213 14.576 18.68 15.528 18.68C16.2746 18.68 16.844 18.526 17.236 18.218C17.6373 17.91 17.9033 17.448 18.034 16.832L18.118 16.412C17.754 16.6827 17.3713 16.8833 16.97 17.014C16.578 17.1447 16.102 17.21 15.542 17.21C15.0006 17.21 14.506 17.0933 14.058 16.86C13.6193 16.6267 13.2693 16.3 13.008 15.88C12.756 15.4507 12.63 14.9607 12.63 14.41C12.63 14.158 12.658 13.9013 12.714 13.64C12.938 12.5387 13.428 11.6707 14.184 11.036C14.94 10.392 15.8873 10.07 17.026 10.07C17.5486 10.07 17.992 10.1447 18.356 10.294C18.7293 10.4433 19.056 10.6813 19.336 11.008L19.504 10.28H21.548L20.204 16.566C19.952 17.7607 19.434 18.666 18.65 19.282C17.8753 19.9073 16.7273 20.22 15.206 20.22ZM16.396 15.572C16.8346 15.572 17.2546 15.4553 17.656 15.222C18.0573 14.9793 18.3653 14.662 18.58 14.27L18.846 13.01C18.7806 12.618 18.6033 12.3053 18.314 12.072C18.0246 11.8387 17.6606 11.722 17.222 11.722C16.6526 11.722 16.1486 11.8947 15.71 12.24C15.2806 12.5853 15.0053 13.0473 14.884 13.626C14.8373 13.8593 14.814 14.0553 14.814 14.214C14.814 14.6433 14.9446 14.9793 15.206 15.222C15.4673 15.4553 15.864 15.572 16.396 15.572Z" fill="#333333"/>
</svg>
