<svg width="24" height="24" viewBox="0 0 24 24" fill="none" xmlns="http://www.w3.org/2000/svg">
<path d="M5.43242 7.214H8.21842L12.1244 17H9.15642L8.42842 15.138H5.22242L4.48042 17H1.51242L5.43242 7.214ZM7.75642 12.94L6.81842 10.196L5.88042 12.94H7.75642ZM16.6583 20.22C16.2197 20.22 15.767 20.178 15.3003 20.094C14.843 20.01 14.4463 19.898 14.1103 19.758V17.896C14.8477 18.2133 15.697 18.372 16.6583 18.372C17.265 18.372 17.7083 18.246 17.9883 17.994C18.2683 17.7513 18.4083 17.392 18.4083 16.916V16.524C18.1563 16.7293 17.839 16.8927 17.4563 17.014C17.083 17.1447 16.6863 17.21 16.2663 17.21C15.557 17.21 14.927 17.0607 14.3763 16.762C13.835 16.4633 13.415 16.0433 13.1163 15.502C12.827 14.9607 12.6823 14.34 12.6823 13.64C12.6823 12.9307 12.827 12.3053 13.1163 11.764C13.415 11.2227 13.835 10.8073 14.3763 10.518C14.9177 10.2193 15.543 10.07 16.2523 10.07C16.691 10.07 17.1063 10.1447 17.4983 10.294C17.8903 10.434 18.2263 10.6347 18.5063 10.896V10.28H21.2083V16.51C21.2083 17.686 20.8397 18.596 20.1023 19.24C19.365 19.8933 18.217 20.22 16.6583 20.22ZM17.0083 15.04C17.3257 15.04 17.6057 14.9653 17.8483 14.816C18.1003 14.6573 18.287 14.4473 18.4083 14.186V13.094C18.287 12.8327 18.1003 12.6273 17.8483 12.478C17.6057 12.3287 17.3257 12.254 17.0083 12.254C16.5697 12.254 16.2197 12.3753 15.9583 12.618C15.7063 12.8607 15.5803 13.1967 15.5803 13.626C15.5803 14.074 15.7063 14.424 15.9583 14.676C16.2197 14.9187 16.5697 15.04 17.0083 15.04Z" fill="#333333"/>
</svg>
