<svg width="24" height="24" viewBox="0 0 24 24" fill="none" xmlns="http://www.w3.org/2000/svg">
<path d="M10.935 16H10.179L10.277 13.676H8.16296L7.25296 16H6.45496L10.319 6.662H11.187L10.935 16ZM10.319 12.99L10.557 7.628L8.42896 12.99H10.319ZM13.0207 18.744C12.2834 18.744 11.7187 18.492 11.3267 17.988L11.7747 17.442C12.0641 17.8993 12.4841 18.128 13.0347 18.128C13.7721 18.128 14.2667 17.5633 14.5187 16.434L14.8547 15.048C14.4441 15.7573 13.9681 16.112 13.4267 16.112C13.0347 16.112 12.7221 15.9533 12.4887 15.636C12.2554 15.3187 12.1387 14.8427 12.1387 14.208C12.1387 13.7693 12.1901 13.2747 12.2927 12.724C12.4047 12.164 12.5587 11.604 12.7547 11.044C12.9507 10.484 13.2214 10.0173 13.5667 9.644C13.9214 9.26133 14.3087 9.07 14.7287 9.07C14.9807 9.07 15.2234 9.17733 15.4567 9.392C15.6901 9.60667 15.8441 9.896 15.9187 10.26L16.1287 9.238H16.8007L15.2187 16.378C15.0321 17.218 14.7567 17.82 14.3927 18.184C14.0287 18.5573 13.5714 18.744 13.0207 18.744ZM13.6787 15.496C13.9214 15.496 14.1641 15.3747 14.4067 15.132C14.6494 14.88 14.8501 14.5813 15.0087 14.236L15.7367 10.974C15.7181 10.6473 15.6154 10.3533 15.4287 10.092C15.2421 9.82133 15.0227 9.686 14.7707 9.686C14.4814 9.686 14.2107 9.854 13.9587 10.19C13.7067 10.5167 13.5014 10.9227 13.3427 11.408C13.1934 11.884 13.0721 12.3693 12.9787 12.864C12.8947 13.3493 12.8527 13.7787 12.8527 14.152C12.8527 15.048 13.1281 15.496 13.6787 15.496Z" fill="#888888"/>
</svg>
