<svg width="24" height="24" viewBox="0 0 24 24" fill="none" xmlns="http://www.w3.org/2000/svg">
<path d="M11.9018 16H9.12984V14.796H6.70784L6.17584 16H3.20784L8.00984 6.662H11.2158L11.9018 16ZM9.12984 12.486L9.11584 9.392L7.74384 12.486H9.12984ZM14.9357 18.744C13.6197 18.744 12.6117 18.3893 11.9117 17.68L13.1577 16.042C13.3443 16.2753 13.5963 16.4573 13.9137 16.588C14.231 16.7187 14.553 16.784 14.8797 16.784C15.5983 16.784 16.065 16.322 16.2797 15.398L16.4057 14.894C15.967 15.5007 15.4163 15.804 14.7537 15.804C14.1097 15.804 13.5963 15.6033 13.2137 15.202C12.831 14.8007 12.6397 14.194 12.6397 13.382C12.6397 12.7193 12.747 12.0707 12.9617 11.436C13.1763 10.8013 13.531 10.2507 14.0257 9.784C14.5203 9.308 15.099 9.07 15.7617 9.07C16.0977 9.07 16.429 9.14933 16.7557 9.308C17.0917 9.45733 17.3343 9.68133 17.4837 9.98L17.6517 9.238H20.0177L18.6317 15.398C18.137 17.6287 16.905 18.744 14.9357 18.744ZM15.9437 13.718C16.2423 13.718 16.513 13.5593 16.7557 13.242L17.1057 11.66C16.9283 11.324 16.6343 11.156 16.2237 11.156C15.8783 11.156 15.5983 11.338 15.3837 11.702C15.1783 12.066 15.0757 12.458 15.0757 12.878C15.0757 13.1393 15.1503 13.3447 15.2997 13.494C15.4583 13.6433 15.673 13.718 15.9437 13.718Z" fill="#888888"/>
</svg>
