<svg width="24" height="24" viewBox="0 0 24 24" fill="none" xmlns="http://www.w3.org/2000/svg">
<path d="M12.4022 16H9.67223L9.21023 14.656H5.52823L5.06623 16H2.33623L5.85023 6.662H8.87423L12.4022 16ZM8.55223 12.556L7.36223 9.042L6.17223 12.556H8.55223ZM15.85 18.744C14.674 18.744 13.6753 18.408 12.854 17.736L13.792 16.196C14.2773 16.7187 14.9633 16.98 15.85 16.98C16.298 16.98 16.6946 16.8633 17.04 16.63C17.3946 16.3967 17.572 15.9953 17.572 15.426V14.908C17.012 15.5613 16.3446 15.888 15.57 15.888C14.702 15.888 13.988 15.594 13.428 15.006C12.868 14.4087 12.588 13.564 12.588 12.472C12.588 11.3893 12.8633 10.554 13.414 9.966C13.974 9.36867 14.6926 9.07 15.57 9.07C16.382 9.07 17.0493 9.392 17.572 10.036V9.238H19.714V15.398C19.714 15.93 19.63 16.3967 19.462 16.798C19.3033 17.2087 19.098 17.5307 18.846 17.764C18.594 18.0067 18.2906 18.2027 17.936 18.352C17.5813 18.5107 17.236 18.6133 16.9 18.66C16.564 18.716 16.214 18.744 15.85 18.744ZM16.284 13.984C16.5173 13.984 16.7553 13.928 16.998 13.816C17.25 13.704 17.4413 13.5593 17.572 13.382V11.576C17.4413 11.3987 17.25 11.254 16.998 11.142C16.7553 11.03 16.5173 10.974 16.284 10.974C15.8453 10.974 15.486 11.1047 15.206 11.366C14.9353 11.6273 14.8 11.996 14.8 12.472C14.8 12.9573 14.9353 13.3307 15.206 13.592C15.486 13.8533 15.8453 13.984 16.284 13.984Z" fill="#333333"/>
</svg>
