<svg width="24" height="24" viewBox="0 0 24 24" fill="none" xmlns="http://www.w3.org/2000/svg">
<path d="M12.1309 16H10.9269L10.3249 13.886H7.00687L6.40487 16H5.20087L8.00087 6.662H9.33087L12.1309 16ZM10.0869 12.906L8.65887 7.894L7.24487 12.906H10.0869ZM15.3339 18.744C14.4006 18.744 13.6492 18.4593 13.0799 17.89L13.5419 17.106C13.9899 17.6287 14.5779 17.89 15.3059 17.89C15.8006 17.89 16.2066 17.736 16.5239 17.428C16.8412 17.1293 16.9999 16.672 16.9999 16.056V14.922C16.8039 15.2767 16.5472 15.5613 16.2299 15.776C15.9126 15.9813 15.5766 16.084 15.2219 16.084C14.4752 16.084 13.8826 15.7713 13.4439 15.146C13.0146 14.5113 12.7999 13.6573 12.7999 12.584C12.7999 11.52 13.0146 10.6707 13.4439 10.036C13.8732 9.392 14.4659 9.07 15.2219 9.07C15.9779 9.07 16.5706 9.45267 16.9999 10.218V9.238H18.0079V15.986C18.0079 16.9567 17.7559 17.6567 17.2519 18.086C16.7572 18.5247 16.1179 18.744 15.3339 18.744ZM15.4739 15.188C15.7819 15.188 16.0806 15.0807 16.3699 14.866C16.6592 14.642 16.8692 14.376 16.9999 14.068V11.072C16.8692 10.764 16.6592 10.5027 16.3699 10.288C16.0806 10.0733 15.7819 9.966 15.4739 9.966C14.9419 9.966 14.5359 10.2133 14.2559 10.708C13.9852 11.1933 13.8499 11.8187 13.8499 12.584C13.8499 13.3493 13.9852 13.9747 14.2559 14.46C14.5359 14.9453 14.9419 15.188 15.4739 15.188Z" fill="#888888"/>
</svg>
