<svg width="24" height="24" viewBox="0 0 24 24" fill="none" xmlns="http://www.w3.org/2000/svg">
<path d="M11.1315 16H9.17152L9.10152 14.348H6.21752L5.43352 16H3.31952L8.14952 6.662H10.4175L11.1315 16ZM9.07352 12.696L8.91952 8.636L6.95952 12.696H9.07352ZM14.1658 18.744C12.9618 18.744 12.0518 18.408 11.4358 17.736L12.3598 16.532C12.5371 16.784 12.7845 16.98 13.1018 17.12C13.4285 17.26 13.7691 17.33 14.1238 17.33C14.9731 17.33 15.5145 16.7933 15.7478 15.72L15.9438 14.936C15.4678 15.608 14.8798 15.944 14.1798 15.944C13.5638 15.944 13.0691 15.7433 12.6958 15.342C12.3225 14.9407 12.1358 14.3387 12.1358 13.536C12.1358 12.8733 12.2431 12.2107 12.4578 11.548C12.6818 10.8853 13.0365 10.3067 13.5218 9.812C14.0165 9.31733 14.5905 9.07 15.2438 9.07C15.5891 9.07 15.9298 9.168 16.2658 9.364C16.6018 9.55067 16.8445 9.80267 16.9938 10.12L17.2038 9.238H18.8698L17.4418 15.65C16.9938 17.7127 15.9018 18.744 14.1658 18.744ZM14.9918 14.446C15.4491 14.446 15.8551 14.1847 16.2098 13.662L16.7278 11.38C16.6158 11.1373 16.4525 10.9413 16.2378 10.792C16.0231 10.6333 15.7851 10.554 15.5238 10.554C15.0478 10.554 14.6558 10.8433 14.3478 11.422C14.0398 12.0007 13.8858 12.598 13.8858 13.214C13.8858 13.6153 13.9838 13.9233 14.1798 14.138C14.3758 14.3433 14.6465 14.446 14.9918 14.446Z" fill="#333333"/>
</svg>
