<svg width="24" height="24" viewBox="0 0 24 24" fill="none" xmlns="http://www.w3.org/2000/svg">
<path d="M11.6363 16H9.46628L9.22828 14.488H7.60428L7.36628 16H5.19628L7.19828 6.662H9.63428L11.6363 16ZM8.97628 12.64L8.41628 8.986L7.85628 12.64H8.97628ZM14.3824 18.744C13.4397 18.744 12.6977 18.492 12.1564 17.988L12.7724 16.49C13.2204 16.9193 13.687 17.134 14.1724 17.134C14.5177 17.134 14.793 17.0173 14.9984 16.784C15.2037 16.5507 15.3064 16.196 15.3064 15.72V14.894C15.1477 15.2113 14.947 15.454 14.7044 15.622C14.4617 15.79 14.2097 15.874 13.9484 15.874C13.267 15.874 12.749 15.5847 12.3944 15.006C12.0397 14.4273 11.8624 13.5827 11.8624 12.472C11.8624 11.3893 12.0397 10.554 12.3944 9.966C12.7584 9.36867 13.2764 9.07 13.9484 9.07C14.219 9.07 14.4804 9.14933 14.7324 9.308C14.9844 9.46667 15.1757 9.70933 15.3064 10.036V9.238H17.1964V15.664C17.1964 16.7747 16.9304 17.5633 16.3984 18.03C15.8757 18.506 15.2037 18.744 14.3824 18.744ZM14.6064 14.194C14.7464 14.194 14.877 14.138 14.9984 14.026C15.129 13.9047 15.2317 13.7507 15.3064 13.564V11.38C15.2317 11.1933 15.129 11.0393 14.9984 10.918C14.877 10.7967 14.7464 10.736 14.6064 10.736C14.0744 10.736 13.8084 11.3147 13.8084 12.472C13.8084 13.0413 13.869 13.4707 13.9904 13.76C14.1117 14.0493 14.317 14.194 14.6064 14.194Z" fill="#333333"/>
</svg>
