<svg width="24" height="24" viewBox="0 0 24 24" fill="none" xmlns="http://www.w3.org/2000/svg">
<path d="M11.5994 16H11.1374L10.6894 13.494H8.47741L8.02941 16H7.56741L9.31741 6.662H9.84941L11.5994 16ZM10.6194 13.074L9.58341 7.32L8.54741 13.074H10.6194ZM13.9884 18.744C13.3724 18.744 12.859 18.5247 12.4484 18.086L12.7284 17.722C13.0737 18.1513 13.4937 18.366 13.9884 18.366C14.847 18.366 15.2764 17.778 15.2764 16.602V15.02C15.1364 15.3653 14.9497 15.65 14.7164 15.874C14.4924 16.0887 14.2684 16.196 14.0444 16.196C13.4657 16.196 13.0364 15.874 12.7564 15.23C12.4857 14.5767 12.3504 13.7133 12.3504 12.64C12.3504 11.576 12.4857 10.7173 12.7564 10.064C13.0364 9.40133 13.4657 9.07 14.0444 9.07C14.2777 9.07 14.5064 9.17267 14.7304 9.378C14.9637 9.574 15.1457 9.86333 15.2764 10.246V9.238H15.6964V16.602C15.6964 18.03 15.127 18.744 13.9884 18.744ZM14.0444 15.818C14.3057 15.818 14.553 15.6733 14.7864 15.384C15.029 15.0947 15.1924 14.7633 15.2764 14.39V10.876C15.1924 10.5027 15.029 10.1713 14.7864 9.882C14.553 9.59267 14.3057 9.448 14.0444 9.448C13.223 9.448 12.8124 10.512 12.8124 12.64C12.8124 14.7587 13.223 15.818 14.0444 15.818Z" fill="#333333"/>
</svg>
