<svg width="24" height="24" viewBox="0 0 24 24" fill="none" xmlns="http://www.w3.org/2000/svg">
<path d="M11.703 16H10.429L10.065 13.928H5.40305L4.12905 16H2.74305L8.55305 6.662H9.99505L11.703 16ZM9.95305 12.892L9.07105 7.866L5.99105 12.892H9.95305ZM15.5559 18.744C14.1746 18.744 13.1666 18.3613 12.5319 17.596L13.2039 16.882C13.6612 17.5447 14.4406 17.876 15.5419 17.876C16.7459 17.876 17.5019 17.1853 17.8099 15.804L18.0059 14.922C17.3992 15.6873 16.6339 16.07 15.7099 16.07C14.9539 16.07 14.3332 15.832 13.8479 15.356C13.3719 14.88 13.1339 14.1847 13.1339 13.27C13.1339 12.15 13.4606 11.17 14.1139 10.33C14.7672 9.49 15.6166 9.07 16.6619 9.07C17.1099 9.07 17.5532 9.18667 17.9919 9.42C18.4306 9.644 18.7759 9.938 19.0279 10.302L19.2659 9.238H20.3159L18.8599 15.804C18.4306 17.764 17.3292 18.744 15.5559 18.744ZM16.1299 15.132C16.5032 15.132 16.8766 15.0293 17.2499 14.824C17.6232 14.6187 17.9406 14.362 18.2019 14.054L18.8459 11.128C18.6592 10.7827 18.3746 10.512 17.9919 10.316C17.6092 10.1107 17.1939 10.008 16.7459 10.008C16.0086 10.008 15.4066 10.3207 14.9399 10.946C14.4732 11.562 14.2399 12.2807 14.2399 13.102C14.2399 13.7273 14.4079 14.222 14.7439 14.586C15.0892 14.95 15.5512 15.132 16.1299 15.132Z" fill="#888888"/>
</svg>
