<svg width="24" height="24" viewBox="0 0 24 24" fill="none" xmlns="http://www.w3.org/2000/svg">
<path d="M11.1482 16H10.6722L10.4762 13.494H6.76619L5.47819 16H4.96019L9.84619 6.662H10.3782L11.1482 16ZM10.4622 13.074L10.0142 7.25L6.99019 13.074H10.4622ZM14.14 18.744C13.1507 18.744 12.4227 18.436 11.956 17.82L12.306 17.484C12.67 18.072 13.286 18.366 14.154 18.366C15.218 18.366 15.8994 17.6847 16.198 16.322L16.506 14.992C15.974 15.776 15.3207 16.168 14.546 16.168C13.986 16.168 13.5287 15.972 13.174 15.58C12.8194 15.1787 12.642 14.5907 12.642 13.816C12.642 13.3307 12.712 12.8173 12.852 12.276C12.992 11.7347 13.1834 11.2213 13.426 10.736C13.678 10.2507 14 9.854 14.392 9.546C14.7934 9.22867 15.2274 9.07 15.694 9.07C16.0674 9.07 16.4267 9.19133 16.772 9.434C17.1174 9.67667 17.3694 9.98933 17.528 10.372L17.78 9.238H18.186L16.618 16.322C16.254 17.9367 15.428 18.744 14.14 18.744ZM14.63 15.79C14.9847 15.79 15.344 15.6593 15.708 15.398C16.072 15.1273 16.3754 14.8007 16.618 14.418L17.416 10.848C17.304 10.4653 17.08 10.1387 16.744 9.868C16.408 9.588 16.044 9.448 15.652 9.448C15.1574 9.448 14.7047 9.7 14.294 10.204C13.8927 10.708 13.594 11.2867 13.398 11.94C13.202 12.5933 13.104 13.2187 13.104 13.816C13.104 14.4693 13.2394 14.964 13.51 15.3C13.7807 15.6267 14.154 15.79 14.63 15.79Z" fill="#888888"/>
</svg>
