<svg width="24" height="24" viewBox="0 0 24 24" fill="none" xmlns="http://www.w3.org/2000/svg">
<path d="M11.2511 16H10.4391L10.2711 13.69H6.75711L5.58111 16H4.69911L9.57111 6.662H10.4951L11.2511 16ZM10.2571 12.99L9.86511 7.572L7.09311 12.99H10.2571ZM14.2644 18.744C13.2191 18.744 12.4491 18.4267 11.9544 17.792L12.4444 17.26C12.8177 17.8387 13.4244 18.128 14.2644 18.128C15.2724 18.128 15.9211 17.4793 16.2104 16.182L16.4904 14.978C15.9864 15.734 15.3517 16.112 14.5864 16.112C14.0077 16.112 13.5411 15.9113 13.1864 15.51C12.8317 15.1087 12.6544 14.5207 12.6544 13.746C12.6544 13.0833 12.7664 12.402 12.9904 11.702C13.2144 11.002 13.5644 10.3907 14.0404 9.868C14.5257 9.336 15.0811 9.07 15.7064 9.07C16.0704 9.07 16.4251 9.18667 16.7704 9.42C17.1157 9.65333 17.3677 9.952 17.5264 10.316L17.7644 9.238H18.4644L16.9384 16.154C16.5464 17.8807 15.6551 18.744 14.2644 18.744ZM14.8384 15.482C15.1651 15.482 15.4917 15.3653 15.8184 15.132C16.1544 14.8893 16.4297 14.5953 16.6444 14.25L17.3864 10.974C17.2651 10.61 17.0504 10.3067 16.7424 10.064C16.4344 9.82133 16.0984 9.7 15.7344 9.7C15.2771 9.7 14.8617 9.92867 14.4884 10.386C14.1244 10.8433 13.8491 11.3707 13.6624 11.968C13.4851 12.5653 13.3964 13.1347 13.3964 13.676C13.3964 14.2733 13.5224 14.726 13.7744 15.034C14.0357 15.3327 14.3904 15.482 14.8384 15.482Z" fill="#333333"/>
</svg>
