<svg width="24" height="24" viewBox="0 0 24 24" fill="none" xmlns="http://www.w3.org/2000/svg">
<path d="M11.695 16H11.177L10.141 13.494H4.93296L3.89696 16H3.37896L7.27096 6.662H7.80296L11.695 16ZM9.97296 13.074L7.53696 7.18L5.10096 13.074H9.97296ZM15.8494 18.744C15.2614 18.744 14.776 18.674 14.3934 18.534C14.02 18.394 13.642 18.1233 13.2594 17.722L13.5674 17.372C13.8567 17.736 14.174 17.9927 14.5194 18.142C14.874 18.2913 15.3174 18.366 15.8494 18.366C16.568 18.366 17.1514 18.17 17.5994 17.778C18.0567 17.3953 18.2854 16.8167 18.2854 16.042V14.866C18.0334 15.2393 17.688 15.5567 17.2494 15.818C16.82 16.07 16.3534 16.196 15.8494 16.196C14.9347 16.196 14.202 15.874 13.6514 15.23C13.1007 14.5767 12.8254 13.7133 12.8254 12.64C12.8254 11.576 13.1007 10.7173 13.6514 10.064C14.2114 9.40133 14.944 9.07 15.8494 9.07C16.344 9.07 16.8014 9.19133 17.2214 9.434C17.6507 9.66733 18.0054 9.98933 18.2854 10.4V9.238H18.7054V16.042C18.7054 16.966 18.444 17.6473 17.9214 18.086C17.408 18.5247 16.7174 18.744 15.8494 18.744ZM15.8494 15.818C16.3534 15.818 16.8294 15.6827 17.2774 15.412C17.7254 15.1413 18.0614 14.8193 18.2854 14.446V10.82C18.0614 10.4467 17.7254 10.1247 17.2774 9.854C16.8294 9.58333 16.3534 9.448 15.8494 9.448C15.0467 9.448 14.4167 9.75133 13.9594 10.358C13.5114 10.9553 13.2874 11.716 13.2874 12.64C13.2874 13.564 13.5114 14.3247 13.9594 14.922C14.4167 15.5193 15.0467 15.818 15.8494 15.818Z" fill="#333333"/>
</svg>
