<svg width="24" height="24" viewBox="0 0 24 24" fill="none" xmlns="http://www.w3.org/2000/svg">
<path d="M9.30566 13.2793H4.98535L3.74121 16H2.47656L7.34375 5.98535H8.76562L11.3564 16H9.94824L9.30566 13.2793ZM9.05273 12.2334L8.1709 8.32324L7.93848 6.92871H7.80176L7.25488 8.32324L5.4707 12.2334H9.05273ZM18.4248 9.99805C18.3018 9.92969 18.1742 9.87272 18.042 9.82715C17.9098 9.78158 17.7822 9.7474 17.6592 9.72461C17.5361 9.69727 17.4176 9.67904 17.3037 9.66992C17.1943 9.66081 17.0986 9.65625 17.0166 9.65625C16.6383 9.65625 16.2829 9.73145 15.9502 9.88184C15.6175 10.0322 15.3258 10.2464 15.0752 10.5244C14.8245 10.8024 14.6263 11.1374 14.4805 11.5293C14.3392 11.9212 14.2686 12.3587 14.2686 12.8418C14.2686 13.1289 14.2959 13.4069 14.3506 13.6758C14.4053 13.9401 14.4896 14.1748 14.6035 14.3799C14.722 14.5804 14.8701 14.7422 15.0479 14.8652C15.2256 14.9837 15.4352 15.043 15.6768 15.043C15.8727 15.043 16.071 15.0042 16.2715 14.9268C16.472 14.8447 16.6725 14.7285 16.873 14.5781C17.0736 14.4277 17.2718 14.2454 17.4678 14.0312C17.6637 13.8171 17.8551 13.5755 18.042 13.3066L18.4248 9.99805ZM19.0469 15.8428C18.9785 16.417 18.8145 16.9456 18.5547 17.4287C18.2995 17.9118 17.9736 18.3288 17.5771 18.6797C17.1852 19.0352 16.7363 19.3109 16.2305 19.5068C15.7292 19.7074 15.2028 19.8076 14.6514 19.8076C14.4417 19.8076 14.2412 19.7939 14.0498 19.7666C13.8584 19.7393 13.6784 19.7051 13.5098 19.6641C13.3457 19.623 13.193 19.5775 13.0518 19.5273C12.915 19.4818 12.7965 19.4385 12.6963 19.3975L13.0723 18.3447L13.2158 18.2764C13.2887 18.3174 13.3867 18.3652 13.5098 18.4199C13.6328 18.4792 13.7741 18.5339 13.9336 18.584C14.0931 18.6341 14.264 18.6774 14.4463 18.7139C14.6331 18.7503 14.8223 18.7686 15.0137 18.7686C15.36 18.7686 15.6882 18.7025 15.998 18.5703C16.3079 18.4427 16.5837 18.2604 16.8252 18.0234C17.0667 17.791 17.265 17.5085 17.4199 17.1758C17.5794 16.8477 17.682 16.4854 17.7275 16.0889L17.9121 14.4756C17.6979 14.7262 17.486 14.9541 17.2764 15.1592C17.0667 15.3643 16.8525 15.5397 16.6338 15.6855C16.415 15.8268 16.1895 15.9362 15.957 16.0137C15.7246 16.0957 15.4785 16.1367 15.2188 16.1367C14.8314 16.1367 14.4919 16.0547 14.2002 15.8906C13.9085 15.722 13.6624 15.501 13.4619 15.2275C13.266 14.9495 13.1178 14.6305 13.0176 14.2705C12.9173 13.9059 12.8672 13.5254 12.8672 13.1289C12.8672 12.696 12.9242 12.2835 13.0381 11.8916C13.1566 11.4997 13.3184 11.1374 13.5234 10.8047C13.7285 10.4674 13.9723 10.1644 14.2549 9.89551C14.5374 9.62663 14.8428 9.39876 15.1709 9.21191C15.5036 9.02507 15.8522 8.88151 16.2168 8.78125C16.5859 8.67643 16.9596 8.62402 17.3379 8.62402C17.584 8.62402 17.8529 8.64909 18.1445 8.69922C18.4408 8.74479 18.7438 8.82682 19.0537 8.94531L19.8877 8.62402L19.0469 15.8428Z" fill="#888888"/>
</svg>
