<svg width="24" height="24" viewBox="0 0 24 24" fill="none" xmlns="http://www.w3.org/2000/svg">
<path d="M9.73901 14.284H6.32301L4.81101 17H3.62101L9.27701 7.046H9.79501L11.209 17H10.131L9.73901 14.284ZM6.86901 13.276H9.62701L9.22101 10.294L9.19301 8.81H9.17901L8.54901 10.322L6.86901 13.276ZM17.2386 17.322C17.0426 18.2367 16.702 18.904 16.2166 19.324C15.7406 19.7533 15.106 19.968 14.3126 19.968C13.706 19.968 13.2066 19.8887 12.8146 19.73C12.4226 19.5807 12.124 19.45 11.9186 19.338L12.3806 18.554C12.4553 18.5913 12.544 18.638 12.6466 18.694C12.7586 18.7593 12.8893 18.82 13.0386 18.876C13.1973 18.932 13.384 18.9787 13.5986 19.016C13.8226 19.0533 14.084 19.072 14.3826 19.072C14.8493 19.072 15.2413 18.904 15.5586 18.568C15.876 18.232 16.114 17.7047 16.2726 16.986L16.5246 15.81H16.4686C16.338 15.9873 16.1933 16.1553 16.0346 16.314C15.8853 16.4727 15.7173 16.6173 15.5306 16.748C15.344 16.8693 15.1386 16.9673 14.9146 17.042C14.7 17.1167 14.462 17.154 14.2006 17.154C13.6966 17.154 13.2906 16.972 12.9826 16.608C12.6746 16.244 12.5206 15.726 12.5206 15.054C12.5206 14.4287 12.6046 13.808 12.7726 13.192C12.95 12.576 13.2066 12.0253 13.5426 11.54C13.888 11.0453 14.308 10.644 14.8026 10.336C15.3066 10.028 15.8853 9.874 16.5386 9.874C17.0426 9.874 17.4673 9.916 17.8126 10C18.158 10.084 18.4613 10.1867 18.7226 10.308L17.2386 17.322ZM14.5926 16.258C14.826 16.258 15.0546 16.1973 15.2786 16.076C15.512 15.9547 15.722 15.8007 15.9086 15.614C16.1046 15.418 16.2773 15.208 16.4266 14.984C16.5853 14.76 16.716 14.55 16.8186 14.354L17.5326 10.98C17.3833 10.896 17.2013 10.84 16.9866 10.812C16.772 10.784 16.5526 10.77 16.3286 10.77C15.946 10.77 15.5913 10.882 15.2646 11.106C14.938 11.33 14.6533 11.6333 14.4106 12.016C14.1773 12.3893 13.9906 12.8233 13.8506 13.318C13.7106 13.8127 13.6406 14.3307 13.6406 14.872C13.6406 15.3013 13.7246 15.642 13.8926 15.894C14.07 16.1367 14.3033 16.258 14.5926 16.258Z" fill="#888888"/>
</svg>
