<svg width="24" height="24" viewBox="0 0 24 24" fill="none" xmlns="http://www.w3.org/2000/svg">
<path d="M9.89847 14.83H7.04247L5.88047 17H3.94847L9.39447 7.13H10.7385L12.0125 17H10.1785L9.89847 14.83ZM7.84047 13.29H9.82847L9.60447 11.106L9.61847 9.566H9.54847L8.98847 11.12L7.84047 13.29ZM18.1492 17C18.0278 17.5507 17.8645 18.0127 17.6592 18.386C17.4538 18.7687 17.2065 19.0767 16.9172 19.31C16.6372 19.5433 16.3105 19.7113 15.9372 19.814C15.5732 19.9167 15.1672 19.968 14.7192 19.968C14.3925 19.968 14.0985 19.9447 13.8372 19.898C13.5852 19.8513 13.3612 19.7953 13.1652 19.73C12.9692 19.6647 12.7965 19.5947 12.6472 19.52C12.5072 19.4547 12.3952 19.394 12.3112 19.338L12.9552 18.064C13.0392 18.1013 13.1372 18.1433 13.2492 18.19C13.3612 18.246 13.4872 18.2973 13.6272 18.344C13.7765 18.4 13.9445 18.442 14.1312 18.47C14.3272 18.5073 14.5512 18.526 14.8032 18.526C15.2698 18.526 15.6385 18.3813 15.9092 18.092C16.1892 17.8027 16.3898 17.406 16.5112 16.902L16.7772 15.81H16.7212C16.5065 16.146 16.2125 16.4493 15.8392 16.72C15.4752 16.9813 15.0598 17.112 14.5932 17.112C14.0892 17.112 13.6785 16.9253 13.3612 16.552C13.0532 16.1693 12.8992 15.6607 12.8992 15.026C12.8992 14.3073 13.0018 13.6353 13.2072 13.01C13.4125 12.3753 13.6972 11.8247 14.0612 11.358C14.4345 10.882 14.8732 10.5087 15.3772 10.238C15.8812 9.96733 16.4365 9.832 17.0432 9.832C17.6125 9.832 18.1072 9.88333 18.5272 9.986C18.9565 10.0793 19.3018 10.1867 19.5632 10.308L18.1492 17ZM17.6452 11.414C17.5425 11.358 17.4118 11.3207 17.2532 11.302C17.0945 11.2833 16.9358 11.274 16.7772 11.274C16.4785 11.274 16.1985 11.3627 15.9372 11.54C15.6852 11.7173 15.4658 11.96 15.2792 12.268C15.0925 12.576 14.9432 12.94 14.8312 13.36C14.7285 13.7707 14.6772 14.214 14.6772 14.69C14.6772 14.9887 14.7378 15.2267 14.8592 15.404C14.9898 15.5813 15.1578 15.67 15.3632 15.67C15.5218 15.67 15.6852 15.6233 15.8532 15.53C16.0212 15.4273 16.1798 15.3013 16.3292 15.152C16.4878 15.0027 16.6278 14.8393 16.7492 14.662C16.8705 14.4753 16.9685 14.3027 17.0432 14.144L17.6452 11.414Z" fill="#333333"/>
</svg>
