<svg width="24" height="24" viewBox="0 0 24 24" fill="none" xmlns="http://www.w3.org/2000/svg">
<path d="M9.36931 14.914H6.06531L5.26731 17H3.19531L7.03131 7.13H8.55731L12.4073 17H10.2093L9.36931 14.914ZM6.63931 13.276H8.87931L8.12331 11.232L7.78731 9.678H7.71731L7.38131 11.246L6.63931 13.276ZM19.7947 16.72C19.7947 17.8027 19.4867 18.6007 18.8707 19.114C18.2547 19.6273 17.3821 19.884 16.2527 19.884C15.5247 19.884 14.9367 19.8327 14.4887 19.73C14.0501 19.6367 13.7094 19.5293 13.4667 19.408C13.5881 19.0347 13.6767 18.736 13.7327 18.512C13.7981 18.2973 13.8447 18.134 13.8727 18.022C13.9007 17.91 13.9194 17.84 13.9287 17.812C13.9381 17.784 13.9427 17.77 13.9427 17.77C14.1667 17.882 14.4374 17.994 14.7547 18.106C15.0721 18.2273 15.4594 18.288 15.9167 18.288C16.2994 18.288 16.6167 18.2507 16.8687 18.176C17.1207 18.1013 17.3214 17.9893 17.4707 17.84C17.6201 17.7 17.7227 17.5273 17.7787 17.322C17.8441 17.1167 17.8767 16.888 17.8767 16.636V16.09H17.7087C17.5221 16.3607 17.2654 16.552 16.9387 16.664C16.6121 16.776 16.2061 16.832 15.7207 16.832C14.7221 16.832 13.9707 16.5567 13.4667 16.006C12.9721 15.4553 12.7247 14.5687 12.7247 13.346C12.7247 12.058 13.0514 11.0873 13.7047 10.434C14.3674 9.78067 15.3474 9.454 16.6447 9.454C17.3261 9.454 17.9327 9.50067 18.4647 9.594C19.0061 9.678 19.4494 9.776 19.7947 9.888V16.72ZM16.1827 15.306C16.6121 15.306 16.9621 15.2267 17.2327 15.068C17.5127 14.9093 17.7134 14.7133 17.8347 14.48V11.316C17.4894 11.1667 17.0507 11.092 16.5187 11.092C15.9494 11.092 15.5107 11.26 15.2027 11.596C14.8947 11.932 14.7407 12.4873 14.7407 13.262C14.7407 13.9713 14.8714 14.4893 15.1327 14.816C15.3941 15.1427 15.7441 15.306 16.1827 15.306Z" fill="#333333"/>
</svg>
