<svg width="24" height="24" viewBox="0 0 24 24" fill="none" xmlns="http://www.w3.org/2000/svg">
<path d="M10.0864 14.284H6.47438L5.49438 17H4.34638L8.05638 7.046H8.58838L12.3124 17H11.0944L10.0864 14.284ZM6.85238 13.276H9.73638L8.64438 10.294L8.29438 8.81H8.28038L7.93037 10.322L6.85238 13.276ZM18.6861 17.322C18.6861 18.2273 18.4434 18.8947 17.9581 19.324C17.4821 19.7533 16.7728 19.968 15.8301 19.968C15.2701 19.968 14.8174 19.9307 14.4721 19.856C14.1361 19.7907 13.8468 19.702 13.6041 19.59L13.8981 18.638C14.1128 18.722 14.3508 18.8013 14.6121 18.876C14.8734 18.9507 15.2141 18.988 15.6341 18.988C16.0261 18.988 16.3434 18.9507 16.5861 18.876C16.8381 18.8107 17.0388 18.694 17.1881 18.526C17.3374 18.3673 17.4401 18.1573 17.4961 17.896C17.5521 17.644 17.5801 17.3407 17.5801 16.986V16.314H17.5241C17.3374 16.5847 17.0994 16.7947 16.8101 16.944C16.5208 17.084 16.1428 17.154 15.6761 17.154C14.7334 17.154 14.0381 16.86 13.5901 16.272C13.1514 15.684 12.9321 14.7693 12.9321 13.528C12.9321 12.3333 13.2168 11.428 13.7861 10.812C14.3554 10.1867 15.1954 9.874 16.3061 9.874C16.8381 9.874 17.2908 9.916 17.6641 10C18.0468 10.084 18.3874 10.182 18.6861 10.294V17.322ZM15.8721 16.174C16.3481 16.174 16.7214 16.0573 16.9921 15.824C17.2628 15.5813 17.4541 15.208 17.5661 14.704V11.12C17.1928 10.9427 16.7168 10.854 16.1381 10.854C15.5034 10.854 15.0041 11.0687 14.6401 11.498C14.2761 11.9273 14.0941 12.5993 14.0941 13.514C14.0941 13.906 14.1268 14.2653 14.1921 14.592C14.2574 14.9187 14.3601 15.1987 14.5001 15.432C14.6401 15.6653 14.8221 15.8473 15.0461 15.978C15.2701 16.1087 15.5454 16.174 15.8721 16.174Z" fill="#888888"/>
</svg>
