<svg width="24" height="24" viewBox="0 0 24 24" fill="none" xmlns="http://www.w3.org/2000/svg">
<path d="M6.78352 17H3.35352V16.216H4.44552L8.07152 7.2H9.55552L12.8735 16.216H13.9235V17H9.91952V16.216H11.1655L10.2555 13.752H6.53152L5.57952 16.216H6.78352V17ZM6.85352 12.968H10.0175L8.86952 9.734L8.51952 8.25H8.46352L8.05752 9.762L6.85352 12.968ZM21.5093 9.65V10.546H19.8713C20.002 10.6767 20.1233 10.8587 20.2353 11.092C20.3473 11.3253 20.4033 11.6053 20.4033 11.932C20.4033 12.6227 20.1327 13.178 19.5913 13.598C19.05 14.018 18.2707 14.228 17.2533 14.228C17.0667 14.228 16.908 14.228 16.7773 14.228C16.6467 14.2187 16.5067 14.1953 16.3573 14.158C16.3107 14.2513 16.25 14.354 16.1753 14.466C16.11 14.5687 16.0773 14.6807 16.0773 14.802C16.0773 14.998 16.1987 15.1473 16.4413 15.25C16.684 15.3433 16.9873 15.432 17.3513 15.516C17.7153 15.5907 18.112 15.67 18.5413 15.754C18.9707 15.8287 19.3673 15.9453 19.7313 16.104C20.1047 16.2533 20.4127 16.454 20.6553 16.706C20.898 16.958 21.0193 17.2893 21.0193 17.7C21.0193 18.0547 20.926 18.3627 20.7393 18.624C20.562 18.8947 20.3053 19.114 19.9693 19.282C19.6427 19.4593 19.2507 19.59 18.7933 19.674C18.336 19.758 17.8367 19.8 17.2953 19.8C16.1287 19.8 15.256 19.646 14.6773 19.338C14.0987 19.03 13.8093 18.6053 13.8093 18.064C13.8093 17.5413 13.9867 17.14 14.3413 16.86C14.696 16.58 15.1953 16.3467 15.8393 16.16C15.5967 16.0573 15.4007 15.9453 15.2513 15.824C15.102 15.7027 15.0273 15.5207 15.0273 15.278C15.0273 15.166 15.0553 15.054 15.1113 14.942C15.1673 14.8207 15.242 14.7087 15.3353 14.606C15.4287 14.494 15.5313 14.396 15.6433 14.312C15.7553 14.2187 15.8627 14.144 15.9653 14.088C15.368 13.9293 14.906 13.6587 14.5793 13.276C14.262 12.8933 14.1033 12.436 14.1033 11.904C14.1033 11.2227 14.3693 10.6767 14.9013 10.266C15.4333 9.85533 16.2173 9.65 17.2533 9.65H21.5093ZM19.5493 18.036C19.5493 17.728 19.4373 17.4807 19.2133 17.294C18.9987 17.1167 18.7233 16.972 18.3873 16.86C18.0607 16.7387 17.706 16.6407 17.3233 16.566C16.9407 16.4913 16.5813 16.4027 16.2453 16.3C15.8533 16.5333 15.592 16.7667 15.4613 17C15.34 17.2427 15.2793 17.4993 15.2793 17.77C15.2793 18.162 15.4753 18.4887 15.8673 18.75C16.2593 19.0113 16.8287 19.142 17.5753 19.142C17.958 19.142 18.2753 19.1093 18.5273 19.044C18.7793 18.988 18.98 18.9087 19.1293 18.806C19.288 18.7033 19.3953 18.5867 19.4513 18.456C19.5167 18.3253 19.5493 18.1853 19.5493 18.036ZM15.5733 11.904C15.5733 12.1467 15.6013 12.3707 15.6573 12.576C15.7133 12.7813 15.802 12.9587 15.9233 13.108C16.054 13.248 16.2267 13.36 16.4413 13.444C16.656 13.528 16.9267 13.57 17.2533 13.57C17.8507 13.57 18.28 13.4207 18.5413 13.122C18.8027 12.814 18.9333 12.408 18.9333 11.904C18.9333 11.708 18.924 11.5447 18.9053 11.414C18.896 11.2833 18.8773 11.1667 18.8493 11.064C18.8307 10.9613 18.8073 10.8727 18.7793 10.798C18.7513 10.714 18.7233 10.63 18.6953 10.546C18.4807 10.4527 18.252 10.392 18.0093 10.364C17.7667 10.3267 17.5147 10.308 17.2533 10.308C16.6187 10.308 16.18 10.4387 15.9373 10.7C15.6947 10.9613 15.5733 11.3627 15.5733 11.904Z" fill="#888888"/>
</svg>
