<svg width="24" height="24" viewBox="0 0 24 24" fill="none" xmlns="http://www.w3.org/2000/svg">
<path d="M3.28631 17L8.21431 6.878H9.62831L11.6233 17H10.3423L9.81031 14.228H5.91831L4.56731 17H3.28631ZM6.40831 13.038H9.64931L8.74631 8.159L6.40831 13.038ZM15.6839 19.394C14.5825 19.394 13.7472 19.2237 13.1779 18.883C12.6132 18.5423 12.3705 18.0593 12.4499 17.434C12.4872 17.182 12.5735 16.9673 12.7089 16.79C12.8489 16.608 13.0052 16.4587 13.1779 16.342C13.3505 16.2207 13.5092 16.125 13.6539 16.055C13.8032 15.985 13.9035 15.9313 13.9549 15.894C13.8895 15.8473 13.8055 15.789 13.7029 15.719C13.6002 15.649 13.5115 15.5533 13.4369 15.432C13.3669 15.306 13.3459 15.145 13.3739 14.949C13.4019 14.7343 13.5255 14.536 13.7449 14.354C13.9689 14.172 14.2979 14.032 14.7319 13.934C14.3632 13.724 14.0879 13.437 13.9059 13.073C13.7239 12.709 13.6609 12.3147 13.7169 11.89C13.7775 11.442 13.9432 11.05 14.2139 10.714C14.4892 10.378 14.8579 10.1167 15.3199 9.93C15.7865 9.74333 16.3419 9.65 16.9859 9.65C17.4479 9.65 17.8235 9.706 18.1129 9.818C18.4022 9.93 18.6589 10.084 18.8829 10.28C18.9669 10.2427 19.0929 10.1913 19.2609 10.126C19.4289 10.056 19.6109 9.98133 19.8069 9.902C20.0029 9.82267 20.1872 9.748 20.3599 9.678C20.5372 9.60333 20.6772 9.545 20.7799 9.503L20.6329 10.714L19.3799 10.98C19.4919 11.3067 19.5269 11.6427 19.4849 11.988C19.4289 12.4033 19.2725 12.7813 19.0159 13.122C18.7592 13.4627 18.4069 13.7333 17.9589 13.934C17.5155 14.13 16.9742 14.228 16.3349 14.228C16.2695 14.228 16.1949 14.2257 16.1109 14.221C16.0269 14.2163 15.9615 14.214 15.9149 14.214C15.4389 14.2187 15.1052 14.2653 14.9139 14.354C14.7225 14.4427 14.6199 14.5453 14.6059 14.662C14.6012 14.802 14.6922 14.9023 14.8789 14.963C15.0655 15.0237 15.3782 15.0727 15.8169 15.11C15.9942 15.124 16.2089 15.138 16.4609 15.152C16.7175 15.166 16.9952 15.1847 17.2939 15.208C18.0265 15.25 18.5702 15.4483 18.9249 15.803C19.2795 16.153 19.4149 16.622 19.3309 17.21C19.2469 17.854 18.9015 18.379 18.2949 18.785C17.6882 19.191 16.8179 19.394 15.6839 19.394ZM15.9289 18.561C16.5729 18.561 17.0792 18.4537 17.4479 18.239C17.8212 18.029 18.0335 17.7163 18.0849 17.301C18.1222 17.0257 18.0522 16.7993 17.8749 16.622C17.6975 16.4447 17.4035 16.342 16.9929 16.314L15.0959 16.188C14.9232 16.1787 14.7342 16.2253 14.5289 16.328C14.3282 16.426 14.1485 16.566 13.9899 16.748C13.8359 16.93 13.7425 17.1377 13.7099 17.371C13.6632 17.7443 13.8172 18.036 14.1719 18.246C14.5312 18.456 15.1169 18.561 15.9289 18.561ZM16.4049 13.395C16.9042 13.395 17.3242 13.269 17.6649 13.017C18.0102 12.7603 18.2155 12.3893 18.2809 11.904C18.3462 11.428 18.2482 11.0663 17.9869 10.819C17.7302 10.5717 17.3615 10.448 16.8809 10.448C16.3722 10.448 15.9429 10.5833 15.5929 10.854C15.2475 11.1247 15.0399 11.5097 14.9699 12.009C14.9092 12.4523 15.0025 12.7953 15.2499 13.038C15.5019 13.276 15.8869 13.395 16.4049 13.395Z" fill="#888888"/>
</svg>
