<svg width="24" height="24" viewBox="0 0 24 24" fill="none" xmlns="http://www.w3.org/2000/svg">
<path d="M2.46923 17L7.44623 6.878H9.24523L11.2472 17H9.57423L9.09123 14.459H5.40223L4.15623 17H2.46923ZM6.01123 12.947H8.89523L8.11123 8.537L6.01123 12.947ZM15.3439 19.394C14.1445 19.394 13.2439 19.2213 12.6419 18.876C12.0445 18.5307 11.7855 18.064 11.8649 17.476C11.8975 17.2333 11.9839 17.0303 12.1239 16.867C12.2685 16.699 12.4295 16.5613 12.6069 16.454C12.7842 16.3467 12.9475 16.2627 13.0969 16.202C13.2462 16.1413 13.3465 16.097 13.3979 16.069C13.3372 16.027 13.2485 15.9663 13.1319 15.887C13.0152 15.8077 12.9125 15.698 12.8239 15.558C12.7352 15.418 12.7072 15.2383 12.7399 15.019C12.7679 14.795 12.9032 14.5873 13.1459 14.396C13.3885 14.2 13.7502 14.0553 14.2309 13.962C13.8342 13.7427 13.5402 13.444 13.3489 13.066C13.1622 12.6833 13.0969 12.2773 13.1529 11.848C13.2135 11.4093 13.3885 11.0243 13.6779 10.693C13.9719 10.3617 14.3639 10.105 14.8539 9.923C15.3485 9.741 15.9272 9.65 16.5899 9.65C17.0752 9.65 17.4649 9.706 17.7589 9.818C18.0529 9.93 18.3119 10.0747 18.5359 10.252C18.6432 10.21 18.7855 10.154 18.9629 10.084C19.1402 10.0093 19.3315 9.93233 19.5369 9.853C19.7422 9.769 19.9405 9.68967 20.1319 9.615C20.3279 9.53567 20.4912 9.47033 20.6219 9.419L20.4539 10.84L19.1939 11.099C19.2825 11.407 19.3082 11.708 19.2709 12.002C19.2149 12.4127 19.0515 12.7907 18.7809 13.136C18.5102 13.4767 18.1392 13.752 17.6679 13.962C17.1965 14.1673 16.6272 14.27 15.9599 14.27C15.8712 14.27 15.7662 14.2677 15.6449 14.263C15.5282 14.2583 15.4419 14.2537 15.3859 14.249C15.0172 14.2537 14.7559 14.2863 14.6019 14.347C14.4479 14.403 14.3685 14.4823 14.3639 14.585C14.3639 14.7157 14.4572 14.809 14.6439 14.865C14.8305 14.921 15.1175 14.9653 15.5049 14.998C15.6775 15.012 15.8899 15.026 16.1419 15.04C16.3985 15.0493 16.6739 15.0657 16.9679 15.089C17.7845 15.1403 18.3795 15.355 18.7529 15.733C19.1262 16.1063 19.2732 16.5893 19.1939 17.182C19.1052 17.8307 18.7412 18.3603 18.1019 18.771C17.4625 19.1863 16.5432 19.394 15.3439 19.394ZM15.6309 18.393C16.2329 18.393 16.6925 18.2997 17.0099 18.113C17.3272 17.931 17.5092 17.665 17.5559 17.315C17.5839 17.0863 17.5162 16.8997 17.3529 16.755C17.1942 16.6103 16.9259 16.5263 16.5479 16.503L14.8189 16.384C14.6275 16.3747 14.4362 16.4143 14.2449 16.503C14.0535 16.5917 13.8925 16.7153 13.7619 16.874C13.6312 17.0327 13.5519 17.21 13.5239 17.406C13.4819 17.728 13.6289 17.973 13.9649 18.141C14.3055 18.309 14.8609 18.393 15.6309 18.393ZM16.0159 13.269C16.4592 13.269 16.8325 13.1477 17.1359 12.905C17.4439 12.6623 17.6259 12.324 17.6819 11.89C17.7425 11.484 17.6632 11.169 17.4439 10.945C17.2292 10.7163 16.9189 10.602 16.5129 10.602C16.0649 10.602 15.6845 10.7327 15.3719 10.994C15.0592 11.2507 14.8725 11.603 14.8119 12.051C14.7605 12.4337 14.8399 12.7323 15.0499 12.947C15.2599 13.1617 15.5819 13.269 16.0159 13.269Z" fill="#888888"/>
</svg>
