<svg width="24" height="24" viewBox="0 0 24 24" fill="none" xmlns="http://www.w3.org/2000/svg">
<path d="M2.1697 17L7.2797 6.878H10.0377L12.0677 17H9.3937L9.0297 15.04H5.8517L4.8717 17H2.1697ZM6.7757 12.716H8.7637L8.2737 9.482L6.7757 12.716ZM16.2683 19.394C14.8076 19.394 13.7389 19.2143 13.0623 18.855C12.3856 18.5003 12.0822 18.0733 12.1522 17.574C12.1849 17.3593 12.2759 17.1843 12.4253 17.049C12.5746 16.9137 12.7426 16.8087 12.9293 16.734C13.1206 16.6593 13.2933 16.6033 13.4473 16.566C13.6059 16.5287 13.7063 16.503 13.7483 16.489C13.7016 16.461 13.6013 16.4003 13.4473 16.307C13.2979 16.2137 13.1603 16.076 13.0343 15.894C12.9129 15.7073 12.8733 15.4693 12.9153 15.18C12.9526 14.9327 13.1136 14.6993 13.3983 14.48C13.6829 14.2607 14.1286 14.1067 14.7353 14.018C14.2733 13.794 13.9373 13.4673 13.7273 13.038C13.5173 12.604 13.4426 12.1747 13.5033 11.75C13.5639 11.33 13.7646 10.9637 14.1053 10.651C14.4506 10.3337 14.9009 10.0887 15.4563 9.916C16.0163 9.73867 16.6509 9.65 17.3603 9.65C17.9109 9.65 18.3379 9.706 18.6413 9.818C18.9446 9.93 19.2059 10.049 19.4253 10.175C19.5839 10.1143 19.7659 10.0467 19.9713 9.972C20.1813 9.89267 20.4006 9.811 20.6293 9.727C20.8626 9.63833 21.0959 9.54967 21.3293 9.461C21.5626 9.37233 21.7843 9.286 21.9943 9.202L21.7703 11.162L20.4823 11.407C20.5149 11.6543 20.5196 11.8667 20.4963 12.044C20.4403 12.4267 20.2583 12.7977 19.9503 13.157C19.6469 13.5163 19.2269 13.8103 18.6903 14.039C18.1583 14.2677 17.5189 14.382 16.7722 14.382C16.6276 14.382 16.4526 14.3773 16.2473 14.368C16.0466 14.3587 15.9019 14.3517 15.8133 14.347C15.7106 14.3377 15.6289 14.3283 15.5683 14.319C15.5123 14.305 15.4889 14.3237 15.4983 14.375C15.5216 14.487 15.6266 14.5663 15.8133 14.613C16.0046 14.655 16.2263 14.6877 16.4783 14.711C16.6369 14.725 16.8469 14.739 17.1083 14.753C17.3696 14.7623 17.6356 14.7787 17.9063 14.802C18.9329 14.8673 19.6586 15.1193 20.0833 15.558C20.5079 15.9967 20.6783 16.5147 20.5943 17.112C20.5009 17.7747 20.0903 18.3207 19.3623 18.75C18.6389 19.1793 17.6076 19.394 16.2683 19.394ZM16.6393 17.966C17.1479 17.966 17.4933 17.9077 17.6753 17.791C17.8573 17.679 17.9599 17.5367 17.9833 17.364C17.9973 17.2473 17.9389 17.1563 17.8083 17.091C17.6823 17.0257 17.4816 16.9837 17.2063 16.965L15.8973 16.881C15.6453 16.867 15.4399 16.8903 15.2813 16.951C15.1273 17.0117 15.0129 17.091 14.9383 17.189C14.8636 17.287 14.8193 17.3897 14.8053 17.497C14.7773 17.6883 14.9103 17.8143 15.2043 17.875C15.4983 17.9357 15.9766 17.966 16.6393 17.966ZM16.8073 12.954C17.0966 12.954 17.3486 12.849 17.5633 12.639C17.7826 12.4243 17.9133 12.1607 17.9553 11.848C17.9926 11.6147 17.9553 11.4117 17.8433 11.239C17.7359 11.0663 17.5679 10.98 17.3393 10.98C17.0499 10.98 16.7956 11.099 16.5763 11.337C16.3569 11.5703 16.2239 11.8433 16.1773 12.156C16.1446 12.3893 16.1843 12.5807 16.2963 12.73C16.4083 12.8793 16.5786 12.954 16.8073 12.954Z" fill="#888888"/>
</svg>
