<svg width="24" height="24" viewBox="0 0 24 24" fill="none" xmlns="http://www.w3.org/2000/svg">
<path d="M3.36529 17L8.19529 6.878H8.90929L10.8833 17H10.3303L9.71429 13.808H5.44429L3.90429 17H3.36529ZM5.71029 13.206H9.60929L8.48929 7.466L5.71029 13.206ZM14.8777 19.394C13.9677 19.394 13.256 19.2283 12.7427 18.897C12.234 18.5657 12.024 18.0547 12.1127 17.364C12.15 17.0887 12.234 16.8507 12.3647 16.65C12.4953 16.4493 12.6423 16.279 12.8057 16.139C12.9737 15.9943 13.1277 15.8777 13.2677 15.789C13.4123 15.7003 13.5127 15.6327 13.5687 15.586C13.494 15.53 13.417 15.4717 13.3377 15.411C13.263 15.3503 13.2023 15.2757 13.1557 15.187C13.109 15.0937 13.095 14.9747 13.1137 14.83C13.137 14.634 13.2443 14.4543 13.4357 14.291C13.627 14.1277 13.893 13.9947 14.2337 13.892C13.9117 13.6867 13.6667 13.4207 13.4987 13.094C13.3307 12.7673 13.2747 12.3893 13.3307 11.96C13.3913 11.498 13.5383 11.0943 13.7717 10.749C14.0097 10.399 14.3363 10.1283 14.7517 9.937C15.1717 9.74567 15.685 9.65 16.2917 9.65C16.707 9.65 17.0547 9.706 17.3347 9.818C17.6193 9.93 17.876 10.1027 18.1047 10.336C18.1513 10.3127 18.247 10.2707 18.3917 10.21C18.5363 10.1447 18.6973 10.0747 18.8747 10C19.052 9.92067 19.213 9.85067 19.3577 9.79C19.507 9.72467 19.6027 9.68267 19.6447 9.664L19.5397 10.476L18.3077 10.756C18.457 11.1247 18.506 11.526 18.4547 11.96C18.3987 12.394 18.2563 12.7767 18.0277 13.108C17.799 13.4347 17.484 13.689 17.0827 13.871C16.6813 14.053 16.1913 14.144 15.6127 14.144C15.5893 14.144 15.566 14.144 15.5427 14.144C15.5193 14.144 15.496 14.144 15.4727 14.144C14.8007 14.158 14.334 14.235 14.0727 14.375C13.8113 14.515 13.669 14.662 13.6457 14.816C13.627 14.97 13.7087 15.082 13.8907 15.152C14.0773 15.222 14.4367 15.278 14.9687 15.32C15.16 15.334 15.3793 15.348 15.6267 15.362C15.8787 15.376 16.161 15.3947 16.4737 15.418C17.0523 15.4507 17.5003 15.621 17.8177 15.929C18.135 16.2323 18.254 16.678 18.1747 17.266C18.0907 17.9007 17.778 18.414 17.2367 18.806C16.6953 19.198 15.909 19.394 14.8777 19.394ZM15.0597 18.876C15.7737 18.876 16.364 18.743 16.8307 18.477C17.302 18.2157 17.5727 17.812 17.6427 17.266C17.6893 16.9067 17.6123 16.6103 17.4117 16.377C17.211 16.1437 16.868 16.0107 16.3827 15.978L14.1777 15.824C14.047 15.8147 13.8673 15.873 13.6387 15.999C13.41 16.1203 13.1977 16.2953 13.0017 16.524C12.8057 16.748 12.6867 17.0093 12.6447 17.308C12.584 17.7747 12.7497 18.1527 13.1417 18.442C13.5337 18.7313 14.173 18.876 15.0597 18.876ZM15.6967 13.626C16.308 13.626 16.8167 13.4883 17.2227 13.213C17.6333 12.9377 17.876 12.5107 17.9507 11.932C18.03 11.33 17.9017 10.8867 17.5657 10.602C17.2297 10.3127 16.756 10.168 16.1447 10.168C15.524 10.168 15.0037 10.3127 14.5837 10.602C14.1683 10.8913 13.921 11.3347 13.8417 11.932C13.767 12.4827 13.8907 12.9027 14.2127 13.192C14.5347 13.4813 15.0293 13.626 15.6967 13.626Z" fill="#888888"/>
</svg>
