<svg width="24" height="24" viewBox="0 0 24 24" fill="none" xmlns="http://www.w3.org/2000/svg">
<path d="M2.87983 17L6.54083 6.878H8.00383L11.6648 17H10.3418L9.34783 14.228H5.21083L4.19583 17H2.87983ZM5.53983 13.038H9.00483L7.28283 8.159L5.53983 13.038ZM16.1289 19.394C14.9949 19.394 14.1105 19.2283 13.4759 18.897C12.8412 18.5703 12.5239 18.1013 12.5239 17.49C12.5239 17.2287 12.5845 17.007 12.7059 16.825C12.8272 16.6383 12.9719 16.4843 13.1399 16.363C13.3079 16.2417 13.4642 16.146 13.6089 16.076C13.7535 16.0013 13.8469 15.9477 13.8889 15.915C13.8095 15.8683 13.7092 15.81 13.5879 15.74C13.4712 15.67 13.3685 15.5767 13.2799 15.46C13.1912 15.3433 13.1469 15.1917 13.1469 15.005C13.1469 14.7763 13.2519 14.5687 13.4619 14.382C13.6765 14.1907 13.9962 14.046 14.4209 13.948C13.9962 13.738 13.6649 13.4557 13.4269 13.101C13.1889 12.7417 13.0699 12.3543 13.0699 11.939C13.0699 11.2343 13.3499 10.6767 13.9099 10.266C14.4699 9.85533 15.2399 9.65 16.2199 9.65C16.6912 9.65 17.0879 9.706 17.4099 9.818C17.7319 9.92533 18.0305 10.0793 18.3059 10.28C18.4085 10.238 18.5812 10.1657 18.8239 10.063C19.0665 9.96033 19.3139 9.85767 19.5659 9.755C19.8225 9.64767 20.0185 9.56833 20.1539 9.517L20.1469 10.714L18.8799 10.952C19.0385 11.2787 19.1179 11.6077 19.1179 11.939C19.1179 12.5783 18.8659 13.1197 18.3619 13.563C17.8625 14.0063 17.1089 14.228 16.1009 14.228C16.0449 14.228 15.9725 14.228 15.8839 14.228C15.7999 14.2233 15.7275 14.2187 15.6669 14.214C15.1675 14.228 14.8245 14.284 14.6379 14.382C14.4559 14.48 14.3649 14.585 14.3649 14.697C14.3649 14.8323 14.4699 14.9257 14.6799 14.977C14.8899 15.0283 15.2469 15.0727 15.7509 15.11C15.9329 15.1193 16.1569 15.1333 16.4229 15.152C16.6889 15.166 16.9875 15.1823 17.3189 15.201C18.0795 15.2477 18.6652 15.4413 19.0759 15.782C19.4865 16.1227 19.6919 16.5823 19.6919 17.161C19.6919 17.819 19.3979 18.3557 18.8099 18.771C18.2219 19.1863 17.3282 19.394 16.1289 19.394ZM16.1359 13.395C16.6585 13.395 17.0785 13.2737 17.3959 13.031C17.7179 12.7883 17.8789 12.429 17.8789 11.953C17.8789 11.4677 17.7179 11.0967 17.3959 10.84C17.0785 10.5787 16.6585 10.448 16.1359 10.448C15.6085 10.448 15.1815 10.5787 14.8549 10.84C14.5329 11.0967 14.3719 11.4677 14.3719 11.953C14.3719 12.4103 14.5259 12.765 14.8339 13.017C15.1419 13.269 15.5759 13.395 16.1359 13.395ZM16.3599 18.561C17.0272 18.561 17.5382 18.4607 17.8929 18.26C18.2475 18.0593 18.4249 17.756 18.4249 17.35C18.4249 17.0653 18.3152 16.8297 18.0959 16.643C17.8812 16.4563 17.5522 16.349 17.1089 16.321L15.0789 16.188C14.8969 16.1787 14.7079 16.2253 14.5119 16.328C14.3159 16.426 14.1479 16.5637 14.0079 16.741C13.8725 16.9183 13.8049 17.119 13.8049 17.343C13.8049 17.7303 14.0125 18.029 14.4279 18.239C14.8432 18.4537 15.4872 18.561 16.3599 18.561Z" fill="#333333"/>
</svg>
