<svg width="24" height="24" viewBox="0 0 24 24" fill="none" xmlns="http://www.w3.org/2000/svg">
<path d="M2.76914 17L6.42314 6.878H8.07514L11.7221 17H10.2101L9.25814 14.347H5.26114L4.28814 17H2.76914ZM5.61814 12.989H8.87314L7.25614 8.348L5.61814 12.989ZM16.1842 19.394C15.0082 19.394 14.0982 19.2283 13.4542 18.897C12.8102 18.5703 12.4882 18.113 12.4882 17.525C12.4882 17.2683 12.5489 17.0513 12.6702 16.874C12.7962 16.692 12.9432 16.5427 13.1112 16.426C13.2839 16.3093 13.4425 16.2183 13.5872 16.153C13.7319 16.083 13.8252 16.034 13.8672 16.006C13.7879 15.9593 13.6852 15.901 13.5592 15.831C13.4379 15.7563 13.3282 15.6583 13.2302 15.537C13.1322 15.411 13.0832 15.2477 13.0832 15.047C13.0832 14.8137 13.1929 14.599 13.4122 14.403C13.6362 14.2023 13.9699 14.0553 14.4132 13.962C13.9745 13.7473 13.6339 13.458 13.3912 13.094C13.1532 12.73 13.0342 12.3427 13.0342 11.932C13.0342 11.4607 13.1672 11.0547 13.4332 10.714C13.6992 10.3687 14.0725 10.105 14.5532 9.923C15.0385 9.741 15.6079 9.65 16.2612 9.65C16.7372 9.65 17.1362 9.70367 17.4582 9.811C17.7802 9.91833 18.0765 10.0677 18.3472 10.259C18.4359 10.2263 18.5619 10.1773 18.7252 10.112C18.8885 10.042 19.0682 9.96733 19.2642 9.888C19.4649 9.80867 19.6539 9.73167 19.8312 9.657C20.0132 9.58233 20.1602 9.52167 20.2722 9.475L20.2652 10.777L19.0052 11.008C19.0705 11.148 19.1219 11.302 19.1592 11.47C19.2012 11.638 19.2222 11.792 19.2222 11.932C19.2222 12.352 19.1079 12.7393 18.8792 13.094C18.6505 13.444 18.3075 13.724 17.8502 13.934C17.3929 14.144 16.8212 14.249 16.1352 14.249C16.0699 14.249 15.9859 14.249 15.8832 14.249C15.7805 14.2443 15.6942 14.2373 15.6242 14.228C15.1902 14.242 14.8915 14.2933 14.7282 14.382C14.5649 14.466 14.4832 14.5593 14.4832 14.662C14.4832 14.7927 14.5882 14.8813 14.7982 14.928C15.0082 14.9747 15.3535 15.0143 15.8342 15.047C16.0069 15.061 16.2262 15.075 16.4922 15.089C16.7629 15.103 17.0615 15.1217 17.3882 15.145C18.1815 15.1917 18.7859 15.39 19.2012 15.74C19.6212 16.09 19.8312 16.5543 19.8312 17.133C19.8312 17.7957 19.5302 18.337 18.9282 18.757C18.3262 19.1817 17.4115 19.394 16.1842 19.394ZM16.4432 18.477C17.0825 18.477 17.5632 18.3837 17.8852 18.197C18.2119 18.015 18.3752 17.742 18.3752 17.378C18.3752 17.1073 18.2702 16.8857 18.0602 16.713C17.8502 16.5403 17.5375 16.44 17.1222 16.412L15.1902 16.286C14.9989 16.2767 14.8075 16.3187 14.6162 16.412C14.4295 16.5053 14.2732 16.636 14.1472 16.804C14.0259 16.9673 13.9652 17.1493 13.9652 17.35C13.9652 17.714 14.1659 17.9917 14.5672 18.183C14.9732 18.379 15.5985 18.477 16.4432 18.477ZM16.1772 13.332C16.6625 13.332 17.0522 13.2153 17.3462 12.982C17.6449 12.744 17.7942 12.4033 17.7942 11.96C17.7942 11.5027 17.6449 11.1503 17.3462 10.903C17.0522 10.651 16.6625 10.525 16.1772 10.525C15.6872 10.525 15.2905 10.651 14.9872 10.903C14.6885 11.155 14.5392 11.5073 14.5392 11.96C14.5392 12.3893 14.6815 12.7253 14.9662 12.968C15.2555 13.2107 15.6592 13.332 16.1772 13.332Z" fill="#888888"/>
</svg>
