<svg width="24" height="24" viewBox="0 0 24 24" fill="none" xmlns="http://www.w3.org/2000/svg">
<path d="M2.33323 17L5.93123 6.878H8.40223L12.0072 17H9.64123L8.89223 14.844H5.47623L4.71323 17H2.33323ZM5.99423 12.793H8.34623L7.17723 9.167L5.99423 12.793ZM16.4127 19.394C15.0547 19.394 14.0327 19.2307 13.3467 18.904C12.6654 18.5773 12.3247 18.1667 12.3247 17.672C12.3247 17.4293 12.3901 17.2287 12.5207 17.07C12.6514 16.9113 12.8054 16.7853 12.9827 16.692C13.1647 16.5987 13.3281 16.531 13.4727 16.489C13.6221 16.4423 13.7131 16.412 13.7457 16.398C13.6757 16.3607 13.5637 16.3 13.4097 16.216C13.2557 16.132 13.1134 16.013 12.9827 15.859C12.8567 15.705 12.7937 15.5043 12.7937 15.257C12.7937 14.9817 12.9221 14.7297 13.1787 14.501C13.4354 14.2723 13.8297 14.116 14.3617 14.032C13.8624 13.808 13.4867 13.4977 13.2347 13.101C12.9827 12.6997 12.8567 12.303 12.8567 11.911C12.8567 11.4303 13.0154 11.022 13.3327 10.686C13.6547 10.35 14.0841 10.0933 14.6207 9.916C15.1574 9.73867 15.7547 9.65 16.4127 9.65C16.9214 9.65 17.3344 9.70367 17.6517 9.811C17.9691 9.91367 18.2631 10.042 18.5337 10.196C18.6971 10.1307 18.9094 10.0467 19.1707 9.944C19.4367 9.84133 19.7121 9.734 19.9967 9.622C20.2861 9.50533 20.5497 9.398 20.7877 9.3L20.7737 11.057L19.5347 11.239C19.5721 11.3557 19.6001 11.4793 19.6187 11.61C19.6421 11.736 19.6537 11.834 19.6537 11.904C19.6537 12.3147 19.5254 12.7067 19.2687 13.08C19.0121 13.4533 18.6317 13.759 18.1277 13.997C17.6237 14.2303 17.0007 14.347 16.2587 14.347C16.1607 14.347 16.0207 14.3447 15.8387 14.34C15.6614 14.3307 15.5214 14.3213 15.4187 14.312C15.2461 14.326 15.1247 14.3517 15.0547 14.389C14.9894 14.4217 14.9567 14.466 14.9567 14.522C14.9567 14.6293 15.0617 14.697 15.2717 14.725C15.4817 14.753 15.7827 14.7787 16.1747 14.802C16.3147 14.8067 16.5154 14.8183 16.7767 14.837C17.0427 14.851 17.3321 14.8673 17.6447 14.886C18.5874 14.9513 19.2827 15.18 19.7307 15.572C20.1834 15.964 20.4097 16.4423 20.4097 17.007C20.4097 17.6977 20.0761 18.267 19.4087 18.715C18.7414 19.1677 17.7427 19.394 16.4127 19.394ZM16.3287 13.059C16.6507 13.059 16.9097 12.961 17.1057 12.765C17.3064 12.569 17.4067 12.31 17.4067 11.988C17.4067 11.666 17.3064 11.3977 17.1057 11.183C16.9097 10.9637 16.6507 10.854 16.3287 10.854C16.0067 10.854 15.7454 10.9637 15.5447 11.183C15.3487 11.3977 15.2507 11.666 15.2507 11.988C15.2507 12.3053 15.3464 12.5643 15.5377 12.765C15.7337 12.961 15.9974 13.059 16.3287 13.059ZM16.7907 18.106C17.3087 18.106 17.6634 18.05 17.8547 17.938C18.0461 17.8307 18.1417 17.6767 18.1417 17.476C18.1417 17.084 17.8104 16.8647 17.1477 16.818L15.6637 16.72C15.3091 16.7013 15.0501 16.7667 14.8867 16.916C14.7234 17.0607 14.6417 17.2193 14.6417 17.392C14.6417 17.658 14.8144 17.8423 15.1597 17.945C15.5097 18.0523 16.0534 18.106 16.7907 18.106Z" fill="#333333"/>
</svg>
