<svg width="24" height="24" viewBox="0 0 24 24" fill="none" xmlns="http://www.w3.org/2000/svg">
<path d="M2.97668 17L6.65868 6.878H7.93268L11.6007 17H10.4737L9.43768 14.116H5.16068L4.09668 17H2.97668ZM5.45468 13.08H9.12268L7.30268 7.97L5.45468 13.08ZM16.0804 19.394C14.9837 19.394 14.1227 19.2283 13.4974 18.897C12.8767 18.5703 12.5664 18.0897 12.5664 17.455C12.5664 17.1937 12.6247 16.9673 12.7414 16.776C12.8627 16.5847 13.005 16.426 13.1684 16.3C13.3364 16.174 13.4927 16.0737 13.6374 15.999C13.782 15.9197 13.8777 15.8613 13.9244 15.824C13.7984 15.7493 13.649 15.6513 13.4764 15.53C13.3037 15.4087 13.2174 15.2173 13.2174 14.956C13.2174 14.7367 13.32 14.536 13.5254 14.354C13.7307 14.172 14.0364 14.032 14.4424 13.934C14.027 13.724 13.7027 13.4463 13.4694 13.101C13.236 12.751 13.1194 12.366 13.1194 11.946C13.1194 11.246 13.3854 10.6883 13.9174 10.273C14.454 9.85767 15.2124 9.65 16.1924 9.65C16.6544 9.65 17.0464 9.706 17.3684 9.818C17.6904 9.92533 17.989 10.084 18.2644 10.294C18.3344 10.266 18.4487 10.2193 18.6074 10.154C18.766 10.084 18.9387 10.0093 19.1254 9.93C19.3167 9.85067 19.494 9.77833 19.6574 9.713C19.8254 9.643 19.9514 9.58933 20.0354 9.552V10.644L18.7614 10.896C18.934 11.2413 19.0204 11.589 19.0204 11.939C19.0204 12.5877 18.7754 13.1267 18.2854 13.556C17.8 13.9853 17.0627 14.2 16.0734 14.2C16.0267 14.2 15.9684 14.2 15.8984 14.2C15.8284 14.2 15.7677 14.1977 15.7164 14.193C15.1564 14.207 14.7737 14.27 14.5684 14.382C14.363 14.4893 14.2604 14.6037 14.2604 14.725C14.2604 14.865 14.3654 14.9653 14.5754 15.026C14.7854 15.082 15.1517 15.1287 15.6744 15.166C15.8657 15.18 16.0944 15.194 16.3604 15.208C16.6264 15.222 16.9274 15.2383 17.2634 15.257C17.9867 15.3037 18.549 15.4927 18.9504 15.824C19.3564 16.1507 19.5594 16.6057 19.5594 17.189C19.5594 17.8423 19.2724 18.372 18.6984 18.778C18.129 19.1887 17.2564 19.394 16.0804 19.394ZM16.1084 13.458C16.6637 13.458 17.1117 13.332 17.4524 13.08C17.7977 12.828 17.9704 12.45 17.9704 11.946C17.9704 11.428 17.7977 11.036 17.4524 10.77C17.1117 10.504 16.6637 10.371 16.1084 10.371C15.539 10.371 15.0794 10.5063 14.7294 10.777C14.384 11.043 14.2114 11.4327 14.2114 11.946C14.2114 12.4313 14.3747 12.8047 14.7014 13.066C15.0327 13.3273 15.5017 13.458 16.1084 13.458ZM16.2834 18.645C16.9787 18.645 17.52 18.5353 17.9074 18.316C18.2947 18.1013 18.4884 17.7723 18.4884 17.329C18.4884 17.021 18.374 16.769 18.1454 16.573C17.9167 16.3723 17.5714 16.2557 17.1094 16.223L14.9744 16.09C14.8017 16.0807 14.6127 16.1297 14.4074 16.237C14.202 16.3397 14.0247 16.4867 13.8754 16.678C13.7307 16.8693 13.6584 17.0863 13.6584 17.329C13.6584 17.7397 13.8707 18.0617 14.2954 18.295C14.7247 18.5283 15.3874 18.645 16.2834 18.645Z" fill="#333333"/>
</svg>
