<svg width="24" height="24" viewBox="0 0 24 24" fill="none" xmlns="http://www.w3.org/2000/svg">
<g clip-path="url(#clip0_260_2050)">
<path d="M8.26063 14.7778H11.0814V11.6044V7.02074C10.7288 7.6319 10.2234 8.01975 9.56522 8.1843C8.93055 8.34884 8.26063 8.43111 7.55544 8.43111C6.59169 8.43111 5.75722 8.73669 5.05203 9.34785C4.37035 9.95901 4.02951 10.7112 4.02951 11.6044C4.02951 12.6622 4.37035 13.4614 5.05203 14.0021C5.75722 14.5192 6.59169 14.7778 7.55544 14.7778C7.81401 14.7778 8.04907 14.766 8.26063 14.7425V14.7778ZM7.55544 12.3096C7.36739 12.3096 7.20285 12.2391 7.06181 12.0981C6.92077 11.957 6.85025 11.7925 6.85025 11.6044C6.85025 11.4164 6.92077 11.2519 7.06181 11.1108C7.20285 10.9698 7.36739 10.8993 7.55544 10.8993C7.74349 10.8993 7.90803 10.9698 8.04907 11.1108C8.19011 11.2519 8.26063 11.4164 8.26063 11.6044C8.26063 11.7925 8.19011 11.957 8.04907 12.0981C7.90803 12.2391 7.74349 12.3096 7.55544 12.3096ZM10.737 23.5926H18.212C18.6116 23.5926 18.9289 23.4633 19.164 23.2047C19.4226 22.9697 19.5519 22.6288 19.5519 22.1822V11.6044V7.02074C19.1993 7.6319 18.6939 8.01975 18.0357 8.1843C17.401 8.34884 16.7311 8.43111 16.0259 8.43111C15.0622 8.43111 14.2277 8.73669 13.5225 9.34785C12.8408 9.95901 12.5 10.7112 12.5 11.6044C12.5 12.6622 12.8408 13.4614 13.5225 14.0021C14.2277 14.5192 15.0622 14.7778 16.0259 14.7778C16.2845 14.7778 16.5196 14.766 16.7311 14.7425V21.1244H14.263C13.9104 21.1244 13.5813 21.0657 13.2757 20.9481C12.9936 20.8541 12.7586 20.6778 12.5705 20.4193L10.737 23.5926ZM16.0259 12.3096C15.8379 12.3096 15.6733 12.2391 15.5323 12.0981C15.3913 11.957 15.3207 11.7925 15.3207 11.6044C15.3207 11.4164 15.3913 11.2519 15.5323 11.1108C15.6733 10.9698 15.8379 10.8993 16.0259 10.8993C16.214 10.8993 16.3785 10.9698 16.5196 11.1108C16.6606 11.2519 16.7311 11.4164 16.7311 11.6044C16.7311 11.7925 16.6606 11.957 16.5196 12.0981C16.3785 12.2391 16.214 12.3096 16.0259 12.3096Z" fill="#888888"/>
</g>
<defs>
<clipPath id="clip0_260_2050">
<rect width="24" height="24" fill="white"/>
</clipPath>
</defs>
</svg>
