<svg width="24" height="24" viewBox="0 0 24 24" fill="none" xmlns="http://www.w3.org/2000/svg">
<path d="M8.91448 7.2L12.4145 17H10.4825L9.74048 14.886H6.07248L5.33048 17H3.39848L6.89848 7.2H8.91448ZM7.89248 9.664L6.66048 13.206H9.13848L7.92048 9.664H7.89248ZM13.3921 18.932V17.952L15.0161 17L13.6721 16.216V14.956L14.6661 14.382L13.6721 13.808V10.938L15.2961 10H20.0421V10.896L18.7681 11.638L19.6221 12.142V13.654L17.9981 14.592H15.5901V15.502H18.4181L20.0421 16.44V18.932L18.4181 19.87H15.0161L13.3921 18.932ZM18.1241 17H15.3101V18.26H18.1241V17ZM15.5901 11.568V13.024H17.7041V11.568H15.5901Z" fill="#333333"/>
</svg>
