<svg width="24" height="24" viewBox="0 0 24 24" fill="none" xmlns="http://www.w3.org/2000/svg">
<path d="M8.63935 6.69L11.0474 13.046C11.1314 13.2793 11.206 13.4753 11.2714 13.634C11.3367 13.7927 11.388 13.928 11.4254 14.04C11.472 14.152 11.5094 14.2453 11.5374 14.32C11.5747 14.3853 11.6074 14.446 11.6354 14.502C11.7474 14.7353 11.8594 14.9173 11.9714 15.048C12.0927 15.1693 12.2094 15.2627 12.3214 15.328C12.4427 15.384 12.564 15.4167 12.6854 15.426C12.8067 15.4353 12.928 15.44 13.0494 15.44L13.1194 15.496L13.1614 16.028L13.1334 16.084C13.068 16.084 12.97 16.0793 12.8394 16.07C12.7087 16.0607 12.5734 16.0513 12.4334 16.042C12.2934 16.0327 12.158 16.0233 12.0274 16.014C11.906 16.0047 11.8127 16 11.7474 16H10.7254C10.66 16 10.5527 16.0047 10.4034 16.014C10.254 16.0233 10.0954 16.0327 9.92735 16.042C9.76869 16.0513 9.61469 16.0607 9.46535 16.07C9.31602 16.0793 9.20869 16.084 9.14335 16.084L9.11535 16.028L9.15735 15.496L9.21335 15.44C9.45602 15.44 9.63802 15.412 9.75935 15.356C9.89002 15.2907 9.95535 15.1227 9.95535 14.852C9.95535 14.7027 9.92735 14.4927 9.87135 14.222C9.82469 13.942 9.70802 13.5967 9.52135 13.186L9.22735 12.514H6.77735L6.49735 13.186C6.32935 13.5967 6.20335 13.9467 6.11935 14.236C6.03535 14.5253 5.99335 14.7307 5.99335 14.852C5.99335 15.076 6.04002 15.23 6.13335 15.314C6.22669 15.398 6.39469 15.44 6.63735 15.44L6.70735 15.496L6.74935 16.028L6.72135 16.084C6.65602 16.084 6.55335 16.0793 6.41335 16.07C6.27335 16.0607 6.12402 16.0513 5.96535 16.042C5.81602 16.0327 5.67135 16.0233 5.53135 16.014C5.39135 16.0047 5.28868 16 5.22335 16H4.39735C4.33202 16 4.23402 16.0047 4.10335 16.014C3.97268 16.0233 3.83735 16.0327 3.69735 16.042C3.55735 16.0513 3.42202 16.0607 3.29135 16.07C3.17002 16.0793 3.07668 16.084 3.01135 16.084L2.99735 16.028L3.02535 15.496L3.09535 15.44C3.21668 15.44 3.33802 15.4307 3.45935 15.412C3.58068 15.3933 3.70202 15.3513 3.82335 15.286C3.94468 15.2207 4.06135 15.132 4.17335 15.02C4.29468 14.8987 4.41602 14.7447 4.53735 14.558C4.56535 14.502 4.60735 14.418 4.66335 14.306C4.71935 14.1847 4.80802 13.9747 4.92935 13.676C5.05068 13.3773 5.21868 12.9527 5.43335 12.402C5.64802 11.8513 5.93269 11.1187 6.28735 10.204L7.49135 7.11L8.48535 6.69H8.63935ZM7.01535 11.492H8.84935L7.95335 9.014L7.01535 11.492ZM14.8194 14.096C14.3434 13.9093 13.998 13.6153 13.7834 13.214C13.5687 12.8127 13.4614 12.3693 13.4614 11.884C13.4614 11.5387 13.522 11.212 13.6434 10.904C13.7647 10.596 13.9374 10.33 14.1614 10.106C14.3947 9.87267 14.67 9.69067 14.9874 9.56C15.314 9.42933 15.6827 9.364 16.0934 9.364C16.336 9.364 16.574 9.38733 16.8074 9.434C17.05 9.48067 17.26 9.546 17.4374 9.63C17.8294 9.62067 18.1934 9.59733 18.5294 9.56C18.8747 9.52267 19.1967 9.462 19.4954 9.378L19.5654 9.434L19.4674 10.484L19.3974 10.554L18.3474 10.442L18.3334 10.484C18.4827 10.652 18.5994 10.876 18.6834 11.156C18.7674 11.436 18.8094 11.702 18.8094 11.954C18.8094 12.262 18.7487 12.556 18.6274 12.836C18.5154 13.116 18.3474 13.3633 18.1234 13.578C17.8994 13.7833 17.6194 13.9513 17.2834 14.082C16.9474 14.2033 16.56 14.264 16.1214 14.264C16.0654 14.264 15.9907 14.264 15.8974 14.264C15.8134 14.2547 15.748 14.25 15.7014 14.25C15.5427 14.3153 15.4214 14.404 15.3374 14.516C15.2627 14.628 15.2254 14.7213 15.2254 14.796C15.2254 15.0013 15.4447 15.132 15.8834 15.188L17.2414 15.328C17.5494 15.3653 17.834 15.4307 18.0954 15.524C18.366 15.6173 18.5994 15.7433 18.7954 15.902C19.0007 16.0513 19.1594 16.2333 19.2714 16.448C19.3834 16.672 19.4394 16.9287 19.4394 17.218C19.4394 17.4887 19.3787 17.7593 19.2574 18.03C19.136 18.31 18.954 18.5573 18.7114 18.772C18.4687 18.9773 18.1327 19.1453 17.7034 19.276C17.274 19.4067 16.7794 19.472 16.2194 19.472C15.7154 19.472 15.2767 19.416 14.9034 19.304C14.5394 19.2013 14.2314 19.0567 13.9794 18.87C13.7367 18.6927 13.5547 18.4873 13.4334 18.254C13.312 18.03 13.2514 17.7967 13.2514 17.554C13.2514 17.162 13.3774 16.812 13.6294 16.504C13.8907 16.2053 14.222 15.9953 14.6234 15.874L14.6374 15.832C14.4134 15.748 14.2314 15.6453 14.0914 15.524C13.9607 15.3933 13.8954 15.2347 13.8954 15.048C13.8954 14.8053 13.9934 14.6093 14.1894 14.46C14.3854 14.3107 14.5954 14.208 14.8194 14.152V14.096ZM16.1494 13.298C16.336 13.298 16.4994 13.2607 16.6394 13.186C16.7887 13.1113 16.9147 13.0133 17.0174 12.892C17.12 12.7707 17.1947 12.6307 17.2414 12.472C17.2974 12.304 17.3254 12.1313 17.3254 11.954C17.3254 11.7673 17.2974 11.5807 17.2414 11.394C17.1854 11.2073 17.106 11.0393 17.0034 10.89C16.9007 10.7313 16.77 10.6053 16.6114 10.512C16.4527 10.4093 16.2707 10.358 16.0654 10.358C15.8694 10.358 15.7014 10.4047 15.5614 10.498C15.4214 10.582 15.3 10.694 15.1974 10.834C15.104 10.974 15.034 11.1327 14.9874 11.31C14.9407 11.4873 14.9174 11.66 14.9174 11.828C14.9174 12.0053 14.9407 12.1827 14.9874 12.36C15.0434 12.5373 15.1227 12.696 15.2254 12.836C15.328 12.976 15.454 13.088 15.6034 13.172C15.762 13.256 15.944 13.298 16.1494 13.298ZM15.7014 16.308C15.496 16.3173 15.3187 16.3547 15.1694 16.42C15.02 16.4853 14.894 16.5693 14.7914 16.672C14.6887 16.784 14.6094 16.9007 14.5534 17.022C14.5067 17.1527 14.4834 17.2787 14.4834 17.4C14.4834 17.6707 14.6467 17.89 14.9734 18.058C15.3 18.2353 15.7434 18.324 16.3034 18.324C16.8074 18.324 17.232 18.24 17.5774 18.072C17.9227 17.9133 18.0954 17.6753 18.0954 17.358C18.0954 17.1807 18.0534 17.036 17.9694 16.924C17.8854 16.812 17.7734 16.7187 17.6334 16.644C17.4934 16.5787 17.3347 16.5273 17.1574 16.49C16.9894 16.4527 16.8167 16.4247 16.6394 16.406L15.7014 16.308Z" fill="#333333"/>
</svg>
