<svg width="24" height="24" viewBox="0 0 24 24" fill="none" xmlns="http://www.w3.org/2000/svg">
<path d="M8.49804 6.69L10.794 13.046C10.8874 13.326 10.9667 13.5593 11.032 13.746C11.1067 13.9327 11.1674 14.0913 11.214 14.222C11.27 14.3527 11.3167 14.4647 11.354 14.558C11.3914 14.642 11.424 14.7167 11.452 14.782C11.5547 15.0153 11.6574 15.1973 11.76 15.328C11.872 15.4493 11.984 15.5427 12.096 15.608C12.208 15.664 12.32 15.6967 12.432 15.706C12.5534 15.7153 12.6747 15.72 12.796 15.72L12.866 15.776L12.908 16.028L12.88 16.084C12.8147 16.084 12.7167 16.0793 12.586 16.07C12.4554 16.0607 12.32 16.0513 12.18 16.042C12.04 16.0327 11.9047 16.0233 11.774 16.014C11.6527 16.0047 11.5594 16 11.494 16H11.032C10.9667 16 10.8594 16.0047 10.71 16.014C10.5607 16.0233 10.402 16.0327 10.234 16.042C10.0754 16.0513 9.92137 16.0607 9.77204 16.07C9.62271 16.0793 9.51537 16.084 9.45004 16.084L9.42204 16.028L9.46404 15.776L9.52004 15.72C9.79071 15.72 10.0007 15.692 10.15 15.636C10.2994 15.5707 10.374 15.4027 10.374 15.132C10.374 14.9173 10.2994 14.6187 10.15 14.236C10.01 13.844 9.83271 13.354 9.61804 12.766L9.38004 12.094H6.24404L6.00604 12.766C5.79137 13.354 5.60937 13.844 5.46004 14.236C5.32004 14.6187 5.25004 14.9173 5.25004 15.132C5.25004 15.4027 5.32471 15.5707 5.47404 15.636C5.62337 15.692 5.83337 15.72 6.10404 15.72L6.17404 15.776L6.21604 16.028L6.18804 16.084C6.12271 16.084 6.02004 16.0793 5.88004 16.07C5.74004 16.0607 5.59071 16.0513 5.43204 16.042C5.28271 16.0327 5.13804 16.0233 4.99804 16.014C4.85804 16.0047 4.75537 16 4.69004 16H4.42404C4.35871 16 4.26071 16.0047 4.13004 16.014C3.99937 16.0233 3.86404 16.0327 3.72404 16.042C3.58404 16.0513 3.44871 16.0607 3.31804 16.07C3.19671 16.0793 3.10337 16.084 3.03804 16.084L3.02404 16.028L3.05204 15.776L3.12204 15.72C3.24337 15.72 3.36004 15.7153 3.47204 15.706C3.58404 15.6967 3.69604 15.664 3.80804 15.608C3.92004 15.5427 4.02737 15.4493 4.13004 15.328C4.24204 15.1973 4.35404 15.0153 4.46604 14.782C4.49404 14.7353 4.51737 14.684 4.53604 14.628C4.56404 14.5627 4.60137 14.4693 4.64804 14.348C4.70404 14.2267 4.76937 14.068 4.84404 13.872C4.92804 13.6667 5.03071 13.4053 5.15204 13.088C5.28271 12.7613 5.43671 12.3647 5.61404 11.898C5.80071 11.4313 6.02471 10.8667 6.28604 10.204C6.40737 9.87733 6.53337 9.55533 6.66404 9.238C6.79471 8.91133 6.91604 8.608 7.02804 8.328C7.14004 8.048 7.23804 7.80067 7.32204 7.586C7.41537 7.37133 7.48071 7.21267 7.51804 7.11L8.34404 6.69H8.49804ZM6.48204 11.492H9.15604L7.82604 7.894L6.48204 11.492ZM14.7419 14.096C14.2379 13.9093 13.8739 13.6153 13.6499 13.214C13.4259 12.8127 13.3139 12.3693 13.3139 11.884C13.3139 11.5387 13.3746 11.212 13.4959 10.904C13.6173 10.596 13.7899 10.33 14.0139 10.106C14.2473 9.87267 14.5226 9.69067 14.8399 9.56C15.1666 9.42933 15.5353 9.364 15.9459 9.364C16.1886 9.364 16.4266 9.38733 16.6599 9.434C16.9026 9.48067 17.1126 9.546 17.2899 9.63C17.6819 9.62067 18.0459 9.59733 18.3819 9.56C18.7273 9.52267 19.0493 9.462 19.3479 9.378L19.4179 9.434L19.3199 10.204L19.2499 10.274L17.9759 10.218L17.9619 10.26C18.2046 10.456 18.3819 10.7127 18.4939 11.03C18.6059 11.3473 18.6619 11.6553 18.6619 11.954C18.6619 12.262 18.6013 12.556 18.4799 12.836C18.3679 13.116 18.1999 13.3633 17.9759 13.578C17.7519 13.7833 17.4719 13.9513 17.1359 14.082C16.7999 14.2033 16.4126 14.264 15.9739 14.264C15.8993 14.264 15.8059 14.264 15.6939 14.264C15.5819 14.2547 15.4886 14.25 15.4139 14.25C15.2553 14.3153 15.1339 14.404 15.0499 14.516C14.9753 14.628 14.9379 14.7213 14.9379 14.796C14.9379 14.8893 14.9986 14.9733 15.1199 15.048C15.2506 15.1133 15.4559 15.16 15.7359 15.188L17.0939 15.328C17.4019 15.3653 17.6866 15.4307 17.9479 15.524C18.2186 15.6173 18.4519 15.7433 18.6479 15.902C18.8533 16.0513 19.0119 16.2333 19.1239 16.448C19.2359 16.672 19.2919 16.9287 19.2919 17.218C19.2919 17.4887 19.2313 17.7593 19.1099 18.03C18.9886 18.31 18.8066 18.5573 18.5639 18.772C18.3213 18.9773 17.9853 19.1453 17.5559 19.276C17.1266 19.4067 16.6319 19.472 16.0719 19.472C15.5679 19.472 15.1293 19.416 14.7559 19.304C14.3919 19.2013 14.0839 19.0567 13.8319 18.87C13.5893 18.6927 13.4073 18.4873 13.2859 18.254C13.1646 18.03 13.1039 17.7967 13.1039 17.554C13.1039 17.162 13.2299 16.812 13.4819 16.504C13.7433 16.2053 14.0746 15.9953 14.4759 15.874L14.4899 15.832C14.2846 15.748 14.1213 15.6453 13.9999 15.524C13.8786 15.3933 13.8179 15.2347 13.8179 15.048C13.8179 14.8053 13.9159 14.6093 14.1119 14.46C14.3079 14.3107 14.5179 14.208 14.7419 14.152V14.096ZM16.0019 13.676C16.2633 13.676 16.4919 13.6293 16.6879 13.536C16.8933 13.4427 17.0659 13.3167 17.2059 13.158C17.3459 12.9993 17.4533 12.8173 17.5279 12.612C17.6026 12.3973 17.6399 12.178 17.6399 11.954C17.6399 11.7207 17.6026 11.4873 17.5279 11.254C17.4533 11.0207 17.3413 10.8107 17.1919 10.624C17.0519 10.4373 16.8746 10.2833 16.6599 10.162C16.4453 10.0407 16.1979 9.98 15.9179 9.98C15.6473 9.98 15.4093 10.036 15.2039 10.148C15.0079 10.26 14.8399 10.4047 14.6999 10.582C14.5693 10.7593 14.4713 10.96 14.4059 11.184C14.3406 11.3987 14.3079 11.6133 14.3079 11.828C14.3079 12.052 14.3406 12.276 14.4059 12.5C14.4806 12.7147 14.5879 12.9107 14.7279 13.088C14.8773 13.2653 15.0546 13.41 15.2599 13.522C15.4746 13.6247 15.7219 13.676 16.0019 13.676ZM15.5539 16.07C15.2926 16.0793 15.0639 16.126 14.8679 16.21C14.6719 16.294 14.5039 16.3967 14.3639 16.518C14.2333 16.6487 14.1353 16.7887 14.0699 16.938C14.0046 17.0967 13.9719 17.2507 13.9719 17.4C13.9719 17.7547 14.1679 18.044 14.5599 18.268C14.9519 18.492 15.4839 18.604 16.1559 18.604C16.4639 18.604 16.7486 18.576 17.0099 18.52C17.2713 18.4733 17.4953 18.394 17.6819 18.282C17.8779 18.1793 18.0319 18.0487 18.1439 17.89C18.2559 17.7407 18.3119 17.5633 18.3119 17.358C18.3119 17.134 18.2559 16.952 18.1439 16.812C18.0413 16.672 17.9013 16.5553 17.7239 16.462C17.5559 16.378 17.3599 16.3127 17.1359 16.266C16.9213 16.2287 16.7066 16.196 16.4919 16.168L15.5539 16.07Z" fill="#888888"/>
</svg>
