<svg width="24" height="24" viewBox="0 0 24 24" fill="none" xmlns="http://www.w3.org/2000/svg">
<path d="M13.102 16H11.912L10.554 12.892H6.42395L5.19195 16H4.07195L7.76795 6.76H9.04195L13.102 16ZM6.81595 11.912H10.12L8.38395 7.936L6.81595 11.912ZM14.8627 14.012C14.4147 13.8347 14.0927 13.5547 13.8967 13.172C13.7007 12.78 13.6027 12.36 13.6027 11.912C13.6027 11.548 13.6633 11.212 13.7847 10.904C13.906 10.596 14.0787 10.3253 14.3027 10.092C14.536 9.85867 14.8113 9.67667 15.1287 9.546C15.4553 9.41533 15.824 9.35 16.2347 9.35C16.4773 9.35 16.7153 9.37333 16.9487 9.42C17.1913 9.46667 17.4013 9.53667 17.5787 9.63C17.9707 9.62067 18.3347 9.59733 18.6707 9.56C19.016 9.52267 19.338 9.462 19.6367 9.378L19.7067 9.434L19.6087 10.204L19.5387 10.274L18.2647 10.218L18.2507 10.26C18.4933 10.456 18.6707 10.7127 18.7827 11.03C18.8947 11.3473 18.9507 11.6553 18.9507 11.954C18.9507 12.262 18.89 12.556 18.7687 12.836C18.6567 13.116 18.4887 13.3633 18.2647 13.578C18.0407 13.7833 17.7607 13.9513 17.4247 14.082C17.098 14.2033 16.72 14.264 16.2907 14.264C16.188 14.264 16.0993 14.264 16.0247 14.264C15.95 14.2547 15.88 14.25 15.8147 14.25C15.6187 14.3153 15.4693 14.404 15.3667 14.516C15.2733 14.628 15.2267 14.7213 15.2267 14.796C15.2267 14.8893 15.2873 14.9733 15.4087 15.048C15.5393 15.1133 15.7447 15.16 16.0247 15.188L17.3827 15.328C17.6907 15.356 17.9753 15.4213 18.2367 15.524C18.5073 15.6173 18.7407 15.7433 18.9367 15.902C19.1327 16.0513 19.2867 16.2333 19.3987 16.448C19.52 16.672 19.5807 16.924 19.5807 17.204C19.5807 17.4747 19.52 17.75 19.3987 18.03C19.2773 18.3193 19.0953 18.5667 18.8527 18.772C18.61 18.9773 18.274 19.1453 17.8447 19.276C17.4153 19.4067 16.9207 19.472 16.3607 19.472C15.8847 19.472 15.4553 19.4207 15.0727 19.318C14.6993 19.2247 14.382 19.0893 14.1207 18.912C13.8687 18.744 13.6727 18.548 13.5327 18.324C13.402 18.1 13.3367 17.862 13.3367 17.61C13.3367 17.4233 13.374 17.2367 13.4487 17.05C13.5233 16.8727 13.6213 16.7047 13.7427 16.546C13.864 16.3873 14.004 16.2473 14.1627 16.126C14.3307 16.0047 14.5033 15.9113 14.6807 15.846V15.79C14.298 15.6127 14.1067 15.37 14.1067 15.062C14.1067 14.866 14.1767 14.6887 14.3167 14.53C14.466 14.3713 14.648 14.2173 14.8627 14.068V14.012ZM16.2907 13.564C16.552 13.564 16.7807 13.522 16.9767 13.438C17.182 13.3447 17.3547 13.228 17.4947 13.088C17.6347 12.9387 17.742 12.766 17.8167 12.57C17.8913 12.374 17.9287 12.1687 17.9287 11.954C17.9287 11.7393 17.8913 11.52 17.8167 11.296C17.742 11.072 17.63 10.8713 17.4807 10.694C17.3407 10.5073 17.1633 10.358 16.9487 10.246C16.734 10.134 16.4867 10.078 16.2067 10.078C15.936 10.078 15.698 10.134 15.4927 10.246C15.2967 10.3487 15.1287 10.484 14.9887 10.652C14.858 10.82 14.76 11.0067 14.6947 11.212C14.6293 11.4173 14.5967 11.6227 14.5967 11.828C14.5967 12.0427 14.6293 12.2527 14.6947 12.458C14.7693 12.6633 14.8767 12.85 15.0167 13.018C15.166 13.1767 15.3433 13.3073 15.5487 13.41C15.7633 13.5127 16.0107 13.564 16.2907 13.564ZM15.8427 16.07C15.628 16.07 15.4273 16.112 15.2407 16.196C15.0633 16.28 14.9047 16.3873 14.7647 16.518C14.634 16.6487 14.5267 16.7933 14.4427 16.952C14.368 17.12 14.3307 17.2833 14.3307 17.442C14.3307 17.7967 14.5173 18.0767 14.8907 18.282C15.2733 18.4967 15.7867 18.604 16.4307 18.604C16.7387 18.604 17.0233 18.576 17.2847 18.52C17.5553 18.4733 17.784 18.394 17.9707 18.282C18.1667 18.1793 18.3207 18.0487 18.4327 17.89C18.5447 17.7407 18.6007 17.5587 18.6007 17.344C18.6007 16.924 18.372 16.6207 17.9147 16.434C17.4667 16.2567 16.776 16.1353 15.8427 16.07Z" fill="#333333"/>
</svg>
