<svg width="24" height="24" viewBox="0 0 24 24" fill="none" xmlns="http://www.w3.org/2000/svg">
<path d="M7.69161 8.278L4.28961 16.734C4.25228 16.8273 4.20094 16.8973 4.13561 16.944C4.07028 16.9907 3.99561 17.014 3.91161 17.014C3.78094 17.014 3.68294 16.9813 3.61761 16.916C3.55228 16.8413 3.51494 16.7527 3.50561 16.65C3.49628 16.6033 3.50094 16.5473 3.51961 16.482L7.21561 7.438C7.26228 7.33533 7.31828 7.26533 7.38361 7.228C7.45828 7.18133 7.54228 7.158 7.63561 7.158C7.72894 7.158 7.80828 7.186 7.87361 7.242C7.94828 7.28867 8.00428 7.354 8.04161 7.438L11.7236 16.44C11.7423 16.496 11.7516 16.552 11.7516 16.608C11.7516 16.7387 11.7096 16.8413 11.6256 16.916C11.5416 16.9813 11.4436 17.014 11.3316 17.014C11.2383 17.014 11.1543 16.9907 11.0796 16.944C11.0143 16.888 10.9629 16.818 10.9256 16.734L7.43961 8.222L7.69161 8.278ZM5.10161 14.172L5.45161 13.346H9.79161L9.95961 14.172H5.10161ZM16.2521 9.678C16.6721 9.678 17.0594 9.75267 17.4141 9.902C17.7687 10.042 18.0767 10.2287 18.3381 10.462C18.6087 10.686 18.8187 10.9287 18.9681 11.19C19.1174 11.442 19.1921 11.6847 19.1921 11.918L18.9541 11.582V10.28C18.9541 10.1587 18.9914 10.056 19.0661 9.972C19.1501 9.888 19.2527 9.846 19.3741 9.846C19.5047 9.846 19.6074 9.888 19.6821 9.972C19.7567 10.056 19.7941 10.1587 19.7941 10.28V16.342C19.7941 17.0887 19.6401 17.7187 19.3321 18.232C19.0241 18.7453 18.6041 19.1327 18.0721 19.394C17.5494 19.6647 16.9521 19.8 16.2801 19.8C15.9534 19.8 15.6081 19.758 15.2441 19.674C14.8894 19.59 14.5814 19.4827 14.3201 19.352C14.0681 19.2213 13.9281 19.086 13.9001 18.946C13.8254 18.862 13.7881 18.778 13.7881 18.694C13.7974 18.6193 13.8394 18.554 13.9141 18.498C14.0074 18.4327 14.1054 18.4233 14.2081 18.47C14.3107 18.526 14.4647 18.596 14.6701 18.68C14.7634 18.708 14.8894 18.75 15.0481 18.806C15.2067 18.862 15.3934 18.9087 15.6081 18.946C15.8321 18.9927 16.0654 19.016 16.3081 19.016C17.1481 19.016 17.7967 18.7733 18.2541 18.288C18.7207 17.812 18.9541 17.182 18.9541 16.398V15.054L19.1081 15.096C19.0241 15.432 18.8841 15.726 18.6881 15.978C18.5014 16.23 18.2774 16.4447 18.0161 16.622C17.7547 16.79 17.4701 16.916 17.1621 17C16.8634 17.0933 16.5647 17.14 16.2661 17.14C15.6221 17.14 15.0434 16.9767 14.5301 16.65C14.0167 16.3233 13.6061 15.88 13.2981 15.32C12.9994 14.76 12.8501 14.1207 12.8501 13.402C12.8501 12.6927 12.9994 12.058 13.2981 11.498C13.6061 10.9287 14.0121 10.4853 14.5161 10.168C15.0294 9.84133 15.6081 9.678 16.2521 9.678ZM16.3501 10.462C15.8367 10.462 15.3747 10.5927 14.9641 10.854C14.5627 11.106 14.2454 11.456 14.0121 11.904C13.7881 12.3427 13.6761 12.842 13.6761 13.402C13.6761 13.962 13.7881 14.466 14.0121 14.914C14.2454 15.362 14.5627 15.7167 14.9641 15.978C15.3747 16.23 15.8367 16.356 16.3501 16.356C16.8634 16.356 17.3207 16.23 17.7221 15.978C18.1234 15.726 18.4407 15.3807 18.6741 14.942C18.9074 14.494 19.0241 13.9807 19.0241 13.402C19.0241 12.8233 18.9074 12.3147 18.6741 11.876C18.4407 11.428 18.1234 11.0827 17.7221 10.84C17.3207 10.588 16.8634 10.462 16.3501 10.462Z" fill="#888888"/>
</svg>
