<svg width="24" height="24" viewBox="0 0 24 24" fill="none" xmlns="http://www.w3.org/2000/svg">
<path d="M11.751 16.44C11.7696 16.5147 11.779 16.5707 11.779 16.608C11.779 16.7293 11.737 16.8273 11.653 16.902C11.569 16.9767 11.471 17.014 11.359 17.014C11.2656 17.014 11.1816 16.9907 11.107 16.944C11.0416 16.888 10.9903 16.818 10.953 16.734L9.90295 14.172H5.35295L4.31695 16.734C4.24229 16.9207 4.11629 17.014 3.93895 17.014C3.80829 17.014 3.71029 16.9813 3.64495 16.916C3.57962 16.8507 3.54229 16.762 3.53295 16.65V16.608C3.53295 16.552 3.53762 16.51 3.54695 16.482L7.24295 7.438C7.31762 7.25133 7.45762 7.158 7.66295 7.158C7.75629 7.158 7.83562 7.186 7.90095 7.242C7.97562 7.28867 8.03162 7.354 8.06895 7.438L11.751 16.44ZM9.56695 13.346L7.60695 8.558L5.67495 13.346H9.56695ZM19.3454 9.846C19.4667 9.846 19.5647 9.888 19.6394 9.972C19.7234 10.0467 19.7654 10.1493 19.7654 10.28V16.342C19.7654 17.07 19.6114 17.6907 19.3034 18.204C19.0047 18.7267 18.5894 19.1233 18.0574 19.394C17.5347 19.6647 16.9327 19.8 16.2514 19.8C15.9247 19.8 15.5794 19.758 15.2154 19.674C14.8607 19.59 14.5527 19.4827 14.2914 19.352C14.0394 19.2213 13.8947 19.086 13.8574 18.946C13.7921 18.8807 13.7594 18.806 13.7594 18.722C13.7594 18.6287 13.8014 18.554 13.8854 18.498C13.9227 18.47 13.9694 18.456 14.0254 18.456C14.0814 18.456 14.1887 18.4887 14.3474 18.554L14.6414 18.68C15.2201 18.904 15.7614 19.016 16.2654 19.016C17.0961 19.016 17.7447 18.778 18.2114 18.302C18.6874 17.8353 18.9254 17.2007 18.9254 16.398V15.53C18.6921 16.034 18.3234 16.4307 17.8194 16.72C17.3154 17 16.7881 17.14 16.2374 17.14C15.5934 17.14 15.0101 16.9813 14.4874 16.664C13.9741 16.3373 13.5681 15.8893 13.2694 15.32C12.9707 14.7507 12.8214 14.1113 12.8214 13.402C12.8214 12.702 12.9707 12.0673 13.2694 11.498C13.5681 10.9287 13.9741 10.4853 14.4874 10.168C15.0101 9.84133 15.5887 9.678 16.2234 9.678C16.8114 9.678 17.3481 9.82733 17.8334 10.126C18.3281 10.4153 18.6921 10.7653 18.9254 11.176V10.28C18.9254 10.1587 18.9627 10.056 19.0374 9.972C19.1214 9.888 19.2241 9.846 19.3454 9.846ZM16.3074 16.356C16.8207 16.356 17.2781 16.2347 17.6794 15.992C18.0901 15.74 18.4074 15.39 18.6314 14.942C18.8647 14.4847 18.9814 13.9713 18.9814 13.402C18.9814 12.8327 18.8647 12.324 18.6314 11.876C18.4074 11.428 18.0901 11.0827 17.6794 10.84C17.2781 10.588 16.8207 10.462 16.3074 10.462C15.8034 10.462 15.3461 10.5927 14.9354 10.854C14.5341 11.106 14.2167 11.456 13.9834 11.904C13.7594 12.352 13.6474 12.8513 13.6474 13.402C13.6474 13.962 13.7594 14.466 13.9834 14.914C14.2167 15.362 14.5341 15.7167 14.9354 15.978C15.3461 16.23 15.8034 16.356 16.3074 16.356Z" fill="#333333"/>
</svg>
