<svg width="24" height="24" viewBox="0 0 24 24" fill="none" xmlns="http://www.w3.org/2000/svg">
<path d="M14.0347 16.512C13.7947 16.512 13.5967 16.362 13.4407 16.062C13.2967 15.774 13.2247 15.396 13.2247 14.928C13.2247 14.496 13.4707 13.512 13.9627 11.976C13.8787 11.976 13.7227 11.994 13.4947 12.03C13.2667 12.054 12.9607 12.096 12.5767 12.156C12.2047 12.216 11.8987 12.27 11.6587 12.318C11.4307 12.354 11.2687 12.384 11.1727 12.408C9.21671 14.112 7.68071 14.964 6.56471 14.964C6.09671 14.964 5.73671 14.808 5.48471 14.496C5.50871 14.472 5.52671 14.466 5.53871 14.478C5.55071 14.478 5.56271 14.478 5.57471 14.478L6.09671 14.568C6.97271 14.568 8.30471 13.872 10.0927 12.48V12.462L9.12071 12.498C8.83271 12.51 8.58071 12.432 8.36471 12.264C8.16071 12.096 8.05871 11.892 8.05871 11.652L8.09471 11.616C8.09471 11.604 8.10071 11.598 8.11271 11.598L8.16671 11.634C8.23871 11.694 8.39471 11.742 8.63471 11.778C8.87471 11.814 9.21671 11.826 9.66071 11.814L10.2907 11.796H10.8847C11.4247 11.364 12.0787 10.764 12.8467 9.996C13.2067 9.624 13.5247 9.282 13.8007 8.97C14.0887 8.658 14.3107 8.388 14.4667 8.16L15.0247 7.35C15.0727 7.35 15.0967 7.416 15.0967 7.548C15.0967 8.124 14.6707 8.862 13.8187 9.762L11.9467 11.742L14.0887 11.526C14.1847 11.334 14.2567 11.178 14.3047 11.058C14.3647 10.938 14.4307 10.806 14.5027 10.662C14.5747 10.518 14.6767 10.32 14.8087 10.068C14.9407 9.804 15.1207 9.45 15.3487 9.006L16.1947 7.386L16.5367 6.72C16.6567 6.492 16.7887 6.282 16.9327 6.09C17.0767 5.898 17.2087 5.802 17.3287 5.802C17.4607 5.802 17.6167 5.844 17.7967 5.928C17.9887 6 18.0847 6.078 18.0847 6.162C17.9287 6.39 17.7547 6.66 17.5627 6.972C17.3827 7.284 17.1847 7.62 16.9687 7.98C14.8447 11.52 13.7827 14.01 13.7827 15.45C13.7827 15.51 13.7947 15.6 13.8187 15.72C13.8427 15.852 13.8787 15.972 13.9267 16.08C13.9867 16.236 14.0227 16.344 14.0347 16.404C14.0587 16.476 14.0587 16.512 14.0347 16.512ZM11.0121 23.226C10.1721 23.226 9.47612 22.992 8.92412 22.524C8.36012 22.056 8.07812 21.408 8.07812 20.58C8.07812 19.764 8.54012 18.942 9.46412 18.114C10.3761 17.31 11.5221 16.662 12.9021 16.17C14.2341 15.69 15.5661 15.45 16.8981 15.45C17.5101 15.45 18.0321 15.504 18.4641 15.612C18.5121 15.48 18.5361 15.348 18.5361 15.216C18.5361 14.808 18.4881 14.52 18.3921 14.352C17.9241 14.784 17.4981 15 17.1141 15C16.7301 15 16.3941 14.814 16.1061 14.442C15.8181 14.058 15.6741 13.662 15.6741 13.254C15.6741 12.414 16.1361 11.544 17.0601 10.644C17.0601 9.948 17.1321 9.486 17.2761 9.258C17.4441 9.018 17.7261 8.898 18.1221 8.898C18.5541 8.898 19.0101 9.294 19.4901 10.086C20.3541 10.242 20.7861 10.56 20.7861 11.04C20.7861 11.232 20.7141 11.382 20.5701 11.49C20.4381 11.586 20.3721 11.58 20.3721 11.472C20.4921 11.388 20.5521 11.292 20.5521 11.184C20.5521 10.824 20.2641 10.644 19.6881 10.644C19.7001 10.692 19.7061 10.746 19.7061 10.806C19.7061 10.866 19.7061 10.938 19.7061 11.022C19.7061 12.174 19.3581 13.188 18.6621 14.064C18.8421 14.4 18.9321 14.85 18.9321 15.414C18.9321 15.474 18.9321 15.528 18.9321 15.576C18.9321 15.636 18.9261 15.696 18.9141 15.756C19.4061 15.948 19.8141 16.212 20.1381 16.548C20.4741 16.872 20.6421 17.178 20.6421 17.466C20.6421 17.766 20.5701 17.916 20.4261 17.916C20.3901 17.916 20.3601 17.88 20.3361 17.808C20.4321 17.676 20.4801 17.55 20.4801 17.43C20.4801 17.178 20.3181 16.926 19.9941 16.674C19.6701 16.422 19.3161 16.236 18.9321 16.116C18.7881 17.328 18.3261 18.492 17.5461 19.608C16.7661 20.712 15.7941 21.588 14.6301 22.236C13.4661 22.896 12.2601 23.226 11.0121 23.226ZM17.3841 10.392C17.7681 10.128 18.1401 9.996 18.5001 9.996H18.6441C18.4881 9.6 18.2361 9.402 17.8881 9.402C17.5521 9.402 17.3841 9.726 17.3841 10.374V10.392ZM18.4641 13.632C18.8961 12.996 19.1121 12.306 19.1121 11.562C19.1121 11.226 19.0581 10.926 18.9501 10.662C18.7461 10.734 18.4521 10.872 18.0681 11.076C17.6961 11.268 17.5101 11.406 17.5101 11.49C17.5101 11.574 17.8281 12.288 18.4641 13.632ZM17.0961 14.784C17.5161 14.784 17.9121 14.49 18.2841 13.902L17.3481 11.67C17.0961 11.922 16.8681 12.264 16.6641 12.696C16.4721 13.128 16.3761 13.512 16.3761 13.848C16.3761 14.472 16.6161 14.784 17.0961 14.784ZM10.6881 22.47C11.5401 22.47 12.3741 22.308 13.1901 21.984C13.9941 21.66 14.7801 21.162 15.5481 20.49C17.0361 19.17 17.9841 17.676 18.3921 16.008C18.2481 15.984 18.0741 15.96 17.8701 15.936C17.6781 15.924 17.4561 15.918 17.2041 15.918C16.0641 15.918 14.9421 16.062 13.8381 16.35C12.7341 16.65 11.7921 17.028 11.0121 17.484C10.2201 17.94 9.59012 18.432 9.12212 18.96C8.88212 19.224 8.70212 19.5 8.58212 19.788C8.46212 20.076 8.40212 20.352 8.40212 20.616C8.40212 21.132 8.60612 21.57 9.01412 21.93C9.41012 22.29 9.96812 22.47 10.6881 22.47Z" fill="#888888"/>
</svg>
