<svg width="24" height="24" viewBox="0 0 24 24" fill="none" xmlns="http://www.w3.org/2000/svg">
<path d="M4.98709 16.5227C4.78032 16.5227 4.55416 16.4323 4.30863 16.2513C4.07601 16.0704 3.94032 15.8766 3.90155 15.6698C3.88863 15.5923 3.88216 15.5147 3.88216 15.4372C3.89509 15.3467 3.90155 15.2627 3.90155 15.1852V15.0495C3.91447 15.0107 3.92739 14.9655 3.94032 14.9138C3.96616 14.8621 3.99847 14.8298 4.03724 14.8169V14.7975C4.01139 14.7716 3.99847 14.7329 3.99847 14.6812C3.99847 14.6036 4.01786 14.5326 4.05663 14.4679C4.09539 14.4033 4.11478 14.3387 4.11478 14.2741C4.20524 14.1578 4.28924 14.035 4.36678 13.9058C4.44432 13.7766 4.48309 13.6344 4.48309 13.4793L4.61878 13.363H4.50247C4.30863 13.363 4.07601 13.3178 3.80463 13.2273C3.54616 13.1239 3.41693 12.9495 3.41693 12.7039C3.41693 12.6006 3.47509 12.5101 3.59139 12.4326C3.7077 12.3421 3.83693 12.271 3.97909 12.2193C4.13416 12.1676 4.25693 12.1418 4.34739 12.1418C4.43786 12.0901 4.5477 12.0643 4.67693 12.0643V12.0836H4.65755V12.1224C4.58001 12.1483 4.4637 12.2064 4.30863 12.2969C4.15355 12.3873 4.01139 12.4907 3.88216 12.607C3.76586 12.7233 3.7077 12.8332 3.7077 12.9366H4.26986C4.28278 12.9366 4.30863 12.9366 4.34739 12.9366C4.38616 12.9236 4.41201 12.9107 4.42493 12.8978C4.52832 12.8719 4.62524 12.8461 4.7157 12.8203C4.81909 12.7944 4.91601 12.7686 5.00647 12.7427C5.08401 12.7169 5.17447 12.6264 5.27786 12.4713C5.39416 12.3163 5.51693 12.1676 5.64616 12.0255C5.77539 11.8833 5.90463 11.8187 6.03386 11.8316V11.851C6.03386 11.8639 6.02093 11.8704 5.99509 11.8704C5.96924 11.9092 5.91109 11.9803 5.82063 12.0836C5.73016 12.187 5.64616 12.2904 5.56863 12.3938C5.49109 12.4972 5.45232 12.5747 5.45232 12.6264L5.43293 12.6458L8.16616 11.8898C8.19201 11.8769 8.25016 11.8575 8.34063 11.8316C8.43109 11.8058 8.48278 11.8058 8.4957 11.8316L8.51509 11.7929C8.72186 11.767 8.90924 11.7283 9.07724 11.6766C9.29693 11.599 9.51662 11.5409 9.73632 11.5021C9.96893 11.4504 10.1951 11.3793 10.4148 11.2889C10.5182 11.2501 10.6215 11.1403 10.7249 10.9593C10.8412 10.7655 10.9382 10.6298 11.0157 10.5523C11.1837 10.3843 11.3259 10.2163 11.4422 10.0483C11.5714 9.86733 11.7006 9.67995 11.8299 9.4861C12.0625 9.17595 12.3339 8.84641 12.644 8.49749C12.9542 8.13564 13.1932 7.78672 13.3612 7.45072C13.3742 7.42487 13.3806 7.39902 13.3806 7.37318C13.3935 7.34733 13.4065 7.32795 13.4194 7.31502L13.6908 6.98549C13.7295 7.02426 13.7489 7.06302 13.7489 7.10179C13.7489 7.15349 13.7231 7.20518 13.6714 7.25687C13.6326 7.29564 13.6003 7.33441 13.5745 7.37318C13.5357 7.43779 13.4969 7.50887 13.4582 7.58641C13.4323 7.65102 13.4 7.71564 13.3612 7.78025C13.2708 7.93533 13.1739 8.09041 13.0705 8.24549C12.98 8.40056 12.8831 8.54918 12.7797 8.69133C12.6505 8.88518 12.5148 9.08549 12.3726 9.29225C12.2434 9.49902 12.1077 9.69287 11.9655 9.87379C11.9397 9.91256 11.9009 9.95133 11.8492 9.9901C11.8105 10.0289 11.7782 10.0676 11.7523 10.1064C11.7265 10.1323 11.6554 10.2292 11.5391 10.3972C11.4228 10.5652 11.3129 10.7332 11.2095 10.9012C11.1062 11.0563 11.048 11.1467 11.0351 11.1726L11.7911 11.0756L11.8105 11.0563L12.5277 10.9593C12.5794 10.7267 12.6699 10.4424 12.7991 10.1064C12.9412 9.77041 13.0899 9.43441 13.2449 9.09841C13.4 8.74949 13.5292 8.46518 13.6326 8.24549L13.9428 7.60579C13.9428 7.56702 13.9428 7.52825 13.9428 7.48949C13.9428 7.45072 13.9492 7.41195 13.9622 7.37318C13.988 7.25687 14.0526 7.12118 14.156 6.9661C14.2723 6.7981 14.4015 6.64302 14.5437 6.50087C14.6859 6.34579 14.7957 6.23595 14.8732 6.17133C14.9508 6.19718 15.0542 6.22302 15.1834 6.24887C15.3126 6.27472 15.3837 6.33287 15.3966 6.42333L15.3772 6.53964C15.248 6.6301 15.0994 6.80456 14.9314 7.06302C14.7763 7.32149 14.66 7.52179 14.5825 7.66395C14.5566 7.71564 14.5308 7.77379 14.5049 7.83841C14.492 7.90302 14.4726 7.96118 14.4468 8.01287C14.4339 8.06456 14.3886 8.16149 14.3111 8.30364C14.2465 8.43287 14.2012 8.49749 14.1754 8.49749C14.0203 8.83349 13.8588 9.16949 13.6908 9.50549C13.5228 9.82856 13.3871 10.1775 13.2837 10.5523C13.2708 10.5781 13.2514 10.6298 13.2255 10.7073C13.1997 10.7849 13.1932 10.8366 13.2062 10.8624H13.3031C13.4194 10.8624 13.5357 10.8559 13.652 10.843C13.7683 10.8301 13.8911 10.8236 14.0203 10.8236C14.5502 10.8236 15.0089 10.927 15.3966 11.1338C15.7843 11.3406 15.9782 11.6507 15.9782 12.0643C15.9782 12.2323 15.9006 12.3938 15.7455 12.5489C15.5905 12.7039 15.416 12.8396 15.2222 12.9559C15.0283 13.0723 14.8732 13.1692 14.7569 13.2467V13.2079H14.7375V13.1692C14.8409 13.0916 14.9637 12.9689 15.1059 12.8009C15.2609 12.6199 15.3902 12.4326 15.4935 12.2387C15.6099 12.0319 15.668 11.8639 15.668 11.7347C15.668 11.5409 15.5582 11.4052 15.3385 11.3276C15.1317 11.2372 14.8991 11.179 14.6406 11.1532C14.3822 11.1273 14.1883 11.1144 14.0591 11.1144C13.9428 11.1144 13.8006 11.1209 13.6326 11.1338C13.4646 11.1467 13.3289 11.1661 13.2255 11.1919C13.1222 11.2307 13.0317 11.3535 12.9542 11.5603C12.8766 11.767 12.8055 11.9996 12.7409 12.2581C12.6892 12.5166 12.644 12.7427 12.6052 12.9366C12.5794 13.1304 12.5535 13.2338 12.5277 13.2467C12.5406 13.2855 12.5471 13.3566 12.5471 13.4599C12.5471 13.5892 12.5406 13.7249 12.5277 13.867C12.5277 13.9963 12.5277 14.1319 12.5277 14.2741C12.5277 14.455 12.5406 14.6876 12.5665 14.9719C12.5923 15.2433 12.6634 15.4889 12.7797 15.7086C12.896 15.9153 13.0834 16.0187 13.3419 16.0187C13.3806 15.9929 13.4646 15.9476 13.5939 15.883C13.7231 15.8055 13.8459 15.7279 13.9622 15.6504C14.0785 15.5729 14.1366 15.5276 14.1366 15.5147H14.2142V15.6504C14.2142 15.8055 14.1043 15.9283 13.8846 16.0187C13.6779 16.1092 13.5099 16.1544 13.3806 16.1544C13.0059 16.1544 12.7151 16.0381 12.5083 15.8055C12.3145 15.5729 12.1788 15.295 12.1012 14.9719C12.0366 14.6359 12.0043 14.3193 12.0043 14.0221C12.0043 13.5439 12.0495 13.0787 12.14 12.6264C12.2434 12.1612 12.3403 11.7024 12.4308 11.2501H12.392C12.2499 11.3018 12.0625 11.347 11.8299 11.3858C11.5972 11.4116 11.3711 11.4439 11.1514 11.4827C10.9317 11.5215 10.7702 11.5861 10.6668 11.6766C10.46 11.8446 10.2791 12.0513 10.124 12.2969C9.98186 12.5295 9.82032 12.7556 9.63939 12.9753C9.5877 13.0399 9.5037 13.1433 9.38739 13.2855C9.28401 13.4276 9.17416 13.5698 9.05786 13.7119C8.94155 13.8412 8.85109 13.9316 8.78647 13.9833C8.76062 14.0092 8.72832 14.035 8.68955 14.0609C8.65078 14.0867 8.61847 14.1126 8.59263 14.1384L8.18555 14.6812L7.85601 14.9526C7.76555 15.0301 7.64278 15.1399 7.4877 15.2821C7.34555 15.4243 7.20986 15.4953 7.08062 15.4953C7.02893 15.6763 6.86739 15.8443 6.59601 15.9993C6.32463 16.1673 6.02739 16.2966 5.70432 16.387C5.39416 16.4775 5.15509 16.5227 4.98709 16.5227ZM4.9677 16.3289C5.04524 16.3289 5.16155 16.2901 5.31663 16.2126C5.4717 16.1479 5.62678 16.0704 5.78186 15.9799C5.93693 15.8895 6.04678 15.8249 6.11139 15.7861C6.52493 15.4889 6.90616 15.1658 7.25509 14.8169C7.61693 14.455 7.97232 14.0932 8.32124 13.7313C8.46339 13.5763 8.60555 13.4276 8.7477 13.2855C8.90278 13.1304 9.04493 12.9753 9.17416 12.8203C9.23878 12.7556 9.29693 12.6846 9.34862 12.607C9.40032 12.5166 9.45201 12.4455 9.5037 12.3938C9.58124 12.2904 9.68462 12.187 9.81386 12.0836C9.95601 11.9803 10.0529 11.8769 10.1046 11.7735H10.0852C10.0723 11.7735 9.94309 11.8123 9.69755 11.8898C9.45201 11.9544 9.14832 12.0449 8.78647 12.1612C8.43755 12.2775 8.0757 12.3938 7.70093 12.5101C7.32616 12.6264 6.99663 12.7298 6.71232 12.8203C6.44093 12.9107 6.26001 12.9689 6.16955 12.9947C6.00155 13.0464 5.82063 13.0916 5.62678 13.1304C5.43293 13.1563 5.26493 13.2209 5.12278 13.3243C4.99355 13.4147 4.87078 13.615 4.75447 13.9252C4.63816 14.2353 4.54124 14.5584 4.4637 14.8944C4.39909 15.2175 4.36678 15.463 4.36678 15.631C4.36678 15.8378 4.41201 16.0058 4.50247 16.135C4.59293 16.2643 4.74801 16.3289 4.9677 16.3289ZM15.2376 20.7486C14.9921 20.7486 14.7336 20.6904 14.4622 20.5741C14.1779 20.4578 13.9388 20.2963 13.745 20.0895C13.5382 19.8827 13.4348 19.6436 13.4348 19.3723V19.3529C13.4478 19.327 13.4607 19.2818 13.4736 19.2172C13.4736 19.1655 13.4736 19.1332 13.4736 19.1203C13.4736 19.0169 13.4671 18.907 13.4542 18.7907C13.4413 18.6873 13.4348 18.5839 13.4348 18.4806C13.4348 18.4159 13.4413 18.3449 13.4542 18.2673C13.4542 18.1898 13.4736 18.1252 13.5124 18.0735L13.5705 18.0541C13.5705 18.1058 13.5705 18.1575 13.5705 18.2092C13.5576 18.2738 13.5511 18.3384 13.5511 18.403C13.5511 18.5064 13.5705 18.6098 13.6093 18.7132C13.6481 18.8166 13.6739 18.9264 13.6868 19.0427C13.7256 19.0944 13.7515 19.1461 13.7644 19.1978C13.7773 19.2495 13.7902 19.3012 13.8031 19.3529C13.8678 19.4692 13.9388 19.579 14.0164 19.6824C14.081 19.7858 14.1262 19.9021 14.1521 20.0313C14.333 20.1993 14.4751 20.3286 14.5785 20.419C14.6819 20.5224 14.8628 20.5741 15.1213 20.5741C15.173 20.5741 15.2828 20.5483 15.4508 20.4966C15.6188 20.4578 15.7093 20.4319 15.7222 20.419C16.097 20.2123 16.4265 19.9667 16.7108 19.6824C16.8918 19.5015 17.0533 19.3012 17.1955 19.0815C17.3376 18.8618 17.4733 18.6421 17.6025 18.4224C18.0936 17.6341 18.5071 16.807 18.8431 15.9412C19.1791 15.0753 19.4505 14.1966 19.6573 13.3049H19.5798C19.4505 13.5116 19.3019 13.699 19.1339 13.867C18.9659 14.0221 18.8173 14.203 18.6881 14.4098H18.6299L18.6105 14.4679C18.4813 14.5196 18.3327 14.6489 18.1647 14.8556C17.9967 15.0495 17.8481 15.1981 17.7188 15.3015L17.2924 15.6504C17.2665 15.6504 17.2536 15.6698 17.2536 15.7086C17.0856 15.7344 16.9305 15.8055 16.7884 15.9218C16.6591 16.0381 16.4653 16.0963 16.2068 16.0963C16.0905 16.0963 15.9419 16.0446 15.761 15.9412C15.593 15.8507 15.4767 15.7603 15.4121 15.6698C15.3991 15.631 15.3862 15.5923 15.3733 15.5535C15.3604 15.5147 15.341 15.4759 15.3151 15.4372C15.2764 15.3726 15.2376 15.3079 15.1988 15.2433C15.1601 15.1658 15.1407 15.0883 15.1407 15.0107C15.1407 14.9073 15.173 14.7264 15.2376 14.4679C15.3151 14.2095 15.4056 13.9704 15.509 13.7507C15.6253 13.531 15.7416 13.4212 15.8579 13.4212C15.8838 13.3953 15.9225 13.363 15.9742 13.3243C16.0259 13.2855 16.0518 13.2403 16.0518 13.1886C16.0518 13.1756 16.0453 13.1692 16.0324 13.1692C16.0324 13.1563 16.0324 13.1433 16.0324 13.1304H15.9936C16.0195 13.0529 16.1228 12.9172 16.3038 12.7233C16.4847 12.5295 16.6915 12.3227 16.9241 12.103C17.1696 11.8704 17.4022 11.6636 17.6219 11.4827C17.8416 11.3018 17.9967 11.1919 18.0871 11.1532C18.2422 11.0756 18.3973 11.011 18.5524 10.9593C18.7204 10.8947 18.8819 10.8366 19.037 10.7849V10.8043C19.1404 10.7784 19.2244 10.7655 19.289 10.7655C19.3665 10.7655 19.4441 10.7655 19.5216 10.7655C19.5991 10.7655 19.6702 10.7784 19.7348 10.8043C19.9287 10.8689 20.1096 10.9916 20.2776 11.1726C20.4585 11.3406 20.549 11.5344 20.549 11.7541C20.549 11.8316 20.5296 11.9092 20.4908 11.9867C20.465 12.0513 20.4521 12.1289 20.4521 12.2193C20.5425 12.2581 20.5878 12.3356 20.5878 12.4519C20.5878 12.5166 20.549 12.6587 20.4715 12.8784C20.3939 13.0852 20.3099 13.3049 20.2195 13.5375C20.129 13.7572 20.0644 13.9187 20.0256 14.0221C19.9868 14.1513 19.9545 14.2935 19.9287 14.4486C19.9028 14.5907 19.8576 14.7329 19.793 14.875C19.7542 15.0043 19.7025 15.1335 19.6379 15.2627C19.5862 15.379 19.5281 15.5018 19.4635 15.631C19.4376 15.7086 19.4118 15.7861 19.3859 15.8636C19.373 15.9412 19.3536 16.0123 19.3278 16.0769C19.289 16.1673 19.2438 16.2578 19.1921 16.3483C19.1533 16.4387 19.1145 16.5356 19.0758 16.639C19.037 16.7295 18.9659 16.8523 18.8625 17.0073C18.7591 17.1624 18.6945 17.2723 18.6687 17.3369C18.5782 17.6729 18.4361 17.9507 18.2422 18.1704H18.2616C18.2616 18.1963 18.2293 18.2609 18.1647 18.3643C18.1001 18.4676 18.029 18.571 17.9515 18.6744C17.8868 18.7907 17.8416 18.8618 17.8158 18.8876C17.7641 18.8876 17.7382 18.9135 17.7382 18.9652C17.7253 18.991 17.6736 19.0621 17.5831 19.1784C17.4927 19.2947 17.441 19.3658 17.4281 19.3916C17.4151 19.4304 17.3893 19.4627 17.3505 19.4886C17.3118 19.5144 17.2795 19.5403 17.2536 19.5661C17.2019 19.6178 17.1502 19.6824 17.0985 19.7599C17.0468 19.8375 16.9887 19.9086 16.9241 19.9732C16.8595 19.9861 16.7496 20.0572 16.5945 20.1864C16.4524 20.3156 16.265 20.4384 16.0324 20.5547C15.8127 20.6839 15.5478 20.7486 15.2376 20.7486ZM16.013 15.8443C16.0905 15.8443 16.1875 15.8313 16.3038 15.8055C16.4201 15.7667 16.5041 15.7215 16.5558 15.6698C16.5687 15.6698 16.5816 15.6633 16.5945 15.6504C16.6075 15.6246 16.6204 15.6181 16.6333 15.631H16.6527C16.8724 15.4889 17.0791 15.3403 17.273 15.1852C17.4798 15.0172 17.6865 14.8427 17.8933 14.6618C18.0096 14.5584 18.1259 14.4292 18.2422 14.2741C18.3715 14.119 18.5007 14.0092 18.6299 13.9446L18.6687 13.9252V13.8864C18.785 13.7443 18.9142 13.6086 19.0564 13.4793C19.1985 13.3501 19.3213 13.2079 19.4247 13.0529C19.4505 13.0141 19.4764 12.9753 19.5022 12.9366C19.5281 12.8849 19.5539 12.8396 19.5798 12.8009L19.9287 12.4132L20.045 12.2387C20.1225 12.187 20.2001 12.1612 20.2776 12.1612C20.2905 12.1483 20.3035 12.1418 20.3164 12.1418C20.3164 12.0772 20.2905 11.9738 20.2388 11.8316C20.2001 11.6766 20.1548 11.5344 20.1031 11.4052C20.0515 11.263 19.9933 11.179 19.9287 11.1532C19.877 11.1144 19.8059 11.095 19.7155 11.095C19.625 11.0821 19.5475 11.0756 19.4828 11.0756L19.2115 11.1338C18.9918 11.1855 18.7785 11.2824 18.5718 11.4246C18.3779 11.5667 18.1905 11.7024 18.0096 11.8316L17.6025 12.1224C17.4862 12.2129 17.3828 12.3163 17.2924 12.4326C17.2019 12.5359 17.105 12.6393 17.0016 12.7427C16.9499 12.7944 16.9047 12.859 16.8659 12.9366C16.8401 13.0141 16.8013 13.0852 16.7496 13.1498C16.5299 13.3824 16.3425 13.6279 16.1875 13.8864C16.0453 14.1449 15.9225 14.4292 15.8191 14.7393C15.7804 14.8298 15.7416 14.9332 15.7028 15.0495C15.6641 15.1529 15.6447 15.2627 15.6447 15.379C15.6447 15.5083 15.6705 15.6181 15.7222 15.7086C15.7868 15.799 15.8838 15.8443 16.013 15.8443Z" fill="#888888"/>
</svg>
