<svg width="24" height="24" viewBox="0 0 24 24" fill="none" xmlns="http://www.w3.org/2000/svg">
<path d="M3.76145 17L7.24745 7.34H7.80745L7.83545 7.97L4.62945 17H3.76145ZM5.53945 13.836V13.08H9.64145V13.836H5.53945ZM7.38745 7.97L7.35945 7.34H7.97545L11.4614 17H10.5514L7.38745 7.97ZM12.5093 13.43C12.5093 12.5713 12.6399 11.8713 12.9013 11.33C13.1626 10.7887 13.5079 10.392 13.9373 10.14C14.3759 9.87867 14.8519 9.748 15.3653 9.748C15.8133 9.748 16.2146 9.85533 16.5693 10.07C16.9333 10.2847 17.2179 10.5973 17.4233 11.008C17.6379 11.4187 17.7453 11.9227 17.7453 12.52L17.3533 12.66C17.3533 12.1747 17.2693 11.7733 17.1013 11.456C16.9333 11.1293 16.6999 10.8867 16.4013 10.728C16.1119 10.56 15.7853 10.476 15.4213 10.476C14.8239 10.476 14.3293 10.7 13.9373 11.148C13.5546 11.5867 13.3633 12.324 13.3633 13.36C13.3633 14.0227 13.4519 14.5593 13.6293 14.97C13.8066 15.3713 14.0399 15.6653 14.3293 15.852C14.6186 16.0387 14.9266 16.132 15.2533 16.132C15.6826 16.132 16.0979 16.0247 16.4993 15.81C16.9099 15.586 17.2646 15.278 17.5633 14.886V15.544C17.2926 15.9267 16.9333 16.2487 16.4853 16.51C16.0466 16.7713 15.5986 16.902 15.1413 16.902C14.6653 16.902 14.2266 16.776 13.8253 16.524C13.4239 16.272 13.1019 15.8893 12.8593 15.376C12.6259 14.8627 12.5093 14.214 12.5093 13.43ZM12.9293 19.058L13.2513 18.358C13.5499 18.5447 13.8579 18.6847 14.1753 18.778C14.4926 18.8807 14.8286 18.932 15.1833 18.932C15.8179 18.932 16.3359 18.7547 16.7373 18.4C17.1479 18.0547 17.3533 17.4713 17.3533 16.65V11.302L17.5773 9.86H18.3473L18.2633 10.406C18.2353 10.6113 18.2166 10.798 18.2073 10.966C18.1979 11.134 18.1933 11.3347 18.1933 11.568V16.72C18.1933 17.3733 18.0673 17.9193 17.8153 18.358C17.5633 18.806 17.2226 19.142 16.7933 19.366C16.3639 19.59 15.8786 19.702 15.3373 19.702C14.9079 19.702 14.4833 19.6413 14.0633 19.52C13.6433 19.408 13.2653 19.254 12.9293 19.058Z" fill="#888888"/>
</svg>
