<svg width="24" height="24" viewBox="0 0 24 24" fill="none" xmlns="http://www.w3.org/2000/svg">
<path d="M3.27931 17L6.86331 7.34H7.88531L7.99731 9.23L5.30931 17H3.27931ZM5.47731 14.83V13.248H10.1813V14.83H5.47731ZM7.52131 9.23L7.57731 7.34H8.71131L12.2953 17H10.2093L7.52131 9.23ZM12.9848 13.164C12.9848 12.3893 13.1155 11.7313 13.3768 11.19C13.6475 10.6487 14.0068 10.238 14.4548 9.958C14.9121 9.678 15.4301 9.538 16.0088 9.538C16.4848 9.538 16.9095 9.65933 17.2828 9.902C17.6655 10.1353 17.9688 10.4947 18.1928 10.98C18.4168 11.4653 18.5288 12.072 18.5288 12.8L17.8568 12.898C17.8568 12.4593 17.7961 12.1047 17.6748 11.834C17.5628 11.554 17.4041 11.3487 17.1988 11.218C16.9935 11.078 16.7601 11.008 16.4988 11.008C16.0041 11.008 15.6028 11.1947 15.2948 11.568C14.9868 11.932 14.8328 12.436 14.8328 13.08C14.8328 13.5093 14.8935 13.8733 15.0148 14.172C15.1455 14.4613 15.3228 14.6807 15.5468 14.83C15.7708 14.97 16.0275 15.04 16.3168 15.04C16.6155 15.04 16.9188 14.9747 17.2268 14.844C17.5441 14.7133 17.8241 14.5313 18.0668 14.298V15.474C17.7775 15.866 17.4321 16.1647 17.0308 16.37C16.6388 16.566 16.2188 16.664 15.7708 16.664C15.2481 16.664 14.7768 16.524 14.3568 16.244C13.9368 15.964 13.6008 15.5627 13.3488 15.04C13.1061 14.5173 12.9848 13.892 12.9848 13.164ZM13.4048 19.142L13.8948 17.602C14.1935 17.7513 14.5108 17.8773 14.8468 17.98C15.1828 18.0827 15.5375 18.134 15.9108 18.134C16.5081 18.134 16.9795 17.9707 17.3248 17.644C17.6795 17.3173 17.8568 16.7993 17.8568 16.09V11.092L18.1368 9.692H19.9008L19.7888 10.364C19.7515 10.5693 19.7235 10.7513 19.7048 10.91C19.6955 11.0593 19.6908 11.232 19.6908 11.428V16.09C19.6908 16.8553 19.5321 17.5133 19.2148 18.064C18.8975 18.6147 18.4635 19.03 17.9128 19.31C17.3621 19.5993 16.7321 19.744 16.0228 19.744C15.5095 19.744 15.0288 19.6833 14.5808 19.562C14.1328 19.4407 13.7408 19.3007 13.4048 19.142Z" fill="#888888"/>
</svg>
