<svg width="24" height="24" viewBox="0 0 24 24" fill="none" xmlns="http://www.w3.org/2000/svg">
<path d="M3.42516 17L7.07916 7.34H7.93316L8.04516 8.922L5.14716 17H3.42516ZM5.44116 14.578V13.164H10.2712V14.578H5.44116ZM7.56916 8.922L7.62516 7.34H8.59116L12.2452 17H10.4672L7.56916 8.922ZM13.1167 13.234C13.1167 12.4687 13.2427 11.8153 13.4947 11.274C13.756 10.7233 14.1107 10.308 14.5587 10.028C15.0067 9.73867 15.5247 9.594 16.1127 9.594C16.5513 9.594 16.962 9.71067 17.3447 9.944C17.7273 10.168 18.0353 10.5227 18.2687 11.008C18.502 11.484 18.6187 12.0953 18.6187 12.842L17.9887 12.968C17.9887 12.4733 17.9187 12.0767 17.7787 11.778C17.6387 11.47 17.452 11.2413 17.2187 11.092C16.9947 10.9427 16.7473 10.868 16.4767 10.868C15.9447 10.868 15.5153 11.0827 15.1887 11.512C14.8713 11.932 14.7127 12.4873 14.7127 13.178C14.7127 13.6447 14.778 14.0413 14.9087 14.368C15.0487 14.6853 15.24 14.928 15.4827 15.096C15.7253 15.264 16.0007 15.348 16.3087 15.348C16.6353 15.348 16.962 15.2687 17.2887 15.11C17.6247 14.9513 17.928 14.732 18.1987 14.452V15.53C17.9 15.9127 17.5453 16.216 17.1347 16.44C16.7333 16.6547 16.3087 16.762 15.8607 16.762C15.3473 16.762 14.8807 16.622 14.4607 16.342C14.05 16.0527 13.7233 15.6467 13.4807 15.124C13.238 14.6013 13.1167 13.9713 13.1167 13.234ZM13.4947 19.086L13.9707 17.742C14.2787 17.91 14.596 18.0453 14.9227 18.148C15.2493 18.26 15.6133 18.316 16.0147 18.316C16.612 18.316 17.088 18.148 17.4427 17.812C17.8067 17.476 17.9887 16.9393 17.9887 16.202V11.134L18.2827 9.734H19.7807L19.6687 10.378C19.6313 10.5833 19.6033 10.77 19.5847 10.938C19.5753 11.0967 19.5707 11.274 19.5707 11.47V16.216C19.5707 16.9627 19.4213 17.5973 19.1227 18.12C18.824 18.652 18.4087 19.0533 17.8767 19.324C17.354 19.604 16.766 19.744 16.1127 19.744C15.618 19.744 15.142 19.6787 14.6847 19.548C14.2273 19.4173 13.8307 19.2633 13.4947 19.086Z" fill="#888888"/>
</svg>
