<svg width="24" height="24" viewBox="0 0 24 24" fill="none" xmlns="http://www.w3.org/2000/svg">
<path d="M3.13379 17L6.64779 7.34H7.82379L7.93579 9.524L5.45779 17H3.13379ZM5.49979 15.096V13.318H10.0638V15.096H5.49979ZM7.45979 9.524L7.51579 7.34H8.80379L12.3178 17H9.93779L7.45979 9.524ZM12.8533 13.094C12.8533 12.31 12.9886 11.652 13.2593 11.12C13.53 10.5787 13.894 10.1727 14.3513 9.902C14.8086 9.622 15.322 9.482 15.8913 9.482C16.3953 9.482 16.8386 9.608 17.2213 9.86C17.604 10.112 17.9026 10.4853 18.1173 10.98C18.332 11.4653 18.4393 12.058 18.4393 12.758L17.7113 12.828C17.7113 12.436 17.66 12.1187 17.5573 11.876C17.464 11.624 17.3286 11.4373 17.1513 11.316C16.974 11.1947 16.7593 11.134 16.5073 11.134C16.0593 11.134 15.686 11.2973 15.3873 11.624C15.098 11.9413 14.9533 12.394 14.9533 12.982C14.9533 13.374 15.0093 13.7007 15.1213 13.962C15.2333 14.2233 15.392 14.4193 15.5973 14.55C15.8026 14.6807 16.0406 14.746 16.3113 14.746C16.5913 14.746 16.876 14.6947 17.1653 14.592C17.4546 14.48 17.7066 14.326 17.9213 14.13V15.418C17.6413 15.81 17.3053 16.104 16.9133 16.3C16.5306 16.4867 16.12 16.58 15.6813 16.58C15.14 16.58 14.6546 16.44 14.2253 16.16C13.8053 15.88 13.4693 15.4787 13.2173 14.956C12.9746 14.4333 12.8533 13.8127 12.8533 13.094ZM13.3013 19.198L13.8053 17.462C14.0853 17.602 14.398 17.7187 14.7433 17.812C15.0886 17.9053 15.434 17.952 15.7793 17.952C16.386 17.952 16.8573 17.7933 17.1933 17.476C17.5386 17.168 17.7113 16.6733 17.7113 15.992V11.05L17.9773 9.65H20.0213L19.9093 10.336C19.872 10.5413 19.844 10.7233 19.8253 10.882C19.816 11.0313 19.8113 11.204 19.8113 11.4V15.964C19.8113 16.7573 19.6433 17.4387 19.3073 18.008C18.9713 18.5773 18.5093 19.0113 17.9213 19.31C17.3426 19.6087 16.68 19.758 15.9333 19.758C15.392 19.758 14.902 19.702 14.4633 19.59C14.034 19.478 13.6466 19.3473 13.3013 19.198Z" fill="#888888"/>
</svg>
