<svg width="24" height="24" viewBox="0 0 24 24" fill="none" xmlns="http://www.w3.org/2000/svg">
<path d="M6.17856 16H5.74456C5.6419 16 5.60923 15.944 5.64656 15.832L8.43256 7.166C8.46056 7.054 8.5259 6.998 8.62856 6.998H9.28656C9.3799 6.998 9.44523 7.054 9.48256 7.166L12.2686 15.832C12.2966 15.944 12.2639 16 12.1706 16H11.7226C11.6292 16 11.5686 15.944 11.5406 15.832L10.7846 13.592H7.11656L6.36056 15.832C6.32323 15.944 6.26256 16 6.17856 16ZM8.92256 7.768L7.31256 12.962H10.6026L8.97856 7.768H8.92256ZM16.5134 15.594H15.6034C15.0061 15.594 14.5301 15.4167 14.1754 15.062C13.8301 14.7073 13.6574 14.2267 13.6574 13.62V10.848C13.6574 10.232 13.8301 9.74667 14.1754 9.392C14.5301 9.03733 15.0107 8.86 15.6174 8.86H18.5854C18.6881 8.86 18.7394 8.916 18.7394 9.028V15.972C18.7394 16.588 18.5621 17.0733 18.2074 17.428C17.8527 17.7827 17.3721 17.96 16.7654 17.96H14.2174C14.1147 17.96 14.0634 17.9087 14.0634 17.806V17.47C14.0634 17.3767 14.1147 17.33 14.2174 17.33H16.7094C17.1387 17.33 17.4654 17.2087 17.6894 16.966C17.9134 16.7327 18.0254 16.392 18.0254 15.944V14.866H17.9694C17.7361 15.3513 17.2507 15.594 16.5134 15.594ZM18.0254 13.592V9.616C18.0254 9.532 17.9834 9.49 17.8994 9.49H15.6874C15.2581 9.49 14.9267 9.61133 14.6934 9.854C14.4694 10.0873 14.3574 10.428 14.3574 10.876V13.592C14.3574 14.0307 14.4694 14.3713 14.6934 14.614C14.9267 14.8473 15.2581 14.964 15.6874 14.964H16.5834C17.0314 14.964 17.3814 14.8473 17.6334 14.614C17.8947 14.3713 18.0254 14.0307 18.0254 13.592Z" fill="#888888"/>
</svg>
