<svg width="24" height="24" viewBox="0 0 24 24" fill="none" xmlns="http://www.w3.org/2000/svg">
<path d="M6.32163 16H4.97763C4.80963 16 4.75363 15.902 4.80963 15.706L7.02163 7.292C7.08697 7.096 7.22697 6.998 7.44163 6.998H9.30363C9.53697 6.998 9.67697 7.096 9.72363 7.292L11.9356 15.706C11.9916 15.902 11.9356 16 11.7676 16H10.4236C10.321 16 10.251 15.9813 10.2136 15.944C10.1763 15.8973 10.1483 15.818 10.1296 15.706L9.73763 14.166H7.00763L6.61563 15.706C6.59697 15.818 6.5643 15.8973 6.51763 15.944C6.4803 15.9813 6.41497 16 6.32163 16ZM8.35163 8.692L7.34363 12.738H9.41563L8.40763 8.692H8.35163ZM15.5566 15.678H15.0946C14.3759 15.678 13.8299 15.482 13.4566 15.09C13.0926 14.698 12.9106 14.1333 12.9106 13.396V11.142C12.9106 10.4047 13.1113 9.84 13.5126 9.448C13.9139 9.056 14.4833 8.86 15.2206 8.86H18.4546C18.6599 8.86 18.7626 8.958 18.7626 9.154V16.056C18.7626 16.784 18.5573 17.344 18.1466 17.736C17.7453 18.128 17.1806 18.324 16.4526 18.324H13.7646C13.6526 18.324 13.5733 18.3007 13.5266 18.254C13.4893 18.2167 13.4706 18.1467 13.4706 18.044V17.078C13.4706 16.882 13.5686 16.784 13.7646 16.784H16.1586C16.4573 16.784 16.6673 16.7187 16.7886 16.588C16.9193 16.4667 16.9846 16.2613 16.9846 15.972V14.908H16.9286C16.8259 15.16 16.6439 15.3513 16.3826 15.482C16.1213 15.6127 15.8459 15.678 15.5566 15.678ZM16.9846 13.074V10.554C16.9846 10.4513 16.9286 10.4 16.8166 10.4H15.5006C15.2019 10.4 14.9919 10.4653 14.8706 10.596C14.7493 10.7173 14.6886 10.9273 14.6886 11.226V13.312C14.6886 13.6107 14.7493 13.8207 14.8706 13.942C14.9919 14.0633 15.2019 14.124 15.5006 14.124H16.0186C16.6626 14.124 16.9846 13.774 16.9846 13.074Z" fill="#333333"/>
</svg>
