<svg width="24" height="24" viewBox="0 0 24 24" fill="none" xmlns="http://www.w3.org/2000/svg">
<path d="M8.6166 7.06H9.0366L10.9686 17H10.4506L9.7926 13.57H5.0886L2.9746 17H2.4426L8.6166 7.06ZM9.7366 13.15L8.7006 7.676L5.3126 13.15H9.7366ZM14.1726 20.122C13.762 20.122 13.4073 20.08 13.1086 19.996C12.81 19.912 12.5533 19.7953 12.3386 19.646C12.1333 19.4967 11.9653 19.3147 11.8346 19.1C11.6946 18.8947 11.5826 18.666 11.4986 18.414L11.8906 18.218C12.0586 18.7407 12.3526 19.1187 12.7726 19.352C13.202 19.5853 13.6966 19.702 14.2566 19.702C14.6206 19.702 14.9753 19.6507 15.3206 19.548C15.666 19.4453 15.9786 19.2867 16.2586 19.072C16.548 18.8667 16.7953 18.61 17.0006 18.302C17.2153 17.994 17.3646 17.6347 17.4486 17.224L17.8266 15.516C17.4346 15.992 16.968 16.3793 16.4266 16.678C15.8853 16.9767 15.3533 17.126 14.8306 17.126C14.42 17.126 14.056 17.042 13.7386 16.874C13.4213 16.706 13.1506 16.482 12.9266 16.202C12.7026 15.9127 12.53 15.586 12.4086 15.222C12.2966 14.8487 12.2406 14.4613 12.2406 14.06C12.2406 13.5093 12.3526 12.968 12.5766 12.436C12.8006 11.904 13.0993 11.428 13.4726 11.008C13.846 10.588 14.28 10.252 14.7746 10C15.2693 9.73867 15.792 9.608 16.3426 9.608C16.6506 9.608 16.926 9.65467 17.1686 9.748C17.4206 9.84133 17.64 9.96733 17.8266 10.126C18.0226 10.2847 18.1953 10.4713 18.3446 10.686C18.494 10.9007 18.6246 11.1293 18.7366 11.372L19.0866 9.72H19.5206L17.9246 17.224C17.822 17.7187 17.6446 18.148 17.3926 18.512C17.1406 18.876 16.8466 19.1747 16.5106 19.408C16.1746 19.6507 15.8013 19.828 15.3906 19.94C14.9893 20.0613 14.5833 20.122 14.1726 20.122ZM15.0126 16.692C15.3206 16.692 15.6333 16.6313 15.9506 16.51C16.2773 16.3793 16.5806 16.216 16.8606 16.02C17.1406 15.8147 17.3833 15.5907 17.5886 15.348C17.794 15.096 17.9386 14.844 18.0226 14.592L18.5546 12.086C18.508 11.7967 18.4193 11.526 18.2886 11.274C18.158 11.022 17.99 10.8073 17.7846 10.63C17.5793 10.4527 17.3506 10.3127 17.0986 10.21C16.8466 10.1073 16.5806 10.056 16.3006 10.056C15.7966 10.056 15.3253 10.1773 14.8866 10.42C14.4573 10.6627 14.0793 10.9753 13.7526 11.358C13.4353 11.7407 13.1833 12.1653 12.9966 12.632C12.8193 13.0987 12.7306 13.5513 12.7306 13.99C12.7306 14.354 12.782 14.6993 12.8846 15.026C12.9966 15.3527 13.1506 15.642 13.3466 15.894C13.552 16.1367 13.7946 16.3327 14.0746 16.482C14.3546 16.622 14.6673 16.692 15.0126 16.692Z" fill="#333333"/>
</svg>
