<svg width="24" height="24" viewBox="0 0 24 24" fill="none" xmlns="http://www.w3.org/2000/svg">
<path d="M8.74162 7.06H8.99362L10.9816 17H10.6736L9.95962 13.444H5.04562L2.81962 17H2.51162L8.74162 7.06ZM9.90362 13.164L8.78362 7.466L5.21362 13.164H9.90362ZM14.2 20.122C13.7893 20.122 13.4346 20.08 13.136 19.996C12.8373 19.912 12.5853 19.7907 12.38 19.632C12.1746 19.4827 12.0066 19.3007 11.876 19.086C11.7453 18.8807 11.6426 18.6473 11.568 18.386L11.848 18.302C11.932 18.5727 12.0486 18.806 12.198 19.002C12.3566 19.198 12.5386 19.3567 12.744 19.478C12.9586 19.6087 13.192 19.702 13.444 19.758C13.7053 19.814 13.976 19.842 14.256 19.842C14.6293 19.842 14.9933 19.786 15.348 19.674C15.712 19.5713 16.0386 19.4127 16.328 19.198C16.6266 18.9833 16.8833 18.7173 17.098 18.4C17.3126 18.092 17.4666 17.728 17.56 17.308L17.952 15.488C17.756 15.7307 17.5366 15.9547 17.294 16.16C17.0513 16.356 16.7946 16.5287 16.524 16.678C16.2626 16.8273 15.992 16.9393 15.712 17.014C15.432 17.098 15.1613 17.14 14.9 17.14C14.4893 17.14 14.1206 17.056 13.794 16.888C13.4766 16.7107 13.206 16.482 12.982 16.202C12.758 15.9127 12.5853 15.5813 12.464 15.208C12.352 14.8347 12.296 14.4473 12.296 14.046C12.296 13.5047 12.408 12.9727 12.632 12.45C12.856 11.918 13.1546 11.442 13.528 11.022C13.9013 10.602 14.3353 10.266 14.83 10.014C15.3246 9.75267 15.8426 9.622 16.384 9.622C16.692 9.622 16.972 9.66867 17.224 9.762C17.476 9.85533 17.7 9.986 17.896 10.154C18.092 10.3127 18.2646 10.504 18.414 10.728C18.5726 10.9427 18.708 11.176 18.82 11.428L19.184 9.734H19.45L17.84 17.308C17.7373 17.784 17.5646 18.1993 17.322 18.554C17.0793 18.9087 16.79 19.2027 16.454 19.436C16.1273 19.6693 15.768 19.842 15.376 19.954C14.984 20.066 14.592 20.122 14.2 20.122ZM14.97 16.86C15.2966 16.86 15.628 16.7947 15.964 16.664C16.3093 16.524 16.6266 16.3467 16.916 16.132C17.2146 15.9173 17.4713 15.6793 17.686 15.418C17.91 15.1567 18.0593 14.8953 18.134 14.634L18.694 12.016C18.6473 11.708 18.554 11.428 18.414 11.176C18.274 10.9147 18.0966 10.6907 17.882 10.504C17.6766 10.3173 17.4386 10.1727 17.168 10.07C16.8973 9.958 16.6173 9.902 16.328 9.902C15.796 9.902 15.3013 10.0327 14.844 10.294C14.3866 10.546 13.99 10.8727 13.654 11.274C13.318 11.6753 13.052 12.1187 12.856 12.604C12.6693 13.0893 12.576 13.5607 12.576 14.018C12.576 14.4007 12.632 14.7647 12.744 15.11C12.856 15.4553 13.0146 15.7587 13.22 16.02C13.4346 16.272 13.6866 16.4773 13.976 16.636C14.2746 16.7853 14.606 16.86 14.97 16.86Z" fill="#333333"/>
</svg>
