<svg width="24" height="24" viewBox="0 0 24 24" fill="none" xmlns="http://www.w3.org/2000/svg">
<path d="M8.02952 7.06H10.1155L11.4035 17H9.05152L8.84152 14.774H6.01352L4.87952 17H2.51352L8.02952 7.06ZM8.79952 13.192L8.51952 9.678L6.69952 13.192H8.79952ZM14.2742 20.122C13.5182 20.122 12.8975 19.996 12.4122 19.744C11.9268 19.492 11.5348 19.128 11.2362 18.652L12.6922 17.434C12.8788 17.742 13.1402 17.9847 13.4762 18.162C13.8215 18.3487 14.2042 18.442 14.6242 18.442C14.8762 18.442 15.1235 18.4047 15.3662 18.33C15.6088 18.2553 15.8328 18.1387 16.0382 17.98C16.2435 17.8307 16.4208 17.63 16.5702 17.378C16.7195 17.1353 16.8315 16.8413 16.9062 16.496L17.0462 15.782C16.7568 16.1927 16.3882 16.5053 15.9402 16.72C15.5015 16.9253 15.0535 17.028 14.5962 17.028C14.2135 17.028 13.8728 16.9533 13.5742 16.804C13.2848 16.6547 13.0375 16.4493 12.8322 16.188C12.6268 15.9267 12.4682 15.6233 12.3562 15.278C12.2535 14.9233 12.2022 14.5407 12.2022 14.13C12.2022 13.5047 12.3142 12.912 12.5382 12.352C12.7622 11.792 13.0655 11.302 13.4482 10.882C13.8308 10.462 14.2742 10.1307 14.7782 9.888C15.2822 9.636 15.8142 9.51 16.3742 9.51C16.8875 9.51 17.3122 9.63133 17.6482 9.874C17.9935 10.1073 18.2408 10.434 18.3902 10.854L18.6562 9.65H20.6022L19.1462 16.496C19.0248 17.056 18.8148 17.56 18.5162 18.008C18.2268 18.456 17.8675 18.834 17.4382 19.142C17.0182 19.4593 16.5375 19.702 15.9962 19.87C15.4548 20.038 14.8808 20.122 14.2742 20.122ZM15.7722 15.25C16.0708 15.25 16.3602 15.1567 16.6402 14.97C16.9202 14.774 17.1675 14.5267 17.3822 14.228L17.7182 12.688C17.6622 12.296 17.5175 11.988 17.2842 11.764C17.0508 11.5307 16.7848 11.414 16.4862 11.414C16.2342 11.414 15.9868 11.484 15.7442 11.624C15.5108 11.764 15.3055 11.946 15.1282 12.17C14.9508 12.394 14.8062 12.6507 14.6942 12.94C14.5915 13.22 14.5402 13.5047 14.5402 13.794C14.5402 14.214 14.6475 14.564 14.8622 14.844C15.0862 15.1147 15.3895 15.25 15.7722 15.25Z" fill="#333333"/>
</svg>
