<svg width="24" height="24" viewBox="0 0 24 24" fill="none" xmlns="http://www.w3.org/2000/svg">
<path d="M7.37092 7.06H8.19692L12.3269 17H11.2909L10.0029 13.892H5.53692L4.26292 17H3.21292L7.37092 7.06ZM9.77892 13.122L7.77692 8.208L5.74692 13.122H9.77892ZM16.2768 17.098C15.7728 17.098 15.3108 16.9953 14.8908 16.79C14.4801 16.5753 14.1208 16.2953 13.8128 15.95C13.5141 15.6047 13.2808 15.208 13.1128 14.76C12.9448 14.312 12.8608 13.85 12.8608 13.374C12.8608 12.87 12.9401 12.3893 13.0988 11.932C13.2668 11.4653 13.5001 11.0593 13.7988 10.714C14.0974 10.3687 14.4521 10.0933 14.8628 9.888C15.2828 9.68267 15.7448 9.58 16.2488 9.58C16.8741 9.58 17.4154 9.73867 17.8728 10.056C18.3301 10.364 18.7221 10.756 19.0488 11.232V9.706H19.9028V17.028C19.9028 17.532 19.8048 17.9753 19.6088 18.358C19.4221 18.75 19.1654 19.0767 18.8388 19.338C18.5214 19.5993 18.1434 19.7953 17.7048 19.926C17.2754 20.0567 16.8181 20.122 16.3328 20.122C15.4928 20.122 14.8161 19.9727 14.3028 19.674C13.7894 19.3753 13.3741 18.974 13.0568 18.47L13.6448 18.008C13.9341 18.4747 14.3168 18.8153 14.7928 19.03C15.2688 19.254 15.7821 19.366 16.3328 19.366C16.6874 19.366 17.0234 19.3147 17.3408 19.212C17.6581 19.1187 17.9334 18.974 18.1668 18.778C18.4094 18.5913 18.6008 18.3487 18.7408 18.05C18.8808 17.7607 18.9508 17.42 18.9508 17.028V15.586C18.6708 16.0527 18.2881 16.4213 17.8028 16.692C17.3174 16.9627 16.8088 17.098 16.2768 17.098ZM16.5428 16.3C16.8228 16.3 17.0981 16.2487 17.3688 16.146C17.6394 16.0433 17.8821 15.908 18.0968 15.74C18.3208 15.5627 18.5074 15.3667 18.6568 15.152C18.8061 14.9373 18.9041 14.718 18.9508 14.494V12.24C18.8481 11.9787 18.7081 11.736 18.5308 11.512C18.3534 11.288 18.1528 11.0967 17.9288 10.938C17.7048 10.7793 17.4621 10.6533 17.2008 10.56C16.9488 10.4667 16.6921 10.42 16.4308 10.42C16.0201 10.42 15.6514 10.5087 15.3248 10.686C15.0074 10.854 14.7368 11.078 14.5128 11.358C14.2888 11.638 14.1161 11.9553 13.9948 12.31C13.8828 12.6647 13.8268 13.024 13.8268 13.388C13.8268 13.78 13.8968 14.1533 14.0368 14.508C14.1768 14.8627 14.3681 15.1753 14.6108 15.446C14.8628 15.7073 15.1521 15.9173 15.4788 16.076C15.8054 16.2253 16.1601 16.3 16.5428 16.3Z" fill="#333333"/>
</svg>
