<svg width="24" height="24" viewBox="0 0 24 24" fill="none" xmlns="http://www.w3.org/2000/svg">
<path d="M8.26003 7.06H9.98203L11.424 17H9.43603L9.12803 14.522H5.92203L4.57803 17H2.59003L8.26003 7.06ZM9.08603 13.164L8.65203 9.258L6.52403 13.164H9.08603ZM14.3774 20.122C13.612 20.122 12.9914 19.9867 12.5154 19.716C12.0487 19.4547 11.68 19.0813 11.4094 18.596L12.6414 17.602C12.828 17.9473 13.0987 18.218 13.4534 18.414C13.808 18.61 14.214 18.708 14.6714 18.708C14.942 18.708 15.208 18.666 15.4694 18.582C15.74 18.5073 15.9827 18.386 16.1974 18.218C16.4214 18.05 16.6127 17.8353 16.7714 17.574C16.9394 17.3127 17.0607 17.0047 17.1354 16.65L17.3314 15.726C17.014 16.146 16.6267 16.4727 16.1694 16.706C15.712 16.93 15.2454 17.042 14.7694 17.042C14.3774 17.042 14.032 16.9673 13.7334 16.818C13.4347 16.6593 13.178 16.4493 12.9634 16.188C12.758 15.9267 12.5994 15.6187 12.4874 15.264C12.3847 14.9093 12.3334 14.5267 12.3334 14.116C12.3334 13.5093 12.4454 12.9307 12.6694 12.38C12.8934 11.82 13.192 11.33 13.5654 10.91C13.948 10.49 14.3867 10.1587 14.8814 9.916C15.3854 9.664 15.9174 9.538 16.4774 9.538C17.0187 9.538 17.462 9.66867 17.8074 9.93C18.162 10.182 18.4234 10.5227 18.5914 10.952L18.8574 9.664H20.5094L19.0114 16.65C18.8994 17.1913 18.6987 17.6767 18.4094 18.106C18.1294 18.5353 17.784 18.8993 17.3734 19.198C16.9627 19.4967 16.5007 19.7253 15.9874 19.884C15.4834 20.0427 14.9467 20.122 14.3774 20.122ZM15.7354 15.544C16.0994 15.544 16.454 15.4227 16.7994 15.18C17.154 14.9373 17.434 14.648 17.6394 14.312L18.0034 12.562C17.938 12.1327 17.77 11.7873 17.4994 11.526C17.2287 11.2647 16.916 11.134 16.5614 11.134C16.2534 11.134 15.9594 11.2133 15.6794 11.372C15.4087 11.5307 15.166 11.7407 14.9514 12.002C14.746 12.254 14.5827 12.5433 14.4614 12.87C14.34 13.1873 14.2794 13.5093 14.2794 13.836C14.2794 14.0787 14.312 14.3027 14.3774 14.508C14.452 14.7133 14.55 14.8953 14.6714 15.054C14.802 15.2033 14.956 15.3247 15.1334 15.418C15.3107 15.502 15.5114 15.544 15.7354 15.544Z" fill="#333333"/>
</svg>
