<svg width="24" height="24" viewBox="0 0 24 24" fill="none" xmlns="http://www.w3.org/2000/svg">
<path d="M7.75051 7.06H10.2565L11.3625 17H8.59051L8.49251 15.054H6.11251L5.20251 17H2.41651L7.75051 7.06ZM8.45051 13.234L8.33851 10.154L6.89651 13.234H8.45051ZM14.1918 20.122C13.4545 20.122 12.8292 20.0007 12.3158 19.758C11.8118 19.5153 11.3918 19.1653 11.0558 18.708L12.7638 17.252C12.9598 17.504 13.2165 17.714 13.5338 17.882C13.8512 18.0593 14.2058 18.148 14.5978 18.148C14.8218 18.148 15.0412 18.1153 15.2558 18.05C15.4798 17.9847 15.6805 17.8773 15.8578 17.728C16.0445 17.588 16.2078 17.4013 16.3478 17.168C16.4878 16.9347 16.5905 16.6547 16.6558 16.328L16.7538 15.852C16.4832 16.244 16.1378 16.5333 15.7178 16.72C15.3072 16.9067 14.8778 17 14.4298 17C14.0565 17 13.7205 16.93 13.4218 16.79C13.1325 16.6407 12.8852 16.44 12.6798 16.188C12.4838 15.936 12.3345 15.6373 12.2318 15.292C12.1292 14.9373 12.0778 14.5547 12.0778 14.144C12.0778 13.5 12.1898 12.898 12.4138 12.338C12.6378 11.7687 12.9412 11.274 13.3238 10.854C13.7065 10.434 14.1498 10.1027 14.6538 9.86C15.1672 9.61733 15.7038 9.496 16.2638 9.496C16.7585 9.496 17.1692 9.60333 17.4958 9.818C17.8318 10.0233 18.0652 10.3267 18.1958 10.728L18.4338 9.636H20.7438L19.3158 16.328C19.1945 16.9067 18.9798 17.4293 18.6718 17.896C18.3732 18.3627 17.9998 18.7593 17.5518 19.086C17.1038 19.4127 16.5952 19.6647 16.0258 19.842C15.4565 20.0287 14.8452 20.122 14.1918 20.122ZM15.8438 14.9C16.0678 14.9 16.2778 14.8393 16.4738 14.718C16.6792 14.5873 16.8938 14.396 17.1178 14.144L17.3978 12.828C17.3512 12.492 17.2345 12.226 17.0478 12.03C16.8612 11.834 16.6465 11.736 16.4038 11.736C16.2078 11.736 16.0165 11.792 15.8298 11.904C15.6525 12.016 15.4892 12.1653 15.3398 12.352C15.1905 12.5387 15.0692 12.7533 14.9758 12.996C14.8918 13.2293 14.8498 13.4767 14.8498 13.738C14.8498 14.0833 14.9385 14.3633 15.1158 14.578C15.2932 14.7927 15.5358 14.9 15.8438 14.9Z" fill="#888888"/>
</svg>
