<svg width="24" height="24" viewBox="0 0 24 24" fill="none" xmlns="http://www.w3.org/2000/svg">
<path d="M8.44887 7.06H9.83487L11.4309 17H9.77887L9.38687 14.298H5.81687L4.29087 17H2.63887L8.44887 7.06ZM9.33087 13.136L8.77087 8.866L6.33487 13.136H9.33087ZM14.4666 20.122C13.6919 20.122 13.0759 19.982 12.6186 19.702C12.1706 19.4313 11.8206 19.0487 11.5686 18.554L12.6046 17.742C12.7912 18.134 13.0666 18.4327 13.4306 18.638C13.8039 18.8433 14.2286 18.946 14.7046 18.946C15.0032 18.946 15.2926 18.904 15.5726 18.82C15.8619 18.736 16.1279 18.6053 16.3706 18.428C16.6132 18.2507 16.8186 18.0267 16.9866 17.756C17.1639 17.4853 17.2899 17.1633 17.3646 16.79L17.5886 15.67C17.2619 16.118 16.8559 16.4633 16.3706 16.706C15.8852 16.9487 15.4046 17.07 14.9286 17.07C14.5366 17.07 14.1866 16.9907 13.8786 16.832C13.5706 16.6733 13.3092 16.4587 13.0946 16.188C12.8892 15.9173 12.7306 15.6047 12.6186 15.25C12.5066 14.8953 12.4506 14.5173 12.4506 14.116C12.4506 13.5187 12.5626 12.9447 12.7866 12.394C13.0106 11.8433 13.3092 11.358 13.6826 10.938C14.0652 10.518 14.5039 10.182 14.9986 9.93C15.5026 9.678 16.0346 9.552 16.5946 9.552C17.1546 9.552 17.6072 9.692 17.9526 9.972C18.3072 10.252 18.5779 10.616 18.7646 11.064L19.0586 9.678H20.4166L18.9046 16.79C18.7926 17.322 18.5966 17.7933 18.3166 18.204C18.0366 18.6147 17.7006 18.96 17.3086 19.24C16.9166 19.5293 16.4779 19.7487 15.9926 19.898C15.5072 20.0473 14.9986 20.122 14.4666 20.122ZM15.6986 15.824C15.9132 15.824 16.1279 15.7867 16.3426 15.712C16.5572 15.628 16.7626 15.5207 16.9586 15.39C17.1546 15.25 17.3319 15.096 17.4906 14.928C17.6492 14.7507 17.7752 14.564 17.8686 14.368L18.2886 12.45C18.2139 11.9833 18.0226 11.6053 17.7146 11.316C17.4066 11.0173 17.0519 10.868 16.6506 10.868C16.2959 10.868 15.9599 10.9613 15.6426 11.148C15.3252 11.3253 15.0452 11.5587 14.8026 11.848C14.5692 12.128 14.3826 12.45 14.2426 12.814C14.1119 13.1687 14.0466 13.5187 14.0466 13.864C14.0466 14.1347 14.0839 14.3913 14.1586 14.634C14.2426 14.8673 14.3546 15.0727 14.4946 15.25C14.6439 15.4273 14.8166 15.5673 15.0126 15.67C15.2179 15.7727 15.4466 15.824 15.6986 15.824Z" fill="#888888"/>
</svg>
