<svg width="24" height="24" viewBox="0 0 24 24" fill="none" xmlns="http://www.w3.org/2000/svg">
<path d="M11.5222 16H9.5342L9.2262 13.788H6.5242L5.5302 16H3.4862L7.9242 6.648H10.0662L11.5222 16ZM9.0302 12.262L8.6802 8.58L7.1962 12.262H9.0302ZM15.2815 16.322H13.8675C13.3729 16.4807 13.0882 16.7653 13.0135 17.176C13.0042 17.2133 12.9995 17.2507 12.9995 17.288C12.9995 17.736 13.4662 17.96 14.3995 17.96C15.5289 17.96 16.1449 17.6193 16.2475 16.938C16.2569 16.9007 16.2615 16.8353 16.2615 16.742C16.2615 16.6487 16.1962 16.5553 16.0655 16.462C15.9442 16.3687 15.6829 16.322 15.2815 16.322ZM15.5195 10.134C14.8662 10.134 14.4789 10.554 14.3575 11.394C14.3389 11.534 14.3295 11.688 14.3295 11.856C14.3295 12.024 14.3762 12.1873 14.4695 12.346C14.5722 12.4953 14.7915 12.57 15.1275 12.57C15.4635 12.57 15.7202 12.4767 15.8975 12.29C16.0749 12.1033 16.1869 11.87 16.2335 11.59C16.2895 11.3007 16.3175 11.0673 16.3175 10.89C16.3175 10.386 16.0515 10.134 15.5195 10.134ZM15.7155 8.65L16.9335 8.72C17.6522 8.72 18.4315 8.65 19.2715 8.51V9.588C19.0849 9.63467 18.5855 9.714 17.7735 9.826C17.9695 10.162 18.0675 10.5307 18.0675 10.932C18.0675 11.0813 18.0535 11.2307 18.0255 11.38C17.9042 12.1733 17.5682 12.8267 17.0175 13.34C16.4762 13.844 15.7715 14.096 14.9035 14.096C14.5955 14.096 14.3529 14.0727 14.1755 14.026C14.0915 14.2033 14.0402 14.3573 14.0215 14.488C13.9655 14.7773 14.2082 14.922 14.7495 14.922H15.9535C16.6722 14.922 17.1855 15.0667 17.4935 15.356C17.8109 15.6453 17.9695 15.9907 17.9695 16.392C17.9695 16.504 17.9602 16.6207 17.9415 16.742C17.8109 17.5727 17.3909 18.226 16.6815 18.702C15.9722 19.178 15.1135 19.416 14.1055 19.416C13.0975 19.416 12.3835 19.2573 11.9635 18.94C11.5342 18.632 11.3195 18.24 11.3195 17.764C11.3195 17.2787 11.4875 16.8493 11.8235 16.476C12.1502 16.112 12.5515 15.832 13.0275 15.636C12.8035 15.4773 12.6915 15.2533 12.6915 14.964C12.6915 14.5533 12.8969 14.124 13.3075 13.676C12.8035 13.2747 12.5515 12.7147 12.5515 11.996C12.5515 11.8 12.5702 11.5947 12.6075 11.38C12.7289 10.568 13.0555 9.91 13.5875 9.406C14.1289 8.902 14.8382 8.65 15.7155 8.65Z" fill="#888888"/>
</svg>
