<svg width="24" height="24" viewBox="0 0 24 24" fill="none" xmlns="http://www.w3.org/2000/svg">
<path d="M3.98599 18L6.05799 6.548H9.51599L11.574 18H9.20799L8.85799 15.704H6.70199L6.36599 18H3.98599ZM7.07999 13.198H8.47999L7.77999 8.578L7.07999 13.198ZM16.6328 17.02C16.2781 17.3 15.9515 17.5007 15.6528 17.622C15.3635 17.7433 15.0461 17.804 14.7008 17.804C14.2341 17.804 13.8095 17.7107 13.4268 17.524C13.0441 17.328 12.7128 17.062 12.4328 16.726C12.1621 16.3807 11.9475 15.97 11.7888 15.494C11.6395 15.018 11.5648 14.4953 11.5648 13.926C11.5648 13.31 11.6488 12.736 11.8168 12.204C11.9941 11.6627 12.2321 11.1913 12.5308 10.79C12.8388 10.3793 13.1935 10.0573 13.5948 9.824C13.9961 9.59067 14.4255 9.474 14.8828 9.474C15.5641 9.474 16.1475 9.75867 16.6328 10.328V9.628H18.6208V14.136C18.6208 14.9667 18.6068 15.6713 18.5788 16.25C18.5601 16.8287 18.5275 17.286 18.4808 17.622C18.3408 18.6113 17.9628 19.3673 17.3468 19.89C16.7401 20.422 15.9375 20.688 14.9388 20.688C14.5188 20.688 14.1175 20.6413 13.7348 20.548C13.3615 20.4547 13.0161 20.3193 12.6988 20.142V18.42C13.3801 18.7653 14.0615 18.938 14.7428 18.938C15.3588 18.938 15.8255 18.8073 16.1428 18.546C16.4695 18.2847 16.6328 17.9113 16.6328 17.426V17.02ZM14.2388 12.946C14.2388 13.3287 14.3415 13.6367 14.5468 13.87C14.7521 14.1033 15.0228 14.22 15.3588 14.22C15.5361 14.22 15.6995 14.1873 15.8488 14.122C16.0075 14.0473 16.1428 13.9493 16.2548 13.828C16.3761 13.7067 16.4695 13.5667 16.5348 13.408C16.6001 13.24 16.6328 13.0627 16.6328 12.876C16.6328 12.6987 16.6001 12.5307 16.5348 12.372C16.4788 12.2133 16.3948 12.078 16.2828 11.966C16.1708 11.8447 16.0401 11.7513 15.8908 11.686C15.7415 11.6207 15.5828 11.588 15.4148 11.588C15.0788 11.588 14.7988 11.714 14.5748 11.966C14.3508 12.218 14.2388 12.5447 14.2388 12.946Z" fill="#333333"/>
</svg>
