<svg width="24" height="24" viewBox="0 0 24 24" fill="none" xmlns="http://www.w3.org/2000/svg">
<path d="M8.10151 13.4815L6.98429 15.7538C6.89592 15.939 6.73181 16.0252 6.49195 16.0126L5.48835 15.9748C5.33265 15.9705 5.22956 15.92 5.17906 15.8233C5.12856 15.7265 5.13698 15.6171 5.20431 15.495L9.52171 7.18215C9.61008 7.01383 9.71738 6.88548 9.84362 6.79711C9.96986 6.70875 10.0982 6.66456 10.2287 6.66456L11.7183 6.65194C11.8782 6.65194 12.0044 6.70454 12.097 6.80974C12.1938 6.91494 12.2359 7.07063 12.2232 7.27683L11.7435 15.716C11.7309 15.9053 11.6026 16 11.3585 16H10.3107C10.1003 16 10.0014 15.8843 10.014 15.6528L10.1529 13.4815H8.10151ZM8.85264 11.9414H10.2602L10.4811 8.62128L8.85264 11.9414ZM16.2946 10.4833C15.958 10.3739 15.7286 10.3634 15.6066 10.4518C15.4299 10.5864 15.2026 11.0261 14.9249 11.771C14.6472 12.5158 14.4599 13.1533 14.3631 13.6835C14.3337 13.8434 14.3232 13.9486 14.3316 13.9991C14.34 14.0496 14.3737 14.0748 14.4326 14.0748C14.4999 14.0748 14.5988 13.9991 14.7292 13.8476C14.8639 13.6919 15.0154 13.471 15.1837 13.1849C15.5919 12.4863 15.939 11.6489 16.2252 10.6727L16.2946 10.4833ZM14.988 15.0911L14.8933 15.1984C14.6282 15.514 14.4199 15.7328 14.2685 15.8548C14.1212 15.9769 13.9718 16.0379 13.8203 16.0379H13.7319C13.5847 16.0379 13.37 15.8969 13.0881 15.615C12.7136 15.2405 12.5495 14.8218 12.5958 14.3589C12.6884 13.4247 12.9324 12.4316 13.328 11.3796C13.7235 10.3234 14.1043 9.65645 14.4704 9.37872C14.7608 9.1557 15.1058 9.04418 15.5056 9.04418C15.8927 9.04418 16.2609 9.17463 16.6102 9.43553C16.6902 9.16622 16.8248 9.03156 17.0142 9.03156L17.8032 9.01894C18.0304 9.01894 18.1209 9.13466 18.0746 9.3661C17.9021 10.0604 17.658 10.9714 17.3424 12.0992C17.0268 13.2227 16.7238 14.2789 16.4335 15.2678C16.1473 16.2567 15.9958 16.7806 15.979 16.8395C15.7939 17.5086 15.4972 17.9525 15.089 18.1713C14.866 18.2934 14.6935 18.3733 14.5714 18.4112C14.4494 18.4533 14.3126 18.4617 14.1611 18.4364C14.0097 18.4154 13.8371 18.3481 13.6436 18.2344L12.3244 17.4896C12.2107 17.4391 12.1497 17.3634 12.1413 17.2624C12.1329 17.1614 12.1602 17.0815 12.2234 17.0225L12.6336 16.4671C12.7094 16.3871 12.7767 16.3387 12.8356 16.3219C12.8988 16.3051 12.9745 16.3177 13.0629 16.3598L14.1864 16.972C14.3337 17.0478 14.4494 16.9468 14.5336 16.6691L14.988 15.0911Z" fill="#888888"/>
</svg>
