<svg width="24" height="24" viewBox="0 0 24 24" fill="none" xmlns="http://www.w3.org/2000/svg">
<path d="M6.22109 12.934H10.7051L10.8951 13.656H5.89809L6.22109 12.934ZM11.8641 15.822C11.8894 15.9107 11.9338 15.993 11.9971 16.069C12.0731 16.1323 12.1491 16.1767 12.2251 16.202L12.9471 16.392L12.8711 17H9.28009L9.35609 16.392L10.7051 16.126L8.93809 6.683H9.43209L5.29009 16.126L6.58209 16.392L6.50609 17H3.16209L3.23809 16.392L3.99809 16.202C4.22609 16.1387 4.38443 16.012 4.47309 15.822L8.82409 6.17H9.98309L11.8641 15.822ZM15.6295 20.667C15.1988 20.667 14.8062 20.5657 14.4515 20.363C14.1095 20.173 13.8118 19.9133 13.5585 19.584L13.8055 19.109C14.2488 19.2737 14.6732 19.4003 15.0785 19.489C15.4838 19.5777 15.9145 19.622 16.3705 19.622C17.1178 19.622 17.6752 19.4637 18.0425 19.147C18.4098 18.8303 18.6378 18.3237 18.7265 17.627L19.1445 14.549V14.188L19.7335 9.457L20.6645 8.925L20.8735 9.096L19.8855 17C19.8222 17.5193 19.6765 18.0007 19.4485 18.444C19.2332 18.8873 18.9418 19.2737 18.5745 19.603C18.2072 19.945 17.7765 20.2047 17.2825 20.382C16.7885 20.572 16.2375 20.667 15.6295 20.667ZM16.4465 17.076C15.8512 17.076 15.3382 16.8353 14.9075 16.354C14.4768 15.8727 14.2615 15.1127 14.2615 14.074C14.2615 13.352 14.3628 12.687 14.5655 12.079C14.7682 11.4583 15.0532 10.92 15.4205 10.464C15.7878 10.008 16.2122 9.65333 16.6935 9.4C17.1875 9.14667 17.7258 9.02 18.3085 9.02C18.6885 9.02 19.0432 9.058 19.3725 9.134C19.7145 9.19733 20.0312 9.29867 20.3225 9.438L20.0375 10.312C19.7968 10.0713 19.5118 9.90667 19.1825 9.818C18.8532 9.72933 18.5238 9.685 18.1945 9.685C17.7385 9.685 17.3395 9.80533 16.9975 10.046C16.6682 10.2867 16.3895 10.6097 16.1615 11.015C15.9462 11.4203 15.7815 11.8637 15.6675 12.345C15.5662 12.8137 15.5155 13.2887 15.5155 13.77C15.5155 14.492 15.6358 15.0683 15.8765 15.499C16.1172 15.917 16.4528 16.126 16.8835 16.126C17.3015 16.126 17.7322 15.9107 18.1755 15.48C18.6188 15.0367 18.9608 14.473 19.2015 13.789L19.4105 13.922C19.1698 14.9733 18.7835 15.765 18.2515 16.297C17.7322 16.8163 17.1305 17.076 16.4465 17.076Z" fill="#888888"/>
</svg>
