<svg width="24" height="24" viewBox="0 0 24 24" fill="none" xmlns="http://www.w3.org/2000/svg">
<path d="M8.71545 11.8029L7.67181 8.45309L6.65872 11.8029H8.71545ZM6.92854 14.2669V15H3.95545V14.2669L4.64781 14.0989C4.71569 14.0819 4.76999 14.0548 4.81072 14.0175C4.85484 13.9767 4.88878 13.9224 4.91254 13.8545L7.2289 7.02255H9.03617L11.3678 13.8545C11.3916 13.9224 11.4255 13.975 11.4696 14.0124C11.5171 14.0497 11.5731 14.0785 11.6376 14.0989L12.274 14.2669V15H8.45581V14.2669L9.42817 14.1091L8.98526 12.6735H6.39399L5.95617 14.1091L6.92854 14.2669ZM14.5049 11.0495C14.5049 11.511 14.5711 11.8453 14.7034 12.0524C14.8358 12.256 15.0344 12.3578 15.2991 12.3578C15.5774 12.3578 15.7725 12.2458 15.8845 12.0218C15.9965 11.7978 16.0525 11.4737 16.0525 11.0495C16.0525 10.5811 15.9931 10.2485 15.8744 10.0516C15.7556 9.85479 15.5655 9.75636 15.3042 9.75636C15.0394 9.75636 14.8392 9.85988 14.7034 10.0669C14.5711 10.2705 14.5049 10.5981 14.5049 11.0495ZM18.5929 15.4735C18.5929 15.8298 18.5098 16.1522 18.3434 16.4407C18.1805 16.7292 17.9481 16.9736 17.646 17.1738C17.3439 17.3775 16.9757 17.5336 16.5413 17.6422C16.1102 17.7542 15.6283 17.8102 15.0954 17.8102C14.6339 17.8102 14.2368 17.7695 13.9042 17.688C13.575 17.6065 13.3051 17.4945 13.0947 17.352C12.8877 17.2128 12.735 17.0448 12.6365 16.848C12.5381 16.6545 12.4889 16.4458 12.4889 16.2218C12.4889 15.879 12.5924 15.6024 12.7994 15.392C13.0065 15.185 13.2882 15.0221 13.6445 14.9033C13.4104 14.8015 13.2424 14.6657 13.1405 14.496C13.0421 14.3263 12.9929 14.1379 12.9929 13.9309C12.9929 13.6662 13.0608 13.4456 13.1965 13.2691C13.3357 13.0926 13.5207 12.9535 13.7514 12.8516C13.3544 12.6853 13.0727 12.4512 12.9064 12.1491C12.7434 11.847 12.662 11.5127 12.662 11.1462C12.662 10.4912 12.8945 9.97867 13.3594 9.60873C13.8244 9.23879 14.4981 9.05382 15.3805 9.05382C15.8082 9.05382 16.1849 9.10133 16.5107 9.19636C16.8365 9.288 17.103 9.42885 17.31 9.61891C17.4424 9.43564 17.5951 9.29309 17.7682 9.19127C17.9413 9.08606 18.1144 9.03345 18.2874 9.03345C18.3757 9.03345 18.4673 9.04533 18.5624 9.06909C18.6608 9.08945 18.7422 9.10982 18.8067 9.13018V10.3775H17.7682C17.7919 10.4725 17.8106 10.5709 17.8242 10.6727C17.8378 10.7745 17.8445 10.8832 17.8445 10.9985C17.8445 11.304 17.7936 11.5857 17.6918 11.8436C17.5934 12.1016 17.4373 12.3222 17.2234 12.5055C17.0096 12.6887 16.733 12.8313 16.3936 12.9331C16.0576 13.0349 15.6554 13.0858 15.1871 13.0858C15.0411 13.0858 14.902 13.0807 14.7696 13.0705C14.6373 13.0604 14.5134 13.0451 14.398 13.0247C14.3505 13.0926 14.3165 13.1605 14.2962 13.2284C14.2758 13.2962 14.2656 13.3607 14.2656 13.4218C14.2656 13.6051 14.3488 13.7307 14.5151 13.7985C14.6848 13.8664 14.9716 13.9004 15.3754 13.9004H16.4038C17.1098 13.9004 17.6511 14.0293 18.0278 14.2873C18.4045 14.5452 18.5929 14.9406 18.5929 15.4735ZM15.3958 16.9855C15.8099 16.9855 16.1306 16.8853 16.358 16.6851C16.5888 16.4882 16.7042 16.2032 16.7042 15.8298C16.7042 15.5617 16.6363 15.3699 16.5005 15.2545C16.3648 15.1425 16.1323 15.0865 15.8031 15.0865H14.7544C14.7034 15.0865 14.6525 15.0848 14.6016 15.0815C14.5541 15.0815 14.5083 15.0798 14.4642 15.0764C14.3963 15.1816 14.3403 15.3038 14.2962 15.4429C14.2521 15.5821 14.23 15.7348 14.23 15.9011C14.23 16.2133 14.3182 16.4713 14.4947 16.6749C14.6712 16.8819 14.9716 16.9855 15.3958 16.9855Z" fill="#333333"/>
</svg>
