<svg width="24" height="24" viewBox="0 0 24 24" fill="none" xmlns="http://www.w3.org/2000/svg">
<path d="M4.74023 14L6.83203 6.54883L9.53906 6.71289L10.9883 14L9.99023 14.1641L9.21094 12.3047L6.23047 12.5508L5.84766 14.1641L4.74023 14ZM7.32422 7.95703L6.43555 11.6895L8.96484 11.7168L7.40625 7.95703H7.32422ZM15.2402 9.10547C14.9668 9.10547 14.7298 9.16016 14.5293 9.26953C14.429 9.77995 14.3789 10.3086 14.3789 10.8555C14.3789 12.013 14.4564 12.7695 14.6113 13.125C14.9668 13.0612 15.3451 12.8197 15.7461 12.4004C15.9648 12.1725 16.1426 11.849 16.2793 11.4297C16.4251 11.0104 16.498 10.5273 16.498 9.98047C16.498 9.88932 16.4889 9.72526 16.4707 9.48828C16.1243 9.23307 15.7142 9.10547 15.2402 9.10547ZM16.0605 16.4609C15.3132 16.4609 14.5475 16.2012 13.7637 15.6816L14.0645 15.1211C14.7298 15.4128 15.2812 15.5586 15.7188 15.5586C16.1562 15.5586 16.4753 15.4401 16.6758 15.2031C16.8854 14.9753 16.9902 14.6699 16.9902 14.2871C16.9902 14.1686 16.9128 13.3392 16.7578 11.7988H16.6621C16.1061 13.2845 15.1673 14.0273 13.8457 14.0273C13.6634 14.0273 13.513 14 13.3945 13.9453C13.1211 13.6719 12.8978 13.2708 12.7246 12.7422C12.5605 12.2044 12.4785 11.5527 12.4785 10.7871C12.4785 10.0215 12.6517 9.44271 12.998 9.05078C13.3444 8.64974 13.946 8.44922 14.8027 8.44922C15.4316 8.44922 15.974 8.59505 16.4297 8.88672L16.6758 8.55859L18.8359 8.24414L18.0566 14.5059C17.9837 15.1074 17.7741 15.5814 17.4277 15.9277C17.0814 16.2832 16.6257 16.4609 16.0605 16.4609Z" fill="#333333"/>
</svg>
