<svg width="24" height="24" viewBox="0 0 24 24" fill="none" xmlns="http://www.w3.org/2000/svg">
<path d="M6.10611 10.26L6.36111 10.245H6.45111C6.65111 10.245 6.80111 10.285 6.90111 10.365C7.01111 10.435 7.06611 10.52 7.06611 10.62C7.06611 10.81 6.94111 11.015 6.69111 11.235C6.44111 11.455 6.20111 11.565 5.97111 11.565C5.67111 11.565 5.52111 11.385 5.52111 11.025C5.52111 10.935 5.55111 10.845 5.61111 10.755C5.68111 10.665 5.77111 10.575 5.88111 10.485C5.99111 10.385 6.06611 10.31 6.10611 10.26ZM8.62611 16.425C8.58611 16.425 8.56611 16.43 8.56611 16.44L8.59611 16.47C8.61611 16.49 8.62611 16.51 8.62611 16.53L8.56611 16.5C8.53611 16.48 8.50111 16.46 8.46111 16.44C8.43111 16.42 8.41111 16.405 8.40111 16.395C8.42111 16.335 8.43111 16.24 8.43111 16.11V15.54C8.43111 15.36 8.47611 15.205 8.56611 15.075C8.49611 15.105 8.46111 15.125 8.46111 15.135C8.44111 15.085 8.42611 14.985 8.41611 14.835C8.41611 14.685 8.40111 14.585 8.37111 14.535C8.37111 14.515 8.38111 14.505 8.40111 14.505C8.41111 14.505 8.42611 14.51 8.44611 14.52L8.49111 14.535C8.45111 14.485 8.42111 14.41 8.40111 14.31C8.38111 14.21 8.36611 14.1 8.35611 13.98C8.34611 13.86 8.33611 13.78 8.32611 13.74C7.48611 13.88 6.13111 13.96 4.26111 13.98C4.22111 14.22 4.20111 14.42 4.20111 14.58C4.20111 14.96 4.26611 15.255 4.39611 15.465C4.32611 15.605 4.28611 15.795 4.27611 16.035C4.27611 16.275 4.23611 16.46 4.15611 16.59C4.07611 16.59 3.94111 16.6 3.75111 16.62C3.57111 16.64 3.43611 16.65 3.34611 16.65C3.12611 16.65 2.94611 16.62 2.80611 16.56C2.82611 16.53 2.85111 16.485 2.88111 16.425C2.92111 16.355 2.94611 16.305 2.95611 16.275C2.97611 16.235 3.00611 16.195 3.04611 16.155C3.09611 16.105 3.14611 16.065 3.19611 16.035C3.17611 16.015 3.15611 16.005 3.13611 16.005C3.10611 16.005 3.07111 16.03 3.03111 16.08C3.00111 16.12 2.97611 16.14 2.95611 16.14C2.95611 16.01 2.98111 15.93 3.03111 15.9C2.88111 15.86 2.80611 15.705 2.80611 15.435C2.80611 15.275 2.83611 15.165 2.89611 15.105C2.83611 14.865 2.80611 14.575 2.80611 14.235C2.80611 13.505 2.92611 12.655 3.16611 11.685C3.40611 10.715 3.67111 9.975 3.96111 9.465C4.10111 9.225 4.17111 9.02 4.17111 8.85C4.17111 8.76 4.14611 8.675 4.09611 8.595C4.05611 8.505 4.01111 8.435 3.96111 8.385C3.91111 8.325 3.82111 8.23 3.69111 8.1C3.57111 7.97 3.47111 7.865 3.39111 7.785C3.52111 7.435 3.69111 7.225 3.90111 7.155C4.08111 7.275 4.25611 7.43 4.42611 7.62C4.41611 7.58 4.41111 7.525 4.41111 7.455C4.41111 7.125 4.54611 6.96 4.81611 6.96C5.12611 6.96 5.36111 7.135 5.52111 7.485C5.97111 7.105 6.42611 6.915 6.88611 6.915C7.57611 6.915 8.17611 7.315 8.68611 8.115C9.19611 8.905 9.52111 9.775 9.66111 10.725C9.75111 10.695 9.84111 10.68 9.93111 10.68C10.0911 10.68 10.2261 10.73 10.3361 10.83C10.4561 10.92 10.5161 11.035 10.5161 11.175C10.5161 11.455 10.2511 11.595 9.72111 11.595L9.73611 12.165L9.72111 12.225C9.84111 12.195 9.95611 12.18 10.0661 12.18C10.2761 12.18 10.4511 12.24 10.5911 12.36C10.7311 12.47 10.8011 12.595 10.8011 12.735C10.8011 13.035 10.5811 13.185 10.1411 13.185C10.0911 13.185 9.99611 13.175 9.85611 13.155C9.83611 13.255 9.82611 13.41 9.82611 13.62C9.82611 13.8 9.84111 14.07 9.87111 14.43C9.91111 14.78 9.93111 15.035 9.93111 15.195C9.93111 15.475 9.88611 15.72 9.79611 15.93C9.85611 15.94 9.88611 16.015 9.88611 16.155C9.88611 16.435 9.62111 16.575 9.09111 16.575C8.85111 16.575 8.69611 16.525 8.62611 16.425ZM4.39611 12.75C6.41611 12.65 7.67111 12.56 8.16111 12.48C8.18111 12.2 8.19111 11.98 8.19111 11.82C8.19111 11 8.05111 10.22 7.77111 9.48C7.49111 8.74 7.10611 8.185 6.61611 7.815C5.40611 9.145 4.66611 10.79 4.39611 12.75ZM16.3477 11.76C16.4077 11.75 16.4927 11.745 16.6027 11.745C16.9927 11.745 17.1877 11.905 17.1877 12.225C17.1877 12.495 17.0627 12.775 16.8127 13.065C16.5727 13.355 16.3227 13.5 16.0627 13.5C15.9227 13.5 15.7727 13.43 15.6127 13.29C15.4527 13.14 15.3727 12.935 15.3727 12.675C15.3727 12.455 15.4727 12.255 15.6727 12.075C15.8827 11.895 16.1077 11.79 16.3477 11.76ZM13.1827 18.135L13.3627 17.985C13.2627 17.745 13.2127 17.49 13.2127 17.22C13.2127 16.45 13.5727 15.735 14.2927 15.075C13.5227 14.855 12.9077 14.495 12.4477 13.995C11.9977 13.485 11.7727 12.835 11.7727 12.045C11.7727 10.715 12.8877 9.86 15.1177 9.48C15.1677 9.47 15.2527 9.465 15.3727 9.465C15.6127 9.465 16.0527 9.535 16.6927 9.675C17.3427 9.815 17.8177 9.885 18.1177 9.885C18.2677 9.885 18.4127 9.87 18.5527 9.84C18.7727 9.79 18.9877 9.63 19.1977 9.36C19.4077 9.09 19.6277 8.84 19.8577 8.61C20.0977 8.37 20.3677 8.25 20.6677 8.25C20.8477 8.25 21.0377 8.285 21.2377 8.355C21.2277 8.575 21.1477 8.78 20.9977 8.97C20.8477 9.16 20.6927 9.31 20.5327 9.42C20.3727 9.53 20.1527 9.665 19.8727 9.825C19.5927 9.975 19.3977 10.09 19.2877 10.17C19.2977 10.19 19.3627 10.24 19.4827 10.32C19.6127 10.4 19.6827 10.495 19.6927 10.605C20.3427 10.845 20.6677 11.41 20.6677 12.3C20.6677 12.77 20.5727 13.24 20.3827 13.71C20.2027 14.18 19.9827 14.515 19.7227 14.715C19.4127 14.955 18.9427 15.12 18.3127 15.21C17.6827 15.3 17.1027 15.355 16.5727 15.375C16.0427 15.385 15.5677 15.51 15.1477 15.75C14.7377 15.98 14.5327 16.345 14.5327 16.845C14.5327 17.035 14.5627 17.24 14.6227 17.46C15.3327 17.14 16.0777 16.98 16.8577 16.98C17.9077 16.98 18.8327 17.265 19.6327 17.835C20.4427 18.405 20.9677 19.175 21.2077 20.145L21.2227 20.415C21.2227 21.205 20.9927 21.85 20.5327 22.35C20.0727 22.85 19.5027 23.1 18.8227 23.1C18.7027 23.1 18.6127 23.095 18.5527 23.085C17.8727 23.345 17.0077 23.475 15.9577 23.475C15.4077 23.475 14.8777 23.43 14.3677 23.34C13.8677 23.25 13.3977 23.115 12.9577 22.935C12.5277 22.755 12.1827 22.5 11.9227 22.17C11.6627 21.85 11.5327 21.475 11.5327 21.045C11.5327 20.705 11.6227 20.325 11.8027 19.905C11.8327 19.685 11.9277 19.455 12.0877 19.215C12.2577 18.985 12.4127 18.805 12.5527 18.675C12.7027 18.545 12.9127 18.365 13.1827 18.135ZM16.0777 14.55C16.1077 14.63 16.1427 14.76 16.1827 14.94C16.4527 15.05 16.7327 15.105 17.0227 15.105C17.6827 15.105 18.2227 14.82 18.6427 14.25C19.0727 13.67 19.2877 13.04 19.2877 12.36C19.2877 11.86 19.1577 11.445 18.8977 11.115C18.6477 10.785 18.2777 10.62 17.7877 10.62C17.6277 10.62 17.4327 10.645 17.2027 10.695C17.2327 10.625 17.3277 10.565 17.4877 10.515C17.6477 10.455 17.7427 10.385 17.7727 10.305C17.6127 10.215 17.3477 10.15 16.9777 10.11C16.9377 10.14 16.9177 10.165 16.9177 10.185L16.9327 10.275C16.9327 10.375 16.7027 10.425 16.2427 10.425C16.0527 10.425 15.9527 10.35 15.9427 10.2C15.8127 10.21 15.5877 10.28 15.2677 10.41C14.9477 10.53 14.7027 10.59 14.5327 10.59C14.4527 10.59 14.3927 10.585 14.3527 10.575C14.3827 10.475 14.4577 10.38 14.5777 10.29C14.7077 10.19 14.7877 10.105 14.8177 10.035C14.2877 10.125 13.8927 10.35 13.6327 10.71C13.3727 11.06 13.2427 11.475 13.2427 11.955C13.2427 12.635 13.4577 13.25 13.8877 13.8C14.3177 14.35 14.8577 14.625 15.5077 14.625C15.7277 14.625 15.9177 14.6 16.0777 14.55ZM14.8477 23.025C14.8577 23.015 14.8677 22.99 14.8777 22.95C14.8877 22.91 14.9027 22.89 14.9227 22.89L16.0027 23.085C16.2027 23.125 16.4927 23.145 16.8727 23.145C17.8627 23.145 18.6127 22.9 19.1227 22.41C19.6427 21.92 19.9027 21.315 19.9027 20.595C19.9027 19.895 19.6727 19.235 19.2127 18.615C18.7527 17.995 18.1377 17.585 17.3677 17.385C17.3677 17.415 17.3777 17.455 17.3977 17.505C17.4177 17.555 17.4277 17.59 17.4277 17.61C17.4277 17.62 17.2677 17.625 16.9477 17.625C16.6377 17.635 16.2577 17.67 15.8077 17.73C15.3577 17.8 15.0077 17.91 14.7577 18.06C14.7977 18.13 14.8177 18.21 14.8177 18.3C14.8177 18.41 14.7827 18.49 14.7127 18.54C14.6527 18.59 14.5877 18.62 14.5177 18.63C14.4477 18.64 14.3427 18.645 14.2027 18.645H14.1277C13.9977 18.645 13.8877 18.625 13.7977 18.585C13.1477 18.985 12.8227 19.61 12.8227 20.46C12.8227 21.08 13.0077 21.645 13.3777 22.155C13.7577 22.675 14.2477 22.965 14.8477 23.025Z" fill="#888888"/>
</svg>
