<svg width="24" height="24" viewBox="0 0 24 24" fill="none" xmlns="http://www.w3.org/2000/svg">
<path d="M2.49805 17L6.37605 7.2H8.40605L12.256 17H9.84805L7.98605 12.03C7.92071 11.834 7.84605 11.624 7.76205 11.4C7.68738 11.176 7.61271 10.9427 7.53805 10.7C7.46338 10.4573 7.39338 10.224 7.32805 10C7.26271 9.776 7.20671 9.566 7.16005 9.37L7.56605 9.356C7.51005 9.58933 7.44938 9.818 7.38405 10.042C7.31871 10.266 7.24871 10.49 7.17405 10.714C7.09938 10.938 7.02005 11.162 6.93605 11.386C6.86138 11.6007 6.78205 11.8247 6.69805 12.058L4.85005 17H2.49805ZM4.34605 15.124L5.10205 13.304H9.58205L10.338 15.124H4.34605ZM16.519 20.22C15.9217 20.22 15.3197 20.1313 14.713 19.954C14.1157 19.786 13.6304 19.562 13.257 19.282L14.041 17.686C14.3397 17.8913 14.6757 18.05 15.049 18.162C15.4317 18.2833 15.8284 18.344 16.239 18.344C16.715 18.344 17.1024 18.274 17.401 18.134C17.6997 17.994 17.919 17.784 18.059 17.504C18.2084 17.224 18.283 16.874 18.283 16.454V15.222L18.703 15.306C18.647 15.5953 18.4884 15.866 18.227 16.118C17.975 16.37 17.6624 16.5707 17.289 16.72C16.9157 16.8693 16.5237 16.944 16.113 16.944C15.441 16.944 14.839 16.79 14.307 16.482C13.775 16.1647 13.355 15.7307 13.047 15.18C12.7484 14.62 12.599 13.976 12.599 13.248C12.599 12.5013 12.7484 11.8387 13.047 11.26C13.355 10.6813 13.7704 10.2287 14.293 9.902C14.8157 9.57533 15.4037 9.412 16.057 9.412C16.3277 9.412 16.589 9.44467 16.841 9.51C17.1024 9.566 17.3404 9.65 17.555 9.762C17.779 9.874 17.975 10 18.143 10.14C18.3204 10.28 18.465 10.434 18.577 10.602C18.689 10.77 18.759 10.938 18.787 11.106L18.325 11.246L18.409 9.566H20.551V16.384C20.551 16.9907 20.4577 17.532 20.271 18.008C20.0937 18.484 19.8277 18.8853 19.473 19.212C19.1277 19.5387 18.7077 19.786 18.213 19.954C17.7184 20.1313 17.1537 20.22 16.519 20.22ZM16.575 15.194C16.939 15.194 17.2517 15.1147 17.513 14.956C17.7837 14.7973 17.989 14.5733 18.129 14.284C18.2784 13.9947 18.353 13.6587 18.353 13.276C18.353 12.8747 18.2784 12.5293 18.129 12.24C17.989 11.9507 17.7837 11.7267 17.513 11.568C17.2517 11.4 16.939 11.316 16.575 11.316C16.2297 11.316 15.9264 11.4 15.665 11.568C15.4037 11.7267 15.1984 11.9507 15.049 12.24C14.909 12.5293 14.839 12.87 14.839 13.262C14.839 13.654 14.909 13.9947 15.049 14.284C15.1984 14.5733 15.4037 14.7973 15.665 14.956C15.9264 15.1147 16.2297 15.194 16.575 15.194Z" fill="#888888"/>
</svg>
