<svg width="24" height="24" viewBox="0 0 24 24" fill="none" xmlns="http://www.w3.org/2000/svg">
<path d="M5.378 12.94H8.094C8.28067 12.94 8.458 12.94 8.626 12.94C8.80333 12.94 8.98533 12.94 9.172 12.94L9.872 12.8L10.04 14.06L10.208 15.32H5.532C5.49467 15.32 5.462 15.3153 5.434 15.306C5.41533 15.2873 5.40133 15.2687 5.392 15.25C5.38267 15.222 5.378 15.194 5.378 15.166V12.94ZM6.428 17C5.93333 17 5.43867 17 4.944 17C4.45867 17 3.96867 17 3.474 17C3.45533 17 3.432 16.9953 3.404 16.986C3.38533 16.9767 3.36667 16.958 3.348 16.93C3.33867 16.902 3.33867 16.8647 3.348 16.818C3.44133 16.3607 3.53467 15.9033 3.628 15.446C3.72133 14.9887 3.81467 14.5313 3.908 14.074C4.00133 13.6167 4.09467 13.1593 4.188 12.702C4.28133 12.2353 4.37467 11.7733 4.468 11.316C4.56133 10.8587 4.65467 10.4013 4.748 9.944C4.84133 9.48667 4.93467 9.02933 5.028 8.572C5.12133 8.11467 5.21467 7.65733 5.308 7.2C6.11067 7.2 6.91333 7.2 7.716 7.2C8.528 7.2 9.33533 7.2 10.138 7.2C10.1753 7.2 10.2033 7.20467 10.222 7.214C10.2407 7.22333 10.2547 7.242 10.264 7.27C10.2827 7.28867 10.2967 7.31667 10.306 7.354C10.4367 7.998 10.5673 8.64667 10.698 9.3C10.838 9.944 10.9733 10.5927 11.104 11.246C11.2347 11.89 11.3653 12.5387 11.496 13.192C11.636 13.836 11.7713 14.48 11.902 15.124C11.958 15.4413 12.0187 15.754 12.084 16.062C12.1493 16.37 12.2147 16.6827 12.28 17C11.776 17 11.2813 17 10.796 17C10.3107 17 9.844 17 9.396 17C9.33067 17 9.27933 16.9953 9.242 16.986C9.20467 16.9673 9.17667 16.93 9.158 16.874C9.13933 16.8087 9.116 16.7153 9.088 16.594C9.01333 16.146 8.934 15.6887 8.85 15.222C8.766 14.7553 8.682 14.284 8.598 13.808C8.514 13.3227 8.43 12.8327 8.346 12.338C8.262 11.8433 8.178 11.3487 8.094 10.854C8.01933 10.35 7.94467 9.85067 7.87 9.356L8.262 9.748H7.324L7.702 9.356C7.62733 9.86933 7.548 10.3827 7.464 10.896C7.38933 11.4 7.30533 11.9087 7.212 12.422C7.128 12.926 7.03933 13.4347 6.946 13.948C6.862 14.452 6.77333 14.9607 6.68 15.474C6.596 15.978 6.512 16.4867 6.428 17ZM12.9295 15.768C12.9295 15.5347 12.9761 15.32 13.0695 15.124C13.1721 14.928 13.3355 14.7647 13.5595 14.634C13.7835 14.5033 14.0821 14.4193 14.4555 14.382V13.864L15.8415 14.172C15.8415 14.2653 15.8415 14.354 15.8415 14.438C15.8415 14.5127 15.8415 14.5873 15.8415 14.662C15.8415 14.7927 15.8741 14.886 15.9395 14.942C16.0048 14.9887 16.1308 15.012 16.3175 15.012H17.9695C18.5295 15.012 18.9961 15.0867 19.3695 15.236C19.7428 15.376 20.0228 15.5907 20.2095 15.88C20.3961 16.1693 20.4895 16.5333 20.4895 16.972V17.63C20.4895 18.0033 20.4381 18.3253 20.3355 18.596C20.2328 18.8667 20.0741 19.0907 19.8595 19.268C19.6541 19.4453 19.3928 19.576 19.0755 19.66C18.7581 19.7533 18.3895 19.8 17.9695 19.8H14.2035C13.8301 19.8 13.5081 19.7487 13.2375 19.646C12.9761 19.5527 12.7755 19.4173 12.6355 19.24C12.4955 19.0627 12.4255 18.848 12.4255 18.596V18.414C12.4255 18.1713 12.4721 17.966 12.5655 17.798C12.6681 17.6393 12.8128 17.5133 12.9995 17.42C13.1955 17.3267 13.4288 17.2567 13.6995 17.21V16.762L15.0855 17.028C15.0855 17.112 15.0855 17.182 15.0855 17.238C15.0855 17.3033 15.0855 17.3687 15.0855 17.434C15.0855 17.4993 15.0855 17.5833 15.0855 17.686V17.966C15.0855 18.0033 15.0901 18.0313 15.0995 18.05C15.1088 18.078 15.1228 18.0967 15.1415 18.106C15.1695 18.1153 15.2021 18.12 15.2395 18.12H17.4095C17.4375 18.12 17.4608 18.1153 17.4795 18.106C17.4981 18.0967 17.5121 18.0873 17.5215 18.078C17.5308 18.0687 17.5355 18.0547 17.5355 18.036C17.5448 18.0173 17.5495 17.994 17.5495 17.966V17.364C17.5495 17.308 17.5355 17.266 17.5075 17.238C17.4795 17.2193 17.4421 17.21 17.3955 17.21H15.3095C14.6935 17.21 14.2128 17.1447 13.8675 17.014C13.5221 16.8833 13.2795 16.7107 13.1395 16.496C12.9995 16.272 12.9295 16.0293 12.9295 15.768ZM17.2415 11.134H18.6275V11.47C19.0008 11.5353 19.3041 11.6613 19.5375 11.848C19.7801 12.0347 19.9015 12.2773 19.9015 12.576V12.66C19.9015 13.0427 19.7661 13.3647 19.4955 13.626C19.2248 13.878 18.8281 14.0647 18.3055 14.186C17.7828 14.3073 17.1388 14.368 16.3735 14.368C15.6268 14.368 14.9688 14.2747 14.3995 14.088C13.8301 13.892 13.3868 13.612 13.0695 13.248C12.7521 12.884 12.5935 12.4407 12.5935 11.918V11.54C12.5935 11.008 12.7521 10.5647 13.0695 10.21C13.3961 9.85533 13.8441 9.594 14.4135 9.426C14.9921 9.24867 15.6548 9.16 16.4015 9.16C17.0735 9.16 17.7455 9.16 18.4175 9.16C19.0895 9.16 19.7615 9.16 20.4335 9.16C20.4335 9.47733 20.4335 9.79 20.4335 10.098C20.4335 10.406 20.4335 10.7187 20.4335 11.036C20.4335 11.0733 20.4195 11.1107 20.3915 11.148C20.3728 11.176 20.3355 11.19 20.2795 11.19C19.9155 11.19 19.5095 11.19 19.0615 11.19C18.6135 11.19 18.1561 11.19 17.6895 11.19C17.2321 11.19 16.7888 11.19 16.3595 11.19C16.0701 11.19 15.8601 11.232 15.7295 11.316C15.5988 11.3907 15.5335 11.5027 15.5335 11.652V11.792C15.5335 11.848 15.5428 11.904 15.5615 11.96C15.5801 12.0067 15.6081 12.0487 15.6455 12.086C15.7108 12.1513 15.7995 12.2027 15.9115 12.24C16.0328 12.268 16.1728 12.282 16.3315 12.282C16.6768 12.282 16.9148 12.2353 17.0455 12.142C17.1761 12.0487 17.2415 11.9227 17.2415 11.764V11.582C17.2415 11.5353 17.2415 11.4887 17.2415 11.442C17.2415 11.386 17.2415 11.3347 17.2415 11.288C17.2415 11.232 17.2415 11.1807 17.2415 11.134Z" fill="#888888"/>
</svg>
