<svg width="24" height="24" viewBox="0 0 24 24" fill="none" xmlns="http://www.w3.org/2000/svg">
<path d="M5.658 13.052H7.884C8.03333 13.052 8.178 13.052 8.318 13.052C8.46733 13.052 8.61667 13.052 8.766 13.052L9.256 12.87V14.326V15.712H5.336C5.308 15.712 5.28467 15.7073 5.266 15.698C5.24733 15.6793 5.23333 15.656 5.224 15.628C5.224 15.6 5.224 15.5767 5.224 15.558L5.658 13.052ZM5.35 17C4.902 17 4.454 17 4.006 17C3.558 17 3.12867 17 2.718 17C2.68067 17 2.648 16.9953 2.62 16.986C2.592 16.9673 2.578 16.944 2.578 16.916C2.56867 16.8787 2.57333 16.8367 2.592 16.79C2.676 16.6127 2.80667 16.3327 2.984 15.95C3.16133 15.5673 3.37133 15.1193 3.614 14.606C3.866 14.0927 4.12733 13.5467 4.398 12.968C4.678 12.38 4.958 11.792 5.238 11.204C5.518 10.6067 5.77933 10.0467 6.022 9.524C6.274 8.992 6.49333 8.52533 6.68 8.124C6.876 7.71333 7.02067 7.40533 7.114 7.2C7.82333 7.2 8.528 7.2 9.228 7.2C9.928 7.2 10.6327 7.2 11.342 7.2C11.3793 7.2 11.4027 7.20467 11.412 7.214C11.4307 7.22333 11.4447 7.242 11.454 7.27C11.4633 7.28867 11.468 7.31667 11.468 7.354C11.4587 7.97933 11.4447 8.60933 11.426 9.244C11.4073 9.86933 11.3887 10.4993 11.37 11.134C11.3607 11.7593 11.3467 12.3893 11.328 13.024C11.3093 13.6493 11.2907 14.2747 11.272 14.9C11.2627 15.236 11.2487 15.5813 11.23 15.936C11.2207 16.2813 11.2113 16.636 11.202 17C10.7447 17 10.2967 17 9.858 17C9.42867 17 8.98067 17 8.514 17C8.486 17 8.458 16.9907 8.43 16.972C8.402 16.9533 8.37867 16.916 8.36 16.86C8.35067 16.7947 8.35067 16.7013 8.36 16.58C8.388 16.16 8.416 15.7307 8.444 15.292C8.472 14.8533 8.5 14.41 8.528 13.962C8.556 13.5047 8.584 13.0473 8.612 12.59C8.64 12.1233 8.668 11.6567 8.696 11.19C8.724 10.7233 8.752 10.2567 8.78 9.79L9.214 10.21H7.898L8.626 9.818C8.41133 10.294 8.19667 10.7747 7.982 11.26C7.76733 11.736 7.548 12.212 7.324 12.688C7.1 13.164 6.876 13.6447 6.652 14.13C6.43733 14.606 6.218 15.0867 5.994 15.572C5.77933 16.048 5.56467 16.524 5.35 17ZM15.9815 9.16C16.3175 9.16 16.5975 9.23933 16.8215 9.398C17.0455 9.55667 17.2275 9.73867 17.3675 9.944C17.5075 10.1493 17.6008 10.3267 17.6475 10.476H18.3055L17.6335 11.904C17.5775 11.8293 17.4981 11.7687 17.3955 11.722C17.2928 11.666 17.1481 11.638 16.9615 11.638C16.8308 11.638 16.7141 11.666 16.6115 11.722C16.5088 11.7687 16.4201 11.8527 16.3455 11.974C16.2801 12.086 16.2195 12.24 16.1635 12.436L15.9535 13.234C15.9348 13.3273 15.9255 13.4067 15.9255 13.472C15.9348 13.5373 15.9535 13.5933 15.9815 13.64C16.0188 13.6867 16.0748 13.724 16.1495 13.752C16.2241 13.7707 16.3221 13.78 16.4435 13.78C16.6021 13.78 16.7421 13.766 16.8635 13.738C16.9848 13.7007 17.1015 13.6493 17.2135 13.584C17.3255 13.5093 17.4281 13.4207 17.5215 13.318L17.1715 15.194H16.4715C16.2661 15.4647 16.0375 15.698 15.7855 15.894C15.5335 16.09 15.2675 16.2393 14.9875 16.342C14.7168 16.4447 14.4415 16.496 14.1615 16.496C13.8628 16.496 13.5968 16.44 13.3635 16.328C13.1395 16.216 12.9528 16.0573 12.8035 15.852C12.6635 15.6467 12.5701 15.404 12.5235 15.124C12.4861 14.844 12.5095 14.5407 12.5935 14.214L13.2235 11.68C13.3261 11.26 13.4661 10.8913 13.6435 10.574C13.8208 10.2567 14.0261 9.99533 14.2595 9.79C14.4928 9.57533 14.7541 9.41667 15.0435 9.314C15.3328 9.21133 15.6455 9.16 15.9815 9.16ZM18.2355 9.3C18.7301 9.3 19.2201 9.3 19.7055 9.3C20.1908 9.3 20.6761 9.3 21.1615 9.3C21.1988 9.3 21.2268 9.30933 21.2455 9.328C21.2641 9.33733 21.2735 9.35133 21.2735 9.37C21.2828 9.38867 21.2828 9.41667 21.2735 9.454C21.1335 10.014 20.9888 10.5833 20.8395 11.162C20.6995 11.7407 20.5548 12.3193 20.4055 12.898C20.2655 13.4673 20.1255 14.032 19.9855 14.592C19.8455 15.1427 19.7101 15.6793 19.5795 16.202C19.3555 17.1167 19.0288 17.8353 18.5995 18.358C18.1795 18.89 17.6195 19.2633 16.9195 19.478C16.2195 19.6927 15.3375 19.8 14.2735 19.8C13.8721 19.8 13.4895 19.7813 13.1255 19.744C12.7615 19.7067 12.4535 19.6507 12.2015 19.576C11.9401 19.5107 11.7628 19.4313 11.6695 19.338C11.6601 19.3193 11.6555 19.3007 11.6555 19.282C11.6461 19.2727 11.6461 19.254 11.6555 19.226C11.7488 18.8713 11.8421 18.5213 11.9355 18.176C12.0195 17.84 12.1081 17.4947 12.2015 17.14H12.4815C12.7148 17.2053 12.9481 17.2613 13.1815 17.308C13.4148 17.3547 13.6528 17.3873 13.8955 17.406C14.1475 17.434 14.4041 17.448 14.6655 17.448C15.0481 17.448 15.3515 17.4153 15.5755 17.35C15.8088 17.294 15.9815 17.21 16.0935 17.098C16.1681 17.0233 16.2288 16.944 16.2755 16.86C16.3221 16.7667 16.3595 16.6733 16.3875 16.58C16.4248 16.4773 16.4528 16.384 16.4715 16.3C16.6115 15.768 16.7468 15.236 16.8775 14.704C17.0081 14.172 17.1388 13.64 17.2695 13.108C17.4095 12.5667 17.5448 12.03 17.6755 11.498C17.7408 11.2553 17.8015 11.0127 17.8575 10.77C17.9228 10.5273 17.9881 10.2847 18.0535 10.042C18.1188 9.79 18.1795 9.54267 18.2355 9.3Z" fill="#888888"/>
</svg>
