<svg width="24" height="24" viewBox="0 0 24 24" fill="none" xmlns="http://www.w3.org/2000/svg">
<path d="M4.80547 13.22H9.62147C9.78014 13.22 9.9248 13.234 10.0555 13.262C10.1955 13.29 10.3168 13.3413 10.4195 13.416L10.7275 13.248V13.584V13.92H5.19747C5.10414 13.92 5.02947 13.8967 4.97347 13.85C4.91747 13.794 4.87547 13.724 4.84747 13.64C4.81947 13.556 4.80547 13.4627 4.80547 13.36V13.22ZM5.78547 17C5.74814 17.0093 5.7108 17.0187 5.67347 17.028C5.63614 17.0373 5.58014 17.042 5.50547 17.042C5.44947 17.042 5.3888 17.0327 5.32347 17.014C5.25814 16.9953 5.20214 16.9627 5.15547 16.916C5.1088 16.8693 5.08547 16.804 5.08547 16.72C5.08547 16.16 5.10414 15.6187 5.14147 15.096C5.1788 14.564 5.2348 14.0553 5.30947 13.57C5.38414 13.0753 5.47747 12.5993 5.58947 12.142C5.7108 11.6753 5.84614 11.2273 5.99547 10.798C6.1448 10.3593 6.3128 9.93467 6.49947 9.524C6.69547 9.104 6.90547 8.69333 7.12947 8.292C7.3628 7.89067 7.61014 7.49867 7.87147 7.116C7.94614 7.09733 8.01147 7.08333 8.06747 7.074C8.12347 7.06467 8.1888 7.06 8.26347 7.06C8.40347 7.06 8.52014 7.088 8.61347 7.144C8.71614 7.19067 8.8188 7.284 8.92147 7.424C9.02414 7.564 9.15014 7.76 9.29947 8.012C9.57014 8.46933 9.83614 9.02 10.0975 9.664C10.3681 10.2987 10.6108 10.994 10.8255 11.75C11.0401 12.506 11.2081 13.29 11.3295 14.102C11.4601 14.9047 11.5255 15.712 11.5255 16.524C11.5255 16.6267 11.5255 16.7153 11.5255 16.79C11.5255 16.8553 11.5255 16.9253 11.5255 17C11.4881 17.0093 11.4508 17.0187 11.4135 17.028C11.3855 17.0373 11.3481 17.042 11.3015 17.042C11.2175 17.042 11.1381 17.0327 11.0635 17.014C10.9888 16.9953 10.9281 16.958 10.8815 16.902C10.8441 16.846 10.8255 16.7713 10.8255 16.678C10.8255 16.1367 10.7881 15.558 10.7135 14.942C10.6481 14.326 10.5455 13.6913 10.4055 13.038C10.2655 12.3847 10.0928 11.7407 9.88747 11.106C9.68214 10.462 9.44414 9.84133 9.17347 9.244C8.9028 8.64667 8.59947 8.096 8.26347 7.592L8.52947 7.76H8.12347L8.40347 7.592C8.05814 8.07733 7.74547 8.59067 7.46547 9.132C7.1948 9.664 6.95214 10.2287 6.73747 10.826C6.53214 11.414 6.3548 12.0393 6.20547 12.702C6.06547 13.3553 5.95814 14.0413 5.88347 14.76C5.81814 15.4693 5.78547 16.216 5.78547 17ZM18.24 10.196L18.954 9.188C19.1127 8.964 19.2153 8.79133 19.262 8.67C19.318 8.53933 19.346 8.42733 19.346 8.334C19.346 8.278 19.3413 8.23133 19.332 8.194C19.332 8.15667 19.3227 8.11467 19.304 8.068C19.332 8.04933 19.3647 8.04 19.402 8.04C19.4393 8.03067 19.4813 8.026 19.528 8.026C19.6867 8.026 19.8267 8.05867 19.948 8.124C20.0693 8.18 20.13 8.292 20.13 8.46V8.488C20.13 8.59067 20.1113 8.698 20.074 8.81C20.0367 8.922 19.962 9.048 19.85 9.188C19.738 9.328 19.57 9.50067 19.346 9.706L18.87 10.126V10.406L18.24 10.196ZM16.658 9.496C17.2553 9.48667 17.7733 9.58467 18.212 9.79C18.66 9.986 19.0053 10.28 19.248 10.672C19.5 11.0547 19.626 11.5213 19.626 12.072V12.128C19.626 12.6507 19.4953 13.1127 19.234 13.514C18.9727 13.906 18.618 14.2093 18.17 14.424C17.722 14.6387 17.218 14.746 16.658 14.746C16.0793 14.7553 15.566 14.6527 15.118 14.438C14.67 14.2233 14.32 13.92 14.068 13.528C13.816 13.1267 13.69 12.66 13.69 12.128V12.072C13.69 11.5493 13.8207 11.0967 14.082 10.714C14.3433 10.3313 14.698 10.0327 15.146 9.818C15.594 9.60333 16.098 9.496 16.658 9.496ZM16.686 10.182C16.0047 10.182 15.4493 10.35 15.02 10.686C14.6 11.022 14.39 11.5353 14.39 12.226V12.282C14.39 12.5993 14.4367 12.8793 14.53 13.122C14.6233 13.3553 14.7633 13.556 14.95 13.724C15.2393 13.864 15.5147 13.9713 15.776 14.046C16.0467 14.1113 16.3547 14.144 16.7 14.144C17.3907 14.144 17.946 13.9713 18.366 13.626C18.786 13.2807 18.996 12.758 18.996 12.058V12.002C18.996 11.666 18.9307 11.3673 18.8 11.106C18.6787 10.8447 18.4967 10.6253 18.254 10.448C18.0207 10.3547 17.778 10.2893 17.526 10.252C17.2833 10.2053 17.0033 10.182 16.686 10.182ZM15.832 14.55H16.714C16.4807 14.7087 16.308 14.914 16.196 15.166C16.084 15.4087 16.028 15.6373 16.028 15.852C16.028 16.0107 16.0793 16.132 16.182 16.216C16.2847 16.3 16.4667 16.3513 16.728 16.37L18.142 16.468C18.5807 16.496 18.94 16.5987 19.22 16.776C19.5 16.944 19.71 17.154 19.85 17.406C19.99 17.6673 20.06 17.9427 20.06 18.232V18.274C20.06 18.526 20.0133 18.7827 19.92 19.044C19.8267 19.3053 19.654 19.5433 19.402 19.758C19.15 19.982 18.7953 20.1593 18.338 20.29C17.8807 20.43 17.288 20.5 16.56 20.5H16.308C15.7853 20.5 15.3373 20.444 14.964 20.332C14.5907 20.2293 14.2827 20.0893 14.04 19.912C13.7973 19.7347 13.62 19.534 13.508 19.31C13.396 19.0953 13.34 18.876 13.34 18.652V18.596C13.34 18.232 13.4333 17.896 13.62 17.588C13.8067 17.2893 14.0587 17.0467 14.376 16.86C14.7027 16.664 15.0667 16.552 15.468 16.524V16.09L16.014 16.902C15.594 16.958 15.2347 17.0607 14.936 17.21C14.6467 17.3593 14.4227 17.546 14.264 17.77C14.1147 17.994 14.04 18.2507 14.04 18.54V18.61C14.04 18.834 14.124 19.0393 14.292 19.226C14.4693 19.4127 14.7353 19.562 15.09 19.674C15.454 19.786 15.9207 19.842 16.49 19.842H16.77C17.0407 19.842 17.3113 19.828 17.582 19.8C17.8527 19.772 18.1233 19.7207 18.394 19.646C18.6647 19.5807 18.9213 19.4873 19.164 19.366C19.2293 19.2633 19.276 19.128 19.304 18.96C19.3413 18.8013 19.36 18.6473 19.36 18.498V18.47C19.36 18.1433 19.2527 17.8493 19.038 17.588C18.8233 17.3267 18.4827 17.1867 18.016 17.168L16.63 17.098C16.3313 17.0793 16.084 17.0093 15.888 16.888C15.692 16.7573 15.5473 16.6033 15.454 16.426C15.37 16.2393 15.328 16.062 15.328 15.894C15.328 15.6887 15.3747 15.4833 15.468 15.278C15.5707 15.0633 15.692 14.8907 15.832 14.76V14.55Z" fill="#888888"/>
</svg>
