<svg width="24" height="24" viewBox="0 0 24 24" fill="none" xmlns="http://www.w3.org/2000/svg">
<path d="M4.56747 13.024H8.59947C8.85147 13.024 9.06614 13.066 9.24347 13.15C9.4208 13.234 9.5608 13.346 9.66347 13.486L9.85947 13.458V13.976V14.564H4.80547C4.66547 14.564 4.5628 14.508 4.49747 14.396C4.43214 14.2747 4.39947 14.1207 4.39947 13.934C4.39947 13.738 4.42747 13.5373 4.48347 13.332L4.56747 13.024ZM6.10747 17C6.01414 17.028 5.90214 17.0513 5.77147 17.07C5.65014 17.098 5.53347 17.112 5.42147 17.112C5.14147 17.112 4.9268 17.0513 4.77747 16.93C4.63747 16.8087 4.5488 16.6267 4.51147 16.384C4.47414 16.132 4.48814 15.8147 4.55347 15.432C4.63747 14.9187 4.74014 14.4193 4.86147 13.934C4.9828 13.4487 5.1228 12.982 5.28147 12.534C5.44947 12.086 5.63147 11.6567 5.82747 11.246C6.0328 10.826 6.24747 10.4293 6.47147 10.056C6.69547 9.68267 6.9288 9.328 7.17147 8.992C7.42347 8.64667 7.6848 8.32 7.95547 8.012C8.23547 7.704 8.5248 7.424 8.82347 7.172C8.9448 7.13467 9.06614 7.10667 9.18747 7.088C9.31814 7.06933 9.45814 7.06 9.60747 7.06C10.0181 7.06 10.3401 7.116 10.5735 7.228C10.8161 7.33067 10.9981 7.49867 11.1195 7.732C11.2408 7.956 11.3435 8.24067 11.4275 8.586C11.5301 8.99667 11.6001 9.44933 11.6375 9.944C11.6841 10.4387 11.6935 10.966 11.6655 11.526C11.6468 12.086 11.6001 12.6787 11.5255 13.304C11.4508 13.9293 11.3528 14.5733 11.2315 15.236C11.1661 15.5627 11.1241 15.866 11.1055 16.146C11.0868 16.426 11.0915 16.7107 11.1195 17C11.0075 17.028 10.8675 17.0513 10.6995 17.07C10.5408 17.098 10.3495 17.112 10.1255 17.112C9.92014 17.112 9.7428 17.0607 9.59347 16.958C9.44414 16.8553 9.34147 16.7107 9.28547 16.524C9.22947 16.328 9.2388 16.0807 9.31347 15.782C9.47214 15.138 9.59814 14.5267 9.69147 13.948C9.79414 13.3693 9.86414 12.8187 9.90147 12.296C9.94814 11.764 9.9668 11.26 9.95747 10.784C9.94814 10.308 9.91547 9.85067 9.85947 9.412C9.80347 8.97333 9.72414 8.54867 9.62147 8.138L9.98547 8.558L9.25747 8.432L9.80347 8.194C9.32747 8.76333 8.89814 9.34667 8.51547 9.944C8.1328 10.532 7.7968 11.134 7.50747 11.75C7.22747 12.3567 6.9848 12.9633 6.77947 13.57C6.58347 14.1767 6.42947 14.7693 6.31747 15.348C6.20547 15.9267 6.13547 16.4773 6.10747 17ZM16.84 9.342C17.1573 9.342 17.4373 9.398 17.68 9.51C17.9227 9.622 18.1327 9.776 18.31 9.972C18.4967 10.1587 18.6507 10.364 18.772 10.588H19.192L18.828 11.75C18.6693 11.4607 18.436 11.2507 18.128 11.12C17.8293 10.98 17.5027 10.91 17.148 10.91C16.7933 10.91 16.4713 10.9987 16.182 11.176C15.902 11.344 15.6593 11.596 15.454 11.932C15.2487 12.268 15.0807 12.6787 14.95 13.164L14.88 13.416C14.8147 13.6587 14.7633 13.8873 14.726 14.102C14.698 14.3073 14.684 14.508 14.684 14.704C14.7587 14.76 14.8333 14.802 14.908 14.83C14.992 14.8487 15.0853 14.858 15.188 14.858C15.552 14.858 15.93 14.788 16.322 14.648C16.7233 14.508 17.1247 14.2607 17.526 13.906C17.9367 13.542 18.3427 13.0193 18.744 12.338L18.254 14.69L17.736 14.662C17.4747 15.054 17.176 15.3993 16.84 15.698C16.504 15.9967 16.1587 16.23 15.804 16.398C15.4493 16.5567 15.1133 16.636 14.796 16.636C14.4227 16.636 14.1053 16.5473 13.844 16.37C13.592 16.1833 13.396 15.9407 13.256 15.642C13.1253 15.334 13.046 14.998 13.018 14.634C12.9993 14.2607 13.032 13.8873 13.116 13.514L13.214 13.164C13.382 12.492 13.5873 11.9133 13.83 11.428C14.082 10.9427 14.3667 10.546 14.684 10.238C15.0013 9.93 15.3373 9.706 15.692 9.566C16.056 9.41667 16.4387 9.342 16.84 9.342ZM19.304 9.44C19.36 9.42133 19.4207 9.40733 19.486 9.398C19.5513 9.38867 19.6213 9.384 19.696 9.384C19.948 9.384 20.1533 9.44933 20.312 9.58C20.48 9.70133 20.5873 9.86933 20.634 10.084C20.69 10.2987 20.6667 10.5413 20.564 10.812C20.3307 11.3907 20.144 11.9507 20.004 12.492C19.864 13.0333 19.738 13.556 19.626 14.06C19.5233 14.564 19.4113 15.0633 19.29 15.558C19.1687 16.0433 19.0193 16.5333 18.842 17.028C18.618 17.6347 18.2867 18.1433 17.848 18.554C17.4187 18.974 16.9053 19.2867 16.308 19.492C15.72 19.7067 15.0807 19.814 14.39 19.814C14.0447 19.814 13.7553 19.786 13.522 19.73C13.298 19.6833 13.116 19.6133 12.976 19.52C12.8453 19.436 12.738 19.3473 12.654 19.254C12.5607 19.1233 12.5093 18.974 12.5 18.806C12.4813 18.638 12.5 18.4467 12.556 18.232C12.584 18.1387 12.612 18.0547 12.64 17.98C12.668 17.9053 12.7007 17.8307 12.738 17.756H12.822C12.9807 17.8587 13.158 17.9473 13.354 18.022C13.55 18.0967 13.774 18.148 14.026 18.176C14.2873 18.2133 14.586 18.232 14.922 18.232C15.1927 18.232 15.454 18.2087 15.706 18.162C15.958 18.1153 16.2053 18.0407 16.448 17.938C16.588 17.7513 16.7093 17.5693 16.812 17.392C16.924 17.224 17.022 17.0467 17.106 16.86C17.1993 16.664 17.288 16.4493 17.372 16.216C17.5493 15.6747 17.694 15.1427 17.806 14.62C17.9273 14.088 18.0487 13.5327 18.17 12.954C18.3007 12.3753 18.4733 11.75 18.688 11.078C18.744 10.9007 18.8047 10.7233 18.87 10.546C18.9353 10.3687 19.0053 10.1867 19.08 10C19.1547 9.81333 19.2293 9.62667 19.304 9.44Z" fill="#888888"/>
</svg>
