<svg width="24" height="24" viewBox="0 0 24 24" fill="none" xmlns="http://www.w3.org/2000/svg">
<path d="M5.63 13.052H8.01C8.15933 13.052 8.304 13.052 8.444 13.052C8.59333 13.052 8.74267 13.052 8.892 13.052L9.382 12.87V13.948V14.83H5.308C5.28 14.83 5.25667 14.8253 5.238 14.816C5.21933 14.7973 5.20533 14.774 5.196 14.746C5.196 14.718 5.196 14.6947 5.196 14.676L5.63 13.052ZM5.21 17C4.874 17 4.538 17 4.202 17C3.87533 17 3.558 17 3.25 17C3.21267 17 3.18467 16.9953 3.166 16.986C3.138 16.9673 3.11933 16.944 3.11 16.916C3.10067 16.8787 3.10533 16.8367 3.124 16.79C3.19867 16.6127 3.32 16.3327 3.488 15.95C3.66533 15.5673 3.866 15.1193 4.09 14.606C4.314 14.0927 4.55667 13.5467 4.818 12.968C5.07933 12.38 5.34067 11.792 5.602 11.204C5.86333 10.6067 6.11067 10.0467 6.344 9.524C6.57733 8.992 6.78267 8.52533 6.96 8.124C7.13733 7.71333 7.27267 7.40533 7.366 7.2C7.954 7.2 8.56533 7.2 9.2 7.2C9.844 7.2 10.46 7.2 11.048 7.2C11.0853 7.2 11.1087 7.20467 11.118 7.214C11.1367 7.22333 11.1507 7.242 11.16 7.27C11.1693 7.28867 11.174 7.31667 11.174 7.354C11.146 7.84867 11.1133 8.38067 11.076 8.95C11.048 9.51933 11.0153 10.1213 10.978 10.756C10.9407 11.3907 10.9033 12.0533 10.866 12.744C10.8287 13.4347 10.7867 14.1533 10.74 14.9C10.7307 15.236 10.712 15.5813 10.684 15.936C10.6653 16.2813 10.6467 16.636 10.628 17C10.3107 17 10.0027 17 9.704 17C9.40533 17 9.12533 17 8.864 17C8.78933 17 8.72867 16.9907 8.682 16.972C8.64467 16.944 8.61667 16.8973 8.598 16.832C8.57933 16.7573 8.57467 16.6453 8.584 16.496C8.63067 15.768 8.67267 15.11 8.71 14.522C8.74733 13.9247 8.78467 13.374 8.822 12.87C8.85933 12.366 8.892 11.8853 8.92 11.428C8.948 10.9613 8.976 10.4993 9.004 10.042C9.04133 9.58467 9.07867 9.104 9.116 8.6L9.508 9.02H8.388L8.962 8.628C8.78467 9.02933 8.60733 9.43533 8.43 9.846C8.25267 10.2473 8.06133 10.6767 7.856 11.134C7.65067 11.5913 7.422 12.1 7.17 12.66C6.918 13.2107 6.62867 13.8453 6.302 14.564C5.98467 15.2733 5.62067 16.0853 5.21 17ZM16.2195 9.272C16.5555 9.272 16.8401 9.328 17.0735 9.44C17.3161 9.552 17.5168 9.70133 17.6755 9.888C17.8341 10.0747 17.9601 10.2893 18.0535 10.532H18.6275L18.1655 12.072C17.8761 11.7453 17.6148 11.526 17.3815 11.414C17.1481 11.2927 16.9101 11.232 16.6675 11.232C16.4808 11.232 16.3081 11.2693 16.1495 11.344C16.0001 11.4187 15.8741 11.5353 15.7715 11.694C15.6688 11.8433 15.5848 12.0393 15.5195 12.282L15.1695 13.724C15.1321 13.9013 15.1181 14.046 15.1275 14.158C15.1368 14.27 15.1695 14.354 15.2255 14.41C15.2815 14.466 15.3515 14.508 15.4355 14.536C15.5195 14.5547 15.6175 14.564 15.7295 14.564C15.9628 14.564 16.1915 14.5173 16.4155 14.424C16.6488 14.3213 16.8728 14.186 17.0875 14.018C17.3115 13.85 17.5168 13.6633 17.7035 13.458L17.2835 15.362H16.8215C16.6535 15.614 16.4621 15.8333 16.2475 16.02C16.0421 16.1973 15.8088 16.3373 15.5475 16.44C15.2955 16.5333 15.0061 16.58 14.6795 16.58C14.3341 16.58 14.0308 16.5147 13.7695 16.384C13.5175 16.2533 13.3121 16.0667 13.1535 15.824C13.0041 15.5813 12.9108 15.2873 12.8735 14.942C12.8361 14.5873 12.8735 14.1953 12.9855 13.766L13.4195 12.016C13.5408 11.5213 13.6901 11.1013 13.8675 10.756C14.0541 10.4013 14.2641 10.1167 14.4975 9.902C14.7308 9.68733 14.9921 9.52867 15.2815 9.426C15.5708 9.32333 15.8835 9.272 16.2195 9.272ZM18.6135 9.44C18.9401 9.44 19.2668 9.44 19.5935 9.44C19.9201 9.44 20.2421 9.44 20.5595 9.44C20.5968 9.44 20.6248 9.44933 20.6435 9.468C20.6621 9.47733 20.6715 9.49133 20.6715 9.51C20.6808 9.52867 20.6808 9.55667 20.6715 9.594C20.5128 10.2287 20.3588 10.8353 20.2095 11.414C20.0601 11.9833 19.9155 12.548 19.7755 13.108C19.6355 13.668 19.4908 14.2373 19.3415 14.816C19.1921 15.3853 19.0381 15.9873 18.8795 16.622C18.6928 17.378 18.4128 17.9893 18.0395 18.456C17.6661 18.9227 17.1995 19.2633 16.6395 19.478C16.0795 19.6927 15.4261 19.8 14.6795 19.8C14.1661 19.8 13.7181 19.7627 13.3355 19.688C12.9621 19.6227 12.6635 19.5433 12.4395 19.45C12.2248 19.3567 12.0801 19.2773 12.0055 19.212C11.9961 19.1933 11.9868 19.17 11.9775 19.142C11.9681 19.1233 11.9681 19.1 11.9775 19.072C12.0521 18.7733 12.1175 18.5167 12.1735 18.302C12.2295 18.0967 12.2901 17.8493 12.3555 17.56H12.6355C12.8688 17.6627 13.0928 17.7467 13.3075 17.812C13.5315 17.8773 13.7601 17.9193 13.9935 17.938C14.2268 17.966 14.4695 17.98 14.7215 17.98C15.0761 17.98 15.3795 17.938 15.6315 17.854C15.8835 17.77 16.0981 17.6393 16.2755 17.462C16.3781 17.3687 16.4668 17.2613 16.5415 17.14C16.6161 17.0187 16.6815 16.8833 16.7375 16.734C16.8028 16.5847 16.8541 16.4213 16.8915 16.244C17.0501 15.6187 17.1948 15.0493 17.3255 14.536C17.4561 14.0227 17.5868 13.5093 17.7175 12.996C17.8575 12.4827 18.0021 11.9133 18.1515 11.288C18.2075 11.0827 18.2588 10.8773 18.3055 10.672C18.3615 10.4667 18.4128 10.2613 18.4595 10.056C18.5155 9.85067 18.5668 9.64533 18.6135 9.44Z" fill="#888888"/>
</svg>
