<svg width="24" height="24" viewBox="0 0 24 24" fill="none" xmlns="http://www.w3.org/2000/svg">
<path d="M6.20547 13.066H8.89347C9.0148 13.066 9.13614 13.066 9.25747 13.066C9.38814 13.066 9.51414 13.066 9.63547 13.066L10.0415 12.898V13.696L10.0555 14.508H5.93947C5.91147 14.508 5.88814 14.5033 5.86947 14.494C5.8508 14.4753 5.8368 14.452 5.82747 14.424C5.82747 14.396 5.83214 14.3727 5.84147 14.354L6.20547 13.066ZM5.36547 17C5.11347 17 4.8568 17 4.59547 17C4.33414 17 4.07747 17 3.82547 17C3.78814 17 3.76014 16.9907 3.74147 16.972C3.71347 16.9533 3.6948 16.93 3.68547 16.902C3.67614 16.874 3.6808 16.8367 3.69947 16.79C3.83014 16.5287 3.99347 16.1973 4.18947 15.796C4.3948 15.3853 4.61414 14.9327 4.84747 14.438C5.0808 13.934 5.32814 13.4113 5.58947 12.87C5.86014 12.3193 6.12614 11.7687 6.38747 11.218C6.6488 10.658 6.89614 10.126 7.12947 9.622C7.37214 9.10867 7.59614 8.642 7.80147 8.222C8.0068 7.79267 8.17947 7.438 8.31947 7.158C8.79547 7.158 9.2668 7.158 9.73347 7.158C10.2095 7.158 10.6855 7.158 11.1615 7.158C11.1988 7.158 11.2268 7.16267 11.2455 7.172C11.2641 7.18133 11.2781 7.2 11.2875 7.228C11.2968 7.24667 11.3015 7.27933 11.3015 7.326C11.3015 7.886 11.2968 8.47867 11.2875 9.104C11.2781 9.72 11.2688 10.3593 11.2595 11.022C11.2501 11.6847 11.2408 12.3707 11.2315 13.08C11.2221 13.78 11.2081 14.5033 11.1895 15.25C11.1895 15.53 11.1801 15.8193 11.1615 16.118C11.1521 16.4073 11.1428 16.7013 11.1335 17C10.8815 17 10.6341 17 10.3915 17C10.1488 17 9.91547 17 9.69147 17C9.62614 17 9.5748 16.9907 9.53747 16.972C9.50947 16.9533 9.4908 16.9113 9.48147 16.846C9.47214 16.7807 9.46747 16.6827 9.46747 16.552C9.49547 15.8987 9.51414 15.2733 9.52347 14.676C9.54214 14.0787 9.55614 13.5047 9.56547 12.954C9.58414 12.394 9.59814 11.848 9.60747 11.316C9.62614 10.7747 9.6448 10.2427 9.66347 9.72C9.68214 9.188 9.7008 8.65133 9.71947 8.11L10.0415 8.432H9.01947L9.52347 8.138C9.29947 8.62333 9.06614 9.12733 8.82347 9.65C8.59014 10.1727 8.33814 10.714 8.06747 11.274C7.7968 11.834 7.5168 12.4173 7.22747 13.024C6.93814 13.6307 6.63947 14.2653 6.33147 14.928C6.02347 15.5907 5.70147 16.2813 5.36547 17ZM16.518 9.342C16.8633 9.342 17.1573 9.398 17.4 9.51C17.652 9.61267 17.8667 9.75733 18.044 9.944C18.2213 10.1307 18.3707 10.35 18.492 10.602H18.982L18.576 11.988C18.2773 11.5773 17.9927 11.2973 17.722 11.148C17.4513 10.9893 17.1527 10.91 16.826 10.91C16.574 10.91 16.35 10.9567 16.154 11.05C15.958 11.1433 15.79 11.2927 15.65 11.498C15.5193 11.7033 15.4073 11.974 15.314 12.31L14.95 13.794C14.894 14.0647 14.8753 14.2887 14.894 14.466C14.9127 14.6433 14.9687 14.7787 15.062 14.872C15.1367 14.9467 15.23 15.0027 15.342 15.04C15.454 15.0773 15.58 15.096 15.72 15.096C16 15.096 16.266 15.04 16.518 14.928C16.7793 14.816 17.0407 14.6527 17.302 14.438C17.5633 14.2233 17.82 13.9527 18.072 13.626L17.666 15.46H17.246C17.078 15.7027 16.882 15.922 16.658 16.118C16.434 16.3047 16.182 16.4493 15.902 16.552C15.6313 16.6547 15.3233 16.706 14.978 16.706C14.614 16.706 14.2967 16.6407 14.026 16.51C13.7553 16.37 13.5407 16.174 13.382 15.922C13.2233 15.67 13.1253 15.3667 13.088 15.012C13.06 14.648 13.102 14.2513 13.214 13.822L13.634 12.1C13.7553 11.596 13.9093 11.1713 14.096 10.826C14.2827 10.4713 14.4973 10.1867 14.74 9.972C14.9827 9.75733 15.2533 9.59867 15.552 9.496C15.8507 9.39333 16.1727 9.342 16.518 9.342ZM19.024 9.496C19.276 9.496 19.528 9.496 19.78 9.496C20.0413 9.496 20.298 9.496 20.55 9.496C20.5873 9.496 20.6153 9.50533 20.634 9.524C20.6527 9.53333 20.662 9.54733 20.662 9.566C20.6713 9.58467 20.6713 9.61267 20.662 9.65C20.5033 10.2847 20.3493 10.8913 20.2 11.47C20.06 12.0487 19.9153 12.618 19.766 13.178C19.626 13.7287 19.4813 14.2933 19.332 14.872C19.1827 15.4507 19.0287 16.0573 18.87 16.692C18.674 17.4667 18.3893 18.0873 18.016 18.554C17.652 19.0207 17.1947 19.3567 16.644 19.562C16.0933 19.7673 15.4447 19.87 14.698 19.87C14.25 19.87 13.8487 19.8373 13.494 19.772C13.1393 19.7067 12.8547 19.6273 12.64 19.534C12.4347 19.4407 12.2947 19.3613 12.22 19.296C12.2107 19.2773 12.206 19.254 12.206 19.226C12.1967 19.2073 12.1967 19.1793 12.206 19.142C12.262 18.918 12.3133 18.7127 12.36 18.526C12.4067 18.3393 12.458 18.1293 12.514 17.896H12.766C12.99 17.9987 13.2047 18.0827 13.41 18.148C13.6153 18.2227 13.83 18.2693 14.054 18.288C14.2873 18.316 14.5347 18.33 14.796 18.33C15.1787 18.33 15.5147 18.2833 15.804 18.19C16.0933 18.106 16.3407 17.9567 16.546 17.742C16.658 17.6393 16.756 17.5227 16.84 17.392C16.9333 17.2613 17.0173 17.1167 17.092 16.958C17.1667 16.79 17.2273 16.5987 17.274 16.384C17.4327 15.7493 17.582 15.1613 17.722 14.62C17.862 14.0787 18.002 13.542 18.142 13.01C18.282 12.4687 18.4267 11.8807 18.576 11.246C18.632 11.05 18.6833 10.8587 18.73 10.672C18.7767 10.476 18.8233 10.28 18.87 10.084C18.926 9.888 18.9773 9.692 19.024 9.496Z" fill="#888888"/>
</svg>
