<svg width="24" height="24" viewBox="0 0 24 24" fill="none" xmlns="http://www.w3.org/2000/svg">
<path d="M4.81947 13.248H9.77547C9.93414 13.248 10.0648 13.2667 10.1675 13.304C10.2701 13.332 10.3681 13.3833 10.4615 13.458L10.6435 13.416V13.64V13.92H5.04347C4.95014 13.92 4.88014 13.9013 4.83347 13.864C4.7868 13.8267 4.7588 13.7707 4.74947 13.696C4.74014 13.612 4.74947 13.5187 4.77747 13.416L4.81947 13.248ZM5.21147 17C5.17414 17.0093 5.1368 17.0187 5.09947 17.028C5.06214 17.0373 5.0108 17.042 4.94547 17.042C4.8428 17.042 4.7588 17.0093 4.69347 16.944C4.62814 16.8787 4.58614 16.776 4.56747 16.636C4.5488 16.496 4.55814 16.314 4.59547 16.09C4.67947 15.5393 4.7868 15.012 4.91747 14.508C5.04814 13.9947 5.19747 13.5047 5.36547 13.038C5.53347 12.562 5.72014 12.1047 5.92547 11.666C6.14014 11.2273 6.37347 10.8073 6.62547 10.406C6.87747 9.99533 7.14814 9.60333 7.43747 9.23C7.7268 8.84733 8.0348 8.48333 8.36147 8.138C8.68814 7.78333 9.03814 7.44267 9.41147 7.116C9.4768 7.09733 9.53747 7.08333 9.59347 7.074C9.64947 7.06467 9.71014 7.06 9.77547 7.06C9.94347 7.06 10.0741 7.088 10.1675 7.144C10.2608 7.2 10.3401 7.29333 10.4055 7.424C10.4708 7.54533 10.5455 7.71333 10.6295 7.928C10.8348 8.42267 10.9888 8.978 11.0915 9.594C11.2035 10.2007 11.2688 10.84 11.2875 11.512C11.3061 12.184 11.2828 12.8653 11.2175 13.556C11.1521 14.2467 11.0495 14.9187 10.9095 15.572C10.8348 15.9453 10.7835 16.2253 10.7555 16.412C10.7275 16.5987 10.7088 16.7947 10.6995 17C10.6715 17.0187 10.6341 17.0327 10.5875 17.042C10.5408 17.0513 10.4941 17.056 10.4475 17.056C10.3355 17.056 10.2375 17.0233 10.1535 16.958C10.0788 16.8927 10.0321 16.7993 10.0135 16.678C9.9948 16.5473 10.0041 16.3887 10.0415 16.202C10.2095 15.5113 10.3355 14.83 10.4195 14.158C10.5128 13.4767 10.5641 12.8233 10.5735 12.198C10.5921 11.5633 10.5688 10.9613 10.5035 10.392C10.4475 9.82267 10.3541 9.3 10.2235 8.824C10.0928 8.348 9.92947 7.93267 9.73347 7.578L9.90147 7.704H9.59347L9.85947 7.564C9.40214 7.97467 8.9588 8.432 8.52947 8.936C8.10947 9.44 7.7128 9.99067 7.33947 10.588C6.97547 11.176 6.64414 11.8107 6.34547 12.492C6.05614 13.164 5.81347 13.878 5.61747 14.634C5.42147 15.3807 5.28614 16.1693 5.21147 17ZM17.26 9.496C17.6053 9.496 17.9087 9.54733 18.17 9.65C18.4407 9.74333 18.674 9.88333 18.87 10.07C19.0753 10.2473 19.2527 10.462 19.402 10.714H19.654L19.402 11.638C19.15 11.1153 18.8653 10.7373 18.548 10.504C18.2307 10.2707 17.848 10.154 17.4 10.154C16.9147 10.154 16.4667 10.2753 16.056 10.518C15.6453 10.7607 15.2813 11.134 14.964 11.638C14.6467 12.1327 14.3807 12.772 14.166 13.556L14.11 13.766C14.0167 14.13 13.956 14.4567 13.928 14.746C13.9093 15.026 13.9187 15.306 13.956 15.586C14.096 15.754 14.2593 15.8753 14.446 15.95C14.6327 16.0247 14.8567 16.062 15.118 16.062C15.5193 16.062 15.9207 15.964 16.322 15.768C16.7327 15.572 17.1667 15.2267 17.624 14.732C18.0813 14.228 18.5853 13.514 19.136 12.59L18.702 14.508L18.408 14.41C18.128 14.8767 17.8107 15.2873 17.456 15.642C17.1107 15.9873 16.742 16.2533 16.35 16.44C15.958 16.6267 15.5473 16.72 15.118 16.72C14.698 16.72 14.3527 16.6453 14.082 16.496C13.8207 16.3467 13.62 16.1413 13.48 15.88C13.3493 15.6093 13.2793 15.2967 13.27 14.942C13.2607 14.578 13.3073 14.1907 13.41 13.78L13.466 13.556C13.662 12.7907 13.8953 12.1467 14.166 11.624C14.446 11.1013 14.754 10.686 15.09 10.378C15.426 10.0607 15.776 9.83667 16.14 9.706C16.5133 9.566 16.8867 9.496 17.26 9.496ZM19.934 9.636C19.9807 9.61733 20.0227 9.608 20.06 9.608C20.0973 9.59867 20.1347 9.594 20.172 9.594C20.2747 9.594 20.354 9.61733 20.41 9.664C20.466 9.70133 20.494 9.76667 20.494 9.86C20.5033 9.95333 20.48 10.07 20.424 10.21C20.2093 10.7233 20.018 11.2647 19.85 11.834C19.6913 12.4033 19.5373 12.9867 19.388 13.584C19.248 14.1813 19.0987 14.7787 18.94 15.376C18.7813 15.9733 18.5947 16.552 18.38 17.112C18.128 17.784 17.82 18.3207 17.456 18.722C17.1013 19.1327 16.6813 19.4267 16.196 19.604C15.7107 19.7813 15.146 19.87 14.502 19.87C14.2033 19.87 13.9327 19.842 13.69 19.786C13.4567 19.7393 13.256 19.6693 13.088 19.576C12.92 19.492 12.7893 19.4033 12.696 19.31C12.64 19.2447 12.6027 19.1747 12.584 19.1C12.5653 19.0347 12.5653 18.9553 12.584 18.862C12.6027 18.7967 12.6213 18.736 12.64 18.68C12.668 18.624 12.7007 18.5773 12.738 18.54H12.822C12.9713 18.6987 13.13 18.8247 13.298 18.918C13.4753 19.0207 13.676 19.0907 13.9 19.128C14.1333 19.1747 14.4133 19.198 14.74 19.198C15.1507 19.198 15.5287 19.1467 15.874 19.044C16.2193 18.9413 16.5507 18.7827 16.868 18.568C16.9893 18.4 17.092 18.2367 17.176 18.078C17.2693 17.9193 17.358 17.7513 17.442 17.574C17.526 17.3967 17.6147 17.1913 17.708 16.958C17.9227 16.4167 18.1187 15.824 18.296 15.18C18.4733 14.536 18.646 13.8733 18.814 13.192C18.982 12.5013 19.1593 11.8247 19.346 11.162C19.402 10.9847 19.458 10.8073 19.514 10.63C19.5793 10.4527 19.6447 10.28 19.71 10.112C19.7847 9.944 19.8593 9.78533 19.934 9.636Z" fill="#888888"/>
</svg>
