<svg width="24" height="24" viewBox="0 0 24 24" fill="none" xmlns="http://www.w3.org/2000/svg">
<path d="M3.894 13.122H8.836C9.05067 13.122 9.228 13.15 9.368 13.206C9.51733 13.2527 9.63867 13.332 9.732 13.444H10.04V13.85V14.298H4.132C4.01067 14.298 3.922 14.256 3.866 14.172C3.81 14.088 3.77733 13.976 3.768 13.836C3.768 13.6867 3.78667 13.528 3.824 13.36L3.894 13.122ZM4.916 17.056C4.85067 17.0747 4.77133 17.0933 4.678 17.112C4.594 17.1307 4.50533 17.14 4.412 17.14C4.216 17.14 4.062 17.1027 3.95 17.028C3.838 16.9627 3.76333 16.8553 3.726 16.706C3.698 16.5567 3.70267 16.3747 3.74 16.16C3.86133 15.6 3.99667 15.0633 4.146 14.55C4.30467 14.0273 4.47733 13.528 4.664 13.052C4.86 12.5667 5.07 12.1 5.294 11.652C5.52733 11.204 5.77467 10.7793 6.036 10.378C6.29733 9.96733 6.568 9.57533 6.848 9.202C7.13733 8.81933 7.436 8.45533 7.744 8.11C8.052 7.76467 8.36933 7.43333 8.696 7.116C8.79867 7.09733 8.89667 7.08333 8.99 7.074C9.09267 7.06467 9.2 7.06 9.312 7.06C9.61067 7.06 9.84867 7.10667 10.026 7.2C10.2033 7.284 10.3387 7.41933 10.432 7.606C10.5347 7.78333 10.6233 8.02133 10.698 8.32C10.8287 8.77733 10.936 9.27667 11.02 9.818C11.104 10.35 11.16 10.9193 11.188 11.526C11.216 12.1233 11.2113 12.7393 11.174 13.374C11.146 14.0087 11.0713 14.648 10.95 15.292C10.8847 15.6747 10.8333 16.006 10.796 16.286C10.7587 16.5567 10.7353 16.8133 10.726 17.056C10.642 17.0747 10.558 17.0933 10.474 17.112C10.3993 17.1307 10.3107 17.14 10.208 17.14C10.0027 17.14 9.83467 17.1073 9.704 17.042C9.57333 16.9767 9.48467 16.86 9.438 16.692C9.40067 16.5147 9.41 16.2813 9.466 15.992C9.606 15.348 9.70867 14.7273 9.774 14.13C9.84867 13.5327 9.88133 12.9633 9.872 12.422C9.872 11.8713 9.844 11.344 9.788 10.84C9.732 10.3267 9.65267 9.83667 9.55 9.37C9.45667 8.90333 9.34933 8.45533 9.228 8.026L9.522 8.32L8.962 8.25L9.396 8.054C8.92933 8.54867 8.49067 9.08067 8.08 9.65C7.67867 10.21 7.31 10.7933 6.974 11.4C6.638 12.0067 6.33467 12.632 6.064 13.276C5.80267 13.9107 5.574 14.5453 5.378 15.18C5.182 15.8147 5.028 16.44 4.916 17.056ZM16.8635 9.398C17.1901 9.398 17.4795 9.454 17.7315 9.566C17.9928 9.66867 18.2168 9.81333 18.4035 10C18.5995 10.1867 18.7581 10.4013 18.8795 10.644H19.2295L18.9215 11.708C18.7255 11.3253 18.4735 11.0453 18.1655 10.868C17.8575 10.6907 17.5028 10.602 17.1015 10.602C16.7001 10.602 16.3315 10.7047 15.9955 10.91C15.6595 11.106 15.3655 11.4047 15.1135 11.806C14.8615 12.2073 14.6515 12.716 14.4835 13.332L14.4135 13.556C14.3388 13.8547 14.2875 14.1253 14.2595 14.368C14.2315 14.6013 14.2221 14.8347 14.2315 15.068C14.3341 15.1707 14.4461 15.2453 14.5675 15.292C14.6981 15.3293 14.8475 15.348 15.0155 15.348C15.3981 15.348 15.7855 15.2687 16.1775 15.11C16.5788 14.9513 16.9941 14.662 17.4235 14.242C17.8528 13.822 18.3008 13.2247 18.7675 12.45L18.2915 14.606L17.8715 14.55C17.6008 14.9793 17.2928 15.3573 16.9475 15.684C16.6115 16.0013 16.2568 16.2487 15.8835 16.426C15.5195 16.594 15.1508 16.678 14.7775 16.678C14.3855 16.678 14.0588 16.594 13.7975 16.426C13.5455 16.258 13.3495 16.0293 13.2095 15.74C13.0695 15.4507 12.9901 15.124 12.9715 14.76C12.9621 14.3867 13.0041 14.0087 13.0975 13.626L13.1675 13.332C13.3541 12.6227 13.5735 12.016 13.8255 11.512C14.0868 11.008 14.3808 10.602 14.7075 10.294C15.0341 9.986 15.3795 9.762 15.7435 9.622C16.1075 9.47267 16.4808 9.398 16.8635 9.398ZM19.4255 9.524C19.4721 9.50533 19.5235 9.49133 19.5795 9.482C19.6355 9.47267 19.6915 9.468 19.7475 9.468C19.9341 9.468 20.0881 9.51467 20.2095 9.608C20.3308 9.70133 20.4055 9.832 20.4335 10C20.4708 10.1587 20.4475 10.3453 20.3635 10.56C20.1395 11.1107 19.9481 11.666 19.7895 12.226C19.6401 12.7767 19.5048 13.3227 19.3835 13.864C19.2621 14.4053 19.1315 14.9467 18.9915 15.488C18.8608 16.02 18.6975 16.5427 18.5015 17.056C18.2681 17.6907 17.9508 18.2133 17.5495 18.624C17.1481 19.044 16.6721 19.352 16.1215 19.548C15.5708 19.744 14.9595 19.842 14.2875 19.842C13.9608 19.842 13.6808 19.814 13.4475 19.758C13.2141 19.7113 13.0228 19.6413 12.8735 19.548C12.7335 19.464 12.6168 19.3753 12.5235 19.282C12.4488 19.17 12.4021 19.0487 12.3835 18.918C12.3741 18.7967 12.3881 18.652 12.4255 18.484C12.4441 18.4093 12.4675 18.3347 12.4955 18.26C12.5235 18.1947 12.5561 18.134 12.5935 18.078H12.6775C12.8268 18.1993 12.9948 18.302 13.1815 18.386C13.3681 18.4793 13.5828 18.5447 13.8255 18.582C14.0775 18.6193 14.3715 18.638 14.7075 18.638C15.0341 18.638 15.3421 18.6007 15.6315 18.526C15.9208 18.4513 16.2008 18.3393 16.4715 18.19C16.6021 18.022 16.7188 17.854 16.8215 17.686C16.9241 17.518 17.0175 17.3407 17.1015 17.154C17.1948 16.9673 17.2835 16.7573 17.3675 16.524C17.5635 15.9827 17.7315 15.4227 17.8715 14.844C18.0115 14.2653 18.1515 13.668 18.2915 13.052C18.4408 12.4267 18.6181 11.778 18.8235 11.106C18.8795 10.938 18.9355 10.7653 18.9915 10.588C19.0568 10.4107 19.1221 10.2333 19.1875 10.056C19.2621 9.86933 19.3415 9.692 19.4255 9.524Z" fill="#888888"/>
</svg>
