<svg width="24" height="24" viewBox="0 0 24 24" fill="none" xmlns="http://www.w3.org/2000/svg">
<path d="M5.42 13.122H9.536C9.592 13.122 9.662 13.122 9.746 13.122C9.83 13.122 9.9 13.122 9.956 13.122L10.152 12.982L10.18 13.374L10.194 13.752H5.336C5.29867 13.752 5.27067 13.7473 5.252 13.738C5.23333 13.7193 5.21933 13.696 5.21 13.668C5.21 13.64 5.21467 13.6167 5.224 13.598L5.42 13.122ZM3.6 17C3.50667 17 3.41333 17 3.32 17C3.236 17 3.14733 17 3.054 17C3.00733 17 2.97467 16.9907 2.956 16.972C2.928 16.9533 2.914 16.93 2.914 16.902C2.914 16.874 2.92333 16.8413 2.942 16.804C3.21267 16.3373 3.48333 15.8753 3.754 15.418C4.02467 14.9513 4.29533 14.4847 4.566 14.018C4.846 13.5513 5.12133 13.0893 5.392 12.632C5.66267 12.1653 5.93333 11.7033 6.204 11.246C6.47467 10.7793 6.74533 10.3127 7.016 9.846C7.28667 9.37933 7.55733 8.91733 7.828 8.46C8.09867 7.99333 8.36933 7.52667 8.64 7.06C8.836 7.06 9.02733 7.06 9.214 7.06C9.41 7.06 9.606 7.06 9.802 7.06C9.84867 7.06 9.88133 7.06467 9.9 7.074C9.928 7.08333 9.94667 7.102 9.956 7.13C9.97467 7.158 9.984 7.2 9.984 7.256C10.0493 7.984 10.1147 8.71667 10.18 9.454C10.2547 10.1913 10.3247 10.9287 10.39 11.666C10.4553 12.4033 10.5207 13.1453 10.586 13.892C10.6607 14.6293 10.7307 15.3667 10.796 16.104C10.8147 16.2533 10.8287 16.4027 10.838 16.552C10.8473 16.7013 10.8567 16.8507 10.866 17C10.7727 17 10.6747 17 10.572 17C10.4787 17 10.3853 17 10.292 17C10.2547 17 10.2267 16.9953 10.208 16.986C10.1893 16.9673 10.1753 16.944 10.166 16.916C10.1567 16.888 10.1473 16.846 10.138 16.79C10.0913 16.3233 10.04 15.8053 9.984 15.236C9.93733 14.6573 9.88133 14.0507 9.816 13.416C9.76 12.7813 9.69933 12.1327 9.634 11.47C9.578 10.8073 9.522 10.1493 9.466 9.496C9.41 8.84267 9.354 8.21267 9.298 7.606L9.522 7.69H8.738L9.06 7.606C8.696 8.23133 8.29933 8.91267 7.87 9.65C7.44067 10.3873 7.00667 11.134 6.568 11.89C6.12933 12.646 5.714 13.3647 5.322 14.046C4.93 14.7273 4.58 15.3293 4.272 15.852C3.97333 16.3653 3.74933 16.748 3.6 17ZM16.7515 9.496C17.1061 9.496 17.4235 9.552 17.7035 9.664C17.9835 9.76667 18.2355 9.91133 18.4595 10.098C18.6835 10.2847 18.8795 10.504 19.0475 10.756H19.3695L19.0895 11.764C18.7441 11.176 18.3895 10.756 18.0255 10.504C17.6708 10.252 17.2275 10.126 16.6955 10.126C16.3128 10.126 15.9675 10.2007 15.6595 10.35C15.3608 10.49 15.1041 10.728 14.8895 11.064C14.6748 11.3907 14.4928 11.834 14.3435 12.394L13.9375 13.976C13.8161 14.4707 13.7788 14.886 13.8255 15.222C13.8721 15.558 13.9888 15.8193 14.1755 16.006C14.2968 16.1273 14.4461 16.2207 14.6235 16.286C14.8008 16.342 15.0015 16.37 15.2255 16.37C15.5895 16.37 15.9395 16.3 16.2755 16.16C16.6115 16.02 16.9568 15.782 17.3115 15.446C17.6755 15.11 18.0675 14.6433 18.4875 14.046L18.1095 15.684H17.7875C17.6008 15.9267 17.3768 16.1507 17.1155 16.356C16.8541 16.552 16.5648 16.7107 16.2475 16.832C15.9301 16.944 15.5895 17 15.2255 17C14.7961 17 14.4275 16.93 14.1195 16.79C13.8208 16.6407 13.5875 16.4307 13.4195 16.16C13.2515 15.8893 13.1535 15.5673 13.1255 15.194C13.0975 14.8113 13.1395 14.3913 13.2515 13.934L13.6575 12.282C13.7881 11.778 13.9468 11.3487 14.1335 10.994C14.3295 10.6393 14.5581 10.3547 14.8195 10.14C15.0808 9.916 15.3701 9.75267 15.6875 9.65C16.0141 9.54733 16.3688 9.496 16.7515 9.496ZM19.5095 9.636C19.6028 9.636 19.6915 9.636 19.7755 9.636C19.8688 9.636 19.9621 9.636 20.0555 9.636C20.0928 9.636 20.1208 9.64533 20.1395 9.664C20.1581 9.67333 20.1675 9.68733 20.1675 9.706C20.1768 9.72467 20.1768 9.75267 20.1675 9.79C20.0088 10.406 19.8548 10.9987 19.7055 11.568C19.5655 12.1373 19.4255 12.6973 19.2855 13.248C19.1455 13.7893 19.0008 14.3447 18.8515 14.914C18.7115 15.4833 18.5621 16.076 18.4035 16.692C18.1888 17.5227 17.8995 18.162 17.5355 18.61C17.1715 19.058 16.7188 19.366 16.1775 19.534C15.6455 19.7113 15.0201 19.8 14.3015 19.8C13.9841 19.8 13.6808 19.7673 13.3915 19.702C13.1115 19.646 12.8735 19.5713 12.6775 19.478C12.4815 19.394 12.3555 19.3147 12.2995 19.24C12.2901 19.2213 12.2855 19.198 12.2855 19.17C12.2761 19.1513 12.2761 19.1233 12.2855 19.086C12.3041 19.0207 12.3275 18.9507 12.3555 18.876C12.3741 18.8107 12.4021 18.7313 12.4395 18.638H12.6075C12.8035 18.75 12.9901 18.8433 13.1675 18.918C13.3448 18.9927 13.5408 19.044 13.7555 19.072C13.9701 19.1093 14.2221 19.128 14.5115 19.128C14.9781 19.128 15.3981 19.072 15.7715 18.96C16.1448 18.848 16.4715 18.652 16.7515 18.372C16.8915 18.232 17.0175 18.078 17.1295 17.91C17.2508 17.7513 17.3628 17.56 17.4655 17.336C17.5681 17.1213 17.6568 16.8647 17.7315 16.566C17.9088 15.9033 18.0675 15.2873 18.2075 14.718C18.3568 14.1487 18.5015 13.5793 18.6415 13.01C18.7908 12.4313 18.9495 11.8107 19.1175 11.148C19.1641 10.98 19.2061 10.812 19.2435 10.644C19.2901 10.476 19.3368 10.308 19.3835 10.14C19.4301 9.972 19.4721 9.804 19.5095 9.636Z" fill="#888888"/>
</svg>
