<svg width="24" height="24" viewBox="0 0 24 24" fill="none" xmlns="http://www.w3.org/2000/svg">
<path d="M3.712 12.73H7.604C7.90267 12.73 8.15 12.7813 8.346 12.884C8.55133 12.9867 8.70067 13.122 8.794 13.29L9.032 13.262V14.116V15.04H3.978C3.81 15.04 3.684 14.956 3.6 14.788C3.516 14.62 3.474 14.4007 3.474 14.13C3.48333 13.85 3.52067 13.556 3.586 13.248L3.712 12.73ZM6.246 17C6.08733 17.0467 5.91467 17.0793 5.728 17.098C5.55067 17.126 5.378 17.14 5.21 17.14C4.75267 17.14 4.40733 17.07 4.174 16.93C3.95 16.79 3.81 16.5753 3.754 16.286C3.70733 15.9873 3.72133 15.614 3.796 15.166C3.88 14.662 3.98267 14.1767 4.104 13.71C4.22533 13.234 4.36533 12.7767 4.524 12.338C4.692 11.8993 4.86933 11.4793 5.056 11.078C5.24267 10.6673 5.44333 10.28 5.658 9.916C5.87267 9.552 6.09667 9.20667 6.33 8.88C6.56333 8.55333 6.80133 8.25 7.044 7.97C7.28667 7.68067 7.534 7.41933 7.786 7.186C8.01933 7.13933 8.23867 7.10667 8.444 7.088C8.65867 7.06933 8.87333 7.06 9.088 7.06C9.61067 7.06 10.026 7.12533 10.334 7.256C10.6513 7.38667 10.894 7.58733 11.062 7.858C11.23 8.11933 11.3513 8.45533 11.426 8.866C11.4913 9.23933 11.538 9.65 11.566 10.098C11.6033 10.546 11.6173 11.0267 11.608 11.54C11.5987 12.0533 11.566 12.6087 11.51 13.206C11.454 13.794 11.3747 14.424 11.272 15.096C11.2067 15.4693 11.1693 15.8007 11.16 16.09C11.1507 16.37 11.1693 16.6733 11.216 17C11.02 17.0467 10.8333 17.0793 10.656 17.098C10.488 17.126 10.3153 17.14 10.138 17.14C9.69 17.14 9.326 17.0793 9.046 16.958C8.77533 16.8367 8.598 16.6267 8.514 16.328C8.43 16.0293 8.444 15.6187 8.556 15.096C8.668 14.5547 8.75667 14.0507 8.822 13.584C8.89667 13.108 8.948 12.66 8.976 12.24C9.004 11.8107 9.01333 11.4047 9.004 11.022C8.99467 10.63 8.96667 10.252 8.92 9.888C8.88267 9.51467 8.836 9.146 8.78 8.782L9.284 9.622L8.374 9.454L9.396 8.74C8.92933 9.31867 8.51867 9.91133 8.164 10.518C7.81867 11.1247 7.52467 11.7267 7.282 12.324C7.03933 12.9213 6.84333 13.5047 6.694 14.074C6.54467 14.6433 6.43267 15.1753 6.358 15.67C6.29267 16.1647 6.25533 16.608 6.246 17ZM16.3035 9.174C16.6301 9.174 16.9101 9.23467 17.1435 9.356C17.3861 9.47733 17.5821 9.64533 17.7315 9.86C17.8901 10.0653 18.0115 10.294 18.0955 10.546H18.5015L18.1235 11.82C18.0208 11.6893 17.8715 11.5913 17.6755 11.526C17.4888 11.4607 17.2695 11.428 17.0175 11.428C16.8308 11.428 16.6581 11.47 16.4995 11.554C16.3408 11.638 16.1961 11.7827 16.0655 11.988C15.9441 12.1933 15.8321 12.478 15.7295 12.842L15.6875 12.996C15.6408 13.1827 15.5988 13.36 15.5615 13.528C15.5335 13.696 15.5101 13.85 15.4915 13.99C15.5381 14.0087 15.5848 14.0227 15.6315 14.032C15.6875 14.032 15.7435 14.032 15.7995 14.032C16.0141 14.032 16.2288 14.004 16.4435 13.948C16.6581 13.892 16.8775 13.794 17.1015 13.654C17.3255 13.5047 17.5448 13.2993 17.7595 13.038L17.4515 14.76H17.0175C16.8028 15.1333 16.5415 15.46 16.2335 15.74C15.9255 16.02 15.6035 16.2393 15.2675 16.398C14.9408 16.5567 14.6235 16.636 14.3155 16.636C14.0168 16.636 13.7508 16.5427 13.5175 16.356C13.2841 16.1693 13.0928 15.922 12.9435 15.614C12.8035 15.306 12.7148 14.97 12.6775 14.606C12.6401 14.2327 12.6635 13.864 12.7475 13.5L12.8315 13.136C12.9995 12.4733 13.1955 11.8947 13.4195 11.4C13.6435 10.9053 13.9001 10.4947 14.1895 10.168C14.4788 9.832 14.8008 9.58467 15.1555 9.426C15.5101 9.258 15.8928 9.174 16.3035 9.174ZM18.7255 9.314C18.8188 9.29533 18.9215 9.28133 19.0335 9.272C19.1455 9.25333 19.2575 9.244 19.3695 9.244C19.7895 9.244 20.1208 9.33733 20.3635 9.524C20.6155 9.71067 20.7695 9.96733 20.8255 10.294C20.8908 10.6113 20.8441 10.98 20.6855 11.4C20.5081 11.8667 20.3588 12.3333 20.2375 12.8C20.1161 13.2667 20.0041 13.7287 19.9015 14.186C19.7988 14.6433 19.6915 15.0913 19.5795 15.53C19.4675 15.9687 19.3368 16.3933 19.1875 16.804C18.9635 17.4293 18.6135 17.966 18.1375 18.414C17.6708 18.862 17.1155 19.2027 16.4715 19.436C15.8275 19.6787 15.1368 19.8 14.3995 19.8C13.9608 19.8 13.5968 19.772 13.3075 19.716C13.0181 19.6693 12.7848 19.5993 12.6075 19.506C12.4395 19.422 12.2995 19.324 12.1875 19.212C12.0288 19.0347 11.9401 18.8387 11.9215 18.624C11.8935 18.4093 11.9215 18.148 12.0055 17.84C12.0428 17.6907 12.1035 17.532 12.1875 17.364C12.2621 17.2053 12.3461 17.0373 12.4395 16.86H12.5235C12.7008 16.9533 12.9061 17.0373 13.1395 17.112C13.3821 17.1867 13.6481 17.2427 13.9375 17.28C14.2361 17.3267 14.5441 17.35 14.8615 17.35C15.0481 17.35 15.2488 17.336 15.4635 17.308C15.6781 17.2893 15.9021 17.2567 16.1355 17.21C16.2475 17.0513 16.3408 16.8927 16.4155 16.734C16.4995 16.566 16.5835 16.3747 16.6675 16.16C16.7515 15.936 16.8401 15.6653 16.9335 15.348C17.0828 14.8907 17.1995 14.4473 17.2835 14.018C17.3768 13.5793 17.4748 13.1267 17.5775 12.66C17.6801 12.1933 17.8108 11.694 17.9695 11.162C18.0348 10.938 18.1095 10.7187 18.1935 10.504C18.2775 10.2893 18.3615 10.084 18.4455 9.888C18.5388 9.692 18.6321 9.50067 18.7255 9.314Z" fill="#888888"/>
</svg>
