<svg width="24" height="24" viewBox="0 0 24 24" fill="none" xmlns="http://www.w3.org/2000/svg">
<path d="M5.336 13.08H8.164C8.32267 13.08 8.47667 13.08 8.626 13.08C8.78467 13.08 8.93867 13.08 9.088 13.08L9.606 12.954L9.83 13.934L10.04 14.9H5.462C5.434 14.9 5.406 14.8953 5.378 14.886C5.35933 14.8673 5.34067 14.8487 5.322 14.83C5.31267 14.802 5.308 14.774 5.308 14.746L5.336 13.08ZM5.826 17C5.49933 17 5.168 17 4.832 17C4.50533 17 4.17867 17 3.852 17C3.83333 17 3.81467 16.9953 3.796 16.986C3.77733 16.9767 3.75867 16.958 3.74 16.93C3.73067 16.902 3.73067 16.8647 3.74 16.818C3.78667 16.622 3.852 16.3327 3.936 15.95C4.02933 15.5673 4.132 15.124 4.244 14.62C4.36533 14.116 4.49133 13.5793 4.622 13.01C4.762 12.4313 4.89733 11.8573 5.028 11.288C5.168 10.7093 5.29867 10.154 5.42 9.622C5.54133 9.09 5.64867 8.61867 5.742 8.208C5.84467 7.788 5.924 7.452 5.98 7.2C6.568 7.2 7.17467 7.2 7.8 7.2C8.42533 7.2 8.98533 7.2 9.48 7.2C9.51733 7.2 9.54533 7.20933 9.564 7.228C9.58267 7.23733 9.59667 7.25133 9.606 7.27C9.62467 7.28867 9.63867 7.31667 9.648 7.354C9.76 7.84867 9.88133 8.376 10.012 8.936C10.152 9.496 10.292 10.0933 10.432 10.728C10.5813 11.3533 10.7353 12.0113 10.894 12.702C11.062 13.3927 11.23 14.1113 11.398 14.858C11.4727 15.2033 11.552 15.5533 11.636 15.908C11.72 16.2627 11.7947 16.6267 11.86 17C11.5707 17 11.2533 17 10.908 17C10.5627 17 10.2407 17 9.942 17C9.886 17 9.83933 16.9953 9.802 16.986C9.774 16.9673 9.75067 16.9393 9.732 16.902C9.71333 16.8647 9.69467 16.8087 9.676 16.734C9.452 15.8193 9.25133 14.998 9.074 14.27C8.906 13.5327 8.752 12.8747 8.612 12.296C8.48133 11.7173 8.36933 11.1993 8.276 10.742C8.192 10.2847 8.11733 9.874 8.052 9.51C7.996 9.146 7.94933 8.81467 7.912 8.516L8.528 8.88H7.1L7.702 8.516C7.66467 8.81467 7.61333 9.146 7.548 9.51C7.48267 9.874 7.39867 10.2893 7.296 10.756C7.20267 11.2227 7.086 11.7547 6.946 12.352C6.806 12.9493 6.64267 13.6307 6.456 14.396C6.27867 15.1613 6.06867 16.0293 5.826 17ZM13.6855 15.95C13.6855 15.7353 13.7228 15.5393 13.7975 15.362C13.8815 15.1847 14.0121 15.0307 14.1895 14.9C14.3668 14.7693 14.5908 14.6667 14.8615 14.592V14.116L15.7855 14.466C15.7855 14.606 15.7855 14.746 15.7855 14.886C15.7855 15.0167 15.7855 15.152 15.7855 15.292C15.7855 15.3853 15.7995 15.4507 15.8275 15.488C15.8648 15.516 15.9301 15.53 16.0235 15.53H17.7455C18.3055 15.53 18.7628 15.628 19.1175 15.824C19.4815 16.0107 19.7521 16.272 19.9295 16.608C20.1068 16.944 20.1955 17.3313 20.1955 17.77V18.33C20.1955 18.6567 20.1441 18.9507 20.0415 19.212C19.9481 19.4827 19.7988 19.7113 19.5935 19.898C19.3975 20.094 19.1455 20.2433 18.8375 20.346C18.5295 20.4487 18.1655 20.5 17.7455 20.5H14.8195C14.3341 20.5 13.9281 20.4393 13.6015 20.318C13.2841 20.206 13.0415 20.0333 12.8735 19.8C12.7148 19.5667 12.6355 19.268 12.6355 18.904V18.652C12.6355 18.372 12.6961 18.1247 12.8175 17.91C12.9388 17.7047 13.1068 17.532 13.3215 17.392C13.5361 17.2613 13.7881 17.1773 14.0775 17.14V16.58L15.1415 17.224C15.0295 17.2707 14.9408 17.3267 14.8755 17.392C14.8195 17.4667 14.7775 17.546 14.7495 17.63C14.7215 17.7233 14.7075 17.8307 14.7075 17.952V18.414C14.7075 18.5727 14.7261 18.694 14.7635 18.778C14.8101 18.8713 14.8801 18.9367 14.9735 18.974C15.0668 19.0113 15.1881 19.03 15.3375 19.03H17.4935C17.6055 19.03 17.6988 19.016 17.7735 18.988C17.8575 18.9693 17.9228 18.9367 17.9695 18.89C18.0255 18.834 18.0628 18.7547 18.0815 18.652C18.1095 18.5493 18.1235 18.4373 18.1235 18.316V17.91C18.1235 17.6673 18.0768 17.4993 17.9835 17.406C17.8901 17.322 17.7268 17.28 17.4935 17.28H14.9315C14.7261 17.28 14.5255 17.2193 14.3295 17.098C14.1428 16.9767 13.9888 16.8133 13.8675 16.608C13.7461 16.4027 13.6855 16.1833 13.6855 15.95ZM17.0875 10.98L18.4455 10.854V11.274C18.7815 11.3673 19.0241 11.5073 19.1735 11.694C19.3321 11.8713 19.4115 12.1187 19.4115 12.436V12.632C19.4115 13.024 19.2948 13.3647 19.0615 13.654C18.8375 13.934 18.4921 14.1533 18.0255 14.312C17.5588 14.4613 16.9661 14.536 16.2475 14.536C15.5381 14.536 14.9408 14.4427 14.4555 14.256C13.9701 14.06 13.6015 13.78 13.3495 13.416C13.1068 13.052 12.9855 12.6133 12.9855 12.1V11.806C12.9855 11.2833 13.1068 10.8353 13.3495 10.462C13.6015 10.0887 13.9701 9.804 14.4555 9.608C14.9408 9.40267 15.5381 9.3 16.2475 9.3C16.8821 9.3 17.5168 9.3 18.1515 9.3C18.7955 9.3 19.4348 9.3 20.0695 9.3C20.0695 9.56133 20.0695 9.82733 20.0695 10.098C20.0695 10.3593 20.0695 10.6253 20.0695 10.896C20.0695 10.9333 20.0555 10.9707 20.0275 11.008C19.9995 11.036 19.9621 11.05 19.9155 11.05C19.5141 11.05 19.1221 11.05 18.7395 11.05C18.3568 11.05 17.9648 11.05 17.5635 11.05C17.1621 11.05 16.7235 11.05 16.2475 11.05C15.8461 11.05 15.5381 11.12 15.3235 11.26C15.1181 11.3907 15.0155 11.6007 15.0155 11.89V12.114C15.0155 12.2353 15.0341 12.338 15.0715 12.422C15.1088 12.506 15.1601 12.5853 15.2255 12.66C15.3281 12.7533 15.4635 12.828 15.6315 12.884C15.7995 12.9307 16.0048 12.954 16.2475 12.954C16.6581 12.954 16.9521 12.884 17.1295 12.744C17.3068 12.5947 17.3955 12.3707 17.3955 12.072V11.778C17.3955 11.666 17.3861 11.568 17.3675 11.484C17.3488 11.3907 17.3161 11.3067 17.2695 11.232C17.2321 11.148 17.1715 11.064 17.0875 10.98Z" fill="#888888"/>
</svg>
