<svg width="24" height="24" viewBox="0 0 24 24" fill="none" xmlns="http://www.w3.org/2000/svg">
<path d="M6.21947 13.066H8.66947C8.80947 13.066 8.9448 13.066 9.07547 13.066C9.21547 13.066 9.35547 13.066 9.49547 13.066L9.92947 12.884L9.94347 13.766V14.676H5.92547C5.89747 14.676 5.87414 14.6713 5.85547 14.662C5.8368 14.6433 5.8228 14.62 5.81347 14.592C5.81347 14.564 5.81347 14.5407 5.81347 14.522L6.21947 13.066ZM5.58947 17C5.30014 17 5.00614 17 4.70747 17C4.4088 17 4.11947 17 3.83947 17C3.80214 17 3.77414 16.9907 3.75547 16.972C3.72747 16.9533 3.7088 16.93 3.69947 16.902C3.69014 16.874 3.6948 16.8367 3.71347 16.79C3.81614 16.5753 3.9608 16.272 4.14747 15.88C4.33414 15.4787 4.53947 15.026 4.76347 14.522C4.9968 14.018 5.24414 13.4813 5.50547 12.912C5.7668 12.3427 6.02814 11.7733 6.28947 11.204C6.5508 10.6253 6.79814 10.0793 7.03147 9.566C7.27414 9.04333 7.4888 8.57667 7.67547 8.166C7.87147 7.75533 8.03014 7.42867 8.15147 7.186C8.68347 7.186 9.2108 7.186 9.73347 7.186C10.2655 7.186 10.7975 7.186 11.3295 7.186C11.3668 7.186 11.3901 7.19067 11.3995 7.2C11.4181 7.20933 11.4321 7.228 11.4415 7.256C11.4508 7.27467 11.4555 7.30267 11.4555 7.34C11.4461 7.872 11.4321 8.43667 11.4135 9.034C11.3948 9.622 11.3715 10.2427 11.3435 10.896C11.3155 11.54 11.2875 12.212 11.2595 12.912C11.2408 13.612 11.2175 14.3353 11.1895 15.082C11.1801 15.39 11.1661 15.7027 11.1475 16.02C11.1288 16.3373 11.1148 16.664 11.1055 17C10.8161 17 10.5361 17 10.2655 17C9.9948 17 9.73814 17 9.49547 17C9.4208 17 9.3648 16.9907 9.32747 16.972C9.29014 16.944 9.2668 16.8927 9.25747 16.818C9.24814 16.7433 9.24814 16.6313 9.25747 16.482C9.28547 15.8007 9.31347 15.1613 9.34147 14.564C9.3788 13.9573 9.4068 13.3833 9.42547 12.842C9.45347 12.3007 9.48147 11.778 9.50947 11.274C9.53747 10.7607 9.56547 10.2567 9.59347 9.762C9.62147 9.258 9.64947 8.74467 9.67747 8.222L10.0415 8.586H8.96347L9.49547 8.236C9.3088 8.70267 9.1128 9.174 8.90747 9.65C8.70214 10.126 8.47814 10.6253 8.23547 11.148C8.00214 11.6613 7.75014 12.2167 7.47947 12.814C7.2088 13.402 6.9148 14.0413 6.59747 14.732C6.28947 15.4227 5.95347 16.1787 5.58947 17ZM16.448 9.3C16.784 9.3 17.0733 9.356 17.316 9.468C17.5587 9.58 17.764 9.72933 17.932 9.916C18.1 10.1027 18.2353 10.3173 18.338 10.56H18.884L18.45 12.03C18.1513 11.666 17.876 11.414 17.624 11.274C17.372 11.134 17.1013 11.064 16.812 11.064C16.5973 11.064 16.4013 11.1107 16.224 11.204C16.056 11.288 15.9113 11.4187 15.79 11.596C15.6687 11.7733 15.5707 12.0067 15.496 12.296L15.132 13.766C15.0853 13.99 15.0667 14.1767 15.076 14.326C15.0947 14.466 15.1413 14.5733 15.216 14.648C15.2813 14.7133 15.3607 14.76 15.454 14.788C15.5567 14.816 15.6733 14.83 15.804 14.83C16.056 14.83 16.3033 14.7787 16.546 14.676C16.7887 14.5733 17.0313 14.424 17.274 14.228C17.5167 14.032 17.7453 13.8033 17.96 13.542L17.554 15.404H17.106C16.938 15.656 16.7467 15.8753 16.532 16.062C16.3173 16.2487 16.0747 16.3933 15.804 16.496C15.5333 16.5893 15.2347 16.636 14.908 16.636C14.544 16.636 14.2313 16.5707 13.97 16.44C13.7087 16.3093 13.4987 16.1227 13.34 15.88C13.1813 15.628 13.0833 15.3247 13.046 14.97C13.018 14.6153 13.06 14.2233 13.172 13.794L13.592 12.058C13.7227 11.5633 13.8767 11.1387 14.054 10.784C14.2407 10.4293 14.4507 10.1447 14.684 9.93C14.9267 9.71533 15.1927 9.55667 15.482 9.454C15.7807 9.35133 16.1027 9.3 16.448 9.3ZM18.884 9.468C19.1827 9.468 19.4767 9.468 19.766 9.468C20.0553 9.468 20.3447 9.468 20.634 9.468C20.6713 9.468 20.6993 9.47733 20.718 9.496C20.7367 9.50533 20.746 9.51933 20.746 9.538C20.7553 9.55667 20.7553 9.58467 20.746 9.622C20.5873 10.2567 20.4333 10.8633 20.284 11.442C20.1347 12.0207 19.9853 12.5947 19.836 13.164C19.696 13.724 19.5513 14.2933 19.402 14.872C19.2527 15.4507 19.0987 16.0573 18.94 16.692C18.7533 17.4573 18.4733 18.0733 18.1 18.54C17.7267 19.0067 17.26 19.3427 16.7 19.548C16.1493 19.7627 15.5007 19.87 14.754 19.87C14.2687 19.87 13.844 19.8327 13.48 19.758C13.116 19.6927 12.8267 19.6133 12.612 19.52C12.3973 19.4267 12.2527 19.3473 12.178 19.282C12.1687 19.2633 12.1593 19.24 12.15 19.212C12.1407 19.1933 12.1407 19.17 12.15 19.142C12.2153 18.8807 12.276 18.6427 12.332 18.428C12.3787 18.2227 12.4347 17.9893 12.5 17.728H12.766C12.99 17.8307 13.2093 17.9147 13.424 17.98C13.6387 18.0453 13.858 18.092 14.082 18.12C14.3153 18.148 14.5627 18.162 14.824 18.162C15.1973 18.162 15.5193 18.1153 15.79 18.022C16.0607 17.938 16.2893 17.798 16.476 17.602C16.588 17.5087 16.6813 17.3967 16.756 17.266C16.84 17.1447 16.9147 17.014 16.98 16.874C17.0453 16.7247 17.1013 16.552 17.148 16.356C17.3067 15.7213 17.456 15.138 17.596 14.606C17.736 14.074 17.8713 13.542 18.002 13.01C18.142 12.478 18.2867 11.8993 18.436 11.274C18.492 11.0687 18.5433 10.868 18.59 10.672C18.646 10.4667 18.6973 10.266 18.744 10.07C18.8 9.86467 18.8467 9.664 18.884 9.468Z" fill="#888888"/>
</svg>
