<svg width="24" height="24" viewBox="0 0 24 24" fill="none" xmlns="http://www.w3.org/2000/svg">
<path d="M4.45547 12.94H8.10947C8.40814 12.94 8.66014 12.9913 8.86547 13.094C9.0708 13.1967 9.2248 13.332 9.32747 13.5L9.53747 13.472V14.116V14.83H4.72147C4.55347 14.83 4.43214 14.7553 4.35747 14.606C4.2828 14.4567 4.24547 14.2653 4.24547 14.032C4.2548 13.7893 4.29214 13.542 4.35747 13.29L4.45547 12.94ZM6.47147 17C6.35014 17.0373 6.21014 17.07 6.05147 17.098C5.8928 17.126 5.74814 17.14 5.61747 17.14C5.2628 17.14 4.9968 17.07 4.81947 16.93C4.64214 16.7807 4.53014 16.5613 4.48347 16.272C4.44614 15.9733 4.4648 15.6047 4.53947 15.166C4.62347 14.662 4.72614 14.1767 4.84747 13.71C4.9688 13.234 5.1088 12.7767 5.26747 12.338C5.42614 11.8993 5.5988 11.4793 5.78547 11.078C5.98147 10.6673 6.1868 10.28 6.40147 9.916C6.61614 9.552 6.84014 9.20667 7.07347 8.88C7.3068 8.55333 7.54947 8.25 7.80147 7.97C8.05347 7.68067 8.31014 7.41933 8.57147 7.186C8.7208 7.14867 8.8748 7.12067 9.03347 7.102C9.19214 7.074 9.36014 7.06 9.53747 7.06C10.0508 7.06 10.4521 7.12533 10.7415 7.256C11.0401 7.38667 11.2641 7.58733 11.4135 7.858C11.5628 8.11933 11.6748 8.45533 11.7495 8.866C11.8148 9.23933 11.8521 9.65 11.8615 10.098C11.8801 10.546 11.8708 11.0267 11.8335 11.54C11.7961 12.0533 11.7355 12.6087 11.6515 13.206C11.5768 13.794 11.4788 14.424 11.3575 15.096C11.3015 15.404 11.2641 15.7167 11.2455 16.034C11.2361 16.3513 11.2548 16.6733 11.3015 17C11.1521 17.0373 10.9701 17.07 10.7555 17.098C10.5408 17.126 10.2841 17.14 9.98547 17.14C9.75214 17.14 9.5468 17.084 9.36947 16.972C9.19214 16.8507 9.06614 16.678 8.99147 16.454C8.9168 16.23 8.92147 15.95 9.00547 15.614C9.16414 14.9887 9.2948 14.4053 9.39747 13.864C9.50014 13.3227 9.57947 12.814 9.63547 12.338C9.69147 11.8527 9.72414 11.3907 9.73347 10.952C9.7428 10.5133 9.73347 10.084 9.70547 9.664C9.6868 9.23467 9.6448 8.80533 9.57947 8.376L10.0275 8.908L9.11747 8.74L9.78947 8.46C9.30414 9.08533 8.8748 9.71533 8.50147 10.35C8.13747 10.9847 7.82947 11.61 7.57747 12.226C7.32547 12.842 7.12014 13.4393 6.96147 14.018C6.8028 14.5967 6.68147 15.138 6.59747 15.642C6.5228 16.146 6.4808 16.5987 6.47147 17ZM16.658 9.272C16.966 9.272 17.2367 9.33267 17.47 9.454C17.7127 9.57533 17.918 9.734 18.086 9.93C18.2633 10.1167 18.4033 10.3173 18.506 10.532H18.996L18.59 11.792C18.4687 11.6053 18.2587 11.4653 17.96 11.372C17.6707 11.2693 17.3627 11.218 17.036 11.218C16.7373 11.218 16.4713 11.2927 16.238 11.442C16.014 11.582 15.8227 11.7873 15.664 12.058C15.5053 12.3193 15.3747 12.6367 15.272 13.01L15.202 13.262C15.146 13.4673 15.0993 13.6587 15.062 13.836C15.0247 14.0133 14.9967 14.1813 14.978 14.34C15.0247 14.3493 15.0667 14.354 15.104 14.354C15.1413 14.354 15.1787 14.354 15.216 14.354C15.5707 14.354 15.9393 14.298 16.322 14.186C16.714 14.074 17.1013 13.8687 17.484 13.57C17.876 13.262 18.2447 12.8187 18.59 12.24L18.072 14.76H17.456C17.204 15.124 16.91 15.446 16.574 15.726C16.2473 16.006 15.916 16.2253 15.58 16.384C15.244 16.5333 14.936 16.608 14.656 16.608C14.3013 16.608 13.998 16.51 13.746 16.314C13.5033 16.118 13.312 15.8613 13.172 15.544C13.032 15.2173 12.948 14.8673 12.92 14.494C12.892 14.1207 12.92 13.7567 13.004 13.402L13.102 13.01C13.2607 12.3753 13.4567 11.8247 13.69 11.358C13.9327 10.882 14.208 10.49 14.516 10.182C14.824 9.874 15.1553 9.64533 15.51 9.496C15.874 9.34667 16.2567 9.272 16.658 9.272ZM19.052 9.356C19.108 9.33733 19.1733 9.32333 19.248 9.314C19.3227 9.30467 19.4067 9.3 19.5 9.3C19.808 9.3 20.0647 9.37933 20.27 9.538C20.4847 9.69667 20.6247 9.91133 20.69 10.182C20.7647 10.4433 20.7413 10.7373 20.62 11.064C20.3867 11.6707 20.2 12.24 20.06 12.772C19.9293 13.2947 19.8173 13.7893 19.724 14.256C19.6307 14.7227 19.5327 15.18 19.43 15.628C19.3273 16.076 19.192 16.5287 19.024 16.986C18.8187 17.5647 18.4827 18.064 18.016 18.484C17.5493 18.9133 16.9987 19.24 16.364 19.464C15.7293 19.688 15.0527 19.8 14.334 19.8C13.97 19.8 13.676 19.772 13.452 19.716C13.228 19.66 13.0553 19.5853 12.934 19.492C12.8127 19.408 12.7147 19.3193 12.64 19.226C12.528 19.0673 12.4673 18.8853 12.458 18.68C12.4487 18.4747 12.4767 18.2367 12.542 17.966C12.57 17.8633 12.598 17.77 12.626 17.686C12.6633 17.602 12.7007 17.518 12.738 17.434H12.822C12.9807 17.5087 13.1627 17.5787 13.368 17.644C13.5733 17.7093 13.8113 17.756 14.082 17.784C14.3527 17.8213 14.6607 17.84 15.006 17.84C15.2113 17.84 15.4213 17.826 15.636 17.798C15.8507 17.77 16.0607 17.728 16.266 17.672C16.4153 17.4853 16.546 17.2987 16.658 17.112C16.7793 16.9347 16.8867 16.748 16.98 16.552C17.0733 16.356 17.1573 16.1413 17.232 15.908C17.4 15.3667 17.526 14.858 17.61 14.382C17.7033 13.8967 17.806 13.388 17.918 12.856C18.03 12.324 18.198 11.7173 18.422 11.036C18.478 10.868 18.5387 10.6953 18.604 10.518C18.6693 10.3407 18.7393 10.154 18.814 9.958C18.8887 9.762 18.968 9.56133 19.052 9.356Z" fill="#888888"/>
</svg>
