<svg width="24" height="24" viewBox="0 0 24 24" fill="none" xmlns="http://www.w3.org/2000/svg">
<path d="M7.46674 14.392C7.39208 14.392 7.32208 14.3873 7.25674 14.378C7.20074 14.3687 7.14008 14.3547 7.07474 14.336C6.90674 14.2893 6.79008 14.1913 6.72474 14.042C6.64074 13.8553 6.64074 13.6313 6.72474 13.37C6.81808 13.0993 6.96741 12.754 7.17274 12.334C7.21008 12.2593 7.24741 12.1753 7.28474 12.082C7.32208 11.9887 7.36408 11.9 7.41074 11.816C7.28941 11.8627 7.15874 11.942 7.01874 12.054C6.88808 12.1567 6.75274 12.264 6.61274 12.376C6.51941 12.4507 6.41674 12.4787 6.30474 12.46C6.18341 12.4413 6.08541 12.39 6.01074 12.306C5.93608 12.2127 5.90808 12.11 5.92674 11.998C5.94541 11.886 5.99674 11.788 6.08074 11.704C6.21141 11.6107 6.34674 11.508 6.48674 11.396C6.62674 11.284 6.77608 11.1907 6.93474 11.116C7.31741 10.92 7.66741 10.8687 7.98474 10.962C8.13408 10.99 8.24608 11.0833 8.32074 11.242C8.39541 11.4007 8.39074 11.5873 8.30674 11.802C8.23208 12.0167 8.10141 12.32 7.91474 12.712C7.86808 12.824 7.81674 12.936 7.76074 13.048C7.71408 13.16 7.66741 13.2673 7.62074 13.37C7.60208 13.4073 7.58808 13.44 7.57874 13.468C7.56941 13.496 7.56008 13.524 7.55074 13.552C7.64408 13.5427 7.76074 13.5147 7.90074 13.468C8.05008 13.4213 8.21808 13.3513 8.40474 13.258C8.60074 13.1553 8.82474 13.02 9.07674 12.852C9.32874 12.684 9.61808 12.474 9.94474 12.222C10.1967 12.0167 10.4347 11.816 10.6587 11.62C10.8827 11.424 11.0787 11.2467 11.2467 11.088C11.4147 10.9293 11.5501 10.7987 11.6527 10.696C11.7554 10.5933 11.8067 10.542 11.8067 10.542C11.9187 10.4113 12.0541 10.3693 12.2127 10.416C12.2874 10.4347 12.3481 10.4673 12.3947 10.514C12.4414 10.5607 12.4787 10.6073 12.5067 10.654C12.5721 10.7847 12.5767 10.9387 12.5207 11.116C12.4647 11.2933 12.3621 11.5687 12.2127 11.942C12.1567 12.0633 12.1007 12.1847 12.0447 12.306C11.9981 12.4273 11.9514 12.5393 11.9047 12.642C11.8954 12.6887 11.8814 12.74 11.8627 12.796C11.9934 12.7773 12.1334 12.726 12.2827 12.642C12.4321 12.558 12.5814 12.4647 12.7307 12.362C12.8801 12.2593 13.0201 12.152 13.1507 12.04C13.2814 11.9187 13.3981 11.816 13.5007 11.732C13.5941 11.648 13.6967 11.6107 13.8087 11.62C13.9207 11.6293 14.0187 11.676 14.1027 11.76C14.1774 11.8533 14.2101 11.956 14.2007 12.068C14.2007 12.18 14.1541 12.278 14.0607 12.362C13.8461 12.558 13.6267 12.7447 13.4027 12.922C13.1787 13.09 12.9501 13.2393 12.7167 13.37C12.4927 13.4913 12.2641 13.58 12.0307 13.636C11.7974 13.6827 11.5687 13.678 11.3447 13.622C11.1954 13.566 11.0881 13.4727 11.0227 13.342C10.9667 13.2113 10.9481 13.0713 10.9667 12.922C10.9947 12.7633 11.0507 12.5627 11.1347 12.32C11.0321 12.4133 10.9247 12.502 10.8127 12.586C10.7101 12.67 10.5981 12.7633 10.4767 12.866C9.18874 13.8833 8.18541 14.392 7.46674 14.392Z" fill="#888888"/>
<path d="M15.6599 13.174C15.6132 13.174 15.5759 13.1693 15.5479 13.16C15.3986 13.1227 15.2912 13.0667 15.2259 12.992C15.1699 12.908 15.1326 12.8427 15.1139 12.796C15.0392 12.5907 15.0579 12.3807 15.1699 12.166C15.2912 11.942 15.4406 11.7087 15.6179 11.466C15.6739 11.3913 15.7252 11.312 15.7719 11.228C15.8186 11.144 15.8652 11.0647 15.9119 10.99C15.9212 10.9807 15.9352 10.962 15.9539 10.934C15.8979 10.9527 15.8279 10.9807 15.7439 11.018C15.6692 11.0553 15.5806 11.1113 15.4779 11.186C15.3099 11.2887 15.1326 11.424 14.9459 11.592C14.7592 11.7507 14.5679 11.9187 14.3719 12.096C14.3252 12.1427 14.2739 12.1893 14.2179 12.236C14.1712 12.2733 14.1246 12.3153 14.0779 12.362C13.9939 12.4367 13.8959 12.474 13.7839 12.474C13.6626 12.4647 13.5646 12.4133 13.4899 12.32C13.4059 12.236 13.3686 12.138 13.3779 12.026C13.3872 11.9047 13.4339 11.8067 13.5179 11.732C13.5646 11.6853 13.6159 11.6433 13.6719 11.606C13.7186 11.5593 13.7652 11.5127 13.8119 11.466C14.0359 11.2607 14.2552 11.0693 14.4699 10.892C14.6939 10.7053 14.9086 10.5467 15.1139 10.416C15.3286 10.2853 15.5386 10.192 15.7439 10.136C15.9586 10.0707 16.1639 10.066 16.3599 10.122C16.5186 10.1687 16.6306 10.234 16.6959 10.318C16.7612 10.402 16.8032 10.4767 16.8219 10.542C16.9059 10.7567 16.8872 10.976 16.7659 11.2C16.6446 11.424 16.4906 11.6713 16.3039 11.942C16.2852 11.9607 16.2619 11.9933 16.2339 12.04C16.2152 12.0773 16.1919 12.1147 16.1639 12.152C16.3039 12.096 16.4812 12.0307 16.6959 11.956C16.9199 11.872 17.1952 11.7647 17.5219 11.634C17.6432 11.5967 17.7552 11.606 17.8579 11.662C17.9606 11.7087 18.0306 11.788 18.0679 11.9C18.1146 12.0027 18.1099 12.11 18.0539 12.222C18.0072 12.3247 17.9326 12.3993 17.8299 12.446C17.5312 12.5487 17.2606 12.642 17.0179 12.726C16.7752 12.81 16.5699 12.8847 16.4019 12.95C16.3086 12.9873 16.2246 13.02 16.1499 13.048C16.0846 13.0667 16.0239 13.0853 15.9679 13.104C15.8932 13.1227 15.8326 13.1413 15.7859 13.16C15.7486 13.1693 15.7066 13.174 15.6599 13.174Z" fill="#888888"/>
</svg>
