<svg width="24" height="24" viewBox="0 0 24 24" fill="none" xmlns="http://www.w3.org/2000/svg">
<path d="M3.58108 17L7.45908 7.2H8.74708L12.5691 17H11.4071L10.2451 13.92H5.87708L4.71508 17H3.58108ZM6.21308 13.066H9.92308L8.06108 8.166L6.21308 13.066ZM16.2885 17.084C15.8498 17.084 15.4345 16.9953 15.0425 16.818C14.6598 16.6313 14.3285 16.384 14.0485 16.076C13.7685 15.7587 13.5445 15.3853 13.3765 14.956C13.2178 14.5267 13.1385 14.0693 13.1385 13.584C13.1385 13.0987 13.2178 12.6413 13.3765 12.212C13.5445 11.7827 13.7732 11.414 14.0625 11.106C14.3518 10.7887 14.6925 10.5413 15.0845 10.364C15.4765 10.1773 15.8965 10.084 16.3445 10.084C16.7738 10.084 17.1705 10.168 17.5345 10.336C17.8985 10.4947 18.2158 10.7327 18.4865 11.05V10.168H19.4945V17.35C19.4945 18.19 19.2425 18.8387 18.7385 19.296C18.2438 19.7533 17.5345 19.982 16.6105 19.982C16.1532 19.982 15.6912 19.9167 15.2245 19.786C14.7672 19.6647 14.3425 19.492 13.9505 19.268L14.3845 18.484C14.8045 18.6987 15.1872 18.8573 15.5325 18.96C15.8778 19.0627 16.2232 19.114 16.5685 19.114C17.1845 19.114 17.6558 18.9647 17.9825 18.666C18.3092 18.3673 18.4725 17.9333 18.4725 17.364V16.076C18.2112 16.4027 17.8938 16.6547 17.5205 16.832C17.1472 17 16.7365 17.084 16.2885 17.084ZM14.1465 13.584C14.1465 14.3307 14.3752 14.956 14.8325 15.46C15.2898 15.9547 15.8592 16.202 16.5405 16.202C16.9418 16.202 17.3105 16.1227 17.6465 15.964C17.9825 15.796 18.2578 15.5673 18.4725 15.278V11.904C18.2485 11.6147 17.9638 11.3907 17.6185 11.232C17.2825 11.064 16.9232 10.98 16.5405 10.98C15.8592 10.98 15.2898 11.2273 14.8325 11.722C14.3752 12.2167 14.1465 12.8373 14.1465 13.584Z" fill="#333333"/>
</svg>
