<svg width="24" height="24" viewBox="0 0 24 24" fill="none" xmlns="http://www.w3.org/2000/svg">
<path d="M3.60568 17L9.42968 7.2H10.7037L12.4117 17H11.3337L10.8297 13.92H6.57368L4.79568 17H3.60568ZM7.06368 13.066H10.6897L9.87768 8.166L7.06368 13.066ZM16.0963 20.066C15.6016 20.066 15.0883 19.9727 14.5563 19.786C14.0243 19.5993 13.5623 19.352 13.1703 19.044L13.7023 18.302C14.4863 18.8807 15.2656 19.17 16.0403 19.17C16.5443 19.17 16.9596 19.0347 17.2863 18.764C17.613 18.5027 17.8276 18.1293 17.9303 17.644L18.2103 16.328C17.949 16.5707 17.655 16.7573 17.3283 16.888C17.011 17.0187 16.6703 17.084 16.3063 17.084C15.7836 17.084 15.3123 16.9487 14.8923 16.678C14.4816 16.4073 14.1596 16.0433 13.9263 15.586C13.693 15.1193 13.5763 14.592 13.5763 14.004C13.5763 13.472 13.665 12.9727 13.8423 12.506C14.029 12.03 14.2856 11.6147 14.6123 11.26C14.939 10.896 15.3123 10.6113 15.7323 10.406C16.1616 10.2007 16.619 10.098 17.1043 10.098C17.571 10.098 17.991 10.1913 18.3643 10.378C18.7376 10.5647 19.041 10.8353 19.2743 11.19L19.4843 10.168H20.4783L18.8963 17.728C18.7376 18.484 18.4156 19.0627 17.9303 19.464C17.4543 19.8653 16.843 20.066 16.0963 20.066ZM16.6563 16.216C16.9736 16.216 17.277 16.16 17.5663 16.048C17.865 15.9267 18.1356 15.754 18.3783 15.53L19.1063 12.002C18.9196 11.694 18.6536 11.4513 18.3083 11.274C17.9723 11.0873 17.613 10.994 17.2303 10.994C16.7356 10.994 16.2876 11.1247 15.8863 11.386C15.485 11.6473 15.163 11.9973 14.9203 12.436C14.687 12.8747 14.5703 13.3693 14.5703 13.92C14.5703 14.6013 14.7616 15.1567 15.1443 15.586C15.5363 16.006 16.0403 16.216 16.6563 16.216Z" fill="#888888"/>
</svg>
