<svg width="24" height="24" viewBox="0 0 24 24" fill="none" xmlns="http://www.w3.org/2000/svg">
<path d="M2.3306 17L8.3506 7.2H9.6386L11.5426 17H10.4506L9.8766 13.92H5.3686L3.5066 17H2.3306ZM5.9286 12.996H9.7086L8.8126 8.222L5.9286 12.996ZM15.4883 17.098C15.0496 17.098 14.639 17.0187 14.2563 16.86C13.883 16.692 13.5563 16.468 13.2763 16.188C13.0056 15.908 12.791 15.572 12.6323 15.18C12.483 14.7787 12.4083 14.3493 12.4083 13.892C12.4083 13.3413 12.5063 12.8233 12.7023 12.338C12.9076 11.8433 13.183 11.4187 13.5283 11.064C13.883 10.7 14.2936 10.4153 14.7603 10.21C15.227 9.99533 15.7263 9.888 16.2583 9.888C16.725 9.888 17.1636 9.97667 17.5743 10.154C17.985 10.322 18.3303 10.5647 18.6103 10.882L18.8063 9.986H19.8143L18.2603 17.462C18.0923 18.2647 17.7516 18.876 17.2383 19.296C16.725 19.7253 16.0763 19.94 15.2923 19.94C14.7883 19.94 14.2656 19.8467 13.7243 19.66C13.183 19.4827 12.7116 19.2353 12.3103 18.918L12.8423 18.148C13.2436 18.4373 13.645 18.6567 14.0463 18.806C14.4476 18.9553 14.849 19.03 15.2503 19.03C15.7823 19.03 16.2163 18.89 16.5523 18.61C16.8976 18.33 17.131 17.9147 17.2523 17.364L17.4343 16.496C17.145 16.692 16.837 16.8413 16.5103 16.944C16.1836 17.0467 15.843 17.098 15.4883 17.098ZM13.4023 13.808C13.4023 14.508 13.617 15.082 14.0463 15.53C14.485 15.978 15.0403 16.202 15.7123 16.202C16.0763 16.202 16.4263 16.1367 16.7623 16.006C17.0983 15.866 17.397 15.6747 17.6583 15.432L18.4003 11.918C18.2136 11.5727 17.929 11.302 17.5463 11.106C17.1636 10.9007 16.7436 10.798 16.2863 10.798C15.885 10.798 15.507 10.8773 15.1523 11.036C14.807 11.1947 14.5036 11.4093 14.2423 11.68C13.981 11.9507 13.7756 12.2727 13.6263 12.646C13.477 13.01 13.4023 13.3973 13.4023 13.808Z" fill="#333333"/>
</svg>
