<svg width="24" height="24" viewBox="0 0 24 24" fill="none" xmlns="http://www.w3.org/2000/svg">
<path d="M4.11947 17L6.93347 7.2H9.67747L12.4915 17H10.0975L9.60747 15.082H6.91947L6.41547 17H4.11947ZM7.40947 13.22H9.13147L8.27747 9.874L7.40947 13.22ZM16.476 20.066C15.9347 20.066 15.4073 20.01 14.894 19.898C14.39 19.786 13.9187 19.6273 13.48 19.422L14.18 17.784C14.5813 17.9707 14.964 18.1107 15.328 18.204C15.692 18.2973 16.0467 18.344 16.392 18.344C17.344 18.344 17.82 17.9007 17.82 17.014V16.244C17.5867 16.4867 17.3067 16.6827 16.98 16.832C16.6627 16.972 16.3267 17.042 15.972 17.042C15.412 17.042 14.8987 16.8787 14.432 16.552C13.9747 16.216 13.6107 15.7727 13.34 15.222C13.0693 14.662 12.934 14.046 12.934 13.374C12.934 12.6927 13.0787 12.0813 13.368 11.54C13.6573 10.9893 14.0447 10.5507 14.53 10.224C15.0153 9.89733 15.552 9.734 16.14 9.734C16.4667 9.734 16.7747 9.79933 17.064 9.93C17.3627 10.0607 17.624 10.2473 17.848 10.49V9.776H20.074V17.042C20.074 18.0127 19.766 18.7593 19.15 19.282C18.534 19.8047 17.6427 20.066 16.476 20.066ZM16.672 15.236C16.9053 15.236 17.1153 15.194 17.302 15.11C17.4887 15.026 17.6613 14.9093 17.82 14.76V11.988C17.6613 11.8387 17.484 11.7267 17.288 11.652C17.092 11.568 16.8867 11.526 16.672 11.526C16.364 11.526 16.0933 11.6053 15.86 11.764C15.636 11.9227 15.4633 12.142 15.342 12.422C15.2207 12.702 15.16 13.024 15.16 13.388C15.16 13.7427 15.2207 14.06 15.342 14.34C15.4727 14.62 15.65 14.8393 15.874 14.998C16.098 15.1567 16.364 15.236 16.672 15.236Z" fill="#888888"/>
</svg>
