<svg width="24" height="24" viewBox="0 0 24 24" fill="none" xmlns="http://www.w3.org/2000/svg">
<path d="M3.60147 17L8.97747 7.2H10.3635L11.5535 17H10.4475L10.1395 14.27H6.21947L4.74947 17H3.60147ZM6.68147 13.416H10.0415L9.43947 8.292L6.68147 13.416ZM15.902 20.066C15.4073 20.066 14.8893 19.9773 14.348 19.8C13.816 19.6227 13.3587 19.38 12.976 19.072L13.508 18.302C13.9093 18.5913 14.3013 18.806 14.684 18.946C15.076 19.0953 15.4633 19.17 15.846 19.17C16.35 19.17 16.7653 19.0347 17.092 18.764C17.4187 18.5027 17.6333 18.1293 17.736 17.644L18.016 16.3C17.7547 16.552 17.456 16.748 17.12 16.888C16.784 17.0187 16.4247 17.084 16.042 17.084C15.5287 17.084 15.0667 16.9487 14.656 16.678C14.2547 16.4073 13.9373 16.0387 13.704 15.572C13.4707 15.1053 13.354 14.578 13.354 13.99C13.354 13.458 13.4473 12.9587 13.634 12.492C13.8207 12.016 14.0727 11.6007 14.39 11.246C14.7167 10.882 15.0947 10.5973 15.524 10.392C15.9533 10.1867 16.4107 10.084 16.896 10.084C17.372 10.084 17.7967 10.1867 18.17 10.392C18.5527 10.588 18.8607 10.8773 19.094 11.26L19.318 10.168H20.312L18.702 17.728C18.5433 18.484 18.2213 19.0627 17.736 19.464C17.26 19.8653 16.6487 20.066 15.902 20.066ZM16.448 16.216C17.1013 16.216 17.6847 15.9733 18.198 15.488L18.912 12.072C18.744 11.7453 18.4873 11.484 18.142 11.288C17.7967 11.0827 17.4233 10.98 17.022 10.98C16.5273 10.98 16.0747 11.1107 15.664 11.372C15.2627 11.6333 14.9407 11.9833 14.698 12.422C14.4647 12.8607 14.348 13.3553 14.348 13.906C14.348 14.5873 14.5393 15.1427 14.922 15.572C15.314 16.0013 15.8227 16.216 16.448 16.216Z" fill="#888888"/>
</svg>
