<svg width="24" height="24" viewBox="0 0 24 24" fill="none" xmlns="http://www.w3.org/2000/svg">
<path d="M2.69455 17L8.72855 7.2H9.55455L11.4725 17H10.8425L10.1985 13.682H5.43855L3.40855 17H2.69455ZM5.78855 13.108H10.0865L9.05055 7.774L5.78855 13.108ZM15.1188 19.996C14.6428 19.996 14.1481 19.9027 13.6348 19.716C13.1308 19.5293 12.6874 19.2773 12.3048 18.96L12.6968 18.512C13.0981 18.8107 13.4948 19.0347 13.8868 19.184C14.2788 19.3333 14.6754 19.408 15.0768 19.408C16.2248 19.408 16.9481 18.7873 17.2468 17.546L17.5268 16.398C16.8734 16.8927 16.1734 17.14 15.4268 17.14C14.8481 17.14 14.3301 17.0047 13.8728 16.734C13.4154 16.454 13.0561 16.0713 12.7948 15.586C12.5334 15.1007 12.4028 14.5547 12.4028 13.948C12.4028 13.3973 12.5008 12.884 12.6968 12.408C12.8928 11.932 13.1634 11.512 13.5088 11.148C13.8541 10.7747 14.2554 10.4853 14.7128 10.28C15.1701 10.0747 15.6554 9.972 16.1688 9.972C16.6728 9.972 17.1394 10.0747 17.5688 10.28C17.9981 10.4853 18.3481 10.77 18.6188 11.134L18.8288 10.112H19.4308L17.8348 17.602C17.6668 18.3767 17.3494 18.9693 16.8828 19.38C16.4254 19.7907 15.8374 19.996 15.1188 19.996ZM15.5248 16.552C16.3648 16.552 17.0834 16.244 17.6808 15.628L18.4648 11.89C18.2874 11.498 17.9888 11.1807 17.5688 10.938C17.1488 10.686 16.6868 10.56 16.1828 10.56C15.5948 10.56 15.0628 10.714 14.5868 11.022C14.1108 11.3207 13.7281 11.722 13.4388 12.226C13.1588 12.73 13.0188 13.29 13.0188 13.906C13.0188 14.4193 13.1261 14.8767 13.3408 15.278C13.5554 15.6793 13.8494 15.992 14.2228 16.216C14.6054 16.44 15.0394 16.552 15.5248 16.552Z" fill="#888888"/>
</svg>
