<svg width="24" height="24" viewBox="0 0 24 24" fill="none" xmlns="http://www.w3.org/2000/svg">
<path d="M2.33852 17L6.35652 7.2H9.11452L13.0765 17H10.4725L9.57652 14.634H5.75452L4.84452 17H2.33852ZM6.48252 12.716H8.86252L7.68652 9.58L6.48252 12.716ZM16.6837 17.028C16.161 17.028 15.6664 16.93 15.1997 16.734C14.7424 16.538 14.3457 16.272 14.0097 15.936C13.6737 15.5907 13.4077 15.1893 13.2117 14.732C13.0157 14.2653 12.9177 13.7707 12.9177 13.248C12.9177 12.7253 13.0157 12.2353 13.2117 11.778C13.417 11.3207 13.6924 10.924 14.0377 10.588C14.383 10.252 14.789 9.986 15.2557 9.79C15.7317 9.594 16.2357 9.496 16.7677 9.496C17.1037 9.496 17.4304 9.538 17.7477 9.622C18.065 9.706 18.359 9.82733 18.6297 9.986V9.594H20.8697V16.93C20.8697 17.9287 20.5384 18.694 19.8757 19.226C19.213 19.7673 18.2657 20.038 17.0337 20.038C16.4457 20.038 15.881 19.982 15.3397 19.87C14.7984 19.758 14.3084 19.5993 13.8697 19.394L14.6257 17.63C15.027 17.8167 15.4237 17.9567 15.8157 18.05C16.2077 18.1433 16.5997 18.19 16.9917 18.19C17.5237 18.19 17.925 18.0827 18.1957 17.868C18.4664 17.6533 18.6017 17.3313 18.6017 16.902V16.44C18.3217 16.6267 18.0184 16.7713 17.6917 16.874C17.365 16.9767 17.029 17.028 16.6837 17.028ZM15.1437 13.248C15.1437 13.78 15.3304 14.228 15.7037 14.592C16.077 14.9467 16.5344 15.124 17.0757 15.124C17.3837 15.124 17.6637 15.0773 17.9157 14.984C18.177 14.8907 18.4057 14.7553 18.6017 14.578V11.96C18.4057 11.792 18.177 11.6613 17.9157 11.568C17.6544 11.4653 17.379 11.414 17.0897 11.414C16.5484 11.414 16.0864 11.5913 15.7037 11.946C15.3304 12.3007 15.1437 12.7347 15.1437 13.248Z" fill="#333333"/>
</svg>
