<svg width="24" height="24" viewBox="0 0 24 24" fill="none" xmlns="http://www.w3.org/2000/svg">
<path d="M2.51484 17L8.52084 7.2H10.2288L12.1188 17H10.6208L10.1028 14.13H5.81884L4.09684 17H2.51484ZM6.54684 12.912H9.89284L9.10884 8.628L6.54684 12.912ZM15.9173 19.954C15.376 19.954 14.8207 19.8607 14.2513 19.674C13.682 19.4967 13.1873 19.2493 12.7673 18.932L13.4393 17.896C13.85 18.176 14.256 18.3907 14.6573 18.54C15.068 18.6893 15.474 18.764 15.8753 18.764C16.8927 18.764 17.5087 18.26 17.7233 17.252L17.8773 16.538C17.3173 16.902 16.706 17.084 16.0433 17.084C15.446 17.084 14.9093 16.9393 14.4333 16.65C13.9667 16.3607 13.5933 15.9733 13.3133 15.488C13.0427 14.9933 12.9073 14.4333 12.9073 13.808C12.9073 13.2573 13.01 12.7393 13.2153 12.254C13.4207 11.7593 13.7007 11.3253 14.0553 10.952C14.41 10.5787 14.8253 10.2893 15.3013 10.084C15.7773 9.87867 16.2907 9.776 16.8413 9.776C17.2893 9.776 17.7093 9.85067 18.1013 10C18.5027 10.1493 18.8433 10.3733 19.1233 10.672L19.2913 9.874H20.6493L19.0813 17.406C18.904 18.2273 18.5447 18.8573 18.0033 19.296C17.4713 19.7347 16.776 19.954 15.9173 19.954ZM16.3793 15.894C17.0513 15.894 17.644 15.6653 18.1573 15.208L18.8433 11.96C18.6567 11.6613 18.386 11.4233 18.0313 11.246C17.6767 11.0687 17.294 10.98 16.8833 10.98C16.398 10.98 15.9547 11.1013 15.5533 11.344C15.152 11.5867 14.8347 11.9133 14.6013 12.324C14.368 12.7347 14.2513 13.192 14.2513 13.696C14.2513 14.116 14.34 14.494 14.5173 14.83C14.704 15.1567 14.956 15.418 15.2733 15.614C15.6 15.8007 15.9687 15.894 16.3793 15.894Z" fill="#888888"/>
</svg>
