<svg width="24" height="24" viewBox="0 0 24 24" fill="none" xmlns="http://www.w3.org/2000/svg">
<path d="M3.08791 17L6.93791 7.2H8.88391L12.6779 17H10.8719L9.86391 14.256H5.84591L4.83791 17H3.08791ZM6.33591 12.94H9.40191L7.86191 8.796L6.33591 12.94ZM16.7208 20.066C16.2262 20.066 15.7362 20.0053 15.2508 19.884C14.7655 19.7627 14.3175 19.5947 13.9068 19.38L14.4528 18.218C14.8728 18.414 15.2555 18.5587 15.6008 18.652C15.9555 18.7547 16.3055 18.806 16.6508 18.806C17.2388 18.806 17.6822 18.6753 17.9808 18.414C18.2888 18.1527 18.4428 17.7653 18.4428 17.252V16.062C18.1908 16.37 17.8782 16.6127 17.5048 16.79C17.1315 16.958 16.7255 17.042 16.2868 17.042C15.6988 17.042 15.1668 16.8833 14.6908 16.566C14.2148 16.2393 13.8322 15.81 13.5428 15.278C13.2628 14.7367 13.1228 14.1347 13.1228 13.472C13.1228 12.8093 13.2675 12.212 13.5568 11.68C13.8462 11.148 14.2382 10.7233 14.7328 10.406C15.2368 10.0887 15.7922 9.93 16.3988 9.93C16.8095 9.93 17.1922 10.0093 17.5468 10.168C17.9015 10.3267 18.2048 10.56 18.4568 10.868V9.986H20.0248V17.252C20.0248 18.1573 19.7402 18.8527 19.1708 19.338C18.6015 19.8233 17.7848 20.066 16.7208 20.066ZM16.7768 15.726C17.1128 15.726 17.4255 15.6607 17.7148 15.53C18.0042 15.39 18.2468 15.1987 18.4428 14.956V12.016C18.2375 11.7733 17.9902 11.5867 17.7008 11.456C17.4115 11.3253 17.1035 11.26 16.7768 11.26C16.3755 11.26 16.0162 11.358 15.6988 11.554C15.3908 11.7407 15.1435 12.002 14.9568 12.338C14.7702 12.6647 14.6768 13.0473 14.6768 13.486C14.6768 13.906 14.7702 14.2887 14.9568 14.634C15.1435 14.97 15.3908 15.236 15.6988 15.432C16.0162 15.628 16.3755 15.726 16.7768 15.726Z" fill="#888888"/>
</svg>
