<svg width="24" height="24" viewBox="0 0 24 24" fill="none" xmlns="http://www.w3.org/2000/svg">
<path d="M2.51921 17L6.34121 7.2H9.08521L12.8512 17H10.2472L9.43521 14.662H5.85121L5.02521 17H2.51921ZM6.50921 12.8H8.79121L7.65721 9.552L6.50921 12.8ZM16.2784 16.986C15.8397 16.986 15.4244 16.8927 15.0324 16.706C14.6404 16.51 14.2997 16.2487 14.0104 15.922C13.7304 15.5953 13.5064 15.2127 13.3384 14.774C13.1704 14.326 13.0864 13.85 13.0864 13.346C13.0864 12.842 13.1704 12.3707 13.3384 11.932C13.5157 11.4933 13.7537 11.1107 14.0524 10.784C14.3604 10.4573 14.7197 10.2007 15.1304 10.014C15.541 9.82733 15.9797 9.734 16.4464 9.734C16.829 9.734 17.1884 9.81333 17.5244 9.972C17.8697 10.1307 18.1637 10.3547 18.4064 10.644V9.776H20.6324V17.098C20.6324 18.0687 20.301 18.8153 19.6384 19.338C18.985 19.8607 18.047 20.122 16.8244 20.122C16.283 20.122 15.7557 20.066 15.2424 19.954C14.729 19.842 14.2577 19.6833 13.8284 19.478L14.5284 17.84C14.9297 18.0267 15.3124 18.1667 15.6764 18.26C16.0404 18.3533 16.395 18.4 16.7404 18.4C17.2724 18.4 17.6784 18.288 17.9584 18.064C18.2384 17.84 18.3784 17.5087 18.3784 17.07V16.034C18.145 16.3233 17.8417 16.5567 17.4684 16.734C17.095 16.902 16.6984 16.986 16.2784 16.986ZM15.3124 13.36C15.3124 13.864 15.4757 14.2887 15.8024 14.634C16.1384 14.97 16.549 15.138 17.0344 15.138C17.305 15.138 17.5524 15.0913 17.7764 14.998C18.0004 14.8953 18.201 14.7507 18.3784 14.564V12.156C18.201 11.9787 17.9957 11.8433 17.7624 11.75C17.5384 11.6473 17.2957 11.596 17.0344 11.596C16.5397 11.596 16.129 11.764 15.8024 12.1C15.4757 12.436 15.3124 12.856 15.3124 13.36Z" fill="#333333"/>
</svg>
