<svg width="24" height="24" viewBox="0 0 24 24" fill="none" xmlns="http://www.w3.org/2000/svg">
<path d="M2.1136 16C2.16027 16 2.23027 15.9347 2.3236 15.804C2.42627 15.6733 2.54293 15.454 2.6736 15.146C2.73893 15.006 2.8416 14.768 2.9816 14.432C3.13093 14.0867 3.29893 13.69 3.4856 13.242C3.6816 12.7847 3.88227 12.3087 4.0876 11.814C4.30227 11.3193 4.50293 10.8433 4.6896 10.386C4.8856 9.92867 5.0536 9.52733 5.1936 9.182C5.34294 8.83667 5.4456 8.58933 5.5016 8.44C5.62294 8.14133 5.68827 7.92667 5.6976 7.796C5.70694 7.66533 5.68827 7.6 5.6416 7.6H8.6936C8.65627 7.6 8.64227 7.66533 8.6516 7.796C8.66094 7.91733 8.72627 8.132 8.8476 8.44C8.9036 8.58933 9.0016 8.83667 9.1416 9.182C9.2816 9.518 9.44494 9.91467 9.6316 10.372C9.81827 10.82 10.0143 11.2913 10.2196 11.786C10.4249 12.2807 10.6209 12.7567 10.8076 13.214C10.9943 13.662 11.1623 14.0587 11.3116 14.404C11.4609 14.7493 11.5683 14.9967 11.6336 15.146C11.7736 15.454 11.9089 15.6733 12.0396 15.804C12.1703 15.9347 12.2683 16 12.3336 16H9.1556C9.23027 15.9907 9.29093 15.9207 9.3376 15.79C9.3936 15.65 9.3936 15.4353 9.3376 15.146C9.32827 15.0807 9.31894 15.0293 9.3096 14.992C9.30027 14.9453 9.2816 14.88 9.2536 14.796C9.21627 14.656 9.17427 14.558 9.1276 14.502C9.08094 14.4367 9.0016 14.3993 8.8896 14.39C8.78694 14.3807 8.61427 14.376 8.3716 14.376H5.9636C5.7116 14.376 5.52494 14.3853 5.4036 14.404C5.28227 14.4133 5.19827 14.446 5.1516 14.502C5.10493 14.558 5.0676 14.6513 5.0396 14.782C5.03027 14.8287 5.01627 14.8893 4.9976 14.964C4.98827 15.0387 4.97894 15.0993 4.9696 15.146C4.90427 15.4447 4.8856 15.6593 4.9136 15.79C4.95094 15.9207 4.9976 15.9907 5.0536 16H2.1136ZM6.3276 12.836H7.9656C8.23627 12.836 8.3856 12.8127 8.4136 12.766C8.4416 12.7193 8.4276 12.6167 8.3716 12.458C8.2036 12.0567 8.04027 11.6507 7.8816 11.24C7.73227 10.82 7.59694 10.428 7.4756 10.064C7.35427 9.69067 7.25627 9.38267 7.1816 9.14H7.1536C7.02294 9.48533 6.8876 9.84933 6.7476 10.232C6.6076 10.6147 6.47694 10.9693 6.3556 11.296C6.23427 11.6227 6.13627 11.8933 6.0616 12.108C5.98694 12.3133 5.9496 12.416 5.9496 12.416C5.88427 12.5653 5.86094 12.6727 5.8796 12.738C5.89827 12.8033 6.0476 12.836 6.3276 12.836ZM16.3582 19.416C15.5462 19.416 14.8368 19.3367 14.2302 19.178C13.6235 19.0193 13.1895 18.8653 12.9282 18.716L13.2082 16.616V16.21C13.3388 16.462 13.5442 16.728 13.8242 17.008C14.1042 17.288 14.4542 17.526 14.8742 17.722C15.2942 17.918 15.7702 18.016 16.3022 18.016C17.3568 18.016 17.8842 17.3533 17.8842 16.028V15.804L17.9122 15.552L17.8842 15.524C17.6882 15.7293 17.3988 15.8833 17.0162 15.986C16.6428 16.0887 16.2648 16.14 15.8822 16.14C15.1262 16.14 14.5195 15.9907 14.0622 15.692C13.6142 15.3933 13.2875 14.9873 13.0822 14.474C12.8862 13.9607 12.7882 13.382 12.7882 12.738C12.7882 12.0847 12.8862 11.5013 13.0822 10.988C13.2782 10.4747 13.6002 10.0687 14.0482 9.77C14.5055 9.462 15.1168 9.308 15.8822 9.308C16.2742 9.308 16.6522 9.35 17.0162 9.434C17.3895 9.50867 17.6788 9.63467 17.8842 9.812L17.9122 9.798L17.8842 9.532V9.448H20.1522C20.0868 9.45733 20.0215 9.52733 19.9562 9.658C19.9002 9.78867 19.8722 10.008 19.8722 10.316V15.678C19.8722 17.0313 19.5828 17.9927 19.0042 18.562C18.4348 19.1313 17.5528 19.416 16.3582 19.416ZM16.2602 14.726C16.5868 14.726 16.8715 14.67 17.1142 14.558C17.3568 14.446 17.5435 14.2453 17.6742 13.956C17.8142 13.6667 17.8842 13.2607 17.8842 12.738C17.8842 11.9633 17.7348 11.4313 17.4362 11.142C17.1375 10.8527 16.7455 10.708 16.2602 10.708C15.7935 10.708 15.4248 10.862 15.1542 11.17C14.8928 11.478 14.7622 12.0053 14.7622 12.752C14.7622 13.4987 14.8928 14.0167 15.1542 14.306C15.4155 14.586 15.7842 14.726 16.2602 14.726Z" fill="#333333"/>
</svg>
