<svg width="24" height="24" viewBox="0 0 24 24" fill="none" xmlns="http://www.w3.org/2000/svg">
<path d="M3.7097 17L8.2317 6.388H8.3297L12.8517 17H10.9337L7.7837 8.978L8.9737 8.18L5.3477 17H3.7097ZM6.5657 13.22H10.0237L10.5977 14.634H6.0617L6.5657 13.22ZM17.0447 19.968C16.5594 19.968 16.1394 19.9073 15.7847 19.786C15.4394 19.674 15.136 19.5293 14.8747 19.352C14.6134 19.1747 14.366 18.9833 14.1327 18.778L15.0707 17.686C15.3414 17.938 15.626 18.148 15.9247 18.316C16.2327 18.484 16.5967 18.568 17.0167 18.568C17.5954 18.568 18.0574 18.428 18.4027 18.148C18.748 17.868 18.9254 17.4853 18.9347 17V15.53L19.0187 15.824C18.86 16.1973 18.5707 16.5147 18.1507 16.776C17.74 17.028 17.222 17.154 16.5967 17.154C16.0554 17.154 15.556 17.0187 15.0987 16.748C14.6414 16.468 14.2727 16.09 13.9927 15.614C13.722 15.138 13.5867 14.6013 13.5867 14.004C13.5867 13.3787 13.7314 12.828 14.0207 12.352C14.31 11.8667 14.688 11.4887 15.1547 11.218C15.6307 10.938 16.1347 10.798 16.6667 10.798C17.1894 10.798 17.6514 10.8913 18.0527 11.078C18.4634 11.2553 18.7667 11.484 18.9627 11.764L18.8927 11.988L19.0607 11.064H20.5307V17.028C20.5307 17.5787 20.3814 18.0733 20.0827 18.512C19.784 18.96 19.3734 19.3147 18.8507 19.576C18.328 19.8373 17.726 19.968 17.0447 19.968ZM15.1967 13.948C15.1967 14.312 15.2807 14.6387 15.4487 14.928C15.6167 15.208 15.8407 15.432 16.1207 15.6C16.4007 15.7587 16.7134 15.838 17.0587 15.838C17.5254 15.838 17.9174 15.7307 18.2347 15.516C18.5614 15.292 18.7947 14.9933 18.9347 14.62V13.318C18.8134 12.954 18.5847 12.66 18.2487 12.436C17.9127 12.212 17.516 12.1 17.0587 12.1C16.7134 12.1 16.4007 12.1793 16.1207 12.338C15.8407 12.4967 15.6167 12.716 15.4487 12.996C15.2807 13.2667 15.1967 13.584 15.1967 13.948Z" fill="#888888"/>
</svg>
