<svg width="24" height="24" viewBox="0 0 24 24" fill="none" xmlns="http://www.w3.org/2000/svg">
<path d="M3.46683 17L8.11483 6.29H8.22683L12.8748 17H10.5228L9.72483 14.984H6.30883L5.46883 17H3.46683ZM7.02283 13.276H9.05283L8.05883 10.77L7.02283 13.276ZM17.0138 20.08C16.4631 20.08 15.9965 20.0147 15.6138 19.884C15.2405 19.7533 14.9231 19.5947 14.6618 19.408C14.4005 19.2213 14.1671 19.044 13.9618 18.876L15.1098 17.532C15.3245 17.728 15.5718 17.9147 15.8518 18.092C16.1411 18.2787 16.5191 18.372 16.9858 18.372C17.4525 18.372 17.8585 18.2507 18.2038 18.008C18.5585 17.7747 18.7358 17.4293 18.7358 16.972V16.104C18.5585 16.3933 18.2831 16.6453 17.9098 16.86C17.5365 17.0653 17.0511 17.168 16.4538 17.168C15.9031 17.168 15.3898 17.028 14.9138 16.748C14.4471 16.4587 14.0738 16.0713 13.7938 15.586C13.5138 15.0913 13.3738 14.5313 13.3738 13.906C13.3738 13.262 13.5231 12.6927 13.8218 12.198C14.1205 11.694 14.5078 11.2973 14.9838 11.008C15.4598 10.7187 15.9638 10.574 16.4958 10.574C17.0278 10.574 17.4851 10.6487 17.8678 10.798C18.2505 10.9473 18.5398 11.134 18.7358 11.358L18.8898 10.882H20.6958V17C20.6958 17.5973 20.5278 18.1247 20.1918 18.582C19.8558 19.0487 19.4078 19.4127 18.8478 19.674C18.2971 19.9447 17.6858 20.08 17.0138 20.08ZM15.3478 13.85C15.3478 14.3353 15.5111 14.746 15.8378 15.082C16.1645 15.4087 16.5658 15.572 17.0418 15.572C17.8258 15.572 18.3905 15.264 18.7358 14.648V13.15C18.6051 12.8513 18.3905 12.6133 18.0918 12.436C17.7931 12.2587 17.4431 12.17 17.0418 12.17C16.5658 12.17 16.1645 12.3287 15.8378 12.646C15.5111 12.954 15.3478 13.3553 15.3478 13.85Z" fill="#888888"/>
</svg>
