<svg width="24" height="24" viewBox="0 0 24 24" fill="none" xmlns="http://www.w3.org/2000/svg">
<path d="M11.2949 16.616C11.3042 16.6533 11.3089 16.686 11.3089 16.714C11.3089 16.7513 11.3089 16.7793 11.3089 16.798C11.3089 16.8913 11.2855 16.9567 11.2389 16.994C11.2015 17.0313 11.1222 17.05 11.0009 17.05C10.8889 17.05 10.8142 17.0313 10.7769 16.994C10.7209 16.938 10.6462 16.7933 10.5529 16.56C10.4595 16.3267 10.3615 16.0513 10.2589 15.734C10.1562 15.4167 10.0535 15.076 9.95087 14.712C9.85753 14.348 9.77353 14.0027 9.69887 13.676C9.5962 13.7227 9.4562 13.774 9.27887 13.83C9.10153 13.8767 8.91953 13.9233 8.73287 13.97C8.5182 14.0167 8.2942 14.068 8.06087 14.124C7.97687 14.5253 7.91153 14.8707 7.86487 15.16C7.82753 15.44 7.7902 15.6733 7.75287 15.86C7.72487 16.0373 7.68287 16.168 7.62687 16.252C7.5802 16.3453 7.50087 16.392 7.38887 16.392C7.3142 16.392 7.24887 16.35 7.19287 16.266C7.13687 16.182 7.10887 16.056 7.10887 15.888C7.10887 15.804 7.1322 15.608 7.17887 15.3C7.22553 14.992 7.27687 14.6513 7.33287 14.278C7.38887 13.8953 7.44487 13.5173 7.50087 13.144C7.55687 12.7707 7.5942 12.4767 7.61287 12.262C7.6222 12.15 7.6502 11.968 7.69687 11.716C7.75287 11.464 7.80887 11.2073 7.86487 10.946C7.92087 10.6753 7.97687 10.4327 8.03287 10.218C8.08887 10.0033 8.1262 9.882 8.14487 9.854C8.2942 9.50867 8.38753 9.154 8.42487 8.79C8.47153 8.426 8.5042 8.09467 8.52287 7.796C8.55087 7.488 8.59287 7.24067 8.64887 7.054C8.70487 6.858 8.82153 6.76 8.99887 6.76C9.04553 6.76 9.0922 6.79733 9.13887 6.872C9.19487 6.94667 9.2462 7.03533 9.29287 7.138C9.33953 7.24067 9.37687 7.34333 9.40487 7.446C9.43287 7.53933 9.45153 7.614 9.46087 7.67C9.4702 7.726 9.47953 7.838 9.48887 8.006C9.50753 8.174 9.52153 8.36067 9.53087 8.566C9.54953 8.762 9.56353 8.958 9.57287 9.154C9.59153 9.34067 9.60553 9.48533 9.61487 9.588C9.64287 9.896 9.68487 10.2413 9.74087 10.624C9.8062 11.0067 9.87153 11.366 9.93687 11.702C10.0022 12.038 10.0629 12.3227 10.1189 12.556C10.1749 12.78 10.2169 12.892 10.2449 12.892C10.2822 12.892 10.3289 12.8827 10.3849 12.864C10.4502 12.8453 10.5109 12.836 10.5669 12.836C10.6415 12.836 10.6789 12.8733 10.6789 12.948C10.6789 13.0227 10.6602 13.0833 10.6229 13.13C10.5855 13.1767 10.5435 13.2187 10.4969 13.256C10.4595 13.2933 10.4222 13.326 10.3849 13.354C10.3569 13.382 10.3429 13.4147 10.3429 13.452C10.3429 13.5267 10.3849 13.718 10.4689 14.026L10.6929 14.852C10.7115 14.9267 10.7535 15.0527 10.8189 15.23C10.8842 15.4073 10.9495 15.594 11.0149 15.79C11.0895 15.9767 11.1549 16.1493 11.2109 16.308C11.2669 16.476 11.2949 16.5787 11.2949 16.616ZM8.18687 13.41C8.24287 13.41 8.34553 13.396 8.49487 13.368C8.6442 13.3307 8.7982 13.2887 8.95687 13.242C9.11553 13.1953 9.25553 13.1487 9.37687 13.102C9.4982 13.0553 9.55887 13.018 9.55887 12.99C9.55887 12.962 9.5402 12.892 9.50287 12.78C9.47487 12.6587 9.43753 12.5093 9.39087 12.332C9.35353 12.1453 9.31153 11.9353 9.26487 11.702C9.2182 11.4687 9.1762 11.2213 9.13887 10.96C9.1202 10.792 9.09687 10.5633 9.06887 10.274C9.04087 9.98467 9.01287 9.7 8.98487 9.42C8.95687 9.13067 8.93353 8.88333 8.91487 8.678C8.8962 8.47267 8.88687 8.37 8.88687 8.37C8.88687 8.37 8.87287 8.44 8.84487 8.58C8.81687 8.71067 8.7842 8.86 8.74687 9.028C8.71887 9.18667 8.69087 9.34067 8.66287 9.49C8.6442 9.63 8.63487 9.70933 8.63487 9.728V10.12C8.63487 10.1387 8.62087 10.2227 8.59287 10.372C8.5742 10.512 8.5462 10.694 8.50887 10.918C8.47153 11.1327 8.42953 11.3707 8.38287 11.632C8.34553 11.884 8.3082 12.1267 8.27087 12.36C8.23353 12.5933 8.20087 12.8033 8.17287 12.99C8.1542 13.1673 8.14487 13.2887 8.14487 13.354C8.14487 13.3913 8.15887 13.41 8.18687 13.41ZM16.0584 14.768C16.0584 14.8707 16.021 14.9407 15.9464 14.978C15.8717 15.0153 15.8344 15.0667 15.8344 15.132C15.825 15.1227 15.8437 15.174 15.8904 15.286C15.937 15.398 15.979 15.5147 16.0164 15.636C16.0817 15.888 16.1377 16.1073 16.1844 16.294C16.2404 16.4807 16.2824 16.6533 16.3104 16.812C16.3477 16.9707 16.3757 17.1293 16.3944 17.288C16.413 17.4467 16.4224 17.624 16.4224 17.82C16.4224 18.016 16.3897 18.2167 16.3244 18.422C16.259 18.6273 16.1657 18.8093 16.0444 18.968C15.923 19.1267 15.7737 19.2573 15.5964 19.36C15.419 19.4627 15.2184 19.514 14.9944 19.514C14.649 19.514 14.3737 19.444 14.1684 19.304C13.9724 19.164 13.823 19.0053 13.7204 18.828C13.6177 18.6507 13.5524 18.4733 13.5244 18.296C13.4964 18.128 13.4824 18.016 13.4824 17.96C13.4824 17.6147 13.571 17.2693 13.7484 16.924C13.9257 16.5787 14.1217 16.266 14.3364 15.986C14.551 15.706 14.747 15.4727 14.9244 15.286C15.1017 15.0993 15.1904 14.992 15.1904 14.964L15.0364 14.502C14.943 14.614 14.859 14.74 14.7844 14.88C14.719 15.0107 14.6444 15.1367 14.5604 15.258C14.4857 15.37 14.3924 15.468 14.2804 15.552C14.1777 15.6267 14.047 15.664 13.8884 15.664C13.7204 15.664 13.5524 15.6127 13.3844 15.51C13.2164 15.4073 13.067 15.2533 12.9364 15.048C12.8057 14.8427 12.6984 14.5953 12.6144 14.306C12.5397 14.0167 12.5024 13.6807 12.5024 13.298C12.5024 13.0833 12.535 12.8173 12.6004 12.5C12.6657 12.1733 12.7684 11.8607 12.9084 11.562C13.0484 11.2633 13.221 11.0113 13.4264 10.806C13.641 10.5913 13.8884 10.484 14.1684 10.484C14.327 10.484 14.4717 10.512 14.6024 10.568C14.7424 10.624 14.8124 10.694 14.8124 10.778C14.8124 10.8527 14.7984 10.9133 14.7704 10.96C14.7424 11.0067 14.705 11.0533 14.6584 11.1C14.6304 11.0813 14.5977 11.0627 14.5604 11.044C14.5324 11.0253 14.4904 11.016 14.4344 11.016C14.229 11.016 14.0424 11.1093 13.8744 11.296C13.7157 11.4733 13.5804 11.6973 13.4684 11.968C13.3564 12.2293 13.2677 12.5047 13.2024 12.794C13.1464 13.0833 13.1184 13.3353 13.1184 13.55C13.1184 14.026 13.1977 14.39 13.3564 14.642C13.515 14.8847 13.683 15.006 13.8604 15.006C13.9444 15.006 14.033 14.9453 14.1264 14.824C14.229 14.6933 14.3224 14.5533 14.4064 14.404C14.4997 14.2453 14.579 14.096 14.6444 13.956C14.7097 13.816 14.747 13.732 14.7564 13.704C14.775 13.6107 14.7844 13.5033 14.7844 13.382C14.7844 13.2793 14.7797 13.1673 14.7704 13.046C14.7704 12.9153 14.7704 12.7847 14.7704 12.654C14.7704 12.4113 14.789 12.2107 14.8264 12.052C14.8637 11.884 14.957 11.8 15.1064 11.8C15.2557 11.8 15.363 11.8467 15.4284 11.94C15.4937 12.024 15.5264 12.1267 15.5264 12.248C15.5264 12.332 15.5217 12.4347 15.5124 12.556C15.5124 12.668 15.5124 12.78 15.5124 12.892C15.5124 12.9947 15.5077 13.088 15.4984 13.172C15.4984 13.2467 15.4984 13.2933 15.4984 13.312C15.4984 13.368 15.503 13.452 15.5124 13.564C15.531 13.6667 15.545 13.774 15.5544 13.886C15.573 13.9887 15.587 14.0867 15.5964 14.18C15.615 14.264 15.629 14.32 15.6384 14.348C15.6477 14.376 15.6617 14.418 15.6804 14.474C15.699 14.53 15.7177 14.572 15.7364 14.6C15.7457 14.5813 15.7644 14.5627 15.7924 14.544C15.8204 14.516 15.8437 14.4927 15.8624 14.474C15.909 14.502 15.951 14.558 15.9884 14.642C16.035 14.7167 16.0584 14.7587 16.0584 14.768ZM15.5824 16.546C15.545 16.3967 15.503 16.2473 15.4564 16.098C15.4097 15.9487 15.363 15.7947 15.3164 15.636C15.1577 15.832 15.0037 16.0187 14.8544 16.196C14.7144 16.3827 14.5837 16.5647 14.4624 16.742C14.3504 16.9193 14.257 17.1013 14.1824 17.288C14.117 17.484 14.0844 17.6893 14.0844 17.904C14.0844 18.1933 14.1637 18.4313 14.3224 18.618C14.4904 18.8047 14.6724 18.898 14.8684 18.898C15.083 18.898 15.2837 18.8187 15.4704 18.66C15.6664 18.5013 15.7644 18.2727 15.7644 17.974C15.7644 17.778 15.7597 17.6147 15.7504 17.484C15.741 17.3533 15.727 17.2367 15.7084 17.134C15.699 17.0407 15.6804 16.9473 15.6524 16.854C15.6337 16.77 15.6104 16.6673 15.5824 16.546Z" fill="#333333"/>
</svg>
