<svg width="24" height="24" viewBox="0 0 24 24" fill="none" xmlns="http://www.w3.org/2000/svg">
<path d="M10.9701 17.154L9.31807 13.626L3.77407 14.592L2.31807 17.154H2.10807L5.93007 6.094L8.14207 5.758L12.6221 16.972L10.9701 17.154ZM7.03607 8.754L4.86607 12.632L9.15007 13.29L7.03607 8.754ZM17.6614 18.302C18.1561 18.302 18.4874 18.2227 18.6554 18.064C18.8234 17.9147 18.9074 17.5973 18.9074 17.112C18.9074 17.056 18.9027 17.0047 18.8934 16.958C18.8934 16.902 18.8934 16.8413 18.8934 16.776L18.8374 15.502C18.4734 15.8193 18.0301 16.0807 17.5074 16.286C16.9941 16.482 16.4387 16.58 15.8414 16.58C15.0481 16.58 14.4181 16.3747 13.9514 15.964C13.4941 15.544 13.2654 14.872 13.2654 13.948C13.2654 13.22 13.4707 12.5573 13.8814 11.96C14.2921 11.3533 14.8521 10.8307 15.5614 10.392C16.2801 9.95333 17.0967 9.61733 18.0114 9.384C18.9354 9.14133 19.9061 9.02 20.9234 9.02L20.6574 16.608C20.6294 17.448 20.5361 18.106 20.3774 18.582C20.2281 19.0673 20.0041 19.408 19.7054 19.604C19.4067 19.8093 19.0241 19.912 18.5574 19.912C18.4361 19.912 18.3101 19.9027 18.1794 19.884C18.0487 19.8747 17.9134 19.8607 17.7734 19.842C17.1761 19.758 16.5087 19.5573 15.7714 19.24C15.0341 18.932 14.2594 18.414 13.4474 17.686L13.5174 17.574C13.7694 17.6673 14.0727 17.756 14.4274 17.84C14.7914 17.9333 15.1647 18.0127 15.5474 18.078C15.9301 18.1433 16.2847 18.1947 16.6114 18.232C16.9381 18.2693 17.1947 18.2927 17.3814 18.302H17.6614ZM18.6134 10.042C17.4934 10.406 16.6721 10.9007 16.1494 11.526C15.6267 12.142 15.3654 12.856 15.3654 13.668C15.3654 14.2093 15.4727 14.5873 15.6874 14.802C15.9021 15.0167 16.2147 15.124 16.6254 15.124C17.0081 15.124 17.3721 15.082 17.7174 14.998C18.0627 14.9047 18.4221 14.7693 18.7954 14.592L18.6134 10.042Z" fill="#888888"/>
</svg>
