<svg width="24" height="24" viewBox="0 0 24 24" fill="none" xmlns="http://www.w3.org/2000/svg">
<path d="M9.02051 13.4043C8.85189 12.8893 8.67415 12.4154 8.4873 11.9824C8.30046 11.5449 8.11589 11.153 7.93359 10.8066C7.75586 10.4557 7.58496 10.1504 7.4209 9.89062C7.26139 9.6263 7.12467 9.40983 7.01074 9.24121C6.58691 9.96126 6.20638 10.6654 5.86914 11.3535C5.53646 12.0371 5.24023 12.7207 4.98047 13.4043C5.34505 13.4453 5.69596 13.4795 6.0332 13.5068C6.37044 13.5296 6.7054 13.541 7.03809 13.541C7.36621 13.541 7.69206 13.5296 8.01562 13.5068C8.34375 13.4795 8.67871 13.4453 9.02051 13.4043ZM13.6826 17.1572C13.6735 17.1572 13.6644 17.1549 13.6553 17.1504C13.6462 17.1504 13.637 17.1458 13.6279 17.1367C13.2132 17.0729 12.8031 17.0273 12.3975 17C11.9964 16.9727 11.5954 16.959 11.1943 16.959C10.7979 16.959 10.4059 16.9727 10.0186 17C9.63574 17.0273 9.25293 17.0729 8.87012 17.1367C8.861 17.1458 8.85189 17.1504 8.84277 17.1504C8.83366 17.1549 8.82454 17.1572 8.81543 17.1572C8.71517 17.1572 8.62858 17.1185 8.55566 17.041C8.4873 16.9635 8.45312 16.8792 8.45312 16.7881C8.45312 16.7061 8.48047 16.6309 8.53516 16.5625C8.5944 16.4941 8.6696 16.4531 8.76074 16.4395C8.94303 16.403 9.1276 16.3757 9.31445 16.3574C9.5013 16.3346 9.69271 16.3118 9.88867 16.2891C9.86589 16.2025 9.83854 16.0954 9.80664 15.9678C9.77474 15.8356 9.73145 15.6807 9.67676 15.5029C9.62663 15.3252 9.5651 15.1201 9.49219 14.8877C9.42383 14.6507 9.3418 14.3841 9.24609 14.0879C8.85872 14.1426 8.48503 14.1859 8.125 14.2178C7.76497 14.2451 7.40267 14.2588 7.03809 14.2588C6.66895 14.2588 6.29525 14.2451 5.91699 14.2178C5.53874 14.1859 5.14225 14.1426 4.72754 14.0879C4.486 14.8079 4.29004 15.5212 4.13965 16.2275C4.4222 16.2367 4.70475 16.2594 4.9873 16.2959C5.27441 16.3278 5.56608 16.3757 5.8623 16.4395C5.94434 16.4531 6.01042 16.4941 6.06055 16.5625C6.11523 16.6309 6.14258 16.7061 6.14258 16.7881C6.14258 16.8929 6.10156 16.9795 6.01953 17.0479C5.94206 17.1208 5.86003 17.1572 5.77344 17.1572C5.75977 17.1572 5.74837 17.1527 5.73926 17.1436C5.73014 17.139 5.71875 17.1367 5.70508 17.1367C5.4043 17.0729 5.10807 17.0251 4.81641 16.9932C4.5293 16.9613 4.24219 16.9453 3.95508 16.9453C3.67253 16.9453 3.39453 16.9613 3.12109 16.9932C2.84766 17.0251 2.56966 17.0729 2.28711 17.1367C2.27344 17.1367 2.26204 17.139 2.25293 17.1436C2.24382 17.1527 2.23242 17.1572 2.21875 17.1572C2.11393 17.1572 2.02734 17.1208 1.95898 17.0479C1.89062 16.9749 1.85645 16.8883 1.85645 16.7881C1.85645 16.7061 1.88151 16.6331 1.93164 16.5693C1.98177 16.5055 2.05013 16.4622 2.13672 16.4395C2.3418 16.3893 2.54688 16.3506 2.75195 16.3232C2.96159 16.2959 3.17578 16.2731 3.39453 16.2549C3.54948 15.5029 3.75228 14.751 4.00293 13.999C4.25358 13.2471 4.55208 12.4883 4.89844 11.7227C5.24935 10.9525 5.65039 10.1709 6.10156 9.37793C6.55273 8.58496 7.06087 7.76921 7.62598 6.93066C7.66699 6.87598 7.71257 6.83724 7.7627 6.81445C7.81738 6.79167 7.86979 6.78027 7.91992 6.78027C7.97461 6.78027 8.02702 6.79167 8.07715 6.81445C8.12728 6.83268 8.16829 6.8623 8.2002 6.90332C9.15723 8.12467 9.97754 9.51009 10.6611 11.0596C11.3493 12.6045 11.9144 14.3431 12.3564 16.2754C12.8213 16.3164 13.2839 16.3711 13.7441 16.4395C13.8353 16.4531 13.9082 16.4941 13.9629 16.5625C14.0221 16.6309 14.0518 16.7061 14.0518 16.7881C14.0518 16.8883 14.0107 16.9749 13.9287 17.0479C13.8512 17.1208 13.7692 17.1572 13.6826 17.1572ZM19.2949 13.1514C19.2949 12.8916 19.2949 12.6478 19.2949 12.4199C19.2949 12.1875 19.2904 11.9688 19.2812 11.7637C19.2585 11.709 19.2129 11.6201 19.1445 11.4971C19.0807 11.3695 18.9782 11.2419 18.8369 11.1143C18.7002 10.9821 18.5179 10.8659 18.29 10.7656C18.0622 10.6608 17.7751 10.6016 17.4287 10.5879C16.9684 10.5879 16.5765 10.6768 16.2529 10.8545C15.9294 11.0277 15.6628 11.2646 15.4531 11.5654C15.2435 11.8662 15.0908 12.2171 14.9951 12.6182C14.8994 13.0192 14.8516 13.443 14.8516 13.8896C14.8561 14.2223 14.9017 14.5436 14.9883 14.8535C15.0794 15.1634 15.2116 15.4391 15.3848 15.6807C15.5625 15.9176 15.7767 16.109 16.0273 16.2549C16.2826 16.3962 16.5765 16.4668 16.9092 16.4668C17.1507 16.4668 17.3763 16.4121 17.5859 16.3027C17.8001 16.1888 17.9961 16.0407 18.1738 15.8584C18.3516 15.6715 18.5088 15.4619 18.6455 15.2295C18.7868 14.9971 18.9053 14.7578 19.001 14.5117C19.0967 14.2656 19.1696 14.0241 19.2197 13.7871C19.2699 13.5501 19.2949 13.3382 19.2949 13.1514ZM22.5557 10.376C22.5557 10.4626 22.526 10.54 22.4668 10.6084C22.4121 10.6722 22.3438 10.7109 22.2617 10.7246C22.1751 10.7428 22.084 10.7588 21.9883 10.7725C21.8926 10.7816 21.7923 10.7907 21.6875 10.7998C21.6875 10.9411 21.6898 11.137 21.6943 11.3877C21.6989 11.6338 21.7012 11.9277 21.7012 12.2695C21.7012 12.5521 21.6989 12.8574 21.6943 13.1855C21.6898 13.5091 21.6829 13.8486 21.6738 14.2041C21.6647 14.5596 21.651 14.9264 21.6328 15.3047C21.6191 15.6784 21.5986 16.0566 21.5713 16.4395C21.5348 16.9954 21.4186 17.5264 21.2227 18.0322C21.0267 18.5381 20.7624 18.9824 20.4297 19.3652C20.097 19.748 19.7005 20.0534 19.2402 20.2812C18.7799 20.5091 18.2695 20.623 17.709 20.623C17.3262 20.623 16.9684 20.5592 16.6357 20.4316C16.3076 20.304 16.0228 20.1286 15.7812 19.9053C15.5397 19.682 15.3506 19.4176 15.2139 19.1123C15.0771 18.807 15.0088 18.4766 15.0088 18.1211V18.1074C15.0088 18.0072 15.043 17.9206 15.1113 17.8477C15.1797 17.7793 15.2663 17.7451 15.3711 17.7451C15.4714 17.7451 15.5534 17.7793 15.6172 17.8477C15.6855 17.9206 15.7197 18.0072 15.7197 18.1074C15.7197 18.39 15.7744 18.6406 15.8838 18.8594C15.9932 19.0827 16.139 19.2718 16.3213 19.4268C16.5081 19.5863 16.7201 19.707 16.957 19.7891C17.194 19.8711 17.4401 19.9121 17.6953 19.9121C17.9414 19.9121 18.1556 19.8301 18.3379 19.666C18.5202 19.502 18.6751 19.2467 18.8027 18.9004C18.9303 18.5586 19.0306 18.1188 19.1035 17.5811C19.181 17.0479 19.2357 16.4098 19.2676 15.667C19.1628 15.8812 19.0306 16.0817 18.8711 16.2686C18.7116 16.4508 18.5293 16.6104 18.3242 16.7471C18.1237 16.8838 17.9049 16.9909 17.668 17.0684C17.4355 17.1458 17.1895 17.1846 16.9297 17.1846C16.4922 17.1846 16.1025 17.0957 15.7607 16.918C15.4189 16.7402 15.1273 16.501 14.8857 16.2002C14.6488 15.8994 14.4665 15.5508 14.3389 15.1543C14.2113 14.7578 14.1452 14.3408 14.1406 13.9033C14.1406 13.3564 14.209 12.8392 14.3457 12.3516C14.4824 11.8594 14.6875 11.431 14.9609 11.0664C15.2389 10.7018 15.5853 10.4124 16 10.1982C16.4147 9.98405 16.9001 9.87695 17.4561 9.87695C17.8571 9.89062 18.2012 9.95671 18.4883 10.0752C18.7799 10.1937 19.0283 10.3372 19.2334 10.5059L19.2197 10.4307V10.417C19.2197 10.3213 19.2585 10.237 19.3359 10.1641C19.4134 10.0911 19.4977 10.0547 19.5889 10.0547H19.6025C19.6071 10.0547 19.6458 10.057 19.7188 10.0615C19.7917 10.0661 19.8851 10.0706 19.999 10.0752C20.1175 10.0798 20.252 10.0843 20.4023 10.0889C20.5573 10.0934 20.7145 10.0957 20.874 10.0957C21.1064 10.0957 21.3343 10.0911 21.5576 10.082C21.7855 10.0729 21.9769 10.0547 22.1318 10.0273C22.141 10.0182 22.1501 10.0137 22.1592 10.0137C22.1729 10.0137 22.1842 10.0137 22.1934 10.0137C22.2891 10.0137 22.3734 10.0524 22.4463 10.1299C22.5192 10.2028 22.5557 10.2848 22.5557 10.376Z" fill="#888888"/>
</svg>
