<svg width="24" height="24" viewBox="0 0 24 24" fill="none" xmlns="http://www.w3.org/2000/svg">
<path d="M9.23047 7.32715L11.2881 15.585L12.915 15.8242L9.06641 17.4648L10.3789 15.7969L9.61328 13.8896L6.08594 14.0059L5.36816 16.0361L6.6875 17.7725L2.59961 16.1592L4.60938 15.9609L5.18359 14.0332H4.84863L4.27441 13.3018L5.43652 13.1787L6.67383 9.0498L5.27246 8.31836L9.23047 7.32715ZM6.40723 13.0693L9.13477 12.7549L7.7334 9.28906L6.40723 13.0693ZM19.9355 9.95898L18.6367 11.0938C18.6868 11.472 18.7233 11.8548 18.7461 12.2422C18.7734 12.625 18.7871 13.0078 18.7871 13.3906C18.7871 14.2747 18.7415 15.0928 18.6504 15.8447C18.5638 16.5921 18.402 17.237 18.165 17.7793C17.9326 18.3216 17.609 18.7454 17.1943 19.0508C16.7796 19.3561 16.2464 19.5088 15.5947 19.5088C15.4717 19.5088 15.3441 19.4906 15.2119 19.4541C15.0843 19.4222 14.959 19.3789 14.8359 19.3242C14.7174 19.2695 14.6035 19.208 14.4941 19.1396C14.3848 19.0713 14.2868 19.0029 14.2002 18.9346L13.4004 19.8301L13.2158 16.8633C13.4528 17.2871 13.6875 17.6175 13.9199 17.8545C14.1569 18.096 14.3757 18.276 14.5762 18.3945C14.7767 18.5176 14.9567 18.5928 15.1162 18.6201C15.2757 18.652 15.3988 18.668 15.4854 18.668C15.5947 18.668 15.7064 18.6611 15.8203 18.6475C15.9388 18.6383 16.0527 18.6087 16.1621 18.5586C16.276 18.5085 16.3854 18.4287 16.4902 18.3193C16.5996 18.2145 16.6999 18.0687 16.791 17.8818C16.8867 17.695 16.971 17.458 17.0439 17.1709C17.1214 16.8883 17.1852 16.542 17.2354 16.1318C17.126 16.2913 17.0052 16.4417 16.873 16.583C16.7409 16.7197 16.5928 16.8405 16.4287 16.9453C16.2692 17.0456 16.096 17.1253 15.9092 17.1846C15.7223 17.2484 15.5195 17.2803 15.3008 17.2803C14.9499 17.2712 14.6149 17.1914 14.2959 17.041C13.9814 16.8906 13.7035 16.6764 13.4619 16.3984C13.2249 16.1159 13.0358 15.7718 12.8945 15.3662C12.7533 14.9561 12.6826 14.4889 12.6826 13.9648C12.6826 13.3268 12.7578 12.7663 12.9082 12.2832C13.0586 11.8001 13.2637 11.3968 13.5234 11.0732C13.7832 10.7497 14.0863 10.5104 14.4326 10.3555C14.7835 10.196 15.1572 10.123 15.5537 10.1367C15.9274 10.1549 16.2533 10.2461 16.5312 10.4102C16.8092 10.5697 17.0439 10.7679 17.2354 11.0049C17.2262 10.8955 17.2148 10.7816 17.2012 10.6631C17.1921 10.5446 17.1807 10.4215 17.167 10.2939L19.9355 9.95898ZM17.3584 13.8213C17.3584 13.5524 17.3538 13.2835 17.3447 13.0146C17.3402 12.7412 17.3311 12.4541 17.3174 12.1533C17.2445 12.0075 17.1602 11.8685 17.0645 11.7363C16.9733 11.5996 16.8708 11.4811 16.7568 11.3809C16.6475 11.2806 16.529 11.2008 16.4014 11.1416C16.2783 11.0824 16.1462 11.0527 16.0049 11.0527C15.6904 11.0527 15.4215 11.1302 15.1982 11.2852C14.9795 11.4401 14.7972 11.6543 14.6514 11.9277C14.5101 12.2012 14.4053 12.5247 14.3369 12.8984C14.2731 13.2721 14.2412 13.6777 14.2412 14.1152C14.2412 14.4388 14.2686 14.7419 14.3232 15.0244C14.3779 15.3024 14.4577 15.5439 14.5625 15.749C14.6673 15.9541 14.7995 16.1159 14.959 16.2344C15.1185 16.3529 15.3031 16.4121 15.5127 16.4121C15.5264 16.4121 15.5674 16.4098 15.6357 16.4053C15.7041 16.3962 15.7884 16.3757 15.8887 16.3438C15.9935 16.3073 16.1097 16.2572 16.2373 16.1934C16.3649 16.1296 16.4948 16.0407 16.627 15.9268C16.7591 15.8128 16.8867 15.6715 17.0098 15.5029C17.1328 15.3298 17.2445 15.1201 17.3447 14.874C17.3538 14.7145 17.3584 14.5482 17.3584 14.375C17.3584 14.1973 17.3584 14.0127 17.3584 13.8213Z" fill="#333333"/>
</svg>
