<svg width="24" height="24" viewBox="0 0 24 24" fill="none" xmlns="http://www.w3.org/2000/svg">
<path d="M2.44922 17V15.708L3.16016 15.6055L6.22949 7.04688H8.5332L11.5957 15.6055L12.2998 15.708V17H8.75879V15.708L9.42871 15.585L9.05273 14.3545H5.69629L5.33398 15.585L6.00391 15.708V17H2.44922ZM6.18848 12.7822H8.56055L7.49414 9.55566L7.3916 9.23438H7.35059L7.24121 9.58301L6.18848 12.7822ZM16.1621 19.9873C15.7793 19.9873 15.3464 19.9395 14.8633 19.8438C14.3848 19.748 13.9632 19.609 13.5986 19.4268L13.9746 17.8955C14.3118 18.0368 14.6605 18.1462 15.0205 18.2236C15.3851 18.3011 15.7201 18.3398 16.0254 18.3398C16.5404 18.3398 16.9186 18.1963 17.1602 17.9092C17.4017 17.6266 17.5225 17.2347 17.5225 16.7334V16.3164C17.3083 16.5807 17.0576 16.7858 16.7705 16.9316C16.488 17.0729 16.1621 17.1436 15.793 17.1436C15.1914 17.1436 14.6742 16.9932 14.2412 16.6924C13.8128 16.387 13.4847 15.9587 13.2568 15.4072C13.0335 14.8558 12.9219 14.2155 12.9219 13.4863V13.3428C12.9219 12.568 13.0335 11.8913 13.2568 11.3125C13.4847 10.7292 13.8083 10.2757 14.2275 9.95215C14.6468 9.62858 15.1504 9.4668 15.7383 9.4668C16.1712 9.4668 16.5426 9.56022 16.8525 9.74707C17.167 9.93392 17.4336 10.196 17.6523 10.5332L17.7959 9.60352H19.71V16.7471C19.71 17.3988 19.5664 17.9661 19.2793 18.4492C18.9967 18.9368 18.5889 19.3151 18.0557 19.584C17.527 19.8529 16.8958 19.9873 16.1621 19.9873ZM16.4219 15.4551C16.6634 15.4551 16.8776 15.4095 17.0645 15.3184C17.2513 15.2272 17.404 15.0951 17.5225 14.9219V11.7637C17.404 11.5677 17.2513 11.4173 17.0645 11.3125C16.8776 11.2077 16.6657 11.1553 16.4287 11.1553C16.1143 11.1553 15.859 11.2464 15.6631 11.4287C15.4671 11.611 15.3258 11.8662 15.2393 12.1943C15.1527 12.5225 15.1094 12.9053 15.1094 13.3428V13.4863C15.1094 14.1016 15.2074 14.5846 15.4033 14.9355C15.6038 15.2819 15.9434 15.4551 16.4219 15.4551ZM19.4502 11.1484L18.4795 9.60352H20.5713V10.9092L19.4502 11.1484Z" fill="#888888"/>
</svg>
