<svg width="24" height="24" viewBox="0 0 24 24" fill="none" xmlns="http://www.w3.org/2000/svg">
<path d="M2.89355 17V16.5078L3.625 16.4805L7.17969 7.04688H7.80859L11.3564 16.4805L12.0879 16.5078V17H9.78418V16.5078L10.707 16.4736L9.81152 14.0674H5.16309L4.26758 16.4736L5.19043 16.5078V17H2.89355ZM5.375 13.5068H9.60645L7.67871 8.29102L7.51465 7.8125H7.47363L7.31641 8.29102L5.375 13.5068ZM16.2305 19.9873C15.875 19.9873 15.499 19.9463 15.1025 19.8643C14.7061 19.7822 14.3597 19.6706 14.0635 19.5293L14.2275 18.9961C14.542 19.1374 14.8564 19.2445 15.1709 19.3174C15.4899 19.3949 15.8385 19.4336 16.2168 19.4336C16.9596 19.4336 17.5225 19.208 17.9053 18.7568C18.2881 18.3102 18.4795 17.6927 18.4795 16.9043V15.9268C18.2334 16.305 17.9076 16.6035 17.502 16.8223C17.1009 17.0365 16.6292 17.1436 16.0869 17.1436C15.499 17.1436 14.9954 16.9932 14.5762 16.6924C14.1569 16.3916 13.8333 15.9678 13.6055 15.4209C13.3822 14.8695 13.2705 14.2201 13.2705 13.4727V13.3291C13.2705 12.5452 13.3822 11.8639 13.6055 11.2852C13.8333 10.7064 14.1569 10.2598 14.5762 9.94531C15 9.6263 15.5081 9.4668 16.1006 9.4668C16.652 9.4668 17.1283 9.58984 17.5293 9.83594C17.9349 10.082 18.2607 10.4238 18.5068 10.8613L18.5752 9.60352H19.1016V16.9043C19.1016 17.5378 18.9854 18.0846 18.7529 18.5449C18.5251 19.0052 18.1969 19.3607 17.7686 19.6113C17.3447 19.862 16.832 19.9873 16.2305 19.9873ZM16.1621 16.5898C16.7546 16.5898 17.2422 16.4554 17.625 16.1865C18.0124 15.9131 18.2972 15.5439 18.4795 15.0791V11.7158C18.3063 11.2282 18.0374 10.8249 17.6729 10.5059C17.3128 10.1823 16.8138 10.0205 16.1758 10.0205C15.679 10.0205 15.2598 10.1618 14.918 10.4443C14.5807 10.7223 14.3255 11.1097 14.1523 11.6064C13.9792 12.1032 13.8926 12.6774 13.8926 13.3291V13.4727C13.8926 14.4251 14.084 15.1839 14.4668 15.749C14.8496 16.3096 15.4147 16.5898 16.1621 16.5898ZM18.9443 10.1572L18.7734 9.60352H20.0586V10.0957L18.9443 10.1572Z" fill="#888888"/>
</svg>
