<svg width="24" height="24" viewBox="0 0 24 24" fill="none" xmlns="http://www.w3.org/2000/svg">
<path d="M9.31934 14.0264H5.23145L3.76855 17H3.37891L8.25293 7.04688H8.66992L10.126 17H9.75684L9.31934 14.0264ZM5.40234 13.6572H9.27148L8.40332 7.57324L5.40234 13.6572ZM12.6211 13.2266C12.6712 12.9303 12.7441 12.6318 12.8398 12.3311C12.9401 12.0303 13.0609 11.7409 13.2021 11.4629C13.348 11.1849 13.5143 10.9251 13.7012 10.6836C13.8926 10.4375 14.1068 10.2256 14.3438 10.0479C14.5853 9.86556 14.8496 9.72428 15.1367 9.62402C15.4238 9.51921 15.7383 9.4668 16.0801 9.4668C16.3125 9.4668 16.5335 9.50098 16.7432 9.56934C16.9528 9.63314 17.1465 9.72656 17.3242 9.84961C17.502 9.97266 17.6592 10.1208 17.7959 10.2939C17.9372 10.4671 18.0534 10.6585 18.1445 10.8682L18.377 9.60352H18.7529L17.4951 16.8975C17.4176 17.3031 17.2878 17.6904 17.1055 18.0596C16.9277 18.4333 16.7021 18.7614 16.4287 19.0439C16.1553 19.3265 15.8363 19.5521 15.4717 19.7207C15.1117 19.8939 14.7129 19.9805 14.2754 19.9805C13.806 19.9805 13.389 19.8665 13.0244 19.6387C12.6598 19.4154 12.3522 19.11 12.1016 18.7227L12.3818 18.4902C12.6006 18.8275 12.8626 19.0986 13.168 19.3037C13.4779 19.5133 13.8402 19.6182 14.2549 19.6182C14.6468 19.6182 15.0023 19.543 15.3213 19.3926C15.6403 19.2422 15.9206 19.0417 16.1621 18.791C16.4036 18.5404 16.6042 18.251 16.7637 17.9229C16.9277 17.5947 17.0462 17.2529 17.1191 16.8975L17.3174 15.9062C17.1624 16.0885 16.9893 16.2549 16.7979 16.4053C16.611 16.5557 16.4105 16.6855 16.1963 16.7949C15.9821 16.9043 15.7565 16.9886 15.5195 17.0479C15.2871 17.1071 15.0501 17.1367 14.8086 17.1367C14.4668 17.1367 14.1683 17.082 13.9131 16.9727C13.6624 16.8633 13.4482 16.7152 13.2705 16.5283C13.0928 16.3369 12.9492 16.1182 12.8398 15.8721C12.7305 15.6214 12.6507 15.3571 12.6006 15.0791C12.5505 14.7965 12.5254 14.5094 12.5254 14.2178C12.5299 13.9261 12.5527 13.6436 12.5938 13.3701L12.6211 13.2266ZM12.9697 13.3701C12.9287 13.6071 12.9036 13.8555 12.8945 14.1152C12.8854 14.375 12.8968 14.6302 12.9287 14.8809C12.9606 15.1315 13.0176 15.3708 13.0996 15.5986C13.1862 15.8219 13.3024 16.0202 13.4482 16.1934C13.5986 16.3665 13.7832 16.5055 14.002 16.6104C14.2253 16.7106 14.4896 16.763 14.7949 16.7676C15.0638 16.7676 15.3258 16.7311 15.5811 16.6582C15.8363 16.5807 16.0755 16.4736 16.2988 16.3369C16.5267 16.1956 16.734 16.0293 16.9209 15.8379C17.1077 15.6465 17.2673 15.4368 17.3994 15.209L18.0352 11.6475C17.9987 11.3923 17.9258 11.1553 17.8164 10.9365C17.707 10.7132 17.568 10.5218 17.3994 10.3623C17.2354 10.1982 17.0417 10.0706 16.8184 9.97949C16.5951 9.88379 16.349 9.83594 16.0801 9.83594C15.6243 9.83594 15.221 9.93848 14.8701 10.1436C14.5192 10.3486 14.2161 10.6152 13.9609 10.9434C13.7103 11.2669 13.5052 11.6315 13.3457 12.0371C13.1862 12.4382 13.07 12.8346 12.9971 13.2266L12.9697 13.3701Z" fill="#333333"/>
</svg>
