<svg width="24" height="24" viewBox="0 0 24 24" fill="none" xmlns="http://www.w3.org/2000/svg">
<path d="M3.44238 17H4.13281L8.68555 8.72852C8.79948 8.51888 8.90885 8.30469 9.01367 8.08594C9.12305 7.86719 9.22331 7.66439 9.31445 7.47754H9.38965C9.41243 7.66439 9.44434 7.86719 9.48535 8.08594C9.52637 8.30469 9.56738 8.51888 9.6084 8.72852L11.2354 17H11.8984L9.83398 6.97852H9L3.44238 17ZM5.25391 14.1426H11.0371L10.8867 13.5752H5.5957L5.25391 14.1426ZM12.5273 19.1738C12.819 19.4108 13.1904 19.6045 13.6416 19.7549C14.0973 19.9053 14.6123 19.9805 15.1865 19.9805C16.1117 19.9805 16.9137 19.7093 17.5928 19.167C18.2718 18.6292 18.7002 17.8545 18.8779 16.8428L20.1152 9.80859H19.5205L19.3154 10.8477C19.1331 10.5286 18.8369 10.2529 18.4268 10.0205C18.0166 9.78809 17.5221 9.67188 16.9434 9.67188C15.9909 9.67188 15.1842 10.0137 14.5234 10.6973C13.8626 11.3809 13.4411 12.2467 13.2588 13.2949L13.2178 13.5137C13.0309 14.5618 13.1471 15.4277 13.5664 16.1113C13.9857 16.7949 14.6715 17.1367 15.624 17.1367C16.2074 17.1367 16.7269 17.0365 17.1826 16.8359C17.6429 16.6309 18.0371 16.3688 18.3652 16.0498L18.2217 16.8428C18.0713 17.6449 17.734 18.2669 17.21 18.709C16.6859 19.151 16.0342 19.3721 15.2549 19.3721C14.7536 19.3766 14.2956 19.3083 13.8809 19.167C13.4661 19.0257 13.1562 18.8503 12.9512 18.6406L12.5273 19.1738ZM13.8672 13.5137L13.9082 13.2949C14.0632 12.4062 14.3981 11.6794 14.9131 11.1143C15.4326 10.5446 16.1344 10.262 17.0186 10.2666C17.5973 10.2666 18.0667 10.4033 18.4268 10.6768C18.7868 10.9456 19.026 11.2555 19.1445 11.6064L18.5088 15.2021C18.2673 15.5531 17.9186 15.8652 17.4629 16.1387C17.0072 16.4076 16.4899 16.542 15.9111 16.542C15.027 16.5465 14.4255 16.2663 14.1064 15.7012C13.792 15.1315 13.7122 14.4023 13.8672 13.5137Z" fill="#888888"/>
</svg>
