<svg width="24" height="24" viewBox="0 0 24 24" fill="none" xmlns="http://www.w3.org/2000/svg">
<path d="M5.93702 12.884H10.123L10.151 13.388H5.68502L5.93702 12.884ZM9.19902 7.158L9.35302 7.13L4.42502 16.16C4.40635 16.216 4.44835 16.2673 4.55102 16.314C4.65368 16.3607 4.79368 16.398 4.97102 16.426C5.15768 16.4447 5.35835 16.454 5.57302 16.454H5.75502L5.62902 17H2.59102L2.71702 16.454H2.80102C3.07168 16.454 3.30502 16.4073 3.50102 16.314C3.69702 16.2207 3.87902 16.0153 4.04702 15.698L8.83502 6.976H9.80102L10.935 15.81C10.963 16.0807 11.0563 16.258 11.215 16.342C11.3737 16.4167 11.5837 16.454 11.845 16.454H11.915L11.789 17H8.75102L8.87702 16.454H9.07302C9.28768 16.454 9.48835 16.4493 9.67502 16.44C9.87102 16.4307 10.025 16.412 10.137 16.384C10.2583 16.356 10.3237 16.3327 10.333 16.314L9.19902 7.158ZM18.0046 17.28L19.2786 11.232H19.3206L19.8946 9.468H20.2866L18.6206 17.336C18.4899 17.9893 18.2846 18.5353 18.0046 18.974C17.7246 19.4127 17.3512 19.744 16.8846 19.968C16.4272 20.192 15.8579 20.304 15.1766 20.304C14.7099 20.304 14.2852 20.2573 13.9026 20.164C13.5292 20.0707 13.2119 19.954 12.9506 19.814C12.6986 19.6833 12.5119 19.5573 12.3906 19.436L12.6846 18.078H13.4406L13.1326 19.576C13.1046 19.5573 13.0766 19.534 13.0486 19.506C13.0299 19.478 13.0112 19.4407 12.9926 19.394C12.9832 19.3567 12.9739 19.3053 12.9646 19.24C12.9646 19.184 12.9692 19.114 12.9786 19.03C13.0719 19.1607 13.2212 19.2867 13.4266 19.408C13.6319 19.5293 13.8839 19.6273 14.1826 19.702C14.4906 19.7767 14.8452 19.814 15.2466 19.814C15.8159 19.814 16.2826 19.7207 16.6466 19.534C17.0106 19.3473 17.2952 19.0673 17.5006 18.694C17.7152 18.3207 17.8832 17.8493 18.0046 17.28ZM19.6286 11.568L19.3346 12.016C19.2506 11.5773 19.1106 11.1993 18.9146 10.882C18.7186 10.5553 18.4666 10.3033 18.1586 10.126C17.8599 9.94867 17.5006 9.86 17.0806 9.86C16.6512 9.86 16.2686 9.94867 15.9326 10.126C15.5966 10.3033 15.3026 10.5413 15.0506 10.84C14.7986 11.1293 14.5886 11.4653 14.4206 11.848C14.2526 12.2213 14.1266 12.6133 14.0426 13.024C13.9679 13.4347 13.9306 13.836 13.9306 14.228C13.9306 14.6667 13.9866 15.054 14.0986 15.39C14.2199 15.7167 14.4019 15.9733 14.6446 16.16C14.8872 16.3373 15.1812 16.426 15.5266 16.426C15.9559 16.426 16.3572 16.3093 16.7306 16.076C17.1132 15.8333 17.4772 15.5113 17.8226 15.11C18.1772 14.6993 18.5179 14.2467 18.8446 13.752L18.8866 14.27C18.5506 14.802 18.2052 15.2687 17.8506 15.67C17.4959 16.0713 17.1226 16.384 16.7306 16.608C16.3479 16.832 15.9372 16.944 15.4986 16.944C14.9946 16.944 14.5746 16.832 14.2386 16.608C13.9026 16.3747 13.6506 16.0573 13.4826 15.656C13.3146 15.2453 13.2306 14.774 13.2306 14.242C13.2306 13.7753 13.2866 13.3087 13.3986 12.842C13.5106 12.3753 13.6739 11.932 13.8886 11.512C14.1032 11.092 14.3646 10.7187 14.6726 10.392C14.9899 10.0653 15.3492 9.80867 15.7506 9.622C16.1612 9.426 16.6092 9.328 17.0946 9.328C17.4306 9.328 17.7339 9.37933 18.0046 9.482C18.2846 9.57533 18.5319 9.72 18.7466 9.916C18.9612 10.1027 19.1432 10.336 19.2926 10.616C19.4419 10.896 19.5539 11.2133 19.6286 11.568Z" fill="#888888"/>
</svg>
