<svg width="24" height="24" viewBox="0 0 24 24" fill="none" xmlns="http://www.w3.org/2000/svg">
<path d="M8.66309 14.6895H5.65527L4.58887 17H2.88672L7.75391 7.04688H9.16211L10.5088 17H8.90918L8.66309 14.6895ZM6.30469 13.2881H8.50586L8.0957 9.40527L6.30469 13.2881ZM12.2588 13.2949C12.2952 12.985 12.3568 12.6751 12.4434 12.3652C12.5345 12.0508 12.6484 11.75 12.7852 11.4629C12.9219 11.1758 13.0837 10.9092 13.2705 10.6631C13.4574 10.417 13.6715 10.2051 13.9131 10.0273C14.1592 9.84505 14.4303 9.70378 14.7266 9.60352C15.0228 9.50326 15.3486 9.45768 15.7041 9.4668C16.0732 9.47591 16.4128 9.55111 16.7227 9.69238C17.0371 9.8291 17.3037 10.0479 17.5225 10.3486L17.7617 9.60352H19.2178L17.9941 16.8018C17.9258 17.2848 17.7845 17.7201 17.5703 18.1074C17.3607 18.4993 17.0941 18.8298 16.7705 19.0986C16.4469 19.3721 16.0732 19.5794 15.6494 19.7207C15.2301 19.862 14.7767 19.9281 14.2891 19.9189C14.043 19.9144 13.7992 19.8848 13.5576 19.8301C13.3161 19.7754 13.0837 19.6956 12.8604 19.5908C12.6416 19.4906 12.4342 19.3652 12.2383 19.2148C12.0469 19.0645 11.8783 18.8913 11.7324 18.6953L12.5801 17.6973C12.7897 17.9844 13.0358 18.2077 13.3184 18.3672C13.6055 18.5312 13.929 18.6178 14.2891 18.627C14.5716 18.6361 14.8314 18.5996 15.0684 18.5176C15.3053 18.4355 15.515 18.3148 15.6973 18.1553C15.8796 18.0003 16.0322 17.8112 16.1553 17.5879C16.2783 17.3691 16.3672 17.123 16.4219 16.8496L16.5244 16.3438C16.251 16.6035 15.9525 16.8018 15.6289 16.9385C15.3099 17.0752 14.959 17.139 14.5762 17.1299C14.2526 17.1253 13.9655 17.0684 13.7148 16.959C13.4642 16.8451 13.2477 16.6969 13.0654 16.5146C12.8831 16.3324 12.7327 16.1204 12.6143 15.8789C12.4958 15.6374 12.4046 15.3822 12.3408 15.1133C12.277 14.8398 12.2383 14.5618 12.2246 14.2793C12.2109 13.9922 12.2178 13.7119 12.2451 13.4385L12.2588 13.2949ZM13.8447 13.4385C13.8174 13.68 13.8083 13.9375 13.8174 14.2109C13.8311 14.4798 13.8789 14.7305 13.9609 14.9629C14.0475 15.1953 14.1797 15.3913 14.3574 15.5508C14.5352 15.7057 14.779 15.7878 15.0889 15.7969C15.4352 15.806 15.7383 15.7331 15.998 15.5781C16.2578 15.4186 16.488 15.2044 16.6885 14.9355L17.2627 11.6543C17.0257 11.0983 16.6042 10.8135 15.998 10.7998C15.6562 10.7907 15.3577 10.8613 15.1025 11.0117C14.8519 11.1576 14.64 11.3535 14.4668 11.5996C14.2982 11.8411 14.1637 12.1123 14.0635 12.4131C13.9678 12.7093 13.9017 13.0033 13.8652 13.2949L13.8447 13.4385Z" fill="#333333"/>
</svg>
