<svg width="24" height="24" viewBox="0 0 24 24" fill="none" xmlns="http://www.w3.org/2000/svg">
<path d="M4.85884 12.786H8.51284L8.33084 13.99H4.45284L4.85884 12.786ZM7.53284 8.502L7.79884 8.474L4.24284 15.46C4.23351 15.5067 4.24751 15.5533 4.28484 15.6C4.33151 15.6467 4.40618 15.684 4.50884 15.712C4.62084 15.7307 4.75618 15.74 4.91484 15.74H5.05484L4.77484 17H1.77884L2.04484 15.74H2.12884C2.30618 15.74 2.46018 15.6887 2.59084 15.586C2.73084 15.474 2.87551 15.278 3.02484 14.998L7.14084 7.018H10.7948L11.5228 15.096C11.5415 15.348 11.6022 15.5207 11.7048 15.614C11.8168 15.698 11.9708 15.74 12.1668 15.74H12.2228L11.9568 17H6.83284L7.09884 15.74H7.26684C7.42551 15.74 7.56084 15.7353 7.67284 15.726C7.78484 15.7167 7.86884 15.7027 7.92484 15.684C7.99018 15.656 8.02751 15.628 8.03684 15.6L7.53284 8.502ZM17.6341 17.168L18.9641 10.994L19.0621 10.966L20.6301 9.258H22.6181L20.9801 16.804C20.8027 17.6533 20.5134 18.344 20.1121 18.876C19.7107 19.4173 19.1741 19.814 18.5021 20.066C17.8301 20.318 16.9854 20.444 15.9681 20.444C15.3334 20.444 14.7641 20.3927 14.2601 20.29C13.7654 20.1873 13.3454 20.0567 13.0001 19.898C12.6547 19.7393 12.3794 19.576 12.1741 19.408L12.5241 17.728H14.8341L14.4421 19.59C14.3114 19.5713 14.2087 19.5107 14.1341 19.408C14.0594 19.3053 14.0081 19.1887 13.9801 19.058C13.9614 18.9367 13.9614 18.82 13.9801 18.708C13.9987 18.596 14.0361 18.512 14.0921 18.456C14.1761 18.5587 14.2881 18.6613 14.4281 18.764C14.5681 18.876 14.7547 18.9647 14.9881 19.03C15.2307 19.1047 15.5294 19.142 15.8841 19.142C16.2387 19.142 16.5281 19.0767 16.7521 18.946C16.9761 18.8153 17.1534 18.6053 17.2841 18.316C17.4241 18.0267 17.5407 17.644 17.6341 17.168ZM20.0561 11.988L19.2301 12.128C19.1741 11.8573 19.0994 11.6193 19.0061 11.414C18.9221 11.1993 18.8007 11.0313 18.6421 10.91C18.4927 10.7793 18.2967 10.714 18.0541 10.714C17.8207 10.714 17.6107 10.798 17.4241 10.966C17.2467 11.1247 17.0881 11.3393 16.9481 11.61C16.8081 11.8713 16.6914 12.1607 16.5981 12.478C16.5141 12.786 16.4487 13.094 16.4021 13.402C16.3647 13.71 16.3461 13.9853 16.3461 14.228C16.3461 14.4707 16.3694 14.6667 16.4161 14.816C16.4721 14.9653 16.5514 15.0773 16.6541 15.152C16.7567 15.2173 16.8781 15.25 17.0181 15.25C17.1954 15.25 17.3681 15.1893 17.5361 15.068C17.7134 14.9373 17.9047 14.7413 18.1101 14.48C18.3247 14.2187 18.5767 13.8827 18.8661 13.472L19.0621 13.976C18.6981 14.6107 18.3574 15.1473 18.0401 15.586C17.7227 16.0247 17.3774 16.3607 17.0041 16.594C16.6401 16.818 16.2061 16.93 15.7021 16.93C15.1514 16.93 14.6754 16.818 14.2741 16.594C13.8727 16.37 13.5647 16.0433 13.3501 15.614C13.1447 15.1847 13.0421 14.662 13.0421 14.046C13.0421 13.57 13.1074 13.0987 13.2381 12.632C13.3687 12.1653 13.5601 11.7313 13.8121 11.33C14.0641 10.9193 14.3674 10.56 14.7221 10.252C15.0767 9.944 15.4781 9.70133 15.9261 9.524C16.3741 9.34667 16.8641 9.258 17.3961 9.258C17.8627 9.258 18.2594 9.328 18.5861 9.468C18.9221 9.59867 19.1927 9.79 19.3981 10.042C19.6127 10.2847 19.7714 10.574 19.8741 10.91C19.9767 11.2367 20.0374 11.596 20.0561 11.988Z" fill="#888888"/>
</svg>
