<svg width="24" height="24" viewBox="0 0 24 24" fill="none" xmlns="http://www.w3.org/2000/svg">
<path d="M10.7295 14.4023H7.36621L6.59375 17H5.30859L8.51465 7.04688H9.58789L12.8008 17H11.5156L10.7295 14.4023ZM7.69434 13.3223H10.4082L9.04785 8.79688L7.69434 13.3223ZM13.7441 12.9668C13.7441 11.8138 13.9538 10.9434 14.373 10.3555C14.7923 9.76302 15.4053 9.4668 16.2119 9.4668C16.9639 9.4668 17.5358 9.78809 17.9277 10.4307L17.9893 9.60352H19.083V17.0684C19.083 17.9844 18.8483 18.6862 18.3789 19.1738C17.9095 19.666 17.2555 19.9121 16.417 19.9121C16.0524 19.9121 15.6423 19.821 15.1865 19.6387C14.7354 19.4609 14.3958 19.2399 14.168 18.9756L14.6602 18.1416C15.1615 18.6338 15.7152 18.8799 16.3213 18.8799C17.3285 18.8799 17.8457 18.3307 17.873 17.2324V16.2686C17.4811 16.8473 16.9251 17.1367 16.2051 17.1367C15.4395 17.1367 14.8424 16.8496 14.4141 16.2754C13.9857 15.6966 13.7624 14.8672 13.7441 13.7871V12.9668ZM14.9541 13.6572C14.9541 14.4867 15.0749 15.0973 15.3164 15.4893C15.5625 15.8766 15.9635 16.0703 16.5195 16.0703C17.1211 16.0703 17.5723 15.7627 17.873 15.1475V11.4492C17.5586 10.8431 17.112 10.54 16.5332 10.54C15.9772 10.54 15.5762 10.736 15.3301 11.1279C15.084 11.5153 14.9587 12.1123 14.9541 12.9189V13.6572Z" fill="#888888"/>
</svg>
