<svg width="24" height="24" viewBox="0 0 24 24" fill="none" xmlns="http://www.w3.org/2000/svg">
<path d="M1.18555 17H3.77637L7.29004 10.4443C7.37207 10.2939 7.43815 10.1481 7.48828 10.0068C7.54297 9.861 7.59082 9.71973 7.63184 9.58301H7.67969C7.67969 9.71973 7.67969 9.85872 7.67969 10C7.67969 10.1413 7.69336 10.2894 7.7207 10.4443L8.95801 17H12.1025L9.94922 7.01953H6.71582L1.18555 17ZM4.16602 15.209H9.42969L9.21094 13.1787H5.0957L4.16602 15.209ZM12.4033 19.0166C12.695 19.29 13.1029 19.5202 13.627 19.707C14.1556 19.8984 14.7549 19.9941 15.4248 19.9941C16.5368 19.9941 17.5326 19.666 18.4121 19.0098C19.2917 18.3581 19.8408 17.4215 20.0596 16.2002L21.1943 9.76758H18.4873L18.3232 10.4854H18.2891C18.2161 10.221 18.0202 10.0137 17.7012 9.86328C17.3822 9.70833 17.0267 9.63086 16.6348 9.63086C15.6868 9.63086 14.862 9.95215 14.1602 10.5947C13.4629 11.2327 13.0117 12.126 12.8066 13.2744L12.7656 13.4932C12.5651 14.637 12.7041 15.5303 13.1826 16.1729C13.6657 16.8109 14.3766 17.1299 15.3154 17.1299C15.7301 17.1299 16.1084 17.0661 16.4502 16.9385C16.7965 16.8109 17.0654 16.6172 17.2568 16.3574L17.2637 16.3096C17.1543 16.9294 16.9424 17.3737 16.6279 17.6426C16.318 17.916 15.9694 18.0527 15.582 18.0527C15.1309 18.0527 14.7207 17.9844 14.3516 17.8477C13.9824 17.7109 13.7409 17.5902 13.627 17.4854L12.4033 19.0166ZM15.582 13.6914L15.6914 13.0762C15.7734 12.6159 15.9329 12.265 16.1699 12.0234C16.4115 11.7773 16.7008 11.6543 17.0381 11.6543C17.2933 11.6543 17.4961 11.7227 17.6465 11.8594C17.8014 11.9961 17.8949 12.2103 17.9268 12.502L17.5986 14.3477C17.4984 14.5436 17.348 14.7191 17.1475 14.874C16.9515 15.029 16.735 15.1064 16.498 15.1064C16.1198 15.1064 15.8532 14.9857 15.6982 14.7441C15.5433 14.5026 15.5046 14.1517 15.582 13.6914Z" fill="#888888"/>
</svg>
