<svg width="24" height="24" viewBox="0 0 24 24" fill="none" xmlns="http://www.w3.org/2000/svg">
<path d="M8.69824 8.82422L6.55859 17H4.44629L7.55664 7.04688H8.87598L8.69824 8.82422ZM10.3867 17L8.2334 8.82422L8.03516 7.04688H9.375L12.5127 17H10.3867ZM10.4619 13.2881V14.9492H5.9707V13.2881H10.4619ZM17.2568 9.60352H18.9932V17C18.9932 17.6745 18.8633 18.2259 18.6035 18.6543C18.3483 19.0872 17.9906 19.404 17.5303 19.6045C17.0745 19.8096 16.5413 19.9121 15.9307 19.9121C15.6982 19.9121 15.4362 19.8802 15.1445 19.8164C14.8574 19.7526 14.5794 19.6546 14.3105 19.5225C14.0417 19.3949 13.8206 19.2399 13.6475 19.0576L14.2969 17.7314C14.4746 17.9092 14.707 18.0596 14.9941 18.1826C15.2812 18.3102 15.5638 18.374 15.8418 18.374C16.1107 18.374 16.334 18.3307 16.5117 18.2441C16.694 18.1621 16.8307 18.0208 16.9219 17.8203C17.0176 17.6198 17.0654 17.3509 17.0654 17.0137V11.3193L17.2568 9.60352ZM13.1279 13.5615V13.0693C13.1279 12.4678 13.1849 11.9414 13.2988 11.4902C13.4128 11.0391 13.5768 10.6631 13.791 10.3623C14.0052 10.0615 14.2673 9.83822 14.5771 9.69238C14.8916 9.54199 15.2425 9.4668 15.6299 9.4668C16.0355 9.4668 16.375 9.55566 16.6484 9.7334C16.9219 9.90658 17.1429 10.1504 17.3115 10.4648C17.4847 10.7793 17.6169 11.1507 17.708 11.5791C17.8037 12.0075 17.8766 12.4769 17.9268 12.9873V13.6982C17.8766 14.1813 17.7946 14.6325 17.6807 15.0518C17.5713 15.471 17.4255 15.8356 17.2432 16.1455C17.0609 16.4554 16.8376 16.6992 16.5732 16.877C16.3089 17.0501 15.9899 17.1367 15.6162 17.1367C15.2334 17.1367 14.887 17.0592 14.5771 16.9043C14.2718 16.7493 14.0098 16.5215 13.791 16.2207C13.5768 15.9154 13.4128 15.5417 13.2988 15.0996C13.1849 14.653 13.1279 14.1403 13.1279 13.5615ZM15.0488 13.0693V13.5615C15.0488 13.9079 15.0693 14.2064 15.1104 14.457C15.1559 14.7031 15.2243 14.9059 15.3154 15.0654C15.4066 15.2204 15.5228 15.3366 15.6641 15.4141C15.8099 15.487 15.9808 15.5234 16.1768 15.5234C16.4548 15.5234 16.6758 15.4596 16.8398 15.332C17.0085 15.1999 17.1315 15.0199 17.209 14.792C17.291 14.5596 17.3366 14.293 17.3457 13.9922V12.7002C17.3411 12.4495 17.3115 12.224 17.2568 12.0234C17.2067 11.8229 17.1361 11.652 17.0449 11.5107C16.9538 11.3695 16.8353 11.2601 16.6895 11.1826C16.5482 11.1051 16.3818 11.0664 16.1904 11.0664C15.9945 11.0664 15.8258 11.1051 15.6846 11.1826C15.5433 11.2601 15.4248 11.3809 15.3291 11.5449C15.238 11.7044 15.1673 11.9118 15.1172 12.167C15.0716 12.4176 15.0488 12.7184 15.0488 13.0693Z" fill="#888888"/>
</svg>
