<svg width="24" height="24" viewBox="0 0 24 24" fill="none" xmlns="http://www.w3.org/2000/svg">
<path d="M5.73325 12.87H9.62525V13.57H5.42525L5.73325 12.87ZM8.75725 7.466L8.93925 7.508L4.38925 16.02C4.37992 16.076 4.42658 16.1273 4.52925 16.174C4.63192 16.2207 4.77192 16.258 4.94925 16.286C5.12658 16.3047 5.32258 16.314 5.53725 16.314H5.71925L5.56525 17H2.27525L2.42925 16.314H2.51325C2.77458 16.314 3.00325 16.272 3.19925 16.188C3.40458 16.0947 3.58658 15.894 3.74525 15.586L8.37925 6.976H9.70925L10.7593 15.642C10.7873 15.9313 10.8759 16.118 11.0253 16.202C11.1839 16.2767 11.3986 16.314 11.6693 16.314H11.7533L11.5993 17H8.14125L8.29525 16.314H8.47725C8.70125 16.314 8.90658 16.3093 9.09325 16.3C9.27992 16.2813 9.43392 16.2627 9.55525 16.244C9.67658 16.216 9.73725 16.188 9.73725 16.16L8.75725 7.466ZM17.8408 17.322L19.1288 11.148L19.2128 11.134L19.8428 9.468H20.5428L18.8628 17.406C18.7322 18.0593 18.5128 18.6053 18.2048 19.044C17.8968 19.492 17.4955 19.8233 17.0008 20.038C16.5062 20.262 15.9135 20.374 15.2228 20.374C14.7188 20.374 14.2662 20.3227 13.8648 20.22C13.4635 20.1173 13.1228 19.9867 12.8428 19.828C12.5722 19.6787 12.3715 19.5247 12.2408 19.366L12.5208 18.008H13.6128L13.2768 19.632C13.2022 19.6133 13.1322 19.5713 13.0668 19.506C13.0108 19.4407 12.9688 19.3613 12.9408 19.268C12.9128 19.184 12.8942 19.0953 12.8848 19.002C12.8848 18.918 12.8942 18.8387 12.9128 18.764C13.0342 18.9227 13.1975 19.072 13.4028 19.212C13.6175 19.352 13.8788 19.464 14.1868 19.548C14.4948 19.632 14.8542 19.674 15.2648 19.674C15.7782 19.674 16.2028 19.59 16.5388 19.422C16.8748 19.2633 17.1455 19.0113 17.3508 18.666C17.5562 18.3207 17.7195 17.8727 17.8408 17.322ZM19.6888 11.61L19.2408 12.17C19.1568 11.75 19.0262 11.386 18.8488 11.078C18.6715 10.77 18.4382 10.532 18.1488 10.364C17.8688 10.1867 17.5235 10.098 17.1128 10.098C16.7488 10.098 16.4128 10.182 16.1048 10.35C15.7968 10.518 15.5262 10.7467 15.2928 11.036C15.0595 11.3253 14.8588 11.652 14.6908 12.016C14.5322 12.38 14.4108 12.7627 14.3268 13.164C14.2428 13.556 14.2008 13.9433 14.2008 14.326C14.2008 14.7273 14.2475 15.0727 14.3408 15.362C14.4342 15.642 14.5882 15.8613 14.8028 16.02C15.0175 16.1693 15.2975 16.244 15.6428 16.244C16.0348 16.244 16.3988 16.1413 16.7348 15.936C17.0708 15.7213 17.4022 15.4227 17.7288 15.04C18.0648 14.6573 18.4055 14.2047 18.7508 13.682L18.9468 14.158C18.6108 14.718 18.2608 15.2127 17.8968 15.642C17.5422 16.062 17.1642 16.3933 16.7628 16.636C16.3615 16.8693 15.9275 16.986 15.4608 16.986C14.9288 16.986 14.4855 16.874 14.1308 16.65C13.7855 16.426 13.5242 16.1133 13.3468 15.712C13.1788 15.3107 13.0948 14.8393 13.0948 14.298C13.0948 13.8313 13.1508 13.3647 13.2628 12.898C13.3842 12.4313 13.5615 11.988 13.7948 11.568C14.0282 11.1387 14.3082 10.756 14.6348 10.42C14.9615 10.084 15.3348 9.82267 15.7548 9.636C16.1748 9.44 16.6275 9.342 17.1128 9.342C17.4768 9.342 17.7988 9.398 18.0788 9.51C18.3682 9.622 18.6155 9.78067 18.8208 9.986C19.0355 10.182 19.2128 10.42 19.3528 10.7C19.4928 10.98 19.6048 11.2833 19.6888 11.61Z" fill="#888888"/>
</svg>
