<svg width="24" height="24" viewBox="0 0 24 24" fill="none" xmlns="http://www.w3.org/2000/svg">
<path d="M9.79883 14.9492H6.20312L5.51953 17H3.33887L7.04395 7.04688H8.94434L12.6699 17H10.4893L9.79883 14.9492ZM6.75684 13.2881H9.24512L7.99414 9.5625L6.75684 13.2881ZM13.1826 13.2471C13.1826 12.1123 13.4515 11.1986 13.9893 10.5059C14.5316 9.81315 15.2607 9.4668 16.1768 9.4668C16.988 9.4668 17.6191 9.74479 18.0703 10.3008L18.1523 9.60352H19.9434V16.7539C19.9434 17.401 19.7952 17.9639 19.499 18.4424C19.2074 18.9209 18.7949 19.2855 18.2617 19.5361C17.7285 19.7868 17.1042 19.9121 16.3887 19.9121C15.8464 19.9121 15.3177 19.8027 14.8027 19.584C14.2878 19.3698 13.8981 19.0918 13.6338 18.75L14.5088 17.5469C15.001 18.0983 15.598 18.374 16.2998 18.374C16.8239 18.374 17.2318 18.2327 17.5234 17.9502C17.8151 17.6722 17.9609 17.2757 17.9609 16.7607V16.3643C17.5052 16.8792 16.9059 17.1367 16.1631 17.1367C15.2744 17.1367 14.5544 16.7904 14.0029 16.0977C13.4561 15.4004 13.1826 14.4775 13.1826 13.3291V13.2471ZM15.1582 13.3906C15.1582 14.0605 15.2926 14.5869 15.5615 14.9697C15.8304 15.348 16.1995 15.5371 16.6689 15.5371C17.2705 15.5371 17.7012 15.3115 17.9609 14.8604V11.75C17.6966 11.2988 17.2705 11.0732 16.6826 11.0732C16.2087 11.0732 15.835 11.2669 15.5615 11.6543C15.2926 12.0417 15.1582 12.6204 15.1582 13.3906Z" fill="#333333"/>
</svg>
