<svg width="24" height="24" viewBox="0 0 24 24" fill="none" xmlns="http://www.w3.org/2000/svg">
<path d="M12.0264 15.3936V17H7.35059V15.3936H8.56738L8.11621 13.7598H5.64844L5.14258 15.3936H6.41406V17H2.20312V15.3936H3.37891L5.23145 9.09766H3.9668V7.49121H10.1738V9.09766H8.89551L10.8916 15.3936H12.0264ZM7.72656 12.3652L6.93359 9.50098L6.0791 12.3652H7.72656ZM20.5303 10.3828V11.9141H19.4365V16.8018C19.4365 18.9847 18.2835 20.0762 15.9775 20.0762C14.6559 20.0762 13.6715 19.8369 13.0244 19.3584L14.0498 17.957C14.583 18.2852 15.1185 18.4492 15.6562 18.4492C16.1257 18.4492 16.5199 18.3285 16.8389 18.0869C17.1624 17.8454 17.3242 17.376 17.3242 16.6787V16.1729C16.6361 16.7881 15.9661 17.0957 15.3145 17.0957C14.5488 17.0957 13.8949 16.7767 13.3525 16.1387C12.8148 15.4961 12.5459 14.6781 12.5459 13.6846C12.5459 12.6865 12.8239 11.8708 13.3799 11.2373C13.9359 10.5993 14.6149 10.2803 15.417 10.2803C16.1872 10.2803 16.8229 10.5833 17.3242 11.1895V10.3828H20.5303ZM17.3311 13.7119C17.3311 13.1787 17.2126 12.7572 16.9756 12.4473C16.7386 12.1374 16.415 11.9824 16.0049 11.9824C15.5856 11.9824 15.2643 12.1419 15.041 12.4609C14.8223 12.7799 14.7129 13.1901 14.7129 13.6914C14.7129 14.1927 14.8268 14.6029 15.0547 14.9219C15.2871 15.2363 15.6038 15.3936 16.0049 15.3936C16.374 15.3936 16.6862 15.2477 16.9414 14.9561C17.2012 14.6598 17.3311 14.2451 17.3311 13.7119Z" fill="#333333"/>
</svg>
