<svg width="24" height="24" viewBox="0 0 24 24" fill="none" xmlns="http://www.w3.org/2000/svg">
<path d="M2.72363 17L3.07227 15.5166H3.98828L7.58398 8.97461H6.66113L6.99609 7.49121H12.499L12.1641 8.97461H11.3506L11.6309 15.5166H12.6084L12.2598 17H8.29492L8.65039 15.5166H9.53223V13.917H6.64746L5.84766 15.5166H6.72949L6.38086 17H2.72363ZM9.4707 12.5635L9.36133 8.89258H9.26562L7.3584 12.5635H9.4707ZM12.041 19.4609L12.6562 17.9912C13.4993 18.374 14.224 18.5654 14.8301 18.5654C16.0697 18.5654 16.8193 18.0436 17.0791 17L17.2637 16.2754L17.2363 16.2412C16.6758 16.7835 16.0833 17.0547 15.459 17.0547C14.7389 17.0547 14.1602 16.804 13.7227 16.3027C13.2852 15.8014 13.0664 15.1383 13.0664 14.3135C13.0664 13.2471 13.4128 12.3128 14.1055 11.5107C14.8027 10.7087 15.6071 10.3076 16.5186 10.3076C17.307 10.3076 17.9199 10.695 18.3574 11.4697L18.6104 10.376H21.4062L21.085 11.791H20.3604L19.1982 16.7881C18.6833 19.0029 17.307 20.1104 15.0693 20.1104C13.8936 20.1104 12.8841 19.8939 12.041 19.4609ZM15.124 14.2998C15.124 14.6598 15.2197 14.9515 15.4111 15.1748C15.6071 15.3936 15.8783 15.5029 16.2246 15.5029C16.7396 15.5029 17.1497 15.2591 17.4551 14.7715C17.765 14.2793 17.9199 13.721 17.9199 13.0967C17.9199 12.7503 17.8242 12.4632 17.6328 12.2354C17.4414 12.0029 17.1839 11.8867 16.8604 11.8867C16.359 11.8867 15.9443 12.1488 15.6162 12.6729C15.2881 13.1969 15.124 13.7393 15.124 14.2998Z" fill="#333333"/>
</svg>
