<svg width="24" height="24" viewBox="0 0 24 24" fill="none" xmlns="http://www.w3.org/2000/svg">
<path d="M2.74413 17V15.944H3.84813L6.36013 8.984H5.38413V7.928H10.3121V8.984H9.30413L11.8961 15.944H12.9361V17H8.98413V15.944H10.1361L9.33613 13.576H6.18413L5.38413 15.944H6.50413V17H2.74413ZM6.48813 12.552H9.01613L7.81613 9H7.73613L6.48813 12.552ZM17.215 20.04C16.799 20.04 16.3777 20.0027 15.951 19.928C15.535 19.8533 15.1243 19.752 14.719 19.624L14.991 18.552C15.375 18.6587 15.7377 18.744 16.079 18.808C16.431 18.8827 16.7617 18.92 17.071 18.92C17.6897 18.92 18.1697 18.776 18.511 18.488C18.8523 18.2 19.023 17.7573 19.023 17.16V16.152L19.455 16.024C19.1243 16.376 18.7457 16.6373 18.319 16.808C17.903 16.9787 17.4657 17.064 17.007 17.064C16.4097 17.064 15.8657 16.936 15.375 16.68C14.895 16.424 14.5163 16.0507 14.239 15.56C13.9617 15.0693 13.823 14.4827 13.823 13.8C13.823 13.1067 13.9563 12.5147 14.223 12.024C14.5003 11.5333 14.879 11.1653 15.359 10.92C15.839 10.664 16.3777 10.536 16.975 10.536C17.423 10.536 17.871 10.632 18.319 10.824C18.767 11.016 19.1137 11.2667 19.359 11.576L19.039 11.608V10.68H21.503V11.672H20.527V17.016C20.527 17.72 20.383 18.296 20.095 18.744C19.8177 19.192 19.4283 19.5173 18.927 19.72C18.4363 19.9333 17.8657 20.04 17.215 20.04ZM17.391 15.96C17.7323 15.96 18.0843 15.8853 18.447 15.736C18.8203 15.5867 19.1457 15.3733 19.423 15.096L19.023 15.8L19.007 11.88L19.407 12.504C19.1083 12.2373 18.767 12.024 18.383 11.864C18.0097 11.704 17.6417 11.624 17.279 11.624C16.9163 11.624 16.591 11.7093 16.303 11.88C16.0257 12.0507 15.8017 12.3013 15.631 12.632C15.471 12.9627 15.391 13.3733 15.391 13.864C15.391 14.312 15.4763 14.696 15.647 15.016C15.8283 15.3253 16.0683 15.56 16.367 15.72C16.6657 15.88 17.007 15.96 17.391 15.96Z" fill="#888888"/>
</svg>
