<svg width="24" height="24" viewBox="0 0 24 24" fill="none" xmlns="http://www.w3.org/2000/svg">
<path d="M3.7807 14.552H4.8307L7.3927 7.566H6.4407V7.118H9.5627V7.566H8.5827L11.1727 14.552H12.1807V15H9.4507V14.552H10.4727L9.4787 11.794H6.4547L5.4607 14.552H6.4827V15H3.7807V14.552ZM9.3387 11.346L7.9947 7.594H7.9387L6.5947 11.346H9.3387ZM19.57 9.498V9.946H18.646V15.112C18.646 15.952 18.408 16.5727 17.932 16.974C17.4653 17.3847 16.8166 17.59 15.986 17.59C15.4166 17.59 14.7493 17.4827 13.984 17.268L14.096 16.792C14.8426 17.0067 15.4726 17.114 15.986 17.114C16.6486 17.114 17.1526 16.946 17.498 16.61C17.8526 16.2833 18.03 15.8167 18.03 15.21V14.314C17.7686 14.538 17.456 14.7153 17.092 14.846C16.728 14.9767 16.3686 15.042 16.014 15.042C15.4726 15.042 14.9826 14.9253 14.544 14.692C14.1053 14.4493 13.76 14.1133 13.508 13.684C13.2653 13.2547 13.144 12.7553 13.144 12.186C13.144 11.626 13.2606 11.1313 13.494 10.702C13.7366 10.2727 14.0633 9.946 14.474 9.722C14.894 9.48867 15.37 9.372 15.902 9.372C16.266 9.372 16.644 9.442 17.036 9.582C17.428 9.71267 17.7593 9.89 18.03 10.114V9.498H19.57ZM13.774 12.256C13.774 12.956 13.9886 13.5207 14.418 13.95C14.8566 14.37 15.4166 14.58 16.098 14.58C16.4246 14.58 16.7606 14.5147 17.106 14.384C17.4606 14.2533 17.7686 14.076 18.03 13.852V10.534C17.7313 10.3193 17.3953 10.1467 17.022 10.016C16.658 9.88533 16.3033 9.82 15.958 9.82C15.3046 9.82 14.7773 10.044 14.376 10.492C13.9746 10.9307 13.774 11.5187 13.774 12.256Z" fill="#333333"/>
</svg>
