<svg width="24" height="24" viewBox="0 0 24 24" fill="none" xmlns="http://www.w3.org/2000/svg">
<path d="M12.9697 7.66211C12.9242 7.7806 12.8535 7.97656 12.7578 8.25C12.6667 8.52344 12.5573 8.84928 12.4297 9.22754C12.3021 9.60579 12.1608 10.0251 12.0059 10.4854C11.8555 10.9411 11.6982 11.415 11.5342 11.9072C11.3701 12.3949 11.2061 12.887 11.042 13.3838C10.8825 13.876 10.7298 14.3477 10.584 14.7988C10.4382 15.25 10.3037 15.6647 10.1807 16.043C10.0576 16.4212 9.95508 16.7402 9.87305 17C9.75456 17.0182 9.62923 17.0296 9.49707 17.0342C9.38314 17.0433 9.25098 17.0456 9.10059 17.041C8.95475 17.0365 8.80208 17.0228 8.64258 17L8.60156 16.9316C8.64258 16.8542 8.70182 16.7174 8.7793 16.5215C8.85677 16.321 8.94564 16.0794 9.0459 15.7969C9.15072 15.5143 9.26465 15.1976 9.3877 14.8467C9.5153 14.4912 9.64518 14.1221 9.77734 13.7393L8.58789 13.7803C8.15951 14.4046 7.74251 14.988 7.33691 15.5303C6.93132 16.0726 6.5485 16.5625 6.18848 17C6.09733 17.0091 5.99479 17.016 5.88086 17.0205C5.78516 17.0251 5.67122 17.0251 5.53906 17.0205C5.40234 17.0205 5.25195 17.0137 5.08789 17L5.10156 16.9043C5.12435 16.9043 5.16309 16.8906 5.21777 16.8633C5.2679 16.8359 5.31803 16.7972 5.36816 16.7471C5.94694 16.1546 6.53027 15.5098 7.11816 14.8125C7.70605 14.1107 8.27116 13.3838 8.81348 12.6318C9.35579 11.8799 9.86393 11.1188 10.3379 10.3486C10.8118 9.57389 11.2266 8.81738 11.582 8.0791C11.582 8.0153 11.5684 7.96973 11.541 7.94238C11.418 7.9515 11.2881 7.96061 11.1514 7.96973C11.0146 7.97428 10.8825 7.9834 10.7549 7.99707C10.6273 8.01074 10.5065 8.02669 10.3926 8.04492C10.2832 8.06315 10.1943 8.08594 10.126 8.11328C10.0667 8.13607 10.0029 8.1748 9.93457 8.22949C9.86621 8.27962 9.80241 8.34342 9.74316 8.4209C9.68392 8.49837 9.63379 8.58496 9.59277 8.68066C9.55632 8.77181 9.53809 8.86523 9.53809 8.96094C9.53809 9.02018 9.54264 9.09538 9.55176 9.18652C9.56087 9.27311 9.5791 9.36198 9.60645 9.45312L9.52441 9.53516C9.29199 9.36654 9.10742 9.19108 8.9707 9.00879C8.83398 8.82194 8.76562 8.64876 8.76562 8.48926C8.76562 8.39811 8.79525 8.29785 8.85449 8.18848C8.91829 8.0791 8.99577 7.97884 9.08691 7.8877C9.17806 7.79199 9.27604 7.71224 9.38086 7.64844C9.48568 7.58464 9.5791 7.55273 9.66113 7.55273C9.80241 7.55273 9.97331 7.55729 10.1738 7.56641C10.3789 7.57096 10.5931 7.5778 10.8164 7.58691C11.0443 7.59603 11.2721 7.60514 11.5 7.61426C11.7279 7.61882 11.9375 7.62109 12.1289 7.62109C12.2109 7.62109 12.2839 7.62109 12.3477 7.62109C12.4115 7.62109 12.4707 7.62109 12.5254 7.62109C12.5846 7.61654 12.6439 7.61426 12.7031 7.61426C12.7669 7.6097 12.8398 7.60286 12.9219 7.59375L12.9697 7.66211ZM9.88672 13.418C10.0052 13.0625 10.126 12.7025 10.249 12.3379C10.3721 11.9733 10.4906 11.6178 10.6045 11.2715C10.7184 10.9206 10.8278 10.5856 10.9326 10.2666C11.0374 9.94759 11.1331 9.65365 11.2197 9.38477C10.8597 10.082 10.4723 10.7725 10.0576 11.4561C9.6429 12.1396 9.22135 12.8073 8.79297 13.459L9.88672 13.418ZM14.3643 15.332C14.2913 15.5736 14.2161 15.8311 14.1387 16.1045C14.0658 16.3734 13.9928 16.6445 13.9199 16.918C13.847 17.1914 13.7764 17.458 13.708 17.7178C13.6396 17.9821 13.5736 18.2236 13.5098 18.4424C13.4642 18.6019 13.3776 18.7523 13.25 18.8936C13.127 19.0348 12.9811 19.1624 12.8125 19.2764C12.6484 19.3949 12.473 19.4997 12.2861 19.5908C12.0993 19.6865 11.9261 19.764 11.7666 19.8232C11.6071 19.887 11.4704 19.9349 11.3564 19.9668C11.2425 20.0033 11.1719 20.0215 11.1445 20.0215C11.1035 20.0215 11.0488 20.0169 10.9805 20.0078C10.9076 19.9987 10.8506 19.9805 10.8096 19.9531C10.7594 19.9258 10.7048 19.8734 10.6455 19.7959C10.5817 19.723 10.5225 19.6364 10.4678 19.5361C10.4085 19.4359 10.3561 19.3288 10.3105 19.2148C10.2604 19.1055 10.2262 19.0029 10.208 18.9072L11.0352 18.2168C11.1217 18.4355 11.2152 18.6292 11.3154 18.7979C11.3564 18.8708 11.402 18.9414 11.4521 19.0098C11.5023 19.0827 11.5547 19.1465 11.6094 19.2012C11.6641 19.2559 11.721 19.2992 11.7803 19.3311C11.8395 19.363 11.8988 19.3789 11.958 19.3789C12.0036 19.3789 12.0446 19.3607 12.0811 19.3242C12.1221 19.2878 12.1585 19.2399 12.1904 19.1807C12.2269 19.126 12.2611 19.0599 12.293 18.9824C12.3249 18.9095 12.3568 18.832 12.3887 18.75C12.4251 18.6452 12.4661 18.5176 12.5117 18.3672C12.5618 18.2214 12.612 18.0618 12.6621 17.8887C12.7168 17.7201 12.7692 17.5446 12.8193 17.3623C12.874 17.18 12.9264 17 12.9766 16.8223C13.0267 16.6445 13.0723 16.4759 13.1133 16.3164C13.1589 16.1523 13.1976 16.0065 13.2295 15.8789C13.07 16.0749 12.9036 16.2503 12.7305 16.4053C12.5573 16.5557 12.3932 16.6833 12.2383 16.7881C12.0833 16.8883 11.9466 16.9635 11.8281 17.0137C11.7051 17.0684 11.6162 17.0957 11.5615 17.0957C11.5251 17.0957 11.4954 17.082 11.4727 17.0547C11.4453 17.0273 11.4225 16.9909 11.4043 16.9453C11.3815 16.8997 11.3656 16.8519 11.3564 16.8018C11.3428 16.7516 11.3337 16.7015 11.3291 16.6514C11.3154 16.4919 11.3223 16.3187 11.3496 16.1318C11.3724 15.9404 11.4066 15.7467 11.4521 15.5508C11.4977 15.3548 11.5501 15.1634 11.6094 14.9766C11.6641 14.7852 11.7188 14.612 11.7734 14.457C11.8281 14.2975 11.876 14.1631 11.917 14.0537C11.958 13.9443 11.9854 13.8714 11.999 13.835C12.0173 13.7803 12.0469 13.7165 12.0879 13.6436C12.1335 13.5661 12.1836 13.4909 12.2383 13.418C12.293 13.3405 12.3477 13.2676 12.4023 13.1992C12.4616 13.1263 12.5186 13.0625 12.5732 13.0078C12.6735 12.9121 12.8057 12.8096 12.9697 12.7002C13.1383 12.5908 13.3206 12.4837 13.5166 12.3789C13.7126 12.2741 13.9131 12.1715 14.1182 12.0713C14.3278 11.971 14.526 11.8844 14.7129 11.8115C14.8997 11.7386 15.0661 11.6794 15.2119 11.6338C15.3577 11.5882 15.4671 11.5654 15.54 11.5654C15.6038 11.5654 15.6585 11.5677 15.7041 11.5723C15.7542 11.5768 15.793 11.5837 15.8203 11.5928L15.834 11.627C15.7656 11.7135 15.6836 11.8571 15.5879 12.0576C15.4967 12.2581 15.401 12.486 15.3008 12.7412C15.2005 12.9919 15.098 13.2562 14.9932 13.5342C14.8929 13.8122 14.7995 14.0742 14.7129 14.3203C14.6263 14.5664 14.5511 14.7806 14.4873 14.9629C14.4235 15.1452 14.3825 15.2682 14.3643 15.332ZM12.4775 16.1045C12.514 16.1045 12.5664 16.084 12.6348 16.043C12.7077 16.002 12.7852 15.9495 12.8672 15.8857C12.9492 15.8219 13.0335 15.749 13.1201 15.667C13.2067 15.5804 13.2865 15.4938 13.3594 15.4072C13.4049 15.2477 13.4551 15.0723 13.5098 14.8809C13.569 14.6895 13.6305 14.4935 13.6943 14.293C13.7581 14.0924 13.8242 13.8919 13.8926 13.6914C13.9609 13.4909 14.027 13.3018 14.0908 13.124C14.1546 12.9417 14.2161 12.7777 14.2754 12.6318C14.3346 12.4814 14.387 12.3561 14.4326 12.2559C14.3962 12.265 14.3483 12.2786 14.2891 12.2969C14.2344 12.3105 14.1706 12.3311 14.0977 12.3584C14.0293 12.3812 13.9564 12.4131 13.8789 12.4541C13.8014 12.4906 13.7262 12.5361 13.6533 12.5908C13.5303 12.6865 13.4141 12.8301 13.3047 13.0215C13.1953 13.2129 13.0951 13.4294 13.0039 13.6709C12.9128 13.9079 12.8285 14.154 12.751 14.4092C12.6781 14.6644 12.6143 14.9014 12.5596 15.1201C12.5094 15.3389 12.4707 15.5257 12.4434 15.6807C12.416 15.8356 12.4023 15.929 12.4023 15.9609C12.4023 15.9974 12.4046 16.0316 12.4092 16.0635C12.4183 16.0908 12.4411 16.1045 12.4775 16.1045Z" fill="#333333"/>
</svg>
