<svg width="24" height="24" viewBox="0 0 24 24" fill="none" xmlns="http://www.w3.org/2000/svg">
<path d="M9.7162 6.752L11.7882 17H9.8282L9.2822 14.06H6.4822L5.1242 17H3.3882L8.2042 6.752H9.7162ZM8.4842 9.188L7.0422 12.688H9.0442L8.4842 9.188ZM17.8588 10H18.7408L17.8168 16.44C17.7515 16.8787 17.6535 17.3173 17.5228 17.756C17.3922 18.204 17.1962 18.6147 16.9348 18.988C16.6735 19.3613 16.3235 19.66 15.8848 19.884C15.4555 20.108 14.9095 20.22 14.2468 20.22C13.6495 20.22 13.1408 20.1313 12.7208 19.954C12.3008 19.786 11.9928 19.6133 11.7968 19.436L12.6508 18.162C12.8002 18.3393 13.0008 18.5167 13.2528 18.694C13.5142 18.8713 13.8455 18.96 14.2468 18.96C14.6948 18.96 15.0448 18.8807 15.2968 18.722C15.5488 18.5727 15.7355 18.358 15.8568 18.078C15.9875 17.798 16.0808 17.476 16.1368 17.112L16.2348 16.538H16.1788C15.7402 16.958 15.2035 17.168 14.5688 17.168C14.0275 17.168 13.5842 17.0327 13.2388 16.762C12.9028 16.482 12.6555 16.118 12.4968 15.67C12.3382 15.2127 12.2588 14.718 12.2588 14.186C12.2588 13.6727 12.3288 13.164 12.4688 12.66C12.6182 12.1467 12.8375 11.68 13.1268 11.26C13.4255 10.84 13.7942 10.504 14.2328 10.252C14.6808 10 15.2035 9.874 15.8008 9.874C16.0248 9.874 16.3002 9.92533 16.6268 10.028C16.9535 10.1213 17.2428 10.2893 17.4948 10.532L17.8588 10ZM13.8968 14.144C13.8968 14.648 13.9715 15.0867 14.1208 15.46C14.2702 15.8333 14.5268 16.02 14.8908 16.02C15.1895 16.02 15.4462 15.9173 15.6608 15.712C15.8755 15.4973 16.0575 15.2127 16.2068 14.858C16.3562 14.5033 16.4822 14.1067 16.5848 13.668C16.6875 13.2293 16.7715 12.7813 16.8368 12.324L16.9768 11.372C16.6035 11.1387 16.2395 11.022 15.8848 11.022C15.2875 11.022 14.8068 11.3067 14.4428 11.876C14.0788 12.436 13.8968 13.192 13.8968 14.144Z" fill="#333333"/>
</svg>
