<svg width="24" height="24" viewBox="0 0 24 24" fill="none" xmlns="http://www.w3.org/2000/svg">
<path d="M9.91483 6.864L11.9028 17H10.5448L9.88683 13.514H6.70883L5.09883 17H3.96483L8.69683 6.864H9.91483ZM8.96283 8.572L7.14283 12.576H9.70483L8.96283 8.572ZM17.9946 10.07H18.6106L17.6446 16.706C17.5886 17.1167 17.4952 17.5273 17.3646 17.938C17.2432 18.358 17.0659 18.7407 16.8326 19.086C16.5992 19.4313 16.2772 19.7067 15.8666 19.912C15.4652 20.1173 14.9566 20.22 14.3406 20.22C13.9952 20.22 13.6732 20.178 13.3746 20.094C13.0852 20.01 12.8426 19.9167 12.6466 19.814C12.4506 19.7113 12.3152 19.6367 12.2406 19.59L12.8146 18.61C13.0106 18.8153 13.2392 18.9833 13.5006 19.114C13.7712 19.2447 14.0092 19.31 14.2146 19.31C14.7279 19.31 15.1386 19.212 15.4466 19.016C15.7546 18.82 15.9879 18.554 16.1466 18.218C16.3052 17.882 16.4126 17.5087 16.4686 17.098L16.5946 16.272H16.5386C16.3799 16.5053 16.1372 16.7153 15.8106 16.902C15.4932 17.0887 15.1432 17.182 14.7606 17.182C14.2566 17.182 13.8459 17.0513 13.5286 16.79C13.2206 16.5287 12.9919 16.1787 12.8426 15.74C12.7026 15.3013 12.6326 14.8207 12.6326 14.298C12.6326 13.7753 12.7026 13.2573 12.8426 12.744C12.9919 12.2307 13.2112 11.764 13.5006 11.344C13.7899 10.924 14.1539 10.588 14.5926 10.336C15.0312 10.084 15.5492 9.958 16.1466 9.958C16.4079 9.958 16.6692 10.0047 16.9306 10.098C17.2012 10.182 17.4532 10.3407 17.6866 10.574L17.9946 10.07ZM13.7946 14.284C13.7946 14.8253 13.8879 15.2967 14.0746 15.698C14.2612 16.09 14.5646 16.286 14.9846 16.286C15.3952 16.286 15.7452 16.1133 16.0346 15.768C16.3239 15.4227 16.5572 14.9793 16.7346 14.438C16.9212 13.8873 17.0519 13.3087 17.1266 12.702L17.3366 11.176C16.9632 10.9427 16.5759 10.826 16.1746 10.826C15.7452 10.826 15.3766 10.9287 15.0686 11.134C14.7699 11.3393 14.5226 11.6147 14.3266 11.96C14.1399 12.296 14.0046 12.6693 13.9206 13.08C13.8366 13.4813 13.7946 13.8827 13.7946 14.284Z" fill="#333333"/>
</svg>
