<svg width="24" height="24" viewBox="0 0 24 24" fill="none" xmlns="http://www.w3.org/2000/svg">
<path d="M7.60762 8.194L6.13762 12.968C6.12828 12.996 6.13295 13.024 6.15162 13.052C6.17028 13.0707 6.19362 13.08 6.22162 13.08H9.02162C9.04962 13.08 9.07295 13.0707 9.09162 13.052C9.11028 13.024 9.11495 12.996 9.10562 12.968L7.63562 8.194C7.63562 8.18467 7.63095 8.18 7.62162 8.18C7.61228 8.18 7.60762 8.18467 7.60762 8.194ZM4.10762 17C3.91162 17 3.75295 16.9207 3.63162 16.762C3.51962 16.6033 3.49628 16.4307 3.56162 16.244L6.55762 7.536C6.63228 7.312 6.76762 7.13 6.96362 6.99C7.15962 6.85 7.37428 6.78 7.60762 6.78H7.69162C7.93428 6.78 8.14895 6.85 8.33562 6.99C8.53162 7.13 8.66695 7.312 8.74162 7.536L11.7376 16.244C11.803 16.4307 11.775 16.6033 11.6536 16.762C11.5416 16.9207 11.3876 17 11.1916 17H11.1356C10.9023 17 10.6876 16.93 10.4916 16.79C10.305 16.65 10.1743 16.468 10.0996 16.244L9.53962 14.396C9.53028 14.3213 9.47895 14.284 9.38562 14.284H5.85762C5.77362 14.284 5.72228 14.3213 5.70362 14.396L5.14362 16.244C5.07828 16.468 4.94762 16.65 4.75162 16.79C4.56495 16.93 4.35028 17 4.10762 17ZM15.7113 10.7C14.5447 10.7 13.9613 11.54 13.9613 13.22C13.9613 14.116 14.1153 14.7833 14.4233 15.222C14.7407 15.6607 15.17 15.88 15.7113 15.88C16.1873 15.88 16.598 15.7073 16.9433 15.362C17.2887 15.0073 17.4613 14.5967 17.4613 14.13V12.45C17.4613 11.9833 17.2887 11.5773 16.9433 11.232C16.598 10.8773 16.1873 10.7 15.7113 10.7ZM15.2913 17C14.47 17 13.798 16.6687 13.2753 16.006C12.7527 15.3433 12.4913 14.4147 12.4913 13.22C12.4913 12.0627 12.7387 11.1667 13.2333 10.532C13.728 9.89733 14.414 9.58 15.2913 9.58C15.7393 9.58 16.1313 9.65933 16.4673 9.818C16.8033 9.96733 17.144 10.2333 17.4893 10.616C17.4987 10.6253 17.508 10.63 17.5173 10.63C17.5267 10.63 17.5313 10.6253 17.5313 10.616V10.406C17.5407 10.2193 17.6153 10.0607 17.7553 9.93C17.8953 9.79 18.0587 9.72 18.2453 9.72C18.432 9.72 18.5907 9.79 18.7213 9.93C18.8613 10.0607 18.9313 10.2193 18.9313 10.406V16.51C18.9313 17.7793 18.6467 18.7127 18.0773 19.31C17.508 19.9167 16.626 20.22 15.4313 20.22C14.89 20.22 14.3907 20.1733 13.9333 20.08C13.756 20.0427 13.6113 19.9493 13.4993 19.8C13.3873 19.66 13.3313 19.4967 13.3313 19.31C13.3313 19.1607 13.392 19.0393 13.5133 18.946C13.644 18.862 13.784 18.8433 13.9333 18.89C14.428 19.03 14.9273 19.1 15.4313 19.1C16.1407 19.1 16.654 18.8993 16.9713 18.498C17.298 18.106 17.4613 17.4667 17.4613 16.58V16.104C17.4613 16.0947 17.4567 16.09 17.4473 16.09C17.438 16.09 17.4287 16.0947 17.4193 16.104C16.8313 16.7013 16.122 17 15.2913 17Z" fill="#888888"/>
</svg>
