<svg width="24" height="24" viewBox="0 0 24 24" fill="none" xmlns="http://www.w3.org/2000/svg">
<path d="M7.64732 7.802L5.93932 13.01C5.92999 13.038 5.93465 13.066 5.95332 13.094C5.97199 13.1127 5.99532 13.122 6.02332 13.122H9.31332C9.34132 13.122 9.35999 13.1127 9.36932 13.094C9.38799 13.066 9.39732 13.038 9.39732 13.01L7.68932 7.802C7.68932 7.79267 7.68465 7.788 7.67532 7.788C7.65665 7.788 7.64732 7.79267 7.64732 7.802ZM4.04932 17C3.90932 17 3.79732 16.944 3.71332 16.832C3.62932 16.7107 3.61065 16.5847 3.65732 16.454L6.84932 7.368C6.91465 7.19067 7.02199 7.05067 7.17132 6.948C7.32999 6.836 7.50265 6.78 7.68932 6.78C7.87599 6.78 8.04399 6.836 8.19332 6.948C8.35199 7.05067 8.46399 7.19067 8.52932 7.368L11.7073 16.44C11.754 16.58 11.7353 16.7107 11.6513 16.832C11.5673 16.944 11.4553 17 11.3153 17C11.1287 17 10.9607 16.9487 10.8113 16.846C10.6713 16.734 10.5733 16.594 10.5173 16.426L9.77532 14.13C9.74732 14.0553 9.69132 14.018 9.60732 14.018H5.72932C5.65465 14.018 5.60332 14.0553 5.57532 14.13L4.80532 16.454C4.74932 16.622 4.65132 16.7573 4.51132 16.86C4.38065 16.9533 4.22665 17 4.04932 17ZM15.696 10.42C14.3427 10.42 13.666 11.3673 13.666 13.262C13.666 14.2047 13.8433 14.9233 14.198 15.418C14.562 15.9127 15.0613 16.16 15.696 16.16C16.2373 16.16 16.7087 15.9593 17.11 15.558C17.5207 15.1567 17.726 14.676 17.726 14.116V12.492C17.726 11.932 17.5207 11.4467 17.11 11.036C16.7087 10.6253 16.2373 10.42 15.696 10.42ZM15.416 17C14.5667 17 13.8807 16.6733 13.358 16.02C12.8447 15.3573 12.588 14.438 12.588 13.262C12.588 12.0207 12.8447 11.0967 13.358 10.49C13.8807 9.88333 14.5667 9.58 15.416 9.58C16.3587 9.58 17.1287 9.96733 17.726 10.742C17.7353 10.7513 17.7447 10.756 17.754 10.756C17.7633 10.756 17.768 10.7513 17.768 10.742L17.782 10.224C17.782 10.084 17.8287 9.96733 17.922 9.874C18.0247 9.77133 18.146 9.72 18.286 9.72C18.426 9.72 18.5427 9.77133 18.636 9.874C18.7387 9.96733 18.79 10.084 18.79 10.224V16.58C18.79 17.84 18.5193 18.7593 17.978 19.338C17.4367 19.926 16.5873 20.22 15.43 20.22C14.8513 20.22 14.3193 20.1593 13.834 20.038C13.5353 19.9633 13.386 19.7673 13.386 19.45C13.386 19.338 13.428 19.2447 13.512 19.17C13.6053 19.1047 13.7033 19.0907 13.806 19.128C14.3287 19.296 14.87 19.38 15.43 19.38C16.242 19.38 16.8253 19.1653 17.18 18.736C17.544 18.3067 17.726 17.602 17.726 16.622V15.936C17.726 15.9267 17.7213 15.922 17.712 15.922C17.7027 15.922 17.6933 15.9267 17.684 15.936C17.1147 16.6453 16.3587 17 15.416 17Z" fill="#333333"/>
</svg>
