<svg width="24" height="24" viewBox="0 0 24 24" fill="none" xmlns="http://www.w3.org/2000/svg">
<path d="M6.50205 12.94H7.95805C7.98605 12.94 8.00939 12.9307 8.02806 12.912C8.05606 12.884 8.06539 12.856 8.05605 12.828L7.24405 9.174C7.24405 9.16467 7.23939 9.16 7.23005 9.16C7.22072 9.16 7.21605 9.16467 7.21605 9.174L6.40405 12.828C6.39472 12.856 6.39939 12.884 6.41805 12.912C6.44605 12.9307 6.47405 12.94 6.50205 12.94ZM8.96606 7.536L11.7101 16.244C11.7661 16.4307 11.7334 16.6033 11.6121 16.762C11.5001 16.9207 11.3461 17 11.1501 17H9.77805C9.54472 17 9.33472 16.93 9.14805 16.79C8.97072 16.6407 8.85872 16.454 8.81206 16.23L8.57405 15.152C8.55539 15.0773 8.50872 15.04 8.43405 15.04H6.04005C5.94672 15.04 5.89539 15.0773 5.88605 15.152L5.64805 16.23C5.60139 16.454 5.48472 16.6407 5.29805 16.79C5.12072 16.93 4.91539 17 4.68205 17H3.36605C3.17005 17 3.01139 16.9207 2.89005 16.762C2.77805 16.6033 2.75005 16.4307 2.80605 16.244L5.55005 7.536C5.61539 7.312 5.74139 7.13 5.92805 6.99C6.12405 6.85 6.34339 6.78 6.58605 6.78H7.93006C8.16339 6.78 8.37339 6.85 8.56005 6.99C8.75605 7.13 8.89139 7.312 8.96606 7.536ZM17.0723 13.85V12.66C17.0723 12.3333 16.9649 12.0673 16.7503 11.862C16.5356 11.6473 16.2696 11.54 15.9523 11.54C15.2056 11.54 14.8323 12.1 14.8323 13.22C14.8323 13.752 14.9303 14.1533 15.1263 14.424C15.3316 14.6947 15.6069 14.83 15.9523 14.83C16.2603 14.83 16.5216 14.732 16.7363 14.536C16.9603 14.34 17.0723 14.1113 17.0723 13.85ZM18.8643 9.72C19.0789 9.72 19.2656 9.79933 19.4243 9.958C19.5829 10.1167 19.6623 10.3033 19.6623 10.518V16.3C19.6623 17.5507 19.2796 18.5167 18.5143 19.198C17.7583 19.8793 16.6943 20.22 15.3223 20.22C14.7903 20.22 14.2583 20.178 13.7263 20.094C13.5023 20.0567 13.3156 19.9447 13.1663 19.758C13.0169 19.5807 12.9423 19.3753 12.9423 19.142V18.568C12.9423 18.372 13.0169 18.218 13.1663 18.106C13.3249 18.0033 13.5023 17.9753 13.6983 18.022C14.1183 18.134 14.6129 18.19 15.1823 18.19C15.8356 18.19 16.3116 18.0453 16.6103 17.756C16.9183 17.4667 17.0723 16.9813 17.0723 16.3V15.95C17.0723 15.9407 17.0676 15.936 17.0583 15.936C17.0396 15.936 17.0303 15.9407 17.0303 15.95C16.5263 16.51 15.8636 16.79 15.0423 16.79C14.2303 16.79 13.5583 16.4727 13.0263 15.838C12.5036 15.194 12.2423 14.3213 12.2423 13.22C12.2423 12.0627 12.4943 11.1667 12.9983 10.532C13.5116 9.89733 14.1929 9.58 15.0423 9.58C15.8543 9.58 16.5449 9.93 17.1143 10.63C17.1236 10.6393 17.1329 10.644 17.1423 10.644C17.1516 10.644 17.1563 10.6393 17.1563 10.63V10.518C17.1656 10.294 17.2496 10.1073 17.4083 9.958C17.5669 9.79933 17.7583 9.72 17.9823 9.72H18.8643Z" fill="#333333"/>
</svg>
