<svg width="24" height="24" viewBox="0 0 24 24" fill="none" xmlns="http://www.w3.org/2000/svg">
<path d="M2.62681 15.992C2.45881 15.9733 2.27681 15.894 2.08081 15.754C1.88481 15.6047 1.73548 15.46 1.63281 15.32C1.79148 15.3947 1.98748 15.446 2.22081 15.474C2.46348 15.502 2.66881 15.4787 2.83681 15.404C2.70615 15.3853 2.56615 15.32 2.41681 15.208C2.26748 15.096 2.16481 14.9793 2.10881 14.858C2.22081 14.914 2.37015 14.9467 2.55681 14.956C2.74348 14.9653 2.89748 14.942 3.01881 14.886C2.82281 14.8673 2.61281 14.7833 2.38881 14.634C2.16481 14.4753 1.99681 14.3167 1.88481 14.158C2.05281 14.27 2.27215 14.34 2.54281 14.368C2.81348 14.396 3.03748 14.3727 3.21481 14.298C3.12148 14.1487 2.96748 14.0133 2.75281 13.892C2.54748 13.7613 2.35615 13.6867 2.17881 13.668C2.33748 13.6307 2.52415 13.6213 2.73881 13.64C2.61748 13.584 2.50548 13.5233 2.40281 13.458C2.30015 13.3833 2.22081 13.304 2.16481 13.22C2.33281 13.3227 2.54748 13.4113 2.80881 13.486C3.07015 13.5607 3.29881 13.5653 3.49481 13.5C3.35481 13.4907 3.20081 13.4347 3.03281 13.332C2.87415 13.2293 2.75281 13.122 2.66881 13.01C2.78081 13.0847 2.93481 13.136 3.13081 13.164C3.32681 13.192 3.49015 13.1827 3.62081 13.136C3.49948 12.9587 3.31281 12.786 3.06081 12.618C2.81815 12.45 2.58948 12.3473 2.37481 12.31C2.58015 12.2353 2.83215 12.212 3.13081 12.24C3.43881 12.268 3.68615 12.338 3.87281 12.45C3.73281 12.2727 3.52281 12.1233 3.24281 12.002C2.97215 11.8713 2.72481 11.8013 2.50081 11.792C2.60348 11.7733 2.72015 11.764 2.85081 11.764C2.72015 11.68 2.61748 11.5867 2.54281 11.484C2.72948 11.6333 2.97215 11.7407 3.27081 11.806C3.56948 11.8713 3.83548 11.89 4.06881 11.862C3.87281 11.834 3.65815 11.75 3.42481 11.61C3.20081 11.47 3.04215 11.316 2.94881 11.148C3.10748 11.2507 3.32215 11.316 3.59281 11.344C3.86348 11.372 4.09215 11.3533 4.27881 11.288C4.17615 11.1107 4.01281 10.9333 3.78881 10.756C3.56481 10.5693 3.35481 10.448 3.15881 10.392C3.33615 10.3267 3.56015 10.2893 3.83081 10.28C4.10148 10.2707 4.33015 10.2987 4.51681 10.364C4.39548 10.308 4.27415 10.2287 4.15281 10.126C4.03148 10.014 3.94748 9.902 3.90081 9.79C4.02215 9.82733 4.17615 9.846 4.36281 9.846C4.54948 9.846 4.69881 9.81333 4.81081 9.748C4.61481 9.70133 4.40481 9.58933 4.18081 9.412C3.95681 9.23466 3.80281 9.05266 3.71881 8.866C3.90548 8.94067 4.14348 8.98267 4.43281 8.992C4.72215 8.992 4.95081 8.94533 5.11881 8.852C5.03481 8.852 4.89015 8.81467 4.68481 8.74C4.47948 8.66533 4.25548 8.57666 4.01281 8.474C3.77948 8.362 3.56481 8.25 3.36881 8.138C3.18215 8.026 3.06081 7.93733 3.00481 7.872C3.07015 7.928 3.20548 7.99333 3.41081 8.068C3.62548 8.13333 3.85881 8.19867 4.11081 8.264C4.36281 8.32 4.59615 8.36667 4.81081 8.404C5.03481 8.44133 5.18881 8.45067 5.27281 8.432C5.13281 8.348 4.98348 8.208 4.82481 8.012C4.67548 7.80667 4.58215 7.62467 4.54481 7.466C4.69415 7.53133 4.89481 7.57333 5.14681 7.592C5.40815 7.60133 5.60881 7.56867 5.74881 7.494C5.81415 7.382 5.86081 7.242 5.88881 7.074C5.92615 6.89666 5.92615 6.74733 5.88881 6.626C5.98215 6.74733 6.04748 6.91067 6.08481 7.116C6.10348 6.92 6.14548 6.724 6.21081 6.528C6.28548 6.32267 6.37415 6.15933 6.47681 6.038C6.44881 6.25266 6.47681 6.50466 6.56081 6.794C6.64481 7.074 6.74748 7.30266 6.86881 7.48C6.85015 7.27467 6.87348 7.04133 6.93881 6.78C7.00415 6.50933 7.10215 6.29466 7.23281 6.136C7.17681 6.332 7.18615 6.57 7.26081 6.85C7.33548 7.12067 7.44281 7.33067 7.58281 7.48C7.66681 7.37733 7.72281 7.242 7.75081 7.074C7.78815 6.89666 7.79748 6.74266 7.77881 6.612C7.87215 6.74266 7.93748 6.906 7.97481 7.102C8.02148 6.74733 8.13348 6.43933 8.31081 6.178C8.28281 6.374 8.30148 6.60267 8.36681 6.864C8.43215 7.116 8.52081 7.32133 8.63281 7.48C8.79148 7.33067 8.92215 7.12067 9.02481 6.85C9.12748 6.57933 9.18348 6.33667 9.19281 6.122C9.29548 6.30867 9.34215 6.55133 9.33281 6.85C9.32348 7.14867 9.27681 7.396 9.19281 7.592C9.37948 7.60133 9.58481 7.57333 9.80881 7.508C10.0421 7.44266 10.2335 7.354 10.3828 7.242C10.2988 7.41 10.1495 7.55933 9.93481 7.69C9.72015 7.81133 9.51948 7.88133 9.33281 7.9C9.55681 7.97467 9.82748 8.00733 10.1448 7.998C10.4621 7.97933 10.7235 7.91867 10.9288 7.816C10.8355 8.03067 10.6488 8.23133 10.3688 8.418C10.0981 8.60466 9.85081 8.71666 9.62681 8.754C9.84148 8.838 10.1075 8.87533 10.4248 8.866C10.7515 8.85667 11.0175 8.79133 11.2228 8.67C11.1481 8.81 11.0315 8.95466 10.8728 9.104C10.7141 9.244 10.5461 9.36067 10.3688 9.454C10.6301 9.41667 10.8541 9.43067 11.0408 9.496C10.8821 9.51467 10.7048 9.58933 10.5088 9.72C10.3221 9.85067 10.1868 9.986 10.1028 10.126C10.2428 10.1633 10.4061 10.1773 10.5928 10.168C10.7888 10.1493 10.9521 10.112 11.0828 10.056C11.0361 10.14 10.9615 10.224 10.8588 10.308C11.2135 10.1867 11.5355 10.154 11.8248 10.21C11.5915 10.1913 11.3301 10.252 11.0408 10.392C10.7515 10.532 10.5275 10.6907 10.3688 10.868C10.5275 10.7747 10.7328 10.7187 10.9848 10.7C11.2461 10.6813 11.4655 10.7047 11.6428 10.77C11.4561 10.8073 11.2555 10.9007 11.0408 11.05C10.8261 11.19 10.6768 11.3393 10.5928 11.498C10.7141 11.5633 10.8775 11.6053 11.0828 11.624C11.2881 11.6427 11.4515 11.624 11.5728 11.568C11.5355 11.6893 11.4468 11.8153 11.3068 11.946C11.1668 12.0673 11.0361 12.156 10.9148 12.212C11.0828 12.1467 11.2928 12.1187 11.5448 12.128C11.7968 12.128 12.0021 12.1607 12.1608 12.226C11.9835 12.2633 11.7875 12.366 11.5728 12.534C11.3581 12.702 11.2088 12.87 11.1248 13.038C11.2555 12.9633 11.4281 12.926 11.6428 12.926C11.8668 12.9167 12.0441 12.9493 12.1748 13.024C12.0255 13.052 11.8621 13.1313 11.6848 13.262C11.5168 13.3927 11.4048 13.528 11.3488 13.668C11.5261 13.752 11.7548 13.7893 12.0348 13.78C12.3148 13.7613 12.5435 13.7007 12.7208 13.598C12.6368 13.7473 12.5061 13.892 12.3288 14.032C12.1608 14.172 11.9881 14.2747 11.8108 14.34C11.9508 14.3213 12.1048 14.3213 12.2728 14.34C12.4408 14.3587 12.5761 14.3913 12.6788 14.438C12.5388 14.494 12.3801 14.592 12.2028 14.732C12.0348 14.872 11.9228 15.012 11.8668 15.152C12.0161 15.096 12.2075 15.0727 12.4408 15.082C12.6835 15.082 12.8748 15.1147 13.0148 15.18C12.8561 15.2173 12.6835 15.3153 12.4968 15.474C12.3195 15.6327 12.2028 15.7867 12.1468 15.936C12.3428 15.7867 12.6088 15.6887 12.9448 15.642C13.2808 15.586 13.5655 15.6 13.7988 15.684C13.5561 15.7213 13.2855 15.8193 12.9868 15.978C12.6975 16.1367 12.4828 16.3187 12.3428 16.524C12.4361 16.5613 12.5295 16.6267 12.6228 16.72C12.7255 16.8133 12.7955 16.9113 12.8328 17.014C12.7675 16.93 12.6695 16.86 12.5388 16.804C12.4175 16.748 12.3055 16.72 12.2028 16.72C12.1188 16.8133 12.0441 16.9487 11.9788 17.126C11.9228 17.3127 11.8995 17.4713 11.9088 17.602C11.8341 17.5367 11.7688 17.4433 11.7128 17.322C11.6661 17.21 11.6335 17.0933 11.6148 16.972C11.6055 17.168 11.5681 17.3733 11.5028 17.588C11.4468 17.8027 11.3675 17.98 11.2648 18.12C11.3115 17.9147 11.2975 17.672 11.2228 17.392C11.1481 17.1213 11.0548 16.8973 10.9428 16.72C10.8028 16.8507 10.6908 17.0467 10.6068 17.308C10.5228 17.5787 10.4948 17.8073 10.5228 17.994C10.4295 17.8913 10.3455 17.756 10.2708 17.588C10.2055 17.42 10.1588 17.2567 10.1308 17.098C10.1028 17.4153 10.0095 17.6907 9.85081 17.924C9.89748 17.7467 9.89748 17.5367 9.85081 17.294C9.81348 17.0607 9.74815 16.8647 9.65481 16.706C9.49615 16.7993 9.28148 16.874 9.01081 16.93C8.74948 16.986 8.53015 16.986 8.35281 16.93C8.53015 16.8647 8.71681 16.7387 8.91281 16.552C9.10881 16.3653 9.23948 16.1787 9.30481 15.992C9.18348 16.1693 8.99681 16.3327 8.74481 16.482C8.49281 16.6313 8.26415 16.7153 8.05881 16.734C8.16148 16.6593 8.25948 16.552 8.35281 16.412C8.28748 16.3467 8.22681 16.2533 8.17081 16.132C8.12415 16.0107 8.08681 15.8893 8.05881 15.768C8.04948 15.9453 8.01215 16.1273 7.94681 16.314C7.88148 16.5007 7.80681 16.6547 7.72281 16.776C7.76015 16.58 7.74615 16.3513 7.68081 16.09C7.62481 15.8287 7.53615 15.614 7.41481 15.446C7.33081 15.586 7.26081 15.768 7.20481 15.992C7.15815 16.216 7.15815 16.412 7.20481 16.58C7.10215 16.44 7.02748 16.258 6.98081 16.034C6.94348 15.81 6.94348 15.614 6.98081 15.446C6.89681 15.558 6.84081 15.7073 6.81281 15.894C6.79415 16.0807 6.80348 16.2393 6.84081 16.37C6.74748 16.2207 6.69148 16.034 6.67281 15.81C6.62615 16.0153 6.56081 16.202 6.47681 16.37C6.66348 16.6313 6.85948 16.8787 7.06481 17.112C7.27015 17.3453 7.41948 17.49 7.51281 17.546C7.41015 17.518 7.24215 17.406 7.00881 17.21C6.77548 17.0233 6.54215 16.818 6.30881 16.594C6.22481 16.51 6.14548 16.4307 6.07081 16.356C5.86548 16.3747 5.68348 16.356 5.52481 16.3C5.71148 16.4027 5.89348 16.5567 6.07081 16.762C6.25748 16.958 6.38348 17.1493 6.44881 17.336C6.29015 17.1773 6.07548 17.0373 5.80481 16.916C5.53415 16.7853 5.28681 16.72 5.06281 16.72C4.95081 16.9253 4.86681 17.1773 4.81081 17.476C4.75481 17.7747 4.75948 18.036 4.82481 18.26C4.66615 18.008 4.56815 17.7 4.53081 17.336C4.49348 17.5133 4.43748 17.6813 4.36281 17.84C4.28815 18.008 4.19948 18.1387 4.09681 18.232C4.11548 18.008 4.07815 17.742 3.98481 17.434C3.89148 17.1353 3.77481 16.8973 3.63481 16.72C3.64415 16.8507 3.63015 17 3.59281 17.168C3.56481 17.336 3.51348 17.476 3.43881 17.588C3.46681 17.4573 3.45748 17.308 3.41081 17.14C3.37348 16.972 3.31748 16.832 3.24281 16.72C3.10281 16.8693 2.98615 17.0793 2.89281 17.35C2.80881 17.63 2.79015 17.868 2.83681 18.064C2.68748 17.924 2.58015 17.6813 2.51481 17.336C2.44948 17 2.48681 16.552 2.62681 15.992ZM7.00881 10.672C7.05548 10.6813 7.10681 10.7 7.16281 10.728C7.19081 10.7 7.21881 10.6767 7.24681 10.658C7.15348 10.6487 7.07415 10.6533 7.00881 10.672ZM7.83481 10.896C7.73215 10.84 7.59681 10.812 7.42881 10.812L7.41481 10.868C7.48948 10.9333 7.54548 10.9893 7.58281 11.036C7.66681 10.9613 7.75081 10.9147 7.83481 10.896ZM7.34481 10.826V10.812C7.34481 10.812 7.34015 10.812 7.33081 10.812L7.34481 10.826ZM6.81281 11.316C6.92481 11.316 7.04148 11.3487 7.16281 11.414C7.29348 11.4793 7.37748 11.5447 7.41481 11.61C7.51748 11.5727 7.61548 11.526 7.70881 11.47C7.81148 11.4047 7.89081 11.3347 7.94681 11.26C7.89081 11.2227 7.80681 11.1993 7.69481 11.19C7.59215 11.1807 7.50815 11.19 7.44281 11.218C7.47081 11.162 7.51281 11.106 7.56881 11.05C7.47548 11.0127 7.36348 10.994 7.23281 10.994L7.21881 11.036L7.20481 10.994C7.08348 10.994 6.98081 11.0127 6.89681 11.05C6.96215 11.0593 7.03681 11.092 7.12081 11.148C7.20481 11.204 7.26548 11.26 7.30281 11.316C7.23748 11.288 7.15348 11.274 7.05081 11.274C6.95748 11.2647 6.87815 11.2787 6.81281 11.316ZM7.30281 12.184C7.30281 12.184 7.29348 12.1793 7.27481 12.17C7.28415 12.3567 7.31215 12.5713 7.35881 12.814C7.41481 13.0567 7.46148 13.2107 7.49881 13.276C7.48948 13.1827 7.49881 13.0707 7.52681 12.94C7.55481 12.8 7.60148 12.6927 7.66681 12.618C7.65748 12.6927 7.66215 12.7813 7.68081 12.884C7.78348 12.8747 7.89548 12.8327 8.01681 12.758C8.02615 12.6553 8.02148 12.562 8.00281 12.478C8.04948 12.534 8.08681 12.604 8.11481 12.688C8.20815 12.6227 8.27815 12.5527 8.32481 12.478C8.25015 12.4407 8.15215 12.4173 8.03081 12.408C7.90948 12.3987 7.80681 12.408 7.72281 12.436C7.76015 12.3613 7.82548 12.2867 7.91881 12.212C8.02148 12.128 8.11015 12.0767 8.18481 12.058C8.10081 12.086 7.99348 12.0953 7.86281 12.086C7.73215 12.0673 7.62948 12.0347 7.55481 11.988C7.63881 11.96 7.73215 11.904 7.83481 11.82C7.93748 11.736 8.00748 11.6567 8.04481 11.582C7.94215 11.6473 7.81148 11.6847 7.65281 11.694C7.49415 11.7033 7.36348 11.6893 7.26081 11.652C7.29815 11.6427 7.34015 11.6333 7.38681 11.624C7.29348 11.5773 7.18148 11.554 7.05081 11.554C6.92948 11.5447 6.82681 11.554 6.74281 11.582C6.80815 11.5913 6.88281 11.624 6.96681 11.68C7.06015 11.736 7.12548 11.792 7.16281 11.848C7.09748 11.82 7.01348 11.806 6.91081 11.806C6.80815 11.806 6.72415 11.82 6.65881 11.848C6.74281 11.848 6.83615 11.876 6.93881 11.932C7.04148 11.9787 7.13481 12.0347 7.21881 12.1C7.23748 12.0067 7.26081 11.9413 7.28881 11.904C7.27015 11.9507 7.26548 12.0347 7.27481 12.156L7.30281 12.184ZM6.57481 12.114C6.63081 12.198 6.71481 12.2773 6.82681 12.352C6.94815 12.4267 7.05081 12.4687 7.13481 12.478C7.15348 12.3473 7.17681 12.2353 7.20481 12.142C7.10215 12.1047 6.99015 12.0813 6.86881 12.072C6.75681 12.0627 6.65881 12.0767 6.57481 12.114ZM6.64481 12.534C6.81281 12.5993 6.95748 12.6927 7.07881 12.814C7.08815 12.7113 7.10215 12.6087 7.12081 12.506C6.97148 12.5527 6.81281 12.562 6.64481 12.534ZM6.51881 12.954C6.61215 13.0007 6.69615 13.0567 6.77081 13.122C6.80815 13.038 6.83615 12.9493 6.85481 12.856C6.73348 12.8467 6.61681 12.8513 6.50481 12.87C6.50481 12.898 6.50948 12.926 6.51881 12.954ZM8.43681 12.856C8.43681 12.856 8.43215 12.856 8.42281 12.856C8.41348 12.856 8.39015 12.87 8.35281 12.898C8.35281 12.9073 8.35281 12.9213 8.35281 12.94C8.38081 12.912 8.40881 12.884 8.43681 12.856ZM6.98081 12.87C7.01815 12.954 7.04148 13.0427 7.05081 13.136C7.05081 13.0707 7.05548 12.9867 7.06481 12.884C7.03681 12.884 7.00881 12.8793 6.98081 12.87ZM6.33681 12.898C6.33681 12.898 6.34148 12.9027 6.35081 12.912C6.36015 12.912 6.38815 12.9167 6.43481 12.926C6.44415 12.9073 6.45348 12.8887 6.46281 12.87C6.52815 12.8607 6.58881 12.856 6.64481 12.856C6.70081 12.8467 6.71015 12.8467 6.67281 12.856C6.64481 12.8653 6.53281 12.8793 6.33681 12.898ZM7.83481 13.276C7.90015 13.192 7.95148 13.0847 7.98881 12.954C7.85815 12.954 7.75548 12.9353 7.68081 12.898C7.70881 13.0567 7.76015 13.1827 7.83481 13.276ZM6.67281 13.276L6.70081 13.234C6.67281 13.2247 6.64948 13.22 6.63081 13.22C6.64015 13.2387 6.65415 13.2573 6.67281 13.276ZM8.70281 15.446C8.60948 15.558 8.52548 15.712 8.45081 15.908C8.37615 16.104 8.34815 16.2673 8.36681 16.398C8.46015 16.2487 8.53948 16.09 8.60481 15.922C8.67015 15.7447 8.70281 15.586 8.70281 15.446ZM5.91681 15.446C5.93548 15.502 5.97281 15.5813 6.02881 15.684C6.08481 15.7867 6.15481 15.8987 6.23881 16.02C6.15481 15.768 6.04748 15.5767 5.91681 15.446Z" fill="#888888"/>
<path d="M16.5578 19.898C16.5671 20.0287 16.5391 20.178 16.4738 20.346C16.4085 20.514 16.3291 20.64 16.2358 20.724C16.2825 20.6027 16.2965 20.4533 16.2778 20.276C16.2591 20.108 16.2171 19.9633 16.1518 19.842C16.1331 19.9913 16.0585 20.15 15.9278 20.318C15.7971 20.4953 15.6665 20.612 15.5358 20.668C15.5825 20.5373 15.5871 20.3647 15.5498 20.15C15.5218 19.9353 15.4705 19.772 15.3958 19.66C15.2278 19.6973 15.0551 19.8 14.8778 19.968C14.7005 20.1453 14.5791 20.3087 14.5138 20.458C14.4578 20.3087 14.4345 20.108 14.4438 19.856C14.4531 19.6133 14.4951 19.4173 14.5698 19.268C14.4205 19.2867 14.2478 19.3473 14.0518 19.45C13.8558 19.5527 13.7111 19.66 13.6178 19.772C13.6085 19.632 13.6318 19.4547 13.6878 19.24C13.7438 19.0253 13.8185 18.8573 13.9118 18.736C13.7905 18.848 13.6225 18.9413 13.4078 19.016C13.2025 19.1 13.0205 19.1467 12.8618 19.156C13.0018 19.0813 13.1371 18.9507 13.2678 18.764C13.4078 18.5773 13.4965 18.4047 13.5338 18.246C13.3938 18.1807 13.2118 18.148 12.9878 18.148C12.7638 18.148 12.5865 18.1853 12.4558 18.26C12.5305 18.12 12.6471 17.98 12.8058 17.84C12.9738 17.7 13.1325 17.6067 13.2818 17.56C13.3378 17.476 13.3798 17.364 13.4078 17.224C13.4451 17.084 13.4638 16.9487 13.4638 16.818L13.4498 16.846C13.4311 16.7713 13.4265 16.6827 13.4358 16.58C13.4265 16.524 13.4125 16.4727 13.3938 16.426C13.4125 16.4353 13.4311 16.4447 13.4498 16.454C13.5058 16.1273 13.6131 15.8567 13.7718 15.642C13.5851 15.5953 13.3518 15.586 13.0718 15.614C12.8011 15.6327 12.5865 15.698 12.4278 15.81C12.5025 15.6327 12.6285 15.4413 12.8058 15.236C12.9925 15.0307 13.1791 14.8953 13.3658 14.83C13.2445 14.746 13.0765 14.6947 12.8618 14.676C12.6471 14.648 12.4698 14.6527 12.3298 14.69C12.4045 14.5687 12.5305 14.452 12.7078 14.34C12.8945 14.2187 13.0578 14.144 13.1978 14.116C13.1231 14.0693 13.0251 14.0413 12.9038 14.032C12.7918 14.0227 12.6891 14.0273 12.5958 14.046C12.6705 13.99 12.7591 13.9433 12.8618 13.906C12.9738 13.8593 13.0765 13.836 13.1698 13.836C13.0671 13.8267 12.9411 13.7893 12.7918 13.724C12.6425 13.6587 12.5351 13.584 12.4698 13.5C12.5725 13.5 12.6938 13.4533 12.8338 13.36C12.9738 13.2667 13.0718 13.178 13.1278 13.094C12.9878 13.1127 12.8198 13.08 12.6238 12.996C12.4278 12.912 12.2785 12.814 12.1758 12.702C12.3158 12.73 12.4885 12.716 12.6938 12.66C12.8991 12.5947 13.0578 12.5153 13.1698 12.422C13.0765 12.2633 12.9131 12.114 12.6798 11.974C12.4465 11.834 12.2365 11.7547 12.0498 11.736C12.2085 11.6427 12.4185 11.5773 12.6798 11.54C12.9505 11.4933 13.1745 11.4933 13.3518 11.54C13.3425 11.456 13.3005 11.344 13.2258 11.204C13.1511 11.064 13.0811 10.966 13.0158 10.91C13.0905 10.8633 13.2025 10.826 13.3518 10.798C13.5105 10.7607 13.6318 10.756 13.7158 10.784C13.6131 10.6627 13.5151 10.4947 13.4218 10.28C13.3285 10.0653 13.2911 9.88333 13.3098 9.734C13.4218 9.83667 13.5851 9.93467 13.7998 10.028C14.0145 10.1213 14.1965 10.1587 14.3458 10.14C14.3738 10.0187 14.3738 9.874 14.3458 9.706C14.3271 9.538 14.2805 9.40267 14.2058 9.3C14.3271 9.34667 14.4485 9.43067 14.5698 9.552C14.6911 9.67333 14.7705 9.79467 14.8078 9.916C14.9198 9.776 15.0038 9.57533 15.0598 9.314C15.1251 9.04333 15.1298 8.824 15.0738 8.656C15.2231 8.74933 15.3725 8.908 15.5218 9.132C15.6805 9.34667 15.7738 9.54267 15.8018 9.72C15.9325 9.636 16.0491 9.49133 16.1518 9.286C16.2545 9.07133 16.3151 8.88933 16.3338 8.74C16.4458 8.84266 16.5345 9.01066 16.5998 9.244C16.6651 9.468 16.6838 9.65467 16.6558 9.804C16.7865 9.79467 16.9405 9.734 17.1178 9.622C17.3045 9.51 17.4351 9.40733 17.5098 9.314C17.5471 9.37933 17.5751 9.47267 17.5938 9.594C17.6218 9.706 17.6358 9.818 17.6358 9.93C17.7011 9.678 17.7991 9.49133 17.9298 9.37C17.9018 9.50067 17.9158 9.664 17.9718 9.86C18.0278 10.056 18.0978 10.2053 18.1818 10.308C18.2005 10.2333 18.2051 10.1213 18.1958 9.972C18.1865 9.82267 18.1585 9.71067 18.1118 9.636C18.1958 9.62667 18.3078 9.64533 18.4478 9.692C18.5971 9.73867 18.6998 9.79467 18.7558 9.86C18.8678 9.748 18.9705 9.58 19.0638 9.356C19.1665 9.132 19.2225 8.94067 19.2318 8.782C19.3158 8.866 19.3998 8.98733 19.4838 9.146C19.5678 9.29533 19.6285 9.44467 19.6658 9.594C19.6565 9.41667 19.6705 9.23467 19.7078 9.048C19.7451 8.86133 19.8058 8.70733 19.8898 8.586C19.8431 8.77267 19.8385 8.992 19.8758 9.244C19.9131 9.496 19.9831 9.70133 20.0858 9.86C20.2165 9.72933 20.3238 9.54267 20.4078 9.3C20.4918 9.05733 20.5291 8.84733 20.5198 8.67C20.6411 8.81 20.7438 9.00133 20.8278 9.244C20.9118 9.47733 20.9491 9.68733 20.9398 9.874C21.0985 9.97667 21.3178 10.0467 21.5978 10.084C21.8778 10.1213 22.1111 10.1167 22.2978 10.07C22.1858 10.2287 22.0085 10.3827 21.7658 10.532C21.5231 10.672 21.3038 10.7513 21.1078 10.77C21.2291 10.7793 21.3785 10.8353 21.5558 10.938C21.7425 11.0407 21.8731 11.1387 21.9478 11.232C21.8265 11.2413 21.6725 11.2973 21.4858 11.4C21.3085 11.5027 21.1825 11.6053 21.1078 11.708C21.2851 11.6893 21.4951 11.7313 21.7378 11.834C21.9805 11.9273 22.1625 12.0347 22.2838 12.156C22.1158 12.128 21.9105 12.1653 21.6678 12.268C21.4251 12.3707 21.2385 12.478 21.1078 12.59C21.2198 12.5807 21.3505 12.6133 21.4998 12.688C21.6585 12.7533 21.7751 12.8233 21.8498 12.898C21.7471 12.9073 21.6165 12.94 21.4578 12.996C21.2991 13.052 21.1825 13.122 21.1078 13.206C21.1731 13.2807 21.2665 13.36 21.3878 13.444C21.5185 13.5187 21.6305 13.5607 21.7238 13.57C21.6678 13.6447 21.5745 13.7193 21.4438 13.794C21.3131 13.8687 21.2058 13.9153 21.1218 13.934C21.2431 14.074 21.4345 14.1953 21.6958 14.298C21.9571 14.3913 22.1811 14.4333 22.3678 14.424C22.2651 14.5267 22.1251 14.6247 21.9478 14.718C21.7798 14.802 21.6118 14.8627 21.4438 14.9C21.6305 14.9 21.8218 14.928 22.0178 14.984C22.2231 15.0307 22.3865 15.1053 22.5078 15.208C22.3025 15.1707 22.0598 15.1753 21.7798 15.222C21.4998 15.2593 21.2805 15.348 21.1218 15.488C21.2245 15.628 21.4018 15.754 21.6538 15.866C21.9058 15.978 22.1205 16.0247 22.2978 16.006C22.1858 16.146 22.0038 16.2673 21.7518 16.37C21.5091 16.4727 21.2991 16.5287 21.1218 16.538C21.2991 16.5287 21.5045 16.58 21.7378 16.692C21.9805 16.804 22.1671 16.9253 22.2978 17.056C22.1205 17.028 21.9058 17.0513 21.6538 17.126C21.4018 17.21 21.2058 17.3127 21.0658 17.434C21.2151 17.434 21.3785 17.4853 21.5558 17.588C21.7425 17.6907 21.8778 17.8027 21.9618 17.924C21.8311 17.8587 21.6631 17.826 21.4578 17.826C21.2525 17.826 21.0798 17.8587 20.9398 17.924C21.0238 17.9613 21.1171 18.022 21.2198 18.106C21.3225 18.1993 21.3878 18.288 21.4158 18.372C21.3318 18.3253 21.2198 18.2973 21.0798 18.288C20.9491 18.2787 20.8418 18.2927 20.7578 18.33C20.8885 18.4047 21.0238 18.5167 21.1638 18.666C21.3038 18.8247 21.3878 18.9787 21.4158 19.128C21.3131 19.0253 21.1591 18.9367 20.9538 18.862C20.7578 18.7967 20.5851 18.778 20.4358 18.806C20.4358 18.974 20.4778 19.1747 20.5618 19.408C20.6551 19.6507 20.7625 19.8373 20.8838 19.968C20.7065 19.9493 20.5058 19.8793 20.2818 19.758C20.0578 19.6367 19.9038 19.506 19.8198 19.366C19.9131 19.506 19.9785 19.688 20.0158 19.912C20.0625 20.1453 20.0625 20.3413 20.0158 20.5C19.9691 20.3413 19.8665 20.1733 19.7078 19.996C19.5491 19.828 19.3951 19.702 19.2458 19.618C19.3111 19.758 19.3485 19.9307 19.3578 20.136C19.3765 20.3413 19.3578 20.5093 19.3018 20.64C19.2925 20.4907 19.2271 20.3273 19.1058 20.15C18.9938 19.982 18.8771 19.856 18.7558 19.772C18.6718 19.8187 18.5831 19.9213 18.4898 20.08C18.4058 20.248 18.3591 20.3787 18.3498 20.472C18.2565 20.444 18.1398 20.3693 17.9998 20.248C17.8691 20.1267 17.7851 20.0193 17.7478 19.926C17.6825 19.9913 17.6265 20.0847 17.5798 20.206C17.5425 20.3367 17.5285 20.444 17.5378 20.528C17.4818 20.472 17.3978 20.3787 17.2858 20.248C17.1738 20.1267 16.9311 20.01 16.5578 19.898ZM17.3138 14.368C17.2951 14.34 17.2811 14.2793 17.2718 14.186C17.2625 14.0833 17.2531 13.9853 17.2438 13.892C17.2345 13.7987 17.2345 13.7333 17.2438 13.696C17.2531 13.7333 17.2765 13.794 17.3138 13.878C17.3605 13.9527 17.4071 14.0273 17.4538 14.102C17.3978 14.0087 17.3745 13.9247 17.3838 13.85C17.4305 13.8967 17.4911 13.948 17.5658 14.004C17.6498 14.06 17.7291 14.088 17.8038 14.088C17.7945 14.0413 17.7571 13.9807 17.6918 13.906C17.6358 13.822 17.5845 13.766 17.5378 13.738C17.5845 13.7007 17.6498 13.6727 17.7338 13.654C17.8271 13.626 17.8925 13.612 17.9298 13.612C17.8551 13.612 17.7711 13.5933 17.6778 13.556C17.5845 13.5093 17.5098 13.458 17.4538 13.402C17.5285 13.4207 17.6171 13.416 17.7198 13.388C17.8318 13.3507 17.9205 13.304 17.9858 13.248C17.9111 13.248 17.8178 13.22 17.7058 13.164C17.6031 13.108 17.5285 13.052 17.4818 12.996C17.5565 12.9867 17.6451 12.954 17.7478 12.898C17.8505 12.8327 17.9205 12.7673 17.9578 12.702C17.9111 12.6647 17.8365 12.6413 17.7338 12.632C17.6405 12.6133 17.5658 12.6133 17.5098 12.632C17.5378 12.576 17.5845 12.52 17.6498 12.464C17.5285 12.52 17.4258 12.5433 17.3418 12.534C17.4071 12.4873 17.4585 12.4127 17.4958 12.31C17.5425 12.2073 17.5705 12.1187 17.5798 12.044C17.5705 12.1187 17.5331 12.2073 17.4678 12.31C17.4025 12.4033 17.3371 12.4733 17.2718 12.52C17.2998 12.4453 17.3091 12.352 17.2998 12.24C17.2998 12.1187 17.2811 12.0207 17.2438 11.946C17.1878 12.0113 17.1458 12.1 17.1178 12.212C17.0898 12.324 17.0851 12.4173 17.1038 12.492C17.0385 12.4267 16.9871 12.3427 16.9498 12.24C16.9498 12.3053 16.9451 12.366 16.9358 12.422C16.9171 12.3567 16.8751 12.2913 16.8098 12.226C16.7538 12.1513 16.6978 12.1 16.6418 12.072C16.6325 12.1187 16.6418 12.1747 16.6698 12.24C16.6978 12.3053 16.7305 12.352 16.7678 12.38C16.6558 12.3893 16.5485 12.3567 16.4458 12.282C16.4645 12.3473 16.5065 12.4173 16.5718 12.492C16.6465 12.5667 16.7071 12.618 16.7538 12.646C16.7165 12.674 16.6558 12.702 16.5718 12.73C16.4971 12.758 16.4271 12.772 16.3618 12.772C16.4365 12.7813 16.5158 12.8093 16.5998 12.856C16.6838 12.8933 16.7491 12.9353 16.7958 12.982C16.7211 12.9727 16.6278 12.982 16.5158 13.01C16.4131 13.038 16.3338 13.08 16.2778 13.136C16.3431 13.1267 16.4225 13.136 16.5158 13.164C16.6091 13.192 16.6791 13.2293 16.7258 13.276C16.6605 13.276 16.5811 13.2947 16.4878 13.332C16.4038 13.36 16.3385 13.3973 16.2918 13.444C16.3571 13.4253 16.4365 13.4253 16.5298 13.444C16.6325 13.4627 16.7118 13.4907 16.7678 13.528C16.6931 13.5373 16.6091 13.5607 16.5158 13.598C16.4318 13.6353 16.3711 13.682 16.3338 13.738C16.3711 13.7287 16.4225 13.7333 16.4878 13.752C16.5625 13.7613 16.6185 13.7753 16.6558 13.794C16.6185 13.8127 16.5765 13.85 16.5298 13.906C16.4925 13.962 16.4691 14.0133 16.4598 14.06C16.4971 13.9947 16.5578 13.9387 16.6418 13.892C16.7258 13.836 16.8098 13.7987 16.8938 13.78C16.9871 13.6307 17.0525 13.542 17.0898 13.514C17.0805 13.5513 17.0758 13.6353 17.0758 13.766C17.0851 13.8873 17.1085 14.0133 17.1458 14.144C17.1831 14.2653 17.2391 14.34 17.3138 14.368ZM16.6418 14.256C16.6511 14.228 16.6698 14.1813 16.6978 14.116C16.7351 14.0507 16.7771 13.9807 16.8238 13.906C16.7118 14.0273 16.6511 14.144 16.6418 14.256ZM17.9718 15.95C17.9531 15.9593 17.9345 15.9687 17.9158 15.978C17.9251 15.9873 17.9298 16.0013 17.9298 16.02C17.9485 15.992 17.9625 15.9687 17.9718 15.95ZM17.4398 16.174C17.4771 16.23 17.4958 16.3093 17.4958 16.412C17.5145 16.3467 17.5425 16.2813 17.5798 16.216C17.5331 16.1973 17.4865 16.1833 17.4398 16.174ZM17.6498 16.23L17.6078 16.3C17.5798 16.3373 17.5565 16.37 17.5378 16.398C17.5938 16.37 17.6498 16.328 17.7058 16.272C17.6871 16.2627 17.6685 16.2487 17.6498 16.23ZM14.6398 16.748C14.6865 16.8227 14.7285 16.916 14.7658 17.028C14.8031 17.1493 14.8171 17.252 14.8078 17.336C14.8358 17.308 14.8685 17.2707 14.9058 17.224C14.8871 17.0467 14.8731 16.8787 14.8638 16.72C14.8545 16.5613 14.8545 16.454 14.8638 16.398C14.8451 16.454 14.8031 16.5193 14.7378 16.594C14.6725 16.6593 14.6118 16.706 14.5558 16.734C14.5838 16.678 14.5931 16.6033 14.5838 16.51C14.5838 16.4073 14.5745 16.328 14.5558 16.272C14.4251 16.2907 14.2758 16.3327 14.1078 16.398C13.9398 16.4633 13.7905 16.5427 13.6598 16.636C13.7625 16.7387 13.8511 16.8553 13.9258 16.986C14.0098 17.1073 14.0611 17.224 14.0798 17.336C14.0518 17.2147 14.0565 17.07 14.0938 16.902C14.1311 16.734 14.1918 16.6033 14.2758 16.51C14.2478 16.6313 14.2525 16.776 14.2898 16.944C14.3271 17.112 14.3878 17.2427 14.4718 17.336C14.5278 17.2707 14.5698 17.1773 14.5978 17.056C14.6351 16.9347 14.6491 16.832 14.6398 16.748ZM17.2298 17.21C17.3138 17.266 17.3931 17.3547 17.4678 17.476C17.5985 17.5507 17.7245 17.5973 17.8458 17.616C17.7991 17.5227 17.7058 17.4247 17.5658 17.322C17.4351 17.2287 17.3185 17.1727 17.2158 17.154C17.2998 17.0887 17.4211 17.0327 17.5798 16.986C17.7385 16.9393 17.8691 16.9253 17.9718 16.944C17.9065 16.9253 17.8225 16.8693 17.7198 16.776C17.6265 16.6827 17.5518 16.5987 17.4958 16.524C17.4958 16.5613 17.4911 16.594 17.4818 16.622C17.4538 16.566 17.4025 16.51 17.3278 16.454C17.2625 16.3887 17.2018 16.3467 17.1458 16.328C17.1925 16.44 17.2065 16.5847 17.1878 16.762C17.1785 16.9393 17.1505 17.0793 17.1038 17.182C17.1225 17.21 17.1411 17.2333 17.1598 17.252C17.1878 17.28 17.2158 17.308 17.2438 17.336C17.2438 17.2987 17.2391 17.2567 17.2298 17.21ZM16.5718 17.182C16.5531 17.2473 16.5531 17.3453 16.5718 17.476C16.5905 17.6067 16.6185 17.6953 16.6558 17.742C16.6931 17.6487 16.7585 17.5507 16.8518 17.448C16.9545 17.3453 17.0431 17.2847 17.1178 17.266L17.0898 17.21C17.0898 17.1913 17.0898 17.182 17.0898 17.182L17.0758 17.14C17.0385 17.028 16.9731 16.9067 16.8798 16.776C16.7865 16.636 16.6931 16.538 16.5998 16.482C16.5345 16.5193 16.4551 16.5987 16.3618 16.72C16.2778 16.832 16.2265 16.9253 16.2078 17C16.1238 16.9627 16.0305 16.888 15.9278 16.776C15.9651 16.86 15.9931 16.9533 16.0118 17.056C16.0398 17.168 16.0445 17.2613 16.0258 17.336C16.0725 17.2987 16.1565 17.2613 16.2778 17.224C16.4085 17.1867 16.5065 17.1727 16.5718 17.182ZM15.7598 16.538C15.7131 16.5753 15.6385 16.6827 15.5358 16.86C15.6291 17.0373 15.6805 17.196 15.6898 17.336C15.7551 17.2613 15.8018 17.1587 15.8298 17.028C15.8578 16.8973 15.8671 16.79 15.8578 16.706C15.8018 16.6407 15.7691 16.5847 15.7598 16.538ZM17.0618 17.952C17.1458 17.8307 17.2018 17.672 17.2298 17.476C17.1925 17.42 17.1598 17.364 17.1318 17.308C17.0945 17.4013 17.0665 17.5087 17.0478 17.63C17.0291 17.7607 17.0338 17.868 17.0618 17.952Z" fill="#888888"/>
</svg>
