<svg width="24" height="24" viewBox="0 0 24 24" fill="none" xmlns="http://www.w3.org/2000/svg">
<path d="M12.8462 16.244L12.9442 16.524H12.7062L12.7342 16.594C12.7342 16.6033 12.7342 16.6173 12.7342 16.636C12.7436 16.6453 12.7482 16.6547 12.7482 16.664H12.6642V16.692C12.6642 16.804 12.6222 16.888 12.5382 16.944H12.5522C12.5056 16.9813 12.4449 17 12.3702 17H9.78024C9.7149 17 9.65891 16.9953 9.61224 16.986C9.5749 16.9673 9.53291 16.9533 9.48624 16.944C9.41157 16.9067 9.35557 16.8647 9.31824 16.818C9.28091 16.762 9.2529 16.7107 9.23424 16.664H9.30424V16.65L9.27624 16.594L9.24824 16.524H9.48624L9.38824 16.244H9.12224L9.08024 16.104H9.65424L9.55624 15.824H9.38824L9.34624 15.726H6.33624L6.30824 15.824H6.14024L6.04224 16.104H5.88824L5.83224 16.244H5.74824L5.65024 16.524H5.66424L5.63624 16.594L5.62224 16.65L5.60824 16.664H5.53824C5.51957 16.7107 5.49157 16.762 5.45424 16.818C5.41691 16.8647 5.36091 16.9067 5.28624 16.944H5.70624C5.66891 16.9533 5.62691 16.9673 5.58024 16.986C5.53357 16.9953 5.47757 17 5.41224 17H2.82224C2.74757 17 2.69157 16.9813 2.65424 16.944H2.23424C2.1409 16.8787 2.09424 16.7947 2.09424 16.692V16.664H2.17824C2.17824 16.636 2.1829 16.6127 2.19224 16.594L2.20624 16.524H2.19224L2.29024 16.244H2.37424L2.43024 16.104H2.58424L2.68224 15.824H2.83624L2.93424 15.544H2.38824L2.44424 15.404H2.40224L2.47224 15.194H2.61224L2.64024 15.124H2.33224L2.43024 14.844H2.90624L2.94824 14.704H2.51424L2.54224 14.634H2.61224L2.71024 14.354H2.66824L2.73824 14.144H2.79424L2.89224 13.864H3.07424L3.14424 13.654L3.17224 13.584H3.87224L3.90024 13.514H3.85824L3.92824 13.304H3.14424L3.24224 13.024H3.49424L3.52224 12.954H3.36824L3.39624 12.884H3.84424L3.94224 12.604H3.39624L3.45224 12.464H3.66224L3.76024 12.184H3.63424L3.70424 11.974H3.85824L3.95624 11.694H3.91424L3.94224 11.624H3.62024L3.67624 11.484H3.98424L4.05424 11.274H3.91424L3.92824 11.204H4.18024L4.27824 10.924H3.97024L4.04024 10.714H3.88624L3.92824 10.574H2.96224L3.00424 10.434H2.82224L2.92024 10.154H2.73824L2.82224 9.944H3.36824L3.46624 9.664H4.86624L4.93624 9.454H4.26424L4.32024 9.314H4.83824L4.93624 9.034H4.47424L4.54424 8.824H4.83824L4.93624 8.544H4.89424L4.99224 8.264H4.60024L4.61424 8.194H5.95824L6.05624 7.914H6.01424L6.04224 7.844H5.55224L5.60824 7.662L5.65024 7.564H5.79024L5.87424 7.424H5.83224C5.87891 7.35867 5.94424 7.30733 6.02824 7.27C6.11224 7.22333 6.2149 7.2 6.33624 7.2H9.37424C9.49557 7.2 9.59824 7.22333 9.68224 7.27C9.76624 7.30733 9.83157 7.35867 9.87824 7.424H9.93424L10.0182 7.564H9.87824C9.8969 7.60133 9.90624 7.634 9.90624 7.662L9.97624 7.844H10.4662L10.4802 7.914H10.5222L10.6202 8.194H9.29024L9.31824 8.264H9.71024L9.80824 8.544H9.85024L9.94824 8.824H9.65424L9.72424 9.034H10.1862L10.2842 9.314H9.76624L9.82224 9.454H10.4942L10.5642 9.664H9.16424L9.26224 9.944H8.71624L8.78624 10.154H8.95424L9.05224 10.434H8.50624L8.56224 10.574H10.7882L10.8302 10.714H10.7182L10.7882 10.924H10.5082L10.6062 11.204H10.2702L10.2842 11.274H10.7882L10.8582 11.484H10.8722L10.9282 11.624H10.4662L10.4942 11.694H10.9422L11.0402 11.974H11.1942L11.2642 12.184H11.2222L11.3202 12.464H11.5442L11.6002 12.604H11.1942L11.2922 12.884H11.5722L11.5862 12.954H11.5162L11.5442 13.024H11.2922L11.3762 13.304H12.1742L12.2442 13.514H12.2862L12.3142 13.584H11.6002L11.6282 13.654H11.6422L11.7122 13.864H11.5302L11.6282 14.144H11.5582L11.6422 14.354H11.6842L11.7822 14.634H11.7122L11.7402 14.704H12.1742L12.2302 14.844H11.7402L11.8382 15.124H12.1462L12.1742 15.194H12.0342L12.1182 15.404H12.1462L12.2022 15.544H12.7482L12.8462 15.824H13.0142L13.1122 16.104H12.5382L12.5802 16.244H12.8462ZM6.99424 10.714H7.16224L7.09224 10.924H7.66624L7.59624 10.714H7.70824L7.66624 10.574H7.03624L6.99424 10.714ZM7.45624 11.204L7.38624 10.966L7.31624 11.204H7.45624ZM6.61624 12.884L6.58824 12.954H6.74224L6.72824 12.996H8.31024L8.29624 12.954H8.36624L8.35224 12.884H8.07224L7.98824 12.604H8.39424L8.35224 12.464H8.11424L8.03024 12.184H8.07224L8.01624 11.974H7.86224L7.77824 11.694H7.33024L7.30224 11.624H7.76424L7.72224 11.484H7.70824L7.63824 11.274H7.19024L7.13424 11.484H6.82624L6.78424 11.624H7.09224L7.07824 11.694H7.12024L7.03624 11.974H6.88224L6.81224 12.184H6.93824L6.85424 12.464H6.64424L6.60224 12.604H7.14824L7.06424 12.884H6.61624Z" fill="#888888"/>
<path d="M21.3592 16.734H21.8072V16.944H21.4572V17.014H21.5552C21.5459 17.0513 21.5412 17.084 21.5412 17.112C21.5412 17.1493 21.5366 17.1867 21.5272 17.224H21.5132V17.294H20.8552C20.8459 17.3127 20.8412 17.336 20.8412 17.364C20.8412 17.392 20.8366 17.4153 20.8272 17.434H21.6392C21.6299 17.4807 21.6206 17.5273 21.6112 17.574C21.6019 17.6207 21.5926 17.6673 21.5832 17.714H21.3592C21.3499 17.7513 21.3406 17.784 21.3312 17.812C21.3219 17.8493 21.3079 17.8867 21.2892 17.924H20.8272L20.7712 18.064H21.0092L20.9532 18.204H20.9812C20.9626 18.2507 20.9392 18.2973 20.9112 18.344H20.9252L20.7992 18.554C20.7899 18.5633 20.7806 18.5727 20.7712 18.582C20.7712 18.5913 20.7666 18.6053 20.7572 18.624C20.7386 18.6613 20.7152 18.694 20.6872 18.722C20.6592 18.7593 20.6312 18.7967 20.6032 18.834H20.5752L20.5052 18.904H20.7712L20.6452 19.044H20.3232C20.2952 19.0627 20.2672 19.086 20.2392 19.114C20.2112 19.142 20.1879 19.1653 20.1692 19.184H20.5472C20.5099 19.2213 20.4632 19.254 20.4072 19.282C20.3606 19.3193 20.3139 19.3567 20.2672 19.394H20.7712C20.7152 19.4313 20.6546 19.464 20.5892 19.492C20.5332 19.5293 20.4726 19.5667 20.4072 19.604H20.2672C20.2206 19.632 20.1692 19.6553 20.1132 19.674C20.0572 19.702 20.0059 19.7253 19.9592 19.744H19.1612C18.9839 19.8093 18.8019 19.8653 18.6152 19.912C18.4286 19.9587 18.2372 19.996 18.0412 20.024H18.8672C18.7272 20.0427 18.5826 20.0567 18.4332 20.066C18.2839 20.0753 18.1346 20.08 17.9852 20.08C17.8266 20.08 17.6679 20.0753 17.5092 20.066C17.3599 20.0567 17.2152 20.0427 17.0752 20.024H16.2492C15.8292 19.968 15.4419 19.8747 15.0872 19.744H15.8852C15.8292 19.7253 15.7732 19.702 15.7172 19.674C15.6612 19.6553 15.6052 19.632 15.5492 19.604H15.6892C15.6239 19.5667 15.5586 19.5293 15.4932 19.492C15.4279 19.464 15.3626 19.4313 15.2972 19.394H14.8072C14.7512 19.3567 14.6952 19.3193 14.6392 19.282C14.5926 19.254 14.5459 19.2213 14.4992 19.184H14.1212C14.0466 19.128 13.9906 19.0813 13.9532 19.044H14.2752C14.2472 19.0253 14.2192 19.002 14.1912 18.974C14.1632 18.946 14.1399 18.9227 14.1212 18.904H13.8552C13.8459 18.8853 13.8366 18.8713 13.8272 18.862C13.8179 18.8527 13.8039 18.8433 13.7852 18.834H13.8272C13.7899 18.7967 13.7572 18.7593 13.7292 18.722C13.7012 18.694 13.6732 18.6613 13.6452 18.624H13.6312C13.6219 18.6053 13.6032 18.582 13.5752 18.554H13.5892C13.5612 18.5167 13.5332 18.4793 13.5052 18.442C13.4772 18.414 13.4539 18.3813 13.4352 18.344L13.3512 18.204H13.3232C13.3139 18.1853 13.3046 18.162 13.2952 18.134C13.2859 18.106 13.2719 18.0827 13.2532 18.064H13.0152L12.9592 17.924H13.4352C13.4259 17.8867 13.4119 17.8493 13.3932 17.812C13.3839 17.784 13.3746 17.7513 13.3652 17.714H13.2812C13.2812 17.686 13.2766 17.658 13.2672 17.63C13.2672 17.6113 13.2672 17.5927 13.2672 17.574C13.2672 17.5087 13.2719 17.462 13.2812 17.434H13.2392C13.2672 17.378 13.2999 17.3313 13.3372 17.294H13.2532C13.3092 17.2567 13.3512 17.2333 13.3792 17.224H13.5612C13.6172 17.2053 13.6686 17.196 13.7152 17.196H16.4452C16.4919 17.196 16.5432 17.2053 16.5992 17.224H16.4032C16.4499 17.2333 16.4872 17.2567 16.5152 17.294H16.5992C16.6366 17.3313 16.6692 17.378 16.6972 17.434H16.7392L16.7672 17.476C16.8326 17.588 16.8932 17.6673 16.9492 17.714H17.0192C17.1219 17.7887 17.2619 17.826 17.4392 17.826C17.5792 17.826 17.7006 17.7887 17.8032 17.714H18.0272C18.1112 17.6487 18.1719 17.5553 18.2092 17.434H17.3972C17.4159 17.378 17.4252 17.3313 17.4252 17.294H18.0832C18.0926 17.2753 18.0972 17.252 18.0972 17.224H18.1112C18.1206 17.1867 18.1252 17.1493 18.1252 17.112C18.1252 17.084 18.1252 17.0513 18.1252 17.014H18.0412V16.944H18.3772V16.734H17.9292V16.664H17.6632V16.594H17.9152V16.314H17.6492V16.23L17.5092 16.314H17.4952C17.2712 16.4447 17.0286 16.538 16.7672 16.594H16.8232C16.7486 16.6033 16.6739 16.6173 16.5992 16.636C16.5246 16.6453 16.4452 16.6547 16.3612 16.664H16.0112C15.9552 16.6733 15.8992 16.678 15.8432 16.678C15.7872 16.678 15.7312 16.678 15.6752 16.678C15.6099 16.678 15.5446 16.678 15.4792 16.678C15.4139 16.678 15.3532 16.6733 15.2972 16.664H15.6332C15.5492 16.6547 15.4652 16.6453 15.3812 16.636C15.2972 16.6173 15.2132 16.6033 15.1292 16.594H15.0872C14.9472 16.566 14.8119 16.5287 14.6812 16.482C14.5599 16.4353 14.4386 16.3793 14.3172 16.314H14.3312C14.2939 16.2953 14.2566 16.2767 14.2192 16.258C14.1819 16.23 14.1446 16.202 14.1072 16.174H14.4292C14.3732 16.1273 14.3172 16.0807 14.2612 16.034C14.2146 15.9873 14.1679 15.9407 14.1212 15.894H12.9872L12.9172 15.824H13.5612C13.4866 15.7307 13.4212 15.6373 13.3652 15.544H13.5472C13.4819 15.4507 13.4306 15.3573 13.3932 15.264H13.3652C13.3186 15.1613 13.2812 15.068 13.2532 14.984H12.2312C12.2312 14.9653 12.2312 14.9513 12.2312 14.942C12.2219 14.9327 12.2172 14.9233 12.2172 14.914H13.1692L13.1272 14.774H13.1972C13.1879 14.7273 13.1739 14.6807 13.1552 14.634C13.1459 14.5873 13.1366 14.5407 13.1272 14.494H13.2952L13.2532 14.214H13.0712L13.0572 14.074H12.7212C12.7119 14.0273 12.7072 13.9807 12.7072 13.934C12.7072 13.8873 12.7026 13.8407 12.6932 13.794H12.5672C12.5672 13.7567 12.5672 13.724 12.5672 13.696C12.5579 13.6587 12.5532 13.6213 12.5532 13.584H12.7492V13.444H13.0012C13.0012 13.4067 12.9966 13.374 12.9872 13.346C12.9872 13.3087 12.9872 13.2713 12.9872 13.234H13.1132V13.024H12.8892C12.8892 12.9867 12.8892 12.954 12.8892 12.926C12.8892 12.8887 12.8939 12.8513 12.9032 12.814H12.9312V12.8C12.9312 12.7627 12.9312 12.73 12.9312 12.702C12.9406 12.674 12.9452 12.6413 12.9452 12.604H13.0012C13.0106 12.5667 13.0152 12.534 13.0152 12.506C13.0152 12.4687 13.0199 12.4313 13.0292 12.394C13.0386 12.3753 13.0432 12.352 13.0432 12.324C13.0432 12.296 13.0479 12.2727 13.0572 12.254H12.9872V12.184H13.0712C13.0806 12.1373 13.0899 12.0907 13.0992 12.044C13.1086 11.988 13.1179 11.9413 13.1272 11.904H13.1132C13.1226 11.8667 13.1319 11.834 13.1412 11.806C13.1506 11.7687 13.1599 11.7313 13.1692 11.694H13.2812C13.2999 11.6473 13.3139 11.6007 13.3232 11.554C13.3419 11.498 13.3606 11.4513 13.3792 11.414H13.4492L13.4772 11.344H13.2812C13.2906 11.3253 13.2999 11.302 13.3092 11.274C13.3186 11.246 13.3279 11.2227 13.3372 11.204L13.4212 10.994C13.4306 10.9753 13.4352 10.9613 13.4352 10.952C13.4446 10.9427 13.4539 10.9333 13.4632 10.924L13.5052 10.854C13.5239 10.8353 13.5379 10.812 13.5472 10.784C13.5659 10.756 13.5846 10.7327 13.6032 10.714C13.6126 10.6953 13.6219 10.6813 13.6312 10.672C13.6406 10.6627 13.6499 10.6533 13.6592 10.644H13.6312L13.7992 10.434C13.8272 10.4153 13.8506 10.392 13.8692 10.364C13.8972 10.336 13.9206 10.3127 13.9392 10.294H13.9672C13.9766 10.2753 13.9859 10.2613 13.9952 10.252C14.0139 10.2427 14.0279 10.2333 14.0372 10.224H14.1912C14.2472 10.168 14.3079 10.1213 14.3732 10.084H14.0232C14.0606 10.056 14.0979 10.0327 14.1352 10.014C14.1726 9.986 14.2099 9.96267 14.2472 9.944H14.3452C14.4759 9.86933 14.6346 9.79933 14.8212 9.734H15.2832C15.6192 9.63133 15.9786 9.58 16.3612 9.58C16.6972 9.58 17.0099 9.63133 17.2992 9.734H16.8372C16.9866 9.78067 17.1359 9.85067 17.2852 9.944H17.2012C17.2386 9.96267 17.2712 9.986 17.2992 10.014C17.3366 10.0327 17.3739 10.056 17.4112 10.084H17.7472C17.7846 10.1027 17.8172 10.126 17.8452 10.154C17.8732 10.182 17.9012 10.2053 17.9292 10.224H17.7752L17.8452 10.294H17.8312L17.9572 10.434C17.9759 10.4433 17.9899 10.4573 17.9992 10.476C18.0179 10.4947 18.0319 10.5133 18.0412 10.532V10.434H18.0972V10.294H18.3352V10.224H18.4892V10.084H17.8032C17.8032 10.028 17.8172 9.98133 17.8452 9.944H18.0832C18.1299 9.832 18.2092 9.762 18.3212 9.734H18.0412C18.0692 9.72467 18.1066 9.72 18.1532 9.72H20.6032C20.6499 9.72 20.6826 9.72467 20.7012 9.734H20.9812C21.0932 9.762 21.1726 9.832 21.2192 9.944H20.9812C20.9999 10 21.0092 10.0467 21.0092 10.084H21.6952V10.224H21.5412V10.294H21.3032V10.434H21.2472V10.644H21.2612V10.854H21.2472V11.204H21.2612V11.344H21.4572V11.414H21.3732V11.694H21.2472L21.2612 11.904V12.254H21.2192V12.394H21.1772V12.604H21.2612V12.814H21.4292V13.024H21.1352V13.234H21.2332V13.444H21.2612V13.584H20.7992L20.8132 13.794H20.8692V14.074H21.1772V14.214H21.4292V14.494H21.2472V14.774H21.1912V14.914H20.2252V14.984H21.2472V15.264H21.2752V15.544H21.0792L21.0932 15.824H20.4492V15.894H21.5832V16.174H21.0792V16.314H21.3452V16.594H21.0932V16.664H21.3592V16.734ZM16.6412 14.074C16.7066 14.1393 16.7906 14.186 16.8932 14.214H17.0612C17.0986 14.2233 17.1359 14.2327 17.1732 14.242C17.2199 14.242 17.2619 14.242 17.2992 14.242C17.3459 14.242 17.3879 14.242 17.4252 14.242C17.4719 14.2327 17.5139 14.2233 17.5512 14.214H17.2992C17.4019 14.186 17.4859 14.1393 17.5512 14.074H17.2432C17.3179 13.9993 17.3692 13.906 17.3972 13.794H17.3412L17.3832 13.584H17.8312C17.8312 13.5653 17.8359 13.5513 17.8452 13.542V13.444H17.8172V13.234H17.7332V13.024H18.0132V12.814H17.8312V12.786C17.8312 12.7487 17.8266 12.716 17.8172 12.688C17.8172 12.66 17.8126 12.632 17.8032 12.604H17.7332C17.7239 12.5293 17.7006 12.4593 17.6632 12.394H17.6912C17.6632 12.338 17.6306 12.2913 17.5932 12.254H17.6352C17.5979 12.2167 17.5699 12.1933 17.5512 12.184C17.4579 12.1187 17.3226 12.086 17.1452 12.086C16.9679 12.086 16.8326 12.1187 16.7392 12.184H16.6552C16.6366 12.1933 16.6086 12.2167 16.5712 12.254H16.6412C16.6039 12.2913 16.5712 12.338 16.5432 12.394H16.5292C16.5199 12.422 16.5106 12.4547 16.5012 12.492C16.4919 12.52 16.4779 12.5573 16.4592 12.604H16.4032C16.3939 12.6413 16.3846 12.6787 16.3752 12.716C16.3752 12.744 16.3752 12.7767 16.3752 12.814H16.3332V12.898C16.3239 12.926 16.3192 12.968 16.3192 13.024H16.5432V13.234H16.4172C16.4172 13.2713 16.4172 13.3087 16.4172 13.346C16.4266 13.374 16.4312 13.402 16.4312 13.43V13.444H16.1792L16.1932 13.584H15.9972L16.0392 13.794H16.1652C16.1932 13.906 16.2446 13.9993 16.3192 14.074H16.6412ZM18.0272 16.174H18.1532V16.076L18.0272 16.174Z" fill="#888888"/>
</svg>
