<svg width="24" height="24" viewBox="0 0 24 24" fill="none" xmlns="http://www.w3.org/2000/svg">
<path d="M2.4164 17C2.3324 17 2.25773 16.972 2.1924 16.916C2.1364 16.8507 2.1084 16.776 2.1084 16.692C2.1084 16.6547 2.11307 16.622 2.1224 16.594L5.2444 7.662C5.2724 7.55933 5.33773 7.45667 5.4404 7.354C5.54307 7.25133 5.68773 7.2 5.8744 7.2H8.9124C9.09907 7.2 9.24373 7.25133 9.3464 7.354C9.44907 7.45667 9.5144 7.55933 9.5424 7.662L12.6644 16.594C12.6737 16.622 12.6784 16.6547 12.6784 16.692C12.6784 16.776 12.6457 16.8507 12.5804 16.916C12.5244 16.972 12.4544 17 12.3704 17H9.7804C9.60307 17 9.4724 16.9627 9.3884 16.888C9.31373 16.804 9.2624 16.7247 9.2344 16.65L8.8984 15.726H5.8884L5.5524 16.65C5.5244 16.7247 5.47307 16.804 5.3984 16.888C5.32373 16.9627 5.19307 17 5.0064 17H2.4164ZM6.6024 12.996H8.1844L7.3864 10.392L6.6024 12.996ZM17.2994 20.08C16.506 20.08 15.8434 19.9773 15.3114 19.772C14.7887 19.576 14.3687 19.3333 14.0514 19.044C13.734 18.764 13.5054 18.484 13.3654 18.204C13.2254 17.9333 13.1507 17.7233 13.1414 17.574C13.132 17.4713 13.1647 17.3827 13.2394 17.308C13.3234 17.2333 13.4167 17.196 13.5194 17.196H16.2494C16.352 17.196 16.4314 17.2193 16.4874 17.266C16.5527 17.322 16.604 17.392 16.6414 17.476C16.688 17.5507 16.7347 17.616 16.7814 17.672C16.828 17.728 16.884 17.7653 16.9494 17.784C17.024 17.812 17.1174 17.826 17.2294 17.826C17.3694 17.826 17.4814 17.7933 17.5654 17.728C17.6587 17.672 17.724 17.5833 17.7614 17.462C17.808 17.3407 17.8314 17.1867 17.8314 17V16.076C17.6167 16.2627 17.3554 16.412 17.0474 16.524C16.7394 16.6267 16.38 16.678 15.9694 16.678C15.5307 16.678 15.134 16.622 14.7794 16.51C14.4247 16.398 14.1214 16.2207 13.8694 15.978C13.6174 15.726 13.4167 15.3993 13.2674 14.998C13.118 14.5967 13.0294 14.102 13.0014 13.514C12.992 13.2713 12.992 13.0333 13.0014 12.8C13.0294 12.2493 13.1134 11.7733 13.2534 11.372C13.4027 10.9613 13.6034 10.6253 13.8554 10.364C14.1167 10.1027 14.4247 9.90667 14.7794 9.776C15.134 9.64533 15.5307 9.58 15.9694 9.58C16.4267 9.58 16.828 9.66867 17.1734 9.846C17.528 10.0233 17.8174 10.252 18.0414 10.532V10.098C18.0414 9.99533 18.0787 9.90667 18.1534 9.832C18.228 9.75733 18.3167 9.72 18.4194 9.72H20.8694C20.9721 9.72 21.0607 9.75733 21.1354 9.832C21.21 9.90667 21.2474 9.99533 21.2474 10.098L21.2614 16.762C21.2614 17.546 21.084 18.1807 20.7294 18.666C20.3747 19.1513 19.8987 19.506 19.3014 19.73C18.704 19.9633 18.0367 20.08 17.2994 20.08ZM17.1314 14.242C17.29 14.242 17.416 14.214 17.5094 14.158C17.612 14.102 17.6867 14.0227 17.7334 13.92C17.7894 13.8173 17.822 13.6913 17.8314 13.542C17.8407 13.4673 17.8454 13.3413 17.8454 13.164C17.8454 12.9773 17.8407 12.8513 17.8314 12.786C17.822 12.6367 17.7894 12.5107 17.7334 12.408C17.6867 12.3053 17.612 12.226 17.5094 12.17C17.416 12.114 17.29 12.086 17.1314 12.086C16.9634 12.086 16.828 12.1187 16.7254 12.184C16.632 12.2493 16.562 12.3427 16.5154 12.464C16.478 12.5853 16.45 12.73 16.4314 12.898C16.4127 13.0753 16.4127 13.2527 16.4314 13.43C16.45 13.598 16.478 13.7427 16.5154 13.864C16.562 13.9853 16.632 14.0787 16.7254 14.144C16.828 14.2093 16.9634 14.242 17.1314 14.242Z" fill="#888888"/>
</svg>
