<svg width="24" height="24" viewBox="0 0 24 24" fill="none" xmlns="http://www.w3.org/2000/svg">
<path d="M1.45953 17C1.35686 17 1.2822 16.958 1.23553 16.874C1.18886 16.7807 1.19353 16.6873 1.24953 16.594L6.26153 7.662C6.31753 7.55933 6.4062 7.45667 6.52753 7.354C6.64886 7.25133 6.80286 7.2 6.98953 7.2H10.0975C10.2842 7.2 10.4149 7.25133 10.4895 7.354C10.5735 7.45667 10.6202 7.55933 10.6295 7.662L11.8615 16.594C11.8802 16.7153 11.8475 16.8133 11.7635 16.888C11.6795 16.9627 11.5862 17 11.4835 17H8.96353C8.7862 17 8.66486 16.9627 8.59953 16.888C8.54353 16.804 8.5062 16.7247 8.48753 16.65L8.34753 15.726H5.33753L4.80553 16.65C4.75886 16.7247 4.68886 16.804 4.59553 16.888C4.51153 16.9627 4.3762 17 4.18953 17H1.45953ZM6.62553 12.996H8.20753L7.96953 10.392L6.62553 12.996ZM16.0019 20.08C15.2459 20.08 14.6206 19.9773 14.1259 19.772C13.6313 19.576 13.2393 19.3333 12.9499 19.044C12.6699 18.764 12.4786 18.484 12.3759 18.204C12.2639 17.9333 12.2173 17.7233 12.2359 17.574C12.2546 17.4713 12.3106 17.3827 12.4039 17.308C12.4973 17.2333 12.5953 17.196 12.6979 17.196H15.4279C15.5306 17.196 15.6053 17.2193 15.6519 17.266C15.6986 17.322 15.7313 17.392 15.7499 17.476C15.7779 17.5507 15.8106 17.616 15.8479 17.672C15.8853 17.728 15.9366 17.7653 16.0019 17.784C16.0673 17.812 16.1559 17.826 16.2679 17.826C16.4079 17.826 16.5246 17.7933 16.6179 17.728C16.7206 17.672 16.8093 17.5833 16.8839 17.462C16.9586 17.3407 17.0146 17.1867 17.0519 17L17.2479 16.076C16.9866 16.2627 16.7113 16.412 16.4219 16.524C16.1419 16.6267 15.7966 16.678 15.3859 16.678C14.9473 16.678 14.5553 16.622 14.2099 16.51C13.8739 16.398 13.5939 16.2207 13.3699 15.978C13.1553 15.726 13.0059 15.3993 12.9219 14.998C12.8473 14.5967 12.8566 14.102 12.9499 13.514C12.9779 13.374 13.0013 13.2573 13.0199 13.164C13.0386 13.0613 13.0666 12.94 13.1039 12.8C13.2533 12.2493 13.4353 11.7733 13.6499 11.372C13.8739 10.9613 14.1306 10.6253 14.4199 10.364C14.7093 10.1027 15.0359 9.90667 15.3999 9.776C15.7733 9.64533 16.1793 9.58 16.6179 9.58C17.0753 9.58 17.4813 9.66867 17.8359 9.846C18.1906 10.0233 18.4519 10.252 18.6199 10.532L18.7179 10.098C18.7366 9.99533 18.7926 9.90667 18.8859 9.832C18.9793 9.75733 19.0773 9.72 19.1799 9.72H21.6299C21.7326 9.72 21.8119 9.75733 21.8679 9.832C21.9239 9.90667 21.9426 9.99533 21.9239 10.098L20.5239 16.762C20.4026 17.35 20.2066 17.854 19.9359 18.274C19.6746 18.694 19.3479 19.0347 18.9559 19.296C18.5639 19.5667 18.1206 19.7627 17.6259 19.884C17.1313 20.0147 16.5899 20.08 16.0019 20.08ZM16.9259 14.242C17.0846 14.242 17.2199 14.214 17.3319 14.158C17.4439 14.102 17.5326 14.0227 17.5979 13.92C17.6726 13.8173 17.7333 13.6913 17.7799 13.542C17.7986 13.4673 17.8266 13.3413 17.8639 13.164C17.9013 12.9773 17.9246 12.8513 17.9339 12.786C17.9526 12.6367 17.9479 12.5107 17.9199 12.408C17.8919 12.3053 17.8359 12.226 17.7519 12.17C17.6679 12.114 17.5466 12.086 17.3879 12.086C17.2199 12.086 17.0799 12.1187 16.9679 12.184C16.8559 12.2493 16.7626 12.3427 16.6879 12.464C16.6226 12.5853 16.5666 12.73 16.5199 12.898C16.5013 12.9633 16.4779 13.052 16.4499 13.164C16.4313 13.2667 16.4173 13.3553 16.4079 13.43C16.3893 13.598 16.3846 13.7427 16.3939 13.864C16.4126 13.9853 16.4639 14.0787 16.5479 14.144C16.6319 14.2093 16.7579 14.242 16.9259 14.242Z" fill="#888888"/>
</svg>
