<svg width="24" height="24" viewBox="0 0 24 24" fill="none" xmlns="http://www.w3.org/2000/svg">
<path d="M2.87086 17C2.79619 17 2.72619 16.972 2.66086 16.916C2.60486 16.86 2.57686 16.79 2.57686 16.706L2.60486 16.58L5.97886 7.55C6.04419 7.31667 6.20753 7.2 6.46886 7.2H7.99486C8.23753 7.2 8.40086 7.31667 8.48486 7.55L11.8589 16.58C11.8682 16.608 11.8729 16.65 11.8729 16.706C11.8729 16.79 11.8449 16.86 11.7889 16.916C11.7329 16.972 11.6675 17 11.5929 17H10.3749C10.2535 17 10.1602 16.972 10.0949 16.916C10.0295 16.86 9.98753 16.7993 9.96886 16.734L9.31086 15.026H5.15286L4.49486 16.734C4.42019 16.9113 4.28486 17 4.08886 17H2.87086ZM8.82086 13.416L7.22486 9.09L5.64286 13.416H8.82086ZM16.2062 20.08C15.3755 20.08 14.7035 19.94 14.1902 19.66C13.6769 19.3893 13.3129 19.0767 13.0982 18.722C12.8835 18.3673 12.7762 18.064 12.7762 17.812C12.7762 17.728 12.8089 17.6533 12.8742 17.588C12.9489 17.5227 13.0282 17.49 13.1122 17.49H14.3302C14.4142 17.49 14.4842 17.5087 14.5402 17.546C14.6055 17.5927 14.6569 17.672 14.6942 17.784C14.7875 18.036 14.9369 18.246 15.1422 18.414C15.3569 18.5913 15.6882 18.68 16.1362 18.68C16.6962 18.68 17.1069 18.554 17.3682 18.302C17.6389 18.05 17.7742 17.616 17.7742 17V16.048C17.2609 16.6547 16.5422 16.958 15.6182 16.958C14.6475 16.958 13.9149 16.6593 13.4202 16.062C12.9349 15.4647 12.6735 14.662 12.6362 13.654L12.6222 13.276L12.6362 12.898C12.6735 11.9087 12.9395 11.1107 13.4342 10.504C13.9289 9.888 14.6569 9.58 15.6182 9.58C16.1129 9.58 16.5469 9.67333 16.9202 9.86C17.2935 10.0467 17.6062 10.3033 17.8582 10.63V10.07C17.8582 9.96733 17.8909 9.88333 17.9562 9.818C18.0215 9.75267 18.1009 9.72 18.1942 9.72H19.3282C19.4215 9.72 19.5009 9.75733 19.5662 9.832C19.6315 9.89733 19.6642 9.97667 19.6642 10.07L19.6782 16.818C19.6782 17.854 19.3889 18.6567 18.8102 19.226C18.2315 19.7953 17.3635 20.08 16.2062 20.08ZM16.1362 15.474C16.6682 15.474 17.0649 15.306 17.3262 14.97C17.5969 14.634 17.7462 14.2233 17.7742 13.738C17.7835 13.6633 17.7882 13.5093 17.7882 13.276C17.7882 13.052 17.7835 12.9027 17.7742 12.828C17.7462 12.3333 17.5969 11.918 17.3262 11.582C17.0649 11.246 16.6682 11.078 16.1362 11.078C15.1282 11.078 14.5962 11.6987 14.5402 12.94L14.5262 13.276C14.5262 13.9387 14.6429 14.4707 14.8762 14.872C15.1189 15.2733 15.5389 15.474 16.1362 15.474Z" fill="#333333"/>
</svg>
