<svg width="24" height="24" viewBox="0 0 24 24" fill="none" xmlns="http://www.w3.org/2000/svg">
<path d="M2.70614 17C2.62214 17 2.55214 16.972 2.49614 16.916C2.44014 16.8507 2.41214 16.7807 2.41214 16.706C2.41214 16.6593 2.41681 16.6173 2.42614 16.58L5.75814 7.578C5.78614 7.47533 5.84214 7.38667 5.92614 7.312C6.01014 7.23733 6.12681 7.2 6.27614 7.2H8.06814C8.21747 7.2 8.33414 7.23733 8.41814 7.312C8.50214 7.38667 8.55814 7.47533 8.58614 7.578L11.9181 16.58C11.9275 16.6173 11.9321 16.6593 11.9321 16.706C11.9321 16.7807 11.9041 16.8507 11.8481 16.916C11.7921 16.972 11.7221 17 11.6381 17H10.1821C10.0421 17 9.93947 16.9673 9.87414 16.902C9.80881 16.8367 9.76681 16.776 9.74814 16.72L9.14614 15.152H5.19814L4.59614 16.72C4.57747 16.776 4.53547 16.8367 4.47014 16.902C4.40481 16.9673 4.30214 17 4.16214 17H2.70614ZM5.71614 13.346H8.61414L7.17214 9.314L5.71614 13.346ZM16.3039 20.08C15.6132 20.08 15.0392 19.9867 14.5819 19.8C14.1245 19.6227 13.7605 19.4033 13.4899 19.142C13.2285 18.89 13.0419 18.638 12.9299 18.386C12.8179 18.134 12.7572 17.938 12.7479 17.798C12.7385 17.6953 12.7712 17.6113 12.8459 17.546C12.9205 17.4807 13.0045 17.448 13.0979 17.448H14.5959C14.6799 17.448 14.7499 17.4667 14.8059 17.504C14.8712 17.5507 14.9225 17.6253 14.9599 17.728C15.0065 17.84 15.0719 17.9567 15.1559 18.078C15.2399 18.2087 15.3659 18.316 15.5339 18.4C15.7112 18.484 15.9445 18.526 16.2339 18.526C16.5605 18.526 16.8312 18.4793 17.0459 18.386C17.2605 18.2927 17.4192 18.134 17.5219 17.91C17.6339 17.686 17.6899 17.3827 17.6899 17V16.062C17.4659 16.3047 17.1812 16.5053 16.8359 16.664C16.4999 16.8227 16.0845 16.902 15.5899 16.902C15.1045 16.902 14.6752 16.8273 14.3019 16.678C13.9379 16.5193 13.6345 16.3 13.3919 16.02C13.1492 15.7307 12.9625 15.3853 12.8319 14.984C12.7012 14.5827 12.6265 14.13 12.6079 13.626C12.5985 13.374 12.5985 13.1267 12.6079 12.884C12.6265 12.3987 12.7012 11.9553 12.8319 11.554C12.9625 11.1527 13.1492 10.8073 13.3919 10.518C13.6345 10.2193 13.9379 9.99067 14.3019 9.832C14.6752 9.664 15.1045 9.58 15.5899 9.58C16.1032 9.58 16.5419 9.678 16.9059 9.874C17.2699 10.07 17.5685 10.3127 17.8019 10.602V10.07C17.8019 9.97667 17.8345 9.89733 17.8999 9.832C17.9652 9.75733 18.0445 9.72 18.1379 9.72H19.5099C19.6032 9.72 19.6825 9.75733 19.7479 9.832C19.8225 9.89733 19.8599 9.97667 19.8599 10.07L19.8739 16.804C19.8739 17.504 19.7385 18.0967 19.4679 18.582C19.1972 19.0673 18.7959 19.436 18.2639 19.688C17.7412 19.9493 17.0879 20.08 16.3039 20.08ZM16.2339 15.264C16.5699 15.264 16.8405 15.1893 17.0459 15.04C17.2605 14.8813 17.4192 14.6853 17.5219 14.452C17.6245 14.2093 17.6805 13.9573 17.6899 13.696C17.6992 13.5933 17.7039 13.4487 17.7039 13.262C17.7039 13.066 17.6992 12.9167 17.6899 12.814C17.6805 12.5527 17.6245 12.3053 17.5219 12.072C17.4192 11.8293 17.2605 11.6333 17.0459 11.484C16.8405 11.3347 16.5699 11.26 16.2339 11.26C15.8792 11.26 15.5992 11.3393 15.3939 11.498C15.1885 11.6473 15.0392 11.848 14.9459 12.1C14.8525 12.352 14.7965 12.6273 14.7779 12.926C14.7685 13.15 14.7685 13.3693 14.7779 13.584C14.7965 13.892 14.8525 14.172 14.9459 14.424C15.0392 14.676 15.1885 14.8813 15.3939 15.04C15.5992 15.1893 15.8792 15.264 16.2339 15.264Z" fill="#888888"/>
</svg>
