<svg width="24" height="24" viewBox="0 0 24 24" fill="none" xmlns="http://www.w3.org/2000/svg">
<path d="M2.4164 17C2.3324 17 2.25773 16.972 2.1924 16.916C2.1364 16.8507 2.1084 16.776 2.1084 16.692C2.1084 16.6547 2.11307 16.622 2.1224 16.594L5.2444 7.662C5.28173 7.54067 5.35173 7.43333 5.4544 7.34C5.55707 7.24667 5.69707 7.2 5.8744 7.2H8.9124C9.08973 7.2 9.22973 7.24667 9.3324 7.34C9.43507 7.43333 9.50507 7.54067 9.5424 7.662L12.6644 16.594C12.6737 16.622 12.6784 16.6547 12.6784 16.692C12.6784 16.776 12.6457 16.8507 12.5804 16.916C12.5244 16.972 12.4544 17 12.3704 17H9.7804C9.5004 17 9.3184 16.8833 9.2344 16.65L8.8984 15.726H5.8884L5.5524 16.65C5.4684 16.8833 5.2864 17 5.0064 17H2.4164ZM8.1844 12.996L7.3864 10.392L6.6024 12.996H8.1844ZM17.2994 20.08C16.3287 20.08 15.5307 19.9213 14.9054 19.604C14.2894 19.296 13.8414 18.9413 13.5614 18.54C13.2814 18.1387 13.1414 17.8073 13.1414 17.546C13.1414 17.4527 13.1787 17.3687 13.2534 17.294C13.328 17.2287 13.4167 17.196 13.5194 17.196H16.2494C16.352 17.196 16.4314 17.2193 16.4874 17.266C16.5434 17.3127 16.5947 17.3827 16.6414 17.476C16.7067 17.6067 16.7814 17.6953 16.8654 17.742C16.9494 17.798 17.0707 17.826 17.2294 17.826C17.6307 17.826 17.8314 17.5507 17.8314 17V16.076C17.374 16.4773 16.7534 16.678 15.9694 16.678C15.0454 16.678 14.336 16.4353 13.8414 15.95C13.3467 15.4553 13.0667 14.6433 13.0014 13.514L12.9874 13.15C12.9874 11.9553 13.244 11.064 13.7574 10.476C14.28 9.87867 15.0174 9.58 15.9694 9.58C16.408 9.58 16.8047 9.66867 17.1594 9.846C17.514 10.014 17.808 10.2427 18.0414 10.532V10.098C18.0414 9.99533 18.0787 9.90667 18.1534 9.832C18.228 9.75733 18.3167 9.72 18.4194 9.72H20.8694C20.9721 9.72 21.0607 9.75733 21.1354 9.832C21.21 9.90667 21.2474 9.99533 21.2474 10.098L21.2614 16.762C21.2614 17.882 20.8974 18.7127 20.1694 19.254C19.4414 19.8047 18.4847 20.08 17.2994 20.08ZM17.1314 14.242C17.3647 14.242 17.5327 14.186 17.6354 14.074C17.7474 13.9527 17.8127 13.7753 17.8314 13.542C17.8407 13.4953 17.8454 13.3693 17.8454 13.164C17.8454 12.7907 17.794 12.52 17.6914 12.352C17.598 12.1747 17.4114 12.086 17.1314 12.086C16.8887 12.086 16.716 12.156 16.6134 12.296C16.5107 12.4267 16.45 12.6273 16.4314 12.898L16.4174 13.164C16.4174 13.528 16.464 13.7987 16.5574 13.976C16.66 14.1533 16.8514 14.242 17.1314 14.242Z" fill="#333333"/>
</svg>
