<svg width="24" height="24" viewBox="0 0 24 24" fill="none" xmlns="http://www.w3.org/2000/svg">
<path d="M3.8753 17L6.5773 7.158H9.4333L12.1353 17H9.8673L9.1113 13.864L10.3293 14.816H5.6813L6.8993 13.864L6.1433 17H3.8753ZM6.8573 13.92L6.1013 12.968H9.9093L9.1533 13.92L7.8233 8.25L9.0273 9.202H6.9833L8.1873 8.25L6.8573 13.92ZM15.9327 19.506C15.5034 19.506 15.088 19.4827 14.6867 19.436C14.2854 19.3893 13.926 19.3333 13.6087 19.268C13.2914 19.2027 13.0394 19.1467 12.8527 19.1C12.666 19.0533 12.5727 19.03 12.5727 19.03L12.8107 17.378C13.4827 17.4807 14.15 17.574 14.8127 17.658C15.4847 17.742 16.1147 17.784 16.7027 17.784C17.02 17.784 17.2347 17.7653 17.3467 17.728C17.468 17.7 17.5287 17.644 17.5287 17.56C17.5287 17.5227 17.5054 17.4853 17.4587 17.448C17.4214 17.42 17.328 17.3733 17.1787 17.308C17.0294 17.252 16.7914 17.1633 16.4647 17.042C16.138 16.93 15.6947 16.7713 15.1347 16.566C14.7427 16.426 14.458 16.3187 14.2807 16.244C14.1034 16.1693 13.9914 16.1133 13.9447 16.076C13.898 16.0293 13.8747 15.9873 13.8747 15.95C13.8747 15.866 13.9027 15.74 13.9587 15.572C14.0147 15.3947 14.0754 15.2127 14.1407 15.026C14.2154 14.83 14.2807 14.6667 14.3367 14.536C14.3927 14.4053 14.4207 14.34 14.4207 14.34C13.7767 14.116 13.2774 13.78 12.9227 13.332C12.5774 12.884 12.4047 12.3053 12.4047 11.596C12.4047 10.84 12.582 10.2427 12.9367 9.804C13.2914 9.36533 13.7627 9.05267 14.3507 8.866C14.9387 8.67933 15.5734 8.586 16.2547 8.586C16.4507 8.586 16.698 8.59067 16.9967 8.6C17.2954 8.60933 17.6034 8.62333 17.9207 8.642C18.2474 8.66067 18.5554 8.67933 18.8447 8.698C19.134 8.71667 19.3674 8.73067 19.5447 8.74C19.722 8.74933 19.8107 8.754 19.8107 8.754V10.014L18.9427 10.154C18.9427 10.154 18.9707 10.2287 19.0267 10.378C19.092 10.5273 19.1527 10.7233 19.2087 10.966C19.2647 11.1993 19.2927 11.4513 19.2927 11.722C19.2927 12.2447 19.1527 12.7207 18.8727 13.15C18.5927 13.5793 18.1867 13.92 17.6547 14.172C17.1227 14.424 16.474 14.5547 15.7087 14.564C15.7087 14.564 15.704 14.606 15.6947 14.69C15.6854 14.774 15.6807 14.8253 15.6807 14.844C15.6807 14.8813 15.7367 14.9233 15.8487 14.97C15.9607 15.0073 16.124 15.0633 16.3387 15.138C16.5627 15.2127 16.8287 15.3107 17.1367 15.432C17.734 15.6653 18.2054 15.8893 18.5507 16.104C18.9054 16.3093 19.1574 16.524 19.3067 16.748C19.456 16.972 19.5307 17.2193 19.5307 17.49C19.5307 17.9287 19.3767 18.2973 19.0687 18.596C18.7607 18.8947 18.336 19.1187 17.7947 19.268C17.2534 19.4267 16.6327 19.506 15.9327 19.506ZM15.8627 12.982C16.2454 12.982 16.5394 12.94 16.7447 12.856C16.9594 12.772 17.104 12.618 17.1787 12.394C17.2627 12.1607 17.3047 11.8387 17.3047 11.428C17.3047 11.1293 17.286 10.8727 17.2487 10.658C17.2207 10.4433 17.1787 10.308 17.1227 10.252C17.0947 10.224 17.0387 10.2007 16.9547 10.182C16.88 10.1633 16.7867 10.154 16.6747 10.154C16.572 10.1447 16.4647 10.14 16.3527 10.14C16.2407 10.1307 16.138 10.126 16.0447 10.126C15.6247 10.126 15.2934 10.1587 15.0507 10.224C14.8174 10.28 14.6494 10.4107 14.5467 10.616C14.444 10.812 14.3927 11.12 14.3927 11.54C14.3927 12.1093 14.4954 12.492 14.7007 12.688C14.906 12.884 15.2934 12.982 15.8627 12.982Z" fill="#888888"/>
</svg>
