<svg width="24" height="24" viewBox="0 0 24 24" fill="none" xmlns="http://www.w3.org/2000/svg">
<path d="M4.17739 16L6.86539 6.186H9.39939L12.0874 16H10.0994L9.35739 12.92L10.3934 13.704H5.87139L6.90739 12.92L6.15139 16H4.17739ZM6.89339 12.92L6.23539 12.08H10.0294L9.37139 12.92L7.97139 7.124L9.03539 7.95H7.22939L8.29339 7.124L6.89339 12.92ZM15.7663 18.506C15.3557 18.506 14.959 18.4827 14.5763 18.436C14.1937 18.3987 13.853 18.3473 13.5543 18.282C13.265 18.2167 13.0317 18.1607 12.8543 18.114C12.6863 18.0767 12.6023 18.058 12.6023 18.058L12.8123 16.574C13.4377 16.6673 14.0677 16.756 14.7023 16.84C15.337 16.924 15.939 16.966 16.5083 16.966C16.8817 16.966 17.1337 16.9427 17.2643 16.896C17.4043 16.8493 17.4743 16.77 17.4743 16.658C17.4743 16.602 17.451 16.5507 17.4043 16.504C17.367 16.4573 17.2737 16.3967 17.1243 16.322C16.9843 16.2567 16.765 16.168 16.4663 16.056C16.1677 15.944 15.7617 15.79 15.2483 15.594C14.819 15.426 14.5063 15.3047 14.3103 15.23C14.1143 15.146 13.9883 15.0853 13.9323 15.048C13.8857 15.0107 13.8623 14.9733 13.8623 14.936C13.8623 14.8707 13.8903 14.7587 13.9463 14.6C14.0023 14.4413 14.063 14.2733 14.1283 14.096C14.203 13.9093 14.2683 13.746 14.3243 13.606C14.3897 13.4567 14.4317 13.3633 14.4503 13.326C13.8157 13.13 13.3163 12.8033 12.9523 12.346C12.5977 11.8887 12.4203 11.31 12.4203 10.61C12.4203 9.854 12.5883 9.25667 12.9243 8.818C13.2697 8.37933 13.7223 8.07133 14.2823 7.894C14.8423 7.70733 15.449 7.614 16.1023 7.614C16.289 7.614 16.527 7.61867 16.8163 7.628C17.1057 7.63733 17.4043 7.65133 17.7123 7.67C18.0203 7.68867 18.3097 7.70733 18.5803 7.726C18.851 7.74467 19.0703 7.75867 19.2383 7.768C19.4063 7.77733 19.4903 7.782 19.4903 7.782V8.888L18.6083 9.028C18.6083 9.028 18.641 9.112 18.7063 9.28C18.7717 9.43867 18.8323 9.64867 18.8883 9.91C18.9537 10.162 18.9863 10.4233 18.9863 10.694C18.9863 11.2167 18.851 11.6927 18.5803 12.122C18.319 12.542 17.9317 12.878 17.4183 13.13C16.9143 13.3727 16.303 13.4987 15.5843 13.508C15.575 13.5547 15.561 13.634 15.5423 13.746C15.5237 13.858 15.5143 13.928 15.5143 13.956C15.5143 13.984 15.561 14.0213 15.6543 14.068C15.757 14.1053 15.911 14.1613 16.1163 14.236C16.331 14.3107 16.6017 14.4133 16.9283 14.544C17.507 14.768 17.9597 14.9873 18.2863 15.202C18.6223 15.4167 18.8603 15.636 19.0003 15.86C19.1403 16.0747 19.2103 16.308 19.2103 16.56C19.2103 16.98 19.061 17.3347 18.7623 17.624C18.473 17.9133 18.067 18.1327 17.5443 18.282C17.031 18.4313 16.4383 18.506 15.7663 18.506ZM15.7103 12.08C16.1023 12.08 16.4103 12.038 16.6343 11.954C16.8583 11.8607 17.0123 11.6973 17.0963 11.464C17.1897 11.2307 17.2363 10.8993 17.2363 10.47C17.2363 10.106 17.213 9.80267 17.1663 9.56C17.129 9.31733 17.0823 9.17267 17.0263 9.126C17.0077 9.098 16.947 9.07467 16.8443 9.056C16.751 9.03733 16.639 9.028 16.5083 9.028C16.387 9.01867 16.2703 9.014 16.1583 9.014C16.0463 9.00467 15.953 9 15.8783 9C15.4583 9 15.1223 9.03733 14.8703 9.112C14.6277 9.18667 14.4503 9.336 14.3383 9.56C14.2263 9.77467 14.1703 10.106 14.1703 10.554C14.1703 11.1513 14.2823 11.5573 14.5063 11.772C14.7303 11.9773 15.1317 12.08 15.7103 12.08Z" fill="#888888"/>
</svg>
