<svg width="24" height="24" viewBox="0 0 24 24" fill="none" xmlns="http://www.w3.org/2000/svg">
<path d="M4.48113 16L7.12713 6.27H8.77913L11.4251 16H10.2211L9.56313 13.424H6.34313L5.68513 16H4.48113ZM6.59513 12.388H9.31113L8.00913 7.306H7.89713L6.59513 12.388ZM14.8301 18.506C14.3354 18.506 13.8828 18.4733 13.4721 18.408C13.0614 18.3427 12.7348 18.2773 12.4921 18.212C12.2588 18.156 12.1421 18.128 12.1421 18.128L12.2821 17.078C12.8048 17.1713 13.3414 17.2507 13.8921 17.316C14.4428 17.3907 14.9748 17.428 15.4881 17.428C16.0108 17.428 16.3608 17.386 16.5381 17.302C16.7154 17.218 16.8041 17.0873 16.8041 16.91C16.8041 16.77 16.7621 16.644 16.6781 16.532C16.5941 16.4293 16.4214 16.3127 16.1601 16.182C15.9081 16.0513 15.5301 15.8787 15.0261 15.664C14.4941 15.44 14.1068 15.2813 13.8641 15.188C13.6308 15.0853 13.4814 15.02 13.4161 14.992C13.3601 14.9547 13.3321 14.922 13.3321 14.894C13.3321 14.8847 13.3694 14.782 13.4441 14.586C13.5281 14.39 13.6214 14.1707 13.7241 13.928C13.8361 13.676 13.9294 13.4613 14.0041 13.284C13.3881 13.1627 12.8888 12.864 12.5061 12.388C12.1328 11.912 11.9461 11.3333 11.9461 10.652C11.9461 9.88667 12.0954 9.28933 12.3941 8.86C12.6928 8.43067 13.0848 8.12733 13.5701 7.95C14.0648 7.76333 14.5968 7.67 15.1661 7.67C15.4088 7.67 15.6934 7.67933 16.0201 7.698C16.3561 7.71667 16.6828 7.73533 17.0001 7.754C17.3174 7.77267 17.5834 7.79133 17.7981 7.81C18.0128 7.82867 18.1201 7.838 18.1201 7.838V8.58L17.1961 8.72C17.1961 8.71067 17.2334 8.80867 17.3081 9.014C17.3921 9.21 17.4714 9.45733 17.5461 9.756C17.6301 10.0453 17.6721 10.33 17.6721 10.61C17.6721 11.142 17.5554 11.618 17.3221 12.038C17.0888 12.4487 16.7528 12.7753 16.3141 13.018C15.8754 13.2513 15.3481 13.368 14.7321 13.368C14.7041 13.5173 14.6714 13.6947 14.6341 13.9C14.5968 14.096 14.5781 14.2127 14.5781 14.25C14.5781 14.2687 14.6061 14.2967 14.6621 14.334C14.7274 14.362 14.8488 14.4133 15.0261 14.488C15.2128 14.5533 15.4834 14.6653 15.8381 14.824C16.3794 15.048 16.7948 15.2673 17.0841 15.482C17.3734 15.6967 17.5741 15.9067 17.6861 16.112C17.7981 16.3173 17.8541 16.5227 17.8541 16.728C17.8541 17.2973 17.5741 17.736 17.0141 18.044C16.4541 18.352 15.7261 18.506 14.8301 18.506ZM14.8021 12.36C15.4274 12.36 15.8754 12.2387 16.1461 11.996C16.4168 11.7533 16.5521 11.282 16.5521 10.582C16.5521 10.05 16.5194 9.62533 16.4541 9.308C16.3888 8.98133 16.3281 8.804 16.2721 8.776C16.2534 8.75733 16.1741 8.74333 16.0341 8.734C15.8941 8.71533 15.7401 8.706 15.5721 8.706C15.4041 8.69667 15.2548 8.692 15.1241 8.692C15.0028 8.68267 14.9421 8.678 14.9421 8.678C14.5034 8.678 14.1441 8.72933 13.8641 8.832C13.5934 8.93467 13.3928 9.12133 13.2621 9.392C13.1408 9.66267 13.0801 10.0593 13.0801 10.582C13.0801 11.2727 13.2108 11.744 13.4721 11.996C13.7428 12.2387 14.1861 12.36 14.8021 12.36Z" fill="#333333"/>
</svg>
