<svg width="24" height="24" viewBox="0 0 24 24" fill="none" xmlns="http://www.w3.org/2000/svg">
<path d="M5.8877 16.1865C5.8877 15.8356 5.87858 15.4847 5.86035 15.1338C5.84668 14.7829 5.83073 14.432 5.8125 14.0811C5.79427 13.7256 5.77604 13.3701 5.75781 13.0146C5.74414 12.6546 5.7373 12.29 5.7373 11.9209C5.7373 11.5335 5.7487 11.1416 5.77148 10.7451C5.79883 10.3441 5.84896 9.95898 5.92188 9.58984C5.99479 9.21615 6.09505 8.86751 6.22266 8.54395C6.35026 8.21582 6.5166 7.93099 6.72168 7.68945C6.92676 7.44792 7.17741 7.25651 7.47363 7.11523C7.76986 6.97396 8.11849 6.90332 8.51953 6.90332C8.90234 6.90332 9.23503 6.96484 9.51758 7.08789C9.80013 7.20638 10.0394 7.37044 10.2354 7.58008C10.4359 7.78971 10.5977 8.03581 10.7207 8.31836C10.8483 8.60091 10.9463 8.90625 11.0146 9.23438C11.0876 9.5625 11.1377 9.9043 11.165 10.2598C11.1924 10.6152 11.2061 10.9684 11.2061 11.3193C11.2061 11.4105 11.2038 11.4902 11.1992 11.5586C11.1992 11.627 11.1969 11.7021 11.1924 11.7842C11.1924 11.8617 11.1878 11.9551 11.1787 12.0645C11.1742 12.1738 11.1673 12.3174 11.1582 12.4951C11.1491 12.6683 11.1377 12.8825 11.124 13.1377C11.1149 13.3929 11.1035 13.7074 11.0898 14.0811C11.0762 14.4548 11.0602 14.8968 11.042 15.4072C11.0238 15.9131 11.0055 16.5055 10.9873 17.1846L8.94336 17.1094C9.02083 16.5898 9.08919 16.0703 9.14844 15.5508C9.21224 15.0267 9.26465 14.5391 9.30566 14.0879C8.95475 14.0605 8.62891 14.0469 8.32812 14.0469C8.17318 14.0469 8.02734 14.0492 7.89062 14.0537C7.75391 14.0583 7.63314 14.0651 7.52832 14.0742C7.54199 14.3112 7.55794 14.5618 7.57617 14.8262C7.5944 15.0905 7.61491 15.3571 7.6377 15.626C7.66048 15.8949 7.68555 16.1615 7.71289 16.4258C7.74023 16.6855 7.77214 16.9339 7.80859 17.1709L5.87402 17.2256C5.88314 17.057 5.8877 16.8861 5.8877 16.7129C5.8877 16.5352 5.8877 16.3597 5.8877 16.1865ZM7.44629 12.6318C7.58301 12.641 7.71745 12.6455 7.84961 12.6455C7.98177 12.6455 8.11165 12.6455 8.23926 12.6455C8.72689 12.6455 9.11882 12.6318 9.41504 12.6045C9.44238 12.2809 9.46973 11.9551 9.49707 11.627C9.52897 11.2988 9.54492 10.9479 9.54492 10.5742C9.54492 9.78581 9.46289 9.18652 9.29883 8.77637C9.13932 8.36165 8.90234 8.1543 8.58789 8.1543C8.41471 8.1543 8.25521 8.21582 8.10938 8.33887C7.96354 8.46191 7.83594 8.65332 7.72656 8.91309C7.62174 9.16829 7.53743 9.49186 7.47363 9.88379C7.41439 10.2757 7.38477 10.7383 7.38477 11.2715C7.38477 11.4583 7.38932 11.6589 7.39844 11.873C7.41211 12.0827 7.42806 12.3356 7.44629 12.6318ZM17.3652 9.34375C17.3424 9.61263 17.3197 9.89062 17.2969 10.1777C17.2786 10.4603 17.2604 10.7451 17.2422 11.0322C17.224 11.3148 17.208 11.5951 17.1943 11.873C17.1852 12.1465 17.1761 12.4062 17.167 12.6523C17.1442 13.2357 17.1283 13.8076 17.1191 14.3682C17.0918 14.9059 17.0758 15.4391 17.0713 15.9678C17.0713 16.4919 17.0553 16.9909 17.0234 17.4648C16.9915 17.9434 16.93 18.3854 16.8389 18.791C16.7523 19.2012 16.6087 19.5544 16.4082 19.8506C16.2077 20.1514 15.9365 20.3861 15.5947 20.5547C15.2575 20.7233 14.8223 20.8076 14.2891 20.8076C13.8835 20.8076 13.5599 20.7484 13.3184 20.6299C13.0814 20.516 12.8991 20.3747 12.7715 20.2061C12.6484 20.042 12.5664 19.8665 12.5254 19.6797C12.4889 19.4928 12.4707 19.3265 12.4707 19.1807C12.4707 19.0257 12.4935 18.8799 12.5391 18.7432C12.5892 18.611 12.6576 18.4948 12.7441 18.3945C12.8307 18.2943 12.9355 18.2145 13.0586 18.1553C13.1862 18.096 13.3298 18.0664 13.4893 18.0664C13.6579 18.0664 13.806 18.0983 13.9336 18.1621C14.0658 18.2259 14.1751 18.3079 14.2617 18.4082C14.3529 18.513 14.4212 18.6292 14.4668 18.7568C14.5169 18.8844 14.542 19.012 14.542 19.1396C14.5329 19.2126 14.5146 19.2878 14.4873 19.3652C14.46 19.429 14.4189 19.4997 14.3643 19.5771C14.3141 19.6592 14.2367 19.7389 14.1318 19.8164C14.2367 19.8529 14.3346 19.8711 14.4258 19.8711C14.5443 19.8711 14.6696 19.8346 14.8018 19.7617C14.9339 19.6934 15.0547 19.584 15.1641 19.4336C15.2734 19.2832 15.3646 19.0941 15.4375 18.8662C15.5104 18.6383 15.5514 18.3672 15.5605 18.0527L15.5879 16.1592C15.4102 16.46 15.2279 16.6947 15.041 16.8633C14.8587 17.0273 14.6924 17.1481 14.542 17.2256C14.3643 17.3167 14.1956 17.3714 14.0361 17.3896C13.8037 17.3896 13.569 17.3236 13.332 17.1914C13.0951 17.0592 12.8809 16.8314 12.6895 16.5078C12.498 16.1842 12.3408 15.7536 12.2178 15.2158C12.0947 14.6735 12.0332 13.9945 12.0332 13.1787C12.0332 12.641 12.0651 12.167 12.1289 11.7568C12.1927 11.3421 12.2793 10.9821 12.3887 10.6768C12.498 10.3714 12.6257 10.1162 12.7715 9.91113C12.9219 9.7015 13.0814 9.53288 13.25 9.40527C13.4232 9.27767 13.6032 9.18652 13.79 9.13184C13.9769 9.07715 14.1615 9.0498 14.3438 9.0498C14.485 9.05892 14.6309 9.09082 14.7812 9.14551C14.9134 9.19564 15.0615 9.27311 15.2256 9.37793C15.3896 9.48275 15.5537 9.63314 15.7178 9.8291L15.7588 9.17285L17.3652 9.34375ZM15.6768 11.0801C15.5719 10.9023 15.4489 10.7474 15.3076 10.6152C15.1709 10.4831 15.0182 10.417 14.8496 10.417C14.722 10.417 14.5921 10.4626 14.46 10.5537C14.3324 10.6403 14.2161 10.793 14.1113 11.0117C14.0065 11.2259 13.9199 11.513 13.8516 11.873C13.7878 12.2331 13.7559 12.6865 13.7559 13.2334C13.7559 13.7393 13.7786 14.1585 13.8242 14.4912C13.8698 14.8239 13.9313 15.0905 14.0088 15.291C14.0863 15.487 14.1751 15.626 14.2754 15.708C14.3757 15.7855 14.4827 15.8242 14.5967 15.8242C14.7471 15.8242 14.877 15.7786 14.9863 15.6875C15.1003 15.5964 15.196 15.487 15.2734 15.3594C15.3509 15.2272 15.4147 15.0905 15.4648 14.9492C15.5195 14.8079 15.5651 14.6849 15.6016 14.5801C15.6107 13.9831 15.6198 13.3952 15.6289 12.8164C15.638 12.2376 15.654 11.6589 15.6768 11.0801Z" fill="#888888"/>
</svg>
