<svg width="24" height="24" viewBox="0 0 24 24" fill="none" xmlns="http://www.w3.org/2000/svg">
<path d="M15.835 14.9658C15.8532 14.9977 15.8623 15.0365 15.8623 15.082C15.8623 15.1504 15.8372 15.2096 15.7871 15.2598C15.7415 15.3099 15.68 15.335 15.6025 15.335C15.5524 15.335 15.5068 15.3236 15.4658 15.3008C15.4294 15.278 15.3997 15.2438 15.377 15.1982C15.2904 15.0296 15.2129 14.82 15.1445 14.5693C15.0807 14.3141 15.0238 14.0316 14.9736 13.7217C14.9281 13.4118 14.8893 13.0791 14.8574 12.7236C14.8301 12.3636 14.8073 11.9922 14.7891 11.6094C14.4473 11.6549 14.0622 11.7051 13.6338 11.7598C13.21 11.8145 12.7246 11.8783 12.1777 11.9512C11.7949 12.0059 11.4053 12.0537 11.0088 12.0947C10.0335 13.1566 9.00586 13.9632 7.92578 14.5146C6.85026 15.0615 5.77018 15.335 4.68555 15.335C4.20247 15.335 3.7832 15.2871 3.42773 15.1914C3.07682 15.1003 2.78516 14.9977 2.55273 14.8838C2.32487 14.7653 2.15397 14.6559 2.04004 14.5557C1.92155 14.4554 1.85775 14.4007 1.84863 14.3916C1.80306 14.346 1.78027 14.2868 1.78027 14.2139C1.78027 14.141 1.80534 14.0794 1.85547 14.0293C1.9056 13.9792 1.96484 13.9541 2.0332 13.9541C2.11068 13.9541 2.17448 13.9814 2.22461 14.0361C2.23372 14.0452 2.28841 14.0931 2.38867 14.1797C2.48893 14.2617 2.63704 14.3506 2.83301 14.4463C3.03353 14.542 3.28646 14.6286 3.5918 14.7061C3.89714 14.7835 4.25944 14.8223 4.67871 14.8223C5.25293 14.8223 5.80208 14.7448 6.32617 14.5898C6.85026 14.4349 7.34473 14.2344 7.80957 13.9883C8.27897 13.7376 8.71419 13.4528 9.11523 13.1338C9.52083 12.8148 9.8877 12.4912 10.2158 12.1631C9.89225 12.1904 9.57096 12.2109 9.25195 12.2246C8.93294 12.2383 8.61849 12.2451 8.30859 12.2451C7.69792 12.2451 7.11686 12.2109 6.56543 12.1426C6.014 12.0742 5.52865 11.9603 5.10938 11.8008C4.6901 11.6367 4.35514 11.4202 4.10449 11.1514C3.8584 10.8825 3.73535 10.5475 3.73535 10.1465C3.73535 9.96419 3.77181 9.7819 3.84473 9.59961C3.9222 9.41732 4.01335 9.25326 4.11816 9.10742C4.22298 8.95703 4.33236 8.83626 4.44629 8.74512C4.56022 8.64941 4.6582 8.60156 4.74023 8.60156C4.80404 8.60156 4.86328 8.62435 4.91797 8.66992C4.97266 8.71549 5 8.77702 5 8.85449C5 8.89551 4.99089 8.93652 4.97266 8.97754C4.95443 9.014 4.92708 9.04362 4.89062 9.06641C4.88151 9.07552 4.84277 9.10742 4.77441 9.16211C4.70605 9.2168 4.63314 9.29199 4.55566 9.3877C4.47819 9.47884 4.40755 9.59049 4.34375 9.72266C4.27995 9.85026 4.24805 9.98926 4.24805 10.1396C4.24805 10.3994 4.33691 10.6296 4.51465 10.8301C4.69694 11.026 4.95898 11.1924 5.30078 11.3291C5.64714 11.4613 6.07096 11.5615 6.57227 11.6299C7.07357 11.6982 7.64551 11.7324 8.28809 11.7324C8.65723 11.7324 9.04688 11.721 9.45703 11.6982C9.86719 11.6755 10.3001 11.6413 10.7559 11.5957C10.9746 11.3542 11.1683 11.1263 11.3369 10.9121C11.5055 10.6979 11.6491 10.5065 11.7676 10.3379C11.9635 10.0599 12.1686 9.76367 12.3828 9.44922C12.597 9.13477 12.8089 8.81576 13.0186 8.49219C13.2327 8.16862 13.4401 7.84961 13.6406 7.53516C13.8457 7.21615 14.0371 6.91764 14.2148 6.63965C14.3926 6.3571 14.5521 6.10189 14.6934 5.87402C14.8346 5.6416 14.9508 5.4502 15.042 5.2998C15.0693 5.17676 15.1104 5.0651 15.165 4.96484C15.2197 4.86003 15.3086 4.80762 15.4316 4.80762C15.5 4.80762 15.5661 4.83724 15.6299 4.89648C15.6937 4.95117 15.7256 5.02181 15.7256 5.1084C15.7256 5.1722 15.7028 5.24056 15.6572 5.31348C15.6117 5.38639 15.5684 5.44792 15.5273 5.49805C15.5137 5.58464 15.4909 5.76921 15.459 6.05176C15.4316 6.33431 15.402 6.68066 15.3701 7.09082C15.3428 7.49642 15.3177 7.94531 15.2949 8.4375C15.2767 8.92513 15.2676 9.4196 15.2676 9.9209C15.2676 10.1077 15.2676 10.2923 15.2676 10.4746C15.2676 10.6569 15.2721 10.8415 15.2812 11.0283C15.9648 10.9417 16.4639 10.8825 16.7783 10.8506C17.0928 10.8141 17.2591 10.7959 17.2773 10.7959C17.3366 10.7959 17.3936 10.821 17.4482 10.8711C17.5075 10.9167 17.5371 10.9782 17.5371 11.0557C17.5371 11.1195 17.5143 11.1764 17.4688 11.2266C17.4277 11.2721 17.373 11.2995 17.3047 11.3086C17.2227 11.3177 17.127 11.3291 17.0176 11.3428C16.9082 11.3564 16.7738 11.3724 16.6143 11.3906C16.4548 11.4089 16.2679 11.4316 16.0537 11.459C15.8395 11.4818 15.5889 11.5114 15.3018 11.5479C15.3154 11.9215 15.3359 12.2816 15.3633 12.6279C15.3952 12.9697 15.4316 13.2887 15.4727 13.585C15.5182 13.8812 15.5706 14.1478 15.6299 14.3848C15.6891 14.6217 15.7575 14.8154 15.835 14.9658ZM12.1094 11.4385C12.6471 11.3656 13.1348 11.3018 13.5723 11.2471C14.0143 11.1878 14.4131 11.1354 14.7686 11.0898C14.764 10.8939 14.7594 10.6979 14.7549 10.502C14.7549 10.306 14.7549 10.1077 14.7549 9.90723C14.7549 9.26465 14.7663 8.65169 14.7891 8.06836C14.8118 7.48047 14.8438 6.97005 14.8848 6.53711C14.7025 6.82422 14.4997 7.14323 14.2764 7.49414C14.0576 7.84049 13.8298 8.19596 13.5928 8.56055C13.3558 8.92057 13.1165 9.27832 12.875 9.63379C12.6335 9.98926 12.4033 10.3219 12.1846 10.6318C12.0752 10.7868 11.9635 10.9372 11.8496 11.083C11.7357 11.2288 11.6217 11.3724 11.5078 11.5137C11.6081 11.5046 11.7061 11.4932 11.8018 11.4795C11.902 11.4658 12.0046 11.4521 12.1094 11.4385ZM20.0049 15.6699C20.8617 14.5534 21.4564 13.626 21.7891 12.8877C21.8118 12.8376 21.8415 12.8011 21.8779 12.7783C21.9189 12.751 21.9645 12.7373 22.0146 12.7373C22.0921 12.7373 22.1559 12.7646 22.2061 12.8193C22.2562 12.8695 22.2812 12.9287 22.2812 12.9971C22.2812 13.029 22.2744 13.0609 22.2607 13.0928C22.0602 13.5485 21.7754 14.0566 21.4062 14.6172C21.0371 15.1777 20.57 15.8112 20.0049 16.5176C20.0049 16.8047 20.0072 17.0918 20.0117 17.3789C20.0163 17.666 20.0186 17.9805 20.0186 18.3223C20.0186 18.6641 20.0094 19.0013 19.9912 19.334C19.9775 19.6712 19.9502 19.9902 19.9092 20.291C19.8682 20.5964 19.8112 20.8766 19.7383 21.1318C19.6699 21.3916 19.5788 21.6149 19.4648 21.8018C19.3555 21.9932 19.221 22.1413 19.0615 22.2461C18.9066 22.3555 18.722 22.4102 18.5078 22.4102C18.2025 22.4102 17.9678 22.2939 17.8037 22.0615C17.6396 21.8291 17.5576 21.4987 17.5576 21.0703C17.5576 20.8424 17.5781 20.5941 17.6191 20.3252C17.6647 20.0609 17.7285 19.7874 17.8105 19.5049C17.8926 19.2223 17.9906 18.9352 18.1045 18.6436C18.223 18.3564 18.3529 18.0762 18.4941 17.8027C18.6354 17.5293 18.7881 17.2673 18.9521 17.0166C19.1208 16.766 19.2985 16.5381 19.4854 16.333C19.4899 16.014 19.4922 15.6973 19.4922 15.3828C19.4967 15.0684 19.5036 14.779 19.5127 14.5146C19.376 14.6878 19.2119 14.8245 19.0205 14.9248C18.8337 15.0251 18.6468 15.0752 18.46 15.0752C18.3005 15.0752 18.1546 15.0456 18.0225 14.9863C17.8949 14.9225 17.7855 14.8359 17.6943 14.7266C17.6032 14.6126 17.5326 14.4805 17.4824 14.3301C17.4323 14.1797 17.4072 14.0156 17.4072 13.8379C17.4072 13.4824 17.4665 13.1702 17.585 12.9014C17.708 12.6279 17.863 12.4001 18.0498 12.2178C18.2367 12.0355 18.4417 11.8988 18.665 11.8076C18.8929 11.7165 19.1117 11.6709 19.3213 11.6709C19.4626 11.6709 19.5924 11.6891 19.7109 11.7256C19.8294 11.762 19.9297 11.8031 20.0117 11.8486C20.0983 11.8942 20.1644 11.9375 20.21 11.9785C20.2555 12.0195 20.2806 12.0423 20.2852 12.0469C20.3353 12.1016 20.3604 12.1631 20.3604 12.2314C20.3604 12.2998 20.3353 12.3613 20.2852 12.416C20.235 12.4661 20.1758 12.4912 20.1074 12.4912C20.0436 12.4912 19.9821 12.4661 19.9229 12.416C19.9046 12.4023 19.8796 12.3841 19.8477 12.3613C19.8203 12.334 19.7816 12.3066 19.7314 12.2793C19.6859 12.252 19.6289 12.2292 19.5605 12.2109C19.4967 12.1927 19.4193 12.1836 19.3281 12.1836C19.1914 12.1836 19.041 12.2155 18.877 12.2793C18.7129 12.3385 18.5602 12.4342 18.4189 12.5664C18.2777 12.6986 18.1592 12.8695 18.0635 13.0791C17.9678 13.2842 17.9199 13.5326 17.9199 13.8242C17.9199 14.043 17.9678 14.2207 18.0635 14.3574C18.1592 14.4896 18.3073 14.5557 18.5078 14.5557C18.6035 14.5557 18.7038 14.5283 18.8086 14.4736C18.918 14.4189 19.0228 14.3346 19.123 14.2207C19.2233 14.1068 19.3099 13.9632 19.3828 13.79C19.4603 13.6169 19.515 13.4118 19.5469 13.1748C19.556 13.111 19.5856 13.0586 19.6357 13.0176C19.6859 12.972 19.7451 12.9492 19.8135 12.9492C19.891 12.9492 19.9502 12.9766 19.9912 13.0312C20.0368 13.0859 20.0596 13.1475 20.0596 13.2158C20.0596 13.2204 20.0573 13.291 20.0527 13.4277C20.0482 13.5599 20.0436 13.7376 20.0391 13.9609C20.0345 14.1842 20.0277 14.444 20.0186 14.7402C20.014 15.0319 20.0094 15.3418 20.0049 15.6699ZM19.4854 17.167C19.2712 17.4632 19.0775 17.7845 18.9043 18.1309C18.7311 18.4818 18.583 18.835 18.46 19.1904C18.3369 19.5459 18.2412 19.89 18.1729 20.2227C18.109 20.5599 18.0771 20.8607 18.0771 21.125C18.0771 21.2936 18.0908 21.4281 18.1182 21.5283C18.1501 21.6286 18.1865 21.7061 18.2275 21.7607C18.2731 21.8154 18.321 21.8519 18.3711 21.8701C18.4258 21.8883 18.4759 21.8975 18.5215 21.8975C18.6628 21.8975 18.7858 21.8405 18.8906 21.7266C18.9954 21.6126 19.0843 21.46 19.1572 21.2686C19.2301 21.0817 19.2894 20.8652 19.335 20.6191C19.3805 20.373 19.4147 20.1178 19.4375 19.8535C19.4603 19.5938 19.4762 19.334 19.4854 19.0742C19.4945 18.8145 19.499 18.5752 19.499 18.3564C19.499 18.1605 19.499 17.9645 19.499 17.7686C19.499 17.5726 19.4945 17.3721 19.4854 17.167Z" fill="#333333"/>
</svg>
