<svg width="24" height="24" viewBox="0 0 24 24" fill="none" xmlns="http://www.w3.org/2000/svg">
<path d="M14.8022 16.574C15.0449 16.574 15.2782 16.4433 15.5022 16.182L15.7122 16.35C15.6842 16.3873 15.6469 16.434 15.6002 16.49C15.5535 16.546 15.4369 16.6207 15.2502 16.714C15.0729 16.8073 14.8769 16.854 14.6622 16.854C13.6169 16.854 13.0942 16.4013 13.0942 15.496C13.0942 15.216 13.1269 14.8007 13.1922 14.25C12.7442 14.39 12.3429 14.46 11.9882 14.46C11.3629 14.46 10.7375 14.2687 10.1122 13.886C9.7482 14.5113 9.40753 15.048 9.0902 15.496C8.77286 15.9347 8.4042 16.364 7.9842 16.784C7.1162 17.6333 6.0662 18.058 4.8342 18.058C3.61153 18.058 2.6362 17.666 1.9082 16.882C1.2642 16.1633 0.942195 15.2907 0.942195 14.264C0.942195 13.228 1.27353 12.3087 1.9362 11.506C2.59886 10.7033 3.45753 10.302 4.5122 10.302C5.56686 10.302 6.36953 10.6147 6.9202 11.24C7.05086 11.408 7.1442 11.534 7.2002 11.618C7.7042 11.8327 8.2782 12.1873 8.9222 12.682C9.40753 13.074 9.76686 13.3447 10.0002 13.494C10.1309 13.2513 10.3082 12.9247 10.5322 12.514C10.7655 12.1033 10.9429 11.7907 11.0642 11.576C11.1855 11.3613 11.3675 11.058 11.6102 10.666C11.8529 10.274 12.0489 9.98 12.1982 9.784C12.3569 9.57867 12.5622 9.32667 12.8142 9.028C13.0755 8.72 13.3135 8.49133 13.5282 8.342C14.1722 7.88467 14.7135 7.61867 15.1522 7.544C15.3949 7.50667 15.6002 7.488 15.7682 7.488C15.9362 7.488 16.1229 7.49267 16.3282 7.502C16.5335 7.502 16.8229 7.55333 17.1962 7.656L17.1262 7.922C16.9022 7.85667 16.6642 7.81 16.4122 7.782C15.4789 11.45 14.9422 14.3807 14.8022 16.574ZM7.6482 13.242C7.6482 13.9327 7.44753 14.544 7.0462 15.076C6.6542 15.608 6.1222 15.874 5.4502 15.874C5.01153 15.874 4.6522 15.7433 4.3722 15.482C4.10153 15.2207 3.9662 14.95 3.9662 14.67C3.9662 14.39 4.0082 14.1613 4.0922 13.984C4.1762 13.7973 4.26953 13.6573 4.3722 13.564C4.4842 13.4707 4.60553 13.396 4.7362 13.34C4.91353 13.2467 5.05353 13.2 5.1562 13.2L5.1842 13.48C4.95086 13.48 4.7362 13.592 4.5402 13.816C4.3442 14.04 4.2462 14.292 4.2462 14.572C4.2462 14.852 4.35353 15.0947 4.5682 15.3C4.7922 15.496 5.0862 15.594 5.4502 15.594C6.04753 15.594 6.51886 15.3607 6.8642 14.894C7.20953 14.4273 7.3822 13.9093 7.3822 13.34C7.3822 12.7707 7.26553 12.276 7.0322 11.856C6.51886 11.66 6.0102 11.562 5.5062 11.562C4.53553 11.562 3.84953 12.0147 3.4482 12.92L3.1822 12.836C3.28486 12.6027 3.4482 12.3507 3.6722 12.08C4.11086 11.548 4.7222 11.282 5.5062 11.282C5.9262 11.282 6.34153 11.3427 6.7522 11.464L6.7242 11.422C6.21086 10.862 5.46886 10.582 4.4982 10.582C3.53686 10.582 2.7482 10.9553 2.1322 11.702C1.52553 12.4487 1.2222 13.3073 1.2222 14.278C1.2222 15.2393 1.52086 16.042 2.1182 16.686C2.7902 17.414 3.7282 17.778 4.9322 17.778C6.03353 17.778 6.99486 17.3627 7.8162 16.532C8.22686 16.1307 8.58153 15.7153 8.8802 15.286C9.1882 14.8567 9.51953 14.3387 9.8742 13.732C9.55686 13.5267 9.16953 13.2467 8.7122 12.892C8.2642 12.528 7.8302 12.2387 7.4102 12.024C7.56886 12.416 7.6482 12.822 7.6482 13.242ZM10.2522 13.648C10.8495 14.0027 11.3955 14.18 11.8902 14.18C12.3942 14.18 12.8422 14.1007 13.2342 13.942C13.4582 12.3647 13.8782 10.4047 14.4942 8.062C13.7475 8.41667 13.0615 9.04667 12.4362 9.952C11.9789 10.6053 11.4282 11.5153 10.7842 12.682L10.2522 13.648ZM21.724 17.526C22.06 17.526 22.3493 17.3953 22.592 17.134L22.788 17.302C22.564 17.6193 22.2093 17.778 21.724 17.778C21.5187 17.778 21.3087 17.7547 21.094 17.708C20.4593 18.2867 19.6473 18.576 18.658 18.576C18.07 18.576 17.6127 18.4733 17.286 18.268C16.9687 18.072 16.81 17.8107 16.81 17.484C16.81 17.1667 16.908 16.91 17.104 16.714C17.3093 16.5273 17.6687 16.434 18.182 16.434C18.6953 16.434 19.372 16.644 20.212 17.064L20.646 14.74C20.226 15.5147 19.6847 15.902 19.022 15.902C17.7527 15.902 17.118 15.2767 17.118 14.026C17.118 12.9807 17.3793 12.1407 17.902 11.506C18.434 10.8713 19.1107 10.554 19.932 10.554C20.408 10.554 20.7767 10.6987 21.038 10.988C21.1127 11.072 21.1873 11.198 21.262 11.366L21.388 10.68C22.0787 10.68 22.5827 10.652 22.9 10.596L23.082 10.554L22.158 15.72C22.018 16.448 21.738 17.036 21.318 17.484C21.4393 17.512 21.5747 17.526 21.724 17.526ZM18.7 14.46C18.7 14.8893 18.742 15.1787 18.826 15.328C18.91 15.468 19.0687 15.538 19.302 15.538C19.5353 15.538 19.7733 15.412 20.016 15.16C20.2587 14.908 20.4313 14.6747 20.534 14.46C20.646 14.236 20.7393 14.0213 20.814 13.816L21.108 12.206V12.108C21.108 11.2493 20.716 10.82 19.932 10.82C19.6333 10.82 19.3533 11.226 19.092 12.038C18.8307 12.85 18.7 13.6573 18.7 14.46ZM18.602 18.296C19.3487 18.296 19.8527 17.974 20.114 17.33L19.918 17.232C19.806 17.176 19.736 17.1387 19.708 17.12C19.6893 17.1107 19.6287 17.0827 19.526 17.036C19.4233 16.9893 19.3487 16.9567 19.302 16.938C19.2553 16.9287 19.1807 16.9053 19.078 16.868C18.9847 16.8307 18.9053 16.8027 18.84 16.784C18.7747 16.7747 18.7 16.7607 18.616 16.742C18.476 16.714 18.2707 16.7 18 16.7C17.7293 16.7 17.51 16.7653 17.342 16.896C17.1833 17.0267 17.104 17.218 17.104 17.47C17.104 17.722 17.2393 17.9227 17.51 18.072C17.7807 18.2213 18.1447 18.296 18.602 18.296Z" fill="#333333"/>
</svg>
