<svg width="24" height="24" viewBox="0 0 24 24" fill="none" xmlns="http://www.w3.org/2000/svg">
<path d="M10.9435 17L10.3975 14.326H8.15755L7.62555 17H6.64555L8.61955 7.368H9.96355L11.9235 17H10.9435ZM9.31955 8.656H9.23555L8.29755 13.458H10.2575L9.31955 8.656ZM14.5304 19.786C14.0077 19.786 13.4571 19.7627 12.8784 19.716V18.946C13.6624 18.974 14.1571 18.988 14.3624 18.988C14.8384 18.988 15.1837 18.9133 15.3984 18.764C15.6131 18.624 15.7531 18.3767 15.8184 18.022C15.8837 17.6673 15.9164 17.1027 15.9164 16.328V16.076H15.8464C15.7531 16.412 15.5944 16.6593 15.3704 16.818C15.1464 16.9767 14.8384 17.056 14.4464 17.056C13.9517 17.056 13.5784 16.9533 13.3264 16.748C13.0837 16.5427 12.9157 16.188 12.8224 15.684C12.7291 15.1707 12.6824 14.41 12.6824 13.402C12.6824 12.3847 12.7291 11.624 12.8224 11.12C12.9251 10.6067 13.0977 10.252 13.3404 10.056C13.5924 9.85067 13.9657 9.748 14.4604 9.748C14.8151 9.748 15.1184 9.82733 15.3704 9.986C15.6224 10.1353 15.7951 10.42 15.8884 10.84H15.9584L16.0144 9.86H16.8404V15.95C16.8404 16.9767 16.7891 17.7513 16.6864 18.274C16.5837 18.7967 16.3691 19.1793 16.0424 19.422C15.7251 19.6647 15.2211 19.786 14.5304 19.786ZM14.7684 16.216C15.0671 16.216 15.2957 16.1507 15.4544 16.02C15.6224 15.88 15.7391 15.6467 15.8044 15.32C15.8791 14.956 15.9164 14.3167 15.9164 13.402C15.9164 12.534 15.8884 11.932 15.8324 11.596C15.7671 11.2227 15.6504 10.9613 15.4824 10.812C15.3144 10.6627 15.0764 10.588 14.7684 10.588C14.4137 10.588 14.1571 10.6487 13.9984 10.77C13.8491 10.8913 13.7464 11.1433 13.6904 11.526C13.6344 11.8993 13.6064 12.5247 13.6064 13.402C13.6064 14.2793 13.6344 14.9093 13.6904 15.292C13.7464 15.6653 13.8491 15.9127 13.9984 16.034C14.1571 16.1553 14.4137 16.216 14.7684 16.216Z" fill="#333333"/>
</svg>
