<svg width="24" height="24" viewBox="0 0 24 24" fill="none" xmlns="http://www.w3.org/2000/svg">
<path d="M3.18427 17L6.23627 7.368H9.55427L12.6203 17H10.1563L9.58227 15.11H6.15227L5.59227 17H3.18427ZM6.67027 13.276H9.05027L7.90227 9.468H7.80427L6.67027 13.276ZM16.4623 19.884C16.1636 19.884 15.8509 19.8747 15.5243 19.856C15.2069 19.8467 14.9083 19.828 14.6283 19.8C14.3483 19.772 14.1149 19.7393 13.9283 19.702V18.148C14.1243 18.1573 14.3343 18.162 14.5583 18.162C14.7823 18.1713 15.0063 18.176 15.2303 18.176C15.4636 18.176 15.6829 18.176 15.8883 18.176C16.3456 18.176 16.7003 18.1573 16.9523 18.12C17.2136 18.092 17.4049 18.022 17.5263 17.91C17.6569 17.8073 17.7363 17.6487 17.7643 17.434C17.7923 17.2287 17.8063 16.9487 17.8063 16.594V16.09H17.6943C17.5543 16.3327 17.3816 16.5193 17.1763 16.65C16.9803 16.7713 16.7609 16.8553 16.5183 16.902C16.2756 16.9487 16.0143 16.972 15.7343 16.972C15.3049 16.972 14.9409 16.916 14.6423 16.804C14.3436 16.6827 14.0963 16.4913 13.9003 16.23C13.7136 15.9593 13.5783 15.5907 13.4943 15.124C13.4103 14.6573 13.3683 14.074 13.3683 13.374C13.3683 12.6647 13.4103 12.0767 13.4943 11.61C13.5876 11.1433 13.7276 10.7747 13.9143 10.504C14.1009 10.2333 14.3436 10.042 14.6423 9.93C14.9409 9.80867 15.3003 9.748 15.7203 9.748C15.9816 9.748 16.2383 9.776 16.4903 9.832C16.7516 9.87867 16.9896 9.972 17.2043 10.112C17.4283 10.252 17.6103 10.4573 17.7503 10.728H17.8623L17.9183 9.86H20.0603V16.188C20.0603 16.8133 20.0276 17.3593 19.9623 17.826C19.8969 18.2927 19.7476 18.6753 19.5143 18.974C19.2903 19.282 18.9356 19.5107 18.4503 19.66C17.9743 19.8093 17.3116 19.884 16.4623 19.884ZM16.7143 15.138C16.9849 15.138 17.1903 15.11 17.3303 15.054C17.4796 14.9887 17.5869 14.8767 17.6523 14.718C17.7176 14.5687 17.7596 14.3867 17.7783 14.172C17.7969 13.948 17.8063 13.682 17.8063 13.374C17.8063 13.0753 17.7969 12.814 17.7783 12.59C17.7689 12.366 17.7269 12.184 17.6523 12.044C17.5869 11.8667 17.4796 11.75 17.3303 11.694C17.1903 11.6287 16.9849 11.596 16.7143 11.596C16.4623 11.596 16.2616 11.6147 16.1123 11.652C15.9629 11.68 15.8509 11.75 15.7763 11.862C15.7109 11.974 15.6689 12.1513 15.6503 12.394C15.6316 12.6367 15.6223 12.9633 15.6223 13.374C15.6223 13.7847 15.6316 14.1067 15.6503 14.34C15.6689 14.5733 15.7109 14.7507 15.7763 14.872C15.8509 14.984 15.9629 15.0587 16.1123 15.096C16.2616 15.124 16.4623 15.138 16.7143 15.138Z" fill="#888888"/>
</svg>
