<svg width="24" height="24" viewBox="0 0 24 24" fill="none" xmlns="http://www.w3.org/2000/svg">
<path d="M3.04453 17L8.84053 7.368H10.3385L12.0325 17H10.8285L10.3385 14.354H5.90053L4.29053 17H3.04453ZM6.44653 13.36H10.2125L9.38653 8.6H9.30253L6.44653 13.36ZM15.8016 19.884C15.4936 19.884 15.1763 19.8747 14.8496 19.856C14.5323 19.8467 14.2289 19.8327 13.9396 19.814C13.6596 19.7953 13.4263 19.7767 13.2396 19.758L13.4356 18.834C13.6596 18.8527 13.9023 18.8667 14.1636 18.876C14.4249 18.8947 14.6863 18.904 14.9476 18.904C15.2183 18.9133 15.4656 18.918 15.6896 18.918C16.2216 18.918 16.6509 18.8807 16.9776 18.806C17.3043 18.7313 17.5609 18.6053 17.7476 18.428C17.9343 18.26 18.0836 18.0313 18.1956 17.742C18.3076 17.4527 18.4103 17.0933 18.5036 16.664C18.5316 16.552 18.5596 16.4353 18.5876 16.314C18.6249 16.1927 18.6529 16.0853 18.6716 15.992H18.5876C18.4196 16.2813 18.2143 16.5053 17.9716 16.664C17.7383 16.8227 17.4676 16.93 17.1596 16.986C16.8516 17.042 16.5063 17.07 16.1236 17.07C15.6103 17.07 15.1903 17.0233 14.8636 16.93C14.5463 16.8273 14.3129 16.65 14.1636 16.398C14.0143 16.1367 13.9396 15.7867 13.9396 15.348C13.9396 15.1053 13.9629 14.8253 14.0096 14.508C14.0563 14.1907 14.1216 13.8313 14.2056 13.43C14.3549 12.702 14.5183 12.1 14.6956 11.624C14.8729 11.148 15.0876 10.7747 15.3396 10.504C15.5916 10.2333 15.8949 10.042 16.2496 9.93C16.6136 9.80867 17.0523 9.748 17.5656 9.748C17.9296 9.748 18.2609 9.78067 18.5596 9.846C18.8583 9.902 19.1056 10.0093 19.3016 10.168C19.5069 10.3267 19.6423 10.546 19.7076 10.826H19.7916L20.0716 9.86H21.0936L19.7776 16.076C19.6563 16.6267 19.5303 17.112 19.3996 17.532C19.2783 17.952 19.1243 18.3113 18.9376 18.61C18.7603 18.9087 18.5363 19.1513 18.2656 19.338C17.9949 19.5247 17.6589 19.66 17.2576 19.744C16.8563 19.8373 16.3709 19.884 15.8016 19.884ZM16.7116 16.076C17.0383 16.076 17.3089 16.0527 17.5236 16.006C17.7476 15.95 17.9389 15.866 18.0976 15.754C18.2563 15.642 18.3963 15.4973 18.5176 15.32C18.6203 15.1987 18.7136 15.0307 18.7976 14.816C18.8816 14.592 18.9609 14.3493 19.0356 14.088C19.1103 13.8267 19.1756 13.5607 19.2316 13.29C19.2876 13.0193 19.3296 12.7673 19.3576 12.534C19.3949 12.3007 19.4136 12.1047 19.4136 11.946C19.4136 11.5167 19.2876 11.2133 19.0356 11.036C18.7836 10.8493 18.3776 10.756 17.8176 10.756C17.3976 10.756 17.0523 10.7887 16.7816 10.854C16.5203 10.91 16.3056 11.0267 16.1376 11.204C15.9696 11.3813 15.8249 11.6473 15.7036 12.002C15.5916 12.3567 15.4703 12.828 15.3396 13.416C15.2649 13.7893 15.2043 14.1113 15.1576 14.382C15.1203 14.6527 15.1016 14.886 15.1016 15.082C15.1016 15.362 15.1529 15.5767 15.2556 15.726C15.3583 15.866 15.5263 15.9593 15.7596 16.006C16.0023 16.0527 16.3196 16.076 16.7116 16.076Z" fill="#888888"/>
</svg>
