<svg width="24" height="24" viewBox="0 0 24 24" fill="none" xmlns="http://www.w3.org/2000/svg">
<path d="M11.2703 17L10.4303 14.032H7.1823L6.3563 17H5.6983L8.4423 7.368H9.1983L11.9283 17H11.2703ZM8.8343 8.362H8.7643L7.3363 13.444H10.2623L8.8343 8.362ZM15.0943 19.786C14.4409 19.786 13.8109 19.7627 13.2043 19.716V19.17C13.7829 19.2167 14.3849 19.24 15.0103 19.24C15.6169 19.24 16.0603 19.1513 16.3403 18.974C16.6203 18.806 16.8023 18.5167 16.8863 18.106C16.9796 17.6953 17.0263 17.056 17.0263 16.188V16.048H16.9703C16.8489 16.4213 16.6436 16.692 16.3543 16.86C16.0649 17.0187 15.6729 17.098 15.1783 17.098C14.5623 17.098 14.1049 17 13.8063 16.804C13.5076 16.5987 13.3023 16.244 13.1903 15.74C13.0783 15.2267 13.0223 14.4567 13.0223 13.43C13.0223 12.394 13.0783 11.624 13.1903 11.12C13.3023 10.6067 13.5076 10.252 13.8063 10.056C14.1049 9.85067 14.5623 9.748 15.1783 9.748C15.6449 9.748 16.0369 9.82733 16.3543 9.986C16.6716 10.1447 16.8956 10.4573 17.0263 10.924H17.0823L17.1383 9.86H17.6423V15.922C17.6423 16.9673 17.5816 17.7513 17.4603 18.274C17.3483 18.806 17.1103 19.1887 16.7463 19.422C16.3916 19.6647 15.8409 19.786 15.0943 19.786ZM15.3463 16.538C15.7756 16.538 16.1116 16.454 16.3543 16.286C16.6063 16.118 16.7789 15.8473 16.8723 15.474C16.9749 15.026 17.0263 14.3447 17.0263 13.43C17.0263 12.954 17.0169 12.5667 16.9983 12.268C16.9889 11.96 16.9563 11.694 16.9003 11.47C16.7976 11.05 16.6203 10.7513 16.3683 10.574C16.1163 10.3967 15.7756 10.308 15.3463 10.308C14.8236 10.308 14.4456 10.3827 14.2123 10.532C13.9883 10.672 13.8343 10.952 13.7503 11.372C13.6756 11.7827 13.6383 12.4687 13.6383 13.43C13.6383 14.382 13.6756 15.068 13.7503 15.488C13.8343 15.908 13.9883 16.188 14.2123 16.328C14.4456 16.468 14.8236 16.538 15.3463 16.538Z" fill="#888888"/>
</svg>
