<svg width="24" height="24" viewBox="0 0 24 24" fill="none" xmlns="http://www.w3.org/2000/svg">
<path d="M10.0053 17L9.61333 15.264H7.03733L6.67333 17H4.15333L6.56133 7.368H10.1593L12.5673 17H10.0053ZM8.36733 9.566H8.26933L7.47133 13.318H9.17933L8.36733 9.566ZM15.9612 19.87C15.5599 19.87 15.1399 19.8513 14.7012 19.814C14.2626 19.7767 13.9032 19.7347 13.6232 19.688V18.064L15.3452 18.078C15.8679 18.078 16.2272 18.05 16.4232 17.994C16.6192 17.938 16.7406 17.8213 16.7872 17.644C16.8432 17.4667 16.8712 17.14 16.8712 16.664V16.09H16.7592C16.5912 16.4073 16.3719 16.6267 16.1012 16.748C15.8306 16.8693 15.4992 16.93 15.1072 16.93C14.5939 16.93 14.1926 16.8227 13.9032 16.608C13.6139 16.3933 13.4039 16.0293 13.2732 15.516C13.1426 14.9933 13.0772 14.2653 13.0772 13.332C13.0772 12.38 13.1426 11.6473 13.2732 11.134C13.4132 10.6207 13.6232 10.2613 13.9032 10.056C14.1926 9.85067 14.5892 9.748 15.0932 9.748C15.4852 9.748 15.8259 9.818 16.1152 9.958C16.4046 10.0887 16.6286 10.3313 16.7872 10.686H16.9272L16.9832 9.86H19.2372V16.188C19.2372 17.1493 19.1719 17.8727 19.0412 18.358C18.9199 18.8433 18.6259 19.2167 18.1592 19.478C17.7019 19.7393 16.9692 19.87 15.9612 19.87ZM16.1712 14.998C16.3766 14.998 16.5212 14.9747 16.6052 14.928C16.6986 14.872 16.7639 14.76 16.8012 14.592C16.8292 14.4707 16.8479 14.3027 16.8572 14.088C16.8666 13.864 16.8712 13.6167 16.8712 13.346C16.8712 12.7393 16.8526 12.352 16.8152 12.184C16.7779 11.988 16.7126 11.8573 16.6192 11.792C16.5259 11.7267 16.3766 11.694 16.1712 11.694C15.9192 11.694 15.7466 11.722 15.6532 11.778C15.5692 11.834 15.5132 11.9693 15.4852 12.184C15.4572 12.3893 15.4432 12.7767 15.4432 13.346C15.4432 13.9153 15.4572 14.3073 15.4852 14.522C15.5132 14.7273 15.5692 14.858 15.6532 14.914C15.7466 14.97 15.9192 14.998 16.1712 14.998Z" fill="#333333"/>
</svg>
