<svg width="24" height="24" viewBox="0 0 24 24" fill="none" xmlns="http://www.w3.org/2000/svg">
<path d="M11.2089 17L10.5509 14.06H8.00289L7.34489 17H6.72889L8.89889 7.368H9.66889L11.8529 17H11.2089ZM9.30489 8.432H9.23489L8.11489 13.472H10.4249L9.30489 8.432ZM14.447 19.758C14.0924 19.758 13.5604 19.7393 12.851 19.702V19.156C13.355 19.1933 13.8637 19.212 14.377 19.212C14.8997 19.212 15.2824 19.1233 15.525 18.946C15.7677 18.778 15.9264 18.4887 16.001 18.078C16.085 17.6673 16.127 17.0327 16.127 16.174V16.076H16.057C15.9637 16.44 15.8004 16.7013 15.567 16.86C15.3337 17.0187 15.007 17.098 14.587 17.098C14.055 17.098 13.6584 17 13.397 16.804C13.145 16.5987 12.9677 16.244 12.865 15.74C12.7717 15.2267 12.725 14.452 12.725 13.416C12.725 12.38 12.7717 11.61 12.865 11.106C12.9677 10.602 13.145 10.252 13.397 10.056C13.6584 9.85067 14.055 9.748 14.587 9.748C14.9884 9.748 15.315 9.82733 15.567 9.986C15.8284 10.1353 16.0104 10.4387 16.113 10.896H16.183L16.239 9.86H16.729V15.88C16.729 16.9253 16.673 17.714 16.561 18.246C16.4584 18.778 16.2437 19.1607 15.917 19.394C15.5997 19.6367 15.1097 19.758 14.447 19.758ZM14.741 16.552C15.0957 16.552 15.371 16.468 15.567 16.3C15.7724 16.1227 15.9124 15.8473 15.987 15.474C16.0804 15.0167 16.127 14.3307 16.127 13.416C16.127 12.492 16.0897 11.8433 16.015 11.47C15.931 11.05 15.7864 10.7513 15.581 10.574C15.385 10.3873 15.105 10.294 14.741 10.294C14.3117 10.294 13.999 10.3687 13.803 10.518C13.6164 10.658 13.4904 10.938 13.425 11.358C13.3597 11.7687 13.327 12.4547 13.327 13.416C13.327 14.3773 13.3597 15.068 13.425 15.488C13.4904 15.908 13.6164 16.1927 13.803 16.342C13.999 16.482 14.3117 16.552 14.741 16.552Z" fill="#888888"/>
</svg>
