<svg width="24" height="24" viewBox="0 0 24 24" fill="none" xmlns="http://www.w3.org/2000/svg">
<path d="M11.4457 17L10.3537 13.92H6.25169L5.17369 17H4.64169L8.05769 7.368H8.57569L11.9777 17H11.4457ZM8.33769 8.18H8.26769L6.41969 13.444H10.1857L8.33769 8.18ZM15.8255 19.842C15.0975 19.842 14.3415 19.814 13.5575 19.758V19.296C14.3228 19.3613 15.0602 19.394 15.7695 19.394C16.4695 19.394 16.9782 19.3007 17.2955 19.114C17.6222 18.9273 17.8368 18.6147 17.9395 18.176C18.0515 17.7373 18.1075 17.0607 18.1075 16.146V16.006H18.0515C17.9115 16.4073 17.6642 16.692 17.3095 16.86C16.9548 17.028 16.4695 17.112 15.8535 17.112C15.1348 17.112 14.5982 17.014 14.2435 16.818C13.8982 16.6127 13.6602 16.258 13.5295 15.754C13.4082 15.25 13.3475 14.4753 13.3475 13.43C13.3475 12.3847 13.4082 11.61 13.5295 11.106C13.6602 10.602 13.8982 10.252 14.2435 10.056C14.5982 9.85067 15.1348 9.748 15.8535 9.748C16.4415 9.748 16.9268 9.832 17.3095 10C17.6922 10.1587 17.9582 10.4853 18.1075 10.98H18.1635L18.2195 9.86H18.5975V15.95C18.5975 17.0047 18.5322 17.798 18.4015 18.33C18.2708 18.862 18.0095 19.2447 17.6175 19.478C17.2255 19.7207 16.6282 19.842 15.8255 19.842ZM15.9795 16.664C16.5208 16.664 16.9502 16.5753 17.2675 16.398C17.5848 16.2113 17.8042 15.922 17.9255 15.53C18.0002 15.2687 18.0468 14.984 18.0655 14.676C18.0935 14.3587 18.1075 13.9433 18.1075 13.43C18.1075 12.898 18.0982 12.4873 18.0795 12.198C18.0608 11.9087 18.0188 11.652 17.9535 11.428C17.8322 10.9893 17.6128 10.6767 17.2955 10.49C16.9782 10.294 16.5395 10.196 15.9795 10.196C15.3262 10.196 14.8548 10.2707 14.5655 10.42C14.2762 10.5693 14.0802 10.8633 13.9775 11.302C13.8842 11.7313 13.8375 12.4407 13.8375 13.43C13.8375 14.4193 13.8842 15.1333 13.9775 15.572C14.0802 16.0013 14.2762 16.2907 14.5655 16.44C14.8548 16.5893 15.3262 16.664 15.9795 16.664Z" fill="#888888"/>
</svg>
