<svg width="24" height="24" viewBox="0 0 24 24" fill="none" xmlns="http://www.w3.org/2000/svg">
<path d="M11.2271 17L10.1211 14.2H5.5711L4.4651 17H3.5411L7.3211 7.368H8.3991L12.1791 17H11.2271ZM7.8811 8.418H7.8111L5.8651 13.36H9.8271L7.8811 8.418ZM16.4997 19.884C15.5757 19.884 14.7217 19.8467 13.9377 19.772V19.002C14.7871 19.0673 15.5851 19.1 16.3317 19.1C17.0784 19.1 17.6197 19.0207 17.9557 18.862C18.2917 18.7127 18.5111 18.4467 18.6137 18.064C18.7257 17.6813 18.7817 17.084 18.7817 16.272V16.02H18.7117C18.5437 16.4027 18.2637 16.678 17.8717 16.846C17.4797 17.0047 16.9617 17.084 16.3177 17.084C15.5617 17.084 14.9924 16.9813 14.6097 16.776C14.2364 16.5707 13.9751 16.216 13.8257 15.712C13.6764 15.1987 13.6017 14.438 13.6017 13.43C13.6017 12.422 13.6764 11.6613 13.8257 11.148C13.9751 10.6253 14.2364 10.2613 14.6097 10.056C14.9924 9.85067 15.5617 9.748 16.3177 9.748C16.9337 9.748 17.4471 9.832 17.8577 10C18.2777 10.1587 18.5811 10.4713 18.7677 10.938H18.8377L18.8937 9.86H19.6357V16.048C19.6357 17.0747 19.5611 17.8493 19.4117 18.372C19.2717 18.8947 18.9777 19.2773 18.5297 19.52C18.0911 19.7627 17.4144 19.884 16.4997 19.884ZM16.6257 16.272C17.1671 16.272 17.5917 16.202 17.8997 16.062C18.2171 15.9127 18.4364 15.684 18.5577 15.376C18.6511 15.152 18.7117 14.8953 18.7397 14.606C18.7677 14.3167 18.7817 13.9247 18.7817 13.43C18.7817 12.9447 18.7677 12.562 18.7397 12.282C18.7211 11.9927 18.6697 11.7453 18.5857 11.54C18.4551 11.1947 18.2311 10.9473 17.9137 10.798C17.5964 10.6393 17.1671 10.56 16.6257 10.56C15.9631 10.56 15.4871 10.6253 15.1977 10.756C14.9084 10.8867 14.7124 11.148 14.6097 11.54C14.5071 11.9227 14.4557 12.5527 14.4557 13.43C14.4557 14.3073 14.5071 14.9373 14.6097 15.32C14.7124 15.6933 14.9084 15.9453 15.1977 16.076C15.4871 16.2067 15.9631 16.272 16.6257 16.272Z" fill="#333333"/>
</svg>
