<svg width="24" height="24" viewBox="0 0 24 24" fill="none" xmlns="http://www.w3.org/2000/svg">
<path d="M3.47794 17L7.11794 7.368H8.62994L12.2559 17H11.0099L10.0159 14.368H5.68994L4.69594 17H3.47794ZM6.05394 13.318H9.65194L7.88794 8.6H7.81794L6.05394 13.318ZM16.4783 19.884C16.1796 19.884 15.8716 19.8747 15.5543 19.856C15.2463 19.8467 14.9523 19.8327 14.6723 19.814C14.3923 19.7953 14.1543 19.7767 13.9583 19.758V18.834C14.1823 18.8527 14.4296 18.8667 14.7003 18.876C14.9709 18.8947 15.2369 18.904 15.4983 18.904C15.7689 18.9133 16.0116 18.918 16.2263 18.918C16.7676 18.918 17.1923 18.8807 17.5003 18.806C17.8083 18.7313 18.0416 18.6007 18.2003 18.414C18.3589 18.2273 18.4569 17.966 18.4943 17.63C18.5409 17.294 18.5643 16.8647 18.5643 16.342V16.048H18.4943C18.3729 16.3093 18.2049 16.5147 17.9903 16.664C17.7756 16.8133 17.5189 16.9207 17.2203 16.986C16.9216 17.042 16.5809 17.07 16.1983 17.07C15.6756 17.07 15.2416 17.014 14.8963 16.902C14.5603 16.79 14.2943 16.6033 14.0983 16.342C13.9023 16.0713 13.7623 15.698 13.6783 15.222C13.6036 14.746 13.5663 14.1487 13.5663 13.43C13.5663 12.702 13.6083 12.1 13.6923 11.624C13.7763 11.148 13.9163 10.7747 14.1123 10.504C14.3083 10.2333 14.5743 10.042 14.9103 9.93C15.2556 9.80867 15.6896 9.748 16.2123 9.748C16.5296 9.748 16.8423 9.776 17.1503 9.832C17.4583 9.87867 17.7336 9.986 17.9763 10.154C18.2283 10.322 18.4196 10.5647 18.5503 10.882H18.6343L18.6903 9.86H19.7123V16.076C19.7123 16.7667 19.6749 17.3547 19.6003 17.84C19.5349 18.3253 19.3949 18.7173 19.1803 19.016C18.9656 19.3147 18.6436 19.534 18.2143 19.674C17.7849 19.814 17.2063 19.884 16.4783 19.884ZM16.6463 16.076C17.1129 16.076 17.4816 16.0153 17.7523 15.894C18.0229 15.7633 18.2189 15.5627 18.3403 15.292C18.4429 15.068 18.5036 14.802 18.5223 14.494C18.5503 14.186 18.5643 13.8267 18.5643 13.416C18.5643 13.024 18.5549 12.6787 18.5363 12.38C18.5176 12.072 18.4569 11.8107 18.3543 11.596C18.2329 11.2973 18.0323 11.0827 17.7523 10.952C17.4723 10.8213 17.1036 10.756 16.6463 10.756C16.2169 10.756 15.8716 10.7887 15.6103 10.854C15.3583 10.91 15.1669 11.0267 15.0363 11.204C14.9056 11.3813 14.8169 11.6473 14.7703 12.002C14.7236 12.3567 14.7003 12.828 14.7003 13.416C14.7003 14.004 14.7236 14.4753 14.7703 14.83C14.8169 15.1847 14.9056 15.4507 15.0363 15.628C15.1669 15.8053 15.3583 15.9267 15.6103 15.992C15.8716 16.048 16.2169 16.076 16.6463 16.076Z" fill="#888888"/>
</svg>
