<svg width="24" height="24" viewBox="0 0 24 24" fill="none" xmlns="http://www.w3.org/2000/svg">
<path d="M5.05206 17.336C4.71606 17.336 4.46406 17.252 4.29606 17.084C4.1374 16.916 4.05806 16.7247 4.05806 16.51C4.05806 16.4353 4.0674 16.37 4.08606 16.314C4.10473 16.2487 4.1234 16.1927 4.14206 16.146C4.47806 16.1273 4.80006 16.02 5.10806 15.824C5.4254 15.628 5.7334 15.3527 6.03206 14.998C6.33073 14.6433 6.62473 14.2187 6.91406 13.724C7.21273 13.22 7.5114 12.66 7.81006 12.044C8.10873 11.4187 8.41673 10.7467 8.73406 10.028C9.0514 9.30933 9.38273 8.55333 9.72806 7.76H12.3181C12.2901 8.964 12.2714 10.0233 12.2621 10.938C12.2621 11.8433 12.2714 12.6367 12.2901 13.318C12.2994 13.934 12.3227 14.4567 12.3601 14.886C12.4067 15.3153 12.4674 15.67 12.5421 15.95C12.6167 16.2207 12.7054 16.4353 12.8081 16.594C12.7241 16.7807 12.5794 16.9393 12.3741 17.07C12.1687 17.21 11.9074 17.28 11.5901 17.28C11.3007 17.28 11.0581 17.2147 10.8621 17.084C10.6754 16.9627 10.5261 16.748 10.4141 16.44C10.3114 16.1227 10.2367 15.6887 10.1901 15.138C10.1434 14.5873 10.1201 13.8827 10.1201 13.024C10.1201 12.8 10.1247 12.5433 10.1341 12.254C10.1434 11.9553 10.1527 11.6427 10.1621 11.316C10.1714 10.9893 10.1807 10.6673 10.1901 10.35C10.2087 10.0327 10.2227 9.72933 10.2321 9.44H10.1901C10.0034 9.93467 9.8214 10.392 9.64406 10.812C9.46673 11.2227 9.29406 11.6193 9.12606 12.002C8.95806 12.3753 8.79006 12.744 8.62206 13.108C8.45406 13.4627 8.27673 13.8267 8.09006 14.2C7.7634 14.8347 7.4554 15.3573 7.16606 15.768C6.88606 16.1693 6.62006 16.4867 6.36806 16.72C6.11606 16.944 5.87806 17.1027 5.65406 17.196C5.4394 17.2893 5.23873 17.336 5.05206 17.336ZM7.18006 14.704L7.65606 13.654H10.9461L10.9041 14.704H7.18006ZM6.01806 11.946C5.67273 11.946 5.3834 11.8713 5.15006 11.722C4.91673 11.5633 4.7394 11.3533 4.61806 11.092C4.50606 10.8213 4.45473 10.518 4.46406 10.182C4.48273 9.85533 4.56206 9.524 4.70206 9.188C4.84206 8.852 5.0474 8.54867 5.31806 8.278C5.59806 7.998 5.94806 7.774 6.36806 7.606C6.78806 7.42867 7.27806 7.34 7.83806 7.34C8.17406 7.34 8.52873 7.36333 8.90206 7.41C9.28473 7.44733 9.67206 7.49867 10.0641 7.564C10.4654 7.62 10.8574 7.66667 11.2401 7.704C11.6227 7.74133 11.9821 7.76 12.3181 7.76L10.8341 9.006L9.43406 8.488L9.36406 8.348C9.2334 8.30133 9.0794 8.25933 8.90206 8.222C8.72473 8.18467 8.54273 8.166 8.35606 8.166C8.01073 8.166 7.70273 8.24533 7.43206 8.404C7.17073 8.56267 6.96073 8.782 6.80206 9.062C6.65273 9.342 6.56873 9.664 6.55006 10.028C6.5314 10.2987 6.5454 10.5647 6.59206 10.826C6.64806 11.078 6.75073 11.344 6.90006 11.624C6.77873 11.736 6.63406 11.82 6.46606 11.876C6.3074 11.9227 6.15806 11.946 6.01806 11.946ZM15.5011 19.786C15.1184 19.786 14.7451 19.7627 14.3811 19.716C14.0264 19.6787 13.7091 19.6087 13.4291 19.506C13.1584 19.4033 12.9438 19.2587 12.7851 19.072C12.6264 18.8947 12.5471 18.6707 12.5471 18.4C12.5564 18.064 12.6778 17.798 12.9111 17.602C13.1351 17.406 13.4338 17.308 13.8071 17.308C14.0684 17.308 14.2924 17.35 14.4791 17.434C14.6751 17.5273 14.8338 17.644 14.9551 17.784C14.8618 17.8587 14.7918 17.938 14.7451 18.022C14.7078 18.106 14.6891 18.204 14.6891 18.316C14.6891 18.5493 14.7964 18.7127 15.0111 18.806C15.2258 18.9087 15.5338 18.96 15.9351 18.96C16.2244 18.96 16.5044 18.9133 16.7751 18.82C17.0458 18.736 17.2698 18.596 17.4471 18.4C17.6244 18.204 17.7131 17.952 17.7131 17.644C17.7224 17.3547 17.5918 17.1727 17.3211 17.098C17.0598 17.0327 16.6304 17 16.0331 17C15.5291 17 15.1138 16.9627 14.7871 16.888C14.4698 16.804 14.2318 16.678 14.0731 16.51C13.9238 16.342 13.8444 16.1273 13.8351 15.866C13.8444 15.5487 13.9471 15.2547 14.1431 14.984C14.3484 14.7133 14.5958 14.4847 14.8851 14.298C14.5304 14.1487 14.2504 13.9293 14.0451 13.64C13.8491 13.3413 13.7511 12.968 13.7511 12.52C13.7511 11.8667 13.9144 11.3253 14.2411 10.896C14.5678 10.4573 15.0018 10.1307 15.5431 9.916C16.0938 9.692 16.6911 9.58 17.3351 9.58C17.6524 9.58 17.9091 9.59867 18.1051 9.636C18.3104 9.67333 18.4878 9.71533 18.6371 9.762C18.7958 9.79933 18.9638 9.818 19.1411 9.818C19.5051 9.818 19.7711 9.72 19.9391 9.524C20.1164 9.328 20.2051 9.09467 20.2051 8.824C20.2051 8.60933 20.1351 8.40867 19.9951 8.222C20.1351 8.09133 20.2844 7.99333 20.4431 7.928C20.6018 7.86267 20.7651 7.83 20.9331 7.83C21.1664 7.83 21.3531 7.9 21.4931 8.04C21.6331 8.17067 21.7031 8.35733 21.7031 8.6C21.7031 8.88933 21.6191 9.174 21.4511 9.454C21.2831 9.72467 21.0498 9.958 20.7511 10.154C20.4524 10.3407 20.1024 10.462 19.7011 10.518C19.7944 10.658 19.8644 10.8167 19.9111 10.994C19.9578 11.162 19.9811 11.3533 19.9811 11.568C19.9811 12.1933 19.8224 12.73 19.5051 13.178C19.1878 13.626 18.7584 13.9667 18.2171 14.2C17.6758 14.4333 17.0691 14.55 16.3971 14.55C16.3038 14.55 16.2058 14.55 16.1031 14.55C16.0004 14.5407 15.8978 14.5313 15.7951 14.522C15.7204 14.578 15.6551 14.6433 15.5991 14.718C15.5524 14.7927 15.5291 14.8813 15.5291 14.984C15.5291 15.1427 15.6271 15.2407 15.8231 15.278C16.0191 15.3153 16.3084 15.334 16.6911 15.334H17.5451C18.3478 15.334 18.9264 15.474 19.2811 15.754C19.6358 16.034 19.8084 16.4167 19.7991 16.902C19.7991 17.3873 19.6684 17.8073 19.4071 18.162C19.1458 18.526 18.8004 18.8247 18.3711 19.058C17.9511 19.3007 17.4891 19.4827 16.9851 19.604C16.4904 19.7253 15.9958 19.786 15.5011 19.786ZM16.6071 13.822C16.9524 13.822 17.2231 13.7007 17.4191 13.458C17.6244 13.2153 17.7738 12.9167 17.8671 12.562C17.9698 12.198 18.0258 11.8433 18.0351 11.498C18.0258 11.1713 17.9511 10.8913 17.8111 10.658C17.6804 10.4247 17.4518 10.308 17.1251 10.308C16.8731 10.308 16.6538 10.3827 16.4671 10.532C16.2898 10.672 16.1404 10.8633 16.0191 11.106C15.9071 11.3487 15.8231 11.6147 15.7671 11.904C15.7111 12.184 15.6831 12.464 15.6831 12.744C15.6831 13.0707 15.7578 13.332 15.9071 13.528C16.0564 13.724 16.2898 13.822 16.6071 13.822Z" fill="#888888"/>
</svg>
