<svg width="24" height="24" viewBox="0 0 24 24" fill="none" xmlns="http://www.w3.org/2000/svg">
<path d="M9.44162 17.28C8.24695 17.28 7.59362 16.4307 7.48162 14.732H5.07362C4.88695 15.1613 4.72828 15.5627 4.59762 15.936L4.23362 17H2.27362L6.68362 7.76H9.69362L10.2816 14.564C10.375 15.544 10.6083 16.1787 10.9816 16.468C10.711 17.0093 10.1976 17.28 9.44162 17.28ZM5.50762 13.71H7.43962L7.27162 10.112V9.734L6.27762 11.932L5.50762 13.71ZM12.7935 11.148C13.1109 10.7 13.5075 10.3267 13.9835 10.028C14.4689 9.72933 15.0055 9.58 15.5935 9.58C16.1815 9.58 16.6155 9.67333 16.8955 9.86L19.6395 9.58L18.6875 14.956C18.3609 16.7853 17.8522 18.0593 17.1615 18.778C16.4989 19.4593 15.5235 19.8 14.2355 19.8C13.2555 19.8 12.4855 19.646 11.9255 19.338C11.3655 19.03 11.0855 18.6193 11.0855 18.106C11.0855 17.7233 11.2302 17.42 11.5195 17.196C11.8089 16.9813 12.1775 16.874 12.6255 16.874C13.0175 16.874 13.3629 16.9627 13.6615 17.14C13.8389 17.2333 13.9695 17.3453 14.0535 17.476C13.8389 17.6627 13.7315 17.91 13.7315 18.218C13.7315 18.6193 13.9182 18.82 14.2915 18.82C14.9169 18.82 15.4069 18.0827 15.7615 16.608C15.8642 16.2067 15.9575 15.8053 16.0415 15.404C15.6215 15.9173 14.9355 16.174 13.9835 16.174C13.3209 16.174 12.7982 16.0153 12.4155 15.698C12.0329 15.3807 11.8415 14.8487 11.8415 14.102C11.8415 13.6353 11.9209 13.1407 12.0795 12.618C12.2382 12.086 12.4762 11.596 12.7935 11.148ZM14.6135 14.144C14.6135 14.7787 14.7769 15.096 15.1035 15.096C15.3275 15.096 15.5469 14.9747 15.7615 14.732C15.9295 14.536 16.0462 14.2933 16.1115 14.004L16.8255 10.406C16.7789 10.3967 16.7322 10.3827 16.6855 10.364C16.5922 10.3267 16.4849 10.308 16.3635 10.308C15.7942 10.308 15.3415 10.7747 15.0055 11.708C14.7442 12.436 14.6135 13.248 14.6135 14.144Z" fill="#333333"/>
</svg>
