<svg width="24" height="24" viewBox="0 0 24 24" fill="none" xmlns="http://www.w3.org/2000/svg">
<path d="M11.1002 14.928C11.1749 15.7493 11.3896 16.2767 11.7442 16.51C11.6509 16.7527 11.4876 16.9393 11.2542 17.07C11.0302 17.21 10.7642 17.28 10.4562 17.28C10.0269 17.28 9.70023 17.14 9.47623 16.86C9.26156 16.58 9.10756 16.1927 9.01423 15.698C8.95823 15.3713 8.91623 15.04 8.88823 14.704H6.36823C6.08823 15.376 5.78489 16.1413 5.45823 17H3.66623L7.96423 7.76H10.5542L11.1002 14.928ZM8.58023 9.314C8.21623 10.1633 7.79623 11.1713 7.32023 12.338C7.23623 12.5433 7.14756 12.758 7.05423 12.982C6.97023 13.1967 6.87689 13.4207 6.77423 13.654H8.81823L8.58023 9.314ZM18.7236 15.054C18.4996 16.2113 18.2336 17.126 17.9256 17.798C17.6269 18.4793 17.2209 18.9833 16.7076 19.31C16.2036 19.646 15.5362 19.814 14.7056 19.814C13.9589 19.814 13.3196 19.674 12.7876 19.394C12.2556 19.1233 11.9896 18.7033 11.9896 18.134C11.9896 17.7607 12.1156 17.4713 12.3676 17.266C12.6196 17.0607 12.9182 16.958 13.2636 16.958C13.4969 16.958 13.7116 17 13.9076 17.084C14.1129 17.1773 14.2762 17.308 14.3976 17.476C14.3136 17.5693 14.2436 17.6767 14.1876 17.798C14.1316 17.9287 14.1036 18.0547 14.1036 18.176C14.1036 18.3907 14.1642 18.568 14.2856 18.708C14.4162 18.848 14.5889 18.918 14.8036 18.918C15.2889 18.918 15.6669 18.624 15.9376 18.036C16.2176 17.4573 16.4602 16.5613 16.6656 15.348C16.4416 15.6187 16.1429 15.8287 15.7696 15.978C15.4056 16.118 15.0182 16.188 14.6076 16.188C13.9636 16.188 13.4642 16.006 13.1096 15.642C12.7642 15.2687 12.5916 14.704 12.5916 13.948C12.5916 13.2013 12.7549 12.492 13.0816 11.82C13.4176 11.148 13.8889 10.6067 14.4956 10.196C15.1116 9.78533 15.8162 9.58 16.6096 9.58C17.0669 9.58 17.5149 9.66867 17.9536 9.846L19.7876 9.636L18.7236 15.054ZM17.4356 10.728C17.3142 10.6253 17.1696 10.5507 17.0016 10.504C16.8429 10.448 16.6936 10.42 16.5536 10.42C16.1429 10.42 15.8022 10.6347 15.5316 11.064C15.2609 11.484 15.0602 11.988 14.9296 12.576C14.8082 13.164 14.7476 13.6913 14.7476 14.158C14.7476 14.5033 14.8036 14.7693 14.9156 14.956C15.0276 15.1333 15.2189 15.222 15.4896 15.222C16.2082 15.222 16.6936 14.564 16.9456 13.248L17.4356 10.728Z" fill="#888888"/>
</svg>
