<svg width="24" height="24" viewBox="0 0 24 24" fill="none" xmlns="http://www.w3.org/2000/svg">
<path d="M9.10234 8.76L11.4403 18H8.37434L7.85634 15.788H5.42034L4.91634 18H3.09634L5.61634 8.76H9.10234ZM5.68634 14.612H7.59034L6.62434 10.468L5.68634 14.612ZM15.3861 20.002C15.7128 20.002 15.9508 19.876 16.1001 19.624C16.2495 19.372 16.3428 19.0407 16.3801 18.63C16.4175 18.2287 16.4361 17.6593 16.4361 16.922V16.446C16.0161 16.9313 15.3675 17.174 14.4901 17.174C13.5941 17.174 12.9268 16.8893 12.4881 16.32C12.0588 15.7413 11.8441 14.9573 11.8441 13.968C11.8441 12.848 12.1568 12.0033 12.7821 11.434C13.4075 10.8647 14.2988 10.58 15.4561 10.58C16.0815 10.58 16.6461 10.6733 17.1501 10.86L19.0541 10.58V16.586C19.0541 17.594 18.9375 18.4013 18.7041 19.008C18.4801 19.6147 18.0928 20.0627 17.5421 20.352C17.0008 20.6507 16.2495 20.8 15.2881 20.8C14.8215 20.8 14.3548 20.7393 13.8881 20.618C13.4308 20.4967 13.0435 20.3053 12.7261 20.044C12.4181 19.7827 12.2641 19.456 12.2641 19.064C12.2641 18.6813 12.4135 18.392 12.7121 18.196C13.0201 18 13.3981 17.902 13.8461 17.902C13.9675 17.902 14.1028 17.9113 14.2521 17.93C14.4108 17.9487 14.5228 17.9813 14.5881 18.028C14.5508 18.3267 14.5321 18.5647 14.5321 18.742C14.5321 19.582 14.8168 20.002 15.3861 20.002ZM16.3101 11.616C16.1141 11.4853 15.8761 11.42 15.5961 11.42C15.1855 11.42 14.9241 11.6347 14.8121 12.064C14.7001 12.4933 14.6441 13.072 14.6441 13.8C14.6441 14.472 14.6908 15.0273 14.7841 15.466C14.8868 15.8953 15.1248 16.11 15.4981 16.11C15.7968 16.11 16.0068 15.9653 16.1281 15.676C16.2495 15.3773 16.3101 15.018 16.3101 14.598V11.616Z" fill="#333333"/>
</svg>
