<svg width="24" height="24" viewBox="0 0 24 24" fill="none" xmlns="http://www.w3.org/2000/svg">
<path d="M9.99761 7.76L12.3916 17H10.7396L10.1796 14.648H7.43561L6.88961 17H5.34961L7.91161 7.76H9.99761ZM7.68761 13.612H9.94161L8.80761 8.81L7.68761 13.612ZM15.8486 18.974C16.278 18.974 16.5953 18.8247 16.8006 18.526C17.006 18.2367 17.132 17.8867 17.1786 17.476C17.2253 17.0653 17.2486 16.5473 17.2486 15.922V15.544C17.0713 15.8053 16.8286 16.0013 16.5206 16.132C16.2126 16.2627 15.886 16.328 15.5406 16.328C14.626 16.328 13.954 16.02 13.5246 15.404C13.1046 14.788 12.8946 13.962 12.8946 12.926C12.8946 11.8713 13.1513 11.05 13.6646 10.462C14.178 9.874 14.9386 9.58 15.9466 9.58C16.4133 9.58 16.8846 9.66867 17.3606 9.846L18.7326 9.692V15.586C18.7326 16.4913 18.6486 17.2473 18.4806 17.854C18.322 18.4607 18.0186 18.9367 17.5706 19.282C17.132 19.6273 16.516 19.8 15.7226 19.8C15.06 19.8 14.4906 19.6693 14.0146 19.408C13.548 19.1467 13.3146 18.7453 13.3146 18.204C13.3146 17.8867 13.4126 17.644 13.6086 17.476C13.8046 17.308 14.0706 17.224 14.4066 17.224C14.6493 17.224 14.836 17.2753 14.9666 17.378C14.9013 17.574 14.8686 17.784 14.8686 18.008C14.8686 18.652 15.1953 18.974 15.8486 18.974ZM17.1926 10.868C16.754 10.5693 16.32 10.42 15.8906 10.42C15.3773 10.42 15.0226 10.6487 14.8266 11.106C14.64 11.5633 14.5466 12.1467 14.5466 12.856C14.5466 13.612 14.64 14.2233 14.8266 14.69C15.0226 15.1567 15.396 15.39 15.9466 15.39C16.3666 15.39 16.6793 15.236 16.8846 14.928C17.09 14.62 17.1926 14.228 17.1926 13.752V10.868Z" fill="#888888"/>
</svg>
