<svg width="24" height="24" viewBox="0 0 24 24" fill="none" xmlns="http://www.w3.org/2000/svg">
<path d="M9.65161 8.76L11.9616 18H8.16761L7.67761 15.858H5.39561L4.91961 18H2.94561L5.45161 8.76H9.65161ZM5.67561 14.612H7.38361L6.51561 10.804L5.67561 14.612ZM16.1583 20.016C16.4383 20.016 16.639 19.8993 16.7603 19.666C16.891 19.4327 16.9703 19.1153 16.9983 18.714C17.0263 18.3127 17.0403 17.7153 17.0403 16.922V16.39C16.6017 16.8567 15.911 17.09 14.9683 17.09C14.0817 17.09 13.419 16.8147 12.9803 16.264C12.5417 15.7133 12.3223 14.9573 12.3223 13.996C12.3223 12.8387 12.663 11.98 13.3443 11.42C14.0257 10.86 14.9823 10.58 16.2143 10.58C16.9423 10.58 17.5583 10.678 18.0623 10.874L20.2323 10.524V16.586C20.2323 17.6407 20.1017 18.4713 19.8403 19.078C19.579 19.6847 19.1497 20.1233 18.5523 20.394C17.955 20.6647 17.129 20.8 16.0743 20.8C15.589 20.8 15.0897 20.7347 14.5763 20.604C14.063 20.4827 13.629 20.282 13.2743 20.002C12.9197 19.7313 12.7423 19.3953 12.7423 18.994C12.7423 18.574 12.9197 18.2613 13.2743 18.056C13.629 17.8507 14.0583 17.748 14.5623 17.748C14.693 17.748 14.847 17.7573 15.0243 17.776C15.211 17.7947 15.337 17.8227 15.4023 17.86C15.4023 18.028 15.3977 18.154 15.3883 18.238L15.3743 18.602C15.3743 19.0313 15.4257 19.372 15.5283 19.624C15.6403 19.8853 15.8503 20.016 16.1583 20.016ZM16.8723 11.476C16.807 11.4387 16.7277 11.42 16.6343 11.42C16.541 11.42 16.485 11.42 16.4663 11.42C16.1583 11.42 15.953 11.588 15.8503 11.924C15.757 12.2507 15.7103 12.694 15.7103 13.254V13.898C15.7103 14.5233 15.7383 15.0227 15.7943 15.396C15.8503 15.7693 16.009 15.956 16.2703 15.956C16.5317 15.956 16.695 15.8207 16.7603 15.55C16.835 15.2793 16.8723 14.934 16.8723 14.514V11.476Z" fill="#333333"/>
</svg>
