<svg width="24" height="24" viewBox="0 0 24 24" fill="none" xmlns="http://www.w3.org/2000/svg">
<path d="M4.82741 17.322C4.50075 17.322 4.26741 17.2427 4.12741 17.084C3.98741 16.9347 3.91741 16.7573 3.91741 16.552C3.91741 16.4867 3.92675 16.4307 3.94541 16.384C3.96408 16.328 3.97808 16.2813 3.98741 16.244C4.26741 16.2347 4.52875 16.174 4.77141 16.062C5.02341 15.9407 5.27075 15.754 5.51341 15.502C5.76541 15.25 6.02208 14.914 6.28341 14.494C6.55408 14.0647 6.84808 13.5373 7.16541 12.912C7.49208 12.2867 7.85608 11.5493 8.25741 10.7C8.65875 9.85067 9.11141 8.87067 9.61541 7.76H11.6594C11.6034 8.98267 11.5661 10.0513 11.5474 10.966C11.5287 11.8713 11.5241 12.66 11.5334 13.332C11.5334 14.0227 11.5521 14.592 11.5894 15.04C11.6267 15.488 11.6781 15.8473 11.7434 16.118C11.8181 16.3793 11.9021 16.5893 11.9954 16.748C11.9394 16.8787 11.8367 17 11.6874 17.112C11.5381 17.2333 11.3374 17.294 11.0854 17.294C10.8521 17.294 10.6607 17.2333 10.5114 17.112C10.3714 16.9907 10.2641 16.7947 10.1894 16.524C10.1241 16.244 10.0774 15.8707 10.0494 15.404C10.0214 14.928 10.0074 14.34 10.0074 13.64C10.0074 13.3787 10.0121 13.0567 10.0214 12.674C10.0401 12.2913 10.0541 11.89 10.0634 11.47C10.0821 11.0407 10.1007 10.6253 10.1194 10.224C10.1381 9.82267 10.1567 9.46333 10.1754 9.146H10.1054C9.90008 9.65 9.69941 10.112 9.50341 10.532C9.31675 10.9427 9.13008 11.344 8.94341 11.736C8.76608 12.1187 8.58408 12.5107 8.39741 12.912C8.21075 13.304 8.01008 13.7333 7.79541 14.2C7.45941 14.8627 7.14675 15.404 6.85741 15.824C6.57741 16.2347 6.31608 16.5473 6.07341 16.762C5.83075 16.9767 5.60675 17.1213 5.40141 17.196C5.20541 17.28 5.01408 17.322 4.82741 17.322ZM6.87141 14.648L7.31941 13.654H10.5534L10.5254 14.648H6.87141ZM5.75141 11.736C5.47141 11.736 5.23341 11.666 5.03741 11.526C4.84141 11.386 4.69208 11.19 4.58941 10.938C4.49608 10.686 4.45875 10.392 4.47741 10.056C4.49608 9.72933 4.57541 9.40733 4.71541 9.09C4.86475 8.77267 5.07475 8.48333 5.34541 8.222C5.61608 7.95133 5.94741 7.73667 6.33941 7.578C6.73141 7.41933 7.18408 7.34 7.69741 7.34C7.93075 7.34 8.22008 7.36333 8.56541 7.41C8.91075 7.45667 9.27475 7.51267 9.65741 7.578C10.0494 7.634 10.4181 7.68067 10.7634 7.718C11.1181 7.75533 11.4167 7.76933 11.6594 7.76L10.3574 8.796L9.32141 8.446L9.23741 8.292C9.09741 8.24533 8.91075 8.19867 8.67741 8.152C8.44408 8.096 8.20608 8.068 7.96341 8.068C7.58075 8.068 7.24941 8.15667 6.96941 8.334C6.69875 8.502 6.48875 8.726 6.33941 9.006C6.19008 9.286 6.10141 9.594 6.07341 9.93C6.05475 10.21 6.07341 10.4807 6.12941 10.742C6.19475 11.0033 6.31141 11.26 6.47941 11.512C6.37675 11.5867 6.26008 11.6427 6.12941 11.68C5.99875 11.7173 5.87275 11.736 5.75141 11.736ZM14.6645 19.772C14.2818 19.772 13.9225 19.744 13.5865 19.688C13.2505 19.6413 12.9565 19.5573 12.7045 19.436C12.4525 19.3147 12.2565 19.1607 12.1165 18.974C11.9765 18.7967 11.9065 18.5773 11.9065 18.316C11.9158 18.008 12.0092 17.7607 12.1865 17.574C12.3638 17.3873 12.6158 17.294 12.9425 17.294C13.1292 17.294 13.3018 17.3267 13.4605 17.392C13.6192 17.4573 13.7592 17.56 13.8805 17.7C13.8058 17.756 13.7452 17.826 13.6985 17.91C13.6518 18.0033 13.6285 18.1107 13.6285 18.232C13.6285 18.484 13.7452 18.666 13.9785 18.778C14.2212 18.89 14.5805 18.946 15.0565 18.946C15.3738 18.946 15.6912 18.8947 16.0085 18.792C16.3352 18.6987 16.6012 18.5447 16.8065 18.33C17.0212 18.1153 17.1285 17.8353 17.1285 17.49C17.1378 17.182 16.9885 16.9953 16.6805 16.93C16.3818 16.8553 15.8872 16.818 15.1965 16.818C14.7858 16.818 14.4265 16.7853 14.1185 16.72C13.8198 16.6453 13.5912 16.5333 13.4325 16.384C13.2738 16.2253 13.1945 16.0153 13.1945 15.754C13.2038 15.4833 13.3018 15.2173 13.4885 14.956C13.6752 14.6853 13.9132 14.4613 14.2025 14.284C13.8478 14.1253 13.5725 13.9013 13.3765 13.612C13.1805 13.3227 13.0825 12.9633 13.0825 12.534C13.0825 11.8807 13.2365 11.3393 13.5445 10.91C13.8525 10.4713 14.2632 10.14 14.7765 9.916C15.2992 9.692 15.8638 9.58 16.4705 9.58C16.7505 9.58 16.9838 9.59867 17.1705 9.636C17.3572 9.67333 17.5252 9.71067 17.6745 9.748C17.8238 9.776 17.9778 9.79 18.1365 9.79C18.5472 9.79 18.8458 9.69667 19.0325 9.51C19.2192 9.314 19.3125 9.08067 19.3125 8.81C19.3125 8.59533 19.2425 8.376 19.1025 8.152C19.2238 8.05867 19.3545 7.984 19.4945 7.928C19.6345 7.86267 19.7792 7.83 19.9285 7.83C20.1432 7.83 20.3112 7.90467 20.4325 8.054C20.5538 8.194 20.6145 8.376 20.6145 8.6C20.6145 8.88933 20.5305 9.16933 20.3625 9.44C20.1945 9.70133 19.9612 9.92533 19.6625 10.112C19.3638 10.2893 19.0232 10.406 18.6405 10.462C18.7338 10.6113 18.8038 10.7793 18.8505 10.966C18.9065 11.1527 18.9345 11.358 18.9345 11.582C18.9345 12.198 18.7805 12.7253 18.4725 13.164C18.1738 13.6027 17.7678 13.9387 17.2545 14.172C16.7412 14.396 16.1672 14.508 15.5325 14.508C15.4392 14.508 15.3458 14.508 15.2525 14.508C15.1685 14.4987 15.0798 14.4893 14.9865 14.48C14.8932 14.5453 14.8138 14.6247 14.7485 14.718C14.6832 14.802 14.6505 14.914 14.6505 15.054C14.6505 15.25 14.7578 15.3713 14.9725 15.418C15.1872 15.4553 15.5092 15.474 15.9385 15.474H16.7225C17.4318 15.474 17.9405 15.6093 18.2485 15.88C18.5658 16.1413 18.7245 16.5007 18.7245 16.958C18.7245 17.4247 18.5985 17.8307 18.3465 18.176C18.1038 18.5307 17.7818 18.8247 17.3805 19.058C16.9885 19.2913 16.5498 19.4687 16.0645 19.59C15.5885 19.7113 15.1218 19.772 14.6645 19.772ZM15.7705 13.808C16.1625 13.808 16.4752 13.6913 16.7085 13.458C16.9512 13.2247 17.1285 12.94 17.2405 12.604C17.3525 12.2587 17.4085 11.9227 17.4085 11.596C17.4085 11.2227 17.3152 10.9147 17.1285 10.672C16.9418 10.4293 16.6478 10.308 16.2465 10.308C15.9478 10.308 15.6912 10.3733 15.4765 10.504C15.2712 10.6253 15.1032 10.798 14.9725 11.022C14.8418 11.2367 14.7438 11.484 14.6785 11.764C14.6225 12.044 14.5945 12.3287 14.5945 12.618C14.5945 12.9913 14.6972 13.2853 14.9025 13.5C15.1078 13.7053 15.3972 13.808 15.7705 13.808Z" fill="#888888"/>
</svg>
