<svg width="24" height="24" viewBox="0 0 24 24" fill="none" xmlns="http://www.w3.org/2000/svg">
<path d="M10.7017 16.278C10.7577 16.95 10.9397 17.384 11.2477 17.58C11.1917 17.7947 11.0704 17.9627 10.8837 18.084C10.7064 18.2147 10.4964 18.28 10.2537 18.28C9.88973 18.28 9.62839 18.14 9.46973 17.86C9.32039 17.5707 9.21306 17.1833 9.14773 16.698C9.09173 16.278 9.05439 15.928 9.03573 15.648H6.41773L5.85773 17.02L5.45173 18H3.84173L8.01373 8.76H10.0577L10.7017 16.278ZM7.55173 12.778L6.80973 14.654H8.95173L8.68573 9.908L7.55173 12.778ZM17.7596 16.026C17.5263 17.23 17.2649 18.1727 16.9756 18.854C16.6863 19.5353 16.3223 20.03 15.8836 20.338C15.4543 20.6553 14.9036 20.814 14.2316 20.814C13.5409 20.814 12.9716 20.6647 12.5236 20.366C12.0849 20.0673 11.8656 19.638 11.8656 19.078C11.8656 18.7233 11.9683 18.4573 12.1736 18.28C12.3789 18.112 12.6169 18.028 12.8876 18.028C13.0649 18.028 13.2236 18.0653 13.3636 18.14C13.5129 18.2147 13.6249 18.322 13.6996 18.462C13.5223 18.658 13.4336 18.882 13.4336 19.134C13.4336 19.4047 13.5129 19.6147 13.6716 19.764C13.8396 19.9133 14.0543 19.988 14.3156 19.988C14.8756 19.988 15.2909 19.68 15.5616 19.064C15.8323 18.4573 16.0609 17.566 16.2476 16.39C16.0609 16.6607 15.7949 16.8613 15.4496 16.992C15.1043 17.1227 14.7403 17.188 14.3576 17.188C13.6949 17.188 13.1863 16.992 12.8316 16.6C12.4769 16.208 12.2996 15.634 12.2996 14.878C12.2996 14.1593 12.4536 13.4733 12.7616 12.82C13.0696 12.1573 13.5083 11.6207 14.0776 11.21C14.6469 10.79 15.3003 10.58 16.0376 10.58C16.2709 10.58 16.4903 10.6033 16.6956 10.65C16.9103 10.6967 17.1529 10.7713 17.4236 10.874L18.8236 10.692L17.7596 16.026ZM17.0456 11.854C16.8776 11.714 16.6863 11.6067 16.4716 11.532C16.2569 11.4573 16.0609 11.42 15.8836 11.42C15.4636 11.42 15.1043 11.63 14.8056 12.05C14.5069 12.4607 14.2829 12.9553 14.1336 13.534C13.9843 14.1033 13.9096 14.612 13.9096 15.06C13.9096 15.9187 14.2316 16.348 14.8756 16.348C15.3703 16.348 15.7436 16.138 15.9956 15.718C16.2569 15.2887 16.4576 14.7473 16.5976 14.094L17.0456 11.854Z" fill="#333333"/>
</svg>
