<svg width="24" height="24" viewBox="0 0 24 24" fill="none" xmlns="http://www.w3.org/2000/svg">
<path d="M10.0138 15.536H5.92581L5.14181 18H4.28781L7.57781 8.2H8.36181L11.6518 18H10.7978L10.0138 15.536ZM9.80381 14.878L7.96981 9.138L6.13581 14.878H9.80381ZM17.9957 11V17.804C17.9957 18.8773 17.7343 19.694 17.2117 20.254C16.689 20.814 15.9283 21.094 14.9297 21.094C14.0523 21.094 13.2543 20.9073 12.5357 20.534L12.8017 19.946C13.1657 20.1233 13.5063 20.2493 13.8237 20.324C14.1503 20.408 14.5097 20.45 14.9017 20.45C15.7137 20.45 16.311 20.226 16.6937 19.778C17.0857 19.33 17.2817 18.6393 17.2817 17.706V16.908C17.0763 17.3 16.773 17.6033 16.3717 17.818C15.9703 18.0327 15.513 18.14 14.9997 18.14C14.0943 18.14 13.3803 17.804 12.8577 17.132C12.3443 16.46 12.0877 15.5407 12.0877 14.374C12.0877 13.6647 12.209 13.0487 12.4517 12.526C12.6943 11.994 13.035 11.5833 13.4737 11.294C13.9217 11.0047 14.4397 10.86 15.0277 10.86C15.4943 10.86 15.919 10.9673 16.3017 11.182C16.6843 11.3967 16.9877 11.7047 17.2117 12.106H17.2397L17.3797 11H17.9957ZM17.2397 14.024C17.2397 13.2493 17.039 12.6333 16.6377 12.176C16.2457 11.7093 15.7183 11.476 15.0557 11.476C14.3743 11.476 13.833 11.742 13.4317 12.274C13.0303 12.7967 12.8297 13.506 12.8297 14.402C12.8297 15.3727 13.0257 16.1333 13.4177 16.684C13.8097 17.2347 14.351 17.51 15.0417 17.51C15.7137 17.51 16.2457 17.3047 16.6377 16.894C17.039 16.474 17.2397 15.9093 17.2397 15.2V14.024Z" fill="#333333"/>
</svg>
