<svg width="24" height="24" viewBox="0 0 24 24" fill="none" xmlns="http://www.w3.org/2000/svg">
<path d="M10.2667 15.376H6.90673L6.13673 17H3.93873L9.04873 7.2H10.8267L12.4927 17H10.4767L10.2667 15.376ZM10.0567 13.766L9.53873 9.874L7.67673 13.766H10.0567ZM20.5896 10L19.4136 16.72C19.2083 17.9053 18.765 18.7967 18.0836 19.394C17.4116 20.0007 16.5063 20.304 15.3676 20.304C14.817 20.304 14.299 20.2387 13.8136 20.108C13.3283 19.9773 12.9223 19.7907 12.5956 19.548L13.4076 18.33C13.7063 18.498 14.0376 18.6287 14.4016 18.722C14.7656 18.8247 15.1156 18.876 15.4516 18.876C16.693 18.876 17.4536 18.078 17.7336 16.482L17.7616 16.3C17.3136 16.7947 16.6603 17.042 15.8016 17.042C14.9896 17.042 14.3503 16.8087 13.8836 16.342C13.4263 15.866 13.1976 15.2127 13.1976 14.382C13.1976 13.4953 13.347 12.7113 13.6456 12.03C13.9443 11.3393 14.3643 10.8073 14.9056 10.434C15.447 10.0513 16.0676 9.86 16.7676 9.86C17.2623 9.86 17.687 9.94867 18.0416 10.126C18.3963 10.3033 18.6483 10.5553 18.7976 10.882H18.8256L19.1056 10H20.5896ZM18.2656 13.066C18.2936 12.87 18.3076 12.6927 18.3076 12.534C18.3076 12.0953 18.1956 11.764 17.9716 11.54C17.757 11.3067 17.4443 11.19 17.0336 11.19C16.6323 11.19 16.2776 11.3207 15.9696 11.582C15.6616 11.8433 15.419 12.2027 15.2416 12.66C15.0736 13.108 14.9896 13.6213 14.9896 14.2C14.9896 14.676 15.097 15.04 15.3116 15.292C15.5356 15.5347 15.8623 15.656 16.2916 15.656C16.777 15.656 17.1783 15.5113 17.4956 15.222C17.813 14.9233 18.0183 14.5033 18.1116 13.962L18.2656 13.066Z" fill="#888888"/>
</svg>
