<svg width="24" height="24" viewBox="0 0 24 24" fill="none" xmlns="http://www.w3.org/2000/svg">
<path d="M9.26673 16.376H5.90673L5.13673 18H2.93873L8.04873 8.2H9.82673L11.4927 18H9.47673L9.26673 16.376ZM9.05673 14.766L8.53873 10.874L6.67673 14.766H9.05673ZM19.5896 11L18.4136 17.72C18.2083 18.9053 17.765 19.7967 17.0836 20.394C16.4116 21.0007 15.5063 21.304 14.3676 21.304C13.817 21.304 13.299 21.2387 12.8136 21.108C12.3283 20.9773 11.9223 20.7907 11.5956 20.548L12.4076 19.33C12.7063 19.498 13.0376 19.6287 13.4016 19.722C13.7656 19.8247 14.1156 19.876 14.4516 19.876C15.693 19.876 16.4536 19.078 16.7336 17.482L16.7616 17.3C16.3136 17.7947 15.6603 18.042 14.8016 18.042C13.9896 18.042 13.3503 17.8087 12.8836 17.342C12.4263 16.866 12.1976 16.2127 12.1976 15.382C12.1976 14.4953 12.347 13.7113 12.6456 13.03C12.9443 12.3393 13.3643 11.8073 13.9056 11.434C14.447 11.0513 15.0676 10.86 15.7676 10.86C16.2623 10.86 16.687 10.9487 17.0416 11.126C17.3963 11.3033 17.6483 11.5553 17.7976 11.882H17.8256L18.1056 11H19.5896ZM17.2656 14.066C17.2936 13.87 17.3076 13.6927 17.3076 13.534C17.3076 13.0953 17.1956 12.764 16.9716 12.54C16.757 12.3067 16.4443 12.19 16.0336 12.19C15.6323 12.19 15.2776 12.3207 14.9696 12.582C14.6616 12.8433 14.419 13.2027 14.2416 13.66C14.0736 14.108 13.9896 14.6213 13.9896 15.2C13.9896 15.676 14.097 16.04 14.3116 16.292C14.5356 16.5347 14.8623 16.656 15.2916 16.656C15.777 16.656 16.1783 16.5113 16.4956 16.222C16.813 15.9233 17.0183 15.5033 17.1116 14.962L17.2656 14.066Z" fill="#333333"/>
</svg>
