<svg width="24" height="24" viewBox="0 0 24 24" fill="none" xmlns="http://www.w3.org/2000/svg">
<path d="M10.5187 15.376H7.14473L6.65473 17H4.55473L7.94273 7.2H9.72073L13.1087 17H11.0087L10.5187 15.376ZM10.0287 13.766L8.83873 9.846L7.63473 13.766H10.0287ZM19.9736 10V16.72C19.9736 17.9053 19.6796 18.7967 19.0916 19.394C18.5036 20.0007 17.631 20.304 16.4736 20.304C15.9323 20.304 15.419 20.2387 14.9336 20.108C14.4576 19.9773 14.033 19.7907 13.6596 19.548L14.2616 18.33C14.5976 18.498 14.9523 18.6287 15.3256 18.722C15.699 18.8247 16.0536 18.876 16.3896 18.876C17.0243 18.876 17.4956 18.6753 17.8036 18.274C18.1116 17.882 18.2656 17.2847 18.2656 16.482V16.258C18.079 16.51 17.8223 16.706 17.4956 16.846C17.169 16.9767 16.7816 17.042 16.3336 17.042C15.363 17.042 14.607 16.7247 14.0656 16.09C13.5336 15.4553 13.2676 14.5593 13.2676 13.402C13.2676 12.282 13.5243 11.414 14.0376 10.798C14.551 10.1727 15.2743 9.86 16.2076 9.86C17.1783 9.86 17.883 10.2007 18.3216 10.882H18.3496L18.4896 10H19.9736ZM18.1956 13.066C18.1956 12.4593 18.065 11.9973 17.8036 11.68C17.5423 11.3533 17.1643 11.19 16.6696 11.19C16.147 11.19 15.7456 11.386 15.4656 11.778C15.1856 12.1607 15.0456 12.716 15.0456 13.444C15.0456 14.172 15.181 14.7227 15.4516 15.096C15.7316 15.4693 16.1376 15.656 16.6696 15.656C17.1643 15.656 17.5423 15.5113 17.8036 15.222C18.065 14.9233 18.1956 14.5033 18.1956 13.962V13.066Z" fill="#888888"/>
</svg>
