<svg width="24" height="24" viewBox="0 0 24 24" fill="none" xmlns="http://www.w3.org/2000/svg">
<path d="M9.88781 15.536H5.78581L4.58181 18H3.67181L8.68381 8.2H9.46781L11.0358 18H10.2378L9.88781 15.536ZM9.78981 14.878L8.94981 9.068L6.10781 14.878H9.78981ZM18.6117 11L17.4077 17.804C17.221 18.8773 16.829 19.694 16.2317 20.254C15.6343 20.814 14.8363 21.094 13.8377 21.094C13.399 21.094 12.9743 21.0473 12.5637 20.954C12.153 20.8607 11.789 20.7207 11.4717 20.534L11.8357 19.946C12.181 20.1233 12.5077 20.2493 12.8157 20.324C13.1237 20.408 13.469 20.45 13.8517 20.45C14.6637 20.45 15.303 20.2213 15.7697 19.764C16.2363 19.316 16.549 18.63 16.7077 17.706L16.8477 16.936C16.5677 17.3187 16.2177 17.6173 15.7977 17.832C15.387 18.0373 14.9343 18.14 14.4397 18.14C13.6837 18.14 13.0863 17.9067 12.6477 17.44C12.2183 16.964 12.0037 16.306 12.0037 15.466C12.0037 14.5887 12.153 13.8 12.4517 13.1C12.7597 12.4 13.1843 11.854 13.7257 11.462C14.2763 11.0607 14.897 10.86 15.5877 10.86C16.0637 10.86 16.4837 10.972 16.8477 11.196C17.221 11.42 17.4823 11.7233 17.6317 12.106H17.6597L17.9957 11H18.6117ZM17.3237 14.024C17.361 13.828 17.3797 13.6133 17.3797 13.38C17.3797 12.792 17.221 12.33 16.9037 11.994C16.5863 11.6487 16.1477 11.476 15.5877 11.476C15.065 11.476 14.5843 11.6487 14.1457 11.994C13.7163 12.33 13.3757 12.7967 13.1237 13.394C12.881 13.9913 12.7597 14.654 12.7597 15.382C12.7597 16.054 12.9137 16.5767 13.2217 16.95C13.5297 17.3233 13.9637 17.51 14.5237 17.51C15.1863 17.51 15.751 17.3047 16.2177 16.894C16.6937 16.474 16.9923 15.9093 17.1137 15.2L17.3237 14.024Z" fill="#333333"/>
</svg>
