<svg width="24" height="24" viewBox="0 0 24 24" fill="none" xmlns="http://www.w3.org/2000/svg">
<path d="M10.3309 14.886H6.52288L5.86488 17H4.49288L7.82488 7.2H9.02888L12.3609 17H10.9889L10.3309 14.886ZM9.99488 13.836L8.42688 8.81L6.85888 13.836H9.99488ZM18.8909 10V16.776C18.8909 17.896 18.6156 18.7453 18.0649 19.324C17.5142 19.9027 16.7069 20.192 15.6429 20.192C15.1762 20.192 14.7189 20.136 14.2709 20.024C13.8322 19.912 13.4356 19.7533 13.0809 19.548L13.4729 18.68C14.1729 19.016 14.8822 19.184 15.6009 19.184C17.0569 19.184 17.7849 18.3207 17.7849 16.594V15.95C17.5982 16.3047 17.3136 16.5847 16.9309 16.79C16.5482 16.9953 16.1142 17.098 15.6289 17.098C14.7049 17.098 13.9769 16.7667 13.4449 16.104C12.9129 15.4413 12.6469 14.536 12.6469 13.388C12.6469 12.2867 12.9082 11.4233 13.4309 10.798C13.9536 10.1727 14.6722 9.86 15.5869 9.86C16.0722 9.86 16.4969 9.958 16.8609 10.154C17.2342 10.35 17.5282 10.6347 17.7429 11.008H17.7709L17.9109 10H18.8909ZM17.7009 13.038C17.7009 12.3287 17.5329 11.7733 17.1969 11.372C16.8609 10.9707 16.3942 10.77 15.7969 10.77C15.1902 10.77 14.7096 11.008 14.3549 11.484C14.0096 11.9507 13.8369 12.5947 13.8369 13.416C13.8369 14.2747 14.0096 14.9467 14.3549 15.432C14.7002 15.908 15.1809 16.146 15.7969 16.146C16.3942 16.146 16.8609 15.9687 17.1969 15.614C17.5329 15.25 17.7009 14.746 17.7009 14.102V13.038Z" fill="#888888"/>
</svg>
