<svg width="24" height="24" viewBox="0 0 24 24" fill="none" xmlns="http://www.w3.org/2000/svg">
<g clip-path="url(#clip0_201_8285)">
<path d="M-0.195312 16.458C-0.432292 16.458 -0.657878 16.401 -0.87207 16.2871C-1.08171 16.1777 -1.27311 16.0205 -1.44629 15.8154C-1.83366 15.346 -2.02734 14.7832 -2.02734 14.127C-2.02734 13.8581 -1.92253 13.5892 -1.71289 13.3203C-1.4987 13.0469 -1.15007 12.8008 -0.666992 12.582C0.417643 12.0944 2.0013 11.8506 4.08398 11.8506C4.08398 11.8506 5.99121 10.3717 9.80566 7.41406C9.99707 7.26367 10.111 7.17253 10.1475 7.14062C10.2067 7.07682 10.2819 7.04492 10.373 7.04492C10.4688 7.04492 10.5599 7.05404 10.6465 7.07227C10.7376 7.09049 10.8197 7.11556 10.8926 7.14746C11.0521 7.21582 11.1318 7.29557 11.1318 7.38672C11.1318 7.45052 11.1159 7.50065 11.084 7.53711L7.17383 11.8301H8.8418C8.91471 11.666 9.03548 11.4382 9.2041 11.1465L9.83301 10.1211C10.0791 9.72917 10.3206 9.36003 10.5576 9.01367L11.248 8.05664C11.9544 7.11328 12.4648 6.6416 12.7793 6.6416C12.8112 6.6416 12.9342 6.6849 13.1484 6.77148C13.3672 6.85352 13.5518 6.93555 13.7021 7.01758C14.0667 7.20898 14.249 7.389 14.249 7.55762C14.249 7.71712 14.1784 7.88574 14.0371 8.06348C13.8958 8.23665 13.7454 8.44173 13.5859 8.67871C13.431 8.91569 13.2624 9.18457 13.0801 9.48535C12.9023 9.78158 12.7223 10.0983 12.54 10.4355C12.3577 10.7682 12.1937 11.0918 12.0479 11.4062C11.7152 12.1217 11.5488 12.6071 11.5488 12.8623C11.5488 13.113 11.5671 13.2952 11.6035 13.4092C11.6445 13.5231 11.6924 13.6074 11.7471 13.6621C11.8337 13.7487 11.9727 13.792 12.1641 13.792C12.3555 13.792 12.5492 13.7578 12.7451 13.6895C12.9456 13.6165 13.1393 13.5277 13.3262 13.4229C13.5176 13.3135 13.7044 13.1973 13.8867 13.0742C14.069 12.9466 14.2467 12.8281 14.4199 12.7188C14.821 12.4727 15.1172 12.3496 15.3086 12.3496C15.5 12.3496 15.6276 12.3952 15.6914 12.4863C15.7598 12.5729 15.7939 12.6868 15.7939 12.8281C15.7939 12.9694 15.7347 13.1608 15.6162 13.4023C15.4977 13.6393 15.3314 13.8854 15.1172 14.1406C14.903 14.3958 14.6501 14.6488 14.3584 14.8994C14.0667 15.1455 13.7477 15.3665 13.4014 15.5625C12.6221 15.9954 11.8587 16.2119 11.1113 16.2119C10.4368 16.2119 9.84212 15.9749 9.32715 15.501C8.75293 14.9769 8.46582 14.3001 8.46582 13.4707C8.46582 13.4297 8.46582 13.3887 8.46582 13.3477C8.46582 13.3066 8.4681 13.2633 8.47266 13.2178L5.6084 13.5801C4.80176 14.373 3.8265 15.0521 2.68262 15.6172C1.53418 16.1777 0.57487 16.458 -0.195312 16.458ZM19.4102 11.4473C19.1048 11.6113 18.8132 11.7913 18.5352 11.9873C18.2572 12.1833 18.0111 12.3838 17.7969 12.5889C17.5827 12.7939 17.4756 12.9717 17.4756 13.1221C17.4756 13.2725 17.5964 13.3477 17.8379 13.3477C18.0065 13.3477 18.2526 13.2656 18.5762 13.1016L20.0596 12.3154C20.333 12.1742 20.5768 12.0078 20.791 11.8164L21.2764 11.3926C21.6227 11.0781 21.985 10.9209 22.3633 10.9209C22.5592 10.9209 22.7552 11.0303 22.9512 11.249C23.1471 11.4678 23.2451 11.6911 23.2451 11.9189C23.2451 12.443 23.0309 13.2178 22.6025 14.2432L23.6963 13.3477L25.9521 11.5908C26.1937 11.4085 26.3942 11.3174 26.5537 11.3174C26.9001 11.3174 27.0732 11.4837 27.0732 11.8164C27.0732 12.1582 26.8499 12.598 26.4033 13.1357C26.1937 13.391 25.902 13.6667 25.5283 13.9629L21.7412 16.834C21.4906 17.0345 21.2923 17.2008 21.1465 17.333C20.5449 18.3037 19.9661 19.0078 19.4102 19.4453C18.6035 20.0833 17.8561 20.4023 17.168 20.4023C16.8581 20.4023 16.6051 20.3158 16.4092 20.1426C16.2314 19.9922 16.1426 19.8167 16.1426 19.6162C16.1426 19.4294 16.1927 19.2266 16.293 19.0078C16.3932 18.7936 16.5277 18.5771 16.6963 18.3584C16.8649 18.1396 17.0563 17.9232 17.2705 17.709C17.4847 17.4948 17.7126 17.2874 17.9541 17.0869C18.5921 16.5811 19.0456 16.2324 19.3145 16.041L19.9844 15.5557C20.2487 14.9951 20.4766 14.389 20.668 13.7373C19.7884 14.512 18.8519 15.1204 17.8584 15.5625C17.3617 15.7858 16.9492 15.8975 16.6211 15.8975C16.293 15.8975 15.9922 15.8291 15.7188 15.6924C15.4453 15.5557 15.2106 15.3757 15.0146 15.1523C14.609 14.6829 14.4062 14.1383 14.4062 13.5186C14.4062 12.8714 14.6501 12.3268 15.1377 11.8848C15.8714 11.2194 16.9105 10.6406 18.2549 10.1484C19.5492 9.66992 20.6452 9.43066 21.543 9.43066C21.8392 9.43066 21.9873 9.5765 21.9873 9.86816C21.9873 10.0687 21.9486 10.2236 21.8711 10.333C21.7982 10.4378 21.6182 10.5404 21.3311 10.6406C21.0485 10.7409 20.734 10.8594 20.3877 10.9961C20.0459 11.1328 19.7201 11.2832 19.4102 11.4473Z" fill="#333333"/>
</g>
<defs>
<clipPath id="clip0_201_8285">
<rect width="24" height="24" fill="white"/>
</clipPath>
</defs>
</svg>
