<svg width="24" height="24" viewBox="0 0 24 24" fill="none" xmlns="http://www.w3.org/2000/svg">
<path d="M5.1102 14.452H9.2542L7.1682 9.132L5.1102 14.452ZM10.2482 17L9.5762 15.278H4.7882L4.1302 17H2.8982L6.2862 8.292H8.0642L11.4662 17H10.2482ZM14.7092 16.174H17.7892C17.9572 16.174 18.0785 16.1367 18.1532 16.062C18.2278 15.9873 18.2652 15.8613 18.2652 15.684V11.526C18.2652 11.3487 18.2278 11.2227 18.1532 11.148C18.0785 11.0733 17.9572 11.036 17.7892 11.036H14.7092C14.5318 11.036 14.4152 11.064 14.3592 11.12C14.3032 11.176 14.2752 11.2927 14.2752 11.47V15.74C14.2752 15.9267 14.3032 16.048 14.3592 16.104C14.4152 16.1507 14.5318 16.174 14.7092 16.174ZM19.4692 16.818H19.4832V17.868C19.4832 18.6053 19.1145 18.974 18.3772 18.974H13.3092V18.148H17.8452C18.0225 18.148 18.1392 18.12 18.1952 18.064C18.2512 18.008 18.2792 17.8913 18.2792 17.714V16.972H18.2652V16.552C18.1438 16.8507 17.8872 17 17.4952 17H14.1772C13.4398 17 13.0712 16.6313 13.0712 15.894V11.316C13.0712 10.5787 13.4398 10.21 14.1772 10.21H17.4952C17.8872 10.21 18.1438 10.3593 18.2652 10.658V10.21H19.4692V16.818Z" fill="#333333"/>
</svg>
