<svg width="24" height="24" viewBox="0 0 24 24" fill="none" xmlns="http://www.w3.org/2000/svg">
<path d="M5.94368 13.876H8.53502L7.26235 9.35267L5.94368 13.876ZM9.33235 16.6667L8.79568 14.7807H5.68302L5.13102 16.6667H1.40502L4.97768 7.12933H9.57768L13.1503 16.6667H9.33235ZM18.0958 15.762H18.5252C18.9136 15.762 19.1078 15.6138 19.1078 15.3173V10.5793C19.1078 10.2829 18.9136 10.1347 18.5252 10.1347H18.0958C17.9016 10.1347 17.7738 10.1653 17.7125 10.2267C17.6512 10.288 17.6205 10.4158 17.6205 10.61V15.2867C17.6205 15.4911 17.6512 15.624 17.7125 15.6853C17.7738 15.7364 17.9016 15.762 18.0958 15.762ZM19.1078 9.23H22.7878V17.6173C22.7878 18.4249 22.3841 18.8287 21.5765 18.8287H14.4465V17.924H18.6325C18.8369 17.924 18.9647 17.8933 19.0158 17.832C19.0772 17.7707 19.1078 17.6429 19.1078 17.4487V16.268C18.9647 16.5338 18.6683 16.6667 18.2185 16.6667H15.1518C14.3443 16.6667 13.9405 16.2629 13.9405 15.4553V10.4413C13.9405 9.63378 14.3443 9.23 15.1518 9.23H18.2185C18.6683 9.23 18.9647 9.36289 19.1078 9.62867V9.23Z" fill="#888888"/>
</svg>
