<svg width="24" height="24" viewBox="0 0 24 24" fill="none" xmlns="http://www.w3.org/2000/svg">
<path d="M3.24574 17L7.83774 7.2H10.0777L11.2257 17H9.26574L9.02774 14.76H6.22774L5.20574 17H3.24574ZM8.90174 13.5L8.57974 10.56C8.54241 10.364 8.53308 10.1353 8.55174 9.874C8.55174 9.79933 8.56108 9.678 8.57974 9.51H8.52374L8.41174 9.874C8.34641 10.0793 8.26241 10.308 8.15974 10.56L6.80174 13.5H8.90174ZM14.4683 19.94C13.8336 19.94 13.2643 19.8233 12.7603 19.59C12.5829 19.5153 12.3776 19.3987 12.1443 19.24L12.9703 18.12H13.1103C13.2316 18.2413 13.3483 18.3347 13.4603 18.4C13.7496 18.5867 14.1136 18.68 14.5523 18.68C15.0096 18.68 15.3923 18.5447 15.7003 18.274C16.0083 18.0127 16.2089 17.6347 16.3023 17.14L16.3723 16.72C16.2509 16.804 16.1109 16.874 15.9523 16.93C15.6163 17.07 15.2663 17.14 14.9023 17.14C14.1463 17.14 13.5583 16.9253 13.1383 16.496C12.7183 16.0573 12.5083 15.418 12.5083 14.578C12.5083 14.2233 12.5409 13.864 12.6063 13.5C12.8023 12.3147 13.2129 11.414 13.8383 10.798C14.4636 10.1727 15.1963 9.86 16.0363 9.86C16.5403 9.86 16.9836 10.0233 17.3663 10.35C17.5529 10.5367 17.6836 10.7 17.7583 10.84H17.8283L18.1223 10H19.5223L18.2623 17.14C18.1596 17.6813 17.9403 18.162 17.6043 18.582C17.2683 19.002 16.8296 19.3333 16.2883 19.576C15.7563 19.8187 15.1496 19.94 14.4683 19.94ZM15.4763 15.88C15.7469 15.88 16.0129 15.81 16.2743 15.67C16.3956 15.6047 16.5029 15.5347 16.5963 15.46L17.1983 12.03C17.1609 11.89 17.0863 11.75 16.9743 11.61C16.7503 11.33 16.4796 11.19 16.1623 11.19C15.8076 11.19 15.4856 11.372 15.1963 11.736C14.9163 12.1 14.7063 12.688 14.5663 13.5C14.4916 13.9293 14.4543 14.2747 14.4543 14.536C14.4543 15.432 14.7949 15.88 15.4763 15.88Z" fill="#333333"/>
</svg>
