<svg width="24" height="24" viewBox="0 0 24 24" fill="none" xmlns="http://www.w3.org/2000/svg">
<path d="M13.8638 17.25H8.87952V16.6655C9.31246 16.6655 9.61552 16.6304 9.7887 16.56C9.96187 16.4842 10.0485 16.3625 10.0485 16.1947C10.0485 16.146 10.0349 16.0621 10.0079 15.9431C9.98081 15.8186 9.91858 15.6211 9.82117 15.3505C9.72375 15.0799 9.56681 14.7038 9.35034 14.2221H6.1601C6.13845 14.2762 6.09515 14.3845 6.03021 14.5468C5.97068 14.7038 5.90574 14.8769 5.83539 15.0663C5.76503 15.2503 5.7028 15.4208 5.64868 15.5778C5.59998 15.7293 5.57562 15.8294 5.57562 15.8781C5.57562 16.3489 6.01668 16.6114 6.8988 16.6655V17.25H3.19714V16.6655C3.42444 16.6222 3.62197 16.56 3.78973 16.4788C3.9575 16.3922 4.11444 16.2488 4.26056 16.0486C4.41209 15.8429 4.56903 15.5453 4.73138 15.1556L8.05151 7.07855H8.63599L12.3295 15.4885C12.5189 15.9268 12.7571 16.2299 13.0439 16.3976C13.3361 16.5654 13.6094 16.6547 13.8638 16.6655V17.25ZM8.96881 13.3616L7.65375 10.4312L6.47668 13.3616H8.96881ZM21.7379 11.2186C21.7379 11.3755 21.7082 11.4946 21.6486 11.5757C21.5891 11.6569 21.4781 11.6975 21.3158 11.6975C21.1913 11.6975 21.029 11.6921 20.8287 11.6813C20.6339 11.6705 20.4905 11.6623 20.3985 11.6569C20.523 11.7922 20.615 11.9573 20.6745 12.1521C20.734 12.3469 20.7638 12.539 20.7638 12.7285C20.7638 13.1019 20.6583 13.4699 20.4472 13.8325C20.2416 14.195 19.9304 14.4981 19.5137 14.7416C19.097 14.9798 18.5774 15.0988 17.9551 15.0988C17.7819 15.0988 17.6033 15.088 17.4193 15.0663C17.2407 15.0447 17.0675 15.0149 16.8998 14.9771C16.7753 15.0799 16.6562 15.1881 16.5426 15.3018C16.4344 15.4154 16.3802 15.5318 16.3802 15.6508C16.3802 15.7969 16.5047 15.8889 16.7537 15.9268C17.0026 15.9593 17.3219 15.9755 17.7115 15.9755C18.1066 15.9701 18.526 15.9782 18.9698 15.9999C19.4136 16.0161 19.8303 16.0783 20.2199 16.1866C20.615 16.2948 20.937 16.4815 21.1859 16.7467C21.4349 17.0065 21.5593 17.3799 21.5593 17.8669C21.5593 18.3161 21.424 18.7058 21.1534 19.0359C20.8883 19.3714 20.55 19.6474 20.1387 19.8639C19.7274 20.0804 19.2945 20.24 18.8399 20.3428C18.3853 20.4511 17.9713 20.5052 17.5979 20.5052C16.9864 20.5052 16.4317 20.443 15.9338 20.3185C15.4359 20.1994 15.0381 20.029 14.7405 19.8071C14.4482 19.5906 14.3021 19.3389 14.3021 19.0521C14.3021 18.8086 14.4077 18.5569 14.6187 18.2972C14.8352 18.0428 15.1978 17.7722 15.7065 17.4854C15.4467 17.4096 15.2411 17.2852 15.0895 17.112C14.9434 16.9334 14.8704 16.7521 14.8704 16.5681C14.8704 16.3083 15.0057 16.0134 15.2762 15.6833C15.5468 15.3532 15.8499 15.0474 16.1854 14.766C15.8878 14.6361 15.5982 14.3899 15.3168 14.0273C15.0408 13.6593 14.9028 13.2372 14.9028 12.7609C14.9028 12.2576 15.03 11.8247 15.2844 11.4621C15.5387 11.0941 15.8824 10.8127 16.3153 10.6179C16.7537 10.423 17.2407 10.3256 17.7765 10.3256C18.1607 10.3256 18.4854 10.3689 18.7506 10.4555C19.0158 10.5421 19.2674 10.6314 19.5056 10.7234C19.7491 10.81 20.0251 10.8533 20.3336 10.8533C20.458 10.8533 20.6339 10.8452 20.8612 10.8289C21.0885 10.8127 21.2698 10.8046 21.4051 10.8046C21.5296 10.8046 21.6161 10.8343 21.6649 10.8939C21.7136 10.9534 21.7379 11.0616 21.7379 11.2186ZM18.9211 13.0045C18.9211 12.8259 18.9048 12.6148 18.8724 12.3713C18.8399 12.1277 18.7804 11.8896 18.6938 11.6569C18.6126 11.4242 18.4963 11.2321 18.3447 11.0806C18.1932 10.929 17.9984 10.8533 17.7603 10.8533C17.5005 10.8533 17.2975 10.9344 17.1514 11.0968C17.0107 11.2592 16.9106 11.4621 16.8511 11.7056C16.797 11.9492 16.7699 12.1927 16.7699 12.4362C16.7699 12.7447 16.7997 13.064 16.8592 13.3941C16.9241 13.7188 17.0405 13.9948 17.2083 14.2221C17.3814 14.4494 17.6304 14.563 17.9551 14.563C18.2148 14.563 18.4151 14.4792 18.5558 14.3114C18.6965 14.1436 18.7912 13.938 18.8399 13.6945C18.894 13.4509 18.9211 13.2209 18.9211 13.0045ZM20.6339 18.3378C20.6339 18.1862 20.5717 18.0672 20.4472 17.9806C20.3281 17.8994 20.182 17.8399 20.0089 17.802C19.7599 17.7425 19.4108 17.6992 18.9617 17.6721C18.5179 17.6505 18.0633 17.6342 17.5979 17.6234C17.1379 17.6126 16.7537 17.5991 16.4452 17.5828C16.3099 17.7398 16.2179 17.8832 16.1692 18.0131C16.1205 18.1484 16.0961 18.262 16.0961 18.354C16.0961 18.5272 16.1773 18.6706 16.3397 18.7842C16.502 18.8979 16.7077 18.9845 16.9566 19.044C17.211 19.1089 17.4707 19.1522 17.7359 19.1739C18.0011 19.2009 18.2392 19.2145 18.4503 19.2145C18.7425 19.2145 19.0591 19.1874 19.4 19.1333C19.741 19.0846 20.0305 18.9953 20.2686 18.8654C20.5121 18.7355 20.6339 18.5597 20.6339 18.3378Z" fill="#888888"/>
</svg>
