<svg width="24" height="24" viewBox="0 0 24 24" fill="none" xmlns="http://www.w3.org/2000/svg">
<path d="M9.45703 14V13.5898C9.76237 13.5898 9.97428 13.5648 10.0928 13.5146C10.2158 13.4645 10.2773 13.3802 10.2773 13.2617C10.2773 13.2344 10.2728 13.1956 10.2637 13.1455C10.2546 13.0908 10.2318 13.0133 10.1953 12.9131C10.1634 12.8083 10.1156 12.6738 10.0518 12.5098C9.98796 12.3411 9.89909 12.1292 9.78516 11.874H7.5498C7.47233 12.0654 7.40397 12.2409 7.34473 12.4004C7.2946 12.5371 7.24674 12.6693 7.20117 12.7969C7.16016 12.9199 7.13965 12.9997 7.13965 13.0361C7.13965 13.2093 7.21257 13.3392 7.3584 13.4258C7.50879 13.5124 7.74577 13.5671 8.06934 13.5898V14H5.47168V13.5898C5.59017 13.5671 5.69499 13.5397 5.78613 13.5078C5.88184 13.4714 5.9707 13.4167 6.05273 13.3438C6.13932 13.2663 6.22135 13.1637 6.29883 13.0361C6.3763 12.904 6.45833 12.7354 6.54492 12.5303L8.87598 6.86328H9.28613L11.877 12.7627C11.9453 12.9176 12.0228 13.0475 12.1094 13.1523C12.196 13.2526 12.2871 13.3369 12.3828 13.4053C12.4785 13.4691 12.5742 13.5146 12.6699 13.542C12.7702 13.5693 12.8659 13.5853 12.957 13.5898V14H9.45703ZM8.5957 9.21484L7.76855 11.2725H9.51855L8.5957 9.21484ZM18.4736 9.76855C18.4736 9.87793 18.4531 9.96224 18.4121 10.0215C18.3711 10.0762 18.2936 10.1035 18.1797 10.1035C18.1341 10.1035 18.0817 10.1035 18.0225 10.1035C17.9632 10.099 17.9017 10.0967 17.8379 10.0967C17.7786 10.0921 17.7217 10.0876 17.667 10.083C17.6123 10.0785 17.569 10.0762 17.5371 10.0762C17.6237 10.1719 17.6875 10.2881 17.7285 10.4248C17.7695 10.5615 17.79 10.696 17.79 10.8281C17.79 11.0241 17.749 11.2223 17.667 11.4229C17.585 11.6188 17.4619 11.7965 17.2979 11.9561C17.1338 12.111 16.9287 12.2386 16.6826 12.3389C16.4365 12.4391 16.1494 12.4893 15.8213 12.4893C15.6982 12.4893 15.5729 12.4824 15.4453 12.4688C15.3223 12.4505 15.2015 12.43 15.083 12.4072C14.9919 12.4801 14.9076 12.5576 14.8301 12.6396C14.7526 12.7171 14.7139 12.7969 14.7139 12.8789C14.7139 12.9564 14.7663 13.0111 14.8711 13.043C14.9759 13.0703 15.1126 13.0885 15.2812 13.0977C15.4544 13.1022 15.6481 13.1045 15.8623 13.1045C16.0811 13.0999 16.3044 13.1045 16.5322 13.1182C16.7601 13.1318 16.9811 13.1615 17.1953 13.207C17.4141 13.248 17.6077 13.3164 17.7764 13.4121C17.9495 13.5078 18.0885 13.6377 18.1934 13.8018C18.2982 13.9658 18.3506 14.1755 18.3506 14.4307C18.3506 14.6403 18.305 14.8317 18.2139 15.0049C18.1273 15.1781 18.0088 15.333 17.8584 15.4697C17.7126 15.611 17.5439 15.7318 17.3525 15.832C17.1611 15.9323 16.9629 16.0166 16.7578 16.085C16.5527 16.1533 16.3454 16.2035 16.1357 16.2354C15.9307 16.2673 15.7415 16.2832 15.5684 16.2832C15.2448 16.2832 14.9417 16.2581 14.6592 16.208C14.3812 16.1579 14.1374 16.0872 13.9277 15.9961C13.7227 15.9095 13.5586 15.8024 13.4355 15.6748C13.3171 15.5518 13.2578 15.415 13.2578 15.2646C13.2578 15.0915 13.333 14.916 13.4834 14.7383C13.6338 14.5605 13.8867 14.3691 14.2422 14.1641C14.0599 14.1139 13.9163 14.0273 13.8115 13.9043C13.7067 13.7812 13.6543 13.6536 13.6543 13.5215C13.6543 13.4303 13.6794 13.3324 13.7295 13.2275C13.7842 13.1227 13.8525 13.0156 13.9346 12.9062C14.0212 12.7923 14.1191 12.6807 14.2285 12.5713C14.3424 12.4619 14.4587 12.3571 14.5771 12.2568C14.4723 12.2113 14.3652 12.1452 14.2559 12.0586C14.151 11.9674 14.0553 11.8604 13.9688 11.7373C13.8867 11.6143 13.8184 11.4775 13.7637 11.3271C13.709 11.1768 13.6816 11.0173 13.6816 10.8486C13.6816 10.5843 13.7318 10.3473 13.832 10.1377C13.9368 9.9235 14.0804 9.74349 14.2627 9.59766C14.445 9.45182 14.6592 9.34017 14.9053 9.2627C15.1514 9.18066 15.4157 9.13965 15.6982 9.13965C15.8988 9.13965 16.0742 9.16016 16.2246 9.20117C16.375 9.23763 16.5163 9.27865 16.6484 9.32422C16.7806 9.36979 16.9128 9.41309 17.0449 9.4541C17.1771 9.49056 17.3252 9.50879 17.4893 9.50879C17.5348 9.50879 17.5895 9.50651 17.6533 9.50195C17.7217 9.4974 17.79 9.49512 17.8584 9.49512C17.9313 9.49056 18.002 9.486 18.0703 9.48145C18.1387 9.47689 18.1956 9.47461 18.2412 9.47461C18.3324 9.47461 18.3939 9.49512 18.4258 9.53613C18.4577 9.57715 18.4736 9.65462 18.4736 9.76855ZM16.498 11.0195C16.498 10.8919 16.4867 10.7415 16.4639 10.5684C16.4411 10.3952 16.4001 10.2311 16.3408 10.0762C16.2816 9.91667 16.1995 9.78223 16.0947 9.67285C15.9899 9.56348 15.8532 9.50879 15.6846 9.50879C15.5479 9.50879 15.4339 9.54297 15.3428 9.61133C15.2516 9.67969 15.1787 9.76855 15.124 9.87793C15.0739 9.98275 15.0374 10.1012 15.0146 10.2334C14.9964 10.3656 14.9873 10.4954 14.9873 10.623C14.9873 10.7871 14.9987 10.958 15.0215 11.1357C15.0443 11.3089 15.0853 11.4684 15.1445 11.6143C15.2083 11.7601 15.2926 11.8809 15.3975 11.9766C15.5068 12.0677 15.6481 12.1133 15.8213 12.1133C15.958 12.1133 16.0697 12.0791 16.1562 12.0107C16.2428 11.9378 16.3112 11.849 16.3613 11.7441C16.416 11.6348 16.4525 11.5163 16.4707 11.3887C16.4889 11.2611 16.498 11.138 16.498 11.0195ZM17.7012 14.7656C17.7012 14.6608 17.6579 14.5788 17.5713 14.5195C17.4847 14.4603 17.3822 14.417 17.2637 14.3896C17.1315 14.3577 16.9561 14.3327 16.7373 14.3145C16.5186 14.3008 16.2884 14.2894 16.0469 14.2803C15.8099 14.2712 15.5752 14.262 15.3428 14.2529C15.1149 14.2484 14.9212 14.2415 14.7617 14.2324C14.666 14.3464 14.5999 14.4489 14.5635 14.54C14.5316 14.6312 14.5156 14.7087 14.5156 14.7725C14.5156 14.8955 14.5726 14.9958 14.6865 15.0732C14.805 15.1553 14.9486 15.2168 15.1172 15.2578C15.2904 15.3034 15.4727 15.3353 15.6641 15.3535C15.8555 15.3717 16.0241 15.3809 16.1699 15.3809C16.3249 15.3809 16.4912 15.3695 16.6689 15.3467C16.8467 15.3285 17.0107 15.2943 17.1611 15.2441C17.3161 15.1986 17.4437 15.137 17.5439 15.0596C17.6488 14.9821 17.7012 14.8841 17.7012 14.7656Z" fill="#333333"/>
</svg>
