<svg width="24" height="24" viewBox="0 0 24 24" fill="none" xmlns="http://www.w3.org/2000/svg">
<path d="M8.54883 17V16.4434C8.96322 16.4434 9.25081 16.4093 9.41162 16.3413C9.57861 16.2733 9.66211 16.1589 9.66211 15.998C9.66211 15.9609 9.65592 15.9084 9.64355 15.8403C9.63118 15.7661 9.60026 15.661 9.55078 15.5249C9.50749 15.3826 9.44255 15.2002 9.35596 14.9775C9.26937 14.7487 9.14876 14.4611 8.99414 14.1147H5.96045C5.85531 14.3745 5.76253 14.6126 5.68213 14.8291C5.6141 15.0146 5.54915 15.194 5.4873 15.3672C5.43164 15.5342 5.40381 15.6424 5.40381 15.6919C5.40381 15.9269 5.50277 16.1032 5.70068 16.2207C5.90479 16.3382 6.2264 16.4124 6.66553 16.4434V17H3.14014V16.4434C3.30094 16.4124 3.4432 16.3753 3.56689 16.332C3.69678 16.2826 3.81738 16.2083 3.92871 16.1094C4.04622 16.0042 4.15755 15.8651 4.2627 15.6919C4.36784 15.5125 4.47917 15.2837 4.59668 15.0054L7.76025 7.31445H8.31689L11.833 15.3208C11.9258 15.5311 12.0309 15.7074 12.1484 15.8496C12.266 15.9857 12.3896 16.1001 12.5195 16.1929C12.6494 16.2795 12.7793 16.3413 12.9092 16.3784C13.0452 16.4155 13.1751 16.4372 13.2988 16.4434V17H8.54883ZM7.37988 10.5059L6.25732 13.2983H8.63232L7.37988 10.5059ZM20.7856 11.2573C20.7856 11.4058 20.7578 11.5202 20.7021 11.6006C20.6465 11.6748 20.5413 11.7119 20.3867 11.7119C20.3249 11.7119 20.2537 11.7119 20.1733 11.7119C20.0929 11.7057 20.0094 11.7026 19.9229 11.7026C19.8424 11.6965 19.7651 11.6903 19.6909 11.6841C19.6167 11.6779 19.5579 11.6748 19.5146 11.6748C19.6322 11.8047 19.7188 11.9624 19.7744 12.1479C19.8301 12.3335 19.8579 12.516 19.8579 12.6953C19.8579 12.9613 19.8022 13.2303 19.6909 13.5024C19.5796 13.7684 19.4126 14.0096 19.1899 14.2261C18.9673 14.4364 18.689 14.6095 18.355 14.7456C18.021 14.8817 17.6313 14.9497 17.186 14.9497C17.019 14.9497 16.849 14.9404 16.6758 14.9219C16.5088 14.8971 16.3449 14.8693 16.1841 14.8384C16.0604 14.9373 15.946 15.0425 15.8408 15.1538C15.7357 15.259 15.6831 15.3672 15.6831 15.4785C15.6831 15.5837 15.7542 15.6579 15.8965 15.7012C16.0387 15.7383 16.2243 15.763 16.4531 15.7754C16.6882 15.7816 16.951 15.7847 17.2417 15.7847C17.5386 15.7785 17.8416 15.7847 18.1509 15.8032C18.4601 15.8218 18.7601 15.862 19.0508 15.9238C19.3477 15.9795 19.6105 16.0723 19.8394 16.2021C20.0744 16.332 20.263 16.5083 20.4053 16.731C20.5475 16.9536 20.6187 17.2381 20.6187 17.5845C20.6187 17.869 20.5568 18.1287 20.4331 18.3638C20.3156 18.5988 20.1548 18.8091 19.9507 18.9946C19.7528 19.1864 19.5239 19.3503 19.2642 19.4863C19.0044 19.6224 18.7354 19.7368 18.457 19.8296C18.1787 19.9224 17.8973 19.9904 17.6128 20.0337C17.3345 20.077 17.0778 20.0986 16.8428 20.0986C16.4036 20.0986 15.9924 20.0646 15.6089 19.9966C15.2316 19.9285 14.9007 19.8327 14.6162 19.709C14.3379 19.5915 14.1152 19.4461 13.9482 19.2729C13.7874 19.106 13.707 18.9204 13.707 18.7163C13.707 18.4813 13.8091 18.2432 14.0132 18.002C14.2173 17.7607 14.5605 17.501 15.043 17.2227C14.7956 17.1546 14.6007 17.0371 14.4585 16.8701C14.3162 16.7031 14.2451 16.5299 14.2451 16.3506C14.2451 16.2269 14.2791 16.0939 14.3472 15.9517C14.4214 15.8094 14.5142 15.6641 14.6255 15.5156C14.743 15.361 14.876 15.2095 15.0244 15.061C15.179 14.9126 15.3368 14.7703 15.4976 14.6343C15.3553 14.5724 15.21 14.4827 15.0615 14.3652C14.9193 14.2415 14.7894 14.0962 14.6719 13.9292C14.5605 13.7622 14.4678 13.5767 14.3936 13.3726C14.3193 13.1685 14.2822 12.952 14.2822 12.7231C14.2822 12.3644 14.3503 12.0428 14.4863 11.7583C14.6286 11.4676 14.8234 11.2233 15.0708 11.0254C15.3182 10.8275 15.6089 10.6759 15.9429 10.5708C16.2769 10.4595 16.6356 10.4038 17.019 10.4038C17.2912 10.4038 17.5293 10.4316 17.7334 10.4873C17.9375 10.5368 18.1292 10.5924 18.3086 10.6543C18.488 10.7161 18.6673 10.7749 18.8467 10.8306C19.026 10.88 19.2271 10.9048 19.4497 10.9048C19.5116 10.9048 19.5858 10.9017 19.6724 10.8955C19.7651 10.8893 19.8579 10.8862 19.9507 10.8862C20.0496 10.88 20.1455 10.8739 20.2383 10.8677C20.3311 10.8615 20.4084 10.8584 20.4702 10.8584C20.5939 10.8584 20.6774 10.8862 20.7207 10.9419C20.764 10.9976 20.7856 11.1027 20.7856 11.2573ZM18.1045 12.9551C18.1045 12.7819 18.089 12.5778 18.0581 12.3428C18.0272 12.1077 17.9715 11.8851 17.8911 11.6748C17.8107 11.4583 17.6994 11.2759 17.5571 11.1274C17.4149 10.979 17.2293 10.9048 17.0005 10.9048C16.8149 10.9048 16.6603 10.9512 16.5366 11.0439C16.4129 11.1367 16.314 11.2573 16.2397 11.4058C16.1717 11.548 16.1222 11.7088 16.0913 11.8882C16.0666 12.0675 16.0542 12.2438 16.0542 12.417C16.0542 12.6396 16.0697 12.8716 16.1006 13.1128C16.1315 13.3478 16.1872 13.5643 16.2676 13.7622C16.3542 13.9601 16.4686 14.124 16.6108 14.2539C16.7593 14.3776 16.951 14.4395 17.186 14.4395C17.3716 14.4395 17.5231 14.3931 17.6406 14.3003C17.7581 14.2013 17.8509 14.0807 17.9189 13.9385C17.9932 13.79 18.0426 13.6292 18.0674 13.4561C18.0921 13.2829 18.1045 13.1159 18.1045 12.9551ZM19.7373 18.0391C19.7373 17.8968 19.6785 17.7855 19.561 17.7051C19.4435 17.6247 19.3044 17.5659 19.1436 17.5288C18.9642 17.4855 18.7261 17.4515 18.4292 17.4268C18.1323 17.4082 17.82 17.3927 17.4922 17.3804C17.1706 17.368 16.8521 17.3556 16.5366 17.3433C16.2274 17.3371 15.9645 17.3278 15.748 17.3154C15.6182 17.4701 15.5285 17.6092 15.479 17.7329C15.4357 17.8566 15.4141 17.9618 15.4141 18.0483C15.4141 18.2153 15.4914 18.3514 15.646 18.4565C15.8068 18.5679 16.0016 18.6514 16.2305 18.707C16.4655 18.7689 16.7129 18.8122 16.9727 18.8369C17.2324 18.8617 17.4613 18.874 17.6592 18.874C17.8695 18.874 18.0952 18.8586 18.3364 18.8276C18.5776 18.8029 18.8003 18.7565 19.0044 18.6885C19.2147 18.6266 19.3879 18.5431 19.5239 18.438C19.6662 18.3328 19.7373 18.1999 19.7373 18.0391Z" fill="#888888"/>
</svg>
