<svg width="24" height="24" viewBox="0 0 24 24" fill="none" xmlns="http://www.w3.org/2000/svg">
<path d="M13.292 17H9.97656V16.7607C10.1634 16.7607 10.3503 16.7288 10.5371 16.665C10.724 16.5967 10.8174 16.4508 10.8174 16.2275C10.8174 16.1182 10.7855 15.9678 10.7217 15.7764C10.6624 15.5804 10.5872 15.3753 10.4961 15.1611C10.4095 14.9469 10.3275 14.751 10.25 14.5732C10.1725 14.3955 10.1156 14.2702 10.0791 14.1973H6.83203C6.80013 14.2656 6.74089 14.3887 6.6543 14.5664C6.57227 14.7441 6.4834 14.9424 6.3877 15.1611C6.29655 15.3799 6.2168 15.5872 6.14844 15.7832C6.08008 15.9792 6.0459 16.1273 6.0459 16.2275C6.0459 16.3734 6.10514 16.485 6.22363 16.5625C6.34212 16.6354 6.47884 16.6855 6.63379 16.7129C6.78874 16.7402 6.91862 16.7562 7.02344 16.7607V17H4.37793V16.7607C4.64225 16.7471 4.85417 16.6742 5.01367 16.542C5.17773 16.4098 5.31445 16.2389 5.42383 16.0293C5.53776 15.8151 5.64941 15.5827 5.75879 15.332L8.71875 8.43457H8.93066L11.8428 15.3867C11.9521 15.6374 12.0592 15.8652 12.1641 16.0703C12.2689 16.2708 12.4056 16.4326 12.5742 16.5557C12.7474 16.6742 12.9867 16.7425 13.292 16.7607V17ZM9.9082 13.7461L8.47949 10.3281L7.02344 13.7461H9.9082ZM19.4854 11.8389C19.4854 11.971 19.4329 12.0576 19.3281 12.0986C19.2233 12.1396 19.1025 12.1602 18.9658 12.1602C18.861 12.1602 18.7516 12.1556 18.6377 12.1465C18.5283 12.1374 18.4349 12.1305 18.3574 12.126C18.4759 12.2855 18.5602 12.4655 18.6104 12.666C18.665 12.862 18.6924 13.0579 18.6924 13.2539C18.6924 13.6732 18.5853 14.0264 18.3711 14.3135C18.1615 14.596 17.888 14.8102 17.5508 14.9561C17.2135 15.0973 16.8512 15.168 16.4639 15.168C16.3226 15.168 16.179 15.1589 16.0332 15.1406C15.8919 15.1224 15.7484 15.0905 15.6025 15.0449C15.4977 15.1315 15.3929 15.234 15.2881 15.3525C15.1878 15.4665 15.1377 15.5941 15.1377 15.7354C15.1377 15.8994 15.2402 16.0088 15.4453 16.0635C15.6504 16.1182 15.9147 16.1478 16.2383 16.1523C16.5664 16.1523 16.9128 16.1569 17.2773 16.166C17.6419 16.1751 17.986 16.2161 18.3096 16.2891C18.6377 16.362 18.9043 16.4941 19.1094 16.6855C19.3145 16.8724 19.417 17.1504 19.417 17.5195C19.417 17.8978 19.3122 18.2259 19.1025 18.5039C18.8975 18.7865 18.6309 19.0189 18.3027 19.2012C17.9746 19.3835 17.6283 19.5179 17.2637 19.6045C16.8991 19.6956 16.5596 19.7412 16.2451 19.7412C16.0856 19.7412 15.8691 19.7184 15.5957 19.6729C15.3223 19.6318 15.0443 19.5635 14.7617 19.4678C14.4792 19.3721 14.2399 19.249 14.0439 19.0986C13.8525 18.9482 13.7568 18.7682 13.7568 18.5586C13.7568 18.4036 13.8298 18.2191 13.9756 18.0049C14.126 17.7907 14.2923 17.5856 14.4746 17.3896C14.6569 17.1982 14.7982 17.0524 14.8984 16.9521C14.7936 16.8792 14.6706 16.7812 14.5293 16.6582C14.388 16.5352 14.3174 16.403 14.3174 16.2617C14.3174 16.1068 14.3766 15.945 14.4951 15.7764C14.6136 15.6032 14.7503 15.4414 14.9053 15.291C15.0602 15.1406 15.1924 15.0221 15.3018 14.9355C14.9691 14.7806 14.7048 14.5459 14.5088 14.2314C14.3174 13.917 14.2217 13.5798 14.2217 13.2197C14.2217 12.7959 14.3265 12.4313 14.5361 12.126C14.7458 11.8161 15.0215 11.5791 15.3633 11.415C15.7096 11.251 16.0811 11.1689 16.4775 11.1689C16.7191 11.1689 16.9538 11.2054 17.1816 11.2783C17.4095 11.3512 17.6351 11.4264 17.8584 11.5039C18.0863 11.5768 18.3164 11.6133 18.5488 11.6133C18.6536 11.6133 18.7607 11.6064 18.8701 11.5928C18.9795 11.5791 19.0911 11.5723 19.2051 11.5723C19.3099 11.5723 19.3828 11.5837 19.4238 11.6064C19.4648 11.6292 19.4854 11.7067 19.4854 11.8389ZM17.6055 13.4248C17.6055 13.165 17.5713 12.8848 17.5029 12.584C17.4346 12.2786 17.3115 12.0166 17.1338 11.7979C16.9561 11.5791 16.7054 11.4697 16.3818 11.4697C16.1084 11.4697 15.8919 11.5449 15.7324 11.6953C15.5775 11.8457 15.4658 12.0348 15.3975 12.2627C15.3337 12.486 15.3018 12.7139 15.3018 12.9463C15.3018 13.2061 15.3359 13.4863 15.4043 13.7871C15.4772 14.0833 15.6025 14.3385 15.7803 14.5527C15.9626 14.7624 16.2178 14.8672 16.5459 14.8672C16.833 14.8672 17.0518 14.7965 17.2021 14.6553C17.3571 14.514 17.4619 14.334 17.5166 14.1152C17.5758 13.8919 17.6055 13.6618 17.6055 13.4248ZM18.9658 17.752C18.9658 17.5833 18.8997 17.4603 18.7676 17.3828C18.64 17.3053 18.5033 17.2507 18.3574 17.2188C18.1979 17.1823 17.9837 17.1527 17.7148 17.1299C17.446 17.1071 17.1566 17.0889 16.8467 17.0752C16.5368 17.0661 16.2383 17.0547 15.9512 17.041C15.6641 17.0319 15.4248 17.0182 15.2334 17C15.1195 17.1367 14.9941 17.3031 14.8574 17.499C14.7207 17.695 14.6523 17.8932 14.6523 18.0938C14.6523 18.2806 14.7367 18.4333 14.9053 18.5518C15.0739 18.6702 15.279 18.7591 15.5205 18.8184C15.7666 18.8822 16.0059 18.9255 16.2383 18.9482C16.4753 18.971 16.6621 18.9824 16.7988 18.9824C16.9857 18.9824 17.1999 18.9642 17.4414 18.9277C17.6875 18.8913 17.9268 18.8275 18.1592 18.7363C18.3916 18.6452 18.583 18.5199 18.7334 18.3604C18.8883 18.2008 18.9658 17.998 18.9658 17.752Z" fill="#888888"/>
</svg>
