<svg width="24" height="24" viewBox="0 0 24 24" fill="none" xmlns="http://www.w3.org/2000/svg">
<path d="M8.74313 11.344C9.39647 11.2507 9.99847 11.204 10.5491 11.204L10.4091 7.942C10.1851 8.34333 9.8678 8.98733 9.45713 9.874C9.10247 10.63 8.86447 11.12 8.74313 11.344ZM12.9291 16.356C12.9665 16.496 12.9291 16.6313 12.8171 16.762C12.7051 16.8833 12.5511 16.9813 12.3551 17.056C12.1685 17.14 11.9911 17.182 11.8231 17.182C11.5525 17.182 11.3985 17.098 11.3611 16.93C11.0251 15.5953 10.7778 14.0087 10.6191 12.17C9.77913 12.1607 8.9438 12.24 8.11313 12.408C7.2358 13.8733 6.41913 15.222 5.66313 16.454C5.58847 16.5847 5.43447 16.6967 5.20113 16.79C4.95847 16.874 4.73447 16.916 4.52913 16.916C4.2678 16.916 4.13713 16.846 4.13713 16.706C4.13713 16.65 4.1558 16.5893 4.19313 16.524C4.9398 15.2173 5.63047 14.0227 6.26513 12.94L6.02713 13.024C5.8778 13.08 5.74247 13.108 5.62113 13.108C5.4998 13.108 5.40647 13.08 5.34113 13.024C5.26647 12.968 5.22913 12.898 5.22913 12.814C5.22913 12.7207 5.2758 12.6273 5.36913 12.534C5.45313 12.4313 5.57913 12.3427 5.74713 12.268C6.1858 12.072 6.5778 11.918 6.92313 11.806C7.42713 10.938 7.9638 9.95333 8.53313 8.852C9.18647 7.592 9.73713 6.60733 10.1851 5.898C10.2131 5.86067 10.2505 5.82333 10.2971 5.786L10.2831 5.716C10.2831 5.548 10.3998 5.39867 10.6331 5.268C10.8758 5.128 11.1185 5.058 11.3611 5.058C11.6598 5.058 11.8138 5.17 11.8231 5.394L11.8651 6.332C11.9491 8.58133 12.0565 10.476 12.1871 12.016C12.3271 13.5467 12.5745 14.9933 12.9291 16.356ZM16.0301 15.012C16.4128 14.4987 16.7441 13.9573 17.0241 13.388C17.2668 12.9213 17.5235 12.3427 17.7941 11.652C18.0648 10.9613 18.2001 10.392 18.2001 9.944C18.2001 9.79467 18.1815 9.678 18.1441 9.594C17.8641 9.61267 17.6961 9.52867 17.6401 9.342C17.5748 9.10867 17.5048 8.992 17.4301 8.992C17.3741 8.992 17.3181 9.02933 17.2621 9.104C17.2061 9.16933 17.1268 9.29067 17.0241 9.468C16.8935 9.664 16.7535 9.93467 16.6041 10.28C16.2961 10.9333 16.0441 11.5727 15.8481 12.198C15.6241 12.842 15.4468 13.4253 15.3161 13.948C15.1855 14.4707 15.1201 14.97 15.1201 15.446C15.1201 15.6513 15.1341 15.852 15.1621 16.048L15.4561 15.74C15.6335 15.5347 15.8248 15.292 16.0301 15.012ZM18.9841 8.404C19.2641 8.516 19.4648 8.67467 19.5861 8.88C19.7075 9.08533 19.7681 9.34667 19.7681 9.664C19.7681 9.96267 19.6935 10.476 19.5441 11.204C19.1335 13.1267 18.7975 14.8813 18.5361 16.468C18.2841 18.0547 18.1021 19.6227 17.9901 21.172C17.9808 21.3027 17.9621 21.4147 17.9341 21.508C17.9155 21.6107 17.8735 21.732 17.8081 21.872C17.7055 22.0773 17.5421 22.2593 17.3181 22.418C17.1035 22.586 16.8981 22.67 16.7021 22.67C16.5248 22.67 16.3895 22.5907 16.2961 22.432L15.8901 21.732C15.3021 20.7053 14.8028 19.8653 14.3921 19.212C14.3641 19.1747 14.3501 19.128 14.3501 19.072C14.3501 18.9133 14.4668 18.764 14.7001 18.624C14.9335 18.484 15.1715 18.414 15.4141 18.414C15.6568 18.414 15.8248 18.4933 15.9181 18.652C16.0488 18.8947 16.1981 19.156 16.3661 19.436L16.6461 19.926C16.8515 18.274 17.0801 16.7153 17.3321 15.25C16.9028 15.8473 16.4501 16.3607 15.9741 16.79C15.5075 17.2193 15.0735 17.434 14.6721 17.434C14.3641 17.434 14.0981 17.294 13.8741 17.014C13.6875 16.7807 13.5941 16.4447 13.5941 16.006C13.5941 15.7633 13.6128 15.5253 13.6501 15.292C13.6968 15.0587 13.7668 14.7413 13.8601 14.34L13.9441 14.004C14.2241 12.7347 14.6395 11.498 15.1901 10.294C15.4515 9.74333 15.7128 9.286 15.9741 8.922C16.2448 8.558 16.5855 8.28267 16.9961 8.096C17.2481 7.97467 17.5281 7.914 17.8361 7.914C18.2935 7.914 18.6435 8.068 18.8861 8.376L18.9841 8.404Z" fill="#888888"/>
</svg>
