<svg width="24" height="24" viewBox="0 0 24 24" fill="none" xmlns="http://www.w3.org/2000/svg">
<path d="M9.12891 8.19727H10.0244L11.665 18H10.7422L10.2705 15.0947H6.08691L4.37793 18H3.37305L9.12891 8.19727ZM10.1406 14.2812L9.4707 9.91309C9.4388 9.66699 9.42285 9.43229 9.42285 9.20898H9.39551L9.33398 9.35938C9.30664 9.43229 9.24284 9.56445 9.14258 9.75586C9.04232 9.94271 8.17415 11.4512 6.53809 14.2812H10.1406ZM12.5059 19.9414C13.1712 20.3288 13.8115 20.5225 14.4268 20.5225C15.2015 20.5225 15.819 20.3037 16.2793 19.8662C16.7396 19.4333 17.0859 18.7132 17.3184 17.7061L17.667 16.1338H17.6396C17.2432 16.8265 16.8444 17.3392 16.4434 17.6719C16.0423 18.0046 15.5889 18.1709 15.083 18.1709C14.4541 18.1709 13.9642 17.9521 13.6133 17.5146C13.2624 17.0771 13.0869 16.4414 13.0869 15.6074C13.0869 14.737 13.2692 13.9349 13.6338 13.2012C14.0029 12.4629 14.5111 11.8841 15.1582 11.4648C15.8053 11.041 16.5186 10.8291 17.2979 10.8291C17.6123 10.8291 17.9906 10.8564 18.4326 10.9111C18.8747 10.9613 19.2529 11.0205 19.5674 11.0889L18.207 17.501C17.9108 18.8636 17.4528 19.8343 16.833 20.4131C16.2178 20.9964 15.377 21.2881 14.3105 21.2881C13.6178 21.2881 12.9616 21.1195 12.3418 20.7822L12.5059 19.9414ZM18.5762 11.7246C18.1751 11.6289 17.7148 11.5811 17.1953 11.5811C16.6029 11.5811 16.0583 11.752 15.5615 12.0938C15.0693 12.431 14.6797 12.9072 14.3926 13.5225C14.11 14.1331 13.9688 14.8008 13.9688 15.5254C13.9688 16.7878 14.3949 17.4189 15.2471 17.4189C15.6436 17.4189 16.04 17.2526 16.4365 16.9199C16.8376 16.5827 17.193 16.1224 17.5029 15.5391C17.8128 14.9512 18.0293 14.3724 18.1523 13.8027L18.5762 11.7246Z" fill="#333333"/>
</svg>
