<svg width="24" height="24" viewBox="0 0 24 24" fill="none" xmlns="http://www.w3.org/2000/svg">
<path d="M10.1123 18L9.66797 15.2588H5.51172L3.92578 18H2.57227L8.41016 8.19727H9.61328L11.3223 18H10.1123ZM8.85449 10.0498C8.84993 10.0042 8.84538 9.95182 8.84082 9.89258C8.84082 9.83333 8.84082 9.77409 8.84082 9.71484C8.84082 9.65104 8.84082 9.5918 8.84082 9.53711C8.84082 9.47786 8.84082 9.42773 8.84082 9.38672H8.81348C8.7998 9.42773 8.78158 9.47786 8.75879 9.53711C8.736 9.5918 8.71094 9.65104 8.68359 9.71484C8.65625 9.77409 8.62663 9.83333 8.59473 9.89258C8.56738 9.95182 8.54232 10.0042 8.51953 10.0498L6.09961 14.2197H9.4834L8.85449 10.0498ZM17.9395 17.4941C17.8255 18.041 17.6751 18.5446 17.4883 19.0049C17.3014 19.4697 17.0531 19.8708 16.7432 20.208C16.4378 20.5498 16.0596 20.8141 15.6084 21.001C15.1572 21.1924 14.6081 21.2881 13.9609 21.2881C13.5143 21.2881 13.1247 21.2357 12.792 21.1309C12.4639 21.026 12.1631 20.9007 11.8896 20.7549L12.1016 19.709C12.3887 19.8822 12.694 20.028 13.0176 20.1465C13.3411 20.265 13.6898 20.3242 14.0635 20.3242C14.4691 20.3242 14.82 20.265 15.1162 20.1465C15.417 20.028 15.6745 19.8525 15.8887 19.6201C16.1074 19.3923 16.2874 19.112 16.4287 18.7793C16.5745 18.4466 16.6953 18.0661 16.791 17.6377L17.0303 16.5439H17.0029C16.8298 16.8219 16.6589 17.0635 16.4902 17.2686C16.3262 17.4691 16.153 17.6377 15.9707 17.7744C15.7884 17.9066 15.597 18.0046 15.3965 18.0684C15.196 18.1367 14.9749 18.1709 14.7334 18.1709C14.4189 18.1709 14.1341 18.1139 13.8789 18C13.6237 17.8906 13.4049 17.7266 13.2227 17.5078C13.0449 17.2891 12.9059 17.0156 12.8057 16.6875C12.71 16.3594 12.6621 15.9811 12.6621 15.5527C12.6621 15.1471 12.7054 14.7484 12.792 14.3564C12.8831 13.9645 13.013 13.5931 13.1816 13.2422C13.3503 12.8913 13.5553 12.57 13.7969 12.2783C14.043 11.9821 14.321 11.7269 14.6309 11.5127C14.9408 11.2985 15.2803 11.1322 15.6494 11.0137C16.0231 10.8906 16.4219 10.8291 16.8457 10.8291C17.2695 10.8291 17.6934 10.8564 18.1172 10.9111C18.541 10.9658 18.9307 11.0273 19.2861 11.0957L17.9395 17.4941ZM17.9941 11.9229C17.8392 11.8864 17.6501 11.8545 17.4268 11.8271C17.208 11.7998 16.9733 11.7861 16.7227 11.7861C16.2943 11.7861 15.9023 11.8864 15.5469 12.0869C15.1914 12.2829 14.8838 12.5518 14.624 12.8936C14.3688 13.2308 14.1683 13.625 14.0225 14.0762C13.8812 14.5273 13.8105 15.0036 13.8105 15.5049C13.8105 15.751 13.8311 15.9788 13.8721 16.1885C13.9176 16.3981 13.986 16.5781 14.0771 16.7285C14.1729 16.8789 14.2936 16.9974 14.4395 17.084C14.5898 17.1706 14.7721 17.2139 14.9863 17.2139C15.237 17.2139 15.4671 17.1615 15.6768 17.0566C15.891 16.9518 16.0869 16.8128 16.2646 16.6396C16.4424 16.4665 16.5996 16.2705 16.7363 16.0518C16.8776 15.8285 17.0007 15.6006 17.1055 15.3682C17.2148 15.1357 17.306 14.9079 17.3789 14.6846C17.4518 14.4567 17.5088 14.2516 17.5498 14.0693L17.9941 11.9229Z" fill="#333333"/>
</svg>
