<svg width="24" height="24" viewBox="0 0 24 24" fill="none" xmlns="http://www.w3.org/2000/svg">
<path d="M9.32715 8.19727H9.95605L11.5488 18H10.8652L10.373 14.9512H6.16211L4.35059 18H3.63965L9.32715 8.19727ZM10.291 14.3291L9.58691 9.79688C9.55046 9.5599 9.52767 9.31152 9.51855 9.05176H9.49121L9.26562 9.50293L6.49707 14.3291H10.291ZM12.417 20.1396C13.055 20.5042 13.6839 20.6865 14.3037 20.6865C15.1331 20.6865 15.7848 20.4564 16.2588 19.9961C16.7373 19.5404 17.0951 18.7952 17.332 17.7607L17.7764 15.7852H17.749C17.2796 16.6283 16.8239 17.2367 16.3818 17.6104C15.9443 17.984 15.4681 18.1709 14.9531 18.1709C14.3242 18.1709 13.8434 17.9544 13.5107 17.5215C13.1826 17.084 13.0186 16.4596 13.0186 15.6484C13.0186 14.7507 13.2054 13.9303 13.5791 13.1875C13.9528 12.4447 14.4655 11.8659 15.1172 11.4512C15.7689 11.0365 16.4821 10.8291 17.2568 10.8291C17.4893 10.8291 17.8219 10.8519 18.2549 10.8975C18.6878 10.943 19.0615 11.0046 19.376 11.082L18.002 17.5078C17.7103 18.8568 17.2637 19.8229 16.6621 20.4062C16.0651 20.9941 15.238 21.2881 14.1807 21.2881C13.529 21.2881 12.9023 21.1263 12.3008 20.8027L12.417 20.1396ZM18.6445 11.5605C18.1888 11.4557 17.6943 11.4033 17.1611 11.4033C16.5231 11.4033 15.9329 11.5833 15.3906 11.9434C14.8529 12.2988 14.4313 12.7933 14.126 13.4268C13.8252 14.0557 13.6748 14.7598 13.6748 15.5391C13.6748 16.9108 14.1283 17.5967 15.0352 17.5967C15.4408 17.5967 15.86 17.4121 16.293 17.043C16.7259 16.6693 17.1224 16.1634 17.4824 15.5254C17.8424 14.8874 18.0908 14.238 18.2275 13.5771L18.6445 11.5605Z" fill="#333333"/>
</svg>
