<svg width="24" height="24" viewBox="0 0 24 24" fill="none" xmlns="http://www.w3.org/2000/svg">
<path d="M8.05566 7.83984L12.335 17H10.8584L9.90137 14.8125H5.6084L4.6377 17H3.16113L7.44043 7.83984H8.05566ZM7.76855 9.91797L6.11426 13.6504H9.39551L7.76855 9.91797ZM16.4502 10.0273C16.8421 10.0273 17.2386 10.123 17.6396 10.3145C18.0498 10.4967 18.4007 10.752 18.6924 11.0801V10.1641H19.8135V16.8633C19.8135 17.6745 19.6494 18.349 19.3213 18.8867C18.9932 19.4245 18.5557 19.8255 18.0088 20.0898C17.4619 20.3542 16.8649 20.4863 16.2178 20.4863C15.7985 20.4863 15.4385 20.4362 15.1377 20.3359C14.846 20.2448 14.5954 20.1263 14.3857 19.9805C14.1761 19.8438 13.9847 19.7116 13.8115 19.584V18.3809C13.9482 18.4811 14.126 18.6087 14.3447 18.7637C14.5726 18.9277 14.8415 19.0736 15.1514 19.2012C15.4704 19.3288 15.8258 19.3926 16.2178 19.3926C16.6644 19.3926 17.0745 19.3105 17.4482 19.1465C17.8219 18.9824 18.1227 18.7409 18.3506 18.4219C18.5785 18.1029 18.6924 17.7201 18.6924 17.2734V15.8379C18.4554 16.2025 18.1318 16.5215 17.7217 16.7949C17.3206 17.0684 16.8604 17.2051 16.3408 17.2051C15.7575 17.2051 15.2243 17.0592 14.7412 16.7676C14.2581 16.4668 13.8708 16.0521 13.5791 15.5234C13.2965 14.9948 13.1553 14.3841 13.1553 13.6914C13.1553 12.9349 13.2965 12.2832 13.5791 11.7363C13.8708 11.1895 14.2673 10.7702 14.7686 10.4785C15.2699 10.1777 15.8304 10.0273 16.4502 10.0273ZM16.6553 11.1348C16.1631 11.1348 15.7438 11.2578 15.3975 11.5039C15.0511 11.7409 14.7822 12.0553 14.5908 12.4473C14.4085 12.8301 14.3174 13.2448 14.3174 13.6914C14.3174 14.1289 14.4085 14.5299 14.5908 14.8945C14.7731 15.2591 15.0283 15.5508 15.3564 15.7695C15.6937 15.9883 16.0811 16.0977 16.5186 16.0977C16.9378 16.0977 17.3115 15.9883 17.6396 15.7695C17.9678 15.5508 18.2275 15.25 18.4189 14.8672C18.6104 14.4844 18.7015 14.0514 18.6924 13.5684L18.6787 12.2559C18.3962 11.9004 18.0908 11.627 17.7627 11.4355C17.4437 11.235 17.0745 11.1348 16.6553 11.1348Z" fill="#333333"/>
</svg>
