<svg width="24" height="24" viewBox="0 0 24 24" fill="none" xmlns="http://www.w3.org/2000/svg">
<path d="M8.70605 7.70312L12.9443 17H9.96387L9.5127 15.7695H6.61426L6.16309 17H3.18262L7.4209 7.70312H8.70605ZM8.06348 11.832L7.36621 13.7188H8.76074L8.06348 11.832ZM16.7041 9.82227C17.0687 9.82227 17.4242 9.9043 17.7705 10.0684C18.126 10.2233 18.4176 10.4238 18.6455 10.6699V10.0273H20.9971V16.7949C20.9971 17.5332 20.8148 18.1758 20.4502 18.7227C20.0856 19.2786 19.6025 19.7116 19.001 20.0215C18.3994 20.3314 17.7386 20.4863 17.0186 20.4863C16.4352 20.4863 15.9294 20.4043 15.501 20.2402C15.0726 20.0853 14.6442 19.8665 14.2158 19.584V17.5059C14.5075 17.6699 14.7718 17.8158 15.0088 17.9434C15.2549 18.071 15.5192 18.1712 15.8018 18.2441C16.0843 18.3262 16.417 18.3672 16.7998 18.3672C17.3649 18.3672 17.8115 18.2077 18.1396 17.8887C18.4769 17.5697 18.6455 17.2096 18.6455 16.8086V15.8379C18.4723 16.2207 18.208 16.5443 17.8525 16.8086C17.4971 17.0729 17.0687 17.2051 16.5674 17.2051C16.0479 17.2051 15.5602 17.0729 15.1045 16.8086C14.6488 16.5443 14.2751 16.1387 13.9834 15.5918C13.7008 15.0358 13.5596 14.3385 13.5596 13.5C13.5596 12.7161 13.7008 12.0508 13.9834 11.5039C14.2751 10.957 14.6579 10.5423 15.1318 10.2598C15.6149 9.9681 16.139 9.82227 16.7041 9.82227ZM17.1963 12.1191C16.859 12.1191 16.5765 12.2559 16.3486 12.5293C16.1299 12.8027 16.0205 13.1263 16.0205 13.5C16.0205 13.8737 16.1344 14.1882 16.3623 14.4434C16.5902 14.6986 16.891 14.8262 17.2646 14.8262C17.4652 14.8262 17.6702 14.776 17.8799 14.6758C18.0895 14.5664 18.2673 14.4069 18.4131 14.1973C18.568 13.9785 18.6455 13.7005 18.6455 13.3633V12.6934C18.445 12.5293 18.2171 12.3926 17.9619 12.2832C17.7158 12.1738 17.4606 12.1191 17.1963 12.1191Z" fill="#888888"/>
</svg>
