<svg width="24" height="24" viewBox="0 0 24 24" fill="none" xmlns="http://www.w3.org/2000/svg">
<path d="M7.62402 7.77148L11.8896 17H9.66113L8.96387 15.291H5.34082L4.64355 17H2.41504L6.68066 7.77148H7.62402ZM7.15918 10.875L6.01074 13.6777H8.30762L7.15918 10.875ZM15.8271 9.91797C16.2008 9.91797 16.5791 10.0046 16.9619 10.1777C17.3447 10.3509 17.6637 10.5833 17.9189 10.875V10.0957H19.6553V16.8223C19.6553 17.6061 19.4821 18.2669 19.1357 18.8047C18.7894 19.3516 18.3291 19.7663 17.7549 20.0488C17.1807 20.3405 16.5518 20.4863 15.8682 20.4863C15.2575 20.4863 14.7562 20.3952 14.3643 20.2129C13.9723 20.0306 13.6077 19.821 13.2705 19.584V17.9434C13.4801 18.071 13.6989 18.2077 13.9268 18.3535C14.1637 18.4993 14.4281 18.6224 14.7197 18.7227C15.0205 18.8229 15.3669 18.873 15.7588 18.873C16.1689 18.873 16.5381 18.7956 16.8662 18.6406C17.1943 18.4857 17.4495 18.2669 17.6318 17.9844C17.8232 17.7109 17.9189 17.3965 17.9189 17.041V15.8379C17.7184 16.2116 17.4268 16.5352 17.0439 16.8086C16.6611 17.0729 16.2145 17.2051 15.7041 17.2051C15.1481 17.2051 14.6331 17.0638 14.1592 16.7812C13.6943 16.4987 13.3206 16.0885 13.0381 15.5508C12.7555 15.013 12.6143 14.3613 12.6143 13.5957C12.6143 12.8301 12.7555 12.1738 13.0381 11.627C13.3298 11.0801 13.7171 10.6608 14.2002 10.3691C14.6924 10.0684 15.2347 9.91797 15.8271 9.91797ZM16.1826 11.627C15.818 11.627 15.5036 11.7227 15.2393 11.9141C14.984 12.0964 14.7835 12.3379 14.6377 12.6387C14.4919 12.9303 14.4189 13.2493 14.4189 13.5957C14.4189 14.1152 14.5739 14.5573 14.8838 14.9219C15.2028 15.2773 15.6221 15.4551 16.1416 15.4551C16.4515 15.4551 16.7386 15.3776 17.0029 15.2227C17.2764 15.0586 17.4951 14.8307 17.6592 14.5391C17.8324 14.2383 17.9189 13.8783 17.9189 13.459V12.4746C17.6729 12.2103 17.404 12.0052 17.1123 11.8594C16.8298 11.7044 16.5199 11.627 16.1826 11.627Z" fill="#333333"/>
</svg>
