<svg width="24" height="24" viewBox="0 0 24 24" fill="none" xmlns="http://www.w3.org/2000/svg">
<path d="M10.584 16.5488L9.57227 13.3906H6.31836L5.32031 16.5488H4.34961L6.97461 8.53711C7.11133 8.04492 7.15234 7.75326 7.09766 7.66211C7.04297 7.57096 6.90625 7.49805 6.6875 7.44336C6.54167 7.4069 6.43229 7.37044 6.35938 7.33398C6.28646 7.29753 6.25 7.22917 6.25 7.12891C6.25 6.96484 6.36849 6.88281 6.60547 6.88281H8.45117L11.6777 16.5488H10.584ZM9.32617 12.6387L7.91797 8.29102L6.55078 12.6387H9.32617ZM13.2637 13.1855C13.2637 13.9421 13.4277 14.5345 13.7559 14.9629C14.0931 15.3822 14.5078 15.5918 15 15.5918C15.4557 15.5918 15.8568 15.4049 16.2031 15.0312C16.5495 14.6576 16.7227 14.0924 16.7227 13.3359V12.4336C16.7227 11.8047 16.5495 11.3079 16.2031 10.9434C15.8568 10.5697 15.4466 10.3828 14.9727 10.3828C14.4896 10.3828 14.084 10.6107 13.7559 11.0664C13.4277 11.5221 13.2637 12.2285 13.2637 13.1855ZM16.7363 15.4414C16.2988 16.0156 15.7109 16.3027 14.9727 16.3027C14.125 16.3027 13.4596 15.9974 12.9766 15.3867C12.5026 14.776 12.2656 14.0332 12.2656 13.1582C12.2656 12.0645 12.498 11.2031 12.9629 10.5742C13.4368 9.9362 14.0658 9.61719 14.8496 9.61719C15.6426 9.61719 16.2715 9.9362 16.7363 10.5742V10.4375C16.7363 10.0091 16.9186 9.79492 17.2832 9.79492H18.1582C18.3952 9.79492 18.5137 9.86784 18.5137 10.0137C18.5137 10.0957 18.459 10.1549 18.3496 10.1914C18.2402 10.2279 18.14 10.2598 18.0488 10.2871C17.9395 10.3145 17.8529 10.3783 17.7891 10.4785C17.7344 10.5697 17.707 10.793 17.707 11.1484V16.2617C17.707 17.0911 17.4837 17.7383 17.0371 18.2031C16.5996 18.668 15.9297 18.9004 15.0273 18.9004C14.1615 18.9004 13.5417 18.7318 13.168 18.3945C12.8034 18.0573 12.5983 17.638 12.5527 17.1367H13.5508C13.569 17.4284 13.7012 17.679 13.9473 17.8887C14.1934 18.1074 14.5898 18.2168 15.1367 18.2168C15.6016 18.2168 15.9844 18.0573 16.2852 17.7383C16.5859 17.4193 16.7363 16.9772 16.7363 16.4121V15.4414Z" fill="#333333"/>
</svg>
