<svg width="24" height="24" viewBox="0 0 24 24" fill="none" xmlns="http://www.w3.org/2000/svg">
<path d="M11.8145 16.6172H10.502L9.57227 13.5547H6.40039L5.48438 16.6172H4.1582L7.34375 6.63672H8.64258L11.8145 16.6172ZM9.23047 12.4199L8 8.31836L6.75586 12.4199H9.23047ZM13.6875 12.9531C13.6875 13.3177 13.7285 13.6458 13.8105 13.9375C13.9017 14.2201 14.0247 14.4844 14.1797 14.7305C14.3255 14.9674 14.4987 15.1497 14.6992 15.2773C14.9089 15.4049 15.1185 15.4688 15.3281 15.4688C15.5286 15.4688 15.7292 15.4004 15.9297 15.2637C16.1393 15.127 16.3216 14.9447 16.4766 14.7168C16.6224 14.4889 16.7409 14.2292 16.832 13.9375C16.9232 13.6458 16.9688 13.3177 16.9688 12.9531C16.9688 12.5885 16.9232 12.265 16.832 11.9824C16.75 11.6908 16.6315 11.4264 16.4766 11.1895C16.3216 10.9616 16.1393 10.7793 15.9297 10.6426C15.7292 10.4967 15.5286 10.4238 15.3281 10.4238C15.1185 10.4238 14.9089 10.4922 14.6992 10.6289C14.4987 10.7565 14.3255 10.9388 14.1797 11.1758C14.0156 11.4219 13.8926 11.6908 13.8105 11.9824C13.7285 12.265 13.6875 12.5885 13.6875 12.9531ZM18.1992 15.8652C18.1719 16.9408 17.8893 17.7201 17.3516 18.2031C16.7865 18.6953 15.998 18.9414 14.9863 18.9414C14.6673 18.9414 14.3027 18.9095 13.8926 18.8457C13.4915 18.791 13.168 18.6999 12.9219 18.5723V17.2734C13.2865 17.4922 13.6556 17.638 14.0293 17.7109C14.403 17.793 14.7585 17.834 15.0957 17.834C15.6699 17.834 16.112 17.7064 16.4219 17.4512C16.7318 17.2051 16.9049 16.8587 16.9414 16.4121C16.9688 16.1842 16.9824 15.9473 16.9824 15.7012V15.6055C16.8913 15.7695 16.6862 15.9609 16.3672 16.1797C16.0482 16.3893 15.6517 16.4941 15.1777 16.4941C14.7949 16.4941 14.4258 16.4121 14.0703 16.248C13.724 16.0749 13.4323 15.8242 13.1953 15.4961C12.9674 15.1953 12.7806 14.8353 12.6348 14.416C12.498 13.9876 12.4297 13.4772 12.4297 12.8848C12.4297 12.4108 12.4844 11.9824 12.5938 11.5996C12.7122 11.2168 12.8854 10.8613 13.1133 10.5332C13.332 10.196 13.6283 9.92253 14.002 9.71289C14.3848 9.50326 14.804 9.39844 15.2598 9.39844C16.0254 9.39844 16.5996 9.70378 16.9824 10.3145V9.5625H18.1992V15.8652Z" fill="#333333"/>
</svg>
