<svg width="24" height="24" viewBox="0 0 24 24" fill="none" xmlns="http://www.w3.org/2000/svg">
<path d="M11.9984 16.028H10.3044L9.28237 13.074H5.78237L4.69037 16.028H3.13637L6.73437 5.962H8.37237L11.9984 16.028ZM8.82037 11.73L7.60237 7.768H7.54637L6.21637 11.73H8.82037ZM18.7636 15.44C18.7636 16.5133 18.4556 17.316 17.8396 17.848C17.2236 18.38 16.3463 18.646 15.2076 18.646C14.8436 18.646 14.4423 18.6133 14.0036 18.548C13.565 18.4827 13.187 18.38 12.8696 18.24V16.812C13.271 17.0173 13.6816 17.162 14.1016 17.246C14.531 17.33 14.9463 17.372 15.3476 17.372C15.9636 17.372 16.4256 17.2367 16.7336 16.966C17.0416 16.7047 17.2236 16.3687 17.2796 15.958C17.289 15.902 17.2936 15.86 17.2936 15.832C17.2936 15.7947 17.2936 15.7667 17.2936 15.748C17.2936 15.7293 17.2936 15.7107 17.2936 15.692C17.2936 15.6733 17.2936 15.6407 17.2936 15.594V14.74H17.2516C17.233 14.7867 17.191 14.88 17.1256 15.02C17.0603 15.16 16.9576 15.3047 16.8176 15.454C16.6776 15.6033 16.4863 15.7387 16.2436 15.86C16.0103 15.972 15.7116 16.028 15.3476 16.028C14.4983 16.028 13.789 15.7433 13.2196 15.174C12.6503 14.5953 12.3656 13.7553 12.3656 12.654C12.3656 12.374 12.375 12.0987 12.3936 11.828C12.4216 11.5573 12.459 11.3147 12.5056 11.1C12.571 10.8107 12.683 10.526 12.8416 10.246C13.0096 9.966 13.2196 9.72333 13.4716 9.518C13.7143 9.30333 14.0036 9.13067 14.3396 9C14.6756 8.86933 15.049 8.804 15.4596 8.804C15.721 8.804 15.9543 8.85067 16.1596 8.944C16.3743 9.03733 16.5563 9.14933 16.7056 9.28C16.8456 9.41067 16.9623 9.55067 17.0556 9.7C17.149 9.84933 17.2143 9.98 17.2516 10.092H17.2936V8.972H18.7636V15.44ZM17.2376 12.374C17.2376 12.0847 17.1956 11.8 17.1116 11.52C17.0276 11.24 16.911 10.988 16.7616 10.764C16.6123 10.54 16.4303 10.358 16.2156 10.218C16.001 10.078 15.763 10.008 15.5016 10.008C15.1936 10.008 14.8763 10.1293 14.5496 10.372C14.2323 10.6147 14.0176 10.988 13.9056 11.492C13.887 11.5667 13.873 11.66 13.8636 11.772C13.8543 11.8747 13.8496 11.982 13.8496 12.094C13.8403 12.206 13.8356 12.318 13.8356 12.43C13.8356 12.5327 13.8356 12.6167 13.8356 12.682C13.8356 12.9433 13.8636 13.2047 13.9196 13.466C13.9756 13.718 14.069 13.942 14.1996 14.138C14.3396 14.3433 14.5123 14.5067 14.7176 14.628C14.9323 14.7493 15.1936 14.81 15.5016 14.81C15.987 14.81 16.3976 14.586 16.7336 14.138C17.0696 13.69 17.2376 13.102 17.2376 12.374Z" fill="#333333"/>
</svg>
