<svg width="24" height="24" viewBox="0 0 24 24" fill="none" xmlns="http://www.w3.org/2000/svg">
<path d="M12.9004 15.986H11.4024L10.3664 12.976H6.68437L5.59237 15.986H4.23437L7.79037 5.92H9.31637L12.9004 15.986ZM9.96037 11.8L8.57437 7.516H8.51837L7.06237 11.8H9.96037ZM19.6936 15.482C19.6936 16.546 19.3903 17.3393 18.7836 17.862C18.177 18.3847 17.3183 18.646 16.2076 18.646C15.8436 18.646 15.4423 18.6133 15.0036 18.548C14.5743 18.4827 14.2196 18.3893 13.9396 18.268V16.994C14.285 17.1713 14.6676 17.3067 15.0876 17.4C15.5076 17.4933 15.9276 17.54 16.3476 17.54C17.001 17.54 17.4863 17.3953 17.8036 17.106C18.1303 16.826 18.3263 16.4667 18.3916 16.028C18.401 15.972 18.4056 15.93 18.4056 15.902C18.4056 15.8647 18.4056 15.8367 18.4056 15.818C18.4056 15.79 18.4056 15.7667 18.4056 15.748C18.4056 15.7293 18.4056 15.6967 18.4056 15.65V14.6H18.3636C18.3356 14.6653 18.2843 14.7727 18.2096 14.922C18.135 15.062 18.0183 15.202 17.8596 15.342C17.701 15.4913 17.4956 15.622 17.2436 15.734C17.001 15.846 16.7023 15.902 16.3476 15.902C15.517 15.902 14.8216 15.622 14.2616 15.062C13.711 14.4927 13.4356 13.662 13.4356 12.57C13.4356 12.29 13.445 12.0147 13.4636 11.744C13.4916 11.464 13.529 11.212 13.5756 10.988C13.7063 10.4 14.019 9.88667 14.5136 9.448C15.0083 9.00933 15.6523 8.79 16.4456 8.79C16.6976 8.79 16.931 8.83667 17.1456 8.93C17.3696 9.02333 17.5656 9.13533 17.7336 9.266C17.8923 9.39667 18.023 9.54133 18.1256 9.7C18.2376 9.84933 18.3123 9.98467 18.3496 10.106H18.4056V8.958H19.6936V15.482ZM18.3496 12.276C18.3496 11.968 18.303 11.6647 18.2096 11.366C18.1256 11.0673 18.0043 10.806 17.8456 10.582C17.687 10.3487 17.491 10.162 17.2576 10.022C17.0243 9.882 16.7676 9.812 16.4876 9.812C16.161 9.812 15.8296 9.93333 15.4936 10.176C15.1576 10.4187 14.9336 10.82 14.8216 11.38C14.803 11.4547 14.789 11.548 14.7796 11.66C14.7703 11.772 14.7656 11.8887 14.7656 12.01C14.7563 12.1313 14.7516 12.248 14.7516 12.36C14.7516 12.472 14.7516 12.5607 14.7516 12.626C14.7516 12.9153 14.7796 13.1953 14.8356 13.466C14.901 13.7273 14.999 13.9653 15.1296 14.18C15.2696 14.3853 15.447 14.5533 15.6616 14.684C15.8856 14.8053 16.161 14.866 16.4876 14.866C17.0103 14.866 17.449 14.6327 17.8036 14.166C18.1676 13.69 18.3496 13.06 18.3496 12.276Z" fill="#888888"/>
</svg>
