<svg width="24" height="24" viewBox="0 0 24 24" fill="none" xmlns="http://www.w3.org/2000/svg">
<path d="M11.9785 16.7266H10.4199L9.47656 13.6641H6.48242L5.56641 16.7266H4.00781L7.26172 6.52734H8.72461L11.9785 16.7266ZM9.08008 12.3105L8 8.70117L6.90625 12.3105H9.08008ZM13.7969 12.9531C13.7969 13.3086 13.8379 13.6276 13.9199 13.9102C14.0111 14.1836 14.1296 14.4342 14.2754 14.6621C14.4121 14.89 14.5716 15.0632 14.7539 15.1816C14.9453 15.3001 15.1367 15.3594 15.3281 15.3594C15.5104 15.3594 15.6927 15.2956 15.875 15.168C16.0664 15.0404 16.235 14.8717 16.3809 14.6621C16.5267 14.4434 16.6406 14.1927 16.7227 13.9102C16.8047 13.6276 16.8457 13.3086 16.8457 12.9531C16.8457 12.5977 16.8047 12.2832 16.7227 12.0098C16.6497 11.7272 16.5358 11.472 16.3809 11.2441C16.235 11.0345 16.0664 10.8659 15.875 10.7383C15.6927 10.6107 15.5104 10.5469 15.3281 10.5469C15.1367 10.5469 14.9453 10.6061 14.7539 10.7246C14.5716 10.8431 14.4121 11.0117 14.2754 11.2305C14.1204 11.4674 14.002 11.7272 13.9199 12.0098C13.8379 12.2832 13.7969 12.5977 13.7969 12.9531ZM18.3086 15.8652C18.2721 17.0046 17.9759 17.793 17.4199 18.2305C16.8366 18.7044 16.0254 18.9414 14.9863 18.9414C14.6582 18.9414 14.2891 18.9095 13.8789 18.8457C13.4688 18.791 13.1087 18.6862 12.7988 18.5312V17C13.2728 17.2552 13.6921 17.4193 14.0566 17.4922C14.4212 17.5742 14.763 17.6152 15.082 17.6152C15.638 17.6152 16.0573 17.515 16.3398 17.3145C16.6315 17.123 16.7956 16.8132 16.832 16.3848C16.8503 16.2207 16.8594 16.0339 16.8594 15.8242C16.8047 15.9245 16.6224 16.0749 16.3125 16.2754C16.0026 16.4941 15.6243 16.6035 15.1777 16.6035C14.7767 16.6035 14.3939 16.5169 14.0293 16.3438C13.6647 16.1615 13.3594 15.9017 13.1133 15.5645C12.8763 15.2546 12.6849 14.8809 12.5391 14.4434C12.3932 14.0059 12.3203 13.4863 12.3203 12.8848C12.3203 12.4017 12.3796 11.9642 12.498 11.5723C12.6165 11.1803 12.7943 10.8066 13.0312 10.4512C13.2591 10.1048 13.569 9.82227 13.9609 9.60352C14.3529 9.38477 14.7858 9.27539 15.2598 9.27539C15.9342 9.27539 16.4674 9.55339 16.8594 10.1094V9.45312H18.3086V15.8652Z" fill="#333333"/>
</svg>
