<svg width="24" height="24" viewBox="0 0 24 24" fill="none" xmlns="http://www.w3.org/2000/svg">
<path d="M7.98633 7.58008L6.46875 12.6113H9.50391L7.98633 7.58008ZM8.49219 6.82812L11.541 16.4258H10.6523L9.73633 13.3496H6.25L5.32031 16.4258H4.44531L7.49414 6.82812H8.49219ZM17.9805 15.9062C17.9805 16.8815 17.7207 17.6107 17.2012 18.0938C16.6816 18.5859 15.9434 18.832 14.9863 18.832C14.6855 18.832 14.3346 18.8001 13.9336 18.7363C13.5417 18.6725 13.2728 18.6042 13.127 18.5312V17.7109C13.291 17.8112 13.569 17.9023 13.9609 17.9844C14.362 18.0755 14.7493 18.1211 15.123 18.1211C15.7337 18.1211 16.2168 17.9616 16.5723 17.6426C16.9277 17.3327 17.1237 16.9271 17.1602 16.4258C17.1784 16.1888 17.1875 16.0156 17.1875 15.9062H17.9805ZM12.6348 12.8848C12.6348 12.429 12.6895 12.0189 12.7988 11.6543C12.9173 11.2806 13.0768 10.9434 13.2773 10.6426C13.4961 10.3236 13.7741 10.0684 14.1113 9.87695C14.4577 9.68555 14.8359 9.58984 15.2461 9.58984C16.0846 9.58984 16.7318 10.0046 17.1875 10.834V9.75391H17.9805V15.9473H17.1875V14.8809C17.0052 15.3457 16.7363 15.6966 16.3809 15.9336C16.0345 16.1706 15.6335 16.2891 15.1777 16.2891C14.8405 16.2891 14.5078 16.2161 14.1797 16.0703C13.8516 15.9154 13.5781 15.6875 13.3594 15.3867C13.1497 15.0951 12.9766 14.7487 12.8398 14.3477C12.7031 13.9466 12.6348 13.459 12.6348 12.8848ZM17.1738 12.9531C17.1738 12.5794 17.1237 12.2285 17.0234 11.9004C16.9232 11.5723 16.791 11.2806 16.627 11.0254C16.4629 10.7884 16.2669 10.597 16.0391 10.4512C15.8112 10.3053 15.5742 10.2324 15.3281 10.2324C15.0729 10.2324 14.8314 10.3053 14.6035 10.4512C14.3848 10.597 14.1888 10.7884 14.0156 11.0254C13.8516 11.2806 13.7194 11.5723 13.6191 11.9004C13.528 12.2285 13.4824 12.5794 13.4824 12.9531C13.4824 13.3268 13.528 13.6777 13.6191 14.0059C13.7194 14.3249 13.8516 14.612 14.0156 14.8672C14.1888 15.1133 14.3848 15.3092 14.6035 15.4551C14.8314 15.5918 15.0729 15.6602 15.3281 15.6602C15.5742 15.6602 15.8112 15.5918 16.0391 15.4551C16.2669 15.3092 16.4629 15.1133 16.627 14.8672C16.791 14.612 16.9232 14.3249 17.0234 14.0059C17.1237 13.6777 17.1738 13.3268 17.1738 12.9531Z" fill="#333333"/>
</svg>
