<svg width="24" height="24" viewBox="0 0 24 24" fill="none" xmlns="http://www.w3.org/2000/svg">
<path d="M11.8007 15.986H10.5547L9.51873 12.92H5.66873L4.57673 15.986H3.47073L6.95673 6.032H8.28673L11.8007 15.986ZM9.19673 11.982L7.58673 7.222H7.55873L5.96273 11.982H9.19673ZM18.636 15.566C18.636 16.658 18.342 17.442 17.754 17.918C17.166 18.394 16.3353 18.632 15.262 18.632C14.9073 18.632 14.52 18.5993 14.1 18.534C13.68 18.478 13.3487 18.3987 13.106 18.296V17.232C13.3673 17.3813 13.708 17.498 14.128 17.582C14.5573 17.6753 14.982 17.722 15.402 17.722C16.0927 17.722 16.6013 17.5727 16.928 17.274C17.264 16.9753 17.4693 16.588 17.544 16.112C17.5533 16.0467 17.558 15.93 17.558 15.762C17.5673 15.594 17.572 15.4167 17.572 15.23C17.5627 15.0527 17.558 14.894 17.558 14.754C17.558 14.614 17.558 14.544 17.558 14.544H17.53C17.502 14.628 17.446 14.7447 17.362 14.894C17.278 15.034 17.152 15.1787 16.984 15.328C16.816 15.468 16.6013 15.594 16.34 15.706C16.088 15.8087 15.7753 15.86 15.402 15.86C14.5993 15.86 13.932 15.5847 13.4 15.034C12.868 14.4833 12.602 13.6853 12.602 12.64C12.602 12.36 12.6113 12.0847 12.63 11.814C12.658 11.5433 12.6953 11.3007 12.742 11.086C12.798 10.806 12.9007 10.5353 13.05 10.274C13.2087 10.0033 13.4047 9.77 13.638 9.574C13.8713 9.36867 14.142 9.20533 14.45 9.084C14.7673 8.96267 15.1173 8.902 15.5 8.902C16.0787 8.902 16.5267 9.04667 16.844 9.336C17.1707 9.616 17.3993 9.91 17.53 10.218H17.558V9.07H18.636V15.566ZM17.502 12.332C17.502 12.0147 17.4553 11.6973 17.362 11.38C17.278 11.0627 17.1567 10.7827 16.998 10.54C16.83 10.288 16.6293 10.0873 16.396 9.938C16.1627 9.77933 15.8967 9.7 15.598 9.7C15.2527 9.7 14.9073 9.84 14.562 10.12C14.2167 10.4 13.988 10.834 13.876 11.422C13.8573 11.506 13.8433 11.604 13.834 11.716C13.8247 11.828 13.82 11.9447 13.82 12.066C13.8107 12.1873 13.806 12.304 13.806 12.416C13.806 12.528 13.806 12.6213 13.806 12.696C13.806 12.9573 13.834 13.228 13.89 13.508C13.9553 13.788 14.058 14.04 14.198 14.264C14.338 14.4973 14.52 14.6887 14.744 14.838C14.9773 14.978 15.262 15.048 15.598 15.048C16.1487 15.048 16.6013 14.8007 16.956 14.306C17.32 13.8113 17.502 13.1533 17.502 12.332Z" fill="#333333"/>
</svg>
