<svg width="24" height="24" viewBox="0 0 24 24" fill="none" xmlns="http://www.w3.org/2000/svg">
<path d="M5.23145 17L5.64844 15.2363H8.19824L8.60156 17H11.6641L8.86133 7.66895H5.22461L2.39453 17H5.23145ZM7.01562 10.041L7.74023 13.2197H6.12012L6.87207 10.041H7.01562ZM16.1416 17.8408C15.6631 17.8408 15.2393 17.7178 15.1367 17.3281H12.5527C12.5596 18.5586 13.5918 19.6934 16.0801 19.6934C17.7549 19.6934 19.9424 19.1807 19.9424 16.9795V9.63086H17.1738V10.7998H17.0371C16.791 10.0479 16.0459 9.56934 15 9.56934C13.4004 9.56934 12.4023 10.7588 12.4023 13.1035V13.3223C12.4023 15.667 13.4004 16.8564 15 16.8564C16.0732 16.8564 16.791 16.3643 17.0371 15.7012H17.1738V16.6924C17.1738 17.4375 16.8525 17.8408 16.1416 17.8408ZM16.2236 11.6611C16.7773 11.6611 17.1738 12.126 17.1738 13.1172V13.5068C17.1738 14.498 16.7773 14.9697 16.2236 14.9697C15.6699 14.9697 15.2803 14.498 15.2803 13.5068V13.1172C15.2803 12.1328 15.6699 11.6611 16.2236 11.6611Z" fill="#333333"/>
</svg>
