<svg width="24" height="24" viewBox="0 0 24 24" fill="none" xmlns="http://www.w3.org/2000/svg">
<path d="M3.22168 17H4.32227L5.83984 14.0742H9.44238L9.92773 17H10.9668L9.27832 7.66895H8.20508L3.22168 17ZM8.58789 8.91992L9.29883 13.2402H6.28418L8.5127 8.91992H8.58789ZM15.8682 9.72656C14.542 9.72656 13.2705 10.5195 12.9219 12.3516L12.7646 13.1855C12.71 13.459 12.6689 13.917 12.6689 14.1631C12.6689 15.8516 13.9199 16.8701 15.2529 16.8701C16.374 16.8701 17.0508 16.2891 17.3105 15.6602H17.3926L17.208 16.7061C16.9688 18.0801 16.2852 18.7432 14.9932 18.7432C13.9268 18.7432 13.2363 18.1416 13.2363 17.5742C13.2363 17.5605 13.2363 17.4922 13.2363 17.4854H12.2588C12.2588 17.4922 12.2588 17.5742 12.2588 17.5879C12.2588 18.6338 13.2979 19.5977 14.9385 19.5977C16.7432 19.5977 17.8096 18.7363 18.1377 16.8838L19.375 9.84277H18.3906L18.1445 11.251H18.0625C17.8506 10.4648 17.0986 9.72656 15.8682 9.72656ZM17.8369 12.6045C17.8369 12.666 17.8369 12.8711 17.7686 13.2539L17.6387 13.9854C17.4336 15.1816 16.6133 16.0293 15.5537 16.0293C14.4121 16.0293 13.6533 15.3457 13.6533 14.0127C13.6533 13.8281 13.7012 13.4521 13.7354 13.2539L13.8516 12.6592C14.0908 11.3604 14.8496 10.5742 15.916 10.5742C17.0234 10.5742 17.8369 11.3467 17.8369 12.6045Z" fill="#888888"/>
</svg>
