<svg width="24" height="24" viewBox="0 0 24 24" fill="none" xmlns="http://www.w3.org/2000/svg">
<path d="M5.18359 17L5.65527 15.1338H8.30078L8.75879 17H11.6367L8.7793 7.66895H5.38867L2.51074 17H5.18359ZM7.06348 9.94531L7.85645 13.2197H6.11328L6.92676 9.94531H7.06348ZM16.0869 17.9229C15.5605 17.9229 15.123 17.7656 15.0205 17.3623H12.5732C12.5938 18.5723 13.6123 19.6865 16.0322 19.6865C17.7207 19.6865 19.8193 19.1396 19.8193 16.959V9.65137H17.2148V10.8066H17.0918C16.8457 10.0752 16.0938 9.58301 15.0479 9.58301C13.4482 9.58301 12.4229 10.7656 12.4229 13.0625V13.377C12.4229 15.6738 13.4482 16.8564 15.0479 16.8564C16.1143 16.8564 16.832 16.3643 17.085 15.708H17.2148V16.6992C17.2148 17.4854 16.8594 17.9229 16.0869 17.9229ZM16.1758 11.5654C16.7842 11.5654 17.2148 12.085 17.2148 13.083V13.541C17.2148 14.5391 16.791 15.0586 16.1758 15.0586C15.5605 15.0586 15.1299 14.5459 15.1299 13.5205V13.1035C15.1299 12.0781 15.5537 11.5654 16.1758 11.5654Z" fill="#333333"/>
</svg>
