<svg width="24" height="24" viewBox="0 0 24 24" fill="none" xmlns="http://www.w3.org/2000/svg">
<path d="M5.47266 17L6.58691 13.835H10.5107L11.6182 17H12.1445L8.81543 7.70996H8.28906L4.95996 17H5.47266ZM8.56934 8.31152L10.3604 13.4111H6.73047L8.53516 8.31152H8.56934ZM16.4785 19.0029C15.125 19.0029 14.4551 18.2373 14.4004 17.6084H13.9082C13.9424 18.4492 14.7285 19.4473 16.4717 19.4473C18.1875 19.4473 19.2197 18.4971 19.2197 16.9727V9.93848H18.748V11.3398H18.7139C18.5361 10.7861 17.8662 9.81543 16.4033 9.81543C14.9883 9.81543 13.6895 10.793 13.6895 12.7754V13.8145C13.6895 15.6328 14.8516 16.7607 16.3896 16.7607C17.9551 16.7607 18.584 15.6533 18.707 15.2295H18.7412V16.9863C18.7412 18.1963 17.9277 19.0029 16.4785 19.0029ZM16.4307 10.2666C17.8389 10.2666 18.7412 11.415 18.7412 12.8438V13.7666C18.7412 15.0586 17.9277 16.3096 16.4375 16.3096C15.1865 16.3096 14.1816 15.3662 14.1816 13.7119V12.8984C14.1816 11.1006 15.2617 10.2666 16.4307 10.2666Z" fill="#888888"/>
</svg>
