<svg width="24" height="24" viewBox="0 0 24 24" fill="none" xmlns="http://www.w3.org/2000/svg">
<path d="M3.00977 17H4.36328L5.77148 14.2246H9.22363L9.66113 17H10.9805L9.33984 7.66211H7.93848L3.00977 17ZM8.44434 9.11816L9.07324 13.2129H6.29102L8.35547 9.11816H8.44434ZM15.8135 9.69922C14.4805 9.69922 13.209 10.5059 12.8467 12.3652L12.6895 13.1514C12.6348 13.4248 12.5938 13.876 12.5938 14.1289C12.5938 15.8516 13.8379 16.877 15.1777 16.877C16.251 16.877 16.9346 16.3438 17.1943 15.708H17.29L17.1191 16.6787C16.9004 17.9434 16.3125 18.6064 15.0342 18.6064C14.0566 18.6064 13.4072 18.0596 13.3936 17.5469C13.3867 17.5469 13.3867 17.4854 13.3867 17.4785H12.1768C12.1768 17.4785 12.1768 17.5537 12.1768 17.5674C12.1768 18.627 13.2227 19.6318 14.9658 19.6318C16.873 19.6318 17.96 18.7295 18.2881 16.9043L19.5322 9.81543H18.3018L18.0557 11.1826H17.9668C17.748 10.376 17.0029 9.69922 15.8135 9.69922ZM17.7275 12.6318C17.7275 12.6934 17.7275 12.9053 17.666 13.2812L17.5498 13.917C17.3447 15.1064 16.5791 15.8857 15.6152 15.8857C14.5283 15.8857 13.8379 15.2295 13.8379 13.9854C13.8379 13.8076 13.8857 13.4385 13.9199 13.2539L14.0293 12.7002C14.248 11.5039 14.9385 10.7314 15.957 10.7314C16.9824 10.7314 17.7275 11.4424 17.7275 12.6318Z" fill="#333333"/>
</svg>
