<svg width="24" height="24" viewBox="0 0 24 24" fill="none" xmlns="http://www.w3.org/2000/svg">
<path d="M4.33594 17.0889C4.66406 17.0889 4.84863 16.9385 4.97852 16.5283L5.76465 14.1973H9.25781L10.0439 16.5283C10.1738 16.9316 10.3584 17.0889 10.6865 17.0889C11.0352 17.0889 11.2607 16.8906 11.2607 16.5693C11.2607 16.4395 11.2266 16.2959 11.1719 16.1455L8.3623 8.29102C8.19141 7.8125 7.95215 7.59375 7.51465 7.59375C7.07715 7.59375 6.83789 7.8125 6.66699 8.29102L3.85742 16.1455C3.80273 16.3096 3.76855 16.4395 3.76855 16.5762C3.76855 16.8906 3.99414 17.0889 4.33594 17.0889ZM6.08594 13.2334L7.4873 9.07715H7.53516L8.93652 13.2334H6.08594ZM17.249 15.8037H17.3174V16.8223C17.3174 17.9775 16.5723 18.668 15.3828 18.668C14.5283 18.668 14.0635 18.3057 13.79 18.0527C13.5713 17.8477 13.4346 17.6631 13.1475 17.6631C12.8467 17.6631 12.6484 17.875 12.6484 18.1689C12.6484 18.5518 12.9834 18.9414 13.4209 19.208C13.9336 19.5225 14.6377 19.7002 15.4307 19.7002C17.2217 19.7002 18.4863 18.7705 18.4863 16.7949V10.4033C18.4863 9.95898 18.2539 9.74707 17.9189 9.74707C17.5908 9.74707 17.3652 9.95215 17.3652 10.3896V10.8955H17.3105C17.0576 10.3008 16.3125 9.69922 15.1914 9.69922C13.6465 9.69922 12.3818 10.8477 12.3818 12.7139V13.9307C12.3818 15.7969 13.6465 16.9316 15.2051 16.9316C16.2441 16.9316 16.9688 16.4189 17.249 15.8037ZM13.5713 13.6982V12.9531C13.5713 11.627 14.3164 10.7246 15.458 10.7246C16.6611 10.7246 17.3105 11.7021 17.3105 12.7549V13.9238C17.3105 14.9492 16.6816 15.9131 15.499 15.9131C14.3643 15.9131 13.5713 15.0244 13.5713 13.6982Z" fill="#333333"/>
</svg>
