<svg width="24" height="24" viewBox="0 0 24 24" fill="none" xmlns="http://www.w3.org/2000/svg">
<path d="M3.91309 17H4.4873L7.91895 7.87402H8.10352V7.13574H7.67285L3.91309 17ZM5.4375 13.7051H10.4482L10.2773 13.2334H5.6084L5.4375 13.7051ZM11.4053 17H11.9795L8.21289 7.13574H7.9668V7.87402L11.4053 17ZM16.3203 19.5293C16.9355 19.5293 17.4756 19.4199 17.9404 19.2012C18.4053 18.9824 18.7653 18.6771 19.0205 18.2852C19.2803 17.8978 19.4102 17.4466 19.4102 16.9316V9.6377H18.8838V11.5039H18.8428C18.7152 11.1074 18.5192 10.7611 18.2549 10.4648C17.9951 10.1686 17.6852 9.93848 17.3252 9.77441C16.9697 9.61035 16.5801 9.52832 16.1562 9.52832C15.5319 9.52832 14.985 9.68555 14.5156 10C14.0462 10.3099 13.6794 10.7428 13.415 11.2988C13.1553 11.8503 13.0254 12.4883 13.0254 13.2129V13.2266C13.0254 13.9466 13.1553 14.5846 13.415 15.1406C13.6794 15.6921 14.0439 16.1227 14.5088 16.4326C14.9782 16.7425 15.5251 16.8975 16.1494 16.8975C16.5824 16.8975 16.9743 16.8223 17.3252 16.6719C17.6807 16.5169 17.9883 16.3005 18.248 16.0225C18.5078 15.7399 18.7038 15.4004 18.8359 15.0039H18.8906V16.8633C18.8906 17.5241 18.6559 18.0527 18.1865 18.4492C17.7217 18.8503 17.1042 19.0508 16.334 19.0508C15.7279 19.0508 15.2129 18.9346 14.7891 18.7021C14.3698 18.4697 14.1077 18.1667 14.0029 17.793L13.9961 17.7861H13.4561L13.4492 17.793C13.5176 18.1439 13.6794 18.4492 13.9346 18.709C14.1898 18.9688 14.5202 19.1693 14.9258 19.3105C15.3359 19.4564 15.8008 19.5293 16.3203 19.5293ZM16.2246 16.4189C15.6868 16.4189 15.2174 16.2845 14.8164 16.0156C14.4199 15.7422 14.11 15.3662 13.8867 14.8877C13.668 14.4046 13.5586 13.8486 13.5586 13.2197V13.2061C13.5586 12.5771 13.668 12.0234 13.8867 11.5449C14.11 11.0618 14.4199 10.6859 14.8164 10.417C15.2174 10.1436 15.6868 10.0068 16.2246 10.0068C16.7533 10.0068 17.2181 10.1436 17.6191 10.417C18.0202 10.6904 18.3324 11.071 18.5557 11.5586C18.7835 12.0462 18.8975 12.609 18.8975 13.2471V13.2607C18.8975 13.8851 18.7858 14.4365 18.5625 14.915C18.3438 15.389 18.0339 15.7581 17.6328 16.0225C17.2363 16.2868 16.7669 16.4189 16.2246 16.4189Z" fill="#888888"/>
</svg>
