<svg width="24" height="24" viewBox="0 0 24 24" fill="none" xmlns="http://www.w3.org/2000/svg">
<path d="M4.29492 17.0957C4.60254 17.0957 4.78027 16.9521 4.89648 16.624L5.76465 14.1768H9.66797L10.543 16.624C10.6592 16.9521 10.8369 17.0957 11.1445 17.0957C11.5 17.0957 11.7598 16.8701 11.7598 16.5557C11.7598 16.4668 11.7393 16.3643 11.6846 16.2139L8.50586 7.62793C8.35547 7.22461 8.10938 7.04004 7.7334 7.04004C7.33008 7.04004 7.07715 7.23145 6.92676 7.63477L3.75488 16.2139C3.7002 16.3643 3.67969 16.4668 3.67969 16.5557C3.67969 16.8701 3.93945 17.0957 4.29492 17.0957ZM6.12012 13.1309L7.69922 8.63281H7.74023L9.31934 13.1309H6.12012ZM15.6426 19.6797C17.666 19.7002 18.9238 18.5518 18.9238 16.8564V10.3828C18.9238 10.0137 18.6709 9.76758 18.3291 9.76758C17.9873 9.76758 17.7344 10.0137 17.7344 10.3828V11.0596H17.7139C17.2422 10.2598 16.4561 9.76758 15.4512 9.76758C13.6123 9.76758 12.4229 11.1895 12.4229 13.418C12.4229 15.626 13.6123 17.0547 15.4238 17.0547C16.4219 17.0547 17.2695 16.5488 17.707 15.7764H17.7344V16.8975C17.7344 17.957 16.9619 18.6885 15.6904 18.668C14.9658 18.6543 14.4668 18.3945 13.8584 17.7246C13.6738 17.5195 13.5576 17.4512 13.3594 17.4512C13.0449 17.4512 12.8262 17.6631 12.8262 17.9639C12.8262 18.1211 12.8672 18.2578 12.9629 18.4082C13.4619 19.1943 14.4531 19.666 15.6426 19.6797ZM15.6631 16.0088C14.4395 16.0088 13.6396 15.0107 13.6396 13.418C13.6396 11.8252 14.4395 10.8135 15.6631 10.8135C16.9004 10.8135 17.7344 11.8525 17.7344 13.418C17.7344 14.9834 16.9004 16.0088 15.6631 16.0088Z" fill="#333333"/>
</svg>
