<svg width="24" height="24" viewBox="0 0 24 24" fill="none" xmlns="http://www.w3.org/2000/svg">
<path d="M2.50391 17H5.13574L5.75098 14.833H8.9707L9.58594 17H12.2178L8.89551 7.13574H5.82617L2.50391 17ZM7.33691 9.28223H7.38477L8.45117 13.0283H6.27051L7.33691 9.28223ZM16.292 19.5498C18.6367 19.5498 20.0996 18.415 20.0996 16.7881V9.55566H17.6797V10.8408H17.625C17.2559 9.94531 16.4561 9.39844 15.4033 9.39844C13.5234 9.39844 12.4229 10.7656 12.4229 13.1719V13.1787C12.4229 15.4824 13.5098 16.8086 15.3691 16.8086C16.4492 16.8086 17.2695 16.3369 17.6318 15.5781H17.6797V16.8154C17.6797 17.4854 17.2148 17.9365 16.3057 17.9365C15.54 17.9365 15.082 17.6221 14.9658 17.335L14.9453 17.2939H12.6074L12.6143 17.3555C12.7783 18.5996 14.1387 19.5498 16.292 19.5498ZM16.2852 15.127C15.4307 15.127 14.8838 14.416 14.8838 13.2471V13.2402C14.8838 12.0713 15.4375 11.374 16.2852 11.374C17.1328 11.374 17.6934 12.0713 17.6934 13.2471V13.2539C17.6934 14.4229 17.1396 15.127 16.2852 15.127Z" fill="#333333"/>
</svg>
