<svg width="24" height="24" viewBox="0 0 24 24" fill="none" xmlns="http://www.w3.org/2000/svg">
<path d="M9.16895 17H10.9531L9.5791 7.13574H7.64453L1.97754 17H3.83008L5.21094 14.4775H8.86816L9.16895 17ZM8.15039 9.0293H8.2666L8.75879 13.083H5.92188L8.15039 9.0293ZM15.0752 19.8438C17.126 19.8438 18.4932 18.8799 18.8213 17.3213L20.4961 9.52148H18.8486L18.5615 10.8545H18.4453C18.1582 9.98633 17.2422 9.39844 16.2031 9.39844C14.1113 9.39844 12.4912 11.3467 12.4912 13.9854C12.4912 15.708 13.626 16.8633 15.1299 16.8633C16.0732 16.8633 16.8457 16.501 17.3516 15.79H17.4678L17.1602 17.1367C16.9619 17.9912 16.3398 18.5518 15.1914 18.5518C14.2139 18.5518 13.6123 18.1484 13.5439 17.6221H11.8281C11.8555 18.8594 13.1611 19.8438 15.0752 19.8438ZM15.8066 15.5508C14.8496 15.5508 14.2412 14.874 14.2412 13.7529C14.2412 12.0303 15.1982 10.8545 16.4766 10.8545C17.4678 10.8545 18.0967 11.5449 18.0967 12.6182C18.0967 14.3203 17.0986 15.5508 15.8066 15.5508Z" fill="#333333"/>
</svg>
