<svg width="24" height="24" viewBox="0 0 24 24" fill="none" xmlns="http://www.w3.org/2000/svg">
<path d="M3.69434 17H4.98633L5.97754 14.1768H9.90137L10.8926 17H12.1846L8.54785 7.13574H7.33105L3.69434 17ZM7.88477 8.72852H7.99414L9.53906 13.1309H6.33984L7.88477 8.72852ZM16.3887 19.5977C18.3984 19.5977 19.6699 18.5449 19.6699 16.8975V9.63086H18.4805V10.8477H18.3984C17.9473 10.0137 17.1406 9.50098 16.1016 9.50098C14.1738 9.50098 12.9844 10.998 12.9844 13.0625V13.0762C12.9844 15.1406 14.167 16.6172 16.0742 16.6172C17.0859 16.6172 17.9199 16.1592 18.3848 15.3457H18.4941V16.8359C18.4941 17.9229 17.708 18.5449 16.3887 18.5449C15.3291 18.5449 14.6729 18.1484 14.543 17.5879L14.5361 17.5811H13.3057L13.292 17.5879C13.4766 18.7979 14.6113 19.5977 16.3887 19.5977ZM16.334 15.5645C14.9668 15.5645 14.2012 14.5391 14.2012 13.0762V13.0625C14.2012 11.5996 14.9668 10.5537 16.334 10.5537C17.6943 10.5537 18.5215 11.5996 18.5215 13.0625V13.0762C18.5215 14.5391 17.7012 15.5645 16.334 15.5645Z" fill="#888888"/>
</svg>
