<svg width="24" height="24" viewBox="0 0 24 24" fill="none" xmlns="http://www.w3.org/2000/svg">
<path d="M12.9554 16.65C12.9928 16.65 13.0161 16.6687 13.0254 16.706C13.0348 16.7433 13.0394 16.7853 13.0394 16.832C13.0394 16.944 13.0114 17 12.9554 17H8.54545C8.48011 17 8.44745 16.944 8.44745 16.832C8.44745 16.7107 8.48011 16.65 8.54545 16.65C9.39478 16.6313 9.81945 16.412 9.81945 15.992C9.81945 15.8893 9.77745 15.7213 9.69345 15.488L9.06345 13.668C9.00745 13.5 8.89545 13.416 8.72745 13.416H5.60545C5.43745 13.416 5.32545 13.4953 5.26945 13.654C5.17611 13.934 5.09211 14.1673 5.01745 14.354L4.69545 15.292C4.63011 15.516 4.59745 15.684 4.59745 15.796C4.59745 16.3653 5.05478 16.65 5.96945 16.65C6.03478 16.65 6.06745 16.7107 6.06745 16.832C6.06745 16.944 6.03478 17 5.96945 17H2.45545C2.39011 17 2.35745 16.944 2.35745 16.832C2.35745 16.7107 2.39011 16.65 2.45545 16.65C2.75411 16.65 3.04345 16.5567 3.32345 16.37C3.60345 16.174 3.82745 15.8567 3.99545 15.418C4.11678 15.1193 5.18078 12.3053 7.18745 6.976C7.23411 6.84533 7.33211 6.75667 7.48145 6.71L7.91545 6.584C7.98078 6.556 8.04611 6.542 8.11145 6.542C8.16745 6.542 8.20478 6.55133 8.22345 6.57C8.25145 6.58867 8.27478 6.62133 8.29345 6.668L8.85345 8.292C9.19878 9.272 9.67011 10.63 10.2674 12.366C10.8648 14.0927 11.2194 15.1053 11.3314 15.404C11.4714 15.7587 11.6161 16.0247 11.7654 16.202C11.9148 16.3793 12.0781 16.5007 12.2554 16.566C12.4421 16.622 12.6754 16.65 12.9554 16.65ZM5.63345 12.674C5.63345 12.8233 5.72211 12.898 5.89945 12.898H8.44745C8.62478 12.898 8.71345 12.8233 8.71345 12.674L8.68545 12.562L7.41145 8.866C7.37411 8.73533 7.32278 8.63733 7.25745 8.572C7.20145 8.50667 7.16411 8.49733 7.14545 8.544C6.84678 9.3 6.35211 10.6393 5.66145 12.562L5.63345 12.674ZM19.9016 10.728C19.799 10.728 19.6776 10.7747 19.5376 10.868C19.4723 10.924 19.4396 10.9893 19.4396 11.064C19.4396 11.1387 19.463 11.2133 19.5096 11.288C19.771 11.652 19.9016 12.0533 19.9016 12.492C19.9016 12.8653 19.799 13.234 19.5936 13.598C19.3976 13.962 19.085 14.27 18.6556 14.522C18.2263 14.7647 17.685 14.886 17.0316 14.886C16.7983 14.886 16.551 14.8627 16.2896 14.816C16.2523 14.8067 16.201 14.802 16.1356 14.802C16.0516 14.802 15.9723 14.8207 15.8976 14.858C15.655 14.998 15.5336 15.1193 15.5336 15.222C15.5336 15.2967 15.5943 15.362 15.7156 15.418C15.837 15.4647 16.0796 15.5207 16.4436 15.586C16.8636 15.6607 17.3536 15.7587 17.9136 15.88C18.483 16.0013 18.945 16.1087 19.2996 16.202C19.7383 16.3233 20.093 16.5053 20.3636 16.748C20.6436 16.9907 20.7836 17.2893 20.7836 17.644C20.7836 18.12 20.583 18.512 20.1816 18.82C19.7803 19.128 19.2856 19.352 18.6976 19.492C18.1096 19.632 17.5263 19.702 16.9476 19.702C16.1823 19.702 15.5476 19.6133 15.0436 19.436C14.549 19.2587 14.1896 19.0393 13.9656 18.778C13.7416 18.526 13.6296 18.274 13.6296 18.022C13.6296 17.7607 13.7463 17.5367 13.9796 17.35C14.213 17.1633 14.5723 16.972 15.0576 16.776C15.1696 16.7293 15.2256 16.6827 15.2256 16.636C15.2256 16.5987 15.165 16.5567 15.0436 16.51C14.7636 16.4167 14.5536 16.3047 14.4136 16.174C14.2736 16.0433 14.2036 15.9033 14.2036 15.754C14.2036 15.586 14.2923 15.4273 14.4696 15.278C14.6563 15.1193 14.9176 14.956 15.2536 14.788C15.3563 14.732 15.4076 14.676 15.4076 14.62C15.4076 14.5453 15.3563 14.4847 15.2536 14.438C14.8803 14.2233 14.5863 13.948 14.3716 13.612C14.1663 13.276 14.0636 12.9073 14.0636 12.506C14.0636 12.0487 14.199 11.638 14.4696 11.274C14.7403 10.9007 15.095 10.6113 15.5336 10.406C15.9723 10.2007 16.439 10.098 16.9336 10.098C17.643 10.098 18.273 10.2753 18.8236 10.63C18.889 10.6767 18.9496 10.7 19.0056 10.7C19.0803 10.7 19.1503 10.6533 19.2156 10.56C19.4023 10.2707 19.617 10.0373 19.8596 9.86C20.1116 9.67333 20.3823 9.58 20.6716 9.58C20.9236 9.58 21.115 9.65467 21.2456 9.804C21.3856 9.95333 21.4556 10.1167 21.4556 10.294C21.4556 10.4807 21.395 10.644 21.2736 10.784C21.1616 10.9147 20.9936 10.98 20.7696 10.98C20.6763 10.98 20.583 10.9613 20.4896 10.924C20.3963 10.8867 20.3403 10.8633 20.3216 10.854C20.1723 10.77 20.0323 10.728 19.9016 10.728ZM16.9756 14.466C17.489 14.466 17.867 14.256 18.1096 13.836C18.3616 13.4067 18.4876 12.926 18.4876 12.394C18.4876 11.8993 18.3616 11.4607 18.1096 11.078C17.8576 10.6953 17.4796 10.504 16.9756 10.504C16.453 10.504 16.0703 10.7187 15.8276 11.148C15.585 11.5773 15.4636 12.0393 15.4636 12.534C15.4636 13.0567 15.5896 13.5093 15.8416 13.892C16.103 14.2747 16.481 14.466 16.9756 14.466ZM19.5096 18.078C19.5096 17.7513 19.2203 17.4993 18.6416 17.322C18.399 17.2473 18.0536 17.1587 17.6056 17.056C17.167 16.9533 16.7376 16.8693 16.3176 16.804C16.2896 16.7947 16.2476 16.79 16.1916 16.79C16.117 16.79 16.033 16.8133 15.9396 16.86C15.2023 17.252 14.8336 17.63 14.8336 17.994C14.8336 18.3673 15.0623 18.6707 15.5196 18.904C15.977 19.1373 16.551 19.254 17.2416 19.254C17.7363 19.254 18.1516 19.1887 18.4876 19.058C18.833 18.9367 19.0896 18.7827 19.2576 18.596C19.4256 18.4187 19.5096 18.246 19.5096 18.078Z" fill="#888888"/>
</svg>
