<svg width="24" height="24" viewBox="0 0 24 24" fill="none" xmlns="http://www.w3.org/2000/svg">
<path d="M12.4972 16.692C12.5532 16.692 12.5812 16.7433 12.5812 16.846C12.5812 16.9487 12.5532 17 12.4972 17H7.66717C7.60184 17 7.56917 16.9487 7.56917 16.846C7.56917 16.7433 7.60184 16.692 7.66717 16.692C8.09651 16.6733 8.40451 16.622 8.59117 16.538C8.78717 16.4447 8.88517 16.3047 8.88517 16.118C8.88517 16.006 8.82451 15.7773 8.70317 15.432L8.03117 13.5H4.67117C4.28851 14.5453 4.05984 15.1987 3.98517 15.46C3.93851 15.5907 3.91517 15.726 3.91517 15.866C3.91517 16.1647 4.04584 16.3793 4.30717 16.51C4.56851 16.6313 4.90451 16.692 5.31517 16.692C5.38051 16.692 5.41317 16.7433 5.41317 16.846C5.41317 16.9487 5.38051 17 5.31517 17H1.74517C1.67984 17 1.64717 16.9487 1.64717 16.846C1.64717 16.7433 1.67984 16.692 1.74517 16.692C2.07184 16.692 2.37051 16.5987 2.64117 16.412C2.92117 16.2253 3.14517 15.9173 3.31317 15.488L6.61717 6.752L7.63917 6.458C7.73251 6.458 7.79317 6.50933 7.82117 6.612C8.11051 7.46133 8.64717 9.02467 9.43117 11.302C10.2152 13.5793 10.6958 14.942 10.8732 15.39C11.0318 15.8007 11.1672 16.0947 11.2792 16.272C11.4005 16.44 11.5452 16.552 11.7132 16.608C11.8905 16.664 12.1518 16.692 12.4972 16.692ZM7.86317 12.996L6.40717 8.768L4.85317 12.996H7.86317ZM19.4918 10.658C19.3051 10.658 19.1465 10.7327 19.0158 10.882C19.5105 11.3487 19.7578 11.8807 19.7578 12.478C19.7578 12.926 19.6271 13.332 19.3658 13.696C19.1045 14.06 18.7358 14.3493 18.2598 14.564C17.7931 14.7693 17.2518 14.872 16.6358 14.872C16.2998 14.872 15.9685 14.8347 15.6418 14.76C15.3618 14.8907 15.2218 15.012 15.2218 15.124C15.2218 15.208 15.2778 15.278 15.3898 15.334C15.5018 15.39 15.7398 15.4507 16.1038 15.516C16.5051 15.5813 16.9951 15.6747 17.5738 15.796C18.1525 15.9173 18.6331 16.0293 19.0158 16.132C19.4918 16.2533 19.8745 16.44 20.1638 16.692C20.4531 16.9347 20.5978 17.2427 20.5978 17.616C20.5978 18.1107 20.3831 18.5167 19.9538 18.834C19.5338 19.1607 19.0158 19.394 18.3998 19.534C17.7838 19.674 17.1771 19.744 16.5798 19.744C15.7585 19.744 15.0865 19.6553 14.5638 19.478C14.0505 19.31 13.6771 19.1 13.4438 18.848C13.2198 18.596 13.1078 18.3393 13.1078 18.078C13.1078 17.8073 13.2478 17.5647 13.5278 17.35C13.8078 17.1447 14.2325 16.9487 14.8018 16.762C14.4285 16.65 14.1438 16.5193 13.9478 16.37C13.7611 16.2113 13.6678 16.048 13.6678 15.88C13.6678 15.516 14.1811 15.1007 15.2078 14.634C14.6758 14.4473 14.2465 14.1673 13.9198 13.794C13.6025 13.4207 13.4438 12.9913 13.4438 12.506C13.4438 12.0207 13.5931 11.5913 13.8918 11.218C14.1998 10.8353 14.5918 10.5413 15.0678 10.336C15.5531 10.1307 16.0525 10.028 16.5658 10.028C16.9671 10.028 17.3545 10.084 17.7278 10.196C18.1105 10.2987 18.4465 10.4527 18.7358 10.658C18.9131 10.2567 19.1371 9.93 19.4078 9.678C19.6785 9.41667 20.0051 9.286 20.3878 9.286C20.6771 9.286 20.9011 9.37933 21.0598 9.566C21.2278 9.75267 21.3118 9.95333 21.3118 10.168C21.3118 10.3827 21.2465 10.5693 21.1158 10.728C20.9851 10.8867 20.7891 10.966 20.5278 10.966C20.4438 10.966 20.3505 10.952 20.2478 10.924C20.1545 10.8867 20.0658 10.8493 19.9818 10.812C19.7765 10.7093 19.6131 10.658 19.4918 10.658ZM16.5658 14.536C17.0791 14.536 17.4431 14.3073 17.6578 13.85C17.8725 13.3833 17.9798 12.8747 17.9798 12.324C17.9798 11.8387 17.8631 11.3953 17.6298 10.994C17.4058 10.5833 17.0651 10.378 16.6078 10.378C16.2905 10.378 16.0291 10.4993 15.8238 10.742C15.6185 10.9753 15.4691 11.26 15.3758 11.596C15.2825 11.932 15.2358 12.2493 15.2358 12.548C15.2358 13.0707 15.3571 13.5327 15.5998 13.934C15.8425 14.3353 16.1645 14.536 16.5658 14.536ZM18.1618 17.504C17.9191 17.4293 17.5225 17.3313 16.9718 17.21C16.4211 17.0887 15.9031 16.986 15.4178 16.902C15.1658 17.0607 14.9511 17.238 14.7738 17.434C14.6058 17.63 14.5218 17.8213 14.5218 18.008C14.5218 18.232 14.6245 18.4467 14.8298 18.652C15.0351 18.8573 15.3198 19.0253 15.6838 19.156C16.0478 19.2867 16.4491 19.352 16.8878 19.352C17.3451 19.352 17.7278 19.2867 18.0358 19.156C18.3531 19.0253 18.5865 18.8713 18.7358 18.694C18.8945 18.5167 18.9738 18.3533 18.9738 18.204C18.9738 18.0453 18.8991 17.9053 18.7498 17.784C18.6005 17.6627 18.4045 17.5693 18.1618 17.504Z" fill="#888888"/>
</svg>
