<svg width="24" height="24" viewBox="0 0 24 24" fill="none" xmlns="http://www.w3.org/2000/svg">
<path d="M12.083 17H8.34375L8.09082 16.0908C7.986 16.1318 7.72396 16.2708 7.30469 16.5078C7.03581 16.681 6.7373 16.9111 6.40918 17.1982L6.01953 16.3711C5.94206 16.207 5.8304 15.9769 5.68457 15.6807L5.31543 17H3.33301C3.62467 15.8743 4.07585 14.0173 4.68652 11.4287C5.06022 9.69694 5.3724 8.05404 5.62305 6.5H9.73145C9.85905 7.21549 10.2077 8.88118 10.7773 11.4971C11.0918 12.8643 11.527 14.6986 12.083 17ZM7.76953 14.7578C7.69206 14.5163 7.55534 14.1243 7.35938 13.582C7.24089 13.2812 7.06087 12.8665 6.81934 12.3379C6.71452 12.6022 6.55046 13.0352 6.32715 13.6367C6.2041 13.9831 6.05827 14.4548 5.88965 15.0518C6.02637 15.0518 6.33626 15.0244 6.81934 14.9697C7.111 14.9287 7.42773 14.8581 7.76953 14.7578ZM21.4756 12.5088C21.43 12.8962 21.3617 13.6276 21.2705 14.7031C21.2249 15.3457 21.1816 16.1068 21.1406 16.9863C20.5299 17.1641 19.639 17.2529 18.4678 17.2529C16.7269 17.2529 15.3118 16.861 14.2227 16.0771C12.9375 15.1429 12.2949 13.7529 12.2949 11.9072C12.2949 10.139 12.8577 8.75814 13.9834 7.76465C15.0407 6.8304 16.4329 6.36328 18.1602 6.36328C18.8118 6.36328 19.5114 6.41341 20.2588 6.51367L20.6348 10.8271C20.334 10.7132 19.9056 10.6562 19.3496 10.6562C18.6432 10.6562 18.0052 10.8727 17.4355 11.3057C16.7975 11.7933 16.4785 12.4131 16.4785 13.165C16.4785 13.876 16.7497 14.4251 17.292 14.8125C17.7477 15.1406 18.2741 15.2956 18.8711 15.2773L18.7617 13.9033C18.7344 13.6208 18.6729 13.1559 18.5771 12.5088H21.4756Z" fill="#888888"/>
</svg>
