<svg width="24" height="24" viewBox="0 0 24 24" fill="none" xmlns="http://www.w3.org/2000/svg">
<path d="M10.7229 14.348C10.6856 14.4693 10.6669 14.5907 10.6669 14.712C10.6669 14.8147 10.6809 14.9033 10.7089 14.978C10.7369 15.0433 10.7649 15.0993 10.7929 15.146C10.8303 15.1833 10.8536 15.2113 10.8629 15.23C10.9563 15.3233 11.0029 15.4167 11.0029 15.51C11.0029 15.5287 10.9936 15.5753 10.9749 15.65C10.9376 15.7807 10.8536 15.874 10.7229 15.93C10.6016 15.9767 10.4103 16 10.1489 16H6.83095C6.63495 16 6.48095 15.9673 6.36895 15.902C6.26628 15.8367 6.21495 15.748 6.21495 15.636C6.21495 15.58 6.22895 15.5193 6.25695 15.454C6.28495 15.3793 6.32228 15.3233 6.36895 15.286C6.42495 15.2393 6.49961 15.188 6.59295 15.132C6.74228 15.048 6.86361 14.9547 6.95695 14.852C7.05028 14.7493 7.12961 14.5813 7.19495 14.348L7.55895 13.144H5.37495L4.99695 13.942C4.83828 14.2873 4.75895 14.558 4.75895 14.754C4.75895 14.866 4.77761 14.9593 4.81495 15.034C4.85228 15.0993 4.90828 15.1693 4.98295 15.244C5.04828 15.3187 5.09028 15.384 5.10895 15.44C5.13695 15.4867 5.14161 15.552 5.12295 15.636C5.08561 15.776 5.00628 15.874 4.88495 15.93C4.77295 15.9767 4.59095 16 4.33895 16H2.25295C2.03828 16 1.87495 15.9627 1.76295 15.888C1.65095 15.804 1.59495 15.6967 1.59495 15.566C1.59495 15.4167 1.65095 15.3 1.76295 15.216C1.86561 15.1227 2.02428 15.0247 2.23895 14.922C2.51895 14.782 2.74295 14.6467 2.91095 14.516C3.07895 14.376 3.22361 14.1847 3.34495 13.942L5.83695 8.776C6.21961 7.97333 6.66761 7.39467 7.18095 7.04C7.70361 6.676 8.38961 6.494 9.23895 6.494C10.1909 6.494 10.9283 6.69 11.4509 7.082C11.9736 7.46467 12.2349 8.00133 12.2349 8.692C12.2349 8.98133 12.1883 9.28 12.0949 9.588L10.7229 14.348ZM7.97895 11.744L8.72095 9.28C8.75828 9.168 8.77695 9.05133 8.77695 8.93C8.77695 8.75267 8.72561 8.622 8.62295 8.538C8.52961 8.44467 8.39428 8.398 8.21695 8.398C7.99295 8.398 7.80161 8.46333 7.64295 8.594C7.48428 8.72467 7.32561 8.958 7.16695 9.294L6.01895 11.744H7.97895ZM20.4283 6.312C20.727 6.312 21.0163 6.37733 21.2963 6.508C21.5857 6.62933 21.819 6.802 21.9963 7.026C22.183 7.24067 22.2763 7.474 22.2763 7.726C22.2763 8.27667 21.903 8.552 21.1563 8.552C20.9417 8.552 20.7737 8.538 20.6523 8.51C20.5403 8.47267 20.405 8.41667 20.2463 8.342C20.2183 8.40733 20.2043 8.50067 20.2043 8.622C20.2043 8.77133 20.2277 8.94867 20.2743 9.154C20.3303 9.35933 20.3957 9.55067 20.4703 9.728C20.6663 10.0173 20.7643 10.3627 20.7643 10.764C20.7643 10.9413 20.741 11.156 20.6943 11.408C20.5823 11.8933 20.335 12.3367 19.9523 12.738C19.579 13.1393 19.0937 13.4567 18.4963 13.69C17.9083 13.914 17.2597 14.026 16.5503 14.026C16.009 14.026 15.5003 13.9887 15.0243 13.914C14.8843 14.0353 14.8143 14.1847 14.8143 14.362C14.8143 14.4833 14.8703 14.586 14.9823 14.67C15.0943 14.7447 15.281 14.782 15.5423 14.782H17.6423C18.361 14.782 18.921 14.908 19.3223 15.16C19.7237 15.4027 19.9243 15.7527 19.9243 16.21C19.9243 16.378 19.8963 16.5507 19.8403 16.728C19.7283 17.092 19.4717 17.428 19.0703 17.736C18.6783 18.0533 18.123 18.31 17.4043 18.506C16.6857 18.702 15.813 18.8 14.7863 18.8C13.8717 18.8 13.097 18.7207 12.4623 18.562C11.8277 18.4033 11.3563 18.184 11.0483 17.904C10.731 17.6333 10.5723 17.33 10.5723 16.994C10.5723 16.9193 10.591 16.8073 10.6283 16.658C10.7123 16.3873 10.9037 16.168 11.2023 16C11.4917 15.8227 11.9723 15.706 12.6443 15.65C12.4203 15.4353 12.3083 15.1787 12.3083 14.88C12.3083 14.7773 12.3223 14.67 12.3503 14.558C12.4997 14.0727 12.9383 13.7133 13.6663 13.48C12.9663 13.0973 12.6163 12.5373 12.6163 11.8C12.6163 11.5947 12.6443 11.38 12.7003 11.156C12.8123 10.6707 13.0597 10.232 13.4423 9.84C13.825 9.43867 14.315 9.12133 14.9123 8.888C15.5097 8.65467 16.163 8.538 16.8723 8.538C17.983 8.538 18.8557 8.68267 19.4903 8.972C19.3503 8.75733 19.2383 8.52867 19.1543 8.286C19.0797 8.034 19.0423 7.80533 19.0423 7.6C19.0423 7.24533 19.1543 6.942 19.3783 6.69C19.6117 6.438 19.9617 6.312 20.4283 6.312ZM17.3903 11.282C17.5397 10.806 17.6143 10.442 17.6143 10.19C17.6143 9.87267 17.479 9.714 17.2083 9.714C16.975 9.714 16.7697 9.83067 16.5923 10.064C16.4243 10.288 16.2517 10.694 16.0743 11.282C15.925 11.7673 15.8503 12.136 15.8503 12.388C15.8503 12.696 15.981 12.85 16.2423 12.85C16.4757 12.85 16.681 12.7333 16.8583 12.5C17.0357 12.2667 17.213 11.8607 17.3903 11.282ZM14.6043 16.196C14.343 16.196 14.105 16.182 13.8903 16.154C13.7783 16.294 13.7223 16.4807 13.7223 16.714C13.7317 16.9473 13.825 17.1153 14.0023 17.218C14.189 17.3207 14.4737 17.372 14.8563 17.372C15.323 17.372 15.701 17.302 15.9903 17.162C16.289 17.022 16.4383 16.8213 16.4383 16.56C16.4383 16.448 16.3963 16.3593 16.3123 16.294C16.2283 16.2287 16.107 16.196 15.9483 16.196H14.6043Z" fill="#888888"/>
</svg>
