<svg width="24" height="24" viewBox="0 0 24 24" fill="none" xmlns="http://www.w3.org/2000/svg">
<path d="M1.51712 17.014C1.39578 17.014 1.31178 16.9207 1.26512 16.734C1.25578 16.706 1.25112 16.6593 1.25112 16.594C1.25112 16.5007 1.26978 16.3607 1.30712 16.174C1.32578 16.0527 1.33978 15.9593 1.34912 15.894C1.36778 15.8193 1.38178 15.7633 1.39112 15.726C1.67112 14.41 1.94645 13.2527 2.21712 12.254L3.19712 7.83C3.19712 7.81133 3.21112 7.78333 3.23912 7.746C3.26712 7.70867 3.29978 7.68533 3.33712 7.676H3.40712C3.40712 7.68533 3.42112 7.69 3.44912 7.69C3.56112 7.69 3.68712 7.676 3.82712 7.648C3.96712 7.62 4.09312 7.606 4.20512 7.606C4.41045 7.606 4.60178 7.62 4.77912 7.648C4.86312 7.648 4.95645 7.65267 5.05912 7.662C5.16178 7.67133 5.26912 7.676 5.38112 7.676C5.41845 7.676 5.46045 7.66667 5.50712 7.648H5.75912H6.08112L6.41712 7.634C6.48245 7.62467 6.56178 7.62 6.65512 7.62C6.72978 7.62 6.76712 7.61533 6.76712 7.606H6.99112H7.46712H8.05512C8.57778 7.606 8.92312 7.61533 9.09112 7.634C9.11912 7.634 9.15645 7.63867 9.20312 7.648C9.25912 7.648 9.29178 7.65733 9.30112 7.676C9.36645 7.676 9.43178 7.67133 9.49712 7.662C9.56245 7.65267 9.62312 7.648 9.67912 7.648C9.80978 7.62 9.93578 7.606 10.0571 7.606C10.1131 7.606 10.1691 7.62 10.2251 7.648C10.2811 7.676 10.3418 7.69 10.4071 7.69L10.4771 7.676H10.5191C10.5471 7.69467 10.5751 7.72267 10.6031 7.76C10.6405 7.788 10.6591 7.81133 10.6591 7.83L11.6391 12.254C11.9378 13.346 12.2085 14.5033 12.4511 15.726C12.4511 15.782 12.4698 15.8427 12.5071 15.908C12.5165 15.9733 12.5305 16.062 12.5491 16.174C12.5678 16.286 12.5771 16.3793 12.5771 16.454C12.5865 16.4913 12.5911 16.5427 12.5911 16.608C12.5911 16.7387 12.5631 16.846 12.5071 16.93C12.4698 16.986 12.4138 17.014 12.3391 17.014H12.1571C12.0171 17.014 11.9098 17.0093 11.8351 17H11.4711H11.1211H10.8411C10.7665 17 10.7291 16.9953 10.7291 16.986H9.84712V16.958C9.80978 16.9393 9.76312 16.93 9.70712 16.93C9.70712 16.93 9.70245 16.9347 9.69312 16.944C9.69312 16.944 9.68845 16.9487 9.67912 16.958C9.67912 16.9767 9.66978 16.986 9.65112 16.986H9.60912H9.49712C9.45045 16.9673 9.35712 16.958 9.21712 16.958C8.93712 16.9393 8.71778 16.93 8.55912 16.93C8.50312 16.846 8.44245 16.678 8.37712 16.426C8.32112 16.174 8.26045 15.894 8.19512 15.586C8.17645 15.4367 8.15778 15.334 8.13912 15.278C7.94312 15.3153 7.68645 15.334 7.36912 15.334H6.93512H6.52912L6.43112 15.782C6.30978 16.398 6.21178 16.7807 6.13712 16.93C6.09978 16.93 6.05312 16.9393 5.99712 16.958C5.97845 16.9673 5.95978 16.9767 5.94112 16.986C5.93178 16.986 5.92712 16.986 5.92712 16.986H5.87112C5.81512 16.986 5.77312 16.9767 5.74512 16.958C5.72645 16.9393 5.70312 16.93 5.67512 16.93L5.04512 16.958H4.82112H4.61112C4.57378 16.9767 4.52712 16.986 4.47112 16.986H4.41512H3.12712H3.00112C2.89845 16.9953 2.68845 17 2.37112 17H2.00712C1.93245 17.0093 1.82512 17.014 1.68512 17.014H1.51712ZM7.98512 13.584C7.91978 13.1267 7.88712 12.898 7.88712 12.898C7.85912 12.7673 7.81245 12.52 7.74712 12.156C7.72845 12.0627 7.68178 11.8107 7.60712 11.4C7.53245 10.952 7.49512 10.728 7.49512 10.728C7.46712 10.5413 7.43912 10.378 7.41112 10.238L7.39712 10.056C7.36912 10.0093 7.35512 9.96733 7.35512 9.93L7.34112 9.846C7.33178 9.86467 7.32712 9.89267 7.32712 9.93C7.32712 9.96733 7.31778 9.99067 7.29912 10V10.056L7.27112 10.238C7.26178 10.3033 7.24778 10.378 7.22912 10.462C7.21978 10.5367 7.20578 10.6207 7.18712 10.714L7.11712 11.106C7.01445 11.694 6.95378 12.0347 6.93512 12.128C6.92578 12.2307 6.90245 12.3847 6.86512 12.59C6.84645 12.6553 6.82778 12.7533 6.80912 12.884L6.69712 13.528H7.41112L7.50912 13.5H7.53712C7.64912 13.5 7.73312 13.5093 7.78912 13.528C7.82645 13.528 7.85912 13.5373 7.88712 13.556C7.92445 13.5653 7.95712 13.5747 7.98512 13.584ZM17.6167 17.322C17.0193 17.322 16.464 17.1773 15.9507 16.888C15.3533 16.5893 14.882 16.1413 14.5367 15.544C14.1447 14.8533 13.9487 14.0133 13.9487 13.024C13.9487 12.3427 14.07 11.7267 14.3127 11.176C14.5647 10.6253 14.9147 10.1587 15.3627 9.776C15.8013 9.40267 16.3193 9.118 16.9167 8.922C17.514 8.726 18.1627 8.628 18.8627 8.628C19.8613 8.628 20.93 8.894 22.0687 9.426L21.5787 11.484C21.4107 11.4467 21.2567 11.4047 21.1167 11.358C20.7527 11.2553 20.4213 11.1807 20.1227 11.134C19.9173 11.0967 19.7587 11.078 19.6467 11.078C19.1613 11.078 18.7833 11.2133 18.5127 11.484C18.1953 11.82 18.0367 12.3567 18.0367 13.094C18.0367 13.7193 18.1347 14.2 18.3307 14.536C18.5173 14.7973 18.7647 14.928 19.0727 14.928C19.3247 14.928 19.5673 14.8767 19.8007 14.774C19.7913 14.6807 19.782 14.5733 19.7727 14.452C19.7633 14.3213 19.7587 14.172 19.7587 14.004C19.7213 13.668 19.684 13.43 19.6467 13.29V12.744C19.6467 12.6787 19.6747 12.646 19.7307 12.646H19.8007C19.8287 12.646 19.8567 12.6413 19.8847 12.632C19.9127 12.6227 19.9407 12.618 19.9687 12.618C20.062 12.5993 20.118 12.59 20.1367 12.59C20.202 12.59 20.2907 12.5993 20.4027 12.618C20.44 12.618 20.482 12.6227 20.5287 12.632C20.5753 12.6413 20.622 12.646 20.6687 12.646C20.706 12.6087 20.8227 12.59 21.0187 12.59C21.168 12.59 21.2847 12.5853 21.3687 12.576C21.4247 12.5573 21.4947 12.548 21.5787 12.548L21.7467 12.506C21.8307 12.5153 21.952 12.52 22.1107 12.52C22.176 12.5293 22.2647 12.534 22.3767 12.534C22.4047 12.534 22.428 12.5387 22.4467 12.548C22.4653 12.548 22.4793 12.548 22.4887 12.548H22.7967L22.8527 12.576V12.968C22.862 13.0147 22.8667 13.0847 22.8667 13.178V13.374V13.738V14.97V15.026C22.8573 15.054 22.8527 15.0913 22.8527 15.138C22.8433 15.1753 22.8387 15.2173 22.8387 15.264V15.334C22.8387 15.8287 22.8293 16.1787 22.8107 16.384C22.792 16.692 22.7593 16.902 22.7127 17.014C22.5167 17.014 22.3627 17.0233 22.2507 17.042H21.9707H21.9427H21.8167L21.8027 17.014L21.7467 17.042H20.5287H20.4727H20.3467H20.2067C20.188 17.0513 20.1553 17.056 20.1087 17.056C20.0433 17.056 19.9967 16.9627 19.9687 16.776C19.922 16.5707 19.8987 16.328 19.8987 16.048C19.8053 16.4587 19.5487 16.776 19.1287 17C18.718 17.2147 18.214 17.322 17.6167 17.322Z" fill="#888888"/>
</svg>
