<svg width="24" height="24" viewBox="0 0 24 24" fill="none" xmlns="http://www.w3.org/2000/svg">
<path d="M6.7791 7.438C6.92377 7.41467 7.1011 7.39833 7.3111 7.389C7.52577 7.375 7.7101 7.368 7.8641 7.368C8.01344 7.368 8.1931 7.375 8.4031 7.389C8.61777 7.39833 8.7951 7.417 8.9351 7.445L12.0081 16.881C11.8774 16.9557 11.7118 17.0117 11.5111 17.049C11.3104 17.091 11.1168 17.112 10.9301 17.112C10.6314 17.112 10.3981 17.0443 10.2301 16.909C10.0668 16.769 9.92677 16.5007 9.8101 16.104L8.5431 11.918C8.42644 11.5167 8.2981 11.0687 8.1581 10.574C8.02277 10.0793 7.90143 9.62433 7.7941 9.209H7.7101C7.66344 9.44233 7.60277 9.70133 7.5281 9.986C7.4581 10.266 7.38344 10.546 7.3041 10.826C7.22944 11.1013 7.16177 11.3463 7.1011 11.561L5.4281 17.014C5.31143 17.042 5.18543 17.0607 5.0501 17.07C4.91477 17.0793 4.77243 17.084 4.6231 17.084C4.47377 17.084 4.31277 17.0723 4.1401 17.049C3.96743 17.0257 3.8251 16.9953 3.7131 16.958L3.6501 16.86L6.7791 7.438ZM6.7721 14.851C6.7161 14.851 6.63443 14.851 6.5271 14.851C6.41977 14.8463 6.3101 14.844 6.1981 14.844C6.09077 14.8393 6.0091 14.837 5.9531 14.837H5.0081L5.5821 13.353H6.4151C6.4711 13.353 6.5481 13.353 6.6461 13.353C6.74877 13.3483 6.8491 13.346 6.9471 13.346C7.04977 13.3413 7.12677 13.339 7.1781 13.339H8.3821C8.44277 13.339 8.5221 13.3413 8.6201 13.346C8.7181 13.346 8.81844 13.3483 8.9211 13.353C9.02377 13.353 9.1031 13.353 9.1591 13.353H10.0201L10.5031 14.837H9.5581C9.5021 14.837 9.4181 14.8393 9.3061 14.844C9.19877 14.844 9.0891 14.8463 8.9771 14.851C8.86977 14.851 8.7881 14.851 8.7321 14.851H6.7721ZM18.9967 10.882C18.8661 10.9893 18.7681 11.1503 18.7027 11.365C18.6374 11.575 18.6047 11.8013 18.6047 12.044V15.957C18.6047 16.5543 18.5767 17.0513 18.5207 17.448C18.4694 17.8493 18.3924 18.1807 18.2897 18.442C18.1871 18.7033 18.0611 18.9273 17.9117 19.114C17.6644 19.4313 17.3261 19.6717 16.8967 19.835C16.4674 20.003 15.9797 20.087 15.4337 20.087C14.9997 20.087 14.5541 20.0427 14.0967 19.954C13.6441 19.8653 13.2474 19.7557 12.9067 19.625C12.9067 19.4057 12.9487 19.1653 13.0327 18.904C13.1214 18.6427 13.2334 18.435 13.3687 18.281C13.6627 18.4163 13.9777 18.5213 14.3137 18.596C14.6544 18.6707 14.9717 18.708 15.2657 18.708C15.6717 18.708 15.9867 18.6357 16.2107 18.491C16.4394 18.3463 16.5981 18.1457 16.6867 17.889C16.7801 17.637 16.8267 17.3523 16.8267 17.035V11.918C16.8267 11.4 16.9527 10.9543 17.2047 10.581C17.4567 10.203 17.8534 9.99067 18.3947 9.944C18.5207 10.028 18.6444 10.1657 18.7657 10.357C18.8917 10.5437 18.9687 10.7187 18.9967 10.882ZM12.6267 13.535C12.6267 12.723 12.7551 12.044 13.0117 11.498C13.2731 10.952 13.6114 10.5413 14.0267 10.266C14.4467 9.99067 14.8947 9.853 15.3707 9.853C15.8047 9.853 16.1757 9.923 16.4837 10.063C16.7917 10.1983 17.0531 10.3663 17.2677 10.567C17.4824 10.7677 17.6574 10.9683 17.7927 11.169L17.5127 12.688C17.2561 12.24 16.9597 11.89 16.6237 11.638C16.2924 11.3813 15.9774 11.253 15.6787 11.253C15.3007 11.253 15.0091 11.449 14.8037 11.841C14.5984 12.233 14.4957 12.8023 14.4957 13.549C14.4957 14.2863 14.5937 14.8207 14.7897 15.152C14.9904 15.4787 15.2354 15.642 15.5247 15.642C15.8514 15.642 16.1664 15.5347 16.4697 15.32C16.7731 15.1007 17.0204 14.802 17.2117 14.424L17.4707 15.747C17.3307 15.985 17.1417 16.209 16.9037 16.419C16.6657 16.629 16.3927 16.8017 16.0847 16.937C15.7767 17.0677 15.4501 17.133 15.1047 17.133C14.5494 17.133 14.0874 16.9813 13.7187 16.678C13.3501 16.3747 13.0747 15.9523 12.8927 15.411C12.7154 14.8697 12.6267 14.2443 12.6267 13.535Z" fill="#888888"/>
</svg>
