<svg width="24" height="24" viewBox="0 0 24 24" fill="none" xmlns="http://www.w3.org/2000/svg">
<path d="M6.79506 14.998C6.7204 14.998 6.63173 14.9957 6.52906 14.991C6.43106 14.9863 6.3354 14.984 6.24206 14.984L5.64706 17.014C5.50706 17.0467 5.3554 17.0677 5.19206 17.077C5.0334 17.091 4.86773 17.098 4.69506 17.098C4.52706 17.098 4.33573 17.084 4.12106 17.056C3.91106 17.0327 3.74306 16.9953 3.61706 16.944L3.53306 16.825L6.62706 7.438C6.8044 7.41 7.01673 7.389 7.26406 7.375C7.51606 7.361 7.7354 7.354 7.92206 7.354C8.0994 7.354 8.31406 7.36333 8.56606 7.382C8.81806 7.396 9.03506 7.41933 9.21706 7.452L12.2271 16.853C12.0731 16.9417 11.8724 17.0093 11.6251 17.056C11.3824 17.1027 11.1561 17.126 10.9461 17.126C10.5914 17.126 10.3137 17.0443 10.1131 16.881C9.9124 16.713 9.7444 16.3887 9.60906 15.908L9.34306 14.984C9.2544 14.984 9.15873 14.9863 9.05606 14.991C8.9534 14.9957 8.86473 14.998 8.79006 14.998H6.79506ZM7.07506 12.149L6.76006 13.234C6.84873 13.234 6.9444 13.234 7.04706 13.234C7.14973 13.2293 7.24073 13.227 7.32006 13.227H8.34206C8.41206 13.227 8.4914 13.2293 8.58006 13.234C8.6734 13.234 8.7644 13.234 8.85306 13.234L8.60806 12.359C8.50073 11.967 8.37473 11.505 8.23006 10.973C8.0854 10.441 7.95473 9.944 7.83806 9.482H7.75406C7.7074 9.74333 7.6444 10.0327 7.56506 10.35C7.48573 10.6673 7.40173 10.9847 7.31306 11.302C7.22906 11.6147 7.14973 11.897 7.07506 12.149ZM17.8858 14.956C17.8858 14.7227 17.8905 14.4893 17.8998 14.256C17.8158 14.256 17.7295 14.256 17.6408 14.256C17.5568 14.256 17.4751 14.256 17.3958 14.256C17.0505 14.256 16.7985 14.1837 16.6398 14.039C16.4811 13.8897 16.4018 13.654 16.4018 13.332C16.4018 13.206 16.4111 13.059 16.4298 12.891C16.4531 12.723 16.4811 12.5947 16.5138 12.506C16.8498 12.492 17.1835 12.485 17.5148 12.485C17.8461 12.4803 18.1821 12.478 18.5228 12.478C19.0595 12.478 19.4258 12.5807 19.6218 12.786C19.8225 12.9913 19.9228 13.283 19.9228 13.661V16.755C19.6755 16.8343 19.3605 16.909 18.9778 16.979C18.5951 17.049 18.1985 17.105 17.7878 17.147C17.3771 17.189 17.0038 17.21 16.6678 17.21C15.7391 17.21 14.9878 17.0397 14.4138 16.699C13.8445 16.3583 13.4291 15.8917 13.1678 15.299C12.9111 14.7017 12.7828 14.025 12.7828 13.269C12.7828 12.2703 12.9671 11.4653 13.3358 10.854C13.7091 10.238 14.2038 9.78767 14.8198 9.503C15.4358 9.21833 16.1101 9.076 16.8428 9.076C17.3935 9.076 17.9231 9.132 18.4318 9.244C18.9451 9.35133 19.3978 9.496 19.7898 9.678C19.7665 9.98133 19.6755 10.2987 19.5168 10.63C19.3628 10.9567 19.1878 11.2063 18.9918 11.379C18.2778 11.0243 17.5988 10.847 16.9548 10.847C15.6808 10.847 15.0438 11.645 15.0438 13.241C15.0438 14.0343 15.2071 14.62 15.5338 14.998C15.8605 15.376 16.3621 15.565 17.0388 15.565C17.1788 15.565 17.3211 15.5603 17.4658 15.551C17.6105 15.537 17.7505 15.5183 17.8858 15.495V14.956Z" fill="#333333"/>
</svg>
