<svg width="24" height="24" viewBox="0 0 24 24" fill="none" xmlns="http://www.w3.org/2000/svg">
<path d="M6.56456 7.438C6.7419 7.41 6.95423 7.389 7.20156 7.375C7.45356 7.361 7.6729 7.354 7.85956 7.354C8.0369 7.354 8.25156 7.361 8.50356 7.375C8.76023 7.389 8.97723 7.41467 9.15456 7.452L12.1646 16.853C12.0106 16.9417 11.8099 17.0093 11.5626 17.056C11.3199 17.1027 11.0936 17.126 10.8836 17.126C10.5289 17.126 10.2512 17.0443 10.0506 16.881C9.8499 16.713 9.6819 16.3887 9.54656 15.908L8.54556 12.359C8.43823 11.967 8.31223 11.505 8.16756 10.973C8.02756 10.441 7.8969 9.944 7.77556 9.482H7.69156C7.6449 9.73867 7.5819 10.0257 7.50256 10.343C7.42323 10.6603 7.33923 10.9777 7.25056 11.295C7.16656 11.6077 7.08723 11.8923 7.01256 12.149L5.58456 17.014C5.44456 17.0467 5.29523 17.0677 5.13656 17.077C4.9779 17.091 4.8099 17.098 4.63256 17.098C4.46456 17.098 4.27323 17.084 4.05856 17.056C3.84856 17.028 3.68056 16.9907 3.55456 16.944L3.47056 16.825L6.56456 7.438ZM6.73256 14.998C6.66723 14.998 6.59023 14.998 6.50156 14.998C6.41756 14.9933 6.33356 14.991 6.24956 14.991C6.16556 14.9863 6.08856 14.984 6.01856 14.984H4.84256L5.52156 13.241H6.55756C6.6229 13.241 6.69756 13.241 6.78156 13.241C6.86556 13.2363 6.94956 13.234 7.03356 13.234C7.11756 13.2293 7.19223 13.227 7.25756 13.227H8.27956C8.34956 13.227 8.42423 13.2293 8.50356 13.234C8.58756 13.234 8.67156 13.2363 8.75556 13.241C8.84423 13.241 8.92123 13.241 8.98656 13.241H10.0576L10.6246 14.984H9.44156C9.37623 14.984 9.29923 14.9863 9.21056 14.991C9.12656 14.991 9.04023 14.9933 8.95156 14.998C8.86756 14.998 8.7929 14.998 8.72756 14.998H6.73256ZM19.2266 11.022C19.1099 11.106 19.0142 11.2413 18.9396 11.428C18.8696 11.61 18.8346 11.8107 18.8346 12.03V15.726C18.8346 16.3793 18.8042 16.9183 18.7436 17.343C18.6876 17.7723 18.6059 18.12 18.4986 18.386C18.3912 18.6567 18.2629 18.8853 18.1136 19.072C17.8382 19.4267 17.4719 19.6857 17.0146 19.849C16.5572 20.0123 16.0486 20.094 15.4886 20.094C15.0499 20.094 14.5926 20.0497 14.1166 19.961C13.6406 19.877 13.2206 19.7673 12.8566 19.632C12.8566 19.3753 12.9079 19.093 13.0106 18.785C13.1132 18.477 13.2416 18.232 13.3956 18.05C13.6942 18.1807 14.0069 18.2833 14.3336 18.358C14.6602 18.4327 14.9776 18.47 15.2856 18.47C15.6262 18.47 15.8992 18.4117 16.1046 18.295C16.3146 18.1783 16.4662 18.0127 16.5596 17.798C16.6529 17.5833 16.6996 17.3337 16.6996 17.049V12.002C16.6996 11.4187 16.8559 10.9263 17.1686 10.525C17.4812 10.119 17.9456 9.91133 18.5616 9.902C18.6969 10.0047 18.8346 10.1703 18.9746 10.399C19.1146 10.623 19.1986 10.8307 19.2266 11.022ZM12.5906 13.521C12.5906 12.7183 12.7189 12.0417 12.9756 11.491C13.2322 10.9357 13.5729 10.5157 13.9976 10.231C14.4222 9.94633 14.8889 9.804 15.3976 9.804C15.8549 9.804 16.2422 9.87867 16.5596 10.028C16.8816 10.1773 17.1476 10.3593 17.3576 10.574C17.5722 10.7887 17.7379 10.9987 17.8546 11.204L17.4976 12.989C17.2269 12.4803 16.9352 12.093 16.6226 11.827C16.3146 11.561 16.0346 11.428 15.7826 11.428C15.4419 11.428 15.1969 11.617 15.0476 11.995C14.9029 12.3683 14.8306 12.8817 14.8306 13.535C14.8306 14.1837 14.9076 14.655 15.0616 14.949C15.2202 15.2383 15.4186 15.383 15.6566 15.383C15.9366 15.383 16.2096 15.2873 16.4756 15.096C16.7462 14.9047 16.9726 14.62 17.1546 14.242L17.4626 15.761C17.3086 16.0223 17.1102 16.258 16.8676 16.468C16.6249 16.678 16.3519 16.8437 16.0486 16.965C15.7499 17.0817 15.4372 17.14 15.1106 17.14C14.5412 17.14 14.0699 16.986 13.6966 16.678C13.3232 16.37 13.0456 15.9453 12.8636 15.404C12.6816 14.858 12.5906 14.2303 12.5906 13.521Z" fill="#888888"/>
</svg>
