<svg width="24" height="24" viewBox="0 0 24 24" fill="none" xmlns="http://www.w3.org/2000/svg">
<path d="M7.50731 7.438C7.62398 7.41933 7.76631 7.40533 7.93431 7.396C8.10698 7.38667 8.25398 7.382 8.37531 7.382C8.49198 7.382 8.63431 7.38667 8.80231 7.396C8.97031 7.40533 9.10565 7.42167 9.20831 7.445L12.3513 16.909C12.244 16.9743 12.111 17.021 11.9523 17.049C11.7983 17.0817 11.642 17.098 11.4833 17.098C11.2453 17.098 11.061 17.0443 10.9303 16.937C10.8043 16.8297 10.6923 16.6197 10.5943 16.307L9.05431 11.442C8.92365 11.036 8.79298 10.6043 8.66231 10.147C8.53165 9.68967 8.41498 9.27667 8.31231 8.908H8.24231C8.19565 9.118 8.13731 9.34667 8.06731 9.594C8.00198 9.84133 7.93665 10.084 7.87131 10.322C7.80598 10.5553 7.74765 10.7583 7.69631 10.931L5.76431 17.014C5.67098 17.0327 5.56831 17.0467 5.45631 17.056C5.34898 17.0653 5.23698 17.07 5.12031 17.07C4.98965 17.07 4.85898 17.0607 4.72831 17.042C4.60231 17.0233 4.49031 17 4.39231 16.972L4.35031 16.895L7.50731 7.438ZM7.31831 14.69C7.27631 14.69 7.18765 14.69 7.05231 14.69C6.92165 14.6853 6.78865 14.683 6.65331 14.683C6.52265 14.6783 6.43398 14.676 6.38731 14.676H5.69431L6.15631 13.465H6.76531C6.81198 13.465 6.89365 13.465 7.01031 13.465C7.12698 13.4603 7.24365 13.458 7.36031 13.458C7.48165 13.4533 7.56331 13.451 7.60531 13.451H8.99831C9.04498 13.451 9.12665 13.4533 9.24331 13.458C9.35998 13.458 9.47898 13.4603 9.60031 13.465C9.72631 13.465 9.81031 13.465 9.85231 13.465H10.4823L10.8813 14.676H10.1883C10.1416 14.676 10.0506 14.6783 9.91531 14.683C9.77998 14.683 9.64465 14.6853 9.50931 14.69C9.37865 14.69 9.28998 14.69 9.24331 14.69H7.31831ZM19.2462 10.735C19.0922 10.8657 18.9872 11.0523 18.9312 11.295C18.8799 11.533 18.8542 11.7873 18.8542 12.058V16.202C18.8542 16.7387 18.8285 17.1913 18.7772 17.56C18.7259 17.9333 18.6512 18.246 18.5532 18.498C18.4552 18.7547 18.3315 18.974 18.1822 19.156C17.9629 19.436 17.6549 19.66 17.2582 19.828C16.8615 20.0007 16.3995 20.087 15.8722 20.087C15.4429 20.087 15.0112 20.0403 14.5772 19.947C14.1432 19.8537 13.7652 19.7417 13.4432 19.611C13.4479 19.4337 13.4852 19.24 13.5552 19.03C13.6252 18.82 13.7162 18.652 13.8282 18.526C14.1222 18.666 14.4442 18.7733 14.7942 18.848C15.1442 18.9273 15.4569 18.967 15.7322 18.967C16.2082 18.967 16.5675 18.8783 16.8102 18.701C17.0575 18.5283 17.2255 18.2927 17.3142 17.994C17.4029 17.7 17.4472 17.3733 17.4472 17.014V11.834C17.4472 11.386 17.5405 10.9893 17.7272 10.644C17.9185 10.294 18.2429 10.0747 18.7002 9.986C18.8169 10.056 18.9289 10.1657 19.0362 10.315C19.1435 10.4643 19.2135 10.6043 19.2462 10.735ZM13.1492 13.556C13.1492 12.7253 13.2799 12.0417 13.5412 11.505C13.8072 10.9683 14.1455 10.5693 14.5562 10.308C14.9669 10.042 15.3915 9.909 15.8302 9.909C16.2362 9.909 16.5885 9.96967 16.8872 10.091C17.1859 10.2123 17.4425 10.3663 17.6572 10.553C17.8765 10.7397 18.0632 10.931 18.2172 11.127L18.0212 12.366C17.7739 11.9833 17.4705 11.6707 17.1112 11.428C16.7565 11.1853 16.4042 11.064 16.0542 11.064C15.6435 11.064 15.3029 11.2693 15.0322 11.68C14.7615 12.086 14.6262 12.716 14.6262 13.57C14.6262 14.4007 14.7475 15.0003 14.9902 15.369C15.2375 15.733 15.5339 15.915 15.8792 15.915C16.2525 15.915 16.6095 15.7937 16.9502 15.551C17.2955 15.3037 17.5639 14.991 17.7552 14.613L17.9722 15.726C17.8462 15.9407 17.6665 16.1553 17.4332 16.37C17.1999 16.58 16.9245 16.7573 16.6072 16.902C16.2945 17.0467 15.9539 17.119 15.5852 17.119C15.0485 17.119 14.5982 16.9697 14.2342 16.671C13.8749 16.3723 13.6042 15.957 13.4222 15.425C13.2402 14.8883 13.1492 14.2653 13.1492 13.556Z" fill="#888888"/>
</svg>
