<svg width="24" height="24" viewBox="0 0 24 24" fill="none" xmlns="http://www.w3.org/2000/svg">
<path d="M7.61307 7.438C7.78574 7.41467 7.99107 7.396 8.22907 7.382C8.46707 7.368 8.67474 7.361 8.85207 7.361C9.02474 7.361 9.23007 7.368 9.46807 7.382C9.71074 7.396 9.91607 7.41933 10.0841 7.452L13.1151 16.86C12.9657 16.944 12.7744 17.007 12.5411 17.049C12.3077 17.0957 12.0884 17.119 11.8831 17.119C11.5471 17.119 11.2834 17.042 11.0921 16.888C10.9007 16.7293 10.7397 16.4213 10.6091 15.964L9.53807 12.233C9.42607 11.8363 9.29774 11.379 9.15307 10.861C9.01307 10.343 8.88707 9.85767 8.77507 9.405H8.69107C8.62107 9.783 8.5184 10.217 8.38307 10.707C8.2524 11.1923 8.1334 11.617 8.02607 11.981L6.52807 17.014C6.3974 17.0467 6.25507 17.0677 6.10107 17.077C5.94707 17.0863 5.7884 17.091 5.62507 17.091C5.46174 17.091 5.27974 17.0793 5.07907 17.056C4.8784 17.0327 4.71507 16.9977 4.58907 16.951L4.51207 16.839L7.61307 7.438ZM7.73907 14.956C7.67374 14.956 7.5944 14.956 7.50107 14.956C7.40774 14.9513 7.3144 14.949 7.22107 14.949C7.1324 14.9443 7.0554 14.942 6.99007 14.942H5.87707L6.53507 13.269H7.50807C7.5734 13.269 7.6504 13.269 7.73907 13.269C7.82774 13.2643 7.9164 13.262 8.00507 13.262C8.09374 13.2573 8.1684 13.255 8.22907 13.255H9.30007C9.3654 13.255 9.4424 13.2573 9.53107 13.262C9.61974 13.262 9.7084 13.2643 9.79707 13.269C9.88574 13.269 9.96274 13.269 10.0281 13.269H11.0361L11.5751 14.942H10.4691C10.4037 14.942 10.3244 14.9443 10.2311 14.949C10.1377 14.949 10.0444 14.9513 9.95107 14.956C9.8624 14.956 9.7854 14.956 9.72007 14.956H7.73907ZM20.1707 10.98C20.0494 11.0687 19.9537 11.2087 19.8837 11.4C19.8137 11.5913 19.7787 11.8037 19.7787 12.037V15.789C19.7787 16.4283 19.7484 16.9557 19.6877 17.371C19.6317 17.791 19.5501 18.134 19.4427 18.4C19.3354 18.666 19.2094 18.8923 19.0647 19.079C18.7941 19.4197 18.4347 19.674 17.9867 19.842C17.5387 20.01 17.0371 20.094 16.4817 20.094C16.0431 20.094 15.5881 20.0497 15.1167 19.961C14.6501 19.877 14.2371 19.765 13.8777 19.625C13.8777 19.3777 13.9267 19.107 14.0247 18.813C14.1227 18.519 14.2464 18.2857 14.3957 18.113C14.6944 18.2437 15.0071 18.3463 15.3337 18.421C15.6651 18.5003 15.9824 18.54 16.2857 18.54C16.6451 18.54 16.9297 18.477 17.1397 18.351C17.3544 18.225 17.5084 18.05 17.6017 17.826C17.6951 17.602 17.7417 17.343 17.7417 17.049V11.981C17.7417 11.4163 17.8887 10.9357 18.1827 10.539C18.4814 10.1423 18.9271 9.93233 19.5197 9.909C19.6551 10.0117 19.7904 10.1703 19.9257 10.385C20.0611 10.595 20.1427 10.7933 20.1707 10.98ZM13.6047 13.528C13.6047 12.7207 13.7331 12.0417 13.9897 11.491C14.2464 10.9403 14.5871 10.525 15.0117 10.245C15.4364 9.96033 15.8984 9.818 16.3977 9.818C16.8457 9.818 17.2284 9.89033 17.5457 10.035C17.8631 10.1797 18.1267 10.3593 18.3367 10.574C18.5514 10.784 18.7194 10.9917 18.8407 11.197L18.5047 12.905C18.2387 12.415 17.9471 12.0393 17.6297 11.778C17.3124 11.512 17.0207 11.379 16.7547 11.379C16.5261 11.379 16.3347 11.4653 16.1807 11.638C16.0314 11.806 15.9194 12.051 15.8447 12.373C15.7747 12.695 15.7397 13.0823 15.7397 13.535C15.7397 14.2117 15.8237 14.7017 15.9917 15.005C16.1644 15.3037 16.3767 15.453 16.6287 15.453C16.9227 15.453 17.2074 15.355 17.4827 15.159C17.7627 14.9583 17.9937 14.669 18.1757 14.291L18.4767 15.761C18.3274 16.0177 18.1314 16.2487 17.8887 16.454C17.6461 16.6593 17.3731 16.825 17.0697 16.951C16.7664 17.0723 16.4467 17.133 16.1107 17.133C15.5461 17.133 15.0771 16.9813 14.7037 16.678C14.3351 16.37 14.0597 15.9453 13.8777 15.404C13.6957 14.8627 13.6047 14.2373 13.6047 13.528Z" fill="#888888"/>
</svg>
