<svg width="24" height="24" viewBox="0 0 24 24" fill="none" xmlns="http://www.w3.org/2000/svg">
<path d="M7.15895 14.487C7.13562 14.487 7.05862 14.487 6.92795 14.487C6.80195 14.4823 6.66429 14.48 6.51495 14.48C6.37029 14.4753 6.25362 14.473 6.16495 14.473L5.33195 17.014C5.20595 17.042 5.05895 17.056 4.89095 17.056C4.78829 17.056 4.70195 17.049 4.63195 17.035C4.56195 17.021 4.48729 17.0047 4.40795 16.986L4.38695 16.944L7.59295 7.438C7.66762 7.424 7.76095 7.41467 7.87295 7.41C7.98962 7.40067 8.08762 7.396 8.16695 7.396C8.24162 7.396 8.33495 7.40067 8.44695 7.41C8.56362 7.41467 8.64762 7.424 8.69895 7.438L11.926 16.944C11.7813 17.0373 11.5853 17.084 11.338 17.084C11.1793 17.084 11.058 17.049 10.974 16.979C10.89 16.909 10.813 16.776 10.743 16.58L10.05 14.473C9.96129 14.473 9.83995 14.4753 9.68595 14.48C9.53662 14.48 9.39662 14.4823 9.26595 14.487C9.13529 14.487 9.05829 14.487 9.03495 14.487H7.15895ZM7.59995 10.119L6.45195 13.619C6.52662 13.6143 6.62462 13.612 6.74595 13.612C6.87195 13.612 6.98629 13.612 7.08895 13.612C7.19629 13.6073 7.26162 13.605 7.28495 13.605H8.92995C8.96262 13.605 9.07929 13.6073 9.27995 13.612C9.48062 13.612 9.64162 13.6143 9.76295 13.619L8.83895 10.826C8.69895 10.4153 8.56595 10.007 8.43995 9.601C8.31395 9.19033 8.20895 8.83333 8.12495 8.53H8.05495C7.98495 8.79133 7.90562 9.08067 7.81695 9.398C7.72829 9.71067 7.65595 9.951 7.59995 10.119ZM16.4445 13.129C16.7385 13.1243 17.0301 13.1197 17.3195 13.115C17.6088 13.1057 17.9075 13.101 18.2155 13.101C18.5795 13.101 18.8221 13.1547 18.9435 13.262C19.0695 13.3647 19.1325 13.5233 19.1325 13.738V16.664C18.7545 16.7947 18.3135 16.9113 17.8095 17.014C17.3055 17.1167 16.7875 17.168 16.2555 17.168C15.6301 17.168 15.1075 17.056 14.6875 16.832C14.2675 16.6033 13.9338 16.3 13.6865 15.922C13.4391 15.544 13.2618 15.1217 13.1545 14.655C13.0471 14.1883 12.9935 13.7147 12.9935 13.234C12.9935 12.4967 13.0891 11.8737 13.2805 11.365C13.4765 10.8563 13.7378 10.4457 14.0645 10.133C14.3958 9.82033 14.7645 9.594 15.1705 9.454C15.5811 9.314 15.9988 9.244 16.4235 9.244C16.9041 9.244 17.3871 9.31867 17.8725 9.468C18.3625 9.61267 18.7801 9.81567 19.1255 10.077C19.0788 10.2263 19.0041 10.3687 18.9015 10.504C18.7988 10.6347 18.6961 10.735 18.5935 10.805C18.2995 10.5857 17.9635 10.413 17.5855 10.287C17.2075 10.161 16.8015 10.098 16.3675 10.098C15.9568 10.098 15.5718 10.196 15.2125 10.392C14.8578 10.588 14.5708 10.917 14.3515 11.379C14.1321 11.8363 14.0225 12.4593 14.0225 13.248C14.0225 15.3107 14.8321 16.342 16.4515 16.342C16.8155 16.342 17.1398 16.3163 17.4245 16.265C17.7138 16.209 17.9635 16.1483 18.1735 16.083V14.655C18.1735 14.5617 18.1758 14.4543 18.1805 14.333C18.1851 14.2117 18.1968 14.088 18.2155 13.962C17.9728 13.9667 17.7325 13.969 17.4945 13.969C17.2565 13.969 17.0395 13.969 16.8435 13.969C16.5308 13.969 16.3745 13.8173 16.3745 13.514C16.3745 13.4673 16.3791 13.4067 16.3885 13.332C16.4025 13.2527 16.4211 13.185 16.4445 13.129Z" fill="#888888"/>
</svg>
