<svg width="24" height="24" viewBox="0 0 24 24" fill="none" xmlns="http://www.w3.org/2000/svg">
<path d="M9.92188 15.6328L9.375 13.2266H6.91406L6.42188 15.3047C6.34896 15.6328 6.34896 15.9062 6.42188 16.125C6.49479 16.3073 6.65885 16.3984 6.91406 16.3984H7.07812V16.7266H5.05469V16.3984H5.21875C5.36458 16.3984 5.49219 16.362 5.60156 16.2891C5.71094 16.1797 5.78385 16.0156 5.82031 15.7969L7.95312 7.42969L8.77344 7.15625L10.8516 15.7969C10.9245 16.0156 11.0156 16.1797 11.125 16.2891C11.2344 16.362 11.362 16.3984 11.5078 16.3984H11.6719V16.7266H9.32031V16.3984H9.53906C9.75781 16.3984 9.88542 16.3438 9.92188 16.2344C9.99479 16.0885 9.99479 15.888 9.92188 15.6328ZM9.32031 12.8984L8.22656 8.35938H8.17188L7.02344 12.8984H9.32031ZM14.2422 11.3125C13.987 11.5677 13.8594 12.0052 13.8594 12.625C13.8594 13.0625 13.987 13.4453 14.2422 13.7734C14.4974 14.0651 14.8438 14.2109 15.2812 14.2109C15.7552 14.2109 16.1016 14.0833 16.3203 13.8281C16.5755 13.5365 16.7031 13.1354 16.7031 12.625C16.7031 12.0052 16.5573 11.5677 16.2656 11.3125C16.0104 11.0208 15.6823 10.875 15.2812 10.875C14.8802 10.875 14.5339 11.0208 14.2422 11.3125ZM15.5 15.4688C15.901 15.5052 16.2474 15.5417 16.5391 15.5781C17.0859 15.651 17.487 15.8151 17.7422 16.0703C17.9974 16.2891 18.125 16.599 18.125 17C18.125 17.5469 17.888 17.9844 17.4141 18.3125C16.9766 18.6406 16.2656 18.8047 15.2812 18.8047C14.5156 18.8047 13.8958 18.6406 13.4219 18.3125C12.9479 18.0208 12.7109 17.6745 12.7109 17.2734C12.7109 17.0182 12.8021 16.763 12.9844 16.5078C13.1667 16.2526 13.4583 16.0521 13.8594 15.9062C13.6406 15.7969 13.4583 15.6875 13.3125 15.5781C13.2031 15.4323 13.1484 15.2682 13.1484 15.0859C13.1484 14.8672 13.2214 14.6849 13.3672 14.5391C13.513 14.3568 13.6953 14.2109 13.9141 14.1016C13.6953 13.9193 13.4948 13.7005 13.3125 13.4453C13.1667 13.1901 13.0938 12.9167 13.0938 12.625C13.0938 12.0781 13.276 11.6042 13.6406 11.2031C14.0417 10.7656 14.5885 10.5469 15.2812 10.5469C15.5729 10.5469 15.8464 10.5833 16.1016 10.6562C16.3932 10.7292 16.6302 10.8568 16.8125 11.0391C17.0677 10.8568 17.2865 10.7292 17.4688 10.6562C17.6875 10.5469 17.8698 10.4922 18.0156 10.4922C18.1979 10.4922 18.3255 10.5651 18.3984 10.7109C18.4714 10.8203 18.5078 10.9297 18.5078 11.0391C18.5078 11.1849 18.4714 11.3125 18.3984 11.4219C18.362 11.4948 18.2708 11.5312 18.125 11.5312C18.0156 11.5312 17.9245 11.513 17.8516 11.4766C17.7786 11.4036 17.724 11.3125 17.6875 11.2031C17.651 11.0938 17.5599 11.0573 17.4141 11.0938C17.3047 11.0938 17.1771 11.1484 17.0312 11.2578C17.1771 11.4036 17.2865 11.6042 17.3594 11.8594C17.4323 12.1146 17.4688 12.3698 17.4688 12.625C17.4688 13.0625 17.2865 13.5 16.9219 13.9375C16.5938 14.3385 16.0469 14.5391 15.2812 14.5391C15.0625 14.5391 14.862 14.5208 14.6797 14.4844C14.4974 14.4115 14.3516 14.3385 14.2422 14.2656C14.0964 14.3385 13.987 14.4297 13.9141 14.5391C13.8411 14.6484 13.8047 14.7396 13.8047 14.8125C13.8047 14.9583 13.8411 15.0677 13.9141 15.1406C13.987 15.2135 14.0964 15.25 14.2422 15.25C14.7161 15.3229 15.1354 15.3958 15.5 15.4688ZM15.6641 16.2344C15.2266 16.1615 14.7708 16.0885 14.2969 16.0156C13.9688 16.1615 13.7318 16.3438 13.5859 16.5625C13.4766 16.7448 13.4219 16.9818 13.4219 17.2734C13.4219 17.5651 13.5859 17.8385 13.9141 18.0938C14.2422 18.349 14.7344 18.4766 15.3906 18.4766C16.0104 18.4766 16.5026 18.3672 16.8672 18.1484C17.2318 17.9661 17.4141 17.6745 17.4141 17.2734C17.4141 17.0182 17.3594 16.8177 17.25 16.6719C17.1771 16.526 17.0495 16.4349 16.8672 16.3984C16.5026 16.3255 16.1016 16.2708 15.6641 16.2344Z" fill="#333333"/>
</svg>
