<svg width="24" height="24" viewBox="0 0 24 24" fill="none" xmlns="http://www.w3.org/2000/svg">
<path d="M3.29605 15.5956L3.96182 15.3218C4.03234 15.2927 4.10286 15.245 4.17338 15.1787C4.23975 15.1081 4.29575 15.0356 4.34138 14.9609L8.14938 8.67644L9.2196 7.23289H10.1778L11.4658 14.9858C11.4824 15.077 11.5177 15.1579 11.5716 15.2284C11.6255 15.2948 11.7002 15.3446 11.7956 15.3778L12.4178 15.5956L12.3307 16H8.63471L8.72182 15.5956L9.72982 15.2907L9.34405 12.9573H6.50671L5.13782 15.2907L6.15205 15.5956L6.05871 16H3.20271L3.29605 15.5956ZM9.21338 12.2231L8.85871 10.1387L8.72805 9.24267H8.70938L6.94227 12.2231H9.21338ZM14.1771 18.9556C13.9116 18.9556 13.6627 18.9348 13.4304 18.8933C13.1981 18.856 12.9741 18.8104 12.7584 18.7564L13.2064 17.3129H13.3931C13.5258 17.3668 13.6793 17.4166 13.8535 17.4622C14.0319 17.5079 14.2103 17.5452 14.3887 17.5742C14.567 17.6074 14.7392 17.6323 14.9051 17.6489C15.071 17.6696 15.2121 17.68 15.3282 17.68C15.407 17.68 15.4817 17.6759 15.5522 17.6676C15.6269 17.6634 15.6974 17.653 15.7638 17.6364C15.8301 17.6199 15.8903 17.597 15.9442 17.568C16.0023 17.5431 16.0541 17.5079 16.0998 17.4622C16.1329 17.4332 16.1703 17.3544 16.2118 17.2258C16.2574 17.1013 16.303 16.952 16.3487 16.7778C16.3943 16.6036 16.4378 16.4169 16.4793 16.2178C16.5249 16.0187 16.5685 15.832 16.61 15.6578L16.7469 14.992C16.5892 15.1745 16.4378 15.3301 16.2927 15.4587C16.1475 15.5831 15.9981 15.6868 15.8447 15.7698C15.6912 15.8486 15.5273 15.9067 15.3531 15.944C15.183 15.9813 14.9922 16 14.7807 16C14.4488 16 14.1605 15.9378 13.9158 15.8133C13.6752 15.6889 13.474 15.5209 13.3122 15.3093C13.1546 15.0978 13.0364 14.853 12.9575 14.5751C12.8829 14.2972 12.8455 14.0047 12.8455 13.6978C12.8455 13.3825 12.8787 13.0631 12.9451 12.7396C13.0115 12.416 13.111 12.107 13.2438 11.8124C13.3765 11.5138 13.5383 11.2359 13.7291 10.9787C13.9199 10.7173 14.1398 10.4913 14.3887 10.3004C14.6375 10.1096 14.9113 9.95822 15.21 9.84622C15.5087 9.73422 15.8322 9.67822 16.1807 9.67822C16.3134 9.67822 16.4441 9.69274 16.5727 9.72178C16.7012 9.74667 16.8236 9.784 16.9398 9.83378C17.0601 9.88356 17.1721 9.94578 17.2758 10.0204C17.3795 10.091 17.4749 10.1719 17.562 10.2631L17.8731 9.73422H19.6713C19.5759 9.94163 19.4909 10.1511 19.4162 10.3627C19.3415 10.5701 19.2793 10.7858 19.2295 11.0098L18.3584 15.5458C18.3128 15.7822 18.2527 16.0021 18.178 16.2053C18.1075 16.4086 18.0204 16.5994 17.9167 16.7778C17.8129 16.9603 17.6927 17.1324 17.5558 17.2942C17.4189 17.456 17.2654 17.6116 17.0953 17.7609C16.8713 17.9641 16.6494 18.1404 16.4295 18.2898C16.2097 18.4391 15.9836 18.5636 15.7513 18.6631C15.5232 18.7627 15.2784 18.8353 15.0171 18.8809C14.7599 18.9307 14.4799 18.9556 14.1771 18.9556ZM15.714 14.9733C15.8135 14.9733 15.9152 14.963 16.0189 14.9422C16.1226 14.9215 16.2221 14.8924 16.3175 14.8551C16.4129 14.8136 16.5021 14.7639 16.5851 14.7058C16.6722 14.6477 16.7489 14.5772 16.8153 14.4942L17.5744 10.7733C17.4251 10.6821 17.2612 10.6136 17.0829 10.568C16.9045 10.5224 16.722 10.4996 16.5353 10.4996C16.3072 10.4996 16.1018 10.5493 15.9193 10.6489C15.7409 10.7484 15.5833 10.8812 15.4464 11.0471C15.3095 11.2089 15.1934 11.3956 15.098 11.6071C15.0026 11.8187 14.9238 12.0364 14.8615 12.2604C14.7993 12.4844 14.7537 12.7084 14.7247 12.9324C14.6998 13.1523 14.6873 13.3514 14.6873 13.5298C14.6873 13.6999 14.7018 13.8699 14.7309 14.04C14.7641 14.2101 14.818 14.3656 14.8927 14.5067C14.9673 14.6436 15.071 14.7556 15.2038 14.8427C15.3365 14.9298 15.5066 14.9733 15.714 14.9733Z" fill="#333333"/>
</svg>
