<svg width="24" height="24" viewBox="0 0 24 24" fill="none" xmlns="http://www.w3.org/2000/svg">
<path d="M4.65901 15.7076L5.19412 15.552C5.27708 15.5271 5.34967 15.4815 5.41189 15.4151C5.47826 15.3446 5.52804 15.2679 5.56123 15.1849L8.03145 8.72622L8.78434 7.29511H9.02701L12.0759 15.1849C12.1091 15.2679 12.1568 15.3446 12.219 15.4151C12.2854 15.4815 12.36 15.5271 12.443 15.552L12.9781 15.7076V16H9.94789V15.7076L11.0306 15.5022L9.99767 12.8142H6.98612L6.02167 15.4773L7.07945 15.7076V16H4.65901V15.7076ZM9.80478 12.3413L8.78434 9.71556L8.47323 8.87556H8.46701L7.17901 12.3413H9.80478ZM14.2355 15.9067C14.1318 15.8818 14.0198 15.8403 13.8995 15.7822C13.7833 15.7241 13.6734 15.6495 13.5697 15.5582C13.4701 15.4628 13.3851 15.3508 13.3146 15.2222C13.2482 15.0895 13.215 14.936 13.215 14.7618C13.215 14.5751 13.2524 14.4175 13.327 14.2889C13.4058 14.1561 13.5012 14.0462 13.6132 13.9591C13.7294 13.8679 13.8538 13.7953 13.9866 13.7413C14.1235 13.6874 14.2479 13.6459 14.3599 13.6169C14.2023 13.5298 14.0592 13.4323 13.9306 13.3244C13.802 13.2124 13.69 13.0839 13.5946 12.9387C13.5033 12.7935 13.4307 12.6276 13.3768 12.4409C13.327 12.2542 13.3021 12.0427 13.3021 11.8062C13.3021 11.5449 13.3602 11.2939 13.4764 11.0533C13.5967 10.8086 13.7605 10.595 13.9679 10.4124C14.1795 10.2258 14.4304 10.0764 14.7208 9.96444C15.0112 9.85244 15.3285 9.79644 15.6728 9.79644C15.8346 9.79644 16.0129 9.81304 16.2079 9.84622C16.407 9.87941 16.5937 9.92089 16.7679 9.97067H18.927L18.7839 10.7111L17.023 10.288C17.1558 10.4 17.2698 10.5203 17.3652 10.6489C17.4648 10.7775 17.5457 10.9081 17.6079 11.0409C17.6743 11.1736 17.722 11.3084 17.751 11.4453C17.7842 11.5781 17.8008 11.7067 17.8008 11.8311C17.8008 12.1256 17.751 12.3973 17.6515 12.6462C17.5519 12.891 17.4067 13.1046 17.2159 13.2871C17.0251 13.4655 16.7887 13.6065 16.5066 13.7102C16.2287 13.8098 15.9092 13.8596 15.5484 13.8596C15.482 13.8596 15.4115 13.8596 15.3368 13.8596C15.2663 13.8554 15.1958 13.8513 15.1252 13.8471C15.0547 13.8388 14.9842 13.8284 14.9137 13.816C14.8473 13.8036 14.783 13.789 14.7208 13.7724C14.6461 13.7724 14.5694 13.789 14.4906 13.8222C14.4159 13.8513 14.3475 13.8927 14.2852 13.9467C14.223 14.0006 14.1732 14.0649 14.1359 14.1396C14.0986 14.2101 14.0799 14.2868 14.0799 14.3698C14.0799 14.4693 14.0944 14.5585 14.1235 14.6373C14.1567 14.7161 14.2002 14.7825 14.2541 14.8364C14.3081 14.8904 14.3703 14.9319 14.4408 14.9609C14.5155 14.9899 14.5922 15.0044 14.671 15.0044H16.631C17.0168 15.0044 17.3383 15.0542 17.5955 15.1538C17.8568 15.2492 18.0663 15.3757 18.2239 15.5333C18.3815 15.6868 18.4935 15.859 18.5599 16.0498C18.6263 16.2406 18.6595 16.4273 18.6595 16.6098C18.6595 16.9499 18.5765 17.261 18.4106 17.5431C18.2447 17.8293 18.0186 18.0741 17.7324 18.2773C17.4461 18.4847 17.1101 18.6444 16.7244 18.7564C16.3386 18.8726 15.9258 18.9307 15.4861 18.9307C15.1045 18.9307 14.7561 18.8975 14.4408 18.8311C14.1255 18.7647 13.8518 18.6652 13.6195 18.5324C13.3913 18.4039 13.2129 18.2441 13.0844 18.0533C12.9599 17.8625 12.8977 17.6406 12.8977 17.3876C12.8977 17.1677 12.935 16.9769 13.0097 16.8151C13.0844 16.6533 13.1839 16.5123 13.3084 16.392C13.4328 16.2759 13.5738 16.1784 13.7315 16.0996C13.8932 16.0249 14.0612 15.9606 14.2355 15.9067ZM15.623 13.5049C15.8138 13.5049 15.9777 13.4593 16.1146 13.368C16.2556 13.2726 16.3697 13.1461 16.4568 12.9884C16.5481 12.8267 16.6144 12.6421 16.6559 12.4347C16.6974 12.2273 16.7181 12.0095 16.7181 11.7813C16.7181 11.5449 16.6912 11.3292 16.6372 11.1342C16.5833 10.9351 16.5066 10.765 16.407 10.624C16.3116 10.4788 16.1934 10.3668 16.0524 10.288C15.9155 10.205 15.7599 10.1636 15.5857 10.1636C15.3783 10.1636 15.202 10.2071 15.0568 10.2942C14.9116 10.3813 14.7913 10.4996 14.6959 10.6489C14.6047 10.7982 14.5362 10.9724 14.4906 11.1716C14.4491 11.3665 14.4284 11.5739 14.4284 11.7938C14.4284 12.0344 14.4553 12.2584 14.5092 12.4658C14.5632 12.6732 14.6399 12.8536 14.7395 13.0071C14.8432 13.1606 14.9697 13.283 15.119 13.3742C15.2684 13.4613 15.4364 13.5049 15.623 13.5049ZM14.615 15.9191C14.5404 15.9399 14.4615 15.9772 14.3786 16.0311C14.2998 16.0892 14.2272 16.1659 14.1608 16.2613C14.0944 16.3567 14.0384 16.4729 13.9928 16.6098C13.9513 16.7508 13.9306 16.9126 13.9306 17.0951C13.9306 17.2735 13.9596 17.4311 14.0177 17.568C14.0758 17.7049 14.1525 17.8231 14.2479 17.9227C14.3475 18.0264 14.4595 18.1114 14.5839 18.1778C14.7125 18.2483 14.8432 18.3043 14.9759 18.3458C15.1128 18.3914 15.2476 18.4225 15.3804 18.4391C15.5172 18.4599 15.6417 18.4702 15.7537 18.4702C15.9984 18.4702 16.2411 18.4412 16.4817 18.3831C16.7223 18.3292 16.938 18.2421 17.1288 18.1218C17.3238 18.0015 17.4793 17.848 17.5955 17.6613C17.7158 17.4747 17.7759 17.2527 17.7759 16.9956C17.7759 16.8711 17.7531 16.7446 17.7075 16.616C17.6618 16.4874 17.5913 16.3713 17.4959 16.2676C17.4005 16.168 17.2761 16.085 17.1226 16.0187C16.9691 15.9523 16.7845 15.9191 16.5688 15.9191H14.615Z" fill="#333333"/>
</svg>
