<svg width="24" height="24" viewBox="0 0 24 24" fill="none" xmlns="http://www.w3.org/2000/svg">
<path d="M2.93116 15.5209L3.55338 15.2533C3.71101 15.1828 3.82301 15.0646 3.88938 14.8987L6.39694 8.53333L7.14983 7.06489H8.36316L11.4121 14.9173C11.4452 14.992 11.4888 15.0625 11.5427 15.1289C11.6008 15.1911 11.6651 15.2367 11.7356 15.2658L12.3703 15.5209V16H8.42538V15.5209L9.48938 15.1849L8.64938 13.0942H5.65027L4.85383 15.1538L5.91161 15.5209V16H2.93116V15.5209ZM8.30094 12.1982L7.46716 10.0578L7.19338 9.21778H7.12494L6.00494 12.1982H8.30094ZM15.6071 19.024C15.1467 19.024 14.7215 18.9887 14.3316 18.9182C13.9458 18.8477 13.6119 18.7419 13.3298 18.6009C13.0477 18.464 12.8258 18.2939 12.664 18.0907C12.5064 17.8874 12.4276 17.653 12.4276 17.3876C12.4276 17.1843 12.4608 17.008 12.5271 16.8587C12.5976 16.7093 12.6972 16.5807 12.8258 16.4729C12.9585 16.365 13.1245 16.2717 13.3236 16.1929C13.5227 16.1182 13.7529 16.0519 14.0142 15.9938V15.944C13.8774 15.9108 13.7363 15.861 13.5911 15.7947C13.4501 15.7241 13.3194 15.637 13.1991 15.5333C13.0788 15.4296 12.9814 15.3093 12.9067 15.1724C12.832 15.0314 12.7947 14.8759 12.7947 14.7058C12.7947 14.5191 12.8341 14.3573 12.9129 14.2204C12.9959 14.0794 13.1016 13.957 13.2302 13.8533C13.363 13.7496 13.5082 13.6646 13.6658 13.5982C13.8234 13.5319 13.9811 13.4821 14.1387 13.4489V13.4053C13.9894 13.3265 13.84 13.2332 13.6907 13.1253C13.5414 13.0175 13.4045 12.891 13.28 12.7458C13.1597 12.6006 13.0602 12.4326 12.9814 12.2418C12.9067 12.051 12.8694 11.8332 12.8694 11.5884C12.8694 11.2773 12.9399 10.987 13.0809 10.7173C13.2219 10.4436 13.4211 10.2071 13.6782 10.008C13.9354 9.80474 14.2445 9.64504 14.6054 9.52889C14.9662 9.41274 15.3665 9.35467 15.8062 9.35467C16.0842 9.35467 16.3517 9.37333 16.6089 9.41067C16.8702 9.448 17.1171 9.49156 17.3494 9.54133H19.7014L19.6205 10.4809L18.0525 10.3129V10.3502C18.152 10.4332 18.2371 10.5265 18.3076 10.6302C18.3822 10.7298 18.4424 10.8356 18.488 10.9476C18.5336 11.0554 18.5668 11.1674 18.5876 11.2836C18.6083 11.3997 18.6187 11.5138 18.6187 11.6258C18.6187 11.9369 18.5544 12.2231 18.4258 12.4844C18.2972 12.7458 18.1085 12.9719 17.8596 13.1627C17.6148 13.3535 17.312 13.5028 16.9511 13.6107C16.5902 13.7185 16.1796 13.7724 15.7191 13.7724C15.4661 13.7724 15.2462 13.76 15.0596 13.7351C14.8729 13.7102 14.7215 13.6791 14.6054 13.6418C14.5639 13.6625 14.5245 13.6916 14.4871 13.7289C14.4498 13.7621 14.4166 13.8036 14.3876 13.8533C14.3585 13.899 14.3336 13.9529 14.3129 14.0151C14.2963 14.0732 14.288 14.1375 14.288 14.208C14.288 14.291 14.3025 14.3615 14.3316 14.4196C14.3606 14.4776 14.3979 14.5274 14.4436 14.5689C14.4934 14.6062 14.5494 14.6373 14.6116 14.6622C14.6779 14.6871 14.7464 14.7058 14.8169 14.7182H16.9636C17.4282 14.7182 17.8139 14.7742 18.1209 14.8862C18.4279 14.9982 18.6726 15.1434 18.8551 15.3218C19.0418 15.5001 19.1725 15.6972 19.2471 15.9129C19.3259 16.1286 19.3654 16.3401 19.3654 16.5476C19.3654 16.9167 19.2699 17.2527 19.0791 17.5556C18.8883 17.8625 18.6249 18.1239 18.2889 18.3396C17.9529 18.5553 17.5547 18.7233 17.0942 18.8436C16.6379 18.9639 16.1422 19.024 15.6071 19.024ZM15.7502 13.1253C15.9203 13.1253 16.0676 13.0901 16.192 13.0196C16.3165 12.9449 16.4181 12.8391 16.4969 12.7022C16.5757 12.5653 16.6338 12.4015 16.6711 12.2107C16.7085 12.0157 16.7271 11.7959 16.7271 11.5511C16.7271 11.3147 16.7064 11.1031 16.6649 10.9164C16.6234 10.7256 16.5591 10.568 16.472 10.4436C16.3891 10.315 16.2874 10.2175 16.1671 10.1511C16.0468 10.0806 15.9079 10.0453 15.7502 10.0453C15.6009 10.0453 15.4661 10.0785 15.3458 10.1449C15.2296 10.2113 15.1301 10.3087 15.0471 10.4373C14.9683 10.5618 14.9082 10.7194 14.8667 10.9102C14.8252 11.0969 14.8045 11.3126 14.8045 11.5573C14.8045 11.8062 14.8231 12.0281 14.8605 12.2231C14.9019 12.4139 14.9621 12.5778 15.0409 12.7147C15.1239 12.8474 15.2234 12.949 15.3396 13.0196C15.4557 13.0901 15.5926 13.1253 15.7502 13.1253ZM15.9369 18.2524C16.1402 18.2524 16.3455 18.2296 16.5529 18.184C16.7603 18.1384 16.947 18.0637 17.1129 17.96C17.283 17.8604 17.4199 17.7319 17.5236 17.5742C17.6273 17.4166 17.6791 17.2237 17.6791 16.9956C17.6791 16.8877 17.6584 16.7819 17.6169 16.6782C17.5796 16.5745 17.5174 16.4833 17.4302 16.4044C17.3473 16.3256 17.2374 16.2613 17.1005 16.2116C16.9677 16.1659 16.8059 16.1431 16.6151 16.1431H14.568C14.5016 16.2344 14.4374 16.3505 14.3751 16.4916C14.3129 16.6367 14.2818 16.8213 14.2818 17.0453C14.2818 17.2776 14.3399 17.4705 14.456 17.624C14.5722 17.7775 14.7153 17.8999 14.8854 17.9911C15.0554 18.0865 15.2338 18.1529 15.4205 18.1902C15.6113 18.2317 15.7834 18.2524 15.9369 18.2524Z" fill="#333333"/>
</svg>
