<svg width="24" height="24" viewBox="0 0 24 24" fill="none" xmlns="http://www.w3.org/2000/svg">
<path d="M3.1471 15.5333L3.78176 15.2533C3.85643 15.2201 3.92073 15.1724 3.97465 15.1102C4.03273 15.0439 4.07421 14.9775 4.0991 14.9111L6.63154 8.42756L7.36576 6.94044H8.06888L11.2111 14.9298C11.2401 15.0003 11.2795 15.0687 11.3293 15.1351C11.3832 15.2015 11.4434 15.2471 11.5098 15.272L12.1693 15.5333V16H8.87154V15.5333L9.91688 15.1724L9.02088 12.8702H5.72932L4.8831 15.1413L5.94088 15.5333V16H3.1471V15.5333ZM8.71599 12.0053L7.68932 9.46667L7.44665 8.62667H7.34088L6.03421 12.0053H8.71599ZM14.0298 15.776C13.9219 15.7428 13.8078 15.6951 13.6875 15.6329C13.5714 15.5665 13.4635 15.4856 13.364 15.3902C13.2686 15.2907 13.1898 15.1766 13.1275 15.048C13.0653 14.9153 13.0342 14.7659 13.0342 14.6C13.0342 14.405 13.0674 14.2329 13.1338 14.0836C13.2043 13.9301 13.2955 13.8015 13.4075 13.6978C13.5237 13.5899 13.6502 13.5028 13.7871 13.4364C13.924 13.3659 14.0588 13.3161 14.1915 13.2871V13.2187C14.0754 13.1523 13.953 13.0693 13.8244 12.9698C13.7 12.8661 13.5838 12.7416 13.476 12.5964C13.3681 12.4513 13.2789 12.2833 13.2084 12.0924C13.1379 11.9016 13.1026 11.6859 13.1026 11.4453C13.1026 11.1093 13.1649 10.8003 13.2893 10.5182C13.4138 10.232 13.5921 9.98726 13.8244 9.784C14.0567 9.57659 14.3367 9.41689 14.6644 9.30489C14.9921 9.18874 15.3613 9.13067 15.772 9.13067C16.0623 9.13067 16.3258 9.14726 16.5622 9.18044C16.8028 9.21363 17.0351 9.25511 17.2591 9.30489H19.4618L19.4244 10.0889L17.8315 9.98933V10.0453C17.9145 10.149 17.9912 10.2507 18.0618 10.3502C18.1323 10.4498 18.1924 10.5556 18.2422 10.6676C18.292 10.7754 18.3293 10.8936 18.3542 11.0222C18.3832 11.1508 18.3978 11.2981 18.3978 11.464C18.3978 11.7793 18.3376 12.0717 18.2173 12.3413C18.097 12.611 17.9228 12.8453 17.6946 13.0444C17.4665 13.2394 17.1865 13.3929 16.8546 13.5049C16.5228 13.6169 16.1432 13.6729 15.716 13.6729C15.5915 13.6729 15.4671 13.6667 15.3426 13.6542C15.2223 13.6418 15.1083 13.6273 15.0004 13.6107C14.8926 13.5899 14.7951 13.5671 14.708 13.5422C14.6209 13.5132 14.5503 13.4883 14.4964 13.4676C14.4466 13.4883 14.3948 13.5173 14.3409 13.5547C14.2869 13.592 14.2372 13.6397 14.1915 13.6978C14.15 13.7559 14.1169 13.8243 14.092 13.9031C14.0671 13.9778 14.0546 14.0607 14.0546 14.152C14.0546 14.2308 14.0671 14.3076 14.092 14.3822C14.121 14.4569 14.1583 14.5253 14.204 14.5876C14.2496 14.6498 14.3035 14.7037 14.3658 14.7493C14.428 14.7908 14.4902 14.8219 14.5524 14.8427H16.8795C17.3068 14.8427 17.6656 14.8924 17.956 14.992C18.2505 15.0916 18.4869 15.2243 18.6653 15.3902C18.8437 15.552 18.9723 15.7345 19.0511 15.9378C19.1299 16.141 19.1693 16.3422 19.1693 16.5413C19.1693 16.9147 19.076 17.2548 18.8893 17.5618C18.7068 17.8729 18.4558 18.1404 18.1364 18.3644C17.8212 18.5884 17.4478 18.7627 17.0164 18.8871C16.585 19.0116 16.1225 19.0738 15.6289 19.0738C15.2058 19.0738 14.8117 19.0364 14.4466 18.9618C14.0858 18.8871 13.7705 18.7772 13.5009 18.632C13.2354 18.491 13.028 18.3147 12.8786 18.1031C12.7293 17.8957 12.6546 17.6551 12.6546 17.3813C12.6546 17.1698 12.692 16.979 12.7666 16.8089C12.8413 16.643 12.9409 16.4978 13.0653 16.3733C13.1939 16.2489 13.3412 16.1431 13.5071 16.056C13.673 15.973 13.8472 15.9067 14.0298 15.8569V15.776ZM15.7284 13.1004C15.9483 13.1004 16.1453 13.0652 16.3195 12.9947C16.4938 12.9241 16.641 12.8163 16.7613 12.6711C16.8816 12.5259 16.9729 12.3455 17.0351 12.1298C17.0973 11.9141 17.1284 11.661 17.1284 11.3707C17.1284 11.0927 17.0932 10.8501 17.0226 10.6427C16.9563 10.4353 16.8629 10.2631 16.7426 10.1262C16.6223 9.98933 16.4772 9.8877 16.3071 9.82133C16.137 9.75081 15.9462 9.71556 15.7346 9.71556C15.5563 9.71556 15.3862 9.74667 15.2244 9.80889C15.0668 9.87111 14.9278 9.96859 14.8075 10.1013C14.6872 10.2341 14.5918 10.4062 14.5213 10.6178C14.4508 10.8252 14.4155 11.0782 14.4155 11.3769C14.4155 11.6673 14.4466 11.9203 14.5089 12.136C14.5752 12.3517 14.6644 12.5321 14.7764 12.6773C14.8926 12.8184 15.0315 12.9241 15.1933 12.9947C15.3551 13.0652 15.5335 13.1004 15.7284 13.1004ZM14.6333 15.888C14.5503 15.9087 14.4632 15.9481 14.372 16.0062C14.2849 16.0684 14.204 16.1452 14.1293 16.2364C14.0588 16.3319 13.9986 16.4459 13.9489 16.5787C13.9032 16.7114 13.8804 16.8628 13.8804 17.0329C13.8804 17.2071 13.9136 17.3606 13.98 17.4933C14.0463 17.6302 14.1335 17.7484 14.2413 17.848C14.3533 17.9476 14.4798 18.0284 14.6209 18.0907C14.7619 18.157 14.9071 18.211 15.0564 18.2524C15.2099 18.2939 15.3592 18.323 15.5044 18.3396C15.6538 18.3561 15.7906 18.3644 15.9151 18.3644C16.1806 18.3644 16.444 18.3375 16.7053 18.2836C16.9666 18.2338 17.201 18.1508 17.4084 18.0347C17.6158 17.9227 17.7838 17.7733 17.9124 17.5867C18.041 17.4041 18.1053 17.1801 18.1053 16.9147C18.1053 16.7985 18.0783 16.6782 18.0244 16.5538C17.9746 16.4335 17.8979 16.3236 17.7942 16.224C17.6905 16.1286 17.5536 16.0498 17.3835 15.9876C17.2176 15.9212 17.0185 15.888 16.7862 15.888H14.6333Z" fill="#333333"/>
</svg>
