<svg width="24" height="24" viewBox="0 0 24 24" fill="none" xmlns="http://www.w3.org/2000/svg">
<path d="M3.62195 15.6204L4.19439 15.4027C4.37276 15.3321 4.49513 15.2098 4.56151 15.0356L7.03173 8.72622L7.78462 7.29511H8.53751L11.5864 15.0356C11.6196 15.1185 11.6694 15.1932 11.7357 15.2596C11.8062 15.3259 11.8788 15.3736 11.9535 15.4027L12.5259 15.6204V16H8.78017V15.6204L9.86284 15.3529L8.92951 12.9822H6.17306L5.27084 15.328L6.32862 15.6204V16H3.62195V15.6204ZM8.66195 12.2978L7.84684 10.232L7.52951 9.392L6.44684 12.2978H8.66195ZM15.143 18.9307C14.7199 18.9307 14.332 18.8975 13.9794 18.8311C13.631 18.7647 13.3303 18.6652 13.0772 18.5324C12.8242 18.4039 12.6271 18.2441 12.4861 18.0533C12.3451 17.8625 12.2746 17.6406 12.2746 17.3876C12.2746 17.1926 12.3015 17.0246 12.3554 16.8836C12.4135 16.7425 12.5048 16.6201 12.6292 16.5164C12.7537 16.4169 12.9154 16.3298 13.1146 16.2551C13.3178 16.1804 13.5646 16.112 13.855 16.0498C13.7347 16.0207 13.602 15.9751 13.4568 15.9129C13.3116 15.8465 13.1747 15.7636 13.0461 15.664C12.9217 15.5603 12.8159 15.44 12.7288 15.3031C12.6458 15.1621 12.6043 15.0024 12.6043 14.824C12.6043 14.6498 12.6437 14.5025 12.7226 14.3822C12.8055 14.2578 12.9113 14.152 13.0399 14.0649C13.1726 13.9736 13.3199 13.899 13.4817 13.8409C13.6476 13.7787 13.8135 13.7247 13.9794 13.6791C13.8052 13.5879 13.6393 13.4862 13.4817 13.3742C13.324 13.2622 13.1871 13.1336 13.071 12.9884C12.9549 12.8433 12.8615 12.6773 12.791 12.4907C12.7246 12.2999 12.6914 12.0821 12.6914 11.8373C12.6914 11.5719 12.7599 11.3167 12.8968 11.072C13.0337 10.8231 13.2224 10.6053 13.463 10.4187C13.7077 10.2279 13.9981 10.0764 14.3341 9.96444C14.6701 9.85244 15.0372 9.79644 15.4354 9.79644C15.6221 9.79644 15.8274 9.81304 16.0514 9.84622C16.2796 9.87526 16.4932 9.91674 16.6923 9.97067H18.9883L18.8328 10.8107L17.2026 10.4747C17.3477 10.5742 17.466 10.6883 17.5572 10.8169C17.6485 10.9413 17.719 11.0679 17.7688 11.1964C17.8227 11.3209 17.858 11.4433 17.8746 11.5636C17.8953 11.6797 17.9057 11.7793 17.9057 11.8622C17.9057 12.1609 17.8476 12.4367 17.7314 12.6898C17.6194 12.9387 17.4514 13.1564 17.2274 13.3431C17.0076 13.5256 16.7338 13.6687 16.4061 13.7724C16.0826 13.8761 15.7113 13.928 15.2923 13.928C15.1181 13.928 14.946 13.9176 14.7759 13.8969C14.6058 13.872 14.4586 13.843 14.3341 13.8098C14.2968 13.8347 14.2615 13.8637 14.2283 13.8969C14.1993 13.9259 14.1723 13.9612 14.1474 14.0027C14.1267 14.0441 14.108 14.0919 14.0914 14.1458C14.079 14.1997 14.0728 14.2599 14.0728 14.3262C14.0728 14.4258 14.0894 14.5087 14.1226 14.5751C14.1557 14.6415 14.1993 14.6954 14.2532 14.7369C14.3113 14.7742 14.3756 14.8012 14.4461 14.8178C14.5166 14.8344 14.5913 14.8427 14.6701 14.8427H16.4123C16.8396 14.8427 17.1963 14.8987 17.4826 15.0107C17.7688 15.1185 17.999 15.2575 18.1732 15.4276C18.3474 15.5976 18.4719 15.7843 18.5466 15.9876C18.6212 16.1908 18.6586 16.3837 18.6586 16.5662C18.6586 16.9188 18.5673 17.2403 18.3848 17.5307C18.2023 17.821 17.9513 18.0699 17.6319 18.2773C17.3166 18.4847 16.9454 18.6444 16.5181 18.7564C16.0909 18.8726 15.6325 18.9307 15.143 18.9307ZM15.3483 13.3929C15.5184 13.3929 15.6574 13.3493 15.7652 13.2622C15.8772 13.1751 15.9643 13.059 16.0266 12.9138C16.0929 12.7686 16.1386 12.6027 16.1634 12.416C16.1883 12.2252 16.2008 12.0261 16.2008 11.8187C16.2008 11.6071 16.1842 11.4101 16.151 11.2276C16.1178 11.045 16.0639 10.8895 15.9892 10.7609C15.9187 10.6281 15.8274 10.5244 15.7154 10.4498C15.6076 10.3751 15.4769 10.3378 15.3234 10.3378C15.1492 10.3378 15.004 10.3793 14.8879 10.4622C14.7759 10.541 14.6867 10.6489 14.6203 10.7858C14.554 10.9227 14.5063 11.0824 14.4772 11.2649C14.4523 11.4433 14.4399 11.632 14.4399 11.8311C14.4399 12.051 14.4544 12.2563 14.4834 12.4471C14.5166 12.6338 14.5685 12.7976 14.639 12.9387C14.7137 13.0797 14.807 13.1917 14.919 13.2747C15.0351 13.3535 15.1783 13.3929 15.3483 13.3929ZM15.4541 18.296C15.6574 18.296 15.8606 18.269 16.0639 18.2151C16.2672 18.1612 16.4497 18.0803 16.6114 17.9724C16.7732 17.8687 16.9039 17.7381 17.0034 17.5804C17.103 17.427 17.1528 17.2465 17.1528 17.0391C17.1528 16.923 17.1341 16.813 17.0968 16.7093C17.0594 16.6056 16.9993 16.5144 16.9163 16.4356C16.8375 16.3609 16.7338 16.3007 16.6052 16.2551C16.4766 16.2136 16.3211 16.1929 16.1386 16.1929H14.1786C14.1288 16.2634 14.0769 16.3733 14.023 16.5227C13.9691 16.672 13.9421 16.8649 13.9421 17.1013C13.9421 17.3212 13.994 17.5079 14.0977 17.6613C14.2014 17.8148 14.33 17.9372 14.4834 18.0284C14.6369 18.1239 14.8008 18.1923 14.975 18.2338C15.1492 18.2753 15.3089 18.296 15.4541 18.296Z" fill="#333333"/>
</svg>
