<svg width="24" height="24" viewBox="0 0 24 24" fill="none" xmlns="http://www.w3.org/2000/svg">
<path d="M3.60227 15.5582L4.28049 15.2658C4.35101 15.2367 4.41946 15.189 4.48583 15.1227C4.55634 15.0521 4.61442 14.9816 4.66005 14.9111L8.48672 8.608L9.55072 7.15822H10.6147L11.9214 14.936C11.938 15.0231 11.9712 15.1019 12.0209 15.1724C12.0707 15.2388 12.1392 15.2865 12.2263 15.3156L12.8796 15.5582L12.78 16H9.0156L9.10894 15.5582L10.1232 15.2222L9.74983 12.976H6.85027L5.53116 15.216L6.53916 15.5582L6.4396 16H3.50272L3.60227 15.5582ZM9.60672 12.1796L9.25205 10.1138L9.1276 9.21156H9.09027L7.32938 12.1796H9.60672ZM14.8327 18.9867C14.5257 18.9867 14.2478 18.9659 13.9989 18.9244C13.75 18.8871 13.5239 18.8436 13.3207 18.7938L13.6815 17.2942H13.8869C14.0155 17.344 14.1669 17.3917 14.3411 17.4373C14.5153 17.4871 14.6916 17.5286 14.87 17.5618C15.0525 17.5991 15.2309 17.6281 15.4051 17.6489C15.5793 17.6696 15.7349 17.68 15.8718 17.68C15.9713 17.68 16.0647 17.6759 16.1518 17.6676C16.243 17.6634 16.3239 17.651 16.3944 17.6302C16.4691 17.6136 16.5355 17.5887 16.5935 17.5556C16.6516 17.5265 16.7035 17.4892 16.7491 17.4436C16.7906 17.4021 16.8341 17.315 16.8798 17.1822C16.9254 17.0536 16.971 16.9001 17.0167 16.7218C17.0623 16.5434 17.1058 16.3547 17.1473 16.1556C17.1929 15.9564 17.2365 15.7656 17.278 15.5831L17.4024 14.9858C17.2282 15.1807 17.0602 15.3446 16.8984 15.4773C16.7408 15.6059 16.5811 15.7096 16.4193 15.7884C16.2575 15.8631 16.0916 15.917 15.9215 15.9502C15.7515 15.9834 15.571 16 15.3802 16C15.0442 16 14.7518 15.9378 14.5029 15.8133C14.254 15.6847 14.0466 15.5126 13.8807 15.2969C13.7147 15.0812 13.5903 14.8302 13.5073 14.544C13.4285 14.2578 13.3891 13.957 13.3891 13.6418C13.3891 13.3141 13.4223 12.9864 13.4887 12.6587C13.5592 12.3268 13.6629 12.0095 13.7998 11.7067C13.9367 11.3997 14.1026 11.1156 14.2975 10.8542C14.4925 10.5887 14.7165 10.3585 14.9695 10.1636C15.2267 9.96859 15.5088 9.81511 15.8158 9.70311C16.1269 9.59111 16.4587 9.53511 16.8113 9.53511C16.9607 9.53511 17.1017 9.54963 17.2344 9.57867C17.3713 9.6077 17.4999 9.64919 17.6202 9.70311C17.7447 9.75289 17.8587 9.81511 17.9624 9.88978C18.0661 9.96444 18.1615 10.0453 18.2487 10.1324L18.5722 9.58489H20.4264C20.331 9.80059 20.246 10.0163 20.1713 10.232C20.0967 10.4477 20.0303 10.6696 19.9722 10.8978L19.0762 15.552C19.0264 15.8009 18.9621 16.029 18.8833 16.2364C18.8087 16.448 18.7153 16.645 18.6033 16.8276C18.4955 17.0101 18.371 17.1822 18.23 17.344C18.0889 17.5099 17.9313 17.6655 17.7571 17.8107C17.5331 18.0056 17.3112 18.1757 17.0913 18.3209C16.8715 18.4702 16.6433 18.5926 16.4069 18.688C16.1746 18.7876 15.9278 18.8622 15.6664 18.912C15.4092 18.9618 15.1313 18.9867 14.8327 18.9867ZM16.3633 14.9422C16.467 14.9422 16.5707 14.9319 16.6744 14.9111C16.7781 14.8862 16.8777 14.853 16.9731 14.8116C17.0685 14.7701 17.1598 14.7203 17.2469 14.6622C17.334 14.6041 17.4128 14.5336 17.4833 14.4507L18.2487 10.6862C18.0952 10.5991 17.9272 10.5327 17.7447 10.4871C17.5621 10.4415 17.3692 10.4187 17.166 10.4187C16.9378 10.4187 16.7304 10.4684 16.5438 10.568C16.3612 10.6676 16.1995 10.8003 16.0584 10.9662C15.9215 11.128 15.8033 11.3147 15.7038 11.5262C15.6084 11.7378 15.5295 11.9576 15.4673 12.1858C15.4051 12.4098 15.3595 12.6338 15.3304 12.8578C15.3055 13.0776 15.2931 13.2788 15.2931 13.4613C15.2931 13.6397 15.3076 13.816 15.3367 13.9902C15.3698 14.1644 15.4258 14.3241 15.5047 14.4693C15.5835 14.6104 15.6913 14.7244 15.8282 14.8116C15.9692 14.8987 16.1476 14.9422 16.3633 14.9422Z" fill="#888888"/>
</svg>
