<svg width="24" height="24" viewBox="0 0 24 24" fill="none" xmlns="http://www.w3.org/2000/svg">
<path d="M3.93869 15.5956L4.52358 15.3591C4.6978 15.2927 4.8181 15.1724 4.88447 14.9982L7.36714 8.67644L8.12003 7.23289H8.99114L12.04 15.0044C12.0732 15.0833 12.123 15.1559 12.1894 15.2222C12.2557 15.2886 12.3242 15.3363 12.3947 15.3653L12.9858 15.5956V16H9.19025V15.5956L10.2667 15.3093L9.35825 13.0133H6.53336L5.66225 15.2782L6.72003 15.5956V16H3.93869V15.5956ZM9.0658 12.2729L8.24447 10.1884L7.93958 9.34844H7.92091L6.83203 12.2729H9.0658ZM15.7618 18.9556C15.3304 18.9556 14.9343 18.9203 14.5734 18.8498C14.2125 18.7834 13.9014 18.6839 13.6401 18.5511C13.3787 18.4184 13.1755 18.2545 13.0303 18.0596C12.8851 17.8687 12.8125 17.6447 12.8125 17.3876C12.8125 17.1884 12.8415 17.0163 12.8996 16.8711C12.9577 16.7301 13.0489 16.6077 13.1734 16.504C13.302 16.4003 13.4658 16.3111 13.6649 16.2364C13.8682 16.1618 14.1109 16.0954 14.3929 16.0373V16.0187C14.2685 15.9896 14.1337 15.944 13.9885 15.8818C13.8433 15.8154 13.7085 15.7304 13.5841 15.6267C13.4596 15.523 13.3559 15.4027 13.2729 15.2658C13.19 15.1247 13.1485 14.9671 13.1485 14.7929C13.1485 14.6145 13.19 14.4631 13.2729 14.3387C13.3559 14.2101 13.4617 14.1001 13.5903 14.0089C13.7189 13.9135 13.8641 13.8347 14.0258 13.7724C14.1918 13.7102 14.3556 13.6584 14.5174 13.6169V13.6044C14.3515 13.5173 14.1897 13.4199 14.0321 13.312C13.8786 13.2 13.7417 13.0714 13.6214 12.9262C13.5052 12.7769 13.4119 12.6089 13.3414 12.4222C13.2709 12.2314 13.2356 12.0136 13.2356 11.7689C13.2356 11.491 13.3041 11.2255 13.4409 10.9724C13.582 10.7194 13.7749 10.4975 14.0196 10.3067C14.2644 10.1159 14.5568 9.96444 14.8969 9.85244C15.2412 9.7363 15.6187 9.67822 16.0294 9.67822C16.2409 9.67822 16.4629 9.69481 16.6952 9.728C16.9316 9.76119 17.1556 9.80474 17.3672 9.85867H19.6756L19.5387 10.7236L17.9272 10.4311V10.4436C18.0599 10.5348 18.1678 10.6406 18.2507 10.7609C18.3378 10.8812 18.4063 11.0036 18.4561 11.128C18.51 11.2483 18.5452 11.3686 18.5618 11.4889C18.5826 11.605 18.5929 11.7087 18.5929 11.8C18.5929 12.1028 18.5328 12.3807 18.4125 12.6338C18.2964 12.8868 18.1242 13.1067 17.8961 13.2933C17.6679 13.48 17.3858 13.6252 17.0498 13.7289C16.7138 13.8326 16.3322 13.8844 15.9049 13.8844C15.71 13.8844 15.5233 13.8741 15.3449 13.8533C15.1707 13.8284 15.0235 13.7994 14.9032 13.7662C14.8658 13.7911 14.8306 13.8201 14.7974 13.8533C14.7642 13.8824 14.7352 13.9197 14.7103 13.9653C14.6854 14.0068 14.6647 14.0566 14.6481 14.1147C14.6315 14.1686 14.6232 14.2287 14.6232 14.2951C14.6232 14.3905 14.6398 14.4714 14.6729 14.5378C14.7061 14.6 14.7497 14.6519 14.8036 14.6933C14.8575 14.7307 14.9177 14.7597 14.9841 14.7804C15.0546 14.797 15.1292 14.8074 15.2081 14.8116H17.0561C17.4916 14.8116 17.8546 14.8676 18.1449 14.9796C18.4395 15.0874 18.6738 15.2284 18.8481 15.4027C19.0264 15.5727 19.1529 15.7615 19.2276 15.9689C19.3064 16.1763 19.3458 16.3733 19.3458 16.56C19.3458 16.9167 19.2525 17.2424 19.0658 17.5369C18.8833 17.8314 18.6303 18.0824 18.3067 18.2898C17.9832 18.5013 17.6036 18.6652 17.1681 18.7813C16.7325 18.8975 16.2638 18.9556 15.7618 18.9556ZM15.9547 13.3182C16.1248 13.3182 16.2658 13.2767 16.3778 13.1938C16.4898 13.1108 16.579 12.9988 16.6454 12.8578C16.7159 12.7126 16.7657 12.5467 16.7947 12.36C16.8238 12.1692 16.8383 11.9639 16.8383 11.744C16.8383 11.5283 16.8196 11.3292 16.7823 11.1467C16.7491 10.96 16.6931 10.8024 16.6143 10.6738C16.5396 10.5452 16.4463 10.4436 16.3343 10.3689C16.2223 10.2942 16.0895 10.2569 15.9361 10.2569C15.766 10.2569 15.6229 10.2963 15.5067 10.3751C15.3947 10.4539 15.3035 10.5597 15.2329 10.6924C15.1624 10.8252 15.1106 10.9828 15.0774 11.1653C15.0484 11.3479 15.0338 11.5449 15.0338 11.7564C15.0338 11.9846 15.0504 12.1941 15.0836 12.3849C15.1168 12.5757 15.1707 12.7416 15.2454 12.8827C15.3201 13.0196 15.4134 13.1274 15.5254 13.2062C15.6415 13.2809 15.7847 13.3182 15.9547 13.3182ZM16.0792 18.2836C16.2824 18.2836 16.4857 18.2566 16.6889 18.2027C16.8964 18.1529 17.0809 18.0761 17.2427 17.9724C17.4045 17.8687 17.5352 17.7381 17.6347 17.5804C17.7384 17.4228 17.7903 17.2382 17.7903 17.0267C17.7903 16.9147 17.7716 16.8068 17.7343 16.7031C17.6969 16.5994 17.6368 16.5081 17.5538 16.4293C17.4709 16.3505 17.363 16.2883 17.2303 16.2427C17.1017 16.2012 16.9461 16.1804 16.7636 16.1804H14.7787C14.7248 16.2551 14.6688 16.365 14.6107 16.5102C14.5568 16.6596 14.5298 16.8524 14.5298 17.0889C14.5298 17.3087 14.5817 17.4954 14.6854 17.6489C14.7932 17.8024 14.926 17.9247 15.0836 18.016C15.2454 18.1114 15.4155 18.1799 15.5938 18.2213C15.7722 18.2628 15.934 18.2836 16.0792 18.2836Z" fill="#333333"/>
</svg>
