<svg width="24" height="24" viewBox="0 0 24 24" fill="none" xmlns="http://www.w3.org/2000/svg">
<path d="M7.42405 16.024V17H4.30073V16.024H5.27677L8.4196 6.36122H9.5518L12.7532 16.024H13.6707V17H10.5474V16.024H11.5234L10.5669 13.0959H7.30692L6.38945 16.024H7.42405ZM8.8881 8.02048L7.59973 12.1198H10.2545L8.92714 8.02048H8.8881ZM14.4544 11.9441C14.4544 11.1373 14.7081 10.4801 15.2157 9.97255C15.7232 9.452 16.3739 9.19172 17.1677 9.19172C17.454 9.19172 17.7143 9.22425 17.9486 9.28932C18.1568 9.35439 18.391 9.38693 18.6513 9.38693H20.5058V10.3239H19.3931V10.3434C19.6404 10.7729 19.764 11.2479 19.764 11.7685C19.764 12.6274 19.5102 13.3236 19.0027 13.8572C18.5082 14.3907 17.864 14.6575 17.0701 14.6575C16.7057 14.6575 16.3804 14.6055 16.0941 14.5014C15.8468 14.7877 15.7232 15.0609 15.7232 15.3212C15.7232 15.4774 15.7753 15.601 15.8794 15.6921C15.9835 15.7832 16.1462 15.8288 16.3674 15.8288H17.7338C18.5927 15.8288 19.2499 16.0044 19.7054 16.3558C20.1739 16.7072 20.4082 17.2277 20.4082 17.9175C20.4082 18.7634 20.0698 19.4401 19.3931 19.9476C18.7164 20.4552 17.864 20.7089 16.8359 20.7089C16.003 20.7089 15.3328 20.5137 14.8253 20.1233C14.3177 19.7329 14.0639 19.2319 14.0639 18.6202C14.0639 17.9175 14.4153 17.2733 15.1181 16.6877C14.8057 16.4274 14.6496 16.089 14.6496 15.6726C14.6496 15.152 14.9294 14.6575 15.489 14.189C14.7992 13.6555 14.4544 12.9072 14.4544 11.9441ZM15.8403 17C15.4369 17.3904 15.2352 17.8459 15.2352 18.3664C15.2352 18.8089 15.3783 19.1538 15.6646 19.401C15.9509 19.6613 16.3934 19.7915 16.992 19.7915C17.6948 19.7915 18.2414 19.6418 18.6318 19.3425C19.0352 19.0562 19.2369 18.6788 19.2369 18.2103C19.2369 17.8069 19.1003 17.501 18.827 17.2928C18.5667 17.0976 18.2023 17 17.7338 17H15.8403ZM15.6646 11.8465C15.6646 12.4322 15.7883 12.8941 16.0355 13.2325C16.2828 13.5579 16.6537 13.7205 17.1482 13.7205C17.6167 13.7205 17.9681 13.5709 18.2023 13.2715C18.4366 12.9722 18.5537 12.5167 18.5537 11.9051C18.5537 11.3065 18.4301 10.8705 18.1828 10.5972C17.9486 10.3109 17.5842 10.1678 17.0897 10.1678C16.6212 10.1678 16.2633 10.3044 16.016 10.5777C15.7818 10.851 15.6646 11.2739 15.6646 11.8465Z" fill="#888888"/>
</svg>
