<svg width="24" height="24" viewBox="0 0 24 24" fill="none" xmlns="http://www.w3.org/2000/svg">
<path d="M5.62235 9.302L5.13235 12.788C4.86635 12.158 4.74035 11.416 4.74035 10.548C4.74035 9.288 5.04835 8.28 5.66435 7.538C6.37835 6.67 7.35835 6.236 8.63235 6.236C9.71035 6.236 10.6624 6.558 11.5164 7.202L12.2304 6.04C11.1804 5.27 9.99035 4.892 8.66035 4.892C7.19035 4.892 5.98635 5.326 5.02035 6.208C3.90035 7.23 3.34035 8.644 3.34035 10.422C3.34035 11.626 3.57835 12.69 4.06835 13.6C4.53035 14.468 5.17435 15.154 6.01435 15.658L6.72835 10.562H8.68835L8.85635 9.302H5.62235ZM9.64035 7.468L8.57635 15H9.97635L11.0404 7.468H9.64035ZM14.2843 20.124C15.3763 20.11 16.3283 19.83 17.1543 19.284C18.3163 18.514 18.8903 17.366 18.8903 15.826C18.8903 15.07 18.7643 14.272 18.5123 13.418C19.2823 12.83 19.6603 12.018 19.6603 10.996C19.6603 10.086 19.3523 9.33 18.7223 8.742C18.0923 8.154 17.2803 7.86 16.2863 7.86C15.2503 7.86 14.3963 8.182 13.7243 8.84C13.0383 9.498 12.7023 10.31 12.7023 11.248C12.7023 12.382 13.1923 13.264 14.1723 13.894L14.9563 12.816C14.4103 12.424 14.1303 11.906 14.1303 11.248C14.1303 10.618 14.3403 10.1 14.7743 9.722C15.2083 9.344 15.7123 9.148 16.2863 9.148C17.3643 9.148 18.2323 9.904 18.2323 11.066C18.2323 11.906 17.7563 12.606 17.0143 12.928C17.1963 13.432 17.3363 14.02 17.4343 14.692C17.4763 14.958 17.4903 15.252 17.4903 15.602C17.4903 16.204 17.4063 16.68 17.2523 17.044C16.9723 17.73 16.4963 18.22 15.8103 18.514L16.6503 12.55H15.3483L14.2843 20.124Z" fill="#333333"/>
</svg>
