<svg width="24" height="24" viewBox="0 0 24 24" fill="none" xmlns="http://www.w3.org/2000/svg">
<path d="M11.3369 8.75586C10.6989 8.77409 10.3753 8.7832 10.3662 8.7832C10.2979 8.7832 10.2705 8.82422 10.2842 8.90625C10.2842 8.92904 10.2842 8.94727 10.2842 8.96094C10.2842 8.97005 10.2979 9.05208 10.3252 9.20703C10.3525 9.36198 10.3867 9.56478 10.4277 9.81543C10.4733 10.0661 10.5234 10.3509 10.5781 10.6699C10.6374 10.9889 10.6966 11.3148 10.7559 11.6475C10.8151 11.9801 10.8743 12.3083 10.9336 12.6318C10.9928 12.9554 11.0452 13.2448 11.0908 13.5C11.2093 14.1654 11.2845 14.5322 11.3164 14.6006C11.3483 14.6689 11.4098 14.7031 11.501 14.7031H12.0342L12.0615 17.0273L9.55273 16.9727L9.52539 14.6895H10.3525C10.4665 14.6895 10.5508 14.6462 10.6055 14.5596C10.6602 14.4684 10.6829 14.4001 10.6738 14.3545C10.6693 14.3044 10.6556 14.2178 10.6328 14.0947C10.6146 13.9671 10.5872 13.8031 10.5508 13.6025C10.5189 13.3975 10.4801 13.165 10.4346 12.9053C10.3936 12.641 10.348 12.3675 10.2979 12.085H8.37695L7.91895 14.3135C7.88249 14.4684 7.87337 14.5778 7.8916 14.6416C7.90983 14.7008 7.95996 14.7305 8.04199 14.7305H8.82812L8.80078 17.0137H6.27832L6.33301 14.7031H6.90723C7.14421 14.7031 7.28092 14.6234 7.31738 14.4639C7.34017 14.3727 7.39258 14.1403 7.47461 13.7666C7.55664 13.3883 7.63184 13.042 7.7002 12.7275C7.77311 12.4085 7.84603 12.085 7.91895 11.7568C7.99186 11.4242 8.0625 11.0983 8.13086 10.7793C8.20378 10.4603 8.26758 10.1732 8.32227 9.91797C8.38151 9.6582 8.42936 9.44401 8.46582 9.27539C8.50228 9.10221 8.52507 8.99056 8.53418 8.94043C8.55697 8.84473 8.50911 8.79688 8.39062 8.79688H7.57031L7.54297 6.5L11.3232 6.52734L11.3369 8.75586ZM8.47949 11.5928L10.2158 11.5791C10.1566 11.2419 10.1019 10.9137 10.0518 10.5947C9.86491 9.47819 9.75553 8.89714 9.72363 8.85156C9.69629 8.80599 9.65527 8.7832 9.60059 8.7832H9.19043C9.1084 8.7832 9.05827 8.82878 9.04004 8.91992L8.47949 11.5928ZM16.9014 12.0986C16.792 12.0986 16.7373 12.1602 16.7373 12.2832V18.709C16.7373 19.5339 16.3089 20.0443 15.4521 20.2402C15.2334 20.2904 14.9759 20.3154 14.6797 20.3154C13.7044 20.3154 13.0869 19.985 12.8271 19.3242C12.7542 19.1328 12.7178 18.9141 12.7178 18.668V17.4033H13.1758V17.7109C13.1758 18.1576 13.4583 18.4173 14.0234 18.4902C14.2012 18.513 14.4222 18.5244 14.6865 18.5244C14.9508 18.5244 15.1855 18.4993 15.3906 18.4492C15.6003 18.4036 15.7689 18.3353 15.8965 18.2441C16.1289 18.071 16.2451 17.7861 16.2451 17.3896V16.0225C16.1403 16.3916 15.9717 16.6628 15.7393 16.8359C15.4795 17.0182 15.1286 17.1094 14.6865 17.1094C14.249 17.1094 13.9049 17.0684 13.6543 16.9863C13.4082 16.8997 13.2054 16.779 13.0459 16.624C12.7406 16.3278 12.5879 15.9062 12.5879 15.3594V11.6953C12.5879 10.5286 13.2282 9.94531 14.5088 9.94531C15.0055 9.94531 15.4089 10.0798 15.7188 10.3486C15.9648 10.5628 16.1266 10.8385 16.2041 11.1758V10H17.4756L17.5029 12.0986H16.9014ZM13.0801 12.9258V14.3135C13.0801 14.6188 13.1781 14.8467 13.374 14.9971C13.611 15.1839 13.9505 15.2773 14.3926 15.2773C14.8392 15.2773 15.1673 15.2546 15.377 15.209C15.5866 15.1634 15.7575 15.0973 15.8896 15.0107C16.1266 14.8512 16.2451 14.6006 16.2451 14.2588V12.9258C16.2451 12.5566 16.1312 12.2923 15.9033 12.1328C15.639 11.9505 15.279 11.8594 14.8232 11.8594C14.1077 11.8594 13.6383 11.9505 13.415 12.1328C13.1917 12.3151 13.0801 12.5794 13.0801 12.9258Z" fill="#888888"/>
</svg>
