<svg width="24" height="24" viewBox="0 0 24 24" fill="none" xmlns="http://www.w3.org/2000/svg">
<path d="M6.21292 16L8.03292 7.32H9.47492L11.2669 16H10.0209L9.62892 14.04L9.83892 14.236H7.61292L7.79492 14.04L7.43092 16H6.21292ZM7.83692 13.41L7.72492 13.27H9.76892L9.60092 13.41L8.84492 8.916L8.81692 8.72H8.66292L8.63492 8.916L7.83692 13.41ZM12.7343 18.45L12.5803 17.512H14.4983C14.741 17.512 14.8996 17.4513 14.9743 17.33C15.0583 17.218 15.1003 17.0173 15.1003 16.728V10.372H13.8123C13.607 10.372 13.4623 10.4 13.3783 10.456C13.2943 10.5027 13.243 10.5867 13.2243 10.708C13.2056 10.8293 13.1963 10.9973 13.1963 11.212V14.194C13.1963 14.446 13.2103 14.6327 13.2383 14.754C13.2663 14.8753 13.3176 14.9547 13.3923 14.992C13.4763 15.0293 13.5976 15.048 13.7563 15.048H14.7503L14.6383 16H13.1263C12.7716 16 12.515 15.9487 12.3563 15.846C12.207 15.734 12.1136 15.5473 12.0763 15.286C12.039 15.0247 12.0203 14.6607 12.0203 14.194V10.89C12.0203 10.526 12.0623 10.2367 12.1463 10.022C12.2303 9.80733 12.3843 9.65333 12.6083 9.56C12.8416 9.46667 13.1683 9.42 13.5883 9.42H16.2763V17.036C16.2763 17.5027 16.1783 17.8527 15.9823 18.086C15.7956 18.3287 15.4596 18.45 14.9743 18.45H12.7343Z" fill="#888888"/>
</svg>
