<svg width="24" height="24" viewBox="0 0 24 24" fill="none" xmlns="http://www.w3.org/2000/svg">
<path d="M6.3031 16L8.1231 7.32H9.3691L11.1751 16H10.1951L9.7751 13.956L9.9571 14.124H7.4931L7.6471 13.956L7.2551 16H6.3031ZM7.6751 13.48L7.5771 13.368H9.8871L9.7611 13.48L8.8651 8.552L8.8371 8.412H8.6411L8.6131 8.552L7.6751 13.48ZM12.7981 18.436L12.6721 17.694H14.6041C14.8655 17.694 15.0335 17.6287 15.1081 17.498C15.1921 17.3767 15.2341 17.1713 15.2341 16.882V10.162H13.6801C13.4468 10.162 13.2788 10.1947 13.1761 10.26C13.0828 10.3253 13.0268 10.428 13.0081 10.568C12.9895 10.6987 12.9801 10.8853 12.9801 11.128V14.306C12.9801 14.5673 12.9941 14.768 13.0221 14.908C13.0501 15.0387 13.1061 15.132 13.1901 15.188C13.2835 15.2347 13.4235 15.258 13.6101 15.258H14.8281L14.7301 16H13.1341C12.7888 16 12.5415 15.9487 12.3921 15.846C12.2428 15.7433 12.1495 15.566 12.1121 15.314C12.0748 15.0527 12.0561 14.684 12.0561 14.208V10.806C12.0561 10.442 12.0981 10.162 12.1821 9.966C12.2661 9.76067 12.4155 9.62067 12.6301 9.546C12.8541 9.462 13.1761 9.42 13.5961 9.42H16.1581V17.106C16.1581 17.5633 16.0695 17.8993 15.8921 18.114C15.7148 18.3287 15.4021 18.436 14.9541 18.436H12.7981Z" fill="#888888"/>
</svg>
