<svg width="24" height="24" viewBox="0 0 24 24" fill="none" xmlns="http://www.w3.org/2000/svg">
<path d="M4.85934 16C4.85 16 4.84067 15.9953 4.83134 15.986C4.822 15.9767 4.822 15.9673 4.83134 15.958L9.63334 6.886C9.652 6.84867 9.67534 6.83 9.70334 6.83H9.92734C9.95534 6.83 9.974 6.844 9.98334 6.872L11.9153 15.944C11.9247 15.972 11.92 15.9907 11.9013 16C11.892 16 11.878 16 11.8593 16H11.7473C11.7193 16 11.7007 15.986 11.6913 15.958L10.0673 8.314C10.03 8.09933 9.988 7.88933 9.94134 7.684C9.89467 7.47867 9.848 7.264 9.80134 7.04H9.78734C9.68467 7.25467 9.57734 7.474 9.46534 7.698C9.35334 7.922 9.23667 8.14133 9.11534 8.356L5.06934 15.972C5.06 15.9813 5.05534 15.9907 5.05534 16C5.046 16 5.032 16 5.01334 16H4.85934ZM6.37134 13.326L6.49734 13.102H11.1313L11.1733 13.326H6.37134ZM16.7892 9.14C17.1905 9.14 17.5872 9.182 17.9792 9.266C18.3712 9.35 18.7865 9.43867 19.2252 9.532L18.1052 16.574C18.0212 17.1433 17.8625 17.5867 17.6292 17.904C17.3959 18.2213 17.0879 18.4407 16.7052 18.562C16.3225 18.6927 15.8559 18.758 15.3052 18.758C14.8012 18.758 14.3952 18.688 14.0872 18.548C13.7885 18.4173 13.5832 18.2167 13.4712 17.946C13.3592 17.6847 13.3312 17.3533 13.3872 16.952C13.3872 16.9147 13.4012 16.896 13.4292 16.896H13.5552C13.5925 16.896 13.6065 16.9193 13.5972 16.966C13.5319 17.4887 13.6252 17.8807 13.8772 18.142C14.1385 18.4033 14.6285 18.534 15.3472 18.534C16.0845 18.534 16.6632 18.3987 17.0832 18.128C17.5032 17.8573 17.7739 17.3347 17.8952 16.56L18.3292 13.872C17.8065 14.3293 17.2932 14.712 16.7892 15.02C16.2852 15.328 15.7579 15.482 15.2072 15.482C14.5819 15.482 14.1339 15.286 13.8632 14.894C13.5925 14.4927 13.5179 13.9093 13.6392 13.144L13.9192 11.38C14.0499 10.5587 14.3765 9.98 14.8992 9.644C15.4219 9.308 16.0519 9.14 16.7892 9.14ZM15.2072 15.258C15.7299 15.258 16.2479 15.0993 16.7612 14.782C17.2745 14.4553 17.8159 14.0447 18.3852 13.55L18.9872 9.714C18.6139 9.62067 18.2405 9.54133 17.8672 9.476C17.4939 9.40133 17.1252 9.364 16.7612 9.364C16.0985 9.364 15.5292 9.51333 15.0532 9.812C14.5772 10.1107 14.2739 10.6473 14.1432 11.422L13.8632 13.144C13.7419 13.8627 13.7979 14.3947 14.0312 14.74C14.2645 15.0853 14.6565 15.258 15.2072 15.258Z" fill="#888888"/>
</svg>
