<svg width="24" height="24" viewBox="0 0 24 24" fill="none" xmlns="http://www.w3.org/2000/svg">
<path d="M10.5834 17L10.0794 14.312H5.20744L3.65344 17H3.20544L8.77744 7.354H9.22544L11.0314 17H10.5834ZM5.41744 13.934H9.99544L8.88944 7.942L5.41744 13.934ZM19.6129 10.462H20.0189L18.9269 16.062C18.6189 17.602 18.1009 18.6847 17.3729 19.31C16.6542 19.9447 15.7302 20.262 14.6009 20.262C13.4716 20.262 12.6689 19.8 12.1929 18.876L12.5989 18.638C13.0096 19.4407 13.7002 19.842 14.6709 19.842C15.6696 19.842 16.4909 19.5573 17.1349 18.988C17.7882 18.428 18.2456 17.4527 18.5069 16.062L18.6329 15.39C18.2409 15.922 17.7462 16.3467 17.1489 16.664C16.5516 16.9813 15.9356 17.14 15.3009 17.14C14.3676 17.14 13.6302 16.8087 13.0889 16.146C12.5569 15.474 12.3842 14.6667 12.5709 13.724C12.7576 12.7813 13.2476 11.9787 14.0409 11.316C14.8342 10.6533 15.6976 10.322 16.6309 10.322C17.2656 10.322 17.8162 10.4807 18.2829 10.798C18.7589 11.1153 19.0949 11.54 19.2909 12.072L19.6129 10.462ZM15.3849 16.72C16.2156 16.72 16.9762 16.4447 17.6669 15.894C18.3576 15.334 18.7869 14.634 18.9549 13.794C19.1229 12.9073 18.9736 12.1793 18.5069 11.61C18.0402 11.0313 17.3916 10.742 16.5609 10.742C15.7396 10.742 14.9789 11.036 14.2789 11.624C13.5789 12.2027 13.1496 12.9027 12.9909 13.724C12.8322 14.5453 12.9862 15.25 13.4529 15.838C13.9196 16.426 14.5636 16.72 15.3849 16.72Z" fill="#888888"/>
</svg>
