<svg width="24" height="24" viewBox="0 0 24 24" fill="none" xmlns="http://www.w3.org/2000/svg">
<path d="M3.42938 16C3.27072 16 3.21472 15.9207 3.26138 15.762L6.13138 6.998C6.16872 6.886 6.24805 6.83 6.36938 6.83H9.18338C9.30472 6.83 9.38405 6.886 9.42138 6.998L12.2914 15.762C12.31 15.8273 12.3054 15.8833 12.2774 15.93C12.2587 15.9767 12.212 16 12.1374 16H9.72938C9.60805 16 9.53338 15.944 9.50538 15.832L8.25938 11.1C8.16605 10.7453 8.07738 10.3953 7.99338 10.05C7.91872 9.69533 7.84872 9.34533 7.78338 9H7.74138C7.67605 9.35467 7.60138 9.70933 7.51738 10.064C7.44272 10.4187 7.35872 10.7733 7.26538 11.128L6.06138 15.818C6.03338 15.9393 5.95405 16 5.82338 16H3.42938ZM6.03338 14.502L6.41138 12.486H9.05738L9.46338 14.502H6.03338ZM15.8415 18.758C14.6375 18.758 13.7648 18.618 13.2235 18.338C12.6821 18.058 12.4115 17.6473 12.4115 17.106C12.4115 16.798 12.4861 16.504 12.6355 16.224C12.7941 15.9533 13.0648 15.7153 13.4475 15.51L15.3235 15.986C15.1741 16.0607 15.0668 16.1447 15.0015 16.238C14.9361 16.3407 14.9035 16.4433 14.9035 16.546C14.9035 16.6953 14.9781 16.798 15.1275 16.854C15.2861 16.9193 15.5661 16.9567 15.9675 16.966C16.4715 16.9753 16.7888 16.9473 16.9195 16.882C17.0595 16.826 17.1295 16.7233 17.1295 16.574C17.1295 16.4713 17.1015 16.392 17.0455 16.336C16.9895 16.28 16.8961 16.2473 16.7655 16.238L14.2875 16.056C13.8208 16.0187 13.4661 15.8787 13.2235 15.636C12.9808 15.3933 12.8595 15.0713 12.8595 14.67C12.8595 14.4553 12.8875 14.2547 12.9435 14.068C13.0088 13.872 13.1161 13.6947 13.2655 13.536C13.4148 13.368 13.6108 13.2233 13.8535 13.102L15.3235 13.564C15.1648 13.6107 15.0575 13.6713 15.0015 13.746C14.9548 13.8207 14.9315 13.8907 14.9315 13.956C14.9315 14.0213 14.9548 14.0727 15.0015 14.11C15.0481 14.138 15.1368 14.1567 15.2675 14.166L17.3815 14.306C18.2028 14.362 18.7768 14.572 19.1035 14.936C19.4301 15.2907 19.5935 15.804 19.5935 16.476C19.5935 17.2693 19.2995 17.848 18.7115 18.212C18.1235 18.576 17.1668 18.758 15.8415 18.758ZM16.0235 13.732C15.0061 13.732 14.2501 13.536 13.7555 13.144C13.2701 12.7427 13.0275 12.136 13.0275 11.324C13.0275 10.4747 13.2701 9.84933 13.7555 9.448C14.2501 9.03733 15.0061 8.832 16.0235 8.832C17.0501 8.832 17.8061 9.03733 18.2915 9.448C18.7768 9.84933 19.0195 10.4747 19.0195 11.324C19.0195 12.136 18.7721 12.7427 18.2775 13.144C17.7921 13.536 17.0408 13.732 16.0235 13.732ZM16.0235 11.996C16.2661 11.996 16.4341 11.94 16.5275 11.828C16.6208 11.7067 16.6675 11.5247 16.6675 11.282C16.6675 11.0393 16.6208 10.862 16.5275 10.75C16.4341 10.6287 16.2661 10.568 16.0235 10.568C15.7808 10.568 15.6128 10.6287 15.5195 10.75C15.4261 10.862 15.3795 11.0393 15.3795 11.282C15.3795 11.5247 15.4261 11.7067 15.5195 11.828C15.6128 11.94 15.7808 11.996 16.0235 11.996ZM18.1515 9.602L16.5555 9.056C16.5461 8.776 16.5508 8.48667 16.5695 8.188C16.5975 7.88933 16.6255 7.628 16.6535 7.404C16.6721 7.292 16.7281 7.236 16.8215 7.236H18.3895C18.5668 7.236 18.6275 7.31533 18.5715 7.474C18.4501 7.81933 18.3521 8.17867 18.2775 8.552C18.2028 8.92533 18.1608 9.27533 18.1515 9.602Z" fill="#888888"/>
</svg>
