<svg width="24" height="24" viewBox="0 0 24 24" fill="none" xmlns="http://www.w3.org/2000/svg">
<path d="M4.18948 16C4.11482 16 4.08682 15.9673 4.10548 15.902L7.36748 6.9C7.38615 6.85333 7.42348 6.83 7.47948 6.83H8.26348C8.31948 6.83 8.35682 6.85333 8.37548 6.9L11.6515 15.902C11.6608 15.93 11.6562 15.9533 11.6375 15.972C11.6282 15.9907 11.6048 16 11.5675 16H10.9655C10.9095 16 10.8722 15.9767 10.8535 15.93L8.37548 9C8.29148 8.748 8.20748 8.50067 8.12348 8.258C8.03948 8.006 7.95082 7.754 7.85748 7.502H7.84348C7.75948 7.74467 7.67548 7.992 7.59148 8.244C7.50748 8.496 7.41882 8.748 7.32548 9L4.87548 15.93C4.85682 15.9767 4.81482 16 4.74948 16H4.18948ZM5.53348 13.606L5.72948 12.948H9.97148L10.1675 13.606H5.53348ZM15.3978 18.758C14.3245 18.758 13.5591 18.6133 13.1018 18.324C12.6445 18.044 12.4158 17.6053 12.4158 17.008C12.4158 16.56 12.5185 16.196 12.7238 15.916C12.9385 15.636 13.2605 15.4073 13.6898 15.23L14.3618 15.468C13.9511 15.5893 13.6525 15.762 13.4658 15.986C13.2791 16.21 13.1858 16.5087 13.1858 16.882C13.1858 17.3393 13.3538 17.6567 13.6898 17.834C14.0258 18.0207 14.6045 18.114 15.4258 18.114C16.2845 18.114 16.8771 18.016 17.2038 17.82C17.5305 17.624 17.6938 17.288 17.6938 16.812C17.6938 16.4293 17.6005 16.1587 17.4138 16C17.2365 15.832 16.9331 15.734 16.5038 15.706L14.0958 15.566C13.7411 15.5473 13.4565 15.44 13.2418 15.244C13.0365 15.0387 12.9338 14.754 12.9338 14.39C12.9338 14.194 12.9665 14.0213 13.0318 13.872C13.1065 13.7227 13.2138 13.5827 13.3538 13.452C13.4938 13.312 13.6665 13.172 13.8718 13.032L14.3758 13.34C14.1331 13.452 13.9465 13.5827 13.8158 13.732C13.6945 13.8813 13.6338 14.0587 13.6338 14.264C13.6338 14.4507 13.6945 14.6 13.8158 14.712C13.9465 14.824 14.1845 14.894 14.5298 14.922L16.7278 15.062C17.3065 15.0993 17.7311 15.258 18.0018 15.538C18.2818 15.8087 18.4218 16.2427 18.4218 16.84C18.4218 17.5213 18.1885 18.0113 17.7218 18.31C17.2551 18.6087 16.4805 18.758 15.3978 18.758ZM15.5098 13.648C14.6791 13.648 14.0585 13.4567 13.6478 13.074C13.2371 12.6913 13.0318 12.1173 13.0318 11.352C13.0318 10.5867 13.2371 10.0173 13.6478 9.644C14.0678 9.26133 14.6978 9.07 15.5378 9.07C16.3591 9.07 16.9751 9.26133 17.3858 9.644C17.7965 10.0267 18.0018 10.6007 18.0018 11.366C18.0018 12.1313 17.7965 12.7053 17.3858 13.088C16.9751 13.4613 16.3498 13.648 15.5098 13.648ZM15.5098 12.99C16.1258 12.99 16.5691 12.864 16.8398 12.612C17.1198 12.3507 17.2598 11.9353 17.2598 11.366C17.2598 10.7873 17.1198 10.372 16.8398 10.12C16.5598 9.85867 16.1165 9.728 15.5098 9.728C14.9031 9.728 14.4598 9.85867 14.1798 10.12C13.9091 10.372 13.7738 10.7873 13.7738 11.366C13.7738 11.9353 13.9091 12.3507 14.1798 12.612C14.4598 12.864 14.9031 12.99 15.5098 12.99ZM17.0358 9.616L16.4058 9.392C16.4525 9.00933 16.5038 8.65933 16.5598 8.342C16.6251 8.01533 16.6905 7.74467 16.7558 7.53C16.7745 7.45533 16.8165 7.418 16.8818 7.418H17.4138C17.4791 7.418 17.5025 7.45067 17.4838 7.516C17.3998 7.77733 17.3205 8.076 17.2458 8.412C17.1805 8.748 17.1105 9.14933 17.0358 9.616Z" fill="#888888"/>
</svg>
