<svg width="24" height="24" viewBox="0 0 24 24" fill="none" xmlns="http://www.w3.org/2000/svg">
<path d="M4.17548 16C4.04481 16 3.99814 15.9347 4.03548 15.804L7.00348 6.97C7.04081 6.87667 7.11081 6.83 7.21348 6.83H9.35548C9.45814 6.83 9.52348 6.87667 9.55148 6.97L12.5475 15.804C12.5661 15.86 12.5615 15.9067 12.5335 15.944C12.5148 15.9813 12.4728 16 12.4075 16H10.6015C10.4988 16 10.4335 15.9533 10.4055 15.86L8.79548 10.442C8.70214 10.1247 8.61348 9.80733 8.52948 9.49C8.44548 9.16333 8.36148 8.84133 8.27748 8.524H8.24948C8.16548 8.84133 8.08148 9.16333 7.99748 9.49C7.91348 9.80733 7.82481 10.1247 7.73148 10.442L6.14948 15.846C6.12148 15.9487 6.05614 16 5.95348 16H4.17548ZM6.33148 14.222L6.66748 12.626H9.81748L10.1815 14.222H6.33148ZM16.1641 18.758C15.0067 18.758 14.1714 18.6133 13.6581 18.324C13.1447 18.044 12.8881 17.6193 12.8881 17.05C12.8881 16.714 12.9721 16.406 13.1401 16.126C13.3081 15.846 13.5787 15.608 13.9521 15.412L15.4221 15.846C15.2167 15.93 15.0674 16.0373 14.9741 16.168C14.8807 16.308 14.8341 16.462 14.8341 16.63C14.8341 16.882 14.9367 17.0547 15.1421 17.148C15.3567 17.2507 15.7301 17.302 16.2621 17.302C16.8687 17.3113 17.2701 17.2647 17.4661 17.162C17.6714 17.0687 17.7741 16.8913 17.7741 16.63C17.7741 16.4527 17.7274 16.3173 17.6341 16.224C17.5501 16.14 17.4054 16.0933 17.2001 16.084L14.6801 15.93C14.2881 15.8927 13.9707 15.762 13.7281 15.538C13.4854 15.314 13.3641 14.9967 13.3641 14.586C13.3641 14.3807 13.3921 14.1893 13.4481 14.012C13.5134 13.8347 13.6161 13.6713 13.7561 13.522C13.9054 13.3633 14.0967 13.214 14.3301 13.074L15.4921 13.536C15.3147 13.6013 15.1887 13.6807 15.1141 13.774C15.0487 13.8673 15.0161 13.9653 15.0161 14.068C15.0161 14.18 15.0534 14.2593 15.1281 14.306C15.2027 14.3527 15.3287 14.3853 15.5061 14.404L17.7041 14.544C18.4134 14.5907 18.9174 14.7867 19.2161 15.132C19.5241 15.468 19.6781 15.958 19.6781 16.602C19.6781 17.358 19.3981 17.904 18.8381 18.24C18.2874 18.5853 17.3961 18.758 16.1641 18.758ZM16.3181 13.76C15.3661 13.76 14.6567 13.564 14.1901 13.172C13.7327 12.7707 13.5041 12.164 13.5041 11.352C13.5041 10.5213 13.7327 9.90533 14.1901 9.504C14.6567 9.10267 15.3707 8.902 16.3321 8.902C17.2934 8.902 17.9981 9.10267 18.4461 9.504C18.9034 9.90533 19.1321 10.526 19.1321 11.366C19.1321 12.178 18.9034 12.78 18.4461 13.172C17.9887 13.564 17.2794 13.76 16.3181 13.76ZM16.3181 12.318C16.6821 12.318 16.9341 12.2433 17.0741 12.094C17.2141 11.9447 17.2841 11.6927 17.2841 11.338C17.2841 10.9833 17.2141 10.7313 17.0741 10.582C16.9341 10.4233 16.6821 10.344 16.3181 10.344C15.9634 10.344 15.7114 10.4233 15.5621 10.582C15.4221 10.7313 15.3521 10.9833 15.3521 11.338C15.3521 11.6927 15.4221 11.9447 15.5621 12.094C15.7114 12.2433 15.9634 12.318 16.3181 12.318ZM18.2641 9.686L16.9341 9.182C16.9527 8.83667 16.9761 8.51933 17.0041 8.23C17.0414 7.93133 17.0787 7.67 17.1161 7.446C17.1441 7.334 17.2001 7.278 17.2841 7.278H18.5581C18.7074 7.278 18.7587 7.34333 18.7121 7.474C18.6001 7.80067 18.5067 8.14133 18.4321 8.496C18.3667 8.85067 18.3107 9.24733 18.2641 9.686Z" fill="#888888"/>
</svg>
