<svg width="24" height="24" viewBox="0 0 24 24" fill="none" xmlns="http://www.w3.org/2000/svg">
<path d="M10.3155 16L10.0215 13.69H6.40946L5.14946 16H3.07746L8.71946 6.354H10.8195L12.3595 16H10.3155ZM7.33346 11.996H9.78346L9.32146 8.37L7.33346 11.996ZM19.4769 9.476H21.3109L20.1069 15.104C19.8176 16.4947 19.2669 17.54 18.4549 18.24C17.6523 18.94 16.6583 19.29 15.4729 19.29C14.7729 19.29 14.1756 19.108 13.6809 18.744C13.1863 18.3893 12.8643 17.9087 12.7149 17.302L14.3809 16.644C14.4556 16.9427 14.6236 17.1853 14.8849 17.372C15.1556 17.5587 15.4636 17.652 15.8089 17.652C17.0876 17.652 17.8949 16.868 18.2309 15.3L18.2589 15.202C17.9696 15.5007 17.6103 15.7293 17.1809 15.888C16.7609 16.0467 16.3549 16.126 15.9629 16.126C15.0856 16.126 14.3949 15.8133 13.8909 15.188C13.3963 14.5627 13.2563 13.7413 13.4709 12.724C13.6856 11.7067 14.1756 10.8853 14.9409 10.26C15.7063 9.63467 16.5276 9.322 17.4049 9.322C17.8063 9.322 18.1796 9.40133 18.5249 9.56C18.8796 9.71867 19.1409 9.94733 19.3089 10.246L19.4769 9.476ZM16.6769 14.418C17.1343 14.418 17.5636 14.2593 17.9649 13.942C18.3663 13.6153 18.6183 13.2093 18.7209 12.724C18.8329 12.2387 18.7489 11.8373 18.4689 11.52C18.1983 11.2027 17.8389 11.044 17.3909 11.044C16.9243 11.044 16.4903 11.2073 16.0889 11.534C15.6876 11.8513 15.4356 12.248 15.3329 12.724C15.2396 13.2 15.3236 13.6013 15.5849 13.928C15.8463 14.2547 16.2103 14.418 16.6769 14.418Z" fill="#333333"/>
</svg>
