<svg width="24" height="24" viewBox="0 0 24 24" fill="none" xmlns="http://www.w3.org/2000/svg">
<path d="M4.34737 16C4.31003 16 4.29603 15.9813 4.30537 15.944L7.70737 6.872C7.72603 6.844 7.74937 6.83 7.77737 6.83H8.11337C8.1507 6.83 8.17403 6.844 8.18337 6.872L11.5854 15.944C11.5947 15.9627 11.5947 15.9767 11.5854 15.986C11.576 15.9953 11.562 16 11.5434 16H11.3054C11.2774 16 11.2587 15.986 11.2494 15.958L8.42137 8.44C8.33737 8.22533 8.25803 8.006 8.18337 7.782C8.1087 7.558 8.03403 7.33867 7.95937 7.124H7.94537C7.86137 7.348 7.78203 7.57667 7.70737 7.81C7.6327 8.034 7.55337 8.258 7.46937 8.482L4.64137 15.958C4.63203 15.986 4.6087 16 4.57137 16H4.34737ZM5.50937 13.382L5.62137 13.074H10.2414L10.3534 13.382H5.50937ZM15.3496 18.758C14.3043 18.758 13.5623 18.618 13.1236 18.338C12.685 18.0673 12.4656 17.6333 12.4656 17.036C12.4656 16.532 12.5776 16.14 12.8016 15.86C13.035 15.58 13.399 15.356 13.8936 15.188L14.2996 15.272C13.777 15.44 13.3943 15.6547 13.1516 15.916C12.909 16.168 12.7876 16.532 12.7876 17.008C12.7876 17.5307 12.9836 17.8993 13.3756 18.114C13.7676 18.338 14.4303 18.45 15.3636 18.45C16.3343 18.45 17.0016 18.3287 17.3656 18.086C17.7296 17.8527 17.9116 17.4653 17.9116 16.924C17.9116 16.4387 17.795 16.098 17.5616 15.902C17.3283 15.6967 16.9363 15.58 16.3856 15.552L14.1456 15.398C13.7443 15.37 13.4503 15.2627 13.2636 15.076C13.0863 14.88 12.9976 14.628 12.9976 14.32C12.9976 14.124 13.035 13.9513 13.1096 13.802C13.1843 13.6527 13.2916 13.5173 13.4316 13.396C13.5716 13.2653 13.735 13.1393 13.9216 13.018L14.1876 13.186C13.917 13.3353 13.7023 13.4987 13.5436 13.676C13.385 13.844 13.3056 14.054 13.3056 14.306C13.3056 14.5113 13.3756 14.6933 13.5156 14.852C13.665 15.0013 13.959 15.09 14.3976 15.118L16.4836 15.258C17.081 15.2953 17.5196 15.4353 17.7996 15.678C18.089 15.9207 18.2336 16.3407 18.2336 16.938C18.2336 17.582 18.019 18.044 17.5896 18.324C17.1603 18.6133 16.4136 18.758 15.3496 18.758ZM15.4616 13.508C14.6776 13.508 14.0803 13.326 13.6696 12.962C13.2683 12.5887 13.0676 12.0427 13.0676 11.324C13.0676 10.596 13.2683 10.05 13.6696 9.686C14.0803 9.31267 14.6823 9.126 15.4756 9.126C16.2503 9.126 16.843 9.31267 17.2536 9.686C17.6643 10.0593 17.8696 10.6053 17.8696 11.324C17.8696 12.0427 17.6643 12.5887 17.2536 12.962C16.843 13.326 16.2456 13.508 15.4616 13.508ZM15.4616 13.2C16.1616 13.2 16.6843 13.046 17.0296 12.738C17.375 12.43 17.5476 11.9587 17.5476 11.324C17.5476 10.68 17.375 10.204 17.0296 9.896C16.6843 9.588 16.1616 9.434 15.4616 9.434C14.7616 9.434 14.239 9.588 13.8936 9.896C13.5576 10.204 13.3896 10.68 13.3896 11.324C13.3896 11.9587 13.5576 12.43 13.8936 12.738C14.239 13.046 14.7616 13.2 15.4616 13.2ZM16.8196 9.462L16.5256 9.42C16.5723 9.084 16.6283 8.74333 16.6936 8.398C16.7683 8.05267 16.843 7.768 16.9176 7.544C16.927 7.49733 16.9503 7.474 16.9876 7.474H17.1976C17.2443 7.474 17.2583 7.49733 17.2396 7.544C17.165 7.77733 17.0903 8.07133 17.0156 8.426C16.941 8.77133 16.8756 9.11667 16.8196 9.462Z" fill="#888888"/>
</svg>
