<svg width="24" height="24" viewBox="0 0 24 24" fill="none" xmlns="http://www.w3.org/2000/svg">
<path d="M4.11095 16C4.06428 16 4.03628 15.986 4.02695 15.958C4.00828 15.93 4.00828 15.8927 4.02695 15.846L8.42295 6.984C8.46961 6.88133 8.52561 6.83 8.59095 6.83H10.0889C10.1729 6.83 10.2243 6.88133 10.2429 6.984L11.8669 15.832C11.8763 15.888 11.8669 15.93 11.8389 15.958C11.8203 15.986 11.7829 16 11.7269 16H10.5509C10.4669 16 10.4156 15.9487 10.3969 15.846L9.48695 10.148C9.43095 9.812 9.37495 9.47133 9.31895 9.126C9.26295 8.77133 9.21628 8.42133 9.17895 8.076H9.15095C9.00161 8.42133 8.84761 8.762 8.68895 9.098C8.53028 9.434 8.36695 9.77933 8.19895 10.134L5.48295 15.846C5.46428 15.8927 5.43628 15.93 5.39895 15.958C5.37095 15.986 5.33361 16 5.28695 16H4.11095ZM6.15495 13.956L6.63095 12.766H10.2009L10.3269 13.956H6.15495ZM16.3016 8.972C16.8242 8.972 17.3096 9.02333 17.7576 9.126C18.2149 9.21933 18.7142 9.28467 19.2556 9.322L18.1776 16.084C18.0936 16.6627 17.9302 17.148 17.6876 17.54C17.4449 17.9413 17.1042 18.2447 16.6656 18.45C16.2269 18.6553 15.6622 18.758 14.9716 18.758C14.4022 18.758 13.9262 18.6787 13.5436 18.52C13.1702 18.3613 12.9042 18.1327 12.7456 17.834C12.5962 17.5447 12.5682 17.204 12.6616 16.812C12.6896 16.7187 12.7502 16.672 12.8436 16.672H13.8656C13.9682 16.672 14.0149 16.7187 14.0056 16.812C13.9776 17.0827 14.0522 17.274 14.2296 17.386C14.4162 17.5073 14.7149 17.568 15.1256 17.568C15.6389 17.568 16.0262 17.4513 16.2876 17.218C16.5582 16.9847 16.7356 16.6207 16.8196 16.126L17.0296 14.796C16.6002 15.1227 16.1896 15.3653 15.7976 15.524C15.4149 15.6827 15.0182 15.762 14.6076 15.762C13.9262 15.762 13.4456 15.5473 13.1656 15.118C12.8949 14.6887 12.8296 14.0447 12.9696 13.186L13.2356 11.59C13.3662 10.7313 13.6696 10.0827 14.1456 9.644C14.6216 9.196 15.3402 8.972 16.3016 8.972ZM15.1816 14.544C15.4802 14.544 15.7836 14.474 16.0916 14.334C16.3996 14.1847 16.7729 13.9373 17.2116 13.592L17.7436 10.316C17.5289 10.2693 17.2816 10.232 17.0016 10.204C16.7216 10.176 16.4836 10.162 16.2876 10.162C15.7742 10.162 15.3822 10.2927 15.1116 10.554C14.8409 10.806 14.6542 11.226 14.5516 11.814L14.3556 13.046C14.2716 13.5687 14.2949 13.9513 14.4256 14.194C14.5656 14.4273 14.8176 14.544 15.1816 14.544Z" fill="#888888"/>
</svg>
