<svg width="24" height="24" viewBox="0 0 24 24" fill="none" xmlns="http://www.w3.org/2000/svg">
<path d="M4.45608 16C4.34408 16 4.30208 15.944 4.33008 15.832L7.41008 6.942C7.43808 6.86733 7.49408 6.83 7.57808 6.83H8.99208C9.08541 6.83 9.14608 6.86733 9.17408 6.942L12.2821 15.832C12.3007 15.888 12.2961 15.93 12.2681 15.958C12.2494 15.986 12.2121 16 12.1561 16H11.0221C10.9287 16 10.8681 15.9627 10.8401 15.888L8.83808 9.742C8.74474 9.462 8.65141 9.17733 8.55808 8.888C8.46475 8.59867 8.36675 8.30933 8.26408 8.02H8.25008C8.16608 8.3 8.07741 8.58467 7.98408 8.874C7.89074 9.154 7.79741 9.434 7.70408 9.714L5.71608 15.874C5.68808 15.958 5.63208 16 5.54808 16H4.45608ZM6.12208 13.928L6.41608 12.78H10.1121L10.4201 13.928H6.12208ZM15.9938 18.758C14.8832 18.758 14.0852 18.6087 13.5998 18.31C13.1145 18.0207 12.8718 17.582 12.8718 16.994C12.8718 16.6207 12.9605 16.2893 13.1378 16C13.3152 15.72 13.5952 15.4913 13.9778 15.314L15.0138 15.692C14.7432 15.776 14.5472 15.9067 14.4258 16.084C14.3045 16.2707 14.2438 16.4853 14.2438 16.728C14.2438 17.0827 14.3745 17.3253 14.6358 17.456C14.9065 17.596 15.3778 17.666 16.0498 17.666C16.7685 17.666 17.2585 17.596 17.5198 17.456C17.7905 17.316 17.9258 17.0593 17.9258 16.686C17.9258 16.434 17.8652 16.2473 17.7438 16.126C17.6225 16.0047 17.4218 15.9393 17.1418 15.93L14.5658 15.776C14.2578 15.7573 13.9825 15.6453 13.7398 15.44C13.5065 15.2347 13.3898 14.9173 13.3898 14.488C13.3898 14.292 13.4178 14.1147 13.4738 13.956C13.5392 13.7973 13.6372 13.648 13.7678 13.508C13.9078 13.368 14.0898 13.214 14.3138 13.046L15.1398 13.508C14.9438 13.5827 14.7992 13.6807 14.7058 13.802C14.6218 13.914 14.5798 14.0447 14.5798 14.194C14.5798 14.3527 14.6312 14.4647 14.7338 14.53C14.8365 14.5953 14.9998 14.6373 15.2238 14.656L17.5338 14.796C18.1125 14.8333 18.5418 15.0107 18.8218 15.328C19.1018 15.6453 19.2418 16.112 19.2418 16.728C19.2418 17.4467 18.9805 17.9647 18.4578 18.282C17.9445 18.5993 17.1232 18.758 15.9938 18.758ZM16.1058 13.788C15.2192 13.788 14.5612 13.592 14.1318 13.2C13.7025 12.7987 13.4878 12.192 13.4878 11.38C13.4878 10.568 13.7025 9.966 14.1318 9.574C14.5705 9.182 15.2425 8.986 16.1478 8.986C17.0252 8.986 17.6738 9.18667 18.0938 9.588C18.5138 9.98 18.7238 10.582 18.7238 11.394C18.7238 12.206 18.5138 12.808 18.0938 13.2C17.6738 13.592 17.0112 13.788 16.1058 13.788ZM16.1058 12.668C16.6005 12.668 16.9412 12.5747 17.1278 12.388C17.3238 12.192 17.4218 11.8607 17.4218 11.394C17.4218 10.918 17.3238 10.582 17.1278 10.386C16.9318 10.19 16.5912 10.092 16.1058 10.092C15.6205 10.092 15.2798 10.19 15.0838 10.386C14.8972 10.582 14.8038 10.918 14.8038 11.394C14.8038 11.8607 14.8972 12.192 15.0838 12.388C15.2798 12.5747 15.6205 12.668 16.1058 12.668ZM17.8558 9.77L16.8198 9.336C16.8572 8.90667 16.8992 8.54733 16.9458 8.258C16.9925 7.95933 17.0392 7.70733 17.0858 7.502C17.1138 7.39 17.1698 7.334 17.2538 7.334H18.2058C18.3178 7.334 18.3598 7.38533 18.3318 7.488C18.2385 7.78667 18.1545 8.104 18.0798 8.44C18.0145 8.76667 17.9398 9.21 17.8558 9.77Z" fill="#888888"/>
</svg>
