<svg width="24" height="24" viewBox="0 0 24 24" fill="none" xmlns="http://www.w3.org/2000/svg">
<path d="M10.4743 17L9.63433 14.634H5.85433L5.01433 17H3.19433L6.82033 7.354H8.66833L12.2803 17H10.4743ZM6.37233 13.15H9.11633L7.74433 9.258L6.37233 13.15ZM18.1691 10.462H19.7931V16.076C19.7931 17.504 19.4711 18.5633 18.8271 19.254C18.1831 19.9447 17.2824 20.29 16.1251 20.29C15.4531 20.29 14.8417 20.1173 14.2911 19.772C13.7404 19.436 13.3204 18.9693 13.0311 18.372L14.3751 17.756C14.5337 18.0733 14.7717 18.33 15.0891 18.526C15.4157 18.722 15.7611 18.82 16.1251 18.82C17.4877 18.82 18.1691 17.9567 18.1691 16.23V16.132C17.9451 16.4493 17.6324 16.6967 17.2311 16.874C16.8297 17.0513 16.4191 17.14 15.9991 17.14C15.1124 17.14 14.3517 16.8273 13.7171 16.202C13.0917 15.5673 12.7791 14.7413 12.7791 13.724C12.7791 12.7067 13.0871 11.8853 13.7031 11.26C14.3284 10.6347 15.0891 10.322 15.9851 10.322C16.4237 10.322 16.8391 10.406 17.2311 10.574C17.6324 10.742 17.9451 10.9893 18.1691 11.316V10.462ZM14.9491 15.068C15.3037 15.432 15.7377 15.614 16.2511 15.614C16.7644 15.614 17.2077 15.4367 17.5811 15.082C17.9544 14.7273 18.1411 14.27 18.1411 13.71C18.1411 13.1593 17.9497 12.7113 17.5671 12.366C17.1844 12.0113 16.7457 11.834 16.2511 11.834C15.7377 11.834 15.3037 12.0113 14.9491 12.366C14.5944 12.7207 14.4171 13.1687 14.4171 13.71C14.4171 14.2513 14.5944 14.704 14.9491 15.068Z" fill="#888888"/>
</svg>
