<svg width="24" height="24" viewBox="0 0 24 24" fill="none" xmlns="http://www.w3.org/2000/svg">
<path d="M10.8897 16L9.92373 13.438H5.47173L4.50573 16H3.52573L7.20773 6.354H8.18773L11.8557 16H10.8897ZM5.79373 12.612H9.60173L7.69773 7.586L5.79373 12.612ZM18.553 9.462H19.449V15.034C19.449 16.546 19.141 17.6287 18.525 18.282C17.909 18.9353 17.0363 19.262 15.907 19.262C15.3377 19.262 14.801 19.1267 14.297 18.856C13.8023 18.5853 13.3963 18.1887 13.079 17.666L13.835 17.246C14.0683 17.6193 14.367 17.904 14.731 18.1C15.1043 18.3053 15.4963 18.408 15.907 18.408C16.7563 18.408 17.4097 18.1513 17.867 17.638C18.3243 17.1247 18.553 16.2707 18.553 15.076V14.74C18.3103 15.1787 17.951 15.524 17.475 15.776C17.0083 16.0187 16.4997 16.14 15.949 16.14C15.025 16.14 14.241 15.818 13.597 15.174C12.953 14.5207 12.631 13.704 12.631 12.724C12.631 11.744 12.9483 10.932 13.583 10.288C14.227 9.644 15.0157 9.322 15.949 9.322C16.509 9.322 17.0223 9.448 17.489 9.7C17.9557 9.94267 18.3103 10.2833 18.553 10.722V9.462ZM16.019 15.286C16.719 15.286 17.3163 15.048 17.811 14.572C18.3057 14.096 18.553 13.4893 18.553 12.752C18.553 11.9867 18.301 11.366 17.797 10.89C17.293 10.414 16.7003 10.176 16.019 10.176C15.3283 10.176 14.7403 10.4187 14.255 10.904C13.7697 11.3893 13.527 11.9913 13.527 12.71C13.527 13.438 13.7697 14.0493 14.255 14.544C14.7403 15.0387 15.3283 15.286 16.019 15.286Z" fill="#333333"/>
</svg>
