<svg width="24" height="24" viewBox="0 0 24 24" fill="none" xmlns="http://www.w3.org/2000/svg">
<path d="M10.1423 16L9.41427 13.76H6.02627L5.31227 16H2.96027L6.53027 6.354H8.92427L12.4803 16H10.1423ZM6.62827 11.856H8.79827L7.70627 8.482L6.62827 11.856ZM17.9988 9.476H20.0568V15.146C20.0568 16.5087 19.7208 17.54 19.0488 18.24C18.3768 18.9493 17.4388 19.304 16.2348 19.304C15.4974 19.304 14.8348 19.1127 14.2468 18.73C13.6588 18.3473 13.2341 17.8433 12.9728 17.218L14.6808 16.532C14.8021 16.8027 15.0074 17.0313 15.2968 17.218C15.5861 17.4047 15.8988 17.498 16.2348 17.498C17.4108 17.498 17.9988 16.798 17.9988 15.398V15.272C17.7654 15.552 17.4621 15.7667 17.0888 15.916C16.7154 16.056 16.3421 16.126 15.9688 16.126C15.1194 16.126 14.3774 15.8133 13.7428 15.188C13.1174 14.5627 12.8048 13.7413 12.8048 12.724C12.8048 11.7067 13.1174 10.8853 13.7428 10.26C14.3774 9.63467 15.1194 9.322 15.9688 9.322C16.3421 9.322 16.7154 9.39667 17.0888 9.546C17.4621 9.686 17.7654 9.896 17.9988 10.176V9.476ZM16.4168 14.194C16.8181 14.194 17.1681 14.054 17.4668 13.774C17.7654 13.4847 17.9148 13.1347 17.9148 12.724C17.9148 12.3133 17.7654 11.968 17.4668 11.688C17.1681 11.3987 16.8181 11.254 16.4168 11.254C16.0061 11.254 15.6514 11.3987 15.3528 11.688C15.0541 11.968 14.9048 12.3133 14.9048 12.724C14.9048 13.1347 15.0541 13.4847 15.3528 13.774C15.6514 14.054 16.0061 14.194 16.4168 14.194Z" fill="#333333"/>
</svg>
