<svg width="24" height="24" viewBox="0 0 24 24" fill="none" xmlns="http://www.w3.org/2000/svg">
<path d="M10.3155 16L9.53146 13.69H5.91946L5.14946 16H3.07746L6.67546 6.354H8.77546L12.3595 16H10.3155ZM6.49346 11.996H8.94346L7.71146 8.37L6.49346 11.996ZM18.0909 9.476H19.9249V15.104C19.9249 16.4947 19.5936 17.54 18.9309 18.24C18.2776 18.94 17.3583 19.29 16.1729 19.29C15.4729 19.29 14.8383 19.108 14.2689 18.744C13.6996 18.3893 13.2749 17.9087 12.9949 17.302L14.5209 16.644C14.6609 16.9427 14.8849 17.1853 15.1929 17.372C15.5009 17.5587 15.8276 17.652 16.1729 17.652C17.4516 17.652 18.0909 16.868 18.0909 15.3V15.202C17.8669 15.5007 17.5589 15.7293 17.1669 15.888C16.7749 16.0467 16.3829 16.126 15.9909 16.126C15.1136 16.126 14.3576 15.8133 13.7229 15.188C13.0976 14.5627 12.7849 13.7413 12.7849 12.724C12.7849 11.7067 13.0976 10.8853 13.7229 10.26C14.3576 9.63467 15.1136 9.322 15.9909 9.322C16.3923 9.322 16.7843 9.40133 17.1669 9.56C17.5589 9.71867 17.8669 9.94733 18.0909 10.246V9.476ZM16.3409 14.418C16.7983 14.418 17.1949 14.2593 17.5309 13.942C17.8669 13.6153 18.0349 13.2093 18.0349 12.724C18.0349 12.2387 17.8623 11.8373 17.5169 11.52C17.1809 11.2027 16.7889 11.044 16.3409 11.044C15.8743 11.044 15.4729 11.2073 15.1369 11.534C14.8103 11.8513 14.6469 12.248 14.6469 12.724C14.6469 13.2 14.8103 13.6013 15.1369 13.928C15.4729 14.2547 15.8743 14.418 16.3409 14.418Z" fill="#333333"/>
</svg>
