<svg width="24" height="24" viewBox="0 0 24 24" fill="none" xmlns="http://www.w3.org/2000/svg">
<path d="M3.97423 16C3.91823 16 3.88556 15.986 3.87623 15.958C3.85756 15.93 3.85756 15.888 3.87623 15.832L8.23023 6.998C8.28623 6.886 8.34689 6.83 8.41223 6.83H10.2042C10.2882 6.83 10.3442 6.886 10.3722 6.998L11.9542 15.832C11.9636 15.8787 11.9542 15.9207 11.9262 15.958C11.8982 15.986 11.8562 16 11.8002 16H10.3582C10.2649 16 10.2089 15.944 10.1902 15.832L9.37823 10.358C9.33156 10.022 9.28489 9.68133 9.23823 9.336C9.19156 8.98133 9.14956 8.63133 9.11223 8.286H9.08423C8.94423 8.63133 8.79489 8.97667 8.63623 9.322C8.48689 9.658 8.32823 10.0033 8.16023 10.358L5.62623 15.832C5.60756 15.8787 5.57956 15.9207 5.54223 15.958C5.50489 15.986 5.46289 16 5.41623 16H3.97423ZM6.18623 14.082L6.71823 12.71H10.0642L10.1762 14.082H6.18623ZM16.4109 8.944C16.9803 8.944 17.4983 8.99067 17.9649 9.084C18.4316 9.17733 18.9403 9.24267 19.4909 9.28L18.4269 16.028C18.3336 16.6347 18.1563 17.1387 17.8949 17.54C17.6429 17.9507 17.2883 18.254 16.8309 18.45C16.3829 18.6553 15.8136 18.758 15.1229 18.758C14.5163 18.758 14.0169 18.674 13.6249 18.506C13.2423 18.338 12.9716 18.0953 12.8129 17.778C12.6636 17.47 12.6309 17.106 12.7149 16.686C12.7336 16.5833 12.7943 16.532 12.8969 16.532H14.1149C14.2176 16.532 14.2689 16.588 14.2689 16.7C14.2409 16.9333 14.3063 17.1013 14.4649 17.204C14.6329 17.316 14.9036 17.372 15.2769 17.372C15.7436 17.372 16.0936 17.2647 16.3269 17.05C16.5696 16.8353 16.7283 16.4993 16.8029 16.042L17.0129 14.768C16.6023 15.0853 16.2009 15.3233 15.8089 15.482C15.4263 15.6313 15.0296 15.706 14.6189 15.706C13.9469 15.706 13.4756 15.4913 13.2049 15.062C12.9343 14.6327 12.8643 13.998 12.9949 13.158L13.2609 11.59C13.4009 10.7127 13.7136 10.0547 14.1989 9.616C14.6936 9.168 15.4309 8.944 16.4109 8.944ZM15.4029 14.278C15.6736 14.278 15.9489 14.2173 16.2289 14.096C16.5089 13.9653 16.8356 13.7507 17.2089 13.452L17.6989 10.456C17.5123 10.4187 17.2929 10.386 17.0409 10.358C16.7889 10.33 16.5696 10.316 16.3829 10.316C15.9256 10.316 15.5756 10.4327 15.3329 10.666C15.0903 10.8993 14.9223 11.2867 14.8289 11.828L14.6609 12.934C14.5863 13.4007 14.6096 13.7413 14.7309 13.956C14.8523 14.1707 15.0763 14.278 15.4029 14.278Z" fill="#888888"/>
</svg>
