<svg width="24" height="24" viewBox="0 0 24 24" fill="none" xmlns="http://www.w3.org/2000/svg">
<path d="M4.31936 16C4.19803 16 4.15136 15.9393 4.17936 15.818L7.20336 6.956C7.23136 6.872 7.29203 6.83 7.38536 6.83H9.17736C9.28003 6.83 9.34536 6.872 9.37336 6.956L12.4114 15.818C12.43 15.874 12.4254 15.9207 12.3974 15.958C12.3787 15.986 12.3414 16 12.2854 16H10.8014C10.708 16 10.6474 15.958 10.6194 15.874L8.81336 10.12C8.72003 9.812 8.62669 9.50867 8.53336 9.21C8.44936 8.902 8.36536 8.594 8.28136 8.286H8.25336C8.16936 8.58467 8.08069 8.888 7.98736 9.196C7.90336 9.49467 7.81469 9.79333 7.72136 10.092L5.95736 15.86C5.92936 15.9533 5.86403 16 5.76136 16H4.31936ZM6.23736 14.082L6.55936 12.71H9.96136L10.2974 14.082H6.23736ZM16.0892 18.758C14.9599 18.758 14.1432 18.6133 13.6392 18.324C13.1352 18.0347 12.8832 17.6007 12.8832 17.022C12.8832 16.6673 12.9672 16.35 13.1352 16.07C13.3125 15.79 13.5925 15.5567 13.9752 15.37L15.2352 15.776C15.0019 15.86 14.8292 15.9813 14.7172 16.14C14.6145 16.2987 14.5632 16.4807 14.5632 16.686C14.5632 16.9753 14.6799 17.176 14.9132 17.288C15.1465 17.4093 15.5665 17.4747 16.1732 17.484C16.8265 17.484 17.2699 17.4233 17.5032 17.302C17.7365 17.1807 17.8532 16.966 17.8532 16.658C17.8532 16.4433 17.7972 16.2847 17.6852 16.182C17.5825 16.0793 17.4145 16.0233 17.1812 16.014L14.6192 15.86C14.2739 15.832 13.9799 15.7107 13.7372 15.496C13.5039 15.2813 13.3872 14.964 13.3872 14.544C13.3872 14.3387 13.4152 14.152 13.4712 13.984C13.5365 13.816 13.6392 13.662 13.7792 13.522C13.9192 13.3727 14.1012 13.2187 14.3252 13.06L15.3332 13.522C15.1465 13.5873 15.0112 13.676 14.9272 13.788C14.8525 13.8907 14.8152 14.0027 14.8152 14.124C14.8152 14.264 14.8572 14.362 14.9412 14.418C15.0345 14.474 15.1792 14.5067 15.3752 14.516L17.6292 14.656C18.2732 14.7027 18.7399 14.894 19.0292 15.23C19.3279 15.5567 19.4772 16.0327 19.4772 16.658C19.4772 17.3953 19.2065 17.9273 18.6652 18.254C18.1332 18.59 17.2745 18.758 16.0892 18.758ZM16.2292 13.774C15.2959 13.774 14.6052 13.578 14.1572 13.186C13.7185 12.7847 13.4992 12.178 13.4992 11.366C13.4992 10.5447 13.7232 9.938 14.1712 9.546C14.6192 9.14467 15.3145 8.944 16.2572 8.944C17.1719 8.944 17.8485 9.14467 18.2872 9.546C18.7259 9.94733 18.9452 10.5587 18.9452 11.38C18.9452 12.192 18.7259 12.794 18.2872 13.186C17.8485 13.578 17.1625 13.774 16.2292 13.774ZM16.2292 12.486C16.6492 12.486 16.9385 12.402 17.0972 12.234C17.2652 12.0567 17.3492 11.7673 17.3492 11.366C17.3492 10.9553 17.2652 10.6613 17.0972 10.484C16.9385 10.3067 16.6492 10.218 16.2292 10.218C15.8092 10.218 15.5152 10.3067 15.3472 10.484C15.1792 10.6613 15.0952 10.9553 15.0952 11.366C15.0952 11.7673 15.1792 12.0567 15.3472 12.234C15.5152 12.402 15.8092 12.486 16.2292 12.486ZM18.0772 9.714L16.8872 9.252C16.9152 8.86933 16.9479 8.53333 16.9852 8.244C17.0319 7.94533 17.0739 7.68867 17.1112 7.474C17.1392 7.362 17.1952 7.306 17.2792 7.306H18.3992C18.5299 7.306 18.5765 7.36667 18.5392 7.488C18.4365 7.796 18.3479 8.12267 18.2732 8.468C18.2079 8.804 18.1425 9.21933 18.0772 9.714Z" fill="#888888"/>
</svg>
