<svg width="24" height="24" viewBox="0 0 24 24" fill="none" xmlns="http://www.w3.org/2000/svg">
<path d="M11.4331 15.362C11.8344 15.362 12.0351 15.544 12.0351 15.908V16.454C12.0351 16.818 11.8344 17 11.4331 17H8.89906C8.72173 17 8.57706 16.958 8.46506 16.874C8.35306 16.7807 8.29706 16.6407 8.29706 16.454V15.908C8.29706 15.7213 8.35306 15.586 8.46506 15.502C8.57706 15.4087 8.72173 15.362 8.89906 15.362H9.16506L8.66106 13.948H5.59506L5.09106 15.362H5.34306C5.52973 15.362 5.67906 15.4087 5.79106 15.502C5.90306 15.586 5.95906 15.7213 5.95906 15.908V16.454C5.95906 16.6407 5.90306 16.7807 5.79106 16.874C5.67906 16.958 5.52973 17 5.34306 17H3.11706C2.93973 17 2.79506 16.958 2.68306 16.874C2.57106 16.7807 2.51506 16.6407 2.51506 16.454V15.908C2.51506 15.7213 2.57106 15.586 2.68306 15.502C2.79506 15.4087 2.93973 15.362 3.11706 15.362H3.38306L6.19706 7.634C6.24373 7.494 6.32306 7.38667 6.43506 7.312C6.54706 7.23733 6.67306 7.2 6.81306 7.2H7.72306C7.86306 7.2 7.98906 7.23733 8.10106 7.312C8.21306 7.38667 8.2924 7.494 8.33906 7.634L11.1811 15.362H11.4331ZM8.07306 12.296L7.12106 9.608L6.16906 12.296H8.07306ZM19.9393 10C20.1259 10 20.2753 10.0467 20.3873 10.14C20.4993 10.224 20.5553 10.3593 20.5553 10.546V11.092C20.5553 11.2787 20.4993 11.4187 20.3873 11.512C20.2753 11.596 20.1259 11.638 19.9393 11.638H19.6873V16.552C19.6873 17.784 19.3699 18.7267 18.7353 19.38C18.1099 20.0333 17.2093 20.36 16.0333 20.36C15.1746 20.36 14.4839 20.2013 13.9613 19.884C13.4479 19.5667 13.1913 19.1513 13.1913 18.638C13.1913 18.33 13.2893 18.0827 13.4853 17.896C13.6813 17.7093 13.9379 17.616 14.2553 17.616C14.5539 17.616 14.8013 17.714 14.9973 17.91C15.2026 18.1153 15.3053 18.3673 15.3053 18.666C15.4826 18.722 15.7159 18.75 16.0053 18.75C17.1719 18.75 17.7553 18.0733 17.7553 16.72V15.684C17.5873 16.1227 17.3026 16.4773 16.9013 16.748C16.4999 17.0093 16.0566 17.14 15.5713 17.14C14.7313 17.14 14.0639 16.8273 13.5693 16.202C13.0839 15.5673 12.8413 14.7133 12.8413 13.64C12.8413 12.4453 13.1166 11.5167 13.6673 10.854C14.2179 10.1913 14.9879 9.86 15.9773 9.86C16.8173 9.86 17.4846 10.2333 17.9793 10.98L18.1053 10.448C18.1426 10.28 18.2079 10.1633 18.3013 10.098C18.3946 10.0327 18.5159 10 18.6653 10H19.9393ZM16.1733 15.53C16.4626 15.53 16.7286 15.4413 16.9713 15.264C17.2139 15.0867 17.4053 14.844 17.5453 14.536C17.6853 14.228 17.7553 13.892 17.7553 13.528V12.142C17.5686 11.9273 17.3446 11.764 17.0833 11.652C16.8219 11.5307 16.5513 11.47 16.2713 11.47C15.8046 11.47 15.4453 11.6567 15.1933 12.03C14.9413 12.394 14.8153 12.9213 14.8153 13.612C14.8153 14.2187 14.9319 14.69 15.1653 15.026C15.4079 15.362 15.7439 15.53 16.1733 15.53Z" fill="#333333"/>
</svg>
