<svg width="24" height="24" viewBox="0 0 24 24" fill="none" xmlns="http://www.w3.org/2000/svg">
<path d="M11.822 15.138C12.0274 15.138 12.1907 15.1893 12.312 15.292C12.4334 15.3947 12.494 15.5533 12.494 15.768V16.384C12.494 16.5987 12.4334 16.7573 12.312 16.86C12.1907 16.9533 12.0274 17 11.822 17H9.10605C8.90071 17 8.73738 16.9533 8.61605 16.86C8.49471 16.7573 8.43405 16.5987 8.43405 16.384V15.768C8.43405 15.5533 8.49471 15.3947 8.61605 15.292C8.73738 15.1893 8.90071 15.138 9.10605 15.138H9.31605L8.92405 13.99H6.11005L5.71805 15.138H5.94205C6.13805 15.138 6.29671 15.1893 6.41805 15.292C6.53938 15.3947 6.60005 15.5533 6.60005 15.768V16.384C6.60005 16.5987 6.53938 16.7573 6.41805 16.86C6.29671 16.9533 6.13805 17 5.94205 17H3.59005C3.39405 17 3.23071 16.9533 3.10005 16.86C2.97871 16.7573 2.91805 16.5987 2.91805 16.384V15.768C2.91805 15.5533 2.97871 15.3947 3.10005 15.292C3.23071 15.1893 3.39405 15.138 3.59005 15.138H3.80005L6.47405 7.69C6.52071 7.54067 6.60471 7.424 6.72605 7.34C6.85671 7.24667 7.00138 7.2 7.16005 7.2H8.25205C8.41071 7.2 8.55071 7.24667 8.67205 7.34C8.80271 7.424 8.89138 7.54067 8.93805 7.69L11.612 15.138H11.822ZM8.28005 12.128L7.52405 9.888L6.75405 12.128H8.28005ZM20.4692 10C20.6746 10 20.8379 10.0513 20.9592 10.154C21.0806 10.2473 21.1412 10.4013 21.1412 10.616V11.232C21.1412 11.4467 21.0806 11.6053 20.9592 11.708C20.8379 11.8107 20.6746 11.862 20.4692 11.862H20.2592V16.51C20.2592 17.742 19.9279 18.6893 19.2652 19.352C18.6026 20.024 17.6692 20.36 16.4652 20.36C15.5599 20.36 14.8459 20.206 14.3232 19.898C13.8006 19.59 13.5392 19.1653 13.5392 18.624C13.5392 18.3067 13.6466 18.0453 13.8612 17.84C14.0759 17.644 14.3512 17.546 14.6872 17.546C14.9766 17.546 15.2286 17.6347 15.4432 17.812C15.6672 17.9893 15.8026 18.2133 15.8492 18.484C15.9706 18.5213 16.1666 18.54 16.4372 18.54C16.9599 18.54 17.3566 18.3813 17.6272 18.064C17.9072 17.756 18.0472 17.308 18.0472 16.72V15.74C17.8699 16.16 17.5852 16.5007 17.1932 16.762C16.8106 17.014 16.3859 17.14 15.9192 17.14C15.0886 17.14 14.4259 16.832 13.9312 16.216C13.4459 15.5907 13.2032 14.7413 13.2032 13.668C13.2032 12.4547 13.4786 11.5167 14.0292 10.854C14.5799 10.1913 15.3592 9.86 16.3672 9.86C17.1979 9.86 17.8606 10.2287 18.3552 10.966L18.4952 10.462C18.5419 10.2847 18.6119 10.1633 18.7052 10.098C18.8079 10.0327 18.9386 10 19.0972 10H20.4692ZM16.6472 15.32C17.0392 15.32 17.3706 15.138 17.6412 14.774C17.9119 14.41 18.0472 13.962 18.0472 13.43V12.212C17.8886 12.044 17.6926 11.9133 17.4592 11.82C17.2259 11.7267 16.9832 11.68 16.7312 11.68C16.3299 11.68 16.0172 11.848 15.7932 12.184C15.5692 12.52 15.4572 12.9913 15.4572 13.598C15.4572 14.1487 15.5599 14.5733 15.7652 14.872C15.9799 15.1707 16.2739 15.32 16.6472 15.32Z" fill="#888888"/>
</svg>
