<svg width="24" height="24" viewBox="0 0 24 24" fill="none" xmlns="http://www.w3.org/2000/svg">
<path d="M4.78491 17L7.82291 7.9H9.05491L12.0929 17H11.0009L10.1749 14.48H6.64691L5.82091 17H4.78491ZM6.96891 13.5H9.85291L8.41091 9.104L6.96891 13.5ZM16.35 20.108C15.8833 20.108 15.426 20.052 14.978 19.94C14.53 19.8373 14.1007 19.6787 13.69 19.464L14.054 18.582C14.7447 18.9647 15.5007 19.156 16.322 19.156C17.7593 19.156 18.478 18.5027 18.478 17.196V16.258C17.75 16.7713 16.9893 17.028 16.196 17.028C15.608 17.028 15.0993 16.888 14.67 16.608C14.2407 16.3187 13.9047 15.922 13.662 15.418C13.4287 14.9047 13.312 14.312 13.312 13.64C13.312 12.968 13.4287 12.38 13.662 11.876C13.9047 11.3627 14.2407 10.966 14.67 10.686C15.0993 10.3967 15.608 10.252 16.196 10.252C17.0453 10.252 17.8527 10.5413 18.618 11.12L18.73 10.42H19.486V17.322C19.486 18.1993 19.2247 18.8807 18.702 19.366C18.1793 19.8607 17.3953 20.108 16.35 20.108ZM16.364 16.076C16.7187 16.076 17.0827 16.0107 17.456 15.88C17.8293 15.7493 18.17 15.5673 18.478 15.334V11.946C18.17 11.7127 17.8293 11.5307 17.456 11.4C17.0827 11.2693 16.7187 11.204 16.364 11.204C15.7387 11.204 15.244 11.428 14.88 11.876C14.5253 12.324 14.348 12.912 14.348 13.64C14.348 14.368 14.5253 14.956 14.88 15.404C15.244 15.852 15.7387 16.076 16.364 16.076Z" fill="#888888"/>
</svg>
