<svg width="24" height="24" viewBox="0 0 24 24" fill="none" xmlns="http://www.w3.org/2000/svg">
<path d="M3.70091 17L6.72491 7.9H8.15291L11.1769 17H9.81891L9.06291 14.676H5.74491L4.98891 17H3.70091ZM6.12291 13.472H8.68491L7.41091 9.496L6.12291 13.472ZM15.336 20.108C14.8507 20.108 14.3793 20.052 13.922 19.94C13.474 19.828 13.04 19.6553 12.62 19.422L13.04 18.358C13.7213 18.7407 14.4633 18.932 15.266 18.932C16.5913 18.932 17.254 18.3487 17.254 17.182V16.342C16.582 16.7993 15.882 17.028 15.154 17.028C14.566 17.028 14.0573 16.888 13.628 16.608C13.1987 16.3187 12.8627 15.9173 12.62 15.404C12.3867 14.8907 12.27 14.298 12.27 13.626C12.27 12.9447 12.3867 12.352 12.62 11.848C12.8627 11.3347 13.1987 10.938 13.628 10.658C14.0573 10.3687 14.566 10.224 15.154 10.224C15.9473 10.224 16.7127 10.4947 17.45 11.036L17.576 10.392H18.514V17.294C18.514 18.19 18.2433 18.8807 17.702 19.366C17.17 19.8607 16.3813 20.108 15.336 20.108ZM15.42 15.852C16.0547 15.852 16.666 15.656 17.254 15.264V11.988C16.666 11.5867 16.0547 11.386 15.42 11.386C14.8227 11.386 14.3607 11.5913 14.034 12.002C13.7167 12.4033 13.558 12.9447 13.558 13.626C13.558 14.3073 13.7167 14.8487 14.034 15.25C14.3607 15.6513 14.8227 15.852 15.42 15.852Z" fill="#333333"/>
</svg>
