<svg width="24" height="24" viewBox="0 0 24 24" fill="none" xmlns="http://www.w3.org/2000/svg">
<path d="M4.08491 17L9.05491 7.9H10.2869L11.3929 17H10.3569L10.0769 14.48H6.54891L5.17691 17H4.08491ZM7.06691 13.5H9.96491L9.44691 9.09L7.06691 13.5ZM15.076 20.108C14.1147 20.108 13.2653 19.8887 12.528 19.45L12.962 18.568C13.5687 18.96 14.278 19.156 15.09 19.156C16.5833 19.156 17.47 18.4887 17.75 17.154L17.932 16.286C17.5587 16.5193 17.1807 16.7013 16.798 16.832C16.4153 16.9627 16.042 17.028 15.678 17.028C14.9127 17.028 14.3107 16.8087 13.872 16.37C13.4427 15.9313 13.228 15.3293 13.228 14.564C13.228 13.7613 13.382 13.0333 13.69 12.38C13.998 11.7267 14.418 11.2087 14.95 10.826C15.482 10.4433 16.0793 10.252 16.742 10.252C17.666 10.252 18.464 10.5647 19.136 11.19L19.43 10.42H20.186L18.716 17.35C18.5293 18.2553 18.128 18.9413 17.512 19.408C16.896 19.8747 16.084 20.108 15.076 20.108ZM15.86 16.076C16.2333 16.076 16.6207 16.006 17.022 15.866C17.4233 15.7167 17.7967 15.5207 18.142 15.278L18.842 11.96C18.59 11.7267 18.2913 11.5447 17.946 11.414C17.6007 11.274 17.2507 11.204 16.896 11.204C16.4013 11.204 15.9533 11.3533 15.552 11.652C15.1507 11.9413 14.8333 12.3333 14.6 12.828C14.3667 13.3227 14.25 13.8733 14.25 14.48C14.25 14.9747 14.3853 15.3667 14.656 15.656C14.936 15.936 15.3373 16.076 15.86 16.076Z" fill="#888888"/>
</svg>
