<svg width="24" height="24" viewBox="0 0 24 24" fill="none" xmlns="http://www.w3.org/2000/svg">
<path d="M3.78491 17L6.82291 7.9H8.05491L11.0929 17H10.0009L9.17491 14.48H5.64691L4.82091 17H3.78491ZM5.96891 13.5H8.85291L7.41091 9.104L5.96891 13.5ZM15.35 20.108C14.8833 20.108 14.426 20.052 13.978 19.94C13.53 19.8373 13.1007 19.6787 12.69 19.464L13.054 18.582C13.7447 18.9647 14.5007 19.156 15.322 19.156C16.7593 19.156 17.478 18.5027 17.478 17.196V16.258C16.75 16.7713 15.9893 17.028 15.196 17.028C14.608 17.028 14.0993 16.888 13.67 16.608C13.2407 16.3187 12.9047 15.922 12.662 15.418C12.4287 14.9047 12.312 14.312 12.312 13.64C12.312 12.968 12.4287 12.38 12.662 11.876C12.9047 11.3627 13.2407 10.966 13.67 10.686C14.0993 10.3967 14.608 10.252 15.196 10.252C16.0453 10.252 16.8527 10.5413 17.618 11.12L17.73 10.42H18.486V17.322C18.486 18.1993 18.2247 18.8807 17.702 19.366C17.1793 19.8607 16.3953 20.108 15.35 20.108ZM15.364 16.076C15.7187 16.076 16.0827 16.0107 16.456 15.88C16.8293 15.7493 17.17 15.5673 17.478 15.334V11.946C17.17 11.7127 16.8293 11.5307 16.456 11.4C16.0827 11.2693 15.7187 11.204 15.364 11.204C14.7387 11.204 14.244 11.428 13.88 11.876C13.5253 12.324 13.348 12.912 13.348 13.64C13.348 14.368 13.5253 14.956 13.88 15.404C14.244 15.852 14.7387 16.076 15.364 16.076Z" fill="#333333"/>
</svg>
