<svg width="24" height="24" viewBox="0 0 24 24" fill="none" xmlns="http://www.w3.org/2000/svg">
<path d="M11.2944 16.034C11.3598 16.2207 11.4858 16.3187 11.6724 16.328L12.0084 16.37C12.2324 16.398 12.3444 16.5053 12.3444 16.692C12.3444 16.8973 12.2278 17 11.9944 17H8.88643C8.6531 17 8.53643 16.8973 8.53643 16.692C8.53643 16.496 8.64376 16.384 8.85843 16.356L9.33443 16.3C9.45576 16.2813 9.53976 16.2347 9.58643 16.16C9.64243 16.0853 9.6471 15.992 9.60043 15.88L8.99843 14.172H6.10043L5.49843 15.852C5.41443 16.104 5.49843 16.244 5.75043 16.272L6.24043 16.342C6.4551 16.37 6.56243 16.4867 6.56243 16.692C6.56243 16.8973 6.44576 17 6.21243 17H3.86043C3.6271 17 3.51043 16.8973 3.51043 16.692C3.51043 16.4867 3.61776 16.37 3.83243 16.342L4.37843 16.258C4.5651 16.23 4.6911 16.1273 4.75643 15.95L7.51443 8.39C7.5891 8.20333 7.71976 8.11 7.90643 8.11H8.11643C8.3031 8.11 8.43376 8.20333 8.50843 8.39L11.2944 16.034ZM6.33843 13.486H8.77443L7.58443 10.056L6.33843 13.486ZM19.2969 10.784V11.078C19.2969 11.3113 19.1802 11.428 18.9469 11.428H17.9949C18.2002 11.7453 18.3029 12.1233 18.3029 12.562C18.3029 12.9353 18.2329 13.262 18.0929 13.542C17.9529 13.8127 17.7662 14.0413 17.5329 14.228C17.2995 14.4053 17.0242 14.5407 16.7069 14.634C16.3989 14.718 16.0769 14.76 15.7409 14.76C15.3675 14.76 15.0362 14.7133 14.7469 14.62C14.6815 14.7227 14.6302 14.8207 14.5929 14.914C14.5555 14.998 14.5369 15.096 14.5369 15.208C14.5369 15.404 14.6022 15.5533 14.7329 15.656C14.8729 15.7493 15.1015 15.796 15.4189 15.796H16.8469C17.6962 15.796 18.3029 15.9407 18.6669 16.23C19.0402 16.51 19.2269 16.9067 19.2269 17.42C19.2269 17.868 19.1055 18.2413 18.8629 18.54C18.6202 18.848 18.3169 19.0907 17.9529 19.268C17.5982 19.4453 17.2062 19.5713 16.7769 19.646C16.3569 19.7207 15.9695 19.758 15.6149 19.758C14.6255 19.758 13.9209 19.6227 13.5009 19.352C13.0622 19.1093 12.8429 18.764 12.8429 18.316C12.8429 18.0453 12.9409 17.7933 13.1369 17.56C13.3329 17.3267 13.6455 17.1027 14.0749 16.888C13.8135 16.7573 13.6269 16.5987 13.5149 16.412C13.4029 16.216 13.3469 16.0107 13.3469 15.796C13.3469 15.5253 13.4262 15.2827 13.5849 15.068C13.7435 14.8533 13.9722 14.6387 14.2709 14.424C13.9349 14.2373 13.6735 13.99 13.4869 13.682C13.3002 13.3647 13.2069 12.9913 13.2069 12.562C13.2069 12.198 13.2769 11.8807 13.4169 11.61C13.5569 11.33 13.7435 11.1013 13.9769 10.924C14.2102 10.7373 14.4809 10.5973 14.7889 10.504C15.0969 10.4107 15.4189 10.364 15.7549 10.364C16.4642 10.364 17.0522 10.5413 17.5189 10.896L18.8349 10.462C18.8815 10.4433 18.9235 10.4293 18.9609 10.42C18.9982 10.4107 19.0355 10.406 19.0729 10.406C19.1755 10.406 19.2362 10.448 19.2549 10.532C19.2829 10.616 19.2969 10.7 19.2969 10.784ZM15.7269 14.186C16.1189 14.186 16.4175 14.0413 16.6229 13.752C16.8375 13.4533 16.9449 13.052 16.9449 12.548C16.9449 12.0533 16.8422 11.6613 16.6369 11.372C16.4315 11.0733 16.1375 10.924 15.7549 10.924C15.3629 10.924 15.0642 11.0733 14.8589 11.372C14.6629 11.6707 14.5649 12.0673 14.5649 12.562C14.5649 13.066 14.6629 13.4627 14.8589 13.752C15.0549 14.0413 15.3442 14.186 15.7269 14.186ZM16.7349 17.112H15.2649C15.1155 17.112 14.9802 17.1027 14.8589 17.084C14.7375 17.0747 14.6255 17.0607 14.5229 17.042C14.2989 17.35 14.1869 17.6627 14.1869 17.98C14.1869 18.4 14.3315 18.694 14.6209 18.862C14.9102 19.03 15.2929 19.114 15.7689 19.114C16.4782 19.114 17.0195 18.9927 17.3929 18.75C17.7662 18.5167 17.9529 18.2367 17.9529 17.91C17.9529 17.686 17.8642 17.4993 17.6869 17.35C17.5935 17.2753 17.4722 17.2147 17.3229 17.168C17.1735 17.1307 16.9775 17.112 16.7349 17.112Z" fill="#333333"/>
</svg>
