<svg width="24" height="24" viewBox="0 0 24 24" fill="none" xmlns="http://www.w3.org/2000/svg">
<path d="M2.41837 17L6.10037 6.78H8.42437L12.2184 17H10.8044L9.68437 13.948H4.88237L3.79037 17H2.41837ZM5.31637 12.716H9.22237L7.50037 8.012H6.98237L5.31637 12.716ZM16.6424 19.912C15.9424 19.912 15.261 19.8607 14.5984 19.758V18.624C14.9344 18.6707 15.2844 18.708 15.6484 18.736C16.0217 18.7733 16.3717 18.792 16.6984 18.792C17.725 18.792 18.4437 18.582 18.8544 18.162C19.2744 17.7513 19.4844 17.0887 19.4844 16.174V15.502C19.2044 16.0247 18.8264 16.4167 18.3504 16.678C17.8837 16.93 17.3657 17.056 16.7964 17.056C16.0964 17.056 15.4804 16.8833 14.9484 16.538C14.4164 16.1833 14.001 15.7167 13.7024 15.138C13.4037 14.5593 13.2544 13.9247 13.2544 13.234V12.982C13.2544 12.282 13.4084 11.652 13.7164 11.092C14.0244 10.532 14.449 10.0887 14.9904 9.762C15.5317 9.43533 16.157 9.272 16.8664 9.272C17.5197 9.272 18.089 9.41667 18.5744 9.706C19.069 9.99533 19.447 10.4153 19.7084 10.966V9.524H20.7724V16.118C20.7724 17.014 20.6324 17.7373 20.3524 18.288C20.0817 18.848 19.643 19.2587 19.0364 19.52C18.439 19.7813 17.641 19.912 16.6424 19.912ZM17.0484 15.824C17.4964 15.824 17.9024 15.726 18.2664 15.53C18.6397 15.334 18.9337 15.054 19.1484 14.69C19.3724 14.3167 19.4844 13.8733 19.4844 13.36V12.716C19.4844 12.212 19.3677 11.7873 19.1344 11.442C18.9104 11.0967 18.6164 10.8353 18.2524 10.658C17.8884 10.4807 17.4917 10.392 17.0624 10.392C16.325 10.392 15.7277 10.6393 15.2704 11.134C14.8224 11.6287 14.5984 12.2867 14.5984 13.108C14.5984 13.9387 14.827 14.6013 15.2844 15.096C15.751 15.5813 16.339 15.824 17.0484 15.824Z" fill="#333333"/>
</svg>
