<svg width="24" height="24" viewBox="0 0 24 24" fill="none" xmlns="http://www.w3.org/2000/svg">
<path d="M2.6143 17L6.1003 6.78H9.3483L12.9323 17H10.8883L7.8503 8.138L8.5643 8.446H6.8143L7.5423 8.138L4.6023 17H2.6143ZM5.0503 14.284L5.6803 12.604H9.82431L10.4403 14.284H5.0503ZM17.1551 19.996C16.7911 19.996 16.4177 19.982 16.0351 19.954C15.6617 19.926 15.3117 19.8887 14.9851 19.842V18.218C15.3211 18.2553 15.6804 18.288 16.0631 18.316C16.4457 18.3533 16.8051 18.372 17.1411 18.372C17.7664 18.372 18.2704 18.2973 18.6531 18.148C19.0451 17.9987 19.3297 17.7607 19.5071 17.434C19.6937 17.1167 19.7871 16.7107 19.7871 16.216V14.718L20.2071 13.766C20.1791 14.466 20.0344 15.0633 19.7731 15.558C19.5117 16.0433 19.1571 16.4167 18.7091 16.678C18.2611 16.93 17.7431 17.056 17.1551 17.056C16.6324 17.056 16.1564 16.958 15.7271 16.762C15.3071 16.566 14.9431 16.2953 14.6351 15.95C14.3364 15.6047 14.1031 15.1987 13.9351 14.732C13.7671 14.2653 13.6831 13.766 13.6831 13.234V12.94C13.6831 12.408 13.7671 11.9133 13.9351 11.456C14.1124 10.9893 14.3597 10.5833 14.6771 10.238C14.9944 9.89267 15.3724 9.62667 15.8111 9.44C16.2497 9.25333 16.7351 9.16 17.2671 9.16C17.8924 9.16 18.4337 9.29533 18.8911 9.566C19.3577 9.83667 19.7217 10.2287 19.9831 10.742C20.2444 11.2553 20.3891 11.8853 20.4171 12.632L20.0811 12.688V9.398H21.6211V16.104C21.6211 17.028 21.4624 17.7747 21.1451 18.344C20.8277 18.9133 20.3377 19.3287 19.6751 19.59C19.0217 19.8607 18.1817 19.996 17.1551 19.996ZM17.7151 15.39C18.0884 15.39 18.4291 15.306 18.7371 15.138C19.0451 14.97 19.2924 14.7273 19.4791 14.41C19.6657 14.0927 19.7591 13.71 19.7591 13.262V12.772C19.7591 12.3427 19.6611 11.9787 19.4651 11.68C19.2784 11.3813 19.0311 11.1573 18.7231 11.008C18.4151 10.8493 18.0791 10.77 17.7151 10.77C17.3044 10.77 16.9404 10.868 16.6231 11.064C16.3151 11.2507 16.0724 11.5167 15.8951 11.862C15.7177 12.2073 15.6291 12.618 15.6291 13.094C15.6291 13.5607 15.7177 13.9667 15.8951 14.312C16.0724 14.6573 16.3151 14.9233 16.6231 15.11C16.9404 15.2967 17.3044 15.39 17.7151 15.39Z" fill="#888888"/>
</svg>
