<svg width="24" height="24" viewBox="0 0 24 24" fill="none" xmlns="http://www.w3.org/2000/svg">
<path d="M2.81261 17L6.74661 6.78H7.83861L11.9126 17H11.4506L7.46061 6.99L7.82461 7.2H6.73261L7.09661 6.99L3.26061 17H2.81261ZM4.46461 13.36L4.61861 12.94H10.0226L10.1906 13.36H4.46461ZM16.7905 19.856C16.4638 19.856 16.1232 19.8373 15.7685 19.8C15.4138 19.772 15.0732 19.73 14.7465 19.674V19.254C15.0825 19.31 15.4325 19.352 15.7965 19.38C16.1698 19.4173 16.5198 19.436 16.8465 19.436C17.6212 19.436 18.2278 19.338 18.6665 19.142C19.1145 18.946 19.4318 18.6193 19.6185 18.162C19.8052 17.714 19.8985 17.1027 19.8985 16.328V14.76L20.1785 13.766C20.1785 14.3913 20.0432 14.9653 19.7725 15.488C19.5112 16.0107 19.1285 16.4307 18.6245 16.748C18.1298 17.0653 17.5325 17.224 16.8325 17.224C16.2725 17.224 15.7732 17.1167 15.3345 16.902C14.9052 16.6873 14.5412 16.398 14.2425 16.034C13.9532 15.67 13.7292 15.2593 13.5705 14.802C13.4212 14.3447 13.3465 13.878 13.3465 13.402V13.318C13.3465 12.87 13.4212 12.422 13.5705 11.974C13.7198 11.5167 13.9392 11.1013 14.2285 10.728C14.5178 10.3547 14.8818 10.056 15.3205 9.832C15.7592 9.608 16.2632 9.496 16.8325 9.496C17.5418 9.496 18.1485 9.664 18.6525 10C19.1565 10.3267 19.5392 10.756 19.8005 11.288C20.0712 11.8107 20.2065 12.366 20.2065 12.954L19.9825 12.38V9.72H20.3465V16.342C20.3465 17.21 20.2298 17.9007 19.9965 18.414C19.7725 18.9273 19.3992 19.296 18.8765 19.52C18.3538 19.744 17.6585 19.856 16.7905 19.856ZM16.8605 16.804C17.4765 16.804 18.0132 16.6687 18.4705 16.398C18.9278 16.1273 19.2825 15.7587 19.5345 15.292C19.7958 14.8253 19.9265 14.3073 19.9265 13.738V12.982C19.9265 12.4407 19.8005 11.9413 19.5485 11.484C19.3058 11.0173 18.9558 10.6393 18.4985 10.35C18.0412 10.0607 17.4952 9.916 16.8605 9.916C16.1885 9.916 15.6238 10.084 15.1665 10.42C14.7185 10.756 14.3778 11.1853 14.1445 11.708C13.9112 12.2307 13.7945 12.7813 13.7945 13.36C13.7945 13.9667 13.9158 14.536 14.1585 15.068C14.4012 15.5907 14.7512 16.0107 15.2085 16.328C15.6658 16.6453 16.2165 16.804 16.8605 16.804Z" fill="#888888"/>
</svg>
