<svg width="24" height="24" viewBox="0 0 24 24" fill="none" xmlns="http://www.w3.org/2000/svg">
<path d="M3.73547 17L6.98347 7.774H7.62747L10.8755 17H10.1895L8.35547 11.568C8.1688 11.0173 7.99147 10.49 7.82347 9.986C7.65547 9.47267 7.49214 8.936 7.33347 8.376H7.27747C7.10947 8.936 6.94147 9.47267 6.77347 9.986C6.6148 10.49 6.44214 11.0173 6.25547 11.568L4.37947 17H3.73547ZM5.21947 13.836V13.29H9.34947V13.836H5.21947ZM15.812 20.234C15.112 20.234 14.5287 20.15 14.062 19.982C13.6047 19.8233 13.2593 19.5947 13.026 19.296C12.7927 19.0067 12.676 18.6707 12.676 18.288C12.676 18.0267 12.774 17.7513 12.97 17.462C13.166 17.182 13.446 16.93 13.81 16.706V16.65C13.642 16.566 13.4833 16.4353 13.334 16.258C13.1847 16.0807 13.11 15.852 13.11 15.572C13.11 15.3573 13.18 15.138 13.32 14.914C13.46 14.6807 13.6607 14.4753 13.922 14.298V14.242C13.7073 14.0647 13.5207 13.8313 13.362 13.542C13.2033 13.2527 13.124 12.9073 13.124 12.506C13.124 12.0487 13.236 11.638 13.46 11.274C13.6933 10.91 13.9967 10.6253 14.37 10.42C14.7527 10.2147 15.1727 10.112 15.63 10.112C15.9847 10.112 16.2927 10.168 16.554 10.28H19.354V10.812H17.324C17.5293 11.008 17.7113 11.2553 17.87 11.554C18.0287 11.8433 18.108 12.1653 18.108 12.52C18.108 12.9773 17.996 13.3833 17.772 13.738C17.5573 14.0927 17.2587 14.368 16.876 14.564C16.5027 14.76 16.0873 14.858 15.63 14.858C15.4247 14.858 15.21 14.8347 14.986 14.788C14.7713 14.732 14.5613 14.6527 14.356 14.55C14.16 14.6713 14.0013 14.816 13.88 14.984C13.7587 15.1427 13.698 15.3107 13.698 15.488C13.698 15.8147 13.838 16.0527 14.118 16.202C14.398 16.3513 14.776 16.426 15.252 16.426H16.918C17.7767 16.426 18.3973 16.5427 18.78 16.776C19.172 17.0093 19.368 17.3967 19.368 17.938C19.368 18.3207 19.2187 18.6893 18.92 19.044C18.6307 19.3987 18.22 19.6833 17.688 19.898C17.1653 20.122 16.54 20.234 15.812 20.234ZM15.63 14.368C15.966 14.368 16.274 14.2887 16.554 14.13C16.8433 13.9713 17.072 13.752 17.24 13.472C17.408 13.192 17.492 12.87 17.492 12.506C17.492 12.142 17.408 11.82 17.24 11.54C17.072 11.2507 16.8433 11.0267 16.554 10.868C16.274 10.7093 15.966 10.63 15.63 10.63C15.2847 10.63 14.972 10.7093 14.692 10.868C14.412 11.0267 14.1833 11.2507 14.006 11.54C13.838 11.82 13.754 12.142 13.754 12.506C13.754 12.87 13.838 13.192 14.006 13.472C14.1833 13.752 14.412 13.9713 14.692 14.13C14.972 14.2887 15.2847 14.368 15.63 14.368ZM15.77 19.73C16.386 19.73 16.9133 19.646 17.352 19.478C17.8 19.31 18.1407 19.0907 18.374 18.82C18.6073 18.5587 18.724 18.288 18.724 18.008C18.724 17.6253 18.5793 17.364 18.29 17.224C18.0007 17.084 17.562 17.014 16.974 17.014H15.378C15.21 17.014 15.0327 17.0047 14.846 16.986C14.6687 16.9673 14.5053 16.9347 14.356 16.888C13.9547 17.1027 13.67 17.3313 13.502 17.574C13.3433 17.8167 13.264 18.0593 13.264 18.302C13.264 18.7033 13.4693 19.0393 13.88 19.31C14.3 19.59 14.93 19.73 15.77 19.73Z" fill="#888888"/>
</svg>
