<svg width="24" height="24" viewBox="0 0 24 24" fill="none" xmlns="http://www.w3.org/2000/svg">
<path d="M7.86967 11.456L6.86167 13.304H10.2217L9.99767 11.456C9.94167 10.9333 9.88101 10.406 9.81567 9.874C9.75034 9.342 9.68967 8.796 9.63367 8.236H9.57767C9.29767 8.81467 9.01767 9.36067 8.73767 9.874C8.45767 10.378 8.16834 10.9053 7.86967 11.456ZM4.36967 17L9.49367 7.76H9.91367L11.0897 17H10.6697L10.2637 13.668H6.66567L4.84567 17H4.36967ZM14.0642 20.276C13.5696 20.276 13.1402 20.1827 12.7762 19.996C12.4216 19.8093 12.1042 19.5947 11.8242 19.352L12.0762 19.044C12.3282 19.2867 12.6222 19.492 12.9582 19.66C13.2942 19.828 13.6722 19.912 14.0922 19.912C14.7736 19.912 15.3102 19.6833 15.7022 19.226C16.0942 18.7687 16.3696 18.1667 16.5282 17.42L16.8642 15.796C16.4722 16.1787 16.0662 16.4867 15.6462 16.72C15.2356 16.944 14.7922 17.056 14.3162 17.056C13.7376 17.056 13.2709 16.8553 12.9162 16.454C12.5616 16.0433 12.3842 15.4507 12.3842 14.676C12.3842 14.0507 12.4869 13.4627 12.6922 12.912C12.8976 12.3613 13.1682 11.8807 13.5042 11.47C13.8402 11.0593 14.2182 10.7373 14.6382 10.504C15.0676 10.2613 15.5016 10.14 15.9402 10.14C16.3416 10.14 16.6869 10.2427 16.9762 10.448C17.2749 10.6533 17.5176 10.924 17.7042 11.26H17.7602L18.0122 10.308H18.3482L16.8642 17.672C16.6962 18.4747 16.3742 19.1093 15.8982 19.576C15.4316 20.0427 14.8202 20.276 14.0642 20.276ZM14.3442 16.692C14.7362 16.692 15.1656 16.566 15.6322 16.314C16.0989 16.0527 16.5376 15.7027 16.9482 15.264L17.6762 11.792C17.4056 11.3253 17.1256 10.994 16.8362 10.798C16.5562 10.602 16.2482 10.504 15.9122 10.504C15.5109 10.504 15.1236 10.6253 14.7502 10.868C14.3769 11.1013 14.0409 11.414 13.7422 11.806C13.4529 12.1887 13.2196 12.6273 13.0422 13.122C12.8649 13.6073 12.7762 14.0973 12.7762 14.592C12.7762 15.292 12.9116 15.8193 13.1822 16.174C13.4622 16.5193 13.8496 16.692 14.3442 16.692Z" fill="#333333"/>
</svg>
