<svg width="24" height="24" viewBox="0 0 24 24" fill="none" xmlns="http://www.w3.org/2000/svg">
<path d="M4.23147 17L7.07347 7.872H9.53747L12.3795 17H10.1955L9.01947 12.38C8.90747 11.9227 8.78614 11.4373 8.65547 10.924C8.5248 10.4107 8.40347 9.916 8.29147 9.44H8.23547C8.12347 9.916 8.0068 10.4107 7.88547 10.924C7.76414 11.4373 7.6428 11.9227 7.52147 12.38L6.33147 17H4.23147ZM6.10747 14.83V13.22H10.4755V14.83H6.10747ZM16.378 19.954C15.7713 19.954 15.23 19.8887 14.754 19.758C14.2873 19.6367 13.914 19.4453 13.634 19.184C13.3633 18.9227 13.228 18.5867 13.228 18.176C13.228 17.896 13.3167 17.6393 13.494 17.406C13.6807 17.1727 13.9513 16.9673 14.306 16.79V16.734C14.11 16.6033 13.942 16.4447 13.802 16.258C13.6713 16.0713 13.606 15.8333 13.606 15.544C13.606 15.3107 13.6807 15.0773 13.83 14.844C13.9887 14.6107 14.1893 14.41 14.432 14.242V14.186C14.18 14.018 13.9653 13.78 13.788 13.472C13.6107 13.164 13.522 12.8093 13.522 12.408C13.522 11.848 13.6573 11.3813 13.928 11.008C14.208 10.6347 14.572 10.3547 15.02 10.168C15.4773 9.98133 15.9673 9.888 16.49 9.888C16.9193 9.888 17.302 9.944 17.638 10.056H20.452V11.568H19.052C19.136 11.6707 19.206 11.806 19.262 11.974C19.3273 12.1327 19.36 12.3007 19.36 12.478C19.36 13.01 19.2293 13.4487 18.968 13.794C18.716 14.13 18.3753 14.382 17.946 14.55C17.5167 14.718 17.0313 14.802 16.49 14.802C16.3593 14.802 16.21 14.7927 16.042 14.774C15.874 14.746 15.706 14.7087 15.538 14.662C15.426 14.7367 15.3467 14.8113 15.3 14.886C15.2533 14.9607 15.23 15.0587 15.23 15.18C15.23 15.3573 15.3233 15.488 15.51 15.572C15.706 15.656 16.0047 15.698 16.406 15.698H17.694C18.6087 15.698 19.304 15.8333 19.78 16.104C20.2653 16.3747 20.508 16.8227 20.508 17.448C20.508 17.9333 20.34 18.3627 20.004 18.736C19.668 19.1187 19.1873 19.4173 18.562 19.632C17.946 19.8467 17.218 19.954 16.378 19.954ZM16.49 13.556C16.686 13.556 16.8633 13.514 17.022 13.43C17.1807 13.346 17.3067 13.22 17.4 13.052C17.4933 12.8747 17.54 12.66 17.54 12.408C17.54 12.1653 17.4933 11.96 17.4 11.792C17.3067 11.624 17.1807 11.498 17.022 11.414C16.8633 11.3207 16.686 11.274 16.49 11.274C16.3033 11.274 16.1307 11.3207 15.972 11.414C15.8133 11.498 15.6873 11.624 15.594 11.792C15.5007 11.96 15.454 12.1653 15.454 12.408C15.454 12.66 15.5007 12.8747 15.594 13.052C15.6873 13.22 15.8133 13.346 15.972 13.43C16.1307 13.514 16.3033 13.556 16.49 13.556ZM16.672 18.652C17.0453 18.652 17.372 18.6147 17.652 18.54C17.932 18.4653 18.1513 18.3627 18.31 18.232C18.4687 18.1107 18.548 17.9707 18.548 17.812C18.548 17.5787 18.4453 17.4293 18.24 17.364C18.0347 17.308 17.7313 17.28 17.33 17.28H16.462C16.21 17.28 16 17.2707 15.832 17.252C15.6733 17.2333 15.5287 17.21 15.398 17.182C15.2207 17.294 15.0947 17.4013 15.02 17.504C14.9453 17.616 14.908 17.7373 14.908 17.868C14.908 18.12 15.0667 18.3113 15.384 18.442C15.7013 18.582 16.1307 18.652 16.672 18.652Z" fill="#888888"/>
</svg>
