<svg width="24" height="24" viewBox="0 0 24 24" fill="none" xmlns="http://www.w3.org/2000/svg">
<path d="M3.55347 17L6.64747 7.816H7.96347L11.0575 17H9.82547L8.22947 11.862C8.0708 11.3487 7.91214 10.84 7.75347 10.336C7.60414 9.82267 7.45947 9.3 7.31947 8.768H7.26347C7.11414 9.3 6.9648 9.82267 6.81547 10.336C6.66614 10.84 6.51214 11.3487 6.35347 11.862L4.74347 17H3.55347ZM5.17747 14.2V13.262H9.39147V14.2H5.17747ZM15.644 20.136C14.9813 20.136 14.4167 20.0613 13.95 19.912C13.4833 19.7627 13.124 19.548 12.872 19.268C12.6293 18.988 12.508 18.6473 12.508 18.246C12.508 17.9753 12.6013 17.7047 12.788 17.434C12.984 17.1727 13.264 16.9393 13.628 16.734V16.678C13.4507 16.5753 13.2873 16.4353 13.138 16.258C12.998 16.0807 12.928 15.8473 12.928 15.558C12.928 15.3433 12.998 15.124 13.138 14.9C13.278 14.6667 13.4787 14.4613 13.74 14.284V14.228C13.5067 14.0507 13.306 13.8127 13.138 13.514C12.9793 13.2153 12.9 12.8653 12.9 12.464C12.9 11.9693 13.0213 11.54 13.264 11.176C13.516 10.812 13.8427 10.532 14.244 10.336C14.6547 10.1307 15.098 10.028 15.574 10.028C15.9567 10.028 16.2927 10.084 16.582 10.196H19.396V11.134H17.632C17.7907 11.2927 17.926 11.4933 18.038 11.736C18.15 11.9787 18.206 12.2353 18.206 12.506C18.206 12.9913 18.0893 13.4113 17.856 13.766C17.6227 14.1113 17.3053 14.3773 16.904 14.564C16.512 14.7507 16.0687 14.844 15.574 14.844C15.3967 14.844 15.2053 14.8253 15 14.788C14.804 14.7413 14.6127 14.676 14.426 14.592C14.258 14.6947 14.1273 14.8113 14.034 14.942C13.9407 15.0727 13.894 15.2173 13.894 15.376C13.894 15.6373 14.0153 15.8333 14.258 15.964C14.51 16.0947 14.86 16.16 15.308 16.16H16.834C17.7113 16.16 18.36 16.2813 18.78 16.524C19.2093 16.7667 19.424 17.1773 19.424 17.756C19.424 18.176 19.27 18.568 18.962 18.932C18.654 19.296 18.2153 19.5853 17.646 19.8C17.086 20.024 16.4187 20.136 15.644 20.136ZM15.574 14.074C15.8633 14.074 16.1247 14.0087 16.358 13.878C16.6007 13.7473 16.792 13.5607 16.932 13.318C17.072 13.0753 17.142 12.7907 17.142 12.464C17.142 12.1467 17.072 11.8713 16.932 11.638C16.792 11.3953 16.6007 11.2087 16.358 11.078C16.1247 10.938 15.8633 10.868 15.574 10.868C15.294 10.868 15.0327 10.938 14.79 11.078C14.5567 11.2087 14.3653 11.3953 14.216 11.638C14.076 11.8713 14.006 12.1467 14.006 12.464C14.006 12.7907 14.076 13.0753 14.216 13.318C14.3653 13.5607 14.5567 13.7473 14.79 13.878C15.0327 14.0087 15.294 14.074 15.574 14.074ZM15.728 19.296C16.26 19.296 16.7173 19.2307 17.1 19.1C17.4827 18.9693 17.7767 18.8013 17.982 18.596C18.1873 18.3907 18.29 18.1713 18.29 17.938C18.29 17.6113 18.1593 17.392 17.898 17.28C17.646 17.168 17.2587 17.112 16.736 17.112H15.406C15.21 17.112 15.0233 17.1027 14.846 17.084C14.678 17.0653 14.5193 17.0373 14.37 17C14.0527 17.1773 13.8287 17.3593 13.698 17.546C13.5673 17.742 13.502 17.938 13.502 18.134C13.502 18.4887 13.6887 18.7687 14.062 18.974C14.4447 19.1887 15 19.296 15.728 19.296Z" fill="#888888"/>
</svg>
