<svg width="24" height="24" viewBox="0 0 24 24" fill="none" xmlns="http://www.w3.org/2000/svg">
<path d="M3.64347 17L8.47347 7.844H10.2515L11.2875 17H9.70547L9.34147 11.89C9.30414 11.4233 9.2668 10.952 9.22947 10.476C9.20147 10 9.17347 9.51933 9.14547 9.034H9.07547C8.85147 9.51 8.63214 9.98133 8.41747 10.448C8.21214 10.9147 7.9928 11.3907 7.75947 11.876L5.29547 17H3.64347ZM5.89747 14.424L6.17747 13.276H10.2935L10.0415 14.424H5.89747ZM15.356 19.884C14.7587 19.884 14.236 19.8 13.788 19.632C13.34 19.4733 12.9527 19.268 12.626 19.016L13.298 17.952C13.5687 18.1853 13.886 18.3627 14.25 18.484C14.614 18.6147 14.978 18.68 15.342 18.68C15.6873 18.68 16.0093 18.6333 16.308 18.54C16.6067 18.4467 16.8633 18.2833 17.078 18.05C17.302 17.826 17.4653 17.5133 17.568 17.112L17.862 15.88H17.806C17.5073 16.16 17.1573 16.3933 16.756 16.58C16.3547 16.7667 15.9487 16.86 15.538 16.86C14.81 16.86 14.2313 16.6313 13.802 16.174C13.382 15.7167 13.172 15.0913 13.172 14.298C13.172 13.682 13.27 13.1127 13.466 12.59C13.662 12.058 13.928 11.596 14.264 11.204C14.6093 10.812 15.0013 10.5087 15.44 10.294C15.8787 10.07 16.3453 9.958 16.84 9.958C17.3067 9.958 17.7127 10.0467 18.058 10.224C18.4033 10.392 18.66 10.6253 18.828 10.924H18.884L19.192 10.126H20.382L18.982 17.112C18.8513 17.784 18.6087 18.3253 18.254 18.736C17.8993 19.1467 17.47 19.4407 16.966 19.618C16.4713 19.7953 15.9347 19.884 15.356 19.884ZM16.028 15.628C16.3547 15.628 16.686 15.5393 17.022 15.362C17.358 15.1847 17.6753 14.9327 17.974 14.606L18.52 12.044C18.324 11.7453 18.1 11.5307 17.848 11.4C17.6053 11.26 17.3393 11.19 17.05 11.19C16.7607 11.19 16.476 11.2647 16.196 11.414C15.916 11.554 15.664 11.7547 15.44 12.016C15.216 12.2773 15.0387 12.5853 14.908 12.94C14.7867 13.2853 14.726 13.6587 14.726 14.06C14.726 14.6013 14.838 14.998 15.062 15.25C15.2953 15.502 15.6173 15.628 16.028 15.628Z" fill="#888888"/>
</svg>
