<svg width="24" height="24" viewBox="0 0 24 24" fill="none" xmlns="http://www.w3.org/2000/svg">
<path d="M2.81599 17L2.99799 16.048L4.29999 15.95H4.91599L6.20399 16.048L6.02199 17H2.81599ZM3.52999 17L8.33199 7.872H10.362L11.846 17H9.22799L8.19199 9.384H8.20599L7.74399 10.714L4.57999 17H3.52999ZM5.67199 14.536L5.85399 13.612H9.71799L9.80199 14.536H5.67199ZM7.78599 17L7.96799 16.048L9.91399 15.95H10.866L12.714 16.048L12.532 17H7.78599ZM15.8485 20.248C15.1765 20.248 14.5978 20.1827 14.1125 20.052C13.6271 19.9307 13.2585 19.758 13.0065 19.534C12.7451 19.31 12.6145 19.044 12.6145 18.736C12.6145 18.4653 12.7125 18.2273 12.9085 18.022C13.1045 17.8167 13.3845 17.6393 13.7485 17.49C14.1218 17.35 14.5605 17.2427 15.0645 17.168L15.2745 17.336C15.0971 17.4573 14.9478 17.5973 14.8265 17.756C14.7145 17.924 14.6585 18.12 14.6585 18.344C14.6585 18.6427 14.8311 18.8807 15.1765 19.058C15.5218 19.2353 15.9791 19.324 16.5485 19.324C16.9591 19.324 17.2998 19.282 17.5705 19.198C17.8505 19.1233 18.0605 19.0113 18.2005 18.862C18.3498 18.722 18.4245 18.5587 18.4245 18.372C18.4245 18.2413 18.3871 18.1293 18.3125 18.036C18.2378 17.9427 18.1258 17.868 17.9765 17.812C17.8365 17.7653 17.6591 17.7327 17.4445 17.714L15.2325 17.518C15.1765 17.518 15.1205 17.5133 15.0645 17.504C15.0085 17.4947 14.9525 17.4853 14.8965 17.476L14.9385 17.21C14.5091 17.1727 14.1825 17.0513 13.9585 16.846C13.7345 16.6407 13.6225 16.3747 13.6225 16.048C13.6225 15.6373 13.7765 15.3013 14.0845 15.04C14.3925 14.7787 14.8218 14.564 15.3725 14.396L15.4425 14.06L15.9045 14.256C15.7645 14.4147 15.6711 14.5453 15.6245 14.648C15.5778 14.7507 15.5545 14.858 15.5545 14.97C15.5545 15.1007 15.6058 15.2127 15.7085 15.306C15.8205 15.3993 16.0071 15.4553 16.2685 15.474L18.2985 15.642C18.8305 15.6887 19.2645 15.796 19.6005 15.964C19.9458 16.132 20.1978 16.3513 20.3565 16.622C20.5151 16.8833 20.5945 17.182 20.5945 17.518C20.5945 17.9473 20.4731 18.33 20.2305 18.666C19.9878 19.002 19.6471 19.2867 19.2085 19.52C18.7791 19.7627 18.2751 19.9447 17.6965 20.066C17.1271 20.1873 16.5111 20.248 15.8485 20.248ZM16.7585 14.746C16.2171 14.746 15.7551 14.6527 15.3725 14.466C14.9898 14.2793 14.6958 14.0273 14.4905 13.71C14.2945 13.3833 14.1965 13.024 14.1965 12.632C14.1965 12.2493 14.2758 11.8853 14.4345 11.54C14.6025 11.1853 14.8311 10.8773 15.1205 10.616C15.4098 10.3453 15.7505 10.1353 16.1425 9.986C16.5438 9.82733 16.9778 9.748 17.4445 9.748C17.9578 9.748 18.3825 9.83667 18.7185 10.014C19.0545 10.182 19.3065 10.4013 19.4745 10.672C19.6518 10.9427 19.7498 11.2367 19.7685 11.554L19.7965 11.54C19.8618 11.036 19.9645 10.6253 20.1045 10.308C20.2445 9.99067 20.4218 9.762 20.6365 9.622C20.8605 9.482 21.1265 9.412 21.4345 9.412C21.5838 9.412 21.7098 9.426 21.8125 9.454C21.9151 9.482 21.9991 9.51933 22.0645 9.566C22.0925 9.622 22.1158 9.69667 22.1345 9.79C22.1531 9.88333 22.1625 9.98133 22.1625 10.084C22.1625 10.5413 22.0131 10.8867 21.7145 11.12C21.4158 11.3533 20.9165 11.5027 20.2165 11.568L20.5525 10.952C20.5151 11.12 20.4778 11.2787 20.4405 11.428C20.4031 11.5773 20.3658 11.722 20.3285 11.862C20.2911 12.002 20.2445 12.1607 20.1885 12.338C20.1045 12.6833 19.9785 13.0053 19.8105 13.304C19.6518 13.5933 19.4418 13.8453 19.1805 14.06C18.9191 14.2747 18.5925 14.4427 18.2005 14.564C17.8085 14.6853 17.3278 14.746 16.7585 14.746ZM17.2485 14.018C17.3325 14.018 17.4211 13.99 17.5145 13.934C17.6171 13.878 17.7105 13.7847 17.7945 13.654C17.8785 13.5233 17.9438 13.332 17.9905 13.08C18.0465 12.828 18.0745 12.5107 18.0745 12.128C18.0745 11.6053 17.9998 11.1993 17.8505 10.91C17.7105 10.6207 17.5191 10.476 17.2765 10.476C17.1458 10.476 17.0291 10.5227 16.9265 10.616C16.8238 10.7 16.7351 10.8213 16.6605 10.98C16.5858 11.1387 16.5298 11.3347 16.4925 11.568C16.4551 11.792 16.4365 12.044 16.4365 12.324C16.4365 12.5853 16.4598 12.8467 16.5065 13.108C16.5625 13.3693 16.6465 13.5887 16.7585 13.766C16.8798 13.934 17.0431 14.018 17.2485 14.018Z" fill="#888888"/>
</svg>
