<svg width="24" height="24" viewBox="0 0 24 24" fill="none" xmlns="http://www.w3.org/2000/svg">
<path d="M2.59693 16L2.75093 15.244L3.95493 15.076L8.30893 6.802H9.68093L11.0389 15.118L12.1449 15.244L12.0049 16H7.66493L7.81893 15.244L8.96693 15.132L8.68693 13.228H5.70493L4.76693 15.062L5.91493 15.244L5.76093 16H2.59693ZM6.11093 12.416H8.57493L8.02893 8.664L6.11093 12.416ZM16.3119 13.312C16.5732 13.312 16.8019 13.1673 16.9979 12.878C17.2032 12.5793 17.3059 12.038 17.3059 11.254C17.3059 10.7313 17.2312 10.33 17.0819 10.05C16.9326 9.76067 16.7319 9.616 16.4799 9.616C16.1532 9.62533 15.9059 9.812 15.7379 10.176C15.5699 10.54 15.4859 11.0253 15.4859 11.632C15.4859 11.9213 15.5139 12.1967 15.5699 12.458C15.6259 12.71 15.7146 12.9153 15.8359 13.074C15.9572 13.2327 16.1159 13.312 16.3119 13.312ZM13.6519 11.884C13.6519 11.3707 13.7826 10.8993 14.0439 10.47C14.3146 10.0313 14.6786 9.68133 15.1359 9.42C15.5932 9.14933 16.0972 9.014 16.6479 9.014C17.1892 9.014 17.6326 9.14 17.9779 9.392C18.3326 9.644 18.5659 9.94733 18.6779 10.302C18.8366 9.67667 19.0326 9.252 19.2659 9.028C19.5086 8.79467 19.7932 8.678 20.1199 8.678C20.3719 8.678 20.5726 8.72933 20.7219 8.832C20.7499 8.87867 20.7732 8.93 20.7919 8.986C20.8199 9.042 20.8339 9.11667 20.8339 9.21C20.8339 9.61133 20.6939 9.91 20.4139 10.106C20.1339 10.302 19.7139 10.4653 19.1539 10.596C19.1259 10.6987 19.0979 10.806 19.0699 10.918C19.0419 11.0207 19.0139 11.1327 18.9859 11.254C18.7899 12.066 18.4586 12.71 17.9919 13.186C17.5346 13.6527 16.8392 13.886 15.9059 13.886C15.7192 13.886 15.5419 13.872 15.3739 13.844C15.2059 13.8067 15.0472 13.76 14.8979 13.704C14.7952 13.8253 14.7299 13.9233 14.7019 13.998C14.6739 14.0633 14.6599 14.1333 14.6599 14.208C14.6599 14.32 14.7066 14.432 14.7999 14.544C14.8932 14.656 15.0706 14.7213 15.3319 14.74L17.2359 14.922C18.0386 14.9873 18.5892 15.174 18.8879 15.482C19.1959 15.79 19.3499 16.168 19.3499 16.616C19.3499 17.12 19.1492 17.5727 18.7479 17.974C18.3466 18.3753 17.8006 18.6927 17.1099 18.926C16.4192 19.1687 15.6352 19.29 14.7579 19.29C13.9366 19.29 13.2926 19.1687 12.8259 18.926C12.3686 18.6833 12.1399 18.3333 12.1399 17.876C12.1399 17.512 12.2986 17.1853 12.6159 16.896C12.9332 16.616 13.3066 16.378 13.7359 16.182C13.3066 15.986 13.0919 15.6593 13.0919 15.202C13.0919 14.838 13.2132 14.5207 13.4559 14.25C13.6986 13.9793 14.0299 13.7133 14.4499 13.452C14.1886 13.256 13.9879 13.018 13.8479 12.738C13.7172 12.458 13.6519 12.1733 13.6519 11.884ZM13.7219 17.372C13.7219 17.7173 13.8806 17.9833 14.1979 18.17C14.5152 18.366 14.9586 18.464 15.5279 18.464C16.1812 18.464 16.6852 18.366 17.0399 18.17C17.3946 17.9833 17.5719 17.7267 17.5719 17.4C17.5719 17.1573 17.4692 16.9613 17.2639 16.812C17.0679 16.6627 16.7226 16.5647 16.2279 16.518L14.2959 16.336H14.2679C14.0999 16.4853 13.9646 16.644 13.8619 16.812C13.7686 16.98 13.7219 17.1667 13.7219 17.372Z" fill="#333333"/>
</svg>
