<svg width="24" height="24" viewBox="0 0 24 24" fill="none" xmlns="http://www.w3.org/2000/svg">
<path d="M7.37164 11.526L6.41964 13.304H9.61164L9.40164 11.526C9.35497 11.0127 9.29897 10.4993 9.23364 9.986C9.17764 9.46333 9.12631 8.92667 9.07964 8.376H9.02364C8.75297 8.936 8.48231 9.468 8.21164 9.972C7.94097 10.476 7.66097 10.994 7.37164 11.526ZM3.75964 17L8.84164 7.774H9.49964L10.6336 17H10.0316L9.66764 13.794H6.15364L4.43164 17H3.75964ZM13.6056 20.234C13.1202 20.234 12.6909 20.1407 12.3176 19.954C11.9536 19.7673 11.6222 19.5527 11.3236 19.31L11.6456 18.89C11.8976 19.1233 12.1869 19.3193 12.5136 19.478C12.8402 19.646 13.2136 19.73 13.6336 19.73C14.2962 19.73 14.8142 19.5153 15.1876 19.086C15.5702 18.6567 15.8362 18.0827 15.9856 17.364L16.3216 15.796C15.9389 16.1693 15.5422 16.468 15.1316 16.692C14.7302 16.916 14.2962 17.028 13.8296 17.028C13.2509 17.028 12.7796 16.8273 12.4156 16.426C12.0609 16.0153 11.8836 15.418 11.8836 14.634C11.8836 14.0087 11.9862 13.4253 12.1916 12.884C12.3969 12.3333 12.6676 11.8527 13.0036 11.442C13.3396 11.0313 13.7176 10.7093 14.1376 10.476C14.5669 10.2333 15.0056 10.112 15.4536 10.112C15.8456 10.112 16.1862 10.2147 16.4756 10.42C16.7649 10.616 16.9982 10.8773 17.1756 11.204H17.2316L17.4976 10.28H17.9736L16.5036 17.574C16.3356 18.4047 16.0042 19.0533 15.5096 19.52C15.0242 19.996 14.3896 20.234 13.6056 20.234ZM13.9416 16.51C14.3149 16.51 14.7209 16.3887 15.1596 16.146C15.6076 15.9033 16.0229 15.572 16.4056 15.152L17.1056 11.834C16.8536 11.3953 16.5922 11.0827 16.3216 10.896C16.0509 10.7093 15.7569 10.616 15.4396 10.616C15.0569 10.616 14.6882 10.7327 14.3336 10.966C13.9789 11.19 13.6616 11.4887 13.3816 11.862C13.1109 12.226 12.8916 12.6413 12.7236 13.108C12.5556 13.5747 12.4716 14.0507 12.4716 14.536C12.4716 15.1987 12.6022 15.6933 12.8636 16.02C13.1249 16.3467 13.4842 16.51 13.9416 16.51Z" fill="#333333"/>
</svg>
