<svg width="24" height="24" viewBox="0 0 24 24" fill="none" xmlns="http://www.w3.org/2000/svg">
<path d="M7.83676 7.096L6.19876 12.262H9.53076L7.83676 7.096ZM3.59476 16V15.72L4.72876 15.636L7.72476 6.424H8.00476L11.0848 15.65L12.5408 15.72V16H9.06876V15.72L10.6508 15.636L9.62876 12.542H6.11476L5.13476 15.65L6.36676 15.72V16H3.59476ZM15.7685 13.592C16.3192 13.592 16.7719 13.4007 17.1265 13.018C17.4812 12.6353 17.6585 12.1453 17.6585 11.548C17.6585 10.9413 17.4812 10.4513 17.1265 10.078C16.7719 9.70467 16.3192 9.518 15.7685 9.518C15.2179 9.518 14.7652 9.70467 14.4105 10.078C14.0559 10.4513 13.8785 10.9413 13.8785 11.548C13.8785 12.1453 14.0559 12.6353 14.4105 13.018C14.7652 13.4007 15.2179 13.592 15.7685 13.592ZM15.7685 13.872C15.3859 13.872 15.0312 13.7973 14.7045 13.648C14.4619 13.9 14.2752 14.124 14.1445 14.32C14.0139 14.5067 13.9485 14.712 13.9485 14.936C13.9485 15.1413 14.0512 15.314 14.2565 15.454C14.4619 15.594 14.7979 15.664 15.2645 15.664H17.2665C17.8452 15.664 18.2885 15.7947 18.5965 16.056C18.9139 16.3267 19.0725 16.7233 19.0725 17.246C19.0725 17.61 18.9605 17.96 18.7365 18.296C18.5125 18.632 18.1719 18.9027 17.7145 19.108C17.2572 19.3227 16.6785 19.43 15.9785 19.43C15.1012 19.43 14.4059 19.2527 13.8925 18.898C13.3885 18.5527 13.1365 18.1047 13.1365 17.554C13.1365 17.1807 13.2485 16.8587 13.4725 16.588C13.6965 16.3173 13.9672 16.0933 14.2845 15.916C14.0792 15.8413 13.9065 15.7293 13.7665 15.58C13.6359 15.4307 13.5705 15.2487 13.5705 15.034C13.5705 14.726 13.6592 14.46 13.8365 14.236C14.0139 14.0027 14.2332 13.7693 14.4945 13.536C14.1772 13.34 13.9252 13.0693 13.7385 12.724C13.5519 12.3787 13.4585 11.9867 13.4585 11.548C13.4585 10.8573 13.6732 10.302 14.1025 9.882C14.5319 9.45267 15.0872 9.238 15.7685 9.238C16.3565 9.238 16.8465 9.39667 17.2385 9.714L18.8765 9.336L19.0865 9.476V9.91H17.4625C17.8732 10.3393 18.0785 10.8853 18.0785 11.548C18.0785 12.248 17.8592 12.8127 17.4205 13.242C16.9912 13.662 16.4405 13.872 15.7685 13.872ZM13.5565 17.47C13.5565 17.9833 13.7665 18.38 14.1865 18.66C14.6159 18.9493 15.2225 19.094 16.0065 19.094C16.8839 19.094 17.5419 18.9167 17.9805 18.562C18.4285 18.2073 18.6525 17.7733 18.6525 17.26C18.6525 16.9333 18.5499 16.6533 18.3445 16.42C18.1392 16.196 17.7472 16.084 17.1685 16.084H15.4325C15.2832 16.084 15.1292 16.0747 14.9705 16.056C14.8212 16.0467 14.6672 16.0327 14.5085 16.014C14.2005 16.21 13.9625 16.4153 13.7945 16.63C13.6359 16.8447 13.5565 17.1247 13.5565 17.47Z" fill="#888888"/>
</svg>
