<svg width="24" height="24" viewBox="0 0 24 24" fill="none" xmlns="http://www.w3.org/2000/svg">
<path d="M7.45082 12.576L7.29682 13.206H8.97682L8.82282 12.576C8.71082 12.1373 8.59882 11.6613 8.48682 11.148C8.37482 10.6347 8.26282 10.1493 8.15082 9.692H8.09482C7.99215 10.1587 7.88482 10.6487 7.77282 11.162C7.67015 11.666 7.56282 12.1373 7.45082 12.576ZM3.95082 17L6.72282 7.9H9.63482L12.4068 17H9.85882L9.41082 15.068H6.86282L6.41482 17H3.95082ZM15.6266 19.884C15.2253 19.884 14.8473 19.8513 14.4926 19.786C14.1379 19.73 13.8253 19.632 13.5546 19.492C13.2933 19.352 13.0833 19.17 12.9246 18.946C12.7659 18.7313 12.6866 18.4653 12.6866 18.148C12.6866 17.5973 13.0133 17.1493 13.6666 16.804V16.748C13.4799 16.6173 13.3259 16.4587 13.2046 16.272C13.0833 16.0853 13.0226 15.8427 13.0226 15.544C13.0226 15.3013 13.0926 15.0633 13.2326 14.83C13.3726 14.5967 13.5639 14.396 13.8066 14.228V14.172C13.5546 14.004 13.3306 13.766 13.1346 13.458C12.9479 13.15 12.8546 12.7907 12.8546 12.38C12.8546 11.9507 12.9386 11.5773 13.1066 11.26C13.2746 10.9333 13.4986 10.6673 13.7786 10.462C14.0586 10.2473 14.3759 10.0887 14.7306 9.986C15.0946 9.88333 15.4679 9.832 15.8506 9.832C16.2613 9.832 16.6346 9.888 16.9706 10H19.5746V11.736H18.5666C18.5946 11.82 18.6179 11.9273 18.6366 12.058C18.6646 12.1887 18.6786 12.324 18.6786 12.464C18.6786 12.8747 18.6039 13.2293 18.4546 13.528C18.3053 13.8173 18.1046 14.0553 17.8526 14.242C17.6006 14.4287 17.3019 14.5687 16.9566 14.662C16.6113 14.746 16.2426 14.788 15.8506 14.788C15.6173 14.788 15.3559 14.7553 15.0666 14.69C14.9919 14.7553 14.9453 14.816 14.9266 14.872C14.9079 14.9187 14.8986 14.9933 14.8986 15.096C14.8986 15.2547 14.9733 15.3667 15.1226 15.432C15.2719 15.488 15.5239 15.516 15.8786 15.516H16.9286C17.8059 15.516 18.4826 15.6607 18.9586 15.95C19.4439 16.23 19.6866 16.692 19.6866 17.336C19.6866 17.7187 19.5886 18.064 19.3926 18.372C19.2059 18.6893 18.9353 18.96 18.5806 19.184C18.2353 19.408 17.8106 19.5807 17.3066 19.702C16.8119 19.8233 16.2519 19.884 15.6266 19.884ZM15.8506 13.36C16.0746 13.36 16.2566 13.2807 16.3966 13.122C16.5366 12.9633 16.6066 12.716 16.6066 12.38C16.6066 12.0533 16.5366 11.8153 16.3966 11.666C16.2566 11.5073 16.0746 11.428 15.8506 11.428C15.6266 11.428 15.4446 11.5073 15.3046 11.666C15.1646 11.8153 15.0946 12.0533 15.0946 12.38C15.0946 12.716 15.1646 12.9633 15.3046 13.122C15.4446 13.2807 15.6266 13.36 15.8506 13.36ZM16.0186 18.4C16.4106 18.4 16.7373 18.3393 16.9986 18.218C17.2599 18.106 17.3906 17.952 17.3906 17.756C17.3906 17.5693 17.3066 17.4527 17.1386 17.406C16.9799 17.3593 16.7513 17.336 16.4526 17.336H15.9066C15.6266 17.336 15.4119 17.3267 15.2626 17.308C15.1226 17.2987 15.0013 17.28 14.8986 17.252C14.8146 17.336 14.7493 17.4153 14.7026 17.49C14.6653 17.5647 14.6466 17.6533 14.6466 17.756C14.6466 17.98 14.7726 18.1433 15.0246 18.246C15.2766 18.3487 15.6079 18.4 16.0186 18.4Z" fill="#333333"/>
</svg>
