<svg width="24" height="24" viewBox="0 0 24 24" fill="none" xmlns="http://www.w3.org/2000/svg">
<path d="M3.46947 17L6.49347 7.83H8.11747L11.1415 17H9.65747L8.17347 12.002C8.02414 11.498 7.8748 10.994 7.72547 10.49C7.58547 9.97667 7.44547 9.46333 7.30547 8.95H7.24947C7.1188 9.46333 6.9788 9.97667 6.82947 10.49C6.68947 10.994 6.5448 11.498 6.39547 12.002L4.89747 17H3.46947ZM5.16347 14.368V13.262H9.41947V14.368H5.16347ZM15.574 20.094C14.93 20.094 14.37 20.0193 13.894 19.87C13.4273 19.73 13.068 19.52 12.816 19.24C12.564 18.9693 12.438 18.6333 12.438 18.232C12.438 17.952 12.5313 17.6813 12.718 17.42C12.9047 17.168 13.18 16.944 13.544 16.748V16.692C13.3667 16.58 13.2033 16.4353 13.054 16.258C12.914 16.0807 12.844 15.8473 12.844 15.558C12.844 15.334 12.914 15.11 13.054 14.886C13.2033 14.6527 13.404 14.4473 13.656 14.27V14.214C13.4227 14.0367 13.222 13.7987 13.054 13.5C12.886 13.2013 12.802 12.8513 12.802 12.45C12.802 11.9367 12.928 11.498 13.18 11.134C13.4413 10.77 13.7773 10.49 14.188 10.294C14.608 10.0887 15.0653 9.986 15.56 9.986C15.952 9.986 16.2973 10.042 16.596 10.154H19.41V11.246H17.744C17.884 11.3953 18.0007 11.582 18.094 11.806C18.1967 12.0207 18.248 12.2493 18.248 12.492C18.248 12.996 18.1267 13.4207 17.884 13.766C17.6507 14.1113 17.3287 14.3773 16.918 14.564C16.5167 14.7413 16.064 14.83 15.56 14.83C15.392 14.83 15.21 14.8113 15.014 14.774C14.8273 14.7367 14.6407 14.6807 14.454 14.606C14.3047 14.7087 14.188 14.816 14.104 14.928C14.02 15.04 13.978 15.1707 13.978 15.32C13.978 15.5627 14.0947 15.7447 14.328 15.866C14.5613 15.978 14.8973 16.034 15.336 16.034H16.792C17.6787 16.034 18.3413 16.16 18.78 16.412C19.228 16.664 19.452 17.084 19.452 17.672C19.452 18.1107 19.2933 18.512 18.976 18.876C18.6587 19.2493 18.2107 19.5433 17.632 19.758C17.0533 19.982 16.3673 20.094 15.574 20.094ZM15.56 13.934C15.8213 13.934 16.0593 13.878 16.274 13.766C16.4887 13.6447 16.6613 13.472 16.792 13.248C16.9227 13.024 16.988 12.758 16.988 12.45C16.988 12.1513 16.9227 11.8947 16.792 11.68C16.6613 11.456 16.4887 11.2833 16.274 11.162C16.0593 11.0313 15.8213 10.966 15.56 10.966C15.2987 10.966 15.056 11.0313 14.832 11.162C14.6173 11.2833 14.4447 11.456 14.314 11.68C14.1833 11.8947 14.118 12.1513 14.118 12.45C14.118 12.758 14.1833 13.024 14.314 13.248C14.4447 13.472 14.6173 13.6447 14.832 13.766C15.056 13.878 15.2987 13.934 15.56 13.934ZM15.714 19.128C16.2087 19.128 16.6333 19.0673 16.988 18.946C17.3427 18.834 17.6133 18.6847 17.8 18.498C17.996 18.3207 18.094 18.1247 18.094 17.91C18.094 17.602 17.9727 17.3967 17.73 17.294C17.4873 17.2007 17.1233 17.154 16.638 17.154H15.42C15.2053 17.154 15.014 17.1447 14.846 17.126C14.678 17.1073 14.524 17.0793 14.384 17.042C14.0947 17.2007 13.8893 17.364 13.768 17.532C13.656 17.7093 13.6 17.8867 13.6 18.064C13.6 18.3907 13.782 18.6473 14.146 18.834C14.51 19.03 15.0327 19.128 15.714 19.128Z" fill="#888888"/>
</svg>
