<svg width="24" height="24" viewBox="0 0 24 24" fill="none" xmlns="http://www.w3.org/2000/svg">
<path d="M4.5163 16L7.7643 6.774H8.4083L11.6563 16H10.9843L9.1363 10.568C8.94963 10.0173 8.7723 9.49 8.6043 8.986C8.4363 8.47267 8.27296 7.936 8.1143 7.376H8.0583C7.89963 7.936 7.7363 8.47267 7.5683 8.986C7.4003 9.49 7.22296 10.0173 7.0363 10.568L5.1603 16H4.5163ZM6.0003 12.836V12.29H10.1303V12.836H6.0003ZM15.2594 19.234C14.6901 19.234 14.2001 19.1547 13.7894 18.996C13.3788 18.8467 13.0614 18.632 12.8374 18.352C12.6134 18.0813 12.5014 17.7547 12.5014 17.372C12.5014 17.0733 12.5901 16.784 12.7674 16.504C12.9448 16.224 13.1874 15.972 13.4954 15.748V15.692C13.3274 15.5893 13.1874 15.4493 13.0754 15.272C12.9634 15.0947 12.9074 14.8753 12.9074 14.614C12.9074 14.3153 12.9914 14.0633 13.1594 13.858C13.3274 13.6433 13.4861 13.4847 13.6354 13.382V13.326C13.4301 13.1393 13.2388 12.8873 13.0614 12.57C12.8841 12.2433 12.7954 11.8793 12.7954 11.478C12.7954 11.0207 12.8981 10.6147 13.1034 10.26C13.3181 9.896 13.6028 9.616 13.9574 9.42C14.3214 9.21467 14.7228 9.112 15.1614 9.112C15.3481 9.112 15.5161 9.13067 15.6654 9.168C15.8241 9.196 15.9501 9.23333 16.0434 9.28H18.3254V9.798H16.7574V9.854C16.9628 10.022 17.1354 10.2413 17.2754 10.512C17.4248 10.7827 17.4994 11.1093 17.4994 11.492C17.4994 11.9493 17.3921 12.3553 17.1774 12.71C16.9721 13.0647 16.6921 13.3447 16.3374 13.55C15.9921 13.7553 15.6001 13.858 15.1614 13.858C14.9654 13.858 14.7694 13.8347 14.5734 13.788C14.3774 13.732 14.2001 13.662 14.0414 13.578C13.9014 13.69 13.7754 13.8253 13.6634 13.984C13.5514 14.1333 13.4954 14.32 13.4954 14.544C13.4954 14.7867 13.5841 14.9967 13.7614 15.174C13.9481 15.342 14.2888 15.426 14.7834 15.426H16.2254C16.9814 15.426 17.5368 15.552 17.8914 15.804C18.2554 16.0467 18.4374 16.434 18.4374 16.966C18.4374 17.3487 18.3068 17.7127 18.0454 18.058C17.7841 18.4033 17.4154 18.6833 16.9394 18.898C16.4634 19.122 15.9034 19.234 15.2594 19.234ZM15.1614 13.368C15.4694 13.368 15.7541 13.2887 16.0154 13.13C16.2768 12.9713 16.4868 12.752 16.6454 12.472C16.8134 12.1827 16.8974 11.8513 16.8974 11.478C16.8974 10.8993 16.7248 10.4467 16.3794 10.12C16.0434 9.784 15.6374 9.616 15.1614 9.616C14.6854 9.616 14.2748 9.784 13.9294 10.12C13.5841 10.4467 13.4114 10.8993 13.4114 11.478C13.4114 11.8513 13.4908 12.1827 13.6494 12.472C13.8174 12.752 14.0321 12.9713 14.2934 13.13C14.5548 13.2887 14.8441 13.368 15.1614 13.368ZM15.3294 18.73C15.8334 18.73 16.2674 18.646 16.6314 18.478C17.0048 18.3193 17.2941 18.1093 17.4994 17.848C17.7048 17.5867 17.8074 17.316 17.8074 17.036C17.8074 16.6627 17.6721 16.3967 17.4014 16.238C17.1401 16.0887 16.7574 16.014 16.2534 16.014H14.8114C14.7461 16.014 14.6341 16.0047 14.4754 15.986C14.3168 15.9673 14.1488 15.9393 13.9714 15.902C13.6634 16.1073 13.4394 16.3313 13.2994 16.574C13.1594 16.826 13.0894 17.0733 13.0894 17.316C13.0894 17.736 13.2854 18.0767 13.6774 18.338C14.0694 18.5993 14.6201 18.73 15.3294 18.73Z" fill="#888888"/>
</svg>
