<svg width="24" height="24" viewBox="0 0 24 24" fill="none" xmlns="http://www.w3.org/2000/svg">
<path d="M3.48259 17L8.29859 7.872H10.5946L11.5046 17H9.50259L9.26459 12.058C9.24592 11.6007 9.22259 11.1527 9.19459 10.714C9.17592 10.2753 9.16192 9.818 9.15259 9.342H9.09659C8.90059 9.80867 8.70925 10.266 8.52259 10.714C8.33592 11.1527 8.13525 11.6007 7.92059 12.058L5.58259 17H3.48259ZM5.87659 14.704L6.22659 13.262H10.3986L10.0626 14.704H5.87659ZM14.4848 19.842C14.0835 19.842 13.6588 19.7673 13.2108 19.618C12.7628 19.478 12.3428 19.226 11.9508 18.862L12.7628 17.672C13.0242 17.8587 13.3042 18.0127 13.6028 18.134C13.9108 18.2553 14.2235 18.316 14.5408 18.316C14.9795 18.316 15.3435 18.1993 15.6328 17.966C15.9222 17.742 16.1228 17.42 16.2348 17L16.5988 15.768C16.2908 16.0947 15.9548 16.3467 15.5908 16.524C15.2268 16.692 14.8535 16.776 14.4708 16.776C13.8828 16.776 13.3975 16.5753 13.0148 16.174C12.6322 15.7727 12.4408 15.166 12.4408 14.354C12.4408 13.7287 12.5388 13.1453 12.7348 12.604C12.9402 12.0627 13.2108 11.5913 13.5468 11.19C13.8922 10.7793 14.2795 10.462 14.7088 10.238C15.1382 10.0047 15.5908 9.888 16.0668 9.888C16.3842 9.888 16.6782 9.972 16.9488 10.14C17.2195 10.2987 17.4202 10.518 17.5508 10.798H17.5928L17.8868 10.056H19.4408L18.0688 16.888C17.8728 17.8867 17.4668 18.6287 16.8508 19.114C16.2348 19.5993 15.4462 19.842 14.4848 19.842ZM15.2128 15.208C15.4368 15.208 15.6842 15.1473 15.9548 15.026C16.2255 14.8953 16.4682 14.662 16.6828 14.326L17.1168 12.114C16.9955 11.8807 16.8555 11.7127 16.6968 11.61C16.5382 11.498 16.3748 11.442 16.2068 11.442C15.9642 11.442 15.7355 11.512 15.5208 11.652C15.3155 11.7827 15.1288 11.9693 14.9608 12.212C14.7928 12.4547 14.6622 12.7393 14.5688 13.066C14.4755 13.3833 14.4288 13.7287 14.4288 14.102C14.4288 14.4847 14.4988 14.7647 14.6388 14.942C14.7882 15.1193 14.9795 15.208 15.2128 15.208Z" fill="#888888"/>
</svg>
