<svg width="24" height="24" viewBox="0 0 24 24" fill="none" xmlns="http://www.w3.org/2000/svg">
<path d="M6.57747 11.4L5.51347 13.304H9.02747L8.78947 11.456C8.7148 10.924 8.6448 10.3827 8.57947 9.832C8.52347 9.28133 8.45814 8.74467 8.38347 8.222H8.31347C8.00547 8.782 7.71147 9.314 7.43147 9.818C7.1608 10.322 6.87614 10.8493 6.57747 11.4ZM2.99347 17L8.22947 7.76H8.64947L9.93747 17H9.51747L9.08347 13.668H5.30347L3.44147 17H2.99347ZM14.244 20.276C13.74 20.276 13.2873 20.2013 12.886 20.052C12.4847 19.9027 12.144 19.716 11.864 19.492L12.116 19.184C12.396 19.4267 12.732 19.6087 13.124 19.73C13.516 19.8513 13.908 19.912 14.3 19.912C15.056 19.912 15.6907 19.7113 16.204 19.31C16.7173 18.918 17.044 18.344 17.184 17.588L17.52 15.824H17.464C17.0813 16.188 16.6613 16.4913 16.204 16.734C15.7467 16.9673 15.28 17.084 14.804 17.084C14.0853 17.084 13.5067 16.874 13.068 16.454C12.6387 16.0247 12.424 15.3947 12.424 14.564C12.424 13.9853 12.5173 13.43 12.704 12.898C12.8907 12.3567 13.152 11.8853 13.488 11.484C13.824 11.0733 14.2207 10.7467 14.678 10.504C15.1353 10.2613 15.6347 10.14 16.176 10.14C16.68 10.14 17.1187 10.2427 17.492 10.448C17.8747 10.6533 18.1733 10.924 18.388 11.26H18.444L18.696 10.308H19.032L17.548 17.728C17.38 18.5773 16.9973 19.212 16.4 19.632C15.8027 20.0613 15.084 20.276 14.244 20.276ZM14.832 16.72C15.28 16.72 15.7467 16.5893 16.232 16.328C16.7173 16.0573 17.184 15.684 17.632 15.208L18.36 11.792C18.052 11.3253 17.7113 10.994 17.338 10.798C16.9647 10.602 16.568 10.504 16.148 10.504C15.672 10.504 15.2287 10.6207 14.818 10.854C14.4167 11.078 14.0667 11.3767 13.768 11.75C13.4693 12.1233 13.236 12.548 13.068 13.024C12.9 13.5 12.816 13.9853 12.816 14.48C12.816 15.236 12.998 15.8007 13.362 16.174C13.726 16.538 14.216 16.72 14.832 16.72Z" fill="#333333"/>
</svg>
