<svg width="24" height="24" viewBox="0 0 24 24" fill="none" xmlns="http://www.w3.org/2000/svg">
<path d="M8.39089 11.722L7.57889 13.29H10.3089L10.1689 11.722C10.1316 11.2367 10.0896 10.7467 10.0429 10.252C9.99622 9.75733 9.95422 9.24867 9.91689 8.726H9.86089C9.61822 9.258 9.37556 9.76667 9.13289 10.252C8.89956 10.728 8.65222 11.218 8.39089 11.722ZM4.47089 17L9.45489 7.816H10.7149L11.7789 17H10.6449L10.3929 14.13H7.14489L5.67489 17H4.47089ZM14.7436 20.08C14.2863 20.08 13.8569 19.9913 13.4556 19.814C13.0543 19.6367 12.6903 19.4127 12.3636 19.142L12.8676 18.4C13.1289 18.6147 13.4183 18.8013 13.7356 18.96C14.0623 19.1187 14.4123 19.198 14.7856 19.198C15.3643 19.198 15.8263 19.0207 16.1716 18.666C16.5169 18.3113 16.7549 17.8353 16.8856 17.238L17.2356 15.782C16.8809 16.1367 16.5076 16.4167 16.1156 16.622C15.7236 16.8273 15.3083 16.93 14.8696 16.93C14.3003 16.93 13.8289 16.7293 13.4556 16.328C13.0823 15.9267 12.8956 15.3293 12.8956 14.536C12.8956 13.9107 12.9936 13.3273 13.1896 12.786C13.3949 12.2447 13.6656 11.7687 14.0016 11.358C14.3469 10.938 14.7343 10.6113 15.1636 10.378C15.5929 10.1447 16.0363 10.028 16.4936 10.028C16.8483 10.028 17.1703 10.1213 17.4596 10.308C17.7489 10.4947 17.9729 10.742 18.1316 11.05H18.1736L18.4396 10.196H19.3216L17.8936 17.322C17.7163 18.2087 17.3569 18.89 16.8156 19.366C16.2836 19.842 15.5929 20.08 14.7436 20.08ZM15.2196 16.034C15.5463 16.034 15.8963 15.936 16.2696 15.74C16.6523 15.5347 17.0023 15.236 17.3196 14.844L17.9216 11.932C17.7163 11.5773 17.4969 11.3207 17.2636 11.162C17.0396 11.0033 16.7969 10.924 16.5356 10.924C16.2089 10.924 15.8916 11.022 15.5836 11.218C15.2849 11.4047 15.0143 11.6613 14.7716 11.988C14.5383 12.3147 14.3516 12.6833 14.2116 13.094C14.0716 13.5047 14.0016 13.934 14.0016 14.382C14.0016 14.9327 14.1089 15.348 14.3236 15.628C14.5476 15.8987 14.8463 16.034 15.2196 16.034Z" fill="#888888"/>
</svg>
