<svg width="24" height="24" viewBox="0 0 24 24" fill="none" xmlns="http://www.w3.org/2000/svg">
<path d="M6.39547 12.002L6.01747 13.262H8.55147L8.17347 12.002C8.02414 11.498 7.8748 10.994 7.72547 10.49C7.57614 9.986 7.43614 9.47267 7.30547 8.95H7.24947C7.1188 9.47267 6.9788 9.986 6.82947 10.49C6.68947 10.994 6.5448 11.498 6.39547 12.002ZM3.46947 17L6.49347 7.83H8.11747L11.1415 17H9.65747L8.87347 14.368H5.68147L4.89747 17H3.46947ZM15.574 20.094C14.594 20.094 13.824 19.9353 13.264 19.618C12.7133 19.3007 12.438 18.8387 12.438 18.232C12.438 17.6533 12.8067 17.1587 13.544 16.748V16.692C13.3573 16.5893 13.194 16.4493 13.054 16.272C12.914 16.0853 12.844 15.8473 12.844 15.558C12.844 15.334 12.914 15.11 13.054 14.886C13.2033 14.6527 13.404 14.4473 13.656 14.27V14.214C13.4133 14.0367 13.208 13.8033 13.04 13.514C12.8813 13.2153 12.802 12.8607 12.802 12.45C12.802 12.0673 12.8767 11.7267 13.026 11.428C13.1753 11.12 13.376 10.8587 13.628 10.644C13.88 10.4293 14.1693 10.266 14.496 10.154C14.832 10.042 15.1867 9.986 15.56 9.986C15.9427 9.986 16.288 10.042 16.596 10.154H19.41V11.246H17.744C17.8747 11.3953 17.9913 11.582 18.094 11.806C18.1967 12.0207 18.248 12.2493 18.248 12.492C18.248 12.8653 18.178 13.1967 18.038 13.486C17.898 13.7753 17.7067 14.0227 17.464 14.228C17.2213 14.424 16.9367 14.5733 16.61 14.676C16.2833 14.7787 15.9333 14.83 15.56 14.83C15.392 14.83 15.21 14.8113 15.014 14.774C14.8273 14.7367 14.6407 14.6807 14.454 14.606C14.1367 14.8113 13.978 15.0493 13.978 15.32C13.978 15.796 14.4307 16.034 15.336 16.034H16.792C17.688 16.034 18.3553 16.16 18.794 16.412C19.2327 16.664 19.452 17.084 19.452 17.672C19.452 18.008 19.3587 18.3207 19.172 18.61C18.9947 18.9087 18.738 19.1653 18.402 19.38C18.066 19.604 17.6553 19.7767 17.17 19.898C16.694 20.0287 16.162 20.094 15.574 20.094ZM15.56 13.934C15.952 13.934 16.288 13.8033 16.568 13.542C16.848 13.2807 16.988 12.9167 16.988 12.45C16.988 12.002 16.848 11.6427 16.568 11.372C16.288 11.1013 15.952 10.966 15.56 10.966C15.168 10.966 14.8273 11.1013 14.538 11.372C14.258 11.6427 14.118 12.002 14.118 12.45C14.118 12.9167 14.258 13.2807 14.538 13.542C14.8273 13.8033 15.168 13.934 15.56 13.934ZM15.714 19.128C16.078 19.128 16.4047 19.0907 16.694 19.016C16.9927 18.9507 17.2447 18.862 17.45 18.75C17.6553 18.638 17.814 18.5073 17.926 18.358C18.038 18.218 18.094 18.0687 18.094 17.91C18.094 17.6113 17.9727 17.4107 17.73 17.308C17.4873 17.2053 17.1233 17.154 16.638 17.154H15.42C15.2053 17.154 15.014 17.1447 14.846 17.126C14.678 17.1167 14.524 17.0887 14.384 17.042C14.0947 17.2007 13.8893 17.364 13.768 17.532C13.656 17.7093 13.6 17.8867 13.6 18.064C13.6 18.3907 13.782 18.6473 14.146 18.834C14.51 19.03 15.0327 19.128 15.714 19.128Z" fill="#333333"/>
</svg>
