<svg width="24" height="24" viewBox="0 0 24 24" fill="none" xmlns="http://www.w3.org/2000/svg">
<path d="M4.10547 17L6.84947 7.9H9.76147L12.5055 17H9.95747L8.93547 12.576C8.84214 12.1373 8.7348 11.6613 8.61347 11.148C8.49214 10.6347 8.38014 10.1493 8.27747 9.692H8.22147C8.12814 10.1493 8.02547 10.6347 7.91347 11.148C7.80147 11.6613 7.69414 12.1373 7.59147 12.576L6.56947 17H4.10547ZM6.07947 15.068V13.206H10.5035V15.068H6.07947ZM16.266 19.884C15.6873 19.884 15.16 19.8233 14.684 19.702C14.208 19.59 13.8253 19.408 13.536 19.156C13.256 18.904 13.116 18.568 13.116 18.148C13.116 17.8587 13.2047 17.602 13.382 17.378C13.5687 17.1633 13.8347 16.972 14.18 16.804V16.748C13.984 16.6173 13.816 16.4587 13.676 16.272C13.5453 16.076 13.48 15.8333 13.48 15.544C13.48 15.3013 13.5593 15.0633 13.718 14.83C13.8767 14.5967 14.0773 14.396 14.32 14.228V14.172C14.0587 14.004 13.8347 13.766 13.648 13.458C13.4613 13.1407 13.368 12.7813 13.368 12.38C13.368 11.8013 13.5127 11.3253 13.802 10.952C14.0913 10.5693 14.4693 10.2893 14.936 10.112C15.412 9.92533 15.9207 9.832 16.462 9.832C16.91 9.832 17.3067 9.888 17.652 10H20.48V11.736H19.22C19.2667 11.82 19.3087 11.9273 19.346 12.058C19.3927 12.1887 19.416 12.324 19.416 12.464C19.416 13.0147 19.2853 13.4627 19.024 13.808C18.7627 14.144 18.408 14.3913 17.96 14.55C17.5213 14.7087 17.022 14.788 16.462 14.788C16.3407 14.788 16.2053 14.7833 16.056 14.774C15.9067 14.7553 15.748 14.7273 15.58 14.69C15.496 14.7553 15.4353 14.816 15.398 14.872C15.37 14.9187 15.356 14.9933 15.356 15.096C15.356 15.2453 15.44 15.3527 15.608 15.418C15.776 15.4833 16.056 15.516 16.448 15.516H17.638C18.562 15.516 19.276 15.6607 19.78 15.95C20.2933 16.23 20.55 16.692 20.55 17.336C20.55 17.84 20.3727 18.2833 20.018 18.666C19.6727 19.0487 19.178 19.3473 18.534 19.562C17.8993 19.7767 17.1433 19.884 16.266 19.884ZM16.462 13.36C16.6207 13.36 16.7607 13.3273 16.882 13.262C17.0127 13.1873 17.1153 13.08 17.19 12.94C17.274 12.7907 17.316 12.604 17.316 12.38C17.316 12.1653 17.274 11.988 17.19 11.848C17.1153 11.708 17.0127 11.6053 16.882 11.54C16.7607 11.4653 16.6207 11.428 16.462 11.428C16.3127 11.428 16.1727 11.4653 16.042 11.54C15.9113 11.6053 15.8087 11.708 15.734 11.848C15.6593 11.988 15.622 12.1653 15.622 12.38C15.622 12.604 15.6593 12.7907 15.734 12.94C15.8087 13.08 15.9113 13.1873 16.042 13.262C16.1727 13.3273 16.3127 13.36 16.462 13.36ZM16.644 18.4C16.9613 18.4 17.2413 18.372 17.484 18.316C17.7267 18.2693 17.918 18.1947 18.058 18.092C18.198 17.9987 18.268 17.8867 18.268 17.756C18.268 17.5693 18.1747 17.4527 17.988 17.406C17.8013 17.3593 17.5307 17.336 17.176 17.336H16.476C16.2053 17.336 15.9907 17.3267 15.832 17.308C15.6733 17.2987 15.5333 17.28 15.412 17.252C15.2907 17.336 15.202 17.4153 15.146 17.49C15.09 17.5647 15.062 17.6533 15.062 17.756C15.062 17.98 15.2067 18.1433 15.496 18.246C15.7947 18.3487 16.1773 18.4 16.644 18.4Z" fill="#888888"/>
</svg>
