<svg width="24" height="24" viewBox="0 0 24 24" fill="none" xmlns="http://www.w3.org/2000/svg">
<path d="M8.37164 11.526L7.41964 13.304H10.6116L10.4016 11.526C10.355 11.0127 10.299 10.4947 10.2336 9.972C10.1776 9.44933 10.1263 8.91733 10.0796 8.376H10.0236C9.75297 8.936 9.48231 9.468 9.21164 9.972C8.94097 10.476 8.66097 10.994 8.37164 11.526ZM4.75964 17L9.84164 7.774H10.4996L11.6336 17H11.0316L10.6676 13.794H7.15364L5.43164 17H4.75964ZM14.6056 20.22C14.1296 20.22 13.7049 20.1267 13.3316 19.94C12.9676 19.7533 12.6362 19.5387 12.3376 19.296L12.6596 18.862C12.9116 19.0953 13.2009 19.296 13.5276 19.464C13.8636 19.632 14.2369 19.716 14.6476 19.716C15.3009 19.716 15.8142 19.5013 16.1876 19.072C16.5702 18.6427 16.8362 18.0733 16.9856 17.364L17.3216 15.796C16.9482 16.1693 16.5562 16.468 16.1456 16.692C15.7349 16.916 15.2962 17.028 14.8296 17.028C14.2602 17.028 13.7936 16.8227 13.4296 16.412C13.0656 16.0013 12.8836 15.4087 12.8836 14.634C12.8836 14.0087 12.9816 13.4253 13.1776 12.884C13.3829 12.3333 13.6536 11.8527 13.9896 11.442C14.3349 11.022 14.7176 10.6953 15.1376 10.462C15.5669 10.2287 16.0056 10.112 16.4536 10.112C16.8362 10.112 17.1722 10.2147 17.4616 10.42C17.7602 10.616 17.9982 10.8773 18.1756 11.204H18.2316L18.4976 10.28H18.9736L17.5036 17.574C17.3356 18.3953 17.0042 19.0393 16.5096 19.506C16.0242 19.982 15.3896 20.22 14.6056 20.22ZM14.9416 16.51C15.3149 16.51 15.7256 16.3887 16.1736 16.146C16.6216 15.9033 17.0322 15.572 17.4056 15.152L18.1056 11.834C17.8442 11.3953 17.5782 11.0827 17.3076 10.896C17.0462 10.7093 16.7569 10.616 16.4396 10.616C16.0662 10.616 15.7022 10.728 15.3476 10.952C14.9929 11.176 14.6709 11.4793 14.3816 11.862C14.1016 12.2353 13.8776 12.6553 13.7096 13.122C13.5509 13.5793 13.4716 14.0507 13.4716 14.536C13.4716 15.1893 13.6022 15.684 13.8636 16.02C14.1249 16.3467 14.4842 16.51 14.9416 16.51Z" fill="#888888"/>
</svg>
