<svg width="24" height="24" viewBox="0 0 24 24" fill="none" xmlns="http://www.w3.org/2000/svg">
<path d="M7.40232 11.89L6.71632 13.276H9.05432L8.95632 11.89C8.92832 11.414 8.89565 10.9473 8.85832 10.49C8.83032 10.0327 8.80699 9.552 8.78832 9.048H8.73232C8.50832 9.552 8.28899 10.0327 8.07432 10.49C7.86899 10.9473 7.64499 11.414 7.40232 11.89ZM3.21632 17L8.11632 7.844H9.90832L10.8883 17H9.32032L9.13832 14.424H6.15632L4.88232 17H3.21632ZM13.8185 20.052C13.3798 20.052 12.9458 19.968 12.5165 19.8C12.0965 19.632 11.7045 19.3987 11.3405 19.1L12.0125 18.092C12.2738 18.3067 12.5585 18.484 12.8665 18.624C13.1745 18.7733 13.5058 18.848 13.8605 18.848C14.3831 18.848 14.8031 18.694 15.1205 18.386C15.4471 18.0873 15.6805 17.6627 15.8205 17.112L16.1705 15.782C15.8438 16.118 15.4891 16.384 15.1065 16.58C14.7331 16.7667 14.3411 16.86 13.9305 16.86C13.3518 16.86 12.8711 16.6593 12.4885 16.258C12.1151 15.8473 11.9285 15.2407 11.9285 14.438C11.9285 13.8127 12.0265 13.2293 12.2225 12.688C12.4278 12.1467 12.6985 11.6753 13.0345 11.274C13.3705 10.8633 13.7531 10.5413 14.1825 10.308C14.6211 10.0747 15.0738 9.958 15.5405 9.958C15.8765 9.958 16.1798 10.0467 16.4505 10.224C16.7305 10.392 16.9451 10.6253 17.0945 10.924H17.1365L17.4305 10.126H18.6485L17.2485 17.098C17.0525 18.0687 16.6605 18.8013 16.0725 19.296C15.4845 19.8 14.7331 20.052 13.8185 20.052ZM14.4765 15.614C14.7471 15.614 15.0411 15.5347 15.3585 15.376C15.6851 15.208 15.9838 14.942 16.2545 14.578L16.7725 12.03C16.6138 11.7313 16.4365 11.5167 16.2405 11.386C16.0445 11.2553 15.8391 11.19 15.6245 11.19C15.3445 11.19 15.0738 11.274 14.8125 11.442C14.5605 11.6007 14.3318 11.82 14.1265 12.1C13.9305 12.38 13.7718 12.7067 13.6505 13.08C13.5385 13.444 13.4825 13.8313 13.4825 14.242C13.4825 14.7087 13.5711 15.054 13.7485 15.278C13.9351 15.502 14.1778 15.614 14.4765 15.614Z" fill="#333333"/>
</svg>
