<svg width="24" height="24" viewBox="0 0 24 24" fill="none" xmlns="http://www.w3.org/2000/svg">
<path d="M7.08344 8.944L5.92144 12.514H8.21744L7.08344 8.944ZM3.14944 16V15.244L4.28344 15.076L7.12544 6.788H8.56744L11.4374 15.174L12.2914 15.272V16H7.96544V15.272L9.04344 15.132L8.46944 13.326H5.65544L5.09544 15.076L6.15944 15.244V16H3.14944ZM15.805 12.864C16.1317 12.864 16.3743 12.7193 16.533 12.43C16.701 12.1407 16.785 11.7487 16.785 11.254C16.785 10.7593 16.701 10.3767 16.533 10.106C16.3743 9.826 16.141 9.686 15.833 9.686C15.5157 9.686 15.2777 9.826 15.119 10.106C14.9603 10.386 14.881 10.7733 14.881 11.268C14.881 11.7627 14.9557 12.1547 15.105 12.444C15.2543 12.724 15.4877 12.864 15.805 12.864ZM13.943 17.162C13.943 17.5727 14.097 17.8713 14.405 18.058C14.713 18.254 15.1843 18.352 15.819 18.352C16.519 18.352 17.0463 18.2493 17.401 18.044C17.7557 17.8387 17.933 17.582 17.933 17.274C17.933 17.0687 17.8583 16.882 17.709 16.714C17.5597 16.5553 17.2937 16.476 16.911 16.476H15.441C14.9277 16.476 14.503 16.434 14.167 16.35C14.0923 16.4807 14.0363 16.6067 13.999 16.728C13.9617 16.8493 13.943 16.994 13.943 17.162ZM15.819 13.522C15.3337 13.522 14.909 13.466 14.545 13.354C14.433 13.55 14.377 13.7647 14.377 13.998C14.377 14.1567 14.4377 14.2873 14.559 14.39C14.6803 14.4833 14.8903 14.53 15.189 14.53H16.827C17.5363 14.53 18.101 14.6187 18.521 14.796C18.941 14.964 19.2397 15.202 19.417 15.51C19.6037 15.8087 19.697 16.1633 19.697 16.574C19.697 17.0407 19.543 17.47 19.235 17.862C18.927 18.2633 18.465 18.5807 17.849 18.814C17.2423 19.0567 16.491 19.178 15.595 19.178C14.8203 19.178 14.2137 19.0987 13.775 18.94C13.3363 18.7907 13.0283 18.59 12.851 18.338C12.6737 18.086 12.585 17.82 12.585 17.54C12.585 16.9427 12.9723 16.462 13.747 16.098C13.4577 15.9767 13.2477 15.818 13.117 15.622C12.9957 15.426 12.935 15.2113 12.935 14.978C12.935 14.6513 13.0283 14.3433 13.215 14.054C13.411 13.7553 13.6817 13.4567 14.027 13.158C13.6443 12.962 13.3597 12.7007 13.173 12.374C12.9863 12.0473 12.893 11.6833 12.893 11.282C12.893 10.6287 13.131 10.0873 13.607 9.658C14.0923 9.22867 14.8297 9.014 15.819 9.014C16.323 9.014 16.7617 9.07 17.135 9.182C17.5083 9.294 17.8117 9.45267 18.045 9.658L19.613 8.986L19.837 9.126V10.204H18.507C18.675 10.512 18.759 10.8713 18.759 11.282C18.759 11.9073 18.5163 12.4393 18.031 12.878C17.555 13.3073 16.8177 13.522 15.819 13.522Z" fill="#333333"/>
</svg>
