<svg width="24" height="24" viewBox="0 0 24 24" fill="none" xmlns="http://www.w3.org/2000/svg">
<path d="M4.43196 16L7.41396 6.844H9.31796L12.3 16H10.592L9.19196 11.128C9.04263 10.6427 8.89796 10.1433 8.75796 9.63C8.62729 9.11667 8.49663 8.608 8.36596 8.104H8.30996C8.18863 8.61733 8.05796 9.13067 7.91796 9.644C7.78729 10.148 7.64729 10.6427 7.49796 11.128L6.08396 16H4.43196ZM6.19596 13.522V12.248H10.508V13.522H6.19596ZM15.6826 19.038C15.1319 19.038 14.6419 18.9727 14.2126 18.842C13.7833 18.7113 13.4426 18.5107 13.1906 18.24C12.9479 17.9787 12.8266 17.6473 12.8266 17.246C12.8266 16.9567 12.9106 16.686 13.0786 16.434C13.2559 16.1913 13.4986 15.972 13.8066 15.776V15.72C13.6386 15.608 13.4939 15.4587 13.3726 15.272C13.2513 15.0853 13.1906 14.852 13.1906 14.572C13.1906 14.3107 13.2653 14.068 13.4146 13.844C13.5733 13.62 13.7506 13.438 13.9466 13.298V13.242C13.7133 13.0647 13.5033 12.8173 13.3166 12.5C13.1393 12.1827 13.0506 11.8233 13.0506 11.422C13.0506 10.8993 13.1766 10.456 13.4286 10.092C13.6806 9.71867 14.0119 9.43867 14.4226 9.252C14.8333 9.056 15.2813 8.958 15.7666 8.958C15.9533 8.958 16.1353 8.972 16.3126 9C16.4899 9.028 16.6439 9.07 16.7746 9.126H19.2386V10.316H17.9506V10.372C18.0813 10.512 18.1839 10.6753 18.2586 10.862C18.3333 11.0393 18.3706 11.2493 18.3706 11.492C18.3706 11.996 18.2539 12.4207 18.0206 12.766C17.7873 13.1113 17.4746 13.3727 17.0826 13.55C16.6906 13.7273 16.2519 13.816 15.7666 13.816C15.6173 13.816 15.4633 13.802 15.3046 13.774C15.1459 13.746 14.9873 13.6993 14.8286 13.634C14.7353 13.7273 14.6559 13.8207 14.5906 13.914C14.5253 14.0073 14.4926 14.1333 14.4926 14.292C14.4926 14.488 14.5766 14.642 14.7446 14.754C14.9126 14.866 15.2019 14.922 15.6126 14.922H16.8306C17.6613 14.922 18.2866 15.0573 18.7066 15.328C19.1359 15.5893 19.3506 16.0187 19.3506 16.616C19.3506 17.064 19.2013 17.47 18.9026 17.834C18.6039 18.2073 18.1793 18.5013 17.6286 18.716C17.0779 18.9307 16.4293 19.038 15.6826 19.038ZM15.7666 12.808C15.9813 12.808 16.1773 12.7567 16.3546 12.654C16.5413 12.542 16.6859 12.3833 16.7886 12.178C16.9006 11.9633 16.9566 11.7113 16.9566 11.422C16.9566 10.9833 16.8399 10.6473 16.6066 10.414C16.3826 10.1807 16.1026 10.064 15.7666 10.064C15.4306 10.064 15.1459 10.1807 14.9126 10.414C14.6793 10.6473 14.5626 10.9833 14.5626 11.422C14.5626 11.7113 14.6186 11.9633 14.7306 12.178C14.8426 12.3833 14.9873 12.542 15.1646 12.654C15.3419 12.7567 15.5426 12.808 15.7666 12.808ZM15.9346 17.988C16.2986 17.988 16.6206 17.9367 16.9006 17.834C17.1806 17.7407 17.3999 17.6053 17.5586 17.428C17.7173 17.26 17.7966 17.078 17.7966 16.882C17.7966 16.6113 17.6893 16.4293 17.4746 16.336C17.2693 16.2427 16.9706 16.196 16.5786 16.196H15.6406C15.4539 16.196 15.2859 16.1867 15.1366 16.168C14.9873 16.1493 14.8426 16.126 14.7026 16.098C14.5253 16.238 14.3899 16.3827 14.2966 16.532C14.2126 16.6813 14.1706 16.84 14.1706 17.008C14.1706 17.316 14.3293 17.554 14.6466 17.722C14.9639 17.8993 15.3933 17.988 15.9346 17.988Z" fill="#888888"/>
</svg>
