<svg width="24" height="24" viewBox="0 0 24 24" fill="none" xmlns="http://www.w3.org/2000/svg">
<path d="M3.80169 16L3.85769 15.72L5.00569 15.636L9.72369 6.522H10.0037L11.2637 15.65L12.6917 15.72L12.6357 16H9.16369L9.21969 15.72L10.7877 15.636L10.3817 12.542H6.96569L5.38369 15.636L6.62969 15.72L6.57369 16H3.80169ZM7.10569 12.262H10.3397L9.68169 7.208L7.10569 12.262ZM16.3648 13.662C16.7568 13.662 17.1115 13.55 17.4288 13.326C17.7555 13.0927 18.0122 12.794 18.1988 12.43C18.3948 12.066 18.4928 11.674 18.4928 11.254C18.4928 10.7313 18.3808 10.3113 18.1568 9.994C17.9422 9.67667 17.5688 9.518 17.0368 9.518C16.6355 9.518 16.2715 9.63933 15.9448 9.882C15.6275 10.1247 15.3755 10.4373 15.1888 10.82C15.0022 11.2027 14.9088 11.6087 14.9088 12.038C14.9088 12.5607 15.0302 12.962 15.2728 13.242C15.5155 13.522 15.8795 13.662 16.3648 13.662ZM14.5448 12.122C14.5448 11.5807 14.6568 11.0953 14.8808 10.666C15.1142 10.2273 15.4268 9.882 15.8188 9.63C16.2202 9.36867 16.6635 9.238 17.1488 9.238C17.5595 9.238 17.9048 9.35933 18.1848 9.602C18.4648 9.84467 18.6375 10.1947 18.7028 10.652C18.8055 10.0733 18.9735 9.672 19.2068 9.448C19.4402 9.21467 19.6595 9.098 19.8648 9.098C19.9675 9.098 20.0608 9.112 20.1448 9.14C20.1728 9.17733 20.1868 9.22867 20.1868 9.294C20.1868 9.41533 20.0982 9.532 19.9208 9.644C19.7528 9.756 19.4868 9.87733 19.1228 10.008C19.0575 10.1573 19.0015 10.3253 18.9548 10.512C18.9175 10.6893 18.8802 10.9133 18.8428 11.184C18.7215 12.136 18.4275 12.836 17.9608 13.284C17.4942 13.7227 16.9388 13.942 16.2948 13.942C15.8002 13.942 15.4035 13.8113 15.1048 13.55C14.8248 13.7833 14.6428 13.9933 14.5588 14.18C14.4748 14.3667 14.4328 14.53 14.4328 14.67C14.4328 14.866 14.4935 15.0247 14.6148 15.146C14.7362 15.2673 14.9415 15.3513 15.2308 15.398L17.0928 15.664C17.7928 15.7573 18.2642 15.9253 18.5068 16.168C18.7588 16.42 18.8848 16.7233 18.8848 17.078C18.8848 17.442 18.7448 17.806 18.4648 18.17C18.1942 18.534 17.8022 18.8327 17.2888 19.066C16.7755 19.3087 16.1688 19.43 15.4688 19.43C14.7315 19.43 14.1482 19.2947 13.7188 19.024C13.2988 18.7627 13.0888 18.3613 13.0888 17.82C13.0888 17.3253 13.2615 16.896 13.6068 16.532C13.9615 16.1773 14.3815 15.8927 14.8668 15.678C14.5775 15.6033 14.3768 15.482 14.2648 15.314C14.1622 15.1367 14.1108 14.964 14.1108 14.796C14.1108 14.3107 14.4002 13.8533 14.9788 13.424C14.6895 13.116 14.5448 12.682 14.5448 12.122ZM13.4808 17.75C13.4808 18.1793 13.6535 18.52 13.9988 18.772C14.3535 19.024 14.8668 19.15 15.5388 19.15C16.0802 19.15 16.5748 19.066 17.0228 18.898C17.4708 18.73 17.8302 18.4967 18.1008 18.198C18.3715 17.8993 18.5068 17.5587 18.5068 17.176C18.5068 16.9613 18.4648 16.7747 18.3808 16.616C18.3062 16.4667 18.1522 16.3407 17.9188 16.238C17.6948 16.1353 17.3588 16.0513 16.9108 15.986L15.1328 15.734C14.6102 15.9953 14.2042 16.2847 13.9148 16.602C13.6255 16.9193 13.4808 17.302 13.4808 17.75Z" fill="#333333"/>
</svg>
