<svg width="24" height="24" viewBox="0 0 24 24" fill="none" xmlns="http://www.w3.org/2000/svg">
<path d="M8.40232 11.89L7.71632 13.276H10.0543L9.95632 11.89C9.92832 11.4233 9.89565 10.9567 9.85832 10.49C9.83032 10.0233 9.80699 9.54267 9.78832 9.048H9.73232C9.50832 9.54267 9.28899 10.0233 9.07432 10.49C8.86899 10.9473 8.64499 11.414 8.40232 11.89ZM4.21632 17L9.11632 7.844H10.9083L11.8883 17H10.3203L10.1383 14.424H7.15632L5.88232 17H4.21632ZM14.8745 19.954C14.4451 19.954 14.0158 19.8653 13.5865 19.688C13.1665 19.52 12.7745 19.2913 12.4105 19.002L13.0825 17.98C13.3438 18.1947 13.6285 18.3767 13.9365 18.526C14.2445 18.6753 14.5758 18.75 14.9305 18.75C15.4251 18.75 15.8311 18.6053 16.1485 18.316C16.4751 18.0267 16.6991 17.6253 16.8205 17.112L17.1705 15.782C16.8438 16.118 16.4891 16.384 16.1065 16.58C15.7331 16.7667 15.3411 16.86 14.9305 16.86C14.3518 16.86 13.8711 16.6593 13.4885 16.258C13.1151 15.8473 12.9285 15.2407 12.9285 14.438C12.9285 13.8127 13.0265 13.2293 13.2225 12.688C13.4278 12.1467 13.6985 11.6707 14.0345 11.26C14.3798 10.8493 14.7671 10.532 15.1965 10.308C15.6258 10.0747 16.0738 9.958 16.5405 9.958C16.8765 9.958 17.1798 10.0467 17.4505 10.224C17.7305 10.392 17.9451 10.6253 18.0945 10.924H18.1365L18.4305 10.126H19.6485L18.2485 17.098C18.0618 18.05 17.6791 18.764 17.1005 19.24C16.5218 19.716 15.7798 19.954 14.8745 19.954ZM15.4765 15.614C15.7471 15.614 16.0458 15.5347 16.3725 15.376C16.6991 15.208 16.9931 14.942 17.2545 14.578L17.7725 12.03C17.6138 11.7313 17.4365 11.5167 17.2405 11.386C17.0445 11.2553 16.8391 11.19 16.6245 11.19C16.2511 11.19 15.9011 11.33 15.5745 11.61C15.2478 11.89 14.9818 12.2633 14.7765 12.73C14.5805 13.1873 14.4825 13.6913 14.4825 14.242C14.4825 14.6993 14.5711 15.0447 14.7485 15.278C14.9351 15.502 15.1778 15.614 15.4765 15.614Z" fill="#888888"/>
</svg>
