<svg width="24" height="24" viewBox="0 0 24 24" fill="none" xmlns="http://www.w3.org/2000/svg">
<path d="M2.9322 17L3.1142 16.09L4.4302 15.978H5.0042L6.3062 16.09L6.1382 17H2.9322ZM3.6602 17L8.5182 7.83H10.3942L11.8642 17H9.4282L8.3782 9.286H8.3922L7.9302 10.616L4.6822 17H3.6602ZM5.8302 14.41L6.0122 13.528H9.8762L9.9462 14.41H5.8302ZM7.9722 17L8.1542 16.09L10.0582 15.978H10.9542L12.7602 16.09L12.5922 17H7.9722ZM15.84 20.262C15.1867 20.262 14.622 20.1967 14.146 20.066C13.6793 19.9447 13.32 19.772 13.068 19.548C12.816 19.324 12.69 19.0533 12.69 18.736C12.69 18.4653 12.788 18.218 12.984 17.994C13.18 17.7793 13.46 17.5927 13.824 17.434C14.1973 17.2847 14.636 17.168 15.14 17.084L15.35 17.252C15.126 17.392 14.944 17.5507 14.804 17.728C14.6733 17.9053 14.608 18.1153 14.608 18.358C14.608 18.666 14.7807 18.9133 15.126 19.1C15.4713 19.2867 15.9287 19.38 16.498 19.38C16.918 19.38 17.268 19.3333 17.548 19.24C17.8373 19.156 18.0613 19.0347 18.22 18.876C18.3787 18.7173 18.458 18.5353 18.458 18.33C18.458 18.1993 18.416 18.0827 18.332 17.98C18.2573 17.8773 18.1407 17.798 17.982 17.742C17.8327 17.686 17.6367 17.6487 17.394 17.63L15.294 17.434C15.238 17.4247 15.182 17.4153 15.126 17.406C15.07 17.406 15.0093 17.4013 14.944 17.392L14.986 17.126C14.566 17.0793 14.2487 16.958 14.034 16.762C13.8287 16.5567 13.726 16.3 13.726 15.992C13.726 15.6 13.8707 15.278 14.16 15.026C14.4587 14.774 14.874 14.5687 15.406 14.41L15.462 14.074L15.924 14.256C15.7653 14.424 15.6627 14.564 15.616 14.676C15.5693 14.7787 15.546 14.8907 15.546 15.012C15.546 15.1427 15.5973 15.2593 15.7 15.362C15.8027 15.4553 15.9893 15.5113 16.26 15.53L18.206 15.712C18.7287 15.7493 19.1533 15.852 19.48 16.02C19.816 16.188 20.0633 16.4027 20.222 16.664C20.3807 16.916 20.46 17.21 20.46 17.546C20.46 17.966 20.3387 18.344 20.096 18.68C19.8627 19.016 19.5313 19.3007 19.102 19.534C18.682 19.7767 18.192 19.9587 17.632 20.08C17.072 20.2013 16.4747 20.262 15.84 20.262ZM16.764 14.746C16.2413 14.746 15.7933 14.6527 15.42 14.466C15.0467 14.2793 14.7573 14.0273 14.552 13.71C14.356 13.3927 14.258 13.038 14.258 12.646C14.258 12.2633 14.3373 11.8993 14.496 11.554C14.664 11.2087 14.888 10.9053 15.168 10.644C15.4573 10.3733 15.7933 10.1633 16.176 10.014C16.5587 9.85533 16.9787 9.776 17.436 9.776C17.9307 9.776 18.3367 9.86 18.654 10.028C18.9807 10.196 19.228 10.4153 19.396 10.686C19.5733 10.9473 19.6667 11.2367 19.676 11.554L19.732 11.54C19.7973 11.0453 19.8953 10.644 20.026 10.336C20.166 10.028 20.3387 9.80867 20.544 9.678C20.7587 9.538 21.0153 9.468 21.314 9.468C21.454 9.468 21.5707 9.482 21.664 9.51C21.7667 9.538 21.846 9.57533 21.902 9.622C21.9393 9.66867 21.9673 9.73867 21.986 9.832C22.0047 9.92533 22.014 10.0233 22.014 10.126C22.014 10.5553 21.8647 10.882 21.566 11.106C21.2767 11.33 20.796 11.4793 20.124 11.554L20.46 10.938C20.4227 11.1153 20.3853 11.2787 20.348 11.428C20.3107 11.568 20.2687 11.7127 20.222 11.862C20.1847 12.002 20.138 12.1607 20.082 12.338C19.998 12.674 19.8767 12.9913 19.718 13.29C19.5593 13.5793 19.3493 13.8313 19.088 14.046C18.836 14.2607 18.5187 14.4333 18.136 14.564C17.7533 14.6853 17.296 14.746 16.764 14.746ZM17.212 14.032C17.3147 14.032 17.4173 14.004 17.52 13.948C17.632 13.8827 17.73 13.78 17.814 13.64C17.9073 13.5 17.9773 13.304 18.024 13.052C18.08 12.7907 18.108 12.4687 18.108 12.086C18.108 11.582 18.0333 11.19 17.884 10.91C17.7347 10.6207 17.534 10.476 17.282 10.476C17.142 10.476 17.0113 10.5227 16.89 10.616C16.778 10.7093 16.68 10.84 16.596 11.008C16.5213 11.1667 16.4607 11.3627 16.414 11.596C16.3767 11.8293 16.358 12.0907 16.358 12.38C16.358 12.6507 16.386 12.912 16.442 13.164C16.498 13.416 16.5867 13.626 16.708 13.794C16.8387 13.9527 17.0067 14.032 17.212 14.032Z" fill="#888888"/>
</svg>
