<svg width="24" height="24" viewBox="0 0 24 24" fill="none" xmlns="http://www.w3.org/2000/svg">
<path d="M8.85973 14.9H5.62573L4.72973 17H2.75573L7.06773 7.2H10.4837L10.7217 17H8.88773L8.85973 14.9ZM6.36773 13.136H8.83173L8.76173 8.124H8.50973L6.36773 13.136ZM17.376 15.992H17.124C17.0213 16.1507 16.9047 16.3047 16.774 16.454C16.6433 16.594 16.4847 16.72 16.298 16.832C16.1113 16.944 15.8873 17.0327 15.626 17.098C15.3647 17.1633 15.0613 17.196 14.716 17.196C14.38 17.196 14.0627 17.14 13.764 17.028C13.4747 16.916 13.2227 16.748 13.008 16.524C12.7933 16.3 12.6207 16.02 12.49 15.684C12.3687 15.3387 12.308 14.9373 12.308 14.48C12.308 13.9013 12.392 13.3367 12.56 12.786C12.7373 12.226 12.994 11.7313 13.33 11.302C13.666 10.8633 14.0813 10.5133 14.576 10.252C15.08 9.99067 15.6633 9.86 16.326 9.86C16.8953 9.86 17.3247 9.972 17.614 10.196C17.9127 10.4107 18.0993 10.7 18.174 11.064H18.426L18.636 10.056H20.4L18.566 18.708C18.4913 19.0253 18.3327 19.2867 18.09 19.492C17.8473 19.6973 17.5673 19.8 17.25 19.8H12.938V18.12H16.55C16.802 18.12 16.956 17.98 17.012 17.7L17.376 15.992ZM15.626 15.516C15.962 15.516 16.27 15.446 16.55 15.306C16.8393 15.166 17.0867 14.9793 17.292 14.746C17.5067 14.5127 17.67 14.242 17.782 13.934C17.9033 13.626 17.964 13.304 17.964 12.968C17.964 12.52 17.8333 12.17 17.572 11.918C17.3107 11.666 16.942 11.54 16.466 11.54C16.1113 11.54 15.7893 11.61 15.5 11.75C15.2107 11.89 14.9633 12.0767 14.758 12.31C14.562 12.534 14.408 12.8 14.296 13.108C14.184 13.4067 14.128 13.7147 14.128 14.032C14.128 14.5267 14.2633 14.9 14.534 15.152C14.814 15.3947 15.178 15.516 15.626 15.516Z" fill="#333333"/>
</svg>
