<svg width="24" height="24" viewBox="0 0 24 24" fill="none" xmlns="http://www.w3.org/2000/svg">
<path d="M3.49161 17L6.69761 7.2H8.29361L11.4996 17H10.5616L9.72161 14.396H5.26961L4.42961 17H3.49161ZM5.52161 13.584H9.46961L7.57961 7.732H7.41161L5.52161 13.584ZM12.7866 13.626V13.458C12.7866 12.7393 12.9313 12.1233 13.2206 11.61C13.5193 11.0967 13.916 10.7 14.4106 10.42C14.9053 10.14 15.456 10 16.0626 10C16.8093 10 17.388 10.1493 17.7986 10.448C18.2186 10.7373 18.5266 11.0687 18.7226 11.442H18.8906V10.196H19.6746V18.736C19.6746 19.072 19.586 19.3333 19.4086 19.52C19.2313 19.7067 18.9606 19.8 18.5966 19.8H13.9486V19.044H18.4286C18.718 19.044 18.8626 18.904 18.8626 18.624V15.698H18.6946C18.5733 15.922 18.4006 16.1413 18.1766 16.356C17.962 16.5707 17.682 16.748 17.3366 16.888C16.9913 17.0187 16.5666 17.084 16.0626 17.084C15.456 17.084 14.9006 16.944 14.3966 16.664C13.902 16.384 13.51 15.9873 13.2206 15.474C12.9313 14.9513 12.7866 14.3353 12.7866 13.626ZM16.2586 16.328C17.0333 16.328 17.6586 16.0853 18.1346 15.6C18.62 15.1147 18.8626 14.4473 18.8626 13.598V13.486C18.8626 12.6273 18.62 11.96 18.1346 11.484C17.6586 10.9987 17.0333 10.756 16.2586 10.756C15.4933 10.756 14.868 10.9987 14.3826 11.484C13.8973 11.96 13.6546 12.6273 13.6546 13.486V13.598C13.6546 14.4473 13.8973 15.1147 14.3826 15.6C14.868 16.0853 15.4933 16.328 16.2586 16.328Z" fill="#888888"/>
</svg>
