<svg width="24" height="24" viewBox="0 0 24 24" fill="none" xmlns="http://www.w3.org/2000/svg">
<path d="M2.23505 17L6.74305 5.45H7.24006L11.7481 17H11.1671L9.57106 12.863H4.41205L2.81605 17H2.23505ZM4.60105 12.38H9.38206L6.98805 6.129L4.60105 12.38ZM17.4135 20.85C16.5361 20.85 15.7918 20.6703 15.1805 20.311C14.5738 19.9563 14.1165 19.4407 13.8085 18.764L14.2775 18.568C14.5155 19.128 14.9145 19.5737 15.4745 19.905C16.0391 20.241 16.6901 20.409 17.4275 20.409C18.0341 20.409 18.5801 20.2877 19.0655 20.045C19.5508 19.807 19.9335 19.457 20.2135 18.995C20.4981 18.533 20.6405 17.973 20.6405 17.315V15.236C20.3465 15.8567 19.9195 16.3443 19.3595 16.699C18.8041 17.049 18.1765 17.224 17.4765 17.224C16.7998 17.224 16.1908 17.0607 15.6495 16.734C15.1081 16.4027 14.6811 15.95 14.3685 15.376C14.0558 14.802 13.8995 14.1487 13.8995 13.416C13.8995 12.6787 14.0558 12.0253 14.3685 11.456C14.6811 10.882 15.1081 10.4317 15.6495 10.105C16.1908 9.77367 16.8021 9.608 17.4835 9.608C18.1788 9.608 18.8065 9.78533 19.3665 10.14C19.9265 10.49 20.3511 10.973 20.6405 11.589V9.832H21.1725V17.196C21.1725 18.0267 21.0138 18.7103 20.6965 19.247C20.3791 19.7883 19.9381 20.1897 19.3735 20.451C18.8088 20.717 18.1555 20.85 17.4135 20.85ZM17.5535 16.741C18.1648 16.741 18.7038 16.601 19.1705 16.321C19.6418 16.0363 20.0105 15.642 20.2765 15.138C20.5471 14.634 20.6825 14.06 20.6825 13.416C20.6825 12.7673 20.5495 12.1933 20.2835 11.694C20.0175 11.19 19.6488 10.798 19.1775 10.518C18.7061 10.2333 18.1648 10.091 17.5535 10.091C16.9515 10.091 16.4125 10.2333 15.9365 10.518C15.4651 10.798 15.0941 11.19 14.8235 11.694C14.5575 12.1933 14.4245 12.7673 14.4245 13.416C14.4245 14.06 14.5575 14.634 14.8235 15.138C15.0941 15.6373 15.4651 16.0293 15.9365 16.314C16.4125 16.5987 16.9515 16.741 17.5535 16.741Z" fill="#888888"/>
</svg>
