<svg width="24" height="24" viewBox="0 0 24 24" fill="none" xmlns="http://www.w3.org/2000/svg">
<path d="M2.10238 17L6.62438 5.45H7.33838L11.8604 17H11.0344L9.52238 13.059H4.44738L2.92838 17H2.10238ZM4.70638 12.38H9.26338L6.98138 6.444L4.70638 12.38ZM17.4275 20.85C16.5361 20.85 15.7825 20.6703 15.1665 20.311C14.5505 19.9563 14.0885 19.4407 13.7805 18.764L14.4245 18.484C14.6531 19.0113 15.0358 19.4337 15.5725 19.751C16.1138 20.0683 16.7345 20.227 17.4345 20.227C18.0131 20.227 18.5335 20.1103 18.9955 19.877C19.4621 19.6483 19.8285 19.3147 20.0945 18.876C20.3651 18.4373 20.5005 17.9053 20.5005 17.28V15.341C20.2018 15.929 19.7795 16.391 19.2335 16.727C18.6921 17.0583 18.0878 17.224 17.4205 17.224C16.7438 17.224 16.1348 17.0607 15.5935 16.734C15.0568 16.4027 14.6298 15.95 14.3125 15.376C13.9998 14.802 13.8435 14.1487 13.8435 13.416C13.8435 12.6787 13.9998 12.0253 14.3125 11.456C14.6251 10.882 15.0521 10.4317 15.5935 10.105C16.1348 9.77367 16.7461 9.608 17.4275 9.608C18.0995 9.608 18.7061 9.77367 19.2475 10.105C19.7888 10.4363 20.2065 10.8937 20.5005 11.477V9.832H21.2425V17.196C21.2425 18.008 21.0838 18.6847 20.7665 19.226C20.4491 19.7673 20.0035 20.1733 19.4295 20.444C18.8601 20.7147 18.1928 20.85 17.4275 20.85ZM17.5675 16.566C18.1461 16.566 18.6595 16.433 19.1075 16.167C19.5555 15.8963 19.9055 15.523 20.1575 15.047C20.4141 14.571 20.5425 14.0273 20.5425 13.416C20.5425 12.8047 20.4141 12.261 20.1575 11.785C19.9055 11.309 19.5555 10.938 19.1075 10.672C18.6595 10.4013 18.1461 10.266 17.5675 10.266C16.9935 10.266 16.4825 10.4013 16.0345 10.672C15.5865 10.938 15.2341 11.309 14.9775 11.785C14.7255 12.261 14.5995 12.8047 14.5995 13.416C14.5995 14.0273 14.7255 14.571 14.9775 15.047C15.2341 15.5183 15.5865 15.8893 16.0345 16.16C16.4825 16.4307 16.9935 16.566 17.5675 16.566Z" fill="#888888"/>
</svg>
