<svg width="24" height="24" viewBox="0 0 24 24" fill="none" xmlns="http://www.w3.org/2000/svg">
<path d="M2.31889 17L6.81289 5.45H7.17689L11.6709 17H11.2509L9.59889 12.73H4.39089L2.73889 17H2.31889ZM4.52389 12.38H9.46589L6.99489 5.926L4.52389 12.38ZM17.4133 20.85C16.5453 20.85 15.808 20.6703 15.2013 20.311C14.5946 19.9563 14.1373 19.4407 13.8293 18.764L14.1933 18.624C14.4313 19.2027 14.8396 19.6647 15.4183 20.01C15.997 20.3553 16.6666 20.528 17.4273 20.528C18.0526 20.528 18.615 20.4043 19.1143 20.157C19.6183 19.9097 20.015 19.548 20.3043 19.072C20.5983 18.596 20.7453 18.0173 20.7453 17.336V15.166C20.4513 15.8053 20.0196 16.3093 19.4503 16.678C18.881 17.042 18.2393 17.224 17.5253 17.224C16.844 17.224 16.2326 17.0607 15.6913 16.734C15.15 16.4027 14.723 15.95 14.4103 15.376C14.0976 14.802 13.9413 14.1487 13.9413 13.416C13.9413 12.6787 14.0976 12.0253 14.4103 11.456C14.723 10.882 15.15 10.4317 15.6913 10.105C16.2326 9.77367 16.844 9.608 17.5253 9.608C18.2393 9.608 18.881 9.79233 19.4503 10.161C20.0196 10.525 20.4513 11.0267 20.7453 11.666V9.832H21.1373V17.196C21.1373 18.036 20.9763 18.7243 20.6543 19.261C20.337 19.8023 19.8983 20.2013 19.3383 20.458C18.7783 20.7193 18.1366 20.85 17.4133 20.85ZM17.5533 16.86C18.1833 16.86 18.741 16.713 19.2263 16.419C19.7116 16.125 20.092 15.719 20.3673 15.201C20.6473 14.6783 20.7873 14.0833 20.7873 13.416C20.7873 12.744 20.6496 12.149 20.3743 11.631C20.099 11.113 19.7163 10.707 19.2263 10.413C18.741 10.119 18.1833 9.972 17.5533 9.972C16.928 9.972 16.3703 10.119 15.8803 10.413C15.395 10.707 15.0123 11.113 14.7323 11.631C14.457 12.149 14.3193 12.744 14.3193 13.416C14.3193 14.0833 14.457 14.676 14.7323 15.194C15.0123 15.712 15.395 16.1203 15.8803 16.419C16.3703 16.713 16.928 16.86 17.5533 16.86Z" fill="#888888"/>
</svg>
