<svg width="24" height="24" viewBox="0 0 24 24" fill="none" xmlns="http://www.w3.org/2000/svg">
<path d="M2.10238 16H2.92838L4.44738 12.059H9.52238L11.0344 16H11.8604L7.33838 4.45H6.62438L2.10238 16ZM4.70638 11.38L6.98138 5.444L9.26338 11.38H4.70638ZM17.4275 19.85C18.5755 19.85 19.4971 19.5443 20.1925 18.933C20.8925 18.3263 21.2425 17.414 21.2425 16.196V8.832H20.5005V10.477C20.2065 9.89367 19.7888 9.43633 19.2475 9.105C18.7061 8.77367 18.0995 8.608 17.4275 8.608C16.7461 8.608 16.1348 8.77367 15.5935 9.105C15.0521 9.43167 14.6251 9.882 14.3125 10.456C13.9998 11.03 13.8435 11.6833 13.8435 12.416C13.8435 13.1533 13.9998 13.809 14.3125 14.383C14.6298 14.957 15.0568 15.4073 15.5935 15.734C16.1348 16.0607 16.7438 16.224 17.4205 16.224C18.0878 16.224 18.6921 16.0583 19.2335 15.727C19.7795 15.391 20.2018 14.929 20.5005 14.341V16.28C20.5005 16.9053 20.3651 17.4373 20.0945 17.876C19.8285 18.3147 19.4645 18.6483 19.0025 18.877C18.5405 19.1103 18.0178 19.227 17.4345 19.227C16.7391 19.227 16.1208 19.0683 15.5795 18.751C15.0381 18.4383 14.6531 18.016 14.4245 17.484L13.7805 17.764C14.0885 18.4407 14.5505 18.9563 15.1665 19.311C15.7871 19.6703 16.5408 19.85 17.4275 19.85ZM17.5675 15.566C16.9935 15.566 16.4825 15.4307 16.0345 15.16C15.5865 14.8893 15.2341 14.5183 14.9775 14.047C14.7255 13.571 14.5995 13.0273 14.5995 12.416C14.5995 11.8047 14.7255 11.2633 14.9775 10.792C15.2341 10.316 15.5865 9.94267 16.0345 9.672C16.4825 9.40133 16.9935 9.266 17.5675 9.266C18.1461 9.266 18.6595 9.40133 19.1075 9.672C19.5555 9.938 19.9055 10.309 20.1575 10.785C20.4141 11.2563 20.5425 11.8 20.5425 12.416C20.5425 13.0273 20.4141 13.571 20.1575 14.047C19.9055 14.523 19.5555 14.8963 19.1075 15.167C18.6595 15.433 18.1461 15.566 17.5675 15.566Z" fill="#333333"/>
</svg>
