<svg width="24" height="24" viewBox="0 0 24 24" fill="none" xmlns="http://www.w3.org/2000/svg">
<path d="M2.23505 16H2.81605L4.41205 11.863H9.57106L11.1671 16H11.7481L7.24006 4.45H6.74305L2.23505 16ZM4.60105 11.38L6.98805 5.129L9.38206 11.38H4.60105ZM17.4135 19.85C18.1555 19.85 18.8088 19.717 19.3735 19.451C19.9381 19.1897 20.3791 18.7883 20.6965 18.247C21.0138 17.7057 21.1725 17.022 21.1725 16.196V8.832H20.6405V10.589C20.3511 9.973 19.9265 9.49 19.3665 9.14C18.8065 8.78533 18.1788 8.608 17.4835 8.608C16.8021 8.608 16.1908 8.77367 15.6495 9.105C15.1081 9.43167 14.6811 9.882 14.3685 10.456C14.0558 11.0253 13.8995 11.6787 13.8995 12.416C13.8995 13.1487 14.0558 13.802 14.3685 14.376C14.6811 14.95 15.1081 15.4027 15.6495 15.734C16.1908 16.0607 16.7998 16.224 17.4765 16.224C18.1718 16.224 18.7995 16.049 19.3595 15.699C19.9195 15.3443 20.3465 14.8567 20.6405 14.236V16.315C20.6405 16.973 20.4981 17.533 20.2135 17.995C19.9335 18.457 19.5508 18.807 19.0655 19.045C18.5801 19.2877 18.0341 19.409 17.4275 19.409C16.6948 19.409 16.0438 19.241 15.4745 18.905C14.9098 18.5737 14.5108 18.128 14.2775 17.568L13.8085 17.764C14.1165 18.4407 14.5761 18.9563 15.1875 19.311C15.7988 19.6703 16.5408 19.85 17.4135 19.85ZM17.5535 15.741C16.9515 15.741 16.4148 15.5987 15.9435 15.314C15.4721 15.0293 15.1011 14.6373 14.8305 14.138C14.5598 13.634 14.4245 13.06 14.4245 12.416C14.4245 11.7673 14.5575 11.1933 14.8235 10.694C15.0941 10.1947 15.4651 9.80267 15.9365 9.518C16.4078 9.23333 16.9468 9.091 17.5535 9.091C18.1648 9.091 18.7038 9.23333 19.1705 9.518C19.6418 9.80267 20.0105 10.1947 20.2765 10.694C20.5471 11.1933 20.6825 11.7673 20.6825 12.416C20.6825 13.06 20.5471 13.634 20.2765 14.138C20.0105 14.6373 19.6418 15.0293 19.1705 15.314C18.7038 15.5987 18.1648 15.741 17.5535 15.741Z" fill="#333333"/>
</svg>
