<svg width="24" height="24" viewBox="0 0 24 24" fill="none" xmlns="http://www.w3.org/2000/svg">
<path d="M2.22284 17L6.86384 5.45H8.97084L13.6048 17H11.1618L10.1818 14.368H5.64584L4.66584 17H2.22284ZM6.42284 12.38H9.41184L7.91384 8.509L6.42284 12.38ZM18.4563 20.85C17.4903 20.85 16.6783 20.6727 16.0203 20.318C15.3623 19.968 14.8839 19.45 14.5853 18.764L16.3353 17.91C16.5313 18.2413 16.8206 18.505 17.2033 18.701C17.5859 18.897 18.0013 18.995 18.4493 18.995C18.8553 18.995 19.2123 18.9133 19.5203 18.75C19.8283 18.5913 20.0686 18.365 20.2413 18.071C20.4139 17.7817 20.5003 17.4457 20.5003 17.063V16.055C20.1829 16.4237 19.8073 16.7107 19.3733 16.916C18.9393 17.1213 18.4726 17.224 17.9733 17.224C17.3246 17.224 16.7319 17.063 16.1953 16.741C15.6633 16.4143 15.2386 15.964 14.9213 15.39C14.6039 14.816 14.4453 14.158 14.4453 13.416C14.4453 12.688 14.5993 12.0393 14.9073 11.47C15.2199 10.896 15.6446 10.4433 16.1813 10.112C16.7226 9.776 17.3386 9.608 18.0293 9.608C18.5333 9.608 18.9999 9.706 19.4293 9.902C19.8586 10.0933 20.2156 10.3617 20.5003 10.707V9.832H22.6493V17.196C22.6493 17.9007 22.4953 18.5283 22.1873 19.079C21.8839 19.6297 21.4219 20.0613 20.8013 20.374C20.1806 20.6913 19.3989 20.85 18.4563 20.85ZM18.6173 15.397C18.9953 15.397 19.3289 15.313 19.6183 15.145C19.9123 14.9723 20.1409 14.739 20.3043 14.445C20.4676 14.1463 20.5493 13.808 20.5493 13.43C20.5493 13.0427 20.4653 12.6997 20.2973 12.401C20.1339 12.1023 19.9076 11.8667 19.6183 11.694C19.3289 11.5213 18.9999 11.435 18.6313 11.435C18.2626 11.435 17.9336 11.5213 17.6443 11.694C17.3549 11.8667 17.1263 12.1047 16.9583 12.408C16.7903 12.7067 16.7063 13.0473 16.7063 13.43C16.7063 13.808 16.7879 14.1463 16.9513 14.445C17.1146 14.739 17.3409 14.9723 17.6303 15.145C17.9196 15.313 18.2486 15.397 18.6173 15.397Z" fill="#888888"/>
</svg>
