<svg width="24" height="24" viewBox="0 0 24 24" fill="none" xmlns="http://www.w3.org/2000/svg">
<path d="M2.31889 16H2.73889L4.39089 11.73H9.59889L11.2509 16H11.6709L7.17689 4.45H6.81289L2.31889 16ZM4.52389 11.38L6.99489 4.926L9.46589 11.38H4.52389ZM17.4133 19.85C18.1366 19.85 18.7783 19.7193 19.3383 19.458C19.8983 19.2013 20.337 18.8023 20.6543 18.261C20.9763 17.7243 21.1373 17.036 21.1373 16.196V8.832H20.7453V10.666C20.4513 10.0267 20.0196 9.525 19.4503 9.161C18.881 8.79233 18.2393 8.608 17.5253 8.608C16.844 8.608 16.2326 8.77367 15.6913 9.105C15.15 9.43167 14.723 9.882 14.4103 10.456C14.0976 11.0253 13.9413 11.6787 13.9413 12.416C13.9413 13.1487 14.0976 13.802 14.4103 14.376C14.723 14.95 15.15 15.4027 15.6913 15.734C16.2326 16.0607 16.844 16.224 17.5253 16.224C18.2393 16.224 18.881 16.042 19.4503 15.678C20.0196 15.3093 20.4513 14.8053 20.7453 14.166V16.336C20.7453 17.0173 20.5983 17.596 20.3043 18.072C20.015 18.548 19.6183 18.9097 19.1143 19.157C18.615 19.4043 18.0526 19.528 17.4273 19.528C16.6666 19.528 15.997 19.3553 15.4183 19.01C14.8396 18.6647 14.4313 18.2027 14.1933 17.624L13.8293 17.764C14.1373 18.4407 14.5946 18.9563 15.2013 19.311C15.808 19.6703 16.5453 19.85 17.4133 19.85ZM17.5533 15.86C16.928 15.86 16.3703 15.713 15.8803 15.419C15.395 15.1203 15.0123 14.712 14.7323 14.194C14.457 13.676 14.3193 13.0833 14.3193 12.416C14.3193 11.744 14.457 11.149 14.7323 10.631C15.0123 10.113 15.395 9.707 15.8803 9.413C16.3703 9.119 16.928 8.972 17.5533 8.972C18.1833 8.972 18.741 9.119 19.2263 9.413C19.7163 9.707 20.099 10.113 20.3743 10.631C20.6496 11.149 20.7873 11.744 20.7873 12.416C20.7873 13.0833 20.6473 13.6783 20.3673 14.201C20.092 14.719 19.7116 15.125 19.2263 15.419C18.741 15.713 18.1833 15.86 17.5533 15.86Z" fill="#333333"/>
</svg>
