<svg width="24" height="24" viewBox="0 0 24 24" fill="none" xmlns="http://www.w3.org/2000/svg">
<path d="M1.85734 16L1.89934 15.776L2.71134 15.342L7.62534 6.69H8.73134L10.5373 15.286L11.3493 15.776L11.2933 16H7.24734L7.27534 15.776L8.49334 15.272L8.03134 12.934H4.93734L3.60734 15.3L4.65734 15.776L4.60134 16H1.85734ZM5.34334 12.192H7.89134L7.21934 8.846L5.34334 12.192ZM15.9913 16.14C15.3007 16.14 14.6987 16.0047 14.1853 15.734C13.672 15.4633 13.2753 15.09 12.9953 14.614C12.7153 14.1287 12.5753 13.564 12.5753 12.92C12.5753 12.2293 12.7107 11.59 12.9813 11.002C13.252 10.4047 13.6207 9.882 14.0873 9.434C14.554 8.986 15.086 8.636 15.6833 8.384C16.29 8.132 16.9247 8.006 17.5873 8.006C18.1287 8.006 18.5767 8.05733 18.9313 8.16C19.2953 8.25333 19.65 8.39333 19.9953 8.58L19.7433 10.708H19.5053L18.7913 9.084C18.6233 8.95333 18.4553 8.86 18.2873 8.804C18.1193 8.748 17.9047 8.72 17.6433 8.72C17.018 8.72 16.4673 8.916 15.9913 9.308C15.5153 9.7 15.142 10.2227 14.8713 10.876C14.61 11.52 14.4793 12.2293 14.4793 13.004C14.4793 13.7507 14.652 14.3433 14.9973 14.782C15.352 15.2207 15.8047 15.44 16.3553 15.44C16.5607 15.44 16.7847 15.4073 17.0273 15.342L17.4053 13.228L16.5233 12.654L16.5653 12.444H20.2193L20.1773 12.654L19.2533 13.228L18.8893 15.258C18.5347 15.5193 18.11 15.734 17.6153 15.902C17.13 16.0607 16.5887 16.14 15.9913 16.14Z" fill="#333333"/>
</svg>
