<svg width="24" height="24" viewBox="0 0 24 24" fill="none" xmlns="http://www.w3.org/2000/svg">
<path d="M4.28414 16L4.34014 15.79L4.94214 15.594L9.80014 6.69H10.0661L11.7461 15.58L12.4181 15.79L12.3761 16H9.74414L9.80014 15.79L10.9481 15.58L10.3741 12.43H7.16814L5.51614 15.594L6.66414 15.79L6.62214 16H4.28414ZM7.39214 12.01H10.3041L9.56214 7.88L7.39214 12.01ZM16.0435 13.858C15.7915 13.858 15.5675 13.8207 15.3715 13.746C15.0448 13.886 14.7975 14.0353 14.6295 14.194C14.4615 14.3433 14.3775 14.5393 14.3775 14.782C14.3775 15.0527 14.4708 15.258 14.6575 15.398C14.8535 15.5287 15.1008 15.6313 15.3995 15.706C15.6982 15.7713 16.0155 15.832 16.3515 15.888C16.6968 15.944 17.0188 16.0187 17.3175 16.112C17.6162 16.2053 17.8588 16.3453 18.0455 16.532C18.2415 16.7187 18.3395 16.98 18.3395 17.316C18.3395 17.9227 18.0688 18.4127 17.5275 18.786C16.9955 19.1687 16.2955 19.36 15.4275 19.36C14.7835 19.36 14.2422 19.248 13.8035 19.024C13.3742 18.8 13.1595 18.4687 13.1595 18.03C13.1595 17.5727 13.2808 17.162 13.5235 16.798L14.4335 16.084V16.014C14.2468 15.9113 14.0928 15.776 13.9715 15.608C13.8595 15.44 13.8035 15.2207 13.8035 14.95C13.8035 14.7913 13.8455 14.6467 13.9295 14.516C14.0228 14.376 14.1302 14.2547 14.2515 14.152L15.1195 13.676V13.62C14.8862 13.4613 14.7135 13.256 14.6015 13.004C14.4988 12.752 14.4475 12.4813 14.4475 12.192C14.4475 11.7067 14.5548 11.2633 14.7695 10.862C14.9935 10.4607 15.2875 10.1433 15.6515 9.91C16.0248 9.67667 16.4355 9.56 16.8835 9.56C17.1448 9.56 17.3828 9.60667 17.5975 9.7H19.5575V10.078H18.2415L18.1715 10.148C18.3768 10.4373 18.4795 10.8013 18.4795 11.24C18.4795 11.6693 18.3722 12.0847 18.1575 12.486C17.9522 12.8873 17.6628 13.2187 17.2895 13.48C16.9255 13.732 16.5102 13.858 16.0435 13.858ZM16.2395 13.606C16.7062 13.606 17.0842 13.3913 17.3735 12.962C17.6628 12.5327 17.8075 11.9913 17.8075 11.338C17.8075 10.834 17.7188 10.4513 17.5415 10.19C17.3642 9.92867 17.0842 9.798 16.7015 9.798C16.3655 9.798 16.0762 9.90067 15.8335 10.106C15.6002 10.3113 15.4182 10.5867 15.2875 10.932C15.1568 11.268 15.0915 11.646 15.0915 12.066C15.0915 12.3273 15.1195 12.5747 15.1755 12.808C15.2408 13.0413 15.3575 13.2327 15.5255 13.382C15.6935 13.5313 15.9315 13.606 16.2395 13.606ZM13.7335 17.778C13.7335 18.254 13.9015 18.604 14.2375 18.828C14.5735 19.0613 14.9982 19.178 15.5115 19.178C15.9782 19.178 16.3795 19.0987 16.7155 18.94C17.0608 18.7907 17.3268 18.5947 17.5135 18.352C17.7095 18.1093 17.8075 17.8573 17.8075 17.596C17.8075 17.288 17.7002 17.0547 17.4855 16.896C17.2802 16.7467 17.0142 16.6347 16.6875 16.56C16.3608 16.4947 16.0202 16.434 15.6655 16.378C15.3108 16.322 14.9842 16.238 14.6855 16.126C14.3588 16.322 14.1162 16.5647 13.9575 16.854C13.8082 17.1527 13.7335 17.4607 13.7335 17.778Z" fill="#888888"/>
</svg>
