<svg width="24" height="24" viewBox="0 0 24 24" fill="none" xmlns="http://www.w3.org/2000/svg">
<path d="M2.62586 16L2.66786 15.776L3.46586 15.342L8.35186 6.69H9.79386L11.5719 15.3L12.3699 15.776L12.3279 16H7.79186L7.83386 15.776L9.00986 15.258L8.58986 13.102H5.63586L4.40386 15.3L5.39786 15.776L5.34186 16H2.62586ZM6.06986 12.332H8.43586L7.80586 9.196L6.06986 12.332ZM15.0365 19.36C14.2432 19.36 13.6365 19.234 13.2165 18.982C12.8059 18.7393 12.6005 18.4127 12.6005 18.002C12.6005 17.7967 12.6379 17.6147 12.7125 17.456C12.7779 17.3067 12.9132 17.1153 13.1185 16.882L13.9165 16.448V16.406C13.6552 16.3033 13.4359 16.154 13.2585 15.958C13.0905 15.762 13.0065 15.4773 13.0065 15.104C13.0065 14.8427 13.0625 14.6 13.1745 14.376C13.2865 14.152 13.4405 13.9513 13.6365 13.774L14.5185 13.312V13.214C14.3132 13.0367 14.1592 12.8313 14.0565 12.598C13.9632 12.3553 13.9165 12.1033 13.9165 11.842C13.9165 11.422 14.0425 11.03 14.2945 10.666C14.5465 10.2927 14.8872 9.994 15.3165 9.77C15.7552 9.53667 16.2499 9.42 16.8005 9.42C17.2019 9.42 17.5612 9.46667 17.8785 9.56H20.2725V10.176H18.9705L18.8585 10.26C19.0172 10.4187 19.1385 10.5913 19.2225 10.778C19.3065 10.9647 19.3485 11.17 19.3485 11.394C19.3485 11.7953 19.2225 12.178 18.9705 12.542C18.7279 12.906 18.3779 13.2047 17.9205 13.438C17.4632 13.6713 16.9265 13.788 16.3105 13.788C16.0305 13.788 15.7739 13.7647 15.5405 13.718C15.3165 13.662 15.1159 13.5873 14.9385 13.494C14.7612 13.634 14.6725 13.7833 14.6725 13.942C14.6725 14.166 14.7752 14.3293 14.9805 14.432C15.1859 14.5347 15.4472 14.614 15.7645 14.67C16.0819 14.7167 16.4225 14.7727 16.7865 14.838C17.1505 14.894 17.4912 14.9827 17.8085 15.104C18.1259 15.2253 18.3872 15.412 18.5925 15.664C18.7979 15.9067 18.9005 16.2473 18.9005 16.686C18.9005 17.106 18.7512 17.5213 18.4525 17.932C18.1539 18.3427 17.7152 18.6833 17.1365 18.954C16.5672 19.2247 15.8672 19.36 15.0365 19.36ZM16.4505 13.2C16.6279 13.2 16.7865 13.102 16.9265 12.906C17.0665 12.71 17.1739 12.4533 17.2485 12.136C17.3325 11.8187 17.3745 11.4733 17.3745 11.1C17.3745 10.7267 17.3325 10.4467 17.2485 10.26C17.1739 10.064 17.0105 9.966 16.7585 9.966C16.5812 9.966 16.4225 10.064 16.2825 10.26C16.1425 10.456 16.0305 10.7173 15.9465 11.044C15.8719 11.3613 15.8345 11.7067 15.8345 12.08C15.8345 12.4347 15.8765 12.71 15.9605 12.906C16.0445 13.102 16.2079 13.2 16.4505 13.2ZM13.9445 17.75C13.9445 18.0393 14.0519 18.296 14.2665 18.52C14.4812 18.7533 14.8125 18.87 15.2605 18.87C15.7552 18.87 16.1379 18.744 16.4085 18.492C16.6792 18.2493 16.8145 17.9787 16.8145 17.68C16.8145 17.4373 16.7445 17.2507 16.6045 17.12C16.4739 16.9987 16.2965 16.9053 16.0725 16.84C15.8579 16.7747 15.6152 16.7233 15.3445 16.686C15.0739 16.658 14.8079 16.6207 14.5465 16.574C14.3132 16.714 14.1545 16.882 14.0705 17.078C13.9865 17.274 13.9445 17.498 13.9445 17.75Z" fill="#888888"/>
</svg>
