<svg width="24" height="24" viewBox="0 0 24 24" fill="none" xmlns="http://www.w3.org/2000/svg">
<path d="M2.84023 16V15.776L3.70823 15.3L7.33423 6.69H8.31423L11.8982 15.272L12.8502 15.776V16H8.81823V15.776L10.0362 15.286L9.04223 12.85H5.68223L4.70223 15.286L5.86423 15.776V16H2.84023ZM6.00423 12.08H8.72023L7.36223 8.734L6.00423 12.08ZM16.5062 13.928C16.0769 13.928 15.6802 13.8533 15.3162 13.704C15.1762 13.7787 15.0782 13.872 15.0222 13.984C14.9662 14.0867 14.9382 14.194 14.9382 14.306C14.9382 14.5487 15.0222 14.726 15.1902 14.838C15.3582 14.9407 15.6195 14.992 15.9742 14.992H17.5842C18.2935 14.992 18.8162 15.1507 19.1522 15.468C19.4882 15.776 19.6562 16.2333 19.6562 16.84C19.6562 17.26 19.5115 17.6613 19.2222 18.044C18.9422 18.4267 18.5409 18.7393 18.0182 18.982C17.4955 19.234 16.8749 19.36 16.1562 19.36C15.2509 19.36 14.6022 19.2107 14.2102 18.912C13.8275 18.6133 13.6362 18.24 13.6362 17.792C13.6362 17.4467 13.7202 17.1527 13.8882 16.91L14.7982 16.322V16.266C14.0795 16.0607 13.7202 15.6267 13.7202 14.964C13.7202 14.5627 13.8462 14.236 14.0982 13.984L14.8822 13.55V13.466C14.5835 13.27 14.3455 13.0227 14.1682 12.724C13.9909 12.416 13.9022 12.08 13.9022 11.716C13.9022 11.3053 14.0142 10.932 14.2382 10.596C14.4715 10.26 14.7842 9.99867 15.1762 9.812C15.5682 9.616 16.0115 9.518 16.5062 9.518C16.7395 9.518 16.9775 9.546 17.2202 9.602C17.4629 9.64867 17.6729 9.714 17.8502 9.798L19.9922 9.658V10.47L18.6202 10.372L18.5642 10.414C18.7322 10.5727 18.8629 10.7687 18.9562 11.002C19.0589 11.2353 19.1102 11.4733 19.1102 11.716C19.1102 12.136 18.9935 12.514 18.7602 12.85C18.5362 13.1767 18.2282 13.438 17.8362 13.634C17.4442 13.83 17.0009 13.928 16.5062 13.928ZM16.6322 13.34C16.9495 13.34 17.1969 13.1907 17.3742 12.892C17.5609 12.5933 17.6542 12.2153 17.6542 11.758C17.6542 11.2447 17.5375 10.8387 17.3042 10.54C17.0802 10.2413 16.7955 10.092 16.4502 10.092C16.0955 10.092 15.8249 10.246 15.6382 10.554C15.4609 10.8527 15.3722 11.226 15.3722 11.674C15.3722 12.1873 15.4889 12.5933 15.7222 12.892C15.9555 13.1907 16.2589 13.34 16.6322 13.34ZM14.7422 17.568C14.7422 17.9507 14.8822 18.268 15.1622 18.52C15.4422 18.772 15.8202 18.898 16.2962 18.898C16.9029 18.898 17.3882 18.744 17.7522 18.436C18.1162 18.1373 18.2982 17.7827 18.2982 17.372C18.2982 16.9987 18.1955 16.7373 17.9902 16.588C17.7942 16.4387 17.4395 16.364 16.9262 16.364H15.5962C15.5029 16.364 15.4142 16.3593 15.3302 16.35C15.1249 16.49 14.9755 16.658 14.8822 16.854C14.7889 17.05 14.7422 17.288 14.7422 17.568Z" fill="#333333"/>
</svg>
