<svg width="24" height="24" viewBox="0 0 24 24" fill="none" xmlns="http://www.w3.org/2000/svg">
<path d="M4.07906 16L4.13506 15.79L4.84906 15.468L9.73506 6.69H10.1551L11.8911 15.412L12.6471 15.79L12.6051 16H9.66506L9.70706 15.79L10.9251 15.44L10.3791 12.542H7.11706L5.52106 15.482L6.66906 15.79L6.62706 16H4.07906ZM7.41106 11.996H10.2671L9.52506 8.076L7.41106 11.996ZM16.3322 13.858C16.0709 13.858 15.8329 13.816 15.6182 13.732C15.0769 13.9747 14.8062 14.2967 14.8062 14.698C14.8062 14.9313 14.8996 15.1087 15.0862 15.23C15.2729 15.3513 15.5156 15.4447 15.8142 15.51C16.1129 15.5753 16.4302 15.6407 16.7662 15.706C17.1022 15.762 17.4196 15.846 17.7182 15.958C18.0169 16.0607 18.2596 16.2053 18.4462 16.392C18.6329 16.588 18.7262 16.854 18.7262 17.19C18.7262 17.582 18.6049 17.9413 18.3622 18.268C18.1289 18.604 17.7882 18.87 17.3402 19.066C16.8922 19.262 16.3509 19.36 15.7162 19.36C14.9789 19.36 14.4002 19.2387 13.9802 18.996C13.5696 18.7533 13.3642 18.4173 13.3642 17.988C13.3642 17.7267 13.4062 17.498 13.4902 17.302C13.5649 17.106 13.6769 16.9193 13.8262 16.742L14.8342 16.07V16.028C14.6009 15.9347 14.4049 15.8087 14.2462 15.65C14.0969 15.482 14.0222 15.258 14.0222 14.978C14.0222 14.8007 14.0596 14.6467 14.1342 14.516C14.2089 14.3853 14.3069 14.2547 14.4282 14.124L15.3242 13.648V13.592C15.0816 13.4427 14.8996 13.242 14.7782 12.99C14.6569 12.7287 14.5962 12.4487 14.5962 12.15C14.5962 11.702 14.7082 11.282 14.9322 10.89C15.1562 10.498 15.4549 10.1807 15.8282 9.938C16.2109 9.686 16.6402 9.56 17.1162 9.56C17.3776 9.56 17.6296 9.60667 17.8722 9.7H19.9022V10.19H18.6142L18.5442 10.246C18.7496 10.5167 18.8522 10.8713 18.8522 11.31C18.8522 11.702 18.7449 12.094 18.5302 12.486C18.3249 12.878 18.0309 13.2047 17.6482 13.466C17.2656 13.7273 16.8269 13.858 16.3322 13.858ZM16.5422 13.466C16.8316 13.466 17.0836 13.3727 17.2982 13.186C17.5222 12.99 17.6949 12.7333 17.8162 12.416C17.9469 12.0987 18.0122 11.758 18.0122 11.394C18.0122 10.9367 17.9189 10.582 17.7322 10.33C17.5456 10.0687 17.2749 9.938 16.9202 9.938C16.6122 9.938 16.3462 10.036 16.1222 10.232C15.8982 10.428 15.7256 10.6847 15.6042 11.002C15.4829 11.31 15.4222 11.646 15.4222 12.01C15.4222 12.4113 15.5062 12.7567 15.6742 13.046C15.8516 13.326 16.1409 13.466 16.5422 13.466ZM14.1622 17.778C14.1622 18.1887 14.3209 18.506 14.6382 18.73C14.9556 18.954 15.3662 19.066 15.8702 19.066C16.5329 19.066 17.0462 18.9073 17.4102 18.59C17.7836 18.282 17.9702 17.9273 17.9702 17.526C17.9702 17.2367 17.8769 17.0127 17.6902 16.854C17.5129 16.7047 17.2749 16.5927 16.9762 16.518C16.6869 16.4433 16.3789 16.378 16.0522 16.322C15.7256 16.2753 15.4129 16.21 15.1142 16.126C14.7502 16.3593 14.4982 16.616 14.3582 16.896C14.2276 17.1853 14.1622 17.4793 14.1622 17.778Z" fill="#333333"/>
</svg>
