<svg width="24" height="24" viewBox="0 0 24 24" fill="none" xmlns="http://www.w3.org/2000/svg">
<path d="M2.26656 16L2.32256 15.79L3.03656 15.468L7.92256 6.69H8.34256L10.0786 15.412L10.8346 15.79L10.7926 16H7.85256L7.89456 15.79L9.11256 15.44L8.56656 12.542H5.30456L3.70856 15.482L4.85656 15.79L4.81456 16H2.26656ZM5.59856 11.996H8.45456L7.71256 8.076L5.59856 11.996ZM15.5297 16.14C14.9044 16.14 14.3584 16 13.8917 15.72C13.4344 15.44 13.075 15.0573 12.8137 14.572C12.5617 14.0867 12.4357 13.536 12.4357 12.92C12.4357 12.248 12.5477 11.618 12.7717 11.03C13.005 10.4327 13.327 9.91 13.7377 9.462C14.1484 9.00467 14.6337 8.65 15.1937 8.398C15.7537 8.13667 16.3697 8.006 17.0417 8.006C17.583 8.006 18.0264 8.05733 18.3717 8.16C18.717 8.25333 19.0624 8.398 19.4077 8.594L19.1277 10.484H18.9037L18.5677 9.098C18.157 8.71533 17.6064 8.524 16.9157 8.524C16.169 8.524 15.5297 8.71067 14.9977 9.084C14.4657 9.448 14.0597 9.94267 13.7797 10.568C13.4997 11.184 13.3597 11.87 13.3597 12.626C13.3597 13.5687 13.5884 14.3153 14.0457 14.866C14.5124 15.4073 15.147 15.678 15.9497 15.678C16.183 15.678 16.4164 15.6593 16.6497 15.622C16.883 15.5753 17.1257 15.5007 17.3777 15.398L17.7697 13.13L16.7897 12.78L16.8317 12.57H19.5897L19.5477 12.78L18.6657 13.13L18.2737 15.286C17.9284 15.5567 17.5224 15.7667 17.0557 15.916C16.589 16.0653 16.0804 16.14 15.5297 16.14Z" fill="#333333"/>
</svg>
