<svg width="24" height="24" viewBox="0 0 24 24" fill="none" xmlns="http://www.w3.org/2000/svg">
<path d="M3.59481 16V15.65L4.33681 15.482L7.90681 6.69H8.20081L11.7568 15.468L12.5968 15.65V16H9.61481V15.65L10.8048 15.468L9.62881 12.5H6.08681L4.95281 15.468L6.19881 15.65V16H3.59481ZM6.28281 12.01H9.43281L7.83681 7.964L6.28281 12.01ZM16.0192 13.886C15.7392 13.886 15.4732 13.8393 15.2212 13.746C14.9132 13.8767 14.6985 14.0167 14.5772 14.166C14.4558 14.3153 14.3952 14.488 14.3952 14.684C14.3952 15.0013 14.5072 15.23 14.7312 15.37C14.9552 15.51 15.3005 15.58 15.7672 15.58H17.3492C17.8998 15.58 18.3198 15.7107 18.6092 15.972C18.9078 16.2333 19.0572 16.5927 19.0572 17.05C19.0572 17.4327 18.9265 17.8013 18.6652 18.156C18.4038 18.5107 18.0398 18.8 17.5732 19.024C17.1065 19.248 16.5558 19.36 15.9212 19.36C15.1092 19.36 14.5258 19.1967 14.1712 18.87C13.8165 18.5527 13.6392 18.1607 13.6392 17.694C13.6392 17.3487 13.7092 17.05 13.8492 16.798L14.7032 16.084V16.056C14.0965 15.8787 13.7932 15.51 13.7932 14.95C13.7932 14.642 13.8958 14.3853 14.1012 14.18L14.9272 13.69V13.62C14.5912 13.4427 14.3252 13.1907 14.1292 12.864C13.9332 12.528 13.8352 12.15 13.8352 11.73C13.8352 11.3193 13.9285 10.9507 14.1152 10.624C14.3112 10.2973 14.5725 10.0407 14.8992 9.854C15.2258 9.658 15.5992 9.56 16.0192 9.56C16.2245 9.56 16.4485 9.588 16.6912 9.644C16.9338 9.69067 17.1252 9.74667 17.2652 9.812L19.1692 9.7V10.274L17.7552 10.176L17.7272 10.204C17.8765 10.3627 17.9885 10.5867 18.0632 10.876C18.1472 11.156 18.1892 11.4407 18.1892 11.73C18.1892 12.1407 18.0958 12.5093 17.9092 12.836C17.7225 13.1627 17.4658 13.4193 17.1392 13.606C16.8125 13.7927 16.4392 13.886 16.0192 13.886ZM16.1592 13.606C16.5605 13.606 16.8778 13.4473 17.1112 13.13C17.3538 12.8033 17.4752 12.346 17.4752 11.758C17.4752 11.114 17.3258 10.6333 17.0272 10.316C16.7285 9.98933 16.3598 9.826 15.9212 9.826C15.4918 9.826 15.1558 9.994 14.9132 10.33C14.6705 10.6567 14.5492 11.1093 14.5492 11.688C14.5492 12.332 14.6985 12.8127 14.9972 13.13C15.3052 13.4473 15.6925 13.606 16.1592 13.606ZM14.2832 17.54C14.2832 17.9693 14.4605 18.3287 14.8152 18.618C15.1792 18.9073 15.6225 19.052 16.1452 19.052C16.5932 19.052 16.9898 18.968 17.3352 18.8C17.6805 18.6413 17.9512 18.4267 18.1472 18.156C18.3432 17.8947 18.4412 17.6147 18.4412 17.316C18.4412 16.868 18.3245 16.56 18.0912 16.392C17.8672 16.224 17.4612 16.14 16.8732 16.14H15.4032C15.2632 16.14 15.1278 16.1307 14.9972 16.112C14.7265 16.2707 14.5398 16.462 14.4372 16.686C14.3345 16.9193 14.2832 17.204 14.2832 17.54Z" fill="#333333"/>
</svg>
