<svg width="24" height="24" viewBox="0 0 24 24" fill="none" xmlns="http://www.w3.org/2000/svg">
<path d="M2.55574 16V15.776L3.43774 15.314L7.03574 6.69H7.80574L11.3617 15.272L12.2997 15.776V16H8.60374V15.776L9.83574 15.286L8.79974 12.766H5.42574L4.40374 15.3L5.57974 15.776V16H2.55574ZM5.74774 11.996H8.49174L7.11974 8.622L5.74774 11.996ZM17.3336 16.14C16.5496 16.14 15.845 15.9767 15.2196 15.65C14.6036 15.314 14.1136 14.8567 13.7496 14.278C13.395 13.6993 13.2176 13.0367 13.2176 12.29C13.2176 11.674 13.3296 11.1093 13.5536 10.596C13.787 10.0733 14.1043 9.62067 14.5056 9.238C14.907 8.846 15.369 8.54733 15.8916 8.342C16.4236 8.12733 16.9883 8.02 17.5856 8.02C18.211 8.02 18.7103 8.076 19.0836 8.188C19.4663 8.29067 19.8303 8.426 20.1756 8.594L20.2596 10.61H20.0496L19.2096 9.21C18.8923 8.99533 18.617 8.846 18.3836 8.762C18.1596 8.678 17.8983 8.636 17.5996 8.636C16.993 8.636 16.4563 8.77133 15.9896 9.042C15.5323 9.31267 15.173 9.686 14.9116 10.162C14.6596 10.638 14.5336 11.1747 14.5336 11.772C14.5336 12.5373 14.669 13.1953 14.9396 13.746C15.2103 14.2873 15.579 14.7073 16.0456 15.006C16.5216 15.2953 17.0583 15.44 17.6556 15.44C17.8983 15.44 18.1363 15.426 18.3696 15.398C18.6123 15.3607 18.855 15.2953 19.0976 15.202V13.2L18.0196 12.71V12.5H21.2256V12.71L20.3856 13.228V15.132C20.1523 15.3373 19.863 15.5147 19.5176 15.664C19.1723 15.8133 18.8083 15.93 18.4256 16.014C18.043 16.098 17.679 16.14 17.3336 16.14Z" fill="#888888"/>
</svg>
