<svg width="24" height="24" viewBox="0 0 24 24" fill="none" xmlns="http://www.w3.org/2000/svg">
<path d="M3.49204 17L6.55104 6.822H9.96004L13.019 17H10.66L9.74304 13.71L10.975 14.634H5.95604L6.08204 12.87H10.485L9.73604 13.682L8.81204 10.371L8.30104 8.292H8.18904L7.68504 10.371L5.85104 17H3.49204ZM17.3624 20.143C16.6064 20.1523 15.9624 20.038 15.4304 19.8C14.8984 19.5667 14.5018 19.2353 14.2404 18.806C13.9838 18.3767 13.8881 17.8843 13.9534 17.329H16.0674C16.0628 17.539 16.0978 17.7257 16.1724 17.889C16.2471 18.057 16.3824 18.19 16.5784 18.288C16.7744 18.386 17.0498 18.435 17.4044 18.435C17.7311 18.435 17.9831 18.386 18.1604 18.288C18.3424 18.1947 18.4708 18.0523 18.5454 17.861C18.6201 17.6697 18.6574 17.4317 18.6574 17.147V14.998C18.5921 15.404 18.4708 15.7377 18.2934 15.999C18.1208 16.2603 17.8944 16.4563 17.6144 16.587C17.3344 16.713 17.0008 16.776 16.6134 16.776C16.1514 16.776 15.7408 16.6803 15.3814 16.489C15.0268 16.2977 14.7234 16.034 14.4714 15.698C14.2241 15.3573 14.0351 14.9653 13.9044 14.522C13.7784 14.074 13.7154 13.5957 13.7154 13.087C13.7154 12.261 13.8414 11.561 14.0934 10.987C14.3501 10.4083 14.7001 9.96967 15.1434 9.671C15.5914 9.36767 16.1024 9.216 16.6764 9.216C17.0451 9.216 17.3624 9.26967 17.6284 9.377C17.8991 9.48433 18.1231 9.629 18.3004 9.811C18.4778 9.98833 18.6061 10.1867 18.6854 10.406L18.7624 9.363H20.8204V16.944C20.8204 17.6253 20.6898 18.2017 20.4284 18.673C20.1671 19.1443 19.7798 19.5037 19.2664 19.751C18.7578 19.9983 18.1231 20.129 17.3624 20.143ZM17.3344 14.998C17.5724 14.998 17.7801 14.9723 17.9574 14.921C18.1394 14.865 18.2888 14.7927 18.4054 14.704C18.5221 14.6107 18.6061 14.5127 18.6574 14.41V11.764C18.6108 11.6193 18.5314 11.491 18.4194 11.379C18.3074 11.267 18.1628 11.1783 17.9854 11.113C17.8128 11.043 17.6121 11.008 17.3834 11.008C16.9168 11.008 16.5528 11.1783 16.2914 11.519C16.0301 11.8597 15.8994 12.38 15.8994 13.08C15.8994 13.6867 16.0184 14.158 16.2564 14.494C16.4944 14.83 16.8538 14.998 17.3344 14.998Z" fill="#888888"/>
</svg>
