<svg width="24" height="24" viewBox="0 0 24 24" fill="none" xmlns="http://www.w3.org/2000/svg">
<path d="M4.02847 17L6.56947 6.822H10.0415L12.5825 17H10.2445L9.49547 13.71L10.7345 14.634H6.20547L6.27547 12.87H10.2585L9.48847 13.682L8.83047 10.371L8.37547 8.292H8.23547L7.78047 10.371L6.36647 17H4.02847ZM16.742 20.206C15.93 20.206 15.237 20.1173 14.663 19.94C14.0937 19.7627 13.6573 19.5083 13.354 19.177C13.0553 18.8503 12.906 18.4607 12.906 18.008C12.906 17.714 12.9853 17.4643 13.144 17.259C13.3073 17.0583 13.5267 16.9067 13.802 16.804C14.0773 16.6967 14.3853 16.6477 14.726 16.657L15.013 16.622C14.9477 16.678 14.8917 16.741 14.845 16.811C14.7983 16.8763 14.761 16.9533 14.733 17.042C14.7097 17.1307 14.698 17.2287 14.698 17.336C14.698 17.6067 14.7727 17.8283 14.922 18.001C15.076 18.1783 15.3 18.309 15.594 18.393C15.888 18.477 16.252 18.519 16.686 18.519C17.2553 18.519 17.6917 18.4537 17.995 18.323C18.2983 18.197 18.4477 17.9987 18.443 17.728C18.443 17.5227 18.3637 17.3757 18.205 17.287C18.051 17.1983 17.7687 17.1307 17.358 17.084L15.545 16.86C14.9197 16.7807 14.4483 16.6617 14.131 16.503C13.8183 16.3397 13.6083 16.1577 13.501 15.957C13.3983 15.7517 13.347 15.551 13.347 15.355C13.347 15.0843 13.4287 14.8557 13.592 14.669C13.7553 14.4777 13.956 14.3237 14.194 14.207C14.4367 14.0903 14.6723 14.0063 14.901 13.955C15.1343 13.9037 15.3187 13.885 15.454 13.899C15.3233 13.9643 15.2043 14.0413 15.097 14.13C14.9943 14.2187 14.943 14.3657 14.943 14.571C14.943 14.7297 15.006 14.8487 15.132 14.928C15.258 15.0027 15.5147 15.0657 15.902 15.117L17.862 15.362C18.576 15.4507 19.1197 15.5977 19.493 15.803C19.871 16.0083 20.1277 16.2603 20.263 16.559C20.403 16.8577 20.473 17.1913 20.473 17.56C20.473 17.9893 20.368 18.3673 20.158 18.694C19.9527 19.0253 19.6727 19.303 19.318 19.527C18.9633 19.751 18.562 19.919 18.114 20.031C17.6707 20.1477 17.2133 20.206 16.742 20.206ZM16.784 14.312C15.748 14.312 14.9453 14.0833 14.376 13.626C13.8067 13.164 13.522 12.541 13.522 11.757C13.522 10.9777 13.8067 10.3593 14.376 9.902C14.95 9.44467 15.7573 9.22067 16.798 9.23C17.4793 9.23467 18.0603 9.342 18.541 9.552C19.0263 9.75733 19.3973 10.0513 19.654 10.434C19.9153 10.812 20.046 11.2647 20.046 11.792C20.046 12.5667 19.7613 13.1803 19.192 13.633C18.6227 14.0857 17.82 14.312 16.784 14.312ZM16.791 12.842C17.1923 12.842 17.491 12.758 17.687 12.59C17.883 12.422 17.981 12.1537 17.981 11.785C17.981 11.4117 17.8807 11.1387 17.68 10.966C17.484 10.7887 17.183 10.7 16.777 10.7C16.4083 10.7 16.1167 10.784 15.902 10.952C15.6873 11.12 15.58 11.386 15.58 11.75C15.58 12.128 15.6873 12.4057 15.902 12.583C16.1213 12.7557 16.4177 12.842 16.791 12.842ZM17.673 9.447L17.575 9.377C17.617 8.84967 17.736 8.44833 17.932 8.173C18.128 7.893 18.3683 7.70167 18.653 7.599C18.9423 7.49633 19.2387 7.445 19.542 7.445C19.6353 7.445 19.7333 7.44967 19.836 7.459C19.9433 7.46833 20.025 7.48467 20.081 7.508V9.37C19.8663 9.31867 19.6517 9.28133 19.437 9.258C19.227 9.23467 19.0473 9.223 18.898 9.223C18.828 9.223 18.723 9.223 18.583 9.223C18.4477 9.21833 18.2983 9.23233 18.135 9.265C17.9763 9.293 17.8223 9.35367 17.673 9.447Z" fill="#888888"/>
</svg>
