<svg width="24" height="24" viewBox="0 0 24 24" fill="none" xmlns="http://www.w3.org/2000/svg">
<path d="M3.48719 17L6.88919 6.822H8.31719L11.7122 17H10.7812L9.74519 13.878L10.2492 14.256H4.77519L5.20919 13.43H9.97619L9.69619 13.731L8.12819 9.013L7.59619 7.431H7.58919L7.07119 9.013L4.41819 17H3.48719ZM15.7802 20.115C15.1875 20.115 14.6718 20.0123 14.2332 19.807C13.7945 19.6063 13.4632 19.2983 13.2392 18.883C13.0152 18.4723 12.9242 17.9543 12.9662 17.329H13.7992C13.7665 17.8003 13.8295 18.183 13.9882 18.477C14.1468 18.771 14.3848 18.9857 14.7022 19.121C15.0195 19.2563 15.3952 19.324 15.8292 19.324C16.3285 19.324 16.7182 19.2283 16.9982 19.037C17.2782 18.8457 17.4742 18.575 17.5862 18.225C17.6982 17.8797 17.7542 17.4783 17.7542 17.021V14.984C17.7122 15.2267 17.6095 15.474 17.4462 15.726C17.2828 15.9733 17.0565 16.1833 16.7672 16.356C16.4778 16.524 16.1208 16.608 15.6962 16.608C15.2668 16.608 14.8655 16.5263 14.4922 16.363C14.1235 16.195 13.7992 15.9547 13.5192 15.642C13.2438 15.3247 13.0268 14.9373 12.8682 14.48C12.7142 14.0227 12.6372 13.5047 12.6372 12.926C12.6372 12.128 12.7725 11.4537 13.0432 10.903C13.3185 10.3523 13.6872 9.93467 14.1492 9.65C14.6112 9.36067 15.1245 9.216 15.6892 9.216C16.0625 9.216 16.3845 9.26733 16.6552 9.37C16.9305 9.47267 17.1592 9.601 17.3412 9.755C17.5232 9.909 17.6632 10.0653 17.7612 10.224L17.7682 9.363H18.5942V16.888C18.5942 17.6907 18.4798 18.3277 18.2512 18.799C18.0225 19.2703 17.6958 19.6063 17.2712 19.807C16.8512 20.0077 16.3542 20.1103 15.7802 20.115ZM15.8502 15.81C16.1815 15.81 16.4732 15.7447 16.7252 15.614C16.9818 15.4787 17.1965 15.3037 17.3692 15.089C17.5418 14.8697 17.6702 14.6363 17.7542 14.389V11.204C17.7308 11.0873 17.6398 10.9357 17.4812 10.749C17.3225 10.5623 17.1055 10.3943 16.8302 10.245C16.5595 10.0957 16.2328 10.021 15.8502 10.021C15.1315 10.021 14.5622 10.2683 14.1422 10.763C13.7268 11.2577 13.5192 11.9787 13.5192 12.926C13.5192 13.92 13.7292 14.6503 14.1492 15.117C14.5738 15.579 15.1408 15.81 15.8502 15.81Z" fill="#888888"/>
</svg>
