<svg width="24" height="24" viewBox="0 0 24 24" fill="none" xmlns="http://www.w3.org/2000/svg">
<path d="M3.2121 17L6.4111 6.822H9.2391L12.4381 17H10.3591L9.4351 13.815L10.5341 14.62H5.5081L5.8161 13.031H10.0721L9.4281 13.794L8.4201 10.357L7.8601 8.18H7.7691L7.2161 10.357L5.2841 17H3.2121ZM16.7661 20.129C16.0754 20.1383 15.4711 20.031 14.9531 19.807C14.4397 19.5877 14.0501 19.2657 13.7841 18.841C13.5227 18.421 13.4224 17.917 13.4831 17.329H15.3521C15.3521 17.567 15.3871 17.7793 15.4571 17.966C15.5271 18.1527 15.6671 18.2997 15.8771 18.407C16.0871 18.519 16.3927 18.575 16.7941 18.575C17.1581 18.575 17.4357 18.5237 17.6271 18.421C17.8231 18.323 17.9584 18.169 18.0331 17.959C18.1077 17.749 18.1451 17.483 18.1451 17.161V15.047C18.0891 15.3643 17.9817 15.6513 17.8231 15.908C17.6644 16.16 17.4427 16.3583 17.1581 16.503C16.8734 16.6477 16.5094 16.72 16.0661 16.72C15.6087 16.72 15.2004 16.622 14.8411 16.426C14.4864 16.23 14.1854 15.964 13.9381 15.628C13.6907 15.2873 13.5017 14.8977 13.3711 14.459C13.2451 14.0203 13.1821 13.5607 13.1821 13.08C13.1821 12.24 13.3151 11.5353 13.5811 10.966C13.8517 10.392 14.2087 9.958 14.6521 9.664C15.1001 9.36533 15.5947 9.216 16.1361 9.216C16.5374 9.216 16.8734 9.27433 17.1441 9.391C17.4147 9.503 17.6317 9.64767 17.7951 9.825C17.9631 10.0023 18.0867 10.1867 18.1661 10.378L18.2081 9.363H20.0561V17.042C20.0561 17.728 19.9231 18.2973 19.6571 18.75C19.3957 19.2073 19.0201 19.548 18.5301 19.772C18.0401 20.0007 17.4521 20.1197 16.7661 20.129ZM16.7171 15.152C17.0064 15.152 17.2491 15.117 17.4451 15.047C17.6411 14.9723 17.7951 14.8813 17.9071 14.774C18.0237 14.662 18.1031 14.5547 18.1451 14.452V11.547C18.0984 11.4163 18.0144 11.2973 17.8931 11.19C17.7764 11.0827 17.6224 10.994 17.4311 10.924C17.2444 10.854 17.0204 10.819 16.7591 10.819C16.2691 10.819 15.8771 10.9987 15.5831 11.358C15.2891 11.7173 15.1421 12.275 15.1421 13.031C15.1421 13.703 15.2821 14.2257 15.5621 14.599C15.8421 14.9677 16.2271 15.152 16.7171 15.152Z" fill="#888888"/>
</svg>
