<svg width="24" height="24" viewBox="0 0 24 24" fill="none" xmlns="http://www.w3.org/2000/svg">
<path d="M10.4901 13.892C9.2674 14.0973 8.29207 14.284 7.56407 14.452C7.34007 14.8067 7.1954 15.0447 7.13007 15.166C6.93407 15.5113 6.75674 15.8007 6.59807 16.034C6.44874 16.258 6.2854 16.4587 6.10807 16.636C5.91207 16.832 5.74874 16.972 5.61807 17.056C5.49674 17.14 5.35207 17.182 5.18407 17.182C4.90407 17.182 4.65674 17.1213 4.44207 17C4.23674 16.8693 4.13407 16.7387 4.13407 16.608C4.15274 16.5893 4.2554 16.384 4.44207 15.992C4.62874 15.5907 4.97407 15.0913 5.47807 14.494C5.47807 14.4193 5.45474 14.326 5.40807 14.214C5.3614 14.102 5.33807 14.0367 5.33807 14.018C5.33807 13.7473 5.76274 13.4207 6.61207 13.038C7.08807 12.3287 7.5874 11.6287 8.11007 10.938C8.64207 10.2473 9.29074 9.43067 10.0561 8.488C10.2427 8.25467 10.4807 8.06333 10.7701 7.914C11.0594 7.76467 11.3487 7.69 11.6381 7.69C11.9367 7.69 12.1607 7.718 12.3101 7.774C12.4594 7.83 12.5527 7.90467 12.5901 7.998C12.6367 8.09133 12.6601 8.222 12.6601 8.39C12.6227 8.67 12.5994 8.88 12.5901 9.02C12.4501 10.1493 12.3427 11.12 12.2681 11.932C12.2027 12.7347 12.1701 13.5373 12.1701 14.34C12.1701 15.0773 12.2027 15.754 12.2681 16.37C12.2401 16.594 12.1421 16.7993 11.9741 16.986C11.8061 17.1633 11.6101 17.252 11.3861 17.252C10.9567 17.252 10.6721 17.1447 10.5321 16.93C10.4014 16.7153 10.3361 16.3513 10.3361 15.838C10.3361 15.4647 10.3874 14.816 10.4901 13.892ZM8.67007 12.842C8.83807 12.8047 9.09474 12.7627 9.44007 12.716L10.5601 12.548C10.6441 11.2507 10.7421 10.3173 10.8541 9.748C10.4901 10.1773 9.76207 11.2087 8.67007 12.842ZM15.3656 20.178C14.9362 20.178 14.5302 20.0847 14.1476 19.898C13.7742 19.7113 13.4616 19.4687 13.2096 19.17C12.9482 18.8807 12.7616 18.5867 12.6496 18.288C12.6589 18.12 12.7429 17.952 12.9016 17.784C13.0509 17.6253 13.3169 17.546 13.6996 17.546C13.8209 17.546 13.9236 17.5927 14.0076 17.686C14.1009 17.7793 14.2036 17.9287 14.3156 18.134C14.4649 18.414 14.6189 18.6287 14.7776 18.778C14.9456 18.9367 15.1742 19.016 15.4636 19.016C15.7902 19.016 16.1029 18.8853 16.4016 18.624C16.7096 18.372 16.9709 18.0267 17.1856 17.588C17.4096 17.1493 17.5636 16.664 17.6476 16.132C17.4422 16.412 17.2042 16.6267 16.9336 16.776C16.6722 16.9253 16.4249 17 16.1916 17C15.4449 17 14.8522 16.8367 14.4136 16.51C13.9842 16.174 13.7696 15.5813 13.7696 14.732C13.7696 13.9667 13.9796 13.2527 14.3996 12.59C14.8289 11.9273 15.3982 11.4 16.1076 11.008C16.8169 10.616 17.5776 10.42 18.3896 10.42C18.9216 10.42 19.3136 10.5273 19.5656 10.742C19.8269 10.9567 19.9856 11.2273 20.0416 11.554C20.2002 11.6287 20.2842 11.7033 20.2936 11.778C20.2936 11.806 20.2749 11.904 20.2376 12.072C20.0602 12.8373 19.6869 14.3493 19.1176 16.608L18.9636 17.224C18.7302 18.1293 18.2822 18.848 17.6196 19.38C16.9662 19.912 16.2149 20.178 15.3656 20.178ZM18.5296 11.862C18.4549 11.7313 18.3802 11.6473 18.3056 11.61C18.2402 11.5727 18.1376 11.554 17.9976 11.554C17.5589 11.554 17.1342 11.6987 16.7236 11.988C16.3129 12.268 15.9816 12.6367 15.7296 13.094C15.4776 13.542 15.3516 14.004 15.3516 14.48C15.3516 14.8253 15.4122 15.124 15.5336 15.376C15.6642 15.628 15.8696 15.7727 16.1496 15.81C16.5229 15.7447 16.8729 15.5767 17.1996 15.306C17.5356 15.0353 17.7642 14.6853 17.8856 14.256L18.5296 11.862Z" fill="#888888"/>
</svg>
