<svg width="24" height="24" viewBox="0 0 24 24" fill="none" xmlns="http://www.w3.org/2000/svg">
<path d="M11.202 7.06C12.294 7.06 13.1667 7.242 13.82 7.606C14.4733 7.96067 14.8 8.45533 14.8 9.09C14.8 9.46333 14.6927 9.82267 14.478 10.168C14.2633 10.504 13.9787 10.7887 13.624 11.022C13.2693 11.246 12.896 11.386 12.504 11.442C12.7933 11.1713 13.022 10.8867 13.19 10.588C13.3673 10.2893 13.456 9.99533 13.456 9.706C13.456 9.202 13.2133 8.80533 12.728 8.516C12.2427 8.21733 11.5987 8.068 10.796 8.068C9.00399 8.068 7.65999 8.70267 6.76399 9.972C5.86799 11.2413 5.38733 12.9587 5.32199 15.124C5.76066 15.7773 6.36266 16.104 7.12799 16.104C8.11733 16.104 9.12533 15.6 10.152 14.592L10.698 12.408C10.8193 11.9227 10.9407 11.5307 11.062 11.232L11.02 11.204C10.74 11.5307 10.3667 11.8107 9.89999 12.044C9.43333 12.2773 8.96199 12.394 8.48599 12.394C8.04733 12.394 7.70199 12.2913 7.44999 12.086C7.20733 11.8807 7.08599 11.6053 7.08599 11.26C7.08599 10.98 7.15133 10.714 7.28199 10.462C7.41266 10.2007 7.59466 9.99067 7.82799 9.832C8.06133 9.67333 8.31333 9.594 8.58399 9.594C8.82666 9.594 9.01333 9.65933 9.14399 9.79C9.27466 9.92067 9.33999 10.0887 9.33999 10.294C9.33999 10.378 9.33533 10.4433 9.32599 10.49C9.22333 10.3033 9.07866 10.21 8.89199 10.21C8.70533 10.21 8.55133 10.2753 8.42999 10.406C8.30866 10.5367 8.24799 10.7 8.24799 10.896C8.24799 11.0547 8.30866 11.1807 8.42999 11.274C8.56066 11.3673 8.74266 11.414 8.97599 11.414C9.89066 11.414 10.9967 10.6487 12.294 9.118H12.742L11.104 15.712C10.9827 16.216 10.922 16.58 10.922 16.804C10.922 16.8787 10.9313 16.944 10.95 17H9.38199C9.48466 16.8693 9.56866 16.72 9.63399 16.552C9.69933 16.384 9.77866 16.104 9.87199 15.712L9.88599 15.656H9.84399C8.83599 16.6453 7.82799 17.14 6.81999 17.14C6.25999 17.14 5.74199 17 5.26599 16.72C4.79933 16.4307 4.45399 16.0247 4.22999 15.502C4.17399 15.1753 4.14599 14.8207 4.14599 14.438C4.14599 13.01 4.43533 11.7407 5.01399 10.63C5.59266 9.51 6.41399 8.63733 7.47799 8.012C8.55133 7.37733 9.79266 7.06 11.202 7.06ZM19.1647 18.666C19.7527 18.918 20.3127 19.2587 20.8447 19.688C20.7234 19.604 20.4947 19.5153 20.1587 19.422C19.832 19.338 19.4494 19.2633 19.0107 19.198C18.7494 19.9633 18.334 20.6213 17.7647 21.172C17.1954 21.7227 16.3834 21.998 15.3287 21.998C14.8154 21.998 14.3767 21.914 14.0127 21.746C13.658 21.578 13.35 21.3073 13.0887 20.934C12.986 20.682 12.9347 20.4207 12.9347 20.15C12.9347 19.758 13.0794 19.408 13.3687 19.1C13.6487 18.792 14.05 18.5493 14.5727 18.372C15.0954 18.204 15.6974 18.12 16.3787 18.12C16.9574 18.12 17.5314 18.1853 18.1007 18.316L18.7867 15.544C18.096 16.5147 17.3587 17 16.5747 17C16.1827 17 15.8327 16.8787 15.5247 16.636C15.2167 16.384 14.9274 16.0247 14.6567 15.558C14.5634 15.0913 14.5167 14.6667 14.5167 14.284C14.5167 13.4533 14.6754 12.7393 14.9927 12.142C15.31 11.5353 15.7534 11.0733 16.3227 10.756C16.9014 10.4387 17.578 10.28 18.3527 10.28C19.0434 10.28 19.6547 10.42 20.1867 10.7C20.7187 10.9707 21.1247 11.344 21.4047 11.82C21.0314 11.624 20.63 11.4747 20.2007 11.372C19.7807 11.26 19.356 11.204 18.9267 11.204C17.8907 11.204 17.0927 11.498 16.5327 12.086C15.9727 12.6647 15.6927 13.4953 15.6927 14.578C15.6927 14.9233 15.7207 15.2873 15.7767 15.67C15.926 15.81 16.0614 15.9127 16.1827 15.978C16.304 16.0433 16.4534 16.076 16.6307 16.076C17.0974 16.076 17.5547 15.8613 18.0027 15.432C18.46 15.0027 18.88 14.41 19.2627 13.654L19.5287 12.604C19.6127 12.24 19.846 12.058 20.2287 12.058C20.5367 12.058 20.6907 12.1793 20.6907 12.422C20.6907 12.45 20.6814 12.5107 20.6627 12.604L19.2207 18.428L19.1647 18.666ZM15.1467 21.074C15.9214 21.074 16.5234 20.878 16.9527 20.486C17.382 20.1033 17.6947 19.632 17.8907 19.072C17.5174 19.0533 17.2374 19.044 17.0507 19.044C16.0894 19.044 15.352 19.1653 14.8387 19.408C14.3347 19.6507 14.0827 19.9727 14.0827 20.374C14.0827 20.458 14.0874 20.5373 14.0967 20.612C14.1154 20.6867 14.134 20.7427 14.1527 20.78C14.33 20.976 14.6614 21.074 15.1467 21.074Z" fill="#888888"/>
</svg>
