<svg width="24" height="24" viewBox="0 0 24 24" fill="none" xmlns="http://www.w3.org/2000/svg">
<path d="M6.09572 16.93L7.83172 7.312C7.84105 7.27467 7.86439 7.256 7.90172 7.256H9.93172C9.96905 7.256 9.99239 7.27467 10.0017 7.312L11.6677 16.93C11.6771 16.9767 11.6584 17 11.6117 17H10.0577C10.0204 17 9.99705 16.9767 9.98772 16.93L9.83372 15.908H7.92972L7.77572 16.93C7.76639 16.9767 7.74305 17 7.70572 17H6.15172C6.11439 17 6.09572 16.9767 6.09572 16.93ZM8.20972 14.41H9.55372L8.97972 10.476L8.89572 9.958L8.83972 10.476L8.20972 14.41ZM14.8075 17.14C14.3035 17.14 13.8462 17.014 13.4355 16.762C13.0249 16.51 12.6935 16.174 12.4415 15.754C12.1989 15.3247 12.0775 14.8487 12.0775 14.326V9.888C12.0775 9.384 12.1989 8.922 12.4415 8.502C12.6935 8.07267 13.0249 7.732 13.4355 7.48C13.8555 7.228 14.3129 7.102 14.8075 7.102C15.3209 7.102 15.7829 7.228 16.1935 7.48C16.6135 7.72267 16.9449 8.054 17.1875 8.474C17.4302 8.894 17.5515 9.36533 17.5515 9.888V10.532C17.5515 10.5693 17.5282 10.588 17.4815 10.588H15.9135C15.8762 10.588 15.8575 10.5693 15.8575 10.532V10C15.8575 9.64533 15.7549 9.35133 15.5495 9.118C15.3535 8.88467 15.1062 8.768 14.8075 8.768C14.5369 8.768 14.2942 8.88 14.0795 9.104C13.8742 9.328 13.7715 9.58933 13.7715 9.888V14.326C13.7715 14.634 13.8742 14.9 14.0795 15.124C14.2849 15.3387 14.5275 15.446 14.8075 15.446C15.1062 15.446 15.3535 15.3387 15.5495 15.124C15.7549 14.9093 15.8575 14.6433 15.8575 14.326V13.64H14.8775C14.8309 13.64 14.8075 13.6167 14.8075 13.57V12.002C14.8075 11.9553 14.8309 11.932 14.8775 11.932H17.4955C17.5329 11.932 17.5515 11.9553 17.5515 12.002V14.326C17.5515 14.8487 17.4255 15.3247 17.1735 15.754C16.9309 16.174 16.6042 16.51 16.1935 16.762C15.7829 17.014 15.3209 17.14 14.8075 17.14Z" fill="#333333"/>
</svg>
