<svg width="24" height="24" viewBox="0 0 24 24" fill="none" xmlns="http://www.w3.org/2000/svg">
<path d="M5.52779 17.9208C5.47394 17.9208 5.41471 17.9208 5.35009 17.9208C5.29625 17.9315 5.2424 17.9369 5.18855 17.9369C4.97317 17.9369 4.86548 17.8992 4.86548 17.8238C4.86548 17.7377 4.93009 17.4308 5.05932 16.9031C5.17779 16.3646 5.37702 15.6162 5.65702 14.6577C5.53855 14.5069 5.43625 14.3723 5.35009 14.2538C5.26394 14.1246 5.20471 13.9846 5.1724 13.8338C5.07548 13.6831 5.00548 13.5323 4.9624 13.3815C4.91932 13.22 4.89779 13.0908 4.89779 12.9938C4.89779 12.94 4.91394 12.9023 4.94625 12.8808C4.97855 12.8592 5.05394 12.8431 5.1724 12.8323L6.14163 12.7354C6.4324 11.5831 6.72317 10.6408 7.01394 9.90846C7.30471 9.16538 7.49855 8.60538 7.59548 8.22846C8.01548 7.98077 8.34932 7.78692 8.59702 7.64692C8.85548 7.50692 9.04394 7.41 9.1624 7.35615L9.08163 6.82308C9.07086 6.76923 9.06009 6.73154 9.04932 6.71C9.04932 6.67769 9.04932 6.65615 9.04932 6.64538C9.04932 6.63461 9.10317 6.60769 9.21086 6.56461C9.31855 6.52154 9.46394 6.47846 9.64702 6.43538C9.84086 6.38154 10.0616 6.33846 10.3093 6.30615C10.557 6.27385 10.8209 6.25769 11.1009 6.25769C11.187 6.25769 11.2409 6.27385 11.2624 6.30615C11.2947 6.33846 11.3324 6.39769 11.3755 6.48385L11.8762 6.45154C11.9732 6.45154 12.0486 6.48385 12.1024 6.54846L12.2478 6.74231C12.3016 6.81769 12.3501 7.10308 12.3932 7.59846C12.447 8.08308 12.4739 8.77231 12.4739 9.66615C12.4739 9.98923 12.4578 10.3285 12.4255 10.6838C12.4039 11.0392 12.3878 11.4162 12.377 11.8146L12.9424 11.7662H13.0393C13.0932 11.7662 13.1255 11.7769 13.1362 11.7985C13.147 11.82 13.1524 11.8738 13.1524 11.96C13.1524 12.4554 13.0986 12.8646 12.9909 13.1877C12.8832 13.5 12.7539 13.6562 12.6032 13.6562H12.5547C12.3716 13.9146 12.167 14.13 11.9409 14.3023C11.8978 14.55 11.8547 14.8085 11.8116 15.0777C11.7686 15.3362 11.7201 15.6 11.6662 15.8692L10.2932 16.7092L10.1801 17.3554L9.71163 17.5654C9.66855 17.5869 9.63086 17.5977 9.59855 17.5977C9.56625 17.5977 9.55009 17.5923 9.55009 17.5815C9.55009 17.5385 9.5824 17.3446 9.64702 17C9.71163 16.6662 9.74394 16.1438 9.74394 15.4331C9.74394 15.2715 9.74394 15.1208 9.74394 14.9808C9.74394 14.83 9.73855 14.6954 9.72779 14.5769C8.66163 14.62 7.69779 14.6523 6.83625 14.6738C6.63163 15.1477 6.47009 15.5623 6.35163 15.9177C6.24394 16.2623 6.1524 16.5531 6.07702 16.79C6.00163 17.0162 5.93702 17.1885 5.88317 17.3069C5.84009 17.4254 5.78625 17.4846 5.72163 17.4846H5.68932L5.52779 17.9208ZM9.80855 12.1377C9.80855 10.8562 9.69548 9.58538 9.46932 8.32538C9.07086 9.10077 8.72625 9.83846 8.43548 10.5385C8.14471 11.2385 7.85932 11.9008 7.57932 12.5254L9.80855 12.1377ZM13.9476 15.6269C13.9261 15.4762 13.9045 15.3308 13.883 15.1908C13.8722 15.0508 13.8668 14.9215 13.8668 14.8031C13.8668 14.2862 13.9638 13.8123 14.1576 13.3815C14.3514 12.94 14.653 12.5038 15.0622 12.0731C15.2884 11.8362 15.5038 11.6315 15.7084 11.4592C15.9238 11.2762 16.1122 11.1308 16.2738 11.0231C16.4353 10.9046 16.5645 10.8185 16.6614 10.7646C16.7691 10.7108 16.8284 10.6838 16.8391 10.6838C16.8607 10.6838 16.9038 10.6946 16.9684 10.7162L17.2914 10.8454C17.3776 10.8777 17.4207 10.9315 17.4207 11.0069C17.4207 11.0285 17.4153 11.05 17.4045 11.0715C17.4045 11.0823 17.4045 11.0985 17.4045 11.12C17.803 11.5723 18.0884 11.9492 18.2607 12.2508C18.433 12.5523 18.5191 12.7354 18.5191 12.8C18.5191 12.8538 18.4761 12.94 18.3899 13.0585C18.3145 13.1662 18.223 13.2792 18.1153 13.3977C18.0184 13.5162 17.9214 13.6185 17.8245 13.7046C17.7384 13.7908 17.6845 13.8338 17.663 13.8338C17.6091 13.8338 17.5768 13.7854 17.5661 13.6885C17.5553 13.5808 17.5068 13.4515 17.4207 13.3008C17.2376 13.4623 17.0707 13.6346 16.9199 13.8177C16.7691 13.99 16.6345 14.1785 16.5161 14.3831C17.4207 14.5338 18.1045 14.7977 18.5676 15.1746C19.0414 15.5408 19.2784 15.9554 19.2784 16.4185C19.2784 16.6554 19.1761 17 18.9714 17.4523C18.7776 17.9154 18.4599 18.4 18.0184 18.9062C17.5122 19.4877 17.1191 19.9292 16.8391 20.2308C16.5591 20.5323 16.3599 20.6831 16.2414 20.6831C16.1661 20.6831 16.0638 20.6615 15.9345 20.6185C15.8161 20.5754 15.6922 20.5162 15.563 20.4408C15.4445 20.3654 15.3368 20.2792 15.2399 20.1823C15.1538 20.0854 15.1107 19.9831 15.1107 19.8754C15.1107 19.5631 15.2184 19.1485 15.4338 18.6315C15.6491 18.1146 15.9722 17.6192 16.403 17.1454C16.4784 17.0592 16.6076 16.9892 16.7907 16.9354C16.9845 16.8815 17.1622 16.8546 17.3238 16.8546C17.3776 16.8546 17.4314 16.86 17.4853 16.8708C17.5391 16.8708 17.593 16.8762 17.6468 16.8869C16.9576 16.2515 15.9991 15.9338 14.7714 15.9338H14.2545L13.9476 15.6269ZM17.5499 17.1938C17.4422 17.1938 17.3238 17.2692 17.1945 17.42C17.0761 17.5815 16.963 17.77 16.8553 17.9854C16.7476 18.2115 16.6561 18.4377 16.5807 18.6638C16.5161 18.9008 16.4838 19.0946 16.4838 19.2454C16.4838 19.3531 16.4999 19.4069 16.5322 19.4069C16.5645 19.4069 16.6184 19.3531 16.6938 19.2454C16.7799 19.1377 16.8714 18.9869 16.9684 18.7931C17.0653 18.5992 17.1622 18.3677 17.2591 18.0985C17.3668 17.8292 17.4638 17.5277 17.5499 17.1938Z" fill="#888888"/>
</svg>
