<svg width="24" height="24" viewBox="0 0 24 24" fill="none" xmlns="http://www.w3.org/2000/svg">
<path d="M6.20351 16H3.27751L3.37551 15.58C3.63684 15.58 3.85617 15.538 4.03351 15.454C4.21084 15.37 4.40684 15.202 4.62151 14.95C4.83617 14.6887 5.11617 14.292 5.46151 13.76L10.3055 6.746H10.8935L11.9995 14.334C12.0928 14.7913 12.2142 15.1133 12.3635 15.3C12.5128 15.4867 12.7975 15.58 13.2175 15.58L13.1335 16H9.39551L9.47951 15.58C9.71284 15.58 9.90884 15.5613 10.0675 15.524C10.2355 15.4867 10.3662 15.412 10.4595 15.3C10.5528 15.188 10.5995 15.0153 10.5995 14.782C10.5995 14.67 10.5948 14.5673 10.5855 14.474C10.5855 14.3713 10.5808 14.278 10.5715 14.194L10.4175 12.794L10.3895 12.514L9.91351 8.328H9.87151L7.07151 12.514L6.90351 12.794L5.83951 14.418C5.74617 14.5487 5.66217 14.6793 5.58751 14.81C5.52217 14.9407 5.48951 15.0713 5.48951 15.202C5.48951 15.3513 5.54551 15.454 5.65751 15.51C5.77884 15.5567 5.99351 15.58 6.30151 15.58L6.20351 16ZM10.5715 12.934H6.65151L6.98751 12.374H10.5155L10.5715 12.934ZM16.0161 19.15C15.3254 19.15 14.7654 19.0753 14.3361 18.926C13.9161 18.786 13.6128 18.5807 13.4261 18.31C13.2394 18.0487 13.1461 17.7453 13.1461 17.4C13.1461 17.1107 13.2348 16.8587 13.4121 16.644C13.5801 16.4293 13.7994 16.2473 14.0701 16.098C14.3408 15.958 14.6208 15.8507 14.9101 15.776L15.2181 15.916C14.9848 16.056 14.7608 16.224 14.5461 16.42C14.3408 16.616 14.2381 16.91 14.2381 17.302C14.2381 17.554 14.3034 17.7827 14.4341 17.988C14.5741 18.1933 14.7794 18.3567 15.0501 18.478C15.3301 18.5993 15.6848 18.66 16.1141 18.66C16.7954 18.66 17.2948 18.562 17.6121 18.366C17.9294 18.17 18.0881 17.904 18.0881 17.568C18.0881 17.316 17.9854 17.0967 17.7801 16.91C17.5748 16.7327 17.3041 16.5787 16.9681 16.448C16.6414 16.3267 16.2868 16.2193 15.9041 16.126C15.5308 16.0327 15.1714 15.9533 14.8261 15.888V15.748C14.7048 15.6733 14.5928 15.5707 14.4901 15.44C14.3874 15.3 14.3361 15.1273 14.3361 14.922C14.3361 14.614 14.4434 14.3573 14.6581 14.152C14.8821 13.9467 15.1341 13.788 15.4141 13.676V13.592C15.2274 13.508 15.0361 13.3913 14.8401 13.242C14.6534 13.0927 14.4994 12.8967 14.3781 12.654C14.2568 12.402 14.1961 12.0847 14.1961 11.702C14.1961 11.2353 14.3128 10.82 14.5461 10.456C14.7794 10.092 15.0968 9.80733 15.4981 9.602C15.8994 9.39667 16.3521 9.294 16.8561 9.294C17.1828 9.294 17.4441 9.31267 17.6401 9.35C17.8361 9.38733 18.0088 9.434 18.1581 9.49C18.3074 9.546 18.4708 9.60667 18.6481 9.672V10.078C18.7601 10.2087 18.8721 10.4047 18.9841 10.666C19.0961 10.918 19.1521 11.2073 19.1521 11.534C19.1521 11.9353 19.0448 12.304 18.8301 12.64C18.6154 12.976 18.2981 13.2513 17.8781 13.466C17.4581 13.6713 16.9448 13.788 16.3381 13.816C16.0301 13.8253 15.8014 13.9093 15.6521 14.068C15.5121 14.2267 15.4421 14.39 15.4421 14.558C15.4421 14.698 15.5308 14.81 15.7081 14.894C15.8854 14.978 16.1094 15.0527 16.3801 15.118C16.6601 15.1833 16.9541 15.258 17.2621 15.342C17.5794 15.4167 17.8734 15.524 18.1441 15.664C18.4241 15.7947 18.6528 15.9673 18.8301 16.182C19.0074 16.406 19.0961 16.6907 19.0961 17.036C19.0961 17.6427 18.8348 18.1467 18.3121 18.548C17.7988 18.9493 17.0334 19.15 16.0161 19.15ZM16.4921 13.382C16.8188 13.382 17.0848 13.2933 17.2901 13.116C17.4954 12.9293 17.6494 12.682 17.7521 12.374C17.8548 12.066 17.9061 11.716 17.9061 11.324C17.9061 10.876 17.8174 10.498 17.6401 10.19C17.4628 9.87267 17.1921 9.714 16.8281 9.714C16.4268 9.714 16.0954 9.882 15.8341 10.218C15.5728 10.554 15.4421 11.0113 15.4421 11.59C15.4421 12.1593 15.5168 12.6027 15.6661 12.92C15.8248 13.228 16.1001 13.382 16.4921 13.382ZM19.9501 9.462L19.8661 10.176L18.4521 10.008L17.8781 9.462H19.9501Z" fill="#888888"/>
</svg>
