<svg width="24" height="24" viewBox="0 0 24 24" fill="none" xmlns="http://www.w3.org/2000/svg">
<path d="M5.57434 16H2.43834L2.56434 15.398C2.79767 15.398 3.003 15.3607 3.18034 15.286C3.34834 15.2113 3.51634 15.076 3.68434 14.88C3.86167 14.684 4.067 14.404 4.30034 14.04L9.06034 6.732H10.3623L11.4823 14.068C11.557 14.516 11.6877 14.852 11.8743 15.076C12.061 15.2907 12.313 15.398 12.6303 15.398L12.5463 16H8.15034L8.29034 15.398C8.41167 15.398 8.547 15.384 8.69634 15.356C8.84567 15.328 8.97167 15.2533 9.07434 15.132C9.18634 15.0107 9.24234 14.8147 9.24234 14.544C9.24234 14.4413 9.24234 14.3293 9.24234 14.208C9.24234 14.0867 9.233 13.9793 9.21434 13.886L9.06034 12.864L9.03234 12.5L8.65434 8.832H8.59834L6.26034 12.5L6.06434 12.864L5.29434 14.068C5.21034 14.208 5.12167 14.3667 5.02834 14.544C4.935 14.7213 4.88834 14.8847 4.88834 15.034C4.88834 15.1833 4.949 15.2813 5.07034 15.328C5.19167 15.3747 5.397 15.398 5.68634 15.398L5.57434 16ZM9.27034 13.046H5.74234L6.16234 12.318H9.20034L9.27034 13.046ZM15.5034 19.22C14.7754 19.22 14.1967 19.1407 13.7674 18.982C13.3381 18.8233 13.0347 18.618 12.8574 18.366C12.6707 18.114 12.5774 17.848 12.5774 17.568C12.5774 17.316 12.6427 17.0733 12.7734 16.84C12.9041 16.616 13.1094 16.4153 13.3894 16.238C13.6694 16.0607 14.0381 15.93 14.4954 15.846L14.9154 16.112C14.7194 16.2053 14.5421 16.3733 14.3834 16.616C14.2341 16.868 14.1594 17.1153 14.1594 17.358C14.1594 17.5353 14.2061 17.7127 14.2994 17.89C14.4021 18.0673 14.5701 18.212 14.8034 18.324C15.0367 18.4453 15.3494 18.506 15.7414 18.506C16.2454 18.506 16.6327 18.4033 16.9034 18.198C17.1741 17.9927 17.3094 17.764 17.3094 17.512C17.3094 17.2693 17.2254 17.0733 17.0574 16.924C16.8894 16.7747 16.6607 16.6487 16.3714 16.546C16.0821 16.4433 15.7554 16.3547 15.3914 16.28C15.0367 16.2147 14.6681 16.1493 14.2854 16.084V15.804C14.1174 15.7293 13.9681 15.608 13.8374 15.44C13.7067 15.2627 13.6414 15.0713 13.6414 14.866C13.6414 14.5673 13.7767 14.3107 14.0474 14.096C14.3181 13.8813 14.6214 13.7413 14.9574 13.676V13.592C14.7521 13.5173 14.5421 13.41 14.3274 13.27C14.1127 13.1207 13.9307 12.9247 13.7814 12.682C13.6321 12.43 13.5574 12.108 13.5574 11.716C13.5574 11.24 13.6741 10.82 13.9074 10.456C14.1501 10.092 14.5001 9.80733 14.9574 9.602C15.4147 9.39667 15.9607 9.294 16.5954 9.294C16.8847 9.294 17.1554 9.31733 17.4074 9.364C17.6687 9.40133 17.9067 9.45733 18.1214 9.532C18.3454 9.59733 18.5461 9.672 18.7234 9.756V10.33C18.7981 10.4513 18.8821 10.6007 18.9754 10.778C19.0781 10.9553 19.1294 11.2027 19.1294 11.52C19.1294 11.9213 19.0221 12.2947 18.8074 12.64C18.5927 12.976 18.2754 13.2513 17.8554 13.466C17.4447 13.6713 16.9361 13.788 16.3294 13.816C16.0214 13.8533 15.7974 13.942 15.6574 14.082C15.5267 14.2127 15.4614 14.3293 15.4614 14.432C15.4614 14.5533 15.5501 14.656 15.7274 14.74C15.9047 14.8147 16.1334 14.8847 16.4134 14.95C16.7027 15.006 17.0014 15.0807 17.3094 15.174C17.6267 15.258 17.9254 15.37 18.2054 15.51C18.4947 15.65 18.7281 15.8367 18.9054 16.07C19.0827 16.3127 19.1714 16.616 19.1714 16.98C19.1714 17.6147 18.8681 18.1467 18.2614 18.576C17.6547 19.0053 16.7354 19.22 15.5034 19.22ZM16.1894 13.214C16.4974 13.214 16.7307 13.1113 16.8894 12.906C17.0481 12.7007 17.1507 12.458 17.1974 12.178C17.2534 11.8887 17.2814 11.618 17.2814 11.366C17.2814 10.8433 17.2021 10.4653 17.0434 10.232C16.8941 9.98933 16.6841 9.868 16.4134 9.868C16.0774 9.868 15.8161 10.0313 15.6294 10.358C15.4521 10.6847 15.3634 11.1653 15.3634 11.8C15.3634 12.2853 15.4241 12.6447 15.5454 12.878C15.6761 13.102 15.8907 13.214 16.1894 13.214ZM19.9274 9.462L19.8434 10.498L18.4994 10.246L17.6734 9.462H19.9274Z" fill="#888888"/>
</svg>
