<svg width="24" height="24" viewBox="0 0 24 24" fill="none" xmlns="http://www.w3.org/2000/svg">
<path d="M12.5824 15.9084V16.0353C12.5824 16.3738 12.4766 16.6065 12.265 16.7335C12.0535 16.8498 11.7996 16.908 11.5034 16.908C11.3659 16.908 11.2601 16.9027 11.1861 16.8921C11.1121 16.871 11.0486 16.8234 10.9957 16.7493C10.9428 16.6753 10.8899 16.5589 10.837 16.4003C10.7947 16.2416 10.7365 16.0195 10.6625 15.7339C10.5885 15.4271 10.5091 15.1732 10.4245 14.9723C10.3399 14.7713 10.2341 14.6126 10.1072 14.4963C9.99082 14.3693 9.83744 14.2794 9.64704 14.2265C9.46722 14.1736 9.22922 14.1472 8.93304 14.1472C8.37242 14.1472 7.93873 14.1684 7.63197 14.2107C7.32522 14.253 7.0925 14.3323 6.93384 14.4487C6.77517 14.5544 6.65882 14.7078 6.58477 14.9088C6.51073 15.0992 6.4261 15.3478 6.3309 15.6545C6.25686 15.8767 6.20397 16.0988 6.17224 16.3209C6.15108 16.5325 6.10877 16.6859 6.0453 16.7811C5.99242 16.8657 5.84433 16.908 5.60104 16.908C5.35775 16.908 5.16206 16.8075 5.01397 16.6065C4.87646 16.4056 4.8077 16.1834 4.8077 15.9401C4.8077 15.6863 4.89233 15.443 5.06157 15.2103C5.14619 15.0939 5.21495 14.9828 5.26784 14.8771C5.3313 14.7607 5.38419 14.6549 5.4265 14.5597C5.46882 14.4645 5.5693 14.1789 5.72797 13.7029C5.88664 13.2164 6.11935 12.5394 6.4261 11.672C6.72228 10.8046 6.96557 10.1065 7.15597 9.5776C7.35695 9.03813 7.51033 8.65733 7.6161 8.4352C7.81708 8.01209 7.99162 7.74235 8.1397 7.626C8.28779 7.50964 8.4729 7.45147 8.69504 7.45147C8.91717 7.45147 9.11815 7.5308 9.29797 7.68947C9.48837 7.84813 9.68935 8.15489 9.9009 8.60973C9.9009 8.60973 10.6096 10.6089 12.027 14.6073C12.1011 14.8189 12.2121 15.0463 12.3602 15.2896C12.5083 15.5329 12.5824 15.7392 12.5824 15.9084ZM8.79024 13.1793C9.48837 13.1793 9.83744 13.1159 9.83744 12.9889V12.9413C9.83744 12.9202 9.82686 12.8779 9.8057 12.8144C9.79513 12.7509 9.77926 12.661 9.7581 12.5447L9.64704 12.148C9.64704 12.1374 9.63646 12.1004 9.6153 12.0369C9.60473 12.0158 9.54126 11.7408 9.4249 11.2119C9.29797 10.7041 9.1393 10.2228 8.9489 9.768C8.7585 9.32373 8.64744 9.1016 8.6157 9.1016C8.58397 9.1016 8.50464 9.26555 8.3777 9.59347C7.6161 11.4975 7.2353 12.624 7.2353 12.9731V13.0207C7.2353 13.1264 7.46802 13.1793 7.93344 13.1793H8.79024ZM16.5514 20.1765C16.3081 20.1765 16.0701 20.1501 15.8374 20.0972C15.6153 20.0549 15.4143 19.9914 15.2345 19.9068C15.0546 19.8222 14.9118 19.727 14.8061 19.6212C14.7003 19.526 14.6474 19.4202 14.6474 19.3039C14.6474 19.0183 14.8642 18.8755 15.2979 18.8755C15.372 18.8755 15.4566 18.8808 15.5518 18.8913C15.6576 18.9019 15.7686 18.9178 15.885 18.9389C16.0013 18.9601 16.1124 18.976 16.2182 18.9865C16.324 18.9971 16.4192 19.0024 16.5038 19.0024C17.075 19.0024 17.5298 18.849 17.8683 18.5423C18.2068 18.2355 18.3761 17.7965 18.3761 17.2253C18.3761 17.0032 18.2756 16.8921 18.0746 16.8921L17.7414 16.9239C17.551 16.9556 17.276 16.9715 16.9163 16.9715C16.4509 16.9715 16.0437 16.8816 15.6946 16.7017C15.3455 16.5219 15.0546 16.2839 14.8219 15.9877C14.5892 15.681 14.4147 15.3319 14.2983 14.9405C14.1925 14.5492 14.1397 14.1419 14.1397 13.7188V13.5284C14.1397 13.0947 14.1978 12.6928 14.3142 12.3225C14.4411 11.9417 14.6209 11.6138 14.8537 11.3388C15.0969 11.0638 15.3931 10.8469 15.7422 10.6883C16.1018 10.5296 16.5144 10.4503 16.9798 10.4503C17.2971 10.4503 17.6303 10.5137 17.9794 10.6407C18.1592 10.7041 18.3126 10.7517 18.4395 10.7835C18.577 10.8046 18.6987 10.8152 18.8045 10.8152H19.0107C19.2117 10.8152 19.3757 10.8945 19.5026 11.0532C19.6401 11.2119 19.7089 11.4446 19.7089 11.7513V12.1004C19.7089 12.185 19.6771 12.6875 19.6137 13.6077C19.5819 14.0732 19.5555 14.4804 19.5343 14.8295C19.5132 15.168 19.5026 15.4588 19.5026 15.7021L19.5819 17.2888C19.5819 18.2514 19.3016 18.9707 18.741 19.4467C18.1804 19.9332 17.4505 20.1765 16.5514 20.1765ZM15.2979 13.6712V13.9568C15.2979 14.602 15.409 15.1151 15.6311 15.4959C15.8638 15.8767 16.1812 16.0671 16.5831 16.0671H16.8211C17.1385 16.0671 17.3923 15.9983 17.5827 15.8608C17.7731 15.7233 17.9159 15.5488 18.0111 15.3372C18.1063 15.1151 18.1698 14.8771 18.2015 14.6232C18.2333 14.3588 18.2491 14.0996 18.2491 13.8457L18.265 13.4967V13.1476L18.2491 13.0683V12.862L18.2333 12.6081C18.2333 12.2273 18.1381 11.9312 17.9477 11.7196C17.7573 11.508 17.5087 11.4023 17.2019 11.4023H17.0274C16.5197 11.4023 16.1018 11.6085 15.7739 12.0211C15.4566 12.423 15.2979 12.9731 15.2979 13.6712Z" fill="#888888"/>
</svg>
