<svg width="24" height="24" viewBox="0 0 24 24" fill="none" xmlns="http://www.w3.org/2000/svg">
<path d="M3.23474 15.754L3.66874 15.488L6.94474 7.55L9.32474 7.34L12.1247 14.9C12.2181 15.1427 12.2834 15.3013 12.3207 15.376C12.3581 15.4507 12.4281 15.5533 12.5307 15.684L12.7827 16.006L12.6987 17H8.76474L8.62474 15.67L9.61874 15.418L9.17074 14.004L6.32874 14.046L6.02074 14.928C5.99274 15.012 5.97874 15.082 5.97874 15.138C5.97874 15.2033 5.98808 15.2547 6.00674 15.292C6.03474 15.32 6.07674 15.3433 6.13274 15.362L7.09874 15.768L6.95874 17H3.29074L3.23474 15.754ZM7.81274 9.734L6.88874 12.422L8.69474 12.506L7.81274 9.734ZM16.2255 20.192C15.1522 20.192 14.3402 20.024 13.7895 19.688C13.2482 19.352 12.9775 18.8573 12.9775 18.204C12.9775 17.5133 13.2949 16.9067 13.9295 16.384C13.7335 16.188 13.6355 15.9733 13.6355 15.74C13.6355 15.404 13.8549 14.928 14.2935 14.312C13.5282 13.9107 13.1455 13.22 13.1455 12.24C13.1455 11.3813 13.4349 10.7187 14.0135 10.252C14.6015 9.776 15.4462 9.538 16.5475 9.538C17.3222 9.538 17.9569 9.65467 18.4515 9.888L20.1315 9.37H20.7895V11.4H19.6975C19.7442 11.6333 19.7675 11.862 19.7675 12.086C19.7675 12.9447 19.4782 13.598 18.8995 14.046C18.3209 14.494 17.4715 14.718 16.3515 14.718C15.9689 14.718 15.6235 14.69 15.3155 14.634V14.83C15.3155 14.9793 15.3762 15.0867 15.4975 15.152C15.6282 15.208 15.9035 15.264 16.3235 15.32L17.5835 15.502C18.5729 15.642 19.2542 15.8847 19.6275 16.23C20.0102 16.5753 20.2015 17.0187 20.2015 17.56C20.2015 18.4 19.8562 19.0487 19.1655 19.506C18.4749 19.9633 17.4949 20.192 16.2255 20.192ZM16.5615 13.346C16.7575 13.346 16.9815 13.318 17.2335 13.262C17.2709 13.15 17.3035 12.982 17.3315 12.758C17.3689 12.534 17.3875 12.3287 17.3875 12.142C17.3875 11.722 17.2942 11.4093 17.1075 11.204C16.9302 10.9987 16.6502 10.896 16.2675 10.896C16.0809 10.896 15.8755 10.924 15.6515 10.98C15.6049 11.092 15.5629 11.2553 15.5255 11.47C15.4975 11.6847 15.4835 11.89 15.4835 12.086C15.4835 12.5153 15.5722 12.8327 15.7495 13.038C15.9269 13.2433 16.1975 13.346 16.5615 13.346ZM16.8695 18.61C17.2989 18.61 17.6255 18.5727 17.8495 18.498C17.9055 18.386 17.9335 18.2367 17.9335 18.05C17.9335 17.826 17.8542 17.6533 17.6955 17.532C17.5369 17.42 17.2522 17.336 16.8415 17.28L16.3935 17.21C15.9829 17.1633 15.5675 17.098 15.1475 17.014C15.0915 17.266 15.0635 17.4667 15.0635 17.616C15.0635 17.952 15.2129 18.1993 15.5115 18.358C15.8102 18.526 16.2629 18.61 16.8695 18.61Z" fill="#333333"/>
</svg>
