<svg width="24" height="24" viewBox="0 0 24 24" fill="none" xmlns="http://www.w3.org/2000/svg">
<path d="M5.96584 16L6.48384 13.942H10.1658L10.6838 16H12.2518L9.87184 6.41H6.77784L4.41184 16H5.96584ZM8.68184 7.712L9.85784 12.57H6.79184L7.98184 7.712H8.68184ZM19.5547 16.952C19.5547 18.4827 18.4487 19.248 16.2367 19.248C15.1727 19.248 14.384 19.1033 13.8707 18.814C13.3574 18.5247 13.1007 17.9973 13.1007 17.232C13.1007 16.8867 13.1847 16.588 13.3527 16.336C13.5207 16.0933 13.7914 15.8273 14.1647 15.538C13.8567 15.3233 13.7027 14.9827 13.7027 14.516C13.7027 14.3293 13.8287 14.026 14.0807 13.606L14.2067 13.396C13.5347 12.9853 13.1987 12.2853 13.1987 11.296C13.1987 10.4467 13.446 9.83067 13.9407 9.448C14.4447 9.056 15.1307 8.86 15.9987 8.86C16.428 8.86 16.834 8.90667 17.2167 9L17.4267 9.042L19.5967 8.986V10.218L18.4347 10.148C18.6867 10.4653 18.8127 10.848 18.8127 11.296C18.8127 11.7533 18.7567 12.136 18.6447 12.444C18.5327 12.752 18.3554 13.004 18.1127 13.2C17.8794 13.3867 17.5854 13.522 17.2307 13.606C16.876 13.6807 16.4514 13.718 15.9567 13.718C15.6954 13.718 15.49 13.6993 15.3407 13.662C15.21 13.998 15.1447 14.2407 15.1447 14.39C15.1447 14.5673 15.2334 14.6887 15.4107 14.754C15.4947 14.7913 15.6394 14.8193 15.8447 14.838C16.0594 14.8473 16.33 14.8567 16.6567 14.866C17.2167 14.866 17.6787 14.9033 18.0427 14.978C18.416 15.0433 18.7147 15.1553 18.9387 15.314C19.1627 15.4727 19.3214 15.6873 19.4147 15.958C19.508 16.2193 19.5547 16.5507 19.5547 16.952ZM14.7107 11.296C14.7107 11.7253 14.8134 12.0427 15.0187 12.248C15.224 12.444 15.5554 12.542 16.0127 12.542C16.47 12.542 16.7967 12.444 16.9927 12.248C17.198 12.0427 17.3007 11.7253 17.3007 11.296C17.3007 10.8667 17.198 10.554 16.9927 10.358C16.7874 10.1527 16.456 10.05 15.9987 10.05C15.14 10.05 14.7107 10.4653 14.7107 11.296ZM14.5987 17.092C14.5987 17.4187 14.7247 17.652 14.9767 17.792C15.238 17.932 15.6907 18.002 16.3347 18.002C17.464 18.002 18.0287 17.68 18.0287 17.036C18.0287 16.8587 18.0054 16.714 17.9587 16.602C17.912 16.49 17.8327 16.4013 17.7207 16.336C17.6087 16.28 17.4547 16.238 17.2587 16.21C17.072 16.1913 16.8294 16.182 16.5307 16.182L15.1587 16.098C14.9534 16.266 14.8087 16.42 14.7247 16.56C14.6407 16.7093 14.5987 16.8867 14.5987 17.092Z" fill="#888888"/>
</svg>
