<svg width="24" height="24" viewBox="0 0 24 24" fill="none" xmlns="http://www.w3.org/2000/svg">
<path d="M15.0547 16.5898C15.0638 16.6354 15.0592 16.681 15.041 16.7266C15.0319 16.763 15.0273 16.804 15.0273 16.8496C14.9544 16.8496 14.9089 16.8724 14.8906 16.918C14.8724 16.9635 14.8451 17.0091 14.8086 17.0547C14.7812 17.0365 14.7539 17.041 14.7266 17.0684C14.7083 17.0957 14.6855 17.1094 14.6582 17.1094C14.5306 17.0547 14.4303 17.0273 14.3574 17.0273C14.2845 17.0273 14.2253 17.0046 14.1797 16.959C14.1341 16.9954 14.0885 17 14.043 16.9727C14.0065 16.9453 13.9655 16.9316 13.9199 16.9316C13.8743 16.9225 13.8288 16.9225 13.7832 16.9316C13.7467 16.9408 13.7057 16.9408 13.6602 16.9316C13.5872 16.9134 13.528 16.8997 13.4824 16.8906C13.446 16.8815 13.3913 16.877 13.3184 16.877C13.2728 16.877 13.2318 16.8542 13.1953 16.8086C13.168 16.763 13.1133 16.7493 13.0312 16.7676C12.9583 16.7038 12.89 16.64 12.8262 16.5762C12.7715 16.5124 12.6986 16.4622 12.6074 16.4258C12.5983 16.3893 12.5801 16.3665 12.5527 16.3574C12.5254 16.3392 12.5117 16.3118 12.5117 16.2754C12.4753 16.2572 12.4479 16.2435 12.4297 16.2344C12.4206 16.2161 12.3932 16.2116 12.3477 16.2207C12.3294 16.1478 12.293 16.0885 12.2383 16.043C12.1836 15.9883 12.1426 15.9245 12.1152 15.8516C12.097 15.8242 12.0742 15.806 12.0469 15.7969C12.0195 15.7786 11.9967 15.7604 11.9785 15.7422C11.9329 15.6419 11.901 15.5872 11.8828 15.5781C11.8646 15.569 11.8646 15.5462 11.8828 15.5098C11.8646 15.4733 11.8372 15.4505 11.8008 15.4414C11.7734 15.4323 11.7552 15.4186 11.7461 15.4004C11.7279 15.3184 11.6823 15.25 11.6094 15.1953C11.5365 15.1406 11.4863 15.0905 11.459 15.0449C11.4772 14.972 11.4544 14.9128 11.3906 14.8672C11.3268 14.8216 11.2858 14.7669 11.2676 14.7031C11.2493 14.7305 11.2174 14.7487 11.1719 14.7578C11.1263 14.7578 11.0807 14.7578 11.0352 14.7578C10.9896 14.7487 10.944 14.7487 10.8984 14.7578C10.862 14.7669 10.8392 14.7897 10.8301 14.8262C10.7298 14.7988 10.6341 14.7988 10.543 14.8262C10.4518 14.8535 10.3561 14.8535 10.2559 14.8262C10.2103 14.8444 10.1738 14.8672 10.1465 14.8945C10.1191 14.9219 10.0827 14.9447 10.0371 14.9629C10.0007 14.9264 9.95508 14.9128 9.90039 14.9219C9.8457 14.9219 9.80469 14.9447 9.77734 14.9902C9.64974 14.9629 9.58138 14.9583 9.57227 14.9766C9.56315 14.9857 9.54492 14.9993 9.51758 15.0176C9.4082 14.9811 9.28971 14.9857 9.16211 15.0312C9.04362 15.0677 8.92513 15.0768 8.80664 15.0586C8.7793 15.0768 8.7474 15.0951 8.71094 15.1133C8.68359 15.1315 8.66536 15.1589 8.65625 15.1953C8.60156 15.1862 8.53776 15.1725 8.46484 15.1543C8.39193 15.127 8.33268 15.1224 8.28711 15.1406L8.17773 15.2773C8.15951 15.3776 8.12305 15.446 8.06836 15.4824C8.01367 15.5098 7.98177 15.5736 7.97266 15.6738C7.92708 15.7012 7.8724 15.724 7.80859 15.7422C7.80859 15.8607 7.77214 15.9473 7.69922 16.002C7.6263 16.0475 7.58529 16.1204 7.57617 16.2207C7.5306 16.2025 7.50326 16.2161 7.49414 16.2617C7.49414 16.3073 7.4668 16.321 7.41211 16.3027C7.39388 16.3392 7.37109 16.3757 7.34375 16.4121C7.31641 16.4395 7.28906 16.4714 7.26172 16.5078C7.11589 16.4987 7.02018 16.5671 6.97461 16.7129C6.76497 16.7311 6.60547 16.8268 6.49609 17C6.47786 17.0091 6.41862 17.0365 6.31836 17.082C6.22721 17.1367 6.17253 17.1732 6.1543 17.1914C6.13607 17.2096 6.08594 17.2188 6.00391 17.2188C5.92188 17.2279 5.86263 17.2598 5.82617 17.3145C5.75326 17.3327 5.69857 17.3236 5.66211 17.2871C5.58919 17.3236 5.47526 17.3464 5.32031 17.3555C5.17448 17.3737 5.06055 17.3874 4.97852 17.3965C4.87826 17.4329 4.8099 17.4375 4.77344 17.4102C4.74609 17.3919 4.70964 17.3783 4.66406 17.3691C4.63672 17.3691 4.60482 17.3737 4.56836 17.3828C4.54102 17.401 4.51367 17.4056 4.48633 17.3965C4.45898 17.3965 4.43164 17.3874 4.4043 17.3691C4.37695 17.36 4.34961 17.3509 4.32227 17.3418C4.27669 17.3327 4.22656 17.3281 4.17188 17.3281C4.1263 17.3372 4.08073 17.3327 4.03516 17.3145C3.96224 17.2689 3.91211 17.2507 3.88477 17.2598C3.86654 17.278 3.84831 17.2826 3.83008 17.2734C3.79362 17.2279 3.7526 17.196 3.70703 17.1777C3.67057 17.1595 3.63867 17.1276 3.61133 17.082C3.49284 17.0365 3.40625 17 3.35156 16.9727C3.30599 16.9362 3.27409 16.8861 3.25586 16.8223C3.1556 16.7311 3.06445 16.6719 2.98242 16.6445C2.99154 16.5443 2.96875 16.4714 2.91406 16.4258C2.85938 16.3802 2.79557 16.3392 2.72266 16.3027C2.67708 16.2025 2.66341 16.1387 2.68164 16.1113C2.69076 16.0749 2.6862 16.0384 2.66797 16.002C2.65885 15.9655 2.64062 15.9062 2.61328 15.8242C2.58594 15.7422 2.55859 15.6602 2.53125 15.5781C2.49479 15.4961 2.46289 15.4186 2.43555 15.3457C2.39909 15.2637 2.37174 15.2044 2.35352 15.168C2.37174 15.1042 2.38086 15.054 2.38086 15.0176C2.38086 14.972 2.37174 14.9173 2.35352 14.8535C2.3444 14.7624 2.3444 14.6986 2.35352 14.6621C2.36263 14.6165 2.35352 14.5573 2.32617 14.4844C2.41732 14.3841 2.46289 14.3158 2.46289 14.2793C2.45378 14.2428 2.47201 14.2064 2.51758 14.1699C2.52669 14.1335 2.52669 14.1061 2.51758 14.0879C2.49935 14.0697 2.49023 14.0469 2.49023 14.0195C2.54492 14.0104 2.58594 13.9876 2.61328 13.9512C2.63151 13.9147 2.64974 13.8737 2.66797 13.8281C2.67708 13.7826 2.69076 13.7415 2.70898 13.7051C2.72721 13.6686 2.75911 13.6413 2.80469 13.623C2.8138 13.5319 2.84115 13.459 2.88672 13.4043C2.92318 13.3405 2.96419 13.2767 3.00977 13.2129C3.05534 13.14 3.10091 13.0716 3.14648 13.0078C3.18294 12.944 3.20117 12.903 3.20117 12.8848C3.26497 12.8483 3.32422 12.8118 3.37891 12.7754C3.44271 12.7298 3.51107 12.6979 3.58398 12.6797C3.61133 12.6706 3.63867 12.6706 3.66602 12.6797C3.69336 12.6797 3.7207 12.6797 3.74805 12.6797C3.79362 12.6706 3.83464 12.6569 3.87109 12.6387C3.90755 12.6113 3.94401 12.5977 3.98047 12.5977C4.11719 12.625 4.21289 12.6341 4.26758 12.625C4.33138 12.6159 4.39518 12.6159 4.45898 12.625C4.49544 12.6341 4.52734 12.6432 4.55469 12.6523C4.59115 12.6615 4.6276 12.6706 4.66406 12.6797C4.73698 12.6888 4.80534 12.6934 4.86914 12.6934C4.93294 12.6934 4.98763 12.7344 5.0332 12.8164C5.06966 12.8073 5.10156 12.8073 5.12891 12.8164C5.15625 12.8255 5.17904 12.8392 5.19727 12.8574C5.21549 12.8665 5.23372 12.8757 5.25195 12.8848C5.27018 12.8848 5.29297 12.8757 5.32031 12.8574C5.39323 12.9212 5.43424 12.9531 5.44336 12.9531C5.46159 12.944 5.47982 12.9486 5.49805 12.9668C5.54362 12.9941 5.58464 13.0397 5.62109 13.1035C5.66667 13.1673 5.73958 13.2266 5.83984 13.2812C5.83984 13.3359 5.84896 13.3952 5.86719 13.459C5.89453 13.5228 5.91732 13.5866 5.93555 13.6504C5.96289 13.7051 5.97656 13.7643 5.97656 13.8281C5.98568 13.8828 5.97656 13.9375 5.94922 13.9922C5.95833 14.0195 5.96289 14.0514 5.96289 14.0879C5.97201 14.1243 5.98568 14.1517 6.00391 14.1699C5.98568 14.1882 5.97201 14.2155 5.96289 14.252C5.96289 14.2884 5.94922 14.3158 5.92188 14.334C5.94922 14.3796 5.96289 14.4297 5.96289 14.4844C5.97201 14.5391 5.98568 14.5938 6.00391 14.6484C5.95833 14.6393 5.93555 14.6576 5.93555 14.7031C5.93555 14.7396 5.91276 14.7487 5.86719 14.7305C5.86719 14.8398 5.82617 14.9128 5.74414 14.9492C5.66211 14.9766 5.59831 15.0312 5.55273 15.1133C5.42513 15.0677 5.34766 15.0312 5.32031 15.0039C5.29297 14.9674 5.26562 14.9447 5.23828 14.9355C5.17448 14.9264 5.13802 14.9128 5.12891 14.8945C5.11979 14.8672 5.10612 14.8444 5.08789 14.8262C4.99674 14.7533 4.95117 14.7168 4.95117 14.7168C4.96029 14.7077 4.94206 14.6849 4.89648 14.6484C4.87826 14.5846 4.8737 14.5254 4.88281 14.4707C4.89193 14.4069 4.88737 14.3431 4.86914 14.2793C4.91471 14.2155 4.95117 14.1745 4.97852 14.1562C5.01497 14.1289 5.04232 14.0742 5.06055 13.9922C5.06966 13.9102 5.06055 13.8509 5.0332 13.8145C5.01497 13.778 4.98307 13.7507 4.9375 13.7324C4.90104 13.7142 4.86003 13.7005 4.81445 13.6914C4.76888 13.6732 4.72786 13.6413 4.69141 13.5957C4.64583 13.5957 4.60026 13.5957 4.55469 13.5957C4.51823 13.5957 4.47721 13.5866 4.43164 13.5684C4.20378 13.5319 4.06706 13.5501 4.02148 13.623C3.98503 13.6868 3.93945 13.7051 3.88477 13.6777C3.86654 13.778 3.82552 13.86 3.76172 13.9238C3.69792 13.9876 3.6569 14.0697 3.63867 14.1699C3.55664 14.2702 3.50651 14.3477 3.48828 14.4023C3.47917 14.4479 3.46094 14.4935 3.43359 14.5391C3.42448 14.6302 3.41536 14.694 3.40625 14.7305C3.41536 14.8125 3.42448 14.8991 3.43359 14.9902C3.45182 15.0723 3.48828 15.1497 3.54297 15.2227C3.50651 15.3594 3.50195 15.4642 3.5293 15.5371C3.56576 15.6009 3.5931 15.651 3.61133 15.6875C3.63867 15.7331 3.67057 15.765 3.70703 15.7832C3.74349 15.8014 3.77539 15.8242 3.80273 15.8516C3.89388 15.9792 3.95312 16.0566 3.98047 16.084C4.08073 16.1842 4.20378 16.2708 4.34961 16.3438C4.49544 16.4076 4.63672 16.444 4.77344 16.4531C4.81901 16.4622 4.85547 16.4622 4.88281 16.4531C4.91927 16.4349 4.96029 16.4258 5.00586 16.4258C5.08789 16.4258 5.15625 16.4258 5.21094 16.4258C5.26562 16.4258 5.32943 16.3984 5.40234 16.3438C5.51172 16.3346 5.58008 16.321 5.60742 16.3027C5.63477 16.2845 5.67122 16.2754 5.7168 16.2754C5.77148 16.2663 5.8125 16.2663 5.83984 16.2754C5.8763 16.2754 5.90365 16.2708 5.92188 16.2617C5.94922 16.2526 5.97201 16.2344 5.99023 16.207C6.01758 16.1797 6.05859 16.1296 6.11328 16.0566C6.23177 16.0566 6.30013 15.9883 6.31836 15.8516C6.39128 15.8607 6.44141 15.8379 6.46875 15.7832C6.49609 15.7285 6.55078 15.6921 6.63281 15.6738C6.66927 15.6556 6.69661 15.6283 6.71484 15.5918C6.73307 15.5462 6.7513 15.5098 6.76953 15.4824C6.84245 15.4915 6.88802 15.4688 6.90625 15.4141C6.93359 15.3503 6.98372 15.3138 7.05664 15.3047C7.08398 15.1953 7.13411 15.1133 7.20703 15.0586C7.28906 14.9948 7.33464 14.8991 7.34375 14.7715C7.39844 14.6348 7.43945 14.5482 7.4668 14.5117C7.50326 14.4753 7.5306 14.4342 7.54883 14.3887C7.56706 14.334 7.58529 14.2793 7.60352 14.2246C7.62174 14.1699 7.63997 14.1198 7.6582 14.0742C7.66732 14.0013 7.69922 13.9466 7.75391 13.9102C7.75391 13.7917 7.78581 13.6823 7.84961 13.582C7.92253 13.4727 7.94531 13.3633 7.91797 13.2539C7.97266 13.2083 8 13.14 8 13.0488C8.00911 12.9577 8.05013 12.8939 8.12305 12.8574C8.11393 12.8301 8.10026 12.7891 8.08203 12.7344C8.07292 12.6706 8.07747 12.625 8.0957 12.5977C8.15039 12.5703 8.16862 12.543 8.15039 12.5156C8.14128 12.4883 8.14128 12.4655 8.15039 12.4473C8.19596 12.4382 8.21875 12.4154 8.21875 12.3789C8.22786 12.3424 8.25065 12.3197 8.28711 12.3105C8.27799 12.2467 8.28255 12.1921 8.30078 12.1465C8.32812 12.1009 8.35091 12.0508 8.36914 11.9961C8.36914 11.9688 8.36458 11.9414 8.35547 11.9141C8.35547 11.8867 8.36003 11.8639 8.36914 11.8457C8.41471 11.709 8.44206 11.6224 8.45117 11.5859C8.46029 11.5495 8.47396 11.513 8.49219 11.4766C8.51042 11.4036 8.52409 11.3353 8.5332 11.2715C8.55143 11.2077 8.57422 11.1439 8.60156 11.0801C8.61068 11.0436 8.61523 11.0117 8.61523 10.9844C8.61523 10.9479 8.61979 10.9115 8.62891 10.875C8.63802 10.8021 8.65169 10.7337 8.66992 10.6699C8.68815 10.6061 8.70638 10.5423 8.72461 10.4785C8.74284 10.4512 8.75651 10.4238 8.76562 10.3965C8.78385 10.3691 8.79753 10.3418 8.80664 10.3145C8.82487 10.2689 8.83854 10.2096 8.84766 10.1367C8.85677 10.0638 8.87044 10.0091 8.88867 9.97266C8.91602 9.89974 8.92057 9.84049 8.90234 9.79492C8.89323 9.74935 8.89779 9.70378 8.91602 9.6582C8.89779 9.61263 8.90234 9.58529 8.92969 9.57617C8.96615 9.56706 8.99349 9.55339 9.01172 9.53516C8.96615 9.44401 8.95703 9.38932 8.98438 9.37109C9.01172 9.34375 9.02995 9.32096 9.03906 9.30273C9.07552 9.22982 9.08464 9.14779 9.06641 9.05664C9.05729 8.95638 9.06641 8.86979 9.09375 8.79688C9.13021 8.66927 9.13932 8.58268 9.12109 8.53711C9.14844 8.43685 9.16667 8.34115 9.17578 8.25C9.19401 8.15885 9.22135 8.06315 9.25781 7.96289C9.26693 7.92643 9.26237 7.89909 9.24414 7.88086C9.23503 7.86263 9.23047 7.83529 9.23047 7.79883C9.30339 7.7168 9.3444 7.65755 9.35352 7.62109C9.37174 7.57552 9.38542 7.53451 9.39453 7.49805C9.41276 7.46159 9.42188 7.42969 9.42188 7.40234C9.43099 7.36589 9.41732 7.33398 9.38086 7.30664C9.45378 7.19727 9.48568 7.12435 9.47656 7.08789C9.46745 7.05143 9.47201 7.01953 9.49023 6.99219C9.55404 6.91927 9.58138 6.8737 9.57227 6.85547C9.57227 6.82812 9.59049 6.81901 9.62695 6.82812C9.68164 6.67318 9.75911 6.58659 9.85938 6.56836C9.96875 6.54102 10.0645 6.50456 10.1465 6.45898C10.1921 6.48633 10.2285 6.50456 10.2559 6.51367C10.2923 6.51367 10.3333 6.50456 10.3789 6.48633C10.4245 6.5319 10.4655 6.57292 10.502 6.60938C10.5475 6.64583 10.5931 6.68685 10.6387 6.73242C10.6296 6.82357 10.625 6.91471 10.625 7.00586C10.6341 7.09701 10.6387 7.18815 10.6387 7.2793C10.6478 7.32487 10.6706 7.35677 10.707 7.375C10.7435 7.38411 10.7572 7.41146 10.748 7.45703L10.6934 7.62109C10.7389 7.73047 10.7526 7.80794 10.7344 7.85352C10.7161 7.88997 10.7298 7.93555 10.7754 7.99023C10.748 8.06315 10.7344 8.14518 10.7344 8.23633C10.7435 8.31836 10.748 8.40039 10.748 8.48242C10.7936 8.58268 10.8255 8.67383 10.8438 8.75586C10.8711 8.83789 10.8848 8.91536 10.8848 8.98828C10.8848 9.04297 10.8802 9.09766 10.8711 9.15234C10.862 9.20703 10.8665 9.26172 10.8848 9.31641C10.9212 9.42578 10.9303 9.4987 10.9121 9.53516C10.8939 9.5625 10.9076 9.57161 10.9531 9.5625C10.9349 9.70833 10.9303 9.85417 10.9395 10C10.9577 10.1458 10.9896 10.2871 11.0352 10.4238C10.9896 10.4694 10.9668 10.5286 10.9668 10.6016C10.9668 10.6654 10.9714 10.7337 10.9805 10.8066C10.9987 10.8796 11.0169 10.9525 11.0352 11.0254C11.0534 11.0892 11.0625 11.1348 11.0625 11.1621C11.0443 11.2441 11.0397 11.2988 11.0488 11.3262C11.0671 11.3535 11.0807 11.3763 11.0898 11.3945C11.1081 11.4401 11.1172 11.4948 11.1172 11.5586C11.1263 11.6224 11.1628 11.6634 11.2266 11.6816C11.2083 11.709 11.1992 11.7454 11.1992 11.791C11.1992 11.8275 11.1992 11.8594 11.1992 11.8867C11.1901 11.9323 11.2038 11.9642 11.2402 11.9824C11.2767 11.9915 11.2949 12.0143 11.2949 12.0508C11.304 12.1328 11.3086 12.2012 11.3086 12.2559C11.3177 12.3014 11.3587 12.3561 11.4316 12.4199C11.4134 12.4928 11.4134 12.5566 11.4316 12.6113C11.4499 12.666 11.4727 12.7253 11.5 12.7891C11.5273 12.8438 11.5547 12.903 11.582 12.9668C11.6094 13.0215 11.6185 13.0807 11.6094 13.1445C11.6549 13.2174 11.696 13.2904 11.7324 13.3633C11.7689 13.4362 11.8236 13.4954 11.8965 13.541C11.8874 13.5866 11.8874 13.6185 11.8965 13.6367C11.9147 13.6458 11.9238 13.6686 11.9238 13.7051C12.0423 13.696 12.1562 13.6777 12.2656 13.6504C12.3841 13.623 12.498 13.6322 12.6074 13.6777C12.6712 13.6322 12.7214 13.6048 12.7578 13.5957C12.8034 13.5775 12.849 13.5684 12.8945 13.5684C12.931 13.5501 12.9629 13.5319 12.9902 13.5137C13.0267 13.4954 13.0677 13.4772 13.1133 13.459C13.2135 13.4408 13.2637 13.4225 13.2637 13.4043C13.2728 13.3861 13.2819 13.3724 13.291 13.3633C13.3275 13.3542 13.3685 13.3633 13.4141 13.3906C13.4596 13.4089 13.4961 13.3997 13.5234 13.3633C13.6055 13.4271 13.6602 13.459 13.6875 13.459C13.724 13.459 13.7604 13.4681 13.7969 13.4863C13.806 13.5319 13.8242 13.5866 13.8516 13.6504C13.8789 13.7051 13.8743 13.7552 13.8379 13.8008C13.7741 13.8646 13.724 13.9102 13.6875 13.9375C13.6602 13.9648 13.6328 14.0013 13.6055 14.0469C13.5508 14.0651 13.4961 14.0833 13.4414 14.1016C13.3867 14.1198 13.3366 14.1426 13.291 14.1699C13.2454 14.1973 13.1953 14.2383 13.1406 14.293C13.0951 14.3385 13.0495 14.3704 13.0039 14.3887C12.8945 14.3887 12.8353 14.3932 12.8262 14.4023C12.8262 14.4115 12.8171 14.4206 12.7988 14.4297C12.7533 14.4479 12.7031 14.4616 12.6484 14.4707C12.6029 14.4798 12.5573 14.4935 12.5117 14.5117C12.5026 14.5391 12.5072 14.5801 12.5254 14.6348C12.5436 14.6803 12.5664 14.7259 12.5938 14.7715C12.6211 14.8171 12.6484 14.8581 12.6758 14.8945C12.7122 14.931 12.7441 14.9538 12.7715 14.9629C12.7715 15.0176 12.7852 15.0677 12.8125 15.1133C12.8398 15.1589 12.8854 15.1862 12.9492 15.1953C12.9766 15.3047 13.0085 15.3776 13.0449 15.4141C13.0905 15.4414 13.1224 15.4824 13.1406 15.5371C13.2135 15.5918 13.2728 15.6283 13.3184 15.6465C13.3275 15.6829 13.3457 15.7103 13.373 15.7285C13.4004 15.7376 13.4277 15.7513 13.4551 15.7695C13.4642 15.7969 13.4779 15.8197 13.4961 15.8379C13.5234 15.8561 13.5417 15.8789 13.5508 15.9062C13.569 15.9062 13.5964 15.9154 13.6328 15.9336C13.6784 15.9518 13.724 15.9701 13.7695 15.9883C13.8151 16.0065 13.8561 16.0293 13.8926 16.0566C13.9382 16.084 13.9655 16.1022 13.9746 16.1113C14.1022 16.0749 14.1751 16.0703 14.1934 16.0977C14.2207 16.1159 14.2526 16.1296 14.2891 16.1387C14.3346 16.1569 14.3848 16.166 14.4395 16.166C14.5033 16.166 14.5579 16.1751 14.6035 16.1934C14.64 16.2116 14.6719 16.2344 14.6992 16.2617C14.7266 16.2891 14.763 16.2936 14.8086 16.2754C14.8542 16.321 14.8906 16.3757 14.918 16.4395C14.9453 16.4941 14.9909 16.5443 15.0547 16.5898ZM9.88672 10.1914C9.88672 10.2188 9.8776 10.2415 9.85938 10.2598C9.85026 10.278 9.85026 10.3053 9.85938 10.3418C9.90495 10.3509 9.93229 10.3281 9.94141 10.2734C9.95052 10.2188 9.93229 10.1914 9.88672 10.1914ZM10.8301 13.8828C10.8392 13.8099 10.8301 13.7552 10.8027 13.7188C10.7754 13.6823 10.7572 13.6322 10.748 13.5684C10.7116 13.541 10.6751 13.5137 10.6387 13.4863C10.6113 13.4499 10.5885 13.4089 10.5703 13.3633C10.5521 13.3268 10.5475 13.2949 10.5566 13.2676C10.5658 13.2402 10.5703 13.2083 10.5703 13.1719C10.5521 13.0534 10.5156 12.944 10.4609 12.8438C10.4062 12.7344 10.3516 12.625 10.2969 12.5156C10.3151 12.4792 10.3197 12.4518 10.3105 12.4336C10.3105 12.4154 10.306 12.3835 10.2969 12.3379C10.2513 12.265 10.2194 12.1875 10.2012 12.1055C10.1921 12.0143 10.1647 11.9323 10.1191 11.8594C10.1374 11.832 10.151 11.8092 10.1602 11.791C10.1784 11.7637 10.1829 11.7272 10.1738 11.6816C10.1191 11.6452 10.0872 11.5951 10.0781 11.5312C10.069 11.4583 10.0599 11.39 10.0508 11.3262C10.0508 11.2533 10.0417 11.1849 10.0234 11.1211C10.0143 11.0573 9.97786 11.0072 9.91406 10.9707C9.95964 10.9434 9.96419 10.9115 9.92773 10.875C9.90039 10.8294 9.89583 10.7839 9.91406 10.7383C9.96875 10.7018 9.97331 10.6608 9.92773 10.6152C9.89128 10.5605 9.89583 10.4967 9.94141 10.4238C9.85026 10.3965 9.78646 10.4284 9.75 10.5195C9.72266 10.6016 9.73177 10.6562 9.77734 10.6836C9.75911 10.7109 9.73633 10.7383 9.70898 10.7656C9.69076 10.793 9.67253 10.8203 9.6543 10.8477C9.62695 10.9753 9.59505 11.112 9.55859 11.2578C9.53125 11.4036 9.47201 11.5267 9.38086 11.627C9.36263 11.7272 9.34896 11.8275 9.33984 11.9277C9.33984 12.0189 9.33073 12.11 9.3125 12.2012C9.26693 12.3105 9.23503 12.3835 9.2168 12.4199C9.19857 12.4473 9.1849 12.4792 9.17578 12.5156C9.12109 12.6797 9.08464 12.7845 9.06641 12.8301C9.05729 12.9212 9.04818 12.985 9.03906 13.0215C9.03906 13.0579 9.02995 13.0944 9.01172 13.1309C8.99349 13.1491 8.9707 13.1719 8.94336 13.1992C8.92513 13.2174 8.9069 13.2448 8.88867 13.2812C8.92513 13.4089 8.91602 13.5319 8.86133 13.6504C8.80664 13.7689 8.7793 13.8919 8.7793 14.0195C8.82487 14.0469 8.87044 14.0514 8.91602 14.0332C8.9707 14.015 9.02083 14.0013 9.06641 13.9922C9.13932 14.0469 9.23503 14.0605 9.35352 14.0332C9.47201 14.0059 9.57682 14.0104 9.66797 14.0469C9.75 13.974 9.87305 13.9466 10.0371 13.9648C10.2012 13.974 10.3333 13.9831 10.4336 13.9922C10.4883 13.9922 10.5202 13.974 10.5293 13.9375C10.5384 13.901 10.5658 13.8828 10.6113 13.8828C10.6296 13.9375 10.6615 13.9557 10.707 13.9375C10.7617 13.9193 10.8027 13.901 10.8301 13.8828ZM20.0996 18.9414C20.054 18.9961 20.0267 19.0462 20.0176 19.0918C20.0085 19.1465 20.0176 19.1738 20.0449 19.1738C20.0358 19.2103 20.0176 19.2331 19.9902 19.2422C19.9629 19.2604 19.9401 19.2832 19.9219 19.3105C19.9036 19.3288 19.8945 19.3516 19.8945 19.3789C19.9036 19.4154 19.9036 19.4427 19.8945 19.4609C19.8672 19.4883 19.8307 19.5247 19.7852 19.5703C19.7396 19.625 19.694 19.6797 19.6484 19.7344C19.612 19.7891 19.5755 19.8438 19.5391 19.8984C19.5117 19.9622 19.498 20.0124 19.498 20.0488C19.4616 20.0488 19.4342 20.0579 19.416 20.0762C19.4069 20.1035 19.3796 20.1172 19.334 20.1172C19.3249 20.1354 19.2975 20.1628 19.252 20.1992C19.2155 20.2357 19.1699 20.2721 19.1152 20.3086C19.0697 20.3542 19.0241 20.3906 18.9785 20.418C18.9421 20.4544 18.9147 20.4772 18.8965 20.4863C18.8783 20.5228 18.8509 20.5501 18.8145 20.5684C18.7871 20.5957 18.7689 20.6322 18.7598 20.6777C18.5775 20.7051 18.4225 20.7917 18.2949 20.9375C18.1764 20.9466 18.0625 20.9466 17.9531 20.9375C17.9076 20.9284 17.8711 20.9375 17.8438 20.9648C17.8255 20.9922 17.8027 21.015 17.7754 21.0332C17.748 21.0514 17.7207 21.056 17.6934 21.0469C17.666 21.0378 17.6387 21.0423 17.6113 21.0605C17.4746 21.1426 17.3424 21.1745 17.2148 21.1562C17.0964 21.1471 16.9733 21.1426 16.8457 21.1426C16.7819 21.1426 16.709 21.1426 16.627 21.1426C16.5449 21.1517 16.4629 21.1517 16.3809 21.1426C16.2988 21.1426 16.2214 21.1289 16.1484 21.1016C16.0846 21.0742 16.0299 21.0286 15.9844 20.9648C15.957 20.9831 15.9251 20.9876 15.8887 20.9785C15.8613 20.9694 15.8294 20.9557 15.793 20.9375C15.7656 20.9284 15.7337 20.9193 15.6973 20.9102C15.6699 20.901 15.638 20.9102 15.6016 20.9375C15.5924 20.8919 15.5651 20.86 15.5195 20.8418C15.4831 20.8327 15.4557 20.8099 15.4375 20.7734C15.3555 20.7188 15.2962 20.6823 15.2598 20.6641C15.2324 20.6549 15.2096 20.6367 15.1914 20.6094C15.1823 20.5911 15.1686 20.5684 15.1504 20.541C15.1322 20.5228 15.1048 20.5137 15.0684 20.5137C15.0684 20.4681 15.0456 20.3861 15 20.2676C14.9635 20.1491 14.9362 20.0671 14.918 20.0215C14.8724 19.9395 14.8542 19.8893 14.8633 19.8711C14.8815 19.862 14.8906 19.8483 14.8906 19.8301L14.918 19.625C14.9362 19.4883 14.9727 19.3971 15.0273 19.3516C15.0911 19.3151 15.1139 19.2513 15.0957 19.1602C15.1413 19.1419 15.1686 19.1146 15.1777 19.0781C15.196 19.0508 15.2051 19.0143 15.2051 18.9688L15.3828 18.8594C15.401 18.8138 15.4329 18.7728 15.4785 18.7363C15.5241 18.6999 15.5697 18.6725 15.6152 18.6543C15.6335 18.5996 15.6608 18.554 15.6973 18.5176C15.7428 18.4902 15.7611 18.4401 15.752 18.3672C15.8066 18.3581 15.8613 18.349 15.916 18.3398C15.9707 18.3307 16.0208 18.3125 16.0664 18.2852C16.0938 18.2487 16.1211 18.2214 16.1484 18.2031C16.1849 18.194 16.2031 18.1621 16.2031 18.1074C16.2852 18.1165 16.3672 18.1074 16.4492 18.0801C16.5404 18.0618 16.6315 18.0618 16.7227 18.0801C16.7682 18.0892 16.8092 18.1029 16.8457 18.1211C16.8913 18.1484 16.9368 18.153 16.9824 18.1348C17.0007 18.1895 17.0462 18.2214 17.1191 18.2305C17.1921 18.2487 17.2513 18.2669 17.2969 18.2852C17.2878 18.3307 17.2878 18.3672 17.2969 18.3945C17.3151 18.4219 17.3242 18.4583 17.3242 18.5039C17.3242 18.5404 17.3379 18.5677 17.3652 18.5859C17.3926 18.6042 17.4154 18.627 17.4336 18.6543C17.4518 18.6908 17.4564 18.7272 17.4473 18.7637C17.4382 18.8092 17.4473 18.8411 17.4746 18.8594C17.4837 18.9049 17.4609 18.9414 17.4062 18.9688C17.3607 18.9961 17.3242 19.0234 17.2969 19.0508C17.2786 19.069 17.2513 19.1009 17.2148 19.1465C17.1875 19.1921 17.1647 19.2194 17.1465 19.2285C16.9277 19.2832 16.7865 19.2513 16.7227 19.1328C16.6042 19.0964 16.5358 19.0918 16.5176 19.1191C16.4993 19.1465 16.4811 19.1738 16.4629 19.2012C16.4355 19.1829 16.4082 19.1784 16.3809 19.1875C16.3626 19.2057 16.3353 19.2103 16.2988 19.2012C16.2988 19.2012 16.2806 19.2148 16.2441 19.2422C16.2077 19.2695 16.1667 19.2969 16.1211 19.3242C16.0755 19.3516 16.0299 19.3789 15.9844 19.4062C15.9479 19.4336 15.9297 19.4473 15.9297 19.4473C15.9297 19.5475 15.9206 19.6068 15.9023 19.625C15.8932 19.6523 15.8796 19.6706 15.8613 19.6797C15.8522 19.6888 15.8385 19.7025 15.8203 19.7207C15.8112 19.7389 15.8066 19.7845 15.8066 19.8574C15.7884 19.903 15.7975 19.9258 15.834 19.9258C15.8704 19.9349 15.8978 19.9486 15.916 19.9668C15.9616 20.0671 15.9935 20.1172 16.0117 20.1172C16.0299 20.1263 16.0482 20.1354 16.0664 20.1445C16.1484 20.1901 16.2031 20.2083 16.2305 20.1992C16.2669 20.1992 16.3262 20.2083 16.4082 20.2266C16.5996 20.2904 16.7682 20.3177 16.9141 20.3086C17.0599 20.3086 17.1875 20.2995 17.2969 20.2812C17.388 20.2266 17.4564 20.1947 17.502 20.1855C17.5475 20.1855 17.5885 20.1764 17.625 20.1582C17.6706 20.1491 17.707 20.1354 17.7344 20.1172C17.7617 20.099 17.7754 20.0762 17.7754 20.0488C17.8301 20.0762 17.8848 20.0807 17.9395 20.0625C17.9941 20.0443 18.0443 20.0124 18.0898 19.9668C18.1354 19.9303 18.181 19.8893 18.2266 19.8438C18.2721 19.7982 18.3132 19.7617 18.3496 19.7344C18.377 19.7161 18.4134 19.6979 18.459 19.6797C18.5046 19.6706 18.5182 19.6432 18.5 19.5977C18.5365 19.6068 18.5638 19.5977 18.582 19.5703C18.6003 19.5521 18.6276 19.543 18.6641 19.543C18.6641 19.4974 18.6777 19.4564 18.7051 19.4199C18.7324 19.3926 18.7415 19.3561 18.7324 19.3105C18.8783 19.2741 18.9694 19.1784 19.0059 19.0234C19.0423 18.8776 19.0742 18.7454 19.1016 18.627C19.0833 18.5723 19.0651 18.5039 19.0469 18.4219C19.0378 18.3398 19.056 18.276 19.1016 18.2305C19.0651 18.1484 19.0423 18.0618 19.0332 17.9707C19.0332 17.8796 19.015 17.793 18.9785 17.7109C18.9147 17.5651 18.8737 17.4421 18.8555 17.3418C18.8464 17.2415 18.8053 17.1641 18.7324 17.1094C18.7689 17.0091 18.7552 16.9089 18.6914 16.8086C18.6367 16.7083 18.6094 16.6081 18.6094 16.5078C18.6094 16.4622 18.5957 16.4395 18.5684 16.4395C18.5501 16.4303 18.5365 16.4076 18.5273 16.3711C18.5091 16.3438 18.5046 16.3164 18.5137 16.2891C18.5319 16.2526 18.5182 16.2207 18.4727 16.1934C18.418 16.1934 18.3633 16.2344 18.3086 16.3164C18.263 16.3984 18.1992 16.4258 18.1172 16.3984C18.0443 16.4167 17.9714 16.4395 17.8984 16.4668C17.8255 16.4941 17.7663 16.5352 17.7207 16.5898C17.6751 16.5898 17.6159 16.5898 17.543 16.5898C17.4792 16.5898 17.4336 16.6126 17.4062 16.6582C17.3607 16.6309 17.3151 16.6263 17.2695 16.6445C17.2331 16.6628 17.1921 16.6673 17.1465 16.6582C17.0371 16.6217 16.9688 16.6126 16.9414 16.6309C16.9232 16.64 16.9004 16.6445 16.873 16.6445C16.8092 16.6445 16.7318 16.64 16.6406 16.6309C16.5586 16.6126 16.4902 16.5898 16.4355 16.5625C16.2897 16.599 16.1758 16.5853 16.0938 16.5215C16.0117 16.4577 15.916 16.403 15.8066 16.3574C15.7793 16.3392 15.752 16.3346 15.7246 16.3438C15.7064 16.3438 15.679 16.3483 15.6426 16.3574C15.6335 16.3118 15.6243 16.2663 15.6152 16.2207C15.6061 16.166 15.5924 16.1204 15.5742 16.084C15.556 16.0658 15.5332 16.0566 15.5059 16.0566C15.4785 16.0475 15.4557 16.0339 15.4375 16.0156C15.4466 15.9701 15.4329 15.929 15.3965 15.8926C15.3691 15.8561 15.3464 15.8151 15.3281 15.7695C15.2643 15.7057 15.2188 15.6647 15.1914 15.6465C15.1641 15.6283 15.1413 15.61 15.123 15.5918C15.0957 15.4642 15.0365 15.3685 14.9453 15.3047C14.9271 15.2318 14.918 15.168 14.918 15.1133C14.918 15.0495 14.9271 14.9811 14.9453 14.9082C14.9544 14.8535 14.9408 14.8216 14.9043 14.8125C14.877 14.8034 14.8633 14.7852 14.8633 14.7578C14.8542 14.6758 14.8587 14.5983 14.877 14.5254C14.8952 14.4525 14.8815 14.3796 14.8359 14.3066C14.9544 14.2155 14.9909 14.0924 14.9453 13.9375C14.9909 13.8737 15.0273 13.8145 15.0547 13.7598C15.082 13.7051 15.0957 13.6322 15.0957 13.541C15.1504 13.459 15.2096 13.3952 15.2734 13.3496C15.3372 13.2949 15.3737 13.2129 15.3828 13.1035C15.4375 13.0944 15.4648 13.0716 15.4648 13.0352C15.4648 12.9896 15.474 12.9531 15.4922 12.9258C15.556 12.8711 15.6016 12.8118 15.6289 12.748C15.6562 12.6842 15.6699 12.6432 15.6699 12.625C15.7428 12.6159 15.793 12.584 15.8203 12.5293C15.8477 12.4746 15.8841 12.429 15.9297 12.3926C15.9661 12.3743 16.0072 12.3652 16.0527 12.3652C16.0983 12.3652 16.112 12.3333 16.0938 12.2695C16.194 12.2422 16.2578 12.224 16.2852 12.2148C16.3216 12.2057 16.3626 12.1966 16.4082 12.1875C16.4447 12.1784 16.4629 12.1602 16.4629 12.1328C16.4629 12.0964 16.4811 12.0781 16.5176 12.0781C16.5905 12.0781 16.6589 12.069 16.7227 12.0508C16.7956 12.0326 16.8639 12.0234 16.9277 12.0234C17.0645 12.0234 17.1966 12.0234 17.3242 12.0234C17.4518 12.0234 17.5658 12.0326 17.666 12.0508C17.7025 12.1146 17.7526 12.1602 17.8164 12.1875C17.8802 12.2148 17.9258 12.265 17.9531 12.3379C18.026 12.3379 18.0807 12.3379 18.1172 12.3379C18.1536 12.3379 18.1764 12.3333 18.1855 12.3242C18.2038 12.3151 18.2174 12.2969 18.2266 12.2695C18.2448 12.2422 18.2676 12.2057 18.2949 12.1602C18.3496 12.151 18.3906 12.1283 18.418 12.0918C18.4453 12.0553 18.4818 12.0234 18.5273 11.9961C18.6458 12.0052 18.7415 12.0371 18.8145 12.0918C18.8874 12.1374 18.974 12.1693 19.0742 12.1875C19.1016 12.2695 19.1107 12.3516 19.1016 12.4336C19.1016 12.5156 19.1016 12.5977 19.1016 12.6797C19.1198 12.7982 19.1243 12.8848 19.1152 12.9395C19.1061 12.985 19.1107 13.0215 19.1289 13.0488C19.1289 13.1582 19.1426 13.2266 19.1699 13.2539C19.2064 13.2812 19.2018 13.2995 19.1562 13.3086C19.1745 13.418 19.1927 13.4863 19.2109 13.5137C19.2292 13.541 19.2474 13.5684 19.2656 13.5957C19.2656 13.6868 19.2565 13.778 19.2383 13.8691C19.2201 13.9512 19.2109 14.0378 19.2109 14.1289C19.2109 14.1562 19.2155 14.1836 19.2246 14.2109C19.2337 14.2292 19.2383 14.252 19.2383 14.2793C19.2292 14.3249 19.2109 14.3704 19.1836 14.416C19.1654 14.4525 19.1471 14.4935 19.1289 14.5391C19.1471 14.6211 19.1562 14.694 19.1562 14.7578C19.1654 14.8125 19.1562 14.8809 19.1289 14.9629C19.1471 15.0085 19.1654 15.0449 19.1836 15.0723C19.2109 15.0905 19.2292 15.1224 19.2383 15.168C19.1927 15.1497 19.1745 15.168 19.1836 15.2227C19.1927 15.2682 19.1836 15.2956 19.1562 15.3047C19.1745 15.3594 19.1973 15.4004 19.2246 15.4277C19.2611 15.446 19.2747 15.4915 19.2656 15.5645C19.2839 15.5918 19.2975 15.6237 19.3066 15.6602C19.3249 15.6875 19.3522 15.7103 19.3887 15.7285C19.3887 15.7376 19.3887 15.7604 19.3887 15.7969C19.3978 15.8333 19.4069 15.8743 19.416 15.9199C19.4342 15.9564 19.4479 15.9974 19.457 16.043C19.4753 16.0794 19.4889 16.1022 19.498 16.1113C19.5163 16.1478 19.5527 16.1934 19.6074 16.248C19.5618 16.3301 19.5482 16.3939 19.5664 16.4395C19.5938 16.4759 19.6211 16.5215 19.6484 16.5762C19.6758 16.6217 19.694 16.6719 19.7031 16.7266C19.7122 16.7721 19.7031 16.8223 19.6758 16.877C19.694 16.9316 19.7214 16.9954 19.7578 17.0684C19.8034 17.1413 19.8125 17.2096 19.7852 17.2734C19.8125 17.3099 19.8444 17.3418 19.8809 17.3691C19.9173 17.3965 19.9447 17.4329 19.9629 17.4785C19.9629 17.5059 19.9629 17.5378 19.9629 17.5742C19.972 17.6107 19.9674 17.638 19.9492 17.6562C19.9948 17.7839 20.0221 17.9069 20.0312 18.0254C20.0404 18.1439 20.0632 18.2669 20.0996 18.3945C20.054 18.4857 20.0358 18.5768 20.0449 18.668C20.0632 18.7591 20.0814 18.8503 20.0996 18.9414ZM18.2949 13.623C18.2767 13.6048 18.2721 13.5775 18.2812 13.541C18.2904 13.5046 18.2812 13.4772 18.2539 13.459C18.2357 13.4225 18.1992 13.3678 18.1445 13.2949C18.0716 13.2949 18.0169 13.2676 17.9805 13.2129C17.944 13.1582 17.8893 13.1217 17.8164 13.1035C17.7617 13.0397 17.7207 12.9987 17.6934 12.9805C17.6751 12.9622 17.6523 12.9577 17.625 12.9668C17.6068 12.9668 17.584 12.9805 17.5566 13.0078C17.5293 13.026 17.4883 13.0443 17.4336 13.0625C17.4154 13.026 17.3743 13.0169 17.3105 13.0352C17.2559 13.0534 17.2331 13.0306 17.2422 12.9668C17.1146 12.9395 16.9915 12.9486 16.873 12.9941C16.7637 13.0306 16.6543 13.0671 16.5449 13.1035C16.5358 13.1582 16.5039 13.2038 16.4492 13.2402C16.3945 13.2767 16.3809 13.3177 16.4082 13.3633C16.3535 13.3542 16.3262 13.3724 16.3262 13.418C16.3262 13.4635 16.2988 13.4818 16.2441 13.4727C16.2168 13.5456 16.194 13.5911 16.1758 13.6094C16.1667 13.6185 16.1484 13.6322 16.1211 13.6504C16.1393 13.7233 16.1257 13.7689 16.0801 13.7871C16.0345 13.8053 16.0026 13.8372 15.9844 13.8828C15.9753 13.974 15.9616 14.0241 15.9434 14.0332C15.9342 14.0423 15.9251 14.056 15.916 14.0742C15.8978 14.1107 15.8932 14.1517 15.9023 14.1973C15.9115 14.2337 15.9069 14.2702 15.8887 14.3066C15.8431 14.4342 15.8203 14.5618 15.8203 14.6895C15.8294 14.8171 15.8522 14.9173 15.8887 14.9902C15.916 15.054 15.9525 15.1133 15.998 15.168C16.0527 15.2135 16.1029 15.2591 16.1484 15.3047C16.2305 15.3958 16.2806 15.4596 16.2988 15.4961C16.3171 15.5234 16.3444 15.5462 16.3809 15.5645C16.4173 15.5827 16.4492 15.5872 16.4766 15.5781C16.5039 15.569 16.5312 15.5736 16.5586 15.5918C16.6406 15.6374 16.709 15.6602 16.7637 15.6602C16.8184 15.651 16.8548 15.6556 16.873 15.6738C16.9824 15.6283 17.0508 15.61 17.0781 15.6191C17.1055 15.6283 17.1328 15.6283 17.1602 15.6191C17.1966 15.6283 17.2194 15.6465 17.2285 15.6738C17.2467 15.6921 17.2695 15.7103 17.2969 15.7285C17.3698 15.6647 17.4564 15.6237 17.5566 15.6055C17.666 15.5872 17.7708 15.5234 17.8711 15.4141C17.8984 15.3867 17.9258 15.3685 17.9531 15.3594C17.9896 15.3503 18.0124 15.3229 18.0215 15.2773C18.0306 15.2682 18.0443 15.25 18.0625 15.2227C18.0807 15.1862 18.099 15.1497 18.1172 15.1133C18.1445 15.0677 18.1628 15.0267 18.1719 14.9902C18.1901 14.9447 18.2038 14.9128 18.2129 14.8945C18.2493 14.8945 18.2493 14.8535 18.2129 14.7715C18.1855 14.6895 18.1855 14.6393 18.2129 14.6211C18.2311 14.5573 18.2448 14.5072 18.2539 14.4707C18.2721 14.4342 18.2767 14.3796 18.2676 14.3066C18.3223 14.2246 18.3405 14.1152 18.3223 13.9785C18.3132 13.8418 18.304 13.7233 18.2949 13.623Z" fill="#333333"/>
</svg>
