<svg width="24" height="24" viewBox="0 0 24 24" fill="none" xmlns="http://www.w3.org/2000/svg">
<path d="M12.4434 17.0684C12.3659 17.0592 12.2018 17.0456 11.9512 17.0273C11.7005 17.0091 11.4727 17 11.2676 17C10.5749 17 9.95964 17.0091 9.42188 17.0273C8.88867 17.0456 8.55143 17.0592 8.41016 17.0684L8.3418 16.0498L9.16895 15.9199L9.09375 15.1953L8.90234 14.4912H6.25684L6.01758 15.3867L5.93555 15.9199L6.74219 16.0908L6.67383 17.0684C6.58268 17.0592 6.37988 17.0456 6.06543 17.0273C5.75098 17.0091 5.45931 17 5.19043 17C4.69368 17 4.26758 17.0091 3.91211 17.0273C3.5612 17.0456 3.33789 17.0592 3.24219 17.0684L3.17383 16.0498L3.80273 15.9473L4.39062 14.7441L7.03613 7.12891L8.6084 6.97852L11.4043 15.209L11.7256 15.9609L12.5117 16.0908L12.4434 17.0684ZM7.6377 10.0273L6.63281 13.3428L8.5332 13.3154L7.6377 10.0273ZM18.7393 11.1484C18.8714 11.3444 18.9648 11.5426 19.0195 11.7432C19.0788 11.9437 19.1084 12.1829 19.1084 12.4609C19.1084 12.9668 18.9808 13.4134 18.7256 13.8008C18.4749 14.1882 18.1217 14.4889 17.666 14.7031C17.2148 14.9173 16.6908 15.0244 16.0938 15.0244C15.7565 15.0244 15.4398 14.988 15.1436 14.915C15.0114 15.0745 14.9453 15.1999 14.9453 15.291C14.9453 15.4414 15.0342 15.5576 15.2119 15.6396C15.3896 15.7171 15.6882 15.7786 16.1074 15.8242C17.0781 15.929 17.7572 16.0088 18.1445 16.0635C18.5319 16.1182 18.8099 16.1774 18.9785 16.2412C19.4616 16.4281 19.7054 16.8633 19.71 17.5469C19.71 18.0527 19.5436 18.5153 19.2109 18.9346C18.8783 19.3538 18.4248 19.6842 17.8506 19.9258C17.2764 20.1673 16.6452 20.2881 15.957 20.2881C14.9408 20.2881 14.1729 20.1195 13.6533 19.7822C13.1338 19.4495 12.874 18.9505 12.874 18.2852C12.874 18.1348 12.9925 17.9479 13.2295 17.7246C13.471 17.5013 13.7832 17.278 14.166 17.0547C13.9609 16.9043 13.8083 16.7266 13.708 16.5215C13.6123 16.3164 13.5645 16.0658 13.5645 15.7695C13.5645 15.5827 13.8493 15.209 14.4189 14.6484C14.0179 14.4342 13.7035 14.1426 13.4756 13.7734C13.2523 13.4043 13.1406 12.9873 13.1406 12.5225C13.1406 12.0166 13.266 11.57 13.5166 11.1826C13.7718 10.7952 14.125 10.4945 14.5762 10.2803C15.0273 10.0661 15.5537 9.95898 16.1553 9.95898C16.7432 9.95898 17.2513 10.057 17.6797 10.2529L19.5117 9.94531L19.5664 11.1484H18.7393ZM16.1553 10.8818C15.5674 10.8818 15.2734 11.4378 15.2734 12.5498C15.2734 13.5843 15.5514 14.1016 16.1074 14.1016C16.4082 14.1016 16.627 13.9671 16.7637 13.6982C16.9049 13.4248 16.9756 13.0033 16.9756 12.4336C16.9756 11.9095 16.9072 11.5199 16.7705 11.2646C16.6383 11.0094 16.4333 10.8818 16.1553 10.8818ZM14.9932 17.3896C14.8245 17.6175 14.7402 17.8431 14.7402 18.0664C14.7402 18.4219 14.8952 18.693 15.2051 18.8799C15.5195 19.0713 15.9753 19.167 16.5723 19.167C17.0098 19.167 17.3561 19.0872 17.6113 18.9277C17.8711 18.7728 18.001 18.5586 18.001 18.2852C18.001 18.153 17.96 18.0459 17.8779 17.9639C17.8005 17.8818 17.6865 17.8317 17.5361 17.8135L15.7178 17.5332C15.4079 17.4876 15.1663 17.4398 14.9932 17.3896Z" fill="#888888"/>
</svg>
