<svg width="24" height="24" viewBox="0 0 24 24" fill="none" xmlns="http://www.w3.org/2000/svg">
<path d="M11.0283 17C10.7002 17 10.3265 17.0091 9.90723 17.0273C9.48796 17.0456 9.19401 17.0592 9.02539 17.0684L8.9707 16.3848L9.99609 16.1045L9.61328 14.5938L9.31934 13.7529H6.24316L5.79199 15.2227L5.65527 16.1045L6.63281 16.2412L6.56445 17H5.36133C5.01497 17 4.65039 17.0091 4.26758 17.0273C3.88477 17.0456 3.61816 17.0592 3.46777 17.0684L3.41309 16.3848L4.29492 16.1455L4.89648 14.7578L7.40527 7.12891L8.21191 6.99219L11.0967 14.915L11.6436 16.1045L12.5117 16.2412L12.4434 17H11.0283ZM7.72656 9.2002L6.49609 13.0488L9.03906 12.9941L7.72656 9.2002ZM18.3154 10.7588C18.7438 11.2054 18.958 11.7842 18.958 12.4951C18.958 13.2607 18.7096 13.8737 18.2129 14.334C17.7207 14.7943 17.069 15.0244 16.2578 15.0244C15.9206 15.0244 15.6038 14.9834 15.3076 14.9014C15.057 15.1885 14.9294 15.3844 14.9248 15.4893C14.9248 15.6305 15.0114 15.7308 15.1846 15.79C15.3577 15.8493 15.7109 15.9108 16.2441 15.9746L16.8594 16.0635C17.2695 16.109 17.6729 16.1615 18.0693 16.2207C18.4658 16.2754 18.7575 16.3346 18.9443 16.3984C19.1494 16.4622 19.3044 16.5967 19.4092 16.8018C19.5186 17.0068 19.5732 17.278 19.5732 17.6152C19.5732 18.0983 19.4137 18.5426 19.0947 18.9482C18.7803 19.3584 18.3496 19.6842 17.8027 19.9258C17.2559 20.1673 16.6611 20.2881 16.0186 20.2881C15.1117 20.2881 14.4235 20.1149 13.9541 19.7686C13.4847 19.4268 13.25 18.9232 13.25 18.2578C13.25 18.1348 13.3685 17.9434 13.6055 17.6836C13.8424 17.4238 14.1478 17.1436 14.5215 16.8428C14.2708 16.738 14.0885 16.6058 13.9746 16.4463C13.8607 16.2822 13.8037 16.0749 13.8037 15.8242C13.8037 15.6374 14.141 15.2637 14.8154 14.7031C14.4144 14.4889 14.1045 14.1904 13.8857 13.8076C13.667 13.4248 13.5576 12.9873 13.5576 12.4951C13.5576 11.7295 13.8037 11.1165 14.2959 10.6562C14.7926 10.1914 15.4466 9.95898 16.2578 9.95898C16.791 9.95898 17.2809 10.0706 17.7275 10.2939L19.4365 10.0273V10.8408L18.3154 10.7588ZM16.2578 10.6699C15.2689 10.6745 14.7744 11.2829 14.7744 12.4951C14.7744 13.7074 15.2689 14.3135 16.2578 14.3135C17.2467 14.3135 17.7412 13.7074 17.7412 12.4951C17.7412 11.2829 17.2467 10.6745 16.2578 10.6699ZM15.0547 17.0137C14.8086 17.3145 14.6468 17.5355 14.5693 17.6768C14.4919 17.8226 14.4531 17.9661 14.4531 18.1074C14.4531 18.5814 14.6104 18.93 14.9248 19.1533C15.2438 19.3812 15.7383 19.4951 16.4082 19.4951C16.987 19.4951 17.4609 19.3607 17.8301 19.0918C18.1992 18.8275 18.3838 18.4811 18.3838 18.0527C18.3838 17.8385 18.3428 17.6859 18.2607 17.5947C18.1833 17.5081 18.042 17.4489 17.8369 17.417L16.0186 17.1846C15.6449 17.1481 15.3236 17.0911 15.0547 17.0137Z" fill="#888888"/>
</svg>
