<svg width="24" height="24" viewBox="0 0 24 24" fill="none" xmlns="http://www.w3.org/2000/svg">
<path d="M8.6736 9.98571L7.4736 13.4857H9.90218L8.71646 9.98571H8.6736ZM7.4736 16.0714C7.24503 16.0238 6.86408 16 6.33075 16C5.79741 16 5.38313 16.0238 5.08789 16.0714L5.23075 15.4H5.44503C5.61646 15.4 5.76884 15.381 5.90218 15.3429C6.03551 15.1619 6.12599 15 6.1736 14.8571C6.23075 14.7048 6.29741 14.519 6.3736 14.3C6.45932 14.081 6.55932 13.8286 6.6736 13.5429C6.78789 13.2571 6.90694 12.9476 7.03075 12.6143C7.16408 12.281 7.29741 11.9524 7.43075 11.6286L8.43075 9.11429H8.8736C9.10218 9.11429 9.29265 9.14286 9.44503 9.2L11.5593 14.7571C11.6736 15.0333 11.7688 15.2286 11.845 15.3429C11.9974 15.381 12.1498 15.4 12.3022 15.4H12.5165L12.6593 16.0714C12.3927 16.0238 12.1022 16 11.7879 16H11.1165C10.7069 16 10.3593 16.0238 10.0736 16.0714L9.9736 15.4H10.0593C10.2307 15.4 10.3927 15.381 10.545 15.3429C10.545 15.2 10.4974 15.0143 10.4022 14.7857L10.0736 13.9857H7.31646L7.05932 14.7571C6.98313 14.9857 6.94503 15.1667 6.94503 15.3C6.94503 15.3667 7.06408 15.4 7.30218 15.4H7.51646L7.4736 16.0714ZM13.7484 15.6857C13.4913 15.6476 13.3627 15.4286 13.3627 15.0286C13.3627 14.8476 13.4103 14.6667 13.5056 14.4857C13.6103 14.3048 13.7627 14.1857 13.9627 14.1286V14.1143C13.4389 13.8095 13.177 13.3238 13.177 12.6571C13.177 11.8571 13.5722 11.319 14.3627 11.0429C14.6103 10.9571 14.8818 10.9143 15.177 10.9143C15.4818 10.9143 15.8342 10.9857 16.2342 11.1286L17.4484 10.9714C17.6199 10.9714 17.7199 11.0048 17.7484 11.0714C17.777 11.1381 17.7913 11.2857 17.7913 11.5143V11.6143H16.7342C17.0008 11.9381 17.1342 12.2619 17.1342 12.5857C17.1342 13.1857 16.9532 13.6524 16.5913 13.9857C16.2294 14.319 15.6722 14.4857 14.9199 14.4857C14.8627 14.4857 14.6437 14.4619 14.2627 14.4143C14.2342 14.4524 14.2151 14.4952 14.2056 14.5429C14.1961 14.581 14.1818 14.6238 14.1627 14.6714C14.1532 14.719 14.1484 14.7857 14.1484 14.8714C14.1484 14.9571 14.2056 15.0238 14.3199 15.0714C14.4342 15.119 14.677 15.1429 15.0484 15.1429C15.8865 15.1429 16.4913 15.2381 16.8627 15.4286C17.3294 15.6571 17.5627 16.0667 17.5627 16.6571C17.5627 17.6476 16.7246 18.1429 15.0484 18.1429C13.9627 18.1429 13.277 17.8524 12.9913 17.2714C12.9056 17.1 12.8627 16.919 12.8627 16.7286C12.8627 16.2333 13.158 15.8952 13.7484 15.7143V15.6857ZM16.6627 16.6857C16.6627 16.4 16.5675 16.181 16.377 16.0286C16.1865 15.8857 15.8294 15.8143 15.3056 15.8143C14.7818 15.8143 14.4246 15.8238 14.2342 15.8429C13.9199 16.2238 13.7627 16.5286 13.7627 16.7571C13.7627 16.9857 13.8294 17.1524 13.9627 17.2571C14.2389 17.4762 14.5865 17.5857 15.0056 17.5857C15.7008 17.5857 16.1484 17.5095 16.3484 17.3571C16.558 17.2048 16.6627 16.981 16.6627 16.6857ZM16.2199 12.7143C16.2199 11.8857 15.8675 11.4714 15.1627 11.4714C14.7818 11.4714 14.5056 11.5762 14.3342 11.7857C14.1627 11.9857 14.077 12.2429 14.077 12.5571C14.077 12.8714 14.1008 13.1 14.1484 13.2429C14.2056 13.3857 14.2865 13.5048 14.3913 13.6C14.5818 13.7714 14.8342 13.8571 15.1484 13.8571C15.4627 13.8571 15.7199 13.7667 15.9199 13.5857C16.1199 13.4048 16.2199 13.1143 16.2199 12.7143Z" fill="#333333"/>
</svg>
