<svg width="24" height="24" viewBox="0 0 24 24" fill="none" xmlns="http://www.w3.org/2000/svg">
<path d="M7.96582 8.4668C7.94759 8.43945 7.92936 8.42578 7.91113 8.42578C7.88379 8.42578 7.86556 8.43945 7.85645 8.4668L6.53711 11.8164C6.50977 11.8802 6.53027 11.9121 6.59863 11.9121H9.12793C9.20085 11.9121 9.22591 11.8802 9.20312 11.8164L7.96582 8.4668ZM9.32617 16C9.2806 16 9.25781 15.9772 9.25781 15.9316V15.5693C9.25781 15.5192 9.2806 15.4941 9.32617 15.4941L10.4199 15.3848C10.4473 15.3848 10.4655 15.3757 10.4746 15.3574C10.4837 15.3392 10.4837 15.3164 10.4746 15.2891L9.43555 12.541C9.41732 12.5137 9.39909 12.5 9.38086 12.5H6.33203C6.30924 12.5046 6.29102 12.5182 6.27734 12.541L5.16992 15.3164C5.14714 15.3757 5.16992 15.4076 5.23828 15.4121L6.29102 15.4941C6.33659 15.4987 6.35938 15.5238 6.35938 15.5693V15.9316C6.35938 15.9772 6.33659 16 6.29102 16H3.2627C3.21712 16 3.19434 15.9772 3.19434 15.9316V15.5693C3.19434 15.5192 3.21712 15.4941 3.2627 15.4941L4.41113 15.3848C4.43392 15.3802 4.45215 15.3665 4.46582 15.3438L8.02734 6.38184C8.04557 6.35449 8.0638 6.34082 8.08203 6.34082H8.43066C8.45345 6.34538 8.47168 6.35905 8.48535 6.38184L11.7598 15.3301C11.7689 15.3574 11.7894 15.3711 11.8213 15.3711L12.9355 15.4941C12.9766 15.4941 12.9971 15.5192 12.9971 15.5693V15.9316C12.9971 15.9772 12.972 16 12.9219 16H9.32617ZM15.5264 16.3896C15.2575 16.4352 15.0228 16.597 14.8223 16.875C14.6217 17.1576 14.5215 17.4401 14.5215 17.7227C14.5215 18.5977 15.1367 19.0352 16.3672 19.0352C16.9414 19.0352 17.4154 18.9303 17.7891 18.7207C18.2493 18.4564 18.4795 18.0576 18.4795 17.5244C18.4795 16.7679 17.887 16.3896 16.7021 16.3896H15.5264ZM16.4082 13.6348C16.8958 13.6348 17.2285 13.359 17.4062 12.8076C17.4701 12.6071 17.502 12.3496 17.502 12.0352C17.502 10.8913 17.1191 10.3193 16.3535 10.3193C15.8249 10.3193 15.4717 10.6042 15.2939 11.1738C15.2256 11.3926 15.1914 11.6523 15.1914 11.9531C15.1914 12.5319 15.3236 12.974 15.5879 13.2793C15.793 13.5163 16.0664 13.6348 16.4082 13.6348ZM15.4307 14.0791C15.1025 14.2705 14.9385 14.4824 14.9385 14.7148C14.9385 15.0612 15.0798 15.2549 15.3623 15.2959C15.4535 15.3096 15.5605 15.3164 15.6836 15.3164H16.7705C17.3812 15.3164 17.8346 15.3483 18.1309 15.4121C18.6413 15.5169 19.0241 15.7357 19.2793 16.0684C19.4388 16.2734 19.5413 16.5218 19.5869 16.8135C19.6051 16.9274 19.6143 17.0299 19.6143 17.1211C19.6143 17.7135 19.4023 18.2194 18.9785 18.6387C18.6048 19.0078 18.1126 19.2767 17.502 19.4453C17.1009 19.5547 16.6611 19.6094 16.1826 19.6094C15.4762 19.6094 14.8815 19.5 14.3984 19.2812C13.7513 18.9896 13.4277 18.5316 13.4277 17.9072C13.4277 17.5791 13.569 17.2487 13.8516 16.916C14.1068 16.6107 14.3984 16.3942 14.7266 16.2666C14.4896 16.2028 14.2982 16.0706 14.1523 15.8701C14.0065 15.665 13.9336 15.4372 13.9336 15.1865C13.9336 14.7171 14.2777 14.2751 14.9658 13.8604C14.305 13.4456 13.9746 12.8327 13.9746 12.0215C13.9746 11.3561 14.2161 10.8047 14.6992 10.3672C15.1686 9.9388 15.7383 9.72461 16.4082 9.72461C16.7637 9.72461 17.0964 9.79069 17.4062 9.92285H19.4502C19.4958 9.92285 19.5186 9.94564 19.5186 9.99121V10.3467C19.5186 10.3877 19.4958 10.4105 19.4502 10.415L18.2129 10.5107C18.5684 10.9027 18.7461 11.3835 18.7461 11.9531C18.7461 12.6048 18.5114 13.1471 18.042 13.5801C17.5771 14.0085 17.0143 14.2227 16.3535 14.2227C16.0072 14.2227 15.6995 14.1748 15.4307 14.0791Z" fill="#888888"/>
</svg>
