<svg width="24" height="24" viewBox="0 0 24 24" fill="none" xmlns="http://www.w3.org/2000/svg">
<path d="M9.18761 14.1732H5.11491L4.42904 15.5556H2.22786L6.05067 8.25022H8.25184L12.0747 15.5556H9.87348L9.18761 14.1732ZM5.82205 12.7483H8.4911L7.16189 10.0579L5.82205 12.7483ZM17.9763 8.06413C18.6923 8.06413 19.357 8.12616 19.9702 8.25022C20.5869 8.37073 21.1523 8.52669 21.6662 8.7181V10.5046C21.4642 10.3911 21.2356 10.2812 20.9804 10.1749C20.7287 10.0686 20.454 9.97465 20.1563 9.89312C19.8585 9.8116 19.5395 9.74602 19.1992 9.6964C18.8589 9.64677 18.5009 9.62196 18.1252 9.62196C17.6573 9.62196 17.2497 9.65563 16.9023 9.72298C16.555 9.79033 16.2572 9.88071 16.0091 9.99414C15.761 10.1076 15.5572 10.2405 15.3977 10.3929C15.2382 10.5418 15.1123 10.7013 15.0202 10.8714C14.928 11.0416 14.8642 11.2152 14.8288 11.3925C14.7933 11.5697 14.7756 11.7416 14.7756 11.9082C14.7756 12.0535 14.7898 12.2113 14.8181 12.3814C14.85 12.5515 14.9068 12.7217 14.9883 12.8918C15.0734 13.062 15.1903 13.225 15.3392 13.381C15.4881 13.5369 15.6812 13.6752 15.9187 13.7957C16.1598 13.9162 16.4486 14.0137 16.7854 14.0881C17.1221 14.159 17.5226 14.1944 17.987 14.1944C18.2209 14.1944 18.4247 14.1874 18.5984 14.1732C18.7721 14.159 18.9298 14.1395 19.0716 14.1147C19.2169 14.0899 19.3516 14.0598 19.4757 14.0243C19.6033 13.9889 19.7344 13.9516 19.8691 13.9127V13.0301H17.6573V11.4297H21.8417V15.1621C21.5794 15.2507 21.2852 15.3322 20.9591 15.4067C20.6365 15.4776 20.3016 15.5378 19.9542 15.5875C19.6104 15.6406 19.2648 15.6814 18.9174 15.7097C18.5701 15.7381 18.2422 15.7523 17.9338 15.7523C17.4553 15.7523 16.9963 15.7204 16.5567 15.6566C16.1172 15.5928 15.7061 15.4953 15.3232 15.3641C14.944 15.2295 14.5966 15.0593 14.2811 14.8537C13.9692 14.6481 13.7016 14.4036 13.4783 14.12C13.2585 13.8364 13.0866 13.5121 12.9626 13.147C12.842 12.7784 12.7818 12.3655 12.7818 11.9082C12.7818 11.4545 12.8456 11.0433 12.9732 10.6747C13.1008 10.3061 13.278 9.97996 13.5049 9.6964C13.7353 9.41283 14.01 9.16826 14.329 8.96267C14.6515 8.75709 15.0042 8.58872 15.387 8.45757C15.7734 8.32288 16.1846 8.22363 16.6206 8.15983C17.0601 8.09603 17.512 8.06413 17.9763 8.06413Z" fill="#888888"/>
</svg>
