<svg width="24" height="24" viewBox="0 0 24 24" fill="none" xmlns="http://www.w3.org/2000/svg">
<path d="M11.2591 17.49C11.0911 17.49 10.9511 17.42 10.8391 17.28C10.7364 17.1493 10.6851 16.9813 10.6851 16.776C10.6851 16.636 10.7178 16.524 10.7831 16.44C10.6618 16.1973 10.5498 15.9453 10.4471 15.684C10.3538 15.4227 10.2558 15.1613 10.1531 14.9C10.0971 14.76 10.0411 14.62 9.98509 14.48C9.92909 14.34 9.87309 14.2 9.81709 14.06V14.144C9.74243 14.144 9.66309 14.1533 9.57909 14.172C9.49509 14.1813 9.40176 14.1907 9.29909 14.2C9.23376 14.2093 9.16843 14.214 9.10309 14.214C9.04709 14.214 8.98176 14.214 8.90709 14.214C8.75776 14.214 8.60376 14.2093 8.44509 14.2C8.28643 14.1907 8.13243 14.186 7.98309 14.186C7.91776 14.186 7.85243 14.1907 7.78709 14.2C7.73109 14.2 7.67976 14.2047 7.63309 14.214C7.48376 14.2233 7.32043 14.256 7.14309 14.312C6.97509 14.3587 6.78376 14.382 6.56909 14.382C6.44776 14.382 6.33109 14.382 6.21909 14.382C6.11643 14.3727 6.01376 14.3633 5.91109 14.354C5.88309 14.4287 5.85509 14.5033 5.82709 14.578C5.79909 14.6527 5.77109 14.7273 5.74309 14.802C5.51909 15.39 5.34176 15.8567 5.21109 16.202C5.08043 16.538 4.97776 16.79 4.90309 16.958C4.82843 17.1167 4.76309 17.2193 4.70709 17.266L4.09109 16.51C4.10043 16.5007 4.13309 16.4307 4.18909 16.3C4.24509 16.16 4.31043 15.992 4.38509 15.796C4.45976 15.5907 4.53443 15.39 4.60909 15.194C4.68376 14.998 4.74909 14.83 4.80509 14.69C4.86109 14.5407 4.89376 14.4613 4.90309 14.452C5.17376 13.7333 5.41176 13.0053 5.61709 12.268C5.83176 11.5213 6.07443 10.7793 6.34509 10.042C6.61576 9.30467 6.97976 8.59533 7.43709 7.914L7.64709 8.082L8.55709 7.816C8.63176 8.10533 8.73443 8.39467 8.86509 8.684C8.99576 8.97333 9.12643 9.28133 9.25709 9.608C9.41576 9.98133 9.53709 10.3547 9.62109 10.728C9.71443 11.1013 9.82643 11.4607 9.95709 11.806C10.1158 12.2353 10.2884 12.674 10.4751 13.122C10.6618 13.57 10.8438 14.0273 11.0211 14.494C11.1238 14.7647 11.2264 15.0307 11.3291 15.292C11.4411 15.5533 11.5624 15.8147 11.6931 16.076C11.8331 16.3467 11.9264 16.5707 11.9731 16.748C12.0198 16.916 11.9731 17.0653 11.8331 17.196C11.6278 17.392 11.4364 17.49 11.2591 17.49ZM6.21909 13.402C6.28443 13.3833 6.34509 13.3693 6.40109 13.36C6.45709 13.3507 6.51309 13.346 6.56909 13.346C6.69976 13.346 6.83976 13.3507 6.98909 13.36C7.14776 13.36 7.32043 13.346 7.50709 13.318C7.58176 13.3087 7.65643 13.304 7.73109 13.304C7.81509 13.2947 7.89909 13.29 7.98309 13.29C8.14176 13.29 8.30043 13.2947 8.45909 13.304C8.61776 13.3133 8.76709 13.318 8.90709 13.318H9.20109C9.24776 13.3087 9.29443 13.304 9.34109 13.304C9.39709 13.2947 9.44843 13.2853 9.49509 13.276C9.42976 13.0987 9.36443 12.9213 9.29909 12.744C9.23376 12.5667 9.16376 12.3893 9.08909 12.212C8.94909 11.8387 8.83243 11.47 8.73909 11.106C8.65509 10.7327 8.54309 10.378 8.40309 10.042C8.32843 9.86467 8.24443 9.68733 8.15109 9.51C8.06709 9.32333 7.98776 9.12733 7.91309 8.922C7.51176 9.60333 7.18976 10.3267 6.94709 11.092C6.71376 11.848 6.47109 12.618 6.21909 13.402ZM13.5103 20.01C13.4543 20.01 13.4029 20.0053 13.3563 19.996C13.3096 19.996 13.2536 19.9913 13.1883 19.982C12.6843 19.926 12.2689 19.716 11.9422 19.352C11.6062 18.9973 11.4382 18.568 11.4382 18.064H12.2082C12.2082 18.2507 12.3156 18.4187 12.5302 18.568C12.7356 18.7267 12.9876 18.8247 13.2863 18.862C13.3143 18.8713 13.3469 18.876 13.3843 18.876C13.4309 18.876 13.4729 18.876 13.5103 18.876C13.7249 18.876 13.9443 18.8573 14.1683 18.82C14.3923 18.7827 14.5929 18.75 14.7703 18.722C15.4236 18.638 15.9229 18.5027 16.2683 18.316C16.6136 18.1293 16.8749 17.9053 17.0523 17.644C17.2389 17.392 17.4069 17.1307 17.5563 16.86C17.7896 16.4493 17.9716 15.9733 18.1023 15.432C18.2423 14.8813 18.3496 14.3167 18.4243 13.738C18.5083 13.15 18.5736 12.604 18.6203 12.1C18.6203 12.0533 18.6203 12.002 18.6203 11.946C18.6296 11.8807 18.6343 11.8153 18.6343 11.75C18.6343 11.6473 18.6296 11.5493 18.6203 11.456C18.6203 11.3627 18.6156 11.2693 18.6063 11.176C18.5223 11.4187 18.3869 11.6753 18.2003 11.946C17.8923 12.3847 17.5749 12.828 17.2483 13.276C16.9216 13.724 16.5716 14.1487 16.1983 14.55C15.9929 14.774 15.7783 14.9887 15.5543 15.194C15.3396 15.39 15.1436 15.6047 14.9663 15.838C14.9569 15.8567 14.9056 15.9267 14.8123 16.048C14.7189 16.16 14.6023 16.286 14.4623 16.426C14.3316 16.566 14.1916 16.692 14.0423 16.804C13.9023 16.9067 13.7763 16.958 13.6643 16.958C13.5803 16.958 13.5103 16.93 13.4543 16.874C13.3049 16.7247 13.2303 16.3747 13.2303 15.824C13.2303 15.5533 13.2443 15.2873 13.2723 15.026C13.3003 14.7647 13.3236 14.5687 13.3423 14.438C13.3983 14.0833 13.4683 13.682 13.5523 13.234C13.6363 12.786 13.7529 12.338 13.9023 11.89C14.0516 11.4327 14.2429 11.0173 14.4763 10.644C14.7096 10.2707 15.0036 9.986 15.3583 9.79C15.4236 9.75267 15.4983 9.734 15.5823 9.734C15.7316 9.734 15.9043 9.77133 16.1003 9.846C16.2963 9.92067 16.4783 10.0047 16.6463 10.098C16.8236 10.182 16.9496 10.2427 17.0243 10.28C17.1456 10.3453 17.2949 10.4153 17.4723 10.49C17.6589 10.5647 17.7989 10.6673 17.8923 10.798C17.9296 10.686 17.9483 10.4993 17.9483 10.238V10.056C17.9483 9.85067 18.0136 9.69667 18.1443 9.594C18.2843 9.482 18.4383 9.42133 18.6063 9.412C18.7836 9.39333 18.9376 9.43067 19.0683 9.524C19.2083 9.61733 19.2783 9.76667 19.2783 9.972C19.2783 10.2053 19.2969 10.4713 19.3343 10.77C19.3716 11.0687 19.3903 11.3953 19.3903 11.75C19.3903 11.8247 19.3903 11.904 19.3903 11.988C19.3903 12.072 19.3856 12.142 19.3763 12.198C19.3203 12.7673 19.2456 13.3647 19.1523 13.99C19.0589 14.6153 18.9423 15.2173 18.8023 15.796C18.6623 16.3653 18.4849 16.8507 18.2703 17.252C18.1583 17.4667 18.0276 17.7047 17.8783 17.966C17.7289 18.2367 17.5329 18.498 17.2903 18.75C17.0476 19.0113 16.7303 19.24 16.3383 19.436C15.9556 19.632 15.4656 19.7673 14.8683 19.842C14.6629 19.87 14.4389 19.9027 14.1963 19.94C13.9629 19.9867 13.7343 20.01 13.5103 20.01ZM15.7223 10.77H15.7083C15.7083 10.7793 15.7129 10.7793 15.7223 10.77ZM15.7083 10.784C15.7083 10.784 15.7036 10.784 15.6943 10.784C15.7036 10.784 15.7083 10.784 15.7083 10.784ZM15.6943 10.798C15.6943 10.7887 15.6896 10.7887 15.6803 10.798H15.6943ZM14.0003 15.572C14.0656 15.5067 14.1263 15.4413 14.1823 15.376C14.2476 15.3013 14.3083 15.2267 14.3643 15.152C14.6536 14.7693 14.9009 14.4847 15.1063 14.298C15.3116 14.102 15.4889 13.9247 15.6383 13.766C16.0489 13.3273 16.4083 12.898 16.7163 12.478C17.0336 12.058 17.3229 11.6613 17.5843 11.288C17.6589 11.176 17.7196 11.092 17.7663 11.036C17.8129 10.9707 17.8503 10.9053 17.8783 10.84L17.3323 11.484C17.3883 11.5493 17.3603 11.568 17.2483 11.54C17.1363 11.512 16.9449 11.428 16.6743 11.288C16.6463 11.2693 16.5623 11.2273 16.4223 11.162C16.2916 11.0873 16.1469 11.022 15.9883 10.966C15.8296 10.9007 15.6943 10.868 15.5823 10.868H15.5963C15.6149 10.8493 15.6289 10.8353 15.6383 10.826C15.6476 10.8167 15.6523 10.812 15.6523 10.812C15.3723 10.98 15.1389 11.2133 14.9523 11.512C14.7656 11.8107 14.6069 12.2073 14.4763 12.702C14.3456 13.1967 14.2196 13.8313 14.0983 14.606C14.0703 14.7553 14.0469 14.914 14.0283 15.082C14.0189 15.25 14.0096 15.4133 14.0003 15.572Z" fill="#888888"/>
</svg>
