<svg width="24" height="24" viewBox="0 0 24 24" fill="none" xmlns="http://www.w3.org/2000/svg">
<path d="M5.49684 14.746V13.542H10.3688V14.746H5.49684ZM3.52284 17L7.23284 7.914H8.66084L12.3988 17H10.9428L7.69484 8.796H8.19884L4.96484 17H3.52284ZM16.3317 15.908C15.7531 15.908 15.2211 15.7913 14.7357 15.558C14.2504 15.3247 13.8631 14.984 13.5737 14.536C13.2937 14.088 13.1537 13.5467 13.1537 12.912C13.1537 12.2867 13.2937 11.75 13.5737 11.302C13.8537 10.8447 14.2317 10.4947 14.7077 10.252C15.1931 10 15.7344 9.874 16.3317 9.874C16.5091 9.874 16.6771 9.888 16.8357 9.916C16.9944 9.93467 17.1484 9.96733 17.2977 10.014H20.3497V11.274C19.9297 11.274 19.5051 11.204 19.0757 11.064C18.6557 10.924 18.2871 10.7747 17.9697 10.616L17.9277 10.546C18.2451 10.714 18.5204 10.9193 18.7537 11.162C18.9871 11.3953 19.1644 11.6613 19.2857 11.96C19.4164 12.2493 19.4817 12.576 19.4817 12.94C19.4817 13.556 19.3417 14.088 19.0617 14.536C18.7911 14.984 18.4131 15.3247 17.9277 15.558C17.4517 15.7913 16.9197 15.908 16.3317 15.908ZM18.4737 19.828V19.506C18.4737 19.03 18.3431 18.6893 18.0817 18.484C17.8204 18.2787 17.4377 18.176 16.9337 18.176H15.2957C14.9504 18.176 14.6564 18.148 14.4137 18.092C14.1711 18.036 13.9704 17.952 13.8117 17.84C13.6531 17.7373 13.5364 17.6067 13.4617 17.448C13.3871 17.2987 13.3497 17.1307 13.3497 16.944C13.3497 16.58 13.4617 16.3047 13.6857 16.118C13.9097 15.9313 14.1944 15.8147 14.5397 15.768C14.8851 15.712 15.2351 15.7073 15.5897 15.754L16.3317 15.908C15.7997 15.936 15.3937 15.9873 15.1137 16.062C14.8337 16.1367 14.6937 16.2953 14.6937 16.538C14.6937 16.678 14.7497 16.79 14.8617 16.874C14.9737 16.958 15.1324 17 15.3377 17H17.0457C17.5777 17 18.0491 17.0653 18.4597 17.196C18.8797 17.336 19.2064 17.5647 19.4397 17.882C19.6824 18.2087 19.8037 18.652 19.8037 19.212V19.828H18.4737ZM16.3317 14.774C16.6677 14.774 16.9711 14.704 17.2417 14.564C17.5217 14.4147 17.7457 14.2047 17.9137 13.934C18.0817 13.654 18.1657 13.318 18.1657 12.926C18.1657 12.5247 18.0817 12.184 17.9137 11.904C17.7551 11.6147 17.5357 11.4 17.2557 11.26C16.9757 11.1107 16.6677 11.036 16.3317 11.036C15.9957 11.036 15.6831 11.1107 15.3937 11.26C15.1137 11.4 14.8897 11.61 14.7217 11.89C14.5537 12.17 14.4697 12.5153 14.4697 12.926C14.4697 13.318 14.5537 13.654 14.7217 13.934C14.8897 14.2047 15.1137 14.4147 15.3937 14.564C15.6737 14.704 15.9864 14.774 16.3317 14.774Z" fill="#888888"/>
</svg>
