<svg width="24" height="24" viewBox="0 0 24 24" fill="none" xmlns="http://www.w3.org/2000/svg">
<path d="M5.52058 14.62V13.57H9.88858V14.62H5.52058ZM3.67258 17L7.13058 7.9H8.30658L11.7926 17H10.5886L7.55058 8.768H7.88658L4.84858 17H3.67258ZM15.4902 15.894C14.9956 15.894 14.5242 15.7773 14.0762 15.544C13.6376 15.3013 13.2782 14.956 12.9982 14.508C12.7276 14.06 12.5922 13.5233 12.5922 12.898C12.5922 12.2727 12.7276 11.736 12.9982 11.288C13.2689 10.8307 13.6236 10.4807 14.0622 10.238C14.5009 9.986 14.9769 9.86 15.4902 9.86C15.6489 9.86 15.7982 9.874 15.9382 9.902C16.0876 9.92067 16.2276 9.95333 16.3582 10H19.2002V11.204C18.7989 11.204 18.3976 11.1293 17.9962 10.98C17.6042 10.8307 17.2682 10.6767 16.9882 10.518L16.9322 10.462C17.2589 10.6393 17.5249 10.8493 17.7302 11.092C17.9449 11.3347 18.1036 11.61 18.2062 11.918C18.3182 12.2167 18.3742 12.5433 18.3742 12.898C18.3742 13.5233 18.2389 14.06 17.9682 14.508C17.7069 14.956 17.3569 15.3013 16.9182 15.544C16.4796 15.7773 16.0036 15.894 15.4902 15.894ZM17.5482 19.8V19.492C17.5482 18.9973 17.4176 18.638 17.1562 18.414C16.9042 18.19 16.5216 18.078 16.0082 18.078H14.6082C14.3002 18.078 14.0296 18.05 13.7962 17.994C13.5722 17.9473 13.3856 17.8727 13.2362 17.77C13.0869 17.6673 12.9749 17.5413 12.9002 17.392C12.8256 17.2427 12.7882 17.0747 12.7882 16.888C12.7882 16.5333 12.8956 16.2673 13.1102 16.09C13.3249 15.9033 13.5909 15.7867 13.9082 15.74C14.2256 15.6933 14.5289 15.6933 14.8182 15.74L15.4902 15.894C14.9862 15.922 14.5942 15.9733 14.3142 16.048C14.0436 16.1227 13.9082 16.2813 13.9082 16.524C13.9082 16.664 13.9596 16.7807 14.0622 16.874C14.1742 16.958 14.3376 17 14.5522 17H16.0082C16.4936 17 16.9369 17.0653 17.3382 17.196C17.7396 17.336 18.0616 17.5647 18.3042 17.882C18.5469 18.2087 18.6682 18.652 18.6682 19.212V19.8H17.5482ZM15.4902 14.844C15.7982 14.844 16.0829 14.7693 16.3442 14.62C16.6149 14.4707 16.8342 14.2513 17.0022 13.962C17.1702 13.6727 17.2542 13.318 17.2542 12.898C17.2542 12.478 17.1702 12.1233 17.0022 11.834C16.8436 11.5353 16.6289 11.3113 16.3582 11.162C16.0876 11.0033 15.7982 10.924 15.4902 10.924C15.1822 10.924 14.8929 11.0033 14.6222 11.162C14.3516 11.3113 14.1322 11.5307 13.9642 11.82C13.7962 12.1093 13.7122 12.4687 13.7122 12.898C13.7122 13.318 13.7962 13.6727 13.9642 13.962C14.1322 14.2513 14.3516 14.4707 14.6222 14.62C14.8929 14.7693 15.1822 14.844 15.4902 14.844Z" fill="#888888"/>
</svg>
