<svg width="24" height="24" viewBox="0 0 24 24" fill="none" xmlns="http://www.w3.org/2000/svg">
<path d="M2.25781 18L5.69629 7.82129H8.48535L11.9238 18H9.29199L8.65625 15.9219H5.45703L4.82129 18H2.25781ZM8.0957 14.0762L7.05664 10.7197L6.01758 14.0762H8.0957ZM17.3857 15.5801V12.1006C17.2673 12.0459 17.1214 12.0003 16.9482 11.9639C16.7751 11.9274 16.6019 11.9092 16.4287 11.9092C15.8545 11.9092 15.4215 12.096 15.1299 12.4697C14.8428 12.8389 14.6992 13.3561 14.6992 14.0215C14.6992 14.3542 14.7197 14.6367 14.7607 14.8691C14.8063 15.097 14.8883 15.2998 15.0068 15.4775C15.1208 15.6507 15.2689 15.7829 15.4512 15.874C15.638 15.9606 15.875 16.0039 16.1621 16.0039C16.3763 16.0039 16.5859 15.9674 16.791 15.8945C17.0007 15.8216 17.1989 15.7168 17.3857 15.5801ZM19.7783 17.1182C19.7783 17.8291 19.6758 18.4329 19.4707 18.9297C19.2656 19.4264 18.9854 19.8138 18.6299 20.0918C18.2744 20.3743 17.8483 20.5771 17.3516 20.7002C16.8548 20.8278 16.3034 20.8916 15.6973 20.8916C15.1868 20.8916 14.7015 20.8574 14.2412 20.7891C13.7855 20.7253 13.389 20.6501 13.0518 20.5635V18.6426H13.332C13.4505 18.6882 13.5895 18.7383 13.749 18.793C13.9131 18.8477 14.0771 18.8978 14.2412 18.9434C14.4372 18.9935 14.6286 19.0345 14.8154 19.0664C15.0023 19.0983 15.1937 19.1143 15.3896 19.1143C15.7952 19.1143 16.1325 19.071 16.4014 18.9844C16.6748 18.9023 16.8799 18.7839 17.0166 18.6289C17.1533 18.4694 17.249 18.2803 17.3037 18.0615C17.3584 17.8473 17.3857 17.5762 17.3857 17.248V17.1045C17.1169 17.3415 16.8047 17.5329 16.4492 17.6787C16.0983 17.82 15.736 17.8906 15.3623 17.8906C14.3688 17.8906 13.6009 17.5671 13.0586 16.9199C12.5208 16.2728 12.252 15.2884 12.252 13.9668C12.252 13.3652 12.334 12.8252 12.498 12.3467C12.6667 11.8682 12.8991 11.4603 13.1953 11.123C13.4779 10.7995 13.8197 10.5511 14.2207 10.3779C14.6217 10.2002 15.0387 10.1113 15.4717 10.1113C15.8636 10.1113 16.2145 10.1615 16.5244 10.2617C16.8343 10.362 17.1169 10.4964 17.3721 10.665L17.4609 10.3232H19.7783V17.1182Z" fill="#333333"/>
</svg>
