<svg width="24" height="24" viewBox="0 0 24 24" fill="none" xmlns="http://www.w3.org/2000/svg">
<path d="M7.31279 7.138H8.93679L12.2128 16H10.2108C10.0521 15.5427 9.86546 14.9407 9.65079 14.194H6.58479C6.37012 14.8567 6.17412 15.4587 5.99679 16H4.03679L7.31279 7.138ZM8.13879 9.742C7.93346 10.3113 7.60679 11.254 7.15879 12.57H9.09079C8.68946 11.4033 8.37212 10.4607 8.13879 9.742ZM17.1585 15.202C16.7385 15.846 16.1505 16.168 15.3945 16.168C14.4612 16.168 13.7378 15.8367 13.2245 15.174C12.7952 14.6233 12.5805 13.9233 12.5805 13.074C12.5805 11.8327 12.9398 10.8807 13.6585 10.218C14.1998 9.72333 14.8345 9.476 15.5625 9.476C16.1692 9.476 16.6825 9.62533 17.1025 9.924C17.3918 10.1387 17.5178 10.274 17.4805 10.33L17.6205 9.644H19.0765V15.328C19.0765 16.3827 18.8105 17.204 18.2785 17.792C17.7465 18.38 16.9858 18.674 15.9965 18.674C14.9418 18.674 14.0552 18.3287 13.3365 17.638L13.7985 16.686C14.3678 17.05 15.0118 17.232 15.7305 17.232C16.6825 17.232 17.1585 16.56 17.1585 15.216V15.202ZM17.1585 13.256V11.884C17.1305 11.5947 16.9998 11.3473 16.7665 11.142C16.5332 10.9273 16.2718 10.82 15.9825 10.82C15.5345 10.82 15.1798 10.9973 14.9185 11.352C14.6665 11.7067 14.5405 12.192 14.5405 12.808C14.5405 14.1427 14.9605 14.81 15.8005 14.81C16.1738 14.81 16.4912 14.6653 16.7525 14.376C17.0232 14.0867 17.1585 13.7367 17.1585 13.326C17.1585 13.3073 17.1585 13.284 17.1585 13.256Z" fill="#888888"/>
</svg>
