<svg width="24" height="24" viewBox="0 0 24 24" fill="none" xmlns="http://www.w3.org/2000/svg">
<path d="M13.5258 15.804V16H10.9078V15.804H11.0758C11.2625 15.804 11.4538 15.762 11.6498 15.678C11.8458 15.594 11.9438 15.4913 11.9438 15.37C11.9438 15.342 11.9345 15.3047 11.9158 15.258C11.8972 15.2113 11.8832 15.174 11.8738 15.146L10.9918 12.752H6.74984L5.86784 15.146C5.8585 15.174 5.8445 15.2113 5.82584 15.258C5.80717 15.3047 5.79784 15.342 5.79784 15.37C5.79784 15.4913 5.89117 15.594 6.07784 15.678C6.2645 15.762 6.45117 15.804 6.63784 15.804H6.83384V16H4.21584V15.804H4.41184C4.60784 15.7853 4.80384 15.734 4.99984 15.65C5.19584 15.5567 5.31717 15.4493 5.36384 15.328L8.68184 6.34L9.00384 6.102L12.3778 15.328C12.4245 15.4587 12.5458 15.5707 12.7418 15.664C12.9472 15.7573 13.1432 15.804 13.3298 15.804H13.5258ZM10.8658 12.416L8.86384 7.026L6.87584 12.416H10.8658ZM19.3044 9.28C19.5098 9.28 19.6591 9.31733 19.7524 9.392C19.8458 9.45733 19.8924 9.54133 19.8924 9.644C19.8924 9.82133 19.8038 9.91 19.6264 9.91C19.5611 9.91 19.5098 9.90067 19.4724 9.882C19.4444 9.854 19.4118 9.81667 19.3744 9.77C19.3371 9.714 19.2904 9.672 19.2344 9.644C19.1878 9.616 19.1131 9.602 19.0104 9.602C18.8331 9.602 18.6231 9.69533 18.3804 9.882C18.8098 10.2833 19.0244 10.806 19.0244 11.45C19.0244 12.1127 18.8004 12.64 18.3524 13.032C17.9138 13.4147 17.3258 13.606 16.5884 13.606C16.0564 13.606 15.5804 13.494 15.1604 13.27C14.7778 13.5407 14.5864 13.8113 14.5864 14.082C14.5864 14.306 14.6984 14.488 14.9224 14.628C15.1558 14.768 15.4684 14.838 15.8604 14.838H17.7224C18.1984 14.838 18.6044 14.9407 18.9404 15.146C19.2764 15.342 19.4444 15.6593 19.4444 16.098C19.4444 16.7327 19.1691 17.1947 18.6184 17.484C18.0771 17.7733 17.3864 17.918 16.5464 17.918C15.8371 17.918 15.2491 17.778 14.7824 17.498C14.3251 17.218 14.0964 16.8213 14.0964 16.308C14.0964 15.776 14.3811 15.3467 14.9504 15.02C14.7078 14.9267 14.5258 14.8053 14.4044 14.656C14.2831 14.4973 14.2224 14.32 14.2224 14.124C14.2224 13.7787 14.4558 13.438 14.9224 13.102C14.4184 12.7007 14.1664 12.15 14.1664 11.45C14.1664 10.7873 14.3858 10.26 14.8244 9.868C15.2631 9.476 15.8511 9.28 16.5884 9.28C17.2418 9.28 17.7831 9.434 18.2124 9.742C18.3711 9.58333 18.5438 9.46667 18.7304 9.392C18.9264 9.31733 19.1178 9.28 19.3044 9.28ZM18.6044 11.45C18.6044 10.9087 18.4318 10.4607 18.0864 10.106C17.7411 9.75133 17.2418 9.574 16.5884 9.574C15.9351 9.574 15.4358 9.75133 15.0904 10.106C14.7544 10.4607 14.5864 10.9087 14.5864 11.45C14.5864 11.9913 14.7544 12.4393 15.0904 12.794C15.4358 13.1393 15.9351 13.312 16.5884 13.312C17.2418 13.312 17.7411 13.1393 18.0864 12.794C18.4318 12.4393 18.6044 11.9913 18.6044 11.45ZM15.7904 15.146C15.5384 15.146 15.3378 15.1273 15.1884 15.09C14.8991 15.286 14.7031 15.4773 14.6004 15.664C14.5071 15.8507 14.4604 16.0607 14.4604 16.294C14.4604 16.7233 14.6564 17.0453 15.0484 17.26C15.4404 17.484 15.9631 17.596 16.6164 17.596C17.3818 17.596 17.9791 17.47 18.4084 17.218C18.8471 16.966 19.0664 16.602 19.0664 16.126C19.0664 15.8087 18.9451 15.566 18.7024 15.398C18.4691 15.23 18.0771 15.146 17.5264 15.146H15.7904Z" fill="#888888"/>
</svg>
