<svg width="24" height="24" viewBox="0 0 24 24" fill="none" xmlns="http://www.w3.org/2000/svg">
<path d="M12.9714 15.748L12.9294 16H10.1154L10.1574 15.748H10.3394C10.526 15.748 10.7174 15.7107 10.9134 15.636C11.1187 15.5613 11.212 15.468 11.1934 15.356L10.8294 12.864H6.88136L5.56536 15.23C5.53736 15.2673 5.52336 15.3093 5.52336 15.356C5.52336 15.468 5.59803 15.5613 5.74736 15.636C5.89669 15.7107 6.05069 15.748 6.20936 15.748H6.40536L6.37736 16H3.71736L3.75936 15.748H3.96936C4.14669 15.748 4.34269 15.7013 4.55736 15.608C4.77203 15.5147 4.91669 15.4027 4.99136 15.272L9.98936 6.368L10.5634 6.074L11.9774 15.272C11.996 15.4027 12.0847 15.5147 12.2434 15.608C12.4114 15.7013 12.584 15.748 12.7614 15.748H12.9714ZM10.7734 12.444L10.0174 7.264L7.11936 12.444H10.7734ZM20.0973 9.28C20.2933 9.28 20.4379 9.31733 20.5312 9.392C20.6246 9.45733 20.6713 9.54133 20.6713 9.644C20.6713 9.76533 20.6339 9.86333 20.5593 9.938C20.4939 10.0127 20.4006 10.05 20.2793 10.05C20.2046 10.05 20.1533 10.036 20.1253 10.008C20.0973 9.98 20.0693 9.938 20.0413 9.882C20.0039 9.81667 19.9619 9.77 19.9153 9.742C19.8779 9.70467 19.8033 9.686 19.6913 9.686C19.5326 9.686 19.3226 9.76533 19.0613 9.924C19.2853 10.1853 19.3973 10.526 19.3973 10.946C19.3973 11.1327 19.3786 11.3053 19.3413 11.464C19.2106 12.136 18.8793 12.668 18.3473 13.06C17.8246 13.4427 17.1853 13.634 16.4293 13.634C15.8973 13.634 15.4539 13.5313 15.0993 13.326C14.7166 13.5687 14.4973 13.8207 14.4413 14.082C14.4319 14.11 14.4273 14.152 14.4273 14.208C14.4273 14.376 14.5113 14.516 14.6793 14.628C14.8566 14.7307 15.1039 14.782 15.4213 14.782H17.3393C17.7686 14.782 18.1233 14.866 18.4033 15.034C18.6926 15.202 18.8373 15.4633 18.8373 15.818C18.8373 15.9487 18.8279 16.0467 18.8093 16.112C18.6786 16.756 18.3099 17.232 17.7033 17.54C17.0966 17.848 16.3593 18.002 15.4913 18.002C14.8379 18.002 14.3106 17.8853 13.9093 17.652C13.5172 17.428 13.3212 17.106 13.3212 16.686C13.3212 16.0327 13.6946 15.51 14.4413 15.118C14.0866 14.978 13.9093 14.7307 13.9093 14.376C13.9093 13.9467 14.2219 13.5313 14.8473 13.13C14.5299 12.8407 14.3713 12.4533 14.3713 11.968C14.3713 11.7533 14.3853 11.5853 14.4133 11.464C14.5626 10.7827 14.8986 10.2507 15.4213 9.868C15.9439 9.476 16.5833 9.28 17.3393 9.28C18.0113 9.28 18.5293 9.43867 18.8933 9.756C19.2853 9.43867 19.6866 9.28 20.0973 9.28ZM18.6553 11.464C18.6926 11.24 18.7113 11.0813 18.7113 10.988C18.7113 10.5867 18.5899 10.2647 18.3473 10.022C18.1046 9.77933 17.7406 9.658 17.2553 9.658C16.6766 9.658 16.2006 9.826 15.8273 10.162C15.4539 10.498 15.2113 10.932 15.0993 11.464C15.0619 11.688 15.0433 11.8467 15.0433 11.94C15.0433 12.3413 15.1646 12.6633 15.4073 12.906C15.6593 13.1487 16.0279 13.27 16.5133 13.27C17.0919 13.27 17.5633 13.102 17.9273 12.766C18.3006 12.4207 18.5433 11.9867 18.6553 11.464ZM14.7633 15.272C14.4833 15.44 14.2779 15.608 14.1473 15.776C14.0259 15.9347 13.9466 16.1167 13.9093 16.322C13.8906 16.3873 13.8813 16.476 13.8813 16.588C13.8813 16.9333 14.0353 17.19 14.3433 17.358C14.6513 17.5353 15.0853 17.624 15.6453 17.624C16.3453 17.624 16.9146 17.5027 17.3533 17.26C17.8013 17.0173 18.0719 16.6673 18.1653 16.21C18.1839 16.098 18.1933 16.0233 18.1933 15.986C18.1933 15.51 17.7779 15.272 16.9473 15.272H14.7633Z" fill="#888888"/>
</svg>
