<svg width="24" height="24" viewBox="0 0 24 24" fill="none" xmlns="http://www.w3.org/2000/svg">
<path d="M12.9732 15.328V16H7.91917V15.328H8.25517C8.58184 15.328 8.74517 15.2113 8.74517 14.978C8.74517 14.9033 8.73117 14.8193 8.70317 14.726L8.28317 13.564H4.79717L4.39117 14.614C4.35384 14.698 4.33517 14.7867 4.33517 14.88C4.33517 15.0293 4.39117 15.1413 4.50317 15.216C4.61517 15.2907 4.74117 15.328 4.88117 15.328H5.21717V16H1.50717V15.328H1.74517C1.95051 15.328 2.14184 15.286 2.31917 15.202C2.49651 15.1087 2.62251 14.9687 2.69717 14.782L6.02917 6.536L8.19917 5.808L11.9232 14.824C12.0632 15.16 12.3012 15.328 12.6372 15.328H12.9732ZM7.93317 12.612L6.57517 8.874L5.14717 12.612H7.93317ZM20.9412 9.28C21.3239 9.28 21.6506 9.36867 21.9213 9.546C22.1919 9.714 22.3273 9.93333 22.3273 10.204C22.3273 10.4653 22.2573 10.6707 22.1173 10.82C21.9773 10.96 21.7766 11.03 21.5153 11.03C21.3566 11.03 21.2399 11.002 21.1653 10.946C21.0906 10.8807 21.0159 10.7827 20.9412 10.652C20.8666 10.5213 20.7873 10.4233 20.7033 10.358C20.6286 10.2927 20.5119 10.26 20.3533 10.26C20.2879 10.26 20.1713 10.2833 20.0033 10.33C20.2646 10.6567 20.3953 11.0673 20.3953 11.562C20.3953 12.2993 20.0919 12.8593 19.4853 13.242C18.8879 13.6153 18.0153 13.802 16.8673 13.802C16.2513 13.802 15.7193 13.746 15.2713 13.634C15.1219 13.774 15.0473 13.914 15.0473 14.054C15.0473 14.166 15.0846 14.2547 15.1593 14.32C15.2433 14.376 15.3599 14.404 15.5093 14.404H18.4073C19.1446 14.404 19.7373 14.5673 20.1853 14.894C20.6333 15.2113 20.8573 15.664 20.8573 16.252C20.8573 16.9613 20.5166 17.5307 19.8353 17.96C19.1539 18.3987 18.1319 18.618 16.7693 18.618C14.4453 18.618 13.2833 18.044 13.2833 16.896C13.2833 16.6253 13.3719 16.3967 13.5493 16.21C13.7359 16.0327 13.9786 15.8973 14.2773 15.804C13.9879 15.7013 13.7779 15.5473 13.6473 15.342C13.5259 15.1367 13.4653 14.908 13.4653 14.656C13.4653 14.1987 13.7873 13.76 14.4313 13.34C13.7033 12.9667 13.3393 12.374 13.3393 11.562C13.3393 10.8153 13.6379 10.2507 14.2353 9.868C14.8419 9.476 15.7193 9.28 16.8673 9.28C17.9406 9.28 18.7713 9.448 19.3593 9.784C19.6206 9.588 19.8773 9.45733 20.1293 9.392C20.3813 9.31733 20.6519 9.28 20.9412 9.28ZM16.8673 12.92C17.3713 12.92 17.6233 12.4673 17.6233 11.562C17.6233 10.6473 17.3713 10.19 16.8673 10.19C16.3633 10.19 16.1113 10.6473 16.1113 11.562C16.1113 12.4673 16.3633 12.92 16.8673 12.92ZM15.4113 16.182C15.2339 16.3127 15.1453 16.5273 15.1453 16.826C15.1453 17.134 15.2899 17.3673 15.5793 17.526C15.8686 17.694 16.2746 17.778 16.7973 17.778C17.3013 17.778 17.6933 17.694 17.9733 17.526C18.2626 17.358 18.4073 17.12 18.4073 16.812C18.4073 16.6347 18.3419 16.4853 18.2113 16.364C18.0806 16.2427 17.8799 16.182 17.6093 16.182H15.4113Z" fill="#888888"/>
</svg>
