<svg width="24" height="24" viewBox="0 0 24 24" fill="none" xmlns="http://www.w3.org/2000/svg">
<path d="M13.5098 15.566V16H9.67376V15.566H9.92576C10.1498 15.566 10.3084 15.5333 10.4018 15.468C10.5044 15.4027 10.5558 15.3047 10.5558 15.174C10.5558 15.0527 10.5091 14.8613 10.4158 14.6L9.88376 13.158H6.03376L5.38976 14.88C5.36176 14.964 5.34776 15.034 5.34776 15.09C5.34776 15.2393 5.41309 15.356 5.54376 15.44C5.67442 15.524 5.83309 15.566 6.01976 15.566H6.28576V16H3.12176V15.566H3.33176C3.52776 15.566 3.71909 15.5193 3.90576 15.426C4.10176 15.3327 4.22776 15.2113 4.28376 15.062L7.61576 6.438L8.86176 5.962L12.4038 15.076C12.4691 15.2347 12.5811 15.356 12.7398 15.44C12.8984 15.524 13.0664 15.566 13.2438 15.566H13.5098ZM9.64576 12.514L7.97976 7.95L6.27176 12.514H9.64576ZM20.3691 9.28C20.6584 9.28 20.8918 9.34067 21.0691 9.462C21.2558 9.58333 21.3491 9.73733 21.3491 9.924C21.3491 10.092 21.3024 10.2273 21.2091 10.33C21.1158 10.4233 20.9851 10.47 20.8171 10.47C20.7051 10.47 20.6211 10.4513 20.5651 10.414C20.5091 10.3673 20.4531 10.302 20.3971 10.218C20.3411 10.1247 20.2804 10.0547 20.2151 10.008C20.1591 9.96133 20.0611 9.938 19.9211 9.938C19.7904 9.938 19.6224 9.98933 19.4171 10.092C19.7718 10.4653 19.9491 10.9367 19.9491 11.506C19.9491 12.206 19.6878 12.7473 19.1651 13.13C18.6424 13.5127 17.9098 13.704 16.9671 13.704C16.3978 13.704 15.8891 13.6293 15.4411 13.48C15.1891 13.6573 15.0631 13.8533 15.0631 14.068C15.0631 14.236 15.1378 14.3713 15.2871 14.474C15.4458 14.5767 15.6604 14.628 15.9311 14.628H18.3111C18.9084 14.628 19.4031 14.7587 19.7951 15.02C20.1964 15.2813 20.3971 15.6687 20.3971 16.182C20.3971 16.8447 20.0891 17.358 19.4731 17.722C18.8571 18.086 17.9984 18.268 16.8971 18.268C15.9638 18.268 15.2358 18.1233 14.7131 17.834C14.1904 17.554 13.9291 17.1433 13.9291 16.602C13.9291 16.0513 14.2978 15.6547 15.0351 15.412C14.7084 15.3187 14.4704 15.1833 14.3211 15.006C14.1718 14.8193 14.0971 14.614 14.0971 14.39C14.0971 13.9887 14.3724 13.6013 14.9231 13.228C14.3071 12.8547 13.9991 12.2807 13.9991 11.506C13.9991 10.7967 14.2604 10.2507 14.7831 9.868C15.3058 9.476 16.0338 9.28 16.9671 9.28C17.8258 9.28 18.5118 9.44333 19.0251 9.77C19.4264 9.44333 19.8744 9.28 20.3691 9.28ZM16.9671 13.116C17.4338 13.116 17.7791 12.9667 18.0031 12.668C18.2364 12.3693 18.3531 11.982 18.3531 11.506C18.3531 11.03 18.2364 10.6427 18.0031 10.344C17.7791 10.036 17.4338 9.882 16.9671 9.882C16.5098 9.882 16.1644 10.036 15.9311 10.344C15.7071 10.6427 15.5951 11.03 15.5951 11.506C15.5951 11.982 15.7071 12.3693 15.9311 12.668C16.1644 12.9667 16.5098 13.116 16.9671 13.116ZM15.8471 15.664C15.5764 15.748 15.3804 15.8833 15.2591 16.07C15.1378 16.266 15.0771 16.448 15.0771 16.616C15.0771 16.9707 15.2451 17.2367 15.5811 17.414C15.9264 17.6007 16.3838 17.694 16.9531 17.694C17.5784 17.694 18.0731 17.5867 18.4371 17.372C18.8011 17.1667 18.9831 16.868 18.9831 16.476C18.9831 16.196 18.8758 15.9907 18.6611 15.86C18.4558 15.7293 18.1104 15.664 17.6251 15.664H15.8471Z" fill="#888888"/>
</svg>
