<svg width="24" height="24" viewBox="0 0 24 24" fill="none" xmlns="http://www.w3.org/2000/svg">
<path d="M9.76723 13.98C9.56723 13.98 9.41723 13.95 9.31723 13.89C9.21723 13.83 9.16723 13.75 9.16723 13.65C9.16723 13.5433 9.21056 13.4667 9.29723 13.42C9.35723 13.4467 9.44056 13.4667 9.54723 13.48C9.65389 13.4933 9.76389 13.5 9.87723 13.5H9.99723C10.3506 12.6133 10.6439 11.67 10.8772 10.67C11.1172 9.66333 11.2906 8.65667 11.3972 7.65C11.3039 6.28333 11.4139 5.6 11.7272 5.6C11.8539 5.6 11.9406 5.73333 11.9872 6C12.0406 6.26 12.0339 6.70333 11.9672 7.33C12.0206 8.26333 12.1139 9.23333 12.2472 10.24C12.3806 11.24 12.5439 12.1967 12.7372 13.11C12.7906 13.1033 12.8472 13.1 12.9072 13.1C12.9672 13.0933 13.0239 13.09 13.0772 13.09C13.4239 13.09 13.6639 13.1333 13.7972 13.22C13.9372 13.3 14.0072 13.3933 14.0072 13.5C14.0072 13.5733 13.9839 13.6367 13.9372 13.69C13.8972 13.7433 13.8506 13.7767 13.7972 13.79C13.7372 13.7367 13.6239 13.6967 13.4572 13.67C13.2972 13.6367 13.1106 13.62 12.8972 13.62H12.8472C12.9272 13.9667 13.0106 14.2833 13.0972 14.57C13.1906 14.85 13.2839 15.0933 13.3772 15.3C13.4772 15.5 13.5772 15.6567 13.6772 15.77C13.7772 15.8833 13.8772 15.94 13.9772 15.94C14.0639 15.94 14.1472 15.9067 14.2272 15.84C14.3072 15.7733 14.3972 15.6433 14.4972 15.45C14.6039 15.25 14.7239 14.9733 14.8572 14.62C14.9906 14.26 15.1539 13.7867 15.3472 13.2C15.5339 13.2 15.5972 13.3233 15.5372 13.57C15.3972 14.13 15.2606 14.6033 15.1272 14.99C14.9939 15.3767 14.8606 15.69 14.7272 15.93C14.5939 16.1633 14.4572 16.3333 14.3172 16.44C14.1839 16.5467 14.0439 16.6 13.8972 16.6C13.7506 16.6 13.6072 16.5533 13.4672 16.46C13.3272 16.3667 13.1872 16.2067 13.0472 15.98C12.9139 15.7533 12.7839 15.4533 12.6572 15.08C12.5306 14.7067 12.4072 14.2433 12.2872 13.69C12.2872 13.6833 12.2839 13.68 12.2772 13.68C12.2772 13.6733 12.2772 13.6667 12.2772 13.66C11.9706 13.6933 11.6472 13.7433 11.3072 13.81C10.9672 13.87 10.6439 13.9167 10.3372 13.95C10.0439 14.6967 9.72389 15.36 9.37723 15.94C9.03056 16.52 8.66056 17.01 8.26723 17.41C7.88056 17.81 7.47389 18.1133 7.04723 18.32C6.62056 18.5267 6.18389 18.63 5.73723 18.63C5.43723 18.63 5.15723 18.5667 4.89723 18.44C4.64389 18.32 4.42389 18.1467 4.23723 17.92C4.04389 17.7 3.89389 17.4333 3.78723 17.12C3.68056 16.8067 3.62723 16.46 3.62723 16.08C3.62723 15.5867 3.70056 15.0833 3.84723 14.57C3.98723 14.0567 4.18056 13.5633 4.42723 13.09C4.67389 12.61 4.96056 12.16 5.28723 11.74C5.62056 11.32 5.97389 10.9533 6.34723 10.64C6.72056 10.3267 7.10389 10.08 7.49723 9.9C7.89723 9.72 8.28723 9.63 8.66723 9.63C9.04056 9.63 9.33056 9.75 9.53723 9.99C9.75056 10.2233 9.85723 10.56 9.85723 11C9.85723 11.4133 9.77056 11.83 9.59723 12.25C9.43056 12.67 9.21056 13.05 8.93723 13.39C8.66389 13.73 8.35389 14.0067 8.00723 14.22C7.66723 14.4333 7.32723 14.54 6.98723 14.54C6.68723 14.54 6.45056 14.4533 6.27723 14.28C6.10389 14.1067 6.01723 13.8533 6.01723 13.52C6.01723 13.2267 6.08389 12.92 6.21723 12.6C6.35056 12.28 6.56723 11.9967 6.86723 11.75C6.98056 11.6567 7.08056 11.62 7.16723 11.64C7.26056 11.6533 7.31389 11.7067 7.32723 11.8C7.21389 11.8867 7.10723 11.99 7.00723 12.11C6.91389 12.23 6.83056 12.36 6.75723 12.5C6.69056 12.6333 6.63723 12.7667 6.59723 12.9C6.55723 13.0333 6.53723 13.16 6.53723 13.28C6.53723 13.5133 6.59056 13.6833 6.69723 13.79C6.80389 13.89 6.95389 13.94 7.14723 13.94C7.39389 13.94 7.64723 13.8533 7.90723 13.68C8.16723 13.5067 8.40056 13.2867 8.60723 13.02C8.82056 12.7533 8.99389 12.46 9.12723 12.14C9.26056 11.82 9.32723 11.5167 9.32723 11.23C9.32723 10.8967 9.25389 10.65 9.10723 10.49C8.96723 10.3233 8.77056 10.24 8.51723 10.24C8.21723 10.24 7.90056 10.32 7.56723 10.48C7.24056 10.64 6.91389 10.86 6.58723 11.14C6.26723 11.42 5.95723 11.7467 5.65723 12.12C5.36389 12.4933 5.10389 12.89 4.87723 13.31C4.65723 13.73 4.48056 14.1667 4.34723 14.62C4.21389 15.0733 4.14723 15.5167 4.14723 15.95C4.14723 16.2967 4.19056 16.5967 4.27723 16.85C4.36389 17.11 4.48389 17.3233 4.63723 17.49C4.79723 17.6567 4.98056 17.78 5.18723 17.86C5.39389 17.9467 5.61723 17.99 5.85723 17.99C6.24389 17.99 6.62056 17.89 6.98723 17.69C7.35389 17.49 7.70389 17.2133 8.03723 16.86C8.37056 16.5067 8.68389 16.0833 8.97723 15.59C9.27056 15.0967 9.54389 14.56 9.79723 13.98H9.76723ZM12.1772 13.18C12.0439 12.5133 11.9272 11.83 11.8272 11.13C11.7339 10.43 11.6639 9.73667 11.6172 9.05C11.4839 9.88333 11.3239 10.6667 11.1372 11.4C10.9572 12.1333 10.7539 12.8167 10.5272 13.45C10.7872 13.4167 11.0572 13.3733 11.3372 13.32C11.6172 13.2667 11.8972 13.22 12.1772 13.18ZM17.7547 14.84C17.5414 15.36 17.2914 15.7567 17.0047 16.03C16.7181 16.31 16.4147 16.45 16.0947 16.45C15.7681 16.45 15.5047 16.31 15.3047 16.03C15.1047 15.7567 15.0047 15.3733 15.0047 14.88C15.0047 14.4467 15.0614 14.0433 15.1747 13.67C15.2814 13.2967 15.4247 12.9733 15.6047 12.7C15.7914 12.4267 16.0047 12.2133 16.2447 12.06C16.4914 11.9067 16.7481 11.83 17.0147 11.83C17.1614 11.83 17.2914 11.8567 17.4047 11.91C17.5247 11.9567 17.6281 12.02 17.7147 12.1C17.8014 12.18 17.8681 12.2733 17.9147 12.38C17.9614 12.48 17.9847 12.5833 17.9847 12.69C17.9847 12.75 17.9781 12.8133 17.9647 12.88C17.9914 12.8667 18.0181 12.86 18.0447 12.86C18.2047 12.86 18.2847 13.0033 18.2847 13.29C18.2847 13.39 18.2714 13.5 18.2447 13.62C18.2181 13.74 18.1781 13.8667 18.1247 14C18.1581 14.3267 18.2447 14.7333 18.3847 15.22C18.5247 15.7067 18.6614 16.2267 18.7947 16.78C19.2881 16.88 19.6614 17.0633 19.9147 17.33C20.1681 17.5967 20.2947 17.9067 20.2947 18.26C20.2947 18.6933 20.1614 19.1067 19.8947 19.5C19.6347 19.8933 19.2847 20.2233 18.8447 20.49C18.7114 20.8767 18.5281 21.2167 18.2947 21.51C18.0681 21.8033 17.8014 22.05 17.4947 22.25C17.1947 22.45 16.8614 22.6 16.4947 22.7C16.1281 22.8 15.7414 22.85 15.3347 22.85C14.8547 22.85 14.4214 22.7933 14.0347 22.68C13.6414 22.5667 13.3081 22.4133 13.0347 22.22C12.7547 22.0267 12.5414 21.7967 12.3947 21.53C12.2414 21.2633 12.1647 20.98 12.1647 20.68C12.1647 20.34 12.2381 20.0033 12.3847 19.67C12.5314 19.3433 12.7347 19.03 12.9947 18.73C13.2547 18.4367 13.5647 18.1667 13.9247 17.92C14.2847 17.6733 14.6814 17.4567 15.1147 17.27C15.5414 17.09 15.9947 16.95 16.4747 16.85C16.9614 16.75 17.4581 16.7 17.9647 16.7C17.9981 16.7 18.0281 16.7 18.0547 16.7C18.0814 16.7067 18.1081 16.71 18.1347 16.71H18.2147C18.1347 16.3567 18.0514 16.0233 17.9647 15.71C17.8781 15.39 17.8081 15.1 17.7547 14.84ZM15.2347 20.63C15.1481 20.57 15.0747 20.5 15.0147 20.42C14.9481 20.3467 14.9147 20.26 14.9147 20.16C14.9147 20.0867 14.9347 20.0267 14.9747 19.98C15.0147 19.9333 15.0681 19.91 15.1347 19.91C15.3347 20.1033 15.5714 20.2467 15.8447 20.34C16.1181 20.44 16.4514 20.49 16.8447 20.49C17.1581 20.49 17.4481 20.46 17.7147 20.4C17.9814 20.3467 18.2214 20.27 18.4347 20.17C18.5147 19.87 18.5547 19.54 18.5547 19.18C18.5547 18.8667 18.5314 18.55 18.4847 18.23C18.4447 17.9167 18.3947 17.6 18.3347 17.28C18.2414 17.2667 18.1481 17.2567 18.0547 17.25C17.9614 17.2433 17.8614 17.24 17.7547 17.24C17.0747 17.24 16.4281 17.3367 15.8147 17.53C15.2014 17.73 14.6647 17.9867 14.2047 18.3C13.7447 18.62 13.3814 18.9767 13.1147 19.37C12.8414 19.7633 12.7047 20.1533 12.7047 20.54C12.7047 20.7933 12.7714 21.0267 12.9047 21.24C13.0314 21.4533 13.2147 21.6367 13.4547 21.79C13.6947 21.9433 13.9881 22.0633 14.3347 22.15C14.6814 22.2433 15.0747 22.29 15.5147 22.29C16.1547 22.29 16.7047 22.16 17.1647 21.9C17.6247 21.64 17.9714 21.27 18.2047 20.79C17.9914 20.87 17.7714 20.93 17.5447 20.97C17.3181 21.0167 17.0847 21.04 16.8447 21.04C16.4781 21.04 16.1647 21.0033 15.9047 20.93C15.6447 20.8633 15.4214 20.7633 15.2347 20.63ZM17.7647 13.15C17.6781 13.1767 17.6047 13.17 17.5447 13.13C17.5447 13.0567 17.5314 12.9767 17.5047 12.89C17.4781 12.8033 17.4381 12.7233 17.3847 12.65C17.3314 12.5767 17.2614 12.5167 17.1747 12.47C17.0881 12.4233 16.9881 12.4 16.8747 12.4C16.7081 12.4 16.5447 12.4567 16.3847 12.57C16.2247 12.6833 16.0814 12.8433 15.9547 13.05C15.8347 13.25 15.7347 13.49 15.6547 13.77C15.5814 14.05 15.5447 14.3567 15.5447 14.69C15.5447 15.05 15.6014 15.33 15.7147 15.53C15.8281 15.7233 15.9914 15.82 16.2047 15.82C16.4181 15.82 16.6581 15.6733 16.9247 15.38C17.1914 15.0867 17.4281 14.63 17.6347 14.01C17.6347 13.8233 17.6447 13.66 17.6647 13.52C17.6914 13.3733 17.7247 13.25 17.7647 13.15ZM19.7347 18.39C19.7347 18.1767 19.6681 17.9833 19.5347 17.81C19.4081 17.6433 19.2047 17.51 18.9247 17.41C18.9781 17.67 19.0181 17.9267 19.0447 18.18C19.0781 18.44 19.0947 18.6967 19.0947 18.95C19.0947 19.1033 19.0881 19.25 19.0747 19.39C19.0614 19.5367 19.0447 19.6767 19.0247 19.81C19.2581 19.6167 19.4347 19.3967 19.5547 19.15C19.6747 18.9033 19.7347 18.65 19.7347 18.39Z" fill="#888888"/>
</svg>
