<svg width="24" height="24" viewBox="0 0 24 24" fill="none" xmlns="http://www.w3.org/2000/svg">
<g clip-path="url(#clip0_205_502)">
<path d="M8.87412 14.172C8.59412 14.172 8.38412 14.13 8.24412 14.046C8.10412 13.962 8.03412 13.85 8.03412 13.71C8.03412 13.5607 8.09478 13.4533 8.21612 13.388C8.30012 13.4253 8.41678 13.4533 8.56612 13.472C8.71545 13.4907 8.86945 13.5 9.02812 13.5H9.19612C9.69078 12.2587 10.1015 10.938 10.4281 9.538C10.7641 8.12867 11.0068 6.71933 11.1561 5.31C11.0255 3.39667 11.1795 2.44 11.6181 2.44C11.7955 2.44 11.9168 2.62667 11.9821 3C12.0568 3.364 12.0475 3.98467 11.9541 4.862C12.0288 6.16867 12.1595 7.52667 12.3461 8.936C12.5328 10.336 12.7615 11.6753 13.0321 12.954C13.1068 12.9447 13.1861 12.94 13.2701 12.94C13.3541 12.9307 13.4335 12.926 13.5081 12.926C13.9935 12.926 14.3295 12.9867 14.5161 13.108C14.7121 13.22 14.8101 13.3507 14.8101 13.5C14.8101 13.6027 14.7775 13.6913 14.7121 13.766C14.6561 13.8407 14.5908 13.8873 14.5161 13.906C14.4321 13.8313 14.2735 13.7753 14.0401 13.738C13.8161 13.6913 13.5548 13.668 13.2561 13.668H13.1861C13.2981 14.1533 13.4148 14.5967 13.5361 14.998C13.6668 15.39 13.7975 15.7307 13.9281 16.02C14.0681 16.3 14.2081 16.5193 14.3481 16.678C14.4881 16.8367 14.6281 16.916 14.7681 16.916C14.8895 16.916 15.0061 16.8693 15.1181 16.776C15.2301 16.6827 15.3561 16.5007 15.4961 16.23C15.6455 15.95 15.8135 15.5627 16.0001 15.068C16.1868 14.564 16.4155 13.9013 16.6861 13.08C16.9475 13.08 17.0361 13.2527 16.9521 13.598C16.7561 14.382 16.5648 15.0447 16.3781 15.586C16.1915 16.1273 16.0048 16.566 15.8181 16.902C15.6315 17.2287 15.4401 17.4667 15.2441 17.616C15.0575 17.7653 14.8615 17.84 14.6561 17.84C14.4508 17.84 14.2501 17.7747 14.0541 17.644C13.8581 17.5133 13.6621 17.2893 13.4661 16.972C13.2795 16.6547 13.0975 16.2347 12.9201 15.712C12.7428 15.1893 12.5701 14.5407 12.4021 13.766C12.4021 13.7567 12.3975 13.752 12.3881 13.752C12.3881 13.7427 12.3881 13.7333 12.3881 13.724C11.9588 13.7707 11.5061 13.8407 11.0301 13.934C10.5541 14.018 10.1015 14.0833 9.67212 14.13C9.26145 15.1753 8.81345 16.104 8.32812 16.916C7.84278 17.728 7.32478 18.414 6.77412 18.974C6.23278 19.534 5.66345 19.9587 5.06612 20.248C4.46878 20.5373 3.85745 20.682 3.23212 20.682C2.81212 20.682 2.42012 20.5933 2.05612 20.416C1.70145 20.248 1.39345 20.0053 1.13212 19.688C0.86145 19.38 0.65145 19.0067 0.502117 18.568C0.352784 18.1293 0.278117 17.644 0.278117 17.112C0.278117 16.4213 0.380784 15.7167 0.586117 14.998C0.782117 14.2793 1.05278 13.5887 1.39812 12.926C1.74345 12.254 2.14478 11.624 2.60212 11.036C3.06878 10.448 3.56345 9.93467 4.08612 9.496C4.60878 9.05733 5.14545 8.712 5.69612 8.46C6.25612 8.208 6.80212 8.082 7.33412 8.082C7.85678 8.082 8.26278 8.25 8.55212 8.586C8.85078 8.91267 9.00012 9.384 9.00012 10C9.00012 10.5787 8.87878 11.162 8.63612 11.75C8.40278 12.338 8.09478 12.87 7.71212 13.346C7.32945 13.822 6.89545 14.2093 6.41012 14.508C5.93412 14.8067 5.45812 14.956 4.98212 14.956C4.56212 14.956 4.23078 14.8347 3.98812 14.592C3.74545 14.3493 3.62412 13.9947 3.62412 13.528C3.62412 13.1173 3.71745 12.688 3.90412 12.24C4.09078 11.792 4.39412 11.3953 4.81412 11.05C4.97278 10.9193 5.11278 10.868 5.23412 10.896C5.36478 10.9147 5.43945 10.9893 5.45812 11.12C5.29945 11.2413 5.15012 11.386 5.01012 11.554C4.87945 11.722 4.76278 11.904 4.66012 12.1C4.56678 12.2867 4.49212 12.4733 4.43612 12.66C4.38012 12.8467 4.35212 13.024 4.35212 13.192C4.35212 13.5187 4.42678 13.7567 4.57612 13.906C4.72545 14.046 4.93545 14.116 5.20612 14.116C5.55145 14.116 5.90612 13.9947 6.27012 13.752C6.63412 13.5093 6.96078 13.2013 7.25012 12.828C7.54878 12.4547 7.79145 12.044 7.97812 11.596C8.16478 11.148 8.25812 10.7233 8.25812 10.322C8.25812 9.85533 8.15545 9.51 7.95012 9.286C7.75412 9.05267 7.47878 8.936 7.12412 8.936C6.70412 8.936 6.26078 9.048 5.79412 9.272C5.33678 9.496 4.87945 9.804 4.42212 10.196C3.97412 10.588 3.54012 11.0453 3.12012 11.568C2.70945 12.0907 2.34545 12.646 2.02812 13.234C1.72012 13.822 1.47278 14.4333 1.28612 15.068C1.09945 15.7027 1.00612 16.3233 1.00612 16.93C1.00612 17.4153 1.06678 17.8353 1.18812 18.19C1.30945 18.554 1.47745 18.8527 1.69212 19.086C1.91612 19.3193 2.17278 19.492 2.46212 19.604C2.75145 19.7253 3.06412 19.786 3.40012 19.786C3.94145 19.786 4.46878 19.646 4.98212 19.366C5.49545 19.086 5.98545 18.6987 6.45212 18.204C6.91878 17.7093 7.35745 17.1167 7.76812 16.426C8.17878 15.7353 8.56145 14.984 8.91612 14.172H8.87412ZM12.2481 13.052C12.0615 12.1187 11.8981 11.162 11.7581 10.182C11.6275 9.202 11.5295 8.23133 11.4641 7.27C11.2775 8.43667 11.0535 9.53333 10.7921 10.56C10.5401 11.5867 10.2555 12.5433 9.93812 13.43C10.3021 13.3833 10.6801 13.3227 11.0721 13.248C11.4641 13.1733 11.8561 13.108 12.2481 13.052ZM20.0566 15.376C19.758 16.104 19.408 16.6593 19.0066 17.042C18.6053 17.434 18.1806 17.63 17.7326 17.63C17.2753 17.63 16.9066 17.434 16.6266 17.042C16.3466 16.6593 16.2066 16.1227 16.2066 15.432C16.2066 14.8253 16.286 14.2607 16.4446 13.738C16.594 13.2153 16.7946 12.7627 17.0466 12.38C17.308 11.9973 17.6066 11.6987 17.9426 11.484C18.288 11.2693 18.6473 11.162 19.0206 11.162C19.226 11.162 19.408 11.1993 19.5666 11.274C19.7346 11.3393 19.8793 11.428 20.0006 11.54C20.122 11.652 20.2153 11.7827 20.2806 11.932C20.346 12.072 20.3786 12.2167 20.3786 12.366C20.3786 12.45 20.3693 12.5387 20.3506 12.632C20.388 12.6133 20.4253 12.604 20.4626 12.604C20.6866 12.604 20.7986 12.8047 20.7986 13.206C20.7986 13.346 20.78 13.5 20.7426 13.668C20.7053 13.836 20.6493 14.0133 20.5746 14.2C20.6213 14.6573 20.7426 15.2267 20.9386 15.908C21.1346 16.5893 21.326 17.3173 21.5126 18.092C22.2033 18.232 22.726 18.4887 23.0806 18.862C23.4353 19.2353 23.6126 19.6693 23.6126 20.164C23.6126 20.7707 23.426 21.3493 23.0526 21.9C22.6886 22.4507 22.1986 22.9127 21.5826 23.286C21.396 23.8273 21.1393 24.3033 20.8126 24.714C20.4953 25.1247 20.122 25.47 19.6926 25.75C19.2726 26.03 18.806 26.24 18.2926 26.38C17.7793 26.52 17.238 26.59 16.6686 26.59C15.9966 26.59 15.39 26.5107 14.8486 26.352C14.298 26.1933 13.8313 25.9787 13.4486 25.708C13.0566 25.4373 12.758 25.1153 12.5526 24.742C12.338 24.3687 12.2306 23.972 12.2306 23.552C12.2306 23.076 12.3333 22.6047 12.5386 22.138C12.744 21.6807 13.0286 21.242 13.3926 20.822C13.7566 20.4113 14.1906 20.0333 14.6946 19.688C15.1986 19.3427 15.754 19.0393 16.3606 18.778C16.958 18.526 17.5926 18.33 18.2646 18.19C18.946 18.05 19.6413 17.98 20.3506 17.98C20.3973 17.98 20.4393 17.98 20.4766 17.98C20.514 17.9893 20.5513 17.994 20.5886 17.994H20.7006C20.5886 17.4993 20.472 17.0327 20.3506 16.594C20.2293 16.146 20.1313 15.74 20.0566 15.376ZM16.5286 23.482C16.4073 23.398 16.3046 23.3 16.2206 23.188C16.1273 23.0853 16.0806 22.964 16.0806 22.824C16.0806 22.7213 16.1086 22.6373 16.1646 22.572C16.2206 22.5067 16.2953 22.474 16.3886 22.474C16.6686 22.7447 17 22.9453 17.3826 23.076C17.7653 23.216 18.232 23.286 18.7826 23.286C19.2213 23.286 19.6273 23.244 20.0006 23.16C20.374 23.0853 20.71 22.978 21.0086 22.838C21.1206 22.418 21.1766 21.956 21.1766 21.452C21.1766 21.0133 21.144 20.57 21.0786 20.122C21.0226 19.6833 20.9526 19.24 20.8686 18.792C20.738 18.7733 20.6073 18.7593 20.4766 18.75C20.346 18.7407 20.206 18.736 20.0566 18.736C19.1046 18.736 18.1993 18.8713 17.3406 19.142C16.482 19.422 15.7306 19.7813 15.0866 20.22C14.4426 20.668 13.934 21.1673 13.5606 21.718C13.178 22.2687 12.9866 22.8147 12.9866 23.356C12.9866 23.7107 13.08 24.0373 13.2666 24.336C13.444 24.6347 13.7006 24.8913 14.0366 25.106C14.3726 25.3207 14.7833 25.4887 15.2686 25.61C15.754 25.7407 16.3046 25.806 16.9206 25.806C17.8166 25.806 18.5866 25.624 19.2306 25.26C19.8746 24.896 20.36 24.378 20.6866 23.706C20.388 23.818 20.08 23.902 19.7626 23.958C19.4453 24.0233 19.1186 24.056 18.7826 24.056C18.2693 24.056 17.8306 24.0047 17.4666 23.902C17.1026 23.8087 16.79 23.6687 16.5286 23.482ZM20.0706 13.01C19.9493 13.0473 19.8466 13.038 19.7626 12.982C19.7626 12.8793 19.744 12.7673 19.7066 12.646C19.6693 12.5247 19.6133 12.4127 19.5386 12.31C19.464 12.2073 19.366 12.1233 19.2446 12.058C19.1233 11.9927 18.9833 11.96 18.8246 11.96C18.5913 11.96 18.3626 12.0393 18.1386 12.198C17.9146 12.3567 17.714 12.5807 17.5366 12.87C17.3686 13.15 17.2286 13.486 17.1166 13.878C17.014 14.27 16.9626 14.6993 16.9626 15.166C16.9626 15.67 17.042 16.062 17.2006 16.342C17.3593 16.6127 17.588 16.748 17.8866 16.748C18.1853 16.748 18.5213 16.5427 18.8946 16.132C19.268 15.7213 19.5993 15.082 19.8886 14.214C19.8886 13.9527 19.9026 13.724 19.9306 13.528C19.968 13.3227 20.0146 13.15 20.0706 13.01ZM22.8286 20.346C22.8286 20.0473 22.7353 19.7767 22.5486 19.534C22.3713 19.3007 22.0866 19.114 21.6946 18.974C21.7693 19.338 21.8253 19.6973 21.8626 20.052C21.9093 20.416 21.9326 20.7753 21.9326 21.13C21.9326 21.3447 21.9233 21.55 21.9046 21.746C21.886 21.9513 21.8626 22.1473 21.8346 22.334C22.1613 22.0633 22.4086 21.7553 22.5766 21.41C22.7446 21.0647 22.8286 20.71 22.8286 20.346Z" fill="#333333"/>
</g>
<defs>
<clipPath id="clip0_205_502">
<rect width="24" height="24" fill="white"/>
</clipPath>
</defs>
</svg>
