<svg width="24" height="24" viewBox="0 0 24 24" fill="none" xmlns="http://www.w3.org/2000/svg">
<path d="M5.97432 17C5.92765 17 5.80165 16.9907 5.59632 16.972C5.40032 16.944 5.15765 16.9113 4.86832 16.874C4.57899 16.8367 4.28499 16.7947 3.98632 16.748C3.68765 16.7013 3.40765 16.6547 3.14632 16.608C2.88499 16.5613 2.68432 16.5193 2.54432 16.482C2.54432 16.3513 2.55832 16.2393 2.58632 16.146C2.61432 16.0527 2.64699 15.992 2.68432 15.964L2.95032 15.866C3.04365 15.8287 3.14165 15.8053 3.24432 15.796C3.35632 15.7773 3.47765 15.7073 3.60832 15.586C3.73899 15.4553 3.87899 15.2173 4.02832 14.872C4.18699 14.5267 4.36432 14.0133 4.56032 13.332L6.01632 8.082C6.09099 7.998 6.22632 7.89533 6.42232 7.774C6.61832 7.64333 6.83765 7.51267 7.08032 7.382C7.33232 7.25133 7.56565 7.144 7.78032 7.06C8.00432 6.96667 8.17699 6.92 8.29832 6.92C8.43832 6.92 8.64365 6.95733 8.91432 7.032C9.19432 7.10667 9.47899 7.20933 9.76832 7.34C10.067 7.46133 10.3143 7.60133 10.5103 7.76L12.2323 15.502C12.2603 15.614 12.3117 15.6933 12.3863 15.74C12.461 15.7773 12.5543 15.8053 12.6663 15.824L13.5483 15.978C13.5857 16.0433 13.6137 16.0993 13.6323 16.146C13.6603 16.1833 13.679 16.2953 13.6883 16.482C13.6137 16.566 13.4923 16.65 13.3243 16.734C13.1563 16.8087 12.9837 16.874 12.8063 16.93C12.629 16.9767 12.4843 17 12.3723 17C12.3257 17 12.1763 16.986 11.9243 16.958C11.6817 16.93 11.383 16.8973 11.0283 16.86C10.683 16.8133 10.333 16.7667 9.97832 16.72C9.62365 16.6733 9.30632 16.6267 9.02632 16.58C8.75565 16.5333 8.57365 16.4913 8.48032 16.454C8.48032 16.314 8.50365 16.1973 8.55032 16.104C8.60632 16.0013 8.63432 15.9453 8.63432 15.936L9.08232 15.894C9.16632 15.8847 9.26432 15.8567 9.37632 15.81C9.49765 15.754 9.59099 15.6513 9.65632 15.502C9.72165 15.3527 9.71699 15.1193 9.64232 14.802L9.22232 13.066H6.08632L5.56832 14.914C5.53099 15.0447 5.47032 15.18 5.38632 15.32C5.30232 15.46 5.21365 15.5813 5.12032 15.684C5.03632 15.7773 4.96632 15.8287 4.91032 15.838L7.10832 16.006C7.12699 16.034 7.15965 16.0947 7.20632 16.188C7.25299 16.2813 7.27632 16.384 7.27632 16.496C7.21099 16.5707 7.09432 16.65 6.92632 16.734C6.75832 16.8087 6.58565 16.874 6.40832 16.93C6.23099 16.9767 6.08632 17 5.97432 17ZM6.35232 12.016C6.85632 11.988 7.28099 11.9693 7.62632 11.96C7.97165 11.9413 8.25165 11.9227 8.46632 11.904C8.69032 11.8853 8.85365 11.8667 8.95632 11.848L8.31232 8.824C8.14432 8.712 7.97632 8.62333 7.80832 8.558C7.64965 8.48333 7.47699 8.432 7.29032 8.404L6.35232 12.016ZM16.5523 19.8C16.4496 19.8 16.291 19.7673 16.0763 19.702C15.8616 19.646 15.6236 19.562 15.3623 19.45C15.1103 19.338 14.8676 19.212 14.6343 19.072C14.401 18.932 14.205 18.7827 14.0463 18.624C13.897 18.4653 13.8223 18.3067 13.8223 18.148C13.8223 17.98 13.883 17.7887 14.0043 17.574C14.135 17.3687 14.2936 17.1727 14.4803 16.986C14.6763 16.7993 14.8676 16.6547 15.0543 16.552C14.989 16.468 14.919 16.3653 14.8443 16.244C14.779 16.1133 14.7463 16.0107 14.7463 15.936C14.7463 15.852 14.7976 15.74 14.9003 15.6C15.0123 15.4507 15.1383 15.306 15.2783 15.166C15.4276 15.0167 15.5536 14.9 15.6563 14.816L16.6083 15.04V15.6C16.7203 15.6 16.907 15.614 17.1683 15.642C17.439 15.6607 17.7423 15.6887 18.0783 15.726C18.4236 15.7633 18.769 15.8147 19.1143 15.88C19.4596 15.936 19.7676 16.0013 20.0383 16.076C20.309 16.1413 20.5003 16.216 20.6123 16.3C20.6776 16.4213 20.7196 16.5847 20.7383 16.79C20.7663 16.986 20.7803 17.1587 20.7803 17.308C20.7803 17.6533 20.7523 17.994 20.6963 18.33C20.6403 18.666 20.561 18.9133 20.4583 19.072C20.2996 19.1933 20.0896 19.3007 19.8283 19.394C19.567 19.4873 19.259 19.562 18.9043 19.618C18.559 19.6833 18.1856 19.73 17.7843 19.758C17.383 19.786 16.9723 19.8 16.5523 19.8ZM17.3783 18.54C17.4903 18.54 17.6256 18.526 17.7843 18.498C17.943 18.47 18.111 18.4327 18.2883 18.386C18.475 18.3487 18.6523 18.3113 18.8203 18.274C18.839 18.2273 18.853 18.1807 18.8623 18.134C18.8716 18.0967 18.8763 18.0267 18.8763 17.924C18.8763 17.8493 18.8763 17.7513 18.8763 17.63C18.8763 17.518 18.867 17.42 18.8483 17.336C18.8203 17.3173 18.7223 17.2893 18.5543 17.252C18.3863 17.2147 18.181 17.1727 17.9383 17.126C17.705 17.0887 17.4623 17.0467 17.2103 17C16.9676 16.9627 16.753 16.93 16.5663 16.902C16.389 16.874 16.277 16.8553 16.2303 16.846C16.1836 16.9393 16.1323 17.042 16.0763 17.154C16.0203 17.266 15.9736 17.3687 15.9363 17.462C15.9083 17.5647 15.8943 17.6393 15.8943 17.686C15.8943 17.7513 15.9596 17.8307 16.0903 17.924C16.221 18.0267 16.375 18.1247 16.5523 18.218C16.739 18.3113 16.9116 18.386 17.0703 18.442C17.229 18.5073 17.3316 18.54 17.3783 18.54ZM16.6083 15.166C16.2723 15.0913 15.9736 15.026 15.7123 14.97C15.451 14.914 15.2223 14.858 15.0263 14.802C14.8396 14.746 14.681 14.6853 14.5503 14.62C14.429 14.5547 14.3356 14.48 14.2703 14.396C14.1956 14.284 14.1256 14.088 14.0603 13.808C14.0043 13.528 13.9763 13.2573 13.9763 12.996C13.9763 12.5387 14.009 12.1233 14.0743 11.75C14.149 11.3673 14.219 11.0733 14.2843 10.868C14.387 10.812 14.5736 10.7373 14.8443 10.644C15.115 10.5413 15.423 10.4433 15.7683 10.35C16.123 10.2473 16.4683 10.1633 16.8043 10.098C17.1496 10.0327 17.439 10 17.6723 10C17.8403 10 18.0223 10.014 18.2183 10.042C18.4143 10.07 18.601 10.1027 18.7783 10.14C18.9276 10.112 19.1376 10.0467 19.4083 9.944C19.679 9.832 19.9496 9.706 20.2203 9.566C20.5003 9.426 20.715 9.3 20.8643 9.188L21.2143 9.37C21.233 9.55667 21.2283 9.76667 21.2003 10C21.1816 10.224 21.149 10.4153 21.1023 10.574C20.8316 10.7047 20.575 10.8027 20.3323 10.868C20.0896 10.9333 19.8516 10.9753 19.6183 10.994V11.092C19.665 11.1293 19.735 11.1853 19.8283 11.26C19.9216 11.3253 20.0056 11.414 20.0803 11.526C20.127 11.6753 20.1643 11.8713 20.1923 12.114C20.2203 12.3473 20.2343 12.5667 20.2343 12.772C20.2343 13.0987 20.2016 13.4113 20.1363 13.71C20.0803 14.0087 20.001 14.2373 19.8983 14.396C19.7863 14.4893 19.5576 14.592 19.2123 14.704C18.867 14.8067 18.461 14.9 17.9943 14.984C17.5276 15.0587 17.0656 15.1193 16.6083 15.166ZM17.2243 14.116C17.2523 14.116 17.3036 14.1067 17.3783 14.088C17.4623 14.0693 17.5463 14.046 17.6303 14.018C17.7236 13.99 17.7983 13.962 17.8543 13.934C17.9103 13.7753 17.9523 13.5793 17.9803 13.346C18.0176 13.1127 18.0363 12.8747 18.0363 12.632C18.0363 12.38 18.0223 12.1373 17.9943 11.904C17.9756 11.6707 17.943 11.5027 17.8963 11.4C17.859 11.344 17.803 11.288 17.7283 11.232C17.6536 11.176 17.579 11.1293 17.5043 11.092C17.4296 11.0547 17.3643 11.036 17.3083 11.036C17.2523 11.036 17.1776 11.0407 17.0843 11.05C16.991 11.0593 16.8883 11.078 16.7763 11.106C16.6736 11.1247 16.557 11.1573 16.4263 11.204C16.3703 11.3253 16.3283 11.484 16.3003 11.68C16.2816 11.8667 16.2723 12.1047 16.2723 12.394C16.2723 12.5433 16.277 12.716 16.2863 12.912C16.2956 13.108 16.3096 13.29 16.3283 13.458C16.347 13.6167 16.375 13.724 16.4123 13.78C16.4496 13.8267 16.5196 13.878 16.6223 13.934C16.7343 13.9807 16.8463 14.0227 16.9583 14.06C17.0796 14.0973 17.1683 14.116 17.2243 14.116Z" fill="#888888"/>
</svg>
