<svg width="24" height="24" viewBox="0 0 24 24" fill="none" xmlns="http://www.w3.org/2000/svg">
<path d="M5.61923 17C5.55389 17 5.40456 16.986 5.17123 16.958C4.94723 16.9207 4.68589 16.8787 4.38723 16.832C4.08856 16.7853 3.80389 16.734 3.53323 16.678C3.26256 16.622 3.04789 16.5707 2.88923 16.524C2.91723 16.44 2.95456 16.3607 3.00123 16.286C3.03856 16.2113 3.07589 16.16 3.11323 16.132L3.29523 16.118C3.37923 16.1087 3.47723 16.0807 3.58923 16.034C3.71056 15.9873 3.84589 15.8893 3.99523 15.74C4.15389 15.5813 4.33123 15.334 4.52723 14.998C4.73256 14.662 4.97056 14.2047 5.24123 13.626L7.91523 7.956C8.00856 7.872 8.14856 7.774 8.33523 7.662C8.52189 7.54067 8.72256 7.424 8.93723 7.312C9.15189 7.2 9.35256 7.10667 9.53923 7.032C9.72589 6.95733 9.86589 6.92 9.95923 6.92C10.0806 6.92 10.2299 6.962 10.4072 7.046C10.5939 7.13 10.7806 7.23733 10.9672 7.368C11.1539 7.48933 11.3032 7.61533 11.4152 7.746L11.7092 15.726C11.7186 15.8567 11.7372 15.9453 11.7652 15.992C11.8026 16.0293 11.8772 16.0573 11.9892 16.076L12.8292 16.16C12.8479 16.188 12.8619 16.2347 12.8712 16.3C12.8899 16.356 12.8899 16.4307 12.8712 16.524C12.7779 16.5987 12.6566 16.6733 12.5072 16.748C12.3672 16.8227 12.2226 16.8833 12.0732 16.93C11.9332 16.9767 11.8072 17 11.6952 17C11.6299 17 11.5039 16.986 11.3172 16.958C11.1399 16.93 10.9299 16.8973 10.6872 16.86C10.4539 16.8133 10.2159 16.7667 9.97323 16.72C9.73989 16.6733 9.52989 16.6267 9.34323 16.58C9.15656 16.5333 9.02589 16.496 8.95123 16.468C8.96989 16.3747 8.99789 16.3 9.03523 16.244C9.08189 16.1787 9.12389 16.1227 9.16123 16.076H9.53923C9.67923 16.0667 9.80056 16.048 9.90323 16.02C10.0059 15.9827 10.0852 15.908 10.1412 15.796C10.2066 15.6747 10.2346 15.488 10.2252 15.236L10.1692 13.01H6.61323L5.68923 14.998C5.53056 15.3527 5.36256 15.6093 5.18523 15.768C5.00789 15.9173 4.88656 16.0013 4.82123 16.02L6.72523 16.174C6.75323 16.2113 6.77189 16.2627 6.78123 16.328C6.79989 16.3933 6.79989 16.4587 6.78123 16.524C6.70656 16.5987 6.59456 16.6733 6.44523 16.748C6.30523 16.8227 6.15589 16.8833 5.99723 16.93C5.84789 16.9767 5.72189 17 5.61923 17ZM6.99123 12.156C7.47656 12.156 7.92456 12.1513 8.33523 12.142C8.74589 12.1233 9.10523 12.1047 9.41323 12.086C9.73056 12.0673 9.97789 12.044 10.1552 12.016L10.0712 8.46C9.90323 8.32933 9.72123 8.222 9.52523 8.138C9.33856 8.04467 9.14256 7.98867 8.93723 7.97L6.99123 12.156ZM16.0164 19.8C15.8951 19.8 15.7271 19.786 15.5124 19.758C15.2977 19.7393 15.0597 19.7113 14.7984 19.674C14.5371 19.6367 14.2851 19.59 14.0424 19.534C13.7997 19.4873 13.5944 19.4313 13.4264 19.366C13.1464 19.1607 12.9411 18.946 12.8104 18.722C12.6797 18.498 12.6051 18.3207 12.5864 18.19C12.6051 18.1247 12.6984 18.0407 12.8664 17.938C13.0344 17.8447 13.2491 17.7373 13.5104 17.616C13.7717 17.4947 14.0471 17.3687 14.3364 17.238C14.6351 17.1073 14.9197 16.9767 15.1904 16.846C15.0037 16.762 14.8077 16.664 14.6024 16.552C14.4064 16.44 14.2384 16.328 14.0984 16.216C13.9584 16.0947 13.8791 16.006 13.8604 15.95C13.8604 15.614 13.8931 15.2407 13.9584 14.83C14.0237 14.4193 14.1077 14.0087 14.2104 13.598C14.3131 13.1873 14.4157 12.8093 14.5184 12.464C14.6304 12.1187 14.7284 11.834 14.8124 11.61C14.9057 11.386 14.9664 11.2553 14.9944 11.218C15.0504 11.1433 15.1484 11.0407 15.2884 10.91C15.4377 10.7793 15.6011 10.644 15.7784 10.504C15.9557 10.364 16.1237 10.2473 16.2824 10.154C16.4504 10.0513 16.5764 10 16.6604 10C16.8377 10 17.0524 10.042 17.3044 10.126C17.5564 10.2007 17.8224 10.3033 18.1024 10.434C18.3824 10.5553 18.6577 10.6907 18.9284 10.84L19.0684 10C19.1524 10 19.2644 10.0047 19.4044 10.014C19.5444 10.0233 19.6844 10.0467 19.8244 10.084C19.9737 10.112 20.0951 10.168 20.1884 10.252C20.2817 10.3267 20.3284 10.434 20.3284 10.574C20.3284 10.5833 20.3284 10.6067 20.3284 10.644C20.3284 10.672 20.3237 10.7 20.3144 10.728L19.0964 15.866C19.0124 16.23 18.8864 16.6033 18.7184 16.986C18.5597 17.3593 18.3684 17.7093 18.1444 18.036C17.9297 18.372 17.6964 18.6707 17.4444 18.932C17.2017 19.2027 16.9591 19.4127 16.7164 19.562C16.4737 19.7207 16.2404 19.8 16.0164 19.8ZM16.5204 18.904C16.7071 18.68 16.8937 18.358 17.0804 17.938C17.2764 17.518 17.4677 16.9953 17.6544 16.37L18.4384 13.738C18.5131 13.514 18.5784 13.3133 18.6344 13.136C18.6997 12.9587 18.7511 12.842 18.7884 12.786L18.7184 12.744C18.5224 13.1267 18.2937 13.556 18.0324 14.032C17.7804 14.508 17.5191 14.9653 17.2484 15.404C16.9777 15.8427 16.7211 16.2113 16.4784 16.51C16.3477 16.6593 16.1751 16.818 15.9604 16.986C15.7551 17.154 15.5311 17.3173 15.2884 17.476C15.0551 17.644 14.8357 17.798 14.6304 17.938C14.4251 18.078 14.2617 18.19 14.1404 18.274C14.2711 18.358 14.4764 18.4467 14.7564 18.54C15.0457 18.6427 15.3491 18.7267 15.6664 18.792C15.9931 18.8573 16.2777 18.8947 16.5204 18.904ZM16.0304 15.796C16.0677 15.796 16.1517 15.7167 16.2824 15.558C16.4131 15.3993 16.5671 15.1893 16.7444 14.928C16.9217 14.6667 17.1131 14.382 17.3184 14.074C17.5237 13.766 17.7197 13.4533 17.9064 13.136C18.1024 12.8187 18.2797 12.5247 18.4384 12.254C18.5971 11.974 18.7137 11.75 18.7884 11.582C18.3217 11.4327 17.8877 11.3253 17.4864 11.26C17.0851 11.1853 16.7211 11.1433 16.3944 11.134C16.3011 11.246 16.1984 11.442 16.0864 11.722C15.9837 12.002 15.8811 12.324 15.7784 12.688C15.6851 13.0427 15.6011 13.402 15.5264 13.766C15.4517 14.13 15.3911 14.452 15.3444 14.732C15.2977 15.012 15.2744 15.208 15.2744 15.32C15.3584 15.432 15.4844 15.5393 15.6524 15.642C15.8297 15.7447 15.9557 15.796 16.0304 15.796Z" fill="#888888"/>
</svg>
