<svg width="24" height="24" viewBox="0 0 24 24" fill="none" xmlns="http://www.w3.org/2000/svg">
<path d="M6.52157 17C6.4749 17 6.38624 16.9953 6.25557 16.986C6.1249 16.9673 5.9709 16.9487 5.79357 16.93C5.62557 16.902 5.4529 16.874 5.27557 16.846C5.09824 16.818 4.93024 16.79 4.77157 16.762C4.6129 16.7247 4.48224 16.692 4.37957 16.664C4.37957 16.5987 4.39357 16.5333 4.42157 16.468C4.44957 16.4027 4.48224 16.3607 4.51957 16.342H4.60357C4.70624 16.342 4.8089 16.2953 4.91157 16.202C5.02357 16.0993 5.12624 15.964 5.21957 15.796C5.32224 15.6187 5.42024 15.404 5.51357 15.152C5.6069 14.9 5.6909 14.6153 5.76557 14.298L7.44557 7.69C7.5109 7.61533 7.6089 7.536 7.73957 7.452C7.87024 7.35867 8.01024 7.27467 8.15957 7.2C8.3089 7.116 8.4489 7.05067 8.57957 7.004C8.71024 6.948 8.80824 6.92 8.87357 6.92C8.98557 6.92 9.11624 6.962 9.26557 7.046C9.4149 7.12067 9.56424 7.214 9.71357 7.326C9.87224 7.42867 9.99824 7.52667 10.0916 7.62L11.9536 15.95C11.9816 16.0713 12.0096 16.16 12.0376 16.216C12.0656 16.2627 12.1449 16.2953 12.2756 16.314L12.9616 16.37C12.9802 16.3887 12.9989 16.4073 13.0176 16.426C13.0362 16.4447 13.0502 16.5007 13.0596 16.594C13.0036 16.65 12.9242 16.7107 12.8216 16.776C12.7282 16.832 12.6302 16.8833 12.5276 16.93C12.4342 16.9767 12.3409 17 12.2476 17C12.1822 17 12.0749 16.9907 11.9256 16.972C11.7762 16.9533 11.6082 16.93 11.4216 16.902C11.2349 16.874 11.0529 16.846 10.8756 16.818C10.6982 16.7807 10.5349 16.748 10.3856 16.72C10.2456 16.6827 10.1429 16.6547 10.0776 16.636C10.0776 16.5893 10.0869 16.5333 10.1056 16.468C10.1336 16.4027 10.1616 16.3513 10.1896 16.314H10.5116C10.6796 16.314 10.8009 16.3047 10.8756 16.286C10.9596 16.2673 11.0062 16.2113 11.0156 16.118C11.0342 16.0153 11.0156 15.852 10.9596 15.628L10.3716 12.968H6.84357L6.31157 15.166C6.2649 15.3713 6.19957 15.5487 6.11557 15.698C6.0409 15.8473 5.96624 15.9687 5.89157 16.062C5.8169 16.146 5.7469 16.2067 5.68157 16.244L7.24957 16.356C7.26824 16.3653 7.2869 16.3933 7.30557 16.44C7.32424 16.4773 7.33357 16.5287 7.33357 16.594C7.24957 16.678 7.15624 16.7527 7.05357 16.818C6.96024 16.874 6.8669 16.9207 6.77357 16.958C6.68024 16.986 6.59624 17 6.52157 17ZM6.99757 12.408C7.33357 12.3987 7.7069 12.3893 8.11757 12.38C8.53757 12.3613 8.9389 12.3427 9.32157 12.324C9.70424 12.296 10.0029 12.2727 10.2176 12.254L9.30757 8.11C9.11157 7.97 8.92024 7.858 8.73357 7.774C8.5469 7.68067 8.36024 7.62 8.17357 7.592L6.99757 12.408ZM15.9355 19.8C15.7955 19.8 15.6135 19.758 15.3895 19.674C15.1748 19.59 14.9461 19.478 14.7035 19.338C14.4608 19.198 14.2275 19.044 14.0035 18.876C13.7888 18.7173 13.6115 18.5587 13.4715 18.4C13.3408 18.2413 13.2755 18.1013 13.2755 17.98C13.2755 17.8493 13.3548 17.6907 13.5135 17.504C13.6721 17.3173 13.8635 17.1213 14.0875 16.916C14.3208 16.7107 14.5401 16.5287 14.7455 16.37C14.7081 16.3233 14.6568 16.2533 14.5915 16.16C14.5355 16.0667 14.5075 15.9827 14.5075 15.908C14.5075 15.8427 14.5588 15.726 14.6615 15.558C14.7735 15.39 14.8948 15.2267 15.0255 15.068C15.1655 14.9 15.2775 14.7833 15.3615 14.718L15.6695 14.83L15.3895 15.81C15.4828 15.8287 15.6601 15.852 15.9215 15.88C16.1828 15.908 16.4815 15.9453 16.8175 15.992C17.1535 16.0293 17.4895 16.0807 17.8255 16.146C18.1615 16.202 18.4508 16.2627 18.6935 16.328C18.9455 16.3933 19.1088 16.4633 19.1835 16.538C19.2301 16.6593 19.2628 16.79 19.2815 16.93C19.3001 17.0607 19.3095 17.2007 19.3095 17.35C19.3095 17.6487 19.2768 17.9473 19.2115 18.246C19.1461 18.5447 19.0761 18.7687 19.0015 18.918C18.8801 19.002 18.7075 19.0953 18.4835 19.198C18.2688 19.3007 18.0168 19.394 17.7275 19.478C17.4475 19.5713 17.1535 19.646 16.8455 19.702C16.5375 19.7673 16.2341 19.8 15.9355 19.8ZM16.1175 19.072C16.2855 19.072 16.5095 19.0487 16.7895 19.002C17.0695 18.9553 17.3541 18.8947 17.6435 18.82C17.9328 18.7547 18.1615 18.6893 18.3295 18.624C18.3761 18.5213 18.4135 18.3627 18.4415 18.148C18.4695 17.9333 18.4835 17.7513 18.4835 17.602C18.4835 17.5087 18.4788 17.4013 18.4695 17.28C18.4601 17.1587 18.4368 17.0653 18.3995 17C18.3808 16.9813 18.2735 16.9533 18.0775 16.916C17.8815 16.8787 17.6435 16.8413 17.3635 16.804C17.0928 16.7573 16.8128 16.7153 16.5235 16.678C16.2341 16.6407 15.9821 16.608 15.7675 16.58C15.5528 16.552 15.4175 16.5333 15.3615 16.524C15.2028 16.692 15.0348 16.8693 14.8575 17.056C14.6801 17.2427 14.5308 17.406 14.4095 17.546C14.2881 17.6953 14.2275 17.798 14.2275 17.854C14.2275 17.9287 14.3021 18.0313 14.4515 18.162C14.6008 18.302 14.7828 18.442 14.9975 18.582C15.2121 18.722 15.4221 18.8387 15.6275 18.932C15.8328 19.0253 15.9961 19.072 16.1175 19.072ZM15.5715 15.082C15.2915 14.9607 15.0581 14.858 14.8715 14.774C14.6848 14.6807 14.5261 14.6013 14.3955 14.536C14.2741 14.4707 14.1761 14.4147 14.1015 14.368C14.0361 14.312 13.9895 14.256 13.9615 14.2C13.8681 14.0507 13.7935 13.8687 13.7375 13.654C13.6908 13.4393 13.6675 13.2013 13.6675 12.94C13.6675 12.5107 13.7048 12.1047 13.7795 11.722C13.8635 11.3393 13.9428 11.05 14.0175 10.854C14.1108 10.798 14.2461 10.7233 14.4235 10.63C14.6101 10.5367 14.8155 10.4433 15.0395 10.35C15.2728 10.2473 15.5108 10.1633 15.7535 10.098C15.9961 10.0327 16.2248 10 16.4395 10C16.5701 10 16.7288 10.028 16.9155 10.084C17.1115 10.14 17.2421 10.1867 17.3075 10.224C17.5408 10.168 17.7881 10.0887 18.0495 9.986C18.3108 9.88333 18.5581 9.776 18.7915 9.664C19.0248 9.552 19.2115 9.454 19.3515 9.37L19.5335 9.496C19.5335 9.64533 19.5148 9.79 19.4775 9.93C19.4495 10.0607 19.4168 10.1633 19.3795 10.238C19.1741 10.3127 18.9455 10.3827 18.6935 10.448C18.4415 10.504 18.1895 10.546 17.9375 10.574V10.63C18.0401 10.6953 18.1381 10.7653 18.2315 10.84C18.3248 10.9053 18.4228 11.008 18.5255 11.148C18.5908 11.288 18.6375 11.4513 18.6655 11.638C18.7028 11.8247 18.7215 12.0207 18.7215 12.226C18.7215 12.5993 18.6841 12.9727 18.6095 13.346C18.5441 13.71 18.4601 14.0227 18.3575 14.284C18.2268 14.3867 18.0028 14.5033 17.6855 14.634C17.3681 14.7553 17.0181 14.8627 16.6355 14.956C16.2621 15.0493 15.9075 15.0913 15.5715 15.082ZM16.3415 14.396C16.4441 14.396 16.5795 14.3773 16.7475 14.34C16.9248 14.2933 17.0928 14.2467 17.2515 14.2C17.4101 14.144 17.5128 14.102 17.5595 14.074C17.6435 13.9153 17.7135 13.696 17.7695 13.416C17.8348 13.1267 17.8675 12.8373 17.8675 12.548C17.8675 12.2773 17.8535 12.0347 17.8255 11.82C17.8068 11.6053 17.7648 11.4373 17.6995 11.316C17.6248 11.2413 17.4988 11.1573 17.3215 11.064C17.1441 10.9613 16.9575 10.8773 16.7615 10.812C16.5748 10.7373 16.4115 10.7 16.2715 10.7C16.1315 10.7 15.9541 10.728 15.7395 10.784C15.5341 10.8307 15.3335 10.8913 15.1375 10.966C14.9508 11.0313 14.8155 11.092 14.7315 11.148C14.6568 11.316 14.5961 11.5307 14.5495 11.792C14.5028 12.044 14.4795 12.296 14.4795 12.548C14.4795 12.7347 14.4888 12.9167 14.5075 13.094C14.5261 13.262 14.5541 13.4113 14.5915 13.542C14.6288 13.6727 14.6708 13.7707 14.7175 13.836C14.7641 13.892 14.8901 13.9667 15.0955 14.06C15.3008 14.144 15.5201 14.2233 15.7535 14.298C15.9961 14.3633 16.1921 14.396 16.3415 14.396Z" fill="#888888"/>
</svg>
