<svg width="24" height="24" viewBox="0 0 24 24" fill="none" xmlns="http://www.w3.org/2000/svg">
<path d="M5.95934 17C5.91267 17 5.79134 16.9907 5.59534 16.972C5.39934 16.944 5.16134 16.9113 4.88134 16.874C4.60134 16.8367 4.312 16.7993 4.01334 16.762C3.724 16.7153 3.45334 16.6687 3.20134 16.622C2.94934 16.5753 2.75334 16.5333 2.61334 16.496C2.61334 16.3747 2.62734 16.272 2.65534 16.188C2.68334 16.0947 2.716 16.034 2.75334 16.006L2.99134 15.922C3.094 15.894 3.20134 15.866 3.31334 15.838C3.42534 15.81 3.54667 15.726 3.67734 15.586C3.808 15.446 3.94334 15.208 4.08334 14.872C4.23267 14.5267 4.40067 14.0273 4.58734 13.374L6.08534 8.054C6.16 7.97 6.29067 7.86733 6.47734 7.746C6.67334 7.62467 6.888 7.49867 7.12134 7.368C7.35467 7.23733 7.57867 7.13 7.79334 7.046C8.01734 6.962 8.18534 6.92 8.29734 6.92C8.43734 6.92 8.63334 6.95733 8.88534 7.032C9.14667 7.10667 9.41734 7.20933 9.69734 7.34C9.97734 7.46133 10.206 7.60133 10.3833 7.76L12.1473 15.558C12.1753 15.67 12.222 15.7493 12.2873 15.796C12.3527 15.8427 12.446 15.8753 12.5673 15.894L13.4493 16.02C13.4773 16.076 13.5053 16.1273 13.5333 16.174C13.5613 16.2113 13.58 16.3187 13.5893 16.496C13.5147 16.5707 13.398 16.65 13.2393 16.734C13.0807 16.8087 12.9127 16.874 12.7353 16.93C12.5673 16.9767 12.4273 17 12.3153 17C12.2593 17 12.11 16.986 11.8673 16.958C11.634 16.93 11.3493 16.8973 11.0133 16.86C10.6867 16.8133 10.3553 16.7667 10.0193 16.72C9.68334 16.6733 9.38467 16.6267 9.12334 16.58C8.862 16.524 8.68467 16.482 8.59134 16.454C8.59134 16.3233 8.61467 16.216 8.66134 16.132C8.71734 16.0387 8.74534 15.9827 8.74534 15.964L9.19334 15.936C9.296 15.9267 9.40334 15.9033 9.51534 15.866C9.62734 15.8193 9.71134 15.726 9.76734 15.586C9.83267 15.446 9.828 15.222 9.75334 14.914L9.31934 13.052H6.08534L5.53934 14.928C5.502 15.0773 5.44134 15.222 5.35734 15.362C5.27334 15.502 5.18467 15.6187 5.09134 15.712C5.00734 15.8053 4.93267 15.8613 4.86734 15.88L7.05134 16.048C7.07 16.076 7.098 16.132 7.13534 16.216C7.182 16.3 7.20534 16.398 7.20534 16.51C7.14 16.5847 7.02334 16.6593 6.85534 16.734C6.69667 16.8087 6.53334 16.874 6.36534 16.93C6.19734 16.9767 6.062 17 5.95934 17ZM6.33734 12.058C6.832 12.0393 7.26134 12.0207 7.62534 12.002C7.98934 11.9833 8.288 11.9647 8.52134 11.946C8.764 11.9273 8.946 11.9087 9.06734 11.89L8.38134 8.726C8.204 8.60467 8.02667 8.51133 7.84934 8.446C7.68134 8.37133 7.504 8.32 7.31734 8.292L6.33734 12.058ZM16.5259 19.8C16.4139 19.8 16.2459 19.7673 16.0219 19.702C15.8073 19.6367 15.5739 19.5433 15.3219 19.422C15.0699 19.31 14.8273 19.1793 14.5939 19.03C14.3699 18.89 14.1833 18.736 14.0339 18.568C13.8846 18.4093 13.8099 18.2553 13.8099 18.106C13.8099 17.938 13.8753 17.7513 14.0059 17.546C14.1366 17.35 14.2999 17.1587 14.4959 16.972C14.7013 16.7853 14.9019 16.636 15.0979 16.524C15.0326 16.4493 14.9673 16.3513 14.9019 16.23C14.8366 16.1087 14.8039 16.0107 14.8039 15.936C14.8039 15.852 14.8553 15.74 14.9579 15.6C15.0699 15.4507 15.1959 15.306 15.3359 15.166C15.4853 15.026 15.6113 14.914 15.7139 14.83L16.5539 15.026L16.5259 15.628C16.6286 15.628 16.8106 15.642 17.0719 15.67C17.3426 15.698 17.6459 15.7307 17.9819 15.768C18.3273 15.8053 18.6726 15.8567 19.0179 15.922C19.3633 15.978 19.6713 16.0433 19.9419 16.118C20.2126 16.1833 20.3993 16.258 20.5019 16.342C20.5579 16.4633 20.5953 16.6173 20.6139 16.804C20.6419 16.9907 20.6559 17.1587 20.6559 17.308C20.6559 17.6347 20.6279 17.9613 20.5719 18.288C20.5253 18.6147 20.4553 18.862 20.3619 19.03C20.2126 19.142 20.0073 19.2447 19.7459 19.338C19.4939 19.4313 19.1953 19.5107 18.8499 19.576C18.5046 19.6507 18.1313 19.7067 17.7299 19.744C17.3379 19.7813 16.9366 19.8 16.5259 19.8ZM17.2679 18.596C17.3893 18.596 17.5386 18.582 17.7159 18.554C17.9026 18.526 18.0939 18.4887 18.2899 18.442C18.4953 18.4047 18.6773 18.3673 18.8359 18.33C18.8546 18.274 18.8686 18.2087 18.8779 18.134C18.8873 18.0687 18.8919 17.9893 18.8919 17.896C18.8919 17.8027 18.8873 17.7 18.8779 17.588C18.8779 17.476 18.8686 17.3827 18.8499 17.308C18.8219 17.2893 18.7239 17.2613 18.5559 17.224C18.3879 17.1867 18.1826 17.1447 17.9399 17.098C17.6973 17.0607 17.4499 17.0233 17.1979 16.986C16.9459 16.9393 16.7266 16.902 16.5399 16.874C16.3626 16.846 16.2459 16.8273 16.1899 16.818C16.1246 16.9207 16.0546 17.028 15.9799 17.14C15.9146 17.2613 15.8539 17.3733 15.7979 17.476C15.7513 17.5787 15.7279 17.6533 15.7279 17.7C15.7279 17.7653 15.7933 17.8493 15.9239 17.952C16.0639 18.0547 16.2226 18.1527 16.3999 18.246C16.5866 18.3487 16.7593 18.4327 16.9179 18.498C17.0859 18.5633 17.2026 18.596 17.2679 18.596ZM16.5259 15.18C16.2179 15.1053 15.9379 15.0353 15.6859 14.97C15.4339 14.9047 15.2146 14.844 15.0279 14.788C14.8506 14.7227 14.7013 14.6573 14.5799 14.592C14.4679 14.5173 14.3793 14.4427 14.3139 14.368C14.2393 14.256 14.1693 14.0693 14.1039 13.808C14.0386 13.5373 14.0059 13.2667 14.0059 12.996C14.0059 12.548 14.0386 12.142 14.1039 11.778C14.1786 11.4047 14.2486 11.1107 14.3139 10.896C14.4166 10.84 14.5986 10.7653 14.8599 10.672C15.1213 10.5693 15.4153 10.4667 15.7419 10.364C16.0779 10.2613 16.4093 10.1773 16.7359 10.112C17.0626 10.0373 17.3379 10 17.5619 10C17.7299 10 17.9073 10.0187 18.0939 10.056C18.2806 10.084 18.4533 10.112 18.6119 10.14C18.7893 10.112 19.0133 10.0467 19.2839 9.944C19.5639 9.832 19.8346 9.71067 20.0959 9.58C20.3666 9.44 20.5766 9.31867 20.7259 9.216L21.0479 9.398C21.0666 9.58467 21.0619 9.79 21.0339 10.014C21.0059 10.2287 20.9686 10.4107 20.9219 10.56C20.6699 10.672 20.4226 10.756 20.1799 10.812C19.9373 10.868 19.6946 10.9053 19.4519 10.924V11.022C19.5079 11.0593 19.5826 11.1153 19.6759 11.19C19.7693 11.2553 19.8579 11.3487 19.9419 11.47C19.9886 11.6193 20.0259 11.8107 20.0539 12.044C20.0913 12.2773 20.1099 12.4967 20.1099 12.702C20.1099 13.038 20.0773 13.36 20.0119 13.668C19.9466 13.976 19.8673 14.214 19.7739 14.382C19.6619 14.4753 19.4379 14.5827 19.1019 14.704C18.7659 14.816 18.3693 14.914 17.9119 14.998C17.4639 15.082 17.0019 15.1427 16.5259 15.18ZM17.1699 14.2C17.2166 14.2 17.2866 14.1907 17.3799 14.172C17.4733 14.144 17.5713 14.1113 17.6739 14.074C17.7766 14.0367 17.8559 14.004 17.9119 13.976C17.9679 13.8267 18.0099 13.6353 18.0379 13.402C18.0753 13.1687 18.0939 12.9307 18.0939 12.688C18.0939 12.4173 18.0799 12.1607 18.0519 11.918C18.0333 11.6753 18.0006 11.5073 17.9539 11.414C17.9166 11.358 17.8513 11.302 17.7579 11.246C17.6646 11.1807 17.5666 11.1293 17.4639 11.092C17.3706 11.0453 17.2959 11.022 17.2399 11.022C17.1653 11.022 17.0719 11.0313 16.9599 11.05C16.8573 11.0593 16.7406 11.0827 16.6099 11.12C16.4886 11.148 16.3673 11.1853 16.2459 11.232C16.1899 11.3533 16.1479 11.512 16.1199 11.708C16.0919 11.8947 16.0779 12.1233 16.0779 12.394C16.0779 12.5713 16.0826 12.7627 16.0919 12.968C16.1106 13.164 16.1293 13.3413 16.1479 13.5C16.1759 13.6493 16.2086 13.752 16.2459 13.808C16.2833 13.8547 16.3626 13.9107 16.4839 13.976C16.6053 14.032 16.7313 14.0833 16.8619 14.13C16.9926 14.1767 17.0953 14.2 17.1699 14.2Z" fill="#888888"/>
</svg>
