<svg width="24" height="24" viewBox="0 0 24 24" fill="none" xmlns="http://www.w3.org/2000/svg">
<path d="M5.92188 17C5.87521 17 5.75854 16.9907 5.57188 16.972C5.39454 16.9533 5.17521 16.9253 4.91388 16.888C4.65254 16.8507 4.38188 16.8133 4.10188 16.776C3.83121 16.7293 3.57454 16.6827 3.33188 16.636C3.08921 16.5893 2.89788 16.5473 2.75788 16.51C2.75788 16.4167 2.77654 16.3327 2.81388 16.258C2.85121 16.174 2.88854 16.1133 2.92588 16.076L3.09388 16.048C3.20588 16.0387 3.32254 16.006 3.44388 15.95C3.56521 15.8847 3.69121 15.768 3.82188 15.6C3.95254 15.4227 4.08788 15.166 4.22788 14.83C4.36788 14.494 4.51721 14.046 4.67588 13.486L6.22988 8.012C6.31388 7.928 6.44454 7.82533 6.62188 7.704C6.79921 7.58267 6.99521 7.46133 7.20988 7.34C7.43388 7.21867 7.64388 7.12067 7.83988 7.046C8.04521 6.962 8.19921 6.92 8.30188 6.92C8.43254 6.92 8.60988 6.962 8.83388 7.046C9.06721 7.12067 9.30054 7.22333 9.53388 7.354C9.77654 7.47533 9.97254 7.606 10.1219 7.746L11.9699 15.684C11.9979 15.7867 12.0352 15.866 12.0819 15.922C12.1379 15.978 12.2312 16.0153 12.3619 16.034L13.2439 16.118C13.2719 16.1553 13.2999 16.1927 13.3279 16.23C13.3559 16.258 13.3745 16.3513 13.3839 16.51C13.3092 16.5847 13.2019 16.6593 13.0619 16.734C12.9219 16.8087 12.7725 16.874 12.6139 16.93C12.4645 16.9767 12.3339 17 12.2219 17C12.1472 17 11.9979 16.986 11.7739 16.958C11.5499 16.93 11.2885 16.8927 10.9899 16.846C10.7005 16.7993 10.4065 16.7527 10.1079 16.706C9.81854 16.6593 9.55721 16.6127 9.32388 16.566C9.09988 16.51 8.94121 16.468 8.84788 16.44C8.84788 16.328 8.87121 16.2347 8.91788 16.16C8.96454 16.0853 8.99254 16.0433 9.00188 16.034H9.46388C9.59454 16.0247 9.71121 16.006 9.81387 15.978C9.92588 15.95 10.0052 15.8753 10.0519 15.754C10.0985 15.6327 10.0845 15.432 10.0099 15.152L9.53388 13.01H6.06188L5.51588 14.97C5.45988 15.1473 5.38988 15.3107 5.30588 15.46C5.23121 15.6 5.14721 15.712 5.05388 15.796C4.96988 15.88 4.88121 15.936 4.78788 15.964L6.94388 16.132C6.95321 16.16 6.97188 16.2113 6.99988 16.286C7.03721 16.3513 7.05588 16.4307 7.05588 16.524C6.98121 16.5987 6.87388 16.6733 6.73388 16.748C6.59388 16.8227 6.44921 16.8833 6.29988 16.93C6.15054 16.9767 6.02454 17 5.92188 17ZM6.29988 12.142C6.78521 12.1327 7.22388 12.1187 7.61588 12.1C8.01721 12.0813 8.35788 12.0627 8.63788 12.044C8.92721 12.0253 9.14654 12.002 9.29588 11.974L8.52588 8.53C8.32988 8.39 8.13388 8.28267 7.93788 8.208C7.75121 8.13333 7.56454 8.07733 7.37788 8.04L6.29988 12.142ZM16.467 19.8C16.3364 19.8 16.1544 19.7627 15.921 19.688C15.697 19.6133 15.459 19.5107 15.207 19.38C14.9644 19.2493 14.731 19.1047 14.507 18.946C14.2924 18.7967 14.115 18.638 13.975 18.47C13.835 18.3113 13.765 18.1573 13.765 18.008C13.765 17.8587 13.835 17.686 13.975 17.49C14.1244 17.3033 14.3064 17.1167 14.521 16.93C14.745 16.7433 14.9597 16.594 15.165 16.482C15.109 16.4073 15.053 16.3187 14.997 16.216C14.941 16.1133 14.913 16.02 14.913 15.936C14.913 15.8427 14.9644 15.7307 15.067 15.6C15.1697 15.46 15.291 15.32 15.431 15.18C15.5804 15.04 15.7064 14.9327 15.809 14.858L16.411 14.998L16.341 15.684C16.4157 15.6933 16.5837 15.712 16.845 15.74C17.1064 15.768 17.405 15.8053 17.741 15.852C18.0864 15.8893 18.4317 15.9407 18.777 16.006C19.1224 16.062 19.4257 16.1273 19.687 16.202C19.9484 16.2673 20.1257 16.342 20.219 16.426C20.275 16.5473 20.3124 16.6873 20.331 16.846C20.359 17.0047 20.373 17.154 20.373 17.294C20.373 17.5833 20.3497 17.882 20.303 18.19C20.2564 18.498 20.191 18.75 20.107 18.946C19.995 19.03 19.813 19.1233 19.561 19.226C19.309 19.3287 19.015 19.422 18.679 19.506C18.3524 19.5993 17.9977 19.6693 17.615 19.716C17.2324 19.772 16.8497 19.8 16.467 19.8ZM16.971 18.708C17.139 18.708 17.3444 18.694 17.587 18.666C17.8297 18.6473 18.0677 18.6147 18.301 18.568C18.5437 18.5307 18.735 18.4887 18.875 18.442C18.8937 18.3767 18.9077 18.2787 18.917 18.148C18.9264 18.0173 18.931 17.91 18.931 17.826C18.931 17.7047 18.9217 17.588 18.903 17.476C18.8937 17.3733 18.875 17.294 18.847 17.238C18.8284 17.2193 18.7257 17.1913 18.539 17.154C18.3617 17.1167 18.147 17.0747 17.895 17.028C17.6524 16.9907 17.4004 16.9533 17.139 16.916C16.8777 16.8693 16.649 16.832 16.453 16.804C16.257 16.776 16.131 16.7573 16.075 16.748C15.9724 16.8693 15.865 16.9953 15.753 17.126C15.6504 17.2567 15.5617 17.3733 15.487 17.476C15.4124 17.588 15.375 17.672 15.375 17.728C15.375 17.7933 15.4404 17.882 15.571 17.994C15.7017 18.106 15.8604 18.2133 16.047 18.316C16.2337 18.428 16.411 18.5213 16.579 18.596C16.7564 18.6707 16.887 18.708 16.971 18.708ZM16.341 15.222C16.061 15.1287 15.809 15.04 15.585 14.956C15.361 14.872 15.1697 14.7973 15.011 14.732C14.8524 14.6573 14.7217 14.5873 14.619 14.522C14.5164 14.4473 14.437 14.3773 14.381 14.312C14.3064 14.2093 14.2317 14.0413 14.157 13.808C14.0917 13.5653 14.059 13.2993 14.059 13.01C14.059 12.562 14.0964 12.1653 14.171 11.82C14.2457 11.4653 14.3157 11.1807 14.381 10.966C14.4744 10.91 14.6377 10.8307 14.871 10.728C15.1044 10.616 15.3657 10.504 15.655 10.392C15.9537 10.28 16.2524 10.1867 16.551 10.112C16.8497 10.0373 17.111 10 17.335 10C17.4657 10 17.6197 10.0187 17.797 10.056C17.9744 10.0933 18.1144 10.1307 18.217 10.168C18.4504 10.1307 18.707 10.0607 18.987 9.958C19.2764 9.846 19.547 9.72933 19.799 9.608C20.051 9.47733 20.247 9.37 20.387 9.286L20.667 9.468C20.6764 9.64533 20.6624 9.83667 20.625 10.042C20.597 10.238 20.5597 10.3967 20.513 10.518C20.2984 10.5927 20.065 10.6533 19.813 10.7C19.5704 10.7373 19.323 10.7653 19.071 10.784V10.854C19.1457 10.9007 19.2297 10.9613 19.323 11.036C19.4164 11.1107 19.505 11.2133 19.589 11.344C19.645 11.4933 19.6917 11.6847 19.729 11.918C19.7757 12.142 19.799 12.3473 19.799 12.534C19.799 12.898 19.7617 13.248 19.687 13.584C19.6217 13.9107 19.547 14.172 19.463 14.368C19.351 14.4613 19.1457 14.5733 18.847 14.704C18.5484 14.8253 18.1844 14.9373 17.755 15.04C17.3257 15.1333 16.8544 15.194 16.341 15.222ZM17.013 14.354C17.097 14.354 17.209 14.34 17.349 14.312C17.489 14.2747 17.6197 14.2327 17.741 14.186C17.8717 14.1393 17.965 14.0973 18.021 14.06C18.0864 13.9387 18.1377 13.7613 18.175 13.528C18.2124 13.2947 18.231 13.052 18.231 12.8C18.231 12.492 18.2124 12.2073 18.175 11.946C18.147 11.6847 18.1097 11.5167 18.063 11.442C18.035 11.3953 17.9557 11.3347 17.825 11.26C17.6944 11.1853 17.5544 11.12 17.405 11.064C17.2557 11.008 17.1437 10.98 17.069 10.98C16.9757 10.98 16.8497 10.9987 16.691 11.036C16.5324 11.064 16.3737 11.1013 16.215 11.148C16.0564 11.1947 15.9257 11.2413 15.823 11.288C15.7857 11.4 15.7484 11.5587 15.711 11.764C15.6737 11.96 15.655 12.1747 15.655 12.408C15.655 12.632 15.6644 12.8513 15.683 13.066C15.711 13.2713 15.739 13.444 15.767 13.584C15.8044 13.724 15.837 13.8173 15.865 13.864C15.9117 13.92 16.0097 13.9853 16.159 14.06C16.3084 14.1347 16.467 14.2047 16.635 14.27C16.803 14.326 16.929 14.354 17.013 14.354Z" fill="#888888"/>
</svg>
