<svg width="24" height="24" viewBox="0 0 24 24" fill="none" xmlns="http://www.w3.org/2000/svg">
<path d="M5.90656 17C5.8599 17 5.7479 16.9907 5.57056 16.972C5.39323 16.9533 5.17856 16.9253 4.92656 16.888C4.67456 16.8507 4.41323 16.8133 4.14256 16.776C3.88123 16.7387 3.6339 16.6967 3.40056 16.65C3.16723 16.6033 2.98056 16.5613 2.84056 16.524C2.84056 16.44 2.85923 16.3607 2.89656 16.286C2.9339 16.2113 2.97123 16.1553 3.00856 16.118H3.13456C3.2559 16.118 3.37723 16.0807 3.49856 16.006C3.62923 15.922 3.7599 15.7867 3.89056 15.6C4.02123 15.404 4.1519 15.1427 4.28256 14.816C4.42256 14.48 4.56723 14.0553 4.71656 13.542L6.31256 7.984C6.39656 7.9 6.52256 7.802 6.69056 7.69C6.8679 7.56867 7.05923 7.452 7.26456 7.34C7.47923 7.21867 7.6799 7.12067 7.86656 7.046C8.06256 6.962 8.20723 6.92 8.30056 6.92C8.43123 6.92 8.59923 6.962 8.80456 7.046C9.01923 7.13 9.2339 7.23733 9.44856 7.368C9.67256 7.48933 9.8499 7.61533 9.98056 7.746L11.8706 15.754C11.8986 15.8473 11.9312 15.9267 11.9686 15.992C12.0152 16.0573 12.1086 16.0947 12.2486 16.104L13.1306 16.16C13.1586 16.1973 13.1866 16.23 13.2146 16.258C13.2426 16.286 13.2612 16.3747 13.2706 16.524C13.1959 16.5893 13.0932 16.6593 12.9626 16.734C12.8412 16.8087 12.7059 16.874 12.5566 16.93C12.4166 16.9767 12.2859 17 12.1646 17C12.0806 17 11.9312 16.986 11.7166 16.958C11.5019 16.93 11.2546 16.8927 10.9746 16.846C10.7039 16.7993 10.4332 16.7527 10.1626 16.706C9.90123 16.65 9.66323 16.5987 9.44856 16.552C9.2339 16.496 9.0799 16.454 8.98656 16.426C8.98656 16.3327 9.0099 16.2533 9.05656 16.188C9.10323 16.1227 9.13123 16.0853 9.14056 16.076H9.61656C9.7659 16.076 9.8919 16.0667 9.99456 16.048C10.0972 16.0293 10.1626 15.964 10.1906 15.852C10.2279 15.74 10.2139 15.5487 10.1486 15.278L9.64456 12.996H6.06056L5.50056 14.984C5.44456 15.18 5.37456 15.3527 5.29056 15.502C5.20656 15.642 5.1179 15.754 5.02456 15.838C4.94056 15.922 4.84723 15.978 4.74456 16.006L6.87256 16.174C6.8819 16.202 6.90056 16.2487 6.92856 16.314C6.95656 16.37 6.97056 16.4447 6.97056 16.538C6.8959 16.6127 6.79323 16.6873 6.66256 16.762C6.54123 16.8367 6.41056 16.8973 6.27056 16.944C6.13056 16.9813 6.00923 17 5.90656 17ZM6.28456 12.184C6.76056 12.184 7.2039 12.1747 7.61456 12.156C8.03456 12.1373 8.39856 12.1187 8.70656 12.1C9.0239 12.072 9.2619 12.044 9.42056 12.016L8.60856 8.418C8.40323 8.278 8.1979 8.17067 7.99256 8.096C7.79656 8.012 7.60523 7.95133 7.41856 7.914L6.28456 12.184ZM16.455 19.8C16.3057 19.8 16.1143 19.758 15.881 19.674C15.657 19.5993 15.419 19.492 15.167 19.352C14.9243 19.2213 14.6957 19.072 14.481 18.904C14.2663 18.7453 14.089 18.582 13.949 18.414C13.8183 18.2553 13.753 18.106 13.753 17.966C13.753 17.8167 13.8277 17.6487 13.977 17.462C14.1357 17.2753 14.327 17.0933 14.551 16.916C14.7843 16.7293 15.0037 16.5753 15.209 16.454C15.1623 16.3887 15.111 16.3093 15.055 16.216C15.0083 16.1133 14.985 16.02 14.985 15.936C14.985 15.8427 15.0363 15.7307 15.139 15.6C15.2417 15.46 15.363 15.3247 15.503 15.194C15.643 15.054 15.7643 14.9467 15.867 14.872L16.357 14.97L16.245 15.712C16.3103 15.7213 16.469 15.7447 16.721 15.782C16.9823 15.81 17.281 15.8473 17.617 15.894C17.9623 15.9313 18.3077 15.9827 18.653 16.048C18.9983 16.104 19.3017 16.1693 19.563 16.244C19.8243 16.3093 19.997 16.384 20.081 16.468C20.1277 16.5893 20.1603 16.7247 20.179 16.874C20.207 17.014 20.221 17.1493 20.221 17.28C20.221 17.56 20.1977 17.8493 20.151 18.148C20.1137 18.4467 20.0577 18.6987 19.983 18.904C19.8803 18.9787 19.7077 19.0673 19.465 19.17C19.2223 19.2727 18.9377 19.3707 18.611 19.464C18.2843 19.5667 17.9343 19.646 17.561 19.702C17.1877 19.7673 16.819 19.8 16.455 19.8ZM16.819 18.764C17.0057 18.764 17.2343 18.75 17.505 18.722C17.785 18.7033 18.051 18.6707 18.303 18.624C18.5643 18.5867 18.7603 18.5447 18.891 18.498C18.919 18.4327 18.9377 18.316 18.947 18.148C18.9563 17.9893 18.961 17.868 18.961 17.784C18.961 17.6533 18.947 17.532 18.919 17.42C18.9003 17.3173 18.877 17.2427 18.849 17.196C18.8303 17.1773 18.7277 17.1493 18.541 17.112C18.3637 17.0747 18.1443 17.0373 17.883 17C17.631 16.9533 17.3697 16.9113 17.099 16.874C16.8377 16.8367 16.6043 16.804 16.399 16.776C16.203 16.748 16.077 16.7293 16.021 16.72C15.8997 16.8413 15.7737 16.972 15.643 17.112C15.5217 17.252 15.4143 17.378 15.321 17.49C15.237 17.602 15.195 17.686 15.195 17.742C15.195 17.8073 15.2603 17.896 15.391 18.008C15.5217 18.1293 15.6757 18.246 15.853 18.358C16.0397 18.47 16.2217 18.5633 16.399 18.638C16.5763 18.722 16.7163 18.764 16.819 18.764ZM16.259 15.236C15.9883 15.1333 15.7503 15.0353 15.545 14.942C15.3397 14.8487 15.1623 14.7647 15.013 14.69C14.8637 14.6153 14.7423 14.5453 14.649 14.48C14.5557 14.4053 14.4857 14.34 14.439 14.284C14.3643 14.1813 14.2897 14.0227 14.215 13.808C14.1403 13.584 14.103 13.3227 14.103 13.024C14.103 12.576 14.1403 12.1793 14.215 11.834C14.2897 11.4887 14.3597 11.2087 14.425 10.994C14.5183 10.938 14.6723 10.8587 14.887 10.756C15.111 10.644 15.3583 10.532 15.629 10.42C15.909 10.2987 16.189 10.2007 16.469 10.126C16.749 10.042 16.9963 10 17.211 10C17.323 10 17.463 10.0233 17.631 10.07C17.8083 10.1073 17.9343 10.14 18.009 10.168C18.2797 10.1307 18.555 10.0607 18.835 9.958C19.1243 9.846 19.3903 9.72933 19.633 9.608C19.885 9.48667 20.081 9.39333 20.221 9.328L20.473 9.496C20.473 9.67333 20.4543 9.86 20.417 10.056C20.3797 10.2427 20.3423 10.3873 20.305 10.49C20.109 10.5553 19.885 10.6067 19.633 10.644C19.3903 10.672 19.1337 10.6907 18.863 10.7V10.77C18.947 10.8167 19.0357 10.882 19.129 10.966C19.2317 11.0407 19.325 11.1433 19.409 11.274C19.4743 11.4233 19.5257 11.61 19.563 11.834C19.6097 12.058 19.633 12.2633 19.633 12.45C19.633 12.8233 19.5957 13.1827 19.521 13.528C19.4557 13.8733 19.3857 14.1533 19.311 14.368C19.1897 14.4613 18.989 14.5733 18.709 14.704C18.429 14.8347 18.0837 14.9513 17.673 15.054C17.2623 15.1567 16.791 15.2173 16.259 15.236ZM16.945 14.438C17.057 14.438 17.1923 14.4193 17.351 14.382C17.5097 14.3447 17.659 14.298 17.799 14.242C17.9483 14.186 18.051 14.1393 18.107 14.102C18.1723 13.9993 18.2237 13.8313 18.261 13.598C18.2983 13.3553 18.317 13.108 18.317 12.856C18.317 12.5293 18.2983 12.2307 18.261 11.96C18.233 11.6893 18.1957 11.5213 18.149 11.456C18.121 11.4093 18.0277 11.3487 17.869 11.274C17.7197 11.19 17.5563 11.1153 17.379 11.05C17.211 10.9847 17.0803 10.952 16.987 10.952C16.875 10.952 16.7257 10.9753 16.539 11.022C16.3617 11.0593 16.1843 11.106 16.007 11.162C15.8297 11.218 15.6943 11.274 15.601 11.33C15.5637 11.4327 15.5263 11.5867 15.489 11.792C15.461 11.988 15.447 12.1933 15.447 12.408C15.447 12.66 15.4563 12.8933 15.475 13.108C15.503 13.3227 15.5357 13.5 15.573 13.64C15.6103 13.7707 15.643 13.8547 15.671 13.892C15.7177 13.948 15.8203 14.0227 15.979 14.116C16.147 14.2 16.3243 14.2747 16.511 14.34C16.6977 14.4053 16.8423 14.438 16.945 14.438Z" fill="#888888"/>
</svg>
