<svg width="24" height="24" viewBox="0 0 24 24" fill="none" xmlns="http://www.w3.org/2000/svg">
<path d="M5.79001 17C5.72467 17 5.61267 16.9907 5.45401 16.972C5.30467 16.9533 5.13201 16.9253 4.93601 16.888C4.74934 16.8507 4.55801 16.8133 4.36201 16.776C4.16601 16.7293 3.98867 16.6827 3.83001 16.636C3.84867 16.5893 3.88134 16.538 3.92801 16.482C3.96534 16.4167 4.00267 16.3747 4.04001 16.356H4.25001C4.36201 16.356 4.47401 16.3233 4.58601 16.258C4.70734 16.1833 4.82867 16.0713 4.95001 15.922C5.08067 15.7727 5.21134 15.5907 5.34201 15.376C5.48201 15.152 5.62201 14.8953 5.76201 14.606L9.09401 7.676C9.18734 7.592 9.29934 7.508 9.43001 7.424C9.57001 7.33067 9.71001 7.24667 9.85001 7.172C9.99001 7.09733 10.116 7.03667 10.228 6.99C10.3493 6.94333 10.4427 6.92 10.508 6.92C10.6013 6.92 10.7273 6.95733 10.886 7.032C11.0447 7.10667 11.2033 7.19533 11.362 7.298C11.53 7.39133 11.6513 7.48467 11.726 7.578L12.258 15.978C12.2767 16.1087 12.2953 16.1973 12.314 16.244C12.342 16.2813 12.4213 16.3093 12.552 16.328L13.28 16.398C13.2987 16.4073 13.3127 16.4447 13.322 16.51C13.3313 16.566 13.336 16.608 13.336 16.636C13.252 16.692 13.1447 16.748 13.014 16.804C12.8927 16.86 12.776 16.9067 12.664 16.944C12.552 16.9813 12.4587 17 12.384 17C12.3093 17 12.1973 16.9953 12.048 16.986C11.908 16.9673 11.754 16.944 11.586 16.916C11.418 16.888 11.25 16.86 11.082 16.832C10.914 16.804 10.7553 16.776 10.606 16.748C10.466 16.7107 10.3587 16.6827 10.284 16.664C10.2933 16.608 10.312 16.552 10.34 16.496C10.368 16.4307 10.396 16.3887 10.424 16.37H10.634C10.83 16.37 10.9793 16.3607 11.082 16.342C11.194 16.3233 11.2687 16.2627 11.306 16.16C11.3527 16.0573 11.3667 15.8847 11.348 15.642L11.194 12.982H7.27401L6.22401 15.25C6.08401 15.5393 5.93934 15.7727 5.79001 15.95C5.64067 16.118 5.52401 16.2253 5.44001 16.272L6.82601 16.384C6.84467 16.4027 6.85867 16.4353 6.86801 16.482C6.88667 16.5193 6.88667 16.5707 6.86801 16.636C6.76534 16.7013 6.64401 16.762 6.50401 16.818C6.36401 16.874 6.22867 16.9207 6.09801 16.958C5.97667 16.986 5.87401 17 5.79001 17ZM7.54001 12.408C8.09067 12.3987 8.58067 12.3893 9.01001 12.38C9.44867 12.3707 9.84534 12.3613 10.2 12.352C10.5547 12.3333 10.8767 12.3147 11.166 12.296L10.942 8.082C10.7927 7.97 10.6153 7.86733 10.41 7.774C10.214 7.67133 10.004 7.61533 9.78001 7.606L7.54001 12.408ZM16.6525 19.8C16.5405 19.8 16.3725 19.786 16.1485 19.758C15.9338 19.7393 15.6958 19.7067 15.4345 19.66C15.1731 19.6133 14.9211 19.562 14.6785 19.506C14.4358 19.45 14.2305 19.3893 14.0625 19.324C13.8571 19.1653 13.7078 18.9927 13.6145 18.806C13.5211 18.6193 13.4651 18.4747 13.4465 18.372C13.4745 18.316 13.5631 18.2367 13.7125 18.134C13.8618 18.0313 14.0531 17.9147 14.2865 17.784C14.5198 17.6533 14.7718 17.5087 15.0425 17.35C15.3131 17.2007 15.5745 17.0467 15.8265 16.888C15.6305 16.804 15.4485 16.7013 15.2805 16.58C15.1125 16.4587 14.9725 16.342 14.8605 16.23C14.7578 16.1087 14.6925 16.0153 14.6645 15.95C14.6551 15.6047 14.6831 15.222 14.7485 14.802C14.8231 14.3727 14.9118 13.9433 15.0145 13.514C15.1265 13.0847 15.2385 12.688 15.3505 12.324C15.4625 11.9507 15.5605 11.6427 15.6445 11.4C15.7378 11.1573 15.8031 11.0173 15.8405 10.98C15.9058 10.9053 15.9945 10.8167 16.1065 10.714C16.2185 10.602 16.3398 10.4947 16.4705 10.392C16.6011 10.28 16.7225 10.1867 16.8345 10.112C16.9558 10.0373 17.0445 10 17.1005 10C17.2498 10 17.4551 10.042 17.7165 10.126C17.9871 10.2007 18.2765 10.308 18.5845 10.448C18.9018 10.5787 19.1958 10.728 19.4665 10.896L19.6485 10C19.7138 10 19.7885 10.0093 19.8725 10.028C19.9658 10.0373 20.0545 10.0607 20.1385 10.098C20.2225 10.1353 20.2925 10.1867 20.3485 10.252C20.4045 10.308 20.4325 10.3873 20.4325 10.49C20.4325 10.5087 20.4278 10.5507 20.4185 10.616C20.4091 10.6813 20.3905 10.7747 20.3625 10.896L19.1165 16.202C19.0511 16.5007 18.9531 16.8133 18.8225 17.14C18.6918 17.4667 18.5425 17.784 18.3745 18.092C18.2158 18.4093 18.0385 18.694 17.8425 18.946C17.6558 19.2073 17.4598 19.4127 17.2545 19.562C17.0585 19.7207 16.8578 19.8 16.6525 19.8ZM17.0445 19.114C17.2591 18.8433 17.4598 18.4793 17.6465 18.022C17.8425 17.574 18.0198 17.0513 18.1785 16.454L18.9065 13.738C18.9718 13.5047 19.0371 13.2993 19.1025 13.122C19.1678 12.9353 19.2145 12.8233 19.2425 12.786L19.1725 12.744C18.9018 13.2387 18.6405 13.724 18.3885 14.2C18.1365 14.6667 17.8798 15.1147 17.6185 15.544C17.3571 15.964 17.0818 16.3607 16.7925 16.734C16.6898 16.8553 16.5358 16.9953 16.3305 17.154C16.1345 17.322 15.9198 17.49 15.6865 17.658C15.4531 17.826 15.2338 17.98 15.0285 18.12C14.8325 18.26 14.6831 18.3673 14.5805 18.442C14.7111 18.5073 14.9211 18.5913 15.2105 18.694C15.4998 18.806 15.8078 18.904 16.1345 18.988C16.4705 19.072 16.7738 19.114 17.0445 19.114ZM16.3305 16.16C16.3678 16.16 16.4565 16.0713 16.5965 15.894C16.7365 15.7167 16.9045 15.4833 17.1005 15.194C17.3058 14.8953 17.5205 14.5687 17.7445 14.214C17.9685 13.8593 18.1831 13.5047 18.3885 13.15C18.6031 12.7953 18.7945 12.4687 18.9625 12.17C19.1305 11.862 19.2518 11.6193 19.3265 11.442C18.9811 11.2927 18.5938 11.1667 18.1645 11.064C17.7351 10.952 17.3011 10.8773 16.8625 10.84C16.7505 10.9613 16.6338 11.1853 16.5125 11.512C16.4005 11.8293 16.2838 12.1933 16.1625 12.604C16.0505 13.0147 15.9478 13.4253 15.8545 13.836C15.7611 14.2467 15.6865 14.6107 15.6305 14.928C15.5838 15.2453 15.5605 15.4647 15.5605 15.586C15.6351 15.7167 15.7611 15.8473 15.9385 15.978C16.1251 16.0993 16.2558 16.16 16.3305 16.16Z" fill="#888888"/>
</svg>
