<svg width="24" height="24" viewBox="0 0 24 24" fill="none" xmlns="http://www.w3.org/2000/svg">
<path d="M6.45508 9.30273H9.39453L10.7891 16.3574H11.4863L11.3496 17H8.54688L8.68359 16.3574H10.0781L9.69531 14.457H6.1543L4.96484 16.3574H6.3457L6.22266 17H3.41992L3.55664 16.3574H4.26758L8.27344 9.94531H6.3457L6.45508 9.30273ZM9.59961 13.8555L8.86133 10.1094L6.52344 13.8555H9.59961ZM18.4863 11.1211H20.291L20.1543 11.7637H19.0332L18.0078 16.6445C17.8346 17.4922 17.502 18.1211 17.0098 18.5312C16.5267 18.9414 15.7656 19.1465 14.7266 19.1465C14.3893 19.1465 14.002 19.1374 13.5645 19.1191L13.7285 18.3945C14.2572 18.4492 14.681 18.4766 15 18.4766C15.7109 18.4766 16.2487 18.3262 16.6133 18.0254C16.9779 17.7246 17.2194 17.2643 17.3379 16.6445L17.4883 15.8516L17.4609 15.8242C16.7409 16.5078 15.9525 16.8496 15.0957 16.8496C14.3757 16.8496 13.7969 16.6263 13.3594 16.1797C12.931 15.7331 12.7168 15.1816 12.7168 14.5254C12.7168 13.6504 13.0814 12.8574 13.8105 12.1465C14.5397 11.4264 15.3828 11.0664 16.3398 11.0664C16.6953 11.0664 17.0553 11.153 17.4199 11.3262C17.7845 11.4902 18.0671 11.7591 18.2676 12.1328L18.4863 11.1211ZM15.1641 16.1797C15.9297 16.1797 16.5814 15.9017 17.1191 15.3457C17.666 14.7806 17.9395 14.138 17.9395 13.418C17.9395 12.9076 17.7754 12.502 17.4473 12.2012C17.1283 11.8913 16.7409 11.7363 16.2852 11.7363C15.5286 11.7363 14.8678 12.0143 14.3027 12.5703C13.7376 13.1263 13.4551 13.7552 13.4551 14.457C13.4551 15.0404 13.6374 15.4733 14.002 15.7559C14.3757 16.0384 14.763 16.1797 15.1641 16.1797Z" fill="#333333"/>
</svg>
