<svg width="24" height="24" viewBox="0 0 24 24" fill="none" xmlns="http://www.w3.org/2000/svg">
<path d="M10.6191 11.862L12.1871 11.582C12.5138 11.862 12.4904 12.3007 12.1171 12.898L10.7171 12.996L11.0671 16.72C10.7591 16.9627 10.2598 17.056 9.56909 17C8.87842 16.9347 8.32309 16.7527 7.90309 16.454L8.33709 13.15L6.32109 13.29L5.04709 16.72C4.60842 16.9533 4.07642 17.0327 3.45109 16.958C2.82575 16.874 2.42909 16.6873 2.26109 16.398L3.74509 13.528L2.80709 13.626C2.44309 13.2527 2.46175 12.8093 2.86309 12.296L4.38909 12.282L5.49509 10.154L6.43309 7.088C6.96509 6.85467 7.52975 6.70067 8.12709 6.626C9.24709 6.486 10.0964 6.56067 10.6751 6.85L10.3671 9.188L10.6191 11.862ZM8.12709 8.376L6.69909 12.254L8.44909 12.24L8.32309 8.334L8.12709 8.376ZM18.5493 14.844L18.3533 14.662C17.252 15.7353 16.5333 16.4493 16.1973 16.804C15.0773 16.7573 14.2373 16.4727 13.6773 15.95C13.1267 15.4273 12.8607 14.7647 12.8793 13.962C12.8887 13.4207 13.0147 12.8747 13.2573 12.324C13.5093 11.764 13.8453 11.2553 14.2653 10.798C14.6853 10.3407 15.2127 9.96733 15.8473 9.678C16.482 9.38867 17.154 9.23933 17.8633 9.23C18.3113 9.482 18.7453 9.986 19.1653 10.742C19.184 10.0793 19.2727 9.608 19.4313 9.328C20.2247 9.17867 20.8173 9.15067 21.2093 9.244C21.6107 9.33733 21.9047 9.57067 22.0913 9.944L20.7473 12.422C20.4487 14.0087 20.1313 16.3747 19.7953 19.52C19.4033 20.1173 18.8713 20.5513 18.1993 20.822C17.5367 21.102 16.72 21.2653 15.7493 21.312C14.1627 20.556 13.22 19.632 12.9213 18.54C13.248 18.0173 13.6447 17.672 14.1113 17.504C14.578 17.3453 15.0213 17.392 15.4413 17.644C15.5067 18.0547 15.6093 18.4093 15.7493 18.708C15.8987 19.016 16.132 19.3473 16.4493 19.702C16.6453 19.7113 16.832 19.674 17.0093 19.59C17.196 19.5153 17.3267 19.4127 17.4013 19.282C17.5973 18.4887 17.7887 17.3733 17.9753 15.936L18.5493 14.844ZM18.8993 11.988L18.8853 12.002C18.568 11.3673 18.1853 10.9147 17.7373 10.644C17.0747 10.9613 16.5567 11.4047 16.1833 11.974C15.8193 12.534 15.6327 13.1407 15.6233 13.794C15.614 14.438 15.8053 14.8907 16.1973 15.152C17 14.5267 17.8307 13.864 18.6893 13.164L18.8993 11.988Z" fill="#888888"/>
</svg>
