<svg width="24" height="24" viewBox="0 0 24 24" fill="none" xmlns="http://www.w3.org/2000/svg">
<path d="M10.3582 14.166L10.0782 12.36H6.99822L6.03222 14.124C5.91089 14.3573 5.80355 14.5673 5.71022 14.754C5.62622 14.9313 5.58422 15.0713 5.58422 15.174C5.58422 15.314 5.65889 15.4027 5.80822 15.44C5.96689 15.4773 6.23289 15.5193 6.60622 15.566C6.60622 15.7247 6.57822 15.874 6.52222 16.014C6.39155 16.0047 6.20489 16 5.96222 16C5.71955 16 5.47689 16 5.23422 16C4.99155 15.9907 4.80022 15.986 4.66022 15.986C4.39889 15.986 4.15155 15.9907 3.91822 16C3.68489 16 3.42822 16.0047 3.14822 16.014C3.14822 15.8647 3.17622 15.72 3.23222 15.58C3.51222 15.5613 3.74089 15.5333 3.91822 15.496C4.09555 15.4493 4.25889 15.3653 4.40822 15.244C4.55755 15.1133 4.72555 14.908 4.91222 14.628C5.09889 14.3387 5.34155 13.9373 5.64022 13.424C5.90155 12.9667 6.20489 12.4347 6.55022 11.828C6.89555 11.2213 7.25955 10.5867 7.64222 9.924C8.02489 9.26133 8.39822 8.608 8.76222 7.964C9.12622 7.32 9.46222 6.73667 9.77022 6.214C9.90089 6.186 10.0176 6.16267 10.1202 6.144C10.2322 6.12533 10.3396 6.11133 10.4422 6.102L11.8842 14.096C11.9496 14.432 12.0102 14.698 12.0662 14.894C12.1316 15.0807 12.2109 15.216 12.3042 15.3C12.3976 15.384 12.5236 15.4447 12.6822 15.482C12.8409 15.51 13.0509 15.538 13.3122 15.566C13.3122 15.7247 13.2842 15.874 13.2282 16.014C13.0042 16.0047 12.7336 16 12.4162 16C12.0989 15.9907 11.7862 15.986 11.4782 15.986C11.2076 15.986 10.8529 15.9907 10.4142 16C9.97555 16 9.56489 16.0047 9.18222 16.014C9.19155 15.9393 9.20089 15.8647 9.21022 15.79C9.21955 15.706 9.23822 15.6313 9.26622 15.566C9.60222 15.5287 9.85422 15.496 10.0222 15.468C10.1902 15.44 10.3022 15.384 10.3582 15.3C10.4236 15.2067 10.4562 15.062 10.4562 14.866C10.4562 14.8193 10.4516 14.7493 10.4422 14.656C10.4329 14.5533 10.4049 14.39 10.3582 14.166ZM7.33422 11.772H9.98022L9.39222 8.02L7.33422 11.772ZM15.8637 19.57C15.4344 19.57 15.0051 19.5093 14.5757 19.388C14.1557 19.2667 13.8057 19.0753 13.5257 18.814C13.2457 18.562 13.1057 18.24 13.1057 17.848C13.1057 17.4093 13.2737 17.0407 13.6097 16.742C13.9551 16.4433 14.3564 16.1773 14.8137 15.944C14.6084 15.8507 14.4404 15.734 14.3097 15.594C14.1884 15.4447 14.1277 15.2627 14.1277 15.048C14.1277 14.7867 14.2304 14.544 14.4357 14.32C14.6411 14.096 14.9677 13.8533 15.4157 13.592C15.1077 13.424 14.8604 13.1953 14.6737 12.906C14.4871 12.6167 14.3937 12.2807 14.3937 11.898C14.3937 11.422 14.5337 10.988 14.8137 10.596C15.1031 10.1947 15.4857 9.87733 15.9617 9.644C16.4377 9.40133 16.9604 9.28 17.5297 9.28C18.3604 9.28 19.0044 9.52733 19.4617 10.022C19.7231 9.87267 19.9191 9.70467 20.0497 9.518C19.8724 9.33133 19.7837 9.112 19.7837 8.86C19.7837 8.67333 19.8397 8.51467 19.9517 8.384C20.0731 8.244 20.2364 8.174 20.4417 8.174C20.6097 8.174 20.7544 8.23 20.8757 8.342C21.0064 8.44467 21.0717 8.60333 21.0717 8.818C21.0717 9.10733 20.9457 9.37333 20.6937 9.616C20.4511 9.85867 20.1244 10.106 19.7137 10.358C19.8817 10.6567 19.9657 10.9927 19.9657 11.366C19.9657 11.8513 19.8304 12.29 19.5597 12.682C19.2891 13.074 18.9251 13.3867 18.4677 13.62C18.0104 13.844 17.4971 13.956 16.9277 13.956C16.5451 13.956 16.1904 13.9 15.8637 13.788C15.6771 13.9093 15.5277 14.0353 15.4157 14.166C15.3131 14.2873 15.2617 14.404 15.2617 14.516C15.2617 14.6933 15.3737 14.8287 15.5977 14.922C15.8311 15.0153 16.1251 15.09 16.4797 15.146C16.8344 15.202 17.2124 15.2673 17.6137 15.342C18.0151 15.4073 18.3931 15.5053 18.7477 15.636C19.1024 15.7573 19.3917 15.93 19.6157 16.154C19.8491 16.378 19.9657 16.6767 19.9657 17.05C19.9657 17.4513 19.8304 17.8107 19.5597 18.128C19.2984 18.4453 18.9577 18.7067 18.5377 18.912C18.1177 19.1267 17.6697 19.29 17.1937 19.402C16.7271 19.514 16.2837 19.57 15.8637 19.57ZM15.3457 16.126C15.0284 16.3407 14.7857 16.5693 14.6177 16.812C14.4497 17.064 14.3657 17.3393 14.3657 17.638C14.3657 17.9647 14.4591 18.2307 14.6457 18.436C14.8324 18.6413 15.0704 18.7907 15.3597 18.884C15.6491 18.9773 15.9477 19.024 16.2557 19.024C16.6197 19.024 16.9931 18.9633 17.3757 18.842C17.7584 18.73 18.0804 18.562 18.3417 18.338C18.6031 18.1233 18.7337 17.862 18.7337 17.554C18.7337 17.274 18.6217 17.0593 18.3977 16.91C18.1831 16.7607 17.8984 16.644 17.5437 16.56C17.1984 16.476 16.8297 16.406 16.4377 16.35C16.0551 16.294 15.6911 16.2193 15.3457 16.126ZM16.9277 13.466C17.2264 13.466 17.4784 13.3913 17.6837 13.242C17.8984 13.0927 18.0711 12.9013 18.2017 12.668C18.3324 12.4347 18.4257 12.1873 18.4817 11.926C18.5471 11.6647 18.5797 11.422 18.5797 11.198C18.5797 10.9927 18.5471 10.778 18.4817 10.554C18.4257 10.3207 18.3137 10.1247 18.1457 9.966C17.9777 9.80733 17.7304 9.728 17.4037 9.728C17.1051 9.728 16.8484 9.80267 16.6337 9.952C16.4284 10.1013 16.2604 10.2927 16.1297 10.526C16.0084 10.7593 15.9197 11.0067 15.8637 11.268C15.8077 11.52 15.7797 11.758 15.7797 11.982C15.7797 12.206 15.8124 12.4347 15.8777 12.668C15.9431 12.892 16.0597 13.0833 16.2277 13.242C16.3957 13.3913 16.6291 13.466 16.9277 13.466Z" fill="#888888"/>
</svg>
