<svg width="24" height="24" viewBox="0 0 24 24" fill="none" xmlns="http://www.w3.org/2000/svg">
<path d="M9.35822 14.166L9.07822 12.36H5.99822L5.03222 14.124C4.91089 14.3573 4.80355 14.5673 4.71022 14.754C4.62622 14.9313 4.58422 15.0713 4.58422 15.174C4.58422 15.314 4.65889 15.4027 4.80822 15.44C4.96689 15.4773 5.23289 15.5193 5.60622 15.566C5.60622 15.7247 5.57822 15.874 5.52222 16.014C5.39155 16.0047 5.20489 16 4.96222 16C4.71955 16 4.47689 16 4.23422 16C3.99155 15.9907 3.80022 15.986 3.66022 15.986C3.39889 15.986 3.15155 15.9907 2.91822 16C2.68489 16 2.42822 16.0047 2.14822 16.014C2.14822 15.8647 2.17622 15.72 2.23222 15.58C2.51222 15.5613 2.74089 15.5333 2.91822 15.496C3.09555 15.4493 3.25889 15.3653 3.40822 15.244C3.55755 15.1133 3.72555 14.908 3.91222 14.628C4.09889 14.3387 4.34155 13.9373 4.64022 13.424C4.90155 12.9667 5.20489 12.4347 5.55022 11.828C5.89555 11.2213 6.25955 10.5867 6.64222 9.924C7.02489 9.26133 7.39822 8.608 7.76222 7.964C8.12622 7.32 8.46222 6.73667 8.77022 6.214C8.90089 6.186 9.01755 6.16267 9.12022 6.144C9.23222 6.12533 9.33955 6.11133 9.44222 6.102L10.8842 14.096C10.9496 14.432 11.0102 14.698 11.0662 14.894C11.1316 15.0807 11.2109 15.216 11.3042 15.3C11.3976 15.384 11.5236 15.4447 11.6822 15.482C11.8409 15.51 12.0509 15.538 12.3122 15.566C12.3122 15.7247 12.2842 15.874 12.2282 16.014C12.0042 16.0047 11.7336 16 11.4162 16C11.0989 15.9907 10.7862 15.986 10.4782 15.986C10.2076 15.986 9.85289 15.9907 9.41422 16C8.97555 16 8.56489 16.0047 8.18222 16.014C8.19155 15.9393 8.20089 15.8647 8.21022 15.79C8.21955 15.706 8.23822 15.6313 8.26622 15.566C8.60222 15.5287 8.85422 15.496 9.02222 15.468C9.19022 15.44 9.30222 15.384 9.35822 15.3C9.42355 15.2067 9.45622 15.062 9.45622 14.866C9.45622 14.8193 9.45155 14.7493 9.44222 14.656C9.43289 14.5533 9.40489 14.39 9.35822 14.166ZM6.33422 11.772H8.98022L8.39222 8.02L6.33422 11.772ZM14.8637 19.57C14.4344 19.57 14.0051 19.5093 13.5757 19.388C13.1557 19.2667 12.8057 19.0753 12.5257 18.814C12.2457 18.562 12.1057 18.24 12.1057 17.848C12.1057 17.4093 12.2737 17.0407 12.6097 16.742C12.9551 16.4433 13.3564 16.1773 13.8137 15.944C13.6084 15.8507 13.4404 15.734 13.3097 15.594C13.1884 15.4447 13.1277 15.2627 13.1277 15.048C13.1277 14.7867 13.2304 14.544 13.4357 14.32C13.6411 14.096 13.9677 13.8533 14.4157 13.592C14.1077 13.424 13.8604 13.1953 13.6737 12.906C13.4871 12.6167 13.3937 12.2807 13.3937 11.898C13.3937 11.422 13.5337 10.988 13.8137 10.596C14.1031 10.1947 14.4857 9.87733 14.9617 9.644C15.4377 9.40133 15.9604 9.28 16.5297 9.28C17.3604 9.28 18.0044 9.52733 18.4617 10.022C18.7231 9.87267 18.9191 9.70467 19.0497 9.518C18.8724 9.33133 18.7837 9.112 18.7837 8.86C18.7837 8.67333 18.8397 8.51467 18.9517 8.384C19.0731 8.244 19.2364 8.174 19.4417 8.174C19.6097 8.174 19.7544 8.23 19.8757 8.342C20.0064 8.44467 20.0717 8.60333 20.0717 8.818C20.0717 9.10733 19.9457 9.37333 19.6937 9.616C19.4511 9.85867 19.1244 10.106 18.7137 10.358C18.8817 10.6567 18.9657 10.9927 18.9657 11.366C18.9657 11.8513 18.8304 12.29 18.5597 12.682C18.2891 13.074 17.9251 13.3867 17.4677 13.62C17.0104 13.844 16.4971 13.956 15.9277 13.956C15.5451 13.956 15.1904 13.9 14.8637 13.788C14.6771 13.9093 14.5277 14.0353 14.4157 14.166C14.3131 14.2873 14.2617 14.404 14.2617 14.516C14.2617 14.6933 14.3737 14.8287 14.5977 14.922C14.8311 15.0153 15.1251 15.09 15.4797 15.146C15.8344 15.202 16.2124 15.2673 16.6137 15.342C17.0151 15.4073 17.3931 15.5053 17.7477 15.636C18.1024 15.7573 18.3917 15.93 18.6157 16.154C18.8491 16.378 18.9657 16.6767 18.9657 17.05C18.9657 17.4513 18.8304 17.8107 18.5597 18.128C18.2984 18.4453 17.9577 18.7067 17.5377 18.912C17.1177 19.1267 16.6697 19.29 16.1937 19.402C15.7271 19.514 15.2837 19.57 14.8637 19.57ZM14.3457 16.126C14.0284 16.3407 13.7857 16.5693 13.6177 16.812C13.4497 17.064 13.3657 17.3393 13.3657 17.638C13.3657 17.9647 13.4591 18.2307 13.6457 18.436C13.8324 18.6413 14.0704 18.7907 14.3597 18.884C14.6491 18.9773 14.9477 19.024 15.2557 19.024C15.6197 19.024 15.9931 18.9633 16.3757 18.842C16.7584 18.73 17.0804 18.562 17.3417 18.338C17.6031 18.1233 17.7337 17.862 17.7337 17.554C17.7337 17.274 17.6217 17.0593 17.3977 16.91C17.1831 16.7607 16.8984 16.644 16.5437 16.56C16.1984 16.476 15.8297 16.406 15.4377 16.35C15.0551 16.294 14.6911 16.2193 14.3457 16.126ZM15.9277 13.466C16.2264 13.466 16.4784 13.3913 16.6837 13.242C16.8984 13.0927 17.0711 12.9013 17.2017 12.668C17.3324 12.4347 17.4257 12.1873 17.4817 11.926C17.5471 11.6647 17.5797 11.422 17.5797 11.198C17.5797 10.9927 17.5471 10.778 17.4817 10.554C17.4257 10.3207 17.3137 10.1247 17.1457 9.966C16.9777 9.80733 16.7304 9.728 16.4037 9.728C16.1051 9.728 15.8484 9.80267 15.6337 9.952C15.4284 10.1013 15.2604 10.2927 15.1297 10.526C15.0084 10.7593 14.9197 11.0067 14.8637 11.268C14.8077 11.52 14.7797 11.758 14.7797 11.982C14.7797 12.206 14.8124 12.4347 14.8777 12.668C14.9431 12.892 15.0597 13.0833 15.2277 13.242C15.3957 13.3913 15.6291 13.466 15.9277 13.466Z" fill="#888888"/>
</svg>
