<svg width="24" height="24" viewBox="0 0 24 24" fill="none" xmlns="http://www.w3.org/2000/svg">
<path d="M4.6319 17L7.2919 7.312H9.6439L12.3039 17H11.2399L10.5399 14.508H6.3959L5.6959 17H4.6319ZM8.1039 8.236L6.6339 13.542H10.3019L8.8319 8.236H8.1039ZM16.2227 20.29C15.1027 20.29 14.3187 20.136 13.8707 19.828C13.432 19.5293 13.2127 18.9787 13.2127 18.176C13.2127 17.7933 13.2967 17.4807 13.4647 17.238C13.6327 17.0047 13.9174 16.7387 14.3187 16.44C14.0574 16.2627 13.9267 15.9407 13.9267 15.474C13.9267 15.3153 14.0434 15.0213 14.2767 14.592L14.4027 14.368C13.6654 14.032 13.2967 13.3273 13.2967 12.254C13.2967 10.658 14.1694 9.86 15.9147 9.86C16.3627 9.86 16.778 9.90667 17.1607 10L17.3707 10.042L19.4427 9.986V10.882L18.1127 10.854C18.4207 11.162 18.5747 11.6287 18.5747 12.254C18.5747 13.1313 18.3554 13.7473 17.9167 14.102C17.4874 14.4473 16.806 14.62 15.8727 14.62C15.6207 14.62 15.392 14.6013 15.1867 14.564C15.0187 14.9747 14.9347 15.2407 14.9347 15.362C14.9347 15.6513 15.0234 15.8333 15.2007 15.908C15.378 15.9733 15.9147 16.006 16.8107 16.006C17.7067 16.006 18.3507 16.146 18.7427 16.426C19.1347 16.706 19.3307 17.252 19.3307 18.064C19.3307 19.548 18.2947 20.29 16.2227 20.29ZM14.2487 18.092C14.2487 18.5867 14.384 18.9273 14.6547 19.114C14.9347 19.31 15.4434 19.408 16.1807 19.408C16.9274 19.408 17.4594 19.3053 17.7767 19.1C18.1034 18.8947 18.2667 18.5493 18.2667 18.064C18.2667 17.588 18.15 17.28 17.9167 17.14C17.6834 17 17.226 16.93 16.5447 16.93L15.0327 16.86C14.7247 17.084 14.5147 17.28 14.4027 17.448C14.3 17.616 14.2487 17.8307 14.2487 18.092ZM14.3467 12.254C14.3467 12.8047 14.468 13.1967 14.7107 13.43C14.9627 13.6633 15.3734 13.78 15.9427 13.78C16.512 13.78 16.918 13.6633 17.1607 13.43C17.4034 13.1967 17.5247 12.8047 17.5247 12.254C17.5247 11.694 17.4034 11.2973 17.1607 11.064C16.918 10.8307 16.512 10.714 15.9427 10.714C15.3734 10.714 14.9627 10.8353 14.7107 11.078C14.468 11.3113 14.3467 11.7033 14.3467 12.254Z" fill="#333333"/>
</svg>
