<svg width="24" height="24" viewBox="0 0 24 24" fill="none" xmlns="http://www.w3.org/2000/svg">
<path d="M4.69375 17L7.49375 7.27H9.52375L12.3098 17H11.4558L10.6718 14.312H6.33175L5.56175 17H4.69375ZM8.12375 8.026L6.54175 13.542H10.4618L8.87975 8.026H8.12375ZM19.2532 18.064C19.2532 18.8573 18.9965 19.4313 18.4832 19.786C17.9792 20.1407 17.1905 20.318 16.1172 20.318C15.0439 20.318 14.3019 20.164 13.8912 19.856C13.4805 19.548 13.2752 18.9833 13.2752 18.162C13.2752 17.77 13.3592 17.4527 13.5272 17.21C13.6952 16.9767 13.9892 16.706 14.4092 16.398C14.1759 16.2487 14.0592 15.9313 14.0592 15.446C14.0592 15.2967 14.1712 15.0027 14.3952 14.564L14.5072 14.354C13.7419 14.0367 13.3592 13.332 13.3592 12.24C13.3592 10.6533 14.2039 9.86 15.8932 9.86C16.3692 9.86 16.7892 9.90667 17.1532 10L17.3632 10.042L19.3932 10V10.742L17.9932 10.714C18.3292 11.05 18.4972 11.6053 18.4972 12.38C18.4972 13.1453 18.2825 13.7053 17.8532 14.06C17.4332 14.4053 16.7659 14.578 15.8512 14.578C15.5805 14.578 15.3425 14.5593 15.1372 14.522C14.9505 14.9793 14.8572 15.2687 14.8572 15.39C14.8572 15.698 14.9459 15.8893 15.1232 15.964C15.3099 16.0293 15.8559 16.0667 16.7612 16.076C17.6665 16.076 18.3059 16.2113 18.6792 16.482C19.0619 16.7433 19.2532 17.2707 19.2532 18.064ZM14.1152 18.106C14.1152 18.666 14.2552 19.0533 14.5352 19.268C14.8152 19.4827 15.3565 19.59 16.1592 19.59C16.9619 19.59 17.5359 19.4733 17.8812 19.24C18.2265 19.016 18.3992 18.6333 18.3992 18.092C18.3992 17.56 18.2732 17.2147 18.0212 17.056C17.7692 16.8973 17.2885 16.818 16.5792 16.818L14.9972 16.762C14.6519 17.0047 14.4185 17.2147 14.2972 17.392C14.1759 17.5787 14.1152 17.8167 14.1152 18.106ZM14.2132 12.24C14.2132 12.8373 14.3439 13.262 14.6052 13.514C14.8665 13.7567 15.3052 13.878 15.9212 13.878C16.5465 13.878 16.9899 13.7567 17.2512 13.514C17.5125 13.2713 17.6432 12.8467 17.6432 12.24C17.6432 11.624 17.5125 11.19 17.2512 10.938C16.9899 10.686 16.5465 10.56 15.9212 10.56C15.3052 10.56 14.8665 10.6907 14.6052 10.952C14.3439 11.204 14.2132 11.6333 14.2132 12.24Z" fill="#333333"/>
</svg>
