<svg width="24" height="24" viewBox="0 0 24 24" fill="none" xmlns="http://www.w3.org/2000/svg">
<path d="M10.2853 17V14.998H7.14928L6.18328 17H4.61528L9.13728 7.41H11.9233L11.8393 17H10.2853ZM10.0473 8.768L7.75128 13.626H10.3273L10.3973 8.768H10.0473ZM18.3768 17.56C18.3768 18.344 18.0688 18.988 17.4528 19.492C16.8368 19.996 16.0435 20.248 15.0728 20.248C13.1222 20.248 12.1468 19.6227 12.1468 18.372C12.1468 17.9147 12.3102 17.532 12.6368 17.224C12.9635 16.916 13.3882 16.6313 13.9108 16.37C13.7428 16.202 13.6588 16.0013 13.6588 15.768C13.6588 15.5253 13.7242 15.292 13.8548 15.068C13.9948 14.844 14.1302 14.6667 14.2608 14.536L14.4708 14.34C13.8268 13.9947 13.5048 13.43 13.5048 12.646C13.5048 11.862 13.7662 11.1993 14.2888 10.658C14.8115 10.1167 15.5068 9.846 16.3748 9.846C16.7482 9.846 17.1822 9.90667 17.6768 10.028L17.9148 10.084L19.9728 10L19.6788 11.246H18.6848C18.7688 11.4607 18.8108 11.736 18.8108 12.072C18.8108 12.7813 18.5402 13.402 17.9988 13.934C17.4575 14.466 16.7482 14.732 15.8708 14.732L15.3388 14.662C15.1335 14.9327 15.0308 15.1473 15.0308 15.306C15.0308 15.4647 15.1148 15.5767 15.2828 15.642C15.4602 15.698 15.8428 15.768 16.4308 15.852C17.0188 15.9267 17.4902 16.0947 17.8448 16.356C18.1995 16.608 18.3768 17.0093 18.3768 17.56ZM14.5968 16.818C14.3355 16.9487 14.0928 17.126 13.8688 17.35C13.6542 17.574 13.5468 17.812 13.5468 18.064C13.5468 18.316 13.6588 18.5307 13.8828 18.708C14.1162 18.8853 14.4895 18.974 15.0028 18.974C15.5162 18.974 15.9642 18.8713 16.3468 18.666C16.7388 18.4607 16.9348 18.148 16.9348 17.728C16.9348 17.504 16.8508 17.3453 16.6828 17.252C16.5148 17.168 16.1648 17.084 15.6328 17C15.1102 16.9253 14.7648 16.8647 14.5968 16.818ZM15.9828 13.486C16.4122 13.486 16.7575 13.3367 17.0188 13.038C17.2802 12.7393 17.4108 12.408 17.4108 12.044C17.4108 11.4093 17.0422 11.092 16.3048 11.092C15.8942 11.092 15.5582 11.2413 15.2968 11.54C15.0448 11.8293 14.9188 12.1653 14.9188 12.548C14.9188 13.1733 15.2735 13.486 15.9828 13.486Z" fill="#888888"/>
</svg>
