<svg width="24" height="24" viewBox="0 0 24 24" fill="none" xmlns="http://www.w3.org/2000/svg">
<path d="M4.34249 17L6.48449 7.48H10.1525L12.2945 17H10.3625L9.98449 15.278H6.65249L6.27449 17H4.34249ZM7.98249 9.076L7.01649 13.598H9.62049L8.65449 9.076H7.98249ZM19.627 17.868C19.627 18.6707 19.319 19.2633 18.703 19.646C18.087 20.0287 17.2517 20.22 16.197 20.22C15.1517 20.22 14.3443 20.08 13.775 19.8C13.215 19.52 12.935 19.0113 12.935 18.274C12.935 17.686 13.271 17.1307 13.943 16.608C13.5977 16.3747 13.425 16.02 13.425 15.544C13.425 15.3573 13.565 15.0493 13.845 14.62L13.971 14.424C13.3363 13.9667 13.019 13.2947 13.019 12.408C13.019 11.512 13.285 10.8633 13.817 10.462C14.3583 10.0607 15.0723 9.86 15.959 9.86C16.3603 9.86 16.757 9.90667 17.149 10L17.373 10.042L19.627 9.972V11.47L18.577 11.386C18.7823 11.7033 18.885 12.0207 18.885 12.338C18.885 13.2713 18.647 13.9153 18.171 14.27C17.695 14.6247 16.9483 14.802 15.931 14.802C15.7163 14.802 15.525 14.7833 15.357 14.746C15.2637 14.9887 15.217 15.1893 15.217 15.348C15.217 15.4973 15.2963 15.6 15.455 15.656C15.6137 15.712 15.987 15.7447 16.575 15.754C17.751 15.7633 18.5537 15.922 18.983 16.23C19.4123 16.5287 19.627 17.0747 19.627 17.868ZM14.783 18.078C14.783 18.4793 15.273 18.68 16.253 18.68C17.2423 18.68 17.737 18.4467 17.737 17.98C17.737 17.728 17.653 17.5647 17.485 17.49C17.317 17.4247 16.9623 17.3873 16.421 17.378L15.161 17.28C14.909 17.532 14.783 17.798 14.783 18.078ZM14.895 12.352C14.895 13.0333 15.2497 13.374 15.959 13.374C16.6777 13.374 17.037 13.0333 17.037 12.352C17.037 11.6613 16.6777 11.316 15.959 11.316C15.2497 11.316 14.895 11.6613 14.895 12.352Z" fill="#333333"/>
</svg>
