<svg width="24" height="24" viewBox="0 0 24 24" fill="none" xmlns="http://www.w3.org/2000/svg">
<path d="M4.49059 17L8.77459 7.48H12.1066L11.8126 17H9.88059L9.93659 15.348H7.16459L6.42259 17H4.49059ZM9.90859 9.16L7.89259 13.668H10.0066L10.2026 9.16H9.90859ZM15.0742 20.22C13.0488 20.22 12.0362 19.5807 12.0362 18.302C12.0362 17.8633 12.1902 17.4993 12.4982 17.21C12.8155 16.93 13.2308 16.664 13.7442 16.412C13.5575 16.2253 13.4642 16.0107 13.4642 15.768C13.4642 15.516 13.5342 15.278 13.6742 15.054C13.8142 14.83 13.9542 14.6527 14.0942 14.522L14.3042 14.326C13.6695 13.9527 13.3522 13.3693 13.3522 12.576C13.3522 11.7827 13.6182 11.1293 14.1502 10.616C14.6822 10.0933 15.3822 9.832 16.2502 9.832C16.6515 9.832 17.1275 9.89733 17.6782 10.028L17.9442 10.084L19.9882 10L19.6382 11.512H18.8262C18.8635 11.7173 18.8822 11.9553 18.8822 12.226C18.8822 12.9447 18.6022 13.556 18.0422 14.06C17.4915 14.5547 16.7962 14.802 15.9562 14.802L15.3542 14.732C15.2142 14.9187 15.1442 15.0773 15.1442 15.208C15.1442 15.3387 15.2328 15.432 15.4102 15.488C15.5875 15.544 15.9375 15.6093 16.4602 15.684C17.7855 15.88 18.4482 16.468 18.4482 17.448C18.4482 18.2787 18.1448 18.946 17.5382 19.45C16.9408 19.9633 16.1195 20.22 15.0742 20.22ZM14.5422 16.916C14.3555 17.0187 14.1735 17.1587 13.9962 17.336C13.8282 17.5227 13.7442 17.714 13.7442 17.91C13.7442 18.106 13.8468 18.2787 14.0522 18.428C14.2575 18.5773 14.5842 18.652 15.0322 18.652C16.1335 18.652 16.6842 18.3253 16.6842 17.672C16.6842 17.5507 16.6375 17.4527 16.5442 17.378C16.4602 17.3033 16.3622 17.252 16.2502 17.224C16.1382 17.196 15.8395 17.14 15.3542 17.056C14.8782 16.9813 14.6075 16.9347 14.5422 16.916ZM16.0542 13.276C16.3808 13.276 16.6468 13.1687 16.8522 12.954C17.0575 12.73 17.1602 12.4593 17.1602 12.142C17.1602 11.6193 16.8335 11.358 16.1802 11.358C15.8535 11.358 15.5875 11.4653 15.3822 11.68C15.1768 11.8947 15.0742 12.1653 15.0742 12.492C15.0742 13.0147 15.4008 13.276 16.0542 13.276Z" fill="#333333"/>
</svg>
