<svg width="24" height="24" viewBox="0 0 24 24" fill="none" xmlns="http://www.w3.org/2000/svg">
<path d="M7.42717 7.05816C7.42717 7.00646 7.44656 6.96769 7.48533 6.94185C7.5241 6.90308 7.56287 6.88369 7.60163 6.88369C7.73087 6.87077 7.93117 6.86431 8.20256 6.86431C8.48687 6.85139 8.80348 6.85139 9.1524 6.86431C9.51425 6.87723 9.88256 6.89016 10.2573 6.90308C10.6321 6.916 10.9746 6.93539 11.2847 6.96123C11.6078 6.97415 11.8727 6.99354 12.0795 7.01939C12.2992 7.03231 12.4219 7.05169 12.4478 7.07754C12.5124 7.15508 12.493 7.23908 12.3896 7.32954C12.2992 7.42 12.1764 7.46523 12.0213 7.46523C11.8404 7.46523 11.7176 7.52985 11.653 7.65908C11.6143 7.72369 11.5884 7.924 11.5755 8.26C11.5626 8.58308 11.5626 8.98369 11.5755 9.46185C11.5884 9.94 11.6078 10.4698 11.6336 11.0514C11.6724 11.62 11.7112 12.1822 11.7499 12.7378C11.8016 13.2935 11.8533 13.8169 11.905 14.308C11.9567 14.7862 12.0149 15.1738 12.0795 15.4711C12.1183 15.6262 12.1506 15.7489 12.1764 15.8394C12.2023 15.9298 12.2346 16.0009 12.2733 16.0526C12.325 16.0914 12.3896 16.1237 12.4672 16.1495C12.5447 16.1625 12.661 16.1754 12.8161 16.1883C13.2167 16.2271 13.4041 16.3175 13.3782 16.4597C13.3782 16.4985 13.3459 16.5308 13.2813 16.5566C13.2167 16.5825 13.0939 16.6083 12.913 16.6342C12.745 16.6471 12.5059 16.66 12.1958 16.6729C11.8856 16.6729 11.485 16.6794 10.9939 16.6923C9.7404 16.7182 8.96502 16.6988 8.66779 16.6342C8.38348 16.5566 8.48687 16.4274 8.97794 16.2465C9.22348 16.1431 9.3721 16.0655 9.42379 16.0138C9.47548 15.9492 9.50133 15.8135 9.50133 15.6068C9.4884 15.4775 9.46902 15.3095 9.44317 15.1028C9.41733 14.8831 9.39148 14.6828 9.36564 14.5018L9.30748 14.1723C9.28163 13.9655 9.1524 13.8557 8.91979 13.8428L8.59025 13.8234C8.40933 13.8105 8.17025 13.7717 7.87302 13.7071C7.57579 13.6295 7.3044 13.5391 7.05887 13.4357C6.82625 13.3323 6.61302 13.2548 6.41917 13.2031C6.23825 13.1385 6.1284 13.1191 6.08964 13.1449C6.06379 13.1578 5.99271 13.2742 5.8764 13.4938C5.7601 13.7135 5.6244 13.972 5.46933 14.2692C5.31425 14.5665 5.16564 14.8702 5.02348 15.1803C4.88133 15.4775 4.77148 15.7166 4.69394 15.8975C4.6164 16.0526 4.59702 16.1431 4.63579 16.1689C4.7004 16.2335 4.81671 16.2788 4.98471 16.3046C5.29487 16.3434 5.43702 16.4338 5.41117 16.576C5.39825 16.6277 5.31425 16.6729 5.15917 16.7117C5.01702 16.7634 4.8361 16.7957 4.6164 16.8086C4.39671 16.8345 4.15764 16.8409 3.89917 16.828C3.65364 16.8151 3.43394 16.7828 3.2401 16.7311C2.89117 16.6535 2.72317 16.5502 2.7361 16.4209C2.74902 16.2917 2.92994 16.2271 3.27887 16.2271C3.42102 16.2271 3.55671 16.2142 3.68594 16.1883C3.81517 16.1625 3.89271 16.1366 3.91856 16.1108C3.95733 16.072 4.05425 15.9169 4.20933 15.6455C4.3644 15.3612 4.52594 15.0511 4.69394 14.7151C4.87487 14.3791 5.02994 14.0625 5.15917 13.7652C5.30133 13.468 5.37887 13.2871 5.39179 13.2225C5.40471 13.1578 5.37887 13.1191 5.31425 13.1062C5.24964 13.0803 5.16564 13.0738 5.06225 13.0868C4.95887 13.0997 4.84256 13.132 4.71333 13.1837C4.59702 13.2225 4.48717 13.2806 4.38379 13.3582C4.18994 13.5003 4.03487 13.5649 3.91856 13.552C3.80225 13.5391 3.75702 13.4551 3.78287 13.3C3.79579 13.1578 3.9444 13.0157 4.22871 12.8735C4.51302 12.7314 4.81671 12.628 5.13979 12.5634L5.43056 12.5052C5.61148 12.4794 5.74071 12.376 5.81825 12.1951L6.41917 10.8188C6.52256 10.5862 6.62594 10.3535 6.72933 10.1209C6.84564 9.87539 6.95548 9.64277 7.05887 9.42308C7.16225 9.19046 7.25917 8.98369 7.34963 8.80277C7.4401 8.60892 7.51117 8.45385 7.56287 8.33754C7.79548 7.91108 7.91825 7.62677 7.93117 7.48462C7.9441 7.34246 7.86656 7.27139 7.69856 7.27139C7.54348 7.27139 7.45302 7.20031 7.42717 7.05816ZM11.0327 7.94985C11.0327 7.65262 10.8841 7.49754 10.5869 7.48462L10.1216 7.46523C9.51425 7.45231 9.19763 7.49754 9.17179 7.60092C9.17179 7.62677 9.17825 7.756 9.19117 7.98862C9.21702 8.20831 9.24287 8.47969 9.26871 8.80277C9.30748 9.12585 9.34625 9.47477 9.38502 9.84954C9.43671 10.2243 9.48194 10.5732 9.52071 10.8963C9.55948 11.2194 9.59179 11.4972 9.61763 11.7298C9.6564 11.9625 9.68225 12.0982 9.69517 12.1369C9.72102 12.1886 9.77271 12.2597 9.85025 12.3502C9.94071 12.4277 10.0441 12.5052 10.1604 12.5828L10.393 12.7378C10.4964 12.8154 10.5933 12.796 10.6838 12.6797L10.8389 12.5246C10.9035 12.4471 10.9487 12.3695 10.9746 12.292C11.0133 12.2015 11.0392 12.0723 11.0521 11.9043C11.0779 11.7234 11.0844 11.4778 11.0715 11.1677C11.0715 10.8446 11.0715 10.4052 11.0715 9.84954L11.0327 7.94985ZM9.01671 13.1643C9.0684 13.0997 9.10071 12.9898 9.11363 12.8348C9.13948 12.6797 9.13948 12.4535 9.11363 12.1563C9.10071 11.8462 9.06194 11.4585 8.99733 10.9932C8.94564 10.5151 8.87456 9.94 8.7841 9.268C8.7324 8.86739 8.66779 8.53139 8.59025 8.26C8.52563 7.97569 8.4804 7.83354 8.45456 7.83354C8.42871 7.83354 8.35763 7.93692 8.24133 8.14369C8.12502 8.33754 7.98933 8.58954 7.83425 8.89969C7.6921 9.19692 7.53056 9.53292 7.34963 9.90769C7.18164 10.2695 7.0201 10.6249 6.86502 10.9738C6.72287 11.3098 6.6001 11.6135 6.49671 11.8849C6.39333 12.1434 6.32871 12.3243 6.30287 12.4277C6.28994 12.5182 6.3481 12.6022 6.47733 12.6797C6.61948 12.7443 6.86502 12.8283 7.21394 12.9317C7.57579 13.0351 7.8601 13.1191 8.06687 13.1837C8.28656 13.2354 8.45456 13.2742 8.57087 13.3C8.68717 13.3129 8.77117 13.3065 8.82287 13.2806C8.88748 13.2548 8.9521 13.216 9.01671 13.1643ZM15.4609 16.828C15.0215 16.828 14.6532 16.6535 14.356 16.3046C14.0717 15.9557 13.8649 15.5163 13.7357 14.9865C13.6193 14.4566 13.5935 13.8686 13.6581 13.2225C13.7227 12.5763 13.8972 11.956 14.1815 11.3615C14.4658 10.7542 14.86 10.2114 15.364 9.73323C15.868 9.25508 16.5012 8.91908 17.2637 8.72523C17.6384 8.62185 18.0261 8.57662 18.4267 8.58954C18.8273 8.60246 19.1892 8.66708 19.5123 8.78339C19.8483 8.89969 20.1197 9.07416 20.3264 9.30677C20.5332 9.52646 20.6301 9.79785 20.6172 10.1209C20.6043 10.4052 20.572 10.6702 20.5203 10.9157C20.4686 11.1612 20.404 11.4262 20.3264 11.7105C20.236 12.1628 20.1197 12.6474 19.9775 13.1643C19.8353 13.6812 19.6867 14.1852 19.5317 14.6763C19.3895 15.1545 19.2473 15.6003 19.1052 16.0138C18.963 16.4145 18.8403 16.7246 18.7369 16.9443C18.5172 17.4225 18.2393 17.8425 17.9033 18.2043C17.5803 18.5791 17.2378 18.8763 16.876 19.096C16.5141 19.3157 16.1523 19.4449 15.7904 19.4837C15.4286 19.5354 15.099 19.4772 14.8018 19.3092C14.5821 19.1929 14.4012 19.0249 14.259 18.8052C14.1298 18.5985 14.1104 18.4111 14.2009 18.2431C14.2655 18.1268 14.3366 18.0622 14.4141 18.0492C14.4917 18.0363 14.5692 18.1009 14.6467 18.2431C14.763 18.4498 14.8729 18.6178 14.9763 18.7471C15.0926 18.8892 15.2218 18.9797 15.364 19.0185C15.519 19.0572 15.7 19.0443 15.9067 18.9797C16.1135 18.9151 16.3655 18.7858 16.6627 18.592C17.0504 18.3465 17.38 18.0363 17.6513 17.6615C17.9357 17.2997 18.2006 16.828 18.4461 16.2465C18.5366 15.988 18.64 15.7037 18.7563 15.3935C18.8726 15.0834 18.976 14.7862 19.0664 14.5018C19.1569 14.2175 19.228 13.9785 19.2797 13.7846C19.3313 13.5908 19.3572 13.4874 19.3572 13.4745C19.3443 13.4745 19.2344 13.6489 19.0277 13.9978C18.8338 14.3468 18.5624 14.7345 18.2135 15.1609C17.8775 15.5745 17.4704 15.9557 16.9923 16.3046C16.527 16.6535 16.0166 16.828 15.4609 16.828ZM19.8224 11.1483C19.9775 10.5151 19.9581 10.0498 19.7643 9.75262C19.5833 9.44246 19.2667 9.24215 18.8144 9.15169C18.5172 9.06123 18.2458 9.02892 18.0003 9.05477C17.7677 9.08062 17.548 9.13231 17.3412 9.20985C17.1473 9.28739 16.9664 9.56523 16.7984 10.0434C16.6433 10.5086 16.4883 11.2323 16.3332 12.2145C16.2686 12.5892 16.2169 12.9705 16.1781 13.3582C16.1393 13.7458 16.1135 14.1077 16.1006 14.4437C16.1006 14.7668 16.1135 15.0382 16.1393 15.2578C16.1781 15.4775 16.2427 15.6068 16.3332 15.6455C16.527 15.7231 16.7597 15.6778 17.031 15.5098C17.3153 15.3289 17.5932 15.0898 17.8646 14.7926C18.1489 14.4825 18.4138 14.1465 18.6593 13.7846C18.9049 13.4228 19.0987 13.0932 19.2409 12.796C19.3572 12.5375 19.467 12.2597 19.5704 11.9625C19.6738 11.6523 19.7578 11.3809 19.8224 11.1483ZM15.4997 12.2145C15.6418 12.1111 15.7517 11.9818 15.8292 11.8268C15.9067 11.6588 15.9972 11.3357 16.1006 10.8575C16.1781 10.5603 16.2298 10.3018 16.2557 10.0822C16.2815 9.86246 16.2815 9.75262 16.2557 9.75262C16.204 9.75262 16.1006 9.81723 15.9455 9.94646C15.8033 10.0757 15.6483 10.2308 15.4803 10.4117C15.3123 10.5797 15.1507 10.7477 14.9957 10.9157C14.8535 11.0837 14.763 11.2129 14.7243 11.3034C14.6209 11.536 14.6403 11.788 14.7824 12.0594C14.9117 12.292 15.0086 12.4148 15.0732 12.4277C15.1378 12.4277 15.28 12.3566 15.4997 12.2145Z" fill="#888888"/>
</svg>
