<svg width="24" height="24" viewBox="0 0 24 24" fill="none" xmlns="http://www.w3.org/2000/svg">
<path d="M8.91963 10.042C8.91963 10.0047 8.93363 9.97667 8.96162 9.958C8.98963 9.93 9.01763 9.916 9.04563 9.916C9.13896 9.90667 9.28363 9.902 9.47963 9.902C9.68496 9.89267 9.91363 9.89267 10.1656 9.902C10.427 9.91133 10.693 9.92067 10.9636 9.93C11.2343 9.93933 11.4816 9.95333 11.7056 9.972C11.939 9.98133 12.1303 9.99533 12.2796 10.014C12.4383 10.0233 12.527 10.0373 12.5456 10.056C12.5923 10.112 12.5783 10.1727 12.5036 10.238C12.4383 10.3033 12.3496 10.336 12.2376 10.336C12.107 10.336 12.0183 10.3827 11.9716 10.476C11.9436 10.5227 11.925 10.6673 11.9156 10.91C11.9063 11.1433 11.9063 11.4327 11.9156 11.778C11.925 12.1233 11.939 12.506 11.9576 12.926C11.9856 13.3367 12.0136 13.7427 12.0416 14.144C12.079 14.5453 12.1163 14.9233 12.1536 15.278C12.191 15.6233 12.233 15.9033 12.2796 16.118C12.3076 16.23 12.331 16.3187 12.3496 16.384C12.3683 16.4493 12.3916 16.5007 12.4196 16.538C12.457 16.566 12.5036 16.5893 12.5596 16.608C12.6156 16.6173 12.6996 16.6267 12.8116 16.636C13.101 16.664 13.2363 16.7293 13.2176 16.832C13.2176 16.86 13.1943 16.8833 13.1476 16.902C13.101 16.9207 13.0123 16.9393 12.8816 16.958C12.7603 16.9673 12.5876 16.9767 12.3636 16.986C12.1396 16.986 11.8503 16.9907 11.4956 17C10.5903 17.0187 10.0303 17.0047 9.81563 16.958C9.61029 16.902 9.68496 16.8087 10.0396 16.678C10.217 16.6033 10.3243 16.5473 10.3616 16.51C10.399 16.4633 10.4176 16.3653 10.4176 16.216C10.4083 16.1227 10.3943 16.0013 10.3756 15.852C10.357 15.6933 10.3383 15.5487 10.3196 15.418L10.2776 15.18C10.259 15.0307 10.1656 14.9513 9.99763 14.942L9.75963 14.928C9.62896 14.9187 9.45629 14.8907 9.24163 14.844C9.02696 14.788 8.83096 14.7227 8.65363 14.648C8.48563 14.5733 8.33163 14.5173 8.19163 14.48C8.06096 14.4333 7.98163 14.4193 7.95363 14.438C7.93496 14.4473 7.88363 14.5313 7.79963 14.69C7.71563 14.8487 7.61763 15.0353 7.50563 15.25C7.39363 15.4647 7.28629 15.684 7.18363 15.908C7.08096 16.1227 7.00163 16.2953 6.94563 16.426C6.88963 16.538 6.87563 16.6033 6.90363 16.622C6.95029 16.6687 7.03429 16.7013 7.15563 16.72C7.37963 16.748 7.48229 16.8133 7.46363 16.916C7.45429 16.9533 7.39363 16.986 7.28163 17.014C7.17896 17.0513 7.04829 17.0747 6.88963 17.084C6.73096 17.1027 6.55829 17.1073 6.37163 17.098C6.19429 17.0887 6.03563 17.0653 5.89563 17.028C5.64363 16.972 5.52229 16.8973 5.53163 16.804C5.54096 16.7107 5.67163 16.664 5.92363 16.664C6.02629 16.664 6.12429 16.6547 6.21763 16.636C6.31096 16.6173 6.36696 16.5987 6.38563 16.58C6.41363 16.552 6.48363 16.44 6.59563 16.244C6.70763 16.0387 6.82429 15.8147 6.94563 15.572C7.07629 15.3293 7.18829 15.1007 7.28163 14.886C7.38429 14.6713 7.44029 14.5407 7.44963 14.494C7.45896 14.4473 7.44029 14.4193 7.39363 14.41C7.34696 14.3913 7.28629 14.3867 7.21163 14.396C7.13696 14.4053 7.05296 14.4287 6.95963 14.466C6.87563 14.494 6.79629 14.536 6.72163 14.592C6.58163 14.6947 6.46963 14.7413 6.38563 14.732C6.30163 14.7227 6.26896 14.662 6.28763 14.55C6.29696 14.4473 6.40429 14.3447 6.60963 14.242C6.81496 14.1393 7.03429 14.0647 7.26763 14.018L7.47763 13.976C7.60829 13.9573 7.70163 13.8827 7.75763 13.752L8.19163 12.758C8.26629 12.59 8.34096 12.422 8.41563 12.254C8.49963 12.0767 8.57896 11.9087 8.65363 11.75C8.72829 11.582 8.79829 11.4327 8.86362 11.302C8.92896 11.162 8.98029 11.05 9.01763 10.966C9.18563 10.658 9.27429 10.4527 9.28363 10.35C9.29296 10.2473 9.23696 10.196 9.11563 10.196C9.00363 10.196 8.93829 10.1447 8.91963 10.042ZM11.5236 10.686C11.5236 10.4713 11.4163 10.3593 11.2016 10.35L10.8656 10.336C10.427 10.3267 10.1983 10.3593 10.1796 10.434C10.1796 10.4527 10.1843 10.546 10.1936 10.714C10.2123 10.8727 10.231 11.0687 10.2496 11.302C10.2776 11.5353 10.3056 11.7873 10.3336 12.058C10.371 12.3287 10.4036 12.5807 10.4316 12.814C10.4596 13.0473 10.483 13.248 10.5016 13.416C10.5296 13.584 10.5483 13.682 10.5576 13.71C10.5763 13.7473 10.6136 13.7987 10.6696 13.864C10.735 13.92 10.8096 13.976 10.8936 14.032L11.0616 14.144C11.1363 14.2 11.2063 14.186 11.2716 14.102L11.3836 13.99C11.4303 13.934 11.463 13.878 11.4816 13.822C11.5096 13.7567 11.5283 13.6633 11.5376 13.542C11.5563 13.4113 11.561 13.234 11.5516 13.01C11.5516 12.7767 11.5516 12.4593 11.5516 12.058L11.5236 10.686ZM10.0676 14.452C10.105 14.4053 10.1283 14.326 10.1376 14.214C10.1563 14.102 10.1563 13.9387 10.1376 13.724C10.1283 13.5 10.1003 13.22 10.0536 12.884C10.0163 12.5387 9.96496 12.1233 9.89963 11.638C9.86229 11.3487 9.81563 11.106 9.75963 10.91C9.71296 10.7047 9.68029 10.602 9.66163 10.602C9.64296 10.602 9.59163 10.6767 9.50763 10.826C9.42363 10.966 9.32563 11.148 9.21363 11.372C9.11096 11.5867 8.99429 11.8293 8.86362 12.1C8.74229 12.3613 8.62563 12.618 8.51363 12.87C8.41096 13.1127 8.32229 13.332 8.24763 13.528C8.17296 13.7147 8.12629 13.8453 8.10763 13.92C8.09829 13.9853 8.14029 14.046 8.23363 14.102C8.33629 14.1487 8.51363 14.2093 8.76562 14.284C9.02696 14.3587 9.23229 14.4193 9.38162 14.466C9.54029 14.5033 9.66163 14.5313 9.74563 14.55C9.82963 14.5593 9.89029 14.5547 9.92763 14.536C9.97429 14.5173 10.021 14.4893 10.0676 14.452ZM14.7218 17.098C14.4044 17.098 14.1384 16.972 13.9238 16.72C13.7184 16.468 13.5691 16.1507 13.4758 15.768C13.3918 15.3853 13.3731 14.9607 13.4198 14.494C13.4664 14.0273 13.5924 13.5793 13.7978 13.15C14.0031 12.7113 14.2878 12.3193 14.6517 11.974C15.0158 11.6287 15.4731 11.386 16.0238 11.246C16.2944 11.1713 16.5744 11.1387 16.8638 11.148C17.1531 11.1573 17.4144 11.204 17.6478 11.288C17.8904 11.372 18.0864 11.498 18.2358 11.666C18.3851 11.8247 18.4551 12.0207 18.4458 12.254C18.4364 12.4593 18.4131 12.6507 18.3758 12.828C18.3384 13.0053 18.2918 13.1967 18.2358 13.402C18.1704 13.7287 18.0864 14.0787 17.9838 14.452C17.8811 14.8253 17.7738 15.1893 17.6618 15.544C17.5591 15.8893 17.4564 16.2113 17.3538 16.51C17.2511 16.7993 17.1624 17.0233 17.0878 17.182C16.9291 17.5273 16.7284 17.8307 16.4858 18.092C16.2524 18.3627 16.0051 18.5773 15.7438 18.736C15.4824 18.8947 15.2211 18.988 14.9598 19.016C14.6984 19.0533 14.4604 19.0113 14.2458 18.89C14.0871 18.806 13.9564 18.6847 13.8538 18.526C13.7604 18.3767 13.7464 18.2413 13.8118 18.12C13.8584 18.036 13.9098 17.9893 13.9658 17.98C14.0218 17.9707 14.0778 18.0173 14.1338 18.12C14.2178 18.2693 14.2971 18.3907 14.3718 18.484C14.4558 18.5867 14.5491 18.652 14.6517 18.68C14.7638 18.708 14.8944 18.6987 15.0438 18.652C15.1931 18.6053 15.3751 18.512 15.5898 18.372C15.8698 18.1947 16.1078 17.9707 16.3038 17.7C16.5091 17.4387 16.7004 17.098 16.8778 16.678C16.9431 16.4913 17.0178 16.286 17.1018 16.062C17.1858 15.838 17.2604 15.6233 17.3258 15.418C17.3911 15.2127 17.4424 15.04 17.4798 14.9C17.5171 14.76 17.5358 14.6853 17.5358 14.676C17.5264 14.676 17.4471 14.802 17.2978 15.054C17.1578 15.306 16.9618 15.586 16.7097 15.894C16.4671 16.1927 16.1731 16.468 15.8278 16.72C15.4918 16.972 15.1231 17.098 14.7218 17.098ZM17.8718 12.996C17.9838 12.5387 17.9698 12.2027 17.8298 11.988C17.6991 11.764 17.4704 11.6193 17.1438 11.554C16.9291 11.4887 16.7331 11.4653 16.5558 11.484C16.3878 11.5027 16.2291 11.54 16.0798 11.596C15.9398 11.652 15.8091 11.8527 15.6878 12.198C15.5758 12.534 15.4638 13.0567 15.3518 13.766C15.3051 14.0367 15.2678 14.312 15.2398 14.592C15.2118 14.872 15.1931 15.1333 15.1838 15.376C15.1838 15.6093 15.1931 15.8053 15.2118 15.964C15.2398 16.1227 15.2864 16.216 15.3518 16.244C15.4918 16.3 15.6598 16.2673 15.8558 16.146C16.0611 16.0153 16.2618 15.8427 16.4578 15.628C16.6631 15.404 16.8544 15.1613 17.0318 14.9C17.2091 14.6387 17.3491 14.4007 17.4518 14.186C17.5358 13.9993 17.6151 13.7987 17.6898 13.584C17.7644 13.36 17.8251 13.164 17.8718 12.996ZM14.7498 13.766C14.8524 13.6913 14.9318 13.598 14.9878 13.486C15.0438 13.3647 15.1091 13.1313 15.1838 12.786C15.2398 12.5713 15.2771 12.3847 15.2958 12.226C15.3144 12.0673 15.3144 11.988 15.2958 11.988C15.2584 11.988 15.1838 12.0347 15.0718 12.128C14.9691 12.2213 14.8571 12.3333 14.7358 12.464C14.6144 12.5853 14.4978 12.7067 14.3858 12.828C14.2831 12.9493 14.2178 13.0427 14.1898 13.108C14.1151 13.276 14.1291 13.458 14.2318 13.654C14.3251 13.822 14.3951 13.9107 14.4417 13.92C14.4884 13.92 14.5911 13.8687 14.7498 13.766Z" fill="#333333"/>
</svg>
