<svg width="24" height="24" viewBox="0 0 24 24" fill="none" xmlns="http://www.w3.org/2000/svg">
<path d="M3.51534 17L8.96134 6.682H10.2353L12.0973 17H11.3133L10.8093 14.144H5.88134L4.39734 17H3.51534ZM6.25934 13.416H10.6833L9.66134 7.438H9.38134L6.25934 13.416ZM13.5458 19.618L13.6578 18.946H17.4518L18.5298 18.022L18.9358 15.754L17.6058 17H14.8198L13.6438 15.572L14.4558 10.994L15.9818 9.678H18.7678L19.7898 10.938L19.9998 9.678H20.7698L19.2578 18.26L17.6758 19.618H13.5458ZM17.4378 16.356L19.0898 14.914L19.6358 11.764L18.5018 10.322H16.2618L15.1838 11.246L14.4418 15.432L15.1978 16.356H17.4378Z" fill="#888888"/>
</svg>
