<svg width="24" height="24" viewBox="0 0 24 24" fill="none" xmlns="http://www.w3.org/2000/svg">
<path d="M3.20674 18L6.69274 7.682H8.66674L12.1527 18H10.8227L9.94074 15.312H5.41874L4.55074 18H3.20674ZM5.79674 14.192H9.57674L7.84074 8.886H7.51874L5.79674 14.192ZM13.9026 20.618V19.596L17.8506 19.582L18.6206 18.826V16.852L17.4866 18H14.7986L13.3286 16.53V12.148L14.7986 10.678H17.4866L18.6206 11.84V10.678H19.8526V19.148L18.3826 20.618H13.9026ZM17.1786 17.02L18.6206 15.564V13.128L17.1786 11.658H15.3306L14.5606 12.428V16.25L15.3306 17.02H17.1786Z" fill="#333333"/>
</svg>
