<svg width="24" height="24" viewBox="0 0 24 24" fill="none" xmlns="http://www.w3.org/2000/svg">
<path d="M2.38414 17L7.53614 6.682H10.0141L11.7221 17H9.93014L9.58014 14.494H5.56214L4.37214 17H2.38414ZM6.29014 12.954H9.38414L8.75414 8.348H8.46014L6.29014 12.954ZM12.8355 19.618L13.0735 18.232H17.1895L17.9175 17.616L18.2115 15.95L17.1055 17H14.4875L13.0875 15.292L13.8295 11.092L15.4675 9.678H18.1415L19.1215 10.742L19.3035 9.678H20.9975L19.5275 18.064L17.6935 19.618H12.8355ZM16.7695 15.684L18.5055 14.228L18.8135 12.464L17.5955 10.994H16.1535L15.4255 11.61L14.8095 15.068L15.3275 15.684H16.7695Z" fill="#888888"/>
</svg>
