<svg width="24" height="24" viewBox="0 0 24 24" fill="none" xmlns="http://www.w3.org/2000/svg">
<path d="M3.51534 17L7.14134 6.682H8.47134L12.0973 17H11.2713L10.2773 14.144H5.33534L4.34134 17H3.51534ZM5.57334 13.416H10.0393L7.95334 7.438H7.65934L5.57334 13.416ZM14.0078 19.618V18.946H17.8018L18.7118 18.022V15.754L17.5498 17H14.7638L13.3918 15.614V11.064L14.7638 9.678H17.5498L18.7118 10.924V9.678H19.4818V18.232L18.1098 19.618H14.0078ZM17.3258 16.356L18.7118 14.914V11.778L17.3258 10.322H15.0718L14.1618 11.246V15.432L15.0718 16.356H17.3258Z" fill="#888888"/>
</svg>
