<svg width="24" height="24" viewBox="0 0 24 24" fill="none" xmlns="http://www.w3.org/2000/svg">
<path d="M2.52703 17L5.71903 6.682H9.14903L12.341 17H10.031L9.38703 14.718H5.48103L4.85103 17H2.52703ZM5.98503 12.94H8.88303L7.65103 8.502H7.23103L5.98503 12.94ZM13.8102 19.618V18.036H17.9262L18.4862 17.49V15.992L17.3942 17H14.7762L13.2222 15.446V11.246L14.7762 9.678H17.3942L18.4862 10.7V9.692H20.5582V18.05L19.0042 19.618H13.8102ZM17.0862 15.6L18.4862 14.284V12.394L17.1002 11.092L15.8122 11.078L15.3362 11.582V15.11L15.8122 15.6H17.0862Z" fill="#888888"/>
</svg>
