<svg width="24" height="24" viewBox="0 0 24 24" fill="none" xmlns="http://www.w3.org/2000/svg">
<path d="M3.73475 17L9.27875 6.682H10.1608L12.0788 17H11.6168L11.0708 14.018H5.83475L4.23875 17H3.73475ZM6.07275 13.584H10.9868L9.79675 7.144H9.53075L6.07275 13.584ZM13.6161 19.618L13.6861 19.184H17.3681L18.5721 18.162L19.0061 15.698L17.6061 17H14.7501L13.6581 15.656L14.4841 10.952L15.9681 9.678H18.8101L19.8321 11.008L20.0561 9.678H20.5181L18.9921 18.33L17.4941 19.618H13.6161ZM17.4941 16.58L19.1041 15.138L19.7341 11.54L18.6281 10.098H16.1221L14.9181 11.134L14.1481 15.558L14.9741 16.58H17.4941Z" fill="#888888"/>
</svg>
