<svg width="24" height="24" viewBox="0 0 24 24" fill="none" xmlns="http://www.w3.org/2000/svg">
<path d="M2.16309 18L5.18709 7.682H9.44309L12.4671 18H9.69509L9.17709 15.942H5.45309L4.93509 18H2.16309ZM5.97109 13.926H8.65909L7.56709 9.656H7.06309L5.97109 13.926ZM13.8297 20.618V18.854H17.9737L18.4637 18.364V17.062L17.3437 18H14.7257L13.1717 16.446V12.246L14.7257 10.678H17.3577L18.4637 11.63V10.692H20.9277V19.036L19.3597 20.618H13.8297ZM16.0557 16.502H17.1617L18.4637 15.382V13.31L17.1757 12.176H16.0557L15.7197 12.554V16.152L16.0557 16.502Z" fill="#333333"/>
</svg>
