<svg width="24" height="24" viewBox="0 0 24 24" fill="none" xmlns="http://www.w3.org/2000/svg">
<path d="M2.06509 18L6.96509 7.682H11.2351L12.4111 18H9.75109L9.59709 15.942H5.91509L5.04709 18H2.06509ZM6.74109 13.926H9.42909L9.09309 9.656H8.58909L6.74109 13.926ZM13.3397 20.618L13.6477 18.854H17.8197L18.3937 18.364L18.6317 17.062L17.3437 18H14.6977L13.4237 16.446L14.1657 12.246L15.9857 10.678H18.6457L19.5837 11.63L19.7517 10.692H22.2437L20.7737 19.036L18.9257 20.618H13.3397ZM16.3217 16.502H17.4277L18.9257 15.382L19.2897 13.31L18.1977 12.176H17.0777L16.6717 12.554L16.0417 16.152L16.3217 16.502Z" fill="#333333"/>
</svg>
