<svg width="24" height="24" viewBox="0 0 24 24" fill="none" xmlns="http://www.w3.org/2000/svg">
<path d="M3.73475 18L9.27875 7.682H10.1608L12.0788 18H11.6168L11.0708 15.018H5.83475L4.23875 18H3.73475ZM6.07275 14.584H10.9868L9.79675 8.144H9.53075L6.07275 14.584ZM13.6161 20.618L13.6861 20.184H17.3681L18.5721 19.162L19.0061 16.698L17.6061 18H14.7501L13.6581 16.656L14.4841 11.952L15.9681 10.678H18.8101L19.8321 12.008L20.0561 10.678H20.5181L18.9921 19.33L17.4941 20.618H13.6161ZM17.4941 17.58L19.1041 16.138L19.7341 12.54L18.6281 11.098H16.1221L14.9181 12.134L14.1481 16.558L14.9741 17.58H17.4941Z" fill="#333333"/>
</svg>
