<svg width="24" height="24" viewBox="0 0 24 24" fill="none" xmlns="http://www.w3.org/2000/svg">
<path d="M3.86161 17L5.63961 8.642L7.38961 7.2H11.9116L13.0456 8.642L11.2676 17H9.29361L9.90961 14.116H6.45161L5.83561 17H3.86161ZM4.84161 16.167H5.27561L5.86361 13.36H10.8406L10.2456 16.167H10.6796L12.2056 8.985L11.3586 7.928H7.64861L6.36761 8.985L4.84161 16.167ZM6.87161 12.142H10.3296L10.8686 9.608L10.5326 9.181H7.92861L7.41061 9.608L6.87161 12.142ZM5.96161 12.933L6.75961 9.167L7.76061 8.355H11.0786L11.7296 9.167L10.9316 12.933H5.96161ZM12.8294 19.8L13.2494 17.826H17.1834L17.8694 17.259L17.9534 16.86L17.7854 17H14.5164L13.3824 15.558L14.3764 10.882L16.1194 9.44H20.0604L21.2014 10.882L19.6054 18.358L17.8624 19.8H12.8294ZM13.7604 19.044H17.4984L18.9964 17.784L20.3684 11.316L19.4794 10.182H16.3644L15.0624 11.253L14.2574 15.075L15.1534 16.216H17.7644L19.1364 15.089L18.6114 17.581L17.3724 18.617H13.8514L13.7604 19.044ZM15.4404 15.782L14.7194 14.893L15.4614 11.435L16.4694 10.616H19.1924L19.9064 11.498L19.2484 14.543L17.7294 15.782H15.4404ZM15.9024 15.019H17.6454L18.4924 14.319L19.0174 11.841L18.6744 11.414H16.6654L16.1474 11.841L15.5664 14.592L15.9024 15.019Z" fill="#888888"/>
</svg>
