<svg width="24" height="24" viewBox="0 0 24 24" fill="none" xmlns="http://www.w3.org/2000/svg">
<path d="M2.86161 17L4.63961 8.642L6.38961 7.2H10.9116L12.0456 8.642L10.2676 17H8.29361L8.90961 14.116H5.45161L4.83561 17H2.86161ZM4.05861 16.006H4.05161L4.66061 13.157H10.1346L9.52561 16.006H9.51861L10.9956 9.055L10.3096 8.187H6.59961L5.53561 9.055L4.05861 16.006ZM5.87161 12.142H9.32961L9.86861 9.608L9.53261 9.181H6.92861L6.41061 9.608L5.87161 12.142ZM4.66061 13.164L5.52861 9.055L6.59961 8.18H10.3096L11.0026 9.055L10.1346 13.164H4.66061ZM11.8294 19.8L12.2494 17.826H16.1834L16.8694 17.259L16.9534 16.86L16.7854 17H13.5164L12.3824 15.558L13.3764 10.882L15.1194 9.44H19.0604L20.2014 10.882L18.6054 18.358L16.8624 19.8H11.8294ZM12.9144 18.82H16.4774L17.8074 17.658L19.1304 11.414L18.3814 10.42H15.3924L14.2374 11.372L13.4814 14.928L14.3214 16.006H16.7434L18.4444 14.662L17.8074 17.658L16.4774 18.82H12.9144ZM14.3214 16.006L13.4814 14.928L14.2374 11.372L15.3924 10.42H18.3814L19.1304 11.414L18.4444 14.662L16.7434 16.006H14.3214ZM14.9024 15.019H16.6454L17.4924 14.319L18.0174 11.841L17.6744 11.414H15.6654L15.1474 11.841L14.5664 14.592L14.9024 15.019Z" fill="#888888"/>
</svg>
