<svg width="24" height="24" viewBox="0 0 24 24" fill="none" xmlns="http://www.w3.org/2000/svg">
<path d="M3.86161 17L5.63961 8.642L7.38961 7.2H11.9116L13.0456 8.642L11.2676 17H9.29361L9.90961 14.116H6.45161L5.83561 17H3.86161ZM4.54761 16.419H5.44361L6.03861 13.591H10.5606L9.95861 16.419H10.8616L12.4646 8.88L11.5336 7.711H7.56461L6.15061 8.88L4.54761 16.419ZM6.87161 12.142H10.3296L10.8686 9.608L10.5326 9.181H7.92861L7.41061 9.608L6.87161 12.142ZM6.23461 12.688L6.94861 9.314L7.80961 8.607H10.9106L11.4706 9.314L10.7496 12.688H6.23461ZM12.8294 19.8L13.2494 17.826H17.1834L17.8694 17.259L17.9534 16.86L17.7854 17H14.5164L13.3824 15.558L14.3764 10.882L16.1194 9.44H20.0604L21.2014 10.882L19.6054 18.358L17.8624 19.8H12.8294ZM13.4804 19.275H17.6314L19.1714 17.98L20.6204 11.169L19.6684 9.958H16.2874L14.8594 11.134L13.9914 15.236L14.9434 16.454H17.7574L18.7794 15.614L18.3804 17.483L17.3164 18.372H13.6694L13.4804 19.275ZM15.5804 15.551L14.9784 14.802L15.6714 11.568L16.5324 10.854H19.0384L19.6334 11.603L19.0174 14.487L17.7154 15.551H15.5804ZM15.9024 15.019H17.6454L18.4924 14.319L19.0174 11.841L18.6744 11.414H16.6654L16.1474 11.841L15.5664 14.592L15.9024 15.019Z" fill="#888888"/>
</svg>
