<svg width="24" height="24" viewBox="0 0 24 24" fill="none" xmlns="http://www.w3.org/2000/svg">
<g clip-path="url(#clip0_205_619)">
<path d="M3.63867 15.6582C3.45638 15.6582 3.31966 15.6992 3.22852 15.7812C3.14648 15.8542 3.08724 15.9499 3.05078 16.0684C2.94141 16.041 2.8138 16.0365 2.66797 16.0547C2.53125 16.0729 2.38997 16.0911 2.24414 16.1094C2.10742 16.1276 1.9707 16.1367 1.83398 16.1367C1.70638 16.1458 1.59701 16.123 1.50586 16.0684C1.46029 16.041 1.42383 16.0046 1.39648 15.959C1.36914 15.9043 1.33724 15.8542 1.30078 15.8086C1.26432 15.7539 1.22786 15.7038 1.19141 15.6582C1.14583 15.6126 1.11849 15.5671 1.10938 15.5215C1.09115 15.4668 1.10482 15.3893 1.15039 15.2891C1.19596 15.1797 1.23698 15.1022 1.27344 15.0566C1.3099 15.0293 1.35091 15.0065 1.39648 14.9883C1.45117 14.9701 1.5013 14.9427 1.54688 14.9062C1.67448 14.806 1.76562 14.6829 1.82031 14.5371C1.88411 14.3822 1.9388 14.2591 1.98438 14.168C2.04818 14.1224 2.12109 14.0768 2.20312 14.0312C2.29427 13.9766 2.33073 13.9082 2.3125 13.8262C2.23047 13.7806 2.13477 13.7624 2.02539 13.7715C1.91602 13.7715 1.80664 13.7669 1.69727 13.7578C1.51497 13.7578 1.33268 13.7441 1.15039 13.7168C0.968099 13.6895 0.804036 13.6667 0.658203 13.6484C0.421224 13.6029 0.216146 13.4935 0.0429688 13.3203C-0.139323 13.1471 -0.216797 12.9284 -0.189453 12.6641C-0.125651 12.6367 -0.0527344 12.623 0.0292969 12.623C0.102214 12.623 0.184245 12.6276 0.275391 12.6367C0.357422 12.6458 0.44401 12.6549 0.535156 12.6641C0.617188 12.6641 0.694661 12.6504 0.767578 12.623C0.849609 12.6777 0.927083 12.7051 1 12.7051C1.0638 12.7051 1.1276 12.6914 1.19141 12.6641C1.24609 12.6367 1.30078 12.6094 1.35547 12.582C1.41016 12.5456 1.46029 12.5228 1.50586 12.5137C1.55143 12.5046 1.59245 12.5046 1.62891 12.5137C1.66536 12.5228 1.70638 12.5273 1.75195 12.5273C1.82487 12.5273 1.89779 12.5182 1.9707 12.5C2.04362 12.4727 2.13021 12.4499 2.23047 12.4316C2.36719 12.4134 2.50846 12.4043 2.6543 12.4043C2.80013 12.3952 2.92318 12.3678 3.02344 12.3223C3.08724 12.2949 3.16016 12.2493 3.24219 12.1855C3.32422 12.1126 3.38346 12.0488 3.41992 11.9941C3.43815 11.9486 3.44271 11.9076 3.43359 11.8711C3.43359 11.8255 3.44271 11.7799 3.46094 11.7344C3.50651 11.5794 3.58398 11.4427 3.69336 11.3242C3.81185 11.2057 3.90755 11.0736 3.98047 10.9277C4.00781 10.8548 4.02604 10.8001 4.03516 10.7637C4.05339 10.7272 4.06706 10.6953 4.07617 10.668C4.08529 10.6406 4.0944 10.6087 4.10352 10.5723C4.12174 10.5358 4.15365 10.4811 4.19922 10.4082C4.28125 10.2806 4.36328 10.1576 4.44531 10.0391C4.53646 9.92057 4.64128 9.80664 4.75977 9.69727C4.75977 9.64258 4.76888 9.59701 4.78711 9.56055C4.80534 9.51497 4.82357 9.4694 4.8418 9.42383C5.08789 9.32357 5.28841 9.19141 5.44336 9.02734C5.59831 8.86328 5.75326 8.6901 5.9082 8.50781C5.89909 8.41667 5.91732 8.35286 5.96289 8.31641C6.00846 8.27083 6.03125 8.20247 6.03125 8.11133C6.03125 8.06576 6.01302 8.01562 5.97656 7.96094C5.94922 7.89714 5.93555 7.83333 5.93555 7.76953C5.93555 7.69661 5.96289 7.6237 6.01758 7.55078C6.08138 7.46875 6.13607 7.39583 6.18164 7.33203C6.25456 7.25911 6.30924 7.1862 6.3457 7.11328C6.39128 7.04036 6.43685 6.97201 6.48242 6.9082C6.55534 6.82617 6.62826 6.75326 6.70117 6.68945C6.7832 6.62565 6.86068 6.54818 6.93359 6.45703C6.97005 6.40234 6.9974 6.3431 7.01562 6.2793C7.04297 6.20638 7.08398 6.15169 7.13867 6.11523C7.2207 6.06055 7.33464 6.02865 7.48047 6.01953C7.6263 6.01042 7.77214 6.0013 7.91797 5.99219C8.09115 5.98307 8.27799 5.96484 8.47852 5.9375C8.68815 5.90104 8.89323 5.86458 9.09375 5.82812C9.30339 5.79167 9.50391 5.75977 9.69531 5.73242C9.89583 5.69596 10.0781 5.67318 10.2422 5.66406C10.4062 5.64583 10.5612 5.64128 10.707 5.65039C10.862 5.65951 10.985 5.64583 11.0762 5.60938C11.2038 5.71875 11.3314 5.82812 11.459 5.9375C11.5957 6.03776 11.7233 6.14714 11.8418 6.26562C11.8783 6.44792 11.9102 6.61654 11.9375 6.77148C11.9648 6.92643 11.9694 7.08138 11.9512 7.23633C11.9329 7.30924 11.901 7.3776 11.8555 7.44141C11.819 7.50521 11.8053 7.57812 11.8145 7.66016C11.8145 7.79688 11.8555 7.93359 11.9375 8.07031C12.0195 8.19792 12.0788 8.33919 12.1152 8.49414C12.1243 8.56706 12.1107 8.63997 12.0742 8.71289C12.0469 8.77669 12.0286 8.84505 12.0195 8.91797C12.0104 8.99089 12.015 9.07292 12.0332 9.16406C12.0514 9.24609 12.0697 9.33268 12.0879 9.42383C12.0879 9.5332 12.0833 9.64258 12.0742 9.75195C12.0651 9.86133 12.0697 9.97526 12.0879 10.0938C12.1061 10.2122 12.1289 10.3353 12.1562 10.4629C12.1836 10.5814 12.1927 10.7044 12.1836 10.832C12.1654 10.9596 12.138 11.0781 12.1016 11.1875C12.0742 11.2969 12.0605 11.4108 12.0605 11.5293C12.0514 11.6934 12.0605 11.8529 12.0879 12.0078C12.1152 12.1536 12.1061 12.304 12.0605 12.459C12.1335 12.5501 12.1699 12.6413 12.1699 12.7324C12.179 12.8236 12.1745 12.9147 12.1562 13.0059C12.138 13.097 12.1198 13.1927 12.1016 13.293C12.0833 13.3841 12.0924 13.4798 12.1289 13.5801C12.1471 13.6439 12.1836 13.7031 12.2383 13.7578C12.293 13.8034 12.3294 13.8626 12.3477 13.9355C12.375 14.0267 12.3887 14.1406 12.3887 14.2773C12.3978 14.4049 12.4023 14.528 12.4023 14.6465C12.4115 14.9382 12.3841 15.1979 12.3203 15.4258C12.2656 15.6536 12.2337 15.8997 12.2246 16.1641C12.2246 16.2826 12.2201 16.4147 12.2109 16.5605C12.2109 16.7064 12.1882 16.8203 12.1426 16.9023C12.097 16.957 12.0241 17.0117 11.9238 17.0664C11.8236 17.1302 11.737 17.1667 11.6641 17.1758C11.5273 17.1849 11.3678 17.1484 11.1855 17.0664C11.0124 16.9844 10.8802 16.8978 10.7891 16.8066C10.707 16.7155 10.6296 16.6152 10.5566 16.5059C10.4928 16.3965 10.4245 16.2826 10.3516 16.1641C10.2878 16.0456 10.2194 15.9362 10.1465 15.8359C10.0736 15.7266 9.99154 15.6354 9.90039 15.5625C9.85482 15.5352 9.80469 15.5078 9.75 15.4805C9.69531 15.4531 9.6543 15.4212 9.62695 15.3848C9.57227 15.2936 9.54036 15.1934 9.53125 15.084C9.53125 14.9655 9.53581 14.847 9.54492 14.7285C9.56315 14.6009 9.57682 14.4779 9.58594 14.3594C9.60417 14.2409 9.59961 14.1361 9.57227 14.0449C9.54492 13.9538 9.50846 13.8854 9.46289 13.8398C9.41732 13.7852 9.35807 13.7487 9.28516 13.7305C9.22135 13.7031 9.14388 13.6895 9.05273 13.6895C8.9707 13.6803 8.87044 13.6712 8.75195 13.6621C8.32357 13.6348 7.88151 13.6074 7.42578 13.5801C6.97005 13.5527 6.50521 13.5436 6.03125 13.5527C5.93099 13.5527 5.85807 13.5573 5.8125 13.5664C5.76693 13.5755 5.72591 13.5846 5.68945 13.5938C5.65299 13.5938 5.61654 13.5983 5.58008 13.6074C5.54362 13.6165 5.48438 13.6211 5.40234 13.6211C5.22005 13.6302 5.05599 13.6439 4.91016 13.6621C4.76432 13.6712 4.63672 13.7168 4.52734 13.7988C4.46354 13.8444 4.39518 13.9355 4.32227 14.0723C4.24935 14.209 4.19466 14.3138 4.1582 14.3867C4.11263 14.4961 4.07161 14.61 4.03516 14.7285C4.00781 14.847 3.97591 14.9655 3.93945 15.084C3.91211 15.1934 3.87565 15.2982 3.83008 15.3984C3.78451 15.4987 3.7207 15.5853 3.63867 15.6582ZM7.11133 12.0488C7.42122 12.0397 7.71745 12.0352 8 12.0352C8.29167 12.026 8.5651 12.0124 8.82031 11.9941C8.85677 11.9759 8.88867 11.9622 8.91602 11.9531C8.95247 11.944 9.00716 11.9486 9.08008 11.9668C9.08008 11.9212 9.10286 11.8984 9.14844 11.8984C9.19401 11.8893 9.23047 11.8757 9.25781 11.8574C9.29427 11.7936 9.3125 11.7435 9.3125 11.707C9.3125 11.6615 9.30339 11.625 9.28516 11.5977C9.27604 11.5612 9.25781 11.5247 9.23047 11.4883C9.21224 11.4427 9.20312 11.3835 9.20312 11.3105C9.20312 11.2376 9.21224 11.1647 9.23047 11.0918C9.25781 11.0098 9.27604 10.9277 9.28516 10.8457C9.29427 10.7819 9.28516 10.7135 9.25781 10.6406C9.23958 10.5677 9.23503 10.4948 9.24414 10.4219C9.25326 10.3581 9.2806 10.3034 9.32617 10.2578C9.37174 10.2031 9.39453 10.1439 9.39453 10.0801C9.39453 10.0436 9.38542 10.0026 9.36719 9.95703C9.35807 9.91146 9.34896 9.86589 9.33984 9.82031C9.33073 9.75651 9.32617 9.69271 9.32617 9.62891C9.33529 9.5651 9.33073 9.51042 9.3125 9.46484C9.29427 9.39193 9.2487 9.32357 9.17578 9.25977C9.10286 9.19596 9.05729 9.1276 9.03906 9.05469C9.01172 8.96354 9.00716 8.86328 9.02539 8.75391C9.05273 8.63542 9.06641 8.52148 9.06641 8.41211C9.05729 8.25716 9.04362 8.11589 9.02539 7.98828C9.00716 7.86068 8.96159 7.73307 8.88867 7.60547C8.78841 7.55078 8.71094 7.53255 8.65625 7.55078C8.61068 7.5599 8.56966 7.5918 8.5332 7.64648C8.50586 7.69206 8.47852 7.74674 8.45117 7.81055C8.43294 7.87435 8.39648 7.92904 8.3418 7.97461C8.0957 8.19336 7.9043 8.41667 7.76758 8.64453C7.63086 8.86328 7.46224 9.10482 7.26172 9.36914C7.17969 9.4694 7.0931 9.56966 7.00195 9.66992C6.91992 9.77018 6.84245 9.87956 6.76953 9.99805C6.70573 10.1165 6.6556 10.2396 6.61914 10.3672C6.58268 10.4948 6.57357 10.6361 6.5918 10.791C6.54622 10.8639 6.50521 10.9186 6.46875 10.9551C6.44141 10.9824 6.40951 11.0098 6.37305 11.0371C6.33659 11.0645 6.29557 11.0964 6.25 11.1328C6.21354 11.1693 6.16797 11.2194 6.11328 11.2832C6.01302 11.4108 5.90365 11.543 5.78516 11.6797C5.66667 11.8073 5.58919 11.9486 5.55273 12.1035C5.7168 12.1491 5.85807 12.1719 5.97656 12.1719C6.09505 12.1719 6.20898 12.1673 6.31836 12.1582C6.43685 12.14 6.55534 12.1217 6.67383 12.1035C6.80143 12.0762 6.94727 12.0579 7.11133 12.0488ZM21.2891 8.87695C21.2708 8.9681 21.2389 9.04557 21.1934 9.10938C21.1569 9.17318 21.1159 9.24154 21.0703 9.31445C20.9062 9.35091 20.7513 9.42383 20.6055 9.5332C20.4688 9.63346 20.3092 9.69271 20.127 9.71094C20.0905 9.71094 20.054 9.70638 20.0176 9.69727C19.9902 9.67904 19.9583 9.66992 19.9219 9.66992C19.8125 9.66081 19.6895 9.66536 19.5527 9.68359C19.4251 9.70182 19.2975 9.72005 19.1699 9.73828C18.9967 9.75651 18.8509 9.79753 18.7324 9.86133C18.6139 9.92513 18.4772 9.97526 18.3223 10.0117C17.9668 10.1029 17.6478 10.235 17.3652 10.4082C17.0918 10.5723 16.8776 10.8001 16.7227 11.0918C16.6497 11.2285 16.5723 11.388 16.4902 11.5703C16.4173 11.7435 16.3079 11.8848 16.1621 11.9941C16.2077 12.0944 16.2214 12.1855 16.2031 12.2676C16.194 12.3496 16.1712 12.4271 16.1348 12.5C16.1074 12.5638 16.071 12.6322 16.0254 12.7051C15.9889 12.7689 15.9616 12.8327 15.9434 12.8965C15.9251 12.9329 15.916 12.974 15.916 13.0195C15.9251 13.0651 15.9251 13.1107 15.916 13.1562C15.8704 13.4479 15.8887 13.7214 15.9707 13.9766C16.0527 14.2227 16.2077 14.3958 16.4355 14.4961C16.5814 14.569 16.7227 14.61 16.8594 14.6191C16.9961 14.6283 17.1647 14.6237 17.3652 14.6055C17.5749 14.5872 17.8027 14.5736 18.0488 14.5645C18.2949 14.5553 18.4863 14.5007 18.623 14.4004C18.696 14.3457 18.7507 14.2728 18.7871 14.1816C18.8236 14.0905 18.8783 13.9993 18.9512 13.9082C19.0241 13.8079 19.0833 13.6895 19.1289 13.5527C19.1745 13.4069 19.1927 13.2747 19.1836 13.1562C19.1745 13.0924 19.1289 13.0286 19.0469 12.9648C18.974 12.901 18.9102 12.86 18.8555 12.8418C18.7917 12.8145 18.7233 12.8008 18.6504 12.8008C18.5866 12.7917 18.5228 12.7826 18.459 12.7734C18.4043 12.7552 18.3542 12.7324 18.3086 12.7051C18.2721 12.6777 18.2539 12.6276 18.2539 12.5547C18.2539 12.4635 18.3132 12.3997 18.4316 12.3633C18.5592 12.3177 18.7096 12.2904 18.8828 12.2812C19.056 12.263 19.2337 12.2539 19.416 12.2539C19.6074 12.2539 19.7578 12.2448 19.8672 12.2266C20.0039 12.1992 20.1452 12.14 20.291 12.0488C20.446 11.9577 20.6009 11.9167 20.7559 11.9258C20.847 11.9258 20.9154 11.9303 20.9609 11.9395C21.0065 11.9486 21.043 11.9622 21.0703 11.9805C21.0977 11.9987 21.1204 12.026 21.1387 12.0625C21.166 12.0898 21.1934 12.1263 21.2207 12.1719C21.2754 12.3724 21.2845 12.5547 21.248 12.7188C21.2116 12.8737 21.1569 13.0286 21.084 13.1836C21.0566 13.2656 21.0384 13.3522 21.0293 13.4434C21.0293 13.5254 21.0202 13.6029 21.002 13.6758C20.9837 13.7487 20.9427 13.8262 20.8789 13.9082C20.8242 13.9902 20.7695 14.0814 20.7148 14.1816C20.6693 14.2819 20.6283 14.3867 20.5918 14.4961C20.5645 14.6055 20.528 14.7103 20.4824 14.8105C20.4642 14.8379 20.4414 14.8652 20.4141 14.8926C20.3958 14.9108 20.3776 14.9382 20.3594 14.9746C20.3138 15.0749 20.2865 15.1751 20.2773 15.2754C20.2682 15.3665 20.2454 15.4486 20.209 15.5215C20.1543 15.6947 20.0677 15.8451 19.9492 15.9727C19.8398 16.1003 19.7441 16.2279 19.6621 16.3555C19.5983 16.3737 19.5391 16.3828 19.4844 16.3828C19.4297 16.3919 19.3796 16.401 19.334 16.4102C19.2884 16.4284 19.2611 16.4147 19.252 16.3691C19.252 16.3236 19.2337 16.2917 19.1973 16.2734C19.097 16.3464 18.9831 16.4238 18.8555 16.5059C18.737 16.5879 18.6003 16.6016 18.4453 16.5469C18.4271 16.4466 18.4316 16.3555 18.459 16.2734C18.4863 16.2005 18.5182 16.1276 18.5547 16.0547C18.6003 15.9909 18.6458 15.9271 18.6914 15.8633C18.737 15.7995 18.7689 15.7266 18.7871 15.6445C18.6595 15.6628 18.5365 15.7174 18.418 15.8086C18.2995 15.8997 18.1719 15.9681 18.0352 16.0137C17.9896 16.0319 17.9349 16.0319 17.8711 16.0137C17.8164 16.0046 17.7572 16.0091 17.6934 16.0273C17.4655 16.0638 17.2148 16.1185 16.9414 16.1914C16.668 16.2643 16.4219 16.278 16.2031 16.2324C16.1484 16.2233 16.1029 16.2005 16.0664 16.1641C16.0391 16.1367 16.0026 16.1094 15.957 16.082C15.8568 16.0273 15.7428 15.9909 15.6152 15.9727C15.4876 15.9544 15.3737 15.9271 15.2734 15.8906C15.1003 15.8359 14.959 15.7493 14.8496 15.6309C14.7402 15.5033 14.6354 15.3939 14.5352 15.3027C14.526 15.2298 14.4987 15.166 14.4531 15.1113C14.4076 15.0475 14.3529 14.9928 14.2891 14.9473C14.2344 14.8926 14.1797 14.8424 14.125 14.7969C14.0703 14.7422 14.0293 14.6829 14.002 14.6191C13.9746 14.5462 13.9564 14.4642 13.9473 14.373C13.9473 14.2819 13.9336 14.1908 13.9062 14.0996C13.8698 13.9538 13.8288 13.8262 13.7832 13.7168C13.7467 13.5983 13.7148 13.4844 13.6875 13.375C13.6693 13.2565 13.6602 13.1335 13.6602 13.0059C13.6602 12.8783 13.6829 12.7324 13.7285 12.5684C13.7832 12.4134 13.847 12.2493 13.9199 12.0762C13.9928 11.903 14.0612 11.7435 14.125 11.5977C14.2344 11.3698 14.3711 11.1328 14.5352 10.8867C14.6354 10.7409 14.7311 10.6178 14.8223 10.5176C14.9134 10.4082 15.0091 10.2988 15.1094 10.1895C15.2734 9.99805 15.4876 9.82031 15.752 9.65625C16.0254 9.48307 16.2897 9.33268 16.5449 9.20508C16.7637 9.10482 17.0098 9.00456 17.2832 8.9043C17.5658 8.80404 17.862 8.74479 18.1719 8.72656C18.4453 8.69922 18.7142 8.71289 18.9785 8.76758C19.2428 8.82227 19.5072 8.85872 19.7715 8.87695C19.9264 8.88607 20.0951 8.89518 20.2773 8.9043C20.4596 8.9043 20.6283 8.88607 20.7832 8.84961C20.8288 8.84049 20.8743 8.83138 20.9199 8.82227C20.9655 8.80404 21.0065 8.79036 21.043 8.78125C21.0885 8.77214 21.1296 8.77669 21.166 8.79492C21.2116 8.80404 21.2526 8.83138 21.2891 8.87695Z" fill="#333333"/>
</g>
<defs>
<clipPath id="clip0_205_619">
<rect width="24" height="24" fill="white"/>
</clipPath>
</defs>
</svg>
