<svg width="24" height="24" viewBox="0 0 24 24" fill="none" xmlns="http://www.w3.org/2000/svg">
<path d="M11.7656 16.524C12.1016 16.58 12.4282 16.6733 12.7456 16.804L12.7176 17H9.07755L9.11955 16.79C9.47422 16.6593 9.85689 16.5707 10.2676 16.524L9.98755 14.466H6.05355L4.91955 16.538C5.29289 16.5847 5.64289 16.678 5.96955 16.818L5.94155 17H2.94555L2.98755 16.776C3.15555 16.72 3.34689 16.664 3.56155 16.608C3.77622 16.552 3.95355 16.5147 4.09355 16.496L9.30155 7.144H10.3656L11.7656 16.524ZM9.90356 13.906L9.20355 8.74L6.36155 13.906H9.90356ZM21.0327 9.664C21.238 9.664 21.3967 9.72 21.5087 9.832C21.6207 9.93467 21.6767 10.0793 21.6767 10.266C21.6767 10.35 21.672 10.4153 21.6627 10.462C21.6253 10.6113 21.546 10.7467 21.4247 10.868C21.3033 10.98 21.168 11.036 21.0187 11.036C20.8693 11.036 20.7713 11.008 20.7247 10.952C20.678 10.8867 20.6407 10.7887 20.6127 10.658C20.594 10.4993 20.538 10.42 20.4447 10.42C20.3607 10.42 20.2673 10.4667 20.1647 10.56C20.062 10.6533 20.0013 10.7093 19.9827 10.728C20.188 11.008 20.2907 11.3393 20.2907 11.722C20.2907 11.8993 20.272 12.0627 20.2347 12.212C20.0853 12.9493 19.7027 13.5187 19.0867 13.92C18.48 14.3213 17.7147 14.522 16.7907 14.522C16.212 14.522 15.7313 14.4473 15.3487 14.298C15.0313 14.5127 14.8727 14.7413 14.8727 14.984C14.8727 15.152 14.966 15.2733 15.1527 15.348C15.3487 15.4227 15.6287 15.46 15.9927 15.46H17.9387C18.452 15.46 18.872 15.572 19.1987 15.796C19.5347 16.02 19.7027 16.342 19.7027 16.762C19.7027 16.874 19.6887 16.9953 19.6607 17.126C19.5207 17.8167 19.1147 18.33 18.4427 18.666C17.78 19.002 16.898 19.17 15.7967 19.17C14.938 19.17 14.2847 19.0533 13.8367 18.82C13.3887 18.5867 13.1647 18.2367 13.1647 17.77C13.1647 17.4993 13.244 17.2287 13.4027 16.958C13.5613 16.678 13.8087 16.4493 14.1447 16.272C13.9207 16.0853 13.8087 15.8287 13.8087 15.502C13.8087 15.2407 13.8973 14.984 14.0747 14.732C14.252 14.4707 14.5133 14.2373 14.8587 14.032C14.4293 13.7147 14.2147 13.276 14.2147 12.716C14.2147 12.5387 14.2333 12.3707 14.2707 12.212C14.42 11.484 14.798 10.9193 15.4047 10.518C16.0207 10.1073 16.7953 9.902 17.7287 9.902C18.5407 9.902 19.1753 10.0607 19.6327 10.378C19.8847 10.154 20.118 9.98133 20.3327 9.86C20.5473 9.72933 20.7807 9.664 21.0327 9.664ZM18.7507 12.212C18.788 12.0533 18.8067 11.8853 18.8067 11.708C18.8067 11.3253 18.7087 11.022 18.5127 10.798C18.3167 10.574 18.018 10.462 17.6167 10.462C17.1313 10.462 16.7253 10.6253 16.3987 10.952C16.072 11.2787 15.8573 11.6987 15.7547 12.212C15.7173 12.3707 15.6987 12.5387 15.6987 12.716C15.6987 13.0987 15.7967 13.402 15.9927 13.626C16.198 13.85 16.5013 13.962 16.9027 13.962C17.388 13.962 17.7893 13.7987 18.1067 13.472C18.4333 13.1453 18.648 12.7253 18.7507 12.212ZM15.0967 16.552C15.0127 16.552 14.9053 16.5427 14.7747 16.524C14.4013 16.8413 14.2147 17.2053 14.2147 17.616C14.2147 17.9707 14.3827 18.232 14.7187 18.4C15.064 18.568 15.498 18.652 16.0207 18.652C16.6553 18.652 17.2107 18.5447 17.6867 18.33C18.1627 18.1247 18.4473 17.8073 18.5407 17.378C18.55 17.3313 18.5547 17.2707 18.5547 17.196C18.5547 16.944 18.4333 16.776 18.1907 16.692C17.9573 16.5987 17.5933 16.552 17.0987 16.552H15.0967Z" fill="#888888"/>
</svg>
