<svg width="24" height="24" viewBox="0 0 24 24" fill="none" xmlns="http://www.w3.org/2000/svg">
<path d="M12.2877 16.398C12.6237 16.482 12.9877 16.5893 13.3797 16.72V17H8.70366V16.692C9.21699 16.5147 9.58566 16.412 9.80966 16.384L9.15166 14.522H5.46966L4.78366 16.412C4.99832 16.44 5.22699 16.5007 5.46966 16.594C5.71232 16.678 5.86632 16.7293 5.93166 16.748V17H2.43166V16.678C2.64632 16.6127 2.85632 16.552 3.06166 16.496C3.27632 16.4307 3.43499 16.3887 3.53766 16.37L7.00966 7.144H8.80166L12.2877 16.398ZM8.88566 13.766L7.33166 9.328L5.73566 13.766H8.88566ZM19.1046 15.166C19.7766 15.166 20.3132 15.3387 20.7146 15.684C21.1159 16.0293 21.3166 16.496 21.3166 17.084C21.3166 17.8213 20.9899 18.3673 20.3366 18.722C19.6926 19.086 18.6939 19.268 17.3406 19.268C16.2392 19.268 15.3992 19.114 14.8206 18.806C14.2512 18.498 13.9666 18.05 13.9666 17.462C13.9666 17.2847 14.0132 17.1027 14.1066 16.916C14.1999 16.7293 14.3446 16.5613 14.5406 16.412C14.2886 16.1973 14.1626 15.908 14.1626 15.544C14.1626 15.2827 14.2279 15.0213 14.3586 14.76C14.4986 14.4987 14.7179 14.2747 15.0166 14.088C14.2792 13.6867 13.9106 13.0707 13.9106 12.24C13.9106 11.484 14.2139 10.9053 14.8206 10.504C15.4272 10.1027 16.2859 9.902 17.3966 9.902C18.3579 9.902 19.1279 10.0513 19.7066 10.35C19.8746 10.0793 19.9586 9.846 19.9586 9.65H21.4846C21.4472 10.266 21.1486 10.7653 20.5886 11.148C20.7752 11.4653 20.8686 11.8293 20.8686 12.24C20.8686 12.996 20.5652 13.5747 19.9586 13.976C19.3612 14.368 18.5072 14.564 17.3966 14.564C16.9299 14.564 16.4866 14.5267 16.0666 14.452C15.9546 14.5453 15.8986 14.6713 15.8986 14.83C15.8986 15.054 16.1412 15.166 16.6266 15.166H19.1046ZM17.3966 10.658C17.0512 10.658 16.7852 10.8073 16.5986 11.106C16.4119 11.3953 16.3186 11.7733 16.3186 12.24C16.3186 12.7067 16.4119 13.0893 16.5986 13.388C16.7852 13.6773 17.0512 13.822 17.3966 13.822C17.7419 13.822 18.0079 13.6773 18.1946 13.388C18.3812 13.0893 18.4746 12.7067 18.4746 12.24C18.4746 11.7733 18.3812 11.3953 18.1946 11.106C18.0079 10.8073 17.7419 10.658 17.3966 10.658ZM17.2986 18.596C17.8119 18.596 18.2459 18.5213 18.6006 18.372C18.9552 18.2227 19.1326 17.9847 19.1326 17.658C19.1326 17.3873 19.0299 17.1727 18.8246 17.014C18.6286 16.8553 18.3579 16.776 18.0126 16.776H15.7306H15.6466C15.5532 16.972 15.5066 17.2053 15.5066 17.476C15.5066 17.8307 15.6699 18.106 15.9966 18.302C16.3326 18.498 16.7666 18.596 17.2986 18.596Z" fill="#888888"/>
</svg>
