<svg width="24" height="24" viewBox="0 0 24 24" fill="none" xmlns="http://www.w3.org/2000/svg">
<path d="M12.2084 16.524C12.5724 16.58 12.9364 16.6733 13.3004 16.804V17H9.50641V16.79C9.85175 16.6593 10.2297 16.5707 10.6404 16.524L9.91241 14.466H5.82441L5.08241 16.538C5.48375 16.5847 5.87108 16.678 6.24441 16.818V17H3.12241V16.776C3.29041 16.72 3.47708 16.664 3.68241 16.608C3.89708 16.552 4.07441 16.5147 4.21441 16.496L7.65841 7.144H8.76441L12.2084 16.524ZM9.71641 13.906L7.88241 8.74L6.03441 13.906H9.71641ZM18.4274 15.278C19.0807 15.278 19.5987 15.4273 19.9814 15.726C20.3734 16.0247 20.5694 16.482 20.5694 17.098C20.5694 18.4793 19.412 19.17 17.0974 19.17C16.1267 19.17 15.352 19.016 14.7734 18.708C14.204 18.4 13.9194 17.966 13.9194 17.406C13.9194 16.93 14.148 16.5473 14.6054 16.258C14.428 16.146 14.2974 16.006 14.2134 15.838C14.1294 15.67 14.0874 15.4973 14.0874 15.32C14.0874 14.7973 14.358 14.368 14.8994 14.032C14.246 13.6213 13.9194 13.0147 13.9194 12.212C13.9194 11.484 14.1947 10.9193 14.7454 10.518C15.296 10.1073 16.0567 9.902 17.0274 9.902C17.9234 9.902 18.642 10.0793 19.1834 10.434C19.3047 10.3033 19.4027 10.1633 19.4774 10.014C19.5614 9.85533 19.6034 9.72933 19.6034 9.636H20.7234C20.686 9.85067 20.5834 10.0747 20.4154 10.308C20.2567 10.532 20.0327 10.7513 19.7434 10.966C19.9954 11.302 20.1214 11.7173 20.1214 12.212C20.1214 12.9493 19.846 13.5187 19.2954 13.92C18.754 14.3213 17.998 14.522 17.0274 14.522C16.5327 14.522 16.0567 14.4613 15.5994 14.34C15.4034 14.48 15.3054 14.6387 15.3054 14.816C15.3054 14.956 15.3707 15.068 15.5014 15.152C15.632 15.236 15.8187 15.278 16.0614 15.278H18.4274ZM17.0274 10.462C16.514 10.462 16.122 10.6253 15.8514 10.952C15.59 11.2787 15.4594 11.6987 15.4594 12.212C15.4594 12.7253 15.59 13.1453 15.8514 13.472C16.122 13.7987 16.514 13.962 17.0274 13.962C17.5314 13.962 17.914 13.7987 18.1754 13.472C18.446 13.1453 18.5814 12.7253 18.5814 12.212C18.5814 11.6987 18.446 11.2787 18.1754 10.952C17.914 10.6253 17.5314 10.462 17.0274 10.462ZM17.0834 18.568C17.7087 18.568 18.2127 18.47 18.5954 18.274C18.978 18.0873 19.1694 17.812 19.1694 17.448C19.1694 17.1587 19.0574 16.9347 18.8334 16.776C18.6187 16.6173 18.3014 16.538 17.8814 16.538H15.6974L15.3474 16.524C15.2074 16.7293 15.1374 16.9907 15.1374 17.308C15.1374 17.7093 15.31 18.0173 15.6554 18.232C16.01 18.456 16.486 18.568 17.0834 18.568Z" fill="#888888"/>
</svg>
