<svg width="24" height="24" viewBox="0 0 24 24" fill="none" xmlns="http://www.w3.org/2000/svg">
<path d="M11.6329 16.678C12.0529 16.7247 12.3842 16.804 12.6269 16.916L12.6129 17H10.1069L10.1209 16.916C10.3262 16.832 10.7135 16.762 11.2829 16.706L10.9609 14.396H6.52288L5.26288 16.706C5.79488 16.762 6.15888 16.832 6.35488 16.916L6.34088 17H3.82088L3.83488 16.916C4.12422 16.804 4.48355 16.7247 4.91288 16.678L10.1349 7.144H10.3169L11.6329 16.678ZM10.9189 14.088L10.0649 7.942L6.69088 14.088H10.9189ZM19.747 9.902C19.915 9.902 20.041 9.93467 20.125 10C20.2183 10.0653 20.2556 10.1587 20.237 10.28C20.181 10.4853 20.0596 10.588 19.873 10.588C19.789 10.588 19.733 10.5693 19.705 10.532C19.6863 10.4947 19.6723 10.434 19.663 10.35C19.6536 10.2567 19.6163 10.21 19.551 10.21C19.4763 10.21 19.285 10.3313 18.977 10.574C19.2103 10.8633 19.327 11.2227 19.327 11.652C19.327 11.848 19.3083 12.0253 19.271 12.184C19.1216 12.884 18.781 13.4393 18.249 13.85C17.717 14.2607 17.073 14.466 16.317 14.466C15.7383 14.466 15.2716 14.3447 14.917 14.102C14.441 14.382 14.1656 14.6713 14.091 14.97C14.0816 14.998 14.077 15.0353 14.077 15.082C14.077 15.2873 14.1796 15.4553 14.385 15.586C14.5996 15.7073 14.8983 15.768 15.281 15.768H17.213C17.6516 15.768 18.0156 15.852 18.305 16.02C18.5943 16.188 18.739 16.454 18.739 16.818C18.739 16.874 18.7296 16.9673 18.711 17.098C18.571 17.77 18.1883 18.26 17.563 18.568C16.947 18.876 16.2096 19.03 15.351 19.03C14.6883 19.03 14.1516 18.9087 13.741 18.666C13.3396 18.4327 13.139 18.092 13.139 17.644C13.139 17.5413 13.153 17.434 13.181 17.322C13.3116 16.7247 13.6896 16.2673 14.315 15.95C13.9416 15.8007 13.755 15.5487 13.755 15.194C13.755 14.7273 14.0723 14.3073 14.707 13.934C14.399 13.626 14.245 13.2293 14.245 12.744C14.245 12.548 14.2636 12.3613 14.301 12.184C14.441 11.484 14.777 10.9287 15.309 10.518C15.841 10.1073 16.485 9.902 17.241 9.902C17.9223 9.902 18.4403 10.0653 18.795 10.392C19.1496 10.0653 19.467 9.902 19.747 9.902ZM18.893 12.184C18.9303 11.96 18.949 11.8013 18.949 11.708C18.949 11.26 18.7996 10.9007 18.501 10.63C18.2116 10.35 17.773 10.21 17.185 10.21C16.5036 10.21 15.9436 10.3967 15.505 10.77C15.0663 11.1433 14.791 11.6147 14.679 12.184C14.6416 12.3333 14.623 12.4967 14.623 12.674C14.623 13.122 14.7676 13.4813 15.057 13.752C15.3556 14.0227 15.799 14.158 16.387 14.158C17.0683 14.158 17.6236 13.9713 18.053 13.598C18.4916 13.2247 18.7716 12.7533 18.893 12.184ZM15.141 16.09C14.9263 16.09 14.7256 16.0667 14.539 16.02C14.1843 16.2347 13.9323 16.4447 13.783 16.65C13.643 16.846 13.5496 17.0653 13.503 17.308C13.4843 17.42 13.475 17.504 13.475 17.56C13.475 17.9427 13.6523 18.2273 14.007 18.414C14.371 18.6007 14.861 18.694 15.477 18.694C16.2703 18.694 16.919 18.5587 17.423 18.288C17.9363 18.0267 18.2443 17.644 18.347 17.14C18.3656 17.028 18.375 16.9487 18.375 16.902C18.375 16.6313 18.263 16.4307 18.039 16.3C17.815 16.16 17.451 16.09 16.947 16.09H15.141Z" fill="#333333"/>
</svg>
