<svg width="24" height="24" viewBox="0 0 24 24" fill="none" xmlns="http://www.w3.org/2000/svg">
<path d="M11.2533 16.398C11.5893 16.4913 11.916 16.5987 12.2333 16.72L12.1773 17H7.68331L7.7393 16.692C8.28064 16.5147 8.65864 16.412 8.87331 16.384L8.62131 14.522H5.0653L4.0293 16.412C4.23464 16.44 4.43997 16.496 4.6453 16.58C4.85997 16.664 4.99997 16.72 5.0653 16.748L5.0233 17H1.6633L1.7193 16.678C1.9433 16.6127 2.16264 16.552 2.3773 16.496C2.59197 16.4307 2.75064 16.3887 2.8533 16.37L8.0613 7.144H9.78331L11.2533 16.398ZM8.52331 13.766L7.9353 9.328L5.4853 13.766H8.52331ZM21.217 9.608C21.4504 9.608 21.6277 9.68267 21.749 9.832C21.8797 9.98133 21.945 10.1773 21.945 10.42C21.945 10.56 21.9357 10.6673 21.917 10.742C21.8704 10.9287 21.763 11.1013 21.595 11.26C21.427 11.4187 21.245 11.498 21.049 11.498C20.8624 11.498 20.7364 11.456 20.671 11.372C20.6057 11.288 20.559 11.1667 20.531 11.008C20.5124 10.9053 20.489 10.8307 20.461 10.784C20.433 10.7373 20.3864 10.714 20.321 10.714C20.265 10.714 20.1904 10.742 20.097 10.798C20.3024 11.0593 20.405 11.3767 20.405 11.75C20.405 11.9273 20.3864 12.0907 20.349 12.24C20.1904 12.9867 19.7797 13.5607 19.117 13.962C18.4544 14.354 17.5957 14.55 16.541 14.55C16.0277 14.55 15.5564 14.4987 15.127 14.396C14.987 14.508 14.903 14.648 14.875 14.816C14.8284 15.0027 14.8937 15.1193 15.071 15.166C15.2484 15.2127 15.533 15.236 15.925 15.236H17.857C18.4357 15.236 18.9024 15.3713 19.257 15.642C19.621 15.9033 19.803 16.2673 19.803 16.734C19.803 16.8647 19.789 17 19.761 17.14C19.4717 18.5587 18.0577 19.268 15.519 19.268C14.5204 19.268 13.783 19.1513 13.307 18.918C12.831 18.694 12.593 18.344 12.593 17.868C12.593 17.7653 12.607 17.6487 12.635 17.518C12.663 17.3313 12.747 17.1447 12.887 16.958C13.0177 16.7713 13.1997 16.6173 13.433 16.496C13.2837 16.3093 13.209 16.0807 13.209 15.81C13.209 15.502 13.307 15.194 13.503 14.886C13.699 14.5687 13.9837 14.298 14.357 14.074C13.853 13.7567 13.601 13.3087 13.601 12.73C13.601 12.6273 13.6197 12.464 13.657 12.24C13.8157 11.484 14.2217 10.9053 14.875 10.504C15.5377 10.1027 16.4057 9.902 17.479 9.902C18.375 9.902 19.075 10.0467 19.579 10.336C19.8684 10.0933 20.1344 9.91133 20.377 9.79C20.629 9.66867 20.909 9.608 21.217 9.608ZM18.025 12.24C18.0717 12.0067 18.095 11.8107 18.095 11.652C18.095 11.344 18.0297 11.1013 17.899 10.924C17.7777 10.7467 17.591 10.658 17.339 10.658C16.9937 10.658 16.6997 10.8073 16.457 11.106C16.2144 11.3953 16.051 11.7733 15.967 12.24C15.9204 12.4733 15.897 12.6693 15.897 12.828C15.897 13.136 15.9624 13.3787 16.093 13.556C16.2237 13.7333 16.4197 13.822 16.681 13.822C17.017 13.822 17.3017 13.6773 17.535 13.388C17.7684 13.0893 17.9317 12.7067 18.025 12.24ZM14.455 16.888H14.427C14.315 17.056 14.245 17.224 14.217 17.392C14.1984 17.504 14.189 17.588 14.189 17.644C14.189 17.9893 14.3477 18.2367 14.665 18.386C14.9917 18.5353 15.3837 18.61 15.841 18.61C16.401 18.61 16.9097 18.512 17.367 18.316C17.8244 18.12 18.053 17.812 18.053 17.392C18.053 17.168 17.9364 17.028 17.703 16.972C17.479 16.916 17.1104 16.888 16.597 16.888H14.455Z" fill="#333333"/>
</svg>
