<svg width="24" height="24" viewBox="0 0 24 24" fill="none" xmlns="http://www.w3.org/2000/svg">
<path d="M11.5845 17H10.4505L9.75053 14.396H6.16653L5.46653 17H4.33253L7.02053 7.2H8.89653L11.5845 17ZM7.86053 8.061L6.35553 13.535H9.56153L8.05653 8.061H7.86053ZM17.078 19.961C16.6113 19.961 16.1983 19.8957 15.839 19.765C15.4843 19.639 15.1833 19.464 14.936 19.24C14.6933 19.0207 14.509 18.7733 14.383 18.498C14.257 18.2273 14.194 17.9473 14.194 17.658H15.272C15.272 17.7747 15.3023 17.9123 15.363 18.071C15.4283 18.2297 15.531 18.386 15.671 18.54C15.8157 18.694 16.0047 18.8223 16.238 18.925C16.4713 19.0277 16.7583 19.079 17.099 19.079C17.5517 19.079 17.9273 18.9693 18.226 18.75C18.5247 18.5353 18.7463 18.2413 18.891 17.868C19.0357 17.4947 19.108 17.077 19.108 16.615V11.505L19.15 10H20.186V16.489C20.186 16.9277 20.1393 17.3267 20.046 17.686C19.9573 18.0453 19.8243 18.365 19.647 18.645C19.4697 18.9297 19.255 19.17 19.003 19.366C18.751 19.562 18.464 19.709 18.142 19.807C17.82 19.9097 17.4653 19.961 17.078 19.961ZM16.917 17.154C16.5623 17.154 16.21 17.0817 15.86 16.937C15.5147 16.7923 15.1997 16.5707 14.915 16.272C14.6303 15.9733 14.4017 15.593 14.229 15.131C14.061 14.669 13.977 14.1207 13.977 13.486C13.977 12.6413 14.117 11.9507 14.397 11.414C14.677 10.8727 15.0363 10.476 15.475 10.224C15.9137 9.972 16.371 9.846 16.847 9.846C17.281 9.846 17.6683 9.93 18.009 10.098C18.3543 10.266 18.646 10.4877 18.884 10.763C19.1267 11.0383 19.311 11.3393 19.437 11.666C19.563 11.988 19.626 12.3053 19.626 12.618L19.171 12.765C19.1243 12.5177 19.0473 12.275 18.94 12.037C18.8327 11.7943 18.6927 11.5773 18.52 11.386C18.3473 11.19 18.1443 11.0337 17.911 10.917C17.6823 10.8003 17.4257 10.742 17.141 10.742C16.7723 10.742 16.4293 10.8377 16.112 11.029C15.7947 11.2157 15.538 11.512 15.342 11.918C15.1507 12.3193 15.055 12.842 15.055 13.486C15.055 14.1207 15.1553 14.6433 15.356 15.054C15.5567 15.46 15.818 15.7633 16.14 15.964C16.4667 16.16 16.8167 16.258 17.19 16.258C17.4747 16.258 17.7313 16.195 17.96 16.069C18.1933 15.943 18.394 15.775 18.562 15.565C18.73 15.355 18.863 15.1217 18.961 14.865C19.0637 14.6037 19.129 14.3377 19.157 14.067L19.64 14.221C19.64 14.543 19.5793 14.8767 19.458 15.222C19.3367 15.5673 19.1593 15.887 18.926 16.181C18.6927 16.4703 18.408 16.706 18.072 16.888C17.736 17.0653 17.351 17.154 16.917 17.154Z" fill="#888888"/>
</svg>
