<svg width="24" height="24" viewBox="0 0 24 24" fill="none" xmlns="http://www.w3.org/2000/svg">
<path d="M10.4588 15.388C10.2155 15.8428 9.82937 16.2765 9.30048 16.6891C8.78217 17.091 8.15808 17.292 7.42822 17.292C6.69835 17.292 6.10071 17.054 5.63528 16.578C5.18044 16.0914 4.95302 15.4039 4.95302 14.5153C4.95302 14.124 5.00062 13.6903 5.09582 13.2143L5.76222 10.0568C6.03724 8.75573 6.58199 7.76142 7.39648 7.07387C8.22155 6.37573 9.08893 6.02667 9.99862 6.02667C10.3794 6.02667 10.7073 6.106 10.9824 6.26467C11.268 6.42333 11.4795 6.61902 11.617 6.85173C11.8392 7.24311 11.9767 7.6292 12.0296 8.01L12.4104 6.18533H14.1398L11.8233 17.1333H10.0938L10.4588 15.388ZM11.744 8.85093C11.744 8.21627 11.6012 7.68209 11.3156 7.2484C11.03 6.80413 10.6068 6.582 10.0462 6.582C9.72888 6.582 9.43271 6.65604 9.15768 6.80413C8.89324 6.94164 8.6764 7.11089 8.50715 7.31187C8.34848 7.50227 8.20568 7.73498 8.07875 8.01C7.88835 8.38022 7.74555 8.79276 7.65035 9.2476L6.63488 14.0076C6.55026 14.4307 6.50795 14.7798 6.50795 15.0548C6.50795 16.176 6.99982 16.7367 7.98355 16.7367C8.67111 16.7367 9.27404 16.4193 9.79235 15.7847C10.3107 15.1394 10.6597 14.3884 10.8396 13.5316L11.6488 9.70773C11.7122 9.42213 11.744 9.13653 11.744 8.85093ZM13.9406 18.4503C14.2051 18.9792 14.6546 19.2436 15.2893 19.2436C15.9345 19.2436 16.4211 19.0056 16.749 18.5296C17.0769 18.043 17.3414 17.2603 17.5423 16.1813C17.1087 16.9218 16.5163 17.292 15.7653 17.292C15.247 17.292 14.845 17.1386 14.5594 16.8319C14.2844 16.5251 14.1469 16.0967 14.1469 15.5467C14.1469 15.2716 14.1733 15.0125 14.2262 14.7692L14.8133 12.0243C14.9825 11.2521 15.2999 10.6439 15.7653 10.1996C16.2413 9.74476 16.7966 9.51733 17.4313 9.51733C18.1823 9.51733 18.616 9.87169 18.7323 10.5804L18.9227 9.676H20.3031L18.9703 16.0068C18.4203 18.5243 17.2144 19.7831 15.3527 19.7831C14.9296 19.7831 14.5753 19.6879 14.2897 19.4975C14.0041 19.3176 13.819 19.1325 13.7343 18.9421L13.6233 18.6724L13.9406 18.4503ZM18.4626 11.8339C18.5049 11.6223 18.5261 11.3843 18.5261 11.1199C18.5261 10.8448 18.4467 10.591 18.2881 10.3583C18.1294 10.115 17.8861 9.99333 17.5582 9.99333C16.9341 9.99333 16.5163 10.4852 16.3047 11.4689L15.4955 15.2928C15.4427 15.5361 15.4162 15.7635 15.4162 15.9751C15.4162 16.5145 15.6383 16.7843 16.0826 16.7843C16.5269 16.7843 16.8971 16.6097 17.1933 16.2607C17.5 15.9116 17.7063 15.4779 17.8121 14.9596L18.4626 11.8339Z" fill="#888888"/>
</svg>
