<svg width="24" height="24" viewBox="0 0 24 24" fill="none" xmlns="http://www.w3.org/2000/svg">
<path d="M10.5152 13.822V10.448C10.5152 9.748 10.3285 9.11333 9.95517 8.544C9.59117 7.97467 9.11051 7.69 8.51317 7.69C8.24251 7.69 8.01384 7.77867 7.82717 7.956C7.64984 8.13333 7.52384 8.36667 7.44917 8.656C7.31851 9.104 7.25317 9.566 7.25317 10.042V14.242C7.25317 15.0633 7.37451 15.67 7.61717 16.062C7.86917 16.454 8.19584 16.65 8.59717 16.65C9.18517 16.65 9.65184 16.37 9.99717 15.81C10.3425 15.25 10.5152 14.5873 10.5152 13.822ZM12.7552 17H10.5292V15.46C10.3145 16.02 10.0065 16.44 9.60517 16.72C9.20384 17 8.78384 17.14 8.34517 17.14C7.33717 17.14 6.53451 16.8273 5.93717 16.202C5.33984 15.5673 5.04117 14.6807 5.04117 13.542V10.756C5.04117 9.608 5.37251 8.73067 6.03517 8.124C6.69784 7.508 7.47717 7.2 8.37317 7.2C8.89584 7.2 9.34851 7.37267 9.73117 7.718C10.1138 8.054 10.3798 8.46467 10.5292 8.95V7.34H12.7552V17ZM19.9605 10.42V16.02C19.9605 17.056 19.6711 17.868 19.0925 18.456C18.5231 19.044 17.7671 19.338 16.8245 19.338C16.4511 19.338 16.1198 19.254 15.8305 19.086C15.5411 18.9273 15.3451 18.7687 15.2425 18.61L15.0745 18.372L15.3545 18.148C15.3825 18.204 15.4431 18.2787 15.5365 18.372C15.6298 18.4747 15.7185 18.5587 15.8025 18.624C16.0451 18.7827 16.3205 18.862 16.6285 18.862C16.9458 18.862 17.2025 18.8013 17.3985 18.68C17.5945 18.568 17.7438 18.3907 17.8465 18.148C18.0051 17.7467 18.0845 17.1587 18.0845 16.384V16.104C18.0098 16.356 17.8511 16.594 17.6085 16.818C17.3658 17.0327 17.0578 17.14 16.6845 17.14C15.9565 17.14 15.3965 16.944 15.0045 16.552C14.6218 16.1507 14.4305 15.6047 14.4305 14.914V12.492C14.4305 11.82 14.6358 11.2833 15.0465 10.882C15.4665 10.4807 16.0125 10.28 16.6845 10.28C17.0485 10.28 17.3518 10.378 17.5945 10.574C17.8465 10.77 18.0005 10.98 18.0565 11.204V10.42H19.9605ZM18.0565 12.324C18.0565 11.932 17.9538 11.5633 17.7485 11.218C17.5431 10.8727 17.3051 10.7 17.0345 10.7C16.7731 10.7 16.5911 10.812 16.4885 11.036C16.3951 11.26 16.3485 11.5867 16.3485 12.016V15.39C16.3485 15.8473 16.3998 16.1787 16.5025 16.384C16.6051 16.5893 16.7871 16.692 17.0485 16.692C17.3098 16.692 17.5431 16.5287 17.7485 16.202C17.9538 15.8753 18.0565 15.502 18.0565 15.082V12.324Z" fill="#888888"/>
</svg>
