<svg width="24" height="24" viewBox="0 0 24 24" fill="none" xmlns="http://www.w3.org/2000/svg">
<path d="M11.6556 17.042C11.5623 16.594 11.455 16.1087 11.3336 15.586C11.2216 15.054 11.1003 14.4987 10.9696 13.92C10.839 13.332 10.7036 12.73 10.5636 12.114C10.4796 11.7407 10.391 11.3627 10.2976 10.98C10.2136 10.588 10.125 10.196 10.0316 9.804C9.93829 9.412 9.84496 9.02 9.75163 8.628C9.66763 8.236 9.57896 7.844 9.48563 7.452L9.03763 7.144L9.94763 7.116C10.0223 7.47067 10.1016 7.844 10.1856 8.236C10.2696 8.628 10.3583 9.034 10.4516 9.454C10.545 9.86467 10.6383 10.2847 10.7316 10.714C10.825 11.134 10.9183 11.554 11.0116 11.974C11.1516 12.59 11.287 13.2013 11.4176 13.808C11.5576 14.4053 11.6883 14.9747 11.8096 15.516C11.9403 16.0573 12.057 16.552 12.1596 17L11.6556 17.042ZM7.69363 14.48V13.976L11.2776 14.032V14.424L7.69363 14.48ZM7.41363 16.916L6.89563 16.902C6.98896 16.4913 7.09629 16.0247 7.21763 15.502C7.33896 14.97 7.46496 14.4053 7.59563 13.808C7.73563 13.2107 7.87096 12.604 8.00163 11.988C8.14163 11.372 8.27229 10.77 8.39363 10.182C8.52429 9.58467 8.64563 9.02933 8.75763 8.516C8.86963 7.99333 8.96296 7.536 9.03763 7.144L9.94763 7.116L9.49963 7.368C9.39696 7.85333 9.28963 8.362 9.17763 8.894C9.06563 9.41667 8.94896 9.94867 8.82763 10.49C8.70629 11.0313 8.58496 11.5773 8.46363 12.128C8.34229 12.6973 8.21629 13.262 8.08563 13.822C7.96429 14.382 7.84763 14.9233 7.73563 15.446C7.62363 15.9593 7.51629 16.4493 7.41363 16.916ZM15.6151 19.324C15.2138 19.324 14.8964 19.2587 14.6631 19.128C14.4298 19.0067 14.2618 18.848 14.1591 18.652C14.0658 18.456 14.0191 18.246 14.0191 18.022C14.0191 17.966 14.0191 17.91 14.0191 17.854C14.0284 17.8073 14.0378 17.756 14.0471 17.7L14.4671 17.616C14.4578 17.6627 14.4484 17.7093 14.4391 17.756C14.4391 17.812 14.4391 17.8633 14.4391 17.91C14.4391 18.0967 14.4671 18.2693 14.5231 18.428C14.5884 18.5867 14.7098 18.7127 14.8871 18.806C15.0738 18.8993 15.3398 18.946 15.6851 18.946C16.1051 18.946 16.4224 18.848 16.6371 18.652C16.8518 18.4653 16.9964 18.2087 17.0711 17.882C17.1458 17.5647 17.1831 17.21 17.1831 16.818C17.1831 16.5847 17.1831 16.3093 17.1831 15.992C17.1924 15.6747 17.1971 15.2873 17.1971 14.83C17.1971 14.3633 17.1971 13.7987 17.1971 13.136C17.1971 12.772 17.2018 12.422 17.2111 12.086C17.2298 11.7407 17.2484 11.4187 17.2671 11.12C17.2858 10.8213 17.3044 10.56 17.3231 10.336C17.3418 10.1027 17.3604 9.916 17.3791 9.776H17.7991C17.7898 9.916 17.7758 10.098 17.7571 10.322C17.7384 10.546 17.7198 10.8073 17.7011 11.106C17.6824 11.3953 17.6684 11.7127 17.6591 12.058C17.6498 12.394 17.6451 12.7487 17.6451 13.122C17.6451 13.654 17.6404 14.1067 17.6311 14.48C17.6311 14.844 17.6311 15.1613 17.6311 15.432C17.6404 15.7027 17.6404 15.95 17.6311 16.174C17.6311 16.3887 17.6311 16.6127 17.6311 16.846C17.6311 17.154 17.6031 17.4573 17.5471 17.756C17.4911 18.0547 17.3884 18.3207 17.2391 18.554C17.0991 18.7873 16.8938 18.974 16.6231 19.114C16.3618 19.254 16.0258 19.324 15.6151 19.324ZM15.5031 17.126C15.0458 17.126 14.6958 16.972 14.4531 16.664C14.2198 16.3467 14.0518 15.9547 13.9491 15.488C13.8744 15.1613 13.8231 14.8113 13.7951 14.438C13.7764 14.0647 13.7671 13.696 13.7671 13.332C13.7671 13.052 13.7764 12.7813 13.7951 12.52C13.8138 12.2587 13.8418 12.0067 13.8791 11.764C13.9258 11.512 13.9818 11.2787 14.0471 11.064C14.1871 10.644 14.3924 10.308 14.6631 10.056C14.9338 9.79467 15.2931 9.664 15.7411 9.664C16.1424 9.664 16.4831 9.79 16.7631 10.042C17.0431 10.2847 17.2531 10.686 17.3931 11.246C17.5424 11.806 17.6171 12.5573 17.6171 13.5L17.1971 12.912C17.1971 12.296 17.1458 11.778 17.0431 11.358C16.9404 10.9287 16.7771 10.6067 16.5531 10.392C16.3384 10.168 16.0538 10.056 15.6991 10.056C15.3631 10.056 15.0971 10.1727 14.9011 10.406C14.7051 10.6393 14.5558 10.938 14.4531 11.302C14.3598 11.6193 14.2944 11.9647 14.2571 12.338C14.2291 12.702 14.2151 13.0613 14.2151 13.416C14.2151 13.6307 14.2151 13.8453 14.2151 14.06C14.2244 14.2653 14.2384 14.4707 14.2571 14.676C14.2851 14.872 14.3131 15.0633 14.3411 15.25C14.3971 15.5207 14.4718 15.768 14.5651 15.992C14.6678 16.216 14.7984 16.3933 14.9571 16.524C15.1251 16.6453 15.3258 16.706 15.5591 16.706C15.8111 16.706 16.0631 16.6127 16.3151 16.426C16.5671 16.23 16.7771 15.936 16.9451 15.544C17.1131 15.1427 17.1971 14.634 17.1971 14.018L17.6171 13.416C17.6171 13.6773 17.5984 13.9713 17.5611 14.298C17.5331 14.6153 17.4724 14.942 17.3791 15.278C17.2951 15.6047 17.1738 15.908 17.0151 16.188C16.8658 16.468 16.6651 16.6967 16.4131 16.874C16.1611 17.042 15.8578 17.126 15.5031 17.126Z" fill="#888888"/>
</svg>
