<svg width="24" height="24" viewBox="0 0 24 24" fill="none" xmlns="http://www.w3.org/2000/svg">
<path d="M11.5436 17.056C11.4503 16.5893 11.343 16.09 11.2216 15.558C11.1096 15.026 10.993 14.4753 10.8716 13.906C10.7503 13.3273 10.6196 12.7393 10.4796 12.142C10.3956 11.778 10.3116 11.4093 10.2276 11.036C10.1436 10.6533 10.0596 10.2753 9.97563 9.902C9.89163 9.51933 9.80763 9.14133 9.72363 8.768C9.64896 8.38533 9.56963 8.00733 9.48563 7.634L8.95363 7.158L10.0596 7.13C10.125 7.45667 10.195 7.81133 10.2696 8.194C10.3536 8.57667 10.4376 8.978 10.5216 9.398C10.615 9.818 10.7083 10.2473 10.8016 10.686C10.895 11.1153 10.9883 11.5493 11.0816 11.988C11.2216 12.604 11.357 13.2153 11.4876 13.822C11.6276 14.4193 11.7583 14.9887 11.8796 15.53C12.0103 16.0713 12.127 16.5613 12.2296 17L11.5436 17.056ZM7.69363 14.564V13.906L11.2776 13.976V14.494L7.69363 14.564ZM7.49763 16.916L6.82563 16.902C6.92829 16.4913 7.03563 16.0247 7.14763 15.502C7.26896 14.97 7.39496 14.4053 7.52563 13.808C7.66563 13.2107 7.80096 12.604 7.93163 11.988C8.07163 11.372 8.20229 10.77 8.32362 10.182C8.45429 9.58467 8.57096 9.02933 8.67363 8.516C8.78563 7.99333 8.87896 7.54067 8.95363 7.158L10.0596 7.13L9.51363 7.606C9.42029 8.07267 9.31763 8.558 9.20563 9.062C9.10296 9.55667 8.99096 10.0607 8.86963 10.574C8.75763 11.0873 8.64563 11.6053 8.53363 12.128C8.42163 12.688 8.30029 13.248 8.16963 13.808C8.04829 14.368 7.93163 14.9093 7.81963 15.432C7.71696 15.9453 7.60963 16.44 7.49763 16.916ZM15.6011 19.324C15.2184 19.324 14.9058 19.2633 14.6631 19.142C14.4298 19.0207 14.2571 18.862 14.1451 18.666C14.0331 18.4793 13.9771 18.2693 13.9771 18.036C13.9771 17.98 13.9771 17.9287 13.9771 17.882C13.9864 17.8353 13.9958 17.7887 14.0051 17.742L14.5371 17.644C14.5278 17.6813 14.5184 17.7187 14.5091 17.756C14.5091 17.8027 14.5091 17.8493 14.5091 17.896C14.5091 18.064 14.5418 18.218 14.6071 18.358C14.6818 18.498 14.8031 18.6053 14.9711 18.68C15.1484 18.764 15.3818 18.806 15.6711 18.806C16.0258 18.806 16.3011 18.7313 16.4971 18.582C16.7024 18.4327 16.8518 18.2133 16.9451 17.924C17.0384 17.6347 17.0851 17.2893 17.0851 16.888C17.0851 16.6547 17.0851 16.37 17.0851 16.034C17.0944 15.698 17.0991 15.292 17.0991 14.816C17.0991 14.34 17.0991 13.78 17.0991 13.136C17.0991 12.7907 17.0991 12.4593 17.0991 12.142C17.1084 11.8247 17.1224 11.5213 17.1411 11.232C17.1598 10.9427 17.1784 10.6767 17.1971 10.434C17.2158 10.1913 17.2344 9.972 17.2531 9.776H17.8411C17.8318 9.93467 17.8178 10.1353 17.7991 10.378C17.7804 10.6113 17.7618 10.8773 17.7431 11.176C17.7244 11.4747 17.7104 11.7873 17.7011 12.114C17.6918 12.4407 17.6871 12.7767 17.6871 13.122C17.6871 13.654 17.6824 14.1113 17.6731 14.494C17.6731 14.8673 17.6731 15.194 17.6731 15.474C17.6824 15.754 17.6871 16.0013 17.6871 16.216C17.6871 16.4307 17.6871 16.636 17.6871 16.832C17.6871 17.1867 17.6498 17.518 17.5751 17.826C17.5004 18.134 17.3838 18.3953 17.2251 18.61C17.0664 18.834 16.8518 19.0067 16.5811 19.128C16.3104 19.2587 15.9838 19.324 15.6011 19.324ZM15.4891 17.126C15.0411 17.126 14.6958 16.9767 14.4531 16.678C14.2104 16.37 14.0331 15.9873 13.9211 15.53C13.8464 15.194 13.7904 14.8393 13.7531 14.466C13.7251 14.0833 13.7111 13.7053 13.7111 13.332C13.7111 13.0613 13.7204 12.8 13.7391 12.548C13.7578 12.2867 13.7904 12.0347 13.8371 11.792C13.8838 11.5493 13.9398 11.3207 14.0051 11.106C14.1451 10.6767 14.3504 10.3313 14.6211 10.07C14.8918 9.79933 15.2558 9.664 15.7131 9.664C16.1144 9.664 16.4504 9.78533 16.7211 10.028C16.9918 10.2707 17.1924 10.6767 17.3231 11.246C17.4631 11.806 17.5331 12.5573 17.5331 13.5L17.0991 12.912C17.0991 12.3427 17.0478 11.8573 16.9451 11.456C16.8518 11.0453 16.7024 10.7327 16.4971 10.518C16.3011 10.294 16.0444 10.182 15.7271 10.182C15.4098 10.182 15.1578 10.2893 14.9711 10.504C14.7938 10.7187 14.6538 10.994 14.5511 11.33C14.4578 11.6287 14.3924 11.96 14.3551 12.324C14.3271 12.688 14.3131 13.0427 14.3131 13.388C14.3131 13.5933 14.3178 13.8033 14.3271 14.018C14.3364 14.2327 14.3504 14.4427 14.3691 14.648C14.3878 14.8533 14.4158 15.054 14.4531 15.25C14.4998 15.4927 14.5698 15.7167 14.6631 15.922C14.7564 16.1273 14.8778 16.2907 15.0271 16.412C15.1764 16.524 15.3584 16.58 15.5731 16.58C15.8158 16.58 16.0538 16.4867 16.2871 16.3C16.5204 16.104 16.7118 15.8147 16.8611 15.432C17.0198 15.0493 17.0991 14.578 17.0991 14.018L17.5331 13.444C17.5331 13.6867 17.5191 13.9667 17.4911 14.284C17.4631 14.592 17.4118 14.914 17.3371 15.25C17.2624 15.586 17.1504 15.894 17.0011 16.174C16.8518 16.454 16.6511 16.6827 16.3991 16.86C16.1564 17.0373 15.8531 17.126 15.4891 17.126Z" fill="#888888"/>
</svg>
