<svg width="24" height="24" viewBox="0 0 24 24" fill="none" xmlns="http://www.w3.org/2000/svg">
<path d="M11.9084 16.482C11.9271 16.51 11.9364 16.552 11.9364 16.608C11.9364 16.7293 11.8944 16.8367 11.8104 16.93C11.7357 17.014 11.6377 17.056 11.5164 17.056C11.4231 17.056 11.3391 17.0327 11.2644 16.986C11.1991 16.93 11.1477 16.8647 11.1104 16.79L9.80841 13.36H5.07641L3.71841 16.804C3.68107 16.8787 3.62507 16.9393 3.55041 16.986C3.48507 17.0327 3.40574 17.056 3.31241 17.056C3.20041 17.056 3.10241 17.014 3.01841 16.93C2.94374 16.846 2.90641 16.748 2.90641 16.636C2.90641 16.5707 2.91574 16.524 2.93441 16.496L7.16241 5.926C7.19974 5.83267 7.25107 5.76267 7.31641 5.716C7.38174 5.66 7.44707 5.632 7.51241 5.632C7.66174 5.632 7.77841 5.73467 7.86241 5.94L11.9084 16.482ZM7.42841 7.41L5.39841 12.562H9.51441L7.55441 7.41L7.49841 7.158L7.42841 7.41ZM20.3175 10.014C20.4108 10.0327 20.4902 10.084 20.5555 10.168C20.6208 10.2427 20.6535 10.336 20.6535 10.448C20.6535 10.56 20.6208 10.6533 20.5555 10.728C20.4902 10.7933 20.4015 10.826 20.2895 10.826C20.2335 10.826 20.1868 10.8167 20.1495 10.798C20.1308 10.7887 20.0515 10.784 19.9115 10.784C19.6222 10.7933 19.3702 10.9053 19.1555 11.12C19.4448 11.568 19.5895 12.072 19.5895 12.632C19.5895 13.1453 19.4635 13.612 19.2115 14.032C18.9688 14.452 18.6282 14.788 18.1895 15.04C17.7602 15.292 17.2748 15.4273 16.7335 15.446C16.4815 15.446 16.2575 15.5207 16.0615 15.67C15.8748 15.81 15.7815 15.9593 15.7815 16.118C15.7815 16.2673 15.8702 16.398 16.0475 16.51C16.2342 16.622 16.5048 16.7013 16.8595 16.748C17.5968 16.8413 18.1755 16.958 18.5955 17.098C19.0155 17.2473 19.3188 17.448 19.5055 17.7C19.7015 17.952 19.7995 18.2833 19.7995 18.694C19.7995 19.1607 19.6548 19.5713 19.3655 19.926C19.0855 20.2807 18.6982 20.5513 18.2035 20.738C17.7182 20.934 17.1722 21.032 16.5655 21.032C15.8842 21.032 15.2588 20.8827 14.6895 20.584C14.1202 20.2947 13.6768 19.884 13.3595 19.352C13.3222 19.3053 13.3035 19.2307 13.3035 19.128C13.3035 19.016 13.3408 18.9227 13.4155 18.848C13.4995 18.7733 13.6022 18.736 13.7235 18.736C13.7888 18.736 13.8495 18.7547 13.9055 18.792C13.9708 18.8293 14.0175 18.8713 14.0455 18.918C14.2695 19.2913 14.6148 19.5993 15.0815 19.842C15.5482 20.0847 16.0522 20.206 16.5935 20.206C17.2748 20.206 17.8442 20.0707 18.3015 19.8C18.7682 19.5293 19.0015 19.1653 19.0015 18.708C19.0015 18.456 18.9268 18.2553 18.7775 18.106C18.6375 17.966 18.4182 17.854 18.1195 17.77C17.8302 17.686 17.4102 17.602 16.8595 17.518C16.1782 17.406 15.6742 17.238 15.3475 17.014C15.0302 16.7993 14.8715 16.5193 14.8715 16.174C14.8715 15.7913 15.0815 15.488 15.5015 15.264C14.9135 15.0773 14.4422 14.746 14.0875 14.27C13.7422 13.794 13.5695 13.248 13.5695 12.632C13.5695 12.1 13.7002 11.6147 13.9615 11.176C14.2228 10.7373 14.5822 10.3967 15.0395 10.154C15.5062 9.902 16.0242 9.776 16.5935 9.776C16.9948 9.776 17.3682 9.84133 17.7135 9.972C18.0682 10.1027 18.3808 10.2847 18.6515 10.518C18.8288 10.3407 19.0342 10.2053 19.2675 10.112C19.5008 10.0093 19.7342 9.958 19.9675 9.958C20.0515 9.958 20.1682 9.97667 20.3175 10.014ZM16.5935 14.62C16.9948 14.62 17.3588 14.536 17.6855 14.368C18.0215 14.1907 18.2828 13.9527 18.4695 13.654C18.6562 13.346 18.7495 13.0053 18.7495 12.632C18.7495 12.2587 18.6562 11.918 18.4695 11.61C18.2828 11.2927 18.0215 11.0453 17.6855 10.868C17.3588 10.6907 16.9948 10.602 16.5935 10.602C16.1828 10.602 15.8095 10.6907 15.4735 10.868C15.1375 11.0453 14.8762 11.288 14.6895 11.596C14.5028 11.904 14.4095 12.2493 14.4095 12.632C14.4095 13.0053 14.5028 13.346 14.6895 13.654C14.8762 13.9527 15.1375 14.1907 15.4735 14.368C15.8095 14.536 16.1828 14.62 16.5935 14.62Z" fill="#888888"/>
</svg>
