<svg width="24" height="24" viewBox="0 0 24 24" fill="none" xmlns="http://www.w3.org/2000/svg">
<path d="M12.3841 16.132C12.4214 16.1973 12.4401 16.2673 12.4401 16.342C12.4401 16.5473 12.3701 16.7247 12.2301 16.874C12.0994 17.014 11.9314 17.084 11.7261 17.084C11.5861 17.084 11.4554 17.0467 11.3341 16.972C11.2127 16.888 11.1241 16.7807 11.0681 16.65L9.90607 13.626H5.49607L4.32007 16.664C4.2734 16.7853 4.1894 16.888 4.06807 16.972C3.94674 17.0467 3.8114 17.084 3.66207 17.084C3.46607 17.084 3.29807 17.014 3.15807 16.874C3.0274 16.734 2.96207 16.566 2.96207 16.37C2.96207 16.286 2.98074 16.2113 3.01807 16.146L7.12007 6.066C7.1854 5.91667 7.2694 5.80467 7.37207 5.73C7.48407 5.646 7.59607 5.604 7.70807 5.604C7.83874 5.604 7.96007 5.646 8.07207 5.73C8.1934 5.80467 8.28207 5.92133 8.33807 6.08L12.3841 16.132ZM7.61007 8.124L5.98607 12.324H9.41607L7.80607 8.124L7.72207 7.774L7.61007 8.124ZM21.0343 9.832C21.193 9.86933 21.3237 9.95333 21.4263 10.084C21.5383 10.2053 21.5943 10.35 21.5943 10.518C21.5943 10.6953 21.5383 10.8447 21.4263 10.966C21.3143 11.0873 21.165 11.148 20.9783 11.148C20.913 11.148 20.8383 11.134 20.7543 11.106C20.717 11.0967 20.6283 11.092 20.4883 11.092C20.3203 11.1107 20.1943 11.148 20.1103 11.204C20.353 11.6427 20.4743 12.1233 20.4743 12.646C20.4743 13.206 20.3343 13.71 20.0543 14.158C19.7837 14.606 19.4057 14.9607 18.9203 15.222C18.4443 15.4833 17.9077 15.6187 17.3103 15.628C17.1517 15.628 17.0117 15.6747 16.8903 15.768C16.769 15.852 16.7083 15.95 16.7083 16.062C16.7083 16.174 16.7783 16.272 16.9183 16.356C17.0677 16.44 17.2777 16.5007 17.5483 16.538C18.323 16.6313 18.939 16.762 19.3963 16.93C19.863 17.098 20.199 17.3127 20.4043 17.574C20.619 17.8447 20.7263 18.1853 20.7263 18.596C20.7263 19.072 20.577 19.492 20.2783 19.856C19.9797 20.2293 19.569 20.5187 19.0463 20.724C18.533 20.9293 17.9637 21.032 17.3383 21.032C16.573 21.032 15.8823 20.892 15.2663 20.612C14.6597 20.3413 14.1837 19.9307 13.8383 19.38C13.773 19.268 13.7403 19.142 13.7403 19.002C13.7403 18.806 13.8057 18.6473 13.9363 18.526C14.0763 18.414 14.2443 18.358 14.4403 18.358C14.6643 18.358 14.837 18.4467 14.9583 18.624C15.1637 18.9227 15.4997 19.1747 15.9663 19.38C16.433 19.5853 16.909 19.688 17.3943 19.688C17.973 19.688 18.4583 19.5947 18.8503 19.408C19.2423 19.2307 19.4383 18.9787 19.4383 18.652C19.4383 18.3813 19.2983 18.1853 19.0183 18.064C18.7477 17.9427 18.2623 17.8307 17.5623 17.728C16.7223 17.588 16.125 17.406 15.7703 17.182C15.425 16.958 15.2523 16.6407 15.2523 16.23C15.2523 15.866 15.467 15.5813 15.8963 15.376C15.3177 15.1427 14.8557 14.7833 14.5103 14.298C14.1743 13.8127 14.0063 13.262 14.0063 12.646C14.0063 12.0767 14.1463 11.5633 14.4263 11.106C14.7157 10.6487 15.1077 10.2893 15.6023 10.028C16.097 9.75733 16.6477 9.622 17.2543 9.622C18.029 9.622 18.7057 9.83667 19.2843 10.266C19.6857 9.93933 20.1383 9.776 20.6423 9.776C20.7357 9.776 20.8663 9.79467 21.0343 9.832ZM17.2543 14.27C17.777 14.27 18.211 14.116 18.5563 13.808C18.9017 13.4907 19.0743 13.1033 19.0743 12.646C19.0743 12.1793 18.9017 11.7873 18.5563 11.47C18.211 11.1433 17.777 10.98 17.2543 10.98C16.7223 10.98 16.279 11.1433 15.9243 11.47C15.579 11.7873 15.4063 12.1793 15.4063 12.646C15.4063 13.1033 15.579 13.4907 15.9243 13.808C16.279 14.116 16.7223 14.27 17.2543 14.27Z" fill="#888888"/>
</svg>
