<svg width="24" height="24" viewBox="0 0 24 24" fill="none" xmlns="http://www.w3.org/2000/svg">
<path d="M11.8753 15.95C11.922 16.062 11.9453 16.1507 11.9453 16.216C11.9453 16.4587 11.8613 16.6687 11.6933 16.846C11.5347 17.014 11.334 17.098 11.0913 17.098C10.9233 17.098 10.7647 17.0513 10.6153 16.958C10.4753 16.8647 10.3727 16.7387 10.3073 16.58L9.21532 13.752H4.94532L3.86732 16.594C3.81132 16.7433 3.70865 16.8647 3.55932 16.958C3.41932 17.0513 3.26065 17.098 3.08332 17.098C2.84065 17.098 2.63999 17.014 2.48132 16.846C2.32265 16.678 2.24332 16.4773 2.24332 16.244C2.24332 16.1693 2.26665 16.076 2.31332 15.964L6.35932 6.136C6.43399 5.95867 6.53199 5.82333 6.65332 5.73C6.78399 5.63667 6.91932 5.59 7.05932 5.59C7.21799 5.59 7.36732 5.63667 7.50732 5.73C7.64732 5.82333 7.75465 5.96333 7.82932 6.15L11.8753 15.95ZM6.96132 8.488L5.54732 12.198H8.61332L7.18532 8.488L7.07332 8.096L6.96132 8.488ZM20.66 9.734C20.856 9.78067 21.0147 9.88333 21.136 10.042C21.2573 10.1913 21.318 10.364 21.318 10.56C21.318 10.7747 21.2527 10.952 21.122 11.092C21.0007 11.232 20.8233 11.302 20.59 11.302C20.5153 11.302 20.422 11.288 20.31 11.26C20.2727 11.2507 20.184 11.246 20.044 11.246C19.988 11.246 19.9227 11.2553 19.848 11.274C20.0627 11.7033 20.17 12.1653 20.17 12.66C20.17 13.2293 20.0253 13.7473 19.736 14.214C19.4467 14.6807 19.05 15.0493 18.546 15.32C18.0513 15.5907 17.4913 15.726 16.866 15.726C16.7447 15.726 16.642 15.7587 16.558 15.824C16.474 15.88 16.432 15.95 16.432 16.034C16.432 16.1273 16.4973 16.2113 16.628 16.286C16.7587 16.3607 16.936 16.412 17.16 16.44C18.3453 16.58 19.19 16.8133 19.694 17.14C20.198 17.4667 20.45 17.938 20.45 18.554C20.45 19.03 20.296 19.4547 19.988 19.828C19.68 20.2107 19.26 20.5047 18.728 20.71C18.2053 20.9247 17.622 21.032 16.978 21.032C16.1753 21.032 15.4567 20.8967 14.822 20.626C14.1967 20.3647 13.702 19.954 13.338 19.394C13.254 19.2447 13.212 19.0907 13.212 18.932C13.212 18.708 13.2913 18.526 13.45 18.386C13.618 18.246 13.8187 18.176 14.052 18.176C14.3133 18.176 14.5233 18.274 14.682 18.47C14.8687 18.7407 15.1953 18.9647 15.662 19.142C16.138 19.3287 16.6047 19.422 17.062 19.422C17.594 19.422 18.0373 19.352 18.392 19.212C18.7467 19.072 18.924 18.876 18.924 18.624C18.924 18.4 18.798 18.2367 18.546 18.134C18.294 18.0407 17.8367 17.938 17.174 17.826C16.5487 17.7233 16.0587 17.6067 15.704 17.476C15.3493 17.3547 15.0927 17.196 14.934 17C14.7753 16.804 14.696 16.5567 14.696 16.258C14.696 15.8847 14.906 15.6047 15.326 15.418C14.766 15.166 14.318 14.7973 13.982 14.312C13.6553 13.8173 13.492 13.2667 13.492 12.66C13.492 12.072 13.6367 11.5447 13.926 11.078C14.2247 10.602 14.626 10.2287 15.13 9.958C15.6433 9.68733 16.2127 9.552 16.838 9.552C17.6033 9.552 18.2753 9.75267 18.854 10.154C19.2553 9.83667 19.7173 9.678 20.24 9.678C20.3333 9.678 20.4733 9.69667 20.66 9.734ZM16.838 14.102C17.314 14.102 17.706 13.962 18.014 13.682C18.3313 13.402 18.49 13.0613 18.49 12.66C18.49 12.24 18.3313 11.8853 18.014 11.596C17.706 11.3067 17.314 11.162 16.838 11.162C16.3713 11.162 15.9747 11.3113 15.648 11.61C15.3307 11.8993 15.172 12.2493 15.172 12.66C15.172 13.0613 15.3307 13.402 15.648 13.682C15.9653 13.962 16.362 14.102 16.838 14.102Z" fill="#888888"/>
</svg>
