<svg width="24" height="24" viewBox="0 0 24 24" fill="none" xmlns="http://www.w3.org/2000/svg">
<path d="M2.80611 17.112C2.35811 17.112 1.99878 16.972 1.72811 16.692C1.45744 16.412 1.32211 16.0153 1.32211 15.502C1.32211 15.362 1.33611 15.2267 1.36411 15.096C1.37344 15.0213 1.38744 14.9513 1.40611 14.886H2.45611C2.44678 14.9327 2.43744 14.9793 2.42811 15.026C2.41878 15.0727 2.40944 15.124 2.40011 15.18C2.40011 15.2267 2.40011 15.2827 2.40011 15.348C2.40011 15.5627 2.44678 15.7307 2.54011 15.852C2.63344 15.9733 2.76878 16.034 2.94611 16.034C3.30078 16.034 3.67878 15.824 4.08011 15.404C4.48144 14.9747 4.93411 14.3353 5.43811 13.486H4.17811L4.59811 12.408H6.05411L6.44611 11.694C6.78211 11.078 7.10878 10.4947 7.42611 9.944C7.75278 9.39333 8.09344 8.908 8.44811 8.488C8.81211 8.068 9.20411 7.73667 9.62411 7.494C10.0441 7.242 10.5201 7.116 11.0521 7.116C11.4814 7.116 11.8408 7.17667 12.1301 7.298C12.4288 7.41 12.6201 7.50333 12.7041 7.578C12.2374 8.726 11.7801 9.86933 11.3321 11.008C10.8841 12.1373 10.4268 13.2713 9.96011 14.41C9.88544 14.5873 9.83411 14.746 9.80611 14.886C9.78744 15.0167 9.77811 15.138 9.77811 15.25C9.77811 15.502 9.84811 15.698 9.98811 15.838C10.1281 15.9687 10.3241 16.034 10.5761 16.034C10.7908 16.034 11.0288 15.9687 11.2901 15.838C11.5514 15.698 11.8268 15.5067 12.1161 15.264C12.4054 15.012 12.7041 14.7133 13.0121 14.368C13.3201 14.0133 13.6328 13.6213 13.9501 13.192L14.7061 13.906C14.3608 14.3633 14.0108 14.788 13.6561 15.18C13.3108 15.572 12.9561 15.9127 12.5921 16.202C12.2281 16.482 11.8501 16.706 11.4581 16.874C11.0754 17.0327 10.6788 17.112 10.2681 17.112C9.80144 17.112 9.42811 16.972 9.14811 16.692C8.86811 16.4027 8.72811 15.9827 8.72811 15.432C8.72811 15.124 8.77011 14.8067 8.85411 14.48C8.94744 14.1533 9.05478 13.822 9.17611 13.486H6.68411C6.30144 14.186 5.94211 14.7693 5.60611 15.236C5.27011 15.7027 4.94811 16.076 4.64011 16.356C4.33211 16.6267 4.02878 16.8227 3.73011 16.944C3.43144 17.056 3.12344 17.112 2.80611 17.112ZM7.41211 12.408H9.58211L11.2341 8.306C11.1688 8.278 11.0848 8.25467 10.9821 8.236C10.8888 8.208 10.7768 8.194 10.6461 8.194C10.4128 8.194 10.1748 8.28267 9.93211 8.46C9.69878 8.628 9.46078 8.87067 9.21811 9.188C8.98478 9.496 8.74211 9.86933 8.49011 10.308C8.23811 10.7467 7.98144 11.2367 7.72011 11.778L7.41211 12.408ZM14.2858 17.112C13.8751 17.112 13.5391 16.9907 13.2778 16.748C13.0258 16.5053 12.8998 16.1647 12.8998 15.726C12.8998 15.39 12.9698 15.0353 13.1098 14.662C13.2591 14.2793 13.4551 13.906 13.6978 13.542C13.9404 13.1687 14.2204 12.814 14.5378 12.478C14.8644 12.142 15.2004 11.848 15.5458 11.596C15.9004 11.344 16.2598 11.1433 16.6238 10.994C16.9878 10.8447 17.3331 10.77 17.6598 10.77C18.0144 10.77 18.3131 10.854 18.5558 11.022C18.8078 11.19 19.0178 11.3953 19.1858 11.638L18.2198 12.156C18.1451 12.0627 18.0518 11.988 17.9398 11.932C17.8371 11.8667 17.6971 11.834 17.5198 11.834C17.3144 11.834 17.0858 11.8993 16.8338 12.03C16.5818 12.1513 16.3251 12.3193 16.0638 12.534C15.8118 12.7393 15.5644 12.9773 15.3218 13.248C15.0791 13.5093 14.8598 13.7753 14.6638 14.046C14.4771 14.3167 14.3278 14.5827 14.2158 14.844C14.1038 15.096 14.0478 15.3153 14.0478 15.502C14.0478 15.6607 14.0851 15.7913 14.1598 15.894C14.2344 15.9873 14.3558 16.034 14.5238 16.034C14.7291 16.034 14.9811 15.9313 15.2798 15.726C15.5784 15.5207 15.8911 15.25 16.2178 14.914C16.5444 14.578 16.8664 14.2 17.1838 13.78C17.5011 13.3507 17.7858 12.912 18.0378 12.464L19.0318 12.926L17.5478 16.636C17.9211 16.4867 18.3084 16.3093 18.7098 16.104C19.1204 15.8893 19.5218 15.642 19.9138 15.362C20.3058 15.0727 20.6884 14.7507 21.0618 14.396C21.4351 14.032 21.7851 13.6307 22.1118 13.192L22.8678 13.906C22.4758 14.4287 22.0604 14.8953 21.6218 15.306C21.1831 15.7167 20.7211 16.0807 20.2358 16.398C19.7598 16.7153 19.2558 16.9953 18.7238 17.238C18.2011 17.4807 17.6458 17.7 17.0578 17.896C16.6004 18.9973 16.0824 19.8093 15.5038 20.332C14.9251 20.8547 14.2998 21.116 13.6278 21.116C13.2078 21.116 12.8858 21.0087 12.6618 20.794C12.4378 20.5887 12.3258 20.304 12.3258 19.94C12.3258 19.52 12.4331 19.1747 12.6478 18.904C12.8624 18.6427 13.1471 18.414 13.5018 18.218C13.8564 18.022 14.2671 17.8447 14.7338 17.686C15.2004 17.5273 15.6858 17.3453 16.1898 17.14L16.7918 15.614C16.3718 16.1087 15.9518 16.482 15.5318 16.734C15.1211 16.986 14.7058 17.112 14.2858 17.112ZM13.8938 20.15C14.1738 20.15 14.4724 19.996 14.7898 19.688C15.1164 19.38 15.4291 18.89 15.7278 18.218C15.5038 18.3207 15.2611 18.414 14.9998 18.498C14.7478 18.5913 14.5098 18.6893 14.2858 18.792C13.9591 18.9507 13.7351 19.1047 13.6138 19.254C13.5018 19.4127 13.4458 19.5853 13.4458 19.772C13.4458 19.884 13.4878 19.9727 13.5718 20.038C13.6558 20.1127 13.7631 20.15 13.8938 20.15Z" fill="#888888"/>
</svg>
