<svg width="24" height="24" viewBox="0 0 24 24" fill="none" xmlns="http://www.w3.org/2000/svg">
<path d="M3.56803 17.06C3.21803 17.06 2.94303 16.94 2.74303 16.7C2.53303 16.45 2.42803 16.115 2.42803 15.695C2.42803 15.645 2.42803 15.59 2.42803 15.53C2.42803 15.47 2.43303 15.41 2.44303 15.35C2.45303 15.28 2.46303 15.21 2.47303 15.14H2.95303C2.93303 15.19 2.91803 15.245 2.90803 15.305C2.89803 15.355 2.89303 15.415 2.89303 15.485C2.88303 15.545 2.87803 15.61 2.87803 15.68C2.87803 16.29 3.10803 16.595 3.56803 16.595C4.09803 16.595 4.64303 16.27 5.20303 15.62C5.76303 14.97 6.36803 14.075 7.01803 12.935H5.54803L5.72803 12.485H7.28803C7.40803 12.275 7.52803 12.055 7.64803 11.825C7.76803 11.595 7.89803 11.36 8.03803 11.12C8.43803 10.36 8.84803 9.64 9.26803 8.96C9.69803 8.27 10.113 7.705 10.513 7.265C10.783 6.975 11.068 6.765 11.368 6.635C11.668 6.505 11.928 6.44 12.148 6.44C12.478 6.44 12.773 6.5 13.033 6.62C13.293 6.73 13.493 6.84 13.633 6.95L10.588 14.525C10.488 14.775 10.418 14.995 10.378 15.185C10.338 15.375 10.318 15.545 10.318 15.695C10.318 16.295 10.613 16.595 11.203 16.595C11.483 16.595 11.783 16.505 12.103 16.325C12.423 16.135 12.753 15.88 13.093 15.56C13.433 15.24 13.778 14.875 14.128 14.465C14.478 14.045 14.823 13.6 15.163 13.13L15.508 13.46C15.138 13.95 14.768 14.415 14.398 14.855C14.038 15.285 13.678 15.665 13.318 15.995C12.958 16.325 12.593 16.585 12.223 16.775C11.853 16.965 11.483 17.06 11.113 17.06C10.783 17.06 10.488 16.95 10.228 16.73C9.97803 16.5 9.85303 16.15 9.85303 15.68C9.85303 15.46 9.88303 15.24 9.94303 15.02C10.003 14.79 10.078 14.56 10.168 14.33L10.723 12.935H7.55803C7.11803 13.705 6.71803 14.355 6.35803 14.885C5.99803 15.415 5.65803 15.84 5.33803 16.16C5.02803 16.48 4.72803 16.71 4.43803 16.85C4.15803 16.99 3.86803 17.06 3.56803 17.06ZM8.44303 11.33C8.33303 11.54 8.22803 11.74 8.12803 11.93C8.02803 12.12 7.92303 12.305 7.81303 12.485H10.903L13.048 7.13C12.998 7.09 12.898 7.045 12.748 6.995C12.608 6.935 12.408 6.905 12.148 6.905C11.738 6.905 11.298 7.14 10.828 7.61C10.678 7.76 10.498 7.98 10.288 8.27C10.088 8.55 9.87803 8.865 9.65803 9.215C9.44803 9.555 9.23303 9.91 9.01303 10.28C8.80303 10.65 8.61303 11 8.44303 11.33ZM15.0424 17.06C14.7024 17.06 14.4374 16.955 14.2474 16.745C14.0574 16.525 13.9624 16.235 13.9624 15.875C13.9624 15.565 14.0374 15.215 14.1874 14.825C14.3474 14.425 14.5574 14.02 14.8174 13.61C15.0774 13.2 15.3774 12.805 15.7174 12.425C16.0574 12.035 16.4074 11.69 16.7674 11.39C17.1274 11.09 17.4874 10.85 17.8474 10.67C18.2174 10.48 18.5624 10.385 18.8824 10.385C19.1724 10.385 19.4124 10.445 19.6024 10.565C19.8024 10.685 19.9574 10.83 20.0674 11L19.6624 11.24C19.5924 11.12 19.4924 11.025 19.3624 10.955C19.2424 10.875 19.0824 10.835 18.8824 10.835C18.6124 10.835 18.3124 10.925 17.9824 11.105C17.6624 11.275 17.3374 11.505 17.0074 11.795C16.6774 12.075 16.3574 12.395 16.0474 12.755C15.7374 13.115 15.4624 13.485 15.2224 13.865C14.9824 14.235 14.7874 14.6 14.6374 14.96C14.4974 15.31 14.4274 15.615 14.4274 15.875C14.4274 16.095 14.4724 16.27 14.5624 16.4C14.6524 16.53 14.8124 16.595 15.0424 16.595C15.3124 16.595 15.6424 16.45 16.0324 16.16C16.4224 15.86 16.8274 15.48 17.2474 15.02C17.6774 14.55 18.0974 14.03 18.5074 13.46C18.9274 12.88 19.2974 12.31 19.6174 11.75L20.0374 11.945L18.0274 16.955C18.4574 16.805 18.9074 16.615 19.3774 16.385C19.8474 16.155 20.3124 15.885 20.7724 15.575C21.2324 15.255 21.6774 14.895 22.1074 14.495C22.5474 14.085 22.9474 13.63 23.3074 13.13L23.6524 13.46C22.8224 14.55 21.9074 15.41 20.9074 16.04C19.9174 16.67 18.8824 17.17 17.8024 17.54C17.2624 18.85 16.7024 19.815 16.1224 20.435C15.5424 21.065 14.9224 21.38 14.2624 21.38C13.9124 21.38 13.6374 21.28 13.4374 21.08C13.2374 20.88 13.1374 20.615 13.1374 20.285C13.1374 19.925 13.2324 19.61 13.4224 19.34C13.6124 19.07 13.8674 18.835 14.1874 18.635C14.4074 18.495 14.6524 18.365 14.9224 18.245C15.1924 18.125 15.4674 18.01 15.7474 17.9C16.0374 17.79 16.3274 17.675 16.6174 17.555C16.9174 17.435 17.2024 17.305 17.4724 17.165L18.7774 13.865C18.4774 14.275 18.1624 14.675 17.8324 15.065C17.5024 15.445 17.1724 15.785 16.8424 16.085C16.5224 16.375 16.2074 16.61 15.8974 16.79C15.5874 16.97 15.3024 17.06 15.0424 17.06ZM14.2624 20.93C14.7124 20.93 15.1974 20.675 15.7174 20.165C16.2374 19.665 16.7374 18.865 17.2174 17.765C16.9974 17.875 16.7624 17.98 16.5124 18.08C16.2724 18.18 16.0274 18.28 15.7774 18.38C15.5374 18.48 15.3024 18.58 15.0724 18.68C14.8424 18.78 14.6324 18.89 14.4424 19.01C14.1824 19.17 13.9724 19.35 13.8124 19.55C13.6624 19.76 13.5874 20.005 13.5874 20.285C13.5874 20.475 13.6424 20.63 13.7524 20.75C13.8624 20.87 14.0324 20.93 14.2624 20.93Z" fill="#888888"/>
</svg>
