<svg width="24" height="24" viewBox="0 0 24 24" fill="none" xmlns="http://www.w3.org/2000/svg">
<path d="M2.80611 15.112C2.35811 15.112 1.99878 14.972 1.72811 14.692C1.45744 14.412 1.32211 14.0153 1.32211 13.502C1.32211 13.362 1.33611 13.2267 1.36411 13.096C1.37344 13.0213 1.38744 12.9513 1.40611 12.886H2.45611C2.44678 12.9327 2.43744 12.9793 2.42811 13.026C2.41878 13.0727 2.40944 13.124 2.40011 13.18C2.40011 13.2267 2.40011 13.2827 2.40011 13.348C2.40011 13.5627 2.44678 13.7307 2.54011 13.852C2.63344 13.9733 2.76878 14.034 2.94611 14.034C3.30078 14.034 3.67878 13.824 4.08011 13.404C4.48144 12.9747 4.93411 12.3353 5.43811 11.486H4.17811L4.59811 10.408H6.05411L6.44611 9.694C6.78211 9.078 7.10878 8.49467 7.42611 7.944C7.75278 7.39333 8.09344 6.908 8.44811 6.488C8.81211 6.068 9.20411 5.73667 9.62411 5.494C10.0441 5.242 10.5201 5.116 11.0521 5.116C11.4814 5.116 11.8408 5.17667 12.1301 5.298C12.4288 5.41 12.6201 5.50333 12.7041 5.578C12.2374 6.726 11.7801 7.86933 11.3321 9.008C10.8841 10.1373 10.4268 11.2713 9.96011 12.41C9.88544 12.5873 9.83411 12.746 9.80611 12.886C9.78744 13.0167 9.77811 13.138 9.77811 13.25C9.77811 13.502 9.84811 13.698 9.98811 13.838C10.1281 13.9687 10.3241 14.034 10.5761 14.034C10.7908 14.034 11.0288 13.9687 11.2901 13.838C11.5514 13.698 11.8268 13.5067 12.1161 13.264C12.4054 13.012 12.7041 12.7133 13.0121 12.368C13.3201 12.0133 13.6328 11.6213 13.9501 11.192L14.7061 11.906C14.3608 12.3633 14.0108 12.788 13.6561 13.18C13.3108 13.572 12.9561 13.9127 12.5921 14.202C12.2281 14.482 11.8501 14.706 11.4581 14.874C11.0754 15.0327 10.6788 15.112 10.2681 15.112C9.80144 15.112 9.42811 14.972 9.14811 14.692C8.86811 14.4027 8.72811 13.9827 8.72811 13.432C8.72811 13.124 8.77011 12.8067 8.85411 12.48C8.94744 12.1533 9.05478 11.822 9.17611 11.486H6.68411C6.30144 12.186 5.94211 12.7693 5.60611 13.236C5.27011 13.7027 4.94811 14.076 4.64011 14.356C4.33211 14.6267 4.02878 14.8227 3.73011 14.944C3.43144 15.056 3.12344 15.112 2.80611 15.112ZM7.41211 10.408H9.58211L11.2341 6.306C11.1688 6.278 11.0848 6.25467 10.9821 6.236C10.8888 6.208 10.7768 6.194 10.6461 6.194C10.4128 6.194 10.1748 6.28267 9.93211 6.46C9.69878 6.628 9.46078 6.87067 9.21811 7.188C8.98478 7.496 8.74211 7.86933 8.49011 8.308C8.23811 8.74667 7.98144 9.23667 7.72011 9.778L7.41211 10.408ZM14.2858 15.112C13.8751 15.112 13.5391 14.9907 13.2778 14.748C13.0258 14.5053 12.8998 14.1647 12.8998 13.726C12.8998 13.39 12.9698 13.0353 13.1098 12.662C13.2591 12.2793 13.4551 11.906 13.6978 11.542C13.9404 11.1687 14.2204 10.814 14.5378 10.478C14.8644 10.142 15.2004 9.848 15.5458 9.596C15.9004 9.344 16.2598 9.14333 16.6238 8.994C16.9878 8.84467 17.3331 8.77 17.6598 8.77C18.0144 8.77 18.3131 8.854 18.5558 9.022C18.8078 9.19 19.0178 9.39533 19.1858 9.638L18.2198 10.156C18.1451 10.0627 18.0518 9.988 17.9398 9.932C17.8371 9.86667 17.6971 9.834 17.5198 9.834C17.3144 9.834 17.0858 9.89933 16.8338 10.03C16.5818 10.1513 16.3251 10.3193 16.0638 10.534C15.8118 10.7393 15.5644 10.9773 15.3218 11.248C15.0791 11.5093 14.8598 11.7753 14.6638 12.046C14.4771 12.3167 14.3278 12.5827 14.2158 12.844C14.1038 13.096 14.0478 13.3153 14.0478 13.502C14.0478 13.6607 14.0851 13.7913 14.1598 13.894C14.2344 13.9873 14.3558 14.034 14.5238 14.034C14.7291 14.034 14.9811 13.9313 15.2798 13.726C15.5784 13.5207 15.8911 13.25 16.2178 12.914C16.5444 12.578 16.8664 12.2 17.1838 11.78C17.5011 11.3507 17.7858 10.912 18.0378 10.464L19.0318 10.926L17.5478 14.636C17.9211 14.4867 18.3084 14.3093 18.7098 14.104C19.1204 13.8893 19.5218 13.642 19.9138 13.362C20.3058 13.0727 20.6884 12.7507 21.0618 12.396C21.4351 12.032 21.7851 11.6307 22.1118 11.192L22.8678 11.906C22.4758 12.4287 22.0604 12.8953 21.6218 13.306C21.1831 13.7167 20.7211 14.0807 20.2358 14.398C19.7598 14.7153 19.2558 14.9953 18.7238 15.238C18.2011 15.4807 17.6458 15.7 17.0578 15.896C16.6004 16.9973 16.0824 17.8093 15.5038 18.332C14.9251 18.8547 14.2998 19.116 13.6278 19.116C13.2078 19.116 12.8858 19.0087 12.6618 18.794C12.4378 18.5887 12.3258 18.304 12.3258 17.94C12.3258 17.52 12.4331 17.1747 12.6478 16.904C12.8624 16.6427 13.1471 16.414 13.5018 16.218C13.8564 16.022 14.2671 15.8447 14.7338 15.686C15.2004 15.5273 15.6858 15.3453 16.1898 15.14L16.7918 13.614C16.3718 14.1087 15.9518 14.482 15.5318 14.734C15.1211 14.986 14.7058 15.112 14.2858 15.112ZM13.8938 18.15C14.1738 18.15 14.4724 17.996 14.7898 17.688C15.1164 17.38 15.4291 16.89 15.7278 16.218C15.5038 16.3207 15.2611 16.414 14.9998 16.498C14.7478 16.5913 14.5098 16.6893 14.2858 16.792C13.9591 16.9507 13.7351 17.1047 13.6138 17.254C13.5018 17.4127 13.4458 17.5853 13.4458 17.772C13.4458 17.884 13.4878 17.9727 13.5718 18.038C13.6558 18.1127 13.7631 18.15 13.8938 18.15Z" fill="#333333"/>
</svg>
