<svg width="24" height="24" viewBox="0 0 24 24" fill="none" xmlns="http://www.w3.org/2000/svg">
<path d="M9.66895 9.31641L7.74805 12.7549H10.1201L9.66895 9.31641ZM11.2002 7.04688L12.6631 17H10.5371L10.1611 14.3887C10.1611 14.3887 9.10612 14.3887 6.99609 14.3887L5.5127 17H3.38672L9.07422 7.04688H11.2002ZM18.0635 17.4785L18.3916 15.9268C18.0726 16.3005 17.6966 16.6058 17.2637 16.8428C16.8307 17.0752 16.4183 17.1914 16.0264 17.1914C15.3701 17.1914 14.8825 16.9727 14.5635 16.5352C14.249 16.0977 14.0918 15.5098 14.0918 14.7715C14.0918 14.334 14.1556 13.8099 14.2832 13.1992C14.4154 12.5885 14.6296 11.9984 14.9258 11.4287C15.222 10.859 15.6071 10.3919 16.0811 10.0273C16.5596 9.66276 17.0882 9.48047 17.667 9.48047C18.0635 9.48047 18.4281 9.59668 18.7607 9.8291C19.0934 10.057 19.3395 10.3577 19.499 10.7314L19.7246 9.66504H21.4883L19.8545 17.3418C19.695 18.0938 19.2917 18.7432 18.6445 19.29C17.9701 19.8643 17.1133 20.1514 16.0742 20.1514C15.026 20.1514 14.2878 19.8096 13.8594 19.126C13.6361 18.766 13.5244 18.3626 13.5244 17.916C13.5244 17.8568 13.529 17.777 13.5381 17.6768C14.2171 17.6449 14.7754 17.6198 15.2129 17.6016V17.7041C15.2129 17.9821 15.3086 18.2031 15.5 18.3672C15.696 18.5358 16.0013 18.6201 16.416 18.6201C16.8307 18.6201 17.1885 18.5176 17.4893 18.3125C17.7946 18.112 17.986 17.834 18.0635 17.4785ZM16.0332 13.3291C15.974 13.598 15.9443 13.8532 15.9443 14.0947C15.9443 14.5687 16.0492 14.9378 16.2588 15.2021C16.4684 15.4619 16.6895 15.5918 16.9219 15.5918C17.1543 15.5918 17.3617 15.5553 17.5439 15.4824C17.7308 15.4049 17.9199 15.2842 18.1113 15.1201C18.5306 14.7555 18.8268 14.1585 19 13.3291C19.0638 13.0374 19.0957 12.7594 19.0957 12.4951C19.0957 12.0029 18.984 11.6452 18.7607 11.4219C18.5374 11.194 18.2503 11.0801 17.8994 11.0801C17.5531 11.0801 17.1953 11.2646 16.8262 11.6338C16.4616 11.9984 16.1973 12.5635 16.0332 13.3291Z" fill="#888888"/>
</svg>
