<svg width="24" height="24" viewBox="0 0 24 24" fill="none" xmlns="http://www.w3.org/2000/svg">
<path d="M11.7812 16H11.2686V12.042H9.36816V16H8.85547V8.4668C8.85547 8.23893 8.86458 8.00651 8.88281 7.76953C8.90104 7.53255 8.96484 7.31836 9.07422 7.12695C9.18815 6.93555 9.36361 6.7806 9.60059 6.66211C9.84212 6.53906 10.1839 6.47754 10.626 6.47754H11.7812V16ZM10.7832 6.93555C10.5371 6.93555 10.3252 6.95605 10.1475 6.99707C9.96973 7.03809 9.82161 7.10872 9.70312 7.20898C9.58919 7.30469 9.50488 7.43685 9.4502 7.60547C9.39551 7.77409 9.36816 7.986 9.36816 8.24121V11.584H11.2686V6.93555H10.7832ZM14.7002 16H14.0303C13.8343 16 13.6611 15.9681 13.5107 15.9043C13.3649 15.8405 13.2419 15.7539 13.1416 15.6445C13.0413 15.5306 12.9661 15.3984 12.916 15.248C12.8659 15.0931 12.8408 14.9268 12.8408 14.749V9.04102H14.0303C14.2217 9.04102 14.3903 9.07292 14.5361 9.13672C14.6865 9.19596 14.8118 9.28255 14.9121 9.39648C15.0124 9.50586 15.0876 9.63802 15.1377 9.79297C15.1878 9.94336 15.2129 10.1074 15.2129 10.2852V17.9209C15.2129 18.0986 15.1878 18.2627 15.1377 18.4131C15.0876 18.568 15.0124 18.7002 14.9121 18.8096C14.8118 18.9235 14.6865 19.0124 14.5361 19.0762C14.3903 19.14 14.2194 19.1719 14.0234 19.1719C13.832 19.1719 13.6611 19.1354 13.5107 19.0625C13.3649 18.9941 13.2419 18.8984 13.1416 18.7754C13.0459 18.6523 12.973 18.5065 12.9229 18.3379C12.8727 18.1693 12.8477 17.987 12.8477 17.791L13.3535 17.8662C13.3535 18.1032 13.4105 18.3037 13.5244 18.4678C13.6429 18.6318 13.8092 18.7139 14.0234 18.7139C14.2422 18.7139 14.4085 18.641 14.5225 18.4951C14.641 18.3538 14.7002 18.1784 14.7002 17.9688V16ZM13.3535 14.7969C13.3535 15.0065 13.4105 15.1842 13.5244 15.3301C13.6429 15.4714 13.8115 15.542 14.0303 15.542H14.7002V10.251C14.7002 10.0413 14.641 9.86361 14.5225 9.71777C14.4085 9.57194 14.2445 9.49902 14.0303 9.49902H13.3535V14.7969Z" fill="#333333"/>
</svg>
