<svg width="24" height="24" viewBox="0 0 24 24" fill="none" xmlns="http://www.w3.org/2000/svg">
<path d="M12.2539 17H11.6771V12.5472H9.53918V17H8.9624V8.52515C8.9624 8.2688 8.97266 8.00732 8.99316 7.74072C9.01367 7.47412 9.08545 7.23315 9.2085 7.01782C9.33667 6.80249 9.53406 6.62817 9.80066 6.49487C10.0724 6.35645 10.4569 6.28723 10.9542 6.28723H12.2539V17ZM11.1311 6.80249C10.8542 6.80249 10.6158 6.82556 10.4159 6.8717C10.2159 6.91785 10.0493 6.99731 9.91602 7.11011C9.78784 7.21777 9.69299 7.36646 9.63147 7.55615C9.56995 7.74585 9.53918 7.98425 9.53918 8.27136V12.032H11.6771V6.80249H11.1311ZM15.5377 17H14.7841C14.5636 17 14.3688 16.9641 14.1996 16.8923C14.0355 16.8206 13.8971 16.7231 13.7843 16.6001C13.6715 16.4719 13.5869 16.3232 13.5305 16.1541C13.4741 15.9797 13.4459 15.7926 13.4459 15.5927V9.17114H14.7841C14.9994 9.17114 15.1891 9.20703 15.3531 9.27881C15.5223 9.34546 15.6633 9.44287 15.7761 9.57104C15.8889 9.69409 15.9735 9.84277 16.0299 10.0171C16.0863 10.1863 16.1145 10.3708 16.1145 10.5708V19.161C16.1145 19.361 16.0863 19.5455 16.0299 19.7147C15.9735 19.889 15.8889 20.0377 15.7761 20.1608C15.6633 20.2889 15.5223 20.3889 15.3531 20.4607C15.1891 20.5325 14.9968 20.5684 14.7764 20.5684C14.561 20.5684 14.3688 20.5273 14.1996 20.4453C14.0355 20.3684 13.8971 20.2607 13.7843 20.1223C13.6766 19.9839 13.5946 19.8198 13.5382 19.6301C13.4818 19.4404 13.4536 19.2354 13.4536 19.0149L14.0227 19.0995C14.0227 19.3661 14.0868 19.5917 14.215 19.7762C14.3483 19.9608 14.5354 20.0531 14.7764 20.0531C15.0225 20.0531 15.2096 19.9711 15.3378 19.807C15.4711 19.6481 15.5377 19.4507 15.5377 19.2148V17ZM14.0227 15.6465C14.0227 15.8823 14.0868 16.0823 14.215 16.2463C14.3483 16.4053 14.538 16.4847 14.7841 16.4847H15.5377V10.5323C15.5377 10.2965 15.4711 10.0966 15.3378 9.9325C15.2096 9.76843 15.025 9.6864 14.7841 9.6864H14.0227V15.6465Z" fill="#888888"/>
</svg>
