<svg width="24" height="24" viewBox="0 0 24 24" fill="none" xmlns="http://www.w3.org/2000/svg">
<path d="M12.0295 16V12.402H5.02947V16H4.66547V11.268L7.92747 6.2H8.92147L12.4075 11.296V16H12.0295ZM12.0435 11.408L8.71147 6.564H8.13747L5.01547 11.394V12.038H12.0435V11.408ZM18.7608 19.108H15.4708L14.4908 18.338L14.7428 18.072L15.5968 18.758H18.6348L19.7968 17.904V15.314L18.8308 16H14.8128L13.5248 14.964V10.344L14.8128 9.322H18.8308L19.7968 10.008V9.308H20.1888V18.086L18.7608 19.108ZM19.7968 10.526L18.6348 9.672H14.9528L13.9168 10.512V14.782L14.9528 15.622H18.6348L19.7968 14.796V10.526Z" fill="#888888"/>
</svg>
