<svg width="24" height="24" viewBox="0 0 24 24" fill="none" xmlns="http://www.w3.org/2000/svg">
<path d="M10.6655 16V12.542H4.39347V16H3.66547V11.212L6.84347 6.2H8.00547L11.4075 11.226V16H10.6655ZM10.6515 11.436L7.59947 6.956H7.26347L4.40747 11.422V11.8L10.6515 11.814V11.436ZM17.7048 19.108H14.4848L13.3508 18.198L13.8268 17.638L14.7368 18.38H17.4668L18.4328 17.652V15.426L17.6348 16H13.8688L12.5248 14.908V10.4L13.8688 9.322H17.6348L18.4328 9.896V9.308H19.1888V18.03L17.7048 19.108ZM18.4328 10.778L17.4668 10.05H14.1348L13.2808 10.75V14.544L14.1348 15.244H17.4668L18.4328 14.544V10.778Z" fill="#333333"/>
</svg>
