<svg width="24" height="24" viewBox="0 0 24 24" fill="none" xmlns="http://www.w3.org/2000/svg">
<path d="M7.5625 6.95605L11.6777 16H10.4336L9.41504 13.7715H5.7168L4.72559 16H3.48828L7.5625 6.95605ZM7.5625 9.68359L6.16113 12.7803H8.96387L7.5625 9.68359ZM17.3584 10.3604H18.5205V15.7744C18.5205 16.5719 18.2448 17.2487 17.6934 17.8047C17.1465 18.3652 16.4834 18.6455 15.7041 18.6455C15.1117 18.6455 14.5671 18.4837 14.0703 18.1602C13.5736 17.8411 13.209 17.3535 12.9766 16.6973H14.207C14.5762 17.3079 15.0889 17.6133 15.7451 17.6133C16.1917 17.6133 16.5723 17.4515 16.8867 17.1279C17.2012 16.8089 17.3584 16.4238 17.3584 15.9727V14.9062C16.7842 15.7402 16.0596 16.1572 15.1846 16.1572C14.4645 16.1572 13.8356 15.861 13.2979 15.2686C12.7646 14.6715 12.498 13.9674 12.498 13.1562C12.498 12.3451 12.7578 11.6501 13.2773 11.0713C13.8014 10.4925 14.4235 10.2031 15.1436 10.2031C16.0732 10.2031 16.8115 10.652 17.3584 11.5498V10.3604ZM17.5225 13.1699C17.5225 12.6413 17.3379 12.1992 16.9688 11.8438C16.6042 11.4883 16.1507 11.3105 15.6084 11.3105C15.1117 11.3105 14.6742 11.4951 14.2959 11.8643C13.9176 12.2334 13.7285 12.6595 13.7285 13.1426C13.7285 13.6667 13.9154 14.1178 14.2891 14.4961C14.6628 14.8743 15.1071 15.0635 15.6221 15.0635C16.1462 15.0635 16.5928 14.8789 16.9619 14.5098C17.3356 14.1406 17.5225 13.694 17.5225 13.1699Z" fill="#333333"/>
</svg>
