<svg width="24" height="24" viewBox="0 0 24 24" fill="none" xmlns="http://www.w3.org/2000/svg">
<path d="M8.88184 6.95605L11.2744 16H10.1123L9.5791 13.9971H6.12012L4.97168 16H3.64551L8.88184 6.95605ZM8.49902 9.86816L6.68066 13.0332H9.33984L8.49902 9.86816ZM17.9053 10.5244H19.0674L18.2676 15.9316C18.1582 16.679 17.7868 17.3171 17.1533 17.8457C16.5199 18.3789 15.8135 18.6455 15.0342 18.6455C14.4235 18.6455 13.8652 18.4495 13.3594 18.0576C12.8535 17.6702 12.5664 17.0869 12.498 16.3076H13.5645C13.724 17.1781 14.2093 17.6133 15.0205 17.6133C15.5947 17.6133 16.0801 17.4128 16.4766 17.0117C16.873 16.6152 17.0964 16.0775 17.1465 15.3984C16.5312 15.9043 15.9479 16.1572 15.3965 16.1572C14.6582 16.1572 14.0247 15.8815 13.4961 15.3301C12.972 14.7786 12.71 14.1156 12.71 13.3408C12.71 12.5342 12.9993 11.8415 13.5781 11.2627C14.1615 10.6794 14.8564 10.3877 15.6631 10.3877C16.1143 10.3877 16.5312 10.5153 16.9141 10.7705C17.3014 11.0212 17.5658 11.3561 17.707 11.7754L17.9053 10.5244ZM17.5977 13.1562C17.5977 12.6777 17.4154 12.2585 17.0508 11.8984C16.6862 11.5339 16.2601 11.3516 15.7725 11.3516C15.2939 11.3516 14.8701 11.5544 14.501 11.96C14.1364 12.361 13.9541 12.8258 13.9541 13.3545C13.9541 13.8695 14.125 14.3047 14.4668 14.6602C14.8086 15.0111 15.2256 15.1865 15.7178 15.1865C16.2464 15.1865 16.6908 14.9928 17.0508 14.6055C17.4154 14.2135 17.5977 13.7305 17.5977 13.1562Z" fill="#333333"/>
</svg>
