<svg width="24" height="24" viewBox="0 0 24 24" fill="none" xmlns="http://www.w3.org/2000/svg">
<path d="M11.8145 17H9.66113L9.3125 15.4756H7.125L6.7627 17H4.65039L7.07031 7.87402H9.39453L11.8145 17ZM8.91602 13.835C8.60612 12.4769 8.3737 11.1849 8.21875 9.95898H8.19141C8.02734 11.2214 7.7972 12.5133 7.50098 13.835H8.91602ZM15.8066 17.0273V16.1318C15.4193 16.7015 14.959 16.9863 14.4258 16.9863C13.7513 16.9863 13.2272 16.7061 12.8535 16.1455C12.4798 15.5804 12.293 14.7829 12.293 13.7529C12.293 12.7458 12.4753 11.9551 12.8398 11.3809C13.2044 10.8066 13.7035 10.5195 14.3369 10.5195C14.902 10.5195 15.3783 10.8044 15.7656 11.374H15.793V10.7109H17.7822V16.5352C17.7822 17.0684 17.6865 17.5742 17.4951 18.0527C17.3083 18.5312 16.9756 18.9072 16.4971 19.1807C16.0186 19.4541 15.4945 19.5908 14.9248 19.5908C14.3551 19.5908 13.8197 19.4382 13.3184 19.1328C12.8171 18.8275 12.4912 18.3171 12.3408 17.6016H14.1182C14.3232 17.9206 14.5785 18.0801 14.8838 18.0801C15.1436 18.0801 15.3623 17.9775 15.54 17.7725C15.7178 17.5719 15.8066 17.3236 15.8066 17.0273ZM15.8066 13.7256C15.8066 12.7093 15.5514 12.2012 15.041 12.2012C14.7904 12.2012 14.5921 12.3242 14.4463 12.5703C14.3005 12.8164 14.2275 13.1582 14.2275 13.5957C14.2275 14.7441 14.4941 15.3184 15.0273 15.3184C15.5469 15.3184 15.8066 14.7874 15.8066 13.7256Z" fill="#333333"/>
</svg>
