<svg width="24" height="24" viewBox="0 0 24 24" fill="none" xmlns="http://www.w3.org/2000/svg">
<path d="M10.811 17C10.6803 16.6173 10.545 16.2393 10.405 15.866C10.265 15.4927 10.1297 15.11 9.99898 14.718H5.91098C5.78032 15.11 5.64498 15.4973 5.50498 15.88C5.37432 16.2533 5.24365 16.6267 5.11298 17H3.27898C3.64298 15.964 3.98832 15.0073 4.31498 14.13C4.64165 13.2527 4.95898 12.422 5.26698 11.638C5.58432 10.854 5.89698 10.1073 6.20498 9.398C6.51298 8.68867 6.83032 7.98867 7.15698 7.298H8.82298C9.14965 7.98867 9.46698 8.68867 9.77498 9.398C10.083 10.1073 10.391 10.854 10.699 11.638C11.0163 12.422 11.3383 13.2527 11.665 14.13C12.001 15.0073 12.351 15.964 12.715 17H10.811ZM7.95498 9.174C7.74032 9.66867 7.49298 10.2707 7.21298 10.98C6.94232 11.6893 6.65765 12.4593 6.35898 13.29H9.55098C9.25232 12.4593 8.96298 11.6847 8.68298 10.966C8.40298 10.2473 8.16032 9.65 7.95498 9.174ZM14.9959 13.15C14.9959 13.8687 15.1499 14.396 15.4579 14.732C15.7752 15.0587 16.1812 15.222 16.6759 15.222C16.9466 15.222 17.1986 15.1847 17.4319 15.11C17.6746 15.0353 17.8706 14.9467 18.0199 14.844V11.05C17.8986 11.022 17.7492 10.9987 17.5719 10.98C17.3946 10.952 17.1706 10.938 16.8999 10.938C16.2839 10.938 15.8126 11.1433 15.4859 11.554C15.1592 11.9553 14.9959 12.4873 14.9959 13.15ZM19.7139 16.258C19.7139 17.4247 19.4152 18.2787 18.8179 18.82C18.2299 19.3613 17.3246 19.632 16.1019 19.632C15.6539 19.632 15.2152 19.5947 14.7859 19.52C14.3659 19.4453 13.9832 19.3473 13.6379 19.226L13.9459 17.784C14.2352 17.9053 14.5619 18.0033 14.9259 18.078C15.2992 18.1527 15.7006 18.19 16.1299 18.19C16.8112 18.19 17.2966 18.05 17.5859 17.77C17.8752 17.49 18.0199 17.0747 18.0199 16.524V16.244C17.8519 16.328 17.6279 16.412 17.3479 16.496C17.0772 16.58 16.7646 16.622 16.4099 16.622C15.9432 16.622 15.5139 16.5473 15.1219 16.398C14.7392 16.2487 14.4079 16.0293 14.1279 15.74C13.8572 15.4507 13.6426 15.0913 13.4839 14.662C13.3346 14.2233 13.2599 13.7193 13.2599 13.15C13.2599 12.618 13.3392 12.128 13.4979 11.68C13.6659 11.232 13.9039 10.8493 14.2119 10.532C14.5292 10.2147 14.9119 9.96733 15.3599 9.79C15.8079 9.61267 16.3166 9.524 16.8859 9.524C17.4366 9.524 17.9592 9.566 18.4539 9.65C18.9486 9.734 19.3686 9.82267 19.7139 9.916V16.258Z" fill="#888888"/>
</svg>
