<svg width="24" height="24" viewBox="0 0 24 24" fill="none" xmlns="http://www.w3.org/2000/svg">
<path d="M7.16388 6.6H8.84388L11.1959 17H10.0759L9.53188 14.6H6.47588L5.93188 17H4.81188L7.16388 6.6ZM7.99588 7.848L6.68388 13.64H9.30788L7.99588 7.848ZM15.5561 12.68V11.72H18.4681V15C18.4681 15.7147 18.2495 16.2693 17.8121 16.664C17.3748 17.048 16.7188 17.24 15.8441 17.24C14.9695 17.24 14.3081 17.048 13.8601 16.664C13.4121 16.2693 13.1881 15.7147 13.1881 15V8.6C13.1881 7.88533 13.4068 7.336 13.8441 6.952C14.2815 6.55733 14.9375 6.36 15.8121 6.36C16.6868 6.36 17.3481 6.55733 17.7961 6.952C18.2441 7.336 18.4681 7.88533 18.4681 8.6V9.48H17.3481V8.6C17.3481 7.74667 16.8415 7.32 15.8281 7.32C14.8148 7.32 14.3081 7.74667 14.3081 8.6V15C14.3081 15.8533 14.8148 16.28 15.8281 16.28C16.8415 16.28 17.3481 15.8533 17.3481 15V12.68H15.5561Z" fill="#888888"/>
</svg>
