<svg width="24" height="24" viewBox="0 0 24 24" fill="none" xmlns="http://www.w3.org/2000/svg">
<path d="M10.5713 7.79004C10.4665 7.79004 10.4141 7.73991 10.4141 7.63965C10.4141 7.5804 10.4482 7.53255 10.5166 7.49609L13.374 6.12207C13.4925 6.0765 13.5677 6.09473 13.5996 6.17676C13.6361 6.25879 13.6042 6.33398 13.5039 6.40234C13.1895 6.64844 12.9867 6.98112 12.8955 7.40039C12.8044 7.81966 12.7588 8.31413 12.7588 8.88379V13.6143C12.7588 14.5758 13.1211 14.8835 13.8457 14.5371C13.9688 14.4688 14.0508 14.4779 14.0918 14.5645C14.1328 14.6465 14.1146 14.7171 14.0371 14.7764L12.6084 16.0752C12.5173 16.139 12.4124 16.1549 12.2939 16.123C11.6104 15.9271 11.2093 15.4189 11.0908 14.5986C11.0817 14.5576 11.0566 14.528 11.0156 14.5098C10.9746 14.4961 10.9382 14.5052 10.9062 14.5371C10.7969 14.6465 10.6807 14.7695 10.5576 14.9062C10.4391 15.043 10.1383 15.3096 9.65527 15.7061C9.17676 16.1025 8.74382 16.2552 8.35645 16.1641C7.97363 16.0775 7.66602 15.9385 7.43359 15.7471C7.06901 15.4508 6.73405 15.1615 6.42871 14.8789C6.12337 14.5964 5.74512 14.512 5.29395 14.626C5.24837 14.6396 5.17546 14.6647 5.0752 14.7012C4.97493 14.7376 4.9043 14.7126 4.86328 14.626C4.82227 14.5394 4.89062 14.4437 5.06836 14.3389C5.42383 14.1019 5.77246 13.8558 6.11426 13.6006C6.45605 13.3408 6.77507 13.0537 7.07129 12.7393C7.47233 12.3154 7.79134 11.8118 8.02832 11.2285C8.26986 10.6452 8.33138 10.014 8.21289 9.33496C8.09896 8.68327 7.77539 8.12272 7.24219 7.65332C6.70898 7.18392 6.07324 7.00391 5.33496 7.11328C4.85645 7.1862 4.50553 7.38444 4.28223 7.70801C4.05892 8.02702 3.93132 8.33236 3.89941 8.62402C3.84928 9.03418 3.94271 9.35547 4.17969 9.58789C4.41667 9.81576 4.69238 9.95247 5.00684 9.99805C5.74056 10.1302 6.23275 10.4447 6.4834 10.9414C6.73405 11.4336 6.54948 11.9577 5.92969 12.5137C5.84766 12.582 5.77474 12.5934 5.71094 12.5479C5.64714 12.4977 5.6403 12.4271 5.69043 12.3359C5.88639 11.9303 5.736 11.6569 5.23926 11.5156C4.70605 11.3652 4.25944 11.1055 3.89941 10.7363C3.53939 10.3672 3.35938 9.86816 3.35938 9.23926C3.35938 8.36426 3.70345 7.6123 4.3916 6.9834C5.07975 6.34993 5.86589 6.03092 6.75 6.02637C7.77995 6.02637 8.5638 6.33398 9.10156 6.94922C9.64388 7.56445 9.9196 8.26172 9.92871 9.04102C9.93783 9.94792 9.62793 10.7454 8.99902 11.4336C8.37467 12.1217 7.76855 12.6982 7.18066 13.1631C7.14421 13.1859 7.13053 13.2201 7.13965 13.2656C7.14421 13.3066 7.16699 13.334 7.20801 13.3477C7.52246 13.4798 7.80501 13.6393 8.05566 13.8262C8.30632 14.0085 8.51823 14.1885 8.69141 14.3662C8.97396 14.6624 9.24056 14.8333 9.49121 14.8789C9.74642 14.9199 10.0723 14.7969 10.4688 14.5098C10.569 14.4368 10.6624 14.3548 10.749 14.2637C10.8356 14.168 10.9222 14.0654 11.0088 13.9561C11.027 13.9333 11.0361 13.9082 11.0361 13.8809C11.0179 13.0059 11.0111 12.1286 11.0156 11.249C11.0202 10.3649 11.0225 9.48079 11.0225 8.59668C11.0225 8.4235 11.002 8.24577 10.9609 8.06348C10.9199 7.88118 10.79 7.79004 10.5713 7.79004ZM18.5146 15.1592C18.1865 15.3096 17.7923 15.4782 17.332 15.665C16.8717 15.8473 16.5117 16.0342 16.252 16.2256C16.1562 16.2894 16.0879 16.3145 16.0469 16.3008C16.0059 16.2871 15.9899 16.2484 15.999 16.1846C16.0036 16.1025 15.9671 15.9635 15.8896 15.7676C15.8167 15.5716 15.7279 15.3962 15.623 15.2412C15.3314 14.8174 15.1423 14.43 15.0557 14.0791C14.9691 13.7282 14.8984 13.3112 14.8438 12.8281C14.7936 12.3633 14.8962 11.9235 15.1514 11.5088C15.4111 11.0941 15.7507 10.7249 16.1699 10.4014C16.4342 10.2008 16.6826 9.98893 16.915 9.76562C17.1475 9.54232 17.3503 9.27116 17.5234 8.95215C17.6009 8.81087 17.7035 8.80632 17.8311 8.93848C18.5146 9.71322 19.2438 10.1803 20.0186 10.3398C20.2191 10.39 20.2624 10.4629 20.1484 10.5586C19.7292 11.1738 19.5423 11.8027 19.5879 12.4453C19.6335 13.0833 19.7816 13.7305 20.0322 14.3867V14.3936L20.0391 14.4004C20.4492 15.8997 20.3102 16.9867 19.6221 17.6611C18.9385 18.3402 18.2594 18.7139 17.585 18.7822C16.4183 18.8962 15.6458 18.5954 15.2676 17.8799C15.181 17.7158 15.1787 17.5609 15.2607 17.415C15.3473 17.2692 15.4727 17.1826 15.6367 17.1553C15.9603 17.1006 16.2451 17.3102 16.4912 17.7842C16.8285 18.4632 17.3206 18.6706 17.9678 18.4062C18.5238 18.1738 18.8428 17.7728 18.9248 17.2031C19.0068 16.6335 18.9248 15.9795 18.6787 15.2412C18.6787 15.2321 18.6764 15.2253 18.6719 15.2207L18.665 15.2139C18.6377 15.1455 18.5876 15.1273 18.5146 15.1592ZM18.9111 11.3447C18.6559 11.2399 18.3529 11.0781 18.002 10.8594C17.651 10.6406 17.3936 10.4561 17.2295 10.3057L17.2158 10.2988C17.2158 10.2943 17.2158 10.2897 17.2158 10.2852C17.0518 10.0436 16.9059 10.0231 16.7783 10.2236C16.2952 10.9437 16.1038 11.7389 16.2041 12.6094C16.2725 13.1882 16.3978 13.7214 16.5801 14.209C16.7624 14.6966 17.0449 15.0156 17.4277 15.166L17.4346 15.1729H17.4414C17.6966 15.2412 18.027 15.1455 18.4326 14.8857C18.4782 14.863 18.4941 14.8197 18.4805 14.7559C18.2891 14.2318 18.2161 13.7008 18.2617 13.1631C18.3118 12.6208 18.5443 12.0693 18.959 11.5088C19 11.4359 18.984 11.3812 18.9111 11.3447Z" fill="#333333"/>
</svg>
