<svg width="24" height="24" viewBox="0 0 24 24" fill="none" xmlns="http://www.w3.org/2000/svg">
<path d="M3.74099 8.642V8.11H10.069L11.357 16.468H11.945V17H2.81699V16.468H3.39099L4.60899 8.642H3.74099ZM5.91099 8.95V14.13H7.61899L7.15699 8.95H5.91099ZM5.91099 17H7.88499L7.68899 14.9H5.91099V17ZM12.4709 19.268C12.2189 19.0813 12.0555 18.862 11.9809 18.61C11.9062 18.3673 11.8689 17.9707 11.8689 17.42C11.8689 16.8787 11.9855 16.4633 12.2189 16.174C12.4522 15.8753 12.7089 15.726 12.9889 15.726H14.0389V15.544C13.5629 15.4507 13.3249 15.1567 13.3249 14.662V13.794C12.5129 13.5233 12.1069 12.884 12.1069 11.876V11.582C12.1069 10.7513 12.2562 10.168 12.5549 9.832C12.6669 9.70133 12.7695 9.59867 12.8629 9.524C12.9562 9.44 13.0869 9.37 13.2549 9.314C13.4322 9.258 13.5769 9.216 13.6889 9.188C13.8102 9.16 13.9782 9.13667 14.1929 9.118C14.4075 9.09933 14.5755 9.09 14.6969 9.09H15.2569C15.9009 9.09 16.3722 9.16933 16.6709 9.328C16.9789 9.48667 17.1329 9.78533 17.1329 10.224H17.3149L17.4549 9.65C17.5575 9.23 17.6835 8.95 17.8329 8.81C17.9822 8.67 18.2575 8.6 18.6589 8.6H19.2749V9.846H19.1209C18.9435 9.846 18.8549 9.97667 18.8549 10.238V11.876C18.8549 12.3987 18.7289 12.8467 18.4769 13.22C18.3275 13.4627 18.0009 13.668 17.4969 13.836C17.1795 13.9387 16.4515 13.99 15.3129 13.99H14.8089V14.326C14.8089 14.6153 14.8415 14.8207 14.9069 14.942C14.9722 15.054 15.0982 15.11 15.2849 15.11H17.3709C17.8469 15.11 18.2762 15.278 18.6589 15.614C19.0509 15.9407 19.2469 16.4867 19.2469 17.252C19.2469 18.2227 18.9902 18.876 18.4769 19.212C17.9635 19.5573 16.9555 19.73 15.4529 19.73C14.6502 19.73 14.0155 19.6973 13.5489 19.632C13.0822 19.576 12.7229 19.4547 12.4709 19.268ZM16.4469 12.842V10.224H14.5289V12.842H16.4469ZM17.2309 16.86H13.8429V18.33H17.2309V16.86Z" fill="#333333"/>
</svg>
