<svg width="24" height="24" viewBox="0 0 24 24" fill="none" xmlns="http://www.w3.org/2000/svg">
<path d="M5.28669 11.904C4.10269 13.4187 3.16936 14.9387 2.48669 16.464L0.742688 14.848C1.43602 13.5467 2.34802 12.1867 3.47869 10.768L2.51869 10.224L3.89469 8.496L4.93469 9.072C6.23602 7.68533 7.49469 6.53333 8.71069 5.616L9.89469 6.688C10.0547 6.02667 10.1827 5.376 10.2787 4.736L12.2787 6.464C11.6494 9.664 10.3747 13.0933 8.45469 16.752L6.63069 15.088C6.97202 14.4693 7.21736 14.016 7.36669 13.728C6.78002 13.0773 6.08669 12.4693 5.28669 11.904ZM6.67869 10.272C7.25469 10.7093 7.78269 11.184 8.26269 11.696C8.91336 10.0747 9.39336 8.65067 9.70269 7.424C8.76402 8.16 7.75602 9.10933 6.67869 10.272ZM11.0234 17.152C11.6848 16.5547 12.4528 16.0373 13.3274 15.6L12.4314 14.752C12.4314 13.9093 12.5701 13.088 12.8474 12.288C13.1141 11.488 13.5088 10.7733 14.0314 10.144C14.5541 9.504 15.1941 8.976 15.9514 8.56C16.7088 8.144 17.5728 7.89333 18.5434 7.808L19.4394 9.312C19.7701 8.832 20.0794 8.42133 20.3674 8.08L21.9194 9.424C21.3008 10.2453 20.6394 11.2853 19.9354 12.544C19.7221 12.928 19.5354 13.3013 19.3754 13.664C21.0074 13.1947 22.2234 12.736 23.0234 12.288L23.3594 13.904C22.4848 14.5547 21.5354 15.136 20.5114 15.648C20.1381 15.84 19.8128 15.984 19.5354 16.08L18.8474 15.312C18.4314 17.168 17.8341 18.6133 17.0554 19.648C16.7888 20.0107 16.4954 20.3627 16.1754 20.704C14.9701 20.672 13.6848 20.4853 12.3194 20.144C11.8821 20.0373 11.4768 19.92 11.1034 19.792L11.0234 17.152ZM14.6714 14.352C15.3008 14.1707 15.7808 13.984 16.1114 13.792C16.7301 13.408 17.2634 12.9227 17.7114 12.336C18.0314 11.632 18.2661 10.816 18.4154 9.888C17.3274 9.99467 16.4261 10.464 15.7114 11.296C15.0181 12.1173 14.6714 13.136 14.6714 14.352ZM12.6394 18.32C13.6848 18.5653 14.4954 18.688 15.0714 18.688C15.7328 18.1227 16.2768 17.2 16.7034 15.92C15.0288 16.592 13.6741 17.392 12.6394 18.32Z" fill="#888888"/>
</svg>
