<svg width="24" height="24" viewBox="0 0 24 24" fill="none" xmlns="http://www.w3.org/2000/svg">
<path d="M3.77336 16.07C3.58669 16.07 3.43269 16.0093 3.31136 15.888C3.19936 15.7667 3.14336 15.6173 3.14336 15.44C3.14336 15.3653 3.16669 15.272 3.21336 15.16L6.78336 6.732C6.85803 6.564 6.96069 6.42867 7.09136 6.326C7.23136 6.214 7.39936 6.158 7.59536 6.158H7.73536C7.93136 6.158 8.09469 6.214 8.22536 6.326C8.36536 6.42867 8.47269 6.564 8.54736 6.732L12.1174 15.16C12.164 15.272 12.1874 15.3653 12.1874 15.44C12.1874 15.6173 12.1267 15.7667 12.0054 15.888C11.8934 16.0093 11.744 16.07 11.5574 16.07C11.4267 16.07 11.3054 16.0373 11.1934 15.972C11.0907 15.8973 11.0114 15.7993 10.9554 15.678L10.0454 13.494H5.28536L4.37536 15.678C4.31936 15.7993 4.23536 15.8973 4.12336 15.972C4.02069 16.0373 3.90403 16.07 3.77336 16.07ZM5.77536 12.332H9.55536L7.66536 7.782L5.77536 12.332ZM17.1626 19.36C16.6213 19.36 16.0753 19.29 15.5246 19.15C14.9739 19.01 14.5213 18.8373 14.1666 18.632C13.9986 18.5293 13.9146 18.366 13.9146 18.142C13.9146 17.9927 13.9659 17.8573 14.0686 17.736C14.1806 17.624 14.3159 17.568 14.4746 17.568C14.5493 17.568 14.6333 17.5867 14.7266 17.624C15.4359 17.9787 16.2059 18.156 17.0366 18.156C18.4646 18.156 19.1786 17.3953 19.1786 15.874V14.936C18.5159 15.6453 17.7179 16 16.7846 16C16.2339 16 15.6973 15.8647 15.1746 15.594C14.6613 15.314 14.2366 14.9033 13.9006 14.362C13.5646 13.8113 13.3966 13.144 13.3966 12.36C13.3966 11.576 13.5646 10.9133 13.9006 10.372C14.2366 9.82133 14.6613 9.41067 15.1746 9.14C15.6973 8.86 16.2339 8.72 16.7846 8.72C17.7179 8.72 18.5159 9.07467 19.1786 9.784V9.434C19.1786 9.25667 19.2393 9.10733 19.3606 8.986C19.4819 8.85533 19.6313 8.79 19.8086 8.79C19.9859 8.79 20.1353 8.85533 20.2566 8.986C20.3873 9.10733 20.4526 9.25667 20.4526 9.434V15.692C20.4526 16.868 20.1679 17.7733 19.5986 18.408C19.0293 19.0427 18.2173 19.36 17.1626 19.36ZM17.0506 14.838C17.4893 14.838 17.8766 14.7447 18.2126 14.558C18.5486 14.3713 18.8706 14.1193 19.1786 13.802V10.918C18.8706 10.6007 18.5486 10.3487 18.2126 10.162C17.8766 9.97533 17.4893 9.882 17.0506 9.882C16.3506 9.882 15.7766 10.0967 15.3286 10.526C14.8899 10.946 14.6706 11.5573 14.6706 12.36C14.6706 13.1627 14.8899 13.7787 15.3286 14.208C15.7766 14.628 16.3506 14.838 17.0506 14.838Z" fill="#333333"/>
</svg>
