<svg width="24" height="24" viewBox="0 0 24 24" fill="none" xmlns="http://www.w3.org/2000/svg">
<g clip-path="url(#clip0_205_738)">
<path d="M-1.63184 14.9062H-0.155273L4.34277 7.48926H5.81934L10.2354 14.9062H12.0127V16H6.74902V14.9062H8.40332L7.41211 13.1631H2.62012L1.65625 14.9062H3.23535V16H-1.63184V14.9062ZM6.90625 7.83789L10.8643 14.4961H10.5498L6.5918 7.83789H6.90625ZM6.91992 12.3086L4.98535 8.91113L3.09863 12.3086H6.91992ZM5.1084 9.69043L5.27246 9.99121L4.17188 11.8984H3.83691L5.1084 9.69043ZM2.88672 13.6416H7.35059L7.47363 13.9014H3.0918L2.77051 14.4961H2.42188L2.88672 13.6416ZM12.498 16.4785V15.2822H12.7852V16.7383H7.04297V16.4785H12.498ZM3.72754 16.4785V15.2822H4.00098V16.7383H-1.33105V16.4785H3.72754ZM14.542 17.1963C14.7653 17.4287 15.0137 17.6224 15.2871 17.7773C15.5651 17.9368 15.8454 18.0645 16.1279 18.1602C16.415 18.2559 16.6953 18.3242 16.9688 18.3652C17.2422 18.4062 17.4883 18.4268 17.707 18.4268C18.1354 18.4268 18.5205 18.3857 18.8623 18.3037C19.2041 18.2262 19.4935 18.0827 19.7305 17.873C19.972 17.6634 20.1566 17.3763 20.2842 17.0117C20.4118 16.6471 20.4756 16.1777 20.4756 15.6035V14.9883C20.3024 15.1523 20.1064 15.3005 19.8877 15.4326C19.6689 15.5648 19.4342 15.6787 19.1836 15.7744C18.9329 15.8701 18.6686 15.943 18.3906 15.9932C18.1172 16.0433 17.8392 16.0684 17.5566 16.0684C16.9186 16.0684 16.3512 15.9886 15.8545 15.8291C15.3623 15.6696 14.9476 15.444 14.6104 15.1523C14.2731 14.8561 14.0156 14.4984 13.8379 14.0791C13.6647 13.6598 13.5781 13.1904 13.5781 12.6709C13.5781 12.3883 13.6191 12.1081 13.7012 11.8301C13.7832 11.5475 13.904 11.2786 14.0635 11.0234C14.2275 10.7637 14.4281 10.5244 14.665 10.3057C14.9066 10.0824 15.1823 9.88867 15.4922 9.72461C15.8021 9.56055 16.1484 9.43294 16.5312 9.3418C16.9141 9.24609 17.3288 9.19824 17.7754 9.19824C17.985 9.19824 18.2083 9.21875 18.4453 9.25977C18.6868 9.29622 18.9261 9.35547 19.1631 9.4375C19.4001 9.51953 19.6302 9.62663 19.8535 9.75879C20.0814 9.88639 20.2887 10.0413 20.4756 10.2236V9.40332H23.415V10.5654H21.9111V15.6035C21.9111 16.3372 21.8086 16.9525 21.6035 17.4492C21.3984 17.946 21.1113 18.3447 20.7422 18.6455C20.373 18.9463 19.9333 19.1605 19.4229 19.2881C18.917 19.4202 18.361 19.4863 17.7549 19.4863C17.3994 19.4863 17.0348 19.459 16.6611 19.4043C16.2874 19.3496 15.9229 19.2653 15.5674 19.1514C15.2165 19.042 14.8861 18.8984 14.5762 18.7207C14.2663 18.5475 13.9997 18.3379 13.7764 18.0918L14.542 17.1963ZM14.1797 19.042C14.4076 19.2061 14.665 19.3473 14.9521 19.4658C15.2393 19.5843 15.54 19.68 15.8545 19.7529C16.1689 19.8258 16.488 19.8783 16.8115 19.9102C17.1351 19.9466 17.4495 19.9648 17.7549 19.9648C18.1696 19.9648 18.5729 19.9329 18.9648 19.8691C19.3568 19.8099 19.7236 19.7119 20.0654 19.5752C20.4118 19.4385 20.7285 19.2585 21.0156 19.0352C21.3027 18.8118 21.5488 18.5361 21.7539 18.208C21.959 17.8844 22.1185 17.5039 22.2324 17.0664C22.3464 16.6335 22.4033 16.1344 22.4033 15.5693V11.0439H23.9072V9.78613H24.1807V11.3037H22.6768V15.5693C22.6768 16.1618 22.6175 16.6882 22.499 17.1484C22.3805 17.6087 22.2142 18.012 22 18.3584C21.7858 18.7048 21.5283 18.9964 21.2275 19.2334C20.9268 19.4704 20.5941 19.6618 20.2295 19.8076C19.8649 19.9535 19.473 20.0583 19.0537 20.1221C18.6344 20.1904 18.2015 20.2246 17.7549 20.2246C17.4085 20.2246 17.0553 20.1973 16.6953 20.1426C16.3353 20.0879 15.9935 20.0081 15.6699 19.9033C15.3509 19.8031 15.0592 19.68 14.7949 19.5342C14.5352 19.3883 14.3301 19.2243 14.1797 19.042ZM15.0615 12.6162C15.0615 12.9671 15.1162 13.2907 15.2256 13.5869C15.3395 13.8786 15.5059 14.1315 15.7246 14.3457C15.9479 14.5553 16.2214 14.7194 16.5449 14.8379C16.873 14.9564 17.249 15.0156 17.6729 15.0156C18.0101 15.0156 18.3451 14.9746 18.6777 14.8926C19.015 14.806 19.3158 14.667 19.5801 14.4756C19.849 14.2842 20.0654 14.0335 20.2295 13.7236C20.3936 13.4137 20.4756 13.0332 20.4756 12.582C20.4756 12.2585 20.4049 11.9554 20.2637 11.6729C20.1224 11.3903 19.9287 11.1442 19.6826 10.9346C19.4365 10.7249 19.1471 10.5609 18.8145 10.4424C18.4863 10.3193 18.1354 10.2578 17.7617 10.2578C17.3971 10.2578 17.0508 10.3148 16.7227 10.4287C16.3991 10.5426 16.1143 10.7044 15.8682 10.9141C15.6221 11.1237 15.4261 11.3743 15.2803 11.666C15.1344 11.9531 15.0615 12.2699 15.0615 12.6162ZM15.54 12.6299C15.54 12.3701 15.5947 12.1263 15.7041 11.8984C15.8135 11.666 15.9661 11.4655 16.1621 11.2969C16.3581 11.1237 16.5928 10.987 16.8662 10.8867C17.1396 10.7865 17.4382 10.7363 17.7617 10.7363C18.1947 10.7363 18.5524 10.807 18.835 10.9482C19.1221 11.085 19.3477 11.2604 19.5117 11.4746C19.4023 11.4062 19.2884 11.3424 19.1699 11.2832C19.056 11.224 18.9284 11.1738 18.7871 11.1328C18.6504 11.0872 18.4977 11.0531 18.3291 11.0303C18.1605 11.0029 17.9714 10.9893 17.7617 10.9893C17.4746 10.9893 17.2126 11.0348 16.9756 11.126C16.7386 11.2126 16.5335 11.3311 16.3604 11.4814C16.1917 11.6318 16.0596 11.805 15.9639 12.001C15.8727 12.1924 15.8271 12.3929 15.8271 12.6025C15.8271 13.0492 15.932 13.432 16.1416 13.751C16.3558 14.0654 16.709 14.3206 17.2012 14.5166C16.9642 14.4938 16.7432 14.4323 16.5381 14.332C16.3376 14.2318 16.1621 14.0996 16.0117 13.9355C15.8659 13.7715 15.7497 13.5801 15.6631 13.3613C15.5811 13.138 15.54 12.8942 15.54 12.6299ZM14.4053 15.5693C14.5921 15.7197 14.8063 15.8564 15.0479 15.9795C15.2939 16.098 15.5537 16.1982 15.8271 16.2803C16.1051 16.3669 16.39 16.4329 16.6816 16.4785C16.9779 16.5241 17.2718 16.5469 17.5635 16.5469C18.0693 16.5469 18.541 16.4854 18.9785 16.3623C19.4206 16.2438 19.8125 16.0729 20.1543 15.8496L20.1133 16.1914C19.7715 16.3965 19.3818 16.5492 18.9443 16.6494C18.5114 16.7542 18.0534 16.8066 17.5703 16.8066C16.832 16.8066 16.1917 16.7018 15.6494 16.4922C15.1071 16.2871 14.6924 15.9795 14.4053 15.5693Z" fill="#333333"/>
</g>
<defs>
<clipPath id="clip0_205_738">
<rect width="24" height="24" fill="white"/>
</clipPath>
</defs>
</svg>
