<svg width="24" height="24" viewBox="0 0 24 24" fill="none" xmlns="http://www.w3.org/2000/svg">
<path d="M7.80176 7.78516L4.43164 17H3.32422L7.09766 7.04688H7.84277L7.80176 7.78516ZM10.7549 17L7.37793 7.78516L7.34375 7.04688H8.08203L11.8691 17H10.7549ZM10.3584 13.4043V14.2998H4.91699V13.4043H10.3584ZM17.9053 9.60352H18.8623V16.8564C18.8623 17.5036 18.7347 18.0573 18.4795 18.5176C18.2243 18.9779 17.8665 19.3288 17.4062 19.5703C16.9505 19.8118 16.4196 19.9326 15.8135 19.9326C15.5309 19.9326 15.2233 19.8893 14.8906 19.8027C14.5579 19.7161 14.2389 19.5771 13.9336 19.3857C13.6283 19.1989 13.3685 18.9574 13.1543 18.6611L13.7148 18.0322C14.0202 18.4059 14.3415 18.6702 14.6787 18.8252C15.0205 18.9847 15.3737 19.0645 15.7383 19.0645C16.39 19.0645 16.9004 18.8776 17.2695 18.5039C17.6387 18.1302 17.8232 17.597 17.8232 16.9043V11.2305L17.9053 9.60352ZM12.7646 13.377V13.2334C12.7646 12.4769 12.8809 11.8161 13.1133 11.251C13.3457 10.6859 13.6761 10.2484 14.1045 9.93848C14.5374 9.62402 15.0524 9.4668 15.6494 9.4668C16.1006 9.4668 16.4948 9.54427 16.832 9.69922C17.1738 9.84961 17.4655 10.0684 17.707 10.3555C17.9486 10.638 18.1423 10.9798 18.2881 11.3809C18.4339 11.7773 18.5365 12.224 18.5957 12.7207V13.9512C18.5273 14.5846 18.3747 15.1429 18.1377 15.626C17.9053 16.1045 17.5817 16.4759 17.167 16.7402C16.7523 17.0046 16.2419 17.1367 15.6357 17.1367C15.0479 17.1367 14.5374 16.9749 14.1045 16.6514C13.6761 16.3278 13.3457 15.8835 13.1133 15.3184C12.8809 14.7533 12.7646 14.1061 12.7646 13.377ZM13.8037 13.2334V13.377C13.8037 13.9102 13.8766 14.3932 14.0225 14.8262C14.1683 15.2591 14.3916 15.6032 14.6924 15.8584C14.9977 16.1136 15.3896 16.2412 15.8682 16.2412C16.3102 16.2412 16.6794 16.1523 16.9756 15.9746C17.2718 15.7923 17.5065 15.5553 17.6797 15.2637C17.8574 14.9674 17.9896 14.6439 18.0762 14.293V12.4062C18.026 12.1647 17.9486 11.9232 17.8438 11.6816C17.7435 11.4355 17.6068 11.2145 17.4336 11.0186C17.265 10.818 17.0531 10.6585 16.7979 10.54C16.5426 10.417 16.2373 10.3555 15.8818 10.3555C15.3988 10.3555 15.0046 10.4854 14.6992 10.7451C14.3939 11.0003 14.1683 11.3467 14.0225 11.7842C13.8766 12.2171 13.8037 12.7002 13.8037 13.2334Z" fill="#888888"/>
</svg>
