<svg width="24" height="24" viewBox="0 0 24 24" fill="none" xmlns="http://www.w3.org/2000/svg">
<path d="M11.8753 17H9.84532L9.28532 15.278H5.93932L5.39332 17H3.36332L6.55532 7.872C6.69532 7.55467 6.84932 7.33533 7.01732 7.214C7.19465 7.09267 7.40932 7.032 7.66132 7.032C7.91332 7.032 8.11399 7.088 8.26332 7.2C8.42199 7.312 8.56199 7.536 8.68332 7.872L11.8753 17ZM8.83732 13.64L7.66132 9.692L6.42932 13.64H8.83732ZM17.0231 9.062L18.8431 8.95V16.636C18.8431 17.5227 18.5911 18.1993 18.0871 18.666C17.5924 19.142 16.8551 19.38 15.8751 19.38C15.1191 19.38 14.4564 19.2307 13.8871 18.932C13.5884 18.7827 13.3504 18.5587 13.1731 18.26C12.9957 17.9613 12.9071 17.6067 12.9071 17.196L14.6011 17.112C14.6011 17.3733 14.6944 17.56 14.8811 17.672C15.0677 17.784 15.3851 17.84 15.8331 17.84C16.2904 17.84 16.5984 17.728 16.7571 17.504C16.9251 17.28 17.0091 16.958 17.0091 16.538L17.0791 15.334L15.1191 16.384C14.0457 16.384 13.3224 16.02 12.9491 15.292C12.6131 14.648 12.4451 13.8593 12.4451 12.926C12.4451 11.8153 12.5291 11.0313 12.6971 10.574C12.8744 10.07 13.1264 9.706 13.4531 9.482C13.8731 9.202 14.4237 9.062 15.1051 9.062H17.0231ZM17.0231 13.752V10.7H15.6371C15.1144 10.7 14.7551 10.8773 14.5591 11.232C14.3631 11.5867 14.2651 12.0813 14.2651 12.716C14.2651 13.3507 14.3631 13.8033 14.5591 14.074C14.7644 14.3353 15.1237 14.466 15.6371 14.466L17.0231 13.752Z" fill="#333333"/>
</svg>
