<svg width="24" height="24" viewBox="0 0 24 24" fill="none" xmlns="http://www.w3.org/2000/svg">
<path d="M3.60995 16.042C3.60995 15.9207 3.61929 15.804 3.63795 15.692C3.65662 15.58 3.68929 15.4727 3.73595 15.37C3.90395 15.314 4.05329 15.2393 4.18395 15.146C4.31462 15.0433 4.45462 14.8893 4.60395 14.684C4.75329 14.4787 4.93529 14.194 5.14995 13.83C5.47662 13.2793 5.80795 12.7193 6.14395 12.15C6.47995 11.5713 6.81595 10.9833 7.15195 10.386C7.49729 9.77933 7.84729 9.15867 8.20195 8.524C8.56595 7.88 8.94395 7.21733 9.33595 6.536C9.43862 6.49867 9.54129 6.47533 9.64395 6.466C9.75595 6.45667 9.86329 6.452 9.96595 6.452C10.218 7.31067 10.456 8.16933 10.68 9.028C10.9133 9.87733 11.1373 10.722 11.352 11.562C11.5666 12.3927 11.772 13.2093 11.968 14.012C12.052 14.376 12.1313 14.6513 12.206 14.838C12.2806 15.0153 12.3646 15.1367 12.458 15.202C12.5513 15.2673 12.6633 15.3233 12.794 15.37C12.822 15.4727 12.836 15.58 12.836 15.692C12.8453 15.804 12.8453 15.9207 12.836 16.042C12.6866 16.0233 12.5046 16.0093 12.29 16C12.0846 16 11.884 16 11.688 16C11.492 16 11.324 16 11.184 16C11.0626 16 10.932 16 10.792 16C10.652 16 10.5026 16 10.344 16C10.1946 16.0093 10.0406 16.014 9.88195 16.014C9.73262 16.0233 9.58795 16.0327 9.44795 16.042C9.44795 15.9207 9.45729 15.804 9.47595 15.692C9.49462 15.5707 9.52729 15.4633 9.57395 15.37C9.97529 15.314 10.2273 15.216 10.33 15.076C10.4326 14.9267 10.4326 14.642 10.33 14.222C10.162 13.5033 9.98929 12.7893 9.81195 12.08C9.63462 11.3613 9.44329 10.652 9.23795 9.952C9.15395 9.65333 9.08395 9.37333 9.02795 9.112C8.98129 8.85067 8.93462 8.54267 8.88795 8.188H9.04195C8.88329 8.54267 8.73395 8.86 8.59395 9.14C8.45395 9.41067 8.29529 9.70467 8.11795 10.022C7.76329 10.6847 7.39929 11.3473 7.02595 12.01C6.66195 12.6633 6.28395 13.3213 5.89195 13.984C5.69595 14.3107 5.57462 14.5673 5.52795 14.754C5.49062 14.9407 5.52329 15.0807 5.62595 15.174C5.72862 15.258 5.89662 15.3233 6.12995 15.37C6.14862 15.4727 6.16262 15.58 6.17195 15.692C6.18129 15.804 6.18129 15.9207 6.17195 16.042C6.02262 16.0233 5.87329 16.0093 5.72395 16C5.57462 16 5.42062 16 5.26195 16C5.11262 16 4.96329 16 4.81395 16C4.57129 16 4.35662 16 4.16995 16C3.99262 16.0093 3.80595 16.0233 3.60995 16.042ZM6.17195 13.13L6.49395 12.36H10.134L10.19 13.046C9.76995 13.046 9.32662 13.0507 8.85995 13.06C8.40262 13.06 7.94062 13.0647 7.47395 13.074C7.00729 13.0833 6.57329 13.102 6.17195 13.13ZM15.2549 19.472C14.9096 19.472 14.5782 19.4113 14.2609 19.29C13.9529 19.178 13.6636 19.0147 13.3929 18.8C13.3742 18.6227 13.3789 18.45 13.4069 18.282C13.4349 18.1233 13.4769 17.974 13.5329 17.834C13.7849 17.918 14.0416 17.9927 14.3029 18.058C14.5736 18.1327 14.8442 18.184 15.1149 18.212C15.3856 18.2493 15.6422 18.268 15.8849 18.268C16.0529 18.268 16.1976 18.2447 16.3189 18.198C16.4402 18.1513 16.5429 18.0347 16.6269 17.848C16.7202 17.6707 16.8089 17.3907 16.8929 17.008C16.9769 16.6253 17.0702 16.0933 17.1729 15.412C17.2196 15.1693 17.2896 14.8847 17.3829 14.558C17.4762 14.222 17.5929 13.8813 17.7329 13.536L17.8729 13.144L18.3629 10.568L18.0969 9.63C18.3862 9.63 18.6429 9.616 18.8669 9.588C19.0909 9.56 19.2729 9.518 19.4129 9.462C19.5156 9.518 19.5809 9.60667 19.6089 9.728C19.6369 9.84 19.6276 10.036 19.5809 10.316L18.8809 14.348C18.7502 15.076 18.5729 15.7527 18.3489 16.378C18.1342 17.0033 17.8729 17.5447 17.5649 18.002C17.2569 18.4687 16.9116 18.828 16.5289 19.08C16.1462 19.3413 15.7216 19.472 15.2549 19.472ZM18.7129 9.658L18.3629 10.442C18.2322 10.3673 18.0782 10.316 17.9009 10.288C17.7236 10.2507 17.5462 10.232 17.3689 10.232C16.8276 10.232 16.4029 10.442 16.0949 10.862C15.7869 11.282 15.5676 11.828 15.4369 12.5C15.2689 13.2653 15.2222 13.8533 15.2969 14.264C15.3716 14.6747 15.5489 14.88 15.8289 14.88C15.9876 14.88 16.2069 14.7447 16.4869 14.474C16.7669 14.194 17.0422 13.788 17.3129 13.256C17.5929 12.7147 17.8216 12.0613 17.9989 11.296L18.2649 10.176L18.8809 10.274L18.1389 13.27H17.8029C17.6256 13.7647 17.3876 14.2313 17.0889 14.67C16.7902 15.1087 16.4589 15.4633 16.0949 15.734C15.7309 15.9953 15.3529 16.126 14.9609 16.126C14.6809 16.126 14.4476 16.0607 14.2609 15.93C14.0742 15.7993 13.9296 15.608 13.8269 15.356C13.7336 15.0947 13.6869 14.7773 13.6869 14.404C13.6869 14.0213 13.7382 13.5873 13.8409 13.102C13.9809 12.402 14.2282 11.7813 14.5829 11.24C14.9376 10.6893 15.3762 10.2553 15.8989 9.938C16.4309 9.62067 17.0236 9.462 17.6769 9.462C17.8636 9.462 18.0549 9.48067 18.2509 9.518C18.4469 9.55533 18.6009 9.602 18.7129 9.658Z" fill="#888888"/>
</svg>
