<svg width="24" height="24" viewBox="0 0 24 24" fill="none" xmlns="http://www.w3.org/2000/svg">
<path d="M2.73916 16.042C2.7485 15.8273 2.77183 15.636 2.80916 15.468C2.83716 15.3 2.88383 15.1273 2.94916 14.95C3.10783 14.922 3.24783 14.866 3.36916 14.782C3.49983 14.698 3.6445 14.558 3.80316 14.362C3.96183 14.166 4.15316 13.8907 4.37716 13.536C4.54516 13.2653 4.74116 12.948 4.96516 12.584C5.1985 12.22 5.47383 11.772 5.79116 11.24C6.11783 10.6987 6.50516 10.0453 6.95316 9.28C7.4105 8.51467 7.94716 7.6 8.56316 6.536C8.74983 6.48933 8.9225 6.466 9.08116 6.466C9.23983 6.45667 9.4265 6.452 9.64116 6.452C9.9305 7.35733 10.1965 8.23933 10.4392 9.098C10.6912 9.94733 10.9105 10.7313 11.0972 11.45C11.2932 12.1593 11.4472 12.766 11.5592 13.27C11.6712 13.746 11.7692 14.1053 11.8532 14.348C11.9372 14.5813 12.0258 14.7353 12.1192 14.81C12.2125 14.8847 12.3245 14.9313 12.4552 14.95C12.4832 15.0713 12.4972 15.23 12.4972 15.426C12.5065 15.622 12.4972 15.8273 12.4692 16.042C12.2825 16.0233 12.0398 16.0093 11.7412 16C11.4518 16 11.1672 16 10.8872 16C10.6072 16 10.3925 16 10.2432 16C10.1312 16 9.96316 16 9.73916 16C9.5245 16 9.29116 16 9.03916 16C8.78716 16.0093 8.5445 16.014 8.31116 16.014C8.08716 16.0233 7.90516 16.0327 7.76516 16.042C7.7745 15.6033 7.83983 15.2393 7.96116 14.95C8.35316 14.8753 8.59116 14.7587 8.67516 14.6C8.75916 14.4413 8.76383 14.2033 8.68916 13.886C8.6705 13.8113 8.65183 13.7413 8.63316 13.676C8.11983 13.676 7.5925 13.6853 7.05116 13.704C6.51916 13.7227 5.97783 13.76 5.42716 13.816L5.38516 13.872C5.23583 14.1333 5.18916 14.3667 5.24516 14.572C5.3105 14.7773 5.48783 14.9033 5.77716 14.95C5.79583 15.118 5.80516 15.2953 5.80516 15.482C5.8145 15.6593 5.79583 15.846 5.74916 16.042C5.6465 16.0327 5.48783 16.0233 5.27316 16.014C5.0585 16.014 4.8345 16.0093 4.60116 16C4.37716 16 4.18583 16 4.02716 16C3.79383 16 3.55583 16 3.31316 16C3.07983 16.0093 2.8885 16.0233 2.73916 16.042ZM6.99516 11.044C6.84583 11.3333 6.68716 11.6227 6.51916 11.912C6.3605 12.192 6.20183 12.4767 6.04316 12.766H8.40916C8.34383 12.486 8.26916 12.206 8.18516 11.926C8.1105 11.6367 8.03116 11.352 7.94716 11.072C7.83516 10.6893 7.75116 10.2133 7.69516 9.644C7.5645 9.91467 7.4385 10.1713 7.31716 10.414C7.19583 10.6567 7.0885 10.8667 6.99516 11.044ZM14.9634 19.472C14.4034 19.472 13.9507 19.4067 13.6054 19.276C13.26 19.1453 12.9334 18.9587 12.6254 18.716C12.6254 18.5293 12.6534 18.3007 12.7094 18.03C12.7747 17.7593 12.854 17.526 12.9474 17.33C13.1994 17.4233 13.4794 17.5027 13.7874 17.568C14.1047 17.6427 14.4174 17.694 14.7254 17.722C15.0427 17.7593 15.3227 17.778 15.5654 17.778C15.9107 17.778 16.1627 17.736 16.3214 17.652C16.48 17.568 16.592 17.414 16.6574 17.19C16.7227 16.9753 16.7834 16.6673 16.8394 16.266C16.8954 15.8833 16.9794 15.4913 17.0914 15.09C17.2034 14.6887 17.362 14.2127 17.5674 13.662L17.6794 13.382H17.6234C17.2874 14.3433 16.886 15.0433 16.4194 15.482C15.962 15.9113 15.416 16.126 14.7814 16.126C14.2867 16.126 13.8947 16.0187 13.6054 15.804C13.3254 15.58 13.1247 15.2953 13.0034 14.95C12.882 14.6047 12.8214 14.236 12.8214 13.844C12.8214 13.452 12.854 13.088 12.9194 12.752C13.0407 12.1547 13.26 11.6087 13.5774 11.114C13.904 10.6193 14.3567 10.2227 14.9354 9.924C15.5234 9.616 16.2654 9.462 17.1614 9.462C17.4974 9.462 17.796 9.48533 18.0574 9.532C18.328 9.56933 18.5707 9.62533 18.7854 9.7C19.1027 9.672 19.3687 9.63933 19.5834 9.602C19.8074 9.56467 19.9987 9.518 20.1574 9.462C20.3534 9.61133 20.4747 9.77933 20.5214 9.966C20.5774 10.1433 20.582 10.3767 20.5354 10.666L19.8914 14.334C19.7607 15.0247 19.574 15.678 19.3314 16.294C19.0887 16.91 18.7714 17.456 18.3794 17.932C17.9967 18.408 17.5207 18.7813 16.9514 19.052C16.3914 19.332 15.7287 19.472 14.9634 19.472ZM15.7894 12.304C15.5094 13.6107 15.6167 14.264 16.1114 14.264C16.27 14.264 16.4474 14.18 16.6434 14.012C16.8487 13.8347 17.0494 13.5313 17.2454 13.102C17.4414 12.6633 17.614 12.0613 17.7634 11.296L17.9174 10.652C17.8054 10.6053 17.6607 10.568 17.4834 10.54C17.3154 10.512 17.18 10.498 17.0774 10.498C16.7134 10.498 16.4334 10.6707 16.2374 11.016C16.0507 11.352 15.9014 11.7813 15.7894 12.304Z" fill="#333333"/>
</svg>
