<svg width="24" height="24" viewBox="0 0 24 24" fill="none" xmlns="http://www.w3.org/2000/svg">
<path d="M2.94523 16.042C2.94523 15.902 2.95923 15.7713 2.98723 15.65C3.0059 15.5193 3.03857 15.398 3.08523 15.286C3.25323 15.2393 3.40257 15.1693 3.53323 15.076C3.6639 14.9733 3.8039 14.824 3.95323 14.628C4.10257 14.4227 4.28923 14.138 4.51323 13.774C5.10123 12.7753 5.72657 11.702 6.38923 10.554C7.06123 9.39667 7.83123 8.05733 8.69923 6.536C8.81123 6.49867 8.9279 6.47533 9.04923 6.466C9.17057 6.45667 9.2919 6.452 9.41323 6.452C9.7959 7.74933 10.1552 9.03267 10.4912 10.302C10.8272 11.562 11.1306 12.752 11.4012 13.872C11.4946 14.264 11.5786 14.5533 11.6532 14.74C11.7279 14.9267 11.8119 15.0573 11.9052 15.132C11.9986 15.1973 12.1106 15.2487 12.2412 15.286C12.2692 15.398 12.2832 15.5193 12.2832 15.65C12.2926 15.7713 12.2926 15.902 12.2832 16.042C12.1152 16.0233 11.9192 16.0093 11.6952 16C11.4712 16 11.2519 16 11.0372 16C10.8226 16 10.6452 16 10.5052 16C10.2719 16 9.96857 16 9.59523 16C9.23123 16.0093 8.90923 16.0233 8.62923 16.042C8.62923 15.734 8.6759 15.482 8.76923 15.286C9.17057 15.23 9.4179 15.1273 9.51123 14.978C9.6139 14.8287 9.61857 14.558 9.52523 14.166C9.4879 13.998 9.4459 13.8347 9.39923 13.676C9.3619 13.508 9.32457 13.34 9.28723 13.172C8.7179 13.172 8.12057 13.1813 7.49523 13.2C6.87923 13.2093 6.28657 13.228 5.71723 13.256C5.58657 13.4893 5.45123 13.7227 5.31123 13.956C5.04057 14.4133 4.92857 14.7353 4.97523 14.922C5.03123 15.0993 5.2319 15.2207 5.57723 15.286C5.5959 15.4073 5.60523 15.5333 5.60523 15.664C5.61457 15.7853 5.6099 15.9113 5.59123 16.042C5.39523 16.0233 5.1619 16.0093 4.89123 16C4.6299 16 4.38723 16 4.16323 16C3.9299 16 3.71523 16 3.51923 16C3.32323 16.0093 3.1319 16.0233 2.94523 16.042ZM7.41123 10.232C7.21523 10.596 7.01457 10.9647 6.80923 11.338C6.6039 11.702 6.39857 12.0707 6.19323 12.444H9.10523C9.0119 12.0613 8.9139 11.6833 8.81123 11.31C8.70857 10.9273 8.6059 10.5493 8.50323 10.176C8.36323 9.728 8.26057 9.22867 8.19523 8.678C8.06457 8.958 7.9339 9.224 7.80323 9.476C7.6819 9.71867 7.55123 9.97067 7.41123 10.232ZM14.6898 19.472C14.2978 19.472 13.9431 19.4113 13.6258 19.29C13.3085 19.1687 13.0098 19.0007 12.7298 18.786C12.6925 18.4033 12.7531 18.0533 12.9118 17.736C13.2758 17.876 13.6725 17.9833 14.1018 18.058C14.5405 18.1327 14.9418 18.17 15.3058 18.17C15.5018 18.17 15.6605 18.1467 15.7818 18.1C15.9031 18.0533 16.0058 17.946 16.0898 17.778C16.1831 17.6193 16.2671 17.3627 16.3418 17.008C16.4165 16.6627 16.5005 16.1867 16.5938 15.58C16.6871 15.0293 16.8831 14.3573 17.1818 13.564L17.2798 13.298H17.2518C17.0651 13.8207 16.8225 14.2967 16.5238 14.726C16.2345 15.1553 15.9078 15.496 15.5438 15.748C15.1891 16 14.8111 16.126 14.4098 16.126C13.7751 16.126 13.3598 15.8413 13.1638 15.272C12.9678 14.7027 12.9631 13.956 13.1498 13.032C13.2805 12.36 13.5185 11.7533 13.8638 11.212C14.2185 10.6707 14.6665 10.246 15.2078 9.938C15.7491 9.62067 16.3698 9.462 17.0698 9.462C17.2565 9.462 17.4431 9.48067 17.6298 9.518C17.8165 9.546 17.9798 9.58333 18.1198 9.63C18.5211 9.602 18.8291 9.546 19.0438 9.462C19.1651 9.53667 19.2445 9.63933 19.2818 9.77C19.3191 9.89133 19.3145 10.0967 19.2678 10.386L18.5678 14.348C18.3998 15.3093 18.1431 16.1773 17.7978 16.952C17.4525 17.7267 17.0185 18.338 16.4958 18.786C15.9825 19.2433 15.3805 19.472 14.6898 19.472ZM14.9838 12.458C14.8251 13.2047 14.7831 13.774 14.8578 14.166C14.9325 14.558 15.1005 14.754 15.3618 14.754C15.5298 14.754 15.7445 14.628 16.0058 14.376C16.2671 14.1147 16.5285 13.7273 16.7898 13.214C17.0511 12.7007 17.2658 12.0613 17.4338 11.296L17.6438 10.428C17.5225 10.3813 17.3825 10.344 17.2238 10.316C17.0745 10.288 16.9345 10.274 16.8038 10.274C16.2905 10.274 15.8891 10.4793 15.5998 10.89C15.3198 11.3007 15.1145 11.8233 14.9838 12.458Z" fill="#333333"/>
</svg>
