<svg width="24" height="24" viewBox="0 0 24 24" fill="none" xmlns="http://www.w3.org/2000/svg">
<path d="M8.44985 6.452L11.7119 13.83C11.8892 14.222 12.0339 14.5207 12.1459 14.726C12.2579 14.922 12.3652 15.0573 12.4679 15.132C12.5799 15.2067 12.7012 15.258 12.8319 15.286C12.8692 15.4073 12.8925 15.5287 12.9019 15.65C12.9205 15.762 12.9299 15.8927 12.9299 16.042C12.8085 16.0327 12.6312 16.0233 12.3979 16.014C12.1739 16.014 11.9452 16.0093 11.7119 16C11.4785 16 11.2872 16 11.1379 16C11.0259 16 10.8812 16 10.7039 16C10.5359 16.0093 10.3585 16.014 10.1719 16.014C9.98519 16.0233 9.81252 16.028 9.65385 16.028C9.49519 16.0373 9.36919 16.042 9.27585 16.042C9.27585 15.8833 9.28052 15.7433 9.28985 15.622C9.30852 15.5007 9.33652 15.3887 9.37385 15.286C9.73785 15.23 9.95252 15.1367 10.0179 15.006C10.0832 14.866 10.0319 14.5953 9.86385 14.194L8.21185 10.372C8.04385 9.99867 7.90385 9.658 7.79185 9.35C7.67985 9.03267 7.56785 8.68733 7.45585 8.314H7.67985C7.56785 8.69667 7.45585 9.05133 7.34385 9.378C7.23185 9.70467 7.11052 10.0313 6.97985 10.358L5.60785 13.914C5.44918 14.3527 5.40718 14.684 5.48185 14.908C5.55652 15.1227 5.77118 15.2487 6.12585 15.286C6.16319 15.3887 6.18652 15.5053 6.19585 15.636C6.21452 15.7573 6.22385 15.8927 6.22385 16.042C6.12119 16.0327 5.98585 16.0233 5.81785 16.014C5.65918 16.014 5.48652 16.0093 5.29985 16C5.12252 16 4.95452 16 4.79585 16C4.56252 16 4.33385 16.0047 4.10985 16.014C3.88585 16.0233 3.70852 16.0327 3.57785 16.042C3.57785 15.9113 3.58252 15.7853 3.59185 15.664C3.61052 15.5333 3.64318 15.4073 3.68985 15.286C3.84852 15.258 3.98385 15.1973 4.09585 15.104C4.20785 15.0107 4.31985 14.8613 4.43185 14.656C4.54385 14.4507 4.66985 14.1707 4.80985 13.816L7.73585 6.522C7.85719 6.494 7.96919 6.47533 8.07185 6.466C8.17452 6.45667 8.30052 6.452 8.44985 6.452ZM9.38785 12.444L9.56985 13.158C8.94452 13.158 8.28185 13.1673 7.58185 13.186C6.89119 13.1953 6.23785 13.2187 5.62185 13.256L5.84585 12.444H9.38785ZM16.276 19.486C15.6413 19.486 15.1326 19.4113 14.75 19.262C14.3766 19.122 14.106 18.9167 13.938 18.646C13.77 18.3753 13.686 18.058 13.686 17.694C13.686 17.3393 13.784 17.0313 13.98 16.77C14.1853 16.5087 14.4793 16.3127 14.862 16.182L15.702 16.294C15.4873 16.4713 15.3426 16.6347 15.268 16.784C15.1933 16.9427 15.156 17.1293 15.156 17.344C15.156 17.7733 15.268 18.0953 15.492 18.31C15.7253 18.5247 16.1173 18.632 16.668 18.632C17.2746 18.632 17.746 18.5013 18.082 18.24C18.4273 17.9787 18.6 17.6707 18.6 17.316C18.6 17.12 18.5486 16.966 18.446 16.854C18.3433 16.742 18.152 16.658 17.872 16.602C17.592 16.5553 17.1813 16.532 16.64 16.532C16.2293 16.5227 15.8653 16.4993 15.548 16.462C15.2306 16.4247 14.96 16.3547 14.736 16.252C14.5213 16.1493 14.358 16.0093 14.246 15.832C14.134 15.6547 14.078 15.4213 14.078 15.132C14.078 14.7773 14.176 14.46 14.372 14.18C14.568 13.8907 14.8013 13.6387 15.072 13.424L15.856 13.774C15.6973 13.886 15.576 14.0027 15.492 14.124C15.4173 14.236 15.38 14.3433 15.38 14.446C15.38 14.614 15.4453 14.7353 15.576 14.81C15.7066 14.8847 15.926 14.9313 16.234 14.95C16.5513 14.9687 16.976 14.978 17.508 14.978C18.0866 14.978 18.5673 15.0293 18.95 15.132C19.342 15.2253 19.6313 15.3887 19.818 15.622C20.014 15.8553 20.112 16.1867 20.112 16.616C20.112 16.98 20.0186 17.33 19.832 17.666C19.6453 18.0113 19.384 18.3193 19.048 18.59C18.712 18.8607 18.306 19.0753 17.83 19.234C17.3633 19.402 16.8453 19.486 16.276 19.486ZM16.696 14.04C16.1546 14.04 15.674 13.956 15.254 13.788C14.834 13.62 14.5026 13.368 14.26 13.032C14.0173 12.696 13.896 12.276 13.896 11.772C13.896 11.3147 13.9986 10.9133 14.204 10.568C14.4093 10.2227 14.7173 9.952 15.128 9.756C15.5386 9.56 16.0333 9.462 16.612 9.462C17.1346 9.462 17.578 9.53667 17.942 9.686C18.3153 9.83533 18.6186 10.0313 18.852 10.274C19.0853 10.5073 19.2533 10.7593 19.356 11.03C19.468 11.3007 19.524 11.548 19.524 11.772C19.524 12.2013 19.4166 12.5887 19.202 12.934C18.9966 13.27 18.684 13.5407 18.264 13.746C17.844 13.942 17.3213 14.04 16.696 14.04ZM16.864 13.298C17.1533 13.298 17.382 13.1767 17.55 12.934C17.7273 12.6913 17.816 12.3367 17.816 11.87C17.816 11.3753 17.7086 10.9693 17.494 10.652C17.2793 10.3253 16.9806 10.162 16.598 10.162C16.262 10.162 16.0146 10.302 15.856 10.582C15.6973 10.862 15.618 11.198 15.618 11.59C15.618 12.1407 15.7253 12.5653 15.94 12.864C16.164 13.1533 16.472 13.298 16.864 13.298ZM20.252 10.582C20.0933 10.5353 19.916 10.4933 19.72 10.456C19.5333 10.4187 19.3466 10.386 19.16 10.358C18.9733 10.33 18.8053 10.3113 18.656 10.302L17.466 9.588H20.126C20.1726 9.71867 20.2053 9.87267 20.224 10.05C20.2426 10.218 20.252 10.3953 20.252 10.582Z" fill="#888888"/>
</svg>
