<svg width="24" height="24" viewBox="0 0 24 24" fill="none" xmlns="http://www.w3.org/2000/svg">
<path d="M11.4905 14.32C11.4905 14.5347 11.4719 14.7213 11.4345 14.88C11.4719 15.0293 11.4905 15.216 11.4905 15.44C11.4905 15.6547 11.4719 15.8413 11.4345 16H10.3145C10.2772 15.8413 10.2585 15.6547 10.2585 15.44C10.2585 15.216 10.2772 15.0293 10.3145 14.88C10.2772 14.7213 10.2585 14.5347 10.2585 14.32C10.2585 14.096 10.2772 13.9093 10.3145 13.76H8.07453C8.11186 13.9093 8.13053 14.096 8.13053 14.32C8.13053 14.5347 8.11186 14.7213 8.07453 14.88C8.11186 15.0293 8.13053 15.216 8.13053 15.44C8.13053 15.6547 8.11186 15.8413 8.07453 16H6.95453C6.9172 15.8413 6.89853 15.6547 6.89853 15.44C6.89853 15.216 6.9172 15.0293 6.95453 14.88C6.9172 14.7213 6.89853 14.5347 6.89853 14.32C6.89853 14.096 6.9172 13.9093 6.95453 13.76H7.37453C7.3372 13.6013 7.31853 13.4147 7.31853 13.2C7.31853 12.976 7.3372 12.7893 7.37453 12.64C7.3372 12.4813 7.31853 12.2947 7.31853 12.08C7.31853 11.856 7.3372 11.6693 7.37453 11.52H7.65453C7.6172 11.3613 7.59853 11.1747 7.59853 10.96C7.59853 10.736 7.6172 10.5493 7.65453 10.4H8.07453C8.0372 10.2413 8.01853 10.0547 8.01853 9.84C8.01853 9.616 8.0372 9.42933 8.07453 9.28H8.35453C8.3172 9.12133 8.29853 8.93467 8.29853 8.72C8.29853 8.496 8.3172 8.30933 8.35453 8.16H10.0345C10.0719 8.30933 10.0905 8.496 10.0905 8.72C10.0905 8.93467 10.0719 9.12133 10.0345 9.28H10.3145C10.3519 9.42933 10.3705 9.616 10.3705 9.84C10.3705 10.0547 10.3519 10.2413 10.3145 10.4H10.7345C10.7719 10.5493 10.7905 10.736 10.7905 10.96C10.7905 11.1747 10.7719 11.3613 10.7345 11.52H11.0145C11.0519 11.6693 11.0705 11.856 11.0705 12.08C11.0705 12.2947 11.0519 12.4813 11.0145 12.64C11.0519 12.7893 11.0705 12.976 11.0705 13.2C11.0705 13.4147 11.0519 13.6013 11.0145 13.76H11.4345C11.4719 13.9093 11.4905 14.096 11.4905 14.32ZM9.89453 12.64C9.8572 12.4813 9.83853 12.2947 9.83853 12.08C9.83853 11.856 9.8572 11.6693 9.89453 11.52H9.61453C9.5772 11.3613 9.55853 11.1747 9.55853 10.96C9.55853 10.736 9.5772 10.5493 9.61453 10.4H8.77453C8.81186 10.5493 8.83053 10.736 8.83053 10.96C8.83053 11.1747 8.81186 11.3613 8.77453 11.52H8.49453C8.53186 11.6693 8.55053 11.856 8.55053 12.08C8.55053 12.2947 8.53186 12.4813 8.49453 12.64H9.89453ZM17.04 11.52C17.0773 11.6693 17.096 11.856 17.096 12.08C17.096 12.2947 17.0773 12.4813 17.04 12.64C17.0773 12.7893 17.096 12.976 17.096 13.2C17.096 13.4147 17.0773 13.6013 17.04 13.76C17.0773 13.9093 17.096 14.096 17.096 14.32C17.096 14.5347 17.0773 14.7213 17.04 14.88C17.0773 15.0293 17.096 15.216 17.096 15.44C17.096 15.6547 17.0773 15.8413 17.04 16H16.48C16.5173 16.1493 16.536 16.336 16.536 16.56C16.536 16.7747 16.5173 16.9613 16.48 17.12H15.92C15.9573 17.2693 15.976 17.456 15.976 17.68C15.976 17.8947 15.9573 18.0813 15.92 18.24H13.68C13.6427 18.0813 13.624 17.8947 13.624 17.68C13.624 17.456 13.6427 17.2693 13.68 17.12H15.36C15.3227 16.9613 15.304 16.7747 15.304 16.56C15.304 16.336 15.3227 16.1493 15.36 16H15.92C15.8827 15.8413 15.864 15.6547 15.864 15.44C15.864 15.216 15.8827 15.0293 15.92 14.88H15.36C15.3227 14.7213 15.304 14.5347 15.304 14.32C15.304 14.096 15.3227 13.9093 15.36 13.76H15.92C15.8827 13.6013 15.864 13.4147 15.864 13.2C15.864 12.976 15.8827 12.7893 15.92 12.64C15.8827 12.4813 15.864 12.2947 15.864 12.08C15.864 11.856 15.8827 11.6693 15.92 11.52H14.1C14.1373 11.6693 14.156 11.856 14.156 12.08C14.156 12.2947 14.1373 12.4813 14.1 12.64H13.68C13.7173 12.7893 13.736 12.976 13.736 13.2C13.736 13.4147 13.7173 13.6013 13.68 13.76H14.1C14.1373 13.9093 14.156 14.096 14.156 14.32C14.156 14.5347 14.1373 14.7213 14.1 14.88H15.36C15.3973 15.0293 15.416 15.216 15.416 15.44C15.416 15.6547 15.3973 15.8413 15.36 16H13.68C13.6427 15.8413 13.624 15.6547 13.624 15.44C13.624 15.216 13.6427 15.0293 13.68 14.88H12.98C12.9427 14.7213 12.924 14.5347 12.924 14.32C12.924 14.096 12.9427 13.9093 12.98 13.76H12.56C12.5227 13.6013 12.504 13.4147 12.504 13.2C12.504 12.976 12.5227 12.7893 12.56 12.64H12.98C12.9427 12.4813 12.924 12.2947 12.924 12.08C12.924 11.856 12.9427 11.6693 12.98 11.52H13.68C13.6427 11.3613 13.624 11.1747 13.624 10.96C13.624 10.736 13.6427 10.5493 13.68 10.4H17.04C17.0773 10.5493 17.096 10.736 17.096 10.96C17.096 11.1747 17.0773 11.3613 17.04 11.52Z" fill="#333333"/>
</svg>
