<svg width="24" height="24" viewBox="0 0 24 24" fill="none" xmlns="http://www.w3.org/2000/svg">
<g clip-path="url(#clip0_264_920)">
<path d="M4.30107 17.7307C3.65819 17.7307 3.16035 17.5778 2.80755 17.2721C2.46259 16.9742 2.29011 16.59 2.29011 16.1196C2.29011 15.657 2.45475 15.1631 2.78403 14.6378C3.12115 14.1126 3.62683 13.6108 4.30107 13.1326C4.66955 12.8738 5.03019 12.6739 5.38299 12.5328C5.74363 12.3917 6.07291 12.3094 6.37083 12.2858C6.47275 12.2858 6.54331 12.3015 6.58251 12.3329C6.59035 12.3407 6.59819 12.3564 6.60603 12.3799C6.61387 12.4034 6.60995 12.427 6.59427 12.4505C6.57859 12.4662 6.55899 12.4779 6.53547 12.4858C6.51979 12.4858 6.50019 12.4897 6.47667 12.4975C6.18659 12.5289 5.88083 12.6269 5.55939 12.7915C5.23795 12.9483 4.91651 13.1443 4.59507 13.3795C3.99139 13.8264 3.55235 14.2615 3.27795 14.6849C3.01139 15.1004 2.87811 15.4728 2.87811 15.8021C2.87811 16.1706 3.04275 16.4763 3.37203 16.7194C3.70915 16.9624 4.19523 17.0839 4.83027 17.0839C5.62211 17.0839 6.43747 16.9428 7.27635 16.6606C8.11523 16.3783 8.96587 15.9902 9.82827 15.4963C10.6907 15.0102 11.5452 14.4614 12.392 13.8499C12.1019 13.795 11.804 13.7323 11.4982 13.6618C11.1924 13.5834 10.9494 13.4893 10.7691 13.3795C10.6672 13.3168 10.5809 13.2462 10.5104 13.1678C10.4398 13.0894 10.4045 13.0071 10.4045 12.9209C10.4045 12.8582 10.428 12.7915 10.4751 12.721C10.5378 12.6504 10.6162 12.5994 10.7103 12.5681C10.8122 12.5367 10.918 12.521 11.0278 12.521C11.2316 12.521 11.459 12.5563 11.7099 12.6269C11.9686 12.6896 12.2273 12.7758 12.486 12.8856C12.7526 12.9954 12.9956 13.109 13.2152 13.2266C13.8188 12.7562 14.4068 12.2662 14.9792 11.7566C15.5593 11.247 16.1238 10.7374 16.6726 10.2278C16.7588 10.0475 16.849 9.87112 16.9431 9.69864C17.045 9.52616 17.1469 9.3576 17.2488 9.19296C17.3351 9.05968 17.4448 8.88328 17.5781 8.66376C17.7114 8.4364 17.8604 8.21688 18.025 8.0052C18.1896 7.78568 18.37 7.5936 18.566 7.42896C18.7698 7.25648 18.9776 7.15848 19.1892 7.13496C19.3304 7.11928 19.4323 7.15456 19.495 7.2408C19.5656 7.3192 19.6008 7.40936 19.6008 7.51128C19.6008 7.7308 19.5381 7.93072 19.4127 8.11104C19.2872 8.28352 19.1461 8.44816 18.9893 8.60496C18.5346 9.05184 18.0407 9.51048 17.5076 9.98088C17.1469 10.5924 16.8098 11.2274 16.4962 11.886C16.1826 12.5367 15.9356 13.1286 15.7553 13.6618C16.2414 13.6069 16.6412 13.5128 16.9548 13.3795C17.2763 13.2384 17.4252 13.0346 17.4017 12.768C17.4017 12.6504 17.4448 12.5916 17.5311 12.5916C17.586 12.5916 17.633 12.6151 17.6722 12.6622C17.7114 12.7092 17.731 12.768 17.731 12.8386C17.731 13.0659 17.6252 13.2541 17.4135 13.403C17.2096 13.552 16.947 13.6696 16.6256 13.7558C16.312 13.8421 15.9905 13.9087 15.6612 13.9558C15.6142 14.1204 15.5711 14.2772 15.5319 14.4262C15.4927 14.5751 15.4652 14.7162 15.4496 14.8495C15.4496 14.8966 15.4496 14.9475 15.4496 15.0024C15.4574 15.0494 15.4652 15.0965 15.4731 15.1435C15.4888 15.1906 15.5005 15.2298 15.5084 15.2611C15.5162 15.2925 15.5201 15.316 15.5201 15.3317C15.5515 15.465 15.5044 15.5826 15.379 15.6845C15.2614 15.7864 15.1399 15.8374 15.0144 15.8374C14.8812 15.8374 14.7988 15.7786 14.7675 15.661C14.7596 15.6374 14.7557 15.6139 14.7557 15.5904C14.7557 15.5669 14.7518 15.5473 14.744 15.5316C14.6969 15.4218 14.6224 15.2846 14.5205 15.12C14.4186 14.9632 14.3088 14.8064 14.1912 14.6496C14.0736 14.4928 13.9678 14.3595 13.8737 14.2498C13.7796 14.1322 13.7169 14.0694 13.6856 14.0616C13.6699 14.0538 13.6111 14.042 13.5092 14.0263C13.4072 14.0028 13.2857 13.9832 13.1446 13.9675C13.0897 13.9518 13.0309 13.9401 12.9682 13.9322C12.9055 13.9244 12.8428 13.9166 12.78 13.9087C12.0588 14.434 11.3296 14.9279 10.5927 15.3905C9.85571 15.853 9.12267 16.2568 8.39355 16.6018C7.67227 16.9546 6.96667 17.229 6.27675 17.425C5.58683 17.6288 4.92827 17.7307 4.30107 17.7307ZM18.2249 8.8872C18.3347 8.77744 18.4444 8.66768 18.5542 8.55792C18.6718 8.44816 18.7816 8.3384 18.8835 8.22864C18.9462 8.16592 19.0207 8.09144 19.1069 8.0052C19.1932 7.91896 19.2363 7.8484 19.2363 7.79352C19.2363 7.76216 19.2245 7.74648 19.201 7.74648C19.154 7.74648 19.0991 7.78568 19.0364 7.86408C18.9109 8.0052 18.7776 8.162 18.6365 8.33448C18.5032 8.50696 18.366 8.6912 18.2249 8.8872ZM14.5911 13.7088C14.6695 13.7088 14.7479 13.7088 14.8263 13.7088C14.9125 13.7088 14.9988 13.7049 15.085 13.697C15.2104 13.3442 15.3672 12.9483 15.5554 12.5093C15.7514 12.0702 15.9592 11.6234 16.1787 11.1686C15.7553 11.5371 15.3163 11.9095 14.8616 12.2858C14.4147 12.6543 13.956 13.0189 13.4856 13.3795C13.5719 13.4344 13.6464 13.4893 13.7091 13.5442C13.7796 13.5912 13.8384 13.6343 13.8855 13.6735C14.0501 13.697 14.2853 13.7088 14.5911 13.7088ZM12.78 13.5559L12.8624 13.4854C12.4233 13.2658 11.9568 13.1326 11.4629 13.0855H11.3806C11.2865 13.0855 11.2395 13.0973 11.2395 13.1208C11.2395 13.1365 11.2591 13.1561 11.2983 13.1796C11.3375 13.2031 11.3728 13.2227 11.4041 13.2384C11.5609 13.2933 11.7687 13.3521 12.0274 13.4148C12.294 13.4697 12.5448 13.5167 12.78 13.5559ZM14.7675 14.8495C14.7753 14.8338 14.7792 14.8182 14.7792 14.8025C14.7792 14.779 14.7832 14.7594 14.791 14.7437C14.8145 14.6182 14.842 14.4967 14.8733 14.3791C14.9125 14.2537 14.9478 14.1322 14.9792 14.0146C14.8302 14.0224 14.6891 14.0302 14.5558 14.0381C14.4304 14.0381 14.3167 14.0381 14.2148 14.0381C14.301 14.14 14.3951 14.2654 14.497 14.4144C14.5989 14.5555 14.6891 14.7006 14.7675 14.8495ZM15.2736 20.1062C15.0698 20.1062 14.862 20.0788 14.6503 20.0239C14.4308 19.9769 14.2505 19.8867 14.1094 19.7534C13.9604 19.628 13.8859 19.4516 13.8859 19.2242C13.8859 18.942 13.9996 18.6402 14.227 18.3187C14.4543 17.9973 14.7954 17.6994 15.2501 17.425C15.6891 17.1584 16.1243 16.9271 16.5555 16.7311C16.9867 16.543 17.4179 16.3744 17.8491 16.2254C18.2724 16.0765 18.6997 15.9354 19.1309 15.8021C19.5621 15.6766 20.0403 15.5277 20.5656 15.3552C20.7067 15.073 20.8165 14.7829 20.8949 14.485C20.9811 14.187 21.0243 13.9283 21.0243 13.7088C21.0243 13.5677 21.0047 13.4501 20.9655 13.356C20.9419 13.3717 20.9263 13.3874 20.9184 13.403C20.9106 13.4187 20.8988 13.4344 20.8831 13.4501C20.8283 13.505 20.7616 13.5755 20.6832 13.6618C20.6048 13.7402 20.5186 13.8264 20.4245 13.9205C20.2677 14.0773 20.0678 14.2615 19.8247 14.4732C19.5895 14.6849 19.3426 14.8691 19.0839 15.0259C18.833 15.1749 18.5899 15.2494 18.3547 15.2494C18.245 15.2494 18.1391 15.2219 18.0372 15.167C17.9353 15.12 17.8451 15.0416 17.7667 14.9318C17.6727 14.7986 17.6256 14.6496 17.6256 14.485C17.6256 14.2498 17.6962 13.9989 17.8373 13.7323C17.9863 13.4658 18.1744 13.207 18.4018 12.9562C18.6291 12.6974 18.8683 12.474 19.1191 12.2858C19.3779 12.0977 19.617 11.9644 19.8365 11.886C19.9149 11.8625 19.9933 11.8429 20.0717 11.8272C20.1579 11.8115 20.252 11.8037 20.3539 11.8037C20.5735 11.8037 20.7891 11.8546 21.0007 11.9566C21.2203 12.0506 21.3457 12.227 21.3771 12.4858V12.521C21.3771 12.6386 21.3418 12.717 21.2712 12.7562C21.2555 12.7719 21.232 12.7798 21.2007 12.7798C21.1223 12.7798 21.0831 12.7288 21.0831 12.6269C21.0831 12.572 21.0595 12.4897 21.0125 12.3799C20.9655 12.2702 20.8518 12.2153 20.6715 12.2153C20.4363 12.2153 20.1736 12.2976 19.8835 12.4622C19.6013 12.6269 19.3269 12.8346 19.0603 13.0855C18.7938 13.3286 18.5664 13.5834 18.3783 13.8499C18.1979 14.1165 18.0921 14.3517 18.0607 14.5555C18.0529 14.5869 18.049 14.6143 18.049 14.6378C18.049 14.6614 18.049 14.681 18.049 14.6966C18.049 14.8142 18.0686 14.8926 18.1078 14.9318C18.1548 14.9632 18.2019 14.9789 18.2489 14.9789C18.3665 14.9789 18.5037 14.9318 18.6605 14.8378C18.8251 14.7437 18.978 14.6418 19.1191 14.532C19.2681 14.4144 19.3779 14.3282 19.4484 14.2733C19.6523 14.1008 19.86 13.9205 20.0717 13.7323C20.2912 13.5442 20.5107 13.356 20.7303 13.1678C20.7224 13.1522 20.7185 13.1286 20.7185 13.0973C20.7185 13.0581 20.7263 13.0228 20.742 12.9914C20.7812 12.9287 20.8361 12.8778 20.9067 12.8386C20.9772 12.7994 21.0752 12.7798 21.2007 12.7798C21.3731 12.7798 21.4986 12.8464 21.577 12.9797C21.6554 13.113 21.6946 13.2894 21.6946 13.5089C21.6946 13.7049 21.6632 13.9401 21.6005 14.2145C21.5378 14.481 21.4398 14.775 21.3065 15.0965C22.0513 14.8221 22.7138 14.5281 23.2939 14.2145C23.8741 13.9009 24.3327 13.5873 24.6699 13.2737C24.7169 13.2266 24.7875 13.16 24.8815 13.0738C24.9835 12.9875 25.0854 12.9052 25.1873 12.8268C25.2422 12.7876 25.2892 12.7523 25.3284 12.721C25.3755 12.6818 25.4147 12.6504 25.446 12.6269C25.4931 12.5955 25.5244 12.5798 25.5401 12.5798C25.6107 12.5485 25.6459 12.5681 25.6459 12.6386C25.6459 12.6857 25.6146 12.7602 25.5519 12.8621C25.4891 12.9562 25.3637 13.0973 25.1755 13.2854C24.6346 13.8186 24.0113 14.285 23.3057 14.6849C22.6079 15.0847 21.8671 15.3748 21.0831 15.5551C20.8008 16.1274 20.448 16.6841 20.0247 17.225C19.6013 17.766 19.127 18.2521 18.6017 18.6833C18.0843 19.1145 17.5394 19.4555 16.9671 19.7064C16.4026 19.9651 15.8381 20.0984 15.2736 20.1062ZM15.1207 19.8358C15.6382 19.8358 16.1478 19.7142 16.6495 19.4712C17.1591 19.236 17.6413 18.9185 18.096 18.5186C18.5507 18.1188 18.9663 17.6798 19.3426 17.2015C19.7267 16.7311 20.0521 16.2607 20.3187 15.7903C19.3308 16.0804 18.4645 16.3666 17.7197 16.6488C16.9749 16.9389 16.2771 17.2995 15.6264 17.7307C15.1482 18.0443 14.8071 18.3344 14.6033 18.601C14.3995 18.8675 14.2975 19.0949 14.2975 19.283C14.2975 19.432 14.3681 19.5614 14.5092 19.6711C14.6503 19.7809 14.8542 19.8358 15.1207 19.8358Z" fill="#888888"/>
</g>
<defs>
<clipPath id="clip0_264_920">
<rect width="24" height="24" fill="white"/>
</clipPath>
</defs>
</svg>
