<svg width="24" height="24" viewBox="0 0 24 24" fill="none" xmlns="http://www.w3.org/2000/svg">
<path d="M2.55387 17L7.80388 7.76H11.2619L12.1859 17H9.48388L9.38588 14.998H6.52988L5.50788 17H2.55387ZM7.48188 13.15H9.31588L9.16188 9.846L7.48188 13.15ZM15.8635 20.01C15.4342 20.01 15.0188 19.9587 14.6175 19.856C14.2255 19.7533 13.8708 19.59 13.5535 19.366C13.2362 19.1513 12.9935 18.876 12.8255 18.54C12.6482 18.204 12.5642 17.8073 12.5735 17.35L15.4015 17.14C15.3922 17.4853 15.4388 17.7607 15.5415 17.966C15.6442 18.1713 15.8682 18.274 16.2135 18.274C16.4002 18.274 16.5635 18.2227 16.7035 18.12C16.8528 18.0267 16.9835 17.8773 17.0955 17.672C17.2075 17.476 17.3008 17.2053 17.3755 16.86L17.9495 14.382L18.0475 14.452C17.9075 15.2173 17.6322 15.8053 17.2215 16.216C16.8108 16.6173 16.2835 16.818 15.6395 16.818C15.2008 16.818 14.8042 16.7153 14.4495 16.51C14.1042 16.3047 13.8288 16.006 13.6235 15.614C13.4182 15.2127 13.3155 14.7227 13.3155 14.144C13.3155 13.6027 13.3902 13.0753 13.5395 12.562C13.6982 12.0487 13.9222 11.5913 14.2115 11.19C14.5102 10.7793 14.8648 10.4573 15.2755 10.224C15.6955 9.98133 16.1668 9.86 16.6895 9.86C17.0162 9.86 17.3288 9.93467 17.6275 10.084C17.9262 10.2333 18.1688 10.476 18.3555 10.812C18.5515 11.1387 18.6402 11.568 18.6215 12.1L18.3275 12.534L18.9015 10H21.7295L20.2175 16.538C20.0215 17.4153 19.7322 18.106 19.3495 18.61C18.9668 19.114 18.4862 19.4733 17.9075 19.688C17.3382 19.9027 16.6568 20.01 15.8635 20.01ZM16.9555 14.816C17.2168 14.816 17.4362 14.718 17.6135 14.522C17.8002 14.3167 17.9402 14.0647 18.0335 13.766C18.1362 13.4673 18.1875 13.164 18.1875 12.856C18.1875 12.66 18.1548 12.492 18.0895 12.352C18.0242 12.2027 17.9308 12.0907 17.8095 12.016C17.6882 11.932 17.5435 11.89 17.3755 11.89C17.0862 11.89 16.8482 11.9973 16.6615 12.212C16.4748 12.4173 16.3348 12.6693 16.2415 12.968C16.1482 13.2573 16.1015 13.528 16.1015 13.78C16.1015 14.088 16.1668 14.34 16.2975 14.536C16.4375 14.7227 16.6568 14.816 16.9555 14.816Z" fill="#888888"/>
</svg>
