<svg width="24" height="24" viewBox="0 0 24 24" fill="none" xmlns="http://www.w3.org/2000/svg">
<path d="M2.72023 17L8.06823 7.76H10.9802L12.0162 17H9.73423L9.55223 14.83H6.40223L5.22623 17H2.72023ZM7.27023 13.192H9.46823L9.18823 9.608L7.27023 13.192ZM15.8228 20.01C15.4028 20.01 14.9968 19.9587 14.6048 19.856C14.2221 19.7533 13.8815 19.5947 13.5828 19.38C13.2841 19.1653 13.0461 18.8947 12.8688 18.568C12.6915 18.2507 12.5981 17.8773 12.5888 17.448L14.9828 17.196C15.0015 17.588 15.0855 17.896 15.2348 18.12C15.3935 18.3533 15.6828 18.47 16.1028 18.47C16.3361 18.47 16.5461 18.4187 16.7328 18.316C16.9288 18.2133 17.0968 18.0453 17.2368 17.812C17.3861 17.5787 17.5028 17.2613 17.5868 16.86L18.1048 14.62H18.2308C18.0815 15.3293 17.7968 15.8753 17.3768 16.258C16.9568 16.6313 16.4341 16.818 15.8088 16.818C15.3421 16.818 14.9221 16.7107 14.5488 16.496C14.1755 16.272 13.8815 15.9547 13.6668 15.544C13.4521 15.124 13.3448 14.6293 13.3448 14.06C13.3448 13.5 13.4241 12.9727 13.5828 12.478C13.7508 11.974 13.9841 11.526 14.2828 11.134C14.5815 10.7327 14.9408 10.42 15.3608 10.196C15.7808 9.972 16.2521 9.86 16.7748 9.86C17.1388 9.86 17.4748 9.93933 17.7828 10.098C18.1001 10.2567 18.3568 10.504 18.5528 10.84C18.7581 11.1667 18.8561 11.5867 18.8468 12.1L18.5668 12.45L19.1268 10H21.5068L19.9668 16.664C19.7708 17.4947 19.4861 18.1527 19.1128 18.638C18.7488 19.1233 18.2915 19.4733 17.7408 19.688C17.1901 19.9027 16.5508 20.01 15.8228 20.01ZM16.8588 15.096C17.1668 15.096 17.4328 14.9887 17.6568 14.774C17.8901 14.5593 18.0675 14.284 18.1888 13.948C18.3195 13.6027 18.3848 13.2387 18.3848 12.856C18.3848 12.604 18.3381 12.3847 18.2448 12.198C18.1608 12.0113 18.0348 11.8667 17.8668 11.764C17.7081 11.6613 17.5168 11.61 17.2928 11.61C16.9568 11.61 16.6675 11.722 16.4248 11.946C16.1915 12.1607 16.0095 12.436 15.8788 12.772C15.7575 13.0987 15.6968 13.4347 15.6968 13.78C15.6968 14.172 15.7948 14.4893 15.9908 14.732C16.1868 14.9747 16.4761 15.096 16.8588 15.096Z" fill="#888888"/>
</svg>
