<svg width="24" height="24" viewBox="0 0 24 24" fill="none" xmlns="http://www.w3.org/2000/svg">
<path d="M2.67404 17L8.48404 7.76H8.98804L10.514 17H10.122L9.59004 13.822H5.12404L3.12204 17H2.67404ZM8.19004 8.95L5.34804 13.458H9.53404L8.77804 8.992L8.65204 8.194L8.19004 8.95ZM14.4058 20.01C13.6125 20.01 12.9405 19.8047 12.3898 19.394C11.8485 18.9927 11.5078 18.4327 11.3678 17.714L11.7458 17.574C11.8858 18.2647 12.1938 18.7827 12.6698 19.128C13.1552 19.4827 13.7478 19.66 14.4478 19.66C15.1665 19.66 15.7685 19.4593 16.2538 19.058C16.7392 18.666 17.0892 18.0033 17.3038 17.07L17.7238 15.264C17.4812 15.7307 17.1218 16.1133 16.6458 16.412C16.1698 16.7013 15.6192 16.846 14.9938 16.846C14.4432 16.846 13.9532 16.7247 13.5238 16.482C13.1038 16.2393 12.7725 15.8893 12.5298 15.432C12.2872 14.9653 12.1658 14.4053 12.1658 13.752C12.1658 13.052 12.3012 12.408 12.5718 11.82C12.8518 11.2227 13.2485 10.7467 13.7618 10.392C14.2845 10.0373 14.9145 9.86 15.6518 9.86C16.2025 9.86 16.6738 9.98133 17.0658 10.224C17.4672 10.4573 17.7752 10.784 17.9898 11.204C18.2045 11.6147 18.3165 12.0813 18.3258 12.604L18.9278 10H19.3198L17.6678 17.14C17.4345 18.1573 17.0425 18.89 16.4918 19.338C15.9505 19.786 15.2552 20.01 14.4058 20.01ZM15.0638 16.51C15.7172 16.51 16.2678 16.342 16.7158 16.006C17.1638 15.6607 17.5045 15.2127 17.7378 14.662C17.9712 14.1113 18.0878 13.5233 18.0878 12.898C18.0878 12.282 17.9712 11.7733 17.7378 11.372C17.5138 10.9707 17.2152 10.6767 16.8418 10.49C16.4778 10.294 16.0812 10.196 15.6518 10.196C14.9985 10.196 14.4385 10.364 13.9718 10.7C13.5145 11.036 13.1645 11.4747 12.9218 12.016C12.6792 12.5573 12.5578 13.1407 12.5578 13.766C12.5578 14.634 12.7865 15.3107 13.2438 15.796C13.7012 16.272 14.3078 16.51 15.0638 16.51Z" fill="#333333"/>
</svg>
