<svg width="24" height="24" viewBox="0 0 24 24" fill="none" xmlns="http://www.w3.org/2000/svg">
<path d="M2.71898 17L8.34698 7.76H9.73298L11.077 17H9.97098L9.57898 14.354H5.56098L3.97898 17H2.71898ZM6.20498 13.304H9.43898L8.80898 8.964L6.20498 13.304ZM15.1871 20.01C14.7857 20.01 14.4077 19.954 14.0531 19.842C13.7077 19.7393 13.3997 19.59 13.1291 19.394C12.8677 19.198 12.6484 18.96 12.4711 18.68C12.3031 18.4093 12.1864 18.1013 12.1211 17.756L13.2411 17.364C13.3437 17.8867 13.5444 18.2927 13.8431 18.582C14.1511 18.8807 14.6271 19.03 15.2711 19.03C15.6257 19.03 15.9617 18.9647 16.2791 18.834C16.5964 18.7127 16.8764 18.4933 17.1191 18.176C17.3617 17.868 17.5437 17.4293 17.6651 16.86L18.0151 15.278L18.1971 15.11C18.0571 15.6233 17.7631 16.0433 17.3151 16.37C16.8671 16.6873 16.3491 16.846 15.7611 16.846C15.2197 16.846 14.7344 16.7107 14.3051 16.44C13.8757 16.1693 13.5397 15.8053 13.2971 15.348C13.0544 14.8813 12.9331 14.3727 12.9331 13.822C12.9331 13.234 13.0217 12.702 13.1991 12.226C13.3764 11.7407 13.6237 11.3207 13.9411 10.966C14.2584 10.6113 14.6317 10.3407 15.0611 10.154C15.4997 9.958 15.9711 9.86 16.4751 9.86C16.9511 9.86 17.3664 9.95333 17.7211 10.14C18.0851 10.3173 18.3744 10.574 18.5891 10.91C18.8037 11.2367 18.9204 11.624 18.9391 12.072L18.7291 12.184L19.2331 10H20.3531L18.7151 16.986C18.5471 17.7047 18.2904 18.2833 17.9451 18.722C17.6091 19.17 17.2077 19.4967 16.7411 19.702C16.2744 19.9073 15.7564 20.01 15.1871 20.01ZM16.0551 15.88C16.4937 15.88 16.8904 15.7493 17.2451 15.488C17.5997 15.2267 17.8797 14.872 18.0851 14.424C18.2997 13.9667 18.4071 13.4487 18.4071 12.87C18.4071 12.45 18.3324 12.0907 18.1831 11.792C18.0337 11.484 17.8191 11.246 17.5391 11.078C17.2591 10.91 16.9277 10.826 16.5451 10.826C16.0597 10.826 15.6304 10.952 15.2571 11.204C14.8837 11.4467 14.5897 11.792 14.3751 12.24C14.1604 12.6787 14.0531 13.1967 14.0531 13.794C14.0531 14.4007 14.2304 14.9 14.5851 15.292C14.9397 15.684 15.4297 15.88 16.0551 15.88Z" fill="#888888"/>
</svg>
