<svg width="24" height="24" viewBox="0 0 24 24" fill="none" xmlns="http://www.w3.org/2000/svg">
<path d="M3.51732 17L7.11532 7.76H8.44532L12.0293 17H10.8393L9.85932 14.438H5.67332L4.69332 17H3.51732ZM7.33932 10.07L6.07932 13.388H9.45332L8.20732 10.112L7.77332 8.824H7.74532L7.33932 10.07ZM17.4635 16.104C18.1262 16.104 18.6442 16.258 19.0175 16.566C19.3908 16.8647 19.5775 17.266 19.5775 17.77C19.5775 18.2273 19.4235 18.624 19.1155 18.96C18.8168 19.296 18.4108 19.5527 17.8975 19.73C17.3935 19.9167 16.8242 20.01 16.1895 20.01C15.0882 20.01 14.2622 19.8233 13.7115 19.45C13.1702 19.0767 12.8995 18.6287 12.8995 18.106C12.8995 17.7887 12.9882 17.4993 13.1655 17.238C13.3428 16.9767 13.6368 16.79 14.0475 16.678C13.8235 16.5753 13.6415 16.4353 13.5015 16.258C13.3615 16.0713 13.2915 15.824 13.2915 15.516C13.2915 15.2267 13.3755 14.9653 13.5435 14.732C13.7115 14.4893 13.9635 14.3027 14.2995 14.172C13.9448 13.9667 13.6742 13.696 13.4875 13.36C13.3008 13.024 13.2075 12.646 13.2075 12.226C13.2075 11.7593 13.3288 11.3487 13.5715 10.994C13.8235 10.6393 14.1642 10.364 14.5935 10.168C15.0228 9.96267 15.5175 9.86 16.0775 9.86C16.6655 9.86 17.1928 9.97667 17.6595 10.21C17.7248 9.74333 17.9302 9.37933 18.2755 9.118C18.6302 8.84733 19.0455 8.712 19.5215 8.712H19.5915L19.8435 9.706H19.7455C19.3162 9.706 18.9802 9.78533 18.7375 9.944C18.4948 10.1027 18.3595 10.35 18.3315 10.686C18.7422 11.1153 18.9475 11.6287 18.9475 12.226C18.9475 12.6833 18.8262 13.094 18.5835 13.458C18.3408 13.8127 18.0002 14.0927 17.5615 14.298C17.1322 14.494 16.6375 14.592 16.0775 14.592C15.7322 14.592 15.4102 14.5593 15.1115 14.494C14.8315 14.578 14.6308 14.6947 14.5095 14.844C14.3882 14.9933 14.3275 15.1567 14.3275 15.334C14.3275 15.8473 14.6915 16.104 15.4195 16.104H17.4635ZM16.0775 10.77C15.5922 10.77 15.1862 10.9053 14.8595 11.176C14.5328 11.4373 14.3695 11.7873 14.3695 12.226C14.3695 12.6553 14.5328 13.0053 14.8595 13.276C15.1862 13.5467 15.5922 13.682 16.0775 13.682C16.5628 13.682 16.9688 13.5467 17.2955 13.276C17.6222 13.0053 17.7855 12.6553 17.7855 12.226C17.7855 11.7873 17.6222 11.4373 17.2955 11.176C16.9688 10.9053 16.5628 10.77 16.0775 10.77ZM16.1755 19.072C16.9875 19.072 17.5848 18.9507 17.9675 18.708C18.3502 18.4747 18.5415 18.204 18.5415 17.896C18.5415 17.644 18.4388 17.4433 18.2335 17.294C18.0375 17.1447 17.6782 17.07 17.1555 17.07H14.9995C14.7008 17.07 14.4488 17.1447 14.2435 17.294C14.0382 17.4527 13.9355 17.6673 13.9355 17.938C13.9355 18.2833 14.1315 18.5587 14.5235 18.764C14.9248 18.9693 15.4755 19.072 16.1755 19.072Z" fill="#333333"/>
</svg>
