<svg width="24" height="24" viewBox="0 0 24 24" fill="none" xmlns="http://www.w3.org/2000/svg">
<path d="M4.30213 17L7.99813 7.76H8.82413L12.5201 17H11.7781L10.6161 14.102H6.19213L5.04413 17H4.30213ZM8.06813 9.398L6.45813 13.458H10.3641L8.75413 9.426L8.41813 8.446H8.40413L8.06813 9.398ZM17.5888 16.286C18.2795 16.286 18.8208 16.4353 19.2128 16.734C19.6048 17.0233 19.8008 17.406 19.8008 17.882C19.8008 18.3113 19.6561 18.6847 19.3668 19.002C19.0868 19.3287 18.6948 19.576 18.1908 19.744C17.6961 19.9213 17.1361 20.01 16.5108 20.01C15.4468 20.01 14.6348 19.828 14.0748 19.464C13.5241 19.1093 13.2488 18.6613 13.2488 18.12C13.2488 17.7653 13.3655 17.4527 13.5988 17.182C13.8321 16.9113 14.1728 16.7247 14.6208 16.622C14.3781 16.5287 14.1681 16.3887 13.9908 16.202C13.8228 16.0153 13.7388 15.7633 13.7388 15.446C13.7388 15.1287 13.8368 14.8533 14.0328 14.62C14.2381 14.3867 14.5181 14.2233 14.8728 14.13C14.4621 13.9433 14.1448 13.682 13.9208 13.346C13.6968 13.0007 13.5848 12.5993 13.5848 12.142C13.5848 11.694 13.7015 11.2973 13.9348 10.952C14.1775 10.6067 14.5088 10.3407 14.9288 10.154C15.3581 9.958 15.8528 9.86 16.4128 9.86C17.0381 9.86 17.5795 9.98133 18.0368 10.224C18.0928 9.76667 18.2748 9.40267 18.5828 9.132C18.9001 8.852 19.2875 8.712 19.7448 8.712H19.8008L19.9688 9.328H19.8988C19.4695 9.328 19.1335 9.43533 18.8908 9.65C18.6481 9.85533 18.5128 10.1493 18.4848 10.532C18.9701 10.952 19.2128 11.4887 19.2128 12.142C19.2128 12.5993 19.0961 13.0007 18.8628 13.346C18.6295 13.6913 18.2981 13.962 17.8688 14.158C17.4488 14.3447 16.9635 14.438 16.4128 14.438C16.0861 14.438 15.7828 14.4053 15.5028 14.34C15.1575 14.396 14.8821 14.5127 14.6768 14.69C14.4808 14.858 14.3828 15.0727 14.3828 15.334C14.3828 15.6513 14.5041 15.8893 14.7468 16.048C14.9988 16.2067 15.3161 16.286 15.6988 16.286H17.5888ZM16.4128 10.434C15.7875 10.434 15.2788 10.5927 14.8868 10.91C14.5041 11.218 14.3128 11.6287 14.3128 12.142C14.3128 12.6553 14.5041 13.0707 14.8868 13.388C15.2788 13.7053 15.7875 13.864 16.4128 13.864C17.0195 13.864 17.5188 13.7053 17.9108 13.388C18.3028 13.0707 18.4988 12.6553 18.4988 12.142C18.4988 11.6287 18.3028 11.218 17.9108 10.91C17.5188 10.5927 17.0195 10.434 16.4128 10.434ZM16.5108 19.422C17.3321 19.422 17.9761 19.282 18.4428 19.002C18.9095 18.722 19.1428 18.3767 19.1428 17.966C19.1428 17.6393 18.9981 17.378 18.7088 17.182C18.4288 16.986 17.9995 16.888 17.4208 16.888H15.4328C14.9941 16.888 14.6301 16.9907 14.3408 17.196C14.0515 17.4013 13.9068 17.6767 13.9068 18.022C13.9068 18.4327 14.1355 18.7687 14.5928 19.03C15.0595 19.2913 15.6988 19.422 16.5108 19.422Z" fill="#333333"/>
</svg>
