<svg width="24" height="24" viewBox="0 0 24 24" fill="none" xmlns="http://www.w3.org/2000/svg">
<path d="M4.44 17L4.524 16.524H5.294L9.802 6.64H10.334L10.67 16.524H11.538L11.454 17H8.178L8.262 16.524H9.704L9.592 13.234H7.268L5.784 16.524H6.736L6.652 17H4.44ZM9.438 8.404L7.478 12.758H9.578L9.438 8.404ZM14.282 19.982C13.7873 19.982 13.3253 19.9167 12.896 19.786C12.4667 19.6647 12.1213 19.4733 11.86 19.212C11.5987 18.9507 11.468 18.6193 11.468 18.218C11.468 17.91 11.552 17.6347 11.72 17.392C11.8787 17.1587 12.084 16.958 12.336 16.79C12.5973 16.6127 12.8773 16.4727 13.176 16.37C13.4747 16.2673 13.764 16.1973 14.044 16.16V16.062C13.876 15.9687 13.7267 15.8473 13.596 15.698C13.4653 15.5487 13.4 15.3573 13.4 15.124C13.4 14.816 13.5027 14.564 13.708 14.368C13.9227 14.1627 14.1327 14.004 14.338 13.892V13.822C14.002 13.682 13.7547 13.4627 13.596 13.164C13.4373 12.856 13.358 12.5153 13.358 12.142C13.358 11.6287 13.4887 11.1573 13.75 10.728C14.0113 10.2987 14.3567 9.95333 14.786 9.692C15.2247 9.43067 15.7007 9.3 16.214 9.3C16.3727 9.3 16.5127 9.314 16.634 9.342C16.7647 9.36067 16.886 9.39333 16.998 9.44H19.42L19.336 9.874H17.6C17.74 10.042 17.8427 10.2333 17.908 10.448C17.9733 10.6627 18.006 10.8913 18.006 11.134C18.006 11.6473 17.8753 12.1187 17.614 12.548C17.3527 12.9773 17.0073 13.3227 16.578 13.584C16.1487 13.8453 15.6727 13.976 15.15 13.976C15.0847 13.976 15.0193 13.976 14.954 13.976C14.898 13.9667 14.842 13.9573 14.786 13.948C14.6647 13.9947 14.5247 14.0693 14.366 14.172C14.2167 14.2747 14.142 14.4287 14.142 14.634C14.142 14.858 14.2307 15.0167 14.408 15.11C14.5853 15.2033 14.758 15.2873 14.926 15.362L15.948 15.768C16.1067 15.8333 16.2933 15.9127 16.508 16.006C16.7227 16.09 16.9327 16.2067 17.138 16.356C17.3433 16.496 17.5113 16.678 17.642 16.902C17.782 17.1167 17.852 17.3827 17.852 17.7C17.852 18.1947 17.6793 18.61 17.334 18.946C16.9887 19.2913 16.5453 19.548 16.004 19.716C15.4627 19.8933 14.8887 19.982 14.282 19.982ZM15.206 13.584C15.682 13.584 16.0647 13.4253 16.354 13.108C16.6433 12.7907 16.8347 12.3987 16.928 11.932L17.054 11.344C17.1567 10.84 17.138 10.4387 16.998 10.14C16.858 9.84133 16.5687 9.692 16.13 9.692C15.6633 9.692 15.2853 9.85067 14.996 10.168C14.716 10.4853 14.5247 10.8773 14.422 11.344L14.296 11.932C14.1933 12.436 14.2073 12.8373 14.338 13.136C14.478 13.4347 14.7673 13.584 15.206 13.584ZM14.604 19.478C15.0333 19.478 15.43 19.422 15.794 19.31C16.158 19.2073 16.452 19.0487 16.676 18.834C16.9093 18.6287 17.026 18.372 17.026 18.064C17.026 17.7747 16.942 17.5413 16.774 17.364C16.6153 17.1867 16.424 17.0467 16.2 16.944C15.976 16.8413 15.78 16.7573 15.612 16.692L14.534 16.272L14.184 16.37C13.8947 16.4447 13.6007 16.5473 13.302 16.678C13.0127 16.7993 12.77 16.9627 12.574 17.168C12.378 17.3827 12.28 17.6533 12.28 17.98C12.28 18.456 12.4947 18.8247 12.924 19.086C13.3627 19.3473 13.9227 19.478 14.604 19.478Z" fill="#888888"/>
</svg>
