<svg width="24" height="24" viewBox="0 0 24 24" fill="none" xmlns="http://www.w3.org/2000/svg">
<path d="M5.92871 16L6.53027 13.9629H9.78418L10.3721 16H11.876L9.10059 6.77148H7.2959L4.46582 16H5.92871ZM7.59668 10.3125C7.65137 10.1211 7.75618 9.70638 7.91113 9.06836C8.02962 8.5944 8.11621 8.25716 8.1709 8.05664C8.48991 9.3418 8.6722 10.071 8.71777 10.2441L9.46973 12.8555H6.84473L7.59668 10.3125ZM15.1162 12.9785C14.6331 12.9785 14.2913 12.7507 14.0908 12.2949C13.9997 12.0853 13.9541 11.8483 13.9541 11.584C13.9541 10.8639 14.2002 10.4082 14.6924 10.2168C14.82 10.1712 14.9521 10.1484 15.0889 10.1484C15.5811 10.1484 15.9274 10.3854 16.1279 10.8594C16.21 11.069 16.251 11.3105 16.251 11.584C16.251 12.2676 16.0094 12.7051 15.5264 12.8965C15.3988 12.9512 15.262 12.9785 15.1162 12.9785ZM15.1162 9.05469C14.1683 9.05469 13.4574 9.39193 12.9834 10.0664C12.6826 10.5039 12.5322 11.0189 12.5322 11.6113C12.5413 12.4043 12.8102 13.0241 13.3389 13.4707C12.8649 13.7988 12.6234 14.2181 12.6143 14.7285C12.6234 15.1842 12.833 15.5443 13.2432 15.8086C12.596 16.2552 12.2679 16.7428 12.2588 17.2715C12.2588 17.9186 12.6553 18.3926 13.4482 18.6934C13.8766 18.8483 14.3643 18.9258 14.9111 18.9258C16.2692 18.9258 17.2399 18.5658 17.8232 17.8457C18.1058 17.4902 18.2471 17.0983 18.2471 16.6699C18.2471 15.9681 17.9053 15.4622 17.2217 15.1523C16.8206 14.9792 16.3512 14.8926 15.8135 14.8926L14.5146 14.9199C14.0225 14.9199 13.7718 14.7604 13.7627 14.4414C13.7809 14.2409 13.9085 14.0723 14.1455 13.9355C14.4645 14.0358 14.7881 14.0859 15.1162 14.0859C16.0368 14.0859 16.734 13.7578 17.208 13.1016C17.5179 12.6732 17.6729 12.1673 17.6729 11.584C17.6637 11.0189 17.5133 10.5312 17.2217 10.1211L18.3564 10.1621V9.05469L15.8271 9.15039C15.6175 9.08659 15.3805 9.05469 15.1162 9.05469ZM15.0889 17.8047C14.223 17.8047 13.7308 17.5768 13.6123 17.1211C13.5941 17.0573 13.585 16.998 13.585 16.9434C13.5941 16.6243 13.7855 16.3372 14.1592 16.082H14.3506L15.6357 16.0547C16.374 16.0456 16.7796 16.2461 16.8525 16.6562C16.8617 16.7018 16.8662 16.7428 16.8662 16.7793C16.8662 17.2168 16.57 17.5221 15.9775 17.6953C15.7132 17.7682 15.417 17.8047 15.0889 17.8047Z" fill="#333333"/>
</svg>
