<svg width="24" height="24" viewBox="0 0 24 24" fill="none" xmlns="http://www.w3.org/2000/svg">
<path d="M5.71333 17.0163C5.66977 17.0163 5.60444 17.0163 5.51733 17.0163C5.4411 17.0163 5.35399 17.0109 5.25599 17L8.39199 5.59933C8.40288 5.534 8.48455 5.50133 8.63699 5.50133C8.69144 5.50133 8.74588 5.50678 8.80033 5.51767C8.86566 5.51767 8.91466 5.52311 8.94733 5.534L12.0997 16.804C12.1214 16.8802 12.1105 16.9347 12.067 16.9673C12.0343 17 11.9472 17.0163 11.8057 17.0163C11.7512 17.0163 11.6859 17.0163 11.6097 17.0163C11.5334 17.0163 11.4463 17.0109 11.3483 17L9.42099 9.78067C9.30121 9.32333 9.18688 8.88233 9.07799 8.45767C8.97999 8.033 8.89288 7.65189 8.81666 7.31433C8.74044 6.97678 8.69688 6.72633 8.68599 6.563C8.66421 6.72633 8.61521 6.97678 8.53899 7.31433C8.47366 7.65189 8.38655 8.033 8.27766 8.45767C8.17966 8.88233 8.06533 9.32333 7.93466 9.78067L6.08899 16.853C6.06721 16.9183 6.0291 16.9619 5.97466 16.9837C5.9311 17.0054 5.84399 17.0163 5.71333 17.0163ZM6.72599 13.7497V13.0473H10.8747V13.7497H6.72599ZM15.4243 20.234C14.7056 20.234 14.1611 20.1469 13.7909 19.9727C13.4207 19.7984 13.1703 19.5807 13.0396 19.3193C12.9089 19.058 12.8436 18.7858 12.8436 18.5027C12.8436 18.1542 12.947 17.8167 13.1539 17.49C13.3608 17.1742 13.6167 16.8911 13.9216 16.6407C14.2265 16.3793 14.5259 16.1942 14.8199 16.0853L15.2119 16.3467C14.9724 16.4447 14.7274 16.608 14.4769 16.8367C14.2265 17.0653 14.0141 17.3158 13.8399 17.588C13.6766 17.8602 13.5949 18.127 13.5949 18.3883C13.5949 18.5952 13.6385 18.7858 13.7256 18.96C13.8127 19.1342 13.9924 19.2703 14.2646 19.3683C14.5477 19.4772 14.9506 19.5317 15.4733 19.5317C16.2573 19.5317 16.8453 19.3629 17.2373 19.0253C17.6401 18.6878 17.8416 18.323 17.8416 17.931C17.8416 17.6152 17.7654 17.3757 17.6129 17.2123C17.4605 17.049 17.2427 16.9347 16.9596 16.8693C16.6874 16.7931 16.3716 16.7387 16.0123 16.706C15.4678 16.6407 14.9724 16.5644 14.5259 16.4773C14.0904 16.3793 13.7419 16.2596 13.4806 16.118C13.2301 15.9656 13.1049 15.7804 13.1049 15.5627C13.1049 15.3884 13.1703 15.2033 13.3009 15.0073C13.4316 14.8113 13.5949 14.6208 13.7909 14.4357C13.9978 14.2397 14.2047 14.0763 14.4116 13.9457L14.9506 14.158C14.809 14.2342 14.6511 14.3486 14.4769 14.501C14.3136 14.6426 14.172 14.795 14.0523 14.9583C13.9325 15.1108 13.8726 15.2469 13.8726 15.3667C13.8726 15.53 14.1121 15.6716 14.5913 15.7913C15.0813 15.9111 15.6856 16.0091 16.4043 16.0853C16.7963 16.1398 17.1556 16.2214 17.4823 16.3303C17.8198 16.4392 18.0866 16.6134 18.2826 16.853C18.4895 17.0817 18.5929 17.4138 18.5929 17.8493C18.5929 18.2413 18.4786 18.6224 18.2499 18.9927C18.0213 19.3629 17.6728 19.6623 17.2046 19.891C16.7364 20.1197 16.1429 20.234 15.4243 20.234ZM15.6529 14.4847C14.9669 14.4847 14.4388 14.354 14.0686 14.0927C13.6984 13.8204 13.4425 13.4666 13.3009 13.031C13.1703 12.5846 13.1049 12.1109 13.1049 11.61C13.1049 10.9458 13.2247 10.3959 13.4643 9.96033C13.7038 9.52478 14.025 9.20356 14.4279 8.99667C14.8308 8.77889 15.2827 8.67 15.7836 8.67C15.8925 8.67 16.0449 8.68633 16.2409 8.719C16.4369 8.74078 16.6111 8.77889 16.7636 8.83333L16.9433 9.17633C17.3679 9.307 17.7 9.56289 17.9396 9.944C18.1791 10.3142 18.2989 10.8042 18.2989 11.414C18.2989 11.9693 18.2064 12.4811 18.0213 12.9493C17.847 13.4176 17.5639 13.7932 17.1719 14.0763C16.7908 14.3486 16.2845 14.4847 15.6529 14.4847ZM15.7019 13.864C16.1375 13.864 16.4914 13.7442 16.7636 13.5047C17.0358 13.2651 17.2373 12.9493 17.3679 12.5573C17.4986 12.1653 17.5639 11.7461 17.5639 11.2997C17.5639 10.6028 17.4006 10.091 17.0739 9.76433C16.7581 9.43767 16.3171 9.27433 15.7509 9.27433C15.4134 9.27433 15.0976 9.356 14.8036 9.51933C14.5205 9.68267 14.2918 9.93856 14.1176 10.287C13.9543 10.6246 13.8726 11.0656 13.8726 11.61C13.8726 12.002 13.9107 12.3722 13.9869 12.7207C14.074 13.0582 14.2483 13.3359 14.5096 13.5537C14.7818 13.7606 15.1793 13.864 15.7019 13.864ZM18.2826 9.42133C18.1193 9.42133 17.9341 9.41044 17.7273 9.38867C17.5313 9.356 17.3353 9.32878 17.1393 9.307C16.9433 9.27433 16.7854 9.24711 16.6656 9.22533C16.5458 9.19267 16.4859 9.17633 16.4859 9.17633L16.0776 8.768H18.5439C18.5657 8.78978 18.582 8.82789 18.5929 8.88233C18.6147 8.93678 18.6256 9.00755 18.6256 9.09467C18.6256 9.20355 18.5984 9.28522 18.5439 9.33967C18.4895 9.39411 18.4024 9.42133 18.2826 9.42133Z" fill="#888888"/>
</svg>
