<svg width="24" height="24" viewBox="0 0 24 24" fill="none" xmlns="http://www.w3.org/2000/svg">
<path d="M6.42113 17.0152C6.41102 17.0152 6.38574 17.0152 6.3453 17.0152C6.30485 17.0152 6.25935 17.0101 6.2088 17L9.24213 6.33783C9.24213 6.31761 9.26741 6.3075 9.31796 6.3075C9.3483 6.3075 9.37357 6.31255 9.3938 6.32267C9.42413 6.32267 9.44435 6.32772 9.45446 6.33783L12.503 16.8483C12.5232 16.909 12.5232 16.9545 12.503 16.9848C12.4827 17.0051 12.4423 17.0152 12.3816 17.0152C12.3513 17.0152 12.3109 17.0152 12.2603 17.0152C12.2199 17.0152 12.1794 17.0101 12.139 17L10.1218 9.87167C10.0005 9.40655 9.87913 8.96672 9.7578 8.55217C9.64657 8.1275 9.55052 7.7635 9.46963 7.46017C9.39885 7.15683 9.35841 6.95461 9.3483 6.8535C9.33818 6.95461 9.29268 7.15683 9.2118 7.46017C9.14102 7.7635 9.05002 8.1275 8.9388 8.55217C8.82757 8.96672 8.70624 9.40655 8.5748 9.87167L6.63346 16.909C6.62335 16.9596 6.59807 16.9899 6.55763 17C6.51718 17.0101 6.47168 17.0152 6.42113 17.0152ZM7.45246 13.7847V13.4207H11.4413V13.7847H7.45246ZM15.7266 20.003C15.0694 20.003 14.5689 19.9272 14.2251 19.7755C13.8813 19.6238 13.6488 19.4267 13.5274 19.184C13.4061 18.9514 13.3454 18.6987 13.3454 18.4257C13.3454 18.1223 13.4415 17.819 13.6336 17.5157C13.8257 17.2224 14.0532 16.9545 14.3161 16.7118C14.5891 16.4692 14.8368 16.2973 15.0593 16.1962L15.3778 16.363C15.1452 16.4641 14.8975 16.6309 14.6346 16.8635C14.3717 17.0961 14.1493 17.3488 13.9673 17.6218C13.7954 17.9049 13.7094 18.1729 13.7094 18.4257C13.7094 18.6481 13.7549 18.8503 13.8459 19.0323C13.947 19.2143 14.1442 19.3609 14.4374 19.4722C14.7306 19.5834 15.1604 19.639 15.7266 19.639C16.5759 19.639 17.218 19.4671 17.6528 19.1233C18.0976 18.7796 18.3201 18.3953 18.3201 17.9707C18.3201 17.637 18.2341 17.3842 18.0623 17.2123C17.9005 17.0506 17.6881 16.9393 17.4253 16.8787C17.1624 16.8079 16.8944 16.7573 16.6214 16.727C16.0754 16.6663 15.5699 16.5905 15.1048 16.4995C14.6498 16.4085 14.2858 16.2973 14.0128 16.1658C13.7398 16.0243 13.6033 15.8524 13.6033 15.6502C13.6033 15.4985 13.669 15.3317 13.8004 15.1497C13.9319 14.9576 14.0886 14.7756 14.2706 14.6037C14.4627 14.4318 14.6396 14.3003 14.8014 14.2093L15.1351 14.361C14.9632 14.452 14.7863 14.5784 14.6043 14.7402C14.4223 14.8918 14.2706 15.0486 14.1493 15.2103C14.0279 15.362 13.9673 15.4985 13.9673 15.6198C13.9673 15.7816 14.22 15.9333 14.7256 16.0748C15.2413 16.2063 15.8833 16.3124 16.6518 16.3933C16.9955 16.4338 17.3191 16.4995 17.6224 16.5905C17.9359 16.6815 18.1886 16.8281 18.3808 17.0303C18.583 17.2427 18.6841 17.5511 18.6841 17.9555C18.6841 18.2791 18.5729 18.5976 18.3504 18.911C18.1381 19.2346 17.8145 19.4974 17.3798 19.6997C16.945 19.9019 16.3939 20.003 15.7266 20.003ZM15.9541 14.6643C15.2969 14.6643 14.7964 14.5379 14.4526 14.2852C14.1088 14.0223 13.8763 13.6836 13.7549 13.269C13.6437 12.8544 13.5881 12.4197 13.5881 11.9647C13.5881 11.3782 13.6993 10.8878 13.9218 10.4935C14.1543 10.0891 14.4576 9.78572 14.8318 9.5835C15.2059 9.37117 15.6103 9.265 16.0451 9.265C16.1462 9.265 16.2928 9.28017 16.4849 9.3105C16.677 9.33072 16.8439 9.36611 16.9854 9.41667L17.1068 9.59867C17.5112 9.69978 17.8297 9.93233 18.0623 10.2963C18.2948 10.6502 18.4111 11.1153 18.4111 11.6917C18.4111 12.1972 18.3251 12.6775 18.1533 13.1325C17.9915 13.5875 17.7286 13.9566 17.3646 14.2397C17.0107 14.5228 16.5405 14.6643 15.9541 14.6643ZM15.9996 14.3003C16.4748 14.3003 16.8641 14.1689 17.1674 13.906C17.4708 13.6431 17.6932 13.3094 17.8348 12.905C17.9763 12.5006 18.0471 12.0961 18.0471 11.6917C18.0471 10.994 17.8651 10.4783 17.5011 10.1447C17.1472 9.80089 16.6619 9.629 16.0451 9.629C15.671 9.629 15.3221 9.71494 14.9986 9.88683C14.6851 10.0587 14.4324 10.3216 14.2403 10.6755C14.0481 11.0193 13.9521 11.4591 13.9521 11.995C13.9521 12.359 13.9976 12.7179 14.0886 13.0718C14.1796 13.4257 14.3717 13.7189 14.6649 13.9515C14.9581 14.1841 15.403 14.3003 15.9996 14.3003ZM18.4111 9.6745C18.2594 9.6745 18.0976 9.6745 17.9258 9.6745C17.7539 9.66439 17.587 9.65933 17.4253 9.65933C17.2635 9.64922 17.132 9.64417 17.0309 9.64417C16.9298 9.63406 16.8793 9.629 16.8793 9.629L16.3484 9.34083H18.6234C18.6234 9.34083 18.6285 9.35094 18.6386 9.37117C18.6487 9.39139 18.6538 9.42678 18.6538 9.47733C18.6538 9.538 18.6335 9.58856 18.5931 9.629C18.5628 9.65933 18.5021 9.6745 18.4111 9.6745Z" fill="#888888"/>
</svg>
