<svg width="24" height="24" viewBox="0 0 24 24" fill="none" xmlns="http://www.w3.org/2000/svg">
<path d="M7.29348 17.028C7.19082 17.028 7.04615 17.0233 6.85948 17.014C6.67282 17.0047 6.48615 16.9907 6.29948 16.972L8.63748 7.466C8.67482 7.27 8.88482 7.172 9.26748 7.172C9.39815 7.172 9.52882 7.17667 9.65948 7.186C9.79948 7.19533 9.91615 7.20933 10.0095 7.228L12.3475 16.748C12.3662 16.8413 12.3335 16.9113 12.2495 16.958C12.1655 17.0047 11.9648 17.028 11.6475 17.028C11.5448 17.028 11.4188 17.0233 11.2695 17.014C11.1202 17.014 10.9428 17.0093 10.7375 17L9.71548 12.058C9.66882 11.806 9.62215 11.5353 9.57548 11.246C9.52882 10.9473 9.48682 10.6393 9.44948 10.322C9.41215 10.0047 9.37948 9.70133 9.35148 9.412C9.32348 9.70133 9.28615 10.0047 9.23948 10.322C9.20215 10.6393 9.16015 10.9473 9.11348 11.246C9.07615 11.5353 9.02948 11.806 8.97348 12.058L8.00748 16.734C7.98882 16.8273 7.94215 16.902 7.86748 16.958C7.80215 17.0047 7.61082 17.028 7.29348 17.028ZM7.89548 14.774V13.36H11.0595V14.774H7.89548ZM14.7908 19.744C14.1561 19.744 13.6755 19.66 13.3488 19.492C13.0221 19.3333 12.8028 19.1327 12.6908 18.89C12.5788 18.6473 12.5228 18.4093 12.5228 18.176C12.5228 17.8307 12.6161 17.518 12.8028 17.238C12.9895 16.9673 13.2368 16.734 13.5448 16.538C13.8528 16.3327 14.1935 16.1787 14.5668 16.076L15.0568 16.524C14.8981 16.5893 14.7488 16.6873 14.6088 16.818C14.4688 16.9393 14.3568 17.0793 14.2728 17.238C14.1888 17.406 14.1468 17.5833 14.1468 17.77C14.1468 17.882 14.1701 17.98 14.2168 18.064C14.2635 18.148 14.3475 18.2087 14.4688 18.246C14.5901 18.2927 14.7535 18.316 14.9588 18.316C15.3041 18.316 15.5375 18.218 15.6588 18.022C15.7895 17.826 15.8548 17.644 15.8548 17.476C15.8548 17.3173 15.8221 17.1867 15.7568 17.084C15.7008 16.9907 15.5608 16.916 15.3368 16.86C15.1128 16.7947 14.7535 16.748 14.2588 16.72C13.9321 16.692 13.6521 16.6453 13.4188 16.58C13.1855 16.5053 13.0081 16.4027 12.8868 16.272C12.7655 16.1413 12.7095 15.9827 12.7188 15.796C12.7281 15.6373 12.7701 15.4787 12.8448 15.32C12.9288 15.1613 13.0548 14.9933 13.2228 14.816C13.4001 14.6387 13.6241 14.452 13.8948 14.256L14.8188 14.55C14.8188 14.55 14.7815 14.5873 14.7068 14.662C14.6415 14.7367 14.5715 14.8253 14.4968 14.928C14.4315 15.0307 14.3988 15.1287 14.3988 15.222C14.3988 15.334 14.5155 15.3993 14.7488 15.418C14.9821 15.4273 15.2668 15.46 15.6028 15.516C16.0041 15.5813 16.3401 15.6793 16.6108 15.81C16.8815 15.9407 17.0868 16.1227 17.2268 16.356C17.3761 16.58 17.4508 16.8787 17.4508 17.252C17.4508 17.7093 17.3575 18.1247 17.1708 18.498C16.9935 18.8807 16.7088 19.184 16.3168 19.408C15.9341 19.632 15.4255 19.744 14.7908 19.744ZM14.9448 14.844C14.4035 14.844 13.9741 14.7413 13.6568 14.536C13.3395 14.3307 13.1108 14.0507 12.9708 13.696C12.8308 13.332 12.7608 12.9213 12.7608 12.464C12.7608 11.8013 12.8541 11.2833 13.0408 10.91C13.2368 10.5273 13.5121 10.2567 13.8668 10.098C14.2215 9.93933 14.6415 9.86 15.1268 9.86C15.2481 9.86 15.3788 9.874 15.5188 9.902C15.6588 9.93 15.7941 9.972 15.9248 10.028L16.2188 10.714C16.5175 10.8633 16.7555 11.0873 16.9328 11.386C17.1195 11.6753 17.2128 12.0673 17.2128 12.562C17.2128 13.066 17.1335 13.486 16.9748 13.822C16.8255 14.158 16.5828 14.4147 16.2468 14.592C15.9201 14.76 15.4861 14.844 14.9448 14.844ZM15.0148 13.682C15.1548 13.682 15.2668 13.6447 15.3508 13.57C15.4441 13.486 15.5141 13.332 15.5608 13.108C15.6075 12.884 15.6308 12.562 15.6308 12.142C15.6308 11.7033 15.5888 11.4 15.5048 11.232C15.4208 11.0547 15.2715 10.966 15.0568 10.966C14.9355 10.966 14.8235 11.008 14.7208 11.092C14.6275 11.176 14.5528 11.3207 14.4968 11.526C14.4501 11.7313 14.4268 12.0207 14.4268 12.394C14.4268 12.7207 14.4455 12.982 14.4828 13.178C14.5201 13.3647 14.5808 13.4953 14.6648 13.57C14.7488 13.6447 14.8655 13.682 15.0148 13.682ZM17.1708 11.33C17.0308 11.33 16.8488 11.2973 16.6248 11.232C16.4101 11.1573 16.1908 11.0733 15.9668 10.98C15.7521 10.8867 15.5701 10.8073 15.4208 10.742C15.2808 10.6673 15.2108 10.63 15.2108 10.63L15.2948 9.986H17.4928C17.5395 10.07 17.5768 10.1773 17.6048 10.308C17.6421 10.4293 17.6608 10.5787 17.6608 10.756C17.6608 10.9613 17.6141 11.1107 17.5208 11.204C17.4275 11.288 17.3108 11.33 17.1708 11.33Z" fill="#888888"/>
</svg>
