<svg width="24" height="24" viewBox="0 0 24 24" fill="none" xmlns="http://www.w3.org/2000/svg">
<path d="M11.1387 16L10.2979 13.6895H6.54492L5.69727 16H4.45996L7.92578 7.04492H8.96484L12.3691 16H11.1387ZM8.4248 8.59668L6.9209 12.6777H9.93555L8.45898 8.59668H8.4248ZM13.1143 13.2246V13.0947C13.1143 12.0055 13.349 11.1374 13.8184 10.4902C14.2878 9.8431 14.9349 9.51953 15.7598 9.51953C16.5892 9.51953 17.2249 9.84993 17.667 10.5107L17.8174 9.64258H18.7812V16.335C18.7812 17.1917 18.5329 17.848 18.0361 18.3037C17.5439 18.7594 16.8285 18.9873 15.8896 18.9873C15.5661 18.9873 15.2197 18.9417 14.8506 18.8506C14.4814 18.764 14.1556 18.6455 13.873 18.4951L14.1807 17.5518C14.3994 17.6748 14.6615 17.7751 14.9668 17.8525C15.2767 17.93 15.5798 17.9688 15.876 17.9688C16.4639 17.9688 16.8923 17.8366 17.1611 17.5723C17.4346 17.3079 17.5713 16.8955 17.5713 16.335V15.583C17.1292 16.1481 16.5094 16.4307 15.7119 16.4307C14.9189 16.4307 14.2878 16.139 13.8184 15.5557C13.349 14.9678 13.1143 14.1908 13.1143 13.2246ZM14.3242 13.0947V13.2246C14.3242 13.9128 14.4678 14.4551 14.7549 14.8516C15.0465 15.248 15.4749 15.4463 16.04 15.4463C16.7327 15.4463 17.2454 15.1273 17.5781 14.4893V11.4268C17.2318 10.8115 16.7236 10.5039 16.0537 10.5039C15.4886 10.5039 15.0579 10.7386 14.7617 11.208C14.4701 11.6729 14.3242 12.3018 14.3242 13.0947Z" fill="#333333"/>
</svg>
