<svg width="24" height="24" viewBox="0 0 24 24" fill="none" xmlns="http://www.w3.org/2000/svg">
<path d="M14.002 7.40918C14.1432 7.09473 14.2435 6.9375 14.3027 6.9375H14.3369C14.4053 6.9375 14.5443 7.01042 14.7539 7.15625C14.9635 7.30208 15.0684 7.4388 15.0684 7.56641C15.0684 7.74414 14.485 9.12044 13.3184 11.6953C12.1517 14.2702 11.4818 15.7148 11.3086 16.0293C11.14 16.3392 11.0238 16.5465 10.96 16.6514C10.8962 16.7562 10.8096 16.8724 10.7002 17C10.5042 17.2415 10.2604 17.3623 9.96875 17.3623C9.85026 17.3623 9.74544 17.376 9.6543 17.4033C9.56315 17.4352 9.50846 17.4512 9.49023 17.4512C9.3444 17.4512 9.27148 17.417 9.27148 17.3486C9.27148 17.335 9.28971 17.278 9.32617 17.1777C9.36719 17.082 9.889 15.9769 10.8916 13.8623C9.82064 13.8213 8.87956 13.7894 8.06836 13.7666C7.28906 14.7464 6.58268 15.7718 5.94922 16.8428C5.87174 16.9932 5.79883 17.098 5.73047 17.1572C5.66211 17.221 5.56868 17.2529 5.4502 17.2529C5.33171 17.2529 5.2041 17.1914 5.06738 17.0684C4.93066 16.9499 4.8623 16.8109 4.8623 16.6514C4.8623 16.1956 5.4502 15.2204 6.62598 13.7256C6.07454 13.7256 5.72363 13.7393 5.57324 13.7666C5.42741 13.7939 5.33398 13.8076 5.29297 13.8076C5.16992 13.8076 5.1084 13.7051 5.1084 13.5C5.1084 13.2904 5.22917 13.1081 5.4707 12.9531C5.7168 12.7936 6.04492 12.7139 6.45508 12.7139C6.48698 12.7139 6.54395 12.7116 6.62598 12.707C6.90853 12.6934 7.19792 12.682 7.49414 12.6729C8.48763 11.5062 9.52669 10.4238 10.6113 9.42578C11.696 8.42773 12.6348 7.72819 13.4277 7.32715C13.5553 7.26335 13.6556 7.23372 13.7285 7.23828C13.806 7.23828 13.8971 7.29525 14.002 7.40918ZM13.5234 8.37305C11.86 9.63542 10.3402 11.0687 8.96387 12.6729C9.77051 12.6911 10.5863 12.7253 11.4111 12.7754C12.2406 11.0299 12.9447 9.5625 13.5234 8.37305ZM15.2324 12.4609C15.6745 12.1556 16.1074 11.9209 16.5312 11.7568C16.9551 11.5928 17.3219 11.5107 17.6318 11.5107C17.9417 11.5107 18.14 11.5996 18.2266 11.7773C18.4043 11.5723 18.6253 11.4629 18.8896 11.4492C18.9671 11.4447 19.0628 11.4424 19.1768 11.4424C19.2907 11.4424 19.3613 11.4583 19.3887 11.4902C19.416 11.5176 19.4411 11.5723 19.4639 11.6543C19.4867 11.7363 19.5003 11.7819 19.5049 11.791C19.5094 11.8001 19.5117 11.8161 19.5117 11.8389C19.5117 11.8571 19.5003 11.8822 19.4775 11.9141C19.4548 11.9414 19.4274 11.9688 19.3955 11.9961C19.3682 12.0234 19.3522 12.0394 19.3477 12.0439C18.3405 13.4886 17.3105 15.1361 16.2578 16.9863C17.3424 16.0247 18.3132 15.3343 19.1699 14.915C19.2246 14.8877 19.277 14.874 19.3271 14.874C19.4001 14.874 19.4479 14.9219 19.4707 15.0176C19.4935 15.1087 19.5049 15.2409 19.5049 15.4141C19.5049 15.5872 19.4935 15.6943 19.4707 15.7354C19.4525 15.7764 19.3477 15.8584 19.1562 15.9814C18.9648 16.1045 18.7165 16.264 18.4111 16.46C18.1058 16.6559 17.7822 16.8724 17.4404 17.1094C16.6201 17.679 15.9456 18.2783 15.417 18.9072C14.7334 19.7321 14.2435 20.3975 13.9473 20.9033C13.8379 21.0993 13.6533 21.1973 13.3936 21.1973C12.8786 21.1973 12.6211 20.9535 12.6211 20.4658C12.6211 19.9691 12.8649 19.4609 13.3525 18.9414C13.7171 18.554 14.0521 18.2373 14.3574 17.9912C14.6628 17.7451 14.8291 17.6061 14.8564 17.5742C15.1937 17.0684 15.6517 16.3506 16.2305 15.4209C15.7383 15.9359 15.2598 16.346 14.7949 16.6514C14.3346 16.9567 13.9906 17.1094 13.7627 17.1094C13.0654 17.1094 12.7168 16.8109 12.7168 16.2139C12.7168 15.7399 12.8376 15.2614 13.0791 14.7783C13.3206 14.2952 13.6305 13.8646 14.0088 13.4863C14.387 13.1035 14.7949 12.7617 15.2324 12.4609ZM17.8369 12.2832C17.3083 12.3971 16.8115 12.5863 16.3467 12.8506C15.8818 13.1104 15.499 13.3906 15.1982 13.6914C14.8975 13.9876 14.6377 14.293 14.4189 14.6074C14.0088 15.1953 13.8037 15.651 13.8037 15.9746C13.8037 16.0521 13.8219 16.0908 13.8584 16.0908C13.8994 16.0908 13.986 16.0498 14.1182 15.9678C14.2549 15.8857 14.4463 15.7467 14.6924 15.5508C14.9385 15.3503 15.2119 15.1133 15.5127 14.8398C16.21 14.1973 16.9847 13.3451 17.8369 12.2832Z" fill="#333333"/>
</svg>
