<svg width="24" height="24" viewBox="0 0 24 24" fill="none" xmlns="http://www.w3.org/2000/svg">
<path d="M8.72788 8.384C8.67188 8.34667 8.60655 8.3 8.53188 8.244C8.45722 8.188 8.37788 8.12733 8.29388 8.062C8.21922 7.98733 8.15388 7.91733 8.09788 7.852C8.04188 7.77733 8.00922 7.70733 7.99988 7.642C7.98122 7.56733 7.98122 7.46933 7.99988 7.348C8.01855 7.21733 8.06988 7.152 8.15388 7.152C8.20055 7.152 8.25188 7.16133 8.30788 7.18C8.37322 7.19867 8.42922 7.21733 8.47588 7.236C8.58788 7.27333 8.70455 7.32933 8.82588 7.404C8.95655 7.46933 9.07788 7.53933 9.18988 7.614C9.33922 7.73533 9.46988 7.936 9.58188 8.216C9.91788 9.15867 10.2725 10.12 10.6459 11.1C11.0285 12.08 11.4392 13.158 11.8779 14.334C11.9619 14.5393 12.0225 14.768 12.0599 15.02C12.0972 15.272 12.1112 15.51 12.1019 15.734C12.1019 15.9487 12.0739 16.1307 12.0179 16.28C11.9712 16.4293 11.9012 16.504 11.8079 16.504C11.7519 16.504 11.6819 16.448 11.5979 16.336C11.5139 16.224 11.4299 16.0933 11.3459 15.944C11.2712 15.7947 11.2012 15.65 11.1359 15.51C11.0705 15.3607 11.0239 15.2533 10.9959 15.188L10.0859 12.99C9.82455 13.074 9.50255 13.1533 9.11988 13.228C8.73722 13.2933 8.27988 13.3167 7.74788 13.298C7.71988 13.4287 7.65922 13.634 7.56588 13.914C7.48188 14.1847 7.38388 14.4693 7.27188 14.768C7.16922 15.0573 7.06655 15.3327 6.96388 15.594C6.86122 15.846 6.77722 16.014 6.71188 16.098C6.63722 16.1913 6.54855 16.2707 6.44588 16.336C6.34322 16.4107 6.19855 16.4573 6.01188 16.476C5.97455 16.476 5.91388 16.4713 5.82988 16.462C5.75522 16.462 5.67588 16.4527 5.59188 16.434C5.50788 16.4247 5.43322 16.4013 5.36788 16.364C5.31188 16.336 5.28388 16.2987 5.28388 16.252C5.28388 16.2053 5.33055 16.1587 5.42388 16.112C5.51722 16.0653 5.58255 16.0233 5.61988 15.986C5.71322 15.818 5.81122 15.6127 5.91388 15.37C6.01655 15.118 6.11455 14.8613 6.20788 14.6C6.31055 14.3387 6.40388 14.082 6.48788 13.83C6.57188 13.578 6.64188 13.3587 6.69788 13.172C6.65122 13.172 6.59522 13.1627 6.52988 13.144C6.46455 13.1253 6.39455 13.1067 6.31988 13.088C6.24522 13.06 6.17055 13.032 6.09588 13.004C6.03055 12.9667 5.97922 12.9293 5.94188 12.892C5.86722 12.8173 5.80188 12.7287 5.74588 12.626C5.69922 12.514 5.68522 12.416 5.70388 12.332C5.71322 12.2947 5.75988 12.276 5.84388 12.276C5.93722 12.2667 6.01188 12.2573 6.06788 12.248H6.57188C6.66522 12.248 6.74922 12.2527 6.82388 12.262C6.89855 12.262 6.94522 12.262 6.96388 12.262L7.84588 9.462C7.90188 9.24733 7.98588 9.056 8.09788 8.888C8.21922 8.72 8.34522 8.60333 8.47588 8.538L8.72788 8.384ZM8.85388 9.35C8.79788 9.53667 8.73255 9.756 8.65788 10.008C8.59255 10.26 8.52255 10.5213 8.44788 10.792C8.37322 11.0627 8.29855 11.3287 8.22388 11.59C8.15855 11.8513 8.09788 12.0847 8.04188 12.29C8.31255 12.2993 8.60655 12.29 8.92388 12.262C9.24122 12.2247 9.52122 12.1687 9.76388 12.094C9.60522 11.5993 9.46988 11.1887 9.35788 10.862C9.25522 10.526 9.16655 10.26 9.09188 10.064C9.02655 9.85867 8.97522 9.70933 8.93788 9.616C8.90988 9.51333 8.88655 9.44333 8.86788 9.406L8.85388 9.35ZM14.0866 15.986C13.8066 15.93 13.5873 15.8553 13.4286 15.762C13.2793 15.6593 13.1673 15.5567 13.0926 15.454C13.0273 15.342 12.9899 15.244 12.9806 15.16C12.9713 15.0667 12.9666 15.0013 12.9666 14.964C12.9666 14.8333 12.9993 14.7027 13.0646 14.572C13.1393 14.432 13.2233 14.3013 13.3166 14.18C13.4193 14.0587 13.5266 13.9513 13.6386 13.858C13.7599 13.7647 13.8719 13.6947 13.9746 13.648C13.6853 13.452 13.4473 13.214 13.2606 12.934C13.0833 12.654 12.9946 12.3787 12.9946 12.108C12.9946 11.9027 13.0366 11.674 13.1206 11.422C13.2139 11.17 13.3586 10.9367 13.5546 10.722C13.7599 10.5073 14.0259 10.3253 14.3526 10.176C14.6886 10.0267 15.1039 9.94733 15.5986 9.938C15.7759 9.938 15.9486 9.97067 16.1166 10.036C16.2939 10.092 16.4619 10.1713 16.6206 10.274C16.7326 10.05 16.9053 9.854 17.1386 9.686C17.3719 9.518 17.6379 9.39667 17.9366 9.322C17.9926 9.30333 18.0859 9.28933 18.2166 9.28C18.3473 9.26133 18.4313 9.27067 18.4686 9.308C18.5059 9.34533 18.5246 9.41067 18.5246 9.504C18.5339 9.588 18.5339 9.67667 18.5246 9.77C18.5153 9.86333 18.4966 9.952 18.4686 10.036C18.4499 10.1107 18.4313 10.1573 18.4126 10.176C18.3659 10.2227 18.2913 10.2787 18.1886 10.344C18.0859 10.4 17.9739 10.456 17.8526 10.512C17.7313 10.568 17.6099 10.6193 17.4886 10.666C17.3673 10.7127 17.2599 10.75 17.1666 10.778C17.3253 10.946 17.4373 11.1467 17.5026 11.38C17.5679 11.6133 17.5913 11.8467 17.5726 12.08C17.5539 12.36 17.4839 12.6213 17.3626 12.864C17.2413 13.1067 17.0779 13.3167 16.8726 13.494C16.6673 13.6713 16.4246 13.8113 16.1446 13.914C15.8646 14.0073 15.5566 14.0493 15.2206 14.04C15.1086 14.04 15.0386 14.0353 15.0106 14.026C14.8799 14.026 14.7493 14.0587 14.6186 14.124C14.4973 14.18 14.3853 14.25 14.2826 14.334C14.1893 14.418 14.1099 14.5067 14.0446 14.6C13.9886 14.684 13.9606 14.7493 13.9606 14.796C13.9699 14.8987 14.0353 14.978 14.1566 15.034C14.2873 15.09 14.4319 15.1273 14.5906 15.146L16.5646 15.412C16.9846 15.468 17.3253 15.5707 17.5866 15.72C17.8573 15.86 18.0673 16.0187 18.2166 16.196C18.3753 16.3827 18.4826 16.574 18.5386 16.77C18.5946 16.966 18.6226 17.148 18.6226 17.316C18.6133 17.652 18.5479 17.9647 18.4266 18.254C18.3053 18.5433 18.1186 18.7907 17.8666 18.996C17.6239 19.2107 17.3113 19.374 16.9286 19.486C16.5459 19.6073 16.0886 19.668 15.5566 19.668C15.0246 19.668 14.5813 19.6027 14.2266 19.472C13.8719 19.3413 13.5873 19.178 13.3726 18.982C13.1579 18.7953 13.0039 18.5947 12.9106 18.38C12.8266 18.1653 12.7846 17.9693 12.7846 17.792C12.7753 17.596 12.8173 17.386 12.9106 17.162C13.0133 16.938 13.1159 16.756 13.2186 16.616C13.3026 16.504 13.3913 16.4107 13.4846 16.336C13.5779 16.2613 13.6619 16.2427 13.7366 16.28C13.8113 16.3173 13.8346 16.3873 13.8066 16.49C13.7786 16.5927 13.7553 16.7187 13.7366 16.868C13.7179 16.98 13.7039 17.0873 13.6946 17.19C13.6946 17.2927 13.7179 17.4233 13.7646 17.582C13.7739 17.61 13.7973 17.6707 13.8346 17.764C13.8813 17.8667 13.9653 17.9693 14.0866 18.072C14.2079 18.1747 14.3853 18.2633 14.6186 18.338C14.8519 18.422 15.1646 18.464 15.5566 18.464C16.0046 18.464 16.3546 18.422 16.6066 18.338C16.8679 18.254 17.0639 18.1513 17.1946 18.03C17.3346 17.9087 17.4186 17.7827 17.4466 17.652C17.4839 17.5213 17.5026 17.4093 17.5026 17.316C17.5026 17.176 17.4186 17.022 17.2506 16.854C17.0826 16.686 16.7513 16.5507 16.2566 16.448L14.0866 15.986ZM15.0946 13.214C15.4959 13.1767 15.8179 13.046 16.0606 12.822C16.3126 12.5887 16.4386 12.332 16.4386 12.052C16.4386 11.744 16.3219 11.5013 16.0886 11.324C15.8646 11.1373 15.5706 11.044 15.2066 11.044C15.0759 11.044 14.9406 11.058 14.8006 11.086C14.6606 11.1047 14.5299 11.1467 14.4086 11.212C14.2966 11.2773 14.1986 11.3707 14.1146 11.492C14.0399 11.6133 13.9979 11.7673 13.9886 11.954C13.9793 12.0847 14.0073 12.192 14.0726 12.276C14.1473 12.3507 14.2359 12.43 14.3386 12.514C14.5439 12.6447 14.7166 12.766 14.8566 12.878C14.9966 12.9807 15.0759 13.0927 15.0946 13.214Z" fill="#333333"/>
</svg>
