<svg width="24" height="24" viewBox="0 0 24 24" fill="none" xmlns="http://www.w3.org/2000/svg">
<path d="M7.25105 11.934H10.499L10.653 12.55H6.99905L7.25105 11.934ZM11.549 14.062C11.5584 14.1273 11.5864 14.188 11.633 14.244C11.6797 14.2907 11.7357 14.3187 11.801 14.328L12.347 14.482L12.291 15H9.39305L9.44905 14.482L10.429 14.286L9.19705 7.454H9.60305L6.63505 14.286L7.57305 14.482L7.51705 15H4.95505L5.01105 14.482L5.59905 14.328C5.75771 14.2907 5.86971 14.202 5.93505 14.062L9.09905 7.006H10.191L11.549 14.062ZM14.3063 17.702C13.9609 17.702 13.6529 17.6227 13.3823 17.464C13.1209 17.3147 12.8923 17.1047 12.6963 16.834L12.9203 16.414C13.2469 16.5353 13.5736 16.6287 13.9003 16.694C14.2269 16.7593 14.5536 16.792 14.8803 16.792C15.4123 16.792 15.8043 16.6847 16.0563 16.47C16.3083 16.2553 16.4716 15.9007 16.5463 15.406L16.8263 13.278V12.956L17.2603 9.498L18.1423 9.008L18.3523 9.176L17.6383 14.902C17.5823 15.294 17.4609 15.658 17.2743 15.994C17.0876 16.3393 16.8449 16.638 16.5463 16.89C16.2476 17.142 15.9069 17.338 15.5243 17.478C15.1416 17.6273 14.7356 17.702 14.3063 17.702ZM14.8943 15.056C14.4369 15.056 14.0449 14.8787 13.7183 14.524C13.4009 14.16 13.2423 13.6 13.2423 12.844C13.2423 12.312 13.3169 11.822 13.4663 11.374C13.6249 10.9167 13.8396 10.5153 14.1103 10.17C14.3903 9.82467 14.7123 9.55867 15.0763 9.372C15.4496 9.176 15.8556 9.078 16.2943 9.078C16.5836 9.078 16.8543 9.106 17.1063 9.162C17.3676 9.218 17.6056 9.29267 17.8203 9.386L17.5403 10.114C17.3536 9.946 17.1483 9.82933 16.9243 9.764C16.7003 9.68933 16.4669 9.652 16.2243 9.652C15.9163 9.652 15.6456 9.74067 15.4123 9.918C15.1883 10.086 15.0016 10.3147 14.8523 10.604C14.7029 10.8933 14.5909 11.2107 14.5163 11.556C14.4416 11.9013 14.4043 12.2467 14.4043 12.592C14.4043 13.096 14.4836 13.4973 14.6423 13.796C14.8009 14.0853 15.0203 14.23 15.3003 14.23C15.5709 14.23 15.8556 14.0853 16.1543 13.796C16.4529 13.4973 16.6956 13.11 16.8823 12.634L17.0503 12.732C16.8823 13.5067 16.6069 14.09 16.2243 14.482C15.8416 14.8647 15.3983 15.056 14.8943 15.056Z" fill="#888888"/>
</svg>
