<svg width="24" height="24" viewBox="0 0 24 24" fill="none" xmlns="http://www.w3.org/2000/svg">
<path d="M10.8164 18L9.69531 14.9512H5.44336L4.32227 18H3.57715L7.27539 8.19727H7.91797L11.5752 18H10.8164ZM7.80859 9.79688C7.75846 9.66016 7.71745 9.52572 7.68555 9.39355C7.65365 9.27962 7.61947 9.16569 7.58301 9.05176H7.55566C7.47819 9.35254 7.40299 9.59635 7.33008 9.7832L5.68262 14.3291H9.46289L7.80859 9.79688ZM18.6982 17.4805C18.6982 18.7975 18.4111 19.7614 17.8369 20.3721C17.2627 20.9827 16.3695 21.2881 15.1572 21.2881C14.4827 21.2881 13.7878 21.1104 13.0723 20.7549V20.0986C13.8105 20.5088 14.5101 20.7139 15.1709 20.7139C17.1032 20.7139 18.0693 19.693 18.0693 17.6514V16.7422H18.042C17.4906 17.6947 16.6497 18.1709 15.5195 18.1709C14.6582 18.1709 13.9541 17.8587 13.4072 17.2344C12.8649 16.61 12.5938 15.7396 12.5938 14.623C12.5938 13.5065 12.8877 12.5951 13.4756 11.8887C14.0635 11.1823 14.8382 10.8291 15.7998 10.8291C16.8298 10.8291 17.5771 11.2552 18.042 12.1074H18.0693V11H18.6982V17.4805ZM18.0693 13.6865C18.0693 13.0667 17.8597 12.5312 17.4404 12.0801C17.0257 11.6289 16.4834 11.4033 15.8135 11.4033C15.0433 11.4033 14.4235 11.6927 13.9541 12.2715C13.4847 12.8503 13.25 13.6159 13.25 14.5684C13.25 15.5254 13.4642 16.2705 13.8926 16.8037C14.3255 17.3324 14.8952 17.5967 15.6016 17.5967C16.3535 17.5967 16.9528 17.3529 17.3994 16.8652C17.846 16.3776 18.0693 15.7806 18.0693 15.0742V13.6865Z" fill="#333333"/>
</svg>
