<svg width="24" height="24" viewBox="0 0 24 24" fill="none" xmlns="http://www.w3.org/2000/svg">
<path d="M12.8368 16.594C12.8181 16.6873 12.7201 16.7573 12.5428 16.804C12.3654 16.8507 12.1554 16.8787 11.9128 16.888C11.6514 16.8973 11.3761 16.8927 11.0868 16.874C10.7974 16.846 10.5268 16.818 10.2748 16.79C10.0321 16.762 9.8501 16.7387 9.72877 16.72C9.64477 16.5333 9.6401 16.3887 9.71477 16.286C9.78943 16.174 9.90143 16.09 10.0508 16.034C10.2001 15.9687 10.3401 15.9267 10.4708 15.908C10.4988 15.7773 10.4941 15.614 10.4568 15.418C10.4194 15.2127 10.3634 15.0027 10.2888 14.788C10.2234 14.564 10.1628 14.3633 10.1068 14.186C10.0694 14.0833 10.0368 13.99 10.0088 13.906C9.98077 13.822 9.9621 13.7567 9.95277 13.71C9.43943 13.6913 8.87477 13.6913 8.25877 13.71C7.6521 13.7287 7.11543 13.752 6.64877 13.78C6.6021 13.864 6.54143 13.9993 6.46677 14.186C6.3921 14.3633 6.3081 14.5593 6.21477 14.774C6.13077 14.9887 6.04677 15.194 5.96277 15.39C5.87877 15.586 5.80877 15.7447 5.75277 15.866C5.79943 15.9687 5.90677 16.0293 6.07477 16.048C6.24277 16.0667 6.4061 16.0993 6.56477 16.146C6.70477 16.1833 6.81677 16.2533 6.90077 16.356C6.98477 16.4493 7.00343 16.608 6.95677 16.832C6.72343 16.8787 6.4761 16.902 6.21477 16.902C5.95343 16.8927 5.69677 16.8787 5.44477 16.86C5.1741 16.8413 4.91277 16.832 4.66077 16.832C4.4181 16.832 4.19877 16.8647 4.00277 16.93C3.9561 16.8647 3.9141 16.7947 3.87677 16.72C3.84877 16.636 3.79743 16.5753 3.72277 16.538C3.7321 16.398 3.76477 16.286 3.82077 16.202C3.87677 16.118 3.91877 16.02 3.94677 15.908C4.1801 15.9267 4.38077 15.9033 4.54877 15.838C4.7261 15.7633 4.87543 15.6607 4.99677 15.53C5.2021 15.3153 5.3561 15.0447 5.45877 14.718C5.57077 14.382 5.68743 14.0693 5.80877 13.78C6.00477 13.2947 6.1961 12.786 6.38277 12.254C6.57877 11.7127 6.77943 11.176 6.98477 10.644C7.1901 10.0933 7.4001 9.56133 7.61477 9.048C7.82943 8.53467 8.0441 8.068 8.25877 7.648C8.38943 7.62 8.55277 7.60133 8.74877 7.592C8.94477 7.58267 9.10343 7.60133 9.22477 7.648C9.16877 7.79733 9.1501 7.92333 9.16877 8.026C9.19677 8.12867 9.22943 8.222 9.26677 8.306C9.3041 8.39 9.3321 8.47867 9.35077 8.572C9.37877 8.656 9.36943 8.76333 9.32277 8.894C9.42543 9.15533 9.53277 9.43533 9.64477 9.734C9.75677 10.0327 9.87343 10.3407 9.99477 10.658C10.2374 11.3113 10.4754 11.988 10.7088 12.688C10.9514 13.388 11.1661 14.046 11.3528 14.662C11.3808 14.7553 11.4134 14.872 11.4508 15.012C11.4974 15.152 11.5394 15.264 11.5768 15.348C11.6048 15.3947 11.6374 15.4413 11.6748 15.488C11.7121 15.5253 11.7494 15.5627 11.7868 15.6C11.8521 15.6653 11.9081 15.7307 11.9548 15.796C12.0014 15.852 12.0154 15.9313 11.9968 16.034C12.0248 16.0433 12.0668 16.0527 12.1228 16.062C12.3094 16.0993 12.4868 16.1507 12.6548 16.216C12.8228 16.2813 12.8834 16.4073 12.8368 16.594ZM9.65877 12.856C9.59343 12.6787 9.5001 12.38 9.37877 11.96C9.25743 11.54 9.11743 11.1013 8.95877 10.644C8.86543 10.3733 8.76743 10.1167 8.66477 9.874C8.5621 9.622 8.45943 9.398 8.35677 9.202L7.82477 10.644C7.71277 10.952 7.5961 11.2647 7.47477 11.582C7.35343 11.8993 7.2461 12.184 7.15277 12.436C7.06877 12.688 7.00343 12.87 6.95677 12.982C7.0781 12.9727 7.26477 12.968 7.51677 12.968C7.76877 12.9587 8.03477 12.954 8.31477 12.954C8.6041 12.9447 8.8701 12.9353 9.11277 12.926C9.36477 12.9073 9.54677 12.884 9.65877 12.856ZM20.6947 10.812C20.6947 11.008 20.6247 11.1247 20.4847 11.162C20.354 11.1993 20.2047 11.218 20.0367 11.218C19.9434 11.218 19.8547 11.2227 19.7707 11.232C19.696 11.2413 19.626 11.26 19.5607 11.288C19.6634 11.6147 19.7427 11.946 19.7987 12.282C19.8547 12.618 19.8547 12.9307 19.7987 13.22C19.752 13.4627 19.6494 13.682 19.4907 13.878C19.3414 14.0647 19.1174 14.2093 18.8187 14.312C18.7067 14.3493 18.5947 14.4193 18.4827 14.522C18.3707 14.6153 18.2727 14.6713 18.1887 14.69C17.9647 14.7367 17.7314 14.7507 17.4887 14.732C17.2554 14.704 17.0267 14.6713 16.8027 14.634C16.7654 14.634 16.728 14.634 16.6907 14.634C16.6534 14.6247 16.616 14.6153 16.5787 14.606C16.4387 14.6527 16.3314 14.746 16.2567 14.886C16.1914 15.0167 16.1027 15.124 15.9907 15.208C16.0934 15.4693 16.2567 15.6093 16.4807 15.628C16.7047 15.6467 16.938 15.642 17.1807 15.614C17.2647 15.6047 17.344 15.5953 17.4187 15.586C17.4934 15.5767 17.568 15.572 17.6427 15.572C17.932 15.572 18.2354 15.5907 18.5527 15.628C18.8794 15.656 19.1874 15.7167 19.4767 15.81C19.766 15.894 20.0134 16.02 20.2187 16.188C20.424 16.3467 20.55 16.5567 20.5967 16.818C20.606 16.8647 20.6107 16.9487 20.6107 17.07C20.62 17.2007 20.62 17.3267 20.6107 17.448C20.6107 17.5787 20.606 17.6673 20.5967 17.714C20.578 17.8167 20.5034 17.9427 20.3727 18.092C20.242 18.2507 20.0974 18.3953 19.9387 18.526C19.7894 18.6567 19.6634 18.7453 19.5607 18.792C19.514 18.8107 19.4674 18.82 19.4207 18.82C19.374 18.82 19.3274 18.82 19.2807 18.82C19.234 18.82 19.1874 18.82 19.1407 18.82C19.094 18.8293 19.0427 18.8387 18.9867 18.848C18.9307 18.8573 18.8887 18.8807 18.8607 18.918C18.8327 18.9647 18.7907 18.9973 18.7347 19.016C18.548 19.0813 18.3007 19.114 17.9927 19.114C17.694 19.114 17.3767 19.086 17.0407 19.03C16.7047 18.974 16.3874 18.8993 16.0887 18.806C15.79 18.722 15.5474 18.6333 15.3607 18.54C15.258 18.2693 15.188 17.9893 15.1507 17.7C15.1134 17.4107 15.132 17.1447 15.2067 16.902C15.2907 16.6593 15.4447 16.4727 15.6687 16.342C15.5007 16.1833 15.3654 15.9873 15.2627 15.754C15.16 15.5113 15.1694 15.2313 15.2907 14.914C15.4307 14.83 15.5614 14.7367 15.6827 14.634C15.8134 14.5313 15.9534 14.4473 16.1027 14.382C16.0654 14.2793 15.9954 14.2093 15.8927 14.172C15.7994 14.1253 15.7107 14.074 15.6267 14.018C15.5054 13.7753 15.412 13.5327 15.3467 13.29C15.2907 13.0473 15.2627 12.814 15.2627 12.59C15.272 12.1327 15.3887 11.7313 15.6127 11.386C15.8367 11.0407 16.1447 10.7933 16.5367 10.644C16.5647 10.6253 16.5927 10.616 16.6207 10.616C16.658 10.6067 16.6954 10.5973 16.7327 10.588C17.0314 10.5133 17.3394 10.49 17.6567 10.518C17.9834 10.5367 18.3054 10.5647 18.6227 10.602C18.6787 10.6113 18.7347 10.6207 18.7907 10.63C18.856 10.63 18.9167 10.6347 18.9727 10.644C19.1034 10.6533 19.2247 10.6673 19.3367 10.686C19.458 10.6953 19.5747 10.7 19.6867 10.7C19.7427 10.7 19.794 10.6953 19.8407 10.686C19.8967 10.6673 19.9527 10.6533 20.0087 10.644C20.018 10.644 20.0274 10.644 20.0367 10.644C20.13 10.616 20.2187 10.602 20.3027 10.602C20.396 10.5927 20.48 10.6113 20.5547 10.658C20.6014 10.6767 20.648 10.728 20.6947 10.812ZM18.6507 13.542C18.8467 13.234 18.9494 12.8747 18.9587 12.464C18.968 12.0533 18.8514 11.6613 18.6087 11.288C18.59 11.2787 18.5574 11.2647 18.5107 11.246C18.3054 11.1807 18.1047 11.12 17.9087 11.064C17.7127 10.9987 17.526 10.9707 17.3487 10.98C17.1714 10.9893 17.0034 11.036 16.8447 11.12C16.6954 11.1947 16.5554 11.33 16.4247 11.526C16.3314 11.6753 16.266 11.8853 16.2287 12.156C16.2007 12.4173 16.2054 12.688 16.2427 12.968C16.28 13.248 16.35 13.5 16.4527 13.724C16.5554 13.9387 16.6907 14.0787 16.8587 14.144C17.2414 14.2933 17.5867 14.3027 17.8947 14.172C18.212 14.0413 18.464 13.8313 18.6507 13.542ZM19.6307 16.874C19.2854 16.622 18.8794 16.4867 18.4127 16.468C17.9554 16.4493 17.4934 16.4587 17.0267 16.496C16.9054 16.496 16.784 16.5007 16.6627 16.51C16.5507 16.5193 16.4387 16.524 16.3267 16.524C16.2987 16.5707 16.2707 16.6127 16.2427 16.65C16.224 16.6873 16.2007 16.7247 16.1727 16.762C16.0887 16.874 16.0187 16.986 15.9627 17.098C15.9067 17.21 15.8834 17.3547 15.8927 17.532C15.9114 17.7467 16.0047 17.9287 16.1727 18.078C16.3407 18.2367 16.5554 18.3533 16.8167 18.428C17.0874 18.5027 17.3674 18.5447 17.6567 18.554C18.03 18.554 18.3847 18.4933 18.7207 18.372C19.066 18.26 19.332 18.078 19.5187 17.826C19.7054 17.574 19.7427 17.2567 19.6307 16.874Z" fill="#888888"/>
</svg>
