<svg width="24" height="24" viewBox="0 0 24 24" fill="none" xmlns="http://www.w3.org/2000/svg">
<path d="M8.83978 12.702L9.07778 14.018L5.07378 14.69L3.86978 17.336L2.66578 16.804L7.32778 6.612L8.53178 6.598L12.7878 15.544L11.5978 16.118L7.92978 8.446L5.74578 13.234L8.83978 12.702ZM14.2013 16.51L18.7933 15.698L18.6813 13.29L14.6213 14.144L13.8373 13.374L14.6493 9.188L15.3633 8.656L19.2413 9.02L19.8433 9.636L20.1233 16.23L19.5773 16.888L14.4393 17.798L14.2013 16.51ZM15.3213 12.66L18.6113 11.96L18.5413 10.28L15.8393 10.014L15.3213 12.66Z" fill="#333333"/>
</svg>
