<svg width="24" height="24" viewBox="0 0 24 24" fill="none" xmlns="http://www.w3.org/2000/svg">
<path d="M1.59924 17L5.78524 7.705H8.99624L13.1822 17H10.9202L10.0362 15.037H4.74524L3.86124 17H1.59924ZM5.49924 13.347H9.28224L7.47524 9.33H7.30624L5.49924 13.347ZM15.2214 19.925V18.43H19.1474C19.6674 18.43 19.9274 18.1657 19.9274 17.637V17H17.0674C15.9061 17 15.0004 16.714 14.3504 16.142C13.7004 15.57 13.3754 14.7423 13.3754 13.659C13.3754 12.567 13.7004 11.735 14.3504 11.163C15.0004 10.591 15.9061 10.305 17.0674 10.305H21.8124V17.871C21.8124 18.4863 21.6347 18.9803 21.2794 19.353C20.9241 19.7343 20.3694 19.925 19.6154 19.925H15.2214ZM17.0674 15.505H19.9274V11.8H17.0674C16.5041 11.8 16.0707 11.956 15.7674 12.268C15.4727 12.5713 15.3254 13.035 15.3254 13.659C15.3254 14.2743 15.4727 14.738 15.7674 15.05C16.0707 15.3533 16.5041 15.505 17.0674 15.505Z" fill="#888888"/>
</svg>
