<svg width="24" height="24" viewBox="0 0 24 24" fill="none" xmlns="http://www.w3.org/2000/svg">
<path d="M5.12484 17C4.91951 17 4.77484 16.9393 4.69084 16.818C4.61618 16.6873 4.61618 16.5147 4.69084 16.3L8.05084 7.676C8.17218 7.35867 8.40551 7.2 8.75084 7.2H8.84884C9.19418 7.2 9.42751 7.35867 9.54884 7.676L12.9088 16.3C12.9835 16.5147 12.9835 16.6873 12.9088 16.818C12.8342 16.9393 12.6895 17 12.4748 17H12.2648C11.9102 17 11.6768 16.8367 11.5648 16.51L10.8088 14.494H6.76284L5.99284 16.51C5.88084 16.8367 5.65218 17 5.30684 17H5.12484ZM7.19684 13.29H10.3748L8.80684 9.034L7.19684 13.29ZM16.7552 19.898C15.7099 19.898 14.8699 19.562 14.2352 18.89C14.0859 18.7313 14.0252 18.5727 14.0532 18.414C14.0812 18.2553 14.1792 18.1247 14.3472 18.022C14.5059 17.91 14.6506 17.8727 14.7812 17.91C14.9212 17.9473 15.0706 18.036 15.2292 18.176C15.6212 18.5493 16.1299 18.736 16.7552 18.736C17.3619 18.736 17.8192 18.54 18.1272 18.148C18.4352 17.7653 18.5892 17.168 18.5892 16.356V15.614C18.3652 15.894 18.0899 16.1133 17.7632 16.272C17.4459 16.4307 17.0912 16.51 16.6992 16.51C16.1206 16.51 15.6026 16.384 15.1452 16.132C14.6879 15.88 14.3286 15.516 14.0672 15.04C13.8152 14.5547 13.6892 13.976 13.6892 13.304C13.6892 12.6227 13.8152 12.0487 14.0672 11.582C14.3286 11.106 14.6879 10.742 15.1452 10.49C15.6026 10.238 16.1206 10.112 16.6992 10.112C17.1099 10.112 17.4972 10.2053 17.8612 10.392C18.2252 10.5787 18.5192 10.8633 18.7432 11.246V10.784C18.7432 10.5973 18.7899 10.4667 18.8832 10.392C18.9766 10.3173 19.1119 10.28 19.2892 10.28C19.6532 10.28 19.8352 10.4993 19.8352 10.938V16.356C19.8352 17.5133 19.5692 18.3907 19.0372 18.988C18.5146 19.5947 17.7539 19.898 16.7552 19.898ZM16.7832 15.404C17.3339 15.404 17.7866 15.2127 18.1412 14.83C18.4959 14.4473 18.6732 13.9387 18.6732 13.304C18.6732 12.6693 18.4959 12.1653 18.1412 11.792C17.7866 11.4187 17.3339 11.232 16.7832 11.232C16.2419 11.232 15.7986 11.4187 15.4532 11.792C15.1172 12.1653 14.9492 12.6693 14.9492 13.304C14.9492 13.9387 15.1172 14.4473 15.4532 14.83C15.7986 15.2127 16.2419 15.404 16.7832 15.404Z" fill="#888888"/>
</svg>
