<svg width="24" height="24" viewBox="0 0 24 24" fill="none" xmlns="http://www.w3.org/2000/svg">
<path d="M3.30078 4.162H12.7368V15.404H11.8688L8.59278 7.9H5.47078V9.496H6.73078L4.12678 15.404H3.30078V4.162ZM8.04678 10.574L8.99878 13.136H6.94078L7.96278 10.574H8.04678ZM12.7368 19.982H3.30078V17H6.88478V15.404H6.03078L6.40878 14.48H9.50278L9.83878 15.404H9.11078V17H12.7368V19.982Z" fill="#888888"/>
<path d="M12.4609 19.982V4.162H20.6929V19.982H16.2129C17.3423 19.9447 18.1776 19.6087 18.7189 18.974C19.2603 18.3393 19.5309 17.532 19.5309 16.552V12.058H20.3709V10.686H17.7249V11.666C17.5476 11.3393 17.2956 11.0733 16.9689 10.868C16.6423 10.6627 16.2316 10.56 15.7369 10.56C14.8503 10.56 14.1549 10.8913 13.6509 11.554C13.1469 12.2167 12.8949 13.0193 12.8949 13.962C12.8949 14.9607 13.1703 15.7167 13.7209 16.23C14.2716 16.7433 14.9156 17 15.6529 17C16.2129 17 16.6563 16.888 16.9829 16.664C17.3096 16.44 17.5569 16.1693 17.7249 15.852V16.552C17.7249 17.1867 17.5663 17.6673 17.2489 17.994C16.9409 18.3207 16.5443 18.484 16.0589 18.484C15.2749 18.484 14.6729 18.092 14.2529 17.308L12.8669 18.092C13.1189 18.7827 13.5203 19.2633 14.0709 19.534C14.6309 19.814 15.2236 19.9633 15.8489 19.982H12.4609ZM17.7249 13.654V13.808C17.7249 14.2747 17.5896 14.676 17.3189 15.012C17.0483 15.3387 16.6656 15.502 16.1709 15.502C15.7883 15.502 15.4709 15.3807 15.2189 15.138C14.9669 14.886 14.8409 14.4567 14.8409 13.85C14.8409 13.206 14.9809 12.7487 15.2609 12.478C15.5409 12.198 15.8816 12.058 16.2829 12.058C16.6936 12.058 17.0343 12.1933 17.3049 12.464C17.5849 12.7347 17.7249 13.1313 17.7249 13.654Z" fill="#888888"/>
</svg>
