<svg width="24" height="24" viewBox="0 0 24 24" fill="none" xmlns="http://www.w3.org/2000/svg">
<path d="M4.24574 15.67H5.05774L8.38974 9.23H7.10174L7.24174 7.9H10.0417L12.4077 15.67H13.2477L13.1077 17H9.76174L9.90174 15.67H10.7837L10.4757 14.424H7.18574L6.58374 15.67H7.57774L7.43774 17H4.11974L4.24574 15.67ZM9.28574 10.126L7.74574 13.29H10.1817L9.36974 10.126H9.28574ZM18.6475 10.714H20.7475L20.6495 11.568L20.2715 11.876H19.7115L19.1095 16.762C18.9975 17.6673 18.6941 18.4513 18.1995 19.114C17.7048 19.7767 16.9161 20.108 15.8335 20.108C15.2361 20.108 14.6855 19.9587 14.1815 19.66C13.6775 19.3613 13.3601 18.8667 13.2295 18.176L14.2655 17.616C14.3961 18.0453 14.6108 18.358 14.9095 18.554C15.2175 18.7593 15.5581 18.862 15.9315 18.862C16.9301 18.862 17.5135 18.1573 17.6815 16.748L17.7935 15.768C17.5788 16.1413 17.2941 16.4633 16.9395 16.734C16.5941 17.0047 16.1648 17.14 15.6515 17.14C14.9701 17.14 14.4568 16.888 14.1115 16.384C13.7755 15.88 13.6075 15.2547 13.6075 14.508C13.6075 13.9293 13.7101 13.3413 13.9155 12.744C14.1208 12.1373 14.4428 11.6287 14.8815 11.218C15.3201 10.798 15.8848 10.588 16.5755 10.588C17.4901 10.588 18.0875 10.9613 18.3675 11.708L18.6475 10.714ZM16.7855 11.75C16.2161 11.75 15.8008 12.0207 15.5395 12.562C15.2875 13.1033 15.1615 13.696 15.1615 14.34C15.1615 14.844 15.2455 15.2453 15.4135 15.544C15.5815 15.8427 15.8428 15.992 16.1975 15.992C16.6361 15.992 17.0188 15.8007 17.3455 15.418C17.6815 15.026 17.8961 14.6247 17.9895 14.214L18.0735 13.472C18.1295 12.9493 18.0268 12.534 17.7655 12.226C17.5135 11.9087 17.1868 11.75 16.7855 11.75Z" fill="#888888"/>
</svg>
