<svg width="24" height="24" viewBox="0 0 24 24" fill="none" xmlns="http://www.w3.org/2000/svg">
<path d="M12.3682 17H9.24622V16.286H10.5902L9.84822 14.312H5.74622L4.96222 16.286H6.40422V17H3.29622V16.286H4.15022L7.23022 8.614H5.73222V7.9H8.18222L11.4442 16.286H12.3682V17ZM9.61022 13.668L7.87422 9.076H7.80422L5.99822 13.668H9.61022ZM19.4102 11.442H18.3602V16.972C18.3602 17.9427 18.0942 18.708 17.5622 19.268C17.0396 19.8373 16.3209 20.122 15.4062 20.122C14.7529 20.122 14.1789 19.968 13.6842 19.66C13.1896 19.352 12.8722 18.8993 12.7322 18.302L13.3482 18.022C13.4976 18.5353 13.7776 18.8993 14.1882 19.114C14.6082 19.3287 15.0329 19.436 15.4622 19.436C16.0876 19.436 16.5962 19.2213 16.9882 18.792C17.3896 18.3627 17.5902 17.742 17.5902 16.93V15.698C17.3942 16.0713 17.1142 16.398 16.7502 16.678C16.3956 16.958 15.9196 17.098 15.3222 17.098C14.5756 17.098 13.9456 16.8367 13.4322 16.314C12.9282 15.7913 12.6762 15.0447 12.6762 14.074C12.6762 13.542 12.7696 13.0147 12.9562 12.492C13.1429 11.96 13.4369 11.5213 13.8382 11.176C14.2489 10.8307 14.7856 10.658 15.4482 10.658C15.9056 10.658 16.3256 10.7513 16.7082 10.938C17.0909 11.1247 17.3849 11.4047 17.5902 11.778V10.784H19.4102V11.442ZM17.5902 14.452V13.122C17.5902 12.5993 17.3942 12.1747 17.0022 11.848C16.6196 11.512 16.1622 11.344 15.6302 11.344C14.8462 11.344 14.2909 11.624 13.9642 12.184C13.6376 12.744 13.4742 13.3507 13.4742 14.004C13.4742 14.8067 13.6656 15.4133 14.0482 15.824C14.4309 16.2253 14.8976 16.426 15.4482 16.426C16.0642 16.426 16.5682 16.216 16.9602 15.796C17.3616 15.3667 17.5716 14.9187 17.5902 14.452Z" fill="#333333"/>
</svg>
