<svg width="24" height="24" viewBox="0 0 24 24" fill="none" xmlns="http://www.w3.org/2000/svg">
<path d="M12.3878 17H9.0418V15.894H10.1198L9.5598 14.382H5.8918L5.2898 15.894H6.4798V17H3.1618V15.894H4.0018L6.8718 9.006H5.4718V7.9H8.2158L11.4918 15.894H12.3878V17ZM9.1958 13.43L7.8098 9.734H7.7258L6.2698 13.43H9.1958ZM19.6883 11.708H18.7223V16.846C18.7223 17.8353 18.4469 18.6287 17.8963 19.226C17.3549 19.8233 16.5709 20.122 15.5443 20.122C14.8909 20.122 14.2936 19.9727 13.7523 19.674C13.2109 19.3847 12.8423 18.9133 12.6463 18.26L13.5983 17.77C13.7756 18.2273 14.0463 18.5633 14.4103 18.778C14.7743 18.9927 15.1616 19.1 15.5723 19.1C16.1323 19.1 16.5943 18.904 16.9583 18.512C17.3223 18.12 17.5043 17.5553 17.5043 16.818V15.768C17.3176 16.1227 17.0516 16.426 16.7063 16.678C16.3609 16.93 15.8989 17.056 15.3203 17.056C14.5736 17.056 13.9343 16.7993 13.4023 16.286C12.8796 15.7633 12.6182 15.0073 12.6182 14.018C12.6182 13.1593 12.8516 12.38 13.3183 11.68C13.7849 10.9707 14.4896 10.616 15.4323 10.616C16.4029 10.616 17.0936 10.9847 17.5043 11.722V10.742H19.6883V11.708ZM17.5043 14.172V13.36C17.5043 12.8373 17.3363 12.4173 17.0003 12.1C16.6643 11.7827 16.2583 11.624 15.7823 11.624C15.1663 11.624 14.7089 11.848 14.4103 12.296C14.1116 12.7347 13.9623 13.2807 13.9623 13.934C13.9623 14.6527 14.1209 15.1847 14.4383 15.53C14.7649 15.8753 15.1616 16.048 15.6283 16.048C16.1883 16.048 16.6363 15.852 16.9723 15.46C17.3083 15.068 17.4856 14.6387 17.5043 14.172Z" fill="#333333"/>
</svg>
