<svg width="24" height="24" viewBox="0 0 24 24" fill="none" xmlns="http://www.w3.org/2000/svg">
<path d="M9.1416 17V16.3984L9.94824 16.3301C9.9847 16.3301 10.0189 16.3073 10.0508 16.2617C10.0827 16.2116 10.0986 16.166 10.0986 16.125C10.0986 16.1068 10.0964 16.0954 10.0918 16.0908L9.12793 13.5273H5.89453L4.96484 16.0498C4.96029 16.0589 4.95801 16.0726 4.95801 16.0908C4.95801 16.1455 4.98079 16.2002 5.02637 16.2549C5.0765 16.305 5.12207 16.3301 5.16309 16.3301L5.99023 16.3984V17H3.17383V16.3984L3.9873 16.2275L7.24805 7.38184H8.30078L11.5479 16.0225C11.5798 16.1182 11.6094 16.182 11.6367 16.2139C11.6686 16.2458 11.737 16.2708 11.8418 16.2891L12.4707 16.3984V17H9.1416ZM7.50098 9.18652L6.14062 12.8574H8.875L7.50098 9.18652ZM18.2539 11.1895C18.3587 11.3581 18.4476 11.5426 18.5205 11.7432C18.5934 11.9391 18.6299 12.1738 18.6299 12.4473C18.6299 12.7982 18.5547 13.1104 18.4043 13.3838C18.2539 13.6572 18.0511 13.8896 17.7959 14.0811C17.5452 14.2725 17.2536 14.4183 16.9209 14.5186C16.5928 14.6188 16.2464 14.6689 15.8818 14.6689H15.7451C15.6995 14.6689 15.654 14.6667 15.6084 14.6621C15.5492 14.7578 15.5081 14.8604 15.4854 14.9697C15.4671 15.0791 15.458 15.1816 15.458 15.2773C15.458 15.3639 15.4626 15.4368 15.4717 15.4961C15.4808 15.5553 15.4876 15.5895 15.4922 15.5986L15.6904 15.6191C15.9092 15.6419 16.1484 15.6693 16.4082 15.7012C16.6725 15.7285 16.9368 15.7718 17.2012 15.8311C17.4701 15.8857 17.7298 15.9587 17.9805 16.0498C18.2311 16.1364 18.4521 16.248 18.6436 16.3848C18.8395 16.5169 18.9945 16.681 19.1084 16.877C19.2269 17.0684 19.2861 17.2962 19.2861 17.5605C19.2861 17.8932 19.1904 18.2168 18.999 18.5312C18.8122 18.8503 18.5547 19.1328 18.2266 19.3789C17.8984 19.6296 17.5133 19.8301 17.0713 19.9805C16.6292 20.1309 16.1553 20.2061 15.6494 20.2061C15.2301 20.2061 14.8564 20.1559 14.5283 20.0557C14.2048 19.9554 13.9313 19.8164 13.708 19.6387C13.4847 19.4609 13.3138 19.249 13.1953 19.0029C13.0768 18.7614 13.0176 18.4993 13.0176 18.2168C13.0176 18.0117 13.0472 17.8158 13.1064 17.6289C13.1657 17.4466 13.2568 17.2803 13.3799 17.1299C13.5029 16.984 13.6556 16.8587 13.8379 16.7539C14.0247 16.6445 14.2458 16.5671 14.501 16.5215C14.4736 16.4486 14.4508 16.3893 14.4326 16.3438C14.4144 16.2936 14.3984 16.248 14.3848 16.207C14.3757 16.1615 14.3688 16.1159 14.3643 16.0703C14.3597 16.0202 14.3574 15.9564 14.3574 15.8789C14.3574 15.6966 14.4121 15.4961 14.5215 15.2773C14.6354 15.054 14.8154 14.8171 15.0615 14.5664C14.8291 14.5117 14.6081 14.4251 14.3984 14.3066C14.1888 14.1882 14.0042 14.04 13.8447 13.8623C13.6852 13.68 13.5576 13.4727 13.4619 13.2402C13.3708 13.0033 13.3252 12.7435 13.3252 12.4609C13.3252 12.0918 13.3936 11.7614 13.5303 11.4697C13.667 11.1735 13.8584 10.9229 14.1045 10.7178C14.3506 10.5127 14.6445 10.3555 14.9863 10.2461C15.3327 10.1367 15.7155 10.082 16.1348 10.082C16.2988 10.082 16.4583 10.0957 16.6133 10.123C16.7728 10.1504 16.9209 10.1868 17.0576 10.2324C17.1989 10.2734 17.3288 10.319 17.4473 10.3691C17.5658 10.4193 17.6706 10.4648 17.7617 10.5059H19.6484V11.1895H18.2539ZM18.083 17.9365C18.083 17.7451 18.0352 17.5811 17.9395 17.4443C17.8438 17.3122 17.7161 17.2028 17.5566 17.1162C17.4017 17.0296 17.224 16.9613 17.0234 16.9111C16.8275 16.8564 16.627 16.8132 16.4219 16.7812C16.2214 16.7448 16.0254 16.7174 15.834 16.6992C15.6426 16.6764 15.4785 16.6514 15.3418 16.624C15.1367 16.6969 14.9658 16.7858 14.8291 16.8906C14.6924 16.9909 14.583 17.1003 14.501 17.2188C14.4189 17.3372 14.3597 17.458 14.3232 17.5811C14.2913 17.7041 14.2754 17.8226 14.2754 17.9365C14.2754 18.1051 14.3118 18.2852 14.3848 18.4766C14.4577 18.668 14.5693 18.8434 14.7197 19.0029C14.8701 19.1624 15.0592 19.2946 15.2871 19.3994C15.5195 19.5088 15.793 19.5635 16.1074 19.5635C16.4401 19.5635 16.7295 19.5088 16.9756 19.3994C17.2262 19.2946 17.4336 19.1624 17.5977 19.0029C17.7617 18.8434 17.8825 18.668 17.96 18.4766C18.042 18.2852 18.083 18.1051 18.083 17.9365ZM17.2969 12.3652C17.2969 12.1465 17.2673 11.9346 17.208 11.7295C17.1533 11.5199 17.0713 11.3376 16.9619 11.1826C16.8525 11.0231 16.7158 10.8955 16.5518 10.7998C16.3923 10.7041 16.2077 10.6562 15.998 10.6562C15.8021 10.6562 15.6221 10.695 15.458 10.7725C15.2939 10.8499 15.1527 10.9639 15.0342 11.1143C14.9202 11.2601 14.8291 11.4401 14.7607 11.6543C14.6969 11.8685 14.665 12.11 14.665 12.3789C14.665 12.6113 14.6924 12.8324 14.7471 13.042C14.8063 13.2471 14.8906 13.4271 15 13.582C15.1139 13.737 15.2529 13.86 15.417 13.9512C15.5856 14.0423 15.7793 14.0879 15.998 14.0879C16.2077 14.0879 16.3923 14.0423 16.5518 13.9512C16.7158 13.86 16.8525 13.737 16.9619 13.582C17.0713 13.4271 17.1533 13.2448 17.208 13.0352C17.2673 12.8255 17.2969 12.6022 17.2969 12.3652Z" fill="#131313"/>
</svg>
