<svg width="24" height="24" viewBox="0 0 24 24" fill="none" xmlns="http://www.w3.org/2000/svg">
<path d="M10.1549 14.13H7.5789L6.8369 17H5.4229L8.0129 7.2H9.6789L12.4089 17H10.9249L10.1549 14.13ZM7.8869 12.8H9.8469L8.8389 9.3L7.8869 12.8ZM16.0817 18.946C16.7444 18.862 17.0757 18.456 17.0757 17.728V16.622C16.973 16.7807 16.8004 16.9113 16.5577 17.014C16.3244 17.1167 16.0304 17.168 15.6757 17.168C14.8544 17.168 14.215 16.944 13.7577 16.496C13.3004 16.048 13.0717 15.3947 13.0717 14.536V12.45C13.0717 11.6287 13.3097 10.994 13.7857 10.546C14.271 10.0887 14.9197 9.86 15.7317 9.86C16.0584 9.86 16.343 9.90667 16.5857 10C16.8284 10.0933 17.001 10.2147 17.1037 10.364L17.2717 9.986H18.3497V17.896C18.3497 18.512 18.1957 18.9927 17.8877 19.338C17.5797 19.6833 17.0804 19.884 16.3897 19.94L16.0817 18.946ZM17.0757 12.492C17.0757 12.044 16.9544 11.7033 16.7117 11.47C16.4784 11.2273 16.133 11.106 15.6757 11.106C15.2557 11.106 14.929 11.232 14.6957 11.484C14.4624 11.736 14.3457 12.0813 14.3457 12.52V14.438C14.3457 14.9047 14.453 15.2733 14.6677 15.544C14.8917 15.8147 15.2277 15.95 15.6757 15.95C16.1517 15.95 16.5017 15.7913 16.7257 15.474C16.959 15.1567 17.0757 14.6807 17.0757 14.046V12.492Z" fill="#131313"/>
</svg>
