<svg width="24" height="24" viewBox="0 0 24 24" fill="none" xmlns="http://www.w3.org/2000/svg">
<path d="M7.02541 15.026V13.934H10.6094V15.026H7.02541ZM9.27941 7.13L6.87141 17H5.61141L8.01941 7.13H9.27941ZM9.30741 7.13L11.7154 17H10.4694L8.04741 7.13H9.30741ZM16.7007 17.252V9.93H17.9747V17.252H16.7007ZM12.7667 14.564V12.184H14.0407V14.564H12.7667ZM14.0407 12.184H12.7667C12.7667 11.7173 12.8647 11.2973 13.0607 10.924C13.2567 10.5507 13.5227 10.2567 13.8587 10.042C14.2041 9.82733 14.5961 9.72 15.0347 9.72L15.3567 10.854C14.9741 10.854 14.6567 10.98 14.4047 11.232C14.1621 11.4747 14.0407 11.792 14.0407 12.184ZM17.2607 12.212H16.7007C16.7007 11.8107 16.5747 11.484 16.3227 11.232C16.0707 10.98 15.7487 10.854 15.3567 10.854L15.0347 9.72C15.4547 9.72 15.8327 9.82733 16.1687 10.042C16.5141 10.2567 16.7801 10.5553 16.9667 10.938C17.1627 11.3113 17.2607 11.736 17.2607 12.212ZM14.0407 14.564C14.0407 14.956 14.1621 15.278 14.4047 15.53C14.6567 15.7727 14.9741 15.894 15.3567 15.894L15.0347 17.028C14.5961 17.028 14.2041 16.9207 13.8587 16.706C13.5227 16.4913 13.2567 16.1973 13.0607 15.824C12.8647 15.4507 12.7667 15.0307 12.7667 14.564H14.0407ZM17.2607 14.522C17.2607 14.998 17.1627 15.4273 16.9667 15.81C16.7801 16.1833 16.5141 16.482 16.1687 16.706C15.8327 16.9207 15.4547 17.028 15.0347 17.028L15.3567 15.894C15.7487 15.894 16.0707 15.768 16.3227 15.516C16.5747 15.264 16.7007 14.9327 16.7007 14.522H17.2607ZM17.9747 17.21C17.9747 17.686 17.8627 18.1107 17.6387 18.484C17.4147 18.8667 17.1067 19.1653 16.7147 19.38C16.3227 19.604 15.8794 19.716 15.3847 19.716V18.61C15.7674 18.61 16.0801 18.4747 16.3227 18.204C16.5747 17.9427 16.7007 17.6113 16.7007 17.21H17.9747ZM14.0547 17.392C14.1014 17.8027 14.2507 18.106 14.5027 18.302C14.7547 18.5073 15.0487 18.61 15.3847 18.61V19.716C14.9554 19.716 14.5587 19.6273 14.1947 19.45C13.8307 19.2727 13.5321 19.0253 13.2987 18.708C13.0747 18.3907 12.9347 18.0313 12.8787 17.63L14.0547 17.392Z" fill="#131313"/>
</svg>
