<svg width="24" height="24" viewBox="0 0 24 24" fill="none" xmlns="http://www.w3.org/2000/svg">
<path d="M8.08356 17.098L7.99956 16.986L8.06956 15.992C8.36823 15.964 8.58756 15.936 8.72756 15.908C8.86756 15.88 8.9609 15.838 9.00756 15.782C9.05423 15.7167 9.07756 15.6233 9.07756 15.502C9.07756 15.4553 9.0729 15.404 9.06356 15.348C9.05423 15.2827 9.04023 15.208 9.02156 15.124L8.81156 14.284C8.63423 14.2747 8.4289 14.27 8.19556 14.27C7.96223 14.2607 7.7709 14.256 7.62156 14.256C7.4349 14.256 7.2249 14.2653 6.99156 14.284C6.76756 14.3027 6.56223 14.3213 6.37556 14.34L6.12356 15.208C6.0769 15.3947 6.05356 15.5253 6.05356 15.6C6.05356 15.74 6.0909 15.838 6.16556 15.894C6.24956 15.9407 6.3989 15.964 6.61356 15.964H7.11756L7.20156 16.076L7.08956 17.07C7.08956 17.07 6.9729 17.0607 6.73956 17.042C6.51556 17.0327 6.2449 17.0233 5.92756 17.014C5.61023 17.014 5.30223 17.014 5.00356 17.014C4.7329 17.014 4.46223 17.014 4.19156 17.014C3.9209 17.014 3.69223 17.014 3.50556 17.014C3.32823 17.0233 3.23956 17.028 3.23956 17.028L3.33756 15.978C3.53356 15.9407 3.6969 15.8567 3.82756 15.726C3.96756 15.5953 4.07956 15.3947 4.16356 15.124L6.54356 8.054L9.38556 7.83L9.56756 7.942C9.56756 7.942 9.59556 8.068 9.65156 8.32C9.7169 8.572 9.80556 8.908 9.91756 9.328C10.0296 9.748 10.1509 10.2147 10.2816 10.728C10.4216 11.2413 10.5616 11.764 10.7016 12.296C10.8416 12.828 10.9769 13.332 11.1076 13.808C11.2382 14.284 11.3549 14.69 11.4576 15.026C11.5509 15.3527 11.6676 15.5907 11.8076 15.74C11.9569 15.88 12.1669 15.9593 12.4376 15.978L12.5216 16.104L12.4096 17.042C12.4096 17.042 12.3022 17.0373 12.0876 17.028C11.8822 17.028 11.6349 17.0233 11.3456 17.014C11.0656 17.014 10.8136 17.014 10.5896 17.014C10.1696 17.014 9.76823 17.0187 9.38556 17.028C9.0029 17.0467 8.69023 17.0607 8.44756 17.07C8.2049 17.0887 8.08356 17.098 8.08356 17.098ZM6.76756 12.912H7.63556C7.76623 12.912 7.91556 12.9073 8.08356 12.898C8.2609 12.8887 8.4149 12.8793 8.54556 12.87L7.87356 10.042H7.63556L6.76756 12.912ZM15.5937 20.388C15.0617 20.388 14.595 20.304 14.1937 20.136C13.8017 19.968 13.4937 19.73 13.2697 19.422C13.0457 19.114 12.9337 18.7593 12.9337 18.358C13.0457 18.2553 13.2324 18.12 13.4937 17.952C13.755 17.784 14.035 17.616 14.3337 17.448V17.364C13.9137 17.28 13.5824 17.112 13.3397 16.86C13.1064 16.608 12.971 16.286 12.9337 15.894C13.1017 15.7167 13.279 15.5487 13.4657 15.39C13.6617 15.2313 13.867 15.0773 14.0817 14.928V14.62L15.1597 14.914C14.9917 15.0353 14.8657 15.1473 14.7817 15.25C14.707 15.3433 14.6697 15.4273 14.6697 15.502C14.6697 15.67 14.7864 15.7867 15.0197 15.852C15.253 15.9173 15.547 15.9687 15.9017 16.006C16.2657 16.0433 16.6484 16.0853 17.0497 16.132C17.4604 16.1693 17.843 16.244 18.1977 16.356C18.5617 16.4587 18.8557 16.6173 19.0797 16.832C19.313 17.0467 19.4297 17.336 19.4297 17.7C19.4297 18.0547 19.3224 18.3907 19.1077 18.708C18.9024 19.0253 18.6177 19.31 18.2537 19.562C17.8897 19.8233 17.479 20.024 17.0217 20.164C16.5644 20.3133 16.0884 20.388 15.5937 20.388ZM16.1537 19.17C16.4244 19.17 16.6624 19.1327 16.8677 19.058C17.073 18.9927 17.2317 18.8947 17.3437 18.764C17.4557 18.6333 17.5117 18.484 17.5117 18.316C17.5117 18.1853 17.4604 18.078 17.3577 17.994C17.2644 17.9193 17.0637 17.8493 16.7557 17.784C16.4477 17.728 15.981 17.658 15.3557 17.574C15.2437 17.7047 15.155 17.84 15.0897 17.98C15.0244 18.12 14.9917 18.26 14.9917 18.4C14.9917 18.6427 15.0897 18.8293 15.2857 18.96C15.4817 19.1 15.771 19.17 16.1537 19.17ZM16.0417 14.144C16.331 14.144 16.5504 14.0413 16.6997 13.836C16.849 13.6213 16.9237 13.3087 16.9237 12.898C16.9237 12.4407 16.8397 12.0953 16.6717 11.862C16.5037 11.6193 16.261 11.498 15.9437 11.498C15.6544 11.498 15.4397 11.6053 15.2997 11.82C15.1597 12.0253 15.0897 12.338 15.0897 12.758C15.0897 13.206 15.169 13.5513 15.3277 13.794C15.4957 14.0273 15.7337 14.144 16.0417 14.144ZM15.8317 15.236C15.2624 15.236 14.763 15.1427 14.3337 14.956C13.9137 14.76 13.587 14.4893 13.3537 14.144C13.1297 13.7893 13.0177 13.374 13.0177 12.898C13.0177 12.3847 13.1437 11.932 13.3957 11.54C13.657 11.148 14.0164 10.8447 14.4737 10.63C14.931 10.406 15.4584 10.294 16.0557 10.294C16.373 10.294 16.639 10.3173 16.8537 10.364C17.0777 10.4013 17.3017 10.42 17.5257 10.42C17.7217 10.4013 18.0017 10.35 18.3657 10.266C18.7297 10.1727 19.117 10.0607 19.5277 9.93L19.6117 10L19.4297 11.218C19.271 11.2367 19.1077 11.2553 18.9397 11.274C18.7717 11.2833 18.6177 11.288 18.4777 11.288L18.4217 11.372C18.7857 11.7547 18.9677 12.212 18.9677 12.744C18.9677 13.2293 18.8324 13.6587 18.5617 14.032C18.3004 14.4053 17.9317 14.6993 17.4557 14.914C16.989 15.1287 16.4477 15.236 15.8317 15.236Z" fill="#131313"/>
</svg>
