<svg width="24" height="24" viewBox="0 0 24 24" fill="none" xmlns="http://www.w3.org/2000/svg">
<path d="M12.1483 16H11.0003L10.7903 15.104L10.2863 13.564L8.27026 13.522L6.45026 13.564L5.90426 15.048L5.68026 16H4.56026L7.85026 7.026H9.15226L12.1483 16ZM9.97826 12.612L8.52226 8.188H8.42426L6.80026 12.612L8.36826 12.64L9.97826 12.612ZM16.5506 8.958C17.2786 8.958 18.0113 9.11667 18.7486 9.434L18.3986 10.442H18.2726C17.9273 10.218 17.6099 10.064 17.3206 9.98C17.0313 9.88667 16.7186 9.84 16.3826 9.84C15.5893 9.84 14.9919 10.064 14.5906 10.512C14.1986 10.96 14.0026 11.66 14.0026 12.612C14.0026 13.5267 14.1846 14.1893 14.5486 14.6C14.9126 15.0013 15.4913 15.202 16.2846 15.202C16.5179 15.202 16.7419 15.1833 16.9566 15.146C17.1713 15.0993 17.4326 15.02 17.7406 14.908V14.208L17.7266 13.214L18.6926 13.144V15.664C17.7499 15.944 16.9333 16.084 16.2426 16.084C15.1413 16.084 14.3059 15.79 13.7366 15.202C13.1766 14.6047 12.8966 13.7553 12.8966 12.654C12.8966 11.4593 13.2139 10.5447 13.8486 9.91C14.4926 9.27533 15.3933 8.958 16.5506 8.958Z" fill="#131313"/>
</svg>
