<svg width="24" height="24" viewBox="0 0 24 24" fill="none" xmlns="http://www.w3.org/2000/svg">
<path d="M11.7601 15.18C11.8161 15.516 11.9141 15.754 12.0541 15.894C12.1941 16.034 12.4088 16.1227 12.6981 16.16L12.7541 16.244L12.5581 17.042C12.5581 17.042 12.4601 17.0373 12.2641 17.028C12.0681 17.0187 11.8395 17.0093 11.5781 17C11.3261 17 11.1021 17 10.9061 17C10.5328 17 10.1688 17.0093 9.81414 17.028C9.45947 17.0467 9.17014 17.0653 8.94614 17.084C8.73147 17.1027 8.62414 17.112 8.62414 17.112L8.56814 17L8.72214 16.202C9.18881 16.1553 9.49214 16.0947 9.63214 16.02C9.77214 15.9453 9.84214 15.8053 9.84214 15.6C9.84214 15.544 9.83747 15.4833 9.82814 15.418C9.82814 15.3433 9.82347 15.2687 9.81414 15.194L9.67414 14.074C9.61814 14.074 9.50614 14.074 9.33814 14.074C9.17947 14.0647 9.01147 14.06 8.83414 14.06C8.66614 14.06 8.54014 14.06 8.45614 14.06C8.31614 14.06 8.15281 14.0647 7.96614 14.074C7.78881 14.0833 7.62081 14.0973 7.46214 14.116C7.31281 14.1253 7.20547 14.1347 7.14014 14.144L6.67814 15.264C6.58481 15.488 6.53814 15.6607 6.53814 15.782C6.53814 16.034 6.72014 16.16 7.08414 16.16H7.68614L7.72814 16.244L7.54614 17.084C7.54614 17.084 7.44347 17.0747 7.23814 17.056C7.03281 17.0467 6.77614 17.0327 6.46814 17.014C6.16947 17.0047 5.87547 17 5.58614 17C5.34347 17 5.09614 17 4.84414 17C4.59214 17.0093 4.38214 17.0187 4.21414 17.028C4.04614 17.0373 3.96214 17.042 3.96214 17.042L4.15814 16.146C4.37281 16.1087 4.55481 16.02 4.70414 15.88C4.86281 15.74 5.01681 15.5113 5.16614 15.194L8.41414 8.096L10.5281 7.858L10.6681 7.942C10.6681 7.942 10.6821 8.06333 10.7101 8.306C10.7475 8.53933 10.7941 8.86133 10.8501 9.272C10.9061 9.67333 10.9715 10.1307 11.0461 10.644C11.1208 11.148 11.1955 11.6707 11.2701 12.212C11.3541 12.7533 11.4381 13.2807 11.5221 13.794C11.6061 14.3073 11.6855 14.7693 11.7601 15.18ZM7.61614 13.01H8.56814C8.71747 13.01 8.88547 13.0053 9.07214 12.996C9.25881 12.9867 9.42681 12.9727 9.57614 12.954L9.18414 9.804H8.98814L7.61614 13.01ZM14.3017 20.374C13.835 20.374 13.4104 20.2853 13.0277 20.108C12.645 19.94 12.3464 19.7113 12.1317 19.422C11.9077 19.1327 11.8144 18.82 11.8517 18.484L11.8937 18.358C12.0524 18.2553 12.2624 18.1247 12.5237 17.966C12.7757 17.8167 13.0557 17.6487 13.3637 17.462C13.681 17.2847 13.9984 17.112 14.3157 16.944L14.3297 16.832C14.059 16.692 13.8444 16.4587 13.6857 16.132C13.5364 15.796 13.4617 15.3993 13.4617 14.942C13.4617 14.41 13.555 13.878 13.7417 13.346C13.9377 12.814 14.1944 12.3333 14.5117 11.904C14.829 11.4653 15.179 11.12 15.5617 10.868C15.9537 10.6067 16.3457 10.476 16.7377 10.476L17.9837 10.728L18.0957 10.406L18.2637 10.336L19.3417 10.518L19.4957 10.756C19.337 11.0733 19.197 11.3907 19.0757 11.708C18.9544 12.0253 18.8564 12.3287 18.7817 12.618C18.707 12.898 18.6557 13.1593 18.6277 13.402C18.609 13.5793 18.5904 13.8173 18.5717 14.116C18.553 14.4147 18.5297 14.7367 18.5017 15.082C18.483 15.4273 18.4644 15.754 18.4457 16.062C18.427 16.3607 18.4037 16.5987 18.3757 16.776C18.3384 17.0933 18.2264 17.42 18.0397 17.756C17.853 18.092 17.615 18.414 17.3257 18.722C17.0364 19.0393 16.719 19.3193 16.3737 19.562C16.0377 19.814 15.6877 20.01 15.3237 20.15C14.969 20.2993 14.6284 20.374 14.3017 20.374ZM14.9177 19.142C15.459 19.142 15.9117 18.96 16.2757 18.596C16.6397 18.2413 16.8637 17.7373 16.9477 17.084L17.2697 14.396L17.1437 14.354C16.8077 14.9233 16.5277 15.376 16.3037 15.712C16.089 16.048 15.893 16.3093 15.7157 16.496C15.5384 16.6827 15.3564 16.846 15.1697 16.986C14.9364 17.154 14.6844 17.322 14.4137 17.49C14.1524 17.6673 13.9284 17.826 13.7417 17.966C13.5644 18.106 13.4757 18.2087 13.4757 18.274C13.4757 18.414 13.5457 18.5493 13.6857 18.68C13.8257 18.82 14.0077 18.932 14.2317 19.016C14.4557 19.1 14.6844 19.142 14.9177 19.142ZM15.5337 15.432C15.655 15.432 15.823 15.2827 16.0377 14.984C16.2524 14.676 16.4904 14.2607 16.7517 13.738C17.0224 13.2153 17.293 12.6227 17.5637 11.96C17.461 11.904 17.3397 11.848 17.1997 11.792C17.0597 11.7267 16.915 11.6753 16.7657 11.638C16.6164 11.5913 16.467 11.568 16.3177 11.568C16.1217 11.568 15.935 11.6987 15.7577 11.96C15.5804 12.212 15.431 12.5387 15.3097 12.94C15.1977 13.332 15.1417 13.7427 15.1417 14.172C15.1417 14.5173 15.179 14.816 15.2537 15.068C15.3377 15.3107 15.431 15.432 15.5337 15.432Z" fill="#131313"/>
</svg>
