<svg width="24" height="24" viewBox="0 0 24 24" fill="none" xmlns="http://www.w3.org/2000/svg">
<path d="M12.3983 16H10.9143L10.7043 14.992L10.3123 13.746L8.40829 13.704L6.68629 13.746L6.26629 14.922L6.04229 16H4.60029L7.80629 7.01199H9.50029L12.3983 16ZM9.94829 12.57L8.66029 8.42599H8.56229L7.09229 12.57L8.50629 12.598L9.94829 12.57ZM19.5931 10.232C19.3318 10.316 18.9304 10.4047 18.3891 10.498L18.3611 10.554C18.5384 10.8527 18.6271 11.212 18.6271 11.632C18.6271 12.3227 18.3891 12.8733 17.9131 13.284C17.4371 13.6853 16.7931 13.886 15.9811 13.886C15.6824 13.886 15.3978 13.858 15.1271 13.802C15.0151 13.8953 14.9358 13.9793 14.8891 14.054C14.8518 14.1193 14.8331 14.1893 14.8331 14.264C14.8331 14.4507 14.9498 14.5813 15.1831 14.656C15.4258 14.7307 15.8038 14.8053 16.3171 14.88C16.8491 14.9453 17.2924 15.0247 17.6471 15.118C18.0018 15.2113 18.3051 15.37 18.5571 15.594C18.8184 15.818 18.9491 16.126 18.9491 16.518C18.9491 16.9287 18.8138 17.302 18.5431 17.638C18.2724 17.974 17.8991 18.2353 17.4231 18.422C16.9564 18.618 16.4338 18.716 15.8551 18.716C15.0711 18.716 14.4598 18.5433 14.0211 18.198C13.5918 17.8527 13.3771 17.4 13.3771 16.84C13.5171 16.616 13.6851 16.4153 13.8811 16.238C14.0771 16.0607 14.3104 15.8833 14.5811 15.706V15.636C14.2544 15.524 14.0024 15.3793 13.8251 15.202C13.6478 15.0153 13.5591 14.768 13.5591 14.46C13.8018 14.1147 14.1004 13.83 14.4551 13.606V13.536C14.1378 13.3587 13.8951 13.1207 13.7271 12.822C13.5684 12.514 13.4891 12.1547 13.4891 11.744C13.4891 11.0347 13.7224 10.4793 14.1891 10.078C14.6651 9.66732 15.3044 9.46199 16.1071 9.46199C16.5924 9.46199 17.0218 9.54132 17.3951 9.69999C18.0858 9.58799 18.7764 9.42466 19.4671 9.20999L19.5931 9.29399V10.232ZM16.0371 12.976C16.4664 12.976 16.7931 12.8593 17.0171 12.626C17.2504 12.3927 17.3671 12.0613 17.3671 11.632C17.3671 11.2307 17.2598 10.9227 17.0451 10.708C16.8304 10.4933 16.5131 10.386 16.0931 10.386C15.6544 10.386 15.3184 10.498 15.0851 10.722C14.8611 10.9367 14.7491 11.254 14.7491 11.674C14.7491 12.094 14.8564 12.416 15.0711 12.64C15.2951 12.864 15.6171 12.976 16.0371 12.976ZM17.7171 16.784C17.7171 16.5787 17.6378 16.42 17.4791 16.308C17.3204 16.196 17.1291 16.112 16.9051 16.056C16.6811 16.0093 16.3544 15.9533 15.9251 15.888C15.7198 15.8693 15.5751 15.8507 15.4911 15.832C15.1924 16.0187 14.9684 16.2007 14.8191 16.378C14.6698 16.5553 14.5951 16.7373 14.5951 16.924C14.5951 17.176 14.7164 17.3813 14.9591 17.54C15.2111 17.708 15.5658 17.792 16.0231 17.792C16.5178 17.792 16.9238 17.6987 17.2411 17.512C17.5584 17.3253 17.7171 17.0827 17.7171 16.784Z" fill="#131313"/>
</svg>
