<svg width="24" height="24" viewBox="0 0 24 24" fill="none" xmlns="http://www.w3.org/2000/svg">
<path d="M13.1736 15.922C13.3509 15.9873 13.4303 16.1087 13.4116 16.286L13.3136 17H9.89759L9.98159 16.286C9.99093 16.1273 10.0983 16.006 10.3036 15.922C10.4249 15.8847 10.5229 15.8473 10.5976 15.81L10.5696 15.656L10.2336 14.284H6.20159L5.50159 15.726L5.45959 15.81C5.54359 15.8473 5.60426 15.8753 5.64159 15.894C5.68826 15.9033 5.71626 15.9127 5.72559 15.922C5.89359 16.006 5.97293 16.1273 5.96359 16.286L5.86559 17H2.44959L2.53359 16.286C2.54293 16.1273 2.65026 16.006 2.85559 15.922L3.66759 15.6L8.16159 6.87799H10.0936L12.4456 15.6L13.1736 15.922ZM9.91159 12.954L9.15559 9.81799L9.02959 9.28599L8.90359 8.62799L8.63759 9.28599C8.57226 9.46332 8.48826 9.64066 8.38559 9.81799L6.84559 12.954H9.91159ZM20.457 11.89C20.457 12.086 20.4337 12.2773 20.387 12.464C20.3497 12.632 20.2937 12.786 20.219 12.926C20.107 13.15 20.0323 13.29 19.995 13.346C19.967 13.3833 19.8923 13.514 19.771 13.738C19.7057 13.85 19.6497 13.99 19.603 14.158C19.5563 14.3167 19.533 14.4753 19.533 14.634C19.533 14.83 19.575 15.0073 19.659 15.166C19.799 15.4367 19.883 15.6 19.911 15.656C19.995 15.796 20.0837 15.978 20.177 16.202C20.2517 16.3793 20.289 16.5987 20.289 16.86C20.289 17.2053 20.2097 17.546 20.051 17.882C19.9017 18.19 19.673 18.47 19.365 18.722C19.085 18.9553 18.721 19.142 18.273 19.282C17.8343 19.422 17.349 19.492 16.817 19.492C16.3783 19.492 15.9817 19.45 15.627 19.366C15.2723 19.2633 14.9737 19.1327 14.731 18.974C14.4603 18.7967 14.269 18.6053 14.157 18.4C14.0263 18.1667 13.961 17.924 13.961 17.672C13.961 17.2707 14.059 16.9347 14.255 16.664C14.451 16.4027 14.7077 16.188 15.025 16.02C15.361 15.8427 15.7203 15.7213 16.103 15.656C16.523 15.5813 16.915 15.544 17.279 15.544C17.4097 15.544 17.5963 15.5533 17.839 15.572C17.9603 15.5813 18.133 15.6047 18.357 15.642L18.315 15.418C18.2963 15.3247 18.287 15.2453 18.287 15.18C18.287 14.8907 18.3617 14.592 18.511 14.284C18.3523 14.396 18.1517 14.4893 17.909 14.564C17.7037 14.6293 17.433 14.662 17.097 14.662C16.845 14.662 16.5883 14.6153 16.327 14.522C16.0937 14.4473 15.879 14.312 15.683 14.116C15.4963 13.9293 15.347 13.7053 15.235 13.444C15.1323 13.1827 15.081 12.8607 15.081 12.478C15.081 12.1233 15.1417 11.7827 15.263 11.456C15.375 11.148 15.571 10.8493 15.851 10.56C16.103 10.2987 16.4203 10.0887 16.803 9.92999C17.195 9.77132 17.6337 9.69199 18.119 9.69199C18.399 9.69199 18.651 9.72466 18.875 9.78999C19.1363 9.84599 19.3557 9.93466 19.533 10.056H21.549L21.465 10.616C21.4463 10.7373 21.4137 10.8353 21.367 10.91C21.3203 10.9847 21.241 11.036 21.129 11.064L20.387 11.26C20.4057 11.3253 20.4243 11.4233 20.443 11.554C20.4523 11.6193 20.457 11.7313 20.457 11.89ZM17.601 13.612C17.8157 13.612 17.9977 13.5653 18.147 13.472C18.3057 13.3693 18.441 13.2433 18.553 13.094C18.6463 12.9727 18.7257 12.7907 18.791 12.548C18.847 12.352 18.875 12.1513 18.875 11.946C18.875 11.582 18.7957 11.316 18.637 11.148C18.469 10.9613 18.231 10.868 17.923 10.868C17.7083 10.868 17.5217 10.91 17.363 10.994C17.223 11.0687 17.0923 11.19 16.971 11.358C16.8777 11.4887 16.7983 11.666 16.733 11.89C16.677 12.086 16.649 12.2867 16.649 12.492C16.649 12.8467 16.7283 13.1267 16.887 13.332C17.0457 13.5187 17.2837 13.612 17.601 13.612ZM18.707 16.818L18.679 16.636C18.427 16.5893 18.1983 16.5613 17.993 16.552C17.713 16.5333 17.5123 16.524 17.391 16.524C17.0363 16.524 16.7657 16.5473 16.579 16.594C16.3363 16.65 16.1497 16.72 16.019 16.804C15.879 16.8787 15.7717 16.9767 15.697 17.098C15.6223 17.2193 15.585 17.336 15.585 17.448C15.585 17.7373 15.697 17.952 15.921 18.092C16.145 18.232 16.4903 18.302 16.957 18.302C17.237 18.302 17.475 18.2693 17.671 18.204C17.9137 18.12 18.1003 18.0313 18.231 17.938C18.3803 17.826 18.5017 17.686 18.595 17.518C18.679 17.3687 18.721 17.2007 18.721 17.014L18.707 16.818Z" fill="#131313"/>
</svg>
