<svg width="24" height="24" viewBox="0 0 24 24" fill="none" xmlns="http://www.w3.org/2000/svg">
<path d="M3.3467 17.042C3.25336 17.042 3.18803 17.0093 3.1507 16.944C3.11336 16.8787 3.0947 16.8087 3.0947 16.734C3.10403 16.5753 3.14136 16.4867 3.2067 16.468C3.27203 16.4493 3.35136 16.44 3.4447 16.44C3.6967 16.44 3.88803 16.3887 4.0187 16.286C4.14936 16.1833 4.25203 16.048 4.3267 15.88C4.4107 15.712 4.49003 15.5393 4.5647 15.362L7.0147 9.566C7.10803 9.342 7.1267 9.174 7.0707 9.062C7.0147 8.94067 6.92136 8.85667 6.7907 8.81C6.66003 8.754 6.51536 8.712 6.3567 8.684C6.2167 8.656 6.12336 8.63267 6.0767 8.614C6.03003 8.586 6.0067 8.502 6.0067 8.362C6.0067 8.20333 6.0627 8.11933 6.1747 8.11C6.2867 8.09133 6.41736 8.082 6.5667 8.082C6.94936 8.082 7.27603 8.11933 7.5467 8.194C7.81736 8.26867 8.0507 8.41333 8.2467 8.628C8.4427 8.83333 8.6247 9.146 8.7927 9.566L11.1447 15.362C11.21 15.5207 11.28 15.684 11.3547 15.852C11.4294 16.02 11.5274 16.16 11.6487 16.272C11.7794 16.3747 11.9427 16.4307 12.1387 16.44C12.2414 16.44 12.3207 16.4493 12.3767 16.468C12.442 16.4867 12.4794 16.5753 12.4887 16.734C12.4887 16.8087 12.4654 16.8787 12.4187 16.944C12.3814 17.0093 12.3207 17.042 12.2367 17.042C11.938 17.0233 11.6767 17.0093 11.4527 17C11.2287 17 10.9767 17 10.6967 17C10.146 17 9.56736 17.014 8.9607 17.042C8.86736 17.042 8.80203 17.0093 8.7647 16.944C8.72736 16.8787 8.7087 16.8087 8.7087 16.734C8.71803 16.5753 8.75536 16.4867 8.8207 16.468C8.88603 16.4493 8.96536 16.44 9.0587 16.44C9.51603 16.44 9.76336 16.356 9.8007 16.188C9.84736 16.02 9.80536 15.7447 9.6747 15.362L9.1987 14.2H5.7407C5.6007 14.5547 5.49803 14.8113 5.4327 14.97C5.3767 15.1287 5.33936 15.2313 5.3207 15.278C5.31136 15.3247 5.30203 15.3527 5.2927 15.362C5.19003 15.6793 5.13403 15.9173 5.1247 16.076C5.1247 16.2253 5.19936 16.3233 5.3487 16.37C5.50736 16.4167 5.7687 16.44 6.1327 16.44C6.23536 16.44 6.3147 16.4493 6.3707 16.468C6.43603 16.4867 6.47336 16.5753 6.4827 16.734C6.4827 16.8087 6.45936 16.8787 6.4127 16.944C6.37536 17.0093 6.3147 17.042 6.2307 17.042C5.93203 17.0233 5.6707 17.0093 5.4467 17C5.23203 17 4.9847 17 4.7047 17C4.51803 17 4.35936 17 4.2287 17C4.10736 17.0093 3.98136 17.014 3.8507 17.014C3.72003 17.0233 3.55203 17.0327 3.3467 17.042ZM6.0067 13.598H8.9467L7.5327 10H7.4907L6.0067 13.598ZM15.7412 20.052C13.7718 20.052 12.7872 19.492 12.7872 18.372C12.7872 18.064 12.8852 17.7887 13.0812 17.546C13.2772 17.3127 13.5385 17.196 13.8652 17.196C14.0798 17.196 14.2572 17.252 14.3972 17.364C14.5372 17.4853 14.6072 17.5693 14.6072 17.616C14.6072 17.6347 14.5698 17.6767 14.4952 17.742C14.4298 17.8073 14.3598 17.896 14.2852 18.008C14.2198 18.12 14.1872 18.2693 14.1872 18.456C14.1872 19.1747 14.8032 19.534 16.0352 19.534C16.7352 19.534 17.2765 19.4127 17.6592 19.17C18.0512 18.9273 18.2472 18.5587 18.2472 18.064C18.2472 17.7933 18.1585 17.588 17.9812 17.448C17.8132 17.308 17.5845 17.21 17.2952 17.154C17.0152 17.098 16.7025 17.0607 16.3572 17.042C16.0118 17.0327 15.6618 17.0233 15.3072 17.014C14.9618 17.0047 14.6398 16.9767 14.3412 16.93C14.0145 16.874 13.7392 16.7667 13.5152 16.608C13.3005 16.44 13.1932 16.1693 13.1932 15.796C13.1932 15.4507 13.3145 15.152 13.5572 14.9C13.8092 14.6387 14.1825 14.508 14.6772 14.508C14.0798 14.2747 13.6785 13.99 13.4732 13.654C13.2772 13.318 13.1792 12.9727 13.1792 12.618C13.1792 12.2167 13.2912 11.8573 13.5152 11.54C13.7485 11.2133 14.0658 10.9567 14.4672 10.77C14.8778 10.574 15.3492 10.476 15.8812 10.476C16.1425 10.476 16.4132 10.4993 16.6932 10.546C16.9825 10.5833 17.2298 10.6533 17.4352 10.756L19.3532 10.392C19.4558 10.3827 19.5258 10.4153 19.5632 10.49C19.6005 10.5647 19.6192 10.644 19.6192 10.728C19.6192 10.8493 19.6005 10.9707 19.5632 11.092C19.5258 11.204 19.4745 11.26 19.4092 11.26L18.0232 11.204V11.232C18.1818 11.3907 18.3172 11.6007 18.4292 11.862C18.5412 12.1233 18.5972 12.3707 18.5972 12.604C18.5972 13.052 18.4665 13.4393 18.2052 13.766C17.9532 14.0927 17.6265 14.3447 17.2252 14.522C16.8332 14.69 16.4225 14.774 15.9932 14.774H15.3772C14.8918 14.774 14.5372 14.8207 14.3132 14.914C14.0985 15.0073 13.9912 15.1613 13.9912 15.376C13.9912 15.544 14.0472 15.6747 14.1592 15.768C14.2805 15.852 14.4952 15.9033 14.8032 15.922L16.7212 15.992C17.7198 16.0293 18.4292 16.188 18.8492 16.468C19.2785 16.748 19.4932 17.1633 19.4932 17.714C19.4932 18.2087 19.3345 18.6287 19.0172 18.974C18.7092 19.3287 18.2705 19.5947 17.7012 19.772C17.1412 19.9587 16.4878 20.052 15.7412 20.052ZM15.8812 14.368C16.3105 14.368 16.6605 14.2187 16.9312 13.92C17.2018 13.612 17.3372 13.1733 17.3372 12.604C17.3372 12.0813 17.1972 11.6707 16.9172 11.372C16.6465 11.064 16.2965 10.91 15.8672 10.91C15.4565 10.91 15.1112 11.0593 14.8312 11.358C14.5605 11.6473 14.4252 12.0533 14.4252 12.576C14.4252 13.1453 14.5605 13.5887 14.8312 13.906C15.1112 14.214 15.4612 14.368 15.8812 14.368Z" fill="#131313"/>
</svg>
