<svg width="24" height="24" viewBox="0 0 24 24" fill="none" xmlns="http://www.w3.org/2000/svg">
<path d="M6.5072 16L8.2432 7.72601H9.6992L11.4212 16H10.2312L9.8392 14.18H8.0192L7.6552 16H6.5072ZM8.0612 13.62H9.8112L8.9432 8.90201L8.0612 13.62ZM14.0105 17.652C13.8985 17.652 13.7632 17.6473 13.6045 17.638C13.4552 17.6287 13.3059 17.6147 13.1565 17.596C13.0165 17.5867 12.8905 17.5727 12.7785 17.554C12.6759 17.5447 12.6105 17.5353 12.5825 17.526V16.924C12.7039 16.9427 12.8719 16.9613 13.0865 16.98C13.3105 17.008 13.5065 17.022 13.6745 17.022C13.8052 17.022 13.9452 17.0127 14.0945 16.994C14.2532 16.9753 14.4025 16.924 14.5425 16.84C14.6825 16.7653 14.7945 16.6347 14.8785 16.448C14.9719 16.2707 15.0185 16.028 15.0185 15.72V14.754C14.9625 14.9127 14.8785 15.062 14.7665 15.202C14.6639 15.342 14.5192 15.454 14.3325 15.538C14.1552 15.622 13.9265 15.664 13.6465 15.664C13.4599 15.664 13.2732 15.6453 13.0865 15.608C12.9092 15.5613 12.7459 15.4773 12.5965 15.356C12.4565 15.2253 12.3445 15.034 12.2605 14.782C12.1765 14.53 12.1345 14.1893 12.1345 13.76V10.68C12.1345 10.0733 12.2559 9.63001 12.4985 9.35001C12.7412 9.07001 13.1285 8.93001 13.6605 8.93001C13.9219 8.93001 14.1459 8.96734 14.3325 9.04201C14.5285 9.10734 14.6919 9.20534 14.8225 9.33601C14.9625 9.46668 15.0652 9.62534 15.1305 9.81201L14.9765 9.82601L15.1445 9.07001H16.0685V15.286C16.0685 15.6407 16.0265 15.9627 15.9425 16.252C15.8679 16.5413 15.7465 16.7887 15.5785 16.994C15.4199 17.2087 15.2099 17.372 14.9485 17.484C14.6872 17.596 14.3745 17.652 14.0105 17.652ZM14.0525 14.992C14.3232 14.992 14.5239 14.9267 14.6545 14.796C14.7945 14.6653 14.8879 14.4927 14.9345 14.278C14.9812 14.0633 15.0045 13.844 15.0045 13.62V10.232C14.9765 10.148 14.9252 10.064 14.8505 9.98001C14.7852 9.89601 14.6872 9.82134 14.5565 9.75601C14.4352 9.69068 14.2672 9.65801 14.0525 9.65801C13.7445 9.65801 13.5252 9.73268 13.3945 9.88201C13.2639 10.0313 13.1985 10.3113 13.1985 10.722V14.026C13.1985 14.25 13.2265 14.4273 13.2825 14.558C13.3385 14.6887 13.4132 14.7867 13.5065 14.852C13.6092 14.908 13.7072 14.9453 13.8005 14.964C13.9032 14.9827 13.9872 14.992 14.0525 14.992Z" fill="#131313"/>
</svg>
