<svg width="24" height="24" viewBox="0 0 24 24" fill="none" xmlns="http://www.w3.org/2000/svg">
<path d="M6.39034 16L8.00034 7.72601H9.87634L11.4583 16H9.97434L9.63834 14.32H8.12634L7.81834 16H6.39034ZM8.15434 13.634H9.62433L8.89634 9.02801L8.15434 13.634ZM14.1154 17.666C13.994 17.666 13.8447 17.6567 13.6674 17.638C13.4994 17.6287 13.336 17.6147 13.1774 17.596C13.0187 17.5867 12.8787 17.5727 12.7574 17.554C12.6454 17.5447 12.5754 17.5353 12.5474 17.526V16.812C12.6687 16.8307 12.8414 16.8493 13.0654 16.868C13.2987 16.896 13.4994 16.91 13.6674 16.91C13.8074 16.91 13.9474 16.896 14.0874 16.868C14.2367 16.8493 14.372 16.8027 14.4934 16.728C14.624 16.6533 14.7267 16.5367 14.8014 16.378C14.876 16.2193 14.9134 16.0047 14.9134 15.734V14.754C14.8667 14.894 14.792 15.034 14.6894 15.174C14.596 15.3047 14.4607 15.4167 14.2834 15.51C14.106 15.594 13.8727 15.636 13.5834 15.636C13.378 15.636 13.182 15.6127 12.9954 15.566C12.818 15.5193 12.6594 15.4307 12.5194 15.3C12.3887 15.16 12.2814 14.9593 12.1974 14.698C12.1227 14.4273 12.0854 14.0773 12.0854 13.648V10.68C12.0854 10.0827 12.2067 9.64401 12.4494 9.36401C12.692 9.07468 13.0747 8.93001 13.5974 8.93001C13.868 8.93001 14.0967 8.96734 14.2834 9.04201C14.4794 9.11668 14.638 9.21934 14.7594 9.35001C14.89 9.48068 14.9834 9.63934 15.0394 9.82601L14.8574 9.84001L15.0674 9.07001H16.2294V15.146C16.2294 15.482 16.192 15.804 16.1174 16.112C16.052 16.42 15.94 16.686 15.7814 16.91C15.6227 17.1433 15.408 17.3253 15.1374 17.456C14.8667 17.596 14.526 17.666 14.1154 17.666ZM14.1154 14.838C14.3394 14.838 14.5074 14.7867 14.6194 14.684C14.7314 14.572 14.806 14.4273 14.8434 14.25C14.89 14.0633 14.9134 13.872 14.9134 13.676V10.274C14.8854 10.2087 14.8387 10.1433 14.7734 10.078C14.7174 10.0033 14.638 9.94268 14.5354 9.89601C14.4327 9.84934 14.2927 9.82601 14.1154 9.82601C13.8634 9.82601 13.6814 9.89134 13.5694 10.022C13.4574 10.1527 13.4014 10.3907 13.4014 10.736V13.984C13.4014 14.18 13.4247 14.334 13.4714 14.446C13.518 14.558 13.5787 14.642 13.6534 14.698C13.7374 14.754 13.8214 14.7913 13.9054 14.81C13.9894 14.8287 14.0594 14.838 14.1154 14.838Z" fill="#131313"/>
</svg>
