<svg width="24" height="24" viewBox="0 0 24 24" fill="none" xmlns="http://www.w3.org/2000/svg">
<path d="M6.76466 7.522H8.82266L12.2947 17H9.95666L9.25666 14.718H6.19066L5.46266 17H3.16666L6.76466 7.522ZM8.73866 13.01C8.64533 12.7393 8.54733 12.4593 8.44466 12.17C8.35133 11.8713 8.258 11.582 8.16466 11.302C8.08066 11.022 8.00133 10.7607 7.92666 10.518C7.852 10.266 7.78666 10.056 7.73066 9.888C7.67466 10.0653 7.60933 10.28 7.53466 10.532C7.46 10.7747 7.376 11.036 7.28266 11.316C7.19866 11.596 7.10533 11.8807 7.00266 12.17C6.90933 12.4593 6.816 12.7393 6.72266 13.01H8.73866ZM14.1625 17.714C14.5731 17.854 14.9278 17.9613 15.2265 18.036C15.5345 18.12 15.8611 18.162 16.2065 18.162C16.5798 18.162 16.8785 18.0547 17.1025 17.84C17.3358 17.6253 17.4525 17.3173 17.4525 16.916C17.4525 16.4867 17.3871 16.104 17.2565 15.768C17.0978 16.188 16.8645 16.5147 16.5565 16.748C16.2485 16.972 15.8471 17.084 15.3525 17.084C14.8951 17.084 14.4938 17 14.1485 16.832C13.8125 16.664 13.5325 16.4307 13.3085 16.132C13.0845 15.824 12.9165 15.4553 12.8045 15.026C12.7018 14.5967 12.6505 14.1207 12.6505 13.598C12.6505 13.066 12.7345 12.5713 12.9025 12.114C13.0798 11.6567 13.3225 11.2647 13.6305 10.938C13.9385 10.602 14.3071 10.3407 14.7365 10.154C15.1658 9.96733 15.6418 9.874 16.1645 9.874C16.4445 9.874 16.7338 9.89267 17.0325 9.93C17.3405 9.96733 17.6251 10.0093 17.8865 10.056C18.1571 10.1027 18.3905 10.1493 18.5865 10.196C18.7918 10.2333 18.9271 10.2613 18.9925 10.28L18.9365 13.766C18.9365 14.0647 18.9598 14.3447 19.0065 14.606C19.0625 14.858 19.1185 15.11 19.1745 15.362C19.2398 15.6047 19.3005 15.8567 19.3565 16.118C19.4125 16.3793 19.4405 16.6593 19.4405 16.958C19.4405 17.938 19.1605 18.6893 18.6005 19.212C18.0498 19.744 17.2985 20.01 16.3465 20.01C15.9171 20.01 15.4691 19.9587 15.0025 19.856C14.5358 19.7533 14.0831 19.6087 13.6445 19.422L14.1625 17.714ZM15.7165 15.46C15.8658 15.46 16.0011 15.3993 16.1225 15.278C16.2438 15.1473 16.3511 14.9747 16.4445 14.76C16.5378 14.5453 16.6078 14.298 16.6545 14.018C16.7105 13.738 16.7385 13.444 16.7385 13.136V11.61C16.6731 11.582 16.5798 11.5587 16.4585 11.54C16.3465 11.512 16.2485 11.498 16.1645 11.498C15.9405 11.498 15.7538 11.5493 15.6045 11.652C15.4551 11.7453 15.3338 11.8807 15.2405 12.058C15.1565 12.226 15.0958 12.4313 15.0585 12.674C15.0211 12.9167 15.0025 13.178 15.0025 13.458C15.0025 13.7193 15.0071 13.9713 15.0165 14.214C15.0258 14.4473 15.0538 14.6573 15.1005 14.844C15.1565 15.0307 15.2311 15.18 15.3245 15.292C15.4178 15.404 15.5485 15.46 15.7165 15.46Z" fill="#131313"/>
</svg>
