<svg width="24" height="24" viewBox="0 0 24 24" fill="none" xmlns="http://www.w3.org/2000/svg">
<path d="M8.27195 7.634H10.204L11.996 17H9.67195L9.32195 14.76H6.57795L5.37395 17.112L3.16195 16.734L8.27195 7.634ZM9.05595 13.066C8.98129 12.59 8.91595 12.128 8.85995 11.68C8.80395 11.2227 8.75262 10.8353 8.70595 10.518C8.53795 10.8447 8.34195 11.232 8.11795 11.68C7.89395 12.128 7.66529 12.59 7.43195 13.066H9.05595ZM19.6192 10.378C19.4792 11.078 19.3578 11.6753 19.2552 12.17C19.1618 12.6647 19.0825 13.0847 19.0172 13.43C18.9518 13.7753 18.9052 14.0553 18.8772 14.27C18.8492 14.4847 18.8352 14.6667 18.8352 14.816C18.8352 15.0587 18.8445 15.2827 18.8632 15.488C18.8912 15.6933 18.9192 15.894 18.9472 16.09C18.9752 16.286 18.9985 16.4867 19.0172 16.692C19.0452 16.8973 19.0592 17.126 19.0592 17.378C19.0592 18.302 18.7885 18.988 18.2472 19.436C17.7152 19.884 16.9965 20.108 16.0912 20.108C15.7085 20.108 15.3538 20.0753 15.0272 20.01C14.7005 19.954 14.3972 19.884 14.1172 19.8C13.8372 19.716 13.5852 19.6227 13.3612 19.52C13.1372 19.4267 12.9458 19.3427 12.7872 19.268L13.5712 17.602C13.7392 17.6767 13.9212 17.7513 14.1172 17.826C14.3225 17.9007 14.5278 17.966 14.7332 18.022C14.9478 18.0873 15.1578 18.1387 15.3632 18.176C15.5778 18.2227 15.7785 18.246 15.9652 18.246C16.3572 18.246 16.6465 18.134 16.8332 17.91C17.0198 17.6953 17.1132 17.448 17.1132 17.168C17.1132 16.9907 17.1085 16.8413 17.0992 16.72C17.0992 16.5893 17.0992 16.3933 17.0992 16.132C17.0992 15.9733 17.1132 15.7913 17.1412 15.586C17.1692 15.3713 17.1925 15.1567 17.2112 14.942L17.0292 15.348C16.7305 15.992 16.3898 16.4493 16.0072 16.72C15.6338 16.9907 15.2278 17.126 14.7892 17.126C14.4345 17.126 14.1358 17.056 13.8932 16.916C13.6598 16.7667 13.4638 16.58 13.3052 16.356C13.1558 16.1227 13.0485 15.866 12.9832 15.586C12.9178 15.2967 12.8852 15.0073 12.8852 14.718C12.8852 14.046 12.9692 13.4253 13.1372 12.856C13.3145 12.2773 13.5712 11.7733 13.9072 11.344C14.2525 10.9147 14.6725 10.5787 15.1672 10.336C15.6712 10.0933 16.2452 9.972 16.8892 9.972C17.2438 9.972 17.5425 10.0047 17.7852 10.07C18.0372 10.126 18.2752 10.2053 18.4992 10.308L19.6192 10.378ZM15.4752 15.474C15.6152 15.474 15.7645 15.3713 15.9232 15.166C16.0818 14.9513 16.2312 14.6807 16.3712 14.354C16.5205 14.0273 16.6605 13.6633 16.7912 13.262C16.9218 12.8607 17.0292 12.4687 17.1132 12.086L17.2112 11.638C17.1458 11.6193 17.0805 11.6053 17.0152 11.596C16.9592 11.5867 16.8892 11.582 16.8052 11.582C16.4785 11.582 16.2078 11.7033 15.9932 11.946C15.7785 12.1793 15.6058 12.464 15.4752 12.8C15.3538 13.136 15.2652 13.486 15.2092 13.85C15.1625 14.214 15.1392 14.5173 15.1392 14.76C15.1392 14.956 15.1578 15.124 15.1952 15.264C15.2418 15.404 15.3352 15.474 15.4752 15.474Z" fill="#131313"/>
</svg>
