<svg width="24" height="24" viewBox="0 0 24 24" fill="none" xmlns="http://www.w3.org/2000/svg">
<path d="M9.90809 14.65C10.1508 14.65 10.3421 14.6127 10.4821 14.538C10.6221 14.4633 10.6921 14.356 10.6921 14.216C10.6921 14.1413 10.6874 14.0433 10.6781 13.922C10.6781 13.8007 10.6688 13.6747 10.6501 13.544L10.3421 11.5H7.62609C7.39276 11.92 7.18743 12.2933 7.01009 12.62C6.83276 12.9467 6.71143 13.1707 6.64609 13.292C6.52476 13.5253 6.42676 13.7307 6.35209 13.908C6.28676 14.076 6.25409 14.2113 6.25409 14.314C6.25409 14.4073 6.31476 14.482 6.43609 14.538C6.56676 14.5847 6.70209 14.6173 6.84209 14.636C6.98209 14.6453 7.06609 14.65 7.09409 14.65C7.11276 14.6687 7.11276 14.7293 7.09409 14.832C7.07543 14.9253 7.05676 14.9953 7.03809 15.042C6.87009 15.0327 6.73009 15.0233 6.61809 15.014C6.51543 15.0047 6.40343 14.9953 6.28209 14.986C6.17009 14.9767 6.02076 14.972 5.83409 14.972C5.63809 14.972 5.47476 14.9767 5.34409 14.986C5.22276 14.9953 5.10143 15.0047 4.98009 15.014C4.84943 15.0233 4.68609 15.0327 4.49009 15.042C4.48076 15.0233 4.48543 14.9673 4.50409 14.874C4.52276 14.7713 4.54609 14.6967 4.57409 14.65C4.64876 14.65 4.77476 14.6313 4.95209 14.594C5.12943 14.5473 5.26009 14.4773 5.34409 14.384C5.51209 14.2067 5.66143 14.0107 5.79209 13.796C5.92276 13.572 6.05809 13.3387 6.19809 13.096L9.96409 6.33399C10.0294 6.22199 10.1228 6.12866 10.2441 6.05399C10.3654 5.97932 10.4541 5.94199 10.5101 5.94199C10.5381 5.94199 10.5614 5.95132 10.5801 5.96999L11.7561 13.278C11.8028 13.5393 11.8401 13.754 11.8681 13.922C11.8961 14.0807 11.9148 14.174 11.9241 14.202C11.9521 14.3327 12.0268 14.4307 12.1481 14.496C12.2788 14.5613 12.4094 14.6033 12.5401 14.622C12.6708 14.6407 12.7501 14.65 12.7781 14.65C12.7968 14.6967 12.7968 14.7713 12.7781 14.874C12.7688 14.9673 12.7548 15.0233 12.7361 15.042C12.4841 15.0233 12.2414 15.0093 12.0081 15C11.7748 14.9813 11.5181 14.972 11.2381 14.972C10.9488 14.972 10.7154 14.9813 10.5381 15C10.3608 15.0093 10.1228 15.0233 9.82409 15.042C9.79609 15.0047 9.79143 14.9393 9.81009 14.846C9.83809 14.7527 9.87076 14.6873 9.90809 14.65ZM7.87809 11.052H10.2721L9.74009 7.69199L7.87809 11.052ZM17.6711 9.79199C17.6804 9.82932 17.7131 9.95066 17.7691 10.156C17.8344 10.352 17.8671 10.5433 17.8671 10.73C17.8671 11.2153 17.7831 11.6167 17.6151 11.934C17.4471 12.2513 17.2604 12.4987 17.0551 12.676C16.8591 12.844 16.7144 12.956 16.6211 13.012C16.4624 13.1053 16.2571 13.2033 16.0051 13.306C15.7624 13.3993 15.5431 13.4927 15.3471 13.586C15.1511 13.6793 15.0531 13.7773 15.0531 13.88C15.0531 13.9733 15.1464 14.0573 15.3331 14.132C15.5198 14.2067 15.7484 14.2907 16.0191 14.384C16.2898 14.4773 16.5604 14.594 16.8311 14.734C17.1018 14.874 17.3304 15.0513 17.5171 15.266C17.7038 15.4807 17.7971 15.7467 17.7971 16.064C17.7971 16.7173 17.5078 17.2353 16.9291 17.618C16.3504 18.0007 15.5711 18.192 14.5911 18.192C13.9751 18.192 13.4664 18.0753 13.0651 17.842C12.6638 17.6087 12.4631 17.2773 12.4631 16.848C12.4631 16.5307 12.5704 16.2507 12.7851 16.008C12.9998 15.7653 13.2611 15.5507 13.5691 15.364C13.8771 15.1867 14.1664 15.0373 14.4371 14.916L14.1851 14.748C14.1011 14.692 14.0218 14.6267 13.9471 14.552C13.8818 14.4773 13.8491 14.3793 13.8491 14.258C13.8491 14.146 13.9284 14.0247 14.0871 13.894C14.2551 13.7633 14.4464 13.6467 14.6611 13.544C14.8758 13.4413 15.0578 13.3713 15.2071 13.334C15.0671 13.334 14.8711 13.278 14.6191 13.166C14.3764 13.0447 14.1571 12.8673 13.9611 12.634C13.7651 12.3913 13.6671 12.0927 13.6671 11.738C13.6671 11.2247 13.7931 10.7673 14.0451 10.366C14.3064 9.95532 14.6331 9.63332 15.0251 9.39999C15.4264 9.15732 15.8371 9.03599 16.2571 9.03599C16.5184 9.03599 16.7331 9.06866 16.9011 9.13399C17.0784 9.18999 17.2511 9.25999 17.4191 9.34399C17.4844 9.37199 17.5731 9.37199 17.6851 9.34399C17.7971 9.30666 17.9044 9.26466 18.0071 9.21799C18.0631 9.19932 18.1144 9.18532 18.1611 9.17599C18.2078 9.15732 18.2451 9.14332 18.2731 9.13399C18.3664 9.16199 18.4831 9.22732 18.6231 9.32999C18.7631 9.42332 18.8331 9.51666 18.8331 9.60999C18.8331 9.65666 18.8191 9.70332 18.7911 9.74999C18.7631 9.78732 18.7211 9.80599 18.6651 9.80599C18.6278 9.80599 18.5811 9.80599 18.5251 9.80599C18.4691 9.80599 18.4084 9.80132 18.3431 9.79199C18.2124 9.79199 18.0818 9.79199 17.9511 9.79199C17.8204 9.79199 17.7271 9.79199 17.6711 9.79199ZM16.9151 16.61C16.9151 16.3207 16.7984 16.078 16.5651 15.882C16.3318 15.686 16.0564 15.5227 15.7391 15.392C15.4218 15.2707 15.1278 15.168 14.8571 15.084C14.6798 15.1587 14.4791 15.2567 14.2551 15.378C14.0404 15.5087 13.8538 15.6627 13.6951 15.84C13.5458 16.0173 13.4711 16.2367 13.4711 16.498C13.4711 16.7967 13.5598 17.0347 13.7371 17.212C13.9144 17.3893 14.1524 17.5153 14.4511 17.59C14.7498 17.6647 15.0764 17.702 15.4311 17.702C15.8884 17.702 16.2478 17.59 16.5091 17.366C16.7798 17.1513 16.9151 16.8993 16.9151 16.61ZM16.0191 9.44199C15.7298 9.44199 15.4824 9.55866 15.2771 9.79199C15.0811 10.0253 14.9318 10.31 14.8291 10.646C14.7264 10.982 14.6751 11.3087 14.6751 11.626C14.6751 11.962 14.7451 12.2653 14.8851 12.536C15.0251 12.8067 15.2398 12.942 15.5291 12.942C15.8278 12.942 16.0751 12.8393 16.2711 12.634C16.4671 12.4193 16.6118 12.1627 16.7051 11.864C16.8078 11.556 16.8591 11.262 16.8591 10.982C16.8591 10.758 16.8264 10.5293 16.7611 10.296C16.6958 10.0533 16.5978 9.85266 16.4671 9.69399C16.3458 9.52599 16.1964 9.44199 16.0191 9.44199Z" fill="#131313"/>
</svg>
