<svg width="24" height="24" viewBox="0 0 24 24" fill="none" xmlns="http://www.w3.org/2000/svg">
<path d="M10.8527 17.038L9.64866 13.944H5.68666L4.49666 17.038H3.22266L7.12866 7H8.26266L12.1547 17.038H10.8527ZM8.15066 9.8C8.12266 9.7253 8.07599 9.59 8.01066 9.394C7.94532 9.198 7.87999 8.9973 7.81466 8.792C7.75866 8.5773 7.71199 8.414 7.67466 8.302C7.62799 8.4887 7.57666 8.68 7.52066 8.876C7.47399 9.0627 7.42266 9.2353 7.36666 9.394C7.31999 9.5527 7.27799 9.688 7.24066 9.8L6.10666 12.824H9.27066L8.15066 9.8ZM16.0141 9.394C16.5087 9.394 16.9521 9.4873 17.3441 9.674C17.7454 9.8607 18.0861 10.1453 18.3661 10.528H18.4361L18.6041 9.534H19.5841V17.164C19.5841 17.8733 19.4627 18.466 19.2201 18.942C18.9774 19.4273 18.6087 19.7913 18.1141 20.034C17.6194 20.2767 16.9894 20.398 16.2241 20.398C15.6827 20.398 15.1834 20.356 14.7261 20.272C14.2781 20.1973 13.8767 20.0807 13.5221 19.922V18.788C13.7647 18.9093 14.0307 19.012 14.3201 19.096C14.6094 19.1893 14.9221 19.2593 15.2581 19.306C15.5941 19.3527 15.9394 19.376 16.2941 19.376C16.9381 19.376 17.4421 19.1847 17.8061 18.802C18.1794 18.4287 18.3661 17.9153 18.3661 17.262V16.968C18.3661 16.856 18.3707 16.6973 18.3801 16.492C18.3894 16.2773 18.3987 16.128 18.4081 16.044H18.3521C18.0907 16.4267 17.7641 16.7113 17.3721 16.898C16.9894 17.0847 16.5414 17.178 16.0281 17.178C15.0574 17.178 14.2967 16.8373 13.7461 16.156C13.2047 15.4747 12.9341 14.5227 12.9341 13.3C12.9341 12.4973 13.0554 11.8067 13.2981 11.228C13.5501 10.64 13.9047 10.1873 14.3621 9.87C14.8194 9.5527 15.3701 9.394 16.0141 9.394ZM16.1821 10.43C15.7621 10.43 15.4027 10.542 15.1041 10.766C14.8147 10.99 14.5907 11.3167 14.4321 11.746C14.2827 12.1753 14.2081 12.698 14.2081 13.314C14.2081 14.238 14.3761 14.9473 14.7121 15.442C15.0574 15.9273 15.5567 16.17 16.2101 16.17C16.5927 16.17 16.9194 16.1233 17.1901 16.03C17.4607 15.9273 17.6847 15.7733 17.8621 15.568C18.0394 15.3533 18.1701 15.0827 18.2541 14.756C18.3381 14.4293 18.3801 14.042 18.3801 13.594V13.3C18.3801 12.6187 18.3007 12.068 18.1421 11.648C17.9927 11.228 17.7547 10.92 17.4281 10.724C17.1014 10.528 16.6861 10.43 16.1821 10.43Z" fill="#131313"/>
</svg>
