<svg width="24" height="24" viewBox="0 0 24 24" fill="none" xmlns="http://www.w3.org/2000/svg">
<path d="M3.77877 17.07L3.70877 16.314L5.15077 15.964L4.29677 16.51C4.40877 16.3047 4.51611 16.1087 4.61877 15.922C4.72144 15.7353 4.81477 15.544 4.89877 15.348C4.98277 15.152 5.06211 14.956 5.13677 14.76L7.65677 7.12999L8.69277 6.98999L11.5488 14.984C11.6328 15.236 11.7308 15.4833 11.8428 15.726C11.9641 15.9593 12.0761 16.1787 12.1788 16.384L11.3668 15.922L12.8788 16.174L12.8088 17H11.4648C11.3528 17 11.1661 17.0047 10.9048 17.014C10.6434 17.0233 10.3588 17.0327 10.0508 17.042C9.75211 17.0513 9.47677 17.0607 9.22477 17.07L9.18277 16.314L10.7928 15.894L10.2468 16.622C10.1908 16.2113 10.1348 15.866 10.0788 15.586C10.0228 15.306 9.94344 15.026 9.84077 14.746L7.88077 8.80999H8.25877L6.21477 15.264C6.15877 15.46 6.11677 15.6607 6.08877 15.866C6.07011 16.0713 6.05611 16.2907 6.04677 16.524L5.44477 15.978L7.04077 16.174L6.97077 17H5.68277C5.57077 17 5.40277 17.0047 5.17877 17.014C4.95477 17.0233 4.71677 17.0327 4.46477 17.042C4.21277 17.0513 3.98411 17.0607 3.77877 17.07ZM6.24277 14.046V13.178H10.0648V14.046H6.24277ZM16.7447 20.29C14.8314 20.29 13.8747 19.618 13.8747 18.274C13.8747 18.1247 14.0147 17.91 14.2947 17.63C14.5747 17.35 14.9294 17.07 15.3587 16.79L15.9607 16.944C15.7927 17.14 15.6574 17.3033 15.5547 17.434C15.4614 17.574 15.3961 17.6953 15.3587 17.798C15.3214 17.9007 15.3027 17.9987 15.3027 18.092C15.3027 18.5213 15.4567 18.8433 15.7647 19.058C16.0821 19.2727 16.5674 19.38 17.2207 19.38C17.7434 19.38 18.1681 19.2633 18.4947 19.03C18.8307 18.806 18.9987 18.5073 18.9987 18.134C18.9987 17.9473 18.9567 17.8073 18.8727 17.714C18.7981 17.63 18.6674 17.5787 18.4807 17.56L16.6607 17.308C16.4274 17.2707 16.2174 17.2333 16.0307 17.196C15.8534 17.1587 15.6247 17.0933 15.3447 17C15.0367 16.888 14.8127 16.734 14.6727 16.538C14.5421 16.342 14.4767 16.0947 14.4767 15.796C14.4767 15.6093 14.8594 15.1753 15.6247 14.494L16.1987 14.69C16.0121 14.8767 15.8767 15.0307 15.7927 15.152C15.7181 15.2733 15.6807 15.362 15.6807 15.418C15.6807 15.558 15.7694 15.6653 15.9467 15.74C16.1241 15.8053 16.4554 15.866 16.9407 15.922C17.3794 15.9687 17.7761 16.0153 18.1307 16.062C18.4854 16.1087 18.7981 16.1553 19.0687 16.202C19.3394 16.2393 19.5541 16.286 19.7127 16.342C20.1514 16.5007 20.3707 16.9207 20.3707 17.602C20.3707 18.0967 20.2074 18.5447 19.8807 18.946C19.5541 19.3567 19.1154 19.6833 18.5647 19.926C18.0234 20.1687 17.4167 20.29 16.7447 20.29ZM16.9547 14.998C16.4041 14.998 15.9187 14.8953 15.4987 14.69C15.0787 14.4847 14.7474 14.1953 14.5047 13.822C14.2714 13.4393 14.1547 12.9867 14.1547 12.464C14.1547 11.9507 14.2714 11.5073 14.5047 11.134C14.7474 10.7607 15.0787 10.4667 15.4987 10.252C15.9187 10.0373 16.4087 9.92999 16.9687 9.92999C17.5194 9.92999 18.0047 10.0373 18.4247 10.252C18.8447 10.4573 19.1714 10.7467 19.4047 11.12C19.6381 11.4933 19.7547 11.9367 19.7547 12.45C19.7547 12.9633 19.6381 13.4113 19.4047 13.794C19.1714 14.1767 18.8447 14.4753 18.4247 14.69C18.0047 14.8953 17.5147 14.998 16.9547 14.998ZM16.9547 14.214C17.7947 14.214 18.2147 13.6213 18.2147 12.436C18.2147 11.288 17.7994 10.714 16.9687 10.714C16.1194 10.714 15.6947 11.302 15.6947 12.478C15.6947 13.6353 16.1147 14.214 16.9547 14.214ZM20.4407 10.952L19.0827 10.938L18.1307 10.336L20.3427 9.92999L20.4407 10.952Z" fill="#131313"/>
</svg>
