<svg width="24" height="24" viewBox="0 0 24 24" fill="none" xmlns="http://www.w3.org/2000/svg">
<path d="M2.82249 17L8.12849 7.38202H11.1385L13.0425 17H10.4665L10.1865 15.334H6.32249L5.45449 17H2.82249ZM7.27449 13.458H9.89249L9.55649 11.456C9.53783 11.288 9.51449 11.1247 9.48649 10.966C9.45849 10.798 9.43049 10.6347 9.40249 10.476C9.37449 10.308 9.35116 10.1493 9.33249 10C9.31383 9.85069 9.29516 9.70602 9.27649 9.56602H9.22049C9.12716 9.76202 9.02449 9.97669 8.91249 10.21C8.80049 10.434 8.68849 10.6533 8.57649 10.868C8.47383 11.0827 8.37583 11.2833 8.28249 11.47L7.27449 13.458ZM16.9638 19.758C16.2825 19.758 15.7085 19.6833 15.2418 19.534C14.7845 19.394 14.4391 19.1887 14.2058 18.918C13.9725 18.6567 13.8558 18.3393 13.8558 17.966C13.8558 17.9007 13.8605 17.8073 13.8698 17.686C13.8791 17.5647 13.9071 17.4293 13.9538 17.28H16.1798C16.1705 17.308 16.1611 17.336 16.1518 17.364C16.1518 17.392 16.1518 17.42 16.1518 17.448C16.1518 17.5787 16.1891 17.686 16.2638 17.77C16.3478 17.8633 16.4645 17.9333 16.6138 17.98C16.7631 18.0267 16.9451 18.05 17.1598 18.05C17.5238 18.05 17.8271 17.9847 18.0698 17.854C18.3125 17.7327 18.4991 17.5553 18.6298 17.322C18.7698 17.0887 18.8678 16.818 18.9238 16.51C18.9425 16.3793 18.9611 16.2533 18.9798 16.132C19.0078 16.0013 19.0311 15.88 19.0498 15.768H18.9518C18.7558 15.9733 18.5411 16.146 18.3078 16.286C18.0838 16.426 17.8411 16.5287 17.5798 16.594C17.3185 16.6593 17.0431 16.692 16.7538 16.692C16.2405 16.692 15.7925 16.594 15.4098 16.398C15.0365 16.202 14.7471 15.908 14.5418 15.516C14.3458 15.1147 14.2478 14.6153 14.2478 14.018C14.2478 13.8593 14.2525 13.6913 14.2618 13.514C14.2805 13.3367 14.3085 13.15 14.3458 12.954C14.5605 11.7593 14.9805 10.8773 15.6058 10.308C16.2311 9.73869 17.0011 9.45402 17.9158 9.45402C18.4198 9.45402 18.8538 9.55669 19.2178 9.76202C19.5911 9.95802 19.8711 10.252 20.0578 10.644H20.1558L20.5338 9.62202H22.4098L21.2338 16.314C21.0845 17.1353 20.8231 17.798 20.4498 18.302C20.0765 18.806 19.6005 19.1747 19.0218 19.408C18.4431 19.6413 17.7571 19.758 16.9638 19.758ZM17.7618 14.928C18.0045 14.928 18.2238 14.886 18.4198 14.802C18.6158 14.7087 18.7885 14.5827 18.9378 14.424C19.0871 14.2653 19.2085 14.0833 19.3018 13.878C19.3951 13.6633 19.4651 13.43 19.5118 13.178C19.5305 13.038 19.5445 12.926 19.5538 12.842C19.5725 12.758 19.5818 12.6833 19.5818 12.618C19.5911 12.5527 19.5958 12.492 19.5958 12.436C19.5958 12.1933 19.5538 11.9833 19.4698 11.806C19.3858 11.6287 19.2551 11.4933 19.0778 11.4C18.9098 11.2973 18.6905 11.246 18.4198 11.246C18.0931 11.246 17.8085 11.3113 17.5658 11.442C17.3325 11.5727 17.1411 11.764 16.9918 12.016C16.8518 12.2587 16.7538 12.5573 16.6978 12.912C16.6605 13.0893 16.6325 13.234 16.6138 13.346C16.6045 13.458 16.5951 13.5513 16.5858 13.626C16.5858 13.6913 16.5858 13.752 16.5858 13.808C16.5858 14.0413 16.6231 14.242 16.6978 14.41C16.7725 14.5687 16.8985 14.6947 17.0758 14.788C17.2531 14.8813 17.4818 14.928 17.7618 14.928Z" fill="#131313"/>
</svg>
