<svg width="24" height="24" viewBox="0 0 24 24" fill="none" xmlns="http://www.w3.org/2000/svg">
<path d="M2.63662 17L7.99862 7.396H10.5746L12.5766 17H10.4346L10.0706 15.11H5.85662L4.83462 17H2.63662ZM6.75262 13.43H9.74862L9.31462 11.106C9.28662 10.938 9.25862 10.77 9.23062 10.602C9.20262 10.434 9.16995 10.266 9.13262 10.098C9.10462 9.92067 9.08128 9.762 9.06262 9.622C9.04395 9.47267 9.02528 9.33733 9.00662 9.216H8.93662C8.84328 9.40267 8.73595 9.61733 8.61462 9.86C8.50262 10.0933 8.39062 10.3267 8.27862 10.56C8.16662 10.784 8.06862 10.9753 7.98462 11.134L6.75262 13.43ZM16.3095 19.632C15.7215 19.632 15.2081 19.562 14.7695 19.422C14.3401 19.2913 14.0088 19.0953 13.7755 18.834C13.5421 18.582 13.4255 18.274 13.4255 17.91C13.4255 17.8447 13.4255 17.7607 13.4255 17.658C13.4348 17.5647 13.4581 17.4527 13.4955 17.322H15.3715C15.3621 17.3593 15.3575 17.3873 15.3575 17.406C15.3575 17.4247 15.3575 17.448 15.3575 17.476C15.3575 17.6253 15.4041 17.7467 15.4975 17.84C15.5908 17.9333 15.7215 17.9987 15.8895 18.036C16.0668 18.0827 16.2628 18.106 16.4775 18.106C16.8695 18.106 17.1961 18.036 17.4575 17.896C17.7281 17.756 17.9428 17.5507 18.1015 17.28C18.2695 17.0093 18.3861 16.6873 18.4515 16.314C18.4701 16.2113 18.4841 16.1133 18.4935 16.02C18.5121 15.9173 18.5308 15.8333 18.5495 15.768H18.4515C18.2741 15.9827 18.0688 16.1647 17.8355 16.314C17.6115 16.4633 17.3641 16.5753 17.0935 16.65C16.8228 16.7153 16.5335 16.748 16.2255 16.748C15.7308 16.748 15.2968 16.6547 14.9235 16.468C14.5595 16.272 14.2748 15.978 14.0695 15.586C13.8735 15.1847 13.7755 14.6807 13.7755 14.074C13.7755 13.9153 13.7801 13.7473 13.7895 13.57C13.8081 13.3927 13.8361 13.2013 13.8735 12.996C14.0881 11.7827 14.4988 10.8913 15.1055 10.322C15.7215 9.75267 16.4728 9.468 17.3595 9.468C17.8635 9.468 18.3021 9.566 18.6755 9.762C19.0581 9.94867 19.3428 10.238 19.5295 10.63H19.6275L19.9635 9.636H21.5595L20.4115 16.174C20.2621 17.0047 20.0148 17.672 19.6695 18.176C19.3241 18.6893 18.8715 19.058 18.3115 19.282C17.7608 19.5153 17.0935 19.632 16.3095 19.632ZM17.0795 15.166C17.3315 15.166 17.5648 15.1193 17.7795 15.026C18.0035 14.9327 18.1948 14.802 18.3535 14.634C18.5121 14.4567 18.6475 14.2467 18.7595 14.004C18.8715 13.7613 18.9508 13.4907 18.9975 13.192C19.0255 13.052 19.0441 12.9353 19.0535 12.842C19.0721 12.7393 19.0815 12.6507 19.0815 12.576C19.0908 12.5013 19.0955 12.4267 19.0955 12.352C19.0955 12.0813 19.0488 11.848 18.9555 11.652C18.8621 11.456 18.7221 11.3113 18.5355 11.218C18.3488 11.1153 18.1061 11.064 17.8075 11.064C17.4528 11.064 17.1401 11.134 16.8695 11.274C16.6081 11.414 16.3935 11.6287 16.2255 11.918C16.0575 12.198 15.9408 12.5527 15.8755 12.982C15.8475 13.15 15.8241 13.2947 15.8055 13.416C15.7868 13.5373 15.7728 13.6353 15.7635 13.71C15.7635 13.7847 15.7635 13.8593 15.7635 13.934C15.7635 14.2047 15.8055 14.4287 15.8895 14.606C15.9828 14.7833 16.1275 14.9233 16.3235 15.026C16.5195 15.1193 16.7715 15.166 17.0795 15.166Z" fill="#131313"/>
</svg>
