<svg width="24" height="24" viewBox="0 0 24 24" fill="none" xmlns="http://www.w3.org/2000/svg">
<path d="M10.2021 14.7852H6.94141L5.95703 17H4.2207L8.86914 6.97852H10.7422L12.0752 17H10.4756L10.2021 14.7852ZM9.99023 13.1172L9.51855 9.08398L7.70703 13.1172H9.99023ZM13.0049 17.3828L14.707 17.6836C14.707 17.9753 14.7777 18.1917 14.9189 18.333C15.0648 18.4743 15.2835 18.5449 15.5752 18.5449C15.8623 18.5449 16.0947 18.488 16.2725 18.374C16.4548 18.2646 16.596 18.0983 16.6963 17.875C16.7965 17.6517 16.8991 17.2005 17.0039 16.5215L17.0518 16.1797C16.5003 16.7448 15.9284 17.0273 15.3359 17.0273C14.7572 17.0273 14.2786 16.7812 13.9004 16.2891C13.5221 15.7969 13.333 15.0586 13.333 14.0742C13.333 13.14 13.472 12.3265 13.75 11.6338C14.028 10.9365 14.388 10.4193 14.8301 10.082C15.2767 9.74479 15.7301 9.57617 16.1904 9.57617C16.5778 9.57617 16.9355 9.7015 17.2637 9.95215C17.5964 10.1982 17.8584 10.556 18.0498 11.0254L18.2686 9.74023H19.7793L18.7471 15.79C18.542 16.9704 18.362 17.7839 18.207 18.2305C17.9928 18.8411 17.6784 19.2786 17.2637 19.543C16.849 19.8118 16.277 19.9463 15.5479 19.9463C14.6956 19.9463 14.0804 19.7891 13.7021 19.4746C13.2282 19.0827 12.9912 18.4857 12.9912 17.6836L13.0049 17.3828ZM14.9053 13.876C14.9053 14.4274 15.0215 14.8672 15.2539 15.1953C15.4316 15.446 15.6709 15.5713 15.9717 15.5713C16.2178 15.5713 16.4616 15.4688 16.7031 15.2637C16.9492 15.0586 17.1611 14.7214 17.3389 14.252C17.5166 13.778 17.6055 13.2653 17.6055 12.7139C17.6055 12.1761 17.4893 11.7523 17.2568 11.4424C17.029 11.1279 16.7669 10.9707 16.4707 10.9707C16.2428 10.9707 16.0173 11.0687 15.7939 11.2646C15.5752 11.4561 15.3724 11.8138 15.1855 12.3379C14.9987 12.862 14.9053 13.3747 14.9053 13.876Z" fill="#131313"/>
</svg>
