<svg width="24" height="24" viewBox="0 0 24 24" fill="none" xmlns="http://www.w3.org/2000/svg">
<path d="M11.4908 15.034C11.6028 15.3793 11.7381 15.6407 11.8968 15.818C11.6821 16.0513 11.3788 16.168 10.9868 16.168C10.7348 16.168 10.5248 16.1167 10.3568 16.014C10.1888 15.9113 10.0814 15.762 10.0348 15.566L9.32076 13.046H5.94676L5.38676 15.062C5.33076 15.3047 5.30276 15.4913 5.30276 15.622C5.30276 15.79 5.34009 15.9207 5.41476 16.014C5.14409 16.1167 4.86409 16.168 4.57476 16.168C4.27609 16.168 4.05676 16.1167 3.91676 16.014C3.77676 15.9207 3.70676 15.762 3.70676 15.538C3.70676 15.3047 3.76276 15.02 3.87476 14.684L6.70276 6.298C7.12276 6.13933 7.55676 6.06 8.00476 6.06C8.49009 6.06 8.77942 6.23733 8.87276 6.592L11.4908 15.034ZM9.06876 12.178L7.59876 7.026L6.18476 12.178H9.06876ZM15.1214 19.192C14.384 19.192 13.7774 19.0567 13.3014 18.786C12.8254 18.5153 12.5874 18.1047 12.5874 17.554C12.5874 17.218 12.69 16.9473 12.8954 16.742C13.1007 16.546 13.3667 16.448 13.6934 16.448C14.0294 16.448 14.2674 16.5367 14.4074 16.714C14.1367 16.9287 14.0014 17.232 14.0014 17.624C14.0014 17.9507 14.104 18.2073 14.3094 18.394C14.5147 18.5807 14.7994 18.674 15.1634 18.674C15.8447 18.674 16.3534 18.3987 16.6894 17.848C17.0347 17.2973 17.2074 16.518 17.2074 15.51V14.502C17.0487 14.9873 16.778 15.3607 16.3954 15.622C16.022 15.8833 15.56 16.014 15.0094 16.014C14.2254 16.014 13.614 15.734 13.1754 15.174C12.746 14.614 12.5314 13.732 12.5314 12.528C12.5314 11.38 12.788 10.4467 13.3014 9.728C13.8147 9 14.664 8.636 15.8494 8.636C16.4187 8.636 16.9554 8.71533 17.4594 8.874C17.9727 9.03267 18.3927 9.26133 18.7194 9.56V15.37C18.7194 17.918 17.52 19.192 15.1214 19.192ZM15.4574 15.258C16.036 15.258 16.4654 15.006 16.7454 14.502C17.0347 13.9887 17.184 13.3307 17.1934 12.528L17.2074 9.616C17.0674 9.48533 16.8807 9.38733 16.6474 9.322C16.414 9.24733 16.1667 9.21 15.9054 9.21C15.2334 9.21 14.7714 9.51333 14.5194 10.12C14.2767 10.7173 14.1554 11.5667 14.1554 12.668C14.1554 13.6107 14.2534 14.278 14.4494 14.67C14.6547 15.062 14.9907 15.258 15.4574 15.258Z" fill="#131313"/>
</svg>
