<svg width="24" height="24" viewBox="0 0 24 24" fill="none" xmlns="http://www.w3.org/2000/svg">
<path d="M9.2373 15.8242H10.0986L9.27832 13.4727H5.29297L4.49316 15.8242H5.55957V17H2.19629V15.8242H3.09863L6.3252 6.63672H8.3418L11.5615 15.8242H12.6006V17H9.2373V15.8242ZM5.68262 12.3379H8.88184L7.26855 7.70312L5.68262 12.3379ZM18.5342 16.3779C18.3018 16.624 18.0306 16.8154 17.7207 16.9521C17.4154 17.0889 17.0667 17.1572 16.6748 17.1572C16.1963 17.1572 15.7497 17.0752 15.335 16.9111C14.9248 16.7425 14.5671 16.4987 14.2617 16.1797C13.9609 15.8561 13.724 15.4619 13.5508 14.9971C13.3822 14.5277 13.2979 13.9922 13.2979 13.3906C13.2979 12.8438 13.3799 12.347 13.5439 11.9004C13.708 11.4492 13.9404 11.0664 14.2412 10.752C14.542 10.4329 14.9043 10.1868 15.3281 10.0137C15.752 9.83594 16.2236 9.74707 16.7432 9.74707C17.0986 9.74707 17.4176 9.78809 17.7002 9.87012C17.9873 9.94759 18.2653 10.0843 18.5342 10.2803V9.91797H19.8057V16.7197C19.8057 17.8408 19.5391 18.6885 19.0059 19.2627C18.4772 19.8369 17.6523 20.124 16.5312 20.124C16.2852 20.124 16.0277 20.1058 15.7588 20.0693C15.4899 20.0329 15.2233 19.9736 14.959 19.8916C14.6992 19.8141 14.444 19.7139 14.1934 19.5908C13.9473 19.4678 13.7194 19.3174 13.5098 19.1396L14.1934 18.1074C14.3301 18.2259 14.485 18.3353 14.6582 18.4355C14.8359 18.5358 15.0251 18.6201 15.2256 18.6885C15.4261 18.7614 15.6335 18.8184 15.8477 18.8594C16.0618 18.9004 16.276 18.9209 16.4902 18.9209C16.8411 18.9209 17.1442 18.8844 17.3994 18.8115C17.6592 18.7386 17.8711 18.6087 18.0352 18.4219C18.2038 18.2396 18.3291 17.9912 18.4111 17.6768C18.4932 17.3623 18.5342 16.9635 18.5342 16.4805V16.3779ZM16.8389 16.0498C17.0485 16.0498 17.2399 16.0293 17.4131 15.9883C17.5863 15.9473 17.7435 15.8949 17.8848 15.8311C18.026 15.7627 18.1491 15.6852 18.2539 15.5986C18.3633 15.512 18.4567 15.4209 18.5342 15.3252V11.4492C18.3018 11.2441 18.0329 11.096 17.7275 11.0049C17.4268 10.9137 17.1169 10.8682 16.7979 10.8682C16.4971 10.8682 16.2145 10.9251 15.9502 11.0391C15.6859 11.1484 15.4535 11.3102 15.2529 11.5244C15.057 11.7386 14.902 12.0007 14.7881 12.3105C14.6742 12.6204 14.6172 12.9759 14.6172 13.377C14.6172 13.8145 14.6719 14.1995 14.7812 14.5322C14.8906 14.8649 15.0433 15.1452 15.2393 15.373C15.4352 15.5964 15.6699 15.765 15.9434 15.8789C16.2168 15.9928 16.5153 16.0498 16.8389 16.0498Z" fill="#131313"/>
</svg>
