<svg width="24" height="24" viewBox="0 0 24 24" fill="none" xmlns="http://www.w3.org/2000/svg">
<path d="M3.77774 17.028C3.39508 17.028 3.20374 16.9533 3.20374 16.804C3.20374 16.7573 3.22708 16.6873 3.27374 16.594L7.54374 7.396C7.58108 7.312 7.64641 7.256 7.73974 7.228C7.84241 7.19067 7.96841 7.172 8.11774 7.172H8.52374C8.66374 7.172 8.78508 7.19067 8.88774 7.228C8.99041 7.256 9.05108 7.312 9.06974 7.396L11.4217 16.608C11.4311 16.636 11.4357 16.664 11.4357 16.692C11.4357 16.7107 11.4357 16.7293 11.4357 16.748C11.4357 16.8227 11.3937 16.888 11.3097 16.944C11.2257 17 11.0624 17.028 10.8197 17.028H10.7077C10.5677 17.028 10.4464 17.014 10.3437 16.986C10.2411 16.9487 10.1804 16.888 10.1617 16.804L9.57374 14.508H5.45774L4.42174 16.804C4.38441 16.888 4.31441 16.9487 4.21174 16.986C4.10908 17.014 3.98774 17.028 3.84774 17.028H3.77774ZM5.96174 13.444H9.30774L8.28574 9.272C8.24841 9.14133 8.22508 9.006 8.21574 8.866C8.20641 8.726 8.20174 8.59067 8.20174 8.46H8.17374C8.13641 8.59067 8.08974 8.726 8.03374 8.866C7.98708 9.006 7.93574 9.14133 7.87974 9.272L5.96174 13.444ZM14.9537 19.968C14.4777 19.968 14.0577 19.912 13.6937 19.8C13.339 19.6973 13.059 19.5667 12.8537 19.408C12.6483 19.2587 12.5457 19.114 12.5457 18.974C12.5457 18.6287 12.569 18.414 12.6157 18.33C12.6623 18.246 12.7043 18.204 12.7417 18.204C12.7977 18.204 12.905 18.2647 13.0637 18.386C13.2317 18.5167 13.465 18.6427 13.7637 18.764C14.0717 18.8947 14.4683 18.96 14.9537 18.96C15.6443 18.96 16.1717 18.68 16.5357 18.12C16.909 17.5693 17.1423 16.636 17.2357 15.32L17.2637 14.872L17.4317 15.04C17.1423 15.7493 16.7783 16.2533 16.3397 16.552C15.901 16.8507 15.4437 17 14.9677 17C14.7343 17 14.4777 16.958 14.1977 16.874C13.927 16.7807 13.6657 16.6267 13.4137 16.412C13.1617 16.1973 12.9563 15.8987 12.7977 15.516C12.639 15.1333 12.5597 14.648 12.5597 14.06C12.5597 13.192 12.7043 12.422 12.9937 11.75C13.283 11.078 13.689 10.5507 14.2117 10.168C14.7343 9.78533 15.3503 9.594 16.0597 9.594C16.5077 9.594 16.8857 9.68267 17.1937 9.86C17.511 10.0373 17.749 10.2007 17.9077 10.35C17.9543 10.21 18.001 10.0887 18.0477 9.986C18.0943 9.88333 18.155 9.804 18.2297 9.748C18.3043 9.68267 18.407 9.65 18.5377 9.65H18.6217C18.7617 9.65 18.855 9.678 18.9017 9.734C18.9483 9.78067 18.9717 9.85067 18.9717 9.944L18.3697 15.614C18.2577 16.7247 18.057 17.5973 17.7677 18.232C17.4877 18.8667 17.1143 19.3147 16.6477 19.576C16.1903 19.8373 15.6257 19.968 14.9537 19.968ZM15.2337 15.978C15.4483 15.978 15.6863 15.908 15.9477 15.768C16.209 15.628 16.4657 15.3853 16.7177 15.04C16.979 14.6947 17.2077 14.2093 17.4037 13.584L17.5857 11.862C17.6043 11.7313 17.623 11.61 17.6417 11.498C17.6603 11.386 17.679 11.274 17.6977 11.162C17.5577 11.0593 17.357 10.9427 17.0957 10.812C16.8437 10.6813 16.5357 10.616 16.1717 10.616C15.6957 10.616 15.299 10.714 14.9817 10.91C14.6737 11.0967 14.431 11.3487 14.2537 11.666C14.0763 11.9833 13.9503 12.3427 13.8757 12.744C13.8103 13.1453 13.7777 13.556 13.7777 13.976C13.7777 14.48 13.843 14.8813 13.9737 15.18C14.1043 15.4693 14.2817 15.6747 14.5057 15.796C14.7297 15.9173 14.9723 15.978 15.2337 15.978Z" fill="#131313"/>
</svg>
