<svg width="24" height="24" viewBox="0 0 24 24" fill="none" xmlns="http://www.w3.org/2000/svg">
<path d="M4.28256 17L7.43256 7.802H8.58056L11.7166 17H10.6246L8.95856 11.792C8.79056 11.2693 8.62723 10.756 8.46856 10.252C8.31923 9.73867 8.16523 9.21133 8.00656 8.67H7.95056C7.81056 9.21133 7.66123 9.73867 7.50256 10.252C7.35323 10.756 7.1899 11.2693 7.01256 11.792L5.33256 17H4.28256ZM5.87856 14.102V13.276H10.0926V14.102H5.87856ZM15.2314 20.164C14.6714 20.164 14.1814 20.0893 13.7614 19.94C13.3414 19.7907 13.0148 19.5807 12.7814 19.31C12.5481 19.0393 12.4314 18.7127 12.4314 18.33C12.4314 18.0313 12.5201 17.7467 12.6974 17.476C12.8748 17.2053 13.1174 16.9673 13.4254 16.762V16.706C13.2574 16.594 13.1128 16.4493 12.9914 16.272C12.8794 16.0853 12.8234 15.8613 12.8234 15.6C12.8234 15.3107 12.9028 15.0587 13.0614 14.844C13.2294 14.6293 13.3974 14.4613 13.5654 14.34V14.284C13.3508 14.1067 13.1501 13.8593 12.9634 13.542C12.7861 13.2247 12.6974 12.8653 12.6974 12.464C12.6974 11.9693 12.8094 11.5447 13.0334 11.19C13.2668 10.826 13.5701 10.546 13.9434 10.35C14.3261 10.1447 14.7461 10.042 15.2034 10.042C15.3901 10.042 15.5628 10.0607 15.7214 10.098C15.8894 10.126 16.0294 10.1633 16.1414 10.21H18.4934V11.008H17.0514C17.2288 11.176 17.3734 11.386 17.4854 11.638C17.5974 11.89 17.6534 12.17 17.6534 12.478C17.6534 12.9633 17.5414 13.3833 17.3174 13.738C17.1028 14.0927 16.8088 14.368 16.4354 14.564C16.0714 14.7507 15.6608 14.844 15.2034 14.844C15.0354 14.844 14.8581 14.8253 14.6714 14.788C14.4941 14.7413 14.3261 14.6807 14.1674 14.606C14.0368 14.7087 13.9248 14.8253 13.8314 14.956C13.7474 15.0867 13.7054 15.25 13.7054 15.446C13.7054 15.67 13.7894 15.8567 13.9574 16.006C14.1348 16.146 14.4521 16.216 14.9094 16.216H16.2674C17.0514 16.216 17.6348 16.3467 18.0174 16.608C18.4094 16.86 18.6054 17.266 18.6054 17.826C18.6054 18.2367 18.4654 18.6193 18.1854 18.974C17.9148 19.3287 17.5274 19.6133 17.0234 19.828C16.5194 20.052 15.9221 20.164 15.2314 20.164ZM15.3714 19.436C15.8194 19.436 16.2068 19.366 16.5334 19.226C16.8694 19.086 17.1308 18.904 17.3174 18.68C17.5041 18.456 17.5974 18.218 17.5974 17.966C17.5974 17.6393 17.4761 17.4107 17.2334 17.28C17.0001 17.1493 16.6501 17.084 16.1834 17.084H14.9374C14.8348 17.084 14.7041 17.0747 14.5454 17.056C14.3961 17.0373 14.2374 17.0093 14.0694 16.972C13.8081 17.1587 13.6168 17.3547 13.4954 17.56C13.3834 17.7747 13.3274 17.9847 13.3274 18.19C13.3274 18.5727 13.5094 18.876 13.8734 19.1C14.2374 19.324 14.7368 19.436 15.3714 19.436ZM15.2034 14.144C15.4741 14.144 15.7214 14.074 15.9454 13.934C16.1788 13.794 16.3654 13.598 16.5054 13.346C16.6454 13.094 16.7154 12.8 16.7154 12.464C16.7154 12.1187 16.6454 11.8247 16.5054 11.582C16.3748 11.33 16.1928 11.1387 15.9594 11.008C15.7354 10.868 15.4834 10.798 15.2034 10.798C14.7834 10.798 14.4241 10.9473 14.1254 11.246C13.8268 11.5353 13.6774 11.9413 13.6774 12.464C13.6774 12.8 13.7474 13.094 13.8874 13.346C14.0274 13.598 14.2141 13.794 14.4474 13.934C14.6808 14.074 14.9328 14.144 15.2034 14.144Z" fill="#131313"/>
</svg>
