<svg width="24" height="24" viewBox="0 0 24 24" fill="none" xmlns="http://www.w3.org/2000/svg">
<path d="M5.14 17L8.444 7.76001H8.836L12.14 17H11.664L9.732 11.456C9.536 10.896 9.34933 10.364 9.172 9.86001C9.004 9.34668 8.836 8.80534 8.668 8.23601H8.612C8.444 8.80534 8.27133 9.34668 8.094 9.86001C7.926 10.364 7.744 10.896 7.548 11.456L5.588 17H5.14ZM6.568 13.696V13.304H10.67V13.696H6.568ZM15.7734 20.276C15.2041 20.276 14.7141 20.1967 14.3034 20.038C13.8928 19.8793 13.5754 19.66 13.3514 19.38C13.1368 19.1 13.0294 18.7733 13.0294 18.4C13.0294 18.1013 13.1181 17.8073 13.2954 17.518C13.4821 17.2287 13.7294 16.972 14.0374 16.748V16.692C13.8694 16.5893 13.7294 16.4493 13.6174 16.272C13.5054 16.0947 13.4494 15.88 13.4494 15.628C13.4494 15.32 13.5334 15.0633 13.7014 14.858C13.8788 14.6433 14.0374 14.4893 14.1774 14.396V14.34C13.9721 14.1533 13.7808 13.9013 13.6034 13.584C13.4261 13.2573 13.3374 12.8933 13.3374 12.492C13.3374 12.044 13.4401 11.6427 13.6454 11.288C13.8508 10.9333 14.1261 10.6533 14.4714 10.448C14.8168 10.2427 15.2041 10.14 15.6334 10.14C15.8201 10.14 15.9881 10.1587 16.1374 10.196C16.2868 10.224 16.4081 10.2613 16.5014 10.308H18.7414V10.7H17.1174C17.3601 10.896 17.5561 11.148 17.7054 11.456C17.8548 11.764 17.9294 12.1093 17.9294 12.492C17.9294 12.94 17.8268 13.346 17.6214 13.71C17.4161 14.0647 17.1408 14.3493 16.7954 14.564C16.4501 14.7693 16.0628 14.872 15.6334 14.872C15.4374 14.872 15.2368 14.844 15.0314 14.788C14.8261 14.732 14.6441 14.6573 14.4854 14.564C14.3361 14.6853 14.2008 14.83 14.0794 14.998C13.9581 15.1567 13.8974 15.3573 13.8974 15.6C13.8974 15.852 13.9861 16.0713 14.1634 16.258C14.3501 16.4353 14.7001 16.524 15.2134 16.524H16.6974C17.4441 16.524 17.9901 16.6453 18.3354 16.888C18.6808 17.1307 18.8534 17.5133 18.8534 18.036C18.8534 18.4093 18.7274 18.764 18.4754 19.1C18.2234 19.4453 17.8641 19.7253 17.3974 19.94C16.9401 20.164 16.3988 20.276 15.7734 20.276ZM15.8014 19.884C16.3334 19.884 16.7908 19.7953 17.1734 19.618C17.5654 19.4407 17.8688 19.212 18.0834 18.932C18.2981 18.652 18.4054 18.3627 18.4054 18.064C18.4054 17.672 18.2654 17.392 17.9854 17.224C17.7148 17.056 17.3134 16.972 16.7814 16.972H15.2414C15.2041 16.972 15.1061 16.9627 14.9474 16.944C14.7888 16.9253 14.6161 16.8973 14.4294 16.86C14.0934 17.084 13.8508 17.3267 13.7014 17.588C13.5521 17.8587 13.4774 18.12 13.4774 18.372C13.4774 18.82 13.6781 19.184 14.0794 19.464C14.4901 19.744 15.0641 19.884 15.8014 19.884ZM15.6334 14.48C15.9601 14.48 16.2634 14.396 16.5434 14.228C16.8234 14.06 17.0474 13.8267 17.2154 13.528C17.3928 13.2293 17.4814 12.884 17.4814 12.492C17.4814 12.0907 17.3974 11.7453 17.2294 11.456C17.0614 11.1667 16.8374 10.9427 16.5574 10.784C16.2774 10.616 15.9694 10.532 15.6334 10.532C15.1294 10.532 14.6954 10.7093 14.3314 11.064C13.9674 11.4093 13.7854 11.8853 13.7854 12.492C13.7854 12.884 13.8694 13.2293 14.0374 13.528C14.2148 13.8267 14.4434 14.06 14.7234 14.228C15.0034 14.396 15.3068 14.48 15.6334 14.48Z" fill="#131313"/>
</svg>
