<svg width="24" height="24" viewBox="0 0 24 24" fill="none" xmlns="http://www.w3.org/2000/svg">
<path d="M3.84026 16.888C4.22293 15.4507 4.65693 13.9667 5.14226 12.436C5.62759 10.9053 6.10359 9.54269 6.57026 8.34802H8.97826C9.44493 9.54269 9.92093 10.9053 10.4062 12.436C10.8916 13.9667 11.3256 15.4507 11.7083 16.888L10.0843 17L9.83226 16.006C9.64559 15.278 9.50093 14.732 9.39826 14.368H6.13626C5.85626 15.3853 5.63226 16.2627 5.46426 17L3.84026 16.888ZM9.02026 13.01C8.57226 11.5167 8.23159 10.4387 7.99826 9.77602H7.56426C7.24693 10.6627 6.90159 11.7407 6.52826 13.01H9.02026ZM15.6846 19.758C15.1992 19.758 14.7326 19.702 14.2846 19.59C13.8459 19.4873 13.4866 19.352 13.2066 19.184L13.5286 17.98C13.8179 18.12 14.1446 18.232 14.5086 18.316C14.8726 18.4 15.2272 18.442 15.5726 18.442C15.9459 18.442 16.2539 18.4187 16.4966 18.372C16.7392 18.3253 16.9819 18.2507 17.2246 18.148V16.888L17.2666 16.02H17.1546C16.5852 16.636 15.9319 16.944 15.1946 16.944C14.3452 16.944 13.7292 16.6593 13.3466 16.09C12.9732 15.5207 12.7866 14.788 12.7866 13.892C12.7866 12.744 12.9779 11.8573 13.3606 11.232C13.7526 10.5973 14.4152 10.28 15.3486 10.28C15.8059 10.28 16.1792 10.378 16.4686 10.574C16.7672 10.7607 17.0146 11.0267 17.2106 11.372H17.3086L17.3926 10.406H18.6666V17.672C18.6666 18.372 18.3959 18.8947 17.8546 19.24C17.3226 19.5853 16.5992 19.758 15.6846 19.758ZM15.6006 15.6C16.1979 15.6 16.7206 15.334 17.1686 14.802V12.45C16.7392 11.9087 16.2212 11.638 15.6146 11.638C15.1292 11.638 14.7932 11.806 14.6066 12.142C14.4199 12.4687 14.3266 12.996 14.3266 13.724C14.3266 14.368 14.4246 14.844 14.6206 15.152C14.8259 15.4507 15.1526 15.6 15.6006 15.6Z" fill="#131313"/>
</svg>
