<svg width="24" height="24" viewBox="0 0 24 24" fill="none" xmlns="http://www.w3.org/2000/svg">
<path d="M4.65137 14.3955H3.07227C3.09049 14.236 3.13379 14.0856 3.20215 13.9443C3.27507 13.8031 3.36393 13.68 3.46875 13.5752C3.57812 13.4658 3.70117 13.3815 3.83789 13.3223C3.97461 13.2585 4.11816 13.2266 4.26855 13.2266H4.85645L5.76562 7.92871C5.79753 7.74186 5.85677 7.56868 5.94336 7.40918C6.03451 7.24967 6.13932 7.11296 6.25781 6.99902C6.38086 6.88509 6.5153 6.79622 6.66113 6.73242C6.80697 6.66862 6.9528 6.63672 7.09863 6.63672H8.75977C8.90104 6.63672 9.0446 6.66862 9.19043 6.73242C9.33626 6.79622 9.4707 6.88737 9.59375 7.00586C9.7168 7.11979 9.82161 7.25651 9.9082 7.41602C9.99935 7.57096 10.0609 7.74414 10.0928 7.93555L11.6514 17H10.0176L9.59375 14.3955H6.2373L5.82031 17H4.20703L4.65137 14.3955ZM9.40918 13.2266L8.53418 7.79199H7.2832C7.13737 8.67611 6.99382 9.57389 6.85254 10.4854C6.71126 11.3923 6.56771 12.306 6.42188 13.2266H9.40918ZM13.4902 11.5791C13.4902 11.3376 13.5244 11.112 13.5928 10.9023C13.6611 10.6927 13.7523 10.5104 13.8662 10.3555C13.9847 10.196 14.1237 10.0706 14.2832 9.97949C14.4427 9.88835 14.6113 9.84277 14.7891 9.84277H19.5742V15.8311H21.0166C20.9984 15.9906 20.9528 16.1432 20.8799 16.2891C20.8115 16.4303 20.7227 16.5534 20.6133 16.6582C20.5085 16.763 20.3877 16.8473 20.251 16.9111C20.1143 16.9704 19.9707 17 19.8203 17H19.5742V18.9482C19.5742 19.1898 19.54 19.4154 19.4717 19.625C19.4033 19.8392 19.3099 20.0238 19.1914 20.1787C19.0729 20.3382 18.9362 20.4635 18.7812 20.5547C18.6263 20.6504 18.46 20.6982 18.2822 20.6982H14.9668V19.5156H17.9404V16.2412C17.8083 16.4782 17.6465 16.665 17.4551 16.8018C17.2637 16.9339 17.0632 17 16.8535 17H14.7891C14.6113 17 14.4427 16.9544 14.2832 16.8633C14.1237 16.7721 13.9847 16.6491 13.8662 16.4941C13.7523 16.3346 13.6611 16.1501 13.5928 15.9404C13.5244 15.7308 13.4902 15.5052 13.4902 15.2637V11.5791ZM17.9404 15.8311V11.0117H15.1172V15.8311H17.9404Z" fill="#131313"/>
</svg>
