<svg width="24" height="24" viewBox="0 0 24 24" fill="none" xmlns="http://www.w3.org/2000/svg">
<path d="M3.90653 14.732L4.21453 13.262H9.77252L9.46453 14.732H3.90653ZM6.88853 7.22803H9.46453L10.2485 17H8.51253L8.05053 10.798L7.95253 8.53003L6.88853 10.798L3.80853 17H1.98853L6.88853 7.22803ZM18.626 10.28L18.878 9.27203H20.474L18.934 16.51C18.71 17.574 18.2573 18.3627 17.576 18.876C16.8947 19.3987 16.036 19.66 15 19.66C14.328 19.66 13.7353 19.5713 13.222 19.394C12.7087 19.2167 12.3073 18.9413 12.018 18.568C11.738 18.204 11.5933 17.7373 11.584 17.168H13.32C13.3293 17.5507 13.488 17.8307 13.796 18.008C14.104 18.1947 14.524 18.288 15.056 18.288C15.7187 18.288 16.2227 18.134 16.568 17.826C16.9133 17.518 17.142 17.084 17.254 16.524L17.45 15.572C17.17 15.908 16.848 16.1647 16.484 16.342C16.1293 16.5193 15.728 16.608 15.28 16.608C14.636 16.608 14.0853 16.468 13.628 16.188C13.1707 15.908 12.8207 15.5347 12.578 15.068C12.3447 14.592 12.228 14.0693 12.228 13.5C12.228 12.8373 12.3213 12.24 12.508 11.708C12.704 11.1667 12.9793 10.7047 13.334 10.322C13.698 9.93936 14.132 9.64536 14.636 9.44003C15.14 9.22536 15.7093 9.11803 16.344 9.11803C16.8293 9.11803 17.2773 9.22536 17.688 9.44003C18.108 9.64536 18.4207 9.92536 18.626 10.28ZM15.644 15.32C16.1387 15.32 16.568 15.1707 16.932 14.872C17.296 14.5733 17.6087 14.1813 17.87 13.696L18.234 11.932C18.1687 11.4653 17.968 11.0967 17.632 10.826C17.296 10.546 16.8713 10.406 16.358 10.406C15.854 10.406 15.42 10.5413 15.056 10.812C14.692 11.0733 14.412 11.4233 14.216 11.862C14.02 12.3007 13.922 12.7953 13.922 13.346C13.922 13.9433 14.0713 14.424 14.37 14.788C14.678 15.1427 15.1027 15.32 15.644 15.32Z" fill="#131313"/>
</svg>
