<svg width="24" height="24" viewBox="0 0 24 24" fill="none" xmlns="http://www.w3.org/2000/svg">
<path d="M10.6383 14.284H6.32627L4.84227 17H3.72227L9.21027 7.19995H9.68627C9.99427 7.19995 10.1856 7.38662 10.2603 7.75995L11.4223 13.416H11.4363V13.444L12.1643 17H11.1563L10.6383 14.284ZM6.80227 13.416H10.4563L9.50427 8.54395H9.49027L6.80227 13.416ZM15.242 19.842C14.626 19.842 14.1313 19.6927 13.758 19.394C13.3846 19.1047 13.198 18.7173 13.198 18.232L13.212 18.036H14.22C14.2013 18.316 14.2853 18.54 14.472 18.708C14.668 18.8853 14.9246 18.974 15.242 18.974H16.404C16.88 18.974 17.2813 18.8107 17.608 18.484C17.9346 18.1667 18.1493 17.7187 18.252 17.14L18.448 16.062C18.1866 16.3513 17.8973 16.58 17.58 16.748C17.272 16.916 16.9686 17 16.67 17H15.648C14.976 17 14.444 16.8133 14.052 16.44C13.66 16.0667 13.464 15.558 13.464 14.914C13.464 14.7087 13.4826 14.5127 13.52 14.326L13.8 12.688C13.94 11.848 14.276 11.176 14.808 10.672C15.34 10.1587 15.9886 9.90195 16.754 9.90195H17.734C18.0793 9.90195 18.406 9.98595 18.714 10.154C19.022 10.3127 19.2506 10.5273 19.4 10.798L19.54 10.014H20.52L19.26 17.14C19.1106 17.9893 18.784 18.652 18.28 19.128C17.776 19.604 17.1506 19.842 16.404 19.842H15.242ZM16.67 16.104C17.1366 16.104 17.5706 15.922 17.972 15.558C18.3733 15.1847 18.644 14.7133 18.784 14.144L19.092 12.422C19.1293 11.9553 19.0173 11.568 18.756 11.26C18.504 10.952 18.1633 10.798 17.734 10.798H16.782C16.2873 10.798 15.858 10.9707 15.494 11.316C15.13 11.6613 14.9013 12.1187 14.808 12.688L14.528 14.326C14.5 14.4753 14.486 14.62 14.486 14.76C14.486 15.1707 14.5886 15.4973 14.794 15.74C15.0086 15.9827 15.3026 16.104 15.676 16.104H16.67Z" fill="#131313"/>
</svg>
