<svg width="24" height="24" viewBox="0 0 24 24" fill="none" xmlns="http://www.w3.org/2000/svg">
<path d="M10.8779 14.018H6.32786L4.67586 17H4.11586L9.54786 7.19995H9.78586C9.93519 7.19995 10.0285 7.30262 10.0659 7.50795L11.9699 17H11.4659L10.8779 14.018ZM6.57986 13.556H10.7799L9.68786 7.92795H9.67386L6.57986 13.556ZM15.0398 19.842C14.4891 19.842 14.0551 19.702 13.7378 19.422C13.4205 19.1513 13.2805 18.792 13.3178 18.344H13.8078C13.7891 18.6613 13.8918 18.9133 14.1158 19.1C14.3398 19.296 14.6478 19.394 15.0398 19.394H16.2158C16.7665 19.394 17.2285 19.212 17.6018 18.848C17.9751 18.4933 18.2178 17.9987 18.3298 17.364L18.6238 15.698C18.3158 16.1087 17.9751 16.4307 17.6018 16.664C17.2285 16.888 16.8598 17 16.4958 17H15.4598C14.8811 17 14.4191 16.8227 14.0738 16.468C13.7378 16.104 13.5698 15.628 13.5698 15.04C13.5698 14.8347 13.5885 14.6433 13.6258 14.466L13.9758 12.506C14.1251 11.6847 14.4378 11.0453 14.9138 10.588C15.3898 10.1307 15.9825 9.90195 16.6918 9.90195H17.7838C18.1385 9.90195 18.4698 9.99995 18.7778 10.196C19.0951 10.392 19.3285 10.658 19.4778 10.994L19.6458 10.014H20.1218L18.8198 17.364C18.6798 18.1387 18.3811 18.7453 17.9238 19.184C17.4665 19.6227 16.8971 19.842 16.2158 19.842H15.0398ZM16.4678 16.552C16.9345 16.552 17.3778 16.3747 17.7978 16.02C18.2178 15.656 18.5445 15.2593 18.7778 14.83L19.2958 11.904C19.2585 11.4467 19.0998 11.0733 18.8198 10.784C18.5398 10.4947 18.1945 10.35 17.7838 10.35H16.6918C16.1131 10.35 15.6278 10.5413 15.2358 10.924C14.8438 11.2973 14.5871 11.8247 14.4658 12.506L14.1158 14.466C14.0785 14.7087 14.0598 14.886 14.0598 14.998C14.0598 15.474 14.1858 15.852 14.4378 16.132C14.6898 16.412 15.0305 16.552 15.4598 16.552H16.4678Z" fill="#131313"/>
</svg>
