<svg width="24" height="24" viewBox="0 0 24 24" fill="none" xmlns="http://www.w3.org/2000/svg">
<path d="M8.7521 8.84605H8.6821C8.56077 9.19138 8.42077 9.58805 8.2621 10.0361C8.11277 10.4841 7.9541 10.9508 7.7861 11.4361C7.62744 11.9121 7.47344 12.3694 7.3241 12.8081L7.1561 13.5641C7.1001 13.7414 7.03943 13.9421 6.9741 14.1661C6.90877 14.3901 6.83877 14.6188 6.7641 14.8521C6.68943 15.0761 6.61943 15.2908 6.5541 15.4961C6.48877 15.6921 6.43277 15.8648 6.3861 16.0141C6.3021 16.0421 6.20877 16.0654 6.1061 16.0841C6.00344 16.1121 5.8821 16.1261 5.7421 16.1261C5.4621 16.1261 5.2381 16.0701 5.0701 15.9581C4.91143 15.8461 4.8321 15.6781 4.8321 15.4541C4.8321 15.3514 4.8461 15.2488 4.8741 15.1461C4.91143 15.0434 4.94877 14.9221 4.9861 14.7821C5.08877 14.4741 5.21943 14.0914 5.3781 13.6341C5.53677 13.1674 5.70943 12.6634 5.8961 12.1221C6.08277 11.5808 6.27877 11.0348 6.4841 10.4841C6.68944 9.93338 6.88077 9.41072 7.0581 8.91605C7.24477 8.42138 7.40344 8.00138 7.5341 7.65605C7.6461 7.60005 7.80944 7.54405 8.0241 7.48805C8.2481 7.43205 8.4721 7.40405 8.6961 7.40405C8.99477 7.40405 9.26544 7.45072 9.5081 7.54405C9.7601 7.62805 9.91877 7.76805 9.9841 7.96405C10.1894 8.47738 10.4041 9.07005 10.6281 9.74205C10.8614 10.4048 11.0948 11.1001 11.3281 11.8281C11.5708 12.5468 11.7994 13.2468 12.0141 13.9281C12.2381 14.6094 12.4341 15.2254 12.6021 15.7761C12.5181 15.8788 12.3968 15.9628 12.2381 16.0281C12.0888 16.0934 11.9114 16.1261 11.7061 16.1261C11.4168 16.1261 11.2068 16.0701 11.0761 15.9581C10.9548 15.8461 10.8568 15.6734 10.7821 15.4401L10.1801 13.5361L9.9981 12.7241C9.84877 12.2294 9.69477 11.7441 9.5361 11.2681C9.38677 10.7828 9.2421 10.3348 9.1021 9.92405C8.9621 9.50405 8.84543 9.14472 8.7521 8.84605ZM6.4141 13.9281L7.0161 12.6121H10.5861L10.8381 13.9281H6.4141ZM16.53 15.7761C15.9886 15.7761 15.4846 15.6688 15.018 15.4541C14.5513 15.2394 14.178 14.8941 13.898 14.4181C13.618 13.9328 13.478 13.2934 13.478 12.5001C13.478 11.7814 13.618 11.1794 13.898 10.6941C14.1873 10.1994 14.584 9.83072 15.088 9.58805C15.6013 9.33605 16.1893 9.21005 16.852 9.21005C17.328 9.21005 17.762 9.27072 18.154 9.39205C18.5553 9.50405 18.8773 9.63938 19.12 9.79805C19.2786 9.91005 19.4046 10.0361 19.498 10.1761C19.5913 10.3068 19.638 10.4748 19.638 10.6801V15.0341H18.056V10.8061C17.9253 10.7221 17.7666 10.6521 17.58 10.5961C17.3933 10.5308 17.1646 10.4981 16.894 10.4981C16.362 10.4981 15.928 10.6661 15.592 11.0021C15.2653 11.3288 15.102 11.8281 15.102 12.5001C15.102 13.2374 15.2606 13.7554 15.578 14.0541C15.9046 14.3528 16.3106 14.5021 16.796 14.5021C17.1506 14.5021 17.44 14.4414 17.664 14.3201C17.888 14.1988 18.0746 14.0634 18.224 13.9141L18.294 15.2581C18.126 15.3888 17.8926 15.5101 17.594 15.6221C17.3046 15.7248 16.95 15.7761 16.53 15.7761ZM18.07 16.0701V14.6841H19.638V16.1261C19.638 16.7608 19.4933 17.2741 19.204 17.6661C18.924 18.0581 18.5366 18.3428 18.042 18.5201C17.5473 18.7068 16.9966 18.8001 16.39 18.8001C15.914 18.8001 15.494 18.7534 15.13 18.6601C14.7753 18.5668 14.5186 18.4734 14.36 18.3801C14.052 18.1934 13.898 17.9461 13.898 17.6381C13.898 17.4701 13.9353 17.3254 14.01 17.2041C14.0846 17.0828 14.1733 16.9894 14.276 16.9241C14.5 17.0734 14.7846 17.2041 15.13 17.3161C15.4846 17.4374 15.8626 17.4981 16.264 17.4981C16.8333 17.4981 17.2766 17.3814 17.594 17.1481C17.9113 16.9241 18.07 16.5648 18.07 16.0701Z" fill="#131313"/>
</svg>
