<svg width="24" height="24" viewBox="0 0 24 24" fill="none" xmlns="http://www.w3.org/2000/svg">
<path d="M7.74592 8.94405H7.67592C7.55459 9.28005 7.41926 9.66272 7.26992 10.0921C7.12992 10.5214 6.98059 10.9694 6.82192 11.4361C6.66326 11.8934 6.51392 12.3368 6.37392 12.7661L6.17792 13.6341C6.12192 13.8114 6.06126 14.0074 5.99592 14.2221C5.93992 14.4368 5.87459 14.6561 5.79992 14.8801C5.73459 15.0948 5.66926 15.3001 5.60392 15.4961C5.54792 15.6921 5.49659 15.8648 5.44992 16.0141C5.35659 16.0421 5.25392 16.0654 5.14192 16.0841C5.03926 16.1121 4.91326 16.1261 4.76392 16.1261C4.46526 16.1261 4.22726 16.0701 4.04992 15.9581C3.88192 15.8368 3.79792 15.6594 3.79792 15.4261C3.79792 15.3234 3.81192 15.2161 3.83992 15.1041C3.87726 14.9921 3.91459 14.8661 3.95192 14.7261C4.04526 14.4181 4.17126 14.0354 4.32992 13.5781C4.48859 13.1114 4.66126 12.6074 4.84792 12.0661C5.03459 11.5248 5.22592 10.9788 5.42192 10.4281C5.62726 9.87738 5.81859 9.36405 5.99592 8.88805C6.17326 8.40272 6.32726 7.99672 6.45792 7.67005C6.56992 7.60472 6.74259 7.54405 6.97592 7.48805C7.20926 7.43205 7.44726 7.40405 7.68992 7.40405C8.00726 7.40405 8.29659 7.45072 8.55792 7.54405C8.82859 7.63738 8.99659 7.78672 9.06192 7.99205C9.25792 8.50538 9.46792 9.09338 9.69192 9.75605C9.91592 10.4188 10.1446 11.1094 10.3779 11.8281C10.6113 12.5468 10.8353 13.2468 11.0499 13.9281C11.2646 14.6094 11.4559 15.2254 11.6239 15.7761C11.5306 15.8788 11.3999 15.9628 11.2319 16.0281C11.0733 16.0934 10.8866 16.1261 10.6719 16.1261C10.3639 16.1261 10.1399 16.0701 9.99992 15.9581C9.86926 15.8368 9.76659 15.6548 9.69192 15.4121L9.11792 13.5781L8.93592 12.6821C8.78659 12.2061 8.63726 11.7394 8.48792 11.2821C8.34792 10.8154 8.21259 10.3814 8.08192 9.98005C7.95126 9.57872 7.83926 9.23338 7.74592 8.94405ZM5.39392 13.9701L6.05192 12.5841H9.55192L9.81792 13.9701H5.39392ZM15.5228 15.7621C14.9721 15.7621 14.4635 15.6594 13.9968 15.4541C13.5301 15.2394 13.1568 14.8894 12.8768 14.4041C12.5968 13.9188 12.4568 13.2794 12.4568 12.4861C12.4568 11.7581 12.5968 11.1514 12.8768 10.6661C13.1661 10.1714 13.5675 9.80272 14.0808 9.56005C14.6035 9.30805 15.2008 9.18205 15.8728 9.18205C16.3488 9.18205 16.7875 9.24272 17.1888 9.36405C17.5995 9.48538 17.9261 9.62538 18.1688 9.78405C18.3275 9.88672 18.4535 10.0128 18.5468 10.1621C18.6495 10.3021 18.7008 10.4748 18.7008 10.6801V15.0481H17.0208V10.8341C16.8995 10.7594 16.7501 10.6941 16.5728 10.6381C16.3955 10.5821 16.1761 10.5541 15.9148 10.5541C15.4015 10.5541 14.9815 10.7128 14.6548 11.0301C14.3375 11.3474 14.1788 11.8328 14.1788 12.4861C14.1788 13.2048 14.3328 13.7088 14.6408 13.9981C14.9581 14.2874 15.3455 14.4321 15.8028 14.4321C16.1575 14.4321 16.4421 14.3714 16.6568 14.2501C16.8808 14.1288 17.0675 13.9981 17.2168 13.8581L17.2728 15.2581C17.1048 15.3888 16.8715 15.5054 16.5728 15.6081C16.2835 15.7108 15.9335 15.7621 15.5228 15.7621ZM17.0488 16.0421V14.6701H18.7008V16.0981C18.7008 16.7328 18.5561 17.2461 18.2668 17.6381C17.9775 18.0394 17.5808 18.3334 17.0768 18.5201C16.5821 18.7068 16.0268 18.8001 15.4108 18.8001C14.9255 18.8001 14.5008 18.7534 14.1368 18.6601C13.7821 18.5668 13.5208 18.4688 13.3528 18.3661C13.0448 18.1794 12.8908 17.9228 12.8908 17.5961C12.8908 17.4281 12.9281 17.2788 13.0028 17.1481C13.0775 17.0174 13.1661 16.9194 13.2688 16.8541C13.5021 17.0034 13.7915 17.1341 14.1368 17.2461C14.4915 17.3581 14.8648 17.4141 15.2568 17.4141C15.8168 17.4141 16.2555 17.3021 16.5728 17.0781C16.8901 16.8634 17.0488 16.5181 17.0488 16.0421Z" fill="#131313"/>
</svg>
