<svg width="24" height="24" viewBox="0 0 24 24" fill="none" xmlns="http://www.w3.org/2000/svg">
<path d="M7.6675 10.574H7.5835C7.4995 10.8353 7.40617 11.12 7.3035 11.428C7.20083 11.736 7.0935 12.0627 6.9815 12.408C6.8695 12.744 6.76217 13.094 6.6595 13.458L6.3515 15.04C6.2955 15.2267 6.24417 15.4087 6.1975 15.586C6.16017 15.7633 6.11817 15.9313 6.0715 16.09C6.03417 16.2487 5.99683 16.4027 5.9595 16.552C5.92217 16.7013 5.88483 16.846 5.8475 16.986C5.72617 17.0233 5.59083 17.0607 5.4415 17.098C5.29217 17.1353 5.11483 17.154 4.9095 17.154C4.44283 17.154 4.09283 17.0747 3.8595 16.916C3.62617 16.748 3.5095 16.5193 3.5095 16.23C3.5095 16.0993 3.52817 15.9687 3.5655 15.838C3.60283 15.7073 3.64483 15.5533 3.6915 15.376C3.76617 15.0773 3.87817 14.6947 4.0275 14.228C4.17683 13.752 4.34017 13.2433 4.5175 12.702C4.70417 12.1513 4.88617 11.6147 5.0635 11.092C5.25017 10.5693 5.41817 10.1027 5.5675 9.69198C5.71683 9.27198 5.82883 8.96398 5.9035 8.76798C6.06217 8.67465 6.30483 8.58598 6.6315 8.50198C6.95817 8.41798 7.28017 8.37598 7.5975 8.37598C8.06417 8.37598 8.4795 8.44598 8.8435 8.58598C9.2075 8.71665 9.43617 8.93131 9.5295 9.22998C9.6975 9.70598 9.87483 10.266 10.0615 10.91C10.2575 11.5447 10.4535 12.212 10.6495 12.912C10.8548 13.6027 11.0508 14.2793 11.2375 14.942C11.4242 15.5953 11.5875 16.1833 11.7275 16.706C11.6155 16.8273 11.4475 16.93 11.2235 17.014C10.9995 17.098 10.7335 17.14 10.4255 17.14C9.96817 17.14 9.65083 17.0653 9.4735 16.916C9.29617 16.7573 9.1655 16.5193 9.0815 16.202L8.7315 14.858L8.4515 13.416C8.35817 13.052 8.26483 12.702 8.1715 12.366C8.07817 12.03 7.9895 11.7127 7.9055 11.414C7.8215 11.106 7.74217 10.826 7.6675 10.574ZM5.3015 15.236L6.2675 13.346H9.3475L9.6415 15.236H5.3015ZM15.4385 16.72C14.8785 16.72 14.3605 16.6127 13.8845 16.398C13.4085 16.1833 13.0258 15.8333 12.7365 15.348C12.4565 14.8533 12.3165 14.2047 12.3165 13.402C12.3165 12.6553 12.4658 12.03 12.7645 11.526C13.0632 11.0127 13.4832 10.63 14.0245 10.378C14.5752 10.1167 15.2145 9.98598 15.9425 9.98598C16.4745 9.98598 16.9645 10.056 17.4125 10.196C17.8698 10.336 18.2198 10.4853 18.4625 10.644C18.6492 10.7653 18.7938 10.91 18.8965 11.078C19.0085 11.246 19.0645 11.456 19.0645 11.708V16.118H16.7825V12.016C16.6892 11.9693 16.5865 11.932 16.4745 11.904C16.3625 11.8667 16.2178 11.848 16.0405 11.848C15.6392 11.848 15.3125 11.974 15.0605 12.226C14.8085 12.4687 14.6825 12.8653 14.6825 13.416C14.6825 14.004 14.7945 14.4053 15.0185 14.62C15.2518 14.8347 15.5412 14.942 15.8865 14.942C16.1665 14.942 16.3998 14.8953 16.5865 14.802C16.7732 14.6993 16.9412 14.5873 17.0905 14.466L17.1605 16.328C16.9458 16.44 16.6985 16.5333 16.4185 16.608C16.1478 16.6827 15.8212 16.72 15.4385 16.72ZM16.8245 16.846V15.586H19.0645V16.902C19.0645 17.5553 18.9058 18.092 18.5885 18.512C18.2712 18.9413 17.8418 19.2587 17.3005 19.464C16.7685 19.6693 16.1712 19.772 15.5085 19.772C15.0138 19.772 14.5705 19.73 14.1785 19.646C13.7958 19.5713 13.4925 19.4593 13.2685 19.31C12.9325 19.086 12.7645 18.7687 12.7645 18.358C12.7645 18.1433 12.8065 17.9473 12.8905 17.77C12.9838 17.5927 13.0865 17.462 13.1985 17.378C13.4692 17.5273 13.7725 17.6533 14.1085 17.756C14.4538 17.8587 14.8132 17.91 15.1865 17.91C15.6812 17.91 16.0778 17.826 16.3765 17.658C16.6752 17.49 16.8245 17.2193 16.8245 16.846Z" fill="#131313"/>
</svg>
