<svg width="24" height="24" viewBox="0 0 24 24" fill="none" xmlns="http://www.w3.org/2000/svg">
<path d="M8.2713 8.65005H8.21529C8.08462 9.01405 7.9353 9.43872 7.7673 9.92405C7.5993 10.4094 7.42196 10.9134 7.2353 11.4361C7.05796 11.9494 6.88996 12.4394 6.7313 12.9061L6.6053 13.4381C6.5493 13.6154 6.48396 13.8208 6.4093 14.0541C6.33463 14.2874 6.2553 14.5301 6.1713 14.7821C6.09663 15.0248 6.02196 15.2581 5.9473 15.4821C5.87263 15.6968 5.81195 15.8741 5.7653 16.0141C5.69063 16.0514 5.60663 16.0794 5.5133 16.0981C5.4293 16.1168 5.32196 16.1261 5.1913 16.1261C4.9673 16.1261 4.78063 16.0748 4.6313 15.9721C4.4913 15.8694 4.4213 15.7201 4.4213 15.5241C4.4213 15.4214 4.4353 15.3234 4.4633 15.2301C4.50063 15.1274 4.53796 15.0154 4.5753 14.8941C4.67796 14.5861 4.80863 14.2034 4.9673 13.7461C5.12596 13.2794 5.3033 12.7754 5.4993 12.2341C5.6953 11.6928 5.89595 11.1421 6.10129 10.5821C6.30663 10.0221 6.50263 9.49005 6.6893 8.98605C6.8853 8.47272 7.06263 8.02005 7.2213 7.62805C7.31463 7.58138 7.45463 7.53472 7.6413 7.48805C7.8373 7.43205 8.03329 7.40405 8.22929 7.40405C8.48129 7.40405 8.71463 7.44138 8.9293 7.51605C9.14396 7.59072 9.28396 7.71672 9.3493 7.89405C9.55463 8.41672 9.77863 9.01872 10.0213 9.70005C10.264 10.3721 10.5066 11.0721 10.7493 11.8001C11.0013 12.5281 11.2393 13.2374 11.4633 13.9281C11.6873 14.6188 11.888 15.2441 12.0653 15.8041C11.9906 15.8974 11.8833 15.9721 11.7433 16.0281C11.6126 16.0841 11.4633 16.1121 11.2953 16.1121C11.0433 16.1121 10.8613 16.0654 10.7493 15.9721C10.6373 15.8788 10.5486 15.7201 10.4833 15.4961L9.8113 13.4381L9.6573 12.8081C9.4893 12.2854 9.31663 11.7628 9.1393 11.2401C8.9713 10.7174 8.80795 10.2321 8.64929 9.78405C8.49995 9.33605 8.37396 8.95805 8.2713 8.65005ZM5.9333 13.8441L6.4513 12.6821H10.1613L10.3993 13.8441H5.9333ZM16.0515 15.7901C15.5008 15.7901 14.9921 15.6828 14.5255 15.4681C14.0681 15.2534 13.6995 14.9081 13.4195 14.4321C13.1395 13.9561 12.9995 13.3214 12.9995 12.5281C12.9995 11.8094 13.1395 11.2121 13.4195 10.7361C13.6995 10.2508 14.0868 9.88672 14.5815 9.64405C15.0855 9.39205 15.6641 9.26605 16.3175 9.26605C16.7655 9.26605 17.1808 9.32672 17.5635 9.44805C17.9461 9.56005 18.2588 9.69538 18.5015 9.85405C18.6508 9.94738 18.7721 10.0594 18.8655 10.1901C18.9588 10.3208 19.0055 10.4794 19.0055 10.6661V15.0061H17.6195V10.7501C17.4701 10.6568 17.2928 10.5774 17.0875 10.5121C16.8821 10.4468 16.6348 10.4141 16.3455 10.4141C15.7668 10.4141 15.3001 10.5914 14.9455 10.9461C14.6001 11.2914 14.4275 11.8188 14.4275 12.5281C14.4275 13.3028 14.6001 13.8534 14.9455 14.1801C15.3001 14.4974 15.7341 14.6561 16.2475 14.6561C16.6301 14.6561 16.9381 14.5908 17.1715 14.4601C17.4141 14.3294 17.6101 14.1894 17.7595 14.0401L17.8155 15.2301C17.6568 15.3701 17.4281 15.5008 17.1295 15.6221C16.8308 15.7341 16.4715 15.7901 16.0515 15.7901ZM17.6195 16.1261V14.6981H19.0055V16.1961C19.0055 16.8214 18.8655 17.3254 18.5855 17.7081C18.3148 18.0908 17.9368 18.3708 17.4515 18.5481C16.9755 18.7254 16.4388 18.8141 15.8415 18.8141C15.3655 18.8141 14.9548 18.7628 14.6095 18.6601C14.2641 18.5668 14.0168 18.4781 13.8675 18.3941C13.5781 18.2168 13.4335 17.9881 13.4335 17.7081C13.4335 17.5588 13.4661 17.4281 13.5315 17.3161C13.5968 17.2134 13.6761 17.1341 13.7695 17.0781C13.9841 17.2274 14.2688 17.3628 14.6235 17.4841C14.9781 17.6054 15.3561 17.6661 15.7575 17.6661C16.3548 17.6661 16.8121 17.5401 17.1295 17.2881C17.4561 17.0454 17.6195 16.6581 17.6195 16.1261Z" fill="#131313"/>
</svg>
