<svg width="24" height="24" viewBox="0 0 24 24" fill="none" xmlns="http://www.w3.org/2000/svg">
<path d="M7.74591 9.94405H7.67591C7.55458 10.2801 7.41925 10.6628 7.26991 11.0921C7.12991 11.5214 6.98058 11.9694 6.82191 12.4361C6.66325 12.8934 6.51391 13.3368 6.37391 13.7661L6.17791 14.6341C6.12191 14.8114 6.06125 15.0074 5.99591 15.2221C5.93991 15.4368 5.87458 15.6561 5.79991 15.8801C5.73458 16.0948 5.66925 16.3001 5.60391 16.4961C5.54791 16.6921 5.49658 16.8648 5.44991 17.0141C5.35658 17.0421 5.25391 17.0654 5.14191 17.0841C5.03925 17.1121 4.91325 17.1261 4.76391 17.1261C4.46525 17.1261 4.22725 17.0701 4.04991 16.9581C3.88191 16.8368 3.79791 16.6594 3.79791 16.4261C3.79791 16.3234 3.81191 16.2161 3.83991 16.1041C3.87725 15.9921 3.91458 15.8661 3.95191 15.7261C4.04525 15.4181 4.17125 15.0354 4.32991 14.5781C4.48858 14.1114 4.66125 13.6074 4.84791 13.0661C5.03458 12.5248 5.22591 11.9788 5.42191 11.4281C5.62725 10.8774 5.81858 10.3641 5.99591 9.88805C6.17325 9.40272 6.32725 8.99672 6.45791 8.67005C6.56991 8.60472 6.74258 8.54405 6.97591 8.48805C7.20925 8.43205 7.44725 8.40405 7.68991 8.40405C8.00725 8.40405 8.29658 8.45072 8.55791 8.54405C8.82858 8.63738 8.99658 8.78672 9.06191 8.99205C9.25791 9.50538 9.46791 10.0934 9.69191 10.7561C9.91591 11.4188 10.1446 12.1094 10.3779 12.8281C10.6113 13.5468 10.8353 14.2468 11.0499 14.9281C11.2646 15.6094 11.4559 16.2254 11.6239 16.7761C11.5306 16.8788 11.3999 16.9628 11.2319 17.0281C11.0733 17.0934 10.8866 17.1261 10.6719 17.1261C10.3639 17.1261 10.1399 17.0701 9.99991 16.9581C9.86925 16.8368 9.76658 16.6548 9.69191 16.4121L9.11791 14.5781L8.93591 13.6821C8.78658 13.2061 8.63725 12.7394 8.48791 12.2821C8.34791 11.8154 8.21258 11.3814 8.08191 10.9801C7.95125 10.5788 7.83925 10.2334 7.74591 9.94405ZM5.39391 14.9701L6.05191 13.5841H9.55191L9.81791 14.9701H5.39391ZM15.5228 16.7621C14.9721 16.7621 14.4635 16.6594 13.9968 16.4541C13.5301 16.2394 13.1568 15.8894 12.8768 15.4041C12.5968 14.9188 12.4568 14.2794 12.4568 13.4861C12.4568 12.7581 12.5968 12.1514 12.8768 11.6661C13.1661 11.1714 13.5675 10.8028 14.0808 10.5601C14.6035 10.3081 15.2008 10.1821 15.8728 10.1821C16.3488 10.1821 16.7875 10.2428 17.1888 10.3641C17.5995 10.4854 17.9261 10.6254 18.1688 10.7841C18.3275 10.8868 18.4535 11.0128 18.5468 11.1621C18.6495 11.3021 18.7008 11.4748 18.7008 11.6801V16.0481H17.0208V11.8341C16.8995 11.7594 16.7501 11.6941 16.5728 11.6381C16.3955 11.5821 16.1761 11.5541 15.9148 11.5541C15.4015 11.5541 14.9815 11.7128 14.6548 12.0301C14.3375 12.3474 14.1788 12.8328 14.1788 13.4861C14.1788 14.2048 14.3328 14.7088 14.6408 14.9981C14.9581 15.2874 15.3455 15.4321 15.8028 15.4321C16.1575 15.4321 16.4421 15.3714 16.6568 15.2501C16.8808 15.1288 17.0675 14.9981 17.2168 14.8581L17.2728 16.2581C17.1048 16.3888 16.8715 16.5054 16.5728 16.6081C16.2835 16.7108 15.9335 16.7621 15.5228 16.7621ZM17.0488 17.0421V15.6701H18.7008V17.0981C18.7008 17.7328 18.5561 18.2461 18.2668 18.6381C17.9775 19.0394 17.5808 19.3334 17.0768 19.5201C16.5821 19.7068 16.0268 19.8001 15.4108 19.8001C14.9255 19.8001 14.5008 19.7534 14.1368 19.6601C13.7821 19.5668 13.5208 19.4688 13.3528 19.3661C13.0448 19.1794 12.8908 18.9228 12.8908 18.5961C12.8908 18.4281 12.9281 18.2788 13.0028 18.1481C13.0775 18.0174 13.1661 17.9194 13.2688 17.8541C13.5021 18.0034 13.7915 18.1341 14.1368 18.2461C14.4915 18.3581 14.8648 18.4141 15.2568 18.4141C15.8168 18.4141 16.2555 18.3021 16.5728 18.0781C16.8901 17.8634 17.0488 17.5181 17.0488 17.0421Z" fill="#131313"/>
</svg>
