<svg width="24" height="24" viewBox="0 0 24 24" fill="none" xmlns="http://www.w3.org/2000/svg">
<path d="M8.30384 9.36997H8.24784C8.10784 9.76197 7.93984 10.2287 7.74384 10.77C7.55717 11.3113 7.36117 11.8713 7.15584 12.45C6.95984 13.0193 6.77317 13.5513 6.59584 14.046L6.52584 14.256C6.46984 14.424 6.39984 14.634 6.31584 14.886C6.23184 15.138 6.14317 15.404 6.04984 15.684C5.9565 15.9547 5.86784 16.2113 5.78384 16.454C5.69984 16.6873 5.6345 16.8787 5.58784 17.028C5.5225 17.056 5.4525 17.0747 5.37784 17.084C5.3125 17.1027 5.2285 17.112 5.12584 17.112C4.9765 17.112 4.84117 17.0747 4.71984 17C4.60784 16.916 4.55184 16.7853 4.55184 16.608C4.55184 16.524 4.56584 16.44 4.59384 16.356C4.62184 16.2627 4.6545 16.1647 4.69184 16.062C4.80384 15.7447 4.93917 15.3573 5.09784 14.9C5.26584 14.4427 5.44784 13.9433 5.64384 13.402C5.83984 12.8607 6.04517 12.3053 6.25984 11.736C6.4745 11.1667 6.6845 10.6113 6.88984 10.07C7.09517 9.52864 7.2865 9.03397 7.46384 8.58597C7.5385 8.54864 7.6505 8.5113 7.79984 8.47397C7.94917 8.43664 8.10317 8.41797 8.26184 8.41797C8.4485 8.41797 8.62584 8.44597 8.79384 8.50197C8.97117 8.55797 9.08317 8.6513 9.12984 8.78197C9.35384 9.3233 9.59184 9.9393 9.84384 10.63C10.1052 11.3113 10.3665 12.0253 10.6278 12.772C10.8892 13.5093 11.1365 14.228 11.3698 14.928C11.6125 15.628 11.8272 16.2627 12.0138 16.832C11.9485 16.916 11.8598 16.9813 11.7478 17.028C11.6452 17.084 11.5285 17.112 11.3978 17.112C11.2205 17.112 11.0852 17.0747 10.9918 17C10.8985 16.916 10.8192 16.7807 10.7538 16.594L9.98384 14.312L9.87184 13.92C9.68517 13.3507 9.48917 12.7767 9.28384 12.198C9.08784 11.6193 8.90117 11.0827 8.72384 10.588C8.55584 10.0933 8.41584 9.6873 8.30384 9.36997ZM5.97984 14.732L6.34384 13.794H10.2498L10.4738 14.732H5.97984ZM16.0866 16.804C15.5453 16.804 15.046 16.7013 14.5886 16.496C14.1313 16.2813 13.7626 15.936 13.4826 15.46C13.2026 14.984 13.0626 14.354 13.0626 13.57C13.0626 12.8607 13.198 12.268 13.4686 11.792C13.7486 11.316 14.1313 10.9567 14.6166 10.714C15.102 10.4713 15.6573 10.35 16.2826 10.35C16.712 10.35 17.104 10.406 17.4586 10.518C17.8226 10.6207 18.126 10.7513 18.3686 10.91C18.5086 11.0033 18.6206 11.1107 18.7046 11.232C18.798 11.344 18.8446 11.484 18.8446 11.652V15.978H17.7246V11.666C17.566 11.5633 17.3653 11.4747 17.1226 11.4C16.8893 11.316 16.6093 11.274 16.2826 11.274C15.6573 11.274 15.1533 11.4653 14.7706 11.848C14.388 12.2307 14.1966 12.8 14.1966 13.556C14.1966 14.396 14.388 14.9933 14.7706 15.348C15.1626 15.7027 15.6433 15.88 16.2126 15.88C16.6233 15.88 16.9546 15.81 17.2066 15.67C17.4586 15.53 17.6593 15.376 17.8086 15.208L17.8646 16.202C17.7246 16.3513 17.5006 16.4913 17.1926 16.622C16.894 16.7433 16.5253 16.804 16.0866 16.804ZM17.7246 17.21V15.74H18.8446V17.28C18.8446 17.896 18.7093 18.3907 18.4386 18.764C18.1773 19.1373 17.8133 19.408 17.3466 19.576C16.8893 19.744 16.3713 19.828 15.7926 19.828C15.326 19.828 14.9246 19.7767 14.5886 19.674C14.2526 19.5713 14.024 19.4873 13.9026 19.422C13.6226 19.2633 13.4826 19.0627 13.4826 18.82C13.4826 18.6893 13.5106 18.5773 13.5666 18.484C13.632 18.4 13.7113 18.3347 13.8046 18.288C14.0006 18.4373 14.276 18.5727 14.6306 18.694C14.9946 18.8247 15.382 18.89 15.7926 18.89C16.418 18.89 16.894 18.7547 17.2206 18.484C17.5566 18.2133 17.7246 17.7887 17.7246 17.21Z" fill="#131313"/>
</svg>
