<svg width="24" height="24" viewBox="0 0 24 24" fill="none" xmlns="http://www.w3.org/2000/svg">
<path d="M9.87184 13.886L9.60584 13.144H6.41384L6.13384 13.886L5.71384 15.636L6.31584 15.706L6.30184 16H3.96384L3.94984 15.734L4.36984 15.636L7.53384 7.89403L7.00184 7.79603L7.01584 7.53003H9.31184L9.32584 7.79603L8.79384 7.89403L11.7198 15.636L12.1398 15.734L12.1258 16H9.63384L9.61984 15.706L10.2218 15.636L9.87184 13.886ZM8.07984 8.90203L6.77784 12.206H9.26984L8.07984 8.90203ZM15.4359 10.204C16.0052 10.204 16.4952 10.3207 16.9059 10.554L18.6279 10.134L18.5439 11.114H17.4939C17.6899 11.422 17.7879 11.786 17.7879 12.206C17.7879 12.8873 17.5592 13.424 17.1019 13.816C16.6539 14.1987 16.0332 14.39 15.2399 14.39C14.8479 14.39 14.4885 14.3387 14.1619 14.236L13.7419 14.95C14.0499 15.1367 14.6752 15.23 15.6179 15.23C16.5605 15.23 17.2092 15.3467 17.5639 15.58C17.9279 15.8133 18.1099 16.182 18.1099 16.686C18.1099 17.3953 17.8065 17.96 17.1999 18.38C16.6025 18.8 15.7952 19.01 14.7779 19.01C13.2099 19.01 12.4259 18.548 12.4259 17.624C12.4259 17.0453 12.7572 16.5273 13.4199 16.07C13.0652 15.9393 12.8879 15.7013 12.8879 15.356C12.8879 15.0107 13.1259 14.5393 13.6019 13.942C13.1352 13.5873 12.9019 13.0693 12.9019 12.388C12.9019 11.7067 13.1259 11.1747 13.5739 10.792C14.0312 10.4 14.6519 10.204 15.4359 10.204ZM14.9039 18.254C15.5292 18.254 16.0425 18.142 16.4439 17.918C16.8452 17.694 17.0459 17.4233 17.0459 17.106C17.0459 16.7887 16.9105 16.5647 16.6399 16.434C16.3692 16.3127 15.9352 16.252 15.3379 16.252C14.7405 16.252 14.2925 16.2333 13.9939 16.196C13.6485 16.5507 13.4759 16.938 13.4759 17.358C13.4759 17.9553 13.9519 18.254 14.9039 18.254ZM15.3379 10.946C14.4885 10.946 14.0639 11.3987 14.0639 12.304C14.0639 13.2 14.4885 13.648 15.3379 13.648C16.1965 13.648 16.6259 13.1907 16.6259 12.276C16.6259 11.8187 16.5185 11.4827 16.3039 11.268C16.0985 11.0533 15.7765 10.946 15.3379 10.946Z" fill="#131313"/>
</svg>
