<svg width="24" height="24" viewBox="0 0 24 24" fill="none" xmlns="http://www.w3.org/2000/svg">
<path d="M9.80419 17C9.70152 17 9.65019 16.9487 9.65019 16.846L9.62219 15.628C9.63152 15.6093 9.62685 15.5953 9.60819 15.586C9.58952 15.5673 9.57085 15.558 9.55219 15.558H8.08219C8.02619 15.558 7.99819 15.5813 7.99819 15.628L7.69019 16.846C7.66219 16.9487 7.59685 17 7.49419 17H5.56219C5.45019 17 5.41285 16.9393 5.45019 16.818L8.57219 7.35395C8.60019 7.25128 8.66552 7.19995 8.76819 7.19995H10.9802C11.0922 7.19995 11.1482 7.25128 11.1482 7.35395L11.9322 16.818V16.86C11.9322 16.9533 11.8809 17 11.7782 17H9.80419ZM8.53019 13.696C8.53019 13.7427 8.54419 13.766 8.57219 13.766H9.48219C9.52885 13.766 9.55219 13.7427 9.55219 13.696L9.45419 10.504C9.45419 10.4667 9.44485 10.448 9.42619 10.448C9.40752 10.448 9.38885 10.4667 9.37019 10.504L8.53019 13.696ZM16.4711 9.92995C16.4805 9.88328 16.4991 9.84595 16.5271 9.81795C16.5645 9.78062 16.6065 9.76195 16.6531 9.76195H18.5851C18.6318 9.76195 18.6691 9.78062 18.6971 9.81795C18.7251 9.84595 18.7345 9.88328 18.7251 9.92995L17.9131 16.58C17.7825 17.644 17.4325 18.4653 16.8631 19.044C16.3031 19.632 15.3698 19.926 14.0631 19.926C13.9138 19.926 13.6711 19.9167 13.3351 19.898C13.2231 19.8887 13.1765 19.828 13.1951 19.716L13.3911 18.05C13.4005 17.994 13.4238 17.952 13.4611 17.924C13.4985 17.896 13.5405 17.8867 13.5871 17.896L13.9091 17.91C14.5251 17.91 14.9498 17.798 15.1831 17.574C15.4258 17.3593 15.5845 17.0187 15.6591 16.552C15.6591 16.5147 15.6498 16.496 15.6311 16.496C15.6125 16.4867 15.5891 16.496 15.5611 16.524C15.2251 16.8973 14.7958 17.084 14.2731 17.084C13.1998 17.084 12.6631 16.4773 12.6631 15.264C12.6631 15.068 12.6771 14.8673 12.7051 14.662L13.0271 12.072C13.2325 10.4573 13.9511 9.64995 15.1831 9.64995C15.7338 9.64995 16.1211 9.85995 16.3451 10.28C16.3545 10.308 16.3685 10.322 16.3871 10.322C16.4058 10.3127 16.4198 10.294 16.4291 10.266L16.4711 9.92995ZM15.3651 15.082C15.5051 15.082 15.6265 15.026 15.7291 14.914C15.8318 14.802 15.8925 14.6573 15.9111 14.48L16.1771 12.254C16.1865 12.226 16.1911 12.1793 16.1911 12.114C16.1911 11.974 16.1538 11.862 16.0791 11.778C16.0045 11.6847 15.9065 11.638 15.7851 11.638C15.6545 11.638 15.5378 11.694 15.4351 11.806C15.3418 11.918 15.2858 12.0673 15.2671 12.254L14.9871 14.48C14.9685 14.6667 14.9918 14.816 15.0571 14.928C15.1225 15.0307 15.2251 15.082 15.3651 15.082Z" fill="#131313"/>
</svg>
