<svg width="24" height="24" viewBox="0 0 24 24" fill="none" xmlns="http://www.w3.org/2000/svg">
<path d="M11.202 17C11.118 17 11.0667 16.958 11.048 16.874L10.74 15.264C10.74 15.2453 10.7307 15.2313 10.712 15.222C10.7027 15.2127 10.6887 15.208 10.67 15.208H8.38805C8.36938 15.208 8.35071 15.2127 8.33205 15.222C8.32271 15.2313 8.31805 15.2453 8.31805 15.264L8.02405 16.874C8.01471 16.958 7.96338 17 7.87005 17H6.80605C6.75938 17 6.72205 16.986 6.69405 16.958C6.67538 16.93 6.67071 16.8927 6.68005 16.846L8.76605 7.32595C8.78471 7.24195 8.83605 7.19995 8.92005 7.19995H10.166C10.2594 7.19995 10.3107 7.24195 10.32 7.32595L12.42 16.846V16.874C12.42 16.958 12.378 17 12.294 17H11.202ZM8.55605 14.088C8.55605 14.1253 8.57005 14.144 8.59805 14.144H10.46C10.488 14.144 10.502 14.1253 10.502 14.088L9.55005 9.11795C9.54071 9.09928 9.53138 9.08995 9.52205 9.08995C9.51271 9.08995 9.50338 9.09928 9.49405 9.11795L8.55605 14.088ZM16.53 10.014C16.53 9.92062 16.5767 9.87395 16.67 9.87395H17.734C17.8274 9.87395 17.874 9.92062 17.874 10.014V16.79C17.874 17.77 17.65 18.526 17.202 19.058C16.754 19.5993 15.984 19.87 14.892 19.87L14.514 19.856C14.4207 19.8467 14.374 19.7953 14.374 19.702V18.806C14.374 18.7127 14.4254 18.666 14.528 18.666C15.2934 18.694 15.816 18.54 16.096 18.204C16.3854 17.8773 16.53 17.364 16.53 16.664V16.37C16.53 16.3513 16.5207 16.342 16.502 16.342C16.4927 16.3327 16.4787 16.3373 16.46 16.356C16.1427 16.7853 15.69 17 15.102 17C14.486 17 14.01 16.804 13.674 16.412C13.3474 16.0107 13.184 15.4693 13.184 14.788V11.988C13.184 11.2973 13.352 10.756 13.688 10.364C14.024 9.96262 14.4954 9.76195 15.102 9.76195C15.7087 9.76195 16.1614 9.97662 16.46 10.406C16.4787 10.4247 16.4927 10.4293 16.502 10.42C16.5207 10.4107 16.53 10.3967 16.53 10.378V10.014ZM15.536 15.838C15.8347 15.838 16.0727 15.7353 16.25 15.53C16.4367 15.3153 16.53 15.04 16.53 14.704V12.072C16.53 11.736 16.4367 11.4607 16.25 11.246C16.0727 11.0313 15.8347 10.924 15.536 10.924C15.2374 10.924 14.9947 11.0313 14.808 11.246C14.6214 11.4607 14.528 11.736 14.528 12.072V14.704C14.528 15.04 14.6214 15.3153 14.808 15.53C14.9947 15.7353 15.2374 15.838 15.536 15.838Z" fill="#131313"/>
</svg>
