<svg width="24" height="24" viewBox="0 0 24 24" fill="none" xmlns="http://www.w3.org/2000/svg">
<path d="M11.2775 17C11.1935 17 11.1421 16.958 11.1235 16.874L10.6195 15.026C10.6101 14.998 10.5868 14.984 10.5495 14.984H7.02147C6.98414 14.984 6.9608 14.998 6.95147 15.026L6.46147 16.874C6.4428 16.958 6.39147 17 6.30747 17H5.83147C5.7848 17 5.74747 16.986 5.71947 16.958C5.7008 16.93 5.69614 16.8927 5.70547 16.846L8.33747 7.31195C8.35614 7.23728 8.40747 7.19995 8.49147 7.19995H9.07947C9.16347 7.19995 9.2148 7.23728 9.23347 7.31195L11.8655 16.846L11.8795 16.888C11.8795 16.9627 11.8328 17 11.7395 17H11.2775ZM7.14747 14.312C7.13814 14.3213 7.13814 14.3353 7.14747 14.354C7.16614 14.3633 7.1848 14.368 7.20347 14.368H10.3675C10.3861 14.368 10.4001 14.3633 10.4095 14.354C10.4281 14.3353 10.4328 14.3213 10.4235 14.312L8.81347 8.29195C8.80414 8.27328 8.79014 8.26395 8.77147 8.26395C8.76214 8.26395 8.7528 8.27328 8.74347 8.29195L7.14747 14.312ZM16.9677 10.084C16.9677 9.99062 17.0144 9.94395 17.1077 9.94395H17.5697C17.663 9.94395 17.7097 9.99062 17.7097 10.084V16.874C17.7097 18.9087 16.641 19.884 14.5037 19.8C14.4104 19.8 14.3637 19.7533 14.3637 19.66L14.3777 19.254C14.3777 19.1607 14.4244 19.114 14.5177 19.114C15.3764 19.142 15.997 18.9647 16.3797 18.582C16.7717 18.2087 16.9677 17.63 16.9677 16.846V16.23C16.9677 16.202 16.9584 16.188 16.9397 16.188C16.921 16.1787 16.907 16.188 16.8977 16.216C16.7297 16.4867 16.501 16.6967 16.2117 16.846C15.9224 16.9953 15.5957 17.07 15.2317 17.07C14.6344 17.07 14.135 16.8927 13.7337 16.538C13.3417 16.1833 13.1037 15.7027 13.0197 15.096C12.973 14.732 12.9497 14.1907 12.9497 13.472C12.9497 12.716 12.9777 12.1607 13.0337 11.806C13.1084 11.218 13.337 10.742 13.7197 10.378C14.1117 10.014 14.6064 9.83195 15.2037 9.83195C15.577 9.83195 15.9084 9.90662 16.1977 10.056C16.487 10.2053 16.7204 10.4153 16.8977 10.686C16.907 10.714 16.921 10.728 16.9397 10.728C16.9584 10.7187 16.9677 10.7 16.9677 10.672V10.084ZM16.9397 14.942C16.9584 14.438 16.9677 13.948 16.9677 13.472C16.9677 12.996 16.9584 12.4967 16.9397 11.974C16.9024 11.5447 16.739 11.19 16.4497 10.91C16.1697 10.63 15.8104 10.49 15.3717 10.49C14.933 10.49 14.569 10.63 14.2797 10.91C13.9904 11.19 13.813 11.5447 13.7477 11.974C13.7104 12.4967 13.6917 12.9913 13.6917 13.458C13.6917 13.9807 13.7104 14.4753 13.7477 14.942C13.7944 15.3713 13.967 15.726 14.2657 16.006C14.5644 16.2767 14.9377 16.412 15.3857 16.412C15.8244 16.412 16.1837 16.272 16.4637 15.992C16.7437 15.712 16.9024 15.362 16.9397 14.942Z" fill="#131313"/>
</svg>
