<svg width="24" height="24" viewBox="0 0 24 24" fill="none" xmlns="http://www.w3.org/2000/svg">
<path d="M11.8515 17C11.7675 17 11.7161 16.958 11.6975 16.874L11.2775 14.928C11.2775 14.9093 11.2681 14.8953 11.2495 14.886C11.2401 14.8767 11.2261 14.872 11.2075 14.872H8.22546C8.20679 14.872 8.18813 14.8767 8.16946 14.886C8.16013 14.8953 8.15546 14.9093 8.15546 14.928L7.73546 16.874C7.72613 16.958 7.67479 17 7.58146 17H7.44146C7.39479 17 7.35746 16.986 7.32946 16.958C7.31079 16.93 7.30613 16.8927 7.31546 16.846L9.45746 7.32595C9.47613 7.24195 9.52746 7.19995 9.61146 7.19995H9.80746C9.89146 7.19995 9.94279 7.24195 9.96146 7.32595L12.1175 16.846V16.874C12.1175 16.958 12.0755 17 11.9915 17H11.8515ZM8.26746 14.438C8.25813 14.4473 8.25813 14.4613 8.26746 14.48C8.28613 14.4893 8.30479 14.494 8.32346 14.494H11.1095C11.1281 14.494 11.1421 14.4893 11.1515 14.48C11.1701 14.4613 11.1748 14.4473 11.1655 14.438L9.73746 7.98395C9.72813 7.95595 9.71879 7.94195 9.70946 7.94195C9.70013 7.94195 9.69079 7.95595 9.68146 7.98395L8.26746 14.438ZM16.5581 10.126C16.5581 10.0327 16.6048 9.98595 16.6981 9.98595H16.8521C16.9454 9.98595 16.9921 10.0327 16.9921 10.126V16.972C16.9921 18.8573 16.1801 19.8 14.5561 19.8C14.4441 19.8 14.3881 19.7533 14.3881 19.66V19.562C14.3881 19.4687 14.4348 19.422 14.5281 19.422C15.2374 19.422 15.7508 19.212 16.0681 18.792C16.3948 18.372 16.5581 17.7607 16.5581 16.958V16.3C16.5581 16.272 16.5488 16.258 16.5301 16.258C16.5208 16.2487 16.5068 16.2533 16.4881 16.272C16.3294 16.5333 16.1241 16.7387 15.8721 16.888C15.6201 17.028 15.3354 17.098 15.0181 17.098C14.4581 17.098 14.0054 16.9113 13.6601 16.538C13.3148 16.1647 13.1421 15.6793 13.1421 15.082V11.904C13.1421 11.3067 13.3148 10.8213 13.6601 10.448C14.0054 10.0653 14.4581 9.87395 15.0181 9.87395C15.3448 9.87395 15.6341 9.94862 15.8861 10.098C16.1381 10.238 16.3388 10.4387 16.4881 10.7C16.5068 10.7187 16.5208 10.728 16.5301 10.728C16.5488 10.7187 16.5581 10.7 16.5581 10.672V10.126ZM15.0881 16.706C15.5174 16.706 15.8674 16.5567 16.1381 16.258C16.4181 15.95 16.5581 15.5533 16.5581 15.068V11.904C16.5581 11.4187 16.4181 11.0267 16.1381 10.728C15.8674 10.42 15.5174 10.266 15.0881 10.266C14.6401 10.266 14.2714 10.42 13.9821 10.728C13.7021 11.0267 13.5621 11.4187 13.5621 11.904V15.068C13.5621 15.5533 13.7021 15.95 13.9821 16.258C14.2714 16.5567 14.6401 16.706 15.0881 16.706Z" fill="#131313"/>
</svg>
