<svg width="24" height="24" viewBox="0 0 24 24" fill="none" xmlns="http://www.w3.org/2000/svg">
<path d="M11.6095 17C11.5162 17 11.4695 16.958 11.4695 16.874L11.3015 14.928C11.3015 14.8907 11.2829 14.872 11.2455 14.872H8.34753C8.32887 14.872 8.3102 14.8767 8.29153 14.886C8.2822 14.8953 8.27753 14.9093 8.27753 14.928L7.61953 16.874C7.6102 16.958 7.55887 17 7.46553 17H7.32553C7.27887 17 7.2462 16.986 7.22753 16.958C7.20887 16.93 7.20887 16.8927 7.22753 16.846L10.4615 7.32595C10.4895 7.24195 10.5455 7.19995 10.6295 7.19995H10.8255C10.9095 7.19995 10.9515 7.24195 10.9515 7.32595L11.8755 16.846V16.874C11.8755 16.9113 11.8615 16.944 11.8335 16.972C11.8055 16.9907 11.7729 17 11.7355 17H11.6095ZM8.44553 14.438C8.4362 14.4473 8.4362 14.4613 8.44553 14.48C8.45487 14.4893 8.46887 14.494 8.48753 14.494H11.1895C11.2082 14.494 11.2222 14.4893 11.2315 14.48C11.2502 14.4613 11.2549 14.4473 11.2455 14.438L10.6575 7.98395C10.6575 7.95595 10.6529 7.94195 10.6435 7.94195C10.6342 7.94195 10.6202 7.95595 10.6015 7.98395L8.44553 14.438ZM17.0198 10.126C17.0198 10.0887 17.0338 10.056 17.0618 10.028C17.0898 9.99995 17.1271 9.98595 17.1738 9.98595H17.3138C17.3604 9.98595 17.3931 9.99995 17.4118 10.028C17.4398 10.056 17.4491 10.0887 17.4398 10.126L16.5998 16.972C16.3664 18.8573 15.4611 19.8 13.8838 19.8C13.8184 19.8 13.7764 19.786 13.7578 19.758C13.7391 19.7393 13.7344 19.7067 13.7438 19.66L13.7578 19.562C13.7578 19.5247 13.7718 19.492 13.7998 19.464C13.8278 19.436 13.8651 19.422 13.9118 19.422C14.5931 19.422 15.1158 19.212 15.4798 18.792C15.8438 18.372 16.0771 17.7607 16.1798 16.958L16.2638 16.3C16.2638 16.272 16.2544 16.258 16.2358 16.258C16.2264 16.2487 16.2124 16.2533 16.1938 16.272C16.0164 16.5333 15.7924 16.7387 15.5218 16.888C15.2604 17.028 14.9758 17.098 14.6678 17.098C14.1731 17.098 13.7811 16.9487 13.4918 16.65C13.2118 16.342 13.0718 15.936 13.0718 15.432C13.0718 15.3667 13.0811 15.25 13.0998 15.082L13.4778 11.904C13.5524 11.3067 13.7811 10.8213 14.1638 10.448C14.5464 10.0653 15.0084 9.87395 15.5498 9.87395C15.8578 9.87395 16.1284 9.94862 16.3618 10.098C16.5951 10.238 16.7678 10.4387 16.8798 10.7C16.8891 10.7187 16.8984 10.728 16.9078 10.728C16.9264 10.7187 16.9404 10.7 16.9498 10.672L17.0198 10.126ZM14.7798 16.706C15.1998 16.706 15.5591 16.5567 15.8578 16.258C16.1658 15.95 16.3478 15.5533 16.4038 15.068L16.7958 11.904C16.8051 11.8387 16.8098 11.7407 16.8098 11.61C16.8098 11.2087 16.6978 10.8867 16.4738 10.644C16.2498 10.392 15.9511 10.266 15.5778 10.266C15.1391 10.266 14.7611 10.42 14.4438 10.728C14.1358 11.0267 13.9538 11.4187 13.8978 11.904L13.5058 15.068C13.4964 15.1333 13.4918 15.2267 13.4918 15.348C13.4918 15.7587 13.6084 16.09 13.8418 16.342C14.0751 16.5847 14.3878 16.706 14.7798 16.706Z" fill="#131313"/>
</svg>
