<svg width="24" height="24" viewBox="0 0 24 24" fill="none" xmlns="http://www.w3.org/2000/svg">
<path d="M4.18931 17.126C3.81598 17.126 3.52665 17.0327 3.32131 16.846C3.12531 16.6593 3.01331 16.4167 2.98531 16.118L3.83931 15.726C3.84865 15.838 3.87665 15.9267 3.92331 15.992C3.97931 16.0573 4.04465 16.09 4.11931 16.09C4.30598 16.09 4.47398 15.9453 4.62331 15.656L9.11731 7.36804H9.57931L12.2813 17.014H11.1193L10.2793 13.92H6.75131L5.46331 16.328C5.33265 16.5707 5.14598 16.7667 4.90331 16.916C4.66065 17.056 4.42265 17.126 4.18931 17.126ZM9.95731 12.884L9.11731 9.32804V9.11804L9.07531 9.32804L7.29731 12.884H9.95731ZM16.3648 20.808C15.8142 20.808 15.3568 20.6213 14.9928 20.248C14.6288 19.884 14.4468 19.4267 14.4468 18.876C14.4468 18.1293 14.7688 17.4947 15.4128 16.972C14.7875 16.7853 14.3068 16.4493 13.9708 15.964C13.6442 15.4787 13.4808 14.8767 13.4808 14.158C13.4808 13.878 13.5088 13.584 13.5648 13.276C13.6862 12.5853 13.9242 11.974 14.2788 11.442C14.6428 10.91 15.0908 10.4993 15.6228 10.21C16.1642 9.91137 16.7475 9.76204 17.3728 9.76204L18.2408 9.79004L19.0248 9.88804H19.9488L18.8428 18.372C18.7495 19.1 18.4742 19.688 18.0168 20.136C17.5595 20.584 17.0088 20.808 16.3648 20.808ZM16.0988 16.062C16.5282 16.062 16.9528 15.88 17.3728 15.516C17.6062 15.3573 17.8068 15.1707 17.9748 14.956C18.1428 14.732 18.2362 14.536 18.2548 14.368L18.7168 10.812L17.6668 10.798H17.2608C16.8502 10.798 16.4535 10.9193 16.0708 11.162C15.6975 11.3953 15.3848 11.722 15.1328 12.142C14.8808 12.5527 14.7222 13.0147 14.6568 13.528C14.6382 13.7333 14.6288 13.8873 14.6288 13.99C14.6288 14.5873 14.7642 15.082 15.0348 15.474C15.3148 15.866 15.6695 16.062 16.0988 16.062ZM16.4488 19.772C16.7755 19.772 17.0555 19.6413 17.2888 19.38C17.5222 19.1187 17.6668 18.778 17.7228 18.358L18.0308 16.118C18.0122 16.1367 17.9608 16.1973 17.8768 16.3C17.8022 16.4027 17.7182 16.5007 17.6248 16.594C17.4102 16.7433 17.0042 17.0093 16.4068 17.392C15.8935 17.6533 15.6042 18.092 15.5388 18.708C15.5295 18.736 15.5248 18.7827 15.5248 18.848C15.5248 19.1093 15.6135 19.3287 15.7908 19.506C15.9682 19.6833 16.1875 19.772 16.4488 19.772Z" fill="#131313"/>
</svg>
