<svg width="24" height="24" viewBox="0 0 24 24" fill="none" xmlns="http://www.w3.org/2000/svg">
<path d="M8.13344 7.14404H8.24544L11.0034 16.986H10.3734L9.46344 13.724H5.19344L3.44344 16.986H2.79944L8.13344 7.14404ZM8.35744 9.62204C8.2641 9.29537 8.1801 8.91271 8.10544 8.47404L8.04944 8.19404C8.02144 8.25937 7.93744 8.45537 7.79744 8.78204C7.66677 9.10871 7.5361 9.39804 7.40544 9.65004L5.48744 13.164H9.32344L8.35744 9.62204ZM15.0936 20.654C14.1976 20.654 13.5023 20.4907 13.0076 20.164C12.5223 19.8373 12.2796 19.3053 12.2796 18.568C12.2796 18.4 12.2936 18.2227 12.3216 18.036C12.3496 17.784 12.4103 17.504 12.5036 17.196C12.569 16.972 12.6063 16.8227 12.6156 16.748C12.4476 16.6173 12.3216 16.4447 12.2376 16.23C12.1443 16.006 12.1163 15.7633 12.1536 15.502C12.1816 15.2593 12.275 15.0073 12.4336 14.746C12.5923 14.4753 12.835 14.2653 13.1616 14.116C13.2923 14.0693 13.437 14.0367 13.5956 14.018C13.7636 13.9993 13.9643 13.9853 14.1976 13.976C13.9083 13.6307 13.7636 13.192 13.7636 12.66C13.7636 12.576 13.773 12.45 13.7916 12.282C13.8943 11.5167 14.207 10.9147 14.7296 10.476C15.2616 10.0373 15.8823 9.81804 16.5916 9.81804C16.9556 9.81804 17.2683 9.88337 17.5296 10.014H19.7416L19.6716 10.532L18.2436 10.462C18.6263 10.854 18.8176 11.3347 18.8176 11.904C18.8176 11.988 18.8083 12.1233 18.7896 12.31C18.6963 13.066 18.393 13.6587 17.8796 14.088C17.3756 14.508 16.7503 14.718 16.0036 14.718C15.4996 14.718 15.075 14.6107 14.7296 14.396L14.1556 14.382C13.9596 14.382 13.7963 14.4053 13.6656 14.452C13.4323 14.4987 13.213 14.634 13.0076 14.858C12.8023 15.082 12.6996 15.362 12.6996 15.698C12.6996 15.95 12.8023 16.1367 13.0076 16.258C13.213 16.3793 13.5303 16.44 13.9596 16.44L14.9396 16.412L16.0876 16.384C16.9463 16.384 17.6183 16.5287 18.1036 16.818C18.589 17.1073 18.8316 17.5507 18.8316 18.148C18.8316 18.2787 18.827 18.3767 18.8176 18.442C18.715 19.2073 18.3136 19.7673 17.6136 20.122C16.923 20.4767 16.083 20.654 15.0936 20.654ZM16.0456 14.186C16.4843 14.186 16.8716 14.0833 17.2076 13.878C17.5436 13.6727 17.8003 13.402 17.9776 13.066C18.155 12.7207 18.2436 12.352 18.2436 11.96C18.2436 11.4653 18.0896 11.0733 17.7816 10.784C17.4736 10.4947 17.0676 10.35 16.5636 10.35C16.1436 10.35 15.761 10.4527 15.4156 10.658C15.0796 10.854 14.8136 11.1293 14.6176 11.484C14.431 11.8293 14.3376 12.2167 14.3376 12.646C14.3376 13.1313 14.4963 13.5093 14.8136 13.78C15.131 14.0507 15.5416 14.186 16.0456 14.186ZM15.0936 20.122C15.9523 20.122 16.671 19.982 17.2496 19.702C17.8376 19.4313 18.169 19.002 18.2436 18.414C18.253 18.3673 18.2576 18.2973 18.2576 18.204C18.2576 17.3547 17.4876 16.93 15.9476 16.93C15.705 16.93 15.4156 16.9393 15.0796 16.958L14.2676 16.972C13.605 16.972 13.199 16.9533 13.0496 16.916C13.0216 17.196 12.9936 17.4107 12.9656 17.56C12.947 17.6347 12.9283 17.756 12.9096 17.924C12.8816 18.1107 12.8676 18.2833 12.8676 18.442C12.8676 19.086 13.0543 19.5247 13.4276 19.758C13.8103 20.0007 14.3656 20.122 15.0936 20.122Z" fill="#131313"/>
</svg>
