<svg width="24" height="24" viewBox="0 0 24 24" fill="none" xmlns="http://www.w3.org/2000/svg">
<path d="M7.8752 7.15796H8.1412L12.2572 17H11.3612L10.0032 13.822H6.0132L4.6832 17H3.7872L7.8752 7.15796ZM8.3512 9.76196C8.20186 9.38863 8.0852 9.02463 8.0012 8.66996C7.8892 9.10863 7.7772 9.47263 7.6652 9.76196L6.3492 13.038H9.6672L8.3512 9.76196ZM16.8338 20.598C14.6871 20.598 13.6138 19.716 13.6138 17.952C13.6138 17.8027 13.6371 17.5273 13.6838 17.126L13.7258 16.748C13.5391 16.5987 13.3851 16.412 13.2638 16.188C13.1518 15.964 13.0958 15.726 13.0958 15.474C13.0958 15.2127 13.1658 14.942 13.3058 14.662C13.4458 14.382 13.6838 14.1673 14.0198 14.018C14.1318 13.9713 14.2438 13.9387 14.3558 13.92C14.4771 13.9013 14.6404 13.8873 14.8458 13.878C14.4911 13.4487 14.3138 12.94 14.3138 12.352C14.3138 11.8387 14.4304 11.3953 14.6638 11.022C14.9064 10.6393 15.2284 10.3453 15.6298 10.14C16.0311 9.93463 16.4744 9.83196 16.9598 9.83196C17.3238 9.83196 17.6504 9.89729 17.9398 10.028H20.2498V10.742L18.9758 10.658C19.3958 11.106 19.6058 11.6613 19.6058 12.324C19.6058 13.0893 19.3584 13.6913 18.8638 14.13C18.3784 14.5593 17.7438 14.774 16.9598 14.774C16.4464 14.774 15.9938 14.676 15.6018 14.48C15.3964 14.4613 15.2144 14.452 15.0558 14.452C14.8504 14.452 14.6918 14.466 14.5798 14.494C14.4211 14.5407 14.2671 14.648 14.1178 14.816C13.9778 14.984 13.9078 15.1987 13.9078 15.46C13.9078 15.7587 14.0151 15.9687 14.2298 16.09C14.4444 16.2113 14.7618 16.272 15.1818 16.272L16.1338 16.244L17.3238 16.216C18.2758 16.216 19.0271 16.3887 19.5778 16.734C20.1378 17.0793 20.4178 17.602 20.4178 18.302C20.4178 19.0953 20.0724 19.674 19.3818 20.038C18.7004 20.4113 17.8511 20.598 16.8338 20.598ZM16.9878 14.046C17.5664 14.046 18.0051 13.8873 18.3038 13.57C18.6118 13.2527 18.7658 12.842 18.7658 12.338C18.7658 11.7967 18.5978 11.372 18.2618 11.064C17.9351 10.7467 17.4964 10.588 16.9458 10.588C16.3858 10.588 15.9471 10.7467 15.6298 11.064C15.3124 11.3813 15.1538 11.806 15.1538 12.338C15.1538 12.8887 15.3218 13.3133 15.6578 13.612C15.9938 13.9013 16.4371 14.046 16.9878 14.046ZM16.8338 19.842C18.6631 19.842 19.5778 19.338 19.5778 18.33C19.5778 17.4247 18.8078 16.972 17.2678 16.972C16.8384 16.972 16.4558 16.9813 16.1198 17L15.5038 17.014C15.0464 17.014 14.6871 16.9907 14.4258 16.944L14.4538 17.868C14.4724 18.3813 14.5658 18.778 14.7338 19.058C14.9018 19.3473 15.1491 19.548 15.4758 19.66C15.8118 19.7813 16.2644 19.842 16.8338 19.842Z" fill="#131313"/>
</svg>
