<svg width="24" height="24" viewBox="0 0 24 24" fill="none" xmlns="http://www.w3.org/2000/svg">
<path d="M12.4092 16.918C12.4092 16.9727 12.3545 17 12.2451 17C12.1585 17 12.0309 16.9932 11.8623 16.9795C11.6982 16.9658 11.5729 16.959 11.4863 16.959C11.3997 16.959 11.2699 16.9658 11.0967 16.9795C10.9235 16.9932 10.7936 17 10.707 17C10.5794 17 10.4154 16.6559 10.2148 15.9678C10.0189 15.2751 9.81836 14.9242 9.61328 14.915C9.44466 14.9059 9.00488 14.9014 8.29395 14.9014H7.21387C6.46191 14.9014 6.03353 14.9059 5.92871 14.915C5.76465 14.9287 5.58919 15.2796 5.40234 15.9678C5.22005 16.6559 5.07878 17 4.97852 17H3.44043C3.34928 17 3.30371 16.9681 3.30371 16.9043C3.30371 16.8587 3.33561 16.7562 3.39941 16.5967L5.07422 12.0166C5.21549 11.6475 5.64388 10.5833 6.35938 8.82422C6.48698 8.53255 6.66016 8.09277 6.87891 7.50488C6.93359 7.33171 6.99284 7.24512 7.05664 7.24512C7.14323 7.24512 7.27083 7.25651 7.43945 7.2793C7.60807 7.30208 7.73568 7.31348 7.82227 7.31348C7.9043 7.31348 8.02734 7.30208 8.19141 7.2793C8.36003 7.25195 8.48307 7.23828 8.56055 7.23828C8.60156 7.23828 8.65853 7.32259 8.73145 7.49121C8.84082 7.74642 9.38086 9.12044 10.3516 11.6133C11.7233 15.1178 12.4092 16.8861 12.4092 16.918ZM9.22363 13.1445C9.22363 13.0124 9.01855 12.4199 8.6084 11.3672C8.21191 10.3464 7.93164 9.67643 7.76758 9.35742C6.82422 11.7637 6.35254 13.0238 6.35254 13.1377C6.35254 13.2926 6.52572 13.3838 6.87207 13.4111C6.8903 13.4157 7.11361 13.418 7.54199 13.418H8.24609C8.89779 13.418 9.22363 13.3268 9.22363 13.1445ZM19.1904 10.6289C19.1904 11.1758 19.1859 11.9984 19.1768 13.0967C19.1676 14.1904 19.1631 15.0107 19.1631 15.5576C19.1631 16.6423 18.9307 17.4421 18.4658 17.957C17.9782 18.5039 17.1989 18.7773 16.1279 18.7773C15.0934 18.7773 14.2572 18.5814 13.6191 18.1895C13.5189 18.1257 13.4688 18.071 13.4688 18.0254C13.4688 18.0755 13.5371 17.7383 13.6738 17.0137C13.6875 16.9362 13.7194 16.8975 13.7695 16.8975C13.7923 16.8975 13.8219 16.9089 13.8584 16.9316C14.542 17.3236 15.2279 17.5195 15.916 17.5195C16.3672 17.5195 16.7409 17.4193 17.0371 17.2188C17.3789 16.9909 17.5498 16.6605 17.5498 16.2275C17.5498 16.1318 17.5407 15.9176 17.5225 15.585C17.0166 16.2002 16.374 16.5078 15.5947 16.5078C14.7516 16.5078 14.0589 16.2048 13.5166 15.5986C12.9971 15.0153 12.7373 14.2975 12.7373 13.4453C12.7373 12.5794 12.988 11.8434 13.4893 11.2373C14.0225 10.5902 14.7152 10.2666 15.5674 10.2666C16.3193 10.2666 16.9163 10.556 17.3584 11.1348C17.4313 11.2305 17.4837 11.2783 17.5156 11.2783C17.5521 11.2783 17.5703 11.2373 17.5703 11.1553C17.5703 11.096 17.5658 11.0026 17.5566 10.875C17.5475 10.7428 17.543 10.6449 17.543 10.5811C17.543 10.3076 17.5703 10.1709 17.625 10.1709C17.6706 10.1709 17.9167 10.2142 18.3633 10.3008C18.8099 10.3828 19.0537 10.4329 19.0947 10.4512C19.1585 10.474 19.1904 10.5332 19.1904 10.6289ZM17.5498 13.4453C17.5498 12.9349 17.4108 12.502 17.1328 12.1465C16.8275 11.7591 16.4264 11.5654 15.9297 11.5654C15.4375 11.5654 15.0387 11.7614 14.7334 12.1533C14.4554 12.5088 14.3164 12.9395 14.3164 13.4453C14.3164 13.9421 14.4577 14.3704 14.7402 14.7305C15.0456 15.1224 15.4421 15.3184 15.9297 15.3184C16.4128 15.3184 16.8092 15.1224 17.1191 14.7305C17.4062 14.3704 17.5498 13.9421 17.5498 13.4453Z" fill="#131313"/>
</svg>
