<svg width="24" height="24" viewBox="0 0 24 24" fill="none" xmlns="http://www.w3.org/2000/svg">
<path d="M0.807388 17L1.22438 14.6416H2.2156L5.3738 8.47559H3.90407L4.32106 6.11719H11.075L12.1004 14.6416H13.0916L12.6746 17H6.63845L7.05544 14.6416H8.18337L8.08083 13.4453H5.26442L4.69704 14.6416H5.82497L5.40798 17H0.807388ZM6.07106 11.7363H7.93044L7.63649 8.41406L6.07106 11.7363ZM15.8918 19.8369C15.2812 19.8324 14.691 19.7845 14.1213 19.6934C13.5517 19.6068 13.0413 19.4792 12.5901 19.3105L12.9455 17.3145L13.1438 17.2324C13.5403 17.4284 13.9755 17.5697 14.4495 17.6562C14.9234 17.7428 15.3518 17.7861 15.7346 17.7861C16.2587 17.7861 16.6825 17.6676 17.0061 17.4307C17.3342 17.1937 17.5393 16.8405 17.6213 16.3711L17.676 16.0566C17.3524 16.3438 17.0107 16.5534 16.6506 16.6855C16.2952 16.8132 15.9351 16.877 15.5705 16.877C15.0829 16.877 14.6386 16.7699 14.2375 16.5557C13.8365 16.3369 13.5152 16.0065 13.2737 15.5645C13.0321 15.1224 12.9045 14.5641 12.8909 13.8896C12.8772 13.0602 13.0367 12.3197 13.3694 11.668C13.7021 11.0117 14.1715 10.4945 14.7776 10.1162C15.3837 9.73796 16.0855 9.54883 16.883 9.54883C17.2203 9.54883 17.5871 9.60352 17.9836 9.71289C18.3847 9.81771 18.7219 9.9681 18.9954 10.1641L19.4739 9.67188H22.7961L22.4338 11.7227H21.7161L20.9846 15.8652C20.816 16.8177 20.4856 17.5856 19.9934 18.1689C19.5058 18.7568 18.9065 19.1829 18.1955 19.4473C17.4892 19.7116 16.7213 19.8415 15.8918 19.8369ZM16.8967 14.833C17.0927 14.833 17.2932 14.7601 17.4983 14.6143C17.7034 14.4684 17.8765 14.2337 18.0178 13.9102L18.387 11.8252C18.2867 11.7477 18.1636 11.6908 18.0178 11.6543C17.872 11.6133 17.733 11.5928 17.6008 11.5928C17.1405 11.5928 16.7828 11.7979 16.5276 12.208C16.2724 12.6182 16.1448 13.1605 16.1448 13.835C16.1448 14.1403 16.2108 14.3841 16.343 14.5664C16.4752 14.7441 16.6597 14.833 16.8967 14.833Z" fill="#131313"/>
</svg>
