<svg width="24" height="24" viewBox="0 0 24 24" fill="none" xmlns="http://www.w3.org/2000/svg">
<path d="M2.52156 17L6.04956 6.64001H8.91956L12.4476 17H10.1796L9.52156 14.97H5.46156L4.78956 17H2.52156ZM6.06356 13.094H8.91956L7.49156 8.76801L6.06356 13.094ZM17.2899 19.968C16.5993 19.968 16.0299 19.884 15.5819 19.716C15.1433 19.548 14.7933 19.3333 14.5319 19.072C14.2706 18.82 14.0793 18.568 13.9579 18.316C13.8366 18.064 13.7573 17.8493 13.7199 17.672C13.6919 17.504 13.6779 17.42 13.6779 17.42H15.7499C15.7499 17.42 15.7639 17.462 15.7919 17.546C15.8293 17.6393 15.8993 17.742 16.0019 17.854C16.1046 17.9753 16.2539 18.078 16.4499 18.162C16.6553 18.2553 16.9259 18.302 17.2619 18.302C17.8406 18.302 18.2653 18.1387 18.5359 17.812C18.8159 17.4853 18.9559 17.056 18.9559 16.524V15.74H18.8579C18.7646 15.8893 18.6246 16.0527 18.4379 16.23C18.2513 16.4073 18.0133 16.5567 17.7239 16.678C17.4346 16.7993 17.0846 16.86 16.6739 16.86C16.1233 16.86 15.6426 16.7573 15.2319 16.552C14.8213 16.3373 14.4759 16.0527 14.1959 15.698C13.9253 15.3433 13.7199 14.9467 13.5799 14.508C13.4493 14.0693 13.3839 13.6167 13.3839 13.15C13.3839 12.6927 13.4493 12.2447 13.5799 11.806C13.7199 11.358 13.9253 10.9567 14.1959 10.602C14.4759 10.2473 14.8213 9.96734 15.2319 9.76201C15.6426 9.54734 16.1233 9.44001 16.6739 9.44001C17.0846 9.44001 17.4346 9.50534 17.7239 9.63601C18.0133 9.75734 18.2513 9.90668 18.4379 10.084C18.6339 10.252 18.7739 10.4153 18.8579 10.574H18.9559V9.58001H21.0839V16.524C21.0839 17.14 20.9486 17.7093 20.6779 18.232C20.4073 18.7547 19.9919 19.1747 19.4319 19.492C18.8719 19.8093 18.1579 19.968 17.2899 19.968ZM17.2619 15.18C17.6539 15.18 17.9759 15.082 18.2279 14.886C18.4893 14.69 18.6853 14.438 18.8159 14.13C18.9466 13.8127 19.0119 13.486 19.0119 13.15C19.0119 12.8047 18.9466 12.478 18.8159 12.17C18.6853 11.862 18.4893 11.61 18.2279 11.414C17.9759 11.218 17.6539 11.12 17.2619 11.12C16.8793 11.12 16.5573 11.218 16.2959 11.414C16.0439 11.61 15.8526 11.862 15.7219 12.17C15.5913 12.478 15.5259 12.8047 15.5259 13.15C15.5259 13.486 15.5913 13.8127 15.7219 14.13C15.8526 14.438 16.0439 14.69 16.2959 14.886C16.5573 15.082 16.8793 15.18 17.2619 15.18Z" fill="#131313"/>
</svg>
