<svg width="24" height="24" viewBox="0 0 24 24" fill="none" xmlns="http://www.w3.org/2000/svg">
<path d="M1.45238 17L7.09438 6.64001H10.7204L11.9664 17H9.30638L9.12438 15.264H5.30238L4.39238 17H1.45238ZM6.50638 12.968H8.90038L8.50838 9.14601L6.50638 12.968ZM16.1081 20.01C15.3894 20.01 14.8014 19.9213 14.3441 19.744C13.8961 19.5667 13.5461 19.3473 13.2941 19.086C13.0421 18.8247 12.8647 18.5633 12.7621 18.302C12.6594 18.0407 12.5987 17.8213 12.5801 17.644C12.5614 17.4667 12.5521 17.378 12.5521 17.378H15.1141C15.1141 17.378 15.1327 17.4293 15.1701 17.532C15.2167 17.6347 15.3147 17.7373 15.4641 17.84C15.6227 17.9427 15.8654 17.994 16.1921 17.994C16.6401 17.994 17.0087 17.868 17.2981 17.616C17.5967 17.364 17.7927 17.0233 17.8861 16.594L18.0401 15.88H17.9281C17.9281 15.88 17.8907 15.9267 17.8161 16.02C17.7414 16.104 17.6247 16.2067 17.4661 16.328C17.3074 16.4493 17.1067 16.5567 16.8641 16.65C16.6307 16.734 16.3461 16.776 16.0101 16.776C15.3754 16.776 14.8481 16.6313 14.4281 16.342C14.0174 16.0433 13.7094 15.6607 13.5041 15.194C13.3081 14.718 13.2101 14.2093 13.2101 13.668C13.2101 13.164 13.2894 12.6647 13.4481 12.17C13.6161 11.6753 13.8541 11.2227 14.1621 10.812C14.4794 10.392 14.8667 10.0607 15.3241 9.81801C15.7814 9.56601 16.3041 9.44001 16.8921 9.44001C17.3214 9.44001 17.6761 9.50534 17.9561 9.63601C18.2361 9.75734 18.4507 9.90668 18.6001 10.084C18.7587 10.252 18.8707 10.4013 18.9361 10.532C19.0014 10.6533 19.0341 10.714 19.0341 10.714H19.1461L19.3841 9.58001H22.0301L20.5181 16.762C20.3127 17.742 19.8601 18.526 19.1601 19.114C18.4601 19.7113 17.4427 20.01 16.1081 20.01ZM17.1021 14.76C17.4381 14.76 17.7181 14.662 17.9421 14.466C18.1754 14.27 18.3527 14.0227 18.4741 13.724C18.5954 13.4253 18.6561 13.1267 18.6561 12.828C18.6561 12.464 18.5627 12.1467 18.3761 11.876C18.1894 11.596 17.9001 11.456 17.5081 11.456C17.1814 11.456 16.9014 11.554 16.6681 11.75C16.4441 11.946 16.2714 12.1933 16.1501 12.492C16.0287 12.7813 15.9681 13.08 15.9681 13.388C15.9681 13.752 16.0567 14.074 16.2341 14.354C16.4207 14.6247 16.7101 14.76 17.1021 14.76Z" fill="#131313"/>
</svg>
