<svg width="24" height="24" viewBox="0 0 24 24" fill="none" xmlns="http://www.w3.org/2000/svg">
<path d="M9.4543 14.732H6.3183L5.6183 17H3.4063L6.8923 7.19995H8.9223L12.3803 17H10.1683L9.4543 14.732ZM8.9223 13.066L7.9143 9.90195H7.8303L6.8503 13.066H8.9223ZM16.5718 20.164C16.2451 20.164 15.9884 20.1453 15.8018 20.108C15.6244 20.0707 15.4891 20.0333 15.3958 19.996C15.3118 19.9587 15.2604 19.9353 15.2418 19.926V18.19C15.3444 18.2273 15.4984 18.26 15.7038 18.288C15.9184 18.3253 16.1144 18.344 16.2918 18.344C17.3838 18.344 17.9298 17.7327 17.9298 16.51V15.656H17.8178C17.6684 15.9547 17.4164 16.2487 17.0618 16.538C16.7164 16.818 16.2404 16.958 15.6338 16.958C14.7471 16.958 14.0471 16.6173 13.5338 15.936C13.0298 15.2547 12.7778 14.3447 12.7778 13.206C12.7778 12.4407 12.8944 11.7733 13.1278 11.204C13.3611 10.6347 13.6924 10.196 14.1218 9.88795C14.5604 9.57995 15.0738 9.42595 15.6618 9.42595C16.2684 9.42595 16.7491 9.57528 17.1038 9.87395C17.4584 10.1727 17.6964 10.4667 17.8178 10.756H17.9298V9.59395H20.1278V16.51C20.1278 17.35 19.8898 18.1667 19.4138 18.96C18.9378 19.7627 17.9904 20.164 16.5718 20.164ZM16.4738 15.208C16.9591 15.208 17.3231 15.0027 17.5658 14.592C17.8084 14.1813 17.9298 13.71 17.9298 13.178C17.9298 12.6553 17.8084 12.1933 17.5658 11.792C17.3324 11.3907 16.9684 11.19 16.4738 11.19C15.9698 11.19 15.5964 11.3907 15.3538 11.792C15.1204 12.184 15.0038 12.646 15.0038 13.178C15.0038 13.71 15.1204 14.1813 15.3538 14.592C15.5964 15.0027 15.9698 15.208 16.4738 15.208Z" fill="#131313"/>
</svg>
