<svg width="24" height="24" viewBox="0 0 24 24" fill="none" xmlns="http://www.w3.org/2000/svg">
<g clip-path="url(#clip0_267_1454)">
<path d="M4.18707 17.014H-0.572929V16.692H1.69507L6.30107 10.042H4.04707V9.71997H9.32507V10.042H7.08507L11.6911 16.692H13.9591V17.014H9.19907V16.692H11.2851L9.57707 14.214H3.80907L2.11507 16.692H4.18707V17.014ZM4.01907 13.906H9.36707L6.70707 10.042H6.67907L4.01907 13.906ZM22.7416 13.668C22.7416 14.088 22.5736 14.4333 22.2376 14.704C21.9109 14.9747 21.4769 15.1753 20.9356 15.306C20.3942 15.4367 19.8062 15.502 19.1716 15.502C18.5556 15.5113 17.9769 15.4553 17.4356 15.334C16.9036 15.2033 16.4836 15.0027 16.1756 14.732C15.9609 14.8253 15.7602 14.9513 15.5736 15.11C15.3962 15.2687 15.3076 15.4647 15.3076 15.698C15.3076 15.838 15.3682 15.9827 15.4896 16.132C15.6109 16.2813 15.8116 16.4073 16.0916 16.51C16.3716 16.6127 16.7542 16.664 17.2396 16.664C17.5102 16.664 17.8416 16.6407 18.2336 16.594C18.6256 16.5473 19.0362 16.4913 19.4656 16.426C19.8949 16.3607 20.3056 16.3047 20.6976 16.258C21.0896 16.2113 21.4162 16.188 21.6776 16.188C22.2096 16.188 22.6576 16.2907 23.0216 16.496C23.3949 16.692 23.5816 17.0093 23.5816 17.448C23.5816 17.868 23.3716 18.218 22.9516 18.498C22.5316 18.778 21.9622 18.988 21.2436 19.128C20.5249 19.268 19.7129 19.338 18.8076 19.338C17.4169 19.338 16.4136 19.1793 15.7976 18.862C15.1816 18.554 14.8736 18.1713 14.8736 17.714C14.8736 17.462 14.9482 17.2427 15.0976 17.056C15.2562 16.8787 15.4196 16.7387 15.5876 16.636C15.3542 16.5053 15.1956 16.3607 15.1116 16.202C15.0276 16.034 14.9856 15.88 14.9856 15.74C14.9856 15.4413 15.0929 15.194 15.3076 14.998C15.5316 14.802 15.7602 14.6573 15.9936 14.564C15.7602 14.3027 15.6436 14.004 15.6436 13.668C15.6436 13.2573 15.8069 12.9213 16.1336 12.66C16.4602 12.3893 16.8896 12.1933 17.4216 12.072C17.9629 11.9413 18.5462 11.876 19.1716 11.876C19.6662 11.876 20.1329 11.9133 20.5716 11.988C21.0102 12.0627 21.3976 12.1793 21.7336 12.338C21.8456 11.8433 22.0649 11.4607 22.3916 11.19C22.7276 10.9193 23.1196 10.7747 23.5676 10.756V11.106C23.1942 11.1247 22.8629 11.232 22.5736 11.428C22.2842 11.624 22.0649 11.96 21.9156 12.436C22.1676 12.576 22.3682 12.7487 22.5176 12.954C22.6669 13.1593 22.7416 13.3973 22.7416 13.668ZM15.9936 13.668C15.9936 13.9947 16.1382 14.27 16.4276 14.494C16.7169 14.718 17.1042 14.886 17.5896 14.998C18.0749 15.11 18.6022 15.166 19.1716 15.166C19.7596 15.166 20.2962 15.11 20.7816 14.998C21.2669 14.886 21.6542 14.718 21.9436 14.494C22.2329 14.27 22.3776 13.9947 22.3776 13.668C22.3776 13.332 22.2329 13.0567 21.9436 12.842C21.6542 12.6273 21.2669 12.4687 20.7816 12.366C20.2962 12.254 19.7596 12.198 19.1716 12.198C18.6022 12.198 18.0749 12.254 17.5896 12.366C17.1042 12.4687 16.7169 12.6273 16.4276 12.842C16.1382 13.0567 15.9936 13.332 15.9936 13.668ZM15.2236 17.672C15.2236 18.0453 15.4942 18.358 16.0356 18.61C16.5862 18.8713 17.5056 19.002 18.7936 19.002C19.6336 19.002 20.3896 18.946 21.0616 18.834C21.7336 18.7313 22.2609 18.5633 22.6436 18.33C23.0356 18.0967 23.2316 17.8027 23.2316 17.448C23.2316 17.1213 23.0869 16.888 22.7976 16.748C22.5176 16.5987 22.1442 16.524 21.6776 16.524C21.3976 16.524 21.0616 16.5473 20.6696 16.594C20.2869 16.6313 19.8809 16.6827 19.4516 16.748C19.0222 16.804 18.6069 16.8553 18.2056 16.902C17.8136 16.9393 17.4776 16.958 17.1976 16.958C16.9082 16.958 16.6516 16.9393 16.4276 16.902C16.2036 16.8647 16.0122 16.818 15.8536 16.762C15.6669 16.8553 15.5129 16.9813 15.3916 17.14C15.2796 17.308 15.2236 17.4853 15.2236 17.672Z" fill="#131313"/>
</g>
<defs>
<clipPath id="clip0_267_1454">
<rect width="24" height="24" fill="white"/>
</clipPath>
</defs>
</svg>
