<svg width="24" height="24" viewBox="0 0 24 24" fill="none" xmlns="http://www.w3.org/2000/svg">
<path d="M12.3203 16.7061L10.0918 17.0273L10.0645 16.7881C10.1738 16.7744 10.2695 16.7653 10.3516 16.7607C10.4336 16.7516 10.502 16.7334 10.5566 16.7061C10.6113 16.6742 10.6523 16.624 10.6797 16.5557C10.707 16.4873 10.7207 16.387 10.7207 16.2549C10.7207 16.2503 10.7207 16.2412 10.7207 16.2275C10.7207 16.2139 10.7161 16.182 10.707 16.1318C10.7025 16.0771 10.6911 15.9951 10.6729 15.8857C10.6592 15.7718 10.6387 15.6146 10.6113 15.4141C10.584 15.209 10.5498 14.9515 10.5088 14.6416C10.4678 14.3317 10.4176 13.9512 10.3584 13.5H8.7793C8.70182 14.0469 8.63574 14.5117 8.58105 14.8945C8.52637 15.2728 8.48079 15.5895 8.44434 15.8447C8.41243 16.0954 8.38509 16.2936 8.3623 16.4395C8.34408 16.5853 8.3304 16.6947 8.32129 16.7676C8.31217 16.8359 8.30534 16.8815 8.30078 16.9043C8.30078 16.9225 8.30078 16.9316 8.30078 16.9316C8.30078 17.0137 8.32129 17.0752 8.3623 17.1162C8.40788 17.1618 8.46029 17.1937 8.51953 17.2119C8.58333 17.2347 8.65169 17.2507 8.72461 17.2598C8.79753 17.2689 8.86133 17.2757 8.91602 17.2803L8.88867 17.5195L7.20703 17.3623L7.23438 17.1094C7.29818 17.1185 7.36426 17.1276 7.43262 17.1367C7.50098 17.1504 7.57161 17.1572 7.64453 17.1572C7.72201 17.1572 7.7972 17.123 7.87012 17.0547C7.94759 16.9909 7.99316 16.9202 8.00684 16.8428L9.36719 7.63477V7.53906C9.36719 7.41602 9.3444 7.32715 9.29883 7.27246C9.25326 7.21777 9.19401 7.18359 9.12109 7.16992C9.05273 7.15625 8.97526 7.15397 8.88867 7.16309C8.80208 7.16764 8.71777 7.16992 8.63574 7.16992V6.93066L10.96 6.87598V7.12891C10.9098 7.12891 10.862 7.12663 10.8164 7.12207C10.7754 7.11751 10.7298 7.11523 10.6797 7.11523C10.5247 7.11523 10.4131 7.14486 10.3447 7.2041C10.2809 7.26335 10.249 7.375 10.249 7.53906C10.249 7.54362 10.249 7.55273 10.249 7.56641C10.2536 7.58008 10.2604 7.62337 10.2695 7.69629C10.2786 7.76465 10.2923 7.87174 10.3105 8.01758C10.3333 8.16341 10.363 8.37077 10.3994 8.63965C10.4359 8.90397 10.4814 9.24121 10.5361 9.65137C10.5954 10.0615 10.666 10.5651 10.748 11.1621C10.8346 11.7546 10.9326 12.4518 11.042 13.2539C11.1559 14.056 11.2881 14.9834 11.4385 16.0361C11.443 16.0863 11.459 16.1387 11.4863 16.1934C11.5137 16.248 11.5479 16.3005 11.5889 16.3506C11.6299 16.4007 11.6755 16.4417 11.7256 16.4736C11.7757 16.5055 11.8281 16.5215 11.8828 16.5215C11.9557 16.5215 12.0241 16.5146 12.0879 16.501C12.1517 16.4873 12.2201 16.4759 12.293 16.4668L12.3203 16.7061ZM9.59961 7.77148L8.83398 13.165H10.3174C10.2399 12.5498 10.1419 11.8047 10.0234 10.9297C9.90495 10.0501 9.76367 8.9974 9.59961 7.77148ZM13.6807 12.8164C13.7262 12.862 13.7764 12.9098 13.8311 12.96C13.8903 13.0055 13.945 13.0557 13.9951 13.1104C14.0452 13.1605 14.0863 13.2129 14.1182 13.2676C14.1501 13.3223 14.166 13.377 14.166 13.4316C14.166 13.5319 14.141 13.6162 14.0908 13.6846C14.0452 13.7529 13.9928 13.8167 13.9336 13.876C13.8789 13.9352 13.8265 13.9967 13.7764 14.0605C13.7308 14.1243 13.708 14.1995 13.708 14.2861C13.708 14.3955 13.7376 14.4889 13.7969 14.5664C13.8607 14.6393 13.929 14.7122 14.002 14.7852C14.0749 14.8535 14.141 14.9287 14.2002 15.0107C14.264 15.0928 14.2959 15.1953 14.2959 15.3184C14.2959 15.4323 14.2594 15.5599 14.1865 15.7012C14.1182 15.8424 14.0316 15.9928 13.9268 16.1523C13.8219 16.3073 13.7057 16.4691 13.5781 16.6377C13.4551 16.8063 13.3411 16.9749 13.2363 17.1436C13.1315 17.3167 13.0426 17.4876 12.9697 17.6562C12.9014 17.8249 12.8672 17.9889 12.8672 18.1484C12.8672 18.276 12.8854 18.3945 12.9219 18.5039C12.9583 18.6133 13.013 18.7067 13.0859 18.7842C13.1589 18.8662 13.2454 18.93 13.3457 18.9756C13.446 19.0212 13.5622 19.0439 13.6943 19.0439C13.8721 19.0439 14.0407 19.0052 14.2002 18.9277C14.3597 18.8548 14.4987 18.7546 14.6172 18.627C14.7357 18.4993 14.8291 18.3512 14.8975 18.1826C14.9704 18.0186 15.0068 17.8477 15.0068 17.6699C15.0068 17.597 14.9977 17.5195 14.9795 17.4375C14.9658 17.36 14.9385 17.2894 14.8975 17.2256C14.861 17.1618 14.8109 17.1071 14.7471 17.0615C14.6878 17.0205 14.6126 17 14.5215 17C14.403 17 14.3118 17.0479 14.248 17.1436C14.1842 17.2438 14.1523 17.3509 14.1523 17.4648H13.9199C13.9154 17.3646 13.9268 17.2712 13.9541 17.1846C13.986 17.098 14.0293 17.0228 14.084 16.959C14.1387 16.8952 14.2048 16.8473 14.2822 16.8154C14.3597 16.779 14.444 16.7607 14.5352 16.7607C14.6582 16.7607 14.763 16.7881 14.8496 16.8428C14.9408 16.8975 15.0137 16.9681 15.0684 17.0547C15.1276 17.1413 15.1709 17.237 15.1982 17.3418C15.2301 17.4512 15.2461 17.5605 15.2461 17.6699C15.2461 17.8796 15.2074 18.0778 15.1299 18.2646C15.057 18.4515 14.9521 18.6156 14.8154 18.7568C14.6833 18.8981 14.526 19.0098 14.3438 19.0918C14.1615 19.1738 13.9632 19.2148 13.749 19.2148C13.5576 19.2148 13.3708 19.1807 13.1885 19.1123C13.0107 19.0439 12.8535 18.9482 12.7168 18.8252C12.5801 18.7021 12.4707 18.5563 12.3887 18.3877C12.3066 18.2191 12.2656 18.0368 12.2656 17.8408C12.2656 17.6449 12.3021 17.4535 12.375 17.2666C12.4525 17.0798 12.5459 16.902 12.6553 16.7334C12.7692 16.5602 12.89 16.3962 13.0176 16.2412C13.1497 16.0817 13.2705 15.9313 13.3799 15.79C13.4938 15.6488 13.5872 15.5143 13.6602 15.3867C13.7376 15.2591 13.7764 15.1383 13.7764 15.0244C13.7764 14.9424 13.7445 14.8717 13.6807 14.8125C13.6214 14.7533 13.5553 14.694 13.4824 14.6348C13.4095 14.571 13.3411 14.5026 13.2773 14.4297C13.2181 14.3568 13.1885 14.2611 13.1885 14.1426C13.1885 14.056 13.2135 13.9762 13.2637 13.9033C13.3138 13.8258 13.3685 13.7507 13.4277 13.6777C13.4915 13.6048 13.5485 13.5296 13.5986 13.4521C13.6533 13.3747 13.6807 13.2881 13.6807 13.1924C13.6807 13.1058 13.6465 13.0283 13.5781 12.96C13.5143 12.8916 13.4505 12.8301 13.3867 12.7754C13.2044 12.7298 13.0358 12.6592 12.8809 12.5635C12.7305 12.4632 12.6006 12.347 12.4912 12.2148C12.3818 12.0827 12.2952 11.9391 12.2314 11.7842C12.1722 11.6247 12.1426 11.4629 12.1426 11.2988C12.1426 11.0755 12.1859 10.8727 12.2725 10.6904C12.359 10.5036 12.4753 10.3441 12.6211 10.2119C12.7715 10.0752 12.9447 9.97038 13.1406 9.89746C13.3366 9.82454 13.5439 9.78809 13.7627 9.78809C13.8174 9.78809 13.8743 9.79264 13.9336 9.80176C13.9974 9.80632 14.0566 9.81543 14.1113 9.8291C14.0293 9.71973 13.9541 9.58984 13.8857 9.43945C13.8219 9.28451 13.79 9.13639 13.79 8.99512C13.79 8.83105 13.8242 8.68066 13.8926 8.54395C13.9609 8.40267 14.0521 8.28418 14.166 8.18848C14.2845 8.08822 14.4167 8.01074 14.5625 7.95605C14.7083 7.90137 14.861 7.87402 15.0205 7.87402C15.0843 7.87402 15.1481 7.87858 15.2119 7.8877C15.2757 7.89225 15.3395 7.90592 15.4033 7.92871L15.3623 8.12695C15.3304 8.11784 15.2985 8.11328 15.2666 8.11328C15.2347 8.11328 15.2005 8.11328 15.1641 8.11328C15.0091 8.11328 14.8701 8.13835 14.7471 8.18848C14.624 8.23861 14.5192 8.31152 14.4326 8.40723C14.346 8.49837 14.2799 8.60775 14.2344 8.73535C14.1888 8.8584 14.166 8.99512 14.166 9.14551C14.166 9.25944 14.1774 9.38249 14.2002 9.51465C14.2275 9.64681 14.2686 9.77214 14.3232 9.89062C14.4827 9.94076 14.6309 10.0091 14.7676 10.0957C14.9089 10.1823 15.0296 10.2871 15.1299 10.4102C15.2347 10.5286 15.3145 10.6608 15.3691 10.8066C15.4284 10.9525 15.458 11.1074 15.458 11.2715C15.458 11.513 15.4079 11.7318 15.3076 11.9277C15.2119 12.1237 15.082 12.29 14.918 12.4268C14.7585 12.5635 14.5716 12.666 14.3574 12.7344C14.1478 12.8027 13.9268 12.8301 13.6943 12.8164H13.6807ZM13.8174 10.041C13.6396 10.041 13.4915 10.0752 13.373 10.1436C13.2546 10.2074 13.1589 10.2962 13.0859 10.4102C13.0176 10.5195 12.9674 10.6517 12.9355 10.8066C12.9082 10.957 12.8945 11.1165 12.8945 11.2852C12.8945 11.4447 12.9128 11.5996 12.9492 11.75C12.9857 11.8958 13.0426 12.028 13.1201 12.1465C13.1976 12.2604 13.2956 12.3516 13.4141 12.4199C13.5326 12.4883 13.6715 12.5225 13.8311 12.5225C14.0042 12.5225 14.1478 12.486 14.2617 12.4131C14.3757 12.3356 14.4645 12.2376 14.5283 12.1191C14.5967 11.9961 14.6445 11.8571 14.6719 11.7021C14.6992 11.5426 14.7129 11.3809 14.7129 11.2168C14.7129 11.0527 14.6947 10.9001 14.6582 10.7588C14.6263 10.613 14.5739 10.4876 14.501 10.3828C14.4326 10.278 14.3415 10.196 14.2275 10.1367C14.1136 10.0729 13.9769 10.041 13.8174 10.041Z" fill="#131313"/>
</svg>
