<svg width="24" height="24" viewBox="0 0 24 24" fill="none" xmlns="http://www.w3.org/2000/svg">
<path d="M5.22203 17L6.77603 5.80005H10.08L11.634 17H11.207L9.71603 6.13955H7.14003L5.64903 17H5.22203ZM6.91603 17L7.29403 14.256H9.56203L9.94003 17H9.50603L9.22603 14.592H7.63003L7.35003 17H6.91603ZM6.06203 17L7.39203 6.48255H9.46403L10.794 17H10.36L9.96803 13.92H6.88803L6.49603 17H6.06203ZM6.91603 13.584H9.92603L9.55503 10.3465L9.10003 6.82205H7.75603L7.28703 10.3465L6.91603 13.584ZM7.39203 13.248L7.68953 10.3465L8.03603 7.13705H8.82003L9.18053 10.3465L9.46403 13.248H7.39203ZM7.82603 12.912H9.03003L8.79203 10.3465L8.51203 7.48005H8.34403L8.06403 10.3465L7.82603 12.912ZM15.0401 19.828C14.1301 19.828 13.4347 19.6682 12.9541 19.3485C12.4734 19.0312 12.2062 18.5703 12.1526 17.966C12.1432 17.8633 12.1421 17.7583 12.1491 17.651C12.1561 17.546 12.1712 17.4457 12.1946 17.35C12.2412 17.1493 12.3497 16.9673 12.5201 16.804C12.6904 16.6407 12.8946 16.5193 13.1326 16.44V16.356C12.8992 16.2883 12.7184 16.1892 12.5901 16.0585C12.4617 15.9255 12.3766 15.74 12.3346 15.502C12.3252 15.453 12.3206 15.3877 12.3206 15.306C12.3206 15.2243 12.3252 15.1508 12.3346 15.0855C12.3742 14.8148 12.4699 14.6013 12.6216 14.445C12.7756 14.2887 12.9972 14.1603 13.2866 14.06V13.976C13.0252 13.8873 12.7686 13.7042 12.5166 13.4265C12.2669 13.1488 12.1269 12.7673 12.0966 12.282C12.0896 12.1513 12.0837 12.03 12.0791 11.918C12.0767 11.806 12.0756 11.6987 12.0756 11.596C12.0756 11.491 12.0767 11.3883 12.0791 11.288C12.0837 11.1877 12.0896 11.085 12.0966 10.98C12.1502 10.0793 12.4116 9.43422 12.8806 9.04455C13.3519 8.65488 14.0752 8.46005 15.0506 8.46005C15.6409 8.46005 16.0807 8.53822 16.3701 8.69455C16.6594 8.85088 16.8647 9.05738 16.9861 9.31405H17.0701C17.2101 9.08072 17.3979 8.91272 17.6336 8.81005C17.8716 8.70738 18.1084 8.64438 18.3441 8.62105C18.5797 8.59772 18.7652 8.59072 18.9006 8.60005V8.93605C18.3522 8.92438 17.9322 8.98855 17.6406 9.12855C17.3512 9.26622 17.1447 9.48438 17.0211 9.78305H16.9371C16.8437 9.47738 16.6617 9.23705 16.3911 9.06205C16.1204 8.88472 15.6736 8.79605 15.0506 8.79605C14.2222 8.79605 13.6039 8.96638 13.1956 9.30705C12.7896 9.64772 12.5632 10.21 12.5166 10.994C12.5072 11.1503 12.5002 11.2962 12.4956 11.4315C12.4932 11.5668 12.4932 11.7022 12.4956 11.8375C12.5002 11.9705 12.5072 12.114 12.5166 12.268C12.5492 12.7883 12.6857 13.1803 12.9261 13.444C13.1664 13.7053 13.4452 13.8815 13.7626 13.9725V14.0565C13.4219 14.1568 13.1676 14.2875 12.9996 14.4485C12.8316 14.6072 12.7254 14.816 12.6811 15.075C12.6694 15.1473 12.6636 15.222 12.6636 15.299C12.6659 15.3737 12.6717 15.4448 12.6811 15.5125C12.7137 15.7132 12.7942 15.8788 12.9226 16.0095C13.0509 16.1378 13.2422 16.2475 13.4966 16.3385V16.4225C13.2002 16.5462 12.9809 16.6827 12.8386 16.832C12.6962 16.9813 12.5947 17.1528 12.5341 17.3465C12.5037 17.4468 12.4827 17.5495 12.4711 17.6545C12.4617 17.7618 12.4617 17.8633 12.4711 17.959C12.5364 18.505 12.7721 18.904 13.1781 19.156C13.5841 19.408 14.2047 19.534 15.0401 19.534C15.9011 19.534 16.5357 19.408 16.9441 19.156C17.3547 18.9063 17.6079 18.5097 17.7036 17.966C17.7199 17.8773 17.7269 17.7793 17.7246 17.672C17.7246 17.567 17.7164 17.4608 17.7001 17.3535C17.6254 16.8658 17.3897 16.5077 16.9931 16.279C16.5987 16.048 15.9746 15.9243 15.1206 15.908C14.7682 15.901 14.5022 15.8835 14.3226 15.8555C14.1429 15.8252 14.0122 15.782 13.9306 15.726C13.8512 15.67 13.7847 15.6 13.7311 15.516C13.6984 15.4623 13.6774 15.3877 13.6681 15.292C13.6611 15.1963 13.6669 15.1217 13.6856 15.068C13.7742 14.8253 13.9072 14.6702 14.0846 14.6025C14.2619 14.5325 14.5839 14.501 15.0506 14.508C15.8649 14.5197 16.4669 14.3458 16.8566 13.9865C17.2486 13.6272 17.4726 13.0543 17.5286 12.268C17.5402 12.121 17.5484 11.9693 17.5531 11.813C17.5577 11.6543 17.5589 11.4945 17.5566 11.3335C17.5566 11.1702 17.5519 11.0068 17.5426 10.8435C17.5262 10.4982 17.6324 10.2438 17.8611 10.0805C18.0897 9.91722 18.4362 9.84838 18.9006 9.87405V10.21C18.5482 10.1983 18.2939 10.2403 18.1376 10.336C17.9812 10.4293 17.9089 10.5973 17.9206 10.84C17.9299 11.0033 17.9346 11.1678 17.9346 11.3335C17.9369 11.4968 17.9357 11.659 17.9311 11.82C17.9264 11.9787 17.9182 12.1327 17.9066 12.282C17.8412 13.1873 17.5881 13.8407 17.1471 14.242C16.7084 14.6433 16.0096 14.844 15.0506 14.844C14.7846 14.844 14.5874 14.8522 14.4591 14.8685C14.3307 14.8825 14.2409 14.9117 14.1896 14.956C14.1406 15.0003 14.0974 15.068 14.0601 15.159C14.0531 15.1753 14.0484 15.2068 14.0461 15.2535C14.0461 15.3002 14.0577 15.3398 14.0811 15.3725C14.1277 15.4332 14.1756 15.4787 14.2246 15.509C14.2736 15.537 14.3634 15.5557 14.4941 15.565C14.6247 15.5743 14.8347 15.5813 15.1241 15.586C16.0807 15.6 16.7901 15.7435 17.2521 16.0165C17.7164 16.2895 17.9906 16.734 18.0746 17.35C18.0886 17.4503 18.0956 17.5531 18.0956 17.658C18.0956 17.7653 18.0886 17.868 18.0746 17.966C17.9882 18.5797 17.7001 19.0428 17.2101 19.3555C16.7224 19.6705 15.9991 19.828 15.0401 19.828ZM15.0401 18.946C15.5581 18.946 15.9501 18.9017 16.2161 18.813C16.4844 18.7267 16.6722 18.6088 16.7796 18.4595C16.8892 18.3102 16.9651 18.1457 17.0071 17.966C17.0234 17.8983 17.0304 17.8108 17.0281 17.7035C17.0281 17.5962 17.0152 17.476 16.9896 17.343C16.9522 17.1447 16.8589 16.9848 16.7096 16.8635C16.5626 16.7398 16.3572 16.6465 16.0936 16.5835C15.8322 16.5182 15.5091 16.4762 15.1241 16.4575C14.5337 16.4248 14.0857 16.4785 13.7801 16.6185C13.4767 16.7562 13.2632 17.0012 13.1396 17.3535C13.1069 17.4492 13.0871 17.5495 13.0801 17.6545C13.0754 17.7618 13.0812 17.868 13.0976 17.973C13.1582 18.337 13.3437 18.5902 13.6541 18.7325C13.9667 18.8748 14.4287 18.946 15.0401 18.946ZM15.0401 18.666C14.4684 18.666 14.0647 18.6077 13.8291 18.491C13.5957 18.3767 13.4546 18.2017 13.4056 17.966C13.3846 17.8633 13.3787 17.756 13.3881 17.644C13.3974 17.5343 13.4184 17.4363 13.4511 17.35C13.5444 17.1073 13.7136 16.9382 13.9586 16.8425C14.2059 16.7468 14.5991 16.7037 15.1381 16.713C15.4601 16.7177 15.7237 16.7422 15.9291 16.7865C16.1367 16.8308 16.2989 16.8985 16.4156 16.9895C16.5322 17.0805 16.6127 17.1995 16.6571 17.3465C16.6897 17.4468 16.7061 17.5495 16.7061 17.6545C16.7084 17.7595 16.6967 17.861 16.6711 17.959C16.6011 18.2133 16.4459 18.3942 16.2056 18.5015C15.9676 18.6112 15.5791 18.666 15.0401 18.666ZM15.0401 18.358C15.2944 18.358 15.5056 18.3463 15.6736 18.323C15.8439 18.302 15.9781 18.2623 16.0761 18.204C16.1764 18.148 16.2499 18.0687 16.2966 17.966C16.3432 17.8657 16.3654 17.7642 16.3631 17.6615C16.3631 17.5588 16.3362 17.455 16.2826 17.35C16.2452 17.2777 16.1787 17.2193 16.0831 17.175C15.9874 17.1307 15.8602 17.0968 15.7016 17.0735C15.5452 17.0525 15.3527 17.0397 15.1241 17.035C14.6877 17.0233 14.3762 17.0467 14.1896 17.105C14.0052 17.1657 13.8839 17.2438 13.8256 17.3395C13.7602 17.4468 13.7217 17.5531 13.7101 17.658C13.7007 17.7653 13.7182 17.868 13.7626 17.966C13.8256 18.106 13.9504 18.2063 14.1371 18.267C14.3237 18.3277 14.6247 18.358 15.0401 18.358ZM15.0401 19.254C14.2677 19.254 13.7089 19.156 13.3636 18.96C13.0206 18.764 12.8211 18.4373 12.7651 17.98C12.7534 17.875 12.7499 17.7712 12.7546 17.6685C12.7616 17.5658 12.7779 17.4585 12.8036 17.3465C12.8642 17.0852 12.9879 16.8798 13.1746 16.7305C13.3612 16.5812 13.6366 16.4633 14.0006 16.377V16.293C13.7112 16.2533 13.4849 16.1752 13.3216 16.0585C13.1582 15.9418 13.0427 15.7575 12.9751 15.5055C12.9587 15.4378 12.9494 15.3725 12.9471 15.3095C12.9447 15.2465 12.9494 15.1683 12.9611 15.075C12.9984 14.7973 13.1162 14.5803 13.3146 14.424C13.5129 14.2653 13.8162 14.1475 14.2246 14.0705V13.9865C13.8349 13.8792 13.5304 13.6937 13.3111 13.43C13.0917 13.1663 12.9657 12.765 12.9331 12.226C12.9261 12.093 12.9202 11.9647 12.9156 11.841C12.9132 11.7173 12.9132 11.5902 12.9156 11.4595C12.9202 11.3288 12.9272 11.1853 12.9366 11.029C12.9762 10.3523 13.1664 9.86705 13.5071 9.57305C13.8477 9.27905 14.3622 9.13205 15.0506 9.13205C15.6012 9.13205 16.0131 9.22422 16.2861 9.40855C16.5591 9.59055 16.7527 9.89388 16.8671 10.3185H16.9511C17.0677 10.0385 17.2007 9.81922 17.3501 9.66055C17.4994 9.49955 17.6954 9.38638 17.9381 9.32105C18.1831 9.25572 18.5039 9.22305 18.9006 9.22305V9.55905C18.2986 9.53338 17.8459 9.63722 17.5426 9.87055C17.2416 10.1015 17.1086 10.4468 17.1436 10.9065C17.1529 11.0162 17.1576 11.1585 17.1576 11.3335C17.1576 11.5062 17.1564 11.6753 17.1541 11.841C17.1517 12.0067 17.1471 12.1327 17.1401 12.219C17.0887 12.9423 16.8869 13.4533 16.5346 13.752C16.1846 14.0507 15.6899 14.1953 15.0506 14.186C14.8336 14.1813 14.6049 14.2035 14.3646 14.2525C14.1242 14.2992 13.9119 14.382 13.7276 14.501C13.5432 14.6177 13.4231 14.781 13.3671 14.991C13.3484 15.0633 13.3402 15.1497 13.3426 15.25C13.3449 15.3503 13.3542 15.4308 13.3706 15.4915C13.4569 15.7855 13.6366 15.9663 13.9096 16.034C14.1849 16.1017 14.5909 16.1402 15.1276 16.1495C15.5989 16.1565 15.9944 16.2113 16.3141 16.314C16.6361 16.4143 16.8869 16.5532 17.0666 16.7305C17.2462 16.9078 17.3559 17.1155 17.3956 17.3535C17.4142 17.4632 17.4236 17.5717 17.4236 17.679C17.4259 17.7863 17.4177 17.8832 17.3991 17.9695C17.3081 18.4152 17.0771 18.7407 16.7061 18.946C16.3351 19.1513 15.7797 19.254 15.0401 19.254ZM15.0506 13.808C15.5872 13.808 15.9909 13.6832 16.2616 13.4335C16.5346 13.1815 16.6921 12.7673 16.7341 12.191C16.7434 12.0813 16.7492 11.9647 16.7516 11.841C16.7562 11.715 16.7586 11.5855 16.7586 11.4525C16.7586 11.3172 16.7551 11.1818 16.7481 11.0465C16.7177 10.4375 16.5521 10.0222 16.2511 9.80055C15.9524 9.57888 15.5522 9.46805 15.0506 9.46805C14.5046 9.46805 14.0939 9.59172 13.8186 9.83905C13.5432 10.084 13.3881 10.49 13.3531 11.057C13.3414 11.246 13.3356 11.442 13.3356 11.645C13.3379 11.8457 13.3437 12.0323 13.3531 12.205C13.3857 12.7533 13.5397 13.1582 13.8151 13.4195C14.0927 13.6785 14.5046 13.808 15.0506 13.808ZM15.0506 13.472C14.6492 13.472 14.3424 13.3728 14.1301 13.1745C13.9201 12.9738 13.8011 12.6425 13.7731 12.1805C13.7614 11.9752 13.7556 11.7862 13.7556 11.6135C13.7579 11.4385 13.7637 11.2635 13.7731 11.0885C13.8011 10.6288 13.9201 10.2998 14.1301 10.1015C14.3401 9.90322 14.6469 9.80405 15.0506 9.80405C15.4589 9.80405 15.7681 9.90205 15.9781 10.098C16.1881 10.2917 16.3047 10.6137 16.3281 11.064C16.3351 11.183 16.3386 11.302 16.3386 11.421C16.3386 11.54 16.3362 11.6613 16.3316 11.785C16.3292 11.9087 16.3234 12.0382 16.3141 12.1735C16.2814 12.6355 16.1601 12.968 15.9501 13.171C15.7401 13.3717 15.4402 13.472 15.0506 13.472ZM15.0506 13.136C15.2956 13.136 15.4904 13.0613 15.6351 12.912C15.7821 12.7603 15.8684 12.5013 15.8941 12.135C15.9034 12.016 15.9092 11.904 15.9116 11.799C15.9162 11.6917 15.9186 11.5808 15.9186 11.4665C15.9186 11.3522 15.9151 11.225 15.9081 11.085C15.8917 10.7467 15.8101 10.5052 15.6631 10.3605C15.5184 10.2135 15.3142 10.14 15.0506 10.14C14.7892 10.14 14.5862 10.2147 14.4416 10.364C14.2969 10.5133 14.2141 10.7607 14.1931 11.106C14.1837 11.288 14.1779 11.4607 14.1756 11.624C14.1756 11.785 14.1814 11.9623 14.1931 12.156C14.2141 12.506 14.2969 12.7568 14.4416 12.9085C14.5862 13.0602 14.7892 13.136 15.0506 13.136Z" fill="#131313"/>
</svg>
