<svg width="24" height="24" viewBox="0 0 24 24" fill="none" xmlns="http://www.w3.org/2000/svg">
<path d="M6.32459 17L7.60909 5.80005H9.73709L11.0216 17H10.7731L9.52009 6.00305H7.82259L6.57309 17H6.32459ZM7.30809 17L7.66859 13.7415H9.67759L10.0346 17H9.78609L9.47809 13.9445H7.86809L7.56009 17H7.30809ZM6.81459 17L7.97309 6.20955H9.36959L10.5316 17H10.2796L9.90859 13.542H7.43759L7.06659 17H6.81459ZM7.45159 13.3425H9.88759L9.57259 10.273L9.15609 6.40905H8.19009L7.76659 10.273L7.45159 13.3425ZM7.72459 13.1395L8.00109 10.273L8.36159 6.60155H8.98459L9.35209 10.273L9.62159 13.1395H7.72459ZM7.98359 12.94H9.36259L9.12109 10.273L8.79909 6.80455H8.54709L8.22159 10.273L7.98359 12.94ZM13.9588 19.408C13.2751 19.408 12.7396 19.289 12.3523 19.051C11.9673 18.8153 11.7608 18.4338 11.7328 17.9065C11.7281 17.8295 11.7269 17.756 11.7293 17.686C11.7339 17.6183 11.7409 17.5542 11.7503 17.4935C11.7759 17.2532 11.8704 17.0478 12.0338 16.8775C12.1971 16.7048 12.3919 16.5905 12.6183 16.5345V16.4855C12.3919 16.4085 12.2321 16.3047 12.1388 16.174C12.0454 16.041 11.9894 15.887 11.9708 15.712C11.9661 15.6677 11.9638 15.6233 11.9638 15.579C11.9638 15.5347 11.9661 15.4892 11.9708 15.4425C11.9918 15.2255 12.0641 15.0435 12.1878 14.8965C12.3114 14.7495 12.4888 14.6352 12.7198 14.5535V14.4975C12.4911 14.4088 12.2916 14.2478 12.1213 14.0145C11.9509 13.7812 11.8576 13.465 11.8413 13.066C11.8319 12.8443 11.8249 12.6308 11.8203 12.4255C11.8156 12.2178 11.8133 12.0102 11.8133 11.8025C11.8133 11.5925 11.8156 11.3743 11.8203 11.148C11.8249 10.9217 11.8319 10.679 11.8413 10.42C11.8716 9.72705 12.0536 9.23355 12.3873 8.93955C12.7233 8.64322 13.2483 8.49505 13.9623 8.49505C14.4383 8.49505 14.7894 8.56388 15.0158 8.70155C15.2421 8.83922 15.4031 9.03405 15.4988 9.28605H15.5478C15.6411 9.10638 15.7706 8.96638 15.9363 8.86605C16.1043 8.76572 16.2781 8.69572 16.4578 8.65605C16.6398 8.61405 16.7961 8.59538 16.9268 8.60005V8.79955C16.5231 8.79955 16.2069 8.87538 15.9783 9.02705C15.7519 9.17638 15.5991 9.37122 15.5198 9.61155H15.4708C15.3984 9.31055 15.2538 9.08305 15.0368 8.92905C14.8198 8.77272 14.4616 8.69455 13.9623 8.69455C13.3159 8.69455 12.8481 8.83105 12.5588 9.10405C12.2718 9.37472 12.1143 9.81338 12.0863 10.42C12.0746 10.7257 12.0664 11.0127 12.0618 11.281C12.0571 11.5493 12.0559 11.8258 12.0583 12.1105C12.0629 12.3928 12.0711 12.7102 12.0828 13.0625C12.1038 13.4965 12.2029 13.8267 12.3803 14.053C12.5576 14.2793 12.7828 14.4263 13.0558 14.494V14.5535C12.7711 14.6282 12.5588 14.7402 12.4188 14.8895C12.2811 15.0365 12.2006 15.2185 12.1773 15.4355C12.1703 15.4798 12.1668 15.5253 12.1668 15.572C12.1691 15.6187 12.1726 15.6677 12.1773 15.719C12.1936 15.8917 12.2531 16.0433 12.3558 16.174C12.4608 16.3047 12.6451 16.4062 12.9088 16.4785V16.5275C12.6311 16.5998 12.4106 16.7153 12.2473 16.874C12.0839 17.0303 11.9859 17.2368 11.9533 17.4935C11.9416 17.5635 11.9323 17.6288 11.9253 17.6895C11.9206 17.7502 11.9206 17.8225 11.9253 17.9065C11.9603 18.3965 12.1493 18.7395 12.4923 18.9355C12.8353 19.1338 13.3241 19.233 13.9588 19.233C14.6051 19.233 15.0998 19.135 15.4428 18.939C15.7881 18.743 15.9876 18.3988 16.0413 17.9065C16.0483 17.8342 16.0506 17.7653 16.0483 17.7C16.0483 17.6347 16.0448 17.5647 16.0378 17.49C15.9958 17.0187 15.8068 16.6967 15.4708 16.524C15.1348 16.3513 14.6448 16.2545 14.0008 16.2335C13.6974 16.2218 13.4641 16.195 13.3008 16.153C13.1398 16.111 13.0231 16.0538 12.9508 15.9815C12.8784 15.9068 12.8271 15.8182 12.7968 15.7155C12.7828 15.6712 12.7734 15.6233 12.7688 15.572C12.7664 15.5183 12.7688 15.4728 12.7758 15.4355C12.8224 15.2045 12.9228 15.0412 13.0768 14.9455C13.2331 14.8475 13.5283 14.8008 13.9623 14.8055C14.5526 14.8102 14.9994 14.683 15.3028 14.424C15.6084 14.165 15.7776 13.717 15.8103 13.08C15.8243 12.765 15.8336 12.4722 15.8383 12.2015C15.8429 11.9285 15.8429 11.6497 15.8383 11.365C15.8359 11.0803 15.8301 10.7607 15.8208 10.406C15.8138 10.0887 15.9001 9.83322 16.0798 9.63955C16.2594 9.44355 16.5418 9.35255 16.9268 9.36655V9.56955C16.6164 9.56255 16.3901 9.63255 16.2478 9.77955C16.1078 9.92655 16.0413 10.1633 16.0483 10.49C16.0553 10.8073 16.0599 11.106 16.0623 11.386C16.0646 11.6637 16.0634 11.9402 16.0588 12.2155C16.0564 12.4885 16.0483 12.7743 16.0343 13.073C15.9946 13.7637 15.8149 14.2583 15.4953 14.557C15.1756 14.8533 14.6646 15.0027 13.9623 15.005C13.6916 15.005 13.4909 15.0225 13.3603 15.0575C13.2296 15.0925 13.1409 15.145 13.0943 15.215C13.0499 15.285 13.0173 15.3737 12.9963 15.481C12.9939 15.4973 12.9928 15.5218 12.9928 15.5545C12.9928 15.5872 12.9974 15.6175 13.0068 15.6455C13.0301 15.7365 13.0698 15.81 13.1258 15.866C13.1818 15.9197 13.2763 15.9593 13.4093 15.985C13.5446 16.0107 13.7418 16.0282 14.0008 16.0375C14.7194 16.0608 15.2631 16.174 15.6318 16.377C16.0028 16.5777 16.2116 16.9498 16.2583 17.4935C16.2653 17.5752 16.2688 17.644 16.2688 17.7C16.2688 17.7583 16.2653 17.8272 16.2583 17.9065C16.2116 18.4315 15.9958 18.813 15.6108 19.051C15.2281 19.289 14.6774 19.408 13.9588 19.408ZM13.9588 18.876C14.3414 18.876 14.6518 18.8433 14.8898 18.778C15.1278 18.7127 15.3051 18.6088 15.4218 18.4665C15.5384 18.3242 15.6073 18.1375 15.6283 17.9065C15.6353 17.8435 15.6376 17.7793 15.6353 17.714C15.6353 17.651 15.6294 17.5763 15.6178 17.49C15.5968 17.252 15.5198 17.0712 15.3868 16.9475C15.2561 16.8215 15.0741 16.7317 14.8408 16.678C14.6074 16.6243 14.3274 16.5882 14.0008 16.5695C13.4874 16.5368 13.0954 16.5928 12.8248 16.7375C12.5564 16.8822 12.3908 17.133 12.3278 17.49C12.3114 17.56 12.3009 17.6277 12.2963 17.693C12.2939 17.7607 12.2963 17.8342 12.3033 17.9135C12.3359 18.2962 12.4934 18.5517 12.7758 18.68C13.0604 18.8107 13.4548 18.876 13.9588 18.876ZM13.9588 18.7045C13.4944 18.7045 13.1409 18.6508 12.8983 18.5435C12.6579 18.4362 12.5249 18.225 12.4993 17.91C12.4899 17.8423 12.4864 17.7712 12.4888 17.6965C12.4934 17.6218 12.5016 17.5518 12.5133 17.4865C12.5599 17.1692 12.7069 16.9592 12.9543 16.8565C13.2039 16.7538 13.5563 16.7095 14.0113 16.7235C14.2959 16.7328 14.5374 16.7573 14.7358 16.797C14.9364 16.8367 15.0951 16.909 15.2118 17.014C15.3284 17.1213 15.3973 17.28 15.4183 17.49C15.4323 17.5717 15.4393 17.644 15.4393 17.707C15.4393 17.77 15.4346 17.8377 15.4253 17.91C15.3879 18.232 15.2468 18.4443 15.0018 18.547C14.7591 18.652 14.4114 18.7045 13.9588 18.7045ZM13.9588 18.519C14.1991 18.519 14.4068 18.505 14.5818 18.477C14.7591 18.4513 14.9003 18.3942 15.0053 18.3055C15.1103 18.2192 15.1744 18.0885 15.1978 17.9135C15.2164 17.8388 15.2246 17.7688 15.2223 17.7035C15.2223 17.6382 15.2118 17.5682 15.1908 17.4935C15.1721 17.3278 15.1114 17.2053 15.0088 17.126C14.9084 17.0467 14.7719 16.9942 14.5993 16.9685C14.4289 16.9405 14.2294 16.9218 14.0008 16.9125C13.6041 16.8962 13.2996 16.9277 13.0873 17.007C12.8773 17.0887 12.7594 17.2485 12.7338 17.4865C12.7081 17.5542 12.6929 17.6253 12.6883 17.7C12.6859 17.777 12.6941 17.8482 12.7128 17.9135C12.7454 18.1702 12.8668 18.3347 13.0768 18.407C13.2868 18.4817 13.5808 18.519 13.9588 18.519ZM13.9588 19.0615C13.3661 19.0615 12.9158 18.9798 12.6078 18.8165C12.3021 18.6555 12.1341 18.3545 12.1038 17.9135C12.0968 17.8342 12.0956 17.7618 12.1003 17.6965C12.1049 17.6312 12.1131 17.5623 12.1248 17.49C12.1574 17.2077 12.2636 16.9883 12.4433 16.832C12.6229 16.6757 12.8878 16.5695 13.2378 16.5135V16.4645C12.9414 16.4155 12.7279 16.3292 12.5973 16.2055C12.4689 16.0795 12.3884 15.9162 12.3558 15.7155C12.3488 15.6618 12.3441 15.6163 12.3418 15.579C12.3418 15.5417 12.3441 15.4938 12.3488 15.4355C12.3628 15.2068 12.4619 15.0143 12.6463 14.858C12.8306 14.7017 13.0779 14.5978 13.3883 14.5465V14.494C13.0499 14.4217 12.7933 14.2747 12.6183 14.053C12.4456 13.8313 12.3488 13.4953 12.3278 13.045C12.3184 12.7837 12.3114 12.5188 12.3068 12.2505C12.3021 11.9798 12.3009 11.6963 12.3033 11.4C12.3079 11.1013 12.3161 10.7805 12.3278 10.4375C12.3534 9.86588 12.4981 9.46572 12.7618 9.23705C13.0278 9.00838 13.4279 8.89405 13.9623 8.89405C14.4313 8.89405 14.7743 8.97922 14.9913 9.14955C15.2106 9.31755 15.3576 9.59522 15.4323 9.98255H15.4813C15.5489 9.75155 15.6411 9.56255 15.7578 9.41555C15.8768 9.26855 16.0319 9.15888 16.2233 9.08655C16.4146 9.01422 16.6491 8.97688 16.9268 8.97455V9.17755C16.4858 9.16822 16.1463 9.27672 15.9083 9.50305C15.6726 9.72705 15.5653 10.0478 15.5863 10.4655C15.5979 10.7735 15.6049 11.078 15.6073 11.379C15.6096 11.6777 15.6084 11.967 15.6038 12.247C15.6014 12.5247 15.5944 12.7883 15.5828 13.038C15.5524 13.6377 15.3996 14.0518 15.1243 14.2805C14.8489 14.5068 14.4616 14.6177 13.9623 14.613C13.7126 14.6107 13.4886 14.6398 13.2903 14.7005C13.0943 14.7612 12.9344 14.8498 12.8108 14.9665C12.6894 15.0832 12.6148 15.2255 12.5868 15.3935C12.5774 15.4448 12.5728 15.4985 12.5728 15.5545C12.5728 15.6105 12.5774 15.6618 12.5868 15.7085C12.6311 15.9372 12.7559 16.1028 12.9613 16.2055C13.1689 16.3082 13.5154 16.3677 14.0008 16.384C14.3811 16.3933 14.7043 16.4353 14.9703 16.51C15.2386 16.5847 15.4474 16.7013 15.5968 16.86C15.7461 17.0163 15.8313 17.2275 15.8523 17.4935C15.8616 17.5705 15.8663 17.6393 15.8663 17.7C15.8686 17.7607 15.8651 17.8307 15.8558 17.91C15.8091 18.3417 15.6259 18.6415 15.3063 18.8095C14.9889 18.9775 14.5398 19.0615 13.9588 19.0615ZM13.9623 14.389C14.4149 14.389 14.7521 14.2875 14.9738 14.0845C15.1978 13.8815 15.3226 13.528 15.3483 13.024C15.3576 12.7907 15.3646 12.5363 15.3693 12.261C15.3739 11.9857 15.3751 11.6952 15.3728 11.3895C15.3728 11.0838 15.3669 10.77 15.3553 10.448C15.3343 9.93705 15.2059 9.58472 14.9703 9.39105C14.7369 9.19505 14.4009 9.09705 13.9623 9.09705C13.4956 9.09705 13.1526 9.19972 12.9333 9.40505C12.7163 9.60805 12.5961 9.95805 12.5728 10.455C12.5541 10.917 12.5448 11.3638 12.5448 11.7955C12.5471 12.2272 12.5564 12.639 12.5728 13.031C12.5961 13.514 12.7174 13.8617 12.9368 14.074C13.1584 14.284 13.5003 14.389 13.9623 14.389ZM13.9623 14.1895C13.5959 14.1895 13.3183 14.1055 13.1292 13.9375C12.9403 13.7672 12.8364 13.4615 12.8178 13.0205C12.8014 12.6215 12.7933 12.1992 12.7933 11.7535C12.7933 11.3078 12.8014 10.8785 12.8178 10.4655C12.8364 10.0268 12.9379 9.72238 13.1223 9.55205C13.3066 9.38172 13.5866 9.29655 13.9623 9.29655C14.3496 9.29655 14.6331 9.38288 14.8128 9.55555C14.9924 9.72588 15.0916 10.0257 15.1103 10.455C15.1219 10.7583 15.1289 11.0582 15.1313 11.3545C15.1336 11.6485 15.1324 11.9343 15.1278 12.212C15.1231 12.4897 15.1149 12.7568 15.1033 13.0135C15.0799 13.4498 14.9773 13.7555 14.7953 13.9305C14.6133 14.1032 14.3356 14.1895 13.9623 14.1895ZM13.9623 13.9865C14.2563 13.9865 14.4744 13.9142 14.6168 13.7695C14.7591 13.6248 14.8396 13.367 14.8583 12.996C14.8699 12.7417 14.8781 12.4745 14.8828 12.1945C14.8874 11.9145 14.8886 11.6287 14.8863 11.337C14.8839 11.0453 14.8769 10.756 14.8653 10.469C14.8513 10.1027 14.7731 9.84955 14.6308 9.70955C14.4884 9.56955 14.2656 9.49955 13.9623 9.49955C13.6659 9.49955 13.4454 9.57072 13.3008 9.71305C13.1561 9.85305 13.0756 10.1085 13.0593 10.4795C13.0453 10.8925 13.0371 11.316 13.0348 11.75C13.0348 12.1817 13.0429 12.6005 13.0593 13.0065C13.0756 13.3798 13.1573 13.6365 13.3043 13.7765C13.4536 13.9165 13.6729 13.9865 13.9623 13.9865Z" fill="#131313"/>
</svg>
