<svg width="24" height="24" viewBox="0 0 24 24" fill="none" xmlns="http://www.w3.org/2000/svg">
<path d="M7.35195 17L8.54545 5.80005H10.2814L11.4749 17H11.2859L10.1169 5.95755H8.70995L7.54095 17H7.35195ZM8.10095 17L8.45095 13.57H10.3759L10.7259 17H10.5369L10.2219 13.7275H8.60495L8.28995 17H8.10095ZM7.72295 17L8.82895 6.11505H9.99795L11.1039 17H10.9114L10.5474 13.416H8.27945L7.91545 17H7.72295ZM8.28995 13.2585H10.5334L10.2359 10.2485L9.83345 6.27255H8.99345L8.58395 10.2485L8.28995 13.2585ZM8.49645 13.1045L8.76595 10.2485L9.12995 6.42305H9.69695L10.0679 10.2485L10.3339 13.1045H8.49645ZM8.69595 12.947H10.1344L9.89295 10.2485L9.54995 6.58055H9.27695L8.93395 10.2485L8.69595 12.947ZM14.2661 19.268C13.6571 19.268 13.1753 19.163 12.8206 18.953C12.4683 18.743 12.2828 18.3872 12.2641 17.8855C12.2594 17.8155 12.2583 17.7525 12.2606 17.6965C12.2629 17.6428 12.2664 17.5903 12.2711 17.539C12.2874 17.2893 12.3761 17.077 12.5371 16.902C12.7004 16.727 12.8929 16.615 13.1146 16.566V16.5275C12.8929 16.4505 12.7401 16.3467 12.6561 16.216C12.5744 16.083 12.5278 15.9383 12.5161 15.782C12.5138 15.74 12.5126 15.7027 12.5126 15.67C12.5126 15.6373 12.5138 15.6012 12.5161 15.5615C12.5324 15.3632 12.5978 15.1917 12.7121 15.047C12.8264 14.9023 12.9898 14.7927 13.2021 14.718V14.669C12.9828 14.5827 12.8019 14.431 12.6596 14.214C12.5173 13.9947 12.4391 13.6995 12.4251 13.3285C12.4158 13.0742 12.4088 12.828 12.4041 12.59C12.3994 12.352 12.3971 12.1117 12.3971 11.869C12.3971 11.6263 12.3994 11.3708 12.4041 11.1025C12.4088 10.8342 12.4158 10.5437 12.4251 10.231C12.4484 9.60805 12.6048 9.16472 12.8941 8.90105C13.1834 8.63738 13.6419 8.50555 14.2696 8.50555C14.7059 8.50555 15.0268 8.57088 15.2321 8.70155C15.4374 8.83222 15.5833 9.02472 15.6696 9.27905H15.7081C15.7874 9.11805 15.8983 8.98738 16.0406 8.88705C16.1853 8.78438 16.3381 8.71088 16.4991 8.66655C16.6624 8.61988 16.8094 8.59772 16.9401 8.60005V8.75755C16.5808 8.75988 16.2973 8.83805 16.0896 8.99205C15.8843 9.14605 15.7501 9.33388 15.6871 9.55555H15.6486C15.5856 9.25455 15.4538 9.03055 15.2531 8.88355C15.0548 8.73422 14.7269 8.65955 14.2696 8.65955C13.6839 8.65955 13.2663 8.78438 13.0166 9.03405C12.7669 9.28138 12.6316 9.67922 12.6106 10.2275C12.6013 10.5822 12.5931 10.917 12.5861 11.232C12.5814 11.5447 12.5803 11.8678 12.5826 12.2015C12.5849 12.5352 12.5943 12.9108 12.6106 13.3285C12.6269 13.7322 12.7121 14.0413 12.8661 14.256C13.0224 14.4707 13.2301 14.6083 13.4891 14.669V14.718C13.2231 14.7833 13.0248 14.8883 12.8941 15.033C12.7658 15.1777 12.6934 15.3515 12.6771 15.5545C12.6748 15.5895 12.6736 15.6257 12.6736 15.663C12.6736 15.7003 12.6748 15.7412 12.6771 15.7855C12.6888 15.9512 12.7424 16.0993 12.8381 16.23C12.9338 16.3607 13.1146 16.4587 13.3806 16.524V16.5625C13.1123 16.6185 12.8918 16.727 12.7191 16.888C12.5488 17.0467 12.4519 17.2648 12.4286 17.5425C12.4216 17.6032 12.4158 17.6557 12.4111 17.7C12.4088 17.7467 12.4099 17.8085 12.4146 17.8855C12.4379 18.3615 12.6106 18.6882 12.9326 18.8655C13.2546 19.0428 13.6991 19.1315 14.2661 19.1315C14.8424 19.1315 15.2916 19.0428 15.6136 18.8655C15.9356 18.6882 16.1153 18.3615 16.1526 17.8855C16.1596 17.8178 16.1619 17.7583 16.1596 17.707C16.1596 17.6557 16.1561 17.5973 16.1491 17.532C16.1188 17.0677 15.9449 16.7585 15.6276 16.6045C15.3126 16.4505 14.8681 16.363 14.2941 16.342C14.0094 16.3303 13.7878 16.3012 13.6291 16.2545C13.4728 16.2078 13.3596 16.1448 13.2896 16.0655C13.2196 15.9862 13.1741 15.8917 13.1531 15.782C13.1438 15.7423 13.1379 15.7038 13.1356 15.6665C13.1356 15.6268 13.1379 15.5907 13.1426 15.558C13.1753 15.3317 13.2651 15.1648 13.4121 15.0575C13.5614 14.9502 13.8473 14.8988 14.2696 14.9035C14.7853 14.9082 15.1796 14.7973 15.4526 14.571C15.7279 14.3447 15.8784 13.9375 15.9041 13.3495C15.9204 12.9785 15.9298 12.6378 15.9321 12.3275C15.9368 12.0172 15.9379 11.6998 15.9356 11.3755C15.9333 11.0488 15.9274 10.6767 15.9181 10.259C15.9111 9.95105 15.9893 9.69555 16.1526 9.49255C16.3159 9.28722 16.5784 9.18922 16.9401 9.19855V9.35255C16.6438 9.35022 16.4268 9.43072 16.2891 9.59405C16.1514 9.75738 16.0849 10.0175 16.0896 10.3745C16.0966 10.7432 16.1013 11.0862 16.1036 11.4035C16.1059 11.7208 16.1059 12.0358 16.1036 12.3485C16.1013 12.6588 16.0919 12.9878 16.0756 13.3355C16.0476 13.9562 15.8936 14.3983 15.6136 14.662C15.3336 14.9233 14.8856 15.0563 14.2696 15.061C13.9943 15.061 13.7913 15.082 13.6606 15.124C13.5299 15.1637 13.4424 15.2232 13.3981 15.3025C13.3538 15.3795 13.3246 15.4752 13.3106 15.5895C13.3083 15.6058 13.3071 15.628 13.3071 15.656C13.3094 15.6817 13.3129 15.7085 13.3176 15.7365C13.3339 15.8368 13.3713 15.9185 13.4296 15.9815C13.4879 16.0445 13.5848 16.0923 13.7201 16.125C13.8554 16.1577 14.0468 16.1798 14.2941 16.1915C14.9334 16.2148 15.4223 16.3163 15.7606 16.496C16.0989 16.6733 16.2856 17.021 16.3206 17.539C16.3253 17.6183 16.3276 17.6778 16.3276 17.7175C16.3276 17.7572 16.3253 17.8132 16.3206 17.8855C16.2879 18.3825 16.0966 18.7372 15.7466 18.9495C15.3989 19.1618 14.9054 19.268 14.2661 19.268ZM14.2661 18.8515C14.6044 18.8515 14.8868 18.8223 15.1131 18.764C15.3418 18.7057 15.5156 18.6065 15.6346 18.4665C15.7536 18.3265 15.8201 18.134 15.8341 17.889C15.8388 17.8237 15.8399 17.7665 15.8376 17.7175C15.8376 17.6685 15.8341 17.609 15.8271 17.539C15.8108 17.287 15.7396 17.098 15.6136 16.972C15.4876 16.846 15.3126 16.7585 15.0886 16.7095C14.8669 16.6582 14.6021 16.6232 14.2941 16.6045C13.8064 16.5742 13.4331 16.6325 13.1741 16.7795C12.9174 16.9242 12.7681 17.1762 12.7261 17.5355C12.7168 17.5985 12.7098 17.6557 12.7051 17.707C12.7028 17.7607 12.7028 17.8225 12.7051 17.8925C12.7284 18.2822 12.8766 18.5388 13.1496 18.6625C13.4249 18.7885 13.7971 18.8515 14.2661 18.8515ZM14.2661 18.7185C13.8368 18.7185 13.5008 18.666 13.2581 18.561C13.0154 18.456 12.8836 18.2332 12.8626 17.8925C12.8579 17.8365 12.8556 17.777 12.8556 17.714C12.8579 17.651 12.8626 17.5892 12.8696 17.5285C12.8999 17.1878 13.0399 16.965 13.2896 16.86C13.5393 16.755 13.8776 16.7107 14.3046 16.727C14.5753 16.7387 14.8098 16.7643 15.0081 16.804C15.2064 16.8413 15.3628 16.9148 15.4771 17.0245C15.5938 17.1365 15.6591 17.308 15.6731 17.539C15.6824 17.6137 15.6859 17.6755 15.6836 17.7245C15.6836 17.7758 15.6813 17.8318 15.6766 17.8925C15.6533 18.2378 15.5179 18.4618 15.2706 18.5645C15.0256 18.6672 14.6908 18.7185 14.2661 18.7185ZM14.2661 18.575C14.5018 18.575 14.7083 18.5598 14.8856 18.5295C15.0653 18.5015 15.2088 18.4385 15.3161 18.3405C15.4234 18.2425 15.4853 18.0932 15.5016 17.8925C15.5109 17.8295 15.5144 17.7712 15.5121 17.7175C15.5098 17.6638 15.5039 17.6043 15.4946 17.539C15.4829 17.343 15.4246 17.1995 15.3196 17.1085C15.2169 17.0175 15.0769 16.958 14.8996 16.93C14.7246 16.8997 14.5228 16.881 14.2941 16.874C13.9114 16.8553 13.6093 16.8903 13.3876 16.979C13.1683 17.0653 13.0516 17.252 13.0376 17.539C13.0259 17.5903 13.0189 17.6487 13.0166 17.714C13.0166 17.7793 13.0213 17.8388 13.0306 17.8925C13.0516 18.1912 13.1718 18.379 13.3911 18.456C13.6104 18.5353 13.9021 18.575 14.2661 18.575ZM14.2661 18.995C13.7341 18.995 13.3199 18.9203 13.0236 18.771C12.7296 18.6217 12.5721 18.3277 12.5511 17.889C12.5464 17.819 12.5464 17.7572 12.5511 17.7035C12.5558 17.6522 12.5604 17.5973 12.5651 17.539C12.5908 17.2497 12.6911 17.0257 12.8661 16.867C13.0434 16.706 13.3048 16.6033 13.6501 16.559V16.5205C13.3514 16.4692 13.1438 16.3805 13.0271 16.2545C12.9104 16.1262 12.8404 15.9698 12.8171 15.7855C12.8148 15.7365 12.8124 15.698 12.8101 15.67C12.8101 15.642 12.8113 15.6035 12.8136 15.5545C12.8183 15.3422 12.9104 15.159 13.0901 15.005C13.2721 14.8487 13.5008 14.7483 13.7761 14.704V14.6655C13.4541 14.6048 13.2138 14.4707 13.0551 14.263C12.8988 14.0553 12.8124 13.7403 12.7961 13.318C12.7844 13.0147 12.7763 12.7043 12.7716 12.387C12.7669 12.0673 12.7658 11.7313 12.7681 11.379C12.7728 11.0267 12.7821 10.6475 12.7961 10.2415C12.8148 9.70255 12.9443 9.33038 13.1846 9.12505C13.4249 8.91972 13.7866 8.81705 14.2696 8.81705C14.7106 8.81705 15.0303 8.89872 15.2286 9.06205C15.4293 9.22538 15.5599 9.49488 15.6206 9.87055H15.6591C15.7104 9.65588 15.7898 9.47738 15.8971 9.33505C16.0044 9.19038 16.1444 9.08072 16.3171 9.00605C16.4898 8.93138 16.6974 8.89405 16.9401 8.89405V9.04805C16.5481 9.04572 16.2448 9.15655 16.0301 9.38055C15.8178 9.60222 15.7186 9.91488 15.7326 10.3185C15.7466 10.6942 15.7548 11.0523 15.7571 11.393C15.7618 11.7337 15.7618 12.0627 15.7571 12.38C15.7548 12.6973 15.7466 13.0077 15.7326 13.311C15.7069 13.871 15.5693 14.2537 15.3196 14.459C15.0723 14.662 14.7223 14.7612 14.2696 14.7565C14.0083 14.7542 13.7854 14.7857 13.6011 14.851C13.4191 14.9163 13.2768 15.0073 13.1741 15.124C13.0738 15.2383 13.0143 15.3725 12.9956 15.5265C12.9909 15.5732 12.9874 15.6163 12.9851 15.656C12.9851 15.6957 12.9886 15.7365 12.9956 15.7785C13.0259 15.9862 13.1321 16.1483 13.3141 16.265C13.4984 16.3793 13.8251 16.4447 14.2941 16.461C14.6441 16.4727 14.9428 16.5112 15.1901 16.5765C15.4398 16.6418 15.6346 16.7503 15.7746 16.902C15.9146 17.0537 15.9916 17.266 16.0056 17.539C16.0103 17.6043 16.0126 17.6592 16.0126 17.7035C16.0149 17.7502 16.0138 17.812 16.0091 17.889C15.9764 18.316 15.8096 18.6065 15.5086 18.7605C15.2076 18.9168 14.7934 18.995 14.2661 18.995ZM14.2696 14.5815C14.6943 14.5815 15.0093 14.4882 15.2146 14.3015C15.4199 14.1148 15.5331 13.7823 15.5541 13.304C15.5658 13.0263 15.5728 12.7253 15.5751 12.401C15.5798 12.0767 15.5809 11.7337 15.5786 11.372C15.5786 11.008 15.5716 10.6335 15.5576 10.2485C15.5413 9.77022 15.4269 9.43772 15.2146 9.25105C15.0023 9.06438 14.6873 8.97105 14.2696 8.97105C13.8286 8.97105 13.5078 9.06672 13.3071 9.25805C13.1088 9.44705 13.0003 9.77838 12.9816 10.252C12.9606 10.8073 12.9501 11.3393 12.9501 11.848C12.9524 12.3543 12.9629 12.8408 12.9816 13.3075C13.0003 13.7695 13.1099 14.0973 13.3106 14.291C13.5136 14.4847 13.8333 14.5815 14.2696 14.5815ZM14.2696 14.4275C13.9149 14.4275 13.6466 14.3482 13.4646 14.1895C13.2826 14.0308 13.1834 13.7345 13.1671 13.3005C13.1484 12.8362 13.1391 12.3368 13.1391 11.8025C13.1391 11.2658 13.1484 10.7513 13.1671 10.259C13.1811 9.82505 13.2768 9.52872 13.4541 9.37005C13.6314 9.20905 13.9033 9.12855 14.2696 9.12855C14.6499 9.12855 14.9241 9.21022 15.0921 9.37355C15.2624 9.53688 15.3558 9.82972 15.3721 10.252C15.3861 10.616 15.3943 10.9753 15.3966 11.33C15.3989 11.6847 15.3978 12.0265 15.3931 12.3555C15.3884 12.6845 15.3803 12.9972 15.3686 13.2935C15.3499 13.7228 15.2531 14.0192 15.0781 14.1825C14.9054 14.3458 14.6359 14.4275 14.2696 14.4275ZM14.2696 14.27C14.5799 14.27 14.8051 14.1988 14.9451 14.0565C15.0851 13.9118 15.1644 13.654 15.1831 13.283C15.1948 12.9843 15.2029 12.6658 15.2076 12.3275C15.2123 11.9892 15.2134 11.645 15.2111 11.295C15.2088 10.9427 15.2006 10.5985 15.1866 10.2625C15.1726 9.88688 15.0944 9.63022 14.9521 9.49255C14.8121 9.35255 14.5846 9.28255 14.2696 9.28255C13.9593 9.28255 13.7318 9.35255 13.5871 9.49255C13.4448 9.63255 13.3666 9.89155 13.3526 10.2695C13.3339 10.7595 13.3246 11.267 13.3246 11.792C13.3246 12.3147 13.3339 12.814 13.3526 13.29C13.3666 13.6703 13.4483 13.9293 13.5976 14.067C13.7469 14.2023 13.9709 14.27 14.2696 14.27Z" fill="#131313"/>
</svg>
