<svg width="24" height="24" viewBox="0 0 24 24" fill="none" xmlns="http://www.w3.org/2000/svg">
<path d="M6.81339 17L8.01739 5.80005H10.3274L10.4324 6.80105H8.87839L8.61939 10.448L8.38839 12.835H9.55738L9.29139 13.836H8.28338L7.95439 17H6.81339ZM10.3694 17L9.72539 10.427L9.49439 7.37505H10.4744L11.5034 17H10.3694ZM14.1868 19.345C13.6315 19.317 13.2068 19.205 12.9128 19.009C12.6188 18.8177 12.4508 18.5447 12.4088 18.19C12.4041 18.134 12.3995 18.0757 12.3948 18.015C12.3948 17.959 12.3971 17.9007 12.4018 17.84C12.4158 17.5833 12.5115 17.378 12.6888 17.224C12.8708 17.0747 13.0855 16.979 13.3328 16.937V16.741C12.8475 16.6197 12.5908 16.377 12.5628 16.013C12.5535 15.9477 12.5511 15.8987 12.5558 15.866C12.5605 15.8333 12.5628 15.7913 12.5628 15.74C12.5721 15.5487 12.6491 15.3853 12.7938 15.25C12.9431 15.11 13.1205 15.026 13.3258 14.998V14.795C13.0505 14.6643 12.8451 14.466 12.7098 14.2C12.5745 13.934 12.4951 13.591 12.4718 13.171C12.4578 12.8863 12.4485 12.6343 12.4438 12.415C12.4391 12.191 12.4368 11.9787 12.4368 11.778C12.4415 11.5727 12.4461 11.3557 12.4508 11.127C12.4555 10.8937 12.4625 10.63 12.4718 10.336C12.5045 9.74338 12.6538 9.30238 12.9198 9.01305C13.1858 8.72372 13.6081 8.55572 14.1868 8.50905V9.39805C13.9675 9.43538 13.8088 9.52172 13.7108 9.65705C13.6128 9.79238 13.5615 9.98838 13.5568 10.245C13.5475 10.5343 13.5405 10.861 13.5358 11.225C13.5311 11.589 13.5288 11.9507 13.5288 12.31C13.5335 12.6693 13.5428 12.9913 13.5568 13.276C13.5661 13.5327 13.6245 13.7263 13.7318 13.857C13.8438 13.9877 14.0001 14.074 14.2008 14.116V15.019C13.9441 15.0377 13.7598 15.0913 13.6478 15.18C13.5358 15.2687 13.4798 15.3877 13.4798 15.537C13.4798 15.5463 13.4798 15.558 13.4798 15.572C13.4798 15.586 13.4798 15.6 13.4798 15.614C13.4798 15.754 13.5335 15.8613 13.6408 15.936C13.7481 16.0107 13.9301 16.0597 14.1868 16.083V16.888C13.9115 16.902 13.6898 16.958 13.5218 17.056C13.3538 17.1587 13.2628 17.3313 13.2488 17.574C13.2395 17.6207 13.2348 17.6697 13.2348 17.721C13.2348 17.777 13.2395 17.833 13.2488 17.889C13.2675 18.1177 13.3585 18.2787 13.5218 18.372C13.6851 18.47 13.9068 18.5283 14.1868 18.547V19.345ZM14.9288 19.345V18.554C15.2275 18.5307 15.4701 18.47 15.6568 18.372C15.8481 18.274 15.9578 18.1037 15.9858 17.861C15.9998 17.8097 16.0045 17.756 15.9998 17.7C15.9998 17.6487 15.9928 17.595 15.9788 17.539C15.9508 17.301 15.8411 17.14 15.6498 17.056C15.4631 16.972 15.2228 16.9183 14.9288 16.895V16.118C15.5588 16.1647 16.0418 16.293 16.3778 16.503C16.7138 16.713 16.8981 17.0537 16.9308 17.525C16.9401 17.5763 16.9448 17.6393 16.9448 17.714C16.9495 17.7887 16.9448 17.8633 16.9308 17.938C16.8981 18.4327 16.6951 18.7827 16.3218 18.988C15.9485 19.1933 15.4841 19.3123 14.9288 19.345ZM14.9288 14.998V14.116C15.1201 14.0693 15.2648 13.983 15.3628 13.857C15.4655 13.731 15.5238 13.5373 15.5378 13.276C15.5518 12.982 15.5588 12.66 15.5588 12.31C15.5635 11.9553 15.5635 11.5983 15.5588 11.239C15.5541 10.875 15.5448 10.532 15.5308 10.21C15.5168 9.96272 15.4655 9.77605 15.3768 9.65005C15.2881 9.51938 15.1388 9.43538 14.9288 9.39805V8.50905C15.6755 8.56505 16.1631 8.84038 16.3918 9.33505H16.5948C16.6135 9.10172 16.7068 8.92205 16.8748 8.79605C17.0428 8.66538 17.2621 8.60005 17.5328 8.60005V9.46805H17.3858C17.1525 9.46805 16.9681 9.54972 16.8328 9.71305C16.7021 9.87172 16.6368 10.1237 16.6368 10.469V10.826C16.6461 11.134 16.6508 11.4093 16.6508 11.652C16.6508 11.89 16.6485 12.128 16.6438 12.366C16.6438 12.5993 16.6368 12.8677 16.6228 13.171C16.5901 13.7637 16.4431 14.2047 16.1818 14.494C15.9251 14.7833 15.5075 14.9513 14.9288 14.998Z" fill="#131313"/>
</svg>
