<svg width="24" height="24" viewBox="0 0 24 24" fill="none" xmlns="http://www.w3.org/2000/svg">
<path d="M7.39313 17L8.49213 5.80005H9.88513L9.94813 6.38805H8.98213L8.64613 10.574L8.42213 12.933H9.59813L9.44413 13.521H8.37313L8.03713 17H7.39313ZM10.3261 17L9.72413 10.56L9.42313 6.75205H9.96213L10.9701 17H10.3261ZM13.2611 19.128C12.8271 19.1047 12.4841 19.0043 12.2321 18.827C11.9801 18.6543 11.8448 18.379 11.8261 18.001C11.8214 17.9497 11.8168 17.903 11.8121 17.861C11.8121 17.8237 11.8144 17.7817 11.8191 17.735C11.8284 17.455 11.9171 17.2403 12.0851 17.091C12.2531 16.9463 12.4398 16.853 12.6451 16.811V16.671C12.2578 16.5217 12.0594 16.2883 12.0501 15.971C12.0454 15.929 12.0431 15.8963 12.0431 15.873C12.0431 15.8497 12.0454 15.8217 12.0501 15.789C12.0548 15.6023 12.1154 15.4437 12.2321 15.313C12.3488 15.1823 12.4794 15.1077 12.6241 15.089V14.928C12.4188 14.8207 12.2671 14.6597 12.1691 14.445C12.0711 14.2257 12.0151 13.9433 12.0011 13.598C11.9918 13.2527 11.9848 12.9447 11.9801 12.674C11.9754 12.4033 11.9731 12.142 11.9731 11.89C11.9731 11.6333 11.9754 11.358 11.9801 11.064C11.9848 10.77 11.9918 10.427 12.0011 10.035C12.0198 9.54505 12.1248 9.18105 12.3161 8.94305C12.5121 8.70505 12.8271 8.56738 13.2611 8.53005V9.06905C13.0418 9.10172 12.8831 9.18805 12.7851 9.32805C12.6871 9.46805 12.6334 9.68738 12.6241 9.98605C12.6148 10.3967 12.6078 10.812 12.6031 11.232C12.5984 11.652 12.5984 12.065 12.6031 12.471C12.6078 12.877 12.6148 13.269 12.6241 13.647C12.6334 13.941 12.6871 14.158 12.7851 14.298C12.8831 14.4333 13.0418 14.5197 13.2611 14.557V15.124C13.0511 15.152 12.8878 15.2173 12.7711 15.32C12.6544 15.418 12.5961 15.544 12.5961 15.698C12.5961 15.7167 12.5961 15.733 12.5961 15.747C12.5961 15.761 12.5961 15.7773 12.5961 15.796C12.5961 15.9593 12.6474 16.0807 12.7501 16.16C12.8528 16.2347 13.0231 16.2883 13.2611 16.321V16.832C12.9998 16.8367 12.7851 16.8927 12.6171 17C12.4538 17.1073 12.3674 17.3103 12.3581 17.609C12.3534 17.6557 12.3511 17.7 12.3511 17.742C12.3511 17.784 12.3534 17.826 12.3581 17.868C12.3674 18.1527 12.4561 18.344 12.6241 18.442C12.7921 18.5447 13.0044 18.6053 13.2611 18.624V19.128ZM13.8491 19.121V18.631C14.1338 18.617 14.3671 18.5587 14.5491 18.456C14.7311 18.3533 14.8291 18.155 14.8431 17.861C14.8524 17.8143 14.8571 17.77 14.8571 17.728C14.8571 17.686 14.8524 17.644 14.8431 17.602C14.8291 17.294 14.7311 17.0957 14.5491 17.007C14.3718 16.9183 14.1384 16.8647 13.8491 16.846V16.363C14.3344 16.3957 14.7101 16.5007 14.9761 16.678C15.2421 16.8553 15.3868 17.161 15.4101 17.595C15.4148 17.637 15.4171 17.6813 15.4171 17.728C15.4171 17.7747 15.4148 17.826 15.4101 17.882C15.3868 18.3253 15.2304 18.6357 14.9411 18.813C14.6564 18.995 14.2924 19.0977 13.8491 19.121ZM13.8491 15.096V14.557C14.0638 14.5197 14.2201 14.4333 14.3181 14.298C14.4161 14.158 14.4721 13.941 14.4861 13.647C14.5001 13.269 14.5071 12.877 14.5071 12.471C14.5118 12.065 14.5118 11.652 14.5071 11.232C14.5071 10.812 14.5001 10.3967 14.4861 9.98605C14.4721 9.68738 14.4161 9.46805 14.3181 9.32805C14.2248 9.18805 14.0684 9.10172 13.8491 9.06905V8.53005C14.4464 8.58605 14.8244 8.84038 14.9831 9.29305H15.1231C15.1324 9.08305 15.2118 8.91505 15.3611 8.78905C15.5151 8.66305 15.7018 8.60005 15.9211 8.60005V9.13205H15.8021C15.5921 9.13205 15.4264 9.22772 15.3051 9.41905C15.1838 9.61038 15.1231 9.89505 15.1231 10.273V10.616C15.1231 11.0127 15.1231 11.3603 15.1231 11.659C15.1278 11.9577 15.1301 12.2563 15.1301 12.555C15.1301 12.8537 15.1231 13.2013 15.1091 13.598C15.0904 14.0833 14.9831 14.445 14.7871 14.683C14.5958 14.921 14.2831 15.0587 13.8491 15.096Z" fill="#131313"/>
</svg>
