<svg width="24" height="24" viewBox="0 0 24 24" fill="none" xmlns="http://www.w3.org/2000/svg">
<path d="M14.0048 16.1233V16.9697H10.1034V16.1233H11.2883L10.5387 15.0593H6.60511L5.84742 16.1233H7.03233V16.9697H3.12293V16.1233H4.67863L7.57239 12.2784H6.33911V11.4401H10.7886V12.2784H9.56336L12.4652 16.1233H14.0048ZM10.0148 14.3097L8.58802 12.2784H8.56384L7.12905 14.3097H10.0148ZM19.8591 16.1072C20.3535 16.1072 20.7404 16.2039 21.0198 16.3974C21.3046 16.5855 21.447 16.8515 21.447 17.1954C21.447 17.5393 21.2751 17.8322 20.9311 18.074C20.5872 18.3158 20.109 18.4985 19.4964 18.6221C18.8837 18.7457 18.1771 18.8075 17.3764 18.8075C16.7154 18.8075 16.1566 18.7511 15.6998 18.6382C15.243 18.5254 14.9018 18.3696 14.6761 18.1707C14.4504 17.9719 14.3376 17.7462 14.3376 17.4936C14.3376 17.1497 14.4907 16.8676 14.797 16.6473C14.5982 16.4753 14.4988 16.2657 14.4988 16.0185C14.4988 15.8466 14.5579 15.6827 14.6761 15.5268C14.7943 15.3656 14.9475 15.234 15.1356 15.1319C14.9152 14.9277 14.8051 14.6939 14.8051 14.4306C14.8051 13.99 15.0845 13.6541 15.6434 13.423C16.2023 13.1866 16.9304 13.0684 17.8278 13.0684C18.5909 13.0684 19.225 13.1517 19.7301 13.3182C19.8053 12.9045 19.9934 12.5928 20.2944 12.3832C20.5953 12.1736 20.9392 12.0608 21.3261 12.0447V12.9152C20.7404 12.9152 20.3642 13.114 20.1976 13.5117C20.6329 13.7428 20.8505 14.0491 20.8505 14.4306C20.8505 14.8713 20.5684 15.2098 20.0042 15.4462C19.4453 15.6827 18.7198 15.8009 17.8278 15.8009C16.9143 15.8009 16.1915 15.6854 15.6595 15.4543C15.4983 15.5672 15.4177 15.6988 15.4177 15.8493C15.4177 16.2039 15.853 16.3813 16.7235 16.3813C16.9653 16.3813 17.2716 16.3598 17.6424 16.3168C18.0132 16.2738 18.2335 16.2496 18.3034 16.2442C19.0342 16.1529 19.5528 16.1072 19.8591 16.1072ZM17.8278 13.7374C17.2152 13.7374 16.7262 13.7938 16.3608 13.9067C15.9954 14.0195 15.8127 14.1942 15.8127 14.4306C15.8127 14.6617 15.9954 14.8363 16.3608 14.9545C16.7316 15.0728 17.2206 15.1319 17.8278 15.1319C18.435 15.1319 18.9214 15.0728 19.2868 14.9545C19.6576 14.8363 19.843 14.6617 19.843 14.4306C19.843 14.1942 19.6603 14.0195 19.2948 13.9067C18.9294 13.7938 18.4404 13.7374 17.8278 13.7374ZM17.3764 18.0821C18.0213 18.0821 18.5721 18.0444 19.0288 17.9692C19.491 17.8994 19.8403 17.8026 20.0767 17.679C20.3185 17.5608 20.4394 17.4265 20.4394 17.276C20.4394 17.1417 20.3803 17.0422 20.2621 16.9778C20.1493 16.9133 19.9719 16.881 19.7301 16.881C19.5582 16.881 19.319 16.8998 19.0127 16.9375C18.7118 16.9697 18.5291 16.9885 18.4646 16.9939C18.0508 17.0422 17.7042 17.0799 17.4248 17.1067C17.1507 17.1336 16.8982 17.147 16.6671 17.147C16.1727 17.147 15.7482 17.0879 15.3935 16.9697C15.3183 17.061 15.2807 17.1712 15.2807 17.3002C15.2807 17.5259 15.458 17.7113 15.8127 17.8564C16.1727 18.0068 16.6939 18.0821 17.3764 18.0821Z" fill="#131313"/>
</svg>
