<svg width="24" height="24" viewBox="0 0 24 24" fill="none" xmlns="http://www.w3.org/2000/svg">
<path d="M14.0295 14.3006V14.9696H10.2168V14.3006H11.5227L10.6118 13.0028H6.54119L5.63034 14.3006H6.93616V14.9696H3.11543V14.3006H4.70337L7.78252 10.101H6.41222V9.44006H10.7247V10.101H9.3624L12.4416 14.3006H14.0295ZM10.1927 12.3983L8.58858 10.101H8.5644L6.96034 12.3983H10.1927ZM19.8349 14.1797C20.3078 14.1797 20.6813 14.271 20.9553 14.4537C21.2348 14.6311 21.3745 14.889 21.3745 15.2275C21.3745 15.5607 21.2079 15.8428 20.8747 16.0739C20.5415 16.3103 20.0767 16.4877 19.4802 16.6059C18.8891 16.7241 18.2093 16.7832 17.4409 16.7832C16.7692 16.7832 16.2076 16.7268 15.7562 16.614C15.3048 16.5065 14.969 16.356 14.7487 16.1626C14.5283 15.9691 14.4182 15.7461 14.4182 15.4935C14.4182 15.3162 14.4612 15.1577 14.5471 15.018C14.6385 14.8782 14.7567 14.76 14.9018 14.6633C14.6761 14.4752 14.5633 14.2576 14.5633 14.0104C14.5633 13.8277 14.6251 13.6611 14.7487 13.5106C14.8776 13.3548 15.0388 13.2285 15.2323 13.1318C15.0227 12.9329 14.9179 12.6992 14.9179 12.4305C14.9179 11.9899 15.1893 11.654 15.7321 11.4229C16.2802 11.1865 16.9814 11.0683 17.8359 11.0683C18.6151 11.0683 19.2545 11.1596 19.7543 11.3423C19.8295 10.95 20.0095 10.6491 20.2944 10.4395C20.5845 10.23 20.915 10.1144 21.2858 10.0929V10.7861C20.684 10.7969 20.297 11.0387 20.1251 11.5116C20.5496 11.748 20.7619 12.0543 20.7619 12.4305C20.7619 12.8819 20.4797 13.2231 19.9155 13.4542C19.3566 13.6853 18.6392 13.8008 17.7633 13.8008C17.3281 13.8008 16.9223 13.7659 16.5462 13.696C16.1754 13.6262 15.8637 13.5267 15.6111 13.3978C15.3854 13.5429 15.2726 13.7068 15.2726 13.8895C15.2726 14.0614 15.3801 14.2012 15.595 14.3086C15.8153 14.4161 16.1619 14.4698 16.6348 14.4698C16.9089 14.4698 17.4436 14.4215 18.2389 14.3247C19.0342 14.228 19.5662 14.1797 19.8349 14.1797ZM17.8359 11.6164C17.2018 11.6164 16.6886 11.6836 16.2963 11.8179C15.904 11.9522 15.7079 12.1564 15.7079 12.4305C15.7079 12.6992 15.904 12.9061 16.2963 13.0512C16.6939 13.1909 17.2071 13.2607 17.8359 13.2607C18.47 13.2607 18.9858 13.1909 19.3835 13.0512C19.7812 12.9061 19.98 12.6992 19.98 12.4305C19.98 12.1564 19.7838 11.9522 19.3916 11.8179C18.9993 11.6836 18.4807 11.6164 17.8359 11.6164ZM17.4328 16.1948C18.0831 16.1948 18.6446 16.1572 19.1175 16.082C19.5904 16.0067 19.9531 15.8993 20.2057 15.7595C20.4583 15.6252 20.5845 15.4667 20.5845 15.284C20.5845 14.9615 20.3051 14.8003 19.7462 14.8003C19.5958 14.8003 19.3916 14.8138 19.1336 14.8406C18.8811 14.8675 18.6204 14.8971 18.3517 14.9293C18.0401 14.9669 17.7203 15.0018 17.3925 15.0341C17.0647 15.0663 16.7934 15.0824 16.5784 15.0824C16.0948 15.0824 15.6891 15.0233 15.3613 14.9051C15.2269 15.0287 15.1597 15.1765 15.1597 15.3484C15.1597 15.5956 15.3505 15.7972 15.7321 15.953C16.119 16.1142 16.6859 16.1948 17.4328 16.1948Z" fill="#131313"/>
</svg>
