<svg width="24" height="24" viewBox="0 0 24 24" fill="none" xmlns="http://www.w3.org/2000/svg">
<path d="M13.8323 15.53V17H9.08625V15.53H10.5563L9.85625 13.71H6.03425L5.33425 15.53H6.94425V17H2.26825V15.53H3.58425L6.42625 8.852H5.22225V7.396H10.8363V8.852H9.61825L12.4883 15.53H13.8323ZM9.35225 12.394L7.98025 8.852H7.91025L6.53825 12.394H9.35225ZM19.502 15.656C20.1367 15.656 20.65 15.8147 21.042 16.132C21.434 16.44 21.63 16.888 21.63 17.476C21.63 17.9893 21.4294 18.4373 21.028 18.82C20.636 19.2027 20.104 19.4967 19.432 19.702C18.76 19.9073 18.018 20.01 17.206 20.01C16.2634 20.01 15.4887 19.842 14.882 19.506C14.2847 19.17 13.986 18.6987 13.986 18.092C13.986 17.6067 14.2427 17.1493 14.756 16.72C14.392 16.412 14.21 16.0387 14.21 15.6C14.21 14.956 14.5507 14.4193 15.232 13.99C14.896 13.6073 14.728 13.1547 14.728 12.632C14.728 12.128 14.882 11.694 15.19 11.33C15.498 10.966 15.89 10.6907 16.366 10.504C16.842 10.3173 17.3227 10.224 17.808 10.224C18.3494 10.224 18.844 10.3127 19.292 10.49C19.4507 10.0047 19.726 9.64067 20.118 9.398C20.51 9.15533 20.9767 9.02933 21.518 9.02V10.448C21.1914 10.4573 20.9067 10.4993 20.664 10.574C20.4307 10.6393 20.23 10.756 20.062 10.924C20.622 11.3627 20.902 11.918 20.902 12.59C20.902 13.094 20.748 13.528 20.44 13.892C20.132 14.256 19.74 14.5313 19.264 14.718C18.788 14.9047 18.3027 14.998 17.808 14.998C17.136 14.998 16.534 14.858 16.002 14.578C15.8154 14.7833 15.722 14.984 15.722 15.18C15.722 15.404 15.8014 15.5673 15.96 15.67C16.128 15.7727 16.352 15.824 16.632 15.824C16.9307 15.824 17.36 15.796 17.92 15.74C18.5547 15.684 19.082 15.656 19.502 15.656ZM17.822 11.442C17.4114 11.442 17.0754 11.554 16.814 11.778C16.562 11.9927 16.436 12.2773 16.436 12.632C16.436 12.9773 16.562 13.2573 16.814 13.472C17.0754 13.6773 17.4114 13.78 17.822 13.78C18.2234 13.78 18.55 13.6727 18.802 13.458C19.0634 13.234 19.194 12.9447 19.194 12.59C19.194 12.2447 19.0634 11.9693 18.802 11.764C18.55 11.5493 18.2234 11.442 17.822 11.442ZM17.444 18.61C18.144 18.61 18.7507 18.512 19.264 18.316C19.7774 18.1293 20.034 17.882 20.034 17.574C20.034 17.3687 19.9594 17.224 19.81 17.14C19.6607 17.056 19.4274 17.014 19.11 17.014C18.9047 17.014 18.5407 17.042 18.018 17.098C17.3647 17.1727 16.7907 17.21 16.296 17.21C16.0814 17.21 15.8667 17.1867 15.652 17.14C15.54 17.336 15.484 17.5273 15.484 17.714C15.484 18.0033 15.6474 18.2227 15.974 18.372C16.31 18.5307 16.8 18.61 17.444 18.61Z" fill="#131313"/>
</svg>
