<svg width="24" height="24" viewBox="0 0 24 24" fill="none" xmlns="http://www.w3.org/2000/svg">
<path d="M11.5613 16.692L11.4633 16.594L12.6953 16.79L12.6673 17H9.58728L9.62928 16.79L11.3373 16.594L11.2673 16.692L10.8053 14.018L10.9033 14.116H6.28328L6.42328 14.018L5.06528 16.692L5.00928 16.594L6.64728 16.79L6.60528 17H3.58128L3.62328 16.79L4.89728 16.594L4.77128 16.692L9.60128 7.32597L9.88128 7.29797L11.5613 16.692ZM6.46528 13.934L6.40928 13.85H10.8613L10.7913 13.934L9.67128 7.59197H9.72728L6.46528 13.934ZM15.8834 20.304C15.5567 20.304 15.202 20.2667 14.8194 20.192C14.4367 20.1173 14.0307 20.01 13.6014 19.87L13.6994 19.576C14.11 19.7253 14.502 19.8373 14.8754 19.912C15.2487 19.996 15.594 20.038 15.9114 20.038C16.2567 20.038 16.5694 19.9867 16.8494 19.884C17.1387 19.7907 17.3907 19.6413 17.6054 19.436C17.82 19.2307 18.002 18.9693 18.1514 18.652C18.3007 18.3347 18.408 17.9567 18.4734 17.518L19.0474 13.906H19.1174C18.8467 14.6527 18.5107 15.264 18.1094 15.74C17.708 16.2067 17.2927 16.5473 16.8634 16.762C16.434 16.9767 16.0374 17.084 15.6734 17.084C15.328 17.084 15.0107 16.9907 14.7214 16.804C14.4414 16.6173 14.2174 16.328 14.0494 15.936C13.8814 15.544 13.7974 15.0353 13.7974 14.41C13.7974 13.7567 13.8954 13.1407 14.0914 12.562C14.2874 11.9833 14.558 11.4747 14.9034 11.036C15.258 10.588 15.6734 10.238 16.1494 9.98597C16.6254 9.73397 17.1434 9.60797 17.7034 9.60797C18.002 9.60797 18.3194 9.65464 18.6554 9.74797C18.9914 9.83197 19.346 9.98597 19.7194 10.21L19.6074 10.238L19.7894 9.69197H19.9854L18.7534 17.49C18.6787 17.9847 18.5574 18.4093 18.3894 18.764C18.2307 19.1187 18.03 19.408 17.7874 19.632C17.5447 19.8653 17.2647 20.0333 16.9474 20.136C16.63 20.248 16.2754 20.304 15.8834 20.304ZM15.6874 16.818C15.9954 16.818 16.3267 16.7293 16.6814 16.552C17.0454 16.3747 17.4 16.104 17.7454 15.74C18.1 15.376 18.4127 14.9093 18.6834 14.34C18.954 13.7707 19.1547 13.094 19.2854 12.31L19.6074 10.294L19.6774 10.462C19.332 10.2567 18.9914 10.1073 18.6554 10.014C18.3287 9.92064 18.0067 9.87397 17.6894 9.87397C17.1667 9.87397 16.686 9.9953 16.2474 10.238C15.8087 10.4713 15.426 10.798 15.0994 11.218C14.782 11.6287 14.5347 12.1093 14.3574 12.66C14.18 13.2013 14.0914 13.78 14.0914 14.396C14.0914 15.2453 14.2454 15.8613 14.5534 16.244C14.8707 16.6267 15.2487 16.818 15.6874 16.818Z" fill="#131313"/>
</svg>
