<svg width="24" height="24" viewBox="0 0 24 24" fill="none" xmlns="http://www.w3.org/2000/svg">
<path d="M6.55762 6.15137H7.09766L10.9531 15.0518C11.1855 15.5895 11.443 15.9655 11.7256 16.1797C11.9535 16.3483 12.2656 16.4531 12.6621 16.4941V17H8.83398V16.4941C9.70443 16.4212 10.1396 16.2458 10.1396 15.9678C10.1396 15.8766 10.0781 15.6921 9.95508 15.4141L8.9502 13.1445H4.39746L3.48828 15.25C3.36523 15.5326 3.30371 15.749 3.30371 15.8994C3.30371 16.2503 3.71159 16.4486 4.52734 16.4941V17H1.12305V16.4941C1.83398 16.3939 2.32845 16.0156 2.60645 15.3594L6.55762 6.15137ZM6.68066 7.60742L4.63672 12.4473H8.73828L6.68066 7.60742ZM15.2324 15.2773C14.918 15.2181 14.6559 15.111 14.4463 14.9561C14.1774 14.7555 14.043 14.5186 14.043 14.2451C14.043 13.6937 14.4212 13.3473 15.1777 13.2061C14.3757 12.9281 13.9746 12.3561 13.9746 11.4902C13.9746 10.8978 14.2139 10.3874 14.6924 9.95898C15.2894 9.42578 16.055 9.15918 16.9893 9.15918C17.8551 9.15918 18.5615 9.3597 19.1084 9.76074C19.359 9.49186 19.6621 9.27539 20.0176 9.11133C20.3594 8.95638 20.6738 8.87891 20.9609 8.87891C21.1523 8.87891 21.3255 8.92448 21.4805 9.01562C21.7767 9.18424 21.9248 9.43262 21.9248 9.76074C21.9248 9.94759 21.8724 10.1185 21.7676 10.2734C21.6263 10.474 21.4349 10.5742 21.1934 10.5742C20.9974 10.5742 20.8242 10.499 20.6738 10.3486C20.5234 10.1982 20.4482 10.0273 20.4482 9.83594C20.4482 9.76302 20.4642 9.67871 20.4961 9.58301C20.2044 9.59212 19.874 9.79264 19.5049 10.1846C19.8695 10.5173 20.0518 10.9434 20.0518 11.4629C20.0518 12.2012 19.7578 12.764 19.1699 13.1514C18.6413 13.4977 17.9303 13.6709 17.0371 13.6709C16.627 13.6709 16.2533 13.6276 15.916 13.541C15.3099 13.5957 15.0068 13.7871 15.0068 14.1152C15.0068 14.2839 15.1504 14.4251 15.4375 14.5391C15.7383 14.6621 16.1279 14.735 16.6064 14.7578L17.9668 14.833C18.9421 14.8831 19.6393 15.0016 20.0586 15.1885C20.6602 15.4574 20.9609 15.9222 20.9609 16.583C20.9609 17.3623 20.585 17.9183 19.833 18.251C19.2087 18.529 18.2949 18.668 17.0918 18.668C15.9616 18.668 15.082 18.513 14.4531 18.2031C13.7786 17.875 13.4414 17.3965 13.4414 16.7676C13.4414 16.362 13.6305 16.0293 14.0088 15.7695C14.3096 15.5599 14.7174 15.4186 15.2324 15.3457V15.2773ZM16.9756 9.78809C16.5244 9.78809 16.1325 9.88379 15.7998 10.0752C15.2666 10.3851 15 10.8545 15 11.4834C15 12.5316 15.6676 13.0557 17.0029 13.0557C17.6273 13.0557 18.1195 12.9258 18.4795 12.666C18.8669 12.388 19.0605 11.987 19.0605 11.4629C19.0605 10.834 18.7598 10.3646 18.1582 10.0547C17.8164 9.87695 17.4222 9.78809 16.9756 9.78809ZM17.0645 15.7695C16.194 15.7695 15.5628 15.8265 15.1709 15.9404C14.7106 16.0771 14.4805 16.3369 14.4805 16.7197C14.4805 17.0889 14.6878 17.3942 15.1025 17.6357C15.5811 17.9137 16.2601 18.0527 17.1396 18.0527C19.0173 18.0527 19.9561 17.5788 19.9561 16.6309C19.9561 16.0566 18.9922 15.7695 17.0645 15.7695Z" fill="#131313"/>
</svg>
