<svg width="24" height="24" viewBox="0 0 24 24" fill="none" xmlns="http://www.w3.org/2000/svg">
<path d="M8.75505 16.986L6.29105 16.314L6.72505 14.69V9.99996H7.88705L6.43105 9.60796L6.99105 7.56396L12.4511 9.06196L11.9891 10.742V14.816L12.4511 14.942L11.9051 16.986L9.44105 16.314L9.87506 14.69V12.436L9.59505 13.472L8.83905 13.262V14.816L9.30105 14.942L8.75505 16.986ZM8.83905 11.694L9.87506 11.974V10.546L8.83905 10.266V11.694ZM13.0212 14.522V11.512H14.1272L14.5472 9.85996L18.7052 10.952L18.1732 13.01L17.8932 12.94V18.078L17.3332 20.122L13.4412 19.058L14.0012 17L15.7792 17.49V16.146L15.5412 17.042L12.8672 16.314L13.3432 14.522H13.0212ZM15.1352 14.522H14.3372L15.7792 14.914V12.366L15.1352 12.198V14.522Z" fill="#131313"/>
</svg>
