<svg width="24" height="24" viewBox="0 0 24 24" fill="none" xmlns="http://www.w3.org/2000/svg">
<path d="M2.50789 17L8.68189 6.297H9.92089L11.2509 17H8.54889L7.68089 8.474L2.75989 17H2.50789ZM1.40889 17V16.776H4.48889V17H1.40889ZM6.93889 17V16.776H12.2309V17H6.93889ZM4.65689 13.682V13.465H9.24189V13.682H4.65689ZM15.2051 20.64C14.6031 20.64 14.0735 20.5817 13.6161 20.465C13.1588 20.3483 12.8041 20.171 12.5521 19.933C12.3001 19.6997 12.1741 19.4057 12.1741 19.051C12.1741 18.8457 12.2348 18.6497 12.3561 18.463C12.4775 18.2763 12.6501 18.1107 12.8741 17.966C13.0981 17.8213 13.3571 17.707 13.6511 17.623C13.9451 17.5437 14.2648 17.504 14.6101 17.504H14.7921C14.6288 17.56 14.4725 17.6603 14.3231 17.805C14.1738 17.9543 14.0501 18.1363 13.9521 18.351C13.8588 18.5657 13.8121 18.799 13.8121 19.051C13.8121 19.4897 13.9661 19.8163 14.2741 20.031C14.5821 20.2503 15.0371 20.36 15.6391 20.36C16.0358 20.36 16.4278 20.3087 16.8151 20.206C17.2071 20.108 17.5618 19.968 17.8791 19.786C18.1965 19.6087 18.4508 19.401 18.6421 19.163C18.8335 18.9297 18.9291 18.6753 18.9291 18.4C18.9291 18.148 18.8545 17.9567 18.7051 17.826C18.5605 17.7 18.3435 17.637 18.0541 17.637C17.9655 17.637 17.8255 17.637 17.6341 17.637C17.4428 17.637 17.2258 17.637 16.9831 17.637C16.7451 17.637 16.5071 17.637 16.2691 17.637C16.0358 17.637 15.8305 17.637 15.6531 17.637C15.4758 17.637 15.3568 17.637 15.2961 17.637C14.8761 17.637 14.4911 17.5763 14.1411 17.455C13.7911 17.3383 13.5111 17.168 13.3011 16.944C13.0911 16.72 12.9861 16.4517 12.9861 16.139C12.9861 15.859 13.0701 15.614 13.2381 15.404C13.4108 15.194 13.6395 15.019 13.9241 14.879C14.2088 14.7343 14.5238 14.627 14.8691 14.557C15.2145 14.487 15.5621 14.452 15.9121 14.452L15.9051 14.585C15.4431 14.585 15.0931 14.6597 14.8551 14.809C14.6171 14.9537 14.4981 15.1053 14.4981 15.264C14.4981 15.3947 14.5495 15.4973 14.6521 15.572C14.7595 15.642 14.9065 15.6887 15.0931 15.712C15.2798 15.7353 15.4898 15.747 15.7231 15.747C15.8865 15.747 16.0871 15.747 16.3251 15.747C16.5631 15.7423 16.7941 15.74 17.0181 15.74C17.2468 15.7353 17.4265 15.733 17.5571 15.733C18.1638 15.733 18.6585 15.8823 19.0411 16.181C19.4285 16.475 19.6221 16.944 19.6221 17.588C19.6221 18.0967 19.4915 18.5423 19.2301 18.925C18.9735 19.3077 18.6305 19.625 18.2011 19.877C17.7718 20.1337 17.2958 20.325 16.7731 20.451C16.2551 20.577 15.7325 20.64 15.2051 20.64ZM16.7311 14.76C16.2365 14.76 15.7931 14.683 15.4011 14.529C15.0091 14.375 14.7011 14.1557 14.4771 13.871C14.2531 13.5863 14.1411 13.2457 14.1411 12.849C14.1411 12.401 14.2905 11.995 14.5891 11.631C14.8925 11.2623 15.2938 10.9707 15.7931 10.756C16.2971 10.5367 16.8431 10.427 17.4311 10.427C17.9305 10.427 18.3761 10.5087 18.7681 10.672C19.1601 10.8353 19.4681 11.0663 19.6921 11.365C19.9161 11.659 20.0281 12.0043 20.0281 12.401C20.0281 12.8443 19.8765 13.2457 19.5731 13.605C19.2745 13.9597 18.8755 14.242 18.3761 14.452C17.8768 14.6573 17.3285 14.76 16.7311 14.76ZM16.5491 14.529C16.6611 14.529 16.7801 14.4403 16.9061 14.263C17.0321 14.0857 17.1581 13.857 17.2841 13.577C17.4101 13.297 17.5221 13.0007 17.6201 12.688C17.7228 12.3753 17.8045 12.0813 17.8651 11.806C17.9258 11.526 17.9561 11.3067 17.9561 11.148C17.9561 11.008 17.9305 10.8913 17.8791 10.798C17.8278 10.7 17.7415 10.651 17.6201 10.651C17.5081 10.651 17.3868 10.7397 17.2561 10.917C17.1301 11.0943 17.0041 11.323 16.8781 11.603C16.7568 11.883 16.6448 12.1793 16.5421 12.492C16.4441 12.8 16.3648 13.094 16.3041 13.374C16.2435 13.6493 16.2131 13.8663 16.2131 14.025C16.2131 14.165 16.2388 14.284 16.2901 14.382C16.3461 14.48 16.4325 14.529 16.5491 14.529ZM20.9661 10.49C21.3348 10.49 21.6405 10.6043 21.8831 10.833C22.1258 11.0617 22.2471 11.3463 22.2471 11.687C22.2471 11.981 22.1608 12.2307 21.9881 12.436C21.8201 12.6413 21.5798 12.744 21.2671 12.744C21.0058 12.744 20.7841 12.6577 20.6021 12.485C20.4201 12.3077 20.3291 12.0767 20.3291 11.792C20.3291 11.54 20.4178 11.3347 20.5951 11.176C20.7771 11.0173 20.9895 10.931 21.2321 10.917C21.3488 10.9217 21.4608 10.959 21.5681 11.029C21.6755 11.0943 21.7501 11.1877 21.7921 11.309C21.7408 11.1317 21.6335 10.987 21.4701 10.875C21.3115 10.763 21.1248 10.707 20.9101 10.707C20.6721 10.707 20.4481 10.7607 20.2381 10.868C20.0281 10.9707 19.8321 11.127 19.6501 11.337C19.4728 11.547 19.3071 11.8083 19.1531 12.121L18.9921 12.037C19.2395 11.519 19.5241 11.1317 19.8461 10.875C20.1681 10.6183 20.5415 10.49 20.9661 10.49Z" fill="#131313"/>
</svg>
