<svg width="24" height="24" viewBox="0 0 24 24" fill="none" xmlns="http://www.w3.org/2000/svg">
<path d="M5.28766 13.696V13.472H9.72566V13.696H5.28766ZM8.10866 6.297L11.7417 16.776H12.8127V17H8.54266V16.776H9.93566L7.21266 8.355L4.27266 16.776H5.79866V17H2.71866V16.776H4.01366L7.69566 6.297H8.10866ZM16.7808 20.64C16.3561 20.64 15.9548 20.605 15.5768 20.535C15.1988 20.465 14.8628 20.353 14.5688 20.199C14.2748 20.0497 14.0438 19.856 13.8758 19.618C13.7078 19.3847 13.6238 19.1047 13.6238 18.778C13.6238 18.4653 13.6961 18.204 13.8408 17.994C13.9901 17.7887 14.1744 17.623 14.3938 17.497C14.6131 17.3757 14.8348 17.2893 15.0588 17.238C15.2874 17.1867 15.4811 17.161 15.6398 17.161H15.8008C15.5161 17.315 15.3131 17.5133 15.1918 17.756C15.0751 17.9987 15.0168 18.2857 15.0168 18.617C15.0168 18.9157 15.0914 19.2003 15.2408 19.471C15.3901 19.7417 15.6118 19.961 15.9058 20.129C16.1998 20.3017 16.5684 20.388 17.0118 20.388C17.3571 20.388 17.6791 20.346 17.9778 20.262C18.2811 20.178 18.5471 20.0567 18.7758 19.898C19.0091 19.7393 19.1934 19.541 19.3288 19.303C19.4641 19.0697 19.5318 18.8037 19.5318 18.505C19.5318 18.225 19.4524 17.9893 19.2938 17.798C19.1398 17.6113 18.9344 17.469 18.6778 17.371C18.4211 17.273 18.1411 17.224 17.8378 17.224C17.7398 17.224 17.5811 17.224 17.3618 17.224C17.1471 17.224 16.9301 17.224 16.7108 17.224C16.4961 17.224 16.3374 17.224 16.2348 17.224C15.5814 17.224 15.0564 17.1307 14.6598 16.944C14.2678 16.7573 14.0718 16.4493 14.0718 16.02C14.0718 15.7587 14.1441 15.5347 14.2888 15.348C14.4381 15.1613 14.6364 15.0073 14.8838 14.886C15.1311 14.76 15.4088 14.6667 15.7168 14.606C16.0294 14.5453 16.3514 14.515 16.6828 14.515L16.6688 14.662C16.5241 14.662 16.3631 14.6807 16.1858 14.718C16.0131 14.7507 15.8451 14.802 15.6818 14.872C15.5184 14.942 15.3854 15.0283 15.2828 15.131C15.1801 15.229 15.1288 15.3433 15.1288 15.474C15.1288 15.7027 15.2524 15.8427 15.4998 15.894C15.7471 15.9453 16.0621 15.971 16.4448 15.971C16.6081 15.971 16.7598 15.971 16.8998 15.971C17.0398 15.9663 17.1728 15.964 17.2988 15.964C17.4294 15.9593 17.5624 15.957 17.6978 15.957C17.9591 15.957 18.2251 15.9827 18.4958 16.034C18.7664 16.0853 19.0161 16.188 19.2448 16.342C19.4781 16.4913 19.6648 16.7107 19.8048 17C19.9448 17.2893 20.0148 17.672 20.0148 18.148C20.0148 18.5913 19.9261 18.9693 19.7488 19.282C19.5714 19.5993 19.3288 19.856 19.0208 20.052C18.7174 20.2527 18.3721 20.3997 17.9848 20.493C17.5974 20.591 17.1961 20.64 16.7808 20.64ZM16.5778 14.711C16.2791 14.711 15.9781 14.6713 15.6748 14.592C15.3714 14.5127 15.0891 14.389 14.8278 14.221C14.5711 14.0483 14.3634 13.8267 14.2048 13.556C14.0508 13.2807 13.9738 12.9517 13.9738 12.569C13.9738 12.1817 14.0508 11.8527 14.2048 11.582C14.3634 11.3067 14.5711 11.085 14.8278 10.917C15.0891 10.749 15.3714 10.6253 15.6748 10.546C15.9781 10.4667 16.2791 10.427 16.5778 10.427C16.8718 10.427 17.1681 10.4667 17.4668 10.546C17.7701 10.6253 18.0454 10.749 18.2928 10.917C18.5401 11.085 18.7384 11.3067 18.8878 11.582C19.0418 11.8527 19.1188 12.1817 19.1188 12.569C19.1188 12.9517 19.0418 13.2807 18.8878 13.556C18.7384 13.8267 18.5401 14.0483 18.2928 14.221C18.0454 14.389 17.7701 14.5127 17.4668 14.592C17.1681 14.6713 16.8718 14.711 16.5778 14.711ZM16.5778 14.487C16.8298 14.487 17.0374 14.4007 17.2008 14.228C17.3641 14.0507 17.4831 13.8173 17.5578 13.528C17.6371 13.234 17.6768 12.9143 17.6768 12.569C17.6768 12.2143 17.6371 11.8923 17.5578 11.603C17.4831 11.309 17.3641 11.078 17.2008 10.91C17.0374 10.7373 16.8298 10.651 16.5778 10.651C16.3211 10.651 16.1111 10.7373 15.9478 10.91C15.7891 11.078 15.6701 11.309 15.5908 11.603C15.5114 11.8923 15.4718 12.2143 15.4718 12.569C15.4718 12.9143 15.4928 13.234 15.5348 13.528C15.5814 13.8173 15.6818 14.0507 15.8358 14.228C15.9944 14.4007 16.2418 14.487 16.5778 14.487ZM20.4838 12.415C20.2924 12.415 20.1174 12.3497 19.9588 12.219C19.8048 12.0883 19.7278 11.9017 19.7278 11.659C19.7278 11.4117 19.8071 11.2343 19.9658 11.127C20.1291 11.015 20.3018 10.959 20.4838 10.959C20.6658 10.959 20.8408 11.015 21.0088 11.127C21.1768 11.2343 21.2608 11.3907 21.2608 11.596H21.0438C21.0438 11.3767 20.9574 11.1737 20.7848 10.987C20.6168 10.8003 20.3764 10.707 20.0638 10.707C19.8864 10.707 19.6881 10.749 19.4688 10.833C19.2541 10.917 19.0511 11.0687 18.8598 11.288C18.6731 11.5027 18.5331 11.806 18.4398 12.198L18.2788 12.086C18.3721 11.6753 18.5214 11.3557 18.7268 11.127C18.9368 10.8937 19.1608 10.7303 19.3988 10.637C19.6414 10.539 19.8584 10.49 20.0498 10.49C20.2971 10.49 20.5118 10.5437 20.6938 10.651C20.8758 10.7583 21.0181 10.8983 21.1208 11.071C21.2234 11.239 21.2748 11.414 21.2748 11.596C21.2748 11.9087 21.1884 12.1233 21.0158 12.24C20.8478 12.3567 20.6704 12.415 20.4838 12.415Z" fill="#131313"/>
</svg>
