<svg width="24" height="24" viewBox="0 0 24 24" fill="none" xmlns="http://www.w3.org/2000/svg">
<path d="M3.45272 17L9.62672 6.297H10.2707L11.6007 17H9.62672L8.73772 8.264L3.71172 17H3.45272ZM2.36072 17V16.776H5.44072V17H2.36072ZM8.01672 17V16.776H12.5877V17H8.01672ZM5.58072 13.682V13.465H10.1937V13.682H5.58072ZM15.6317 20.64C14.9737 20.64 14.4324 20.5677 14.0077 20.423C13.5877 20.2783 13.2774 20.0777 13.0767 19.821C12.8761 19.569 12.7757 19.282 12.7757 18.96C12.7757 18.708 12.8504 18.4723 12.9997 18.253C13.1491 18.0337 13.3427 17.84 13.5807 17.672C13.8234 17.504 14.0801 17.3733 14.3507 17.28C14.6261 17.1867 14.8851 17.14 15.1277 17.14H15.4007C15.1254 17.196 14.8851 17.3103 14.6797 17.483C14.4744 17.6557 14.3134 17.868 14.1967 18.12C14.0801 18.3767 14.0217 18.6543 14.0217 18.953C14.0217 19.401 14.1617 19.751 14.4417 20.003C14.7264 20.255 15.1557 20.381 15.7297 20.381C16.2291 20.381 16.7004 20.3227 17.1437 20.206C17.5871 20.0893 17.9791 19.926 18.3197 19.716C18.6651 19.506 18.9357 19.261 19.1317 18.981C19.3277 18.7057 19.4257 18.4093 19.4257 18.092C19.4257 17.826 19.3394 17.6323 19.1667 17.511C18.9987 17.3943 18.7654 17.336 18.4667 17.336C18.3827 17.336 18.2427 17.336 18.0467 17.336C17.8554 17.336 17.6407 17.336 17.4027 17.336C17.1647 17.336 16.9291 17.336 16.6957 17.336C16.4624 17.336 16.2571 17.336 16.0797 17.336C15.9024 17.336 15.7834 17.336 15.7227 17.336C15.3027 17.336 14.9317 17.2777 14.6097 17.161C14.2877 17.049 14.0357 16.888 13.8537 16.678C13.6764 16.468 13.5877 16.2183 13.5877 15.929C13.5877 15.6817 13.6577 15.46 13.7977 15.264C13.9424 15.0633 14.1361 14.893 14.3787 14.753C14.6214 14.6083 14.8991 14.4987 15.2117 14.424C15.5291 14.3447 15.8627 14.305 16.2127 14.305L16.2057 14.445C15.7531 14.445 15.4077 14.5383 15.1697 14.725C14.9364 14.907 14.8197 15.096 14.8197 15.292C14.8197 15.4787 14.8827 15.621 15.0087 15.719C15.1394 15.817 15.3074 15.8847 15.5127 15.922C15.7181 15.9593 15.9304 15.978 16.1497 15.978C16.3131 15.978 16.5114 15.978 16.7447 15.978C16.9827 15.9733 17.2161 15.971 17.4447 15.971C17.6734 15.9663 17.8531 15.964 17.9837 15.964C18.5391 15.964 19.0011 16.0853 19.3697 16.328C19.7384 16.566 19.9227 16.986 19.9227 17.588C19.9227 18.0967 19.7944 18.5423 19.5377 18.925C19.2857 19.3077 18.9497 19.625 18.5297 19.877C18.1144 20.1337 17.6524 20.325 17.1437 20.451C16.6397 20.577 16.1357 20.64 15.6317 20.64ZM17.1577 14.76C16.7284 14.76 16.3457 14.683 16.0097 14.529C15.6737 14.375 15.4077 14.1557 15.2117 13.871C15.0204 13.5863 14.9247 13.2457 14.9247 12.849C14.9247 12.401 15.0601 11.995 15.3307 11.631C15.6014 11.2623 15.9584 10.9707 16.4017 10.756C16.8497 10.5367 17.3351 10.427 17.8577 10.427C18.2824 10.427 18.6627 10.5087 18.9987 10.672C19.3347 10.8353 19.6007 11.0663 19.7967 11.365C19.9927 11.659 20.0907 12.0043 20.0907 12.401C20.0907 12.8443 19.9531 13.2457 19.6777 13.605C19.4071 13.9597 19.0501 14.242 18.6067 14.452C18.1634 14.6573 17.6804 14.76 17.1577 14.76ZM16.9897 14.529C17.1484 14.529 17.3071 14.459 17.4657 14.319C17.6291 14.179 17.7831 13.9947 17.9277 13.766C18.0771 13.5327 18.2077 13.2807 18.3197 13.01C18.4364 12.7347 18.5274 12.464 18.5927 12.198C18.6581 11.932 18.6907 11.6963 18.6907 11.491C18.6907 11.253 18.6371 11.0547 18.5297 10.896C18.4224 10.7327 18.2544 10.651 18.0257 10.651C17.8624 10.651 17.6991 10.7233 17.5357 10.868C17.3771 11.008 17.2254 11.1947 17.0807 11.428C16.9361 11.6567 16.8054 11.9063 16.6887 12.177C16.5767 12.4477 16.4881 12.716 16.4227 12.982C16.3574 13.248 16.3247 13.4813 16.3247 13.682C16.3247 13.92 16.3784 14.1207 16.4857 14.284C16.5931 14.4473 16.7611 14.529 16.9897 14.529ZM21.0077 10.49C21.2971 10.49 21.5374 10.581 21.7287 10.763C21.9201 10.9403 22.0157 11.1713 22.0157 11.456C22.0157 11.6893 21.9457 11.89 21.8057 12.058C21.6704 12.2213 21.4814 12.303 21.2387 12.303C21.0287 12.303 20.8467 12.2353 20.6927 12.1C20.5387 11.96 20.4617 11.7757 20.4617 11.547C20.4617 11.351 20.5247 11.19 20.6507 11.064C20.7767 10.938 20.9261 10.8633 21.0987 10.84C21.2107 10.854 21.3157 10.8937 21.4137 10.959C21.5117 11.0197 21.5887 11.1037 21.6447 11.211C21.5981 11.057 21.5071 10.9357 21.3717 10.847C21.2411 10.7583 21.0917 10.714 20.9237 10.714C20.7091 10.714 20.5061 10.77 20.3147 10.882C20.1281 10.994 19.9507 11.155 19.7827 11.365C19.6194 11.575 19.4654 11.8293 19.3207 12.128L19.1597 12.037C19.4071 11.519 19.6801 11.1317 19.9787 10.875C20.2821 10.6183 20.6251 10.49 21.0077 10.49Z" fill="#131313"/>
</svg>
