<svg width="24" height="24" viewBox="0 0 24 24" fill="none" xmlns="http://www.w3.org/2000/svg">
<path d="M5.07476 13.703V13.479H9.42176V13.703H5.07476ZM8.11976 6.297L11.7528 16.776H12.8168V17H8.30876V16.776H9.62476L6.95776 8.523L4.07376 16.776H5.59976V17H2.51976V16.776H3.81476L7.50376 6.297H8.11976ZM16.7883 20.64C16.3636 20.64 15.9576 20.605 15.5703 20.535C15.1829 20.465 14.8376 20.3553 14.5343 20.206C14.2309 20.0613 13.9906 19.8723 13.8133 19.639C13.6406 19.4103 13.5543 19.1327 13.5543 18.806C13.5543 18.5073 13.6289 18.2577 13.7783 18.057C13.9323 17.8563 14.1213 17.6977 14.3453 17.581C14.5739 17.469 14.8026 17.3873 15.0313 17.336C15.2646 17.2893 15.4606 17.266 15.6193 17.266H15.7873C15.5353 17.4013 15.3509 17.5833 15.2343 17.812C15.1223 18.0407 15.0663 18.3137 15.0663 18.631C15.0663 18.9343 15.1409 19.219 15.2903 19.485C15.4396 19.7557 15.6613 19.9727 15.9553 20.136C16.2539 20.304 16.6273 20.388 17.0753 20.388C17.4019 20.388 17.7146 20.3483 18.0133 20.269C18.3119 20.1943 18.5779 20.08 18.8113 19.926C19.0446 19.7767 19.2289 19.59 19.3643 19.366C19.4996 19.142 19.5673 18.883 19.5673 18.589C19.5673 18.3043 19.4879 18.0687 19.3293 17.882C19.1753 17.7 18.9676 17.5623 18.7063 17.469C18.4496 17.3803 18.1696 17.336 17.8663 17.336C17.7683 17.336 17.6096 17.336 17.3903 17.336C17.1756 17.336 16.9586 17.336 16.7393 17.336C16.5246 17.336 16.3659 17.336 16.2633 17.336C15.5773 17.336 15.0289 17.2357 14.6183 17.035C14.2076 16.8343 14.0023 16.5077 14.0023 16.055C14.0023 15.7843 14.0793 15.5533 14.2333 15.362C14.3873 15.1707 14.5949 15.0143 14.8563 14.893C15.1176 14.7717 15.4069 14.683 15.7243 14.627C16.0463 14.5663 16.3729 14.536 16.7043 14.536L16.6903 14.676C16.5503 14.676 16.3916 14.6923 16.2143 14.725C16.0416 14.753 15.8736 14.7997 15.7103 14.865C15.5516 14.9303 15.4209 15.012 15.3183 15.11C15.2156 15.2033 15.1643 15.3107 15.1643 15.432C15.1643 15.642 15.2833 15.7727 15.5213 15.824C15.7639 15.8753 16.0766 15.901 16.4593 15.901C16.6226 15.901 16.7766 15.901 16.9213 15.901C17.0706 15.8963 17.2153 15.894 17.3553 15.894C17.4953 15.8893 17.6329 15.887 17.7683 15.887C18.0296 15.887 18.2979 15.9173 18.5733 15.978C18.8486 16.034 19.1029 16.1437 19.3363 16.307C19.5743 16.4657 19.7656 16.6943 19.9103 16.993C20.0549 17.287 20.1273 17.672 20.1273 18.148C20.1273 18.596 20.0363 18.9763 19.8543 19.289C19.6769 19.6063 19.4296 19.863 19.1123 20.059C18.7996 20.2597 18.4426 20.4067 18.0413 20.5C17.6399 20.5933 17.2223 20.64 16.7883 20.64ZM16.6133 14.718C16.3053 14.718 15.9926 14.6783 15.6753 14.599C15.3579 14.5197 15.0639 14.396 14.7933 14.228C14.5226 14.0553 14.3056 13.8337 14.1423 13.563C13.9789 13.2877 13.8973 12.9563 13.8973 12.569C13.8973 12.1817 13.9789 11.8527 14.1423 11.582C14.3056 11.3113 14.5226 11.092 14.7933 10.924C15.0639 10.7513 15.3579 10.6253 15.6753 10.546C15.9926 10.4667 16.3053 10.427 16.6133 10.427C16.9259 10.427 17.2386 10.4667 17.5513 10.546C17.8639 10.6253 18.1509 10.7513 18.4123 10.924C18.6736 11.092 18.8836 11.3113 19.0423 11.582C19.2009 11.8527 19.2803 12.1817 19.2803 12.569C19.2803 12.9563 19.2009 13.2877 19.0423 13.563C18.8836 13.8337 18.6736 14.0553 18.4123 14.228C18.1509 14.396 17.8639 14.5197 17.5513 14.599C17.2386 14.6783 16.9259 14.718 16.6133 14.718ZM16.6133 14.494C16.8419 14.494 17.0286 14.4077 17.1733 14.235C17.3179 14.0623 17.4253 13.8313 17.4953 13.542C17.5653 13.248 17.6003 12.9237 17.6003 12.569C17.6003 12.205 17.5653 11.8783 17.4953 11.589C17.4253 11.2997 17.3179 11.071 17.1733 10.903C17.0286 10.735 16.8419 10.651 16.6133 10.651C16.3893 10.651 16.2049 10.735 16.0603 10.903C15.9156 11.071 15.8083 11.2997 15.7383 11.589C15.6683 11.8783 15.6333 12.205 15.6333 12.569C15.6333 12.9237 15.6519 13.248 15.6893 13.542C15.7313 13.8313 15.8199 14.0623 15.9553 14.235C16.0953 14.4077 16.3146 14.494 16.6133 14.494ZM20.6523 12.527C20.4469 12.527 20.2603 12.457 20.0923 12.317C19.9243 12.177 19.8403 11.9763 19.8403 11.715C19.8403 11.449 19.9266 11.2577 20.0993 11.141C20.2719 11.0197 20.4563 10.959 20.6523 10.959C20.8483 10.959 21.0349 11.0197 21.2123 11.141C21.3943 11.2577 21.4853 11.428 21.4853 11.652H21.2753C21.2753 11.414 21.1819 11.197 20.9953 11.001C20.8086 10.805 20.5473 10.707 20.2113 10.707C20.0293 10.707 19.8286 10.7513 19.6093 10.84C19.3946 10.924 19.1916 11.0733 19.0003 11.288C18.8136 11.5027 18.6736 11.8037 18.5803 12.191L18.4263 12.079C18.5196 11.673 18.6666 11.3557 18.8673 11.127C19.0726 10.8937 19.2943 10.7303 19.5323 10.637C19.7749 10.539 19.9966 10.49 20.1973 10.49C20.4679 10.49 20.6989 10.5483 20.8903 10.665C21.0863 10.777 21.2356 10.9217 21.3383 11.099C21.4456 11.2763 21.4993 11.4607 21.4993 11.652C21.4993 11.9833 21.4083 12.212 21.2263 12.338C21.0489 12.464 20.8576 12.527 20.6523 12.527Z" fill="#131313"/>
</svg>
