<svg width="24" height="24" viewBox="0 0 24 24" fill="none" xmlns="http://www.w3.org/2000/svg">
<path d="M4.30684 13.71V13.486H8.54884V13.71H4.30684ZM7.62484 6.297L11.2648 16.776H12.3218V17H7.51984V16.776H8.74484L6.14084 8.733L3.32684 16.776H4.85284V17H1.76584V16.776H3.06784L6.76384 6.297H7.62484ZM16.2891 20.64C15.8598 20.64 15.4468 20.605 15.0501 20.535C14.6534 20.4697 14.2964 20.3647 13.9791 20.22C13.6664 20.08 13.4168 19.8957 13.2301 19.667C13.0481 19.443 12.9571 19.17 12.9571 18.848C12.9571 18.5587 13.0364 18.3183 13.1951 18.127C13.3538 17.9403 13.5498 17.7933 13.7831 17.686C14.0164 17.5787 14.2521 17.504 14.4901 17.462C14.7281 17.42 14.9264 17.399 15.0851 17.399H15.2531C15.0431 17.5157 14.8844 17.6767 14.7771 17.882C14.6698 18.092 14.6161 18.3487 14.6161 18.652C14.6161 18.96 14.6908 19.2447 14.8401 19.506C14.9894 19.772 15.2134 19.9843 15.5121 20.143C15.8108 20.3017 16.1888 20.381 16.6461 20.381C16.9541 20.381 17.2528 20.346 17.5421 20.276C17.8361 20.2107 18.0998 20.108 18.3331 19.968C18.5711 19.8327 18.7601 19.6577 18.9001 19.443C19.0401 19.233 19.1101 18.9833 19.1101 18.694C19.1101 18.4 19.0284 18.1643 18.8651 17.987C18.7064 17.8097 18.4964 17.679 18.2351 17.595C17.9738 17.5157 17.6914 17.476 17.3881 17.476C17.2901 17.476 17.1314 17.476 16.9121 17.476C16.6974 17.476 16.4804 17.476 16.2611 17.476C16.0464 17.476 15.8878 17.476 15.7851 17.476C15.0664 17.476 14.4901 17.3663 14.0561 17.147C13.6221 16.9277 13.4051 16.58 13.4051 16.104C13.4051 15.8193 13.4868 15.579 13.6501 15.383C13.8181 15.1823 14.0398 15.0237 14.3151 14.907C14.5904 14.7857 14.8938 14.6993 15.2251 14.648C15.5564 14.592 15.8878 14.564 16.2191 14.564L16.2051 14.683C16.0744 14.683 15.9228 14.6993 15.7501 14.732C15.5774 14.76 15.4094 14.8043 15.2461 14.865C15.0874 14.921 14.9544 14.9933 14.8471 15.082C14.7444 15.166 14.6931 15.264 14.6931 15.376C14.6931 15.5627 14.8074 15.684 15.0361 15.74C15.2694 15.7913 15.5774 15.817 15.9601 15.817C16.1234 15.817 16.2844 15.817 16.4431 15.817C16.6064 15.8123 16.7651 15.81 16.9191 15.81C17.0731 15.8053 17.2154 15.803 17.3461 15.803C17.6074 15.803 17.8781 15.838 18.1581 15.908C18.4428 15.9733 18.7064 16.0923 18.9491 16.265C19.1918 16.433 19.3878 16.671 19.5371 16.979C19.6864 17.2823 19.7611 17.672 19.7611 18.148C19.7611 18.6007 19.6678 18.9857 19.4811 19.303C19.2991 19.6203 19.0448 19.877 18.7181 20.073C18.3961 20.269 18.0251 20.4113 17.6051 20.5C17.1898 20.5933 16.7511 20.64 16.2891 20.64ZM16.1561 14.732C15.8294 14.732 15.4981 14.6923 15.1621 14.613C14.8308 14.529 14.5228 14.403 14.2381 14.235C13.9581 14.0623 13.7318 13.8407 13.5591 13.57C13.3864 13.2947 13.3001 12.9633 13.3001 12.576C13.3001 12.1887 13.3864 11.8597 13.5591 11.589C13.7318 11.3137 13.9581 11.092 14.2381 10.924C14.5228 10.7513 14.8308 10.6253 15.1621 10.546C15.4981 10.4667 15.8294 10.427 16.1561 10.427C16.4874 10.427 16.8188 10.4667 17.1501 10.546C17.4814 10.6253 17.7848 10.7513 18.0601 10.924C18.3354 11.092 18.5571 11.3137 18.7251 11.589C18.8931 11.8597 18.9771 12.1887 18.9771 12.576C18.9771 12.9633 18.8931 13.2947 18.7251 13.57C18.5571 13.8407 18.3354 14.0623 18.0601 14.235C17.7848 14.403 17.4814 14.529 17.1501 14.613C16.8188 14.6923 16.4874 14.732 16.1561 14.732ZM16.1561 14.508C16.3521 14.508 16.5108 14.4217 16.6321 14.249C16.7581 14.0763 16.8491 13.8453 16.9051 13.556C16.9658 13.262 16.9961 12.9353 16.9961 12.576C16.9961 12.198 16.9658 11.8643 16.9051 11.575C16.8491 11.2857 16.7581 11.0593 16.6321 10.896C16.5108 10.7327 16.3521 10.651 16.1561 10.651C15.9648 10.651 15.8061 10.7327 15.6801 10.896C15.5588 11.0593 15.4678 11.2857 15.4071 11.575C15.3464 11.8643 15.3161 12.198 15.3161 12.576C15.3161 12.9353 15.3348 13.262 15.3721 13.556C15.4094 13.8453 15.4864 14.0763 15.6031 14.249C15.7198 14.4217 15.9041 14.508 16.1561 14.508ZM20.3631 12.667C20.1344 12.667 19.9291 12.5923 19.7471 12.443C19.5698 12.289 19.4811 12.0697 19.4811 11.785C19.4811 11.5003 19.5721 11.2927 19.7541 11.162C19.9408 11.0267 20.1438 10.959 20.3631 10.959C20.5684 10.959 20.7691 11.0267 20.9651 11.162C21.1658 11.2927 21.2661 11.4793 21.2661 11.722H21.0491C21.0491 11.4607 20.9441 11.2273 20.7341 11.022C20.5288 10.812 20.2464 10.707 19.8871 10.707C19.7004 10.707 19.4974 10.7513 19.2781 10.84C19.0634 10.924 18.8628 11.0733 18.6761 11.288C18.4894 11.498 18.3494 11.7943 18.2561 12.177L18.1021 12.065C18.1954 11.6637 18.3424 11.3487 18.5431 11.12C18.7438 10.8867 18.9631 10.7233 19.2011 10.63C19.4391 10.5367 19.6631 10.49 19.8731 10.49C20.1718 10.49 20.4261 10.5507 20.6361 10.672C20.8461 10.7933 21.0048 10.9497 21.1121 11.141C21.2241 11.3277 21.2801 11.5213 21.2801 11.722C21.2801 12.072 21.1844 12.317 20.9931 12.457C20.8018 12.597 20.5918 12.667 20.3631 12.667Z" fill="#131313"/>
</svg>
