<svg width="24" height="24" viewBox="0 0 24 24" fill="none" xmlns="http://www.w3.org/2000/svg">
<path d="M4.14064 13.731V13.507H8.09564V13.731H4.14064ZM8.15164 6.297L11.7846 16.776H12.8416V17H7.29064V16.776H8.29164L5.85564 9.265L3.20264 16.776H4.72864V17H1.63464V16.776H2.93664L6.65364 6.297H8.15164ZM16.7911 20.64C16.3524 20.64 15.9207 20.6073 15.4961 20.542C15.0761 20.4813 14.6934 20.3857 14.3481 20.255C14.0027 20.1243 13.7274 19.9493 13.5221 19.73C13.3214 19.5153 13.2211 19.254 13.2211 18.946C13.2211 18.68 13.3074 18.4653 13.4801 18.302C13.6574 18.1433 13.8721 18.022 14.1241 17.938C14.3807 17.854 14.6351 17.798 14.8871 17.77C15.1391 17.742 15.3421 17.728 15.4961 17.728H15.6711C15.5684 17.7933 15.4727 17.9053 15.3841 18.064C15.2954 18.2273 15.2511 18.4397 15.2511 18.701C15.2511 19.0183 15.3257 19.303 15.4751 19.555C15.6244 19.8117 15.8507 20.0123 16.1541 20.157C16.4621 20.3017 16.8517 20.374 17.3231 20.374C17.5844 20.374 17.8527 20.3507 18.1281 20.304C18.4081 20.2573 18.6671 20.1803 18.9051 20.073C19.1477 19.9657 19.3437 19.8187 19.4931 19.632C19.6424 19.45 19.7171 19.2237 19.7171 18.953C19.7171 18.6497 19.6331 18.4163 19.4651 18.253C19.2971 18.0897 19.0777 17.9777 18.8071 17.917C18.5411 17.8563 18.2564 17.826 17.9531 17.826C17.8551 17.826 17.6964 17.826 17.4771 17.826C17.2624 17.826 17.0454 17.826 16.8261 17.826C16.6114 17.826 16.4527 17.826 16.3501 17.826C15.5474 17.826 14.8987 17.693 14.4041 17.427C13.9141 17.1657 13.6691 16.7667 13.6691 16.23C13.6691 15.8987 13.7647 15.6303 13.9561 15.425C14.1521 15.215 14.4041 15.054 14.7121 14.942C15.0247 14.8253 15.3607 14.746 15.7201 14.704C16.0794 14.662 16.4247 14.641 16.7561 14.641L16.7491 14.718C16.6324 14.718 16.4901 14.7297 16.3221 14.753C16.1587 14.7717 15.9977 14.8043 15.8391 14.851C15.6804 14.893 15.5474 14.9467 15.4401 15.012C15.3327 15.0727 15.2791 15.1473 15.2791 15.236C15.2791 15.3713 15.3794 15.467 15.5801 15.523C15.7854 15.579 16.0794 15.607 16.4621 15.607C16.6254 15.607 16.8051 15.607 17.0011 15.607C17.1971 15.6023 17.3884 15.6 17.5751 15.6C17.7617 15.5953 17.9204 15.593 18.0511 15.593C18.3124 15.593 18.5901 15.6373 18.8841 15.726C19.1781 15.8147 19.4534 15.9593 19.7101 16.16C19.9714 16.356 20.1837 16.6173 20.3471 16.944C20.5104 17.2707 20.5921 17.672 20.5921 18.148C20.5921 18.6147 20.4941 19.0067 20.2981 19.324C20.1067 19.646 19.8361 19.9027 19.4861 20.094C19.1407 20.2853 18.7371 20.423 18.2751 20.507C17.8177 20.5957 17.3231 20.64 16.7911 20.64ZM16.7701 14.76C16.4014 14.76 16.0281 14.7203 15.6501 14.641C15.2721 14.557 14.9244 14.4287 14.6071 14.256C14.2944 14.0833 14.0424 13.8593 13.8511 13.584C13.6597 13.3087 13.5641 12.9773 13.5641 12.59C13.5641 12.2027 13.6597 11.8737 13.8511 11.603C14.0424 11.3277 14.2944 11.1037 14.6071 10.931C14.9244 10.7583 15.2721 10.6323 15.6501 10.553C16.0281 10.469 16.4014 10.427 16.7701 10.427C17.1434 10.427 17.5167 10.469 17.8901 10.553C18.2681 10.6323 18.6134 10.7583 18.9261 10.931C19.2434 11.1037 19.4977 11.3277 19.6891 11.603C19.8804 11.8737 19.9761 12.2027 19.9761 12.59C19.9761 12.9773 19.8804 13.3087 19.6891 13.584C19.4977 13.8593 19.2434 14.0833 18.9261 14.256C18.6134 14.4287 18.2681 14.557 17.8901 14.641C17.5167 14.7203 17.1434 14.76 16.7701 14.76ZM16.7701 14.536C16.8821 14.536 16.9731 14.452 17.0431 14.284C17.1131 14.1113 17.1644 13.878 17.1971 13.584C17.2297 13.29 17.2461 12.9587 17.2461 12.59C17.2461 12.1747 17.2297 11.8223 17.1971 11.533C17.1644 11.2437 17.1131 11.0243 17.0431 10.875C16.9731 10.7257 16.8821 10.651 16.7701 10.651C16.6581 10.651 16.5671 10.7257 16.4971 10.875C16.4271 11.0243 16.3757 11.2437 16.3431 11.533C16.3104 11.8223 16.2941 12.1747 16.2941 12.59C16.2941 12.9587 16.3057 13.29 16.3291 13.584C16.3524 13.878 16.3967 14.1113 16.4621 14.284C16.5321 14.452 16.6347 14.536 16.7701 14.536ZM21.3831 13.017C21.1031 13.017 20.8557 12.926 20.6411 12.744C20.4311 12.5573 20.3261 12.296 20.3261 11.96C20.3261 11.6193 20.4334 11.3673 20.6481 11.204C20.8627 11.0407 21.1077 10.959 21.3831 10.959C21.6211 10.959 21.8591 11.0407 22.0971 11.204C22.3397 11.3673 22.4611 11.5983 22.4611 11.897H22.2441C22.2441 11.575 22.1134 11.2973 21.8521 11.064C21.5954 10.826 21.2571 10.707 20.8371 10.707C20.6364 10.707 20.4264 10.7513 20.2071 10.84C19.9924 10.924 19.7917 11.071 19.6051 11.281C19.4231 11.491 19.2854 11.7803 19.1921 12.149L19.0381 12.037C19.1314 11.645 19.2737 11.337 19.4651 11.113C19.6564 10.8843 19.8711 10.7233 20.1091 10.63C20.3471 10.5367 20.5827 10.49 20.8161 10.49C21.1847 10.49 21.4904 10.56 21.7331 10.7C21.9804 10.84 22.1647 11.0197 22.2861 11.239C22.4121 11.4537 22.4751 11.673 22.4751 11.897C22.4751 12.2983 22.3631 12.5853 22.1391 12.758C21.9151 12.9307 21.6631 13.017 21.3831 13.017Z" fill="#131313"/>
</svg>
