<svg width="24" height="24" viewBox="0 0 24 24" fill="none" xmlns="http://www.w3.org/2000/svg">
<path d="M11.6929 13.9559C11.7209 14.0212 11.7116 14.1379 11.6649 14.3059C11.6276 14.4646 11.5669 14.5859 11.4829 14.6699C11.2963 14.8472 10.9043 15.1132 10.3069 15.4679C9.71894 15.8132 9.39227 15.9906 9.32694 15.9999C9.1496 16.0186 9.04694 15.9299 9.01894 15.7339C8.94427 14.7819 8.87427 13.9839 8.80894 13.3399C8.24894 13.2932 7.46027 13.2092 6.44294 13.0879C6.36827 13.2932 6.2936 13.5219 6.21894 13.7739C6.14427 14.0539 6.1396 14.2452 6.20494 14.3479C6.2796 14.4412 6.36827 14.5252 6.47094 14.5999C6.5736 14.6746 6.6156 14.7492 6.59694 14.8239C6.5596 14.9919 6.36827 15.2299 6.02294 15.5379C5.68694 15.8366 5.37427 15.9859 5.08494 15.9859C4.91694 15.9859 4.6276 15.7852 4.21694 15.3839C3.80627 14.9826 3.62427 14.6839 3.67094 14.4879C3.70827 14.2919 3.9696 13.7599 4.45494 12.8919C4.21227 12.8919 4.0396 12.9012 3.93694 12.9199C3.76894 12.9386 3.62894 13.0599 3.51694 13.2839C3.41427 13.4986 3.3396 13.6059 3.29294 13.6059C3.20894 13.6059 3.13894 13.5032 3.08294 13.2979C3.02694 13.0926 2.99894 12.9152 2.99894 12.7659C2.9896 12.4952 3.33027 12.0846 4.02094 11.5339C4.72094 10.9739 5.21094 10.6939 5.49094 10.6939C5.61227 10.6939 5.70094 10.6986 5.75694 10.7079C6.3076 9.83059 6.7696 9.13992 7.14294 8.63592C7.03094 8.54259 6.9236 8.49592 6.82094 8.49592C6.69027 8.50525 6.59227 8.58459 6.52694 8.73392C6.4616 8.87392 6.41494 8.94392 6.38694 8.94392C6.2936 8.94392 6.22827 8.85992 6.19094 8.69192C6.16294 8.51459 6.21894 8.25325 6.35894 7.90792C6.49894 7.55325 6.7416 7.18925 7.08694 6.81592C7.45094 6.49859 7.86627 6.19525 8.33294 5.90592C8.7996 5.61659 9.08894 5.47192 9.20094 5.47192C9.34094 5.47192 9.51827 5.61659 9.73294 5.90592C9.95694 6.18592 10.1856 6.59659 10.4189 7.13792C10.6523 7.66992 10.8669 8.27659 11.0629 8.95792C11.2683 9.62992 11.4316 10.4139 11.5529 11.3099C11.6743 12.1966 11.7209 13.0786 11.6929 13.9559ZM7.18494 11.0439C7.2596 11.0626 7.71227 11.2212 8.54294 11.5199C8.4216 10.9412 8.28627 10.4979 8.13694 10.1899C8.0716 10.0406 7.97827 9.84459 7.85694 9.60192C7.6236 10.0406 7.3996 10.5212 7.18494 11.0439ZM19.5802 9.55992C19.6642 9.59725 19.7249 9.66259 19.7622 9.75592C19.7995 9.83992 19.8135 9.91459 19.8042 9.97992V10.0919C19.8042 10.2692 19.5055 11.4312 18.9082 13.5779C18.3202 15.7152 17.9702 16.9472 17.8582 17.2739C17.6809 17.7779 17.2235 18.2726 16.4862 18.7579C15.7582 19.2432 15.0769 19.4859 14.4422 19.4859C14.0875 19.4859 13.6162 19.2479 13.0282 18.7719C12.4495 18.3052 12.1602 17.8339 12.1602 17.3579C12.1602 17.0219 12.2955 16.6766 12.5662 16.3219C12.8462 15.9766 13.2009 15.6732 13.6302 15.4119C13.2102 15.2532 12.8322 14.9919 12.4962 14.6279C12.1602 14.2639 11.9922 13.9559 11.9922 13.7039C11.9922 12.9386 12.1789 12.1732 12.5522 11.4079C12.9255 10.6426 13.3175 10.0499 13.7282 9.62992C14.1482 9.20992 14.4655 8.99992 14.6802 8.99992C15.2122 8.99992 15.7395 9.07459 16.2622 9.22392C16.7849 9.37325 17.1535 9.57392 17.3682 9.82592C17.3682 9.83525 17.3729 9.84925 17.3822 9.86792C17.6062 9.37325 17.7695 9.12592 17.8722 9.12592C18.0775 9.12592 18.3622 9.17259 18.7262 9.26592C19.0995 9.35925 19.3842 9.45725 19.5802 9.55992ZM16.6402 9.90992C16.3322 9.90992 15.9915 10.3532 15.6182 11.2399C15.2262 12.1639 15.0349 12.9339 15.0442 13.5499C15.0535 13.8859 15.1422 14.0539 15.3102 14.0539C15.5062 14.0539 15.9122 13.2279 16.5282 11.5759C16.5562 11.5012 16.5842 11.4079 16.6122 11.2959C16.6495 11.1839 16.6962 11.0066 16.7522 10.7639C16.8175 10.5212 16.8409 10.3206 16.8222 10.1619C16.8129 9.99392 16.7522 9.90992 16.6402 9.90992ZM13.7842 18.4499C14.0455 18.4499 14.3722 18.0299 14.7642 17.1899C15.1655 16.3499 15.5529 15.3886 15.9262 14.3059H15.8562C15.2589 15.0152 14.7735 15.4259 14.4002 15.5379C13.9242 16.3686 13.6582 17.1479 13.6022 17.8759C13.5649 18.2586 13.6255 18.4499 13.7842 18.4499Z" fill="#131313"/>
</svg>
