<svg width="24" height="24" viewBox="0 0 24 24" fill="none" xmlns="http://www.w3.org/2000/svg">
<path d="M12.5035 17.072C12.4991 17.1287 12.3792 17.157 12.1439 17.157H11.5423L11.1369 17.1636H10.738L10.1038 17.1701C9.47169 17.1701 8.94642 17.1548 8.52794 17.1243C8.51486 17.12 8.4996 17.0938 8.48217 17.0459L8.44947 16.9086C8.41024 16.4596 8.3078 16.0258 8.14215 15.6074L5.34358 15.6335C5.32614 15.7076 5.26947 15.9277 5.17357 16.2939C5.07767 16.6601 5.00575 16.9369 4.9578 17.1243C4.9142 17.1679 4.70714 17.1897 4.33662 17.1897L4.17315 17.1832H3.7939L2.09384 17.2224H1.89767L1.71459 17.229H1.25688C1.22636 17.1984 1.19367 17.1592 1.1588 17.1113C1.59471 15.603 2.18538 13.7329 2.93079 11.501L3.08118 11.0368H3.07464L3.25119 10.4941C3.30786 10.3197 3.46915 9.83582 3.73505 9.04245C4.00532 8.24909 4.17315 7.73689 4.23854 7.50585C4.30828 7.27482 4.34969 7.15494 4.36277 7.14622H5.4482L7.76945 7.11353L8.39716 7.14622L8.91372 7.11353C9.17527 7.11353 9.30605 7.16584 9.30605 7.27046C9.74196 8.48666 10.3239 10.2369 11.0519 12.5211C11.7799 14.8053 12.1896 16.089 12.2812 16.3724L12.3727 16.6993C12.4032 16.817 12.4468 16.9413 12.5035 17.072ZM6.03015 13.5019L6.29823 13.5084L7.86099 13.5019C7.7956 12.9831 7.74547 12.6017 7.7106 12.3576L7.46213 11.2395C7.20058 10.0843 7.06544 9.49581 7.05673 9.47401C7.04801 9.45221 7.03929 9.4326 7.03057 9.41516C7.02621 9.39337 7.02185 9.38029 7.01749 9.37593C7.01313 9.36721 7.0066 9.35413 6.99788 9.3367C6.99352 9.31926 6.98698 9.30836 6.97826 9.304C6.9739 9.29529 6.96736 9.28438 6.95865 9.27131C6.92813 9.219 6.86492 9.17323 6.76902 9.134C6.65133 9.16015 6.30041 10.4723 5.71629 13.0703L5.64436 13.5019H6.03015ZM18.2249 16.1762L18.251 15.797C18.251 15.7316 18.2314 15.555 18.1922 15.2673C18.1355 15.3676 18.057 15.4679 17.9568 15.5681C17.8609 15.6684 17.7802 15.7272 17.7148 15.7447C17.2397 15.9539 16.6621 16.0585 15.9821 16.0585C15.3064 16.0585 14.6983 15.9212 14.1578 15.6466C13.6216 15.3676 13.19 14.9666 12.8631 14.4435C12.5405 13.9204 12.3792 13.3624 12.3792 12.7695C12.3792 12.1767 12.4664 11.6514 12.6408 11.1937C12.8195 10.7316 13.0658 10.3306 13.3797 9.99057C13.6979 9.65056 14.0902 9.38247 14.5566 9.18631C15.0231 8.99014 15.5331 8.89206 16.0867 8.89206C16.9716 8.89206 17.7105 9.13836 18.3033 9.63094C18.4123 9.74864 18.5256 9.84672 18.6433 9.92518L18.7349 9.63748V9.17977H20.4284L22.1285 9.17323L22.135 15.2739C22.135 15.348 22.1307 15.4635 22.1219 15.6204V15.6466C22.1176 15.7294 22.1154 15.8602 22.1154 16.0389V16.1108L22.1285 16.4574L22.0892 16.8236C22.0892 16.8454 22.0892 16.8584 22.0892 16.8628C22.0936 16.8671 22.0762 16.9652 22.0369 17.157C21.9977 17.3488 21.9498 17.5188 21.8931 17.667C21.7144 18.1466 21.3591 18.5825 20.8273 18.9748C20.2955 19.3715 19.8334 19.5982 19.4411 19.6548C19.3975 19.6984 19.3125 19.7311 19.1861 19.7529C19.0596 19.7791 18.9834 19.7965 18.9572 19.8052V19.7987C18.5344 19.9382 18.129 20.0079 17.741 20.0079C17.3574 20.0079 17.1591 20.0036 17.146 19.9948H16.9498C16.9106 20.0079 16.806 20.0145 16.636 20.0145C16.4703 20.0145 16.1652 19.9643 15.7205 19.8641L15.5113 19.8183C15.1931 19.7529 14.9032 19.6592 14.6416 19.5371C14.0226 19.2887 13.5366 18.9574 13.1835 18.5432C12.8304 18.1291 12.5907 17.5559 12.4642 16.8236L12.4512 16.7647C12.5907 16.7734 12.7955 16.7778 13.0658 16.7778L14.1382 16.7582H17.0348L17.0283 16.7843C17.0283 17.011 17.0762 17.2159 17.1721 17.399C17.2724 17.5864 17.4032 17.6801 17.5645 17.6801C17.8478 17.6801 18.0396 17.5188 18.1399 17.1963C18.2183 16.9434 18.2576 16.6753 18.2576 16.392V16.2612C18.2445 16.2612 18.2379 16.2699 18.2379 16.2874C18.2292 16.2743 18.2249 16.2372 18.2249 16.1762ZM18.4079 12.6192L18.4145 12.5407C18.3753 11.2765 18.0963 10.6445 17.5775 10.6445C17.4293 10.6445 17.2985 10.699 17.1852 10.8079C17.0021 10.9823 16.8757 11.2438 16.806 11.5926C16.7406 11.9413 16.7079 12.2443 16.7079 12.5015L16.7275 12.7303V12.7892L16.721 12.8349V12.8742C16.721 13.2316 16.806 13.5803 16.976 13.9204C17.146 14.256 17.3618 14.4238 17.6233 14.4238C17.911 14.4238 18.1508 14.0664 18.3426 13.3515H18.3099C18.3753 13.1815 18.4079 13.0071 18.4079 12.8284V12.6192Z" fill="#131313"/>
</svg>
