<svg width="24" height="24" viewBox="0 0 24 24" fill="none" xmlns="http://www.w3.org/2000/svg">
<path d="M12.9217 16.37L12.7817 17H9.5617V16.51L10.5557 16.202L9.6597 13.92H5.8097L4.9557 16.16L6.0897 16.37L5.9497 17H3.1357V16.51L4.1297 16.16L7.5037 7.19995H8.5257L11.9417 16.132L12.9217 16.37ZM6.0897 13.15H9.3797L7.7277 8.82395L6.0897 13.15ZM16.4213 14.746C16.2719 14.746 16.1226 14.7413 15.9733 14.732C15.8239 14.7133 15.6746 14.6853 15.5253 14.648C15.3666 14.7693 15.2313 14.9093 15.1193 15.068C15.0073 15.2267 14.9513 15.3947 14.9513 15.572C14.9513 15.7307 15.0259 15.866 15.1753 15.978C15.3246 16.0807 15.5533 16.1367 15.8613 16.146H18.4933C19.0906 16.1647 19.5153 16.3187 19.7673 16.608C20.0286 16.888 20.1593 17.224 20.1593 17.616C20.1593 18.064 20.0333 18.4653 19.7813 18.82C19.5386 19.1747 19.2119 19.4733 18.8013 19.716C18.3999 19.9587 17.9519 20.1407 17.4573 20.262C16.9626 20.3927 16.4679 20.458 15.9733 20.458C15.1333 20.458 14.4566 20.304 13.9433 19.996C13.4393 19.6973 13.1873 19.2307 13.1873 18.596C13.1873 18.2413 13.2946 17.9287 13.5093 17.658C13.7333 17.3967 14.0319 17.1447 14.4053 16.902C14.0319 16.6407 13.8453 16.286 13.8453 15.838C13.8453 15.5953 13.9293 15.3433 14.0973 15.082C14.2746 14.8207 14.5219 14.5967 14.8393 14.41C14.4286 14.2233 14.0926 13.9573 13.8313 13.612C13.5699 13.2667 13.4393 12.814 13.4393 12.254C13.4393 11.6193 13.5746 11.106 13.8453 10.714C14.1159 10.322 14.4753 10.0373 14.9233 9.85995C15.3806 9.67328 15.8753 9.57995 16.4073 9.57995C16.7713 9.57995 17.1119 9.62662 17.4293 9.71995C17.7559 9.81328 18.0406 9.95795 18.2833 10.154C18.4139 10.154 18.6099 10.1493 18.8713 10.14C19.1326 10.1213 19.3986 10.1027 19.6693 10.084C19.8279 10.0747 19.9866 10.0653 20.1453 10.056C20.3133 10.0373 20.4859 10.0233 20.6633 10.014V10.98L18.9133 10.938C19.0066 11.1247 19.0719 11.33 19.1093 11.554C19.1466 11.7687 19.1653 12.002 19.1653 12.254C19.1653 12.87 19.0346 13.36 18.7733 13.724C18.5119 14.088 18.1713 14.3493 17.7513 14.508C17.3313 14.6667 16.8879 14.746 16.4213 14.746ZM16.4493 13.976C16.9159 13.976 17.2519 13.8127 17.4573 13.486C17.6626 13.1593 17.7653 12.7487 17.7653 12.254C17.7653 11.7313 17.6486 11.2787 17.4153 10.896C17.1819 10.5133 16.8133 10.322 16.3093 10.322C15.8239 10.322 15.4553 10.4993 15.2033 10.854C14.9513 11.2087 14.8253 11.6613 14.8253 12.212C14.8253 12.716 14.9513 13.136 15.2033 13.472C15.4646 13.808 15.8799 13.976 16.4493 13.976ZM16.1553 17.336C15.6793 17.336 15.2733 17.2753 14.9373 17.154C14.6199 17.5273 14.4613 17.882 14.4613 18.218C14.4613 18.7593 14.6573 19.1327 15.0493 19.338C15.4506 19.5433 15.9593 19.646 16.5753 19.646C17.0139 19.646 17.4339 19.576 17.8353 19.436C18.2366 19.296 18.5633 19.1047 18.8153 18.862C19.0673 18.6287 19.1933 18.3767 19.1933 18.106C19.1933 17.8353 19.0999 17.6393 18.9133 17.518C18.7266 17.3967 18.3626 17.336 17.8213 17.336H16.1553Z" fill="#131313"/>
</svg>
