<svg width="24" height="24" viewBox="0 0 24 24" fill="none" xmlns="http://www.w3.org/2000/svg">
<path d="M3.81066 12.758V13.192H9.27066V12.758C9.27066 12.506 9.24733 12.2727 9.20066 12.058C9.16333 11.8433 9.112 11.6427 9.04666 11.456L8.08066 9.17403C7.978 8.93136 7.87066 8.7307 7.75866 8.57203C7.64666 8.40403 7.46 8.32003 7.19866 8.32003H5.82666C5.54666 8.32003 5.35066 8.40403 5.23866 8.57203C5.12666 8.7307 5.024 8.9267 4.93066 9.16003L4.03466 11.456C3.96933 11.6427 3.91333 11.8433 3.86666 12.058C3.82933 12.2727 3.81066 12.506 3.81066 12.758ZM6.05066 9.86003C6.088 9.77603 6.12533 9.71536 6.16266 9.67803C6.20933 9.6407 6.26066 9.62203 6.31666 9.62203H6.66666C6.72266 9.62203 6.76933 9.6407 6.80666 9.67803C6.85333 9.71536 6.89533 9.77603 6.93266 9.86003L7.59066 11.988H5.39266L6.05066 9.86003ZM6.79266 9.90203L6.80666 9.91603C6.788 9.8787 6.76933 9.84603 6.75066 9.81803C6.732 9.7807 6.704 9.76203 6.66666 9.76203H6.31666C6.27933 9.76203 6.25133 9.7807 6.23266 9.81803C6.214 9.84603 6.19533 9.8787 6.17666 9.91603L6.19066 9.90203L5.58866 11.848H7.39466L6.79266 9.90203ZM9.27066 15.74V13.332H3.81066V15.74H3.67066V12.758C3.67066 12.4967 3.68933 12.2587 3.72666 12.044C3.77333 11.82 3.834 11.6053 3.90866 11.4L4.80466 9.10403C4.90733 8.8427 5.024 8.62336 5.15466 8.44603C5.28533 8.2687 5.50933 8.18003 5.82666 8.18003H7.19866C7.50666 8.18003 7.72133 8.2687 7.84266 8.44603C7.97333 8.62336 8.09466 8.84736 8.20666 9.11803L9.17266 11.4C9.24733 11.6053 9.30333 11.82 9.34066 12.044C9.38733 12.2587 9.41066 12.4967 9.41066 12.758V15.74H9.27066ZM5.25266 16.496V14.536H7.73066V16.496C7.73066 16.6733 7.77266 16.804 7.85666 16.888C7.95 16.9627 8.09 17 8.27666 17H10.3907C10.568 17 10.694 16.9627 10.7687 16.888C10.8527 16.804 10.8947 16.6733 10.8947 16.496V12.8C10.8947 12.52 10.848 12.198 10.7547 11.834C10.6707 11.47 10.5353 11.0453 10.3487 10.56L9.13066 7.38203C9.07466 7.22336 8.986 7.1067 8.86466 7.03203C8.75266 6.95736 8.608 6.92003 8.43066 6.92003H4.66466C4.478 6.92003 4.324 6.95736 4.20266 7.03203C4.09066 7.1067 4.00666 7.22336 3.95066 7.38203L2.73266 10.56C2.546 11.0453 2.406 11.47 2.31266 11.834C2.22866 12.198 2.18666 12.52 2.18666 12.8V16.496C2.18666 16.6733 2.224 16.804 2.29866 16.888C2.38266 16.9627 2.51333 17 2.69066 17H4.74866C4.926 17 5.052 16.9627 5.12666 16.888C5.21066 16.804 5.25266 16.6733 5.25266 16.496ZM2.69066 17.14C2.46666 17.14 2.30333 17.0887 2.20066 16.986C2.098 16.8833 2.04666 16.72 2.04666 16.496V12.8C2.04666 12.5107 2.08866 12.184 2.17266 11.82C2.266 11.4467 2.41066 11.008 2.60666 10.504L3.82466 7.34003C3.89 7.14403 3.988 7.00403 4.11866 6.92003C4.25866 6.8267 4.44066 6.78003 4.66466 6.78003H8.43066C8.64533 6.78003 8.818 6.8267 8.94866 6.92003C9.08866 7.00403 9.19133 7.13936 9.25666 7.32603L10.4747 10.504C10.6707 11.008 10.8107 11.4467 10.8947 11.82C10.988 12.184 11.0347 12.5107 11.0347 12.8V16.496C11.0347 16.72 10.9833 16.8833 10.8807 16.986C10.778 17.0887 10.6147 17.14 10.3907 17.14H8.27666C8.04333 17.14 7.87066 17.0887 7.75866 16.986C7.64666 16.874 7.59066 16.7107 7.59066 16.496V14.676H5.39266V16.496C5.39266 16.72 5.34133 16.8833 5.23866 16.986C5.136 17.0887 4.97266 17.14 4.74866 17.14H2.69066ZM15.9132 17.14C14.6906 17.14 13.7852 16.8927 13.1972 16.398C12.6186 15.9033 12.3292 15.152 12.3292 14.144V9.77603C12.3292 8.76803 12.6186 8.0167 13.1972 7.52203C13.7852 7.02736 14.6906 6.78003 15.9132 6.78003H19.4132C19.6372 6.78003 19.8006 6.83136 19.9032 6.93403C20.0059 7.0367 20.0572 7.20003 20.0572 7.42403V9.11803C20.0572 9.34203 20.0059 9.50536 19.9032 9.60803C19.8006 9.7107 19.6372 9.76203 19.4132 9.76203H16.5012C16.2679 9.76203 16.0906 9.8087 15.9692 9.90203C15.8479 9.98603 15.7872 10.126 15.7872 10.322V13.668C15.7872 13.8547 15.8246 13.9947 15.8992 14.088C15.9832 14.172 16.1139 14.214 16.2912 14.214H17.5092V12.17C17.5092 11.946 17.5606 11.7827 17.6632 11.68C17.7659 11.5773 17.9292 11.526 18.1532 11.526H20.3232C20.5472 11.526 20.7106 11.5773 20.8132 11.68C20.9159 11.7827 20.9672 11.946 20.9672 12.17V16.496C20.9672 16.72 20.9159 16.8833 20.8132 16.986C20.7106 17.0887 20.5472 17.14 20.3232 17.14H15.9132ZM20.3232 17C20.5006 17 20.6266 16.9627 20.7012 16.888C20.7852 16.804 20.8272 16.6733 20.8272 16.496V12.17C20.8272 11.9927 20.7852 11.8667 20.7012 11.792C20.6266 11.708 20.5006 11.666 20.3232 11.666H18.1532C17.9759 11.666 17.8452 11.708 17.7612 11.792C17.6866 11.8667 17.6492 11.9927 17.6492 12.17V14.354H16.2912C16.0766 14.354 15.9132 14.298 15.8012 14.186C15.6986 14.074 15.6472 13.9013 15.6472 13.668V10.322C15.6472 10.0887 15.7172 9.91603 15.8572 9.80403C15.9972 9.6827 16.2119 9.62203 16.5012 9.62203H19.4132C19.5906 9.62203 19.7166 9.5847 19.7912 9.51003C19.8752 9.42603 19.9172 9.29536 19.9172 9.11803V7.42403C19.9172 7.2467 19.8752 7.1207 19.7912 7.04603C19.7166 6.96203 19.5906 6.92003 19.4132 6.92003H15.9132C14.7466 6.92003 13.8786 7.15336 13.3092 7.62003C12.7492 8.0867 12.4692 8.80536 12.4692 9.77603V14.144C12.4692 15.1147 12.7492 15.8333 13.3092 16.3C13.8786 16.7667 14.7466 17 15.9132 17H20.3232ZM16.5152 15.74C16.0019 15.74 15.5819 15.7073 15.2552 15.642C14.9286 15.5767 14.6719 15.474 14.4852 15.334C14.2986 15.1847 14.1679 14.998 14.0932 14.774C14.0279 14.5407 13.9952 14.2607 13.9952 13.934V10.014C13.9952 9.35136 14.1446 8.88003 14.4432 8.60003C14.7419 8.32003 15.3392 8.18003 16.2352 8.18003H18.6572V8.32003H16.2352C15.4139 8.32003 14.8586 8.4507 14.5692 8.71203C14.2799 8.96403 14.1352 9.39803 14.1352 10.014V13.934C14.1352 14.5407 14.2939 14.97 14.6112 15.222C14.9379 15.474 15.5726 15.6 16.5152 15.6H19.1612V12.926H19.3012V15.74H16.5152Z" fill="#131313"/>
</svg>
