<svg width="24" height="24" viewBox="0 0 24 24" fill="none" xmlns="http://www.w3.org/2000/svg">
<path d="M10.6669 14.354H6.46688V13.15H10.6669V14.354ZM8.37088 8.50195H8.76288L5.75288 17H4.35288L7.86688 7.19995H9.26688L12.7809 17H11.3809L8.37088 8.50195ZM16.3985 20.5C15.7731 20.5 15.2131 20.423 14.7185 20.269C14.2285 20.115 13.8411 19.8863 13.5565 19.583C13.2765 19.2797 13.1365 18.904 13.1365 18.456C13.1365 18.0827 13.2415 17.7607 13.4515 17.49C13.6661 17.224 13.9578 17.0093 14.3265 16.846C14.1071 16.7387 13.9391 16.6127 13.8225 16.468C13.7105 16.3187 13.6545 16.1553 13.6545 15.978C13.6545 15.768 13.7175 15.579 13.8435 15.411C13.9741 15.2383 14.1818 15.096 14.4665 14.984C14.0838 14.746 13.7898 14.4263 13.5845 14.025C13.3791 13.619 13.2765 13.1687 13.2765 12.674C13.2765 12.1747 13.3885 11.7243 13.6125 11.323C13.8365 10.917 14.1585 10.595 14.5785 10.357C15.0031 10.119 15.5118 9.99995 16.1045 9.99995C16.4218 9.99995 16.7205 10.0467 17.0005 10.14C17.2851 10.2333 17.5465 10.364 17.7845 10.532C17.9945 10.4107 18.2418 10.3103 18.5265 10.231C18.8158 10.1517 19.1378 10.112 19.4925 10.112C19.5158 10.112 19.5345 10.112 19.5485 10.112C19.5671 10.112 19.5858 10.112 19.6045 10.112L19.4505 10.952C19.3945 10.952 19.3408 10.952 19.2895 10.952C19.2381 10.952 19.1845 10.952 19.1285 10.952C19.0818 10.952 18.9745 10.959 18.8065 10.973C18.6385 10.987 18.4845 11.0127 18.3445 11.05C18.5358 11.274 18.6828 11.526 18.7855 11.806C18.8928 12.0813 18.9465 12.3707 18.9465 12.674C18.9465 13.1967 18.8321 13.6657 18.6035 14.081C18.3795 14.4917 18.0551 14.8183 17.6305 15.061C17.2058 15.299 16.6971 15.418 16.1045 15.418C15.9365 15.418 15.7755 15.4087 15.6215 15.39C15.4675 15.3667 15.3205 15.334 15.1805 15.292C14.9658 15.362 14.8585 15.4833 14.8585 15.656C14.8585 15.7587 14.9191 15.8497 15.0405 15.929C15.1618 16.0037 15.3578 16.062 15.6285 16.104L17.4625 16.398C18.2045 16.5147 18.7761 16.7293 19.1775 17.042C19.5835 17.3547 19.7865 17.798 19.7865 18.372C19.7865 18.848 19.6465 19.2423 19.3665 19.555C19.0911 19.8723 18.6991 20.108 18.1905 20.262C17.6818 20.4207 17.0845 20.5 16.3985 20.5ZM16.5105 19.38C17.1545 19.38 17.6491 19.296 17.9945 19.128C18.3398 18.9647 18.5125 18.722 18.5125 18.4C18.5125 18.148 18.4028 17.9497 18.1835 17.805C17.9688 17.6603 17.6585 17.5507 17.2525 17.476L15.2995 17.147C15.0428 17.259 14.8188 17.4083 14.6275 17.595C14.4361 17.7863 14.3405 18.008 14.3405 18.26C14.3405 18.652 14.5365 18.9367 14.9285 19.114C15.3251 19.2913 15.8525 19.38 16.5105 19.38ZM16.1045 14.41C16.6365 14.41 17.0425 14.2513 17.3225 13.934C17.6025 13.612 17.7425 13.1967 17.7425 12.688C17.7425 12.198 17.6025 11.7967 17.3225 11.484C17.0425 11.1667 16.6365 11.008 16.1045 11.008C15.5725 11.008 15.1688 11.1667 14.8935 11.484C14.6181 11.7967 14.4805 12.198 14.4805 12.688C14.4805 13.1967 14.6181 13.612 14.8935 13.934C15.1688 14.2513 15.5725 14.41 16.1045 14.41Z" fill="#131313"/>
</svg>
