<svg width="24" height="24" viewBox="0 0 24 24" fill="none" xmlns="http://www.w3.org/2000/svg">
<path d="M10.6397 14.494H6.4817V13.129H10.6397V14.494ZM8.3507 8.69095H8.7707L5.8377 17H4.2977L7.7977 7.19995H9.3237L12.8237 17H11.2837L8.3507 8.69095ZM16.398 20.514C15.7633 20.514 15.201 20.4347 14.711 20.276C14.221 20.1173 13.836 19.8863 13.556 19.583C13.2806 19.2843 13.143 18.918 13.143 18.484C13.143 18.12 13.2456 17.8027 13.451 17.532C13.6563 17.266 13.9433 17.042 14.312 16.86C14.1066 16.748 13.9456 16.615 13.829 16.461C13.717 16.3023 13.661 16.1273 13.661 15.936C13.661 15.7213 13.724 15.53 13.85 15.362C13.9806 15.194 14.1743 15.0563 14.431 14.949C14.0576 14.7063 13.773 14.3843 13.577 13.983C13.381 13.5817 13.283 13.1407 13.283 12.66C13.283 12.1607 13.3926 11.7057 13.612 11.295C13.836 10.8797 14.158 10.5507 14.578 10.308C15.0026 10.0653 15.516 9.94395 16.118 9.94395C16.4353 9.94395 16.7316 9.98828 17.007 10.077C17.287 10.161 17.539 10.28 17.763 10.434C17.945 10.3313 18.1736 10.245 18.449 10.175C18.729 10.1003 19.0393 10.063 19.38 10.063C19.4266 10.063 19.471 10.063 19.513 10.063C19.555 10.063 19.597 10.063 19.639 10.063L19.499 11.008C19.4243 11.008 19.3496 11.008 19.275 11.008C19.2003 11.008 19.1256 11.008 19.051 11.008C19.0043 11.008 18.918 11.0127 18.792 11.022C18.666 11.0313 18.5446 11.0477 18.428 11.071C18.6006 11.295 18.7313 11.5423 18.82 11.813C18.9086 12.0837 18.953 12.366 18.953 12.66C18.953 13.178 18.841 13.6447 18.617 14.06C18.3976 14.4753 18.0756 14.8067 17.651 15.054C17.231 15.3013 16.72 15.425 16.118 15.425C15.9686 15.425 15.8216 15.4157 15.677 15.397C15.537 15.3737 15.4016 15.3457 15.271 15.313C15.103 15.369 15.019 15.4693 15.019 15.614C15.019 15.726 15.0866 15.8193 15.222 15.894C15.3573 15.964 15.572 16.0223 15.866 16.069L17.434 16.3C18.1806 16.412 18.7593 16.6267 19.17 16.944C19.5853 17.2613 19.793 17.714 19.793 18.302C19.793 18.7733 19.6553 19.1723 19.38 19.499C19.1093 19.8303 18.7196 20.0823 18.211 20.255C17.7023 20.4277 17.098 20.514 16.398 20.514ZM16.496 19.31C17.1166 19.31 17.5903 19.2307 17.917 19.072C18.2436 18.918 18.407 18.6847 18.407 18.372C18.407 18.1107 18.2996 17.9123 18.085 17.777C17.8703 17.6417 17.5483 17.5367 17.119 17.462L15.341 17.182C15.0983 17.2847 14.8883 17.4223 14.711 17.595C14.5383 17.7723 14.452 17.987 14.452 18.239C14.452 18.6077 14.634 18.8783 14.998 19.051C15.3666 19.2237 15.866 19.31 16.496 19.31ZM16.118 14.298C16.6033 14.298 16.9696 14.1487 17.217 13.85C17.469 13.5467 17.595 13.1523 17.595 12.667C17.595 12.191 17.469 11.806 17.217 11.512C16.9696 11.2133 16.6033 11.064 16.118 11.064C15.6326 11.064 15.264 11.2133 15.012 11.512C14.7646 11.806 14.641 12.191 14.641 12.667C14.641 13.1523 14.7646 13.5467 15.012 13.85C15.264 14.1487 15.6326 14.298 16.118 14.298Z" fill="#131313"/>
</svg>
