<svg width="24" height="24" viewBox="0 0 24 24" fill="none" xmlns="http://www.w3.org/2000/svg">
<path d="M4.54955 16.9999L7.19555 7.32593H9.61755L12.2495 16.9999H11.1295L10.4435 14.5499H6.35555L5.66955 16.9999H4.54955ZM6.59355 13.5559H10.2055L8.76355 8.27793H8.03554L6.59355 13.5559ZM16.2774 20.2899C15.5494 20.2899 14.9614 20.2246 14.5134 20.0939C14.0747 19.9726 13.7527 19.7579 13.5474 19.4499C13.3514 19.1419 13.2534 18.7219 13.2534 18.1899C13.2534 17.9192 13.2954 17.6859 13.3794 17.4899C13.4634 17.3032 13.5847 17.1306 13.7434 16.9719C13.9114 16.8039 14.1167 16.6312 14.3594 16.4539C14.238 16.3606 14.14 16.2299 14.0654 16.0619C14 15.8846 13.9674 15.6886 13.9674 15.4739C13.9674 15.3712 14.0187 15.2079 14.1214 14.9839C14.2334 14.7506 14.3407 14.5452 14.4434 14.3679C14.2474 14.2746 14.0654 14.1486 13.8974 13.9899C13.7387 13.8219 13.608 13.5979 13.5054 13.3179C13.4027 13.0379 13.3514 12.6832 13.3514 12.2539C13.3514 11.3952 13.594 10.7839 14.0794 10.4199C14.5647 10.0466 15.1947 9.85993 15.9694 9.85993C16.2214 9.85993 16.4874 9.8786 16.7674 9.91593C17.0474 9.95326 17.2667 9.99526 17.4254 10.0419L19.5114 9.98593V10.9099L18.1954 10.8819C18.326 11.0126 18.4334 11.1852 18.5174 11.3999C18.6107 11.6146 18.6574 11.8992 18.6574 12.2539C18.6574 12.8606 18.5547 13.3366 18.3494 13.6819C18.144 14.0272 17.8407 14.2699 17.4394 14.4099C17.038 14.5499 16.534 14.6199 15.9274 14.6199C15.862 14.6199 15.75 14.6152 15.5914 14.6059C15.442 14.5872 15.33 14.5732 15.2554 14.5639C15.1994 14.6946 15.1434 14.8439 15.0874 15.0119C15.0314 15.1799 15.0034 15.2966 15.0034 15.3619C15.0034 15.5392 15.036 15.6746 15.1014 15.7679C15.1667 15.8612 15.316 15.9219 15.5494 15.9499C15.792 15.9779 16.17 15.9919 16.6834 15.9919C17.3554 15.9919 17.892 16.0479 18.2934 16.1599C18.6947 16.2719 18.9794 16.4772 19.1474 16.7759C19.3247 17.0652 19.4134 17.4899 19.4134 18.0499C19.4134 18.8432 19.138 19.4126 18.5874 19.7579C18.0367 20.1126 17.2667 20.2899 16.2774 20.2899ZM16.2914 19.3659C16.982 19.3659 17.4907 19.2679 17.8174 19.0719C18.144 18.8759 18.3074 18.5539 18.3074 18.1059C18.3074 17.7606 18.2514 17.5039 18.1394 17.3359C18.0367 17.1772 17.8594 17.0699 17.6074 17.0139C17.3554 16.9672 17.0194 16.9439 16.5994 16.9439C16.5154 16.9439 16.3987 16.9439 16.2494 16.9439C16.1 16.9346 15.946 16.9299 15.7874 16.9299C15.6287 16.9206 15.484 16.9112 15.3534 16.9019C15.232 16.8926 15.148 16.8879 15.1014 16.8879C14.812 17.0932 14.6114 17.2752 14.4994 17.4339C14.3874 17.6019 14.3314 17.8212 14.3314 18.0919C14.3314 18.3999 14.3874 18.6472 14.4994 18.8339C14.6114 19.0206 14.8074 19.1559 15.0874 19.2399C15.3767 19.3239 15.778 19.3659 16.2914 19.3659ZM15.9694 13.7519C16.548 13.7519 16.9587 13.6399 17.2014 13.4159C17.444 13.1826 17.5654 12.7952 17.5654 12.2539C17.5654 11.7126 17.444 11.3252 17.2014 11.0919C16.9587 10.8586 16.548 10.7419 15.9694 10.7419C15.428 10.7419 15.036 10.8586 14.7934 11.0919C14.56 11.3252 14.4434 11.7126 14.4434 12.2539C14.4434 12.7952 14.56 13.1826 14.7934 13.4159C15.036 13.6399 15.428 13.7519 15.9694 13.7519Z" fill="#131313"/>
</svg>
