<svg width="24" height="24" viewBox="0 0 24 24" fill="none" xmlns="http://www.w3.org/2000/svg">
<path d="M3.64945 17L6.08545 7.43799H9.45945L11.8814 17H9.94945L9.41745 15.068H6.07145L5.56745 17H3.64945ZM6.37945 13.514H9.13745L8.05945 9.00599H7.47145L6.37945 13.514ZM15.9177 20.206C15.171 20.206 14.5457 20.15 14.0417 20.038C13.547 19.926 13.1737 19.7207 12.9217 19.422C12.6697 19.1327 12.5437 18.7127 12.5437 18.162C12.5437 17.9193 12.5764 17.7 12.6417 17.504C12.7164 17.3173 12.8284 17.14 12.9777 16.972C13.1364 16.804 13.3324 16.6313 13.5657 16.454C13.435 16.3607 13.3277 16.2253 13.2437 16.048C13.169 15.8613 13.1317 15.6607 13.1317 15.446C13.1317 15.334 13.197 15.1707 13.3277 14.956C13.4677 14.732 13.603 14.536 13.7337 14.368C13.547 14.284 13.3697 14.1627 13.2017 14.004C13.0337 13.836 12.8937 13.612 12.7817 13.332C12.679 13.052 12.6277 12.6927 12.6277 12.254C12.6277 11.3673 12.8797 10.742 13.3837 10.378C13.897 10.0047 14.625 9.81799 15.5677 9.81799C15.8104 9.81799 16.0717 9.83666 16.3517 9.87399C16.6317 9.91132 16.8557 9.94866 17.0237 9.98599L19.3057 9.94399V11.204L18.2417 11.19C18.3257 11.302 18.4004 11.4467 18.4657 11.624C18.5404 11.792 18.5777 12.002 18.5777 12.254C18.5777 12.898 18.4657 13.3973 18.2417 13.752C18.027 14.1067 17.7004 14.354 17.2617 14.494C16.823 14.6247 16.2677 14.69 15.5957 14.69C15.521 14.69 15.4184 14.6853 15.2877 14.676C15.157 14.6573 15.0497 14.6433 14.9657 14.634C14.9284 14.7273 14.891 14.8347 14.8537 14.956C14.8164 15.068 14.7977 15.1473 14.7977 15.194C14.7977 15.3153 14.835 15.4087 14.9097 15.474C14.9937 15.5393 15.157 15.586 15.3997 15.614C15.6517 15.6327 16.0297 15.642 16.5337 15.642C17.1964 15.642 17.7237 15.7027 18.1157 15.824C18.517 15.9453 18.8017 16.16 18.9697 16.468C19.1377 16.776 19.2217 17.21 19.2217 17.77C19.2217 18.6007 18.9277 19.212 18.3397 19.604C17.761 20.0053 16.9537 20.206 15.9177 20.206ZM15.8197 18.82C16.3984 18.82 16.8137 18.75 17.0657 18.61C17.327 18.4793 17.4577 18.26 17.4577 17.952C17.4577 17.7093 17.411 17.532 17.3177 17.42C17.2337 17.308 17.089 17.2333 16.8837 17.196C16.6784 17.168 16.3984 17.154 16.0437 17.154C15.9504 17.154 15.8384 17.1493 15.7077 17.14C15.577 17.14 15.4417 17.1353 15.3017 17.126C15.171 17.126 15.0497 17.1213 14.9377 17.112C14.835 17.1027 14.7604 17.098 14.7137 17.098C14.5084 17.238 14.3684 17.364 14.2937 17.476C14.219 17.5973 14.1817 17.756 14.1817 17.952C14.1817 18.1667 14.233 18.3347 14.3357 18.456C14.4384 18.5867 14.6064 18.68 14.8397 18.736C15.0824 18.792 15.409 18.82 15.8197 18.82ZM15.5817 13.374C16.011 13.374 16.3144 13.29 16.4917 13.122C16.6784 12.9447 16.7717 12.6553 16.7717 12.254C16.7717 11.8527 16.6784 11.5633 16.4917 11.386C16.3144 11.2087 16.011 11.12 15.5817 11.12C15.171 11.12 14.8724 11.2087 14.6857 11.386C14.5084 11.5633 14.4197 11.8527 14.4197 12.254C14.4197 12.6553 14.5084 12.9447 14.6857 13.122C14.8724 13.29 15.171 13.374 15.5817 13.374Z" fill="#131313"/>
</svg>
