<svg width="24" height="24" viewBox="0 0 24 24" fill="none" xmlns="http://www.w3.org/2000/svg">
<path d="M11.7539 15.3301C11.7767 15.4941 11.7858 15.624 11.7812 15.7197C11.7812 15.8154 11.7493 15.8883 11.6855 15.9385C11.6263 15.984 11.526 16.0114 11.3848 16.0205C11.2435 16.0342 11.0498 16.041 10.8037 16.041C10.6305 16.041 10.4893 16.0365 10.3799 16.0273C10.2705 16.0228 10.1862 16.0114 10.127 15.9932C10.0677 15.9749 10.0267 15.9476 10.0039 15.9111C9.98112 15.8747 9.96745 15.8245 9.96289 15.7607L9.72363 13.9834H6.40137L5.48535 15.7197C5.45345 15.7835 5.41699 15.8382 5.37598 15.8838C5.33496 15.9248 5.27572 15.9567 5.19824 15.9795C5.12077 16.0023 5.01595 16.0182 4.88379 16.0273C4.75618 16.0365 4.5944 16.041 4.39844 16.041C4.1888 16.041 4.02702 16.0342 3.91309 16.0205C3.7946 16.0068 3.71712 15.9749 3.68066 15.9248C3.63965 15.8701 3.63509 15.7949 3.66699 15.6992C3.69434 15.6035 3.7513 15.4759 3.83789 15.3164L8.13086 7.46875C8.17643 7.39128 8.22201 7.32975 8.26758 7.28418C8.31315 7.23405 8.37695 7.19759 8.45898 7.1748C8.54557 7.14746 8.65951 7.13151 8.80078 7.12695C8.94661 7.11784 9.13574 7.11328 9.36816 7.11328C9.63704 7.11328 9.84896 7.11784 10.0039 7.12695C10.1634 7.13151 10.2865 7.14746 10.373 7.1748C10.4596 7.19759 10.5166 7.23405 10.5439 7.28418C10.5713 7.33431 10.5895 7.40267 10.5986 7.48926L11.7539 15.3301ZM9.06738 8.84277H9.06055L7.08496 12.6025H9.57324L9.06738 8.84277ZM18.4258 16.0137C18.3438 16.4284 18.2161 16.7884 18.043 17.0938C17.8698 17.4036 17.6419 17.6611 17.3594 17.8662C17.0768 18.0758 16.7327 18.2331 16.3271 18.3379C15.9261 18.4427 15.4567 18.4951 14.9189 18.4951C14.5316 18.4951 14.1829 18.4632 13.873 18.3994C13.5677 18.3402 13.3125 18.2627 13.1074 18.167C13.0345 18.1305 12.9844 18.0895 12.957 18.0439C12.9297 17.9984 12.916 17.9346 12.916 17.8525C12.916 17.8252 12.9183 17.7796 12.9229 17.7158C12.9274 17.652 12.9365 17.5814 12.9502 17.5039C12.9684 17.4264 12.9889 17.3444 13.0117 17.2578C13.0345 17.1758 13.0618 17.1006 13.0938 17.0322C13.1302 16.9684 13.1689 16.9137 13.21 16.8682C13.251 16.8271 13.2988 16.8066 13.3535 16.8066C13.4082 16.8066 13.4743 16.8249 13.5518 16.8613C13.6338 16.9023 13.7409 16.9456 13.873 16.9912C14.0052 17.0368 14.1693 17.0778 14.3652 17.1143C14.5612 17.1553 14.8027 17.1758 15.0898 17.1758C15.3223 17.1758 15.5296 17.1576 15.7119 17.1211C15.8988 17.0846 16.0605 17.0254 16.1973 16.9434C16.334 16.8613 16.4434 16.7565 16.5254 16.6289C16.612 16.5013 16.6735 16.3441 16.71 16.1572C16.7692 15.861 16.8285 15.6126 16.8877 15.4121C16.9469 15.2116 17.0016 15.0475 17.0518 14.9199C16.9697 15.0703 16.8512 15.2207 16.6963 15.3711C16.5459 15.5169 16.3727 15.6491 16.1768 15.7676C15.9808 15.8861 15.7689 15.9795 15.541 16.0479C15.3177 16.1208 15.0921 16.1572 14.8643 16.1572C14.5133 16.1572 14.2171 16.098 13.9756 15.9795C13.7386 15.861 13.5449 15.6969 13.3945 15.4873C13.2441 15.2777 13.1348 15.0316 13.0664 14.749C13.0026 14.4665 12.9707 14.1611 12.9707 13.833C12.9707 13.5368 12.998 13.2178 13.0527 12.876C13.1074 12.5342 13.1917 12.1947 13.3057 11.8574C13.4242 11.5202 13.5723 11.1966 13.75 10.8867C13.9277 10.5768 14.1396 10.3034 14.3857 10.0664C14.6364 9.82487 14.9212 9.63346 15.2402 9.49219C15.5638 9.35091 15.9261 9.28027 16.3271 9.28027C16.7054 9.28027 17.0404 9.36003 17.332 9.51953C17.6237 9.67448 17.8789 9.90234 18.0977 10.2031L18.207 9.66309C18.2253 9.56738 18.2959 9.49902 18.4189 9.45801C18.5465 9.41699 18.7493 9.39648 19.0273 9.39648C19.1641 9.39648 19.278 9.40332 19.3691 9.41699C19.4603 9.42611 19.5309 9.44206 19.5811 9.46484C19.6357 9.48307 19.6722 9.51042 19.6904 9.54688C19.7087 9.57878 19.7132 9.61751 19.7041 9.66309L18.4258 16.0137ZM17.6328 11.4883C17.4733 11.2376 17.2956 11.0508 17.0996 10.9277C16.9082 10.8001 16.6849 10.7363 16.4297 10.7363C16.2383 10.7363 16.0628 10.7819 15.9033 10.873C15.7484 10.9642 15.6071 11.0872 15.4795 11.2422C15.3564 11.3926 15.2471 11.568 15.1514 11.7686C15.0602 11.9691 14.9827 12.1787 14.9189 12.3975C14.8597 12.6162 14.8141 12.835 14.7822 13.0537C14.7549 13.2725 14.7412 13.4798 14.7412 13.6758C14.7412 13.8307 14.7549 13.972 14.7822 14.0996C14.8096 14.2272 14.8506 14.3366 14.9053 14.4277C14.9645 14.5143 15.0374 14.5827 15.124 14.6328C15.2152 14.6784 15.3245 14.7012 15.4521 14.7012C15.6527 14.7012 15.8577 14.6419 16.0674 14.5234C16.277 14.4004 16.473 14.2363 16.6553 14.0312C16.8376 13.8216 16.9971 13.5778 17.1338 13.2998C17.2751 13.0218 17.3776 12.7256 17.4414 12.4111L17.6328 11.4883Z" fill="#131313"/>
</svg>
