<svg width="24" height="24" viewBox="0 0 24 24" fill="none" xmlns="http://www.w3.org/2000/svg">
<path d="M9.45801 14.1084H6.78516L6.68945 14.2793C6.58464 14.4616 6.49349 14.6279 6.41602 14.7783C6.3431 14.9242 6.27702 15.0745 6.21777 15.2295C6.15853 15.3799 6.11523 15.5166 6.08789 15.6396C6.0651 15.7581 6.05371 15.8721 6.05371 15.9814C6.05371 16.3096 6.2474 16.4987 6.63477 16.5488L6.53223 17H3.64746L3.75 16.5488C3.90951 16.5124 4.05078 16.4508 4.17383 16.3643C4.29232 16.2777 4.40625 16.1615 4.51562 16.0156C4.625 15.8652 4.77995 15.61 4.98047 15.25L9.22559 7.62109H11.1943L11.4883 14.9287C11.4974 15.2067 11.5133 15.4277 11.5361 15.5918C11.5589 15.7513 11.5885 15.888 11.625 16.002C11.6615 16.1159 11.7048 16.2116 11.7549 16.2891C11.8096 16.3665 11.8779 16.4258 11.96 16.4668C12.042 16.5078 12.1331 16.5352 12.2334 16.5488L12.1309 17H8.59668L8.69922 16.5488C8.89974 16.5352 9.05697 16.485 9.1709 16.3984C9.28939 16.3073 9.37142 16.1865 9.41699 16.0361C9.46257 15.8812 9.48535 15.667 9.48535 15.3936C9.48535 15.1976 9.48079 14.9925 9.47168 14.7783L9.45801 14.1084ZM7.20898 13.3086H9.4375L9.41016 11.668C9.40104 11.0846 9.39648 10.6016 9.39648 10.2188C9.39648 9.92708 9.39876 9.62858 9.40332 9.32324H9.32129L7.20898 13.3086ZM13.792 17.5674C13.6689 17.7178 13.5824 17.859 13.5322 17.9912C13.4867 18.1234 13.4639 18.2669 13.4639 18.4219C13.4639 18.7318 13.571 18.9619 13.7852 19.1123C14.0039 19.2673 14.3298 19.3447 14.7627 19.3447C15.0817 19.3447 15.3688 19.2923 15.624 19.1875C15.8792 19.0827 16.1139 18.9095 16.3281 18.668C16.5423 18.431 16.7406 18.0755 16.9229 17.6016C17.1097 17.1322 17.2874 16.4987 17.4561 15.7012L17.3672 15.6396C17.071 16.0133 16.7952 16.305 16.54 16.5146C16.2894 16.7243 16.0342 16.877 15.7744 16.9727C15.5146 17.0638 15.2184 17.1094 14.8857 17.1094C14.5713 17.1094 14.291 17.0342 14.0449 16.8838C13.8034 16.7334 13.6097 16.4964 13.4639 16.1729C13.3226 15.8447 13.252 15.43 13.252 14.9287C13.252 14.3044 13.3431 13.6891 13.5254 13.083C13.7077 12.4723 13.9652 11.9482 14.2979 11.5107C14.6351 11.0732 15.0521 10.7314 15.5488 10.4854C16.0501 10.2347 16.6221 10.1094 17.2646 10.1094C17.5882 10.1094 17.8844 10.1458 18.1533 10.2188C18.4268 10.2871 18.7048 10.4147 18.9873 10.6016L19.6025 10.1094L20.3682 10.2188L19.7803 12.8916C19.6846 13.3291 19.598 13.7484 19.5205 14.1494L19.0898 16.2549C18.9714 16.8245 18.8506 17.2917 18.7275 17.6562C18.6182 17.9753 18.4974 18.2464 18.3652 18.4697C18.2467 18.6794 18.1077 18.8662 17.9482 19.0303C17.7933 19.1943 17.627 19.3333 17.4492 19.4473C17.2624 19.5703 17.055 19.6729 16.8271 19.7549C16.5674 19.8506 16.278 19.9235 15.959 19.9736C15.6172 20.0283 15.2275 20.0557 14.79 20.0557C14.152 20.0557 13.6143 19.9987 13.1768 19.8848C12.7438 19.7708 12.4225 19.5977 12.2129 19.3652C11.9987 19.1374 11.8916 18.8525 11.8916 18.5107C11.8916 18.2282 11.9919 17.9616 12.1924 17.7109C12.3929 17.4603 12.6891 17.221 13.0811 16.9932L13.792 17.5674ZM17.9551 12.7412C18.028 12.404 18.0645 12.0758 18.0645 11.7568C18.0645 11.4424 18.0075 11.2077 17.8936 11.0527C17.7796 10.8978 17.5928 10.8203 17.333 10.8203C16.9229 10.8203 16.5537 11.0254 16.2256 11.4355C15.8975 11.8457 15.6286 12.4154 15.4189 13.1445C15.2139 13.8737 15.1113 14.5299 15.1113 15.1133C15.1113 15.446 15.1592 15.6943 15.2549 15.8584C15.3551 16.0225 15.5078 16.1045 15.7129 16.1045C15.9089 16.1045 16.1071 16.043 16.3076 15.9199C16.5081 15.7923 16.7178 15.5986 16.9365 15.3389C17.1598 15.0745 17.3467 14.7578 17.4971 14.3887C17.6475 14.0195 17.7819 13.5547 17.9004 12.9941L17.9551 12.7412Z" fill="#131313"/>
</svg>
