<svg width="24" height="24" viewBox="0 0 24 24" fill="none" xmlns="http://www.w3.org/2000/svg">
<path d="M3.81098 15.1133V14.8513C3.83593 14.8513 3.84841 14.8326 3.84841 14.7951C3.84841 14.7827 3.85465 14.7639 3.86712 14.739C3.86712 14.714 3.86712 14.6891 3.86712 14.6641C3.86712 14.6142 3.8796 14.5518 3.90455 14.477C3.91703 14.3772 3.94822 14.2711 3.99813 14.1588L4.11042 13.9342C4.13538 13.8718 4.18528 13.7907 4.26014 13.6909C4.32253 13.6036 4.43482 13.5475 4.59702 13.5225C4.70931 13.51 4.80913 13.5287 4.89646 13.5786C4.92142 13.5786 4.94637 13.5911 4.97132 13.6161C5.03371 13.6535 5.08985 13.7159 5.13976 13.8032C5.20215 13.903 5.20215 14.0091 5.13976 14.1214C5.03995 14.2836 4.97132 14.452 4.93389 14.6267L4.89646 14.9636C4.89646 15.1258 4.94013 15.3067 5.02747 15.5063C5.05242 15.5562 5.07738 15.5937 5.10233 15.6186C5.17719 15.7309 5.28325 15.8182 5.42049 15.8806C5.57021 15.943 5.73241 15.9617 5.90709 15.9368C6.09424 15.9118 6.25644 15.8494 6.39369 15.7496L6.61827 15.5812L6.80542 15.3753C6.88028 15.3004 7.00505 15.132 7.17973 14.87C7.20468 14.845 7.26707 14.7452 7.36688 14.5706C7.37936 14.5331 7.39807 14.4895 7.42303 14.4395C7.46046 14.3772 7.48541 14.3397 7.49789 14.3273L7.59146 14.1588C7.61642 14.0964 7.66633 14.0029 7.74119 13.8781L7.90962 13.5225L7.98449 13.3541C8.02192 13.2792 8.04687 13.2355 8.05935 13.2231L8.22778 12.8113L8.37751 12.4932L8.4898 12.2499C8.4898 12.2374 8.4898 12.2249 8.4898 12.2124C8.50227 12.1875 8.51475 12.1688 8.52723 12.1563L8.65824 11.8381L8.80796 11.5012L8.93896 11.1831L9.01383 11.0334L9.18226 10.6591L9.38813 10.266L9.61271 9.79814L9.8373 9.42383L10.0619 9.03081L10.2116 8.78751C10.3364 8.58788 10.4362 8.43816 10.511 8.33834C10.561 8.28844 10.6046 8.22605 10.6421 8.15119C10.6296 8.15119 10.6233 8.15119 10.6233 8.15119C10.6233 8.13871 10.6171 8.13248 10.6046 8.13248C10.4549 8.13248 10.3426 8.13871 10.2677 8.15119L9.78115 8.18862C9.69381 8.21358 9.55033 8.23853 9.3507 8.26348L9.1074 8.31963L8.71438 8.43192L8.41494 8.54421C8.3276 8.55669 8.22778 8.58788 8.11549 8.63779L7.59146 8.8998L7.17973 9.16182C7.16725 9.17429 7.10487 9.21796 6.99258 9.29282L6.63698 9.6297C6.5746 9.67961 6.51845 9.74199 6.46855 9.81685C6.40616 9.87924 6.32506 9.98529 6.22525 10.135L6.15039 10.266L6.09424 10.3783C6.03186 10.4781 5.96323 10.6279 5.88837 10.8275C5.81351 11.0271 5.7636 11.1831 5.73865 11.2954L5.68251 11.7071V11.8943C5.68251 12.019 5.7137 12.1625 5.77608 12.3247L5.83223 12.4744C5.91957 12.5992 6.00067 12.6928 6.07553 12.7552C6.13791 12.8051 6.24396 12.8675 6.39369 12.9423C6.40616 12.9423 6.42488 12.9486 6.44983 12.961C6.47479 12.961 6.4935 12.961 6.50598 12.961C6.55589 12.986 6.59955 12.9985 6.63698 12.9985C6.77423 13.0234 6.84909 13.0983 6.86157 13.2231C6.88652 13.2854 6.88652 13.3478 6.86157 13.4102C6.83661 13.51 6.80542 13.5786 6.76799 13.6161C6.69313 13.7159 6.61827 13.7783 6.54341 13.8032L6.52469 13.8219C6.51222 13.8219 6.49974 13.8219 6.48726 13.8219C6.37497 13.8219 6.29387 13.8157 6.24396 13.8032C6.14415 13.7907 6.0069 13.7471 5.83223 13.6722C5.65755 13.5724 5.53902 13.4913 5.47664 13.4289L5.28948 13.2418C5.21462 13.1669 5.16472 13.1045 5.13976 13.0546C5.11481 13.0047 5.0649 12.9298 4.99004 12.83L4.87775 12.5493L4.80289 12.3809C4.75298 12.1438 4.72179 11.9816 4.70931 11.8943V11.5761C4.70931 11.4264 4.71555 11.3141 4.72803 11.2392L4.78417 10.9024C4.79665 10.8899 4.80913 10.8649 4.8216 10.8275C4.83408 10.7776 4.84656 10.7402 4.85903 10.7152L4.97132 10.3596L5.19591 9.96657L5.32691 9.76071L5.47664 9.55484L5.66379 9.34897L5.94452 9.08695L6.13167 8.91852C6.38121 8.73136 6.54965 8.61283 6.63698 8.56293C6.72432 8.50054 6.85533 8.41944 7.03001 8.31963L7.55403 8.05761L7.92834 7.88918L8.65824 7.64588L8.97639 7.57102C9.13859 7.52111 9.36942 7.4712 9.66886 7.4213L9.91216 7.38386C10.1118 7.35891 10.2553 7.34643 10.3426 7.34643C10.3925 7.33396 10.4736 7.32772 10.5859 7.32772H11.0725C11.1349 7.32772 11.1786 7.33396 11.2035 7.34643H11.2971L11.4281 7.19671L11.4842 7.14057L11.8585 6.78498L12.0457 6.63525L12.1767 6.54168C12.1767 6.5292 12.1829 6.52296 12.1954 6.52296L12.5323 6.29838C12.7818 6.17361 12.9752 6.09251 13.1125 6.05508C13.1873 6.03013 13.2871 6.00517 13.4119 5.98022L13.7114 5.92407H13.8237C13.8361 5.93655 13.8548 5.94279 13.8798 5.94279C13.8923 5.94279 14.0108 5.9615 14.2354 5.99893L14.4787 6.05508L14.7968 6.18609L14.9653 6.29838C15.115 6.38572 15.1462 6.50425 15.0589 6.65397C14.9965 6.79121 14.8967 6.89103 14.7594 6.95341C14.6596 7.0158 14.5598 7.0158 14.46 6.95341L14.3102 6.87855C14.0732 6.79121 13.8299 6.7725 13.5804 6.82241C13.4805 6.83488 13.3433 6.87855 13.1686 6.95341L13.075 7.00956L12.9627 7.0657L12.8317 7.15928L12.551 7.38386L12.4013 7.51487L12.3639 7.5523L12.5697 7.64588L12.7569 7.75817C12.8567 7.82055 12.9815 7.93908 13.1312 8.11376C13.1811 8.18862 13.2435 8.31339 13.3183 8.48807C13.3682 8.72513 13.3994 8.88733 13.4119 8.97466V9.36768C13.4119 9.38016 13.3932 9.57355 13.3558 9.94786C13.3558 9.98529 13.2996 10.291 13.1873 10.8649L13.0563 11.3328C13.0189 11.52 12.9627 11.7196 12.8879 11.9317L12.8505 12.0627L12.7382 12.4744L12.6446 12.7926L12.4949 13.3353L12.3826 13.7471L12.3077 13.9529C12.3077 13.9779 12.2952 14.0153 12.2703 14.0652L12.2329 14.2711C12.2079 14.346 12.1829 14.4583 12.158 14.608C12.158 14.6454 12.1518 14.6891 12.1393 14.739C12.1393 14.7889 12.1393 14.8263 12.1393 14.8513C12.1268 15.0135 12.1268 15.1819 12.1393 15.3566C12.1642 15.4689 12.2141 15.55 12.289 15.5999C12.3763 15.6623 12.4574 15.681 12.5323 15.656C12.6321 15.6186 12.7257 15.5625 12.813 15.4876C12.9378 15.3628 13.0314 15.2443 13.0938 15.132C13.1686 15.0322 13.2934 14.8263 13.4681 14.5144C13.5055 14.3896 13.5492 14.2898 13.5991 14.215L13.7488 13.8219C13.7613 13.797 13.7737 13.7533 13.7862 13.6909C13.8112 13.6286 13.8299 13.5849 13.8424 13.5599L13.9172 13.4102C13.9547 13.3728 13.9921 13.3541 14.0295 13.3541C14.1044 13.3416 14.1668 13.3416 14.2167 13.3541C14.2292 13.3541 14.2479 13.3603 14.2728 13.3728C14.2978 13.3728 14.3165 13.3728 14.329 13.3728C14.4413 13.3977 14.5224 13.4289 14.5723 13.4664C14.6596 13.5287 14.7033 13.6036 14.7033 13.6909C14.6783 13.8032 14.6596 13.8656 14.6471 13.8781C14.6346 13.9654 14.6035 14.0528 14.5535 14.1401L14.3477 14.608L14.1792 14.9074C14.1543 14.9698 14.1106 15.0509 14.0482 15.1507C13.9859 15.2505 13.9484 15.3067 13.9359 15.3192L13.7675 15.5437C13.6926 15.6685 13.6303 15.7559 13.5804 15.8058L13.2435 16.1614C13.0938 16.2861 12.9815 16.3735 12.9066 16.4234L12.7382 16.5169L12.6633 16.5544C12.6508 16.5544 12.6321 16.5606 12.6072 16.5731C12.5947 16.5731 12.5822 16.5731 12.5697 16.5731C12.4699 16.623 12.3389 16.6479 12.1767 16.6479C12.027 16.6479 11.9147 16.6355 11.8398 16.6105C11.6402 16.5481 11.4967 16.4546 11.4094 16.3298V16.3111L11.3907 16.2924C11.3033 16.1925 11.2285 16.0428 11.1661 15.8432C11.1411 15.7184 11.1287 15.6311 11.1287 15.5812C11.1162 15.5562 11.1099 15.525 11.1099 15.4876C11.1099 15.4252 11.1037 15.3815 11.0912 15.3566V15.2443L11.1287 14.7577C11.1287 14.7078 11.1411 14.6454 11.1661 14.5706C11.216 14.321 11.2597 14.1339 11.2971 14.0091C11.3345 13.8968 11.3782 13.7284 11.4281 13.5038C11.4531 13.4414 11.478 13.3478 11.503 13.2231C11.5279 13.1856 11.5529 13.117 11.5778 13.0172C11.5778 13.0047 11.5841 12.9798 11.5965 12.9423V12.9049H9.29455C9.2696 12.9298 9.25712 12.9548 9.25712 12.9798C9.20722 13.1045 9.11988 13.2917 8.99511 13.5412C8.97016 13.6161 8.9452 13.6722 8.92025 13.7096L8.69567 14.1775L8.4898 14.5331C8.46484 14.583 8.41494 14.6641 8.34008 14.7764C8.27769 14.8887 8.22778 14.9698 8.19035 15.0197C8.11549 15.157 8.03439 15.2755 7.94705 15.3753L7.85348 15.4876C7.80357 15.5874 7.73495 15.6748 7.64761 15.7496L7.32945 16.1052L7.01129 16.3672L6.97386 16.4047L6.6557 16.5918L6.39369 16.7228C6.05681 16.7977 5.8759 16.8351 5.85094 16.8351C5.83847 16.8351 5.81975 16.8351 5.7948 16.8351C5.78232 16.8476 5.76984 16.8538 5.75737 16.8538H5.70122C5.67627 16.8413 5.64507 16.8351 5.60764 16.8351H5.53278C5.52031 16.8351 5.50159 16.8289 5.47664 16.8164C5.45168 16.8164 5.43297 16.8164 5.42049 16.8164H5.34563C5.12105 16.754 4.97756 16.7103 4.91518 16.6854C4.87775 16.6604 4.8216 16.6355 4.74674 16.6105C4.58454 16.5107 4.4473 16.4047 4.33501 16.2924C4.27262 16.23 4.23519 16.1863 4.22271 16.1614C4.06051 15.9243 3.96694 15.7559 3.94198 15.656L3.88584 15.4502C3.86088 15.3254 3.84841 15.2381 3.84841 15.1882C3.84841 15.1632 3.83593 15.1382 3.81098 15.1133ZM9.68758 11.9878H11.8585C11.9085 11.8007 11.9396 11.6759 11.9521 11.6135C11.9771 11.5512 11.9958 11.4701 12.0083 11.3702C12.0332 11.2704 12.0519 11.208 12.0644 11.1831L12.158 10.7901C12.1705 10.7526 12.1829 10.6965 12.1954 10.6216C12.2079 10.5343 12.2204 10.4719 12.2329 10.4345V10.3783C12.2453 10.3534 12.2516 10.3222 12.2516 10.2848C12.264 10.2723 12.2703 10.2536 12.2703 10.2286L12.3451 9.81685C12.3701 9.69208 12.3826 9.59227 12.3826 9.51741V9.25539C12.3951 9.06824 12.3951 8.97466 12.3826 8.97466C12.3826 8.93723 12.3701 8.86861 12.3451 8.7688L12.2329 8.54421C12.2204 8.50678 12.1954 8.48183 12.158 8.46935C12.0956 8.39449 11.9771 8.31963 11.8024 8.24477C11.7899 8.23229 11.7712 8.22605 11.7463 8.22605L11.6901 8.2822L11.503 8.54421C11.4531 8.6066 11.3907 8.70017 11.3158 8.82494C11.216 8.94971 11.1474 9.04952 11.1099 9.12439C11.1099 9.14934 11.0975 9.17429 11.0725 9.19925L10.9415 9.40512L10.8479 9.57355L10.6046 10.0227L10.2677 10.6403C10.2303 10.7402 10.2054 10.8025 10.1929 10.8275C10.0681 11.0646 9.9995 11.208 9.98702 11.2579C9.96207 11.3328 9.91216 11.4451 9.8373 11.5948L9.68758 11.9317C9.66262 11.9567 9.66262 11.9754 9.68758 11.9878ZM11.7463 7.4213L11.7088 7.38386C11.6714 7.4213 11.6402 7.43377 11.6152 7.4213L11.5778 7.45873C11.5529 7.48368 11.5404 7.50863 11.5404 7.53359C11.5404 7.54606 11.5529 7.56478 11.5778 7.58973C11.5529 7.58973 11.5404 7.59597 11.5404 7.60845C11.5529 7.62092 11.5591 7.62092 11.5591 7.60845L11.5778 7.58973C11.6028 7.61469 11.634 7.62716 11.6714 7.62716C11.6963 7.65212 11.7088 7.67707 11.7088 7.70202C11.7338 7.72698 11.7463 7.75817 11.7463 7.7956L11.765 7.81432C11.7899 7.78936 11.8086 7.77689 11.8211 7.77689H11.896C11.9085 7.77689 11.9272 7.78936 11.9521 7.81432C11.9646 7.85175 11.9896 7.87046 12.027 7.87046C12.0769 7.84551 12.1143 7.83303 12.1393 7.83303L12.158 7.81432V7.7956C12.1206 7.7956 12.1018 7.78936 12.1018 7.77689C12.0894 7.76441 12.0956 7.74569 12.1206 7.72074L12.1767 7.62716L12.1206 7.5523C12.1206 7.51487 12.1018 7.49616 12.0644 7.49616C12.0644 7.48368 12.0582 7.47744 12.0457 7.47744C12.0831 7.44001 12.0831 7.41506 12.0457 7.40258C12.0207 7.37763 11.9958 7.36515 11.9708 7.36515L11.9334 7.34643V7.32772C11.9334 7.31524 11.9272 7.309 11.9147 7.309C11.9022 7.33396 11.896 7.35891 11.896 7.38386C11.871 7.38386 11.8211 7.39634 11.7463 7.4213ZM12.289 16.1426C12.3264 16.1177 12.3576 16.0865 12.3826 16.0491C12.3826 16.0366 12.3826 16.0303 12.3826 16.0303C12.3951 16.0303 12.4013 16.0241 12.4013 16.0116V16.0678C12.4013 16.0803 12.4138 16.0865 12.4387 16.0865L12.4013 16.0116V15.9742C12.3888 15.9368 12.3639 15.9118 12.3264 15.8993C12.314 15.8993 12.3077 15.8993 12.3077 15.8993C12.3077 15.8869 12.3015 15.8806 12.289 15.8806C12.289 15.8681 12.2952 15.8619 12.3077 15.8619C12.3202 15.8494 12.3264 15.837 12.3264 15.8245C12.289 15.812 12.264 15.812 12.2516 15.8245H12.2141V15.8058L12.2329 15.787L12.1954 15.7683L12.158 15.7309C12.1705 15.7683 12.1518 15.7995 12.1018 15.8245C12.0894 15.812 12.0707 15.8058 12.0457 15.8058H12.0083C11.9833 15.8307 11.9833 15.8681 12.0083 15.9181C11.9708 15.9181 11.9396 15.9118 11.9147 15.8993L11.896 15.8806L11.9334 15.8619C11.9584 15.8494 11.9771 15.837 11.9896 15.8245C11.9646 15.7995 11.9334 15.7933 11.896 15.8058V15.8806L11.8585 15.9742V15.9929H11.896L11.9147 15.9742L11.9521 16.0116C12.0145 16.0491 12.0457 16.099 12.0457 16.1614C12.0582 16.1614 12.0707 16.1676 12.0831 16.1801H12.1206C12.1455 16.1801 12.1642 16.1738 12.1767 16.1614C12.1767 16.1364 12.1829 16.1239 12.1954 16.1239L12.2141 16.1426H12.2329V16.1988L12.289 16.1426ZM11.6527 12.6054L11.6714 12.6242H11.6901V12.6054H11.6527L11.7088 12.5493V12.5306L11.7275 12.5119L11.6714 12.4557L11.634 12.4932C11.634 12.4557 11.6277 12.4308 11.6152 12.4183L11.5965 12.3996C11.5965 12.3746 11.5965 12.3559 11.5965 12.3434C11.5716 12.2935 11.5217 12.281 11.4468 12.306C11.4219 12.306 11.4094 12.3247 11.4094 12.3621C11.4094 12.3746 11.4156 12.3809 11.4281 12.3809C11.4531 12.3809 11.478 12.3871 11.503 12.3996C11.5154 12.3996 11.5217 12.4121 11.5217 12.437V12.4744V12.4932C11.5341 12.5056 11.5466 12.5243 11.5591 12.5493L11.5778 12.568L11.5965 12.6054L11.6152 12.6242L11.6527 12.6054ZM4.74674 16.0116C4.78417 16.0241 4.80913 16.0491 4.8216 16.0865C4.8216 16.099 4.82784 16.1177 4.84032 16.1426L4.85903 16.1614H4.93389C4.93389 16.1738 4.93389 16.1801 4.93389 16.1801L4.95261 16.2175H5.02747V16.1239L4.97132 16.0491C4.94637 16.0116 4.91518 15.9929 4.87775 15.9929C4.86527 15.9804 4.84656 15.9742 4.8216 15.9742L4.74674 16.0116ZM11.2035 8.31963C11.216 8.31963 11.2285 8.31963 11.2409 8.31963C11.2659 8.30715 11.2784 8.30715 11.2784 8.31963V8.37577H11.2971C11.347 8.32587 11.3844 8.29467 11.4094 8.2822L11.4468 8.20734H11.3907L11.3532 8.16991C11.3158 8.16991 11.2909 8.16367 11.2784 8.15119C11.2534 8.12624 11.2222 8.12624 11.1848 8.15119C11.1973 8.18862 11.2035 8.24477 11.2035 8.31963ZM12.027 13.0172L12.0644 13.0546C12.0644 13.092 12.0769 13.1108 12.1018 13.1108C12.1143 13.1232 12.1393 13.1295 12.1767 13.1295L12.1954 13.1108C12.1705 13.0858 12.1455 13.0421 12.1206 12.9798L12.1018 12.961C12.0769 12.961 12.0582 12.9548 12.0457 12.9423L11.9896 12.8862C11.9771 12.8737 11.9646 12.8675 11.9521 12.8675C11.9396 12.8799 11.9334 12.8987 11.9334 12.9236H11.9147C11.9022 12.9361 11.896 12.9486 11.896 12.961C11.9209 12.961 11.9459 12.9798 11.9708 13.0172L11.9334 13.0546C11.9459 13.0671 11.9771 13.0484 12.027 12.9985H12.0644C12.0519 13.0109 12.0395 13.0172 12.027 13.0172ZM5.53278 16.3111C5.54526 16.2612 5.53278 16.2175 5.49535 16.1801C5.49535 16.1676 5.47664 16.1614 5.43921 16.1614L5.36435 16.1988C5.36435 16.2113 5.35811 16.2237 5.34563 16.2362C5.33315 16.2487 5.28948 16.2549 5.21462 16.2549L5.25205 16.2924H5.28948C5.33939 16.2674 5.38306 16.2736 5.42049 16.3111C5.45792 16.3236 5.49535 16.3236 5.53278 16.3111ZM8.99511 12.3996V12.437C9.00759 12.4495 9.01383 12.4495 9.01383 12.437L9.03254 12.4183C9.05749 12.3434 9.10116 12.306 9.16355 12.306H9.18226V12.2686L9.14483 12.2499H9.06997V12.1937C9.04502 12.1937 9.03254 12.2 9.03254 12.2124C9.03254 12.2374 9.02006 12.2623 8.99511 12.2873V12.3247C8.98263 12.3372 8.97016 12.3434 8.95768 12.3434C8.9452 12.3434 8.93896 12.3497 8.93896 12.3621L8.99511 12.3996ZM11.7837 12.5119C11.8086 12.4869 11.8336 12.4807 11.8585 12.4932L11.8398 12.5306C11.8398 12.5555 11.8523 12.568 11.8773 12.568L11.896 12.5493L11.9147 12.5119C11.9147 12.4994 11.9085 12.4869 11.896 12.4744C11.896 12.4495 11.896 12.4308 11.896 12.4183L11.8773 12.3996C11.8648 12.3996 11.8523 12.3996 11.8398 12.3996C11.8149 12.3746 11.7962 12.3621 11.7837 12.3621C11.7837 12.3746 11.7774 12.3871 11.765 12.3996C11.765 12.437 11.7525 12.4682 11.7275 12.4932C11.74 12.5056 11.7587 12.5119 11.7837 12.5119ZM9.31327 11.9878C9.30079 12.0003 9.28832 12.0128 9.27584 12.0253C9.26336 12.0253 9.25089 12.0253 9.23841 12.0253C9.23841 12.0253 9.23217 12.0315 9.21969 12.044C9.25712 12.0565 9.27584 12.0877 9.27584 12.1376C9.32575 12.1376 9.36318 12.1313 9.38813 12.1189C9.38813 12.1064 9.38813 12.1001 9.38813 12.1001L9.40685 12.0627L9.3507 12.0253L9.31327 11.9878ZM5.42049 12.437H5.40178L5.38306 12.4183C5.33315 12.3933 5.30196 12.3809 5.28948 12.3809C5.26453 12.3559 5.25205 12.3559 5.25205 12.3809C5.23958 12.3809 5.23334 12.3933 5.23334 12.4183C5.24582 12.4308 5.25829 12.437 5.27077 12.437C5.29572 12.437 5.32068 12.4495 5.34563 12.4744L5.40178 12.5306C5.41425 12.5181 5.42049 12.4869 5.42049 12.437ZM9.14483 11.9504L9.20098 12.0253C9.17602 12.0253 9.16355 12.0378 9.16355 12.0627L9.20098 12.0253C9.22593 12.0003 9.26336 11.9878 9.31327 11.9878V11.9691V11.913H9.25712C9.24465 11.913 9.23841 11.913 9.23841 11.913C9.22593 11.913 9.21969 11.9192 9.21969 11.9317C9.20722 11.9442 9.1885 11.9442 9.16355 11.9317C9.15107 11.9317 9.14483 11.9379 9.14483 11.9504ZM11.7463 15.6373V15.6748C11.7712 15.6498 11.7837 15.6248 11.7837 15.5999V15.525L11.6714 15.5812L11.6901 15.6186C11.7151 15.6186 11.7338 15.6248 11.7463 15.6373ZM12.8879 9.10567C12.8754 9.11815 12.8567 9.12439 12.8317 9.12439V9.10567C12.8317 9.08072 12.8255 9.06824 12.813 9.06824C12.7881 9.06824 12.7756 9.08072 12.7756 9.10567C12.7756 9.1431 12.7881 9.16805 12.813 9.18053H12.8317C12.8567 9.16805 12.8754 9.16182 12.8879 9.16182V9.10567ZM11.6901 14.7951L11.8024 14.7577C11.8274 14.7577 11.8274 14.7452 11.8024 14.7203H11.7837L11.7463 14.7016L11.7088 14.6828C11.7338 14.7078 11.7338 14.7265 11.7088 14.739C11.6839 14.7639 11.6776 14.7827 11.6901 14.7951ZM12.2703 16.1426C12.2453 16.1177 12.2204 16.1114 12.1954 16.1239C12.1954 16.0865 12.2017 16.0615 12.2141 16.0491L12.2329 16.0303C12.2453 16.0428 12.2703 16.0491 12.3077 16.0491V16.0865C12.2828 16.1114 12.2703 16.1302 12.2703 16.1426ZM8.32136 13.8594L8.22778 13.8968C8.25274 13.9218 8.27769 13.9342 8.30264 13.9342C8.31512 13.9218 8.34008 13.9155 8.37751 13.9155C8.36503 13.8781 8.34631 13.8594 8.32136 13.8594ZM5.66379 16.6105V16.5731C5.67627 16.5357 5.67003 16.5107 5.64507 16.4982C5.62012 16.4982 5.60764 16.5045 5.60764 16.5169C5.59517 16.5668 5.61388 16.598 5.66379 16.6105ZM4.67188 14.5331L4.59702 14.5893C4.6095 14.6017 4.62197 14.608 4.63445 14.608C4.6594 14.608 4.67812 14.6017 4.6906 14.5893C4.70307 14.5643 4.69683 14.5456 4.67188 14.5331ZM9.08869 12.5119C9.06373 12.4869 9.03254 12.4744 8.99511 12.4744C8.97016 12.4744 8.95768 12.4807 8.95768 12.4932C9.00759 12.5181 9.05126 12.5243 9.08869 12.5119ZM8.97639 12.2499C8.96392 12.2374 8.93896 12.2436 8.90153 12.2686C8.92649 12.2935 8.9452 12.306 8.95768 12.306C8.97016 12.2935 8.98263 12.2873 8.99511 12.2873C8.98263 12.2873 8.97639 12.2748 8.97639 12.2499ZM9.27584 11.6884L9.18226 11.6135L9.20098 11.651V11.6884C9.21345 11.7009 9.23841 11.7009 9.27584 11.6884ZM9.44428 11.6884C9.40685 11.6385 9.37565 11.6198 9.3507 11.6323C9.32575 11.6572 9.33199 11.6697 9.36942 11.6697C9.38189 11.6572 9.40685 11.6634 9.44428 11.6884ZM8.43365 13.8594L8.41494 13.8968L8.43365 13.9342L8.45237 13.9155C8.45237 13.8906 8.44613 13.8718 8.43365 13.8594ZM11.6152 7.5523V7.53359H11.6527C11.6901 7.53359 11.6963 7.54606 11.6714 7.57102C11.6589 7.58349 11.6402 7.57726 11.6152 7.5523ZM5.19591 16.3298L5.17719 16.3111C5.15224 16.2861 5.13976 16.2924 5.13976 16.3298L5.15848 16.3485C5.18343 16.3735 5.19591 16.3672 5.19591 16.3298ZM9.18226 12.568L9.20098 12.5493V12.5306C9.1885 12.5181 9.17602 12.5119 9.16355 12.5119L9.14483 12.5306L9.18226 12.568ZM9.06997 11.9317C9.03254 11.9317 9.0263 11.9442 9.05126 11.9691C9.05126 11.9816 9.05749 11.9878 9.06997 11.9878L9.08869 11.9691L9.06997 11.9317ZM9.42556 12.2686C9.43804 12.2561 9.44428 12.2311 9.44428 12.1937H9.40685C9.40685 12.2062 9.40685 12.2187 9.40685 12.2311C9.41932 12.2436 9.42556 12.2561 9.42556 12.2686ZM11.634 14.8326L11.5965 14.7951C11.5716 14.7951 11.5591 14.8076 11.5591 14.8326H11.634ZM11.5965 14.7951L11.634 14.7764C11.6464 14.7639 11.6464 14.7452 11.634 14.7203C11.609 14.7452 11.5903 14.7577 11.5778 14.7577L11.5965 14.7764V14.7951ZM11.634 15.5437C11.6215 15.5687 11.6152 15.5937 11.6152 15.6186L11.634 15.6373C11.634 15.6248 11.634 15.6186 11.634 15.6186C11.6464 15.6186 11.6527 15.6124 11.6527 15.5999C11.6402 15.5874 11.634 15.5687 11.634 15.5437ZM11.5965 14.6641C11.5591 14.6641 11.5404 14.6704 11.5404 14.6828V14.7016H11.5591L11.5965 14.6641ZM8.99511 12.7177L9.01383 12.699C9.00135 12.699 8.98887 12.6928 8.97639 12.6803C8.96392 12.6803 8.95768 12.6928 8.95768 12.7177H8.99511ZM11.8211 12.7365C11.8461 12.7115 11.8461 12.699 11.8211 12.699C11.8211 12.6491 11.8086 12.6491 11.7837 12.699L11.8211 12.7365ZM12.027 16.2924L12.0457 16.2736V16.2549H12.0083V16.2736L12.027 16.2924ZM12.289 16.1426C12.2765 16.1676 12.2703 16.205 12.2703 16.2549C12.2828 16.2175 12.289 16.1801 12.289 16.1426ZM12.3826 16.1426H12.3077C12.3327 16.1676 12.3576 16.1676 12.3826 16.1426ZM11.7463 12.6054L11.765 12.5867C11.7525 12.5743 11.7338 12.568 11.7088 12.568L11.7463 12.6054ZM12.9627 9.49869L13.0002 9.46126H12.944C12.9565 9.47374 12.9627 9.48621 12.9627 9.49869ZM8.95768 12.0253C8.9452 12.0378 8.93896 12.0502 8.93896 12.0627V12.0814L8.95768 12.0627V12.0253ZM11.8211 12.7739V12.7365L11.7837 12.7926C11.8086 12.7926 11.8211 12.7864 11.8211 12.7739ZM9.06997 11.9317V11.8568C9.05749 11.8943 9.05749 11.9192 9.06997 11.9317ZM11.9708 13.1856C11.9833 13.1731 11.9896 13.1607 11.9896 13.1482V13.1295L11.9521 13.1669C11.9646 13.1669 11.9708 13.1731 11.9708 13.1856ZM12.0831 13.1482H12.0644V13.1856C12.0769 13.1856 12.0831 13.1794 12.0831 13.1669V13.1482ZM8.17164 14.1401L8.20907 14.1027H8.19035C8.17788 14.1027 8.17164 14.1089 8.17164 14.1214V14.1401ZM11.1287 8.24477C11.1162 8.21981 11.0975 8.21981 11.0725 8.24477C11.0975 8.26972 11.1162 8.26972 11.1287 8.24477ZM10.9789 7.7956L10.9976 7.81432V7.77689C10.9852 7.77689 10.9789 7.77065 10.9789 7.75817V7.7956ZM12.9627 9.29282C12.9503 9.29282 12.9378 9.29906 12.9253 9.31154C12.9503 9.31154 12.9627 9.3053 12.9627 9.29282ZM8.93896 12.1937L8.92025 12.175V12.2124C8.93273 12.2124 8.93896 12.2062 8.93896 12.1937ZM11.634 14.5706L11.6527 14.5518H11.6152V14.5706H11.634ZM4.74674 16.0491V16.0116C4.73426 16.0241 4.72803 16.0366 4.72803 16.0491H4.74674ZM8.95768 12.437H8.99511C8.98263 12.4245 8.97016 12.4183 8.95768 12.4183V12.437ZM4.61573 16.0678L4.59702 16.0491V16.0678C4.59702 16.0803 4.60326 16.0865 4.61573 16.0865V16.0678ZM11.503 15.4315V15.4689L11.5217 15.4502C11.5217 15.4377 11.5154 15.4315 11.503 15.4315ZM11.6714 14.87V14.8326L11.6527 14.8513C11.6527 14.8638 11.6589 14.87 11.6714 14.87ZM12.8692 9.21796H12.9066C12.9066 9.20549 12.9004 9.19925 12.8879 9.19925L12.8692 9.21796ZM9.03254 12.7365V12.7552C9.03254 12.7676 9.03878 12.7739 9.05126 12.7739C9.05126 12.7614 9.04502 12.7489 9.03254 12.7365ZM12.8317 9.81685H12.8505V9.79814C12.838 9.79814 12.8317 9.80437 12.8317 9.81685ZM4.29757 14.9823V15.001H4.31629V14.9823H4.29757ZM9.18226 11.5761H9.20098V11.5574H9.18226V11.5761ZM11.4094 15.132V15.1507C11.4219 15.1507 11.4281 15.1445 11.4281 15.132H11.4094ZM11.8585 12.7926H11.8398V12.8113C11.8523 12.8113 11.8585 12.8051 11.8585 12.7926ZM12.813 8.6565H12.7943V8.67522C12.8068 8.67522 12.813 8.66898 12.813 8.6565ZM12.1206 16.0865V16.1052H12.1018V16.0865H12.1206ZM11.5404 14.608V14.5893L11.5217 14.5706V14.5893L11.5404 14.608ZM12.4013 15.8619H12.3826V15.8806C12.3951 15.8806 12.4013 15.8744 12.4013 15.8619ZM12.682 9.03081H12.7007V9.01209L12.682 9.03081ZM11.372 15.0759H11.3907L11.372 15.0571V15.0759ZM8.30264 13.9904H8.32136C8.32136 13.9779 8.31512 13.9717 8.30264 13.9717V13.9904ZM11.6527 14.6454V14.6267H11.634L11.6527 14.6454ZM12.0083 16.2175V16.2362H12.027L12.0083 16.2175ZM8.43365 13.4851H8.45237V13.4664C8.43989 13.4664 8.43365 13.4726 8.43365 13.4851ZM8.20907 13.8594V13.8781H8.22778L8.20907 13.8594ZM11.6714 14.215V14.1962H11.6527L11.6714 14.215ZM11.5404 15.7683H11.5591V15.7496L11.5404 15.7683ZM11.9896 7.27157L11.9708 7.29029H12.0083L11.9896 7.27157ZM9.46299 12.3621V12.3434H9.44428C9.44428 12.3559 9.45052 12.3621 9.46299 12.3621ZM13.0002 8.73136V8.69393L12.9815 8.71265L13.0002 8.73136ZM11.5217 12.4932V12.5493V12.4932ZM9.14483 12.4183V12.3996H9.12612C9.12612 12.4121 9.13236 12.4183 9.14483 12.4183ZM12.7007 9.96657H12.7195C12.7195 9.9541 12.7132 9.94786 12.7007 9.94786V9.96657ZM11.7463 15.787V15.7496L11.7275 15.7683C11.74 15.7683 11.7463 15.7746 11.7463 15.787ZM12.1018 15.8619L12.0831 15.8432H12.1018V15.8619ZM11.503 14.8139H11.5217L11.503 14.7951V14.8139ZM11.896 12.8675L11.8773 12.8487V12.8675H11.896ZM11.5217 15.4689V15.4876H11.5404L11.5217 15.4689ZM12.027 13.4289H12.0457L12.027 13.4102V13.4289ZM8.19035 14.3647L8.20907 14.346H8.19035V14.3647ZM11.8211 12.6242H11.8398L11.8211 12.6054V12.6242ZM4.27886 14.8887H4.29757V14.87L4.27886 14.8887ZM8.80796 12.5119H8.82667V12.4932L8.80796 12.5119ZM9.38813 12.2686H9.42556C9.41308 12.2561 9.40061 12.2561 9.38813 12.2686ZM4.26014 15.0197V15.001H4.24143L4.26014 15.0197ZM11.4655 15.1133H11.4842V15.0946L11.4655 15.1133ZM11.7088 14.1401V14.1214L11.6901 14.1401H11.7088ZM14.5622 19.2494H14.4873C14.4748 19.2369 14.4499 19.2307 14.4125 19.2307H14.3189C14.3064 19.2182 14.2814 19.2119 14.244 19.2119L14.0194 19.1558L13.6826 18.9874L13.5328 18.8564L13.5141 18.8376C13.4143 18.7628 13.3394 18.6692 13.2895 18.5569L13.2147 18.3323C13.2022 18.2949 13.196 18.2387 13.196 18.1639C13.196 18.0266 13.2022 17.9206 13.2147 17.8457C13.2396 17.7709 13.2708 17.6898 13.3083 17.6024C13.3083 17.59 13.3207 17.5588 13.3457 17.5089L13.458 17.3591C13.5204 17.2843 13.5952 17.2094 13.6826 17.1345L13.851 17.0223L14.1504 16.8912C14.3126 16.8413 14.4187 16.8101 14.4686 16.7977L14.6745 16.7415C14.7743 16.7166 14.8429 16.7041 14.8803 16.7041C14.9178 16.6916 14.9739 16.6854 15.0488 16.6854C15.1735 16.6604 15.2671 16.6479 15.3295 16.6479C15.3794 16.6355 15.4418 16.6292 15.5167 16.6292C15.5291 16.6292 15.5478 16.6292 15.5728 16.6292C15.6102 16.6168 15.6414 16.6105 15.6664 16.6105H15.7038C15.7662 16.623 15.866 16.6168 16.0033 16.5918H16.4524C16.4898 16.5918 16.5086 16.5793 16.5086 16.5544L16.6209 16.2924C16.6708 16.1925 16.702 16.1177 16.7144 16.0678L16.7706 15.9555L16.8454 15.787V15.7683C16.8579 15.7434 16.8642 15.7247 16.8642 15.7122C16.8392 15.7371 16.8018 15.7621 16.7519 15.787C16.652 15.8869 16.5398 15.9555 16.415 15.9929L16.3027 16.0678C16.128 16.1426 16.0282 16.1801 16.0033 16.1801H15.9658C15.9409 16.1925 15.9222 16.1988 15.9097 16.1988L15.7225 16.2362C15.6601 16.2487 15.579 16.2549 15.4792 16.2549C15.342 16.2549 15.1985 16.2362 15.0488 16.1988C15.0363 16.1988 15.0051 16.1925 14.9552 16.1801C14.9178 16.1551 14.8866 16.1364 14.8616 16.1239L14.7493 16.0678C14.5871 15.9804 14.4249 15.8494 14.2627 15.6748L14.0943 15.4127L14.0569 15.3379C14.0444 15.3379 14.0381 15.3316 14.0381 15.3192L13.982 15.1882L13.8884 14.8887L13.8323 14.5706V14.4957C13.8198 14.4707 13.8136 14.4208 13.8136 14.346C13.8136 14.2337 13.8073 14.1526 13.7948 14.1027V14.0652C13.7948 14.0403 13.8011 14.0153 13.8136 13.9904C13.8136 13.9529 13.8136 13.928 13.8136 13.9155C13.8136 13.7907 13.8198 13.6972 13.8323 13.6348C13.8448 13.6098 13.851 13.5599 13.851 13.4851C13.851 13.4726 13.8572 13.4601 13.8697 13.4476C13.8697 13.3853 13.8822 13.3042 13.9071 13.2043L14.0007 12.83C14.0631 12.6304 14.1005 12.5119 14.113 12.4744C14.1504 12.3247 14.1941 12.2062 14.244 12.1189C14.2565 12.1064 14.2627 12.0939 14.2627 12.0814C14.2752 12.0565 14.2814 12.0378 14.2814 12.0253L14.3937 11.8194L14.4686 11.651L14.506 11.5761H14.5247C14.5372 11.5512 14.5559 11.52 14.5809 11.4825C14.6058 11.4451 14.6183 11.4201 14.6183 11.4077L14.6932 11.2954C14.6932 11.2829 14.6994 11.2767 14.7119 11.2767C14.7244 11.2517 14.7431 11.2143 14.768 11.1644C14.8055 11.1145 14.8367 11.077 14.8616 11.0521C14.8741 11.0521 14.8866 11.0396 14.899 11.0146C14.9115 10.9897 14.924 10.9772 14.9365 10.9772C14.9989 10.9024 15.0675 10.8337 15.1423 10.7714L15.1985 10.6965C15.211 10.6965 15.2422 10.6715 15.2921 10.6216C15.3545 10.5717 15.4044 10.5343 15.4418 10.5093C15.4667 10.4844 15.4855 10.4719 15.4979 10.4719C15.4979 10.4594 15.4979 10.4532 15.4979 10.4532C15.5104 10.4532 15.5167 10.447 15.5167 10.4345C15.5666 10.4095 15.604 10.3846 15.6289 10.3596L15.7787 10.2848L15.8348 10.2473C15.8598 10.2224 15.9034 10.1974 15.9658 10.1725C16.0282 10.1475 16.0656 10.135 16.0781 10.135C16.1031 10.1226 16.1717 10.0976 16.284 10.0602C16.2965 10.0477 16.3651 10.029 16.4898 10.004C16.5023 9.99153 16.5273 9.98529 16.5647 9.98529C16.7893 9.96033 16.9515 9.9541 17.0513 9.96657C17.1636 9.96657 17.2447 9.97281 17.2946 9.98529L17.5005 10.0415L17.6876 10.0976C17.7001 10.0976 17.7188 10.1101 17.7438 10.135C17.7687 10.1475 17.7937 10.16 17.8186 10.1725C17.8685 10.1974 17.906 10.2224 17.9309 10.2473C18.0183 10.2972 18.1181 10.3846 18.2304 10.5093L18.3614 10.6591L18.3988 10.6965C18.4487 10.5842 18.4799 10.4844 18.4924 10.397L18.6047 10.1163C18.6172 10.0914 18.6359 10.0664 18.6608 10.0415C18.6858 10.004 18.7045 9.97905 18.717 9.96657C18.7294 9.9541 18.7419 9.94786 18.7544 9.94786C18.7794 9.93538 18.7981 9.92914 18.8105 9.92914C18.8355 9.91667 18.8729 9.91043 18.9228 9.91043H19.372C19.4344 9.91043 19.4843 9.91667 19.5217 9.92914C19.5592 9.94162 19.5903 9.97905 19.6153 10.0415C19.6153 10.0789 19.6028 10.1475 19.5779 10.2473L19.5217 10.4345C19.5217 10.447 19.5155 10.4657 19.503 10.4906C19.503 10.5031 19.4968 10.5093 19.4843 10.5093L19.4281 10.6965C19.4157 10.7714 19.3845 10.8836 19.3346 11.0334C19.3096 11.1332 19.2847 11.2205 19.2597 11.2954L19.1474 11.6697C19.1225 11.7445 19.0975 11.8319 19.0726 11.9317C19.0726 11.9442 19.0663 11.9629 19.0538 11.9878C19.0414 12.0003 19.0351 12.019 19.0351 12.044V12.0814L18.979 12.2499L18.9228 12.3996C18.8854 12.5243 18.8605 12.6054 18.848 12.6429C18.848 12.6554 18.8355 12.699 18.8105 12.7739L18.7731 12.9049C18.7482 12.9798 18.7357 13.0359 18.7357 13.0733L18.6795 13.2231L18.6047 13.4289L18.5672 13.6161L18.5111 13.7471C18.4737 13.8843 18.4487 13.9717 18.4362 14.0091C18.4362 14.0216 18.4238 14.0528 18.3988 14.1027C18.3988 14.1401 18.3863 14.1962 18.3614 14.2711L18.2304 14.6641C18.1805 14.7764 18.1493 14.8762 18.1368 14.9636C18.1118 15.0135 18.0994 15.0447 18.0994 15.0571C18.0869 15.0821 18.0619 15.1445 18.0245 15.2443C17.9746 15.3691 17.9434 15.4626 17.9309 15.525L17.8373 15.7683L17.7438 16.0303L17.7063 16.1052L17.6128 16.3485L17.5753 16.4234L17.7251 16.3672L18.0058 16.1988C18.1555 16.099 18.2616 16.0179 18.3239 15.9555L18.5672 15.7309L18.717 15.5812C18.7294 15.5562 18.7606 15.5188 18.8105 15.4689C18.8979 15.3441 18.9478 15.2755 18.9603 15.263L19.0351 15.1694L19.0538 15.1507L19.0913 15.0946C19.1037 15.0696 19.1162 15.0447 19.1287 15.0197L19.2597 14.8139L19.3159 14.7203L19.5217 14.2898L19.6153 14.1027C19.6153 14.0902 19.6153 14.084 19.6153 14.084L19.634 14.0465C19.634 14.034 19.6403 14.0216 19.6527 14.0091L19.7276 13.8032C19.7525 13.7408 19.7775 13.6597 19.8025 13.5599L19.8586 13.4664C19.896 13.3915 19.9584 13.3541 20.0458 13.3541C20.158 13.3541 20.2703 13.3728 20.3826 13.4102C20.4824 13.4476 20.5448 13.4726 20.5698 13.4851C20.6197 13.535 20.6509 13.5786 20.6634 13.6161V13.7845C20.6634 13.8095 20.6571 13.8344 20.6446 13.8594L20.5511 14.1027L20.4762 14.2898L20.3826 14.477C20.3327 14.6017 20.2454 14.7889 20.1206 15.0384L19.8586 15.4502L19.7276 15.6373C19.7151 15.6498 19.6964 15.6685 19.6714 15.6935C19.659 15.7184 19.6403 15.7496 19.6153 15.787C19.6028 15.812 19.5903 15.8307 19.5779 15.8432C19.5654 15.8557 19.5342 15.8869 19.4843 15.9368C19.4469 15.9867 19.4157 16.0241 19.3907 16.0491L19.2036 16.2549L19.1474 16.3111L19.0164 16.4234L18.9228 16.5169L18.7357 16.6667C18.7232 16.6667 18.717 16.6667 18.717 16.6667C18.717 16.6791 18.7107 16.6854 18.6983 16.6854L18.3614 16.91L18.1742 17.0035C18.0994 17.0534 17.9871 17.1034 17.8373 17.1533C17.7001 17.2032 17.6128 17.2344 17.5753 17.2468C17.5005 17.2718 17.4568 17.2843 17.4443 17.2843L17.1636 17.3404C17.1511 17.3404 17.1324 17.3529 17.1075 17.3778C17.095 17.4153 17.07 17.4589 17.0326 17.5089C17.0076 17.5712 16.9889 17.6087 16.9764 17.6211C16.9265 17.721 16.8829 17.7896 16.8454 17.827L16.6583 18.089L16.6021 18.1639C16.5772 18.2138 16.521 18.2824 16.4337 18.3698L16.153 18.6318C16.0656 18.7441 15.9284 18.8439 15.7412 18.9312C15.7288 18.9437 15.6601 18.9811 15.5354 19.0435C15.5229 19.0435 15.5042 19.056 15.4792 19.0809C15.4418 19.0934 15.3981 19.1059 15.3482 19.1184C15.2983 19.1433 15.2609 19.1558 15.2359 19.1558L14.9365 19.2119C14.8866 19.2244 14.8179 19.2307 14.7306 19.2307C14.6932 19.2431 14.637 19.2494 14.5622 19.2494ZM15.7412 15.2443H15.8348C15.8473 15.2318 15.8847 15.2193 15.9471 15.2069C16.022 15.1944 16.0719 15.1757 16.0968 15.1507L16.3214 15.0384C16.4462 14.9386 16.5709 14.8326 16.6957 14.7203L16.9016 14.4957L17.1262 14.215L17.4069 13.7471L17.463 13.6348C17.5379 13.51 17.5878 13.4102 17.6128 13.3353C17.6128 13.3229 17.6315 13.2792 17.6689 13.2043L17.7251 13.0172C17.75 12.9298 17.775 12.8113 17.7999 12.6616C17.8124 12.6366 17.8186 12.593 17.8186 12.5306C17.8186 12.4932 17.8186 12.437 17.8186 12.3621C17.8311 12.2748 17.8373 12.2062 17.8373 12.1563C17.8373 12.019 17.8186 11.8818 17.7812 11.7445C17.7812 11.7196 17.775 11.6946 17.7625 11.6697C17.75 11.5823 17.7188 11.495 17.6689 11.4077C17.5441 11.2205 17.4693 11.1145 17.4443 11.0895C17.3944 11.0396 17.357 11.0084 17.332 10.9959C17.1948 10.9211 17.1137 10.8836 17.0887 10.8836C17.0763 10.8836 17.0451 10.8836 16.9952 10.8836C16.9453 10.8712 16.9141 10.8649 16.9016 10.8649H16.8267C16.7519 10.8525 16.6645 10.8587 16.5647 10.8836L16.3963 10.9398L16.3776 10.9585C16.2154 11.0458 16.128 11.102 16.1155 11.1269H16.0781L15.9284 11.2579C15.9159 11.2704 15.891 11.3016 15.8535 11.3515C15.8161 11.389 15.7849 11.4201 15.76 11.4451L15.5728 11.7071L15.4231 11.9317L15.3108 12.1937L15.2546 12.306C15.2297 12.3559 15.2047 12.4308 15.1798 12.5306L15.1611 12.568L15.1236 12.6429C15.0987 12.7427 15.0737 12.8176 15.0488 12.8675C15.0488 12.8924 15.0425 12.9236 15.0301 12.961C15.0176 12.9985 15.0113 13.0234 15.0113 13.0359C15.0113 13.0484 15.0051 13.0733 14.9926 13.1108C14.9801 13.1357 14.9677 13.1607 14.9552 13.1856C14.9552 13.2106 14.9552 13.2355 14.9552 13.2605C14.9552 13.273 14.949 13.2917 14.9365 13.3166V13.3541C14.9365 13.4164 14.9302 13.4601 14.9178 13.4851C14.9178 13.51 14.9115 13.5475 14.899 13.5974C14.899 13.6473 14.899 13.6909 14.899 13.7284V13.7471V13.9529V14.084C14.899 14.1463 14.9053 14.19 14.9178 14.215V14.2898C14.9178 14.3023 14.924 14.321 14.9365 14.346V14.4395L14.9926 14.5893C15.0176 14.6641 15.0425 14.7203 15.0675 14.7577C15.0924 14.8076 15.1423 14.8825 15.2172 14.9823C15.2546 15.0447 15.2983 15.0821 15.3482 15.0946L15.4792 15.1882L15.5541 15.2256C15.579 15.2256 15.6102 15.2318 15.6477 15.2443C15.6976 15.2443 15.7288 15.2443 15.7412 15.2443ZM16.0407 17.4153H15.6664C15.604 17.4278 15.5042 17.434 15.3669 17.434C15.3545 17.434 15.3295 17.434 15.2921 17.434C15.2546 17.4465 15.2234 17.4527 15.1985 17.4527L14.8242 17.5089C14.6994 17.5213 14.5809 17.5588 14.4686 17.6211C14.3563 17.6835 14.2877 17.7522 14.2627 17.827C14.2503 17.852 14.244 17.8832 14.244 17.9206C14.269 18.0079 14.3064 18.0703 14.3563 18.1077L14.4873 18.2013C14.5747 18.2387 14.7057 18.2575 14.8803 18.2575C15.0425 18.2325 15.1361 18.2076 15.1611 18.1826L15.2734 18.1452C15.4356 18.0454 15.5291 17.983 15.5541 17.958H15.5728L15.7225 17.827L15.8722 17.6586C15.8722 17.6461 15.8847 17.6274 15.9097 17.6024C15.9097 17.59 15.9284 17.5588 15.9658 17.5089C16.0033 17.4714 16.0282 17.4402 16.0407 17.4153ZM14.4686 12.961H14.4499C14.4374 12.961 14.4249 12.9548 14.4125 12.9423L14.3563 12.9798V12.961C14.3314 12.9486 14.3126 12.9548 14.3002 12.9798V12.9985L14.244 13.0359L14.2627 13.0546C14.2877 13.0796 14.2814 13.1045 14.244 13.1295C14.244 13.1544 14.2503 13.1731 14.2627 13.1856C14.2752 13.1981 14.2752 13.2168 14.2627 13.2418C14.2877 13.2418 14.3064 13.248 14.3189 13.2605V13.2231C14.3189 13.2106 14.3189 13.1981 14.3189 13.1856C14.3314 13.1607 14.3376 13.142 14.3376 13.1295C14.3501 13.117 14.3625 13.117 14.375 13.1295C14.375 13.142 14.3813 13.1482 14.3937 13.1482C14.3937 13.1357 14.4062 13.117 14.4312 13.092H14.4499C14.4499 13.0421 14.4561 13.0109 14.4686 12.9985V12.9798C14.506 12.9798 14.5247 12.961 14.5247 12.9236C14.4998 12.9486 14.4811 12.961 14.4686 12.961ZM14.5996 12.2499H14.637H14.6558V12.2873C14.6682 12.2998 14.6745 12.3122 14.6745 12.3247C14.6869 12.2998 14.7057 12.2873 14.7306 12.2873C14.7556 12.3122 14.7618 12.331 14.7493 12.3434H14.6745C14.6745 12.3684 14.6807 12.3933 14.6932 12.4183C14.7181 12.4432 14.7306 12.462 14.7306 12.4744L14.7493 12.4557V12.437H14.8242C14.8242 12.4245 14.8304 12.4121 14.8429 12.3996C14.8554 12.3996 14.8616 12.4058 14.8616 12.4183V12.3809C14.8491 12.3684 14.8367 12.3621 14.8242 12.3621C14.8491 12.3372 14.8616 12.3122 14.8616 12.2873C14.8741 12.2873 14.8866 12.2935 14.899 12.306C14.9115 12.281 14.9053 12.2686 14.8803 12.2686H14.8616C14.8616 12.2436 14.8679 12.2187 14.8803 12.1937C14.8679 12.2062 14.8304 12.2124 14.768 12.2124C14.768 12.2249 14.7618 12.2311 14.7493 12.2311H14.7119V12.2686C14.6994 12.2686 14.6869 12.2623 14.6745 12.2499H14.6558L14.6932 12.2124C14.6682 12.2 14.637 12.1937 14.5996 12.1937L14.637 12.2311L14.6183 12.2499H14.5996ZM17.9684 10.9211C17.9684 10.9335 17.9684 10.9398 17.9684 10.9398L17.9871 10.9772L17.9309 11.0334H17.9684C17.9684 11.0209 17.9808 11.0146 18.0058 11.0146H18.0432L18.0806 10.9772C18.0931 10.9647 18.1243 10.9585 18.1742 10.9585C18.1867 10.9585 18.1992 10.9647 18.2117 10.9772L18.1929 10.9211H18.1181C18.1181 10.9086 18.1243 10.9024 18.1368 10.9024C18.1493 10.8899 18.1555 10.8774 18.1555 10.8649V10.8088L18.1368 10.8275C18.1368 10.8525 18.1243 10.8649 18.0994 10.8649L18.1368 10.8275C18.0744 10.8525 18.0432 10.8774 18.0432 10.9024C18.0557 10.9523 18.0495 10.9772 18.0245 10.9772C18.0245 10.9398 18.0058 10.9211 17.9684 10.9211ZM13.8323 18.2575H13.8697V18.1826C13.8822 18.1826 13.8884 18.1764 13.8884 18.1639C13.8884 18.1514 13.8822 18.1389 13.8697 18.1265C13.8448 18.1764 13.8198 18.1951 13.7948 18.1826C13.8073 18.2076 13.8136 18.2387 13.8136 18.2762C13.7886 18.2637 13.7699 18.2637 13.7574 18.2762C13.8073 18.3011 13.8448 18.3261 13.8697 18.351C13.8697 18.3136 13.8572 18.2824 13.8323 18.2575ZM14.3376 13.8219H14.3563L14.375 13.8032C14.3875 13.7907 14.3875 13.772 14.375 13.7471H14.4125C14.4374 13.7471 14.4499 13.7408 14.4499 13.7284C14.4249 13.7034 14.4125 13.6847 14.4125 13.6722H14.3563C14.3563 13.6972 14.3688 13.7096 14.3937 13.7096L14.375 13.7284C14.3625 13.7284 14.3625 13.7346 14.375 13.7471L14.3563 13.7658C14.3438 13.7658 14.3376 13.7596 14.3376 13.7471C14.3251 13.7845 14.3251 13.8095 14.3376 13.8219ZM14.3563 14.3085L14.3189 14.2524C14.3064 14.2649 14.3064 14.2773 14.3189 14.2898C14.3314 14.3023 14.3376 14.3148 14.3376 14.3273C14.3376 14.3522 14.3314 14.3709 14.3189 14.3834C14.3314 14.3834 14.3501 14.3959 14.375 14.4208V14.4021C14.3875 14.3896 14.3937 14.3772 14.3937 14.3647L14.4125 14.3834L14.4499 14.3647C14.4249 14.3397 14.3875 14.3273 14.3376 14.3273L14.3563 14.3085ZM17.6128 14.346C17.6128 14.3335 17.6065 14.321 17.594 14.3085C17.5816 14.321 17.5691 14.3273 17.5566 14.3273C17.5566 14.3522 17.5691 14.3647 17.594 14.3647L17.6128 14.346H17.6315L17.6128 14.3647H17.6315L17.6689 14.3085C17.6689 14.2711 17.6502 14.2462 17.6128 14.2337C17.6128 14.2462 17.619 14.2586 17.6315 14.2711V14.3085C17.6315 14.321 17.6252 14.3335 17.6128 14.346ZM14.4312 14.5893V14.5144C14.4187 14.5019 14.4 14.5019 14.375 14.5144C14.3625 14.5269 14.3501 14.5331 14.3376 14.5331L14.4125 14.6454C14.4249 14.6329 14.4249 14.6142 14.4125 14.5893L14.3937 14.5706C14.4062 14.5706 14.4125 14.5768 14.4125 14.5893C14.4125 14.5893 14.4187 14.5893 14.4312 14.5893ZM13.6077 18.2949C13.6202 18.2949 13.6389 18.3011 13.6638 18.3136V18.2949C13.6514 18.2824 13.6451 18.2699 13.6451 18.2575H13.5703L13.5141 18.2949L13.5703 18.3323C13.5703 18.3074 13.5827 18.2949 13.6077 18.2949ZM18.8293 10.9024V10.9211C18.8417 10.9335 18.8605 10.9398 18.8854 10.9398H18.9041C18.9291 10.9273 18.9478 10.9211 18.9603 10.9211L18.8854 10.8462C18.8854 10.8836 18.8792 10.9086 18.8667 10.9211C18.8542 10.9086 18.8417 10.9024 18.8293 10.9024ZM13.6638 17.9019C13.6264 17.9019 13.6077 17.9143 13.6077 17.9393L13.589 17.9767C13.589 18.0017 13.589 18.0204 13.589 18.0329C13.6139 18.0204 13.6264 18.0142 13.6264 18.0142C13.6264 17.9518 13.6389 17.9143 13.6638 17.9019ZM18.6983 10.8836H18.848C18.8355 10.8836 18.8168 10.8774 18.7918 10.8649C18.7669 10.8774 18.7419 10.8649 18.717 10.8275H18.6983V10.8462V10.8836ZM14.1692 17.6024L14.1879 17.5837C14.1879 17.5712 14.1879 17.5588 14.1879 17.5463L14.1317 17.4901V17.5276C14.1317 17.565 14.1442 17.59 14.1692 17.6024ZM18.8293 11.0146C18.8417 11.0022 18.8417 10.9897 18.8293 10.9772C18.8168 10.9772 18.8105 10.9647 18.8105 10.9398H18.7731C18.7731 10.9647 18.7794 10.9772 18.7918 10.9772L18.8293 11.0146ZM17.3882 14.7577L17.332 14.7016C17.3196 14.714 17.3133 14.714 17.3133 14.7016C17.3008 14.7016 17.2946 14.7078 17.2946 14.7203C17.2946 14.7328 17.3008 14.739 17.3133 14.739L17.332 14.7577C17.357 14.7577 17.3757 14.7577 17.3882 14.7577ZM18.7918 11.2205L18.7731 11.1831C18.7482 11.1831 18.7357 11.1893 18.7357 11.2018L18.717 11.2205H18.7918ZM18.0432 13.4851L18.0994 13.4476L18.0619 13.4102L18.0432 13.4289C18.0432 13.4414 18.0432 13.4476 18.0432 13.4476V13.4851ZM18.8854 10.9585C18.8729 10.971 18.8667 10.9959 18.8667 11.0334C18.9041 11.0458 18.9291 11.0396 18.9415 11.0146C18.9166 11.0271 18.8979 11.0334 18.8854 11.0334C18.8854 11.0209 18.8854 10.9959 18.8854 10.9585ZM17.4256 14.6454V14.608C17.3882 14.608 17.3632 14.6205 17.3508 14.6454H17.4256ZM18.1742 13.3353C18.1368 13.3353 18.1181 13.3229 18.1181 13.2979V13.3166L18.0994 13.3353C18.1243 13.3603 18.1493 13.3603 18.1742 13.3353ZM14.8803 12.4183V12.437L14.8429 12.4932H14.8616L14.899 12.4744L14.9178 12.4557C14.9178 12.4308 14.9115 12.4183 14.899 12.4183H14.8803ZM14.5622 12.2873L14.5996 12.2499C14.5996 12.2374 14.5934 12.2311 14.5809 12.2311L14.5247 12.2873C14.5247 12.3122 14.5372 12.3122 14.5622 12.2873ZM18.2117 12.437V12.4744V12.5119L18.2304 12.4932C18.2428 12.4932 18.2553 12.4869 18.2678 12.4744C18.2553 12.4744 18.2366 12.462 18.2117 12.437ZM17.8373 14.1027H17.7625C17.7625 14.1151 17.7562 14.1214 17.7438 14.1214H17.7625L17.7812 14.1401C17.7937 14.1401 17.8124 14.1276 17.8373 14.1027ZM13.982 17.9954L14.0381 18.0516H14.0569V18.0329C14.0569 18.0079 14.0319 17.9954 13.982 17.9954ZM14.8803 12.3434C14.9053 12.3684 14.924 12.3809 14.9365 12.3809C14.9365 12.3684 14.9365 12.3621 14.9365 12.3621C14.9365 12.3372 14.9302 12.3247 14.9178 12.3247C14.8928 12.3247 14.8803 12.331 14.8803 12.3434ZM18.2865 11.4638V11.52H18.3052V11.4451L18.2865 11.4638ZM14.244 14.3834C14.244 14.3584 14.2503 14.3397 14.2627 14.3273C14.2503 14.3273 14.2315 14.3397 14.2066 14.3647C14.2066 14.3772 14.2191 14.3834 14.244 14.3834ZM14.5996 14.3834H14.5622C14.5497 14.4208 14.5622 14.4395 14.5996 14.4395C14.5747 14.4146 14.5747 14.3959 14.5996 14.3834ZM13.8323 18.1452L13.8884 18.0703C13.851 18.0703 13.8323 18.0953 13.8323 18.1452ZM17.9684 10.9211C17.9808 10.9086 17.9871 10.8961 17.9871 10.8836C17.9995 10.8961 18.012 10.8961 18.0245 10.8836L18.0058 10.8649C17.9684 10.8774 17.9559 10.8961 17.9684 10.9211ZM14.2627 13.4664L14.2814 13.4476C14.2565 13.4227 14.2378 13.4102 14.2253 13.4102C14.2378 13.4227 14.244 13.4414 14.244 13.4664H14.2627ZM18.6047 11.782V11.7071H18.586C18.5735 11.7196 18.5797 11.7445 18.6047 11.782ZM14.9552 12.1563C14.9427 12.1937 14.9427 12.2187 14.9552 12.2311C14.9677 12.2187 14.9801 12.2124 14.9926 12.2124C14.9677 12.1875 14.9552 12.1688 14.9552 12.1563ZM14.3376 13.8219C14.3126 13.8219 14.2877 13.8157 14.2627 13.8032V13.8407C14.2877 13.8407 14.3126 13.8344 14.3376 13.8219ZM14.4312 13.6348C14.4436 13.6098 14.4499 13.5849 14.4499 13.5599L14.4125 13.5974V13.6161L14.4312 13.6348ZM14.5996 12.8675H14.6745L14.6183 12.83C14.6183 12.8425 14.6121 12.8487 14.5996 12.8487C14.5996 12.8487 14.5996 12.855 14.5996 12.8675ZM14.3189 14.2524L14.3563 14.215C14.3438 14.2025 14.3314 14.2025 14.3189 14.215C14.3064 14.2274 14.2939 14.2337 14.2814 14.2337C14.2939 14.2337 14.3002 14.2399 14.3002 14.2524C14.3002 14.2524 14.3064 14.2524 14.3189 14.2524ZM13.6077 18.2949C13.6077 18.3323 13.6139 18.3573 13.6264 18.3698C13.6389 18.3573 13.6389 18.3448 13.6264 18.3323C13.6264 18.3198 13.6264 18.3136 13.6264 18.3136C13.6139 18.3136 13.6077 18.3074 13.6077 18.2949ZM16.8454 17.0597C16.8704 17.0597 16.8829 17.0534 16.8829 17.041L16.8642 17.0223C16.8517 17.0223 16.8454 17.0347 16.8454 17.0597ZM18.717 11.0895C18.7294 11.077 18.7357 11.0646 18.7357 11.0521C18.6983 11.0646 18.6795 11.077 18.6795 11.0895C18.692 11.077 18.7045 11.077 18.717 11.0895ZM18.0619 13.3541H18.0806C18.0806 13.3416 18.0806 13.3353 18.0806 13.3353L18.0619 13.2979C18.0495 13.2979 18.0432 13.2917 18.0432 13.2792C18.0432 13.2917 18.0432 13.3104 18.0432 13.3353L18.0619 13.3541ZM13.5141 18.1077L13.5703 18.1639C13.5703 18.1265 13.5515 18.1077 13.5141 18.1077ZM14.4686 14.608C14.4811 14.608 14.4998 14.608 14.5247 14.608L14.5435 14.5893C14.5185 14.5768 14.4936 14.583 14.4686 14.608ZM18.6421 11.0895C18.6172 11.0895 18.6047 11.0957 18.6047 11.1082L18.6234 11.1269C18.6359 11.1269 18.6483 11.1269 18.6608 11.1269L18.6421 11.1082V11.0895ZM18.6983 11.2018V11.1457C18.6733 11.1706 18.6671 11.1893 18.6795 11.2018H18.6983ZM13.6264 17.8083V17.8644H13.6451V17.8083H13.6264ZM14.5809 13.8407L14.5435 13.8968C14.5684 13.8968 14.5809 13.8781 14.5809 13.8407ZM18.1368 13.2418V13.2231L18.0994 13.2605C18.1243 13.2854 18.1368 13.2792 18.1368 13.2418ZM18.1368 11.2954L18.0994 11.3328H18.1555L18.1368 11.2954ZM17.9684 10.9398L17.9496 10.9772L17.9309 10.9959C17.9559 10.9835 17.9684 10.9647 17.9684 10.9398ZM18.2678 11.6884V11.6323C18.2428 11.6572 18.2428 11.6759 18.2678 11.6884ZM18.4362 12.3996H18.4737C18.4737 12.3871 18.4674 12.3746 18.455 12.3621C18.4425 12.3746 18.4362 12.3871 18.4362 12.3996ZM17.6502 14.8513C17.6252 14.8388 17.6065 14.8388 17.594 14.8513C17.6065 14.8638 17.6252 14.8638 17.6502 14.8513ZM14.5622 14.0465L14.5247 13.9904C14.5123 14.0153 14.5247 14.034 14.5622 14.0465ZM14.3189 14.0465L14.3376 14.0652C14.3376 14.0528 14.3376 14.0465 14.3376 14.0465L14.3563 14.0091C14.3314 14.0091 14.3189 14.0216 14.3189 14.0465ZM14.3376 14.4021L14.3002 14.4583C14.3251 14.4583 14.3376 14.4395 14.3376 14.4021ZM14.6932 12.0627V12.1376C14.7057 12.1251 14.7057 12.1001 14.6932 12.0627ZM14.4873 14.5331C14.4998 14.5331 14.506 14.5269 14.506 14.5144L14.4686 14.4957V14.5144L14.4873 14.5331ZM13.8323 18.3885C13.8198 18.376 13.8136 18.376 13.8136 18.3885H13.7948L13.8136 18.4072V18.4259C13.826 18.4134 13.8323 18.4009 13.8323 18.3885ZM14.3937 13.8781C14.4187 13.8781 14.4312 13.8656 14.4312 13.8407C14.4062 13.8407 14.3937 13.8531 14.3937 13.8781ZM14.9552 12.1563C14.9302 12.1563 14.9178 12.175 14.9178 12.2124C14.9178 12.2 14.9302 12.1812 14.9552 12.1563ZM18.1742 11.4451L18.1929 11.4825L18.2304 11.4638C18.2179 11.4638 18.1992 11.4576 18.1742 11.4451ZM18.3052 12.3809C18.2803 12.3809 18.2678 12.3933 18.2678 12.4183L18.3052 12.3809ZM13.6638 18.0142C13.6514 18.0266 13.6451 18.0454 13.6451 18.0703C13.6701 18.0454 13.6763 18.0266 13.6638 18.0142ZM14.0943 18.7066C14.0943 18.7191 14.1005 18.7316 14.113 18.7441L14.1317 18.7628C14.1317 18.7378 14.1192 18.7191 14.0943 18.7066ZM18.7731 11.1269L18.7544 11.1082L18.7357 11.1269C18.7482 11.1394 18.7606 11.1457 18.7731 11.1457V11.1269ZM14.5809 14.5518V14.5331L14.5622 14.5144H14.5435V14.5331C14.5559 14.5331 14.5684 14.5394 14.5809 14.5518ZM14.637 12.3621C14.6246 12.3746 14.6121 12.3809 14.5996 12.3809L14.5809 12.3621L14.5996 12.3996C14.6121 12.3996 14.6246 12.3871 14.637 12.3621ZM14.3937 13.8032C14.3813 13.8032 14.3625 13.8095 14.3376 13.8219C14.3625 13.8344 14.3813 13.8282 14.3937 13.8032ZM14.8242 12.1563L14.8055 12.175C14.793 12.175 14.7805 12.175 14.768 12.175C14.7805 12.175 14.7868 12.1812 14.7868 12.1937L14.8242 12.1563ZM13.7013 18.2013H13.6638V18.2387L13.7013 18.2013ZM14.0569 18.3136C14.0569 18.3386 14.0631 18.3573 14.0756 18.3698C14.0756 18.3323 14.0693 18.3136 14.0569 18.3136ZM13.7387 18.0329C13.7387 18.0703 13.7449 18.089 13.7574 18.089C13.7574 18.0641 13.7512 18.0454 13.7387 18.0329ZM13.7574 18.1077V18.1639C13.7699 18.1639 13.7761 18.1576 13.7761 18.1452C13.7761 18.1327 13.7699 18.1202 13.7574 18.1077ZM17.6502 14.4208L17.6876 14.4583C17.6876 14.4333 17.6751 14.4208 17.6502 14.4208ZM13.9259 18.1639L13.8884 18.22C13.9134 18.2076 13.9259 18.1888 13.9259 18.1639ZM18.9603 10.3222C18.9603 10.2848 18.9478 10.2785 18.9228 10.3035H18.9041L18.9228 10.3222C18.9228 10.3097 18.9291 10.3035 18.9415 10.3035L18.9603 10.3222ZM17.8373 10.7152H17.7812C17.7937 10.7402 17.8124 10.7402 17.8373 10.7152ZM17.0326 15.2069V15.263C17.0575 15.2505 17.0575 15.2318 17.0326 15.2069ZM13.72 18.2949V18.3323C13.7325 18.3323 13.7387 18.3261 13.7387 18.3136C13.7387 18.3011 13.7325 18.2949 13.72 18.2949ZM18.0432 11.651H18.0245C18.012 11.651 18.0058 11.6572 18.0058 11.6697C18.0183 11.6697 18.0245 11.6759 18.0245 11.6884L18.0432 11.651ZM14.5247 14.4208L14.4873 14.4583C14.5123 14.4583 14.5247 14.4458 14.5247 14.4208ZM14.7119 12.1937C14.7119 12.1688 14.6994 12.1625 14.6745 12.175H14.6932L14.7119 12.1937ZM14.0007 18.2949V18.3323C14.0132 18.3198 14.0194 18.3074 14.0194 18.2949C14.0194 18.2824 14.0132 18.2824 14.0007 18.2949ZM14.9552 12.044L14.9739 12.0627H14.9926C14.9801 12.0502 14.9677 12.044 14.9552 12.044ZM14.4873 14.2524H14.4312C14.4436 14.2649 14.4624 14.2649 14.4873 14.2524ZM14.5247 14.6454C14.4873 14.6329 14.4686 14.6392 14.4686 14.6641C14.4811 14.6517 14.4998 14.6454 14.5247 14.6454ZM14.3563 14.215V14.2337H14.3937C14.3937 14.2212 14.3813 14.215 14.3563 14.215ZM18.586 11.6135V11.6697C18.5984 11.6572 18.5984 11.6385 18.586 11.6135ZM14.4125 13.9717L14.375 14.0091C14.4 14.0091 14.4125 13.9966 14.4125 13.9717ZM17.1636 16.8725H17.201C17.1761 16.8601 17.1636 16.8601 17.1636 16.8725ZM18.8105 11.1831V11.1457V11.1831ZM14.9552 12.1563V12.1376H14.9365L14.9552 12.1563ZM18.1555 13.2043L18.1368 13.2231L18.1555 13.2043Z" fill="#131313"/>
</svg>
