<svg width="24" height="24" viewBox="0 0 24 24" fill="none" xmlns="http://www.w3.org/2000/svg">
<path d="M12.9785 16H10.791C10.791 15.6992 10.5837 14.847 10.1689 13.4434H7.01074C6.58236 14.8242 6.36816 15.6764 6.36816 16H4.31055C4.31055 15.8223 4.84147 14.3639 5.90332 11.625C6.96973 8.88607 7.50293 7.3776 7.50293 7.09961H10.0869C10.0869 7.35938 10.5677 8.84733 11.5293 11.5635C12.4954 14.2751 12.9785 15.7539 12.9785 16ZM9.82031 12.1377C9.04102 9.78613 8.65137 8.51465 8.65137 8.32324H8.54199C8.54199 8.50098 8.13867 9.77246 7.33203 12.1377H9.82031ZM20.6348 8.5625L20.4844 9.83398C19.7734 9.83398 19.3291 9.93652 19.1514 10.1416V10.2305C19.4202 10.5723 19.5547 10.9551 19.5547 11.3789C19.5547 12.0306 19.3132 12.5866 18.8301 13.0469C18.3516 13.5072 17.6361 13.7373 16.6836 13.7373C16.2188 13.7373 15.8382 13.7008 15.542 13.6279C15.3005 13.7373 15.1797 13.8809 15.1797 14.0586C15.1797 14.3366 15.3232 14.5326 15.6104 14.6465C15.902 14.7559 16.5765 14.8105 17.6338 14.8105C19.4613 14.8105 20.375 15.4326 20.375 16.6768C20.375 17.5518 19.9945 18.2467 19.2334 18.7617C18.4723 19.2767 17.5472 19.5342 16.458 19.5342C14.3252 19.5342 13.2588 18.8643 13.2588 17.5244C13.2588 17.1097 13.3773 16.7565 13.6143 16.4648C13.8558 16.1777 14.1338 16.0023 14.4482 15.9385V15.8359C14.0654 15.5944 13.874 15.2253 13.874 14.7285C13.874 14.2272 14.1361 13.8079 14.6602 13.4707V13.375C13.9219 13.0059 13.5527 12.4294 13.5527 11.6455C13.5527 10.9756 13.8057 10.415 14.3115 9.96387C14.8219 9.5127 15.6081 9.28711 16.6699 9.28711C17.3945 9.28711 17.9824 9.42383 18.4336 9.69727H18.5293C18.6615 8.83594 19.1035 8.40527 19.8555 8.40527C20.1517 8.40527 20.4115 8.45768 20.6348 8.5625ZM18.6865 17.1826C18.6865 16.8454 18.5566 16.6016 18.2969 16.4512C18.0417 16.3008 17.5996 16.2256 16.9707 16.2256C16.4603 16.2256 15.9453 16.2028 15.4258 16.1572C15.0247 16.3942 14.8242 16.7474 14.8242 17.2168C14.8242 18.0918 15.4076 18.5293 16.5742 18.5293C17.2259 18.5293 17.7409 18.4062 18.1191 18.1602C18.4974 17.9141 18.6865 17.5882 18.6865 17.1826ZM17.8799 11.5566C17.8799 11.1465 17.7477 10.8343 17.4834 10.6201C17.2191 10.4059 16.916 10.2988 16.5742 10.2988C16.2324 10.2988 15.9316 10.4036 15.6719 10.6133C15.4167 10.8184 15.2891 11.1214 15.2891 11.5225C15.2891 11.9281 15.4212 12.2357 15.6855 12.4453C15.9499 12.6549 16.2575 12.7598 16.6084 12.7598C16.9411 12.7598 17.235 12.6595 17.4902 12.459C17.75 12.2539 17.8799 11.9531 17.8799 11.5566Z" fill="#131313"/>
</svg>
