<svg width="24" height="24" viewBox="0 0 24 24" fill="none" xmlns="http://www.w3.org/2000/svg">
<path d="M10.9818 12.8001C10.9618 12.8001 10.9518 12.8001 10.9318 12.8001C10.9318 12.3901 10.9418 11.9701 10.9418 11.5701C10.9418 11.1301 10.8718 10.6901 10.8118 10.2501C10.7218 9.66012 10.1918 9.12012 9.56184 9.12012C9.20184 9.12012 8.95184 9.31012 8.74184 9.72012C7.84184 11.2901 7.86184 13.1701 7.73184 14.9701C7.73184 14.9901 7.73184 15.0101 7.73184 15.0301C7.73184 15.2401 7.75184 15.4701 7.91184 15.6301C8.10184 15.4401 8.05184 15.1501 8.05184 14.9001C8.05184 14.7601 8.04184 14.6301 8.04184 14.4901C8.04184 14.3201 8.10184 14.2301 8.28184 14.2201C8.74184 14.1901 9.20184 14.1401 9.66184 14.1401C9.96184 14.1401 9.97184 14.4701 9.97184 14.8301C9.97184 15.3101 9.95184 15.8601 10.5118 15.8601C10.6718 15.8601 10.8118 15.7401 10.8218 15.5501C10.8818 14.6401 10.9318 13.7201 10.9818 12.8001ZM10.0018 12.0601C10.0018 12.2901 10.0018 12.5101 10.0018 12.7301C10.0018 12.9101 10.0118 13.0601 10.0118 13.2001C10.0118 13.5701 9.96184 13.8001 9.60184 13.8201C9.20184 13.8501 8.78184 13.8501 8.37184 13.8501C8.17184 13.8501 8.08184 13.7701 8.08184 13.5701C8.22184 12.3901 8.30184 11.2101 8.85184 10.1201C8.97184 9.88012 9.18184 9.52012 9.51184 9.52012C9.99184 9.52012 9.98184 11.3101 10.0318 12.0601C10.0218 12.0601 10.0118 12.0601 10.0018 12.0601ZM17.7026 14.3601C17.0726 14.8501 16.5926 14.9201 15.9426 15.4001C15.8826 15.4401 15.8226 15.4601 15.7726 15.4601C15.6826 15.4601 15.6126 15.3901 15.6126 15.2701C15.6126 15.1801 15.6226 15.1001 15.6226 15.0201C15.6226 14.3901 15.2626 13.8501 15.1726 13.2401C15.1026 12.8101 14.8126 12.6301 14.3526 12.6301C13.6826 12.6301 13.1426 12.9401 12.7826 13.4701C12.6126 13.7201 12.1526 14.5301 12.1526 15.0901C12.1526 15.4301 12.3826 15.7001 12.6426 15.7001C12.9826 15.7001 13.8826 14.9701 14.4626 14.5601C14.5026 14.5401 14.5326 14.5301 14.5626 14.5301C14.7826 14.5301 14.6826 15.4601 14.7726 15.8301C14.7926 15.9301 14.8126 16.0301 14.8126 16.1201C14.8126 16.4601 14.6426 16.7501 14.4126 17.0301C13.9726 17.5601 13.5626 18.1101 13.1826 18.6801C12.5326 19.6601 11.9826 20.5701 11.9826 21.8901C11.9826 22.5901 12.4826 23.1601 13.1326 23.1601C13.2326 23.1601 13.3326 23.1501 13.4326 23.1101C15.2226 22.4701 15.7026 21.4401 15.7026 18.8301C15.7026 18.0901 15.6826 17.3501 15.6826 16.6201C15.6826 15.6901 16.4126 15.4001 17.2526 14.9401C17.8426 14.6201 17.8226 14.2601 17.7026 14.3601ZM14.6826 21.0701C14.4626 21.7701 14.0126 22.3201 13.3026 22.6001C13.1626 22.6601 13.0326 22.6901 12.9226 22.6901C12.5226 22.6901 12.3426 22.3501 12.3426 21.7401C12.3426 21.5401 12.3726 21.3501 12.4326 21.1701C12.9326 19.7401 13.6826 18.4301 14.5926 17.2201C14.6326 17.1701 14.7326 17.1601 14.8126 17.1301C14.8726 17.3201 14.8826 17.4801 14.8826 17.6901C14.8826 17.9201 14.8826 18.1601 14.8826 18.4001C14.9226 18.7001 14.9426 19.0101 14.9426 19.3101C14.9426 19.9001 14.8626 20.4901 14.6826 21.0701ZM14.8226 13.9001C14.1426 14.3601 13.4426 14.8101 12.7426 15.2501C12.7326 15.2601 12.7126 15.2601 12.7026 15.2601C12.6426 15.2601 12.5426 15.2201 12.5426 15.0901C12.7426 14.1801 13.3426 12.8601 14.4626 12.8601C14.7526 12.8601 14.9626 13.0901 14.9626 13.5701C14.9626 13.6901 14.9026 13.8501 14.8226 13.9001Z" fill="#131313"/>
</svg>
