<svg width="24" height="24" viewBox="0 0 24 24" fill="none" xmlns="http://www.w3.org/2000/svg">
<path d="M10.1123 16.0273V15.8018C10.3219 15.7653 10.4883 15.7174 10.6113 15.6582C10.7389 15.599 10.8027 15.4987 10.8027 15.3574C10.8027 15.2253 10.7617 15.0339 10.6797 14.7832C10.5977 14.5326 10.5361 14.3594 10.4951 14.2637L9.98926 12.8896C9.72493 12.8532 9.29427 12.835 8.69727 12.835H8.15723C7.61491 12.8167 7.13867 12.8441 6.72852 12.917L6.22266 14.1816C5.99935 14.7103 5.8877 15.0407 5.8877 15.1729C5.8877 15.3324 5.95833 15.4668 6.09961 15.5762C6.24544 15.681 6.53939 15.7653 6.98145 15.8291V16.0547C6.44824 15.9909 5.99479 15.959 5.62109 15.959C5.23828 15.959 4.82357 15.9772 4.37695 16.0137V15.8154C4.65039 15.7471 4.86003 15.64 5.00586 15.4941C5.11523 15.3984 5.25879 15.1729 5.43652 14.8174C5.61882 14.4574 5.80111 14.0677 5.9834 13.6484C6.17025 13.2246 6.30469 12.8942 6.38672 12.6572L7.48047 10.0391C7.61719 9.72461 7.75618 9.39648 7.89746 9.05469C8.04329 8.70833 8.18001 8.36198 8.30762 8.01562C8.43522 7.66927 8.52865 7.39128 8.58789 7.18164C8.58789 7.1224 8.60156 7.0791 8.62891 7.05176L8.85449 7.03809C8.99577 7.54395 9.15072 8.0293 9.31934 8.49414L10.7549 12.3428C11.124 13.3044 11.402 14.0153 11.5889 14.4756C11.7803 14.9313 11.9466 15.2572 12.0879 15.4531C12.2064 15.6217 12.4502 15.7243 12.8193 15.7607V16C12.4456 15.9635 12.0856 15.9453 11.7393 15.9453C11.4658 15.9453 11.2106 15.9521 10.9736 15.9658C10.7412 15.9795 10.5566 15.9909 10.4199 16C10.2832 16.0137 10.1807 16.0228 10.1123 16.0273ZM7.94531 9.86816L7.17285 11.8574C7.06803 12.14 6.9974 12.3177 6.96094 12.3906C7.30729 12.4453 7.70605 12.4727 8.15723 12.4727L8.78613 12.459C9.16439 12.459 9.50391 12.4499 9.80469 12.4316C9.64518 11.9668 9.54264 11.6911 9.49707 11.6045L9.00488 10.3467C8.9502 10.21 8.84538 9.96159 8.69043 9.60156C8.54004 9.24154 8.43066 8.99544 8.3623 8.86328C8.27572 9.05469 8.20052 9.23014 8.13672 9.38965C8.07747 9.5446 8.01367 9.7041 7.94531 9.86816ZM15.2939 15.1045C15.0342 15.0407 14.7699 14.945 14.501 14.8174C14.2367 14.6898 13.9974 14.4847 13.7832 14.2021C13.569 13.915 13.4619 13.5299 13.4619 13.0469C13.4619 12.6094 13.5781 12.2083 13.8105 11.8438C14.0475 11.4746 14.3529 11.1875 14.7266 10.9824C15.1048 10.7728 15.4899 10.668 15.8818 10.668C16.1234 10.668 16.349 10.7021 16.5586 10.7705C16.7682 10.8343 16.9619 10.9346 17.1396 11.0713C17.4678 11.0075 17.8141 10.9756 18.1787 10.9756C18.4202 10.9756 18.5843 10.9847 18.6709 11.0029C18.6572 11.249 18.5957 11.4951 18.4863 11.7412C18.1764 11.6136 17.8506 11.5498 17.5088 11.5498C17.568 11.6318 17.6273 11.7435 17.6865 11.8848C17.7458 12.0215 17.7936 12.1696 17.8301 12.3291C17.8665 12.4886 17.8848 12.6436 17.8848 12.7939C17.8848 13.2132 17.7913 13.5687 17.6045 13.8604C17.4176 14.152 17.1852 14.3867 16.9072 14.5645C16.6338 14.7376 16.2829 14.9268 15.8545 15.1318C15.0524 15.4873 14.6514 15.7448 14.6514 15.9043C14.6514 16.1823 14.9863 16.3213 15.6562 16.3213C16.2122 16.3213 16.6452 16.3304 16.9551 16.3486C17.265 16.3669 17.5384 16.4147 17.7754 16.4922C18.0124 16.5697 18.1969 16.6995 18.3291 16.8818C18.4613 17.0687 18.5273 17.3262 18.5273 17.6543C18.5273 18.0964 18.3542 18.486 18.0078 18.8232C17.666 19.165 17.2262 19.4271 16.6885 19.6094C16.1553 19.7962 15.6198 19.8896 15.082 19.8896C14.3893 19.8896 13.9085 19.737 13.6396 19.4316C13.3708 19.1309 13.2363 18.8118 13.2363 18.4746C13.2363 18.0918 13.3525 17.7842 13.585 17.5518C13.8219 17.3193 14.1204 17.096 14.4805 16.8818C13.9974 16.6175 13.7604 16.2666 13.7695 15.8291C13.9837 15.665 14.3415 15.4896 14.8428 15.3027L15.2939 15.1045ZM16.0254 14.7422C16.3535 14.569 16.6087 14.3776 16.791 14.168C16.9779 13.9583 17.0713 13.6165 17.0713 13.1426C17.0713 12.8737 17.0326 12.6162 16.9551 12.3701C16.8776 12.1195 16.7705 11.8984 16.6338 11.707C16.4971 11.5156 16.3285 11.363 16.1279 11.249C15.932 11.1305 15.7109 11.0713 15.4648 11.0713C15.0911 11.0713 14.7767 11.2148 14.5215 11.502C14.2708 11.7845 14.1455 12.1445 14.1455 12.582C14.1455 13.1973 14.3301 13.6598 14.6992 13.9697C15.0684 14.2796 15.5104 14.5371 16.0254 14.7422ZM14.8633 17.0391C14.5807 17.1257 14.3255 17.2692 14.0977 17.4697C13.8698 17.6748 13.7559 17.9072 13.7559 18.167C13.7559 18.4678 13.9313 18.7389 14.2822 18.9805C14.6331 19.222 15.0866 19.3428 15.6426 19.3428C15.957 19.3428 16.2988 19.2949 16.668 19.1992C17.0371 19.1081 17.3516 18.96 17.6113 18.7549C17.8757 18.5498 18.0078 18.2992 18.0078 18.0029C18.0078 17.7979 17.9372 17.6042 17.7959 17.4219C17.6501 17.2441 17.4313 17.1439 17.1396 17.1211C17.0758 17.112 16.8434 17.1097 16.4424 17.1143C16.0459 17.1188 15.8089 17.1211 15.7314 17.1211C15.3258 17.1211 15.0365 17.0938 14.8633 17.0391Z" fill="#131313"/>
</svg>
