<svg width="24" height="24" viewBox="0 0 24 24" fill="none" xmlns="http://www.w3.org/2000/svg">
<path d="M7.1104 7.19995H8.0764L11.4784 17H10.6384L9.6864 14.2H5.5004L4.5484 17H3.7084L7.1104 7.19995ZM9.4484 13.486L7.6144 8.08195H7.5724L5.7524 13.486H9.4484ZM18.5179 10.028V18.848L17.3139 20.052H13.9679L12.9599 19.058V18.26H13.7439V18.792L14.3039 19.352H16.9639L17.7339 18.596V15.74L16.3339 17H13.8279L12.6099 15.782V11.246L13.8279 10.028H16.3899L17.7479 11.386V10.028H18.5179ZM17.7339 12.324L16.1519 10.728H14.1639L13.3939 11.484V15.53L14.1639 16.286H16.1519L17.7339 14.844V12.324Z" fill="#131313"/>
</svg>
