<svg width="24" height="24" viewBox="0 0 24 24" fill="none" xmlns="http://www.w3.org/2000/svg">
<path d="M3.49741 16L5.82141 7.25H9.64341L11.9674 16H9.50341L7.79541 9.602H7.66941L5.96141 16H3.49741ZM5.05141 14.474V12.668H10.4134V14.474H5.05141ZM15.6654 13.984C14.9187 13.984 14.3074 13.8953 13.8314 13.718C13.3647 13.5407 13.024 13.2607 12.8094 12.878C12.5947 12.4953 12.4874 12.0007 12.4874 11.394C12.4874 10.778 12.5947 10.2833 12.8094 9.91C13.024 9.52733 13.3647 9.24733 13.8314 9.07C14.3074 8.88333 14.9187 8.79 15.6654 8.79C16.4307 8.79 17.0467 8.87867 17.5134 9.056C17.98 9.23333 18.3207 9.51333 18.5354 9.896C18.7594 10.2787 18.8714 10.778 18.8714 11.394C18.8714 12.01 18.764 12.5093 18.5494 12.892C18.3347 13.2653 17.9894 13.5407 17.5134 13.718C17.0467 13.8953 16.4307 13.984 15.6654 13.984ZM14.8394 12.682H15.9174C16.1414 12.682 16.2954 12.64 16.3794 12.556C16.4727 12.472 16.5194 12.332 16.5194 12.136V10.092H15.4274C15.2034 10.092 15.0494 10.134 14.9654 10.218C14.8814 10.2927 14.8394 10.4373 14.8394 10.652V12.682ZM18.9554 16.35C18.9554 16.826 18.848 17.218 18.6334 17.526C18.4187 17.834 18.0827 18.058 17.6254 18.198C17.168 18.3473 16.5754 18.422 15.8474 18.422C15.2874 18.422 14.732 18.38 14.1814 18.296C13.64 18.2213 13.1174 18.1093 12.6134 17.96L12.9214 16.224C13.3507 16.3453 13.766 16.434 14.1674 16.49C14.5687 16.5553 14.9654 16.588 15.3574 16.588C15.6187 16.588 15.8614 16.5787 16.0854 16.56C16.3094 16.5413 16.5287 16.5227 16.7434 16.504V15.86C15.8474 15.7947 15.208 15.7107 14.8254 15.608C14.4427 15.5053 14.2514 15.37 14.2514 15.202L14.7414 13.634L16.3514 13.648L16.2814 14.474C16.8134 14.5487 17.252 14.6327 17.5974 14.726C17.9427 14.81 18.2134 14.922 18.4094 15.062C18.6054 15.202 18.7454 15.3793 18.8294 15.594C18.9134 15.7993 18.9554 16.0513 18.9554 16.35ZM18.1994 10.75L16.9394 9.056L18.2834 8.02L19.4594 9.154L18.1994 10.75Z" fill="#131313"/>
</svg>
