<svg width="24" height="24" viewBox="0 0 24 24" fill="none" xmlns="http://www.w3.org/2000/svg">
<path d="M4.28551 16L6.70751 7.25H9.91351L12.3355 16H10.2495L8.37351 9.224H8.24751L6.37151 16H4.28551ZM5.74151 14.32V12.766H10.8935V14.32H5.74151ZM15.9997 13.97C15.2717 13.97 14.6837 13.886 14.2357 13.718C13.7877 13.55 13.461 13.2793 13.2557 12.906C13.0597 12.5233 12.9617 12.0147 12.9617 11.38C12.9617 10.7547 13.0597 10.2553 13.2557 9.882C13.461 9.49933 13.7877 9.224 14.2357 9.056C14.6837 8.87867 15.2717 8.79 15.9997 8.79C16.737 8.79 17.3297 8.87867 17.7777 9.056C18.2257 9.224 18.5477 9.49933 18.7437 9.882C18.949 10.2553 19.0517 10.7547 19.0517 11.38C19.0517 12.0147 18.949 12.5233 18.7437 12.906C18.5477 13.2793 18.2257 13.55 17.7777 13.718C17.3297 13.886 16.737 13.97 15.9997 13.97ZM14.9777 12.808H16.2797C16.569 12.808 16.765 12.7613 16.8677 12.668C16.9797 12.5653 17.0357 12.3927 17.0357 12.15V9.966H15.7197C15.4397 9.966 15.2437 10.0127 15.1317 10.106C15.029 10.1993 14.9777 10.372 14.9777 10.624V12.808ZM19.1357 16.42C19.1357 16.8773 19.033 17.2507 18.8277 17.54C18.6223 17.8293 18.3003 18.0393 17.8617 18.17C17.4323 18.31 16.8583 18.38 16.1397 18.38C15.5983 18.38 15.0663 18.338 14.5437 18.254C14.021 18.1793 13.5357 18.072 13.0877 17.932L13.3537 16.448C13.8017 16.5693 14.2123 16.658 14.5857 16.714C14.9683 16.77 15.351 16.798 15.7337 16.798C16.0417 16.798 16.3123 16.7887 16.5457 16.77C16.7883 16.7513 17.0263 16.7187 17.2597 16.672V15.902C16.345 15.8367 15.6917 15.7573 15.2997 15.664C14.917 15.5613 14.7257 15.426 14.7257 15.258L15.1877 13.676L16.5317 13.69L16.4617 14.642C17.003 14.7167 17.4463 14.796 17.7917 14.88C18.1463 14.964 18.417 15.0713 18.6037 15.202C18.7997 15.3327 18.935 15.496 19.0097 15.692C19.0937 15.888 19.1357 16.1307 19.1357 16.42ZM18.4497 10.554L17.3297 9.098L18.6177 8.104L19.6257 9.084L18.4497 10.554Z" fill="#131313"/>
</svg>
