<svg width="24" height="24" viewBox="0 0 24 24" fill="none" xmlns="http://www.w3.org/2000/svg">
<path d="M5.69317 10.476C5.69317 11.204 5.50184 11.8153 5.11917 12.31C4.73651 12.8047 4.12517 13.052 3.28517 13.052C2.44517 13.052 1.82451 12.814 1.42317 12.338C1.02184 11.862 0.821172 11.288 0.821172 10.616C0.821172 9.55195 1.35317 8.71662 2.41717 8.10995C3.48117 7.50328 5.18451 7.19995 7.52717 7.19995H11.3632V8.87995H10.5372L13.0852 15.32H14.0092V17H10.4112V15.32H11.2372L10.9432 14.536H7.27517L6.98117 15.32H7.82117V17H4.22317V15.32H5.13317L7.66717 8.87995H7.52717C5.65117 8.87995 4.35384 9.01062 3.63517 9.27195C2.92584 9.53328 2.57117 9.98128 2.57117 10.616C2.57117 11.12 2.80917 11.372 3.28517 11.372C3.72384 11.372 3.94317 11.0733 3.94317 10.476H5.69317ZM9.10917 9.66395L7.84917 12.996H10.3552L9.10917 9.66395ZM15.4296 14.116C14.9536 13.6773 14.7156 13.0987 14.7156 12.38C14.7156 11.652 14.9816 11.05 15.5136 10.574C16.0456 10.098 16.783 9.85995 17.7256 9.85995C18.323 9.85995 18.827 9.96262 19.2376 10.168H21.5476V11.806H20.6236C20.6983 12.03 20.7356 12.2213 20.7356 12.38C20.7356 13.108 20.4696 13.71 19.9376 14.186C19.4056 14.662 18.6683 14.9 17.7256 14.9C17.3803 14.9 17.0443 14.8627 16.7176 14.788C16.643 14.7973 16.573 14.8347 16.5076 14.9C16.4516 14.956 16.4236 15.026 16.4236 15.11C16.4236 15.194 16.4563 15.2547 16.5216 15.292C16.6243 15.3667 16.825 15.418 17.1236 15.446L19.1956 15.74C19.8303 15.8333 20.3343 16.0667 20.7076 16.44C21.081 16.804 21.2676 17.2987 21.2676 17.924C21.2676 18.5587 20.927 19.086 20.2456 19.506C19.5643 19.926 18.701 20.136 17.6556 20.136C16.6103 20.136 15.831 19.9447 15.3176 19.562C14.8043 19.1793 14.5476 18.694 14.5476 18.106C14.5476 17.8073 14.613 17.5273 14.7436 17.266C14.8743 17.014 15.0796 16.832 15.3596 16.72C14.8556 16.5147 14.6036 16.104 14.6036 15.488C14.6036 14.8627 14.879 14.4053 15.4296 14.116ZM16.8436 11.778C16.6383 11.9273 16.5356 12.128 16.5356 12.38C16.5356 12.632 16.6383 12.8373 16.8436 12.996C17.049 13.1453 17.343 13.22 17.7256 13.22C18.1083 13.22 18.4023 13.1453 18.6076 12.996C18.813 12.8373 18.9156 12.632 18.9156 12.38C18.9156 12.128 18.813 11.9273 18.6076 11.778C18.4023 11.6193 18.1083 11.54 17.7256 11.54C17.343 11.54 17.049 11.6193 16.8436 11.778ZM16.3676 18.022C16.3676 18.3113 16.769 18.456 17.5716 18.456C18.1223 18.456 18.5703 18.4047 18.9156 18.302C19.2703 18.1993 19.4476 18.0453 19.4476 17.84C19.4476 17.5973 19.2376 17.4527 18.8176 17.406L17.0956 17.21C16.8996 17.2473 16.727 17.3453 16.5776 17.504C16.4376 17.6627 16.3676 17.8353 16.3676 18.022Z" fill="#131313"/>
</svg>
