<svg width="24" height="24" viewBox="0 0 24 24" fill="none" xmlns="http://www.w3.org/2000/svg">
<path d="M12.6826 16.7129C12.7008 16.7676 12.71 16.8063 12.71 16.8291C12.71 16.8883 12.6895 16.9339 12.6484 16.9658C12.612 16.9977 12.5573 17.0137 12.4844 17.0137H11.3359C11.2721 17.0137 11.2129 16.9932 11.1582 16.9521C11.1081 16.9111 11.0716 16.8564 11.0488 16.7881L10.3037 14.833H5.90137L5.16309 16.7812C5.1403 16.8496 5.09928 16.9043 5.04004 16.9453C4.98535 16.9863 4.92611 17.0068 4.8623 17.0068H3.7207C3.57487 17.0068 3.50195 16.9499 3.50195 16.8359C3.50195 16.7949 3.51107 16.7539 3.5293 16.7129L7.37109 7.23828C7.39844 7.16536 7.43945 7.1084 7.49414 7.06738C7.55339 7.02637 7.61719 7.00586 7.68555 7.00586H8.5332C8.60156 7.00586 8.66309 7.02865 8.71777 7.07422C8.77702 7.11523 8.81803 7.16992 8.84082 7.23828L12.6826 16.7129ZM9.80469 13.5137L8.10254 9.03613L6.40039 13.5137H9.80469ZM17.4268 16.7061C17.887 16.7061 18.2858 16.779 18.623 16.9248C18.9603 17.0661 19.2201 17.2712 19.4023 17.54C19.5892 17.8135 19.6826 18.1348 19.6826 18.5039C19.6826 18.9642 19.5573 19.3584 19.3066 19.6865C19.056 20.0192 18.6982 20.2721 18.2334 20.4453C17.7731 20.623 17.2354 20.7119 16.6201 20.7119C16.1553 20.7119 15.679 20.6732 15.1914 20.5957C14.7083 20.5228 14.2982 20.418 13.9609 20.2812C13.9154 20.2585 13.8789 20.2266 13.8516 20.1855C13.8288 20.1491 13.8174 20.1081 13.8174 20.0625C13.8174 20.0352 13.8242 20.0033 13.8379 19.9668L14.1592 19.167C14.1774 19.1214 14.2048 19.085 14.2412 19.0576C14.2777 19.0348 14.3187 19.0234 14.3643 19.0234C14.3825 19.0234 14.4098 19.028 14.4463 19.0371C14.7288 19.1419 15.0684 19.2262 15.4648 19.29C15.8613 19.3538 16.2464 19.3857 16.6201 19.3857C17.1579 19.3857 17.5817 19.3197 17.8916 19.1875C18.2015 19.0553 18.3564 18.8662 18.3564 18.6201C18.3564 18.4059 18.279 18.2533 18.124 18.1621C17.9736 18.071 17.7412 18.0254 17.4268 18.0254H15.6494C15.2575 18.0254 14.9066 17.957 14.5967 17.8203C14.2913 17.6882 14.0521 17.4967 13.8789 17.2461C13.7103 17 13.626 16.7083 13.626 16.3711C13.626 16.0931 13.6875 15.8402 13.8105 15.6123C13.9382 15.3844 14.1113 15.2113 14.3301 15.0928C14.1523 14.874 14.0156 14.6279 13.9199 14.3545C13.8242 14.0811 13.7764 13.7894 13.7764 13.4795C13.7764 12.9827 13.8857 12.5384 14.1045 12.1465C14.3232 11.7546 14.6263 11.4469 15.0137 11.2236C15.4056 11.0003 15.8454 10.8887 16.333 10.8887C16.4515 10.8887 16.6019 10.9069 16.7842 10.9434C16.971 10.9753 17.1533 11.0208 17.3311 11.0801H19.1699C19.2565 11.0801 19.3249 11.1029 19.375 11.1484C19.4251 11.194 19.4502 11.2601 19.4502 11.3467V12.0303C19.4502 12.1032 19.4229 12.167 19.3682 12.2217C19.318 12.2718 19.252 12.2969 19.1699 12.2969H18.5547C18.8008 12.6706 18.9238 13.0671 18.9238 13.4863C18.9284 13.9694 18.8167 14.4046 18.5889 14.792C18.3656 15.1794 18.0557 15.4824 17.6592 15.7012C17.2627 15.9199 16.8161 16.0293 16.3193 16.0293C15.9456 16.0293 15.5879 15.9541 15.2461 15.8037C15.1549 15.8447 15.082 15.9062 15.0273 15.9883C14.9772 16.0703 14.9521 16.166 14.9521 16.2754C14.9521 16.403 15.016 16.5078 15.1436 16.5898C15.2757 16.6673 15.4443 16.7061 15.6494 16.7061H17.4268ZM16.3398 12.2627C16.1211 12.2627 15.9206 12.3174 15.7383 12.4268C15.5605 12.5316 15.4193 12.6774 15.3145 12.8643C15.2096 13.0465 15.1572 13.2493 15.1572 13.4727C15.1572 13.6914 15.2074 13.8919 15.3076 14.0742C15.4124 14.252 15.5537 14.3932 15.7314 14.498C15.9137 14.6029 16.1143 14.6553 16.333 14.6553C16.5609 14.6553 16.766 14.6051 16.9482 14.5049C17.1351 14.4001 17.2809 14.2588 17.3857 14.0811C17.4951 13.8988 17.5498 13.6982 17.5498 13.4795C17.5498 13.2516 17.4951 13.0465 17.3857 12.8643C17.2809 12.6774 17.1351 12.5316 16.9482 12.4268C16.766 12.3174 16.5632 12.2627 16.3398 12.2627Z" fill="#131313"/>
</svg>
