<svg width="24" height="24" viewBox="0 0 24 24" fill="none" xmlns="http://www.w3.org/2000/svg">
<path d="M7.16044 9.69191C6.7591 9.69191 6.46044 9.80858 6.26444 10.0419C6.07777 10.2752 5.98444 10.6906 5.98444 11.2879V12.9399H8.30844V11.2599C8.30844 10.8679 8.26177 10.5552 8.16844 10.3219C8.0751 10.0792 7.94444 9.91591 7.77644 9.83191C7.61777 9.73858 7.41244 9.69191 7.16044 9.69191ZM8.30844 14.8719H5.98444V15.6139C5.98444 16.0899 5.85844 16.4399 5.60644 16.6639C5.35444 16.8879 4.92044 16.9999 4.30444 16.9999C4.0431 16.9999 3.82844 16.9626 3.66044 16.8879C3.49244 16.8132 3.3431 16.6872 3.21244 16.5099C3.0911 16.3326 2.99777 16.0759 2.93244 15.7399C2.87644 15.3946 2.82977 14.9839 2.79244 14.5079C2.76444 14.0226 2.75044 13.4112 2.75044 12.6739C2.75044 12.0299 2.81577 11.4419 2.94644 10.9099C3.08644 10.3686 3.26844 9.91124 3.49244 9.53791C3.72577 9.16458 3.9871 8.83791 4.27644 8.55791C4.56577 8.26858 4.87844 8.04458 5.21444 7.88591C5.55977 7.72724 5.8911 7.61058 6.20844 7.53591C6.5351 7.45191 6.86177 7.40991 7.18844 7.40991C7.58044 7.40991 7.96777 7.46591 8.35044 7.57791C8.7331 7.68058 9.12044 7.86258 9.51244 8.12391C9.90444 8.38524 10.2451 8.71191 10.5344 9.10391C10.8331 9.48658 11.0758 9.98591 11.2624 10.6019C11.4491 11.2179 11.5424 11.9086 11.5424 12.6739C11.5424 13.9059 11.4958 14.8206 11.4024 15.4179C11.3184 16.0059 11.1691 16.4166 10.9544 16.6499C10.7491 16.8832 10.4271 16.9999 9.98844 16.9999C9.37244 16.9999 8.93844 16.8879 8.68644 16.6639C8.43444 16.4399 8.30844 16.0899 8.30844 15.6139V14.8719ZM15.3072 17.0839C14.5699 17.0839 13.9586 16.7852 13.4732 16.1879C12.9879 15.5812 12.7452 14.7506 12.7452 13.6959C12.7452 12.6319 12.9832 11.7872 13.4592 11.1619C13.9352 10.5366 14.5466 10.2239 15.2932 10.2239C16.0492 10.2239 16.7492 10.4852 17.3932 11.0079C17.6359 10.5506 18.0372 10.3219 18.5972 10.3219C19.1012 10.3219 19.4932 10.4339 19.7732 10.6579C20.0626 10.8819 20.2072 11.2832 20.2072 11.8619V14.4239C20.2072 15.3292 20.1466 16.1086 20.0252 16.7619C19.9132 17.4059 19.7126 17.9752 19.4232 18.4699C19.1432 18.9646 18.7512 19.3332 18.2472 19.5759C17.7526 19.8186 17.1412 19.9399 16.4132 19.9399C15.9092 19.9399 15.4426 19.8699 15.0132 19.7299C14.5839 19.5899 14.2432 19.4172 13.9912 19.2119C13.7392 19.0066 13.5432 18.8012 13.4032 18.5959C13.2632 18.3906 13.1932 18.2132 13.1932 18.0639C13.1932 17.8866 13.2446 17.7372 13.3472 17.6159C13.4499 17.4946 13.5946 17.4339 13.7812 17.4339C13.8932 17.4339 14.1732 17.5552 14.6212 17.7979C15.0786 18.0406 15.4472 18.1619 15.7272 18.1619C16.6792 18.1619 17.1552 17.6719 17.1552 16.6919C16.6139 16.9532 15.9979 17.0839 15.3072 17.0839ZM17.2112 14.9839L17.1972 12.3379C17.0386 12.0766 16.8379 11.9459 16.5952 11.9459C16.4272 11.9459 16.2779 12.0346 16.1472 12.2119C16.0259 12.3892 15.9326 12.6086 15.8672 12.8699C15.8112 13.1312 15.7832 13.4066 15.7832 13.6959C15.7832 14.1346 15.8532 14.5219 15.9932 14.8579C16.1332 15.1846 16.3292 15.3479 16.5812 15.3479C16.8332 15.3479 17.0432 15.2266 17.2112 14.9839Z" fill="#131313"/>
</svg>
