<svg width="24" height="24" viewBox="0 0 24 24" fill="none" xmlns="http://www.w3.org/2000/svg">
<path d="M3.38038 16.9999C3.13771 16.9999 2.95571 16.8972 2.83438 16.6919C2.71304 16.4866 2.70371 16.2719 2.80638 16.0479L6.81038 6.51392C6.93171 6.21525 7.13704 6.06592 7.42638 6.06592C7.73438 6.06592 7.94438 6.21525 8.05638 6.51392L12.0744 16.0759C12.1677 16.2999 12.149 16.5099 12.0184 16.7059C11.897 16.9019 11.715 16.9999 11.4724 16.9999C11.351 16.9999 11.2344 16.9672 11.1224 16.9019C11.0104 16.8272 10.9264 16.7246 10.8704 16.5939L7.24438 7.68992H7.65038L3.99638 16.5939C3.94038 16.7339 3.85638 16.8366 3.74438 16.9019C3.63238 16.9672 3.51104 16.9999 3.38038 16.9999ZM4.19238 14.5219L4.71038 13.4159H10.2684L10.7724 14.5219H4.19238ZM16.5767 17.0559C15.858 17.0559 15.2234 16.8926 14.6727 16.5659C14.1314 16.2299 13.702 15.7726 13.3847 15.1939C13.0767 14.6059 12.9227 13.9339 12.9227 13.1779C12.9227 12.4126 13.086 11.7406 13.4127 11.1619C13.7487 10.5739 14.206 10.1166 14.7847 9.78992C15.3727 9.45392 16.04 9.28592 16.7867 9.28592C17.5427 9.28592 18.21 9.45392 18.7887 9.78992C19.3674 10.1166 19.82 10.5739 20.1467 11.1619C20.4827 11.7406 20.6554 12.4126 20.6647 13.1779L19.9087 13.3039C19.9087 14.0412 19.764 14.6946 19.4747 15.2639C19.1947 15.8239 18.8027 16.2626 18.2987 16.5799C17.7947 16.8972 17.2207 17.0559 16.5767 17.0559ZM16.7867 20.1219C16.096 20.1219 15.4614 19.9866 14.8827 19.7159C14.3134 19.4546 13.8374 19.0766 13.4547 18.5819C13.3427 18.4419 13.296 18.2926 13.3147 18.1339C13.3427 17.9846 13.4267 17.8632 13.5667 17.7699C13.716 17.6672 13.8747 17.6299 14.0427 17.6579C14.2107 17.6952 14.346 17.7792 14.4487 17.9099C14.71 18.2366 15.0367 18.4932 15.4287 18.6799C15.83 18.8666 16.292 18.9599 16.8147 18.9599C17.2907 18.9599 17.7247 18.8432 18.1167 18.6099C18.5087 18.3859 18.8214 18.0546 19.0547 17.6159C19.288 17.1866 19.4047 16.6686 19.4047 16.0619V14.0179L19.8387 12.9539L20.6647 13.1779V16.1319C20.6647 16.8786 20.4967 17.5506 20.1607 18.1479C19.834 18.7546 19.3767 19.2352 18.7887 19.5899C18.21 19.9446 17.5427 20.1219 16.7867 20.1219ZM16.7867 15.9079C17.3 15.9079 17.7527 15.7912 18.1447 15.5579C18.5367 15.3246 18.8447 15.0026 19.0687 14.5919C19.2927 14.1812 19.4047 13.7099 19.4047 13.1779C19.4047 12.6459 19.2927 12.1746 19.0687 11.7639C18.8447 11.3439 18.5367 11.0172 18.1447 10.7839C17.7527 10.5506 17.3 10.4339 16.7867 10.4339C16.2827 10.4339 15.83 10.5506 15.4287 10.7839C15.0367 11.0172 14.7287 11.3439 14.5047 11.7639C14.2807 12.1746 14.1687 12.6459 14.1687 13.1779C14.1687 13.7099 14.2807 14.1812 14.5047 14.5919C14.7287 15.0026 15.0367 15.3246 15.4287 15.5579C15.83 15.7912 16.2827 15.9079 16.7867 15.9079Z" fill="#131313"/>
</svg>
