<svg width="24" height="24" viewBox="0 0 24 24" fill="none" xmlns="http://www.w3.org/2000/svg">
<path d="M3.14987 16.9999C2.97253 16.9999 2.84653 16.9299 2.77187 16.7899C2.70653 16.6499 2.70653 16.5192 2.77187 16.3979L7.01387 6.35992C7.08853 6.16392 7.22387 6.06592 7.41987 6.06592C7.60653 6.06592 7.74187 6.16392 7.82587 6.35992L12.0819 16.3979C12.1565 16.5286 12.1519 16.6639 12.0679 16.8039C11.9839 16.9346 11.8625 16.9999 11.7039 16.9999C11.6105 16.9999 11.5312 16.9812 11.4659 16.9439C11.4099 16.8972 11.3585 16.8272 11.3119 16.7339L7.19587 6.91992H7.64387L3.54187 16.7339C3.50453 16.8272 3.4532 16.8972 3.38787 16.9439C3.32253 16.9812 3.2432 16.9999 3.14987 16.9999ZM4.18587 14.2559L4.52187 13.4999H10.3459L10.6679 14.2559H4.18587ZM16.7942 17.0839C16.0288 17.0839 15.3522 16.9159 14.7642 16.5799C14.1762 16.2439 13.7142 15.7819 13.3782 15.1939C13.0422 14.6059 12.8742 13.9339 12.8742 13.1779C12.8742 12.4126 13.0468 11.7359 13.3922 11.1479C13.7375 10.5599 14.2042 10.0979 14.7922 9.76192C15.3895 9.42592 16.0568 9.25792 16.7942 9.25792C17.5595 9.25792 18.2315 9.42592 18.8102 9.76192C19.3982 10.0979 19.8602 10.5599 20.1962 11.1479C20.5322 11.7359 20.7002 12.4126 20.7002 13.1779L20.2102 13.7379C20.2102 14.3912 20.0655 14.9699 19.7762 15.4739C19.4868 15.9779 19.0855 16.3746 18.5722 16.6639C18.0588 16.9439 17.4662 17.0839 16.7942 17.0839ZM16.8502 19.9259C16.0755 19.9259 15.4128 19.7812 14.8622 19.4919C14.3208 19.2026 13.8728 18.8339 13.5182 18.3859C13.4435 18.2926 13.4062 18.1946 13.4062 18.0919C13.4062 17.9892 13.4528 17.9052 13.5462 17.8399C13.6395 17.7652 13.7468 17.7372 13.8682 17.7559C13.9988 17.7746 14.0968 17.8352 14.1622 17.9379C14.4515 18.2832 14.8202 18.5679 15.2682 18.7919C15.7162 19.0252 16.2435 19.1419 16.8502 19.1419C17.4288 19.1419 17.9422 19.0019 18.3902 18.7219C18.8475 18.4419 19.2068 18.0546 19.4682 17.5599C19.7295 17.0746 19.8602 16.5286 19.8602 15.9219V13.6959L20.2382 13.1779H20.7002V15.9219C20.7002 16.6779 20.5322 17.3592 20.1962 17.9659C19.8602 18.5726 19.4028 19.0486 18.8242 19.3939C18.2455 19.7486 17.5875 19.9259 16.8502 19.9259ZM16.7942 16.2999C17.3915 16.2999 17.9188 16.1692 18.3762 15.9079C18.8428 15.6372 19.2068 15.2686 19.4682 14.8019C19.7295 14.3259 19.8602 13.7846 19.8602 13.1779C19.8602 12.5619 19.7295 12.0206 19.4682 11.5539C19.2068 11.0779 18.8428 10.7092 18.3762 10.4479C17.9188 10.1772 17.3915 10.0419 16.7942 10.0419C16.1968 10.0419 15.6648 10.1772 15.1982 10.4479C14.7315 10.7092 14.3675 11.0779 14.1062 11.5539C13.8448 12.0206 13.7142 12.5619 13.7142 13.1779C13.7142 13.7846 13.8448 14.3259 14.1062 14.8019C14.3675 15.2686 14.7315 15.6372 15.1982 15.9079C15.6648 16.1692 16.1968 16.2999 16.7942 16.2999Z" fill="#131313"/>
</svg>
