<svg width="24" height="24" viewBox="0 0 24 24" fill="none" xmlns="http://www.w3.org/2000/svg">
<path d="M3.80479 17.0001C4.11745 16.4588 4.44645 15.8918 4.79179 15.2991C5.13712 14.7018 5.46612 14.1348 5.77879 13.5981L7.75979 10.1681C8.10045 9.58007 8.41545 9.03874 8.70479 8.54407C8.99412 8.04474 9.28812 7.53607 9.58679 7.01807H10.9238C10.9985 7.51274 11.0755 8.01207 11.1548 8.51607C11.2341 9.0154 11.3205 9.57074 11.4138 10.1821L11.9458 13.6121C12.0345 14.1628 12.1255 14.7344 12.2188 15.3271C12.3121 15.9151 12.3985 16.4728 12.4778 17.0001H11.4908C11.4068 16.4121 11.3181 15.8008 11.2248 15.1661C11.1315 14.5268 11.0405 13.9178 10.9518 13.3391L10.1538 7.94207H10.0418L6.97579 13.3181C6.63979 13.9108 6.29212 14.5221 5.93279 15.1521C5.57812 15.7774 5.22812 16.3934 4.88279 17.0001H3.80479ZM6.05879 14.3751L6.29679 13.5771H11.5188L11.4138 14.3751H6.05879ZM15.7767 19.8281C15.4033 19.8281 15.0463 19.7861 14.7057 19.7021C14.365 19.6228 14.0687 19.5014 13.8167 19.3381C13.5693 19.1794 13.3873 18.9788 13.2707 18.7361C13.154 18.4981 13.1307 18.2204 13.2007 17.9031C13.266 17.5951 13.4013 17.3454 13.6067 17.1541C13.8167 16.9628 14.0407 16.8204 14.2787 16.7271C14.5213 16.6291 14.7313 16.5638 14.9087 16.5311V16.4471C14.8293 16.4144 14.7383 16.3538 14.6357 16.2651C14.533 16.1764 14.449 16.0574 14.3837 15.9081C14.323 15.7541 14.316 15.5698 14.3627 15.3551C14.4047 15.1731 14.4817 15.0191 14.5937 14.8931C14.7057 14.7624 14.8457 14.6551 15.0137 14.5711C15.1817 14.4871 15.3683 14.4218 15.5737 14.3751V14.2841C15.443 14.2188 15.296 14.1208 15.1327 13.9901C14.974 13.8594 14.8247 13.6961 14.6847 13.5001C14.5493 13.3041 14.4513 13.0731 14.3907 12.8071C14.3347 12.5364 14.3417 12.2308 14.4117 11.8901C14.505 11.4561 14.6777 11.0921 14.9297 10.7981C15.1863 10.5041 15.506 10.2824 15.8887 10.1331C16.2713 9.98374 16.6983 9.90907 17.1697 9.90907C17.4217 9.90907 17.634 9.92307 17.8067 9.95107C17.9793 9.9744 18.1497 9.99774 18.3177 10.0211C18.4857 10.0444 18.6887 10.0561 18.9267 10.0561H21.3417L21.1877 10.7631C20.735 10.7631 20.287 10.7631 19.8437 10.7631C19.4003 10.7631 18.957 10.7631 18.5137 10.7631L18.7587 10.4271C19.16 10.7071 19.426 11.0268 19.5567 11.3861C19.6873 11.7454 19.713 12.1234 19.6337 12.5201C19.5403 12.9774 19.3653 13.3484 19.1087 13.6331C18.852 13.9178 18.5347 14.1371 18.1567 14.2911C17.7787 14.4451 17.3657 14.5548 16.9177 14.6201C16.381 14.6948 15.9727 14.7811 15.6927 14.8791C15.4173 14.9724 15.2587 15.1194 15.2167 15.3201C15.1887 15.4414 15.205 15.5534 15.2657 15.6561C15.331 15.7588 15.45 15.8428 15.6227 15.9081C15.8 15.9688 16.0427 15.9991 16.3507 15.9991H16.8757C17.501 15.9991 18.005 16.0784 18.3877 16.2371C18.7703 16.3911 19.0363 16.6081 19.1857 16.8881C19.335 17.1634 19.37 17.4831 19.2907 17.8471C19.2207 18.1878 19.0737 18.4818 18.8497 18.7291C18.6257 18.9764 18.348 19.1818 18.0167 19.3451C17.69 19.5084 17.333 19.6298 16.9457 19.7091C16.563 19.7884 16.1733 19.8281 15.7767 19.8281ZM15.8607 19.0581C16.3927 19.0581 16.8407 18.9951 17.2047 18.8691C17.5733 18.7478 17.858 18.5938 18.0587 18.4071C18.264 18.2251 18.3877 18.0408 18.4297 17.8541C18.4763 17.6581 18.4577 17.4784 18.3737 17.3151C18.2943 17.1564 18.1123 17.0281 17.8277 16.9301C17.5477 16.8321 17.13 16.7831 16.5747 16.7831H16.2877C15.975 16.7878 15.6553 16.8251 15.3287 16.8951C15.0067 16.9651 14.7267 17.0771 14.4887 17.2311C14.2553 17.3898 14.1083 17.6021 14.0477 17.8681C14.001 18.0874 14.0243 18.2718 14.1177 18.4211C14.2157 18.5751 14.358 18.6988 14.5447 18.7921C14.7313 18.8854 14.939 18.9531 15.1677 18.9951C15.401 19.0371 15.632 19.0581 15.8607 19.0581ZM16.5607 13.9201C16.7847 13.8968 17.0133 13.8618 17.2467 13.8151C17.48 13.7684 17.7017 13.6938 17.9117 13.5911C18.1217 13.4884 18.3037 13.3461 18.4577 13.1641C18.6117 12.9774 18.719 12.7394 18.7797 12.4501C18.8543 12.1141 18.824 11.8154 18.6887 11.5541C18.558 11.2881 18.3573 11.0804 18.0867 10.9311C17.816 10.7818 17.5103 10.7071 17.1697 10.7071C16.843 10.7071 16.5443 10.7561 16.2737 10.8541C16.0077 10.9474 15.786 11.0944 15.6087 11.2951C15.4313 11.4911 15.3123 11.7454 15.2517 12.0581C15.1817 12.4034 15.2027 12.7021 15.3147 12.9541C15.4313 13.2061 15.6017 13.4138 15.8257 13.5771C16.0543 13.7404 16.2993 13.8548 16.5607 13.9201Z" fill="#131313"/>
</svg>
