<svg width="24" height="24" viewBox="0 0 24 24" fill="none" xmlns="http://www.w3.org/2000/svg">
<path d="M2.45724 17.0001C2.73257 16.4541 3.01724 15.8848 3.31124 15.2921C3.60991 14.6994 3.89457 14.1324 4.16524 13.5911L5.87324 10.1751C6.16724 9.58707 6.44024 9.0434 6.69224 8.54407C6.94424 8.04474 7.19857 7.53607 7.45524 7.01807H11.8373C11.8793 7.54074 11.9189 8.04707 11.9563 8.53707C11.9983 9.0224 12.0426 9.57074 12.0893 10.1821L12.3693 13.6681C12.4113 14.1908 12.4556 14.7461 12.5023 15.3341C12.5489 15.9174 12.5933 16.4728 12.6353 17.0001H9.26124C9.25657 16.5288 9.25191 16.0458 9.24724 15.5511C9.24724 15.0564 9.24724 14.5828 9.24724 14.1301L9.21924 9.86007H8.99524L7.27324 14.1021C7.08658 14.5688 6.89057 15.0518 6.68524 15.5511C6.48457 16.0504 6.28857 16.5334 6.09724 17.0001H2.45724ZM5.81724 15.3761L6.72724 12.8561H10.5353L10.3393 15.3761H5.81724ZM15.7801 19.8841C15.3741 19.8841 14.9704 19.8538 14.5691 19.7931C14.1678 19.7324 13.8084 19.6298 13.4911 19.4851C13.1738 19.3451 12.9358 19.1538 12.7771 18.9111C12.6184 18.6684 12.5788 18.3628 12.6581 17.9941C12.7094 17.7608 12.8261 17.5718 13.0081 17.4271C13.1854 17.2824 13.3884 17.1728 13.6171 17.0981C13.8504 17.0234 14.0674 16.9721 14.2681 16.9441V16.7621C14.1514 16.7154 14.0301 16.6408 13.9041 16.5381C13.7828 16.4308 13.6871 16.2954 13.6171 16.1321C13.5471 15.9641 13.5354 15.7634 13.5821 15.5301C13.6241 15.3108 13.7151 15.1334 13.8551 14.9981C13.9951 14.8581 14.1538 14.7484 14.3311 14.6691C14.5084 14.5898 14.6741 14.5268 14.8281 14.4801V14.2981C14.6228 14.1628 14.4384 14.0088 14.2751 13.8361C14.1164 13.6634 13.9858 13.4721 13.8831 13.2621C13.7804 13.0521 13.7128 12.8281 13.6801 12.5901C13.6521 12.3474 13.6661 12.0908 13.7221 11.8201C13.7968 11.4514 13.9484 11.1108 14.1771 10.7981C14.4104 10.4808 14.7348 10.2264 15.1501 10.0351C15.5701 9.84374 16.0974 9.74807 16.7321 9.74807C17.1754 9.74807 17.5371 9.76207 17.8171 9.79007C18.0971 9.81807 18.3584 9.84607 18.6011 9.87407C18.8484 9.90207 19.1401 9.91607 19.4761 9.91607H21.5341L21.1421 11.7641C20.7361 11.7641 20.3534 11.7641 19.9941 11.7641C19.6394 11.7641 19.2754 11.7641 18.9021 11.7641L19.7141 10.8541C19.9194 11.1061 20.0524 11.3698 20.1131 11.6451C20.1784 11.9204 20.1714 12.2261 20.0921 12.5621C19.9988 12.9681 19.8098 13.2948 19.5251 13.5421C19.2404 13.7894 18.9068 13.9784 18.5241 14.1091C18.1461 14.2351 17.7681 14.3261 17.3901 14.3821C17.1474 14.4148 16.9584 14.4498 16.8231 14.4871C16.6924 14.5198 16.6154 14.5828 16.5921 14.6761C16.5781 14.7461 16.5921 14.8021 16.6341 14.8441C16.6761 14.8814 16.7344 14.9094 16.8091 14.9281C16.8884 14.9468 16.9748 14.9561 17.0681 14.9561H17.6281C18.1181 14.9561 18.5591 15.0424 18.9511 15.2151C19.3478 15.3878 19.6418 15.6538 19.8331 16.0131C20.0291 16.3678 20.0688 16.8181 19.9521 17.3641C19.8494 17.8494 19.6604 18.2531 19.3851 18.5751C19.1098 18.9018 18.7784 19.1608 18.3911 19.3521C18.0084 19.5434 17.5908 19.6788 17.1381 19.7581C16.6901 19.8421 16.2374 19.8841 15.7801 19.8841ZM16.1301 18.0361C16.3028 18.0361 16.4544 18.0174 16.5851 17.9801C16.7158 17.9474 16.8208 17.9031 16.9001 17.8471C16.9794 17.7911 17.0261 17.7281 17.0401 17.6581C17.0541 17.5928 17.0424 17.5228 17.0051 17.4481C16.9724 17.3781 16.8908 17.3174 16.7601 17.2661C16.6294 17.2194 16.4288 17.1961 16.1581 17.1961H15.9901C15.9014 17.2008 15.7964 17.2124 15.6751 17.2311C15.5538 17.2544 15.4418 17.2941 15.3391 17.3501C15.2411 17.4061 15.1828 17.4854 15.1641 17.5881C15.1548 17.6441 15.1641 17.6978 15.1921 17.7491C15.2248 17.8051 15.2784 17.8541 15.3531 17.8961C15.4324 17.9381 15.5351 17.9708 15.6611 17.9941C15.7918 18.0221 15.9481 18.0361 16.1301 18.0361ZM16.8021 13.0801C16.8908 13.0754 16.9748 13.0638 17.0541 13.0451C17.1381 13.0264 17.2151 13.0008 17.2851 12.9681C17.3551 12.9308 17.4134 12.8864 17.4601 12.8351C17.5068 12.7791 17.5394 12.7161 17.5581 12.6461C17.5768 12.5714 17.5651 12.4968 17.5231 12.4221C17.4858 12.3474 17.4181 12.2844 17.3201 12.2331C17.2221 12.1818 17.0914 12.1561 16.9281 12.1561C16.8441 12.1561 16.7648 12.1701 16.6901 12.1981C16.6154 12.2261 16.5524 12.2658 16.5011 12.3171C16.4498 12.3684 16.4148 12.4314 16.3961 12.5061C16.3821 12.5761 16.3914 12.6484 16.4241 12.7231C16.4614 12.7978 16.5128 12.8678 16.5781 12.9331C16.6434 12.9938 16.7181 13.0428 16.8021 13.0801Z" fill="#131313"/>
</svg>
