<svg width="24" height="24" viewBox="0 0 24 24" fill="none" xmlns="http://www.w3.org/2000/svg">
<path d="M3.22659 17.0001C3.38059 16.4681 3.54393 15.9058 3.71659 15.3131C3.88926 14.7158 4.05259 14.1534 4.20659 13.6261L5.20059 10.1961C5.38259 9.57074 5.54593 9.01074 5.69059 8.51607C5.83526 8.0214 5.97993 7.52207 6.12459 7.01807H10.5066C10.6606 7.55007 10.8099 8.0634 10.9546 8.55807C11.0993 9.05274 11.2579 9.59874 11.4306 10.1961L12.4246 13.6261C12.5879 14.1768 12.7536 14.7438 12.9216 15.3271C13.0896 15.9104 13.2506 16.4681 13.4046 17.0001H9.86259C9.76459 16.5288 9.66426 16.0458 9.56159 15.5511C9.46359 15.0518 9.36793 14.5828 9.27459 14.1441L8.39259 9.86007H8.16859L7.27259 14.0881C7.17459 14.5501 7.07193 15.0354 6.96459 15.5441C6.85726 16.0528 6.75459 16.5381 6.65659 17.0001H3.22659ZM6.23659 15.3761L6.62859 12.8561H10.4366L10.7586 15.3761H6.23659ZM16.3828 19.8841C15.8461 19.8841 15.3934 19.8421 15.0248 19.7581C14.6608 19.6788 14.3691 19.5644 14.1498 19.4151C13.9351 19.2704 13.7788 19.1024 13.6808 18.9111C13.5874 18.7198 13.5408 18.5168 13.5408 18.3021C13.5408 18.0034 13.6154 17.7608 13.7648 17.5741C13.9188 17.3921 14.1008 17.2498 14.3108 17.1471C14.5254 17.0491 14.7261 16.9768 14.9128 16.9301V16.7481C14.7588 16.7201 14.6118 16.6594 14.4718 16.5661C14.3318 16.4681 14.2151 16.3444 14.1218 16.1951C14.0331 16.0411 13.9888 15.8661 13.9888 15.6701C13.9888 15.5161 14.0214 15.3621 14.0868 15.2081C14.1521 15.0541 14.2524 14.9141 14.3878 14.7881C14.5278 14.6574 14.7074 14.5548 14.9268 14.4801V14.2981C14.7121 14.2188 14.5091 14.1161 14.3178 13.9901C14.1311 13.8641 13.9654 13.7148 13.8208 13.5421C13.6761 13.3648 13.5618 13.1618 13.4778 12.9331C13.3984 12.6998 13.3588 12.4361 13.3588 12.1421C13.3588 11.7221 13.4638 11.3301 13.6738 10.9661C13.8884 10.6021 14.2361 10.3081 14.7168 10.0841C15.1974 9.86007 15.8414 9.74807 16.6488 9.74807C16.9521 9.74807 17.2158 9.76207 17.4398 9.79007C17.6638 9.81807 17.8994 9.84607 18.1468 9.87407C18.3941 9.90207 18.7068 9.91607 19.0848 9.91607H20.7508V11.7641C20.3448 11.7641 19.9644 11.7641 19.6098 11.7641C19.2598 11.7641 18.8981 11.7641 18.5248 11.7641L19.3088 10.6441C19.4908 10.8401 19.6308 11.0711 19.7288 11.3371C19.8314 11.6031 19.8828 11.9041 19.8828 12.2401C19.8828 12.6508 19.7731 12.9938 19.5538 13.2691C19.3391 13.5398 19.0591 13.7568 18.7138 13.9201C18.3684 14.0788 18.0068 14.1954 17.6288 14.2701C17.3441 14.3261 17.1341 14.3821 16.9988 14.4381C16.8681 14.4894 16.8028 14.5781 16.8028 14.7041C16.8028 14.7741 16.8308 14.8278 16.8868 14.8651C16.9428 14.8978 17.0291 14.9211 17.1458 14.9351C17.2671 14.9491 17.4188 14.9561 17.6008 14.9561H17.8528C18.3894 14.9561 18.8771 15.0098 19.3158 15.1171C19.7544 15.2244 20.1021 15.4228 20.3588 15.7121C20.6201 16.0014 20.7508 16.4214 20.7508 16.9721C20.7508 17.5321 20.6201 17.9988 20.3588 18.3721C20.1021 18.7501 19.7591 19.0488 19.3298 19.2681C18.9004 19.4874 18.4291 19.6438 17.9158 19.7371C17.4024 19.8351 16.8914 19.8841 16.3828 19.8841ZM16.8308 18.0361C17.0688 18.0361 17.2648 18.0104 17.4188 17.9591C17.5728 17.9078 17.6848 17.8448 17.7548 17.7701C17.8294 17.7001 17.8668 17.6301 17.8668 17.5601C17.8668 17.4948 17.8434 17.4341 17.7968 17.3781C17.7501 17.3221 17.6568 17.2778 17.5168 17.2451C17.3814 17.2124 17.1761 17.1961 16.9008 17.1961H16.7328C16.6161 17.2148 16.4994 17.2404 16.3828 17.2731C16.2708 17.3058 16.1774 17.3524 16.1028 17.4131C16.0281 17.4784 15.9908 17.5648 15.9908 17.6721C15.9908 17.7281 16.0071 17.7771 16.0398 17.8191C16.0771 17.8658 16.1308 17.9054 16.2008 17.9381C16.2708 17.9708 16.3571 17.9941 16.4598 18.0081C16.5671 18.0268 16.6908 18.0361 16.8308 18.0361ZM16.6488 13.0801C16.7421 13.0801 16.8308 13.0684 16.9148 13.0451C17.0034 13.0171 17.0804 12.9821 17.1458 12.9401C17.2158 12.8981 17.2694 12.8468 17.3068 12.7861C17.3441 12.7254 17.3628 12.6601 17.3628 12.5901C17.3628 12.5108 17.3371 12.4384 17.2858 12.3731C17.2391 12.3078 17.1691 12.2564 17.0758 12.2191C16.9824 12.1771 16.8681 12.1561 16.7328 12.1561C16.6161 12.1561 16.5158 12.1771 16.4318 12.2191C16.3478 12.2564 16.2824 12.3078 16.2358 12.3731C16.1938 12.4338 16.1728 12.5014 16.1728 12.5761C16.1728 12.6461 16.1938 12.7161 16.2358 12.7861C16.2778 12.8514 16.3338 12.9121 16.4038 12.9681C16.4784 13.0194 16.5601 13.0568 16.6488 13.0801Z" fill="#131313"/>
</svg>
