<svg width="24" height="24" viewBox="0 0 24 24" fill="none" xmlns="http://www.w3.org/2000/svg">
<path d="M3.90132 17.0001C4.21865 16.4588 4.55232 15.8918 4.90232 15.2991C5.25232 14.7018 5.58599 14.1348 5.90332 13.5981L7.91932 10.1681C8.26465 9.58007 8.58199 9.03874 8.87132 8.54407C9.16532 8.04474 9.46399 7.53607 9.76732 7.01807H10.7543C10.8337 7.51274 10.9153 8.01207 10.9993 8.51607C11.0833 9.0154 11.1743 9.57074 11.2723 10.1821L11.8393 13.6051C11.9327 14.1604 12.0283 14.7344 12.1263 15.3271C12.2243 15.9151 12.3153 16.4728 12.3993 17.0001H11.6923C11.599 16.3981 11.4987 15.7704 11.3913 15.1171C11.2887 14.4638 11.1883 13.8408 11.0903 13.2481L10.2013 7.71807H10.1033L6.88332 13.2271C6.52865 13.8384 6.16232 14.4661 5.78432 15.1101C5.41099 15.7494 5.04232 16.3794 4.67832 17.0001H3.90132ZM6.02932 14.2631L6.18332 13.6611H11.5663L11.4753 14.2631H6.02932ZM15.7285 19.8211C15.3551 19.8211 15.0005 19.7791 14.6645 19.6951C14.3331 19.6111 14.0461 19.4874 13.8035 19.3241C13.5608 19.1608 13.3835 18.9578 13.2715 18.7151C13.1595 18.4771 13.1385 18.2018 13.2085 17.8891C13.2738 17.5718 13.4115 17.3151 13.6215 17.1191C13.8315 16.9231 14.0578 16.7761 14.3005 16.6781C14.5478 16.5801 14.7601 16.5148 14.9375 16.4821V16.4121C14.8628 16.3794 14.7741 16.3211 14.6715 16.2371C14.5688 16.1484 14.4848 16.0294 14.4195 15.8801C14.3588 15.7308 14.3518 15.5511 14.3985 15.3411C14.4405 15.1591 14.5151 15.0051 14.6225 14.8791C14.7345 14.7484 14.8721 14.6411 15.0355 14.5571C15.1988 14.4731 15.3831 14.4078 15.5885 14.3611V14.2841C15.4718 14.2281 15.3318 14.1371 15.1685 14.0111C15.0098 13.8851 14.8605 13.7241 14.7205 13.5281C14.5805 13.3321 14.4801 13.0988 14.4195 12.8281C14.3588 12.5574 14.3658 12.2471 14.4405 11.8971C14.5291 11.4538 14.7018 11.0874 14.9585 10.7981C15.2198 10.5088 15.5395 10.2918 15.9175 10.1471C16.3001 10.0024 16.7155 9.93007 17.1635 9.93007C17.3968 9.93007 17.5928 9.94174 17.7515 9.96507C17.9101 9.9884 18.0688 10.0118 18.2275 10.0351C18.3861 10.0584 18.5798 10.0701 18.8085 10.0701H21.2655L21.1465 10.6161C20.6845 10.6161 20.2271 10.6161 19.7745 10.6161C19.3218 10.6161 18.8691 10.6161 18.4165 10.6161L18.5985 10.3781C19.0185 10.6628 19.2961 10.9894 19.4315 11.3581C19.5668 11.7268 19.5925 12.1118 19.5085 12.5131C19.4151 12.9564 19.2425 13.3181 18.9905 13.5981C18.7385 13.8781 18.4258 14.0974 18.0525 14.2561C17.6791 14.4101 17.2661 14.5198 16.8135 14.5851C16.2395 14.6644 15.8078 14.7554 15.5185 14.8581C15.2338 14.9561 15.0658 15.1171 15.0145 15.3411C14.9865 15.4718 15.0028 15.5978 15.0635 15.7191C15.1241 15.8358 15.2478 15.9338 15.4345 16.0131C15.6211 16.0878 15.8918 16.1251 16.2465 16.1251H16.7365C17.3711 16.1251 17.8798 16.2021 18.2625 16.3561C18.6451 16.5054 18.9088 16.7131 19.0535 16.9791C19.2028 17.2451 19.2401 17.5508 19.1655 17.8961C19.0955 18.2228 18.9508 18.5051 18.7315 18.7431C18.5121 18.9858 18.2415 19.1864 17.9195 19.3451C17.6021 19.5038 17.2545 19.6228 16.8765 19.7021C16.4985 19.7814 16.1158 19.8211 15.7285 19.8211ZM15.7635 19.2191C16.3375 19.2191 16.8205 19.1514 17.2125 19.0161C17.6091 18.8808 17.9171 18.7081 18.1365 18.4981C18.3558 18.2928 18.4888 18.0828 18.5355 17.8681C18.5868 17.6534 18.5658 17.4598 18.4725 17.2871C18.3838 17.1144 18.1901 16.9768 17.8915 16.8741C17.5928 16.7714 17.1495 16.7201 16.5615 16.7201H16.2675C15.9175 16.7201 15.5651 16.7598 15.2105 16.8391C14.8605 16.9138 14.5595 17.0351 14.3075 17.2031C14.0555 17.3758 13.8991 17.6044 13.8385 17.8891C13.7825 18.1411 13.8058 18.3511 13.9085 18.5191C14.0111 18.6918 14.1605 18.8294 14.3565 18.9321C14.5571 19.0348 14.7811 19.1071 15.0285 19.1491C15.2758 19.1958 15.5208 19.2191 15.7635 19.2191ZM16.4705 14.0601C16.7131 14.0321 16.9605 13.9924 17.2125 13.9411C17.4645 13.8898 17.7025 13.8081 17.9265 13.6961C18.1551 13.5841 18.3535 13.4254 18.5215 13.2201C18.6895 13.0148 18.8085 12.7511 18.8785 12.4291C18.9578 12.0604 18.9251 11.7338 18.7805 11.4491C18.6358 11.1644 18.4165 10.9428 18.1225 10.7841C17.8285 10.6208 17.5018 10.5391 17.1425 10.5391C16.7878 10.5391 16.4635 10.5904 16.1695 10.6931C15.8801 10.7958 15.6375 10.9568 15.4415 11.1761C15.2501 11.3954 15.1218 11.6778 15.0565 12.0231C14.9771 12.4011 14.9981 12.7301 15.1195 13.0101C15.2455 13.2854 15.4298 13.5118 15.6725 13.6891C15.9198 13.8664 16.1858 13.9901 16.4705 14.0601Z" fill="#131313"/>
</svg>
