<svg width="24" height="24" viewBox="0 0 24 24" fill="none" xmlns="http://www.w3.org/2000/svg">
<path d="M11.2581 16.0041C11.4778 16.0041 11.7707 15.7539 12.1369 15.2535C12.503 14.7409 12.8631 14.0879 13.217 13.2946C13.5832 12.489 13.8029 12.0863 13.8761 12.0863C13.9615 12.0863 14.0043 12.1351 14.0043 12.2327C14.0043 12.5745 13.8273 13.1176 13.4733 13.8621C12.5091 15.9126 11.6914 16.9378 11.0201 16.9378C10.4587 16.9378 10.0559 16.8402 9.8118 16.6449C9.70196 16.535 9.64703 15.3755 9.64703 13.1664L6.64457 13.3861C6.41267 14.0208 6.20519 14.6554 6.02211 15.2901C5.83903 15.9248 5.71698 16.3153 5.65596 16.4618C5.5217 16.7791 5.19826 16.9378 4.68565 16.9378C4.3439 16.9378 4.17303 16.7913 4.17303 16.4984C4.17303 16.2055 4.40493 15.7783 4.86873 15.2169C4.95416 15.107 5.23488 14.5151 5.71088 13.441C5.54001 13.4532 5.37524 13.4593 5.21657 13.4593C4.78939 13.4593 4.5758 13.2763 4.5758 12.9101C4.5758 12.5806 4.74667 12.4158 5.08842 12.4158C5.11283 12.4158 5.46067 12.4463 6.13196 12.5073C6.31503 12.0802 6.51031 11.6591 6.7178 11.2441C8.31668 7.89988 9.41514 6.22778 10.0132 6.22778C10.4648 6.22778 10.776 8.32096 10.9469 12.5073H11.1116C11.1971 12.5073 11.2398 12.5684 11.2398 12.6904C11.2398 12.8125 11.1483 12.9162 10.9652 13.0016C11.0384 15.0033 11.1361 16.0041 11.2581 16.0041ZM6.91919 12.5989C8.34719 12.5989 9.25647 12.5928 9.64703 12.5806C9.63483 12.3853 9.62262 12.0435 9.61042 11.5553C9.59822 11.0671 9.58601 10.646 9.5738 10.2921C9.5616 9.92594 9.5494 9.54758 9.5372 9.15701C9.48838 8.31486 9.41514 7.89378 9.31749 7.89378C9.18324 7.89378 8.90863 8.29045 8.49366 9.08378C8.07868 9.87711 7.75524 10.5484 7.52334 11.0976C7.20602 11.891 7.00462 12.3914 6.91919 12.5989ZM17.3724 14.0452C16.9941 15.046 16.6401 15.7783 16.3106 16.2421C15.9933 16.7059 15.5722 16.9378 15.0474 16.9378C14.5226 16.9378 14.0771 16.712 13.7109 16.2604C13.357 15.8088 13.18 15.0887 13.18 14.1001C13.18 13.1115 13.4546 12.2388 14.0038 11.4821C14.5653 10.7254 15.2976 10.347 16.2008 10.347C16.3838 10.347 16.6035 10.4264 16.8598 10.585C17.1161 10.7315 17.3419 10.9146 17.5372 11.1343C17.5738 11.0122 17.7508 10.823 18.0681 10.5667C18.3855 10.2982 18.6296 10.1639 18.8004 10.1639C18.9835 10.1639 19.0751 10.4264 19.0751 10.9512C19.0751 11.476 18.9652 11.9398 18.7455 12.3426C18.6235 13.1603 18.5563 13.917 18.5441 14.6127C19.7402 13.0993 20.3749 12.2998 20.4481 12.2144C20.5336 12.129 20.6068 12.0863 20.6678 12.0863C20.7899 12.0863 20.8509 12.1473 20.8509 12.2693C20.8509 12.3426 20.8265 12.4219 20.7777 12.5073C20.3871 13.081 19.6182 14.0879 18.4709 15.5281C18.3977 16.9805 18.3489 17.9691 18.3244 18.4939C18.2634 20.044 18.0437 21.1303 17.6654 21.7527C17.2992 22.3874 16.6401 22.7047 15.6881 22.7047C15.2732 22.7047 14.8826 22.5766 14.5164 22.3203C14.1625 22.0762 13.9855 21.6429 13.9855 21.0204C13.9855 20.4102 14.2174 19.7816 14.6812 19.1347C15.1572 18.4878 16.0177 17.4931 17.2626 16.1506L17.3724 14.0452ZM16.0909 11.0061C15.7492 11.0061 15.383 11.2746 14.9924 11.8116C14.6141 12.3365 14.4249 12.9467 14.4249 13.6424C14.4249 14.3259 14.5226 14.8873 14.7178 15.3267C14.9253 15.7539 15.1816 15.9675 15.4868 15.9675C15.7919 15.9675 16.0848 15.7173 16.3655 15.2169C16.6462 14.7165 17.0063 13.856 17.4457 12.6355C17.4701 12.2205 17.4823 11.9581 17.4823 11.8483C17.3847 11.6652 17.1833 11.4821 16.8781 11.299C16.573 11.1037 16.3106 11.0061 16.0909 11.0061ZM17.2077 17.011C15.8163 18.5123 15.1206 19.7145 15.1206 20.6176C15.1206 21.0326 15.1938 21.3744 15.3403 21.6429C15.4868 21.9114 15.6881 22.0456 15.9444 22.0456C16.335 22.0456 16.6096 21.832 16.7683 21.4049C16.927 20.9777 17.0429 20.1111 17.1161 18.8052L17.2077 17.011Z" fill="#131313"/>
</svg>
