<svg width="24" height="24" viewBox="0 0 24 24" fill="none" xmlns="http://www.w3.org/2000/svg">
<path d="M13.0744 15.8321C13.1117 15.8321 13.1304 15.8601 13.1304 15.9161C13.1304 15.9721 13.1117 16.0001 13.0744 16.0001C12.9064 16.0001 12.6357 15.9908 12.2624 15.9721C11.9077 15.9534 11.6464 15.9441 11.4784 15.9441C11.2824 15.9441 11.0257 15.9534 10.7084 15.9721C10.4097 15.9908 10.1857 16.0001 10.0364 16.0001C9.99908 16.0001 9.98041 15.9721 9.98041 15.9161C9.98041 15.8601 9.99908 15.8321 10.0364 15.8321C10.4191 15.8321 10.6944 15.7994 10.8624 15.7341C11.0304 15.6594 11.1144 15.5381 11.1144 15.3701C11.1144 15.2394 11.0631 15.0574 10.9604 14.8241L9.29441 11.2541H6.62041L5.36041 14.2781C5.22974 14.5954 5.16441 14.8568 5.16441 15.0621C5.16441 15.3328 5.27641 15.5288 5.50041 15.6501C5.72441 15.7714 6.07441 15.8321 6.55041 15.8321C6.59708 15.8321 6.62041 15.8601 6.62041 15.9161C6.62041 15.9721 6.59708 16.0001 6.55041 16.0001C6.38241 16.0001 6.13974 15.9908 5.82241 15.9721C5.46774 15.9534 5.15974 15.9441 4.89841 15.9441C4.66508 15.9441 4.38974 15.9534 4.07241 15.9721C3.79241 15.9908 3.56374 16.0001 3.38641 16.0001C3.33974 16.0001 3.31641 15.9721 3.31641 15.9161C3.31641 15.8601 3.33974 15.8321 3.38641 15.8321C3.64774 15.8321 3.86708 15.7854 4.04441 15.6921C4.23108 15.5988 4.40374 15.4308 4.56241 15.1881C4.73041 14.9454 4.90774 14.6001 5.09441 14.1521L8.02041 7.11012C8.03908 7.08212 8.06708 7.06812 8.10441 7.06812C8.15108 7.06812 8.17908 7.08212 8.18841 7.11012L11.4364 14.0821C11.6511 14.5581 11.8424 14.9221 12.0104 15.1741C12.1784 15.4168 12.3417 15.5894 12.5004 15.6921C12.6684 15.7854 12.8597 15.8321 13.0744 15.8321ZM6.73241 10.9881H9.18241L7.88041 8.21611L6.73241 10.9881ZM18.4398 10.4841C18.4491 10.4748 18.4725 10.4748 18.5098 10.4841C18.5471 10.4841 18.5658 10.4934 18.5658 10.5121V16.9801C18.5658 17.8761 18.3231 18.5901 17.8378 19.1221C17.3525 19.6634 16.6805 19.9341 15.8218 19.9341C15.2711 19.9341 14.8231 19.8314 14.4778 19.6261C14.1418 19.4208 13.9738 19.1734 13.9738 18.8841C13.9738 18.7534 14.0065 18.6554 14.0718 18.5901C14.1465 18.5248 14.2305 18.4921 14.3238 18.4921C14.4265 18.4921 14.5151 18.5201 14.5898 18.5761C14.6645 18.6414 14.7485 18.7394 14.8418 18.8701C15.0378 19.1128 15.2385 19.2994 15.4438 19.4301C15.6491 19.5701 15.9478 19.6401 16.3398 19.6401C16.8251 19.6401 17.2078 19.4768 17.4878 19.1501C17.7771 18.8234 17.9218 18.2121 17.9218 17.3161V14.8941C17.5858 15.2674 17.2311 15.5661 16.8578 15.7901C16.4938 16.0141 16.0925 16.1261 15.6538 16.1261C15.0845 16.1261 14.6085 15.9208 14.2258 15.5101C13.8431 15.0901 13.6518 14.5068 13.6518 13.7601C13.6518 13.0881 13.8105 12.5001 14.1278 11.9961C14.4451 11.4828 14.8418 11.0908 15.3178 10.8201C15.8031 10.5494 16.2745 10.4141 16.7318 10.4141C16.9838 10.4141 17.2265 10.4561 17.4598 10.5401C17.7025 10.6148 17.9171 10.7174 18.1038 10.8481C18.2531 10.7641 18.3651 10.6428 18.4398 10.4841ZM16.0598 15.7341C16.6478 15.7341 17.2685 15.3794 17.9218 14.6701V11.8701C17.9218 11.5341 17.7631 11.2541 17.4458 11.0301C17.1285 10.7968 16.7738 10.6801 16.3818 10.6801C15.8125 10.6801 15.3458 10.9321 14.9818 11.4361C14.6271 11.9308 14.4498 12.5748 14.4498 13.3681C14.4498 14.0681 14.5945 14.6374 14.8838 15.0761C15.1731 15.5148 15.5651 15.7341 16.0598 15.7341Z" fill="#131313"/>
</svg>
