<svg width="24" height="24" viewBox="0 0 24 24" fill="none" xmlns="http://www.w3.org/2000/svg">
<path d="M13.3514 15.832C13.3888 15.832 13.4074 15.86 13.4074 15.916C13.4074 15.972 13.3888 16 13.3514 16C13.1741 16 12.8894 15.9907 12.4974 15.972C12.1241 15.9533 11.8488 15.944 11.6714 15.944C11.4568 15.944 11.1908 15.9533 10.8734 15.972C10.5561 15.9907 10.3181 16 10.1594 16C10.1221 16 10.1034 15.972 10.1034 15.916C10.1034 15.86 10.1221 15.832 10.1594 15.832C10.4768 15.832 10.7054 15.804 10.8454 15.748C10.9854 15.6827 11.0554 15.5707 11.0554 15.412C11.0554 15.2533 10.9854 15.034 10.8454 14.754L9.27745 11.506H6.70145L5.55345 14.152C5.42278 14.46 5.35745 14.7167 5.35745 14.922C5.35745 15.5287 5.81011 15.832 6.71545 15.832C6.76211 15.832 6.78545 15.86 6.78545 15.916C6.78545 15.972 6.76211 16 6.71545 16C6.54745 16 6.30478 15.9907 5.98745 15.972C5.63278 15.9533 5.32478 15.944 5.06345 15.944C4.82078 15.944 4.53145 15.9533 4.19545 15.972C3.89678 15.9907 3.65411 16 3.46745 16C3.43011 16 3.41145 15.972 3.41145 15.916C3.41145 15.86 3.43011 15.832 3.46745 15.832C3.72878 15.832 3.94811 15.7807 4.12545 15.678C4.31211 15.5753 4.48945 15.398 4.65745 15.146C4.82545 14.894 5.01678 14.5207 5.23145 14.026L8.21345 7.15198C8.22278 7.12398 8.25545 7.10998 8.31145 7.10998C8.36745 7.10065 8.40011 7.11465 8.40945 7.15198L11.7834 14.082C12.1008 14.7633 12.3714 15.2253 12.5954 15.468C12.8194 15.7107 13.0714 15.832 13.3514 15.832ZM6.82745 11.184H9.12345L7.91945 8.66398L6.82745 11.184ZM16.6282 15.496C17.2722 15.5987 17.7575 15.692 18.0842 15.776C18.4109 15.8507 18.7002 16 18.9522 16.224C19.2042 16.448 19.3302 16.77 19.3302 17.19C19.3302 17.638 19.1715 18.0767 18.8542 18.506C18.5369 18.9353 18.1075 19.2807 17.5662 19.542C17.0249 19.8127 16.4462 19.948 15.8302 19.948C15.1582 19.948 14.6122 19.7893 14.1922 19.472C13.7815 19.164 13.5762 18.7673 13.5762 18.282C13.5762 17.9273 13.6975 17.5727 13.9402 17.218C14.1922 16.8727 14.5842 16.5133 15.1162 16.14C14.5002 15.9533 14.1922 15.6313 14.1922 15.174C14.1922 14.922 14.2855 14.67 14.4722 14.418C14.6589 14.1567 14.9155 13.928 15.2422 13.732C14.8689 13.6013 14.5749 13.396 14.3602 13.116C14.1549 12.8267 14.0522 12.514 14.0522 12.178C14.0522 11.674 14.2715 11.268 14.7102 10.96C15.1582 10.652 15.6902 10.498 16.3062 10.498C16.9129 10.498 17.3982 10.6427 17.7622 10.932C18.2849 10.624 18.7889 10.47 19.2742 10.47C19.3022 10.47 19.3209 10.5073 19.3302 10.582C19.3489 10.6473 19.3582 10.722 19.3582 10.806C19.3582 10.9367 19.3442 11.0627 19.3162 11.184C19.2882 11.3053 19.2555 11.3567 19.2182 11.338C18.8542 11.1887 18.5322 11.114 18.2522 11.114C18.1962 11.114 18.1029 11.1233 17.9722 11.142C18.2242 11.422 18.3502 11.7487 18.3502 12.122C18.3502 12.4487 18.2522 12.7473 18.0562 13.018C17.8602 13.2793 17.5895 13.4893 17.2442 13.648C16.9082 13.7973 16.5395 13.872 16.1382 13.872C15.8675 13.872 15.6295 13.844 15.4242 13.788C15.1255 13.9933 14.9762 14.2593 14.9762 14.586C14.9762 14.8753 15.1162 15.0807 15.3962 15.202C15.6762 15.314 16.0869 15.412 16.6282 15.496ZM15.9142 10.722C15.6622 10.722 15.4615 10.8153 15.3122 11.002C15.1629 11.1887 15.0882 11.4733 15.0882 11.856C15.0882 12.3787 15.2189 12.8127 15.4802 13.158C15.7509 13.494 16.0775 13.662 16.4602 13.662C16.7029 13.662 16.9035 13.564 17.0622 13.368C17.2302 13.1627 17.3142 12.85 17.3142 12.43C17.3142 11.9353 17.1742 11.5293 16.8942 11.212C16.6142 10.8853 16.2875 10.722 15.9142 10.722ZM16.4462 19.528C17.0715 19.528 17.5615 19.36 17.9162 19.024C18.2802 18.688 18.4622 18.2773 18.4622 17.792C18.4622 17.428 18.3502 17.148 18.1262 16.952C17.9022 16.756 17.6409 16.6207 17.3422 16.546C17.0529 16.4807 16.6282 16.406 16.0682 16.322C15.8909 16.3033 15.6715 16.266 15.4102 16.21C15.1489 16.406 14.9435 16.6253 14.7942 16.868C14.6449 17.1107 14.5702 17.4093 14.5702 17.764C14.5702 18.3147 14.7382 18.744 15.0742 19.052C15.4195 19.3693 15.8769 19.528 16.4462 19.528Z" fill="#131313"/>
</svg>
