<svg width="24" height="24" viewBox="0 0 24 24" fill="none" xmlns="http://www.w3.org/2000/svg">
<path d="M13.718 15.8321C13.7553 15.8321 13.774 15.8601 13.774 15.9161C13.774 15.9721 13.7553 16.0001 13.718 16.0001C13.55 16.0001 13.2793 15.9908 12.906 15.9721C12.5513 15.9534 12.29 15.9441 12.122 15.9441C11.926 15.9441 11.6693 15.9534 11.352 15.9721C11.0533 15.9908 10.8293 16.0001 10.68 16.0001C10.6426 16.0001 10.624 15.9721 10.624 15.9161C10.624 15.8601 10.6426 15.8321 10.68 15.8321C11.0626 15.8321 11.338 15.7994 11.506 15.7341C11.674 15.6594 11.758 15.5381 11.758 15.3701C11.758 15.2394 11.7066 15.0574 11.604 14.8241L10.288 11.9821H6.95595L6.00395 14.2781C5.87329 14.5954 5.80795 14.8568 5.80795 15.0621C5.80795 15.3328 5.91995 15.5288 6.14395 15.6501C6.36795 15.7714 6.71795 15.8321 7.19395 15.8321C7.24062 15.8321 7.26395 15.8601 7.26395 15.9161C7.26395 15.9721 7.24062 16.0001 7.19395 16.0001C7.02595 16.0001 6.78329 15.9908 6.46595 15.9721C6.11129 15.9534 5.80329 15.9441 5.54195 15.9441C5.30862 15.9441 5.03329 15.9534 4.71595 15.9721C4.43595 15.9908 4.20729 16.0001 4.02995 16.0001C3.98329 16.0001 3.95995 15.9721 3.95995 15.9161C3.95995 15.8601 3.98329 15.8321 4.02995 15.8321C4.29129 15.8321 4.51062 15.7854 4.68795 15.6921C4.87462 15.5988 5.04729 15.4308 5.20595 15.1881C5.37395 14.9454 5.55129 14.6001 5.73795 14.1521L8.66395 7.11012C8.68262 7.08212 8.71062 7.06812 8.74795 7.06812C8.79462 7.06812 8.82262 7.08212 8.83195 7.11012L12.08 14.0821C12.2946 14.5581 12.486 14.9221 12.654 15.1741C12.822 15.4168 12.9853 15.5894 13.144 15.6921C13.312 15.7854 13.5033 15.8321 13.718 15.8321ZM7.06795 11.7301H10.162L8.52395 8.21611L7.06795 11.7301ZM17.5853 15.7341C18.2013 15.7341 18.7147 15.8228 19.1253 16.0001C19.536 16.1681 19.7413 16.5461 19.7413 17.1341C19.7413 17.6288 19.578 18.0908 19.2513 18.5201C18.9247 18.9494 18.4907 19.2901 17.9493 19.5421C17.4173 19.7941 16.862 19.9201 16.2833 19.9201C15.6487 19.9201 15.1493 19.7754 14.7853 19.4861C14.4307 19.2061 14.2533 18.8421 14.2533 18.3941C14.2533 17.6848 14.734 16.9894 15.6953 16.3081C15.3313 16.2614 15.056 16.1681 14.8693 16.0281C14.6827 15.8881 14.5893 15.6734 14.5893 15.3841C14.5893 15.1041 14.664 14.8614 14.8133 14.6561C14.972 14.4508 15.2333 14.1941 15.5973 13.8861C15.2893 13.7368 15.0467 13.5268 14.8693 13.2561C14.7013 12.9761 14.6173 12.6681 14.6173 12.3321C14.6173 11.8188 14.8133 11.3848 15.2053 11.0301C15.5973 10.6754 16.1293 10.4981 16.8013 10.4981C17.3987 10.4981 17.8747 10.6381 18.2293 10.9181C18.5 10.7781 18.752 10.6708 18.9853 10.5961C19.2187 10.5214 19.466 10.4841 19.7273 10.4841C19.746 10.4841 19.76 10.5168 19.7693 10.5821C19.788 10.6474 19.7973 10.7128 19.7973 10.7781C19.7973 10.8901 19.7833 10.9974 19.7553 11.1001C19.7367 11.1934 19.7087 11.2308 19.6713 11.2121C19.3447 11.0814 19.0413 11.0161 18.7613 11.0161C18.6307 11.0161 18.5 11.0301 18.3693 11.0581C18.5373 11.2261 18.6633 11.4221 18.7473 11.6461C18.8313 11.8608 18.8733 12.0801 18.8733 12.3041C18.8733 12.6214 18.7893 12.9201 18.6213 13.2001C18.4533 13.4801 18.206 13.7088 17.8793 13.8861C17.5527 14.0541 17.17 14.1381 16.7313 14.1381C16.3953 14.1381 16.0873 14.0868 15.8073 13.9841C15.5927 14.1708 15.4387 14.3388 15.3453 14.4881C15.252 14.6374 15.2053 14.7961 15.2053 14.9641C15.2053 15.1694 15.2753 15.3281 15.4153 15.4401C15.5553 15.5428 15.7933 15.6174 16.1293 15.6641C16.4747 15.7108 16.96 15.7341 17.5853 15.7341ZM16.4933 10.6941C16.1387 10.6941 15.8587 10.8014 15.6533 11.0161C15.4573 11.2308 15.3593 11.5668 15.3593 12.0241C15.3593 12.4441 15.4387 12.7988 15.5973 13.0881C15.756 13.3774 15.9567 13.5921 16.1993 13.7321C16.4513 13.8721 16.7127 13.9421 16.9833 13.9421C17.3287 13.9421 17.604 13.8301 17.8093 13.6061C18.0147 13.3821 18.1173 13.0414 18.1173 12.5841C18.1173 12.0148 17.9633 11.5574 17.6553 11.2121C17.3473 10.8668 16.96 10.6941 16.4933 10.6941ZM16.8013 19.5001C17.492 19.5001 18.0567 19.3228 18.4953 18.9681C18.934 18.6228 19.1533 18.1561 19.1533 17.5681C19.1533 17.2041 19.06 16.9334 18.8733 16.7561C18.696 16.5881 18.4533 16.4808 18.1453 16.4341C17.8467 16.3874 17.4313 16.3641 16.8993 16.3641C16.4793 16.3641 16.1807 16.3594 16.0033 16.3501C15.658 16.5554 15.392 16.7841 15.2053 17.0361C15.028 17.2881 14.9393 17.6054 14.9393 17.9881C14.9393 18.4548 15.0933 18.8234 15.4013 19.0941C15.7187 19.3648 16.1853 19.5001 16.8013 19.5001Z" fill="#131313"/>
</svg>
