<svg width="24" height="24" viewBox="0 0 24 24" fill="none" xmlns="http://www.w3.org/2000/svg">
<path d="M11.0439 13.3271H7.27051L6.04688 15.4258H7.14746C7.27962 15.4258 7.36849 15.4463 7.41406 15.4873C7.45964 15.5238 7.48242 15.5785 7.48242 15.6514C7.48242 15.7471 7.44368 15.8291 7.36621 15.8975C7.28874 15.9658 7.1748 16 7.02441 16H4.88477C4.75716 16 4.67057 15.9795 4.625 15.9385C4.57943 15.8975 4.55664 15.8405 4.55664 15.7676C4.55664 15.6764 4.5931 15.5967 4.66602 15.5283C4.74349 15.46 4.85742 15.4258 5.00781 15.4258H5.44531L9.44434 8.57617H7.74902C7.62142 8.57617 7.53483 8.55794 7.48926 8.52148C7.44368 8.48047 7.4209 8.42122 7.4209 8.34375C7.4209 8.2526 7.45736 8.17285 7.53027 8.10449C7.60775 8.03613 7.72168 8.00195 7.87207 8.00195H10.7568L11.9873 15.4258H12.4316C12.5592 15.4258 12.6458 15.4463 12.6914 15.4873C12.737 15.5238 12.7598 15.5785 12.7598 15.6514C12.7598 15.7471 12.721 15.8291 12.6436 15.8975C12.5706 15.9658 12.459 16 12.3086 16H10.1621C10.0345 16 9.94792 15.9795 9.90234 15.9385C9.85677 15.8975 9.83398 15.8405 9.83398 15.7676C9.83398 15.6764 9.87044 15.5967 9.94336 15.5283C10.0208 15.46 10.1348 15.4258 10.2852 15.4258H11.3857L11.0439 13.3271ZM10.9482 12.7529L10.251 8.57617H10.0391L7.60547 12.7529H10.9482ZM19.6641 11.1328L19.8896 10.0801H21.2363C21.3639 10.0801 21.4482 10.0983 21.4893 10.1348C21.5439 10.1803 21.5713 10.2396 21.5713 10.3125C21.5713 10.4036 21.5326 10.4857 21.4551 10.5586C21.3776 10.627 21.2637 10.6611 21.1133 10.6611H20.3477L19.124 16.3965C19.0465 16.7656 18.8984 17.1006 18.6797 17.4014C18.5247 17.611 18.29 17.8252 17.9756 18.0439C17.6611 18.2627 17.3945 18.4154 17.1758 18.502C16.957 18.5931 16.6699 18.6387 16.3145 18.6387H14.6875C14.5599 18.6387 14.4733 18.6182 14.4277 18.5771C14.3822 18.5361 14.3594 18.4814 14.3594 18.4131C14.3594 18.3174 14.3958 18.2331 14.4688 18.1602C14.5462 18.0918 14.6602 18.0576 14.8105 18.0576L16.458 18.0645C16.7816 18.0645 17.096 17.9824 17.4014 17.8184C17.7067 17.6543 17.9893 17.3991 18.249 17.0527C18.3949 16.8613 18.4997 16.6152 18.5635 16.3145L18.9326 14.5918C18.1351 15.4349 17.2441 15.8564 16.2598 15.8564C15.599 15.8564 15.0498 15.6354 14.6123 15.1934C14.1748 14.7467 13.9561 14.1748 13.9561 13.4775C13.9561 12.9899 14.07 12.5228 14.2979 12.0762C14.5257 11.625 14.8014 11.2467 15.125 10.9414C15.4486 10.6315 15.8154 10.3763 16.2256 10.1758C16.6403 9.97526 17.0846 9.875 17.5586 9.875C18.5293 9.875 19.2311 10.2943 19.6641 11.1328ZM16.417 15.2754C16.8044 15.2754 17.1689 15.1956 17.5107 15.0361C17.8525 14.8766 18.1602 14.667 18.4336 14.4072C18.707 14.1429 18.9281 13.8262 19.0967 13.457C19.2699 13.0833 19.3564 12.7028 19.3564 12.3154C19.3564 11.7822 19.1787 11.3402 18.8232 10.9893C18.4678 10.6338 18.0212 10.4561 17.4834 10.4561C16.7223 10.4561 16.041 10.7546 15.4395 11.3516C14.8424 11.9486 14.5439 12.623 14.5439 13.375C14.5439 13.931 14.7217 14.3867 15.0771 14.7422C15.4326 15.0977 15.8792 15.2754 16.417 15.2754Z" fill="#131313"/>
</svg>
