<svg width="24" height="24" viewBox="0 0 24 24" fill="none" xmlns="http://www.w3.org/2000/svg">
<path d="M13.0586 11.8574C13.0859 11.9121 13.0996 11.9668 13.0996 12.0215C13.0996 12.0671 13.0905 12.1126 13.0723 12.1582C13.0267 12.2676 12.9629 12.3633 12.8809 12.4453C12.8171 12.4544 12.7624 12.459 12.7168 12.459C12.6439 12.459 12.5846 12.4499 12.5391 12.4316C12.4388 12.4134 12.3477 12.3861 12.2656 12.3496C12.1927 12.3132 12.1152 12.2767 12.0332 12.2402C11.9512 12.2038 11.8555 12.181 11.7461 12.1719C11.6732 12.5456 11.6094 12.9102 11.5547 13.2656C11.5091 13.612 11.4544 13.9538 11.3906 14.291C11.3359 14.6191 11.2585 14.9427 11.1582 15.2617C11.0671 15.5807 10.9395 15.8906 10.7754 16.1914C10.7298 16.1641 10.6842 16.1504 10.6387 16.1504C10.6022 16.1504 10.5703 16.1549 10.543 16.1641C10.5065 16.1823 10.4701 16.1914 10.4336 16.1914C10.388 16.1914 10.3379 16.1777 10.2832 16.1504C10.1921 16.0501 10.1465 15.9453 10.1465 15.8359V15.7949C10.1556 15.6764 10.1875 15.5534 10.2422 15.4258C10.2969 15.2891 10.3607 15.1523 10.4336 15.0156C10.5156 14.8698 10.5703 14.7285 10.5977 14.5918C10.6888 14.1816 10.748 13.7669 10.7754 13.3477C10.8118 12.9284 10.8574 12.5365 10.9121 12.1719C10.5475 12.1263 10.1738 12.1035 9.79102 12.1035C9.66341 12.1035 9.53125 12.1081 9.39453 12.1172C8.86589 12.1354 8.33268 12.181 7.79492 12.2539C7.25716 12.3177 6.72396 12.4089 6.19531 12.5273C5.67578 12.6367 5.17904 12.7598 4.70508 12.8965C4.74154 13.252 4.78255 13.5846 4.82812 13.8945C4.88281 14.1953 4.96029 14.5189 5.06055 14.8652C5.09701 14.9928 5.14714 15.1296 5.21094 15.2754C5.28385 15.4212 5.33854 15.5534 5.375 15.6719C5.38411 15.7266 5.38867 15.7767 5.38867 15.8223C5.38867 15.8861 5.375 15.9453 5.34766 16C5.30208 16.0911 5.19271 16.1413 5.01953 16.1504H4.97852C4.89648 16.1504 4.82357 16.123 4.75977 16.0684C4.68685 16.0046 4.6276 15.9271 4.58203 15.8359C4.53646 15.7357 4.50456 15.6263 4.48633 15.5078C4.47721 15.4349 4.47266 15.3665 4.47266 15.3027V15.1934C4.39062 15.0566 4.31771 14.9062 4.25391 14.7422C4.19922 14.569 4.14909 14.3913 4.10352 14.209C4.06706 14.0267 4.03516 13.8444 4.00781 13.6621C3.98958 13.4707 3.97591 13.293 3.9668 13.1289C3.74805 13.2018 3.53841 13.2793 3.33789 13.3613C3.13737 13.4434 2.95052 13.5482 2.77734 13.6758C2.58594 13.5938 2.47201 13.5072 2.43555 13.416C2.41732 13.3887 2.4082 13.3568 2.4082 13.3203C2.4082 13.2656 2.42643 13.2109 2.46289 13.1562C2.51758 13.0742 2.60872 12.9967 2.73633 12.9238C2.86393 12.8418 3.00065 12.7689 3.14648 12.7051C3.29232 12.6322 3.43359 12.5684 3.57031 12.5137C3.70703 12.4499 3.81185 12.3952 3.88477 12.3496C3.86654 12.1582 3.85742 11.9714 3.85742 11.7891C3.85742 11.4245 3.88932 11.0645 3.95312 10.709C4.04427 10.1803 4.18555 9.67904 4.37695 9.20508C4.57747 8.73112 4.81901 8.28906 5.10156 7.87891C5.38411 7.45964 5.69401 7.07682 6.03125 6.73047C6.25 6.51172 6.48242 6.33854 6.72852 6.21094C6.98372 6.07422 7.25716 5.97396 7.54883 5.91016C7.84049 5.83724 8.15495 5.79167 8.49219 5.77344H9.58594C9.96875 6.0651 10.2832 6.41602 10.5293 6.82617C10.7845 7.22721 10.9896 7.66927 11.1445 8.15234C11.2995 8.6263 11.418 9.13216 11.5 9.66992C11.582 10.1986 11.6458 10.7409 11.6914 11.2969C11.7826 11.3698 11.8919 11.4199 12.0195 11.4473C12.1562 11.4746 12.2884 11.502 12.416 11.5293C12.5527 11.5566 12.6803 11.5931 12.7988 11.6387C12.9173 11.6842 13.0039 11.7572 13.0586 11.8574ZM10.8301 11.3926C10.8665 11.2559 10.8848 11.1191 10.8848 10.9824V10.8867C10.8757 10.7227 10.8529 10.5586 10.8164 10.3945C10.7891 10.2214 10.7526 10.0527 10.707 9.88867C10.6615 9.71549 10.625 9.54688 10.5977 9.38281C10.5885 9.33724 10.584 9.29167 10.584 9.24609C10.584 9.20052 10.5885 9.15495 10.5977 9.10938C10.6068 9.0638 10.6113 9.01823 10.6113 8.97266C10.6113 8.92708 10.6068 8.88151 10.5977 8.83594C10.5339 8.54427 10.4427 8.25716 10.3242 7.97461C10.2148 7.68294 10.0736 7.42318 9.90039 7.19531C9.72721 6.96745 9.52214 6.78516 9.28516 6.64844C9.05729 6.52083 8.79753 6.45703 8.50586 6.45703H8.45117C7.93164 6.47526 7.45768 6.62109 7.0293 6.89453C6.61003 7.16797 6.24544 7.47786 5.93555 7.82422C5.76237 8.11589 5.58919 8.41667 5.41602 8.72656C5.24284 9.02734 5.09245 9.35547 4.96484 9.71094C4.83724 10.0573 4.74154 10.431 4.67773 10.832C4.64128 11.069 4.62305 11.3151 4.62305 11.5703C4.62305 11.7526 4.63216 11.9395 4.65039 12.1309C5.19727 12.0124 5.72135 11.9076 6.22266 11.8164C6.72396 11.7161 7.2207 11.6341 7.71289 11.5703C8.21419 11.5065 8.72005 11.4564 9.23047 11.4199C9.63151 11.4017 10.0417 11.3926 10.4609 11.3926H10.8301ZM20.7969 17.4492C20.7878 17.75 20.7467 18.0189 20.6738 18.2559C20.61 18.502 20.5189 18.7207 20.4004 18.9121C20.291 19.1126 20.1543 19.2995 19.9902 19.4727C19.8353 19.6549 19.6621 19.8327 19.4707 20.0059C19.3796 20.0879 19.2975 20.1562 19.2246 20.2109C19.1608 20.2656 19.0879 20.3112 19.0059 20.3477C18.9329 20.3932 18.8464 20.4342 18.7461 20.4707C18.6458 20.5072 18.5228 20.5527 18.377 20.6074C18.2767 20.6439 18.1855 20.6849 18.1035 20.7305C18.0215 20.7852 17.944 20.8171 17.8711 20.8262C17.7617 20.8444 17.6523 20.8535 17.543 20.8535C17.4518 20.8535 17.3607 20.8444 17.2695 20.8262C17.069 20.8079 16.8685 20.776 16.668 20.7305C16.4674 20.6849 16.2624 20.6439 16.0527 20.6074C15.8522 20.571 15.6517 20.5527 15.4512 20.5527C15.2598 20.4525 15.082 20.3021 14.918 20.1016C14.7539 19.9102 14.6126 19.6914 14.4941 19.4453C14.3757 19.1992 14.2891 18.9395 14.2344 18.666C14.1797 18.4473 14.1523 18.2285 14.1523 18.0098C14.1523 17.9551 14.1569 17.9004 14.166 17.8457C14.1751 17.5814 14.2298 17.3307 14.3301 17.0938C14.4395 16.8568 14.599 16.6562 14.8086 16.4922C14.8633 16.4466 14.9316 16.4056 15.0137 16.3691C15.1048 16.3418 15.1868 16.3053 15.2598 16.2598C15.4147 16.1686 15.556 16.0775 15.6836 15.9863C15.8203 15.8861 15.9616 15.804 16.1074 15.7402C16.2624 15.6673 16.4355 15.6126 16.627 15.5762C16.7819 15.5488 16.9596 15.5352 17.1602 15.5352H17.3242C17.3516 15.4987 17.3652 15.4577 17.3652 15.4121C17.3652 15.3665 17.3561 15.321 17.3379 15.2754C17.3014 15.2025 17.2832 15.125 17.2832 15.043V14.9883C17.1374 14.9974 16.9915 15.002 16.8457 15.002C16.3809 15.002 15.9388 14.9427 15.5195 14.8242C14.9727 14.6784 14.5215 14.4551 14.166 14.1543C14.0202 13.9264 13.888 13.6667 13.7695 13.375C13.651 13.0833 13.5645 12.778 13.5098 12.459C13.4642 12.222 13.4414 11.9805 13.4414 11.7344V11.5156C13.4596 11.1966 13.5326 10.8913 13.6602 10.5996C13.8971 10.2806 14.1478 9.98438 14.4121 9.71094C14.6855 9.42839 14.9544 9.14583 15.2188 8.86328C15.4648 8.74479 15.7474 8.65365 16.0664 8.58984C16.3216 8.54427 16.5723 8.52148 16.8184 8.52148H16.9961C17.2969 8.53971 17.584 8.5944 17.8574 8.68555C18.14 8.77669 18.3724 8.90885 18.5547 9.08203C18.6458 9.09115 18.737 9.0957 18.8281 9.0957C18.9557 9.0957 19.0788 9.08659 19.1973 9.06836C19.3978 9.0319 19.5938 8.99544 19.7852 8.95898C19.9766 8.92253 20.1589 8.9043 20.332 8.9043C20.4961 8.9043 20.651 8.94987 20.7969 9.04102C20.806 9.0957 20.8105 9.14583 20.8105 9.19141C20.8105 9.28255 20.7969 9.36458 20.7695 9.4375C20.7331 9.55599 20.6647 9.63802 20.5645 9.68359C20.4824 9.67448 20.3867 9.66536 20.2773 9.65625H19.9355C19.8171 9.66536 19.6986 9.68359 19.5801 9.71094C19.4707 9.72917 19.375 9.76562 19.293 9.82031C19.5755 10.2487 19.7487 10.7044 19.8125 11.1875C19.8307 11.3424 19.8398 11.4974 19.8398 11.6523C19.8398 11.9805 19.7943 12.2995 19.7031 12.6094C19.5755 13.0651 19.3704 13.4798 19.0879 13.8535C18.8145 14.2181 18.4863 14.487 18.1035 14.6602C18.0944 14.7148 18.0898 14.7832 18.0898 14.8652C18.0898 14.9473 18.0898 15.0384 18.0898 15.1387C18.099 15.2298 18.1081 15.3255 18.1172 15.4258C18.1263 15.5169 18.1354 15.599 18.1445 15.6719C18.8372 15.7174 19.3887 15.9043 19.7988 16.2324C20.209 16.5605 20.5417 16.9661 20.7969 17.4492ZM18.7871 13.0195C18.9329 12.7734 19.0241 12.5182 19.0605 12.2539C19.0697 12.1536 19.0742 12.0488 19.0742 11.9395C19.0742 11.7845 19.0605 11.6341 19.0332 11.4883C18.9876 11.2331 18.9102 10.9824 18.8008 10.7363C18.7005 10.4902 18.5866 10.2624 18.459 10.0527C18.3314 9.99805 18.222 9.92969 18.1309 9.84766C18.0488 9.76562 17.9668 9.68815 17.8848 9.61523C17.8027 9.5332 17.7161 9.46029 17.625 9.39648C17.5339 9.33268 17.4199 9.29167 17.2832 9.27344C17.1465 9.25521 17.0143 9.24609 16.8867 9.24609C16.6497 9.24609 16.4173 9.28255 16.1895 9.35547C15.834 9.47396 15.5195 9.65625 15.2461 9.90234C14.9727 10.1393 14.7448 10.4219 14.5625 10.75C14.3893 11.0781 14.2799 11.4199 14.2344 11.7754C14.2253 11.8848 14.2207 11.9941 14.2207 12.1035C14.2207 12.3496 14.2572 12.5957 14.3301 12.8418C14.4395 13.1973 14.6445 13.5163 14.9453 13.7988C15.2734 13.9629 15.6517 14.0768 16.0801 14.1406C16.3079 14.1771 16.5495 14.1953 16.8047 14.1953C17.0143 14.1953 17.2331 14.1816 17.4609 14.1543C17.6979 13.9993 17.9395 13.8398 18.1855 13.6758C18.4316 13.5026 18.6322 13.2839 18.7871 13.0195ZM19.9766 17.4492C19.9036 17.2487 19.7578 17.071 19.5391 16.916C19.3203 16.7702 19.0605 16.6471 18.7598 16.5469C18.4681 16.4466 18.1582 16.3737 17.8301 16.3281C17.6296 16.3008 17.4336 16.2871 17.2422 16.2871C17.1328 16.2871 17.0234 16.2917 16.9141 16.3008C16.7044 16.319 16.5267 16.3646 16.3809 16.4375C16.235 16.5104 16.0983 16.5879 15.9707 16.6699C15.8522 16.7611 15.7337 16.8522 15.6152 16.9434C15.4967 17.0345 15.3646 17.112 15.2188 17.1758C15.0638 17.3945 14.9772 17.6361 14.959 17.9004C14.9499 17.9642 14.9453 18.028 14.9453 18.0918C14.9453 18.2923 14.9727 18.4837 15.0273 18.666C15.0911 18.9121 15.1868 19.14 15.3145 19.3496C15.4512 19.5592 15.6016 19.7188 15.7656 19.8281C16.0117 19.8737 16.2669 19.9193 16.5312 19.9648C16.7956 20.0104 17.0599 20.0332 17.3242 20.0332C17.3424 20.0423 17.3652 20.0469 17.3926 20.0469C17.6296 20.0469 17.8711 20.0195 18.1172 19.9648C18.3724 19.9193 18.6094 19.8281 18.8281 19.6914C18.9648 19.6094 19.1152 19.4818 19.2793 19.3086C19.4434 19.1354 19.5846 18.9395 19.7031 18.7207C19.8307 18.5111 19.9264 18.2923 19.9902 18.0645C20.0176 17.9642 20.0312 17.8639 20.0312 17.7637C20.0312 17.6543 20.013 17.5495 19.9766 17.4492Z" fill="#131313"/>
</svg>
