<svg width="24" height="24" viewBox="0 0 24 24" fill="none" xmlns="http://www.w3.org/2000/svg">
<path d="M6.12979 14.0039L5.48579 15.8939H6.32579C6.46579 15.8939 6.53579 15.9639 6.53579 16.1039V16.7899C6.53579 16.9299 6.46579 16.9999 6.32579 16.9999H3.34379C3.20379 16.9999 3.13379 16.9299 3.13379 16.7899V16.1039C3.13379 15.9639 3.20379 15.8939 3.34379 15.8939H4.16979L6.96979 7.6899C7.02579 7.55923 7.11912 7.4939 7.24979 7.4939H8.60779C8.73846 7.4939 8.83179 7.55923 8.88779 7.6899L11.7158 15.8939H12.6678C12.8078 15.8939 12.8778 15.9639 12.8778 16.1039V16.7899C12.8778 16.9299 12.8078 16.9999 12.6678 16.9999H9.15379C9.01379 16.9999 8.94379 16.9299 8.94379 16.7899V16.1039C8.94379 15.9639 9.01379 15.8939 9.15379 15.8939H10.0218L9.36379 14.0039H6.12979ZM7.73979 8.8379L6.40979 12.9539H9.05579L7.73979 8.8379ZM19.7418 11.2179V16.1879C19.7418 16.7852 19.7185 17.3406 19.6718 17.8539C19.5972 18.6472 19.3032 19.2632 18.7898 19.7019C18.2858 20.1406 17.5672 20.3599 16.6338 20.3599C15.7005 20.3599 14.9165 20.2199 14.2818 19.9399C14.1698 19.8932 14.1325 19.7999 14.1698 19.6599L14.4218 18.9179C14.4592 18.7872 14.5525 18.7499 14.7018 18.8059C15.2712 19.0392 15.8452 19.1559 16.4238 19.1559C17.0118 19.1559 17.4505 19.0159 17.7398 18.7359C18.0292 18.4559 18.1738 17.9612 18.1738 17.2519V16.1599C17.7632 16.8319 17.1005 17.1679 16.1858 17.1679C15.2712 17.1679 14.5712 16.8739 14.0858 16.2859C13.6098 15.6979 13.3718 14.8066 13.3718 13.6119C13.3718 12.4079 13.6518 11.4932 14.2118 10.8679C14.7812 10.2332 15.4905 9.9159 16.3398 9.9159C17.1985 9.9159 17.8892 10.2192 18.4118 10.8259L18.5518 10.2799C18.5985 10.1399 18.6825 10.0699 18.8038 10.0699H20.5118C20.6518 10.0699 20.7218 10.1399 20.7218 10.2799V11.0079C20.7218 11.1479 20.6518 11.2179 20.5118 11.2179H19.7418ZM18.1738 14.3819V11.8899C18.1365 11.8339 18.0758 11.7639 17.9918 11.6799C17.9172 11.5959 17.7445 11.4886 17.4738 11.3579C17.2125 11.2179 16.9278 11.1479 16.6198 11.1479C16.1252 11.1479 15.7238 11.3346 15.4158 11.7079C15.1078 12.0719 14.9538 12.6599 14.9538 13.4719C14.9538 14.2839 15.0658 14.9046 15.2898 15.3339C15.5138 15.7539 15.9478 15.9639 16.5918 15.9639C17.0025 15.9639 17.3665 15.8192 17.6838 15.5299C18.0105 15.2406 18.1738 14.8579 18.1738 14.3819Z" fill="#131313"/>
</svg>
