<svg width="24" height="24" viewBox="0 0 24 24" fill="none" xmlns="http://www.w3.org/2000/svg">
<path d="M3.55078 17L3.67383 16.2207L4.45312 15.9609L8.58203 9.48046L10.0996 8.72852L11.8223 15.9609L12.4922 16.2207L12.2871 17H8.17188L8.29492 16.2207L9.25195 15.9609L8.91016 14.3887L8.8418 13.8828L8.10352 10.957L8.5 11.2578L7.05078 13.8145L6.88672 14.2246L5.84766 15.9609L6.69531 16.2207L6.49023 17H3.55078ZM6.24414 14.8125L6.50391 13.7461C6.71354 13.7552 6.91862 13.7689 7.11914 13.7871C7.32878 13.8053 7.62044 13.8145 7.99414 13.8145C8.35872 13.8145 8.65495 13.8053 8.88281 13.7871C9.11979 13.7689 9.33854 13.7552 9.53906 13.7461L9.2793 14.7988C9.19727 14.7988 9.03776 14.7943 8.80078 14.7852C8.57292 14.776 8.22201 14.7715 7.74805 14.7715C7.27409 14.7715 6.92318 14.776 6.69531 14.7852C6.46745 14.7943 6.31706 14.8034 6.24414 14.8125ZM15.2402 20.1172C14.5293 20.1172 13.946 20.0352 13.4902 19.8711C13.0436 19.707 12.7155 19.5065 12.5059 19.2695C12.2962 19.0326 12.1914 18.8092 12.1914 18.5996C12.1914 18.3353 12.3281 18.0801 12.6016 17.834C12.875 17.597 13.3717 17.4238 14.0918 17.3145L14.7207 17.4785C14.6022 17.5423 14.4837 17.6608 14.3652 17.834C14.2559 18.0163 14.2012 18.2077 14.2012 18.4082C14.2012 18.6361 14.3151 18.8275 14.543 18.9824C14.7708 19.1465 15.1217 19.2285 15.5957 19.2285C15.8236 19.2285 16.0195 19.1966 16.1836 19.1328C16.3568 19.0781 16.4889 18.9915 16.5801 18.873C16.6803 18.7637 16.7305 18.627 16.7305 18.4629C16.7305 18.2897 16.6576 18.153 16.5117 18.0527C16.3659 17.9525 16.1061 17.8659 15.7324 17.793L14.3242 17.5059L14.2148 17.4512C13.8229 17.4056 13.513 17.3008 13.2852 17.1367C13.0664 16.9818 12.957 16.7676 12.957 16.4941C12.957 16.1113 13.153 15.7923 13.5449 15.5371C13.946 15.2819 14.4701 15.1087 15.1172 15.0176L15.4727 15.25C15.3542 15.2773 15.2357 15.3184 15.1172 15.373C15.0078 15.4277 14.9531 15.5052 14.9531 15.6055C14.9531 15.6693 14.9941 15.724 15.0762 15.7695C15.1582 15.806 15.2995 15.8516 15.5 15.9062L16.8672 16.2617C17.5508 16.4349 18.0339 16.6309 18.3164 16.8496C18.6081 17.0684 18.7539 17.4056 18.7539 17.8613C18.7539 18.2533 18.599 18.6178 18.2891 18.9551C17.9792 19.3014 17.5599 19.5794 17.0312 19.7891C16.5026 20.0078 15.9056 20.1172 15.2402 20.1172ZM15.9102 15.4277C15.1719 15.4277 14.5794 15.2682 14.1328 14.9492C13.6953 14.6302 13.4766 14.179 13.4766 13.5957C13.4766 13.0944 13.6178 12.6296 13.9004 12.2012C14.1921 11.7637 14.584 11.4128 15.0762 11.1484C15.5684 10.8841 16.1243 10.752 16.7441 10.752C17.1999 10.752 17.61 10.834 17.9746 10.998C18.3392 11.153 18.6263 11.3763 18.8359 11.668C19.0456 11.9505 19.1504 12.2878 19.1504 12.6797C19.1504 13.1719 19.0046 13.6276 18.7129 14.0469C18.4303 14.4661 18.043 14.8034 17.5508 15.0586C17.0677 15.3047 16.5208 15.4277 15.9102 15.4277ZM16.2246 14.4844C16.3704 14.4844 16.5026 14.4069 16.6211 14.252C16.7487 14.097 16.849 13.8828 16.9219 13.6094C17.0039 13.3359 17.0449 13.0306 17.0449 12.6934C17.0449 12.347 16.9902 12.0964 16.8809 11.9414C16.7806 11.7773 16.6667 11.6953 16.5391 11.6953C16.3841 11.6953 16.2428 11.7773 16.1152 11.9414C15.9876 12.0964 15.8874 12.3105 15.8145 12.584C15.7415 12.8574 15.7051 13.1582 15.7051 13.4863C15.7051 13.8236 15.7552 14.0742 15.8555 14.2383C15.9557 14.4023 16.0788 14.4844 16.2246 14.4844ZM20.0664 12.1875L17.8789 11.9551L17.7969 11.2441L20.3262 10.9434L20.0664 12.1875Z" fill="#131313"/>
</svg>
