<svg width="24" height="24" viewBox="0 0 24 24" fill="none" xmlns="http://www.w3.org/2000/svg">
<path d="M3.63184 16.041C3.59538 16.0046 3.57715 15.9362 3.57715 15.8359C3.57715 15.6719 3.58626 15.5898 3.60449 15.5898C3.67741 15.5898 3.78223 15.5716 3.91895 15.5352C4.06478 15.4987 4.2015 15.4531 4.3291 15.3984C4.46582 15.3346 4.55241 15.2708 4.58887 15.207C4.68001 15.0703 4.7666 14.9154 4.84863 14.7422C4.93066 14.5599 5.01725 14.3594 5.1084 14.1406L7.65137 7.98828C7.87012 7.43229 8.03874 7.10417 8.15723 7.00391C8.22103 6.9401 8.2985 6.9082 8.38965 6.9082C8.45345 6.9082 8.50814 6.93099 8.55371 6.97656L11.4248 14.1406C11.4977 14.3138 11.5661 14.487 11.6299 14.6602C11.7028 14.8242 11.7712 14.9837 11.835 15.1387C11.8714 15.2298 11.9535 15.3118 12.0811 15.3848C12.2087 15.4486 12.3408 15.4987 12.4775 15.5352C12.6143 15.5716 12.7191 15.5898 12.792 15.5898C12.8285 15.5898 12.8467 15.6719 12.8467 15.8359C12.8467 15.9362 12.8376 16.0046 12.8193 16.041L11.0967 15.959L9.31934 16.041C9.28288 16.0046 9.26465 15.918 9.26465 15.7812C9.26465 15.6536 9.28288 15.5898 9.31934 15.5898C9.42871 15.5898 9.5791 15.5625 9.77051 15.5078C9.96191 15.4531 10.0758 15.3893 10.1123 15.3164C10.1396 15.2617 10.1533 15.2025 10.1533 15.1387C10.1533 15.0475 10.1305 14.9245 10.085 14.7695C10.0394 14.6146 9.97559 14.4232 9.89355 14.1953L9.41504 12.9238C9.37858 12.8874 9.34668 12.8691 9.31934 12.8691C9.1735 12.86 9.00033 12.8555 8.7998 12.8555C8.6084 12.8464 8.38965 12.8418 8.14355 12.8418C7.65137 12.8418 7.13184 12.8555 6.58496 12.8828C6.53027 12.8828 6.50293 12.901 6.50293 12.9375L5.9834 14.209C5.89225 14.4368 5.82389 14.6283 5.77832 14.7832C5.74186 14.929 5.72363 15.0339 5.72363 15.0977C5.72363 15.207 5.77376 15.2982 5.87402 15.3711C5.92871 15.4076 6.01074 15.444 6.12012 15.4805C6.23861 15.5078 6.3571 15.5352 6.47559 15.5625C6.59408 15.5807 6.67611 15.5898 6.72168 15.5898C6.74902 15.599 6.7627 15.6628 6.7627 15.7812C6.7627 15.8451 6.75814 15.8997 6.74902 15.9453C6.74902 15.9818 6.74447 16.0137 6.73535 16.041C6.39811 16.0228 6.12012 16.0046 5.90137 15.9863C5.69173 15.9681 5.49577 15.959 5.31348 15.959C5.13118 15.959 4.91243 15.9635 4.65723 15.9727C4.40202 15.9818 4.06022 16.0046 3.63184 16.041ZM7.89746 12.1035C8.22559 12.1035 8.59928 12.0898 9.01855 12.0625L9.0459 12.0078L8.00684 9.27344L6.88574 12.0078C6.88574 12.0443 6.89486 12.0625 6.91309 12.0625C7.2321 12.0898 7.56022 12.1035 7.89746 12.1035ZM16.0869 19.0352C15.6494 19.0352 15.2393 18.9759 14.8564 18.8574C14.4827 18.748 14.1774 18.5794 13.9404 18.3516C13.7126 18.1237 13.5986 17.8503 13.5986 17.5312C13.5986 17.2669 13.7262 17.0117 13.9814 16.7656C14.2458 16.5195 14.5283 16.3464 14.8291 16.2461C14.5921 16.1732 14.3734 16.0365 14.1729 15.8359C13.9723 15.6263 13.8721 15.3848 13.8721 15.1113C13.8721 14.7285 14.2093 14.3229 14.8838 13.8945C14.7106 13.8125 14.5374 13.6803 14.3643 13.498C14.2002 13.3066 14.0635 13.0879 13.9541 12.8418C13.8538 12.5866 13.8037 12.3314 13.8037 12.0762C13.8037 11.6387 13.9131 11.265 14.1318 10.9551C14.3506 10.6452 14.6423 10.4082 15.0068 10.2441C15.3805 10.071 15.7952 9.98438 16.251 9.98438C16.5973 9.98438 16.9756 10.0436 17.3857 10.1621C17.7959 10.2806 18.1605 10.3398 18.4795 10.3398H19.2588C19.277 10.3398 19.3089 10.3991 19.3545 10.5176C19.4001 10.6361 19.4229 10.7272 19.4229 10.791C19.4229 10.9186 19.3955 10.9824 19.3408 10.9824H18.4521C18.4157 10.9824 18.3975 10.9961 18.3975 11.0234L18.5205 11.3789C18.6025 11.6068 18.6436 11.8255 18.6436 12.0352C18.6436 12.3906 18.5387 12.7324 18.3291 13.0605C18.1286 13.3796 17.8506 13.6393 17.4951 13.8398C17.1396 14.0404 16.734 14.1406 16.2783 14.1406C16.1143 14.1406 15.9593 14.1361 15.8135 14.127C15.6768 14.1178 15.5492 14.1042 15.4307 14.0859C15.3213 14.1315 15.221 14.2181 15.1299 14.3457C15.0387 14.4642 14.9932 14.5736 14.9932 14.6738C14.9932 14.8014 15.0752 14.8971 15.2393 14.9609C15.4033 15.0247 15.6084 15.0703 15.8545 15.0977C16.1097 15.1159 16.3558 15.125 16.5928 15.125H16.7432C17.6546 15.125 18.32 15.2435 18.7393 15.4805C19.1676 15.7174 19.3818 16.0592 19.3818 16.5059C19.391 16.9616 19.2406 17.3809 18.9307 17.7637C18.6208 18.1465 18.2152 18.4518 17.7139 18.6797C17.2126 18.9167 16.6702 19.0352 16.0869 19.0352ZM16.251 13.5527C16.5882 13.5527 16.8343 13.4251 16.9893 13.1699C17.1533 12.9056 17.2354 12.582 17.2354 12.1992C17.2354 11.7161 17.1442 11.3242 16.9619 11.0234C16.7796 10.7227 16.5153 10.5723 16.1689 10.5723C15.8408 10.5723 15.5993 10.7135 15.4443 10.9961C15.2894 11.2786 15.2119 11.6022 15.2119 11.9668C15.2119 12.4134 15.3031 12.7917 15.4854 13.1016C15.6676 13.4023 15.9229 13.5527 16.251 13.5527ZM16.4014 18.3789C16.9118 18.3789 17.3265 18.2604 17.6455 18.0234C17.9736 17.7865 18.1377 17.4902 18.1377 17.1348C18.1377 16.8158 17.9098 16.6061 17.4541 16.5059C17.2262 16.4512 16.971 16.4102 16.6885 16.3828C16.4059 16.3646 16.1462 16.3555 15.9092 16.3555C15.7633 16.3555 15.5947 16.3783 15.4033 16.4238C15.221 16.4694 15.0615 16.556 14.9248 16.6836C14.7881 16.8112 14.7197 16.9935 14.7197 17.2305C14.7197 17.4492 14.7972 17.6452 14.9521 17.8184C15.1162 17.9915 15.3258 18.1283 15.5811 18.2285C15.8454 18.3288 16.1188 18.3789 16.4014 18.3789Z" fill="#131313"/>
</svg>
