<svg width="24" height="24" viewBox="0 0 24 24" fill="none" xmlns="http://www.w3.org/2000/svg">
<path d="M4.45996 17L4.52832 16.5352L5.25293 16.3438L9.58691 9.15234L10.3525 8.72852L11.6787 16.3438L12.3213 16.5352L12.1982 17H9.69629L9.76465 16.5352L10.626 16.3438L10.2705 14.2383L10.2021 13.8281L9.53223 9.97266L9.84668 9.71288L7.46777 13.8418L7.22168 14.252L6.03223 16.3438L6.81152 16.5352L6.70215 17H4.45996ZM6.81152 14.416L6.94824 13.7461C7.12142 13.7552 7.37207 13.7643 7.7002 13.7734C8.02832 13.7826 8.42025 13.7871 8.87598 13.7871C9.32259 13.7871 9.70996 13.7826 10.0381 13.7734C10.3662 13.7643 10.6123 13.7552 10.7764 13.7461L10.626 14.416C10.2705 14.4069 9.92871 14.4023 9.60059 14.4023C9.28158 14.3932 8.99447 14.3887 8.73926 14.3887C8.48405 14.3887 8.19694 14.3932 7.87793 14.4023C7.56803 14.4023 7.21257 14.4069 6.81152 14.416ZM14.8096 20.1172C14.3083 20.1172 13.8708 20.0534 13.4971 19.9258C13.1325 19.8073 12.8499 19.6387 12.6494 19.4199C12.4489 19.2012 12.3486 18.946 12.3486 18.6543C12.3486 18.2897 12.5127 17.9525 12.8408 17.6426C13.1598 17.3418 13.6064 17.0911 14.1807 16.8906L14.6592 16.9863C14.1943 17.2142 13.8434 17.4466 13.6064 17.6836C13.3786 17.9297 13.2646 18.2077 13.2646 18.5176C13.2646 18.8275 13.4014 19.0872 13.6748 19.2969C13.9482 19.5065 14.3675 19.6113 14.9326 19.6113C15.3519 19.6113 15.7256 19.543 16.0537 19.4062C16.391 19.2786 16.6507 19.1009 16.833 18.873C17.0244 18.6452 17.1201 18.4036 17.1201 18.1484C17.1201 17.9206 17.0426 17.752 16.8877 17.6426C16.7327 17.5332 16.432 17.4329 15.9854 17.3418L14.3721 17L14.208 16.9453C13.8981 16.8815 13.6657 16.7767 13.5107 16.6309C13.3558 16.485 13.2783 16.321 13.2783 16.1387C13.2783 15.9199 13.4014 15.6966 13.6475 15.4688C13.9027 15.2409 14.3083 15.0495 14.8643 14.8945L15.0146 15.1816C14.7412 15.2546 14.5452 15.3548 14.4268 15.4824C14.3083 15.61 14.249 15.7285 14.249 15.8379C14.249 15.9382 14.2855 16.0156 14.3584 16.0703C14.4313 16.125 14.5817 16.1751 14.8096 16.2207L16.4502 16.6035C16.9697 16.7311 17.3434 16.8906 17.5713 17.082C17.7992 17.2734 17.9131 17.5332 17.9131 17.8613C17.9131 18.2624 17.7673 18.6361 17.4756 18.9824C17.193 19.3288 16.8148 19.6022 16.3408 19.8027C15.8669 20.0124 15.3564 20.1172 14.8096 20.1172ZM15.5889 15.2773C15.0329 15.2773 14.5863 15.127 14.249 14.8262C13.9118 14.5254 13.7432 14.1335 13.7432 13.6504C13.7432 13.1673 13.8662 12.7344 14.1123 12.3516C14.3584 11.9596 14.6774 11.6497 15.0693 11.4219C15.4704 11.1849 15.8988 11.0664 16.3545 11.0664C16.7191 11.0664 17.0335 11.1393 17.2979 11.2852C17.5622 11.431 17.7627 11.627 17.8994 11.873C18.0452 12.1191 18.1182 12.3971 18.1182 12.707C18.1182 13.1719 17.9997 13.6003 17.7627 13.9922C17.5257 14.3841 17.2158 14.6986 16.833 14.9355C16.4502 15.1634 16.0355 15.2773 15.5889 15.2773ZM15.6982 14.7988C15.9717 14.7988 16.2178 14.7077 16.4365 14.5254C16.6644 14.334 16.8467 14.0788 16.9834 13.7598C17.1201 13.4408 17.1885 13.0853 17.1885 12.6934C17.1885 12.3197 17.1064 12.0326 16.9424 11.832C16.7874 11.6224 16.5732 11.5176 16.2998 11.5176C16.0173 11.5176 15.7575 11.6133 15.5205 11.8047C15.2835 11.9961 15.0921 12.2513 14.9463 12.5703C14.8096 12.8893 14.7412 13.2357 14.7412 13.6094C14.7412 13.9831 14.8324 14.2747 15.0146 14.4844C15.1969 14.694 15.4248 14.7988 15.6982 14.7988ZM19.0889 11.9688L17.6943 11.873L17.1611 11.3672L19.2666 11.1621L19.0889 11.9688Z" fill="#131313"/>
</svg>
