<svg width="24" height="24" viewBox="0 0 24 24" fill="none" xmlns="http://www.w3.org/2000/svg">
<path d="M5.43143 7.75995V7.19995H8.76343L11.5494 16.44H12.2494V17H8.63743V16.44H9.44943L8.93143 14.718H5.12343L4.61943 16.44H5.43143V17H3.06543V16.44H3.76543L6.38343 7.75995H5.43143ZM7.01343 8.36195L5.31943 14.088H8.73543L7.01343 8.36195ZM18.1189 18.848H15.5289C14.1569 18.848 13.4709 18.274 13.4709 17.126C13.4709 16.5007 13.8163 15.796 14.5069 15.012C13.7509 14.4613 13.3729 13.7007 13.3729 12.73C13.3729 11.8993 13.6763 11.204 14.2829 10.644C14.8896 10.0747 15.6829 9.78995 16.6629 9.78995C17.3723 9.78995 18.0023 9.95328 18.5529 10.28C18.9543 9.91595 19.2296 9.43995 19.3789 8.85195L19.9249 8.99195C19.7569 9.64528 19.4489 10.1867 19.0009 10.616C19.6356 11.1947 19.9529 11.8993 19.9529 12.73C19.9529 13.5607 19.6496 14.2607 19.0429 14.83C18.4363 15.39 17.6429 15.67 16.6629 15.67C15.9909 15.67 15.4076 15.5347 14.9129 15.264C14.5863 15.7213 14.4229 16.0667 14.4229 16.3C14.4229 16.7667 14.6936 17 15.2349 17H17.8249C19.1969 17 19.8829 17.504 19.8829 18.512C19.8829 19.2307 19.5423 19.9633 18.8609 20.71L18.5249 20.388C18.7956 20.0613 18.9309 19.7813 18.9309 19.548C18.9309 19.324 18.8563 19.1513 18.7069 19.03C18.5669 18.9087 18.3709 18.848 18.1189 18.848ZM15.8229 11.036C15.6363 11.4747 15.5429 12.0393 15.5429 12.73C15.5429 13.4207 15.6363 13.9853 15.8229 14.424C16.0189 14.8627 16.3036 15.082 16.6769 15.082C17.0503 15.082 17.3303 14.8627 17.5169 14.424C17.7129 13.9853 17.8109 13.4207 17.8109 12.73C17.8109 12.0393 17.7129 11.4747 17.5169 11.036C17.3303 10.5973 17.0503 10.378 16.6769 10.378C16.3036 10.378 16.0189 10.5973 15.8229 11.036Z" fill="#131313"/>
</svg>
