<svg width="24" height="24" viewBox="0 0 24 24" fill="none" xmlns="http://www.w3.org/2000/svg">
<path d="M4.6436 16.9999L6.9116 9.11792H10.1176L12.4696 16.9999H10.3836L9.8656 15.0259H7.2476L6.7436 16.9999H4.6436ZM8.5496 9.92992L7.6256 13.5419H9.4876L8.5496 9.92992ZM14.9731 19.7859V17.9379H17.1711V16.2159H17.1431C17.1431 16.2159 17.1104 16.2626 17.0451 16.3559C16.9891 16.4492 16.8958 16.5566 16.7651 16.6779C16.6344 16.7992 16.4571 16.9066 16.2331 16.9999C16.0091 17.0932 15.7291 17.1399 15.3931 17.1399C14.8144 17.1399 14.3571 17.0232 14.0211 16.7899C13.6851 16.5472 13.4471 16.2066 13.3071 15.7679C13.1671 15.3292 13.0971 14.8112 13.0971 14.2139C13.0971 13.2526 13.2651 12.5106 13.6011 11.9879C13.9371 11.4652 14.5344 11.2039 15.3931 11.2039C15.7478 11.2039 16.0371 11.2599 16.2611 11.3719C16.4944 11.4746 16.6718 11.5959 16.7931 11.7359C16.9238 11.8759 17.0124 12.0019 17.0591 12.1139C17.1151 12.2166 17.1431 12.2679 17.1431 12.2679H17.1711V11.2039H19.1871V16.9999C19.1871 17.7186 19.0891 18.2786 18.8931 18.6799C18.7064 19.0906 18.4218 19.3752 18.0391 19.5339C17.6658 19.7019 17.1991 19.7859 16.6391 19.7859H14.9731ZM16.0791 15.5299C16.4151 15.5299 16.6578 15.4692 16.8071 15.3479C16.9658 15.2172 17.0638 15.0539 17.1011 14.8579C17.1478 14.6526 17.1711 14.4379 17.1711 14.2139C17.1711 13.9899 17.1478 13.7799 17.1011 13.5839C17.0638 13.3786 16.9658 13.2152 16.8071 13.0939C16.6578 12.9726 16.4151 12.9119 16.0791 12.9119C15.7524 12.9119 15.5098 12.9726 15.3511 13.0939C15.1924 13.2152 15.0898 13.3786 15.0431 13.5839C15.0058 13.7799 14.9871 13.9899 14.9871 14.2139C14.9871 14.4379 15.0058 14.6526 15.0431 14.8579C15.0898 15.0539 15.1924 15.2172 15.3511 15.3479C15.5098 15.4692 15.7524 15.5299 16.0791 15.5299Z" fill="#131313"/>
</svg>
