<svg width="24" height="24" viewBox="0 0 24 24" fill="none" xmlns="http://www.w3.org/2000/svg">
<path d="M4.4789 16.9999L6.9989 9.11792H9.3369L11.9269 16.9999H10.4009L9.7289 14.7739H6.6629L5.9909 16.9999H4.4789ZM8.1889 9.71992L6.9989 13.6679H9.3929L8.1889 9.71992ZM14.2706 19.5619V18.2179H16.7906V15.9779H16.7626C16.7532 15.9966 16.7112 16.0666 16.6366 16.1879C16.5712 16.3092 16.4639 16.4446 16.3146 16.5939C16.1652 16.7432 15.9692 16.8739 15.7266 16.9859C15.4932 17.0886 15.1992 17.1399 14.8446 17.1399C13.9952 17.1399 13.3839 16.8692 13.0106 16.3279C12.6372 15.7866 12.4506 15.0819 12.4506 14.2139C12.4506 13.3086 12.6372 12.5899 13.0106 12.0579C13.3932 11.5166 14.0046 11.2459 14.8446 11.2459C15.2179 11.2459 15.5259 11.3066 15.7686 11.4279C16.0112 11.5399 16.2026 11.6752 16.3426 11.8339C16.4826 11.9926 16.5806 12.1372 16.6366 12.2679C16.7019 12.3986 16.7392 12.4779 16.7486 12.5059H16.7766L16.7906 11.2459H18.2606V17.4899C18.2606 18.2552 18.1066 18.7919 17.7986 19.0999C17.4999 19.4079 17.0332 19.5619 16.3986 19.5619H14.2706ZM15.2926 15.9359C15.8152 15.9359 16.1932 15.7772 16.4266 15.4599C16.6599 15.1332 16.7766 14.7179 16.7766 14.2139C16.7766 13.7286 16.6646 13.3272 16.4406 13.0099C16.2166 12.6832 15.8432 12.5199 15.3206 12.5199C14.9379 12.5199 14.6392 12.6039 14.4246 12.7719C14.2099 12.9306 14.0559 13.1406 13.9626 13.4019C13.8786 13.6539 13.8366 13.9246 13.8366 14.2139C13.8366 14.5032 13.8739 14.7832 13.9486 15.0539C14.0326 15.3152 14.1772 15.5299 14.3826 15.6979C14.5972 15.8566 14.9006 15.9359 15.2926 15.9359Z" fill="#131313"/>
</svg>
