<svg width="24" height="24" viewBox="0 0 24 24" fill="none" xmlns="http://www.w3.org/2000/svg">
<path d="M6.25781 15.2412C6.2487 15.2777 6.24414 15.305 6.24414 15.3232C6.24414 15.4281 6.32389 15.5078 6.4834 15.5625C6.6429 15.6172 6.90039 15.665 7.25586 15.7061V16H4.41211V15.7061C4.76758 15.6423 5.02507 15.5807 5.18457 15.5215C5.34863 15.4622 5.45117 15.3688 5.49219 15.2412L8.03516 7.54395C8.1263 7.44368 8.23796 7.35254 8.37012 7.27051C8.50684 7.18392 8.66178 7.09277 8.83496 6.99707L11.7061 15.2412C11.7516 15.3734 11.8405 15.4759 11.9727 15.5488C12.1094 15.6217 12.319 15.6742 12.6016 15.7061V16H9.7168V15.7061C10.0267 15.6878 10.2523 15.6536 10.3936 15.6035C10.5348 15.5488 10.6055 15.4668 10.6055 15.3574C10.6055 15.321 10.5986 15.2822 10.585 15.2412L9.80566 12.958H7.0166L6.25781 15.2412ZM8.39062 8.8291L7.22168 12.3428H9.59375L8.39062 8.8291ZM15.6914 13.9834C15.5 14.1429 15.3564 14.2865 15.2607 14.4141C15.165 14.5371 15.1172 14.6191 15.1172 14.6602C15.1172 14.7832 15.2425 14.8926 15.4932 14.9883C15.7438 15.084 16.2018 15.1706 16.8672 15.248C17.7786 15.3483 18.4258 15.542 18.8086 15.8291C19.1914 16.1162 19.3828 16.4466 19.3828 16.8203C19.3828 17.2988 19.2119 17.7363 18.8701 18.1328C18.5283 18.5339 18.0908 18.8483 17.5576 19.0762C17.0244 19.304 16.4867 19.418 15.9443 19.418C15.484 19.418 15.0238 19.3519 14.5635 19.2197C14.1032 19.0876 13.7204 18.8825 13.415 18.6045C13.1097 18.3265 12.957 17.9801 12.957 17.5654C12.957 17.3831 13.0026 17.2031 13.0938 17.0254C13.1895 16.8522 13.3717 16.6562 13.6406 16.4375C13.9095 16.2188 14.29 15.9772 14.7822 15.7129C14.2581 15.526 13.9961 15.2731 13.9961 14.9541C13.9961 14.8538 14.0667 14.7171 14.208 14.5439C14.3493 14.3662 14.6068 14.1475 14.9805 13.8877C14.5111 13.7601 14.1351 13.5208 13.8525 13.1699C13.5745 12.8145 13.4355 12.3861 13.4355 11.8848C13.4355 11.4518 13.5609 11.0485 13.8115 10.6748C14.0622 10.2965 14.3903 9.99577 14.7959 9.77246C15.2061 9.54915 15.6299 9.4375 16.0674 9.4375C16.3317 9.4375 16.5846 9.47624 16.8262 9.55371C17.0723 9.63118 17.2933 9.74056 17.4893 9.88184C17.9085 9.84082 18.2594 9.78385 18.542 9.71094C18.8291 9.63346 19.1071 9.54232 19.376 9.4375L19.5127 9.64258C19.499 9.67448 19.4717 9.74056 19.4307 9.84082C19.3896 9.94108 19.3441 10.0299 19.2939 10.1074C19.2438 10.1849 19.1868 10.2578 19.123 10.3262C18.7539 10.39 18.3962 10.4287 18.0498 10.4424C18.3005 10.8024 18.4258 11.1943 18.4258 11.6182C18.4258 12.0648 18.2959 12.4704 18.0361 12.835C17.7764 13.195 17.4368 13.4775 17.0176 13.6826C16.5983 13.8831 16.1654 13.9834 15.7188 13.9834H15.6914ZM15.5957 10.1211C15.4316 10.1211 15.2562 10.1758 15.0693 10.2852C14.8825 10.3945 14.723 10.554 14.5908 10.7637C14.4587 10.9688 14.3926 11.2126 14.3926 11.4951C14.3926 11.8278 14.4609 12.1286 14.5977 12.3975C14.7344 12.6618 14.9417 12.8737 15.2197 13.0332C15.5023 13.1882 15.8509 13.2656 16.2656 13.2656C16.4525 13.2656 16.6393 13.2132 16.8262 13.1084C17.013 12.999 17.1657 12.8418 17.2842 12.6367C17.4072 12.4271 17.4688 12.181 17.4688 11.8984C17.4688 11.5703 17.3958 11.2718 17.25 11.0029C17.1087 10.7295 16.8968 10.5153 16.6143 10.3604C16.3317 10.2008 15.9922 10.1211 15.5957 10.1211ZM15.4043 15.8906C14.9987 16.1094 14.6911 16.3053 14.4814 16.4785C14.2764 16.6517 14.1419 16.7998 14.0781 16.9229C14.0143 17.0505 13.9824 17.1758 13.9824 17.2988C13.9824 17.5495 14.0895 17.7819 14.3037 17.9961C14.5225 18.2103 14.8096 18.3812 15.165 18.5088C15.5251 18.6364 15.9102 18.7002 16.3203 18.7002C16.7214 18.7002 17.0768 18.6296 17.3867 18.4883C17.6966 18.3516 17.9359 18.1602 18.1045 17.9141C18.2731 17.668 18.3574 17.3877 18.3574 17.0732C18.3574 16.891 18.2982 16.7337 18.1797 16.6016C18.0612 16.474 17.8493 16.36 17.5439 16.2598C17.2432 16.1641 16.8262 16.0866 16.293 16.0273C15.974 15.9954 15.6777 15.9499 15.4043 15.8906Z" fill="#131313"/>
</svg>
