<svg width="24" height="24" viewBox="0 0 24 24" fill="none" xmlns="http://www.w3.org/2000/svg">
<path d="M10.5234 16.9999L9.54345 14.3259H5.58145L4.69945 16.9999H3.64945L7.03745 7.4519H8.01745L11.5034 16.9999H10.5234ZM5.90345 13.4579H9.22145L7.51345 8.8239L5.90345 13.4579ZM18.6429 10.4479V16.7479C18.6429 17.3359 18.5216 17.8586 18.2789 18.3159C18.0362 18.7826 17.6956 19.1466 17.2569 19.4079C16.8182 19.6692 16.3189 19.7999 15.7589 19.7999H13.0429V18.9319H15.7589C16.3282 18.9319 16.7902 18.7266 17.1449 18.3159C17.5089 17.9052 17.6909 17.3826 17.6909 16.7479V16.0339C17.4202 16.4072 17.0889 16.7012 16.6969 16.9159C16.3049 17.1212 15.8756 17.2239 15.4089 17.2239C14.7836 17.2239 14.2236 17.0746 13.7289 16.7759C13.2342 16.4772 12.8469 16.0619 12.5669 15.5299C12.2869 14.9979 12.1469 14.3912 12.1469 13.7099C12.1469 13.0379 12.2822 12.4406 12.5529 11.9179C12.8329 11.3859 13.2156 10.9706 13.7009 10.6719C14.1956 10.3732 14.7556 10.2239 15.3809 10.2239C15.8569 10.2239 16.2909 10.3312 16.6829 10.5459C17.0842 10.7512 17.4202 11.0452 17.6909 11.4279V10.4479H18.6429ZM15.3809 16.3559C15.8289 16.3559 16.2256 16.2439 16.5709 16.0199C16.9256 15.7959 17.2009 15.4832 17.3969 15.0819C17.5929 14.6806 17.6909 14.2279 17.6909 13.7239C17.6909 13.2199 17.5929 12.7672 17.3969 12.3659C17.2009 11.9646 16.9256 11.6519 16.5709 11.4279C16.2256 11.2039 15.8289 11.0919 15.3809 11.0919C14.9422 11.0919 14.5502 11.2039 14.2049 11.4279C13.8596 11.6519 13.5889 11.9646 13.3929 12.3659C13.1969 12.7579 13.0989 13.2059 13.0989 13.7099C13.0989 14.2232 13.1969 14.6806 13.3929 15.0819C13.5889 15.4832 13.8596 15.7959 14.2049 16.0199C14.5502 16.2439 14.9422 16.3559 15.3809 16.3559Z" fill="#131313"/>
</svg>
