<svg width="24" height="24" viewBox="0 0 24 24" fill="none" xmlns="http://www.w3.org/2000/svg">
<path d="M2.95147 17L7.71147 7.19995H9.11147L10.4275 17H9.19547L8.88747 14.564H5.45747L4.32347 17H2.95147ZM8.13147 8.85195L5.91947 13.584H8.77547L8.18747 8.85195H8.13147ZM14.734 20.248C13.8567 20.248 13.152 20.0753 12.62 19.73C12.088 19.394 11.822 18.904 11.822 18.26C11.822 17.896 11.906 17.5787 12.074 17.308C12.2513 17.0467 12.494 16.818 12.802 16.622C12.5593 16.426 12.438 16.16 12.438 15.824C12.438 15.6467 12.4707 15.474 12.536 15.306C12.6107 15.138 12.7273 14.9747 12.886 14.816L13.684 14.074C13.4133 13.7007 13.278 13.2713 13.278 12.786C13.278 12.226 13.4087 11.7313 13.67 11.302C13.9313 10.8633 14.2953 10.518 14.762 10.266C15.2287 10.014 15.7747 9.88795 16.4 9.88795C16.764 9.88795 17.0953 9.94395 17.394 10.056H20.096L19.956 10.938L18.626 10.98L18.598 11.162C18.7287 11.442 18.794 11.7453 18.794 12.072C18.794 12.6227 18.6633 13.1173 18.402 13.556C18.1407 13.9853 17.772 14.326 17.296 14.578C16.8293 14.83 16.2833 14.956 15.658 14.956C15.406 14.956 15.1727 14.9327 14.958 14.886C14.7527 14.83 14.5613 14.7553 14.384 14.662L13.768 15.264C13.656 15.376 13.6 15.4927 13.6 15.614C13.6 15.7913 13.726 15.88 13.978 15.88H15.812C16.568 15.88 17.1653 16.034 17.604 16.342C18.052 16.65 18.276 17.1073 18.276 17.714C18.276 18.19 18.1407 18.6193 17.87 19.002C17.5993 19.3847 17.198 19.688 16.666 19.912C16.1433 20.136 15.4993 20.248 14.734 20.248ZM15.77 13.948C16.33 13.948 16.7827 13.78 17.128 13.444C17.4733 13.0987 17.646 12.674 17.646 12.17C17.646 11.7967 17.5153 11.4933 17.254 11.26C17.002 11.0267 16.6753 10.91 16.274 10.91C15.714 10.91 15.2613 11.078 14.916 11.414C14.58 11.7407 14.412 12.156 14.412 12.66C14.412 13.052 14.538 13.3647 14.79 13.598C15.042 13.8313 15.3687 13.948 15.77 13.948ZM12.998 18.092C12.998 18.4653 13.166 18.7453 13.502 18.932C13.8473 19.128 14.3 19.226 14.86 19.226C15.4947 19.226 16.022 19.1047 16.442 18.862C16.8713 18.6193 17.086 18.2787 17.086 17.84C17.086 17.56 16.9647 17.322 16.722 17.126C16.4887 16.9393 16.0593 16.846 15.434 16.846H13.81C13.558 17.0047 13.3573 17.1913 13.208 17.406C13.068 17.6207 12.998 17.8493 12.998 18.092Z" fill="#131313"/>
</svg>
