<svg width="24" height="24" viewBox="0 0 24 24" fill="none" xmlns="http://www.w3.org/2000/svg">
<path d="M3.38153 16.9999V16.8599L3.73153 16.7339C3.9182 16.6592 4.06286 16.5706 4.16553 16.4679C4.2682 16.3559 4.3522 16.2019 4.41753 16.0059L7.30153 7.73193H8.49153L11.3335 16.0619C11.4082 16.2672 11.4922 16.4259 11.5855 16.5379C11.6789 16.6406 11.8235 16.7292 12.0195 16.8039L12.1875 16.8599V16.9999H8.63153V16.8599L8.84153 16.7899C9.03753 16.7152 9.1542 16.6126 9.19153 16.4819C9.2382 16.3419 9.23353 16.1786 9.17753 15.9919L8.51953 13.9759H5.41153L4.73953 15.9499C4.6742 16.1552 4.65086 16.3186 4.66953 16.4399C4.69753 16.5612 4.80953 16.6592 5.00553 16.7339L5.31353 16.8599V16.9999H3.38153ZM5.50953 13.6959H8.43553L7.02153 9.34193L5.50953 13.6959ZM15.625 14.5779C14.981 14.5779 14.435 14.4706 13.987 14.2559V14.7319C13.987 15.0212 14.1316 15.1939 14.421 15.2499L17.053 15.7399C17.4916 15.8239 17.8883 15.9359 18.243 16.0759C18.5976 16.2066 18.8823 16.3979 19.097 16.6499C19.3116 16.8926 19.419 17.2286 19.419 17.6579C19.419 18.1152 19.2696 18.5352 18.971 18.9179C18.6723 19.3099 18.229 19.6226 17.641 19.8559C17.0623 20.0986 16.339 20.2199 15.471 20.2199C14.7243 20.2199 14.1316 20.1406 13.693 19.9819C13.2543 19.8326 12.9416 19.6366 12.755 19.3939C12.5776 19.1512 12.489 18.8946 12.489 18.6239C12.489 18.2879 12.601 17.9472 12.825 17.6019C13.0583 17.2659 13.343 16.9952 13.679 16.7899C13.3896 16.6779 13.1796 16.5332 13.049 16.3559C12.9183 16.1786 12.853 15.9872 12.853 15.7819C12.853 15.5952 12.8996 15.4226 12.993 15.2639C13.0956 15.0959 13.217 14.9279 13.357 14.7599L13.819 14.1719C13.1376 13.7799 12.797 13.1639 12.797 12.3239C12.797 11.6519 13.035 11.1059 13.511 10.6859C13.9963 10.2659 14.7056 10.0559 15.639 10.0559C16.115 10.0559 16.5303 10.1119 16.885 10.2239C17.249 10.3359 17.5476 10.4946 17.781 10.6999C18.0796 10.6532 18.3596 10.5786 18.621 10.4759C18.8916 10.3639 19.1343 10.2146 19.349 10.0279L19.545 10.1679V10.8819H17.963C18.299 11.2552 18.467 11.7359 18.467 12.3239C18.467 12.9772 18.2243 13.5186 17.739 13.9479C17.263 14.3679 16.5583 14.5779 15.625 14.5779ZM15.611 14.2979C15.9843 14.2979 16.255 14.1439 16.423 13.8359C16.6003 13.5279 16.689 13.0146 16.689 12.2959C16.689 11.5772 16.6003 11.0732 16.423 10.7839C16.255 10.4852 15.9936 10.3359 15.639 10.3359C15.2936 10.3359 15.0323 10.4899 14.855 10.7979C14.6776 11.0966 14.589 11.6052 14.589 12.3239C14.589 13.0426 14.6683 13.5512 14.827 13.8499C14.995 14.1486 15.2563 14.2979 15.611 14.2979ZM13.525 18.1759C13.525 18.7266 13.693 19.1419 14.029 19.4219C14.3743 19.7019 14.9156 19.8419 15.653 19.8419C16.4276 19.8419 17.011 19.7159 17.403 19.4639C17.795 19.2119 17.991 18.8572 17.991 18.3999C17.991 18.1386 17.893 17.9286 17.697 17.7699C17.5103 17.6112 17.1883 17.4899 16.731 17.4059L14.197 16.9299C14.1223 16.9112 14.0476 16.8926 13.973 16.8739C13.8423 17.0606 13.735 17.2706 13.651 17.5039C13.567 17.7466 13.525 17.9706 13.525 18.1759Z" fill="#131313"/>
</svg>
