<svg width="24" height="24" viewBox="0 0 24 24" fill="none" xmlns="http://www.w3.org/2000/svg">
<path d="M3.39488 17.0001V16.7061L3.77288 16.5941C3.96888 16.5381 4.11821 16.4541 4.22087 16.3421C4.33288 16.2301 4.42154 16.0761 4.48688 15.8801L7.31488 7.7041H8.47688L11.2909 15.9361C11.3655 16.1414 11.4495 16.3001 11.5429 16.4121C11.6362 16.5148 11.7855 16.5988 11.9909 16.6641L12.2009 16.7201V17.0001H8.64488V16.7201L8.88288 16.6501C9.08821 16.5848 9.20954 16.4821 9.24688 16.3421C9.29354 16.2021 9.28421 16.0294 9.21888 15.8241L8.63088 14.0181H5.53688L4.93488 15.7961C4.86954 16.0014 4.85088 16.1694 4.87888 16.3001C4.90688 16.4308 5.02354 16.5334 5.22888 16.6081L5.53688 16.7061V17.0001H3.39488ZM5.67688 13.6121H8.50488L7.13288 9.3981L5.67688 13.6121ZM15.6383 14.6061C15.0223 14.6061 14.495 14.5034 14.0563 14.2981V14.8021C14.0563 15.0821 14.1963 15.2501 14.4763 15.3061L16.9683 15.7681C17.4443 15.8614 17.8643 15.9781 18.2283 16.1181C18.5923 16.2488 18.877 16.4401 19.0823 16.6921C19.2876 16.9348 19.3903 17.2661 19.3903 17.6861C19.3903 18.1341 19.241 18.5494 18.9423 18.9321C18.653 19.3241 18.219 19.6368 17.6403 19.8701C17.071 20.1128 16.357 20.2341 15.4983 20.2341C14.761 20.2341 14.173 20.1548 13.7343 19.9961C13.305 19.8468 12.997 19.6508 12.8103 19.4081C12.6236 19.1654 12.5303 18.9041 12.5303 18.6241C12.5303 18.2881 12.6423 17.9521 12.8663 17.6161C13.0996 17.2801 13.3983 17.0001 13.7623 16.7761C13.193 16.5614 12.9083 16.2208 12.9083 15.7541C12.9083 15.5768 12.9503 15.4134 13.0343 15.2641C13.1183 15.1148 13.221 14.9654 13.3423 14.8161L13.8463 14.1861C13.1743 13.7941 12.8383 13.1828 12.8383 12.3521C12.8383 11.6708 13.0763 11.1201 13.5523 10.7001C14.0376 10.2801 14.733 10.0701 15.6383 10.0701C16.5436 10.0701 17.2436 10.2801 17.7383 10.7001C18.037 10.6534 18.317 10.5788 18.5783 10.4761C18.8396 10.3734 19.0823 10.2334 19.3063 10.0561L19.5023 10.1961V10.9801H17.9903C18.289 11.3534 18.4383 11.8108 18.4383 12.3521C18.4383 13.0148 18.1956 13.5561 17.7103 13.9761C17.2343 14.3961 16.5436 14.6061 15.6383 14.6061ZM15.6103 14.2281C16.0023 14.2281 16.287 14.0788 16.4643 13.7801C16.651 13.4721 16.7443 12.9821 16.7443 12.3101C16.7443 11.6474 16.6556 11.1714 16.4783 10.8821C16.301 10.5928 16.0256 10.4481 15.6523 10.4481C15.279 10.4481 14.999 10.5974 14.8123 10.8961C14.635 11.1854 14.5463 11.6661 14.5463 12.3381C14.5463 13.0101 14.6303 13.4954 14.7983 13.7941C14.9663 14.0834 15.237 14.2281 15.6103 14.2281ZM13.6223 18.2181C13.6223 18.7314 13.7856 19.1141 14.1123 19.3661C14.439 19.6274 14.957 19.7581 15.6663 19.7581C16.4503 19.7581 17.029 19.6274 17.4023 19.3661C17.785 19.1141 17.9763 18.7781 17.9763 18.3581C17.9763 18.0968 17.8783 17.8914 17.6823 17.7421C17.4956 17.5928 17.1783 17.4761 16.7303 17.3921L14.2243 16.9021C14.187 16.8928 14.1496 16.8834 14.1123 16.8741C13.9723 17.0608 13.8556 17.2754 13.7623 17.5181C13.669 17.7608 13.6223 17.9941 13.6223 18.2181Z" fill="#131313"/>
</svg>
