<svg width="24" height="24" viewBox="0 0 24 24" fill="none" xmlns="http://www.w3.org/2000/svg">
<path d="M5.86669 16.9999C5.79202 16.9999 5.71269 16.9859 5.62869 16.9579C5.54469 16.9206 5.47469 16.8739 5.41869 16.8179C5.36269 16.7526 5.33469 16.6826 5.33469 16.6079C5.33469 16.5706 5.33935 16.5379 5.34869 16.5099L8.27469 7.01788C8.31202 6.89655 8.38202 6.81255 8.48469 6.76588C8.58735 6.70988 8.69935 6.68188 8.82069 6.68188C8.95135 6.68188 9.06802 6.70988 9.17069 6.76588C9.28269 6.82188 9.35269 6.90588 9.38069 7.01788L12.2927 16.5099C12.302 16.5379 12.3067 16.5659 12.3067 16.5939C12.3067 16.6686 12.2787 16.7386 12.2227 16.8039C12.1667 16.8599 12.0967 16.9066 12.0127 16.9439C11.9287 16.9812 11.84 16.9999 11.7467 16.9999C11.672 16.9999 11.602 16.9812 11.5367 16.9439C11.4714 16.9066 11.4247 16.8459 11.3967 16.7619L10.7527 14.6059H6.88869L6.24469 16.7619C6.21669 16.8459 6.17002 16.9066 6.10469 16.9439C6.03935 16.9812 5.96002 16.9999 5.86669 16.9999ZM7.11269 13.8079H10.5147L8.82069 8.16588L7.11269 13.8079ZM15.8079 20.2479C15.2572 20.2479 14.7672 20.1686 14.3379 20.0099C13.9179 19.8606 13.5819 19.6459 13.3299 19.3659C13.0872 19.0952 12.9659 18.7686 12.9659 18.3859C12.9659 17.9752 13.0872 17.6486 13.3299 17.4059C13.5726 17.1632 13.8479 16.9812 14.1559 16.8599C13.9319 16.7759 13.7452 16.6639 13.5959 16.5239C13.4559 16.3746 13.3859 16.1646 13.3859 15.8939C13.3859 15.6326 13.4512 15.4272 13.5819 15.2779C13.7126 15.1192 13.8806 14.9886 14.0859 14.8859C13.8339 14.6806 13.6379 14.4286 13.4979 14.1299C13.3672 13.8219 13.3019 13.4859 13.3019 13.1219V12.5899C13.3019 12.1419 13.3999 11.7452 13.5959 11.3999C13.8012 11.0546 14.0859 10.7839 14.4499 10.5879C14.8139 10.3919 15.2386 10.2939 15.7239 10.2939C16.0506 10.2939 16.3539 10.3452 16.6339 10.4479C16.9139 10.5506 17.1566 10.6952 17.3619 10.8819C17.5019 10.5926 17.6606 10.3732 17.8379 10.2239C18.0152 10.0746 18.1832 9.99988 18.3419 9.99988C18.4912 9.99988 18.5986 10.0419 18.6639 10.1259C18.7386 10.2006 18.7759 10.2799 18.7759 10.3639C18.7759 10.4479 18.7526 10.5179 18.7059 10.5739C18.6592 10.6206 18.6032 10.6532 18.5379 10.6719C18.4259 10.6906 18.2952 10.7419 18.1459 10.8259C18.0059 10.9099 17.8752 11.0592 17.7539 11.2739C17.8846 11.4512 17.9826 11.6519 18.0479 11.8759C18.1132 12.0999 18.1459 12.3379 18.1459 12.5899V13.1219C18.1459 13.5606 18.0432 13.9572 17.8379 14.3119C17.6326 14.6666 17.3432 14.9466 16.9699 15.1519C16.6059 15.3479 16.1859 15.4459 15.7099 15.4459C15.3086 15.4459 14.9492 15.3666 14.6319 15.2079C14.5292 15.2639 14.4312 15.3339 14.3379 15.4179C14.2446 15.4926 14.1979 15.6046 14.1979 15.7539C14.1979 15.9592 14.3052 16.1086 14.5199 16.2019C14.7346 16.2952 15.0052 16.3606 15.3319 16.3979C15.6586 16.4352 16.0039 16.4772 16.3679 16.5239C16.7412 16.5612 17.0912 16.6359 17.4179 16.7479C17.7539 16.8599 18.0246 17.0326 18.2299 17.2659C18.4446 17.4992 18.5519 17.8306 18.5519 18.2599C18.5519 18.6986 18.4306 19.0626 18.1879 19.3519C17.9546 19.6506 17.6326 19.8746 17.2219 20.0239C16.8112 20.1732 16.3399 20.2479 15.8079 20.2479ZM15.7939 19.5619C16.3819 19.5619 16.8392 19.4452 17.1659 19.2119C17.4926 18.9786 17.6559 18.6706 17.6559 18.2879C17.6559 17.9892 17.5672 17.7606 17.3899 17.6019C17.2126 17.4526 16.9839 17.3452 16.7039 17.2799C16.4332 17.2146 16.1486 17.1679 15.8499 17.1399C15.5606 17.1119 15.3086 17.0839 15.0939 17.0559C14.7672 17.1586 14.4779 17.3079 14.2259 17.5039C13.9739 17.6999 13.8479 17.9659 13.8479 18.3019C13.8479 18.6752 14.0206 18.9786 14.3659 19.2119C14.7112 19.4452 15.1872 19.5619 15.7939 19.5619ZM15.7379 14.7599C16.2046 14.7599 16.5732 14.6059 16.8439 14.2979C17.1146 13.9806 17.2499 13.5886 17.2499 13.1219V12.5899C17.2499 12.1326 17.1146 11.7499 16.8439 11.4419C16.5826 11.1339 16.2092 10.9799 15.7239 10.9799C15.2386 10.9799 14.8606 11.1339 14.5899 11.4419C14.3286 11.7499 14.1979 12.1326 14.1979 12.5899V13.1079C14.1979 13.5746 14.3332 13.9666 14.6039 14.2839C14.8746 14.6012 15.2526 14.7599 15.7379 14.7599Z" fill="#131313"/>
</svg>
