<svg width="24" height="24" viewBox="0 0 24 24" fill="none" xmlns="http://www.w3.org/2000/svg">
<path d="M3.9833 17.0699C3.8713 17.0699 3.79197 17.0559 3.7453 17.0279C3.69864 16.9999 3.66597 16.9532 3.6473 16.8879C3.63797 16.8132 3.67997 16.7572 3.7733 16.7199C3.8573 16.6732 3.97397 16.6312 4.1233 16.5939C4.38464 16.5192 4.62264 16.4306 4.8373 16.3279C5.0613 16.2252 5.26664 16.1039 5.4533 15.9639C5.63997 15.8146 5.80797 15.6559 5.9573 15.4879C6.64797 14.7226 7.27797 13.9852 7.8473 13.2759C8.42597 12.5666 8.9813 11.8619 9.51331 11.1619C10.0453 10.4619 10.5913 9.75256 11.1513 9.03389C11.2633 8.89389 11.3613 8.76789 11.4453 8.65589C11.5293 8.54389 11.5993 8.45522 11.6553 8.38989C11.7113 8.32456 11.758 8.29189 11.7953 8.29189C11.9913 8.29189 12.122 8.25922 12.1873 8.19389C12.262 8.12856 12.3553 8.03522 12.4673 7.91389C12.598 7.76456 12.6866 7.66656 12.7333 7.61989C12.7893 7.56389 12.8406 7.53589 12.8873 7.53589C12.934 7.53589 12.9666 7.56389 12.9853 7.61989C13.004 7.67589 12.9946 7.79722 12.9573 7.98389L11.5013 15.2919C11.408 15.7399 11.3986 16.0619 11.4733 16.2579C11.5573 16.4446 11.73 16.5752 11.9913 16.6499C12.1406 16.6872 12.2526 16.7246 12.3273 16.7619C12.402 16.7899 12.4393 16.8366 12.4393 16.9019C12.4393 16.9579 12.4066 16.9999 12.3413 17.0279C12.276 17.0559 12.164 17.0699 12.0053 17.0699C11.884 17.0699 11.7253 17.0606 11.5293 17.0419C11.3426 17.0326 11.142 17.0186 10.9273 16.9999C10.7126 16.9906 10.5073 16.9859 10.3113 16.9859C10.1433 16.9859 9.97064 16.9859 9.7933 16.9859C9.62531 16.9859 9.46197 16.9906 9.3033 16.9999C9.15397 16.9999 9.02797 16.9999 8.9253 16.9999C8.7293 16.9999 8.6173 16.9439 8.5893 16.8319C8.57997 16.7666 8.61264 16.7106 8.6873 16.6639C8.76197 16.6079 8.85997 16.5706 8.9813 16.5519C9.2893 16.4959 9.5273 16.4352 9.6953 16.3699C9.87264 16.2952 10.008 16.1879 10.1013 16.0479C10.204 15.8986 10.288 15.6932 10.3533 15.4319L10.7873 13.7659C10.8246 13.6259 10.7966 13.5279 10.7033 13.4719C10.6193 13.4159 10.512 13.3879 10.3813 13.3879L8.8133 13.4159C8.66397 13.4159 8.54264 13.4346 8.4493 13.4719C8.3653 13.4999 8.28597 13.5652 8.2113 13.6679L6.7693 15.5719C6.6013 15.7959 6.50797 15.9732 6.4893 16.1039C6.47997 16.2252 6.51264 16.3186 6.5873 16.3839C6.6713 16.4399 6.76464 16.4866 6.8673 16.5239C6.96997 16.5612 7.05397 16.6032 7.1193 16.6499C7.18464 16.6966 7.2173 16.7572 7.2173 16.8319C7.2173 16.8972 7.17997 16.9439 7.1053 16.9719C7.03064 16.9999 6.9373 17.0139 6.8253 17.0139C6.70397 17.0139 6.54997 17.0092 6.3633 16.9999C6.18597 16.9906 5.97597 16.9859 5.7333 16.9859C5.44397 16.9859 5.1313 16.9999 4.7953 17.0279C4.46864 17.0559 4.19797 17.0699 3.9833 17.0699ZM9.1633 12.9399L10.6613 12.9259C10.764 12.9259 10.8433 12.8979 10.8993 12.8419C10.9553 12.7859 11.002 12.6832 11.0393 12.5339L11.7113 9.46789C11.7393 9.35589 11.7486 9.27656 11.7393 9.22989C11.7393 9.17389 11.716 9.14589 11.6693 9.14589C11.632 9.14589 11.59 9.15522 11.5433 9.17389C11.4966 9.19256 11.45 9.23922 11.4033 9.31389L8.9113 12.6319C8.84597 12.7252 8.80864 12.7999 8.79931 12.8559C8.78997 12.9119 8.9113 12.9399 9.1633 12.9399ZM15.2841 21.0599C14.7428 21.0599 14.2481 20.9946 13.8001 20.8639C13.3615 20.7426 13.0115 20.5652 12.7501 20.3319C12.4888 20.1079 12.3581 19.8372 12.3581 19.5199C12.3581 19.3052 12.5028 19.0999 12.7921 18.9039C13.0815 18.7172 13.4408 18.5399 13.8701 18.3719C14.2995 18.2039 14.7241 18.0499 15.1441 17.9099C15.2188 17.8819 15.2281 17.8399 15.1721 17.7839C14.9668 17.6066 14.8035 17.4526 14.6821 17.3219C14.5608 17.2006 14.5001 17.0652 14.5001 16.9159C14.5001 16.7852 14.5655 16.6499 14.6961 16.5099C14.8361 16.3606 15.0041 16.2112 15.2001 16.0619C15.2468 16.0152 15.2748 15.9779 15.2841 15.9499C15.3028 15.9219 15.3121 15.9032 15.3121 15.8939C15.3121 15.8659 15.2748 15.8379 15.2001 15.8099C15.0135 15.7166 14.8641 15.6092 14.7521 15.4879C14.6495 15.3666 14.5748 15.2266 14.5281 15.0679C14.4908 14.8999 14.4721 14.7132 14.4721 14.5079C14.4721 14.1906 14.5421 13.8452 14.6821 13.4719C14.8221 13.0892 15.0135 12.7252 15.2561 12.3799C15.4988 12.0346 15.7835 11.7546 16.1101 11.5399C16.4368 11.3159 16.7868 11.2039 17.1601 11.2039C17.3561 11.2039 17.4961 11.2272 17.5801 11.2739C17.6735 11.3112 17.7481 11.3439 17.8041 11.3719C17.8695 11.4092 17.9348 11.4466 18.0001 11.4839C18.0655 11.5119 18.1308 11.5259 18.1961 11.5259C18.2988 11.5259 18.4341 11.5119 18.6021 11.4839C18.7701 11.4466 18.9428 11.4139 19.1201 11.3859C19.2975 11.3579 19.4468 11.3439 19.5681 11.3439C19.6241 11.3439 19.6895 11.3719 19.7641 11.4279C19.8388 11.4746 19.8761 11.5539 19.8761 11.6659C19.8761 11.8432 19.8481 11.9692 19.7921 12.0439C19.7361 12.1186 19.6801 12.1559 19.6241 12.1559C19.5401 12.1559 19.4235 12.1419 19.2741 12.1139C19.1248 12.0859 18.9801 12.0579 18.8401 12.0299C18.7095 12.0019 18.6068 11.9879 18.5321 11.9879C18.4855 11.9879 18.4388 12.0019 18.3921 12.0299C18.3548 12.0579 18.3455 12.1092 18.3641 12.1839C18.3828 12.2586 18.3968 12.3379 18.4061 12.4219C18.4155 12.5059 18.4201 12.5946 18.4201 12.6879C18.4201 13.0519 18.3455 13.4252 18.1961 13.8079C18.0561 14.1812 17.8648 14.5312 17.6221 14.8579C17.3795 15.1752 17.1041 15.4319 16.7961 15.6279C16.4975 15.8239 16.1941 15.9219 15.8861 15.9219C15.8208 15.9219 15.7601 15.9406 15.7041 15.9779C15.6575 16.0059 15.6155 16.0432 15.5781 16.0899C15.4755 16.2206 15.4241 16.3559 15.4241 16.4959C15.4241 16.6639 15.4661 16.8039 15.5501 16.9159C15.6435 17.0279 15.8068 17.1632 16.0401 17.3219C16.1988 17.4246 16.3855 17.5459 16.6001 17.6859C16.8241 17.8352 17.0435 17.9752 17.2581 18.1059C17.4728 18.2459 17.6455 18.3672 17.7761 18.4699C17.9815 18.6192 18.1215 18.7546 18.1961 18.8759C18.2801 19.0066 18.3221 19.1419 18.3221 19.2819C18.3221 19.5246 18.2241 19.7532 18.0281 19.9679C17.8415 20.1826 17.5941 20.3692 17.2861 20.5279C16.9781 20.6959 16.6468 20.8266 16.2921 20.9199C15.9468 21.0132 15.6108 21.0599 15.2841 21.0599ZM15.7041 20.6399C16.0775 20.6399 16.3808 20.5932 16.6141 20.4999C16.8475 20.4066 17.0201 20.2852 17.1321 20.1359C17.2441 19.9959 17.3001 19.8419 17.3001 19.6739C17.3001 19.5339 17.2581 19.3846 17.1741 19.2259C17.0901 19.0766 16.9408 18.9412 16.7261 18.8199C16.6515 18.7639 16.5208 18.6752 16.3341 18.5539C16.1568 18.4326 16.0168 18.3486 15.9141 18.3019C15.7461 18.2086 15.6155 18.1619 15.5221 18.1619C15.4661 18.1619 15.4055 18.1666 15.3401 18.1759C15.2841 18.1852 15.2281 18.1992 15.1721 18.2179C14.6121 18.3952 14.1641 18.5866 13.8281 18.7919C13.4921 19.0066 13.3241 19.2586 13.3241 19.5479C13.3241 19.7532 13.4455 19.9352 13.6881 20.0939C13.9215 20.2619 14.2201 20.3926 14.5841 20.4859C14.9481 20.5886 15.3215 20.6399 15.7041 20.6399ZM15.8441 15.5859C16.0121 15.5859 16.1801 15.5019 16.3481 15.3339C16.5255 15.1659 16.6935 14.9466 16.8521 14.6759C17.0108 14.4052 17.1508 14.1206 17.2721 13.8219C17.4028 13.5139 17.5055 13.2199 17.5801 12.9399C17.6548 12.6599 17.6921 12.4312 17.6921 12.2539C17.6921 12.1139 17.6455 11.9692 17.5521 11.8199C17.4588 11.6706 17.3421 11.5959 17.2021 11.5959C17.0248 11.5959 16.8475 11.6706 16.6701 11.8199C16.4928 11.9692 16.3201 12.1699 16.1521 12.4219C15.9935 12.6646 15.8488 12.9352 15.7181 13.2339C15.5875 13.5232 15.4801 13.8172 15.3961 14.1159C15.3215 14.4052 15.2795 14.6712 15.2701 14.9139C15.2701 15.0912 15.3261 15.2499 15.4381 15.3899C15.5595 15.5206 15.6948 15.5859 15.8441 15.5859Z" fill="#131313"/>
</svg>
