<svg width="24" height="24" viewBox="0 0 24 24" fill="none" xmlns="http://www.w3.org/2000/svg">
<path d="M2.89408 17.0699C2.78208 17.0699 2.69808 17.0512 2.64208 17.0139C2.58608 16.9859 2.56275 16.9299 2.57208 16.8459C2.59075 16.7526 2.63742 16.6826 2.71208 16.6359C2.77742 16.5892 2.86608 16.5566 2.97808 16.5379C3.15542 16.4912 3.36075 16.4306 3.59408 16.3559C3.82742 16.2719 4.05142 16.1692 4.26608 16.0479C4.49008 15.9172 4.67675 15.7679 4.82608 15.5999C5.44208 14.9092 6.04408 14.2232 6.63208 13.5419C7.22008 12.8606 7.80808 12.1792 8.39608 11.4979C8.98408 10.8166 9.57208 10.1352 10.1601 9.45388C10.3281 9.26721 10.4634 9.08521 10.5661 8.90788C10.6781 8.72121 10.7714 8.56721 10.8461 8.44588C10.9301 8.32455 10.9954 8.26388 11.0421 8.26388C11.2754 8.26388 11.4994 8.24055 11.7141 8.19388C11.9288 8.14721 12.1154 8.07255 12.2741 7.96988C12.4328 7.87655 12.5728 7.78788 12.6941 7.70388C12.8154 7.61988 12.9228 7.57788 13.0161 7.57788C13.1001 7.57788 13.1514 7.66188 13.1701 7.82988C13.1888 7.99788 13.1748 8.19388 13.1281 8.41788L11.7421 15.4039C11.6768 15.7212 11.7094 15.9686 11.8401 16.1459C11.9801 16.3139 12.2181 16.4492 12.5541 16.5519C12.6661 16.5799 12.7548 16.6126 12.8201 16.6499C12.8948 16.6779 12.9321 16.7386 12.9321 16.8319C12.9321 16.8972 12.8808 16.9486 12.7781 16.9859C12.6754 17.0232 12.5821 17.0419 12.4981 17.0419C12.3114 17.0419 12.0921 17.0326 11.8401 17.0139C11.5881 17.0046 11.3314 16.9952 11.0701 16.9859C10.8088 16.9766 10.5754 16.9719 10.3701 16.9719C10.1834 16.9719 9.96408 16.9766 9.71208 16.9859C9.46008 16.9952 9.20342 17.0046 8.94208 17.0139C8.69008 17.0232 8.47075 17.0279 8.28408 17.0279C8.08808 17.0279 7.99942 16.9626 8.01808 16.8319C8.01808 16.7479 8.05542 16.6826 8.13008 16.6359C8.20475 16.5799 8.29342 16.5426 8.39608 16.5239C8.62942 16.4772 8.82075 16.4212 8.97008 16.3559C9.11942 16.2812 9.24075 16.1879 9.33408 16.0759C9.43675 15.9546 9.51142 15.7959 9.55808 15.5999L9.97808 13.9059C9.99675 13.8219 9.98275 13.7566 9.93608 13.7099C9.89875 13.6632 9.83808 13.6399 9.75408 13.6399H7.62608C7.54208 13.6399 7.46742 13.6679 7.40208 13.7239C7.33675 13.7706 7.27608 13.8266 7.22008 13.8919L6.25408 15.1379C6.03008 15.4179 5.89475 15.6512 5.84808 15.8379C5.80142 16.0246 5.83408 16.1739 5.94608 16.2859C6.06742 16.3886 6.24475 16.4679 6.47808 16.5239C6.56208 16.5426 6.64142 16.5799 6.71608 16.6359C6.79075 16.6826 6.82808 16.7479 6.82808 16.8319C6.81875 16.8972 6.76742 16.9486 6.67408 16.9859C6.59008 17.0139 6.49208 17.0279 6.38008 17.0279C6.10942 17.0279 5.83875 17.0186 5.56808 16.9999C5.30675 16.9906 5.04075 16.9859 4.77008 16.9859C4.49008 16.9859 4.17742 16.9999 3.83208 17.0279C3.48675 17.0559 3.17408 17.0699 2.89408 17.0699ZM8.27008 13.0099H9.95008C10.0248 13.0099 10.0808 12.9959 10.1181 12.9679C10.1648 12.9399 10.1928 12.8886 10.2021 12.8139L10.8741 9.74788C10.8928 9.68255 10.9021 9.62655 10.9021 9.57988C10.9021 9.52388 10.8834 9.49588 10.8461 9.49588C10.8368 9.49588 10.8088 9.50521 10.7621 9.52388C10.7248 9.54255 10.6921 9.57055 10.6641 9.60788L8.10208 12.7439C8.01808 12.8372 7.98075 12.9072 7.99008 12.9539C8.00875 12.9912 8.10208 13.0099 8.27008 13.0099ZM15.6491 21.0599C15.0704 21.0599 14.5431 20.9946 14.0671 20.8639C13.6004 20.7426 13.2271 20.5699 12.9471 20.3459C12.6671 20.1312 12.5271 19.8839 12.5271 19.6039C12.5271 19.3426 12.6484 19.1046 12.8911 18.8899C13.1337 18.6846 13.4604 18.4979 13.8711 18.3299C14.2724 18.1619 14.7157 18.0126 15.2011 17.8819C15.3131 17.8446 15.3224 17.8026 15.2291 17.7559C15.0424 17.6439 14.8697 17.4992 14.7111 17.3219C14.5524 17.1539 14.4731 16.9766 14.4731 16.7899C14.4731 16.5846 14.5804 16.4026 14.7951 16.2439C15.0191 16.0759 15.2897 15.9079 15.6071 15.7399C15.6631 15.7026 15.7051 15.6699 15.7331 15.6419C15.7704 15.6046 15.7891 15.5766 15.7891 15.5579C15.7891 15.5206 15.7424 15.4832 15.6491 15.4459C15.4811 15.3619 15.3131 15.2499 15.1451 15.1099C14.9771 14.9699 14.8371 14.8019 14.7251 14.6059C14.6224 14.4006 14.5711 14.1766 14.5711 13.9339C14.5711 13.6352 14.6411 13.3179 14.7811 12.9819C14.9211 12.6366 15.1217 12.3099 15.3831 12.0019C15.6444 11.6846 15.9711 11.4279 16.3631 11.2319C16.7551 11.0359 17.2077 10.9379 17.7211 10.9379C17.8984 10.9379 18.0664 10.9659 18.2251 11.0219C18.3837 11.0686 18.5284 11.1199 18.6591 11.1759C18.8084 11.2412 18.9437 11.3019 19.0651 11.3579C19.1864 11.4046 19.2844 11.4279 19.3591 11.4279C19.5177 11.4279 19.6717 11.4092 19.8211 11.3719C19.9797 11.3346 20.1291 11.2972 20.2691 11.2599C20.4184 11.2226 20.5537 11.2039 20.6751 11.2039C20.7404 11.2039 20.8151 11.2319 20.8991 11.2879C20.9924 11.3346 21.0391 11.4326 21.0391 11.5819C21.0391 11.7499 21.0017 11.8899 20.9271 12.0019C20.8617 12.1139 20.7731 12.1699 20.6611 12.1699C20.5771 12.1699 20.4791 12.1606 20.3671 12.1419C20.2644 12.1232 20.1524 12.1092 20.0311 12.0999C19.9191 12.0812 19.8117 12.0719 19.7091 12.0719C19.6624 12.0719 19.6204 12.0812 19.5831 12.0999C19.5457 12.1092 19.5364 12.1512 19.5551 12.2259C19.5737 12.2912 19.5831 12.3566 19.5831 12.4219C19.5924 12.4779 19.5971 12.5386 19.5971 12.6039C19.5971 12.9772 19.5224 13.3506 19.3731 13.7239C19.2237 14.0879 19.0137 14.4192 18.7431 14.7179C18.4817 15.0072 18.1691 15.2406 17.8051 15.4179C17.4504 15.5952 17.0584 15.6839 16.6291 15.6839C16.5451 15.6839 16.4564 15.6839 16.3631 15.6839C16.2791 15.6746 16.2137 15.6792 16.1671 15.6979C16.0737 15.7632 16.0271 15.8426 16.0271 15.9359C16.0271 16.0386 16.0737 16.1459 16.1671 16.2579C16.2697 16.3606 16.4051 16.4726 16.5731 16.5939C16.7504 16.7059 16.9557 16.8366 17.1891 16.9859C17.4224 17.1259 17.6557 17.2706 17.8891 17.4199C18.1317 17.5692 18.3604 17.7139 18.5751 17.8539C18.7991 18.0032 18.9717 18.1619 19.0931 18.3299C19.2144 18.5072 19.2751 18.6892 19.2751 18.8759C19.2751 19.1559 19.1677 19.4219 18.9531 19.6739C18.7477 19.9352 18.4677 20.1686 18.1131 20.3739C17.7677 20.5792 17.3804 20.7426 16.9511 20.8639C16.5311 20.9946 16.0971 21.0599 15.6491 21.0599ZM16.2511 20.5559C16.4937 20.5559 16.7271 20.5139 16.9511 20.4299C17.1751 20.3552 17.3571 20.2479 17.4971 20.1079C17.6371 19.9679 17.7071 19.8139 17.7071 19.6459C17.7071 19.5432 17.6697 19.4312 17.5951 19.3099C17.5297 19.1979 17.4364 19.1046 17.3151 19.0299C17.1191 18.8992 16.8857 18.7499 16.6151 18.5819C16.3444 18.4232 16.1251 18.3019 15.9571 18.2179C15.8824 18.1806 15.8124 18.1619 15.7471 18.1619C15.6911 18.1619 15.6397 18.1666 15.5931 18.1759C15.5557 18.1852 15.5137 18.1992 15.4671 18.2179C15.0191 18.3486 14.6784 18.5026 14.4451 18.6799C14.2211 18.8666 14.1091 19.1186 14.1091 19.4359C14.1091 19.6319 14.1837 19.8139 14.3331 19.9819C14.4917 20.1592 14.7297 20.2992 15.0471 20.4019C15.3644 20.5046 15.7657 20.5559 16.2511 20.5559ZM16.3911 15.1239C16.5497 15.1426 16.7177 15.0772 16.8951 14.9279C17.0724 14.7786 17.2404 14.5779 17.3991 14.3259C17.5577 14.0739 17.7024 13.8032 17.8331 13.5139C17.9637 13.2152 18.0664 12.9306 18.1411 12.6599C18.2251 12.3799 18.2671 12.1466 18.2671 11.9599C18.2671 11.7826 18.2297 11.6426 18.1551 11.5399C18.0897 11.4372 18.0011 11.3859 17.8891 11.3859C17.7397 11.3859 17.5811 11.4652 17.4131 11.6239C17.2544 11.7732 17.0957 11.9739 16.9371 12.2259C16.7784 12.4686 16.6337 12.7346 16.5031 13.0239C16.3724 13.3039 16.2651 13.5792 16.1811 13.8499C16.1064 14.1112 16.0691 14.3352 16.0691 14.5219C16.0691 14.7272 16.0971 14.8766 16.1531 14.9699C16.2184 15.0632 16.2977 15.1146 16.3911 15.1239Z" fill="#131313"/>
</svg>
