<svg width="24" height="24" viewBox="0 0 24 24" fill="none" xmlns="http://www.w3.org/2000/svg">
<path d="M11.7051 16.9999C11.2105 16.9999 10.9165 16.9672 10.8231 16.9019C10.7298 16.8272 10.6738 16.5892 10.6551 16.1879L10.5011 13.7099H8.79313L7.54713 16.9999H7.33713C6.81446 16.9999 6.52513 16.9532 6.46913 16.8599C6.44113 16.8039 6.42713 16.7246 6.42713 16.6219C6.42713 16.5192 6.65579 15.8752 7.11313 14.6899L10.1231 6.91992H11.2991L11.9851 16.9999H11.7051ZM10.4451 12.5619L10.3331 12.3519V9.34192L9.29713 12.3519L9.12913 12.5619H10.4451ZM14.5411 19.6459H13.9391C13.6218 19.6459 13.4164 19.6272 13.3231 19.5899C13.2298 19.5619 13.1738 19.5152 13.1551 19.4499C13.1364 19.3939 13.1271 19.3052 13.1271 19.1839L13.1831 18.6379L14.6251 18.5399C15.0451 18.5399 15.3018 18.4792 15.3951 18.3579C15.4978 18.2459 15.5911 17.9519 15.6751 17.4759L15.8151 16.6359L15.0031 17.0979C14.3404 17.0979 13.8784 16.9672 13.6171 16.7059C13.3651 16.4446 13.2391 16.0152 13.2391 15.4179C13.2391 14.8112 13.2811 14.1906 13.3651 13.5559C13.5984 11.8012 14.0324 10.5926 14.6671 9.92992C15.0311 9.55659 15.4464 9.36992 15.9131 9.36992C15.9691 9.36992 16.0251 9.37459 16.0811 9.38392L17.1311 9.48192C17.5324 9.48192 17.7844 9.50059 17.8871 9.53792C17.9991 9.57525 18.0551 9.66392 18.0551 9.80392C18.0551 9.84125 18.0504 9.87859 18.0411 9.91592L16.8231 17.7279C16.7111 18.4652 16.5104 18.9692 16.2211 19.2399C15.9411 19.5106 15.3811 19.6459 14.5411 19.6459ZM16.0251 10.4899C15.6798 10.4899 15.3764 10.8166 15.1151 11.4699C14.8538 12.1139 14.6764 12.7719 14.5831 13.4439C14.4898 14.1066 14.4431 14.6246 14.4431 14.9979C14.4431 15.3712 14.4898 15.6279 14.5831 15.7679C14.6858 15.9079 14.8491 15.9826 15.0731 15.9919L16.0531 15.4879L16.0251 15.2359L16.7531 10.6019L16.7951 10.4899H16.0251Z" fill="#131313"/>
</svg>
