<svg width="24" height="24" viewBox="0 0 24 24" fill="none" xmlns="http://www.w3.org/2000/svg">
<path d="M6.32345 12.5419H8.99745L8.47945 11.1139C8.32078 10.7219 8.18078 10.3579 8.05945 10.0219C7.94745 9.6766 7.82611 9.2846 7.69545 8.84593H7.66745C7.52745 9.2566 7.39678 9.63926 7.27545 9.99393C7.15411 10.3392 7.01411 10.7172 6.85545 11.1279L6.32345 12.5419ZM6.99545 7.17993H8.42345L11.8534 15.9999H10.2854L9.40345 13.6899H5.94545L5.07745 15.9999H3.52345L6.99545 7.17993ZM12.6473 11.6039C12.6473 11.2399 12.7126 10.9132 12.8433 10.6239C12.9833 10.3346 13.1746 10.0919 13.4173 9.89593C13.66 9.6906 13.9493 9.5366 14.2853 9.43393C14.6213 9.33126 14.9853 9.27993 15.3773 9.27993C15.6666 9.27993 15.9606 9.31726 16.2593 9.39193H19.1013V10.3859H18.6113L17.5753 10.2459C17.734 10.4232 17.86 10.6286 17.9533 10.8619C18.0466 11.0952 18.0933 11.3379 18.0933 11.5899C18.0933 11.9539 18.028 12.2806 17.8973 12.5699C17.7666 12.8499 17.58 13.0926 17.3373 13.2979C17.104 13.4939 16.8193 13.6432 16.4833 13.7459C16.1473 13.8486 15.7786 13.8999 15.3773 13.8999C15.2466 13.8999 15.1206 13.8952 14.9993 13.8859C14.8873 13.8766 14.7753 13.8626 14.6633 13.8439C14.486 13.9186 14.36 14.0072 14.2853 14.1099C14.2106 14.2126 14.1733 14.3246 14.1733 14.4459C14.1733 14.6326 14.2386 14.7632 14.3693 14.8379C14.5 14.9126 14.6866 14.9499 14.9293 14.9499H16.5953C17.3233 14.9499 17.888 15.1179 18.2893 15.4539C18.7 15.7806 18.9053 16.2519 18.9053 16.8679C18.9053 17.2319 18.8213 17.5586 18.6533 17.8479C18.4946 18.1466 18.2613 18.3986 17.9533 18.6039C17.6546 18.8186 17.2906 18.9819 16.8613 19.0939C16.432 19.2059 15.9513 19.2619 15.4193 19.2619C14.4393 19.2619 13.6646 19.0892 13.0953 18.7439C12.526 18.3986 12.2413 17.8899 12.2413 17.2179C12.2413 16.8912 12.3486 16.6112 12.5633 16.3779C12.778 16.1446 13.0626 15.9626 13.4173 15.8319C13.2493 15.7199 13.114 15.5892 13.0113 15.4399C12.9086 15.2812 12.8573 15.0759 12.8573 14.8239C12.8573 14.5252 12.946 14.2732 13.1233 14.0679C13.3006 13.8532 13.534 13.6852 13.8233 13.5639C13.4873 13.4052 13.2073 13.1672 12.9833 12.8499C12.7593 12.5232 12.6473 12.1079 12.6473 11.6039ZM14.2433 16.0699C13.814 16.2752 13.5993 16.5832 13.5993 16.9939C13.5993 17.3672 13.7486 17.6519 14.0473 17.8479C14.3553 18.0439 14.8313 18.1419 15.4753 18.1419C15.8393 18.1419 16.1473 18.1046 16.3993 18.0299C16.6513 17.9646 16.8566 17.8759 17.0153 17.7639C17.1833 17.6519 17.3046 17.5259 17.3793 17.3859C17.454 17.2459 17.4913 17.1012 17.4913 16.9519C17.4913 16.5972 17.37 16.3592 17.1273 16.2379C16.894 16.1259 16.5813 16.0699 16.1893 16.0699H14.2433ZM16.6513 11.6179C16.6513 11.1699 16.5346 10.8386 16.3013 10.6239C16.068 10.3999 15.76 10.2879 15.3773 10.2879C14.9853 10.2879 14.6726 10.3952 14.4393 10.6099C14.2153 10.8246 14.1033 11.1466 14.1033 11.5759C14.1033 12.0239 14.22 12.3552 14.4533 12.5699C14.6866 12.7846 14.9946 12.8919 15.3773 12.8919C15.7693 12.8919 16.0773 12.7846 16.3013 12.5699C16.5346 12.3552 16.6513 12.0379 16.6513 11.6179Z" fill="#131313"/>
</svg>
