<svg width="24" height="24" viewBox="0 0 24 24" fill="none" xmlns="http://www.w3.org/2000/svg">
<path d="M3.74492 17L7.10492 7.19995H8.75692L12.1869 17H11.0109L10.2829 14.97H5.62092L4.92092 17H3.74492ZM7.95892 8.03995H7.90292C7.90292 8.15195 7.87026 8.28728 7.80492 8.44595L5.91492 14.06H9.98892L8.05692 8.44595C7.99159 8.28728 7.95892 8.15195 7.95892 8.03995ZM15.5907 16.02H17.5927C17.8167 16.02 18.0407 15.9267 18.2647 15.74C18.4887 15.5533 18.6007 15.3667 18.6007 15.18V11.694C18.6007 11.554 18.5867 11.4607 18.5587 11.414C18.5307 11.3673 18.4327 11.2927 18.2647 11.19C18.0967 11.0873 17.98 11.0267 17.9147 11.008C17.8587 10.9893 17.7467 10.98 17.5787 10.98H15.5907C15.4227 10.98 15.3153 10.9893 15.2687 11.008C15.222 11.0173 15.1567 11.0547 15.0727 11.12C14.9887 11.1853 14.9373 11.2413 14.9187 11.288C14.9093 11.3253 14.9047 11.414 14.9047 11.554V15.446C14.9047 15.586 14.9093 15.6793 14.9187 15.726C14.9373 15.7633 14.9887 15.8147 15.0727 15.88C15.1567 15.9453 15.222 15.9873 15.2687 16.006C15.3153 16.0153 15.4227 16.02 15.5907 16.02ZM14.5967 19.66H17.9147C18.0827 19.66 18.19 19.6507 18.2367 19.632C18.2833 19.6227 18.3487 19.5853 18.4327 19.52C18.5167 19.4547 18.5633 19.3987 18.5727 19.352C18.5913 19.3147 18.6007 19.226 18.6007 19.086V16.328H18.5447C18.526 16.412 18.414 16.5427 18.2087 16.72C17.9847 16.9067 17.7607 17 17.5367 17H15.0727C14.8487 17 14.6247 16.9067 14.4007 16.72L14.0647 16.44C13.8407 16.2533 13.7287 16.02 13.7287 15.74V11.26C13.7287 10.98 13.8407 10.7467 14.0647 10.56L14.4007 10.28C14.6247 10.0933 14.8487 9.99995 15.0727 9.99995H17.7467C17.9147 9.99995 18.0267 10.0093 18.0827 10.028C18.148 10.0467 18.2647 10.1073 18.4327 10.21C18.638 10.3313 18.7407 10.448 18.7407 10.56H18.7967C18.7967 10.448 18.8713 10.3313 19.0207 10.21C19.1327 10.1167 19.2167 10.0607 19.2727 10.042C19.338 10.014 19.4547 9.99995 19.6227 9.99995H20.1127V10.686C20.1127 10.826 20.1033 10.9193 20.0847 10.966C20.0753 11.0033 20.0287 11.0547 19.9447 11.12C19.8607 11.1853 19.8093 11.2413 19.7907 11.288C19.7813 11.3253 19.7767 11.414 19.7767 11.554V19.38C19.7767 19.66 19.6647 19.8933 19.4407 20.08L19.1047 20.36C18.8807 20.5467 18.6567 20.64 18.4327 20.64H14.3447V20.276C14.3447 20.0613 14.354 19.926 14.3727 19.87C14.4007 19.8233 14.4753 19.7533 14.5967 19.66Z" fill="#131313"/>
</svg>
