<svg width="24" height="24" viewBox="0 0 24 24" fill="none" xmlns="http://www.w3.org/2000/svg">
<path d="M11.0312 17H7.85254C7.49707 14.1654 7.04818 11.7044 6.50586 9.61719C6.77018 9.07943 6.99577 8.58724 7.18262 8.14062C7.21452 8.07227 7.29655 7.98112 7.42871 7.86719C7.56543 7.75326 7.68164 7.69629 7.77734 7.69629H9.95117C10.138 9.07259 10.3887 10.6061 10.7031 12.2969C11.0221 13.9831 11.332 15.4004 11.6328 16.5488C11.6328 16.6081 11.5599 16.6992 11.4141 16.8223C11.2682 16.9408 11.1406 17 11.0312 17ZM5.56934 15.79L5.58984 16.5488C5.58984 16.6081 5.51465 16.6992 5.36426 16.8223C5.21842 16.9408 5.0931 17 4.98828 17H2.80762C3.52767 15.7786 4.64421 13.541 6.15723 10.2871C6.19824 10.4056 6.21875 10.5719 6.21875 10.7861C6.21875 10.9958 6.18685 11.3011 6.12305 11.7021C6.0638 12.1032 5.98633 12.5771 5.89062 13.124C5.79492 13.6663 5.72428 14.1061 5.67871 14.4434C6.33496 14.5436 6.8112 14.6553 7.10742 14.7783C7.10742 15.0518 7.06185 15.2546 6.9707 15.3867C6.49674 15.4277 6.02962 15.4893 5.56934 15.5713V15.79ZM18.3525 10.0342C17.8695 10.3851 17.4502 10.9001 17.0947 11.5791C16.7393 12.2536 16.5615 12.9212 16.5615 13.582C16.5615 14.4342 16.8486 15.0928 17.4229 15.5576C17.4229 15.626 17.3499 15.7217 17.2041 15.8447C17.0583 15.9632 16.9329 16.0225 16.8281 16.0225C15.1465 16.0225 14.0846 15.4551 13.6426 14.3203C13.5195 14.0059 13.458 13.6527 13.458 13.2607C13.458 12.8643 13.5446 12.4746 13.7178 12.0918C13.891 11.709 14.1439 11.3626 14.4766 11.0527C14.8092 10.7383 15.2467 10.4876 15.7891 10.3008C16.3314 10.1139 16.9443 10.0205 17.6279 10.0205C17.7829 10.0205 18.0244 10.0251 18.3525 10.0342ZM18.7764 10.5605C18.7764 10.5013 18.8493 10.4079 18.9951 10.2803C19.141 10.1527 19.2686 10.0889 19.3779 10.0889C19.6468 10.0889 20.041 10.1253 20.5605 10.1982C21.0801 10.2666 21.5814 10.3737 22.0645 10.5195C21.7865 11.8685 21.4697 13.9648 21.1143 16.8086C20.8317 19.0645 19.5853 20.1924 17.375 20.1924C17.0378 20.1924 16.7301 20.1742 16.4521 20.1377C16.8486 19.7686 17.1585 19.3197 17.3818 18.791C17.637 18.1803 17.8102 17.6654 17.9014 17.2461C18.2067 15.8516 18.4277 14.5299 18.5645 13.2812C18.7057 12.028 18.7764 11.1211 18.7764 10.5605ZM15.2627 19.9736C14.7113 19.9189 14.2396 19.748 13.8477 19.4609C13.4557 19.1738 13.2598 18.8594 13.2598 18.5176C13.2598 18.1758 13.3942 17.8864 13.6631 17.6494C14.1644 17.2028 14.8685 16.9795 15.7754 16.9795C16.0716 16.9795 16.3496 17.0091 16.6094 17.0684C16.3678 17.3099 16.1742 17.6061 16.0283 17.957C15.8825 18.3079 15.8096 18.6201 15.8096 18.8936C15.8096 19.167 15.8278 19.3743 15.8643 19.5156C15.8643 19.584 15.7891 19.6774 15.6387 19.7959C15.4928 19.9144 15.3675 19.9736 15.2627 19.9736Z" fill="#131313"/>
</svg>
