<svg width="24" height="24" viewBox="0 0 24 24" fill="none" xmlns="http://www.w3.org/2000/svg">
<path d="M12.0355 16.9999L11.0065 13.6469H7.23347L6.21147 16.9999H5.14047L8.36747 6.63989H9.90047L13.1275 16.9999H12.0355ZM7.52747 12.6949H10.7195L9.12347 7.47289L7.52747 12.6949ZM16.0526 20.2199C15.7493 20.2199 15.4319 20.1942 15.1006 20.1429C14.7693 20.0962 14.4729 20.0262 14.2116 19.9329V19.0159C14.8229 19.2212 15.4156 19.3239 15.9896 19.3239C16.4516 19.3239 16.8296 19.2516 17.1236 19.1069C17.4223 18.9669 17.6463 18.7336 17.7956 18.4069C17.9496 18.0849 18.0266 17.6532 18.0266 17.1119V16.2649H17.9566C17.7839 16.5122 17.5483 16.7152 17.2496 16.8739C16.9556 17.0326 16.6219 17.1119 16.2486 17.1119C15.7819 17.1119 15.3619 16.9906 14.9886 16.7479C14.6153 16.5052 14.3143 16.1039 14.0856 15.5439C13.8616 14.9839 13.7496 14.2536 13.7496 13.3529C13.7496 11.9762 14.0366 10.9566 14.6106 10.2939C15.1893 9.62656 16.0433 9.29056 17.1726 9.28589C17.4899 9.28589 17.8236 9.31389 18.1736 9.36989C18.5283 9.42589 18.8339 9.50056 19.0906 9.59389V16.9649C19.0906 18.1129 18.8386 18.9412 18.3346 19.4499C17.8353 19.9632 17.0746 20.2199 16.0526 20.2199ZM16.5846 16.1809C16.8739 16.1809 17.1493 16.1109 17.4106 15.9709C17.6766 15.8262 17.8819 15.6209 18.0266 15.3549V10.2799C17.8959 10.2472 17.7466 10.2216 17.5786 10.2029C17.4106 10.1796 17.2543 10.1679 17.1096 10.1679C16.3583 10.1679 15.7936 10.4082 15.4156 10.8889C15.0376 11.3649 14.8486 12.1512 14.8486 13.2479C14.8486 14.0132 14.9209 14.6106 15.0656 15.0399C15.2103 15.4692 15.4086 15.7679 15.6606 15.9359C15.9126 16.0992 16.2206 16.1809 16.5846 16.1809Z" fill="#131313"/>
</svg>
