<svg width="24" height="24" viewBox="0 0 24 24" fill="none" xmlns="http://www.w3.org/2000/svg">
<path d="M2.57555 16.9999L5.92155 6.63989H9.23255L12.5785 16.9999H10.3385L7.44055 7.63389H7.67855L4.78755 16.9999H2.57555ZM4.89955 14.2349L5.38955 12.4219H9.75755L10.2405 14.2349H4.89955ZM18.4588 17.1049C17.2828 17.1049 16.3051 16.9486 15.5258 16.6359C14.7464 16.3232 14.1631 15.8542 13.7758 15.2289C13.3884 14.5989 13.1948 13.8079 13.1948 12.8559C13.1948 11.9319 13.3931 11.1502 13.7898 10.5109C14.1864 9.87156 14.7721 9.38856 15.5468 9.06189C16.3261 8.73056 17.2898 8.56489 18.4378 8.56489C18.7971 8.56489 19.1471 8.58122 19.4878 8.61389C19.8331 8.64656 20.1504 8.69556 20.4398 8.76089V10.5179C20.1551 10.4572 19.8611 10.4106 19.5578 10.3779C19.2591 10.3406 18.9558 10.3219 18.6478 10.3219C17.9244 10.3219 17.3341 10.4106 16.8768 10.5879C16.4241 10.7606 16.0881 11.0359 15.8688 11.4139C15.6541 11.7919 15.5468 12.2819 15.5468 12.8839C15.5468 13.4486 15.6448 13.9152 15.8408 14.2839C16.0414 14.6479 16.3401 14.9186 16.7368 15.0959C17.1381 15.2732 17.6398 15.3619 18.2418 15.3619C18.4564 15.3619 18.6851 15.3526 18.9278 15.3339C19.1704 15.3152 19.3874 15.2919 19.5788 15.2639L18.6198 16.0479V12.9539H20.7058V16.9089C20.3324 16.9696 19.9521 17.0162 19.5648 17.0489C19.1821 17.0862 18.8134 17.1049 18.4588 17.1049Z" fill="#131313"/>
</svg>
