<svg width="24" height="24" viewBox="0 0 24 24" fill="none" xmlns="http://www.w3.org/2000/svg">
<path d="M12.4354 16.9999L11.2594 13.3879H7.25541L6.07941 16.9999H5.44241L8.85841 6.63989H9.67741L13.0934 16.9999H12.4354ZM7.44441 12.8069H11.0704L9.25741 7.24189L7.44441 12.8069ZM16.0101 20.2199C15.7208 20.2199 15.4175 20.1919 15.1001 20.1359C14.7875 20.0846 14.5098 20.0122 14.2671 19.9189V19.3379C14.8691 19.5479 15.4455 19.6529 15.9961 19.6529C16.4815 19.6529 16.8781 19.5759 17.1861 19.4219C17.4988 19.2726 17.7345 19.0229 17.8931 18.6729C18.0518 18.3229 18.1311 17.8562 18.1311 17.2729V16.2929H18.0821C17.9001 16.5309 17.6551 16.7292 17.3471 16.8879C17.0438 17.0419 16.7031 17.1189 16.3251 17.1189C15.5831 17.1189 14.9835 16.8296 14.5261 16.2509C14.0688 15.6722 13.8401 14.7109 13.8401 13.3669C13.8401 10.6696 14.9181 9.32089 17.0741 9.32089C17.3541 9.32089 17.6505 9.34656 17.9631 9.39789C18.2758 9.44456 18.5371 9.50756 18.7471 9.58689V17.2169C18.7471 18.2762 18.5208 19.0416 18.0681 19.5129C17.6155 19.9842 16.9295 20.2199 16.0101 20.2199ZM16.4231 16.5519C16.7685 16.5519 17.0975 16.4632 17.4101 16.2859C17.7228 16.1039 17.9631 15.8496 18.1311 15.5229V10.0139C17.9911 9.97656 17.8208 9.94622 17.6201 9.92289C17.4195 9.89489 17.2328 9.88089 17.0601 9.88089C16.2061 9.88089 15.5621 10.1492 15.1281 10.6859C14.6988 11.2226 14.4841 12.0952 14.4841 13.3039C14.4841 14.1439 14.5658 14.8042 14.7291 15.2849C14.8971 15.7609 15.1211 16.0922 15.4011 16.2789C15.6858 16.4609 16.0265 16.5519 16.4231 16.5519Z" fill="#131313"/>
</svg>
