<svg width="24" height="24" viewBox="0 0 24 24" fill="none" xmlns="http://www.w3.org/2000/svg">
<path d="M9.75498 16.9999L9.04098 14.6409H5.28198L4.56798 16.9999H1.48798L4.85498 6.63989H9.48898L12.863 16.9999H9.75498ZM6.00298 12.2329H8.31298L7.15798 8.41789L6.00298 12.2329ZM16.873 20.2199C15.7717 20.2199 14.7543 20.1126 13.821 19.8979V17.5389C14.3203 17.6602 14.8127 17.7512 15.298 17.8119C15.7833 17.8772 16.2243 17.9099 16.621 17.9099C17.3817 17.9099 17.923 17.7956 18.245 17.5669C18.5717 17.3429 18.735 16.9906 18.735 16.5099V16.1669H18.595C18.0863 16.7129 17.3887 16.9859 16.502 16.9859C15.914 16.9859 15.3727 16.8436 14.878 16.5589C14.3833 16.2742 13.989 15.8566 13.695 15.3059C13.401 14.7506 13.254 14.0856 13.254 13.3109C13.254 12.4476 13.436 11.7079 13.8 11.0919C14.1687 10.4759 14.7217 10.0022 15.459 9.67089C16.201 9.33956 17.118 9.17389 18.21 9.17389C18.826 9.17389 19.4607 9.21822 20.114 9.30689C20.772 9.39089 21.3483 9.50989 21.843 9.66389V15.9009C21.843 16.8996 21.6657 17.7162 21.311 18.3509C20.9563 18.9856 20.4127 19.4546 19.68 19.7579C18.952 20.0659 18.0163 20.2199 16.873 20.2199ZM17.692 14.5219C18.0887 14.5219 18.4363 14.4472 18.735 14.2979V11.5469C18.469 11.4956 18.203 11.4699 17.937 11.4699C16.873 11.4699 16.341 12.0019 16.341 13.0659C16.341 13.5886 16.4553 13.9619 16.684 14.1859C16.9127 14.4099 17.2487 14.5219 17.692 14.5219Z" fill="#131313"/>
</svg>
