<svg width="24" height="24" viewBox="0 0 24 24" fill="none" xmlns="http://www.w3.org/2000/svg">
<path d="M4.29349 16.9999L7.87049 6.63989H8.99749L12.5815 16.9999H11.7275L8.33249 7.05989H8.51449L5.12649 16.9999H4.29349ZM6.00149 13.4859L6.20449 12.7579H10.6635L10.8665 13.4859H6.00149ZM15.8041 20.2199C15.4915 20.2199 15.1578 20.1919 14.8031 20.1359C14.4485 20.0799 14.1265 20.0006 13.8371 19.8979V19.1769C14.1871 19.2936 14.5208 19.3776 14.8381 19.4289C15.1601 19.4849 15.4705 19.5129 15.7691 19.5129C16.5345 19.5129 17.1061 19.3356 17.4841 18.9809C17.8668 18.6262 18.0581 18.0009 18.0581 17.1049V16.2439H18.0021C17.8061 16.4819 17.5425 16.6872 17.2111 16.8599C16.8845 17.0279 16.5018 17.1119 16.0631 17.1119C15.5871 17.1119 15.1438 16.9952 14.7331 16.7619C14.3271 16.5286 14.0005 16.1389 13.7531 15.5929C13.5058 15.0469 13.3821 14.3026 13.3821 13.3599C13.3821 11.9692 13.6831 10.9472 14.2851 10.2939C14.8918 9.63589 15.7621 9.30689 16.8961 9.30689C17.1155 9.30689 17.3418 9.32089 17.5751 9.34889C17.8131 9.37222 18.0418 9.40722 18.2611 9.45389C18.4851 9.49589 18.6881 9.54722 18.8701 9.60789V17.0069C18.8701 18.1642 18.6111 18.9879 18.0931 19.4779C17.5751 19.9726 16.8121 20.2199 15.8041 20.2199ZM16.2591 16.3909C16.6045 16.3909 16.9405 16.3092 17.2671 16.1459C17.5938 15.9826 17.8575 15.7399 18.0581 15.4179V10.1539C17.9041 10.1119 17.7175 10.0769 17.4981 10.0489C17.2835 10.0209 17.0665 10.0069 16.8471 10.0069C15.9978 10.0069 15.3468 10.2589 14.8941 10.7629C14.4461 11.2622 14.2221 12.1022 14.2221 13.2829C14.2221 14.1089 14.3108 14.7459 14.4881 15.1939C14.6655 15.6419 14.9081 15.9546 15.2161 16.1319C15.5288 16.3046 15.8765 16.3909 16.2591 16.3909Z" fill="#131313"/>
</svg>
