<svg width="24" height="24" viewBox="0 0 24 24" fill="none" xmlns="http://www.w3.org/2000/svg">
<path d="M2.22871 16.9999L5.95971 6.63989H8.76671L12.5047 16.9999H10.5657L7.24071 7.49389H7.46471L4.13971 16.9999H2.22871ZM4.68571 14.0319L5.13371 12.5059H9.58571L10.0337 14.0319H4.68571ZM18.6128 17.0909C17.4181 17.0909 16.4241 16.9346 15.6308 16.6219C14.8421 16.3092 14.2518 15.8402 13.8598 15.2149C13.4678 14.5849 13.2718 13.7986 13.2718 12.8559C13.2718 11.9226 13.4748 11.1386 13.8808 10.5039C14.2868 9.86456 14.8818 9.38156 15.6658 9.05489C16.4498 8.72822 17.4088 8.56489 18.5428 8.56489C18.9068 8.56489 19.2708 8.58356 19.6348 8.62089C19.9988 8.65356 20.3348 8.70722 20.6428 8.78189V10.2939C20.3208 10.2192 19.9964 10.1656 19.6698 10.1329C19.3478 10.0956 19.0211 10.0769 18.6898 10.0769C17.9291 10.0769 17.2968 10.1749 16.7928 10.3709C16.2934 10.5669 15.9178 10.8726 15.6658 11.2879C15.4184 11.6986 15.2948 12.2306 15.2948 12.8839C15.2948 13.4906 15.4091 13.9946 15.6378 14.3959C15.8664 14.7972 16.2141 15.0982 16.6808 15.2989C17.1474 15.4996 17.7354 15.5999 18.4448 15.5999C18.7014 15.5999 18.9721 15.5906 19.2568 15.5719C19.5461 15.5486 19.8051 15.5182 20.0338 15.4809L19.1098 16.2579V12.9539H20.9228V16.9019C20.5354 16.9626 20.1434 17.0092 19.7468 17.0419C19.3548 17.0746 18.9768 17.0909 18.6128 17.0909Z" fill="#131313"/>
</svg>
