<svg width="24" height="24" viewBox="0 0 24 24" fill="none" xmlns="http://www.w3.org/2000/svg">
<path d="M11.2469 16.9999L10.5609 14.4379H7.27094L6.59194 16.9999H4.09994L7.03294 6.63989H10.8339L13.7599 16.9999H11.2469ZM7.82394 12.3379H10.0009L8.90894 8.24289L7.82394 12.3379ZM17.0429 20.2199C16.6463 20.2199 16.2379 20.1966 15.8179 20.1499C15.3979 20.1079 15.0036 20.0402 14.6349 19.9469V17.9729C15.4003 18.1689 16.1306 18.2669 16.8259 18.2669C17.4839 18.2669 17.9623 18.1386 18.2609 17.8819C18.5643 17.6252 18.7159 17.1982 18.7159 16.6009V16.1669H18.5969C18.4149 16.4516 18.1746 16.6709 17.8759 16.8249C17.5773 16.9789 17.2343 17.0559 16.8469 17.0559C16.3523 17.0559 15.8949 16.9206 15.4749 16.6499C15.0596 16.3746 14.7236 15.9569 14.4669 15.3969C14.2103 14.8322 14.0819 14.1346 14.0819 13.3039C14.0819 11.9646 14.4296 10.9472 15.1249 10.2519C15.8249 9.55189 16.8936 9.19956 18.3309 9.19489C18.8256 9.19489 19.3296 9.23456 19.8429 9.31389C20.3609 9.38856 20.8253 9.49822 21.2359 9.64289V16.1459C21.2359 17.0979 21.0819 17.8726 20.7739 18.4699C20.4659 19.0719 20.0039 19.5129 19.3879 19.7929C18.7719 20.0776 17.9903 20.2199 17.0429 20.2199ZM17.8969 14.9979C18.0509 14.9979 18.1979 14.9769 18.3379 14.9349C18.4826 14.8882 18.6086 14.8229 18.7159 14.7389V11.1619C18.5059 11.1199 18.3029 11.0989 18.1069 11.0989C17.6169 11.0989 17.2483 11.2506 17.0009 11.5539C16.7583 11.8572 16.6369 12.3682 16.6369 13.0869C16.6369 13.5769 16.6836 13.9619 16.7769 14.2419C16.8749 14.5219 17.0149 14.7179 17.1969 14.8299C17.3789 14.9419 17.6123 14.9979 17.8969 14.9979Z" fill="#131313"/>
</svg>
