<svg width="24" height="24" viewBox="0 0 24 24" fill="none" xmlns="http://www.w3.org/2000/svg">
<path d="M4.53728 16.9999L7.50528 6.63989H10.0253L12.9933 16.9999H11.2923L8.63928 7.43089H8.85628L6.21728 16.9999H4.53728ZM6.21028 14.0039L6.54628 12.5339H10.9773L11.3203 14.0039H6.21028ZM18.0169 17.0909C17.0462 17.0909 16.2319 16.9439 15.5739 16.6499C14.9159 16.3559 14.4189 15.8962 14.0829 15.2709C13.7469 14.6456 13.5789 13.8359 13.5789 12.8419C13.5789 11.8619 13.7469 11.0569 14.0829 10.4269C14.4189 9.79689 14.9112 9.33022 15.5599 9.02689C16.2085 8.71889 16.9972 8.56489 17.9259 8.56489C18.2572 8.56489 18.5699 8.58122 18.8639 8.61389C19.1625 8.64656 19.4425 8.70022 19.7039 8.77489V10.1609C19.4379 10.0862 19.1719 10.0326 18.9059 9.99989C18.6445 9.96256 18.3785 9.94389 18.1079 9.94389C17.4825 9.94389 16.9669 10.0349 16.5609 10.2169C16.1549 10.3989 15.8515 10.7022 15.6509 11.1269C15.4502 11.5516 15.3499 12.1279 15.3499 12.8559C15.3499 13.5652 15.4455 14.1299 15.6369 14.5499C15.8282 14.9699 16.1082 15.2709 16.4769 15.4529C16.8455 15.6302 17.3005 15.7189 17.8419 15.7189C18.0145 15.7189 18.1849 15.7142 18.3529 15.7049C18.5255 15.6909 18.6819 15.6722 18.8219 15.6489L18.3249 16.0619V12.9539H19.8929V16.9299C19.5662 16.9859 19.2442 17.0256 18.9269 17.0489C18.6142 17.0769 18.3109 17.0909 18.0169 17.0909Z" fill="#131313"/>
</svg>
