<svg width="24" height="24" viewBox="0 0 24 24" fill="none" xmlns="http://www.w3.org/2000/svg">
<path d="M4.54056 16.9999L8.11756 6.63989H9.24456L12.8286 16.9999H11.9746L8.57956 7.05989H8.76156L5.37356 16.9999H4.54056ZM6.24856 13.4859L6.45156 12.7579H10.9106L11.1136 13.4859H6.24856ZM17.9129 17.0629C16.9889 17.0629 16.2142 16.9229 15.5889 16.6429C14.9635 16.3582 14.4899 15.9056 14.1679 15.2849C13.8459 14.6642 13.6849 13.8499 13.6849 12.8419C13.6849 11.8199 13.8482 10.9962 14.1749 10.3709C14.5015 9.74089 14.9635 9.28356 15.5609 8.99889C16.1582 8.71422 16.8675 8.57189 17.6889 8.57189C18.0109 8.57189 18.3259 8.59056 18.6339 8.62789C18.9465 8.66522 19.2429 8.72356 19.5229 8.80289V9.52389C19.2009 9.43056 18.8929 9.36522 18.5989 9.32789C18.3095 9.29056 18.0202 9.27189 17.7309 9.27189C17.0635 9.27189 16.4919 9.38389 16.0159 9.60789C15.5399 9.83189 15.1759 10.2052 14.9239 10.7279C14.6719 11.2459 14.5459 11.9506 14.5459 12.8419C14.5459 13.7052 14.6695 14.3959 14.9169 14.9139C15.1642 15.4272 15.5329 15.7982 16.0229 16.0269C16.5175 16.2556 17.1335 16.3699 17.8709 16.3699C18.0995 16.3699 18.3259 16.3606 18.5499 16.3419C18.7785 16.3232 18.9909 16.2929 19.1869 16.2509L18.9069 16.5589V12.9539H19.6839V16.9089C19.3619 16.9696 19.0562 17.0092 18.7669 17.0279C18.4775 17.0512 18.1929 17.0629 17.9129 17.0629Z" fill="#131313"/>
</svg>
