<svg width="24" height="24" viewBox="0 0 24 24" fill="none" xmlns="http://www.w3.org/2000/svg">
<path d="M5.57278 16.9999L8.91878 6.63989H10.0178L13.3568 16.9999H12.5308L9.36678 7.05289H9.54178L6.38478 16.9999H5.57278ZM7.14778 13.4859L7.33678 12.7649H11.5858L11.7818 13.4859H7.14778ZM18.1469 17.0629C17.2789 17.0629 16.5485 16.9276 15.9559 16.6569C15.3679 16.3816 14.9222 15.9359 14.6189 15.3199C14.3155 14.6992 14.1639 13.8732 14.1639 12.8419C14.1639 11.8059 14.3132 10.9752 14.6119 10.3499C14.9105 9.72456 15.3399 9.27189 15.8999 8.99189C16.4645 8.71189 17.1389 8.57189 17.9229 8.57189C18.2122 8.57189 18.4992 8.58822 18.7839 8.62089C19.0732 8.65356 19.3485 8.70956 19.6099 8.78889V9.50289C19.3205 9.41422 19.0405 9.35122 18.7699 9.31389C18.4992 9.27656 18.2285 9.25789 17.9579 9.25789C17.3232 9.25789 16.7842 9.36756 16.3409 9.58689C15.9022 9.80622 15.5685 10.1772 15.3399 10.6999C15.1112 11.2179 14.9969 11.9342 14.9969 12.8489C14.9969 13.7356 15.1112 14.4379 15.3399 14.9559C15.5732 15.4692 15.9185 15.8356 16.3759 16.0549C16.8379 16.2696 17.4119 16.3769 18.0979 16.3769C18.2939 16.3769 18.4852 16.3699 18.6719 16.3559C18.8632 16.3372 19.0475 16.3116 19.2249 16.2789L18.9799 16.5519V12.9539H19.7429V16.9229C19.4395 16.9789 19.1595 17.0162 18.9029 17.0349C18.6509 17.0536 18.3989 17.0629 18.1469 17.0629Z" fill="#131313"/>
</svg>
