<svg width="24" height="24" viewBox="0 0 24 24" fill="none" xmlns="http://www.w3.org/2000/svg">
<path d="M11.7047 16.9999L10.6967 13.8149H6.77668L5.76868 16.9999H4.34768L7.71468 6.63989H9.77968L13.1397 16.9999H11.7047ZM7.15468 12.6109H10.3117L8.73668 7.62689L7.15468 12.6109ZM16.4091 20.2199C16.0545 20.2199 15.6881 20.1942 15.3101 20.1429C14.9321 20.0916 14.5868 20.0146 14.2741 19.9119V18.7499C14.9648 18.9692 15.6438 19.0789 16.3111 19.0789C16.8058 19.0789 17.2095 19.0089 17.5221 18.8689C17.8348 18.7336 18.0681 18.5096 18.2221 18.1969C18.3761 17.8842 18.4531 17.4689 18.4531 16.9509V16.2229H18.3761C18.1755 16.4889 17.9141 16.7012 17.5921 16.8599C17.2701 17.0139 16.9085 17.0909 16.5071 17.0909C15.9985 17.0909 15.5388 16.9649 15.1281 16.7129C14.7221 16.4609 14.3955 16.0549 14.1481 15.4949C13.9055 14.9349 13.7841 14.2186 13.7841 13.3459C13.7841 11.9879 14.1015 10.9706 14.7361 10.2939C15.3708 9.61256 16.3135 9.26956 17.5641 9.26489C17.9515 9.26489 18.3528 9.29756 18.7681 9.36289C19.1835 9.42356 19.5498 9.50756 19.8671 9.61489V16.7199C19.8671 17.5459 19.7388 18.2156 19.4821 18.7289C19.2301 19.2469 18.8498 19.6249 18.3411 19.8629C17.8325 20.1009 17.1885 20.2199 16.4091 20.2199ZM16.9901 15.9009C17.2795 15.9009 17.5548 15.8379 17.8161 15.7119C18.0775 15.5859 18.2898 15.4039 18.4531 15.1659V10.5039C18.1078 10.4292 17.7765 10.3919 17.4591 10.3919C16.7171 10.3919 16.1595 10.6136 15.7861 11.0569C15.4128 11.5002 15.2261 12.2189 15.2261 13.2129C15.2261 13.8989 15.2985 14.4402 15.4431 14.8369C15.5925 15.2289 15.7955 15.5042 16.0521 15.6629C16.3088 15.8216 16.6215 15.9009 16.9901 15.9009Z" fill="#131313"/>
</svg>
