<svg width="24" height="24" viewBox="0 0 24 24" fill="none" xmlns="http://www.w3.org/2000/svg">
<path d="M4.65027 16.9999L8.30427 6.63989H9.13027L12.7843 16.9999H12.1263L8.62627 6.97589H8.80127L5.30127 16.9999H4.65027ZM6.32327 13.3809L6.48427 12.8069H10.9503L11.1183 13.3809H6.32327ZM17.8222 17.0629C16.9262 17.0629 16.1725 16.9229 15.5612 16.6429C14.9499 16.3629 14.4855 15.9126 14.1682 15.2919C13.8555 14.6712 13.6992 13.8546 13.6992 12.8419C13.6992 11.8059 13.8579 10.9752 14.1752 10.3499C14.4925 9.72456 14.9405 9.27189 15.5192 8.99189C16.1025 8.71189 16.7862 8.57189 17.5702 8.57189C17.8875 8.57189 18.2002 8.59056 18.5082 8.62789C18.8209 8.66522 19.1149 8.72589 19.3902 8.80989V9.39089C19.0635 9.29289 18.7532 9.22522 18.4592 9.18789C18.1652 9.14589 17.8735 9.12489 17.5842 9.12489C16.9169 9.12489 16.3405 9.24156 15.8552 9.47489C15.3745 9.70822 15.0035 10.0956 14.7422 10.6369C14.4855 11.1736 14.3572 11.9086 14.3572 12.8419C14.3572 13.7379 14.4855 14.4542 14.7422 14.9909C14.9989 15.5276 15.3815 15.9149 15.8902 16.1529C16.4035 16.3909 17.0405 16.5099 17.8012 16.5099C18.0392 16.5099 18.2725 16.5006 18.5012 16.4819C18.7299 16.4632 18.9469 16.4306 19.1522 16.3839L18.9352 16.6499V12.9539H19.5442V16.9089C19.2269 16.9649 18.9282 17.0046 18.6482 17.0279C18.3682 17.0512 18.0929 17.0629 17.8222 17.0629Z" fill="#131313"/>
</svg>
