<svg width="24" height="24" viewBox="0 0 24 24" fill="none" xmlns="http://www.w3.org/2000/svg">
<path d="M11.1679 16.9999L10.0619 14.0389H5.39288L4.27988 16.9999H2.30588L6.29588 6.63989H9.17988L13.1699 16.9999H11.1679ZM5.96688 12.4989H9.48088L7.72388 7.81589L5.96688 12.4989ZM17.4221 20.2199C16.3908 20.2199 15.4248 20.0939 14.5241 19.8419V18.3089C15.5135 18.5842 16.4375 18.7219 17.2961 18.7219C17.9121 18.7219 18.4068 18.6519 18.7801 18.5119C19.1581 18.3719 19.4335 18.1502 19.6061 17.8469C19.7835 17.5482 19.8721 17.1516 19.8721 16.6569V16.1459H19.7741C19.4755 16.4352 19.1231 16.6569 18.7171 16.8109C18.3111 16.9602 17.8608 17.0349 17.3661 17.0349C16.7315 17.0349 16.1575 16.8996 15.6441 16.6289C15.1355 16.3536 14.7318 15.9382 14.4331 15.3829C14.1345 14.8276 13.9851 14.1486 13.9851 13.3459C13.9851 12.0252 14.3795 11.0126 15.1681 10.3079C15.9568 9.59856 17.1141 9.24389 18.6401 9.24389C19.1815 9.24389 19.7345 9.28122 20.2991 9.35589C20.8638 9.43056 21.3795 9.53556 21.8461 9.67089V16.2929C21.8461 17.2076 21.6875 17.9542 21.3701 18.5329C21.0528 19.1116 20.5675 19.5362 19.9141 19.8069C19.2655 20.0822 18.4348 20.2199 17.4221 20.2199ZM18.0241 15.4459C18.3695 15.4459 18.7031 15.3899 19.0251 15.2779C19.3471 15.1659 19.6295 14.9956 19.8721 14.7669V10.9029C19.4335 10.7956 18.9645 10.7419 18.4651 10.7419C16.7898 10.7419 15.9521 11.5562 15.9521 13.1849C15.9521 13.9782 16.1341 14.5546 16.4981 14.9139C16.8668 15.2686 17.3755 15.4459 18.0241 15.4459Z" fill="#131313"/>
</svg>
