<svg width="24" height="24" viewBox="0 0 24 24" fill="none" xmlns="http://www.w3.org/2000/svg">
<path d="M5.43558 16.9999L8.85158 6.63989H9.66358L13.0796 16.9999H12.4356L9.16658 6.97589H9.33458L6.07258 16.9999H5.43558ZM6.98958 13.3809L7.15058 12.8069H11.3646L11.5256 13.3809H6.98958ZM16.017 20.2199C15.7323 20.2199 15.4313 20.1919 15.114 20.1359C14.8013 20.0846 14.5213 20.0122 14.274 19.9189V19.3379C14.5866 19.4499 14.8853 19.5316 15.17 19.5829C15.4546 19.6342 15.7323 19.6599 16.003 19.6599C16.7076 19.6599 17.2396 19.4849 17.599 19.1349C17.9583 18.7849 18.138 18.1642 18.138 17.2729V16.2929H18.096C17.928 16.5076 17.6946 16.7012 17.396 16.8739C17.0973 17.0419 16.7426 17.1259 16.332 17.1259C15.8933 17.1259 15.485 17.0139 15.107 16.7899C14.7336 16.5612 14.4303 16.1762 14.197 15.6349C13.9636 15.0889 13.847 14.3329 13.847 13.3669C13.847 11.9529 14.1293 10.9262 14.694 10.2869C15.2633 9.64289 16.059 9.32089 17.081 9.32089C17.2676 9.32089 17.4613 9.33256 17.662 9.35589C17.8673 9.37922 18.0656 9.41189 18.257 9.45389C18.4483 9.49122 18.614 9.53322 18.754 9.57989V17.2169C18.754 18.3089 18.5206 19.0812 18.054 19.5339C17.5873 19.9912 16.9083 20.2199 16.017 20.2199ZM16.43 16.5519C16.7613 16.5519 17.0856 16.4656 17.403 16.2929C17.7203 16.1156 17.9653 15.8589 18.138 15.5229V10.0069C18.0026 9.97422 17.8346 9.94389 17.634 9.91589C17.438 9.88789 17.249 9.87389 17.067 9.87389C16.2456 9.87389 15.611 10.1329 15.163 10.6509C14.715 11.1689 14.491 12.0532 14.491 13.3039C14.491 14.1859 14.5773 14.8602 14.75 15.3269C14.9226 15.7936 15.156 16.1156 15.45 16.2929C15.744 16.4656 16.0706 16.5519 16.43 16.5519Z" fill="#131313"/>
</svg>
