<svg width="24" height="24" viewBox="0 0 24 24" fill="none" xmlns="http://www.w3.org/2000/svg">
<path d="M5.25817 16.9999L8.73017 6.63989H9.33217L12.8042 16.9999H12.2862L8.94017 6.91989H9.10817L5.76217 16.9999H5.25817ZM6.79817 13.3039L6.93817 12.8419H11.1242L11.2642 13.3039H6.79817ZM17.5142 17.0559C16.6835 17.0559 15.9835 16.9229 15.4142 16.6569C14.8495 16.3909 14.4202 15.9499 14.1262 15.3339C13.8369 14.7179 13.6922 13.8872 13.6922 12.8419C13.6922 11.7826 13.8345 10.9426 14.1192 10.3219C14.4085 9.69656 14.8192 9.24856 15.3512 8.97789C15.8832 8.70722 16.5155 8.57189 17.2482 8.57189C17.5235 8.57189 17.8035 8.59056 18.0882 8.62789C18.3729 8.66056 18.6435 8.71656 18.9002 8.79589V9.27189C18.6015 9.17856 18.3145 9.11322 18.0392 9.07589C17.7685 9.03856 17.5002 9.01989 17.2342 9.01989C16.5949 9.01989 16.0489 9.13656 15.5962 9.36989C15.1435 9.59856 14.7959 9.99056 14.5532 10.5459C14.3152 11.1012 14.1962 11.8666 14.1962 12.8419C14.1962 13.7939 14.3175 14.5452 14.5602 15.0959C14.8075 15.6419 15.1762 16.0316 15.6662 16.2649C16.1609 16.4936 16.7769 16.6079 17.5142 16.6079C17.7195 16.6079 17.9202 16.6009 18.1162 16.5869C18.3122 16.5682 18.5035 16.5379 18.6902 16.4959L18.5362 16.7199V12.9539H19.0122V16.9159C18.7182 16.9719 18.4545 17.0092 18.2212 17.0279C17.9879 17.0466 17.7522 17.0559 17.5142 17.0559Z" fill="#131313"/>
</svg>
