<svg width="24" height="24" viewBox="0 0 24 24" fill="none" xmlns="http://www.w3.org/2000/svg">
<path d="M4.11182 16.9999L6.78582 6.63989H10.4188L13.0928 16.9999H10.6988L8.45882 7.73189H8.69682L6.47782 16.9999H4.11182ZM5.85482 14.4169L6.30982 12.3589H10.8808L11.3358 14.4169H5.85482ZM18.3102 17.1189C17.2556 17.1189 16.3712 16.9649 15.6572 16.6569C14.9432 16.3442 14.4066 15.8729 14.0472 15.2429C13.6879 14.6082 13.5082 13.8079 13.5082 12.8419C13.5082 11.9132 13.6902 11.1316 14.0542 10.4969C14.4229 9.85756 14.9642 9.37456 15.6782 9.04789C16.3922 8.72122 17.2742 8.55789 18.3242 8.55789C18.6882 8.55789 19.0196 8.57422 19.3182 8.60689C19.6216 8.63956 19.9039 8.69089 20.1652 8.76089V10.6719C19.9226 10.6112 19.6706 10.5646 19.4092 10.5319C19.1526 10.4992 18.8866 10.4829 18.6112 10.4829C17.9952 10.4829 17.4959 10.5599 17.1132 10.7139C16.7352 10.8632 16.4576 11.1129 16.2802 11.4629C16.1076 11.8082 16.0212 12.2749 16.0212 12.8629C16.0212 13.4322 16.1006 13.8896 16.2592 14.2349C16.4179 14.5756 16.6466 14.8229 16.9452 14.9769C17.2439 15.1309 17.6056 15.2079 18.0302 15.2079C18.1796 15.2079 18.3312 15.2009 18.4852 15.1869C18.6439 15.1729 18.7792 15.1612 18.8912 15.1519L18.1982 15.6769V12.9539H20.4032V16.9369C20.0579 16.9929 19.7032 17.0372 19.3392 17.0699C18.9752 17.1026 18.6322 17.1189 18.3102 17.1189Z" fill="#131313"/>
</svg>
