<svg width="24" height="24" viewBox="0 0 24 24" fill="none" xmlns="http://www.w3.org/2000/svg">
<path d="M12.6973 14.9951C12.6973 15.1546 12.7132 15.2891 12.7451 15.3984C12.777 15.5033 12.818 15.5898 12.8682 15.6582C12.9229 15.722 12.9821 15.7699 13.0459 15.8018C13.1097 15.8291 13.1758 15.8428 13.2441 15.8428C13.3125 15.8428 13.3786 15.8291 13.4424 15.8018C13.5062 15.7699 13.5632 15.738 13.6133 15.7061C13.668 15.6696 13.7158 15.6377 13.7568 15.6104C13.8024 15.5785 13.8411 15.5625 13.873 15.5625C13.9323 15.5625 13.9619 15.5967 13.9619 15.665C13.9619 15.6878 13.9505 15.7174 13.9277 15.7539C13.9095 15.7858 13.8913 15.8132 13.873 15.8359C13.7956 15.9408 13.7113 16.041 13.6201 16.1367C13.5335 16.237 13.4378 16.3236 13.333 16.3965C13.2327 16.474 13.1257 16.5355 13.0117 16.5811C12.9023 16.6266 12.7884 16.6494 12.6699 16.6494C12.4557 16.6494 12.278 16.5993 12.1367 16.499C12 16.3988 11.8906 16.2712 11.8086 16.1162C11.7266 15.9658 11.6673 15.7995 11.6309 15.6172C11.5944 15.4349 11.5739 15.2594 11.5693 15.0908C11.4554 15.3232 11.3346 15.5238 11.207 15.6924C11.0794 15.861 10.9518 16.0068 10.8242 16.1299C10.6055 16.3395 10.3662 16.5104 10.1064 16.6426C9.85124 16.7793 9.55957 16.8477 9.23145 16.8477C8.87142 16.8477 8.53874 16.7633 8.2334 16.5947C7.92806 16.4307 7.66374 16.1846 7.44043 15.8564C7.21712 15.5238 7.04167 15.109 6.91406 14.6123C6.79102 14.1156 6.72949 13.5368 6.72949 12.876C6.72949 12.3519 6.77279 11.8597 6.85938 11.3994C6.94596 10.9346 7.0599 10.5039 7.20117 10.1074C7.34245 9.70638 7.50423 9.3418 7.68652 9.01367C7.87337 8.68099 8.06478 8.38249 8.26074 8.11816C8.46126 7.84928 8.65951 7.61914 8.85547 7.42773C9.05143 7.23177 9.23145 7.06999 9.39551 6.94238C9.514 6.85124 9.64616 6.76237 9.79199 6.67578C9.93783 6.58919 10.0928 6.51172 10.2568 6.44336C10.4255 6.375 10.6009 6.32031 10.7832 6.2793C10.9701 6.23828 11.1637 6.21777 11.3643 6.21777C11.6012 6.21777 11.8519 6.25879 12.1162 6.34082C12.3805 6.42285 12.6243 6.55046 12.8477 6.72363C13.071 6.89225 13.2555 7.111 13.4014 7.37988C13.5518 7.64876 13.627 7.96777 13.627 8.33691C13.627 8.54199 13.5951 8.75163 13.5312 8.96582C13.472 9.18001 13.3717 9.39648 13.2305 9.61523C13.1074 9.80664 12.9661 9.96615 12.8066 10.0938C12.6471 10.2168 12.4831 10.3171 12.3145 10.3945C12.1504 10.472 11.9863 10.5267 11.8223 10.5586C11.6582 10.5905 11.5124 10.6064 11.3848 10.6064C11.1979 10.6064 11.0589 10.5837 10.9678 10.5381C10.8766 10.4925 10.8311 10.4424 10.8311 10.3877C10.8311 10.3604 10.8447 10.3285 10.8721 10.292C10.904 10.2555 10.9495 10.2259 11.0088 10.2031C11.0817 10.1712 11.1934 10.1325 11.3438 10.0869C11.4987 10.0368 11.6536 9.95703 11.8086 9.84766C11.9681 9.73828 12.1071 9.58561 12.2256 9.38965C12.3441 9.18913 12.4033 8.9248 12.4033 8.59668C12.4033 8.25488 12.3646 7.97233 12.2871 7.74902C12.2096 7.52572 12.1094 7.34798 11.9863 7.21582C11.8633 7.08366 11.7243 6.99023 11.5693 6.93555C11.4189 6.88086 11.2663 6.85352 11.1113 6.85352C10.8835 6.85352 10.6602 6.91048 10.4414 7.02441C10.2227 7.13379 10.013 7.28874 9.8125 7.48926C9.61654 7.68522 9.42969 7.91992 9.25195 8.19336C9.07878 8.46224 8.92155 8.75391 8.78027 9.06836C8.639 9.37826 8.51595 9.70638 8.41113 10.0527C8.30632 10.3945 8.22428 10.7386 8.16504 11.085C8.10579 11.4268 8.0625 11.7458 8.03516 12.042C8.01237 12.3337 8.00098 12.6094 8.00098 12.8691C8.00098 13.4069 8.05111 13.8626 8.15137 14.2363C8.25618 14.6055 8.39062 14.9062 8.55469 15.1387C8.72331 15.3711 8.91471 15.5397 9.12891 15.6445C9.3431 15.7493 9.56185 15.8018 9.78516 15.8018C9.95833 15.8018 10.1383 15.7653 10.3252 15.6924C10.512 15.6195 10.6875 15.5192 10.8516 15.3916C11.0202 15.2594 11.1683 15.1022 11.2959 14.9199C11.4235 14.7376 11.5146 14.5371 11.5693 14.3184C11.5785 14.2637 11.5921 14.1589 11.6104 14.0039C11.6286 13.849 11.6468 13.6712 11.665 13.4707C11.6833 13.2702 11.7038 13.0605 11.7266 12.8418C11.7493 12.6185 11.7721 12.4134 11.7949 12.2266C11.8177 12.0352 11.8405 11.8734 11.8633 11.7412C11.8861 11.609 11.9089 11.5316 11.9316 11.5088C11.9499 11.4951 11.9772 11.4792 12.0137 11.4609C12.041 11.4473 12.0775 11.4359 12.123 11.4268C12.1732 11.4131 12.2347 11.4062 12.3076 11.4062C12.3213 11.4062 12.3372 11.4085 12.3555 11.4131C12.3737 11.4131 12.3919 11.4131 12.4102 11.4131C12.4193 11.4131 12.4307 11.4062 12.4443 11.3926C12.458 11.3789 12.4694 11.363 12.4785 11.3447C12.4922 11.3265 12.5059 11.3014 12.5195 11.2695C12.5332 11.2422 12.5537 11.2148 12.5811 11.1875C12.613 11.1602 12.6471 11.1351 12.6836 11.1123C12.7246 11.085 12.7656 11.0645 12.8066 11.0508C12.8477 11.0326 12.8864 11.0234 12.9229 11.0234C12.9593 11.0234 12.9912 11.0371 13.0186 11.0645C13.0459 11.0872 13.0596 11.1283 13.0596 11.1875C13.0596 11.2194 13.0573 11.2467 13.0527 11.2695C13.0391 11.3424 13.0208 11.4632 12.998 11.6318C12.9753 11.7959 12.9502 11.9896 12.9229 12.2129C12.8955 12.4362 12.8682 12.6755 12.8408 12.9307C12.8135 13.1859 12.7884 13.4411 12.7656 13.6963C12.7474 13.9469 12.7314 14.1862 12.7178 14.4141C12.7041 14.6374 12.6973 14.8311 12.6973 14.9951ZM16.4707 11.5703C16.571 11.5703 16.6553 11.5908 16.7236 11.6318C16.792 11.6729 16.8467 11.7253 16.8877 11.7891C16.9287 11.8529 16.9561 11.9258 16.9697 12.0078C16.988 12.0898 16.9971 12.1742 16.9971 12.2607C16.9971 12.3929 16.9743 12.5387 16.9287 12.6982C16.8877 12.8532 16.8239 13.0013 16.7373 13.1426C16.6553 13.2839 16.5527 13.4023 16.4297 13.498C16.3066 13.5892 16.1676 13.6348 16.0127 13.6348C15.9124 13.6348 15.8623 13.5983 15.8623 13.5254C15.8623 13.4753 15.8783 13.4046 15.9102 13.3135C15.9421 13.2178 15.958 13.0902 15.958 12.9307C15.958 12.8896 15.9557 12.8418 15.9512 12.7871C15.9466 12.7324 15.9352 12.68 15.917 12.6299C15.8988 12.5798 15.8737 12.5365 15.8418 12.5C15.8099 12.4635 15.7643 12.4453 15.7051 12.4453C15.5911 12.4453 15.4886 12.4977 15.3975 12.6025C15.3063 12.7028 15.2266 12.8304 15.1582 12.9854C15.0944 13.1403 15.0443 13.3089 15.0078 13.4912C14.9759 13.6735 14.96 13.8444 14.96 14.0039C14.96 14.1725 14.9759 14.3138 15.0078 14.4277C15.0397 14.5371 15.083 14.626 15.1377 14.6943C15.1924 14.7627 15.2539 14.8105 15.3223 14.8379C15.3952 14.8652 15.4704 14.8789 15.5479 14.8789C15.7301 14.8789 15.8874 14.8288 16.0195 14.7285C16.1562 14.6283 16.2725 14.5189 16.3682 14.4004C16.4684 14.2819 16.5482 14.1725 16.6074 14.0723C16.6712 13.972 16.7214 13.9219 16.7578 13.9219C16.8079 13.9219 16.8353 13.9629 16.8398 14.0449C16.8444 14.127 16.8467 14.2204 16.8467 14.3252C16.8467 14.4072 16.8421 14.5326 16.833 14.7012C16.8285 14.8652 16.8193 15.0498 16.8057 15.2549C16.7965 15.46 16.7852 15.6764 16.7715 15.9043C16.7578 16.1322 16.7441 16.3486 16.7305 16.5537C16.7168 16.7633 16.7031 16.9525 16.6895 17.1211C16.6803 17.2897 16.6735 17.4196 16.6689 17.5107C16.6462 17.9072 16.6234 18.2445 16.6006 18.5225C16.5778 18.805 16.555 19.0443 16.5322 19.2402C16.5094 19.4362 16.4867 19.5934 16.4639 19.7119C16.4456 19.835 16.4251 19.9375 16.4023 20.0195C16.3841 20.0879 16.3499 20.1403 16.2998 20.1768C16.2542 20.2178 16.2041 20.2497 16.1494 20.2725C16.0947 20.2952 16.04 20.3135 15.9854 20.3271C15.9352 20.3408 15.8965 20.359 15.8691 20.3818C15.7507 20.4775 15.6549 20.5505 15.582 20.6006C15.5137 20.6507 15.4544 20.6758 15.4043 20.6758C15.3678 20.6758 15.3337 20.6621 15.3018 20.6348C15.2744 20.6074 15.2607 20.5618 15.2607 20.498C15.2607 20.4753 15.263 20.4365 15.2676 20.3818C15.2767 20.3317 15.2858 20.2884 15.2949 20.252C15.2949 20.2383 15.2972 20.2178 15.3018 20.1904C15.3109 20.1631 15.32 20.1152 15.3291 20.0469C15.3382 19.9785 15.3519 19.8851 15.3701 19.7666C15.3883 19.6527 15.4111 19.4977 15.4385 19.3018C15.4658 19.1058 15.4977 18.8643 15.5342 18.5771C15.5706 18.2946 15.6139 17.9528 15.6641 17.5518C15.6777 17.4515 15.6937 17.3148 15.7119 17.1416C15.7301 16.9684 15.7507 16.777 15.7734 16.5674C15.7962 16.3623 15.819 16.1481 15.8418 15.9248C15.8646 15.7015 15.8828 15.4896 15.8965 15.2891C15.8965 15.2617 15.8896 15.248 15.876 15.248C15.8623 15.248 15.8441 15.2663 15.8213 15.3027C15.8031 15.3392 15.7757 15.387 15.7393 15.4463C15.7028 15.501 15.6572 15.5625 15.6025 15.6309C15.5524 15.6992 15.4886 15.7676 15.4111 15.8359C15.3337 15.9043 15.2448 15.9635 15.1445 16.0137C15.0443 16.0684 14.9395 16.0957 14.8301 16.0957C14.7253 16.0957 14.6227 16.0615 14.5225 15.9932C14.4268 15.9248 14.3424 15.8337 14.2695 15.7197C14.1921 15.6012 14.1328 15.4622 14.0918 15.3027C14.0462 15.1432 14.0234 14.9723 14.0234 14.79C14.0234 14.3936 14.0872 14.0221 14.2148 13.6758C14.3379 13.3294 14.5407 12.9785 14.8232 12.623C14.96 12.4544 15.1035 12.304 15.2539 12.1719C15.4043 12.0397 15.5524 11.9303 15.6982 11.8438C15.8486 11.7526 15.9899 11.6842 16.1221 11.6387C16.2588 11.5931 16.375 11.5703 16.4707 11.5703Z" fill="#131313"/>
</svg>
