<svg width="24" height="24" viewBox="0 0 24 24" fill="none" xmlns="http://www.w3.org/2000/svg">
<path d="M12.9002 16.2019V16.9999H9.44222V16.2299L10.1702 16.1039C10.4129 16.0572 10.5342 15.9452 10.5342 15.7679C10.5342 15.6839 10.5156 15.5859 10.4782 15.4739L9.86222 13.6539H6.11022L5.48022 15.4319C5.44289 15.5626 5.42422 15.6652 5.42422 15.7399C5.42422 15.9359 5.55022 16.0572 5.80222 16.1039L6.50222 16.2299V16.9999H3.26822V16.2019L3.75822 16.1039C3.94489 16.0666 4.08022 16.0106 4.16422 15.9359C4.24822 15.8519 4.33222 15.6932 4.41622 15.4599L7.46822 6.91992H8.78422L11.7242 15.4599C11.7989 15.6839 11.8782 15.8379 11.9622 15.9219C12.0556 16.0059 12.2002 16.0666 12.3962 16.1039L12.9002 16.2019ZM9.54022 12.7159L8.19622 8.75392L8.01422 8.05392L7.83222 8.75392L6.43222 12.7159H9.54022ZM19.4641 10.5879C19.1375 10.8119 18.7688 10.9332 18.3581 10.9519C18.7221 11.3999 18.9041 11.9319 18.9041 12.5479C18.9041 13.0706 18.7735 13.5372 18.5121 13.9479C18.2601 14.3586 17.9101 14.6806 17.4621 14.9139C17.0141 15.1379 16.5101 15.2499 15.9501 15.2499C15.8475 15.2499 15.6935 15.2406 15.4881 15.2219L15.0961 16.0899C15.0961 16.2392 15.1801 16.3279 15.3481 16.3559C15.8801 16.4586 16.3841 16.5426 16.8601 16.6079L17.8961 16.7759C18.3815 16.8506 18.7408 16.9952 18.9741 17.2099C19.2168 17.4339 19.3381 17.7419 19.3381 18.1339C19.3381 18.5539 19.1981 18.9459 18.9181 19.3099C18.6381 19.6739 18.2461 19.9632 17.7421 20.1779C17.2381 20.3926 16.6688 20.4999 16.0341 20.4999C15.4181 20.4999 14.8488 20.4252 14.3261 20.2759C13.8035 20.1266 13.4021 19.9259 13.1221 19.6739L13.4161 17.9519H14.2001L14.2141 19.0439C14.4195 19.1932 14.7181 19.3146 15.1101 19.4079C15.5021 19.5106 15.9361 19.5619 16.4121 19.5619C16.9908 19.5619 17.4388 19.4546 17.7561 19.2399C18.0735 19.0346 18.2321 18.7452 18.2321 18.3719C18.2321 18.1946 18.1621 18.0546 18.0221 17.9519C17.8915 17.8586 17.6815 17.7886 17.3921 17.7419L16.9161 17.6719C15.8148 17.4946 15.1615 17.3872 14.9561 17.3499C14.6295 17.2846 14.3868 17.1679 14.2281 16.9999C14.0788 16.8226 14.0041 16.5846 14.0041 16.2859L14.7881 15.0539C14.3028 14.8766 13.9295 14.5872 13.6681 14.1859C13.4068 13.7846 13.2761 13.2899 13.2761 12.7019C13.2761 12.1886 13.3975 11.7406 13.6401 11.3579C13.8921 10.9659 14.2421 10.6626 14.6901 10.4479C15.1475 10.2332 15.6748 10.1259 16.2721 10.1259C17.1495 10.1259 17.7701 10.1119 18.1341 10.0839C18.4981 10.0559 18.9415 9.97192 19.4641 9.83192V10.5879ZM16.1881 14.4239C16.7388 14.4239 17.1308 14.2792 17.3641 13.9899C17.6068 13.7006 17.7281 13.2572 17.7281 12.6599C17.7281 12.0999 17.5835 11.6706 17.2941 11.3719C17.0048 11.0639 16.5661 10.9099 15.9781 10.9099C15.3808 10.9099 14.9748 11.0499 14.7601 11.3299C14.5548 11.6006 14.4521 12.0532 14.4521 12.6879C14.4521 13.2479 14.5968 13.6772 14.8861 13.9759C15.1755 14.2746 15.6095 14.4239 16.1881 14.4239Z" fill="#131313"/>
</svg>
