<svg width="24" height="24" viewBox="0 0 24 24" fill="none" xmlns="http://www.w3.org/2000/svg">
<path d="M12.8739 15.7119V16.9999H8.95386V15.7399L9.45786 15.6279C9.58853 15.5999 9.68186 15.5672 9.73786 15.5299C9.80319 15.4832 9.83586 15.4226 9.83586 15.3479C9.83586 15.2919 9.81253 15.1846 9.76586 15.0259L9.44386 14.0179H6.29386L5.98586 14.9839C5.92986 15.1332 5.90186 15.2406 5.90186 15.3059C5.90186 15.4646 6.03719 15.5719 6.30786 15.6279L6.78386 15.7399V16.9999H3.24186V15.7119L3.53586 15.6279C3.73186 15.5812 3.86719 15.5252 3.94186 15.4599C4.02586 15.3852 4.10986 15.2266 4.19386 14.9839L7.03586 6.91992H9.10786L11.9219 14.9839C12.0059 15.2266 12.0852 15.3806 12.1599 15.4459C12.2345 15.5112 12.3792 15.5719 12.5939 15.6279L12.8739 15.7119ZM8.95386 12.5339L7.94586 9.39792L7.86186 9.00592L7.76386 9.39792L6.76986 12.5339H8.95386ZM18.3611 16.4119C18.7718 16.4959 19.0891 16.6592 19.3131 16.9019C19.5371 17.1446 19.6491 17.4712 19.6491 17.8819C19.6491 18.3392 19.4951 18.7686 19.1871 19.1699C18.8884 19.5712 18.4638 19.8932 17.9131 20.1359C17.3718 20.3786 16.7511 20.4999 16.0511 20.4999C15.3978 20.4999 14.7958 20.4252 14.2451 20.2759C13.7038 20.1266 13.2698 19.9259 12.9431 19.6739L13.2791 17.8119H14.4971L14.4831 18.6799C15.0524 18.9506 15.7711 19.0859 16.6391 19.0859C17.0684 19.0859 17.3998 19.0252 17.6331 18.9039C17.8758 18.7919 17.9971 18.6426 17.9971 18.4559C17.9971 18.2132 17.8711 18.0732 17.6191 18.0359L16.2891 17.8119C16.3358 17.8212 15.8504 17.7372 14.8331 17.5599C14.4784 17.4946 14.2031 17.3546 14.0071 17.1399C13.8204 16.9346 13.7271 16.6359 13.7271 16.2439L14.5811 15.0259C14.0864 14.8299 13.6898 14.5312 13.3911 14.1299C13.1018 13.7286 12.9571 13.2526 12.9571 12.7019C12.9571 12.2352 13.0784 11.8012 13.3211 11.3999C13.5638 10.9892 13.9324 10.6626 14.4271 10.4199C14.9311 10.1679 15.5518 10.0419 16.2891 10.0419C17.0824 10.0419 17.6331 10.0372 17.9411 10.0279C18.2584 10.0186 18.5198 9.99525 18.7251 9.95792C18.9304 9.92059 19.2338 9.84592 19.6351 9.73392V10.8539C19.5698 10.9192 19.4624 10.9939 19.3131 11.0779C19.1731 11.1526 19.0284 11.2086 18.8791 11.2459C18.9818 11.4232 19.0611 11.6426 19.1171 11.9039C19.1824 12.1652 19.2151 12.4126 19.2151 12.6459C19.2151 13.1406 19.0704 13.5886 18.7811 13.9899C18.5011 14.3819 18.1138 14.6946 17.6191 14.9279C17.1244 15.1519 16.5644 15.2639 15.9391 15.2639C15.7711 15.2639 15.6498 15.2592 15.5751 15.2499L15.3651 15.6979C15.3651 15.8006 15.3978 15.8752 15.4631 15.9219C15.5284 15.9686 15.6638 16.0106 15.8691 16.0479C16.0838 16.0759 16.2891 16.1039 16.4851 16.1319C16.6811 16.1599 16.8678 16.1879 17.0451 16.2159C17.6424 16.2906 18.0811 16.3559 18.3611 16.4119ZM16.0371 11.2599C15.6451 11.2599 15.3651 11.3532 15.1971 11.5399C15.0384 11.7266 14.9591 12.0486 14.9591 12.5059C14.9591 13.5046 15.3558 14.0039 16.1491 14.0039C16.5411 14.0039 16.8164 13.8966 16.9751 13.6819C17.1338 13.4579 17.2131 13.1032 17.2131 12.6179C17.2131 12.1326 17.1151 11.7872 16.9191 11.5819C16.7324 11.3672 16.4384 11.2599 16.0371 11.2599Z" fill="#131313"/>
</svg>
