<svg width="24" height="24" viewBox="0 0 24 24" fill="none" xmlns="http://www.w3.org/2000/svg">
<path d="M3.0377 16.9999L7.9097 6.66089H10.8217L11.2697 16.9999H9.4497L9.1977 7.80189H9.2117L5.0187 16.9999H3.0377ZM5.3057 14.4869L5.6067 13.0099H10.4157L10.1147 14.4869H5.3057ZM15.7155 20.1709C15.3235 20.1709 14.9268 20.1336 14.5255 20.0589C14.1288 19.9842 13.7625 19.8629 13.4265 19.6949C13.0905 19.5316 12.8198 19.3192 12.6145 19.0579C12.4138 18.8012 12.3135 18.4886 12.3135 18.1199C12.3135 18.0172 12.3205 17.9216 12.3345 17.8329C12.3438 17.7442 12.3578 17.6556 12.3765 17.5669H14.2175C14.2081 17.6182 14.2011 17.6649 14.1965 17.7069C14.1918 17.7489 14.1895 17.7909 14.1895 17.8329C14.1895 18.0429 14.2595 18.2202 14.3995 18.3649C14.5441 18.5096 14.7401 18.6169 14.9875 18.6869C15.2395 18.7616 15.5218 18.7989 15.8345 18.7989C16.2125 18.7989 16.5601 18.7382 16.8775 18.6169C17.1948 18.4956 17.4655 18.2926 17.6895 18.0079C17.9181 17.7232 18.0838 17.3452 18.1865 16.8739L19.7335 9.56589H21.5815L20.0275 16.8739C19.8968 17.5039 19.6915 18.0289 19.4115 18.4489C19.1315 18.8736 18.7955 19.2119 18.4035 19.4639C18.0161 19.7159 17.5915 19.8956 17.1295 20.0029C16.6721 20.1149 16.2008 20.1709 15.7155 20.1709ZM15.9325 17.1539C15.3818 17.1539 14.8801 17.0419 14.4275 16.8179C13.9748 16.5892 13.6155 16.2439 13.3495 15.7819C13.0835 15.3199 12.9505 14.7412 12.9505 14.0459C12.9505 13.3972 13.0578 12.7952 13.2725 12.2399C13.4871 11.6799 13.7905 11.1899 14.1825 10.7699C14.5745 10.3499 15.0341 10.0232 15.5615 9.78989C16.0935 9.55656 16.6721 9.43989 17.2975 9.43989C17.7968 9.43989 18.2495 9.54022 18.6555 9.74089C19.0661 9.94156 19.3905 10.2356 19.6285 10.6229C19.8665 11.0056 19.9855 11.4722 19.9855 12.0229C19.9855 12.1582 19.9738 12.3192 19.9505 12.5059C19.9318 12.6926 19.9038 12.8512 19.8665 12.9819L19.0125 13.0029C19.0311 12.9329 19.0451 12.8442 19.0545 12.7369C19.0685 12.6296 19.0755 12.5386 19.0755 12.4639C19.0755 12.1419 19.0031 11.8736 18.8585 11.6589C18.7138 11.4396 18.5201 11.2762 18.2775 11.1689C18.0395 11.0569 17.7758 11.0009 17.4865 11.0009C17.0945 11.0009 16.7398 11.0732 16.4225 11.2179C16.1051 11.3579 15.8321 11.5539 15.6035 11.8059C15.3795 12.0579 15.2068 12.3566 15.0855 12.7019C14.9641 13.0472 14.9035 13.4206 14.9035 13.8219C14.9035 14.2186 14.9735 14.5452 15.1135 14.8019C15.2581 15.0586 15.4541 15.2499 15.7015 15.3759C15.9535 15.4972 16.2358 15.5579 16.5485 15.5579C16.8891 15.5579 17.2205 15.4832 17.5425 15.3339C17.8691 15.1846 18.1515 14.9629 18.3895 14.6689C18.6321 14.3749 18.7978 14.0179 18.8865 13.5979L19.7615 13.6819C19.6028 14.4286 19.3321 15.0609 18.9495 15.5789C18.5668 16.0969 18.1141 16.4889 17.5915 16.7549C17.0688 17.0209 16.5158 17.1539 15.9325 17.1539Z" fill="#131313"/>
</svg>
