<svg width="24" height="24" viewBox="0 0 24 24" fill="none" xmlns="http://www.w3.org/2000/svg">
<path d="M3.52694 16.9999L6.19394 6.66089H9.10594L11.7519 16.9999H9.85494L7.64294 7.80189H7.65694L5.42394 16.9999H3.52694ZM5.24894 14.4869V13.0099H10.0509V14.4869H5.24894ZM18.1134 16.2649C18.5521 16.3069 18.9371 16.3886 19.2684 16.5099C19.5997 16.6312 19.8587 16.8109 20.0454 17.0489C20.2321 17.2916 20.3254 17.6136 20.3254 18.0149C20.3254 18.4629 20.1737 18.8502 19.8704 19.1769C19.5671 19.5036 19.1214 19.7556 18.5334 19.9329C17.9501 20.1102 17.2314 20.1989 16.3774 20.1989C15.1361 20.1989 14.1817 20.0192 13.5144 19.6599C12.8471 19.3052 12.5134 18.8222 12.5134 18.2109C12.5134 18.0382 12.5344 17.8819 12.5764 17.7419C12.6184 17.6019 12.6697 17.4852 12.7304 17.3919L14.4174 17.6369C14.3894 17.6742 14.3614 17.7326 14.3334 17.8119C14.3054 17.8959 14.2914 17.9962 14.2914 18.1129C14.2914 18.4022 14.4851 18.6099 14.8724 18.7359C15.2644 18.8666 15.7847 18.9319 16.4334 18.9319C16.9094 18.9319 17.3061 18.8992 17.6234 18.8339C17.9454 18.7686 18.1881 18.6752 18.3514 18.5539C18.5194 18.4326 18.6034 18.2902 18.6034 18.1269C18.6034 17.8842 18.4937 17.7279 18.2744 17.6579C18.0551 17.5879 17.7937 17.5412 17.4904 17.5179L14.6694 17.2589C14.1654 17.2076 13.7501 17.0582 13.4234 16.8109C13.1014 16.5636 12.9404 16.2369 12.9404 15.8309C12.9404 15.5836 13.0057 15.3549 13.1364 15.1449C13.2717 14.9349 13.4257 14.7599 13.5984 14.6199C13.7711 14.4752 13.9181 14.3866 14.0394 14.3539L15.0894 14.8719C14.9914 14.8859 14.8747 14.9489 14.7394 15.0609C14.6087 15.1729 14.5434 15.3059 14.5434 15.4599C14.5434 15.6046 14.6087 15.7259 14.7394 15.8239C14.8701 15.9172 15.1221 15.9826 15.4954 16.0199L18.1134 16.2649ZM18.9464 9.56589H20.5984L19.9264 12.4499C19.8004 12.9912 19.5974 13.4766 19.3174 13.9059C19.0374 14.3352 18.6641 14.6736 18.1974 14.9209C17.7307 15.1682 17.1427 15.2919 16.4334 15.2919C15.6961 15.2919 15.0591 15.1729 14.5224 14.9349C13.9904 14.6922 13.5797 14.3539 13.2904 13.9199C13.0011 13.4812 12.8564 12.9772 12.8564 12.4079C12.8564 11.8246 13.0034 11.3112 13.2974 10.8679C13.5961 10.4199 14.0044 10.0699 14.5224 9.81789C15.0451 9.56589 15.6354 9.43989 16.2934 9.43989C16.8254 9.43989 17.3037 9.52856 17.7284 9.70589C18.1531 9.87856 18.4914 10.1049 18.7434 10.3849C19.0001 10.6649 19.1377 10.9636 19.1564 11.2809L18.7434 11.3579L18.9464 9.56589ZM16.4264 13.8709C16.7857 13.8709 17.0961 13.8126 17.3574 13.6959C17.6187 13.5792 17.8217 13.4112 17.9664 13.1919C18.1111 12.9679 18.1834 12.6972 18.1834 12.3799C18.1834 12.0672 18.1111 11.7989 17.9664 11.5749C17.8217 11.3509 17.6187 11.1806 17.3574 11.0639C17.0961 10.9426 16.7881 10.8819 16.4334 10.8819C16.0881 10.8819 15.7824 10.9426 15.5164 11.0639C15.2504 11.1852 15.0404 11.3602 14.8864 11.5889C14.7371 11.8129 14.6624 12.0812 14.6624 12.3939C14.6624 12.7066 14.7347 12.9749 14.8794 13.1989C15.0287 13.4182 15.2341 13.5862 15.4954 13.7029C15.7614 13.8149 16.0717 13.8709 16.4264 13.8709Z" fill="#131313"/>
</svg>
