<svg width="24" height="24" viewBox="0 0 24 24" fill="none" xmlns="http://www.w3.org/2000/svg">
<path d="M3.66711 17L9.12711 6.75195H9.60311L11.6471 17H11.2971L10.5831 13.444H5.92111L4.01711 17H3.66711ZM6.08911 13.136H10.5271L9.30911 7.11595L6.08911 13.136ZM15.1946 20.318L13.0246 20.248L13.0666 20.024H15.2506C15.7359 20.024 16.1979 19.954 16.6366 19.814C17.0846 19.674 17.4626 19.4453 17.7706 19.128C18.0879 18.82 18.2886 18.4187 18.3726 17.924L18.6666 16.174C18.3119 16.3887 17.9526 16.566 17.5886 16.706C17.2246 16.8367 16.8699 16.9347 16.5246 17C16.1886 17.056 15.8666 17.084 15.5586 17.084C15.2039 17.084 14.8632 17 14.5366 16.832C14.2192 16.6547 13.9579 16.3887 13.7526 16.034C13.5566 15.6793 13.4586 15.236 13.4586 14.704C13.4586 14.4613 13.4726 14.2093 13.5006 13.948C13.5286 13.6867 13.5612 13.4207 13.5986 13.15C13.6919 12.562 13.8226 12.0393 13.9906 11.582C14.1586 11.1247 14.3872 10.742 14.6766 10.434C14.9659 10.126 15.3299 9.89262 15.7686 9.73395C16.2166 9.56595 16.7672 9.48195 17.4206 9.48195C18.0179 9.48195 18.5406 9.50528 18.9886 9.55195C19.4459 9.58928 19.7912 9.62662 20.0246 9.66395L18.7086 17.952C18.6246 18.4467 18.4519 18.8527 18.1906 19.17C17.9292 19.4873 17.6212 19.73 17.2666 19.898C16.9119 20.066 16.5479 20.178 16.1746 20.234C15.8106 20.2993 15.4839 20.3273 15.1946 20.318ZM15.6006 16.776C16.1232 16.776 16.6179 16.7107 17.0846 16.58C17.5606 16.4493 18.0972 16.2393 18.6946 15.95L19.6466 9.88795C19.2732 9.86928 18.8999 9.85062 18.5266 9.83195C18.1532 9.81328 17.7752 9.79928 17.3926 9.78995C16.6646 9.75262 16.0672 9.85528 15.6006 10.098C15.1339 10.3407 14.7699 10.7187 14.5086 11.232C14.2566 11.7453 14.0652 12.4033 13.9346 13.206C13.8972 13.486 13.8646 13.7473 13.8366 13.99C13.8086 14.2327 13.7946 14.4613 13.7946 14.676C13.7946 15.3947 13.9719 15.9267 14.3266 16.272C14.6812 16.608 15.1059 16.776 15.6006 16.776Z" fill="#131313"/>
</svg>
