<svg width="24" height="24" viewBox="0 0 24 24" fill="none" xmlns="http://www.w3.org/2000/svg">
<path d="M3.44015 16.9999L6.68815 6.63989H9.30615L12.5541 16.9999H10.3981L9.74015 14.8299H6.21215L5.56815 16.9999H3.44015ZM6.70215 12.9679H9.25015L7.97615 8.41789L6.70215 12.9679ZM15.3934 20.4719C14.9174 20.4719 14.4927 20.4019 14.1194 20.2619C13.7554 20.1219 13.4661 19.9166 13.2514 19.6459C13.0367 19.3846 12.9294 19.0579 12.9294 18.6659V18.4419C12.9294 18.0406 13.0414 17.6952 13.2654 17.4059C13.4987 17.1259 13.7974 16.9112 14.1614 16.7619C14.5254 16.6126 14.9127 16.5379 15.3234 16.5379L15.9394 17.1819C15.7341 17.1819 15.5521 17.2146 15.3934 17.2799C15.2347 17.3452 15.1087 17.4386 15.0154 17.5599C14.9314 17.6906 14.8894 17.8492 14.8894 18.0359V18.1899C14.8894 18.4606 14.9827 18.6659 15.1694 18.8059C15.3561 18.9459 15.6221 19.0159 15.9674 19.0159H17.3954C17.7407 19.0159 18.0161 18.9459 18.2214 18.8059C18.4361 18.6752 18.5434 18.4746 18.5434 18.2039V17.9799C18.5434 17.8119 18.5014 17.6672 18.4174 17.5459C18.3427 17.4339 18.2261 17.3452 18.0674 17.2799C17.9181 17.2146 17.7127 17.1819 17.4514 17.1819H15.7854C14.9454 17.1819 14.3201 17.0279 13.9094 16.7199C13.5081 16.4026 13.3074 16.0152 13.3074 15.5579C13.3074 15.1752 13.4147 14.8579 13.6294 14.6059C13.8534 14.3446 14.1614 14.1719 14.5534 14.0879C14.2547 13.9292 14.0167 13.7379 13.8394 13.5139C13.6621 13.2806 13.5361 13.0332 13.4614 12.7719C13.3867 12.5012 13.3494 12.2212 13.3494 11.9319C13.3494 11.3812 13.4614 10.9239 13.6854 10.5599C13.9187 10.1959 14.2641 9.92522 14.7214 9.74789C15.1881 9.57056 15.7714 9.48189 16.4714 9.48189H20.5454V10.6159L19.3974 10.8259C19.4814 10.9192 19.5654 11.0312 19.6494 11.1619C19.7334 11.2832 19.8034 11.4466 19.8594 11.6519C19.9247 11.8479 19.9574 12.0952 19.9574 12.3939C19.9574 12.8232 19.8641 13.2106 19.6774 13.5559C19.5001 13.9012 19.2107 14.1766 18.8094 14.3819C18.4174 14.5872 17.8947 14.6899 17.2414 14.6899H15.9114C15.6594 14.6899 15.4541 14.7272 15.2954 14.8019C15.1367 14.8766 15.0574 15.0119 15.0574 15.2079C15.0574 15.3666 15.1227 15.4786 15.2534 15.5439C15.3934 15.5999 15.5474 15.6279 15.7154 15.6279H17.7874C18.3661 15.6279 18.8561 15.7026 19.2574 15.8519C19.6587 16.0012 19.9667 16.2439 20.1814 16.5799C20.3961 16.9066 20.5034 17.3406 20.5034 17.8819V18.0919C20.5034 18.8292 20.2701 19.4079 19.8034 19.8279C19.3367 20.2572 18.6181 20.4719 17.6474 20.4719H15.3934ZM16.2054 13.1359H17.0034C17.2927 13.1359 17.5121 13.0939 17.6614 13.0099C17.8201 12.9166 17.9274 12.7952 17.9834 12.6459C18.0487 12.4872 18.0814 12.3052 18.0814 12.0999C18.0814 11.8386 18.0394 11.6286 17.9554 11.4699C17.8807 11.3112 17.7687 11.1992 17.6194 11.1339C17.4701 11.0686 17.2834 11.0359 17.0594 11.0359H16.2754C15.9207 11.0359 15.6547 11.1152 15.4774 11.2739C15.3001 11.4232 15.2114 11.6892 15.2114 12.0719C15.2114 12.4359 15.2954 12.7066 15.4634 12.8839C15.6314 13.0519 15.8787 13.1359 16.2054 13.1359Z" fill="#131313"/>
</svg>
