<svg width="24" height="24" viewBox="0 0 24 24" fill="none" xmlns="http://www.w3.org/2000/svg">
<path d="M9.90765 7.34009C10.0196 7.34009 10.113 7.37742 10.1876 7.45209C10.2716 7.51742 10.3183 7.60142 10.3276 7.70409L12.1336 17.0001H10.9016L9.51565 9.10409C9.49698 8.96409 9.47832 8.82409 9.45965 8.68409C9.44098 8.54409 9.42232 8.40876 9.40365 8.27809H8.98365C8.92765 8.39942 8.86698 8.53476 8.80165 8.68409C8.73632 8.83342 8.67565 8.97342 8.61965 9.10409L5.02165 17.0001H3.71965L8.14365 7.66209C8.18098 7.55009 8.24165 7.47076 8.32565 7.42409C8.40965 7.36809 8.50765 7.34009 8.61965 7.34009H9.90765ZM10.9436 12.9121L10.8036 13.9901H5.90365L6.04365 12.9121H10.9436ZM18.9676 10.3361H20.1716L19.2196 16.8741C19.1636 17.3314 19.047 17.7468 18.8696 18.1201C18.6923 18.4934 18.445 18.8154 18.1276 19.0861C17.8196 19.3568 17.4323 19.5621 16.9656 19.7021C16.5083 19.8514 15.967 19.9354 15.3416 19.9541C15.2203 19.9541 15.0196 19.9494 14.7396 19.9401C14.469 19.9401 14.175 19.9214 13.8576 19.8841C13.5496 19.8468 13.2696 19.7954 13.0176 19.7301L13.1436 18.9321C13.3396 18.9414 13.5403 18.9461 13.7456 18.9461C13.951 18.9554 14.1843 18.9601 14.4456 18.9601C14.707 18.9601 15.0103 18.9554 15.3556 18.9461C16.0183 18.9274 16.597 18.7828 17.0916 18.5121C17.5863 18.2414 17.8943 17.7748 18.0156 17.1121C18.0903 16.7854 18.1603 16.4728 18.2256 16.1741C18.3003 15.8754 18.417 15.6001 18.5756 15.3481L18.2536 15.2081L18.9676 10.3361ZM16.8116 10.0141C17.1663 10.0141 17.5396 10.0281 17.9316 10.0561C18.3236 10.0841 18.711 10.1214 19.0936 10.1681C19.4763 10.2148 19.8263 10.2708 20.1436 10.3361L19.6116 11.0781C19.0983 11.0594 18.6363 11.0454 18.2256 11.0361C17.8243 11.0174 17.5023 11.0081 17.2596 11.0081C16.8023 11.0081 16.429 11.0408 16.1396 11.1061C15.8503 11.1621 15.617 11.2788 15.4396 11.4561C15.2623 11.6334 15.1223 11.8948 15.0196 12.2401C14.917 12.5854 14.8236 13.0428 14.7396 13.6121C14.637 14.2841 14.5903 14.8021 14.5996 15.1661C14.6183 15.5301 14.7023 15.7821 14.8516 15.9221C15.0103 16.0621 15.2436 16.1321 15.5516 16.1321C15.8876 16.1321 16.219 16.0621 16.5456 15.9221C16.8816 15.7728 17.2223 15.5581 17.5676 15.2781C17.9223 14.9981 18.2956 14.6528 18.6876 14.2421L18.9396 14.7881C18.7063 15.2081 18.403 15.6001 18.0296 15.9641C17.6563 16.3188 17.2363 16.6081 16.7696 16.8321C16.303 17.0561 15.8036 17.1681 15.2716 17.1681C14.7863 17.1681 14.3896 17.0608 14.0816 16.8461C13.7736 16.6221 13.5683 16.2441 13.4656 15.7121C13.3723 15.1801 13.3956 14.4474 13.5356 13.5141C13.6476 12.7394 13.797 12.1234 13.9836 11.6661C14.1703 11.1994 14.399 10.8494 14.6696 10.6161C14.9403 10.3734 15.253 10.2148 15.6076 10.1401C15.9623 10.0561 16.3636 10.0141 16.8116 10.0141Z" fill="#131313"/>
</svg>
