<svg width="24" height="24" viewBox="0 0 24 24" fill="none" xmlns="http://www.w3.org/2000/svg">
<path d="M9.69437 7.34009C9.7597 7.34009 9.81103 7.35876 9.84837 7.39609C9.89503 7.43342 9.92303 7.48009 9.93237 7.53609L11.9764 17.0001H11.3884L9.63837 8.60009C9.61037 8.46009 9.58237 8.32942 9.55437 8.20809C9.5357 8.07742 9.51237 7.94676 9.48437 7.81609H9.06437C9.00837 7.94676 8.9477 8.08209 8.88237 8.22209C8.81703 8.35276 8.7517 8.48342 8.68637 8.61409L4.57037 17.0001H3.94037L8.65837 7.50809C8.67703 7.44276 8.7097 7.40076 8.75637 7.38209C8.80303 7.35409 8.85437 7.34009 8.91037 7.34009H9.69437ZM10.9544 13.0941L10.8844 13.6121H5.98437L6.05437 13.0941H10.9544ZM19.3056 10.2941H19.8796L18.8436 17.0281C18.7783 17.4761 18.6616 17.8774 18.4936 18.2321C18.3349 18.5868 18.1203 18.8948 17.8496 19.1561C17.5789 19.4174 17.2569 19.6181 16.8836 19.7581C16.5103 19.9074 16.0763 20.0054 15.5816 20.0521C15.4043 20.0614 15.1616 20.0661 14.8536 20.0661C14.5456 20.0754 14.2236 20.0708 13.8876 20.0521C13.5609 20.0334 13.2669 20.0054 13.0056 19.9681L13.0756 19.5761C13.3276 19.5854 13.5843 19.5948 13.8456 19.6041C14.1069 19.6134 14.3729 19.6134 14.6436 19.6041C14.9236 19.5948 15.2083 19.5808 15.4976 19.5621C16.2909 19.4968 16.9209 19.2681 17.3876 18.8761C17.8543 18.4841 18.1529 17.8821 18.2836 17.0701C18.3676 16.5941 18.4423 16.1974 18.5076 15.8801C18.5729 15.5628 18.6476 15.3154 18.7316 15.1381L18.5916 15.0261L19.3056 10.2941ZM17.0656 10.0841C17.3643 10.0841 17.6629 10.0934 17.9616 10.1121C18.2696 10.1308 18.5776 10.1541 18.8856 10.1821C19.1936 10.2101 19.4969 10.2474 19.7956 10.2941L19.5436 10.6721C19.0396 10.6441 18.6103 10.6208 18.2556 10.6021C17.9009 10.5834 17.5556 10.5741 17.2196 10.5741C16.6783 10.5741 16.2349 10.6161 15.8896 10.7001C15.5443 10.7748 15.2643 10.9241 15.0496 11.1481C14.8349 11.3628 14.6623 11.6754 14.5316 12.0861C14.4103 12.4874 14.2983 13.0101 14.1956 13.6541C14.0929 14.3728 14.0463 14.9561 14.0556 15.4041C14.0743 15.8428 14.1816 16.1648 14.3776 16.3701C14.5829 16.5661 14.9003 16.6641 15.3296 16.6641C15.6376 16.6641 15.9829 16.5894 16.3656 16.4401C16.7483 16.2814 17.1403 16.0574 17.5416 15.7681C17.9523 15.4694 18.3489 15.1054 18.7316 14.6761L18.8436 15.0541C18.4889 15.5021 18.1016 15.8848 17.6816 16.2021C17.2616 16.5194 16.8416 16.7621 16.4216 16.9301C16.0016 17.0888 15.6096 17.1681 15.2456 17.1681C14.7043 17.1681 14.2936 17.0468 14.0136 16.8041C13.7336 16.5521 13.5656 16.1648 13.5096 15.6421C13.4629 15.1194 13.5049 14.4334 13.6356 13.5841C13.7476 12.8654 13.8829 12.2821 14.0416 11.8341C14.2096 11.3768 14.4196 11.0221 14.6716 10.7701C14.9236 10.5088 15.2456 10.3314 15.6376 10.2381C16.0296 10.1354 16.5056 10.0841 17.0656 10.0841Z" fill="#131313"/>
</svg>
