<svg width="24" height="24" viewBox="0 0 24 24" fill="none" xmlns="http://www.w3.org/2000/svg">
<path d="M9.80117 7.34009C9.88517 7.34009 9.95984 7.36809 10.0252 7.42409C10.0905 7.47076 10.1278 7.53609 10.1372 7.62009L12.0552 17.0001H11.1312L9.56317 8.86609C9.54451 8.72609 9.52584 8.59076 9.50717 8.46009C9.48851 8.32009 9.46517 8.18476 9.43717 8.05409H9.01717C8.96117 8.18476 8.90051 8.32009 8.83517 8.46009C8.76984 8.60009 8.70917 8.73542 8.65317 8.86609L4.80317 17.0001H3.82317L8.38717 7.59209C8.41517 7.49876 8.46184 7.43342 8.52717 7.39609C8.59251 7.35876 8.66717 7.34009 8.75117 7.34009H9.80117ZM10.9492 12.9961L10.8372 13.8081H5.93717L6.04917 12.9961H10.9492ZM19.1434 10.3221H20.0394L19.0454 16.9441C18.9894 17.4014 18.8728 17.8121 18.6954 18.1761C18.5274 18.5401 18.2941 18.8528 17.9954 19.1141C17.7061 19.3848 17.3514 19.5901 16.9314 19.7301C16.5114 19.8794 16.0214 19.9681 15.4614 19.9961C15.3121 20.0054 15.0928 20.0101 14.8034 20.0101C14.5141 20.0101 14.2061 19.9961 13.8794 19.9681C13.5621 19.9401 13.2728 19.8981 13.0114 19.8421L13.1094 19.2401C13.3334 19.2494 13.5621 19.2541 13.7954 19.2541C14.0288 19.2634 14.2808 19.2681 14.5514 19.2681C14.8221 19.2681 15.1161 19.2588 15.4334 19.2401C16.1521 19.1934 16.7494 19.0068 17.2254 18.6801C17.7108 18.3534 18.0188 17.8261 18.1494 17.0981C18.2241 16.6968 18.2941 16.3421 18.3594 16.0341C18.4341 15.7261 18.5321 15.4648 18.6534 15.2501L18.4154 15.1241L19.1434 10.3221ZM16.9454 10.0421C17.2721 10.0421 17.6081 10.0561 17.9534 10.0841C18.2988 10.1028 18.6441 10.1354 18.9894 10.1821C19.3441 10.2194 19.6754 10.2661 19.9834 10.3221L19.5914 10.8821C19.0781 10.8634 18.6301 10.8448 18.2474 10.8261C17.8648 10.8074 17.5288 10.7981 17.2394 10.7981C16.7448 10.7981 16.3388 10.8354 16.0214 10.9101C15.7041 10.9754 15.4474 11.1061 15.2514 11.3021C15.0648 11.4981 14.9108 11.7874 14.7894 12.1701C14.6774 12.5434 14.5748 13.0288 14.4814 13.6261C14.3788 14.3261 14.3321 14.8768 14.3414 15.2781C14.3601 15.6794 14.4581 15.9641 14.6354 16.1321C14.8128 16.3001 15.0834 16.3841 15.4474 16.3841C15.7741 16.3841 16.1148 16.3094 16.4694 16.1601C16.8241 16.0108 17.1881 15.7961 17.5614 15.5161C17.9441 15.2268 18.3268 14.8721 18.7094 14.4521L18.9054 14.9141C18.6068 15.3528 18.2568 15.7401 17.8554 16.0761C17.4634 16.4121 17.0434 16.6781 16.5954 16.8741C16.1568 17.0701 15.7134 17.1681 15.2654 17.1681C14.7521 17.1681 14.3461 17.0514 14.0474 16.8181C13.7581 16.5848 13.5761 16.2068 13.5014 15.6841C13.4268 15.1521 13.4548 14.4381 13.5854 13.5421C13.6974 12.7954 13.8421 12.1934 14.0194 11.7361C14.1968 11.2788 14.4161 10.9288 14.6774 10.6861C14.9388 10.4341 15.2561 10.2661 15.6294 10.1821C16.0028 10.0888 16.4414 10.0421 16.9454 10.0421Z" fill="#131313"/>
</svg>
