<svg width="24" height="24" viewBox="0 0 24 24" fill="none" xmlns="http://www.w3.org/2000/svg">
<path d="M9.93729 7.34009C10.068 7.34009 10.1753 7.38209 10.2593 7.46609C10.3526 7.54076 10.404 7.63409 10.4133 7.74609L12.1633 17.0001H10.7633L9.46129 9.24409C9.44262 9.10409 9.42396 8.96409 9.40529 8.82409C9.38662 8.67476 9.37262 8.53476 9.36329 8.40409H8.94329C8.88729 8.52542 8.82662 8.66542 8.76129 8.82409C8.70529 8.97342 8.64462 9.11342 8.57929 9.24409L5.10729 17.0001H3.62329L7.99129 7.70409C8.02862 7.57342 8.09396 7.48009 8.18729 7.42409C8.28062 7.36809 8.38796 7.34009 8.50929 7.34009H9.93729ZM10.9173 12.8981L10.7773 14.0741H5.84929L6.00329 12.8981H10.9173ZM18.9253 10.3081L20.2833 10.3221L19.3453 16.7621C19.2893 17.2661 19.1633 17.7141 18.9673 18.1061C18.7806 18.4981 18.524 18.8294 18.1973 19.1001C17.88 19.3708 17.488 19.5761 17.0213 19.7161C16.564 19.8561 16.0273 19.9308 15.4113 19.9401C15.29 19.9401 15.0846 19.9354 14.7953 19.9261C14.5153 19.9261 14.212 19.9028 13.8853 19.8561C13.568 19.8188 13.2786 19.7674 13.0173 19.7021L13.1433 18.8201C13.3393 18.8294 13.5353 18.8341 13.7313 18.8341C13.9273 18.8434 14.1513 18.8481 14.4033 18.8481C14.6646 18.8481 14.968 18.8434 15.3133 18.8341C15.976 18.8154 16.5546 18.6754 17.0493 18.4141C17.544 18.1621 17.8566 17.7188 17.9873 17.0841C18.062 16.7668 18.132 16.4634 18.1973 16.1741C18.272 15.8754 18.3886 15.6001 18.5473 15.3481L18.2113 15.2081L18.9253 10.3081ZM16.8393 10.0001C17.222 10.0001 17.614 10.0141 18.0153 10.0421C18.426 10.0701 18.8226 10.1074 19.2053 10.1541C19.5973 10.2008 19.9473 10.2568 20.2553 10.3221L19.5693 11.1341C19.0746 11.1154 18.6313 11.1014 18.2393 11.0921C17.8566 11.0828 17.5393 11.0781 17.2873 11.0781C16.8486 11.0781 16.4893 11.1108 16.2093 11.1761C15.9386 11.2321 15.7193 11.3441 15.5513 11.5121C15.3833 11.6801 15.248 11.9321 15.1453 12.2681C15.052 12.5948 14.968 13.0288 14.8933 13.5701C14.7906 14.2234 14.744 14.7274 14.7533 15.0821C14.7626 15.4368 14.842 15.6841 14.9913 15.8241C15.1406 15.9548 15.36 16.0201 15.6493 16.0201C15.976 16.0108 16.298 15.9361 16.6153 15.7961C16.9326 15.6468 17.2593 15.4321 17.5953 15.1521C17.9313 14.8721 18.286 14.5314 18.6593 14.1301L18.9253 14.7041C18.7013 15.1428 18.4026 15.5488 18.0293 15.9221C17.6653 16.2861 17.25 16.5848 16.7833 16.8181C16.3166 17.0421 15.8173 17.1541 15.2853 17.1541C14.7813 17.1541 14.3706 17.0421 14.0533 16.8181C13.7453 16.5941 13.5446 16.2161 13.4513 15.6841C13.358 15.1428 13.3813 14.4148 13.5213 13.5001C13.6333 12.7161 13.7826 12.0954 13.9693 11.6381C14.1653 11.1714 14.3986 10.8214 14.6693 10.5881C14.94 10.3454 15.2573 10.1868 15.6213 10.1121C15.9853 10.0374 16.3913 10.0001 16.8393 10.0001Z" fill="#131313"/>
</svg>
