<svg width="24" height="24" viewBox="0 0 24 24" fill="none" xmlns="http://www.w3.org/2000/svg">
<path d="M2.91089 17L7.81789 6.82202H9.51889L11.9339 17H10.1139L8.41989 9.18102L8.36389 8.70502L8.19589 9.20202L6.37589 13.164L6.17289 13.444L6.37589 13.416H7.76189C8.01389 13.416 8.21689 13.4813 8.37089 13.612C8.52489 13.7427 8.64389 13.9083 8.72789 14.109C8.81189 14.305 8.87489 14.4987 8.91689 14.69H5.68989L4.63289 17H2.91089ZM15.609 20.5C15.245 20.5 14.839 20.4603 14.391 20.381C13.9477 20.3063 13.4833 20.15 12.998 19.912L13.579 18.743C13.999 18.9343 14.3747 19.0673 14.706 19.142C15.042 19.2167 15.357 19.254 15.651 19.254C16.015 19.254 16.358 19.177 16.68 19.023C17.002 18.869 17.2727 18.6357 17.492 18.323C17.716 18.015 17.856 17.6253 17.912 17.154L18.675 11.008C18.4883 10.9613 18.3087 10.9287 18.136 10.91C17.968 10.8913 17.814 10.882 17.674 10.882C17.0113 10.882 16.4653 11.1223 16.036 11.603C15.6113 12.0837 15.3477 12.7347 15.245 13.556C15.1983 13.9433 15.1983 14.3167 15.245 14.676C15.2963 15.0307 15.413 15.3153 15.595 15.53C15.777 15.7447 16.0477 15.831 16.407 15.789C16.659 15.761 16.8667 15.817 17.03 15.957C17.1933 16.097 17.3473 16.286 17.492 16.524C17.2353 16.6827 16.9693 16.8157 16.694 16.923C16.4187 17.0257 16.169 17.0863 15.945 17.105C15.5063 17.1423 15.119 17.07 14.783 16.888C14.447 16.706 14.167 16.4447 13.943 16.104C13.7237 15.7587 13.5697 15.3667 13.481 14.928C13.3923 14.4847 13.3783 14.0273 13.439 13.556C13.5277 12.8047 13.7657 12.1303 14.153 11.533C14.5403 10.9357 15.042 10.4667 15.658 10.126C16.2787 9.78069 16.9833 9.60802 17.772 9.60802C18.038 9.60802 18.2993 9.61969 18.556 9.64302C18.8173 9.66635 19.0997 9.71069 19.403 9.77602C19.7063 9.83669 20.0563 9.92302 20.453 10.035L19.599 17C19.501 17.7933 19.2653 18.4467 18.892 18.96C18.5187 19.478 18.0473 19.863 17.478 20.115C16.9133 20.3717 16.2903 20.5 15.609 20.5Z" fill="#131313"/>
</svg>
