<svg width="24" height="24" viewBox="0 0 24 24" fill="none" xmlns="http://www.w3.org/2000/svg">
<path d="M3.56177 17L7.22977 6.82202H8.70677L12.3748 17H10.7718L8.01377 8.97102L7.91577 8.53002L7.81077 8.97802L6.34077 13.234L6.18677 13.521L6.36177 13.493H8.02777C8.26577 13.493 8.46411 13.549 8.62277 13.661C8.78611 13.7683 8.91911 13.9107 9.02177 14.088C9.12444 14.2607 9.20844 14.438 9.27377 14.62H5.88577L5.06677 17H3.56177ZM16.4878 20.5C16.1238 20.5 15.7202 20.4603 15.2768 20.381C14.8335 20.3063 14.3692 20.15 13.8838 19.912L14.2828 18.862C14.7028 19.058 15.0832 19.1933 15.4238 19.268C15.7645 19.3473 16.0818 19.387 16.3758 19.387C16.7538 19.387 17.1015 19.3053 17.4188 19.142C17.7362 18.9787 17.9882 18.7313 18.1748 18.4C18.3662 18.0733 18.4618 17.658 18.4618 17.154V10.882C18.2565 10.8307 18.0628 10.7957 17.8808 10.777C17.7035 10.7537 17.5238 10.742 17.3418 10.742C16.6605 10.742 16.1192 10.9823 15.7178 11.463C15.3165 11.9437 15.1158 12.6157 15.1158 13.479C15.1158 13.941 15.1765 14.3657 15.2978 14.753C15.4192 15.1403 15.6082 15.446 15.8648 15.67C16.1215 15.8893 16.4482 15.9803 16.8448 15.943C17.0735 15.9243 17.2788 15.971 17.4608 16.083C17.6428 16.1903 17.8155 16.3583 17.9788 16.587C17.7455 16.7363 17.5005 16.8553 17.2438 16.944C16.9872 17.028 16.7492 17.0793 16.5298 17.098C16.1052 17.1213 15.7108 17.0467 15.3468 16.874C14.9875 16.7013 14.6725 16.4493 14.4018 16.118C14.1312 15.7867 13.9212 15.397 13.7718 14.949C13.6225 14.4963 13.5478 14.0063 13.5478 13.479C13.5478 12.723 13.7042 12.0557 14.0168 11.477C14.3342 10.8937 14.7752 10.4387 15.3398 10.112C15.9092 9.78069 16.5695 9.61502 17.3208 9.61502C17.5822 9.61502 17.8435 9.62902 18.1048 9.65702C18.3662 9.68502 18.6415 9.73169 18.9308 9.79702C19.2248 9.85769 19.5515 9.94402 19.9108 10.056V17C19.9108 17.7373 19.7662 18.3673 19.4768 18.89C19.1922 19.4127 18.7932 19.8117 18.2798 20.087C17.7665 20.3623 17.1692 20.5 16.4878 20.5Z" fill="#131313"/>
</svg>
