<svg width="24" height="24" viewBox="0 0 24 24" fill="none" xmlns="http://www.w3.org/2000/svg">
<path d="M9.93441 14.4241H4.08241L2.33241 17.0001H1.56241L8.42241 7.06006H8.92641L11.9784 17.0001H10.6904L9.93441 14.4241ZM9.76641 13.8221L8.18441 8.40406L4.50241 13.8221H9.76641ZM20.2072 9.38406C20.5059 9.38406 20.7579 9.41673 20.9632 9.48206L20.8372 10.1821C20.5852 10.0701 20.2866 10.0141 19.9412 10.0141C19.4652 10.0141 19.0499 10.1028 18.6952 10.2801C19.0592 10.4388 19.3392 10.6534 19.5352 10.9241C19.7312 11.1948 19.8292 11.5168 19.8292 11.8901C19.8292 12.6928 19.5072 13.3508 18.8632 13.8641C18.2192 14.3774 17.3419 14.6668 16.2312 14.7321C15.7459 14.7601 15.3399 14.8208 15.0132 14.9141C14.6866 15.0074 14.5232 15.1381 14.5232 15.3061C14.5232 15.4274 14.6212 15.5161 14.8172 15.5721C15.0132 15.6281 15.2559 15.6561 15.5452 15.6561H16.1612C17.2066 15.6561 18.0092 15.7914 18.5692 16.0621C19.1292 16.3328 19.4092 16.7248 19.4092 17.2381C19.4092 17.7141 19.2272 18.1388 18.8632 18.5121C18.5086 18.8948 18.0092 19.1888 17.3652 19.3941C16.7306 19.6088 16.0072 19.7161 15.1952 19.7161C14.1872 19.7161 13.3846 19.5668 12.7872 19.2681C12.1899 18.9694 11.8912 18.5728 11.8912 18.0781C11.8912 17.6114 12.1152 17.2288 12.5632 16.9301C13.0112 16.6314 13.6599 16.4308 14.5092 16.3281C14.1266 16.2814 13.8419 16.1881 13.6552 16.0481C13.4779 15.8988 13.3892 15.7261 13.3892 15.5301C13.3892 15.2594 13.5246 15.0261 13.7952 14.8301C14.0752 14.6341 14.4252 14.5128 14.8452 14.4661C14.3786 14.3261 14.0239 14.1068 13.7812 13.8081C13.5479 13.5094 13.4312 13.1501 13.4312 12.7301C13.4312 12.1981 13.5806 11.7268 13.8792 11.3161C14.1872 10.8961 14.6119 10.5741 15.1532 10.3501C15.7039 10.1168 16.3339 10.0001 17.0432 10.0001C17.4912 10.0001 17.8832 10.0421 18.2192 10.1261C18.5086 9.87406 18.8212 9.68739 19.1572 9.56606C19.5026 9.44473 19.8526 9.38406 20.2072 9.38406ZM16.3012 14.1861C17.0666 14.1861 17.6732 13.9854 18.1212 13.5841C18.5786 13.1828 18.8072 12.6368 18.8072 11.9461C18.8072 11.4794 18.6486 11.1248 18.3312 10.8821C18.0139 10.6394 17.5519 10.5181 16.9452 10.5181C16.1799 10.5181 15.5686 10.7234 15.1112 11.1341C14.6632 11.5354 14.4392 12.0814 14.4392 12.7721C14.4392 13.2294 14.5979 13.5794 14.9152 13.8221C15.2326 14.0648 15.6946 14.1861 16.3012 14.1861ZM16.1892 16.4261C15.1252 16.4261 14.2759 16.5661 13.6412 16.8461C13.0066 17.1261 12.6892 17.5041 12.6892 17.9801C12.6892 18.3534 12.9226 18.6568 13.3892 18.8901C13.8652 19.1328 14.4952 19.2541 15.2792 19.2541C15.8859 19.2541 16.4412 19.1748 16.9452 19.0161C17.4492 18.8574 17.8459 18.6381 18.1352 18.3581C18.4339 18.0874 18.5832 17.7841 18.5832 17.4481C18.5832 17.0934 18.3686 16.8368 17.9392 16.6781C17.5099 16.5101 16.9266 16.4261 16.1892 16.4261Z" fill="#131313"/>
</svg>
