<svg width="24" height="24" viewBox="0 0 24 24" fill="none" xmlns="http://www.w3.org/2000/svg">
<path d="M4.47789 16.9999V16.9299L7.32456 7.8999H9.91456L12.7729 16.9299V16.9999H11.0812L8.71289 9.17157H8.43289L6.04122 16.9999H4.47789ZM6.57789 14.5382L6.96289 13.2549H10.1712L10.5562 14.5382H6.57789ZM16.6435 19.5082C16.0679 19.5082 15.5935 19.4343 15.2202 19.2866C14.8468 19.1466 14.5513 18.9638 14.3335 18.7382C14.1235 18.5205 13.9679 18.291 13.8668 18.0499C13.7735 17.8088 13.7152 17.5871 13.6918 17.3849H15.2435C15.2902 17.626 15.4185 17.8438 15.6285 18.0382C15.8463 18.2405 16.1924 18.3416 16.6668 18.3416C17.1802 18.3416 17.5729 18.1938 17.8452 17.8982C18.1252 17.6027 18.2652 17.1516 18.2652 16.5449V15.7399H17.9852C17.8685 16.0588 17.6585 16.3193 17.3552 16.5216C17.0596 16.716 16.6629 16.8132 16.1652 16.8132C15.2785 16.8132 14.5902 16.4982 14.1002 15.8682C13.6102 15.2382 13.3652 14.3827 13.3652 13.3016C13.3652 12.6093 13.474 12.0027 13.6918 11.4816C13.9096 10.9605 14.2246 10.556 14.6368 10.2682C15.0568 9.97268 15.5702 9.8249 16.1768 9.8249C16.6824 9.8249 17.079 9.92601 17.3668 10.1282C17.6624 10.3227 17.8802 10.5716 18.0202 10.8749H18.3002V9.9999H19.7352V16.5449C19.7352 17.4938 19.4746 18.2249 18.9535 18.7382C18.4402 19.2516 17.6702 19.5082 16.6435 19.5082ZM16.5035 15.6232C17.0324 15.6232 17.4407 15.4132 17.7285 14.9932C18.024 14.5655 18.1718 14.0055 18.1718 13.3132C18.1718 12.621 18.024 12.0649 17.7285 11.6449C17.4407 11.2249 17.0363 11.0149 16.5152 11.0149C16.0252 11.0149 15.644 11.2132 15.3718 11.6099C15.0996 11.9988 14.9635 12.5666 14.9635 13.3132C14.9635 14.0755 15.0996 14.651 15.3718 15.0399C15.644 15.4288 16.0213 15.6232 16.5035 15.6232Z" fill="#131313"/>
</svg>
