<svg width="24" height="24" viewBox="0 0 24 24" fill="none" xmlns="http://www.w3.org/2000/svg">
<path d="M4.90607 16.9999V16.9299L9.2694 7.8999H11.3694L12.6994 16.9299V16.9999H11.3927L10.2961 8.9149H10.0161L6.23607 16.9999H4.90607ZM7.15773 14.3516L7.70607 13.2549H11.0661L11.2411 14.3516H7.15773ZM16.0898 19.5082C15.4443 19.5082 14.8882 19.3721 14.4215 19.0999C13.9626 18.8277 13.5971 18.5088 13.3248 18.1432L14.0948 17.2332C14.3671 17.6221 14.6704 17.9216 15.0048 18.1316C15.3393 18.3493 15.7282 18.4582 16.1715 18.4582C16.7315 18.4582 17.1476 18.2871 17.4198 17.9449C17.6921 17.6105 17.8826 17.1749 17.9915 16.6382L18.2132 15.5416H17.9332C17.7621 15.876 17.521 16.1677 17.2098 16.4166C16.9065 16.6655 16.5021 16.7899 15.9965 16.7899C15.3432 16.7899 14.8337 16.5605 14.4682 16.1016C14.1104 15.6349 13.9315 14.9777 13.9315 14.1299C13.9315 13.5621 14.0093 13.0216 14.1648 12.5082C14.3282 11.9949 14.5537 11.5399 14.8415 11.1432C15.1371 10.7466 15.4871 10.4355 15.8915 10.2099C16.296 9.97657 16.7432 9.8599 17.2332 9.8599C17.6687 9.8599 18.0148 9.94546 18.2715 10.1166C18.5282 10.2799 18.7071 10.4743 18.8082 10.6999H19.0882L19.2048 9.9999H20.2782L19.1348 16.8016C18.9871 17.6882 18.641 18.361 18.0965 18.8199C17.5521 19.2788 16.8832 19.5082 16.0898 19.5082ZM16.3932 15.7866C16.8132 15.7866 17.1671 15.6349 17.4548 15.3316C17.7504 15.0205 17.9876 14.6199 18.1665 14.1299C18.3532 13.6399 18.4932 13.1149 18.5865 12.5549L18.7732 11.4349C18.571 11.2716 18.3493 11.1355 18.1082 11.0266C17.8671 10.9177 17.6221 10.8632 17.3732 10.8632C16.9532 10.8632 16.5798 11.0071 16.2532 11.2949C15.9343 11.5827 15.6815 11.9716 15.4948 12.4616C15.316 12.9438 15.2265 13.4766 15.2265 14.0599C15.2265 14.6821 15.3315 15.1255 15.5415 15.3899C15.7593 15.6543 16.0432 15.7866 16.3932 15.7866Z" fill="#131313"/>
</svg>
