<svg width="24" height="24" viewBox="0 0 24 24" fill="none" xmlns="http://www.w3.org/2000/svg">
<path d="M4.5614 17.0001L4.6454 16.2861L5.4294 16.1181L9.2094 7.83008H10.2734L11.8694 16.1181L12.7514 16.2861L12.7094 17.0001H9.2094L9.2654 16.2861L10.2174 16.1181L9.9374 14.4661H7.1934L6.4794 16.1041L7.5574 16.2861L7.4734 17.0001H4.5614ZM7.5854 13.5841H9.7834L9.2654 10.3081L9.2234 9.87408H9.1674L9.0134 10.3081L7.5854 13.5841ZM14.696 19.3801C13.9866 19.3801 13.4453 19.2634 13.072 19.0301C12.6986 18.7968 12.512 18.4608 12.512 18.0221C12.512 17.9194 12.5353 17.7981 12.582 17.6581C12.6286 17.5274 12.6893 17.3968 12.764 17.2661C12.8386 17.1354 12.918 17.0234 13.002 16.9301C13.086 16.8274 13.156 16.7668 13.212 16.7481H13.884V18.0361C14.052 18.1574 14.2853 18.2554 14.584 18.3301C14.8826 18.4048 15.1766 18.4421 15.466 18.4421C15.8393 18.4421 16.1286 18.3488 16.334 18.1621C16.5393 17.9754 16.6886 17.6674 16.782 17.2381C16.866 16.8181 16.936 16.4588 16.992 16.1601C17.0573 15.8614 17.1133 15.6141 17.16 15.4181C17.216 15.2221 17.2673 15.0728 17.314 14.9701L17.272 14.9281C16.936 15.4694 16.5813 15.8754 16.208 16.1461C15.844 16.4168 15.4613 16.5521 15.06 16.5521C14.528 16.5521 14.1266 16.3654 13.856 15.9921C13.5853 15.6188 13.45 15.0681 13.45 14.3401C13.45 13.7894 13.534 13.2434 13.702 12.7021C13.8793 12.1608 14.1126 11.6754 14.402 11.2461C14.6913 10.8074 15.0133 10.4621 15.368 10.2101C15.732 9.94875 16.1006 9.81808 16.474 9.81808C16.7446 9.81808 17.034 9.86008 17.342 9.94408C17.6593 10.0281 17.958 10.1448 18.238 10.2941L18.644 9.76208H19.498L18.364 16.6081C18.224 17.4761 17.8273 18.1528 17.174 18.6381C16.5206 19.1328 15.6946 19.3801 14.696 19.3801ZM15.648 15.4321C15.8533 15.4321 16.1053 15.3248 16.404 15.1101C16.7026 14.8861 17.0013 14.5874 17.3 14.2141L17.762 11.5821C17.4913 11.3394 17.202 11.1574 16.894 11.0361C16.586 10.9148 16.3246 10.8541 16.11 10.8541C16.0073 10.8541 15.9326 10.8588 15.886 10.8681C15.8486 10.8774 15.8113 10.9054 15.774 10.9521C15.6806 11.1108 15.5873 11.3114 15.494 11.5541C15.41 11.7968 15.3306 12.0674 15.256 12.3661C15.1906 12.6554 15.1346 12.9541 15.088 13.2621C15.0506 13.5608 15.032 13.8548 15.032 14.1441C15.032 14.5734 15.088 14.8954 15.2 15.1101C15.3213 15.3248 15.4706 15.4321 15.648 15.4321Z" fill="#131313"/>
</svg>
