<svg width="24" height="24" viewBox="0 0 24 24" fill="none" xmlns="http://www.w3.org/2000/svg">
<path d="M4.10837 17V16.272L4.97638 16.09L7.93037 7.84399H9.28838L12.3684 16.062L13.3064 16.272V17H9.35838V16.272L10.5624 16.09L9.98838 14.438H6.83838L6.27838 16.076L7.48238 16.272V17H4.10837ZM7.18838 13.43H9.63838L8.58838 10.308L8.46238 9.73399H8.36438L8.23838 10.308L7.18838 13.43ZM16.1584 19.324C15.6264 19.324 15.1458 19.2727 14.7164 19.17C14.2871 19.0673 13.9511 18.8993 13.7084 18.666C13.4658 18.442 13.3444 18.1433 13.3444 17.77C13.3444 17.5647 13.3864 17.378 13.4704 17.21C13.5638 17.042 13.6804 16.8927 13.8204 16.762C13.9604 16.622 14.1098 16.5007 14.2684 16.398C14.4271 16.2953 14.5718 16.202 14.7024 16.118C14.6371 16.0433 14.5811 15.95 14.5344 15.838C14.4971 15.726 14.4784 15.614 14.4784 15.502C14.4784 15.2687 14.5578 15.0587 14.7164 14.872C14.8844 14.676 15.0618 14.5267 15.2484 14.424C14.8471 14.3307 14.5204 14.1767 14.2684 13.962C14.0164 13.7473 13.8298 13.5 13.7084 13.22C13.5964 12.9307 13.5404 12.646 13.5404 12.366C13.5404 11.834 13.6664 11.386 13.9184 11.022C14.1704 10.658 14.5111 10.3827 14.9404 10.196C15.3791 10.0093 15.8691 9.91599 16.4104 9.91599C16.7464 9.91599 17.0451 9.95332 17.3064 10.028C17.5771 10.0933 17.8058 10.1913 17.9924 10.322C18.0578 10.2753 18.1604 10.2053 18.3004 10.112C18.4404 10.0187 18.5991 9.93466 18.7764 9.85999C18.9631 9.77599 19.1404 9.73399 19.3084 9.73399C19.5418 9.73399 19.7098 9.79466 19.8124 9.91599C19.9244 10.028 19.9804 10.1913 19.9804 10.406C19.9804 10.6113 19.9198 10.784 19.7984 10.924C19.6864 11.064 19.5931 11.1573 19.5184 11.204L19.1544 11.022C19.0424 10.9567 18.9398 10.9053 18.8464 10.868C18.7624 10.8307 18.6598 10.812 18.5384 10.812C18.6971 11.0267 18.8091 11.2553 18.8744 11.498C18.9491 11.7407 18.9864 11.9647 18.9864 12.17C18.9864 12.6273 18.8604 13.0333 18.6084 13.388C18.3564 13.7427 18.0158 14.018 17.5864 14.214C17.1664 14.41 16.6904 14.508 16.1584 14.508H15.9764V15.166L17.5444 15.446C18.0018 15.53 18.3844 15.6327 18.6924 15.754C19.0098 15.866 19.2524 16.0293 19.4204 16.244C19.5884 16.4493 19.6724 16.7387 19.6724 17.112C19.6724 17.4573 19.5744 17.7653 19.3784 18.036C19.1918 18.3067 18.9304 18.5353 18.5944 18.722C18.2678 18.918 17.8944 19.0673 17.4744 19.17C17.0544 19.2727 16.6158 19.324 16.1584 19.324ZM16.4804 18.442C16.7511 18.442 17.0171 18.414 17.2784 18.358C17.5398 18.302 17.7591 18.204 17.9364 18.064C18.1138 17.924 18.2024 17.7373 18.2024 17.504C18.2024 17.3453 18.1511 17.2007 18.0484 17.07C17.9458 16.9487 17.7264 16.86 17.3904 16.804L15.3884 16.44C15.2484 16.5707 15.1224 16.7387 15.0104 16.944C14.8984 17.1493 14.8424 17.3547 14.8424 17.56C14.8424 17.8587 14.9638 18.078 15.2064 18.218C15.4491 18.3673 15.8738 18.442 16.4804 18.442ZM16.2424 13.584C16.5038 13.584 16.7138 13.5467 16.8724 13.472C17.0311 13.3973 17.1478 13.2573 17.2224 13.052C17.2971 12.8467 17.3344 12.5527 17.3344 12.17C17.3344 11.8527 17.3064 11.6007 17.2504 11.414C17.1944 11.218 17.0918 11.078 16.9424 10.994C16.7931 10.9007 16.5784 10.854 16.2984 10.854C16.0091 10.854 15.7804 10.896 15.6124 10.98C15.4538 11.0547 15.3418 11.1947 15.2764 11.4C15.2204 11.596 15.1924 11.8807 15.1924 12.254C15.1924 12.59 15.2251 12.856 15.2904 13.052C15.3558 13.248 15.4631 13.388 15.6124 13.472C15.7618 13.5467 15.9718 13.584 16.2424 13.584Z" fill="#131313"/>
</svg>
