<svg width="24" height="24" viewBox="0 0 24 24" fill="none" xmlns="http://www.w3.org/2000/svg">
<path d="M10.998 15.0201C10.998 14.9641 10.984 14.9034 10.956 14.8381L10.326 13.0601H7.07796L6.33596 15.2021L7.53996 15.6921L7.45596 16.0001H4.36196L4.27796 15.6921L5.04796 15.3701C5.20663 15.3048 5.30463 15.2441 5.34196 15.1881C5.38863 15.1321 5.44463 15.0154 5.50996 14.8381L8.30996 7.04009L9.16396 6.78809L9.44396 6.90009L12.454 15.2441L13.546 15.6921L13.462 16.0001H10.032L9.94796 15.6921L10.718 15.3701C10.9046 15.2954 10.998 15.1788 10.998 15.0201ZM8.68796 8.41209L7.31596 12.3461H10.074L8.68796 8.41209ZM18.164 10.3161C18.5467 10.7268 18.738 11.2634 18.738 11.9261C18.738 12.5794 18.5047 13.1208 18.038 13.5501C17.5807 13.9701 16.988 14.1801 16.26 14.1801C16.0733 14.1801 15.896 14.1661 15.728 14.1381C15.476 14.3808 15.35 14.6234 15.35 14.8661C15.35 14.9501 15.4153 15.0061 15.546 15.0341C15.6767 15.0528 16.2647 15.1088 17.31 15.2021C17.898 15.2581 18.3833 15.4354 18.766 15.7341C19.158 16.0328 19.354 16.4994 19.354 17.1341C19.354 17.7688 19.074 18.2914 18.514 18.7021C17.9633 19.1221 17.24 19.3321 16.344 19.3321C15.4573 19.3321 14.7713 19.1641 14.286 18.8281C13.8007 18.5014 13.558 18.0628 13.558 17.5121C13.558 16.8401 13.9033 16.2661 14.594 15.7901C14.4447 15.6221 14.37 15.4401 14.37 15.2441C14.37 15.0388 14.4353 14.8148 14.566 14.5721C14.6967 14.3201 14.8647 14.1054 15.07 13.9281C14.678 13.7414 14.37 13.4708 14.146 13.1161C13.9313 12.7614 13.824 12.3508 13.824 11.8841C13.824 11.1934 14.0527 10.6334 14.51 10.2041C14.9673 9.77476 15.5553 9.56009 16.274 9.56009C16.7967 9.56009 17.2587 9.68142 17.66 9.92409C18.0427 9.44809 18.3647 9.11209 18.626 8.91609L19.228 9.61609L19.144 9.82609C18.612 10.0874 18.2853 10.2508 18.164 10.3161ZM15.154 16.1121C14.8087 16.4294 14.636 16.7981 14.636 17.2181C14.636 17.6474 14.8087 17.9741 15.154 18.1981C15.5087 18.4221 15.9847 18.5341 16.582 18.5341C17.1887 18.5341 17.702 18.4081 18.122 18.1561C18.2713 17.9414 18.346 17.6474 18.346 17.2741C18.346 16.9008 18.2293 16.6534 17.996 16.5321C17.7627 16.4108 17.4173 16.3268 16.96 16.2801C16.3347 16.2148 15.84 16.1821 15.476 16.1821C15.3827 16.1728 15.2753 16.1494 15.154 16.1121ZM14.916 11.8981C14.916 12.3554 15.0373 12.7148 15.28 12.9761C15.5227 13.2281 15.8587 13.3541 16.288 13.3541C16.7267 13.3541 17.072 13.2794 17.324 13.1301C17.3987 13.0368 17.464 12.8594 17.52 12.5981C17.5853 12.3368 17.618 12.0848 17.618 11.8421C17.618 11.3848 17.4967 11.0301 17.254 10.7781C17.0113 10.5168 16.6707 10.3861 16.232 10.3861C15.8027 10.3861 15.462 10.4608 15.21 10.6101C15.1353 10.7034 15.0653 10.8808 15 11.1421C14.944 11.4034 14.916 11.6554 14.916 11.8981Z" fill="#131313"/>
</svg>
