<svg width="24" height="24" viewBox="0 0 24 24" fill="none" xmlns="http://www.w3.org/2000/svg">
<path d="M10.4238 17L9.9898 14.788H7.6658L7.2318 17H5.2718L7.6658 7.31201H10.0458L12.4258 17H10.4238ZM7.9458 13.346H9.7098L8.8278 8.78201L7.9458 13.346ZM18.6975 9.97201C18.3335 10.1587 17.7548 10.252 16.9615 10.252C17.3628 10.448 17.6568 10.7 17.8435 11.008C18.0395 11.3067 18.1375 11.6893 18.1375 12.156C18.1375 12.9027 17.9041 13.5047 17.4375 13.962C16.9708 14.4193 16.3315 14.648 15.5195 14.648C15.3048 14.648 15.0761 14.6153 14.8335 14.55C14.6748 14.662 14.5955 14.8347 14.5955 15.068C14.5955 15.2453 14.6421 15.3807 14.7355 15.474C14.8381 15.558 15.0295 15.6 15.3095 15.6H16.0655C16.8401 15.6 17.4515 15.796 17.8995 16.188C18.3475 16.5707 18.5715 17.07 18.5715 17.686C18.5715 18.4047 18.2915 18.9787 17.7315 19.408C17.1715 19.8467 16.3781 20.066 15.3515 20.066C14.2408 20.066 13.4661 19.8653 13.0275 19.464C12.5981 19.072 12.3835 18.4933 12.3835 17.728H14.0915C14.0915 18.1013 14.1755 18.3673 14.3435 18.526C14.5208 18.694 14.8615 18.778 15.3655 18.778C15.8321 18.778 16.1635 18.694 16.3595 18.526C16.5648 18.358 16.6675 18.12 16.6675 17.812C16.6675 17.5133 16.5835 17.294 16.4155 17.154C16.2568 17.014 16.0048 16.944 15.6595 16.944H15.0995C14.3808 16.944 13.8535 16.8133 13.5175 16.552C13.1908 16.2907 13.0275 15.9407 13.0275 15.502C13.0275 15.0073 13.2841 14.5593 13.7975 14.158C13.4055 13.9153 13.1208 13.626 12.9435 13.29C12.7661 12.954 12.6775 12.5387 12.6775 12.044C12.6775 11.2227 12.9248 10.574 13.4195 10.098C13.9141 9.62201 14.5861 9.38401 15.4355 9.38401C16.0421 9.38401 16.5415 9.31401 16.9335 9.17401C17.3255 9.03401 17.7548 8.82868 18.2215 8.55801L18.6975 9.97201ZM15.4495 10.644C15.1508 10.644 14.9221 10.7513 14.7635 10.966C14.6141 11.1807 14.5395 11.5307 14.5395 12.016C14.5395 12.4733 14.6141 12.8233 14.7635 13.066C14.9221 13.2993 15.1461 13.416 15.4355 13.416C15.7341 13.416 15.9535 13.3087 16.0935 13.094C16.2428 12.8793 16.3175 12.5107 16.3175 11.988C16.3175 11.5213 16.2475 11.1807 16.1075 10.966C15.9675 10.7513 15.7481 10.644 15.4495 10.644Z" fill="#131313"/>
</svg>
