<svg width="24" height="24" viewBox="0 0 24 24" fill="none" xmlns="http://www.w3.org/2000/svg">
<path d="M10.7867 16.9998L10.2127 14.1578H5.8027L4.4307 16.9998H4.0947L8.7567 7.46582H9.1347L11.1227 16.9998H10.7867ZM5.9427 13.8638H10.1567L8.9107 7.73182L5.9427 13.8638ZM16.6057 9.59382C17.0257 9.59382 17.3897 9.64515 17.6977 9.74782C18.015 9.84115 18.3323 9.98115 18.6497 10.1678L17.6557 17.0698C17.3943 18.8618 16.4937 19.7578 14.9537 19.7578C14.1697 19.7578 13.4043 19.5385 12.6577 19.0998L12.7837 18.8758C13.1383 19.0718 13.4837 19.2211 13.8197 19.3238C14.1557 19.4358 14.5337 19.4918 14.9537 19.4918C15.579 19.4918 16.1017 19.3005 16.5217 18.9178C16.951 18.5445 17.2263 17.9378 17.3477 17.0978L17.5857 15.4878C17.2963 15.9638 16.9463 16.3371 16.5357 16.6078C16.125 16.8691 15.6863 16.9998 15.2197 16.9998C14.5197 16.9998 13.969 16.7431 13.5677 16.2298C13.1757 15.7165 12.9797 15.0258 12.9797 14.1578C12.9797 13.4671 13.101 12.7718 13.3437 12.0718C13.5957 11.3625 13.9923 10.7745 14.5337 10.3078C15.0843 9.83182 15.775 9.59382 16.6057 9.59382ZM16.6197 9.85982C15.8543 9.85982 15.2197 10.0885 14.7157 10.5458C14.2117 10.9938 13.8477 11.5538 13.6237 12.2258C13.3997 12.8885 13.2923 13.5418 13.3017 14.1858C13.3017 14.9605 13.4697 15.5765 13.8057 16.0338C14.1417 16.4818 14.613 16.7058 15.2197 16.7058C16.181 16.7058 16.993 16.1318 17.6557 14.9838L18.3277 10.3218C17.833 10.0138 17.2637 9.85982 16.6197 9.85982Z" fill="#131313"/>
</svg>
