<svg width="24" height="24" viewBox="0 0 24 24" fill="none" xmlns="http://www.w3.org/2000/svg">
<path d="M11.8663 17.0002L11.1943 14.3682H7.94628L7.27428 17.0002H6.47628L9.08028 7.41016H10.0883L12.6923 17.0002H11.8663ZM8.12828 13.6962H11.0123L9.57028 8.08216L8.12828 13.6962ZM18.6638 9.81816C18.2905 9.95816 17.7352 10.0282 16.9978 10.0282C17.6978 10.4202 18.0478 11.0875 18.0478 12.0302C18.0478 12.7769 17.8472 13.3649 17.4458 13.7942C17.0538 14.2235 16.5125 14.4382 15.8218 14.4382C15.5512 14.4382 15.2992 14.3869 15.0658 14.2842C14.7578 14.5175 14.6038 14.8022 14.6038 15.1382C14.6038 15.6702 14.9445 15.9362 15.6258 15.9362H16.3818C17.0352 15.9362 17.5485 16.1089 17.9218 16.4542C18.2952 16.7902 18.4818 17.2289 18.4818 17.7702C18.4818 18.4049 18.2532 18.9135 17.7958 19.2962C17.3478 19.6789 16.6898 19.8702 15.8218 19.8702C14.9165 19.8702 14.2632 19.6975 13.8618 19.3522C13.4698 19.0069 13.2738 18.4795 13.2738 17.7702H13.9878C13.9972 18.2929 14.1325 18.6615 14.3938 18.8762C14.6645 19.1002 15.1405 19.2122 15.8218 19.2122C17.0725 19.2122 17.6978 18.7455 17.6978 17.8122C17.6978 17.4109 17.5718 17.1075 17.3198 16.9022C17.0772 16.6875 16.7178 16.5802 16.2418 16.5802H15.6258C15.0378 16.5802 14.5992 16.4635 14.3098 16.2302C14.0298 15.9969 13.8898 15.6889 13.8898 15.3062C13.8898 14.8395 14.1185 14.4289 14.5758 14.0742C13.8852 13.6355 13.5398 12.9449 13.5398 12.0022C13.5398 11.2462 13.7452 10.6442 14.1558 10.1962C14.5758 9.74816 15.1312 9.52416 15.8218 9.52416C16.5312 9.52416 17.0538 9.49149 17.3898 9.42616C17.7352 9.35149 18.0805 9.23483 18.4258 9.07616L18.6638 9.81816ZM15.8078 10.1402C14.8185 10.1402 14.3238 10.7609 14.3238 12.0022C14.3238 12.5809 14.4545 13.0335 14.7158 13.3602C14.9865 13.6869 15.3458 13.8502 15.7938 13.8502C16.7738 13.8502 17.2638 13.2389 17.2638 12.0162C17.2638 11.4282 17.1425 10.9709 16.8998 10.6442C16.6572 10.3082 16.2932 10.1402 15.8078 10.1402Z" fill="#131313"/>
</svg>
