<svg width="24" height="24" viewBox="0 0 24 24" fill="none" xmlns="http://www.w3.org/2000/svg">
<path d="M9.75508 17.0002L9.61508 14.7322H7.23508L6.47908 17.0002H4.65908L8.39708 7.32617H10.5391L11.5751 17.0002H9.75508ZM7.66908 13.3882H9.53108L9.25108 8.62817L7.66908 13.3882ZM16.2404 9.39817C17.015 9.39817 17.7757 9.6035 18.5224 10.0142L17.5704 16.8182C17.4024 17.9475 17.057 18.7689 16.5344 19.2822C16.0117 19.8049 15.293 20.0662 14.3784 20.0662C13.9677 20.0662 13.5664 20.0009 13.1744 19.8702C12.7824 19.7395 12.4277 19.5575 12.1104 19.3242L12.7404 18.1762C13.3004 18.5215 13.8324 18.6942 14.3364 18.6942C14.747 18.6942 15.0877 18.5729 15.3584 18.3302C15.629 18.0875 15.811 17.6395 15.9044 16.9862L16.0304 16.0342C15.7877 16.3515 15.5404 16.5942 15.2884 16.7622C15.0364 16.9209 14.7284 17.0002 14.3644 17.0002C13.767 17.0002 13.3004 16.7715 12.9644 16.3142C12.6284 15.8569 12.4604 15.2409 12.4604 14.4662C12.4604 13.6169 12.591 12.8095 12.8524 12.0442C13.1137 11.2695 13.5244 10.6349 14.0844 10.1402C14.6537 9.6455 15.3724 9.39817 16.2404 9.39817ZM16.1424 10.6582C15.7037 10.6582 15.335 10.8495 15.0364 11.2322C14.747 11.6055 14.5277 12.0862 14.3784 12.6742C14.2384 13.2622 14.1684 13.8689 14.1684 14.4942C14.1684 14.9142 14.229 15.2222 14.3504 15.4182C14.4717 15.6049 14.6537 15.6982 14.8964 15.6982C15.1204 15.6982 15.335 15.6049 15.5404 15.4182C15.7457 15.2315 15.9604 14.9702 16.1844 14.6342L16.7164 10.7702C16.539 10.6955 16.3477 10.6582 16.1424 10.6582Z" fill="#131313"/>
</svg>
