<svg width="24" height="24" viewBox="0 0 24 24" fill="none" xmlns="http://www.w3.org/2000/svg">
<path d="M9.74567 16.9999L9.64767 14.9699H7.46367L6.83367 16.9999H4.29967L8.19167 7.28394H11.1177L12.2797 16.9999H9.74567ZM8.02367 13.2059H9.56367L9.36767 8.90794L8.02367 13.2059ZM16.9989 9.28594C17.9882 9.28594 18.9355 9.54261 19.8409 10.0559L18.9309 16.4959C18.7442 17.7652 18.3522 18.6892 17.7549 19.2679C17.1669 19.8466 16.3082 20.1359 15.1789 20.1359C14.7122 20.1359 14.2502 20.0612 13.7929 19.9119C13.3355 19.7719 12.9202 19.5759 12.5469 19.3239L13.3449 17.8119C13.9702 18.1666 14.5629 18.3439 15.1229 18.3439C15.5242 18.3439 15.8509 18.2412 16.1029 18.0359C16.3642 17.8306 16.5322 17.4432 16.6069 16.8739L16.7189 16.0759C16.2429 16.6919 15.6595 16.9999 14.9689 16.9999C14.2875 16.9999 13.7602 16.7526 13.3869 16.2579C13.0229 15.7632 12.8409 15.0912 12.8409 14.2419C12.8409 13.3926 12.9809 12.5946 13.2609 11.8479C13.5409 11.1012 13.9889 10.4899 14.6049 10.0139C15.2302 9.52861 16.0282 9.28594 16.9989 9.28594ZM16.8449 10.9659C16.3035 10.9659 15.8975 11.2972 15.6269 11.9599C15.3562 12.6226 15.2209 13.3832 15.2209 14.2419C15.2209 14.6152 15.2722 14.8812 15.3749 15.0399C15.4775 15.1892 15.6269 15.2639 15.8229 15.2639C16.1589 15.2639 16.5182 14.9746 16.9009 14.3959L17.3769 11.0499C17.1995 10.9939 17.0222 10.9659 16.8449 10.9659Z" fill="#131313"/>
</svg>
