<svg width="24" height="24" viewBox="0 0 24 24" fill="none" xmlns="http://www.w3.org/2000/svg">
<path d="M10.0562 17L9.72024 14.97H7.78824L7.46624 17H4.98824L7.31224 7.27002H10.2522L12.5622 17H10.0562ZM8.08224 13.206H9.44024L8.75424 9.04802L8.08224 13.206ZM18.9006 10C18.546 10.2053 17.9673 10.308 17.1646 10.308C17.594 10.4947 17.9066 10.742 18.1026 11.05C18.308 11.3487 18.4106 11.7453 18.4106 12.24C18.4106 12.7253 18.2986 13.1547 18.0746 13.528C17.8506 13.9013 17.5286 14.1953 17.1086 14.41C16.6886 14.6247 16.194 14.732 15.6246 14.732C15.4286 14.732 15.2093 14.704 14.9666 14.648C14.836 14.7507 14.7706 14.886 14.7706 15.054C14.7706 15.2033 14.8173 15.3153 14.9106 15.39C15.004 15.4647 15.1766 15.502 15.4286 15.502H16.1706C17.0106 15.502 17.664 15.698 18.1306 16.09C18.5973 16.482 18.8306 17 18.8306 17.644C18.8306 18.4 18.532 19.002 17.9346 19.45C17.3373 19.9073 16.488 20.136 15.3866 20.136C14.1826 20.136 13.352 19.9307 12.8946 19.52C12.4466 19.1093 12.2226 18.5073 12.2226 17.714H14.3506C14.3506 18.0313 14.4206 18.26 14.5606 18.4C14.71 18.5493 14.99 18.624 15.4006 18.624C15.7833 18.624 16.054 18.5493 16.2126 18.4C16.3713 18.26 16.4506 18.0593 16.4506 17.798C16.4506 17.5553 16.3853 17.3733 16.2546 17.252C16.124 17.14 15.914 17.084 15.6246 17.084H15.0506C14.2946 17.084 13.744 16.9533 13.3986 16.692C13.0533 16.4307 12.8806 16.0713 12.8806 15.614C12.8806 15.3247 12.9506 15.0587 13.0906 14.816C13.24 14.5733 13.436 14.368 13.6786 14.2C13.268 13.9387 12.9693 13.6447 12.7826 13.318C12.6053 12.982 12.5166 12.562 12.5166 12.058C12.5166 11.1993 12.778 10.532 13.3006 10.056C13.8233 9.57069 14.5513 9.32802 15.4846 9.32802C16.054 9.32802 16.544 9.24869 16.9546 9.09002C17.3746 8.92202 17.8413 8.67935 18.3546 8.36202L18.9006 10ZM15.5266 10.84C15.3026 10.84 15.13 10.9287 15.0086 11.106C14.8966 11.2833 14.8406 11.582 14.8406 12.002C14.8406 12.4313 14.8966 12.7393 15.0086 12.926C15.1206 13.1127 15.2886 13.206 15.5126 13.206C15.7366 13.206 15.9 13.1173 16.0026 12.94C16.1146 12.7533 16.1706 12.4313 16.1706 11.974C16.1706 11.554 16.1193 11.26 16.0166 11.092C15.914 10.924 15.7506 10.84 15.5266 10.84Z" fill="#131313"/>
</svg>
