<svg width="24" height="24" viewBox="0 0 24 24" fill="none" xmlns="http://www.w3.org/2000/svg">
<path d="M12.8935 16.9999H10.1215V15.0679H8.56752L8.06352 16.9999H5.24952L8.81952 7.25586H12.0535L12.8935 16.9999ZM9.05752 13.1359H10.1215V9.01986L9.05752 13.1359ZM17.3296 9.24386C17.8056 9.24386 18.2769 9.31386 18.7436 9.45386C19.2196 9.58453 19.6676 9.77119 20.0876 10.0139L19.1776 16.5099C19.0002 17.7512 18.6176 18.6706 18.0296 19.2679C17.4509 19.8652 16.6109 20.1639 15.5096 20.1639C14.5669 20.1639 13.7082 19.8979 12.9336 19.3659L13.8296 17.6999C14.1376 17.8772 14.4129 18.0032 14.6556 18.0779C14.8982 18.1619 15.1502 18.2039 15.4116 18.2039C15.7289 18.2039 15.9856 18.1152 16.1816 17.9379C16.3869 17.7699 16.5222 17.4572 16.5876 16.9999L16.7136 16.1179C16.3216 16.7152 15.7989 17.0139 15.1456 17.0139C14.5482 17.0139 14.0862 16.7759 13.7596 16.2999C13.4422 15.8146 13.2836 15.1566 13.2836 14.3259C13.2836 12.8326 13.6056 11.6146 14.2496 10.6719C14.8936 9.71986 15.9202 9.24386 17.3296 9.24386ZM17.0636 11.0779C16.6902 11.0779 16.4009 11.3999 16.1956 12.0439C15.9996 12.6879 15.9016 13.4719 15.9016 14.3959C15.9016 14.6572 15.9249 14.8392 15.9716 14.9419C16.0182 15.0446 16.0929 15.0959 16.1956 15.0959C16.2982 15.0959 16.4102 15.0352 16.5316 14.9139C16.6529 14.7926 16.7696 14.6339 16.8816 14.4379L17.3296 11.1199C17.2456 11.0919 17.1569 11.0779 17.0636 11.0779Z" fill="#131313"/>
</svg>
