<svg width="24" height="24" viewBox="0 0 24 24" fill="none" xmlns="http://www.w3.org/2000/svg">
<path d="M10.1745 14.5431H6.35947L5.58947 17.0001H4.39247L7.52847 7.36108H9.08247L12.2185 17.0001H10.9445L10.1745 14.5431ZM6.67447 13.5351H9.85947L8.27747 8.38308L6.67447 13.5351ZM19.899 8.84508L20.263 9.95108C19.9503 10.0491 19.6167 10.1098 19.262 10.1331C18.9073 10.1564 18.5223 10.1681 18.107 10.1681C18.5317 10.3641 18.8513 10.6184 19.066 10.9311C19.2807 11.2391 19.388 11.6031 19.388 12.0231C19.388 12.5084 19.2783 12.9401 19.059 13.3181C18.8397 13.6961 18.5223 13.9924 18.107 14.2071C17.6963 14.4218 17.1993 14.5291 16.616 14.5291C16.3687 14.5291 16.161 14.5174 15.993 14.4941C15.8297 14.4708 15.671 14.4358 15.517 14.3891C15.405 14.4638 15.3117 14.5664 15.237 14.6971C15.167 14.8278 15.132 14.9631 15.132 15.1031C15.132 15.2804 15.202 15.4274 15.342 15.5441C15.482 15.6608 15.741 15.7191 16.119 15.7191H17.449C17.9437 15.7191 18.387 15.8078 18.779 15.9851C19.1757 16.1624 19.486 16.4004 19.71 16.6991C19.9387 16.9978 20.053 17.3384 20.053 17.7211C20.053 18.4444 19.745 18.9998 19.129 19.3871C18.5177 19.7744 17.652 19.9681 16.532 19.9681C15.748 19.9681 15.1297 19.8864 14.677 19.7231C14.2243 19.5644 13.9 19.3194 13.704 18.9881C13.5127 18.6614 13.417 18.2484 13.417 17.7491H14.481C14.481 18.0338 14.537 18.2694 14.649 18.4561C14.761 18.6428 14.964 18.7804 15.258 18.8691C15.552 18.9624 15.9743 19.0091 16.525 19.0091C17.0663 19.0091 17.5073 18.9624 17.848 18.8691C18.1933 18.7804 18.4477 18.6451 18.611 18.4631C18.779 18.2858 18.863 18.0641 18.863 17.7981C18.863 17.4481 18.7043 17.1844 18.387 17.0071C18.0697 16.8298 17.673 16.7411 17.197 16.7411H15.881C15.2463 16.7411 14.7773 16.6011 14.474 16.3211C14.1753 16.0411 14.026 15.7191 14.026 15.3551C14.026 15.1171 14.0937 14.8861 14.229 14.6621C14.369 14.4381 14.572 14.2398 14.838 14.0671C14.4133 13.8431 14.1007 13.5654 13.9 13.2341C13.6993 12.9028 13.599 12.5014 13.599 12.0301C13.599 11.5308 13.7227 11.0898 13.97 10.7071C14.2173 10.3198 14.5627 10.0164 15.006 9.79708C15.4493 9.57775 15.9603 9.46808 16.539 9.46808C17.1597 9.46341 17.6637 9.43775 18.051 9.39108C18.4383 9.33975 18.7697 9.26741 19.045 9.17408C19.325 9.08075 19.6097 8.97108 19.899 8.84508ZM16.539 10.3291C15.9463 10.3291 15.5077 10.4901 15.223 10.8121C14.943 11.1294 14.803 11.5354 14.803 12.0301C14.803 12.5294 14.9477 12.9401 15.237 13.2621C15.5263 13.5841 15.9697 13.7451 16.567 13.7451C17.0897 13.7451 17.4863 13.5934 17.757 13.2901C18.0323 12.9868 18.17 12.5644 18.17 12.0231C18.17 11.4678 18.0323 11.0478 17.757 10.7631C17.4863 10.4738 17.0803 10.3291 16.539 10.3291Z" fill="#131313"/>
</svg>
