<svg width="24" height="24" viewBox="0 0 24 24" fill="none" xmlns="http://www.w3.org/2000/svg">
<path d="M11.3256 17.0001L10.8496 14.1581H6.91563L5.64163 17.0001H5.30563L9.61763 7.46606H10.0096L11.6616 17.0001H11.3256ZM7.04163 13.8641H10.8076L9.78563 7.73206L7.04163 13.8641ZM16.8247 9.59406C17.4687 9.59406 18.066 9.76673 18.6167 10.1121L17.6227 17.1121C17.492 18.0548 17.2027 18.7314 16.7547 19.1421C16.316 19.5528 15.77 19.7581 15.1167 19.7581C14.37 19.7581 13.6887 19.5388 13.0727 19.1001L13.2127 18.8901C13.8194 19.2914 14.454 19.4921 15.1167 19.4921C16.358 19.4921 17.0907 18.7034 17.3147 17.1261L17.5387 15.5301C17.268 15.9874 16.946 16.3468 16.5727 16.6081C16.1994 16.8694 15.798 17.0001 15.3687 17.0001C14.7434 17.0001 14.2534 16.7621 13.8987 16.2861C13.5534 15.8101 13.3807 15.1661 13.3807 14.3541C13.3807 13.6168 13.502 12.8841 13.7447 12.1561C13.9874 11.4281 14.3654 10.8214 14.8787 10.3361C15.4014 9.84139 16.05 9.59406 16.8247 9.59406ZM16.8247 9.86006C16.1154 9.86006 15.5274 10.0934 15.0607 10.5601C14.594 11.0174 14.2487 11.5914 14.0247 12.2821C13.81 12.9728 13.7027 13.6634 13.7027 14.3541C13.7027 15.0728 13.8474 15.6468 14.1367 16.0761C14.4354 16.4961 14.8507 16.7061 15.3827 16.7061C16.232 16.7061 16.974 16.1461 17.6087 15.0261L18.2947 10.2521C17.884 9.99073 17.394 9.86006 16.8247 9.86006Z" fill="#131313"/>
</svg>
