<svg width="24" height="24" viewBox="0 0 24 24" fill="none" xmlns="http://www.w3.org/2000/svg">
<path d="M11.9932 17H10.127L9.74414 14.7441H6.36035L5.32129 17H3.74219L8.21289 7.66895H10.2842L11.9932 17ZM9.58691 13.4453L8.85547 9.30272L6.93457 13.4453H9.58691ZM13.6748 16.3438C13.2829 16.0749 13.0869 15.7171 13.0869 15.2705C13.0869 14.9287 13.1758 14.6302 13.3535 14.375C13.5358 14.1152 13.9027 13.8486 14.4541 13.5752C13.93 13.1969 13.668 12.7207 13.668 12.1465C13.668 11.4355 13.9414 10.8796 14.4883 10.4785C15.0397 10.0775 15.8008 9.87695 16.7715 9.87695C17.1133 9.87695 17.4004 9.91113 17.6328 9.97949C17.8561 9.30046 18.1273 8.84244 18.4463 8.60546C18.7653 8.36848 19.1755 8.25 19.6768 8.25C19.8135 8.25 19.9684 8.26138 20.1416 8.28417L20.1279 9.47363C19.8818 9.45085 19.7109 9.43945 19.6152 9.43945C19.3691 9.43945 19.1253 9.48047 18.8838 9.5625C18.6423 9.64453 18.4554 9.86784 18.3232 10.2324C19.0342 10.5879 19.3896 11.1393 19.3896 11.8867C19.3896 12.5384 19.1344 13.0762 18.624 13.5C18.1136 13.9238 17.3844 14.1357 16.4365 14.1357C16.0355 14.1357 15.5843 14.0697 15.083 13.9375C14.6683 14.1471 14.4609 14.4297 14.4609 14.7852C14.4609 14.9811 14.5339 15.1361 14.6797 15.25C14.8255 15.3594 15.124 15.4141 15.5752 15.4141H16.4023C17.209 15.4141 17.7992 15.4824 18.1729 15.6191C18.5511 15.7513 18.8451 15.9655 19.0547 16.2617C19.2689 16.5534 19.376 16.8678 19.376 17.2051C19.376 17.7793 19.098 18.3011 18.542 18.7705C17.9906 19.2445 17.0221 19.4814 15.6367 19.4814C13.5905 19.4814 12.5674 18.9368 12.5674 17.8477C12.5674 17.474 12.6631 17.18 12.8545 16.9658C13.0459 16.7471 13.3193 16.5397 13.6748 16.3438ZM16.4297 13.2197C16.8717 13.2197 17.2158 13.1012 17.4619 12.8643C17.708 12.6227 17.8311 12.2992 17.8311 11.8936C17.8311 11.2054 17.4551 10.8613 16.7031 10.8613C16.2565 10.8613 15.9056 10.9821 15.6504 11.2236C15.3952 11.4606 15.2676 11.7751 15.2676 12.167C15.2676 12.8688 15.6549 13.2197 16.4297 13.2197ZM14.3652 16.6924C14.0645 16.9385 13.9141 17.1823 13.9141 17.4238C13.9141 17.7292 14.0827 17.9798 14.4199 18.1758C14.7572 18.3763 15.263 18.4766 15.9375 18.4766C17.2454 18.4766 17.8994 18.1257 17.8994 17.4238C17.8994 17.1504 17.7969 16.9818 17.5918 16.918C17.3867 16.8496 16.8649 16.8154 16.0264 16.8154C15.1514 16.8154 14.5977 16.7744 14.3652 16.6924Z" fill="#131313"/>
</svg>
