<svg width="24" height="24" viewBox="0 0 24 24" fill="none" xmlns="http://www.w3.org/2000/svg">
<path d="M11.6969 14.8378C11.7809 15.0525 11.8556 15.2065 11.9209 15.2998C11.9956 15.3931 12.0936 15.4585 12.2149 15.4958C12.3363 15.5238 12.5276 15.5378 12.7889 15.5378V15.9998H8.58891V15.5378H9.24691C9.49891 15.5378 9.62491 15.4305 9.62491 15.2158C9.62491 15.1318 9.61091 15.0431 9.58291 14.9498L8.78491 12.7238H5.90091L5.10291 14.9918C5.07491 15.0851 5.06091 15.1691 5.06091 15.2438C5.06091 15.3465 5.08891 15.4211 5.14491 15.4678C5.21025 15.5145 5.31758 15.5378 5.46691 15.5378H6.05491V15.9998H3.14291V15.5378C3.52558 15.5378 3.79625 15.4911 3.95491 15.3978C4.11358 15.2951 4.25358 15.0851 4.37491 14.7678L7.45491 6.75977H8.78491L11.6969 14.8378ZM8.60291 12.2058L7.35691 8.74777H7.31491L6.08291 12.2058H8.60291ZM19.7887 9.26577C20.0967 9.26577 20.3394 9.34044 20.5167 9.48977C20.694 9.62977 20.7827 9.82577 20.7827 10.0778C20.7827 10.2738 20.7314 10.4325 20.6287 10.5538C20.526 10.6751 20.372 10.7358 20.1667 10.7358C19.9987 10.7358 19.868 10.6985 19.7747 10.6238C19.6814 10.5398 19.6347 10.4325 19.6347 10.3018C19.6347 10.2365 19.6394 10.1758 19.6487 10.1198C19.6674 10.0638 19.6767 10.0171 19.6767 9.97976C19.6767 9.94244 19.658 9.90977 19.6207 9.88177C19.5834 9.85377 19.5274 9.83977 19.4527 9.83977C19.2474 9.83977 19.0607 9.95177 18.8927 10.1758C19.21 10.5211 19.3687 10.9645 19.3687 11.5058C19.3687 12.2245 19.0887 12.7658 18.5287 13.1298C17.978 13.4938 17.2687 13.6758 16.4007 13.6758C16.0647 13.6758 15.7567 13.6478 15.4767 13.5918C15.1874 13.7411 15.0427 13.8998 15.0427 14.0678C15.0427 14.1798 15.1127 14.2778 15.2527 14.3618C15.3927 14.4458 15.6307 14.4878 15.9667 14.4878H17.4087C18.2487 14.4878 18.8787 14.6605 19.2987 15.0058C19.7187 15.3511 19.9287 15.8505 19.9287 16.5038C19.9287 17.3158 19.6114 17.9271 18.9767 18.3378C18.342 18.7578 17.446 18.9678 16.2887 18.9678C15.3647 18.9678 14.6274 18.8278 14.0767 18.5478C13.5354 18.2771 13.2647 17.8665 13.2647 17.3158C13.2647 16.6811 13.666 16.2051 14.4687 15.8878C14.282 15.7665 14.1327 15.6125 14.0207 15.4258C13.918 15.2391 13.8667 15.0385 13.8667 14.8238C13.8667 14.2545 14.2167 13.7971 14.9167 13.4518C14.4687 13.2931 14.1187 13.0505 13.8667 12.7238C13.6147 12.3971 13.4887 11.9958 13.4887 11.5198C13.4887 10.7825 13.7687 10.2271 14.3287 9.85377C14.8887 9.4711 15.5887 9.27977 16.4287 9.27977C17.3247 9.27977 18.0387 9.47577 18.5707 9.86777C18.86 9.46644 19.266 9.26577 19.7887 9.26577ZM16.4287 13.2278C16.7647 13.2278 17.012 13.0878 17.1707 12.8078C17.3294 12.5278 17.4087 12.0658 17.4087 11.4218C17.4087 10.8058 17.3387 10.3718 17.1987 10.1198C17.068 9.85844 16.8254 9.72777 16.4707 9.72777C16.1067 9.72777 15.8547 9.8631 15.7147 10.1338C15.5747 10.3951 15.5047 10.8525 15.5047 11.5058C15.5047 12.1405 15.57 12.5885 15.7007 12.8498C15.8407 13.1018 16.0834 13.2278 16.4287 13.2278ZM18.6687 17.1898C18.6687 16.8071 18.5054 16.5318 18.1787 16.3638C17.8614 16.2051 17.362 16.1258 16.6807 16.1258H15.2667H15.2387C14.884 16.3871 14.7067 16.7418 14.7067 17.1898C14.7067 17.6005 14.8654 17.9225 15.1827 18.1558C15.5094 18.3985 15.9854 18.5198 16.6107 18.5198C17.2267 18.5198 17.7214 18.4031 18.0947 18.1698C18.4774 17.9458 18.6687 17.6191 18.6687 17.1898Z" fill="#131313"/>
</svg>
