<svg width="24" height="24" viewBox="0 0 24 24" fill="none" xmlns="http://www.w3.org/2000/svg">
<path d="M4.84421 13.0172H8.98121L9.01621 13.7452H4.79521L4.84421 13.0172ZM5.66321 16.6782C5.66321 16.7762 5.62821 16.8555 5.55821 16.9162C5.49288 16.9722 5.38555 17.0002 5.23621 17.0002H3.03821C2.89355 17.0002 2.78621 16.9722 2.71621 16.9162C2.64621 16.8555 2.61121 16.7762 2.61121 16.6782C2.61121 16.6082 2.62988 16.5499 2.66721 16.5032C2.70921 16.4519 2.78155 16.4005 2.88421 16.3492L3.11521 16.2582C3.25521 16.1882 3.36255 16.0972 3.43721 15.9852C3.51655 15.8732 3.60055 15.6749 3.68921 15.3902L5.92921 8.5442C5.98988 8.33887 6.00621 8.19187 5.97821 8.1032C5.95021 8.00987 5.85455 7.9352 5.69121 7.8792C5.56055 7.8372 5.46955 7.7882 5.41821 7.7322C5.36688 7.67153 5.34121 7.5992 5.34121 7.5152C5.34121 7.4172 5.37621 7.3402 5.44621 7.2842C5.51621 7.2282 5.62588 7.2002 5.77521 7.2002H9.19121C9.34055 7.2002 9.45021 7.2282 9.52021 7.2842C9.59021 7.3402 9.62521 7.4172 9.62521 7.5152C9.62521 7.60387 9.59721 7.6762 9.54121 7.7322C9.48988 7.7882 9.40588 7.83487 9.28921 7.8722C9.16321 7.90953 9.08855 7.9632 9.06521 8.0332C9.04188 8.1032 9.05588 8.21753 9.10721 8.3762L11.4872 15.5512C11.5619 15.7845 11.6412 15.9572 11.7252 16.0692C11.8092 16.1765 11.9282 16.2535 12.0822 16.3002C12.2175 16.3515 12.3085 16.4052 12.3552 16.4612C12.4019 16.5172 12.4252 16.5895 12.4252 16.6782C12.4252 16.7762 12.3902 16.8555 12.3202 16.9162C12.2502 16.9722 12.1405 17.0002 11.9912 17.0002H8.90421C8.75955 17.0002 8.65221 16.9722 8.58221 16.9162C8.51221 16.8555 8.47721 16.7762 8.47721 16.6782C8.47721 16.5942 8.50055 16.5265 8.54721 16.4752C8.59855 16.4239 8.67555 16.3819 8.77821 16.3492L9.17721 16.2652C9.29855 16.2279 9.35688 16.1672 9.35221 16.0832C9.34755 15.9992 9.31721 15.8662 9.26121 15.6842L6.78321 8.0402L7.01421 7.9002L4.61321 15.2782C4.55255 15.4695 4.52221 15.6282 4.52221 15.7542C4.52221 15.8755 4.55955 15.9759 4.63421 16.0552C4.71355 16.1299 4.83255 16.1999 4.99121 16.2652L5.36921 16.3562C5.46255 16.3935 5.53488 16.4355 5.58621 16.4822C5.63755 16.5289 5.66321 16.5942 5.66321 16.6782ZM17.5097 16.3562C16.8611 16.2629 16.3897 16.1812 16.0957 16.1112C15.8064 16.0365 15.6244 15.9665 15.5497 15.9012C15.4751 15.8359 15.4377 15.7682 15.4377 15.6982C15.4377 15.6235 15.4681 15.5535 15.5287 15.4882C15.5894 15.4229 15.6897 15.3599 15.8297 15.2992L15.6827 15.1872C15.2207 15.2339 14.8567 15.3202 14.5907 15.4462C14.3294 15.5675 14.1427 15.7145 14.0307 15.8872C13.9234 16.0599 13.8697 16.2442 13.8697 16.4402C13.8697 16.6642 13.9351 16.8555 14.0657 17.0142C14.2011 17.1729 14.4507 17.3129 14.8147 17.4342C15.1787 17.5602 15.7107 17.6745 16.4107 17.7772C16.9801 17.8612 17.4234 17.9499 17.7407 18.0432C18.0581 18.1412 18.2797 18.2509 18.4057 18.3722C18.5317 18.4935 18.5947 18.6359 18.5947 18.7992C18.5947 19.0045 18.5294 19.1795 18.3987 19.3242C18.2681 19.4735 18.0604 19.5855 17.7757 19.6602C17.4911 19.7395 17.1131 19.7792 16.6417 19.7792C15.8204 19.7792 15.2441 19.6555 14.9127 19.4082C14.5814 19.1655 14.4157 18.8435 14.4157 18.4422C14.4157 18.2229 14.5067 18.0245 14.6887 17.8472C14.8754 17.6745 15.1437 17.5602 15.4937 17.5042L15.3817 17.2942C14.4531 17.4062 13.8091 17.6045 13.4497 17.8892C13.0904 18.1739 12.9107 18.5005 12.9107 18.8692C12.9107 19.1679 13.0181 19.4339 13.2327 19.6672C13.4474 19.9052 13.8021 20.0919 14.2967 20.2272C14.7961 20.3625 15.4681 20.4302 16.3127 20.4302C17.6147 20.4302 18.6087 20.2249 19.2947 19.8142C19.9854 19.4082 20.3307 18.8855 20.3307 18.2462C20.3307 17.8962 20.2397 17.5975 20.0577 17.3502C19.8804 17.1029 19.5841 16.8999 19.1687 16.7412C18.7581 16.5779 18.2051 16.4495 17.5097 16.3562ZM17.6707 10.9382L18.1257 11.0012C18.2984 10.6605 18.4407 10.4319 18.5527 10.3152C18.6647 10.1985 18.7954 10.1402 18.9447 10.1402C19.0801 10.1402 19.1851 10.1752 19.2597 10.2452C19.3391 10.3105 19.4091 10.3875 19.4697 10.4762C19.5304 10.5649 19.6027 10.6442 19.6867 10.7142C19.7707 10.7795 19.8874 10.8122 20.0367 10.8122C20.2514 10.8122 20.4217 10.7352 20.5477 10.5812C20.6737 10.4225 20.7367 10.2149 20.7367 9.9582C20.7367 9.66887 20.6434 9.44253 20.4567 9.2792C20.2701 9.1112 20.0297 9.0272 19.7357 9.0272C19.3764 9.0272 19.0357 9.1462 18.7137 9.3842C18.3964 9.61753 18.1281 9.9722 17.9087 10.4482L17.6707 10.9382ZM19.7497 12.7372C19.7497 12.2659 19.6191 11.8412 19.3577 11.4632C19.1011 11.0805 18.7324 10.7795 18.2517 10.5602C17.7757 10.3409 17.2064 10.2312 16.5437 10.2312C15.8624 10.2312 15.2651 10.3455 14.7517 10.5742C14.2431 10.8029 13.8464 11.1225 13.5617 11.5332C13.2817 11.9392 13.1417 12.4129 13.1417 12.9542C13.1417 13.4255 13.2701 13.8525 13.5267 14.2352C13.7881 14.6132 14.1591 14.9119 14.6397 15.1312C15.1204 15.3505 15.6921 15.4602 16.3547 15.4602C17.0361 15.4602 17.6311 15.3459 18.1397 15.1172C18.6531 14.8885 19.0497 14.5712 19.3297 14.1652C19.6097 13.7545 19.7497 13.2785 19.7497 12.7372ZM16.1937 10.8262C16.5951 10.7982 16.9241 10.9569 17.1807 11.3022C17.4374 11.6475 17.6031 12.1469 17.6777 12.8002C17.7524 13.4395 17.7034 13.9319 17.5307 14.2772C17.3627 14.6225 17.0851 14.8092 16.6977 14.8372C16.4317 14.8512 16.1961 14.7859 15.9907 14.6412C15.7854 14.4919 15.6174 14.2679 15.4867 13.9692C15.3561 13.6659 15.2651 13.2972 15.2137 12.8632C15.1671 12.4339 15.1717 12.0722 15.2277 11.7782C15.2884 11.4842 15.4004 11.2579 15.5637 11.0992C15.7271 10.9359 15.9371 10.8449 16.1937 10.8262Z" fill="#131313"/>
</svg>
