<svg width="24" height="24" viewBox="0 0 24 24" fill="none" xmlns="http://www.w3.org/2000/svg">
<path d="M5.59664 13.1012H9.76864L9.81764 13.6962H5.53364L5.59664 13.1012ZM6.26164 16.7482C6.26164 16.8229 6.23364 16.8835 6.17764 16.9302C6.12631 16.9769 6.03997 17.0002 5.91864 17.0002H3.74864C3.62731 17.0002 3.53864 16.9792 3.48264 16.9372C3.42664 16.8905 3.39864 16.8299 3.39864 16.7552C3.39864 16.6945 3.41497 16.6455 3.44764 16.6082C3.48497 16.5709 3.55264 16.5312 3.65064 16.4892L3.92364 16.3982C4.05431 16.3422 4.15464 16.2652 4.22464 16.1672C4.29464 16.0645 4.36931 15.8849 4.44864 15.6282L6.91264 8.2712C6.96864 8.1032 6.98031 7.98187 6.94764 7.9072C6.91497 7.83253 6.81697 7.7742 6.65364 7.7322C6.52764 7.69953 6.43897 7.65987 6.38764 7.6132C6.33631 7.56653 6.31064 7.51053 6.31064 7.4452C6.31064 7.36587 6.33864 7.3052 6.39464 7.2632C6.45531 7.2212 6.54397 7.2002 6.66064 7.2002H9.55164C9.67297 7.2002 9.76164 7.2212 9.81764 7.2632C9.87364 7.3052 9.90164 7.36353 9.90164 7.4382C9.90164 7.5082 9.87597 7.56653 9.82464 7.6132C9.77797 7.65987 9.69397 7.6972 9.57264 7.7252C9.43731 7.75787 9.35797 7.8022 9.33464 7.8582C9.31131 7.9142 9.32064 8.00987 9.36264 8.1452L11.9596 15.8242C12.0203 16.0202 12.095 16.1649 12.1836 16.2582C12.2723 16.3515 12.3983 16.4169 12.5616 16.4542C12.6923 16.4915 12.7786 16.5335 12.8206 16.5802C12.8626 16.6222 12.8836 16.6782 12.8836 16.7482C12.8836 16.8229 12.8533 16.8835 12.7926 16.9302C12.7366 16.9769 12.648 17.0002 12.5266 17.0002H9.74764C9.63097 17.0002 9.54231 16.9769 9.48164 16.9302C9.42564 16.8835 9.39764 16.8229 9.39764 16.7482C9.39764 16.6829 9.41864 16.6292 9.46064 16.5872C9.50264 16.5452 9.57264 16.5125 9.67064 16.4892L10.1606 16.4122C10.2773 16.3842 10.338 16.3329 10.3426 16.2582C10.3473 16.1789 10.3216 16.0552 10.2656 15.8872L7.58464 7.8442L7.78764 7.7462L5.19064 15.5512C5.13931 15.7239 5.11364 15.8639 5.11364 15.9712C5.11364 16.0785 5.14631 16.1672 5.21164 16.2372C5.28164 16.3025 5.38897 16.3585 5.53364 16.4052L5.99564 16.4962C6.08897 16.5195 6.15664 16.5522 6.19864 16.5942C6.24064 16.6315 6.26164 16.6829 6.26164 16.7482ZM17.7927 16.5522C17.1347 16.4449 16.6564 16.3492 16.3577 16.2652C16.0637 16.1812 15.8771 16.0995 15.7977 16.0202C15.7231 15.9409 15.6857 15.8615 15.6857 15.7822C15.6857 15.6889 15.7207 15.6025 15.7907 15.5232C15.8607 15.4439 15.9821 15.3645 16.1547 15.2852L15.9727 15.1872C15.5947 15.2479 15.2984 15.3365 15.0837 15.4532C14.8691 15.5699 14.7174 15.7052 14.6287 15.8592C14.5401 16.0085 14.4957 16.1672 14.4957 16.3352C14.4957 16.5359 14.5587 16.7109 14.6847 16.8602C14.8107 17.0095 15.0511 17.1449 15.4057 17.2662C15.7651 17.3922 16.2901 17.5112 16.9807 17.6232C17.5454 17.7165 17.9841 17.8192 18.2967 17.9312C18.6094 18.0432 18.8264 18.1669 18.9477 18.3022C19.0691 18.4422 19.1297 18.5985 19.1297 18.7712C19.1297 19.0045 19.0527 19.2052 18.8987 19.3732C18.7494 19.5459 18.5161 19.6765 18.1987 19.7652C17.8861 19.8585 17.4824 19.9052 16.9877 19.9052C16.1244 19.9052 15.5131 19.7745 15.1537 19.5132C14.7991 19.2565 14.6217 18.9205 14.6217 18.5052C14.6217 18.2299 14.7524 17.9802 15.0137 17.7562C15.2751 17.5369 15.6624 17.3945 16.1757 17.3292L16.0287 17.1262C15.0721 17.2429 14.4047 17.4552 14.0267 17.7632C13.6534 18.0759 13.4667 18.4235 13.4667 18.8062C13.4667 19.1142 13.5741 19.3895 13.7887 19.6322C14.0081 19.8795 14.3581 20.0732 14.8387 20.2132C15.3194 20.3579 15.9587 20.4302 16.7567 20.4302C17.9421 20.4302 18.8497 20.2389 19.4797 19.8562C20.1144 19.4735 20.4317 18.9835 20.4317 18.3862C20.4317 18.0595 20.3501 17.7772 20.1867 17.5392C20.0234 17.3059 19.7481 17.1075 19.3607 16.9442C18.9781 16.7809 18.4554 16.6502 17.7927 16.5522ZM18.1147 11.0152L18.4857 11.0922C18.6677 10.7655 18.8171 10.5485 18.9337 10.4412C19.0504 10.3339 19.1764 10.2802 19.3117 10.2802C19.4237 10.2802 19.5147 10.3105 19.5847 10.3712C19.6547 10.4319 19.7177 10.5019 19.7737 10.5812C19.8297 10.6605 19.8927 10.7329 19.9627 10.7982C20.0374 10.8589 20.1377 10.8892 20.2637 10.8892C20.4364 10.8892 20.5741 10.8262 20.6767 10.7002C20.7794 10.5742 20.8307 10.4062 20.8307 10.1962C20.8307 9.94887 20.7467 9.7552 20.5787 9.6152C20.4154 9.47053 20.2007 9.3982 19.9347 9.3982C19.6314 9.3982 19.3397 9.49853 19.0597 9.6992C18.7844 9.8952 18.5464 10.1915 18.3457 10.5882L18.1147 11.0152ZM19.8717 12.8072C19.8717 12.3312 19.7457 11.9042 19.4937 11.5262C19.2464 11.1482 18.8964 10.8495 18.4437 10.6302C17.9957 10.4109 17.4684 10.3012 16.8617 10.3012C16.2457 10.3012 15.6997 10.4132 15.2237 10.6372C14.7477 10.8612 14.3767 11.1762 14.1107 11.5822C13.8447 11.9835 13.7117 12.4525 13.7117 12.9892C13.7117 13.4605 13.8377 13.8875 14.0897 14.2702C14.3417 14.6482 14.6917 14.9492 15.1397 15.1732C15.5924 15.3925 16.1197 15.5022 16.7217 15.5022C17.3377 15.5022 17.8814 15.3902 18.3527 15.1662C18.8287 14.9375 19.1997 14.6202 19.4657 14.2142C19.7364 13.8082 19.8717 13.3392 19.8717 12.8072ZM16.5957 10.7912C17.0764 10.7725 17.4684 10.9545 17.7717 11.3372C18.0797 11.7152 18.2594 12.2402 18.3107 12.9122C18.3574 13.5562 18.2641 14.0579 18.0307 14.4172C17.8021 14.7765 17.4544 14.9655 16.9877 14.9842C16.6657 14.9982 16.3811 14.9212 16.1337 14.7532C15.8911 14.5852 15.6951 14.3402 15.5457 14.0182C15.3964 13.6962 15.3054 13.3135 15.2727 12.8702C15.2401 12.4362 15.2704 12.0675 15.3637 11.7642C15.4571 11.4562 15.6064 11.2205 15.8117 11.0572C16.0217 10.8939 16.2831 10.8052 16.5957 10.7912Z" fill="#131313"/>
</svg>
