<svg width="24" height="24" viewBox="0 0 24 24" fill="none" xmlns="http://www.w3.org/2000/svg">
<path d="M5.86504 14.4731C5.62704 14.8604 5.52671 15.1801 5.56404 15.4321C5.60604 15.6794 5.74604 15.8568 5.98404 15.9641L6.20104 16.0691C6.30371 16.1298 6.37604 16.1951 6.41804 16.2651C6.46004 16.3351 6.48104 16.4074 6.48104 16.4821C6.48104 16.6408 6.42504 16.7668 6.31304 16.8601C6.20104 16.9534 6.05171 17.0001 5.86504 17.0001H3.52004C3.34271 17.0001 3.20971 16.9628 3.12104 16.8881C3.02771 16.8088 2.98104 16.7014 2.98104 16.5661C2.98104 16.4354 3.01604 16.3188 3.08604 16.2161C3.15604 16.1134 3.30304 15.9968 3.52704 15.8661C3.69971 15.7588 3.89104 15.5581 4.10104 15.2641C4.31571 14.9701 4.53037 14.6364 4.74504 14.2631L7.31404 9.97907C7.95337 8.9664 8.66037 8.2174 9.43504 7.73207C10.2097 7.24207 11.0334 6.99707 11.906 6.99707C12.256 6.99707 12.501 7.0484 12.641 7.15107C12.7857 7.24907 12.858 7.37507 12.858 7.52907C12.858 7.63174 12.837 7.7204 12.795 7.79507C12.753 7.86507 12.6807 7.93507 12.578 8.00507C12.3634 8.10307 12.193 8.24074 12.067 8.41807C11.9457 8.59074 11.8827 8.8474 11.878 9.18807C11.878 9.3514 11.8757 9.56374 11.871 9.82507C11.8664 10.0818 11.8617 10.3688 11.857 10.6861C11.8524 11.0034 11.8477 11.3348 11.843 11.6801C11.8384 12.0254 11.8337 12.3661 11.829 12.7021C11.8244 13.0381 11.8197 13.3531 11.815 13.6471C11.815 13.9411 11.815 14.1978 11.815 14.4171C11.815 14.6318 11.815 14.7904 11.815 14.8931C11.8197 15.1031 11.8267 15.2758 11.836 15.4111C11.85 15.5418 11.8874 15.6561 11.948 15.7541C12.0087 15.8474 12.1137 15.9408 12.263 16.0341C12.4264 16.1648 12.508 16.3188 12.508 16.4961C12.508 16.6408 12.452 16.7621 12.34 16.8601C12.228 16.9534 12.0717 17.0001 11.871 17.0001H8.22404C8.02804 17.0001 7.89271 16.9558 7.81804 16.8671C7.74804 16.7784 7.71304 16.6734 7.71304 16.5521C7.71304 16.4168 7.75271 16.3071 7.83204 16.2231C7.91137 16.1391 8.03037 16.0621 8.18904 15.9921L8.42004 15.9361C8.56937 15.8801 8.67671 15.7681 8.74204 15.6001C8.80737 15.4274 8.84237 15.2151 8.84704 14.9631C8.85171 14.7998 8.85637 14.5944 8.86104 14.3471C8.86571 14.0951 8.87271 13.8174 8.88204 13.5141C8.89137 13.2061 8.89837 12.8841 8.90304 12.5481C8.91237 12.2074 8.92171 11.8621 8.93104 11.5121C8.94504 11.1621 8.95437 10.8238 8.95904 10.4971C8.96371 10.1658 8.96837 9.85774 8.97304 9.57307C8.97771 9.28374 8.98004 9.0294 8.98004 8.81007L9.61704 8.97807C9.50037 9.03407 9.37671 9.1134 9.24604 9.21607C9.12004 9.31407 8.97304 9.4634 8.80504 9.66407C8.64171 9.86474 8.44337 10.1448 8.21004 10.5041L5.86504 14.4731ZM5.53604 13.9761L5.68304 13.1011H9.67304L9.59604 13.9761H5.53604ZM20.1678 16.7831C19.9951 17.5671 19.6965 18.2414 19.2718 18.8061C18.8518 19.3708 18.2965 19.8048 17.6058 20.1081C16.9198 20.4114 16.0868 20.5631 15.1068 20.5631C14.2761 20.5631 13.6415 20.4138 13.2028 20.1151C12.7595 19.8164 12.5378 19.4244 12.5378 18.9391C12.5378 18.6124 12.6475 18.3324 12.8668 18.0991C13.0815 17.8658 13.3778 17.7491 13.7558 17.7491C14.0405 17.7491 14.2948 17.8354 14.5188 18.0081C14.7428 18.1854 14.9481 18.3884 15.1348 18.6171C15.3261 18.8504 15.5105 19.0534 15.6878 19.2261C15.8651 19.3988 16.0471 19.4851 16.2338 19.4851C16.3551 19.4851 16.4601 19.4524 16.5488 19.3871C16.6421 19.3218 16.7261 19.2098 16.8008 19.0511C16.8801 18.8971 16.9525 18.6894 17.0178 18.4281L17.9348 14.8721L18.2918 15.0821C18.1751 15.5114 17.9698 15.8871 17.6758 16.2091C17.3865 16.5264 17.0411 16.7738 16.6398 16.9511C16.2385 17.1238 15.8115 17.2101 15.3588 17.2101C14.9248 17.2101 14.5561 17.1191 14.2528 16.9371C13.9541 16.7551 13.7371 16.4821 13.6018 16.1181C13.4665 15.7541 13.4291 15.3014 13.4898 14.7601C13.5458 14.3168 13.6648 13.8781 13.8468 13.4441C14.0288 13.0054 14.2738 12.5924 14.5818 12.2051C14.8898 11.8178 15.2585 11.4748 15.6878 11.1761C16.1218 10.8774 16.6141 10.6441 17.1648 10.4761C17.7201 10.3034 18.3315 10.2171 18.9988 10.2171C19.6615 10.2171 20.2075 10.2614 20.6368 10.3501C21.0661 10.4388 21.3811 10.5578 21.5818 10.7071C21.7825 10.8564 21.8688 11.0244 21.8408 11.2111C21.8175 11.3744 21.7568 11.4888 21.6588 11.5541C21.5655 11.6194 21.4698 11.6871 21.3718 11.7571C21.2738 11.8224 21.2061 11.9391 21.1688 12.1071L20.1678 16.7831ZM16.4228 14.7321C16.3948 14.9654 16.3925 15.1521 16.4158 15.2921C16.4391 15.4274 16.4788 15.5254 16.5348 15.5861C16.5908 15.6421 16.6561 15.6701 16.7308 15.6701C16.8568 15.6701 16.9875 15.6164 17.1228 15.5091C17.2628 15.4018 17.4005 15.2478 17.5358 15.0471C17.6758 14.8418 17.8111 14.6014 17.9418 14.3261C18.0725 14.0461 18.1915 13.7334 18.2988 13.3881C18.4061 13.0428 18.4925 12.6741 18.5578 12.2821C18.6231 11.9181 18.6301 11.6521 18.5788 11.4841C18.5321 11.3161 18.4295 11.2321 18.2708 11.2321C18.1075 11.2321 17.9441 11.3044 17.7808 11.4491C17.6221 11.5891 17.4681 11.7804 17.3188 12.0231C17.1741 12.2658 17.0388 12.5388 16.9128 12.8421C16.7915 13.1454 16.6888 13.4604 16.6048 13.7871C16.5208 14.1138 16.4601 14.4288 16.4228 14.7321Z" fill="#131313"/>
</svg>
