<svg width="24" height="24" viewBox="0 0 24 24" fill="none" xmlns="http://www.w3.org/2000/svg">
<path d="M5.59468 13.2832H9.83668L9.90668 13.5842H5.49668L5.59468 13.2832ZM5.95868 16.8882C5.95868 16.9209 5.94235 16.9489 5.90968 16.9722C5.88168 16.9909 5.83501 17.0002 5.76968 17.0002H3.65568C3.58568 17.0002 3.53435 16.9909 3.50168 16.9722C3.46901 16.9535 3.45268 16.9279 3.45268 16.8952C3.45268 16.8672 3.46668 16.8462 3.49468 16.8322C3.52268 16.8135 3.58335 16.7925 3.67668 16.7692L4.02668 16.6782C4.14801 16.6455 4.23435 16.5942 4.28568 16.5242C4.34168 16.4495 4.40468 16.3119 4.47468 16.1112L7.37268 7.7252C7.41001 7.6272 7.41001 7.55953 7.37268 7.5222C7.34001 7.4802 7.24201 7.44987 7.07868 7.4312C6.94801 7.4172 6.85701 7.40087 6.80568 7.3822C6.75901 7.36353 6.73568 7.33553 6.73568 7.2982C6.73568 7.26553 6.75201 7.2422 6.78468 7.2282C6.82201 7.20953 6.87101 7.2002 6.93168 7.2002H8.76568C8.83101 7.2002 8.87768 7.20953 8.90568 7.2282C8.93835 7.2422 8.95468 7.2632 8.95468 7.2912C8.95468 7.32853 8.93368 7.35887 8.89168 7.3822C8.84968 7.40087 8.76101 7.4172 8.62568 7.4312C8.48101 7.4452 8.39468 7.46853 8.36668 7.5012C8.33868 7.53387 8.33868 7.5922 8.36668 7.6762L11.4047 16.3772C11.442 16.4939 11.5073 16.5825 11.6007 16.6432C11.694 16.6992 11.8363 16.7389 12.0277 16.7622C12.1303 16.7715 12.198 16.7855 12.2307 16.8042C12.268 16.8229 12.2867 16.8509 12.2867 16.8882C12.2867 16.9209 12.268 16.9489 12.2307 16.9722C12.198 16.9909 12.149 17.0002 12.0837 17.0002H9.92068C9.86468 17.0002 9.81801 16.9909 9.78068 16.9722C9.74801 16.9489 9.73168 16.9209 9.73168 16.8882C9.73168 16.8555 9.74801 16.8299 9.78068 16.8112C9.81335 16.7879 9.86701 16.7739 9.94168 16.7692L10.6137 16.7132C10.7303 16.7039 10.798 16.6665 10.8167 16.6012C10.8353 16.5359 10.819 16.4309 10.7677 16.2862L7.68068 7.4662L7.82768 7.4452L4.84568 16.1042C4.80368 16.2302 4.78268 16.3352 4.78268 16.4192C4.78268 16.4985 4.80835 16.5615 4.85968 16.6082C4.91568 16.6502 4.99735 16.6782 5.10468 16.6922L5.74868 16.7692C5.82801 16.7785 5.88168 16.7925 5.90968 16.8112C5.94235 16.8252 5.95868 16.8509 5.95868 16.8882ZM16.8519 16.9442C16.1799 16.8089 15.6899 16.6852 15.3819 16.5732C15.0739 16.4612 14.8779 16.3539 14.7939 16.2512C14.7099 16.1485 14.6679 16.0459 14.6679 15.9432C14.6679 15.8172 14.7145 15.7005 14.8079 15.5932C14.9012 15.4859 15.0669 15.3739 15.3049 15.2572L15.0389 15.1872C14.8335 15.2805 14.6702 15.3785 14.5489 15.4812C14.4322 15.5839 14.3505 15.6889 14.3039 15.7962C14.2572 15.9035 14.2339 16.0085 14.2339 16.1112C14.2339 16.2699 14.2899 16.4169 14.4019 16.5522C14.5185 16.6829 14.7472 16.8112 15.0879 16.9372C15.4285 17.0632 15.9372 17.1915 16.6139 17.3222C17.1739 17.4295 17.6009 17.5532 17.8949 17.6932C18.1935 17.8379 18.3989 17.9942 18.5109 18.1622C18.6229 18.3349 18.6789 18.5215 18.6789 18.7222C18.6789 19.0115 18.5832 19.2635 18.3919 19.4782C18.2005 19.6975 17.9182 19.8655 17.5449 19.9822C17.1762 20.1035 16.7212 20.1642 16.1799 20.1642C15.2232 20.1642 14.5395 20.0195 14.1289 19.7302C13.7229 19.4455 13.5199 19.0815 13.5199 18.6382C13.5199 18.2369 13.7299 17.8799 14.1499 17.5672C14.5745 17.2592 15.1999 17.0632 16.0259 16.9792L15.8159 16.7832C14.8032 16.9139 14.0915 17.1589 13.6809 17.5182C13.2702 17.8775 13.0649 18.2649 13.0649 18.6802C13.0649 19.0022 13.1745 19.2939 13.3939 19.5552C13.6179 19.8212 13.9539 20.0335 14.4019 20.1922C14.8545 20.3509 15.4309 20.4302 16.1309 20.4302C17.0875 20.4302 17.8272 20.2645 18.3499 19.9332C18.8725 19.6019 19.1339 19.1772 19.1339 18.6592C19.1339 18.3932 19.0662 18.1529 18.9309 17.9382C18.8002 17.7235 18.5692 17.5322 18.2379 17.3642C17.9065 17.1962 17.4445 17.0562 16.8519 16.9442ZM17.4959 11.1692L17.6989 11.2672C17.9042 10.9685 18.0675 10.7749 18.1889 10.6862C18.3102 10.5975 18.4245 10.5532 18.5319 10.5532C18.6112 10.5532 18.6765 10.5789 18.7279 10.6302C18.7792 10.6769 18.8259 10.7305 18.8679 10.7912C18.9145 10.8519 18.9635 10.9079 19.0149 10.9592C19.0662 11.0105 19.1292 11.0362 19.2039 11.0362C19.3019 11.0362 19.3765 11.0035 19.4279 10.9382C19.4839 10.8729 19.5119 10.7842 19.5119 10.6722C19.5119 10.5182 19.4489 10.3899 19.3229 10.2872C19.2015 10.1845 19.0382 10.1332 18.8329 10.1332C18.6322 10.1332 18.4362 10.1962 18.2449 10.3222C18.0535 10.4482 17.8762 10.6279 17.7129 10.8612L17.4959 11.1692ZM18.5949 12.9472C18.5949 12.4712 18.4782 12.0442 18.2449 11.6662C18.0162 11.2835 17.7035 10.9825 17.3069 10.7632C16.9149 10.5439 16.4739 10.4342 15.9839 10.4342C15.4985 10.4342 15.0552 10.5462 14.6539 10.7702C14.2572 10.9895 13.9399 11.2952 13.7019 11.6872C13.4639 12.0792 13.3449 12.5389 13.3449 13.0662C13.3449 13.5329 13.4615 13.9575 13.6949 14.3402C13.9282 14.7229 14.2409 15.0239 14.6329 15.2432C15.0295 15.4625 15.4729 15.5722 15.9629 15.5722C16.4435 15.5722 16.8845 15.4625 17.2859 15.2432C17.6872 15.0239 18.0045 14.7159 18.2379 14.3192C18.4759 13.9225 18.5949 13.4652 18.5949 12.9472ZM15.8789 10.7212C16.5322 10.7212 17.0595 10.9475 17.4609 11.4002C17.8622 11.8482 18.0629 12.4245 18.0629 13.1292C18.0629 13.7872 17.8855 14.3122 17.5309 14.7042C17.1762 15.0915 16.6862 15.2852 16.0609 15.2852C15.6269 15.2852 15.2442 15.1825 14.9129 14.9772C14.5862 14.7719 14.3319 14.4872 14.1499 14.1232C13.9679 13.7592 13.8769 13.3439 13.8769 12.8772C13.8769 12.4385 13.9562 12.0582 14.1149 11.7362C14.2735 11.4095 14.5022 11.1599 14.8009 10.9872C15.1042 10.8099 15.4635 10.7212 15.8789 10.7212Z" fill="#131313"/>
</svg>
