<svg width="24" height="24" viewBox="0 0 24 24" fill="none" xmlns="http://www.w3.org/2000/svg">
<path d="M8.81501 7.46579L12.595 15.2778C12.7537 15.5951 12.833 15.8331 12.833 15.9918C12.833 16.3278 12.5623 16.6311 12.021 16.9018C11.7037 17.0605 11.4517 17.1398 11.265 17.1398C11.0877 17.1398 10.9383 17.0978 10.817 17.0138C10.705 16.9298 10.621 16.8411 10.565 16.7478C10.5183 16.6545 10.4483 16.5145 10.355 16.3278L9.62702 14.8158H5.74901L5.02101 16.3278C4.92767 16.5145 4.85301 16.6498 4.79701 16.7338C4.75034 16.8178 4.66634 16.9065 4.54501 16.9998C4.43301 17.0838 4.28367 17.1258 4.09701 17.1258C3.91967 17.1258 3.67234 17.0465 3.35501 16.8878C2.81367 16.6265 2.54301 16.3278 2.54301 15.9918C2.54301 15.8331 2.62234 15.5951 2.78101 15.2778L6.56101 7.45179C6.66367 7.23712 6.81767 7.06446 7.02301 6.93379C7.23767 6.80312 7.46168 6.73779 7.69501 6.73779C8.19902 6.73779 8.57234 6.98046 8.81501 7.46579ZM7.68101 10.8258L6.75701 12.7438H8.61901L7.68101 10.8258ZM17.7135 16.0758C17.3589 16.5425 16.7942 16.7758 16.0195 16.7758C15.2449 16.7758 14.5169 16.4211 13.8355 15.7118C13.1635 14.9931 12.8275 14.1578 12.8275 13.2058C12.8275 12.2538 13.1682 11.4185 13.8495 10.6998C14.5309 9.98112 15.2775 9.62179 16.0895 9.62179C16.4069 9.62179 16.6962 9.68246 16.9575 9.80379C17.2189 9.91579 17.3962 10.0231 17.4895 10.1258C17.5922 10.2191 17.6715 10.3078 17.7275 10.3918C17.7555 10.1305 17.8489 9.93446 18.0075 9.80379C18.1755 9.66379 18.4415 9.59379 18.8055 9.59379C19.1695 9.59379 19.4355 9.62179 19.6035 9.67779C19.7715 9.73379 19.8882 9.83179 19.9535 9.97179C20.0282 10.1025 20.0702 10.2191 20.0795 10.3218C20.0982 10.4245 20.1075 10.5831 20.1075 10.7978V16.5938C20.1075 17.6671 19.7342 18.5305 18.9875 19.1838C18.2409 19.8465 17.4009 20.1778 16.4675 20.1778C15.7582 20.1778 15.0815 20.0051 14.4375 19.6598C13.7935 19.3145 13.4715 19.0018 13.4715 18.7218C13.4715 18.3578 13.6115 18.0358 13.8915 17.7558C14.0689 17.5598 14.2042 17.4245 14.2975 17.3498C14.4002 17.2751 14.5169 17.2378 14.6475 17.2378C14.7782 17.2378 14.9135 17.2938 15.0535 17.4058C15.5015 17.7511 15.9869 17.9238 16.5095 17.9238C16.8642 17.9238 17.1535 17.7838 17.3775 17.5038C17.6015 17.2238 17.7135 16.8878 17.7135 16.4958V16.0758ZM15.2215 13.2198C15.2215 13.5185 15.3382 13.7891 15.5715 14.0318C15.8142 14.2745 16.1035 14.3958 16.4395 14.3958C16.7849 14.3958 17.0695 14.2745 17.2935 14.0318C17.5175 13.7798 17.6295 13.5091 17.6295 13.2198C17.6295 12.9211 17.5222 12.6458 17.3075 12.3938C17.0929 12.1325 16.8035 12.0018 16.4395 12.0018C16.0755 12.0018 15.7815 12.1278 15.5575 12.3798C15.3335 12.6318 15.2215 12.9118 15.2215 13.2198Z" fill="#131313"/>
</svg>
