<svg width="24" height="24" viewBox="0 0 24 24" fill="none" xmlns="http://www.w3.org/2000/svg">
<path d="M12.1367 7.0334C12.1276 7.07898 12.123 7.11088 12.123 7.12911C12.123 7.14734 12.1185 7.17012 12.1094 7.19747C12.2096 7.37976 12.2666 7.59395 12.2803 7.84004C12.2894 7.96309 12.2962 8.08614 12.3008 8.20918C12.3099 8.32767 12.319 8.44616 12.3281 8.56465C12.3737 8.51908 12.4147 8.47579 12.4512 8.43477C12.4876 8.39375 12.5241 8.35046 12.5605 8.30489C12.6061 8.25931 12.6426 8.21602 12.6699 8.175C12.6836 8.15222 12.6973 8.13171 12.7109 8.11348C12.7292 8.09069 12.7474 8.06791 12.7656 8.04512C12.793 7.99955 12.818 7.96765 12.8408 7.94942C12.8636 7.93119 12.8932 7.90385 12.9297 7.86739C12.9525 7.8446 12.9753 7.82181 12.998 7.79903C13.0208 7.77168 13.0436 7.74434 13.0664 7.717C13.0892 7.68965 13.112 7.66459 13.1348 7.6418C13.1576 7.61446 13.1803 7.58939 13.2031 7.56661C13.2396 7.51648 13.2738 7.47546 13.3057 7.44356C13.3421 7.4071 13.3763 7.36609 13.4082 7.32051C13.4447 7.27494 13.4811 7.22937 13.5176 7.18379C13.554 7.13366 13.5905 7.08581 13.627 7.04024C13.7044 6.93998 13.791 6.86478 13.8867 6.81465C13.9733 6.83744 14.0189 6.85111 14.0234 6.85567C14.0326 6.86478 14.0462 6.86934 14.0645 6.86934C14.1829 6.9058 14.2536 6.96049 14.2764 7.0334C14.2992 7.10632 14.3105 7.17468 14.3105 7.23848C14.3105 7.28405 14.306 7.33874 14.2969 7.40254C14.2878 7.46635 14.2741 7.52103 14.2559 7.56661C14.2467 7.59395 14.2354 7.62129 14.2217 7.64864C14.2126 7.67598 14.2012 7.70105 14.1875 7.72383C14.1602 7.76941 14.1465 7.81726 14.1465 7.86739C14.1374 7.92208 14.126 7.97904 14.1123 8.03829C14.0986 8.09753 14.0736 8.14082 14.0371 8.16817C14.0553 8.29577 14.0303 8.40059 13.9619 8.48262C13.8981 8.5601 13.8411 8.63757 13.791 8.71504C13.75 8.77429 13.7181 8.83353 13.6953 8.89278C13.6543 8.94747 13.6315 8.99076 13.627 9.02266C13.6224 9.05912 13.5951 9.10241 13.5449 9.15254C13.5221 9.18444 13.4834 9.21862 13.4287 9.25508C13.3649 9.30066 13.3216 9.33484 13.2988 9.35762C13.2259 9.44877 13.1712 9.51257 13.1348 9.54903L13.0664 9.61739C13.0208 9.66752 12.9844 9.72448 12.957 9.78829C12.9297 9.84753 12.8932 9.89994 12.8477 9.94551C12.8112 9.99109 12.7816 10.0207 12.7588 10.0344C12.736 10.0481 12.7109 10.0731 12.6836 10.1096C12.6699 10.1278 12.654 10.1597 12.6357 10.2053C12.6312 10.2235 12.6243 10.2417 12.6152 10.26C12.6061 10.2782 12.597 10.2964 12.5879 10.3147C12.5788 10.3329 12.5697 10.3511 12.5605 10.3693C12.5514 10.383 12.5423 10.3967 12.5332 10.4104L12.4785 10.4924C12.4603 10.5243 12.4466 10.5607 12.4375 10.6018C12.4284 10.6382 12.4102 10.6747 12.3828 10.7111C12.3145 10.8251 12.2507 10.9436 12.1914 11.0666C12.1686 11.1122 12.1458 11.1691 12.123 11.2375C12.1003 11.3059 12.0775 11.3628 12.0547 11.4084C12.0456 11.4357 12.0342 11.4631 12.0205 11.4904C12.0114 11.5178 12 11.5428 11.9863 11.5656C11.9681 11.5975 11.9453 11.6454 11.918 11.7092C11.877 11.7912 11.8382 11.8983 11.8018 12.0305C11.7653 12.1626 11.7266 12.2697 11.6855 12.3518C11.6673 12.3928 11.6491 12.4338 11.6309 12.4748C11.6172 12.5158 11.6035 12.5568 11.5898 12.5979C11.5625 12.6844 11.526 12.7619 11.4805 12.8303C11.4349 12.9943 11.3939 13.163 11.3574 13.3361C11.3392 13.4182 11.3164 13.5025 11.2891 13.5891C11.2663 13.6711 11.2389 13.7554 11.207 13.842C11.1432 14.0243 11.0817 14.2134 11.0225 14.4094C10.9632 14.6053 10.9062 14.799 10.8516 14.9904C10.806 15.2092 10.7718 15.4143 10.749 15.6057C10.7262 15.7971 10.724 16.0022 10.7422 16.2209C10.8014 16.2209 10.8538 16.2346 10.8994 16.2619C10.9495 16.2893 11.002 16.2938 11.0566 16.2756C11.0931 16.271 11.1387 16.2482 11.1934 16.2072C11.248 16.1662 11.3027 16.1343 11.3574 16.1115C11.3893 16.0979 11.4281 16.0865 11.4736 16.0773C11.501 16.0728 11.526 16.0523 11.5488 16.0158C11.6719 15.9794 11.763 15.9247 11.8223 15.8518C11.9271 15.8244 12.0182 15.7811 12.0957 15.7219C12.1367 15.69 12.1777 15.6626 12.2188 15.6398C12.2598 15.6125 12.3008 15.5874 12.3418 15.5647L12.6152 15.4006C12.6608 15.3824 12.7064 15.3641 12.752 15.3459C12.7975 15.3277 12.8385 15.3003 12.875 15.2639C12.8978 15.2411 12.9342 15.2137 12.9844 15.1818L13.1074 15.0998C13.1986 15.0725 13.2715 15.0383 13.3262 14.9973C13.3809 14.9563 13.4173 14.9266 13.4355 14.9084C13.4766 14.9175 13.5335 14.8993 13.6064 14.8537C13.6794 14.8081 13.7409 14.7854 13.791 14.7854C13.8138 14.799 13.8503 14.8104 13.9004 14.8195C13.946 14.8287 13.9779 14.84 13.9961 14.8537C13.987 14.8993 13.9847 14.9335 13.9893 14.9563C13.9938 14.979 13.9961 15.0087 13.9961 15.0451C13.9961 15.0634 13.971 15.1044 13.9209 15.1682C13.8708 15.232 13.8366 15.273 13.8184 15.2912C13.791 15.3277 13.7386 15.3778 13.6611 15.4416C13.5837 15.5054 13.5221 15.5464 13.4766 15.5647C13.4264 15.674 13.3604 15.7629 13.2783 15.8313C13.2327 15.8677 13.1895 15.9064 13.1484 15.9475C13.112 15.9839 13.0755 16.0204 13.0391 16.0568C12.9479 16.1024 12.8613 16.1617 12.7793 16.2346C12.6973 16.3075 12.6243 16.3759 12.5605 16.4397C12.3281 16.5809 12.1048 16.7245 11.8906 16.8703C11.6764 17.0207 11.4349 17.1643 11.166 17.301L10.8516 17.4445C10.7513 17.4901 10.6283 17.5243 10.4824 17.5471C10.4004 17.5516 10.3298 17.5448 10.2705 17.5266C10.2386 17.5175 10.2067 17.5061 10.1748 17.4924C10.1429 17.4833 10.1087 17.4742 10.0723 17.465C10.0176 17.3055 9.93555 17.1688 9.82617 17.0549C9.7168 16.941 9.66211 16.7951 9.66211 16.6174C9.65299 16.59 9.65299 16.5581 9.66211 16.5217L9.68945 16.4123C9.69857 16.3759 9.70312 16.3485 9.70312 16.3303C9.70312 16.312 9.70768 16.2801 9.7168 16.2346L9.77832 15.9406C9.80111 15.8449 9.82161 15.7424 9.83984 15.633C9.83073 15.4872 9.83757 15.3596 9.86035 15.2502C9.86947 15.1955 9.87858 15.1385 9.8877 15.0793C9.89681 15.0201 9.90365 14.9585 9.9082 14.8947C9.85807 14.9175 9.82389 14.9426 9.80566 14.9699C9.78743 14.9973 9.75326 15.0223 9.70312 15.0451C9.63021 15.1272 9.55046 15.2046 9.46387 15.2775C9.37728 15.3505 9.2793 15.4143 9.16992 15.469C9.05599 15.5464 8.94206 15.633 8.82812 15.7287C8.71419 15.8244 8.5957 15.9064 8.47266 15.9748C8.3724 16.066 8.26986 16.1525 8.16504 16.2346C8.06022 16.3166 7.95312 16.3964 7.84375 16.4738C7.73438 16.5467 7.625 16.6242 7.51562 16.7063C7.41081 16.7837 7.30599 16.8635 7.20117 16.9455C7.11914 16.9774 7.0485 17.007 6.98926 17.0344C6.9209 17.0663 6.84115 17.0868 6.75 17.0959C6.64974 17.1506 6.55632 17.1574 6.46973 17.1164C6.38314 17.0754 6.30339 17.0321 6.23047 16.9865L6.08691 16.8635C6.0459 16.827 5.99805 16.786 5.94336 16.7404C5.83854 16.5718 5.76335 16.4191 5.71777 16.2824C5.67676 16.1548 5.60612 16.0341 5.50586 15.9201C5.49219 15.8518 5.45573 15.7788 5.39648 15.7014C5.3737 15.5966 5.35775 15.4872 5.34863 15.3732L5.32812 15.0588C5.33268 14.8628 5.37142 14.676 5.44434 14.4982C5.48079 14.4117 5.5127 14.3296 5.54004 14.2522C5.56738 14.1701 5.59245 14.0926 5.61523 14.0197C5.62435 13.9833 5.62891 13.9559 5.62891 13.9377C5.62891 13.9195 5.63346 13.8921 5.64258 13.8557C5.65169 13.8283 5.66309 13.7964 5.67676 13.76C5.69043 13.7235 5.70638 13.687 5.72461 13.6506C5.7474 13.564 5.77018 13.4956 5.79297 13.4455C5.81576 13.3954 5.83854 13.327 5.86133 13.2404C5.88411 13.1903 5.89779 13.1538 5.90234 13.1311C5.91146 13.1037 5.92513 13.0764 5.94336 13.049C5.99349 12.967 6.02767 12.885 6.0459 12.8029C6.05501 12.7619 6.06641 12.7209 6.08008 12.6799C6.09375 12.6389 6.10742 12.5979 6.12109 12.5568C6.19401 12.3199 6.27376 12.0852 6.36035 11.8527C6.44694 11.6203 6.55404 11.3993 6.68164 11.1897C6.70898 11.1532 6.72949 11.1281 6.74316 11.1145C6.75684 11.1008 6.77734 11.0757 6.80469 11.0393L7.0918 10.5881C7.14193 10.5197 7.19206 10.4537 7.24219 10.3898C7.29688 10.3215 7.35384 10.2577 7.41309 10.1984C7.47233 10.1346 7.52702 10.0731 7.57715 10.0139C7.63184 9.95007 7.68424 9.88627 7.73438 9.82247C7.79818 9.76322 7.85742 9.7017 7.91211 9.6379C7.97135 9.57409 8.02604 9.50801 8.07617 9.43965C8.18555 9.29382 8.29948 9.17077 8.41797 9.07051C8.44076 9.01582 8.47266 8.97253 8.51367 8.94063C8.55469 8.90873 8.58659 8.86543 8.60938 8.81075C8.68685 8.76062 8.75749 8.69226 8.82129 8.60567C8.88509 8.52364 8.96029 8.45528 9.04688 8.40059C9.22005 8.20918 9.39779 8.02461 9.58008 7.84688C9.67122 7.75573 9.76237 7.66687 9.85352 7.58028C9.94466 7.48913 10.0358 7.39799 10.127 7.30684C10.2865 7.28405 10.3913 7.22481 10.4414 7.12911C10.569 7.04708 10.7126 6.96049 10.8721 6.86934C11.0316 6.77819 11.1888 6.70984 11.3438 6.66426C11.3893 6.64603 11.4508 6.65059 11.5283 6.67793L11.7266 6.74629C11.8633 6.77364 11.9544 6.81693 12 6.87618C12.0501 6.93542 12.0957 6.98783 12.1367 7.0334ZM6.51758 14.676C6.54036 14.7626 6.56087 14.8446 6.5791 14.9221C6.59733 14.9995 6.61556 15.0725 6.63379 15.1408C6.67025 15.2912 6.71354 15.437 6.76367 15.5783C6.80469 15.6011 6.82747 15.6262 6.83203 15.6535C6.83659 15.6809 6.86393 15.7059 6.91406 15.7287C6.95052 15.7469 7.00521 15.7583 7.07812 15.7629C7.15104 15.7675 7.20117 15.7652 7.22852 15.7561C7.27409 15.7378 7.31966 15.715 7.36523 15.6877C7.42904 15.6604 7.4974 15.6216 7.57031 15.5715C7.64323 15.5214 7.71159 15.4826 7.77539 15.4553L8.04883 15.3459C8.13997 15.3277 8.21973 15.3003 8.28809 15.2639C8.35645 15.2274 8.42708 15.1864 8.5 15.1408C8.69596 15.0314 8.87598 14.9107 9.04004 14.7785C9.13118 14.7056 9.22005 14.6395 9.30664 14.5803C9.39323 14.521 9.47982 14.4663 9.56641 14.4162C9.80339 14.1245 10.029 13.801 10.2432 13.4455C10.4574 13.09 10.6009 12.6753 10.6738 12.2014C10.6829 12.092 10.6943 12.0031 10.708 11.9348C10.7217 11.8664 10.7376 11.7958 10.7559 11.7229C10.7695 11.6818 10.7855 11.6203 10.8037 11.5383C10.8174 11.4654 10.8333 11.4084 10.8516 11.3674C10.929 11.1213 10.9837 10.898 11.0156 10.6975C11.0339 10.5926 11.0544 10.4901 11.0771 10.3898C11.1045 10.285 11.1341 10.1825 11.166 10.0822C11.1934 10.0093 11.2184 9.93412 11.2412 9.85665C11.264 9.77917 11.2845 9.70853 11.3027 9.64473C11.3574 9.58093 11.3825 9.53536 11.3779 9.50801C11.3734 9.48978 11.3757 9.467 11.3848 9.43965C11.4121 9.38041 11.4303 9.34167 11.4395 9.32344C11.4531 9.30521 11.4714 9.26648 11.4941 9.20723C11.5306 9.11609 11.5671 9.00443 11.6035 8.87227C11.64 8.74011 11.6582 8.6239 11.6582 8.52364C11.6309 8.36869 11.6104 8.26387 11.5967 8.20918C11.583 8.1545 11.5625 8.09069 11.5352 8.01778C11.5078 7.94486 11.4668 7.85144 11.4121 7.7375C11.3574 7.62357 11.2936 7.55749 11.2207 7.53926C11.1204 7.52103 11.0247 7.55977 10.9336 7.65547C10.888 7.70105 10.847 7.74206 10.8105 7.77852C10.7786 7.81498 10.7513 7.8446 10.7285 7.86739C10.7103 7.88562 10.6852 7.90157 10.6533 7.91524C10.626 7.92435 10.6009 7.94486 10.5781 7.97676C10.5508 8.00411 10.5303 8.02689 10.5166 8.04512C10.5029 8.06335 10.4779 8.09069 10.4414 8.12715C10.3913 8.17728 10.3503 8.22741 10.3184 8.27754L10.0723 8.57832C10.0267 8.6239 9.99023 8.67403 9.96289 8.72872C9.93555 8.7834 9.89909 8.83353 9.85352 8.87911C9.82617 8.91101 9.79883 8.94291 9.77148 8.97481C9.74414 9.00215 9.7168 9.0295 9.68945 9.05684C9.63477 9.11153 9.59375 9.17533 9.56641 9.24825C9.45703 9.32572 9.36133 9.41687 9.2793 9.52168C9.23372 9.57637 9.19271 9.63106 9.15625 9.68575C9.11979 9.74043 9.08789 9.79968 9.06055 9.86348C8.98763 9.89538 8.93066 9.95007 8.88965 10.0275C8.85319 10.0959 8.80534 10.1551 8.74609 10.2053C8.65951 10.2828 8.61165 10.3352 8.60254 10.3625C8.58887 10.3944 8.57292 10.4195 8.55469 10.4377C8.41797 10.6018 8.29264 10.7749 8.17871 10.9572C8.06478 11.1395 7.95768 11.3264 7.85742 11.5178C7.86654 11.5497 7.86198 11.5747 7.84375 11.593C7.82552 11.6112 7.81641 11.6454 7.81641 11.6955C7.76172 11.7684 7.71159 11.855 7.66602 11.9553C7.64779 11.9917 7.62956 12.0282 7.61133 12.0647C7.59766 12.0966 7.58626 12.1307 7.57715 12.1672C7.56803 12.1991 7.55664 12.2333 7.54297 12.2697C7.5293 12.3062 7.51562 12.3426 7.50195 12.3791C7.49284 12.3973 7.48372 12.4156 7.47461 12.4338C7.47005 12.4475 7.46322 12.4611 7.4541 12.4748C7.43587 12.5113 7.41992 12.5386 7.40625 12.5568C7.38802 12.6115 7.36979 12.6639 7.35156 12.7141C7.33333 12.7642 7.3151 12.812 7.29688 12.8576C7.26042 12.9533 7.20573 13.0445 7.13281 13.1311C7.11914 13.1538 7.10775 13.1926 7.09863 13.2473C7.08952 13.302 7.07812 13.3407 7.06445 13.3635C7.04622 13.4091 7.02572 13.4501 7.00293 13.4865C6.9847 13.5184 6.96419 13.5594 6.94141 13.6096C6.92773 13.6415 6.91178 13.6893 6.89355 13.7531C6.87533 13.8169 6.85938 13.8648 6.8457 13.8967C6.8138 13.9468 6.7819 13.9878 6.75 14.0197C6.72721 14.0471 6.71354 14.0767 6.70898 14.1086C6.70443 14.1405 6.69076 14.1701 6.66797 14.1975C6.60872 14.2567 6.56315 14.2977 6.53125 14.3205C6.49023 14.3524 6.45378 14.4025 6.42188 14.4709C6.4401 14.4891 6.45605 14.521 6.46973 14.5666C6.4834 14.6167 6.49935 14.6532 6.51758 14.676ZM17.0176 13.5822C17.0358 13.5959 17.0609 13.58 17.0928 13.5344C17.111 13.5116 17.1247 13.4911 17.1338 13.4729C17.1475 13.4501 17.1589 13.4318 17.168 13.4182C17.1862 13.3772 17.2021 13.3316 17.2158 13.2814C17.2295 13.2313 17.2454 13.1857 17.2637 13.1447C17.3184 13.0399 17.389 12.9351 17.4756 12.8303C17.5576 12.73 17.6237 12.6252 17.6738 12.5158C17.6875 12.5022 17.708 12.4862 17.7354 12.468C17.7581 12.4543 17.7786 12.4338 17.7969 12.4064C17.8698 12.3973 17.9199 12.3882 17.9473 12.3791C17.9746 12.37 18.002 12.3563 18.0293 12.3381C18.1296 12.3654 18.1934 12.4429 18.2207 12.5705C18.2161 12.6389 18.1865 12.6958 18.1318 12.7414C18.0863 12.7824 18.0521 12.8348 18.0293 12.8986C18.0065 12.9351 17.9997 12.9716 18.0088 13.008C18.0179 13.0445 18.0111 13.0809 17.9883 13.1174C17.9427 13.2678 17.8812 13.4136 17.8037 13.5549C17.7217 13.7053 17.6556 13.8511 17.6055 13.9924C17.5599 14.0835 17.5166 14.1747 17.4756 14.2658C17.4346 14.357 17.4004 14.4527 17.373 14.5529C17.2728 14.7352 17.1771 14.9266 17.0859 15.1272C16.9993 15.3231 16.9036 15.5282 16.7988 15.7424C16.8854 15.7196 16.9583 15.6854 17.0176 15.6398C17.0814 15.5897 17.1497 15.5419 17.2227 15.4963L17.3457 15.4484C17.3639 15.4393 17.3822 15.4325 17.4004 15.4279C17.4232 15.4188 17.446 15.4097 17.4688 15.4006L17.6396 15.2912C17.6579 15.2821 17.6738 15.273 17.6875 15.2639C17.7057 15.2548 17.724 15.2456 17.7422 15.2365L17.8242 15.175C17.8424 15.1613 17.8743 15.1408 17.9199 15.1135C17.9427 15.0907 17.9678 15.077 17.9951 15.0725C18.0225 15.0679 18.0475 15.0542 18.0703 15.0314C18.125 15.0087 18.166 14.9859 18.1934 14.9631C18.2298 14.9357 18.2708 14.9084 18.3164 14.8811C18.3711 14.8537 18.4189 14.8264 18.46 14.799C18.4919 14.7762 18.5443 14.7535 18.6172 14.7307C18.6719 14.7079 18.7266 14.6805 18.7812 14.6486C18.8086 14.6395 18.8359 14.6259 18.8633 14.6076C18.8906 14.5848 18.9134 14.5712 18.9316 14.5666C18.9909 14.5438 19.0228 14.5301 19.0273 14.5256C19.041 14.5119 19.0547 14.5028 19.0684 14.4982C19.1504 14.4709 19.2028 14.4527 19.2256 14.4436C19.2347 14.439 19.2507 14.4253 19.2734 14.4025C19.3783 14.3296 19.4603 14.2863 19.5195 14.2727C19.5833 14.2544 19.6699 14.2111 19.7793 14.1428C19.8477 14.1519 19.8978 14.1542 19.9297 14.1496C19.9753 14.1451 20.0163 14.161 20.0527 14.1975C20.0163 14.3706 19.9502 14.4869 19.8545 14.5461C19.7588 14.6053 19.6562 14.6578 19.5469 14.7033C19.3919 14.84 19.2598 14.9471 19.1504 15.0246C19.041 15.1021 18.8997 15.1955 18.7266 15.3049C18.6081 15.355 18.5124 15.4051 18.4395 15.4553C18.3574 15.4553 18.2959 15.469 18.2549 15.4963C18.2002 15.5328 18.1569 15.5601 18.125 15.5783C18.0931 15.5966 18.0544 15.6102 18.0088 15.6193C17.9632 15.6285 17.9245 15.6421 17.8926 15.6604C17.8014 15.715 17.7445 15.7469 17.7217 15.7561C17.7035 15.7606 17.6829 15.7743 17.6602 15.7971C17.569 15.9201 17.4824 15.9976 17.4004 16.0295C17.3138 16.066 17.2409 16.1206 17.1816 16.1936C17.0267 16.2391 16.8991 16.312 16.7988 16.4123C16.694 16.5171 16.5755 16.5992 16.4434 16.6584C16.3659 16.8772 16.3044 17.0868 16.2588 17.2873C16.2132 17.4969 16.1517 17.702 16.0742 17.9025L15.8486 18.5314C15.8122 18.6363 15.7757 18.7411 15.7393 18.8459C15.7074 18.9553 15.6777 19.0647 15.6504 19.174C15.5501 19.3381 15.4681 19.5249 15.4043 19.7346C15.3724 19.8348 15.3359 19.9351 15.2949 20.0354C15.2585 20.1356 15.2174 20.2359 15.1719 20.3361C15.1035 20.3863 15.0511 20.4637 15.0146 20.5686C14.9782 20.6734 14.9212 20.7554 14.8438 20.8147C14.7982 20.9149 14.7344 20.9992 14.6523 21.0676C14.5703 21.1359 14.4928 21.2066 14.4199 21.2795C14.3789 21.3205 14.3424 21.3661 14.3105 21.4162C14.2057 21.521 14.0872 21.6327 13.9551 21.7512C13.8275 21.8651 13.7135 21.9859 13.6133 22.1135C13.513 22.1773 13.4219 22.2456 13.3398 22.3186C13.2578 22.3915 13.1758 22.469 13.0938 22.551L12.9775 22.5988C12.9456 22.6125 12.9115 22.6057 12.875 22.5783C12.7839 22.6057 12.6882 22.6102 12.5879 22.592C12.4876 22.5738 12.4466 22.5145 12.4648 22.4143C12.4056 22.3641 12.3737 22.3254 12.3691 22.2981C12.3646 22.2616 12.3509 22.2274 12.3281 22.1955C12.36 22.1226 12.36 22.0565 12.3281 21.9973C12.2917 21.9335 12.2734 21.8811 12.2734 21.84C12.2734 21.7216 12.2871 21.6076 12.3145 21.4982C12.3372 21.3752 12.3669 21.2727 12.4033 21.1906L12.5332 20.9104C12.5879 20.7828 12.6357 20.662 12.6768 20.5481C12.7178 20.4341 12.7611 20.3134 12.8066 20.1857C12.875 20.0718 12.9183 19.9647 12.9365 19.8645C12.9548 19.7505 12.9889 19.6389 13.0391 19.5295C13.0573 19.493 13.0755 19.4566 13.0938 19.4201C13.1165 19.3837 13.137 19.3495 13.1553 19.3176C13.2008 19.2447 13.2259 19.174 13.2305 19.1057C13.2669 19.0373 13.3034 18.9712 13.3398 18.9074C13.3809 18.8482 13.4242 18.7912 13.4697 18.7365C13.5609 18.6272 13.6361 18.5041 13.6953 18.3674C13.9323 18.0301 14.2057 17.7362 14.5156 17.4856C14.8255 17.2349 15.14 16.9911 15.459 16.7541C15.5182 16.6812 15.5524 16.6425 15.5615 16.6379C15.5706 16.6333 15.5798 16.6288 15.5889 16.6242C15.6025 16.6197 15.6413 16.5855 15.7051 16.5217C15.7188 16.5171 15.7301 16.4989 15.7393 16.467C15.7484 16.4351 15.7643 16.4078 15.7871 16.385C15.8236 16.2847 15.8623 16.1799 15.9033 16.0705C15.9489 15.9566 15.9967 15.8358 16.0469 15.7082C16.097 15.5806 16.1403 15.4667 16.1768 15.3664C16.2132 15.2616 16.2428 15.1682 16.2656 15.0861C16.2155 15.1089 16.1813 15.1408 16.1631 15.1818C16.1449 15.2229 16.1198 15.2593 16.0879 15.2912C16.0697 15.3186 16.0469 15.3413 16.0195 15.3596C15.9831 15.3869 15.9603 15.4051 15.9512 15.4143C15.9238 15.4416 15.901 15.4621 15.8828 15.4758C15.8646 15.4895 15.8418 15.5145 15.8145 15.551C15.7279 15.6239 15.639 15.7105 15.5479 15.8107C15.4613 15.9064 15.3724 15.993 15.2812 16.0705C15.2083 16.1708 15.1331 16.2642 15.0557 16.3508C14.9782 16.4374 14.8893 16.508 14.7891 16.5627C14.6523 16.663 14.5111 16.745 14.3652 16.8088C14.2194 16.8726 14.0827 16.9273 13.9551 16.9729L13.7705 17.0344C13.7021 17.0572 13.6497 17.0686 13.6133 17.0686C13.5859 17.0777 13.5632 17.08 13.5449 17.0754C13.5267 17.0708 13.4993 17.0686 13.4629 17.0686C13.3262 17.0686 13.2031 17.0503 13.0938 17.0139C13.0664 16.9956 13.0436 16.9797 13.0254 16.966C13.0072 16.9523 12.9889 16.9273 12.9707 16.8908C12.9525 16.8726 12.9297 16.8475 12.9023 16.8156C12.875 16.7837 12.8522 16.7541 12.834 16.7268C12.8158 16.6857 12.8066 16.6379 12.8066 16.5832C12.8066 16.5285 12.7975 16.4807 12.7793 16.4397C12.7702 16.3941 12.7611 16.3508 12.752 16.3098C12.7383 16.2642 12.7246 16.2232 12.7109 16.1867C12.6836 16.1047 12.679 16.0249 12.6973 15.9475C12.7018 15.9338 12.7064 15.9201 12.7109 15.9064C12.7155 15.8928 12.7201 15.8814 12.7246 15.8723C12.7337 15.8495 12.7337 15.8244 12.7246 15.7971C12.7201 15.7788 12.7087 15.7515 12.6904 15.715C12.6722 15.6786 12.6608 15.6512 12.6562 15.633C12.6107 15.5601 12.5879 15.5009 12.5879 15.4553C12.5833 15.4051 12.5902 15.3573 12.6084 15.3117C12.6312 15.257 12.6335 15.2137 12.6152 15.1818C12.6471 15.1135 12.6722 15.0497 12.6904 14.9904C12.7132 14.9266 12.7474 14.8674 12.793 14.8127C12.8613 14.7124 12.9046 14.6372 12.9229 14.5871C12.932 14.5552 12.9456 14.5279 12.9639 14.5051C12.9775 14.4777 12.9935 14.4527 13.0117 14.4299C13.0664 14.3387 13.1143 14.2658 13.1553 14.2111C13.2054 14.1473 13.2533 14.079 13.2988 14.0061C13.472 13.7053 13.6634 13.4318 13.873 13.1857C13.9049 13.1675 13.9368 13.1538 13.9688 13.1447C13.9961 13.1356 14.0143 13.1128 14.0234 13.0764C14.2331 12.9761 14.4336 12.8667 14.625 12.7482C14.7298 12.7209 14.8187 12.6731 14.8916 12.6047C14.9691 12.5318 15.0579 12.4794 15.1582 12.4475C15.2357 12.4156 15.3223 12.37 15.418 12.3107C15.5091 12.2515 15.6048 12.2196 15.7051 12.215C15.7962 12.215 15.8646 12.2014 15.9102 12.174C15.9557 12.1467 16.0013 12.1193 16.0469 12.092C16.1745 12.0191 16.3203 11.9872 16.4844 11.9963C16.5618 12.0692 16.637 12.1239 16.71 12.1604C16.7829 12.1923 16.8444 12.2515 16.8945 12.3381C16.9082 12.3609 16.9196 12.4064 16.9287 12.4748L16.9492 12.6525C16.9674 12.6981 16.9834 12.746 16.9971 12.7961C17.0107 12.8462 17.0221 12.8941 17.0312 12.9397C17.0404 13.0627 17.0381 13.1721 17.0244 13.2678C17.0107 13.3635 17.0085 13.4683 17.0176 13.5822ZM16.3066 13.008H16.293C16.2611 13.0354 16.2223 13.049 16.1768 13.049C16.1312 13.049 16.0924 13.0581 16.0605 13.0764C16.0469 13.09 16.0264 13.106 15.999 13.1242C15.9717 13.1425 15.9512 13.1584 15.9375 13.1721C15.8965 13.1949 15.8532 13.2154 15.8076 13.2336C15.7666 13.2518 15.721 13.2701 15.6709 13.2883C15.5661 13.3247 15.4818 13.3635 15.418 13.4045C15.377 13.4318 15.3405 13.4706 15.3086 13.5207C15.2812 13.5617 15.2448 13.5959 15.1992 13.6232C15.1719 13.6415 15.1445 13.6597 15.1172 13.6779C15.0898 13.6916 15.0602 13.7053 15.0283 13.719C14.9691 13.7463 14.9167 13.7828 14.8711 13.8283C14.8438 13.8557 14.8232 13.883 14.8096 13.9104C14.7959 13.9377 14.7663 13.9514 14.7207 13.9514C14.6204 14.1382 14.4974 14.3114 14.3516 14.4709C14.2012 14.6395 14.0827 14.8173 13.9961 15.0041C13.9505 15.0223 13.9209 15.0542 13.9072 15.0998C13.8981 15.1363 13.8776 15.1818 13.8457 15.2365C13.7454 15.4143 13.7067 15.5533 13.7295 15.6535C13.7386 15.6991 13.7477 15.7469 13.7568 15.7971C13.766 15.8426 13.7728 15.8882 13.7773 15.9338C13.832 16.0067 13.9072 16.0272 14.0029 15.9953C14.0986 15.9634 14.1829 15.9247 14.2559 15.8791C14.347 15.8153 14.4359 15.7447 14.5225 15.6672C14.609 15.5897 14.6979 15.51 14.7891 15.4279C14.8802 15.355 14.9645 15.2753 15.042 15.1887C15.1195 15.1021 15.1947 15.0178 15.2676 14.9357C15.2904 14.9038 15.3268 14.8674 15.377 14.8264C15.4271 14.7854 15.4635 14.7489 15.4863 14.717C15.5456 14.6578 15.5866 14.6145 15.6094 14.5871C15.6458 14.5461 15.6868 14.5119 15.7324 14.4846C15.7689 14.4344 15.8031 14.3866 15.835 14.341C15.8669 14.2909 15.8988 14.243 15.9307 14.1975C15.9626 14.1519 15.9945 14.1086 16.0264 14.0676C16.0583 14.022 16.0924 13.9787 16.1289 13.9377C16.179 13.8192 16.2269 13.7098 16.2725 13.6096C16.2952 13.5594 16.318 13.5093 16.3408 13.4592C16.3636 13.4045 16.3841 13.3498 16.4023 13.2951C16.3841 13.2541 16.375 13.2017 16.375 13.1379C16.375 13.0787 16.3522 13.0354 16.3066 13.008ZM15.1855 17.9572C15.1628 17.9618 15.1377 17.9777 15.1104 18.0051C15.0967 18.0188 15.0671 18.0438 15.0215 18.0803C14.9303 18.1714 14.8415 18.2648 14.7549 18.3606C14.6683 18.4563 14.5885 18.5634 14.5156 18.6818C14.4336 18.7958 14.3402 18.9097 14.2354 19.0236C14.126 19.1376 14.0553 19.2606 14.0234 19.3928C13.9232 19.5477 13.8343 19.7072 13.7568 19.8713C13.6794 20.0354 13.6178 20.2176 13.5723 20.4182C13.5632 20.4729 13.554 20.5207 13.5449 20.5617C13.5358 20.6073 13.5267 20.646 13.5176 20.6779C13.4993 20.7372 13.4857 20.801 13.4766 20.8693C13.5312 20.8147 13.5882 20.7577 13.6475 20.6984C13.7067 20.6392 13.7591 20.5822 13.8047 20.5275C13.8229 20.5093 13.8389 20.4865 13.8525 20.4592C13.8662 20.4318 13.8822 20.4091 13.9004 20.3908C13.9551 20.3134 14.0098 20.2359 14.0645 20.1584C14.1237 20.0855 14.1829 20.0126 14.2422 19.9397C14.3607 19.7938 14.4701 19.6434 14.5703 19.4885C14.6159 19.4338 14.6569 19.3814 14.6934 19.3313C14.7298 19.2811 14.7663 19.2287 14.8027 19.174C14.9714 18.9462 15.099 18.7023 15.1855 18.4426C15.2767 18.1828 15.3724 17.9162 15.4727 17.6428C15.4453 17.6701 15.418 17.6952 15.3906 17.718C15.3633 17.7408 15.3382 17.7635 15.3154 17.7863C15.2562 17.8365 15.2129 17.8934 15.1855 17.9572Z" fill="#131313"/>
</svg>
