<svg width="24" height="24" viewBox="0 0 24 24" fill="none" xmlns="http://www.w3.org/2000/svg">
<path d="M11.6797 12.6934C10.6452 12.8984 9.7793 13.14 9.08203 13.418C8.66276 14.0332 8.20247 14.7715 7.70117 15.6328L7.33887 16.2686C7.27507 16.3825 7.17708 16.5465 7.04492 16.7607C6.89909 17.0114 6.74642 17.1367 6.58691 17.1367C6.50033 17.1367 6.42741 17.1025 6.36816 17.0342C6.30892 16.9749 6.2793 16.9089 6.2793 16.8359C6.2793 16.7083 6.4502 16.346 6.79199 15.749C6.97884 15.4255 7.26139 14.9674 7.63965 14.375C7.78548 14.1471 7.90169 13.9603 7.98828 13.8145C7.71484 13.8919 7.46419 13.9808 7.23633 14.0811C7.12695 14.1312 7.03581 14.1562 6.96289 14.1562C6.87174 14.1562 6.80111 14.1152 6.75098 14.0332C6.71452 13.9831 6.69629 13.9238 6.69629 13.8555C6.69629 13.7005 6.75098 13.5911 6.86035 13.5273C7.03809 13.418 7.3571 13.2926 7.81738 13.1514C8.15918 13.042 8.43034 12.9417 8.63086 12.8506C8.72656 12.7321 8.97721 12.3835 9.38281 11.8047C9.55599 11.554 10.0482 10.9616 10.8594 10.0273C11.4427 9.34375 12.0443 8.70801 12.6641 8.12012C13.0241 7.77376 13.2998 7.60059 13.4912 7.60059C13.6097 7.60059 13.7122 7.64844 13.7988 7.74414C13.8717 7.83073 13.9082 7.92643 13.9082 8.03125C13.9082 8.15885 13.8444 8.38216 13.7168 8.70117C13.498 9.26172 13.2884 9.861 13.0879 10.499C12.9147 11.0641 12.7985 11.4971 12.7393 11.7979C12.8213 11.7979 12.876 11.7956 12.9033 11.791C13.0355 11.7865 13.1449 11.7842 13.2314 11.7842C13.4958 11.7842 13.6279 11.8844 13.6279 12.085C13.6279 12.1715 13.5983 12.2581 13.5391 12.3447C13.4844 12.4268 13.4206 12.4769 13.3477 12.4951C13.3203 12.5042 13.2451 12.5088 13.1221 12.5088C12.8623 12.5088 12.6686 12.5247 12.541 12.5566C12.4316 12.8802 12.2585 13.7074 12.0215 15.0381C11.8984 15.9222 11.8392 16.4645 11.8438 16.665C11.8438 16.9932 11.7458 17.1572 11.5498 17.1572C11.3949 17.1572 11.2741 17.0775 11.1875 16.918C11.1237 16.8086 11.0918 16.6605 11.0918 16.4736C11.0918 15.8447 11.2035 14.9971 11.4268 13.9307C11.5407 13.3929 11.625 12.9805 11.6797 12.6934ZM11.8711 11.9551C11.9121 11.8229 12.0169 11.4697 12.1855 10.8955C12.2266 10.7451 12.3314 10.4466 12.5 10C12.6686 9.53971 12.8031 9.17057 12.9033 8.89258C12.6071 9.08854 12.3063 9.34831 12.001 9.67188C10.9255 10.8294 10.1667 11.7751 9.72461 12.5088C9.89323 12.4678 10.2555 12.3652 10.8115 12.2012C10.971 12.1556 11.3242 12.0736 11.8711 11.9551ZM15.125 15.8789C15.6126 15.5234 15.9749 15.1999 16.2119 14.9082C16.5628 14.4844 16.8112 14.1403 16.957 13.876C17.0299 13.7575 17.1051 13.6982 17.1826 13.6982C17.292 13.6982 17.3467 13.7507 17.3467 13.8555C17.3467 13.9785 17.2601 14.1836 17.0869 14.4707C16.5492 15.3457 15.7425 16.109 14.667 16.7607C14.1657 17.8089 13.7965 18.5199 13.5596 18.8936C12.9307 19.8779 12.3382 20.3701 11.7822 20.3701C11.4906 20.3701 11.2809 20.2562 11.1533 20.0283C11.0804 19.8962 11.0439 19.7458 11.0439 19.5771C11.0439 18.8617 11.5042 18.1758 12.4248 17.5195C12.5706 17.4102 13.1608 17.0684 14.1953 16.4941C14.3958 16.0703 14.5508 15.7376 14.6602 15.4961C14.1816 15.9974 13.7852 16.248 13.4707 16.248C13.2747 16.248 13.1221 16.1478 13.0127 15.9473C12.9443 15.8151 12.9102 15.6784 12.9102 15.5371C12.9102 15.209 13.0446 14.7874 13.3135 14.2725C13.6963 13.5296 14.1566 12.9417 14.6943 12.5088C15.1455 12.1488 15.5443 11.9688 15.8906 11.9688C16.0684 11.9688 16.221 12.0348 16.3486 12.167C16.4352 12.2536 16.4785 12.3812 16.4785 12.5498C16.4785 12.7594 16.4079 13.0192 16.2666 13.3291C16.3714 13.4294 16.4238 13.5046 16.4238 13.5547C16.4238 13.5866 16.401 13.6322 16.3555 13.6914C16.2324 13.86 16.0342 14.1768 15.7607 14.6416C15.5192 15.0472 15.3073 15.4596 15.125 15.8789ZM15.0771 14.2998C15.0133 14.2314 14.9814 14.1836 14.9814 14.1562C14.9814 14.1152 15.0156 14.0628 15.084 13.999C15.3118 13.7803 15.4964 13.5524 15.6377 13.3154C15.7516 13.1286 15.8086 12.9827 15.8086 12.8779C15.8086 12.7549 15.7516 12.6934 15.6377 12.6934C15.4417 12.6934 15.1615 12.8802 14.7969 13.2539C14.3639 13.696 14.0267 14.1904 13.7852 14.7373C13.6667 15.0107 13.6074 15.2204 13.6074 15.3662C13.6074 15.4482 13.6257 15.5098 13.6621 15.5508C13.6986 15.5918 13.751 15.6123 13.8193 15.6123C13.9788 15.6123 14.2021 15.4482 14.4893 15.1201C14.6715 14.9105 14.8265 14.7054 14.9541 14.5049C15.0407 14.3727 15.0817 14.3044 15.0771 14.2998ZM13.7852 17.2871C13.1836 17.5423 12.6527 17.9297 12.1924 18.4492C11.9782 18.6908 11.8255 18.946 11.7344 19.2148C11.707 19.2969 11.6934 19.3652 11.6934 19.4199C11.6934 19.4792 11.707 19.5316 11.7344 19.5771C11.7845 19.6592 11.8551 19.7002 11.9463 19.7002C12.2288 19.7002 12.5592 19.3971 12.9375 18.791C13.2656 18.2669 13.5482 17.7656 13.7852 17.2871Z" fill="#131313"/>
</svg>
