<svg width="24" height="24" viewBox="0 0 24 24" fill="none" xmlns="http://www.w3.org/2000/svg">
<path d="M10.0973 13.9349H6.16326L5.08526 17.0009H3.69926L7.33926 6.79492H9.01926L12.6033 17.0009H11.1473L10.0973 13.9349ZM9.73326 12.8429L8.16526 8.19492L6.48526 12.8429H9.73326ZM16.2575 17.3229C15.3988 17.3229 14.6801 16.9729 14.1015 16.2729C13.5228 15.5636 13.2335 14.6256 13.2335 13.4589C13.2335 12.2642 13.5181 11.2982 14.0875 10.5609C14.6661 9.82359 15.4221 9.45492 16.3555 9.45492C17.2701 9.45492 18.0168 9.87959 18.5955 10.7289L18.4555 9.66492H19.6735V15.7969C19.6735 16.4969 19.6315 17.0802 19.5475 17.5469C19.4635 18.0229 19.3095 18.4616 19.0855 18.8629C18.8615 19.2642 18.5255 19.5629 18.0775 19.7589C17.6388 19.9549 17.0788 20.0529 16.3975 20.0529C15.5388 20.0529 14.8528 19.8569 14.3395 19.4649C13.8261 19.0729 13.5368 18.5316 13.4715 17.8409H14.6615C14.7921 18.6622 15.3848 19.0729 16.4395 19.0729C17.2235 19.0729 17.7601 18.8489 18.0495 18.4009C18.3388 17.9622 18.4835 17.2902 18.4835 16.3849V16.0069C18.1568 16.4736 17.8161 16.8096 17.4615 17.0149C17.1161 17.2202 16.7148 17.3229 16.2575 17.3229ZM16.4815 10.5329C15.8561 10.5329 15.3615 10.7896 14.9975 11.3029C14.6335 11.8162 14.4515 12.5116 14.4515 13.3889C14.4515 14.2756 14.6335 14.9756 14.9975 15.4889C15.3615 15.9929 15.8608 16.2449 16.4955 16.2449C17.1115 16.2449 17.5968 15.9976 17.9515 15.5029C18.3061 14.9989 18.4835 14.3082 18.4835 13.4309C18.4835 12.5162 18.3061 11.8069 17.9515 11.3029C17.6061 10.7896 17.1161 10.5329 16.4815 10.5329Z" fill="#131313"/>
</svg>
