<svg width="24" height="24" viewBox="0 0 24 24" fill="none" xmlns="http://www.w3.org/2000/svg">
<path d="M6.73506 14.7541L6.28706 16.0001H2.64706L6.95906 6.66211H10.8231L12.5591 16.0001H9.10106L9.03106 14.7541H6.73506ZM7.51906 12.6261H8.80706L8.66706 10.9321C8.65773 10.8574 8.6484 10.7641 8.63906 10.6521C8.63906 10.5308 8.63906 10.4048 8.63906 10.2741C8.63906 10.1901 8.63906 10.1201 8.63906 10.0641C8.63906 9.99878 8.63906 9.94278 8.63906 9.89611C8.6484 9.84011 8.65306 9.78411 8.65306 9.72811C8.6624 9.67211 8.67173 9.60678 8.68106 9.53211H8.56906C8.50373 9.80278 8.44306 10.0361 8.38706 10.2321C8.33106 10.4281 8.25173 10.6614 8.14906 10.9321L7.51906 12.6261ZM21.7012 9.46211L20.9732 15.3561C20.9265 15.7388 20.8658 16.0748 20.7912 16.3641C20.7258 16.6628 20.6372 16.9241 20.5252 17.1481C20.4225 17.3814 20.2965 17.5868 20.1472 17.7641C19.9978 17.9414 19.8205 18.1048 19.6152 18.2541C19.2138 18.5621 18.7472 18.7954 18.2152 18.9541C17.6925 19.1221 17.1278 19.2061 16.5212 19.2061C16.0638 19.2061 15.5645 19.1548 15.0232 19.0521C14.4912 18.9494 13.9965 18.8094 13.5392 18.6321C13.4365 18.6041 13.2965 18.5481 13.1192 18.4641L13.9872 16.3361C14.4072 16.5881 14.7712 16.7654 15.0792 16.8681C15.3965 16.9801 15.7325 17.0361 16.0872 17.0361C16.4325 17.0361 16.7452 16.9614 17.0252 16.8121C17.3052 16.6721 17.5105 16.4808 17.6412 16.2381C17.6785 16.1634 17.7112 16.0888 17.7392 16.0141C17.7672 15.9394 17.7952 15.8554 17.8232 15.7621C17.8512 15.6594 17.8792 15.5381 17.9072 15.3981C17.9445 15.2488 17.9865 15.0621 18.0332 14.8381L17.9352 14.8101C17.7205 15.2674 17.4685 15.5894 17.1792 15.7761C16.8992 15.9534 16.5165 16.0421 16.0312 16.0421C15.6392 16.0421 15.2798 15.9674 14.9532 15.8181C14.6265 15.6594 14.3418 15.4448 14.0992 15.1741C13.8565 14.8941 13.6652 14.5674 13.5252 14.1941C13.3945 13.8114 13.3292 13.3961 13.3292 12.9481C13.3292 12.4348 13.4132 11.9541 13.5812 11.5061C13.7492 11.0488 13.9732 10.6521 14.2532 10.3161C14.5425 9.98011 14.8832 9.71878 15.2752 9.53211C15.6672 9.33611 16.0872 9.23811 16.5352 9.23811C17.0298 9.23811 17.4312 9.34544 17.7392 9.56011C18.0565 9.76544 18.2992 10.1014 18.4672 10.5681L18.5652 10.5401L18.5372 10.1621L18.5232 9.68611L18.5092 9.46211H21.7012ZM17.3192 13.7181C17.5898 13.7181 17.8092 13.6294 17.9772 13.4521C18.1452 13.2654 18.2292 13.0321 18.2292 12.7521C18.2292 12.4814 18.1545 12.2621 18.0052 12.0941C17.8652 11.9168 17.6832 11.8281 17.4592 11.8281C17.1978 11.8281 16.9738 11.9308 16.7872 12.1361C16.6098 12.3321 16.5212 12.5701 16.5212 12.8501C16.5212 13.1114 16.5958 13.3214 16.7452 13.4801C16.8945 13.6388 17.0858 13.7181 17.3192 13.7181Z" fill="#131313"/>
</svg>
