<svg width="24" height="24" viewBox="0 0 24 24" fill="none" xmlns="http://www.w3.org/2000/svg">
<path d="M5.70131 14.3541L4.49731 17.0001H3.08331L8.12331 5.99609L13.1633 17.0001H11.7493L10.5453 14.3541H5.70131ZM9.99931 13.1501L8.12331 8.88009L6.24731 13.1501H9.99931ZM16.8471 20.7521C14.9571 20.7521 13.7251 19.5901 13.6831 17.7841H14.9431C14.9431 18.9181 15.7271 19.6321 16.9031 19.6321C18.2051 19.6321 18.7791 18.8761 18.7791 17.2941V15.9781H18.7511C18.1911 16.8041 17.4491 17.2241 16.5251 17.2241C15.5871 17.2241 14.8311 16.8881 14.2571 16.2161C13.6831 15.5581 13.3891 14.7041 13.3891 13.6821C13.3891 12.7161 13.6831 11.8901 14.2711 11.2321C14.8591 10.5741 15.5871 10.2521 16.4691 10.2521C17.4351 10.2521 18.2051 10.6861 18.7511 11.5681H18.7791V10.4481H20.0391V16.9581C20.0391 19.5341 19.0731 20.7521 16.8471 20.7521ZM16.7211 16.1041C18.0091 16.1041 18.8491 15.1101 18.8491 13.7241C18.8491 12.3381 17.9811 11.3721 16.7071 11.3721C16.1051 11.3721 15.6151 11.5961 15.2371 12.0441C14.8451 12.5061 14.6491 13.0661 14.6491 13.7241C14.6491 14.3821 14.8451 14.9421 15.2231 15.4041C15.6011 15.8661 16.0911 16.1041 16.7211 16.1041Z" fill="#131313"/>
</svg>
