<svg width="24" height="24" viewBox="0 0 24 24" fill="none" xmlns="http://www.w3.org/2000/svg">
<path d="M10.0492 17.0001L9.89524 15.4321H8.06124L7.54324 17.0001H5.72324L9.01324 7.66211H10.9312L11.9812 17.0001H10.0492ZM9.79724 13.9901C9.75058 13.3368 9.69924 12.6881 9.64324 12.0441C9.59658 11.3908 9.58724 10.7328 9.61524 10.0701C9.56858 10.3128 9.51724 10.5554 9.46124 10.7981C9.41458 11.0314 9.35858 11.2694 9.29324 11.5121C9.19058 11.9321 9.06924 12.3474 8.92924 12.7581C8.78924 13.1594 8.65391 13.5701 8.52324 13.9901H9.79724ZM16.925 17.3221C16.897 17.5554 16.8643 17.7701 16.827 17.9661C16.7897 18.1621 16.715 18.3674 16.603 18.5821C16.3603 19.0301 16.029 19.3568 15.609 19.5621C15.189 19.7768 14.7317 19.8841 14.237 19.8841C13.621 19.8841 13.1497 19.7208 12.823 19.3941C12.4963 19.0674 12.333 18.5961 12.333 17.9801C12.333 17.9148 12.333 17.8541 12.333 17.7981C12.333 17.7514 12.3377 17.7234 12.347 17.7141H13.859C13.859 17.7888 13.8637 17.8681 13.873 17.9521C13.8823 18.0454 13.901 18.1294 13.929 18.2041C13.9663 18.2788 14.0223 18.3394 14.097 18.3861C14.1717 18.4421 14.2743 18.4701 14.405 18.4701C14.5637 18.4701 14.6943 18.4141 14.797 18.3021C14.8997 18.1901 14.979 18.0548 15.035 17.8961C15.1003 17.7374 15.147 17.5694 15.175 17.3921C15.203 17.2241 15.2263 17.0748 15.245 16.9441L15.357 16.2161C15.1983 16.4401 15.021 16.6501 14.825 16.8461C14.629 17.0328 14.3817 17.1261 14.083 17.1261C13.803 17.1261 13.5697 17.0468 13.383 16.8881C13.2057 16.7201 13.0657 16.5194 12.963 16.2861C12.8603 16.0434 12.7903 15.7868 12.753 15.5161C12.7157 15.2454 12.697 15.0028 12.697 14.7881C12.697 14.4801 12.7297 14.0928 12.795 13.6261C12.8603 13.1501 12.9723 12.6928 13.131 12.2541C13.2897 11.8061 13.5043 11.4234 13.775 11.1061C14.0457 10.7888 14.3863 10.6301 14.797 10.6301C15.0957 10.6301 15.329 10.7094 15.497 10.8681C15.6743 11.0268 15.819 11.2368 15.931 11.4981L16.029 10.7421H17.751L16.925 17.3221ZM15.749 13.1501C15.749 13.0848 15.7443 12.9961 15.735 12.8841C15.735 12.7721 15.721 12.6694 15.693 12.5761C15.665 12.4734 15.623 12.3848 15.567 12.3101C15.511 12.2354 15.4317 12.1981 15.329 12.1981C15.161 12.1981 15.021 12.2961 14.909 12.4921C14.797 12.6881 14.7083 12.9168 14.643 13.1781C14.5777 13.4301 14.531 13.6868 14.503 13.9481C14.475 14.2094 14.461 14.4008 14.461 14.5221C14.461 14.5968 14.4657 14.6901 14.475 14.8021C14.4843 14.9141 14.503 15.0261 14.531 15.1381C14.5683 15.2408 14.615 15.3341 14.671 15.4181C14.7363 15.4928 14.8203 15.5301 14.923 15.5301C15.091 15.5301 15.2263 15.4321 15.329 15.2361C15.441 15.0308 15.525 14.7974 15.581 14.5361C15.6463 14.2654 15.6883 13.9994 15.707 13.7381C15.735 13.4768 15.749 13.2808 15.749 13.1501Z" fill="#131313"/>
</svg>
