<svg width="24" height="24" viewBox="0 0 24 24" fill="none" xmlns="http://www.w3.org/2000/svg">
<path d="M8.74363 16.0001L8.70163 14.8101H7.03563L6.68563 16.0001H4.10963L7.46963 6.66211H10.5076L11.3056 16.0001H8.74363ZM8.63163 10.5121C8.63163 10.2414 8.6363 9.97544 8.64563 9.71411C8.65496 9.44344 8.6643 9.17278 8.67363 8.90211C8.61763 9.11678 8.5663 9.33611 8.51963 9.56011C8.47296 9.78411 8.41696 10.0034 8.35163 10.2181C8.22096 10.6568 8.09496 11.0908 7.97363 11.5201C7.86163 11.9494 7.7403 12.3834 7.60963 12.8221H8.65963C8.6503 12.6354 8.64096 12.4534 8.63163 12.2761C8.63163 12.0988 8.63163 11.9168 8.63163 11.7301V10.5121ZM17.5974 16.1681C17.5508 16.5041 17.4808 16.8214 17.3874 17.1201C17.2941 17.4188 17.1354 17.6988 16.9114 17.9601C16.5941 18.3241 16.2068 18.5901 15.7494 18.7581C15.2921 18.9261 14.8254 19.0101 14.3494 19.0101C13.5281 19.0101 12.8934 18.8281 12.4454 18.4641C12.0068 18.1094 11.7781 17.5028 11.7594 16.6441H14.1954C14.1954 16.7934 14.2281 16.9194 14.2934 17.0221C14.3588 17.1248 14.4708 17.1761 14.6294 17.1761C14.7601 17.1761 14.8674 17.1481 14.9514 17.0921C15.0354 17.0361 15.1008 16.9614 15.1474 16.8681C15.1941 16.7841 15.2268 16.6861 15.2454 16.5741C15.2641 16.4621 15.2828 16.3548 15.3014 16.2521C15.3388 15.9348 15.3808 15.5988 15.4274 15.2441C15.2314 15.4868 14.9981 15.6921 14.7274 15.8601C14.4568 16.0188 14.1581 16.0981 13.8314 16.0981C13.5048 16.0981 13.2294 16.0188 13.0054 15.8601C12.7814 15.6921 12.5994 15.4868 12.4594 15.2441C12.3288 14.9921 12.2354 14.7168 12.1794 14.4181C12.1234 14.1194 12.0954 13.8348 12.0954 13.5641C12.0954 12.9854 12.1654 12.4161 12.3054 11.8561C12.3801 11.5854 12.4828 11.3008 12.6134 11.0021C12.7441 10.7034 12.9074 10.4328 13.1034 10.1901C13.2994 9.93811 13.5234 9.73278 13.7754 9.57411C14.0368 9.40611 14.3308 9.32211 14.6574 9.32211C14.9654 9.32211 15.2221 9.42944 15.4274 9.64411C15.6421 9.84944 15.8194 10.0734 15.9594 10.3161L16.0154 9.46211H18.4234L17.5974 16.1681ZM15.7494 12.0941C15.7494 12.0288 15.7448 11.9494 15.7354 11.8561C15.7354 11.7628 15.7214 11.6741 15.6934 11.5901C15.6748 11.5061 15.6374 11.4361 15.5814 11.3801C15.5348 11.3241 15.4648 11.2961 15.3714 11.2961C15.2128 11.2961 15.0821 11.3754 14.9794 11.5341C14.8768 11.6928 14.7974 11.8794 14.7414 12.0941C14.6854 12.2994 14.6481 12.5094 14.6294 12.7241C14.6108 12.9388 14.6014 13.1021 14.6014 13.2141C14.6014 13.2888 14.6014 13.3774 14.6014 13.4801C14.6108 13.5734 14.6294 13.6668 14.6574 13.7601C14.6854 13.8534 14.7274 13.9328 14.7834 13.9981C14.8394 14.0634 14.9188 14.0961 15.0214 14.0961C15.1708 14.0961 15.2921 14.0121 15.3854 13.8441C15.4881 13.6761 15.5628 13.4848 15.6094 13.2701C15.6654 13.0461 15.7028 12.8221 15.7214 12.5981C15.7401 12.3741 15.7494 12.2061 15.7494 12.0941Z" fill="#131313"/>
</svg>
