<svg width="24" height="24" viewBox="0 0 24 24" fill="none" xmlns="http://www.w3.org/2000/svg">
<path d="M11.918 17.1641C11.5033 17.1641 11.2526 17.0661 11.166 16.8701L9.91504 14.0332H5.65625L4.39844 16.9521C4.33919 17.0934 4.16829 17.1641 3.88574 17.1641C3.5166 17.1641 3.33203 17.0729 3.33203 16.8906C3.33203 16.877 3.33659 16.8564 3.3457 16.8291L7.22852 7.83984C7.30599 7.65299 7.56576 7.55957 8.00781 7.55957C8.39518 7.55957 8.63216 7.65527 8.71875 7.84668L12.6289 16.7061C12.6426 16.738 12.6494 16.7676 12.6494 16.7949C12.6494 17.041 12.4056 17.1641 11.918 17.1641ZM9.57324 13.2676L7.76172 9.15918L5.99121 13.2676H9.57324ZM20.1484 16.7266C20.1484 17.7839 19.7816 18.554 19.0479 19.0371C18.3187 19.5202 17.4779 19.7617 16.5254 19.7617C15.9694 19.7617 15.361 19.6683 14.7002 19.4814C14.0394 19.2946 13.5472 18.9688 13.2236 18.5039C13.1917 18.4583 13.1758 18.4128 13.1758 18.3672C13.1758 18.1165 13.4082 17.9912 13.873 17.9912C14.1966 17.9912 14.4131 18.071 14.5225 18.2305C14.7184 18.513 15.0124 18.7113 15.4043 18.8252C15.8008 18.9391 16.1676 18.9961 16.5049 18.9961C18.0133 18.9961 18.7676 18.2396 18.7676 16.7266V16.3711C18.2572 16.8952 17.5553 17.1572 16.6621 17.1572C14.3333 17.1572 13.1689 15.9906 13.1689 13.6572C13.1689 11.3239 14.3356 10.1572 16.6689 10.1572C17.5394 10.1572 18.2435 10.4238 18.7812 10.957V10.54C18.7812 10.2848 19.0114 10.1572 19.4717 10.1572C19.9274 10.1572 20.1553 10.2848 20.1553 10.54L20.1484 16.7266ZM16.6621 16.3916C17.3822 16.3916 17.9154 16.0885 18.2617 15.4824C18.6081 14.8763 18.7812 14.2679 18.7812 13.6572C18.7812 13.0465 18.6081 12.4382 18.2617 11.832C17.9199 11.2259 17.389 10.9229 16.6689 10.9229C15.9535 10.9229 15.4225 11.2259 15.0762 11.832C14.7298 12.4382 14.5566 13.0465 14.5566 13.6572C14.5566 14.2679 14.7275 14.8763 15.0693 15.4824C15.4157 16.0885 15.9466 16.3916 16.6621 16.3916Z" fill="#131313"/>
</svg>
