<svg width="24" height="24" viewBox="0 0 24 24" fill="none" xmlns="http://www.w3.org/2000/svg">
<path d="M6.99512 12.9648L6.01758 15.2412C5.95378 15.3825 5.98796 15.485 6.12012 15.5488C6.25684 15.6081 6.50065 15.6605 6.85156 15.7061L6.81055 16H4.21973L4.26074 15.7061C4.54785 15.6514 4.77799 15.5944 4.95117 15.5352C5.12435 15.4714 5.24056 15.3734 5.2998 15.2412L8.62891 7.59863C8.68815 7.54395 8.75879 7.48926 8.84082 7.43457C8.92285 7.37533 9.00716 7.32064 9.09375 7.27051C9.18034 7.21582 9.26237 7.16569 9.33984 7.12012C9.42188 7.06999 9.49251 7.02897 9.55176 6.99707L11.0283 15.2412C11.0374 15.305 11.0534 15.362 11.0762 15.4121C11.1035 15.4577 11.1445 15.501 11.1992 15.542C11.2539 15.5785 11.3268 15.6104 11.418 15.6377C11.5137 15.665 11.6344 15.6878 11.7803 15.7061L11.7529 16H9.12109L9.14844 15.7061C9.47201 15.6833 9.70443 15.6377 9.8457 15.5693C9.98698 15.4964 10.0439 15.387 10.0166 15.2412L9.62012 12.9648H6.99512ZM9.51074 12.3428L8.86816 8.62402L7.26172 12.3428H9.51074ZM14.6172 15.3438C14.7129 15.3438 14.8428 15.2686 15.0068 15.1182C15.1709 14.9632 15.3464 14.7581 15.5332 14.5029C15.7246 14.2477 15.916 13.9515 16.1074 13.6143C16.3034 13.277 16.4766 12.9238 16.627 12.5547C16.6452 12.3815 16.6634 12.2015 16.6816 12.0146C16.7044 11.8232 16.734 11.6204 16.7705 11.4062C16.7842 11.3105 16.8024 11.2194 16.8252 11.1328C16.8525 11.0462 16.8822 10.9642 16.9141 10.8867C16.8457 10.832 16.7705 10.7728 16.6885 10.709C16.6064 10.6452 16.5153 10.5837 16.415 10.5244C16.3193 10.4652 16.2145 10.4173 16.1006 10.3809C15.9867 10.3398 15.8659 10.3193 15.7383 10.3193C15.5286 10.3193 15.3304 10.3717 15.1436 10.4766C14.9567 10.5768 14.7835 10.7113 14.624 10.8799C14.4691 11.0485 14.3278 11.2422 14.2002 11.4609C14.0771 11.6751 13.9701 11.8984 13.8789 12.1309C13.7923 12.3587 13.724 12.5843 13.6738 12.8076C13.6283 13.0309 13.6055 13.2314 13.6055 13.4092C13.6055 13.7054 13.6328 13.972 13.6875 14.209C13.7422 14.446 13.8151 14.6488 13.9062 14.8174C13.9974 14.986 14.1045 15.1159 14.2275 15.207C14.3506 15.2982 14.4805 15.3438 14.6172 15.3438ZM18.3154 9.84082C18.1605 9.96842 18.0374 10.1257 17.9463 10.3125C17.8597 10.4993 17.7959 10.7568 17.7549 11.085C17.6911 11.6273 17.6432 12.1217 17.6113 12.5684C17.584 13.015 17.5589 13.4342 17.5361 13.8262C17.5179 14.2135 17.4928 14.585 17.4609 14.9404C17.4336 15.2913 17.388 15.6423 17.3242 15.9932C17.2422 16.4671 17.0964 16.9115 16.8867 17.3262C16.6816 17.7409 16.4355 18.1032 16.1484 18.4131C15.8659 18.723 15.5514 18.9668 15.2051 19.1445C14.8633 19.3268 14.5146 19.418 14.1592 19.418C13.9678 19.418 13.7604 19.3883 13.5371 19.3291C13.3184 19.2744 13.1156 19.2061 12.9287 19.124C12.7419 19.042 12.5846 18.9531 12.457 18.8574C12.334 18.7617 12.2725 18.6729 12.2725 18.5908C12.2725 18.5133 12.3021 18.4245 12.3613 18.3242C12.4206 18.2285 12.4889 18.1374 12.5664 18.0508C12.6439 17.9688 12.7191 17.8981 12.792 17.8389C12.8695 17.7796 12.9242 17.75 12.9561 17.75C12.9925 17.75 13.029 17.7728 13.0654 17.8184C13.1064 17.8639 13.1543 17.9186 13.209 17.9824C13.2682 18.0508 13.3366 18.1237 13.4141 18.2012C13.4961 18.2832 13.5941 18.3561 13.708 18.4199C13.8219 18.4883 13.9587 18.5452 14.1182 18.5908C14.2777 18.6364 14.4645 18.6592 14.6787 18.6592C15.1208 18.6592 15.4717 18.4609 15.7314 18.0645C15.9912 17.668 16.1872 17.0892 16.3193 16.3281C16.3604 16.0729 16.3923 15.8337 16.415 15.6104C16.4424 15.3825 16.4629 15.1637 16.4766 14.9541C16.4948 14.7399 16.5085 14.5326 16.5176 14.332C16.5267 14.127 16.5358 13.9173 16.5449 13.7031C16.3991 13.9902 16.2282 14.2865 16.0322 14.5918C15.8408 14.8926 15.6357 15.1683 15.417 15.4189C15.2028 15.6696 14.984 15.8747 14.7607 16.0342C14.5374 16.1982 14.3255 16.2803 14.125 16.2803C13.9746 16.2803 13.8128 16.237 13.6396 16.1504C13.471 16.0638 13.3115 15.9271 13.1611 15.7402C13.0153 15.5488 12.8945 15.305 12.7988 15.0088C12.7031 14.708 12.6553 14.3434 12.6553 13.915C12.6553 13.555 12.6963 13.2041 12.7783 12.8623C12.8604 12.516 12.9834 12.1878 13.1475 11.8779C13.3161 11.5635 13.5257 11.2695 13.7764 10.9961C14.027 10.7181 14.321 10.4674 14.6582 10.2441C14.7858 10.1621 14.9225 10.0824 15.0684 10.0049C15.2142 9.92741 15.3646 9.85905 15.5195 9.7998C15.6745 9.74056 15.8271 9.69271 15.9775 9.65625C16.1325 9.61979 16.2806 9.60156 16.4219 9.60156C16.5221 9.60156 16.6201 9.61751 16.7158 9.64941C16.8115 9.67676 16.9027 9.71322 16.9893 9.75879C17.0804 9.80436 17.1647 9.85449 17.2422 9.90918C17.3242 9.96387 17.4017 10.014 17.4746 10.0596C17.5794 9.95931 17.6888 9.87272 17.8027 9.7998C17.9212 9.72689 18.0397 9.66081 18.1582 9.60156L18.3154 9.84082Z" fill="#131313"/>
</svg>
