<svg width="24" height="24" viewBox="0 0 24 24" fill="none" xmlns="http://www.w3.org/2000/svg">
<path d="M4.09466 17.0002L8.85466 7.07422H9.40066L11.0667 17.0002H10.5067L10.0307 14.0602H6.06866L4.65466 17.0002H4.09466ZM6.26466 13.5982H9.97466L9.02266 7.78822L6.26466 13.5982ZM11.9115 19.7162L12.0515 19.2822C12.3408 19.3942 12.6488 19.4782 12.9755 19.5342C13.3021 19.5995 13.6195 19.6322 13.9275 19.6322C14.3941 19.6322 14.7908 19.5435 15.1175 19.3662C15.4535 19.1889 15.7241 18.9135 15.9295 18.5402C16.1348 18.1762 16.2795 17.7095 16.3635 17.1402L16.4615 16.4682C16.2561 16.5989 16.0321 16.7155 15.7895 16.8182C15.5468 16.9115 15.3041 16.9815 15.0615 17.0282C14.8281 17.0842 14.6041 17.1122 14.3895 17.1122C13.9508 17.1122 13.5681 17.0142 13.2415 16.8182C12.9241 16.6222 12.6815 16.3469 12.5135 15.9922C12.3548 15.6282 12.2755 15.1942 12.2755 14.6902C12.2755 13.9902 12.3595 13.3229 12.5275 12.6882C12.6955 12.0535 12.9475 11.4935 13.2835 11.0082C13.6195 10.5135 14.0301 10.1262 14.5155 9.84622C15.0101 9.55689 15.5748 9.41222 16.2095 9.41222C16.3775 9.41222 16.5408 9.42155 16.6995 9.44022C16.8675 9.45889 17.0261 9.48689 17.1755 9.52422C17.3341 9.55222 17.4835 9.58955 17.6235 9.63622C17.7728 9.68289 17.9128 9.73422 18.0435 9.79022L16.8535 17.1682C16.7041 18.1482 16.3915 18.8762 15.9155 19.3522C15.4488 19.8375 14.8048 20.0802 13.9835 20.0802C13.6381 20.0802 13.2835 20.0475 12.9195 19.9822C12.5555 19.9169 12.2195 19.8282 11.9115 19.7162ZM17.4695 10.0982C17.3015 10.0329 17.1148 9.97689 16.9095 9.93022C16.7041 9.87422 16.4475 9.84622 16.1395 9.84622C15.6261 9.84622 15.1641 9.97689 14.7535 10.2382C14.3428 10.4902 13.9928 10.8355 13.7035 11.2742C13.4141 11.7035 13.1901 12.2029 13.0315 12.7722C12.8728 13.3322 12.7935 13.9249 12.7935 14.5502C12.7935 15.2315 12.9475 15.7542 13.2555 16.1182C13.5728 16.4822 14.0068 16.6642 14.5575 16.6642C14.7535 16.6642 14.9728 16.6362 15.2155 16.5802C15.4581 16.5149 15.6961 16.4309 15.9295 16.3282C16.1721 16.2255 16.3775 16.1135 16.5455 15.9922L17.4695 10.0982Z" fill="#131313"/>
</svg>
