<svg width="24" height="24" viewBox="0 0 24 24" fill="none" xmlns="http://www.w3.org/2000/svg">
<path d="M4.31384 17.0001L7.85584 7.06006H8.03784L11.5798 17.0001H11.2858L10.1938 13.9061H5.69984L4.60784 17.0001H4.31384ZM5.79784 13.6401H10.0958L7.93984 7.69006L5.79784 13.6401ZM15.4125 20.0801C14.3671 20.0801 13.5785 19.9074 13.0465 19.5621C12.5145 19.2168 12.2485 18.6894 12.2485 17.9801C12.2485 17.7188 12.2858 17.4714 12.3605 17.2381C12.4445 17.0141 12.5798 16.8088 12.7665 16.6221C12.9531 16.4261 13.2005 16.2628 13.5085 16.1321L13.8025 16.2301C13.4851 16.3514 13.2331 16.5054 13.0465 16.6921C12.8598 16.8694 12.7245 17.0654 12.6405 17.2801C12.5658 17.4948 12.5285 17.7234 12.5285 17.9661C12.5285 18.3861 12.6358 18.7314 12.8505 19.0021C13.0745 19.2728 13.4011 19.4734 13.8305 19.6041C14.2598 19.7441 14.7871 19.8141 15.4125 19.8141C16.0658 19.8141 16.6165 19.7348 17.0645 19.5761C17.5125 19.4268 17.8531 19.2074 18.0865 18.9181C18.3198 18.6288 18.4365 18.2788 18.4365 17.8681C18.4365 17.5508 18.3711 17.2848 18.2405 17.0701C18.1098 16.8648 17.9185 16.7061 17.6665 16.5941C17.4145 16.4821 17.1065 16.4261 16.7425 16.4261H14.4605C14.0498 16.4261 13.7138 16.3748 13.4525 16.2721C13.1911 16.1694 12.9951 16.0201 12.8645 15.8241C12.7431 15.6188 12.6825 15.3808 12.6825 15.1101C12.6825 14.8021 12.7618 14.5221 12.9205 14.2701C13.0791 14.0181 13.3265 13.7894 13.6625 13.5841L13.8585 13.7101C13.5691 13.8781 13.3451 14.0788 13.1865 14.3121C13.0371 14.5361 12.9625 14.7928 12.9625 15.0821C12.9625 15.3994 13.0791 15.6561 13.3125 15.8521C13.5551 16.0481 13.9425 16.1461 14.4745 16.1461H16.7425C17.3958 16.1461 17.8858 16.2908 18.2125 16.5801C18.5485 16.8694 18.7165 17.3034 18.7165 17.8821C18.7165 18.3394 18.5858 18.7314 18.3245 19.0581C18.0631 19.3848 17.6851 19.6368 17.1905 19.8141C16.7051 19.9914 16.1125 20.0801 15.4125 20.0801ZM15.3985 14.0601C14.5398 14.0601 13.9005 13.8688 13.4805 13.4861C13.0605 13.1034 12.8505 12.5248 12.8505 11.7501C12.8505 10.9754 13.0605 10.3968 13.4805 10.0141C13.9005 9.63139 14.5398 9.44006 15.3985 9.44006C16.2571 9.44006 16.8918 9.63139 17.3025 10.0141C17.7225 10.3968 17.9325 10.9754 17.9325 11.7501C17.9325 12.5248 17.7225 13.1034 17.3025 13.4861C16.8918 13.8688 16.2571 14.0601 15.3985 14.0601ZM15.3985 13.7941C16.1731 13.7941 16.7425 13.6308 17.1065 13.3041C17.4705 12.9681 17.6525 12.4501 17.6525 11.7501C17.6525 11.0408 17.4705 10.5228 17.1065 10.1961C16.7425 9.86939 16.1731 9.70606 15.3985 9.70606C14.6238 9.70606 14.0498 9.86939 13.6765 10.1961C13.3125 10.5228 13.1305 11.0408 13.1305 11.7501C13.1305 12.4501 13.3125 12.9681 13.6765 13.3041C14.0498 13.6308 14.6238 13.7941 15.3985 13.7941ZM17.0785 10.1541L16.9105 9.95806C17.0131 9.69673 17.1811 9.50073 17.4145 9.37006C17.6478 9.23006 17.9231 9.16006 18.2405 9.16006C18.3151 9.16006 18.3805 9.16006 18.4365 9.16006C18.4925 9.16006 18.5625 9.16939 18.6465 9.18806L18.6325 9.46806C18.5671 9.44939 18.5018 9.44006 18.4365 9.44006C18.3805 9.44006 18.3151 9.44006 18.2405 9.44006C17.9698 9.44006 17.7365 9.49606 17.5405 9.60806C17.3538 9.72006 17.1998 9.90206 17.0785 10.1541Z" fill="#131313"/>
</svg>
