<svg width="24" height="24" viewBox="0 0 24 24" fill="none" xmlns="http://www.w3.org/2000/svg">
<path d="M2.32716 17.0002L5.25316 7.2002H9.25716L12.2252 17.0002H8.65516L8.36116 15.7262H6.02316L5.74316 17.0002H2.32716ZM6.59716 13.0662H7.78716L7.19916 9.5522L6.59716 13.0662ZM15.7953 20.0802C14.6379 20.0802 13.7559 19.9262 13.1493 19.6182C12.5519 19.3102 12.2533 18.8435 12.2533 18.2182C12.2533 17.9662 12.2999 17.7375 12.3933 17.5322C12.4866 17.3269 12.6219 17.1449 12.7993 16.9862C12.9859 16.8275 13.2099 16.6969 13.4713 16.5942L14.8713 17.1402C14.8153 17.1775 14.7686 17.2102 14.7313 17.2382C14.6939 17.2755 14.6659 17.3129 14.6473 17.3502C14.6286 17.3875 14.6193 17.4342 14.6193 17.4902C14.6193 17.6022 14.6566 17.6862 14.7313 17.7422C14.8059 17.7982 14.9413 17.8355 15.1373 17.8542C15.3426 17.8822 15.6319 17.8962 16.0053 17.8962C16.3413 17.8962 16.6166 17.8822 16.8313 17.8542C17.0553 17.8262 17.2186 17.7842 17.3213 17.7282C17.4333 17.6815 17.4893 17.6162 17.4893 17.5322C17.4893 17.4669 17.4753 17.4202 17.4473 17.3922C17.4286 17.3642 17.3679 17.3409 17.2653 17.3222C17.1719 17.3129 17.0179 17.3082 16.8033 17.3082H15.5013C14.9133 17.3082 14.3953 17.2475 13.9473 17.1262C13.5086 17.0049 13.1633 16.8135 12.9113 16.5522C12.6686 16.2909 12.5473 15.9502 12.5473 15.5302C12.5473 15.1009 12.6593 14.7462 12.8833 14.4662C13.1166 14.1769 13.4106 13.9435 13.7653 13.7662L15.2493 14.1022C15.1279 14.1862 15.0393 14.2655 14.9833 14.3402C14.9366 14.4149 14.9133 14.5082 14.9133 14.6202C14.9133 14.7322 14.9553 14.8162 15.0393 14.8722C15.1233 14.9189 15.2493 14.9422 15.4173 14.9422H17.8953C18.6886 14.9422 19.3093 15.1382 19.7573 15.5302C20.2053 15.9222 20.4293 16.4589 20.4293 17.1402C20.4293 17.7749 20.2566 18.3115 19.9113 18.7502C19.5753 19.1889 19.0619 19.5202 18.3713 19.7442C17.6899 19.9682 16.8313 20.0802 15.7953 20.0802ZM16.1173 14.5922C14.9319 14.5922 14.0406 14.3635 13.4433 13.9062C12.8553 13.4489 12.5613 12.7722 12.5613 11.8762C12.5613 10.9709 12.8553 10.2942 13.4433 9.8462C14.0406 9.38887 14.9319 9.1602 16.1173 9.1602C17.3026 9.1602 18.1893 9.38887 18.7773 9.8462C19.3746 10.2942 19.6733 10.9709 19.6733 11.8762C19.6733 12.7722 19.3746 13.4489 18.7773 13.9062C18.1893 14.3635 17.3026 14.5922 16.1173 14.5922ZM16.1173 12.6882C16.3319 12.6882 16.4859 12.6369 16.5793 12.5342C16.6819 12.4222 16.7333 12.2029 16.7333 11.8762C16.7333 11.5402 16.6819 11.3209 16.5793 11.2182C16.4859 11.1062 16.3319 11.0502 16.1173 11.0502C15.9026 11.0502 15.7439 11.1062 15.6413 11.2182C15.5479 11.3209 15.5013 11.5402 15.5013 11.8762C15.5013 12.2029 15.5479 12.4222 15.6413 12.5342C15.7439 12.6369 15.9026 12.6882 16.1173 12.6882ZM19.3093 11.4562L18.1613 9.8742C18.3013 9.49153 18.5113 9.21153 18.7913 9.0342C19.0713 8.84753 19.4259 8.7542 19.8553 8.7542C20.0233 8.7542 20.1819 8.7682 20.3313 8.7962C20.4806 8.81486 20.6113 8.84753 20.7233 8.8942L20.3593 11.2322C20.2753 11.2135 20.1866 11.1995 20.0933 11.1902C19.9999 11.1715 19.9019 11.1622 19.7993 11.1622C19.7059 11.1622 19.6173 11.1855 19.5333 11.2322C19.4493 11.2789 19.3746 11.3535 19.3093 11.4562Z" fill="#131313"/>
</svg>
