<svg width="24" height="24" viewBox="0 0 24 24" fill="none" xmlns="http://www.w3.org/2000/svg">
<path d="M2.91893 17.0421L3.04493 16.7481C3.2876 16.7108 3.48826 16.6734 3.64693 16.6361C3.8056 16.5988 3.92693 16.5568 4.01093 16.5101C4.21626 16.3794 4.4076 16.1041 4.58493 15.6841L7.02093 9.46814C7.17026 9.10414 7.24493 8.80081 7.24493 8.55814C7.24493 8.53947 7.24026 8.52081 7.23093 8.50214C7.23093 8.48347 7.22626 8.45081 7.21693 8.40414C7.2076 8.38547 7.20293 8.35747 7.20293 8.32014C7.20293 8.25481 7.23093 8.19414 7.28693 8.13814C7.59493 7.87681 7.87026 7.66214 8.11293 7.49414C8.3836 8.31547 8.63093 9.06681 8.85493 9.74814C9.07893 10.4201 9.2796 11.0174 9.45693 11.5401L10.0029 13.0381C10.2829 13.8314 10.5256 14.4894 10.7309 15.0121C10.9456 15.5348 11.1183 15.9174 11.2489 16.1601C11.3796 16.4214 11.6316 16.5941 12.0049 16.6781C12.1263 16.6874 12.2429 16.6968 12.3549 16.7061C12.4763 16.7154 12.5976 16.7248 12.7189 16.7341L12.5789 17.0421C12.0469 17.0141 11.6316 16.9954 11.3329 16.9861C11.0343 16.9768 10.8476 16.9721 10.7729 16.9721C10.7076 16.9721 10.5863 16.9721 10.4089 16.9721C10.2316 16.9721 10.0076 16.9814 9.73693 17.0001L8.82693 17.0421L8.93893 16.7481C9.64826 16.7481 9.98893 16.5941 9.96093 16.2861C9.96093 16.2674 9.90493 16.0668 9.79293 15.6841C9.68093 15.2921 9.5036 14.7228 9.26093 13.9761C9.24226 13.9014 9.20026 13.8641 9.13493 13.8641H5.91493C5.85893 13.8641 5.81693 13.9014 5.78893 13.9761C5.53693 14.6014 5.33626 15.1054 5.18693 15.4881C5.04693 15.8708 4.96293 16.1368 4.93493 16.2861C4.9256 16.2954 4.92093 16.3141 4.92093 16.3421C4.92093 16.6034 5.30826 16.7341 6.08293 16.7341L5.94293 17.0421C5.75626 17.0141 5.53693 16.9954 5.28493 16.9861C5.03293 16.9768 4.74826 16.9721 4.43093 16.9721C4.12293 16.9721 3.84293 16.9768 3.59093 16.9861C3.34826 16.9954 3.12426 17.0141 2.91893 17.0421ZM6.11093 13.4021H8.93893C8.99493 13.4021 9.02293 13.3834 9.02293 13.3461C9.02293 13.3181 9.01826 13.2994 9.00893 13.2901L7.63693 9.49614C7.6276 9.44947 7.6136 9.42614 7.59493 9.42614C7.56693 9.42614 7.54826 9.44481 7.53893 9.48214L6.05493 13.2901C6.0456 13.2994 6.04093 13.3181 6.04093 13.3461C6.04093 13.3834 6.06426 13.4021 6.11093 13.4021ZM15.1056 19.3381C14.0696 19.3194 13.4163 19.1748 13.1456 18.9041C12.9216 18.6894 12.8096 18.4188 12.8096 18.0921C12.8096 17.3268 13.3136 16.7061 14.3216 16.2301H14.1816C14.1163 16.2301 14.0416 16.2301 13.9576 16.2301C13.8736 16.2301 13.7849 16.2254 13.6916 16.2161C13.5796 16.1788 13.4629 16.0294 13.3416 15.7681C13.2203 15.5161 13.1596 15.2781 13.1596 15.0541C13.1596 14.8488 13.2203 14.7274 13.3416 14.6901C13.9016 14.4754 14.2983 14.2281 14.5316 13.9481C14.0556 13.5934 13.8176 13.0568 13.8176 12.3381C13.8176 11.6568 14.0229 11.1434 14.4336 10.7981C14.8443 10.4434 15.4463 10.2661 16.2396 10.2661C16.7249 10.2661 17.1496 10.3641 17.5136 10.5601H19.8236C19.8329 10.5694 19.8376 10.5788 19.8376 10.5881C19.8376 10.6441 19.7676 10.7281 19.6276 10.8401C19.4783 10.9614 19.3523 11.0174 19.2496 11.0081C19.1936 10.9988 19.0583 10.9848 18.8436 10.9661C18.6289 10.9474 18.3303 10.9241 17.9476 10.8961C18.2743 11.2508 18.4376 11.7174 18.4376 12.2961C18.4376 12.9774 18.2323 13.4954 17.8216 13.8501C17.4203 14.2048 16.8183 14.3821 16.0156 14.3821C15.5769 14.3821 15.1709 14.2888 14.7976 14.1021C14.5923 14.1954 14.4149 14.3261 14.2656 14.4941C14.1163 14.6901 14.0416 14.8628 14.0416 15.0121C14.0416 15.2548 14.2189 15.3901 14.5736 15.4181C14.9936 15.4554 15.4136 15.4834 15.8336 15.5021C16.2536 15.5114 16.6643 15.5161 17.0656 15.5161H17.7656C18.8763 15.4881 19.4316 15.8661 19.4316 16.6501C19.4316 17.3034 19.0769 17.8774 18.3676 18.3721C17.9289 18.6894 17.3876 18.9321 16.7436 19.1001C16.1556 19.2681 15.6096 19.3474 15.1056 19.3381ZM16.2256 14.1161C16.2723 14.1161 16.3189 14.1161 16.3656 14.1161C16.4216 14.1068 16.4729 14.0974 16.5196 14.0881C17.1916 13.9294 17.5276 13.4254 17.5276 12.5761C17.5276 12.0068 17.3643 11.5074 17.0376 11.0781C16.7483 10.7048 16.4123 10.5181 16.0296 10.5181C15.9456 10.5181 15.8476 10.5321 15.7356 10.5601C15.0729 10.7188 14.7416 11.2228 14.7416 12.0721C14.7416 12.6601 14.9049 13.1594 15.2316 13.5701C15.5116 13.9341 15.8429 14.1161 16.2256 14.1161ZM15.3576 18.9881C15.8429 18.9881 16.3236 18.9134 16.7996 18.7641C17.3596 18.5961 17.8076 18.3534 18.1436 18.0361C18.4609 17.7188 18.6196 17.4108 18.6196 17.1121C18.6196 16.7014 18.4283 16.4681 18.0456 16.4121C17.5883 16.3374 16.9303 16.2954 16.0716 16.2861C15.8103 16.2861 15.5676 16.2861 15.3436 16.2861C15.1289 16.2768 14.9236 16.2674 14.7276 16.2581C13.9436 16.5194 13.5516 17.0188 13.5516 17.7561C13.5516 18.0174 13.6216 18.2321 13.7616 18.4001C14.0883 18.7921 14.6203 18.9881 15.3576 18.9881Z" fill="#131313"/>
</svg>
