<svg width="24" height="24" viewBox="0 0 24 24" fill="none" xmlns="http://www.w3.org/2000/svg">
<path d="M7.2832 17L9.04688 7.59375H10.2979L12.0479 17H10.8857L10.5508 14.9287H8.81445L8.44531 17H7.2832ZM8.99219 13.8076H10.3389L9.68262 9.89062H9.64844L8.99219 13.8076ZM16.6553 11.75H15.835C16.0674 12.1328 16.1836 12.6364 16.1836 13.2607C16.1836 14.6006 15.6048 15.3639 14.4473 15.5508C14.2376 15.5872 14.0895 15.6328 14.0029 15.6875C13.9163 15.7376 13.873 15.8447 13.873 16.0088C13.873 16.1318 13.9163 16.2389 14.0029 16.3301C14.0895 16.4167 14.4268 16.5192 15.0146 16.6377C15.6071 16.7562 16.0264 16.984 16.2725 17.3213C16.5186 17.6585 16.6416 18.055 16.6416 18.5107C16.6416 19.0758 16.4411 19.5361 16.04 19.8916C15.6436 20.2516 15.1263 20.4316 14.4883 20.4316C13.9004 20.4316 13.4105 20.2653 13.0186 19.9326C12.6266 19.6045 12.4307 19.1966 12.4307 18.709C12.4307 17.998 12.7861 17.4899 13.4971 17.1846C13.0277 16.9749 12.793 16.6719 12.793 16.2754C12.793 15.8379 13.0824 15.5052 13.6611 15.2773C13.0277 14.8398 12.7109 14.1312 12.7109 13.1514C12.7109 12.4359 12.8727 11.8662 13.1963 11.4424C13.5244 11.014 13.9733 10.7998 14.543 10.7998H16.6553V11.75ZM14.4609 11.627C14.2331 11.627 14.0485 11.7637 13.9072 12.0371C13.7705 12.306 13.7021 12.6774 13.7021 13.1514C13.7021 13.639 13.7682 14.0195 13.9004 14.293C14.0371 14.5664 14.224 14.7031 14.4609 14.7031C14.6842 14.7031 14.8597 14.5732 14.9873 14.3135C15.1195 14.0492 15.1855 13.6846 15.1855 13.2197C15.1855 12.7275 15.1195 12.3402 14.9873 12.0576C14.8551 11.7705 14.6797 11.627 14.4609 11.627ZM14.4609 17.5879C14.1556 17.5879 13.9049 17.679 13.709 17.8613C13.5176 18.0436 13.4219 18.2783 13.4219 18.5654C13.4219 18.848 13.5221 19.0758 13.7227 19.249C13.9232 19.4222 14.1875 19.5088 14.5156 19.5088C14.8392 19.5088 15.1081 19.4176 15.3223 19.2354C15.541 19.0531 15.6504 18.8298 15.6504 18.5654C15.6504 18.2965 15.5342 18.0664 15.3018 17.875C15.0693 17.6836 14.7891 17.5879 14.4609 17.5879Z" fill="#131313"/>
</svg>
