<svg width="24" height="24" viewBox="0 0 24 24" fill="none" xmlns="http://www.w3.org/2000/svg">
<path d="M8.82715 5.76855H10.4609L11.6367 17H10.1191L10.0439 14.9971H9.20996L9.05957 17H7.5625L8.82715 5.76855ZM9.6748 7.61426H9.55176C9.50618 9.17285 9.47201 10.1709 9.44922 10.6084L9.29199 13.541H9.93457L9.83203 11.2783L9.6748 7.61426ZM15.2324 8.33204V16.7949C15.2324 17.3555 15.0706 17.8021 14.7471 18.1348C14.4281 18.4674 14.0088 18.6338 13.4893 18.6338C13.2796 18.6338 13.0837 18.6042 12.9014 18.5449C12.7191 18.4902 12.4753 18.3809 12.1699 18.2168L12.5801 17.0889C12.8717 17.262 13.1201 17.3486 13.3252 17.3486C13.5212 17.3486 13.6693 17.2985 13.7695 17.1982C13.8743 17.098 13.9268 16.9635 13.9268 16.7949V16.4258C13.7126 16.7129 13.4824 16.8564 13.2363 16.8564C12.9447 16.8564 12.7008 16.6833 12.5049 16.3369C12.1676 15.7445 11.999 14.6302 11.999 12.9941C11.999 11.8047 12.1038 10.8864 12.3135 10.2393C12.5277 9.59212 12.8307 9.11361 13.2227 8.80371C13.6191 8.48926 14.0908 8.33204 14.6377 8.33204H15.2324ZM13.9268 9.87696C13.7399 9.99545 13.5941 10.1868 13.4893 10.4512C13.3844 10.7155 13.332 11.1667 13.332 11.8047V13.7119C13.332 14.5732 13.3867 15.1133 13.4961 15.332C13.5599 15.4551 13.6442 15.5166 13.749 15.5166C13.8356 15.5166 13.8949 15.4961 13.9268 15.4551V9.87696Z" fill="#131313"/>
</svg>
