<svg width="24" height="24" viewBox="0 0 24 24" fill="none" xmlns="http://www.w3.org/2000/svg">
<path d="M4.82107 17.0001C4.75574 17.0001 4.7184 16.9814 4.70907 16.9441C4.69974 16.8974 4.7044 16.8134 4.72307 16.6921C4.77907 16.2534 4.8724 15.7308 5.00307 15.1241C5.13374 14.5174 5.28774 13.8734 5.46507 13.1921C5.6424 12.5014 5.83374 11.8154 6.03907 11.1341C6.2444 10.4434 6.4544 9.80879 6.66907 9.23012C6.88374 8.64212 7.08907 8.15213 7.28507 7.76013C7.31307 7.70413 7.34574 7.66212 7.38307 7.63412C7.4204 7.59679 7.4624 7.57812 7.50907 7.57812H8.71307C8.75974 7.58745 8.80174 7.60612 8.83907 7.63412C8.88574 7.65279 8.92307 7.6948 8.95107 7.76013C9.13774 8.1428 9.3384 8.62812 9.55307 9.21612C9.76774 9.80412 9.97774 10.4434 10.1831 11.1341C10.3884 11.8248 10.5797 12.5201 10.7571 13.2201C10.9344 13.9108 11.0884 14.5594 11.2191 15.1661C11.3497 15.7634 11.4431 16.2674 11.4991 16.6781C11.5271 16.8088 11.5317 16.8974 11.5131 16.9441C11.5037 16.9814 11.4664 17.0001 11.4011 17.0001H10.4071C10.3604 17.0001 10.3277 16.9861 10.3091 16.9581C10.2904 16.9301 10.2671 16.8601 10.2391 16.7481C10.2017 16.5054 10.1504 16.2208 10.0851 15.8941C10.0197 15.5674 9.9544 15.2454 9.88907 14.9281C9.87974 14.8721 9.86107 14.8394 9.83307 14.8301C9.8144 14.8114 9.77707 14.8021 9.72107 14.8021H6.50107C6.44507 14.8021 6.40774 14.8114 6.38907 14.8301C6.3704 14.8394 6.35174 14.8768 6.33307 14.9421C6.26774 15.2501 6.2024 15.5674 6.13707 15.8941C6.07174 16.2208 6.0204 16.5054 5.98307 16.7481C5.9644 16.8601 5.94574 16.9301 5.92707 16.9581C5.9084 16.9861 5.87107 17.0001 5.81507 17.0001H4.82107ZM6.76707 13.7941H9.44107C9.48774 13.7941 9.5204 13.7801 9.53907 13.7521C9.55774 13.7241 9.55774 13.6681 9.53907 13.5841C9.36174 12.8934 9.17507 12.1934 8.97907 11.4841C8.7924 10.7654 8.57774 10.0934 8.33507 9.46813C8.3164 9.4028 8.27907 9.37012 8.22307 9.37012H7.99907C7.9524 9.37012 7.91507 9.4028 7.88707 9.46813C7.76574 9.7948 7.6304 10.1914 7.48107 10.6581C7.33174 11.1248 7.18707 11.6194 7.04707 12.1421C6.90707 12.6554 6.78107 13.1548 6.66907 13.6401C6.65974 13.6774 6.65974 13.7148 6.66907 13.7521C6.6784 13.7801 6.71107 13.7941 6.76707 13.7941ZM12.5037 13.6121C12.5037 12.9868 12.5877 12.4268 12.7557 11.9321C12.9237 11.4281 13.2223 11.0314 13.6517 10.7421C14.081 10.4528 14.6783 10.3081 15.4437 10.3081C15.8077 10.3081 16.167 10.3361 16.5217 10.3921C16.8763 10.4481 17.189 10.5321 17.4597 10.6441C17.637 10.7001 17.749 10.7794 17.7957 10.8821C17.8423 10.9754 17.875 11.1248 17.8937 11.3301C17.9777 12.0394 18.0243 12.8514 18.0337 13.7661C18.043 14.6714 17.9917 15.6001 17.8797 16.5521C17.777 17.3548 17.483 17.9428 16.9977 18.3161C16.5217 18.6894 15.8637 18.8761 15.0237 18.8761C14.6877 18.8761 14.3237 18.8294 13.9317 18.7361C13.5397 18.6428 13.1803 18.4748 12.8537 18.2321C12.807 18.1948 12.7743 18.1528 12.7557 18.1061C12.737 18.0594 12.7417 18.0128 12.7697 17.9661C12.7977 17.9101 12.8397 17.8308 12.8957 17.7281C12.961 17.6254 13.0123 17.5461 13.0497 17.4901C13.087 17.4154 13.1243 17.3734 13.1617 17.3641C13.199 17.3641 13.2457 17.3828 13.3017 17.4201C13.4323 17.5041 13.591 17.5834 13.7777 17.6581C13.9737 17.7421 14.1743 17.8074 14.3797 17.8541C14.5943 17.9101 14.7903 17.9381 14.9677 17.9381C15.201 17.9381 15.4297 17.9008 15.6537 17.8261C15.8777 17.7514 16.0737 17.6208 16.2417 17.4341C16.419 17.2568 16.531 17.0094 16.5777 16.6921C16.5777 16.6734 16.5777 16.6594 16.5777 16.6501C16.587 16.6314 16.5917 16.6174 16.5917 16.6081C16.601 16.5428 16.587 16.5008 16.5497 16.4821C16.5123 16.4541 16.4517 16.4494 16.3677 16.4681C16.2183 16.5054 16.041 16.5428 15.8357 16.5801C15.6397 16.6081 15.439 16.6221 15.2337 16.6221C14.683 16.6221 14.1977 16.5054 13.7777 16.2721C13.367 16.0388 13.0497 15.6981 12.8257 15.2501C12.6017 14.8021 12.4943 14.2561 12.5037 13.6121ZM13.7917 13.4441C13.7917 13.8734 13.8383 14.2561 13.9317 14.5921C14.025 14.9281 14.1883 15.1941 14.4217 15.3901C14.655 15.5768 14.9723 15.6701 15.3737 15.6701C15.5603 15.6701 15.7423 15.6608 15.9197 15.6421C16.097 15.6141 16.2603 15.5721 16.4097 15.5161C16.5963 15.4414 16.699 15.3248 16.7177 15.1661C16.7363 14.9328 16.7457 14.6574 16.7457 14.3401C16.7457 14.0134 16.741 13.6868 16.7317 13.3601C16.7317 13.0241 16.7223 12.7161 16.7037 12.4361C16.6943 12.1468 16.6803 11.9134 16.6617 11.7361C16.6617 11.6801 16.6477 11.6101 16.6197 11.5261C16.5917 11.4421 16.5357 11.3814 16.4517 11.3441C16.349 11.2881 16.2043 11.2461 16.0177 11.2181C15.831 11.1901 15.6257 11.1761 15.4017 11.1761C15.0003 11.1761 14.683 11.2741 14.4497 11.4701C14.2163 11.6568 14.0483 11.9228 13.9457 12.2681C13.843 12.6041 13.7917 12.9961 13.7917 13.4441Z" fill="#131313"/>
</svg>
