<svg width="24" height="24" viewBox="0 0 24 24" fill="none" xmlns="http://www.w3.org/2000/svg">
<path d="M4.8634 17.0001C4.81673 17.0001 4.78873 16.9861 4.7794 16.9581C4.77007 16.9208 4.77007 16.8554 4.7794 16.7621C4.84473 16.3234 4.94273 15.7961 5.0734 15.1801C5.20407 14.5641 5.35807 13.9061 5.5354 13.2061C5.71273 12.5061 5.8994 11.8108 6.0954 11.1201C6.30073 10.4294 6.51073 9.79012 6.7254 9.20212C6.94007 8.60479 7.1454 8.11012 7.3414 7.71812C7.3694 7.67145 7.3974 7.63879 7.4254 7.62012C7.4534 7.59212 7.48607 7.57812 7.5234 7.57812H8.6714C8.71807 7.58745 8.7554 7.60145 8.7834 7.62012C8.82073 7.63879 8.8534 7.67612 8.8814 7.73212C9.06807 8.10545 9.26407 8.59079 9.4694 9.18812C9.68407 9.78545 9.89407 10.4341 10.0994 11.1341C10.3047 11.8341 10.4961 12.5388 10.6734 13.2481C10.8601 13.9574 11.0187 14.6201 11.1494 15.2361C11.2801 15.8428 11.3734 16.3514 11.4294 16.7621C11.4481 16.8554 11.4527 16.9208 11.4434 16.9581C11.4341 16.9861 11.4014 17.0001 11.3454 17.0001H10.5474C10.5101 17.0001 10.4821 16.9908 10.4634 16.9721C10.4541 16.9441 10.4354 16.8881 10.4074 16.8041C10.3701 16.5521 10.3187 16.2581 10.2534 15.9221C10.1881 15.5768 10.1181 15.2268 10.0434 14.8721C10.0341 14.8161 10.0154 14.7788 9.9874 14.7601C9.96873 14.7414 9.92673 14.7321 9.8614 14.7321H6.3334C6.2774 14.7414 6.24007 14.7554 6.2214 14.7741C6.20273 14.7834 6.18407 14.8208 6.1654 14.8861C6.09073 15.2314 6.02073 15.5768 5.9554 15.9221C5.89007 16.2581 5.83407 16.5568 5.7874 16.8181C5.77807 16.8928 5.76407 16.9441 5.7454 16.9721C5.73607 16.9908 5.70807 17.0001 5.6614 17.0001H4.8634ZM6.5434 13.9201H9.6374C9.68407 13.9201 9.71673 13.9061 9.7354 13.8781C9.7634 13.8501 9.76807 13.7941 9.7494 13.7101C9.54407 12.9168 9.33407 12.1188 9.1194 11.3161C8.91407 10.5134 8.66207 9.74813 8.3634 9.02013C8.34473 8.96413 8.30273 8.93612 8.2374 8.93612H7.9714C7.9154 8.93612 7.87807 8.9688 7.8594 9.03413C7.71007 9.39813 7.54673 9.84613 7.3694 10.3781C7.2014 10.9008 7.03807 11.4561 6.8794 12.0441C6.72073 12.6321 6.57607 13.2061 6.4454 13.7661C6.43607 13.8034 6.43607 13.8408 6.4454 13.8781C6.45473 13.9061 6.4874 13.9201 6.5434 13.9201ZM12.5317 13.6121C12.541 12.9868 12.625 12.4268 12.7837 11.9321C12.9517 11.4281 13.2457 11.0314 13.6657 10.7421C14.0857 10.4528 14.669 10.3081 15.4157 10.3081C15.7797 10.3081 16.139 10.3361 16.4937 10.3921C16.8483 10.4481 17.161 10.5321 17.4317 10.6441C17.5717 10.6908 17.665 10.7608 17.7117 10.8541C17.7583 10.9474 17.791 11.0921 17.8097 11.2881C17.8937 11.9601 17.9403 12.7628 17.9497 13.6961C17.9683 14.6201 17.917 15.5861 17.7957 16.5941C17.7023 17.3968 17.4177 17.9801 16.9417 18.3441C16.475 18.7174 15.8263 18.9041 14.9957 18.9041C14.669 18.9041 14.3143 18.8574 13.9317 18.7641C13.549 18.6708 13.2037 18.5121 12.8957 18.2881C12.8397 18.2414 12.8023 18.1994 12.7837 18.1621C12.7743 18.1341 12.7837 18.1014 12.8117 18.0641C12.8397 18.0174 12.877 17.9474 12.9237 17.8541C12.9703 17.7701 13.0077 17.7048 13.0357 17.6581C13.073 17.6021 13.1057 17.5694 13.1337 17.5601C13.171 17.5601 13.2083 17.5788 13.2457 17.6161C13.395 17.7001 13.563 17.7794 13.7497 17.8541C13.9457 17.9381 14.151 18.0034 14.3657 18.0501C14.5803 18.1061 14.7903 18.1341 14.9957 18.1341C15.257 18.1341 15.509 18.0874 15.7517 17.9941C16.0037 17.9008 16.2183 17.7514 16.3957 17.5461C16.5823 17.3408 16.7037 17.0608 16.7597 16.7061C16.7597 16.6874 16.7597 16.6734 16.7597 16.6641C16.769 16.6454 16.7737 16.6268 16.7737 16.6081C16.783 16.5428 16.7643 16.5054 16.7177 16.4961C16.6803 16.4868 16.6197 16.4914 16.5357 16.5101C16.3677 16.5568 16.1623 16.6034 15.9197 16.6501C15.6863 16.6874 15.4577 16.7061 15.2337 16.7061C14.655 16.7061 14.1603 16.5848 13.7497 16.3421C13.3483 16.0901 13.0403 15.7354 12.8257 15.2781C12.6203 14.8114 12.5223 14.2561 12.5317 13.6121ZM13.5537 13.5001C13.5537 13.9668 13.6097 14.3821 13.7217 14.7461C13.8337 15.1101 14.0203 15.3948 14.2817 15.6001C14.5523 15.8054 14.9163 15.9081 15.3737 15.9081C15.579 15.9081 15.7843 15.8941 15.9897 15.8661C16.195 15.8381 16.377 15.7914 16.5357 15.7261C16.7597 15.6421 16.8763 15.5208 16.8857 15.3621C16.9137 15.1008 16.9277 14.8021 16.9277 14.4661C16.9277 14.1208 16.923 13.7708 16.9137 13.4161C16.9137 13.0521 16.9043 12.7161 16.8857 12.4081C16.8763 12.1001 16.8577 11.8434 16.8297 11.6381C16.8297 11.5728 16.8157 11.4981 16.7877 11.4141C16.7597 11.3301 16.6943 11.2648 16.5917 11.2181C16.4797 11.1621 16.3117 11.1201 16.0877 11.0921C15.873 11.0548 15.6443 11.0361 15.4017 11.0361C14.9443 11.0361 14.5803 11.1388 14.3097 11.3441C14.0483 11.5494 13.857 11.8388 13.7357 12.2121C13.6237 12.5854 13.563 13.0148 13.5537 13.5001Z" fill="#131313"/>
</svg>
