<svg width="24" height="24" viewBox="0 0 24 24" fill="none" xmlns="http://www.w3.org/2000/svg">
<path d="M4.68659 17.0001C4.59326 17.0001 4.53726 16.9628 4.51859 16.8881C4.49993 16.8134 4.50926 16.6641 4.54659 16.4401C4.60259 16.0294 4.69593 15.5348 4.82659 14.9561C4.95726 14.3681 5.11126 13.7474 5.28859 13.0941C5.46593 12.4408 5.65726 11.7874 5.86259 11.1341C6.06793 10.4808 6.27793 9.87413 6.49259 9.31413C6.70726 8.7448 6.91259 8.2688 7.10859 7.88613C7.16459 7.7928 7.21593 7.71813 7.26259 7.66213C7.31859 7.60613 7.38393 7.57812 7.45859 7.57812H8.84459C8.91926 7.60613 8.98459 7.64345 9.04059 7.69012C9.09659 7.72745 9.14793 7.7928 9.19459 7.88613C9.39993 8.2688 9.60993 8.7448 9.82459 9.31413C10.0393 9.87413 10.2493 10.4808 10.4546 11.1341C10.6599 11.7874 10.8513 12.4408 11.0286 13.0941C11.2059 13.7474 11.3599 14.3681 11.4906 14.9561C11.6213 15.5348 11.7146 16.0294 11.7706 16.4401C11.8079 16.6641 11.8173 16.8134 11.7986 16.8881C11.7799 16.9628 11.7193 17.0001 11.6166 17.0001H9.96459C9.88059 17.0001 9.81993 16.9768 9.78259 16.9301C9.75459 16.8834 9.72193 16.7574 9.68459 16.5521C9.64726 16.3468 9.59593 16.1041 9.53059 15.8241C9.47459 15.5441 9.42793 15.3154 9.39059 15.1381C9.38126 15.0634 9.36726 15.0214 9.34859 15.0121C9.33926 15.0028 9.30193 14.9981 9.23659 14.9981H7.08059C7.01526 14.9981 6.97793 15.0028 6.96859 15.0121C6.95926 15.0214 6.94526 15.0634 6.92659 15.1381C6.88926 15.3154 6.83793 15.5441 6.77259 15.8241C6.71659 16.1041 6.66993 16.3468 6.63259 16.5521C6.59526 16.7574 6.55793 16.8834 6.52059 16.9301C6.49259 16.9768 6.43659 17.0001 6.35259 17.0001H4.68659ZM7.52859 13.3881H8.78859C8.85393 13.3881 8.89126 13.3788 8.90059 13.3601C8.90993 13.3321 8.90526 13.2854 8.88659 13.2201C8.79326 12.8468 8.68593 12.4501 8.56459 12.0301C8.45259 11.6008 8.34993 11.2274 8.25659 10.9101C8.23793 10.8261 8.20993 10.7841 8.17259 10.7841H8.11659C8.08859 10.7841 8.06059 10.8261 8.03259 10.9101C7.97659 11.1154 7.91126 11.3488 7.83659 11.6101C7.76193 11.8714 7.68726 12.1421 7.61259 12.4221C7.54726 12.6928 7.48193 12.9588 7.41659 13.2201C7.40726 13.2854 7.40726 13.3321 7.41659 13.3601C7.42593 13.3788 7.46326 13.3881 7.52859 13.3881ZM12.4122 13.6121C12.4122 12.9774 12.5009 12.4128 12.6782 11.9181C12.8555 11.4141 13.1682 11.0221 13.6162 10.7421C14.0735 10.4528 14.7129 10.3081 15.5342 10.3081C15.9075 10.3081 16.2715 10.3408 16.6262 10.4061C16.9902 10.4621 17.3122 10.5414 17.5922 10.6441C17.8535 10.7374 18.0075 10.8401 18.0542 10.9521C18.1009 11.0548 18.1382 11.2321 18.1662 11.4841C18.2595 12.2774 18.3062 13.1034 18.3062 13.9621C18.3062 14.8208 18.2549 15.6374 18.1522 16.4121C18.0495 17.2241 17.7369 17.8214 17.2142 18.2041C16.7009 18.5868 16.0009 18.7781 15.1142 18.7781C14.7595 18.7781 14.3675 18.7268 13.9382 18.6241C13.5182 18.5214 13.1169 18.3301 12.7342 18.0501C12.6969 18.0221 12.6595 17.9708 12.6222 17.8961C12.5942 17.8214 12.6035 17.7468 12.6502 17.6721C12.6969 17.5974 12.7715 17.4714 12.8742 17.2941C12.9769 17.1168 13.0515 16.9908 13.0982 16.9161C13.1729 16.7854 13.2289 16.7154 13.2662 16.7061C13.3129 16.6968 13.3922 16.7294 13.5042 16.8041C13.5882 16.8694 13.7189 16.9394 13.8962 17.0141C14.0829 17.0888 14.2742 17.1541 14.4702 17.2101C14.6662 17.2661 14.8155 17.2941 14.9182 17.2941C15.0302 17.2941 15.1655 17.2801 15.3242 17.2521C15.4829 17.2241 15.6275 17.1634 15.7582 17.0701C15.8982 16.9768 15.9822 16.8274 16.0102 16.6221C16.0102 16.6128 16.0102 16.6034 16.0102 16.5941C16.0195 16.5848 16.0242 16.5754 16.0242 16.5661C16.0335 16.5008 16.0242 16.4448 15.9962 16.3981C15.9775 16.3421 15.9215 16.3234 15.8282 16.3421C15.7815 16.3514 15.7022 16.3608 15.5902 16.3701C15.4875 16.3701 15.3849 16.3701 15.2822 16.3701C14.8062 16.3701 14.3489 16.2768 13.9102 16.0901C13.4715 15.8941 13.1122 15.5908 12.8322 15.1801C12.5522 14.7694 12.4122 14.2468 12.4122 13.6121ZM14.5542 13.2621C14.5542 13.5701 14.5775 13.8501 14.6242 14.1021C14.6802 14.3448 14.7689 14.5361 14.8902 14.6761C15.0209 14.8161 15.2029 14.8861 15.4362 14.8861C15.5389 14.8861 15.6369 14.8814 15.7302 14.8721C15.8329 14.8628 15.9215 14.8394 15.9962 14.8021C16.0895 14.7648 16.1409 14.6761 16.1502 14.5361C16.1595 14.3774 16.1642 14.1768 16.1642 13.9341C16.1642 13.6914 16.1595 13.4441 16.1502 13.1921C16.1502 12.9308 16.1455 12.6974 16.1362 12.4921C16.1362 12.2868 16.1315 12.1374 16.1222 12.0441C16.1222 11.9974 16.1129 11.9414 16.0942 11.8761C16.0755 11.8014 16.0475 11.7594 16.0102 11.7501C15.9355 11.7128 15.8562 11.6848 15.7722 11.6661C15.6975 11.6474 15.5855 11.6381 15.4362 11.6381C15.2122 11.6381 15.0349 11.7081 14.9042 11.8481C14.7829 11.9881 14.6942 12.1794 14.6382 12.4221C14.5915 12.6648 14.5635 12.9448 14.5542 13.2621Z" fill="#131313"/>
</svg>
