<svg width="24" height="24" viewBox="0 0 24 24" fill="none" xmlns="http://www.w3.org/2000/svg">
<path d="M4.11068 17.0001C4.06401 17.0001 4.04068 16.9861 4.04068 16.9581C4.03135 16.9208 4.04535 16.8554 4.08268 16.7621C4.23201 16.3234 4.43735 15.7961 4.69868 15.1801C4.96001 14.5641 5.25401 13.9061 5.58068 13.2061C5.90735 12.5061 6.24801 11.8108 6.60268 11.1201C6.95735 10.4294 7.29801 9.79012 7.62468 9.20212C7.96068 8.60479 8.27335 8.11012 8.56268 7.71812C8.60001 7.67145 8.63268 7.63879 8.66068 7.62012C8.69801 7.59212 8.73535 7.57812 8.77268 7.57812H9.93468C9.97201 7.58745 10.0047 7.60145 10.0327 7.62012C10.0607 7.63879 10.084 7.67612 10.1027 7.73212C10.2053 8.10545 10.2987 8.59079 10.3827 9.18812C10.4667 9.78545 10.5367 10.4341 10.5927 11.1341C10.6487 11.8341 10.6907 12.5388 10.7187 13.2481C10.756 13.9574 10.7747 14.6201 10.7747 15.2361C10.7747 15.8428 10.7607 16.3514 10.7327 16.7621C10.7233 16.8554 10.7093 16.9208 10.6907 16.9581C10.6813 16.9861 10.6487 17.0001 10.5927 17.0001H9.79468C9.75735 17.0001 9.73401 16.9908 9.72468 16.9721C9.71535 16.9441 9.70601 16.8881 9.69668 16.8041C9.71535 16.5521 9.72468 16.2581 9.72468 15.9221C9.73401 15.5768 9.73868 15.2268 9.73868 14.8721C9.74801 14.8161 9.73868 14.7788 9.71068 14.7601C9.69201 14.7414 9.65468 14.7321 9.59868 14.7321H6.05668C6.00068 14.7414 5.95868 14.7554 5.93068 14.7741C5.91201 14.7834 5.88868 14.8208 5.86068 14.8861C5.72068 15.2314 5.57601 15.5768 5.42668 15.9221C5.28668 16.2581 5.17001 16.5568 5.07668 16.8181C5.04868 16.8928 5.02535 16.9441 5.00668 16.9721C4.98801 16.9908 4.95535 17.0001 4.90868 17.0001H4.11068ZM6.44868 13.9201H9.55668C9.59401 13.9201 9.62201 13.9061 9.64068 13.8781C9.66868 13.8501 9.68735 13.7941 9.69668 13.7101C9.65935 12.9168 9.61735 12.1188 9.57068 11.3161C9.53335 10.5134 9.44468 9.74813 9.30468 9.02013C9.29535 8.96413 9.26268 8.93612 9.20668 8.93612H8.94068C8.88468 8.93612 8.83801 8.9688 8.80068 9.03413C8.57668 9.39813 8.32001 9.84613 8.03068 10.3781C7.75068 10.9008 7.46601 11.4561 7.17668 12.0441C6.89668 12.6321 6.63068 13.2061 6.37868 13.7661C6.36001 13.8034 6.35068 13.8408 6.35068 13.8781C6.36001 13.9061 6.39268 13.9201 6.44868 13.9201ZM12.6004 13.6121C12.7404 12.9868 12.9457 12.4268 13.2164 11.9321C13.487 11.4281 13.8604 11.0314 14.3364 10.7421C14.8217 10.4528 15.4424 10.3081 16.1984 10.3081C16.553 10.3081 16.903 10.3361 17.2484 10.3921C17.5937 10.4481 17.8877 10.5321 18.1304 10.6441C18.261 10.6908 18.3404 10.7608 18.3684 10.8541C18.3964 10.9474 18.401 11.0921 18.3824 11.2881C18.3077 11.9601 18.1817 12.7628 18.0044 13.6961C17.8364 14.6201 17.5797 15.5861 17.2344 16.5941C16.9637 17.3968 16.553 17.9801 16.0024 18.3441C15.461 18.7174 14.775 18.9041 13.9444 18.9041C13.6177 18.9041 13.2724 18.8574 12.9084 18.7641C12.5537 18.6708 12.241 18.5121 11.9704 18.2881C11.933 18.2414 11.9144 18.1994 11.9144 18.1621C11.905 18.1341 11.9144 18.1014 11.9424 18.0641C11.961 18.0268 11.989 17.9801 12.0264 17.9241C12.073 17.8774 12.115 17.8261 12.1524 17.7701C12.1897 17.7234 12.2224 17.6861 12.2504 17.6581C12.297 17.6021 12.3344 17.5694 12.3624 17.5601C12.3997 17.5601 12.437 17.5788 12.4744 17.6161C12.605 17.7001 12.7544 17.7794 12.9224 17.8541C13.0997 17.9381 13.291 18.0034 13.4964 18.0501C13.7017 18.1061 13.9024 18.1341 14.0984 18.1341C14.369 18.1341 14.635 18.0874 14.8964 17.9941C15.167 17.9008 15.4144 17.7514 15.6384 17.5461C15.8624 17.3408 16.0444 17.0608 16.1844 16.7061C16.1844 16.6874 16.1844 16.6734 16.1844 16.6641C16.1937 16.6454 16.203 16.6268 16.2124 16.6081C16.231 16.5428 16.217 16.5054 16.1704 16.4961C16.133 16.4868 16.077 16.4914 16.0024 16.5101C15.8157 16.5568 15.601 16.6034 15.3584 16.6501C15.1157 16.6874 14.8824 16.7061 14.6584 16.7061C14.0704 16.7061 13.599 16.5848 13.2444 16.3421C12.8897 16.0901 12.6564 15.7354 12.5444 15.2781C12.4417 14.8114 12.4604 14.2561 12.6004 13.6121ZM13.6504 13.5001C13.557 13.9668 13.5244 14.3821 13.5524 14.7461C13.5804 15.1101 13.7064 15.3948 13.9304 15.6001C14.1544 15.8054 14.495 15.9081 14.9524 15.9081C15.1577 15.9081 15.363 15.8941 15.5684 15.8661C15.783 15.8381 15.979 15.7914 16.1564 15.7261C16.2684 15.6888 16.3617 15.6374 16.4364 15.5721C16.5204 15.5068 16.5717 15.4368 16.5904 15.3621C16.6744 15.1008 16.7537 14.8021 16.8284 14.4661C16.903 14.1208 16.973 13.7708 17.0384 13.4161C17.1037 13.0521 17.1597 12.7161 17.2064 12.4081C17.2624 12.1001 17.2997 11.8434 17.3184 11.6381C17.337 11.5728 17.3417 11.4981 17.3324 11.4141C17.323 11.3301 17.2717 11.2648 17.1784 11.2181C17.0757 11.1621 16.917 11.1201 16.7024 11.0921C16.4877 11.0548 16.2637 11.0361 16.0304 11.0361C15.3397 11.0361 14.8077 11.2648 14.4344 11.7221C14.0704 12.1701 13.809 12.7628 13.6504 13.5001Z" fill="#131313"/>
</svg>
