<svg width="24" height="24" viewBox="0 0 24 24" fill="none" xmlns="http://www.w3.org/2000/svg">
<path d="M11.4483 16.2798C11.1916 16.2798 10.963 16.2331 10.7623 16.1398C10.5663 16.0465 10.3913 15.8901 10.2373 15.6708C10.1953 15.5728 10.151 15.4655 10.1043 15.3488C10.0623 15.2275 10.0203 15.1038 9.9783 14.9778C9.9363 14.8518 9.88964 14.7281 9.83831 14.6068C9.78697 14.4808 9.72631 14.3641 9.65631 14.2568C9.57697 14.1168 9.48597 14.0095 9.3833 13.9348C9.2853 13.8601 9.15463 13.8088 8.99129 13.7808C8.92129 13.7621 8.81863 13.7481 8.6833 13.7388C8.54796 13.7248 8.39863 13.7131 8.2353 13.7038C8.07663 13.6945 7.92264 13.6898 7.77331 13.6898C7.55397 13.6898 7.32763 13.6968 7.09431 13.7108C6.86563 13.7248 6.6673 13.7411 6.4993 13.7598C6.34064 13.7831 6.21697 13.8228 6.12831 13.8788C6.03964 13.9348 5.96264 14.0211 5.89729 14.1378C5.83664 14.2451 5.77597 14.3735 5.7153 14.5228C5.65464 14.6721 5.59164 14.8261 5.5263 14.9848C5.46097 15.1435 5.39564 15.2998 5.3303 15.4538C5.2043 15.6685 5.04797 15.8388 4.8613 15.9648C4.67464 16.0908 4.4063 16.1538 4.0563 16.1538C3.77164 16.1538 3.5313 16.1095 3.3353 16.0208C3.14397 15.9368 3.00164 15.7968 2.9083 15.6008C2.81497 15.4001 2.7683 15.1318 2.7683 14.7958C2.7683 14.5531 2.79864 14.2825 2.8593 13.9838C2.91997 13.6805 3.00164 13.3631 3.1043 13.0318C3.21164 12.7005 3.33064 12.3738 3.4613 12.0518C3.59197 11.7251 3.72497 11.4125 3.8603 11.1138C3.99564 10.8151 4.12397 10.5491 4.2453 10.3158C4.3713 10.0778 4.47864 9.88645 4.5673 9.74178C4.72597 9.48045 4.9103 9.22378 5.1203 8.97178C5.3303 8.71511 5.5683 8.48178 5.8343 8.27178C6.10497 8.06178 6.40597 7.89378 6.7373 7.76778C7.06863 7.63711 7.43264 7.57178 7.8293 7.57178C8.43597 7.57178 8.9983 7.73045 9.5163 8.04778C10.0343 8.36045 10.5033 8.78978 10.9233 9.33578C11.0866 9.53645 11.2476 9.78378 11.4063 10.0778C11.565 10.3718 11.7143 10.6961 11.8543 11.0508C11.999 11.4008 12.132 11.7625 12.2533 12.1358C12.3746 12.5091 12.4796 12.8778 12.5683 13.2418C12.657 13.6058 12.7246 13.9488 12.7713 14.2708C12.8226 14.5928 12.8483 14.8751 12.8483 15.1178C12.8483 15.5471 12.72 15.8481 12.4633 16.0208C12.2113 16.1935 11.873 16.2798 11.4483 16.2798ZM9.1243 12.0938C9.21764 12.0611 9.28064 12.0121 9.3133 11.9468C9.34597 11.8768 9.3623 11.7718 9.3623 11.6318C9.3623 11.5151 9.34364 11.3751 9.3063 11.2118C9.26897 11.0438 9.21764 10.8711 9.1523 10.6938C9.08697 10.5118 9.0123 10.3461 8.9283 10.1968C8.81164 9.97278 8.67164 9.78845 8.5083 9.64378C8.34496 9.49911 8.1723 9.42678 7.9903 9.42678C7.76164 9.42678 7.54931 9.51778 7.35331 9.69978C7.1573 9.87711 6.9893 10.0918 6.8493 10.3438C6.79329 10.4371 6.73497 10.5468 6.67431 10.6728C6.6183 10.7988 6.56464 10.9271 6.51331 11.0578C6.46664 11.1885 6.42697 11.3145 6.3943 11.4358C6.36164 11.5525 6.3453 11.6551 6.3453 11.7438C6.3453 11.8931 6.4083 12.0005 6.5343 12.0658C6.66497 12.1265 6.83997 12.1568 7.0593 12.1568C7.4093 12.1568 7.71496 12.1545 7.97631 12.1498C8.23764 12.1451 8.46164 12.1381 8.6483 12.1288C8.83963 12.1195 8.99831 12.1078 9.1243 12.0938ZM17.0181 19.1638C16.3555 19.1638 15.8071 19.1195 15.3731 19.0308C14.9438 18.9421 14.6055 18.8278 14.3581 18.6878C14.1108 18.5525 13.9358 18.3985 13.8331 18.2258C13.7351 18.0578 13.6861 17.8945 13.6861 17.7358C13.6861 17.5631 13.7421 17.4185 13.8541 17.3018C13.9708 17.1898 14.1271 17.1035 14.3231 17.0428C14.5238 16.9821 14.7431 16.9518 14.9811 16.9518C15.1445 16.9518 15.3265 16.9681 15.5271 17.0008C15.7278 17.0335 15.9378 17.0661 16.1571 17.0988C16.3811 17.1361 16.6145 17.1641 16.8571 17.1828C17.1045 17.2061 17.3565 17.2085 17.6131 17.1898C17.8558 17.1805 18.0611 17.1291 18.2291 17.0358C18.4018 16.9471 18.5418 16.8328 18.6491 16.6928C18.7565 16.5528 18.8335 16.3988 18.8801 16.2308C18.9315 16.0628 18.9571 15.8971 18.9571 15.7338C18.9571 15.6965 18.9525 15.6638 18.9431 15.6358C18.9338 15.6031 18.9221 15.5775 18.9081 15.5588C18.8941 15.5401 18.8708 15.5308 18.8381 15.5308C18.7868 15.5308 18.7098 15.5611 18.6071 15.6218C18.5045 15.6825 18.3715 15.7525 18.2081 15.8318C18.0495 15.9065 17.8581 15.9741 17.6341 16.0348C17.4101 16.0955 17.1511 16.1258 16.8571 16.1258C16.1198 16.1258 15.4991 16.0068 14.9951 15.7688C14.4958 15.5308 14.1178 15.1808 13.8611 14.7188C13.6045 14.2521 13.4761 13.6781 13.4761 12.9968C13.4761 12.4135 13.5975 11.9071 13.8401 11.4778C14.0828 11.0438 14.4095 10.6868 14.8201 10.4068C15.2355 10.1221 15.7021 9.90978 16.2201 9.76978C16.7428 9.62978 17.2841 9.55978 17.8441 9.55978C18.4508 9.55978 19.0015 9.65078 19.4961 9.83278C19.9908 10.0148 20.4178 10.2808 20.7771 10.6308C21.1365 10.9808 21.4118 11.4101 21.6031 11.9188C21.7991 12.4275 21.8971 13.0108 21.8971 13.6688C21.8971 14.5741 21.7945 15.3698 21.5891 16.0558C21.3885 16.7465 21.0851 17.3205 20.6791 17.7778C20.2731 18.2398 19.7645 18.5851 19.1531 18.8138C18.5418 19.0471 17.8301 19.1638 17.0181 19.1638ZM17.5921 14.4598C17.8488 14.4598 18.0845 14.4225 18.2991 14.3478C18.5185 14.2731 18.7075 14.1658 18.8661 14.0258C19.0248 13.8858 19.1485 13.7201 19.2371 13.5288C19.3305 13.3328 19.3771 13.1181 19.3771 12.8848C19.3771 12.5908 19.3141 12.3341 19.1881 12.1148C19.0668 11.8955 18.8895 11.7228 18.6561 11.5968C18.4228 11.4708 18.1381 11.4078 17.8021 11.4078C17.5921 11.4078 17.3798 11.4381 17.1651 11.4988C16.9505 11.5548 16.7521 11.6458 16.5701 11.7718C16.3881 11.8931 16.2435 12.0565 16.1361 12.2618C16.0288 12.4671 15.9751 12.7168 15.9751 13.0108C15.9751 13.2908 16.0381 13.5405 16.1641 13.7598C16.2948 13.9791 16.4815 14.1518 16.7241 14.2778C16.9668 14.3991 17.2561 14.4598 17.5921 14.4598Z" fill="#131313"/>
</svg>
