<svg width="24" height="24" viewBox="0 0 24 24" fill="none" xmlns="http://www.w3.org/2000/svg">
<path d="M12.0519 16.2801C11.8979 16.2801 11.7649 16.2311 11.6529 16.1331C11.5456 16.0398 11.4499 15.9044 11.3659 15.7271C11.3239 15.5871 11.2749 15.4191 11.2189 15.2231C11.1676 15.0271 11.1139 14.8288 11.0579 14.6281C11.0066 14.4228 10.9553 14.2314 10.9039 14.0541C10.8526 13.8721 10.8059 13.7274 10.7639 13.6201C10.7079 13.4661 10.6333 13.3541 10.5399 13.2841C10.4513 13.2141 10.3043 13.1674 10.0989 13.1441C10.0009 13.1348 9.84228 13.1231 9.62295 13.1091C9.40828 13.0904 9.17261 13.0741 8.91595 13.0601C8.66395 13.0461 8.42595 13.0391 8.20195 13.0391C7.86128 13.0391 7.51828 13.0461 7.17295 13.0601C6.82761 13.0741 6.53128 13.0928 6.28395 13.1161C6.06928 13.1301 5.91295 13.1698 5.81495 13.2351C5.72161 13.2958 5.64228 13.4054 5.57695 13.5641C5.52095 13.7088 5.45795 13.8884 5.38795 14.1031C5.32261 14.3178 5.25495 14.5441 5.18495 14.7821C5.11961 15.0154 5.05428 15.2418 4.98895 15.4611C4.90495 15.6944 4.80695 15.8648 4.69495 15.9721C4.58761 16.0794 4.43595 16.1331 4.23995 16.1331C4.10461 16.1331 3.99028 16.1074 3.89695 16.0561C3.80361 16.0094 3.73361 15.9324 3.68695 15.8251C3.64495 15.7131 3.62395 15.5684 3.62395 15.3911C3.62395 15.1951 3.65428 14.9478 3.71495 14.6491C3.77561 14.3458 3.85728 14.0144 3.95995 13.6551C4.06728 13.2958 4.18395 12.9271 4.30995 12.5491C4.44061 12.1711 4.57128 11.8071 4.70195 11.4571C4.83261 11.1071 4.95861 10.7898 5.07995 10.5051C5.20128 10.2204 5.30628 9.99411 5.39495 9.82611C5.55361 9.51811 5.73095 9.22411 5.92695 8.94411C6.12761 8.66411 6.34695 8.41911 6.58495 8.20911C6.82761 7.99444 7.09128 7.82644 7.37595 7.70511C7.66061 7.57911 7.97328 7.51611 8.31395 7.51611C8.87395 7.51611 9.37328 7.70044 9.81195 8.06911C10.2506 8.43778 10.6356 8.91844 10.9669 9.51111C11.0836 9.70244 11.2049 9.95911 11.3309 10.2811C11.4616 10.5984 11.5923 10.9531 11.7229 11.3451C11.8536 11.7324 11.9749 12.1338 12.0869 12.5491C12.2036 12.9644 12.3086 13.3704 12.4019 13.7671C12.4953 14.1638 12.5676 14.5278 12.6189 14.8591C12.6703 15.1904 12.6959 15.4634 12.6959 15.6781C12.6959 15.8974 12.6376 16.0514 12.5209 16.1401C12.4089 16.2334 12.2526 16.2801 12.0519 16.2801ZM10.1759 12.1711C10.2786 12.1571 10.3463 12.1221 10.3789 12.0661C10.4163 12.0101 10.4349 11.9168 10.4349 11.7861C10.4349 11.6274 10.4069 11.4314 10.3509 11.1981C10.2996 10.9601 10.2249 10.7104 10.1269 10.4491C10.0336 10.1831 9.92395 9.93344 9.79795 9.70011C9.61595 9.35478 9.40361 9.06778 9.16095 8.83911C8.92295 8.61044 8.66395 8.49611 8.38395 8.49611C8.09461 8.49611 7.81461 8.61044 7.54395 8.83911C7.27795 9.06311 7.03761 9.35711 6.82295 9.72111C6.73428 9.87044 6.64095 10.0408 6.54295 10.2321C6.44961 10.4234 6.36328 10.6194 6.28395 10.8201C6.20461 11.0161 6.13695 11.2028 6.08095 11.3801C6.02961 11.5528 6.00395 11.6998 6.00395 11.8211C6.00395 11.9518 6.05528 12.0428 6.15795 12.0941C6.26528 12.1408 6.45195 12.1641 6.71795 12.1641C7.32461 12.1641 7.84961 12.1664 8.29295 12.1711C8.73628 12.1758 9.10961 12.1804 9.41295 12.1851C9.72095 12.1851 9.97528 12.1804 10.1759 12.1711ZM16.8664 19.0591C16.3297 19.0591 15.8584 19.0171 15.4524 18.9331C15.0464 18.8491 14.7081 18.7418 14.4374 18.6111C14.1667 18.4804 13.9614 18.3428 13.8214 18.1981C13.6861 18.0534 13.6184 17.9204 13.6184 17.7991C13.6184 17.7058 13.6464 17.6264 13.7024 17.5611C13.7631 17.4958 13.8401 17.4444 13.9334 17.4071C14.0314 17.3744 14.1411 17.3581 14.2624 17.3581C14.3791 17.3581 14.5191 17.3931 14.6824 17.4631C14.8457 17.5331 15.0394 17.6124 15.2634 17.7011C15.4921 17.7898 15.7604 17.8668 16.0684 17.9321C16.3764 17.9974 16.7311 18.0278 17.1324 18.0231C17.5757 18.0184 17.9514 17.9368 18.2594 17.7781C18.5674 17.6194 18.8171 17.4094 19.0084 17.1481C19.1997 16.8868 19.3374 16.6021 19.4214 16.2941C19.5101 15.9908 19.5544 15.6851 19.5544 15.3771C19.5544 15.3258 19.5497 15.2838 19.5404 15.2511C19.5357 15.2138 19.5264 15.1858 19.5124 15.1671C19.4984 15.1438 19.4797 15.1321 19.4564 15.1321C19.4051 15.1321 19.3187 15.1881 19.1974 15.3001C19.0761 15.4121 18.9104 15.5404 18.7004 15.6851C18.4904 15.8298 18.2267 15.9581 17.9094 16.0701C17.5921 16.1821 17.2117 16.2381 16.7684 16.2381C16.0311 16.2381 15.4151 16.1121 14.9204 15.8601C14.4257 15.6081 14.0501 15.2511 13.7934 14.7891C13.5414 14.3271 13.4154 13.7764 13.4154 13.1371C13.4154 12.5584 13.5227 12.0591 13.7374 11.6391C13.9521 11.2191 14.2461 10.8761 14.6194 10.6101C14.9974 10.3394 15.4291 10.1411 15.9144 10.0151C16.3997 9.88444 16.9107 9.81911 17.4474 9.81911C18.0261 9.81911 18.5394 9.91011 18.9874 10.0921C19.4401 10.2694 19.8204 10.5284 20.1284 10.8691C20.4364 11.2098 20.6697 11.6228 20.8284 12.1081C20.9871 12.5934 21.0664 13.1418 21.0664 13.7531C21.0664 14.6958 20.9754 15.5031 20.7934 16.1751C20.6161 16.8518 20.3501 17.4024 19.9954 17.8271C19.6407 18.2518 19.2021 18.5621 18.6794 18.7581C18.1567 18.9588 17.5524 19.0591 16.8664 19.0591ZM17.0624 15.2931C17.4124 15.2931 17.7461 15.2371 18.0634 15.1251C18.3807 15.0084 18.6607 14.8474 18.9034 14.6421C19.1461 14.4368 19.3374 14.1918 19.4774 13.9071C19.6174 13.6224 19.6874 13.3121 19.6874 12.9761C19.6874 12.5748 19.5987 12.2131 19.4214 11.8911C19.2441 11.5691 18.9851 11.3148 18.6444 11.1281C18.3037 10.9414 17.8884 10.8481 17.3984 10.8481C17.1137 10.8481 16.8151 10.8831 16.5024 10.9531C16.1944 11.0184 15.9051 11.1374 15.6344 11.3101C15.3684 11.4781 15.1514 11.7114 14.9834 12.0101C14.8154 12.3088 14.7314 12.6891 14.7314 13.1511C14.7314 13.5851 14.8271 13.9631 15.0184 14.2851C15.2097 14.6071 15.4781 14.8568 15.8234 15.0341C16.1734 15.2068 16.5864 15.2931 17.0624 15.2931Z" fill="#131313"/>
</svg>
