<svg width="24" height="24" viewBox="0 0 24 24" fill="none" xmlns="http://www.w3.org/2000/svg">
<path d="M8.20337 6.97607H10.0094L12.0114 17.0001H10.3314L9.86937 14.4381H5.85137L4.47937 17.0001H2.70137L8.20337 6.97607ZM9.60337 12.9821L9.04337 10.0001L8.86137 8.83807H8.79137L8.18937 10.0001L6.60737 12.9821H9.60337ZM15.9947 20.2481C15.4347 20.2481 14.94 20.1501 14.5107 19.9541C14.0907 19.7674 13.75 19.5154 13.4887 19.1981C13.2367 18.8901 13.0734 18.5634 12.9987 18.2181L14.5107 17.6301C14.5947 18.0034 14.7814 18.3021 15.0707 18.5261C15.36 18.7501 15.7287 18.8621 16.1767 18.8621C16.8487 18.8621 17.3947 18.6754 17.8147 18.3021C18.2347 17.9288 18.51 17.3921 18.6407 16.6921L18.7667 15.9921H18.6967C18.4447 16.3561 18.1274 16.6268 17.7447 16.8041C17.3714 16.9814 16.9094 17.0701 16.3587 17.0701C15.8174 17.0701 15.3274 16.9394 14.8887 16.6781C14.45 16.4074 14.1047 16.0294 13.8527 15.5441C13.6007 15.0588 13.4747 14.5081 13.4747 13.8921C13.4747 13.1454 13.638 12.4454 13.9647 11.7921C14.2914 11.1388 14.7534 10.6161 15.3507 10.2241C15.9574 9.83207 16.6574 9.63607 17.4507 9.63607C17.9547 9.63607 18.398 9.73407 18.7807 9.93007C19.1634 10.1261 19.4434 10.3921 19.6207 10.7281H19.7047L19.8587 9.86007H21.3287L20.1107 16.7341C19.9054 17.9194 19.4527 18.8014 18.7527 19.3801C18.0527 19.9588 17.1334 20.2481 15.9947 20.2481ZM16.7787 15.6701C17.2454 15.6701 17.67 15.5488 18.0527 15.3061C18.4354 15.0634 18.734 14.7368 18.9487 14.3261C19.1727 13.9061 19.2847 13.4534 19.2847 12.9681C19.2847 12.3894 19.112 11.9274 18.7667 11.5821C18.4307 11.2274 18.0107 11.0501 17.5067 11.0501C17.0214 11.0501 16.5874 11.1714 16.2047 11.4141C15.8314 11.6474 15.5374 11.9741 15.3227 12.3941C15.1174 12.8048 15.0147 13.2668 15.0147 13.7801C15.0147 14.3774 15.178 14.8441 15.5047 15.1801C15.8407 15.5068 16.2654 15.6701 16.7787 15.6701Z" fill="#131313"/>
</svg>
