<svg width="24" height="24" viewBox="0 0 24 24" fill="none" xmlns="http://www.w3.org/2000/svg">
<path d="M7.90844 6.97607H10.1204L12.1224 17.0001H10.1064L9.67244 14.6061H5.85044L4.59044 17.0001H2.44844L7.90844 6.97607ZM9.35044 12.8701L8.88844 10.3501L8.73444 9.14607H8.62244L8.06244 10.3501L6.74644 12.8701H9.35044ZM16.1952 20.2481C15.3366 20.2481 14.6319 20.0474 14.0812 19.6461C13.5306 19.2541 13.1899 18.7641 13.0592 18.1761L14.8512 17.5041C14.9446 17.8588 15.1219 18.1341 15.3832 18.3301C15.6539 18.5261 15.9899 18.6241 16.3912 18.6241C17.6326 18.6241 18.3792 17.9754 18.6312 16.6781L18.7572 16.0201H18.6312C18.3979 16.3561 18.1086 16.6034 17.7632 16.7621C17.4179 16.9208 16.9886 17.0001 16.4752 17.0001C15.9246 17.0001 15.4299 16.8648 14.9912 16.5941C14.5526 16.3234 14.2072 15.9501 13.9552 15.4741C13.7032 14.9981 13.5772 14.4614 13.5772 13.8641C13.5772 13.1081 13.7359 12.4081 14.0532 11.7641C14.3706 11.1201 14.8279 10.6068 15.4252 10.2241C16.0226 9.83207 16.7132 9.63607 17.4972 9.63607C17.9732 9.63607 18.3932 9.72007 18.7572 9.88807C19.1306 10.0561 19.4059 10.2988 19.5832 10.6161H19.6952L19.8352 9.86007H21.5852L20.3812 16.6641C20.1759 17.8588 19.7326 18.7548 19.0512 19.3521C18.3699 19.9494 17.4179 20.2481 16.1952 20.2481ZM17.0212 15.3341C17.4319 15.3341 17.8052 15.2361 18.1412 15.0401C18.4866 14.8348 18.7572 14.5548 18.9532 14.2001C19.1586 13.8454 19.2612 13.4534 19.2612 13.0241C19.2612 12.5014 19.1026 12.0861 18.7852 11.7781C18.4679 11.4608 18.0806 11.3021 17.6232 11.3021C17.2126 11.3021 16.8392 11.4048 16.5032 11.6101C16.1672 11.8061 15.9012 12.0861 15.7052 12.4501C15.5092 12.8141 15.4112 13.2248 15.4112 13.6821C15.4112 14.2048 15.5652 14.6108 15.8732 14.9001C16.1812 15.1894 16.5639 15.3341 17.0212 15.3341Z" fill="#131313"/>
</svg>
