<svg width="24" height="24" viewBox="0 0 24 24" fill="none" xmlns="http://www.w3.org/2000/svg">
<path d="M12.4656 14.7314C12.4656 14.9919 12.3273 15.1221 12.0506 15.1221C11.7218 15.1221 11.2303 15.1009 10.576 15.0586C9.92168 15.0195 9.43014 15 9.10137 15C8.75306 15 8.22897 15.013 7.5291 15.0391C6.82923 15.0684 6.30514 15.083 5.95684 15.083C5.61504 15.083 5.44414 15.0016 5.44414 14.8389C5.44414 14.7021 5.55156 14.6077 5.76641 14.5557C5.96497 14.5166 6.16354 14.4775 6.36211 14.4385C6.57695 14.3766 6.686 14.2611 6.68926 14.0918C6.69251 13.7663 6.49232 13.5563 6.08867 13.4619C5.89987 13.4163 5.54668 13.3952 5.0291 13.3984L4.04277 13.4082C3.73353 13.4115 3.57891 13.6035 3.57891 13.9844C3.57891 14.0755 3.59193 14.2139 3.61797 14.3994C3.64727 14.585 3.66191 14.7233 3.66191 14.8145C3.66191 14.9707 3.52845 15.0488 3.26152 15.0488C3.10202 15.0488 2.7472 14.8893 2.19707 14.5703C1.63066 14.2415 1.34746 14.0153 1.34746 13.8916C1.34746 13.68 1.44186 13.5742 1.63066 13.5742C1.75436 13.5742 1.87318 13.6068 1.98711 13.6719C2.0457 13.7044 2.13034 13.7679 2.24102 13.8623C2.32565 13.9307 2.38424 13.9648 2.4168 13.9648C2.63164 13.9648 2.83021 13.737 3.0125 13.2812C3.37057 12.3958 3.95326 11.3298 4.76055 10.083C4.97865 9.74772 5.37741 9.23828 5.95684 8.55469C6.64043 7.75065 7.06361 7.34863 7.22637 7.34863C7.43145 7.34863 7.82858 7.75391 8.41777 8.56445C8.89954 9.22526 9.24297 9.75098 9.44805 10.1416C9.72474 10.6755 10.0421 11.4095 10.4002 12.3438C10.5076 12.6986 10.6167 13.055 10.7273 13.4131C10.8901 13.9209 11.0447 14.2269 11.1912 14.3311C11.2368 14.3636 11.4793 14.4027 11.9187 14.4482C12.2833 14.4873 12.4656 14.5817 12.4656 14.7314ZM5.86895 12.0801C5.45228 11.4583 5.17884 11.1475 5.04863 11.1475C4.92493 11.1475 4.73451 11.3639 4.47734 11.7969C4.22669 12.2168 4.10137 12.5 4.10137 12.6465C4.10137 12.7441 4.29831 12.7979 4.69219 12.8076C4.92982 12.8011 5.16908 12.7962 5.40996 12.793C5.49134 12.7995 5.57109 12.806 5.64922 12.8125C5.80221 12.8223 5.92266 12.8223 6.01055 12.8125C6.13099 12.7962 6.18958 12.762 6.18633 12.71C6.17656 12.5895 6.07077 12.3796 5.86895 12.0801ZM22.677 10.708C22.677 10.8187 22.6265 10.9049 22.5256 10.9668C22.3726 11.0645 22.2766 11.1361 22.2375 11.1816C22.1366 11.3118 22.0861 11.5137 22.0861 11.7871C22.0861 12.0898 22.1431 12.5374 22.257 13.1299C22.371 13.7223 22.4279 14.1699 22.4279 14.4727C22.4279 14.8112 22.3205 14.9805 22.1057 14.9805C21.9755 14.9805 21.8794 14.93 21.8176 14.8291C21.7883 14.7803 21.7557 14.6745 21.7199 14.5117C21.6776 14.3359 21.5376 14.2529 21.3 14.2627C20.9387 14.4157 20.5139 14.5915 20.0256 14.79C19.2476 15.0537 18.5168 15.1855 17.8332 15.1855C16.1926 15.1855 14.9702 14.8991 14.1662 14.3262C13.2385 13.6654 12.7746 12.5732 12.7746 11.0498C12.7746 9.92676 13.258 9.03158 14.2248 8.36426C15.0777 7.77832 16.0835 7.48535 17.2424 7.48535C18.4468 7.48535 19.4852 7.66764 20.3576 8.03223C20.426 7.89876 20.4943 7.7653 20.5627 7.63184C20.6604 7.49186 20.7906 7.42188 20.9533 7.42188C21.1844 7.42188 21.3 7.51628 21.3 7.70508C21.3 7.8125 21.1454 8.26497 20.8361 9.0625C20.5269 9.85677 20.3723 10.3532 20.3723 10.5518C20.3723 10.6722 20.4292 10.7324 20.5432 10.7324C20.7482 10.7324 21.0428 10.6673 21.427 10.5371C21.8111 10.4036 22.0992 10.3369 22.2912 10.3369C22.5484 10.3369 22.677 10.4606 22.677 10.708ZM19.6936 10.6104C19.6936 10.1709 19.5389 9.68262 19.2297 9.14551C18.8846 8.54329 18.5103 8.24219 18.1066 8.24219C17.8755 8.24219 17.677 8.57747 17.5109 9.24805C17.384 9.77539 17.3205 10.2165 17.3205 10.5713C17.3205 10.6429 17.3286 10.7585 17.3449 10.918C17.3612 11.0742 17.3693 11.1865 17.3693 11.2549C17.3824 11.2581 17.4035 11.2663 17.4328 11.2793C17.4621 11.2923 17.4865 11.2988 17.5061 11.2988C17.7827 11.2988 18.1896 11.2337 18.7268 11.1035C19.3713 10.944 19.6936 10.7796 19.6936 10.6104ZM18.8879 13.5596C18.8879 13.4033 18.8146 13.1022 18.6682 12.6562C18.5152 12.1842 18.3898 11.9157 18.2922 11.8506C18.1978 11.7822 18.0432 11.748 17.8283 11.748C17.5354 11.748 17.3889 11.748 17.3889 11.748C17.3661 11.8359 17.3547 11.8978 17.3547 11.9336C17.3547 12.3535 17.4328 12.8223 17.5891 13.3398C17.7909 14.0104 18.0464 14.3457 18.3557 14.3457C18.7105 14.3457 18.8879 14.0837 18.8879 13.5596Z" fill="#131313"/>
</svg>
