<svg width="24" height="24" viewBox="0 0 24 24" fill="none" xmlns="http://www.w3.org/2000/svg">
<path d="M5.78795 16.1051C5.66661 16.1051 5.49161 16.1004 5.26295 16.0911C5.03428 16.0864 4.78461 16.0794 4.51395 16.0701C4.24795 16.0608 3.98895 16.0514 3.73695 16.0421C3.48961 16.0374 3.28195 16.0304 3.11395 16.0211C3.16528 15.7178 3.23761 15.3398 3.33095 14.8871C3.42428 14.4344 3.53161 13.9374 3.65295 13.3961C3.77428 12.8501 3.90261 12.2831 4.03795 11.6951C4.17795 11.1071 4.31795 10.5238 4.45795 9.94511C4.60261 9.36178 4.74495 8.80644 4.88495 8.27911C5.02495 7.74711 5.15328 7.27344 5.26995 6.85811C5.80195 6.79278 6.30595 6.74144 6.78195 6.70411C7.25795 6.66211 7.71761 6.64111 8.16095 6.64111C8.43161 6.64111 8.69761 6.65044 8.95895 6.66911C9.22028 6.68311 9.48395 6.70644 9.74995 6.73911C9.84328 7.14978 9.93661 7.61411 10.0299 8.13211C10.1233 8.65011 10.2189 9.26611 10.3169 9.98011C10.4149 10.6894 10.5129 11.5318 10.6109 12.5071C10.7136 13.4824 10.8163 14.6328 10.9189 15.9581C10.7463 15.9814 10.4989 16.0048 10.1769 16.0281C9.85495 16.0514 9.51895 16.0701 9.16895 16.0841C8.81895 16.0981 8.50861 16.1051 8.23795 16.1051C8.22861 15.9698 8.21928 15.8251 8.20995 15.6711C8.20528 15.5124 8.20061 15.3468 8.19595 15.1741C8.19128 15.0014 8.18661 14.8264 8.18195 14.6491C8.17728 14.4718 8.17261 14.2968 8.16795 14.1241C8.16328 13.9468 8.16095 13.7788 8.16095 13.6201C8.01161 13.6248 7.85761 13.6318 7.69895 13.6411C7.54028 13.6458 7.38395 13.6528 7.22995 13.6621C7.07595 13.6668 6.93128 13.6761 6.79595 13.6901C6.66528 13.6994 6.54861 13.7111 6.44595 13.7251C6.34328 13.7391 6.26628 13.7508 6.21495 13.7601C6.14961 14.0494 6.08895 14.3411 6.03295 14.6351C5.97695 14.9244 5.92795 15.1974 5.88595 15.4541C5.84395 15.7108 5.81128 15.9278 5.78795 16.1051ZM6.53695 11.5691C6.62095 11.5551 6.76328 11.5388 6.96395 11.5201C7.16928 11.5014 7.38161 11.4874 7.60095 11.4781C7.82028 11.4641 7.98828 11.4571 8.10495 11.4571C8.10028 11.3684 8.09328 11.1958 8.08395 10.9391C8.07461 10.6824 8.06295 10.4001 8.04895 10.0921C8.03495 9.78411 8.02328 9.50644 8.01395 9.25911C8.00461 9.00711 7.99528 8.84378 7.98595 8.76911C7.92061 8.76911 7.82028 8.77378 7.68495 8.78311C7.54961 8.78778 7.41895 8.79478 7.29295 8.80411C7.17161 8.81344 7.08528 8.82044 7.03395 8.82511C7.00595 8.96511 6.96861 9.15644 6.92195 9.39911C6.87528 9.64178 6.82628 9.90078 6.77495 10.1761C6.72828 10.4514 6.68161 10.7128 6.63495 10.9601C6.59295 11.2074 6.56028 11.4104 6.53695 11.5691ZM15.9558 14.1451C14.9664 14.1451 14.1848 14.0121 13.6108 13.7461C13.0368 13.4754 12.6284 13.1301 12.3858 12.7101C12.1431 12.2854 12.0218 11.8421 12.0218 11.3801C12.0218 10.7688 12.1828 10.2601 12.5048 9.85411C12.8314 9.44344 13.2748 9.13311 13.8348 8.92311C14.3994 8.71311 15.0411 8.60811 15.7598 8.60811C16.9171 8.60811 17.7758 8.85544 18.3358 9.35011C18.8958 9.84011 19.1758 10.4864 19.1758 11.2891C19.1758 11.9191 19.0404 12.4464 18.7698 12.8711C18.5038 13.2911 18.1304 13.6084 17.6498 13.8231C17.1691 14.0378 16.6044 14.1451 15.9558 14.1451ZM15.6478 19.4931C14.9104 19.4931 14.2361 19.4231 13.6248 19.2831C13.0181 19.1431 12.5328 18.8958 12.1688 18.5411C11.8094 18.1864 11.6298 17.6848 11.6298 17.0361C11.6298 16.6441 11.7604 16.2824 12.0218 15.9511C12.2878 15.6198 12.6634 15.3444 13.1488 15.1251C13.6388 14.9058 14.2198 14.7751 14.8918 14.7331C15.1811 14.7098 15.4821 14.6934 15.7948 14.6841C16.1121 14.6748 16.5041 14.6701 16.9708 14.6701C17.7128 14.6701 18.3194 14.8404 18.7908 15.1811C19.2621 15.5171 19.4978 16.0584 19.4978 16.8051C19.4978 17.4584 19.3251 17.9811 18.9798 18.3731C18.6391 18.7698 18.1771 19.0544 17.5938 19.2271C17.0151 19.4044 16.3664 19.4931 15.6478 19.4931ZM15.7038 17.9951C15.9884 17.9951 16.2404 17.9624 16.4598 17.8971C16.6791 17.8364 16.8518 17.7454 16.9778 17.6241C17.1038 17.5028 17.1668 17.3464 17.1668 17.1551C17.1668 16.9824 17.1178 16.8448 17.0198 16.7421C16.9218 16.6441 16.7958 16.5741 16.6418 16.5321C16.4878 16.4901 16.3244 16.4691 16.1518 16.4691C16.0444 16.4691 15.9184 16.4691 15.7738 16.4691C15.6291 16.4691 15.4868 16.4691 15.3468 16.4691C15.2068 16.4691 15.0831 16.4691 14.9758 16.4691C14.8124 16.4691 14.6654 16.4878 14.5348 16.5251C14.4088 16.5624 14.3084 16.6301 14.2338 16.7281C14.1638 16.8261 14.1288 16.9684 14.1288 17.1551C14.1288 17.3371 14.1941 17.4888 14.3248 17.6101C14.4554 17.7361 14.6374 17.8318 14.8708 17.8971C15.1088 17.9624 15.3864 17.9951 15.7038 17.9951ZM13.9328 15.5031C13.2701 15.3584 12.8104 15.1741 12.5538 14.9501C12.3018 14.7214 12.1758 14.4671 12.1758 14.1871C12.1758 13.9631 12.2248 13.7718 12.3228 13.6131C12.4208 13.4498 12.5374 13.3191 12.6728 13.2211C12.8081 13.1231 12.9318 13.0578 13.0438 13.0251L14.6188 13.7811C14.4554 13.8371 14.3341 13.9094 14.2548 13.9981C14.1754 14.0868 14.1358 14.1754 14.1358 14.2641C14.1358 14.3808 14.1988 14.4881 14.3248 14.5861C14.4554 14.6841 14.6444 14.7331 14.8918 14.7331L13.9328 15.5031ZM15.7458 12.2831C15.9978 12.2831 16.2101 12.2504 16.3828 12.1851C16.5601 12.1151 16.6954 12.0078 16.7888 11.8631C16.8868 11.7138 16.9358 11.5248 16.9358 11.2961C16.9358 11.1141 16.8821 10.9578 16.7748 10.8271C16.6721 10.6964 16.5368 10.5938 16.3688 10.5191C16.2054 10.4444 16.0281 10.4071 15.8368 10.4071C15.5148 10.4071 15.2161 10.4724 14.9408 10.6031C14.6701 10.7338 14.5348 10.9718 14.5348 11.3171C14.5348 11.6438 14.6514 11.8864 14.8848 12.0451C15.1181 12.2038 15.4051 12.2831 15.7458 12.2831ZM18.6438 10.4561L17.2508 9.28011C17.3068 9.09811 17.4141 8.90211 17.5728 8.69211C17.7314 8.48211 17.9158 8.28844 18.1258 8.11111C18.3404 7.92911 18.5481 7.79378 18.7488 7.70511C18.8234 7.81244 18.9261 7.96178 19.0568 8.15311C19.1874 8.34444 19.3251 8.53811 19.4698 8.73411C19.6144 8.93011 19.7358 9.09111 19.8338 9.21711C19.7171 9.27311 19.5958 9.34311 19.4698 9.42711C19.3484 9.50644 19.2318 9.59978 19.1198 9.70711C19.0078 9.80978 18.9098 9.92411 18.8258 10.0501C18.7418 10.1761 18.6811 10.3114 18.6438 10.4561Z" fill="#131313"/>
</svg>
