<svg width="24" height="24" viewBox="0 0 24 24" fill="none" xmlns="http://www.w3.org/2000/svg">
<path d="M4.67018 16.1048C4.56284 16.1048 4.41818 16.1025 4.23618 16.0978C4.05418 16.0931 3.85818 16.0861 3.64818 16.0768C3.44284 16.0675 3.24684 16.0581 3.06018 16.0488C2.86884 16.0441 2.71018 16.0371 2.58418 16.0278C2.70551 15.7525 2.87118 15.3931 3.08118 14.9498C3.29118 14.5065 3.52918 14.0095 3.79518 13.4588C4.06584 12.9081 4.35051 12.3318 4.64918 11.7298C4.94784 11.1278 5.24651 10.5305 5.54518 9.93778C5.84384 9.34511 6.13084 8.78512 6.40618 8.25779C6.68151 7.72579 6.92884 7.26145 7.14818 6.86478C7.43284 6.82278 7.72451 6.78779 8.02318 6.75979C8.32651 6.72712 8.62751 6.70146 8.92618 6.68279C9.22951 6.66412 9.52584 6.65479 9.81518 6.65479C10.0439 6.65479 10.2702 6.66179 10.4942 6.67579C10.7182 6.68979 10.9352 6.71078 11.1452 6.73878C11.1265 7.14945 11.0892 7.62778 11.0332 8.17378C10.9819 8.71511 10.9049 9.35211 10.8022 10.0848C10.6995 10.8175 10.5642 11.6691 10.3962 12.6398C10.2282 13.6058 10.0229 14.7188 9.78018 15.9788C9.63551 16.0021 9.43718 16.0231 9.18518 16.0418C8.93318 16.0605 8.66951 16.0745 8.39418 16.0838C8.12351 16.0978 7.88084 16.1048 7.66618 16.1048C7.68951 15.9741 7.72218 15.8131 7.76418 15.6218C7.80618 15.4305 7.85051 15.2251 7.89718 15.0058C7.94384 14.7865 7.99284 14.5671 8.04418 14.3478C8.09551 14.1238 8.14451 13.9115 8.19118 13.7108C8.23784 13.5055 8.27984 13.3281 8.31718 13.1788C8.16784 13.1788 7.99984 13.1835 7.81318 13.1928C7.62651 13.2021 7.43284 13.2138 7.23218 13.2278C7.03151 13.2371 6.84251 13.2511 6.66518 13.2698C6.48784 13.2838 6.33151 13.2978 6.19618 13.3118C6.06551 13.3258 5.97218 13.3375 5.91618 13.3468C5.74818 13.6921 5.58251 14.0398 5.41918 14.3898C5.25584 14.7351 5.10884 15.0595 4.97818 15.3628C4.85218 15.6615 4.74951 15.9088 4.67018 16.1048ZM6.63018 11.6458C6.76551 11.6178 6.96151 11.5921 7.21818 11.5688C7.47951 11.5455 7.75018 11.5268 8.03018 11.5128C8.31018 11.4941 8.54351 11.4825 8.73018 11.4778C8.74884 11.3658 8.78851 11.1651 8.84918 10.8758C8.91451 10.5865 8.98218 10.2715 9.05218 9.93078C9.12218 9.58545 9.18518 9.26578 9.24118 8.97179C9.29718 8.67779 9.33218 8.46545 9.34618 8.33478C9.26218 8.33478 9.13618 8.33945 8.96818 8.34878C8.80018 8.35811 8.63684 8.36978 8.47818 8.38378C8.31951 8.39778 8.20751 8.40711 8.14218 8.41178C8.07684 8.54245 7.98584 8.72912 7.86918 8.97179C7.75251 9.21446 7.62184 9.48979 7.47718 9.79779C7.33718 10.1011 7.19251 10.4138 7.04318 10.7358C6.89851 11.0531 6.76084 11.3565 6.63018 11.6458ZM15.3235 14.2638C14.5162 14.2638 13.8862 14.1541 13.4335 13.9348C12.9855 13.7155 12.6705 13.4308 12.4885 13.0808C12.3065 12.7261 12.2155 12.3505 12.2155 11.9538C12.2155 11.2351 12.4045 10.6261 12.7825 10.1268C13.1605 9.62745 13.6645 9.24945 14.2945 8.99278C14.9245 8.73611 15.6129 8.60778 16.3595 8.60778C17.3349 8.60778 18.0512 8.80845 18.5085 9.20978C18.9659 9.60646 19.1945 10.1455 19.1945 10.8268C19.1945 11.5408 19.0242 12.1568 18.6835 12.6748C18.3429 13.1881 17.8809 13.5825 17.2975 13.8578C16.7142 14.1285 16.0562 14.2638 15.3235 14.2638ZM13.6155 19.4928C12.9482 19.4928 12.3602 19.4298 11.8515 19.3038C11.3429 19.1825 10.9485 18.9818 10.6685 18.7018C10.3839 18.4218 10.2415 18.0461 10.2415 17.5748C10.2415 17.1641 10.3465 16.8001 10.5565 16.4828C10.7619 16.1701 11.0395 15.9041 11.3895 15.6848C11.7395 15.4655 12.1292 15.2951 12.5585 15.1738C12.9879 15.0478 13.4242 14.9731 13.8675 14.9498C14.1569 14.9358 14.4532 14.9265 14.7565 14.9218C15.0599 14.9125 15.4169 14.9078 15.8275 14.9078C16.4855 14.9078 17.0012 15.0431 17.3745 15.3138C17.7525 15.5845 17.9415 15.9928 17.9415 16.5388C17.9415 17.0755 17.8272 17.5305 17.5985 17.9038C17.3699 18.2818 17.0549 18.5875 16.6535 18.8208C16.2522 19.0541 15.7902 19.2245 15.2675 19.3318C14.7495 19.4391 14.1989 19.4928 13.6155 19.4928ZM13.8955 18.2818C14.2595 18.2818 14.6049 18.2375 14.9315 18.1488C15.2582 18.0648 15.5242 17.9295 15.7295 17.7428C15.9349 17.5561 16.0375 17.3111 16.0375 17.0078C16.0375 16.8305 15.9862 16.6928 15.8835 16.5948C15.7855 16.4968 15.6572 16.4268 15.4985 16.3848C15.3399 16.3475 15.1719 16.3288 14.9945 16.3288C14.7799 16.3288 14.5442 16.3288 14.2875 16.3288C14.0309 16.3288 13.7929 16.3288 13.5735 16.3288C13.3355 16.3288 13.1092 16.3685 12.8945 16.4478C12.6845 16.5318 12.5142 16.6508 12.3835 16.8048C12.2575 16.9635 12.1945 17.1595 12.1945 17.3928C12.1945 17.5888 12.2669 17.7521 12.4115 17.8828C12.5562 18.0181 12.7569 18.1185 13.0135 18.1838C13.2702 18.2491 13.5642 18.2818 13.8955 18.2818ZM12.8875 15.6288C12.4069 15.5261 12.0639 15.3768 11.8585 15.1808C11.6579 14.9848 11.5575 14.7748 11.5575 14.5508C11.5575 14.3315 11.6182 14.1285 11.7395 13.9418C11.8609 13.7505 12.0195 13.5871 12.2155 13.4518C12.4115 13.3165 12.6145 13.2231 12.8245 13.1718L13.8885 13.8158C13.6505 13.8811 13.4662 13.9721 13.3355 14.0888C13.2049 14.2055 13.1395 14.3315 13.1395 14.4668C13.1395 14.5928 13.2002 14.7048 13.3215 14.8028C13.4429 14.9008 13.6249 14.9498 13.8675 14.9498L12.8875 15.6288ZM15.4705 12.7798C15.8345 12.7798 16.1635 12.7168 16.4575 12.5908C16.7515 12.4648 16.9825 12.2805 17.1505 12.0378C17.3232 11.7951 17.4095 11.4988 17.4095 11.1488C17.4095 10.8221 17.3022 10.5585 17.0875 10.3578C16.8729 10.1571 16.5812 10.0568 16.2125 10.0568C15.8672 10.0568 15.5405 10.1198 15.2325 10.2458C14.9292 10.3671 14.6819 10.5491 14.4905 10.7918C14.3039 11.0345 14.2105 11.3401 14.2105 11.7088C14.2105 12.0401 14.3225 12.3015 14.5465 12.4928C14.7752 12.6841 15.0832 12.7798 15.4705 12.7798ZM18.7815 10.2948L17.9135 9.37779C18.0255 9.19579 18.1865 9.00211 18.3965 8.79678C18.6065 8.59145 18.8305 8.40011 19.0685 8.22278C19.3112 8.04078 19.5329 7.90311 19.7335 7.80978C19.7709 7.89378 19.8269 8.01278 19.9015 8.16678C19.9762 8.32078 20.0532 8.47711 20.1325 8.63578C20.2165 8.78978 20.2865 8.91578 20.3425 9.01378C20.2352 9.06511 20.1069 9.13745 19.9575 9.23078C19.8129 9.32411 19.6635 9.43146 19.5095 9.55279C19.3602 9.66946 19.2202 9.79311 19.0895 9.92378C18.9589 10.0498 18.8562 10.1735 18.7815 10.2948Z" fill="#131313"/>
</svg>
