<svg width="24" height="24" viewBox="0 0 24 24" fill="none" xmlns="http://www.w3.org/2000/svg">
<path d="M4.54189 16.1051C4.44389 16.1051 4.31556 16.1028 4.15689 16.0981C3.99822 16.0934 3.83022 16.0864 3.65289 16.0771C3.47556 16.0724 3.30756 16.0654 3.14889 16.0561C2.98556 16.0468 2.85256 16.0374 2.74989 16.0281C2.86189 15.7714 3.02289 15.4238 3.23289 14.9851C3.43822 14.5418 3.67389 14.0424 3.93989 13.4871C4.21056 12.9318 4.49522 12.3508 4.79389 11.7441C5.09722 11.1374 5.39822 10.5354 5.69689 9.93811C6.00022 9.34078 6.28722 8.77844 6.55789 8.25111C6.83322 7.71911 7.07589 7.25711 7.28589 6.86511C7.52856 6.82778 7.78989 6.79511 8.06989 6.76711C8.35456 6.73911 8.64389 6.71578 8.93789 6.69711C9.23656 6.67378 9.52822 6.66211 9.81289 6.66211C10.0182 6.66211 10.2236 6.66911 10.4289 6.68311C10.6342 6.69244 10.8326 6.71111 11.0239 6.73911C11.0052 7.14978 10.9656 7.63278 10.9049 8.18811C10.8489 8.74344 10.7649 9.39444 10.6529 10.1411C10.5456 10.8831 10.4079 11.7371 10.2399 12.7031C10.0719 13.6691 9.86889 14.7658 9.63089 15.9931C9.50022 16.0118 9.32756 16.0304 9.11289 16.0491C8.89822 16.0678 8.67422 16.0818 8.44089 16.0911C8.20756 16.1004 7.99989 16.1051 7.81789 16.1051C7.84122 15.9698 7.87389 15.7994 7.91589 15.5941C7.96256 15.3888 8.01156 15.1648 8.06289 14.9221C8.11422 14.6794 8.16556 14.4368 8.21689 14.1941C8.27289 13.9468 8.32422 13.7158 8.37089 13.5011C8.42222 13.2818 8.46656 13.0998 8.50389 12.9551C8.35456 12.9551 8.17722 12.9598 7.97189 12.9691C7.77122 12.9784 7.55889 12.9901 7.33489 13.0041C7.11556 13.0181 6.90556 13.0344 6.70489 13.0531C6.50889 13.0718 6.33622 13.0904 6.18689 13.1091C6.03756 13.1231 5.93489 13.1348 5.87889 13.1441C5.70156 13.5128 5.52422 13.8861 5.34689 14.2641C5.17422 14.6421 5.01789 14.9921 4.87789 15.3141C4.73789 15.6314 4.62589 15.8951 4.54189 16.1051ZM6.50189 11.6811C6.66056 11.6531 6.88222 11.6251 7.16689 11.5971C7.45156 11.5691 7.74789 11.5458 8.05589 11.5271C8.36389 11.5084 8.62756 11.4968 8.84689 11.4921C8.87489 11.3614 8.91922 11.1444 8.97989 10.8411C9.04056 10.5378 9.10589 10.2064 9.17589 9.84711C9.25056 9.48311 9.31589 9.14478 9.37189 8.83211C9.42789 8.51478 9.46289 8.27678 9.47689 8.11811C9.38356 8.11811 9.24356 8.12511 9.05689 8.13911C8.87489 8.14844 8.69522 8.16011 8.51789 8.17411C8.34522 8.18811 8.22389 8.19978 8.15389 8.20911C8.08856 8.33044 7.99756 8.51478 7.88089 8.76211C7.76422 9.00478 7.62889 9.28711 7.47489 9.60911C7.32556 9.92644 7.16689 10.2648 6.99889 10.6241C6.83089 10.9788 6.66522 11.3311 6.50189 11.6811ZM15.1578 14.3201C14.3925 14.3201 13.7928 14.2104 13.3588 13.9911C12.9248 13.7718 12.6192 13.4871 12.4418 13.1371C12.2645 12.7824 12.1758 12.4091 12.1758 12.0171C12.1758 11.3031 12.3625 10.6918 12.7358 10.1831C13.1092 9.67444 13.6038 9.28478 14.2198 9.01411C14.8405 8.74344 15.5195 8.60811 16.2568 8.60811C17.1995 8.60811 17.8948 8.80878 18.3428 9.21011C18.7955 9.60678 19.0218 10.1434 19.0218 10.8201C19.0218 11.5388 18.8515 12.1618 18.5108 12.6891C18.1702 13.2118 17.7082 13.6154 17.1248 13.9001C16.5462 14.1801 15.8905 14.3201 15.1578 14.3201ZM13.4638 19.4931C12.8105 19.4931 12.2342 19.4301 11.7348 19.3041C11.2402 19.1781 10.8528 18.9774 10.5728 18.7021C10.2928 18.4268 10.1528 18.0628 10.1528 17.6101C10.1528 17.2134 10.2532 16.8588 10.4538 16.5461C10.6545 16.2381 10.9228 15.9768 11.2588 15.7621C11.5948 15.5474 11.9705 15.3818 12.3858 15.2651C12.8012 15.1438 13.2235 15.0738 13.6528 15.0551C13.9375 15.0458 14.2385 15.0388 14.5558 15.0341C14.8732 15.0248 15.2232 15.0201 15.6058 15.0201C16.2638 15.0201 16.7818 15.1531 17.1598 15.4191C17.5378 15.6804 17.7268 16.0771 17.7268 16.6091C17.7268 17.1364 17.6125 17.5821 17.3838 17.9461C17.1598 18.3148 16.8518 18.6111 16.4598 18.8351C16.0678 19.0638 15.6152 19.2294 15.1018 19.3321C14.5885 19.4394 14.0425 19.4931 13.4638 19.4931ZM13.7158 18.4221C14.1125 18.4221 14.4905 18.3754 14.8498 18.2821C15.2092 18.1934 15.5008 18.0441 15.7248 17.8341C15.9535 17.6288 16.0678 17.3534 16.0678 17.0081C16.0678 16.8121 16.0118 16.6604 15.8998 16.5531C15.7925 16.4458 15.6525 16.3688 15.4798 16.3221C15.3072 16.2801 15.1252 16.2591 14.9338 16.2591C14.6865 16.2591 14.4275 16.2591 14.1568 16.2591C13.8862 16.2591 13.6295 16.2591 13.3868 16.2591C13.1255 16.2591 12.8758 16.3034 12.6378 16.3921C12.4045 16.4854 12.2132 16.6184 12.0638 16.7911C11.9192 16.9684 11.8468 17.1831 11.8468 17.4351C11.8468 17.6638 11.9262 17.8504 12.0848 17.9951C12.2482 18.1398 12.4698 18.2471 12.7498 18.3171C13.0345 18.3871 13.3565 18.4221 13.7158 18.4221ZM12.7638 15.6851C12.3065 15.5964 11.9775 15.4518 11.7768 15.2511C11.5808 15.0504 11.4828 14.8358 11.4828 14.6071C11.4828 14.3878 11.5435 14.1848 11.6648 13.9981C11.7908 13.8114 11.9542 13.6528 12.1548 13.5221C12.3555 13.3868 12.5632 13.2958 12.7778 13.2491L13.6878 13.8231C13.4358 13.8931 13.2375 13.9911 13.0928 14.1171C12.9482 14.2431 12.8758 14.3784 12.8758 14.5231C12.8758 14.6631 12.9412 14.7868 13.0718 14.8941C13.2025 15.0014 13.3962 15.0551 13.6528 15.0551L12.7638 15.6851ZM15.2698 13.0321C15.6898 13.0321 16.0655 12.9551 16.3968 12.8011C16.7328 12.6471 16.9965 12.4278 17.1878 12.1431C17.3792 11.8538 17.4748 11.5084 17.4748 11.1071C17.4748 10.7431 17.3582 10.4491 17.1248 10.2251C16.8962 9.99644 16.5718 9.88211 16.1518 9.88211C15.7505 9.88211 15.3772 9.95678 15.0318 10.1061C14.6912 10.2554 14.4158 10.4724 14.2058 10.7571C14.0005 11.0418 13.8978 11.3918 13.8978 11.8071C13.8978 12.1758 14.0192 12.4721 14.2618 12.6961C14.5045 12.9201 14.8405 13.0321 15.2698 13.0321ZM18.5738 10.2111L17.8178 9.42011C17.9345 9.23811 18.0955 9.04678 18.3008 8.84611C18.5062 8.64078 18.7232 8.44944 18.9518 8.27211C19.1852 8.09478 19.3952 7.95711 19.5818 7.85911C19.6192 7.93844 19.6728 8.04578 19.7428 8.18111C19.8128 8.31644 19.8852 8.45178 19.9598 8.58711C20.0392 8.72244 20.1022 8.83211 20.1488 8.91611C20.0555 8.96744 19.9342 9.04211 19.7848 9.14011C19.6355 9.23811 19.4815 9.35011 19.3228 9.47611C19.1688 9.59744 19.0242 9.72344 18.8888 9.85411C18.7535 9.98478 18.6485 10.1038 18.5738 10.2111Z" fill="#131313"/>
</svg>
