<svg width="24" height="24" viewBox="0 0 24 24" fill="none" xmlns="http://www.w3.org/2000/svg">
<path d="M5.68065 16.1049C5.56398 16.1049 5.40298 16.1002 5.19765 16.0909C4.99232 16.0862 4.77065 16.0792 4.53265 16.0699C4.29932 16.0652 4.07065 16.0582 3.84665 16.0489C3.62732 16.0396 3.44532 16.0302 3.30065 16.0209C3.35198 15.7316 3.42198 15.3629 3.51065 14.9149C3.60398 14.4669 3.71132 13.9699 3.83265 13.4239C3.95398 12.8779 4.08232 12.3086 4.21765 11.7159C4.35298 11.1186 4.49298 10.5259 4.63765 9.93795C4.78232 9.34995 4.92232 8.79228 5.05765 8.26495C5.19298 7.73762 5.31898 7.26862 5.43565 6.85795C5.90698 6.79728 6.37132 6.74828 6.82865 6.71095C7.29065 6.66895 7.73865 6.64795 8.17265 6.64795C8.41998 6.64795 8.66732 6.65495 8.91465 6.66895C9.16198 6.68295 9.40698 6.70628 9.64965 6.73895C9.73832 7.14962 9.82932 7.62095 9.92265 8.15295C10.016 8.68495 10.1093 9.31262 10.2026 10.0359C10.3006 10.7546 10.3963 11.6016 10.4896 12.5769C10.5876 13.5476 10.6856 14.6792 10.7836 15.9719C10.6296 15.9906 10.4103 16.0116 10.1256 16.0349C9.84098 16.0582 9.54232 16.0746 9.22965 16.0839C8.92165 16.0979 8.64632 16.1049 8.40365 16.1049C8.39432 15.9696 8.38498 15.8156 8.37565 15.6429C8.37098 15.4702 8.36398 15.2859 8.35465 15.0899C8.34532 14.8939 8.33598 14.6956 8.32665 14.4949C8.32198 14.2942 8.31732 14.1006 8.31265 13.9139C8.30798 13.7272 8.30332 13.5546 8.29865 13.3959C8.14932 13.4006 7.98832 13.4076 7.81565 13.4169C7.64298 13.4216 7.46798 13.4309 7.29065 13.4449C7.11798 13.4542 6.95465 13.4659 6.80065 13.4799C6.64665 13.4892 6.51132 13.5009 6.39465 13.5149C6.27798 13.5289 6.19398 13.5406 6.14265 13.5499C6.07265 13.8672 6.00732 14.1869 5.94665 14.5089C5.88598 14.8309 5.83232 15.1319 5.78565 15.4119C5.73898 15.6872 5.70398 15.9182 5.68065 16.1049ZM6.42965 11.6109C6.53698 11.5922 6.70498 11.5712 6.93365 11.5479C7.16232 11.5246 7.40032 11.5059 7.64765 11.4919C7.89498 11.4779 8.09565 11.4686 8.24965 11.4639C8.24032 11.3659 8.22865 11.1816 8.21465 10.9109C8.20532 10.6356 8.19132 10.3369 8.17265 10.0149C8.15398 9.68828 8.13532 9.38962 8.11665 9.11895C8.10265 8.84362 8.08865 8.65462 8.07465 8.55195C7.99998 8.55195 7.88798 8.55662 7.73865 8.56595C7.58932 8.57528 7.44465 8.58462 7.30465 8.59395C7.16465 8.60328 7.06665 8.61262 7.01065 8.62195C6.98265 8.75728 6.94298 8.94628 6.89165 9.18895C6.84498 9.42695 6.79365 9.69295 6.73765 9.98695C6.68165 10.2809 6.62565 10.5702 6.56965 10.8549C6.51832 11.1349 6.47165 11.3869 6.42965 11.6109ZM15.8251 14.2009C14.8731 14.2009 14.1171 14.0656 13.5571 13.7949C13.0017 13.5242 12.6051 13.1766 12.3671 12.7519C12.1291 12.3226 12.0101 11.8722 12.0101 11.4009C12.0101 10.7942 12.1687 10.2832 12.4861 9.86795C12.8034 9.45262 13.2351 9.13995 13.7811 8.92995C14.3271 8.71528 14.9501 8.60795 15.6501 8.60795C16.7747 8.60795 17.6147 8.85528 18.1701 9.34995C18.7301 9.84462 19.0101 10.5002 19.0101 11.3169C19.0101 11.9516 18.8747 12.4836 18.6041 12.9129C18.3381 13.3376 17.9671 13.6596 17.4911 13.8789C17.0151 14.0936 16.4597 14.2009 15.8251 14.2009ZM15.5101 19.4929C14.7821 19.4929 14.1194 19.423 13.5221 19.283C12.9294 19.1477 12.4557 18.905 12.1011 18.5549C11.7511 18.2097 11.5761 17.7243 11.5761 17.099C11.5761 16.7117 11.7021 16.3522 11.9541 16.0209C12.2061 15.6942 12.5677 15.4259 13.0391 15.2159C13.5104 15.0012 14.0681 14.8752 14.7121 14.8379C15.0014 14.8193 15.3071 14.8076 15.6291 14.8029C15.9557 14.7936 16.3384 14.7889 16.7771 14.7889C17.5191 14.7889 18.1257 14.9546 18.5971 15.2859C19.0731 15.6126 19.3111 16.1376 19.3111 16.8609C19.3111 17.4956 19.1431 18.0066 18.8071 18.3939C18.4757 18.7812 18.0231 19.0612 17.4491 19.2339C16.8797 19.4066 16.2334 19.4929 15.5101 19.4929ZM15.5731 18.1349C15.8904 18.1349 16.1727 18.1023 16.4201 18.037C16.6674 17.9717 16.8634 17.8689 17.0081 17.7289C17.1527 17.5889 17.2251 17.4046 17.2251 17.176C17.2251 16.9753 17.1667 16.8167 17.0501 16.7C16.9381 16.5879 16.7934 16.5086 16.6161 16.4619C16.4434 16.4152 16.2637 16.3919 16.0771 16.3919C15.9511 16.3919 15.8064 16.3919 15.6431 16.3919C15.4797 16.3919 15.3187 16.3919 15.1601 16.3919C15.0061 16.3919 14.8777 16.3919 14.7751 16.3919C14.6024 16.3919 14.4414 16.4129 14.2921 16.4549C14.1474 16.5016 14.0284 16.5833 13.9351 16.7C13.8464 16.8167 13.8021 16.9823 13.8021 17.1969C13.8021 17.4116 13.8791 17.5889 14.0331 17.7289C14.1871 17.8689 14.3971 17.9717 14.6631 18.037C14.9291 18.1023 15.2324 18.1349 15.5731 18.1349ZM13.8371 15.5589C13.2024 15.4282 12.7591 15.2486 12.5071 15.0199C12.2597 14.7913 12.1361 14.5369 12.1361 14.2569C12.1361 14.0376 12.1851 13.8486 12.2831 13.6899C12.3811 13.5266 12.4977 13.3959 12.6331 13.2979C12.7731 13.1952 12.9061 13.1276 13.0321 13.0949L14.4181 13.7949C14.2407 13.8556 14.1077 13.9349 14.0191 14.0329C13.9351 14.1262 13.8931 14.2219 13.8931 14.3199C13.8931 14.4506 13.9631 14.5696 14.1031 14.6769C14.2477 14.7842 14.4507 14.8379 14.7121 14.8379L13.8371 15.5589ZM15.6361 12.5349C15.9347 12.5349 16.1867 12.4882 16.3921 12.3949C16.5974 12.3017 16.7514 12.1639 16.8541 11.9819C16.9614 11.7999 17.0151 11.5782 17.0151 11.3169C17.0151 11.1022 16.9544 10.9132 16.8331 10.7499C16.7164 10.5866 16.5601 10.4606 16.3641 10.3719C16.1727 10.2786 15.9604 10.2319 15.7271 10.2319C15.3444 10.2319 15.0014 10.3136 14.6981 10.4769C14.3994 10.6402 14.2501 10.9296 14.2501 11.3449C14.2501 11.7322 14.3807 12.0286 14.6421 12.2339C14.9081 12.4346 15.2394 12.5349 15.6361 12.5349ZM18.4221 10.3719L17.1901 9.33595C17.2461 9.15395 17.3511 8.96028 17.5051 8.75495C17.6637 8.54495 17.8434 8.35128 18.0441 8.17395C18.2494 7.99195 18.4477 7.85428 18.6391 7.76095C18.7044 7.85895 18.7977 7.99428 18.9191 8.16695C19.0404 8.33962 19.1664 8.51462 19.2971 8.69195C19.4277 8.86928 19.5397 9.01628 19.6331 9.13295C19.5257 9.18428 19.4091 9.25428 19.2831 9.34295C19.1617 9.42695 19.0427 9.52495 18.9261 9.63695C18.8094 9.74428 18.7067 9.86095 18.6181 9.98695C18.5294 10.1129 18.4641 10.2412 18.4221 10.3719Z" fill="#131313"/>
</svg>
