<svg width="24" height="24" viewBox="0 0 24 24" fill="none" xmlns="http://www.w3.org/2000/svg">
<path d="M4.01562 16.6999C3.95029 16.6999 3.88962 16.6719 3.83362 16.6159C3.76829 16.5599 3.73562 16.4806 3.73562 16.3779C3.73562 16.3032 3.75896 16.2099 3.80562 16.0979C3.85229 15.9859 3.93629 15.8646 4.05763 15.7339C4.27229 15.2579 4.47296 14.8706 4.65963 14.5719C4.85563 14.2732 5.07496 13.9512 5.31763 13.6059C5.19629 13.5872 5.10763 13.5452 5.05163 13.4799C4.99563 13.4052 4.96763 13.3212 4.96763 13.2279C4.96763 13.0786 5.00963 12.9386 5.09363 12.8079C5.18696 12.6679 5.27096 12.5979 5.34563 12.5979C5.45763 12.5979 5.57429 12.5839 5.69563 12.5559C5.82629 12.5279 5.95696 12.5139 6.08763 12.5139C6.42363 12.0286 6.69429 11.6272 6.89963 11.3099C7.11429 10.9926 7.28696 10.7359 7.41763 10.5399C7.54829 10.3439 7.66029 10.1806 7.75363 10.0499C7.85629 9.91926 7.95896 9.79793 8.06163 9.68593C8.16429 9.5646 8.29029 9.4246 8.43963 9.26593C8.58896 9.10726 8.78496 8.9066 9.02763 8.66393C8.90629 8.41193 8.84563 8.1646 8.84563 7.92193C8.84563 7.58593 8.94363 7.3106 9.13963 7.09593C9.33563 6.88126 9.54096 6.77393 9.75563 6.77393C9.86763 6.77393 9.97029 6.8066 10.0636 6.87193C10.1663 6.92793 10.2503 7.0306 10.3156 7.17993C10.577 7.77726 10.759 8.53793 10.8616 9.46193C10.9736 10.3859 11.0483 11.3659 11.0856 12.4019C11.7856 12.4579 12.271 12.5839 12.5416 12.7799C12.4203 12.8172 12.2336 12.8592 11.9816 12.9059C11.7296 12.9432 11.431 12.9852 11.0856 13.0319C11.0856 13.4052 11.0903 13.7832 11.0996 14.1659C11.109 14.5486 11.1136 14.9266 11.1136 15.2999C11.1136 15.8226 11.0716 16.1866 10.9876 16.3919C10.913 16.5972 10.8383 16.6999 10.7636 16.6999C10.661 16.6999 10.6096 16.6066 10.6096 16.4199C10.6096 15.7946 10.5816 15.2112 10.5256 14.6699C10.4696 14.1192 10.3903 13.6059 10.2876 13.1299C9.83029 13.1766 9.34496 13.2279 8.83163 13.2839C8.32763 13.3306 7.82363 13.3772 7.31963 13.4239C6.81563 13.4706 6.34896 13.5172 5.91963 13.5639C5.62096 14.0306 5.32229 14.5206 5.02363 15.0339C4.73429 15.5472 4.45429 16.0699 4.18363 16.6019C4.15563 16.6672 4.09963 16.6999 4.01562 16.6999ZM6.67563 12.4579C7.22629 12.4112 7.80496 12.3832 8.41163 12.3739C9.01829 12.3552 9.59229 12.3459 10.1336 12.3459C9.97496 11.6832 9.80229 11.0999 9.61563 10.5959C9.43829 10.0826 9.29829 9.64393 9.19563 9.27993C8.95296 9.5226 8.60296 9.91926 8.14563 10.4699C7.69763 11.0206 7.20763 11.6832 6.67563 12.4579ZM14.9937 19.0099C14.611 19.0099 14.2704 18.9399 13.9717 18.7999C13.673 18.6692 13.4397 18.5012 13.2717 18.2959C13.1037 18.0906 13.0197 17.8852 13.0197 17.6799C13.0197 17.4186 13.1644 17.2039 13.4537 17.0359C13.5004 17.0079 13.5424 17.0546 13.5797 17.1759C13.6264 17.2972 13.6917 17.4419 13.7757 17.6099C13.869 17.7872 14.0137 17.9412 14.2097 18.0719C14.4057 18.2119 14.681 18.2819 15.0357 18.2819C15.5584 18.2819 15.9924 18.1606 16.3377 17.9179C16.683 17.6846 16.9584 17.3719 17.1637 16.9799C17.3784 16.5972 17.5277 16.1772 17.6117 15.7199C17.6957 15.2626 17.7284 14.8192 17.7097 14.3899C17.7097 14.3899 17.6957 14.3246 17.6677 14.1939C17.6397 14.0632 17.6164 13.8952 17.5977 13.6899C17.579 13.7272 17.5464 13.7692 17.4997 13.8159C17.4624 13.8532 17.4204 13.8859 17.3737 13.9139C17.1124 14.1099 16.795 14.3012 16.4217 14.4879C16.0484 14.6746 15.661 14.8566 15.2597 15.0339C14.8584 15.2112 14.4757 15.3746 14.1117 15.5239C13.757 15.6732 13.4537 15.8039 13.2017 15.9159C13.071 15.9812 12.889 16.0139 12.6557 16.0139C12.4224 16.0139 12.2077 15.9672 12.0117 15.8739C11.8064 15.7806 11.7037 15.6452 11.7037 15.4679C11.7037 15.2252 11.797 14.9126 11.9837 14.5299C12.161 14.1379 12.4084 13.7319 12.7257 13.3119C13.043 12.8826 13.4024 12.4952 13.8037 12.1499C14.2704 11.7486 14.7044 11.4639 15.1057 11.2959C15.507 11.1186 15.941 11.0299 16.4077 11.0299C16.4824 11.0299 16.5617 11.0346 16.6457 11.0439C16.7297 11.0439 16.8137 11.0486 16.8977 11.0579C17.0657 11.0579 17.2104 11.0906 17.3317 11.1559C17.453 11.2119 17.5604 11.2632 17.6537 11.3099C17.6444 11.1512 17.663 11.0299 17.7097 10.9459C17.7657 10.8619 17.8077 10.8199 17.8357 10.8199C18.0504 10.8199 18.251 10.8619 18.4377 10.9459C18.6337 11.0299 18.7924 11.1326 18.9137 11.2539C19.0444 11.3752 19.1144 11.4966 19.1237 11.6179C19.133 11.7112 19.1377 11.8046 19.1377 11.8979C19.147 11.9819 19.1517 12.0706 19.1517 12.1639C19.1517 12.7519 19.0864 13.3446 18.9557 13.9419C18.825 14.5299 18.6477 15.0992 18.4237 15.6499C18.209 16.1912 17.9664 16.6859 17.6957 17.1339C17.313 17.7592 16.921 18.2259 16.5197 18.5339C16.1184 18.8512 15.6097 19.0099 14.9937 19.0099ZM13.6357 15.2859C13.8784 15.2859 14.1537 15.2159 14.4617 15.0759C14.7697 14.9359 15.059 14.7959 15.3297 14.6559C16.795 13.8719 17.5464 13.3772 17.5837 13.1719C17.6304 13.0132 17.6537 12.8872 17.6537 12.7939C17.6537 12.6912 17.6304 12.5606 17.5837 12.4019C17.5277 12.1032 17.3177 11.9539 16.9537 11.9539C16.7764 11.9539 16.5524 12.0006 16.2817 12.0939C16.011 12.1779 15.6984 12.3226 15.3437 12.5279C14.9144 12.7706 14.527 13.0366 14.1817 13.3259C13.8457 13.6059 13.5797 13.8812 13.3837 14.1519C13.197 14.4132 13.1037 14.6372 13.1037 14.8239C13.1037 14.9732 13.155 15.0899 13.2577 15.1739C13.3604 15.2486 13.4864 15.2859 13.6357 15.2859Z" fill="#131313"/>
</svg>
