<svg width="24" height="24" viewBox="0 0 24 24" fill="none" xmlns="http://www.w3.org/2000/svg">
<path d="M11.1797 6.67753C11.1615 6.80514 11.1387 6.86894 11.1113 6.86894C11.084 6.86894 11.0612 6.87806 11.043 6.89628C11.0156 6.94186 10.9837 6.97832 10.9473 7.00566C10.9108 7.02389 10.8743 7.05579 10.8379 7.10136L10.7012 7.21074C10.6374 7.26542 10.5781 7.32467 10.5234 7.38847C10.4779 7.45227 10.4186 7.50696 10.3457 7.55253C10.3275 7.59811 10.3047 7.63457 10.2773 7.66191C10.2591 7.68925 10.2363 7.7166 10.209 7.74394C10.2181 7.85332 10.2135 7.92623 10.1953 7.96269C10.1862 7.99003 10.1816 8.01282 10.1816 8.03105C10.1816 8.06751 10.1908 8.13131 10.209 8.22246C10.209 8.28626 10.2135 8.35006 10.2227 8.41386C10.2409 8.46855 10.2546 8.53235 10.2637 8.60527C10.2819 8.65996 10.291 8.7192 10.291 8.783C10.3001 8.83769 10.3138 8.88782 10.332 8.93339C10.3867 9.061 10.4186 9.14759 10.4277 9.19316C10.4368 9.22962 10.4505 9.27063 10.4688 9.31621L10.5234 9.49394C10.5234 9.56686 10.528 9.61699 10.5371 9.64433C10.5462 9.66256 10.5553 9.68079 10.5645 9.69902C10.5827 9.77194 10.6009 9.84485 10.6191 9.91777C10.6465 9.99069 10.6829 10.0545 10.7285 10.1092C10.7467 10.1912 10.765 10.2732 10.7832 10.3553C10.8105 10.4373 10.8424 10.5148 10.8789 10.5877C10.888 10.7062 10.8971 10.7928 10.9062 10.8475C10.9245 10.9021 10.9427 10.9523 10.9609 10.9978C10.9792 11.0525 10.9928 11.1027 11.002 11.1482C11.0202 11.1938 11.043 11.2394 11.0703 11.285C11.0977 11.3852 11.1341 11.4809 11.1797 11.5721C11.1979 11.6359 11.2161 11.6814 11.2344 11.7088C11.2526 11.727 11.2663 11.7498 11.2754 11.7771L11.3438 11.9822C11.362 12.0369 11.3802 12.0916 11.3984 12.1463C11.4167 12.1919 11.4349 12.242 11.4531 12.2967C11.5078 12.3787 11.5352 12.438 11.5352 12.4744C11.5443 12.5109 11.5579 12.5428 11.5762 12.5701C11.5944 12.6339 11.6172 12.6886 11.6445 12.7342C11.6719 12.7797 11.6992 12.839 11.7266 12.9119C11.7539 12.9939 11.7812 13.076 11.8086 13.158C11.8359 13.24 11.8678 13.3221 11.9043 13.4041C11.9408 13.477 11.9727 13.5454 12 13.6092C12.0182 13.6365 12.0273 13.6684 12.0273 13.7049C12.0273 13.7322 12.0365 13.755 12.0547 13.7732C12.0911 13.8735 12.1185 13.951 12.1367 14.0057C12.1641 14.0512 12.1868 14.1014 12.2051 14.156C12.2415 14.2381 12.2643 14.3064 12.2734 14.3611C12.2826 14.4067 12.2962 14.4477 12.3145 14.4842C12.3418 14.5297 12.3646 14.5753 12.3828 14.6209L12.4512 14.7576C12.4967 14.8305 12.5195 14.8852 12.5195 14.9217C12.5195 14.949 12.5286 14.9809 12.5469 15.0174C12.5924 15.0812 12.6152 15.1268 12.6152 15.1541C12.6152 15.1814 12.6198 15.2088 12.6289 15.2361C12.6471 15.2726 12.6654 15.3045 12.6836 15.3318C12.7018 15.3592 12.7201 15.3911 12.7383 15.4275C12.793 15.5369 12.834 15.6098 12.8613 15.6463C12.8887 15.6827 12.9115 15.7192 12.9297 15.7557C13.0117 15.8833 13.0801 15.9699 13.1348 16.0154C13.2077 16.0519 13.2624 16.0929 13.2988 16.1385C13.3353 16.1749 13.3763 16.2068 13.4219 16.2342C13.4948 16.2797 13.5404 16.3162 13.5586 16.3436C13.6771 16.4074 13.7546 16.4484 13.791 16.4666C13.8548 16.5304 13.8958 16.5623 13.9141 16.5623C13.9323 16.5623 13.9505 16.5669 13.9688 16.576C14.0143 16.5942 14.0645 16.617 14.1191 16.6443C14.1829 16.6626 14.2376 16.6808 14.2832 16.699C14.3288 16.7172 14.3652 16.7309 14.3926 16.74C14.429 16.7491 14.4701 16.7583 14.5156 16.7674C14.5521 16.7765 14.5885 16.781 14.625 16.781C14.6706 16.7719 14.7116 16.7856 14.748 16.8221C14.666 16.8676 14.625 16.895 14.625 16.9041C14.625 16.9132 14.6159 16.9178 14.5977 16.9178C14.5703 16.9178 14.5384 16.9132 14.502 16.9041C14.4655 16.895 14.4245 16.8904 14.3789 16.8904C14.2969 16.8813 14.2057 16.8859 14.1055 16.9041C14.0143 16.9223 13.9186 16.936 13.8184 16.9451C13.7546 16.9542 13.6862 16.9588 13.6133 16.9588C13.5495 16.9588 13.4811 16.9633 13.4082 16.9725C13.2715 16.9725 13.1712 16.977 13.1074 16.9861C13.0527 16.9952 12.9889 16.9998 12.916 16.9998C12.8796 16.9998 12.8477 17.0044 12.8203 17.0135C12.8021 17.0226 12.7839 17.0317 12.7656 17.0408C12.6654 17.0499 12.5651 17.0499 12.4648 17.0408C12.3646 17.0408 12.2689 17.0454 12.1777 17.0545C12.123 17.0545 12.0684 17.059 12.0137 17.0682C11.959 17.0773 11.9043 17.0818 11.8496 17.0818C11.722 17.0909 11.599 17.0955 11.4805 17.0955C11.362 17.1046 11.2435 17.1137 11.125 17.1228C11.0703 17.1228 11.0156 17.1183 10.9609 17.1092C10.9062 17.1092 10.8516 17.1137 10.7969 17.1228C10.7057 17.132 10.6191 17.1411 10.5371 17.1502C10.4551 17.1684 10.373 17.173 10.291 17.1639C10.2454 17.1639 10.2044 17.1593 10.168 17.1502C10.1406 17.1411 10.1042 17.1365 10.0586 17.1365C10.0312 17.1365 10.0039 17.1365 9.97656 17.1365C9.94922 17.1456 9.92188 17.1502 9.89453 17.1502C9.76693 17.1411 9.65755 17.1411 9.56641 17.1502C9.48438 17.1684 9.4069 17.173 9.33398 17.1639C9.19727 17.1639 9.08333 17.1365 8.99219 17.0818C9.03776 16.9725 9.07422 16.9132 9.10156 16.9041C9.12891 16.895 9.16081 16.8813 9.19727 16.8631C9.26107 16.8357 9.32487 16.8084 9.38867 16.781C9.46159 16.7537 9.53451 16.7218 9.60742 16.6853C9.65299 16.6762 9.72135 16.6534 9.8125 16.617C9.92188 16.5532 10.013 16.5122 10.0859 16.4939C10.1315 16.4757 10.1725 16.4529 10.209 16.4256C10.2546 16.3982 10.3001 16.3755 10.3457 16.3572C10.373 16.339 10.4004 16.3299 10.4277 16.3299C10.4551 16.3299 10.4779 16.3208 10.4961 16.3025C10.5964 16.2387 10.651 16.2114 10.6602 16.2205C10.6784 16.2205 10.6966 16.2159 10.7148 16.2068C10.7786 16.1704 10.8151 16.143 10.8242 16.1248C10.8424 16.0975 10.8607 16.0747 10.8789 16.0564C10.9245 16.0564 10.9564 16.0473 10.9746 16.0291C11.002 16.0018 11.0247 15.979 11.043 15.9607C11.1159 15.906 11.166 15.865 11.1934 15.8377C11.2025 15.783 11.2161 15.7283 11.2344 15.6736C11.2526 15.6098 11.2572 15.5415 11.248 15.4686C11.1934 15.3774 11.166 15.3273 11.166 15.3182C11.1751 15.309 11.1751 15.2954 11.166 15.2771C11.1296 15.2133 11.1113 15.1632 11.1113 15.1268C11.1113 15.0812 11.1068 15.0356 11.0977 14.99C11.0703 14.8807 11.0566 14.8169 11.0566 14.7986C11.0566 14.7713 11.0521 14.7485 11.043 14.7303C11.0247 14.6847 11.002 14.6391 10.9746 14.5936C10.9564 14.5389 10.9382 14.4887 10.9199 14.4432C10.8926 14.3338 10.8698 14.2609 10.8516 14.2244C10.8424 14.1788 10.8288 14.1333 10.8105 14.0877C10.7467 14.0239 10.6829 13.9874 10.6191 13.9783C10.5645 13.9692 10.5052 13.9555 10.4414 13.9373C10.332 13.91 10.2546 13.8963 10.209 13.8963C10.1634 13.8963 10.1133 13.8963 10.0586 13.8963C9.99479 13.8872 9.93099 13.8781 9.86719 13.8689C9.8125 13.8507 9.75326 13.8416 9.68945 13.8416C9.67122 13.8416 9.64388 13.8462 9.60742 13.8553C9.57096 13.8553 9.53451 13.8553 9.49805 13.8553C9.3431 13.8644 9.19727 13.8735 9.06055 13.8826C8.93294 13.8826 8.77799 13.8826 8.5957 13.8826H8.44531C8.39062 13.8735 8.33138 13.8735 8.26758 13.8826C8.16732 13.8917 8.10352 13.8917 8.07617 13.8826C8.04883 13.8735 8.02148 13.8644 7.99414 13.8553C7.83919 13.837 7.6888 13.837 7.54297 13.8553L7.37891 13.8963C7.30599 13.9054 7.23307 13.91 7.16016 13.91C7.09635 13.91 7.03255 13.91 6.96875 13.91C6.89583 13.91 6.83203 13.9054 6.77734 13.8963C6.72266 13.8872 6.66341 13.8872 6.59961 13.8963C6.52669 13.9054 6.45378 13.9191 6.38086 13.9373C6.30794 13.9464 6.24414 13.9555 6.18945 13.9646C6.17122 14.0467 6.14388 14.1378 6.10742 14.2381C6.08008 14.3292 6.06185 14.4295 6.05273 14.5389C6.05273 14.5662 6.05273 14.5936 6.05273 14.6209C6.06185 14.6482 6.06641 14.6801 6.06641 14.7166C6.06641 14.7622 6.05729 14.8032 6.03906 14.8396C6.02995 14.867 6.03451 14.9034 6.05273 14.949C6.06185 15.031 6.08464 15.1131 6.12109 15.1951C6.09375 15.3136 6.08008 15.3956 6.08008 15.4412C6.08919 15.4868 6.09375 15.5324 6.09375 15.5779C6.08464 15.6508 6.07552 15.7283 6.06641 15.8103C6.06641 15.8833 6.08464 15.9516 6.12109 16.0154C6.13932 16.0519 6.16667 16.0975 6.20312 16.1521C6.23958 16.1977 6.2806 16.2387 6.32617 16.2752C6.37174 16.3116 6.43099 16.3436 6.50391 16.3709C6.57682 16.3982 6.64062 16.4301 6.69531 16.4666C6.75911 16.5213 6.80013 16.5532 6.81836 16.5623C6.8457 16.5623 6.87305 16.5714 6.90039 16.5896C6.96419 16.617 7.03711 16.6534 7.11914 16.699C7.20117 16.7446 7.27409 16.7902 7.33789 16.8357C7.36523 16.854 7.39714 16.8676 7.43359 16.8768C7.47005 16.8768 7.48372 16.8995 7.47461 16.9451C7.38346 16.9998 7.31966 17.0226 7.2832 17.0135C7.25586 17.0044 7.22396 16.9998 7.1875 16.9998C7.14193 17.0089 7.09635 17.0135 7.05078 17.0135C7.01432 17.0135 6.97331 17.0226 6.92773 17.0408C6.89128 17.0408 6.85482 17.0454 6.81836 17.0545C6.79102 17.0727 6.75456 17.0818 6.70898 17.0818C6.49023 17.0727 6.29883 17.0727 6.13477 17.0818C5.9707 17.1001 5.8112 17.1137 5.65625 17.1228C5.5651 17.1228 5.47396 17.1183 5.38281 17.1092C5.29167 17.1001 5.20052 17.0909 5.10938 17.0818C5.00911 17.0727 4.91341 17.0727 4.82227 17.0818C4.73112 17.1001 4.63997 17.1046 4.54883 17.0955C4.51237 17.0955 4.47591 17.0909 4.43945 17.0818C4.41211 17.0727 4.37565 17.0682 4.33008 17.0682C4.29362 17.0682 4.25716 17.0727 4.2207 17.0818C4.19336 17.0909 4.16146 17.0955 4.125 17.0955C4.02474 17.0955 3.97461 17.0909 3.97461 17.0818C3.97461 17.0818 3.97005 17.0818 3.96094 17.0818C3.91536 17.0909 3.86979 17.1001 3.82422 17.1092C3.78776 17.1183 3.74674 17.1228 3.70117 17.1228C3.62826 17.1228 3.5599 17.1137 3.49609 17.0955C3.44141 17.0864 3.38672 17.0818 3.33203 17.0818C3.28646 17.0818 3.24089 17.0818 3.19531 17.0818C3.14974 17.0909 3.10417 17.0955 3.05859 17.0955C3.03125 17.1046 2.99479 17.1137 2.94922 17.1228C2.89453 17.132 2.8444 17.1365 2.79883 17.1365C2.68945 17.0545 2.65755 17.0089 2.70312 16.9998C2.73958 16.9998 2.76693 16.9907 2.78516 16.9725C2.89453 16.8995 2.95378 16.8585 2.96289 16.8494C3.06315 16.7856 3.11784 16.7491 3.12695 16.74C3.20898 16.658 3.28646 16.6033 3.35938 16.576C3.42318 16.5486 3.47786 16.5258 3.52344 16.5076C3.6237 16.4529 3.6875 16.421 3.71484 16.4119C3.74219 16.3937 3.77409 16.3755 3.81055 16.3572C3.83789 16.339 3.86523 16.3253 3.89258 16.3162C3.92904 16.3071 3.96094 16.2934 3.98828 16.2752C4.04297 16.2387 4.08854 16.1977 4.125 16.1521C4.16146 16.1066 4.21159 16.0656 4.27539 16.0291C4.29362 15.9562 4.32096 15.8969 4.35742 15.8514C4.39388 15.8058 4.43034 15.7602 4.4668 15.7146C4.51237 15.6417 4.5306 15.6053 4.52148 15.6053C4.52148 15.5962 4.52604 15.587 4.53516 15.5779C4.55339 15.5597 4.57161 15.5278 4.58984 15.4822C4.61719 15.4366 4.6263 15.3911 4.61719 15.3455C4.69922 15.227 4.75846 15.1359 4.79492 15.0721C4.83138 14.9991 4.85872 14.9262 4.87695 14.8533C4.89518 14.7439 4.90885 14.6847 4.91797 14.6756C4.92708 14.6665 4.9362 14.6528 4.94531 14.6346C4.98177 14.5434 5.01367 14.4432 5.04102 14.3338C5.06836 14.2153 5.10482 14.1059 5.15039 14.0057C5.16862 13.9601 5.18229 13.9145 5.19141 13.8689C5.20964 13.8234 5.22786 13.7641 5.24609 13.6912C5.27344 13.5818 5.29622 13.518 5.31445 13.4998C5.33268 13.4725 5.34635 13.4406 5.35547 13.4041C5.3737 13.3676 5.37826 13.3357 5.36914 13.3084C5.36003 13.2719 5.36458 13.2355 5.38281 13.199L5.47852 13.035C5.49674 13.0076 5.51042 12.9848 5.51953 12.9666C5.53776 12.9393 5.55599 12.9119 5.57422 12.8846C5.59245 12.839 5.60612 12.798 5.61523 12.7615C5.62435 12.7251 5.63802 12.684 5.65625 12.6385C5.72005 12.5291 5.75651 12.4562 5.76562 12.4197C5.77474 12.3833 5.78841 12.3422 5.80664 12.2967C5.82487 12.2511 5.8431 12.201 5.86133 12.1463C5.87956 12.0916 5.88411 12.0278 5.875 11.9549C5.92057 11.9093 5.95247 11.8455 5.9707 11.7635C5.99805 11.6814 6.02995 11.604 6.06641 11.531C6.08464 11.5037 6.09831 11.4855 6.10742 11.4764C6.12565 11.4581 6.13477 11.4262 6.13477 11.3807C6.14388 11.3351 6.14388 11.2941 6.13477 11.2576C6.12565 11.2212 6.11198 11.1801 6.09375 11.1346C6.11198 11.089 6.12565 11.048 6.13477 11.0115C6.15299 10.9751 6.16667 10.934 6.17578 10.8885C6.21224 10.8247 6.23503 10.7791 6.24414 10.7518C6.26237 10.7244 6.2806 10.6971 6.29883 10.6697C6.32617 10.6059 6.36263 10.533 6.4082 10.451C6.42643 10.4145 6.4401 10.3781 6.44922 10.3416C6.46745 10.296 6.48568 10.2505 6.50391 10.2049C6.55859 10.1137 6.58594 10.059 6.58594 10.0408C6.58594 10.0135 6.59049 9.99069 6.59961 9.97246C6.63607 9.89954 6.67253 9.82662 6.70898 9.75371C6.74544 9.68079 6.7819 9.60787 6.81836 9.53496C6.83659 9.48938 6.85026 9.44837 6.85938 9.41191C6.86849 9.37545 6.88216 9.33899 6.90039 9.30253C6.91862 9.25696 6.93685 9.2205 6.95508 9.19316C6.97331 9.1567 6.98698 9.11569 6.99609 9.07011C7.01432 9.03365 7.01888 9.00175 7.00977 8.97441C7.00977 8.93795 7.01888 8.90149 7.03711 8.86503C7.03711 8.84681 7.04167 8.82402 7.05078 8.79668C7.0599 8.76933 7.06901 8.74199 7.07812 8.71464C7.17839 8.53235 7.24674 8.40475 7.2832 8.33183C7.32878 8.2498 7.37891 8.1541 7.43359 8.04472C7.45182 7.99003 7.47005 7.93535 7.48828 7.88066C7.51562 7.81686 7.52474 7.76673 7.51562 7.73027C7.4974 7.6847 7.45638 7.65735 7.39258 7.64824C7.33789 7.63001 7.29232 7.60722 7.25586 7.57988C7.1556 7.59811 7.05534 7.59811 6.95508 7.57988C6.86393 7.55253 6.77279 7.52519 6.68164 7.49785C6.58138 7.4705 6.46289 7.45683 6.32617 7.45683C6.18945 7.45683 6.04362 7.45227 5.88867 7.44316C5.81576 7.44316 5.73828 7.44316 5.65625 7.44316C5.57422 7.43404 5.49674 7.43404 5.42383 7.44316C5.33268 7.46139 5.24609 7.48873 5.16406 7.52519C5.08203 7.55253 5.00456 7.57532 4.93164 7.59355C4.77669 7.63912 4.62174 7.69381 4.4668 7.75761C4.37565 7.82141 4.33008 7.85787 4.33008 7.86699C4.33008 7.8761 4.32096 7.88522 4.30273 7.89433C4.2207 7.96725 4.17057 8.02194 4.15234 8.05839C4.13411 8.08574 4.11133 8.10852 4.08398 8.12675C4.04753 8.22701 4.0293 8.31816 4.0293 8.40019C4.0293 8.48222 4.03385 8.58248 4.04297 8.70097C4.04297 8.73743 4.03841 8.77389 4.0293 8.81035C4.0293 8.84681 4.03385 8.88326 4.04297 8.91972C4.04297 8.95618 4.05664 9.00631 4.08398 9.07011C4.11133 9.13391 4.13411 9.1886 4.15234 9.23418C4.17057 9.26152 4.21159 9.29798 4.27539 9.34355C4.31185 9.42558 4.34375 9.48027 4.37109 9.50761C4.39844 9.53496 4.42578 9.56686 4.45312 9.60332C4.4987 9.64889 4.52604 9.68535 4.53516 9.71269C4.55339 9.74003 4.58984 9.77194 4.64453 9.80839C4.77214 9.84485 4.84961 9.85852 4.87695 9.84941C4.9043 9.84029 4.94076 9.82662 4.98633 9.80839C5.05924 9.79016 5.11849 9.77194 5.16406 9.75371C5.20964 9.73548 5.26432 9.69902 5.32812 9.64433C5.34635 9.6261 5.36914 9.60787 5.39648 9.58964C5.43294 9.57141 5.46029 9.55319 5.47852 9.53496C5.49674 9.51673 5.50586 9.49394 5.50586 9.4666C5.51497 9.43925 5.52865 9.41647 5.54688 9.39824C5.59245 9.2524 5.58333 9.14759 5.51953 9.08378C5.46484 9.01998 5.41016 8.96529 5.35547 8.91972C5.25521 8.85592 5.18685 8.83313 5.15039 8.85136C5.12305 8.86048 5.0957 8.87415 5.06836 8.89238C5.0319 8.90149 5 8.91516 4.97266 8.93339C4.95443 8.94251 4.9362 8.95618 4.91797 8.97441L4.74023 9.05644C4.6582 9.03821 4.59896 9.03821 4.5625 9.05644C4.57161 8.97441 4.59896 8.88326 4.64453 8.783C4.70833 8.70097 4.74479 8.65996 4.75391 8.65996C4.82682 8.60527 4.87695 8.57337 4.9043 8.56425C4.94076 8.55514 4.97266 8.54147 5 8.52324C5.02734 8.50501 5.05013 8.49589 5.06836 8.49589C5.08659 8.48678 5.11849 8.47311 5.16406 8.45488C5.20052 8.44576 5.23242 8.43665 5.25977 8.42753C5.28711 8.41842 5.31901 8.41842 5.35547 8.42753C5.45573 8.43665 5.53776 8.48222 5.60156 8.56425C5.67448 8.63717 5.7474 8.69641 5.82031 8.74199C5.85677 8.8149 5.90234 8.88326 5.95703 8.94707C6.01172 9.01087 6.03906 9.08834 6.03906 9.17949C6.01172 9.33444 5.98893 9.42558 5.9707 9.45292C5.95247 9.48027 5.92513 9.50761 5.88867 9.53496C5.86133 9.55319 5.82487 9.58509 5.7793 9.63066C5.74284 9.658 5.70638 9.6899 5.66992 9.72636C5.64258 9.76282 5.61068 9.79472 5.57422 9.82207C5.47396 9.9041 5.42839 9.94511 5.4375 9.94511C5.35547 9.99069 5.30534 10.0226 5.28711 10.0408C5.26888 10.0499 5.25065 10.0636 5.23242 10.0818C5.15039 10.1456 5.0957 10.1775 5.06836 10.1775C5.05013 10.1775 5.0319 10.1821 5.01367 10.1912C4.9681 10.2277 4.93164 10.2459 4.9043 10.2459C4.87695 10.2459 4.84049 10.2505 4.79492 10.2596C4.75846 10.2687 4.73112 10.2778 4.71289 10.2869C4.69466 10.296 4.66276 10.2915 4.61719 10.2732C4.55339 10.2641 4.4987 10.2413 4.45312 10.2049C4.40755 10.1684 4.36198 10.1411 4.31641 10.1228C4.27083 10.0773 4.22526 10.0454 4.17969 10.0271C4.14323 10.0089 4.11133 9.98613 4.08398 9.95878C4.0293 9.89498 3.97005 9.83118 3.90625 9.76738C3.85156 9.70358 3.80143 9.63522 3.75586 9.5623C3.72852 9.4985 3.69661 9.4347 3.66016 9.37089C3.63281 9.30709 3.61003 9.24329 3.5918 9.17949C3.57357 9.10657 3.5599 9.0291 3.55078 8.94707C3.54167 8.85592 3.53255 8.76022 3.52344 8.65996C3.51432 8.5597 3.50521 8.47311 3.49609 8.40019C3.49609 8.31816 3.50521 8.23613 3.52344 8.1541C3.53255 8.11764 3.54167 8.08118 3.55078 8.04472C3.56901 8.00826 3.58268 7.96725 3.5918 7.92168C3.60091 7.88522 3.60091 7.84876 3.5918 7.8123C3.5918 7.77584 3.59635 7.74394 3.60547 7.7166C3.63281 7.67102 3.67383 7.62545 3.72852 7.57988C3.79232 7.52519 3.84701 7.47506 3.89258 7.42949C3.91081 7.41126 3.92448 7.39303 3.93359 7.3748C3.94271 7.34746 3.96094 7.32467 3.98828 7.30644C4.05208 7.25175 4.10677 7.21985 4.15234 7.21074C4.20703 7.19251 4.25716 7.17428 4.30273 7.15605C4.34831 7.13782 4.38477 7.11959 4.41211 7.10136C4.44857 7.07402 4.48958 7.05123 4.53516 7.033C4.67188 7.01477 4.77214 6.99654 4.83594 6.97832C4.90885 6.96009 4.97266 6.94641 5.02734 6.9373C5.07292 6.92819 5.11849 6.92819 5.16406 6.9373C5.21875 6.9373 5.26888 6.9373 5.31445 6.9373C5.3418 6.9373 5.36914 6.93274 5.39648 6.92363C5.43294 6.91451 5.4694 6.9054 5.50586 6.89628C5.64258 6.88717 5.78841 6.88717 5.94336 6.89628C6.09831 6.89628 6.23503 6.89628 6.35352 6.89628C6.42643 6.89628 6.49479 6.89628 6.55859 6.89628C6.63151 6.88717 6.70443 6.88261 6.77734 6.88261C6.85938 6.88261 6.94141 6.89173 7.02344 6.90996C7.10547 6.91907 7.20117 6.92363 7.31055 6.92363C7.34701 6.91451 7.37891 6.91451 7.40625 6.92363C7.43359 6.92363 7.46094 6.92363 7.48828 6.92363C7.5612 6.92363 7.63411 6.92819 7.70703 6.9373C7.78906 6.9373 7.86654 6.9373 7.93945 6.9373C8.05794 6.9373 8.18555 6.9373 8.32227 6.9373C8.4681 6.92819 8.60482 6.93274 8.73242 6.95097C8.75977 6.96009 8.79622 6.96464 8.8418 6.96464C8.89648 6.95553 8.94206 6.95097 8.97852 6.95097H9.25195C9.37044 6.94186 9.44792 6.93274 9.48438 6.92363C9.52083 6.91451 9.55729 6.9054 9.59375 6.89628C9.63932 6.88717 9.6849 6.88717 9.73047 6.89628C9.77604 6.89628 9.82161 6.89173 9.86719 6.88261C9.97656 6.86438 10.0814 6.84615 10.1816 6.82792C10.2819 6.80058 10.3822 6.76868 10.4824 6.73222C10.5189 6.72311 10.5553 6.71855 10.5918 6.71855C10.6283 6.70944 10.6693 6.70032 10.7148 6.69121C10.7695 6.68209 10.8379 6.68209 10.9199 6.69121C10.9473 6.65475 10.9883 6.64108 11.043 6.65019C11.0977 6.65931 11.1432 6.66842 11.1797 6.67753ZM9.41602 10.0955L9.29297 9.80839C9.26562 9.73548 9.23828 9.66256 9.21094 9.58964C9.18359 9.51673 9.15625 9.44381 9.12891 9.37089C9.11979 9.34355 9.11068 9.31621 9.10156 9.28886C9.09245 9.26152 9.08333 9.23873 9.07422 9.2205C9.05599 9.1567 9.04232 9.09746 9.0332 9.04277C9.02409 8.98808 9.01042 8.93795 8.99219 8.89238C8.98307 8.85592 8.96029 8.81035 8.92383 8.75566C8.88737 8.63717 8.85091 8.54147 8.81445 8.46855C8.76888 8.35006 8.74609 8.29082 8.74609 8.29082C8.68229 8.20878 8.61849 8.15865 8.55469 8.14042C8.47266 8.17688 8.42253 8.20423 8.4043 8.22246C8.39518 8.24069 8.39062 8.25436 8.39062 8.26347C8.3724 8.2817 8.34961 8.30449 8.32227 8.33183C8.30404 8.35006 8.28581 8.36829 8.26758 8.38652C8.24935 8.41386 8.23568 8.44576 8.22656 8.48222C8.22656 8.50957 8.21745 8.54602 8.19922 8.5916C8.16276 8.61894 8.1263 8.6554 8.08984 8.70097C8.05339 8.74654 8.02604 8.78756 8.00781 8.82402L7.87109 8.97441C7.80729 9.14759 7.77083 9.24785 7.76172 9.27519C7.69792 9.39368 7.6569 9.48938 7.63867 9.5623C7.62044 9.6261 7.59766 9.6899 7.57031 9.75371C7.5612 9.82662 7.54753 9.86764 7.5293 9.87675C7.52018 9.88587 7.51562 9.89498 7.51562 9.9041C7.4974 9.93144 7.48372 9.96334 7.47461 9.9998C7.47461 10.0271 7.47005 10.0545 7.46094 10.0818C7.45182 10.1092 7.44727 10.1411 7.44727 10.1775C7.44727 10.2049 7.44271 10.2322 7.43359 10.2596C7.36979 10.3598 7.32878 10.4464 7.31055 10.5193C7.30143 10.5831 7.2832 10.6333 7.25586 10.6697C7.23763 10.6971 7.2194 10.729 7.20117 10.7654C7.19206 10.8019 7.18294 10.8292 7.17383 10.8475C7.10091 11.0571 7.03711 11.2531 6.98242 11.4353C6.92773 11.6085 6.86849 11.768 6.80469 11.9139C6.78646 11.9594 6.76367 12.005 6.73633 12.0506C6.70898 12.0962 6.6862 12.1417 6.66797 12.1873C6.64974 12.2329 6.64062 12.2739 6.64062 12.3103C6.64062 12.3468 6.63151 12.3833 6.61328 12.4197C6.60417 12.4562 6.59049 12.4926 6.57227 12.5291C6.55404 12.5564 6.53581 12.5929 6.51758 12.6385C6.49023 12.7114 6.47201 12.7934 6.46289 12.8846C6.45378 12.9666 6.44466 13.0486 6.43555 13.1307C6.53581 13.1671 6.64062 13.1808 6.75 13.1717C6.85938 13.1534 6.96875 13.1534 7.07812 13.1717C7.15104 13.1808 7.2194 13.199 7.2832 13.2264C7.34701 13.2446 7.41081 13.2583 7.47461 13.2674C7.53841 13.2765 7.60677 13.2765 7.67969 13.2674C7.76172 13.2583 7.84375 13.2583 7.92578 13.2674C7.98958 13.2674 8.05339 13.2719 8.11719 13.281C8.18099 13.2902 8.24479 13.2947 8.30859 13.2947C8.3724 13.2947 8.42708 13.2902 8.47266 13.281C8.52734 13.2719 8.58659 13.2674 8.65039 13.2674C8.69596 13.2674 8.74154 13.2719 8.78711 13.281C8.83268 13.281 8.87826 13.281 8.92383 13.281C9.0332 13.281 9.14258 13.281 9.25195 13.281C9.36133 13.2719 9.47526 13.2628 9.59375 13.2537C9.72135 13.2355 9.85352 13.2172 9.99023 13.199C10.1361 13.1717 10.2454 13.1352 10.3184 13.0896C10.3366 12.8982 10.3184 12.7251 10.2637 12.5701C10.209 12.4152 10.1589 12.2557 10.1133 12.0916C10.1133 12.0734 10.1133 12.0506 10.1133 12.0232C10.1133 11.9868 10.1087 11.9594 10.0996 11.9412C10.0449 11.8318 10.013 11.7544 10.0039 11.7088C10.0039 11.6632 9.99935 11.6176 9.99023 11.5721C9.98112 11.5538 9.96745 11.5219 9.94922 11.4764C9.9401 11.4217 9.93555 11.3852 9.93555 11.367C9.94466 11.2941 9.9401 11.2394 9.92188 11.2029C9.91276 11.1665 9.90365 11.1255 9.89453 11.0799C9.8763 11.007 9.86263 10.934 9.85352 10.8611C9.85352 10.7882 9.83984 10.729 9.8125 10.6834L9.68945 10.5603C9.66211 10.5239 9.63477 10.492 9.60742 10.4646C9.58919 10.4282 9.56641 10.3963 9.53906 10.3689C9.53906 10.3143 9.52083 10.2687 9.48438 10.2322C9.45703 10.1866 9.43424 10.1411 9.41602 10.0955ZM21.3652 9.9998C21.3652 10.0818 21.3424 10.1365 21.2969 10.1639C21.2604 10.1912 21.2194 10.214 21.1738 10.2322L20.9277 10.3553C20.8275 10.41 20.7728 10.4419 20.7637 10.451C20.7637 10.4601 20.7591 10.4692 20.75 10.4783C20.6589 10.5057 20.5951 10.5284 20.5586 10.5467C20.5221 10.5649 20.4811 10.5831 20.4355 10.6014C20.4173 10.6196 20.3945 10.6378 20.3672 10.656C20.349 10.6743 20.3216 10.6925 20.2852 10.7107C20.2122 10.7563 20.1393 10.7973 20.0664 10.8338C20.0482 10.852 20.0254 10.8702 19.998 10.8885C19.9707 10.8976 19.9434 10.9113 19.916 10.9295C19.8613 10.9751 19.8112 11.0434 19.7656 11.1346C19.7201 11.2257 19.6882 11.3032 19.6699 11.367C19.6608 11.3943 19.6562 11.4262 19.6562 11.4627C19.6654 11.4991 19.6654 11.531 19.6562 11.5584C19.6471 11.5949 19.638 11.6268 19.6289 11.6541C19.6289 11.6723 19.6289 11.6906 19.6289 11.7088C19.6198 11.7635 19.6198 11.8182 19.6289 11.8728C19.638 11.9275 19.6426 11.9913 19.6426 12.0643C19.6426 12.1098 19.638 12.1554 19.6289 12.201C19.6289 12.2374 19.6289 12.2784 19.6289 12.324C19.6289 12.4607 19.6289 12.6066 19.6289 12.7615C19.638 12.9074 19.6471 13.0532 19.6562 13.199C19.6562 13.281 19.6562 13.3631 19.6562 13.4451C19.6654 13.518 19.6699 13.5909 19.6699 13.6639C19.6882 13.8644 19.7018 14.0649 19.7109 14.2654C19.7201 14.4568 19.6745 14.63 19.5742 14.785C19.6107 14.9126 19.6289 14.9991 19.6289 15.0447C19.638 15.0812 19.6471 15.1222 19.6562 15.1678C19.6745 15.2589 19.6927 15.3911 19.7109 15.5643C19.7201 15.6919 19.7292 15.8286 19.7383 15.9744C19.7565 16.1111 19.7747 16.257 19.793 16.4119C19.793 16.4575 19.793 16.5031 19.793 16.5486C19.793 16.5942 19.7975 16.6398 19.8066 16.6853C19.8066 16.7309 19.8112 16.7765 19.8203 16.8221C19.8385 16.8585 19.8477 16.8995 19.8477 16.9451C19.8568 16.9907 19.8613 17.0363 19.8613 17.0818C19.8613 17.1365 19.8659 17.1866 19.875 17.2322C19.875 17.2778 19.875 17.3188 19.875 17.3553C19.8841 17.3917 19.8932 17.4327 19.9023 17.4783C19.9297 17.6515 19.9479 17.8338 19.957 18.0252C19.9753 18.2166 19.9889 18.408 19.998 18.5994C20.0072 18.645 20.0072 18.6906 19.998 18.7361C19.998 18.7817 19.998 18.8273 19.998 18.8728C19.998 18.9731 19.9935 19.0688 19.9844 19.16C19.9753 19.2511 19.9707 19.3468 19.9707 19.4471C19.9707 19.4926 19.9753 19.5291 19.9844 19.5564C19.9935 19.5929 19.9935 19.6339 19.9844 19.6795C19.9753 19.7251 19.9525 19.7752 19.916 19.8299C19.8796 19.8937 19.8477 19.9484 19.8203 19.9939C19.7656 20.076 19.7246 20.1261 19.6973 20.1443C19.6699 20.1626 19.6471 20.1808 19.6289 20.199C19.6107 20.2172 19.5924 20.2355 19.5742 20.2537C19.556 20.281 19.5378 20.3038 19.5195 20.3221C19.4831 20.3585 19.4466 20.395 19.4102 20.4314C19.3737 20.4679 19.3327 20.5044 19.2871 20.5408C19.2689 20.559 19.2507 20.5773 19.2324 20.5955C19.2142 20.6137 19.196 20.632 19.1777 20.6502C19.1322 20.6866 19.082 20.7186 19.0273 20.7459C18.9818 20.7732 18.9362 20.8097 18.8906 20.8553C18.7721 20.9373 18.6901 20.9874 18.6445 21.0057C18.6081 21.0239 18.5671 21.0467 18.5215 21.074C18.4486 21.1196 18.3893 21.1606 18.3438 21.1971C18.3073 21.2335 18.248 21.2609 18.166 21.2791C18.1204 21.2973 18.0703 21.3156 18.0156 21.3338C17.9701 21.352 17.9245 21.3748 17.8789 21.4021C17.7878 21.4386 17.6921 21.4887 17.5918 21.5525C17.5553 21.5708 17.5189 21.589 17.4824 21.6072C17.4551 21.6255 17.4186 21.6437 17.373 21.6619C17.3275 21.6801 17.2728 21.6984 17.209 21.7166C17.1543 21.7348 17.0996 21.7576 17.0449 21.785C17.0085 21.7667 16.972 21.7531 16.9355 21.7439C16.8991 21.7439 16.8581 21.7394 16.8125 21.7303C16.7578 21.712 16.694 21.7029 16.6211 21.7029C16.5482 21.7029 16.4798 21.6938 16.416 21.6756L16.0742 21.6482C16.0013 21.6391 15.9238 21.6255 15.8418 21.6072C15.7598 21.589 15.6777 21.5708 15.5957 21.5525C15.5228 21.5343 15.4499 21.5115 15.377 21.4842C15.3132 21.4659 15.2448 21.4386 15.1719 21.4021C15.0443 21.3201 14.9531 21.2563 14.8984 21.2107C14.8346 21.1652 14.7936 21.1287 14.7754 21.1014C14.7572 21.074 14.7389 21.0467 14.7207 21.0193C14.6569 20.9646 14.625 20.9327 14.625 20.9236C14.6341 20.9236 14.6296 20.9145 14.6113 20.8963C14.5931 20.8781 14.5703 20.8598 14.543 20.8416C14.5247 20.8325 14.5065 20.8188 14.4883 20.8006C14.4609 20.7186 14.4427 20.673 14.4336 20.6639C14.4245 20.6547 14.4154 20.6411 14.4062 20.6228C14.3698 20.5682 14.3379 20.5135 14.3105 20.4588C14.2832 20.4041 14.2604 20.3403 14.2422 20.2674C14.224 20.2218 14.2057 20.1534 14.1875 20.0623C14.1419 19.9074 14.1191 19.7661 14.1191 19.6385C14.1191 19.52 14.1283 19.3969 14.1465 19.2693C14.1647 19.1508 14.1784 19.0278 14.1875 18.9002C14.1875 18.8546 14.1829 18.8136 14.1738 18.7771C14.1738 18.7407 14.1784 18.6997 14.1875 18.6541C14.1966 18.5538 14.2194 18.4627 14.2559 18.3807C14.2923 18.2986 14.3197 18.2075 14.3379 18.1072C14.3926 18.0616 14.4427 17.9933 14.4883 17.9021C14.5339 17.811 14.5931 17.7381 14.666 17.6834C14.7754 17.6287 14.8438 17.5922 14.8711 17.574C14.9076 17.5558 14.9486 17.5376 14.9941 17.5193C15.1126 17.4738 15.1947 17.4555 15.2402 17.4646C15.2858 17.4738 15.3314 17.4738 15.377 17.4646C15.4316 17.4555 15.4863 17.4464 15.541 17.4373C15.5957 17.4282 15.6549 17.4191 15.7188 17.41C15.7826 17.41 15.8555 17.4054 15.9375 17.3963C16.0286 17.3872 16.1016 17.3872 16.1562 17.3963C16.2018 17.4054 16.2565 17.4236 16.3203 17.451C16.3932 17.4783 16.4525 17.5057 16.498 17.533C16.6074 17.5968 16.694 17.6652 16.7578 17.7381C16.8216 17.8201 16.8854 17.9067 16.9492 17.9978C17.0039 18.0799 17.0449 18.1391 17.0723 18.1756C17.0996 18.2212 17.1224 18.2667 17.1406 18.3123C17.1589 18.3488 17.1725 18.3943 17.1816 18.449C17.1908 18.5128 17.1953 18.563 17.1953 18.5994C17.1953 18.6359 17.1771 18.6906 17.1406 18.7635C17.1042 18.8273 17.0814 18.8774 17.0723 18.9139C17.0632 18.9503 17.054 18.9777 17.0449 18.9959C17.0358 19.0232 17.0221 19.046 17.0039 19.0643C16.9948 19.0916 16.9811 19.1144 16.9629 19.1326C16.8809 19.2329 16.8307 19.3012 16.8125 19.3377C16.7943 19.3559 16.7715 19.3741 16.7441 19.3924C16.7168 19.4197 16.694 19.4425 16.6758 19.4607C16.6302 19.5337 16.5938 19.5838 16.5664 19.6111C16.4844 19.6749 16.4206 19.7205 16.375 19.7478C16.3385 19.7752 16.3021 19.798 16.2656 19.8162C16.1927 19.8344 16.1152 19.8344 16.0332 19.8162C15.9603 19.798 15.901 19.7752 15.8555 19.7478C15.8099 19.7205 15.7507 19.6749 15.6777 19.6111C15.6048 19.5564 15.5592 19.5063 15.541 19.4607C15.5228 19.4425 15.5091 19.4015 15.5 19.3377C15.4909 19.2739 15.4818 19.2238 15.4727 19.1873C15.4635 19.0779 15.4681 18.9777 15.4863 18.8865C15.5046 18.7954 15.5273 18.7133 15.5547 18.6404C15.5911 18.5493 15.6139 18.4991 15.623 18.49C15.6413 18.4809 15.6641 18.4627 15.6914 18.4353C15.7096 18.4171 15.737 18.408 15.7734 18.408C15.819 18.408 15.8646 18.4034 15.9102 18.3943C15.9557 18.3852 15.9967 18.3761 16.0332 18.367C16.0697 18.3579 16.1107 18.3624 16.1562 18.3807C16.2018 18.4445 16.2337 18.5219 16.252 18.6131C16.2702 18.7133 16.252 18.7999 16.1973 18.8728C16.1882 18.9093 16.179 18.9503 16.1699 18.9959C16.1699 19.0415 16.1517 19.0688 16.1152 19.0779C16.0697 19.0597 16.0378 19.0324 16.0195 18.9959C16.0104 18.9594 16.0059 18.9184 16.0059 18.8728C15.9967 18.8273 16.0013 18.7817 16.0195 18.7361C16.0469 18.6997 16.0423 18.6678 16.0059 18.6404C15.9512 18.6222 15.9056 18.6313 15.8691 18.6678C15.8418 18.7133 15.819 18.7589 15.8008 18.8045C15.7826 18.8409 15.7689 18.8956 15.7598 18.9686C15.7507 19.0415 15.7507 19.1007 15.7598 19.1463C15.7689 19.1919 15.7871 19.2329 15.8145 19.2693C15.8509 19.3149 15.8874 19.3514 15.9238 19.3787C16.015 19.4699 16.1335 19.4653 16.2793 19.365C16.3704 19.283 16.4251 19.2238 16.4434 19.1873C16.4616 19.16 16.4935 19.1189 16.5391 19.0643C16.5573 19.0187 16.5892 18.964 16.6348 18.9002C16.6895 18.8455 16.7214 18.7954 16.7305 18.7498C16.7396 18.7133 16.735 18.6359 16.7168 18.5174C16.6986 18.3989 16.6667 18.3077 16.6211 18.2439C16.5846 18.1893 16.5208 18.1346 16.4297 18.0799C16.4023 18.0616 16.3659 18.0434 16.3203 18.0252C16.2839 18.0161 16.2428 17.9978 16.1973 17.9705C16.1335 17.934 16.0833 17.893 16.0469 17.8475C16.0104 17.8019 15.9648 17.77 15.9102 17.7518C15.8646 17.7335 15.8145 17.729 15.7598 17.7381C15.7142 17.7472 15.6595 17.7563 15.5957 17.7654C15.5592 17.7745 15.5137 17.7745 15.459 17.7654C15.4043 17.7654 15.3542 17.77 15.3086 17.7791C15.2539 17.7973 15.2038 17.8247 15.1582 17.8611C15.1126 17.8976 15.0579 17.9204 14.9941 17.9295C14.9303 18.0206 14.8802 18.1118 14.8438 18.2029C14.8346 18.2394 14.8301 18.2713 14.8301 18.2986C14.8301 18.326 14.8255 18.3579 14.8164 18.3943C14.7982 18.449 14.7845 18.4991 14.7754 18.5447C14.7663 18.5994 14.7572 18.6632 14.748 18.7361C14.7572 18.8364 14.7526 18.9184 14.7344 18.9822C14.7161 19.0551 14.7025 19.1098 14.6934 19.1463C14.6934 19.1827 14.6934 19.2146 14.6934 19.242C14.7025 19.2784 14.7116 19.3195 14.7207 19.365C14.7207 19.4288 14.7161 19.4881 14.707 19.5428C14.707 19.5975 14.7161 19.6613 14.7344 19.7342C14.7708 19.8618 14.7891 19.9484 14.7891 19.9939C14.7891 20.0395 14.8027 20.0896 14.8301 20.1443C14.8665 20.199 14.8848 20.2355 14.8848 20.2537C14.8848 20.2719 14.8939 20.2902 14.9121 20.3084C14.9303 20.3357 14.9531 20.3676 14.9805 20.4041C15.0078 20.4497 15.0352 20.4907 15.0625 20.5271C15.1354 20.5909 15.1764 20.6228 15.1855 20.6228C15.2038 20.632 15.222 20.6411 15.2402 20.6502C15.2858 20.7049 15.3223 20.7368 15.3496 20.7459C15.3861 20.7641 15.4271 20.7824 15.4727 20.8006C15.5729 20.8462 15.6413 20.8689 15.6777 20.8689C15.7233 20.8689 15.7643 20.8735 15.8008 20.8826C15.8737 20.9008 15.9466 20.91 16.0195 20.91C16.0924 20.9191 16.1654 20.9327 16.2383 20.951C16.2839 20.9601 16.3203 20.9692 16.3477 20.9783C16.375 20.9965 16.4023 21.0102 16.4297 21.0193C16.4753 21.0284 16.5254 21.033 16.5801 21.033C16.6439 21.033 16.6986 21.033 16.7441 21.033C16.8079 21.033 16.8672 21.033 16.9219 21.033C16.9766 21.033 17.0267 21.0284 17.0723 21.0193C17.1178 21.0102 17.1589 20.9965 17.1953 20.9783C17.2318 20.9601 17.2682 20.9419 17.3047 20.9236C17.3776 20.8963 17.4277 20.8735 17.4551 20.8553C17.4824 20.837 17.5098 20.8188 17.5371 20.8006C17.6191 20.7641 17.6784 20.7277 17.7148 20.6912C17.7604 20.6547 17.8014 20.6183 17.8379 20.5818C17.8835 20.5454 17.9382 20.5044 18.002 20.4588C18.0658 20.4223 18.125 20.3813 18.1797 20.3357L18.3711 20.1717C18.4076 20.1443 18.4349 20.1261 18.4531 20.117C18.4805 20.1079 18.5033 20.0942 18.5215 20.076C18.5853 20.0122 18.6309 19.9529 18.6582 19.8982C18.6855 19.8436 18.7038 19.7843 18.7129 19.7205C18.722 19.6567 18.7402 19.5929 18.7676 19.5291C18.7949 19.4835 18.8086 19.4334 18.8086 19.3787C18.8268 19.3058 18.8451 19.2146 18.8633 19.1053C18.8906 19.005 18.9089 18.9047 18.918 18.8045C18.918 18.7316 18.9134 18.6587 18.9043 18.5857C18.8952 18.5128 18.8906 18.4262 18.8906 18.326C18.9089 18.2531 18.918 18.2029 18.918 18.1756C18.9089 18.13 18.8997 18.089 18.8906 18.0525C18.8815 18.0161 18.877 17.9751 18.877 17.9295C18.877 17.8657 18.8815 17.8064 18.8906 17.7518C18.8997 17.7062 18.8997 17.6469 18.8906 17.574C18.8815 17.5102 18.8815 17.4601 18.8906 17.4236C18.8997 17.3963 18.9089 17.3689 18.918 17.3416C18.9271 17.2413 18.9271 17.1411 18.918 17.0408C18.918 16.9406 18.918 16.8403 18.918 16.74C18.9089 16.6398 18.9043 16.5441 18.9043 16.4529C18.9134 16.3618 18.9225 16.2706 18.9316 16.1795C18.9499 15.979 18.9635 15.7876 18.9727 15.6053C18.9818 15.4139 18.9909 15.227 19 15.0447C18.9727 15.0356 18.9499 15.0493 18.9316 15.0857C18.9134 15.1131 18.8952 15.1404 18.877 15.1678C18.804 15.268 18.7585 15.3409 18.7402 15.3865C18.722 15.423 18.7038 15.4594 18.6855 15.4959C18.6491 15.5506 18.6263 15.587 18.6172 15.6053C18.6081 15.6235 18.5898 15.6463 18.5625 15.6736C18.4987 15.7921 18.4303 15.8969 18.3574 15.9881C18.3392 16.0063 18.321 16.0245 18.3027 16.0428C18.2845 16.061 18.2663 16.0792 18.248 16.0975C18.2207 16.1704 18.1797 16.2342 18.125 16.2889C18.1068 16.3071 18.084 16.3208 18.0566 16.3299C18.0384 16.3299 18.0156 16.339 17.9883 16.3572C17.9062 16.4119 17.8607 16.4438 17.8516 16.4529C17.8516 16.4529 17.8424 16.4575 17.8242 16.4666C17.7422 16.5122 17.6829 16.5486 17.6465 16.576C17.61 16.6033 17.5736 16.6261 17.5371 16.6443C17.3913 16.699 17.2728 16.74 17.1816 16.7674C17.0996 16.7856 16.9993 16.7902 16.8809 16.781C16.7988 16.781 16.7259 16.7719 16.6621 16.7537C16.6074 16.7264 16.5436 16.7036 16.4707 16.6853C16.334 16.658 16.2292 16.6352 16.1562 16.617C16.0924 16.5988 16.0378 16.5805 15.9922 16.5623C15.974 16.5441 15.9466 16.5395 15.9102 16.5486C15.8737 16.5486 15.8464 16.5395 15.8281 16.5213C15.737 16.4666 15.6823 16.4347 15.6641 16.4256C15.6458 16.4165 15.6276 16.4028 15.6094 16.3846C15.5273 16.3299 15.4818 16.3025 15.4727 16.3025C15.3906 16.257 15.3359 16.2205 15.3086 16.1932C15.2812 16.1567 15.2539 16.1248 15.2266 16.0975C15.1901 16.0701 15.1582 16.0473 15.1309 16.0291C15.1035 16.0018 15.0716 15.9744 15.0352 15.9471C14.9714 15.8924 14.9121 15.8377 14.8574 15.783C14.8118 15.7192 14.7526 15.6691 14.6797 15.6326C14.6615 15.5962 14.6387 15.5643 14.6113 15.5369C14.584 15.5005 14.5566 15.464 14.5293 15.4275C14.4746 15.3728 14.4382 15.3227 14.4199 15.2771C14.4108 15.2225 14.3926 15.1723 14.3652 15.1268C14.3105 15.0356 14.2741 14.9809 14.2559 14.9627C14.2467 14.9445 14.2422 14.9262 14.2422 14.908C14.224 14.8077 14.2103 14.7531 14.2012 14.7439C14.1921 14.7348 14.1875 14.7212 14.1875 14.7029C14.1784 14.6391 14.1738 14.5708 14.1738 14.4978C14.1829 14.4158 14.1875 14.3475 14.1875 14.2928C14.1784 14.1469 14.1693 14.033 14.1602 13.951C14.151 13.8598 14.1465 13.7687 14.1465 13.6775C14.1556 13.632 14.1647 13.5955 14.1738 13.5682C14.1921 13.5317 14.2012 13.4907 14.2012 13.4451C14.2012 13.4178 14.1966 13.3904 14.1875 13.3631C14.1875 13.3266 14.1875 13.2947 14.1875 13.2674C14.1875 13.0304 14.2057 12.8344 14.2422 12.6795C14.2422 12.6613 14.2422 12.6385 14.2422 12.6111C14.2422 12.5747 14.2467 12.5473 14.2559 12.5291C14.2923 12.4015 14.3151 12.324 14.3242 12.2967C14.3333 12.2602 14.3424 12.2192 14.3516 12.1736C14.3607 12.1463 14.3607 12.1189 14.3516 12.0916C14.3516 12.0643 14.3561 12.0369 14.3652 12.0096C14.4199 11.9002 14.4518 11.8318 14.4609 11.8045C14.4701 11.768 14.4883 11.7316 14.5156 11.6951C14.5521 11.6404 14.5703 11.6085 14.5703 11.5994C14.5794 11.5812 14.5931 11.563 14.6113 11.5447C14.666 11.4718 14.6934 11.4308 14.6934 11.4217C14.7025 11.4126 14.7161 11.3989 14.7344 11.3807C14.8529 11.2804 14.9531 11.1847 15.0352 11.0936C15.1172 11.0024 15.2083 10.9204 15.3086 10.8475C15.3724 10.811 15.4134 10.7882 15.4316 10.7791C15.4499 10.7609 15.4681 10.7426 15.4863 10.7244C15.5137 10.7062 15.541 10.6971 15.5684 10.6971C15.5957 10.688 15.6185 10.6743 15.6367 10.656C15.7096 10.6105 15.7507 10.5922 15.7598 10.6014C15.7689 10.6014 15.7826 10.5968 15.8008 10.5877C15.8555 10.5695 15.9056 10.5467 15.9512 10.5193C15.9967 10.4829 16.0423 10.4555 16.0879 10.4373C16.1152 10.4191 16.1426 10.41 16.1699 10.41C16.1973 10.41 16.2292 10.4008 16.2656 10.3826C16.2839 10.3735 16.3021 10.3644 16.3203 10.3553C16.3477 10.3462 16.3796 10.337 16.416 10.3279C16.4889 10.2915 16.5436 10.2687 16.5801 10.2596C16.6074 10.2505 16.6348 10.2413 16.6621 10.2322C16.6895 10.2231 16.7168 10.214 16.7441 10.2049C16.7806 10.2049 16.8171 10.2049 16.8535 10.2049C16.89 10.2049 16.9264 10.2003 16.9629 10.1912C17.0085 10.1821 17.054 10.173 17.0996 10.1639C17.1543 10.1456 17.2181 10.1456 17.291 10.1639C17.3092 10.1639 17.3275 10.1684 17.3457 10.1775C17.373 10.1866 17.4049 10.1912 17.4414 10.1912C17.4779 10.1912 17.5234 10.1912 17.5781 10.1912C17.6419 10.1912 17.6921 10.1958 17.7285 10.2049C17.8288 10.296 17.8971 10.3507 17.9336 10.3689C18.0065 10.4054 18.0521 10.4282 18.0703 10.4373C18.0885 10.4464 18.1068 10.4601 18.125 10.4783C18.1523 10.5057 18.1751 10.533 18.1934 10.5603C18.2207 10.5786 18.2435 10.5968 18.2617 10.615C18.3164 10.6788 18.3483 10.7199 18.3574 10.7381C18.3757 10.7563 18.3939 10.7791 18.4121 10.8064C18.4577 10.8794 18.485 10.9249 18.4941 10.9432C18.5124 10.9523 18.5306 10.9659 18.5488 10.9842C18.64 11.0662 18.7129 11.1437 18.7676 11.2166C18.7949 11.2622 18.8177 11.3077 18.8359 11.3533C18.8633 11.3898 18.8997 11.4217 18.9453 11.449C18.9635 11.4034 18.9635 11.3533 18.9453 11.2986C18.9362 11.2439 18.9316 11.1893 18.9316 11.1346C18.9316 11.1163 18.9316 11.0844 18.9316 11.0389C18.9408 10.9933 18.9408 10.9477 18.9316 10.9021C18.9225 10.8657 18.9134 10.8383 18.9043 10.8201C18.8952 10.7928 18.8861 10.7654 18.877 10.7381C18.8678 10.7107 18.8633 10.6834 18.8633 10.656C18.8633 10.6196 18.8587 10.5877 18.8496 10.5603C18.8405 10.533 18.8314 10.5057 18.8223 10.4783C18.8223 10.4419 18.8177 10.41 18.8086 10.3826C18.7995 10.3279 18.7812 10.2778 18.7539 10.2322C18.7357 10.1775 18.763 10.1274 18.8359 10.0818C18.9453 10.1547 19.0592 10.1866 19.1777 10.1775C19.2962 10.1593 19.4102 10.1456 19.5195 10.1365C19.5924 10.1365 19.6608 10.1411 19.7246 10.1502C19.7975 10.1593 19.8704 10.1639 19.9434 10.1639C19.998 10.1639 20.0527 10.1593 20.1074 10.1502C20.1621 10.1411 20.2168 10.132 20.2715 10.1228C20.3444 10.1137 20.4082 10.1092 20.4629 10.1092C20.5267 10.1092 20.5905 10.1046 20.6543 10.0955C20.709 10.0864 20.7637 10.0773 20.8184 10.0682C20.873 10.0499 20.9323 10.0363 20.9961 10.0271C21.0599 10.018 21.1237 10.018 21.1875 10.0271C21.2513 10.0271 21.3105 10.018 21.3652 9.9998ZM17.1406 10.5603C17.0768 10.5512 17.0221 10.5512 16.9766 10.5603C16.931 10.5695 16.8991 10.574 16.8809 10.574C16.8262 10.574 16.7715 10.574 16.7168 10.574C16.6621 10.5649 16.612 10.5695 16.5664 10.5877C16.5391 10.5968 16.5072 10.6105 16.4707 10.6287C16.4434 10.6378 16.416 10.6515 16.3887 10.6697C16.3522 10.688 16.3112 10.7016 16.2656 10.7107C16.2292 10.7199 16.1973 10.7335 16.1699 10.7518C16.0788 10.8156 16.0241 10.8475 16.0059 10.8475C15.9421 10.9204 15.901 10.9614 15.8828 10.9705C15.8646 10.9705 15.8509 10.9751 15.8418 10.9842C15.778 11.0753 15.737 11.13 15.7188 11.1482C15.6732 11.2667 15.6276 11.3579 15.582 11.4217C15.5456 11.4855 15.5091 11.5493 15.4727 11.6131C15.4544 11.6404 15.4408 11.6723 15.4316 11.7088C15.4225 11.7452 15.4089 11.7817 15.3906 11.8182C15.3724 11.8546 15.3542 11.8865 15.3359 11.9139C15.3177 11.9412 15.304 11.9731 15.2949 12.0096C15.2767 12.0551 15.2676 12.1053 15.2676 12.16C15.2676 12.2055 15.263 12.2511 15.2539 12.2967C15.2448 12.3878 15.2357 12.4744 15.2266 12.5564C15.2266 12.6385 15.2311 12.7251 15.2402 12.8162C15.2493 12.962 15.2493 13.0669 15.2402 13.1307C15.2402 13.1945 15.2402 13.2628 15.2402 13.3357C15.2493 13.4087 15.2585 13.477 15.2676 13.5408C15.2767 13.6046 15.2858 13.673 15.2949 13.7459C15.2949 13.8097 15.2904 13.8689 15.2812 13.9236C15.2812 13.9783 15.2858 14.0284 15.2949 14.074C15.2949 14.1105 15.2995 14.1424 15.3086 14.1697C15.3268 14.1971 15.3451 14.2335 15.3633 14.2791C15.3724 14.3156 15.377 14.3566 15.377 14.4021C15.377 14.4386 15.3815 14.4796 15.3906 14.5252C15.3997 14.5616 15.4089 14.5981 15.418 14.6346C15.4271 14.6619 15.4362 14.6984 15.4453 14.7439C15.4544 14.7804 15.459 14.8214 15.459 14.867C15.459 14.9034 15.4635 14.9445 15.4727 14.99C15.5182 15.0812 15.5456 15.1495 15.5547 15.1951C15.5638 15.2316 15.5775 15.2726 15.5957 15.3182L15.6777 15.4822C15.696 15.5734 15.7142 15.6326 15.7324 15.66C15.8053 15.7602 15.8555 15.8195 15.8828 15.8377C15.9375 15.8924 16.0104 15.9425 16.1016 15.9881C16.1471 16.0245 16.1927 16.061 16.2383 16.0975C16.2839 16.1248 16.3203 16.143 16.3477 16.1521C16.4206 16.1795 16.4889 16.1932 16.5527 16.1932C16.6257 16.1932 16.6849 16.1932 16.7305 16.1932C16.8216 16.184 16.8809 16.1704 16.9082 16.1521C16.9447 16.1339 16.9993 16.102 17.0723 16.0564C17.127 16.0291 17.1816 16.0018 17.2363 15.9744C17.291 15.938 17.3366 15.906 17.373 15.8787C17.4277 15.8331 17.4779 15.7921 17.5234 15.7557C17.5781 15.7101 17.6283 15.6736 17.6738 15.6463C17.7832 15.5734 17.8652 15.5096 17.9199 15.4549C17.9746 15.3911 18.0293 15.3273 18.084 15.2635C18.1113 15.2361 18.1432 15.186 18.1797 15.1131C18.207 15.0766 18.2344 15.0402 18.2617 15.0037C18.2891 14.9581 18.321 14.9262 18.3574 14.908C18.4121 14.8351 18.4486 14.7804 18.4668 14.7439C18.4941 14.7075 18.5169 14.671 18.5352 14.6346C18.5807 14.5708 18.6217 14.507 18.6582 14.4432C18.7038 14.3702 18.7402 14.3019 18.7676 14.2381C18.8314 14.156 18.8724 14.074 18.8906 13.992C18.9089 13.9555 18.918 13.9145 18.918 13.8689C18.918 13.8234 18.9225 13.7778 18.9316 13.7322C18.9499 13.6228 18.959 13.5044 18.959 13.3768C18.959 13.2491 18.9499 13.1352 18.9316 13.035C18.9225 12.9985 18.9134 12.9666 18.9043 12.9393C18.9043 12.9119 18.8997 12.8755 18.8906 12.8299C18.8815 12.7661 18.8815 12.7023 18.8906 12.6385C18.8997 12.5656 18.8952 12.4972 18.877 12.4334C18.8678 12.3878 18.8496 12.3468 18.8223 12.3103C18.804 12.2739 18.7858 12.2329 18.7676 12.1873C18.7493 12.1417 18.7266 12.1007 18.6992 12.0643C18.6719 12.0187 18.6491 11.9731 18.6309 11.9275C18.5579 11.882 18.4987 11.8273 18.4531 11.7635C18.4167 11.6906 18.3711 11.6222 18.3164 11.5584L18.1523 11.3943C18.1159 11.3579 18.0794 11.3214 18.043 11.285C18.0156 11.2485 17.9883 11.2166 17.9609 11.1893C17.9062 11.1255 17.8743 11.089 17.8652 11.0799C17.8652 11.0616 17.8607 11.048 17.8516 11.0389C17.8333 11.0024 17.8105 10.9659 17.7832 10.9295C17.765 10.893 17.7467 10.8566 17.7285 10.8201C17.6829 10.7745 17.6374 10.7426 17.5918 10.7244C17.5462 10.6971 17.5052 10.6606 17.4688 10.615C17.4049 10.615 17.3457 10.6059 17.291 10.5877C17.2454 10.5695 17.1953 10.5603 17.1406 10.5603Z" fill="#131313"/>
</svg>
