<svg width="24" height="24" viewBox="0 0 24 24" fill="none" xmlns="http://www.w3.org/2000/svg">
<path d="M11.7911 15.88C11.8284 16.02 11.9218 16.1507 12.0711 16.272C12.2298 16.384 12.4024 16.44 12.5891 16.44V17.042C11.7491 16.986 11.1611 16.958 10.8251 16.958C10.4798 16.958 9.88708 16.986 9.04708 17.042V16.44C9.41108 16.4307 9.66308 16.384 9.80308 16.3C9.95243 16.2067 10.0271 16.076 10.0271 15.908C10.0271 15.8147 10.0038 15.698 9.95709 15.558L9.63508 14.438H6.83508L6.49908 15.558C6.43375 15.754 6.40108 15.9033 6.40108 16.006C6.40108 16.146 6.46642 16.2533 6.59708 16.328C6.72775 16.3933 6.97042 16.4307 7.32508 16.44V17.042C6.80242 16.9953 6.34508 16.972 5.95308 16.972C5.58908 16.972 5.17842 16.9953 4.72108 17.042V16.44C4.89842 16.44 5.06175 16.384 5.21108 16.272C5.36975 16.1507 5.47708 16.02 5.53308 15.88L7.82908 8.20801H9.39708L11.7911 15.88ZM9.43908 13.766L8.27708 9.74801H8.22109L7.03108 13.766H9.43908ZM18.727 11.54C18.5497 11.54 18.3677 11.554 18.181 11.582C18.293 11.834 18.349 12.1187 18.349 12.436C18.349 13.3227 18.111 13.99 17.635 14.438C17.159 14.886 16.5383 15.11 15.773 15.11C15.4557 15.11 15.1803 15.0773 14.947 15.012C14.7977 15.1333 14.723 15.2733 14.723 15.432C14.723 15.7307 15.031 15.88 15.647 15.88H17.341C17.9383 15.88 18.391 16.02 18.699 16.3C19.007 16.5707 19.161 16.944 19.161 17.42C19.161 17.8493 19.0303 18.2553 18.769 18.638C18.5077 19.03 18.1297 19.3427 17.635 19.576C17.1403 19.8187 16.5617 19.94 15.899 19.94C15.0963 19.94 14.4477 19.7907 13.953 19.492C13.4583 19.2027 13.211 18.8013 13.211 18.288C13.211 17.98 13.2903 17.6907 13.449 17.42C13.617 17.1587 13.8317 16.9393 14.093 16.762C13.897 16.5473 13.799 16.272 13.799 15.936C13.799 15.7027 13.855 15.488 13.967 15.292C14.079 15.0867 14.233 14.928 14.429 14.816C13.7943 14.4613 13.477 13.8313 13.477 12.926C13.477 12.0487 13.7243 11.3767 14.219 10.91C14.723 10.4433 15.353 10.21 16.109 10.21C16.4917 10.21 16.837 10.2613 17.145 10.364L17.201 10.392L17.257 10.406C17.621 10.5553 17.9617 10.672 18.279 10.756C18.6057 10.8307 18.937 10.868 19.273 10.868V11.554L18.727 11.54ZM16.011 14.522C16.3097 14.522 16.529 14.3353 16.669 13.962C16.8183 13.5887 16.893 13.1127 16.893 12.534C16.893 11.3767 16.5477 10.798 15.857 10.798C15.5583 10.798 15.3343 10.994 15.185 11.386C15.045 11.7687 14.975 12.2587 14.975 12.856C14.975 13.3973 15.0543 13.8127 15.213 14.102C15.3717 14.382 15.6377 14.522 16.011 14.522ZM15.647 17.266C15.3483 17.266 15.087 17.238 14.863 17.182C14.6763 17.434 14.583 17.7233 14.583 18.05C14.583 18.3673 14.723 18.6427 15.003 18.876C15.2923 19.1187 15.7217 19.24 16.291 19.24C16.739 19.24 17.1403 19.1187 17.495 18.876C17.8497 18.6427 18.027 18.3487 18.027 17.994C18.027 17.742 17.9477 17.5553 17.789 17.434C17.6303 17.322 17.3737 17.266 17.019 17.266H15.647Z" fill="#131313"/>
</svg>
