<svg width="24" height="24" viewBox="0 0 24 24" fill="none" xmlns="http://www.w3.org/2000/svg">
<path d="M5.79248 18.0442C5.38181 18.0442 4.99914 17.9462 4.64448 17.7502C4.28981 17.5542 4.00514 17.2742 3.79048 16.9102C3.58514 16.5462 3.48248 16.1122 3.48248 15.6082C3.48248 15.1602 3.58048 14.6655 3.77648 14.1242C3.97248 13.5922 4.26648 13.1115 4.65848 12.6822C5.05048 12.2529 5.48448 11.9122 5.96048 11.6602C6.43648 11.3989 6.89848 11.2682 7.34648 11.2682C7.72914 11.2682 8.06048 11.3989 8.34048 11.6602C8.62981 11.9122 8.77448 12.2902 8.77448 12.7942C8.77448 13.0369 8.73248 13.3075 8.64848 13.6062C8.49914 14.1195 8.28914 14.5255 8.01848 14.8242C7.74781 15.1229 7.46781 15.3375 7.17848 15.4682C6.88914 15.5895 6.62781 15.6502 6.39448 15.6502C6.06781 15.6502 5.87181 15.5709 5.80648 15.4122C5.79714 15.3935 5.79248 15.3702 5.79248 15.3422C5.79248 15.2862 5.81581 15.2582 5.86248 15.2582C5.90914 15.2582 5.93248 15.2862 5.93248 15.3422C5.95114 15.4729 6.09581 15.5382 6.36648 15.5382C6.55314 15.5382 6.76781 15.4822 7.01048 15.3702C7.26248 15.2582 7.50514 15.0669 7.73848 14.7962C7.98114 14.5162 8.17248 14.1289 8.31248 13.6342C8.40581 13.3169 8.45248 13.0229 8.45248 12.7522C8.45248 12.3135 8.34048 11.9869 8.11648 11.7722C7.89248 11.5482 7.62181 11.4362 7.30448 11.4362C6.84714 11.4362 6.42248 11.5715 6.03048 11.8422C5.63848 12.1129 5.29314 12.4582 4.99448 12.8782C4.70514 13.2982 4.47648 13.7415 4.30848 14.2082C4.20581 14.4975 4.13114 14.7729 4.08448 15.0342C4.03781 15.2955 4.01448 15.5429 4.01448 15.7762C4.01448 16.4109 4.17314 16.9149 4.49048 17.2882C4.81714 17.6709 5.26048 17.8622 5.82048 17.8622C6.38048 17.8622 6.92181 17.7222 7.44448 17.4422C7.96714 17.1622 8.46648 16.7795 8.94248 16.2942C9.42781 15.8182 9.88514 15.2815 10.3145 14.6842C10.7438 14.0869 11.1405 13.4662 11.5045 12.8222C11.6445 12.5795 11.7798 12.3509 11.9105 12.1362C12.0505 11.9122 12.1858 11.7022 12.3165 11.5062C11.7751 11.4969 11.2665 11.5855 10.7905 11.7722C10.3238 11.9589 9.96914 12.3275 9.72648 12.8782C9.70781 12.9249 9.67048 12.9715 9.61448 13.0182C9.55848 13.0649 9.51181 13.0882 9.47448 13.0882C9.45581 13.0882 9.44648 13.0742 9.44648 13.0462C9.44648 12.9809 9.48381 12.8875 9.55848 12.7662C9.91314 12.1409 10.3471 11.7302 10.8605 11.5342C11.3831 11.3289 11.9198 11.2355 12.4705 11.2542C13.0491 10.3955 13.5905 9.69552 14.0945 9.15419C14.6078 8.61286 15.0745 8.19286 15.4945 7.89419C15.9145 7.59552 16.2738 7.39019 16.5725 7.27819C16.8711 7.15686 17.0951 7.09619 17.2445 7.09619C17.2631 7.09619 17.2305 7.19419 17.1465 7.39019C17.0625 7.57686 16.9505 7.83352 16.8105 8.16019C16.6705 8.47752 16.5071 8.83686 16.3205 9.23819C16.1338 9.63019 15.9425 10.0362 15.7465 10.4562C15.5598 10.8669 15.3778 11.2589 15.2005 11.6322C15.2471 11.6415 15.2938 11.6462 15.3405 11.6462C15.3965 11.6462 15.4478 11.6462 15.4945 11.6462C15.6251 11.6462 15.7418 11.6369 15.8445 11.6182C15.9471 11.5995 16.0358 11.5669 16.1105 11.5202C16.2131 11.4642 16.2831 11.4362 16.3205 11.4362C16.3578 11.4362 16.3765 11.4502 16.3765 11.4782C16.3765 11.5155 16.3298 11.5669 16.2365 11.6322C16.1431 11.6975 16.0311 11.7442 15.9005 11.7722C15.7698 11.7909 15.6251 11.8002 15.4665 11.8002C15.4105 11.8002 15.3545 11.8002 15.2985 11.8002C15.2425 11.8002 15.1818 11.7955 15.1165 11.7862C14.8925 12.2622 14.6638 12.7382 14.4305 13.2142C14.1971 13.6809 13.9918 14.1615 13.8145 14.6562C13.6838 15.0482 13.6185 15.3422 13.6185 15.5382C13.6185 15.7809 13.7071 15.9022 13.8845 15.9022C14.0991 15.9022 14.4305 15.7202 14.8785 15.3562C15.2051 15.0855 15.5411 14.7542 15.8865 14.3622C16.2318 13.9702 16.5211 13.5782 16.7545 13.1862C16.7545 13.1769 16.7545 13.1722 16.7545 13.1722C16.7638 13.1722 16.7685 13.1722 16.7685 13.1722C16.7965 13.1722 16.8245 13.1909 16.8525 13.2282C16.8898 13.2562 16.8991 13.2795 16.8805 13.2982C16.6658 13.6715 16.3905 14.0589 16.0545 14.4602C15.7185 14.8522 15.3778 15.1882 15.0325 15.4682C14.7991 15.6549 14.5798 15.7949 14.3745 15.8882C14.1785 15.9815 14.0011 16.0282 13.8425 16.0282C13.6651 16.0282 13.5205 15.9629 13.4085 15.8322C13.2965 15.6922 13.2405 15.4869 13.2405 15.2162C13.2405 14.9642 13.2871 14.6795 13.3805 14.3622C13.5111 13.9142 13.6745 13.4709 13.8705 13.0322C14.0665 12.5842 14.2671 12.1502 14.4725 11.7302C14.1645 11.6835 13.8425 11.6369 13.5065 11.5902C13.1705 11.5435 12.8391 11.5155 12.5125 11.5062C12.3631 11.7209 12.2138 11.9495 12.0645 12.1922C11.9245 12.4349 11.7798 12.6869 11.6305 12.9482C11.0705 13.9469 10.4731 14.8335 9.83848 15.6082C9.20381 16.3735 8.54581 16.9709 7.86448 17.4002C7.19248 17.8295 6.50181 18.0442 5.79248 18.0442ZM14.5705 11.5342C15.0091 10.6755 15.4291 9.90086 15.8305 9.21019C16.2318 8.51952 16.5211 7.97819 16.6985 7.58619C16.7451 7.50219 16.6705 7.48819 16.4745 7.54419C16.2785 7.60019 15.9891 7.75886 15.6065 8.02019C15.2331 8.28152 14.7945 8.67819 14.2905 9.21019C13.7865 9.73286 13.2451 10.4189 12.6665 11.2682C13.0025 11.2775 13.3291 11.3149 13.6465 11.3802C13.9731 11.4362 14.2811 11.4875 14.5705 11.5342ZM15.0223 20.4662C14.789 20.4662 14.5976 20.4102 14.4483 20.2982C14.2896 20.1955 14.2103 20.0415 14.2103 19.8362C14.2103 19.7055 14.2476 19.5609 14.3223 19.4022C14.3876 19.2435 14.4996 19.0709 14.6583 18.8842C14.9103 18.5762 15.2463 18.2869 15.6663 18.0162C16.0863 17.7549 16.5203 17.5029 16.9683 17.2602C17.4163 17.0269 17.813 16.8029 18.1583 16.5882C18.233 16.3549 18.3076 16.0935 18.3823 15.8042C18.4663 15.5149 18.541 15.2395 18.6063 14.9782C18.429 15.2675 18.2143 15.5242 17.9623 15.7482C17.7196 15.9629 17.4256 16.0702 17.0803 16.0702C16.819 16.0702 16.5996 15.9722 16.4223 15.7762C16.245 15.5802 16.1563 15.2675 16.1563 14.8382C16.1563 14.6609 16.1796 14.4649 16.2263 14.2502C16.273 14.0355 16.343 13.8115 16.4363 13.5782C16.5296 13.3355 16.6696 13.0882 16.8563 12.8362C17.0523 12.5749 17.2856 12.3602 17.5563 12.1922C17.827 12.0149 18.1303 11.9262 18.4663 11.9262C18.821 11.9262 19.0683 11.9915 19.2083 12.1222C19.3483 12.2529 19.4323 12.3555 19.4603 12.4302C19.4696 12.4489 19.4743 12.4722 19.4743 12.5002C19.4743 12.5655 19.4416 12.5982 19.3763 12.5982C19.339 12.5982 19.3063 12.5795 19.2783 12.5422C19.1476 12.3835 19.017 12.2715 18.8863 12.2062C18.765 12.1409 18.6436 12.1082 18.5223 12.1082C18.2983 12.1082 18.0883 12.1969 17.8923 12.3742C17.6963 12.5515 17.5236 12.7662 17.3743 13.0182C17.225 13.2609 17.099 13.4895 16.9963 13.7042C16.9403 13.8255 16.875 14.0215 16.8003 14.2922C16.7256 14.5629 16.6883 14.8289 16.6883 15.0902C16.6883 15.3049 16.7256 15.4915 16.8003 15.6502C16.875 15.7995 17.015 15.8742 17.2203 15.8742C17.463 15.8742 17.687 15.7855 17.8923 15.6082C18.0976 15.4215 18.275 15.2069 18.4243 14.9642C18.583 14.7215 18.7043 14.5069 18.7883 14.3202C19.0776 13.6855 19.3343 13.1442 19.5583 12.6962C19.7823 12.2389 19.983 11.9122 20.1603 11.7162C20.319 11.5482 20.4496 11.4642 20.5523 11.4642C20.6643 11.4642 20.7203 11.5342 20.7203 11.6742C20.7203 11.8049 20.6643 11.9262 20.5523 12.0382C20.4216 12.1689 20.2536 12.3322 20.0483 12.5282C19.843 12.7149 19.661 12.9529 19.5023 13.2422C19.2223 13.7649 19.0356 14.2875 18.9423 14.8102C18.849 15.3329 18.751 15.8555 18.6483 16.3782C19.1523 16.0422 19.5676 15.7249 19.8943 15.4262C20.221 15.1275 20.5056 14.8289 20.7483 14.5302C20.991 14.2222 21.2336 13.8955 21.4763 13.5502C21.5043 13.5129 21.537 13.4942 21.5743 13.4942C21.621 13.4942 21.6443 13.5222 21.6443 13.5782C21.6443 13.6249 21.6256 13.6715 21.5883 13.7182C21.383 13.9982 21.1496 14.3015 20.8883 14.6282C20.627 14.9455 20.3096 15.2815 19.9363 15.6362C19.5723 15.9815 19.1196 16.3362 18.5783 16.7002C18.429 17.4282 18.1863 18.0302 17.8503 18.5062C17.5143 18.9915 17.155 19.3742 16.7723 19.6542C16.399 19.9435 16.0676 20.1535 15.7783 20.2842C15.5263 20.4055 15.2743 20.4662 15.0223 20.4662ZM14.9523 20.2562C15.2136 20.2562 15.4656 20.1815 15.7083 20.0322C16.203 19.7335 16.6463 19.3275 17.0383 18.8142C17.4303 18.3102 17.7663 17.6662 18.0463 16.8822C17.7196 17.0689 17.3556 17.2695 16.9543 17.4842C16.5623 17.7082 16.1843 17.9415 15.8203 18.1842C15.4563 18.4362 15.1576 18.7115 14.9243 19.0102C14.7656 19.2062 14.6536 19.3742 14.5883 19.5142C14.5136 19.6635 14.4763 19.7895 14.4763 19.8922C14.4763 20.0135 14.523 20.1022 14.6163 20.1582C14.7096 20.2235 14.8216 20.2562 14.9523 20.2562Z" fill="#131313"/>
</svg>
