<svg width="24" height="24" viewBox="0 0 24 24" fill="none" xmlns="http://www.w3.org/2000/svg">
<path d="M2.64554 17.0001C2.58954 17.0001 2.56154 16.9721 2.56154 16.9161V16.8041C2.56154 16.7481 2.58954 16.7154 2.64554 16.7061L3.93354 16.5801C3.99887 16.5708 4.05487 16.5474 4.10154 16.5101C4.14821 16.4634 4.18087 16.4074 4.19954 16.3421L7.85354 6.86413C7.87221 6.80813 7.90954 6.7708 7.96554 6.75213L8.17554 6.71013C8.23154 6.69146 8.26421 6.71013 8.27354 6.76613L8.39954 7.29813L12.0955 16.3981C12.1142 16.4541 12.1515 16.5008 12.2075 16.5381C12.2729 16.5661 12.3382 16.5848 12.4035 16.5941L13.6495 16.7061C13.7055 16.7154 13.7335 16.7481 13.7335 16.8041V16.9161C13.7335 16.9721 13.7055 17.0001 13.6495 17.0001H9.67354C9.61754 17.0001 9.58954 16.9721 9.58954 16.9161V16.8041C9.58954 16.7481 9.61754 16.7201 9.67354 16.7201L11.0735 16.6081C11.2882 16.5894 11.4095 16.5381 11.4375 16.4541C11.4749 16.3608 11.4562 16.2208 11.3815 16.0341L7.83954 7.31213L8.11954 7.35413L4.78754 16.0761C4.71287 16.2721 4.70821 16.4074 4.77354 16.4821C4.83887 16.5474 4.97421 16.5894 5.17954 16.6081L6.62154 16.7201C6.67754 16.7201 6.70554 16.7481 6.70554 16.8041V16.9161C6.70554 16.9721 6.67754 17.0001 6.62154 17.0001H2.64554ZM5.86554 12.5761C6.60287 12.5854 7.33554 12.5901 8.06354 12.5901C8.79154 12.5901 9.52421 12.5854 10.2615 12.5761V12.9821C9.52421 12.9914 8.79154 12.9961 8.06354 12.9961C7.33554 12.9961 6.60287 12.9914 5.86554 12.9821V12.5761ZM17.5196 20.1781C16.5862 20.1781 15.8676 20.0148 15.3636 19.6881C14.8596 19.3614 14.6076 18.8994 14.6076 18.3021C14.6076 18.0221 14.6916 17.7701 14.8596 17.5461C15.0276 17.3314 15.2329 17.1494 15.4756 17.0001C15.7182 16.8601 15.9469 16.7574 16.1616 16.6921L16.5256 16.7761C16.0496 16.9534 15.6949 17.1634 15.4616 17.4061C15.2282 17.6581 15.1116 17.9428 15.1116 18.2601C15.1116 18.7268 15.3216 19.0861 15.7416 19.3381C16.1616 19.5901 16.7542 19.7161 17.5196 19.7161C19.3676 19.7161 20.2916 19.1374 20.2916 17.9801C20.2916 17.6534 20.1702 17.3921 19.9276 17.1961C19.6849 17.0001 19.3582 16.9021 18.9476 16.9021H17.1556C16.5302 16.9021 16.0729 16.8041 15.7836 16.6081C15.4942 16.4121 15.3496 16.1088 15.3496 15.6981C15.3496 15.5394 15.3822 15.3948 15.4476 15.2641C15.5129 15.1334 15.6296 15.0028 15.7976 14.8721C15.9749 14.7321 16.2129 14.5688 16.5116 14.3821L16.7496 14.4801C16.4322 14.7041 16.2036 14.9094 16.0636 15.0961C15.9329 15.2734 15.8676 15.4694 15.8676 15.6841C15.8676 15.9361 15.9749 16.1274 16.1896 16.2581C16.4042 16.3794 16.7262 16.4401 17.1556 16.4401H18.9476C19.5356 16.4401 19.9929 16.5754 20.3196 16.8461C20.6462 17.1074 20.8096 17.4854 20.8096 17.9801C20.8096 18.4374 20.6789 18.8294 20.4176 19.1561C20.1562 19.4921 19.7782 19.7441 19.2836 19.9121C18.7982 20.0894 18.2102 20.1781 17.5196 20.1781ZM17.5336 14.3121C18.2242 14.3121 18.7562 14.1488 19.1296 13.8221C19.5122 13.4861 19.7036 13.0148 19.7036 12.4081C19.7036 11.8294 19.5076 11.3768 19.1156 11.0501C18.7236 10.7141 18.1916 10.5461 17.5196 10.5461C16.9129 10.5461 16.4229 10.7188 16.0496 11.0641C15.6856 11.4001 15.5036 11.8481 15.5036 12.4081C15.5036 12.9774 15.6856 13.4394 16.0496 13.7941C16.4229 14.1394 16.9176 14.3121 17.5336 14.3121ZM18.6676 10.3221C19.1436 10.4434 19.5169 10.6908 19.7876 11.0641C20.0582 11.4374 20.1936 11.8854 20.1936 12.4081C20.1936 12.8841 20.0816 13.2994 19.8576 13.6541C19.6429 13.9994 19.3349 14.2701 18.9336 14.4661C18.5416 14.6528 18.0749 14.7461 17.5336 14.7461C17.0296 14.7461 16.5862 14.6481 16.2036 14.4521C15.8302 14.2561 15.5362 13.9854 15.3216 13.6401C15.1162 13.2854 15.0136 12.8748 15.0136 12.4081C15.0136 11.9414 15.1162 11.5354 15.3216 11.1901C15.5362 10.8448 15.8349 10.5788 16.2176 10.3921C16.6096 10.2054 17.0669 10.1121 17.5896 10.1121C17.8602 10.1121 18.1776 10.1261 18.5416 10.1541C18.9056 10.1728 19.3489 10.2008 19.8716 10.2381L19.4096 10.3081L20.8376 9.91613C20.8936 9.89746 20.9402 9.91146 20.9776 9.95813C21.0242 10.0328 21.0709 10.1121 21.1176 10.1961C21.1736 10.2801 21.2156 10.3734 21.2436 10.4761C21.2529 10.5321 21.2296 10.5601 21.1736 10.5601H18.6396L18.6676 10.3221Z" fill="#131313"/>
</svg>
