<svg width="24" height="24" viewBox="0 0 24 24" fill="none" xmlns="http://www.w3.org/2000/svg">
<path d="M2.9122 16.4822C2.9122 16.4449 2.92154 16.3982 2.9402 16.3422L3.8922 13.8222H3.3182C3.0662 13.8222 2.9402 13.6449 2.9402 13.2902C2.9402 13.1502 2.97287 13.0335 3.0382 12.9402C3.10354 12.8375 3.19687 12.7862 3.3182 12.7862H4.2842L6.2302 7.6902C6.30487 7.54087 6.40754 7.4242 6.5382 7.3402C6.66887 7.24687 6.78554 7.2002 6.8882 7.2002C6.99087 7.2002 7.10754 7.24687 7.2382 7.3402C7.36887 7.43353 7.46687 7.5502 7.5322 7.6902L9.4782 12.7862H10.3882C10.5095 12.7862 10.6029 12.8375 10.6682 12.9402C10.7429 13.0429 10.7802 13.1642 10.7802 13.3042C10.7802 13.6495 10.6495 13.8222 10.3882 13.8222H9.8842L10.8502 16.3422C10.8689 16.3982 10.8782 16.4449 10.8782 16.4822C10.8782 16.6222 10.8082 16.7435 10.6682 16.8462C10.5282 16.9489 10.3882 17.0002 10.2482 17.0002C10.0989 17.0002 9.98687 16.9302 9.9122 16.7902L8.7782 13.8222H5.0122L3.8782 16.7902C3.80354 16.9302 3.69154 17.0002 3.5422 17.0002C3.4022 17.0002 3.2622 16.9489 3.1222 16.8462C2.9822 16.7435 2.9122 16.6222 2.9122 16.4822ZM5.4042 12.7862H8.3722L6.8882 8.8802L5.4042 12.7862ZM11.8816 14.4522C11.8816 13.2015 12.3716 12.1235 13.3516 11.2182C14.3316 10.3129 15.4423 9.8602 16.6836 9.8602C17.4583 9.8602 18.1349 10.1355 18.7136 10.6862V10.3642C18.7136 10.1122 18.8909 9.9862 19.2456 9.9862C19.3856 9.9862 19.5023 10.0189 19.5956 10.0842C19.6983 10.1495 19.7496 10.2429 19.7496 10.3642V17.0702C19.7496 18.1622 19.3949 19.0162 18.6856 19.6322C17.9763 20.2575 17.1503 20.5702 16.2076 20.5702C15.4609 20.5702 14.8356 20.4395 14.3316 20.1782C13.8276 19.9169 13.5709 19.4829 13.5616 18.8762C13.5616 18.7269 13.6083 18.6102 13.7016 18.5262C13.7949 18.4515 13.9116 18.4142 14.0516 18.4142C14.2009 18.4142 14.3269 18.4562 14.4296 18.5402C14.5416 18.6242 14.5976 18.7315 14.5976 18.8622C14.5976 19.0209 14.6396 19.1469 14.7236 19.2402C14.8169 19.3429 14.9616 19.4129 15.1576 19.4502C15.3536 19.4875 15.5216 19.5109 15.6616 19.5202C15.8109 19.5295 16.0163 19.5342 16.2776 19.5342C16.9403 19.5342 17.5096 19.3335 17.9856 18.9322C18.4709 18.5309 18.7136 17.9429 18.7136 17.1682V14.3262C17.9576 15.3062 17.2343 16.0155 16.5436 16.4542C15.8623 16.8929 15.1576 17.1122 14.4296 17.1122C13.7576 17.1122 13.1649 16.8415 12.6516 16.3002C12.1383 15.7495 11.8816 15.1335 11.8816 14.4522ZM12.8896 14.4802C12.8896 15.0122 13.0763 15.4182 13.4496 15.6982C13.8229 15.9689 14.2196 16.1042 14.6396 16.1042C15.1249 16.1042 15.6803 15.8662 16.3056 15.3902C16.9309 14.9049 17.4489 14.3682 17.8596 13.7802C18.2796 13.1829 18.4896 12.7162 18.4896 12.3802C18.4896 12.1002 18.4056 11.8529 18.2376 11.6382C18.0789 11.4142 17.8783 11.2509 17.6356 11.1482C17.4023 11.0455 17.1876 10.9709 16.9916 10.9242C16.7956 10.8682 16.6323 10.8402 16.5016 10.8402C15.5869 10.8402 14.7563 11.2089 14.0096 11.9462C13.2629 12.6742 12.8896 13.5189 12.8896 14.4802Z" fill="#131313"/>
</svg>
