<svg width="24" height="24" viewBox="0 0 24 24" fill="none" xmlns="http://www.w3.org/2000/svg">
<path d="M9.41536 6.10189C9.48069 6.11122 9.56469 6.21856 9.66736 6.42389L9.84936 7.03989C10.232 8.33722 11.0347 10.8106 12.2574 14.4599C12.3134 14.6372 12.5234 14.7866 12.8874 14.9079C12.9714 14.9826 13.0134 15.1039 13.0134 15.2719C13.0134 15.4119 13.0087 15.5519 12.9994 15.6919C12.99 15.8599 12.934 15.9626 12.8314 15.9999L12.5514 16.0419L9.14936 16.0279C9.01869 16.0186 8.94869 15.9439 8.93936 15.8039C8.93936 15.7666 8.93003 15.6639 8.91136 15.4959C8.89269 15.3652 8.89269 15.2626 8.91136 15.1879C8.93003 15.0852 8.97669 15.0106 9.05136 14.9639C9.16336 14.9266 9.28003 14.8846 9.40136 14.8379C9.52269 14.7912 9.57869 14.7072 9.56936 14.5859C9.49469 14.2499 9.35936 13.7926 9.16336 13.2139C9.10736 13.1299 9.02336 13.0832 8.91136 13.0739C8.79936 13.0646 8.69203 13.0552 8.58936 13.0459H6.57336C6.43336 13.0552 6.33536 13.1206 6.27936 13.2419L5.91536 14.4879C5.90603 14.6372 5.99469 14.7492 6.18136 14.8239C6.37736 14.8986 6.49403 14.9826 6.53136 15.0759C6.58736 15.3839 6.56869 15.6686 6.47536 15.9299C6.43803 15.9766 6.26536 16.0186 5.95736 16.0559L4.15136 16.0419C4.01136 15.9859 3.94136 15.8552 3.94136 15.6499C3.94136 15.4819 3.94603 15.3139 3.95536 15.1459C3.97403 15.0339 4.06736 14.9452 4.23536 14.8799C4.41269 14.8052 4.52003 14.7119 4.55736 14.5999L4.72536 14.1239C5.30403 12.3692 6.20003 9.74656 7.41336 6.25589C7.44136 6.17189 7.56269 6.11589 7.77736 6.08789L9.41536 6.10189ZM7.70736 8.77589C7.28736 10.0172 6.97003 11.0112 6.75536 11.7579C6.76469 11.8046 6.83936 11.8466 6.97936 11.8839C8.00603 11.8839 8.54736 11.8792 8.60336 11.8699C8.69669 11.8139 8.73403 11.7579 8.71536 11.7019C8.52869 11.0392 8.23003 10.0406 7.81936 8.70589C7.76336 8.68722 7.72603 8.71056 7.70736 8.77589ZM19.3316 8.21589C19.4623 8.54256 19.4483 8.80856 19.2896 9.01389C19.1403 9.20989 18.7996 9.34989 18.2676 9.43389C18.1836 9.47122 18.1323 9.52722 18.1136 9.60189C18.1136 9.66722 18.1463 9.72789 18.2116 9.78389C18.2863 9.83989 18.3563 9.89122 18.4216 9.93789C19.019 10.4792 19.3176 11.1092 19.3176 11.8279C19.3176 12.0426 19.285 12.2619 19.2196 12.4859C19.1076 12.9059 18.865 13.2886 18.4916 13.6339C18.1276 13.9792 17.7263 14.2219 17.2876 14.3619C16.7556 14.5392 16.1723 14.5626 15.5376 14.4319C15.4443 14.4599 15.3836 14.5206 15.3556 14.6139C15.337 14.7446 15.379 14.8519 15.4816 14.9359C15.5843 15.0106 15.7943 15.0666 16.1116 15.1039C16.849 15.1039 17.311 15.1086 17.4976 15.1179C18.011 15.1646 18.4403 15.2812 18.7856 15.4679C19.3083 15.8226 19.5696 16.2939 19.5696 16.8819C19.5696 16.9939 19.5603 17.1059 19.5416 17.2179C19.3643 18.1512 18.5896 18.7579 17.2176 19.0379C16.8723 19.1126 16.527 19.1499 16.1816 19.1499C15.155 19.1499 14.2636 18.8559 13.5076 18.2679C13.1996 17.9599 13.0456 17.6799 13.0456 17.4279C13.0456 17.3439 13.0596 17.2646 13.0876 17.1899C13.125 17.0219 13.223 16.8912 13.3816 16.7979C13.5216 16.7326 13.657 16.6999 13.7876 16.6999C14.049 16.6999 14.357 16.8446 14.7116 17.1339C15.169 17.5166 15.4536 17.7359 15.5656 17.7919C15.855 17.9319 16.163 18.0019 16.4896 18.0019C16.7976 18.0019 17.0636 17.9366 17.2876 17.8059C17.4556 17.6659 17.5396 17.5492 17.5396 17.4559C17.5396 17.3439 17.521 17.2552 17.4836 17.1899C17.4183 17.1059 17.227 17.0359 16.9096 16.9799C16.1723 16.9799 15.6403 16.9426 15.3136 16.8679C14.7536 16.7372 14.3243 16.4619 14.0256 16.0419C13.867 15.8272 13.7876 15.5799 13.7876 15.2999C13.7876 15.0666 13.839 14.8659 13.9416 14.6979C14.0443 14.5299 14.217 14.3572 14.4596 14.1799C14.497 14.1239 14.483 14.0772 14.4176 14.0399C13.6243 13.4892 13.2276 12.7472 13.2276 11.8139C13.2276 11.6552 13.2416 11.4919 13.2696 11.3239C13.3536 10.8292 13.601 10.3812 14.0116 9.97989C14.4316 9.56922 14.8983 9.30789 15.4116 9.19589C15.925 9.07456 16.5036 9.08856 17.1476 9.23789C17.1663 9.23789 17.2083 9.19122 17.2736 9.09789C17.3856 8.42589 17.6516 8.01056 18.0716 7.85189C18.2303 7.79589 18.3936 7.76789 18.5616 7.76789C18.963 7.76789 19.2196 7.91722 19.3316 8.21589ZM16.1676 10.2599C15.953 10.2786 15.7943 10.3532 15.6916 10.4839C15.477 10.7359 15.3696 11.0719 15.3696 11.4919C15.3696 11.9492 15.4816 12.3832 15.7056 12.7939C15.883 13.1299 16.1256 13.2886 16.4336 13.2699C16.5736 13.2606 16.709 13.1952 16.8396 13.0739C17.045 12.8219 17.1476 12.4859 17.1476 12.0659C17.1476 11.7579 17.0963 11.4359 16.9936 11.0999C16.751 10.5586 16.4756 10.2786 16.1676 10.2599Z" fill="#131313"/>
</svg>
