<svg width="24" height="24" viewBox="0 0 24 24" fill="none" xmlns="http://www.w3.org/2000/svg">
<path d="M10.2801 11.421V13.472H4.16914V11.421H10.2801ZM12.3171 14.655H13.0731V17H7.89314V14.655H9.18114L6.68214 7.16504L7.91414 8.83104H6.54214L7.62014 7.16504L5.12114 14.655H6.52114V17H1.58614V14.655H2.38414L5.52714 6.29004H9.18114L12.3171 14.655ZM17.5015 20.122C16.6335 20.122 15.8752 20.073 15.2265 19.975C14.5778 19.877 14.0738 19.7183 13.7145 19.499C13.3552 19.2797 13.1755 18.9927 13.1755 18.638C13.1755 18.274 13.4088 18.0033 13.8755 17.826C14.3422 17.6487 14.9535 17.532 15.7095 17.476V17.224L16.8855 17.392C16.6008 17.392 16.3815 17.4153 16.2275 17.462C16.0782 17.5087 15.9755 17.567 15.9195 17.637C15.8635 17.707 15.8355 17.7747 15.8355 17.84C15.8355 17.9613 15.9032 18.0547 16.0385 18.12C16.1738 18.19 16.3698 18.2367 16.6265 18.26C16.8878 18.288 17.2028 18.302 17.5715 18.302C18.2295 18.302 18.6915 18.2553 18.9575 18.162C19.2282 18.0733 19.3635 17.938 19.3635 17.756C19.3635 17.5133 19.0975 17.392 18.5655 17.392H16.1575C15.3175 17.392 14.6525 17.273 14.1625 17.035C13.6725 16.797 13.4275 16.4307 13.4275 15.936C13.4275 15.488 13.6095 15.1473 13.9735 14.914C14.3422 14.676 14.9255 14.5407 15.7235 14.508V14.158L17.3055 14.578H16.7735C16.5915 14.578 16.4515 14.6013 16.3535 14.648C16.2602 14.69 16.2135 14.76 16.2135 14.858C16.2135 14.9467 16.2602 15.0097 16.3535 15.047C16.4515 15.0797 16.5962 15.096 16.7875 15.096H18.9015C19.5408 15.096 20.1055 15.1847 20.5955 15.362C21.0902 15.5393 21.4775 15.81 21.7575 16.174C22.0375 16.5333 22.1775 16.986 22.1775 17.532C22.1775 18.078 22.0188 18.5423 21.7015 18.925C21.3888 19.3123 20.8895 19.6087 20.2035 19.814C19.5175 20.0193 18.6168 20.122 17.5015 20.122ZM17.3055 14.578C16.5355 14.578 15.8612 14.4613 15.2825 14.228C14.7038 13.9947 14.2512 13.668 13.9245 13.248C13.6025 12.8233 13.4415 12.324 13.4415 11.75C13.4415 11.176 13.6002 10.6767 13.9175 10.252C14.2348 9.82737 14.6805 9.50071 15.2545 9.27204C15.8285 9.03871 16.4982 8.92204 17.2635 8.92204C18.0055 8.92204 18.6472 9.03637 19.1885 9.26504C19.7345 9.49371 20.1475 9.81804 20.4275 10.238C20.6375 10.4807 20.7915 10.7327 20.8895 10.994C20.9922 11.2507 21.0435 11.526 21.0435 11.82C21.0435 12.38 20.8872 12.8677 20.5745 13.283C20.2665 13.6937 19.8325 14.0133 19.2725 14.242C18.7125 14.466 18.0568 14.578 17.3055 14.578ZM17.3195 12.59C17.5062 12.59 17.6695 12.555 17.8095 12.485C17.9542 12.415 18.0662 12.317 18.1455 12.191C18.2295 12.065 18.2715 11.918 18.2715 11.75C18.2715 11.5773 18.2295 11.428 18.1455 11.302C18.0662 11.1713 17.9542 11.071 17.8095 11.001C17.6695 10.931 17.5062 10.896 17.3195 10.896C17.1328 10.896 16.9672 10.931 16.8225 11.001C16.6778 11.071 16.5635 11.1713 16.4795 11.302C16.3955 11.428 16.3535 11.5773 16.3535 11.75C16.3535 11.918 16.3955 12.065 16.4795 12.191C16.5635 12.317 16.6778 12.415 16.8225 12.485C16.9672 12.555 17.1328 12.59 17.3195 12.59ZM21.0435 11.82L20.4975 10.994L20.0635 10.35L20.4555 10.154C20.4275 10.0887 20.4065 10.0187 20.3925 9.94404C20.3785 9.86471 20.3715 9.79471 20.3715 9.73404C20.3715 9.46337 20.4345 9.23937 20.5605 9.06204C20.6865 8.88471 20.8615 8.75171 21.0855 8.66304C21.3142 8.57437 21.5802 8.53004 21.8835 8.53004C21.9768 8.53004 22.0608 8.53471 22.1355 8.54404C22.2148 8.54871 22.2895 8.55804 22.3595 8.57204V11.204C22.1775 11.1667 22.0048 11.141 21.8415 11.127C21.6782 11.113 21.5475 11.106 21.4495 11.106C21.3422 11.106 21.2558 11.1153 21.1905 11.134C21.1298 11.1527 21.0855 11.1807 21.0575 11.218C21.0295 11.2553 21.0155 11.302 21.0155 11.358C21.0155 11.3907 21.0178 11.428 21.0225 11.47C21.0272 11.512 21.0318 11.5633 21.0365 11.624C21.0412 11.68 21.0435 11.7453 21.0435 11.82Z" fill="#131313"/>
</svg>
