<svg width="24" height="24" viewBox="0 0 24 24" fill="none" xmlns="http://www.w3.org/2000/svg">
<path d="M10.1352 10.8399V13.3179H3.75116V10.8399H10.1352ZM12.3612 14.1019H13.0192V16.9999H7.47516V14.1019H8.35716L6.24316 6.91989L7.67116 9.15989H6.29916L7.48916 6.91989L5.37516 14.1019H6.42516V16.9999H1.21716V14.1019H1.94516L4.78716 6.19189H9.51916L12.3612 14.1019ZM17.607 20.1219C16.6223 20.1219 15.7777 20.0776 15.073 19.9889C14.373 19.9002 13.8363 19.7579 13.463 19.5619C13.0897 19.3659 12.903 19.1092 12.903 18.7919C12.903 18.3906 13.176 18.0896 13.722 17.8889C14.268 17.6929 14.989 17.5646 15.885 17.5039V17.2099L16.949 17.3919C16.7717 17.3919 16.6363 17.4059 16.543 17.4339C16.4497 17.4666 16.3867 17.5062 16.354 17.5529C16.3213 17.5996 16.305 17.6486 16.305 17.6999C16.305 17.8072 16.361 17.8912 16.473 17.9519C16.585 18.0126 16.7437 18.0546 16.949 18.0779C17.159 18.1059 17.4063 18.1199 17.691 18.1199C18.167 18.1199 18.5217 18.0849 18.755 18.0149C18.9883 17.9496 19.105 17.8446 19.105 17.6999C19.105 17.4946 18.8763 17.3919 18.419 17.3919H16.221C15.255 17.3919 14.4873 17.2659 13.918 17.0139C13.3533 16.7666 13.071 16.3746 13.071 15.8379C13.071 15.3526 13.323 14.9909 13.827 14.7529C14.331 14.5149 15.171 14.3866 16.347 14.3679V13.9759L17.383 14.3539H17.243C17.089 14.3539 16.9723 14.3656 16.893 14.3889C16.8183 14.4122 16.781 14.4566 16.781 14.5219C16.781 14.5919 16.8183 14.6409 16.893 14.6689C16.9723 14.6922 17.089 14.7039 17.243 14.7039H19.147C19.735 14.7039 20.2903 14.7972 20.813 14.9839C21.3403 15.1706 21.7673 15.4622 22.094 15.8589C22.4253 16.2556 22.591 16.7712 22.591 17.4059C22.591 18.0079 22.4183 18.5096 22.073 18.9109C21.7277 19.3122 21.1863 19.6132 20.449 19.8139C19.7163 20.0192 18.769 20.1219 17.607 20.1219ZM17.383 14.3539C16.501 14.3539 15.7427 14.2372 15.108 14.0039C14.478 13.7706 13.9927 13.4416 13.652 13.0169C13.3113 12.5922 13.141 12.0906 13.141 11.5119C13.141 10.9379 13.3067 10.4409 13.638 10.0209C13.974 9.59622 14.4523 9.26957 15.073 9.04089C15.6937 8.81222 16.4357 8.69789 17.299 8.69789C18.1203 8.69789 18.8203 8.81456 19.399 9.04789C19.9823 9.27657 20.4163 9.60789 20.701 10.0419C20.9903 10.3219 21.184 10.5996 21.282 10.8749C21.38 11.1456 21.429 11.4279 21.429 11.7219C21.429 12.2586 21.2657 12.7252 20.939 13.1219C20.617 13.5139 20.1527 13.8172 19.546 14.0319C18.944 14.2466 18.223 14.3539 17.383 14.3539ZM17.397 12.2819C17.537 12.2819 17.6583 12.2516 17.761 12.1909C17.8637 12.1256 17.943 12.0369 17.999 11.9249C18.055 11.8082 18.083 11.6706 18.083 11.5119C18.083 11.3532 18.0527 11.2179 17.992 11.1059C17.936 10.9892 17.8567 10.9006 17.754 10.8399C17.6513 10.7746 17.5323 10.7419 17.397 10.7419C17.2617 10.7419 17.1403 10.7746 17.033 10.8399C16.9303 10.9006 16.8487 10.9892 16.788 11.1059C16.7273 11.2179 16.697 11.3532 16.697 11.5119C16.697 11.6706 16.725 11.8082 16.781 11.9249C16.8417 12.0369 16.9233 12.1256 17.026 12.1909C17.1333 12.2516 17.257 12.2819 17.397 12.2819ZM21.429 11.7219L20.827 10.8959L20.323 10.1679L20.729 9.95789C20.6963 9.88789 20.6707 9.80622 20.652 9.71289C20.638 9.61957 20.631 9.54256 20.631 9.48189C20.631 9.18322 20.701 8.94056 20.841 8.75389C20.981 8.56722 21.177 8.42956 21.429 8.34089C21.6857 8.25222 21.9843 8.20789 22.325 8.20789C22.4323 8.20789 22.528 8.21256 22.612 8.22189C22.7007 8.22656 22.7823 8.23589 22.857 8.24989V11.5819C22.6423 11.5306 22.43 11.4956 22.22 11.4769C22.0147 11.4536 21.8443 11.4419 21.709 11.4419C21.639 11.4419 21.583 11.4489 21.541 11.4629C21.5037 11.4769 21.4757 11.5002 21.457 11.5329C21.4383 11.5609 21.429 11.6006 21.429 11.6519C21.429 11.6659 21.429 11.6752 21.429 11.6799C21.429 11.6846 21.429 11.6892 21.429 11.6939C21.429 11.6986 21.429 11.7079 21.429 11.7219Z" fill="#131313"/>
</svg>
