<svg width="24" height="24" viewBox="0 0 24 24" fill="none" xmlns="http://www.w3.org/2000/svg">
<path d="M6.17114 13.024L5.98914 13.556H9.33514L9.15314 13.01L7.68314 8.47396C7.57114 8.87529 7.06714 10.392 6.17114 13.024ZM4.82714 17H3.60914L6.89914 7.56396H8.46714L11.7011 17H10.4831L9.65714 14.522H5.66714L4.82714 17ZM18.9453 16.426C18.9453 17.5087 18.6466 18.3207 18.0493 18.862C17.4519 19.4127 16.6819 19.688 15.7393 19.688C14.8806 19.688 14.1479 19.5433 13.5413 19.254V18.148C14.1386 18.4933 14.8386 18.666 15.6413 18.666C16.3226 18.666 16.8593 18.484 17.2513 18.12C17.6433 17.756 17.8393 17.1867 17.8393 16.412V15.614C17.3726 16.4167 16.6773 16.818 15.7533 16.818C14.9413 16.818 14.2459 16.5193 13.6673 15.922C13.0979 15.3247 12.8133 14.494 12.8133 13.43C12.8133 12.3753 13.0793 11.5073 13.6113 10.826C14.1433 10.1447 14.8386 9.80396 15.6973 9.80396C16.6679 9.80396 17.3819 10.2287 17.8393 11.078V9.90197H18.9453V16.426ZM13.9613 13.402C13.9613 14.1953 14.1573 14.802 14.5493 15.222C14.9413 15.6327 15.3846 15.838 15.8793 15.838C16.3926 15.838 16.8453 15.642 17.2373 15.25C17.6386 14.8487 17.8393 14.256 17.8393 13.472C17.8393 12.5667 17.6479 11.8947 17.2653 11.456C16.8826 11.0173 16.4393 10.798 15.9353 10.798C15.3286 10.798 14.8479 11.0407 14.4933 11.526C14.1386 12.002 13.9613 12.6273 13.9613 13.402Z" fill="#131313"/>
</svg>
