<svg width="24" height="24" viewBox="0 0 24 24" fill="none" xmlns="http://www.w3.org/2000/svg">
<path d="M5.64827 17H3.39427L6.54427 7.56396H9.26027L12.4103 17H10.1003L9.52627 15.068H6.22227L5.64827 17ZM7.87427 9.13196C7.81827 9.54263 7.44027 10.9427 6.74027 13.332H9.00827C8.38293 11.1947 8.00493 9.79463 7.87427 9.13196ZM16.7423 11.54C16.3316 11.54 16.0096 11.6987 15.7763 12.016C15.5429 12.3333 15.4263 12.7813 15.4263 13.36C15.4263 13.9293 15.5383 14.368 15.7623 14.676C15.9863 14.984 16.3129 15.138 16.7423 15.138C17.1716 15.138 17.5076 14.9747 17.7503 14.648C18.0023 14.312 18.1283 13.9107 18.1283 13.444C18.1283 12.1747 17.6663 11.54 16.7423 11.54ZM20.1583 16.314C20.1583 17.4527 19.8176 18.3067 19.1363 18.876C18.4549 19.4547 17.6056 19.744 16.5883 19.744C15.5803 19.744 14.7029 19.5667 13.9563 19.212V17.126C14.6096 17.6487 15.4123 17.91 16.3643 17.91C16.9803 17.91 17.4283 17.7793 17.7083 17.518C17.9883 17.2567 18.1283 16.846 18.1283 16.286V15.81C17.7176 16.4447 17.0923 16.762 16.2523 16.762C15.4123 16.762 14.7076 16.4727 14.1383 15.894C13.5783 15.3153 13.2983 14.4893 13.2983 13.416C13.2983 12.3427 13.5689 11.4793 14.1103 10.826C14.6609 10.1633 15.3656 9.83196 16.2243 9.83196C17.0923 9.83196 17.7269 10.168 18.1283 10.84V9.90197H20.1583V16.314Z" fill="#131313"/>
</svg>
