<svg width="24" height="24" viewBox="0 0 24 24" fill="none" xmlns="http://www.w3.org/2000/svg">
<path d="M5.52418 17H3.67618L6.86818 7.56396H9.15018L12.3422 17H10.4382L9.76618 14.858H6.19618L5.52418 17ZM7.98818 8.87996C7.91351 9.28129 7.47018 10.7933 6.65818 13.416H9.31818C8.54351 10.868 8.10018 9.35596 7.98818 8.87996ZM16.5958 11.26C16.1291 11.26 15.7558 11.4513 15.4758 11.834C15.1958 12.2073 15.0558 12.7207 15.0558 13.374C15.0558 14.0273 15.2004 14.5313 15.4898 14.886C15.7791 15.2313 16.1478 15.404 16.5958 15.404C17.0531 15.404 17.4358 15.2267 17.7438 14.872C18.0518 14.508 18.2058 13.9947 18.2058 13.332C18.2058 12.66 18.0564 12.1467 17.7578 11.792C17.4591 11.4373 17.0718 11.26 16.5958 11.26ZM19.8858 16.356C19.8858 17.476 19.5591 18.316 18.9058 18.876C18.2618 19.4453 17.4544 19.73 16.4838 19.73C15.5224 19.73 14.6918 19.562 13.9918 19.226V17.518C14.6264 17.966 15.3871 18.19 16.2738 18.19C17.5618 18.19 18.2058 17.574 18.2058 16.342V15.726C17.7764 16.426 17.1324 16.776 16.2738 16.776C15.4244 16.776 14.7151 16.4867 14.1458 15.908C13.5858 15.32 13.3058 14.494 13.3058 13.43C13.3058 12.3567 13.5718 11.4887 14.1038 10.826C14.6451 10.154 15.3544 9.81796 16.2318 9.81796C17.1184 9.81796 17.7764 10.1867 18.2058 10.924V9.90197H19.8858V16.356Z" fill="#131313"/>
</svg>
