<svg width="24" height="24" viewBox="0 0 24 24" fill="none" xmlns="http://www.w3.org/2000/svg">
<path d="M2.05382 17L2.17982 16.72L3.00582 16.566C3.27649 16.51 3.50049 16.4307 3.67782 16.328C3.86449 16.216 4.03715 16.0713 4.19582 15.894L10.5378 8.96403L10.5658 8.11003C10.8178 8.1007 11.0512 8.0447 11.2658 7.94203C11.4805 7.83003 11.6578 7.7087 11.7978 7.57803C11.9472 7.43803 12.0405 7.32136 12.0778 7.22803H12.2458L11.5038 15.866C11.4852 16.0993 11.5178 16.2673 11.6018 16.37C11.6952 16.4633 11.8585 16.5333 12.0918 16.58L12.6798 16.72L12.5538 17H8.07382L8.19982 16.72L8.99782 16.58C9.37115 16.5147 9.61849 16.426 9.73982 16.314C9.86115 16.202 9.93582 15.9967 9.96382 15.698L10.5238 9.35603H10.7618L4.72782 15.922C4.56915 16.09 4.49915 16.2253 4.51782 16.328C4.54582 16.4213 4.65315 16.4867 4.83982 16.524L5.83382 16.72L5.70782 17H2.05382ZM6.43582 13.822L6.72982 13.36H10.7338L10.5238 13.822H6.43582ZM14.8465 20.626C14.3892 20.626 13.9692 20.5653 13.5865 20.444C13.1945 20.332 12.8819 20.164 12.6485 19.94C12.4059 19.7253 12.2845 19.464 12.2845 19.156C12.2845 18.7453 12.4245 18.3953 12.7045 18.106C12.9845 17.8167 13.3532 17.574 13.8105 17.378C14.2679 17.182 14.7719 17.014 15.3225 16.874L15.9945 17.042C15.5279 17.1633 15.1032 17.3127 14.7205 17.49C14.3472 17.6673 14.0485 17.8773 13.8245 18.12C13.6005 18.3627 13.4885 18.6567 13.4885 19.002C13.4885 19.3847 13.6659 19.6647 14.0205 19.842C14.3752 20.0193 14.7999 20.108 15.2945 20.108C15.8639 20.108 16.3679 20.0473 16.8065 19.926C17.2452 19.8047 17.5859 19.6367 17.8285 19.422C18.0712 19.2073 18.1925 18.96 18.1925 18.68C18.1925 18.512 18.1412 18.3627 18.0385 18.232C17.9359 18.1107 17.7305 17.9893 17.4225 17.868C17.1145 17.7467 16.6525 17.6347 16.0365 17.532C15.4579 17.42 14.9912 17.3033 14.6365 17.182C14.2912 17.0607 14.0392 16.9207 13.8805 16.762C13.7312 16.6033 13.6565 16.412 13.6565 16.188C13.6565 15.9547 13.8619 15.74 14.2725 15.544C14.6925 15.3387 15.2525 15.208 15.9525 15.152L16.6105 15.376C16.3119 15.3853 16.0272 15.4087 15.7565 15.446C15.4952 15.4833 15.2805 15.544 15.1125 15.628C14.9539 15.7027 14.8745 15.8007 14.8745 15.922C14.8745 16.0153 14.9165 16.0993 15.0005 16.174C15.0939 16.2393 15.2759 16.3047 15.5465 16.37C15.8265 16.4353 16.2512 16.5193 16.8205 16.622C17.7819 16.7993 18.4539 17.014 18.8365 17.266C19.2285 17.518 19.4245 17.854 19.4245 18.274C19.4245 18.7127 19.2145 19.1093 18.7945 19.464C18.3839 19.828 17.8332 20.1127 17.1425 20.318C16.4519 20.5233 15.6865 20.626 14.8465 20.626ZM15.9945 16.986L15.2945 16.734C15.8452 16.5847 16.4145 16.4587 17.0025 16.356C17.5999 16.2533 18.1972 16.1553 18.7945 16.062L18.8505 16.328C18.3932 16.412 17.9172 16.51 17.4225 16.622C16.9279 16.734 16.4519 16.8553 15.9945 16.986ZM16.6385 14.984C16.8812 14.984 17.1145 14.9 17.3385 14.732C17.5625 14.5547 17.7585 14.3307 17.9265 14.06C18.1039 13.78 18.2439 13.4767 18.3465 13.15C18.4492 12.8233 18.5005 12.506 18.5005 12.198C18.5005 11.862 18.4259 11.568 18.2765 11.316C18.1459 11.2227 17.9639 11.176 17.7305 11.176C17.4692 11.176 17.2265 11.2647 17.0025 11.442C16.7785 11.61 16.5825 11.834 16.4145 12.114C16.2465 12.394 16.1112 12.6927 16.0085 13.01C15.9152 13.3273 15.8639 13.6213 15.8545 13.892C15.8545 14.1907 15.9105 14.4473 16.0225 14.662C16.1345 14.8767 16.3399 14.984 16.6385 14.984ZM16.6805 15.376C16.3539 15.376 16.0412 15.3153 15.7425 15.194C15.4532 15.0633 15.2199 14.8767 15.0425 14.634C14.8652 14.382 14.7765 14.074 14.7765 13.71C14.7765 13.402 14.8372 13.08 14.9585 12.744C15.0799 12.3987 15.2619 12.0813 15.5045 11.792C15.7472 11.4933 16.0459 11.2507 16.4005 11.064C16.7645 10.8773 17.1845 10.784 17.6605 10.784C17.8845 10.784 18.0899 10.812 18.2765 10.868C18.4632 10.9147 18.6452 10.966 18.8225 11.022C18.9812 11.0687 19.1352 11.1153 19.2845 11.162C19.4339 11.2087 19.5832 11.232 19.7325 11.232C19.8725 11.232 19.9892 11.1993 20.0825 11.134C20.1852 11.0593 20.2365 10.938 20.2365 10.77C20.2365 10.6953 20.2179 10.6207 20.1805 10.546C20.1525 10.4713 20.1385 10.392 20.1385 10.308C20.1385 10.0467 20.2039 9.8507 20.3345 9.72003C20.4652 9.58936 20.6192 9.52403 20.7965 9.52403C20.9925 9.52403 21.1325 9.58003 21.2165 9.69203C21.3099 9.80403 21.3565 9.9487 21.3565 10.126C21.3565 10.3407 21.2912 10.574 21.1605 10.826C21.0392 11.0687 20.8572 11.274 20.6145 11.442C20.3719 11.61 20.0872 11.694 19.7605 11.694C19.6579 11.694 19.5645 11.6847 19.4805 11.666C19.3965 11.638 19.3125 11.6007 19.2285 11.554L19.2005 11.638C19.4339 11.8713 19.5505 12.1933 19.5505 12.604C19.5505 12.8933 19.4852 13.2013 19.3545 13.528C19.2332 13.8547 19.0465 14.158 18.7945 14.438C18.5519 14.718 18.2532 14.9467 17.8985 15.124C17.5439 15.292 17.1379 15.376 16.6805 15.376Z" fill="#131313"/>
</svg>
