<svg width="24" height="24" viewBox="0 0 24 24" fill="none" xmlns="http://www.w3.org/2000/svg">
<path d="M11.6033 16L10.4693 12.822H6.1153L4.9813 16H4.4493L7.9633 6.22803H8.6353L12.1493 16H11.6033ZM8.3133 6.73203H8.2573L6.2553 12.374H10.3293L8.3133 6.73203ZM19.6582 16.882C19.6582 17.6007 19.3642 18.128 18.7762 18.464C18.1976 18.8 17.3622 18.968 16.2702 18.968C15.2062 18.968 14.4362 18.8047 13.9602 18.478C13.4842 18.1513 13.2462 17.7127 13.2462 17.162C13.2462 16.742 13.3629 16.3967 13.5962 16.126C13.8296 15.8647 14.1562 15.6687 14.5762 15.538V15.482C14.1002 15.3233 13.8622 15.0013 13.8622 14.516C13.8622 14.1893 13.9789 13.928 14.2122 13.732C14.4549 13.536 14.7396 13.3913 15.0662 13.298V13.256C14.6556 13.0693 14.3336 12.7987 14.1002 12.444C13.8762 12.0893 13.7642 11.646 13.7642 11.114C13.7642 10.75 13.8202 10.4233 13.9322 10.134C14.0536 9.83536 14.2216 9.58336 14.4362 9.37803C14.6509 9.16336 14.9122 9.00003 15.2202 8.88803C15.5282 8.77603 15.8736 8.72003 16.2562 8.72003C16.8722 8.72003 17.3762 8.86003 17.7682 9.14003V8.58003C17.7682 8.2347 17.9316 8.06203 18.2582 8.06203H19.6162V8.49603H18.1042V9.39203C18.3189 9.6067 18.4822 9.8587 18.5942 10.148C18.7156 10.4373 18.7762 10.7593 18.7762 11.114C18.7762 11.4687 18.7156 11.7953 18.5942 12.094C18.4729 12.3833 18.3002 12.6353 18.0762 12.85C17.8616 13.0553 17.6002 13.2187 17.2922 13.34C16.9842 13.452 16.6436 13.508 16.2702 13.508C16.1302 13.508 15.9996 13.4987 15.8782 13.48C15.7569 13.4613 15.6309 13.438 15.5002 13.41C15.1176 13.5127 14.8236 13.648 14.6182 13.816C14.4129 13.984 14.3102 14.194 14.3102 14.446C14.3102 14.642 14.3942 14.8147 14.5622 14.964C14.7302 15.104 15.0429 15.174 15.5002 15.174H17.3062C18.1369 15.174 18.7342 15.328 19.0982 15.636C19.4716 15.9347 19.6582 16.35 19.6582 16.882ZM19.1682 16.91C19.1682 16.5087 19.0282 16.196 18.7482 15.972C18.4776 15.748 17.9876 15.636 17.2782 15.636H15.0522C14.6602 15.7387 14.3429 15.9067 14.1002 16.14C13.8576 16.3827 13.7362 16.7047 13.7362 17.106C13.7362 17.526 13.9229 17.8667 14.2962 18.128C14.6696 18.3987 15.1969 18.534 15.8782 18.534H16.6482C17.0216 18.534 17.3622 18.5013 17.6702 18.436C17.9782 18.3707 18.2442 18.2727 18.4682 18.142C18.6922 18.0113 18.8649 17.8433 18.9862 17.638C19.1076 17.4327 19.1682 17.19 19.1682 16.91ZM16.2702 13.074C16.8862 13.074 17.3669 12.9153 17.7122 12.598C18.0576 12.2807 18.2302 11.87 18.2302 11.366V10.862C18.2302 10.358 18.0576 9.94736 17.7122 9.63003C17.3669 9.3127 16.8862 9.15403 16.2702 9.15403C15.6449 9.15403 15.1596 9.3127 14.8142 9.63003C14.4782 9.94736 14.3102 10.358 14.3102 10.862V11.366C14.3102 11.87 14.4829 12.2807 14.8282 12.598C15.1736 12.9153 15.6542 13.074 16.2702 13.074Z" fill="#131313"/>
</svg>
