<svg width="24" height="24" viewBox="0 0 24 24" fill="none" xmlns="http://www.w3.org/2000/svg">
<path d="M10.9239 17L9.85991 13.962H5.70191L4.63791 17H3.79791L7.25591 7.22803H8.33391L11.8059 17H10.9239ZM7.80191 8.02603H7.74591L5.91191 13.234H9.63591L7.80191 8.02603ZM19.3519 17.84C19.3519 18.568 19.0579 19.1047 18.4699 19.45C17.8913 19.7953 17.0373 19.968 15.9079 19.968C14.8159 19.968 14.0273 19.8093 13.5419 19.492C13.0566 19.1747 12.8139 18.736 12.8139 18.176C12.8139 17.7653 12.9213 17.4387 13.1359 17.196C13.3506 16.9533 13.6539 16.776 14.0459 16.664V16.552C13.5979 16.3747 13.3739 16.048 13.3739 15.572C13.3739 15.2173 13.4906 14.9467 13.7239 14.76C13.9573 14.5733 14.2466 14.4333 14.5919 14.34V14.284C14.1719 14.0973 13.8453 13.8173 13.6119 13.444C13.3786 13.0707 13.2619 12.6227 13.2619 12.1C13.2619 11.736 13.3226 11.4047 13.4439 11.106C13.5653 10.8073 13.7379 10.5507 13.9619 10.336C14.1953 10.1213 14.4706 9.95803 14.7879 9.84603C15.1146 9.7247 15.4739 9.66403 15.8659 9.66403C16.4166 9.66403 16.8973 9.7807 17.3079 10.014V9.66403C17.3079 9.44936 17.3593 9.2767 17.4619 9.14603C17.5646 9.00603 17.7326 8.93603 17.9659 8.93603H19.1979V9.63603H17.7419V10.322C17.9846 10.5367 18.1713 10.798 18.3019 11.106C18.4326 11.4047 18.4979 11.736 18.4979 12.1C18.4979 12.464 18.4326 12.7953 18.3019 13.094C18.1806 13.3927 18.0033 13.654 17.7699 13.878C17.5459 14.0927 17.2706 14.2607 16.9439 14.382C16.6266 14.494 16.2719 14.55 15.8799 14.55C15.7493 14.55 15.6233 14.5407 15.5019 14.522C15.3806 14.5033 15.2593 14.4847 15.1379 14.466C14.8299 14.55 14.5733 14.6667 14.3679 14.816C14.1719 14.956 14.0739 15.1473 14.0739 15.39C14.0739 15.8193 14.4566 16.034 15.2219 16.034H16.8879C17.7559 16.034 18.3813 16.1973 18.7639 16.524C19.1559 16.8413 19.3519 17.28 19.3519 17.84ZM18.5819 17.896C18.5819 17.5507 18.4559 17.2753 18.2039 17.07C17.9613 16.874 17.5226 16.776 16.8879 16.776H14.5639C14.2559 16.8787 14.0133 17.0327 13.8359 17.238C13.6586 17.4433 13.5699 17.7 13.5699 18.008C13.5699 18.3813 13.7239 18.6893 14.0319 18.932C14.3399 19.184 14.8066 19.31 15.4319 19.31H16.3279C17.0279 19.31 17.5786 19.1933 17.9799 18.96C18.3813 18.736 18.5819 18.3813 18.5819 17.896ZM15.8799 13.906C16.4306 13.906 16.8599 13.7707 17.1679 13.5C17.4853 13.22 17.6439 12.828 17.6439 12.324V11.876C17.6439 11.3813 17.4853 10.9987 17.1679 10.728C16.8599 10.448 16.4306 10.308 15.8799 10.308C15.3199 10.308 14.8859 10.448 14.5779 10.728C14.2699 10.9987 14.1159 11.3813 14.1159 11.876V12.324C14.1159 12.828 14.2699 13.22 14.5779 13.5C14.8953 13.7707 15.3293 13.906 15.8799 13.906Z" fill="#131313"/>
</svg>
