<svg width="24" height="24" viewBox="0 0 24 24" fill="none" xmlns="http://www.w3.org/2000/svg">
<path d="M2.87305 15.8838C2.87305 15.8337 2.88672 15.779 2.91406 15.7197C2.93685 15.6605 2.96875 15.6058 3.00977 15.5557C3.04622 15.501 3.08952 15.4554 3.13965 15.4189C3.18522 15.3779 3.23079 15.3506 3.27637 15.3369C3.29004 15.3324 3.31738 15.3278 3.3584 15.3232C3.39941 15.3187 3.44499 15.3141 3.49512 15.3096C3.54525 15.305 3.59082 15.3005 3.63184 15.2959C3.67285 15.2913 3.7002 15.2891 3.71387 15.2891C3.84147 15.2754 3.97819 15.2435 4.12402 15.1934C4.26986 15.1387 4.41341 15.0771 4.55469 15.0088C4.69596 14.9359 4.83268 14.8607 4.96484 14.7832C5.09701 14.7012 5.21549 14.626 5.32031 14.5576C5.32487 14.5531 5.3431 14.5348 5.375 14.5029C5.4069 14.471 5.44336 14.4346 5.48438 14.3936C5.52995 14.3525 5.57552 14.3138 5.62109 14.2773C5.66667 14.2363 5.7054 14.2044 5.7373 14.1816C5.74642 14.1589 5.76465 14.1315 5.79199 14.0996C5.82389 14.0677 5.8444 14.0518 5.85352 14.0518C5.9082 13.9743 5.96061 13.9128 6.01074 13.8672C6.06543 13.8216 6.12012 13.7806 6.1748 13.7441C6.23405 13.7077 6.29329 13.6735 6.35254 13.6416C6.41634 13.6097 6.48698 13.5687 6.56445 13.5186C6.61914 13.4821 6.66699 13.4365 6.70801 13.3818C6.75358 13.3226 6.7946 13.2611 6.83105 13.1973C6.86751 13.1289 6.90169 13.0605 6.93359 12.9922C6.97005 12.9238 7.01107 12.8623 7.05664 12.8076C7.17513 12.6618 7.28451 12.5456 7.38477 12.459C7.48958 12.3678 7.61263 12.2744 7.75391 12.1787C7.81771 12.1514 7.86328 12.1081 7.89062 12.0488C7.91797 11.9896 7.95215 11.9395 7.99316 11.8984C8.06152 11.8529 8.12988 11.8096 8.19824 11.7686C8.27116 11.7275 8.3418 11.6842 8.41016 11.6387C8.47852 11.5931 8.5446 11.5452 8.6084 11.4951C8.67676 11.4404 8.74056 11.3766 8.7998 11.3037C8.80892 11.2946 8.82259 11.2741 8.84082 11.2422C8.85905 11.2057 8.87728 11.1693 8.89551 11.1328C8.91374 11.0964 8.92969 11.0622 8.94336 11.0303C8.96159 10.9938 8.97298 10.971 8.97754 10.9619C9.00033 10.93 9.0459 10.8981 9.11426 10.8662C9.18717 10.8298 9.26237 10.791 9.33984 10.75C9.41732 10.709 9.48796 10.668 9.55176 10.627C9.62012 10.5814 9.66113 10.5312 9.6748 10.4766V10.2646C9.6748 10.251 9.68392 10.2282 9.70215 10.1963C9.72493 10.1644 9.74772 10.1302 9.77051 10.0938C9.79329 10.0573 9.8138 10.0231 9.83203 9.99121C9.85482 9.95931 9.86849 9.93652 9.87305 9.92285C9.88216 9.90918 9.89355 9.89551 9.90723 9.88184C9.92546 9.86816 9.93685 9.86133 9.94141 9.86133C10.0234 9.82943 10.085 9.79525 10.126 9.75879C10.167 9.72233 10.2012 9.68132 10.2285 9.63574C10.2604 9.59017 10.2923 9.54232 10.3242 9.49219C10.3607 9.44206 10.4154 9.38737 10.4883 9.32812C10.5339 9.29167 10.5817 9.25749 10.6318 9.22559C10.6865 9.18913 10.7412 9.15495 10.7959 9.12305C10.8506 9.08659 10.9007 9.05013 10.9463 9.01367C10.9964 8.97266 11.0374 8.92936 11.0693 8.88379C11.1742 8.74251 11.2858 8.61491 11.4043 8.50098C11.5273 8.38249 11.6504 8.27083 11.7734 8.16602C11.901 8.05664 12.0286 7.94954 12.1562 7.84473C12.2839 7.73991 12.4092 7.62826 12.5322 7.50977C12.7054 7.33659 12.8695 7.16569 13.0244 6.99707C13.1839 6.82389 13.332 6.64844 13.4688 6.4707C13.6191 6.38411 13.7695 6.34082 13.9199 6.34082C14.0521 6.34082 14.1592 6.39095 14.2412 6.49121C14.3232 6.58691 14.3643 6.69857 14.3643 6.82617C14.3643 6.95833 14.346 7.08366 14.3096 7.20215C14.2731 7.32064 14.2275 7.43685 14.1729 7.55078C14.1182 7.66471 14.0589 7.77637 13.9951 7.88574C13.9359 7.99512 13.8835 8.10677 13.8379 8.2207C13.8379 8.22526 13.8311 8.2526 13.8174 8.30273C13.8037 8.34831 13.7946 8.37565 13.79 8.38477C13.7581 8.48047 13.7103 8.56022 13.6465 8.62402C13.5827 8.68783 13.5394 8.75846 13.5166 8.83594C13.5166 8.84505 13.5143 8.86328 13.5098 8.89062C13.5052 8.91797 13.4984 8.94759 13.4893 8.97949C13.4847 9.00684 13.4801 9.03418 13.4756 9.06152C13.471 9.08431 13.4688 9.09798 13.4688 9.10254C13.4551 9.18001 13.4323 9.25065 13.4004 9.31445C13.3685 9.3737 13.332 9.43294 13.291 9.49219C13.25 9.54688 13.2067 9.60384 13.1611 9.66309C13.1201 9.72233 13.0837 9.78841 13.0518 9.86133C12.9606 10.1074 12.8786 10.3558 12.8057 10.6064C12.7327 10.8571 12.6576 11.1009 12.5801 11.3379C12.5391 11.4746 12.4798 11.6182 12.4023 11.7686C12.3294 11.9189 12.2747 12.0716 12.2383 12.2266C12.2292 12.2357 12.2246 12.2562 12.2246 12.2881C12.2246 12.3291 12.2269 12.3633 12.2314 12.3906C12.236 12.418 12.2383 12.4339 12.2383 12.4385C12.2201 12.5524 12.1745 12.6572 12.1016 12.7529C12.0332 12.8441 11.9694 12.9421 11.9102 13.0469C11.9102 13.0514 11.9056 13.0674 11.8965 13.0947C11.8874 13.1221 11.8828 13.1449 11.8828 13.1631C11.8691 13.1768 11.8532 13.2201 11.835 13.293C11.8167 13.3659 11.7962 13.4456 11.7734 13.5322C11.7552 13.6188 11.737 13.7008 11.7188 13.7783C11.7051 13.8558 11.6982 13.9059 11.6982 13.9287C11.6709 14.0107 11.639 14.0859 11.6025 14.1543C11.5661 14.2181 11.5296 14.2842 11.4932 14.3525C11.4613 14.4163 11.4339 14.4847 11.4111 14.5576C11.3883 14.626 11.377 14.7057 11.377 14.7969C11.377 14.8105 11.3792 14.8219 11.3838 14.8311C11.3838 14.8402 11.3861 14.847 11.3906 14.8516C11.4499 14.9609 11.5251 15.0475 11.6162 15.1113C11.7074 15.1751 11.7962 15.2389 11.8828 15.3027C11.9694 15.3665 12.0423 15.4417 12.1016 15.5283C12.1608 15.6149 12.1904 15.7357 12.1904 15.8906C12.1813 15.8906 12.1631 15.8952 12.1357 15.9043C12.1084 15.9134 12.0924 15.9225 12.0879 15.9316C12.0742 15.9316 12.0492 15.9339 12.0127 15.9385C11.9808 15.9385 11.9443 15.9408 11.9033 15.9453C11.8669 15.9453 11.8304 15.9476 11.7939 15.9521C11.762 15.9521 11.7438 15.9521 11.7393 15.9521C11.5661 15.9202 11.3929 15.8997 11.2197 15.8906C11.0465 15.877 10.8734 15.8701 10.7002 15.8701C10.5088 15.8701 10.3174 15.8792 10.126 15.8975C9.93457 15.9111 9.74089 15.9294 9.54492 15.9521C9.50391 15.9613 9.47201 15.9749 9.44922 15.9932C9.43099 16.0068 9.39453 16.0137 9.33984 16.0137C9.28516 16.0137 9.21908 16.0091 9.1416 16C9.06868 15.9909 8.99805 15.9727 8.92969 15.9453C8.86133 15.918 8.80436 15.8792 8.75879 15.8291C8.71322 15.779 8.69043 15.7129 8.69043 15.6309C8.69043 15.4941 8.73372 15.3984 8.82031 15.3438C8.9069 15.2891 9.00716 15.2526 9.12109 15.2344C9.23958 15.2116 9.35579 15.1979 9.46973 15.1934C9.58366 15.1842 9.67025 15.1615 9.72949 15.125C9.82064 15.0521 9.889 14.986 9.93457 14.9268C9.9847 14.863 10.0212 14.7992 10.0439 14.7354C10.0713 14.667 10.0895 14.5941 10.0986 14.5166C10.1077 14.4346 10.1191 14.3389 10.1328 14.2295C10.1374 14.1839 10.1442 14.1497 10.1533 14.127C10.167 14.0996 10.1807 14.0791 10.1943 14.0654C10.2126 14.0472 10.2354 14.029 10.2627 14.0107C10.29 13.9925 10.3219 13.9652 10.3584 13.9287C10.404 13.874 10.445 13.7897 10.4814 13.6758C10.5225 13.5573 10.5566 13.4342 10.584 13.3066C10.6113 13.179 10.6318 13.056 10.6455 12.9375C10.6592 12.819 10.666 12.7279 10.666 12.6641C10.666 12.6367 10.6615 12.6025 10.6523 12.5615C10.6432 12.5205 10.6318 12.4818 10.6182 12.4453C10.6045 12.4043 10.5863 12.3701 10.5635 12.3428C10.5407 12.3154 10.5156 12.3018 10.4883 12.3018H9.98926C9.89355 12.2197 9.78418 12.1787 9.66113 12.1787C9.62012 12.1787 9.55404 12.1833 9.46289 12.1924C9.37174 12.1969 9.27604 12.2038 9.17578 12.2129C9.08008 12.222 8.98893 12.2357 8.90234 12.2539C8.82031 12.2676 8.76562 12.2835 8.73828 12.3018L8.39648 12.6777C8.25065 12.8008 8.12533 12.9466 8.02051 13.1152C7.92025 13.2793 7.81315 13.4456 7.69922 13.6143C7.64909 13.6644 7.56934 13.7487 7.45996 13.8672C7.35059 13.9857 7.23893 14.1133 7.125 14.25C7.01107 14.3822 6.91081 14.512 6.82422 14.6396C6.73763 14.7673 6.69434 14.863 6.69434 14.9268C6.69434 15.0225 6.73079 15.0908 6.80371 15.1318C6.88118 15.1683 6.96549 15.2002 7.05664 15.2275C7.15234 15.2549 7.23665 15.2845 7.30957 15.3164C7.38704 15.3438 7.42578 15.3939 7.42578 15.4668C7.42578 15.5078 7.41667 15.5534 7.39844 15.6035C7.38477 15.6536 7.36426 15.7015 7.33691 15.7471C7.31413 15.7926 7.28678 15.8337 7.25488 15.8701C7.22298 15.9066 7.1888 15.9339 7.15234 15.9521C6.98828 15.9658 6.83561 15.9863 6.69434 16.0137C6.55762 16.0456 6.41178 16.0615 6.25684 16.0615L5.55957 16C5.4821 16 5.4069 16.0182 5.33398 16.0547C5.26562 16.0911 5.18587 16.1094 5.09473 16.1094C5.09017 16.1094 5.0765 16.1048 5.05371 16.0957C5.03092 16.0866 5.00586 16.0752 4.97852 16.0615C4.95573 16.0479 4.93066 16.0342 4.90332 16.0205C4.88053 16.0114 4.8623 16.0046 4.84863 16C4.79395 16 4.73926 16.0091 4.68457 16.0273C4.62988 16.0501 4.57747 16.0729 4.52734 16.0957C4.47721 16.1185 4.4248 16.139 4.37012 16.1572C4.31543 16.18 4.26074 16.1914 4.20605 16.1914L3.81641 16.1504C3.75716 16.1504 3.70247 16.1572 3.65234 16.1709C3.60221 16.1846 3.55208 16.1914 3.50195 16.1914C3.47461 16.1914 3.42676 16.18 3.3584 16.1572C3.29004 16.139 3.2194 16.1139 3.14648 16.082C3.07357 16.0501 3.00977 16.016 2.95508 15.9795C2.90039 15.943 2.87305 15.9111 2.87305 15.8838ZM10.3926 10.8936C10.3926 11.0257 10.4199 11.1283 10.4746 11.2012C10.5293 11.2695 10.6296 11.3037 10.7754 11.3037C10.9076 11.3037 11.0329 11.2627 11.1514 11.1807C11.2744 11.0941 11.3815 10.9984 11.4727 10.8936C11.5091 10.848 11.5319 10.7933 11.541 10.7295C11.5547 10.6657 11.5661 10.6042 11.5752 10.5449C11.5889 10.4811 11.6048 10.4219 11.623 10.3672C11.6458 10.3125 11.6846 10.2669 11.7393 10.2305L11.8828 10.1211C11.8965 10.0983 11.9056 10.0641 11.9102 10.0186C11.9193 9.96842 11.9284 9.91829 11.9375 9.86816C11.9466 9.81348 11.9535 9.76107 11.958 9.71094C11.9671 9.66081 11.9785 9.61979 11.9922 9.58789C12.0104 9.57878 12.0332 9.55827 12.0605 9.52637C12.0924 9.48991 12.113 9.46712 12.1221 9.45801C12.1221 9.39876 12.1152 9.3623 12.1016 9.34863C12.0879 9.33496 12.0674 9.32812 12.04 9.32812C11.917 9.32812 11.8167 9.34635 11.7393 9.38281C11.6663 9.41927 11.6025 9.46484 11.5479 9.51953C11.4977 9.56966 11.4499 9.62207 11.4043 9.67676C11.3633 9.73145 11.3154 9.77702 11.2607 9.81348C11.2562 9.81803 11.2425 9.82487 11.2197 9.83398C11.1969 9.8431 11.1719 9.85449 11.1445 9.86816C11.1172 9.87728 11.0898 9.88867 11.0625 9.90234C11.0397 9.91146 11.026 9.91829 11.0215 9.92285C11.0169 9.93197 11.0124 9.9388 11.0078 9.94336C11.0033 9.95247 10.9987 9.95931 10.9941 9.96387C10.9896 9.96387 10.9873 9.96615 10.9873 9.9707L10.9531 10.0254C10.8939 10.0892 10.8301 10.153 10.7617 10.2168C10.6979 10.2806 10.6387 10.3467 10.584 10.415C10.5293 10.4834 10.4837 10.5563 10.4473 10.6338C10.4108 10.7113 10.3926 10.7979 10.3926 10.8936ZM11.6572 19.3496C11.6572 19.2174 11.6709 19.0967 11.6982 18.9873C11.7256 18.8825 11.7666 18.7822 11.8213 18.6865C11.876 18.5908 11.9421 18.4951 12.0195 18.3994C12.0924 18.3083 12.1768 18.2103 12.2725 18.1055C12.4548 17.8867 12.6758 17.7295 12.9355 17.6338C12.9447 17.6292 12.9743 17.6224 13.0244 17.6133C13.0745 17.6087 13.1292 17.6019 13.1885 17.5928C13.2432 17.5837 13.2956 17.5745 13.3457 17.5654C13.3913 17.5563 13.4186 17.5472 13.4277 17.5381C13.4688 17.5335 13.5257 17.5176 13.5986 17.4902C13.667 17.4674 13.7354 17.4378 13.8037 17.4014C13.8766 17.3695 13.9382 17.3307 13.9883 17.2852C14.043 17.2441 14.0703 17.2031 14.0703 17.1621C14.0703 17.1074 14.0544 17.0596 14.0225 17.0186C13.9951 16.9821 13.9678 16.9411 13.9404 16.8955C13.9085 16.8682 13.8812 16.834 13.8584 16.793C13.8402 16.7565 13.8311 16.7178 13.8311 16.6768C13.8311 16.6403 13.8356 16.5811 13.8447 16.499C13.8584 16.417 13.8721 16.3281 13.8857 16.2324C13.904 16.1413 13.9199 16.057 13.9336 15.9795C13.9518 15.8975 13.9655 15.8405 13.9746 15.8086C13.9837 15.7995 13.9974 15.7881 14.0156 15.7744C14.0339 15.7653 14.0566 15.7539 14.084 15.7402C14.1159 15.7266 14.1615 15.7106 14.2207 15.6924C14.2389 15.6787 14.2777 15.64 14.3369 15.5762C14.4007 15.5078 14.4645 15.4326 14.5283 15.3506C14.5921 15.2686 14.6491 15.1911 14.6992 15.1182C14.7493 15.0407 14.7744 14.9883 14.7744 14.9609C14.7744 14.9062 14.763 14.8607 14.7402 14.8242C14.7174 14.7878 14.6878 14.7536 14.6514 14.7217C14.6149 14.6898 14.5739 14.6624 14.5283 14.6396C14.4873 14.6123 14.4486 14.585 14.4121 14.5576C14.3802 14.5394 14.362 14.5189 14.3574 14.4961C14.3529 14.4688 14.3506 14.4346 14.3506 14.3936C14.3506 14.3753 14.3506 14.3525 14.3506 14.3252C14.3506 14.2979 14.346 14.2728 14.3369 14.25C14.3278 14.2363 14.3164 14.209 14.3027 14.168C14.2891 14.127 14.2731 14.0859 14.2549 14.0449C14.2367 13.9993 14.2207 13.9583 14.207 13.9219C14.1934 13.8854 14.182 13.8604 14.1729 13.8467V12.7939C14.1911 12.7575 14.2025 12.7233 14.207 12.6914C14.2161 12.6549 14.2207 12.623 14.2207 12.5957C14.2344 12.5592 14.2526 12.516 14.2754 12.4658C14.2982 12.4111 14.321 12.3587 14.3438 12.3086C14.3665 12.2539 14.387 12.2061 14.4053 12.165C14.4235 12.1195 14.4372 12.0898 14.4463 12.0762C14.4508 12.0671 14.4577 12.0443 14.4668 12.0078C14.4759 11.9714 14.485 11.9326 14.4941 11.8916C14.5078 11.8506 14.5192 11.8141 14.5283 11.7822C14.542 11.7458 14.5534 11.7207 14.5625 11.707C14.5671 11.7025 14.5785 11.6842 14.5967 11.6523C14.6149 11.6159 14.6354 11.5794 14.6582 11.543C14.6855 11.5065 14.7083 11.4723 14.7266 11.4404C14.7493 11.404 14.7653 11.3835 14.7744 11.3789L14.8633 11.1738C14.9772 11.0553 15.0911 10.9323 15.2051 10.8047C15.319 10.6725 15.4398 10.554 15.5674 10.4492C15.6995 10.3398 15.8408 10.251 15.9912 10.1826C16.1416 10.1097 16.3125 10.0732 16.5039 10.0732C16.627 10.1051 16.7477 10.1325 16.8662 10.1553C16.9893 10.1735 17.11 10.194 17.2285 10.2168C17.347 10.2396 17.4655 10.2692 17.584 10.3057C17.7025 10.3376 17.8187 10.3831 17.9326 10.4424L19.2246 10.5586C19.2565 10.5586 19.2839 10.5768 19.3066 10.6133C19.3294 10.6452 19.3477 10.6839 19.3613 10.7295C19.375 10.7751 19.3841 10.8229 19.3887 10.873C19.3978 10.9186 19.4023 10.9551 19.4023 10.9824C19.4023 11.0736 19.375 11.1533 19.3203 11.2217C19.2702 11.2855 19.195 11.3174 19.0947 11.3174C18.9762 11.3174 18.8555 11.2946 18.7324 11.249C18.6094 11.1989 18.4818 11.1738 18.3496 11.1738C18.2858 11.1738 18.238 11.2012 18.2061 11.2559C18.1742 11.306 18.1582 11.3584 18.1582 11.4131V11.7686C18.1491 11.9372 18.1195 12.1195 18.0693 12.3154C18.0238 12.5068 17.9622 12.7051 17.8848 12.9102C17.8073 13.1107 17.7161 13.3089 17.6113 13.5049C17.5111 13.7008 17.3994 13.8877 17.2764 14.0654C17.1533 14.2386 17.0234 14.3958 16.8867 14.5371C16.75 14.6784 16.611 14.7946 16.4697 14.8857C16.4105 14.9268 16.3421 14.9587 16.2646 14.9814C16.1917 14.9997 16.1143 15.0179 16.0322 15.0361C15.9502 15.0544 15.8682 15.0703 15.7861 15.084C15.7087 15.0977 15.6357 15.1182 15.5674 15.1455C15.5537 15.1546 15.5127 15.182 15.4443 15.2275C15.3805 15.2731 15.3099 15.3232 15.2324 15.3779C15.1595 15.4281 15.0934 15.4759 15.0342 15.5215C14.9749 15.5671 14.9453 15.5921 14.9453 15.5967V16.1777C14.9453 16.1868 14.9544 16.2005 14.9727 16.2188C14.9909 16.237 15.0046 16.2507 15.0137 16.2598C15.0228 16.2826 15.0433 16.3145 15.0752 16.3555C15.1071 16.401 15.1413 16.4466 15.1777 16.4922C15.2142 16.5378 15.2484 16.5788 15.2803 16.6152C15.3122 16.6562 15.3327 16.6836 15.3418 16.6973C15.3509 16.7064 15.3669 16.7155 15.3896 16.7246C15.417 16.7383 15.4329 16.7451 15.4375 16.7451C15.4557 16.7542 15.4967 16.7679 15.5605 16.7861C15.6243 16.8044 15.6927 16.8226 15.7656 16.8408C15.8431 16.8636 15.916 16.8841 15.9844 16.9023C16.0573 16.9206 16.112 16.932 16.1484 16.9365C16.194 16.9411 16.2327 16.9525 16.2646 16.9707C16.2965 16.9935 16.3262 17.0163 16.3535 17.0391C16.3854 17.0618 16.415 17.0846 16.4424 17.1074C16.4743 17.1302 16.5107 17.1484 16.5518 17.1621C16.6885 17.2031 16.8275 17.2259 16.9688 17.2305C17.1146 17.2396 17.2581 17.2738 17.3994 17.333C17.5407 17.3968 17.6911 17.4834 17.8506 17.5928C18.0146 17.7021 18.165 17.8275 18.3018 17.9688C18.4385 18.11 18.5501 18.2627 18.6367 18.4268C18.7279 18.5954 18.7734 18.7686 18.7734 18.9463C18.7734 19.0101 18.762 19.0785 18.7393 19.1514C18.7165 19.2243 18.6868 19.2972 18.6504 19.3701C18.6139 19.443 18.5752 19.5137 18.5342 19.582C18.4932 19.6549 18.4544 19.7188 18.418 19.7734C18.2858 20.0059 18.1331 20.1927 17.96 20.334C17.7868 20.4753 17.5954 20.5824 17.3857 20.6553C17.1761 20.7327 16.9528 20.7829 16.7158 20.8057C16.4834 20.833 16.2441 20.8467 15.998 20.8467H15.5332C15.5241 20.8421 15.5173 20.8376 15.5127 20.833C15.5081 20.8285 15.499 20.8262 15.4854 20.8262L15.3008 20.8604L14.6377 20.8809L14.0225 20.8467L13.7148 20.8809C13.6829 20.8809 13.6305 20.8763 13.5576 20.8672C13.4801 20.8626 13.4004 20.8558 13.3184 20.8467C13.2318 20.8421 13.1497 20.8353 13.0723 20.8262C12.9948 20.8216 12.9355 20.8171 12.8945 20.8125C12.8535 20.8125 12.8148 20.7852 12.7783 20.7305C12.7373 20.6803 12.7008 20.6439 12.6689 20.6211L12.2314 20.4434C12.1631 20.4023 12.0947 20.3363 12.0264 20.2451C11.958 20.1585 11.8965 20.0628 11.8418 19.958C11.7871 19.8532 11.7438 19.7461 11.7119 19.6367C11.6755 19.5319 11.6572 19.4362 11.6572 19.3496ZM12.8945 19.3018C12.8945 19.3154 12.9105 19.3587 12.9424 19.4316C12.9697 19.5046 13.0039 19.582 13.0449 19.6641C13.0814 19.7507 13.1156 19.8281 13.1475 19.8965C13.1794 19.9694 13.1976 20.0059 13.2021 20.0059L13.4756 20.1426C13.6077 20.2201 13.724 20.2725 13.8242 20.2998C13.929 20.3317 14.0316 20.3545 14.1318 20.3682C14.2321 20.3818 14.3346 20.391 14.4395 20.3955C14.5488 20.4001 14.6742 20.416 14.8154 20.4434C14.82 20.4434 14.8496 20.4593 14.9043 20.4912C14.959 20.5231 15.0182 20.5436 15.082 20.5527C15.3418 20.5527 15.5947 20.5254 15.8408 20.4707C16.0915 20.4206 16.3398 20.3818 16.5859 20.3545C16.6178 20.3499 16.6497 20.334 16.6816 20.3066C16.7181 20.2839 16.75 20.2565 16.7773 20.2246C16.8092 20.1973 16.8366 20.1699 16.8594 20.1426C16.8867 20.1198 16.9072 20.1038 16.9209 20.0947L17.4883 19.9648L17.5225 19.917C17.5225 19.9033 17.5225 19.8783 17.5225 19.8418C17.527 19.8053 17.5293 19.7643 17.5293 19.7188C17.5339 19.6732 17.5384 19.6299 17.543 19.5889C17.5475 19.5524 17.5521 19.5273 17.5566 19.5137L17.6387 19.418C17.625 19.3997 17.6136 19.3815 17.6045 19.3633C17.5817 19.3314 17.5703 19.3109 17.5703 19.3018L17.6387 19.1104C17.6387 19.1012 17.6273 19.0876 17.6045 19.0693C17.5817 19.0511 17.5658 19.0374 17.5566 19.0283L17.3994 18.8369C17.1624 18.5589 16.8753 18.3402 16.5381 18.1807C16.2008 18.0212 15.8545 17.9049 15.499 17.832C15.4079 17.8047 15.3281 17.7751 15.2598 17.7432C15.196 17.7158 15.1208 17.7021 15.0342 17.7021C14.9385 17.7021 14.8382 17.7113 14.7334 17.7295C14.6331 17.7523 14.5306 17.7773 14.4258 17.8047C14.3255 17.8366 14.2275 17.8685 14.1318 17.9004C14.0361 17.9368 13.9473 17.9665 13.8652 17.9893C13.8561 17.9984 13.8424 18.0098 13.8242 18.0234C13.8105 18.0371 13.7923 18.0439 13.7695 18.0439C13.7376 18.0713 13.7126 18.0964 13.6943 18.1191C13.6807 18.1419 13.6647 18.1624 13.6465 18.1807C13.6328 18.2035 13.6146 18.2262 13.5918 18.249C13.5645 18.2764 13.5257 18.3037 13.4756 18.3311C13.4665 18.3311 13.446 18.3356 13.4141 18.3447C13.3776 18.3538 13.3548 18.3652 13.3457 18.3789C13.1999 18.4701 13.0882 18.6045 13.0107 18.7822C12.9333 18.96 12.8945 19.1331 12.8945 19.3018ZM15.0752 14.2363C15.0752 14.2956 15.0775 14.3571 15.082 14.4209C15.0866 14.4847 15.0957 14.5439 15.1094 14.5986C15.1276 14.6533 15.1504 14.6989 15.1777 14.7354C15.2096 14.7673 15.2529 14.7832 15.3076 14.7832C15.4033 14.7832 15.5036 14.7399 15.6084 14.6533C15.7132 14.5622 15.8203 14.4482 15.9297 14.3115C16.0391 14.1702 16.1439 14.013 16.2441 13.8398C16.349 13.6667 16.4469 13.4958 16.5381 13.3271C16.6292 13.1585 16.709 13.0013 16.7773 12.8555C16.8457 12.7096 16.9004 12.5957 16.9414 12.5137C16.9961 12.4271 17.0234 12.3314 17.0234 12.2266C17.028 12.1217 17.0485 12.0306 17.085 11.9531C17.1488 11.8073 17.2103 11.6501 17.2695 11.4814C17.3288 11.3128 17.3584 11.151 17.3584 10.9961C17.3584 10.9733 17.347 10.9368 17.3242 10.8867C17.3014 10.8366 17.2718 10.7865 17.2354 10.7363C17.2035 10.6862 17.1693 10.6429 17.1328 10.6064C17.1009 10.5654 17.0758 10.5449 17.0576 10.5449C17.0348 10.5404 17.012 10.5381 16.9893 10.5381C16.9665 10.5381 16.9437 10.5381 16.9209 10.5381C16.8662 10.5381 16.8115 10.5426 16.7568 10.5518C16.7021 10.5609 16.6452 10.5723 16.5859 10.5859C16.5267 10.6452 16.4857 10.7067 16.4629 10.7705C16.4447 10.8343 16.415 10.9027 16.374 10.9756C16.2829 11.085 16.1963 11.1875 16.1143 11.2832C16.0368 11.3789 15.9661 11.4769 15.9023 11.5771C15.8385 11.6774 15.7816 11.7868 15.7314 11.9053C15.6813 12.0192 15.638 12.1536 15.6016 12.3086L15.5879 12.3359C15.5833 12.3451 15.5788 12.3542 15.5742 12.3633C15.5742 12.3724 15.5719 12.3815 15.5674 12.3906C15.5446 12.4408 15.515 12.4954 15.4785 12.5547C15.4466 12.6094 15.4147 12.6686 15.3828 12.7324C15.3509 12.7917 15.3213 12.8532 15.2939 12.917C15.2712 12.9762 15.2598 13.0332 15.2598 13.0879L15.3076 13.2451C15.3076 13.2816 15.2985 13.3158 15.2803 13.3477C15.2666 13.375 15.2484 13.4023 15.2256 13.4297C15.2074 13.4525 15.1868 13.4775 15.1641 13.5049C15.1413 13.5277 15.123 13.555 15.1094 13.5869C15.0911 13.6689 15.0798 13.7487 15.0752 13.8262C15.0752 13.9036 15.0752 13.9902 15.0752 14.0859V14.2363Z" fill="#131313"/>
</svg>
