<svg width="24" height="24" viewBox="0 0 24 24" fill="none" xmlns="http://www.w3.org/2000/svg">
<path d="M7.3584 11.1396V11.1533C7.36296 11.1715 7.36979 11.1989 7.37891 11.2354C7.38802 11.2718 7.39258 11.2946 7.39258 11.3037C7.42448 11.363 7.45866 11.4222 7.49512 11.4814C7.53613 11.5361 7.57715 11.5863 7.61816 11.6318C7.66374 11.6729 7.71387 11.707 7.76855 11.7344C7.8278 11.7617 7.89388 11.7754 7.9668 11.7754C8.05339 11.7754 8.13314 11.7594 8.20605 11.7275C8.27897 11.6911 8.35872 11.6729 8.44531 11.6729C8.52734 11.6729 8.60482 11.682 8.67773 11.7002C8.75521 11.7184 8.83496 11.7275 8.91699 11.7275H8.96484C8.98307 11.723 9.00586 11.7139 9.0332 11.7002C9.0651 11.6865 9.09473 11.6729 9.12207 11.6592C9.15397 11.641 9.18132 11.625 9.2041 11.6113C9.23145 11.5977 9.24967 11.5908 9.25879 11.5908C9.28158 11.568 9.29525 11.5247 9.2998 11.4609C9.30436 11.3971 9.30664 11.3493 9.30664 11.3174C9.30664 11.2035 9.2793 11.0895 9.22461 10.9756C9.17448 10.8571 9.13574 10.7454 9.1084 10.6406C9.0446 10.4355 8.98079 10.2305 8.91699 10.0254C8.85319 9.81576 8.78939 9.6084 8.72559 9.40332C8.72103 9.38965 8.70964 9.36003 8.69141 9.31445C8.67773 9.26432 8.65951 9.20964 8.63672 9.15039C8.61849 9.08659 8.60026 9.02507 8.58203 8.96582C8.5638 8.90658 8.55013 8.86328 8.54102 8.83594C8.5319 8.82227 8.52051 8.7972 8.50684 8.76074C8.49316 8.72428 8.47949 8.68555 8.46582 8.64453C8.45215 8.60352 8.43848 8.56478 8.4248 8.52832C8.41113 8.49186 8.40202 8.4668 8.39746 8.45312C8.37923 8.40299 8.36784 8.37337 8.36328 8.36426C8.35872 8.35514 8.33822 8.35059 8.30176 8.35059C8.26074 8.35059 8.22428 8.36882 8.19238 8.40527C8.16048 8.43717 8.13086 8.47591 8.10352 8.52148C8.08073 8.56706 8.06022 8.61491 8.04199 8.66504C8.02832 8.71517 8.01921 8.75618 8.01465 8.78809V8.9248C8.01465 8.93392 8.00553 8.95215 7.9873 8.97949C7.97363 9.00684 7.95768 9.03646 7.93945 9.06836C7.92578 9.0957 7.90983 9.12305 7.8916 9.15039C7.87793 9.17773 7.86882 9.19368 7.86426 9.19824C7.86426 9.21191 7.86198 9.24154 7.85742 9.28711C7.85742 9.32812 7.85514 9.3737 7.85059 9.42383C7.84603 9.47396 7.84147 9.51953 7.83691 9.56055C7.83236 9.60156 7.83008 9.62663 7.83008 9.63574C7.80729 9.73145 7.76628 9.82715 7.70703 9.92285C7.64779 10.0186 7.60905 10.112 7.59082 10.2031C7.59082 10.2122 7.58854 10.2327 7.58398 10.2646C7.57943 10.2965 7.57487 10.333 7.57031 10.374C7.56576 10.4105 7.5612 10.4447 7.55664 10.4766C7.55208 10.5085 7.54753 10.529 7.54297 10.5381C7.53841 10.5426 7.5293 10.5586 7.51562 10.5859C7.50195 10.6133 7.486 10.6452 7.46777 10.6816C7.4541 10.7135 7.43815 10.7454 7.41992 10.7773C7.40625 10.8047 7.39714 10.8229 7.39258 10.832C7.38802 10.8685 7.38346 10.9049 7.37891 10.9414C7.37435 10.9733 7.36979 11.0052 7.36523 11.0371C7.36068 11.069 7.3584 11.0964 7.3584 11.1191V11.1396ZM12.4785 16.0479H11.7061C11.6969 16.0479 11.6673 16.0456 11.6172 16.041C11.5716 16.0365 11.5192 16.0296 11.46 16.0205C11.4007 16.016 11.346 16.0114 11.2959 16.0068C11.2458 16.0023 11.2139 16 11.2002 16C11.1273 16 11.0042 15.9977 10.8311 15.9932C10.6624 15.9886 10.4824 15.9863 10.291 15.9863C10.0905 15.9863 9.90592 15.9886 9.7373 15.9932C9.56868 15.9977 9.45247 16 9.38867 16C9.35221 15.9681 9.31803 15.9339 9.28613 15.8975C9.25879 15.8564 9.24512 15.8109 9.24512 15.7607C9.24512 15.7197 9.24967 15.6924 9.25879 15.6787C9.2679 15.6605 9.28385 15.6263 9.30664 15.5762C9.30664 15.5625 9.31348 15.5374 9.32715 15.501C9.34538 15.4645 9.36589 15.4417 9.38867 15.4326C9.39779 15.4326 9.41602 15.4303 9.44336 15.4258C9.47526 15.4212 9.50716 15.4167 9.53906 15.4121C9.57096 15.4076 9.60059 15.403 9.62793 15.3984C9.65527 15.3939 9.67122 15.3893 9.67578 15.3848C9.68945 15.3802 9.70996 15.3688 9.7373 15.3506C9.76465 15.3324 9.79427 15.3118 9.82617 15.2891C9.85807 15.2663 9.8877 15.2458 9.91504 15.2275C9.94238 15.2093 9.96061 15.1979 9.96973 15.1934C9.97428 15.1888 9.98796 15.1842 10.0107 15.1797C10.0381 15.1706 10.0677 15.1637 10.0996 15.1592C10.1315 15.1546 10.1611 15.1523 10.1885 15.1523C10.2204 15.1478 10.2409 15.1455 10.25 15.1455C10.2591 15.1455 10.2682 15.1387 10.2773 15.125C10.2819 15.1204 10.2865 15.1136 10.291 15.1045V14.8652C10.291 14.7422 10.2796 14.6191 10.2568 14.4961C10.234 14.373 10.2044 14.2523 10.168 14.1338C10.1361 14.0107 10.1019 13.8923 10.0654 13.7783C10.029 13.6598 9.99707 13.5459 9.96973 13.4365C9.96517 13.4229 9.95833 13.3932 9.94922 13.3477C9.9401 13.3021 9.92871 13.252 9.91504 13.1973C9.90137 13.1426 9.88997 13.0924 9.88086 13.0469C9.87174 13.0013 9.86491 12.9717 9.86035 12.958C9.86035 12.9489 9.85579 12.9329 9.84668 12.9102C9.83757 12.8874 9.82845 12.8646 9.81934 12.8418C9.81022 12.8145 9.80111 12.7894 9.79199 12.7666C9.78288 12.7438 9.77832 12.7301 9.77832 12.7256C9.76465 12.6846 9.75098 12.6413 9.7373 12.5957C9.72363 12.5501 9.7054 12.5068 9.68262 12.4658C9.66439 12.4248 9.63932 12.3906 9.60742 12.3633C9.58008 12.3314 9.54362 12.3109 9.49805 12.3018C9.47982 12.2972 9.45247 12.2926 9.41602 12.2881C9.38411 12.279 9.34993 12.2721 9.31348 12.2676C9.27702 12.263 9.24284 12.2607 9.21094 12.2607C9.18359 12.2562 9.16309 12.2539 9.14941 12.2539C9.14941 12.2539 9.13574 12.263 9.1084 12.2812C9.09473 12.2904 9.08105 12.2972 9.06738 12.3018C9.04915 12.3063 9.02409 12.3132 8.99219 12.3223C8.96029 12.3314 8.93522 12.3359 8.91699 12.3359H8.54102C8.3724 12.3359 8.19922 12.3405 8.02148 12.3496C7.84831 12.3542 7.6888 12.3678 7.54297 12.3906C7.53385 12.3906 7.51562 12.3997 7.48828 12.418C7.47461 12.4271 7.46094 12.4339 7.44727 12.4385C7.42448 12.443 7.38574 12.4476 7.33105 12.4521C7.28092 12.4567 7.22396 12.4613 7.16016 12.4658C7.10091 12.4704 7.04395 12.4749 6.98926 12.4795C6.93457 12.484 6.89811 12.4863 6.87988 12.4863L6.83203 12.5342L6.64746 13.5732C6.58366 13.6462 6.53809 13.7236 6.51074 13.8057C6.4834 13.8831 6.46517 13.9652 6.45605 14.0518C6.44694 14.1383 6.4401 14.2249 6.43555 14.3115C6.43555 14.3981 6.42643 14.4847 6.4082 14.5713C6.4082 14.5895 6.39225 14.6237 6.36035 14.6738C6.32845 14.724 6.31022 14.7513 6.30566 14.7559L6.36035 14.8652C6.36947 14.8743 6.38314 14.8971 6.40137 14.9336C6.42415 14.9655 6.43783 14.986 6.44238 14.9951C6.45605 14.9997 6.48112 15.0065 6.51758 15.0156C6.55859 15.0247 6.59961 15.0361 6.64062 15.0498C6.68164 15.0589 6.72038 15.0703 6.75684 15.084C6.79329 15.0931 6.81836 15.0999 6.83203 15.1045C6.90495 15.1227 6.99382 15.1432 7.09863 15.166C7.20345 15.1888 7.30143 15.223 7.39258 15.2686C7.48828 15.3096 7.56803 15.3643 7.63184 15.4326C7.7002 15.501 7.73438 15.5876 7.73438 15.6924V15.8086C7.72982 15.8177 7.71842 15.8337 7.7002 15.8564C7.68652 15.8747 7.66829 15.8952 7.64551 15.918C7.62728 15.9362 7.60905 15.9544 7.59082 15.9727C7.57259 15.9863 7.55664 15.9954 7.54297 16C7.48828 16 7.39714 16.0023 7.26953 16.0068C7.14648 16.0114 7.01432 16.016 6.87305 16.0205C6.73633 16.0296 6.60417 16.0365 6.47656 16.041C6.35352 16.0456 6.26465 16.0479 6.20996 16.0479H5.25977H4.31641C4.30729 16.0387 4.29818 16.0228 4.28906 16C4.27995 15.9727 4.26855 15.9521 4.25488 15.9385C4.24577 15.8747 4.22982 15.7972 4.20703 15.7061C4.18424 15.6149 4.17285 15.5283 4.17285 15.4463C4.17285 15.3825 4.20703 15.3369 4.27539 15.3096C4.34375 15.2777 4.40527 15.2526 4.45996 15.2344C4.46452 15.2344 4.48047 15.2344 4.50781 15.2344C4.53516 15.2298 4.56478 15.2253 4.59668 15.2207C4.63314 15.2161 4.66504 15.2116 4.69238 15.207C4.72428 15.2025 4.74479 15.1979 4.75391 15.1934C4.79948 15.1751 4.85645 15.1478 4.9248 15.1113C4.99772 15.0749 5.06836 15.0407 5.13672 15.0088C5.20508 14.9723 5.26432 14.9404 5.31445 14.9131C5.36914 14.8857 5.39876 14.8698 5.40332 14.8652L5.47168 14.7559V14.0928C5.51725 14.0882 5.55599 14.054 5.58789 13.9902C5.62435 13.9219 5.65625 13.8467 5.68359 13.7646C5.71094 13.6826 5.736 13.6006 5.75879 13.5186C5.78158 13.4365 5.80436 13.3773 5.82715 13.3408C5.83171 13.3363 5.8431 13.3249 5.86133 13.3066C5.88411 13.2884 5.9069 13.2702 5.92969 13.252C5.95247 13.2292 5.97298 13.2087 5.99121 13.1904C6.00944 13.1722 6.01855 13.1585 6.01855 13.1494C6.02311 13.1449 6.02767 13.1243 6.03223 13.0879C6.03678 13.0514 6.04134 13.0127 6.0459 12.9717C6.05046 12.9261 6.05501 12.8851 6.05957 12.8486C6.06413 12.8076 6.06641 12.7826 6.06641 12.7734C6.07552 12.7552 6.08919 12.721 6.10742 12.6709C6.13021 12.6208 6.15299 12.5866 6.17578 12.5684L6.25781 11.7754C6.32161 11.6842 6.36263 11.584 6.38086 11.4746C6.40365 11.3652 6.42415 11.2581 6.44238 11.1533C6.45605 11.1396 6.46745 11.1146 6.47656 11.0781C6.48568 11.0417 6.49023 11.0189 6.49023 11.0098C6.49935 11.0007 6.51758 10.9801 6.54492 10.9482C6.57227 10.9118 6.59049 10.889 6.59961 10.8799C6.60417 10.8662 6.60872 10.8411 6.61328 10.8047C6.6224 10.7637 6.63151 10.7204 6.64062 10.6748C6.64974 10.6292 6.65658 10.5859 6.66113 10.5449C6.67025 10.4993 6.67708 10.4652 6.68164 10.4424V10.251C6.6862 10.2373 6.69759 10.2122 6.71582 10.1758C6.73861 10.1393 6.75911 10.1006 6.77734 10.0596C6.80013 10.0186 6.82064 9.97982 6.83887 9.94336C6.86165 9.9069 6.87533 9.88411 6.87988 9.875C6.88444 9.87044 6.89128 9.85449 6.90039 9.82715C6.90951 9.79525 6.91862 9.76335 6.92773 9.73145C6.93685 9.69954 6.94368 9.66992 6.94824 9.64258C6.95736 9.61523 6.96191 9.59701 6.96191 9.58789C6.97103 9.57422 6.98242 9.54915 6.99609 9.5127C7.01432 9.47624 7.03027 9.4375 7.04395 9.39648C7.06217 9.35547 7.07585 9.31673 7.08496 9.28027C7.09863 9.23926 7.11003 9.21191 7.11914 9.19824C7.16927 9.06608 7.20801 8.92025 7.23535 8.76074C7.26725 8.60124 7.30827 8.44857 7.3584 8.30273C7.39941 8.18424 7.45182 8.07031 7.51562 7.96094C7.58398 7.85156 7.62044 7.72852 7.625 7.5918C7.63411 7.58268 7.63867 7.5599 7.63867 7.52344C7.63867 7.48698 7.63639 7.44596 7.63184 7.40039C7.62728 7.35026 7.625 7.31836 7.625 7.30469C7.62956 7.29557 7.64323 7.27279 7.66602 7.23633C7.6888 7.19987 7.71159 7.16113 7.73438 7.12012C7.76172 7.0791 7.78451 7.04036 7.80273 7.00391C7.82096 6.96745 7.83008 6.94238 7.83008 6.92871V6.82617V6.55957C7.83464 6.54134 7.84831 6.50944 7.87109 6.46387C7.89388 6.41374 7.91211 6.37956 7.92578 6.36133C7.94401 6.35221 7.96224 6.34082 7.98047 6.32715C7.99414 6.31803 8.00781 6.30892 8.02148 6.2998C8.03971 6.28613 8.05339 6.27474 8.0625 6.26562C8.13542 6.22005 8.19922 6.17676 8.25391 6.13574C8.31315 6.09473 8.37012 6.05827 8.4248 6.02637C8.48405 5.99447 8.54557 5.9694 8.60938 5.95117C8.67773 5.93294 8.75749 5.92383 8.84863 5.92383C8.87142 5.92383 8.91471 5.92611 8.97852 5.93066C9.04232 5.93522 9.08561 5.9375 9.1084 5.9375C9.14941 5.97396 9.19499 6.01497 9.24512 6.06055C9.2998 6.10612 9.33171 6.15853 9.34082 6.21777C9.39551 6.40462 9.42969 6.58919 9.44336 6.77148C9.46159 6.95378 9.49577 7.13151 9.5459 7.30469C9.5459 7.31836 9.55046 7.33887 9.55957 7.36621C9.56413 7.37988 9.57096 7.39128 9.58008 7.40039C9.58919 7.42318 9.59831 7.45052 9.60742 7.48242C9.62109 7.51432 9.62793 7.53483 9.62793 7.54395V7.7832C9.65072 7.88346 9.68262 7.98145 9.72363 8.07715C9.76465 8.17285 9.79427 8.26628 9.8125 8.35742C9.81706 8.37109 9.82389 8.40527 9.83301 8.45996C9.84668 8.51465 9.85807 8.57389 9.86719 8.6377C9.88086 8.7015 9.88997 8.76302 9.89453 8.82227C9.90365 8.87695 9.9082 8.91113 9.9082 8.9248C9.91276 8.93392 9.9196 8.95215 9.92871 8.97949C9.93783 9.00684 9.94694 9.03646 9.95605 9.06836C9.96973 9.10026 9.98112 9.12988 9.99023 9.15723C9.99935 9.18457 10.0085 9.19824 10.0176 9.19824C10.0267 9.24382 10.0426 9.31901 10.0654 9.42383C10.0928 9.52865 10.1201 9.6403 10.1475 9.75879C10.1794 9.87272 10.209 9.9821 10.2363 10.0869C10.2637 10.1872 10.2819 10.2578 10.291 10.2988C10.446 10.5586 10.5576 10.8298 10.626 11.1123C10.6943 11.3903 10.7559 11.6751 10.8105 11.9668C10.8151 11.9759 10.8242 11.9987 10.8379 12.0352C10.8516 12.0671 10.8607 12.0876 10.8652 12.0967C10.9427 12.2926 11.0133 12.4863 11.0771 12.6777C11.1455 12.8646 11.2184 13.0537 11.2959 13.2451C11.2913 13.2588 11.2868 13.2816 11.2822 13.3135C11.2777 13.3454 11.2731 13.3796 11.2686 13.416C11.264 13.4479 11.2572 13.4798 11.248 13.5117C11.2435 13.5391 11.2389 13.5596 11.2344 13.5732V13.6348V13.6689C11.2389 13.6781 11.2503 13.6963 11.2686 13.7236C11.2913 13.751 11.3118 13.7806 11.3301 13.8125C11.3529 13.8444 11.3734 13.8763 11.3916 13.9082C11.4144 13.9355 11.4281 13.9538 11.4326 13.9629C11.4919 14.0632 11.5352 14.1634 11.5625 14.2637C11.5898 14.3594 11.6195 14.4528 11.6514 14.5439C11.6833 14.6351 11.722 14.724 11.7676 14.8105C11.8177 14.8926 11.8952 14.9701 12 15.043C12 15.0521 12.0068 15.0635 12.0205 15.0771C12.0387 15.0863 12.0479 15.0954 12.0479 15.1045C12.0706 15.109 12.1048 15.125 12.1504 15.1523C12.2005 15.1797 12.2301 15.1934 12.2393 15.1934C12.2529 15.1979 12.2894 15.2048 12.3486 15.2139C12.4124 15.223 12.4785 15.2321 12.5469 15.2412C12.6198 15.2503 12.6859 15.2594 12.7451 15.2686C12.8089 15.2731 12.8499 15.2754 12.8682 15.2754C12.8864 15.2845 12.9115 15.2982 12.9434 15.3164C12.9753 15.3346 13.0072 15.3551 13.0391 15.3779C13.071 15.3962 13.096 15.4167 13.1143 15.4395C13.137 15.4622 13.1484 15.4873 13.1484 15.5146C13.1484 15.5283 13.1393 15.5671 13.1211 15.6309C13.1074 15.6901 13.0869 15.7539 13.0596 15.8223C13.0368 15.8906 13.0117 15.9521 12.9844 16.0068C12.957 16.0615 12.9342 16.0911 12.916 16.0957H12.7588H12.6768C12.6403 16.0957 12.6061 16.0934 12.5742 16.0889C12.5469 16.0843 12.515 16.0706 12.4785 16.0479ZM15.1377 11.8984C15.1377 11.9622 15.1468 12.0169 15.165 12.0625C15.1833 12.1035 15.2038 12.14 15.2266 12.1719C15.2493 12.2038 15.2699 12.2357 15.2881 12.2676C15.3109 12.2949 15.3223 12.3291 15.3223 12.3701V12.4727V12.7461C15.3314 12.7643 15.3473 12.8099 15.3701 12.8828C15.3929 12.9512 15.4134 13.0013 15.4316 13.0332C15.4316 13.0423 15.4362 13.0537 15.4453 13.0674C15.4544 13.0765 15.4658 13.0811 15.4795 13.0811C15.4886 13.0856 15.5205 13.0947 15.5752 13.1084C15.6299 13.1175 15.6618 13.1266 15.6709 13.1357C15.7028 13.1494 15.7233 13.1676 15.7324 13.1904C15.7415 13.2132 15.7484 13.236 15.7529 13.2588C15.762 13.277 15.778 13.293 15.8008 13.3066C15.8236 13.3203 15.8669 13.3271 15.9307 13.3271C15.9899 13.3271 16.0674 13.3203 16.1631 13.3066C16.2588 13.293 16.3568 13.2747 16.457 13.252C16.5573 13.2246 16.6484 13.1927 16.7305 13.1562C16.8125 13.1198 16.8672 13.0788 16.8945 13.0332C16.8991 13.0286 16.9059 13.015 16.915 12.9922C16.9242 12.9694 16.9333 12.9443 16.9424 12.917C16.9561 12.8896 16.9674 12.8646 16.9766 12.8418C16.9857 12.819 16.9902 12.8031 16.9902 12.7939C17.0039 12.7848 17.0312 12.7643 17.0723 12.7324C17.1133 12.696 17.1338 12.6732 17.1338 12.6641C17.1657 12.623 17.193 12.5661 17.2158 12.4932C17.2432 12.4202 17.2637 12.3451 17.2773 12.2676C17.2956 12.1901 17.3092 12.1149 17.3184 12.042C17.3275 11.9645 17.332 11.9053 17.332 11.8643C17.332 11.7093 17.3206 11.5589 17.2979 11.4131C17.2796 11.2627 17.2249 11.1191 17.1338 10.9824C17.1338 10.9779 17.1133 10.9505 17.0723 10.9004C17.0312 10.8503 17.0039 10.8161 16.9902 10.7979C16.9902 10.7933 16.9834 10.7773 16.9697 10.75C16.9561 10.7181 16.9401 10.6862 16.9219 10.6543C16.9036 10.6224 16.8877 10.5928 16.874 10.5654C16.8604 10.5381 16.8535 10.5199 16.8535 10.5107C16.8216 10.4606 16.7669 10.415 16.6895 10.374C16.6165 10.333 16.5596 10.3011 16.5186 10.2783C16.5094 10.2692 16.4935 10.2601 16.4707 10.251C16.4479 10.2419 16.432 10.2373 16.4229 10.2373C16.4092 10.2419 16.3887 10.251 16.3613 10.2646C16.3385 10.2783 16.3112 10.292 16.2793 10.3057C16.252 10.3193 16.2246 10.333 16.1973 10.3467C16.1745 10.3604 16.1562 10.3695 16.1426 10.374C16.1335 10.3786 16.1016 10.3877 16.0469 10.4014C15.9922 10.4105 15.9603 10.4196 15.9512 10.4287C15.9421 10.4333 15.9261 10.4469 15.9033 10.4697C15.8805 10.488 15.8555 10.5107 15.8281 10.5381C15.8008 10.5654 15.7757 10.5928 15.7529 10.6201C15.7301 10.6429 15.7165 10.6589 15.7119 10.668C15.6937 10.6725 15.6777 10.6771 15.6641 10.6816C15.6367 10.6908 15.623 10.7021 15.623 10.7158C15.6139 10.7204 15.5957 10.734 15.5684 10.7568C15.5456 10.7751 15.5273 10.7887 15.5137 10.7979C15.4635 10.8617 15.4248 10.93 15.3975 11.0029C15.3747 11.0713 15.3542 11.1442 15.3359 11.2217C15.3223 11.2946 15.3086 11.3698 15.2949 11.4473C15.2812 11.5202 15.263 11.5908 15.2402 11.6592C15.2311 11.6683 15.2129 11.7002 15.1855 11.7549C15.1582 11.8096 15.1445 11.8415 15.1445 11.8506C15.14 11.8506 15.1377 11.8665 15.1377 11.8984ZM15.1445 18.5908C15.1536 18.5999 15.1764 18.609 15.2129 18.6182C15.2493 18.6318 15.2699 18.6387 15.2744 18.6387C15.2881 18.6478 15.3223 18.6569 15.377 18.666C15.4316 18.6751 15.4658 18.6842 15.4795 18.6934C15.6253 18.7389 15.7689 18.7959 15.9102 18.8643C16.056 18.9326 16.2109 18.9668 16.375 18.9668C16.4388 18.9668 16.5186 18.9554 16.6143 18.9326C16.71 18.9144 16.7897 18.8939 16.8535 18.8711C16.8581 18.8711 16.8695 18.8665 16.8877 18.8574C16.9105 18.8483 16.931 18.8369 16.9492 18.8232C16.972 18.8141 16.9925 18.805 17.0107 18.7959C17.029 18.7868 17.0381 18.7822 17.0381 18.7822C17.0472 18.7777 17.0677 18.7731 17.0996 18.7686C17.1315 18.7686 17.1657 18.7663 17.2021 18.7617C17.2386 18.7572 17.2728 18.7526 17.3047 18.748C17.3411 18.7435 17.3662 18.7389 17.3799 18.7344C17.3844 18.7298 17.3936 18.7207 17.4072 18.707C17.4255 18.6934 17.4437 18.6774 17.4619 18.6592C17.4801 18.6455 17.4984 18.6318 17.5166 18.6182C17.5348 18.6045 17.5485 18.5954 17.5576 18.5908C17.5713 18.5817 17.5941 18.5589 17.626 18.5225C17.6579 18.486 17.6921 18.445 17.7285 18.3994C17.7695 18.3584 17.806 18.3174 17.8379 18.2764C17.8698 18.2399 17.8926 18.2148 17.9062 18.2012C17.9701 18.1374 18.0293 18.0895 18.084 18.0576C18.1432 18.0257 18.1934 17.9915 18.2344 17.9551C18.2799 17.9232 18.3141 17.8799 18.3369 17.8252C18.3643 17.7705 18.3779 17.6908 18.3779 17.5859V17.4902C18.3779 17.4811 18.362 17.4515 18.3301 17.4014C18.2982 17.3512 18.2822 17.3171 18.2822 17.2988C18.2731 17.2943 18.2617 17.2646 18.248 17.21C18.2389 17.1598 18.2298 17.1302 18.2207 17.1211C18.2207 17.1165 18.2093 17.1006 18.1865 17.0732C18.1637 17.0505 18.1387 17.0254 18.1113 16.998C18.0885 16.9707 18.0635 16.9434 18.0361 16.916C18.0133 16.8932 17.9974 16.8796 17.9883 16.875C17.9336 16.8158 17.8789 16.7565 17.8242 16.6973C17.7695 16.6426 17.7126 16.5924 17.6533 16.5469C17.5986 16.5013 17.5348 16.4603 17.4619 16.4238C17.3936 16.3919 17.3161 16.3691 17.2295 16.3555H16.8535C16.7897 16.3464 16.7122 16.3236 16.6211 16.2871C16.5299 16.2552 16.4639 16.2301 16.4229 16.2119H16.0195C15.9512 16.2119 15.8669 16.2119 15.7666 16.2119C15.6709 16.2165 15.5729 16.2256 15.4727 16.2393C15.3724 16.2529 15.2767 16.2712 15.1855 16.2939C15.0944 16.3213 15.0192 16.3577 14.96 16.4033C14.8962 16.4443 14.8392 16.4876 14.7891 16.5332C14.7389 16.5788 14.682 16.613 14.6182 16.6357C14.5954 16.7223 14.5817 16.8021 14.5771 16.875C14.5726 16.9479 14.5703 17.0231 14.5703 17.1006V17.292V17.374C14.5703 17.5062 14.5794 17.6497 14.5977 17.8047C14.6159 17.9642 14.6729 18.0964 14.7686 18.2012C14.7777 18.224 14.7982 18.2536 14.8301 18.29C14.8665 18.3265 14.9053 18.3652 14.9463 18.4062C14.9873 18.4473 15.026 18.4837 15.0625 18.5156C15.099 18.5521 15.1263 18.5771 15.1445 18.5908ZM14.7686 19.6436C14.6273 19.6025 14.4951 19.5456 14.3721 19.4727C14.249 19.4043 14.126 19.3314 14.0029 19.2539C13.9801 19.2493 13.9596 19.2425 13.9414 19.2334C13.8958 19.2152 13.8685 19.2061 13.8594 19.2061C13.8001 19.1696 13.7454 19.1217 13.6953 19.0625C13.6452 19.0033 13.5996 18.9372 13.5586 18.8643C13.5221 18.7913 13.488 18.7161 13.4561 18.6387C13.4287 18.5658 13.4059 18.4974 13.3877 18.4336C13.3831 18.4336 13.3786 18.4222 13.374 18.3994C13.3695 18.3812 13.3649 18.3584 13.3604 18.3311C13.3558 18.3083 13.349 18.2832 13.3398 18.2559C13.3353 18.2331 13.3307 18.2148 13.3262 18.2012C13.3262 18.1921 13.3285 18.1784 13.333 18.1602C13.3376 18.1419 13.3398 18.1237 13.3398 18.1055C13.3398 18.0827 13.3353 18.0713 13.3262 18.0713C13.3262 18.0576 13.3216 18.0234 13.3125 17.9688C13.3079 17.9186 13.3011 17.8639 13.292 17.8047C13.2829 17.7454 13.2738 17.6885 13.2646 17.6338C13.2555 17.5837 13.2487 17.5518 13.2441 17.5381V17.5244V17.4902C13.2487 17.472 13.2601 17.4447 13.2783 17.4082C13.2965 17.3717 13.3148 17.333 13.333 17.292C13.3558 17.2555 13.3763 17.2191 13.3945 17.1826C13.4128 17.1507 13.4264 17.1302 13.4355 17.1211C13.4355 17.1165 13.4424 17.1029 13.4561 17.0801C13.4743 17.0573 13.4925 17.0322 13.5107 17.0049C13.5335 16.9821 13.554 16.957 13.5723 16.9297C13.5951 16.9069 13.611 16.8887 13.6201 16.875C13.6338 16.8568 13.6566 16.8294 13.6885 16.793C13.7249 16.7611 13.7614 16.7269 13.7979 16.6904C13.8343 16.6585 13.8662 16.6266 13.8936 16.5947C13.9255 16.5674 13.946 16.5514 13.9551 16.5469C13.9688 16.5378 14.0007 16.515 14.0508 16.4785C14.1009 16.4466 14.1556 16.4124 14.2148 16.376C14.2741 16.3395 14.3311 16.3053 14.3857 16.2734C14.4404 16.2415 14.4746 16.221 14.4883 16.2119C14.5293 16.18 14.5521 16.1549 14.5566 16.1367C14.5658 16.1185 14.5703 16.0889 14.5703 16.0479V15.9795C14.5339 15.9704 14.4906 15.9567 14.4404 15.9385C14.3903 15.9202 14.3379 15.902 14.2832 15.8838C14.2285 15.861 14.1761 15.8382 14.126 15.8154C14.0758 15.7881 14.0348 15.763 14.0029 15.7402C13.9209 15.681 13.8571 15.6195 13.8115 15.5557C13.7705 15.4919 13.7386 15.4258 13.7158 15.3574C13.693 15.2845 13.6794 15.2093 13.6748 15.1318C13.6702 15.0498 13.668 14.9609 13.668 14.8652C13.668 14.7832 13.6839 14.708 13.7158 14.6396C13.7477 14.5713 13.7887 14.5098 13.8389 14.4551C13.889 14.3958 13.9437 14.3389 14.0029 14.2842C14.0667 14.2295 14.1283 14.1748 14.1875 14.1201C14.2148 14.1019 14.2467 14.0859 14.2832 14.0723C14.3197 14.054 14.3561 14.0358 14.3926 14.0176C14.429 13.9993 14.4632 13.9811 14.4951 13.9629C14.527 13.9401 14.5521 13.9128 14.5703 13.8809C14.5794 13.8672 14.5908 13.8467 14.6045 13.8193C14.6227 13.792 14.6387 13.7646 14.6523 13.7373C14.6706 13.7054 14.6842 13.6781 14.6934 13.6553C14.707 13.6325 14.7161 13.6188 14.7207 13.6143V13.5527C14.7207 13.4935 14.6956 13.4525 14.6455 13.4297C14.5999 13.4069 14.5452 13.3887 14.4814 13.375C14.4222 13.3613 14.363 13.3431 14.3037 13.3203C14.2445 13.293 14.2057 13.2451 14.1875 13.1768C14.1875 13.1676 14.1807 13.1357 14.167 13.0811C14.1579 13.0264 14.1488 12.9945 14.1396 12.9854C14.1077 12.9215 14.0758 12.8669 14.0439 12.8213C14.0166 12.7712 13.9893 12.7233 13.9619 12.6777C13.9391 12.6322 13.9141 12.5866 13.8867 12.541C13.8639 12.4909 13.8434 12.4339 13.8252 12.3701C13.8161 12.3564 13.8092 12.3337 13.8047 12.3018C13.8047 12.2699 13.8024 12.2357 13.7979 12.1992C13.7979 12.1628 13.7979 12.1263 13.7979 12.0898C13.7979 12.0534 13.7979 12.0283 13.7979 12.0146C13.7979 11.9919 13.7979 11.9622 13.7979 11.9258C13.7979 11.8848 13.7979 11.846 13.7979 11.8096C13.8024 11.7686 13.8047 11.7344 13.8047 11.707C13.8092 11.6797 13.8161 11.6637 13.8252 11.6592C13.8252 11.6501 13.832 11.625 13.8457 11.584C13.8594 11.5384 13.8753 11.4883 13.8936 11.4336C13.9163 11.3789 13.9368 11.3242 13.9551 11.2695C13.9733 11.2148 13.9893 11.1715 14.0029 11.1396C14.0439 11.0257 14.0918 10.9027 14.1465 10.7705C14.2057 10.6338 14.2673 10.5199 14.3311 10.4287C14.3356 10.4196 14.3493 10.4036 14.3721 10.3809C14.3994 10.3535 14.4245 10.3262 14.4473 10.2988C14.4746 10.2715 14.4997 10.2464 14.5225 10.2236C14.5452 10.2008 14.5612 10.1872 14.5703 10.1826C14.6842 10.0505 14.7936 9.94108 14.8984 9.85449C15.0033 9.76335 15.1445 9.69954 15.3223 9.66309C15.3359 9.65853 15.3656 9.65397 15.4111 9.64941C15.4567 9.64486 15.5068 9.64258 15.5615 9.64258C15.6162 9.63802 15.6663 9.63346 15.7119 9.62891C15.7575 9.62435 15.7871 9.61979 15.8008 9.61523C15.819 9.61523 15.8532 9.60156 15.9033 9.57422C15.9535 9.54232 15.9808 9.51953 15.9854 9.50586C16.0583 9.49674 16.1357 9.48991 16.2178 9.48535C16.2998 9.47624 16.3727 9.47168 16.4365 9.47168C16.4912 9.47168 16.5322 9.47624 16.5596 9.48535C16.5869 9.48991 16.6211 9.51725 16.6621 9.56738C16.6849 9.56738 16.7259 9.57194 16.7852 9.58105C16.8444 9.59017 16.9059 9.60156 16.9697 9.61523C17.0381 9.62435 17.0996 9.63346 17.1543 9.64258C17.2135 9.65169 17.2546 9.65853 17.2773 9.66309C17.3138 9.66764 17.3411 9.67904 17.3594 9.69727C17.3822 9.71094 17.4004 9.72917 17.4141 9.75195C17.4277 9.77474 17.4391 9.7998 17.4482 9.82715C17.4619 9.84993 17.4824 9.87272 17.5098 9.89551C17.5371 9.91829 17.5713 9.94336 17.6123 9.9707C17.6579 9.99805 17.7057 10.0231 17.7559 10.0459C17.806 10.0687 17.8538 10.0892 17.8994 10.1074C17.9495 10.1257 17.9951 10.1348 18.0361 10.1348C18.1364 10.1348 18.2435 10.112 18.3574 10.0664C18.4759 10.0163 18.5739 9.95931 18.6514 9.89551C18.6787 9.87728 18.6969 9.86361 18.7061 9.85449C18.7197 9.84082 18.7311 9.82943 18.7402 9.82031C18.7539 9.80664 18.7676 9.79753 18.7812 9.79297C18.7995 9.78385 18.8223 9.77474 18.8496 9.76562C18.8587 9.76107 18.8747 9.75879 18.8975 9.75879C18.9202 9.75423 18.9453 9.75195 18.9727 9.75195C19 9.7474 19.0251 9.74512 19.0479 9.74512C19.0752 9.74512 19.0957 9.74512 19.1094 9.74512C19.3464 9.74512 19.5355 9.79297 19.6768 9.88867C19.818 9.97982 19.8887 10.1598 19.8887 10.4287C19.8887 10.5199 19.8841 10.5973 19.875 10.6611C19.8704 10.7249 19.8522 10.7796 19.8203 10.8252C19.7884 10.8662 19.7428 10.8981 19.6836 10.9209C19.6243 10.9391 19.5423 10.9482 19.4375 10.9482H19.417C19.4033 10.9482 19.3691 10.946 19.3145 10.9414C19.2643 10.9368 19.2096 10.9323 19.1504 10.9277C19.0911 10.9186 19.0342 10.9118 18.9795 10.9072C18.9294 10.9027 18.8975 10.9004 18.8838 10.9004C18.8473 10.9004 18.7995 10.9186 18.7402 10.9551C18.681 10.987 18.6514 11.028 18.6514 11.0781V12.3223C18.6514 12.418 18.6309 12.516 18.5898 12.6162C18.5534 12.7165 18.5101 12.8122 18.46 12.9033C18.3551 13.0947 18.223 13.2702 18.0635 13.4297C17.904 13.5892 17.7057 13.694 17.4688 13.7441C17.446 13.7487 17.4049 13.7555 17.3457 13.7646C17.2865 13.7738 17.2227 13.7852 17.1543 13.7988C17.0905 13.8079 17.029 13.8171 16.9697 13.8262C16.9105 13.8353 16.8717 13.8421 16.8535 13.8467H16.6621C16.6074 13.8558 16.5596 13.8717 16.5186 13.8945C16.4775 13.9173 16.4274 13.9287 16.3682 13.9287H16.2861C16.277 13.9287 16.2611 13.9264 16.2383 13.9219C16.2155 13.9173 16.1904 13.9128 16.1631 13.9082C16.1357 13.8991 16.1107 13.8923 16.0879 13.8877C16.0651 13.8831 16.0514 13.8809 16.0469 13.8809H15.6709C15.6481 13.8809 15.6048 13.8763 15.541 13.8672C15.4772 13.8535 15.4408 13.8467 15.4316 13.8467H15.3838H15.3223C15.3086 13.8558 15.2858 13.874 15.2539 13.9014C15.222 13.9287 15.1878 13.9606 15.1514 13.9971C15.1195 14.029 15.0876 14.0632 15.0557 14.0996C15.0283 14.1315 15.0124 14.1543 15.0078 14.168C14.9987 14.1771 14.9896 14.1976 14.9805 14.2295C14.9714 14.2614 14.9622 14.2979 14.9531 14.3389C14.944 14.3799 14.9326 14.4209 14.9189 14.4619C14.9098 14.5029 14.903 14.5348 14.8984 14.5576V14.626C14.8984 14.7217 14.9212 14.7946 14.9668 14.8447C15.0124 14.8903 15.0671 14.9245 15.1309 14.9473C15.1992 14.9655 15.2721 14.9746 15.3496 14.9746C15.4271 14.9746 15.4977 14.9769 15.5615 14.9814H16.1426C16.1471 14.9814 16.1631 14.9837 16.1904 14.9883C16.2178 14.9928 16.2474 14.9997 16.2793 15.0088C16.3112 15.0133 16.3408 15.0179 16.3682 15.0225C16.3955 15.027 16.4137 15.0293 16.4229 15.0293H16.7783H17.0859C17.0996 15.0293 17.1224 15.0247 17.1543 15.0156C17.1862 15.0065 17.2204 14.9951 17.2568 14.9814C17.2933 14.9678 17.3275 14.9564 17.3594 14.9473C17.3913 14.9382 17.4141 14.9336 17.4277 14.9336H17.4688H17.5098C17.5143 14.9336 17.5257 14.9382 17.5439 14.9473C17.5622 14.9564 17.5827 14.9678 17.6055 14.9814C17.6283 14.9951 17.6488 15.0065 17.667 15.0156C17.6852 15.0247 17.6966 15.0293 17.7012 15.0293C17.7103 15.0339 17.7308 15.0384 17.7627 15.043C17.7946 15.043 17.8288 15.0452 17.8652 15.0498C17.9017 15.0544 17.9359 15.0589 17.9678 15.0635C18.0042 15.0635 18.027 15.0635 18.0361 15.0635C18.0407 15.0726 18.0544 15.0863 18.0771 15.1045C18.1045 15.1227 18.1318 15.1432 18.1592 15.166C18.1865 15.1888 18.2116 15.2116 18.2344 15.2344C18.2572 15.2526 18.2731 15.264 18.2822 15.2686C18.2913 15.2686 18.3118 15.2731 18.3438 15.2822C18.3757 15.2913 18.4098 15.3027 18.4463 15.3164C18.4827 15.3255 18.5169 15.3346 18.5488 15.3438C18.5807 15.3529 18.6012 15.3597 18.6104 15.3643C18.6559 15.387 18.6924 15.4121 18.7197 15.4395C18.7516 15.4622 18.779 15.4896 18.8018 15.5215C18.8245 15.5534 18.8451 15.5876 18.8633 15.624C18.8861 15.6605 18.9134 15.6992 18.9453 15.7402C18.9863 15.804 19.0387 15.8519 19.1025 15.8838C19.1663 15.9111 19.2233 15.9613 19.2734 16.0342C19.3327 16.1117 19.3805 16.2028 19.417 16.3076C19.458 16.417 19.4876 16.5286 19.5059 16.6426C19.5286 16.7611 19.5423 16.8773 19.5469 16.9912C19.556 17.1097 19.5605 17.2168 19.5605 17.3125V17.4082C19.5104 17.75 19.3896 18.0599 19.1982 18.3379C19.0114 18.6204 18.7812 18.8597 18.5078 19.0557C18.2344 19.2562 17.9336 19.4089 17.6055 19.5137C17.2773 19.623 16.9469 19.6777 16.6143 19.6777C16.3545 19.6777 16.097 19.6709 15.8418 19.6572C15.5866 19.6481 15.3314 19.6436 15.0762 19.6436H14.7686Z" fill="#131313"/>
</svg>
