<svg width="24" height="24" viewBox="0 0 24 24" fill="none" xmlns="http://www.w3.org/2000/svg">
<path d="M8.88201 14.7459H3.49201L4.02401 13.6259H8.44801L8.88201 14.7459ZM6.23601 10.6579L2.90401 16.9999H1.29401L5.99801 8.15186H6.50201L11.206 16.9999H9.54001L6.23601 10.6579ZM16.61 19.4359C15.9193 19.4359 15.294 19.3986 14.734 19.3239C14.1833 19.2586 13.7073 19.1559 13.306 19.0159C12.914 18.8759 12.6107 18.6986 12.396 18.4839C12.1813 18.2786 12.074 18.0406 12.074 17.7699C12.074 17.5086 12.1533 17.2799 12.312 17.0839C12.48 16.8879 12.6993 16.7246 12.97 16.5939C13.25 16.4539 13.5627 16.3419 13.908 16.2579L14.874 16.5659C14.622 16.6499 14.384 16.7386 14.16 16.8319C13.936 16.9159 13.7493 17.0139 13.6 17.1259C13.46 17.2379 13.39 17.3779 13.39 17.5459C13.39 17.6672 13.4693 17.7746 13.628 17.8679C13.7867 17.9706 14.006 18.0546 14.286 18.1199C14.5753 18.1852 14.9207 18.2366 15.322 18.2739C15.7233 18.3112 16.1713 18.3299 16.666 18.3299C17.282 18.3299 17.8093 18.2972 18.248 18.2319C18.696 18.1759 19.0413 18.0872 19.284 17.9659C19.5267 17.8446 19.648 17.6952 19.648 17.5179C19.648 17.3499 19.5687 17.2146 19.41 17.1119C19.2513 17.0186 18.976 16.9486 18.584 16.9019C18.2013 16.8552 17.6833 16.8319 17.03 16.8319C16.5353 16.8319 16.0733 16.8179 15.644 16.7899C15.224 16.7619 14.8413 16.7152 14.496 16.6499C14.1507 16.5846 13.8567 16.5006 13.614 16.3979C13.3713 16.2952 13.18 16.1692 13.04 16.0199C12.9093 15.8706 12.844 15.6932 12.844 15.4879C12.844 15.2266 12.9653 14.9839 13.208 14.7599C13.4507 14.5266 13.768 14.3072 14.16 14.1019L15.028 14.4939C14.8787 14.5779 14.734 14.6526 14.594 14.7179C14.4633 14.7832 14.3513 14.8532 14.258 14.9279C14.174 14.9932 14.132 15.0726 14.132 15.1659C14.132 15.2966 14.244 15.3992 14.468 15.4739C14.692 15.5486 15.042 15.6046 15.518 15.6419C16.0033 15.6699 16.624 15.6839 17.38 15.6839C18.0987 15.6839 18.6913 15.7259 19.158 15.8099C19.6247 15.8939 19.9933 16.0152 20.264 16.1739C20.5347 16.3232 20.726 16.5006 20.838 16.7059C20.95 16.9112 21.006 17.1352 21.006 17.3779C21.006 17.6392 20.922 17.8912 20.754 18.1339C20.5953 18.3766 20.3433 18.5959 19.998 18.7919C19.6527 18.9879 19.2 19.1419 18.64 19.2539C18.08 19.3752 17.4033 19.4359 16.61 19.4359ZM16.218 14.7739C15.4993 14.7739 14.874 14.6759 14.342 14.4799C13.81 14.2746 13.3947 14.0039 13.096 13.6679C12.8067 13.3226 12.662 12.9492 12.662 12.5479C12.662 12.1279 12.8067 11.7546 13.096 11.4279C13.3947 11.0919 13.81 10.8306 14.342 10.6439C14.874 10.4479 15.4993 10.3499 16.218 10.3499C16.9367 10.3499 17.562 10.4432 18.094 10.6299C18.626 10.8072 19.0367 11.0639 19.326 11.3999C19.6247 11.7266 19.774 12.1092 19.774 12.5479C19.774 12.9772 19.6247 13.3599 19.326 13.6959C19.0367 14.0319 18.626 14.2979 18.094 14.4939C17.562 14.6806 16.9367 14.7739 16.218 14.7739ZM16.218 13.6679C16.666 13.6679 17.058 13.6212 17.394 13.5279C17.7393 13.4346 18.0053 13.3039 18.192 13.1359C18.3787 12.9586 18.472 12.7626 18.472 12.5479C18.472 12.3146 18.3787 12.1186 18.192 11.9599C18.0053 11.8012 17.7393 11.6799 17.394 11.5959C17.058 11.5026 16.666 11.4559 16.218 11.4559C15.8167 11.4559 15.4433 11.5026 15.098 11.5959C14.762 11.6799 14.4867 11.8012 14.272 11.9599C14.0667 12.1186 13.964 12.3146 13.964 12.5479C13.964 12.7626 14.0667 12.9586 14.272 13.1359C14.4773 13.3039 14.748 13.4346 15.084 13.5279C15.4293 13.6212 15.8073 13.6679 16.218 13.6679ZM19.186 11.8059L18.486 11.1199C18.8873 10.8679 19.312 10.6812 19.76 10.5599C20.2173 10.4386 20.7447 10.3919 21.342 10.4199L21.566 11.4139C21.1087 11.3766 20.6793 11.3859 20.278 11.4419C19.8767 11.4979 19.5127 11.6192 19.186 11.8059Z" fill="#131313"/>
</svg>
