<svg width="24" height="24" viewBox="0 0 24 24" fill="none" xmlns="http://www.w3.org/2000/svg">
<path d="M10.8138 17.2L10.1082 14.1424H8.00816L7.28576 17.2H6.31136L8.91536 6.54883H9.21776L11.8218 17.2H10.8138ZM9.06656 9.57283L8.20976 13.2352H9.90656L9.06656 9.57283ZM14.7048 14.596C14.4248 14.596 14.1672 14.5344 13.932 14.4112C13.8088 14.6352 13.7472 14.8536 13.7472 15.0664C13.7472 15.3352 13.848 15.5312 14.0496 15.6544C14.2624 15.7776 14.6824 15.8392 15.3096 15.8392C16.0936 15.8392 16.62 16.024 16.8888 16.3936C17.1576 16.752 17.292 17.2112 17.292 17.7712C17.292 18.1632 17.2136 18.5384 17.0568 18.8968C16.9112 19.2552 16.6648 19.5408 16.3176 19.7536C15.9816 19.9776 15.528 20.0896 14.9568 20.0896C14.2064 20.0896 13.6072 19.9216 13.1592 19.5856C12.7224 19.2608 12.504 18.768 12.504 18.1072C12.504 17.6928 12.5824 17.34 12.7392 17.0488C12.896 16.7576 13.092 16.5392 13.3272 16.3936C13.0472 16.1472 12.9072 15.8 12.9072 15.352C12.9072 15.1056 12.952 14.8704 13.0416 14.6464C13.1424 14.4112 13.2656 14.1816 13.4112 13.9576C13.0192 13.4648 12.8232 12.7816 12.8232 11.908C12.8232 11.1128 12.9912 10.4688 13.3272 9.97603C13.6632 9.48323 14.1224 9.23683 14.7048 9.23683C15.2984 9.23683 15.7632 9.49443 16.0992 10.0096C16.3008 9.75203 16.5136 9.56723 16.7376 9.45523C16.9616 9.33203 17.2248 9.28723 17.5272 9.32083L17.6448 10.312C17.4096 10.2784 17.1856 10.284 16.9728 10.3288C16.7712 10.3736 16.5808 10.4744 16.4016 10.6312C16.5248 11.012 16.5864 11.4376 16.5864 11.908C16.5864 12.7032 16.4184 13.3528 16.0824 13.8568C15.7464 14.3496 15.2872 14.596 14.7048 14.596ZM14.7048 13.6216C15.052 13.6216 15.3096 13.4648 15.4776 13.1512C15.6456 12.8376 15.7296 12.4232 15.7296 11.908C15.7296 11.3928 15.6456 10.9784 15.4776 10.6648C15.3096 10.3512 15.052 10.1944 14.7048 10.1944C14.3688 10.1944 14.1112 10.3512 13.932 10.6648C13.764 10.9784 13.68 11.3928 13.68 11.908C13.68 12.4232 13.764 12.8376 13.932 13.1512C14.1112 13.4648 14.3688 13.6216 14.7048 13.6216ZM13.428 17.9728C13.428 18.3536 13.5624 18.6448 13.8312 18.8464C14.1112 19.048 14.492 19.1488 14.9736 19.1488C15.4776 19.1488 15.836 19.0368 16.0488 18.8128C16.2616 18.6 16.368 18.3144 16.368 17.956C16.368 17.5864 16.2896 17.312 16.1328 17.1328C15.9872 16.9536 15.6512 16.864 15.1248 16.864C14.6096 16.864 14.184 16.8024 13.848 16.6792C13.6912 16.8472 13.5792 17.0264 13.512 17.2168C13.456 17.4072 13.428 17.6592 13.428 17.9728Z" fill="#131313"/>
</svg>
