<svg width="24" height="24" viewBox="0 0 24 24" fill="none" xmlns="http://www.w3.org/2000/svg">
<path d="M9.73327 14.6199H6.82127L7.00327 13.7519H9.52327L9.73327 14.6199ZM8.34727 10.6999L6.48527 16.9999H5.37927L8.17927 8.15186H8.52927L11.3153 16.9999H10.1813L8.34727 10.6999ZM14.594 19.4359C14.1833 19.4359 13.8147 19.3986 13.488 19.3239C13.1613 19.2492 12.8813 19.1419 12.648 19.0019C12.424 18.8619 12.2513 18.6892 12.13 18.4839C12.0087 18.2786 11.948 18.0359 11.948 17.7559C11.948 17.5039 11.9993 17.2752 12.102 17.0699C12.2047 16.8739 12.3353 16.7059 12.494 16.5659C12.662 16.4259 12.844 16.3232 13.04 16.2579L13.544 16.5239C13.404 16.6266 13.2873 16.7292 13.194 16.8319C13.1007 16.9252 13.0307 17.0326 12.984 17.1539C12.9373 17.2846 12.914 17.4386 12.914 17.6159C12.914 17.7652 12.9513 17.8959 13.026 18.0079C13.11 18.1199 13.2267 18.2132 13.376 18.2879C13.5253 18.3719 13.7027 18.4326 13.908 18.4699C14.1227 18.5072 14.3653 18.5259 14.636 18.5259C14.9907 18.5259 15.28 18.4839 15.504 18.3999C15.7373 18.3252 15.91 18.2179 16.022 18.0779C16.134 17.9379 16.19 17.7746 16.19 17.5879C16.19 17.4012 16.1573 17.2472 16.092 17.1259C16.0267 17.0139 15.896 16.9299 15.7 16.8739C15.504 16.8086 15.2193 16.7759 14.846 16.7759C14.5567 16.7759 14.286 16.7619 14.034 16.7339C13.782 16.7059 13.5533 16.6639 13.348 16.6079C13.1427 16.5426 12.9653 16.4586 12.816 16.3559C12.676 16.2532 12.5687 16.1319 12.494 15.9919C12.4193 15.8426 12.382 15.6699 12.382 15.4739C12.382 15.2126 12.452 14.9699 12.592 14.7459C12.732 14.5219 12.9093 14.3119 13.124 14.1159L13.656 14.4939C13.572 14.5966 13.502 14.6852 13.446 14.7599C13.39 14.8252 13.348 14.8906 13.32 14.9559C13.3013 15.0212 13.292 15.1006 13.292 15.1939C13.292 15.3246 13.3433 15.4366 13.446 15.5299C13.558 15.6139 13.7447 15.6792 14.006 15.7259C14.2767 15.7632 14.6407 15.7819 15.098 15.7819C15.518 15.7819 15.8633 15.8239 16.134 15.9079C16.4047 15.9826 16.6147 16.0992 16.764 16.2579C16.9133 16.4072 17.0207 16.5846 17.086 16.7899C17.1513 16.9859 17.184 17.2006 17.184 17.4339C17.184 17.6952 17.1327 17.9426 17.03 18.1759C16.9367 18.4186 16.7873 18.6332 16.582 18.8199C16.3767 19.0066 16.1107 19.1559 15.784 19.2679C15.4573 19.3799 15.0607 19.4359 14.594 19.4359ZM14.384 14.8299C13.964 14.8299 13.5953 14.7319 13.278 14.5359C12.97 14.3399 12.7273 14.0739 12.55 13.7379C12.382 13.3926 12.298 13.0099 12.298 12.5899C12.298 12.1606 12.382 11.7779 12.55 11.4419C12.7273 11.1059 12.97 10.8399 13.278 10.6439C13.5953 10.4386 13.9593 10.3359 14.37 10.3359C14.7993 10.3359 15.168 10.4386 15.476 10.6439C15.784 10.8399 16.022 11.1059 16.19 11.4419C16.3673 11.7779 16.456 12.1606 16.456 12.5899C16.456 13.0099 16.3673 13.3926 16.19 13.7379C16.022 14.0739 15.784 14.3399 15.476 14.5359C15.168 14.7319 14.804 14.8299 14.384 14.8299ZM14.37 13.9059C14.594 13.9059 14.79 13.8499 14.958 13.7379C15.126 13.6166 15.2567 13.4579 15.35 13.2619C15.4527 13.0566 15.504 12.8326 15.504 12.5899C15.504 12.3286 15.4527 12.0999 15.35 11.9039C15.2567 11.7079 15.126 11.5539 14.958 11.4419C14.79 11.3299 14.594 11.2739 14.37 11.2739C14.1553 11.2739 13.964 11.3299 13.796 11.4419C13.628 11.5539 13.4927 11.7079 13.39 11.9039C13.2967 12.0999 13.25 12.3286 13.25 12.5899C13.25 12.8326 13.2967 13.0566 13.39 13.2619C13.4833 13.4579 13.614 13.6166 13.782 13.7379C13.9593 13.8499 14.1553 13.9059 14.37 13.9059ZM16.106 11.6659L15.686 11.1059C15.9287 10.8539 16.1853 10.6672 16.456 10.5459C16.736 10.4246 17.0533 10.3779 17.408 10.4059L17.534 11.3019C17.2633 11.2739 17.0067 11.2832 16.764 11.3299C16.5213 11.3766 16.302 11.4886 16.106 11.6659Z" fill="#131313"/>
</svg>
