<svg width="24" height="24" viewBox="0 0 24 24" fill="none" xmlns="http://www.w3.org/2000/svg">
<path d="M10.02 13.1302H4.08L4.28 12.8502H9.88L10.02 13.1302ZM7.09 9.05016L2.88 15.0002H2.52L7.02 8.66016H7.18L11.48 15.0002H11.14L7.09 9.05016ZM16.88 16.7202C16.1667 16.7202 15.5467 16.6969 15.02 16.6502C14.4933 16.6035 14.0567 16.5302 13.71 16.4302C13.37 16.3369 13.1167 16.2169 12.95 16.0702C12.7833 15.9235 12.7 15.7469 12.7 15.5402C12.7 15.3535 12.7667 15.1835 12.9 15.0302C13.0333 14.8769 13.21 14.7435 13.43 14.6302C13.6567 14.5169 13.9033 14.4302 14.17 14.3702L14.59 14.4902C14.2767 14.5435 14 14.6269 13.76 14.7402C13.52 14.8469 13.33 14.9669 13.19 15.1002C13.0567 15.2335 12.99 15.3635 12.99 15.4902C12.99 15.6702 13.0733 15.8202 13.24 15.9402C13.4133 16.0669 13.6667 16.1669 14 16.2402C14.3333 16.3135 14.7433 16.3669 15.23 16.4002C15.7167 16.4335 16.2733 16.4502 16.9 16.4502C17.7067 16.4502 18.3767 16.4102 18.91 16.3302C19.45 16.2502 19.8533 16.1302 20.12 15.9702C20.3933 15.8102 20.5367 15.6069 20.55 15.3602C20.5567 15.2135 20.4367 15.0935 20.19 15.0002C19.95 14.9069 19.57 14.8369 19.05 14.7902C18.53 14.7369 17.8533 14.7102 17.02 14.7102C16.3467 14.7102 15.79 14.6935 15.35 14.6602C14.91 14.6269 14.56 14.5835 14.3 14.5302C14.0467 14.4702 13.8567 14.4035 13.73 14.3302C13.61 14.2569 13.53 14.1802 13.49 14.1002C13.4567 14.0202 13.44 13.9435 13.44 13.8702C13.44 13.6969 13.55 13.5269 13.77 13.3602C13.9967 13.1869 14.2533 13.0469 14.54 12.9402L14.83 13.0702C14.6633 13.1235 14.4933 13.1935 14.32 13.2802C14.1467 13.3669 14.0033 13.4569 13.89 13.5502C13.7767 13.6435 13.72 13.7369 13.72 13.8302C13.72 13.9902 13.8467 14.1169 14.1 14.2102C14.3533 14.2969 14.7567 14.3569 15.31 14.3902C15.8633 14.4235 16.5867 14.4402 17.48 14.4402C18.1 14.4402 18.6233 14.4635 19.05 14.5102C19.4767 14.5502 19.82 14.6102 20.08 14.6902C20.3467 14.7635 20.54 14.8569 20.66 14.9702C20.78 15.0769 20.84 15.1969 20.84 15.3302C20.84 15.5302 20.77 15.7135 20.63 15.8802C20.49 16.0535 20.2633 16.2035 19.95 16.3302C19.6433 16.4569 19.2367 16.5535 18.73 16.6202C18.23 16.6869 17.6133 16.7202 16.88 16.7202ZM16.46 13.3902C15.8 13.3902 15.23 13.3235 14.75 13.1902C14.2767 13.0569 13.91 12.8769 13.65 12.6502C13.39 12.4235 13.26 12.1702 13.26 11.8902C13.26 11.6302 13.39 11.3869 13.65 11.1602C13.91 10.9335 14.28 10.7502 14.76 10.6102C15.24 10.4702 15.8067 10.4002 16.46 10.4002C17.12 10.4002 17.69 10.4702 18.17 10.6102C18.65 10.7502 19.0167 10.9335 19.27 11.1602C19.53 11.3869 19.66 11.6302 19.66 11.8902C19.66 12.1969 19.53 12.4635 19.27 12.6902C19.0167 12.9169 18.65 13.0902 18.17 13.2102C17.69 13.3302 17.12 13.3902 16.46 13.3902ZM16.46 13.1202C17.06 13.1202 17.5767 13.0735 18.01 12.9802C18.45 12.8802 18.7867 12.7402 19.02 12.5602C19.26 12.3735 19.38 12.1502 19.38 11.8902C19.38 11.6635 19.26 11.4602 19.02 11.2802C18.7867 11.0935 18.45 10.9469 18.01 10.8402C17.5767 10.7269 17.06 10.6702 16.46 10.6702C15.86 10.6702 15.34 10.7269 14.9 10.8402C14.4667 10.9469 14.13 11.0935 13.89 11.2802C13.6567 11.4602 13.54 11.6635 13.54 11.8902C13.54 12.1235 13.6567 12.3335 13.89 12.5202C14.13 12.7069 14.4667 12.8535 14.9 12.9602C15.34 13.0669 15.86 13.1202 16.46 13.1202ZM18.99 11.1202L18.66 10.9802C19.0533 10.7869 19.4567 10.6469 19.87 10.5602C20.2833 10.4669 20.78 10.4302 21.36 10.4502V10.7002C20.92 10.6802 20.4833 10.7035 20.05 10.7702C19.6233 10.8302 19.27 10.9469 18.99 11.1202Z" fill="#131313"/>
</svg>
