<svg width="24" height="24" viewBox="0 0 24 24" fill="none" xmlns="http://www.w3.org/2000/svg">
<path d="M11.42 16.9999L10.934 13.7239H9.548L9.062 16.9999H8.144L10.034 5.58789H10.466L12.356 16.9999H11.42ZM10.25 9.06189L9.692 12.7519H10.79L10.25 9.06189ZM14.624 14.2099C14.432 14.2099 14.258 14.1619 14.102 14.0659C14.018 14.2699 13.976 14.4859 13.976 14.7139C13.976 15.0019 14.042 15.2179 14.174 15.3619C14.306 15.4939 14.612 15.5599 15.092 15.5599C15.644 15.5599 16.034 15.7519 16.262 16.1359C16.49 16.5199 16.604 17.0119 16.604 17.6119C16.604 18.0319 16.544 18.4339 16.424 18.8179C16.316 19.2019 16.13 19.5079 15.866 19.7359C15.614 19.9759 15.266 20.0959 14.822 20.0959C14.246 20.0959 13.784 19.9159 13.436 19.5559C13.1 19.2079 12.932 18.6799 12.932 17.9719C12.932 17.5279 12.992 17.1499 13.112 16.8379C13.232 16.5259 13.382 16.2919 13.562 16.1359C13.322 15.8719 13.202 15.4999 13.202 15.0199C13.202 14.7559 13.244 14.5039 13.328 14.2639C13.412 14.0119 13.514 13.7719 13.634 13.5439C13.334 13.0279 13.184 12.2899 13.184 11.3299C13.184 10.4419 13.31 9.74589 13.562 9.24189C13.826 8.72589 14.18 8.46789 14.624 8.46789C15.08 8.46789 15.44 8.73789 15.704 9.27789C16.004 8.73789 16.364 8.49789 16.784 8.55789L16.874 9.61989C16.694 9.58389 16.526 9.58989 16.37 9.63789C16.214 9.68589 16.07 9.79389 15.938 9.96189C16.022 10.3579 16.064 10.8139 16.064 11.3299C16.064 12.2179 15.938 12.9199 15.686 13.4359C15.434 13.9519 15.08 14.2099 14.624 14.2099ZM14.624 13.2019C14.888 13.2019 15.056 13.0399 15.128 12.7159C15.212 12.3799 15.254 11.9179 15.254 11.3299C15.254 10.7419 15.212 10.2859 15.128 9.96189C15.056 9.62589 14.888 9.45789 14.624 9.45789C14.36 9.45789 14.186 9.62589 14.102 9.96189C14.03 10.2859 13.994 10.7419 13.994 11.3299C13.994 11.9179 14.03 12.3799 14.102 12.7159C14.186 13.0399 14.36 13.2019 14.624 13.2019ZM13.796 17.8279C13.796 18.2359 13.892 18.5419 14.084 18.7459C14.276 18.9499 14.522 19.0519 14.822 19.0519C15.194 19.0519 15.44 18.9379 15.56 18.7099C15.68 18.4939 15.74 18.1939 15.74 17.8099C15.74 17.4139 15.686 17.1199 15.578 16.9279C15.482 16.7239 15.272 16.6219 14.948 16.6219C14.588 16.6219 14.288 16.5739 14.048 16.4779C13.952 16.6459 13.886 16.8259 13.85 17.0179C13.814 17.2219 13.796 17.4919 13.796 17.8279Z" fill="#131313"/>
</svg>
