<svg width="24" height="24" viewBox="0 0 24 24" fill="none" xmlns="http://www.w3.org/2000/svg">
<path d="M10.8746 17L10.1606 14.788H6.54859L5.83459 17H4.64459L7.80859 7.47998H8.95659L12.1346 17H10.8746ZM7.43059 12.044L6.89859 13.682H9.79659L9.26459 12.044L8.35459 9.10398L7.43059 12.044ZM19.152 17.868C19.152 18.5493 18.872 19.0953 18.312 19.506C17.7613 19.9167 17.0006 20.122 16.03 20.122C15.5446 20.122 15.036 20.0567 14.504 19.926C13.9813 19.7953 13.4866 19.5853 13.02 19.296L13.412 18.4C13.8786 18.6613 14.3266 18.8433 14.756 18.946C15.1946 19.058 15.6193 19.114 16.03 19.114C16.6646 19.114 17.1546 19.0113 17.5 18.806C17.8453 18.6007 18.018 18.3253 18.018 17.98C18.018 17.728 17.934 17.532 17.766 17.392C17.598 17.2613 17.3273 17.196 16.954 17.196H15.344C14.7373 17.196 14.2986 17.0513 14.028 16.762C13.7573 16.4727 13.622 16.1553 13.622 15.81C13.622 15.5673 13.678 15.3293 13.79 15.096C13.902 14.8533 14.0606 14.6153 14.266 14.382C13.9393 14.186 13.678 13.92 13.482 13.584C13.286 13.2387 13.188 12.8233 13.188 12.338C13.188 11.806 13.3 11.3627 13.524 11.008C13.7573 10.6533 14.0653 10.3873 14.448 10.21C14.8306 10.0233 15.26 9.92998 15.736 9.92998H15.974C16.3006 9.92998 16.5993 9.97665 16.87 10.07H19.362V11.092L17.85 10.882C18.046 11.05 18.2046 11.26 18.326 11.512C18.4473 11.7547 18.508 12.0533 18.508 12.408C18.508 12.912 18.3913 13.3367 18.158 13.682C17.934 14.0273 17.6306 14.2933 17.248 14.48C16.8653 14.6573 16.4406 14.746 15.974 14.746H15.736C15.6146 14.746 15.498 14.7413 15.386 14.732C15.274 14.7133 15.162 14.6947 15.05 14.676C14.7793 14.9747 14.644 15.2687 14.644 15.558C14.644 15.9313 14.9053 16.118 15.428 16.118H16.996C17.668 16.118 18.1953 16.2673 18.578 16.566C18.9606 16.8647 19.152 17.2987 19.152 17.868ZM15.974 13.752C16.338 13.752 16.66 13.6353 16.94 13.402C17.22 13.1687 17.36 12.814 17.36 12.338C17.36 11.8713 17.22 11.5213 16.94 11.288C16.66 11.0453 16.338 10.924 15.974 10.924H15.736C15.3626 10.924 15.036 11.0453 14.756 11.288C14.476 11.5213 14.336 11.8713 14.336 12.338C14.336 12.814 14.476 13.1687 14.756 13.402C15.036 13.6353 15.3626 13.752 15.736 13.752H15.974Z" fill="#131313"/>
</svg>
