<svg width="24" height="24" viewBox="0 0 24 24" fill="none" xmlns="http://www.w3.org/2000/svg">
<path d="M3.24656 19.2062C3.04123 19.2155 2.88256 19.1782 2.77056 19.0942C2.64923 19.0102 2.60723 18.8515 2.64456 18.6182C2.64456 18.5902 2.6539 18.5482 2.67256 18.4922C2.69123 18.4362 2.71456 18.3989 2.74256 18.3802C2.73323 18.6135 2.76123 18.7769 2.82656 18.8702C2.8919 18.9635 2.99923 19.0102 3.14856 19.0102C3.51256 19.0102 3.8859 18.8935 4.26856 18.6602C4.66056 18.4269 5.0479 18.1142 5.43056 17.7222C5.33723 17.6942 5.2159 17.6382 5.06656 17.5542C4.92656 17.4795 4.81923 17.4189 4.74456 17.3722C4.37123 17.1015 4.18456 16.7889 4.18456 16.4342C4.18456 16.1635 4.3059 15.8695 4.54856 15.5522C4.79123 15.2349 5.1879 14.9129 5.73856 14.5862C6.09323 14.3715 6.5039 14.1802 6.97056 14.0122C7.43723 13.8442 7.87123 13.7089 8.27256 13.6062C8.41256 13.3355 8.5479 13.0695 8.67856 12.8082C8.80923 12.5469 8.93523 12.2855 9.05656 12.0242C9.10323 11.9215 9.18723 11.7255 9.30856 11.4362C9.4299 11.1469 9.56523 10.8062 9.71456 10.4142C9.8639 10.0222 10.0039 9.60685 10.1346 9.16818C10.2746 8.72018 10.3912 8.28618 10.4846 7.86618C10.5779 7.44618 10.6246 7.07285 10.6246 6.74618C10.6246 6.42885 10.5686 6.18151 10.4566 6.00418C10.3539 5.82685 10.1672 5.73818 9.89656 5.73818H9.88256C9.8079 5.73818 9.77056 5.71485 9.77056 5.66818C9.77056 5.62151 9.81723 5.58885 9.91056 5.57018C10.3586 5.52351 10.6712 5.63085 10.8486 5.89218C11.0259 6.15351 11.1146 6.49885 11.1146 6.92818C11.1146 7.00285 11.1099 7.08218 11.1006 7.16618C11.1006 7.25018 11.0959 7.33885 11.0866 7.43218C11.1426 7.47885 11.1799 7.55818 11.1986 7.67018C11.2546 7.96885 11.3106 8.36085 11.3666 8.84618C11.4319 9.33151 11.5066 9.86351 11.5906 10.4422C11.6746 11.0209 11.7726 11.6089 11.8846 12.2062C12.0059 12.7942 12.1459 13.3495 12.3046 13.8722C12.4726 14.3855 12.6686 14.8195 12.8926 15.1742C12.9392 15.2489 13.0046 15.3469 13.0886 15.4682C13.1726 15.5802 13.2752 15.6829 13.3966 15.7762C13.5179 15.8695 13.6532 15.9162 13.8026 15.9162C13.9612 15.9162 14.1246 15.8509 14.2926 15.7202C14.4419 15.5989 14.5819 15.4309 14.7126 15.2162C14.8432 15.0015 14.9646 14.7729 15.0766 14.5302C15.1326 14.4275 15.1839 14.3762 15.2306 14.3762C15.2772 14.3762 15.3099 14.4042 15.3286 14.4602C15.3566 14.5069 15.3659 14.5535 15.3566 14.6002C15.3192 14.7215 15.2399 14.8662 15.1186 15.0342C15.0066 15.1929 14.8899 15.3422 14.7686 15.4822C14.6472 15.6129 14.5492 15.7062 14.4746 15.7622C14.3066 15.8929 14.1432 15.9862 13.9846 16.0422C13.8352 16.1075 13.6952 16.1402 13.5646 16.1402C13.2566 16.1402 12.9859 16.0235 12.7526 15.7902C12.5286 15.5475 12.3326 15.2955 12.1646 15.0342C11.9312 14.6609 11.7446 14.1895 11.6046 13.6202C11.4739 13.0509 11.3712 12.4349 11.2966 11.7722C11.2219 11.1095 11.1612 10.4562 11.1146 9.81218C11.0772 9.16818 11.0352 8.58018 10.9886 8.04818C10.8766 8.57085 10.7226 9.10751 10.5266 9.65818C10.3306 10.2089 10.1299 10.7175 9.92456 11.1842C9.72856 11.6415 9.56523 11.9962 9.43456 12.2482C9.22923 12.6682 9.00523 13.0882 8.76256 13.5082C9.1919 13.4055 9.6399 13.3122 10.1066 13.2282C10.5732 13.1442 10.9839 13.0649 11.3386 12.9902H11.3806C11.4179 12.9902 11.4366 13.0042 11.4366 13.0322C11.4366 13.0602 11.4132 13.0975 11.3666 13.1442C11.3199 13.1909 11.2592 13.2235 11.1846 13.2422C10.7832 13.3169 10.3492 13.4055 9.88256 13.5082C9.4159 13.6015 8.97723 13.7042 8.56656 13.8162C8.13723 14.5535 7.70323 15.2535 7.26456 15.9162C6.8259 16.5789 6.34523 17.1669 5.82256 17.6802C6.17723 17.7922 6.6299 17.8482 7.18056 17.8482H7.20856C7.28323 17.8482 7.32056 17.8669 7.32056 17.9042C7.32056 17.9602 7.26456 17.9882 7.15256 17.9882C6.89123 17.9975 6.63456 17.9835 6.38256 17.9462C6.13056 17.9182 5.89723 17.8715 5.68256 17.8062C5.2719 18.2075 4.85656 18.5295 4.43656 18.7722C4.0259 19.0242 3.62923 19.1689 3.24656 19.2062ZM5.57056 17.5822C6.01856 17.1155 6.45256 16.5695 6.87256 15.9442C7.3019 15.3189 7.70323 14.6655 8.07656 13.9842C7.95523 14.0215 7.82923 14.0635 7.69856 14.1102C7.5679 14.1569 7.4419 14.2129 7.32056 14.2782C7.1619 14.3529 6.94723 14.4602 6.67656 14.6002C6.4059 14.7402 6.13523 14.8895 5.86456 15.0482C5.60323 15.1975 5.40256 15.3329 5.26256 15.4542C5.0759 15.6222 4.94056 15.7855 4.85656 15.9442C4.77256 16.1029 4.73056 16.2569 4.73056 16.4062C4.73056 16.5369 4.7539 16.6629 4.80056 16.7842C4.85656 16.9055 4.9219 17.0222 4.99656 17.1342C5.04323 17.1902 5.12723 17.2649 5.24856 17.3582C5.37923 17.4609 5.48656 17.5355 5.57056 17.5822ZM15.2293 21.5582C14.8559 21.5582 14.5386 21.4462 14.2772 21.2222C14.0066 21.0075 13.8712 20.7182 13.8712 20.3542C13.8712 19.9902 14.0439 19.5655 14.3892 19.0802C14.7346 18.5949 15.3179 18.0909 16.1393 17.5682C16.3259 17.4375 16.5219 17.3209 16.7273 17.2182C16.9419 17.1155 17.1613 17.0082 17.3853 16.8962C17.4413 16.8682 17.4833 16.8542 17.5113 16.8542C17.5486 16.8542 17.5673 16.8682 17.5673 16.8962C17.5673 16.9615 17.5019 17.0315 17.3713 17.1062C16.9233 17.3302 16.5406 17.5635 16.2233 17.8062C15.9153 18.0582 15.6306 18.3522 15.3693 18.6882C15.2293 18.8655 15.0799 19.0709 14.9213 19.3042C14.7719 19.5469 14.6459 19.7849 14.5432 20.0182C14.4312 20.2515 14.3752 20.4615 14.3752 20.6482C14.3752 21.0402 14.5619 21.2362 14.9353 21.2362C15.0939 21.2362 15.2806 21.1895 15.4953 21.0962C15.7099 21.0122 15.9433 20.8722 16.1953 20.6762C16.8299 20.1815 17.2779 19.6309 17.5393 19.0242C17.8006 18.4269 17.9313 17.7269 17.9313 16.9242C17.9313 16.3269 17.8753 15.6642 17.7633 14.9362C17.6606 14.1895 17.6046 13.4755 17.5953 12.7942C17.5486 13.0835 17.4693 13.4335 17.3573 13.8442C17.2546 14.2455 17.1286 14.6282 16.9793 14.9922C16.8299 15.3562 16.6619 15.6689 16.4753 15.9302C16.2979 16.1915 16.0693 16.3222 15.7893 16.3222C15.5933 16.3222 15.4253 16.2242 15.2853 16.0282C15.1546 15.8322 15.0893 15.5335 15.0893 15.1322C15.0893 14.8335 15.1406 14.4789 15.2432 14.0682C15.3459 13.6575 15.4859 13.2609 15.6633 12.8782C15.8406 12.4862 16.0366 12.1642 16.2513 11.9122C16.4753 11.6509 16.6993 11.5202 16.9233 11.5202C17.0819 11.5202 17.1939 11.5855 17.2593 11.7162C17.3339 11.8375 17.3713 11.9635 17.3713 12.0942C17.3713 12.1969 17.3526 12.2855 17.3153 12.3602C17.2779 12.4349 17.2219 12.4722 17.1473 12.4722C17.0726 12.4629 17.0166 12.4302 16.9793 12.3742C16.9513 12.3089 16.9233 12.2482 16.8953 12.1922C16.8673 12.1269 16.8159 12.0942 16.7413 12.0942C16.5919 12.0942 16.4473 12.1922 16.3073 12.3882C16.1766 12.5749 16.0553 12.8222 15.9433 13.1302C15.8406 13.4289 15.7566 13.7462 15.6913 14.0822C15.6353 14.4182 15.6073 14.7262 15.6073 15.0062C15.6073 15.2675 15.6353 15.4822 15.6913 15.6502C15.7566 15.8182 15.8546 15.9069 15.9853 15.9162C16.1439 15.9255 16.2979 15.8229 16.4473 15.6082C16.5966 15.3935 16.7319 15.1182 16.8533 14.7822C16.9839 14.4462 17.0959 14.0915 17.1893 13.7182C17.2919 13.3355 17.3759 12.9809 17.4413 12.6542C17.5159 12.3182 17.5673 12.0569 17.5953 11.8702C17.6699 11.3755 17.7399 11.0629 17.8053 10.9322C17.8706 10.7922 17.9406 10.7222 18.0153 10.7222C18.0806 10.7222 18.1366 10.7829 18.1833 10.9042C18.2393 11.0255 18.2673 11.1375 18.2673 11.2402C18.2673 11.3149 18.2626 11.3662 18.2533 11.3942C18.1413 12.0102 18.0853 12.6402 18.0853 13.2842C18.0853 13.5549 18.0946 13.8255 18.1133 14.0962C18.1319 14.3575 18.1553 14.6189 18.1833 14.8802C18.2393 15.4215 18.2673 15.9255 18.2673 16.3922C18.2673 17.3442 18.1693 18.1469 17.9733 18.8002C17.7866 19.4629 17.5393 19.9949 17.2313 20.3962C16.9233 20.8069 16.5919 21.1009 16.2373 21.2782C15.8919 21.4649 15.5559 21.5582 15.2293 21.5582Z" fill="#131313"/>
</svg>
