<svg width="24" height="24" viewBox="0 0 24 24" fill="none" xmlns="http://www.w3.org/2000/svg">
<path d="M4.47239 17.0002H3.81614L7.49015 6.81836H8.20605L11.8801 17.0002H11.2238L7.87296 7.61879H7.82324L4.47239 17.0002ZM5.40208 13.1671H10.2941V13.7438H5.40208V13.1671ZM16.3197 20.0229C15.8457 20.0229 15.4198 19.96 15.042 19.834C14.6642 19.7114 14.3427 19.5357 14.0775 19.307C13.8157 19.0783 13.6151 18.8065 13.4759 18.4917L13.983 18.1934C14.0957 18.4386 14.2565 18.6574 14.4653 18.8496C14.6741 19.0419 14.9326 19.1927 15.2409 19.302C15.5524 19.4114 15.912 19.4661 16.3197 19.4661C17.0555 19.4661 17.6372 19.2755 18.0647 18.8944C18.4956 18.5165 18.711 17.9365 18.711 17.1543V15.2552H18.6514C18.5354 15.5866 18.363 15.8816 18.1343 16.1401C17.9089 16.3953 17.6322 16.5958 17.3041 16.7417C16.9759 16.8875 16.6031 16.9604 16.1855 16.9604C15.5822 16.9604 15.0519 16.8047 14.5945 16.4931C14.1372 16.1815 13.7809 15.744 13.5257 15.1806C13.2704 14.6138 13.1428 13.9476 13.1428 13.182C13.1428 12.4164 13.2671 11.7386 13.5157 11.1486C13.7676 10.5554 14.1222 10.0913 14.5796 9.75657C15.037 9.4185 15.574 9.24947 16.1904 9.24947C16.6312 9.24947 17.0124 9.33399 17.3339 9.50302C17.6587 9.66874 17.9305 9.88915 18.1492 10.1643C18.368 10.4394 18.537 10.741 18.6563 11.0691H18.7259V9.36382H19.3126V17.1792C19.3126 17.8155 19.1866 18.3442 18.9347 18.7651C18.6862 19.186 18.3365 19.5009 17.8857 19.7097C17.4383 19.9185 16.9163 20.0229 16.3197 20.0229ZM16.2401 16.3986C16.7506 16.3986 17.1897 16.2694 17.5576 16.0109C17.9288 15.749 18.2139 15.3778 18.4127 14.8972C18.6149 14.4133 18.716 13.8399 18.716 13.177C18.716 12.5341 18.6182 11.959 18.4227 11.4519C18.2271 10.9448 17.9437 10.5454 17.5725 10.2538C17.2013 9.96206 16.7572 9.81623 16.2401 9.81623C15.7132 9.81623 15.2641 9.96538 14.8928 10.2637C14.5216 10.5587 14.2366 10.9597 14.0377 11.4668C13.8422 11.9739 13.7444 12.544 13.7444 13.177C13.7444 13.8134 13.8438 14.3735 14.0427 14.8574C14.2416 15.338 14.5266 15.7159 14.8978 15.991C15.269 16.2627 15.7165 16.3986 16.2401 16.3986Z" fill="#131313"/>
</svg>
