<svg width="24" height="24" viewBox="0 0 24 24" fill="none" xmlns="http://www.w3.org/2000/svg">
<path d="M3.85121 17.0002H1.88246L7.15732 6.81836H9.4343L11.3335 17.0002H9.3647L7.99751 8.90643H7.91797L3.85121 17.0002ZM4.57706 13.008H9.94638L9.6978 14.4895H4.32848L4.57706 13.008ZM15.2063 20.0229C14.5567 20.0229 14.0148 19.9351 13.5806 19.7594C13.1464 19.5871 12.8117 19.3551 12.5763 19.0634C12.341 18.7717 12.1952 18.4486 12.1388 18.094L13.8292 17.7012C13.8789 17.8503 13.9585 17.9978 14.0678 18.1437C14.1805 18.2928 14.3462 18.4154 14.565 18.5116C14.7837 18.611 15.0754 18.6607 15.44 18.6607C15.9504 18.6607 16.3962 18.5364 16.7773 18.2878C17.1585 18.0393 17.3938 17.6349 17.4833 17.0748L17.712 15.628H17.6225C17.5032 15.8136 17.3391 16.0042 17.1303 16.1998C16.9248 16.3953 16.6647 16.5594 16.3498 16.692C16.0382 16.8245 15.6637 16.8908 15.2262 16.8908C14.6396 16.8908 14.1308 16.7533 13.6999 16.4782C13.2691 16.1998 12.9592 15.7855 12.7702 15.2353C12.5846 14.6818 12.5614 13.9891 12.7006 13.1572C12.8365 12.3186 13.0917 11.611 13.4663 11.0343C13.8441 10.4543 14.2965 10.0151 14.8235 9.7168C15.3505 9.41519 15.9073 9.26438 16.494 9.26438C16.9414 9.26438 17.2977 9.34062 17.5629 9.49308C17.828 9.64223 18.0285 9.82286 18.1644 10.035C18.3003 10.2438 18.3997 10.441 18.4627 10.6266H18.5572L18.766 9.36382H20.5408L19.2582 17.1245C19.1521 17.7774 18.9085 18.3177 18.5273 18.7452C18.1462 19.1761 17.6673 19.4959 17.0906 19.7047C16.5172 19.9169 15.8891 20.0229 15.2063 20.0229ZM15.9421 15.4789C16.3233 15.4789 16.6647 15.3861 16.9663 15.2005C17.2679 15.0149 17.5198 14.7481 17.7219 14.4001C17.9241 14.052 18.065 13.6344 18.1445 13.1472C18.2241 12.6666 18.2208 12.2457 18.1346 11.8844C18.0517 11.5232 17.891 11.2431 17.6523 11.0442C17.4137 10.8421 17.1022 10.741 16.7177 10.741C16.3166 10.741 15.9653 10.8454 15.6637 11.0542C15.3654 11.263 15.1201 11.5497 14.9279 11.9143C14.739 12.2755 14.6064 12.6865 14.5302 13.1472C14.4573 13.6145 14.4573 14.0239 14.5302 14.3752C14.6064 14.7232 14.7605 14.995 14.9925 15.1905C15.2279 15.3828 15.5444 15.4789 15.9421 15.4789Z" fill="#131313"/>
</svg>
