<svg width="24" height="24" viewBox="0 0 24 24" fill="none" xmlns="http://www.w3.org/2000/svg">
<path d="M4.56934 17.0002H3.5949L7.29874 6.81836H8.29306L11.9969 17.0002H11.0225L7.8307 8.02646H7.7611L4.56934 17.0002ZM5.27033 13.0975H10.3215V13.9327H5.27033V13.0975ZM16.4713 20.0229C15.951 20.0229 15.4952 19.955 15.1041 19.8191C14.713 19.6865 14.3833 19.5042 14.1148 19.2722C13.8463 19.0402 13.6375 18.78 13.4884 18.4917L14.2142 18.0144C14.3236 18.2066 14.4694 18.3956 14.6517 18.5812C14.8373 18.7668 15.0776 18.9209 15.3726 19.0435C15.6709 19.1662 16.0371 19.2275 16.4713 19.2275C17.1475 19.2275 17.6927 19.0584 18.107 18.7204C18.5246 18.3823 18.7334 17.857 18.7334 17.1444V15.4242H18.6539C18.5511 15.6562 18.4036 15.8882 18.2114 16.1202C18.0191 16.3489 17.7673 16.5395 17.4557 16.692C17.1475 16.8444 16.7646 16.9207 16.3073 16.9207C15.6974 16.9207 15.1555 16.7698 14.6816 16.4682C14.2109 16.1666 13.8397 15.7358 13.5679 15.1756C13.2994 14.6122 13.1652 13.941 13.1652 13.1621C13.1652 12.3899 13.2961 11.7104 13.558 11.1238C13.8231 10.5371 14.1927 10.0797 14.6666 9.7516C15.1406 9.42348 15.6924 9.25941 16.3222 9.25941C16.7895 9.25941 17.1773 9.34227 17.4855 9.50799C17.7938 9.6704 18.0407 9.87258 18.2263 10.1145C18.4152 10.3565 18.5627 10.5918 18.6688 10.8205H18.7583V9.36382H19.6233V17.1991C19.6233 17.8454 19.4858 18.3773 19.2107 18.7949C18.9356 19.2126 18.5611 19.5208 18.0871 19.7197C17.6131 19.9218 17.0745 20.0229 16.4713 20.0229ZM16.4117 16.1103C16.9022 16.1103 17.3215 15.9926 17.6695 15.7573C18.0175 15.5187 18.2843 15.1773 18.4699 14.7332C18.6555 14.289 18.7483 13.7604 18.7483 13.1472C18.7483 12.5506 18.6572 12.022 18.4749 11.5613C18.2926 11.0973 18.0274 10.7327 17.6794 10.4675C17.3347 10.1991 16.9121 10.0648 16.4117 10.0648C15.9012 10.0648 15.4704 10.2024 15.1191 10.4775C14.7677 10.7526 14.5026 11.1238 14.3236 11.5911C14.1446 12.0551 14.0551 12.5738 14.0551 13.1472C14.0551 13.7306 14.1463 14.2459 14.3286 14.6934C14.5109 15.1375 14.7777 15.4855 15.129 15.7374C15.4803 15.986 15.9079 16.1103 16.4117 16.1103Z" fill="#131313"/>
</svg>
