<svg width="24" height="24" viewBox="0 0 24 24" fill="none" xmlns="http://www.w3.org/2000/svg">
<path d="M5.35427 14.1719L4.02427 16.9999H3.28227V16.9159L7.87427 7.17188H8.19627L12.7463 16.9159V16.9999H12.0183L10.6883 14.1719H5.35427ZM5.59227 13.5559H10.4503L8.02827 8.33387L5.59227 13.5559ZM19.1753 16.3699C18.7833 16.6312 18.3867 16.8179 17.9853 16.9299C17.5933 17.0419 17.2013 17.1026 16.8093 17.1119C16.3707 17.1212 15.9553 17.0606 15.5633 16.9299C15.1713 16.7899 14.826 16.5752 14.5273 16.2859C14.238 15.9966 14.0047 15.6326 13.8273 15.1939C13.6593 14.7459 13.5753 14.2186 13.5753 13.6119C13.5753 13.0332 13.664 12.5292 13.8413 12.0999C14.028 11.6612 14.2847 11.2972 14.6113 11.0079C14.938 10.7186 15.3207 10.5039 15.7593 10.3639C16.2073 10.2146 16.6973 10.1399 17.2293 10.1399C18.1627 10.1492 19.0307 10.3406 19.8333 10.7139V17.6019C19.8333 18.1526 19.7493 18.6099 19.5813 18.9739C19.4227 19.3472 19.2033 19.6459 18.9233 19.8699C18.6527 20.0939 18.3307 20.2526 17.9573 20.3459C17.5933 20.4486 17.206 20.4999 16.7953 20.4999C16.338 20.5092 15.8713 20.4532 15.3953 20.3319C14.9287 20.2199 14.476 20.0379 14.0373 19.7859L14.1913 19.1979C14.5927 19.4312 15.0173 19.6039 15.4653 19.7159C15.9227 19.8279 16.366 19.8839 16.7953 19.8839C17.122 19.8839 17.43 19.8466 17.7193 19.7719C18.0087 19.7066 18.2607 19.5852 18.4753 19.4079C18.69 19.2399 18.858 19.0066 18.9793 18.7079C19.11 18.4186 19.1753 18.0499 19.1753 17.6019V16.3699ZM19.1753 11.1339C18.83 11.0032 18.494 10.9146 18.1673 10.8679C17.8407 10.8212 17.514 10.7979 17.1873 10.7979C16.7487 10.7979 16.3473 10.8539 15.9833 10.9659C15.6287 11.0779 15.3207 11.2506 15.0593 11.4839C14.798 11.7172 14.5973 12.0112 14.4573 12.3659C14.3173 12.7206 14.2473 13.1359 14.2473 13.6119C14.2473 14.1252 14.3173 14.5686 14.4573 14.9419C14.5973 15.3059 14.784 15.6046 15.0173 15.8379C15.26 16.0712 15.5353 16.2439 15.8433 16.3559C16.1607 16.4586 16.4967 16.5099 16.8513 16.5099C17.2433 16.5099 17.6353 16.4446 18.0273 16.3139C18.4193 16.1832 18.802 15.9686 19.1753 15.6699V11.1339Z" fill="#131313"/>
</svg>
