<svg width="24" height="24" viewBox="0 0 24 24" fill="none" xmlns="http://www.w3.org/2000/svg">
<path d="M9.42985 17.0001L8.99585 15.7821H6.20985L5.77585 17.0001H3.24185V16.8461L7.00785 7.06006H8.21185L11.9359 16.8461V17.0001H9.42985ZM8.30985 13.7941C8.19785 13.4394 8.10452 13.1361 8.02985 12.8841C7.95519 12.6321 7.88985 12.4034 7.83385 12.1981C7.78718 11.9928 7.74519 11.7968 7.70785 11.6101C7.67052 11.4234 7.63319 11.2228 7.59585 11.0081C7.54919 11.2508 7.50252 11.4701 7.45585 11.6661C7.41852 11.8528 7.37185 12.0488 7.31585 12.2541C7.26918 12.4594 7.21318 12.6834 7.14785 12.9261C7.08252 13.1688 6.99852 13.4581 6.89585 13.7941H8.30985ZM12.0717 12.1141C12.0717 11.3581 12.179 10.6674 12.3937 10.0421C12.6084 9.41673 12.907 8.88473 13.2897 8.44606C13.6817 8.00739 14.139 7.66673 14.6617 7.42406C15.1937 7.18139 15.7677 7.06006 16.3837 7.06006C16.7944 7.06006 17.205 7.12539 17.6157 7.25606C18.0264 7.37739 18.4044 7.57339 18.7497 7.84406C19.1044 8.11473 19.4124 8.46473 19.6737 8.89406C19.935 9.32339 20.117 9.83673 20.2197 10.4341H17.8677C17.737 10.0421 17.5457 9.76673 17.2937 9.60806C17.0417 9.44006 16.7384 9.35606 16.3837 9.35606C15.7677 9.35606 15.301 9.60806 14.9837 10.1121C14.6757 10.6068 14.5217 11.2694 14.5217 12.1001C14.5217 12.5014 14.5637 12.8701 14.6477 13.2061C14.741 13.5328 14.867 13.8128 15.0257 14.0461C15.1937 14.2794 15.3897 14.4614 15.6137 14.5921C15.847 14.7228 16.1037 14.7881 16.3837 14.7881C16.7197 14.7881 17.0184 14.7088 17.2797 14.5501C17.5504 14.3821 17.7464 14.0648 17.8677 13.5981H16.3837V11.4421H20.3177C20.3737 12.2168 20.341 12.9494 20.2197 13.6401C20.1077 14.3308 19.893 14.9374 19.5757 15.4601C19.2584 15.9734 18.8337 16.3794 18.3017 16.6781C17.779 16.9768 17.1397 17.1261 16.3837 17.1261C15.7397 17.1261 15.1517 17.0094 14.6197 16.7761C14.0877 16.5334 13.6304 16.1928 13.2477 15.7541C12.8744 15.3154 12.585 14.7881 12.3797 14.1721C12.1744 13.5561 12.0717 12.8701 12.0717 12.1141Z" fill="#131313"/>
</svg>
