<svg width="24" height="24" viewBox="0 0 24 24" fill="none" xmlns="http://www.w3.org/2000/svg">
<path d="M5.36109 14.1719L4.03109 16.9999H3.28909V16.9159L7.88109 7.17188H8.20309L12.7531 16.9159V16.9999H12.0251L10.6951 14.1719H5.36109ZM5.59909 13.5559H10.4571L8.03509 8.33387L5.59909 13.5559ZM19.1685 11.1899C18.8418 11.0312 18.5058 10.9146 18.1605 10.8399C17.8245 10.7559 17.4932 10.7139 17.1665 10.7139C16.7372 10.7139 16.3405 10.7792 15.9765 10.9099C15.6218 11.0406 15.3138 11.2272 15.0525 11.4699C14.7912 11.7126 14.5858 12.0159 14.4365 12.3799C14.2965 12.7346 14.2265 13.1406 14.2265 13.5979C14.2265 14.0739 14.2918 14.4939 14.4225 14.8579C14.5532 15.2219 14.7305 15.5299 14.9545 15.7819C15.1878 16.0339 15.4585 16.2252 15.7665 16.3559C16.0745 16.4772 16.4058 16.5379 16.7605 16.5379C17.1712 16.5379 17.5258 16.4539 17.8245 16.2859C18.1325 16.1086 18.3845 15.8799 18.5805 15.5999C18.7765 15.3199 18.9212 15.0072 19.0145 14.6619C19.1172 14.3072 19.1685 13.9526 19.1685 13.5979V11.1899ZM14.2125 19.1699C14.4645 19.3192 14.6885 19.4406 14.8845 19.5339C15.0898 19.6272 15.2905 19.7019 15.4865 19.7579C15.6825 19.8139 15.8832 19.8512 16.0885 19.8699C16.3032 19.8979 16.5458 19.9119 16.8165 19.9119C17.1432 19.9119 17.4512 19.8699 17.7405 19.7859C18.0298 19.7019 18.2818 19.5619 18.4965 19.3659C18.7112 19.1699 18.8792 18.9132 19.0005 18.5959C19.1312 18.2879 19.1965 17.9006 19.1965 17.4339V15.4879C18.9912 16.0479 18.6598 16.4632 18.2025 16.7339C17.7545 16.9952 17.2272 17.1259 16.6205 17.1259C16.2098 17.1259 15.8178 17.0559 15.4445 16.9159C15.0805 16.7666 14.7585 16.5472 14.4785 16.2579C14.1985 15.9592 13.9745 15.5906 13.8065 15.1519C13.6385 14.7039 13.5545 14.1859 13.5545 13.5979C13.5545 13.0379 13.6478 12.5432 13.8345 12.1139C14.0212 11.6752 14.2778 11.3112 14.6045 11.0219C14.9312 10.7232 15.3185 10.4992 15.7665 10.3499C16.2145 10.2006 16.6998 10.1259 17.2225 10.1259C17.6798 10.1259 18.1232 10.1819 18.5525 10.2939C18.9818 10.4059 19.4065 10.5599 19.8265 10.7559V17.4339C19.8265 17.9752 19.7472 18.4372 19.5885 18.8199C19.4298 19.2119 19.2105 19.5292 18.9305 19.7719C18.6598 20.0239 18.3425 20.2059 17.9785 20.3179C17.6145 20.4392 17.2272 20.4999 16.8165 20.4999C16.5365 20.4999 16.2845 20.4859 16.0605 20.4579C15.8365 20.4392 15.6172 20.3972 15.4025 20.3319C15.1972 20.2759 14.9825 20.1966 14.7585 20.0939C14.5438 20.0006 14.3012 19.8746 14.0305 19.7159L14.2125 19.1699Z" fill="#131313"/>
</svg>
