<svg width="24" height="24" viewBox="0 0 24 24" fill="none" xmlns="http://www.w3.org/2000/svg">
<path d="M11.6029 17.0001L10.7069 14.5781H6.54891L5.63891 17.0001H4.51891V16.8461L8.39691 7.06006H8.90091L12.7369 16.8461V17.0001H11.6029ZM6.92691 13.5701H10.3289L8.63491 9.03406L6.92691 13.5701ZM17.8118 16.4961C17.5038 16.7481 17.1958 16.9161 16.8878 17.0001C16.5891 17.0934 16.2951 17.1401 16.0058 17.1401C15.6045 17.1401 15.2358 17.0608 14.8998 16.9021C14.5731 16.7341 14.2931 16.5008 14.0598 16.2021C13.8265 15.8941 13.6445 15.5254 13.5138 15.0961C13.3925 14.6668 13.3318 14.1861 13.3318 13.6541C13.3318 13.0848 13.4065 12.5808 13.5558 12.1421C13.7051 11.7034 13.9198 11.3348 14.1998 11.0361C14.4798 10.7374 14.8111 10.5088 15.1938 10.3501C15.5858 10.1914 16.0198 10.1121 16.4958 10.1121C16.9158 10.1121 17.3171 10.1728 17.6998 10.2941C18.0825 10.4061 18.4511 10.5554 18.8058 10.7421V17.4621C18.8058 17.9194 18.7405 18.3348 18.6098 18.7081C18.4791 19.0814 18.2925 19.3988 18.0498 19.6601C17.8165 19.9308 17.5318 20.1361 17.1958 20.2761C16.8598 20.4254 16.4911 20.5001 16.0898 20.5001C15.6978 20.5001 15.3011 20.4348 14.8998 20.3041C14.4985 20.1734 14.1111 19.9868 13.7378 19.7441L13.9058 18.8761C14.2418 19.0908 14.5965 19.2634 14.9698 19.3941C15.3525 19.5248 15.7211 19.5854 16.0758 19.5761C16.5985 19.5668 17.0185 19.3754 17.3358 19.0021C17.6531 18.6381 17.8118 18.1528 17.8118 17.5461V16.4961ZM17.7978 11.3721C17.3405 11.1574 16.8925 11.0501 16.4538 11.0501C15.8285 11.0501 15.3245 11.2694 14.9418 11.7081C14.5591 12.1468 14.3678 12.7908 14.3678 13.6401C14.3678 14.4708 14.5311 15.1054 14.8578 15.5441C15.1938 15.9828 15.6418 16.2021 16.2018 16.2021C16.4631 16.2021 16.7245 16.1554 16.9858 16.0621C17.2565 15.9594 17.5271 15.7868 17.7978 15.5441V11.3721Z" fill="#131313"/>
</svg>
