<svg width="24" height="24" viewBox="0 0 24 24" fill="none" xmlns="http://www.w3.org/2000/svg">
<path d="M3.98162 14.9702L3.02962 17.0002H1.32162V16.7902L5.85762 7.13022H6.61362L11.1216 16.7902V17.0002H9.42762L8.46163 14.9702H3.98162ZM4.51362 13.5982H7.94362L6.23562 9.67822L4.51362 13.5982ZM11.4946 12.0862C11.4946 11.3022 11.6299 10.6022 11.9006 9.98622C12.1713 9.36089 12.5306 8.83355 12.9786 8.40422C13.4359 7.97489 13.9633 7.64822 14.5606 7.42422C15.1579 7.19089 15.7879 7.07422 16.4506 7.07422C16.9359 7.07422 17.4073 7.13489 17.8646 7.25622C18.3313 7.36822 18.7606 7.55022 19.1526 7.80222C19.5446 8.04489 19.8853 8.36222 20.1746 8.75422C20.4733 9.13689 20.6973 9.59889 20.8466 10.1402H19.2366C18.9659 9.57089 18.5926 9.16489 18.1166 8.92222C17.6499 8.67022 17.0899 8.54422 16.4366 8.54422C15.9233 8.54422 15.4613 8.63755 15.0506 8.82422C14.6493 9.01089 14.3039 9.26289 14.0146 9.58022C13.7346 9.89755 13.5199 10.2755 13.3706 10.7142C13.2213 11.1435 13.1466 11.6009 13.1466 12.0862C13.1466 12.6089 13.2213 13.0895 13.3706 13.5282C13.5293 13.9575 13.7486 14.3309 14.0286 14.6482C14.3179 14.9562 14.6633 15.1989 15.0646 15.3762C15.4753 15.5535 15.9326 15.6422 16.4366 15.6422C16.8566 15.6422 17.2439 15.6002 17.5986 15.5162C17.9626 15.4229 18.2799 15.2782 18.5506 15.0822C18.8213 14.8769 19.0453 14.6109 19.2226 14.2842C19.4093 13.9575 19.5353 13.5609 19.6006 13.0942H16.5486V11.7082H21.1406C21.1593 12.1842 21.1453 12.6415 21.0986 13.0802C21.0519 13.5095 20.9493 13.9389 20.7906 14.3682C20.6039 14.8349 20.3613 15.2409 20.0626 15.5862C19.7733 15.9315 19.4373 16.2209 19.0546 16.4542C18.6813 16.6782 18.2706 16.8462 17.8226 16.9582C17.3839 17.0702 16.9219 17.1262 16.4366 17.1262C15.7646 17.1262 15.1299 17.0142 14.5326 16.7902C13.9353 16.5569 13.4126 16.2255 12.9646 15.7962C12.5166 15.3575 12.1573 14.8255 11.8866 14.2002C11.6253 13.5749 11.4946 12.8702 11.4946 12.0862Z" fill="#131313"/>
</svg>
