<svg width="24" height="24" viewBox="0 0 24 24" fill="none" xmlns="http://www.w3.org/2000/svg">
<path d="M3.77911 14.5782L2.63111 17.0002H1.41311V16.8462L5.97711 7.15822H6.50911L11.0311 16.8462V17.0002H9.82711L8.67911 14.5782H3.77911ZM4.17111 13.5702H8.28711L6.22911 8.99222L4.17111 13.5702ZM11.5301 12.0862C11.5301 11.3302 11.6561 10.6442 11.9081 10.0282C12.1601 9.40289 12.5054 8.87555 12.9441 8.44622C13.3921 8.00755 13.9101 7.67155 14.4981 7.43822C15.0954 7.19555 15.7347 7.07422 16.4161 7.07422C16.8921 7.07422 17.3587 7.13022 17.8161 7.24222C18.2827 7.35422 18.7121 7.53155 19.1041 7.77422C19.4961 8.00755 19.8367 8.31089 20.1261 8.68422C20.4154 9.04822 20.6301 9.48689 20.7701 10.0002H19.6221C19.4914 9.64555 19.3187 9.35155 19.1041 9.11822C18.8987 8.87555 18.6561 8.68422 18.3761 8.54422C18.0961 8.39489 17.7881 8.29222 17.4521 8.23622C17.1254 8.17089 16.7801 8.13822 16.4161 8.13822C15.8467 8.13822 15.3334 8.24089 14.8761 8.44622C14.4187 8.64222 14.0267 8.91755 13.7001 9.27222C13.3827 9.62689 13.1354 10.0469 12.9581 10.5322C12.7901 11.0082 12.7061 11.5262 12.7061 12.0862C12.7061 12.6555 12.7901 13.1829 12.9581 13.6682C13.1354 14.1535 13.3827 14.5735 13.7001 14.9282C14.0267 15.2735 14.4187 15.5442 14.8761 15.7402C15.3334 15.9362 15.8467 16.0342 16.4161 16.0342C16.9201 16.0342 17.3821 15.9689 17.8021 15.8382C18.2314 15.7075 18.6047 15.5115 18.9221 15.2502C19.2394 14.9795 19.4961 14.6435 19.6921 14.2422C19.8881 13.8409 20.0094 13.3742 20.0561 12.8422H16.5701V11.8482H21.1341C21.1527 12.2962 21.1341 12.7349 21.0781 13.1642C21.0221 13.5935 20.9147 14.0042 20.7561 14.3962C20.3921 15.3015 19.8227 15.9829 19.0481 16.4402C18.2827 16.8975 17.4054 17.1262 16.4161 17.1262C15.7254 17.1262 15.0814 17.0095 14.4841 16.7762C13.8867 16.5335 13.3687 16.1929 12.9301 15.7542C12.4914 15.3062 12.1461 14.7742 11.8941 14.1582C11.6514 13.5329 11.5301 12.8422 11.5301 12.0862Z" fill="#131313"/>
</svg>
