<svg width="24" height="24" viewBox="0 0 24 24" fill="none" xmlns="http://www.w3.org/2000/svg">
<path d="M5.92827 15.3762L5.17227 17.0002H2.98827V16.7202L7.49627 7.11621H8.46227L12.9423 16.7202V17.0002H10.7723L10.0023 15.3762H5.92827ZM6.61427 13.6122H9.33027L7.97227 10.3782L6.61427 13.6122ZM18.1413 11.9322C17.7493 11.7922 17.3713 11.7222 17.0073 11.7222C16.5033 11.7222 16.088 11.8669 15.7613 12.1562C15.4346 12.4362 15.2666 12.9215 15.2573 13.6122C15.2573 14.2282 15.374 14.6995 15.6073 15.0262C15.85 15.3435 16.2513 15.5022 16.8113 15.5022C17.0633 15.5022 17.2733 15.4415 17.4413 15.3202C17.6093 15.1989 17.7446 15.0449 17.8473 14.8582C17.95 14.6715 18.0246 14.4709 18.0713 14.2562C18.118 14.0322 18.1413 13.8175 18.1413 13.6122V11.9322ZM14.0253 18.3442C14.3613 18.5122 14.73 18.6475 15.1313 18.7502C15.5326 18.8529 15.9293 18.9042 16.3213 18.9042C16.6013 18.9042 16.858 18.8715 17.0913 18.8062C17.3246 18.7409 17.5253 18.6335 17.6933 18.4842C17.8613 18.3349 17.992 18.1389 18.0853 17.8962C18.188 17.6535 18.2393 17.3502 18.2393 16.9862V16.0342C18.0713 16.4449 17.8053 16.7295 17.4413 16.8882C17.0866 17.0469 16.6946 17.1262 16.2653 17.1262C15.8733 17.1262 15.5 17.0609 15.1453 16.9302C14.7906 16.7902 14.4733 16.5755 14.1933 16.2862C13.9226 15.9969 13.7033 15.6329 13.5353 15.1942C13.3766 14.7555 13.2973 14.2329 13.2973 13.6262C13.3066 12.9542 13.4186 12.3942 13.6333 11.9462C13.848 11.4982 14.1326 11.1389 14.4873 10.8682C14.842 10.5882 15.2526 10.3922 15.7193 10.2802C16.186 10.1682 16.6806 10.1122 17.2033 10.1122C17.7073 10.1122 18.1926 10.1729 18.6593 10.2942C19.1353 10.4062 19.5973 10.5555 20.0453 10.7422V16.9862C20.0453 17.6022 19.952 18.1295 19.7653 18.5682C19.588 19.0069 19.3406 19.3709 19.0233 19.6602C18.7153 19.9495 18.3513 20.1595 17.9313 20.2902C17.5206 20.4302 17.082 20.5002 16.6153 20.5002C16.1673 20.5002 15.7053 20.4395 15.2293 20.3182C14.7533 20.2062 14.2913 20.0289 13.8433 19.7862L14.0253 18.3442Z" fill="#131313"/>
</svg>
