<svg width="24" height="24" viewBox="0 0 24 24" fill="none" xmlns="http://www.w3.org/2000/svg">
<path d="M7.94913 8.81022H7.96313L10.6231 14.5082H5.31713L7.94913 8.81022ZM9.89513 15.7682H6.03113L5.45713 17.0002H3.00713V16.6362L7.41713 7.07422H8.49513L12.9191 16.6362V17.0002H10.4691L9.89513 15.7682ZM7.99113 8.50222H7.90713L4.42113 16.0482H4.60313L5.26113 14.6622H10.6791L11.3231 16.0482H11.5051L7.99113 8.50222ZM7.94913 11.2602L6.94113 13.5142H8.98513L7.94913 11.2602ZM17.7444 16.8742C17.4644 16.9862 17.1938 17.0562 16.9324 17.0842C16.6711 17.1215 16.4191 17.1402 16.1764 17.1402C15.7284 17.1402 15.3178 17.0655 14.9444 16.9162C14.5711 16.7575 14.2538 16.5289 13.9924 16.2302C13.7311 15.9315 13.5258 15.5675 13.3764 15.1382C13.2364 14.7089 13.1664 14.2189 13.1664 13.6682C13.1758 13.0055 13.2878 12.4502 13.5024 12.0022C13.7171 11.5449 14.0018 11.1762 14.3564 10.8962C14.7204 10.6162 15.1358 10.4155 15.6024 10.2942C16.0691 10.1729 16.5638 10.1169 17.0864 10.1262C17.5904 10.1262 18.0898 10.1822 18.5844 10.2942C19.0884 10.4062 19.5691 10.5555 20.0264 10.7422V16.8742C20.0264 17.5089 19.9378 18.0502 19.7604 18.4982C19.5831 18.9555 19.3358 19.3335 19.0184 19.6322C18.7011 19.9309 18.3231 20.1502 17.8844 20.2902C17.4551 20.4302 16.9838 20.5002 16.4704 20.5002C16.0131 20.5002 15.5464 20.4349 15.0704 20.3042C14.5944 20.1829 14.1231 20.0009 13.6564 19.7582L13.9364 17.9522C14.2631 18.1109 14.6224 18.2509 15.0144 18.3722C15.4064 18.4935 15.7844 18.5542 16.1484 18.5542C16.3724 18.5542 16.5778 18.5262 16.7644 18.4702C16.9604 18.4235 17.1284 18.3349 17.2684 18.2042C17.4178 18.0735 17.5344 17.9009 17.6184 17.6862C17.7024 17.4715 17.7444 17.2009 17.7444 16.8742ZM18.8084 17.2522C18.8084 17.6255 18.7431 17.9522 18.6124 18.2322C18.4911 18.5122 18.3184 18.7455 18.0944 18.9322C17.8704 19.1282 17.5998 19.2729 17.2824 19.3662C16.9744 19.4595 16.6384 19.5062 16.2744 19.5062C15.7331 19.5062 15.1778 19.3709 14.6084 19.1002L14.5664 19.2262C14.8371 19.3569 15.1218 19.4595 15.4204 19.5342C15.7191 19.6089 16.0038 19.6462 16.2744 19.6462C16.6664 19.6462 17.0258 19.5949 17.3524 19.4922C17.6791 19.3895 17.9591 19.2355 18.1924 19.0302C18.4351 18.8342 18.6218 18.5869 18.7524 18.2882C18.8831 17.9895 18.9484 17.6442 18.9484 17.2522V11.4982C18.6498 11.3489 18.3278 11.2369 17.9824 11.1622C17.6371 11.0782 17.2824 11.0362 16.9184 11.0362C16.0971 11.0362 15.4531 11.2649 14.9864 11.7222C14.5291 12.1702 14.3004 12.8049 14.3004 13.6262C14.3004 14.3822 14.4871 14.9935 14.8604 15.4602C15.2338 15.9269 15.8078 16.1602 16.5824 16.1602C16.9184 16.1602 17.2918 16.1229 17.7024 16.0482C18.1131 15.9642 18.4818 15.8102 18.8084 15.5862V17.2522ZM16.5824 16.0342C15.8451 16.0342 15.3038 15.8149 14.9584 15.3762C14.6131 14.9375 14.4404 14.3542 14.4404 13.6262C14.4404 12.8329 14.6551 12.2262 15.0844 11.8062C15.5231 11.3769 16.1344 11.1622 16.9184 11.1622C17.5531 11.1622 18.1831 11.2975 18.8084 11.5682V15.4462C18.4818 15.6795 18.1131 15.8382 17.7024 15.9222C17.2918 15.9969 16.9184 16.0342 16.5824 16.0342ZM17.7024 12.1842C17.3571 12.1095 17.0771 12.0722 16.8624 12.0722C16.4424 12.0722 16.1204 12.1889 15.8964 12.4222C15.6724 12.6555 15.5604 13.0569 15.5604 13.6262C15.5418 14.1582 15.6584 14.5362 15.9104 14.7602C16.1624 14.9749 16.4798 15.0729 16.8624 15.0542C17.1238 15.0449 17.4038 14.9749 17.7024 14.8442V12.1842Z" fill="#131313"/>
</svg>
