<svg width="24" height="24" viewBox="0 0 24 24" fill="none" xmlns="http://www.w3.org/2000/svg">
<path d="M2.96875 17C2.73633 17 2.70898 16.8496 2.88672 16.5488L8.15039 7.61426C8.31445 7.33626 8.49674 7.19727 8.69727 7.19727H9.6543C9.84115 7.19727 9.95964 7.33626 10.0098 7.61426L11.5547 16.5488C11.6048 16.8496 11.5091 17 11.2676 17H10.6455C10.404 17 10.265 16.8883 10.2285 16.665L9.83887 14.4023H5.63477L4.30176 16.665C4.1696 16.8883 3.98047 17 3.73438 17H2.96875ZM6.30469 13.2812H9.64062L9.16211 10.5469C9.10286 10.2188 9.05501 9.861 9.01855 9.47363C8.9821 9.08171 8.96387 8.71712 8.96387 8.37988H8.93652C8.85449 8.70345 8.72689 9.03385 8.55371 9.37109C8.38053 9.70833 8.16406 10.1003 7.9043 10.5469L6.30469 13.2812ZM12.9424 14.4092C12.9424 13.2471 13.3092 12.1738 14.043 11.1895C14.7767 10.2005 15.6403 9.70605 16.6338 9.70605C17.1396 9.70605 17.5339 9.78353 17.8164 9.93848C18.099 10.0889 18.3564 10.319 18.5889 10.6289H18.6025L18.7598 10.1299C18.8236 9.9248 18.9352 9.82227 19.0947 9.82227H19.6689C19.874 9.82227 19.9538 9.9248 19.9082 10.1299L18.3086 17.0547C18.0944 17.9889 17.7298 18.6885 17.2148 19.1533C16.6999 19.6182 15.8522 19.8506 14.6719 19.8506C14.0566 19.8506 13.5531 19.7754 13.1611 19.625C12.7692 19.4792 12.5003 19.2832 12.3545 19.0371C12.2588 18.8776 12.2679 18.7409 12.3818 18.627L12.7236 18.2988C12.8376 18.1849 12.9652 18.2031 13.1064 18.3535C13.2796 18.5358 13.4984 18.6816 13.7627 18.791C14.027 18.9049 14.4007 18.9619 14.8838 18.9619C15.4489 18.9619 15.9229 18.807 16.3057 18.4971C16.693 18.1917 16.971 17.6676 17.1396 16.9248L17.2832 16.2891C17.3105 16.166 17.347 16.027 17.3926 15.8721H17.3789C17.1784 16.2321 16.8662 16.5306 16.4424 16.7676C16.0186 17 15.6243 17.1162 15.2598 17.1162C14.3939 17.1162 13.79 16.8519 13.4482 16.3232C13.111 15.79 12.9424 15.152 12.9424 14.4092ZM14.2139 14.457C14.2139 14.931 14.3164 15.3457 14.5215 15.7012C14.7266 16.0521 15.0866 16.2275 15.6016 16.2275C16.0482 16.2275 16.5016 15.9609 16.9619 15.4277C17.4268 14.89 17.7298 14.3203 17.8711 13.7188L18.3154 11.8047C18.2699 11.349 18.1217 11.0345 17.8711 10.8613C17.6204 10.6836 17.2399 10.5947 16.7295 10.5947C16.0368 10.5947 15.4443 10.9821 14.9521 11.7568C14.46 12.527 14.2139 13.4271 14.2139 14.457Z" fill="#131313"/>
</svg>
