<svg width="24" height="24" viewBox="0 0 24 24" fill="none" xmlns="http://www.w3.org/2000/svg">
<path d="M3.70747 16.9998L6.31147 6.77979H8.29947L10.9035 16.9998H9.37747L8.76147 14.4098H5.86347L5.24747 16.9998H3.70747ZM6.14347 13.1638H8.46747L7.76747 10.2098C7.64614 9.68711 7.54347 9.23446 7.45947 8.85179C7.3848 8.45979 7.33347 8.19378 7.30547 8.05378C7.27747 8.19378 7.22614 8.45979 7.15147 8.85179C7.0768 9.23446 6.97414 9.68246 6.84347 10.1958L6.14347 13.1638ZM13.684 19.5198V18.2178H16.05C16.442 18.2178 16.7313 18.1245 16.918 17.9378C17.114 17.7511 17.212 17.4758 17.212 17.1118V16.3418L17.24 14.9138H16.918L17.226 14.6338C17.226 15.2218 17.0393 15.6838 16.666 16.0198C16.302 16.3558 15.8073 16.5238 15.182 16.5238C14.3887 16.5238 13.7633 16.2625 13.306 15.7398C12.8487 15.2171 12.62 14.5125 12.62 13.6258V12.0578C12.62 11.1711 12.8487 10.4665 13.306 9.94379C13.7633 9.42112 14.3887 9.15978 15.182 9.15978C15.8073 9.15978 16.302 9.33246 16.666 9.67779C17.0393 10.0138 17.226 10.4758 17.226 11.0638L16.918 10.7698H17.226L17.212 9.29979H18.71V17.1398C18.71 17.8771 18.4767 18.4558 18.01 18.8758C17.5433 19.3051 16.8947 19.5198 16.064 19.5198H13.684ZM15.672 15.2218C16.148 15.2218 16.5213 15.0771 16.792 14.7878C17.072 14.4891 17.212 14.0785 17.212 13.5558V12.1418C17.212 11.6191 17.072 11.2131 16.792 10.9238C16.5213 10.6251 16.148 10.4758 15.672 10.4758C15.1773 10.4758 14.7947 10.6205 14.524 10.9098C14.2627 11.1898 14.132 11.6005 14.132 12.1418V13.5558C14.132 14.0878 14.2627 14.4985 14.524 14.7878C14.7947 15.0771 15.1773 15.2218 15.672 15.2218Z" fill="#131313"/>
</svg>
