<svg width="24" height="24" viewBox="0 0 24 24" fill="none" xmlns="http://www.w3.org/2000/svg">
<path d="M3.99331 16.0001L8.13731 5.68213H8.17931L12.3093 16.0001H11.7773L8.01131 6.45213L8.33331 6.29813L4.46931 16.0001H3.99331ZM5.85531 12.0661H10.4613L10.5733 12.5141H5.75731L5.85531 12.0661ZM16.6644 18.6041C16.3937 18.6041 16.1277 18.5714 15.8664 18.5061C15.6051 18.4501 15.3391 18.3381 15.0684 18.1701C14.7977 18.0114 14.5131 17.7874 14.2144 17.4981L14.4804 17.1901C14.9097 17.6101 15.3017 17.8808 15.6564 18.0021C16.0111 18.1328 16.3424 18.1981 16.6504 18.1981C17.2571 18.1981 17.7331 18.1001 18.0784 17.9041C18.4237 17.7174 18.6711 17.4654 18.8204 17.1481C18.9697 16.8308 19.0491 16.4761 19.0584 16.0841L19.0724 14.2361L19.1844 14.3621C18.9977 14.8754 18.6617 15.2954 18.1764 15.6221C17.7004 15.9394 17.1637 16.0981 16.5664 16.0981C16.0531 16.0981 15.5864 15.9768 15.1664 15.7341C14.7557 15.4821 14.4244 15.1461 14.1724 14.7261C13.9297 14.2968 13.8084 13.8208 13.8084 13.2981C13.8084 12.7381 13.9344 12.2481 14.1864 11.8281C14.4477 11.4081 14.7931 11.0814 15.2224 10.8481C15.6517 10.6054 16.1277 10.4841 16.6504 10.4841C17.1824 10.4841 17.6724 10.6288 18.1204 10.9181C18.5777 11.1981 18.9091 11.5668 19.1144 12.0241L19.0584 12.2621L19.1424 10.6241H19.5344V16.0981C19.5344 16.5274 19.4411 16.9334 19.2544 17.3161C19.0771 17.6988 18.7784 18.0068 18.3584 18.2401C17.9477 18.4828 17.3831 18.6041 16.6644 18.6041ZM14.2704 13.2841C14.2704 13.7321 14.3731 14.1381 14.5784 14.5021C14.7931 14.8661 15.0824 15.1601 15.4464 15.3841C15.8104 15.5988 16.2164 15.7061 16.6644 15.7061C17.0937 15.7061 17.4857 15.6081 17.8404 15.4121C18.2044 15.2068 18.4937 14.9408 18.7084 14.6141C18.9324 14.2781 19.0537 13.9141 19.0724 13.5221V12.8221C18.9977 12.4488 18.8437 12.1174 18.6104 11.8281C18.3864 11.5294 18.1064 11.2961 17.7704 11.1281C17.4344 10.9601 17.0657 10.8761 16.6644 10.8761C16.2164 10.8761 15.8104 10.9788 15.4464 11.1841C15.0824 11.3801 14.7931 11.6601 14.5784 12.0241C14.3731 12.3881 14.2704 12.8081 14.2704 13.2841Z" fill="#131313"/>
</svg>
