<svg width="24" height="24" viewBox="0 0 24 24" fill="none" xmlns="http://www.w3.org/2000/svg">
<path d="M11.2267 17H12.5567L8.00673 6.70996L3.45673 17H4.78673L6.03273 14.06H9.98073L11.2267 17ZM8.00673 9.41196L9.50473 12.94H6.50873L8.00673 9.41196ZM13.2449 17.42C13.2449 19.086 14.5469 20.22 16.4369 20.22C18.0469 20.22 19.6289 19.086 19.6289 16.86V10.56H18.5089V11.666C18.0329 10.868 17.2629 10.42 16.3109 10.42C14.5609 10.42 13.1189 11.694 13.1189 13.78C13.1189 15.866 14.5609 17.14 16.3109 17.14C17.2629 17.14 18.0329 16.692 18.5089 15.894V16.86C18.5089 18.484 17.4169 19.17 16.4369 19.17C15.1769 19.17 14.3789 18.344 14.3789 17.42H13.2449ZM14.2529 13.78C14.2529 12.296 15.2609 11.47 16.4509 11.47C17.4309 11.47 18.5089 12.296 18.5089 13.78C18.5089 15.264 17.4309 16.09 16.4509 16.09C15.2609 16.09 14.2529 15.264 14.2529 13.78Z" fill="#131313"/>
</svg>
