<svg width="24" height="24" viewBox="0 0 24 24" fill="none" xmlns="http://www.w3.org/2000/svg">
<path d="M5.28132 14.0601H10.3213L10.0973 12.9401H5.85532L5.28132 14.0601ZM8.58532 9.41213L9.52332 13.3601L9.57932 13.6401L10.3913 17.0001H11.6653L9.01932 6.68213L2.80332 17.0001H4.14732L6.16332 13.5561L6.31732 13.3041L8.58532 9.41213ZM12.2484 17.4201C12.1924 17.9614 12.2717 18.4421 12.4864 18.8621C12.7011 19.2821 13.0231 19.6088 13.4524 19.8421C13.8911 20.0848 14.4091 20.2061 15.0064 20.2061C15.6224 20.2061 16.1777 20.0614 16.6724 19.7721C17.1764 19.4921 17.5917 19.1001 17.9184 18.5961C18.2544 18.0921 18.4691 17.5134 18.5624 16.8601L19.6404 10.5601H18.5344L17.4424 16.8601C17.3771 17.3174 17.2231 17.7188 16.9804 18.0641C16.7471 18.4188 16.4577 18.6894 16.1124 18.8761C15.7671 19.0628 15.4031 19.1561 15.0204 19.1561C14.6284 19.1561 14.3017 19.0768 14.0404 18.9181C13.7884 18.7594 13.6064 18.5494 13.4944 18.2881C13.3824 18.0268 13.3357 17.7374 13.3544 17.4201H12.2484ZM12.7384 13.7801C12.6544 14.3868 12.7057 14.9468 12.8924 15.4601C13.0791 15.9641 13.3777 16.3701 13.7884 16.6781C14.2084 16.9768 14.7217 17.1261 15.3284 17.1261C15.7577 17.1261 16.1497 17.0421 16.5044 16.8741C16.8684 16.6968 17.1857 16.4541 17.4564 16.1461C17.7271 15.8381 17.9511 15.4834 18.1284 15.0821C18.3057 14.6714 18.4271 14.2374 18.4924 13.7801C18.5484 13.3414 18.5484 12.9261 18.4924 12.5341C18.4457 12.1328 18.3384 11.7734 18.1704 11.4561C18.0024 11.1388 17.7691 10.8868 17.4704 10.7001C17.1811 10.5134 16.8217 10.4201 16.3924 10.4201C15.7857 10.4108 15.2211 10.5554 14.6984 10.8541C14.1851 11.1528 13.7511 11.5588 13.3964 12.0721C13.0511 12.5761 12.8317 13.1454 12.7384 13.7801ZM13.8584 13.7801C13.9331 13.3414 14.0917 12.9448 14.3344 12.5901C14.5864 12.2354 14.8944 11.9601 15.2584 11.7641C15.6224 11.5588 16.0097 11.4608 16.4204 11.4701C16.7004 11.4794 16.9431 11.5494 17.1484 11.6801C17.3631 11.8014 17.5404 11.9694 17.6804 12.1841C17.8204 12.3988 17.9184 12.6414 17.9744 12.9121C18.0304 13.1828 18.0351 13.4721 17.9884 13.7801C17.9324 14.0974 17.8251 14.3961 17.6664 14.6761C17.5171 14.9561 17.3304 15.2034 17.1064 15.4181C16.8824 15.6234 16.6351 15.7868 16.3644 15.9081C16.1031 16.0201 15.8324 16.0761 15.5524 16.0761C15.1417 16.0761 14.7964 15.9734 14.5164 15.7681C14.2457 15.5534 14.0544 15.2734 13.9424 14.9281C13.8304 14.5734 13.8024 14.1908 13.8584 13.7801Z" fill="#131313"/>
</svg>
