<svg width="24" height="24" viewBox="0 0 24 24" fill="none" xmlns="http://www.w3.org/2000/svg">
<path d="M12.3308 15.0479C12.3401 15.1039 12.3448 15.1599 12.3448 15.2159C12.3541 15.2626 12.3588 15.3186 12.3588 15.3839C12.3588 15.4959 12.3261 15.5986 12.2608 15.6919C12.2328 15.7386 12.1955 15.7852 12.1488 15.8319C12.1021 15.8692 12.0461 15.9019 11.9808 15.9299C11.7475 16.0606 11.5001 16.1072 11.2388 16.0699C11.1081 16.0326 10.9915 15.9719 10.8888 15.8879C10.8701 15.8692 10.8561 15.8599 10.8468 15.8599C10.8375 15.8506 10.8281 15.8366 10.8188 15.8179C10.8095 15.8086 10.8001 15.7992 10.7908 15.7899C10.7815 15.7712 10.7675 15.7572 10.7488 15.7479C10.7021 15.7012 10.6648 15.6592 10.6368 15.6219C10.6088 15.5752 10.5808 15.5286 10.5528 15.4819C10.5341 15.4352 10.5108 15.3932 10.4828 15.3559C10.4641 15.3092 10.4408 15.2626 10.4128 15.2159C10.3941 15.1786 10.3755 15.1459 10.3568 15.1179C10.3381 15.0806 10.3241 15.0432 10.3148 15.0059C10.2775 14.9219 10.2541 14.8472 10.2448 14.7819L9.95081 14.0959C9.30681 14.0959 8.66281 14.1006 8.01881 14.1099C7.38415 14.1099 6.74481 14.1052 6.10081 14.0959L5.80681 14.7819C5.78815 14.8192 5.77415 14.8566 5.76481 14.8939C5.76481 14.9312 5.75548 14.9686 5.73681 15.0059C5.71815 15.0432 5.69948 15.0806 5.68081 15.1179C5.67148 15.1459 5.65748 15.1786 5.63881 15.2159C5.61081 15.2626 5.58281 15.3092 5.55481 15.3559C5.53615 15.3932 5.51281 15.4352 5.48481 15.4819C5.46615 15.5286 5.44281 15.5752 5.41481 15.6219C5.38681 15.6592 5.34948 15.7012 5.30281 15.7479C5.28415 15.7572 5.27015 15.7712 5.26081 15.7899C5.25148 15.7992 5.24215 15.8086 5.23281 15.8179C5.22348 15.8366 5.21415 15.8506 5.20481 15.8599C5.19548 15.8599 5.18148 15.8692 5.16281 15.8879C5.06015 15.9719 4.94348 16.0326 4.81281 16.0699C4.55148 16.1072 4.30415 16.0606 4.07081 15.9299C4.00548 15.9019 3.94948 15.8692 3.90281 15.8319C3.85615 15.7852 3.81881 15.7386 3.79081 15.6919C3.72548 15.5986 3.69281 15.4959 3.69281 15.3839C3.69281 15.3186 3.69281 15.2626 3.69281 15.2159C3.70215 15.1599 3.71148 15.1039 3.72081 15.0479C3.73948 14.9639 3.76281 14.8799 3.79081 14.7959C3.81881 14.7119 3.83281 14.6699 3.83281 14.6699L6.74481 7.50189L6.82881 7.27789C6.84748 7.22189 6.87081 7.17056 6.89881 7.12389C6.92681 7.07722 6.95015 7.02122 6.96881 6.95589C7.01548 6.83456 7.06681 6.72722 7.12281 6.63389C7.15081 6.57789 7.18348 6.52656 7.22081 6.47989C7.25815 6.43322 7.29548 6.38656 7.33281 6.33989C7.38881 6.26522 7.46815 6.20456 7.57081 6.15789C7.70148 6.11122 7.85081 6.08789 8.01881 6.08789C8.19615 6.08789 8.35015 6.11122 8.48081 6.15789C8.58348 6.20456 8.66281 6.26522 8.71881 6.33989C8.78415 6.42389 8.85415 6.52189 8.92881 6.63389C8.98481 6.72722 9.03615 6.83456 9.08281 6.95589C9.10148 7.02122 9.12481 7.07722 9.15281 7.12389C9.18081 7.17056 9.20415 7.22189 9.22281 7.27789L9.30681 7.50189L12.2188 14.6699C12.2188 14.6699 12.2328 14.7119 12.2608 14.7959C12.2888 14.8799 12.3121 14.9639 12.3308 15.0479ZM9.01281 11.6179C8.89148 11.3472 8.76548 11.0672 8.63481 10.7779C8.51348 10.4886 8.38281 10.1946 8.24281 9.89589C8.20548 9.81189 8.16815 9.72789 8.13081 9.64389C8.09348 9.55056 8.05615 9.46189 8.01881 9.37789C7.99081 9.46189 7.95815 9.55056 7.92081 9.64389C7.88348 9.72789 7.84615 9.81189 7.80881 9.89589C7.66881 10.1946 7.53348 10.4886 7.40281 10.7779C7.28148 11.0672 7.16015 11.3472 7.03881 11.6179L6.78681 12.2339H9.26481L9.01281 11.6179ZM19.2919 13.3539C19.2919 13.6526 19.2825 13.9746 19.2639 14.3199C19.2545 14.6652 19.2405 14.9872 19.2219 15.2859C19.2219 15.5659 19.2079 15.8459 19.1799 16.1259C19.1612 16.3686 19.1239 16.6299 19.0679 16.9099C19.0119 17.1992 18.9325 17.4652 18.8299 17.7079C18.6992 18.0252 18.5219 18.2959 18.2979 18.5199C18.0739 18.7532 17.7845 18.9212 17.4299 19.0239C17.1312 19.0986 16.8512 19.1452 16.5899 19.1639C16.3285 19.1919 16.0485 19.1872 15.7499 19.1499C15.5539 19.1219 15.3439 19.0659 15.1199 18.9819C14.8959 18.9072 14.6859 18.8092 14.4899 18.6879C14.2939 18.5666 14.1212 18.4219 13.9719 18.2539C13.8225 18.0952 13.7199 17.9132 13.6639 17.7079C13.5985 17.4559 13.5939 17.2366 13.6499 17.0499C13.7152 16.8632 13.8132 16.7279 13.9439 16.6439C14.0745 16.5599 14.2285 16.5459 14.4059 16.6019C14.5832 16.6579 14.7512 16.8026 14.9099 17.0359C15.0219 17.2039 15.1852 17.3392 15.3999 17.4419C15.6145 17.5446 15.8432 17.6052 16.0859 17.6239C16.3285 17.6426 16.5619 17.6099 16.7859 17.5259C17.0192 17.4512 17.2012 17.3159 17.3319 17.1199C17.4252 16.9799 17.4905 16.7792 17.5279 16.5179C17.5745 16.2566 17.6025 15.9999 17.6119 15.7479C17.1359 15.9439 16.6459 16.0186 16.1419 15.9719C15.6472 15.9159 15.1945 15.7619 14.7839 15.5099C14.3825 15.2486 14.0559 14.9032 13.8039 14.4739C13.5612 14.0352 13.4585 13.5406 13.4959 12.9899C13.5239 12.5139 13.6219 12.0659 13.7899 11.6459C13.9672 11.2259 14.2565 10.8759 14.6579 10.5959C14.9845 10.3719 15.3532 10.2272 15.7639 10.1619C16.1745 10.0872 16.5712 10.0499 16.9539 10.0499C17.1779 10.0499 17.3972 10.0499 17.6119 10.0499C17.8359 10.0499 18.0412 10.0779 18.2279 10.1339C18.4145 10.1899 18.5825 10.2832 18.7319 10.4139C18.8812 10.5446 18.9932 10.7359 19.0679 10.9879C19.1892 11.3799 19.2545 11.7672 19.2639 12.1499C19.2825 12.5326 19.2919 12.9339 19.2919 13.3539ZM16.5899 14.5159C16.6832 14.5159 16.7719 14.5066 16.8559 14.4879C16.9492 14.4692 17.0379 14.4459 17.1219 14.4179C17.2805 14.3619 17.3972 14.2872 17.4719 14.1939C17.5559 14.1006 17.6119 13.9979 17.6399 13.8859C17.6679 13.7646 17.6772 13.6339 17.6679 13.4939C17.6679 13.3539 17.6679 13.2092 17.6679 13.0599C17.6679 12.9386 17.6632 12.8032 17.6539 12.6539C17.6539 12.5046 17.6445 12.3646 17.6259 12.2339C17.6072 12.0939 17.5792 11.9726 17.5419 11.8699C17.5045 11.7672 17.4485 11.7019 17.3739 11.6739C17.2432 11.6366 17.0939 11.6132 16.9259 11.6039C16.7579 11.5852 16.5899 11.5852 16.4219 11.6039C16.2539 11.6132 16.0905 11.6459 15.9319 11.7019C15.7825 11.7486 15.6565 11.8139 15.5539 11.8979C15.4139 12.0192 15.3065 12.1686 15.2319 12.3459C15.1572 12.5232 15.1105 12.7099 15.0919 12.9059C15.0825 13.1019 15.0965 13.2932 15.1339 13.4799C15.1805 13.6666 15.2599 13.8346 15.3719 13.9839C15.5025 14.1706 15.6799 14.3059 15.9039 14.3899C16.1279 14.4739 16.3565 14.5159 16.5899 14.5159Z" fill="#131313"/>
</svg>
