<svg width="24" height="24" viewBox="0 0 24 24" fill="none" xmlns="http://www.w3.org/2000/svg">
<path d="M8.31588 16.0001L8.37188 15.7061C8.80121 15.7061 9.08121 15.6501 9.21188 15.5381L8.77788 13.3961H6.08988L5.02588 15.4541C5.09121 15.6221 5.36654 15.7061 5.85188 15.7061L5.79588 16.0001H3.49987L3.55587 15.7061C4.07854 15.7061 4.38654 15.6081 4.47988 15.4121L8.46988 7.81006H9.14188L10.5839 15.4121C10.6212 15.6081 10.9059 15.7061 11.4379 15.7061L11.3819 16.0001H8.31588ZM8.04988 9.67206L6.34188 12.9341H8.69388L8.04988 9.67206ZM13.0237 17.2461C13.0237 17.5821 12.8697 17.8061 12.5617 17.9181C12.7764 18.1701 13.2944 18.2961 14.1157 18.2961C14.573 18.2961 14.965 18.1001 15.2917 17.7081C15.6277 17.3161 15.903 16.6534 16.1177 15.7201C15.6417 16.0001 15.0677 16.1401 14.3957 16.1401C14.125 16.1401 13.859 16.0981 13.5977 16.0141C13.3457 15.9394 13.0937 15.8181 12.8417 15.6501C12.599 15.4821 12.3984 15.2301 12.2397 14.8941C12.0904 14.5581 12.0157 14.1661 12.0157 13.7181C12.0157 12.4674 12.3797 11.4874 13.1077 10.7781C13.8357 10.0594 14.727 9.70006 15.7817 9.70006C16.1364 9.70006 16.463 9.73273 16.7617 9.79806C17.0697 9.86339 17.3077 9.94273 17.4757 10.0361C17.653 10.1201 17.8024 10.2088 17.9237 10.3021C18.045 10.3861 18.129 10.4608 18.1757 10.5261L18.2457 10.6241L17.4197 15.5941C17.261 16.5554 16.9017 17.3301 16.3417 17.9181C15.7817 18.5061 15.0584 18.8001 14.1717 18.8001C13.4157 18.8001 12.8184 18.6741 12.3797 18.4221C11.9504 18.1794 11.7357 17.9134 11.7357 17.6241C11.7357 17.4001 11.8104 17.2134 11.9597 17.0641C12.109 16.9148 12.277 16.8401 12.4637 16.8401C12.837 16.8401 13.0237 16.9754 13.0237 17.2461ZM16.2157 15.2581L17.0277 10.4001C16.6264 10.2508 16.2157 10.1761 15.7957 10.1761C15.189 10.1761 14.6244 10.5214 14.1017 11.2121C13.5884 11.9028 13.3317 12.7614 13.3317 13.7881C13.3317 14.3668 13.4437 14.8241 13.6677 15.1601C13.901 15.4961 14.2184 15.6641 14.6197 15.6641C15.2357 15.6641 15.7677 15.5288 16.2157 15.2581Z" fill="#131313"/>
</svg>
