<svg width="24" height="24" viewBox="0 0 24 24" fill="none" xmlns="http://www.w3.org/2000/svg">
<path d="M4.65246 13.5279L3.21046 16.9999H2.49646L6.71046 6.91992H7.10246L11.3305 16.9999H10.5745L9.13246 13.5279H4.65246ZM6.86446 8.03992C6.85513 8.04925 6.83646 8.10525 6.80846 8.20792C6.67779 8.60925 6.55179 8.94992 6.43046 9.22992L4.89046 12.9539H8.89446L7.35446 9.24392C7.02779 8.53459 6.86446 8.13325 6.86446 8.03992ZM16.8656 8.34792C15.8296 8.34792 14.9569 8.74459 14.2476 9.53792C13.5476 10.3219 13.1976 11.2879 13.1976 12.4359C13.1976 13.5839 13.5943 14.5592 14.3876 15.3619C15.1809 16.1552 16.1143 16.5519 17.1876 16.5519C18.2703 16.5519 19.1103 16.4259 19.7076 16.1739V12.4359H20.3516V16.4679C19.6236 16.9159 18.5923 17.1399 17.2576 17.1399C15.9229 17.1399 14.7983 16.6872 13.8836 15.7819C12.9689 14.8766 12.5116 13.7659 12.5116 12.4499C12.5116 11.1246 12.9223 10.0139 13.7436 9.11792C14.5743 8.22192 15.6429 7.77392 16.9496 7.77392C18.0043 7.77392 19.0356 7.93725 20.0436 8.26392L19.8756 8.79592C18.9049 8.49725 17.9016 8.34792 16.8656 8.34792Z" fill="#131313"/>
</svg>
