<svg width="24" height="24" viewBox="0 0 24 24" fill="none" xmlns="http://www.w3.org/2000/svg">
<path d="M5.04998 17.1262C4.80731 17.0795 4.61598 16.9769 4.47598 16.8182C4.34531 16.6595 4.27998 16.4682 4.27998 16.2442C4.27998 16.0109 4.34998 15.7775 4.48998 15.5442L9.26398 7.49422C9.43198 7.21422 9.66998 7.07422 9.97798 7.07422C10.118 7.07422 10.2346 7.11155 10.328 7.18622C10.4213 7.26089 10.4866 7.36355 10.524 7.49422L12.484 15.5442C12.512 15.6562 12.526 15.7682 12.526 15.8802C12.526 16.1882 12.428 16.4589 12.232 16.6922C12.036 16.9162 11.77 17.0609 11.434 17.1262L10.818 14.2002H6.77198L5.04998 17.1262ZM10.622 13.0662L9.58598 8.48822L9.45998 8.53022L9.59998 9.17422L7.38798 13.0662H10.622ZM15.7264 19.9262C15.2877 19.9262 14.8817 19.8562 14.5084 19.7162C14.1444 19.5762 13.8504 19.3895 13.6264 19.1562C13.4117 18.9229 13.3044 18.6662 13.3044 18.3862C13.3044 18.0969 13.3931 17.8729 13.5704 17.7142C13.7571 17.5649 14.0184 17.4902 14.3544 17.4902C14.3451 17.5369 14.3404 17.6115 14.3404 17.7142C14.3404 18.0875 14.4804 18.3815 14.7604 18.5962C15.0404 18.8109 15.4231 18.9182 15.9084 18.9182C16.5057 18.9182 16.9817 18.7689 17.3364 18.4702C17.6911 18.1809 17.9151 17.7515 18.0084 17.1822L18.1484 16.3702C18.3257 16.2302 18.4424 16.1275 18.4984 16.0622L18.4704 15.9922C18.1344 16.2909 17.7424 16.5335 17.2944 16.7202C16.8557 16.8975 16.4404 16.9862 16.0484 16.9862C15.6097 16.9862 15.2131 16.8975 14.8584 16.7202C14.5037 16.5335 14.2237 16.2815 14.0184 15.9642C13.8224 15.6469 13.7244 15.2969 13.7244 14.9142C13.7244 14.8489 13.7337 14.7322 13.7524 14.5642L14.1444 12.3102C14.2751 11.5355 14.6157 10.9382 15.1664 10.5182C15.7171 10.0889 16.4264 9.87422 17.2944 9.87422C18.2091 9.87422 18.9044 10.2755 19.3804 11.0782L19.4364 11.0222C19.3617 10.8822 19.2917 10.7655 19.2264 10.6722C19.3104 10.1402 19.7444 9.87422 20.5284 9.87422L19.2544 17.0562C19.0864 17.9895 18.6991 18.6989 18.0924 19.1842C17.4857 19.6789 16.6971 19.9262 15.7264 19.9262ZM16.4684 15.9222C16.9537 15.9222 17.3924 15.7915 17.7844 15.5302C18.1857 15.2595 18.4191 14.9422 18.4844 14.5782L18.8764 12.2962C18.8857 12.2495 18.8904 12.1889 18.8904 12.1142C18.8904 11.7689 18.7457 11.4889 18.4564 11.2742C18.1764 11.0502 17.8171 10.9382 17.3784 10.9382C16.2024 10.9382 15.5304 11.4142 15.3624 12.3662L14.9844 14.5082C14.9657 14.5829 14.9564 14.6949 14.9564 14.8442C14.9564 15.5629 15.4604 15.9222 16.4684 15.9222Z" fill="#131313"/>
</svg>
