<svg width="24" height="24" viewBox="0 0 24 24" fill="none" xmlns="http://www.w3.org/2000/svg">
<path d="M6.74219 7.27246L8.14355 7.19727L11.2539 15.8926L12.416 16.1592V17H8.35547V16.1592L9.6543 15.8926L9.12109 14.3408H5.48438L4.9375 15.8926L6.25 16.1592V17H2.40137V16.1592L3.5498 15.8926L6.74219 7.27246ZM7.33008 9.00879L5.86035 13.2197H8.74512L7.33008 9.00879ZM18.958 10.6152C18.9762 10.6426 19.015 10.7132 19.0742 10.8271C19.138 10.9365 19.1973 11.0983 19.252 11.3125C19.3112 11.5221 19.3408 11.7614 19.3408 12.0303C19.3408 12.9463 19.0651 13.6299 18.5137 14.0811C17.9622 14.5322 17.2103 14.7578 16.2578 14.7578C15.998 14.7578 15.7702 14.7419 15.5742 14.71C15.3783 14.6781 15.2552 14.653 15.2051 14.6348L15.1367 15.9473H17.3105C18.2266 15.9473 18.9215 16.1204 19.3955 16.4668C19.8695 16.8132 20.1064 17.3167 20.1064 17.9775C20.1064 18.7705 19.7988 19.388 19.1836 19.8301C18.5684 20.2767 17.6637 20.5 16.4697 20.5C15.417 20.5 14.5921 20.3428 13.9951 20.0283C13.4027 19.7184 13.1064 19.1989 13.1064 18.4697C13.1064 18.096 13.2158 17.777 13.4346 17.5127C13.6533 17.2529 13.8971 17.0524 14.166 16.9111C14.4395 16.7653 14.5762 16.7015 14.5762 16.7197C14.5762 16.7288 14.4987 16.7106 14.3438 16.665C14.1934 16.6195 14.0544 16.5374 13.9268 16.4189C13.7992 16.3005 13.7354 16.1341 13.7354 15.9199C13.7354 15.7786 13.7878 15.5918 13.8926 15.3594C14.002 15.127 14.1159 14.9128 14.2344 14.7168C14.3529 14.5208 14.4303 14.3955 14.4668 14.3408C14.4668 14.3682 14.3665 14.2975 14.166 14.1289C13.9655 13.9603 13.7855 13.7165 13.626 13.3975C13.4665 13.0739 13.3867 12.6637 13.3867 12.167C13.3867 11.2783 13.6647 10.6016 14.2207 10.1367C14.7767 9.67188 15.5264 9.43945 16.4697 9.43945C16.7386 9.43945 16.9756 9.45768 17.1807 9.49414C17.3857 9.5306 17.543 9.57161 17.6523 9.61719C17.7663 9.6582 17.8369 9.68783 17.8643 9.70605L20.3184 9.65137V10.417L18.958 10.6152ZM16.3945 10.417C15.8477 10.417 15.4421 10.556 15.1777 10.834C14.918 11.1074 14.7881 11.529 14.7881 12.0986C14.7881 12.6136 14.918 13.0238 15.1777 13.3291C15.4421 13.6299 15.8249 13.7803 16.3262 13.7803C16.8867 13.7803 17.2946 13.6481 17.5498 13.3838C17.8096 13.1149 17.9395 12.6865 17.9395 12.0986C17.9395 11.5563 17.8096 11.1416 17.5498 10.8545C17.2946 10.5628 16.9095 10.417 16.3945 10.417ZM15.417 17C15.417 16.9818 15.3327 17.0296 15.1641 17.1436C14.9954 17.262 14.8428 17.4147 14.7061 17.6016C14.5739 17.7884 14.5078 18.0072 14.5078 18.2578C14.5078 18.7135 14.6878 19.0257 15.0479 19.1943C15.4079 19.363 15.9502 19.4473 16.6748 19.4473C17.3857 19.4473 17.9144 19.3379 18.2607 19.1191C18.6071 18.9004 18.7803 18.5677 18.7803 18.1211C18.7803 17.6927 18.6276 17.3988 18.3223 17.2393C18.0169 17.0798 17.5612 17 16.9551 17H15.417Z" fill="#131313"/>
</svg>
