<svg width="24" height="24" viewBox="0 0 24 24" fill="none" xmlns="http://www.w3.org/2000/svg">
<path d="M2.6625 16.9999L6.1205 7.98389H8.9065L12.3645 16.9999H9.6205L8.8645 15.0819H6.1485L5.4065 16.9999H2.6625ZM6.4985 13.1919H8.5145L7.5065 10.5459L6.4985 13.1919ZM16.2588 19.4639C15.9321 19.4639 15.5775 19.4499 15.1948 19.4219C14.8121 19.4032 14.4481 19.3659 14.1028 19.3099C13.7668 19.2539 13.4868 19.1886 13.2628 19.1139V17.4339C13.5148 17.5179 13.8041 17.5879 14.1308 17.6439C14.4668 17.6999 14.8075 17.7419 15.1528 17.7699C15.4981 17.7979 15.8155 17.8119 16.1048 17.8119C16.5995 17.8119 16.9868 17.7839 17.2668 17.7279C17.5561 17.6812 17.7008 17.5926 17.7008 17.4619C17.7008 17.3499 17.6541 17.2752 17.5608 17.2379C17.4675 17.2099 17.2901 17.1959 17.0288 17.1959H15.2788C14.5975 17.1959 14.0701 17.0886 13.6968 16.8739C13.3328 16.6499 13.1508 16.3186 13.1508 15.8799C13.1508 15.2639 13.4915 14.8346 14.1728 14.5919C13.7901 14.3959 13.5101 14.1486 13.3328 13.8499C13.1555 13.5512 13.0668 13.1732 13.0668 12.7159C13.0668 11.8572 13.3561 11.2272 13.9348 10.8259C14.5228 10.4246 15.3675 10.2239 16.4688 10.2239C16.7021 10.2239 16.9635 10.2426 17.2528 10.2799C17.5421 10.3079 17.7521 10.3359 17.8828 10.3639H20.4868L20.4308 11.9599H19.5488C19.7168 12.1746 19.8008 12.4359 19.8008 12.7439C19.8008 13.4252 19.6001 13.9666 19.1988 14.3679C18.8068 14.7599 18.1861 14.9559 17.3368 14.9559C17.2155 14.9559 17.0848 14.9512 16.9448 14.9419C16.8048 14.9232 16.6741 14.9092 16.5528 14.8999C16.3475 14.9186 16.1701 14.9559 16.0208 15.0119C15.8715 15.0679 15.7968 15.1612 15.7968 15.2919C15.7968 15.3852 15.8388 15.4506 15.9228 15.4879C16.0068 15.5159 16.1235 15.5299 16.2728 15.5299H17.7988C18.4801 15.5299 19.0168 15.6886 19.4088 16.0059C19.8008 16.3232 19.9968 16.7899 19.9968 17.4059C19.9968 18.0592 19.6935 18.5632 19.0868 18.9179C18.4801 19.2819 17.5375 19.4639 16.2588 19.4639ZM16.4828 13.5139C16.8935 13.5139 17.1781 13.4439 17.3368 13.3039C17.4955 13.1639 17.5748 12.9306 17.5748 12.6039C17.5748 12.2772 17.4955 12.0392 17.3368 11.8899C17.1781 11.7406 16.8935 11.6659 16.4828 11.6659C16.1001 11.6659 15.8201 11.7406 15.6428 11.8899C15.4748 12.0299 15.3908 12.2679 15.3908 12.6039C15.3908 12.9212 15.4701 13.1546 15.6288 13.3039C15.7968 13.4439 16.0815 13.5139 16.4828 13.5139Z" fill="#131313"/>
</svg>
