<svg width="24" height="24" viewBox="0 0 24 24" fill="none" xmlns="http://www.w3.org/2000/svg">
<path d="M3.32356 16.9999L8.64356 7.98389H9.62356L11.1216 16.9999H10.3796L9.93156 14.3679H5.70356L4.16356 16.9999H3.32356ZM6.01156 13.7379H9.88956L9.03556 8.59989L6.01156 13.7379ZM14.8605 19.4639C14.6272 19.4639 14.3472 19.4499 14.0205 19.4219C13.7032 19.3939 13.4605 19.3612 13.2925 19.3239L13.4325 18.6519C13.6285 18.7172 13.8712 18.7592 14.1605 18.7779C14.4499 18.8059 14.6832 18.8199 14.8605 18.8199C15.5792 18.8199 16.1765 18.6752 16.6525 18.3859C17.1285 18.1059 17.4272 17.6812 17.5485 17.1119L17.7165 16.3139C17.3432 16.5472 16.9652 16.7199 16.5825 16.8319C16.1999 16.9439 15.7705 16.9999 15.2945 16.9999C14.7065 16.9999 14.2072 16.8926 13.7965 16.6779C13.3859 16.4632 13.1012 16.1132 12.9425 15.6279C12.7932 15.1426 12.8025 14.4986 12.9705 13.6959C13.2225 12.4826 13.6659 11.6006 14.3005 11.0499C14.9445 10.4992 15.7332 10.2239 16.6665 10.2239C17.1799 10.2239 17.6092 10.2986 17.9545 10.4479C18.3092 10.5879 18.6172 10.8119 18.8785 11.1199L19.1025 10.3639H19.7465L18.3325 17.0419C18.1739 17.7792 17.7912 18.3672 17.1845 18.8059C16.5779 19.2446 15.8032 19.4639 14.8605 19.4639ZM15.6165 16.3699C16.0645 16.3699 16.4705 16.3046 16.8345 16.1739C17.2079 16.0432 17.5485 15.8612 17.8565 15.6279L18.6825 11.7639C18.2439 11.1666 17.5905 10.8679 16.7225 10.8679C15.8732 10.8679 15.2105 11.1059 14.7345 11.5819C14.2585 12.0486 13.9225 12.7532 13.7265 13.6959C13.5212 14.6852 13.5632 15.3806 13.8525 15.7819C14.1512 16.1739 14.7392 16.3699 15.6165 16.3699Z" fill="#131313"/>
</svg>
