<svg width="24" height="24" viewBox="0 0 24 24" fill="none" xmlns="http://www.w3.org/2000/svg">
<path d="M1.88954 16.9999L7.26554 7.98389H10.7795L12.3475 16.9999H8.98754L8.69354 15.3199H6.50954L5.51554 16.9999H1.88954ZM7.36354 13.0099H8.73554L8.41354 11.2879L7.36354 13.0099ZM14.6914 19.4639C14.5421 19.4639 14.3321 19.4546 14.0614 19.4359C13.7908 19.4266 13.5248 19.4079 13.2634 19.3799C13.0021 19.3612 12.8108 19.3426 12.6894 19.3239L13.1654 17.1259C13.3428 17.1726 13.5808 17.2146 13.8794 17.2519C14.1781 17.2892 14.4301 17.3079 14.6354 17.3079C15.3541 17.3079 15.9001 17.2659 16.2734 17.1819C16.6561 17.1072 16.8661 16.9766 16.9034 16.7899L16.9314 16.6639C16.7354 16.7292 16.4974 16.7899 16.2174 16.8459C15.9374 16.8926 15.6761 16.9159 15.4334 16.9159C14.5748 16.9159 13.9074 16.7432 13.4314 16.3979C12.9554 16.0526 12.7174 15.5112 12.7174 14.7739C12.7174 14.6339 12.7268 14.4846 12.7454 14.3259C12.7641 14.1672 12.7921 13.9992 12.8294 13.8219C13.1001 12.6366 13.5808 11.7406 14.2714 11.1339C14.9714 10.5272 15.8021 10.2239 16.7634 10.2239C17.1741 10.2239 17.5101 10.2752 17.7714 10.3779C18.0328 10.4806 18.2661 10.6206 18.4714 10.7979L18.7094 10.3639H21.6494L20.4594 15.9919C20.3101 16.7199 20.0254 17.3406 19.6054 17.8539C19.1948 18.3766 18.5928 18.7732 17.7994 19.0439C17.0154 19.3239 15.9794 19.4639 14.6914 19.4639ZM16.7494 14.7179C16.9828 14.7179 17.1928 14.6479 17.3794 14.5079L17.7294 12.8559C17.6641 12.7812 17.5988 12.7299 17.5334 12.7019C17.4681 12.6646 17.3701 12.6459 17.2394 12.6459C17.0341 12.6459 16.8474 12.7346 16.6794 12.9119C16.5114 13.0799 16.3854 13.3646 16.3014 13.7659C16.2828 13.8592 16.2641 13.9479 16.2454 14.0319C16.2361 14.1066 16.2314 14.1766 16.2314 14.2419C16.2314 14.4379 16.2781 14.5686 16.3714 14.6339C16.4741 14.6899 16.6001 14.7179 16.7494 14.7179Z" fill="#131313"/>
</svg>
