<svg width="24" height="24" viewBox="0 0 24 24" fill="none" xmlns="http://www.w3.org/2000/svg">
<path d="M10.3509 15.9998L9.72085 13.2698H7.06085L6.43085 15.9998H5.70285L7.88685 6.67578H8.89485L11.0789 15.9998H10.3509ZM7.20085 12.6398H9.58085L8.39085 7.47378L7.20085 12.6398ZM17.2224 8.32778H16.7604C16.4804 8.32778 16.2424 8.41645 16.0464 8.59378C16.3638 8.93911 16.5224 9.40111 16.5224 9.97978V11.0718C16.5224 11.6971 16.3358 12.1871 15.9624 12.5418C15.5891 12.8965 15.0291 13.0738 14.2824 13.0738C13.6758 13.0738 13.3724 13.3585 13.3724 13.9278C13.3724 14.1798 13.4471 14.3665 13.5964 14.4878C13.7551 14.5998 14.0164 14.6558 14.3804 14.6558H15.2064C16.4571 14.6558 17.0824 15.1878 17.0824 16.2518V16.3918C17.0824 17.5211 16.2704 18.0858 14.6464 18.0858H14.0724C13.1858 18.0858 12.4904 17.9551 11.9864 17.6938V16.9938C12.5558 17.3018 13.2511 17.4558 14.0724 17.4558H14.6324C15.7991 17.4558 16.3824 17.1058 16.3824 16.4058V16.2518C16.3824 15.9251 16.3031 15.6825 16.1444 15.5238C15.9951 15.3651 15.6871 15.2858 15.2204 15.2858H14.3804C13.8578 15.2858 13.4518 15.1831 13.1624 14.9778C12.8731 14.7725 12.7284 14.4785 12.7284 14.0958V13.8718C12.7284 13.6385 12.7938 13.4471 12.9244 13.2978C13.0551 13.1391 13.2231 13.0318 13.4284 12.9758C12.5044 12.7331 12.0424 12.0985 12.0424 11.0718V9.97978C12.0424 9.35445 12.2291 8.86445 12.6024 8.50978C12.9758 8.15511 13.5031 7.97778 14.1844 7.97778C14.8751 7.97778 15.4164 8.11311 15.8084 8.38378C15.9764 7.87045 16.3778 7.61378 17.0124 7.61378H17.2224V8.32778ZM15.8224 11.0718V9.97978C15.8224 9.52245 15.7011 9.18178 15.4584 8.95778C15.2158 8.72445 14.8238 8.60778 14.2824 8.60778C13.7411 8.60778 13.3491 8.72445 13.1064 8.95778C12.8638 9.18178 12.7424 9.52245 12.7424 9.97978V11.0718C12.7424 11.5291 12.8638 11.8745 13.1064 12.1078C13.3491 12.3318 13.7411 12.4438 14.2824 12.4438C14.8238 12.4438 15.2158 12.3318 15.4584 12.1078C15.7011 11.8745 15.8224 11.5291 15.8224 11.0718Z" fill="#131313"/>
</svg>
