<svg width="24" height="24" viewBox="0 0 24 24" fill="none" xmlns="http://www.w3.org/2000/svg">
<path d="M12.6845 16.0002H11.0637L10.1365 13.4168H6.56928L5.66331 16.0002H4.05664L7.53895 6.65039H9.19516L12.6845 16.0002ZM7.01518 12.1003H9.73308C9.01114 9.99114 8.61242 8.81622 8.53692 8.57557C8.46143 8.33492 8.40244 8.12966 8.35998 7.95979C8.24673 8.47412 8.07922 9.04507 7.85745 9.67264L7.01518 12.1003ZM15.5714 15.9719C15.142 15.9719 14.7999 16.0733 14.5451 16.2762C14.295 16.4791 14.1699 16.7457 14.1699 17.076C14.1699 17.4111 14.3139 17.6659 14.6017 17.8404C14.8942 18.015 15.3048 18.1023 15.8332 18.1023C16.626 18.1023 17.2276 17.9867 17.6381 17.7555C18.0486 17.529 18.2539 17.2176 18.2539 16.8212C18.2539 16.5192 18.143 16.3022 17.9212 16.1701C17.7042 16.0379 17.2984 15.9719 16.7038 15.9719H15.5714ZM19.7048 8.95777V9.7788L18.5016 9.99822C18.7564 10.3521 18.8838 10.7649 18.8838 11.2368C18.8838 11.9587 18.6314 12.5297 18.1265 12.9496C17.6263 13.3649 16.9374 13.5725 16.0597 13.5725C15.8191 13.5725 15.6162 13.556 15.451 13.523C15.1255 13.7211 14.9627 13.9547 14.9627 14.2237C14.9627 14.3888 15.0405 14.5115 15.1962 14.5917C15.3567 14.6672 15.6327 14.705 16.0243 14.705H17.2488C18.0227 14.705 18.6125 14.8701 19.0183 15.2004C19.4241 15.5307 19.627 16.0096 19.627 16.6372C19.627 17.4346 19.2967 18.0504 18.6361 18.4845C17.9755 18.9186 17.0247 19.1357 15.7837 19.1357C14.8305 19.1357 14.0992 18.9658 13.5896 18.6261C13.0847 18.2863 12.8322 17.8027 12.8322 17.1751C12.8322 16.741 12.9667 16.3753 13.2357 16.0781C13.5093 15.7855 13.8939 15.5802 14.3894 15.4623C14.1912 15.3773 14.026 15.2405 13.8939 15.0518C13.7665 14.863 13.7028 14.653 13.7028 14.4218C13.7028 14.1906 13.7712 13.9854 13.9081 13.8061C14.0496 13.622 14.2761 13.4357 14.5875 13.2469C14.2148 13.0865 13.9151 12.8293 13.6886 12.4754C13.4669 12.1168 13.356 11.7039 13.356 11.2368C13.356 10.4724 13.5966 9.88025 14.0779 9.4603C14.5639 9.04035 15.2529 8.83037 16.1447 8.83037C16.3381 8.83037 16.5457 8.84453 16.7675 8.87284C16.994 8.89643 17.1592 8.92474 17.263 8.95777H19.7048ZM16.1305 9.79296C15.6964 9.79296 15.3685 9.91564 15.1467 10.161C14.9249 10.4063 14.814 10.7579 14.814 11.2156C14.814 11.6686 14.9273 12.0154 15.1538 12.256C15.3803 12.4919 15.7058 12.6099 16.1305 12.6099C16.994 12.6099 17.4258 12.1404 17.4258 11.2014C17.4258 10.2624 16.994 9.79296 16.1305 9.79296Z" fill="#131313"/>
</svg>
