<svg width="24" height="24" viewBox="0 0 24 24" fill="none" xmlns="http://www.w3.org/2000/svg">
<path d="M12.7817 16.0002H10.0284L9.57543 14.252H6.5461L6.07897 16.0002H3.31152L6.34792 6.65039H9.70991L12.7817 16.0002ZM7.06987 12.1923H9.05167C8.46656 9.98406 8.13154 8.64871 8.04661 8.18629C7.95224 8.77139 7.62666 10.1067 7.06987 12.1923ZM15.9712 16.2479C15.7022 16.2479 15.4757 16.3093 15.2917 16.4319C15.1077 16.5594 15.0157 16.7198 15.0157 16.9132C15.0157 17.1067 15.1265 17.2648 15.3483 17.3875C15.5701 17.5149 15.865 17.5786 16.233 17.5786C16.8323 17.5786 17.316 17.5031 17.684 17.3521C18.0473 17.2011 18.229 17.0076 18.229 16.7717C18.229 16.5829 18.1228 16.4485 17.9105 16.3682C17.6982 16.288 17.3773 16.2479 16.9479 16.2479H15.9712ZM20.4585 8.78083V9.98406L19.4676 10.3521C19.6045 10.6022 19.6729 10.8876 19.6729 11.2085C19.6729 11.9965 19.3969 12.6028 18.8448 13.0275C18.2974 13.4522 17.4858 13.6645 16.41 13.6645C16.1316 13.6645 15.9193 13.648 15.773 13.615C15.7116 13.7188 15.681 13.8226 15.681 13.9264C15.681 14.0491 15.7777 14.1434 15.9712 14.2095C16.1693 14.2756 16.4336 14.3086 16.7639 14.3086H17.9671C19.5856 14.3086 20.3948 14.9904 20.3948 16.3541C20.3948 17.227 20.0173 17.9089 19.2624 18.3996C18.5121 18.8903 17.4622 19.1357 16.1127 19.1357C15.0888 19.1357 14.2984 18.9635 13.7416 18.619C13.1896 18.2793 12.9135 17.7885 12.9135 17.1468C12.9135 16.2833 13.4491 15.7265 14.5202 15.4764C14.2984 15.3821 14.105 15.2334 13.9398 15.0305C13.7794 14.8229 13.6992 14.6129 13.6992 14.4006C13.6992 14.1836 13.7582 13.9901 13.8761 13.8202C13.9988 13.6456 14.2583 13.438 14.6547 13.1974C14.2725 13.0275 13.9752 12.768 13.7629 12.4188C13.5553 12.0649 13.4515 11.6355 13.4515 11.1306C13.4515 10.3474 13.7181 9.7387 14.2512 9.30459C14.7892 8.87048 15.5536 8.65342 16.5445 8.65342C16.9078 8.65342 17.3726 8.69589 17.9388 8.78083H20.4585ZM16.5728 10.0406C16.0585 10.0406 15.8013 10.4111 15.8013 11.1519C15.8013 11.888 16.0585 12.256 16.5728 12.256C17.0682 12.256 17.316 11.888 17.316 11.1519C17.316 10.4111 17.0682 10.0406 16.5728 10.0406Z" fill="#131313"/>
</svg>
