<svg width="24" height="24" viewBox="0 0 24 24" fill="none" xmlns="http://www.w3.org/2000/svg">
<path d="M3.15091 17.1401C2.98291 17.1401 2.84757 17.0981 2.74491 17.0141C2.65157 16.9301 2.60491 16.8088 2.60491 16.6501C2.60491 16.5754 2.60957 16.5194 2.61891 16.4821L3.55691 11.2041C3.79024 9.86006 4.31757 8.83339 5.13891 8.12406C5.96957 7.41473 7.05224 7.06006 8.38691 7.06006C9.50691 7.06006 10.3796 7.34939 11.0049 7.92806C11.6396 8.49739 11.9569 9.28606 11.9569 10.2941C11.9569 10.5741 11.9289 10.8774 11.8729 11.2041L10.9489 16.4821C10.9116 16.6968 10.8182 16.8601 10.6689 16.9721C10.5289 17.0841 10.3609 17.1401 10.1649 17.1401C9.97824 17.1401 9.83824 17.0934 9.74491 17.0001C9.65157 16.9068 9.60491 16.7854 9.60491 16.6361C9.60491 16.5708 9.60957 16.5194 9.61891 16.4821L10.1229 13.6261H4.45291L3.93491 16.4821C3.89757 16.6874 3.80891 16.8508 3.66891 16.9721C3.52891 17.0841 3.35624 17.1401 3.15091 17.1401ZM10.3049 12.5621L10.5569 11.1621C10.6129 10.8261 10.6409 10.5228 10.6409 10.2521C10.6409 9.54273 10.4449 9.01539 10.0529 8.67006C9.66091 8.32473 9.06357 8.15206 8.26091 8.15206C7.31824 8.15206 6.56224 8.40873 5.99291 8.92206C5.43291 9.42606 5.06424 10.1728 4.88691 11.1621L4.63491 12.5621H10.3049ZM15.9368 20.5141C15.2648 20.5141 14.6628 20.4114 14.1308 20.2061C13.5988 20.0008 13.1928 19.7208 12.9128 19.3661C12.8475 19.2728 12.8148 19.1701 12.8148 19.0581C12.8148 18.8994 12.8802 18.7548 13.0108 18.6241C13.1415 18.4934 13.2955 18.4281 13.4728 18.4281C13.5755 18.4281 13.6735 18.4561 13.7668 18.5121C13.8695 18.5681 13.9488 18.6334 14.0048 18.7081C14.3968 19.2121 15.0688 19.4641 16.0208 19.4641C16.8795 19.4641 17.5748 19.2448 18.1068 18.8061C18.6388 18.3674 18.9702 17.7421 19.1008 16.9301L19.2968 15.8661C18.4475 16.7434 17.4115 17.1821 16.1888 17.1821C15.2182 17.1821 14.4435 16.9254 13.8648 16.4121C13.2862 15.8988 12.9968 15.2034 12.9968 14.3261C12.9968 13.4954 13.1882 12.7534 13.5708 12.1001C13.9535 11.4468 14.4808 10.9381 15.1528 10.5741C15.8342 10.2008 16.5995 10.0141 17.4488 10.0141C18.0368 10.0141 18.5548 10.1308 19.0028 10.3641C19.4508 10.5974 19.8148 10.9288 20.0948 11.3581L20.2208 10.6301C20.2582 10.4434 20.3468 10.2941 20.4868 10.1821C20.6362 10.0608 20.8042 10.0001 20.9908 10.0001C21.1588 10.0001 21.2895 10.0468 21.3828 10.1401C21.4762 10.2241 21.5228 10.3408 21.5228 10.4901C21.5228 10.5554 21.5182 10.6021 21.5088 10.6301L20.4028 16.9301C20.2068 18.0594 19.7122 18.9368 18.9188 19.5621C18.1348 20.1968 17.1408 20.5141 15.9368 20.5141ZM16.5248 16.0901C17.1408 16.0901 17.6915 15.9548 18.1768 15.6841C18.6622 15.4134 19.0402 15.0494 19.3108 14.5921C19.5908 14.1254 19.7308 13.6121 19.7308 13.0521C19.7308 12.4268 19.5255 11.9461 19.1148 11.6101C18.7135 11.2648 18.1628 11.0921 17.4628 11.0921C16.8375 11.0921 16.2868 11.2274 15.8108 11.4981C15.3348 11.7594 14.9662 12.1281 14.7048 12.6041C14.4528 13.0801 14.3268 13.6261 14.3268 14.2421C14.3268 14.8488 14.5135 15.3108 14.8868 15.6281C15.2695 15.9361 15.8155 16.0901 16.5248 16.0901Z" fill="#131313"/>
</svg>
