<svg width="24" height="24" viewBox="0 0 24 24" fill="none" xmlns="http://www.w3.org/2000/svg">
<path d="M10.2799 13.8499H5.85591L4.88991 16.9999H3.88191L6.41591 8.8099C6.62125 8.14723 6.84058 7.6899 7.07391 7.4379C7.31658 7.17657 7.64791 7.0459 8.06791 7.0459C8.48791 7.0459 8.81925 7.17657 9.06191 7.4379C9.30458 7.6899 9.52858 8.14723 9.73391 8.8099L12.2679 16.9999H11.2459L10.2799 13.8499ZM10.0419 13.0659L8.73991 8.8239C8.63725 8.50657 8.53925 8.28723 8.44591 8.1659C8.35258 8.04457 8.22658 7.9839 8.06791 7.9839C7.91858 7.9839 7.79725 8.04457 7.70391 8.1659C7.61058 8.28723 7.51258 8.50657 7.40991 8.8239L6.10791 13.0659H10.0419ZM19.7637 10.8259C19.5957 10.9659 19.479 11.0919 19.4137 11.2039C19.3577 11.3066 19.3297 11.4419 19.3297 11.6099V17.4899C19.3297 18.2646 19.1244 18.8432 18.7137 19.2259C18.303 19.6086 17.6777 19.7999 16.8377 19.7999H15.1577V19.0579H16.8377C17.351 19.0579 17.7384 18.9226 17.9997 18.6519C18.261 18.3906 18.3917 18.0032 18.3917 17.4899V15.9079C18.1677 16.2626 17.869 16.5332 17.4957 16.7199C17.1317 16.9066 16.707 16.9999 16.2217 16.9999C15.335 16.9999 14.6304 16.7106 14.1077 16.1319C13.585 15.5532 13.3237 14.7692 13.3237 13.7799V13.4859C13.3237 12.8419 13.4404 12.2772 13.6737 11.7919C13.9164 11.3066 14.2524 10.9332 14.6817 10.6719C15.1204 10.4012 15.629 10.2659 16.2077 10.2659C16.693 10.2659 17.127 10.3639 17.5097 10.5599C17.9017 10.7466 18.2237 11.0219 18.4757 11.3859C18.4757 11.1339 18.5177 10.9239 18.6017 10.7559C18.695 10.5786 18.877 10.4152 19.1477 10.2659L19.7637 10.8259ZM16.3617 16.2439C16.903 16.2439 17.337 16.1179 17.6637 15.8659C17.9904 15.6139 18.233 15.2359 18.3917 14.7319V12.5339C18.233 12.0299 17.9904 11.6519 17.6637 11.3999C17.337 11.1479 16.903 11.0219 16.3617 11.0219C15.727 11.0219 15.2184 11.2459 14.8357 11.6939C14.453 12.1419 14.2617 12.7392 14.2617 13.4859V13.7799C14.2617 14.5266 14.453 15.1239 14.8357 15.5719C15.2184 16.0199 15.727 16.2439 16.3617 16.2439Z" fill="#131313"/>
</svg>
