<svg width="24" height="24" viewBox="0 0 24 24" fill="none" xmlns="http://www.w3.org/2000/svg">
<path d="M9.97782 14.4242H5.95982L5.18982 17.0002H3.53782L5.98782 9.06223C6.14649 8.53956 6.30982 8.13356 6.47782 7.84423C6.65515 7.5549 6.86049 7.34956 7.09382 7.22823C7.32715 7.09756 7.62115 7.03223 7.97582 7.03223C8.32115 7.03223 8.61049 7.09756 8.84382 7.22823C9.07715 7.34956 9.28249 7.5549 9.45982 7.84423C9.63715 8.13356 9.80515 8.53956 9.96382 9.06223L12.3998 17.0002H10.7478L9.97782 14.4242ZM9.61382 13.1922L8.39582 9.09023C8.33982 8.90356 8.27915 8.76823 8.21382 8.68423C8.15782 8.60023 8.07849 8.55823 7.97582 8.55823C7.87315 8.55823 7.78915 8.60023 7.72382 8.68423C7.65849 8.76823 7.59782 8.90356 7.54182 9.09023L6.32382 13.1922H9.61382ZM20.2947 11.1482C20.0707 11.3255 19.9167 11.4842 19.8327 11.6242C19.7487 11.7642 19.7067 11.9462 19.7067 12.1702V17.2942C19.7067 18.1622 19.4687 18.7969 18.9927 19.1982C18.5261 19.5995 17.7794 19.8002 16.7527 19.8002H14.9607V18.6242H16.7527C17.2381 18.6242 17.5974 18.5169 17.8307 18.3022C18.0641 18.0875 18.1807 17.7515 18.1807 17.2942V16.0622C17.9661 16.3702 17.6954 16.6035 17.3687 16.7622C17.0421 16.9209 16.6221 17.0002 16.1087 17.0002C15.2314 17.0002 14.5314 16.7109 14.0087 16.1322C13.4861 15.5442 13.2247 14.7555 13.2247 13.7662V13.4862C13.2247 12.8795 13.3321 12.3335 13.5467 11.8482C13.7707 11.3535 14.0974 10.9662 14.5267 10.6862C14.9654 10.3969 15.4881 10.2522 16.0947 10.2522C17.0561 10.2522 17.7887 10.6255 18.2927 11.3722C18.3487 11.1295 18.4514 10.9242 18.6007 10.7562C18.7594 10.5789 18.9881 10.4109 19.2867 10.2522L20.2947 11.1482ZM16.5007 15.8102C17.3594 15.8102 17.9194 15.3949 18.1807 14.5642V12.7022C17.9194 11.8622 17.3594 11.4422 16.5007 11.4422C15.9501 11.4422 15.5207 11.6382 15.2127 12.0302C14.9047 12.4129 14.7507 12.8982 14.7507 13.4862V13.7662C14.7507 14.3542 14.9047 14.8442 15.2127 15.2362C15.5207 15.6189 15.9501 15.8102 16.5007 15.8102Z" fill="#131313"/>
</svg>
