<svg width="24" height="24" viewBox="0 0 24 24" fill="none" xmlns="http://www.w3.org/2000/svg">
<path d="M10.1654 13.3461H5.41935L3.61335 17.0001H3.15135L7.25335 8.58606C7.50535 8.06339 7.74802 7.68073 7.98135 7.43806C8.22402 7.18606 8.52735 7.06006 8.89135 7.06006C9.22735 7.06006 9.47469 7.17673 9.63335 7.41006C9.80135 7.64339 9.92269 8.03539 9.99735 8.58606L11.1314 17.0001H10.6694L10.1654 13.3461ZM10.1094 12.9541L9.49335 8.58606C9.43735 8.18473 9.36269 7.90006 9.26935 7.73206C9.17602 7.56406 9.02669 7.48006 8.82135 7.48006C8.62535 7.48006 8.45269 7.55939 8.30335 7.71806C8.15402 7.87673 7.97202 8.16606 7.75735 8.58606L5.60135 12.9541H10.1094ZM19.3477 10.5321C19.2264 10.6068 19.1377 10.6908 19.0817 10.7841C19.0257 10.8681 18.9837 10.9801 18.9557 11.1201L17.7517 17.9381C17.6304 18.6194 17.355 19.1421 16.9257 19.5061C16.5057 19.8794 15.9597 20.0661 15.2877 20.0661H13.6917L13.7617 19.7021H15.3577C15.8897 19.7021 16.3284 19.5481 16.6737 19.2401C17.019 18.9321 17.2384 18.4934 17.3317 17.9241L17.7097 15.7681C17.4577 16.1228 17.117 16.4168 16.6877 16.6501C16.2677 16.8834 15.759 17.0001 15.1617 17.0001C14.415 17.0001 13.8317 16.7948 13.4117 16.3841C13.001 15.9734 12.7957 15.3948 12.7957 14.6481C12.7957 14.3868 12.8237 14.1021 12.8797 13.7941L12.9357 13.4861C13.113 12.4968 13.4957 11.7174 14.0837 11.1481C14.6717 10.5694 15.409 10.2801 16.2957 10.2801C16.9024 10.2801 17.3784 10.4014 17.7237 10.6441C18.0784 10.8868 18.3257 11.1901 18.4657 11.5541L18.5217 11.2181C18.559 10.9661 18.6197 10.7701 18.7037 10.6301C18.797 10.4901 18.923 10.3734 19.0817 10.2801L19.3477 10.5321ZM15.1617 16.6361C16.347 16.6361 17.243 16.0854 17.8497 14.9841L18.3257 12.2541C18.1017 11.1808 17.4204 10.6441 16.2817 10.6441C15.5164 10.6441 14.877 10.8961 14.3637 11.4001C13.8504 11.9041 13.5144 12.5994 13.3557 13.4861L13.2997 13.7941C13.253 14.0274 13.2297 14.2888 13.2297 14.5781C13.2297 15.2221 13.3977 15.7261 13.7337 16.0901C14.0697 16.4541 14.5457 16.6361 15.1617 16.6361Z" fill="#131313"/>
</svg>
