<svg width="24" height="24" viewBox="0 0 24 24" fill="none" xmlns="http://www.w3.org/2000/svg">
<path d="M10.3662 15.2227L9.80566 13.6572H6.12793L5.59473 15.127C5.50814 15.3594 5.46484 15.5599 5.46484 15.7285C5.46484 16.1842 5.77474 16.4121 6.39453 16.4121H6.71582V17H3.29785V16.4121H3.56445C3.86068 16.4121 4.07259 16.3324 4.2002 16.1729C4.33236 16.0088 4.47591 15.724 4.63086 15.3184L7.73438 7.00586H8.82812L11.9932 15.667C12.098 15.9495 12.2188 16.1455 12.3555 16.2549C12.4922 16.3597 12.7018 16.4121 12.9844 16.4121H13.1689V17H9.32031V16.4121H9.6416C10.2021 16.4121 10.4824 16.1888 10.4824 15.7422C10.4824 15.6647 10.471 15.585 10.4482 15.5029C10.43 15.4209 10.4027 15.3275 10.3662 15.2227ZM6.39453 12.9531H9.55273L8.68457 10.5059C8.53874 10.0911 8.4043 9.70378 8.28125 9.34375C8.16276 8.97917 8.06478 8.62826 7.9873 8.29102C7.93262 8.57812 7.84375 8.91081 7.7207 9.28906C7.60221 9.66732 7.47689 10.0296 7.34473 10.376L6.39453 12.9531ZM20.5312 9.78809C20.5312 9.99772 20.4674 10.1732 20.3398 10.3145C20.2168 10.4512 20.0345 10.5195 19.793 10.5195C19.793 10.3919 19.7588 10.2803 19.6904 10.1846C19.6221 10.0889 19.5013 10.041 19.3281 10.041C19.1094 10.041 18.9089 10.098 18.7266 10.2119C18.8861 10.4079 19.016 10.6403 19.1162 10.9092C19.221 11.1735 19.2734 11.5062 19.2734 11.9072C19.2734 12.6182 19.0661 13.1924 18.6514 13.6299C18.4417 13.8441 18.1774 14.0127 17.8584 14.1357C17.5439 14.2542 17.1748 14.3135 16.751 14.3135C16.637 14.3135 16.5049 14.3089 16.3545 14.2998C16.2041 14.2861 16.0947 14.277 16.0264 14.2725C15.8441 14.3636 15.6846 14.4775 15.5479 14.6143C15.4157 14.7464 15.3496 14.9173 15.3496 15.127C15.3496 15.3548 15.4316 15.5007 15.5957 15.5645C15.7598 15.6237 15.9671 15.6533 16.2178 15.6533H17.8037C18.223 15.6533 18.5785 15.7057 18.8701 15.8105C19.1663 15.9108 19.4056 16.0544 19.5879 16.2412C19.7747 16.4235 19.9092 16.6445 19.9912 16.9043C20.0732 17.1641 20.1143 17.4443 20.1143 17.7451C20.1143 18.1462 20.0391 18.5085 19.8887 18.832C19.7428 19.1556 19.5173 19.4313 19.2119 19.6592C18.9066 19.8825 18.5192 20.0557 18.0498 20.1787C17.585 20.3018 17.0358 20.3633 16.4023 20.3633C15.4271 20.3633 14.6979 20.1833 14.2148 19.8232C13.7318 19.4632 13.4902 18.9619 13.4902 18.3193C13.4902 17.7952 13.6611 17.3851 14.0029 17.0889C14.3447 16.7972 14.7572 16.6081 15.2402 16.5215C15.0352 16.4303 14.8551 16.2868 14.7002 16.0908C14.5452 15.8903 14.4678 15.651 14.4678 15.373C14.4678 15.0951 14.5407 14.8558 14.6865 14.6553C14.8324 14.4502 15.0648 14.252 15.3838 14.0605C14.9827 13.8965 14.6706 13.6185 14.4473 13.2266C14.2285 12.8346 14.1191 12.4085 14.1191 11.9482C14.1191 11.1234 14.3379 10.4899 14.7754 10.0479C14.9941 9.82454 15.2676 9.65365 15.5957 9.53516C15.9238 9.41667 16.3089 9.35742 16.751 9.35742C17.0563 9.35742 17.3617 9.40072 17.667 9.4873C17.9723 9.57389 18.2002 9.68327 18.3506 9.81543C18.5101 9.64225 18.7015 9.47363 18.9248 9.30957C19.1481 9.14551 19.4079 9.06348 19.7041 9.06348C19.9684 9.06348 20.1712 9.13184 20.3125 9.26855C20.4583 9.40527 20.5312 9.57845 20.5312 9.78809ZM15.4385 11.9072C15.4385 12.5042 15.5365 12.9417 15.7324 13.2197C15.9329 13.4977 16.2588 13.6367 16.71 13.6367C17.1885 13.6367 17.5143 13.4909 17.6875 13.1992C17.8652 12.903 17.9541 12.4655 17.9541 11.8867C17.9541 11.2578 17.8584 10.793 17.667 10.4922C17.4756 10.1914 17.152 10.041 16.6963 10.041C16.2451 10.041 15.9215 10.196 15.7256 10.5059C15.5342 10.8112 15.4385 11.2783 15.4385 11.9072ZM14.625 18.2305C14.625 18.4355 14.6523 18.627 14.707 18.8047C14.7617 18.9824 14.8574 19.1351 14.9941 19.2627C15.1309 19.3903 15.3154 19.4906 15.5479 19.5635C15.7803 19.6364 16.0742 19.6729 16.4297 19.6729C16.931 19.6729 17.3434 19.6296 17.667 19.543C17.9951 19.4609 18.2549 19.3447 18.4463 19.1943C18.6377 19.0439 18.7721 18.8639 18.8496 18.6543C18.9271 18.4492 18.9658 18.2236 18.9658 17.9775C18.9658 17.5492 18.8428 17.262 18.5967 17.1162C18.3551 16.9749 18.002 16.9043 17.5371 16.9043H16.1631C15.7256 16.9043 15.3587 16.9932 15.0625 17.1709C14.7708 17.3532 14.625 17.7064 14.625 18.2305Z" fill="#131313"/>
</svg>
