<svg width="24" height="24" viewBox="0 0 24 24" fill="none" xmlns="http://www.w3.org/2000/svg">
<path d="M10.2142 17.0002C10.0742 16.0015 9.93886 15.1942 9.80819 14.5782H6.00019C5.86952 15.1942 5.73419 16.0015 5.59419 17.0002H3.49419C3.84886 13.6122 4.95952 10.3455 6.82619 7.2002H8.99619C10.8535 10.3269 11.9595 13.5935 12.3142 17.0002H10.2142ZM9.47219 13.0382C9.08019 11.4982 8.55752 10.0842 7.90419 8.7962C7.25086 10.0842 6.72819 11.4982 6.33619 13.0382H9.47219ZM16.8524 15.2502C17.963 15.2502 18.817 15.4415 19.4144 15.8242C20.0117 16.1975 20.3104 16.7342 20.3104 17.4342C20.3104 18.1902 19.9744 18.7875 19.3024 19.2262C18.6304 19.6742 17.7204 19.8982 16.5724 19.8982C15.415 19.8982 14.519 19.7115 13.8844 19.3382C13.259 18.9742 12.9464 18.4515 12.9464 17.7702C12.9464 16.8929 13.5717 16.3935 14.8224 16.2722V16.2302C14.4397 16.1555 14.141 16.0249 13.9264 15.8382C13.721 15.6422 13.6184 15.4089 13.6184 15.1382C13.6184 14.8862 13.721 14.6669 13.9264 14.4802C14.1317 14.2842 14.407 14.1395 14.7524 14.0462C14.295 13.8129 13.931 13.5095 13.6604 13.1362C13.3897 12.7629 13.2544 12.3522 13.2544 11.9042C13.2544 11.0269 13.553 10.3502 14.1504 9.8742C14.757 9.3982 15.6064 9.1602 16.6984 9.1602C17.249 9.1602 17.753 9.25353 18.2104 9.4402C18.425 9.15087 18.677 8.91753 18.9664 8.7402C19.265 8.56287 19.545 8.4742 19.8064 8.4742C20.1424 8.4742 20.3757 8.59553 20.5064 8.8382C20.6464 9.07153 20.7164 9.4822 20.7164 10.0702C20.0817 10.0702 19.6197 10.1449 19.3304 10.2942C19.6477 10.7142 19.8064 11.1949 19.8064 11.7362C19.8064 12.5949 19.5124 13.2575 18.9244 13.7242C18.3457 14.1909 17.515 14.4242 16.4324 14.4242C15.9937 14.4242 15.695 14.4569 15.5364 14.5222C15.3777 14.5782 15.2984 14.6902 15.2984 14.8582C15.2984 14.9795 15.3357 15.0682 15.4104 15.1242C15.485 15.1709 15.625 15.2035 15.8304 15.2222C16.045 15.2409 16.3857 15.2502 16.8524 15.2502ZM16.5164 10.4762C15.7417 10.4762 15.3544 10.9149 15.3544 11.7922C15.3544 12.2309 15.4477 12.5575 15.6344 12.7722C15.821 12.9775 16.115 13.0802 16.5164 13.0802C16.9177 13.0802 17.2117 12.9775 17.3984 12.7722C17.5944 12.5575 17.6924 12.2309 17.6924 11.7922C17.6924 11.3442 17.5944 11.0129 17.3984 10.7982C17.2117 10.5835 16.9177 10.4762 16.5164 10.4762ZM16.5724 18.5542C17.1417 18.5542 17.5757 18.4655 17.8744 18.2882C18.1824 18.1109 18.3364 17.8542 18.3364 17.5182C18.3364 16.8649 17.767 16.5382 16.6284 16.5382C15.583 16.5382 15.0604 16.8649 15.0604 17.5182C15.0604 17.8822 15.177 18.1435 15.4104 18.3022C15.653 18.4702 16.0404 18.5542 16.5724 18.5542Z" fill="#131313"/>
</svg>
