<svg width="24" height="24" viewBox="0 0 24 24" fill="none" xmlns="http://www.w3.org/2000/svg">
<path d="M3.3177 17.0001L5.7397 10.2101C5.94503 9.61278 6.19236 9.09944 6.4817 8.67011C6.78036 8.24078 7.12103 7.89078 7.5037 7.62011C7.8957 7.34011 8.35303 7.13478 8.8757 7.00411C9.4077 6.87344 10.0144 6.80811 10.6957 6.80811C11.069 6.80811 11.4284 6.83144 11.7737 6.87811C12.1284 6.91544 12.483 6.97611 12.8377 7.06011L12.8517 7.22811C12.7584 7.50811 12.6697 7.84411 12.5857 8.23611C12.511 8.61878 12.4457 8.9501 12.3897 9.2301L10.8777 17.0001H9.2537L10.8357 8.90811C10.873 8.73078 10.915 8.55811 10.9617 8.39011C11.0084 8.21278 11.0784 8.05878 11.1717 7.92811L11.2697 8.36211C11.1857 8.30611 11.0504 8.26411 10.8637 8.23611C10.677 8.20811 10.4857 8.19411 10.2897 8.19411C9.72036 8.19411 9.24436 8.27811 8.8617 8.44611C8.48836 8.61411 8.18503 8.85678 7.9517 9.17411C7.71836 9.49144 7.5177 9.8741 7.3497 10.3221L4.9837 17.0001H3.3177ZM5.6417 14.0461L6.0897 12.6741H10.4437L10.1777 14.0461H5.6417ZM15.1453 20.3601C14.912 20.3601 14.6646 20.3461 14.4033 20.3181C14.142 20.2901 13.8853 20.2481 13.6333 20.1921C13.3813 20.1454 13.162 20.0848 12.9753 20.0101L13.2413 18.6381H13.3673C13.638 18.7781 13.9413 18.8808 14.2773 18.9461C14.6226 19.0114 14.954 19.0441 15.2713 19.0441C16.1393 19.0441 16.8066 18.8294 17.2733 18.4001C17.7493 17.9801 18.0526 17.3641 18.1833 16.5521L19.1633 11.5541C19.21 11.3021 19.2566 11.0921 19.3033 10.9241C19.3593 10.7468 19.4106 10.5974 19.4573 10.4761L19.6953 10.8541C19.434 10.7234 19.1913 10.6301 18.9673 10.5741C18.7526 10.5181 18.4633 10.4901 18.0993 10.4901C17.502 10.4901 16.9793 10.6208 16.5313 10.8821C16.0833 11.1341 15.7333 11.5028 15.4813 11.9881C15.2386 12.4641 15.1173 13.0381 15.1173 13.7101C15.1173 14.4101 15.3086 14.9141 15.6913 15.2221C16.074 15.5208 16.6106 15.6701 17.3013 15.6701C17.6186 15.6701 17.8753 15.6468 18.0713 15.6001C18.2673 15.5534 18.4306 15.5021 18.5613 15.4461L18.3093 16.7201C18.216 16.7574 18.0993 16.7948 17.9593 16.8321C17.8286 16.8694 17.6793 16.9021 17.5113 16.9301C17.3526 16.9488 17.1846 16.9581 17.0073 16.9581C16.3353 16.9581 15.7333 16.8414 15.2013 16.6081C14.6786 16.3748 14.2633 16.0248 13.9553 15.5581C13.6566 15.0821 13.5073 14.4801 13.5073 13.7521C13.5073 12.8281 13.7033 12.0254 14.0953 11.3441C14.4966 10.6628 15.052 10.1401 15.7613 9.77611C16.48 9.40278 17.3153 9.2161 18.2673 9.2161C18.7993 9.2161 19.308 9.26278 19.7933 9.35611C20.2786 9.44011 20.7266 9.56611 21.1373 9.73411L21.2073 9.84611C21.142 10.0048 21.0813 10.1821 21.0253 10.3781C20.9693 10.5648 20.918 10.7608 20.8713 10.9661C20.8246 11.1621 20.7826 11.3534 20.7453 11.5401L19.7093 16.7901C19.56 17.5461 19.3033 18.1854 18.9393 18.7081C18.5753 19.2401 18.0806 19.6461 17.4553 19.9261C16.83 20.2154 16.06 20.3601 15.1453 20.3601Z" fill="#131313"/>
</svg>
