<svg width="24" height="24" viewBox="0 0 24 24" fill="none" xmlns="http://www.w3.org/2000/svg">
<path d="M3.69844 17.0001L4.81844 10.3501C4.93044 9.68744 5.09844 9.13211 5.32244 8.68411C5.55577 8.23611 5.85444 7.87211 6.21844 7.59211C6.59177 7.31211 7.0351 7.11144 7.54844 6.99011C8.0711 6.86878 8.67777 6.80811 9.36844 6.80811C9.74177 6.80811 10.1291 6.83144 10.5304 6.87811C10.9411 6.91544 11.3331 6.97611 11.7064 7.06011L11.7344 7.22811C11.6971 7.40544 11.6691 7.63411 11.6504 7.91411C11.6411 8.19411 11.6364 8.47878 11.6364 8.76811C11.6364 9.04811 11.6364 9.28144 11.6364 9.46811V17.0001H9.63444V9.30011C9.63444 9.05744 9.6391 8.83811 9.64844 8.64211C9.6671 8.43678 9.6951 8.25011 9.73244 8.08211L10.0124 8.60011C9.90044 8.56278 9.75577 8.53944 9.57844 8.53011C9.41044 8.51144 9.24244 8.50211 9.07444 8.50211C8.5611 8.50211 8.15044 8.57211 7.84244 8.71211C7.54377 8.84278 7.3151 9.04811 7.15644 9.32811C6.99777 9.60811 6.8811 9.96278 6.80644 10.3921L5.71444 17.0001H3.69844ZM5.32244 14.2141V12.5621H10.5304V14.2141H5.32244ZM15.4358 20.3601C15.0811 20.3601 14.6938 20.3274 14.2738 20.2621C13.8631 20.2061 13.5225 20.1221 13.2518 20.0101V18.4001H13.4058C13.6858 18.5214 14.0031 18.6101 14.3578 18.6661C14.7125 18.7314 15.0345 18.7641 15.3238 18.7641C15.8465 18.7641 16.2851 18.6988 16.6398 18.5681C17.0038 18.4374 17.2745 18.2228 17.4518 17.9241C17.6385 17.6254 17.7318 17.2334 17.7318 16.7481V11.8481C17.7318 11.5588 17.7411 11.2928 17.7598 11.0501C17.7785 10.8074 17.8205 10.6161 17.8858 10.4761L18.1098 10.8961C17.9885 10.8681 17.8111 10.8308 17.5778 10.7841C17.3445 10.7374 17.0925 10.7141 16.8218 10.7141C16.2991 10.7141 15.8651 10.8121 15.5198 11.0081C15.1838 11.2041 14.9318 11.4794 14.7638 11.8341C14.5958 12.1888 14.5118 12.6134 14.5118 13.1081C14.5118 13.8734 14.6985 14.4568 15.0718 14.8581C15.4545 15.2501 16.0378 15.4461 16.8218 15.4461C17.0178 15.4461 17.2045 15.4321 17.3818 15.4041C17.5591 15.3761 17.7598 15.3201 17.9838 15.2361L17.9558 16.7761C17.6758 16.8321 17.4285 16.8741 17.2138 16.9021C16.9991 16.9301 16.7891 16.9441 16.5838 16.9441C15.7625 16.9441 15.0438 16.8041 14.4278 16.5241C13.8211 16.2441 13.3498 15.8241 13.0138 15.2641C12.6778 14.6948 12.5098 13.9854 12.5098 13.1361C12.5098 12.4828 12.6171 11.9134 12.8318 11.4281C13.0465 10.9334 13.3498 10.5181 13.7418 10.1821C14.1338 9.84611 14.6005 9.59411 15.1418 9.42611C15.6831 9.25811 16.2805 9.17411 16.9338 9.17411C17.4751 9.17411 17.9931 9.23011 18.4878 9.34211C18.9825 9.45411 19.4071 9.58944 19.7618 9.74811L19.8038 9.86011C19.7665 10.0281 19.7385 10.2521 19.7198 10.5321C19.7105 10.8121 19.7011 11.1014 19.6918 11.4001C19.6918 11.6894 19.6918 11.9321 19.6918 12.1281V16.5801C19.6918 17.4108 19.5145 18.1061 19.1598 18.6661C18.8145 19.2354 18.3245 19.6601 17.6898 19.9401C17.0551 20.2201 16.3038 20.3601 15.4358 20.3601Z" fill="#131313"/>
</svg>
