<svg width="24" height="24" viewBox="0 0 24 24" fill="none" xmlns="http://www.w3.org/2000/svg">
<path d="M4.07195 16.9862L8.29995 7.2002H10.414L12.248 16.9862H10.47L10.05 14.6202H6.87195L5.87795 16.9862H4.07195ZM9.12595 9.3002L7.48795 13.1642H9.79795L9.12595 9.3002ZM15.6428 19.8562C15.3255 19.8562 14.9942 19.8002 14.6488 19.6882C14.3128 19.5762 14.0095 19.4269 13.7388 19.2402C13.4682 19.0629 13.2722 18.8669 13.1508 18.6522L14.3128 17.5882C14.5275 17.8309 14.7842 18.0082 15.0828 18.1202C15.3908 18.2322 15.6895 18.2602 15.9788 18.2042C16.2775 18.1482 16.5155 17.9942 16.6928 17.7422C16.8235 17.6115 16.9215 17.4482 16.9868 17.2522C17.0615 17.0655 17.1175 16.8695 17.1548 16.6642C16.5668 16.9722 16.0068 17.0982 15.4748 17.0422C14.9428 16.9862 14.4808 16.7949 14.0888 16.4682C13.6968 16.1322 13.4028 15.7029 13.2068 15.1802C13.0108 14.6575 12.9502 14.0882 13.0248 13.4722C13.1088 12.7815 13.3002 12.1795 13.5988 11.6662C13.9068 11.1529 14.2848 10.7515 14.7328 10.4622C15.1902 10.1635 15.6942 10.0002 16.2448 9.9722C16.7955 9.93487 17.3555 10.0515 17.9248 10.3222L17.9948 10.0002H19.6748L18.8488 16.6502C18.7275 17.6395 18.3915 18.4189 17.8408 18.9882C17.2902 19.5669 16.5575 19.8562 15.6428 19.8562ZM14.6628 13.6402C14.5975 14.1535 14.6862 14.5549 14.9288 14.8442C15.1715 15.1335 15.5075 15.3015 15.9368 15.3482C16.3755 15.3949 16.8375 15.3202 17.3228 15.1242L17.7848 11.9042C17.2995 11.5869 16.8328 11.4562 16.3848 11.5122C15.9368 11.5589 15.5588 11.7642 15.2508 12.1282C14.9428 12.4922 14.7468 12.9962 14.6628 13.6402Z" fill="#131313"/>
</svg>
