<svg width="24" height="24" viewBox="0 0 24 24" fill="none" xmlns="http://www.w3.org/2000/svg">
<path d="M6.43993 7.2002H7.15393L11.2699 17.0002H10.3739L9.01593 13.7802H3.97593L2.61793 17.0002H2.32393L6.43993 7.2002ZM8.90393 13.5142L6.49593 7.8302L4.08793 13.5142H8.90393ZM16.5055 19.9402C15.6935 19.9402 14.9842 19.8469 14.3775 19.6602C13.7802 19.4829 13.3182 19.2309 12.9915 18.9042C12.6742 18.5775 12.5155 18.1855 12.5155 17.7282C12.5155 17.1962 12.7442 16.7482 13.2015 16.3842C13.6588 16.0202 14.2935 15.7682 15.1055 15.6282C14.0322 15.5349 13.1968 15.3622 12.5995 15.1102C12.0022 14.8489 11.7035 14.4149 11.7035 13.8082C11.7035 13.5562 11.7922 13.3462 11.9695 13.1782C12.1562 13.0009 12.3848 12.9122 12.6555 12.9122C12.7022 12.9122 12.7488 12.9122 12.7955 12.9122C12.8422 12.9122 12.8888 12.9169 12.9355 12.9262C12.9915 12.9449 13.0475 12.9589 13.1035 12.9682C13.1595 12.9775 13.2155 12.9915 13.2715 13.0102C13.1035 12.7395 13.0195 12.4409 13.0195 12.1142C13.0195 11.4702 13.2995 10.9522 13.8595 10.5602C14.4195 10.1589 15.1848 9.9302 16.1555 9.8742V8.1802H16.8555V9.8742C17.5275 9.89287 18.1155 9.99553 18.6195 10.1822C19.1235 10.3689 19.5108 10.6302 19.7815 10.9662C20.0615 11.2929 20.2015 11.6755 20.2015 12.1142C20.2015 12.5715 20.0522 12.9682 19.7535 13.3042C19.4642 13.6402 19.0488 13.9015 18.5075 14.0882C17.9662 14.2655 17.3362 14.3542 16.6175 14.3542C16.1135 14.3542 15.6842 14.3215 15.3295 14.2562C14.9842 14.1815 14.7042 14.0929 14.4895 13.9902C14.2842 13.8875 14.0555 13.7569 13.8035 13.5982C13.5702 13.4582 13.3742 13.3555 13.2155 13.2902C13.0568 13.2249 12.8702 13.1922 12.6555 13.1922C12.4595 13.1922 12.2962 13.2529 12.1655 13.3742C12.0442 13.4862 11.9835 13.6262 11.9835 13.7942C11.9835 14.1862 12.1608 14.4989 12.5155 14.7322C12.8702 14.9562 13.3135 15.1195 13.8455 15.2222C14.3868 15.3249 15.0495 15.4042 15.8335 15.4602C15.9828 15.4695 16.1322 15.4789 16.2815 15.4882C16.4308 15.4975 16.5755 15.5069 16.7155 15.5162C17.9195 15.5909 18.8482 15.7915 19.5015 16.1182C20.1642 16.4449 20.4955 16.9815 20.4955 17.7282C20.4955 18.1855 20.3322 18.5775 20.0055 18.9042C19.6882 19.2309 19.2262 19.4829 18.6195 19.6602C18.0222 19.8469 17.3175 19.9402 16.5055 19.9402ZM16.5055 19.6742C17.1588 19.6742 17.7282 19.5949 18.2135 19.4362C18.6988 19.2775 19.0722 19.0489 19.3335 18.7502C19.5948 18.4609 19.7255 18.1202 19.7255 17.7282C19.7255 17.0935 19.4502 16.6082 18.8995 16.2722C18.3488 15.9362 17.5508 15.7682 16.5055 15.7682C15.8428 15.7682 15.2688 15.8475 14.7835 16.0062C14.3075 16.1649 13.9388 16.3935 13.6775 16.6922C13.4162 16.9815 13.2855 17.3269 13.2855 17.7282C13.2855 18.1202 13.4162 18.4609 13.6775 18.7502C13.9388 19.0489 14.3075 19.2775 14.7835 19.4362C15.2688 19.5949 15.8428 19.6742 16.5055 19.6742ZM16.6175 14.1022C17.4762 14.1022 18.1622 13.9202 18.6755 13.5562C19.1888 13.1922 19.4455 12.7115 19.4455 12.1142C19.4455 11.4982 19.1888 11.0129 18.6755 10.6582C18.1715 10.2942 17.4855 10.1122 16.6175 10.1122C15.7402 10.1122 15.0448 10.2942 14.5315 10.6582C14.0275 11.0129 13.7755 11.4982 13.7755 12.1142C13.7755 12.7209 14.0228 13.2062 14.5175 13.5702C15.0215 13.9249 15.7215 14.1022 16.6175 14.1022Z" fill="#131313"/>
</svg>
