<svg width="24" height="24" viewBox="0 0 24 24" fill="none" xmlns="http://www.w3.org/2000/svg">
<path d="M2.32665 16.1182H3.58665L6.80665 8.4322L6.69465 8.0682H5.26665V7.2002H8.71065L12.2106 16.1182H13.4986V17.0002H8.75265V16.1182H10.5446L9.64865 13.8222H5.46265L4.51065 16.1182H6.45665V17.0002H2.32665V16.1182ZM9.32665 12.9822L7.64665 8.7122H7.57665L5.79865 12.9822H9.32665ZM17.4462 19.9402C16.6249 19.9402 15.9155 19.8515 15.3182 19.6742C14.7209 19.4969 14.2635 19.2402 13.9462 18.9042C13.6289 18.5775 13.4702 18.1809 13.4702 17.7142C13.4702 17.2569 13.6569 16.8649 14.0302 16.5382C14.4035 16.2115 14.9355 15.9782 15.6262 15.8382C14.6835 15.7449 13.9462 15.5582 13.4142 15.2782C12.8915 14.9889 12.6302 14.5689 12.6302 14.0182C12.6302 13.8315 12.6769 13.6542 12.7702 13.4862C12.8729 13.3182 13.0082 13.1829 13.1762 13.0802C13.3535 12.9775 13.5495 12.9262 13.7642 12.9262C13.8202 12.9262 13.8762 12.9355 13.9322 12.9542C13.9975 12.9635 14.0629 12.9775 14.1282 12.9962C13.9789 12.7442 13.9042 12.4689 13.9042 12.1702C13.9042 11.5449 14.1609 11.0362 14.6742 10.6442C15.1875 10.2522 15.9109 10.0142 16.8442 9.9302V8.7822H15.3462V7.9982H19.6582V8.7822H18.1742V9.9302C18.8275 9.97687 19.3782 10.0982 19.8262 10.2942C20.2835 10.4809 20.6289 10.7329 20.8622 11.0502C21.0955 11.3675 21.2122 11.7409 21.2122 12.1702C21.2122 12.6369 21.0582 13.0429 20.7502 13.3882C20.4422 13.7335 20.0129 13.9995 19.4622 14.1862C18.9115 14.3729 18.2769 14.4662 17.5582 14.4662C17.1102 14.4662 16.7182 14.4382 16.3822 14.3822C16.0555 14.3169 15.7895 14.2375 15.5842 14.1442C15.3789 14.0509 15.1642 13.9389 14.9402 13.8082C14.7442 13.6869 14.5762 13.5982 14.4362 13.5422C14.2962 13.4862 14.1422 13.4582 13.9742 13.4582C13.8062 13.4582 13.6709 13.5095 13.5682 13.6122C13.4655 13.7055 13.4142 13.8222 13.4142 13.9622C13.4142 14.3075 13.5682 14.5735 13.8762 14.7602C14.1842 14.9469 14.5715 15.0775 15.0382 15.1522C15.5049 15.2175 16.1582 15.2829 16.9982 15.3482C17.1849 15.3669 17.3715 15.3855 17.5582 15.4042C17.7542 15.4135 17.9502 15.4275 18.1462 15.4462C19.1729 15.5395 19.9802 15.7729 20.5682 16.1462C21.1562 16.5195 21.4502 17.0282 21.4502 17.6722C21.4502 18.1389 21.2869 18.5402 20.9602 18.8762C20.6335 19.2215 20.1669 19.4829 19.5602 19.6602C18.9629 19.8469 18.2582 19.9402 17.4462 19.9402ZM17.4602 19.2122C17.9642 19.2122 18.4029 19.1469 18.7762 19.0162C19.1495 18.8949 19.4342 18.7175 19.6302 18.4842C19.8355 18.2509 19.9382 17.9755 19.9382 17.6582C19.9382 17.3409 19.8355 17.0655 19.6302 16.8322C19.4342 16.5895 19.1495 16.4075 18.7762 16.2862C18.4029 16.1555 17.9642 16.0902 17.4602 16.0902C16.9469 16.0902 16.5035 16.1555 16.1302 16.2862C15.7569 16.4075 15.4722 16.5895 15.2762 16.8322C15.0802 17.0655 14.9822 17.3409 14.9822 17.6582C14.9822 17.9755 15.0802 18.2509 15.2762 18.4842C15.4815 18.7175 15.7662 18.8949 16.1302 19.0162C16.5035 19.1469 16.9469 19.2122 17.4602 19.2122ZM17.5582 13.7382C18.2395 13.7382 18.7809 13.5935 19.1822 13.3042C19.5835 13.0149 19.7842 12.6275 19.7842 12.1422C19.7842 11.6382 19.5835 11.2462 19.1822 10.9662C18.7902 10.6769 18.2489 10.5322 17.5582 10.5322C16.8675 10.5322 16.3215 10.6769 15.9202 10.9662C15.5282 11.2462 15.3322 11.6382 15.3322 12.1422C15.3322 12.6275 15.5282 13.0149 15.9202 13.3042C16.3215 13.5935 16.8675 13.7382 17.5582 13.7382Z" fill="#131313"/>
</svg>
