<svg width="24" height="24" viewBox="0 0 24 24" fill="none" xmlns="http://www.w3.org/2000/svg">
<path d="M6.13844 7.2002H8.39244L12.1164 17.0002H9.73644L8.74244 14.3542H4.69644L3.71644 17.0002H2.40044L6.13844 7.2002ZM8.40644 13.3182L6.75444 8.9362H6.68444L5.03244 13.3182H8.40644ZM17.4303 19.9402C16.5623 19.9402 15.8203 19.8515 15.2043 19.6742C14.5883 19.5062 14.117 19.2589 13.7903 18.9322C13.4636 18.6055 13.3003 18.2135 13.3003 17.7562C13.3003 17.2989 13.4823 16.9115 13.8463 16.5942C14.2196 16.2675 14.7423 16.0389 15.4143 15.9082C14.4996 15.7869 13.7763 15.5815 13.2443 15.2922C12.7123 15.0029 12.4463 14.5875 12.4463 14.0462C12.4463 13.7849 12.5396 13.5515 12.7263 13.3462C12.913 13.1315 13.1696 13.0009 13.4963 12.9542C13.5336 12.9542 13.5663 12.9542 13.5943 12.9542C13.6223 12.9542 13.655 12.9589 13.6923 12.9682C13.7296 12.9775 13.767 12.9869 13.8043 12.9962C13.851 13.0055 13.893 13.0195 13.9303 13.0382C13.781 12.8142 13.7063 12.5342 13.7063 12.1982C13.7063 11.5822 13.9536 11.0782 14.4483 10.6862C14.9523 10.2849 15.6476 10.0329 16.5343 9.9302V8.1802H18.4523V9.9162C19.059 9.9722 19.5816 10.1029 20.0203 10.3082C20.4683 10.5042 20.809 10.7655 21.0423 11.0922C21.2756 11.4189 21.3923 11.7875 21.3923 12.1982C21.3923 12.6742 21.2336 13.0895 20.9163 13.4442C20.6083 13.7895 20.165 14.0555 19.5863 14.2422C19.0076 14.4195 18.3263 14.5082 17.5423 14.5082C17.085 14.5082 16.693 14.4755 16.3663 14.4102C16.0396 14.3449 15.7736 14.2702 15.5683 14.1862C15.3723 14.0929 15.1623 13.9809 14.9383 13.8502C14.7516 13.7382 14.5976 13.6589 14.4763 13.6122C14.355 13.5562 14.2196 13.5282 14.0703 13.5282C13.893 13.5282 13.753 13.5795 13.6503 13.6822C13.557 13.7755 13.5103 13.8922 13.5103 14.0322C13.5103 14.3682 13.6783 14.6295 14.0143 14.8162C14.3503 14.9935 14.775 15.1195 15.2883 15.1942C15.811 15.2595 16.5156 15.3202 17.4023 15.3762C17.477 15.3855 17.5516 15.3949 17.6263 15.4042C17.7103 15.4042 17.7943 15.4089 17.8783 15.4182C19.0916 15.4929 20.0156 15.7122 20.6503 16.0762C21.285 16.4402 21.6023 16.9675 21.6023 17.6582C21.6023 18.1342 21.4343 18.5402 21.0983 18.8762C20.7623 19.2215 20.2816 19.4829 19.6563 19.6602C19.031 19.8469 18.289 19.9402 17.4303 19.9402ZM17.4443 19.0862C17.883 19.0862 18.261 19.0255 18.5783 18.9042C18.905 18.7922 19.1523 18.6242 19.3203 18.4002C19.4883 18.1762 19.5723 17.9102 19.5723 17.6022C19.5723 17.1075 19.3903 16.7295 19.0263 16.4682C18.6623 16.2069 18.135 16.0762 17.4443 16.0762C17.0056 16.0762 16.623 16.1369 16.2963 16.2582C15.979 16.3795 15.7363 16.5569 15.5683 16.7902C15.4003 17.0142 15.3163 17.2849 15.3163 17.6022C15.3163 17.9102 15.4003 18.1762 15.5683 18.4002C15.7456 18.6242 15.993 18.7922 16.3103 18.9042C16.6276 19.0255 17.0056 19.0862 17.4443 19.0862ZM17.5423 13.7802C18.121 13.7802 18.5783 13.6402 18.9143 13.3602C19.2503 13.0802 19.4183 12.6929 19.4183 12.1982C19.4183 11.6942 19.2503 11.3022 18.9143 11.0222C18.5876 10.7422 18.1303 10.6022 17.5423 10.6022C16.9543 10.6022 16.4923 10.7422 16.1563 11.0222C15.8296 11.3022 15.6663 11.6942 15.6663 12.1982C15.6663 12.7022 15.8296 13.0942 16.1563 13.3742C16.4923 13.6449 16.9543 13.7802 17.5423 13.7802Z" fill="#131313"/>
</svg>
