<svg width="24" height="24" viewBox="0 0 24 24" fill="none" xmlns="http://www.w3.org/2000/svg">
<path d="M2.67524 16.8462C2.74991 16.6782 2.82924 16.5102 2.91324 16.3422C2.99724 16.1742 3.07658 16.0062 3.15124 15.8382C3.31924 15.4835 3.48724 15.1195 3.65524 14.7462C3.82324 14.3729 3.99124 13.9855 4.15924 13.5842L6.74924 7.6062C6.63724 7.5222 6.49724 7.47087 6.32924 7.4522C6.17058 7.43353 5.92324 7.4242 5.58724 7.4242C5.56858 7.4242 5.54991 7.4242 5.53124 7.4242C5.51258 7.4242 5.49391 7.4242 5.47524 7.4242L5.58724 7.2002C5.77391 7.2002 5.95591 7.2002 6.13324 7.2002C6.31991 7.2002 6.50191 7.2002 6.67924 7.2002H7.00124C7.37458 8.04953 7.74324 8.87087 8.10724 9.6642L10.5432 14.8442C10.5992 14.9562 10.7486 15.2595 10.9912 15.7542C11.0846 15.9409 11.1826 16.1275 11.2852 16.3142C11.3879 16.4915 11.4906 16.6735 11.5932 16.8602V17.0002H10.0672L9.74524 16.7062L9.80124 16.6222L10.0252 16.6642C10.2306 16.7015 10.4406 16.7342 10.6552 16.7622C10.8792 16.7902 11.0426 16.8042 11.1452 16.8042L9.74524 13.7802H4.36924C4.28524 13.9669 4.20591 14.1489 4.13124 14.3262C4.05658 14.4942 3.98191 14.6575 3.90724 14.8162C3.49658 15.7402 3.21658 16.4029 3.06724 16.8042C3.16991 16.8042 3.32858 16.7902 3.54324 16.7622C3.75791 16.7342 3.96791 16.7015 4.17324 16.6642C4.21058 16.6549 4.24791 16.6502 4.28524 16.6502C4.33191 16.6409 4.37391 16.6315 4.41124 16.6222L4.46724 16.7062L4.14524 17.0002H2.67524V16.8462ZM9.61924 13.5142L7.04324 7.9842C7.04324 7.97487 7.04324 7.9702 7.04324 7.9702C7.02458 7.95153 7.00591 7.9282 6.98724 7.9002C6.97791 7.8722 6.96858 7.8442 6.95924 7.8162L4.48124 13.5142H9.61924ZM16.5712 19.9402C15.7872 19.9402 15.0966 19.8469 14.4992 19.6602C13.9112 19.4829 13.4539 19.2262 13.1272 18.8902C12.8099 18.5635 12.6512 18.1762 12.6512 17.7282C12.6512 17.1682 12.9032 16.7015 13.4072 16.3282C13.9112 15.9455 14.6159 15.7075 15.5212 15.6142C14.3919 15.5769 13.5099 15.4322 12.8752 15.1802C12.2499 14.9189 11.9372 14.4709 11.9372 13.8362C11.9372 13.6775 11.9792 13.5329 12.0632 13.4022C12.1472 13.2622 12.2592 13.1549 12.3992 13.0802C12.5486 12.9962 12.7072 12.9542 12.8752 12.9542C12.9872 12.9542 13.0946 12.9682 13.1972 12.9962C13.2999 13.0149 13.4026 13.0429 13.5052 13.0802C13.2999 12.7909 13.1972 12.4595 13.1972 12.0862C13.1972 11.4329 13.4912 10.9102 14.0792 10.5182C14.6672 10.1169 15.4606 9.89753 16.4592 9.8602V8.5162C16.3659 8.5162 16.0626 8.56287 15.5492 8.6562L15.3812 8.6982L15.3392 8.6142L15.5912 8.3202H16.4592C16.5059 8.3202 16.5572 8.3202 16.6132 8.3202C16.6692 8.3202 16.7206 8.3202 16.7672 8.3202V8.4602C16.7299 9.0762 16.7112 9.54287 16.7112 9.8602C17.4112 9.8602 18.0226 9.95353 18.5452 10.1402C19.0772 10.3175 19.4879 10.5742 19.7772 10.9102C20.0666 11.2462 20.2112 11.6382 20.2112 12.0862C20.2112 12.5342 20.0666 12.9262 19.7772 13.2622C19.4879 13.5889 19.0772 13.8455 18.5452 14.0322C18.0226 14.2095 17.4112 14.2982 16.7112 14.2982C16.2166 14.2982 15.7966 14.2655 15.4512 14.2002C15.1152 14.1349 14.8446 14.0555 14.6392 13.9622C14.4432 13.8689 14.2332 13.7522 14.0092 13.6122C13.7852 13.4815 13.5939 13.3882 13.4352 13.3322C13.2859 13.2669 13.0992 13.2342 12.8752 13.2342C12.6792 13.2342 12.5206 13.2949 12.3992 13.4162C12.2779 13.5375 12.2172 13.6775 12.2172 13.8362C12.2172 14.2375 12.3806 14.5455 12.7072 14.7602C13.0339 14.9655 13.4399 15.1102 13.9252 15.1942C14.4106 15.2689 15.0686 15.3389 15.8992 15.4042C16.1419 15.4135 16.3846 15.4322 16.6272 15.4602C16.8699 15.4789 17.1126 15.5022 17.3552 15.5302C18.2792 15.6329 19.0352 15.8662 19.6232 16.2302C20.2112 16.5849 20.5052 17.0842 20.5052 17.7282C20.5052 18.1762 20.3419 18.5635 20.0152 18.8902C19.6979 19.2262 19.2406 19.4829 18.6432 19.6602C18.0552 19.8469 17.3646 19.9402 16.5712 19.9402ZM16.5712 19.6602C17.3086 19.6602 17.9526 19.5809 18.5032 19.4222C19.0539 19.2635 19.4786 19.0349 19.7772 18.7362C20.0759 18.4469 20.2252 18.1109 20.2252 17.7282C20.2252 17.3362 20.0759 16.9955 19.7772 16.7062C19.4786 16.4075 19.0539 16.1789 18.5032 16.0202C17.9526 15.8615 17.3086 15.7822 16.5712 15.7822C15.8339 15.7822 15.1899 15.8615 14.6392 16.0202C14.0979 16.1789 13.6779 16.4075 13.3792 16.7062C13.0806 16.9955 12.9312 17.3362 12.9312 17.7282C12.9312 18.1109 13.0806 18.4469 13.3792 18.7362C13.6779 19.0349 14.0979 19.2635 14.6392 19.4222C15.1899 19.5809 15.8339 19.6602 16.5712 19.6602ZM16.7112 14.0182C17.6912 14.0182 18.4706 13.8409 19.0492 13.4862C19.6372 13.1315 19.9312 12.6649 19.9312 12.0862C19.9312 11.4982 19.6372 11.0269 19.0492 10.6722C18.4706 10.3175 17.6912 10.1402 16.7112 10.1402C15.7219 10.1402 14.9332 10.3175 14.3452 10.6722C13.7666 11.0269 13.4772 11.4982 13.4772 12.0862C13.4772 12.6742 13.7666 13.1455 14.3452 13.5002C14.9332 13.8455 15.7219 14.0182 16.7112 14.0182Z" fill="#131313"/>
</svg>
