<svg width="24" height="24" viewBox="0 0 24 24" fill="none" xmlns="http://www.w3.org/2000/svg">
<path d="M2.51472 16.8459C2.60806 16.6592 2.69672 16.4772 2.78072 16.2999C2.86472 16.1132 2.94406 15.9359 3.01872 15.7679C3.19606 15.4039 3.36872 15.0306 3.53672 14.6479C3.71406 14.2559 3.89606 13.8266 4.08272 13.3599L6.40672 7.92788C6.27606 7.87188 6.12206 7.8392 5.94472 7.82987C5.77672 7.8112 5.55272 7.80188 5.27272 7.80188C5.23539 7.80188 5.19806 7.80188 5.16072 7.80188C5.13272 7.80188 5.10006 7.80188 5.06272 7.80188L5.28672 7.17188C5.56672 7.19055 5.86072 7.19987 6.16872 7.19987C6.47672 7.19987 6.75672 7.19987 7.00872 7.19987H7.45672C7.83939 8.14254 8.19872 8.99188 8.53472 9.74788L10.7047 14.4939C10.7701 14.6432 10.8914 14.9046 11.0687 15.2779C11.1901 15.5392 11.3161 15.8006 11.4467 16.0619C11.5774 16.3232 11.7127 16.5892 11.8527 16.8599V16.9999H9.61272L9.27672 16.2999L9.33273 16.2159L9.55673 16.2719C9.75273 16.3092 9.95806 16.3466 10.1727 16.3839C10.3874 16.4119 10.5554 16.4259 10.6767 16.4259L9.54273 13.8919H4.62872C4.56339 14.0319 4.50272 14.1672 4.44672 14.2979C4.39072 14.4286 4.33472 14.5546 4.27872 14.6759C3.92406 15.4879 3.68606 16.0712 3.56472 16.4259C3.67672 16.4259 3.83539 16.4119 4.04072 16.3839C4.25539 16.3466 4.46539 16.3092 4.67072 16.2719C4.70806 16.2626 4.74539 16.2532 4.78272 16.2439C4.82939 16.2346 4.87139 16.2252 4.90872 16.2159L4.96472 16.2999L4.62872 16.9999H2.51472V16.8459ZM9.26273 13.2199L7.33072 8.94987C7.33072 8.94054 7.32606 8.93121 7.31672 8.92188C7.31672 8.91254 7.31672 8.90321 7.31672 8.89388C7.23272 8.71655 7.16272 8.57655 7.10672 8.47388C7.06006 8.36188 7.01339 8.27321 6.96672 8.20788L4.89472 13.2199H9.26273ZM16.6594 19.9399C15.8661 19.9399 15.1754 19.8466 14.5874 19.6599C13.9994 19.4826 13.5468 19.2259 13.2294 18.8899C12.9121 18.5632 12.7534 18.1712 12.7534 17.7139C12.7534 17.2379 12.9448 16.8319 13.3274 16.4959C13.7194 16.1506 14.2654 15.9219 14.9654 15.8099C14.0414 15.7352 13.3181 15.5626 12.7954 15.2919C12.2821 15.0212 12.0254 14.6059 12.0254 14.0459C12.0254 13.8312 12.0768 13.6446 12.1794 13.4859C12.2914 13.3179 12.4314 13.1919 12.5994 13.1079C12.7674 13.0146 12.9354 12.9679 13.1034 12.9679C13.1781 12.9679 13.2528 12.9772 13.3274 12.9959C13.4021 13.0052 13.4721 13.0192 13.5374 13.0379C13.3601 12.7766 13.2714 12.4732 13.2714 12.1279C13.2714 11.4839 13.5468 10.9659 14.0974 10.5739C14.6481 10.1726 15.3994 9.94387 16.3514 9.88787V8.69788C16.2114 8.69788 15.8988 8.74921 15.4134 8.85188L15.2454 8.89388L15.2034 8.80988L15.4554 8.15188H16.4494C16.5521 8.15188 16.6641 8.15188 16.7854 8.15188C16.9068 8.14255 17.0094 8.1332 17.0934 8.12387L17.1074 8.24988C17.0608 8.84721 17.0374 9.38854 17.0374 9.87387C17.7094 9.8832 18.2928 9.98588 18.7874 10.1819C19.2821 10.3686 19.6648 10.6299 19.9354 10.9659C20.2061 11.2926 20.3414 11.6799 20.3414 12.1279C20.3414 12.5852 20.1921 12.9819 19.8934 13.3179C19.6041 13.6539 19.1888 13.9152 18.6474 14.1019C18.1154 14.2886 17.5041 14.3819 16.8134 14.3819C16.3654 14.3819 15.9828 14.3539 15.6654 14.2979C15.3574 14.2419 15.1101 14.1766 14.9234 14.1019C14.7368 14.0272 14.5361 13.9292 14.3214 13.8079C14.1161 13.7052 13.9434 13.6306 13.8034 13.5839C13.6728 13.5372 13.5048 13.5139 13.2994 13.5139C13.1221 13.5139 12.9774 13.5652 12.8654 13.6679C12.7534 13.7706 12.6974 13.8872 12.6974 14.0179C12.6974 14.3632 12.8468 14.6246 13.1454 14.8019C13.4441 14.9792 13.8174 15.1052 14.2654 15.1799C14.7134 15.2452 15.3341 15.3012 16.1274 15.3479C16.3234 15.3572 16.5194 15.3712 16.7154 15.3899C16.9208 15.4086 17.1261 15.4272 17.3314 15.4459C18.2928 15.5299 19.0768 15.7586 19.6834 16.1319C20.2901 16.5052 20.5934 17.0232 20.5934 17.6859C20.5934 18.1432 20.4301 18.5399 20.1034 18.8759C19.7861 19.2212 19.3288 19.4826 18.7314 19.6599C18.1434 19.8466 17.4528 19.9399 16.6594 19.9399ZM16.6734 19.2959C17.3174 19.2959 17.8774 19.2306 18.3534 19.0999C18.8388 18.9692 19.2121 18.7779 19.4734 18.5259C19.7348 18.2832 19.8654 18.0032 19.8654 17.6859C19.8654 17.3592 19.7348 17.0746 19.4734 16.8319C19.2121 16.5799 18.8388 16.3886 18.3534 16.2579C17.8774 16.1272 17.3174 16.0619 16.6734 16.0619C16.0294 16.0619 15.4648 16.1272 14.9794 16.2579C14.5034 16.3886 14.1348 16.5799 13.8734 16.8319C13.6121 17.0746 13.4814 17.3592 13.4814 17.6859C13.4814 18.0032 13.6121 18.2832 13.8734 18.5259C14.1348 18.7779 14.5034 18.9692 14.9794 19.0999C15.4648 19.2306 16.0294 19.2959 16.6734 19.2959ZM16.7994 13.7659C17.6674 13.7659 18.3488 13.6166 18.8434 13.3179C19.3474 13.0192 19.5994 12.6226 19.5994 12.1279C19.5994 11.6146 19.3474 11.2086 18.8434 10.9099C18.3488 10.6112 17.6674 10.4619 16.7994 10.4619C15.9314 10.4619 15.2454 10.6112 14.7414 10.9099C14.2468 11.2086 13.9994 11.6146 13.9994 12.1279C13.9994 12.6319 14.2468 13.0332 14.7414 13.3319C15.2454 13.6212 15.9314 13.7659 16.7994 13.7659Z" fill="#131313"/>
</svg>
