<svg width="24" height="24" viewBox="0 0 24 24" fill="none" xmlns="http://www.w3.org/2000/svg">
<path d="M6.37868 13.6962H8.56268L7.54068 10.0982L6.37868 13.6962ZM12.4547 16.3562C12.3427 16.5989 12.1513 16.7949 11.8807 16.9442C11.6193 17.0842 11.3067 17.1542 10.9427 17.1542C10.5787 17.1542 10.28 17.0655 10.0467 16.8882C9.81335 16.7015 9.60335 16.3749 9.41668 15.9082L9.08068 15.0402H5.90268L5.55268 16.0202C5.29135 16.7762 4.84801 17.1542 4.22268 17.1542C3.92401 17.1542 3.63935 17.0889 3.36868 16.9582C3.10735 16.8182 2.93468 16.6455 2.85068 16.4402C3.00935 16.3749 3.14001 16.2675 3.24268 16.1182C3.35468 15.9595 3.47601 15.7169 3.60668 15.3902L6.47668 7.98415C6.30868 7.62015 6.12668 7.36815 5.93068 7.22815C6.22001 6.78015 6.66801 6.55615 7.27468 6.55615C7.74135 6.55615 8.08201 6.68215 8.29668 6.93415C8.51135 7.18615 8.74001 7.63882 8.98268 8.29215L11.4887 15.0682C11.7313 15.7309 12.0533 16.1602 12.4547 16.3562ZM16.6993 14.2842C17.2033 14.2842 17.4553 13.7849 17.4553 12.7862C17.4553 12.6555 17.4506 12.5155 17.4413 12.3662C17.3666 11.0969 17.054 10.4622 16.5033 10.4622C15.99 10.4622 15.7333 10.9615 15.7333 11.9602C15.7333 12.0815 15.738 12.2169 15.7473 12.3662C15.822 13.6449 16.1393 14.2842 16.6993 14.2842ZM18.4353 18.0922H16.2093C15.4813 18.0922 14.856 17.9382 14.3333 17.6302C13.8106 17.3315 13.5493 16.8602 13.5493 16.2162C13.5493 15.5722 13.932 15.0589 14.6973 14.6762C13.8853 14.1442 13.4793 13.3742 13.4793 12.3662C13.4793 11.5075 13.7826 10.8215 14.3893 10.3082C14.996 9.78548 15.7333 9.52415 16.6013 9.52415C17.2826 9.52415 17.894 9.69215 18.4353 10.0282C18.4726 9.44015 18.622 8.98748 18.8833 8.67015C19.1446 8.34348 19.4573 8.18015 19.8213 8.18015C20.1853 8.18015 20.47 8.29215 20.6753 8.51615C20.8806 8.74015 20.9833 9.00148 20.9833 9.30015C20.9833 9.77615 20.834 10.1029 20.5353 10.2802C20.3206 10.1215 20.1106 10.0422 19.9053 10.0422C19.504 10.0422 19.2426 10.2382 19.1213 10.6302C19.5133 11.1155 19.7093 11.6942 19.7093 12.3662C19.7093 13.2249 19.406 13.9155 18.7993 14.4382C18.202 14.9609 17.4693 15.2222 16.6013 15.2222C16.2466 15.2222 15.9013 15.1709 15.5653 15.0682C15.3413 15.1615 15.2293 15.3155 15.2293 15.5302C15.2293 15.7355 15.3133 15.8755 15.4813 15.9502C15.6493 16.0155 15.9386 16.0482 16.3493 16.0482H18.2673C18.9673 16.0482 19.4806 16.2162 19.8073 16.5522C20.1433 16.8882 20.3113 17.3502 20.3113 17.9382C20.3113 18.7689 19.938 19.4455 19.1913 19.9682C18.454 20.4909 17.4786 20.7522 16.2653 20.7522C15.0613 20.7522 14.2073 20.5795 13.7033 20.2342C13.2086 19.8982 12.9613 19.5015 12.9613 19.0442C12.9613 18.6895 13.092 18.4095 13.3533 18.2042C13.624 17.9989 13.946 17.8962 14.3193 17.8962C14.3286 18.3629 14.506 18.6942 14.8513 18.8902C15.206 19.0862 15.7613 19.1842 16.5173 19.1842C17.2733 19.1842 17.8426 19.1095 18.2253 18.9602C18.608 18.8202 18.7993 18.6335 18.7993 18.4002C18.7993 18.1949 18.678 18.0922 18.4353 18.0922Z" fill="#131313"/>
</svg>
