<svg width="24" height="24" viewBox="0 0 24 24" fill="none" xmlns="http://www.w3.org/2000/svg">
<path d="M9.65129 13.2552L8.16029 9.35624C8.05296 9.09024 7.94562 8.75424 7.83829 8.34824C7.78696 8.54891 7.73329 8.73557 7.67729 8.90824C7.62596 9.08091 7.57462 9.23491 7.52329 9.37024L6.03929 13.2552H9.65129ZM12.5983 17.0002H11.4503C11.3196 17.0002 11.2123 16.9675 11.1283 16.9022C11.0443 16.8369 10.9836 16.7529 10.9463 16.6502L10.0573 14.3192H5.62629L4.73729 16.6502C4.70462 16.7389 4.64396 16.8205 4.55529 16.8952C4.46662 16.9652 4.35929 17.0002 4.23329 17.0002H3.08529L7.08929 6.94824H8.59429L12.5983 17.0002ZM16.0723 13.4512C16.3149 13.4512 16.5273 13.4185 16.7093 13.3532C16.8959 13.2879 17.0499 13.1969 17.1713 13.0802C17.2973 12.9589 17.3906 12.8142 17.4513 12.6462C17.5166 12.4782 17.5493 12.2939 17.5493 12.0932C17.5493 11.6825 17.4233 11.3559 17.1713 11.1132C16.9239 10.8659 16.5576 10.7422 16.0723 10.7422C15.5916 10.7422 15.2253 10.8659 14.9733 11.1132C14.7259 11.3559 14.6023 11.6825 14.6023 12.0932C14.6023 12.2939 14.6326 12.4782 14.6933 12.6462C14.7586 12.8095 14.8519 12.9519 14.9733 13.0732C15.0993 13.1899 15.2533 13.2832 15.4353 13.3532C15.6219 13.4185 15.8343 13.4512 16.0723 13.4512ZM18.2493 17.3712C18.2493 17.2032 18.2026 17.0702 18.1093 16.9722C18.0159 16.8695 17.8876 16.7902 17.7243 16.7342C17.5656 16.6735 17.3789 16.6315 17.1643 16.6082C16.9496 16.5802 16.7233 16.5592 16.4853 16.5452C16.2519 16.5312 16.0116 16.5195 15.7643 16.5102C15.5169 16.4962 15.2789 16.4729 15.0503 16.4402C14.8076 16.5615 14.6069 16.7085 14.4483 16.8812C14.2943 17.0539 14.2173 17.2569 14.2173 17.4902C14.2173 17.6395 14.2546 17.7795 14.3293 17.9102C14.4086 18.0409 14.5276 18.1529 14.6863 18.2462C14.8496 18.3442 15.0526 18.4189 15.2953 18.4702C15.5426 18.5262 15.8366 18.5542 16.1773 18.5542C16.5133 18.5542 16.8096 18.5239 17.0663 18.4632C17.3229 18.4072 17.5376 18.3255 17.7103 18.2182C17.8876 18.1155 18.0206 17.9919 18.1093 17.8472C18.2026 17.7025 18.2493 17.5439 18.2493 17.3712ZM19.6353 10.1542V10.6652C19.6353 10.8332 19.5303 10.9382 19.3203 10.9802L18.5573 11.0922C18.6226 11.2369 18.6739 11.3909 18.7113 11.5542C18.7486 11.7129 18.7673 11.8809 18.7673 12.0582C18.7673 12.4082 18.6996 12.7255 18.5643 13.0102C18.4289 13.2902 18.2423 13.5305 18.0043 13.7312C17.7663 13.9319 17.4816 14.0859 17.1503 14.1932C16.8236 14.3005 16.4643 14.3542 16.0723 14.3542C15.7503 14.3542 15.4493 14.3192 15.1693 14.2492C15.0293 14.3332 14.9219 14.4265 14.8473 14.5292C14.7773 14.6272 14.7423 14.7252 14.7423 14.8232C14.7423 14.9865 14.8099 15.1079 14.9453 15.1872C15.0853 15.2665 15.2649 15.3249 15.4843 15.3622C15.7083 15.3949 15.9626 15.4159 16.2473 15.4252C16.5366 15.4345 16.8283 15.4509 17.1223 15.4742C17.4209 15.4929 17.7126 15.5302 17.9973 15.5862C18.2866 15.6375 18.5409 15.7239 18.7603 15.8452C18.9843 15.9619 19.1639 16.1252 19.2993 16.3352C19.4393 16.5405 19.5093 16.8089 19.5093 17.1402C19.5093 17.4482 19.4323 17.7469 19.2783 18.0362C19.1289 18.3255 18.9096 18.5822 18.6203 18.8062C18.3309 19.0302 17.9786 19.2099 17.5633 19.3452C17.1479 19.4805 16.6766 19.5482 16.1493 19.5482C15.6219 19.5482 15.1623 19.4969 14.7703 19.3942C14.3829 19.2915 14.0586 19.1539 13.7973 18.9812C13.5406 18.8085 13.3469 18.6079 13.2163 18.3792C13.0903 18.1505 13.0273 17.9125 13.0273 17.6652C13.0273 17.3199 13.1346 17.0282 13.3493 16.7902C13.5639 16.5475 13.8603 16.3585 14.2383 16.2232C14.0329 16.1299 13.8696 16.0039 13.7483 15.8452C13.6269 15.6819 13.5663 15.4672 13.5663 15.2012C13.5663 15.0985 13.5849 14.9935 13.6223 14.8862C13.6596 14.7742 13.7156 14.6645 13.7903 14.5572C13.8696 14.4452 13.9653 14.3402 14.0773 14.2422C14.1939 14.1442 14.3269 14.0555 14.4763 13.9762C14.1263 13.7802 13.8509 13.5212 13.6503 13.1992C13.4496 12.8725 13.3493 12.4922 13.3493 12.0582C13.3493 11.7082 13.4169 11.3932 13.5523 11.1132C13.6876 10.8332 13.8743 10.5929 14.1123 10.3922C14.3549 10.1915 14.6419 10.0375 14.9733 9.93024C15.3093 9.82291 15.6756 9.76924 16.0723 9.76924C16.6883 9.76924 17.2179 9.89757 17.6613 10.1542H19.6353Z" fill="#131313"/>
</svg>
