<svg width="24" height="24" viewBox="0 0 24 24" fill="none" xmlns="http://www.w3.org/2000/svg">
<path d="M7.59132 6.75977H8.25632L11.5183 15.9998H10.9023L10.0133 13.5218H5.83432L4.93832 15.9998H4.31532L7.59132 6.75977ZM6.00232 12.9618H9.85232L7.93432 7.50177H7.91332L6.00232 12.9618ZM15.1753 19.0658C14.6853 19.0658 14.2676 19.0121 13.9223 18.9048C13.5769 18.7975 13.2899 18.6575 13.0613 18.4848C12.8373 18.3168 12.6669 18.1418 12.5503 17.9598L13.0403 17.5608C13.1149 17.6775 13.2269 17.8105 13.3763 17.9598C13.5256 18.1091 13.7403 18.2375 14.0203 18.3448C14.3049 18.4568 14.6876 18.5128 15.1683 18.5128C15.6443 18.5128 16.0433 18.4008 16.3653 18.1768C16.6919 17.9575 16.9369 17.6658 17.1003 17.3018C17.2636 16.9378 17.3453 16.5435 17.3453 16.1188V15.9018H17.9193V16.1678C17.9193 16.7931 17.7956 17.3205 17.5483 17.7498C17.3009 18.1838 16.9696 18.5105 16.5543 18.7298C16.1436 18.9538 15.6839 19.0658 15.1753 19.0658ZM17.3453 15.9998V14.7538C17.3173 14.8798 17.2099 15.0571 17.0233 15.2858C16.8366 15.5145 16.5776 15.7198 16.2463 15.9018C15.9149 16.0791 15.5206 16.1678 15.0633 16.1678C14.5499 16.1678 14.0739 16.0511 13.6353 15.8178C13.1966 15.5798 12.8419 15.2345 12.5713 14.7818C12.3053 14.3245 12.1723 13.7738 12.1723 13.1298C12.1723 12.4858 12.3053 11.9375 12.5713 11.4848C12.8419 11.0275 13.1966 10.6798 13.6353 10.4418C14.0739 10.2038 14.5499 10.0848 15.0633 10.0848C15.5159 10.0848 15.9079 10.1735 16.2393 10.3508C16.5753 10.5235 16.8389 10.7218 17.0303 10.9458C17.2216 11.1651 17.3266 11.3495 17.3453 11.4988V10.2528H17.9193V15.9998H17.3453ZM12.7603 13.1298C12.7603 13.6478 12.8723 14.0935 13.0963 14.4668C13.3203 14.8401 13.6096 15.1248 13.9643 15.3208C14.3189 15.5168 14.6899 15.6148 15.0773 15.6148C15.5066 15.6148 15.8893 15.5145 16.2253 15.3138C16.5613 15.1131 16.8273 14.8261 17.0233 14.4528C17.2193 14.0795 17.3173 13.6385 17.3173 13.1298C17.3173 12.6211 17.2193 12.1801 17.0233 11.8068C16.8273 11.4335 16.5613 11.1465 16.2253 10.9458C15.8893 10.7405 15.5066 10.6378 15.0773 10.6378C14.6899 10.6378 14.3189 10.7381 13.9643 10.9388C13.6096 11.1348 13.3203 11.4195 13.0963 11.7928C12.8723 12.1661 12.7603 12.6118 12.7603 13.1298Z" fill="#131313"/>
</svg>
