<svg width="24" height="24" viewBox="0 0 24 24" fill="none" xmlns="http://www.w3.org/2000/svg">
<path d="M0.494514 17.0002L5.26852 7.2002H6.64052L11.3725 17.0002H10.1545L6.66852 9.8042C6.54718 9.5242 6.44452 9.3002 6.36052 9.1322C6.28585 8.9642 6.21585 8.81953 6.15052 8.6982C6.08518 8.57687 6.01985 8.44153 5.95452 8.2922C5.89852 8.14287 5.83318 7.95153 5.75852 7.7182L6.08052 7.7042C5.97785 7.97487 5.88918 8.1942 5.81452 8.3622C5.74918 8.52087 5.68385 8.6702 5.61852 8.8102C5.55318 8.94087 5.47852 9.08553 5.39452 9.2442C5.31985 9.40287 5.22185 9.61286 5.10052 9.8742L1.64252 17.0002H0.494514ZM2.46852 14.4382L2.91652 13.3742H8.90852L9.10452 14.4382H2.46852ZM17.9256 20.2202C17.1043 20.2202 16.4043 20.1269 15.8256 19.9402C15.2469 19.7535 14.7709 19.5529 14.3976 19.3382L14.7896 18.3862C15.0136 18.5075 15.2749 18.6335 15.5736 18.7642C15.8723 18.8949 16.2176 19.0069 16.6096 19.1002C17.0109 19.1935 17.4543 19.2402 17.9396 19.2402C18.5276 19.2402 19.0503 19.1282 19.5076 18.9042C19.9649 18.6802 20.3196 18.3349 20.5716 17.8682C20.8329 17.4109 20.9636 16.8275 20.9636 16.1182V15.1382L21.1456 15.1102C21.0056 15.4929 20.7396 15.8382 20.3476 16.1462C19.9556 16.4449 19.4796 16.6829 18.9196 16.8602C18.3689 17.0282 17.7623 17.1122 17.0996 17.1122C16.2783 17.1122 15.5503 16.9535 14.9156 16.6362C14.2903 16.3095 13.8003 15.8615 13.4456 15.2922C13.0909 14.7135 12.9136 14.0555 12.9136 13.3182C12.9136 12.5809 13.1003 11.9275 13.4736 11.3582C13.8563 10.7795 14.3743 10.3269 15.0276 10.0002C15.6903 9.67353 16.4416 9.5102 17.2816 9.5102C17.5616 9.5102 17.8649 9.5382 18.1916 9.5942C18.5276 9.6502 18.8589 9.7342 19.1856 9.8462C19.5123 9.9582 19.8203 10.0982 20.1096 10.2662C20.3989 10.4342 20.6416 10.6302 20.8376 10.8542C21.0429 11.0689 21.1783 11.3115 21.2436 11.5822L20.9216 11.5542L20.9636 9.6922H22.0136V15.9922C22.0136 16.7389 21.8969 17.3782 21.6636 17.9102C21.4396 18.4422 21.1316 18.8762 20.7396 19.2122C20.3569 19.5575 19.9183 19.8095 19.4236 19.9682C18.9383 20.1362 18.4389 20.2202 17.9256 20.2202ZM17.5056 16.1182C18.2056 16.1182 18.8169 15.9969 19.3396 15.7542C19.8623 15.5022 20.2683 15.1709 20.5576 14.7602C20.8469 14.3402 20.9916 13.8642 20.9916 13.3322C20.9916 12.7722 20.8423 12.2822 20.5436 11.8622C20.2543 11.4422 19.8483 11.1109 19.3256 10.8682C18.8123 10.6255 18.2103 10.5042 17.5196 10.5042C16.8476 10.5042 16.2456 10.6255 15.7136 10.8682C15.1909 11.1109 14.7756 11.4422 14.4676 11.8622C14.1596 12.2822 14.0056 12.7675 14.0056 13.3182C14.0056 13.8502 14.1549 14.3262 14.4536 14.7462C14.7523 15.1662 15.1676 15.5022 15.6996 15.7542C16.2316 15.9969 16.8336 16.1182 17.5056 16.1182Z" fill="#131313"/>
</svg>
