<svg width="24" height="24" viewBox="0 0 24 24" fill="none" xmlns="http://www.w3.org/2000/svg">
<path d="M1.90704 17.0002L6.06504 7.2002H7.35304L11.483 17.0002H10.279L7.45104 10.3082C7.36704 10.0842 7.28304 9.86952 7.19904 9.6642C7.12437 9.44953 7.04504 9.2442 6.96104 9.0482C6.88637 8.84287 6.81171 8.63753 6.73704 8.4322C6.66237 8.22687 6.58771 8.02153 6.51304 7.8162H6.82104C6.73704 8.05887 6.65771 8.28753 6.58304 8.5022C6.50837 8.70753 6.42904 8.9082 6.34504 9.1042C6.27037 9.3002 6.19104 9.50087 6.10704 9.7062C6.02304 9.91153 5.93437 10.1355 5.84104 10.3782L3.02704 17.0002H1.90704ZM3.64304 14.3542L4.07704 13.2902H9.24304L9.60704 14.3542H3.64304ZM17.2969 20.2202C16.6435 20.2202 16.0555 20.1315 15.5329 19.9542C15.0195 19.7862 14.5902 19.5809 14.2449 19.3382L14.6649 18.4282C14.8609 18.5682 15.0942 18.6989 15.3649 18.8202C15.6355 18.9415 15.9342 19.0395 16.2609 19.1142C16.5969 19.1982 16.9515 19.2402 17.3249 19.2402C17.8755 19.2402 18.3562 19.1329 18.7669 18.9182C19.1775 18.7129 19.4949 18.4002 19.7189 17.9802C19.9429 17.5602 20.0549 17.0329 20.0549 16.3982V15.1802L20.2369 15.1382C20.1249 15.5022 19.9055 15.8382 19.5789 16.1462C19.2615 16.4449 18.8695 16.6829 18.4029 16.8602C17.9362 17.0375 17.4369 17.1262 16.9049 17.1262C16.1675 17.1262 15.5142 16.9629 14.9449 16.6362C14.3755 16.3095 13.9229 15.8615 13.5869 15.2922C13.2602 14.7135 13.0969 14.0602 13.0969 13.3322C13.0969 12.5949 13.2649 11.9415 13.6009 11.3722C13.9462 10.8029 14.4082 10.3549 14.9869 10.0282C15.5655 9.6922 16.2235 9.5242 16.9609 9.5242C17.2502 9.5242 17.5395 9.55687 17.8289 9.6222C18.1275 9.68753 18.4122 9.78087 18.6829 9.9022C18.9535 10.0235 19.2009 10.1682 19.4249 10.3362C19.6489 10.5042 19.8402 10.6955 19.9989 10.9102C20.1575 11.1155 20.2649 11.3302 20.3209 11.5542L20.0269 11.5122L20.0549 9.6922H21.1189V16.3282C21.1189 16.9815 21.0209 17.5462 20.8249 18.0222C20.6289 18.5075 20.3582 18.9135 20.0129 19.2402C19.6675 19.5669 19.2615 19.8095 18.7949 19.9682C18.3282 20.1362 17.8289 20.2202 17.2969 20.2202ZM17.1429 16.1322C17.7215 16.1322 18.2302 16.0109 18.6689 15.7682C19.1169 15.5255 19.4669 15.1942 19.7189 14.7742C19.9709 14.3542 20.0969 13.8735 20.0969 13.3322C20.0875 12.7815 19.9569 12.2962 19.7049 11.8762C19.4529 11.4469 19.1029 11.1155 18.6549 10.8822C18.2162 10.6395 17.7122 10.5182 17.1429 10.5182C16.5735 10.5182 16.0649 10.6395 15.6169 10.8822C15.1782 11.1249 14.8282 11.4609 14.5669 11.8902C14.3149 12.3102 14.1889 12.7862 14.1889 13.3182C14.1889 13.8595 14.3149 14.3449 14.5669 14.7742C14.8189 15.1942 15.1642 15.5255 15.6029 15.7682C16.0509 16.0109 16.5642 16.1322 17.1429 16.1322Z" fill="#131313"/>
</svg>
