<svg width="24" height="24" viewBox="0 0 24 24" fill="none" xmlns="http://www.w3.org/2000/svg">
<path d="M2.80605 17.0002L6.55805 7.2002H7.80406L11.5281 17.0002H10.3381L7.94405 10.6442C7.87872 10.4669 7.80405 10.2615 7.72005 10.0282C7.64539 9.78553 7.56139 9.5382 7.46805 9.2862C7.38405 9.02487 7.30005 8.77287 7.21605 8.5302C7.14139 8.28753 7.07139 8.07287 7.00605 7.8862H7.28606C7.21139 8.11953 7.13205 8.35753 7.04805 8.6002C6.97339 8.83353 6.89405 9.07153 6.81005 9.3142C6.72605 9.54753 6.64205 9.78087 6.55805 10.0142C6.47405 10.2475 6.39005 10.4809 6.30605 10.7142L3.92605 17.0002H2.80605ZM4.40205 14.2982L4.80805 13.2342H9.44205L9.89005 14.2982H4.40205ZM15.9113 20.2202C15.3699 20.2202 14.8566 20.1362 14.3713 19.9682C13.8859 19.8002 13.4846 19.5902 13.1673 19.3382L13.5873 18.4562C13.7739 18.6055 13.9886 18.7362 14.2313 18.8482C14.4833 18.9695 14.7539 19.0629 15.0433 19.1282C15.3326 19.2029 15.6266 19.2402 15.9253 19.2402C16.4666 19.2402 16.9239 19.1375 17.2973 18.9322C17.6799 18.7362 17.9693 18.4422 18.1653 18.0502C18.3706 17.6582 18.4733 17.1729 18.4733 16.5942V15.1942L18.6413 15.1522C18.5573 15.5069 18.3753 15.8382 18.0953 16.1462C17.8153 16.4449 17.4746 16.6875 17.0733 16.8742C16.6719 17.0515 16.2473 17.1402 15.7993 17.1402C15.1179 17.1402 14.5066 16.9769 13.9653 16.6502C13.4333 16.3235 13.0133 15.8755 12.7053 15.3062C12.3973 14.7275 12.2433 14.0742 12.2433 13.3462C12.2433 12.6089 12.3973 11.9555 12.7053 11.3862C13.0226 10.8075 13.4473 10.3549 13.9793 10.0282C14.5113 9.70153 15.1086 9.5382 15.7713 9.5382C16.0606 9.5382 16.3406 9.57553 16.6113 9.6502C16.8819 9.71553 17.1293 9.81353 17.3533 9.9442C17.5866 10.0749 17.7966 10.2242 17.9833 10.3922C18.1699 10.5602 18.3239 10.7422 18.4453 10.9382C18.5759 11.1342 18.6693 11.3349 18.7253 11.5402L18.4313 11.4982L18.4733 9.6922H19.5233V16.5522C19.5233 17.1402 19.4393 17.6582 19.2713 18.1062C19.1033 18.5635 18.8559 18.9462 18.5293 19.2542C18.2119 19.5715 17.8293 19.8095 17.3813 19.9682C16.9426 20.1362 16.4526 20.2202 15.9113 20.2202ZM15.9253 16.1322C16.4199 16.1322 16.8586 16.0155 17.2413 15.7822C17.6333 15.5395 17.9413 15.2082 18.1653 14.7882C18.3893 14.3682 18.5013 13.8829 18.5013 13.3322C18.5013 12.7909 18.3893 12.3102 18.1653 11.8902C17.9506 11.4702 17.6473 11.1389 17.2553 10.8962C16.8633 10.6535 16.4199 10.5322 15.9253 10.5322C15.4213 10.5322 14.9733 10.6535 14.5813 10.8962C14.1986 11.1389 13.8953 11.4702 13.6713 11.8902C13.4473 12.3102 13.3353 12.7909 13.3353 13.3322C13.3353 13.8642 13.4426 14.3449 13.6573 14.7742C13.8813 15.1942 14.1846 15.5255 14.5673 15.7682C14.9593 16.0109 15.4119 16.1322 15.9253 16.1322Z" fill="#131313"/>
</svg>
