<svg width="24" height="24" viewBox="0 0 24 24" fill="none" xmlns="http://www.w3.org/2000/svg">
<path d="M0.430359 17.0002L5.24636 7.2002H7.17836L11.9664 17.0002H10.0204L6.87036 10.5882C6.77703 10.4015 6.68836 10.2242 6.60436 10.0562C6.52036 9.87887 6.44103 9.7062 6.36636 9.5382C6.29169 9.36087 6.21703 9.18353 6.14236 9.0062C6.06769 8.81953 5.99769 8.62353 5.93236 8.4182L6.40836 8.4042C6.33369 8.61887 6.25903 8.8242 6.18436 9.0202C6.10969 9.20687 6.03036 9.38887 5.94636 9.5662C5.86236 9.74353 5.77836 9.92087 5.69436 10.0982C5.61036 10.2662 5.52636 10.4435 5.44236 10.6302L2.30636 17.0002H0.430359ZM2.57236 14.9002L3.24436 13.3182H9.06836L9.33436 14.9002H2.57236ZM18.6369 20.2202C17.7596 20.2202 17.0036 20.1269 16.3689 19.9402C15.7436 19.7629 15.2396 19.5529 14.8569 19.3102L15.4449 17.9522C15.6596 18.0455 15.9116 18.1529 16.2009 18.2742C16.4996 18.3955 16.8403 18.4982 17.2229 18.5822C17.6149 18.6755 18.0536 18.7222 18.5389 18.7222C19.0709 18.7222 19.5376 18.6195 19.9389 18.4142C20.3403 18.2089 20.6529 17.9055 20.8769 17.5042C21.1103 17.1122 21.2269 16.6315 21.2269 16.0622V15.2642L21.4789 15.3622C21.4136 15.6235 21.1943 15.8895 20.8209 16.1602C20.4569 16.4215 19.9949 16.6409 19.4349 16.8182C18.8749 16.9862 18.2729 17.0702 17.6289 17.0702C16.7889 17.0702 16.0516 16.9115 15.4169 16.5942C14.7916 16.2675 14.3016 15.8195 13.9469 15.2502C13.5923 14.6809 13.4149 14.0275 13.4149 13.2902C13.4149 12.5435 13.6016 11.8855 13.9749 11.3162C14.3576 10.7375 14.8803 10.2849 15.5429 9.9582C16.2149 9.63153 16.9849 9.4682 17.8529 9.4682C18.0676 9.4682 18.3336 9.4962 18.6509 9.5522C18.9683 9.59887 19.2949 9.67353 19.6309 9.7762C19.9669 9.87887 20.2843 10.0049 20.5829 10.1542C20.8909 10.2942 21.1383 10.4529 21.3249 10.6302C21.5116 10.8075 21.6049 11.0035 21.6049 11.2182L21.2409 11.3302L21.2689 9.6222H22.9629V15.9362C22.9629 16.6642 22.8416 17.2942 22.5989 17.8262C22.3563 18.3675 22.0296 18.8155 21.6189 19.1702C21.2083 19.5249 20.7463 19.7862 20.2329 19.9542C19.7196 20.1315 19.1876 20.2202 18.6369 20.2202ZM18.3149 15.6002C18.9123 15.6002 19.4303 15.5022 19.8689 15.3062C20.3169 15.1102 20.6623 14.8395 20.9049 14.4942C21.1569 14.1395 21.2829 13.7429 21.2829 13.3042C21.2829 12.8469 21.1569 12.4455 20.9049 12.1002C20.6623 11.7549 20.3169 11.4842 19.8689 11.2882C19.4303 11.0829 18.9123 10.9802 18.3149 10.9802C17.6989 10.9802 17.1529 11.0829 16.6769 11.2882C16.2009 11.4842 15.8276 11.7595 15.5569 12.1142C15.2863 12.4595 15.1509 12.8562 15.1509 13.3042C15.1509 13.7335 15.2863 14.1255 15.5569 14.4802C15.8276 14.8255 16.2009 15.1009 16.6769 15.3062C17.1529 15.5022 17.6989 15.6002 18.3149 15.6002Z" fill="#131313"/>
</svg>
