<svg width="24" height="24" viewBox="0 0 24 24" fill="none" xmlns="http://www.w3.org/2000/svg">
<path d="M2.04441 17.0002L6.23041 7.2002H7.86841L12.0264 17.0002H10.3884L7.72841 10.7562C7.68174 10.6442 7.61641 10.4809 7.53241 10.2662C7.45774 10.0422 7.37374 9.8042 7.28041 9.5522C7.18707 9.3002 7.09841 9.0622 7.01441 8.8382C6.93041 8.60487 6.86507 8.42287 6.81841 8.2922L7.19641 8.2782C7.13107 8.46487 7.05641 8.6702 6.97241 8.8942C6.89774 9.1182 6.81374 9.34687 6.72041 9.5802C6.63641 9.81353 6.55241 10.0375 6.46841 10.2522C6.38441 10.4575 6.30974 10.6442 6.24441 10.8122L3.59841 17.0002H2.04441ZM3.87841 14.6202L4.46641 13.1642H9.45041L9.94041 14.6202H3.87841ZM17.999 20.2202C17.3457 20.2202 16.7437 20.1362 16.193 19.9682C15.6424 19.8002 15.199 19.5902 14.863 19.3382L15.381 18.1902C15.577 18.3115 15.8104 18.4282 16.081 18.5402C16.3517 18.6522 16.6504 18.7455 16.977 18.8202C17.3037 18.8949 17.6444 18.9322 17.999 18.9322C18.5217 18.9322 18.9697 18.8389 19.343 18.6522C19.7164 18.4655 20.0057 18.1902 20.211 17.8262C20.4164 17.4622 20.519 17.0189 20.519 16.4962V15.3062L20.673 15.4042C20.617 15.6842 20.435 15.9595 20.127 16.2302C19.8284 16.4915 19.4504 16.7109 18.993 16.8882C18.545 17.0562 18.0737 17.1402 17.579 17.1402C16.823 17.1402 16.151 16.9769 15.563 16.6502C14.9844 16.3142 14.527 15.8615 14.191 15.2922C13.855 14.7135 13.687 14.0555 13.687 13.3182C13.687 12.5809 13.855 11.9275 14.191 11.3582C14.5364 10.7795 15.0077 10.3269 15.605 10.0002C16.2024 9.6642 16.8837 9.4962 17.649 9.4962C17.901 9.4962 18.167 9.52887 18.447 9.5942C18.7364 9.65953 19.0164 9.75287 19.287 9.8742C19.5577 9.9862 19.805 10.1169 20.029 10.2662C20.253 10.4155 20.435 10.5789 20.575 10.7562C20.7244 10.9242 20.8084 11.0922 20.827 11.2602L20.519 11.3722V9.6502H21.961V16.3282C21.961 16.9722 21.8584 17.5322 21.653 18.0082C21.457 18.4935 21.1817 18.8995 20.827 19.2262C20.4724 19.5529 20.0524 19.8002 19.567 19.9682C19.0817 20.1362 18.559 20.2202 17.999 20.2202ZM17.901 15.8102C18.4237 15.8102 18.8857 15.7029 19.287 15.4882C19.6977 15.2735 20.015 14.9795 20.239 14.6062C20.463 14.2329 20.575 13.8035 20.575 13.3182C20.575 12.8329 20.4584 12.4035 20.225 12.0302C20.001 11.6475 19.6884 11.3489 19.287 11.1342C18.8857 10.9195 18.4237 10.8122 17.901 10.8122C17.369 10.8122 16.8977 10.9242 16.487 11.1482C16.0764 11.3629 15.7497 11.6615 15.507 12.0442C15.2737 12.4175 15.157 12.8422 15.157 13.3182C15.157 13.7942 15.2737 14.2235 15.507 14.6062C15.7497 14.9795 16.0764 15.2735 16.487 15.4882C16.8977 15.7029 17.369 15.8102 17.901 15.8102Z" fill="#131313"/>
</svg>
