<svg width="24" height="24" viewBox="0 0 24 24" fill="none" xmlns="http://www.w3.org/2000/svg">
<path d="M2.92702 17.0002L7.26702 7.2002H7.71502L12.083 17.0002H11.719L8.37302 9.4682C8.31702 9.37487 8.25168 9.24887 8.17702 9.0902C8.11168 8.9222 8.03702 8.7402 7.95302 8.5442C7.86902 8.3482 7.78035 8.14753 7.68702 7.9422C7.60302 7.73687 7.51902 7.54087 7.43502 7.3542L7.51902 7.3682C7.45368 7.51753 7.37902 7.6902 7.29502 7.8862C7.22035 8.07287 7.13635 8.26887 7.04302 8.4742C6.95902 8.67953 6.87968 8.87087 6.80502 9.0482C6.73035 9.2162 6.66502 9.36087 6.60902 9.4822L3.27702 17.0002H2.92702ZM4.49502 13.8502L4.62102 13.5422H10.403L10.529 13.8502H4.49502ZM17.2998 20.3602C16.6838 20.3602 16.1191 20.2622 15.6058 20.0662C15.1018 19.8702 14.6864 19.6182 14.3598 19.3102L14.4998 19.0302C14.7238 19.2262 14.9758 19.3989 15.2558 19.5482C15.5358 19.7069 15.8438 19.8282 16.1798 19.9122C16.5251 20.0055 16.8938 20.0522 17.2858 20.0522C17.8551 20.0522 18.3918 19.9169 18.8958 19.6462C19.4091 19.3755 19.8244 18.9695 20.1418 18.4282C20.4591 17.8962 20.6178 17.2289 20.6178 16.4262V14.5082L20.7718 14.4942C20.5664 15.0542 20.2771 15.5302 19.9038 15.9222C19.5398 16.3142 19.1151 16.6082 18.6298 16.8042C18.1444 17.0002 17.6031 17.0982 17.0058 17.0982C16.2498 17.0982 15.5731 16.9395 14.9758 16.6222C14.3784 16.3049 13.9118 15.8662 13.5758 15.3062C13.2398 14.7369 13.0718 14.0882 13.0718 13.3602C13.0718 12.6229 13.2444 11.9649 13.5898 11.3862C13.9444 10.8075 14.4158 10.3549 15.0038 10.0282C15.5918 9.70153 16.2498 9.5382 16.9778 9.5382C17.3324 9.5382 17.6731 9.57553 17.9998 9.6502C18.3264 9.72487 18.6298 9.83687 18.9098 9.9862C19.1991 10.1262 19.4604 10.3035 19.6938 10.5182C19.9364 10.7235 20.1464 10.9662 20.3238 11.2462C20.5011 11.5262 20.6411 11.8342 20.7438 12.1702L20.6178 12.1422L20.6458 9.6502H20.9258V16.3982C20.9258 17.0702 20.8278 17.6582 20.6318 18.1622C20.4358 18.6662 20.1651 19.0769 19.8198 19.3942C19.4838 19.7209 19.0964 19.9635 18.6578 20.1222C18.2191 20.2809 17.7664 20.3602 17.2998 20.3602ZM17.0058 16.7902C17.7151 16.7902 18.3404 16.6455 18.8818 16.3562C19.4324 16.0575 19.8571 15.6469 20.1558 15.1242C20.4638 14.6015 20.6178 14.0135 20.6178 13.3602C20.6084 12.6695 20.4498 12.0629 20.1418 11.5402C19.8431 11.0082 19.4184 10.5929 18.8678 10.2942C18.3171 9.99553 17.6918 9.8462 16.9918 9.8462C16.3104 9.8462 15.6944 9.99553 15.1438 10.2942C14.6024 10.5929 14.1731 11.0082 13.8558 11.5402C13.5478 12.0629 13.3891 12.6695 13.3798 13.3602C13.3798 14.0229 13.5338 14.6155 13.8418 15.1382C14.1591 15.6515 14.5884 16.0575 15.1298 16.3562C15.6804 16.6455 16.3058 16.7902 17.0058 16.7902Z" fill="#131313"/>
</svg>
