<svg width="24" height="24" viewBox="0 0 24 24" fill="none" xmlns="http://www.w3.org/2000/svg">
<path d="M1.80362 17.0002L6.17162 7.2002H8.00562L12.3596 17.0002H10.4416L7.75362 10.9522C7.67895 10.8029 7.59962 10.6255 7.51562 10.4202C7.44095 10.2149 7.36162 10.0049 7.27762 9.7902C7.19362 9.5662 7.11428 9.35153 7.03962 9.1462C6.96495 8.93153 6.89962 8.7402 6.84362 8.5722L7.26362 8.5582C7.19828 8.7542 7.12828 8.95953 7.05362 9.1742C6.97895 9.37953 6.89962 9.58953 6.81562 9.8042C6.73162 10.0189 6.64762 10.2242 6.56362 10.4202C6.47962 10.6162 6.40028 10.8075 6.32562 10.9942L3.65162 17.0002H1.80362ZM3.76362 14.8442L4.40762 13.2622H9.64362L10.0916 14.8442H3.76362ZM17.8692 20.2202C17.1225 20.2202 16.4505 20.1315 15.8532 19.9542C15.2652 19.7769 14.7892 19.5622 14.4252 19.3102L15.0272 17.9942C15.2325 18.1062 15.4705 18.2182 15.7412 18.3302C16.0212 18.4422 16.3292 18.5355 16.6652 18.6102C17.0012 18.6849 17.3652 18.7222 17.7572 18.7222C18.2705 18.7222 18.7092 18.6289 19.0732 18.4422C19.4465 18.2555 19.7312 17.9849 19.9272 17.6302C20.1325 17.2755 20.2352 16.8369 20.2352 16.3142V15.2642L20.4872 15.3622C20.4312 15.6329 20.2445 15.9035 19.9272 16.1742C19.6098 16.4355 19.2085 16.6502 18.7232 16.8182C18.2472 16.9862 17.7385 17.0702 17.1972 17.0702C16.4318 17.0702 15.7505 16.9115 15.1532 16.5942C14.5558 16.2675 14.0892 15.8195 13.7532 15.2502C13.4172 14.6809 13.2492 14.0275 13.2492 13.2902C13.2492 12.5435 13.4218 11.8855 13.7672 11.3162C14.1218 10.7375 14.6025 10.2849 15.2092 9.9582C15.8158 9.63153 16.5112 9.4682 17.2952 9.4682C17.5378 9.4682 17.8038 9.4962 18.0932 9.5522C18.3918 9.6082 18.6858 9.6922 18.9752 9.8042C19.2645 9.9162 19.5305 10.0469 19.7732 10.1962C20.0158 10.3455 20.2118 10.5089 20.3612 10.6862C20.5198 10.8542 20.6038 11.0315 20.6132 11.2182L20.2492 11.3302L20.2772 9.6222H21.9712V16.1882C21.9712 16.8509 21.8638 17.4342 21.6492 17.9382C21.4438 18.4422 21.1498 18.8622 20.7672 19.1982C20.3938 19.5435 19.9552 19.8002 19.4512 19.9682C18.9565 20.1362 18.4292 20.2202 17.8692 20.2202ZM17.7012 15.6002C18.2145 15.6002 18.6672 15.5022 19.0592 15.3062C19.4512 15.1102 19.7545 14.8395 19.9692 14.4942C20.1838 14.1395 20.2912 13.7429 20.2912 13.3042C20.2912 12.8469 20.1838 12.4455 19.9692 12.1002C19.7545 11.7549 19.4512 11.4842 19.0592 11.2882C18.6672 11.0829 18.2145 10.9802 17.7012 10.9802C17.1692 10.9802 16.6978 11.0829 16.2872 11.2882C15.8858 11.4842 15.5685 11.7595 15.3352 12.1142C15.1018 12.4595 14.9852 12.8562 14.9852 13.3042C14.9852 13.7335 15.1018 14.1255 15.3352 14.4802C15.5685 14.8255 15.8858 15.1009 16.2872 15.3062C16.6978 15.5022 17.1692 15.6002 17.7012 15.6002Z" fill="#131313"/>
</svg>
