<svg width="24" height="24" viewBox="0 0 24 24" fill="none" xmlns="http://www.w3.org/2000/svg">
<path d="M1.73121 17.0002L5.95921 7.2002H7.93321L12.1472 17.0002H9.96321L7.56921 11.3862C7.49454 11.2182 7.41521 11.0269 7.33121 10.8122C7.25654 10.5975 7.17721 10.3782 7.09321 10.1542C7.01854 9.9302 6.94388 9.71087 6.86921 9.4962C6.80388 9.28153 6.74321 9.0902 6.68721 8.9222L7.12121 8.9082C7.06521 9.12287 6.99988 9.33753 6.92521 9.5522C6.85988 9.75753 6.78521 9.96753 6.70121 10.1822C6.62654 10.3969 6.54721 10.6069 6.46321 10.8122C6.37921 11.0175 6.29521 11.2229 6.21121 11.4282L3.81721 17.0002H1.73121ZM3.66321 14.9982L4.37721 13.3042H9.40321L9.94921 14.9982H3.66321ZM17.9532 20.2202C17.2438 20.2202 16.5858 20.1315 15.9792 19.9542C15.3725 19.7769 14.8825 19.5575 14.5092 19.2962L15.1952 17.8402C15.4005 17.9522 15.6338 18.0595 15.8952 18.1622C16.1565 18.2742 16.4412 18.3629 16.7492 18.4282C17.0665 18.5029 17.4025 18.5402 17.7572 18.5402C18.2518 18.5402 18.6718 18.4562 19.0172 18.2882C19.3625 18.1202 19.6285 17.8682 19.8152 17.5322C20.0018 17.2055 20.0952 16.7949 20.0952 16.3002V15.2362L20.4312 15.3062C20.3658 15.6049 20.1792 15.8849 19.8712 16.1462C19.5725 16.3982 19.1992 16.6035 18.7512 16.7622C18.3032 16.9209 17.8272 17.0002 17.3232 17.0002C16.5858 17.0002 15.9325 16.8415 15.3632 16.5242C14.7938 16.2069 14.3458 15.7682 14.0192 15.2082C13.6925 14.6482 13.5292 14.0042 13.5292 13.2762C13.5292 12.5295 13.6925 11.8715 14.0192 11.3022C14.3552 10.7235 14.8125 10.2709 15.3912 9.9442C15.9698 9.6082 16.6325 9.4402 17.3792 9.4402C17.6312 9.4402 17.8972 9.47287 18.1772 9.5382C18.4665 9.5942 18.7418 9.6782 19.0032 9.7902C19.2738 9.89287 19.5165 10.0189 19.7312 10.1682C19.9552 10.3082 20.1372 10.4669 20.2772 10.6442C20.4265 10.8122 20.5105 10.9895 20.5292 11.1762L20.1232 11.2882L20.1792 9.5942H22.0832V16.2162C22.0832 16.8789 21.9758 17.4575 21.7612 17.9522C21.5558 18.4469 21.2665 18.8622 20.8932 19.1982C20.5292 19.5342 20.0952 19.7862 19.5912 19.9542C19.0872 20.1315 18.5412 20.2202 17.9532 20.2202ZM17.8692 15.4042C18.3265 15.4042 18.7278 15.3155 19.0732 15.1382C19.4185 14.9609 19.6845 14.7135 19.8712 14.3962C20.0578 14.0789 20.1512 13.7055 20.1512 13.2762C20.1512 12.8562 20.0532 12.4875 19.8572 12.1702C19.6705 11.8435 19.4045 11.5915 19.0592 11.4142C18.7232 11.2369 18.3265 11.1482 17.8692 11.1482C17.3932 11.1482 16.9778 11.2415 16.6232 11.4282C16.2778 11.6055 16.0025 11.8529 15.7972 12.1702C15.6012 12.4875 15.5032 12.8562 15.5032 13.2762C15.5032 13.6962 15.6012 14.0695 15.7972 14.3962C16.0025 14.7135 16.2778 14.9609 16.6232 15.1382C16.9778 15.3155 17.3932 15.4042 17.8692 15.4042Z" fill="#131313"/>
</svg>
