<svg width="24" height="24" viewBox="0 0 24 24" fill="none" xmlns="http://www.w3.org/2000/svg">
<path d="M2.11162 17.0002L6.56362 7.2002H7.57162L11.9956 17.0002H11.1976L7.85162 9.6222C7.71162 9.27687 7.59962 9.01087 7.51562 8.8242C7.43162 8.6282 7.36162 8.4742 7.30562 8.3622C7.24962 8.2502 7.19362 8.1242 7.13762 7.9842C7.09095 7.8442 7.02562 7.64353 6.94162 7.3822L7.15162 7.3682C7.03962 7.6762 6.95095 7.9142 6.88562 8.0822C6.82962 8.24087 6.76895 8.38553 6.70362 8.5162C6.64762 8.63753 6.57762 8.78687 6.49362 8.9642C6.41895 9.1322 6.31162 9.37953 6.17162 9.7062L2.83962 17.0002H2.11162ZM3.87562 14.1302L4.16962 13.4442H9.96562L10.1476 14.1302H3.87562ZM17.8008 20.2202C17.0728 20.2202 16.4428 20.1269 15.9108 19.9402C15.3881 19.7535 14.9448 19.5482 14.5808 19.3242L14.8888 18.6382C15.1035 18.7875 15.3555 18.9275 15.6448 19.0582C15.9341 19.1982 16.2608 19.3102 16.6248 19.3942C16.9888 19.4782 17.3901 19.5202 17.8288 19.5202C18.4355 19.5202 18.9721 19.4035 19.4388 19.1702C19.9148 18.9462 20.2835 18.5869 20.5448 18.0922C20.8061 17.5975 20.9368 16.9629 20.9368 16.1882V15.0262L21.1468 14.8582C20.9601 15.3342 20.6755 15.7402 20.2928 16.0762C19.9195 16.4122 19.4715 16.6689 18.9488 16.8462C18.4261 17.0142 17.8521 17.0982 17.2268 17.0982C16.4708 17.0982 15.7941 16.9395 15.1968 16.6222C14.5995 16.2955 14.1328 15.8475 13.7968 15.2782C13.4608 14.7089 13.2928 14.0602 13.2928 13.3322C13.2928 12.5949 13.4701 11.9415 13.8248 11.3722C14.1888 10.8029 14.6741 10.3549 15.2808 10.0282C15.8875 9.6922 16.5688 9.5242 17.3248 9.5242C17.6608 9.5242 17.9875 9.55687 18.3048 9.6222C18.6221 9.68753 18.9301 9.78087 19.2288 9.9022C19.5275 10.0235 19.8028 10.1775 20.0548 10.3642C20.3068 10.5509 20.5261 10.7702 20.7128 11.0222C20.8995 11.2742 21.0488 11.5495 21.1608 11.8482L20.8668 11.6802L20.9368 9.7202H21.6368V16.1462C21.6368 16.8649 21.5341 17.4809 21.3288 17.9942C21.1235 18.5075 20.8388 18.9275 20.4748 19.2542C20.1201 19.5902 19.7095 19.8329 19.2428 19.9822C18.7855 20.1409 18.3048 20.2202 17.8008 20.2202ZM17.4368 16.3982C18.1368 16.3982 18.7481 16.2675 19.2708 16.0062C19.7935 15.7355 20.2041 15.3715 20.5028 14.9142C20.8015 14.4569 20.9508 13.9342 20.9508 13.3462C20.9415 12.7302 20.7875 12.1935 20.4888 11.7362C20.1995 11.2695 19.7935 10.9009 19.2708 10.6302C18.7481 10.3595 18.1415 10.2242 17.4508 10.2242C16.8068 10.2242 16.2235 10.3595 15.7008 10.6302C15.1875 10.8915 14.7815 11.2555 14.4828 11.7222C14.1935 12.1795 14.0441 12.7115 14.0348 13.3182C14.0348 13.9062 14.1748 14.4335 14.4548 14.9002C14.7441 15.3669 15.1455 15.7355 15.6588 16.0062C16.1815 16.2675 16.7741 16.3982 17.4368 16.3982Z" fill="#131313"/>
</svg>
