<svg width="24" height="24" viewBox="0 0 24 24" fill="none" xmlns="http://www.w3.org/2000/svg">
<path d="M2.01138 17.0002L5.88938 7.2002H7.90538L11.7554 17.0002H9.34738L7.49938 12.0302C7.42471 11.8342 7.35005 11.6242 7.27538 11.4002C7.20071 11.1762 7.12605 10.9475 7.05138 10.7142C6.97671 10.4715 6.90205 10.2382 6.82738 10.0142C6.76205 9.78087 6.70605 9.5662 6.65938 9.3702L7.07938 9.3562C7.02338 9.58953 6.95805 9.8182 6.88338 10.0422C6.81805 10.2662 6.74805 10.4902 6.67338 10.7142C6.60805 10.9289 6.53338 11.1482 6.44938 11.3722C6.36538 11.5869 6.28605 11.8109 6.21138 12.0442L4.36338 17.0002H2.01138ZM3.85938 15.1242L4.60138 13.3322H9.10938L9.83738 15.1242H3.85938ZM16.0054 20.2202C15.3987 20.2202 14.792 20.1315 14.1854 19.9542C13.588 19.7769 13.1027 19.5482 12.7294 19.2682L13.5134 17.7002C13.7094 17.8309 13.924 17.9429 14.1574 18.0362C14.4 18.1389 14.652 18.2182 14.9134 18.2742C15.1747 18.3302 15.4407 18.3582 15.7114 18.3582C16.1874 18.3582 16.5747 18.2882 16.8734 18.1482C17.172 18.0082 17.396 17.7935 17.5454 17.5042C17.6947 17.2242 17.7694 16.8695 17.7694 16.4402V15.1942L18.2034 15.2642C18.138 15.5722 17.9747 15.8522 17.7134 16.1042C17.4614 16.3562 17.1487 16.5615 16.7754 16.7202C16.402 16.8695 16.0054 16.9442 15.5854 16.9442C14.9134 16.9442 14.3114 16.7902 13.7794 16.4822C13.2567 16.1649 12.8414 15.7309 12.5334 15.1802C12.2347 14.6202 12.0854 13.9762 12.0854 13.2482C12.0854 12.5015 12.2347 11.8435 12.5334 11.2742C12.832 10.6955 13.2427 10.2429 13.7654 9.9162C14.288 9.5802 14.876 9.4122 15.5294 9.4122C15.8094 9.4122 16.0754 9.44487 16.3274 9.5102C16.5887 9.57553 16.8267 9.6642 17.0414 9.7762C17.2654 9.87887 17.4614 10.0049 17.6294 10.1542C17.8067 10.2942 17.9467 10.4482 18.0494 10.6162C18.1614 10.7842 18.236 10.9569 18.2734 11.1342L17.8114 11.2462L17.8954 9.5662H20.0234V16.3982C20.0234 17.0049 19.93 17.5415 19.7434 18.0082C19.566 18.4842 19.3 18.8855 18.9454 19.2122C18.6 19.5482 18.18 19.8002 17.6854 19.9682C17.1907 20.1362 16.6307 20.2202 16.0054 20.2202ZM16.0614 15.2082C16.4254 15.2082 16.738 15.1289 16.9994 14.9702C17.27 14.8022 17.4754 14.5735 17.6154 14.2842C17.7647 13.9949 17.8394 13.6542 17.8394 13.2622C17.8394 12.8702 17.7647 12.5295 17.6154 12.2402C17.4754 11.9415 17.27 11.7129 16.9994 11.5542C16.738 11.3862 16.4254 11.3022 16.0614 11.3022C15.7067 11.3022 15.3987 11.3862 15.1374 11.5542C14.876 11.7129 14.6707 11.9415 14.5214 12.2402C14.3814 12.5295 14.3114 12.8702 14.3114 13.2622C14.3114 13.6542 14.3814 13.9949 14.5214 14.2842C14.6707 14.5735 14.876 14.8022 15.1374 14.9702C15.3987 15.1289 15.7067 15.2082 16.0614 15.2082Z" fill="#131313"/>
</svg>
