<svg width="24" height="24" viewBox="0 0 24 24" fill="none" xmlns="http://www.w3.org/2000/svg">
<path d="M0.690289 17.0002L5.31029 7.2002H7.71829L12.3103 17.0002H9.51029L7.07429 11.8482C6.97162 11.6149 6.87829 11.4002 6.79429 11.2042C6.71029 11.0082 6.63562 10.8215 6.57029 10.6442C6.50496 10.4575 6.43962 10.2755 6.37429 10.0982C6.31829 9.91153 6.26696 9.72487 6.22029 9.5382L6.75229 9.5242C6.69629 9.72953 6.63562 9.92553 6.57029 10.1122C6.51429 10.2989 6.44896 10.4855 6.37429 10.6722C6.29962 10.8495 6.22029 11.0362 6.13629 11.2322C6.05229 11.4189 5.95896 11.6242 5.85629 11.8482L3.43429 17.0002H0.690289ZM2.88829 15.4742L3.74229 13.5142H9.25829L9.73429 15.4742H2.88829ZM18.1564 20.2202C17.2697 20.2202 16.4811 20.1222 15.7904 19.9262C15.0997 19.7395 14.5304 19.5109 14.0824 19.2402L14.9644 17.4062C15.179 17.4995 15.4217 17.6022 15.6924 17.7142C15.963 17.8262 16.2664 17.9149 16.6024 17.9802C16.9384 18.0549 17.3164 18.0922 17.7364 18.0922C18.2031 18.0922 18.6044 18.0082 18.9404 17.8402C19.2857 17.6815 19.547 17.4389 19.7244 17.1122C19.9017 16.7949 19.9904 16.3935 19.9904 15.9082V15.1382L20.5364 15.2082C20.4617 15.5069 20.2564 15.7822 19.9204 16.0342C19.5844 16.2862 19.1644 16.4869 18.6604 16.6362C18.1564 16.7762 17.6057 16.8462 17.0084 16.8462C16.2524 16.8462 15.5804 16.6969 14.9924 16.3982C14.4044 16.0995 13.947 15.6795 13.6204 15.1382C13.303 14.5875 13.1444 13.9482 13.1444 13.2202C13.1444 12.4549 13.3124 11.7875 13.6484 11.2182C13.9937 10.6395 14.465 10.1915 15.0624 9.8742C15.669 9.54753 16.369 9.3842 17.1624 9.3842C17.3957 9.3842 17.657 9.40753 17.9464 9.4542C18.2357 9.49153 18.5297 9.55687 18.8284 9.6502C19.127 9.74353 19.407 9.8602 19.6684 10.0002C19.9297 10.1309 20.1397 10.2895 20.2984 10.4762C20.4664 10.6535 20.5597 10.8542 20.5784 11.0782L20.0464 11.2042L20.1724 9.5382H22.6084V15.9082C22.6084 16.6362 22.4871 17.2662 22.2444 17.7982C22.0111 18.3395 21.6937 18.7875 21.2924 19.1422C20.8911 19.5062 20.4197 19.7769 19.8784 19.9542C19.3371 20.1315 18.7631 20.2202 18.1564 20.2202ZM17.9464 14.9422C18.3851 14.9422 18.7584 14.8722 19.0664 14.7322C19.3744 14.5922 19.617 14.3962 19.7944 14.1442C19.9717 13.8829 20.0604 13.5795 20.0604 13.2342C20.0604 12.8795 19.9717 12.5762 19.7944 12.3242C19.6264 12.0722 19.3884 11.8762 19.0804 11.7362C18.7724 11.5962 18.3944 11.5262 17.9464 11.5262C17.489 11.5262 17.0877 11.5962 16.7424 11.7362C16.4064 11.8762 16.1497 12.0722 15.9724 12.3242C15.795 12.5762 15.7064 12.8795 15.7064 13.2342C15.7064 13.5795 15.795 13.8829 15.9724 14.1442C16.1497 14.3962 16.4064 14.5922 16.7424 14.7322C17.0877 14.8722 17.489 14.9422 17.9464 14.9422Z" fill="#131313"/>
</svg>
