<svg width="24" height="24" viewBox="0 0 24 24" fill="none" xmlns="http://www.w3.org/2000/svg">
<path d="M2.97313 16.9998C2.91713 16.9998 2.87513 16.9811 2.84713 16.9438C2.82846 16.8971 2.82846 16.8365 2.84713 16.7618L6.47313 6.80782C6.50113 6.74249 6.53379 6.69582 6.57113 6.66782C6.60846 6.63049 6.66913 6.61182 6.75313 6.61182H7.84513C8.01313 6.61182 8.12046 6.68182 8.16713 6.82182L11.7511 16.7618C11.7698 16.8178 11.7651 16.8738 11.7371 16.9298C11.7185 16.9765 11.6765 16.9998 11.6111 16.9998H10.6171C10.5051 16.9998 10.4305 16.9531 10.3931 16.8598L9.42713 14.1438C9.40846 14.1065 9.38979 14.0785 9.37113 14.0598C9.35246 14.0411 9.31513 14.0318 9.25913 14.0318H5.18513C5.10113 14.0318 5.04513 14.0691 5.01713 14.1438L4.02313 16.8738C4.01379 16.9111 3.99046 16.9438 3.95312 16.9718C3.92513 16.9905 3.87846 16.9998 3.81313 16.9998H2.97313ZM8.89513 12.9678C9.00713 12.9678 9.04446 12.9071 9.00713 12.7858L7.32713 8.17982C7.28979 8.09582 7.25246 8.05382 7.21513 8.05382C7.18713 8.05382 7.15913 8.09582 7.13113 8.17982L5.42313 12.8138C5.37646 12.9165 5.40446 12.9678 5.50713 12.9678H8.89513ZM20.159 9.45382C20.2523 9.45382 20.3177 9.47249 20.355 9.50982C20.4017 9.54715 20.425 9.60315 20.425 9.67782V10.1678C20.425 10.2518 20.4017 10.3171 20.355 10.3638C20.3177 10.4105 20.2477 10.4291 20.145 10.4198C19.9957 10.4198 19.865 10.4291 19.753 10.4478C19.641 10.4665 19.529 10.4991 19.417 10.5458C19.193 10.6298 19.0997 10.7371 19.137 10.8678C19.1837 10.9705 19.235 11.0965 19.291 11.2458C19.347 11.3858 19.375 11.5771 19.375 11.8198C19.375 12.2305 19.2677 12.6085 19.053 12.9538C18.8383 13.2898 18.5023 13.5605 18.045 13.7658C17.597 13.9711 17.0277 14.0738 16.337 14.0738C15.861 14.0738 15.4877 14.1018 15.217 14.1578C14.9463 14.2138 14.755 14.2885 14.643 14.3818C14.531 14.4751 14.475 14.5731 14.475 14.6758C14.475 14.8251 14.573 14.9325 14.769 14.9978C14.9743 15.0631 15.301 15.1098 15.749 15.1378L17.555 15.2358C18.3763 15.2825 18.9783 15.4785 19.361 15.8238C19.7437 16.1691 19.935 16.6218 19.935 17.1818C19.935 17.8818 19.6223 18.4325 18.997 18.8338C18.381 19.2445 17.499 19.4498 16.351 19.4498C15.1657 19.4498 14.2603 19.2771 13.635 18.9318C13.019 18.5958 12.711 18.1105 12.711 17.4758C12.711 17.1491 12.823 16.8551 13.047 16.5938C13.2803 16.3325 13.607 16.0991 14.027 15.8938C14.1297 15.8471 14.1297 15.7958 14.027 15.7398C13.8217 15.6465 13.663 15.5345 13.551 15.4038C13.439 15.2638 13.383 15.1005 13.383 14.9138C13.383 14.7831 13.425 14.6525 13.509 14.5218C13.593 14.3911 13.7143 14.2698 13.873 14.1578C14.041 14.0458 14.2417 13.9478 14.475 13.8638C14.531 13.8451 14.559 13.8218 14.559 13.7938C14.559 13.7658 14.5357 13.7331 14.489 13.6958C14.0783 13.4905 13.775 13.2338 13.579 12.9258C13.383 12.6178 13.285 12.2491 13.285 11.8198C13.285 11.0918 13.5603 10.5178 14.111 10.0978C14.6617 9.67782 15.441 9.46782 16.449 9.46782C16.9343 9.46782 17.345 9.52382 17.681 9.63582C18.0263 9.74782 18.3157 9.90182 18.549 10.0978C18.605 10.1445 18.6563 10.1678 18.703 10.1678C18.7497 10.1678 18.7963 10.1445 18.843 10.0978C18.955 9.99515 19.081 9.89715 19.221 9.80382C19.361 9.70115 19.5103 9.61715 19.669 9.55182C19.837 9.48649 20.0003 9.45382 20.159 9.45382ZM16.337 13.3318C16.9903 13.3318 17.4757 13.2011 17.793 12.9398C18.1103 12.6691 18.269 12.2911 18.269 11.8058C18.269 11.3111 18.1103 10.9238 17.793 10.6438C17.4757 10.3545 16.9903 10.2098 16.337 10.2098C15.7117 10.2098 15.2263 10.3545 14.881 10.6438C14.545 10.9238 14.377 11.3111 14.377 11.8058C14.377 12.2911 14.545 12.6691 14.881 12.9398C15.2263 13.2011 15.7117 13.3318 16.337 13.3318ZM15.105 16.0898C14.937 16.0805 14.7503 16.1318 14.545 16.2438C14.3397 16.3465 14.1577 16.4911 13.999 16.6778C13.8403 16.8645 13.761 17.0838 13.761 17.3358C13.761 17.6251 13.859 17.8725 14.055 18.0778C14.2603 18.2925 14.5637 18.4511 14.965 18.5538C15.3757 18.6658 15.8797 18.7218 16.477 18.7218C17.2517 18.7218 17.8397 18.6051 18.241 18.3718C18.6423 18.1478 18.843 17.7978 18.843 17.3218C18.843 17.0138 18.7357 16.7618 18.521 16.5658C18.3157 16.3698 17.9563 16.2578 17.443 16.2298L15.105 16.0898Z" fill="#131313"/>
</svg>
