<svg width="24" height="24" viewBox="0 0 24 24" fill="none" xmlns="http://www.w3.org/2000/svg">
<path d="M2.20023 16.9998C2.14423 16.9998 2.10689 16.9718 2.08823 16.9158C2.06956 16.8598 2.08356 16.7805 2.13023 16.6778L7.11423 6.79382C7.16089 6.71915 7.20756 6.67249 7.25423 6.65382C7.31023 6.62582 7.38023 6.61182 7.46423 6.61182H8.87823C8.97156 6.61182 9.03689 6.63982 9.07423 6.69582C9.12089 6.75182 9.14889 6.81715 9.15823 6.89182L11.3282 16.7618C11.3376 16.8178 11.3282 16.8738 11.3002 16.9298C11.2816 16.9765 11.2396 16.9998 11.1742 16.9998H9.84423C9.72289 16.9998 9.65289 16.9345 9.63423 16.8038L9.08823 14.3118C9.07889 14.2465 9.03223 14.2138 8.94823 14.2138H5.08423C4.99089 14.2138 4.92089 14.2605 4.87423 14.3538L3.58623 16.8878C3.56756 16.9345 3.54423 16.9671 3.51623 16.9858C3.48823 16.9951 3.44156 16.9998 3.37623 16.9998H2.20023ZM8.69623 12.8978C8.81756 12.8978 8.86423 12.8278 8.83623 12.6878L7.88423 8.51582C7.87489 8.42249 7.85156 8.38049 7.81423 8.38982C7.77689 8.39915 7.73489 8.45049 7.68823 8.54382L5.56023 12.7158C5.53223 12.7905 5.52289 12.8418 5.53223 12.8698C5.54156 12.8885 5.57423 12.8978 5.63023 12.8978H8.69623ZM15.4472 19.4498C14.3645 19.4498 13.5292 19.2911 12.9412 18.9738C12.3532 18.6658 12.0592 18.2411 12.0592 17.6998C12.0592 17.3171 12.1945 16.9858 12.4652 16.7058C12.7452 16.4258 13.0998 16.2018 13.5292 16.0338C13.6038 15.9965 13.6505 15.9638 13.6692 15.9358C13.6878 15.8985 13.6598 15.8658 13.5852 15.8378C13.4078 15.7351 13.2725 15.6231 13.1792 15.5018C13.0952 15.3805 13.0532 15.2311 13.0532 15.0538C13.0532 14.8391 13.1185 14.6525 13.2492 14.4938C13.3892 14.3351 13.5572 14.1998 13.7532 14.0878C13.9585 13.9758 14.1545 13.8918 14.3412 13.8358C14.4252 13.7985 14.4765 13.7611 14.4952 13.7238C14.5138 13.6865 14.4905 13.6538 14.4252 13.6258C14.0985 13.4671 13.8512 13.2618 13.6832 13.0098C13.5152 12.7485 13.4312 12.4451 13.4312 12.0998C13.4312 11.6518 13.5245 11.2645 13.7112 10.9378C13.8978 10.6111 14.1452 10.3405 14.4532 10.1258C14.7705 9.90182 15.1298 9.73849 15.5312 9.63582C15.9325 9.52382 16.3525 9.46782 16.7912 9.46782C17.4165 9.46782 17.9018 9.53782 18.2472 9.67782C18.5925 9.81782 18.8585 9.97182 19.0452 10.1398C19.1012 10.1958 19.1618 10.2051 19.2272 10.1678C19.2925 10.1305 19.3532 10.0838 19.4092 10.0278C19.5398 9.90649 19.6845 9.79915 19.8432 9.70582C20.0112 9.61249 20.1792 9.53782 20.3472 9.48182C20.5245 9.42582 20.6832 9.39782 20.8232 9.39782C20.9352 9.39782 21.0145 9.41649 21.0612 9.45382C21.1078 9.48182 21.1265 9.54249 21.1172 9.63582L21.0332 10.2518C21.0238 10.3638 21.0005 10.4385 20.9632 10.4758C20.9258 10.5038 20.8605 10.5225 20.7672 10.5318C20.6085 10.5318 20.4638 10.5411 20.3332 10.5598C20.2025 10.5785 20.0905 10.6065 19.9972 10.6438C19.6985 10.7185 19.5772 10.8305 19.6332 10.9798C19.6705 11.0451 19.6985 11.1291 19.7172 11.2318C19.7452 11.3345 19.7592 11.4558 19.7592 11.5958C19.7592 12.0345 19.6565 12.4125 19.4512 12.7298C19.2552 13.0378 18.9892 13.2945 18.6532 13.4998C18.3265 13.6958 17.9625 13.8405 17.5612 13.9338C17.1598 14.0271 16.7538 14.0738 16.3432 14.0738C16.2592 14.0738 16.1145 14.0831 15.9092 14.1018C15.7132 14.1111 15.4985 14.1345 15.2652 14.1718C15.0412 14.2091 14.8498 14.2698 14.6912 14.3538C14.5325 14.4378 14.4532 14.5545 14.4532 14.7038C14.4532 14.8158 14.5325 14.8998 14.6912 14.9558C14.8592 15.0025 15.1298 15.0351 15.5032 15.0538L17.3652 15.1658C18.1492 15.2125 18.7232 15.3898 19.0872 15.6978C19.4512 16.0058 19.6332 16.4351 19.6332 16.9858C19.6332 17.3685 19.5492 17.6998 19.3812 17.9798C19.2225 18.2598 19.0032 18.4931 18.7232 18.6798C18.4432 18.8665 18.1212 19.0158 17.7572 19.1278C17.4025 19.2398 17.0245 19.3191 16.6232 19.3658C16.2312 19.4218 15.8392 19.4498 15.4472 19.4498ZM15.5032 18.6238C15.8672 18.6238 16.2125 18.5958 16.5392 18.5398C16.8752 18.4931 17.1692 18.4138 17.4212 18.3018C17.6825 18.1991 17.8878 18.0545 18.0372 17.8678C18.1865 17.6811 18.2612 17.4478 18.2612 17.1678C18.2612 16.9065 18.1725 16.7151 17.9952 16.5938C17.8272 16.4631 17.5285 16.3885 17.0992 16.3698L14.8592 16.2438C14.6165 16.2905 14.3785 16.3698 14.1452 16.4818C13.9118 16.5938 13.7205 16.7385 13.5712 16.9158C13.4312 17.0838 13.3612 17.2891 13.3612 17.5318C13.3612 17.9145 13.5432 18.1898 13.9072 18.3578C14.2805 18.5351 14.8125 18.6238 15.5032 18.6238ZM16.3852 13.2338C16.7492 13.2338 17.0805 13.1731 17.3792 13.0518C17.6872 12.9305 17.9345 12.7391 18.1212 12.4778C18.3078 12.2165 18.4012 11.8851 18.4012 11.4838C18.4012 11.1198 18.2658 10.8351 17.9952 10.6298C17.7338 10.4245 17.3372 10.3218 16.8052 10.3218C16.4505 10.3218 16.1192 10.3918 15.8112 10.5318C15.5032 10.6718 15.2512 10.8725 15.0552 11.1338C14.8685 11.3951 14.7752 11.7218 14.7752 12.1138C14.7752 12.4591 14.9152 12.7345 15.1952 12.9398C15.4845 13.1358 15.8812 13.2338 16.3852 13.2338Z" fill="#131313"/>
</svg>
