<svg width="24" height="24" viewBox="0 0 24 24" fill="none" xmlns="http://www.w3.org/2000/svg">
<path d="M2.22592 16.9998C2.14192 16.9998 2.09526 16.9625 2.08592 16.8878C2.07659 16.8131 2.10926 16.6965 2.18392 16.5378L7.04192 6.83582C7.09792 6.73315 7.15859 6.67249 7.22392 6.65382C7.29859 6.62582 7.38726 6.61182 7.48992 6.61182H9.58992C9.69259 6.61182 9.76726 6.64915 9.81392 6.72382C9.86059 6.79849 9.88859 6.88249 9.89792 6.97582L11.9979 16.6778C12.0166 16.7525 12.0119 16.8271 11.9839 16.9018C11.9559 16.9671 11.8999 16.9998 11.8159 16.9998H9.77192C9.64126 16.9998 9.56192 16.9158 9.53392 16.7478L9.09992 14.7178C9.09059 14.6431 9.03459 14.6058 8.93192 14.6058H5.54392C5.44126 14.6058 5.36192 14.6618 5.30592 14.7738L4.24192 16.8738C4.22326 16.9298 4.19526 16.9671 4.15792 16.9858C4.12992 16.9951 4.07392 16.9998 3.98992 16.9998H2.22592ZM8.62392 12.7438C8.76392 12.7438 8.81526 12.6645 8.77792 12.5058L8.04992 9.27182C8.04059 9.17849 8.01259 9.13182 7.96592 9.13182C7.92859 9.13182 7.88659 9.17849 7.83992 9.27182L6.21592 12.5338C6.17859 12.6271 6.16459 12.6878 6.17392 12.7158C6.19259 12.7345 6.23459 12.7438 6.29992 12.7438H8.62392ZM16.0647 19.4358C14.9354 19.4358 14.0487 19.2911 13.4047 19.0018C12.7607 18.7125 12.4387 18.3065 12.4387 17.7838C12.4387 17.4105 12.5834 17.1071 12.8727 16.8738C13.162 16.6311 13.5074 16.4398 13.9087 16.2998C14.002 16.2718 14.058 16.2345 14.0767 16.1878C14.0954 16.1411 14.058 16.1038 13.9647 16.0758C13.7594 15.9825 13.6007 15.8658 13.4887 15.7258C13.386 15.5858 13.3347 15.4038 13.3347 15.1798C13.3347 14.9371 13.4094 14.7271 13.5587 14.5498C13.7174 14.3725 13.9087 14.2231 14.1327 14.1018C14.366 13.9711 14.59 13.8731 14.8047 13.8078C14.9074 13.7705 14.968 13.7331 14.9867 13.6958C15.0147 13.6491 14.982 13.6071 14.8887 13.5698C14.5527 13.4298 14.2914 13.2291 14.1047 12.9678C13.918 12.6971 13.8247 12.3798 13.8247 12.0158C13.8247 11.5678 13.9227 11.1851 14.1187 10.8678C14.324 10.5505 14.5947 10.2891 14.9307 10.0838C15.2667 9.86915 15.64 9.71515 16.0507 9.62182C16.4707 9.51915 16.9 9.46782 17.3387 9.46782C18.0107 9.46782 18.5334 9.54249 18.9067 9.69182C19.2894 9.83182 19.574 9.99049 19.7607 10.1678C19.826 10.2238 19.9007 10.2238 19.9847 10.1678C20.0687 10.1118 20.1434 10.0465 20.2087 9.97182C20.3487 9.82249 20.512 9.69649 20.6987 9.59382C20.8854 9.49115 21.072 9.41182 21.2587 9.35582C21.4454 9.29049 21.604 9.25782 21.7347 9.25782C21.8374 9.25782 21.9167 9.27649 21.9727 9.31382C22.0287 9.34182 22.052 9.41182 22.0427 9.52382L21.9027 10.4758C21.8934 10.6065 21.8654 10.6951 21.8187 10.7418C21.7814 10.7791 21.7207 10.7931 21.6367 10.7838C21.4967 10.7838 21.352 10.7885 21.2027 10.7978C21.0534 10.7978 20.9414 10.8071 20.8667 10.8258C20.5494 10.8631 20.4327 10.9798 20.5167 11.1758C20.5447 11.2318 20.5634 11.3018 20.5727 11.3858C20.5914 11.4605 20.6007 11.5538 20.6007 11.6658C20.6007 12.1045 20.4887 12.4778 20.2647 12.7858C20.0407 13.0845 19.7467 13.3318 19.3827 13.5278C19.028 13.7145 18.6407 13.8545 18.2207 13.9478C17.8007 14.0318 17.39 14.0738 16.9887 14.0738C16.914 14.0738 16.788 14.0785 16.6107 14.0878C16.4334 14.0971 16.242 14.1205 16.0367 14.1578C15.8407 14.1951 15.668 14.2511 15.5187 14.3258C15.3787 14.4005 15.3087 14.5031 15.3087 14.6338C15.3087 14.7178 15.3694 14.7785 15.4907 14.8158C15.6214 14.8531 15.822 14.8811 16.0927 14.8998L18.0807 15.0118C18.958 15.0678 19.5974 15.2638 19.9987 15.5998C20.4 15.9358 20.6007 16.3838 20.6007 16.9438C20.6007 17.3451 20.5074 17.6905 20.3207 17.9798C20.1434 18.2691 19.896 18.5071 19.5787 18.6938C19.2707 18.8805 18.9207 19.0251 18.5287 19.1278C18.1367 19.2398 17.726 19.3191 17.2967 19.3658C16.8767 19.4125 16.466 19.4358 16.0647 19.4358ZM16.1767 18.4138C16.55 18.4138 16.8907 18.3858 17.1987 18.3298C17.5067 18.2831 17.768 18.2131 17.9827 18.1198C18.1974 18.0358 18.3654 17.9191 18.4867 17.7698C18.608 17.6298 18.6687 17.4618 18.6687 17.2658C18.6687 17.0698 18.594 16.9298 18.4447 16.8458C18.2954 16.7525 18.0434 16.6965 17.6887 16.6778L15.5607 16.5658C15.3834 16.5845 15.192 16.6358 14.9867 16.7198C14.7814 16.7945 14.604 16.8971 14.4547 17.0278C14.3147 17.1678 14.2447 17.3405 14.2447 17.5458C14.2447 17.8351 14.3987 18.0498 14.7067 18.1898C15.024 18.3391 15.514 18.4138 16.1767 18.4138ZM17.0447 13.0098C17.334 13.0098 17.6 12.9538 17.8427 12.8418C18.0947 12.7298 18.2954 12.5618 18.4447 12.3378C18.594 12.1045 18.6687 11.8291 18.6687 11.5118C18.6687 11.2225 18.5567 10.9891 18.3327 10.8118C18.118 10.6345 17.796 10.5458 17.3667 10.5458C17.0774 10.5458 16.8067 10.6111 16.5547 10.7418C16.312 10.8725 16.1114 11.0545 15.9527 11.2878C15.8034 11.5118 15.7287 11.7778 15.7287 12.0858C15.7287 12.3565 15.8454 12.5805 16.0787 12.7578C16.3214 12.9258 16.6434 13.0098 17.0447 13.0098Z" fill="#131313"/>
</svg>
