<svg width="24" height="24" viewBox="0 0 24 24" fill="none" xmlns="http://www.w3.org/2000/svg">
<path d="M3.86441 16.9998C3.82708 16.9998 3.79908 16.9905 3.78041 16.9718C3.76175 16.9438 3.75708 16.9111 3.76641 16.8738L7.47641 6.76582C7.49508 6.70982 7.51841 6.67249 7.54641 6.65382C7.58375 6.62582 7.63508 6.61182 7.70041 6.61182H8.16241C8.30241 6.61182 8.38641 6.65849 8.41441 6.75182L12.0824 16.8598C12.1011 16.8971 12.0964 16.9298 12.0684 16.9578C12.0497 16.9858 12.0171 16.9998 11.9704 16.9998H11.6344C11.5411 16.9998 11.4804 16.9625 11.4524 16.8878L10.3184 13.7658C10.3091 13.7285 10.2951 13.7051 10.2764 13.6958C10.2577 13.6771 10.2251 13.6678 10.1784 13.6678H5.67041C5.60508 13.6678 5.55841 13.7005 5.53041 13.7658L4.36841 16.9018C4.35908 16.9391 4.34041 16.9671 4.31241 16.9858C4.29375 16.9951 4.26108 16.9998 4.21441 16.9998H3.86441ZM9.94041 13.1078C10.0337 13.1078 10.0664 13.0611 10.0384 12.9678L8.03641 7.50782C7.99908 7.41449 7.96175 7.36782 7.92441 7.36782C7.89641 7.36782 7.86375 7.41915 7.82641 7.52182L5.79641 12.9958C5.76841 13.0705 5.79175 13.1078 5.86641 13.1078H9.94041ZM20.2891 9.57982C20.3918 9.57982 20.4618 9.59382 20.4991 9.62182C20.5365 9.64982 20.5551 9.69649 20.5551 9.76182V9.94382C20.5551 10.0091 20.5411 10.0605 20.5131 10.0978C20.4851 10.1351 20.4198 10.1585 20.3171 10.1678C20.1398 10.1771 19.9951 10.1958 19.8831 10.2238C19.7711 10.2518 19.6591 10.2985 19.5471 10.3638C19.3231 10.4851 19.2298 10.5925 19.2671 10.6858C19.3138 10.8071 19.3745 10.9565 19.4491 11.1338C19.5238 11.3018 19.5611 11.5351 19.5611 11.8338C19.5611 12.2445 19.4631 12.6225 19.2671 12.9678C19.0711 13.3038 18.7631 13.5745 18.3431 13.7798C17.9325 13.9758 17.3958 14.0738 16.7331 14.0738C16.2011 14.0738 15.7811 14.1065 15.4731 14.1718C15.1745 14.2371 14.9645 14.3258 14.8431 14.4378C14.7218 14.5405 14.6611 14.6478 14.6611 14.7598C14.6611 14.9278 14.7778 15.0491 15.0111 15.1238C15.2538 15.1985 15.6458 15.2498 16.1871 15.2778L17.8671 15.3758C18.6138 15.4131 19.1598 15.5998 19.5051 15.9358C19.8505 16.2718 20.0231 16.7151 20.0231 17.2658C20.0231 17.9658 19.7291 18.5025 19.1411 18.8758C18.5531 19.2585 17.7318 19.4498 16.6771 19.4498C15.6038 19.4498 14.7731 19.2678 14.1851 18.9038C13.6065 18.5398 13.3171 18.0311 13.3171 17.3778C13.3171 17.0418 13.4198 16.7291 13.6251 16.4398C13.8398 16.1411 14.1665 15.8705 14.6051 15.6278C14.7078 15.5718 14.7078 15.5205 14.6051 15.4738C14.4185 15.3898 14.2831 15.2918 14.1991 15.1798C14.1151 15.0585 14.0731 14.9231 14.0731 14.7738C14.0731 14.6711 14.1011 14.5638 14.1571 14.4518C14.2225 14.3398 14.3205 14.2371 14.4511 14.1438C14.5911 14.0411 14.7778 13.9525 15.0111 13.8778C15.0671 13.8591 15.0905 13.8358 15.0811 13.8078C15.0718 13.7705 15.0438 13.7378 14.9971 13.7098C14.6145 13.4951 14.3345 13.2385 14.1571 12.9398C13.9798 12.6318 13.8911 12.2631 13.8911 11.8338C13.8911 11.0871 14.1478 10.5085 14.6611 10.0978C15.1838 9.67782 15.9071 9.46782 16.8311 9.46782C17.2978 9.46782 17.6898 9.52382 18.0071 9.63582C18.3245 9.73849 18.5998 9.89249 18.8331 10.0978C18.8798 10.1351 18.9218 10.1585 18.9591 10.1678C18.9965 10.1678 19.0385 10.1491 19.0851 10.1118C19.1785 10.0371 19.2858 9.96249 19.4071 9.88782C19.5285 9.80382 19.6638 9.73382 19.8131 9.67782C19.9625 9.61249 20.1211 9.57982 20.2891 9.57982ZM16.7471 13.5418C17.5031 13.5418 18.0678 13.3971 18.4411 13.1078C18.8145 12.8091 19.0011 12.3751 19.0011 11.8058C19.0011 11.2271 18.8098 10.7838 18.4271 10.4758C18.0538 10.1585 17.4938 9.99982 16.7471 9.99982C16.0191 9.99982 15.4545 10.1585 15.0531 10.4758C14.6518 10.7838 14.4511 11.2271 14.4511 11.8058C14.4511 12.3751 14.6471 12.8091 15.0391 13.1078C15.4405 13.3971 16.0098 13.5418 16.7471 13.5418ZM15.3891 15.7958C15.2398 15.7865 15.0485 15.8471 14.8151 15.9778C14.5818 16.0991 14.3718 16.2765 14.1851 16.5098C13.9985 16.7431 13.9051 17.0138 13.9051 17.3218C13.9051 17.6578 14.0171 17.9425 14.2411 18.1758C14.4745 18.4185 14.8058 18.6005 15.2351 18.7218C15.6738 18.8525 16.1965 18.9178 16.8031 18.9178C17.6618 18.9178 18.3151 18.7825 18.7631 18.5118C19.2111 18.2505 19.4351 17.8351 19.4351 17.2658C19.4351 16.8831 19.3185 16.5798 19.0851 16.3558C18.8518 16.1225 18.4411 15.9871 17.8531 15.9498L15.3891 15.7958Z" fill="#131313"/>
</svg>
