<svg width="24" height="24" viewBox="0 0 24 24" fill="none" xmlns="http://www.w3.org/2000/svg">
<path d="M1.93696 16.9998C1.83429 16.9998 1.75963 16.9531 1.71296 16.8598C1.66629 16.7571 1.67096 16.6311 1.72696 16.4818L5.11496 6.93382C5.16163 6.82182 5.21296 6.74249 5.26896 6.69582C5.32496 6.63982 5.41363 6.61182 5.53496 6.61182H8.29296C8.53563 6.61182 8.70363 6.73782 8.79696 6.98982L12.157 16.5238C12.1943 16.6171 12.1943 16.7198 12.157 16.8318C12.129 16.9438 12.0636 16.9998 11.961 16.9998H9.21696C9.05829 16.9998 8.95563 16.9205 8.90896 16.7618L8.36296 15.1518C8.34429 15.1051 8.32096 15.0678 8.29296 15.0398C8.27429 15.0025 8.22763 14.9838 8.15296 14.9838H5.18496C5.07296 14.9838 5.00296 15.0351 4.97496 15.1378L4.40096 16.7898C4.38229 16.8458 4.34496 16.8971 4.28896 16.9438C4.24229 16.9811 4.16763 16.9998 4.06496 16.9998H1.93696ZM7.45296 12.6038C7.59296 12.6038 7.63496 12.5105 7.57896 12.3238L6.73896 9.92982C6.72029 9.88315 6.69229 9.85982 6.65496 9.85982C6.61763 9.85982 6.58963 9.88315 6.57096 9.92982L5.71696 12.3098C5.64229 12.5058 5.68896 12.6038 5.85696 12.6038H7.45296ZM21.1286 9.13182C21.2032 9.13182 21.2686 9.15982 21.3246 9.21582C21.3806 9.26249 21.4086 9.35115 21.4086 9.48182V10.7418C21.4086 10.9005 21.3712 11.0125 21.2966 11.0778C21.2312 11.1338 21.1472 11.1431 21.0446 11.1058C20.9512 11.0778 20.8439 11.0545 20.7226 11.0358C20.6106 11.0171 20.5126 11.0078 20.4286 11.0078C20.1766 11.0078 20.0832 11.1151 20.1486 11.3298C20.1672 11.3951 20.1812 11.4651 20.1906 11.5398C20.2092 11.6145 20.2186 11.6891 20.2186 11.7638C20.2186 12.1838 20.0832 12.5711 19.8126 12.9258C19.5419 13.2711 19.1359 13.5511 18.5946 13.7658C18.0626 13.9711 17.4046 14.0738 16.6206 14.0738C16.3126 14.0738 16.0606 14.0925 15.8646 14.1298C15.6779 14.1578 15.5379 14.1998 15.4446 14.2558C15.3606 14.3118 15.3186 14.3771 15.3186 14.4518C15.3186 14.5545 15.3699 14.6245 15.4726 14.6618C15.5752 14.6991 15.7292 14.7271 15.9346 14.7458L18.0626 14.8718C19.0986 14.9371 19.8546 15.1565 20.3306 15.5298C20.8159 15.9031 21.0586 16.3791 21.0586 16.9578C21.0586 17.6671 20.7039 18.2598 19.9946 18.7358C19.2852 19.2118 18.2259 19.4498 16.8166 19.4498C15.3512 19.4498 14.2592 19.3098 13.5406 19.0298C12.8219 18.7591 12.4626 18.3298 12.4626 17.7418C12.4626 17.4245 12.5932 17.1818 12.8546 17.0138C13.1252 16.8458 13.4472 16.7105 13.8206 16.6078C13.9512 16.5705 13.9512 16.5191 13.8206 16.4538C13.5779 16.3325 13.3632 16.1831 13.1766 16.0058C12.9899 15.8191 12.8966 15.5811 12.8966 15.2918C12.8966 15.0678 12.9712 14.8718 13.1206 14.7038C13.2699 14.5265 13.4612 14.3678 13.6946 14.2278C13.9279 14.0785 14.1706 13.9525 14.4226 13.8498C14.4692 13.8311 14.5066 13.8078 14.5346 13.7798C14.5626 13.7518 14.5392 13.7191 14.4646 13.6818C14.0072 13.4858 13.6479 13.2291 13.3866 12.9118C13.1346 12.5851 13.0086 12.2071 13.0086 11.7778C13.0086 11.1058 13.3259 10.5551 13.9606 10.1258C14.5952 9.68715 15.5379 9.46782 16.7886 9.46782C17.3206 9.46782 17.7826 9.52849 18.1746 9.64982C18.5759 9.76182 18.8932 9.91115 19.1266 10.0978C19.2012 10.1538 19.2806 10.1771 19.3646 10.1678C19.4486 10.1585 19.5139 10.1211 19.5606 10.0558C19.6912 9.87849 19.8499 9.71982 20.0366 9.57982C20.2326 9.43982 20.4286 9.33249 20.6246 9.25782C20.8299 9.17382 20.9979 9.13182 21.1286 9.13182ZM16.5926 12.7998C16.9846 12.7998 17.2646 12.6971 17.4326 12.4918C17.6006 12.2865 17.6846 12.0625 17.6846 11.8198C17.6846 11.5305 17.6006 11.2831 17.4326 11.0778C17.2646 10.8725 16.9846 10.7698 16.5926 10.7698C16.2472 10.7698 15.9766 10.8725 15.7806 11.0778C15.5939 11.2831 15.5006 11.5305 15.5006 11.8198C15.5006 12.0718 15.5939 12.3005 15.7806 12.5058C15.9766 12.7018 16.2472 12.7998 16.5926 12.7998ZM15.6826 16.8878C15.4866 16.8785 15.3139 16.8971 15.1646 16.9438C15.0246 16.9811 14.9126 17.0371 14.8286 17.1118C14.7539 17.1865 14.7166 17.2751 14.7166 17.3778C14.7166 17.5458 14.7819 17.6905 14.9126 17.8118C15.0432 17.9425 15.2672 18.0405 15.5846 18.1058C15.9112 18.1711 16.3686 18.2038 16.9566 18.2038C17.5072 18.2038 17.9226 18.1338 18.2026 17.9938C18.4919 17.8631 18.6366 17.6951 18.6366 17.4898C18.6366 17.3591 18.5572 17.2425 18.3986 17.1398C18.2399 17.0371 18.0112 16.9811 17.7126 16.9718L15.6826 16.8878Z" fill="#131313"/>
</svg>
