<svg width="24" height="24" viewBox="0 0 24 24" fill="none" xmlns="http://www.w3.org/2000/svg">
<path d="M10.8956 14.6761C10.7836 15.1708 10.7276 15.5301 10.7276 15.7541C10.7276 16.0248 10.8163 16.2068 10.9936 16.3001C11.171 16.3934 11.5163 16.4401 12.0296 16.4401L11.8896 17.0001H7.74564L7.88564 16.4401C8.15631 16.4401 8.38031 16.4214 8.55764 16.3841C8.73497 16.3374 8.87964 16.2534 8.99164 16.1321C9.11297 16.0014 9.21564 15.8194 9.29964 15.5861C9.38364 15.3528 9.46764 15.0448 9.55164 14.6621L9.92964 12.9401H6.91964L6.03764 13.8641C5.65497 14.2654 5.35164 14.5921 5.12764 14.8441C4.91297 15.0868 4.74964 15.2828 4.63764 15.4321C4.52564 15.5814 4.45564 15.6934 4.42764 15.7681C4.39964 15.8428 4.38564 15.9081 4.38564 15.9641C4.38564 16.1414 4.46031 16.2674 4.60964 16.3421C4.76831 16.4074 5.04364 16.4401 5.43564 16.4401L5.29564 17.0001H1.66964L1.80964 16.4401C2.03364 16.4401 2.25764 16.3981 2.48164 16.3141C2.69631 16.2208 2.93431 16.0714 3.19564 15.8661C3.46631 15.6608 3.76031 15.3901 4.07764 15.0541C4.40431 14.7088 4.78231 14.2794 5.21164 13.7661L11.6656 6.08008H12.8416L10.8956 14.6761ZM10.0556 12.2401L11.2036 7.90008H11.1476L7.52164 12.2401H10.0556ZM19.2111 18.0221C19.2111 18.4234 19.1224 18.7828 18.9451 19.1001C18.7771 19.4268 18.5298 19.7021 18.2031 19.9261C17.8858 20.1594 17.4984 20.3368 17.0411 20.4581C16.5838 20.5794 16.0704 20.6401 15.5011 20.6401C14.9878 20.6401 14.5211 20.5934 14.1011 20.5001C13.6811 20.4068 13.3218 20.2714 13.0231 20.0941C12.7151 19.9168 12.4818 19.7068 12.3231 19.4641C12.1551 19.2308 12.0711 18.9648 12.0711 18.6661C12.0711 18.2834 12.1971 17.9661 12.4491 17.7141C12.6918 17.4621 13.0044 17.3361 13.3871 17.3361C13.4991 17.3361 13.6064 17.3501 13.7091 17.3781C13.8118 17.4061 13.9424 17.4574 14.1011 17.5321C13.5784 17.7468 13.3171 18.1528 13.3171 18.7501C13.3171 19.1421 13.5131 19.4501 13.9051 19.6741C14.3064 19.8981 14.8524 20.0101 15.5431 20.0101C15.9164 20.0101 16.2618 19.9681 16.5791 19.8841C16.8964 19.8001 17.1671 19.6928 17.3911 19.5621C17.6244 19.4314 17.8018 19.2821 17.9231 19.1141C18.0538 18.9554 18.1191 18.7968 18.1191 18.6381C18.1191 18.3768 17.9604 18.1388 17.6431 17.9241C17.3351 17.7188 16.8964 17.5648 16.3271 17.4621C15.3098 17.2848 14.5631 17.0794 14.0871 16.8461C13.6111 16.6128 13.3731 16.2861 13.3731 15.8661C13.3731 15.5954 13.4898 15.3668 13.7231 15.1801C13.9658 14.9934 14.3951 14.8068 15.0111 14.6201L15.0391 14.5641C14.3298 14.0601 13.9751 13.4114 13.9751 12.6181C13.9751 12.1888 14.0638 11.7828 14.2411 11.4001C14.4184 11.0081 14.6564 10.6674 14.9551 10.3781C15.2631 10.0794 15.6178 9.84608 16.0191 9.67808C16.4298 9.51008 16.8591 9.42608 17.3071 9.42608C17.9978 9.42608 18.5764 9.67808 19.0431 10.1821C19.4818 9.68741 19.9064 9.44008 20.3171 9.44008C20.6158 9.44008 20.8771 9.53341 21.1011 9.72008C21.3251 9.89741 21.4371 10.1074 21.4371 10.3501C21.4371 10.5368 21.3718 10.6954 21.2411 10.8261C21.1198 10.9474 20.9658 11.0081 20.7791 11.0081C20.6391 11.0081 20.5271 10.9801 20.4431 10.9241C20.3684 10.8588 20.3031 10.7888 20.2471 10.7141C20.1911 10.6394 20.1258 10.5741 20.0511 10.5181C19.9858 10.4528 19.8924 10.4201 19.7711 10.4201C19.7058 10.4201 19.6451 10.4341 19.5891 10.4621C19.5331 10.4808 19.4304 10.5414 19.2811 10.6441C19.3278 10.7748 19.3604 10.9008 19.3791 11.0221C19.3978 11.1341 19.4071 11.2788 19.4071 11.4561C19.4071 12.4828 19.1224 13.3041 18.5531 13.9201C17.9838 14.5268 17.1998 14.8674 16.2011 14.9421C15.7531 14.9794 15.4311 15.0354 15.2351 15.1101C15.0484 15.1848 14.9551 15.2968 14.9551 15.4461C14.9551 15.6421 15.0578 15.7914 15.2631 15.8941C15.4778 15.9874 15.7438 16.0668 16.0611 16.1321C16.3784 16.1974 16.7191 16.2628 17.0831 16.3281C17.4471 16.3934 17.7878 16.4914 18.1051 16.6221C18.4224 16.7434 18.6838 16.9114 18.8891 17.1261C19.1038 17.3501 19.2111 17.6488 19.2111 18.0221ZM16.2711 14.3261C16.4951 14.3261 16.7144 14.2374 16.9291 14.0601C17.1438 13.8828 17.3351 13.6494 17.5031 13.3601C17.6804 13.0614 17.8204 12.7254 17.9231 12.3521C18.0258 11.9788 18.0771 11.5961 18.0771 11.2041C18.0771 10.8308 17.9931 10.5368 17.8251 10.3221C17.6571 10.0981 17.4378 9.98608 17.1671 9.98608C16.9524 9.98608 16.7331 10.0841 16.5091 10.2801C16.2851 10.4668 16.0798 10.7094 15.8931 11.0081C15.7158 11.3068 15.5711 11.6474 15.4591 12.0301C15.3471 12.4034 15.2911 12.7721 15.2911 13.1361C15.2911 13.4908 15.3798 13.7801 15.5571 14.0041C15.7344 14.2188 15.9724 14.3261 16.2711 14.3261Z" fill="#131313"/>
</svg>
