<svg width="24" height="24" viewBox="0 0 24 24" fill="none" xmlns="http://www.w3.org/2000/svg">
<path d="M2.29999 15.0002V6.74023H3.55999V15.0002H2.29999ZM3.97999 15.0002V6.74023H4.39999V15.0002H3.97999ZM4.81999 15.0002V6.74023H5.23999V15.0002H4.81999ZM6.49999 15.0002V6.74023H6.91999V15.0002H6.49999ZM7.33999 15.0002V6.74023H8.59999V15.0002H7.33999ZM6.17799 18.5142H5.12799L4.80599 19.4662H4.44199L5.63199 16.1622H5.67399L6.87799 19.4662H6.49999L6.17799 18.5142ZM6.07999 18.2342L5.65999 17.0022L5.22599 18.2342H6.07999Z" fill="#131313"/>
<path d="M9.02655 15.0002V6.74023H9.44655V15.0002H9.02655ZM10.7066 15.0002V6.74023H11.1266V15.0002H10.7066ZM11.5466 15.0002V6.74023H11.9666V15.0002H11.5466ZM13.2266 15.0002V6.74023H13.6466V15.0002H13.2266ZM14.9066 15.0002V6.74023H15.3266V15.0002H14.9066ZM15.7466 15.0002V6.74023H16.1666V15.0002H15.7466ZM16.5866 15.0002V6.74023H17.0066V15.0002H16.5866ZM17.4266 15.0002V6.74023H17.8466V15.0002H17.4266ZM19.1066 15.0002V6.74023H20.3666V15.0002H19.1066ZM20.7866 15.0002V6.74023H22.0466V15.0002H20.7866ZM16.9226 17.3382C16.8852 17.3289 16.8386 17.3242 16.7826 17.3242C16.6146 17.3242 16.4746 17.3615 16.3626 17.4362C16.4279 17.5575 16.4606 17.6882 16.4606 17.8282C16.4606 17.9869 16.4232 18.1269 16.3486 18.2482C16.2832 18.3789 16.1852 18.4815 16.0546 18.5562C15.9332 18.6215 15.7886 18.6542 15.6206 18.6542C15.4899 18.6542 15.3686 18.6309 15.2566 18.5842C15.1912 18.6589 15.1586 18.7335 15.1586 18.8082C15.1586 18.8922 15.2099 18.9529 15.3126 18.9902C15.4246 19.0275 15.6159 19.0462 15.8866 19.0462C16.2226 19.0462 16.4512 19.0929 16.5726 19.1862C16.6939 19.2889 16.7546 19.4429 16.7546 19.6482C16.7546 19.8535 16.6752 20.0215 16.5166 20.1522C16.3486 20.2922 16.0872 20.3622 15.7326 20.3622C15.3872 20.3622 15.1212 20.3109 14.9346 20.2082C14.7386 20.1055 14.6406 19.9515 14.6406 19.7462C14.6406 19.6249 14.6779 19.5175 14.7526 19.4242C14.8179 19.3309 14.9066 19.2609 15.0186 19.2142C14.8972 19.1395 14.8366 19.0322 14.8366 18.8922C14.8366 18.7522 14.9066 18.6075 15.0466 18.4582C14.9626 18.3835 14.8972 18.2902 14.8506 18.1782C14.8132 18.0755 14.7946 17.9589 14.7946 17.8282C14.7946 17.6789 14.8272 17.5389 14.8926 17.4082C14.9579 17.2775 15.0559 17.1795 15.1866 17.1142C15.3079 17.0395 15.4526 17.0022 15.6206 17.0022C15.8726 17.0022 16.0779 17.0815 16.2366 17.2402C16.3112 17.1655 16.3952 17.1095 16.4886 17.0722C16.5726 17.0349 16.6706 17.0162 16.7826 17.0162L16.8666 17.0302L16.9226 17.3382ZM15.6206 18.3462C15.7699 18.3462 15.8959 18.2949 15.9986 18.1922C16.0919 18.0989 16.1386 17.9775 16.1386 17.8282C16.1386 17.6789 16.0919 17.5529 15.9986 17.4502C15.8959 17.3569 15.7699 17.3102 15.6206 17.3102C15.4712 17.3102 15.3452 17.3569 15.2426 17.4502C15.1492 17.5529 15.1026 17.6789 15.1026 17.8282C15.1026 17.9775 15.1492 18.0989 15.2426 18.1922C15.3452 18.2949 15.4712 18.3462 15.6206 18.3462ZM16.4186 19.7042C16.4186 19.6202 16.4046 19.5549 16.3766 19.5082C16.3486 19.4615 16.2879 19.4242 16.1946 19.3962C16.1106 19.3775 15.9799 19.3682 15.8026 19.3682C15.5599 19.3682 15.3639 19.3449 15.2146 19.2982C15.1306 19.3542 15.0699 19.4102 15.0326 19.4662C15.0046 19.5315 14.9906 19.6109 14.9906 19.7042C14.9906 19.8255 15.0559 19.9189 15.1866 19.9842C15.3172 20.0495 15.4992 20.0822 15.7326 20.0822C15.9659 20.0822 16.1386 20.0495 16.2506 19.9842C16.3626 19.9095 16.4186 19.8162 16.4186 19.7042Z" fill="#131313"/>
</svg>
