<svg width="24" height="24" viewBox="0 0 24 24" fill="none" xmlns="http://www.w3.org/2000/svg">
<path d="M4.03706 16.7202L11.1911 6.3042L9.66506 9.2862L4.58306 16.7202H4.03706ZM3.01506 17.0002V16.6502H6.01106V17.0002H3.01506ZM8.05506 17.0002V16.6502H11.8211V17.0002H8.05506ZM6.59906 13.5422V13.1502H10.3651V13.5422H6.59906ZM8.99306 16.8602L9.67906 9.3422H9.62306L11.1911 6.3042H11.4851L10.7151 16.8602H8.99306ZM14.6905 21.5642C13.7572 21.5642 13.0245 21.3729 12.4925 20.9902C11.9605 20.6075 11.6945 20.1035 11.6945 19.4782C11.6945 19.1982 11.7738 18.9135 11.9325 18.6242C12.0912 18.3442 12.3992 18.0689 12.8565 17.7982C13.3232 17.5275 14.0092 17.2849 14.9145 17.0702L15.3485 17.2242C14.6485 17.4389 14.1072 17.6629 13.7245 17.8962C13.3512 18.1295 13.0898 18.3769 12.9405 18.6382C12.8005 18.9089 12.7305 19.1935 12.7305 19.4922C12.7305 20.0242 12.9078 20.4302 13.2625 20.7102C13.6265 20.9995 14.1492 21.1442 14.8305 21.1442C15.3812 21.1442 15.8572 21.0602 16.2585 20.8922C16.6692 20.7335 17.0052 20.5235 17.2665 20.2622C17.5372 20.0102 17.7378 19.7395 17.8685 19.4502C18.0085 19.1609 18.0785 18.8949 18.0785 18.6522C18.0785 18.3629 17.9945 18.1389 17.8265 17.9802C17.6678 17.8215 17.4532 17.7329 17.1825 17.7142L14.0605 17.4622C13.8832 17.4435 13.6732 17.3829 13.4305 17.2802C13.1972 17.1775 12.9872 17.0235 12.8005 16.8182C12.6232 16.6129 12.5345 16.3515 12.5345 16.0342C12.5345 15.7262 12.6138 15.4649 12.7725 15.2502C12.9405 15.0355 13.1365 14.8582 13.3605 14.7182C13.5938 14.5689 13.8178 14.4569 14.0325 14.3822C14.2472 14.3075 14.4058 14.2609 14.5085 14.2422L14.4805 14.6762C13.8552 14.7882 13.5425 15.0729 13.5425 15.5302C13.5425 15.7169 13.6265 15.8569 13.7945 15.9502C13.9718 16.0342 14.3358 16.0949 14.8865 16.1322L17.0985 16.2722C17.6398 16.3095 18.0318 16.5009 18.2745 16.8462C18.5172 17.1915 18.6385 17.6162 18.6385 18.1202C18.6385 18.5309 18.5592 18.9369 18.4005 19.3382C18.2512 19.7489 18.0178 20.1222 17.7005 20.4582C17.3832 20.7942 16.9725 21.0602 16.4685 21.2562C15.9738 21.4615 15.3812 21.5642 14.6905 21.5642ZM15.8245 15.0962C15.3205 15.0962 14.9098 14.9935 14.5925 14.7882C14.2845 14.5829 14.0605 14.3262 13.9205 14.0182C13.7805 13.7009 13.7105 13.3835 13.7105 13.0662C13.7105 12.5809 13.8458 12.1469 14.1165 11.7642C14.3872 11.3815 14.7418 11.0829 15.1805 10.8682C15.6192 10.6442 16.0812 10.5322 16.5665 10.5322C17.0052 10.5322 17.3692 10.6209 17.6585 10.7982C17.9572 10.9662 18.1812 11.2042 18.3305 11.5122C18.4892 11.8109 18.5685 12.1515 18.5685 12.5342C18.5685 13.0475 18.4425 13.5002 18.1905 13.8922C17.9385 14.2749 17.6025 14.5735 17.1825 14.7882C16.7718 14.9935 16.3192 15.0962 15.8245 15.0962ZM15.7125 14.8162C15.9738 14.8162 16.2025 14.7275 16.3985 14.5502C16.6038 14.3635 16.7765 14.1255 16.9165 13.8362C17.0565 13.5469 17.1592 13.2295 17.2245 12.8842C17.2992 12.5389 17.3365 12.1982 17.3365 11.8622C17.3365 11.5075 17.2852 11.2462 17.1825 11.0782C17.0892 10.9009 16.9165 10.8122 16.6645 10.8122C16.4032 10.8122 16.1698 10.8962 15.9645 11.0642C15.7685 11.2322 15.6005 11.4562 15.4605 11.7362C15.3205 12.0069 15.2132 12.3149 15.1385 12.6602C15.0732 12.9962 15.0405 13.3369 15.0405 13.6822C15.0405 14.0369 15.0872 14.3169 15.1805 14.5222C15.2738 14.7182 15.4512 14.8162 15.7125 14.8162ZM18.5125 13.0522L18.4565 11.8342H18.5125C18.6432 11.4049 18.7925 11.0829 18.9605 10.8682C19.1378 10.6442 19.3478 10.5322 19.5905 10.5322C19.7772 10.5322 19.9265 10.5882 20.0385 10.7002C20.1598 10.8122 20.2205 10.9475 20.2205 11.1062C20.2205 11.2275 20.1785 11.3489 20.0945 11.4702C20.0105 11.5915 19.8798 11.6522 19.7025 11.6522C19.5718 11.6522 19.4738 11.6195 19.4085 11.5542C19.3432 11.4889 19.2872 11.4282 19.2405 11.3722C19.2032 11.3069 19.1612 11.2742 19.1145 11.2742C19.0212 11.2742 18.9278 11.4329 18.8345 11.7502C18.7505 12.0582 18.6432 12.4922 18.5125 13.0522Z" fill="#131313"/>
</svg>
