<svg width="24" height="24" viewBox="0 0 24 24" fill="none" xmlns="http://www.w3.org/2000/svg">
<path d="M4.47949 17V16.5522H4.70166C4.89762 16.5522 5.03776 16.5215 5.12207 16.46C5.25651 16.3665 5.4012 16.1501 5.55615 15.8105L9.49023 7.43652H9.74316L11.7188 15.3901C11.8577 15.9416 11.9535 16.2572 12.0059 16.3369C12.0583 16.4167 12.113 16.4714 12.1699 16.501C12.236 16.5352 12.3602 16.5522 12.5425 16.5522H12.9492V17H9.68848V16.5522H10.0918C10.3766 16.5522 10.5669 16.5374 10.6626 16.5078C10.7583 16.4782 10.8062 16.4178 10.8062 16.3267C10.8062 16.2332 10.7925 16.1307 10.7651 16.019L10.1499 13.4009H7.36426L6.27051 15.7695C6.14062 16.0612 6.07568 16.2424 6.07568 16.313C6.07568 16.4132 6.13379 16.4782 6.25 16.5078C6.36621 16.5374 6.60205 16.5522 6.95752 16.5522H7.22412L7.19678 17H4.47949ZM7.58643 12.8574H10.0234L9.1416 9.32666L7.58643 12.8574ZM15.0103 15.6841C14.6092 15.9142 14.4087 16.1478 14.4087 16.3848C14.4087 16.46 14.4406 16.5192 14.5044 16.5625C14.5682 16.6035 14.6229 16.6377 14.6685 16.665C14.7163 16.6901 14.7801 16.7163 14.8599 16.7437C14.9396 16.771 15.0114 16.7961 15.0752 16.8188C15.1413 16.8394 15.2267 16.8621 15.3315 16.8872C15.4364 16.9123 15.5252 16.9339 15.5981 16.9521C15.6711 16.9681 15.7679 16.9886 15.8887 17.0137C16.0892 17.0547 16.3285 17.1003 16.6064 17.1504C17.7275 17.3532 18.2881 17.8306 18.2881 18.5825C18.2881 18.9904 18.1434 19.3561 17.854 19.6797C17.5646 20.0033 17.1818 20.2505 16.7056 20.4214C16.2316 20.5946 15.7736 20.6812 15.3315 20.6812C14.8895 20.6812 14.5374 20.647 14.2754 20.5786C14.0133 20.5125 13.7992 20.4271 13.6328 20.3223C13.4688 20.2174 13.3298 20.0967 13.2158 19.96C13.013 19.7161 12.9116 19.4849 12.9116 19.2661C12.9116 19.0496 12.9344 18.8787 12.98 18.7534C13.0233 18.6281 13.0802 18.5256 13.1509 18.4458C13.2215 18.366 13.299 18.2965 13.3833 18.2373C13.4699 18.1781 13.5553 18.1336 13.6396 18.104C13.8333 18.0379 13.9917 18.0015 14.1147 17.9946L14.2002 18.2886C13.9906 18.3228 13.8356 18.4424 13.7354 18.6475C13.6989 18.7249 13.6807 18.8229 13.6807 18.9414C13.6807 19.0599 13.7194 19.1932 13.7969 19.3413C13.8766 19.4917 13.9883 19.6307 14.1318 19.7583C14.4531 20.0477 14.8815 20.1924 15.417 20.1924C15.7542 20.1924 16.0755 20.1309 16.3809 20.0078C16.6885 19.8848 16.9334 19.723 17.1157 19.5225C17.3003 19.3219 17.3926 19.1237 17.3926 18.9277C17.3926 18.7318 17.3094 18.5791 17.1431 18.4697C16.979 18.3604 16.8081 18.2829 16.6304 18.2373C16.4549 18.194 16.2909 18.1519 16.1382 18.1108C15.9855 18.0721 15.8534 18.0368 15.7417 18.0049C15.63 17.9753 15.4728 17.9285 15.27 17.8647C15.0695 17.8032 14.91 17.7474 14.7915 17.6973C14.673 17.6471 14.5374 17.5822 14.3848 17.5024C14.2344 17.4227 14.1182 17.3441 14.0361 17.2666C13.8356 17.0775 13.7354 16.877 13.7354 16.665C13.7354 16.3483 13.9564 16.0407 14.3984 15.7422C14.46 15.7012 14.5477 15.6442 14.6616 15.5713C14.4292 15.4642 14.2492 15.2865 14.1216 15.0381C13.9963 14.7897 13.9336 14.5322 13.9336 14.2656C13.9336 13.9967 13.9701 13.7244 14.043 13.4487C14.1182 13.173 14.2264 12.9087 14.3677 12.6558C14.509 12.4028 14.6719 12.175 14.8564 11.9722C15.262 11.5256 15.7201 11.3022 16.2305 11.3022C16.4925 11.3022 16.7124 11.3421 16.8901 11.4219C17.0701 11.5016 17.2103 11.5643 17.3105 11.6099C17.5612 11.7215 17.8027 11.7773 18.0352 11.7773C18.1331 11.7773 18.2266 11.7215 18.3154 11.6099L18.4146 11.4971L18.6914 11.6372C18.6481 11.7397 18.5786 11.9049 18.4829 12.1328C18.3895 12.3584 18.32 12.5008 18.2744 12.5601C18.2311 12.617 18.1719 12.6455 18.0967 12.6455C17.9827 12.6455 17.7799 12.6182 17.4883 12.5635C17.5065 12.7321 17.5156 12.8927 17.5156 13.0454C17.5156 13.1981 17.4883 13.3963 17.4336 13.6401C17.3789 13.884 17.2935 14.13 17.1772 14.3784C17.061 14.6245 16.922 14.8467 16.7603 15.0449C16.3934 15.4984 15.9411 15.7251 15.4033 15.7251C15.2803 15.7251 15.1493 15.7114 15.0103 15.6841ZM15.4443 12.0952C15.2712 12.2957 15.1276 12.5544 15.0137 12.8711C14.8997 13.1878 14.8428 13.4772 14.8428 13.7393C14.8428 14.0013 14.8735 14.228 14.9351 14.4194C14.9966 14.6108 15.0729 14.7669 15.1641 14.8877C15.36 15.1475 15.5446 15.2773 15.7178 15.2773C15.8932 15.2773 16.0573 15.1634 16.21 14.9355C16.5312 14.4548 16.6919 13.8407 16.6919 13.0933C16.6919 12.7515 16.6133 12.4495 16.4561 12.1875C16.2988 11.9232 16.1336 11.791 15.9604 11.791C15.7896 11.791 15.6175 11.8924 15.4443 12.0952Z" fill="#131313"/>
</svg>
