<svg width="24" height="24" viewBox="0 0 24 24" fill="none" xmlns="http://www.w3.org/2000/svg">
<path d="M2.23927 17V15.768L2.74327 15.656C2.9206 15.6093 3.05593 15.5347 3.14927 15.432C3.25193 15.32 3.34993 15.1427 3.44327 14.9L6.24327 7.18604H8.95927L11.7733 14.97C11.8759 15.2407 11.9693 15.4227 12.0533 15.516C12.1466 15.6093 12.2819 15.6747 12.4593 15.712L12.9073 15.796V17H7.90927V15.768L8.45527 15.684C8.62327 15.656 8.72593 15.586 8.76327 15.474C8.8006 15.3527 8.79127 15.1847 8.73527 14.97L8.49727 14.2H5.43127L5.19327 14.914C5.12793 15.11 5.09993 15.2827 5.10927 15.432C5.12793 15.572 5.27727 15.6653 5.55727 15.712L6.06127 15.796V17H2.23927ZM5.87927 12.856H8.11927L7.06927 9.39804H7.02727L5.87927 12.856ZM16.7097 20.22C16.075 20.22 15.5244 20.178 15.0577 20.094C14.6004 20.0193 14.2224 19.9027 13.9237 19.744C13.6344 19.5947 13.415 19.4033 13.2657 19.17C13.1257 18.946 13.0557 18.6847 13.0557 18.386C13.0557 18.05 13.135 17.7793 13.2937 17.574C13.4524 17.3687 13.6624 17.2053 13.9237 17.084C14.185 16.9627 14.4557 16.86 14.7357 16.776V16.734C14.325 16.6127 14.0357 16.44 13.8677 16.216C13.709 15.992 13.6297 15.7633 13.6297 15.53C13.6297 15.2873 13.695 15.068 13.8257 14.872C13.9564 14.676 14.157 14.4893 14.4277 14.312V14.27C14.0917 14.0647 13.8257 13.8033 13.6297 13.486C13.4337 13.1593 13.3357 12.7673 13.3357 12.31C13.3357 11.6753 13.5037 11.1573 13.8397 10.756C14.185 10.3547 14.633 10.0607 15.1837 9.87403C15.7437 9.67803 16.355 9.58004 17.0177 9.58004C17.167 9.58004 17.349 9.58937 17.5637 9.60804C17.7877 9.62671 18.021 9.65937 18.2637 9.70604C18.5157 9.75271 18.749 9.82737 18.9637 9.93004C19.253 9.37937 19.5424 8.94071 19.8317 8.61404C20.121 8.27804 20.471 8.11003 20.8817 8.11003C21.0497 8.11003 21.2177 8.14737 21.3857 8.22204C21.5537 8.28737 21.689 8.39936 21.7917 8.55803C21.9037 8.70736 21.9597 8.90337 21.9597 9.14604C21.9597 9.42604 21.8757 9.67804 21.7077 9.90204C21.5397 10.1167 21.3157 10.224 21.0357 10.224C20.8864 10.224 20.7557 10.182 20.6437 10.098C20.5317 10.014 20.4244 9.90671 20.3217 9.77604L20.1677 9.55204C20.0744 9.64537 19.9857 9.76204 19.9017 9.90204C19.827 10.042 19.7524 10.182 19.6777 10.322C19.9297 10.5647 20.1537 10.8307 20.3497 11.12C20.5457 11.4093 20.6437 11.792 20.6437 12.268C20.6437 12.744 20.499 13.1827 20.2097 13.584C19.9297 13.976 19.519 14.2933 18.9777 14.536C18.4457 14.7693 17.797 14.886 17.0317 14.886C16.761 14.886 16.5184 14.872 16.3037 14.844C16.0984 14.8067 15.8977 14.76 15.7017 14.704C15.6457 14.76 15.599 14.816 15.5617 14.872C15.5244 14.928 15.5057 14.998 15.5057 15.082C15.5057 15.222 15.5477 15.3293 15.6317 15.404C15.7157 15.4693 15.8277 15.5113 15.9677 15.53C16.1077 15.5487 16.2664 15.558 16.4437 15.558H19.0337C19.8737 15.558 20.5084 15.7213 20.9377 16.048C21.367 16.3653 21.5817 16.8133 21.5817 17.392C21.5817 17.6067 21.549 17.8353 21.4837 18.078C21.4184 18.33 21.2924 18.582 21.1057 18.834C20.919 19.086 20.6437 19.3147 20.2797 19.52C19.925 19.7347 19.4537 19.9027 18.8657 20.024C18.287 20.1547 17.5684 20.22 16.7097 20.22ZM17.0037 18.918C17.3397 18.918 17.6244 18.876 17.8577 18.792C18.1004 18.708 18.2824 18.5913 18.4037 18.442C18.5344 18.2927 18.5997 18.1247 18.5997 17.938C18.5997 17.7513 18.5344 17.6113 18.4037 17.518C18.2824 17.4247 18.1004 17.378 17.8577 17.378H16.0097C15.9164 17.4713 15.837 17.5833 15.7717 17.714C15.7064 17.8447 15.6737 17.9847 15.6737 18.134C15.6737 18.414 15.7857 18.6147 16.0097 18.736C16.243 18.8573 16.5744 18.918 17.0037 18.918ZM17.0037 13.444C17.2744 13.444 17.4797 13.3413 17.6197 13.136C17.769 12.9307 17.8437 12.632 17.8437 12.24C17.8437 11.7733 17.769 11.442 17.6197 11.246C17.4704 11.0407 17.2604 10.938 16.9897 10.938C16.6724 10.938 16.453 11.064 16.3317 11.316C16.2104 11.568 16.1497 11.8667 16.1497 12.212C16.1497 12.5853 16.2197 12.884 16.3597 13.108C16.509 13.332 16.7237 13.444 17.0037 13.444Z" fill="#131313"/>
</svg>
