<svg width="24" height="24" viewBox="0 0 24 24" fill="none" xmlns="http://www.w3.org/2000/svg">
<path d="M9.11759 7.14404L11.7496 16.3L12.9396 16.468L12.8696 17H9.45359L9.52359 16.468L10.6856 16.3L9.97159 13.696H6.51359L5.60359 16.3L6.87759 16.468L6.80759 17H3.67159L3.74159 16.468L4.84759 16.3L8.10959 7.22804L9.11759 7.14404ZM6.75159 13.038H9.78959L8.47359 8.19404H8.44559L6.75159 13.038ZM18.6625 12.688L18.5785 12.674L18.2145 14.13C18.0559 14.7833 17.8692 15.3387 17.6545 15.796C17.4492 16.244 17.1925 16.58 16.8845 16.804C16.5859 17.028 16.2079 17.14 15.7505 17.14C15.2559 17.14 14.8545 17.0047 14.5465 16.734C14.2385 16.4633 14.0145 16.0993 13.8745 15.642C13.7345 15.1847 13.6645 14.6853 13.6645 14.144C13.6645 13.2387 13.8045 12.4593 14.0845 11.806C14.3645 11.1433 14.7472 10.6347 15.2325 10.28C15.7179 9.91604 16.2639 9.73404 16.8705 9.73404C17.1692 9.73404 17.4632 9.76204 17.7525 9.81804C18.0512 9.87404 18.3405 9.95804 18.6205 10.07L19.1245 9.74804L19.4465 9.87404L19.1945 15.768C19.1665 16.3093 19.1012 16.8087 18.9985 17.266C18.8959 17.7327 18.7512 18.1433 18.5645 18.498C18.3779 18.862 18.1492 19.17 17.8785 19.422C17.6079 19.6833 17.2905 19.8793 16.9265 20.01C16.5719 20.15 16.1752 20.22 15.7365 20.22C15.4472 20.22 15.1765 20.192 14.9245 20.136C14.6725 20.08 14.4485 19.996 14.2525 19.884C14.0659 19.7813 13.9212 19.646 13.8185 19.478C13.7159 19.3193 13.6645 19.1373 13.6645 18.932C13.6645 18.6613 13.7345 18.4513 13.8745 18.302C14.0145 18.1527 14.1919 18.078 14.4065 18.078C14.4999 18.078 14.5839 18.0873 14.6585 18.106C14.7425 18.134 14.8219 18.1713 14.8965 18.218C14.9712 18.274 15.0319 18.3347 15.0785 18.4L14.9805 18.736C14.9245 18.9133 14.9105 19.0673 14.9385 19.198C14.9665 19.338 15.0552 19.4407 15.2045 19.506C15.3539 19.5713 15.5825 19.604 15.8905 19.604C16.3199 19.604 16.7072 19.478 17.0525 19.226C17.3979 18.974 17.6825 18.582 17.9065 18.05C18.1305 17.5273 18.2799 16.8553 18.3545 16.034L18.6625 12.688ZM15.8905 16.342C16.1332 16.342 16.3432 16.2907 16.5205 16.188C16.7072 16.076 16.8752 15.894 17.0245 15.642C17.1739 15.3807 17.3232 15.0307 17.4725 14.592C17.6219 14.144 17.7852 13.5887 17.9625 12.926L18.5365 10.812C18.3499 10.7093 18.1025 10.6253 17.7945 10.56C17.4959 10.4853 17.2159 10.448 16.9545 10.448C16.6185 10.448 16.3059 10.5367 16.0165 10.714C15.7365 10.882 15.4939 11.1293 15.2885 11.456C15.0832 11.7733 14.9199 12.156 14.7985 12.604C14.6865 13.0427 14.6305 13.5327 14.6305 14.074C14.6305 14.83 14.7332 15.3993 14.9385 15.782C15.1532 16.1553 15.4705 16.342 15.8905 16.342Z" fill="#131313"/>
</svg>
