<svg width="24" height="24" viewBox="0 0 24 24" fill="none" xmlns="http://www.w3.org/2000/svg">
<path d="M1.88358 17.0001L8.02958 7.06006H10.3536L12.8176 17.0001H10.0736L9.68158 15.2221H5.84558L4.79558 17.0001H1.88358ZM7.20358 12.9121H9.17758L8.63158 10.4621L7.20358 12.9121ZM15.505 19.9401C14.945 19.9401 14.4037 19.8794 13.881 19.7581C13.3584 19.6461 12.957 19.5014 12.677 19.3241L13.545 17.1121C14.2077 17.4854 14.959 17.6721 15.799 17.6721C16.4897 17.6721 17.0217 17.5228 17.395 17.2241C17.7684 16.9254 18.0484 16.4214 18.235 15.7121V15.6981C17.6377 16.4448 16.9144 16.8181 16.065 16.8181C15.2157 16.8181 14.5437 16.5708 14.049 16.0761C13.5544 15.5814 13.307 14.9001 13.307 14.0321C13.307 13.4161 13.419 12.8468 13.643 12.3241C13.8764 11.8014 14.1937 11.3441 14.595 10.9521C15.0057 10.5601 15.4817 10.2568 16.023 10.0421C16.5644 9.81806 17.1524 9.70606 17.787 9.70606C18.627 9.70606 19.3317 9.94406 19.901 10.4201L20.265 9.86006H21.973C21.833 10.4108 21.7164 10.8914 21.623 11.3021C21.5297 11.7034 21.4504 12.0861 21.385 12.4501L20.853 15.4601C20.573 17.0374 19.9944 18.1761 19.117 18.8761C18.2397 19.5854 17.0357 19.9401 15.505 19.9401ZM16.975 14.5781C17.4137 14.5781 17.787 14.4474 18.095 14.1861C18.4124 13.9248 18.613 13.5468 18.697 13.0521L18.851 12.2121C18.6177 12.0348 18.2677 11.9461 17.801 11.9461C17.269 11.9461 16.835 12.1048 16.499 12.4221C16.163 12.7394 15.995 13.1501 15.995 13.6541C15.995 13.9434 16.079 14.1721 16.247 14.3401C16.4244 14.4988 16.667 14.5781 16.975 14.5781Z" fill="#131313"/>
</svg>
