<svg width="24" height="24" viewBox="0 0 24 24" fill="none" xmlns="http://www.w3.org/2000/svg">
<path d="M3.83991 17.0001L7.89991 7.06006H8.43191L12.3239 17.0001H11.7219L10.5879 14.0881H5.61791L4.44191 17.0001H3.83991ZM5.82791 13.5841H10.4059L8.16591 7.77406L5.82791 13.5841ZM16.2194 19.9401C15.8274 19.9401 15.4354 19.8981 15.0434 19.8141C14.6607 19.7301 14.3294 19.6041 14.0494 19.4361L14.2454 18.9041C14.5347 19.0814 14.8567 19.2074 15.2114 19.2821C15.5754 19.3661 15.9161 19.4081 16.2334 19.4081C17.1574 19.4081 17.8201 19.1654 18.2214 18.6801C18.6321 18.2041 18.8374 17.4294 18.8374 16.3561L18.8514 14.9421C18.6087 15.5674 18.2447 16.0714 17.7594 16.4541C17.2834 16.8368 16.7421 17.0281 16.1354 17.0281C15.2954 17.0281 14.6467 16.7341 14.1894 16.1461C13.7321 15.5581 13.5034 14.7881 13.5034 13.8361C13.5034 13.0801 13.6341 12.4128 13.8954 11.8341C14.1661 11.2461 14.5394 10.7888 15.0154 10.4621C15.4914 10.1354 16.0561 9.97206 16.7094 9.97206C17.2041 9.97206 17.6381 10.0934 18.0114 10.3361C18.3941 10.5694 18.6601 10.8681 18.8094 11.2321L18.9354 10.0981H19.3834V16.2861C19.3834 17.5554 19.1267 18.4794 18.6134 19.0581C18.1094 19.6461 17.3114 19.9401 16.2194 19.9401ZM16.7234 10.5041C16.2007 10.5041 15.7387 10.6394 15.3374 10.9101C14.9454 11.1808 14.6421 11.5634 14.4274 12.0581C14.2127 12.5434 14.1054 13.1128 14.1054 13.7661C14.1054 14.6154 14.2874 15.2828 14.6514 15.7681C15.0247 16.2534 15.5381 16.4961 16.1914 16.4961C16.7047 16.4961 17.1574 16.3421 17.5494 16.0341C17.9507 15.7168 18.2634 15.2874 18.4874 14.7461C18.7207 14.2048 18.8374 13.5981 18.8374 12.9261C18.8374 12.1701 18.6461 11.5774 18.2634 11.1481C17.8901 10.7188 17.3767 10.5041 16.7234 10.5041Z" fill="#131313"/>
</svg>
