<svg width="24" height="24" viewBox="0 0 24 24" fill="none" xmlns="http://www.w3.org/2000/svg">
<path d="M2.53896 17.0001L8.48896 7.06006H9.69296L11.947 17.0001H10.561L10.043 14.5221H5.49296L4.03696 17.0001H2.53896ZM6.19296 13.3181H9.79096L8.82496 8.79606L6.19296 13.3181ZM15.1499 19.9401C14.7019 19.9401 14.2586 19.8981 13.8199 19.8141C13.3906 19.7301 13.0406 19.5994 12.7699 19.4221L13.2179 18.2461C13.8152 18.5728 14.4966 18.7361 15.2619 18.7361C16.0832 18.7361 16.7179 18.5308 17.1659 18.1201C17.6139 17.7188 17.9359 17.0514 18.1319 16.1181L18.2999 15.2501C17.9639 15.8381 17.5719 16.2674 17.1239 16.5381C16.6759 16.8088 16.1766 16.9441 15.6259 16.9441C14.8792 16.9441 14.2819 16.7341 13.8339 16.3141C13.3859 15.8848 13.1619 15.2734 13.1619 14.4801C13.1619 13.8361 13.2692 13.2341 13.4839 12.6741C13.6986 12.1141 13.9972 11.6241 14.3799 11.2041C14.7626 10.7841 15.2106 10.4574 15.7239 10.2241C16.2372 9.99073 16.7926 9.87406 17.3899 9.87406C17.7912 9.87406 18.1692 9.93473 18.5239 10.0561C18.8879 10.1774 19.1772 10.3361 19.3919 10.5321L19.6299 10.0001H20.5959C20.4932 10.4481 20.3999 10.8774 20.3159 11.2881C20.2319 11.6894 20.1572 12.0861 20.0919 12.4781L19.4899 15.9221C19.2472 17.3128 18.7759 18.3301 18.0759 18.9741C17.3852 19.6181 16.4099 19.9401 15.1499 19.9401ZM15.9059 15.7541C16.3539 15.7541 16.7692 15.6281 17.1519 15.3761C17.5439 15.1241 17.8706 14.7741 18.1319 14.3261C18.4026 13.8781 18.5939 13.3508 18.7059 12.7441L18.9019 11.5681C18.5472 11.2321 18.0479 11.0641 17.4039 11.0641C16.8066 11.0641 16.2932 11.2181 15.8639 11.5261C15.4439 11.8341 15.1172 12.2354 14.8839 12.7301C14.6599 13.2248 14.5479 13.7474 14.5479 14.2981C14.5479 14.7741 14.6646 15.1381 14.8979 15.3901C15.1312 15.6328 15.4672 15.7541 15.9059 15.7541Z" fill="#131313"/>
</svg>
