<svg width="24" height="24" viewBox="0 0 24 24" fill="none" xmlns="http://www.w3.org/2000/svg">
<path d="M11.0913 16.5099C10.9979 16.2952 10.9279 16.0479 10.8813 15.7679C10.8439 15.4786 10.8019 15.2172 10.7553 14.9839C10.7553 14.9466 10.7739 14.9279 10.8113 14.9279C10.8019 14.8906 10.7973 14.8532 10.7973 14.8159C10.7973 14.7786 10.7739 14.7506 10.7273 14.7319C10.6713 14.5732 10.6433 14.4052 10.6433 14.2279C10.6433 14.0412 10.6059 13.8732 10.5313 13.7239C10.5033 13.4439 10.4519 13.1592 10.3773 12.8699C10.3119 12.5712 10.2559 12.2819 10.2093 12.0019C10.1066 11.7219 10.0319 11.4326 9.98527 11.1339C9.9386 10.8259 9.87327 10.5272 9.78927 10.2379C9.78927 10.2192 9.78927 10.2052 9.78927 10.1959C9.7986 10.1866 9.80327 10.1772 9.80327 10.1679C9.80327 10.1586 9.80793 10.1492 9.81727 10.1399C9.81727 10.0652 9.78927 9.99989 9.73327 9.94389C9.67727 9.87856 9.64927 9.79922 9.64927 9.70589C9.5746 9.25789 9.48593 8.82389 9.38327 8.40389C9.2806 7.97456 9.17327 7.53589 9.06127 7.08789C8.94927 7.08789 8.80927 7.09722 8.64127 7.11589C8.4826 7.13456 8.21193 7.14389 7.82927 7.14389H7.59127C7.50727 7.19989 7.42327 7.28389 7.33927 7.39589C7.2646 7.50789 7.1946 7.62922 7.12927 7.75989C7.06393 7.89056 7.00793 8.02589 6.96127 8.16589C6.9146 8.29656 6.8866 8.41322 6.87727 8.51589C6.89593 8.48789 6.90993 8.45989 6.91927 8.43189C6.9286 8.39456 6.9426 8.36656 6.96127 8.34789C6.8586 8.87989 6.74193 9.40256 6.61127 9.91589C6.48993 10.4292 6.36393 10.9519 6.23327 11.4839V11.3159C6.2426 11.2879 6.24727 11.2412 6.24727 11.1759C6.04193 11.9972 5.8646 12.8559 5.71527 13.7519C5.56593 14.6386 5.41193 15.4926 5.25327 16.3139C5.30927 16.1086 5.36527 15.8566 5.42127 15.5579C5.4866 15.2499 5.54727 14.9559 5.60327 14.6759C5.65927 14.3959 5.7106 14.1579 5.75727 13.9619C5.80393 13.7566 5.84127 13.6539 5.86927 13.6539C5.80393 14.1019 5.71993 14.5826 5.61727 15.0959C5.52393 15.6092 5.43993 16.0899 5.36527 16.5379C5.35593 16.5752 5.33727 16.6079 5.30927 16.6359C5.28127 16.6639 5.26727 16.6919 5.26727 16.7199C5.26727 16.7386 5.28127 16.7619 5.30927 16.7899L5.25327 16.8739C5.2346 16.9299 5.2206 16.9532 5.21127 16.9439C5.21127 16.9346 5.21127 16.9392 5.21127 16.9579C5.21127 16.9766 5.2206 16.9859 5.23927 16.9859C5.25793 16.9859 5.27193 16.9952 5.28127 17.0139C5.50527 16.9859 5.7386 16.9766 5.98127 16.9859C6.22393 16.9859 6.46193 16.9812 6.69527 16.9719L6.72327 16.9999C6.7326 16.9906 6.76527 16.9859 6.82127 16.9859C6.86793 16.9859 6.91927 16.9906 6.97527 16.9999C7.03127 17.0186 7.0826 17.0279 7.12927 17.0279C7.20393 17.0279 7.2646 17.0046 7.31127 16.9579C7.33927 16.8366 7.37193 16.6919 7.40927 16.5239C7.4466 16.3559 7.48393 16.1879 7.52127 16.0199C7.56793 15.8426 7.60993 15.6699 7.64727 15.5019C7.6846 15.3339 7.71727 15.1846 7.74527 15.0539C7.7826 14.9699 7.8666 14.9279 7.99727 14.9279C8.05327 14.9279 8.10927 14.9372 8.16527 14.9559C8.2306 14.9652 8.29127 14.9699 8.34727 14.9699C8.34727 14.9606 8.3566 14.9559 8.37527 14.9559C8.4126 14.9559 8.44993 14.9512 8.48727 14.9419C8.39393 14.9232 8.3006 14.9139 8.20727 14.9139C8.12327 14.9046 8.0346 14.8859 7.94127 14.8579C8.04393 14.8112 8.15127 14.7926 8.26327 14.8019C8.3846 14.8019 8.50127 14.7972 8.61327 14.7879L8.66927 14.8439C8.72527 14.9839 8.78127 15.1472 8.83727 15.3339C8.9026 15.5112 8.96327 15.6979 9.01927 15.8939C9.0846 16.0806 9.14527 16.2672 9.20127 16.4539C9.2666 16.6406 9.32727 16.8086 9.38327 16.9579C9.4766 16.9859 9.59793 16.9999 9.74727 16.9999C9.8966 16.9999 10.0739 17.0046 10.2793 17.0139C10.6246 17.0326 10.8533 17.0466 10.9653 17.0559C11.0773 17.0652 11.1519 17.0699 11.1893 17.0699C11.2079 17.0699 11.2266 17.0419 11.2453 16.9859C11.2173 16.9019 11.1893 16.8226 11.1613 16.7479C11.1333 16.6732 11.1099 16.5939 11.0913 16.5099ZM10.8253 16.7199C10.6946 16.7292 10.5733 16.7339 10.4613 16.7339C10.3586 16.7339 10.2606 16.7339 10.1673 16.7339C9.8406 16.7339 9.6586 16.7199 9.62127 16.6919C9.6026 16.7106 9.57927 16.7246 9.55127 16.7339C9.5326 16.7339 9.51393 16.7386 9.49527 16.7479V16.6359H9.55127C9.4766 16.5239 9.41127 16.3886 9.35527 16.2299C9.29927 16.0712 9.24793 15.9032 9.20127 15.7259C9.1546 15.5486 9.10793 15.3759 9.06127 15.2079C9.0146 15.0399 8.96327 14.8906 8.90727 14.7599L8.93527 14.7039C8.93527 14.6572 8.91193 14.6246 8.86527 14.6059C8.82793 14.5779 8.79993 14.5546 8.78127 14.5359C8.58527 14.5546 8.37527 14.5592 8.15127 14.5499C7.92727 14.5406 7.73593 14.5826 7.57727 14.6759L7.64727 14.7879C7.6006 14.8999 7.5586 15.0399 7.52127 15.2079C7.49327 15.3666 7.4606 15.5299 7.42327 15.6979C7.38593 15.8659 7.34393 16.0292 7.29727 16.1879C7.2506 16.3466 7.1946 16.4772 7.12927 16.5799C6.87727 16.6359 6.6206 16.6872 6.35927 16.7339C6.10727 16.7712 5.84593 16.8132 5.57527 16.8599L5.51927 16.8319C5.56593 16.6079 5.62193 16.3792 5.68727 16.1459C5.7526 15.9032 5.81793 15.6606 5.88327 15.4179C5.9486 15.1659 6.0046 14.9186 6.05127 14.6759C6.10727 14.4332 6.13993 14.1952 6.14927 13.9619C6.09327 13.9806 6.06527 14.0179 6.06527 14.0739C6.06527 14.1206 6.0466 14.1672 6.00927 14.2139V14.1719C6.00927 14.1066 6.02327 14.0412 6.05127 13.9759C6.07927 13.9012 6.09327 13.8266 6.09327 13.7519C6.08393 13.7519 6.07927 13.7426 6.07927 13.7239C6.07927 13.7146 6.0746 13.7006 6.06527 13.6819C6.06527 13.6632 6.06527 13.6446 6.06527 13.6259C6.11193 13.5326 6.14927 13.4159 6.17727 13.2759C6.20527 13.1266 6.23327 12.9866 6.26127 12.8559C6.2706 12.8092 6.28927 12.7346 6.31727 12.6319C6.3546 12.5199 6.38727 12.4032 6.41527 12.2819C6.4526 12.1606 6.48527 12.0532 6.51327 11.9599C6.54127 11.8572 6.55527 11.7919 6.55527 11.7639C6.55527 11.7452 6.54593 11.6892 6.52727 11.5959C6.60193 11.4932 6.6486 11.3719 6.66727 11.2319C6.68593 11.0826 6.7046 10.9426 6.72327 10.8119H6.68127C6.76527 10.6346 6.8306 10.4526 6.87727 10.2659C6.92393 10.0792 6.96593 9.88789 7.00327 9.69189C7.0406 9.49589 7.07793 9.29989 7.11527 9.10389C7.1526 8.90789 7.20393 8.71189 7.26927 8.51589C7.3346 8.31989 7.3906 8.13789 7.43727 7.96989C7.48393 7.79256 7.52127 7.59189 7.54927 7.36789C7.84793 7.35856 8.08127 7.35389 8.24927 7.35389C8.4266 7.35389 8.54327 7.35389 8.59927 7.35389C8.59927 7.36322 8.58527 7.38189 8.55727 7.40989C8.57593 7.42856 8.6086 7.43789 8.65527 7.43789C8.6926 7.43789 8.72527 7.43789 8.75327 7.43789C8.7906 7.42856 8.82327 7.42389 8.85127 7.42389C8.93527 7.42389 8.97727 7.47522 8.97727 7.57789L9.04727 8.09589L9.03327 8.08189C9.1266 8.58589 9.2246 9.05722 9.32727 9.49589C9.42993 9.92522 9.4906 10.2892 9.50927 10.5879L9.53727 10.4899C9.5466 10.4899 9.55127 10.4992 9.55127 10.5179L9.56527 10.5599C9.58393 10.5599 9.59327 10.5459 9.59327 10.5179C9.59327 10.4526 9.57927 10.3872 9.55127 10.3219C9.52327 10.2566 9.50927 10.1866 9.50927 10.1119C9.50927 10.0746 9.52327 10.0279 9.55127 9.97189C9.5326 9.89722 9.52327 9.85522 9.52327 9.84589V9.78989C9.54193 9.98589 9.59793 10.1912 9.69127 10.4059C9.79393 10.6112 9.84527 10.8212 9.84527 11.0359V11.1199C9.92927 11.3719 9.9946 11.6519 10.0413 11.9599C10.0879 12.2586 10.1486 12.5432 10.2233 12.8139C10.2233 12.8326 10.2139 12.8466 10.1953 12.8559C10.1766 12.8652 10.1673 12.8792 10.1673 12.8979C10.1673 12.9072 10.1766 12.9212 10.1953 12.9399C10.1766 12.9586 10.1626 12.9679 10.1533 12.9679C10.1346 12.9306 10.1206 12.8932 10.1113 12.8559C10.1113 12.8186 10.1019 12.7766 10.0833 12.7299H10.1113V12.6879C10.1113 12.6506 10.0973 12.6179 10.0693 12.5899C10.0506 12.5526 10.0319 12.5199 10.0133 12.4919C9.77993 11.8106 9.65393 11.4699 9.63527 11.4699C9.6446 11.4886 9.64927 11.5072 9.64927 11.5259C9.64927 11.5352 9.65393 11.5492 9.66327 11.5679C9.74727 11.9226 9.82193 12.2119 9.88727 12.4359C9.9526 12.6506 10.0039 12.8326 10.0413 12.9819C10.0786 13.1219 10.1066 13.2339 10.1253 13.3179C10.1439 13.4019 10.1533 13.4766 10.1533 13.5419V13.5839C10.1533 13.6866 10.1813 13.8312 10.2373 14.0179C10.2933 14.2046 10.3586 14.4192 10.4333 14.6619C10.5173 14.9046 10.5966 15.1659 10.6713 15.4459C10.7553 15.7259 10.8206 16.0106 10.8673 16.2999L10.9373 16.7199H10.8253ZM8.33327 10.2939C8.30527 10.1446 8.26793 10.0699 8.22127 10.0699C8.19327 10.0699 8.16993 10.0979 8.15127 10.1539C8.14193 10.2099 8.13727 10.2566 8.13727 10.2939C8.13727 10.3406 8.14193 10.3686 8.15127 10.3779C8.08593 10.4432 8.05327 10.4992 8.05327 10.5459V10.6159C8.05327 10.7186 8.02527 10.8866 7.96927 11.1199C7.8666 11.5399 7.80593 11.8806 7.78727 12.1419C7.77793 12.4032 7.76393 12.5712 7.74527 12.6459L7.73127 12.6319C7.72193 12.6412 7.71727 12.6599 7.71727 12.6879V12.7439C7.71727 12.7626 7.70793 12.7812 7.68927 12.7999C7.67993 12.8092 7.67527 12.8372 7.67527 12.8839C7.67527 12.9492 7.69393 12.9819 7.73127 12.9819H7.91327C8.01593 12.9819 8.1326 12.9866 8.26327 12.9959C8.39393 13.0052 8.5106 13.0099 8.61327 13.0099C8.64127 13.0099 8.66927 13.0099 8.69727 13.0099C8.72527 13.0006 8.75327 12.9959 8.78127 12.9959L8.82327 12.9679C8.73927 12.6879 8.67393 12.3286 8.62727 11.8899C8.5806 11.4512 8.4826 10.9192 8.33327 10.2939ZM8.27727 10.5879C8.36127 10.7279 8.42193 10.9099 8.45927 11.1339C8.50593 11.3579 8.5386 11.5866 8.55727 11.8199C8.58527 12.0439 8.6086 12.2539 8.62727 12.4499C8.64593 12.6366 8.6786 12.7719 8.72527 12.8559L8.66927 12.8979H7.87127L7.81527 12.7439L7.78727 12.7579L7.81527 12.7019L7.84327 12.7299C7.8526 12.6739 7.87127 12.5572 7.89927 12.3799C7.92727 12.1932 7.95527 11.9972 7.98327 11.7919C8.0206 11.5866 8.0486 11.3952 8.06727 11.2179C8.09527 11.0312 8.10927 10.9099 8.10927 10.8539V10.7419C8.10927 10.6672 8.12327 10.6066 8.15127 10.5599C8.1886 10.5132 8.2166 10.4666 8.23527 10.4199C8.26327 10.4386 8.27727 10.4712 8.27727 10.5179V10.5879ZM5.81327 13.6119C5.88793 13.2852 5.9486 12.9586 5.99527 12.6319C6.05127 12.2959 6.1306 11.9646 6.23327 11.6379C6.1866 11.9459 6.13527 12.2726 6.07927 12.6179C6.02327 12.9539 5.95793 13.2806 5.88327 13.5979L5.81327 13.6119ZM5.22527 16.4259C5.2346 16.4072 5.23927 16.3886 5.23927 16.3699C5.23927 16.3512 5.24393 16.3326 5.25327 16.3139C5.24393 16.3326 5.23927 16.3512 5.23927 16.3699C5.23927 16.3886 5.2346 16.4072 5.22527 16.4259ZM17.4416 14.8299C17.4229 14.4752 17.3809 14.1159 17.3156 13.7519C17.2596 13.3786 17.2316 12.9959 17.2316 12.6039C17.2316 12.2959 17.2362 11.9972 17.2456 11.7079C17.2642 11.4092 17.2736 11.1106 17.2736 10.8119V10.3639V10.1679C17.2736 10.0839 17.2549 10.0139 17.2176 9.95789C17.1802 9.89256 17.0916 9.85989 16.9516 9.85989C16.8769 9.85989 16.7742 9.86456 16.6436 9.87389C16.5222 9.88322 16.3869 9.88789 16.2376 9.88789C16.0789 9.88789 15.9202 9.87856 15.7616 9.85989C15.6029 9.84122 15.4629 9.80389 15.3416 9.74789L15.3276 9.73389L15.2716 9.76189V10.0559C15.2716 10.1866 15.2669 10.2659 15.2576 10.2939C15.0989 10.1632 14.9122 10.0699 14.6976 10.0139C14.4829 9.95789 14.2636 9.92989 14.0396 9.92989C13.7689 9.92989 13.5029 9.97189 13.2416 10.0559C12.9802 10.1399 12.7656 10.2472 12.5976 10.3779C12.4669 10.4806 12.3642 10.6019 12.2896 10.7419C12.2242 10.8819 12.1542 10.9986 12.0796 11.0919C11.7529 11.4746 11.5382 11.8712 11.4356 12.2819C11.3329 12.6832 11.2816 13.1499 11.2816 13.6819C11.2816 13.9059 11.2862 14.1392 11.2956 14.3819C11.3142 14.6246 11.3422 14.8672 11.3796 15.1099C11.4169 15.3432 11.4682 15.5719 11.5336 15.7959C11.5989 16.0106 11.6829 16.2019 11.7856 16.3699C11.8696 16.5286 12.0002 16.6686 12.1776 16.7899C12.3642 16.9112 12.5696 17.0092 12.7936 17.0839C13.0176 17.1679 13.2416 17.2286 13.4656 17.2659C13.6989 17.3126 13.9089 17.3359 14.0956 17.3359C14.3102 17.3359 14.5156 17.2752 14.7116 17.1539C14.9169 17.0419 15.1036 16.9579 15.2716 16.9019C15.2809 16.9206 15.2856 16.9672 15.2856 17.0419V17.1959C15.2856 17.5226 15.2062 17.7792 15.0476 17.9659C14.8982 18.1619 14.6882 18.2599 14.4176 18.2599C14.2122 18.2599 14.0256 18.1899 13.8576 18.0499C13.6989 17.9192 13.6196 17.7326 13.6196 17.4899C13.5729 17.4899 13.4469 17.4946 13.2416 17.5039C13.0456 17.5132 12.8309 17.5226 12.5976 17.5319C12.3736 17.5506 12.1589 17.5646 11.9536 17.5739C11.7482 17.5926 11.6222 17.6066 11.5756 17.6159C11.5942 17.9052 11.6642 18.1666 11.7856 18.3999C11.9162 18.6332 12.0469 18.8386 12.1776 19.0159C12.2802 19.1466 12.3689 19.2259 12.4436 19.2539C12.5276 19.2912 12.6349 19.3472 12.7656 19.4219C12.8309 19.4592 12.8869 19.5012 12.9336 19.5479C12.9802 19.5946 13.0362 19.6366 13.1016 19.6739C13.3536 19.8139 13.6616 19.9072 14.0256 19.9539C14.3896 20.0099 14.7302 20.0379 15.0476 20.0379C15.3276 20.0379 15.5982 20.0006 15.8596 19.9259C16.1209 19.8512 16.3542 19.7299 16.5596 19.5619C16.7649 19.4032 16.9329 19.1932 17.0636 18.9319C17.1942 18.6799 17.2736 18.3672 17.3016 17.9939C17.3482 17.4059 17.3809 16.8646 17.3996 16.3699C17.4276 15.8752 17.4416 15.3619 17.4416 14.8299ZM16.9516 18.3999C16.8676 18.6799 16.7789 18.9132 16.6856 19.0999C16.5922 19.2866 16.4802 19.4359 16.3496 19.5479C16.2189 19.6692 16.0556 19.7532 15.8596 19.7999C15.6729 19.8466 15.4349 19.8699 15.1456 19.8699C14.8936 19.8699 14.6836 19.8372 14.5156 19.7719C14.3476 19.7159 14.1562 19.6366 13.9416 19.5339C13.7642 19.4499 13.5682 19.3799 13.3536 19.3239C13.1389 19.2679 12.9336 19.1839 12.7376 19.0719C12.5416 18.9692 12.3736 18.8152 12.2336 18.6099C12.0936 18.4139 12.0096 18.1292 11.9816 17.7559C12.1122 17.7372 12.2429 17.7232 12.3736 17.7139C12.5042 17.7046 12.6349 17.6999 12.7656 17.6999C12.8962 17.6999 13.0222 17.7046 13.1436 17.7139C13.2649 17.7326 13.3722 17.7606 13.4656 17.7979C13.5216 18.0219 13.6476 18.2132 13.8436 18.3719C14.0489 18.5306 14.2682 18.6099 14.5016 18.6099C14.6416 18.6099 14.7676 18.5679 14.8796 18.4839C15.0009 18.4092 15.1082 18.3066 15.2016 18.1759C15.2949 18.0452 15.3649 17.8959 15.4116 17.7279C15.4676 17.5599 15.4956 17.3826 15.4956 17.1959C15.4956 17.0186 15.4629 16.8832 15.3976 16.7899C15.3322 16.6872 15.2856 16.5659 15.2576 16.4259C14.9962 16.5379 14.7582 16.6499 14.5436 16.7619C14.3382 16.8646 14.0862 16.9159 13.7876 16.9159C13.6009 16.9159 13.3862 16.8692 13.1436 16.7759C12.9009 16.6826 12.6676 16.5519 12.4436 16.3839C12.2196 16.2066 12.0282 15.9919 11.8696 15.7399C11.7202 15.4879 11.6456 15.2032 11.6456 14.8859C11.6456 14.6992 11.6642 14.5172 11.7016 14.3399C11.7389 14.1626 11.7576 13.9806 11.7576 13.7939V13.4299C11.7576 13.0286 11.8042 12.6459 11.8976 12.2819C12.0002 11.9086 12.1309 11.5819 12.2896 11.3019C12.4576 11.0126 12.6442 10.7839 12.8496 10.6159C13.0642 10.4479 13.2836 10.3639 13.5076 10.3639C13.6382 10.3639 13.7736 10.3452 13.9136 10.3079C14.0536 10.2706 14.1656 10.2519 14.2496 10.2519C14.3429 10.2519 14.4456 10.2612 14.5576 10.2799C14.6789 10.2892 14.7956 10.3126 14.9076 10.3499C15.0196 10.3872 15.1176 10.4386 15.2016 10.5039C15.2856 10.5599 15.3416 10.6346 15.3696 10.7279C15.4069 10.7092 15.4209 10.6812 15.4116 10.6439C15.4022 10.5972 15.4302 10.5739 15.4956 10.5739C15.4956 10.5086 15.4816 10.4386 15.4536 10.3639C15.4256 10.2799 15.4116 10.2006 15.4116 10.1259C15.4116 10.0699 15.4209 10.0372 15.4396 10.0279C15.4676 10.0092 15.5049 9.99989 15.5516 9.99989C15.6916 9.99989 15.8456 10.0092 16.0136 10.0279C16.1816 10.0466 16.3589 10.0559 16.5456 10.0559C16.6016 10.0559 16.6576 10.0559 16.7136 10.0559C16.7789 10.0466 16.8396 10.0372 16.8956 10.0279C16.8956 10.0652 16.8956 10.0979 16.8956 10.1259C16.9049 10.1539 16.9096 10.1819 16.9096 10.2099C16.9096 10.3406 16.9002 10.4666 16.8816 10.5879C16.8629 10.7092 16.8536 10.8352 16.8536 10.9659C16.8536 11.2832 16.8956 11.6052 16.9796 11.9319C17.0636 12.2492 17.1056 12.5572 17.1056 12.8559V13.2339C17.1056 13.4672 17.1009 13.7052 17.0916 13.9479C17.0916 14.1812 17.0916 14.4146 17.0916 14.6479C17.0916 14.8252 17.0962 14.9886 17.1056 15.1379C17.1149 15.2779 17.1242 15.4226 17.1336 15.5719C17.1522 15.7212 17.1662 15.8799 17.1756 16.0479C17.1942 16.2066 17.2036 16.3932 17.2036 16.6079C17.2036 16.9066 17.1849 17.2099 17.1476 17.5179C17.1102 17.8352 17.0449 18.1292 16.9516 18.3999ZM15.4676 12.7579C15.4302 12.5712 15.3929 12.3939 15.3556 12.2259C15.3276 12.0486 15.2716 11.9179 15.1876 11.8339C15.0196 11.7592 14.8469 11.6892 14.6696 11.6239C14.4922 11.5492 14.2822 11.5026 14.0396 11.4839C13.9929 11.5026 13.9556 11.5352 13.9276 11.5819C13.9089 11.6192 13.8856 11.6379 13.8576 11.6379C13.8296 11.6379 13.8062 11.6379 13.7876 11.6379C13.7782 11.6286 13.7642 11.6239 13.7456 11.6239C13.4656 11.7919 13.2462 12.0159 13.0876 12.2959C12.9382 12.5759 12.8636 12.9026 12.8636 13.2759C12.8636 13.5186 12.9056 13.7799 12.9896 14.0599C13.0736 14.3306 13.1856 14.5826 13.3256 14.8159C13.4656 15.0492 13.6196 15.2452 13.7876 15.4039C13.9649 15.5532 14.1376 15.6279 14.3056 15.6279C14.5856 15.6279 14.8142 15.5859 14.9916 15.5019C15.1689 15.4086 15.3089 15.2826 15.4116 15.1239C15.5142 14.9652 15.5842 14.7786 15.6216 14.5639C15.6589 14.3492 15.6776 14.1206 15.6776 13.8779C15.6776 13.6539 15.6542 13.4672 15.6076 13.3179C15.5609 13.1686 15.5142 12.9819 15.4676 12.7579ZM14.5576 15.3759C14.3149 15.3759 14.1096 15.3199 13.9416 15.2079C13.7736 15.0959 13.6382 14.9512 13.5356 14.7739C13.4329 14.5872 13.3582 14.3819 13.3116 14.1579C13.2649 13.9246 13.2416 13.6959 13.2416 13.4719C13.2416 13.2572 13.2602 13.0472 13.2976 12.8419C13.3442 12.6272 13.4049 12.4359 13.4796 12.2679C13.5636 12.0999 13.6616 11.9646 13.7736 11.8619C13.8949 11.7592 14.0256 11.7079 14.1656 11.7079C14.5296 11.7079 14.8282 11.8899 15.0616 12.2539C15.3042 12.6086 15.4256 13.0706 15.4256 13.6399C15.4256 13.6959 15.4069 13.8126 15.3696 13.9899C15.3416 14.1672 15.2902 14.3539 15.2156 14.5499C15.1502 14.7459 15.0662 14.9279 14.9636 15.0959C14.8609 15.2546 14.7396 15.3479 14.5996 15.3759H14.5576Z" fill="#131313"/>
</svg>
