<svg width="24" height="24" viewBox="0 0 24 24" fill="none" xmlns="http://www.w3.org/2000/svg">
<path d="M3.11816 17.0001V16.3701C3.39816 16.3701 3.61282 16.2954 3.76216 16.1461C3.91149 15.9968 4.03749 15.7961 4.14016 15.5441C4.24282 15.2828 4.35482 14.9934 4.47616 14.6761L7.30416 6.93408H7.86416L10.9302 14.7881C11.0048 14.9654 11.0888 15.2081 11.1822 15.5161C11.2755 15.8148 11.3175 16.0714 11.3082 16.2861C11.4668 16.2674 11.6208 16.2581 11.7702 16.2581C11.9288 16.2488 12.0782 16.2394 12.2182 16.2301V17.0001H8.81616V16.3841C9.14282 16.3748 9.35749 16.3048 9.46016 16.1741C9.57216 16.0341 9.61416 15.8661 9.58616 15.6701C9.56749 15.4741 9.52082 15.2781 9.44616 15.0821L9.02616 13.9481L5.59616 14.0321L5.19016 15.2501C5.13416 15.4368 5.07349 15.6141 5.00816 15.7821C4.94282 15.9501 4.87749 16.1134 4.81216 16.2721C4.98016 16.2534 5.15749 16.2441 5.34416 16.2441C5.54016 16.2348 5.71282 16.2254 5.86216 16.2161V17.0001H3.11816ZM5.84816 13.2761H8.78816L7.90616 10.9101C7.79416 10.6021 7.68682 10.2988 7.58416 10.0001C7.48149 9.69208 7.38816 9.39808 7.30416 9.11808H7.29016C7.21549 9.35141 7.13149 9.60808 7.03816 9.88808C6.94482 10.1681 6.83749 10.4714 6.71616 10.7981L5.84816 13.2761ZM15.9379 20.7941C15.1166 20.7941 14.4539 20.7008 13.9499 20.5141C13.4552 20.3368 13.0959 20.1034 12.8719 19.8141C12.6572 19.5341 12.5499 19.2354 12.5499 18.9181C12.5499 18.6661 12.6059 18.4328 12.7179 18.2181C12.8392 18.0034 12.9979 17.8121 13.1939 17.6441C13.3899 17.4854 13.6092 17.3594 13.8519 17.2661C13.5252 17.1634 13.2779 17.0188 13.1099 16.8321C12.9419 16.6361 12.8579 16.3981 12.8579 16.1181C12.8579 15.8194 12.9746 15.5254 13.2079 15.2361C13.4506 14.9468 13.7959 14.7508 14.2439 14.6481C13.8239 14.4614 13.4879 14.1908 13.2359 13.8361C12.9839 13.4814 12.8532 13.0614 12.8439 12.5761C12.8346 12.0161 12.9746 11.5261 13.2639 11.1061C13.5626 10.6861 13.9406 10.3594 14.3979 10.1261C14.8646 9.89275 15.3499 9.77608 15.8539 9.77608C16.1432 9.77608 16.4419 9.81808 16.7499 9.90208C17.0579 9.97675 17.3379 10.0981 17.5899 10.2661C17.6926 9.99541 17.8279 9.74808 17.9959 9.52408C18.1639 9.30008 18.3599 9.12275 18.5839 8.99208C18.8172 8.86141 19.0599 8.79608 19.3119 8.79608C19.5826 8.79608 19.7879 8.86608 19.9279 9.00608C20.0679 9.14608 20.1379 9.33275 20.1379 9.56608C20.1379 9.64075 20.1146 9.73408 20.0679 9.84608C20.0306 9.94875 19.9606 10.0374 19.8579 10.1121C19.7552 10.1868 19.6152 10.2241 19.4379 10.2241C19.2886 10.2241 19.1532 10.1774 19.0319 10.0841C18.9199 9.98141 18.8499 9.86008 18.8219 9.72008C18.6259 9.75741 18.4626 9.87408 18.3319 10.0701C18.2106 10.2568 18.1312 10.4481 18.0939 10.6441C18.3366 10.8588 18.5232 11.1154 18.6539 11.4141C18.7939 11.7034 18.8639 12.0161 18.8639 12.3521C18.8639 12.8841 18.7192 13.3554 18.4299 13.7661C18.1499 14.1768 17.7812 14.4988 17.3239 14.7321C16.8666 14.9654 16.3719 15.0821 15.8399 15.0821C15.6812 15.0821 15.5319 15.0728 15.3919 15.0541C15.2519 15.0261 15.0979 15.0121 14.9299 15.0121C14.6312 15.0121 14.3839 15.0821 14.1879 15.2221C14.0012 15.3621 13.9312 15.5301 13.9779 15.7261C14.0246 15.9314 14.2206 16.0668 14.5659 16.1321C14.9112 16.1974 15.4106 16.2441 16.0639 16.2721C16.7826 16.3001 17.3986 16.3888 17.9119 16.5381C18.4346 16.6781 18.8359 16.8974 19.1159 17.1961C19.4052 17.4948 19.5499 17.9008 19.5499 18.4141C19.5499 18.7968 19.4426 19.1374 19.2279 19.4361C19.0226 19.7348 18.7426 19.9821 18.3879 20.1781C18.0426 20.3834 17.6552 20.5374 17.2259 20.6401C16.7966 20.7428 16.3672 20.7941 15.9379 20.7941ZM16.0639 20.1081C16.8199 20.1081 17.4032 19.9681 17.8139 19.6881C18.2339 19.4081 18.4439 19.0908 18.4439 18.7361C18.4439 18.4374 18.3412 18.2041 18.1359 18.0361C17.9306 17.8774 17.6412 17.7608 17.2679 17.6861C16.9039 17.6208 16.4746 17.5834 15.9799 17.5741C15.7372 17.5554 15.4899 17.5414 15.2379 17.5321C14.9859 17.5228 14.7526 17.4994 14.5379 17.4621C14.3232 17.6114 14.1552 17.7934 14.0339 18.0081C13.9219 18.2228 13.8612 18.4468 13.8519 18.6801C13.8519 19.1094 14.0526 19.4548 14.4539 19.7161C14.8552 19.9774 15.3919 20.1081 16.0639 20.1081ZM15.8819 14.4241C16.1992 14.4241 16.4606 14.3448 16.6659 14.1861C16.8806 14.0181 17.0392 13.7988 17.1419 13.5281C17.2539 13.2481 17.3099 12.9448 17.3099 12.6181C17.3099 12.2354 17.2539 11.8761 17.1419 11.5401C17.0299 11.2041 16.8666 10.9334 16.6519 10.7281C16.4372 10.5228 16.1619 10.4201 15.8259 10.4201C15.3686 10.4201 15.0139 10.6021 14.7619 10.9661C14.5099 11.3301 14.3839 11.7688 14.3839 12.2821C14.3839 12.6928 14.4399 13.0614 14.5519 13.3881C14.6732 13.7054 14.8459 13.9574 15.0699 14.1441C15.2939 14.3308 15.5646 14.4241 15.8819 14.4241Z" fill="#131313"/>
</svg>
