<svg width="24" height="24" viewBox="0 0 24 24" fill="none" xmlns="http://www.w3.org/2000/svg">
<g clip-path="url(#clip0_267_6349)">
<path d="M4.87598 13.6367L4.73926 13.8965C4.16504 14.9674 3.87793 15.7969 3.87793 16.3848C3.87793 16.5579 3.94401 16.7266 4.07617 16.8906C3.9668 16.9271 3.7207 17.016 3.33789 17.1572C3.16016 17.221 2.99154 17.2529 2.83203 17.2529C2.51302 17.2529 2.35352 17.1003 2.35352 16.7949C2.35352 16.1615 2.74772 15.1953 3.53613 13.8965L3.74805 13.5479H3.39941C2.65202 13.5479 2.07324 13.6641 1.66309 13.8965C1.87728 13.1263 2.45378 12.7412 3.39258 12.7412L4.24023 12.7617L4.4248 12.4883C5.1403 11.4128 6.23405 9.96582 7.70605 8.14746C8.2028 7.53223 8.57422 7.14941 8.82031 6.99902C9.06641 6.84863 9.54264 6.71191 10.249 6.58887C10.1169 7.40918 10.0508 8.17253 10.0508 8.87891C10.0508 10.752 10.2673 12.6501 10.7002 14.5732C10.9372 15.6305 11.2995 16.3118 11.7871 16.6172C11.3587 17.041 10.9919 17.2529 10.6865 17.2529C9.96647 17.2529 9.41048 16.0179 9.01855 13.5479C8.2666 13.6299 7.50781 13.6709 6.74219 13.6709L4.87598 13.6367ZM5.36816 12.8301L6.74902 12.8643C7.69238 12.8643 8.41471 12.8324 8.91602 12.7686C8.70638 11.1689 8.60156 9.84277 8.60156 8.79004L8.6084 8.27734C8.45801 8.46875 8.12077 8.88346 7.59668 9.52148C6.64876 10.6836 5.95378 11.6976 5.51172 12.5635L5.36816 12.8301ZM19.2383 12.8916C18.7962 13.8031 18.1559 14.6029 17.3174 15.291C16.4788 15.9792 15.7269 16.3232 15.0615 16.3232C14.5648 16.3232 14.1592 16.1546 13.8447 15.8174C13.5303 15.4801 13.373 15.0426 13.373 14.5049C13.373 13.2471 13.8516 12.085 14.8086 11.0186C15.7656 9.94759 16.8092 9.41211 17.9395 9.41211C18.5228 9.41211 19.1517 9.57845 19.8262 9.91113C19.9173 9.47363 20.0495 9.19792 20.2227 9.08398C20.3958 8.97005 20.8356 8.87663 21.542 8.80371C21.1865 9.51921 20.847 11.2236 20.5234 13.917L20.4346 14.6143C22.3896 13.4385 23.8981 12.2376 24.96 11.0117L25.5342 11.374C24.5316 12.682 22.8158 14.1084 20.3867 15.6533C20.373 15.8311 20.3639 15.9632 20.3594 16.0498C20.291 17.1937 20.1702 18.0368 19.9971 18.5791C19.8239 19.1214 19.5117 19.6364 19.0605 20.124C18.1764 21.0765 17.1009 21.5527 15.834 21.5527C15.1549 21.5527 14.6035 21.391 14.1797 21.0674C13.7559 20.7484 13.5439 20.3337 13.5439 19.8232C13.5439 19.3265 13.7262 18.8913 14.0908 18.5176C14.46 18.1439 15.1504 17.6882 16.1621 17.1504C16.832 16.7995 17.7777 16.2754 18.999 15.5781L19.2383 12.8916ZM19.5869 11.1143C18.9945 10.4854 18.3428 10.1709 17.6318 10.1709C16.9574 10.1709 16.3216 10.5947 15.7246 11.4424C15.1276 12.2855 14.8291 13.1833 14.8291 14.1357C14.8291 14.8102 15.0775 15.1475 15.5742 15.1475C16.0573 15.1475 16.6976 14.7464 17.4951 13.9443C18.2972 13.1377 18.9945 12.1943 19.5869 11.1143ZM18.9307 16.4873C18.6663 16.6468 18.1309 16.9521 17.3242 17.4033C15.7474 18.292 14.959 19.0758 14.959 19.7549C14.959 20.0557 15.0866 20.304 15.3418 20.5C15.597 20.696 15.9229 20.7939 16.3193 20.7939C18.0602 20.7939 18.9307 19.3584 18.9307 16.4873Z" fill="#131313"/>
</g>
<defs>
<clipPath id="clip0_267_6349">
<rect width="24" height="24" fill="white"/>
</clipPath>
</defs>
</svg>
