<svg width="24" height="24" viewBox="0 0 24 24" fill="none" xmlns="http://www.w3.org/2000/svg">
<path d="M5.06152 14.0674L4.30273 15.9883H5.31445V17H2.58008V15.9883H3.1748L6.81836 6.75293H8.4043L12.0547 15.9883H12.6426V17H8.86914V15.9883H9.88086L9.12207 14.0674H5.06152ZM5.47852 13.0146H8.70508L7.08496 8.94727L5.47852 13.0146ZM14.9736 16.7334C14.4541 16.4554 14.1943 16.1273 14.1943 15.749C14.1943 15.2568 14.6729 14.7874 15.6299 14.3408C15.0693 14.1312 14.6478 13.8281 14.3652 13.4316C14.0872 13.0352 13.9482 12.5452 13.9482 11.9619C13.9482 11.1598 14.224 10.5195 14.7754 10.041C15.3268 9.5625 16.0674 9.32324 16.9971 9.32324C17.2887 9.32324 17.5622 9.34603 17.8174 9.3916C18.0771 9.43717 18.321 9.50553 18.5488 9.59668L21.3447 9.37109L20.8389 10.6357L19.5811 10.3896C19.9183 10.8818 20.0869 11.3923 20.0869 11.9209C20.0869 12.7048 19.8089 13.3451 19.2529 13.8418C18.6969 14.334 17.9769 14.5801 17.0928 14.5801C16.9196 14.5801 16.7578 14.5664 16.6074 14.5391C16.179 14.7122 15.9648 14.9378 15.9648 15.2158C15.9648 15.4756 16.2565 15.6055 16.8398 15.6055H17.9883C19.0547 15.6055 19.8135 15.7399 20.2646 16.0088C20.7113 16.2822 20.9346 16.7402 20.9346 17.3828C20.9346 18.1302 20.5745 18.7318 19.8545 19.1875C19.139 19.6432 18.1934 19.8711 17.0176 19.8711C15.9557 19.8711 15.0876 19.7207 14.4131 19.4199C13.7386 19.1191 13.4014 18.734 13.4014 18.2646C13.4014 17.9229 13.5312 17.6243 13.791 17.3691C14.0553 17.1139 14.4495 16.902 14.9736 16.7334ZM15.8076 11.9893C15.8076 12.4906 15.9193 12.9007 16.1426 13.2197C16.3704 13.5342 16.6644 13.6914 17.0244 13.6914C17.389 13.6914 17.6807 13.5319 17.8994 13.2129C18.1182 12.8893 18.2275 12.4609 18.2275 11.9277C18.2275 11.3535 18.1273 10.9251 17.9268 10.6426C17.7262 10.3555 17.4255 10.2119 17.0244 10.2119C16.6188 10.2119 16.3135 10.36 16.1084 10.6562C15.9079 10.9525 15.8076 11.3968 15.8076 11.9893ZM15.8965 17C15.7142 17.1413 15.5752 17.2848 15.4795 17.4307C15.3883 17.5811 15.3428 17.736 15.3428 17.8955C15.3428 18.2145 15.4909 18.4538 15.7871 18.6133C16.0879 18.7773 16.5345 18.8594 17.127 18.8594C17.6784 18.8594 18.1432 18.7409 18.5215 18.5039C18.9043 18.2715 19.0957 17.9867 19.0957 17.6494C19.0957 17.3942 18.9909 17.221 18.7812 17.1299C18.5762 17.0433 18.1751 17 17.5781 17H15.8965Z" fill="#131313"/>
</svg>
