<svg width="24" height="24" viewBox="0 0 24 24" fill="none" xmlns="http://www.w3.org/2000/svg">
<path d="M4.89877 16.0001L3.19077 16.0561L3.09277 15.2861C3.41944 15.2581 3.68544 15.1788 3.89077 15.0481C4.09611 14.9174 4.24544 14.7774 4.33877 14.6281C4.43211 14.4694 4.53477 14.2361 4.64677 13.9281L7.57277 6.06006H8.79077L12.0948 14.1521C12.2628 14.5721 12.4354 14.8708 12.6128 15.0481C12.7994 15.2161 13.0608 15.3001 13.3968 15.3001L13.5508 16.0421C13.1214 16.0141 12.4168 16.0001 11.4368 16.0001C10.4568 16.0001 9.74744 16.0141 9.30877 16.0421L9.18277 15.3001C9.67744 15.3001 9.98544 15.2674 10.1068 15.2021C10.2281 15.1274 10.2888 15.0434 10.2888 14.9501C10.2888 14.8568 10.2608 14.7494 10.2048 14.6281L9.26677 12.5281H6.22877L5.64077 14.2081C5.60344 14.3108 5.58477 14.4088 5.58477 14.5021C5.58477 14.6981 5.70144 14.8754 5.93477 15.0341C6.16811 15.1928 6.52744 15.2768 7.01277 15.2861L7.15277 16.0561L4.89877 16.0001ZM7.61477 8.59406L6.53677 11.6321H8.87477L7.61477 8.59406ZM15.9318 11.8841C15.9318 12.2854 16.0438 12.6354 16.2678 12.9341C16.5011 13.2234 16.7904 13.3681 17.1358 13.3681C17.4811 13.3681 17.7424 13.2281 17.9198 12.9481C18.1064 12.6681 18.1998 12.3368 18.1998 11.9541C18.1998 11.5621 18.0878 11.2261 17.8638 10.9461C17.6491 10.6661 17.3598 10.5261 16.9958 10.5261C16.6318 10.5261 16.3611 10.6521 16.1838 10.9041C16.0158 11.1561 15.9318 11.4828 15.9318 11.8841ZM19.6698 11.8841C19.6698 12.6028 19.4131 13.1861 18.8998 13.6341C18.3958 14.0821 17.7704 14.3061 17.0238 14.3061H16.3938C16.1044 14.3808 15.9598 14.4928 15.9598 14.6421C15.9598 14.7914 16.1231 14.8941 16.4498 14.9501C16.7298 15.0341 17.2104 15.0994 17.8918 15.1461C18.7224 15.2301 19.2451 15.3141 19.4598 15.3981C20.1504 15.6594 20.4958 16.1681 20.4958 16.9241C20.4958 17.6894 20.1224 18.3474 19.3758 18.8981C18.6291 19.4581 17.7938 19.7381 16.8698 19.7381C15.9551 19.7381 15.2178 19.5748 14.6578 19.2481C14.1071 18.9308 13.8318 18.4174 13.8318 17.7081C13.8318 17.4188 13.9298 17.1761 14.1258 16.9801C14.2004 16.9054 14.6018 16.6254 15.3298 16.1401C15.1244 16.0468 14.9331 15.8928 14.7558 15.6781C14.5878 15.4541 14.5038 15.2674 14.5038 15.1181C14.5038 14.9688 14.5411 14.8568 14.6158 14.7821C14.6904 14.7074 14.9004 14.5674 15.2458 14.3621C15.6004 14.1474 15.7824 14.0354 15.7918 14.0261C15.4184 13.8954 15.0918 13.6528 14.8118 13.2981C14.5411 12.9341 14.4058 12.5328 14.4058 12.0941C14.4058 11.4408 14.6391 10.8854 15.1058 10.4281C15.5818 9.96139 16.2024 9.72806 16.9678 9.72806C17.1918 9.72806 17.5791 9.77006 18.1298 9.85406C18.6804 9.92873 19.1844 9.96606 19.6418 9.96606C20.1084 9.96606 20.4304 9.95206 20.6078 9.92406C20.6078 9.95206 20.6078 10.0034 20.6078 10.0781C20.6078 10.4888 20.5424 10.8108 20.4118 11.0441L19.2078 10.8201C19.3384 10.8948 19.4458 11.0488 19.5298 11.2821C19.6231 11.5061 19.6698 11.7068 19.6698 11.8841ZM17.1358 18.8421C17.6491 18.8421 18.0458 18.7161 18.3258 18.4641C18.6151 18.2121 18.7598 17.8948 18.7598 17.5121C18.7598 16.7748 18.0364 16.4061 16.5898 16.4061C16.4218 16.4061 16.2818 16.4388 16.1698 16.5041C15.7218 16.7934 15.4978 17.1761 15.4978 17.6521C15.4978 18.0161 15.6424 18.3054 15.9318 18.5201C16.2304 18.7348 16.6318 18.8421 17.1358 18.8421Z" fill="#131313"/>
</svg>
