<svg width="24" height="24" viewBox="0 0 24 24" fill="none" xmlns="http://www.w3.org/2000/svg">
<path d="M7.00705 10.8619L6.57305 12.2619H9.33105L8.89705 10.8619C8.72905 10.3486 8.57038 9.83992 8.42105 9.33592C8.27172 8.82259 8.12238 8.29992 7.97305 7.76792H7.91705C7.77705 8.29992 7.63238 8.82259 7.48305 9.33592C7.33372 9.83992 7.17505 10.3486 7.00705 10.8619ZM10.493 15.9999L9.62505 13.1999H6.27905L5.39705 15.9999H4.20705L7.31505 6.81592H8.63105L11.739 15.9999H10.493ZM15.2243 13.0739C15.6163 13.0739 15.9523 12.9292 16.2323 12.6399C16.5216 12.3412 16.6663 11.9446 16.6663 11.4499C16.6663 10.9552 16.5263 10.5679 16.2463 10.2879C15.9663 10.0079 15.6256 9.86792 15.2243 9.86792C14.8229 9.86792 14.4823 10.0079 14.2023 10.2879C13.9223 10.5679 13.7823 10.9552 13.7823 11.4499C13.7823 11.9446 13.9223 12.3412 14.2023 12.6399C14.4916 12.9292 14.8323 13.0739 15.2243 13.0739ZM15.2243 19.1359C14.3936 19.1359 13.7169 18.9772 13.1943 18.6599C12.6716 18.3426 12.4103 17.8899 12.4103 17.3019C12.4103 16.7232 12.7416 16.2099 13.4043 15.7619V15.7059C13.2363 15.6032 13.0916 15.4586 12.9703 15.2719C12.8583 15.0852 12.8023 14.8612 12.8023 14.5999C12.8023 14.3106 12.8816 14.0586 13.0403 13.8439C13.1989 13.6292 13.3669 13.4612 13.5443 13.3399V13.2839C13.3203 13.0972 13.1149 12.8452 12.9283 12.5279C12.7509 12.2106 12.6623 11.8512 12.6623 11.4499C12.6623 10.7126 12.9143 10.1246 13.4183 9.68592C13.9316 9.24725 14.5336 9.02792 15.2243 9.02792C15.5789 9.02792 15.9009 9.08392 16.1903 9.19592H18.5563V10.0779H17.1563C17.3149 10.2366 17.4456 10.4372 17.5483 10.6799C17.6603 10.9226 17.7163 11.1886 17.7163 11.4779C17.7163 12.2059 17.4736 12.7846 16.9883 13.2139C16.5029 13.6339 15.9149 13.8439 15.2243 13.8439C14.8603 13.8439 14.5196 13.7646 14.2023 13.6059C14.0809 13.7086 13.9783 13.8252 13.8943 13.9559C13.8103 14.0772 13.7683 14.2312 13.7683 14.4179C13.7683 14.6326 13.8523 14.8099 14.0203 14.9499C14.1883 15.0899 14.5056 15.1599 14.9723 15.1599H16.2883C17.8749 15.1599 18.6683 15.7012 18.6683 16.7839C18.6683 17.4186 18.3556 17.9692 17.7303 18.4359C17.1143 18.9026 16.2789 19.1359 15.2243 19.1359ZM15.3923 18.3379C16.0456 18.3379 16.5683 18.1932 16.9603 17.9039C17.3523 17.6239 17.5483 17.3066 17.5483 16.9519C17.5483 16.6346 17.4269 16.4152 17.1843 16.2939C16.9509 16.1726 16.6149 16.1119 16.1763 16.1119H15.0003C14.8696 16.1119 14.7249 16.1026 14.5663 16.0839C14.4169 16.0652 14.2676 16.0372 14.1183 15.9999C13.6516 16.3359 13.4183 16.7186 13.4183 17.1479C13.4183 17.5119 13.5909 17.8012 13.9363 18.0159C14.2909 18.2306 14.7763 18.3379 15.3923 18.3379Z" fill="#131313"/>
</svg>
