<svg width="24" height="24" viewBox="0 0 24 24" fill="none" xmlns="http://www.w3.org/2000/svg">
<path d="M5.7373 14.7646L5.06055 17H3.72754L6.98145 7.17676H8.35547L11.6025 17H10.2627L9.59277 14.7646H5.7373ZM5.96289 13.999H9.36035L7.67188 8.50293L5.96289 13.999ZM13.7695 18.9346C13.9245 18.9893 14.0931 19.0371 14.2754 19.0781C14.4303 19.1146 14.6081 19.1465 14.8086 19.1738C15.0137 19.2057 15.2324 19.2217 15.4648 19.2217C15.8066 19.2217 16.0869 19.1852 16.3057 19.1123C16.529 19.0439 16.7067 18.9186 16.8389 18.7363C16.971 18.5586 17.0622 18.3148 17.1123 18.0049C17.167 17.695 17.1966 17.2712 17.2012 16.7334V16.5078C17.0553 16.599 16.8867 16.681 16.6953 16.7539C16.5312 16.8177 16.3307 16.8747 16.0938 16.9248C15.8568 16.9749 15.5856 17 15.2803 17C14.9294 17 14.5898 16.9362 14.2617 16.8086C13.9382 16.6764 13.6488 16.4714 13.3936 16.1934C13.1429 15.9108 12.9401 15.5485 12.7852 15.1064C12.6348 14.6598 12.5596 14.1312 12.5596 13.5205C12.5596 12.8825 12.6211 12.3333 12.7441 11.873C12.8672 11.4128 13.0449 11.0345 13.2773 10.7383C13.5143 10.4421 13.8014 10.2233 14.1387 10.082C14.4759 9.94076 14.8587 9.87012 15.2871 9.87012C15.5833 9.87012 15.8477 9.89974 16.0801 9.95898C16.3171 10.0182 16.5244 10.0889 16.7021 10.1709C16.8799 10.2529 17.028 10.3372 17.1465 10.4238C17.265 10.5059 17.3584 10.5742 17.4268 10.6289L17.6523 9.95215H18.4727V16.542C18.4727 17.2074 18.4248 17.7679 18.3291 18.2236C18.238 18.6839 18.0807 19.0553 17.8574 19.3379C17.6341 19.625 17.3356 19.8324 16.9619 19.96C16.5882 20.0876 16.1234 20.1514 15.5674 20.1514C15.2939 20.1514 15.0524 20.1354 14.8428 20.1035C14.6377 20.0716 14.4645 20.0374 14.3232 20.001C14.1592 19.9554 14.0202 19.9053 13.9062 19.8506L13.7695 18.9346ZM15.4375 16.043H15.5195C15.7839 16.0384 16.0186 16.0156 16.2236 15.9746C16.4333 15.929 16.611 15.8812 16.7568 15.8311C16.9255 15.7718 17.0736 15.7057 17.2012 15.6328V11.3809C17.0508 11.2852 16.8844 11.1963 16.7021 11.1143C16.5472 11.0459 16.3649 10.9844 16.1553 10.9297C15.9502 10.8704 15.7246 10.8408 15.4785 10.8408C15.1686 10.8408 14.9089 10.9046 14.6992 11.0322C14.4896 11.1598 14.3187 11.3376 14.1865 11.5654C14.0589 11.7933 13.9655 12.0667 13.9062 12.3857C13.8516 12.7048 13.8242 13.0579 13.8242 13.4453C13.8242 13.8372 13.8561 14.195 13.9199 14.5186C13.9837 14.8421 14.0817 15.1178 14.2139 15.3457C14.346 15.569 14.5124 15.7399 14.7129 15.8584C14.9134 15.9769 15.1549 16.0384 15.4375 16.043Z" fill="#131313"/>
</svg>
