<svg width="24" height="24" viewBox="0 0 24 24" fill="none" xmlns="http://www.w3.org/2000/svg">
<path d="M12.917 17H10.791L9.97754 14.5938H6.19727L5.4043 17H3.27832L7.00391 6.9375H9.25293L12.917 17ZM9.49219 13.0488L8.26172 9.40527C8.21159 9.25944 8.15918 8.98145 8.10449 8.57129H8.05664C8.02018 8.87663 7.96322 9.15007 7.88574 9.3916L6.64844 13.0488H9.49219ZM20.8193 16.2549C20.8193 17.5856 20.4525 18.6042 19.7188 19.3105C18.985 20.0215 17.9209 20.377 16.5264 20.377C15.5785 20.377 14.8083 20.2288 14.2158 19.9326V18.2783C14.9678 18.7113 15.722 18.9277 16.4785 18.9277C17.2533 18.9277 17.8525 18.7204 18.2764 18.3057C18.7048 17.8955 18.9189 17.3099 18.9189 16.5488V15.9131H18.8916C18.3721 16.7562 17.6042 17.1777 16.5879 17.1777C15.6947 17.1777 14.9746 16.8564 14.4277 16.2139C13.8809 15.5713 13.6074 14.7054 13.6074 13.6162C13.6074 12.4085 13.9059 11.4447 14.5029 10.7246C15.1045 10.0046 15.8952 9.64453 16.875 9.64453C17.7637 9.64453 18.4359 9.99544 18.8916 10.6973H18.9189V9.81543H20.8193V16.2549ZM18.9395 12.8984C18.9395 12.4108 18.7868 11.9938 18.4814 11.6475C18.1761 11.3011 17.7887 11.1279 17.3193 11.1279C16.7725 11.1279 16.3372 11.3398 16.0137 11.7637C15.6947 12.1875 15.5352 12.7799 15.5352 13.541C15.5352 14.1973 15.6878 14.7191 15.9932 15.1064C16.2985 15.4938 16.7041 15.6875 17.21 15.6875C17.7249 15.6875 18.1419 15.4938 18.4609 15.1064C18.7799 14.7191 18.9395 14.2201 18.9395 13.6094V12.8984Z" fill="#131313"/>
</svg>
