<svg width="24" height="24" viewBox="0 0 24 24" fill="none" xmlns="http://www.w3.org/2000/svg">
<path d="M11.2186 9.49588C11.2746 9.89721 11.3306 10.4806 11.3866 11.2459L11.4146 11.9739C11.4146 13.3272 11.592 14.5359 11.9466 15.5999C11.9933 15.7492 12.0166 15.9406 12.0166 16.1739C12.0166 16.3046 12.0073 16.4819 11.9886 16.7059C11.9793 16.8552 11.9233 16.9719 11.8206 17.0559C11.718 17.1492 11.5873 17.1959 11.4286 17.1959C11.41 17.1959 11.3586 17.1866 11.2746 17.1679C11.0413 17.1119 10.864 17.0092 10.7426 16.8599C10.6213 16.7012 10.5606 16.5099 10.5606 16.2859C10.5606 16.2112 10.5653 16.1552 10.5746 16.1179C10.5746 16.0619 10.5746 15.9826 10.5746 15.8799C10.5746 15.7119 10.5653 15.5579 10.5466 15.4179C10.472 15.0539 10.3553 14.5686 10.1966 13.9619C10.1406 13.7099 10.024 13.5839 9.84663 13.5839C9.7813 13.5839 9.70663 13.5979 9.62263 13.6259C9.3333 13.7099 9.07663 13.7892 8.85263 13.8639C8.63797 13.9386 8.44663 13.9992 8.27863 14.0459L7.60663 14.2419C7.22397 14.3539 6.8693 14.4426 6.54263 14.5079C6.1973 14.5826 5.9453 14.7739 5.78663 15.0819C5.6373 15.3619 5.42263 15.7399 5.14263 16.2159C4.9653 16.5332 4.73197 16.6919 4.44263 16.6919C4.30263 16.6919 4.16263 16.6592 4.02263 16.5939C3.89197 16.5192 3.77997 16.4259 3.68663 16.3139C3.54663 16.1552 3.47663 16.0012 3.47663 15.8519C3.47663 15.7492 3.50463 15.6419 3.56063 15.5299L4.52663 13.5699C5.59063 11.4046 6.2253 10.1072 6.43063 9.67788C7.01863 8.53921 7.81663 7.75521 8.82463 7.32588C9.0393 7.22321 9.25863 7.17188 9.48263 7.17188C9.76263 7.17188 10.0193 7.24654 10.2526 7.39587C10.4953 7.53587 10.682 7.73655 10.8126 7.99788C10.9993 8.38055 11.1346 8.87988 11.2186 9.49588ZM6.69663 13.0379C7.9753 12.8139 9.06263 12.6319 9.95863 12.4919C9.93997 11.5959 9.91197 10.8912 9.87463 10.3779C9.84663 9.85521 9.7813 9.33255 9.67863 8.80988C9.18397 8.86588 8.81063 9.10855 8.55863 9.53788C8.11997 10.2286 7.69997 10.9426 7.29863 11.6799C7.2333 11.8012 7.11197 12.0719 6.93463 12.4919L6.69663 13.0379ZM18.4388 13.4719C18.4108 14.1439 18.3641 14.6526 18.2988 14.9979C18.2335 15.3432 18.1028 15.6746 17.9068 15.9919C17.7201 16.2999 17.4121 16.6592 16.9828 17.0699L17.4728 17.3359C17.7715 17.5039 17.9908 17.6206 18.1308 17.6859C18.5508 17.8819 18.8681 18.1292 19.0828 18.4279C19.2975 18.7359 19.4048 19.0719 19.4048 19.4359C19.4048 19.8839 19.2555 20.3272 18.9568 20.7659C18.6395 21.2326 18.2428 21.5779 17.7668 21.8019C17.2908 22.0352 16.7821 22.1566 16.2408 22.1659C15.8395 22.1752 15.4288 22.1099 15.0088 21.9699C14.8128 21.9046 14.6168 21.7599 14.4208 21.5359C14.2248 21.3212 14.0661 21.0786 13.9448 20.8079C13.8328 20.5372 13.7815 20.2992 13.7908 20.0939C13.8001 20.0472 13.8188 19.9959 13.8468 19.9399C13.8748 19.8932 13.9075 19.8652 13.9448 19.8559C13.9541 19.8466 13.9728 19.8419 14.0008 19.8419C14.0288 19.8419 14.0661 19.8512 14.1128 19.8699C14.1688 19.8979 14.2061 19.9166 14.2248 19.9259C14.2715 19.9446 14.3041 19.9866 14.3228 20.0519C14.4535 20.3412 14.5981 20.5699 14.7568 20.7379C14.9155 20.9059 15.1255 20.9806 15.3868 20.9619C16.3481 20.8966 17.0061 20.6306 17.3608 20.1639C17.4821 20.0146 17.5801 19.8419 17.6548 19.6459C17.7388 19.4592 17.7808 19.2819 17.7808 19.1139C17.7808 18.8712 17.7201 18.6939 17.5988 18.5819C17.4868 18.4699 17.3095 18.3906 17.0668 18.3439C16.8055 18.2972 16.5535 18.2319 16.3108 18.1479C16.0775 18.0639 15.7928 17.9379 15.4568 17.7699C15.2888 17.6859 15.1721 17.6112 15.1068 17.5459C15.0415 17.4806 15.0088 17.4012 15.0088 17.3079C15.0088 17.2146 15.0648 16.9766 15.1768 16.5939C15.1955 16.5379 15.1068 16.4446 14.9108 16.3139C14.7241 16.1832 14.5608 16.0759 14.4208 15.9919C13.9168 15.6932 13.6648 15.2079 13.6648 14.5359C13.6648 14.3492 13.6788 14.1719 13.7068 14.0039C13.8748 12.9772 14.3741 12.2492 15.2048 11.8199C15.4008 11.7172 15.6061 11.6659 15.8208 11.6659C15.9795 11.6659 16.1428 11.6892 16.3108 11.7359C16.4788 11.7826 16.5768 11.8106 16.6048 11.8199L16.8988 11.9039C17.0388 11.9412 17.1741 11.9599 17.3048 11.9599C17.4821 11.9599 17.6408 11.9272 17.7808 11.8619C17.9301 11.7966 18.0795 11.6939 18.2288 11.5539C18.4435 11.3766 18.6721 11.2879 18.9148 11.2879C19.0921 11.2879 19.2508 11.3392 19.3908 11.4419C19.5308 11.5352 19.6335 11.6752 19.6988 11.8619C19.7175 11.9366 19.7268 11.9972 19.7268 12.0439C19.7268 12.1279 19.7128 12.1932 19.6848 12.2399C19.6568 12.2772 19.5775 12.3986 19.4468 12.6039C19.3815 12.7252 19.3208 12.8279 19.2648 12.9119C19.2088 12.9959 19.1201 13.0892 18.9988 13.1919C18.9148 13.2386 18.8261 13.2759 18.7328 13.3039C18.6395 13.3226 18.5648 13.3412 18.5088 13.3599C18.4621 13.3786 18.4388 13.4159 18.4388 13.4719ZM15.4988 13.2619C15.2095 13.5979 15.0648 13.9386 15.0648 14.2839C15.0648 14.5266 15.1395 14.7599 15.2888 14.9839C15.4475 15.1986 15.6855 15.3852 16.0028 15.5439C16.3575 15.4039 16.6328 15.1612 16.8288 14.8159C17.0248 14.4706 17.1228 14.0926 17.1228 13.6819C17.1228 13.4299 17.0855 13.2012 17.0108 12.9959C16.9361 12.7906 16.7868 12.6319 16.5628 12.5199C16.1335 12.6879 15.7788 12.9352 15.4988 13.2619Z" fill="#131313"/>
</svg>
