<svg width="24" height="24" viewBox="0 0 24 24" fill="none" xmlns="http://www.w3.org/2000/svg">
<path d="M3.43343 17.0002L3.54543 16.3422L4.53943 15.9362L8.54343 8.40417L9.78943 8.22217L11.0774 15.9502L11.9734 16.3142L11.8474 17.0002H7.80143L7.95543 16.3282L8.86543 16.0062L8.69743 14.9282H6.24743L5.71543 15.9502L6.49943 16.3282L6.37343 17.0002H3.43343ZM6.73743 14.0182H8.55743L8.15143 11.3302L6.73743 14.0182ZM14.3038 19.6602C13.8744 19.6602 13.4358 19.6135 12.9878 19.5202C12.5491 19.4269 12.2084 19.3102 11.9658 19.1702L12.3438 18.2882C12.6984 18.3909 13.0158 18.4655 13.2958 18.5122C13.5758 18.5682 13.8324 18.5962 14.0658 18.5962C14.5138 18.5962 14.8778 18.5075 15.1578 18.3302C15.4471 18.1529 15.6804 17.8495 15.8578 17.4202C16.0351 17.0002 16.1891 16.4122 16.3198 15.6562C16.2451 15.7775 16.1191 15.9222 15.9418 16.0902C15.7644 16.2489 15.5451 16.3889 15.2838 16.5102C15.0224 16.6315 14.7191 16.6922 14.3738 16.6922C14.1031 16.6922 13.8371 16.6269 13.5758 16.4962C13.3238 16.3655 13.1138 16.1509 12.9458 15.8522C12.7871 15.5535 12.7078 15.1522 12.7078 14.6482C12.7078 13.9109 12.8058 13.2435 13.0018 12.6462C13.1978 12.0395 13.4638 11.5215 13.7998 11.0922C14.1451 10.6535 14.5464 10.3175 15.0038 10.0842C15.4611 9.85084 15.9464 9.73417 16.4598 9.73417C16.6558 9.73417 16.8284 9.7435 16.9778 9.76217C17.1271 9.7715 17.2624 9.79484 17.3838 9.83217C17.5144 9.86017 17.6404 9.8975 17.7618 9.94417L18.3778 9.46817L19.4278 9.58017L18.1118 16.3142C17.9998 16.9022 17.8318 17.4062 17.6078 17.8262C17.3931 18.2462 17.1271 18.5915 16.8098 18.8622C16.4924 19.1329 16.1238 19.3335 15.7038 19.4642C15.2931 19.5949 14.8264 19.6602 14.3038 19.6602ZM15.2558 15.5162C15.4051 15.5162 15.5498 15.4695 15.6898 15.3762C15.8391 15.2829 15.9744 15.1709 16.0958 15.0402C16.2264 14.9095 16.3291 14.7835 16.4038 14.6622L17.1738 10.9102C17.0711 10.8635 16.9544 10.8309 16.8238 10.8122C16.6931 10.7935 16.5811 10.7842 16.4878 10.7842C16.2918 10.7842 16.1098 10.8495 15.9418 10.9802C15.7738 11.1109 15.6198 11.2975 15.4798 11.5402C15.3491 11.7735 15.2371 12.0535 15.1438 12.3802C15.0504 12.6975 14.9758 13.0522 14.9198 13.4442C14.8731 13.8269 14.8498 14.2282 14.8498 14.6482C14.8498 14.9842 14.8871 15.2129 14.9618 15.3342C15.0364 15.4555 15.1344 15.5162 15.2558 15.5162Z" fill="#131313"/>
</svg>
