<svg width="24" height="24" viewBox="0 0 24 24" fill="none" xmlns="http://www.w3.org/2000/svg">
<path d="M8.6099 6.69392L12.2429 16.9746L11.7571 16.6544L13.2037 16.9636L13.1484 17.6924H9.01848L9.07369 16.9415C9.43442 16.7869 9.87245 16.6581 10.3878 16.555L10.2442 16.8642L7.15227 7.45587L6.77682 6.74913C7.03448 6.71233 7.32895 6.69024 7.66023 6.68288C7.99151 6.67552 8.30807 6.6792 8.6099 6.69392ZM7.94734 6.76018L4.5462 16.9746L4.4689 16.6434L5.81611 16.9636L5.76089 17.6924H2.28245L2.33767 16.9857C2.52171 16.89 2.72784 16.809 2.95606 16.7427C3.18427 16.6691 3.41985 16.6102 3.66279 16.5661L3.16587 16.9746L6.77682 6.74913L7.94734 6.76018ZM4.82227 14.5894L5.18667 13.5293H9.87981L10.2553 14.5894H4.82227ZM17.2894 15.0974C16.2956 15.0974 15.5042 14.836 14.9153 14.3134C14.3263 13.7907 14.0319 13.0839 14.0319 12.1932C14.0319 11.295 14.3263 10.5846 14.9153 10.0619C15.5116 9.53189 16.3103 9.26686 17.3115 9.26686C17.8931 9.26686 18.4268 9.39201 18.9127 9.64231C19.4059 9.89261 19.8035 10.2349 20.1053 10.6693C20.4072 11.1036 20.5581 11.6042 20.5581 12.1711C20.5581 13.0618 20.2636 13.7723 19.6747 14.3023C19.0857 14.8324 18.2906 15.0974 17.2894 15.0974ZM17.433 14.1698C18.3385 14.1698 18.7912 13.5735 18.7912 12.3809C18.7912 10.9233 18.2465 10.1944 17.1569 10.1944C16.2514 10.1944 15.7987 10.7944 15.7987 11.9944C15.7987 12.6938 15.9386 13.2312 16.2183 13.6066C16.5054 13.9821 16.9103 14.1698 17.433 14.1698ZM21.4415 10.5809L18.9127 10.4484L17.3115 9.26686C17.6575 9.26686 17.9262 9.28895 18.1176 9.33312C18.309 9.36993 18.4857 9.41042 18.6477 9.45459C18.8096 9.49876 19.0195 9.52084 19.2771 9.52084C19.4612 9.52084 19.7483 9.5098 20.1384 9.48772C20.536 9.45827 21.0071 9.41778 21.5519 9.36625L21.4415 10.5809ZM17.1569 21.5573C16.0895 21.5573 15.2355 21.3549 14.595 20.95C13.9619 20.5525 13.6454 20.015 13.6454 19.3378C13.6454 18.5059 14.1791 17.8286 15.2465 17.3059L15.8649 17.6593C15.4085 18.02 15.1803 18.458 15.1803 18.9734C15.1803 19.4887 15.3827 19.8825 15.7876 20.1549C16.1925 20.4273 16.7704 20.5635 17.5213 20.5635C18.3164 20.5635 18.9458 20.4163 19.4096 20.1218C19.8808 19.8347 20.1164 19.4445 20.1164 18.9513C20.1164 18.4359 19.7704 18.1783 19.0783 18.1783H16.5606C15.9201 18.1783 15.4269 18.0311 15.0809 17.7366C14.7349 17.4495 14.5619 17.0372 14.5619 16.4998C14.5619 15.6164 15.0551 14.9281 16.0416 14.4348L16.7152 14.5452C16.1704 14.9501 15.8981 15.3882 15.8981 15.8593C15.8981 16.3599 16.2441 16.6102 16.9361 16.6102H19.4538C20.19 16.6102 20.7532 16.7685 21.1433 17.0851C21.5409 17.3943 21.7396 17.8433 21.7396 18.4323C21.7396 19.0359 21.5409 19.5733 21.1433 20.0445C20.7532 20.5157 20.2121 20.8837 19.5201 21.1488C18.8354 21.4211 18.0477 21.5573 17.1569 21.5573Z" fill="#131313"/>
</svg>
