<svg width="24" height="24" viewBox="0 0 24 24" fill="none" xmlns="http://www.w3.org/2000/svg">
<path d="M3.03924 16.0482L6.52524 6.38818H8.09324L11.4392 16.0482L12.5172 16.2862V17.0002H8.51324V16.2862L9.56324 16.0482L9.00324 14.2702H5.05524L4.46724 16.0342L5.55924 16.2722V17.0002H2.08724V16.2722L3.03924 16.0482ZM7.65924 10.0562L7.05724 8.05418L5.36324 13.2902H8.68124L7.65924 10.0562ZM16.7462 9.09018C17.6142 9.09018 18.3096 9.28151 18.8322 9.66418C19.0189 9.36551 19.4342 9.21618 20.0782 9.21618H20.8202V10.4762H19.4622C19.6209 10.7935 19.7002 11.1715 19.7002 11.6102C19.7002 12.1982 19.5556 12.7022 19.2662 13.1222C18.9769 13.5422 18.5896 13.8595 18.1042 14.0742C17.6189 14.2795 17.0776 14.3822 16.4802 14.3822C15.9949 14.3822 15.5422 14.3169 15.1222 14.1862C15.0662 14.3355 15.0382 14.4895 15.0382 14.6482C15.0382 14.8069 15.0382 14.8955 15.0382 14.9142C15.0382 15.1755 15.1082 15.3715 15.2482 15.5022C15.3976 15.6329 15.6309 15.7029 15.9482 15.7122C16.2562 15.7309 16.8256 15.7402 17.6562 15.7402C18.7762 15.7402 19.5416 15.9315 19.9522 16.3142C20.3629 16.6969 20.5682 17.2335 20.5682 17.9242C20.5682 18.4842 20.4002 18.9649 20.0642 19.3662C19.7282 19.7769 19.2616 20.0895 18.6642 20.3042C18.0762 20.5189 17.3996 20.6262 16.6342 20.6262C15.6542 20.6262 14.8469 20.4675 14.2122 20.1502C13.5776 19.8329 13.2602 19.3149 13.2602 18.5962C13.2602 18.2135 13.3722 17.8542 13.5962 17.5182C13.8296 17.1915 14.1049 16.9349 14.4222 16.7482C14.1796 16.6642 14.0022 16.5615 13.8902 16.4402C13.7782 16.3095 13.7082 16.1789 13.6802 16.0482C13.6616 15.9082 13.6522 15.7309 13.6522 15.5162C13.6522 15.3202 13.7362 15.0635 13.9042 14.7462C14.0722 14.4195 14.2776 14.1489 14.5202 13.9342C13.7362 13.4862 13.3442 12.7909 13.3442 11.8482C13.3442 11.2415 13.5029 10.7329 13.8202 10.3222C14.1376 9.91151 14.5529 9.60351 15.0662 9.39818C15.5796 9.19285 16.1396 9.09018 16.7462 9.09018ZM16.4802 9.88818C16.0416 9.88818 15.6916 10.0189 15.4302 10.2802C15.1689 10.5415 15.0382 10.9429 15.0382 11.4842C15.0382 12.0909 15.1689 12.5809 15.4302 12.9542C15.6916 13.3275 16.1022 13.5142 16.6622 13.5142C17.1569 13.5142 17.5116 13.3649 17.7262 13.0662C17.9409 12.7675 18.0482 12.3289 18.0482 11.7502C18.0482 10.5089 17.5256 9.88818 16.4802 9.88818ZM15.1502 16.9162C14.9356 17.2242 14.8282 17.6115 14.8282 18.0782C14.8282 18.6382 15.0242 19.0535 15.4162 19.3242C15.8082 19.6042 16.3076 19.7442 16.9142 19.7442C17.6236 19.7442 18.1602 19.6322 18.5242 19.4082C18.8976 19.1842 19.0842 18.8295 19.0842 18.3442C19.0842 18.0175 19.0329 17.7562 18.9302 17.5602C18.8276 17.3642 18.6456 17.2195 18.3842 17.1262C18.1229 17.0329 17.7496 16.9862 17.2642 16.9862L16.2842 16.9722C15.7989 16.9722 15.4209 16.9535 15.1502 16.9162Z" fill="#131313"/>
</svg>
