<svg width="24" height="24" viewBox="0 0 24 24" fill="none" xmlns="http://www.w3.org/2000/svg">
<path d="M9.77985 14.228H6.11185L5.11785 17H3.52185L7.20385 7.354H8.70185L12.4119 17H10.7739L9.77985 14.228ZM9.37385 13.08L7.94585 9.09L6.51785 13.08H9.37385ZM20.5881 10.546L19.0201 10.378C19.2534 10.7607 19.3701 11.1947 19.3701 11.68C19.3701 12.1373 19.2627 12.5573 19.0481 12.94C18.8334 13.3227 18.5067 13.6307 18.0681 13.864C17.6387 14.0973 17.1067 14.214 16.4721 14.214C16.1547 14.214 15.8701 14.186 15.6181 14.13C15.3941 14.3167 15.2307 14.4847 15.1281 14.634C15.0254 14.774 14.9741 14.9187 14.9741 15.068C14.9741 15.264 15.0394 15.404 15.1701 15.488C15.3101 15.572 15.5387 15.614 15.8561 15.614H18.1661C18.8941 15.614 19.4587 15.782 19.8601 16.118C20.2614 16.454 20.4621 16.902 20.4621 17.462C20.4621 18.0127 20.2707 18.5167 19.8881 18.974C19.5147 19.4313 19.0014 19.7907 18.3481 20.052C17.6947 20.3133 16.9621 20.444 16.1501 20.444C15.0674 20.444 14.2834 20.2527 13.7981 19.87C13.3221 19.4873 13.0841 19.016 13.0841 18.456C13.0841 18.0827 13.1821 17.7513 13.3781 17.462C13.5741 17.1727 13.8727 16.8787 14.2741 16.58C13.7327 16.3373 13.4621 15.9453 13.4621 15.404C13.4621 15.124 13.5554 14.858 13.7421 14.606C13.9287 14.3447 14.2274 14.0553 14.6381 13.738C14.2927 13.5047 14.0267 13.2107 13.8401 12.856C13.6627 12.5013 13.5741 12.1187 13.5741 11.708C13.5741 11.2507 13.6814 10.8307 13.8961 10.448C14.1107 10.0653 14.4374 9.75733 14.8761 9.524C15.3147 9.29067 15.8467 9.174 16.4721 9.174C16.9574 9.174 17.3961 9.24867 17.7881 9.398H20.5881V10.546ZM16.4721 13.122C16.9014 13.122 17.2421 12.9913 17.4941 12.73C17.7461 12.4687 17.8721 12.1233 17.8721 11.694C17.8721 11.2647 17.7461 10.9193 17.4941 10.658C17.2514 10.3967 16.9107 10.266 16.4721 10.266C16.0521 10.266 15.7161 10.3967 15.4641 10.658C15.2121 10.9193 15.0861 11.2647 15.0861 11.694C15.0861 12.1233 15.2121 12.4687 15.4641 12.73C15.7161 12.9913 16.0521 13.122 16.4721 13.122ZM18.9921 17.686C18.9921 17.098 18.6187 16.804 17.8721 16.804H15.6601H15.4781C14.8621 17.3173 14.5541 17.8307 14.5541 18.344C14.5541 18.68 14.6894 18.9227 14.9601 19.072C15.2401 19.2213 15.6367 19.296 16.1501 19.296C16.6821 19.296 17.1627 19.2167 17.5921 19.058C18.0307 18.8993 18.3714 18.694 18.6141 18.442C18.8661 18.19 18.9921 17.938 18.9921 17.686Z" fill="#131313"/>
</svg>
