<svg width="24" height="24" viewBox="0 0 24 24" fill="none" xmlns="http://www.w3.org/2000/svg">
<path d="M10.4018 8.27804H10.3878C10.0611 9.12737 9.7298 9.96737 9.3938 10.798C9.0578 11.6193 8.72647 12.4547 8.3998 13.304H10.5978L10.4018 8.27804ZM6.9018 16.986H5.9498L9.9118 7.18604H11.2418L11.7598 16.986H10.8218L10.6678 14.312H7.9658L6.9018 16.986ZM17.2453 11.176C16.928 10.9893 16.6526 10.8727 16.4193 10.826C16.1953 10.7793 16.004 10.756 15.8453 10.756C15.5653 10.756 15.304 10.8633 15.0613 11.078C14.828 11.2833 14.688 11.5307 14.6413 11.82L14.0533 15.152C13.9973 15.4507 14.0486 15.7073 14.2073 15.922C14.3753 16.1367 14.604 16.244 14.8933 16.244C14.968 16.244 15.0426 16.244 15.1173 16.244C15.192 16.2347 15.2853 16.216 15.3973 16.188C15.5093 16.16 15.6446 16.118 15.8033 16.062C15.9713 16.006 16.1766 15.922 16.4193 15.81L17.2453 11.176ZM16.8393 18.498C16.774 18.8527 16.6573 19.156 16.4893 19.408C16.3306 19.6693 16.1346 19.8793 15.9013 20.038C15.6773 20.206 15.4206 20.3273 15.1313 20.402C14.8513 20.486 14.5573 20.528 14.2493 20.528C14.1 20.528 13.9133 20.5047 13.6893 20.458C13.4746 20.4113 13.26 20.36 13.0453 20.304C12.8026 20.2387 12.546 20.1593 12.2753 20.066L12.6673 19.24C12.9193 19.324 13.162 19.3987 13.3953 19.464C13.5913 19.52 13.7826 19.5713 13.9693 19.618C14.1653 19.6647 14.31 19.688 14.4033 19.688C14.7673 19.688 15.0986 19.59 15.3973 19.394C15.7053 19.198 15.892 18.904 15.9573 18.512L16.2653 16.832C15.9386 16.9813 15.6633 17.0653 15.4393 17.084C15.2246 17.112 15.038 17.126 14.8793 17.126H14.7393C14.4686 17.126 14.226 17.0747 14.0113 16.972C13.7966 16.86 13.6193 16.7153 13.4793 16.538C13.3393 16.3513 13.2413 16.1367 13.1853 15.894C13.1293 15.6513 13.1246 15.39 13.1713 15.11L13.7453 11.876C13.792 11.596 13.8853 11.3347 14.0253 11.092C14.1746 10.8493 14.352 10.6393 14.5573 10.462C14.7626 10.2753 14.9866 10.1307 15.2293 10.028C15.4813 9.91604 15.7426 9.86003 16.0133 9.86003C16.2186 9.86003 16.452 9.89271 16.7133 9.95804C16.984 10.0233 17.264 10.1213 17.5533 10.252L18.0713 9.81804L18.5893 10.448L18.1973 10.77L16.8393 18.498Z" fill="#131313"/>
</svg>
