<svg width="24" height="24" viewBox="0 0 24 24" fill="none" xmlns="http://www.w3.org/2000/svg">
<path d="M3.37112 17.0001L6.95512 7.66211H9.01312L12.4291 17.0001H10.4691L7.41712 8.30611L8.25712 8.23611L5.20512 17.0001H3.37112ZM5.26112 14.7181L5.70912 13.2621H10.0631L10.2171 14.7181H5.26112ZM16.3737 17.2101C15.7111 17.1914 15.1464 17.0468 14.6797 16.7761C14.2131 16.5054 13.8537 16.1134 13.6017 15.6001C13.3591 15.0774 13.2377 14.4381 13.2377 13.6821C13.2377 12.8888 13.3357 12.2401 13.5317 11.7361C13.7277 11.2228 13.9984 10.8261 14.3437 10.5461C14.6984 10.2568 15.1091 10.0561 15.5757 9.94411C16.0517 9.83211 16.5557 9.77611 17.0877 9.77611C17.6384 9.77611 18.1237 9.84611 18.5437 9.98611C18.9731 10.1261 19.3091 10.3314 19.5517 10.6021C19.8037 10.8728 19.9297 11.2181 19.9297 11.6381V17.1541C19.9297 17.5834 19.8597 17.9708 19.7197 18.3161C19.5797 18.6708 19.3651 18.9741 19.0757 19.2261C18.7957 19.4781 18.4411 19.6694 18.0117 19.8001C17.5824 19.9401 17.0691 20.0101 16.4717 20.0101C15.9211 20.0101 15.4404 19.9681 15.0297 19.8841C14.6191 19.8001 14.2924 19.7068 14.0497 19.6041V18.0221C14.1897 18.0781 14.3811 18.1434 14.6237 18.2181C14.8757 18.3021 15.1557 18.3721 15.4637 18.4281C15.7717 18.4841 16.0797 18.5121 16.3877 18.5121C16.8824 18.5121 17.2557 18.4468 17.5077 18.3161C17.7691 18.1854 17.9464 18.0128 18.0397 17.7981C18.1331 17.5834 18.1797 17.3501 18.1797 17.0981V15.9921L18.5857 16.3001C18.4271 16.4774 18.2311 16.6361 17.9977 16.7761C17.7737 16.9068 17.5217 17.0094 17.2417 17.0841C16.9711 17.1681 16.6817 17.2101 16.3737 17.2101ZM16.7517 15.8381C17.0037 15.8381 17.2511 15.8101 17.4937 15.7541C17.7457 15.6888 17.9744 15.5954 18.1797 15.4741V12.0021C18.1797 11.7781 18.1191 11.6148 17.9977 11.5121C17.8857 11.4001 17.7317 11.3254 17.5357 11.2881C17.3491 11.2414 17.1437 11.2181 16.9197 11.2181C16.4251 11.2181 16.0377 11.3208 15.7577 11.5261C15.4871 11.7314 15.2957 12.0161 15.1837 12.3801C15.0717 12.7441 15.0157 13.1501 15.0157 13.5981C15.0157 14.2794 15.1651 14.8254 15.4637 15.2361C15.7624 15.6374 16.1917 15.8381 16.7517 15.8381Z" fill="#131313"/>
</svg>
