<svg width="24" height="24" viewBox="0 0 24 24" fill="none" xmlns="http://www.w3.org/2000/svg">
<path d="M8.25609 7.50781H8.41009C8.64343 7.50781 8.79276 7.53581 8.85809 7.59181C8.93276 7.64781 8.97943 7.68514 8.99809 7.70381C9.02609 7.71314 9.05876 7.75048 9.09609 7.81581C9.14276 7.88114 9.17076 7.92314 9.18009 7.94181C9.19876 7.96048 9.23143 8.01648 9.27809 8.10981C9.32476 8.20314 9.35743 8.26381 9.37609 8.29181C10.5241 10.3731 11.5834 13.0425 12.5541 16.2998C12.5821 16.4118 12.5961 16.5191 12.5961 16.6218C12.5961 16.8738 12.4514 16.9998 12.1621 16.9998H11.8261C11.6674 16.9998 11.5554 16.9718 11.4901 16.9158C11.4341 16.8598 11.3921 16.8178 11.3641 16.7898C11.3361 16.7618 11.3081 16.7105 11.2801 16.6358C11.2521 16.5518 11.2334 16.4911 11.2241 16.4538C11.1961 16.3978 11.1028 16.0805 10.9441 15.5018C10.7948 14.9138 10.6268 14.3491 10.4401 13.8078H6.21209C5.97876 14.5265 5.79676 15.1378 5.66609 15.6418C5.53543 16.1458 5.46076 16.4165 5.44209 16.4538C5.43276 16.4911 5.41409 16.5518 5.38609 16.6358C5.35809 16.7105 5.33009 16.7618 5.30209 16.7898C5.27409 16.8178 5.23676 16.8505 5.19009 16.8878C5.11543 16.9625 4.99876 16.9998 4.84009 16.9998H4.50409C4.20543 16.9998 4.05609 16.8738 4.05609 16.6218C4.05609 16.5565 4.07476 16.4491 4.11209 16.2998C5.08276 13.0425 6.14209 10.3731 7.29009 8.29181C7.30876 8.26381 7.34143 8.20314 7.38809 8.10981C7.43476 8.01648 7.46276 7.96048 7.47209 7.94181C7.49076 7.92314 7.51876 7.88114 7.55609 7.81581C7.60276 7.75048 7.63543 7.71314 7.65409 7.70381C7.68209 7.68514 7.71943 7.65714 7.76609 7.61981C7.81276 7.58248 7.85476 7.55914 7.89209 7.54981C8.02276 7.52181 8.14409 7.50781 8.25609 7.50781ZM8.32609 8.83781C7.71943 9.91114 7.13143 11.2318 6.56209 12.7998H10.1041C9.76809 11.8758 9.17543 10.5551 8.32609 8.83781ZM16.6214 14.9978L15.9914 14.9698C15.7674 14.9698 15.5761 15.0305 15.4174 15.1518C15.2588 15.2638 15.1794 15.3898 15.1794 15.5298C15.1794 15.8845 15.4781 16.0618 16.0754 16.0618H17.1114C19.0994 16.0618 20.0934 16.6731 20.0934 17.8958C20.0934 18.5398 19.7808 19.0625 19.1554 19.4638C18.5394 19.8651 17.7461 20.0845 16.7754 20.1218H16.4394C15.6461 20.1218 14.9694 19.9631 14.4094 19.6458C13.8494 19.3285 13.5694 18.9551 13.5694 18.5258C13.5694 18.3205 13.6161 18.1571 13.7094 18.0358C13.8121 17.9145 13.9428 17.8445 14.1014 17.8258C14.2788 18.1898 14.5914 18.4931 15.0394 18.7358C15.4874 18.9785 16.0148 19.0998 16.6214 19.0998H16.7194C17.4194 19.0998 17.9654 18.9925 18.3574 18.7778C18.7588 18.5631 18.9594 18.2925 18.9594 17.9658C18.9594 17.6485 18.7821 17.4151 18.4274 17.2658C18.0821 17.1258 17.4801 17.0558 16.6214 17.0558C15.7721 17.0558 15.1328 16.9718 14.7034 16.8038C14.2741 16.6358 14.0594 16.3091 14.0594 15.8238C14.0594 15.3385 14.4001 14.9558 15.0814 14.6758C14.2694 14.2185 13.8634 13.4905 13.8634 12.4918C13.8634 11.6985 14.1341 11.0825 14.6754 10.6438C15.2168 10.2051 15.8841 9.98581 16.6774 9.98581C17.0788 9.98581 17.4474 10.0698 17.7834 10.2378C18.1288 10.4058 18.3901 10.5878 18.5674 10.7838C18.9221 10.5505 19.0994 10.1258 19.0994 9.50981C19.3514 9.50981 19.5754 9.58914 19.7714 9.74781C19.9674 9.89714 20.0654 10.0885 20.0654 10.3218C20.0654 10.7885 19.7201 11.1245 19.0294 11.3298C19.2348 11.6098 19.3374 12.0205 19.3374 12.5618C19.3374 13.3551 19.0761 13.9618 18.5534 14.3818C18.0401 14.7925 17.3961 14.9978 16.6214 14.9978ZM17.7974 11.2878C17.4894 11.0171 17.0974 10.8818 16.6214 10.8818C16.1454 10.8818 15.7488 11.0171 15.4314 11.2878C15.1141 11.5491 14.9554 11.9551 14.9554 12.5058C14.9554 13.0565 15.1141 13.4671 15.4314 13.7378C15.7488 13.9991 16.1454 14.1298 16.6214 14.1298C17.0974 14.1298 17.4894 13.9991 17.7974 13.7378C18.1148 13.4671 18.2734 13.0565 18.2734 12.5058C18.2734 11.9551 18.1148 11.5491 17.7974 11.2878Z" fill="#131313"/>
</svg>
