<svg width="24" height="24" viewBox="0 0 24 24" fill="none" xmlns="http://www.w3.org/2000/svg">
<path d="M10.8427 6.58398L12.5647 16.146L13.6707 16.356L13.6287 17H9.33068L9.35868 16.356L10.5067 16.174L10.1707 14.06H6.62868L5.69068 16.16L6.96468 16.356L6.92268 17H3.28268L3.33868 16.356L4.29068 16.174L8.89668 6.58398H10.8427ZM7.02068 13.15H10.0447L9.42868 9.01998L9.35868 7.87198L7.02068 13.15ZM20.0015 17.532C19.8615 18.596 19.4042 19.3567 18.6295 19.814C17.8549 20.2807 16.9682 20.514 15.9695 20.514C15.6615 20.514 15.3302 20.4813 14.9755 20.416C14.6302 20.36 14.3875 20.2993 14.2475 20.234L14.5695 18.918C14.7469 19.03 15.0175 19.156 15.3815 19.296C15.7455 19.436 16.0955 19.506 16.4315 19.506C16.9729 19.506 17.3695 19.3987 17.6215 19.184C17.8735 18.9693 18.0369 18.5633 18.1115 17.966L18.3215 16.3C18.0695 16.5427 17.7755 16.7433 17.4395 16.902C17.1035 17.0607 16.7395 17.14 16.3475 17.14C15.5635 17.14 14.9709 16.874 14.5695 16.342C14.1775 15.8007 13.9815 15.096 13.9815 14.228C13.9815 13.3693 14.1589 12.5433 14.5135 11.75C14.8775 10.9567 15.4049 10.308 16.0955 9.80398C16.7955 9.29998 17.6215 9.04798 18.5735 9.04798C18.8349 9.04798 19.1149 9.08065 19.4135 9.14598C19.7122 9.20198 19.9735 9.27198 20.1975 9.35598L21.1915 9.04798L20.0015 17.532ZM19.2175 10.084C19.0215 9.97198 18.7509 9.91598 18.4055 9.91598C17.8455 9.91598 17.3789 10.1353 17.0055 10.574C16.6322 11.0033 16.3569 11.5447 16.1795 12.198C16.0115 12.842 15.9275 13.4907 15.9275 14.144C15.9275 14.7507 16.0255 15.2267 16.2215 15.572C16.4269 15.908 16.7069 16.076 17.0615 16.076C17.3229 16.076 17.5749 16.0013 17.8175 15.852C18.0695 15.6933 18.2842 15.5067 18.4615 15.292L19.2175 10.084Z" fill="#131313"/>
</svg>
