<svg width="24" height="24" viewBox="0 0 24 24" fill="none" xmlns="http://www.w3.org/2000/svg">
<path d="M2.40918 16.4326C2.92871 16.3415 3.22266 16.264 3.29102 16.2002C3.36393 16.1318 3.40267 16.0521 3.40723 15.9609C3.41178 15.8652 3.41406 15.7331 3.41406 15.5645L3.40723 14.8604V14.4912C3.40723 12.0804 3.71257 10.2871 4.32324 9.11133C4.71061 8.35482 5.29167 7.66667 6.06641 7.04688C6.4401 6.75065 6.85938 6.44759 7.32422 6.1377H7.33105C8.34733 6.81673 9.09473 7.44336 9.57324 8.01758C10.152 8.70573 10.5667 9.53516 10.8174 10.5059C11.0726 11.4993 11.2002 12.8232 11.2002 14.4775V14.8604L11.1934 15.5508C11.1934 15.724 11.2002 15.8584 11.2139 15.9541C11.2275 16.0498 11.2686 16.125 11.3369 16.1797C11.4235 16.2572 11.7334 16.3415 12.2666 16.4326V17H8.51367V16.4326C9.11068 16.3643 9.46842 16.2663 9.58691 16.1387C9.68262 16.0339 9.73503 15.8766 9.74414 15.667C9.75781 15.4574 9.76465 15.2546 9.76465 15.0586V13.4043H4.84961V15.0586C4.84961 15.3548 4.85645 15.5872 4.87012 15.7559C4.88835 15.9199 4.93848 16.0475 5.02051 16.1387C5.10254 16.2253 5.22786 16.2868 5.39648 16.3232C5.5651 16.3597 5.80208 16.3962 6.10742 16.4326V17H2.40918V16.4326ZM9.75098 12.6387C9.74186 11.4629 9.5778 10.4922 9.25879 9.72655C8.92155 8.91991 8.27669 8.04492 7.32422 7.10156C6.68164 7.74414 6.23047 8.27279 5.9707 8.6875C5.71549 9.09766 5.52865 9.444 5.41016 9.72655C5.29167 10.0091 5.19368 10.3031 5.11621 10.6084C4.98861 11.1462 4.9043 11.8229 4.86328 12.6387H9.75098ZM18.9453 16.2207C18.3529 16.8496 17.6396 17.1641 16.8057 17.1641C15.6572 17.1641 14.7617 16.738 14.1191 15.8857C13.5449 15.1247 13.2578 14.1562 13.2578 12.9805C13.2578 11.7819 13.5745 10.7747 14.208 9.95897C14.9098 9.05663 15.9033 8.60546 17.1885 8.60546C17.5531 8.60546 17.9336 8.61913 18.3301 8.64647C19.0866 8.70572 19.5583 8.73534 19.7451 8.73534H21.5156V9.31641C20.9961 9.35286 20.6816 9.42806 20.5723 9.54199C20.4629 9.65137 20.3968 9.77668 20.374 9.91796C20.3512 10.0547 20.3398 10.2324 20.3398 10.4512V16.6514C20.3398 17.8363 20.014 18.8411 19.3623 19.666C18.6559 20.5638 17.7057 21.0127 16.5117 21.0127C15.9147 21.0127 15.3382 20.876 14.7822 20.6025L15.0488 19.8643C15.4408 20.0192 15.8805 20.0967 16.3682 20.0967C16.8558 20.0967 17.266 19.9964 17.5986 19.7959C17.9359 19.5999 18.2048 19.3424 18.4053 19.0234C18.7653 18.4355 18.9453 17.6494 18.9453 16.665V16.2207ZM14.8096 12.9805C14.8096 15.2637 15.4932 16.4053 16.8604 16.4053C17.4528 16.4053 17.9495 16.2139 18.3506 15.8311C18.7471 15.4528 18.9453 14.9971 18.9453 14.4639V10.7383C18.9453 10.278 18.8701 9.9681 18.7197 9.80859C18.4281 9.4987 17.9085 9.34375 17.1611 9.34375C15.5934 9.34375 14.8096 10.556 14.8096 12.9805Z" fill="#131313"/>
</svg>
