<svg width="24" height="24" viewBox="0 0 24 24" fill="none" xmlns="http://www.w3.org/2000/svg">
<path d="M11.7324 17H10.4404L9.29199 13.9922H4.75293L3.67969 17H2.38086L6.45508 6.41113H7.6377L11.7324 17ZM8.89551 12.9258L7.2002 8.35254C7.15462 8.22493 7.10221 7.99251 7.04297 7.65527H7.00879C6.95866 7.96517 6.90169 8.19759 6.83789 8.35254L5.16309 12.9258H8.89551ZM19.5459 16.4053C19.5459 19.1761 18.2334 20.5615 15.6084 20.5615C14.6787 20.5615 13.8607 20.3815 13.1543 20.0215V18.8594C14.0065 19.3333 14.8223 19.5703 15.6016 19.5703C17.4746 19.5703 18.4111 18.5654 18.4111 16.5557V15.7148H18.3838C17.7913 16.6901 16.9209 17.1777 15.7725 17.1777C14.8245 17.1777 14.0658 16.8382 13.4961 16.1592C12.9264 15.4801 12.6416 14.5824 12.6416 13.4658C12.6416 12.1761 12.9538 11.153 13.5781 10.3965C14.2025 9.63997 15.0433 9.26172 16.1006 9.26172C17.126 9.26172 17.887 9.67415 18.3838 10.499H18.4111V9.43945H19.5459V16.4053ZM18.4111 12.4473C18.4111 11.832 18.1992 11.3102 17.7754 10.8818C17.3516 10.4489 16.8411 10.2324 16.2441 10.2324C15.4876 10.2324 14.8906 10.5104 14.4531 11.0664C14.0202 11.6224 13.8037 12.3949 13.8037 13.3838C13.8037 14.2406 14.0133 14.9264 14.4326 15.4414C14.8519 15.9518 15.3965 16.207 16.0664 16.207C16.7454 16.207 17.306 15.9632 17.748 15.4756C18.1901 14.9834 18.4111 14.3568 18.4111 13.5957V12.4473Z" fill="#131313"/>
</svg>
