<svg width="24" height="24" viewBox="0 0 24 24" fill="none" xmlns="http://www.w3.org/2000/svg">
<path d="M5.91191 17L9.56591 6.5H10.9939L11.6869 17H10.3219L10.2169 15.054H7.93491L7.27691 17H5.91191ZM8.34091 13.724H10.1749L9.91591 8.355H10.1119L8.34091 13.724ZM14.6217 19.562C13.889 19.562 13.3407 19.3287 12.9767 18.862C12.6127 18.4 12.475 17.7957 12.5637 17.049L12.5917 16.825H13.8517L13.8167 17.119C13.784 17.4643 13.8493 17.7467 14.0127 17.966C14.176 18.19 14.4373 18.302 14.7967 18.302C15.1513 18.302 15.45 18.1923 15.6927 17.973C15.9353 17.7537 16.08 17.469 16.1267 17.119L16.4207 14.97L16.6027 15.257C16.402 15.5463 16.1477 15.775 15.8397 15.943C15.5363 16.111 15.1863 16.195 14.7897 16.195C14.4163 16.195 14.0827 16.111 13.7887 15.943C13.4947 15.7703 13.2753 15.5043 13.1307 15.145C12.9907 14.7857 12.9603 14.3213 13.0397 13.752L13.3337 11.631C13.413 11.0617 13.574 10.5973 13.8167 10.238C14.0593 9.87867 14.351 9.615 14.6917 9.447C15.0323 9.279 15.3917 9.195 15.7697 9.195C16.1663 9.195 16.493 9.27667 16.7497 9.44C17.011 9.60333 17.2 9.83433 17.3167 10.133L17.0647 10.42L17.2117 9.37H18.4717L17.3937 17.063C17.3283 17.5623 17.165 17.9987 16.9037 18.372C16.647 18.75 16.3227 19.0417 15.9307 19.247C15.5387 19.457 15.1023 19.562 14.6217 19.562ZM15.2867 14.935C15.6553 14.935 15.954 14.8253 16.1827 14.606C16.4113 14.3867 16.549 14.1043 16.5957 13.759L16.8897 11.631C16.9363 11.2763 16.8757 10.9917 16.7077 10.777C16.5443 10.5623 16.2807 10.455 15.9167 10.455C15.5573 10.455 15.2587 10.5647 15.0207 10.784C14.7827 10.9987 14.6403 11.281 14.5937 11.631L14.2997 13.752C14.253 14.102 14.316 14.3867 14.4887 14.606C14.6613 14.8253 14.9273 14.935 15.2867 14.935Z" fill="#131313"/>
</svg>
