<svg width="24" height="24" viewBox="0 0 24 24" fill="none" xmlns="http://www.w3.org/2000/svg">
<path d="M6.01723 17L9.86723 6.5H10.6792L11.5892 17H10.7912L10.5952 14.746H7.65523L6.81523 17H6.01723ZM7.92123 13.976H10.5252L10.0352 7.662H10.1752L7.92123 13.976ZM14.56 19.562C13.846 19.562 13.3093 19.3357 12.95 18.883C12.5953 18.4303 12.4553 17.8447 12.53 17.126L12.544 16.986H13.314L13.3 17.126C13.2533 17.6207 13.3443 18.022 13.573 18.33C13.8063 18.638 14.168 18.792 14.658 18.792C15.1526 18.792 15.568 18.638 15.904 18.33C16.2446 18.022 16.45 17.6207 16.52 17.126L16.8 15.096L16.912 15.264C16.6973 15.5487 16.429 15.775 16.107 15.943C15.785 16.1063 15.4233 16.188 15.022 16.188C14.574 16.188 14.189 16.0877 13.867 15.887C13.545 15.6817 13.3093 15.397 13.16 15.033C13.0106 14.6643 12.9686 14.2373 13.034 13.752L13.314 11.694C13.3793 11.2133 13.538 10.791 13.79 10.427C14.042 10.063 14.3593 9.78067 14.742 9.58C15.1246 9.37467 15.5423 9.272 15.995 9.272C16.3963 9.272 16.7323 9.35367 17.003 9.517C17.2736 9.68033 17.4766 9.90667 17.612 10.196L17.472 10.364L17.598 9.44H18.368L17.29 17.126C17.2246 17.6113 17.0636 18.036 16.807 18.4C16.5503 18.7687 16.2283 19.0533 15.841 19.254C15.4536 19.4593 15.0266 19.562 14.56 19.562ZM15.183 15.418C15.6823 15.418 16.093 15.2663 16.415 14.963C16.737 14.6597 16.9306 14.2607 16.996 13.766L17.276 11.694C17.3413 11.1947 17.2573 10.7957 17.024 10.497C16.7906 10.1937 16.422 10.042 15.918 10.042C15.428 10.042 15.015 10.1937 14.679 10.497C14.3476 10.7957 14.1493 11.1947 14.084 11.694L13.804 13.752C13.7386 14.2467 13.8273 14.648 14.07 14.956C14.3126 15.264 14.6836 15.418 15.183 15.418Z" fill="#131313"/>
</svg>
