<svg width="24" height="24" viewBox="0 0 24 24" fill="none" xmlns="http://www.w3.org/2000/svg">
<path d="M8.93885 7.5602C8.81085 7.32553 8.74685 7.09087 8.74685 6.8562C8.74685 6.1202 9.94151 5.67753 12.3309 5.5282C12.5335 5.0802 12.6829 4.71753 12.7789 4.4402C12.7789 4.41887 12.7949 4.4082 12.8269 4.4082C12.8909 4.4082 13.0082 4.52553 13.1789 4.7602C13.3495 4.99487 13.4349 5.2082 13.4349 5.4002C13.4349 5.41087 13.4295 5.42687 13.4189 5.4482C13.4189 5.46953 13.4189 5.48553 13.4189 5.4962C13.5682 5.48553 13.7815 5.4802 14.0589 5.4802C14.5389 5.4802 14.9655 5.5122 15.3389 5.5762C15.7122 5.6402 15.8989 5.71487 15.8989 5.8002C15.8989 5.8642 15.8615 5.9282 15.7869 5.9922C14.9229 7.60287 14.0589 9.47487 13.1949 11.6082L13.4829 11.5282C13.5362 11.5282 13.5629 11.5389 13.5629 11.5602C13.5629 11.5815 13.4082 11.6882 13.0989 11.8802C12.2669 13.9495 11.8029 15.4642 11.7069 16.4242C11.6535 17.0109 11.6269 17.3149 11.6269 17.3362C11.6269 17.5709 11.6375 17.7895 11.6589 17.9922C11.6802 18.1949 11.7015 18.3495 11.7229 18.4562C11.7549 18.5629 11.7709 18.6322 11.7709 18.6642C11.7709 18.6962 11.7549 18.7122 11.7229 18.7122C11.6055 18.7122 11.4455 18.6269 11.2429 18.4562C11.0402 18.2962 10.8375 18.0295 10.6349 17.6562C10.4429 17.2829 10.3469 16.8669 10.3469 16.4082C10.3469 15.7149 10.6722 14.4935 11.3229 12.7442C10.5975 13.0429 10.0269 13.1922 9.61085 13.1922C9.31218 13.1922 9.04551 13.1602 8.81085 13.0962C6.80551 15.8055 5.37085 17.1602 4.50685 17.1602C3.90951 17.1602 3.41885 16.9789 3.03485 16.6162C2.66151 16.2429 2.47485 15.8055 2.47485 15.3042C2.47485 14.4615 2.80551 13.5549 3.46685 12.5842C4.12818 11.6135 4.73085 11.1282 5.27485 11.1282C5.49885 11.1282 5.70151 11.1602 5.88285 11.2242C6.06418 11.2882 6.19751 11.3522 6.28285 11.4162C6.36818 11.4802 6.41085 11.5335 6.41085 11.5762C6.41085 11.6082 6.34685 11.6669 6.21885 11.7522C6.10151 11.8269 5.94685 11.9335 5.75485 12.0722C5.56285 12.2109 5.40285 12.3602 5.27485 12.5202C4.88018 13.0109 4.53351 13.6135 4.23485 14.3282C3.93618 15.0322 3.78685 15.5602 3.78685 15.9122C3.78685 16.0295 3.80285 16.1095 3.83485 16.1522C3.87751 16.1842 3.95218 16.2002 4.05885 16.2002C5.02951 16.2002 6.35751 15.0642 8.04285 12.7922C7.59485 12.5362 7.37085 12.3389 7.37085 12.2002C7.37085 12.1682 7.41351 12.1522 7.49885 12.1522C7.52018 12.1522 7.62685 12.1789 7.81885 12.2322C8.02151 12.2855 8.20818 12.3229 8.37885 12.3442C9.66951 10.5415 10.8695 8.5202 11.9789 6.2802C10.4855 6.49353 9.47218 6.9202 8.93885 7.5602ZM11.6269 11.9922C12.5122 9.79487 13.4242 7.8322 14.3629 6.1042C13.8295 6.12553 13.4242 6.14687 13.1469 6.1682C12.2829 7.9282 11.0189 9.9922 9.35485 12.3602C10.0055 12.2962 10.7629 12.1735 11.6269 11.9922ZM17.4487 11.2242C17.8007 11.2242 18.2114 11.4589 18.6807 11.9282C18.6914 11.8962 18.7181 11.8269 18.7607 11.7202C18.8034 11.6029 18.8354 11.5175 18.8567 11.4642C18.8887 11.4002 18.9207 11.3309 18.9527 11.2562C18.9954 11.1815 19.0327 11.1282 19.0647 11.0962C19.1074 11.0535 19.1447 11.0322 19.1767 11.0322C19.2834 11.0322 19.4541 11.1015 19.6887 11.2402C19.9341 11.3682 20.0567 11.4749 20.0567 11.5602C19.8861 12.0509 19.4861 12.8775 18.8567 14.0402C18.2274 15.2029 17.5501 16.3709 16.8247 17.5442H17.4167C18.3341 17.5442 19.0754 17.6562 19.6407 17.8802C20.2061 18.1149 20.5261 18.4189 20.6007 18.7922C19.7047 18.4189 18.6754 18.2322 17.5127 18.2322C17.0647 18.2322 16.6861 18.2535 16.3767 18.2962C15.0221 20.4295 14.1047 21.6349 13.6247 21.9122C13.3047 21.9122 12.8567 21.6509 12.2807 21.1282C11.6941 20.6055 11.4007 20.1522 11.4007 19.7682C11.4007 19.3629 11.8007 18.9469 12.6007 18.5202C13.3901 18.0935 14.4087 17.8055 15.6567 17.6562C16.2967 16.6215 16.9634 15.4215 17.6567 14.0562C16.0354 15.9975 15.0327 16.9682 14.6487 16.9682C14.3927 16.9682 14.1794 16.8775 14.0087 16.6962C13.8381 16.5042 13.7527 16.2695 13.7527 15.9922C13.7527 15.4269 14.0034 14.7602 14.5047 13.9922C15.0061 13.2135 15.5501 12.5575 16.1367 12.0242C16.7234 11.4909 17.1607 11.2242 17.4487 11.2242ZM14.8247 16.0722C14.9421 16.0722 15.3474 15.7469 16.0407 15.0962C16.7341 14.4455 17.4754 13.6882 18.2647 12.8242L18.4567 12.4242C18.1794 12.2429 17.9874 12.1522 17.8807 12.1522C17.6354 12.1522 17.2567 12.4029 16.7447 12.9042C16.2434 13.3949 15.7847 13.9549 15.3687 14.5842C14.9527 15.2135 14.7447 15.6882 14.7447 16.0082C14.7447 16.0509 14.7714 16.0722 14.8247 16.0722ZM13.2887 21.0642C13.6514 20.7442 14.2594 19.9015 15.1127 18.5362C14.5581 18.6855 14.0567 18.8829 13.6087 19.1282C13.1714 19.3735 12.8621 19.5922 12.6807 19.7842C12.4887 19.9762 12.3927 20.1149 12.3927 20.2002C12.3927 20.2962 12.4994 20.4455 12.7127 20.6482C12.9154 20.8615 13.1074 21.0002 13.2887 21.0642Z" fill="#131313"/>
</svg>
