<svg width="24" height="24" viewBox="0 0 24 24" fill="none" xmlns="http://www.w3.org/2000/svg">
<path d="M10.4893 14.2383H6.74316L5.71777 17H4.56934L8.1377 7.49121H9.16309L12.7314 17H11.5146L10.4893 14.2383ZM10.1338 13.2812L8.61621 9.17969L7.0918 13.2812H10.1338ZM16.5527 11.3467C15.8327 11.3467 15.3724 11.6816 15.1719 12.3516C15.1172 12.5247 15.0898 12.7025 15.0898 12.8848C15.0898 13.263 15.2061 13.5729 15.4385 13.8145C15.6709 14.0514 16.0423 14.1699 16.5527 14.1699C17.2728 14.1699 17.7331 13.86 17.9336 13.2402C17.9883 13.0807 18.0156 12.9212 18.0156 12.7617C18.0156 12.429 17.9085 12.1191 17.6943 11.832C17.4437 11.5085 17.0632 11.3467 16.5527 11.3467ZM18.6924 11.4629C18.9749 11.8639 19.1162 12.2946 19.1162 12.7549C19.1162 13.5023 18.8382 14.097 18.2822 14.5391C17.8584 14.8809 17.2819 15.0518 16.5527 15.0518C16.1608 15.0518 15.8099 15.0107 15.5 14.9287C15.2311 15.1338 15.0967 15.3662 15.0967 15.626C15.0967 15.986 15.6823 16.166 16.8535 16.166C18.2025 16.166 19.0615 16.4919 19.4307 17.1436C19.5446 17.3441 19.6016 17.5719 19.6016 17.8271C19.6016 18.3877 19.4443 18.8617 19.1299 19.249C18.5283 19.9919 17.5143 20.3633 16.0879 20.3633C15.3633 20.3633 14.7731 20.2174 14.3174 19.9258C13.8662 19.6341 13.6406 19.208 13.6406 18.6475C13.6406 18.0778 13.873 17.6038 14.3379 17.2256C14.4746 17.1162 14.6432 17 14.8438 16.877C14.2786 16.6855 13.9961 16.3392 13.9961 15.8379C13.9961 15.651 14.0599 15.4414 14.1875 15.209C14.3151 14.9766 14.5088 14.7692 14.7686 14.5869C14.2627 14.2223 14.0029 13.6641 13.9893 12.9121V12.8711C13.9893 12.2832 14.1738 11.7523 14.543 11.2783C14.7344 11.0322 15.0033 10.8363 15.3496 10.6904C15.696 10.54 16.0628 10.4648 16.4502 10.4648C16.8421 10.4648 17.1771 10.5059 17.4551 10.5879H19.6016V11.4629H18.6924ZM15.8965 17.041C15.4544 17.2871 15.1582 17.5127 15.0078 17.7178C14.8301 17.9548 14.7412 18.2054 14.7412 18.4697C14.7412 18.734 14.821 18.9414 14.9805 19.0918C15.2539 19.3516 15.6914 19.4814 16.293 19.4814C17.1224 19.4814 17.7467 19.2764 18.166 18.8662C18.3893 18.6475 18.501 18.3809 18.501 18.0664C18.501 17.7428 18.3734 17.5081 18.1182 17.3623C17.8447 17.2165 17.5804 17.1299 17.3252 17.1025C16.9788 17.0661 16.6781 17.0479 16.4229 17.0479C16.1722 17.0479 15.9967 17.0456 15.8965 17.041Z" fill="#131313"/>
</svg>
