<svg width="24" height="24" viewBox="0 0 24 24" fill="none" xmlns="http://www.w3.org/2000/svg">
<path d="M12.0041 16.1601C12.0601 16.3748 12.0274 16.5708 11.9061 16.7481C11.7847 16.9161 11.6121 17.0001 11.3881 17.0001H10.9821C10.8514 17.0001 10.7254 16.9581 10.6041 16.8741C10.4921 16.7901 10.4127 16.6874 10.3661 16.5661L9.83406 14.9561C9.79673 14.8348 9.7174 14.7741 9.59606 14.7741H7.20206C7.08073 14.7741 7.0014 14.8348 6.96406 14.9561L6.43206 16.5661C6.3854 16.6874 6.30606 16.7901 6.19406 16.8741C6.08206 16.9581 5.95606 17.0001 5.81606 17.0001H5.41006C5.18606 17.0001 5.0134 16.9161 4.89206 16.7481C4.7614 16.5614 4.7334 16.3654 4.80806 16.1601L7.52406 7.97013C7.57073 7.83946 7.6454 7.7368 7.74806 7.66213C7.86006 7.57813 7.9814 7.53613 8.11206 7.53613H8.68607C8.81673 7.53613 8.93806 7.57813 9.05006 7.66213C9.16206 7.7368 9.23673 7.83946 9.27406 7.97013L12.0041 16.1601ZM9.17606 12.9401L8.47606 10.7981C8.4294 10.7328 8.37806 10.7328 8.32206 10.7981L7.62206 12.9401C7.6034 12.9868 7.60806 13.0288 7.63606 13.0661C7.66406 13.1034 7.7014 13.1221 7.74806 13.1221H9.05006C9.09673 13.1221 9.13406 13.1034 9.16206 13.0661C9.19006 13.0288 9.19473 12.9868 9.17606 12.9401ZM18.2149 17.6721C18.2149 17.9521 18.1449 18.2088 18.0049 18.4421C17.8649 18.6848 17.6782 18.8761 17.4449 19.0161C17.2116 19.1654 16.9502 19.2401 16.6609 19.2401H14.7149C14.5376 19.2401 14.3836 19.1748 14.2529 19.0441C14.1316 18.9228 14.0709 18.7734 14.0709 18.5961V18.2041C14.0709 18.0268 14.1316 17.8774 14.2529 17.7561C14.3836 17.6348 14.5376 17.5741 14.7149 17.5741H16.3669C16.4136 17.5741 16.4556 17.5554 16.4929 17.5181C16.5396 17.4808 16.5629 17.4388 16.5629 17.3921V17.1821C16.5629 17.1354 16.5396 17.0934 16.4929 17.0561C16.4556 17.0188 16.4136 17.0001 16.3669 17.0001H14.7149C14.2856 17.0001 13.9169 16.8508 13.6089 16.5521C13.3009 16.2441 13.1469 15.8708 13.1469 15.4321V11.3161C13.1469 11.0268 13.2169 10.7654 13.3569 10.5321C13.5062 10.2894 13.6976 10.0981 13.9309 9.95813C14.1642 9.81813 14.4256 9.74813 14.7149 9.74813H16.6609C16.9502 9.74813 17.2116 9.81813 17.4449 9.95813C17.6782 10.0981 17.8649 10.2894 18.0049 10.5321C18.1449 10.7654 18.2149 11.0268 18.2149 11.3161V17.6721ZM16.5629 15.1661V11.6101C16.5629 11.5541 16.5396 11.5074 16.4929 11.4701C16.4556 11.4328 16.4136 11.4141 16.3669 11.4141H15.0089C14.9622 11.4141 14.9156 11.4328 14.8689 11.4701C14.8316 11.5074 14.8129 11.5541 14.8129 11.6101V15.1661C14.8129 15.2128 14.8316 15.2548 14.8689 15.2921C14.9156 15.3294 14.9622 15.3481 15.0089 15.3481H16.3669C16.4136 15.3481 16.4556 15.3294 16.4929 15.2921C16.5396 15.2548 16.5629 15.2128 16.5629 15.1661Z" fill="#131313"/>
</svg>
