<svg width="24" height="24" viewBox="0 0 24 24" fill="none" xmlns="http://www.w3.org/2000/svg">
<path d="M1.59478 17.0002V16.2582H2.58878L6.36878 7.41016H7.72678L11.5208 16.2582H12.5148V17.0002H8.25878V16.2582H9.91078L6.53678 8.32016H7.05478L3.68078 16.2582H5.31878V17.0002H1.59478ZM4.38078 14.0182V13.1502H9.23878V14.0182H4.38078ZM16.2015 19.6042C15.4735 19.6042 14.9182 19.4735 14.5355 19.2122C14.1528 18.9602 13.9615 18.5869 13.9615 18.0922C13.9615 17.7935 14.0455 17.5415 14.2135 17.3362C14.3908 17.1402 14.6102 16.9909 14.8715 16.8882C15.1422 16.7762 15.4128 16.7155 15.6835 16.7062L15.7255 16.8322C15.6322 16.8882 15.5295 16.9629 15.4175 17.0562C15.3148 17.1495 15.2262 17.2569 15.1515 17.3782C15.0768 17.4995 15.0395 17.6442 15.0395 17.8122C15.0395 18.1295 15.1468 18.3815 15.3615 18.5682C15.5855 18.7642 15.9355 18.8622 16.4115 18.8622H18.3575C18.6935 18.8622 18.9642 18.8062 19.1695 18.6942C19.3748 18.5915 19.5242 18.4562 19.6175 18.2882C19.7108 18.1202 19.7575 17.9382 19.7575 17.7422C19.7575 17.4529 19.6782 17.2335 19.5195 17.0842C19.3702 16.9442 19.1322 16.8742 18.8055 16.8742H15.5155C14.9088 16.8742 14.4188 16.7295 14.0455 16.4402C13.6722 16.1415 13.4855 15.7449 13.4855 15.2502C13.4855 14.8862 13.5695 14.5829 13.7375 14.3402C13.9148 14.0975 14.1528 13.9109 14.4515 13.7802C14.7502 13.6495 15.0815 13.5842 15.4455 13.5842L15.4735 13.9762C15.2028 13.9949 14.9788 14.0789 14.8015 14.2282C14.6242 14.3775 14.5355 14.5875 14.5355 14.8582C14.5355 15.1102 14.6288 15.3109 14.8155 15.4602C15.0022 15.6095 15.2495 15.6842 15.5575 15.6842H19.0015C19.6642 15.6842 20.1682 15.8335 20.5135 16.1322C20.8588 16.4215 21.0315 16.8229 21.0315 17.3362C21.0315 17.7655 20.9288 18.1482 20.7235 18.4842C20.5275 18.8295 20.2195 19.1002 19.7995 19.2962C19.3888 19.5015 18.8615 19.6042 18.2175 19.6042H16.2015ZM17.1815 14.4522C16.5748 14.4522 16.0428 14.3589 15.5855 14.1722C15.1282 13.9762 14.7735 13.7009 14.5215 13.3462C14.2695 12.9915 14.1435 12.5715 14.1435 12.0862C14.1435 11.3489 14.4235 10.7702 14.9835 10.3502C15.5435 9.92083 16.2902 9.70616 17.2235 9.70616L18.9595 10.5322C19.2862 10.6349 19.5662 10.8309 19.7995 11.1202C20.0328 11.4002 20.1495 11.7689 20.1495 12.2262C20.1495 12.8889 19.8835 13.4255 19.3515 13.8362C18.8288 14.2469 18.1055 14.4522 17.1815 14.4522ZM17.1815 13.6962C17.6762 13.6962 18.0635 13.5515 18.3435 13.2622C18.6328 12.9729 18.7775 12.5809 18.7775 12.0862C18.7775 11.5915 18.6328 11.1949 18.3435 10.8962C18.0635 10.5975 17.6762 10.4482 17.1815 10.4482C16.7055 10.4482 16.3228 10.5975 16.0335 10.8962C15.7442 11.1949 15.5995 11.5915 15.5995 12.0862C15.5995 12.5809 15.7395 12.9729 16.0195 13.2622C16.3088 13.5515 16.6962 13.6962 17.1815 13.6962ZM18.9595 10.5322L17.2235 9.70616H20.9755V10.5322H18.9595Z" fill="#131313"/>
</svg>
