<svg width="24" height="24" viewBox="0 0 24 24" fill="none" xmlns="http://www.w3.org/2000/svg">
<path d="M8.57934 7.03223C5.83534 7.03223 4.04334 8.48823 3.46934 11.4142L2.34934 17.0002H4.58934L5.06534 14.6482H9.53134L9.06934 17.0002H11.3373L12.4013 11.7082C12.4853 11.3022 12.5133 10.9242 12.5133 10.5602C12.5133 8.33423 11.0153 7.03223 8.57934 7.03223ZM5.69534 11.4562C6.04534 9.69223 6.92734 8.96423 8.35534 8.96423C9.55934 8.96423 10.2313 9.55223 10.2313 10.7282C10.2313 10.9802 10.2033 11.2602 10.1473 11.5542L9.89534 12.8282H5.41534L5.69534 11.4562ZM20.3799 10.7002C19.9179 9.74823 18.9519 9.35623 17.8319 9.35623C15.4239 9.35623 13.6319 11.1622 13.6319 13.4722C13.6319 15.4462 15.1019 16.6362 16.9639 16.6362C17.8879 16.6362 18.6719 16.3422 19.2599 15.7962L19.2039 16.1182C18.9379 17.3922 18.2519 18.0642 16.7399 18.0642C15.6759 18.0642 14.6819 17.7422 14.0939 17.2522L13.0579 18.8342C13.9399 19.4782 15.1719 19.8282 16.6419 19.8282C19.2459 19.8282 20.8839 18.6382 21.4579 15.7402L22.7039 9.46823H20.6179L20.3799 10.7002ZM17.5519 14.8442C16.4739 14.8442 15.8299 14.2702 15.8299 13.3602C15.8299 12.0722 16.7539 11.1622 18.0419 11.1622C19.1199 11.1622 19.7359 11.7362 19.7359 12.6462C19.7359 13.9342 18.8259 14.8442 17.5519 14.8442Z" fill="#131313"/>
</svg>
