<svg width="24" height="24" viewBox="0 0 24 24" fill="none" xmlns="http://www.w3.org/2000/svg">
<path d="M2.4369 17.0002V16.6222H3.5289L7.5329 7.36816H7.9389L11.9429 16.6222H13.0349V17.0002H9.71691V16.6222H11.4109L7.58891 7.78816H7.82691L4.0189 16.6222H5.71291V17.0002H2.4369ZM5.08291 13.7802V13.3742H10.3189V13.7802H5.08291ZM16.7712 19.5482C16.0338 19.5482 15.4925 19.3942 15.1472 19.0862C14.8018 18.7875 14.6292 18.3815 14.6292 17.8682C14.6292 17.5695 14.6992 17.3129 14.8392 17.0982C14.9885 16.8929 15.1705 16.7342 15.3852 16.6222C15.5998 16.5009 15.8098 16.4262 16.0152 16.3982L16.0712 16.5382C15.9498 16.5942 15.8098 16.6829 15.6512 16.8042C15.5018 16.9162 15.3665 17.0562 15.2452 17.2242C15.1332 17.4015 15.0772 17.6115 15.0772 17.8542C15.0772 18.2462 15.2078 18.5635 15.4692 18.8062C15.7305 19.0582 16.1738 19.1842 16.7992 19.1842H18.7732C19.2305 19.1842 19.5898 19.1095 19.8512 18.9602C20.1218 18.8202 20.3178 18.6335 20.4392 18.4002C20.5605 18.1762 20.6212 17.9429 20.6212 17.7002C20.6212 17.3269 20.5278 17.0422 20.3412 16.8462C20.1545 16.6502 19.8512 16.5522 19.4312 16.5522H15.9452C15.4318 16.5522 15.0118 16.4215 14.6852 16.1602C14.3678 15.8895 14.2092 15.5349 14.2092 15.0962C14.2092 14.7882 14.2838 14.5269 14.4332 14.3122C14.5825 14.0975 14.7738 13.9342 15.0072 13.8222C15.2498 13.7009 15.5018 13.6355 15.7632 13.6262L15.7912 13.9202C15.4645 13.9575 15.1892 14.0695 14.9652 14.2562C14.7505 14.4429 14.6432 14.7135 14.6432 15.0682C14.6432 15.3762 14.7645 15.6329 15.0072 15.8382C15.2498 16.0435 15.5718 16.1462 15.9732 16.1462H19.4592C20.0098 16.1462 20.4205 16.2769 20.6912 16.5382C20.9712 16.7995 21.1112 17.1635 21.1112 17.6302C21.1112 17.9475 21.0272 18.2509 20.8592 18.5402C20.7005 18.8389 20.4438 19.0815 20.0892 19.2682C19.7438 19.4549 19.2912 19.5482 18.7312 19.5482H16.7712ZM17.5692 14.5642C17.0558 14.5642 16.5985 14.4662 16.1972 14.2702C15.7958 14.0742 15.4785 13.8035 15.2452 13.4582C15.0212 13.1035 14.9092 12.6882 14.9092 12.2122C14.9092 11.4935 15.1565 10.9195 15.6512 10.4902C16.1552 10.0515 16.8178 9.83216 17.6392 9.83216L18.8712 10.2102C19.2818 10.3409 19.6085 10.5789 19.8512 10.9242C20.1032 11.2602 20.2292 11.6942 20.2292 12.2262C20.2292 12.9355 19.9865 13.5049 19.5012 13.9342C19.0158 14.3542 18.3718 14.5642 17.5692 14.5642ZM17.5692 14.1722C18.2225 14.1722 18.7452 13.9949 19.1372 13.6402C19.5292 13.2855 19.7252 12.8095 19.7252 12.2122C19.7252 11.6055 19.5292 11.1249 19.1372 10.7702C18.7545 10.4062 18.2318 10.2242 17.5692 10.2242C16.9345 10.2242 16.4165 10.4062 16.0152 10.7702C15.6138 11.1249 15.4132 11.6055 15.4132 12.2122C15.4132 12.8095 15.6092 13.2855 16.0012 13.6402C16.4025 13.9949 16.9252 14.1722 17.5692 14.1722ZM18.8712 10.2102L17.6392 9.83216H21.1392V10.2102H18.8712Z" fill="#131313"/>
</svg>
