<svg width="24" height="24" viewBox="0 0 24 24" fill="none" xmlns="http://www.w3.org/2000/svg">
<path d="M13.198 17.0002L10.874 7.2002H7.62597L1.38197 17.0002H4.86797L5.84797 15.2922H9.58597L9.90797 17.0002H13.198ZM8.64797 10.4062L9.12397 12.9122H7.20597L8.64797 10.4062ZM20.4189 10.5042C20.0269 9.5522 19.1449 9.2022 18.0809 9.2022C15.7849 9.2022 13.9649 11.0082 13.9649 13.2762C13.9649 15.3482 15.5749 16.5802 17.2689 16.5802C18.0249 16.5802 18.6689 16.3422 19.2009 15.8522L19.1589 16.0482C18.9769 16.9582 18.4869 17.5042 17.2549 17.5042C16.3309 17.5042 15.3649 17.2102 14.7489 16.7482L13.4049 18.9042C14.3569 19.5342 15.6449 19.8562 17.1989 19.8562C19.9569 19.8562 21.8189 18.5822 22.4349 15.4602L23.6529 9.3422H20.6429L20.4189 10.5042ZM17.1569 13.1222C17.1569 12.2542 17.7169 11.6942 18.5289 11.6942C19.2289 11.6942 19.6349 12.1002 19.6349 12.6742C19.6349 13.5422 19.0889 14.1022 18.2769 14.1022C17.5769 14.1022 17.1569 13.6962 17.1569 13.1222Z" fill="#131313"/>
</svg>
