<svg width="24" height="24" viewBox="0 0 24 24" fill="none" xmlns="http://www.w3.org/2000/svg">
<path d="M3.74121 16.8477C3.68652 16.8477 3.65918 16.7975 3.65918 16.6973C3.65918 16.597 3.69564 16.515 3.76855 16.4512C3.82324 16.4329 3.86426 16.4238 3.8916 16.4238L4.11035 16.4512L4.31543 16.4238L4.43848 16.4375C4.5752 16.4375 4.66634 16.2734 4.71191 15.9453C4.73014 15.8177 4.74837 15.6901 4.7666 15.5625C4.78483 15.4349 4.82129 15.3438 4.87598 15.2891C4.85775 15.2799 4.84863 15.2617 4.84863 15.2344C4.84863 15.207 4.85775 15.166 4.87598 15.1113C4.89421 15.0566 4.90788 15.002 4.91699 14.9473C4.93522 14.8926 4.95345 14.8424 4.97168 14.7969C4.98991 14.7422 5.00358 14.7012 5.0127 14.6738C5.02181 14.6465 5.03092 14.6237 5.04004 14.6055C5.05827 14.5781 5.07194 14.5371 5.08105 14.4824C5.09928 14.4277 5.1084 14.3685 5.1084 14.3047C5.1084 14.2409 5.11296 14.1862 5.12207 14.1406C5.1403 14.0859 5.15397 14.0449 5.16309 14.0176C5.1722 13.9902 5.19043 13.9173 5.21777 13.7988C5.25423 13.6803 5.28613 13.5208 5.31348 13.3203C5.34082 13.1107 5.38184 12.9056 5.43652 12.7051C5.49121 12.4954 5.55046 12.2904 5.61426 12.0898C5.67806 11.8802 5.72363 11.707 5.75098 11.5703C5.78743 11.4336 5.81022 11.3333 5.81934 11.2695C5.83757 11.1419 5.86491 11.0417 5.90137 10.9688C5.94694 10.8958 5.97428 10.832 5.9834 10.7773C6.00163 10.7227 6.02441 10.6497 6.05176 10.5586C6.08822 10.4674 6.11556 10.349 6.13379 10.2031C6.15202 10.0482 6.1748 9.92969 6.20215 9.84766C6.22949 9.76562 6.24316 9.72005 6.24316 9.71094C6.25228 9.70182 6.25684 9.67448 6.25684 9.62891C6.25684 9.58333 6.26139 9.55143 6.27051 9.5332C6.28874 9.51497 6.30697 9.49219 6.3252 9.46484L6.39355 9.08203L6.4209 9.06836L6.40723 9.01367C6.40723 8.88607 6.45736 8.72656 6.55762 8.53516C6.66699 8.33464 6.73079 8.22526 6.74902 8.20703C6.75814 8.16146 6.75814 8.11589 6.74902 8.07031C6.74902 7.97005 6.77181 7.90625 6.81738 7.87891C6.84473 7.85156 6.86751 7.78776 6.88574 7.6875L6.94043 7.66016V7.5918C6.94043 7.55534 6.96777 7.52344 7.02246 7.49609C7.04069 7.42318 7.05436 7.35482 7.06348 7.29102C7.08171 7.22721 7.09993 7.16341 7.11816 7.09961L7.21387 6.92188C7.2321 6.89453 7.24121 6.86719 7.24121 6.83984C7.24121 6.80339 7.25033 6.76693 7.26855 6.73047C7.2959 6.6849 7.33236 6.63932 7.37793 6.59375C7.4235 6.54818 7.4554 6.48438 7.47363 6.40234C7.50098 6.3112 7.50553 6.22005 7.4873 6.12891C7.47819 6.02865 7.50098 5.93294 7.55566 5.8418C7.61035 5.81445 7.68783 5.80078 7.78809 5.80078C7.89746 5.80078 7.98861 5.86458 8.06152 5.99219C8.13444 6.11068 8.1709 6.23372 8.1709 6.36133C8.21647 6.42513 8.24837 6.49349 8.2666 6.56641C8.29395 6.63932 8.33496 6.69857 8.38965 6.74414V6.77148C8.38965 6.91732 8.43978 7.09505 8.54004 7.30469C8.64941 7.51432 8.7041 7.66471 8.7041 7.75586C8.73145 7.7832 8.75879 7.86068 8.78613 7.98828C8.82259 8.11589 8.90007 8.23893 9.01855 8.35742L9.00488 8.39844C9.00488 8.4987 9.02767 8.58984 9.07324 8.67188C9.1735 8.84505 9.22363 9.00911 9.22363 9.16406C9.22363 9.3099 9.29655 9.57878 9.44238 9.9707C9.58822 10.3535 9.67025 10.6315 9.68848 10.8047L9.6748 10.8184C9.6748 10.8457 9.68392 10.8594 9.70215 10.8594C9.76595 10.8776 9.79785 10.9323 9.79785 11.0234C9.79785 11.1146 9.83887 11.2103 9.9209 11.3105C9.96647 11.3926 9.99837 11.4837 10.0166 11.584C10.0439 11.6751 10.0941 11.7572 10.167 11.8301V11.8574C10.167 11.9212 10.1807 11.9805 10.208 12.0352C10.2354 12.0898 10.2536 12.14 10.2627 12.1855C10.2809 12.2311 10.29 12.2721 10.29 12.3086C10.2992 12.3359 10.3083 12.3633 10.3174 12.3906C10.3356 12.418 10.3584 12.4727 10.3857 12.5547C10.4222 12.6276 10.4541 12.7096 10.4814 12.8008C10.5179 12.8919 10.5498 12.974 10.5771 13.0469C10.6045 13.1198 10.6182 13.1654 10.6182 13.1836V13.2246C10.6637 13.2702 10.6911 13.3203 10.7002 13.375C10.7093 13.4206 10.723 13.4707 10.7412 13.5254C10.7959 13.5983 10.8278 13.6803 10.8369 13.7715C10.846 13.8626 10.8597 13.9492 10.8779 14.0312C10.9053 14.1133 10.9326 14.1816 10.96 14.2363C10.9964 14.291 11.0283 14.3503 11.0557 14.4141C11.0921 14.4779 11.1149 14.5599 11.124 14.6602C11.1423 14.7513 11.1605 14.8333 11.1787 14.9062C11.1969 14.9701 11.2197 15.0339 11.2471 15.0977C11.2835 15.1523 11.3109 15.2161 11.3291 15.2891C11.3473 15.3529 11.3519 15.4212 11.3428 15.4941C11.3428 15.6309 11.361 15.7357 11.3975 15.8086C11.443 15.8724 11.4795 15.959 11.5068 16.0684C11.5615 16.1868 11.598 16.2962 11.6162 16.3965C11.6344 16.4967 11.6755 16.5742 11.7393 16.6289L11.7803 16.6426C11.8896 16.6426 11.9671 16.6152 12.0127 16.5605C12.0674 16.515 12.1403 16.4876 12.2314 16.4785C12.359 16.5514 12.4229 16.6517 12.4229 16.7793C12.4229 16.8066 12.4183 16.8294 12.4092 16.8477C12.4274 16.9023 12.391 16.9388 12.2998 16.957C12.2178 16.9844 12.1585 17.0026 12.1221 17.0117C12.0492 17.0664 11.9808 17.0892 11.917 17.0801C11.8623 17.0801 11.8167 17.0846 11.7803 17.0938C11.7529 17.1029 11.7301 17.112 11.7119 17.1211C11.7028 17.1302 11.6891 17.1393 11.6709 17.1484H11.5615C11.516 17.1484 11.4658 17.1712 11.4111 17.2168C11.3656 17.2624 11.3245 17.2852 11.2881 17.2852C11.2516 17.2852 11.165 17.276 11.0283 17.2578L10.6045 17.3398C10.5589 17.3398 10.527 17.3353 10.5088 17.3262C10.445 17.3444 10.3903 17.3672 10.3447 17.3945C10.2992 17.4219 10.2399 17.4355 10.167 17.4355C10.1396 17.39 10.1123 17.3444 10.085 17.2988C10.0576 17.2533 10.0439 17.1986 10.0439 17.1348C10.0713 17.0527 10.1351 16.9935 10.2354 16.957C10.3356 16.9206 10.4313 16.8841 10.5225 16.8477C10.6136 16.8203 10.6956 16.7884 10.7686 16.752C10.8415 16.7246 10.8779 16.679 10.8779 16.6152L10.7412 16.123C10.723 16.0957 10.7048 16.0684 10.6865 16.041C10.6683 16.0228 10.6501 15.9909 10.6318 15.9453C10.6227 15.8997 10.6182 15.8451 10.6182 15.7812C10.6182 15.7083 10.609 15.6445 10.5908 15.5898C10.5726 15.5352 10.5544 15.4805 10.5361 15.4258C10.5179 15.3711 10.4997 15.321 10.4814 15.2754C10.4359 15.2389 10.3812 15.1842 10.3174 15.1113C10.2536 15.0293 10.1898 14.9883 10.126 14.9883L9.94824 15.0156L9.78418 14.9883C9.74772 14.9883 9.71126 14.9974 9.6748 15.0156C9.56543 15.0521 9.43327 15.0703 9.27832 15.0703H9.01855L8.78613 15.043L8.71777 15.0703L8.49902 15.0156L8.34863 15.0293C8.31217 15.0293 8.28027 15.0156 8.25293 14.9883C8.14355 15.043 8.07064 15.0703 8.03418 15.0703L7.71973 15.0156L7.56934 15.043L7.36426 14.9883L6.99512 15.0156H6.77637C6.30241 15.0156 5.97884 15.0749 5.80566 15.1934V15.248H5.75098C5.68717 15.3118 5.6097 15.5078 5.51855 15.8359C5.42741 16.1641 5.38184 16.3509 5.38184 16.3965C5.38184 16.4421 5.40918 16.4785 5.46387 16.5059C5.52767 16.5332 5.58236 16.5469 5.62793 16.5469C5.6735 16.5469 5.75098 16.5332 5.86035 16.5059C5.94238 16.5605 6.0153 16.6289 6.0791 16.7109C6.06999 16.7839 6.05176 16.8477 6.02441 16.9023C5.99707 16.957 5.96973 17.0117 5.94238 17.0664L5.39551 16.998L5.2998 16.957L5.09473 16.9844L4.83496 16.916L4.69824 16.9434L4.54785 16.9297C4.47493 16.9297 4.43392 16.9434 4.4248 16.9707C4.40658 16.9707 4.39746 16.9661 4.39746 16.957C4.39746 16.9479 4.38835 16.9434 4.37012 16.9434L4.16504 17.0117C4.12858 17.0117 4.06478 16.998 3.97363 16.9707C3.88249 16.9525 3.83691 16.916 3.83691 16.8613C3.83691 16.834 3.82324 16.8203 3.7959 16.8203C3.77767 16.8385 3.75944 16.8477 3.74121 16.8477ZM8.75879 14.5098C8.79525 14.5098 8.82259 14.5052 8.84082 14.4961C8.86816 14.487 8.92741 14.5143 9.01855 14.5781C9.11882 14.5417 9.21452 14.5234 9.30566 14.5234H9.62012C9.75684 14.5234 9.89355 14.5098 10.0303 14.4824C10.0212 14.446 10.0439 14.4095 10.0986 14.373V14.332C10.0986 14.2318 10.0804 14.1406 10.0439 14.0586C10.0166 13.9674 9.99382 13.89 9.97559 13.8262C9.96647 13.7624 9.96191 13.7122 9.96191 13.6758C9.97103 13.6393 9.96647 13.6074 9.94824 13.5801C9.93001 13.5436 9.91178 13.5117 9.89355 13.4844C9.84798 13.4297 9.81608 13.3477 9.79785 13.2383C9.78874 13.1745 9.76595 13.1107 9.72949 13.0469C9.70215 12.9831 9.68848 12.9329 9.68848 12.8965C9.68848 12.86 9.67936 12.8145 9.66113 12.7598L9.36035 12.1172C9.35124 12.099 9.34668 12.0898 9.34668 12.0898C9.35579 12.0807 9.36035 12.0625 9.36035 12.0352C9.36035 12.0078 9.31022 11.9167 9.20996 11.7617C9.11882 11.6068 9.0778 11.5065 9.08691 11.4609C9.10514 11.4154 9.10059 11.3561 9.07324 11.2832C9.0459 11.2012 9.00944 11.1009 8.96387 10.9824C8.91829 10.8639 8.88639 10.7409 8.86816 10.6133C8.82259 10.5951 8.7998 10.5768 8.7998 10.5586C8.80892 10.5312 8.80436 10.4948 8.78613 10.4492L8.73145 10.3945C8.71322 10.349 8.7041 10.2988 8.7041 10.2441C8.7041 10.1895 8.69954 10.1348 8.69043 10.0801C8.58105 9.94336 8.52637 9.75651 8.52637 9.51953L8.38965 9.23242C8.41699 9.17773 8.43066 9.1276 8.43066 9.08203C8.43066 9.03646 8.40788 9.00456 8.3623 8.98633C8.32585 8.95898 8.30762 8.89974 8.30762 8.80859C8.30762 8.71745 8.28027 8.63086 8.22559 8.54883C8.1709 8.4668 8.14355 8.36654 8.14355 8.24805C8.13444 8.22982 8.11621 8.2207 8.08887 8.2207C8.07064 8.21159 8.04329 8.1888 8.00684 8.15234C7.97038 8.10677 7.93392 8.05208 7.89746 7.98828C7.87012 7.92448 7.81543 7.86979 7.7334 7.82422V7.79688C7.70605 7.79688 7.69238 7.80599 7.69238 7.82422C7.6377 7.82422 7.59668 7.89714 7.56934 8.04297C7.54199 8.1888 7.49186 8.30273 7.41895 8.38477C7.40983 8.42122 7.40527 8.45768 7.40527 8.49414C7.41439 8.52148 7.40983 8.56706 7.3916 8.63086C7.37337 8.69466 7.35059 8.78125 7.32324 8.89062C7.26855 8.96354 7.2321 9.05924 7.21387 9.17773C7.20475 9.29622 7.17285 9.40104 7.11816 9.49219C7.10905 9.53776 7.09993 9.58789 7.09082 9.64258C7.09082 9.69727 7.08171 9.7474 7.06348 9.79297C7.05436 9.82943 7.04069 9.86589 7.02246 9.90234C7.01335 9.92969 7.00423 9.96159 6.99512 9.99805L6.91309 10.6953C6.81283 10.8411 6.76725 10.9961 6.77637 11.1602C6.74902 11.1784 6.73079 11.2057 6.72168 11.2422C6.72168 11.2695 6.70801 11.2923 6.68066 11.3105C6.65332 11.5475 6.5485 11.862 6.36621 12.2539V12.5C6.31152 12.582 6.25684 12.7643 6.20215 13.0469C6.15658 13.3294 6.13379 13.4889 6.13379 13.5254C6.11556 13.5436 6.10189 13.571 6.09277 13.6074C6.08366 13.6348 6.05632 13.6576 6.01074 13.6758C6.01986 13.7031 6.02441 13.7396 6.02441 13.7852L5.94238 14.373C6.02441 14.446 6.13835 14.4824 6.28418 14.4824L7.26855 14.4414C7.32324 14.4414 7.37793 14.4414 7.43262 14.4414L8.00684 14.5098L8.49902 14.4824L8.75879 14.5098ZM18.7939 10.0801L18.9854 10.0254C19.0036 10.071 19.0355 10.1074 19.0811 10.1348C19.1266 10.153 19.1449 10.1895 19.1357 10.2441C19.1266 10.2897 19.1084 10.3353 19.0811 10.3809C19.0628 10.4264 19.04 10.4811 19.0127 10.5449C18.9124 10.627 18.8031 10.6589 18.6846 10.6406C18.5752 10.6224 18.4658 10.6315 18.3564 10.668C18.2471 10.6953 18.1559 10.75 18.083 10.832C18.0101 10.9141 17.9144 10.9551 17.7959 10.9551C17.7868 11.0371 17.7731 11.11 17.7549 11.1738C17.7367 11.2285 17.7321 11.2923 17.7412 11.3652C17.6956 11.3926 17.6729 11.4245 17.6729 11.4609C17.6729 11.5156 17.6501 11.5658 17.6045 11.6113C17.568 11.6478 17.5498 11.6842 17.5498 11.7207C17.5589 11.7572 17.5544 11.7845 17.5361 11.8027L17.4814 11.8301V11.8848C17.4541 11.9303 17.4176 11.9668 17.3721 11.9941C17.3265 12.0124 17.2809 12.0488 17.2354 12.1035C17.1898 12.1491 17.1533 12.2083 17.126 12.2812C17.0986 12.3542 17.0485 12.3997 16.9756 12.418C16.9118 12.5729 16.8571 12.6686 16.8115 12.7051C16.8298 12.7871 16.848 12.8418 16.8662 12.8691C16.8844 12.8874 16.8936 12.9421 16.8936 13.0332L16.9756 13.3887V13.5664C16.9756 13.6302 16.9847 13.6803 17.0029 13.7168C17.0212 13.7441 17.0394 13.7852 17.0576 13.8398L17.0439 14.0176L17.0986 14.1953C17.1169 14.2682 17.126 14.3503 17.126 14.4414V14.6738C17.1442 14.6738 17.1533 14.6829 17.1533 14.7012L17.1396 14.8652C17.1396 15.248 17.2581 15.5078 17.4951 15.6445C17.5589 15.681 17.609 15.7448 17.6455 15.8359C17.7275 15.8724 17.8187 15.9408 17.9189 16.041C18.0192 16.1413 18.0785 16.2415 18.0967 16.3418C18.2699 16.4876 18.3428 16.6289 18.3154 16.7656C18.361 16.793 18.3792 16.834 18.3701 16.8887C18.3701 16.9889 18.3975 17.0755 18.4521 17.1484C18.5068 17.2214 18.5342 17.2897 18.5342 17.3535C18.5342 17.4173 18.5433 17.472 18.5615 17.5176C18.5798 17.5723 18.598 17.6133 18.6162 17.6406C18.6344 17.6771 18.6436 17.7181 18.6436 17.7637V17.7773L18.6162 17.9688L18.6436 18.2969C18.6436 18.4245 18.6208 18.5475 18.5752 18.666C18.5296 18.7845 18.4977 18.903 18.4795 19.0215C18.3975 19.0762 18.3382 19.1445 18.3018 19.2266L18.1787 19.459C18.1331 19.4681 18.0876 19.4863 18.042 19.5137C18.0055 19.5501 17.9645 19.5775 17.9189 19.5957C17.9007 19.6139 17.887 19.6367 17.8779 19.6641C17.8779 19.7005 17.8278 19.7552 17.7275 19.8281C17.6273 19.9102 17.5042 20.0286 17.3584 20.1836H17.3311C17.249 20.1836 17.1442 20.2201 17.0166 20.293L16.8115 20.4023C16.8024 20.4115 16.7842 20.416 16.7568 20.416C16.7386 20.416 16.7021 20.3978 16.6475 20.3613C16.5928 20.3887 16.5472 20.4251 16.5107 20.4707C16.4834 20.5163 16.4469 20.5573 16.4014 20.5938L16.0596 20.6758L15.8682 20.6484L15.3623 20.7441C15.1527 20.7441 15.0296 20.7259 14.9932 20.6895L14.7471 20.7031C14.6286 20.7031 14.5238 20.6803 14.4326 20.6348C14.3415 20.5983 14.2275 20.5938 14.0908 20.6211C14.0361 20.5846 13.9951 20.5299 13.9678 20.457H13.9268L13.8037 20.4844H13.7627C13.7536 20.4297 13.7262 20.3932 13.6807 20.375C13.6442 20.3659 13.6032 20.3522 13.5576 20.334C13.43 20.1699 13.2979 20.0742 13.1611 20.0469C13.0244 20.0195 12.9424 19.9557 12.915 19.8555C12.8695 19.7005 12.8239 19.623 12.7783 19.623C12.7327 19.623 12.7008 19.5866 12.6826 19.5137C12.6644 19.4408 12.6143 19.3952 12.5322 19.377V19.3633C12.5322 19.3268 12.5277 19.2995 12.5186 19.2812C12.5003 19.263 12.4958 19.2311 12.5049 19.1855C12.4502 19.14 12.4137 19.0853 12.3955 19.0215C12.3773 18.9668 12.3454 18.9167 12.2998 18.8711C12.2907 18.7526 12.277 18.6341 12.2588 18.5156C12.2406 18.3971 12.2314 18.2741 12.2314 18.1465C12.2314 18.0189 12.2542 17.9004 12.2998 17.791C12.3363 17.6816 12.3545 17.5768 12.3545 17.4766C12.4092 17.3854 12.4775 17.2441 12.5596 17.0527C12.6325 16.8613 12.6963 16.7474 12.751 16.7109C12.7692 16.6836 12.7783 16.6517 12.7783 16.6152C12.7783 16.5879 12.7874 16.556 12.8057 16.5195C12.8239 16.4922 12.8512 16.4648 12.8877 16.4375C12.915 16.4193 12.9424 16.3965 12.9697 16.3691L13.0928 16.1777L13.3799 15.8906C13.471 15.7995 13.5576 15.6992 13.6396 15.5898L13.8584 15.3164C13.9131 15.2344 13.9906 15.1523 14.0908 15.0703C14.1182 15.0612 14.1546 15.043 14.2002 15.0156C14.3825 14.9062 14.5283 14.8379 14.6377 14.8105H14.7471C14.7926 14.8105 14.8245 14.8197 14.8428 14.8379C14.9795 14.7741 15.0843 14.7422 15.1572 14.7422C15.2393 14.7422 15.2894 14.7467 15.3076 14.7559C15.3167 14.7376 15.3395 14.7331 15.376 14.7422C15.4124 14.7422 15.4215 14.7194 15.4033 14.6738C15.4398 14.7012 15.4854 14.7148 15.54 14.7148L15.8408 14.6738H15.9229C15.9502 14.6921 15.9775 14.7103 16.0049 14.7285C16.0322 14.7376 16.0505 14.765 16.0596 14.8105C16.0687 14.8014 16.0915 14.7969 16.1279 14.7969L16.4014 14.9062C16.4743 14.9062 16.5107 14.8789 16.5107 14.8242L16.4287 14.6465L16.4561 14.4688C16.4561 14.3958 16.4469 14.3138 16.4287 14.2227L16.3877 14.0312L16.415 13.9082C16.415 13.8717 16.4014 13.8398 16.374 13.8125C16.3558 13.776 16.3376 13.735 16.3193 13.6895C16.3102 13.6348 16.3057 13.5801 16.3057 13.5254C16.3148 13.4616 16.3193 13.3932 16.3193 13.3203L16.251 12.9102L16.2236 12.8828L16.1006 12.9238L15.9639 12.8965C15.9183 12.8965 15.8682 12.9147 15.8135 12.9512C15.7588 12.9785 15.613 12.9922 15.376 12.9922C15.139 12.9922 14.9202 12.9375 14.7197 12.8281V12.7598C14.6833 12.7415 14.6377 12.7233 14.583 12.7051C14.5374 12.6868 14.5192 12.6504 14.5283 12.5957C14.5101 12.6048 14.4873 12.6048 14.46 12.5957C14.4417 12.5775 14.4098 12.5592 14.3643 12.541C14.3187 12.5228 14.2822 12.5091 14.2549 12.5C14.2367 12.4818 14.2184 12.4635 14.2002 12.4453C14.1911 12.4271 14.1774 12.4089 14.1592 12.3906C14.1501 12.3633 14.1273 12.3314 14.0908 12.2949C14.0635 12.2585 14.0316 12.2266 13.9951 12.1992C13.9587 12.1628 13.9313 12.1309 13.9131 12.1035C13.8949 12.0671 13.8766 12.0215 13.8584 11.9668C13.8493 11.903 13.8265 11.8118 13.79 11.6934C13.7627 11.5749 13.749 11.4336 13.749 11.2695C13.749 11.1055 13.7718 10.9824 13.8174 10.9004C13.863 10.8184 13.8994 10.7454 13.9268 10.6816C13.9541 10.6178 13.9769 10.554 13.9951 10.4902C14.0133 10.3626 14.109 10.1986 14.2822 9.99805L14.4189 9.80664C14.4645 9.75195 14.5192 9.70182 14.583 9.65625C14.6468 9.61068 14.6924 9.55599 14.7197 9.49219C14.7562 9.48307 14.7835 9.4694 14.8018 9.45117C14.8291 9.42383 14.8656 9.40104 14.9111 9.38281C14.9567 9.35547 14.9977 9.32357 15.0342 9.28711C15.0798 9.25065 15.1299 9.21419 15.1846 9.17773C15.2484 9.14128 15.3258 9.10482 15.417 9.06836C15.5081 9.0319 15.5902 8.99089 15.6631 8.94531H15.7998C16.0277 8.94531 16.2464 9.01823 16.4561 9.16406C16.4743 9.17318 16.488 9.18229 16.4971 9.19141C16.5244 9.23698 16.57 9.25977 16.6338 9.25977C16.6702 9.25977 16.7295 9.29167 16.8115 9.35547C16.8844 9.39193 16.9391 9.44206 16.9756 9.50586C17.0212 9.56966 17.0713 9.62435 17.126 9.66992H17.1807V9.72461C17.1989 9.74284 17.2217 9.75651 17.249 9.76562C17.2764 9.77474 17.2809 9.79753 17.2627 9.83398C17.3174 9.85221 17.3584 9.88411 17.3857 9.92969C17.4131 9.97526 17.4541 10.0072 17.5088 10.0254C17.527 10.071 17.5407 10.1165 17.5498 10.1621C17.5589 10.2077 17.5817 10.2396 17.6182 10.2578H17.6318C17.641 10.2578 17.6546 10.2669 17.6729 10.2852L17.8096 10.2988C18.1377 10.2988 18.443 10.2168 18.7256 10.0527C18.7438 10.071 18.7666 10.0801 18.7939 10.0801ZM18.2061 18.5703L18.2334 18.3516L18.1787 18.2012C18.1969 18.1738 18.2061 18.1146 18.2061 18.0234V17.8184C18.2061 17.7181 18.1878 17.6178 18.1514 17.5176C18.1149 17.4264 18.1058 17.3307 18.124 17.2305C18.0785 17.1849 18.0557 17.1439 18.0557 17.1074C18.0557 17.0801 18.042 17.0254 18.0146 16.9434C17.9964 16.8704 17.9554 16.793 17.8916 16.7109C17.8369 16.638 17.7959 16.5514 17.7686 16.4512L17.7275 16.4648C17.6911 16.4648 17.6364 16.4421 17.5635 16.3965C17.445 16.3509 17.3766 16.3145 17.3584 16.2871C17.3402 16.2598 17.3265 16.2279 17.3174 16.1914C17.3083 16.1641 17.2855 16.123 17.249 16.0684C17.2126 16.0228 17.1761 15.9863 17.1396 15.959C17.1123 15.9225 17.0895 15.8815 17.0713 15.8359C16.8617 15.7448 16.7021 15.6263 16.5928 15.4805C16.5472 15.4805 16.5153 15.4714 16.4971 15.4531C16.4788 15.4349 16.4469 15.4167 16.4014 15.3984H16.3877C16.3421 15.3984 16.3193 15.3802 16.3193 15.3438C16.3193 15.2982 16.2965 15.2799 16.251 15.2891C16.1416 15.2708 16.0277 15.2435 15.9092 15.207C15.7998 15.1615 15.7041 15.1387 15.6221 15.1387C15.5492 15.1387 15.4808 15.1523 15.417 15.1797C15.3532 15.207 15.2575 15.2207 15.1299 15.2207C15.0023 15.2207 14.9066 15.2025 14.8428 15.166C14.779 15.2298 14.7015 15.2891 14.6104 15.3438C14.5739 15.3255 14.542 15.3164 14.5146 15.3164H14.4736C14.4554 15.362 14.4098 15.3984 14.3369 15.4258C14.2731 15.4531 14.2184 15.4987 14.1729 15.5625C14.1364 15.6172 14.0954 15.6491 14.0498 15.6582C14.0316 15.7038 14.0225 15.7448 14.0225 15.7812C14.0225 15.8177 14.0133 15.8542 13.9951 15.8906C13.9587 15.8906 13.9404 15.9043 13.9404 15.9316C13.9404 15.9499 13.9222 15.9727 13.8857 16C13.8584 16.0365 13.8174 16.0684 13.7627 16.0957C13.708 16.123 13.6579 16.1595 13.6123 16.2051V16.2598L13.5576 16.2734C13.4209 16.474 13.3525 16.6471 13.3525 16.793C13.3434 16.9479 13.3298 17.0983 13.3115 17.2441C13.2842 17.3991 13.2614 17.513 13.2432 17.5859C13.2249 17.668 13.2158 17.7682 13.2158 17.8867C13.2158 18.0143 13.2477 18.1419 13.3115 18.2695C13.4391 18.5065 13.5029 18.666 13.5029 18.748C13.5029 18.8301 13.5257 18.8939 13.5713 18.9395C13.626 18.9941 13.667 19.0397 13.6943 19.0762L13.8037 19.2812C13.8493 19.3451 13.8994 19.4043 13.9541 19.459C14.0088 19.5137 14.0452 19.5775 14.0635 19.6504C14.1455 19.696 14.2367 19.7552 14.3369 19.8281C14.4463 19.901 14.542 19.9557 14.624 19.9922C14.7152 20.0195 14.861 20.056 15.0615 20.1016C15.2712 20.1562 15.4671 20.1836 15.6494 20.1836C15.8317 20.1836 16.0915 20.138 16.4287 20.0469H16.5107L16.5654 19.9922L16.6475 20.0059C16.8936 19.8874 17.0303 19.8327 17.0576 19.8418C17.0576 19.7871 17.1169 19.7233 17.2354 19.6504C17.3538 19.5775 17.4268 19.5046 17.4541 19.4316C17.4814 19.4134 17.5133 19.3952 17.5498 19.377C17.5863 19.3678 17.6182 19.3496 17.6455 19.3223L17.9463 18.9941C17.9919 18.9395 18.0329 18.8757 18.0693 18.8027C18.1058 18.7389 18.1514 18.6842 18.2061 18.6387V18.5703ZM17.2627 11.3105L17.3037 10.832C17.3037 10.6406 17.2764 10.513 17.2217 10.4492C17.1761 10.3763 17.1396 10.3262 17.1123 10.2988C17.085 10.2624 17.0576 10.2077 17.0303 10.1348C16.9847 10.1165 16.9437 10.0983 16.9072 10.0801C16.8708 10.0527 16.8298 10.0345 16.7842 10.0254L16.5107 9.72461C16.4743 9.69727 16.4469 9.68359 16.4287 9.68359C16.4105 9.68359 16.3786 9.64258 16.333 9.56055C16.2327 9.54232 16.137 9.51953 16.0459 9.49219C15.9548 9.45573 15.859 9.42839 15.7588 9.41016C15.7314 9.4375 15.6904 9.45573 15.6357 9.46484C15.5902 9.46484 15.54 9.47396 15.4854 9.49219H15.4717C15.4443 9.48307 15.4352 9.49674 15.4443 9.5332C15.4535 9.56966 15.4307 9.58789 15.376 9.58789L15.1436 9.66992C15.1253 9.68815 15.1162 9.71094 15.1162 9.73828C15.1162 9.75651 15.1071 9.7793 15.0889 9.80664C15.0798 9.82487 15.0615 9.83854 15.0342 9.84766C15.016 9.84766 14.984 9.90234 14.9385 10.0117C14.9111 10.1393 14.8792 10.2259 14.8428 10.2715C14.8063 10.3079 14.779 10.349 14.7607 10.3945L14.665 10.9688C14.665 11.0234 14.6742 11.0872 14.6924 11.1602L14.6787 11.3379C14.6787 11.4017 14.6878 11.429 14.7061 11.4199C14.7243 11.4108 14.7334 11.4336 14.7334 11.4883C14.7334 11.543 14.7471 11.5885 14.7744 11.625C14.8018 11.6615 14.8063 11.7025 14.7881 11.748C14.861 11.8118 14.9111 11.8984 14.9385 12.0078C14.9749 12.1081 15.0433 12.1901 15.1436 12.2539C15.1618 12.2721 15.1709 12.2904 15.1709 12.3086C15.1709 12.3177 15.18 12.3314 15.1982 12.3496C15.2165 12.3587 15.2666 12.377 15.3486 12.4043C15.4398 12.4316 15.4945 12.4453 15.5127 12.4453C15.54 12.4453 15.5537 12.4408 15.5537 12.4316C15.5537 12.4225 15.5628 12.418 15.5811 12.418L15.8271 12.4453C15.8545 12.4453 15.8773 12.4408 15.8955 12.4316C15.9229 12.4134 15.9502 12.3997 15.9775 12.3906L16.1689 12.3633C16.2965 12.3268 16.4105 12.2721 16.5107 12.1992C16.611 12.1263 16.7204 12.0534 16.8389 11.9805C16.8753 11.9167 16.9027 11.8483 16.9209 11.7754H16.9346C16.971 11.7754 16.9893 11.7617 16.9893 11.7344C16.9984 11.6979 17.0303 11.6569 17.085 11.6113C17.1488 11.5658 17.1761 11.5202 17.167 11.4746C17.1579 11.429 17.1761 11.4017 17.2217 11.3926C17.2764 11.3743 17.29 11.347 17.2627 11.3105Z" fill="#131313"/>
</svg>
