<svg width="24" height="24" viewBox="0 0 24 24" fill="none" xmlns="http://www.w3.org/2000/svg">
<path d="M2.64588 17.0003L6.55188 6.78027H8.07788L11.9839 17.0003H10.7519L7.32188 7.74627H7.29388L3.87788 17.0003H2.64588ZM4.45188 14.1863V13.1643H10.1919V14.1863H4.45188ZM15.8122 20.0803C15.2616 20.0803 14.7389 20.0243 14.2442 19.9123C13.7589 19.8003 13.3389 19.637 12.9842 19.4223L13.1802 18.5263C13.5162 18.7223 13.9036 18.8716 14.3422 18.9743C14.7902 19.0863 15.2476 19.1423 15.7142 19.1423C16.6382 19.1423 17.2962 18.9183 17.6882 18.4703C18.0896 18.0316 18.2902 17.3083 18.2902 16.3003V15.6563H18.2622C18.0102 15.983 17.6649 16.2443 17.2262 16.4403C16.7876 16.627 16.3022 16.7203 15.7702 16.7203C14.7996 16.7203 14.0389 16.4076 13.4882 15.7823C12.9376 15.1476 12.6622 14.2703 12.6622 13.1503C12.6622 12.0303 12.9376 11.1576 13.4882 10.5323C14.0389 9.8976 14.7996 9.58027 15.7702 9.58027C16.3022 9.58027 16.7922 9.67827 17.2402 9.87427C17.6882 10.061 18.0382 10.3176 18.2902 10.6443H18.3182L18.3322 9.72027H19.3822V16.3003C19.3822 17.607 19.0929 18.5636 18.5142 19.1703C17.9449 19.777 17.0442 20.0803 15.8122 20.0803ZM16.0082 15.7823C16.4469 15.7823 16.8342 15.703 17.1702 15.5443C17.5156 15.3763 17.7862 15.1523 17.9822 14.8723C18.1876 14.583 18.2902 14.2516 18.2902 13.8783V12.4223C18.2902 12.0583 18.1876 11.7316 17.9822 11.4423C17.7862 11.153 17.5156 10.929 17.1702 10.7703C16.8342 10.6023 16.4469 10.5183 16.0082 10.5183C15.2989 10.5183 14.7436 10.747 14.3422 11.2043C13.9502 11.6616 13.7542 12.3103 13.7542 13.1503C13.7542 13.9903 13.9502 14.639 14.3422 15.0963C14.7436 15.5536 15.2989 15.7823 16.0082 15.7823Z" fill="#131313"/>
</svg>
