<svg width="24" height="24" viewBox="0 0 24 24" fill="none" xmlns="http://www.w3.org/2000/svg">
<path d="M3.39361 17.0003L7.57961 6.78027H8.25161L12.4376 17.0003H11.9056L7.92961 7.21427H7.90161L3.92561 17.0003H3.39361ZM4.98961 13.8083V13.3463H10.8416V13.8083H4.98961ZM16.2976 20.0803C15.7749 20.0803 15.2989 20.015 14.8696 19.8843C14.4496 19.7536 14.0529 19.5483 13.6796 19.2683L13.8616 18.8903C14.2162 19.1516 14.5849 19.343 14.9676 19.4643C15.3596 19.5856 15.7982 19.6463 16.2836 19.6463C17.2636 19.6463 17.9776 19.3896 18.4256 18.8763C18.8736 18.363 19.0976 17.5416 19.0976 16.4123V15.3203H19.0696C18.8269 15.759 18.4676 16.1043 17.9916 16.3563C17.5156 16.599 16.9742 16.7203 16.3676 16.7203C15.3969 16.7203 14.6362 16.4076 14.0856 15.7823C13.5442 15.1476 13.2736 14.2703 13.2736 13.1503C13.2736 12.0303 13.5442 11.1576 14.0856 10.5323C14.6362 9.8976 15.3969 9.58027 16.3676 9.58027C16.9742 9.58027 17.5156 9.70627 17.9916 9.95827C18.4676 10.201 18.8269 10.5416 19.0696 10.9803H19.0976V9.72027H19.5736V16.4123C19.5736 17.6723 19.3076 18.5963 18.7756 19.1843C18.2529 19.7816 17.4269 20.0803 16.2976 20.0803ZM16.4096 16.2863C16.9416 16.2863 17.4082 16.1836 17.8096 15.9783C18.2109 15.773 18.5236 15.493 18.7476 15.1383C18.9809 14.7836 19.0976 14.3776 19.0976 13.9203V12.3803C19.0976 11.9136 18.9809 11.5076 18.7476 11.1623C18.5236 10.8076 18.2109 10.5276 17.8096 10.3223C17.4082 10.117 16.9416 10.0143 16.4096 10.0143C15.5789 10.0143 14.9256 10.2896 14.4496 10.8403C13.9829 11.3816 13.7496 12.1516 13.7496 13.1503C13.7496 14.149 13.9829 14.9236 14.4496 15.4743C14.9256 16.0156 15.5789 16.2863 16.4096 16.2863Z" fill="#131313"/>
</svg>
