<svg width="24" height="24" viewBox="0 0 24 24" fill="none" xmlns="http://www.w3.org/2000/svg">
<path d="M3.4945 17.0003L7.2185 6.78027H9.3045L13.0145 17.0003H11.3205L8.2685 8.09627H8.2405L5.1885 17.0003H3.4945ZM5.4265 14.4383V13.0383H11.0965V14.4383H5.4265ZM16.8265 20.0803C16.2479 20.0803 15.7252 20.015 15.2585 19.8843C14.8012 19.7536 14.3905 19.5576 14.0265 19.2963L14.3625 18.0643C14.7359 18.3256 15.1045 18.517 15.4685 18.6383C15.8419 18.7596 16.2525 18.8203 16.7005 18.8203C17.5312 18.8203 18.1379 18.6103 18.5205 18.1903C18.9032 17.7703 19.0945 17.117 19.0945 16.2303V15.7683H19.0665C18.8052 16.0763 18.4692 16.3143 18.0585 16.4823C17.6479 16.641 17.1999 16.7203 16.7145 16.7203C15.7439 16.7203 14.9832 16.4076 14.4325 15.7823C13.8819 15.1476 13.6065 14.2703 13.6065 13.1503C13.6065 12.0303 13.8819 11.1576 14.4325 10.5323C14.9832 9.8976 15.7439 9.58027 16.7145 9.58027C17.2092 9.58027 17.6665 9.66427 18.0865 9.83227C18.5159 10.0003 18.8612 10.2336 19.1225 10.5323H19.1505L19.1645 9.72027H20.6065V16.2303C20.6065 17.5183 20.2939 18.4796 19.6685 19.1143C19.0432 19.7583 18.0959 20.0803 16.8265 20.0803ZM17.0645 15.4603C17.4565 15.4603 17.8019 15.3903 18.1005 15.2503C18.4085 15.1103 18.6512 14.919 18.8285 14.6763C19.0059 14.4336 19.0945 14.1583 19.0945 13.8503V12.4503C19.0945 12.1423 19.0059 11.867 18.8285 11.6243C18.6512 11.3816 18.4085 11.1903 18.1005 11.0503C17.8019 10.9103 17.4565 10.8403 17.0645 10.8403C16.4392 10.8403 15.9539 11.041 15.6085 11.4423C15.2632 11.8436 15.0905 12.413 15.0905 13.1503C15.0905 13.8876 15.2632 14.457 15.6085 14.8583C15.9539 15.2596 16.4392 15.4603 17.0645 15.4603Z" fill="#131313"/>
</svg>
