<svg width="24" height="24" viewBox="0 0 24 24" fill="none" xmlns="http://www.w3.org/2000/svg">
<path d="M9.65292 8.55243L9.63892 8.65043C9.64826 8.93976 9.74159 9.08443 9.91892 9.08443C10.3949 9.08443 10.8149 8.86043 11.1789 8.41243C11.5429 7.9551 11.7249 7.49776 11.7249 7.04043C11.7249 6.57376 11.5896 6.20976 11.3189 5.94843C11.0483 5.6871 10.6283 5.55643 10.0589 5.55643C9.22826 5.55643 8.45826 5.76643 7.74892 6.18643C7.03959 6.5971 6.46092 7.1291 6.01292 7.78243C5.56492 8.43576 5.21492 9.14976 4.96292 9.92443C4.72026 10.6897 4.59892 11.4504 4.59892 12.2064C4.59892 13.2611 4.83226 14.1291 5.29892 14.8104C5.77492 15.4917 6.46559 15.8324 7.37092 15.8324C7.73492 15.8324 8.09426 15.7624 8.44892 15.6224C8.81292 15.4824 9.12092 15.3097 9.37292 15.1044C9.89559 14.7031 10.2783 14.3344 10.5209 13.9984L10.6609 13.7884C10.5583 13.3497 10.5069 12.8784 10.5069 12.3744C10.5069 11.8704 10.5676 11.3991 10.6889 10.9604C10.8103 10.5217 10.9363 10.2371 11.0669 10.1064C11.3283 9.82643 11.6036 9.68643 11.8929 9.68643C12.1449 9.68643 12.2709 9.8731 12.2709 10.2464C12.2709 10.6197 12.2289 10.9511 12.1449 11.2404C12.0609 11.5297 11.9163 11.8704 11.7109 12.2624V12.2764C11.7949 12.8271 11.9256 13.3497 12.1029 13.8444C12.2803 14.3391 12.4483 14.6937 12.6069 14.9084C12.9709 15.4404 13.3723 15.7064 13.8109 15.7064C13.9416 15.7064 14.0489 15.6924 14.1329 15.6644C14.2263 15.6271 14.3056 15.6084 14.3709 15.6084C14.4363 15.6084 14.4689 15.6317 14.4689 15.6784C14.4689 15.7997 14.3103 15.9584 13.9929 16.1544C13.6756 16.3597 13.3303 16.4624 12.9569 16.4624C12.5929 16.4624 12.2149 16.2991 11.8229 15.9724C11.4309 15.6457 11.1183 15.1791 10.8849 14.5724L10.7169 14.0544C10.5489 14.2877 10.3063 14.5631 9.98892 14.8804C9.67159 15.1977 9.35892 15.4684 9.05092 15.6924C8.74292 15.9071 8.35092 16.1031 7.87492 16.2804C7.39892 16.4671 6.91826 16.5604 6.43292 16.5604C5.31292 16.5604 4.47292 16.2617 3.91292 15.6644C3.36226 15.0671 3.08692 14.2784 3.08692 13.2984C3.08692 12.6077 3.21759 11.8797 3.47892 11.1144C3.74026 10.3397 4.11359 9.5931 4.59892 8.87443C5.09359 8.14643 5.66292 7.48843 6.30692 6.90043C6.95092 6.3031 7.69292 5.8271 8.53292 5.47243C9.38226 5.11776 10.2456 4.94043 11.1229 4.94043C12.2896 4.94043 12.8729 5.34643 12.8729 6.15843C12.8729 6.88643 12.4623 7.65643 11.6409 8.46843C10.8196 9.2711 9.97959 9.67243 9.12092 9.67243C8.70092 9.67243 8.49092 9.52776 8.49092 9.23843C8.49092 9.0611 8.62159 8.88843 8.88292 8.72043C9.14426 8.55243 9.37292 8.46843 9.56892 8.46843C9.62492 8.46843 9.65292 8.49643 9.65292 8.55243ZM18.1374 14.9924C17.9507 14.1524 17.8527 13.4617 17.8434 12.9204C17.7874 12.9671 17.7127 12.9904 17.6194 12.9904C17.47 12.9904 17.3954 12.8971 17.3954 12.7104C17.3954 12.6544 17.4327 12.6031 17.5074 12.5564C17.5914 12.5004 17.6334 12.4304 17.6334 12.3464C17.6334 12.1691 17.554 12.0804 17.3954 12.0804C17.0127 12.0804 16.6954 12.2904 16.4434 12.7104C16.2007 13.1211 16.0794 13.5504 16.0794 13.9984C16.0794 14.4371 16.168 14.7871 16.3454 15.0484C16.5227 15.3097 16.784 15.4404 17.1294 15.4404C17.4747 15.4404 17.8107 15.2911 18.1374 14.9924ZM19.1174 22.8464C19.2947 22.8464 19.4394 22.7391 19.5514 22.5244C19.6727 22.3097 19.7334 21.9691 19.7334 21.5024C19.7334 21.0451 19.444 19.8131 18.8654 17.8064C18.2867 18.7024 17.9974 19.6404 17.9974 20.6204C17.9974 21.2644 18.114 21.7964 18.3474 22.2164C18.59 22.6364 18.8467 22.8464 19.1174 22.8464ZM21.3714 14.6284C21.11 15.0671 20.5594 15.7577 19.7194 16.7004C19.8874 17.1951 20.0134 17.6151 20.0974 17.9604C20.1907 18.3151 20.2794 18.6464 20.3634 18.9544C20.4474 19.2717 20.508 19.5144 20.5454 19.6824C20.6387 20.1864 20.6854 20.5597 20.6854 20.8024C20.6854 21.5771 20.4707 22.2024 20.0414 22.6784C19.6214 23.1637 19.164 23.4064 18.6694 23.4064C18.184 23.4064 17.7827 23.2057 17.4654 22.8044C17.1574 22.4031 17.0034 21.8151 17.0034 21.0404C17.0687 20.3684 17.2507 19.7477 17.5494 19.1784C17.848 18.6091 18.254 18.0257 18.7674 17.4284C18.5247 16.5511 18.338 15.8417 18.2074 15.3004C17.8527 15.6551 17.484 15.9257 17.1014 16.1124C16.7187 16.2991 16.3827 16.3924 16.0934 16.3924C15.6174 16.3924 15.2627 16.2664 15.0294 16.0144C14.8054 15.7624 14.6934 15.4311 14.6934 15.0204C14.6934 14.3017 14.9687 13.5924 15.5194 12.8924C16.0794 12.1831 16.714 11.8284 17.4234 11.8284C17.8154 11.8284 18.0487 11.9591 18.1234 12.2204C18.2634 12.0337 18.422 11.8751 18.5994 11.7444C18.7767 11.6044 18.9307 11.5344 19.0614 11.5344C19.192 11.5344 19.2574 11.6324 19.2574 11.8284C19.2574 11.8844 19.2107 12.0711 19.1174 12.3884C19.0334 12.7057 18.9914 12.9157 18.9914 13.0184C18.9914 13.7557 19.2107 14.8944 19.6494 16.4344C20.4054 15.6037 20.9467 14.9457 21.2734 14.4604L21.3714 14.6284Z" fill="#131313"/>
</svg>
