<svg width="24" height="24" viewBox="0 0 24 24" fill="none" xmlns="http://www.w3.org/2000/svg">
<path d="M4.50781 16.8359L8.22656 7.375H9.32031L13.0391 16.8359H11.7266L10.5781 13.9922H6.96875L5.82031 16.8359H4.50781ZM8.77344 9.17969L7.35156 12.9531H10.1953L8.77344 9.17969ZM14.1328 12.7344C14.1328 12.1146 14.3333 11.6042 14.7344 11.2031C15.1354 10.8021 15.6458 10.6016 16.2656 10.6016C16.849 10.6016 17.3594 10.7839 17.7969 11.1484C18.1615 10.7839 18.599 10.6016 19.1094 10.6016H19.6016V11.6406C19.1641 11.4583 18.6719 11.4401 18.125 11.5859C18.3802 11.9141 18.5078 12.2969 18.5078 12.7344C18.5078 13.3906 18.3073 13.9193 17.9062 14.3203C17.5417 14.6849 17.013 14.8672 16.3203 14.8672C15.9557 14.8672 15.5729 14.776 15.1719 14.5938C14.9896 14.7396 14.8984 14.8854 14.8984 15.0312C14.8984 15.1406 14.9349 15.2318 15.0078 15.3047C15.1901 15.487 15.6094 15.5964 16.2656 15.6328C16.849 15.6693 17.4688 15.7057 18.125 15.7422C18.4896 15.8151 18.763 15.9427 18.9453 16.125C19.237 16.4167 19.3828 16.763 19.3828 17.1641C19.3828 17.6016 19.237 17.9661 18.9453 18.2578C18.5443 18.6589 17.6693 18.8594 16.3203 18.8594C15.1901 18.8594 14.4245 18.6589 14.0234 18.2578C13.7682 18.0026 13.6406 17.6927 13.6406 17.3281C13.6406 17.0729 13.7318 16.8542 13.9141 16.6719C14.0599 16.526 14.2786 16.3802 14.5703 16.2344C14.4609 16.1615 14.3333 16.0521 14.1875 15.9062C14.0052 15.724 13.9141 15.487 13.9141 15.1953C13.9141 14.8307 14.1875 14.4844 14.7344 14.1562C14.3333 13.7552 14.1328 13.2812 14.1328 12.7344ZM16.2656 11.5312C16.0104 11.5312 15.7917 11.6224 15.6094 11.8047C15.3542 12.0599 15.2266 12.3698 15.2266 12.7344C15.2266 13.099 15.3359 13.3906 15.5547 13.6094C15.7734 13.8281 16.0286 13.9375 16.3203 13.9375C16.6484 13.9375 16.9036 13.8464 17.0859 13.6641C17.3047 13.4453 17.4141 13.1354 17.4141 12.7344C17.4141 12.3698 17.2865 12.0599 17.0312 11.8047C16.849 11.6224 16.5938 11.5312 16.2656 11.5312ZM17.4141 16.6719C16.5391 16.6354 15.8646 16.5807 15.3906 16.5078C15.1354 16.5807 14.9531 16.6719 14.8438 16.7812C14.6979 16.9271 14.625 17.0911 14.625 17.2734C14.625 17.4557 14.6979 17.6198 14.8438 17.7656C15.0625 17.9844 15.5365 18.0938 16.2656 18.0938C17.25 18.0938 17.8698 17.9661 18.125 17.7109C18.2708 17.5651 18.3438 17.4193 18.3438 17.2734C18.3438 17.1276 18.2891 17 18.1797 16.8906C18.0339 16.7448 17.7786 16.6719 17.4141 16.6719Z" fill="#131313"/>
</svg>
