<svg width="24" height="24" viewBox="0 0 24 24" fill="none" xmlns="http://www.w3.org/2000/svg">
<path d="M8.08175 7.17969H8.80975L12.1418 15.9997H11.3578L10.3918 13.3957H6.44375L5.47775 15.9997H4.70775L8.08175 7.17969ZM6.66775 12.8077H10.1538L9.04775 9.78369C9.02908 9.72769 8.99642 9.62969 8.94975 9.48969C8.90308 9.34969 8.85175 9.19102 8.79575 9.01369C8.73975 8.83636 8.67908 8.64969 8.61375 8.45369C8.55775 8.25769 8.50642 8.07569 8.45975 7.90769H8.43175C8.38508 8.07569 8.32908 8.25302 8.26375 8.43969C8.20775 8.62636 8.14708 8.80836 8.08175 8.98569C8.02575 9.15369 7.96975 9.30769 7.91375 9.44769C7.86708 9.58769 7.82975 9.69969 7.80175 9.78369L6.66775 12.8077ZM13.1655 11.6037C13.1655 11.2397 13.2262 10.9177 13.3475 10.6377C13.4782 10.3484 13.6602 10.1104 13.8935 9.92369C14.1268 9.72769 14.4022 9.58302 14.7195 9.48969C15.0462 9.38702 15.4008 9.33569 15.7835 9.33569C15.9515 9.33569 16.0962 9.34502 16.2175 9.36369C16.3482 9.38236 16.4742 9.40102 16.5955 9.41969H19.3255V9.97969H18.5135L17.2955 9.89569C17.5848 10.0544 17.8182 10.2877 17.9955 10.5957C18.1728 10.9037 18.2615 11.235 18.2615 11.5897C18.2615 11.9537 18.1962 12.2804 18.0655 12.5697C17.9442 12.8497 17.7668 13.0877 17.5335 13.2837C17.3095 13.4797 17.0435 13.629 16.7355 13.7317C16.4275 13.825 16.0915 13.8717 15.7275 13.8717C15.5968 13.8717 15.4662 13.867 15.3355 13.8577C15.2142 13.8484 15.0835 13.8297 14.9435 13.8017C14.7195 13.8857 14.5375 14.0164 14.3975 14.1937C14.2575 14.3617 14.1875 14.539 14.1875 14.7257C14.1875 14.9684 14.2762 15.1457 14.4535 15.2577C14.6402 15.3604 14.8735 15.4117 15.1535 15.4117H16.8615C17.5895 15.4117 18.1402 15.5657 18.5135 15.8737C18.8868 16.1817 19.0735 16.5784 19.0735 17.0637C19.0735 17.3904 18.9988 17.6844 18.8495 17.9457C18.7002 18.2164 18.4855 18.445 18.2055 18.6317C17.9255 18.8184 17.5848 18.963 17.1835 19.0657C16.7822 19.1684 16.3295 19.2197 15.8255 19.2197C14.9108 19.2197 14.1828 19.0377 13.6415 18.6737C13.1002 18.319 12.8295 17.829 12.8295 17.2037C12.8295 16.8584 12.9275 16.5644 13.1235 16.3217C13.3288 16.0884 13.6182 15.9064 13.9915 15.7757C13.8515 15.701 13.7255 15.5797 13.6135 15.4117C13.5108 15.2344 13.4595 15.0337 13.4595 14.8097C13.4595 14.5017 13.5482 14.2497 13.7255 14.0537C13.9028 13.8484 14.1082 13.6897 14.3415 13.5777C14.1922 13.5124 14.0475 13.419 13.9075 13.2977C13.7675 13.1764 13.6415 13.0317 13.5295 12.8637C13.4175 12.6957 13.3288 12.509 13.2635 12.3037C13.1982 12.089 13.1655 11.8557 13.1655 11.6037ZM14.5235 15.9997C14.2528 16.093 14.0288 16.2377 13.8515 16.4337C13.6835 16.6297 13.5995 16.8584 13.5995 17.1197C13.5995 17.6237 13.8048 18.0017 14.2155 18.2537C14.6355 18.5057 15.1768 18.6317 15.8395 18.6317C16.2782 18.6317 16.6515 18.585 16.9595 18.4917C17.2768 18.4077 17.5335 18.291 17.7295 18.1417C17.9348 18.0017 18.0842 17.8384 18.1775 17.6517C18.2708 17.4744 18.3175 17.2924 18.3175 17.1057C18.3175 16.8817 18.2708 16.695 18.1775 16.5457C18.0935 16.4057 17.9675 16.2937 17.7995 16.2097C17.6408 16.135 17.4495 16.079 17.2255 16.0417C17.0108 16.0137 16.7728 15.9997 16.5115 15.9997H14.5235ZM17.5055 11.6317C17.5055 11.081 17.3468 10.661 17.0295 10.3717C16.7122 10.073 16.2968 9.92369 15.7835 9.92369C15.5222 9.92369 15.2795 9.96102 15.0555 10.0357C14.8315 10.101 14.6355 10.2037 14.4675 10.3437C14.2995 10.4744 14.1642 10.6424 14.0615 10.8477C13.9682 11.053 13.9215 11.2957 13.9215 11.5757C13.9215 12.1544 14.0942 12.5837 14.4395 12.8637C14.7848 13.1437 15.2142 13.2837 15.7275 13.2837C16.2408 13.2837 16.6655 13.1484 17.0015 12.8777C17.3375 12.607 17.5055 12.1917 17.5055 11.6317Z" fill="#131313"/>
</svg>
