<svg width="24" height="24" viewBox="0 0 24 24" fill="none" xmlns="http://www.w3.org/2000/svg">
<path d="M6.86457 7.17969H9.13257L12.3106 15.9997H10.0566L9.45457 14.1097H6.48657L5.88457 15.9997H3.65857L6.86457 7.17969ZM6.94857 12.5697H8.96457L8.62857 11.5057C8.51657 11.1604 8.3999 10.7917 8.27857 10.3997C8.16657 10.0077 8.06857 9.64836 7.98457 9.32169H7.95657C7.86324 9.64836 7.7559 10.003 7.63457 10.3857C7.51324 10.7684 7.39657 11.1417 7.28457 11.5057L6.94857 12.5697ZM13.241 11.5897C13.241 11.2257 13.3157 10.8944 13.465 10.5957C13.6144 10.2877 13.8197 10.0264 14.081 9.81169C14.3517 9.58769 14.6644 9.41969 15.019 9.30769C15.383 9.18636 15.7797 9.12569 16.209 9.12569C16.3677 9.12569 16.5497 9.13969 16.755 9.16769C16.9604 9.19569 17.147 9.23302 17.315 9.27969H20.171V10.5537H19.527L18.743 10.4277C18.8457 10.5677 18.9297 10.745 18.995 10.9597C19.0697 11.1744 19.107 11.389 19.107 11.6037C19.107 11.9584 19.0417 12.2804 18.911 12.5697C18.7804 12.859 18.589 13.111 18.337 13.3257C18.085 13.5404 17.777 13.7084 17.413 13.8297C17.049 13.9417 16.6384 13.9977 16.181 13.9977C16.0784 13.9977 15.9804 13.993 15.887 13.9837C15.7937 13.9744 15.7004 13.9604 15.607 13.9417C15.5417 13.979 15.481 14.0304 15.425 14.0957C15.369 14.161 15.341 14.245 15.341 14.3477C15.341 14.469 15.383 14.567 15.467 14.6417C15.5604 14.7164 15.7424 14.7537 16.013 14.7537H17.427C17.791 14.7537 18.127 14.791 18.435 14.8657C18.743 14.9404 19.0044 15.0617 19.219 15.2297C19.443 15.3977 19.6157 15.617 19.737 15.8877C19.8584 16.149 19.919 16.4664 19.919 16.8397C19.919 17.2037 19.8304 17.5397 19.653 17.8477C19.4757 18.1557 19.2237 18.4217 18.897 18.6457C18.5797 18.8697 18.1877 19.0424 17.721 19.1637C17.2637 19.2944 16.755 19.3597 16.195 19.3597C15.1497 19.3597 14.3284 19.1777 13.731 18.8137C13.1337 18.4497 12.835 17.9317 12.835 17.2597C12.835 16.961 12.933 16.695 13.129 16.4617C13.3344 16.2377 13.619 16.0604 13.983 15.9297C13.871 15.855 13.745 15.729 13.605 15.5517C13.465 15.365 13.395 15.1364 13.395 14.8657C13.395 14.5484 13.4884 14.2777 13.675 14.0537C13.871 13.8204 14.1137 13.6337 14.403 13.4937C14.2817 13.4284 14.151 13.3397 14.011 13.2277C13.8804 13.1064 13.7544 12.9664 13.633 12.8077C13.521 12.649 13.4277 12.4717 13.353 12.2757C13.2784 12.0704 13.241 11.8417 13.241 11.5897ZM15.131 16.2937C15.019 16.3497 14.921 16.4337 14.837 16.5457C14.753 16.6577 14.711 16.7977 14.711 16.9657C14.711 17.199 14.8184 17.3997 15.033 17.5677C15.257 17.7357 15.663 17.8197 16.251 17.8197C16.8017 17.8197 17.2077 17.7264 17.469 17.5397C17.7397 17.3624 17.875 17.1524 17.875 16.9097C17.875 16.695 17.8004 16.5364 17.651 16.4337C17.5017 16.3404 17.2497 16.2937 16.895 16.2937H15.131ZM17.091 11.5617C17.091 11.235 17.0024 10.9877 16.825 10.8197C16.657 10.6424 16.4424 10.5537 16.181 10.5537C15.9104 10.5537 15.691 10.6424 15.523 10.8197C15.355 10.9877 15.271 11.235 15.271 11.5617C15.271 11.8884 15.355 12.1404 15.523 12.3177C15.7004 12.4857 15.9197 12.5697 16.181 12.5697C16.4517 12.5697 16.671 12.4857 16.839 12.3177C17.007 12.1404 17.091 11.8884 17.091 11.5617Z" fill="#131313"/>
</svg>
