<svg width="24" height="24" viewBox="0 0 24 24" fill="none" xmlns="http://www.w3.org/2000/svg">
<path d="M3.29686 16.9999L9.10686 7.12988H9.68086L12.4389 16.9999H11.8369L11.0389 14.1439L11.3469 14.2699H5.22886L5.63486 14.1439L3.96886 16.9999H3.29686ZM9.28886 7.91388L5.84486 13.8079L5.55086 13.7239H11.1929L10.9549 13.8079L9.31686 7.91388H9.28886ZM16.5243 20.1219C15.9737 20.1219 15.4603 20.0379 14.9843 19.8699C14.5177 19.7112 14.1117 19.4686 13.7663 19.1419L14.0743 18.6659C14.345 18.8899 14.6063 19.0672 14.8583 19.1979C15.1103 19.3286 15.3763 19.4219 15.6563 19.4779C15.9457 19.5432 16.2677 19.5759 16.6223 19.5759C17.3503 19.5759 17.9337 19.3752 18.3723 18.9739C18.811 18.5819 19.091 18.0172 19.2123 17.2799L19.5903 14.8859H19.7583C19.5157 15.5019 19.133 15.9826 18.6103 16.3279C18.0877 16.6732 17.495 16.8459 16.8323 16.8459C16.1883 16.8459 15.647 16.6919 15.2083 16.3839C14.779 16.0759 14.4757 15.6512 14.2983 15.1099C14.121 14.5592 14.0883 13.9292 14.2003 13.2199C14.3683 12.1559 14.7743 11.3346 15.4183 10.7559C16.0717 10.1772 16.865 9.88788 17.7983 9.88788C18.4703 9.88788 19.021 10.0606 19.4503 10.4059C19.8797 10.7512 20.1317 11.2366 20.2063 11.8619L20.0943 11.6799L20.4863 9.99988H21.0603C20.995 10.2612 20.9297 10.5179 20.8643 10.7699C20.799 11.0219 20.7477 11.2692 20.7103 11.5119L19.8143 17.1819C19.665 18.1526 19.3103 18.8852 18.7503 19.3799C18.1997 19.8746 17.4577 20.1219 16.5243 20.1219ZM16.8463 16.2999C17.621 16.2999 18.2743 16.0432 18.8063 15.5299C19.3383 15.0072 19.679 14.2839 19.8283 13.3599C19.9777 12.4359 19.8657 11.7172 19.4923 11.2039C19.119 10.6906 18.545 10.4339 17.7703 10.4339C16.9957 10.4339 16.3377 10.6906 15.7963 11.2039C15.2643 11.7172 14.9237 12.4359 14.7743 13.3599C14.625 14.2839 14.737 15.0072 15.1103 15.5299C15.493 16.0432 16.0717 16.2999 16.8463 16.2999Z" fill="#131313"/>
</svg>
