<svg width="24" height="24" viewBox="0 0 24 24" fill="none" xmlns="http://www.w3.org/2000/svg">
<path d="M2.30342 16.9999L6.67142 7.12988H7.80542L12.2434 16.9999H10.8994L9.68142 14.1999L10.2414 14.5359H4.23542L4.85142 14.1999L3.63342 16.9999H2.30342ZM7.21742 8.58588L5.03342 13.7659L4.69742 13.4719H9.77942L9.51342 13.7659L7.27342 8.58588H7.21742ZM16.575 20.1359C15.959 20.1359 15.3943 20.0612 14.881 19.9119C14.3677 19.7626 13.9057 19.5339 13.495 19.2259L13.831 18.2879C14.1203 18.4839 14.405 18.6426 14.685 18.7639C14.965 18.8852 15.2543 18.9739 15.553 19.0299C15.861 19.0859 16.1783 19.1139 16.505 19.1139C17.1957 19.1139 17.7137 18.9366 18.059 18.5819C18.4043 18.2272 18.577 17.7232 18.577 17.0699V15.0959H18.717C18.5677 15.6279 18.2597 16.0526 17.793 16.3699C17.3357 16.6779 16.7943 16.8319 16.169 16.8319C15.5343 16.8319 14.979 16.6919 14.503 16.4119C14.0363 16.1226 13.6723 15.7166 13.411 15.1939C13.1497 14.6619 13.019 14.0412 13.019 13.3319C13.019 12.6132 13.1497 11.9926 13.411 11.4699C13.6723 10.9472 14.0363 10.5459 14.503 10.2659C14.979 9.97655 15.5343 9.83188 16.169 9.83188C16.7943 9.83188 17.3357 9.98588 17.793 10.2939C18.2503 10.6019 18.5537 11.0266 18.703 11.5679L18.577 11.4419L18.703 9.95788H19.935C19.907 10.2379 19.879 10.5179 19.851 10.7979C19.8323 11.0779 19.823 11.3532 19.823 11.6239V16.9159C19.823 17.9612 19.5477 18.7592 18.997 19.3099C18.4557 19.8606 17.6483 20.1359 16.575 20.1359ZM16.449 15.8239C17.093 15.8239 17.6063 15.6046 17.989 15.1659C18.3717 14.7272 18.563 14.1159 18.563 13.3319C18.563 12.5386 18.3717 11.9272 17.989 11.4979C17.6063 11.0686 17.093 10.8539 16.449 10.8539C15.7957 10.8539 15.273 11.0686 14.881 11.4979C14.4983 11.9272 14.307 12.5386 14.307 13.3319C14.307 14.1159 14.4983 14.7272 14.881 15.1659C15.273 15.6046 15.7957 15.8239 16.449 15.8239Z" fill="#131313"/>
</svg>
