<svg width="24" height="24" viewBox="0 0 24 24" fill="none" xmlns="http://www.w3.org/2000/svg">
<path d="M3.64232 16.9999L7.94032 7.12988H8.72432L13.0923 16.9999H12.1823L10.9503 14.1579L11.3563 14.3679H5.28032L5.75632 14.1579L4.55232 16.9999H3.64232ZM8.31832 8.17988L5.92432 13.7939L5.60232 13.6259H11.0343L10.7963 13.7939L8.34632 8.17988H8.31832ZM17.5815 20.1219C16.9935 20.1219 16.4428 20.0426 15.9295 19.8839C15.4255 19.7252 14.9728 19.4872 14.5715 19.1699L14.8795 18.5119C15.1782 18.7266 15.4628 18.8946 15.7335 19.0159C16.0135 19.1466 16.3028 19.2399 16.6015 19.2959C16.9002 19.3612 17.2222 19.3939 17.5675 19.3939C18.2768 19.3939 18.8135 19.2026 19.1775 18.8199C19.5415 18.4466 19.7235 17.9052 19.7235 17.1959V14.9699H19.8775C19.7282 15.5579 19.4155 16.0199 18.9395 16.3559C18.4635 16.6826 17.9035 16.8459 17.2595 16.8459C16.6155 16.8459 16.0555 16.7059 15.5795 16.4259C15.1128 16.1366 14.7488 15.7306 14.4875 15.2079C14.2355 14.6759 14.1095 14.0552 14.1095 13.3459C14.1095 12.6366 14.2355 12.0206 14.4875 11.4979C14.7488 10.9752 15.1128 10.5739 15.5795 10.2939C16.0555 10.0046 16.6155 9.85988 17.2595 9.85988C17.9035 9.85988 18.4635 10.0279 18.9395 10.3639C19.4155 10.6906 19.7282 11.1526 19.8775 11.7499L19.7235 11.5959L19.8495 9.98588H20.6895C20.6522 10.2566 20.6242 10.5226 20.6055 10.7839C20.5868 11.0452 20.5775 11.3019 20.5775 11.5539V17.0699C20.5775 18.0779 20.3208 18.8386 19.8075 19.3519C19.3035 19.8652 18.5615 20.1219 17.5815 20.1219ZM17.3575 16.1179C18.0855 16.1179 18.6595 15.8752 19.0795 15.3899C19.5088 14.9046 19.7235 14.2232 19.7235 13.3459C19.7235 12.4779 19.5088 11.8012 19.0795 11.3159C18.6595 10.8306 18.0855 10.5879 17.3575 10.5879C16.6295 10.5879 16.0508 10.8306 15.6215 11.3159C15.1922 11.8012 14.9775 12.4779 14.9775 13.3459C14.9775 14.2232 15.1922 14.9046 15.6215 15.3899C16.0508 15.8752 16.6295 16.1179 17.3575 16.1179Z" fill="#131313"/>
</svg>
