<svg width="24" height="24" viewBox="0 0 24 24" fill="none" xmlns="http://www.w3.org/2000/svg">
<path d="M6.37234 6.80762H9.03234L12.0703 16.9996H9.88634L8.16434 10.1956L7.71634 8.51562H7.68834L7.24034 10.1956L5.51834 16.9996H3.33434L6.37234 6.80762ZM6.42834 12.7996H8.97634L9.34033 14.4236H6.06434L6.42834 12.7996ZM15.696 15.0676C15.0987 15.0676 14.5573 14.9556 14.072 14.7316C13.5867 14.5076 13.1993 14.1903 12.91 13.7796C12.63 13.3689 12.49 12.8836 12.49 12.3236C12.49 11.7636 12.63 11.2783 12.91 10.8676C13.1993 10.4476 13.5867 10.1256 14.072 9.90162C14.5573 9.67762 15.0987 9.56562 15.696 9.56562C16.2933 9.56562 16.83 9.67762 17.306 9.90162C17.7913 10.1256 18.174 10.4476 18.454 10.8676C18.7433 11.2783 18.888 11.7636 18.888 12.3236C18.888 12.8743 18.748 13.3596 18.468 13.7796C18.1973 14.1903 17.8193 14.5076 17.334 14.7316C16.858 14.9556 16.312 15.0676 15.696 15.0676ZM15.696 13.7656C15.9573 13.7656 16.1767 13.7049 16.354 13.5836C16.5313 13.4623 16.662 13.2943 16.746 13.0796C16.83 12.8649 16.872 12.6129 16.872 12.3236C16.872 12.0343 16.83 11.7823 16.746 11.5676C16.662 11.3436 16.5313 11.1709 16.354 11.0496C16.1767 10.9283 15.9573 10.8676 15.696 10.8676C15.4347 10.8676 15.2153 10.9283 15.038 11.0496C14.8607 11.1709 14.7253 11.3436 14.632 11.5676C14.548 11.7823 14.506 12.0343 14.506 12.3236C14.506 12.6129 14.5527 12.8649 14.646 13.0796C14.7393 13.2943 14.87 13.4623 15.038 13.5836C15.2153 13.7049 15.4347 13.7656 15.696 13.7656ZM15.556 20.2896C15.136 20.2896 14.7113 20.2523 14.282 20.1776C13.862 20.1123 13.4793 20.0049 13.134 19.8556C12.7887 19.7063 12.5133 19.5009 12.308 19.2396C12.1027 18.9876 12 18.6796 12 18.3156C12 17.9143 12.1027 17.5829 12.308 17.3216C12.5133 17.0696 12.784 16.8549 13.12 16.6776V16.6496C12.9427 16.5376 12.812 16.4163 12.728 16.2856C12.6533 16.1456 12.616 15.9869 12.616 15.8096C12.616 15.5296 12.7233 15.2636 12.938 15.0116C13.1527 14.7503 13.4 14.5169 13.68 14.3116L14.478 14.6896C14.366 14.7923 14.2727 14.8996 14.198 15.0116C14.1327 15.1236 14.1 15.2403 14.1 15.3616C14.1 15.4923 14.1607 15.5903 14.282 15.6556C14.4033 15.7116 14.5853 15.7489 14.828 15.7676L16.676 15.8796C16.956 15.8983 17.264 15.9309 17.6 15.9776C17.936 16.0243 18.2533 16.1083 18.552 16.2296C18.8507 16.3509 19.098 16.5329 19.294 16.7756C19.4993 17.0089 19.602 17.3309 19.602 17.7416C19.602 18.1709 19.4573 18.5769 19.168 18.9596C18.8787 19.3516 18.4353 19.6689 17.838 19.9116C17.2407 20.1636 16.48 20.2896 15.556 20.2896ZM15.71 18.7636C16.1953 18.7636 16.5873 18.7216 16.886 18.6376C17.1847 18.5536 17.404 18.4463 17.544 18.3156C17.684 18.1849 17.754 18.0449 17.754 17.8956C17.754 17.7649 17.712 17.6576 17.628 17.5736C17.5533 17.4989 17.446 17.4383 17.306 17.3916C17.166 17.3543 17.0167 17.3216 16.858 17.2936C16.7087 17.2749 16.5547 17.2609 16.396 17.2516L14.8 17.1536C14.6133 17.1349 14.4547 17.1116 14.324 17.0836C14.1933 17.0556 14.086 17.0183 14.002 16.9716L14.17 16.9996C14.0393 17.0743 13.918 17.1816 13.806 17.3216C13.7033 17.4616 13.652 17.6109 13.652 17.7696C13.652 17.9469 13.7033 18.0963 13.806 18.2176C13.9087 18.3483 14.0533 18.4509 14.24 18.5256C14.4267 18.6096 14.646 18.6703 14.898 18.7076C15.15 18.7449 15.4207 18.7636 15.71 18.7636ZM16.494 9.71962H19.686V10.7976H18.062L16.494 9.71962Z" fill="#131313"/>
</svg>
