<svg width="24" height="24" viewBox="0 0 24 24" fill="none" xmlns="http://www.w3.org/2000/svg">
<path d="M6.28406 6.80762H9.86806L12.7101 16.9996H9.79806L8.31406 10.1816L8.09006 9.01962H8.06206L7.83806 10.1816L6.35406 16.9996H3.44206L6.28406 6.80762ZM7.09606 12.7436H9.07006L9.53206 14.8996H6.62006L7.09606 12.7436ZM16.3279 15.0956C15.7119 15.0956 15.1379 14.9883 14.6059 14.7736C14.0832 14.5496 13.6632 14.2323 13.3459 13.8216C13.0285 13.4109 12.8699 12.9163 12.8699 12.3376C12.8699 11.7589 13.0285 11.2643 13.3459 10.8536C13.6632 10.4336 14.0832 10.1116 14.6059 9.88762C15.1379 9.66362 15.7119 9.55162 16.3279 9.55162C16.9532 9.55162 17.5272 9.66362 18.0499 9.88762C18.5725 10.1116 18.9925 10.4336 19.3099 10.8536C19.6272 11.2643 19.7859 11.7589 19.7859 12.3376C19.7859 12.9069 19.6319 13.4016 19.3239 13.8216C19.0159 14.2323 18.6005 14.5496 18.0779 14.7736C17.5645 14.9883 16.9812 15.0956 16.3279 15.0956ZM16.3279 13.4016C16.5052 13.4016 16.6499 13.3643 16.7619 13.2896C16.8832 13.2056 16.9719 13.0843 17.0279 12.9256C17.0839 12.7669 17.1119 12.5709 17.1119 12.3376C17.1119 12.1043 17.0839 11.9083 17.0279 11.7496C16.9719 11.5909 16.8832 11.4696 16.7619 11.3856C16.6499 11.3016 16.5052 11.2596 16.3279 11.2596C16.1599 11.2596 16.0152 11.3016 15.8939 11.3856C15.7819 11.4696 15.6979 11.5909 15.6419 11.7496C15.5859 11.9083 15.5579 12.1043 15.5579 12.3376C15.5579 12.5709 15.5859 12.7669 15.6419 12.9256C15.7072 13.0843 15.7959 13.2056 15.9079 13.2896C16.0199 13.3643 16.1599 13.4016 16.3279 13.4016ZM16.1599 20.2896C15.7399 20.2896 15.3105 20.2523 14.8719 20.1776C14.4332 20.1123 14.0272 20.0003 13.6539 19.8416C13.2899 19.6923 12.9959 19.4869 12.7719 19.2256C12.5479 18.9736 12.4359 18.6609 12.4359 18.2876C12.4359 17.8769 12.5432 17.5503 12.7579 17.3076C12.9725 17.0743 13.2479 16.8783 13.5839 16.7196V16.6916C13.3879 16.5609 13.2479 16.4256 13.1639 16.2856C13.0799 16.1456 13.0379 15.9869 13.0379 15.8096C13.0379 15.5109 13.1499 15.2356 13.3739 14.9836C13.6072 14.7316 13.8732 14.5029 14.1719 14.2976L15.1939 14.7736C15.1285 14.8389 15.0772 14.9089 15.0399 14.9836C15.0025 15.0489 14.9839 15.1189 14.9839 15.1936C14.9839 15.2869 15.0352 15.3569 15.1379 15.4036C15.2405 15.4409 15.3945 15.4689 15.5999 15.4876L17.3639 15.5996C17.6812 15.6183 18.0172 15.6556 18.3719 15.7116C18.7359 15.7583 19.0719 15.8469 19.3799 15.9776C19.6972 16.1083 19.9539 16.2996 20.1499 16.5516C20.3552 16.7943 20.4579 17.1256 20.4579 17.5456C20.4579 18.0029 20.2992 18.4416 19.9819 18.8616C19.6645 19.2816 19.1885 19.6223 18.5539 19.8836C17.9192 20.1543 17.1212 20.2896 16.1599 20.2896ZM16.3559 18.2736C16.7479 18.2736 17.0652 18.2456 17.3079 18.1896C17.5505 18.1429 17.7279 18.0776 17.8399 17.9936C17.9519 17.9189 18.0079 17.8396 18.0079 17.7556C18.0079 17.6903 17.9799 17.6389 17.9239 17.6016C17.8772 17.5643 17.8025 17.5316 17.6999 17.5036C17.6065 17.4756 17.4992 17.4523 17.3779 17.4336C17.2565 17.4243 17.1259 17.4149 16.9859 17.4056L15.5719 17.2936C15.3945 17.2749 15.2359 17.2516 15.0959 17.2236C14.9652 17.1956 14.8579 17.1536 14.7739 17.0976L14.9419 17.1256C14.8765 17.1629 14.8065 17.2189 14.7319 17.2936C14.6572 17.3683 14.6199 17.4523 14.6199 17.5456C14.6199 17.6669 14.6572 17.7696 14.7319 17.8536C14.8159 17.9469 14.9325 18.0216 15.0819 18.0776C15.2312 18.1429 15.4132 18.1896 15.6279 18.2176C15.8425 18.2549 16.0852 18.2736 16.3559 18.2736ZM17.1259 9.71962H20.5839V11.1196H19.1139L17.1259 9.71962Z" fill="#131313"/>
</svg>
