<svg width="24" height="24" viewBox="0 0 24 24" fill="none" xmlns="http://www.w3.org/2000/svg">
<path d="M7.59371 6.80762H9.90371L13.0117 16.9996H11.1217L9.30171 10.2096L8.75571 8.30562H8.72771L8.18171 10.2096L6.37571 16.9996H4.48571L7.59371 6.80762ZM7.35571 12.8136H10.1417L10.4637 14.2276H7.03371L7.35571 12.8136ZM16.6403 15.0536C16.0617 15.0536 15.5343 14.9416 15.0583 14.7176C14.5917 14.4936 14.223 14.1763 13.9523 13.7656C13.6817 13.3549 13.5463 12.8696 13.5463 12.3096C13.5463 11.7589 13.6817 11.2783 13.9523 10.8676C14.223 10.4569 14.5917 10.1396 15.0583 9.91562C15.5343 9.68229 16.0617 9.56562 16.6403 9.56562C17.2377 9.56562 17.765 9.68229 18.2223 9.91562C18.689 10.1396 19.0577 10.4569 19.3283 10.8676C19.599 11.2783 19.7343 11.7589 19.7343 12.3096C19.7343 12.8603 19.599 13.3456 19.3283 13.7656C19.067 14.1763 18.703 14.4936 18.2363 14.7176C17.779 14.9416 17.247 15.0536 16.6403 15.0536ZM16.6403 13.9196C16.9483 13.9196 17.2003 13.8543 17.3963 13.7236C17.6017 13.5836 17.751 13.3923 17.8443 13.1496C17.947 12.9069 17.9983 12.6269 17.9983 12.3096C17.9983 12.0016 17.947 11.7263 17.8443 11.4836C17.751 11.2409 17.6017 11.0543 17.3963 10.9236C17.2003 10.7836 16.9483 10.7136 16.6403 10.7136C16.3417 10.7136 16.0897 10.7836 15.8843 10.9236C15.6883 11.0543 15.539 11.2409 15.4363 11.4836C15.343 11.7263 15.2963 12.0016 15.2963 12.3096C15.2963 12.6269 15.3477 12.9069 15.4503 13.1496C15.553 13.3923 15.7023 13.5836 15.8983 13.7236C16.0943 13.8543 16.3417 13.9196 16.6403 13.9196ZM16.5143 20.2896C16.0943 20.2896 15.6743 20.2523 15.2543 20.1776C14.8437 20.1123 14.4703 20.0049 14.1343 19.8556C13.7983 19.7063 13.5277 19.5056 13.3223 19.2536C13.1263 19.0016 13.0283 18.6936 13.0283 18.3296C13.0283 17.9283 13.131 17.5969 13.3363 17.3356C13.5417 17.0743 13.8077 16.8503 14.1343 16.6636V16.6356C13.9757 16.5236 13.8543 16.4023 13.7703 16.2716C13.6957 16.1409 13.6583 15.9869 13.6583 15.8096C13.6583 15.5389 13.761 15.2776 13.9663 15.0256C14.1717 14.7643 14.4097 14.5309 14.6803 14.3256L15.3803 14.6616C15.2497 14.7829 15.1423 14.9089 15.0583 15.0396C14.9837 15.1703 14.9463 15.3009 14.9463 15.4316C14.9463 15.5809 15.0117 15.6883 15.1423 15.7536C15.273 15.8189 15.4643 15.8609 15.7163 15.8796L17.6063 15.9916C17.8677 16.0103 18.1617 16.0429 18.4883 16.0896C18.815 16.1269 19.1277 16.2063 19.4263 16.3276C19.725 16.4489 19.9677 16.6263 20.1543 16.8596C20.3503 17.0929 20.4483 17.4103 20.4483 17.8116C20.4483 18.2316 20.3083 18.6283 20.0283 19.0016C19.7577 19.3843 19.333 19.6923 18.7543 19.9256C18.1757 20.1683 17.429 20.2896 16.5143 20.2896ZM16.6403 18.9596C17.1723 18.9596 17.597 18.9083 17.9143 18.8056C18.241 18.7123 18.479 18.5909 18.6283 18.4416C18.7777 18.2923 18.8523 18.1289 18.8523 17.9516C18.8523 17.7929 18.8057 17.6669 18.7123 17.5736C18.6283 17.4803 18.507 17.4056 18.3483 17.3496C18.199 17.3029 18.0357 17.2656 17.8583 17.2376C17.6903 17.2189 17.527 17.2049 17.3683 17.1956L15.7023 17.0976C15.497 17.0789 15.3337 17.0556 15.2123 17.0276C15.091 16.9996 14.9883 16.9623 14.9043 16.9156L15.0723 16.9436C14.9043 17.0369 14.7597 17.1629 14.6383 17.3216C14.5263 17.4896 14.4703 17.6716 14.4703 17.8676C14.4703 18.0729 14.5263 18.2409 14.6383 18.3716C14.7503 18.5116 14.9043 18.6236 15.1003 18.7076C15.3057 18.7916 15.539 18.8523 15.8003 18.8896C16.071 18.9363 16.351 18.9596 16.6403 18.9596ZM17.4523 9.71962H20.5323V10.6716H18.8523L17.4523 9.71962Z" fill="#131313"/>
</svg>
