<svg width="24" height="24" viewBox="0 0 24 24" fill="none" xmlns="http://www.w3.org/2000/svg">
<path d="M3.24513 16.9996L6.66113 8.05358C6.80113 7.68958 6.97846 7.42825 7.19313 7.26958C7.41713 7.10158 7.67846 7.01758 7.97713 7.01758C8.28513 7.01758 8.55113 7.09691 8.77513 7.25558C8.99913 7.41425 9.17646 7.67558 9.30713 8.03958L12.7511 16.9996H11.6451L10.6651 14.4236H5.28913L4.30913 16.9996H3.24513ZM5.59713 13.5276H10.3571L8.45313 8.38958C8.39713 8.24025 8.33179 8.12358 8.25713 8.03958C8.19179 7.95558 8.10313 7.91358 7.99113 7.91358C7.86979 7.91358 7.77646 7.95558 7.71113 8.03958C7.65513 8.12358 7.59446 8.24025 7.52913 8.38958L5.59713 13.5276ZM14.9571 19.8416V18.9876H18.3591C18.8164 18.9876 19.1664 18.8569 19.4091 18.5956C19.6518 18.3343 19.7731 17.9796 19.7731 17.5316V15.4876H19.7451C19.5771 15.7583 19.3624 16.0196 19.1011 16.2716C18.8398 16.5236 18.5271 16.7289 18.1631 16.8876C17.8084 17.0463 17.3978 17.1256 16.9311 17.1256C16.2404 17.1256 15.6338 16.9669 15.1111 16.6496C14.5978 16.3229 14.1964 15.8796 13.9071 15.3196C13.6271 14.7596 13.4871 14.1203 13.4871 13.4016C13.4871 12.7016 13.6318 12.0763 13.9211 11.5256C14.2104 10.9656 14.6258 10.5223 15.1671 10.1956C15.7084 9.86891 16.3571 9.70558 17.1131 9.70558C17.8318 9.70558 18.4618 9.86425 19.0031 10.1816C19.5538 10.4989 19.9831 10.9376 20.2911 11.4976C20.5991 12.0483 20.7531 12.6876 20.7531 13.4156V17.6436C20.7531 18.3156 20.5571 18.8476 20.1651 19.2396C19.7731 19.6409 19.2364 19.8416 18.5551 19.8416H14.9571ZM17.0851 16.2716C17.6078 16.2716 18.0698 16.1456 18.4711 15.8936C18.8724 15.6416 19.1851 15.3056 19.4091 14.8856C19.6424 14.4563 19.7591 13.9663 19.7591 13.4156C19.7591 12.8649 19.6471 12.3749 19.4231 11.9456C19.2084 11.5163 18.9004 11.1756 18.4991 10.9236C18.0978 10.6716 17.6311 10.5456 17.0991 10.5456C16.5578 10.5456 16.0864 10.6763 15.6851 10.9376C15.2931 11.1896 14.9944 11.5349 14.7891 11.9736C14.5838 12.4029 14.4811 12.8976 14.4811 13.4576C14.4811 13.9803 14.5838 14.4563 14.7891 14.8856C14.9944 15.3056 15.2931 15.6416 15.6851 15.8936C16.0771 16.1456 16.5438 16.2716 17.0851 16.2716Z" fill="#131313"/>
</svg>
