<svg width="24" height="24" viewBox="0 0 24 24" fill="none" xmlns="http://www.w3.org/2000/svg">
<path d="M2.12891 16.9996L5.26491 8.43158C5.44224 7.96491 5.73157 7.61491 6.13291 7.38158C6.54357 7.13891 7.00557 7.01758 7.51891 7.01758C8.03224 7.01758 8.48957 7.13425 8.89091 7.36758C9.30157 7.60091 9.59557 7.95091 9.77291 8.41758L12.9089 16.9996H9.70291L9.17091 15.2916H5.82491L5.26491 16.9996H2.12891ZM6.45491 12.9816H8.54091L7.63091 9.83158C7.62157 9.80358 7.60757 9.78491 7.58891 9.77558C7.57024 9.75691 7.54691 9.74758 7.51891 9.74758C7.50024 9.74758 7.48157 9.75691 7.46291 9.77558C7.44424 9.78491 7.43024 9.80358 7.42091 9.83158L6.45491 12.9816ZM14.6243 19.8416V17.5456H18.0543C18.2223 17.5456 18.3577 17.4989 18.4603 17.4056C18.563 17.3216 18.6143 17.2049 18.6143 17.0556V15.7956H18.5303C18.409 15.9543 18.255 16.1083 18.0683 16.2576C17.891 16.3976 17.6717 16.5096 17.4103 16.5936C17.1583 16.6776 16.855 16.7196 16.5003 16.7196C15.8657 16.7196 15.3103 16.5703 14.8343 16.2716C14.3583 15.9636 13.9897 15.5529 13.7283 15.0396C13.467 14.5263 13.3363 13.9616 13.3363 13.3456C13.3363 12.6829 13.4857 12.0669 13.7843 11.4976C14.083 10.9189 14.5263 10.4569 15.1143 10.1116C15.7023 9.75691 16.421 9.57958 17.2703 9.57958C18.073 9.57958 18.773 9.74758 19.3703 10.0836C19.977 10.4103 20.4483 10.8676 20.7843 11.4556C21.1297 12.0436 21.3023 12.7249 21.3023 13.4996V17.6016C21.3023 18.2923 21.097 18.8383 20.6863 19.2396C20.2757 19.6409 19.7017 19.8416 18.9643 19.8416H14.6243ZM17.3263 14.5636C17.5597 14.5636 17.7697 14.5076 17.9563 14.3956C18.143 14.2836 18.2877 14.1343 18.3903 13.9476C18.5023 13.7516 18.5583 13.5416 18.5583 13.3176C18.5583 13.0749 18.5023 12.8556 18.3903 12.6596C18.2877 12.4636 18.143 12.3096 17.9563 12.1976C17.7697 12.0763 17.5597 12.0156 17.3263 12.0156C17.093 12.0156 16.8783 12.0716 16.6823 12.1836C16.4957 12.2956 16.3463 12.4496 16.2343 12.6456C16.1317 12.8416 16.0803 13.0609 16.0803 13.3036C16.0803 13.5369 16.1317 13.7516 16.2343 13.9476C16.3463 14.1343 16.4957 14.2836 16.6823 14.3956C16.8783 14.5076 17.093 14.5636 17.3263 14.5636Z" fill="#131313"/>
</svg>
