<svg width="24" height="24" viewBox="0 0 24 24" fill="none" xmlns="http://www.w3.org/2000/svg">
<path d="M13.587 13.1985C13.5466 13.2658 13.486 13.3129 13.4053 13.3398C13.338 13.3533 13.2707 13.3802 13.2034 13.4206C13.1361 13.461 13.0688 13.5148 13.0015 13.5821C12.9342 13.6494 12.867 13.7032 12.7997 13.7436C12.9881 14.4703 13.1361 15.1029 13.2438 15.6412C13.3515 16.1796 13.4187 16.5833 13.4457 16.8525C13.4726 17.1216 13.4928 17.4177 13.5062 17.7407C13.5197 18.0637 13.5264 18.3598 13.5264 18.629C13.5264 18.8309 13.513 18.9924 13.486 19.1135C13.4726 19.2481 13.4457 19.3759 13.4053 19.497C13.2438 19.2952 13.1092 19.0798 13.0015 18.851C12.9073 18.6222 12.8064 18.3935 12.6987 18.1647C12.4699 17.4783 12.2479 16.7583 12.0325 16.0046C11.8307 15.2509 11.6288 14.4838 11.4269 13.7032C11.0501 13.6898 10.6463 13.683 10.2157 13.683C9.78499 13.683 9.35433 13.683 8.92366 13.683C8.49299 13.683 8.08251 13.6898 7.69222 13.7032C7.31539 13.7032 6.98566 13.71 6.70303 13.7234C6.67612 13.8042 6.6492 13.8984 6.62228 14.006C6.54153 14.181 6.47424 14.3761 6.42041 14.5915C6.36657 14.7933 6.31947 15.0154 6.2791 15.2577C6.23872 15.4865 6.19162 15.7287 6.13778 15.9844C6.08395 16.2401 6.01666 16.4958 5.93591 16.7515C6.11087 16.7515 6.2791 16.6977 6.4406 16.59C6.61555 16.4689 6.79051 16.4083 6.96547 16.4083C6.84435 16.5295 6.73668 16.6641 6.64247 16.8121C6.56172 16.9601 6.4877 17.1553 6.42041 17.3975C6.40695 17.4648 6.36657 17.5321 6.29928 17.5994C6.23199 17.6802 6.18489 17.7407 6.15797 17.7811C6.13105 17.8349 6.10414 17.8888 6.07722 17.9426C6.0503 18.0099 6.01666 18.057 5.97628 18.0839C5.88207 18.1377 5.80132 18.1647 5.73403 18.1647C5.66674 18.1781 5.61964 18.1647 5.59272 18.1243C5.48505 17.9628 5.41103 17.7878 5.37066 17.5994C5.34374 17.4245 5.31682 17.236 5.28991 17.0342C5.28991 16.6708 5.33701 16.1997 5.43122 15.621C5.52543 15.0423 5.64655 14.4232 5.7946 13.7638C5.68693 13.7369 5.57926 13.6898 5.4716 13.6225C5.36393 13.5417 5.26972 13.4879 5.18897 13.461C5.04093 13.3937 4.9198 13.36 4.8256 13.36C4.73139 13.3466 4.63045 13.2927 4.52278 13.1985L5.75422 12.8755C5.82151 12.8755 5.90899 12.8621 6.01666 12.8352C6.17816 12.2026 6.33966 11.597 6.50116 11.0183C6.66266 10.4396 6.81743 9.94834 6.96547 9.54459C7.07314 9.23505 7.20099 8.8784 7.34903 8.47465C7.51053 8.0709 7.69222 7.68734 7.8941 7.32396C8.10943 6.94713 8.34495 6.62413 8.60066 6.35496C8.86983 6.0858 9.15918 5.91757 9.46872 5.85028C9.56293 5.82336 9.65714 5.80317 9.75135 5.78971C9.84555 5.77626 9.94649 5.76953 10.0542 5.76953C10.1618 5.76953 10.2426 5.82336 10.2964 5.93103C10.3502 6.02524 10.431 6.14636 10.5387 6.2944C10.606 6.41553 10.6665 6.52319 10.7203 6.6174C10.7876 6.69815 10.8549 6.87311 10.9222 7.14228C11.2452 8.12474 11.548 9.11392 11.8307 10.1098C12.1133 11.0923 12.3623 12.0209 12.5776 12.8957L13.809 13.1582L13.587 13.1985ZM9.46872 6.71834C9.23993 7.02788 9.0246 7.37107 8.82272 7.7479C8.62085 8.11128 8.41897 8.53521 8.2171 9.01971C8.01522 9.49076 7.81335 10.0358 7.61147 10.6549C7.4096 11.2605 7.20099 11.9469 6.98566 12.714C7.68549 12.6333 8.38533 12.5862 9.08516 12.5727C9.78499 12.5593 10.4781 12.5862 11.1645 12.6535C10.8818 11.5633 10.606 10.5069 10.3368 9.48403C10.0676 8.44774 9.77826 7.52584 9.46872 6.71834ZM18.5531 10.1704C18.6742 10.4934 18.8223 10.9712 18.9972 11.6037C19.1722 12.2363 19.3404 12.9226 19.5019 13.6628C19.6634 14.4031 19.8047 15.15 19.9258 15.9037C20.047 16.6573 20.1075 17.3168 20.1075 17.882C20.1075 18.3262 20.0604 18.7636 19.9662 19.1942C19.8855 19.6384 19.6432 20.0623 19.2395 20.466C19.0241 20.6679 18.7617 20.9102 18.4522 21.1928C18.1561 21.4889 17.8331 21.758 17.4832 22.0003C17.3217 22.108 17.1534 22.2089 16.9785 22.3031C16.817 22.3973 16.6555 22.4713 16.494 22.5252C16.4267 22.3637 16.4065 22.256 16.4334 22.2022C16.4738 22.1618 16.5142 22.0743 16.5545 21.9397C16.5949 21.8186 16.6218 21.6504 16.6353 21.435C16.6622 21.2197 16.7295 21.0649 16.8372 20.9707C16.9717 20.8496 17.1534 20.6948 17.3822 20.5064C17.611 20.318 17.8331 20.1161 18.0484 19.9008C18.2637 19.6989 18.4522 19.497 18.6137 19.2952C18.7752 19.0933 18.8694 18.9116 18.8963 18.7501C18.9232 18.5079 18.9367 18.2387 18.9367 17.9426C18.9367 17.66 18.9165 17.3639 18.8761 17.0544C18.8492 16.7583 18.8088 16.4622 18.755 16.1661C18.7011 15.8566 18.6338 15.5739 18.5531 15.3182L18.5127 15.1971C18.3512 15.4932 18.1763 15.7354 17.9878 15.9238C17.8129 16.0988 17.611 16.2401 17.3822 16.3478C17.2746 16.4016 17.1669 16.442 17.0592 16.4689C16.9516 16.4824 16.8439 16.5026 16.7362 16.5295C16.6286 16.5564 16.5209 16.5968 16.4132 16.6506C16.3056 16.691 16.2113 16.7112 16.1306 16.7112C15.9556 16.6977 15.7807 16.6237 15.6057 16.4891C15.4442 16.3545 15.35 16.1997 15.3231 16.0248C15.3096 15.9306 15.2827 15.8364 15.2423 15.7422C15.202 15.6345 15.1751 15.5268 15.1616 15.4192C15.1347 15.0289 15.1279 14.5982 15.1414 14.1272C15.1549 13.6561 15.1952 13.1851 15.2625 12.714C15.3433 12.2295 15.4577 11.772 15.6057 11.3413C15.7538 10.8972 15.9422 10.5136 16.171 10.1906C16.2652 10.0829 16.3661 9.98199 16.4738 9.88778C16.5814 9.78011 16.716 9.72628 16.8775 9.72628C16.9852 9.72628 17.0794 9.6859 17.1602 9.60515C17.2544 9.5244 17.3553 9.49076 17.463 9.50421C17.6918 9.53113 17.9004 9.59169 18.0888 9.6859C18.2772 9.76665 18.432 9.92815 18.5531 10.1704ZM17.8667 11.7652C17.8398 11.5768 17.8062 11.3817 17.7658 11.1798C17.7254 10.9779 17.6716 10.8702 17.6043 10.8568C17.5505 10.8433 17.4966 10.8501 17.4428 10.877C17.4024 10.8904 17.3688 10.9039 17.3418 10.9173C17.1669 10.9846 17.0054 11.1932 16.8573 11.5432C16.7228 11.8796 16.6016 12.2632 16.494 12.6938C16.3998 13.1111 16.3257 13.5215 16.2719 13.9253C16.2181 14.3156 16.2046 14.5915 16.2315 14.753C16.2584 14.9548 16.3123 15.15 16.393 15.3384C16.4738 15.5134 16.6016 15.621 16.7766 15.6614C16.8304 15.6749 16.9179 15.6614 17.039 15.621C17.1602 15.5672 17.288 15.4999 17.4226 15.4192C17.5572 15.325 17.6918 15.2307 17.8263 15.1365C17.9609 15.0289 18.0686 14.9347 18.1493 14.8539C18.1897 14.8135 18.2032 14.6924 18.1897 14.4905C18.1897 14.2752 18.1695 14.0195 18.1292 13.7234C18.1022 13.4273 18.0619 13.1043 18.008 12.7544C17.9677 12.4045 17.9206 12.0748 17.8667 11.7652Z" fill="#131313"/>
</svg>
