<svg width="24" height="24" viewBox="0 0 24 24" fill="none" xmlns="http://www.w3.org/2000/svg">
<path d="M10.5749 13.3177C10.1829 12.347 9.80495 11.3904 9.44095 10.4477C9.08628 9.49566 8.71295 8.53433 8.32095 7.56366C7.92895 8.53433 7.54161 9.49566 7.15895 10.4477C6.78561 11.3904 6.40295 12.347 6.01095 13.3177H10.5749ZM13.0109 16.7897C13.0576 16.9204 13.0156 16.9857 12.8849 16.9857H12.2129C12.1569 16.9857 12.1056 16.9764 12.0589 16.9577C12.0216 16.939 11.9843 16.883 11.9469 16.7897L10.9109 14.2137H5.64695C5.46961 14.6524 5.29695 15.0817 5.12895 15.5017C4.96095 15.9217 4.79295 16.351 4.62495 16.7897C4.58761 16.883 4.54561 16.939 4.49895 16.9577C4.46161 16.9764 4.41495 16.9857 4.35895 16.9857H3.70095C3.57028 16.9857 3.52828 16.9204 3.57495 16.7897L7.69095 6.76566C7.73761 6.65366 7.82161 6.59766 7.94295 6.59766H8.79695C8.91828 6.59766 9.00228 6.65366 9.04895 6.76566L13.0109 16.7897ZM19.7948 13.1637C19.7948 12.165 19.5895 11.395 19.1788 10.8537C18.7682 10.3124 18.2128 10.0417 17.5128 10.0417C16.7568 10.0417 16.1875 10.2937 15.8048 10.7977C15.4222 11.3017 15.2308 12.0997 15.2308 13.1917C15.2308 13.593 15.2868 13.9617 15.3988 14.2977C15.5108 14.6337 15.6648 14.923 15.8608 15.1657C16.0568 15.399 16.2902 15.5857 16.5608 15.7257C16.8315 15.8564 17.1255 15.9217 17.4428 15.9217C17.7695 15.9217 18.0775 15.8564 18.3668 15.7257C18.6562 15.5857 18.9035 15.3944 19.1088 15.1517C19.3235 14.8997 19.4915 14.6057 19.6128 14.2697C19.7342 13.9337 19.7948 13.565 19.7948 13.1637ZM14.9788 18.8197C14.8668 18.7917 14.8202 18.7217 14.8388 18.6097L14.8808 17.9937C14.8808 17.8724 14.9415 17.8444 15.0628 17.9097C15.4175 18.0684 15.7582 18.1804 16.0848 18.2457C16.4115 18.3204 16.7662 18.3577 17.1488 18.3577C17.9982 18.3577 18.6328 18.0964 19.0528 17.5737C19.4822 17.0604 19.7248 16.3557 19.7808 15.4597C19.5662 15.8797 19.2488 16.197 18.8288 16.4117C18.4088 16.6264 17.9422 16.7337 17.4288 16.7337C16.9715 16.7337 16.5468 16.6497 16.1548 16.4817C15.7628 16.3137 15.4222 16.0757 15.1328 15.7677C14.8435 15.4597 14.6148 15.0864 14.4468 14.6477C14.2788 14.209 14.1948 13.7237 14.1948 13.1917C14.1948 12.5664 14.2508 12.011 14.3628 11.5257C14.4842 11.031 14.6708 10.6157 14.9228 10.2797C15.1748 9.94366 15.5015 9.68699 15.9028 9.50966C16.3042 9.33233 16.7895 9.24366 17.3588 9.24366C17.8535 9.24366 18.2875 9.32766 18.6608 9.49566C19.0435 9.65433 19.4308 9.94366 19.8228 10.3637L19.7948 9.60766C19.7948 9.47699 19.8602 9.41166 19.9908 9.41166H20.5228C20.6535 9.41166 20.7188 9.47699 20.7188 9.60766V15.2077C20.7188 15.8144 20.6395 16.365 20.4808 16.8597C20.3315 17.345 20.1028 17.7557 19.7948 18.0917C19.4962 18.437 19.1228 18.6984 18.6748 18.8757C18.2268 19.0624 17.7135 19.1557 17.1348 19.1557C16.7148 19.1557 16.3462 19.1277 16.0288 19.0717C15.7115 19.025 15.3615 18.941 14.9788 18.8197Z" fill="#131313"/>
</svg>
