<svg width="24" height="24" viewBox="0 0 24 24" fill="none" xmlns="http://www.w3.org/2000/svg">
<path d="M14.855 17.784C14.323 17.5973 13.7957 17.392 13.273 17.168C12.7597 16.9533 12.251 16.6967 11.747 16.398C11.6257 16.5193 11.5183 16.622 11.425 16.706C11.3317 16.79 11.2337 16.8647 11.131 16.93C11.0283 16.986 10.9163 17.0327 10.795 17.07C10.683 17.1167 10.5477 17.1587 10.389 17.196C10.4823 17.084 10.5477 16.9487 10.585 16.79C10.6223 16.6313 10.641 16.468 10.641 16.3C10.641 16.0293 10.6037 15.768 10.529 15.516C10.4637 15.2547 10.403 15.0353 10.347 14.858L10.011 13.794C9.74035 14.1487 9.46968 14.5407 9.19902 14.97C8.93768 15.3993 8.70902 15.81 8.51302 16.202C8.35435 15.978 8.13968 15.6607 7.86902 15.25C7.60768 14.8393 7.31368 14.396 6.98702 13.92L6.76302 14.648C6.70702 14.8347 6.66035 15.0213 6.62302 15.208C6.59502 15.3947 6.58102 15.586 6.58102 15.782C6.58102 16.0713 6.61835 16.356 6.69302 16.636C6.76768 16.916 6.88902 17.1773 7.05702 17.42C6.87035 17.3547 6.71168 17.2893 6.58102 17.224C6.45968 17.1587 6.34302 17.084 6.23102 17C6.12835 16.916 6.02102 16.8273 5.90902 16.734C5.80635 16.6313 5.68502 16.5147 5.54502 16.384C5.15302 16.7573 4.76568 17.0187 4.38302 17.168C4.00035 17.3267 3.57102 17.4107 3.09502 17.42C3.27235 17.392 3.45902 17.2753 3.65502 17.07C3.85102 16.874 4.04235 16.6173 4.22902 16.3C4.41568 15.9733 4.59302 15.6047 4.76102 15.194C4.93835 14.7833 5.09235 14.3493 5.22302 13.892L5.67102 12.324C5.34435 11.9787 4.98968 11.6847 4.60702 11.442C4.22435 11.19 3.87902 11.064 3.57102 11.064C3.55235 11.064 3.52902 11.064 3.50102 11.064C3.47302 11.064 3.41702 11.0687 3.33302 11.078L3.31902 11.036C3.72035 10.8307 4.09368 10.728 4.43902 10.728C4.67235 10.728 4.91035 10.7747 5.15302 10.868C5.39568 10.952 5.67568 11.0827 5.99302 11.26L6.74902 8.67C6.79568 8.51133 6.82835 8.37133 6.84702 8.25C6.86568 8.12867 6.87502 8.03067 6.87502 7.956C6.87502 7.76 6.81435 7.62 6.69302 7.536C6.58102 7.452 6.37568 7.41 6.07702 7.41C5.89035 7.41 5.68968 7.424 5.47502 7.452C5.26035 7.48 5.00368 7.522 4.70502 7.578C4.76102 7.494 4.89635 7.396 5.11102 7.284C5.32568 7.172 5.58235 7.06467 5.88102 6.962C6.18902 6.85933 6.51568 6.77533 6.86102 6.71C7.21568 6.63533 7.55635 6.598 7.88302 6.598C8.12568 6.598 8.35902 6.626 8.58302 6.682C8.80702 6.738 8.97502 6.836 9.08702 6.976C9.25502 6.96667 9.43702 6.94333 9.63302 6.906C9.82902 6.86867 10.0157 6.82667 10.193 6.78C10.3703 6.724 10.529 6.67267 10.669 6.626C10.809 6.57 10.9023 6.528 10.949 6.5C10.8183 6.68667 10.7203 6.91067 10.655 7.172C10.599 7.424 10.571 7.69933 10.571 7.998C10.571 8.38067 10.613 8.782 10.697 9.202C10.781 9.61267 10.879 9.99533 10.991 10.35C11.1123 10.7047 11.2383 11.008 11.369 11.26C11.4997 11.512 11.6117 11.666 11.705 11.722C11.705 12.2727 11.7983 12.856 11.985 13.472C12.181 14.088 12.4283 14.676 12.727 15.236C13.035 15.796 13.3757 16.3 13.749 16.748C14.1317 17.1867 14.505 17.518 14.869 17.742L14.855 17.784ZM8.49902 13.906C8.65768 13.6913 8.83502 13.4627 9.03102 13.22C9.23635 12.968 9.42302 12.7207 9.59102 12.478L8.51302 8.978L7.40702 12.59C7.59368 12.786 7.78035 13.0053 7.96702 13.248C8.16302 13.4907 8.34035 13.71 8.49902 13.906ZM20.7678 16.664C20.7678 17.8493 20.8098 18.638 20.8938 19.03C20.6325 19.03 20.3478 19.0673 20.0398 19.142C19.7318 19.226 19.4192 19.338 19.1018 19.478C18.7938 19.618 18.4905 19.7813 18.1918 19.968C17.8932 20.164 17.6272 20.374 17.3938 20.598C16.8618 20.206 16.3672 19.9213 15.9098 19.744C15.4525 19.5667 14.9718 19.478 14.4678 19.478C14.5425 19.086 14.6592 18.7267 14.8178 18.4C14.9858 18.0827 15.1772 17.8213 15.3918 17.616C15.4945 17.6253 15.6532 17.672 15.8678 17.756C16.0918 17.8493 16.3345 17.966 16.5958 18.106C16.8572 18.246 17.1138 18.3953 17.3658 18.554C17.6272 18.7127 17.8512 18.8667 18.0378 19.016L19.0878 18.68C19.0692 18.5587 19.0505 18.428 19.0318 18.288C19.0225 18.148 19.0132 17.9753 19.0038 17.77C18.9945 17.5647 18.9852 17.3127 18.9758 17.014C18.9665 16.7247 18.9572 16.37 18.9478 15.95C18.7705 16.0807 18.5698 16.2067 18.3458 16.328C18.1312 16.4493 17.9072 16.5613 17.6738 16.664C17.4405 16.7667 17.2025 16.86 16.9598 16.944C16.7265 17.0187 16.5025 17.0793 16.2878 17.126C15.8305 16.6593 15.3218 16.342 14.7618 16.174C14.7992 16.0433 14.8318 15.9127 14.8598 15.782C14.8878 15.642 14.9065 15.4927 14.9158 15.334C14.9345 15.166 14.9485 14.9793 14.9578 14.774C14.9672 14.5593 14.9718 14.3073 14.9718 14.018C14.9718 13.262 14.9532 12.6787 14.9158 12.268C14.8785 11.8573 14.8178 11.5633 14.7338 11.386C14.9485 11.3487 15.1818 11.2927 15.4338 11.218C15.6858 11.1433 15.9378 11.0547 16.1898 10.952C16.4418 10.8493 16.6892 10.7327 16.9318 10.602C17.1745 10.4713 17.3938 10.336 17.5898 10.196C18.1498 10.364 18.5978 10.4853 18.9338 10.56C19.2792 10.6253 19.5732 10.658 19.8158 10.658C20.0305 10.658 20.2638 10.6393 20.5158 10.602C20.7772 10.5553 21.0012 10.4993 21.1878 10.434C21.1132 10.5833 21.0478 10.7607 20.9918 10.966C20.9358 11.1713 20.8892 11.4233 20.8518 11.722C20.8238 12.0207 20.8005 12.3753 20.7818 12.786C20.7725 13.1967 20.7678 13.682 20.7678 14.242V16.664ZM17.6318 11.582C17.5292 11.6847 17.3985 11.7967 17.2398 11.918C17.0812 12.0393 16.9365 12.1373 16.8058 12.212C16.8338 12.4827 16.8478 12.9913 16.8478 13.738C16.8478 14.13 16.8432 14.4613 16.8338 14.732C16.8245 14.9933 16.8058 15.2453 16.7778 15.488C16.9458 15.4787 17.1325 15.4553 17.3378 15.418C17.5432 15.3807 17.7438 15.334 17.9398 15.278C18.1452 15.222 18.3365 15.1613 18.5138 15.096C18.6912 15.0213 18.8358 14.9467 18.9478 14.872V14.312C18.9478 13.696 18.9572 13.192 18.9758 12.8C18.9945 12.408 19.0272 12.0953 19.0738 11.862C18.9805 11.862 18.8685 11.8573 18.7378 11.848C18.6165 11.8293 18.4905 11.806 18.3598 11.778C18.2292 11.75 18.0985 11.722 17.9678 11.694C17.8372 11.6567 17.7252 11.6193 17.6318 11.582Z" fill="#131313"/>
</svg>
