<svg width="24" height="24" viewBox="0 0 24 24" fill="none" xmlns="http://www.w3.org/2000/svg">
<path d="M7.14551 12.625H9.08008L8.11621 9.28224L7.14551 12.625ZM4.20605 17L7.15918 6.64355H8.9502L11.9033 17H10.3242L9.46974 13.999H6.75586L5.90137 17H4.20605ZM17.2764 14.2041C17.0394 14.4456 16.7409 14.6348 16.3809 14.7715C16.0254 14.9082 15.6654 14.9766 15.3008 14.9766C14.9362 14.9766 14.6377 14.931 14.4053 14.8398C14.3643 14.8809 14.2891 14.9378 14.1797 15.0107C13.9655 15.1566 13.8584 15.3092 13.8584 15.4688C13.8584 15.6829 14.2025 15.8311 14.8906 15.9131C15.0182 15.9313 15.098 15.9427 15.1299 15.9473C15.1618 15.9473 15.2438 15.9495 15.376 15.9541C15.5081 15.9541 15.6107 15.9564 15.6836 15.9609C15.7565 15.9609 15.8727 15.9701 16.0322 15.9883C16.1963 16.0065 16.3512 16.0316 16.4971 16.0635C17.2809 16.2412 17.7822 16.4281 18.001 16.624C18.4567 17.0387 18.6846 17.5332 18.6846 18.1074C18.6846 19.429 17.5635 20.0898 15.3213 20.0898C14.387 20.0898 13.6191 19.9349 13.0176 19.625C12.375 19.2969 12.0537 18.7933 12.0537 18.1143C12.0537 17.5127 12.4912 17.0456 13.3662 16.7129C13.0928 16.6764 12.8626 16.5579 12.6758 16.3574C12.4889 16.1523 12.3955 15.9108 12.3955 15.6328C12.3955 15.0495 12.7464 14.6051 13.4482 14.2998C13.2113 14.1768 12.9925 13.9079 12.792 13.4932C12.5915 13.0739 12.4912 12.6318 12.4912 12.167C12.4912 11.7021 12.6211 11.2738 12.8809 10.8818C13.1452 10.4899 13.5007 10.1891 13.9473 9.9795C14.3939 9.76987 14.8929 9.66504 15.4443 9.66504C15.6995 9.66504 15.9616 9.71517 16.2305 9.81543C16.5039 9.91113 16.6976 10.0091 16.8115 10.1094C17.2035 9.82682 17.6227 9.67643 18.0693 9.65821C18.1331 9.65366 18.238 9.65137 18.3838 9.65137C18.5296 9.64681 18.6344 9.64454 18.6982 9.64454V10.875H18.6709C18.2288 10.8294 17.9326 10.8454 17.7822 10.9229C17.7367 10.9456 17.7139 10.9684 17.7139 10.9912C17.7184 11.014 17.7458 11.096 17.7959 11.2373C17.846 11.3786 17.8848 11.488 17.9121 11.5654C17.9896 11.8206 18.0283 12.1009 18.0283 12.4062C18.0283 12.707 17.9622 13.0215 17.8301 13.3496C17.7025 13.6777 17.5179 13.9626 17.2764 14.2041ZM15.3555 10.9023C14.9362 10.9023 14.5967 11.0208 14.3369 11.2578C14.0817 11.4948 13.9541 11.8389 13.9541 12.29C13.9541 12.7367 14.0703 13.0898 14.3027 13.3496C14.5397 13.6048 14.8883 13.7324 15.3486 13.7324C15.9365 13.7324 16.3193 13.4134 16.4971 12.7754C16.5426 12.6159 16.5654 12.4564 16.5654 12.2969C16.5654 12.1328 16.5426 11.9733 16.4971 11.8184C16.4515 11.6634 16.3831 11.5153 16.292 11.374C16.0869 11.0596 15.7747 10.9023 15.3555 10.9023ZM13.7627 17.5332C13.6761 17.638 13.6123 17.7383 13.5713 17.834C13.5303 17.9297 13.5098 18.0299 13.5098 18.1348C13.5098 18.2441 13.5303 18.3353 13.5713 18.4082C13.6123 18.4857 13.6624 18.5472 13.7217 18.5928C13.7809 18.6429 13.8607 18.6862 13.9609 18.7227C14.0658 18.7591 14.1615 18.7842 14.248 18.7979C14.3346 18.8161 14.444 18.8298 14.5762 18.8389C14.7585 18.8525 14.9521 18.8594 15.1572 18.8594C15.3669 18.8594 15.5173 18.8571 15.6084 18.8525C15.7041 18.8525 15.8294 18.848 15.9844 18.8389C16.1393 18.8298 16.2669 18.8138 16.3672 18.791C16.4674 18.7728 16.5768 18.7454 16.6953 18.709C16.8138 18.6725 16.9049 18.627 16.9688 18.5723C17.1328 18.4447 17.2148 18.2874 17.2148 18.1006C17.2148 17.9137 17.1374 17.7588 16.9824 17.6357C16.8275 17.5127 16.6315 17.4215 16.3945 17.3623C16.1576 17.3076 15.9206 17.2643 15.6836 17.2324C15.4466 17.2005 15.221 17.1755 15.0068 17.1572C14.7972 17.139 14.665 17.1185 14.6104 17.0957C14.1318 17.2871 13.8493 17.4329 13.7627 17.5332Z" fill="#131313"/>
</svg>
