<svg width="24" height="24" viewBox="0 0 24 24" fill="none" xmlns="http://www.w3.org/2000/svg">
<path d="M4.64437 14.2073V12.9613H9.62137V14.2073H4.64437ZM12.9324 16.0413L14.0594 16.4683V17.0003H8.52937V16.4683L9.65637 16.0973L6.91937 9.26531H7.12937L4.51137 16.0833L5.58237 16.4683V17.0003H1.92137V16.4683L3.02737 16.0973L6.53437 7.44531H9.32037L12.9324 16.0413ZM17.6099 20.5563C16.9612 20.5563 16.4152 20.5236 15.9719 20.4583C15.5286 20.393 15.1716 20.2973 14.9009 20.1713C14.6349 20.0453 14.4412 19.896 14.3199 19.7233C14.2032 19.5553 14.1449 19.3686 14.1449 19.1633C14.1449 18.9813 14.1846 18.818 14.2639 18.6733C14.3432 18.5333 14.4902 18.4073 14.7049 18.2953C14.9196 18.1833 15.2229 18.083 15.6149 17.9943C16.0069 17.9056 16.5156 17.824 17.1409 17.7493H17.9249L17.9319 17.8683C17.4419 17.9196 17.0686 17.985 16.8119 18.0643C16.5599 18.1483 16.3872 18.2463 16.2939 18.3583C16.2052 18.4703 16.1609 18.6033 16.1609 18.7573C16.1609 18.9393 16.2239 19.0956 16.3499 19.2263C16.4759 19.3616 16.6766 19.4643 16.9519 19.5343C17.2319 19.609 17.5936 19.6463 18.0369 19.6463C18.4896 19.6463 18.8629 19.6113 19.1569 19.5413C19.4509 19.4713 19.6679 19.3733 19.8079 19.2473C19.9479 19.1213 20.0179 18.9836 20.0179 18.8343C20.0179 18.7223 19.9852 18.6266 19.9199 18.5473C19.8592 18.468 19.7356 18.4003 19.5489 18.3443C19.3622 18.2883 19.0892 18.2416 18.7299 18.2043C18.3706 18.167 17.8969 18.1296 17.3089 18.0923C16.7209 18.0596 16.2402 17.992 15.8669 17.8893C15.4982 17.7913 15.2136 17.663 15.0129 17.5043C14.8122 17.3456 14.6746 17.1683 14.5999 16.9723C14.5252 16.7716 14.4902 16.557 14.4949 16.3283C14.5089 15.857 14.6932 15.4836 15.0479 15.2083C15.4026 14.933 15.9556 14.7626 16.7069 14.6973L16.9169 15.0053C16.6276 15.024 16.4339 15.0683 16.3359 15.1383C16.2426 15.2083 16.1959 15.3016 16.1959 15.4183C16.1959 15.5116 16.2216 15.5886 16.2729 15.6493C16.3289 15.71 16.4362 15.7613 16.5949 15.8033C16.7582 15.8406 17.0009 15.871 17.3229 15.8943C17.6496 15.9176 18.0836 15.9386 18.6249 15.9573C19.2269 15.9806 19.7332 16.0343 20.1439 16.1183C20.5546 16.1976 20.8836 16.3166 21.1309 16.4753C21.3782 16.6293 21.5579 16.8253 21.6699 17.0633C21.7819 17.306 21.8379 17.593 21.8379 17.9243C21.8426 18.4516 21.6839 18.9113 21.3619 19.3033C21.0446 19.7 20.5709 20.008 19.9409 20.2273C19.3156 20.4466 18.5386 20.5563 17.6099 20.5563ZM17.6169 15.1103C16.9122 15.1103 16.3196 15.0146 15.8389 14.8233C15.3629 14.6273 15.0012 14.3496 14.7539 13.9903C14.5112 13.6263 14.3899 13.197 14.3899 12.7023C14.3899 12.1796 14.5252 11.7386 14.7959 11.3793C15.0666 11.02 15.4446 10.7493 15.9299 10.5673C16.4199 10.3806 16.9869 10.2873 17.6309 10.2873C18.1816 10.2873 18.6576 10.3573 19.0589 10.4973C19.4649 10.6373 19.8009 10.8263 20.0669 11.0643C20.3329 11.2976 20.5312 11.5566 20.6619 11.8413C20.7926 12.126 20.8579 12.4106 20.8579 12.6953C20.8579 13.2133 20.7226 13.6543 20.4519 14.0183C20.1859 14.3776 19.8102 14.6506 19.3249 14.8373C18.8396 15.0193 18.2702 15.1103 17.6169 15.1103ZM17.6729 14.1723C17.8782 14.1723 18.0369 14.0766 18.1489 13.8853C18.2656 13.694 18.3239 13.3276 18.3239 12.7863C18.3239 12.1656 18.2586 11.7433 18.1279 11.5193C17.9972 11.2906 17.8176 11.1763 17.5889 11.1763C17.3836 11.1763 17.2249 11.272 17.1129 11.4633C17.0009 11.6546 16.9449 12.0233 16.9449 12.5693C16.9449 13.1853 17.0079 13.6076 17.1339 13.8363C17.2646 14.0603 17.4442 14.1723 17.6729 14.1723ZM18.7229 10.9453L18.6109 10.4203C18.9936 10.4576 19.3366 10.474 19.6399 10.4693C19.9432 10.46 20.2139 10.4413 20.4519 10.4133C20.6946 10.3853 20.9069 10.3573 21.0889 10.3293C21.2756 10.3013 21.4412 10.2873 21.5859 10.2873C21.7492 10.2873 21.8659 10.3293 21.9359 10.4133C22.0106 10.4973 22.0479 10.6513 22.0479 10.8753C22.0479 11.23 21.9919 11.468 21.8799 11.5893C21.7679 11.7106 21.6396 11.7713 21.4949 11.7713C21.3596 11.7713 21.2196 11.7246 21.0749 11.6313C20.9349 11.538 20.7646 11.433 20.5639 11.3163C20.3679 11.1996 20.1229 11.1016 19.8289 11.0223C19.5349 10.943 19.1662 10.9173 18.7229 10.9453Z" fill="#131313"/>
</svg>
