<svg width="24" height="24" viewBox="0 0 24 24" fill="none" xmlns="http://www.w3.org/2000/svg">
<path d="M12.4033 15.249C12.5469 16.3428 12.7588 16.5342 13.4082 16.6299L13.333 16.999H9.48438L9.55957 16.6299C10.5098 16.5068 10.6943 16.2265 10.5918 15.2422L10.4004 13.5605H7.2832L6.45605 15.126C5.85449 16.2607 5.95703 16.4931 6.90723 16.6299L6.83203 16.999H4.05664L4.13184 16.6299C4.88379 16.5273 5.12305 16.3291 5.80664 15.1054L10.2432 7.12109H11.3643L12.4033 15.249ZM7.54297 13.0683H10.3457L9.84668 8.69336L7.54297 13.0683ZM16.2656 20.123C14.5156 20.123 13.1963 19.5215 13.1963 18.5029C13.1963 17.7578 14.0029 17.2109 15.3496 17.0058C14.7139 16.7802 14.4131 16.3769 14.4131 15.8916C14.4062 15.2695 14.9053 14.791 15.9922 14.5722C15.042 14.2441 14.5498 13.4922 14.5498 12.6308C14.5498 11.2568 15.623 10.1426 17.4414 10.1426C18.0635 10.1426 18.5693 10.2656 18.9658 10.4844L21.1533 10.3886L21.0303 10.997L19.4512 10.8467C19.8203 11.2226 19.998 11.7148 19.998 12.2412C19.998 13.6015 18.9316 14.75 17.1064 14.7431C16.833 14.7431 16.5869 14.7158 16.3545 14.6679C15.8965 14.7842 15.6572 15.0166 15.6572 15.2832C15.6641 15.5293 15.8418 15.7344 16.457 15.8574L17.6533 16.0898C19.0137 16.3564 19.6084 16.9922 19.6084 17.9355C19.6084 19.2959 18.0088 20.123 16.2656 20.123ZM16.0947 12.9248C16.0947 13.7451 16.4229 14.3398 17.0859 14.3398C17.9609 14.3398 18.4531 13.1025 18.4531 11.9541C18.4531 11.1406 18.125 10.539 17.4619 10.539C16.5869 10.539 16.0947 11.7832 16.0947 12.9248ZM14.4609 18.373C14.4609 19.125 15.2197 19.665 16.334 19.665C17.4277 19.665 18.2754 19.166 18.2754 18.414C18.2754 17.8877 17.9268 17.5254 16.9492 17.3408L15.7939 17.122C15.7803 17.1152 15.7666 17.1152 15.7461 17.1084C14.8916 17.3476 14.4609 17.7783 14.4609 18.373Z" fill="#131313"/>
</svg>
