<svg width="24" height="24" viewBox="0 0 24 24" fill="none" xmlns="http://www.w3.org/2000/svg">
<path d="M12.7119 15.0733C12.8555 16.249 13.0947 16.4541 13.6621 16.5635L13.5732 17.001H8.31641L8.41211 16.5635C9.31445 16.4131 9.50586 16.0987 9.41699 15.0596L9.31445 13.7471H6.5459L5.95117 14.9297C5.34277 16.1397 5.45215 16.4131 6.30664 16.5703L6.21777 17.001H3.44922L3.53809 16.5703C4.20801 16.4473 4.47461 16.2149 5.17871 14.9092L9.40332 7.0957H11.8232L12.7119 15.0733ZM6.85352 13.1387H9.2666L8.93164 8.99609L6.85352 13.1387ZM14.5781 12.4483C14.5781 10.9649 15.9863 9.98046 18.3857 9.98046C19.1787 9.98046 19.8145 10.0899 20.2998 10.2676L22.7949 10.1924L22.6309 10.9854L21.0654 10.6846C21.5508 11.0811 21.7422 11.6006 21.7422 12.1406C21.7422 13.583 20.3477 14.6494 17.9346 14.6494C17.5996 14.6426 17.292 14.6289 17.0117 14.5879C16.752 14.6358 16.6016 14.7862 16.6016 14.9912C16.6016 15.2168 16.8135 15.4082 17.4629 15.5108L18.7549 15.7022C20.416 15.9619 21.2295 16.7549 21.2295 17.8965C21.2295 19.3526 19.6162 20.3233 17.0596 20.3233C14.8105 20.3233 13.3545 19.7354 13.3545 18.8535C13.3545 18.1836 14.168 17.7324 15.7197 17.6436C14.8311 17.4112 14.3252 16.8985 14.332 16.208C14.3389 15.3467 15.0908 14.6699 16.5537 14.5059C15.166 14.1846 14.5781 13.3574 14.5781 12.4483ZM17.3467 13.043C17.3467 13.7608 17.5586 14.1367 17.9346 14.1367C18.6523 14.1367 18.9873 12.5645 18.9873 11.5733C18.9873 10.8555 18.7891 10.4932 18.4062 10.4932C17.6816 10.4932 17.3467 12.086 17.3467 13.043ZM15.4531 18.6553C15.4531 19.3115 16.0752 19.7969 17.0869 19.7969C18.1533 19.7969 18.7822 19.3662 18.7822 18.8125C18.7822 18.3614 18.4746 18.0948 17.415 17.9239L16.2324 17.7461C15.7334 17.8623 15.4531 18.2041 15.4531 18.6553Z" fill="#131313"/>
</svg>
