<svg width="24" height="24" viewBox="0 0 24 24" fill="none" xmlns="http://www.w3.org/2000/svg">
<path d="M12.1582 14.8877C12.5547 15.9951 12.7598 16.2002 13.5391 16.3232V17H8.36426V16.3232C9.33496 16.1797 9.49219 15.9473 9.13672 14.8398L8.80859 13.8555H5.75977L5.45215 14.8057C5.08301 15.9404 5.21973 16.1729 6.2041 16.3232V17H2.95703V16.3232C3.75 16.2002 3.94824 16.002 4.37891 14.792L7.14062 7.12891H9.38281L12.1582 14.8877ZM6.0332 13.0078H8.53516L7.27734 9.16602L6.0332 13.0078ZM13.7373 12.1943C13.7373 10.7998 15.1797 9.8291 17.2988 9.8291C18.0439 9.8291 18.7549 9.95215 19.2607 10.1572L21.7969 9.97949V10.9639L20.0469 10.8066C20.6006 11.0459 20.9766 11.627 20.9766 12.249C20.9766 13.6641 19.4453 14.4502 17.3945 14.4502C17.1211 14.4502 16.8613 14.4365 16.5742 14.4023C16.2188 14.5049 16.0068 14.7031 16.0068 14.9766C16.0068 15.3184 16.3418 15.5166 17.0049 15.5166H18.3789C20.457 15.5166 21.5234 16.3643 21.5234 17.7314C21.5234 19.29 19.8213 20.3496 17.333 20.3496C14.8652 20.3496 13.4775 19.6797 13.4775 18.7432C13.4775 18.0527 14.2295 17.5811 15.9521 17.5059C14.6533 17.4785 13.7578 16.9043 13.7646 16.0088C13.7646 15.0928 14.5986 14.4502 15.9795 14.2451C14.7627 14.0674 13.7373 13.3496 13.7373 12.1943ZM16.3828 12.0986C16.3828 13.0557 16.7998 13.623 17.3945 13.623C18.0029 13.623 18.3652 13.042 18.3652 12.1602C18.3652 11.21 17.9619 10.6494 17.3467 10.6494C16.7246 10.6494 16.3828 11.2305 16.3828 12.0986ZM15.8428 18.4902C15.8428 19.0781 16.4102 19.4746 17.4014 19.4746C18.4609 19.4746 19.124 19.0508 19.124 18.4424C19.124 17.9365 18.7344 17.6357 17.8662 17.6357H16.7451C16.1709 17.6973 15.8428 18.0186 15.8428 18.4902Z" fill="#131313"/>
</svg>
