<svg width="24" height="24" viewBox="0 0 24 24" fill="none" xmlns="http://www.w3.org/2000/svg">
<path d="M12.376 15.1748C12.5059 16.2139 12.6768 16.3779 13.4834 16.4805L13.374 17H9.62793L9.7373 16.4805C10.8379 16.3438 10.9883 16.1592 10.8789 15.168L10.7012 13.582H7.41992L6.5791 15.168C6.0459 16.166 6.12109 16.3438 7.15332 16.4805L7.04395 17H3.96094L4.07031 16.4805C4.97266 16.3779 5.1709 16.2139 5.77246 15.1338L10.2158 7.12891H11.3369L12.376 15.1748ZM7.76172 12.9395H10.626L10.127 8.50293L7.76172 12.9395ZM16.3135 20.0625C14.7139 20.0625 13.3467 19.4609 13.3467 18.3057C13.3467 17.5811 14.167 16.9863 15.3564 16.7334C14.8506 16.501 14.6318 16.1455 14.625 15.7285C14.6113 15.1406 15.0625 14.7373 15.9785 14.4707C15.2129 14.1084 14.7822 13.4111 14.7822 12.5771C14.7822 11.2305 15.7461 10.0137 17.4756 10.0068C18.084 10.0068 18.5898 10.1504 18.9863 10.3965L21.2627 10.3008L21.1191 11.0322L19.54 10.916C19.793 11.2578 19.9297 11.6885 19.9297 12.1533C19.9297 13.5 18.9658 14.7236 17.2295 14.7236C16.9492 14.7236 16.6895 14.6895 16.4502 14.6348C15.999 14.7783 15.6982 15.0312 15.7051 15.3184C15.7119 15.5508 15.8213 15.7217 16.4434 15.8516L17.749 16.1182C19.0205 16.3779 19.6016 16.9727 19.6016 17.8955C19.6016 19.2285 17.9541 20.0625 16.3135 20.0625ZM16.0947 12.7549C16.0947 13.5205 16.4434 14.1836 17.2021 14.1836C18.1455 14.1836 18.6172 13.0215 18.6172 11.9824C18.6172 11.2168 18.2549 10.5469 17.5029 10.5469C16.5527 10.5469 16.0947 11.7158 16.0947 12.7549ZM14.4609 18.1895C14.4609 18.9209 15.2402 19.4199 16.4365 19.4199C17.4824 19.4199 18.4395 18.9756 18.4395 18.2031C18.4395 17.7109 18.0771 17.3281 17.2227 17.1709L15.9922 16.9316C15.958 16.9248 15.9238 16.918 15.8896 16.9111C14.9326 17.2256 14.4609 17.6357 14.4609 18.1895Z" fill="#131313"/>
</svg>
