<svg width="24" height="24" viewBox="0 0 24 24" fill="none" xmlns="http://www.w3.org/2000/svg">
<path d="M11.8154 15.1816C12.1982 16.248 12.4238 16.4805 13.1621 16.5967V17H8.89648V16.5967C9.83301 16.4668 9.99023 16.2002 9.63477 15.1475L9.11523 13.6094H5.88184L5.41699 15.0039C5.02734 16.1865 5.15039 16.4531 6.1416 16.5967V17H3.26367V16.5967C4.0293 16.4736 4.24121 16.2549 4.69922 14.9766L7.5498 7.12891H8.93066L11.8154 15.1816ZM6.05957 13.0762H8.93066L7.48145 8.81055L6.05957 13.0762ZM13.4424 12.3721C13.4424 10.9912 14.7959 10.0752 16.5664 10.0752C17.168 10.0752 17.7285 10.1846 18.1455 10.3486L20.5107 10.2051V10.8613L18.6787 10.7451C19.3076 11.0254 19.7109 11.6338 19.7109 12.3447C19.7109 13.7461 18.3027 14.5801 16.6143 14.5801C16.3545 14.5801 16.1084 14.5596 15.8076 14.5117C15.3018 14.6348 15.0352 14.8877 15.0352 15.2295C15.0352 15.6465 15.418 15.8652 16.1562 15.8652H17.4619C19.2666 15.8652 20.2305 16.5898 20.2305 17.8545C20.2305 19.3447 18.6514 20.3428 16.5938 20.3428C14.4678 20.3428 13.1758 19.6797 13.1758 18.6953C13.1758 17.9707 13.8867 17.4443 15.4521 17.3145C14.3105 17.2939 13.5107 16.7881 13.5107 15.9746C13.5176 15.1748 14.2285 14.6143 15.4248 14.4023C14.3037 14.1904 13.4424 13.4795 13.4424 12.3721ZM15.3223 12.2969C15.3223 13.3906 15.8418 14.0811 16.6143 14.0811C17.3662 14.0811 17.8516 13.4043 17.8516 12.3584C17.8516 11.2852 17.3662 10.5742 16.5596 10.5742C15.7734 10.5742 15.3223 11.2578 15.3223 12.2969ZM14.8027 18.5244C14.8027 19.2695 15.4795 19.8027 16.6348 19.8027C17.8311 19.8027 18.6377 19.2695 18.6377 18.4561C18.6377 17.7998 18.1865 17.4102 17.1543 17.4102H15.8965C15.1855 17.5059 14.8027 17.9229 14.8027 18.5244Z" fill="#131313"/>
</svg>
