<svg width="24" height="24" viewBox="0 0 24 24" fill="none" xmlns="http://www.w3.org/2000/svg">
<path d="M12.8555 15.0791C12.9922 16.1318 13.1562 16.2959 13.9561 16.3984L13.833 17H9.7793L9.90234 16.3984C10.9893 16.2617 11.1465 16.0703 11.0371 15.0654L10.8799 13.6709H7.66016L6.91504 15.0654C6.375 16.0771 6.45703 16.2617 7.46875 16.3984L7.3457 17H4.1875L4.31738 16.3984C5.20605 16.2959 5.39746 16.1318 6.00586 15.0381L10.4082 7.12891H11.8232L12.8555 15.0791ZM8.05664 12.9326H10.7979L10.3193 8.6875L8.05664 12.9326ZM16.8887 20.1035C15.166 20.1035 13.792 19.4951 13.792 18.3672C13.792 17.6562 14.5781 17.0684 15.7812 16.8359C15.2617 16.5967 15.0361 16.2207 15.0293 15.79C15.0156 15.168 15.5078 14.7236 16.4648 14.457C15.624 14.0947 15.1729 13.3701 15.1729 12.5361C15.1729 11.1416 16.2256 9.95898 18.0508 9.95215C18.7207 9.95215 19.2607 10.0957 19.6777 10.335L22.043 10.2461L21.8789 11.0801L20.3203 10.9092C20.5664 11.2578 20.6895 11.668 20.6895 12.1123C20.6895 13.4932 19.6436 14.71 17.8047 14.71C17.5039 14.71 17.2305 14.6826 16.9775 14.6211C16.5811 14.751 16.3076 14.9766 16.3145 15.2432C16.3213 15.4688 16.4512 15.6396 17.0732 15.7627L18.4062 16.0225C19.7256 16.2686 20.3682 16.8975 20.3682 17.8682C20.3682 19.249 18.6934 20.1035 16.8887 20.1035ZM16.7588 12.7139C16.7588 13.4453 17.0869 14.0605 17.7842 14.0605C18.666 14.0605 19.1104 12.96 19.1104 11.9551C19.1104 11.2168 18.7754 10.6016 18.085 10.6016C17.1963 10.6016 16.7588 11.7227 16.7588 12.7139ZM15.0977 18.1963C15.0977 18.8936 15.8359 19.3652 16.998 19.3652C18.0303 19.3652 18.9395 18.9482 18.9395 18.2305C18.9395 17.7656 18.5977 17.417 17.7227 17.2666L16.4512 17.0342C16.417 17.0273 16.3896 17.0205 16.3623 17.0137C15.5215 17.2939 15.0977 17.6836 15.0977 18.1963Z" fill="#131313"/>
</svg>
