<svg width="24" height="24" viewBox="0 0 24 24" fill="none" xmlns="http://www.w3.org/2000/svg">
<path d="M11.7539 15.0928C12.1436 16.1865 12.3691 16.4189 13.1006 16.542V17H8.45898V16.542C9.38867 16.4053 9.55273 16.1387 9.19043 15.0449L8.73926 13.6846H5.6084L5.19824 14.9355C4.81543 16.1318 4.93848 16.3916 5.91602 16.542V17H2.96973V16.542C3.72852 16.4121 3.94043 16.1934 4.39844 14.915L7.20117 7.12891H8.92383L11.7539 15.0928ZM5.80664 13.0762H8.53418L7.15332 8.94043L5.80664 13.0762ZM13.3535 12.3037C13.3535 10.9229 14.748 10 16.6553 10C17.3115 10 17.9268 10.1162 18.3779 10.2939L20.7842 10.1367V10.875L18.9521 10.7383C19.5947 11.0049 20.0117 11.6064 20.0117 12.2969C20.0117 13.6914 18.5557 14.5049 16.71 14.5049C16.4502 14.5049 16.1973 14.4844 15.9033 14.4434C15.4521 14.5596 15.1992 14.7852 15.1992 15.1064C15.1992 15.4961 15.5684 15.708 16.2998 15.708H17.5781C19.5127 15.708 20.5107 16.4873 20.5107 17.7998C20.5107 19.3105 18.877 20.3428 16.6689 20.3428C14.4199 20.3428 13.0869 19.6865 13.0869 18.7295C13.0869 18.0254 13.8252 17.5195 15.5205 17.417C14.2559 17.4033 13.3877 16.8564 13.3877 15.9883C13.3877 15.127 14.167 14.5254 15.4863 14.3271C14.29 14.1357 13.3535 13.4248 13.3535 12.3037ZM15.5615 12.2148C15.5615 13.2812 16.0195 13.9375 16.71 13.9375C17.4072 13.9375 17.8242 13.2881 17.8242 12.2832C17.8242 11.2305 17.3867 10.5674 16.6621 10.5674C15.9512 10.5674 15.5615 11.2168 15.5615 12.2148ZM15.0078 18.5518C15.0078 19.249 15.6436 19.7344 16.7236 19.7344C17.8584 19.7344 18.6035 19.2354 18.6035 18.4902C18.6035 17.8818 18.1729 17.5195 17.2021 17.5195H16.0469C15.377 17.5947 15.0078 17.9775 15.0078 18.5518Z" fill="#131313"/>
</svg>
