<svg width="24" height="24" viewBox="0 0 24 24" fill="none" xmlns="http://www.w3.org/2000/svg">
<path d="M8.32971 7.53624C8.43238 7.33091 8.54438 7.18157 8.66571 7.08824C8.79638 6.99491 8.94104 6.94824 9.09971 6.94824C9.28638 6.94824 9.42638 6.98557 9.51971 7.06024C9.61304 7.13491 9.65971 7.22824 9.65971 7.34024C9.65971 7.42424 9.62238 7.52224 9.54771 7.63424L11.1857 17.0002H10.1917L9.74371 14.2982H5.79571L4.39571 17.0002H3.33171L8.32971 7.53624ZM9.63171 13.4862L8.84771 8.30624L6.21571 13.4862H9.63171ZM14.2159 20.0522C13.8613 20.0522 13.5113 20.0102 13.1659 19.9262C12.8206 19.8515 12.5219 19.7535 12.2699 19.6322L12.7039 18.8762C12.8999 18.9789 13.1426 19.0629 13.4319 19.1282C13.7306 19.1935 14.0433 19.2262 14.3699 19.2262C15.2659 19.2262 15.9239 18.9975 16.3439 18.5402C16.7639 18.0922 17.0486 17.4435 17.1979 16.5942L17.3379 15.7962C17.0299 16.1695 16.6659 16.4635 16.2459 16.6782C15.8353 16.8929 15.3826 17.0002 14.8879 17.0002C14.1133 17.0002 13.5113 16.7669 13.0819 16.3002C12.6619 15.8242 12.4519 15.1989 12.4519 14.4242C12.4519 13.5842 12.6013 12.8329 12.8999 12.1702C13.2079 11.5075 13.6373 10.9895 14.1879 10.6162C14.7479 10.2429 15.3826 10.0562 16.0919 10.0562C17.0719 10.0562 17.7719 10.4762 18.1919 11.3162C18.2479 11.0455 18.3366 10.7935 18.4579 10.5602C18.5793 10.3175 18.6959 10.1449 18.8079 10.0422L19.5779 10.3782C19.4286 10.5742 19.3073 10.7889 19.2139 11.0222C19.1206 11.2555 19.0413 11.5589 18.9759 11.9322L18.1359 16.7062C17.7346 18.9369 16.4279 20.0522 14.2159 20.0522ZM15.0979 16.1742C15.5366 16.1742 15.9426 16.0622 16.3159 15.8382C16.6893 15.6049 16.9926 15.3062 17.2259 14.9422C17.4686 14.5782 17.6273 14.2002 17.7019 13.8082L17.7999 13.2342C17.8279 13.0755 17.8419 12.9169 17.8419 12.7582C17.8419 12.2262 17.6833 11.7829 17.3659 11.4282C17.0486 11.0642 16.6006 10.8822 16.0219 10.8822C15.5179 10.8822 15.0699 11.0269 14.6779 11.3162C14.2859 11.6055 13.9779 12.0162 13.7539 12.5482C13.5393 13.0709 13.4319 13.6682 13.4319 14.3402C13.4319 14.9095 13.5579 15.3575 13.8099 15.6842C14.0619 16.0109 14.4913 16.1742 15.0979 16.1742Z" fill="#131313"/>
</svg>
