<svg width="24" height="24" viewBox="0 0 24 24" fill="none" xmlns="http://www.w3.org/2000/svg">
<path d="M8.97168 5.85742L12.6973 17H9.97656L9.2041 14.5527H5.90918L5.13672 17H2.41602L6.08691 5.85742H8.97168ZM6.25781 13.3018H8.97168L7.60449 9.19336L6.25781 13.3018ZM16.9082 19.167C17.4414 19.167 17.8652 19.1374 18.1797 19.0781C18.4941 19.0234 18.7311 18.9437 18.8906 18.8389C19.0501 18.7386 19.1527 18.6178 19.1982 18.4766C19.2438 18.3353 19.2666 18.1781 19.2666 18.0049C19.2666 17.8089 19.2324 17.6517 19.1641 17.5332C19.0957 17.4147 18.9613 17.3167 18.7607 17.2393C18.5648 17.1618 18.2891 17.0957 17.9336 17.041C17.5781 16.9863 17.1133 16.9271 16.5391 16.8633C16.4251 16.8997 16.2998 16.9727 16.1631 17.082C16.0264 17.1914 15.8988 17.3145 15.7803 17.4512C15.6663 17.5924 15.5706 17.7383 15.4932 17.8887C15.4157 18.0391 15.377 18.1735 15.377 18.292C15.377 18.5107 15.4271 18.6794 15.5273 18.7979C15.6276 18.9163 15.7529 19.0029 15.9033 19.0576C16.0583 19.1123 16.2246 19.1442 16.4023 19.1533C16.5846 19.1624 16.7533 19.167 16.9082 19.167ZM17.6055 12.6455C17.7012 12.6364 17.8037 12.5931 17.9131 12.5156C18.0225 12.4336 18.125 12.3333 18.2207 12.2148C18.3164 12.0918 18.3939 11.9551 18.4531 11.8047C18.5169 11.6543 18.5488 11.5062 18.5488 11.3604C18.5488 10.9867 18.4486 10.7132 18.248 10.54C18.0475 10.3623 17.7422 10.2734 17.332 10.2734C17.1133 10.2734 16.9219 10.2939 16.7578 10.335C16.5983 10.3714 16.4661 10.4352 16.3613 10.5264C16.2611 10.613 16.1859 10.7314 16.1357 10.8818C16.0856 11.0277 16.0605 11.2122 16.0605 11.4355C16.0605 11.709 16.1107 11.9574 16.2109 12.1807C16.3112 12.3994 16.4844 12.5749 16.7305 12.707L17.6055 12.6455ZM20.2305 10.2051C20.5267 10.6562 20.6748 11.0072 20.6748 11.2578C20.6748 11.4447 20.6566 11.6383 20.6201 11.8389C20.5882 12.0394 20.529 12.2376 20.4424 12.4336C20.3558 12.6296 20.2396 12.8187 20.0938 13.001C19.9525 13.1787 19.7725 13.3405 19.5537 13.4863C19.3395 13.6322 19.0843 13.7552 18.7881 13.8555C18.4919 13.9557 18.1478 14.0241 17.7559 14.0605L15.6436 14.2383L15.7666 15.0723L17.6465 15.2227C18.2936 15.2819 18.8587 15.3799 19.3418 15.5166C19.8294 15.6488 20.235 15.8288 20.5586 16.0566C20.8822 16.2845 21.1237 16.5648 21.2832 16.8975C21.4473 17.2301 21.5293 17.6221 21.5293 18.0732C21.5293 19.0394 21.1533 19.7754 20.4014 20.2812C19.654 20.7871 18.5124 21.04 16.9766 21.04C16.3066 21.04 15.7393 20.9922 15.2744 20.8965C14.8141 20.8008 14.4404 20.6504 14.1533 20.4453C13.8662 20.2402 13.6589 19.9782 13.5312 19.6592C13.4036 19.3402 13.3398 18.9596 13.3398 18.5176C13.3398 18.3171 13.374 18.1211 13.4424 17.9297C13.5153 17.7383 13.6156 17.5537 13.7432 17.376C13.8753 17.2028 14.0303 17.041 14.208 16.8906C14.3903 16.7357 14.5908 16.599 14.8096 16.4805C14.3812 16.444 14.0599 16.2845 13.8457 16.002C13.6361 15.7194 13.5312 15.3252 13.5312 14.8193C13.5312 14.5732 13.5632 14.3636 13.627 14.1904C13.6953 14.0173 13.8024 13.8669 13.9482 13.7393C14.0941 13.6071 14.2855 13.4932 14.5225 13.3975C14.764 13.2972 15.0602 13.2038 15.4111 13.1172C15.165 13.1126 14.9395 13.0762 14.7344 13.0078C14.5339 12.9349 14.3607 12.8278 14.2148 12.6865C14.069 12.5452 13.9551 12.3721 13.873 12.167C13.7956 11.9619 13.7568 11.7249 13.7568 11.4561C13.7568 11.0049 13.8343 10.5993 13.9893 10.2393C14.1488 9.87923 14.3721 9.57389 14.6592 9.32324C14.9508 9.07259 15.2995 8.88118 15.7051 8.74902C16.1152 8.61686 16.571 8.55078 17.0723 8.55078C17.5827 8.55078 18.0179 8.58724 18.3779 8.66016C18.7425 8.72852 19.0365 8.82878 19.2598 8.96094C19.6152 8.80143 19.9867 8.69434 20.374 8.63965C20.766 8.5804 21.1784 8.55078 21.6113 8.55078H21.9805V10.2051H20.2305Z" fill="#131313"/>
</svg>
