<svg width="24" height="24" viewBox="0 0 24 24" fill="none" xmlns="http://www.w3.org/2000/svg">
<path d="M3.36621 17L7.26953 6.96484H8.4043L12.3008 17H10.9951L9.79199 13.9033H5.82715L4.6377 17H3.36621ZM7.38574 9.76074L6.25098 12.7891H9.41602L8.29492 9.76074C8.28125 9.72428 8.26302 9.67415 8.24023 9.61035C8.21745 9.54199 8.1901 9.45768 8.1582 9.35742C8.09896 9.17513 8.03516 8.97689 7.9668 8.7627C7.90299 8.5485 7.85286 8.38216 7.81641 8.26367C7.74349 8.55534 7.66602 8.83789 7.58398 9.11133C7.50651 9.38477 7.44043 9.60124 7.38574 9.76074ZM15.8691 9.35742C16.8763 9.35742 17.6602 9.73568 18.2207 10.4922H18.2891L18.4531 9.49414H19.4375V17.123C19.4375 18.1986 19.1641 19.0075 18.6172 19.5498C18.0703 20.0921 17.2227 20.3633 16.0742 20.3633C14.9714 20.3633 14.0713 20.2038 13.374 19.8848V18.75C14.1169 19.1419 15.042 19.3379 16.1494 19.3379C16.792 19.3379 17.2979 19.1488 17.667 18.7705C18.0361 18.3923 18.2207 17.8773 18.2207 17.2256V16.9316C18.2207 16.8177 18.2253 16.6559 18.2344 16.4463C18.2435 16.2367 18.2526 16.0908 18.2617 16.0088H18.207C17.7012 16.7607 16.9264 17.1367 15.8828 17.1367C14.9121 17.1367 14.1533 16.7972 13.6064 16.1182C13.0596 15.4346 12.7861 14.4821 12.7861 13.2607C12.7861 12.4632 12.9092 11.7728 13.1553 11.1895C13.4014 10.6061 13.7546 10.1549 14.2148 9.83594C14.6797 9.51693 15.2311 9.35742 15.8691 9.35742ZM16.0332 10.3896C15.4089 10.3896 14.9235 10.6403 14.5771 11.1416C14.2308 11.6383 14.0576 12.3493 14.0576 13.2744C14.0576 14.1995 14.2262 14.9082 14.5635 15.4004C14.9007 15.888 15.3997 16.1318 16.0605 16.1318C16.8171 16.1318 17.3685 15.929 17.7148 15.5234C18.0612 15.1178 18.2344 14.4616 18.2344 13.5547V13.2607C18.2344 12.2445 18.0566 11.513 17.7012 11.0664C17.3457 10.6152 16.7897 10.3896 16.0332 10.3896Z" fill="#131313"/>
</svg>
