<svg width="24" height="24" viewBox="0 0 24 24" fill="none" xmlns="http://www.w3.org/2000/svg">
<path d="M1.95898 16.375L1.97656 17.3066C1.97656 17.4941 1.94727 17.6348 1.88867 17.7285C1.83008 17.8262 1.75977 17.875 1.67773 17.875C1.51367 17.875 1.43164 17.7168 1.43164 17.4004C1.43164 17.084 1.4707 16.7324 1.54883 16.3457C1.62695 15.9629 1.69531 15.6992 1.75391 15.5547L4.56641 8.63477C4.60547 8.5332 4.625 8.43359 4.625 8.33594C4.625 8.23828 4.5918 8.14258 4.52539 8.04883L4.68945 7.94336C4.80273 8.11133 4.97852 8.19531 5.2168 8.19531H7.91211C8.14648 8.19531 8.32031 8.11133 8.43359 7.94336L8.60352 8.04883C8.53711 8.14258 8.50391 8.23242 8.50391 8.31836C8.50391 8.4043 8.52734 8.50781 8.57422 8.62891L11.4688 15.5605C11.5586 15.7793 11.6973 15.9512 11.8848 16.0762L11.8145 16.1875C11.623 16.0625 11.4102 16 11.1758 16H10.0273C10.0352 16.0859 10.0391 16.1465 10.0391 16.1816C10.0391 16.3105 9.98633 16.375 9.88086 16.375C9.83398 16.375 9.79102 16.3555 9.75195 16.3164C9.7168 16.2812 9.69922 16.2285 9.69922 16.1582C9.69922 16.0918 9.70312 16.0391 9.71094 16H9.00195C8.83008 16 8.71875 16.0938 8.66797 16.2812C8.60547 16.5117 8.57422 16.7754 8.57422 17.0723C8.57422 17.373 8.59375 17.6465 8.63281 17.8926C8.67188 18.1387 8.69141 18.3066 8.69141 18.3965C8.69141 18.4902 8.66797 18.5645 8.62109 18.6191C8.57812 18.6777 8.52344 18.707 8.45703 18.707C8.39062 18.707 8.33398 18.6797 8.28711 18.625C8.24023 18.5703 8.2168 18.4941 8.2168 18.3965C8.2168 18.2988 8.24023 18.1094 8.28711 17.8281C8.33789 17.5469 8.36328 17.3359 8.36328 17.1953V15.5488C8.32422 15.4434 8.30469 15.3457 8.30469 15.2559C8.30469 15.166 8.33984 15.0703 8.41016 14.9688L8.25781 14.8574C8.14062 15.0254 7.96484 15.1094 7.73047 15.1094H5.32227C5.08789 15.1094 4.91211 15.0273 4.79492 14.8633L4.64258 14.9688C4.7168 15.0742 4.75391 15.1719 4.75391 15.2617C4.75391 15.3516 4.74023 15.4473 4.71289 15.5488V15.5547C4.67773 15.6875 4.66016 15.7891 4.66016 15.8594C4.66016 15.9297 4.69922 16.0215 4.77734 16.1348L4.625 16.2461C4.50781 16.082 4.33203 16 4.09766 16H1.97656C1.96484 16.0742 1.95898 16.1992 1.95898 16.375ZM5.92578 13.4863H7.04492C7.2793 13.4863 7.49023 13.5488 7.67773 13.6738L7.75391 13.5625C7.57031 13.4375 7.4375 13.2637 7.35547 13.041L6.61133 11.1367C6.52539 10.9141 6.48047 10.6875 6.47656 10.457H6.40039C6.39258 10.7148 6.35352 10.9414 6.2832 11.1367L5.60938 13.0352C5.52734 13.2617 5.39648 13.4375 5.2168 13.5625L5.29297 13.6797C5.47656 13.5508 5.6875 13.4863 5.92578 13.4863ZM9.72852 17.9395C9.72852 17.6699 9.7793 17.332 9.88086 16.9258C9.99414 17.3945 10.0508 17.6992 10.0508 17.8398C10.0508 18.0469 9.99609 18.1504 9.88672 18.1504C9.78125 18.1504 9.72852 18.0801 9.72852 17.9395ZM19.7539 14.1836C19.6055 14.0664 19.5312 13.9297 19.5312 13.7734V13.7266C19.5312 13.5703 19.6016 13.4219 19.7422 13.2812L19.6602 13.2051C19.5195 13.3457 19.373 13.416 19.2207 13.416H18.6523C18.4141 13.416 18.2188 13.4922 18.0664 13.6445L17.9434 13.5215C18.0996 13.3652 18.1777 13.1719 18.1777 12.9414V12.0742C18.1777 11.8398 18.0996 11.6445 17.9434 11.4883L18.0664 11.3711C18.2148 11.5195 18.4102 11.5938 18.6523 11.5938H22.25C22.4922 11.5938 22.6875 11.5195 22.8359 11.3711L22.9473 11.4883C22.7988 11.6367 22.7246 11.832 22.7246 12.0742V14.5293C22.7246 14.6504 22.7402 14.748 22.7715 14.8223C22.8066 14.8926 22.875 14.9551 22.9766 15.0098L22.8828 15.1797C22.8125 15.1445 22.7324 15.127 22.6426 15.127C22.5566 15.127 22.457 15.1641 22.3438 15.2383C21.4375 15.8438 20.1484 16.1836 18.4766 16.2578V16.8203L18.5703 17.4707C18.5703 17.5645 18.5508 17.6367 18.5117 17.6875C18.4727 17.7383 18.4277 17.7637 18.377 17.7637C18.3301 17.7637 18.2871 17.7402 18.248 17.6934C18.209 17.6465 18.1895 17.5996 18.1895 17.5527C18.1895 17.5098 18.1973 17.4492 18.2129 17.3711C18.2598 17.1289 18.2832 16.8828 18.2832 16.6328C18.2832 16.3828 18.2656 16.2578 18.2305 16.2578C17.4648 16.2578 16.6602 16.2051 15.8164 16.0996C15.7812 16.0879 15.7637 16.2969 15.7637 16.7266C15.7637 17.1562 15.7988 17.5996 15.8691 18.0566C15.9434 18.5137 15.9805 18.832 15.9805 19.0117C15.9805 19.375 15.8691 19.5566 15.6465 19.5566C15.541 19.5566 15.4492 19.5156 15.3711 19.4336C15.2969 19.3516 15.2598 19.2188 15.2598 19.0352C15.2598 18.8555 15.3242 18.5312 15.4531 18.0625C15.582 17.5977 15.6465 17.2344 15.6465 16.9727V16.0586C13.416 15.5586 12.3008 14.2129 12.3008 12.0215C12.3008 10.3535 12.9883 9.1875 14.3633 8.52344C15.1562 8.13672 16.125 7.94336 17.2695 7.94336C19.1172 7.94336 20.5352 8.30469 21.5234 9.02734C22.0586 9.41797 22.4004 9.86328 22.5488 10.3633C22.6191 10.5977 22.7441 10.7773 22.9238 10.9023L22.8359 11.0195C22.6758 10.9023 22.4648 10.8438 22.2031 10.8438L19.7305 10.9258C19.4844 10.9414 19.3184 11.0352 19.2324 11.207L19.0391 11.1133C19.0703 11.0469 19.0859 10.9707 19.0859 10.8848C19.0859 10.7988 19.0195 10.668 18.8867 10.4922C18.7539 10.3125 18.5703 10.1777 18.3359 10.0879C18.1055 9.99414 17.7988 9.94727 17.416 9.94727C17.0371 9.94727 16.7285 10.002 16.4902 10.1113C16.252 10.2207 16.0625 10.3711 15.9219 10.5625C15.6484 10.9492 15.5117 11.4609 15.5117 12.0977C15.5117 12.7344 15.7148 13.2598 16.1211 13.6738C16.5312 14.084 17.0664 14.2891 17.7266 14.2891C18.3867 14.2891 18.8887 14.2461 19.2324 14.1602C19.2949 14.1445 19.3555 14.1367 19.4141 14.1367C19.4727 14.1367 19.5625 14.1836 19.6836 14.2773L19.7539 14.1836Z" fill="#131313"/>
</svg>
