<svg width="24" height="24" viewBox="0 0 24 24" fill="none" xmlns="http://www.w3.org/2000/svg">
<path d="M12.1865 16.2822L12.9521 16.4189L12.8359 17H9.98535L9.93066 16.4189L10.8945 16.2822L10.457 14.0879H7.20312L6.12988 16.2822L7.10059 16.4189L6.98438 17H4.42773L4.37305 16.4189L5.13184 16.2822L9.38379 7.75098H10.4023L12.1865 16.2822ZM9.46582 9.45312L7.53125 13.4111H10.3203L9.53418 9.45312H9.46582ZM13.4307 18.6885C13.973 18.889 14.5107 19.0485 15.0439 19.167C15.5817 19.29 16.0329 19.3516 16.3975 19.3516C16.8076 19.1146 17.1517 18.7386 17.4297 18.2236C17.7122 17.7087 17.9014 17.098 17.9971 16.3916L18.1406 15.3252C17.7624 15.8949 17.3477 16.3415 16.8965 16.665C16.4499 16.9886 15.9964 17.1504 15.5361 17.1504C14.7432 17.1504 14.2236 16.9225 13.9775 16.4668C13.7314 16.0111 13.6722 15.3389 13.7998 14.4502L13.9775 13.165C14.137 12.0439 14.5335 11.1416 15.167 10.458C15.805 9.77441 16.5934 9.43262 17.5322 9.43262C17.9196 9.43262 18.3457 9.48275 18.8105 9.58301C19.2754 9.68327 19.7129 9.81087 20.123 9.96582L19.2617 16.1182C19.0794 17.4307 18.6602 18.4264 18.0039 19.1055C17.3522 19.7845 16.5342 20.124 15.5498 20.124C15.126 20.124 14.6999 20.0762 14.2715 19.9805C13.8477 19.8848 13.4922 19.7731 13.2051 19.6455L13.4307 18.6885ZM15.1123 13.8486C14.9756 14.8057 14.9733 15.4733 15.1055 15.8516C15.2376 16.2253 15.5133 16.4121 15.9326 16.4121C16.2972 16.4121 16.6846 16.2389 17.0947 15.8926C17.5049 15.5417 17.8945 15.0632 18.2637 14.457L18.8516 10.2324C18.6693 10.1686 18.4551 10.1162 18.209 10.0752C17.9629 10.0296 17.7236 10.0068 17.4912 10.0068C17.236 10.0068 16.9854 10.0387 16.7393 10.1025C16.4932 10.1663 16.2812 10.2484 16.1035 10.3486C15.9076 10.6631 15.7321 11.0573 15.5771 11.5312C15.4222 12.0052 15.3105 12.4792 15.2422 12.9531L15.1123 13.8486Z" fill="#131313"/>
</svg>
