<svg width="24" height="24" viewBox="0 0 24 24" fill="none" xmlns="http://www.w3.org/2000/svg">
<path d="M3.49757 16.9996L8.03357 6.97559H11.1556L11.5196 16.9996H8.98557L9.01357 15.0816H6.89957L6.11557 16.9996H3.49757ZM7.72557 13.0096H9.06957L9.12557 10.3356C9.12557 10.1116 9.12557 9.89226 9.12557 9.67759C9.1349 9.45359 9.15357 9.22026 9.18157 8.97759H9.13957C9.0929 9.21092 9.0369 9.43492 8.97157 9.64959C8.90624 9.85492 8.83157 10.0696 8.74757 10.2936L7.72557 13.0096ZM14.4623 20.3596C13.977 20.3596 13.5383 20.3129 13.1463 20.2196C12.7636 20.1356 12.4276 20.0283 12.1383 19.8976V17.8676C12.3343 17.9703 12.5583 18.0636 12.8103 18.1476C13.0623 18.2409 13.3236 18.3156 13.5943 18.3716C13.8743 18.4276 14.1403 18.4556 14.3923 18.4556C14.775 18.4556 15.069 18.3576 15.2743 18.1616C15.489 17.9656 15.6336 17.7136 15.7083 17.4056L15.7783 17.1536C15.797 17.0696 15.8156 16.9856 15.8343 16.9016C15.853 16.8083 15.8763 16.7149 15.9043 16.6216C15.9416 16.5189 15.9743 16.4163 16.0023 16.3136H15.9603C15.811 16.5003 15.657 16.6543 15.4983 16.7756C15.349 16.8969 15.181 16.9809 14.9943 17.0276C14.817 17.0836 14.6116 17.1116 14.3783 17.1116C14.0423 17.1116 13.7436 17.0276 13.4823 16.8596C13.221 16.6823 13.0156 16.4163 12.8663 16.0616C12.7263 15.6976 12.6563 15.2496 12.6563 14.7176C12.6563 14.3163 12.6983 13.8683 12.7823 13.3736C12.8663 12.8789 12.9923 12.3843 13.1603 11.8896C13.3376 11.3856 13.5523 10.9236 13.8043 10.5036C14.0656 10.0836 14.369 9.74759 14.7143 9.49559C15.069 9.24359 15.4656 9.11759 15.9043 9.11759C16.175 9.11759 16.399 9.15492 16.5763 9.22959C16.763 9.29492 16.9216 9.40692 17.0523 9.56559C17.183 9.72426 17.2996 9.93426 17.4023 10.1956H17.4303L17.7663 9.25759H19.7823L18.0603 17.3496C17.9016 18.0776 17.6543 18.6609 17.3183 19.0996C16.9916 19.5476 16.5856 19.8696 16.1003 20.0656C15.6243 20.2616 15.0783 20.3596 14.4623 20.3596ZM15.5123 15.1376C15.6523 15.1376 15.7783 15.0816 15.8903 14.9696C16.0116 14.8576 16.119 14.7036 16.2123 14.5076C16.315 14.3116 16.4036 14.0969 16.4783 13.8636C16.553 13.6303 16.6136 13.3876 16.6603 13.1356C16.7163 12.8836 16.7583 12.6456 16.7863 12.4216C16.8143 12.1976 16.8283 12.0016 16.8283 11.8336C16.8283 11.6096 16.7863 11.4369 16.7023 11.3156C16.6276 11.1849 16.511 11.1196 16.3523 11.1196C16.1936 11.1196 16.049 11.2036 15.9183 11.3716C15.7876 11.5303 15.671 11.7356 15.5683 11.9876C15.475 12.2396 15.391 12.5149 15.3163 12.8136C15.2416 13.1029 15.1856 13.3829 15.1483 13.6536C15.1203 13.9149 15.1063 14.1343 15.1063 14.3116C15.1063 14.5823 15.139 14.7876 15.2043 14.9276C15.2696 15.0676 15.3723 15.1376 15.5123 15.1376Z" fill="#131313"/>
</svg>
