<svg width="24" height="24" viewBox="0 0 24 24" fill="none" xmlns="http://www.w3.org/2000/svg">
<path d="M10.3809 17.0009L9.76491 14.8589H6.30691L5.69091 17.0009H3.08691L6.48891 6.96289H9.54091L12.9849 17.0009H10.3809ZM8.64491 10.8689C8.59825 10.7009 8.53291 10.4769 8.44891 10.1969C8.37425 9.90756 8.29491 9.61356 8.21091 9.31489C8.13625 9.01622 8.07558 8.76422 8.02891 8.55889C7.99158 8.76422 7.93091 9.02089 7.84691 9.32889C7.77225 9.62756 7.69758 9.92156 7.62291 10.2109C7.54825 10.4909 7.48758 10.7102 7.44091 10.8689L6.85291 12.8709H9.23291L8.64491 10.8689ZM16.4714 9.17489C16.9754 9.17489 17.4047 9.27289 17.7594 9.46889C18.114 9.66489 18.408 9.93556 18.6414 10.2809H18.6974L18.8794 9.31489H20.8954V17.0149C20.8954 17.7429 20.7507 18.3542 20.4614 18.8489C20.172 19.3436 19.7334 19.7169 19.1454 19.9689C18.5574 20.2302 17.82 20.3609 16.9334 20.3609C16.3547 20.3609 15.8274 20.3282 15.3514 20.2629C14.8847 20.1976 14.432 20.0809 13.9934 19.9129V17.9949C14.46 18.1909 14.9267 18.3356 15.3934 18.4289C15.86 18.5316 16.3734 18.5829 16.9334 18.5829C17.4747 18.5829 17.876 18.4569 18.1374 18.2049C18.408 17.9622 18.5434 17.5982 18.5434 17.1129V16.9589C18.5434 16.8189 18.548 16.6649 18.5574 16.4969C18.576 16.3289 18.5947 16.1656 18.6134 16.0069H18.5434C18.3194 16.3709 18.0347 16.6509 17.6894 16.8469C17.344 17.0429 16.924 17.1409 16.4294 17.1409C15.5614 17.1409 14.8707 16.7956 14.3574 16.1049C13.8534 15.4142 13.6014 14.4342 13.6014 13.1649C13.6014 11.8862 13.8627 10.9016 14.3854 10.2109C14.908 9.52022 15.6034 9.17489 16.4714 9.17489ZM17.2974 11.0369C17.008 11.0369 16.7654 11.1209 16.5694 11.2889C16.3734 11.4476 16.2287 11.6856 16.1354 12.0029C16.042 12.3202 15.9954 12.7216 15.9954 13.2069C15.9954 13.9256 16.1027 14.4576 16.3174 14.8029C16.532 15.1389 16.868 15.3069 17.3254 15.3069C17.5774 15.3069 17.7874 15.2742 17.9554 15.2089C18.1327 15.1342 18.2727 15.0222 18.3754 14.8729C18.4874 14.7142 18.5714 14.5182 18.6274 14.2849C18.6834 14.0516 18.7114 13.7716 18.7114 13.4449V13.1509C18.7114 12.6749 18.6647 12.2829 18.5714 11.9749C18.478 11.6576 18.3287 11.4242 18.1234 11.2749C17.918 11.1162 17.6427 11.0369 17.2974 11.0369Z" fill="#131313"/>
</svg>
