<svg width="24" height="24" viewBox="0 0 24 24" fill="none" xmlns="http://www.w3.org/2000/svg">
<path d="M3.41504 16.9999L7.08304 6.96191H9.14104L12.809 16.9999H10.891L9.95304 14.3679H6.25704L5.33304 16.9999H3.41504ZM6.73304 12.8279H9.50504L8.65104 10.3359C8.61371 10.2239 8.55771 10.0466 8.48304 9.80391C8.40837 9.55191 8.33371 9.29524 8.25904 9.03391C8.19371 8.76324 8.14237 8.54858 8.10504 8.38991C8.05837 8.59524 8.00237 8.82391 7.93704 9.07591C7.88104 9.31858 7.82037 9.55191 7.75504 9.77591C7.69904 9.99058 7.64771 10.1772 7.60104 10.3359L6.73304 12.8279ZM16.8393 20.3599C16.27 20.3599 15.752 20.3226 15.2853 20.2479C14.828 20.1732 14.4033 20.0566 14.0113 19.8979V18.3439C14.4126 18.5399 14.8373 18.6846 15.2853 18.7779C15.7426 18.8806 16.256 18.9319 16.8253 18.9319C17.432 18.9319 17.8986 18.7779 18.2253 18.4699C18.552 18.1619 18.7153 17.7326 18.7153 17.1819V16.9579C18.7153 16.8366 18.72 16.6826 18.7293 16.4959C18.748 16.2999 18.762 16.1366 18.7713 16.0059H18.7153C18.482 16.3606 18.1833 16.6406 17.8193 16.8459C17.4553 17.0419 17.012 17.1399 16.4893 17.1399C15.5746 17.1399 14.8513 16.7992 14.3193 16.1179C13.7873 15.4366 13.5213 14.4706 13.5213 13.2199C13.5213 11.9786 13.7873 11.0126 14.3193 10.3219C14.8606 9.62191 15.5886 9.27191 16.5033 9.27191C17.0166 9.27191 17.4553 9.36991 17.8193 9.56591C18.1926 9.75258 18.5053 10.0232 18.7573 10.3779H18.8273L19.0093 9.41191H20.4933V17.0839C20.4933 17.8026 20.358 18.4046 20.0873 18.8899C19.826 19.3752 19.4246 19.7392 18.8833 19.9819C18.3513 20.2339 17.67 20.3599 16.8393 20.3599ZM17.0213 15.7259C17.3386 15.7259 17.6093 15.6839 17.8333 15.5999C18.0573 15.5066 18.2393 15.3712 18.3793 15.1939C18.5286 15.0072 18.636 14.7739 18.7013 14.4939C18.776 14.2139 18.8133 13.8826 18.8133 13.4999V13.1919C18.8133 12.6226 18.7526 12.1559 18.6313 11.7919C18.51 11.4186 18.314 11.1432 18.0433 10.9659C17.7726 10.7886 17.4226 10.6999 16.9933 10.6999C16.4613 10.6999 16.0506 10.9192 15.7613 11.3579C15.4813 11.7872 15.3413 12.4126 15.3413 13.2339C15.3413 14.0646 15.4813 14.6899 15.7613 15.1099C16.0506 15.5206 16.4706 15.7259 17.0213 15.7259Z" fill="#131313"/>
</svg>
