<svg width="24" height="24" viewBox="0 0 24 24" fill="none" xmlns="http://www.w3.org/2000/svg">
<path d="M2.41 16.9999L7.576 7.00391H10.544L11.468 16.9999H9.172L9.06 14.8579H5.896L4.874 16.9999H2.41ZM6.806 12.9119H8.962L8.822 10.1959C8.80333 9.95324 8.78933 9.70591 8.78 9.45391C8.77067 9.20191 8.77067 8.94991 8.78 8.69791H8.738C8.66333 8.93124 8.57467 9.15991 8.472 9.38391C8.37867 9.60791 8.27133 9.85058 8.15 10.1119L6.806 12.9119ZM15.0295 20.3599C14.4601 20.3599 13.9841 20.3132 13.6015 20.2199C13.2281 20.1359 12.8735 20.0286 12.5375 19.8979V17.9239C12.7801 18.0452 13.0275 18.1479 13.2795 18.2319C13.5408 18.3252 13.8068 18.3952 14.0775 18.4419C14.3575 18.4886 14.6421 18.5119 14.9315 18.5119C15.3888 18.5119 15.7575 18.4046 16.0375 18.1899C16.3175 17.9846 16.5088 17.6812 16.6115 17.2799L16.6675 17.0279C16.6955 16.9346 16.7235 16.8319 16.7515 16.7199C16.7795 16.6079 16.8121 16.5006 16.8495 16.3979C16.8868 16.2859 16.9148 16.1879 16.9335 16.1039H16.8775C16.7375 16.2812 16.5788 16.4492 16.4015 16.6079C16.2335 16.7572 16.0328 16.8786 15.7995 16.9719C15.5755 17.0652 15.3095 17.1119 15.0015 17.1119C14.6281 17.1119 14.2828 17.0186 13.9655 16.8319C13.6575 16.6359 13.4101 16.3326 13.2235 15.9219C13.0461 15.5112 12.9575 14.9699 12.9575 14.2979C12.9575 13.8499 13.0041 13.3879 13.0975 12.9119C13.2001 12.4359 13.3448 11.9786 13.5315 11.5399C13.7275 11.0919 13.9655 10.6906 14.2455 10.3359C14.5255 9.98124 14.8475 9.70124 15.2115 9.49591C15.5755 9.28124 15.9768 9.17391 16.4155 9.17391C16.7328 9.17391 16.9988 9.21591 17.2135 9.29991C17.4375 9.38391 17.6335 9.50524 17.8015 9.66391C17.9695 9.82258 18.1328 10.0279 18.2915 10.2799H18.3475L18.7255 9.31391H20.5595L18.8795 17.1819C18.7115 17.9846 18.4408 18.6146 18.0675 19.0719C17.7035 19.5386 17.2648 19.8699 16.7515 20.0659C16.2381 20.2619 15.6641 20.3599 15.0295 20.3599ZM16.1075 15.2639C16.2848 15.2639 16.4435 15.2172 16.5835 15.1239C16.7235 15.0306 16.8495 14.9046 16.9615 14.7459C17.0828 14.5779 17.1901 14.3912 17.2835 14.1859C17.3768 13.9806 17.4515 13.7612 17.5075 13.5279C17.5635 13.2946 17.6055 13.0612 17.6335 12.8279C17.6708 12.5852 17.6895 12.3612 17.6895 12.1559C17.6895 11.8199 17.6241 11.5539 17.4935 11.3579C17.3628 11.1526 17.1761 11.0499 16.9335 11.0499C16.7561 11.0499 16.5835 11.1106 16.4155 11.2319C16.2568 11.3532 16.1121 11.5166 15.9815 11.7219C15.8508 11.9272 15.7341 12.1606 15.6315 12.4219C15.5381 12.6832 15.4635 12.9632 15.4075 13.2619C15.3515 13.5606 15.3235 13.8592 15.3235 14.1579C15.3235 14.5219 15.3935 14.7972 15.5335 14.9839C15.6735 15.1706 15.8648 15.2639 16.1075 15.2639Z" fill="#131313"/>
</svg>
