<svg width="24" height="24" viewBox="0 0 24 24" fill="none" xmlns="http://www.w3.org/2000/svg">
<path d="M3.29786 16.9999V16.8599H3.77386C3.95119 16.8599 4.10053 16.8319 4.22186 16.7759C4.34319 16.7106 4.45053 16.6032 4.54386 16.4539C4.63719 16.2952 4.72586 16.0806 4.80986 15.8099L7.66586 7.00391H8.82786L11.8519 16.0199C11.9265 16.2346 12.0012 16.4026 12.0759 16.5239C12.1599 16.6452 12.2532 16.7339 12.3559 16.7899C12.4585 16.8366 12.5892 16.8599 12.7479 16.8599H12.8459V16.9999H8.81386V16.8599H9.35986C9.61186 16.8599 9.79386 16.8226 9.90586 16.7479C10.0179 16.6732 10.0739 16.5519 10.0739 16.3839C10.0739 16.3279 10.0645 16.2626 10.0459 16.1879C10.0365 16.1132 10.0179 16.0339 9.98986 15.9499C9.97119 15.8566 9.94786 15.7632 9.91986 15.6699L9.19186 13.3599H5.76186L5.06186 15.4879C5.02453 15.6092 4.99186 15.7259 4.96386 15.8379C4.93586 15.9406 4.91253 16.0339 4.89386 16.1179C4.87519 16.2019 4.86586 16.2812 4.86586 16.3559C4.86586 16.5426 4.93119 16.6732 5.06186 16.7479C5.19253 16.8226 5.39786 16.8599 5.67786 16.8599H6.40586V16.9999H3.29786ZM5.80386 13.2199H9.13586L8.19786 10.1399C8.11386 9.85991 8.02986 9.58458 7.94586 9.31391C7.86186 9.03391 7.78253 8.76791 7.70786 8.51591C7.64253 8.25458 7.58186 8.01658 7.52586 7.80191C7.47919 7.97924 7.42786 8.15658 7.37186 8.33391C7.31586 8.50191 7.25986 8.67458 7.20386 8.85191C7.14786 9.02924 7.08719 9.20658 7.02186 9.38391C6.96586 9.56124 6.90519 9.74324 6.83986 9.92991L5.80386 13.2199ZM15.6324 20.3459C14.6337 20.3459 13.8917 20.1919 13.4064 19.8839C12.9211 19.5759 12.6784 19.1466 12.6784 18.5959C12.6784 18.2972 12.7531 18.0359 12.9024 17.8119C13.0611 17.5972 13.2991 17.4199 13.6164 17.2799C13.9337 17.1492 14.3444 17.0652 14.8484 17.0279C14.4004 16.9532 14.0644 16.7852 13.8404 16.5239C13.6164 16.2532 13.5044 15.9546 13.5044 15.6279C13.5044 15.3106 13.6071 15.0259 13.8124 14.7739C14.0271 14.5126 14.3491 14.3026 14.7784 14.1439C14.3211 13.9852 13.9524 13.7192 13.6724 13.3459C13.4017 12.9632 13.2664 12.4919 13.2664 11.9319C13.2664 11.0919 13.4857 10.4526 13.9244 10.0139C14.3631 9.56591 15.0304 9.34191 15.9264 9.34191C16.2624 9.34191 16.5704 9.38858 16.8504 9.48191C17.1304 9.56591 17.3731 9.69191 17.5784 9.85991C17.6997 9.70124 17.8164 9.55658 17.9284 9.42591C18.0497 9.29524 18.1851 9.19258 18.3344 9.11791C18.4931 9.03391 18.6611 8.99191 18.8384 8.99191C19.1091 8.99191 19.3144 9.06658 19.4544 9.21591C19.5944 9.36524 19.6644 9.54724 19.6644 9.76191C19.6644 9.95791 19.6037 10.1306 19.4824 10.2799C19.3611 10.4292 19.1464 10.5039 18.8384 10.5039C18.8384 10.2146 18.7871 9.99991 18.6844 9.85991C18.5911 9.71058 18.4511 9.63591 18.2644 9.63591C18.1617 9.63591 18.0637 9.66391 17.9704 9.71991C17.8771 9.76658 17.7837 9.84591 17.6904 9.95791C17.9424 10.1819 18.1384 10.4572 18.2784 10.7839C18.4184 11.1106 18.4884 11.4792 18.4884 11.8899C18.4884 12.6086 18.2784 13.1966 17.8584 13.6539C17.4477 14.1019 16.8037 14.3259 15.9264 14.3259C15.7491 14.3259 15.5764 14.3166 15.4084 14.2979C15.2404 14.2792 15.0817 14.2466 14.9324 14.1999C14.7644 14.3026 14.6431 14.4146 14.5684 14.5359C14.5031 14.6479 14.4704 14.7739 14.4704 14.9139C14.4704 15.1379 14.5451 15.3059 14.6944 15.4179C14.8531 15.5299 15.0864 15.5859 15.3944 15.5859H16.8644C17.4337 15.5859 17.8911 15.6746 18.2364 15.8519C18.5911 16.0199 18.8524 16.2626 19.0204 16.5799C19.1884 16.8879 19.2724 17.2566 19.2724 17.6859C19.2724 18.5072 18.9737 19.1559 18.3764 19.6319C17.7884 20.1079 16.8737 20.3459 15.6324 20.3459ZM15.7864 20.2059C16.2717 20.2059 16.6824 20.1359 17.0184 19.9959C17.3544 19.8652 17.6064 19.6646 17.7744 19.3939C17.9517 19.1326 18.0404 18.8012 18.0404 18.3999C18.0404 17.9706 17.9331 17.6439 17.7184 17.4199C17.5037 17.1959 17.1491 17.0839 16.6544 17.0839H15.4084C15.1284 17.0839 14.8811 17.1352 14.6664 17.2379C14.4611 17.3499 14.2977 17.5132 14.1764 17.7279C14.0551 17.9519 13.9944 18.2412 13.9944 18.5959C13.9944 18.9692 14.0644 19.2726 14.2044 19.5059C14.3537 19.7486 14.5591 19.9259 14.8204 20.0379C15.0911 20.1499 15.4131 20.2059 15.7864 20.2059ZM15.8844 14.1859C16.1364 14.1859 16.3371 14.1159 16.4864 13.9759C16.6357 13.8266 16.7431 13.5839 16.8084 13.2479C16.8831 12.9119 16.9204 12.4639 16.9204 11.9039C16.9204 11.2972 16.8831 10.8166 16.8084 10.4619C16.7431 10.1072 16.6357 9.85524 16.4864 9.70591C16.3371 9.55658 16.1317 9.48191 15.8704 9.48191C15.6277 9.48191 15.4317 9.56124 15.2824 9.71991C15.1331 9.86924 15.0211 10.1212 14.9464 10.4759C14.8811 10.8306 14.8484 11.3112 14.8484 11.9179C14.8484 12.4779 14.8811 12.9259 14.9464 13.2619C15.0117 13.5886 15.1191 13.8266 15.2684 13.9759C15.4271 14.1159 15.6324 14.1859 15.8844 14.1859Z" fill="#131313"/>
</svg>
