<svg width="24" height="24" viewBox="0 0 24 24" fill="none" xmlns="http://www.w3.org/2000/svg">
<path d="M4.06184 16.9999V16.8599H4.36984C4.56584 16.8599 4.71518 16.8412 4.81784 16.8039C4.92984 16.7572 5.01851 16.6686 5.08384 16.5379C5.15851 16.4072 5.23318 16.2112 5.30784 15.9499L8.12184 7.00391H8.42984L11.4258 16.2299C11.4818 16.4166 11.5378 16.5566 11.5938 16.6499C11.6498 16.7339 11.7245 16.7899 11.8178 16.8179C11.9205 16.8459 12.0652 16.8599 12.2518 16.8599H12.4338V16.9999H9.60584V16.8599H10.0258C10.3618 16.8599 10.5765 16.8272 10.6698 16.7619C10.7632 16.6966 10.8098 16.5892 10.8098 16.4399C10.8098 16.3559 10.7912 16.2486 10.7538 16.1179C10.7165 15.9779 10.6745 15.8379 10.6278 15.6979C10.5812 15.5579 10.5438 15.4412 10.5158 15.3479L9.88584 13.3739H6.27384L5.69984 15.2359C5.67184 15.3386 5.62984 15.4692 5.57384 15.6279C5.52718 15.7772 5.48518 15.9266 5.44784 16.0759C5.41051 16.2252 5.39184 16.3466 5.39184 16.4399C5.39184 16.5799 5.44318 16.6872 5.54584 16.7619C5.65784 16.8272 5.88651 16.8599 6.23184 16.8599H6.81984V16.9999H4.06184ZM6.32984 13.2339H9.84384L8.83584 10.0279C8.73318 9.70124 8.63518 9.38858 8.54184 9.08991C8.44851 8.78191 8.35984 8.49724 8.27584 8.23591C8.20118 7.97458 8.13118 7.74591 8.06584 7.54991C8.03784 7.68058 7.99584 7.82991 7.93984 7.99791C7.89318 8.16591 7.83718 8.34324 7.77184 8.52991C7.71584 8.71658 7.65518 8.90791 7.58984 9.10391C7.53384 9.29058 7.47784 9.47258 7.42184 9.64991L6.32984 13.2339ZM15.345 20.3599C14.533 20.3599 13.9076 20.1732 13.469 19.7999C13.0396 19.4266 12.825 18.9086 12.825 18.2459C12.825 17.8912 12.909 17.5786 13.077 17.3079C13.245 17.0466 13.4643 16.8366 13.735 16.6779C14.015 16.5192 14.3136 16.4119 14.631 16.3559C14.3136 16.2719 14.0803 16.1319 13.931 15.9359C13.7816 15.7399 13.707 15.5206 13.707 15.2779C13.707 15.0726 13.7676 14.8719 13.889 14.6759C14.0103 14.4706 14.2063 14.2652 14.477 14.0599C14.0756 13.8639 13.7816 13.5699 13.595 13.1779C13.4176 12.7859 13.329 12.3566 13.329 11.8899C13.329 11.0966 13.5156 10.4852 13.889 10.0559C14.2716 9.61724 14.813 9.39791 15.513 9.39791C15.821 9.39791 16.0963 9.44924 16.339 9.55191C16.591 9.65458 16.8056 9.79924 16.983 9.98591C17.095 9.82724 17.207 9.68724 17.319 9.56591C17.4403 9.44458 17.5616 9.35124 17.683 9.28591C17.8136 9.21124 17.9536 9.17391 18.103 9.17391C18.2896 9.17391 18.4343 9.22991 18.537 9.34191C18.6396 9.45391 18.691 9.59858 18.691 9.77591C18.691 9.93458 18.6536 10.0652 18.579 10.1679C18.5136 10.2612 18.4203 10.3079 18.299 10.3079C18.299 10.0372 18.2616 9.84591 18.187 9.73391C18.1216 9.61258 18.0096 9.55191 17.851 9.55191C17.7296 9.55191 17.6083 9.59391 17.487 9.67791C17.3656 9.76191 17.2303 9.89724 17.081 10.0839C17.2116 10.2612 17.3283 10.5086 17.431 10.8259C17.543 11.1339 17.599 11.4932 17.599 11.9039C17.599 12.6226 17.4263 13.1966 17.081 13.6259C16.7356 14.0552 16.2083 14.2699 15.499 14.2699C15.3496 14.2699 15.1956 14.2606 15.037 14.2419C14.8783 14.2139 14.7383 14.1719 14.617 14.1159C14.421 14.2746 14.281 14.4286 14.197 14.5779C14.1223 14.7272 14.085 14.8812 14.085 15.0399C14.085 15.3199 14.1876 15.5392 14.393 15.6979C14.5983 15.8566 14.8736 15.9359 15.219 15.9359H16.325C16.7823 15.9359 17.151 16.0152 17.431 16.1739C17.7203 16.3326 17.935 16.5566 18.075 16.8459C18.215 17.1352 18.285 17.4806 18.285 17.8819C18.285 18.6379 18.0376 19.2399 17.543 19.6879C17.0483 20.1359 16.3156 20.3599 15.345 20.3599ZM15.401 20.2199C15.9423 20.2199 16.3856 20.1359 16.731 19.9679C17.0856 19.7999 17.347 19.5479 17.515 19.2119C17.6923 18.8852 17.781 18.4839 17.781 18.0079C17.781 17.4572 17.655 17.0652 17.403 16.8319C17.1603 16.5892 16.7636 16.4679 16.213 16.4679H15.051C14.7336 16.4679 14.4443 16.5332 14.183 16.6639C13.931 16.7946 13.7256 16.9906 13.567 17.2519C13.4176 17.5226 13.343 17.8586 13.343 18.2599C13.343 18.6612 13.413 19.0066 13.553 19.2959C13.7023 19.5946 13.9263 19.8232 14.225 19.9819C14.533 20.1406 14.925 20.2199 15.401 20.2199ZM15.471 14.1299C15.807 14.1299 16.0916 14.0599 16.325 13.9199C16.5583 13.7706 16.731 13.5326 16.843 13.2059C16.9643 12.8792 17.025 12.4406 17.025 11.8899C17.025 11.3112 16.9643 10.8539 16.843 10.5179C16.731 10.1726 16.5583 9.92524 16.325 9.77591C16.0916 9.61724 15.8023 9.53791 15.457 9.53791C15.149 9.53791 14.8736 9.61724 14.631 9.77591C14.3976 9.93458 14.2156 10.1866 14.085 10.5319C13.9543 10.8679 13.889 11.3252 13.889 11.9039C13.889 12.4266 13.9543 12.8512 14.085 13.1779C14.2156 13.5046 14.3976 13.7472 14.631 13.9059C14.8643 14.0552 15.1443 14.1299 15.471 14.1299Z" fill="#131313"/>
</svg>
