<svg width="24" height="24" viewBox="0 0 24 24" fill="none" xmlns="http://www.w3.org/2000/svg">
<path d="M10.7296 17.0002L9.91755 13.8922H7.21555L6.41755 17.0002H5.14355L7.88755 6.99023H9.23156L12.0036 17.0002H10.7296ZM8.83955 9.58023C8.81155 9.4309 8.7789 9.27223 8.74156 9.10423C8.70423 8.9269 8.66689 8.75424 8.62955 8.58624C8.60155 8.40891 8.57823 8.2549 8.55956 8.12423C8.53155 8.2829 8.49889 8.44623 8.46155 8.61423C8.43355 8.78223 8.40089 8.95023 8.36355 9.11823C8.33555 9.2769 8.30289 9.4309 8.26555 9.58023L7.46755 12.7862H9.65156L8.83955 9.58023ZM14.9888 9.34223C15.3622 9.34223 15.6935 9.43556 15.9828 9.62223C16.2722 9.79956 16.5288 10.0842 16.7528 10.4762H16.8228L16.9488 9.48223H17.9148V17.0982C17.9148 17.7982 17.8122 18.3909 17.6068 18.8762C17.4015 19.3615 17.0842 19.7302 16.6548 19.9822C16.2348 20.2342 15.6888 20.3602 15.0168 20.3602C14.6248 20.3602 14.2655 20.3229 13.9388 20.2482C13.6215 20.1735 13.3182 20.0615 13.0288 19.9122V18.8202C13.2342 18.9322 13.4442 19.0255 13.6588 19.1002C13.8828 19.1842 14.1068 19.2449 14.3308 19.2822C14.5548 19.3289 14.7788 19.3522 15.0028 19.3522C15.5722 19.3522 16.0062 19.1889 16.3048 18.8622C16.6035 18.5355 16.7528 18.0175 16.7528 17.3082V17.0702C16.7528 16.9209 16.7575 16.7482 16.7668 16.5522C16.7762 16.3469 16.7902 16.1509 16.8088 15.9642H16.7528C16.5382 16.3655 16.2862 16.6642 15.9968 16.8602C15.7075 17.0469 15.3575 17.1402 14.9468 17.1402C14.2002 17.1402 13.6215 16.8089 13.2108 16.1462C12.8095 15.4835 12.6088 14.5269 12.6088 13.2762C12.6088 12.4269 12.7022 11.7129 12.8888 11.1342C13.0848 10.5462 13.3555 10.1029 13.7008 9.80423C14.0555 9.49623 14.4848 9.34223 14.9888 9.34223ZM15.1988 10.3642C14.8908 10.3642 14.6342 10.4762 14.4288 10.7002C14.2235 10.9242 14.0648 11.2555 13.9528 11.6942C13.8502 12.1235 13.7988 12.6555 13.7988 13.2902C13.7988 14.2609 13.9155 14.9795 14.1488 15.4462C14.3915 15.9129 14.7555 16.1462 15.2408 16.1462C15.5022 16.1462 15.7262 16.0949 15.9128 15.9922C16.0995 15.8802 16.2535 15.7215 16.3748 15.5162C16.5055 15.3015 16.5988 15.0309 16.6548 14.7042C16.7202 14.3775 16.7528 13.9995 16.7528 13.5702V13.2342C16.7528 12.5622 16.6968 12.0162 16.5848 11.5962C16.4728 11.1762 16.3048 10.8682 16.0808 10.6722C15.8568 10.4669 15.5628 10.3642 15.1988 10.3642Z" fill="#131313"/>
</svg>
