<svg width="24" height="24" viewBox="0 0 24 24" fill="none" xmlns="http://www.w3.org/2000/svg">
<path d="M3.45574 16.9999V16.2439H3.56774C3.71708 16.2439 3.84774 16.2159 3.95974 16.1599C4.08108 16.1039 4.18841 16.0059 4.28174 15.8659C4.38441 15.7166 4.47774 15.5066 4.56174 15.2359L7.20774 7.00391H9.20974L11.7717 15.3759C11.8371 15.5812 11.9164 15.7492 12.0097 15.8799C12.1124 16.0106 12.2244 16.1039 12.3457 16.1599C12.4671 16.2159 12.6024 16.2439 12.7517 16.2439H12.8917V16.9999H8.53774V16.2439H9.01374C9.15374 16.2439 9.27508 16.2066 9.37774 16.1319C9.48974 16.0572 9.54574 15.9312 9.54574 15.7539C9.54574 15.6792 9.53641 15.5999 9.51774 15.5159C9.50841 15.4226 9.49441 15.3339 9.47574 15.2499C9.45708 15.1659 9.43841 15.1006 9.41974 15.0539L9.02774 13.7099H6.14374L5.83574 14.8439C5.82641 14.9186 5.80774 15.0072 5.77974 15.1099C5.75174 15.2126 5.72841 15.3199 5.70974 15.4319C5.69108 15.5439 5.68174 15.6419 5.68174 15.7259C5.68174 15.8846 5.71908 16.0106 5.79374 16.1039C5.87774 16.1972 6.00841 16.2439 6.18574 16.2439H6.73174V16.9999H3.45574ZM6.42374 12.8419H8.76174L8.07574 10.2239C8.01974 10.0186 7.96374 9.81324 7.90774 9.60791C7.86108 9.40258 7.81441 9.20191 7.76774 9.00591C7.72108 8.80058 7.67908 8.59991 7.64174 8.40391C7.61374 8.54391 7.58108 8.68858 7.54374 8.83791C7.50641 8.98724 7.46908 9.13658 7.43174 9.28591C7.39441 9.43524 7.35241 9.58458 7.30574 9.73391C7.26841 9.88324 7.23108 10.0279 7.19374 10.1679L6.42374 12.8419ZM15.5263 20.2899C14.5183 20.2899 13.7623 20.1266 13.2583 19.7999C12.7636 19.4826 12.5163 19.0159 12.5163 18.3999C12.5163 18.0732 12.5863 17.7886 12.7263 17.5459C12.8663 17.3126 13.0669 17.1259 13.3283 16.9859C13.5896 16.8459 13.8883 16.7619 14.2243 16.7339C13.9909 16.6312 13.7669 16.4912 13.5523 16.3139C13.3376 16.1272 13.2303 15.8659 13.2303 15.5299C13.2303 15.2219 13.3423 14.9559 13.5663 14.7319C13.7996 14.4986 14.0983 14.2792 14.4623 14.0739C14.0609 13.9246 13.7249 13.6726 13.4543 13.3179C13.1836 12.9539 13.0483 12.4826 13.0483 11.9039C13.0483 11.0732 13.2723 10.4339 13.7203 9.98591C14.1683 9.53791 14.8683 9.31391 15.8203 9.31391C16.1376 9.31391 16.4176 9.34658 16.6603 9.41191C16.9029 9.47724 17.1363 9.57524 17.3603 9.70591C17.4909 9.55658 17.6216 9.42124 17.7523 9.29991C17.8923 9.17858 18.0416 9.08058 18.2003 9.00591C18.3589 8.92191 18.5456 8.87991 18.7603 8.87991C19.0403 8.87991 19.2503 8.96391 19.3903 9.13191C19.5396 9.29058 19.6143 9.48191 19.6143 9.70591C19.6143 9.92991 19.5489 10.1306 19.4183 10.3079C19.2876 10.4759 19.0496 10.5599 18.7043 10.5599C18.7043 10.3452 18.6529 10.1912 18.5503 10.0979C18.4476 9.99524 18.3496 9.94391 18.2563 9.94391C18.1723 9.94391 18.0929 9.95791 18.0183 9.98591C17.9529 10.0139 17.8923 10.0466 17.8363 10.0839C18.0323 10.2706 18.1956 10.5086 18.3263 10.7979C18.4663 11.0872 18.5363 11.4326 18.5363 11.8339C18.5363 12.5806 18.3169 13.1872 17.8783 13.6539C17.4489 14.1206 16.7629 14.3539 15.8203 14.3539C15.7269 14.3539 15.6009 14.3492 15.4423 14.3399C15.2929 14.3306 15.1809 14.3166 15.1063 14.2979C15.0129 14.3446 14.9196 14.4379 14.8263 14.5779C14.7423 14.7086 14.7003 14.8532 14.7003 15.0119C14.7003 15.1799 14.7563 15.3012 14.8683 15.3759C14.9803 15.4412 15.1156 15.4739 15.2743 15.4739H16.7303C17.2996 15.4739 17.7709 15.5579 18.1443 15.7259C18.5176 15.8939 18.7929 16.1366 18.9703 16.4539C19.1476 16.7712 19.2363 17.1539 19.2363 17.6019C19.2363 18.4326 18.9329 19.0859 18.3263 19.5619C17.7196 20.0472 16.7863 20.2899 15.5263 20.2899ZM15.5683 19.4359C16.0069 19.4359 16.3709 19.3799 16.6603 19.2679C16.9589 19.1652 17.1829 19.0112 17.3323 18.8059C17.4816 18.6099 17.5563 18.3766 17.5563 18.1059C17.5563 17.8446 17.4863 17.6392 17.3463 17.4899C17.2063 17.3499 16.9823 17.2799 16.6743 17.2799H15.1623C15.0316 17.2799 14.8869 17.3126 14.7283 17.3779C14.5789 17.4432 14.4483 17.5552 14.3363 17.7139C14.2336 17.8726 14.1823 18.0919 14.1823 18.3719C14.1823 18.6052 14.2429 18.8012 14.3643 18.9599C14.4856 19.1186 14.6489 19.2352 14.8543 19.3099C15.0689 19.3939 15.3069 19.4359 15.5683 19.4359ZM15.7923 13.5279C16.0256 13.5279 16.2029 13.4626 16.3243 13.3319C16.4456 13.1919 16.5249 13.0006 16.5623 12.7579C16.6089 12.5059 16.6323 12.2166 16.6323 11.8899C16.6323 11.5539 16.6089 11.2552 16.5623 10.9939C16.5249 10.7326 16.4456 10.5272 16.3243 10.3779C16.2029 10.2286 16.0256 10.1539 15.7923 10.1539C15.5683 10.1539 15.3956 10.2332 15.2743 10.3919C15.1529 10.5412 15.0643 10.7466 15.0083 11.0079C14.9616 11.2692 14.9383 11.5679 14.9383 11.9039C14.9383 12.2212 14.9616 12.5012 15.0083 12.7439C15.0549 12.9866 15.1389 13.1779 15.2603 13.3179C15.3909 13.4579 15.5683 13.5279 15.7923 13.5279Z" fill="#131313"/>
</svg>
