<svg width="24" height="24" viewBox="0 0 24 24" fill="none" xmlns="http://www.w3.org/2000/svg">
<path d="M6.22899 16.9999L10.303 6.96191H10.765L10.695 16.9999H10.331L10.359 13.0239H8.24499L6.62099 16.9999H6.22899ZM8.37099 12.6739H10.359L10.415 8.51591C10.415 8.31991 10.415 8.13324 10.415 7.95591C10.415 7.77858 10.4197 7.62924 10.429 7.50791H10.401C10.3637 7.62924 10.3123 7.77391 10.247 7.94191C10.1817 8.10058 10.1023 8.29191 10.009 8.51591L8.37099 12.6739ZM12.6594 20.3599C12.398 20.3599 12.1507 20.3179 11.9174 20.2339C11.684 20.1592 11.5067 20.0892 11.3854 20.0239V19.6179C11.4694 19.6739 11.5767 19.7299 11.7074 19.7859C11.838 19.8512 11.9874 19.9026 12.1554 19.9399C12.3234 19.9866 12.4914 20.0099 12.6594 20.0099C13.2754 20.0099 13.728 19.8092 14.0174 19.4079C14.3067 19.0066 14.54 18.3952 14.7174 17.5739L14.9134 16.6639C14.932 16.5986 14.9507 16.5192 14.9694 16.4259C14.988 16.3232 15.0114 16.2159 15.0394 16.1039C15.0674 15.9826 15.0954 15.8612 15.1234 15.7399H15.0954C14.946 16.0292 14.7874 16.2812 14.6194 16.4959C14.4514 16.7012 14.2647 16.8599 14.0594 16.9719C13.8634 17.0839 13.6347 17.1399 13.3734 17.1399C13.0934 17.1399 12.8554 17.0606 12.6594 16.9019C12.4634 16.7432 12.314 16.5099 12.2114 16.2019C12.1087 15.8939 12.0574 15.5206 12.0574 15.0819C12.0574 14.6432 12.0947 14.1719 12.1694 13.6679C12.2534 13.1639 12.37 12.6692 12.5194 12.1839C12.678 11.6892 12.874 11.2412 13.1074 10.8399C13.3407 10.4292 13.6114 10.1026 13.9194 9.85991C14.2274 9.61724 14.5727 9.49591 14.9554 9.49591C15.2074 9.49591 15.4174 9.55658 15.5854 9.67791C15.7534 9.78991 15.8794 9.94391 15.9634 10.1399C16.0567 10.3266 16.1174 10.5412 16.1454 10.7839H16.1874L16.4534 9.63591H16.7474L15.0394 17.6859C14.918 18.2459 14.7594 18.7266 14.5634 19.1279C14.3767 19.5292 14.1294 19.8326 13.8214 20.0379C13.5227 20.2526 13.1354 20.3599 12.6594 20.3599ZM13.4154 16.7899C13.7234 16.7899 13.994 16.6779 14.2274 16.4539C14.47 16.2206 14.68 15.9172 14.8574 15.5439C15.044 15.1612 15.2027 14.7506 15.3334 14.3119C15.464 13.8732 15.5714 13.4439 15.6554 13.0239C15.7394 12.5946 15.8 12.2166 15.8374 11.8899C15.8747 11.5539 15.8934 11.3112 15.8934 11.1619C15.8934 10.7699 15.8094 10.4526 15.6414 10.2099C15.4734 9.96724 15.24 9.84591 14.9414 9.84591C14.624 9.84591 14.33 9.96258 14.0594 10.1959C13.798 10.4292 13.5647 10.7372 13.3594 11.1199C13.1634 11.5026 12.9954 11.9272 12.8554 12.3939C12.7154 12.8512 12.608 13.3132 12.5334 13.7799C12.468 14.2372 12.4354 14.6619 12.4354 15.0539C12.4354 15.6699 12.524 16.1132 12.7014 16.3839C12.8787 16.6546 13.1167 16.7899 13.4154 16.7899Z" fill="#131313"/>
</svg>
