<svg width="24" height="24" viewBox="0 0 24 24" fill="none" xmlns="http://www.w3.org/2000/svg">
<path d="M10.5686 16.9996L9.75655 14.1016H6.67655L5.85055 16.9996H4.26855L7.34855 6.97559H9.05655L12.1506 16.9996H10.5686ZM8.58056 9.88759C8.55255 9.74759 8.51056 9.58426 8.45457 9.39759C8.4079 9.20159 8.36123 9.00559 8.31456 8.80959C8.27723 8.61359 8.23989 8.43626 8.20255 8.27759C8.17456 8.46426 8.13723 8.65559 8.09056 8.85159C8.0439 9.03826 8.00189 9.22026 7.96455 9.39759C7.92722 9.57492 7.88522 9.73826 7.83856 9.88759L7.02655 12.8136H9.40656L8.58056 9.88759ZM15.3909 9.31359C15.8109 9.31359 16.1796 9.40692 16.4969 9.59359C16.8142 9.77092 17.0896 10.0509 17.3229 10.4336H17.3929L17.5329 9.45359H18.7509V17.0416C18.7509 17.7603 18.6342 18.3669 18.4009 18.8616C18.1769 19.3563 17.8316 19.7296 17.3649 19.9816C16.8982 20.2336 16.2962 20.3596 15.5589 20.3596C15.1016 20.3596 14.6816 20.3223 14.2989 20.2476C13.9256 20.1729 13.5709 20.0563 13.2349 19.8976V18.6236C13.4682 18.7449 13.7109 18.8476 13.9629 18.9316C14.2149 19.0156 14.4762 19.0763 14.7469 19.1136C15.0176 19.1603 15.2929 19.1836 15.5729 19.1836C16.1329 19.1836 16.5622 19.0203 16.8609 18.6936C17.1596 18.3669 17.3089 17.8816 17.3089 17.2376V16.9996C17.3089 16.8596 17.3136 16.6916 17.3229 16.4956C17.3322 16.2996 17.3416 16.1316 17.3509 15.9916H17.2949C17.0802 16.3836 16.8142 16.6729 16.4969 16.8596C16.1796 17.0463 15.8016 17.1396 15.3629 17.1396C14.5509 17.1396 13.9162 16.8036 13.4589 16.1316C13.0109 15.4503 12.7869 14.4889 12.7869 13.2476C12.7869 12.4169 12.8896 11.7076 13.0949 11.1196C13.3096 10.5316 13.6082 10.0836 13.9909 9.77559C14.3829 9.46759 14.8496 9.31359 15.3909 9.31359ZM15.7269 10.5176C15.4096 10.5176 15.1436 10.6249 14.9289 10.8396C14.7236 11.0449 14.5649 11.3529 14.4529 11.7636C14.3409 12.1649 14.2849 12.6643 14.2849 13.2616C14.2849 14.1576 14.4062 14.8296 14.6489 15.2776C14.9009 15.7256 15.2696 15.9496 15.7549 15.9496C16.0349 15.9496 16.2729 15.9029 16.4689 15.8096C16.6649 15.7163 16.8282 15.5716 16.9589 15.3756C17.0896 15.1796 17.1829 14.9276 17.2389 14.6196C17.3042 14.3116 17.3369 13.9476 17.3369 13.5276V13.2196C17.3369 12.5849 17.2809 12.0716 17.1689 11.6796C17.0569 11.2783 16.8842 10.9843 16.6509 10.7976C16.4176 10.6109 16.1096 10.5176 15.7269 10.5176Z" fill="#131313"/>
</svg>
