<svg width="24" height="24" viewBox="0 0 24 24" fill="none" xmlns="http://www.w3.org/2000/svg">
<path d="M3.76647 17.0002L9.22647 6.99023H10.0525L11.2285 17.0002H10.4445L10.0385 13.5422H6.49647L4.64847 17.0002H3.76647ZM6.88847 12.8142H9.96847L9.61847 9.67824C9.59047 9.40757 9.56247 9.11356 9.53447 8.79623C9.50647 8.46956 9.4878 8.1709 9.47847 7.90023H9.45047C9.3198 8.18023 9.1798 8.47423 9.03047 8.78223C8.89047 9.09023 8.74114 9.39823 8.58247 9.70623L6.88847 12.8142ZM14.2426 20.3602C13.832 20.3602 13.4493 20.3135 13.0946 20.2202C12.74 20.1269 12.4413 20.0195 12.1986 19.8982V19.1282C12.3666 19.2215 12.558 19.3102 12.7726 19.3942C12.9966 19.4782 13.2346 19.5435 13.4866 19.5902C13.7386 19.6462 13.986 19.6742 14.2286 19.6742C14.9193 19.6742 15.4653 19.4829 15.8666 19.1002C16.2773 18.7175 16.5573 18.1575 16.7066 17.4202L16.8326 16.8742C16.87 16.7155 16.9073 16.5429 16.9446 16.3562C16.9913 16.1602 17.038 15.9735 17.0846 15.7962C17.1406 15.6095 17.1873 15.4415 17.2246 15.2922H17.1826C16.9866 15.6002 16.7533 15.8942 16.4826 16.1742C16.212 16.4542 15.9133 16.6875 15.5866 16.8742C15.26 17.0515 14.9053 17.1402 14.5226 17.1402C14.1026 17.1402 13.748 17.0422 13.4586 16.8462C13.1693 16.6409 12.95 16.3469 12.8006 15.9642C12.6513 15.5815 12.5766 15.1242 12.5766 14.5922C12.5766 14.0975 12.628 13.6029 12.7306 13.1082C12.8333 12.6135 12.9826 12.1422 13.1786 11.6942C13.3746 11.2462 13.6173 10.8542 13.9066 10.5182C14.2053 10.1729 14.546 9.90224 14.9286 9.70623C15.3113 9.51023 15.7313 9.41223 16.1886 9.41223C16.5713 9.41223 16.8886 9.49156 17.1406 9.65023C17.402 9.79956 17.612 9.99556 17.7706 10.2382C17.9293 10.4715 18.0413 10.7189 18.1066 10.9802H18.1486L18.5546 9.55223H19.1706L17.4906 17.4062C17.36 18.0595 17.1546 18.6009 16.8746 19.0302C16.604 19.4689 16.2493 19.8002 15.8106 20.0242C15.372 20.2482 14.8493 20.3602 14.2426 20.3602ZM14.7606 16.4542C14.994 16.4542 15.232 16.3982 15.4746 16.2862C15.7173 16.1742 15.9506 16.0155 16.1746 15.8102C16.3986 15.6049 16.604 15.3622 16.7906 15.0822C16.9866 14.8022 17.1593 14.4942 17.3086 14.1582C17.458 13.8222 17.57 13.4629 17.6446 13.0802C17.7286 12.6975 17.7706 12.3102 17.7706 11.9182C17.7706 11.3302 17.64 10.8822 17.3786 10.5742C17.1173 10.2569 16.7346 10.0982 16.2306 10.0982C15.876 10.0982 15.5446 10.1869 15.2366 10.3642C14.938 10.5322 14.672 10.7655 14.4386 11.0642C14.2146 11.3629 14.0233 11.7035 13.8646 12.0862C13.706 12.4689 13.5846 12.8749 13.5006 13.3042C13.426 13.7335 13.3886 14.1629 13.3886 14.5922C13.3886 15.1895 13.5006 15.6515 13.7246 15.9782C13.9486 16.2955 14.294 16.4542 14.7606 16.4542Z" fill="#131313"/>
</svg>
