<svg width="24" height="24" viewBox="0 0 24 24" fill="none" xmlns="http://www.w3.org/2000/svg">
<path d="M4.00064 16.9999V16.7199H4.30864C4.52331 16.7199 4.68197 16.7059 4.78464 16.6779C4.88731 16.6499 4.96664 16.5892 5.02264 16.4959C5.08797 16.4026 5.15331 16.2532 5.21864 16.0479L8.34064 7.00391H8.74664L11.8686 16.0479C11.9433 16.2532 12.0086 16.4026 12.0646 16.4959C12.1206 16.5892 12.2 16.6499 12.3026 16.6779C12.4053 16.7059 12.564 16.7199 12.7786 16.7199H13.0866V16.9999H10.2166V16.7199H10.6926C11.0473 16.7199 11.262 16.6872 11.3366 16.6219C11.4206 16.5566 11.4626 16.4586 11.4626 16.3279C11.4626 16.2159 11.4346 16.0666 11.3786 15.8799C11.3226 15.6932 11.262 15.5112 11.1966 15.3339C11.1406 15.1566 11.0986 15.0259 11.0706 14.9419L10.5666 13.4859H6.52064L6.01664 14.9419C5.98864 15.0259 5.94197 15.1566 5.87664 15.3339C5.82064 15.5112 5.76464 15.6932 5.70864 15.8799C5.65264 16.0666 5.62464 16.2159 5.62464 16.3279C5.62464 16.4586 5.66664 16.5566 5.75064 16.6219C5.83464 16.6872 6.04931 16.7199 6.39464 16.7199H7.13664V16.9999H4.00064ZM6.63264 13.1359H10.4406L9.36264 9.92991C9.27864 9.67791 9.18531 9.40258 9.08264 9.10391C8.97997 8.79591 8.88197 8.49724 8.78864 8.20791C8.69531 7.91858 8.61597 7.67591 8.55064 7.47991C8.52264 7.59191 8.47597 7.74591 8.41064 7.94191C8.34531 8.12858 8.27531 8.33858 8.20064 8.57191C8.12597 8.79591 8.05131 9.01524 7.97664 9.22991C7.90197 9.44458 7.83664 9.63124 7.78064 9.78991L6.63264 13.1359ZM16.1246 20.3599C15.2753 20.3599 14.622 20.1592 14.1646 19.7579C13.7166 19.3566 13.4926 18.8106 13.4926 18.1199C13.4926 17.7372 13.5766 17.4012 13.7446 17.1119C13.9126 16.8319 14.1226 16.6079 14.3746 16.4399C14.636 16.2719 14.8973 16.1646 15.1586 16.1179C14.9533 16.0526 14.7806 15.9452 14.6406 15.7959C14.5006 15.6372 14.4306 15.4226 14.4306 15.1519C14.4306 14.8812 14.5146 14.6386 14.6826 14.4239C14.8506 14.2092 14.9906 14.0599 15.1026 13.9759C14.7013 13.7612 14.4166 13.4532 14.2486 13.0519C14.0806 12.6412 13.9966 12.2212 13.9966 11.7919C13.9966 11.1012 14.1973 10.5319 14.5986 10.0839C15 9.63591 15.5693 9.41191 16.3066 9.41191C16.6426 9.41191 16.9366 9.46324 17.1886 9.56591C17.4406 9.66858 17.6506 9.79924 17.8186 9.95791C17.9026 9.86458 18.0053 9.76191 18.1266 9.64991C18.248 9.52858 18.3833 9.42591 18.5326 9.34191C18.6913 9.24858 18.8593 9.20191 19.0366 9.20191C19.27 9.20191 19.438 9.26258 19.5406 9.38391C19.6433 9.50524 19.6946 9.64991 19.6946 9.81791C19.6946 9.97658 19.6713 10.1026 19.6246 10.1959C19.578 10.2892 19.5033 10.3359 19.4006 10.3359C19.4006 10.0652 19.3726 9.87391 19.3166 9.76191C19.2606 9.64991 19.1673 9.59391 19.0366 9.59391C18.8313 9.59391 18.654 9.65458 18.5046 9.77591C18.3646 9.88791 18.206 10.0326 18.0286 10.2099C18.1593 10.3872 18.2713 10.6206 18.3646 10.9099C18.458 11.1992 18.5046 11.5306 18.5046 11.9039C18.5046 12.6039 18.318 13.1732 17.9446 13.6119C17.5806 14.0412 17.0346 14.2559 16.3066 14.2559C16.1946 14.2559 16.036 14.2419 15.8306 14.2139C15.6253 14.1859 15.4853 14.1532 15.4106 14.1159C15.252 14.2372 15.112 14.3866 14.9906 14.5639C14.8786 14.7412 14.8226 14.9652 14.8226 15.2359C14.8226 15.5439 14.9626 15.7492 15.2426 15.8519C15.5226 15.9546 15.8493 16.0059 16.2226 16.0059H17.1886C17.6366 16.0059 18.01 16.0759 18.3086 16.2159C18.6073 16.3559 18.8313 16.5659 18.9806 16.8459C19.1393 17.1259 19.2186 17.4806 19.2186 17.9099C19.2186 18.6472 18.9573 19.2399 18.4346 19.6879C17.9213 20.1359 17.1513 20.3599 16.1246 20.3599ZM16.1806 20.0099C16.7686 20.0099 17.2586 19.9259 17.6506 19.7579C18.0426 19.5992 18.3366 19.3659 18.5326 19.0579C18.7286 18.7499 18.8266 18.3719 18.8266 17.9239C18.8266 17.3172 18.682 16.9066 18.3926 16.6919C18.1126 16.4679 17.702 16.3559 17.1606 16.3559H15.8866C15.5133 16.3559 15.1726 16.4166 14.8646 16.5379C14.566 16.6499 14.328 16.8366 14.1506 17.0979C13.9733 17.3592 13.8846 17.7092 13.8846 18.1479C13.8846 18.4746 13.9546 18.7779 14.0946 19.0579C14.244 19.3472 14.4866 19.5759 14.8226 19.7439C15.1586 19.9212 15.6113 20.0099 16.1806 20.0099ZM16.2646 13.9059C16.6473 13.9059 16.974 13.8452 17.2446 13.7239C17.5246 13.5932 17.7393 13.3786 17.8886 13.0799C18.038 12.7812 18.1126 12.3846 18.1126 11.8899C18.1126 11.3859 18.038 10.9799 17.8886 10.6719C17.7486 10.3546 17.5386 10.1259 17.2586 9.98591C16.988 9.83658 16.6566 9.76191 16.2646 9.76191C15.9006 9.76191 15.5786 9.83658 15.2986 9.98591C15.0186 10.1352 14.7946 10.3686 14.6266 10.6859C14.468 10.9939 14.3886 11.3999 14.3886 11.9039C14.3886 12.3612 14.468 12.7392 14.6266 13.0379C14.7946 13.3366 15.0186 13.5559 15.2986 13.6959C15.5786 13.8359 15.9006 13.9059 16.2646 13.9059Z" fill="#131313"/>
</svg>
