<svg width="24" height="24" viewBox="0 0 24 24" fill="none" xmlns="http://www.w3.org/2000/svg">
<path d="M6.46922 16.9999L10.5992 6.96191H11.2572L11.2432 16.9999H10.7112L10.7252 13.1919H8.59722L7.02922 16.9999H6.46922ZM8.76522 12.7019H10.7252L10.7672 8.66991C10.7672 8.47391 10.7672 8.28724 10.7672 8.10991C10.7766 7.92324 10.7859 7.76458 10.7952 7.63391H10.7672C10.7299 7.75524 10.6786 7.90458 10.6132 8.08191C10.5479 8.25924 10.4686 8.45991 10.3752 8.68391L8.76522 12.7019ZM13.2844 20.3599C13.0044 20.3599 12.743 20.3179 12.5004 20.2339C12.2577 20.1592 12.0664 20.0846 11.9264 20.0099V19.4639C12.0197 19.5292 12.1364 19.5946 12.2764 19.6599C12.4257 19.7252 12.5844 19.7766 12.7524 19.8139C12.9297 19.8606 13.1117 19.8839 13.2984 19.8839C13.8957 19.8839 14.339 19.6926 14.6284 19.3099C14.9177 18.9272 15.151 18.3439 15.3284 17.5599L15.4964 16.7339C15.515 16.6686 15.5337 16.5892 15.5524 16.4959C15.5804 16.3932 15.6084 16.2812 15.6364 16.1599C15.6644 16.0386 15.6924 15.9172 15.7204 15.7959H15.6924C15.543 16.0759 15.3797 16.3186 15.2024 16.5239C15.0344 16.7199 14.8477 16.8739 14.6424 16.9859C14.4464 17.0886 14.2177 17.1399 13.9564 17.1399C13.667 17.1399 13.4197 17.0606 13.2144 16.9019C13.009 16.7432 12.8504 16.5099 12.7384 16.2019C12.6357 15.8939 12.5844 15.5159 12.5844 15.0679C12.5844 14.6386 12.6217 14.1719 12.6964 13.6679C12.7804 13.1639 12.9017 12.6646 13.0604 12.1699C13.219 11.6752 13.415 11.2272 13.6484 10.8259C13.8817 10.4152 14.157 10.0886 14.4744 9.84591C14.7917 9.59391 15.151 9.46791 15.5524 9.46791C15.8044 9.46791 16.0144 9.52391 16.1824 9.63591C16.3504 9.74791 16.481 9.89724 16.5744 10.0839C16.6677 10.2612 16.733 10.4712 16.7704 10.7139H16.8124L17.0784 9.60791H17.4984L15.8044 17.6439C15.6737 18.2226 15.5057 18.7126 15.3004 19.1139C15.1044 19.5246 14.843 19.8326 14.5164 20.0379C14.1897 20.2526 13.779 20.3599 13.2844 20.3599ZM14.0684 16.6639C14.3577 16.6639 14.619 16.5566 14.8524 16.3419C15.0857 16.1272 15.291 15.8426 15.4684 15.4879C15.655 15.1332 15.809 14.7459 15.9304 14.3259C16.061 13.9059 16.1684 13.4952 16.2524 13.0939C16.3364 12.6832 16.397 12.3099 16.4344 11.9739C16.4717 11.6379 16.4904 11.3812 16.4904 11.2039C16.4904 10.8212 16.4064 10.5179 16.2384 10.2939C16.0797 10.0606 15.851 9.94391 15.5524 9.94391C15.2444 9.94391 14.9597 10.0606 14.6984 10.2939C14.437 10.5179 14.2084 10.8166 14.0124 11.1899C13.8164 11.5632 13.6484 11.9739 13.5084 12.4219C13.3777 12.8699 13.2797 13.3226 13.2144 13.7799C13.149 14.2372 13.1164 14.6526 13.1164 15.0259C13.1164 15.6046 13.2004 16.0246 13.3684 16.2859C13.5364 16.5379 13.7697 16.6639 14.0684 16.6639Z" fill="#131313"/>
</svg>
