<svg width="24" height="24" viewBox="0 0 24 24" fill="none" xmlns="http://www.w3.org/2000/svg">
<path d="M4.52214 16.9999V16.8599H4.94214C5.11947 16.8599 5.26414 16.8319 5.37614 16.7759C5.48814 16.7106 5.58614 16.6032 5.67014 16.4539C5.75414 16.2952 5.83814 16.0666 5.92214 15.7679L8.47014 7.00391H9.47814L12.3061 16.1319C12.3621 16.3186 12.4228 16.4679 12.4881 16.5799C12.5535 16.6826 12.6328 16.7572 12.7261 16.8039C12.8195 16.8412 12.9408 16.8599 13.0901 16.8599H13.2021V16.9999H9.67414V16.8599H10.1221C10.3928 16.8599 10.5748 16.8226 10.6681 16.7479C10.7708 16.6732 10.8221 16.5612 10.8221 16.4119C10.8221 16.3466 10.8128 16.2766 10.7941 16.2019C10.7848 16.1179 10.7661 16.0292 10.7381 15.9359C10.7101 15.8332 10.6821 15.7352 10.6541 15.6419L9.99614 13.3599H6.77614L6.17414 15.4459C6.13681 15.5672 6.10414 15.6886 6.07614 15.8099C6.04814 15.9219 6.02014 16.0292 5.99214 16.1319C5.97347 16.2252 5.96414 16.3092 5.96414 16.3839C5.96414 16.5519 6.02481 16.6732 6.14614 16.7479C6.26747 16.8226 6.46814 16.8599 6.74814 16.8599H7.35014V16.9999H4.52214ZM6.81814 13.2199H9.95414L9.00214 9.83191C8.89947 9.46791 8.81081 9.15524 8.73614 8.89391C8.66147 8.62324 8.59614 8.38991 8.54014 8.19391C8.49347 7.98858 8.44681 7.80191 8.40014 7.63391C8.35347 7.81124 8.31147 7.97458 8.27414 8.12391C8.23681 8.26391 8.19947 8.40391 8.16214 8.54391C8.12481 8.68391 8.08281 8.82858 8.03614 8.97791C7.98947 9.12724 7.93814 9.29524 7.88214 9.48191L6.81814 13.2199ZM15.7717 20.3459C14.8944 20.3459 14.227 20.1826 13.7697 19.8559C13.3217 19.5386 13.0977 19.0906 13.0977 18.5119C13.0977 18.2039 13.1677 17.9332 13.3077 17.6999C13.4477 17.4759 13.6624 17.2892 13.9517 17.1399C14.241 16.9999 14.6004 16.9019 15.0297 16.8459C14.6377 16.7712 14.3437 16.6126 14.1477 16.3699C13.961 16.1179 13.8677 15.8472 13.8677 15.5579C13.8677 15.2779 13.9564 15.0119 14.1337 14.7599C14.311 14.5079 14.591 14.2979 14.9737 14.1299C14.563 13.9712 14.2317 13.7052 13.9797 13.3319C13.737 12.9586 13.6157 12.4966 13.6157 11.9459C13.6157 11.0872 13.8117 10.4432 14.2037 10.0139C14.605 9.57524 15.2117 9.35591 16.0237 9.35591C16.3224 9.35591 16.5977 9.40258 16.8497 9.49591C17.111 9.57991 17.3397 9.70591 17.5357 9.87391C17.6197 9.73391 17.713 9.60324 17.8157 9.48191C17.9184 9.35124 18.0397 9.24391 18.1797 9.15991C18.3197 9.06658 18.483 9.01991 18.6697 9.01991C18.903 9.01991 19.0804 9.09458 19.2017 9.24391C19.3324 9.39324 19.3977 9.57058 19.3977 9.77591C19.3977 9.96258 19.3417 10.1259 19.2297 10.2659C19.127 10.3966 18.9497 10.4619 18.6977 10.4619C18.6977 10.1632 18.6557 9.94391 18.5717 9.80391C18.497 9.66391 18.3757 9.59391 18.2077 9.59391C18.0957 9.59391 17.9977 9.62658 17.9137 9.69191C17.8297 9.74791 17.7364 9.84124 17.6337 9.97191C17.8577 10.1866 18.0304 10.4526 18.1517 10.7699C18.2824 11.0872 18.3477 11.4606 18.3477 11.8899C18.3477 12.6179 18.1564 13.2059 17.7737 13.6539C17.4004 14.0926 16.8124 14.3119 16.0097 14.3119C15.8604 14.3119 15.7064 14.3026 15.5477 14.2839C15.3984 14.2652 15.2537 14.2326 15.1137 14.1859C14.955 14.3072 14.843 14.4332 14.7777 14.5639C14.7124 14.6852 14.6797 14.8159 14.6797 14.9559C14.6797 15.1892 14.759 15.3712 14.9177 15.5019C15.0764 15.6232 15.3004 15.6839 15.5897 15.6839H16.8497C17.363 15.6839 17.7784 15.7726 18.0957 15.9499C18.4224 16.1179 18.6604 16.3559 18.8097 16.6639C18.959 16.9626 19.0337 17.3219 19.0337 17.7419C19.0337 18.5352 18.7677 19.1652 18.2357 19.6319C17.7037 20.1079 16.8824 20.3459 15.7717 20.3459ZM15.9257 20.2059C16.4017 20.2059 16.7937 20.1312 17.1017 19.9819C17.419 19.8326 17.6524 19.6132 17.8017 19.3239C17.951 19.0439 18.0257 18.7032 18.0257 18.3019C18.0257 17.8446 17.9184 17.4946 17.7037 17.2519C17.4984 17.0186 17.1344 16.9019 16.6117 16.9019H15.5477C15.2957 16.9019 15.0624 16.9579 14.8477 17.0699C14.6424 17.1912 14.4744 17.3686 14.3437 17.6019C14.2224 17.8352 14.1617 18.1386 14.1617 18.5119C14.1617 18.9039 14.2317 19.2212 14.3717 19.4639C14.521 19.7159 14.7264 19.9026 14.9877 20.0239C15.2584 20.1452 15.571 20.2059 15.9257 20.2059ZM15.9817 14.1719C16.243 14.1719 16.4484 14.1019 16.5977 13.9619C16.7564 13.8126 16.8684 13.5746 16.9337 13.2479C17.0084 12.9119 17.0457 12.4592 17.0457 11.8899C17.0457 11.2739 17.0084 10.7932 16.9337 10.4479C16.859 10.1026 16.7424 9.85991 16.5837 9.71991C16.4344 9.57058 16.229 9.49591 15.9677 9.49591C15.725 9.49591 15.5244 9.57058 15.3657 9.71991C15.207 9.86924 15.0904 10.1212 15.0157 10.4759C14.941 10.8306 14.9037 11.3112 14.9037 11.9179C14.9037 12.4686 14.941 12.9119 15.0157 13.2479C15.0904 13.5746 15.207 13.8126 15.3657 13.9619C15.5244 14.1019 15.7297 14.1719 15.9817 14.1719Z" fill="#131313"/>
</svg>
