<svg width="24" height="24" viewBox="0 0 24 24" fill="none" xmlns="http://www.w3.org/2000/svg">
<path d="M9.62493 16.9996L8.98093 14.6056H5.85893L5.20093 16.9996H3.00293L6.12493 6.97559H8.67293L11.8229 16.9996H9.62493ZM7.88893 10.4336C7.84226 10.2469 7.79093 10.0416 7.73493 9.81759C7.67893 9.58426 7.61826 9.35559 7.55293 9.13159C7.49693 8.89826 7.45026 8.68826 7.41293 8.50159C7.3756 8.67892 7.32426 8.89359 7.25893 9.14559C7.20293 9.38826 7.14693 9.62626 7.09093 9.85959C7.03493 10.0929 6.98826 10.2796 6.95093 10.4196L6.29293 12.8696H8.54693L7.88893 10.4336ZM15.0973 9.21559C15.5266 9.21559 15.9046 9.30426 16.2313 9.48159C16.5673 9.65892 16.852 9.94359 17.0853 10.3356H17.1693L17.3233 9.35559H19.0173V16.8596C19.0173 17.6156 18.8866 18.2503 18.6253 18.7636C18.364 19.2863 17.9626 19.6829 17.4213 19.9536C16.8893 20.2243 16.2173 20.3596 15.4053 20.3596C14.9106 20.3596 14.4533 20.3223 14.0333 20.2476C13.6226 20.1729 13.2213 20.0516 12.8293 19.8836V18.2316C13.1186 18.3623 13.4033 18.4696 13.6833 18.5536C13.9726 18.6469 14.2666 18.7123 14.5653 18.7496C14.864 18.7963 15.1626 18.8196 15.4613 18.8196C15.9746 18.8196 16.362 18.6843 16.6233 18.4136C16.894 18.1429 17.0293 17.7229 17.0293 17.1536V16.9996C17.0293 16.8409 17.034 16.6729 17.0433 16.4956C17.062 16.3089 17.0806 16.1409 17.0993 15.9916H17.0293C16.7866 16.3929 16.502 16.6869 16.1753 16.8736C15.8486 17.0509 15.4706 17.1396 15.0413 17.1396C14.22 17.1396 13.576 16.7943 13.1093 16.1036C12.6426 15.4129 12.4093 14.4469 12.4093 13.2056C12.4093 12.3563 12.5166 11.6376 12.7313 11.0496C12.946 10.4523 13.254 9.99959 13.6553 9.69159C14.0566 9.37426 14.5373 9.21559 15.0973 9.21559ZM15.7133 10.8676C15.4333 10.8676 15.1953 10.9563 14.9993 11.1336C14.8033 11.3016 14.6586 11.5629 14.5653 11.9176C14.472 12.2629 14.4253 12.7016 14.4253 13.2336C14.4253 14.0083 14.5326 14.5823 14.7473 14.9556C14.962 15.3289 15.2933 15.5156 15.7413 15.5156C15.9746 15.5156 16.1753 15.4783 16.3433 15.4036C16.5206 15.3289 16.6653 15.2123 16.7773 15.0536C16.8893 14.8856 16.9733 14.6709 17.0293 14.4096C17.0946 14.1483 17.1273 13.8309 17.1273 13.4576V13.1636C17.1273 12.6129 17.076 12.1696 16.9733 11.8336C16.88 11.4976 16.726 11.2549 16.5113 11.1056C16.306 10.9469 16.04 10.8676 15.7133 10.8676Z" fill="#131313"/>
</svg>
