<svg width="24" height="24" viewBox="0 0 24 24" fill="none" xmlns="http://www.w3.org/2000/svg">
<path d="M9.63285 17.0009L9.14285 15.1249H5.89485L5.39085 17.0009H2.42285L5.68485 6.96289H9.28285L12.5869 17.0009H9.63285ZM8.14885 11.2749C8.10219 11.0976 8.03685 10.8456 7.95285 10.5189C7.86885 10.1829 7.78485 9.83756 7.70085 9.48289C7.61685 9.12822 7.55152 8.83889 7.50485 8.61489C7.46752 8.83889 7.40685 9.11889 7.32285 9.45489C7.24819 9.79089 7.16885 10.1222 7.08485 10.4489C7.01019 10.7756 6.94485 11.0509 6.88885 11.2749L6.45485 12.9129H8.58285L8.14885 11.2749ZM15.9831 9.11889C16.5244 9.11889 16.9584 9.22622 17.2851 9.44089C17.6211 9.64622 17.8917 9.90289 18.0971 10.2109H18.1531L18.3491 9.25889H20.6591V17.0149C20.6591 17.7429 20.5097 18.3542 20.2111 18.8489C19.9124 19.3436 19.4551 19.7169 18.8391 19.9689C18.2324 20.2302 17.4624 20.3609 16.5291 20.3609C15.9037 20.3609 15.3531 20.3282 14.8771 20.2629C14.4011 20.1976 13.9437 20.0809 13.5051 19.9129V17.6869C13.9717 17.8829 14.4151 18.0276 14.8351 18.1209C15.2551 18.2236 15.7684 18.2749 16.3751 18.2749C16.9164 18.2749 17.3177 18.1769 17.5791 17.9809C17.8497 17.7849 17.9851 17.5002 17.9851 17.1269V16.9869C17.9851 16.8656 17.9897 16.7209 17.9991 16.5529C18.0177 16.3849 18.0411 16.2076 18.0691 16.0209H17.9851C17.8077 16.3289 17.5557 16.5949 17.2291 16.8189C16.9024 17.0336 16.4731 17.1409 15.9411 17.1409C15.1197 17.1409 14.4524 16.8002 13.9391 16.1189C13.4257 15.4376 13.1691 14.4436 13.1691 13.1369C13.1691 11.8302 13.4304 10.8362 13.9531 10.1549C14.4757 9.46422 15.1524 9.11889 15.9831 9.11889ZM16.9911 11.1909C16.7484 11.1909 16.5431 11.2656 16.3751 11.4149C16.2071 11.5642 16.0811 11.7882 15.9971 12.0869C15.9224 12.3762 15.8851 12.7402 15.8851 13.1789C15.8851 13.8509 15.9784 14.3362 16.1651 14.6349C16.3517 14.9242 16.6411 15.0689 17.0331 15.0689C17.2477 15.0689 17.4297 15.0362 17.5791 14.9709C17.7284 14.8962 17.8451 14.7936 17.9291 14.6629C18.0224 14.5229 18.0877 14.3502 18.1251 14.1449C18.1717 13.9396 18.1951 13.6969 18.1951 13.4169V13.0949C18.1951 12.6936 18.1577 12.3529 18.0831 12.0729C18.0177 11.7836 17.8964 11.5642 17.7191 11.4149C17.5511 11.2656 17.3084 11.1909 16.9911 11.1909Z" fill="#131313"/>
</svg>
