<svg width="24" height="24" viewBox="0 0 24 24" fill="none" xmlns="http://www.w3.org/2000/svg">
<path d="M4.15366 16.9999V16.2999H4.29366C4.44299 16.2999 4.57366 16.2719 4.68566 16.2159C4.79766 16.1599 4.90032 16.0572 4.99366 15.9079C5.08699 15.7586 5.17566 15.5392 5.25966 15.2499L7.90566 7.00391H9.62766L12.2177 15.4459C12.283 15.6606 12.3623 15.8332 12.4557 15.9639C12.549 16.0852 12.6517 16.1739 12.7637 16.2299C12.885 16.2766 13.0203 16.2999 13.1697 16.2999H13.3237V16.9999H9.24966V16.2999H9.66966C9.82832 16.2999 9.96366 16.2579 10.0757 16.1739C10.1877 16.0899 10.2437 15.9592 10.2437 15.7819C10.2437 15.7072 10.2343 15.6279 10.2157 15.5439C10.2063 15.4599 10.1923 15.3759 10.1737 15.2919C10.155 15.2079 10.1363 15.1332 10.1177 15.0679L9.71166 13.6959H6.77166L6.43566 14.8999C6.41699 14.9746 6.39366 15.0632 6.36566 15.1659C6.33766 15.2592 6.31432 15.3572 6.29566 15.4599C6.27699 15.5626 6.26766 15.6559 6.26766 15.7399C6.26766 15.9079 6.31432 16.0432 6.40766 16.1459C6.51032 16.2486 6.65966 16.2999 6.85566 16.2999H7.33166V16.9999H4.15366ZM7.03766 12.8699H9.45966L8.77366 10.3079C8.71766 10.0839 8.65699 9.86458 8.59166 9.64991C8.53566 9.42591 8.47966 9.20658 8.42366 8.99191C8.37699 8.76791 8.33499 8.56258 8.29766 8.37591C8.26032 8.51591 8.22299 8.66524 8.18566 8.82391C8.14832 8.97324 8.10632 9.12724 8.05966 9.28591C8.02232 9.44458 7.98032 9.60324 7.93366 9.76191C7.88699 9.92058 7.84032 10.0792 7.79366 10.2379L7.03766 12.8699ZM15.9227 20.3179C14.9614 20.3179 14.2427 20.1499 13.7667 19.8139C13.2907 19.4872 13.0527 19.0066 13.0527 18.3719C13.0527 18.0359 13.1181 17.7466 13.2487 17.5039C13.3887 17.2612 13.5847 17.0699 13.8367 16.9299C14.0887 16.7899 14.3781 16.7012 14.7047 16.6639C14.4901 16.5612 14.2801 16.4212 14.0747 16.2439C13.8787 16.0572 13.7807 15.8052 13.7807 15.4879C13.7807 15.1892 13.8881 14.9279 14.1027 14.7039C14.3174 14.4799 14.5881 14.2652 14.9147 14.0599C14.5227 13.9106 14.2007 13.6539 13.9487 13.2899C13.7061 12.9166 13.5847 12.4592 13.5847 11.9179C13.5847 11.0966 13.7994 10.4619 14.2287 10.0139C14.6581 9.55658 15.3207 9.32791 16.2167 9.32791C16.5247 9.32791 16.8001 9.36524 17.0427 9.43991C17.2854 9.51458 17.5047 9.61724 17.7007 9.74791C17.8314 9.60791 17.9621 9.47724 18.0927 9.35591C18.2234 9.23458 18.3634 9.13658 18.5127 9.06191C18.6621 8.98724 18.8347 8.94991 19.0307 8.94991C19.3014 8.94991 19.5067 9.02924 19.6467 9.18791C19.7867 9.34658 19.8567 9.53324 19.8567 9.74791C19.8567 9.95324 19.7961 10.1399 19.6747 10.3079C19.5534 10.4666 19.3341 10.5459 19.0167 10.5459C19.0167 10.3592 18.9654 10.2146 18.8627 10.1119C18.7694 10.0092 18.6714 9.95791 18.5687 9.95791C18.4847 9.95791 18.4054 9.97191 18.3307 9.99991C18.2561 10.0279 18.1907 10.0652 18.1347 10.1119C18.3121 10.3079 18.4614 10.5506 18.5827 10.8399C18.7134 11.1292 18.7787 11.4699 18.7787 11.8619C18.7787 12.5899 18.5734 13.1872 18.1627 13.6539C17.7521 14.1112 17.1034 14.3399 16.2167 14.3399C16.1234 14.3399 16.0021 14.3352 15.8527 14.3259C15.7034 14.3166 15.5867 14.3026 15.5027 14.2839C15.4001 14.3492 15.3021 14.4519 15.2087 14.5919C15.1247 14.7226 15.0827 14.8719 15.0827 15.0399C15.0827 15.2172 15.1387 15.3479 15.2507 15.4319C15.3721 15.5159 15.5214 15.5579 15.6987 15.5579H17.1267C17.6681 15.5579 18.1114 15.6419 18.4567 15.8099C18.8114 15.9779 19.0727 16.2206 19.2407 16.5379C19.4087 16.8552 19.4927 17.2239 19.4927 17.6439C19.4927 18.4746 19.1987 19.1279 18.6107 19.6039C18.0321 20.0799 17.1361 20.3179 15.9227 20.3179ZM15.9647 19.5199C16.4314 19.5199 16.8141 19.4592 17.1127 19.3379C17.4114 19.2166 17.6307 19.0486 17.7707 18.8339C17.9201 18.6192 17.9947 18.3672 17.9947 18.0779C17.9947 17.7512 17.9107 17.5179 17.7427 17.3779C17.5841 17.2379 17.3461 17.1679 17.0287 17.1679H15.6007C15.4421 17.1679 15.2787 17.2006 15.1107 17.2659C14.9521 17.3312 14.8167 17.4479 14.7047 17.6159C14.5927 17.7839 14.5367 18.0219 14.5367 18.3299C14.5367 18.5819 14.5927 18.7966 14.7047 18.9739C14.8167 19.1512 14.9801 19.2866 15.1947 19.3799C15.4094 19.4732 15.6661 19.5199 15.9647 19.5199ZM16.1747 13.5699C16.4267 13.5699 16.6134 13.5046 16.7347 13.3739C16.8654 13.2432 16.9541 13.0519 17.0007 12.7999C17.0567 12.5386 17.0847 12.2352 17.0847 11.8899C17.0847 11.5259 17.0567 11.2132 17.0007 10.9519C16.9541 10.6812 16.8654 10.4759 16.7347 10.3359C16.6041 10.1866 16.4221 10.1119 16.1887 10.1119C15.9554 10.1119 15.7734 10.1866 15.6427 10.3359C15.5121 10.4852 15.4187 10.6952 15.3627 10.9659C15.3067 11.2272 15.2787 11.5399 15.2787 11.9039C15.2787 12.2399 15.3067 12.5339 15.3627 12.7859C15.4187 13.0379 15.5121 13.2339 15.6427 13.3739C15.7827 13.5046 15.9601 13.5699 16.1747 13.5699Z" fill="#131313"/>
</svg>
