<svg width="24" height="24" viewBox="0 0 24 24" fill="none" xmlns="http://www.w3.org/2000/svg">
<path d="M4.22836 16.9996L8.69436 6.97559H11.0324L11.3124 16.9996H9.40836V14.5076H7.23836L6.23036 16.9996H4.22836ZM7.92436 12.8976H9.46436L9.49236 9.98559C9.49236 9.75226 9.49236 9.51892 9.49236 9.28559C9.50169 9.05226 9.51569 8.81892 9.53436 8.58559H9.49236C9.43636 8.80959 9.37103 9.02892 9.29636 9.24359C9.22169 9.45826 9.13769 9.68692 9.04436 9.92959L7.92436 12.8976ZM13.9844 20.3596C13.5644 20.3596 13.1817 20.3129 12.8364 20.2196C12.5004 20.1356 12.2017 20.0236 11.9404 19.8836V18.2876C12.1084 18.3903 12.2997 18.4836 12.5144 18.5676C12.7384 18.6609 12.9764 18.7309 13.2284 18.7776C13.4804 18.8336 13.7231 18.8616 13.9564 18.8616C14.3764 18.8616 14.7077 18.7403 14.9504 18.4976C15.1931 18.2549 15.3657 17.9049 15.4684 17.4476L15.5524 17.1116C15.5711 17.0183 15.5944 16.9109 15.6224 16.7896C15.6597 16.6683 15.6924 16.5516 15.7204 16.4396C15.7577 16.3183 15.7904 16.2156 15.8184 16.1316H15.7904C15.6317 16.3463 15.4684 16.5283 15.3004 16.6776C15.1324 16.8269 14.9504 16.9389 14.7544 17.0136C14.5677 17.0976 14.3531 17.1396 14.1104 17.1396C13.7931 17.1396 13.5131 17.0556 13.2704 16.8876C13.0371 16.7103 12.8504 16.4489 12.7104 16.1036C12.5704 15.7583 12.5004 15.3336 12.5004 14.8296C12.5004 14.3909 12.5424 13.9196 12.6264 13.4156C12.7197 12.9116 12.8504 12.4169 13.0184 11.9316C13.1957 11.4369 13.4104 10.9843 13.6624 10.5736C13.9144 10.1629 14.2084 9.83626 14.5444 9.59359C14.8804 9.35092 15.2584 9.22959 15.6784 9.22959C15.9397 9.22959 16.1591 9.27159 16.3364 9.35559C16.5137 9.43959 16.6631 9.56092 16.7844 9.71959C16.9057 9.87826 17.0084 10.0789 17.0924 10.3216H17.1344L17.4704 9.36959H18.9544L17.2604 17.3776C17.1111 18.0963 16.8871 18.6749 16.5884 19.1136C16.2897 19.5523 15.9211 19.8696 15.4824 20.0656C15.0531 20.2616 14.5537 20.3596 13.9844 20.3596ZM14.9504 15.6136C15.1277 15.6136 15.2911 15.5483 15.4404 15.4176C15.5897 15.2776 15.7251 15.0956 15.8464 14.8716C15.9677 14.6476 16.0751 14.3956 16.1684 14.1156C16.2711 13.8356 16.3504 13.5463 16.4064 13.2476C16.4717 12.9489 16.5184 12.6643 16.5464 12.3936C16.5837 12.1229 16.6024 11.8849 16.6024 11.6796C16.6024 11.3903 16.5464 11.1663 16.4344 11.0076C16.3317 10.8396 16.1731 10.7556 15.9584 10.7556C15.7624 10.7556 15.5804 10.8443 15.4124 11.0216C15.2537 11.1989 15.1091 11.4369 14.9784 11.7356C14.8477 12.0249 14.7357 12.3469 14.6424 12.7016C14.5491 13.0469 14.4791 13.3829 14.4324 13.7096C14.3857 14.0363 14.3624 14.3256 14.3624 14.5776C14.3624 14.9229 14.4137 15.1843 14.5164 15.3616C14.6191 15.5296 14.7637 15.6136 14.9504 15.6136Z" fill="#131313"/>
</svg>
