<svg width="24" height="24" viewBox="0 0 24 24" fill="none" xmlns="http://www.w3.org/2000/svg">
<path d="M11.2253 16.9996L9.9933 13.5556H6.1013L4.8693 16.9996H4.0293L7.7113 6.97559H8.4673L12.0653 16.9996H11.2253ZM8.5093 9.21559C8.4813 9.12226 8.4393 8.99626 8.3833 8.83759C8.3273 8.67892 8.2713 8.51092 8.2153 8.33359C8.16863 8.15626 8.12196 7.99759 8.0753 7.85759C8.02863 8.01626 7.9773 8.17959 7.9213 8.34759C7.87463 8.51559 7.8233 8.67426 7.7673 8.82359C7.72063 8.97292 7.67863 9.10826 7.6413 9.22959L6.3673 12.8276H9.7413L8.5093 9.21559ZM15.7784 9.41159C16.3197 9.41159 16.7677 9.52826 17.1224 9.76159C17.4864 9.98559 17.7804 10.2936 18.0044 10.6856H18.0464L18.1724 9.55159H18.8164V17.2376C18.8164 17.8909 18.709 18.4463 18.4944 18.9036C18.289 19.3703 17.9624 19.7296 17.5144 19.9816C17.0664 20.2336 16.4877 20.3596 15.7784 20.3596C15.2464 20.3596 14.775 20.3129 14.3644 20.2196C13.963 20.1263 13.599 20.0049 13.2724 19.8556V19.0856C13.4964 19.1976 13.739 19.3003 14.0004 19.3936C14.2617 19.4869 14.5464 19.5569 14.8544 19.6036C15.1624 19.6503 15.4797 19.6736 15.8064 19.6736C16.5624 19.6736 17.1224 19.4589 17.4864 19.0296C17.8504 18.6003 18.0324 18.0216 18.0324 17.2936V16.8456C18.0324 16.6496 18.0324 16.4536 18.0324 16.2576C18.0417 16.0523 18.051 15.8609 18.0604 15.6836H18.0184C17.8224 16.1596 17.5237 16.5236 17.1224 16.7756C16.7304 17.0183 16.2497 17.1396 15.6804 17.1396C14.7844 17.1396 14.0797 16.8129 13.5664 16.1596C13.0624 15.5063 12.8104 14.5683 12.8104 13.3456C12.8104 12.5336 12.9224 11.8336 13.1464 11.2456C13.3797 10.6576 13.7157 10.2049 14.1544 9.88759C14.6024 9.57026 15.1437 9.41159 15.7784 9.41159ZM15.8764 10.0976C15.3817 10.0976 14.9664 10.2283 14.6304 10.4896C14.3037 10.7416 14.0564 11.1103 13.8884 11.5956C13.7204 12.0716 13.6364 12.6549 13.6364 13.3456C13.6364 14.3629 13.8184 15.1376 14.1824 15.6696C14.5557 16.2016 15.0924 16.4676 15.7924 16.4676C16.2217 16.4676 16.581 16.3976 16.8704 16.2576C17.1597 16.1083 17.3884 15.9029 17.5564 15.6416C17.7244 15.3803 17.8457 15.0723 17.9204 14.7176C17.995 14.3536 18.0324 13.9663 18.0324 13.5556V13.0656C18.0324 12.4309 17.9624 11.8943 17.8224 11.4556C17.6824 11.0169 17.4537 10.6809 17.1364 10.4476C16.819 10.2143 16.399 10.0976 15.8764 10.0976Z" fill="#131313"/>
</svg>
