<svg width="24" height="24" viewBox="0 0 24 24" fill="none" xmlns="http://www.w3.org/2000/svg">
<path d="M5.54053 16.9999L10.0905 6.96191H10.5105L10.8465 16.9999H10.4965L10.3565 13.0799H7.71053L5.93253 16.9999H5.54053ZM7.86453 12.7299H10.3425L10.2305 8.57191C10.2212 8.37591 10.2119 8.18458 10.2025 7.99791C10.2025 7.81124 10.2025 7.64324 10.2025 7.49391H10.1745C10.1185 7.64324 10.0485 7.80658 9.96453 7.98391C9.88053 8.16124 9.79186 8.35724 9.69853 8.57191L7.86453 12.7299ZM13.0989 20.3599C12.8002 20.3599 12.5156 20.3179 12.2449 20.2339C11.9836 20.1499 11.7736 20.0659 11.6149 19.9819V19.5759C11.7269 19.6412 11.8622 19.7066 12.0209 19.7719C12.1796 19.8466 12.3522 19.9026 12.5389 19.9399C12.7256 19.9866 12.9122 20.0099 13.0989 20.0099C13.7802 20.0099 14.2889 19.7952 14.6249 19.3659C14.9609 18.9459 15.2176 18.3252 15.3949 17.5039L15.5769 16.6919C15.6049 16.5892 15.6282 16.4726 15.6469 16.3419C15.6749 16.2112 15.7076 16.0759 15.7449 15.9359C15.7822 15.7959 15.8149 15.6559 15.8429 15.5159H15.8149C15.6562 15.8146 15.4742 16.0899 15.2689 16.3419C15.0636 16.5846 14.8302 16.7806 14.5689 16.9299C14.3169 17.0699 14.0369 17.1399 13.7289 17.1399C13.3929 17.1399 13.1082 17.0559 12.8749 16.8879C12.6509 16.7106 12.4829 16.4539 12.3709 16.1179C12.2589 15.7819 12.2029 15.3852 12.2029 14.9279C12.2029 14.4799 12.2449 14.0086 12.3289 13.5139C12.4222 13.0192 12.5529 12.5339 12.7209 12.0579C12.8889 11.5819 13.0942 11.1526 13.3369 10.7699C13.5889 10.3779 13.8829 10.0652 14.2189 9.83191C14.5549 9.59858 14.9329 9.48191 15.3529 9.48191C15.6516 9.48191 15.9036 9.55191 16.1089 9.69191C16.3142 9.83191 16.4682 10.0092 16.5709 10.2239C16.6829 10.4386 16.7529 10.6766 16.7809 10.9379H16.8229L17.1309 9.62191H17.4249L15.7309 17.6019C15.6096 18.1712 15.4416 18.6612 15.2269 19.0719C15.0216 19.4919 14.7462 19.8092 14.4009 20.0239C14.0556 20.2479 13.6216 20.3599 13.0989 20.3599ZM13.7569 16.7899C14.0649 16.7899 14.3402 16.6919 14.5829 16.4959C14.8349 16.2999 15.0636 16.0386 15.2689 15.7119C15.4742 15.3852 15.6562 15.0259 15.8149 14.6339C15.9736 14.2326 16.1042 13.8312 16.2069 13.4299C16.3189 13.0192 16.4029 12.6366 16.4589 12.2819C16.5149 11.9272 16.5429 11.6332 16.5429 11.3999C16.5429 10.9052 16.4356 10.5226 16.2209 10.2519C16.0062 9.97191 15.7076 9.83191 15.3249 9.83191C14.9796 9.83191 14.6576 9.94391 14.3589 10.1679C14.0696 10.3826 13.8129 10.6719 13.5889 11.0359C13.3742 11.3999 13.1922 11.8059 13.0429 12.2539C12.8936 12.7019 12.7769 13.1546 12.6929 13.6119C12.6182 14.0692 12.5809 14.4986 12.5809 14.8999C12.5809 15.5439 12.6789 16.0199 12.8749 16.3279C13.0802 16.6359 13.3742 16.7899 13.7569 16.7899Z" fill="#131313"/>
</svg>
