<svg width="24" height="24" viewBox="0 0 24 24" fill="none" xmlns="http://www.w3.org/2000/svg">
<path d="M3.08691 16.9999L6.48891 6.96191H9.56891L12.9989 16.9999H10.3809L9.75091 14.8719H6.34891L5.70491 16.9999H3.08691ZM6.88091 12.8839H9.21891L8.64491 10.9519C8.59825 10.8026 8.53291 10.5786 8.44891 10.2799C8.37425 9.97191 8.29491 9.65458 8.21091 9.32791C8.13625 9.00124 8.08025 8.73991 8.04291 8.54391C7.99625 8.75858 7.93558 9.01991 7.86091 9.32791C7.79558 9.62658 7.72558 9.92524 7.65091 10.2239C7.57625 10.5132 7.51091 10.7559 7.45491 10.9519L6.88091 12.8839ZM16.975 20.3599C16.3684 20.3599 15.827 20.3226 15.351 20.2479C14.8844 20.1826 14.441 20.0706 14.021 19.9119V17.9099C14.4597 18.1059 14.8937 18.2506 15.323 18.3439C15.7617 18.4466 16.275 18.4979 16.863 18.4979C17.423 18.4979 17.8477 18.3812 18.137 18.1479C18.4264 17.9146 18.571 17.5786 18.571 17.1399V16.9719C18.571 16.8506 18.5757 16.7012 18.585 16.5239C18.6037 16.3466 18.6224 16.1786 18.641 16.0199H18.571C18.375 16.3372 18.1044 16.6032 17.759 16.8179C17.423 17.0326 16.9937 17.1399 16.471 17.1399C15.6124 17.1399 14.9217 16.7992 14.399 16.1179C13.8857 15.4366 13.629 14.4519 13.629 13.1639C13.629 11.8759 13.8904 10.8912 14.413 10.2099C14.945 9.51924 15.6404 9.17391 16.499 9.17391C17.031 9.17391 17.4697 9.27658 17.815 9.48191C18.1604 9.68724 18.4404 9.94858 18.655 10.2659H18.725L18.907 9.31391H20.937V17.0419C20.937 17.7606 20.7924 18.3672 20.503 18.8619C20.223 19.3566 19.789 19.7299 19.201 19.9819C18.613 20.2339 17.871 20.3599 16.975 20.3599ZM17.367 15.2919C17.619 15.2919 17.829 15.2546 17.997 15.1799C18.1744 15.1052 18.3144 14.9932 18.417 14.8439C18.529 14.6852 18.6084 14.4939 18.655 14.2699C18.711 14.0366 18.739 13.7612 18.739 13.4439V13.1359C18.739 12.6692 18.6924 12.2819 18.599 11.9739C18.515 11.6566 18.3704 11.4186 18.165 11.2599C17.9597 11.1012 17.6797 11.0219 17.325 11.0219C16.8957 11.0219 16.5737 11.2086 16.359 11.5819C16.1444 11.9459 16.037 12.4826 16.037 13.1919C16.037 13.9199 16.1444 14.4519 16.359 14.7879C16.583 15.1239 16.919 15.2919 17.367 15.2919Z" fill="#131313"/>
</svg>
