<svg width="24" height="24" viewBox="0 0 24 24" fill="none" xmlns="http://www.w3.org/2000/svg">
<path d="M9.01134 16.9999L8.67534 15.1239H5.83334L5.46934 16.9999H2.31934L5.24534 6.96191H9.16534L12.1333 16.9999H9.01134ZM7.73734 11.2459C7.69067 11.0219 7.63467 10.7699 7.56934 10.4899C7.504 10.2099 7.43867 9.92058 7.37334 9.62191C7.31734 9.31391 7.27067 9.02458 7.23334 8.75391C7.196 9.02458 7.14934 9.30924 7.09334 9.60791C7.03734 9.90658 6.98134 10.1959 6.92534 10.4759C6.86934 10.7559 6.81334 11.0079 6.75734 11.2319L6.36534 12.9119H8.12934L7.73734 11.2459ZM15.2437 9.11791C15.7944 9.11791 16.2144 9.22524 16.5037 9.43991C16.8024 9.64524 17.0264 9.90191 17.1757 10.2099H17.2317L17.4277 9.25791H19.8917V17.0139C19.8917 17.7419 19.7471 18.3532 19.4577 18.8479C19.1684 19.3426 18.7251 19.7159 18.1277 19.9679C17.5397 20.2292 16.7791 20.3599 15.8457 20.3599C15.2204 20.3599 14.6791 20.3272 14.2217 20.2619C13.7644 20.1966 13.3304 20.0799 12.9197 19.9119V17.6859C13.2184 17.8166 13.4891 17.9239 13.7317 18.0079C13.9744 18.1012 14.2357 18.1666 14.5157 18.2039C14.7957 18.2506 15.1411 18.2739 15.5517 18.2739C16.0651 18.2739 16.4431 18.1759 16.6857 17.9799C16.9377 17.7839 17.0637 17.4992 17.0637 17.1259V16.9859C17.0637 16.8646 17.0684 16.7199 17.0777 16.5519C17.0964 16.3839 17.1244 16.2066 17.1617 16.0199H17.0637C16.9424 16.3279 16.7371 16.5939 16.4477 16.8179C16.1677 17.0326 15.7571 17.1399 15.2157 17.1399C14.4784 17.1399 13.8671 16.7992 13.3817 16.1179C12.9057 15.4366 12.6677 14.4426 12.6677 13.1359C12.6677 12.2586 12.7797 11.5259 13.0037 10.9379C13.2277 10.3406 13.5357 9.88791 13.9277 9.57991C14.3197 9.27191 14.7584 9.11791 15.2437 9.11791ZM16.3777 11.1899C16.1911 11.1899 16.0324 11.2646 15.9017 11.4139C15.7804 11.5632 15.6871 11.7872 15.6217 12.0859C15.5657 12.3752 15.5377 12.7392 15.5377 13.1779C15.5377 13.8499 15.6077 14.3352 15.7477 14.6339C15.8971 14.9232 16.1211 15.0679 16.4197 15.0679C16.5971 15.0679 16.7417 15.0352 16.8537 14.9699C16.9751 14.8952 17.0684 14.7926 17.1337 14.6619C17.1991 14.5219 17.2411 14.3492 17.2597 14.1439C17.2877 13.9386 17.3017 13.6959 17.3017 13.4159V13.0939C17.3017 12.6926 17.2784 12.3519 17.2317 12.0719C17.1944 11.7826 17.1104 11.5632 16.9797 11.4139C16.8491 11.2646 16.6484 11.1899 16.3777 11.1899Z" fill="#131313"/>
</svg>
