<svg width="24" height="24" viewBox="0 0 24 24" fill="none" xmlns="http://www.w3.org/2000/svg">
<path d="M11.3222 16.9999L10.3842 13.0659H7.7242L6.7722 16.9999H6.4082L8.7882 7.00391H9.3202L11.6862 16.9999H11.3222ZM9.3202 8.43191C9.28287 8.27324 9.2502 8.13324 9.2222 8.01191C9.1942 7.89058 9.1662 7.76924 9.1382 7.64791C9.1102 7.52658 9.0822 7.40058 9.0542 7.26991C9.0262 7.40058 8.9982 7.52658 8.9702 7.64791C8.9422 7.75991 8.9142 7.88124 8.8862 8.01191C8.8582 8.13324 8.82554 8.27324 8.7882 8.43191L7.8082 12.7159H10.3002L9.3202 8.43191ZM14.5135 9.48191C15.0362 9.48191 15.4282 9.62191 15.6895 9.90191C15.9602 10.1819 16.1469 10.4946 16.2495 10.8399H16.2915L16.3335 9.62191H16.6135V17.4899C16.6135 18.1339 16.5249 18.6706 16.3475 19.0999C16.1702 19.5292 15.8995 19.8512 15.5355 20.0659C15.1715 20.2806 14.7049 20.3879 14.1355 20.3879C13.8369 20.3879 13.5569 20.3506 13.2955 20.2759C13.0342 20.2106 12.7869 20.1079 12.5535 19.9679V19.5759C12.7215 19.6692 12.8849 19.7486 13.0435 19.8139C13.2115 19.8886 13.3842 19.9446 13.5615 19.9819C13.7389 20.0192 13.9302 20.0379 14.1355 20.0379C14.8355 20.0379 15.3629 19.8372 15.7175 19.4359C16.0722 19.0346 16.2495 18.3859 16.2495 17.4899V16.8319C16.2495 16.6172 16.2495 16.4072 16.2495 16.2019C16.2589 15.9872 16.2729 15.7352 16.2915 15.4459H16.2495C16.1469 15.9219 15.9369 16.3232 15.6195 16.6499C15.3115 16.9766 14.9102 17.1399 14.4155 17.1399C13.7529 17.1399 13.2395 16.8319 12.8755 16.2159C12.5115 15.5906 12.3295 14.6292 12.3295 13.3319C12.3295 12.5292 12.4042 11.8432 12.5535 11.2739C12.7029 10.6952 12.9362 10.2519 13.2535 9.94391C13.5802 9.63591 14.0002 9.48191 14.5135 9.48191ZM14.5135 9.83191C14.0749 9.83191 13.7202 9.98124 13.4495 10.2799C13.1789 10.5692 12.9829 10.9752 12.8615 11.4979C12.7495 12.0206 12.6935 12.6319 12.6935 13.3319C12.6935 14.5172 12.8382 15.3899 13.1275 15.9499C13.4169 16.5099 13.8462 16.7899 14.4155 16.7899C14.7515 16.7899 15.0362 16.7059 15.2695 16.5379C15.5029 16.3606 15.6895 16.1319 15.8295 15.8519C15.9789 15.5626 16.0862 15.2499 16.1515 14.9139C16.2169 14.5779 16.2495 14.2419 16.2495 13.9059V12.3939C16.2495 11.9366 16.1889 11.5166 16.0675 11.1339C15.9555 10.7419 15.7735 10.4292 15.5215 10.1959C15.2695 9.95324 14.9335 9.83191 14.5135 9.83191Z" fill="#131313"/>
</svg>
