<svg width="24" height="24" viewBox="0 0 24 24" fill="none" xmlns="http://www.w3.org/2000/svg">
<path d="M3.23162 16.9999L8.35563 7.00391H10.4696L11.3796 16.9999H9.65763L9.46163 14.3399H6.36763L5.10763 16.9999H3.23162ZM7.13763 12.8139H9.37763L9.22363 10.4199C9.20496 10.1212 9.18629 9.80391 9.16763 9.46791C9.14896 9.12258 9.14429 8.80058 9.15363 8.50191H9.12563C9.01363 8.79124 8.89229 9.08991 8.76163 9.39791C8.63096 9.70591 8.48629 10.0279 8.32763 10.3639L7.13763 12.8139ZM14.6147 20.3599C14.1201 20.3599 13.6907 20.3132 13.3267 20.2199C12.9627 20.1359 12.6314 20.0192 12.3327 19.8699L12.3467 18.3299C12.5521 18.4419 12.7714 18.5399 13.0047 18.6239C13.2381 18.7172 13.4854 18.7872 13.7467 18.8339C14.0174 18.8899 14.2881 18.9179 14.5587 18.9179C15.0347 18.9179 15.4267 18.7966 15.7347 18.5539C16.0427 18.3112 16.2621 17.9239 16.3927 17.3919L16.4767 17.0559C16.5047 16.9066 16.5421 16.7479 16.5887 16.5799C16.6354 16.4026 16.6774 16.2486 16.7147 16.1179C16.7521 15.9779 16.7801 15.8846 16.7987 15.8379H16.7427C16.5747 16.0712 16.3881 16.2859 16.1827 16.4819C15.9867 16.6779 15.7627 16.8366 15.5107 16.9579C15.2681 17.0792 14.9927 17.1399 14.6847 17.1399C14.3207 17.1399 13.9941 17.0466 13.7047 16.8599C13.4154 16.6639 13.1867 16.3699 13.0187 15.9779C12.8507 15.5859 12.7667 15.0912 12.7667 14.4939C12.7667 13.9806 12.8181 13.4719 12.9207 12.9679C13.0234 12.4639 13.1727 11.9926 13.3687 11.5539C13.5647 11.1059 13.8027 10.7092 14.0827 10.3639C14.3627 10.0186 14.6801 9.75258 15.0347 9.56591C15.3894 9.36991 15.7767 9.27191 16.1967 9.27191C16.5047 9.27191 16.7707 9.32324 16.9947 9.42591C17.2187 9.52858 17.4101 9.66858 17.5687 9.84591C17.7274 10.0232 17.8674 10.2286 17.9887 10.4619H18.0447L18.4507 9.41191H19.7947L18.1147 17.2799C17.9561 18.0452 17.7134 18.6519 17.3867 19.0999C17.0601 19.5479 16.6634 19.8699 16.1967 20.0659C15.7301 20.2619 15.2027 20.3599 14.6147 20.3599ZM15.4687 15.7119C15.6554 15.7119 15.8327 15.6606 16.0007 15.5579C16.1781 15.4552 16.3367 15.3106 16.4767 15.1239C16.6261 14.9372 16.7614 14.7226 16.8827 14.4799C17.0134 14.2372 17.1207 13.9759 17.2047 13.6959C17.2887 13.4159 17.3541 13.1312 17.4007 12.8419C17.4474 12.5432 17.4707 12.2586 17.4707 11.9879C17.4707 11.6052 17.3867 11.2972 17.2187 11.0639C17.0601 10.8212 16.8174 10.6999 16.4907 10.6999C16.2667 10.6999 16.0567 10.7699 15.8607 10.9099C15.6647 11.0499 15.4827 11.2459 15.3147 11.4979C15.1561 11.7406 15.0161 12.0206 14.8947 12.3379C14.7827 12.6552 14.6941 12.9912 14.6287 13.3459C14.5727 13.7006 14.5447 14.0599 14.5447 14.4239C14.5447 14.8532 14.6241 15.1752 14.7827 15.3899C14.9414 15.6046 15.1701 15.7119 15.4687 15.7119Z" fill="#131313"/>
</svg>
