<svg width="24" height="24" viewBox="0 0 24 24" fill="none" xmlns="http://www.w3.org/2000/svg">
<path d="M10.8527 15.9999L9.64866 12.9059H5.68666L4.49666 15.9999H3.22266L7.12866 5.96191H8.26266L12.1547 15.9999H10.8527ZM8.15066 8.76191C8.12266 8.68724 8.07599 8.55191 8.01066 8.35591C7.94532 8.15991 7.87999 7.95924 7.81466 7.75391C7.75866 7.53924 7.71199 7.37591 7.67466 7.26391C7.62799 7.45058 7.57666 7.64191 7.52066 7.83791C7.47399 8.02458 7.42266 8.19724 7.36666 8.35591C7.31999 8.51458 7.27799 8.64991 7.24066 8.76191L6.10666 11.7859H9.27066L8.15066 8.76191ZM16.0141 8.35591C16.5087 8.35591 16.9521 8.44924 17.3441 8.63591C17.7454 8.82258 18.0861 9.10724 18.3661 9.48991H18.4361L18.6041 8.49591H19.5841V16.1259C19.5841 16.8352 19.4627 17.4279 19.2201 17.9039C18.9774 18.3892 18.6087 18.7532 18.1141 18.9959C17.6194 19.2386 16.9894 19.3599 16.2241 19.3599C15.6827 19.3599 15.1834 19.3179 14.7261 19.2339C14.2781 19.1592 13.8767 19.0426 13.5221 18.8839V17.7499C13.7647 17.8712 14.0307 17.9739 14.3201 18.0579C14.6094 18.1512 14.9221 18.2212 15.2581 18.2679C15.5941 18.3146 15.9394 18.3379 16.2941 18.3379C16.9381 18.3379 17.4421 18.1466 17.8061 17.7639C18.1794 17.3906 18.3661 16.8772 18.3661 16.2239V15.9299C18.3661 15.8179 18.3707 15.6592 18.3801 15.4539C18.3894 15.2392 18.3987 15.0899 18.4081 15.0059H18.3521C18.0907 15.3886 17.7641 15.6732 17.3721 15.8599C16.9894 16.0466 16.5414 16.1399 16.0281 16.1399C15.0574 16.1399 14.2967 15.7992 13.7461 15.1179C13.2047 14.4366 12.9341 13.4846 12.9341 12.2619C12.9341 11.4592 13.0554 10.7686 13.2981 10.1899C13.5501 9.60191 13.9047 9.14924 14.3621 8.83191C14.8194 8.51458 15.3701 8.35591 16.0141 8.35591ZM16.1821 9.39191C15.7621 9.39191 15.4027 9.50391 15.1041 9.72791C14.8147 9.95191 14.5907 10.2786 14.4321 10.7079C14.2827 11.1372 14.2081 11.6599 14.2081 12.2759C14.2081 13.1999 14.3761 13.9092 14.7121 14.4039C15.0574 14.8892 15.5567 15.1319 16.2101 15.1319C16.5927 15.1319 16.9194 15.0852 17.1901 14.9919C17.4607 14.8892 17.6847 14.7352 17.8621 14.5299C18.0394 14.3152 18.1701 14.0446 18.2541 13.7179C18.3381 13.3912 18.3801 13.0039 18.3801 12.5559V12.2619C18.3801 11.5806 18.3007 11.0299 18.1421 10.6099C17.9927 10.1899 17.7547 9.88191 17.4281 9.68591C17.1014 9.48991 16.6861 9.39191 16.1821 9.39191Z" fill="#131313"/>
</svg>
