<svg width="24" height="24" viewBox="0 0 24 24" fill="none" xmlns="http://www.w3.org/2000/svg">
<path d="M11.1965 16.9999L10.3285 13.2339H7.82253L6.95453 16.9999H6.39453L8.71853 7.00391H9.43253L11.7425 16.9999H11.1965ZM9.32053 8.64191C9.29253 8.48324 9.26453 8.33858 9.23653 8.20791C9.20853 8.07724 9.18053 7.95124 9.15253 7.82991C9.12453 7.69924 9.09653 7.56858 9.06853 7.43791C9.04986 7.56858 9.02653 7.69924 8.99853 7.82991C8.97053 7.95124 8.94253 8.07724 8.91453 8.20791C8.88653 8.33858 8.85386 8.48324 8.81653 8.64191L7.92053 12.7299H10.2165L9.32053 8.64191ZM14.4842 9.45391C14.9509 9.45391 15.3149 9.58458 15.5762 9.84591C15.8376 10.0979 16.0242 10.4059 16.1362 10.7699H16.1922L16.2482 9.59391H16.6682V17.4059C16.6682 18.0592 16.5796 18.6052 16.4022 19.0439C16.2249 19.4919 15.9542 19.8279 15.5902 20.0519C15.2262 20.2759 14.7596 20.3879 14.1902 20.3879C13.8916 20.3879 13.6116 20.3506 13.3502 20.2759C13.0889 20.2106 12.8416 20.1032 12.6082 19.9539V19.4219C12.7762 19.5246 12.9396 19.6086 13.0982 19.6739C13.2662 19.7486 13.4389 19.8046 13.6162 19.8419C13.7936 19.8792 13.9802 19.8979 14.1762 19.8979C14.8296 19.8979 15.3196 19.7066 15.6462 19.3239C15.9729 18.9412 16.1362 18.3206 16.1362 17.4619V16.8879C16.1362 16.6826 16.1409 16.4772 16.1502 16.2719C16.1596 16.0666 16.1689 15.8239 16.1782 15.5439H16.1362C16.0242 16.0106 15.8189 16.3932 15.5202 16.6919C15.2309 16.9906 14.8576 17.1399 14.4002 17.1399C13.7376 17.1399 13.2289 16.8272 12.8742 16.2019C12.5289 15.5766 12.3562 14.6152 12.3562 13.3179C12.3562 12.5059 12.4309 11.8106 12.5802 11.2319C12.7296 10.6532 12.9582 10.2146 13.2662 9.91591C13.5836 9.60791 13.9896 9.45391 14.4842 9.45391ZM14.5262 9.94391C14.1342 9.94391 13.8169 10.0839 13.5742 10.3639C13.3409 10.6346 13.1682 11.0266 13.0562 11.5399C12.9442 12.0439 12.8882 12.6366 12.8882 13.3179C12.8882 14.4659 13.0189 15.3106 13.2802 15.8519C13.5509 16.3932 13.9429 16.6639 14.4562 16.6639C14.7736 16.6639 15.0349 16.5846 15.2402 16.4259C15.4549 16.2579 15.6276 16.0432 15.7582 15.7819C15.8889 15.5112 15.9822 15.2079 16.0382 14.8719C16.1036 14.5359 16.1362 14.1906 16.1362 13.8359V12.5619C16.1362 12.0672 16.0802 11.6239 15.9682 11.2319C15.8656 10.8306 15.6976 10.5179 15.4642 10.2939C15.2309 10.0606 14.9182 9.94391 14.5262 9.94391Z" fill="#131313"/>
</svg>
