<svg width="24" height="24" viewBox="0 0 24 24" fill="none" xmlns="http://www.w3.org/2000/svg">
<path d="M3.43725 17.0839C3.36258 17.0839 3.29726 17.0606 3.24126 17.0139C3.19458 16.9766 3.16658 16.9252 3.15725 16.8599C3.14792 16.7852 3.16658 16.7059 3.21325 16.6219L8.72925 7.2559C8.77592 7.18123 8.82725 7.1299 8.88326 7.1019C8.94859 7.06457 9.01859 7.0459 9.09326 7.0459C9.17726 7.0459 9.24259 7.06457 9.28926 7.1019C9.34526 7.13923 9.38258 7.19523 9.40125 7.2699L11.9213 16.5939C11.9586 16.7152 11.9679 16.8132 11.9493 16.8879C11.9399 16.9532 11.9119 16.9999 11.8653 17.0279C11.8279 17.0652 11.7766 17.0839 11.7113 17.0839C11.6366 17.0839 11.5666 17.0559 11.5013 16.9999C11.4359 16.9439 11.3939 16.8692 11.3753 16.7759L10.6753 14.1439L11.0113 14.2699H4.90725L5.35525 14.1439L3.75925 16.8599C3.72192 16.9346 3.67526 16.9906 3.61926 17.0279C3.56326 17.0652 3.50258 17.0839 3.43725 17.0839ZM8.98125 7.9279L5.55125 13.8079L5.22925 13.7239H10.8573L10.5773 13.8079L9.00925 7.9279H8.98125ZM16.3584 19.6319C15.8264 19.6319 15.3364 19.5479 14.8884 19.3799C14.4497 19.2119 14.0437 18.9926 13.6704 18.7219C13.6144 18.6846 13.5817 18.6379 13.5724 18.5819C13.563 18.5259 13.5677 18.4699 13.5864 18.4139C13.6144 18.3579 13.647 18.3112 13.6844 18.2739C13.731 18.2366 13.7824 18.2132 13.8384 18.2039C13.9037 18.2039 13.969 18.2272 14.0344 18.2739C14.389 18.5352 14.739 18.7359 15.0844 18.8759C15.439 19.0159 15.8544 19.0859 16.3304 19.0859C16.965 19.0859 17.483 18.9132 17.8844 18.5679C18.2857 18.2319 18.5424 17.7092 18.6544 16.9999L18.9484 15.1379L19.0604 15.1519C18.827 15.6652 18.477 16.0759 18.0104 16.3839C17.553 16.6919 17.007 16.8459 16.3724 16.8459C15.8404 16.8459 15.3737 16.7339 14.9724 16.5099C14.571 16.2766 14.2584 15.9546 14.0344 15.5439C13.8104 15.1239 13.6984 14.6386 13.6984 14.0879C13.6984 13.5746 13.7684 13.0799 13.9084 12.6039C14.0577 12.1279 14.277 11.7032 14.5664 11.3299C14.8557 10.9566 15.2104 10.6626 15.6304 10.4479C16.0504 10.2239 16.5404 10.1119 17.1004 10.1119C17.679 10.1119 18.1924 10.2612 18.6404 10.5599C19.0884 10.8492 19.3917 11.3066 19.5504 11.9319H19.4384L19.6764 10.4339C19.695 10.3312 19.7324 10.2566 19.7884 10.2099C19.8444 10.1632 19.919 10.1399 20.0124 10.1399C20.1057 10.1399 20.171 10.1726 20.2084 10.2379C20.255 10.2939 20.269 10.3779 20.2504 10.4899L19.2284 16.9719C19.079 17.8772 18.7664 18.5446 18.2904 18.9739C17.8237 19.4126 17.1797 19.6319 16.3584 19.6319ZM16.4564 16.2999C17.063 16.2999 17.5717 16.1412 17.9824 15.8239C18.393 15.4972 18.701 15.0726 18.9064 14.5499C19.121 14.0272 19.2284 13.4626 19.2284 12.8559C19.2284 12.1559 19.037 11.6146 18.6544 11.2319C18.281 10.8492 17.7537 10.6579 17.0724 10.6579C16.475 10.6579 15.9664 10.8212 15.5464 11.1479C15.1357 11.4652 14.823 11.8852 14.6084 12.4079C14.403 12.9212 14.3004 13.4812 14.3004 14.0879C14.3004 14.7972 14.487 15.3432 14.8604 15.7259C15.243 16.1086 15.775 16.2999 16.4564 16.2999Z" fill="#131313"/>
</svg>
