<svg width="24" height="24" viewBox="0 0 24 24" fill="none" xmlns="http://www.w3.org/2000/svg">
<path d="M3.91155 17.0839C3.80888 17.0839 3.72021 17.0559 3.64555 16.9999C3.57088 16.9532 3.52421 16.8832 3.50555 16.7899C3.49621 16.6966 3.52421 16.5939 3.58955 16.4819L9.02155 7.3399C9.08688 7.23723 9.16155 7.16257 9.24555 7.1159C9.32955 7.06923 9.42755 7.0459 9.53955 7.0459C9.66088 7.0459 9.75888 7.0739 9.83355 7.1299C9.90821 7.1859 9.95955 7.2699 9.98755 7.3819L12.4795 16.4539C12.5262 16.6032 12.5402 16.7246 12.5215 16.8179C12.5029 16.9112 12.4609 16.9766 12.3955 17.0139C12.3302 17.0606 12.2509 17.0839 12.1575 17.0839C12.0455 17.0839 11.9475 17.0512 11.8635 16.9859C11.7795 16.9112 11.7235 16.8039 11.6955 16.6639L11.0375 14.1859L11.4155 14.3679H5.38155L5.89955 14.1999L4.37355 16.7899C4.31755 16.8926 4.25221 16.9672 4.17755 17.0139C4.10288 17.0606 4.01421 17.0839 3.91155 17.0839ZM9.39955 8.1939L6.15155 13.7659L5.82955 13.6259H11.2195L10.9115 13.7659L9.42755 8.1939H9.39955ZM16.8867 19.6319C16.3547 19.6319 15.86 19.5526 15.4027 19.3939C14.9454 19.2446 14.53 19.0392 14.1567 18.7779C14.0727 18.7312 14.0214 18.6706 14.0027 18.5959C13.984 18.5212 13.984 18.4466 14.0027 18.3719C14.0307 18.2972 14.0727 18.2319 14.1287 18.1759C14.1847 18.1292 14.25 18.1012 14.3247 18.0919C14.4087 18.0826 14.4927 18.1059 14.5767 18.1619C14.922 18.4046 15.2674 18.5912 15.6127 18.7219C15.9674 18.8526 16.3687 18.9179 16.8167 18.9179C17.4327 18.9179 17.932 18.7546 18.3147 18.4279C18.7067 18.1106 18.9587 17.6159 19.0707 16.9439L19.3507 15.1939L19.4627 15.2079C19.2294 15.7119 18.884 16.1132 18.4267 16.4119C17.9694 16.7012 17.4374 16.8459 16.8307 16.8459C16.2894 16.8459 15.818 16.7339 15.4167 16.5099C15.0154 16.2766 14.7027 15.9546 14.4787 15.5439C14.2547 15.1239 14.1427 14.6339 14.1427 14.0739C14.1427 13.5512 14.2174 13.0519 14.3667 12.5759C14.516 12.0999 14.7354 11.6752 15.0247 11.3019C15.314 10.9286 15.6687 10.6346 16.0887 10.4199C16.518 10.1959 17.008 10.0839 17.5587 10.0839C18.128 10.0839 18.632 10.2286 19.0707 10.5179C19.5094 10.7979 19.808 11.2366 19.9667 11.8339L19.8407 11.9319L20.0647 10.5319C20.0927 10.3919 20.144 10.2892 20.2187 10.2239C20.3027 10.1492 20.4147 10.1119 20.5547 10.1119C20.6854 10.1119 20.7787 10.1586 20.8347 10.2519C20.9 10.3359 20.9187 10.4572 20.8907 10.6159L19.8967 16.9019C19.7474 17.8166 19.4254 18.4979 18.9307 18.9459C18.436 19.4032 17.7547 19.6319 16.8867 19.6319ZM17.0127 16.1179C17.582 16.1179 18.058 15.9686 18.4407 15.6699C18.8327 15.3619 19.1267 14.9606 19.3227 14.4659C19.528 13.9712 19.6307 13.4392 19.6307 12.8699C19.6307 12.2166 19.4534 11.7126 19.0987 11.3579C18.744 10.9939 18.2494 10.8119 17.6147 10.8119C17.0547 10.8119 16.5787 10.9659 16.1867 11.2739C15.7947 11.5726 15.5007 11.9692 15.3047 12.4639C15.1087 12.9492 15.0107 13.4766 15.0107 14.0459C15.0107 14.7086 15.1834 15.2219 15.5287 15.5859C15.8834 15.9406 16.378 16.1179 17.0127 16.1179Z" fill="#131313"/>
</svg>
