<svg width="24" height="24" viewBox="0 0 24 24" fill="none" xmlns="http://www.w3.org/2000/svg">
<path d="M3.28155 16.9999L9.14755 7.12988H9.91755L12.6335 16.9999H11.7935L11.0795 14.3679H5.78755L4.24755 16.9999H3.28155ZM9.39955 8.19388L6.23555 13.6259H10.8695L9.42755 8.19388H9.39955ZM16.8867 19.6319C16.28 19.6319 15.734 19.5386 15.2487 19.3519C14.7634 19.1652 14.3294 18.9226 13.9467 18.6239L14.2827 17.9659C14.6934 18.2646 15.0854 18.4979 15.4587 18.6659C15.8414 18.8339 16.294 18.9179 16.8167 18.9179C17.4327 18.9179 17.932 18.7546 18.3147 18.4279C18.7067 18.1106 18.9587 17.6159 19.0707 16.9439L19.2947 15.5159C19.0427 15.9359 18.7067 16.2626 18.2867 16.4959C17.8667 16.7292 17.3814 16.8459 16.8307 16.8459C16.0187 16.8459 15.3654 16.5939 14.8707 16.0899C14.3854 15.5859 14.1427 14.9139 14.1427 14.0739C14.1427 13.3832 14.2734 12.7346 14.5347 12.1279C14.796 11.5212 15.1787 11.0312 15.6827 10.6579C16.196 10.2752 16.8214 10.0839 17.5587 10.0839C18.0907 10.0839 18.5667 10.2099 18.9867 10.4619C19.4067 10.7139 19.71 11.1012 19.8967 11.6239L20.1207 10.2099H20.9607L19.8967 16.9019C19.6074 18.7219 18.604 19.6319 16.8867 19.6319ZM17.0127 16.1179C17.582 16.1179 18.058 15.9686 18.4407 15.6699C18.8327 15.3619 19.1267 14.9606 19.3227 14.4659C19.5187 13.9712 19.6214 13.4392 19.6307 12.8699C19.6307 12.2166 19.4534 11.7126 19.0987 11.3579C18.744 10.9939 18.2494 10.8119 17.6147 10.8119C17.0454 10.8119 16.5694 10.9659 16.1867 11.2739C15.804 11.5726 15.51 11.9692 15.3047 12.4639C15.1087 12.9492 15.0107 13.4766 15.0107 14.0459C15.0107 14.7086 15.1834 15.2219 15.5287 15.5859C15.8834 15.9406 16.378 16.1179 17.0127 16.1179Z" fill="#131313"/>
</svg>
