<svg width="24" height="24" viewBox="0 0 24 24" fill="none" xmlns="http://www.w3.org/2000/svg">
<path d="M3.52125 16.9999L7.76325 7.12988H8.32325L12.5653 16.9999H11.9353L10.7593 14.2699H5.31325L4.15125 16.9999H3.52125ZM8.02925 7.92788L5.56525 13.7239H10.5213L8.05725 7.92788H8.02925ZM17.0444 19.6319C15.915 19.6319 14.9584 19.3099 14.1744 18.6659L14.4544 18.1899C14.893 18.5166 15.3037 18.7452 15.6864 18.8759C16.0784 19.0159 16.5357 19.0859 17.0584 19.0859C17.7584 19.0859 18.2904 18.8852 18.6544 18.4839C19.0184 18.0919 19.2004 17.5272 19.2004 16.7899V15.3619C19.0044 15.8286 18.6917 16.1926 18.2624 16.4539C17.833 16.7152 17.3384 16.8459 16.7784 16.8459C16.153 16.8459 15.6117 16.7059 15.1544 16.4259C14.697 16.1366 14.3424 15.7399 14.0904 15.2359C13.8477 14.7226 13.7264 14.1346 13.7264 13.4719C13.7264 12.7999 13.8477 12.2119 14.0904 11.7079C14.3424 11.2039 14.697 10.8119 15.1544 10.5319C15.6117 10.2519 16.153 10.1119 16.7784 10.1119C17.329 10.1119 17.819 10.2426 18.2484 10.5039C18.6777 10.7559 18.9904 11.1059 19.1864 11.5539V10.2239H19.7744V16.6919C19.7744 18.6519 18.8644 19.6319 17.0444 19.6319ZM16.7644 16.2999C17.511 16.2999 18.1037 16.0432 18.5424 15.5299C18.981 15.0166 19.2004 14.3306 19.2004 13.4719C19.2004 12.6132 18.981 11.9319 18.5424 11.4279C18.1037 10.9146 17.511 10.6579 16.7644 10.6579C16.0177 10.6579 15.425 10.9146 14.9864 11.4279C14.5477 11.9319 14.3284 12.6132 14.3284 13.4719C14.3284 14.3306 14.5477 15.0166 14.9864 15.5299C15.425 16.0432 16.0177 16.2999 16.7644 16.2999Z" fill="#131313"/>
</svg>
