<svg width="24" height="24" viewBox="0 0 24 24" fill="none" xmlns="http://www.w3.org/2000/svg">
<path d="M13.0947 17H11.8916L10.6475 13.8213H6.6416L5.41113 17H4.23535L8.18652 6.96484H9.16406L13.0947 17ZM10.2852 12.7754L9.12305 9.67871C8.9681 9.27767 8.81315 8.79688 8.6582 8.23633C8.55794 8.66471 8.41439 9.14551 8.22754 9.67871L7.05176 12.7754H10.2852ZM16.4854 15.8105H17.8115C18.6227 15.8105 19.2448 15.9814 19.6777 16.3232C20.1152 16.665 20.334 17.1618 20.334 17.8135C20.334 18.6429 20.0013 19.2741 19.3359 19.707C18.6706 20.1445 17.6999 20.3633 16.4238 20.3633C15.444 20.3633 14.6875 20.181 14.1543 19.8164C13.6257 19.4518 13.3613 18.9368 13.3613 18.2715C13.3613 17.8158 13.5072 17.4215 13.7988 17.0889C14.0951 16.7562 14.5052 16.5306 15.0293 16.4121C14.8288 16.321 14.6647 16.1842 14.5371 16.002C14.4141 15.8197 14.3525 15.6032 14.3525 15.3525C14.3525 15.0973 14.4232 14.8672 14.5645 14.6621C14.7103 14.4525 14.9427 14.252 15.2617 14.0605C14.8789 13.9056 14.5622 13.6344 14.3115 13.2471C14.07 12.8597 13.9492 12.4222 13.9492 11.9346C13.9492 11.1188 14.1953 10.4876 14.6875 10.041C15.1797 9.5944 15.877 9.37109 16.7793 9.37109C17.1621 9.37109 17.5153 9.41667 17.8389 9.50781H20.4297V10.2324L19.042 10.3896C19.3701 10.8044 19.5342 11.3034 19.5342 11.8867C19.5342 12.6204 19.2835 13.2061 18.7822 13.6436C18.2809 14.0811 17.5928 14.2998 16.7178 14.2998C16.5081 14.2998 16.2985 14.2816 16.0889 14.2451C15.6058 14.4958 15.3643 14.8171 15.3643 15.209C15.3643 15.4186 15.4508 15.5713 15.624 15.667C15.7972 15.7627 16.0843 15.8105 16.4854 15.8105ZM16.7314 10.2051C16.1937 10.2051 15.7812 10.3486 15.4941 10.6357C15.2116 10.9229 15.0703 11.3376 15.0703 11.8799C15.0703 12.4176 15.2161 12.8232 15.5078 13.0967C15.804 13.3656 16.2188 13.5 16.752 13.5C17.8594 13.5 18.4131 12.9622 18.4131 11.8867C18.4131 10.7656 17.8525 10.2051 16.7314 10.2051ZM17.4492 16.8291H16.0889C15.5693 16.8291 15.166 16.9521 14.8789 17.1982C14.5964 17.4443 14.4551 17.7839 14.4551 18.2168C14.4551 19.069 15.1159 19.4951 16.4375 19.4951C17.3717 19.4951 18.0713 19.3561 18.5361 19.0781C19.0055 18.8001 19.2402 18.4105 19.2402 17.9092C19.2402 17.499 19.1149 17.2165 18.8643 17.0615C18.6136 16.9066 18.1419 16.8291 17.4492 16.8291Z" fill="#131313"/>
</svg>
