<svg width="24" height="24" viewBox="0 0 24 24" fill="none" xmlns="http://www.w3.org/2000/svg">
<path d="M12.0352 17H9.62891L9.59473 14.5527H7.57812L6.50488 17H4.10547L8.71973 6.96484H11.6797L12.0352 17ZM9.58789 12.6592L9.55371 10.0273C9.25749 10.7201 8.87695 11.5973 8.41211 12.6592H9.58789ZM14.6191 14.04C14.2363 13.7028 14.0449 13.2038 14.0449 12.543C14.0449 12.3242 14.0723 12.1123 14.127 11.9072C14.3092 11.0596 14.6852 10.4056 15.2549 9.94531C15.8291 9.48047 16.5537 9.24805 17.4287 9.24805C17.8389 9.24805 18.1693 9.29818 18.4199 9.39844H20.7236L20.457 10.6562L19.5752 10.834C19.6117 10.9935 19.6299 11.1644 19.6299 11.3467C19.6299 11.5244 19.6094 11.7158 19.5684 11.9209C19.3906 12.7503 19.0078 13.3952 18.4199 13.8555C17.832 14.3158 17.1348 14.5459 16.3281 14.5459C16.1413 14.5459 16.016 14.5413 15.9521 14.5322C15.8154 14.6553 15.7334 14.7806 15.7061 14.9082C15.6787 15.0358 15.6992 15.127 15.7676 15.1816C15.8405 15.2318 15.9635 15.2568 16.1367 15.2568H17.1963C17.9163 15.2568 18.429 15.4391 18.7344 15.8037C18.9395 16.0498 19.042 16.3734 19.042 16.7744C19.042 16.9704 19.0169 17.1868 18.9668 17.4238C18.7754 18.3216 18.3151 19.0143 17.5859 19.502C16.8613 19.9896 15.9202 20.2334 14.7627 20.2334C13.8558 20.2334 13.1995 20.0443 12.7939 19.666C12.4932 19.3926 12.3428 19.0326 12.3428 18.5859C12.3428 17.9753 12.5501 17.4512 12.9648 17.0137C13.2565 16.7083 13.6257 16.4645 14.0723 16.2822C13.7715 16.068 13.6211 15.8014 13.6211 15.4824C13.6211 15.4095 13.6302 15.332 13.6484 15.25C13.7031 15.0085 13.8125 14.7943 13.9766 14.6074C14.1452 14.416 14.3594 14.2269 14.6191 14.04ZM17.1143 10.7109C16.8226 10.7109 16.5902 11.1143 16.417 11.9209C16.3577 12.1943 16.3281 12.4199 16.3281 12.5977C16.3281 12.9167 16.4238 13.0762 16.6152 13.0762C16.8932 13.0762 17.1143 12.6865 17.2783 11.9072C17.3421 11.6019 17.374 11.3558 17.374 11.1689C17.374 10.8636 17.2874 10.7109 17.1143 10.7109ZM16.123 17.082H15.2686C15.1182 17.082 14.9814 17.1572 14.8584 17.3076C14.7399 17.458 14.6533 17.6631 14.5986 17.9229C14.5804 18.0003 14.5713 18.0892 14.5713 18.1895C14.5713 18.2943 14.6077 18.39 14.6807 18.4766C14.7855 18.6087 14.9609 18.6748 15.207 18.6748C15.6354 18.6748 15.9749 18.5882 16.2256 18.415C16.4808 18.2464 16.6426 18.0049 16.7109 17.6904C16.7337 17.5947 16.7451 17.499 16.7451 17.4033C16.7451 17.3076 16.7064 17.2301 16.6289 17.1709C16.556 17.1117 16.3874 17.082 16.123 17.082Z" fill="#131313"/>
</svg>
