<svg width="24" height="24" viewBox="0 0 24 24" fill="none" xmlns="http://www.w3.org/2000/svg">
<path d="M10.0732 14.6211H6.83984L5.66406 17H3.47656L8.71289 6.96484H11.2627L12.2676 17H10.2373L10.0732 14.6211ZM9.9707 12.8438L9.79297 10.4512C9.7474 9.85417 9.72461 9.27767 9.72461 8.72168V8.47559C9.52409 9.02246 9.27572 9.60124 8.97949 10.2119L7.69434 12.8438H9.9707ZM21.2158 9.37109L20.9766 10.5059L19.7871 10.7861C19.86 11.0231 19.8965 11.292 19.8965 11.5928C19.8965 12.4814 19.6208 13.1855 19.0693 13.7051C18.5179 14.2201 17.7682 14.4775 16.8203 14.4775C16.5514 14.4775 16.3258 14.4548 16.1436 14.4092C15.7607 14.5322 15.5693 14.71 15.5693 14.9424C15.5693 15.0973 15.6377 15.209 15.7744 15.2773C15.9111 15.3457 16.1139 15.3981 16.3828 15.4346L17.3193 15.5576C18.0622 15.6533 18.6022 15.847 18.9395 16.1387C19.2812 16.4258 19.4521 16.8428 19.4521 17.3896C19.4521 18.3512 19.0967 19.0872 18.3857 19.5977C17.6748 20.1081 16.6585 20.3633 15.3369 20.3633C14.389 20.3633 13.6484 20.1901 13.1152 19.8438C12.5866 19.502 12.3223 19.0303 12.3223 18.4287C12.3223 17.9639 12.4795 17.5628 12.7939 17.2256C13.1038 16.8929 13.5915 16.6172 14.2568 16.3984C13.9196 16.1842 13.751 15.8812 13.751 15.4893C13.751 15.1657 13.8512 14.8877 14.0518 14.6553C14.2568 14.4183 14.5918 14.1927 15.0566 13.9785C14.7604 13.7552 14.5417 13.5 14.4004 13.2129C14.2591 12.9258 14.1885 12.5771 14.1885 12.167C14.1885 11.2601 14.4733 10.5423 15.043 10.0137C15.6172 9.48047 16.3965 9.21387 17.3809 9.21387C17.7591 9.21387 18.1374 9.26628 18.5156 9.37109H21.2158ZM15.6035 17.041C15.1204 17.1048 14.7536 17.2347 14.5029 17.4307C14.2568 17.6266 14.1338 17.875 14.1338 18.1758C14.1338 18.6999 14.5758 18.9619 15.46 18.9619C16.1481 18.9619 16.6676 18.8594 17.0186 18.6543C17.3695 18.4492 17.5449 18.1598 17.5449 17.7861C17.5449 17.6084 17.4697 17.4717 17.3193 17.376C17.1735 17.2803 16.8613 17.2005 16.3828 17.1367L15.6035 17.041ZM17.3057 10.5195C16.9548 10.5195 16.6699 10.695 16.4512 11.0459C16.237 11.3923 16.1299 11.8275 16.1299 12.3516C16.1299 12.8939 16.3646 13.165 16.834 13.165C17.1758 13.165 17.4515 12.9919 17.6611 12.6455C17.8753 12.2946 17.9824 11.8525 17.9824 11.3193C17.9824 10.7861 17.7568 10.5195 17.3057 10.5195Z" fill="#131313"/>
</svg>
