<svg width="24" height="24" viewBox="0 0 24 24" fill="none" xmlns="http://www.w3.org/2000/svg">
<path d="M7.3252 13.4453L5.36328 17H4.56348L10.1826 6.96484H10.6406L12.0146 17H11.2969L10.8252 13.4453H7.3252ZM10.7432 12.8164L10.4766 10.8271C10.3307 9.72884 10.2419 8.81283 10.21 8.0791C10.1188 8.26595 9.99121 8.52116 9.82715 8.84473C9.66309 9.16374 8.94531 10.4876 7.67383 12.8164H10.7432ZM18.7275 11.5381C18.7275 12.0394 18.6045 12.5088 18.3584 12.9463C18.1123 13.3838 17.7773 13.7142 17.3535 13.9375C16.9297 14.1608 16.4398 14.2725 15.8838 14.2725C15.5967 14.2725 15.4212 14.252 15.3574 14.2109C14.9883 14.3613 14.7035 14.5277 14.5029 14.71C14.307 14.8923 14.209 15.0791 14.209 15.2705C14.209 15.4574 14.2819 15.6032 14.4277 15.708C14.5781 15.8128 14.8356 15.8835 15.2002 15.9199L16.0273 15.9951C17.6042 16.1364 18.3926 16.738 18.3926 17.7998C18.4017 18.5745 18.0736 19.1943 17.4082 19.6592C16.7428 20.1286 15.8542 20.3633 14.7422 20.3633C14.724 20.3633 14.7035 20.3633 14.6807 20.3633C13.8376 20.3633 13.1722 20.1992 12.6846 19.8711C12.2061 19.543 11.9668 19.0804 11.9668 18.4834C11.9668 17.4079 12.6709 16.6468 14.0791 16.2002C13.7236 16.0088 13.5459 15.7285 13.5459 15.3594C13.5459 14.8034 13.9811 14.3431 14.8516 13.9785C14.528 13.8145 14.2751 13.5752 14.0928 13.2607C13.915 12.9417 13.8262 12.5817 13.8262 12.1807C13.8262 12.1533 13.8262 12.1283 13.8262 12.1055C13.8262 11.6406 13.9469 11.1986 14.1885 10.7793C14.4346 10.36 14.7718 10.0296 15.2002 9.78809C15.6286 9.54655 16.082 9.42578 16.5605 9.42578C16.5788 9.42578 16.597 9.42578 16.6152 9.42578C16.9297 9.42578 17.2646 9.47363 17.6201 9.56934H20.0879L19.9717 10.1094L18.3105 10.1846C18.429 10.3122 18.527 10.5036 18.6045 10.7588C18.6865 11.014 18.7275 11.2738 18.7275 11.5381ZM14.5166 12.0918C14.5166 12.6296 14.6488 13.0329 14.9131 13.3018C15.1774 13.5661 15.5329 13.6982 15.9795 13.6982C16.8636 13.6982 17.4674 13.3542 17.791 12.666C17.9596 12.3242 18.0439 11.9277 18.0439 11.4766C18.0439 11.0254 17.9163 10.6699 17.6611 10.4102C17.4059 10.1458 17.0482 10.0137 16.5879 10.0137C16.5651 10.0137 16.54 10.0137 16.5127 10.0137C15.943 10.0137 15.4668 10.2256 15.084 10.6494C14.7057 11.0687 14.5166 11.5495 14.5166 12.0918ZM14.6807 16.4805C13.9788 16.681 13.4661 16.9385 13.1426 17.2529C12.8236 17.5674 12.6641 17.9525 12.6641 18.4082C12.6641 18.8639 12.8441 19.2057 13.2041 19.4336C13.5687 19.6615 14.0837 19.7754 14.749 19.7754C15.6742 19.7754 16.3965 19.6068 16.916 19.2695C17.4355 18.9323 17.6953 18.4652 17.6953 17.8682C17.6953 17.4808 17.5518 17.1846 17.2646 16.9795C16.9867 16.7699 16.4899 16.6377 15.7744 16.583L14.6807 16.4805Z" fill="#131313"/>
</svg>
