<svg width="24" height="24" viewBox="0 0 24 24" fill="none" xmlns="http://www.w3.org/2000/svg">
<path d="M6.27051 13.8213L4.5957 17H3.30371L8.76562 7.00586H9.95508L11.2129 17H10.0508L9.66113 13.8213H6.27051ZM9.53809 12.7549L9.29883 10.7109C9.1849 9.87695 9.11882 9.07943 9.10059 8.31836C8.93652 8.70573 8.75195 9.10221 8.54688 9.50781C8.34635 9.90885 7.77897 10.9912 6.84473 12.7549H9.53809ZM18.0693 11.4834C18.0693 12.3538 17.8027 13.0488 17.2695 13.5684C16.7409 14.0833 16.0322 14.3408 15.1436 14.3408C14.8975 14.3408 14.7061 14.3226 14.5693 14.2861C13.9359 14.5231 13.6191 14.8216 13.6191 15.1816C13.6191 15.3548 13.6852 15.4756 13.8174 15.5439C13.9495 15.6077 14.1774 15.6602 14.501 15.7012L15.3008 15.7969C16.1302 15.9017 16.7295 16.1045 17.0986 16.4053C17.4678 16.7015 17.6523 17.1413 17.6523 17.7246C17.6523 18.5632 17.3197 19.2126 16.6543 19.6729C15.9889 20.1331 15.0524 20.3633 13.8447 20.3633C12.9606 20.3633 12.2679 20.1947 11.7666 19.8574C11.2653 19.5202 11.0146 19.0485 11.0146 18.4424C11.0146 17.9548 11.181 17.5355 11.5137 17.1846C11.8464 16.8382 12.375 16.5443 13.0996 16.3027C12.7441 16.1159 12.5664 15.8402 12.5664 15.4756C12.5664 15.1748 12.6758 14.9105 12.8945 14.6826C13.1178 14.4548 13.4482 14.2383 13.8857 14.0332C13.5895 13.8828 13.3525 13.6641 13.1748 13.377C12.9971 13.0898 12.9082 12.7617 12.9082 12.3926C12.9082 11.513 13.1794 10.7884 13.7217 10.2188C14.2686 9.65365 14.9658 9.37109 15.8135 9.37109C16.1598 9.37109 16.5107 9.41667 16.8662 9.50781H19.4023L19.2314 10.2393L17.7891 10.4033C17.9759 10.6859 18.0693 11.0459 18.0693 11.4834ZM15.2461 13.541C15.7428 13.541 16.153 13.3337 16.4766 12.9189C16.8001 12.5042 16.9619 12.0052 16.9619 11.4219C16.9619 11.4082 16.9619 11.3923 16.9619 11.374C16.9619 11.0003 16.8617 10.7155 16.6611 10.5195C16.4606 10.3236 16.1735 10.2256 15.7998 10.2256C15.7861 10.2256 15.7702 10.2256 15.752 10.2256C15.4284 10.2256 15.1322 10.3213 14.8633 10.5127C14.5944 10.6995 14.387 10.9548 14.2412 11.2783C14.0954 11.5973 14.0225 11.9437 14.0225 12.3174C14.0225 12.3265 14.0225 12.3379 14.0225 12.3516C14.0225 12.7344 14.1227 13.0283 14.3232 13.2334C14.5283 13.4385 14.8154 13.541 15.1846 13.541C15.2074 13.541 15.2279 13.541 15.2461 13.541ZM13.8174 16.6924C13.2751 16.8063 12.8558 17.0046 12.5596 17.2871C12.2679 17.5742 12.1221 17.9092 12.1221 18.292C12.1221 18.6794 12.2725 18.9733 12.5732 19.1738C12.874 19.3743 13.3115 19.4746 13.8857 19.4746C14.7197 19.4746 15.3691 19.3288 15.834 19.0371C16.2988 18.75 16.5312 18.3421 16.5312 17.8135C16.5312 17.5264 16.4059 17.3008 16.1553 17.1367C15.9046 16.9772 15.4876 16.8656 14.9043 16.8018L13.8174 16.6924Z" fill="#131313"/>
</svg>
