<svg width="24" height="24" viewBox="0 0 24 24" fill="none" xmlns="http://www.w3.org/2000/svg">
<path d="M9.8252 13.4453H6.3252L4.36328 17H3.56348L9.18262 6.96484H9.64062L11.0146 17H10.2969L9.8252 13.4453ZM9.74316 12.8164L9.47656 10.8271C9.33529 9.72428 9.24642 8.80827 9.20996 8.0791C9.07324 8.36621 8.92513 8.66243 8.76562 8.96777C8.61068 9.27311 7.91341 10.556 6.67383 12.8164H9.74316ZM19.0879 9.56934L18.9717 10.1094L17.3105 10.1846C17.429 10.3122 17.527 10.5036 17.6045 10.7588C17.6865 11.014 17.7275 11.2738 17.7275 11.5381C17.7275 12.0348 17.6022 12.5065 17.3516 12.9531C17.1055 13.3952 16.7682 13.7256 16.3398 13.9443C15.916 14.1631 15.4307 14.2725 14.8838 14.2725C14.5967 14.2725 14.4212 14.252 14.3574 14.2109C13.9928 14.3613 13.7103 14.5277 13.5098 14.71C13.3092 14.8923 13.209 15.0768 13.209 15.2637C13.209 15.4505 13.2796 15.5986 13.4209 15.708C13.5667 15.8128 13.8265 15.8835 14.2002 15.9199L15.0273 15.9951C16.6042 16.1364 17.3926 16.738 17.3926 17.7998C17.3926 18.3102 17.2445 18.7591 16.9482 19.1465C16.652 19.5384 16.2259 19.8392 15.6699 20.0488C15.1139 20.2585 14.4508 20.3633 13.6807 20.3633C12.833 20.3633 12.1676 20.1992 11.6846 19.8711C11.2061 19.543 10.9668 19.0804 10.9668 18.4834C10.9668 17.4079 11.6709 16.6468 13.0791 16.2002C12.7236 16.0088 12.5459 15.7285 12.5459 15.3594C12.5459 14.7988 12.9811 14.3385 13.8516 13.9785C13.528 13.8145 13.2751 13.5752 13.0928 13.2607C12.915 12.9417 12.8262 12.5817 12.8262 12.1807C12.8262 11.6748 12.9469 11.21 13.1885 10.7861C13.4346 10.3623 13.7718 10.0296 14.2002 9.78809C14.6331 9.54655 15.1048 9.42578 15.6152 9.42578C15.9297 9.42578 16.2646 9.47363 16.6201 9.56934H19.0879ZM11.6641 18.415C11.6641 18.8753 11.8486 19.2171 12.2178 19.4404C12.5869 19.6637 13.0973 19.7754 13.749 19.7754C14.6742 19.7754 15.3965 19.6045 15.916 19.2627C16.4355 18.9255 16.6953 18.4606 16.6953 17.8682C16.6953 17.4808 16.5518 17.1846 16.2646 16.9795C15.9821 16.7699 15.4854 16.6377 14.7744 16.583L13.6807 16.4805C12.9652 16.6855 12.4502 16.9453 12.1357 17.2598C11.8213 17.5788 11.6641 17.9639 11.6641 18.415ZM13.5166 12.1396C13.5166 12.6501 13.6488 13.0374 13.9131 13.3018C14.182 13.5661 14.5579 13.6982 15.041 13.6982C15.4421 13.6982 15.793 13.6139 16.0938 13.4453C16.3945 13.2767 16.627 13.0169 16.791 12.666C16.9596 12.3151 17.0439 11.93 17.0439 11.5107C17.0439 11.0368 16.9163 10.6699 16.6611 10.4102C16.4059 10.1458 16.0482 10.0137 15.5879 10.0137C15.1641 10.0137 14.7972 10.1117 14.4873 10.3076C14.1774 10.5036 13.9382 10.7679 13.7695 11.1006C13.6009 11.4333 13.5166 11.7796 13.5166 12.1396Z" fill="#131313"/>
</svg>
