<svg width="24" height="24" viewBox="0 0 24 24" fill="none" xmlns="http://www.w3.org/2000/svg">
<path d="M2.18212 16.9999V8.80992C2.18212 8.46459 2.26612 8.14725 2.43412 7.85792C2.60212 7.56859 2.83078 7.33992 3.12012 7.17192C3.40945 7.00392 3.72678 6.91992 4.07212 6.91992H10.3721C10.7175 6.91992 11.0301 7.00392 11.3101 7.17192C11.5995 7.33992 11.8281 7.56859 11.9961 7.85792C12.1735 8.14725 12.2621 8.46459 12.2621 8.80992V16.9999H10.5681V13.5419H3.86212V16.9999H2.18212ZM3.86212 11.8619H10.5681V8.86592C10.5681 8.79125 10.5401 8.73059 10.4841 8.68392C10.4375 8.63725 10.3815 8.61392 10.3161 8.61392H4.11412C4.04878 8.61392 3.98812 8.63725 3.93212 8.68392C3.88545 8.73059 3.86212 8.79125 3.86212 8.86592V11.8619ZM15.0332 20.2059V18.5259H19.9752C20.0406 18.5259 20.0966 18.4979 20.1432 18.4419C20.1992 18.3952 20.2272 18.3346 20.2272 18.2599V16.9999H15.5232C15.1872 16.9999 14.8746 16.9159 14.5852 16.7479C14.3052 16.5706 14.0766 16.3419 13.8992 16.0619C13.7312 15.7819 13.6472 15.4692 13.6472 15.1239V10.7559C13.6472 10.4106 13.7312 10.0979 13.8992 9.81792C14.0766 9.53792 14.3052 9.31392 14.5852 9.14592C14.8746 8.96859 15.1872 8.87992 15.5232 8.87992H20.0312C20.3766 8.87992 20.6892 8.96859 20.9692 9.14592C21.2586 9.31392 21.4826 9.53792 21.6412 9.81792C21.8092 10.0979 21.8932 10.4106 21.8932 10.7559V18.3299C21.8932 18.6752 21.8092 18.9879 21.6412 19.2679C21.4826 19.5572 21.2586 19.7859 20.9692 19.9539C20.6892 20.1219 20.3766 20.2059 20.0312 20.2059H15.0332ZM15.5792 15.3339H19.9752C20.0406 15.3339 20.0966 15.3106 20.1432 15.2639C20.1992 15.2079 20.2272 15.1426 20.2272 15.0679V10.8119C20.2272 10.7372 20.1992 10.6766 20.1432 10.6299C20.0966 10.5739 20.0406 10.5459 19.9752 10.5459H15.5792C15.5046 10.5459 15.4392 10.5739 15.3832 10.6299C15.3366 10.6766 15.3132 10.7372 15.3132 10.8119V15.0679C15.3132 15.1426 15.3366 15.2079 15.3832 15.2639C15.4392 15.3106 15.5046 15.3339 15.5792 15.3339Z" fill="#131313"/>
</svg>
