<svg width="24" height="24" viewBox="0 0 24 24" fill="none" xmlns="http://www.w3.org/2000/svg">
<path d="M13.6989 6.91804C13.7778 6.92856 13.833 6.95748 13.8646 7.00481C13.9014 7.05213 13.9198 7.10998 13.9198 7.17833C13.9198 7.26773 13.8935 7.36238 13.8409 7.46229C13.7883 7.5622 13.7015 7.67263 13.5806 7.79357C13.1126 8.24579 12.6946 8.65332 12.3265 9.01615C11.9636 9.37372 11.6324 9.70763 11.3326 10.0178C11.0329 10.3228 10.7595 10.612 10.5123 10.8855C10.2652 11.1589 10.0259 11.4323 9.79455 11.7058C9.56843 11.974 9.33969 12.2527 9.10832 12.5419C8.87695 12.8311 8.62981 13.144 8.36689 13.4805C8.593 13.4595 8.83489 13.4411 9.09255 13.4253C9.35021 13.4042 9.61313 13.3937 9.88131 13.3937C10.0969 13.3937 10.302 13.4016 10.4965 13.4174C10.6964 13.4332 10.8804 13.4595 11.0487 13.4963C11.1907 13.1071 11.3694 12.6733 11.585 12.1948C11.8006 11.711 12.0294 11.222 12.2713 10.7277C12.5184 10.2334 12.7629 9.75233 13.0048 9.28433C13.252 8.81107 13.4728 8.3904 13.6674 8.02231C13.8672 7.64896 14.0302 7.34397 14.1564 7.10735C14.2826 6.87072 14.351 6.74189 14.3615 6.72085C14.3615 6.71034 14.3773 6.70508 14.4088 6.70508C14.4246 6.70508 14.4456 6.70771 14.4719 6.71297C14.4982 6.71822 14.5245 6.72085 14.5508 6.72085C14.5613 6.72085 14.5692 6.71822 14.5744 6.71297C14.5797 6.70771 14.5876 6.70508 14.5981 6.70508H14.6375C14.6691 6.70508 14.698 6.71822 14.7243 6.74452C14.7559 6.76555 14.7848 6.78132 14.8111 6.79184C14.9005 6.83917 14.9767 6.88649 15.0398 6.93382C15.1029 6.97589 15.1345 7.04687 15.1345 7.14678C15.1345 7.16256 15.1345 7.18096 15.1345 7.202C15.1345 7.22303 15.1292 7.24669 15.1187 7.27299C15.1082 7.32031 15.0582 7.4544 14.9688 7.67525C14.8847 7.89611 14.7743 8.17217 14.6375 8.50345C14.5008 8.83474 14.3431 9.20808 14.1643 9.6235C13.9908 10.0389 13.8067 10.4648 13.6122 10.9012C13.4229 11.3377 13.2309 11.7715 13.0364 12.2027C12.8471 12.6286 12.6683 13.0204 12.5 13.378C12.3896 13.6093 12.1635 14.1062 11.8217 14.8687C11.4851 15.6259 11.0224 16.6592 10.4334 17.9685C10.4177 18.0106 10.3966 18.0369 10.3703 18.0474C10.344 18.0579 10.3178 18.0632 10.2915 18.0632C10.2652 18.0632 10.2389 18.0606 10.2126 18.0553C10.1916 18.0501 10.1732 18.0474 10.1574 18.0474C10.1311 18.0474 10.1101 18.0632 10.0943 18.0948C10.0575 18.1631 10.0049 18.1973 9.93652 18.1973C9.87342 18.1973 9.83398 18.1789 9.81821 18.1421C9.79192 18.1 9.74722 18.0606 9.68412 18.0238C9.62628 17.987 9.58421 17.9317 9.55792 17.8581C9.5474 17.8266 9.53425 17.7977 9.51848 17.7714C9.5027 17.7451 9.48693 17.7161 9.47115 17.6846C9.46064 17.6478 9.45012 17.6083 9.4396 17.5663C9.43434 17.519 9.43172 17.4585 9.43172 17.3849C9.43172 17.2902 9.43172 17.2192 9.43172 17.1719C9.43697 17.1246 9.4396 17.0878 9.4396 17.0615C9.44486 17.0299 9.45012 17.0089 9.45538 16.9984C9.46064 16.9826 9.46852 16.9616 9.47904 16.9353C9.69989 16.3779 9.89708 15.9046 10.0706 15.5155C10.2494 15.1264 10.4019 14.7977 10.5281 14.5295C10.3125 14.5506 10.068 14.5716 9.79455 14.5926C9.52637 14.6084 9.2503 14.6242 8.96635 14.64C8.68239 14.6557 8.40107 14.6742 8.12237 14.6952C7.84893 14.711 7.60179 14.7294 7.38093 14.7504C7.28628 14.8661 7.16271 15.0133 7.01022 15.1921C6.86298 15.3709 6.7026 15.5602 6.52907 15.76C6.3608 15.9546 6.1899 16.1518 6.01638 16.3516C5.84285 16.5514 5.6851 16.7355 5.54312 16.9037C5.40114 17.0667 5.28283 17.2035 5.18818 17.3139C5.09352 17.4243 5.04357 17.4874 5.03831 17.5032C4.99098 17.5715 4.93051 17.6504 4.8569 17.7398C4.77802 17.8292 4.70177 17.916 4.62815 18.0001C4.54928 18.079 4.47829 18.1473 4.41519 18.2052C4.34683 18.263 4.29687 18.2919 4.26532 18.2919C4.22326 18.2919 4.19434 18.2578 4.17856 18.1894C4.16278 18.1263 4.14175 18.0632 4.11546 18.0001C4.07339 17.9107 4.03395 17.8266 3.99714 17.7477C3.95508 17.6636 3.9209 17.5821 3.89461 17.5032C3.89461 17.4927 3.89198 17.4821 3.88672 17.4716C3.88146 17.4611 3.87883 17.448 3.87883 17.4322C3.87883 17.3796 3.88935 17.3165 3.91038 17.2429C3.93141 17.164 3.95771 17.0851 3.98926 17.0063C4.01555 16.9274 4.04447 16.8564 4.07602 16.7933C4.10757 16.7249 4.13649 16.675 4.16278 16.6434C4.38364 16.3437 4.60186 16.0519 4.81746 15.7679C5.02779 15.4839 5.24602 15.2 5.47213 14.916C5.34593 14.916 5.25391 14.9134 5.19606 14.9082C5.14348 14.8976 5.11193 14.8792 5.10141 14.8529C5.09089 14.8161 5.07249 14.7925 5.0462 14.782C5.02516 14.7714 5.00413 14.7662 4.9831 14.7662C4.95681 14.7609 4.93577 14.753 4.92 14.7425C4.90422 14.732 4.89633 14.7083 4.89633 14.6715C4.89633 14.64 4.89896 14.6005 4.90422 14.5532C4.90422 14.5006 4.90948 14.448 4.92 14.3955C4.92525 14.3429 4.93577 14.2955 4.95155 14.2535C4.96206 14.2114 4.97521 14.1851 4.99098 14.1746C5.03831 14.122 5.12507 14.0721 5.25128 14.0247C5.37748 13.9722 5.53786 13.9091 5.73242 13.8354C5.88492 13.7829 6.13732 13.7329 6.48963 13.6856C7.05754 13.0178 7.62019 12.3867 8.17758 11.7925C8.73498 11.1983 9.2687 10.6541 9.77877 10.1598C10.2888 9.66031 10.7621 9.21334 11.1985 8.81896C11.6402 8.42458 12.0267 8.09067 12.358 7.81723C12.6946 7.53854 12.9654 7.32557 13.1704 7.17833C13.3808 7.02584 13.507 6.94434 13.5491 6.93382C13.5753 6.93382 13.599 6.93119 13.62 6.92593C13.6463 6.92067 13.6726 6.91804 13.6989 6.91804ZM14.8978 19.7117C14.861 19.7643 14.8111 19.8221 14.748 19.8852C14.6901 19.9483 14.6244 20.0062 14.5508 20.0588C14.4772 20.1114 14.3957 20.156 14.3063 20.1929C14.2221 20.2297 14.1354 20.2481 14.046 20.2481C13.9566 20.2481 13.8777 20.2323 13.8093 20.2007C13.741 20.1745 13.7068 20.1403 13.7068 20.0982C13.7068 20.0614 13.7278 20.0298 13.7699 20.0036C13.833 19.9615 13.8987 19.9036 13.9671 19.83C14.0302 19.7564 14.0617 19.6749 14.0617 19.5855C13.8146 19.6276 13.5333 19.7222 13.2178 19.8695C12.9023 20.022 12.5316 20.227 12.1056 20.4847C11.6797 20.7476 11.3405 21.0079 11.0881 21.2656C10.8305 21.5232 10.7016 21.7704 10.7016 22.007C10.7016 22.0649 10.7121 22.1227 10.7332 22.1805C10.7489 22.2436 10.7805 22.3041 10.8278 22.362C10.8594 22.3882 10.9014 22.404 10.954 22.4093C11.0066 22.4198 11.0618 22.4251 11.1197 22.4251C11.2985 22.4251 11.5219 22.383 11.7901 22.2989C12.0583 22.22 12.3449 22.1148 12.6499 21.9833C12.9549 21.8571 13.2677 21.7125 13.5885 21.5495C13.9093 21.3918 14.2169 21.2314 14.5113 21.0684C14.8479 20.8791 15.1555 20.674 15.4342 20.4531C15.7181 20.2376 15.96 20.0194 16.1599 19.7985C16.3649 19.5777 16.5279 19.3647 16.6489 19.1596C16.7698 18.9545 16.8434 18.7678 16.8697 18.5996C16.8382 18.5417 16.7935 18.4865 16.7357 18.4339C16.6778 18.3866 16.6095 18.3393 16.5306 18.2919C16.4675 18.2604 16.3755 18.2446 16.2545 18.2446C16.0705 18.2446 15.8444 18.2735 15.5762 18.3314C15.3133 18.3945 15.0451 18.4602 14.7716 18.5286C14.4982 18.6022 14.2432 18.6679 14.0065 18.7258C13.7699 18.7889 13.5885 18.8204 13.4623 18.8204C13.3834 18.8204 13.3098 18.7967 13.2414 18.7494C13.1678 18.7074 13.1021 18.6495 13.0442 18.5759C12.9864 18.5075 12.9338 18.4313 12.8865 18.3472C12.8392 18.2683 12.805 18.1894 12.784 18.1105C12.7209 18.0001 12.6893 17.866 12.6893 17.7083C12.6893 17.6189 12.7051 17.5216 12.7366 17.4164C12.7629 17.3533 12.8313 17.2718 12.9417 17.1719C13.0521 17.0667 13.181 16.9563 13.3282 16.8406C13.4754 16.7249 13.6332 16.6092 13.8015 16.4936C13.9697 16.3779 14.1248 16.2727 14.2668 16.1781C14.1301 16.0308 14.0223 15.8704 13.9434 15.6969C13.8593 15.5234 13.8172 15.3209 13.8172 15.0896C13.8172 14.7898 13.904 14.4507 14.0775 14.0721C14.2458 13.6882 14.5403 13.2702 14.9609 12.8179C15.1765 12.5813 15.4105 12.3762 15.6629 12.2027C15.9206 12.0292 16.1835 11.8846 16.4517 11.7689C16.7199 11.6532 16.9828 11.5664 17.2405 11.5086C17.5034 11.4507 17.7505 11.4218 17.9819 11.4218C18.1134 11.4218 18.2369 11.435 18.3526 11.4613C18.4736 11.4823 18.5814 11.5086 18.676 11.5401C19.1493 11.1142 19.5699 10.7724 19.938 10.5147C20.3061 10.2518 20.6216 10.0494 20.8845 9.90745C21.1475 9.76022 21.3578 9.66031 21.5156 9.60772C21.6733 9.54988 21.7785 9.5157 21.8311 9.50518C21.9573 9.47363 22.0493 9.45786 22.1071 9.45786C22.1807 9.45786 22.2386 9.48678 22.2806 9.54462C22.3227 9.5972 22.3438 9.65242 22.3438 9.71026C22.3438 9.81017 22.3043 9.91797 22.2254 10.0336C22.1466 10.1493 22.0256 10.2518 21.8626 10.3412C21.3736 10.6094 20.9029 10.896 20.4507 11.201C20.0038 11.5007 19.6015 11.7847 19.2439 12.0528C19.307 12.158 19.3517 12.2737 19.378 12.3999C19.4096 12.5208 19.4253 12.6365 19.4253 12.7469C19.4253 13.073 19.3596 13.3858 19.2281 13.6856C19.0967 13.9853 18.9284 14.2666 18.7233 14.5295C18.5183 14.7925 18.2921 15.037 18.045 15.2631C17.7979 15.4839 17.5612 15.6811 17.3351 15.8547C16.8987 16.1965 16.4727 16.441 16.0573 16.5882C15.6472 16.7302 15.2922 16.8012 14.9925 16.8012C14.861 16.8958 14.7059 17.001 14.5271 17.1167C14.3536 17.2324 14.188 17.3481 14.0302 17.4637C13.8672 17.5794 13.7278 17.6899 13.6122 17.795C13.4912 17.8949 13.4202 17.9791 13.3992 18.0474C13.5254 18.0474 13.6779 18.0264 13.8567 17.9843C14.0355 17.9423 14.2248 17.8976 14.4246 17.8502C14.6244 17.7977 14.8321 17.7503 15.0477 17.7083C15.2633 17.6662 15.471 17.6452 15.6708 17.6452C15.7129 17.6452 15.7497 17.6478 15.7812 17.653C15.8181 17.6583 15.8575 17.6609 15.8996 17.6609C16.3255 17.703 16.6515 17.7924 16.8776 17.9291C17.109 18.0658 17.2562 18.2446 17.3193 18.4655C17.4613 18.6074 17.5481 18.7442 17.5796 18.8756C17.5901 18.9177 17.598 18.9571 17.6033 18.9939C17.6085 19.0307 17.6112 19.0702 17.6112 19.1123C17.6112 19.3489 17.5402 19.5987 17.3982 19.8616C17.2562 20.1298 17.0696 20.3979 16.8382 20.6661C16.6068 20.9343 16.3413 21.192 16.0415 21.4391C15.7418 21.6915 15.4316 21.9176 15.1108 22.1174C14.7164 22.3698 14.3431 22.5775 13.9908 22.7406C13.6384 22.9036 13.3098 23.0324 13.0048 23.1271C12.6946 23.227 12.408 23.2953 12.1451 23.3321C11.8769 23.3743 11.6376 23.3952 11.4273 23.3952C11.259 23.3952 11.117 23.3795 11.0014 23.3479C10.8857 23.3216 10.791 23.2769 10.7174 23.2138C10.6385 23.1507 10.5754 23.0692 10.5281 22.9693C10.4755 22.8746 10.4308 22.7591 10.394 22.6222C10.21 22.3751 10.1179 22.099 10.1179 21.794C10.1179 21.6047 10.1574 21.4102 10.2363 21.2104C10.3099 21.0105 10.4256 20.8107 10.5833 20.6109C10.7358 20.4163 10.9304 20.227 11.167 20.043C11.3984 19.8642 11.6744 19.6959 11.9952 19.5382C12.479 19.2858 12.9075 19.1123 13.2809 19.0176C13.649 18.923 13.9618 18.8756 14.2195 18.8756C14.2773 18.8756 14.3352 18.8756 14.393 18.8756C14.4561 18.8809 14.5482 18.8967 14.6691 18.923C14.7743 18.9492 14.8479 18.9939 14.8899 19.057C14.9373 19.1201 14.9662 19.1938 14.9767 19.2779C14.9872 19.3042 14.9925 19.3278 14.9925 19.3489C14.9925 19.3699 14.9925 19.3936 14.9925 19.4199C14.9925 19.5356 14.9609 19.6328 14.8978 19.7117ZM17.761 12.4236C17.8189 12.3657 17.8741 12.3131 17.9267 12.2658C17.9793 12.2132 18.0319 12.158 18.0844 12.1002C17.9162 12.1054 17.7295 12.1449 17.5244 12.2185C17.3193 12.2921 17.1064 12.3973 16.8855 12.534C16.6647 12.6654 16.4359 12.8285 16.1993 13.023C15.9679 13.2123 15.7392 13.4332 15.5131 13.6856C15.1818 14.0431 14.9399 14.3771 14.7874 14.6873C14.6349 14.9923 14.5587 15.2841 14.5587 15.5628C14.6165 15.5891 14.6744 15.6102 14.7322 15.6259C14.7953 15.6364 14.8663 15.6417 14.9452 15.6417C15.166 15.6417 15.4368 15.5733 15.7576 15.4366C16.0836 15.2999 16.4596 15.0659 16.8855 14.7346C17.1537 14.5295 17.3824 14.3324 17.5717 14.1431C17.761 13.9485 17.9188 13.7644 18.045 13.5909C18.1712 13.4121 18.2659 13.2465 18.329 13.094C18.3973 12.9362 18.4446 12.789 18.4709 12.6523L18.1318 12.8968C18.0581 12.9547 17.9977 12.9915 17.9503 13.0072C17.9083 13.0178 17.8715 13.023 17.8399 13.023C17.7979 13.023 17.7637 13.0151 17.7374 12.9993C17.7163 12.9836 17.6848 12.9757 17.6427 12.9757C17.627 12.9757 17.6112 12.9783 17.5954 12.9836C17.5796 12.9888 17.5639 12.9915 17.5481 12.9915C17.5165 12.9915 17.5008 12.9757 17.5008 12.9441C17.5008 12.9126 17.5086 12.8731 17.5244 12.8258C17.5402 12.7785 17.5612 12.7312 17.5875 12.6838C17.6138 12.6313 17.6401 12.5839 17.6664 12.5419C17.6979 12.4945 17.7295 12.4551 17.761 12.4236Z" fill="#131313"/>
</svg>
