<svg width="24" height="24" viewBox="0 0 24 24" fill="none" xmlns="http://www.w3.org/2000/svg">
<path d="M5.67261 17.0002L8.05261 5.66016H8.93461L11.3286 17.0002H10.5586L9.97061 13.8642H7.03061L6.42861 17.0002H5.67261ZM7.14261 13.3042H9.87261L8.50061 6.58416L7.14261 13.3042ZM14.6014 19.7442C14.0414 19.7442 13.5654 19.6929 13.1734 19.5902C12.7814 19.4875 12.4828 19.3289 12.2774 19.1142C12.0814 18.8995 11.9834 18.6335 11.9834 18.3162C11.9834 18.0362 12.0534 17.7749 12.1934 17.5322C12.3428 17.2989 12.5248 17.0889 12.7394 16.9022C12.9634 16.7062 13.1921 16.5475 13.4254 16.4262C13.0801 16.3329 12.8281 16.2209 12.6694 16.0902C12.5201 15.9502 12.4454 15.7635 12.4454 15.5302C12.4454 15.2689 12.5388 15.0262 12.7254 14.8022C12.9121 14.5689 13.1548 14.3262 13.4534 14.0742C13.0521 13.7849 12.7721 13.4209 12.6134 12.9822C12.4641 12.5435 12.3894 12.0722 12.3894 11.5682C12.3894 11.1202 12.4641 10.6862 12.6134 10.2662C12.7721 9.83683 13.0148 9.48216 13.3414 9.20216C13.6774 8.92216 14.1114 8.78216 14.6434 8.78216C15.1381 8.78216 15.5208 8.89416 15.7914 9.11816C16.0714 9.34216 16.2861 9.58949 16.4354 9.86016C16.5288 9.68283 16.6781 9.50083 16.8834 9.31416C17.0888 9.11816 17.3034 8.98283 17.5274 8.90816L17.7234 8.83816L17.9334 9.39816C17.7748 9.43549 17.6114 9.49616 17.4434 9.58016C17.2754 9.66416 17.1214 9.76216 16.9814 9.87416C16.8414 9.97683 16.7248 10.0889 16.6314 10.2102C16.7061 10.3875 16.7668 10.6209 16.8134 10.9102C16.8694 11.1902 16.8974 11.4142 16.8974 11.5822C16.8974 12.1142 16.8228 12.5949 16.6734 13.0242C16.5241 13.4535 16.2861 13.7942 15.9594 14.0462C15.6328 14.2982 15.2034 14.4242 14.6714 14.4242C14.5221 14.4242 14.3634 14.4102 14.1954 14.3822C14.0368 14.3542 13.9061 14.3215 13.8034 14.2842C13.6261 14.4615 13.4628 14.6482 13.3134 14.8442C13.1641 15.0309 13.0894 15.2129 13.0894 15.3902C13.0894 15.5395 13.1408 15.6515 13.2434 15.7262C13.3554 15.8009 13.5281 15.8615 13.7614 15.9082L15.0774 16.1462C15.7401 16.2675 16.2581 16.4682 16.6314 16.7482C17.0141 17.0282 17.2054 17.4295 17.2054 17.9522C17.2054 18.3722 17.0841 18.7129 16.8414 18.9742C16.5988 19.2449 16.2814 19.4409 15.8894 19.5622C15.4974 19.6835 15.0681 19.7442 14.6014 19.7442ZM14.6014 19.1422C15.1521 19.1422 15.6188 19.0489 16.0014 18.8622C16.3841 18.6755 16.5754 18.3769 16.5754 17.9662C16.5754 17.7702 16.5288 17.5929 16.4354 17.4342C16.3514 17.2755 16.1834 17.1355 15.9314 17.0142C15.6794 16.8929 15.3014 16.7902 14.7974 16.7062L13.9154 16.5522C13.7568 16.6455 13.5748 16.7669 13.3694 16.9162C13.1734 17.0655 13.0008 17.2382 12.8514 17.4342C12.7021 17.6395 12.6274 17.8729 12.6274 18.1342C12.6274 18.4889 12.7954 18.7455 13.1314 18.9042C13.4768 19.0629 13.9668 19.1422 14.6014 19.1422ZM14.6714 13.8782C15.0168 13.8782 15.2921 13.8035 15.4974 13.6542C15.7028 13.4955 15.8568 13.2995 15.9594 13.0662C16.0621 12.8235 16.1274 12.5715 16.1554 12.3102C16.1928 12.0395 16.2114 11.7922 16.2114 11.5682C16.2114 11.3535 16.1881 11.1202 16.1414 10.8682C16.1041 10.6069 16.0294 10.3595 15.9174 10.1262C15.8054 9.89283 15.6468 9.70149 15.4414 9.55216C15.2454 9.40283 14.9841 9.32816 14.6574 9.32816C14.3308 9.32816 14.0648 9.40749 13.8594 9.56616C13.6541 9.72483 13.4908 9.92549 13.3694 10.1682C13.2574 10.4109 13.1781 10.6582 13.1314 10.9102C13.0941 11.1622 13.0754 11.3815 13.0754 11.5682C13.0754 11.7829 13.0941 12.0255 13.1314 12.2962C13.1688 12.5575 13.2434 12.8095 13.3554 13.0522C13.4674 13.2949 13.6261 13.4955 13.8314 13.6542C14.0461 13.8035 14.3261 13.8782 14.6714 13.8782Z" fill="#131313"/>
</svg>
