<svg width="24" height="24" viewBox="0 0 24 24" fill="none" xmlns="http://www.w3.org/2000/svg">
<path d="M5.34152 17.0002L7.60952 5.66016H9.82152L12.0895 17.0002H10.1715L9.72352 14.3822H7.74952L7.28752 17.0002H5.34152ZM7.95952 13.0662H9.49952L8.72952 8.30616L7.95952 13.0662ZM15.484 19.6602C14.9333 19.6602 14.448 19.6042 14.028 19.4922C13.608 19.3802 13.2813 19.2075 13.048 18.9742C12.8146 18.7409 12.698 18.4375 12.698 18.0642C12.698 17.8122 12.7493 17.5835 12.852 17.3782C12.964 17.1822 13.1133 17.0095 13.3 16.8602C13.4866 16.7109 13.6873 16.5849 13.902 16.4822C13.594 16.3982 13.356 16.2629 13.188 16.0762C13.0293 15.8895 12.95 15.6655 12.95 15.4042C12.95 15.0869 13.0293 14.8162 13.188 14.5922C13.3466 14.3682 13.566 14.1302 13.846 13.8782C13.5566 13.6449 13.3373 13.3555 13.188 13.0102C13.048 12.6555 12.978 12.1935 12.978 11.6242C12.978 11.0082 13.076 10.4902 13.272 10.0702C13.4773 9.64083 13.7713 9.31883 14.154 9.10416C14.546 8.88949 15.022 8.78216 15.582 8.78216C16.0113 8.78216 16.3706 8.84749 16.66 8.97816C16.9493 9.09949 17.1873 9.28616 17.374 9.53816C17.4486 9.42616 17.5793 9.28616 17.766 9.11816C17.9526 8.95016 18.1673 8.81016 18.41 8.69816L18.662 8.58616L19.124 9.60816C19.0213 9.63616 18.8813 9.68283 18.704 9.74816C18.536 9.81349 18.368 9.88349 18.2 9.95816C18.032 10.0329 17.9013 10.0982 17.808 10.1542C17.892 10.3409 17.962 10.5742 18.018 10.8542C18.074 11.1342 18.102 11.4002 18.102 11.6522C18.102 12.2215 18.0133 12.7162 17.836 13.1362C17.6586 13.5562 17.3833 13.8829 17.01 14.1162C16.646 14.3402 16.17 14.4522 15.582 14.4522C15.386 14.4522 15.1946 14.4382 15.008 14.4102C14.8213 14.3729 14.6486 14.3309 14.49 14.2842C14.434 14.3682 14.378 14.4569 14.322 14.5502C14.2753 14.6435 14.252 14.7415 14.252 14.8442C14.252 14.9469 14.308 15.0309 14.42 15.0962C14.532 15.1615 14.7186 15.2082 14.98 15.2362L16.688 15.4042C17.3506 15.4695 17.8406 15.6795 18.158 16.0342C18.4753 16.3795 18.634 16.8509 18.634 17.4482C18.634 17.9335 18.522 18.3395 18.298 18.6662C18.0833 18.9929 17.7426 19.2402 17.276 19.4082C16.8186 19.5762 16.2213 19.6602 15.484 19.6602ZM15.694 18.2322C16.2166 18.2322 16.6086 18.1809 16.87 18.0782C17.1313 17.9755 17.262 17.7889 17.262 17.5182C17.262 17.3689 17.2293 17.2475 17.164 17.1542C17.0986 17.0609 16.982 16.9862 16.814 16.9302C16.646 16.8649 16.408 16.8182 16.1 16.7902L14.714 16.6642C14.6113 16.7482 14.518 16.8369 14.434 16.9302C14.3593 17.0142 14.2986 17.1075 14.252 17.2102C14.2053 17.3129 14.182 17.4202 14.182 17.5322C14.182 17.7655 14.294 17.9382 14.518 18.0502C14.742 18.1715 15.134 18.2322 15.694 18.2322ZM15.582 13.2342C15.75 13.2342 15.8853 13.2062 15.988 13.1502C16.0906 13.0849 16.17 12.9869 16.226 12.8562C16.282 12.7162 16.3193 12.5435 16.338 12.3382C16.3566 12.1329 16.366 11.8949 16.366 11.6242C16.366 11.3535 16.3566 11.1155 16.338 10.9102C16.3193 10.7049 16.282 10.5322 16.226 10.3922C16.1793 10.2522 16.1046 10.1495 16.002 10.0842C15.8993 10.0189 15.7593 9.98616 15.582 9.98616C15.414 9.98616 15.274 10.0189 15.162 10.0842C15.0593 10.1495 14.98 10.2522 14.924 10.3922C14.8773 10.5229 14.84 10.6909 14.812 10.8962C14.7933 11.1015 14.784 11.3442 14.784 11.6242C14.784 11.8855 14.7933 12.1189 14.812 12.3242C14.8306 12.5202 14.868 12.6882 14.924 12.8282C14.98 12.9589 15.0593 13.0615 15.162 13.1362C15.274 13.2015 15.414 13.2342 15.582 13.2342Z" fill="#131313"/>
</svg>
