<svg width="24" height="24" viewBox="0 0 24 24" fill="none" xmlns="http://www.w3.org/2000/svg">
<path d="M3.96854 17.0001L7.86054 7.45215H8.44854L12.3265 17.0001H11.5145L8.00054 8.20815H8.29454L4.75254 17.0001H3.96854ZM5.66254 14.1861V13.5281H10.6325V14.1861H5.66254ZM16.1823 19.8981C15.5477 19.8981 14.9737 19.7768 14.4603 19.5341C13.947 19.3008 13.5363 18.9601 13.2283 18.5121L13.6763 18.0641C13.9283 18.4188 14.269 18.6988 14.6983 18.9041C15.1277 19.1188 15.627 19.2261 16.1963 19.2261C17.027 19.2261 17.6803 19.0021 18.1563 18.5541C18.6417 18.1061 18.8843 17.5041 18.8843 16.7481V15.1101L19.0523 13.5981L18.8843 12.1281V10.4901H19.5983V16.7481C19.5983 17.3828 19.4537 17.9334 19.1643 18.4001C18.8843 18.8668 18.4877 19.2308 17.9743 19.4921C17.461 19.7628 16.8637 19.8981 16.1823 19.8981ZM16.3223 16.9581C15.7063 16.9581 15.151 16.8181 14.6563 16.5381C14.171 16.2488 13.7883 15.8568 13.5083 15.3621C13.2283 14.8581 13.0883 14.2888 13.0883 13.6541C13.0883 13.0288 13.2283 12.4688 13.5083 11.9741C13.7883 11.4701 14.171 11.0734 14.6563 10.7841C15.1417 10.4948 15.6923 10.3501 16.3083 10.3501C16.8123 10.3501 17.265 10.4481 17.6663 10.6441C18.0677 10.8308 18.399 11.0968 18.6603 11.4421C18.931 11.7874 19.1037 12.1981 19.1783 12.6741V14.6481C19.0943 15.1148 18.917 15.5254 18.6463 15.8801C18.385 16.2254 18.0537 16.4914 17.6523 16.6781C17.2603 16.8648 16.817 16.9581 16.3223 16.9581ZM16.4483 16.3001C16.9337 16.3001 17.363 16.1928 17.7363 15.9781C18.119 15.7541 18.413 15.4461 18.6183 15.0541C18.8237 14.6528 18.9263 14.1861 18.9263 13.6541C18.9263 13.1314 18.819 12.6741 18.6043 12.2821C18.399 11.8901 18.1097 11.5821 17.7363 11.3581C17.363 11.1341 16.9243 11.0221 16.4203 11.0221C15.9163 11.0221 15.4683 11.1341 15.0763 11.3581C14.6843 11.5821 14.3763 11.8901 14.1523 12.2821C13.9283 12.6741 13.8163 13.1268 13.8163 13.6401C13.8163 14.1534 13.9283 14.6108 14.1523 15.0121C14.3763 15.4134 14.6843 15.7308 15.0763 15.9641C15.4777 16.1881 15.935 16.3001 16.4483 16.3001Z" fill="#131313"/>
</svg>
