<svg width="24" height="24" viewBox="0 0 24 24" fill="none" xmlns="http://www.w3.org/2000/svg">
<path d="M4.08672 17.0001L7.93672 7.53613H8.35672L12.1787 17.0001H11.6887L8.03472 7.92813H8.24472L4.56272 17.0001H4.08672ZM5.69672 13.8781V13.4721H10.5827V13.8781H5.69672ZM16.1351 19.8841C15.5191 19.8841 14.9591 19.7674 14.4551 19.5341C13.9511 19.3008 13.5451 18.9648 13.2371 18.5261L13.5031 18.2601C13.7551 18.6241 14.1098 18.9181 14.5671 19.1421C15.0245 19.3661 15.5518 19.4781 16.1491 19.4781C17.0451 19.4781 17.7545 19.2308 18.2771 18.7361C18.8091 18.2508 19.0751 17.5928 19.0751 16.7621V15.1241L19.2011 13.6121L19.0751 12.1421V10.5601H19.5091V16.7621C19.5091 17.3874 19.3691 17.9334 19.0891 18.4001C18.8091 18.8668 18.4125 19.2308 17.8991 19.4921C17.3951 19.7534 16.8071 19.8841 16.1351 19.8841ZM16.3451 17.0001C15.7198 17.0001 15.1598 16.8601 14.6651 16.5801C14.1798 16.2908 13.7925 15.8988 13.5031 15.4041C13.2231 14.9094 13.0831 14.3448 13.0831 13.7101C13.0831 13.0848 13.2231 12.5248 13.5031 12.0301C13.7831 11.5354 14.1658 11.1434 14.6511 10.8541C15.1458 10.5648 15.7011 10.4201 16.3171 10.4201C16.8118 10.4201 17.2598 10.5134 17.6611 10.7001C18.0718 10.8774 18.4125 11.1341 18.6831 11.4701C18.9631 11.8061 19.1545 12.2074 19.2571 12.6741V14.7601C19.1451 15.2174 18.9491 15.6141 18.6691 15.9501C18.3985 16.2861 18.0625 16.5474 17.6611 16.7341C17.2691 16.9114 16.8305 17.0001 16.3451 17.0001ZM16.4011 16.5941C16.9331 16.5941 17.3998 16.4774 17.8011 16.2441C18.2118 16.0014 18.5291 15.6654 18.7531 15.2361C18.9771 14.7974 19.0891 14.2888 19.0891 13.7101C19.0891 13.1408 18.9725 12.6414 18.7391 12.2121C18.5151 11.7828 18.1978 11.4468 17.7871 11.2041C17.3858 10.9521 16.9145 10.8261 16.3731 10.8261C15.8225 10.8261 15.3325 10.9521 14.9031 11.2041C14.4738 11.4468 14.1378 11.7828 13.8951 12.2121C13.6525 12.6414 13.5311 13.1361 13.5311 13.6961C13.5311 14.2561 13.6525 14.7554 13.8951 15.1941C14.1471 15.6328 14.4878 15.9781 14.9171 16.2301C15.3465 16.4728 15.8411 16.5941 16.4011 16.5941Z" fill="#131313"/>
</svg>
