<svg width="24" height="24" viewBox="0 0 24 24" fill="none" xmlns="http://www.w3.org/2000/svg">
<path d="M4.08705 17.0002L7.55905 7.2002H8.69305L12.165 17.0002H10.919L10.079 14.6062H6.18705L5.36105 17.0002H4.08705ZM6.55105 13.5282H9.70105L8.44105 9.9022C8.40838 9.80887 8.37105 9.70153 8.32905 9.5802C8.29171 9.4542 8.25438 9.33286 8.21705 9.2162C8.17971 9.09487 8.15171 8.9922 8.13305 8.9082C8.10971 8.9922 8.07938 9.09487 8.04205 9.2162C8.00938 9.33286 7.97205 9.4542 7.93005 9.5802C7.89271 9.70153 7.85771 9.80887 7.82505 9.9022L6.55105 13.5282ZM16.0983 19.9822L15.5103 19.0302C16.1449 18.9929 16.6629 18.9065 17.0643 18.7712C17.4703 18.6359 17.7689 18.4445 17.9603 18.1972C18.1563 17.9499 18.2543 17.6395 18.2543 17.2662V16.3002C17.8249 16.8789 17.2089 17.1682 16.4063 17.1682C15.8183 17.1682 15.3049 17.0119 14.8663 16.6992C14.4276 16.3865 14.0869 15.9502 13.8443 15.3902C13.6016 14.8255 13.4803 14.1675 13.4803 13.4162C13.4803 12.6555 13.6016 11.9952 13.8443 11.4352C14.0916 10.8752 14.4369 10.4435 14.8803 10.1402C15.3236 9.8322 15.8463 9.6782 16.4483 9.6782C16.8076 9.6782 17.1436 9.74587 17.4563 9.8812C17.7736 10.0119 18.0396 10.1962 18.2543 10.4342V9.8462H19.4723V16.8042C19.4723 17.3129 19.4046 17.7585 19.2693 18.1412C19.1339 18.5285 18.9263 18.8529 18.6463 19.1142C18.3663 19.3755 18.0139 19.5762 17.5893 19.7162C17.1693 19.8609 16.6723 19.9495 16.0983 19.9822ZM16.6583 16.0342C16.9663 16.0342 17.2649 15.9409 17.5543 15.7542C17.8483 15.5675 18.0816 15.3249 18.2543 15.0262V11.7502C18.0956 11.4749 17.8623 11.2485 17.5543 11.0712C17.2509 10.8892 16.9523 10.7982 16.6583 10.7982C16.0283 10.7982 15.5453 11.0222 15.2093 11.4702C14.8779 11.9182 14.7123 12.5669 14.7123 13.4162C14.7123 13.9482 14.7916 14.4102 14.9503 14.8022C15.1136 15.1942 15.3399 15.4975 15.6293 15.7122C15.9233 15.9269 16.2663 16.0342 16.6583 16.0342Z" fill="#131313"/>
</svg>
