<svg width="24" height="24" viewBox="0 0 24 24" fill="none" xmlns="http://www.w3.org/2000/svg">
<path d="M3.43758 17.0002L7.16858 7.2002H8.89058L12.6356 17.0002H10.6826L9.90558 14.9282H6.16058L5.39758 17.0002H3.43758ZM6.74858 13.2692H9.30358L8.32358 10.6442C8.29091 10.5649 8.25591 10.4762 8.21858 10.3782C8.18124 10.2802 8.14624 10.1822 8.11358 10.0842C8.08091 9.98153 8.05291 9.89287 8.02958 9.8182C8.00624 9.89287 7.97825 9.98153 7.94558 10.0842C7.91291 10.1822 7.87791 10.2802 7.84058 10.3782C7.80325 10.4762 7.76825 10.5649 7.73558 10.6442L6.74858 13.2692ZM16.5213 19.9822L15.5553 18.5192C16.2367 18.4679 16.764 18.3909 17.1373 18.2882C17.5153 18.1855 17.779 18.0385 17.9283 17.8472C18.0777 17.6559 18.1523 17.4062 18.1523 17.0982V16.5802C17.7883 16.9722 17.275 17.1682 16.6123 17.1682C15.9917 17.1682 15.4573 17.0189 15.0093 16.7202C14.5613 16.4169 14.216 15.9852 13.9733 15.4252C13.7353 14.8605 13.6163 14.1909 13.6163 13.4162C13.6163 12.6602 13.74 12.0022 13.9873 11.4422C14.2393 10.8822 14.5893 10.4482 15.0373 10.1402C15.49 9.8322 16.0197 9.6782 16.6263 9.6782C16.9437 9.6782 17.233 9.7272 17.4943 9.8252C17.7603 9.9232 17.9797 10.0655 18.1523 10.2522V9.8462H19.8953V16.3562C19.8953 16.9909 19.837 17.5275 19.7203 17.9662C19.6037 18.4049 19.4123 18.7642 19.1463 19.0442C18.885 19.3242 18.5397 19.5365 18.1103 19.6812C17.681 19.8305 17.1513 19.9309 16.5213 19.9822ZM16.8993 15.4952C17.1467 15.4952 17.3777 15.4392 17.5923 15.3272C17.8117 15.2105 17.9983 15.0542 18.1523 14.8582V11.9742C18.0217 11.7922 17.842 11.6429 17.6133 11.5262C17.3847 11.4049 17.1537 11.3442 16.9203 11.3442C16.4163 11.3442 16.0313 11.5215 15.7653 11.8762C15.504 12.2262 15.3733 12.7395 15.3733 13.4162C15.3733 13.8549 15.4317 14.2305 15.5483 14.5432C15.6697 14.8512 15.8447 15.0869 16.0733 15.2502C16.302 15.4135 16.5773 15.4952 16.8993 15.4952Z" fill="#131313"/>
</svg>
