<svg width="24" height="24" viewBox="0 0 24 24" fill="none" xmlns="http://www.w3.org/2000/svg">
<path d="M3.74908 17.0002L9.09008 7.2002H11.0011L12.8911 17.0002H10.9031L10.5321 14.9982H6.90608L5.83508 17.0002H3.74908ZM7.80908 13.2202H10.2311L9.75508 10.5602C9.74108 10.5042 9.72475 10.4249 9.70608 10.3222C9.68741 10.2149 9.67108 10.1099 9.65708 10.0072C9.64308 9.90453 9.63374 9.82753 9.62908 9.7762C9.60575 9.8322 9.57075 9.9092 9.52408 10.0072C9.47741 10.1005 9.42841 10.1962 9.37708 10.2942C9.33041 10.3875 9.29075 10.4645 9.25808 10.5252L7.80908 13.2202ZM15.7707 19.9822L15.1267 18.4282C15.6867 18.3955 16.1557 18.3232 16.5337 18.2112C16.9117 18.0992 17.2057 17.9429 17.4157 17.7422C17.6257 17.5415 17.761 17.2849 17.8217 16.9722L17.9197 16.4892C17.747 16.6992 17.5277 16.8649 17.2617 16.9862C16.9957 17.1075 16.69 17.1682 16.3447 17.1682C15.878 17.1682 15.4744 17.0492 15.1337 16.8112C14.793 16.5685 14.5294 16.2255 14.3427 15.7822C14.156 15.3389 14.0627 14.8209 14.0627 14.2282C14.0627 13.3182 14.2237 12.5225 14.5457 11.8412C14.8677 11.1599 15.297 10.6302 15.8337 10.2522C16.3704 9.86953 16.9607 9.6782 17.6047 9.6782C17.8987 9.6782 18.1717 9.7412 18.4237 9.8672C18.6757 9.98853 18.867 10.1542 18.9977 10.3642L19.0817 9.8462H20.9717L19.7327 16.7692C19.5974 17.5252 19.3617 18.1249 19.0257 18.5682C18.6897 19.0162 18.251 19.3475 17.7097 19.5622C17.173 19.7769 16.5267 19.9169 15.7707 19.9822ZM16.9537 15.3692C17.2244 15.3692 17.46 15.3249 17.6607 15.2362C17.866 15.1429 18.0457 15.0052 18.1997 14.8232L18.7037 12.0302C18.6337 11.9135 18.5147 11.7899 18.3467 11.6592C18.1787 11.5285 17.9407 11.4632 17.6327 11.4632C17.2687 11.4632 16.956 11.5729 16.6947 11.7922C16.438 12.0069 16.2397 12.3032 16.0997 12.6812C15.9597 13.0592 15.8897 13.4862 15.8897 13.9622C15.8897 14.3215 15.9714 14.6459 16.1347 14.9352C16.3027 15.2245 16.5757 15.3692 16.9537 15.3692Z" fill="#131313"/>
</svg>
