<svg width="24" height="24" viewBox="0 0 24 24" fill="none" xmlns="http://www.w3.org/2000/svg">
<path d="M3.72699 17.0002L8.85799 7.2002H10.125L11.833 17.0002H10.433L10.048 14.6902H6.39399L5.19699 17.0002H3.72699ZM7.03099 13.4442H9.84499L9.28499 10.0562C9.27566 9.9862 9.26166 9.89753 9.24299 9.7902C9.22433 9.6782 9.20566 9.56853 9.18699 9.4612C9.17299 9.35387 9.16366 9.2722 9.15899 9.2162C9.13566 9.2722 9.10066 9.35153 9.05399 9.4542C9.01199 9.55687 8.96533 9.66187 8.91399 9.7692C8.86266 9.87653 8.81599 9.9652 8.77399 10.0352L7.03099 13.4442ZM14.9471 19.9822L14.4991 18.8622C15.1665 18.8249 15.7031 18.7315 16.1091 18.5822C16.5151 18.4329 16.8185 18.2345 17.0191 17.9872C17.2198 17.7445 17.3481 17.4669 17.4041 17.1542L17.5301 16.3912C17.3575 16.5919 17.1265 16.7715 16.8371 16.9302C16.5478 17.0889 16.1931 17.1682 15.7731 17.1682C15.2878 17.1682 14.8701 17.0422 14.5201 16.7902C14.1748 16.5382 13.9065 16.1929 13.7151 15.7542C13.5285 15.3109 13.4351 14.8022 13.4351 14.2282C13.4351 13.3275 13.5868 12.5365 13.8901 11.8552C14.1981 11.1692 14.6158 10.6349 15.1431 10.2522C15.6751 9.86953 16.2771 9.6782 16.9491 9.6782C17.2618 9.6782 17.5628 9.7412 17.8521 9.8672C18.1415 9.9932 18.3841 10.1869 18.5801 10.4482L18.6921 9.8462H20.0501L18.7691 16.9652C18.6338 17.7492 18.3888 18.3512 18.0341 18.7712C17.6841 19.1912 17.2455 19.4875 16.7181 19.6602C16.1955 19.8329 15.6051 19.9402 14.9471 19.9822ZM16.1721 15.8872C16.5175 15.8872 16.8301 15.7985 17.1101 15.6212C17.3901 15.4439 17.6141 15.2292 17.7821 14.9772L18.3421 11.8062C18.2628 11.5962 18.1041 11.4002 17.8661 11.2182C17.6281 11.0362 17.3318 10.9452 16.9771 10.9452C16.5105 10.9452 16.1138 11.0899 15.7871 11.3792C15.4651 11.6639 15.2201 12.0419 15.0521 12.5132C14.8841 12.9845 14.8001 13.5002 14.8001 14.0602C14.8001 14.6015 14.9215 15.0425 15.1641 15.3832C15.4068 15.7192 15.7428 15.8872 16.1721 15.8872Z" fill="#131313"/>
</svg>
