<svg width="24" height="24" viewBox="0 0 24 24" fill="none" xmlns="http://www.w3.org/2000/svg">
<path d="M3.37863 16.5518L6.10863 7.33984H9.74863L12.4786 16.5518L12.1846 16.9998H10.1406L9.66463 15.2778H6.19263L5.71663 16.9998H3.67263L3.37863 16.5518ZM6.83662 13.0798H9.02063L8.01263 9.53784H7.84463L6.83662 13.0798ZM13.4669 14.6478V11.9038C13.4669 10.3358 14.2509 9.55184 15.8189 9.55184H19.9909V17.4478C19.9909 19.0158 19.2069 19.7998 17.6389 19.7998H15.1189L14.1389 19.0718V17.7698H17.4709C17.5923 17.7698 17.6529 17.7091 17.6529 17.5878V16.9998H15.8189C14.2509 16.9998 13.4669 16.2158 13.4669 14.6478ZM15.8049 14.7878C15.8049 14.9091 15.8656 14.9698 15.9869 14.9698H17.6529V11.5818H15.9869C15.8656 11.5818 15.8049 11.6425 15.8049 11.7638V14.7878Z" fill="#131313"/>
</svg>
