<svg width="24" height="24" viewBox="0 0 24 24" fill="none" xmlns="http://www.w3.org/2000/svg">
<path d="M3.2966 16.7478L6.4606 7.33984H8.3926L11.5566 16.7478L11.3886 16.9998H10.4226L9.6246 14.5638H5.2286L4.4306 16.9998H3.4646L3.2966 16.7478ZM5.5786 13.4998H9.2746L7.5946 8.40384H7.2586L5.5786 13.4998ZM12.843 14.8998V11.8198C12.843 10.4198 13.543 9.71984 14.943 9.71984H18.863V17.6998C18.863 19.0998 18.163 19.7998 16.763 19.7998H13.963L13.403 19.3798V18.8198H16.763C17.4163 18.8198 17.743 18.4931 17.743 17.8398V16.9998H14.943C13.543 16.9998 12.843 16.2998 12.843 14.8998ZM13.963 15.0398C13.963 15.6931 14.2896 16.0198 14.943 16.0198H17.743V10.6998H14.943C14.2896 10.6998 13.963 11.0265 13.963 11.6798V15.0398Z" fill="#131313"/>
</svg>
