<svg width="24" height="24" viewBox="0 0 24 24" fill="none" xmlns="http://www.w3.org/2000/svg">
<path d="M3.51567 16.6218L6.38567 7.33984H9.46567L12.3357 16.6218L12.0837 16.9998H10.4037L9.81567 15.0398H6.03567L5.44767 16.9998H3.76767L3.51567 16.6218ZM6.58167 13.2198H9.26967L8.03767 9.15984H7.81367L6.58167 13.2198ZM13.4279 14.7318V11.8758C13.4279 10.3638 14.1839 9.60784 15.6959 9.60784H19.7839V17.5318C19.7839 19.0438 19.0279 19.7998 17.5159 19.7998H14.8979L14.0579 19.1698V18.1198H17.4039C17.7026 18.1198 17.8519 17.9705 17.8519 17.6718V16.9998H15.6959C14.1839 16.9998 13.4279 16.2438 13.4279 14.7318ZM15.3599 14.8718C15.3599 15.1705 15.5092 15.3198 15.8079 15.3198H17.8519V11.2878H15.8079C15.5092 11.2878 15.3599 11.4371 15.3599 11.7358V14.8718Z" fill="#131313"/>
</svg>
