<svg width="24" height="24" viewBox="0 0 24 24" fill="none" xmlns="http://www.w3.org/2000/svg">
<path d="M3.3457 16.0547L3.29785 16L3.3457 15.6992L3.40723 15.6514L3.80371 15.5898C3.91764 15.5716 3.99512 15.5511 4.03613 15.5283C4.07715 15.5055 4.12044 15.4668 4.16602 15.4121C4.21159 15.3574 4.31413 15.2116 4.47363 14.9746C4.63314 14.7376 4.84277 14.4118 5.10254 13.9971L5.25293 13.7783L9.9834 6.29297H10.626L11.7744 14.5508C11.8382 15.0111 11.8952 15.2891 11.9453 15.3848C11.9954 15.4805 12.0706 15.5397 12.1709 15.5625C12.2712 15.5853 12.5309 15.6149 12.9502 15.6514L12.9912 15.7061L12.9365 16L12.875 16.0547C12.237 16.0182 11.6878 16 11.2275 16C10.9176 16 10.373 16.0182 9.59375 16.0547L9.5459 16L9.59375 15.7061L9.65527 15.6514C10.2204 15.6286 10.5417 15.5944 10.6191 15.5488C10.7012 15.5033 10.7422 15.4053 10.7422 15.2549C10.7422 15.2184 10.7103 14.8675 10.6465 14.2021L10.3799 12.1787H6.96875L6.00488 13.7783C5.91374 13.9287 5.7679 14.1839 5.56738 14.5439C5.37142 14.904 5.25749 15.1227 5.22559 15.2002C5.19824 15.2731 5.18457 15.3324 5.18457 15.3779C5.18457 15.4554 5.22786 15.5146 5.31445 15.5557C5.4056 15.5921 5.74056 15.6217 6.31934 15.6445L6.36035 15.6992L6.3125 16L6.25098 16.0547C5.72233 16.0182 5.22559 16 4.76074 16C4.37793 16 3.90625 16.0182 3.3457 16.0547ZM7.31055 11.6455H10.3184L9.79883 7.67383L7.31055 11.6455ZM16.0059 15.8018C15.8008 15.5876 15.6982 15.4281 15.6982 15.3232C15.6982 15.2139 15.7666 15.0703 15.9033 14.8926C16.0446 14.7103 16.2884 14.4688 16.6348 14.168C16.5026 14.1771 16.3955 14.1816 16.3135 14.1816C15.7712 14.1816 15.3405 14.0404 15.0215 13.7578C14.7025 13.4707 14.543 13.0446 14.543 12.4795C14.543 12.083 14.6204 11.6888 14.7754 11.2969C14.9303 10.9004 15.14 10.5791 15.4043 10.333C15.6732 10.0824 15.9945 9.86589 16.3682 9.68359C16.7464 9.5013 17.1566 9.41016 17.5986 9.41016C18.3825 9.41016 18.9271 9.66536 19.2324 10.1758C19.7611 10.1667 20.1553 10.137 20.415 10.0869L20.4424 10.1211L20.333 10.8047C20.21 10.7956 20.0915 10.791 19.9775 10.791C19.818 10.791 19.6357 10.8001 19.4307 10.8184C19.4489 10.9642 19.458 11.0964 19.458 11.2148C19.458 11.862 19.2461 12.4476 18.8223 12.9717C18.403 13.4912 17.8356 13.849 17.1201 14.0449C16.8649 14.2865 16.7373 14.4915 16.7373 14.6602C16.7373 14.8333 16.8034 14.9974 16.9355 15.1523C17.0723 15.3027 17.4801 15.6582 18.1592 16.2188C18.5511 16.5378 18.8063 16.818 18.9248 17.0596C19.0479 17.3011 19.1094 17.5312 19.1094 17.75C19.1094 18.3379 18.7858 18.8415 18.1387 19.2607C17.4915 19.68 16.6803 19.8896 15.7051 19.8896C14.9121 19.8896 14.306 19.7393 13.8867 19.4385C13.472 19.1377 13.2646 18.7344 13.2646 18.2285C13.2646 17.9323 13.3467 17.6383 13.5107 17.3467C13.6748 17.055 13.9801 16.7679 14.4268 16.4854C14.8734 16.2028 15.3997 15.9749 16.0059 15.8018ZM15.5342 12.2197C15.5342 12.6891 15.6436 13.0583 15.8623 13.3271C16.0856 13.5915 16.4069 13.7236 16.8262 13.7236C17.373 13.7236 17.7786 13.4753 18.043 12.9785C18.3073 12.4818 18.4395 11.9189 18.4395 11.29C18.4395 10.9801 18.3939 10.7204 18.3027 10.5107C18.2116 10.3011 18.0703 10.137 17.8789 10.0186C17.6921 9.90007 17.4619 9.84082 17.1885 9.84082C16.6598 9.84082 16.252 10.0755 15.9648 10.5449C15.6777 11.0143 15.5342 11.5726 15.5342 12.2197ZM16.2246 16.0479C15.8372 16.1436 15.4704 16.3008 15.124 16.5195C14.7777 16.7383 14.5293 16.9775 14.3789 17.2373C14.2331 17.4971 14.1602 17.7682 14.1602 18.0508C14.1602 18.5065 14.3379 18.862 14.6934 19.1172C15.0534 19.377 15.5182 19.5068 16.0879 19.5068C16.4798 19.5068 16.8353 19.4521 17.1543 19.3428C17.4779 19.2334 17.7308 19.0716 17.9131 18.8574C18.0954 18.6478 18.1865 18.4176 18.1865 18.167C18.1865 18.0075 18.1478 17.8457 18.0703 17.6816C17.9928 17.5176 17.8949 17.3786 17.7764 17.2646C17.6579 17.1553 17.4596 16.9958 17.1816 16.7861L16.2246 16.0479Z" fill="#131313"/>
</svg>
