<svg width="24" height="24" viewBox="0 0 24 24" fill="none" xmlns="http://www.w3.org/2000/svg">
<path d="M8.54992 8.95047L6.88392 13.4025H10.2719L8.54992 8.95047ZM9.09592 7.48047L12.7499 16.8325L11.6439 17.0005L10.5939 14.2985H6.57592L5.58192 17.0005H4.50392L8.01792 7.48047H9.09592ZM18.3441 11.6945C18.0828 11.4612 17.7981 11.2792 17.4901 11.1485C17.1915 11.0178 16.9115 10.9525 16.6501 10.9525C15.9221 10.9525 15.4041 11.2138 15.0961 11.7365C14.7975 12.2498 14.6481 12.8705 14.6481 13.5985C14.6481 14.3545 14.7928 14.9845 15.0821 15.4885C15.3808 15.9925 15.9035 16.2445 16.6501 16.2445C16.9115 16.2445 17.1915 16.1792 17.4901 16.0485C17.7981 15.9178 18.0828 15.7358 18.3441 15.5025V11.6945ZM19.4641 17.5465C19.4641 18.2558 19.2168 18.8485 18.7221 19.3245C18.2368 19.8005 17.5088 20.0385 16.5381 20.0385C16.2581 20.0385 15.8801 19.9825 15.4041 19.8705C14.9281 19.7678 14.5455 19.6138 14.2561 19.4085L14.5921 18.6105C14.8721 18.7318 15.1475 18.8485 15.4181 18.9605C15.6981 19.0725 16.0621 19.1285 16.5101 19.1285C17.0701 19.1285 17.5135 18.9932 17.8401 18.7225C18.1761 18.4612 18.3441 18.0645 18.3441 17.5325V16.4965C18.0735 16.7018 17.7655 16.8652 17.4201 16.9865C17.0841 17.1078 16.7668 17.1685 16.4681 17.1685C15.4788 17.1685 14.7368 16.8372 14.2421 16.1745C13.7568 15.5025 13.5141 14.6485 13.5141 13.6125C13.5141 12.5765 13.7615 11.7178 14.2561 11.0365C14.7601 10.3552 15.5068 10.0145 16.4961 10.0145C16.8228 10.0145 17.1681 10.0938 17.5321 10.2525C17.8961 10.4018 18.2228 10.5932 18.5121 10.8265C18.5588 10.7332 18.6055 10.6352 18.6521 10.5325C18.6988 10.4205 18.7455 10.3132 18.7921 10.2105H19.4641V17.5465Z" fill="#131313"/>
</svg>
