<svg width="24" height="24" viewBox="0 0 24 24" fill="none" xmlns="http://www.w3.org/2000/svg">
<path d="M8.18614 10.5325L7.27614 13.1225H9.13814L8.18614 10.5325ZM9.50214 7.48047L13.0581 16.7485L10.5521 17.0005L9.86614 15.1245H6.57614L5.91814 17.0005H3.38414L6.95414 7.48047H9.50214ZM18.3633 14.8865V12.4785C18.2326 12.3572 18.0646 12.2545 17.8593 12.1705C17.6633 12.0865 17.4813 12.0445 17.3133 12.0445C16.9306 12.0445 16.6553 12.2172 16.4873 12.5625C16.3286 12.8985 16.2493 13.2345 16.2493 13.5705C16.2493 13.9718 16.3566 14.3265 16.5713 14.6345C16.7953 14.9332 17.1126 15.0825 17.5233 15.0825C17.6259 15.0825 17.7613 15.0638 17.9293 15.0265C18.0973 14.9892 18.2419 14.9425 18.3633 14.8865ZM20.9113 10.2245V17.0705C20.9113 18.0505 20.5846 18.7925 19.9313 19.2965C19.2873 19.8098 18.3679 20.0665 17.1733 20.0665C16.8839 20.0665 16.4499 20.0058 15.8713 19.8845C15.2926 19.7725 14.7839 19.5718 14.3453 19.2825L15.1153 17.4905C15.5726 17.7145 15.9506 17.8545 16.2493 17.9105C16.5573 17.9758 16.8513 18.0085 17.1313 18.0085C17.4206 18.0085 17.6959 17.9525 17.9573 17.8405C18.2279 17.7285 18.3633 17.5652 18.3633 17.3505V16.8605C18.1673 16.9445 17.9479 17.0145 17.7053 17.0705C17.4626 17.1265 17.1873 17.1545 16.8793 17.1545C15.7873 17.1545 14.9706 16.8185 14.4293 16.1465C13.8879 15.4745 13.6173 14.6345 13.6173 13.6265C13.6173 12.6092 13.8833 11.7458 14.4153 11.0365C14.9566 10.3272 15.8246 9.97247 17.0193 9.97247C17.4019 9.97247 17.7846 10.0565 18.1673 10.2245C18.5593 10.3832 18.9046 10.5698 19.2033 10.7845L19.6373 10.2245H20.9113Z" fill="#131313"/>
</svg>
