<svg width="24" height="24" viewBox="0 0 24 24" fill="none" xmlns="http://www.w3.org/2000/svg">
<path d="M11.5069 17.5937C11.3576 17.9297 11.0589 18.0977 10.6109 18.0977C10.1629 18.0977 9.80361 17.981 9.53295 17.7477C9.27161 17.5144 9.05695 17.127 8.88895 16.5857C8.73028 16.0444 8.59495 15.3257 8.48295 14.4297H4.38095C3.90495 15.503 3.66695 16.3337 3.66695 16.9217C3.66695 17.1924 3.72295 17.4164 3.83495 17.5937C3.61095 17.9297 3.28895 18.0977 2.86895 18.0977C2.44895 18.0977 2.23895 17.8644 2.23895 17.3977C2.23895 17.1364 2.31828 16.7537 2.47695 16.2497C2.64495 15.7364 3.24695 14.4064 4.28295 12.2597C5.31895 10.1037 5.96295 8.64304 6.21495 7.87771C6.47628 7.10304 6.60695 6.60371 6.60695 6.37971C6.60695 6.15571 6.59295 5.98771 6.56495 5.87571C6.87295 5.66104 7.20895 5.55371 7.57295 5.55371C7.93695 5.55371 8.22628 5.64704 8.44095 5.83371C8.66495 6.01104 8.85628 6.36104 9.01495 6.88371C9.18295 7.40638 9.36961 8.79238 9.57495 11.0417C9.78961 13.291 10.0323 14.8824 10.3029 15.8157C10.4989 16.5064 10.9003 17.099 11.5069 17.5937ZM7.57295 7.68171C7.35828 8.18571 6.91495 9.11904 6.24295 10.4817C5.57095 11.8444 5.09028 12.843 4.80095 13.4777H8.38495C8.33828 12.8897 8.25895 12.1244 8.14695 11.1817C8.04428 10.2297 7.97428 9.62771 7.93695 9.37571C7.82495 8.71304 7.70361 8.14838 7.57295 7.68171ZM19.2941 15.8857C19.2941 17.6217 18.9301 18.9984 18.2021 20.0157C17.4741 21.0424 16.4988 21.5557 15.2761 21.5557C14.9028 21.5557 14.5621 21.523 14.2541 21.4577C13.9461 21.4017 13.6615 21.271 13.4001 21.0657C13.1388 20.8604 13.0081 20.5664 13.0081 20.1837C13.0081 19.801 13.1761 19.451 13.5121 19.1337C14.0535 20.0577 14.8235 20.5197 15.8221 20.5197C16.3261 20.5197 16.6901 20.3797 16.9141 20.0997C17.0541 19.941 17.1708 19.7777 17.2641 19.6097C17.3668 19.4417 17.4508 19.1897 17.5161 18.8537C17.5908 18.5177 17.6468 18.205 17.6841 17.9157C17.7308 17.617 17.7681 17.2017 17.7961 16.6697C17.8335 15.9137 17.8708 14.8544 17.9081 13.4917C17.4228 14.8544 16.8441 15.979 16.1721 16.8657C15.5001 17.7524 14.8841 18.1957 14.3241 18.1957C13.7641 18.1957 13.2881 17.9064 12.8961 17.3277C12.5135 16.7397 12.3221 15.8577 12.3221 14.6817C12.3221 13.179 12.6581 11.7884 13.3301 10.5097C13.6475 9.89371 14.0768 9.39438 14.6181 9.01171C15.1595 8.61971 15.7941 8.42371 16.5221 8.42371C17.2501 8.42371 17.8755 8.73638 18.3981 9.36171C18.4728 9.06304 18.5661 8.85771 18.6781 8.74571C18.7995 8.62438 19.0095 8.56371 19.3081 8.56371C19.6068 8.56371 19.8821 8.66171 20.1341 8.85771C19.9381 9.19371 19.7281 9.64638 19.5041 10.2157C19.3641 11.3824 19.2941 13.2724 19.2941 15.8857ZM16.4801 9.38971C15.6588 9.38971 15.0055 9.86571 14.5201 10.8177C14.0348 11.7604 13.7921 12.9317 13.7921 14.3317C13.7921 15.0317 13.8808 15.6057 14.0581 16.0537C14.2355 16.4924 14.4968 16.7117 14.8421 16.7117C15.1875 16.7117 15.6121 16.3524 16.1161 15.6337C16.6295 14.9057 17.0961 14.019 17.5161 12.9737C17.9361 11.919 18.1928 10.967 18.2861 10.1177C17.6421 9.63238 17.0401 9.38971 16.4801 9.38971Z" fill="#131313"/>
</svg>
