<svg width="24" height="24" viewBox="0 0 24 24" fill="none" xmlns="http://www.w3.org/2000/svg">
<path d="M8.76858 7.77441C8.29258 7.77441 7.85391 8.17108 7.45258 8.96441C7.11658 9.60841 6.70591 10.8637 6.22058 12.7304C5.72591 14.6344 5.47858 15.9177 5.47858 16.5804C5.47858 16.8511 5.63724 16.9864 5.95458 16.9864C6.27191 16.9864 6.44924 16.8977 6.48658 16.7204C6.78524 14.6017 7.01391 13.4677 7.17258 13.3184C7.20991 13.2811 7.33124 13.2624 7.53658 13.2624C7.69524 13.2624 8.11058 13.2997 8.78258 13.3744C9.41724 13.4491 9.79058 13.5191 9.90258 13.5844C9.97724 13.6311 10.1266 14.2471 10.3506 15.4324L10.5606 16.5104C10.5979 16.6877 10.6726 16.8184 10.7846 16.9024C10.9059 16.9771 11.0412 17.0144 11.1906 17.0144C11.4332 17.0144 11.5826 16.9584 11.6386 16.8464C11.6946 16.7251 11.7132 16.6131 11.6946 16.5104C11.1346 13.2717 10.5606 10.8871 9.97258 9.35641C9.72991 8.74041 9.52458 8.31574 9.35658 8.08241C9.20725 7.87708 9.01125 7.77441 8.76858 7.77441ZM8.71258 9.32841C8.87125 9.32841 9.07658 9.78108 9.32858 10.6864C9.58058 11.5824 9.70658 12.0957 9.70658 12.2264C9.70658 12.3384 9.69724 12.4131 9.67858 12.4504C9.65991 12.4691 9.58991 12.4784 9.46858 12.4784C9.20725 12.4784 8.84324 12.4504 8.37658 12.3944C7.86324 12.3384 7.56924 12.2731 7.49458 12.1984C7.47591 12.1797 7.46658 12.1471 7.46658 12.1004C7.46658 11.8951 7.63924 11.3864 7.98458 10.5744C8.33924 9.74374 8.58191 9.32841 8.71258 9.32841ZM15.6465 10.5464C14.7505 10.5464 13.9992 10.8637 13.3925 11.4984C12.7952 12.1237 12.4965 12.9591 12.4965 14.0044C12.4965 14.4897 12.5852 14.9657 12.7625 15.4324C12.9492 15.8897 13.2152 16.2724 13.5605 16.5804C13.9245 16.8884 14.3258 17.0424 14.7645 17.0424C15.1938 17.0424 15.6325 16.8977 16.0805 16.6084C16.1085 16.7671 16.1598 16.8791 16.2345 16.9444C16.3092 17.0004 16.4165 17.0284 16.5565 17.0284C16.7058 17.0284 16.8085 17.0051 16.8645 16.9584C16.9298 16.9117 16.9718 16.8277 16.9905 16.7064C17.0278 16.5291 17.0465 16.2864 17.0465 15.9784V15.6564C17.0465 15.1431 16.9765 14.6017 16.8365 14.0324C16.7618 13.7897 16.5798 13.6124 16.2905 13.5004C16.0945 13.4257 15.8472 13.3884 15.5485 13.3884L15.1565 13.4024C14.8578 13.4304 14.7085 13.6124 14.7085 13.9484C14.7085 14.1164 14.7785 14.2284 14.9185 14.2844C15.0678 14.3404 15.3432 14.3684 15.7445 14.3684C15.9218 14.3684 16.0105 14.6111 16.0105 15.0964C16.0105 15.3764 15.8985 15.6097 15.6745 15.7964C15.4598 15.9737 15.1798 16.0624 14.8345 16.0624C14.4985 16.0624 14.1952 15.8571 13.9245 15.4464C13.6632 15.0451 13.5325 14.5457 13.5325 13.9484C13.5325 13.3417 13.7192 12.7957 14.0925 12.3104C14.4752 11.8157 14.9605 11.5684 15.5485 11.5684C15.7818 11.5684 16.0478 11.6384 16.3465 11.7784C16.5332 11.8531 16.6592 11.8904 16.7245 11.8904C16.8645 11.8904 16.9858 11.8437 17.0885 11.7504C17.1912 11.6571 17.2425 11.5451 17.2425 11.4144C17.2425 11.1717 17.0745 10.9664 16.7385 10.7984C16.4025 10.6304 16.0385 10.5464 15.6465 10.5464Z" fill="#131313"/>
</svg>
