<svg width="24" height="24" viewBox="0 0 24 24" fill="none" xmlns="http://www.w3.org/2000/svg">
<path d="M3.20215 13.2617C3.20215 13.3379 3.17887 13.4014 3.13232 13.4522C3.09001 13.4987 3.03288 13.5389 2.96094 13.5728C2.889 13.6066 2.80225 13.6341 2.70068 13.6553C2.60335 13.6764 2.50179 13.6955 2.396 13.7124C2.30713 13.7293 2.20133 13.7695 2.07861 13.833C1.95589 13.8965 1.8374 13.9938 1.72314 14.125C1.60889 14.252 1.51156 14.4212 1.43115 14.6328C1.35498 14.8402 1.31689 15.0983 1.31689 15.4072C1.31689 15.7246 1.35921 15.9891 1.44385 16.2007C1.53271 16.4081 1.64909 16.5752 1.79297 16.7022C1.93685 16.8291 2.09977 16.9201 2.28174 16.9751C2.46794 17.0259 2.65837 17.0513 2.85303 17.0513C3.07308 17.0513 3.28255 17.0195 3.48145 16.9561C3.68034 16.8926 3.87288 16.7974 4.05908 16.6704C4.24528 16.5435 4.42936 16.3827 4.61133 16.188C4.79329 15.9933 4.97949 15.7648 5.16992 15.5025C5.40267 15.1766 5.62907 14.819 5.84912 14.4297C6.0734 14.0361 6.29346 13.6278 6.50928 13.2046C6.7251 12.7772 6.93457 12.3434 7.1377 11.9033C7.34505 11.4632 7.54605 11.0316 7.74072 10.6084C7.93962 10.1852 8.13216 9.77896 8.31836 9.38964C8.50879 9.00032 8.69287 8.64485 8.87061 8.32323C9.0568 7.98892 9.22396 7.72021 9.37207 7.51708C9.52441 7.30972 9.66829 7.15315 9.80371 7.04736C9.94336 6.93733 10.083 6.86539 10.2227 6.83153C10.3623 6.79345 10.5146 6.77441 10.6797 6.77441C11.1536 6.77441 11.4964 6.87597 11.708 7.07909C11.9196 7.28222 12.0254 7.58479 12.0254 7.98681C12.0254 8.29573 11.9725 8.66389 11.8667 9.0913C11.7609 9.51871 11.6276 9.97786 11.4668 10.4688C11.306 10.9554 11.1325 11.459 10.9463 11.9795C10.7601 12.4958 10.5866 12.9972 10.4258 13.4839C10.265 13.9706 10.1317 14.4255 10.0259 14.8486C9.92008 15.2676 9.86719 15.6252 9.86719 15.9214C9.86719 16.243 9.94124 16.4927 10.0894 16.6704C10.2375 16.8482 10.4829 16.937 10.8257 16.937C11.105 16.937 11.3737 16.8714 11.6318 16.7402C11.8942 16.6091 12.1523 16.4144 12.4062 16.1563C12.6644 15.8939 12.9246 15.568 13.187 15.1787C13.4536 14.7894 13.7329 14.3366 14.0249 13.8203L14.355 13.2363L14.5264 13.3569L14.1963 13.9409C13.8831 14.4953 13.5869 14.9798 13.3076 15.3945C13.0283 15.805 12.749 16.1478 12.4697 16.4229C12.1904 16.6979 11.9048 16.9032 11.6128 17.0386C11.325 17.1782 11.0161 17.2481 10.686 17.2481C10.4237 17.2481 10.193 17.2079 9.99413 17.1275C9.79525 17.047 9.62809 16.937 9.49267 16.7974C9.35725 16.6577 9.25358 16.4948 9.18163 16.3086C9.11392 16.1182 9.08008 15.9151 9.08008 15.6992C9.08008 15.513 9.10335 15.293 9.1499 15.0391C9.20068 14.7852 9.26627 14.5101 9.34667 14.2139C9.43131 13.9134 9.52653 13.5982 9.63232 13.2681C9.74235 12.9338 9.8566 12.5931 9.97509 12.2461H7.30273C7.14616 12.572 6.98535 12.8936 6.82031 13.2109C6.65951 13.5283 6.49658 13.8351 6.33154 14.1314C6.17074 14.4276 6.00781 14.709 5.84277 14.9756C5.68197 15.238 5.52327 15.4771 5.3667 15.6929C5.15934 15.9806 4.9541 16.2261 4.75098 16.4292C4.55208 16.6281 4.34896 16.7931 4.1416 16.9243C3.93424 17.0555 3.72266 17.1507 3.50684 17.21C3.29102 17.2692 3.06673 17.2988 2.83398 17.2988C2.27116 17.2988 1.83105 17.1359 1.51367 16.8101C1.20052 16.48 1.04395 16.0039 1.04395 15.3818C1.04395 15.0475 1.08838 14.7344 1.17725 14.4424C1.26611 14.1462 1.38883 13.888 1.54541 13.668C1.70199 13.4479 1.88607 13.2744 2.09766 13.1475C2.30924 13.0205 2.53776 12.957 2.7832 12.957C2.90592 12.957 3.00537 12.9782 3.08154 13.0205C3.16195 13.0628 3.20215 13.1432 3.20215 13.2617ZM9.15625 8.39941C9.04199 8.61523 8.91715 8.85855 8.78174 9.12939C8.65055 9.40022 8.51301 9.68798 8.36913 9.99267C8.22526 10.2974 8.07503 10.6148 7.91846 10.9448C7.76611 11.2707 7.60954 11.6008 7.44873 11.9351H10.083C10.2227 11.5288 10.3581 11.1247 10.4893 10.7227C10.6247 10.3206 10.7453 9.93554 10.8511 9.56737C10.9611 9.19921 11.0479 8.85855 11.1113 8.5454C11.179 8.23225 11.2129 7.96142 11.2129 7.7329C11.2129 7.58479 11.1981 7.46418 11.1685 7.37109C11.1388 7.27799 11.0965 7.20605 11.0415 7.15527C10.9907 7.10025 10.9272 7.06428 10.8511 7.04736C10.7791 7.0262 10.6987 7.01562 10.6099 7.01562C10.4702 7.01562 10.3411 7.03678 10.2227 7.07909C10.1084 7.12141 9.99626 7.19547 9.88623 7.30126C9.7762 7.40706 9.66195 7.54882 9.54346 7.72655C9.42496 7.90429 9.2959 8.12857 9.15625 8.39941ZM14.8882 20.3457C14.4777 20.3457 14.137 20.2907 13.8662 20.1807C13.5911 20.0706 13.3732 19.8971 13.2124 19.6602C13.1278 19.5459 13.0643 19.4232 13.022 19.292C12.9754 19.1651 12.9521 19.0381 12.9521 18.9111C12.9521 18.7207 13.0029 18.5705 13.1045 18.4605C13.2018 18.3504 13.3372 18.2954 13.5107 18.2954C13.6589 18.2954 13.7752 18.3356 13.8599 18.416C13.9445 18.4964 13.9868 18.6086 13.9868 18.7525C13.9868 18.8879 13.9508 18.9979 13.8789 19.0825C13.807 19.1672 13.716 19.2095 13.606 19.2095C13.5594 19.2095 13.5234 19.2031 13.498 19.1904C13.4684 19.1777 13.4367 19.1714 13.4028 19.1714C13.3817 19.1714 13.3669 19.1756 13.3584 19.1841C13.3499 19.1968 13.3457 19.2201 13.3457 19.2539C13.3457 19.3724 13.3838 19.4803 13.46 19.5776C13.5361 19.6792 13.6419 19.766 13.7773 19.8379C13.9128 19.9141 14.0736 19.9712 14.2598 20.0093C14.446 20.0516 14.647 20.0728 14.8628 20.0728C15.1717 20.0728 15.4552 20.0283 15.7134 19.9395C15.9715 19.8506 16.2064 19.7109 16.418 19.5205C16.6338 19.3343 16.8285 19.0952 17.002 18.8032C17.1797 18.5155 17.3426 18.1685 17.4907 17.7622L18.6968 14.4234C18.1551 15.3247 17.6177 15.9997 17.0845 16.4483C16.5513 16.8968 16.0096 17.1211 15.4595 17.1211C15.1971 17.1211 14.9728 17.0746 14.7866 16.9815C14.6047 16.8841 14.4544 16.7508 14.3359 16.5816C14.2174 16.4081 14.1307 16.207 14.0757 15.9785C14.0207 15.7458 13.9932 15.4919 13.9932 15.2168C13.9932 14.9206 14.0228 14.6095 14.082 14.2837C14.1413 13.9536 14.2259 13.6235 14.3359 13.2935C14.4883 12.8364 14.6702 12.4217 14.8818 12.0493C15.0934 11.6727 15.3219 11.3384 15.5674 11.0464C15.8171 10.7544 16.0773 10.5026 16.3481 10.291C16.6232 10.0794 16.8962 9.90592 17.167 9.7705C17.4421 9.63085 17.7108 9.52717 17.9731 9.45946C18.2397 9.39176 18.4894 9.3579 18.7222 9.3579C18.9634 9.3579 19.1644 9.39387 19.3252 9.46581C19.4902 9.53352 19.6214 9.63297 19.7188 9.76415C19.8161 9.89534 19.8859 10.054 19.9282 10.2402C19.9705 10.4264 19.9917 10.6338 19.9917 10.8623L20.4995 9.47851H21.439L18.4429 17.7114C18.1297 18.5705 17.6706 19.2243 17.0654 19.6729C16.4603 20.1214 15.7345 20.3457 14.8882 20.3457ZM15.688 16.8037C15.9165 16.8037 16.1493 16.7445 16.3862 16.626C16.6232 16.5033 16.8581 16.3382 17.0908 16.1309C17.3278 15.9193 17.5563 15.6738 17.7764 15.3945C17.9964 15.111 18.2038 14.8106 18.3984 14.4932C18.5973 14.1716 18.7793 13.8415 18.9443 13.5029C19.1094 13.1644 19.2511 12.8322 19.3696 12.5064C19.4924 12.1763 19.5854 11.8631 19.6489 11.5669C19.7166 11.2665 19.7505 10.9977 19.7505 10.7608C19.7505 10.5449 19.723 10.3651 19.668 10.2212C19.6172 10.0731 19.5474 9.95458 19.4585 9.86571C19.3739 9.77262 19.2744 9.70702 19.1602 9.66894C19.0501 9.63085 18.9359 9.61181 18.8174 9.61181C18.5804 9.61181 18.3159 9.68586 18.0239 9.83398C17.7362 9.97786 17.4421 10.2 17.1416 10.5005C16.8411 10.7967 16.5449 11.1734 16.2529 11.6304C15.9652 12.0832 15.7007 12.6164 15.4595 13.23C15.2606 13.742 15.1104 14.216 15.0088 14.6519C14.9115 15.0877 14.8628 15.4517 14.8628 15.7437C14.8628 16.0737 14.9284 16.334 15.0596 16.5244C15.195 16.7106 15.4045 16.8037 15.688 16.8037Z" fill="#131313"/>
</svg>
