<svg width="24" height="24" viewBox="0 0 24 24" fill="none" xmlns="http://www.w3.org/2000/svg">
<path d="M3.8479 16.0001C3.8759 15.8321 3.9179 15.7014 3.9739 15.6081C4.02057 15.5148 4.08123 15.4588 4.1559 15.4401L4.9819 15.1601L4.5619 15.5661L8.7619 7.12408C8.79923 7.04941 8.8599 6.98875 8.9439 6.94208C9.0279 6.89541 9.11657 6.86741 9.2099 6.85808C9.31257 6.83941 9.39657 6.83008 9.4619 6.83008C9.53657 6.83008 9.60657 6.83475 9.6719 6.84408C9.73723 6.85341 9.7979 6.86741 9.8539 6.88608L11.6039 15.5241L11.2959 15.1461L12.4159 15.3981C12.3972 15.5381 12.3646 15.6501 12.3179 15.7341C12.2712 15.8181 12.1966 15.9068 12.0939 16.0001H9.2239C9.26123 15.8321 9.30323 15.7014 9.3499 15.6081C9.4059 15.5148 9.46657 15.4588 9.5319 15.4401L10.4559 15.1741L10.3439 15.4821L8.8039 7.93608L9.1119 7.92208L5.3039 15.5521V15.1321L6.4939 15.3981C6.4659 15.5381 6.42857 15.6501 6.3819 15.7341C6.33523 15.8181 6.25123 15.9068 6.1299 16.0001H3.8479ZM6.3259 13.0321L6.5919 12.3601H9.9519L10.0219 13.0321H6.3259ZM14.8285 19.6121C14.4645 19.6121 14.1378 19.5468 13.8485 19.4161C13.5685 19.2948 13.3445 19.1221 13.1765 18.8981C13.0178 18.6834 12.9385 18.4314 12.9385 18.1421C12.9385 17.9461 12.9758 17.7828 13.0505 17.6521C13.1345 17.5308 13.2372 17.4374 13.3585 17.3721C13.4892 17.3068 13.6292 17.2741 13.7785 17.2741C13.8532 17.2741 13.9278 17.2788 14.0025 17.2881C14.0865 17.3068 14.1612 17.3301 14.2265 17.3581C14.2172 17.4421 14.2078 17.5261 14.1985 17.6101C14.1892 17.7034 14.1845 17.7921 14.1845 17.8761C14.1845 18.2494 14.2732 18.5434 14.4505 18.7581C14.6372 18.9728 14.9078 19.0801 15.2625 19.0801C15.7105 19.0801 16.0838 18.9354 16.3825 18.6461C16.6812 18.3568 16.9098 17.8668 17.0685 17.1761C17.2272 16.4854 17.3065 15.5381 17.3065 14.3341H17.2365C17.0218 14.9314 16.7185 15.3888 16.3265 15.7061C15.9438 16.0141 15.5238 16.1681 15.0665 16.1681C14.5158 16.1681 14.0865 15.9674 13.7785 15.5661C13.4705 15.1648 13.3165 14.5768 13.3165 13.8021C13.3165 13.1954 13.4052 12.6354 13.5825 12.1221C13.7692 11.5994 14.0258 11.1468 14.3525 10.7641C14.6792 10.3721 15.0618 10.0688 15.5005 9.85408C15.9392 9.63941 16.4105 9.53208 16.9145 9.53208C17.3065 9.53208 17.6518 9.58808 17.9505 9.70008C18.2585 9.80275 18.5432 9.98008 18.8045 10.2321L18.7065 10.6521C18.5945 10.5494 18.4125 10.4234 18.1605 10.2741C17.9085 10.1248 17.5305 10.0501 17.0265 10.0501C16.6718 10.0501 16.3452 10.1434 16.0465 10.3301C15.7572 10.5168 15.5098 10.7828 15.3045 11.1281C15.1085 11.4641 14.9545 11.8514 14.8425 12.2901C14.7305 12.7194 14.6745 13.1814 14.6745 13.6761C14.6745 14.0401 14.7072 14.3528 14.7725 14.6141C14.8472 14.8754 14.9592 15.0714 15.1085 15.2021C15.2578 15.3328 15.4445 15.3981 15.6685 15.3981C15.9392 15.3981 16.1818 15.3001 16.3965 15.1041C16.6205 14.9081 16.8212 14.5954 16.9985 14.1661C17.1852 13.7368 17.3532 13.1861 17.5025 12.5141C17.6612 11.8421 17.8058 11.0348 17.9365 10.0921L18.6785 9.53208C18.8558 9.53208 19.0005 9.55075 19.1125 9.58808C19.2338 9.62541 19.2945 9.70475 19.2945 9.82608C19.2945 9.90075 19.2618 10.0641 19.1965 10.3161C19.1405 10.5588 19.0658 10.8574 18.9725 11.2121C18.8885 11.5668 18.7998 11.9494 18.7065 12.3601C18.6132 12.7614 18.5338 13.1721 18.4685 13.5921C18.4125 14.0028 18.3845 14.3808 18.3845 14.7261C18.3845 16.3128 18.1138 17.5214 17.5725 18.3521C17.0312 19.1921 16.1165 19.6121 14.8285 19.6121Z" fill="#131313"/>
</svg>
