<svg width="24" height="24" viewBox="0 0 24 24" fill="none" xmlns="http://www.w3.org/2000/svg">
<path d="M4.04614 16.0001C4.07414 15.8694 4.11147 15.7668 4.15814 15.6921C4.19547 15.6174 4.25147 15.5754 4.32614 15.5661L5.06814 15.3421L4.73214 15.6641L9.03014 7.05408C9.05814 6.99808 9.10014 6.95608 9.15614 6.92808C9.21214 6.89075 9.26814 6.86741 9.32414 6.85808C9.38947 6.83941 9.44547 6.83008 9.49214 6.83008C9.53881 6.83008 9.58547 6.83475 9.63214 6.84408C9.67881 6.85341 9.71614 6.86275 9.74414 6.87208L11.5361 15.6361L11.2561 15.3141L12.3201 15.5521C12.3015 15.6734 12.2735 15.7668 12.2361 15.8321C12.1988 15.8881 12.1288 15.9441 12.0261 16.0001H9.57614C9.60414 15.8694 9.64147 15.7668 9.68814 15.6921C9.73481 15.6174 9.79547 15.5754 9.87014 15.5661L10.7661 15.3281L10.6401 15.5661L9.03014 7.76808L9.22614 7.75408L5.27814 15.6641L5.29214 15.3141L6.35614 15.5521C6.32814 15.6734 6.29081 15.7668 6.24414 15.8321C6.20681 15.8881 6.13681 15.9441 6.03414 16.0001H4.04614ZM6.46814 12.9201L6.67814 12.4161H10.1501L10.2341 12.9201H6.46814ZM14.7393 19.6121C14.394 19.6121 14.086 19.5468 13.8153 19.4161C13.554 19.2854 13.3486 19.1034 13.1993 18.8701C13.05 18.6461 12.9753 18.3801 12.9753 18.0721C12.9753 17.9228 12.9986 17.7921 13.0453 17.6801C13.1013 17.5774 13.176 17.4934 13.2693 17.4281C13.3626 17.3721 13.47 17.3441 13.5913 17.3441C13.6473 17.3441 13.7033 17.3488 13.7593 17.3581C13.8153 17.3674 13.8713 17.3814 13.9273 17.4001C13.918 17.5028 13.9086 17.5961 13.8993 17.6801C13.89 17.7734 13.8853 17.8668 13.8853 17.9601C13.8853 18.3428 13.9833 18.6508 14.1793 18.8841C14.3846 19.1174 14.6833 19.2341 15.0753 19.2341C15.5606 19.2341 15.9666 19.0801 16.2933 18.7721C16.6293 18.4641 16.8813 17.9461 17.0493 17.2181C17.2173 16.4994 17.306 15.5148 17.3153 14.2641H17.2453C17.04 14.8708 16.746 15.3421 16.3633 15.6781C15.99 16.0048 15.5653 16.1681 15.0893 16.1681C14.5386 16.1681 14.114 15.9674 13.8153 15.5661C13.5166 15.1554 13.3673 14.5674 13.3673 13.8021C13.3673 13.1954 13.456 12.6354 13.6333 12.1221C13.8106 11.5994 14.058 11.1468 14.3753 10.7641C14.702 10.3721 15.08 10.0688 15.5093 9.85408C15.9386 9.63941 16.4053 9.53208 16.9093 9.53208C17.2546 9.53208 17.5626 9.57875 17.8333 9.67208C18.1133 9.76541 18.37 9.91475 18.6033 10.1201L18.5753 10.4421C18.454 10.3488 18.272 10.2414 18.0293 10.1201C17.7866 9.99875 17.4413 9.93808 16.9933 9.93808C16.6106 9.93808 16.256 10.0314 15.9293 10.2181C15.6026 10.3954 15.318 10.6568 15.0753 11.0021C14.842 11.3381 14.6553 11.7348 14.5153 12.1921C14.3846 12.6494 14.3193 13.1534 14.3193 13.7041C14.3193 14.0588 14.3566 14.3808 14.4313 14.6701C14.5153 14.9594 14.6413 15.1881 14.8093 15.3561C14.9866 15.5241 15.2153 15.6081 15.4953 15.6081C15.794 15.6081 16.0646 15.5054 16.3073 15.3001C16.55 15.0948 16.7693 14.7728 16.9653 14.3341C17.1613 13.8861 17.3433 13.3074 17.5113 12.5981C17.6793 11.8794 17.8473 11.0161 18.0153 10.0081L18.5193 9.53208C18.65 9.53208 18.7573 9.54608 18.8413 9.57408C18.9253 9.60208 18.9673 9.66275 18.9673 9.75608C18.9673 9.84008 18.9346 10.0128 18.8693 10.2741C18.8133 10.5354 18.7386 10.8481 18.6453 11.2121C18.5613 11.5668 18.4726 11.9494 18.3793 12.3601C18.286 12.7708 18.2066 13.1814 18.1413 13.5921C18.0853 14.0028 18.0573 14.3761 18.0573 14.7121C18.0573 16.3081 17.8053 17.5214 17.3013 18.3521C16.7973 19.1921 15.9433 19.6121 14.7393 19.6121Z" fill="#131313"/>
</svg>
