<svg width="24" height="24" viewBox="0 0 24 24" fill="none" xmlns="http://www.w3.org/2000/svg">
<path d="M3.25749 16.0004C3.25749 15.7297 3.27616 15.5104 3.31349 15.3424C3.36016 15.1651 3.41616 15.0624 3.48149 15.0344L4.65749 14.5584L3.98549 15.2724L6.85549 7.34841C6.90216 7.21774 7.01883 7.11508 7.20549 7.04041C7.39216 6.95641 7.58816 6.90041 7.79349 6.87241C8.00816 6.83508 8.18083 6.81641 8.31149 6.81641C8.47949 6.81641 8.63816 6.82574 8.78749 6.84441C8.94616 6.86308 9.10016 6.89108 9.24949 6.92841L12.4135 15.2024L11.7555 14.6004L13.1835 14.9364C13.1835 15.1137 13.1602 15.2864 13.1135 15.4544C13.0762 15.6131 12.9922 15.7951 12.8615 16.0004H8.54949C8.54949 15.7297 8.56816 15.5104 8.60549 15.3424C8.65216 15.1651 8.70816 15.0624 8.77349 15.0344L9.80949 14.6564L9.72549 15.2164L7.13549 8.45441H7.94749L5.49749 15.2024L5.32949 14.5164L7.09349 14.9364C7.09349 15.1137 7.07016 15.2864 7.02349 15.4544C6.98616 15.6131 6.90216 15.7951 6.77149 16.0004H3.25749ZM5.69349 13.4104L5.93149 12.1504H9.16549L9.43149 13.4104H5.69349ZM16.906 19.7804C15.926 19.7804 15.1466 19.6077 14.568 19.2624C13.9893 18.9264 13.7 18.4737 13.7 17.9044C13.7 17.2231 14.0966 16.8824 14.89 16.8824C15.0766 16.8824 15.2726 16.9011 15.478 16.9384C15.6833 16.9757 15.8793 17.0317 16.066 17.1064C16.066 17.7317 16.1686 18.1937 16.374 18.4924C16.5886 18.7911 16.92 18.9404 17.368 18.9404C17.704 18.9404 17.9653 18.8564 18.152 18.6884C18.3386 18.5204 18.432 18.2871 18.432 17.9884C18.432 17.7551 18.376 17.5684 18.264 17.4284C18.152 17.2884 17.956 17.1764 17.676 17.0924C17.4053 17.0177 17.0273 16.9571 16.542 16.9104C15.786 16.8357 15.2493 16.7051 14.932 16.5184C14.6146 16.3411 14.456 16.0704 14.456 15.7064C14.456 15.3331 14.6053 14.9877 14.904 14.6704C15.2026 14.3531 15.618 14.1011 16.15 13.9144L16.458 14.1244C16.3926 14.2177 16.346 14.3017 16.318 14.3764C16.29 14.4417 16.276 14.5117 16.276 14.5864C16.276 14.6891 16.304 14.7684 16.36 14.8244C16.4253 14.8804 16.5466 14.9271 16.724 14.9644C16.9013 15.0017 17.1626 15.0391 17.508 15.0764C18.5346 15.1791 19.3 15.4077 19.804 15.7624C20.308 16.1171 20.56 16.6117 20.56 17.2464C20.56 17.7597 20.4106 18.2077 20.112 18.5904C19.8226 18.9731 19.4026 19.2671 18.852 19.4724C18.3106 19.6777 17.662 19.7804 16.906 19.7804ZM16.598 14.4044C15.6926 14.4044 14.9833 14.2084 14.47 13.8164C13.966 13.4244 13.714 12.8784 13.714 12.1784C13.714 11.6557 13.854 11.1984 14.134 10.8064C14.4233 10.4051 14.82 10.0924 15.324 9.86841C15.8373 9.64441 16.43 9.53241 17.102 9.53241C17.718 9.53241 18.2453 9.62574 18.684 9.81241C19.132 9.99908 19.4773 10.2604 19.72 10.5964C19.9626 10.9324 20.084 11.3337 20.084 11.8004C20.084 12.3044 19.9346 12.7524 19.636 13.1444C19.3373 13.5364 18.9266 13.8444 18.404 14.0684C17.8813 14.2924 17.2793 14.4044 16.598 14.4044ZM16.92 13.4944C17.144 13.4944 17.3166 13.3731 17.438 13.1304C17.5593 12.8877 17.62 12.5377 17.62 12.0804C17.62 11.5671 17.55 11.1657 17.41 10.8764C17.2793 10.5871 17.0926 10.4424 16.85 10.4424C16.6353 10.4424 16.4673 10.5684 16.346 10.8204C16.234 11.0631 16.178 11.4177 16.178 11.8844C16.178 12.3977 16.2433 12.7944 16.374 13.0744C16.5046 13.3544 16.6866 13.4944 16.92 13.4944ZM19.72 10.5964C19.5893 10.5964 19.4213 10.5871 19.216 10.5684C19.02 10.5497 18.824 10.5264 18.628 10.4984C18.4413 10.4611 18.2873 10.4284 18.166 10.4004L17.984 9.95241L20.364 8.98641C20.4386 9.12641 20.4993 9.28508 20.546 9.46241C20.602 9.63974 20.63 9.79374 20.63 9.92441C20.63 10.3724 20.3266 10.5964 19.72 10.5964Z" fill="#131313"/>
</svg>
