<svg width="24" height="24" viewBox="0 0 24 24" fill="none" xmlns="http://www.w3.org/2000/svg">
<path d="M3.97095 16.0001C3.99895 15.8508 4.03628 15.7341 4.08295 15.6501C4.12961 15.5661 4.19028 15.5148 4.26495 15.4961L5.04895 15.2441L4.67095 15.6081L8.91295 7.09608C8.95028 7.02141 9.00161 6.96541 9.06695 6.92808C9.14161 6.89075 9.21628 6.86741 9.29095 6.85808C9.37495 6.83941 9.44495 6.83008 9.50095 6.83008C9.56628 6.83008 9.62695 6.83475 9.68295 6.84408C9.73895 6.85341 9.78561 6.86741 9.82295 6.88608L11.6009 15.5801L11.3069 15.2301L12.3989 15.4681C12.3803 15.5988 12.3476 15.7014 12.3009 15.7761C12.2636 15.8508 12.1936 15.9254 12.0909 16.0001H9.41695C9.45428 15.8508 9.49628 15.7341 9.54295 15.6501C9.58961 15.5661 9.65028 15.5148 9.72495 15.4961L10.6349 15.2441L10.5089 15.5241L8.94095 7.85208L9.19295 7.83808L5.31495 15.6081L5.32895 15.2161L6.46295 15.4681C6.43495 15.5988 6.39761 15.7014 6.35095 15.7761C6.30428 15.8508 6.22495 15.9254 6.11295 16.0001H3.97095ZM6.42095 12.9761L6.65895 12.3881H10.0749L10.1449 12.9761H6.42095ZM14.7728 19.6121C14.4182 19.6121 14.1008 19.5468 13.8208 19.4161C13.5502 19.2948 13.3355 19.1221 13.1768 18.8981C13.0275 18.6834 12.9528 18.4314 12.9528 18.1421C12.9528 17.9648 12.9855 17.8154 13.0508 17.6941C13.1162 17.5821 13.2002 17.4934 13.3028 17.4281C13.4148 17.3628 13.5408 17.3301 13.6808 17.3301C13.7462 17.3301 13.8115 17.3348 13.8768 17.3441C13.9422 17.3628 14.0075 17.3814 14.0728 17.4001C14.0635 17.4934 14.0542 17.5821 14.0448 17.6661C14.0355 17.7594 14.0308 17.8481 14.0308 17.9321C14.0308 18.3054 14.1288 18.5994 14.3248 18.8141C14.5208 19.0381 14.8055 19.1501 15.1788 19.1501C15.6455 19.1501 16.0375 19.0008 16.3548 18.7021C16.6722 18.4034 16.9102 17.8948 17.0688 17.1761C17.2368 16.4668 17.3208 15.4914 17.3208 14.2501H17.2508C17.0455 14.8661 16.7468 15.3421 16.3548 15.6781C15.9722 16.0048 15.5428 16.1681 15.0668 16.1681C14.5255 16.1681 14.1008 15.9674 13.7928 15.5661C13.4942 15.1554 13.3448 14.5674 13.3448 13.8021C13.3448 13.1954 13.4335 12.6354 13.6108 12.1221C13.7882 11.5994 14.0355 11.1468 14.3528 10.7641C14.6795 10.3721 15.0575 10.0688 15.4868 9.85408C15.9162 9.63941 16.3828 9.53208 16.8868 9.53208C17.2695 9.53208 17.6055 9.58808 17.8948 9.70008C18.1935 9.80275 18.4688 9.97075 18.7208 10.2041L18.6788 10.5961C18.5668 10.4934 18.3848 10.3674 18.1328 10.2181C17.8808 10.0688 17.4982 9.99408 16.9848 9.99408C16.6208 9.99408 16.2848 10.0874 15.9768 10.2741C15.6782 10.4514 15.4215 10.7081 15.2068 11.0441C14.9922 11.3801 14.8242 11.7721 14.7028 12.2201C14.5815 12.6681 14.5208 13.1581 14.5208 13.6901C14.5208 14.0728 14.5582 14.4041 14.6328 14.6841C14.7075 14.9548 14.8242 15.1601 14.9828 15.3001C15.1415 15.4401 15.3422 15.5101 15.5848 15.5101C15.8648 15.5101 16.1215 15.4074 16.3548 15.2021C16.5882 14.9968 16.7982 14.6748 16.9848 14.2361C17.1808 13.7974 17.3582 13.2328 17.5168 12.5421C17.6755 11.8514 17.8248 11.0254 17.9648 10.0641L18.5948 9.53208C18.7535 9.53208 18.8842 9.55075 18.9868 9.58808C19.0895 9.61608 19.1408 9.68608 19.1408 9.79808C19.1408 9.87275 19.1082 10.0361 19.0428 10.2881C18.9868 10.5308 18.9122 10.8294 18.8188 11.1841C18.7348 11.5294 18.6462 11.9074 18.5528 12.3181C18.4595 12.7288 18.3802 13.1441 18.3148 13.5641C18.2588 13.9748 18.2308 14.3574 18.2308 14.7121C18.2308 16.3081 17.9648 17.5214 17.4328 18.3521C16.9102 19.1921 16.0235 19.6121 14.7728 19.6121Z" fill="#131313"/>
</svg>
