<svg width="24" height="24" viewBox="0 0 24 24" fill="none" xmlns="http://www.w3.org/2000/svg">
<path d="M6.45343 7.91406H9.11343L12.3894 17.0001H10.1774L9.36543 14.6061H6.04743L5.24943 17.0001H3.09343L6.45343 7.91406ZM8.88943 13.1501L7.74143 9.73406H7.68543L6.53743 13.1501H8.88943ZM16.057 20.0801C14.9557 20.0801 14.139 20.0474 13.607 19.9821V18.6101C14.4843 18.7314 15.301 18.7921 16.057 18.7921C16.7477 18.7921 17.2423 18.6801 17.541 18.4561C17.8397 18.2321 17.989 17.8588 17.989 17.3361V16.2441C17.821 16.4868 17.6577 16.6734 17.499 16.8041C17.3403 16.9254 17.1303 17.0094 16.869 17.0561C16.617 17.1121 16.267 17.1401 15.819 17.1401C15.1563 17.1401 14.629 17.0794 14.237 16.9581C13.845 16.8274 13.5603 16.6174 13.383 16.3281C13.2057 16.0294 13.117 15.6188 13.117 15.0961V12.4501C13.117 11.8248 13.1963 11.3441 13.355 11.0081C13.523 10.6721 13.803 10.4341 14.195 10.2941C14.5963 10.1541 15.1703 10.0841 15.917 10.0841C16.4023 10.0841 16.7757 10.1121 17.037 10.1681C17.289 10.2241 17.4803 10.3081 17.611 10.4201C17.7417 10.5321 17.891 10.7234 18.059 10.9941V10.2241H20.033V17.3641C20.033 18.3254 19.7017 19.0161 19.039 19.4361C18.3857 19.8654 17.3917 20.0801 16.057 20.0801ZM16.547 15.8661C16.9483 15.8661 17.247 15.8381 17.443 15.7821C17.6483 15.7261 17.7883 15.6374 17.863 15.5161C17.947 15.3854 17.989 15.2034 17.989 14.9701V12.2401C17.989 11.9881 17.9517 11.8014 17.877 11.6801C17.8023 11.5494 17.6577 11.4608 17.443 11.4141C17.2283 11.3674 16.8923 11.3441 16.435 11.3441C16.0617 11.3441 15.7863 11.3721 15.609 11.4281C15.4317 11.4841 15.3103 11.5821 15.245 11.7221C15.189 11.8528 15.161 12.0488 15.161 12.3101V14.9001C15.161 15.1894 15.189 15.3994 15.245 15.5301C15.3103 15.6514 15.4363 15.7401 15.623 15.7961C15.8097 15.8428 16.1177 15.8661 16.547 15.8661Z" fill="#131313"/>
</svg>
