<svg width="24" height="24" viewBox="0 0 24 24" fill="none" xmlns="http://www.w3.org/2000/svg">
<path d="M7.98786 7.03223L11.4039 15.8242C11.5345 16.1695 11.6839 16.4029 11.8519 16.5242C12.0292 16.6455 12.1925 16.7109 12.3419 16.7202V17.0002C12.1179 16.9815 11.8519 16.9722 11.5439 16.9722C11.2452 16.9629 10.9419 16.9582 10.6339 16.9582C10.2419 16.9582 9.87786 16.9629 9.54186 16.9722C9.20586 16.9722 8.93519 16.9815 8.72986 17.0002V16.7202C9.20586 16.7015 9.50453 16.6222 9.62586 16.4822C9.75653 16.3329 9.72853 16.0202 9.54186 15.5442L7.02186 8.74023L7.24586 8.48823L4.92186 14.5642C4.75386 14.9842 4.65119 15.3342 4.61386 15.6142C4.58586 15.8942 4.60919 16.1135 4.68386 16.2722C4.76786 16.4309 4.90786 16.5429 5.10386 16.6082C5.29986 16.6735 5.54253 16.7109 5.83186 16.7202V17.0002C5.55186 16.9815 5.26719 16.9722 4.97786 16.9722C4.69786 16.9629 4.43186 16.9582 4.17986 16.9582C3.95586 16.9582 3.75519 16.9629 3.57786 16.9722C3.40986 16.9722 3.25586 16.9815 3.11586 17.0002V16.7202C3.31186 16.6735 3.50786 16.5569 3.70386 16.3702C3.89986 16.1835 4.08653 15.8662 4.26386 15.4182L7.51186 7.03223C7.58653 7.03223 7.66586 7.03223 7.74986 7.03223C7.83386 7.03223 7.91319 7.03223 7.98786 7.03223ZM9.45786 12.9682V13.2482H5.28586L5.42586 12.9682H9.45786ZM15.2483 19.6322C14.7256 19.6322 14.2403 19.5809 13.7923 19.4782C13.3536 19.3755 12.9989 19.2169 12.7283 19.0022C12.4669 18.7969 12.3363 18.5309 12.3363 18.2042C12.3363 17.8962 12.4669 17.6255 12.7283 17.3922C12.9896 17.1589 13.3583 16.9815 13.8343 16.8602L13.9323 17.0842C13.7363 17.1682 13.5823 17.3035 13.4703 17.4902C13.3676 17.6769 13.3163 17.8822 13.3163 18.1062C13.3163 18.5169 13.5076 18.8342 13.8903 19.0582C14.2729 19.2822 14.7769 19.3942 15.4023 19.3942C15.8223 19.3942 16.2189 19.3382 16.5923 19.2262C16.9749 19.1235 17.2829 18.9509 17.5163 18.7082C17.7589 18.4655 17.8803 18.1529 17.8803 17.7702C17.8803 17.4715 17.7729 17.2195 17.5583 17.0142C17.3436 16.8182 16.9189 16.7202 16.2843 16.7202H15.3043C14.9776 16.7202 14.6743 16.6922 14.3943 16.6362C14.1143 16.5802 13.8856 16.4729 13.7083 16.3142C13.5403 16.1462 13.4563 15.9129 13.4563 15.6142C13.4563 15.2782 13.5963 14.9609 13.8763 14.6622C14.1563 14.3635 14.6276 14.0695 15.2903 13.7802L15.4583 13.9062C15.1876 14.0555 14.9449 14.2095 14.7303 14.3682C14.5249 14.5175 14.4223 14.7042 14.4223 14.9282C14.4223 15.2269 14.6369 15.3762 15.0663 15.3762H16.7323C17.1709 15.3762 17.5676 15.4369 17.9223 15.5582C18.2769 15.6702 18.5616 15.8522 18.7763 16.1042C18.9909 16.3562 19.0983 16.6875 19.0983 17.0982C19.0983 17.5369 18.9536 17.9475 18.6643 18.3302C18.3843 18.7222 17.9596 19.0349 17.3903 19.2682C16.8209 19.5109 16.1069 19.6322 15.2483 19.6322ZM15.3323 14.0182C14.8563 14.0182 14.4223 13.9435 14.0303 13.7942C13.6383 13.6355 13.3303 13.3929 13.1063 13.0662C12.8823 12.7395 12.7703 12.3195 12.7703 11.8062C12.7703 11.2929 12.8823 10.8729 13.1063 10.5462C13.3303 10.2102 13.6383 9.96756 14.0303 9.81823C14.4223 9.65956 14.8563 9.58023 15.3323 9.58023C15.8269 9.58023 16.2656 9.65956 16.6483 9.81823C17.0309 9.96756 17.3343 10.2102 17.5583 10.5462C17.7823 10.8729 17.8943 11.2929 17.8943 11.8062C17.8943 12.3195 17.7823 12.7395 17.5583 13.0662C17.3343 13.3929 17.0309 13.6355 16.6483 13.7942C16.2656 13.9435 15.8269 14.0182 15.3323 14.0182ZM15.3323 13.7662C15.6589 13.7662 15.9109 13.6262 16.0883 13.3462C16.2656 13.0662 16.3543 12.5529 16.3543 11.8062C16.3543 11.0595 16.2656 10.5462 16.0883 10.2662C15.9109 9.9769 15.6589 9.83223 15.3323 9.83223C15.0243 9.83223 14.7769 9.9769 14.5903 10.2662C14.4036 10.5462 14.3103 11.0595 14.3103 11.8062C14.3103 12.5529 14.4036 13.0662 14.5903 13.3462C14.7769 13.6262 15.0243 13.7662 15.3323 13.7662ZM17.4043 10.7562L17.1523 10.6582C17.2829 10.3315 17.5069 10.0469 17.8243 9.80423C18.1416 9.56156 18.4729 9.44023 18.8183 9.44023C19.0796 9.44023 19.2849 9.5149 19.4343 9.66423C19.5929 9.80423 19.6723 10.0049 19.6723 10.2662C19.6723 10.5555 19.5929 10.7609 19.4343 10.8822C19.2849 11.0035 19.1263 11.0642 18.9583 11.0642C18.8089 11.0642 18.6689 11.0129 18.5383 10.9102C18.4169 10.8075 18.3469 10.6489 18.3283 10.4342C18.3096 10.2102 18.3796 9.92556 18.5383 9.58023L18.6923 9.63623C18.3189 9.78556 18.0436 9.94423 17.8663 10.1122C17.6983 10.2709 17.5443 10.4855 17.4043 10.7562Z" fill="#131313"/>
</svg>
