<svg width="24" height="24" viewBox="0 0 24 24" fill="none" xmlns="http://www.w3.org/2000/svg">
<path d="M3.35713 17.0003L7.02513 6.57031H9.06913L12.7371 17.0003H10.9731L10.1751 14.6623H5.93313L5.12113 17.0003H3.35713ZM6.40913 13.1923H9.67113L7.82313 7.73231H8.28513L6.40913 13.1923ZM17.201 20.0803C16.6504 20.0803 16.1417 19.9916 15.675 19.8143C15.2084 19.637 14.807 19.3896 14.471 19.0723C14.135 18.7643 13.883 18.4003 13.715 17.9803L15.171 17.3783C15.3017 17.733 15.5397 18.027 15.885 18.2603C16.2397 18.4936 16.6737 18.6103 17.187 18.6103C17.5884 18.6103 17.9477 18.531 18.265 18.3723C18.5824 18.223 18.8344 17.999 19.021 17.7003C19.2077 17.411 19.301 17.061 19.301 16.6503V14.9423L19.581 15.2643C19.3197 15.7496 18.9557 16.1183 18.489 16.3703C18.0317 16.6223 17.5137 16.7483 16.935 16.7483C16.235 16.7483 15.605 16.585 15.045 16.2583C14.485 15.9316 14.0417 15.4836 13.715 14.9143C13.3977 14.345 13.239 13.7056 13.239 12.9963C13.239 12.2776 13.3977 11.6383 13.715 11.0783C14.0417 10.5183 14.4804 10.075 15.031 9.74831C15.5817 9.42164 16.2117 9.25831 16.921 9.25831C17.4997 9.25831 18.013 9.38431 18.461 9.63631C18.9184 9.87898 19.2917 10.2336 19.581 10.7003L19.371 11.0923V9.42631H20.869V16.6503C20.869 17.3036 20.7104 17.887 20.393 18.4003C20.085 18.923 19.6557 19.3336 19.105 19.6323C18.5544 19.931 17.9197 20.0803 17.201 20.0803ZM17.117 15.2783C17.537 15.2783 17.9104 15.1803 18.237 14.9843C18.5637 14.779 18.8204 14.5083 19.007 14.1723C19.203 13.827 19.301 13.4396 19.301 13.0103C19.301 12.581 19.203 12.1936 19.007 11.8483C18.811 11.503 18.5497 11.2323 18.223 11.0363C17.8964 10.831 17.5277 10.7283 17.117 10.7283C16.6877 10.7283 16.305 10.831 15.969 11.0363C15.633 11.2323 15.367 11.503 15.171 11.8483C14.9844 12.1843 14.891 12.5716 14.891 13.0103C14.891 13.4303 14.9844 13.813 15.171 14.1583C15.367 14.5036 15.633 14.779 15.969 14.9843C16.305 15.1803 16.6877 15.2783 17.117 15.2783Z" fill="#131313"/>
</svg>
