<svg width="24" height="24" viewBox="0 0 24 24" fill="none" xmlns="http://www.w3.org/2000/svg">
<path d="M3.12177 15.9999V14.7539H4.47977L6.67777 8.99991H5.40377V7.75391H8.41377L10.9758 14.7539H12.2638V15.9999H8.72177V14.7539H9.51977L9.08577 13.5219H6.20177L5.75377 14.7539H6.59377V15.9999H3.12177ZM6.57977 12.4719H8.72177L7.68577 9.27991L6.57977 12.4719ZM15.5299 14.3759C14.6246 14.3759 13.9106 14.1752 13.3879 13.7739C12.8746 13.3726 12.6179 12.8079 12.6179 12.0799C12.6179 11.3052 12.8793 10.6986 13.4019 10.2599C13.9339 9.81191 14.6479 9.58791 15.5439 9.58791C15.8986 9.58791 16.2113 9.62058 16.4819 9.68591C16.7526 9.74191 17.0093 9.83524 17.2519 9.96591L19.3239 9.22391L19.7439 10.4419L18.0639 10.7499C18.2133 10.9272 18.3159 11.1279 18.3719 11.3519C18.4373 11.5666 18.4699 11.7812 18.4699 11.9959C18.4699 12.5279 18.3393 12.9712 18.0779 13.3259C17.8259 13.6806 17.4759 13.9466 17.0279 14.1239C16.5893 14.2919 16.0899 14.3759 15.5299 14.3759ZM15.6419 19.2759C15.2033 19.2759 14.7786 19.2386 14.3679 19.1639C13.9573 19.0892 13.5839 18.9959 13.2479 18.8839C12.9213 18.7719 12.6739 18.6692 12.5059 18.5759L13.0099 17.4839C13.4113 17.6706 13.8359 17.8152 14.2839 17.9179C14.7413 18.0299 15.1939 18.0859 15.6419 18.0859C16.0526 18.0859 16.3839 18.0486 16.6359 17.9739C16.8973 17.9086 17.0886 17.8152 17.2099 17.6939C17.3406 17.5819 17.4059 17.4466 17.4059 17.2879C17.4059 17.0546 17.3079 16.8726 17.1119 16.7419C16.9253 16.6206 16.6033 16.5599 16.1459 16.5599H14.0179V13.8159L15.2079 14.1239V15.4119H16.3839C17.1773 15.4119 17.7699 15.5706 18.1619 15.8879C18.5633 16.2052 18.7639 16.6579 18.7639 17.2459C18.7639 17.7032 18.6286 18.0812 18.3579 18.3799C18.0873 18.6879 17.7139 18.9119 17.2379 19.0519C16.7713 19.2012 16.2393 19.2759 15.6419 19.2759ZM15.5579 13.2979C16.0433 13.2979 16.4259 13.1766 16.7059 12.9339C16.9859 12.6912 17.1259 12.3786 17.1259 11.9959C17.1259 11.5759 16.9906 11.2539 16.7199 11.0299C16.4493 10.7966 16.0619 10.6799 15.5579 10.6799C15.0446 10.6799 14.6526 10.7966 14.3819 11.0299C14.1113 11.2539 13.9759 11.5759 13.9759 11.9959C13.9759 12.3786 14.1159 12.6912 14.3959 12.9339C14.6759 13.1766 15.0633 13.2979 15.5579 13.2979Z" fill="#131313"/>
</svg>
