<svg width="24" height="24" viewBox="0 0 24 24" fill="none" xmlns="http://www.w3.org/2000/svg">
<path d="M9.74961 14.2845H4.87761L3.84161 17.0005H3.51961L7.17361 7.43848H7.45361L11.0936 17.0005H10.7716L9.74961 14.2845ZM9.65161 14.0325L7.31361 7.88648L4.97561 14.0325H9.65161ZM16.0298 9.34248C16.8978 9.34248 17.6305 9.56648 18.2278 10.0145C18.8345 10.4625 19.2405 11.0318 19.4458 11.7225V9.44048H19.7118V17.2805C19.7118 17.9805 19.5578 18.5872 19.2498 19.1005C18.9418 19.6232 18.5311 20.0198 18.0178 20.2905C17.5138 20.5612 16.9631 20.6965 16.3658 20.6965C15.4511 20.6965 14.6905 20.4725 14.0838 20.0245C13.4865 19.5858 13.0758 18.9885 12.8518 18.2325H13.1318C13.3465 18.9138 13.7245 19.4505 14.2658 19.8425C14.8165 20.2438 15.5165 20.4445 16.3658 20.4445C16.9445 20.4445 17.4671 20.3138 17.9338 20.0525C18.4005 19.7912 18.7691 19.4225 19.0398 18.9465C19.3105 18.4705 19.4458 17.9152 19.4458 17.2805V14.7045C19.2405 15.4045 18.8345 15.9785 18.2278 16.4265C17.6305 16.8745 16.8978 17.0985 16.0298 17.0985C15.3111 17.0985 14.6718 16.9445 14.1118 16.6365C13.5518 16.3192 13.1178 15.8712 12.8098 15.2925C12.5018 14.7045 12.3478 14.0138 12.3478 13.2205C12.3478 12.4272 12.5018 11.7412 12.8098 11.1625C13.1178 10.5745 13.5518 10.1265 14.1118 9.81848C14.6718 9.50115 15.3111 9.34248 16.0298 9.34248ZM19.4458 13.2205C19.4458 12.5018 19.2965 11.8718 18.9978 11.3305C18.7085 10.7798 18.3025 10.3552 17.7798 10.0565C17.2665 9.74848 16.6831 9.59448 16.0298 9.59448C15.3391 9.59448 14.7371 9.73915 14.2238 10.0285C13.7198 10.3178 13.3278 10.7378 13.0478 11.2885C12.7678 11.8298 12.6278 12.4738 12.6278 13.2205C12.6278 13.9672 12.7678 14.6158 13.0478 15.1665C13.3278 15.7078 13.7198 16.1232 14.2238 16.4125C14.7371 16.7018 15.3391 16.8465 16.0298 16.8465C16.6831 16.8465 17.2665 16.6972 17.7798 16.3985C18.3025 16.0905 18.7085 15.6658 18.9978 15.1245C19.2965 14.5738 19.4458 13.9392 19.4458 13.2205Z" fill="#131313"/>
</svg>
