<svg width="24" height="24" viewBox="0 0 24 24" fill="none" xmlns="http://www.w3.org/2000/svg">
<path d="M9.07389 15.2639H5.40589L4.81789 16.9999H2.31189L5.86789 7.17188H8.63989L12.1959 16.9999H9.66189L9.07389 15.2639ZM8.45789 13.4159L7.23989 9.81787L6.03589 13.4159H8.45789ZM16.2462 9.07588C16.7968 9.07588 17.2775 9.18787 17.6882 9.41187C18.1082 9.63587 18.4302 9.92987 18.6542 10.2939V9.18787H21.0482V16.9859C21.0482 17.7046 20.9035 18.3532 20.6142 18.9319C20.3342 19.5199 19.9002 19.9866 19.3122 20.3319C18.7335 20.6772 18.0102 20.8499 17.1422 20.8499C15.9848 20.8499 15.0468 20.5746 14.3282 20.0239C13.6095 19.4826 13.1988 18.7452 13.0962 17.8119H15.4622C15.5368 18.1106 15.7142 18.3439 15.9942 18.5119C16.2742 18.6892 16.6195 18.7779 17.0302 18.7779C17.5248 18.7779 17.9168 18.6332 18.2062 18.3439C18.5048 18.0639 18.6542 17.6112 18.6542 16.9859V15.8799C18.4208 16.2439 18.0988 16.5426 17.6882 16.7759C17.2775 16.9999 16.7968 17.1119 16.2462 17.1119C15.6022 17.1119 15.0188 16.9486 14.4962 16.6219C13.9735 16.2859 13.5582 15.8146 13.2502 15.2079C12.9515 14.5919 12.8022 13.8826 12.8022 13.0799C12.8022 12.2772 12.9515 11.5726 13.2502 10.9659C13.5582 10.3592 13.9735 9.89254 14.4962 9.56588C15.0188 9.23921 15.6022 9.07588 16.2462 9.07588ZM18.6542 13.0939C18.6542 12.4966 18.4862 12.0252 18.1502 11.6799C17.8235 11.3346 17.4222 11.1619 16.9462 11.1619C16.4702 11.1619 16.0642 11.3346 15.7282 11.6799C15.4015 12.0159 15.2382 12.4826 15.2382 13.0799C15.2382 13.6772 15.4015 14.1532 15.7282 14.5079C16.0642 14.8532 16.4702 15.0259 16.9462 15.0259C17.4222 15.0259 17.8235 14.8532 18.1502 14.5079C18.4862 14.1626 18.6542 13.6912 18.6542 13.0939Z" fill="#131313"/>
</svg>
