<svg width="24" height="24" viewBox="0 0 24 24" fill="none" xmlns="http://www.w3.org/2000/svg">
<path d="M8.99996 14.6758H4.54796L3.69396 16.9998H2.65796L6.22796 7.33984H7.33396L10.89 16.9998H9.85396L8.99996 14.6758ZM8.70596 13.8638L6.77396 8.57184L4.84196 13.8638H8.70596ZM15.6688 9.24384C16.3874 9.24384 17.0128 9.41184 17.5448 9.74784C18.0768 10.0838 18.4594 10.5085 18.6928 11.0218V9.35584H19.6728V17.1958C19.6728 17.8958 19.5188 18.5165 19.2108 19.0578C18.9121 19.5991 18.4921 20.0145 17.9508 20.3038C17.4094 20.6025 16.7934 20.7518 16.1028 20.7518C15.1228 20.7518 14.3061 20.5185 13.6528 20.0518C13.0088 19.5851 12.6074 18.9505 12.4488 18.1478H13.4148C13.5828 18.6798 13.9001 19.1045 14.3668 19.4218C14.8428 19.7391 15.4214 19.8978 16.1028 19.8978C16.5974 19.8978 17.0408 19.7905 17.4328 19.5758C17.8248 19.3705 18.1328 19.0625 18.3568 18.6518C18.5808 18.2411 18.6928 17.7558 18.6928 17.1958V15.3058C18.4501 15.8285 18.0628 16.2625 17.5308 16.6078C17.0081 16.9438 16.3874 17.1118 15.6688 17.1118C14.9688 17.1118 14.3388 16.9485 13.7788 16.6218C13.2281 16.2951 12.7941 15.8331 12.4768 15.2358C12.1688 14.6385 12.0148 13.9478 12.0148 13.1638C12.0148 12.3798 12.1688 11.6938 12.4768 11.1058C12.7941 10.5085 13.2281 10.0511 13.7788 9.73384C14.3388 9.40717 14.9688 9.24384 15.6688 9.24384ZM18.6928 13.1778C18.6928 12.5618 18.5668 12.0205 18.3148 11.5538C18.0628 11.0871 17.7174 10.7278 17.2788 10.4758C16.8494 10.2238 16.3734 10.0978 15.8508 10.0978C15.3094 10.0978 14.8241 10.2191 14.3948 10.4618C13.9654 10.7045 13.6248 11.0591 13.3728 11.5258C13.1301 11.9831 13.0088 12.5291 13.0088 13.1638C13.0088 13.7891 13.1301 14.3398 13.3728 14.8158C13.6248 15.2825 13.9654 15.6418 14.3948 15.8938C14.8241 16.1365 15.3094 16.2578 15.8508 16.2578C16.3734 16.2578 16.8494 16.1318 17.2788 15.8798C17.7174 15.6278 18.0628 15.2685 18.3148 14.8018C18.5668 14.3351 18.6928 13.7938 18.6928 13.1778Z" fill="#131313"/>
</svg>
