<svg width="24" height="24" viewBox="0 0 24 24" fill="none" xmlns="http://www.w3.org/2000/svg">
<path d="M6.47143 8.85206C6.44343 8.74006 6.42943 8.59539 6.42943 8.41806C6.42943 8.24073 6.4341 8.12406 6.44343 8.06806C7.26476 7.96539 7.8761 7.91406 8.27743 7.91406C8.67876 7.91406 9.01943 7.96073 9.29943 8.05406C9.52343 9.80873 10.3028 12.5201 11.6374 16.1881L12.1554 16.2301C12.1741 16.4354 12.1834 16.5801 12.1834 16.6641C12.1834 16.7388 12.1694 16.8554 12.1414 17.0141C11.8801 17.0048 11.4741 17.0001 10.9234 17.0001C10.3728 17.0001 9.9901 17.0048 9.77543 17.0141C9.74743 16.8741 9.73343 16.7434 9.73343 16.6221C9.73343 16.4914 9.74276 16.3608 9.76143 16.2301L10.2514 16.1881C10.2048 15.9641 10.1301 15.6421 10.0274 15.2221C9.92476 14.7928 9.86876 14.5548 9.85943 14.5081C9.32743 14.4801 8.74876 14.4661 8.12343 14.4661C7.50743 14.4661 6.92876 14.4848 6.38743 14.5221L5.99543 16.1881L6.52743 16.2301C6.5461 16.4354 6.55543 16.5801 6.55543 16.6641C6.55543 16.7388 6.54143 16.8554 6.51343 17.0141C6.28943 17.0048 5.92076 17.0001 5.40743 17.0001C4.90343 17.0001 4.54876 17.0048 4.34343 17.0141C4.31543 16.8741 4.30143 16.7434 4.30143 16.6221C4.30143 16.4914 4.31076 16.3608 4.32943 16.2301L4.81943 16.1881C5.93943 13.1174 6.67676 10.6861 7.03143 8.89406L6.47143 8.85206ZM6.63943 13.5421C6.95676 13.5514 7.43276 13.5561 8.06743 13.5561C8.7021 13.5561 9.21543 13.5421 9.60743 13.5141C9.16876 11.8528 8.70676 10.3174 8.22143 8.90806H8.13743C7.58676 10.2428 7.08743 11.7874 6.63943 13.5421ZM15.2431 10.3081C15.3551 10.3081 15.4391 10.3128 15.4951 10.3221C16.0831 9.42606 16.7224 8.97806 17.4131 8.97806C18.0198 8.97806 18.3231 9.27206 18.3231 9.86006C18.3231 10.2708 18.1178 10.4761 17.7071 10.4761C17.3058 10.4761 17.0724 10.2661 17.0071 9.84606C16.7364 9.84606 16.4844 10.0468 16.2511 10.4481C17.1564 10.7468 17.6091 11.4934 17.6091 12.6881C17.6091 13.4161 17.4644 14.0228 17.1751 14.5081C16.8484 15.0494 16.2044 15.3201 15.2431 15.3201C14.8418 15.3201 14.5151 15.2734 14.2631 15.1801C14.0671 15.5254 13.9224 15.9034 13.8291 16.3141C13.9878 16.3421 14.1558 16.3561 14.3331 16.3561C14.5104 16.3561 14.8651 16.3234 15.3971 16.2581C15.9291 16.1928 16.3118 16.1601 16.5451 16.1601C17.0304 16.1601 17.4224 16.2814 17.7211 16.5241C18.0198 16.7668 18.1691 17.1401 18.1691 17.6441C18.1691 18.1481 18.0058 18.5868 17.6791 18.9601C17.1098 19.6134 16.2231 19.9401 15.0191 19.9401C14.2071 19.9401 13.5864 19.8374 13.1571 19.6321C12.7278 19.4268 12.5131 19.0441 12.5131 18.4841C12.5131 18.0734 12.7324 17.6488 13.1711 17.2101C12.9938 17.0794 12.9051 16.8974 12.9051 16.6641C12.9051 16.1694 13.1431 15.5628 13.6191 14.8441C13.1244 14.4428 12.8771 13.7241 12.8771 12.6881C12.8771 11.1014 13.6658 10.3081 15.2431 10.3081ZM14.0111 12.7021C14.0111 13.8034 14.4218 14.3541 15.2431 14.3541C16.0644 14.3541 16.4751 13.8034 16.4751 12.7021C16.4751 11.6008 16.0644 11.0501 15.2431 11.0501C14.4218 11.0501 14.0111 11.6008 14.0111 12.7021ZM13.6471 18.2741C13.6471 18.8714 14.1931 19.1701 15.2851 19.1701C15.7518 19.1701 16.1671 19.0674 16.5311 18.8621C16.9044 18.6568 17.0911 18.3488 17.0911 17.9381C17.0911 17.4808 16.8438 17.2521 16.3491 17.2521C16.1064 17.2521 15.7238 17.2801 15.2011 17.3361C14.6784 17.4014 14.2584 17.4341 13.9411 17.4341H13.8291C13.7078 17.6954 13.6471 17.9754 13.6471 18.2741Z" fill="#131313"/>
</svg>
