<svg width="24" height="24" viewBox="0 0 24 24" fill="none" xmlns="http://www.w3.org/2000/svg">
<path d="M11.4366 14.3679C11.5486 14.6386 11.7073 14.8999 11.9126 15.1519C12.1179 15.3946 12.2953 15.5766 12.4446 15.6979C12.2206 16.1646 11.9453 16.5052 11.6186 16.7199C11.3479 16.8972 11.0586 16.9999 10.7506 17.0279C10.5826 17.0466 10.3913 17.0326 10.1766 16.9859C9.96194 16.9392 9.73794 16.8086 9.50461 16.5939C9.28061 16.3699 9.05661 16.0152 8.83261 15.5299C8.76728 15.3712 8.62261 15.2592 8.39861 15.1939C8.17461 15.1286 7.93661 15.0912 7.68461 15.0819C7.43261 15.0632 7.22728 15.0539 7.06861 15.0539C6.90994 15.0539 6.71394 15.0586 6.48061 15.0679C6.25661 15.0772 6.05128 15.1146 5.86461 15.1799C5.67794 15.2452 5.56594 15.3619 5.52861 15.5299C5.49128 15.6792 5.48661 15.8332 5.51461 15.9919C5.54261 16.1506 5.60328 16.2532 5.69661 16.2999C5.53794 16.4492 5.37928 16.5799 5.22061 16.6919C5.07128 16.8039 4.91728 16.8926 4.75861 16.9579C4.56261 17.0419 4.35728 17.0839 4.14261 17.0839C3.93728 17.0839 3.70394 17.0372 3.44261 16.9439C3.32128 16.8972 3.19528 16.8132 3.06461 16.6919C2.93394 16.5706 2.84528 16.4026 2.79861 16.1879C2.75194 15.9732 2.78928 15.7026 2.91061 15.3759C2.91994 15.3479 2.96661 15.1986 3.05061 14.9279C3.13461 14.6572 3.24194 14.3026 3.37261 13.8639C3.51261 13.4159 3.66194 12.9212 3.82061 12.3799C3.98861 11.8386 4.15661 11.2832 4.32461 10.7139C4.50194 10.1352 4.66994 9.57989 4.82861 9.04789C4.99661 8.51589 5.14594 8.03522 5.27661 7.60589C5.40728 7.17656 5.50994 6.83589 5.58461 6.58389C5.65928 6.33189 5.69661 6.20589 5.69661 6.20589C5.78061 6.15922 5.93461 6.10322 6.15861 6.03789C6.39194 5.96322 6.63928 5.92122 6.90061 5.91189C7.18994 5.89322 7.46994 5.93056 7.74061 6.02389C8.02061 6.11722 8.23528 6.30389 8.38461 6.58389C8.44994 6.69589 8.54794 6.91056 8.67861 7.22789C8.80928 7.54522 8.96328 7.92789 9.14061 8.37589C9.31794 8.82389 9.50461 9.30456 9.70061 9.81789C9.89661 10.3219 10.0879 10.8259 10.2746 11.3299C10.4706 11.8246 10.6479 12.2866 10.8066 12.7159C10.9653 13.1452 11.1006 13.5092 11.2126 13.8079C11.3246 14.0972 11.3993 14.2839 11.4366 14.3679ZM7.02661 12.5619C7.26928 12.5432 7.40928 12.4732 7.44661 12.3519C7.49328 12.2306 7.52128 12.0906 7.53061 11.9319C7.53061 11.8292 7.51194 11.7032 7.47461 11.5539C7.44661 11.4046 7.39994 11.2739 7.33461 11.1619C7.27861 11.0406 7.20394 10.9799 7.11061 10.9799C6.97994 10.9799 6.83528 11.0732 6.67661 11.2599C6.52728 11.4372 6.44328 11.6192 6.42461 11.8059C6.39661 11.9832 6.41061 12.1559 6.46661 12.3239C6.53194 12.4919 6.71861 12.5712 7.02661 12.5619ZM21.174 8.87989C21.1927 9.30922 21.1974 9.72456 21.188 10.1259C21.188 10.5179 21.188 10.8119 21.188 11.0079C21.188 11.1106 21.188 11.3532 21.188 11.7359C21.1974 12.1186 21.202 12.5806 21.202 13.1219C21.2114 13.6632 21.2114 14.2232 21.202 14.8019C21.1927 15.3806 21.1694 15.9172 21.132 16.4119C21.0947 16.9532 20.978 17.4292 20.782 17.8399C20.5954 18.2506 20.32 18.5539 19.956 18.7499C19.592 18.9459 19.1254 19.0019 18.556 18.9179C18.1267 18.8526 17.8 18.7219 17.576 18.5259C17.3614 18.3299 17.2214 18.1012 17.156 17.8399C17.1 17.5879 17.1 17.3266 17.156 17.0559C17.2214 16.7946 17.3147 16.5612 17.436 16.3559C17.52 16.4586 17.632 16.5706 17.772 16.6919C17.9214 16.8039 18.08 16.8926 18.248 16.9579C18.4254 17.0139 18.5934 17.0232 18.752 16.9859C18.8547 16.9579 18.934 16.9066 18.99 16.8319C19.046 16.7479 19.0647 16.6499 19.046 16.5379C19.0274 16.4259 18.892 16.2999 18.64 16.1599C18.3974 16.0106 18.08 15.9452 17.688 15.9639C17.5387 15.9732 17.422 15.9826 17.338 15.9919C17.254 16.0012 17.156 16.0059 17.044 16.0059C16.4 16.0059 15.8074 15.8752 15.266 15.6139C14.7247 15.3526 14.2954 14.9512 13.978 14.4099C13.6607 13.8686 13.5207 13.1779 13.558 12.3379C13.586 11.7966 13.7167 11.3112 13.95 10.8819C14.1834 10.4432 14.482 10.0746 14.846 9.77589C15.2194 9.46789 15.6114 9.23922 16.022 9.08989C16.442 8.93122 16.848 8.86589 17.24 8.89389C17.2867 8.89389 17.38 8.90789 17.52 8.93589C17.66 8.96389 17.8 8.99189 17.94 9.01989C18.08 9.03856 18.1734 9.05256 18.22 9.06189C18.5467 9.11789 18.9107 9.12722 19.312 9.08989C19.7227 9.04322 20.0727 8.99189 20.362 8.93589C20.5487 8.90789 20.7307 8.89389 20.908 8.89389C21.0854 8.88456 21.174 8.87989 21.174 8.87989ZM17.016 11.3299C16.6427 11.3672 16.3627 11.5072 16.176 11.7499C15.9987 11.9926 15.952 12.2959 16.036 12.6599C16.0734 12.8279 16.162 12.9959 16.302 13.1639C16.4514 13.3226 16.6287 13.4486 16.834 13.5419C17.0394 13.6352 17.2447 13.6726 17.45 13.6539C17.6554 13.6352 17.8374 13.6026 17.996 13.5559C18.1547 13.4999 18.2807 13.3879 18.374 13.2199C18.4674 13.0519 18.514 12.7859 18.514 12.4219C18.514 12.0579 18.4394 11.7966 18.29 11.6379C18.15 11.4699 17.9634 11.3719 17.73 11.3439C17.506 11.3066 17.268 11.3019 17.016 11.3299Z" fill="#131313"/>
</svg>
