<svg width="24" height="24" viewBox="0 0 24 24" fill="none" xmlns="http://www.w3.org/2000/svg">
<path d="M2.96738 16.9995V16.7055L4.33939 16.1455L8.38539 5.51953H8.60939L12.4314 16.4955L13.7194 16.7055V16.9995H9.60339V16.7055L10.7514 16.5235L9.56139 13.2055H5.83739L4.70339 16.1455L5.96339 16.7055V16.9995H2.96738ZM5.94939 12.9115H9.46339L7.78339 7.98353L5.94939 12.9115ZM20.7084 9.08953C20.7084 9.45353 20.5731 9.7662 20.3024 10.0275C20.0318 10.2888 19.6024 10.4568 19.0144 10.5315C19.2571 10.8862 19.3784 11.3715 19.3784 11.9875C19.3784 12.7155 19.1171 13.2895 18.5944 13.7095C18.0811 14.1295 17.4278 14.3395 16.6344 14.3395C16.3078 14.3395 16.0091 14.3115 15.7384 14.2555C15.1411 14.2928 14.8424 14.5262 14.8424 14.9555C14.8424 15.1982 14.9404 15.3755 15.1364 15.4875C15.3418 15.5995 15.6638 15.6555 16.1024 15.6555H17.6704C18.4264 15.6555 18.9864 15.8095 19.3504 16.1175C19.7238 16.4255 19.9104 16.9528 19.9104 17.6995C19.9104 18.2222 19.7751 18.7028 19.5044 19.1415C19.2431 19.5802 18.8604 19.9255 18.3564 20.1775C17.8524 20.4388 17.2504 20.5695 16.5504 20.5695C15.4958 20.5695 14.7164 20.4108 14.2124 20.0935C13.7178 19.7762 13.4704 19.3562 13.4704 18.8335C13.4704 18.5162 13.5918 18.2362 13.8344 17.9935C14.0771 17.7508 14.4084 17.6295 14.8284 17.6295C14.9124 17.6295 15.0851 17.6482 15.3464 17.6855C15.0571 17.9935 14.9124 18.3575 14.9124 18.7775C14.9124 19.1788 15.0524 19.5288 15.3324 19.8275C15.6124 20.1262 16.0698 20.2755 16.7044 20.2755C17.2551 20.2755 17.7451 20.1682 18.1744 19.9535C18.6131 19.7482 18.9491 19.4775 19.1824 19.1415C19.4158 18.8055 19.5324 18.4602 19.5324 18.1055C19.5324 17.7135 19.4064 17.4288 19.1544 17.2515C18.9024 17.0835 18.4544 16.9995 17.8104 16.9995H16.1024C15.4491 16.9995 14.9544 16.8735 14.6184 16.6215C14.2918 16.3602 14.1284 15.9775 14.1284 15.4735C14.1284 15.1375 14.2218 14.8435 14.4084 14.5915C14.6044 14.3302 14.8518 14.1622 15.1504 14.0875C14.3384 13.7422 13.9324 13.0422 13.9324 11.9875C13.9324 11.2502 14.1891 10.6715 14.7024 10.2515C15.2158 9.83153 15.8598 9.62153 16.6344 9.62153C17.6144 9.62153 18.3238 9.82686 18.7624 10.2375C19.0238 10.1908 19.2198 10.1068 19.3504 9.98553C19.4811 9.85486 19.5464 9.7102 19.5464 9.55153C19.5464 9.4022 19.5044 9.2902 19.4204 9.21553C19.3364 9.13153 19.2384 9.08953 19.1264 9.08953C19.1264 8.8842 19.2011 8.70686 19.3504 8.55753C19.5091 8.39886 19.6958 8.31953 19.9104 8.31953C20.1438 8.31953 20.3351 8.38953 20.4844 8.52953C20.6338 8.66953 20.7084 8.8562 20.7084 9.08953ZM18.0624 11.6375C18.0624 11.0682 17.9411 10.6295 17.6984 10.3215C17.4651 10.0135 17.1104 9.85953 16.6344 9.85953C15.7104 9.85953 15.2484 10.4522 15.2484 11.6375V12.3235C15.2484 12.8742 15.3604 13.3082 15.5844 13.6255C15.8178 13.9428 16.1678 14.1015 16.6344 14.1015C17.1104 14.1015 17.4651 13.9428 17.6984 13.6255C17.9411 13.3082 18.0624 12.8742 18.0624 12.3235V11.6375Z" fill="#131313"/>
</svg>
