<svg width="24" height="24" viewBox="0 0 24 24" fill="none" xmlns="http://www.w3.org/2000/svg">
<path d="M12.757 16.9992H11.539L10.545 14.5492H5.71498L4.72098 16.9992H3.62898L7.68898 7.19922H8.69698L12.757 16.9992ZM8.13698 8.61322L6.12098 13.5412H10.139L8.13698 8.61322ZM19.7393 11.2312V9.99922H20.6913V16.7192C20.6913 17.6292 20.3413 18.4132 19.6273 19.0572C18.9133 19.7012 18.0453 20.0232 17.0233 20.0232C15.4973 20.0232 14.1673 19.1692 13.6213 17.9372H14.6993C15.1893 18.6232 16.0573 19.0712 17.0233 19.0712C17.7653 19.0712 18.4093 18.8472 18.9413 18.3852C19.4733 17.9232 19.7393 17.3772 19.7393 16.7192V15.5432C19.0813 16.4392 18.0873 16.9992 16.9533 16.9992C15.9733 16.9992 15.1333 16.6492 14.4193 15.9352C13.7053 15.2212 13.3553 14.3812 13.3553 13.3872C13.3553 12.3932 13.7053 11.5532 14.4193 10.8392C15.1333 10.1252 15.9733 9.77522 16.9533 9.77522C18.0873 9.77522 19.0813 10.3352 19.7393 11.2312ZM15.1893 15.2632C15.6933 15.7812 16.3093 16.0472 17.0233 16.0472C17.7373 16.0472 18.3533 15.7812 18.8713 15.2632C19.3753 14.7452 19.6273 14.1292 19.6273 13.3872C19.6273 12.6452 19.3753 12.0152 18.8713 11.4972C18.3533 10.9792 17.7373 10.7272 17.0233 10.7272C16.3093 10.7272 15.6933 10.9792 15.1893 11.4972C14.6713 12.0152 14.4193 12.6452 14.4193 13.3872C14.4193 14.1292 14.6713 14.7452 15.1893 15.2632Z" fill="#131313"/>
</svg>
