<svg width="24" height="24" viewBox="0 0 24 24" fill="none" xmlns="http://www.w3.org/2000/svg">
<path d="M12.7446 16.9992H10.6026L10.1826 15.1652H6.17856L5.25456 16.9992H3.05656L8.26456 7.19922H10.2806L12.7446 16.9992ZM8.95056 9.69122L7.11656 13.3312H9.77656L8.95056 9.69122ZM19.2368 10.8812L19.3628 9.99922H21.2388L20.3008 16.6632C20.1748 17.5872 19.7128 18.3852 18.9148 19.0432C18.1168 19.7012 17.2068 20.0232 16.2128 20.0232C15.3308 20.0232 14.5888 19.7852 13.9728 19.3232C13.3568 18.8612 12.9928 18.2592 12.8808 17.5452H14.8548C15.1768 18.0352 15.6388 18.2732 16.2408 18.2732C16.7868 18.2732 17.2628 18.1192 17.6968 17.8112C18.1168 17.4892 18.3548 17.1112 18.4248 16.6632L18.5088 16.0612C17.8788 16.6912 17.1648 16.9992 16.3668 16.9992C15.5128 16.9992 14.7988 16.6912 14.1968 16.0612C13.5948 15.4452 13.2868 14.6892 13.2868 13.7792C13.2868 12.7432 13.6928 11.8192 14.4908 10.9932C15.2888 10.1812 16.1708 9.77522 17.1508 9.77522C18.0608 9.77522 18.7468 10.1392 19.2368 10.8812ZM16.6748 15.1792C17.1928 15.1792 17.6688 14.9552 18.0748 14.4932C18.4808 14.0452 18.6768 13.5552 18.6768 13.0232C18.6768 12.1972 18.1448 11.5952 17.4028 11.5952C16.8708 11.5952 16.3948 11.8192 15.9888 12.2532C15.5688 12.7012 15.3588 13.2192 15.3588 13.7932C15.3588 14.5912 15.8768 15.1792 16.6748 15.1792Z" fill="#131313"/>
</svg>
