<svg width="24" height="24" viewBox="0 0 24 24" fill="none" xmlns="http://www.w3.org/2000/svg">
<path d="M13.8539 5.24609C13.5148 5.73281 13.1949 7.03711 12.8941 9.15898C12.6316 11.0348 12.5086 12.4977 12.525 13.5477C12.5469 14.5977 12.7191 15.1227 13.0418 15.1227C13.102 15.1227 13.1867 15.1008 13.2961 15.057C13.4109 15.0133 13.4984 14.9914 13.5586 14.9914C13.668 14.9914 13.7227 15.0324 13.7227 15.1145C13.7227 15.1746 13.6816 15.2402 13.5996 15.3113C13.3262 15.552 12.9078 15.8199 12.3445 16.1152C12.2078 16.1863 12.0902 16.2219 11.9918 16.2219C11.4559 16.2219 11.2645 14.8656 11.4176 12.1531C10.1051 12.2297 8.86641 12.3363 7.70156 12.4731L6.07734 14.4582C6.36719 14.4254 6.47656 14.409 6.40547 14.409C6.66797 14.409 6.87031 14.677 7.0125 15.2129C7.05078 15.3387 7.06992 15.4371 7.06992 15.5082C7.06992 15.6395 7.0125 15.7051 6.89766 15.7051C6.84297 15.7051 6.76094 15.6914 6.65156 15.6641C6.54766 15.6367 6.46562 15.6231 6.40547 15.6231C5.94062 15.6231 5.31445 15.8719 4.52695 16.3695C4.2918 16.5172 4.17422 16.591 4.17422 16.591C4.13047 16.591 4.04844 16.55 3.92812 16.468C3.67109 16.293 3.49062 16.0824 3.38672 15.8363C3.32109 15.6668 3.4168 15.4973 3.67383 15.3277C4.01289 15.109 4.47773 14.7399 5.06836 14.2203C5.65898 13.7008 6.04453 13.3262 6.225 13.0965C6.17578 12.5988 6.15117 12.3391 6.15117 12.3172C6.16211 12.0055 6.27969 11.8031 6.50391 11.7102C6.70078 11.6281 7.05078 11.5734 7.55391 11.5461C8.91016 9.89453 10.0012 8.28125 10.827 6.70625C10.559 6.84844 10.0777 7.03164 9.3832 7.25586C8.27305 7.6168 7.50742 7.87109 7.08633 8.01875C6.49023 8.23203 6.19219 8.60391 6.19219 9.13437C6.19219 9.24375 6.20312 9.36406 6.225 9.49531C6.25781 9.69766 6.20586 9.79883 6.06914 9.79883C5.9707 9.79883 5.89961 9.75508 5.85586 9.66758C5.55508 9.03867 5.37734 8.5957 5.32266 8.33867C5.27344 8.10898 5.24883 7.98867 5.24883 7.97773C5.24883 7.78633 5.33906 7.61133 5.51953 7.45273C5.84766 7.17383 6.47109 6.96601 7.38984 6.8293C8.76797 6.62148 9.95469 6.29609 10.95 5.85312C11.0703 5.73281 11.1359 5.66445 11.1469 5.64805C11.1742 5.60976 11.2016 5.53594 11.2289 5.42656C11.2617 5.31719 11.3164 5.2625 11.393 5.2625C11.5187 5.2625 11.7074 5.39648 11.959 5.66445C12.041 5.75742 12.082 5.85039 12.082 5.94336C12.082 5.99805 11.9891 6.18672 11.8031 6.50937C11.3984 7.22578 10.857 8.09258 10.1789 9.10976C9.42422 10.2473 8.83906 11.0539 8.42344 11.5297C9.725 11.5297 10.7449 11.4969 11.4832 11.4313C11.5598 10.6656 11.7266 9.57461 11.9836 8.1582C12.1148 7.46367 12.2461 6.76914 12.3773 6.07461C12.4594 5.48398 12.8559 5.05195 13.5668 4.77851C13.6762 4.73476 13.7664 4.71289 13.8375 4.71289C13.9578 4.71289 14.018 4.76484 14.018 4.86875C14.018 4.96719 13.9633 5.09297 13.8539 5.24609ZM20.2277 10.2008C18.5488 18.9125 16.3668 23.2656 13.6816 23.2602C12.7137 23.2602 11.6664 22.727 10.5398 21.6606C10.4359 21.5621 10.384 21.4609 10.384 21.357C10.384 21.1984 10.4578 21.1192 10.6055 21.1192C10.682 21.1192 10.7559 21.1492 10.827 21.2094C11.7184 21.9695 12.5168 22.3496 13.2223 22.3496C15.4754 22.3496 17.3539 19.041 18.8578 12.4238C17.9445 13.9934 17.1488 15.1172 16.4707 15.7953C16.1973 16.0742 15.9539 16.2137 15.7406 16.2137C15.5438 16.2137 15.3004 16.1043 15.0105 15.8856C14.491 15.6285 14.2422 15.2074 14.2641 14.6223C14.2969 13.9059 14.573 13.0172 15.0926 11.9563C15.6012 10.9227 16.1316 10.1434 16.684 9.61836C16.9957 9.32305 17.2773 9.17539 17.5289 9.17539C17.7148 9.17539 17.9199 9.25742 18.1441 9.42148C18.177 9.44883 18.3957 9.64297 18.8004 10.0039C18.8824 10.075 18.9234 10.1461 18.9234 10.2172C18.9234 10.3156 18.8578 10.3649 18.7266 10.3649C18.6445 10.3649 18.5516 10.3402 18.4477 10.291C18.2836 10.2035 18.1223 10.1598 17.9637 10.1598C17.734 10.1598 17.5262 10.2418 17.3402 10.4059C16.941 10.7559 16.5227 11.3246 16.0852 12.1121C15.6094 12.9762 15.3168 13.7637 15.2074 14.4746C15.1801 14.666 15.1664 14.8328 15.1664 14.975C15.1664 15.3797 15.2758 15.582 15.4945 15.582C15.6422 15.582 15.798 15.5082 15.9621 15.3606C16.6129 14.8027 17.2582 13.9961 17.898 12.9406C18.4941 11.9672 18.918 11.0731 19.1695 10.2582C19.2625 9.96836 19.309 9.69219 19.309 9.42969C19.309 9.22187 19.3582 9.11797 19.4566 9.11797C19.5605 9.11797 19.7629 9.23281 20.0637 9.4625C20.2441 9.59922 20.2988 9.84531 20.2277 10.2008Z" fill="#131313"/>
</svg>
