<svg width="24" height="24" viewBox="0 0 24 24" fill="none" xmlns="http://www.w3.org/2000/svg">
<path d="M6.80442 7.21387H9.59042L11.4244 16.9999H8.59642L8.26042 15.1379H5.05442L3.92042 16.9999H0.812424L6.80442 7.21387ZM8.05042 12.9399L7.70042 10.1959L6.17442 12.9399H8.05042ZM15.2723 20.2199C14.8337 20.2199 14.3903 20.1779 13.9423 20.0939C13.4943 20.0099 13.121 19.8979 12.8223 19.7579L13.2143 17.8959C13.8863 18.2132 14.703 18.3719 15.6643 18.3719C16.271 18.3719 16.7377 18.2459 17.0643 17.9939C17.4003 17.7512 17.6197 17.3919 17.7223 16.9159L17.8063 16.5239C17.517 16.7292 17.167 16.8926 16.7563 17.0139C16.3457 17.1446 15.9303 17.2099 15.5103 17.2099C14.9503 17.2099 14.451 17.0979 14.0123 16.8739C13.5737 16.6406 13.2283 16.3139 12.9763 15.8939C12.7243 15.4739 12.5983 14.9932 12.5983 14.4519C12.5983 14.2372 12.631 13.9666 12.6963 13.6399C12.9203 12.5479 13.415 11.6799 14.1803 11.0359C14.9457 10.3919 15.893 10.0699 17.0223 10.0699C17.461 10.0699 17.8577 10.1446 18.2123 10.2939C18.5763 10.4339 18.8703 10.6346 19.0943 10.8959L19.2343 10.2799H21.9363L20.6063 16.5099C20.3357 17.7699 19.785 18.7032 18.9543 19.3099C18.1237 19.9166 16.8963 20.2199 15.2723 20.2199ZM16.7143 15.0399C17.3957 15.0399 17.923 14.7552 18.2963 14.1859L18.5343 13.0939C18.469 12.8326 18.329 12.6272 18.1143 12.4779C17.8997 12.3286 17.6337 12.2539 17.3163 12.2539C16.8777 12.2539 16.5043 12.3752 16.1963 12.6179C15.8883 12.8606 15.6877 13.1966 15.5943 13.6259C15.557 13.7846 15.5383 13.9526 15.5383 14.1299C15.5383 14.4379 15.627 14.6666 15.8043 14.8159C15.991 14.9652 16.2943 15.0399 16.7143 15.0399Z" fill="#131313"/>
</svg>
