<svg width="24" height="24" viewBox="0 0 24 24" fill="none" xmlns="http://www.w3.org/2000/svg">
<path d="M5.21203 7.21387H8.34803L12.268 16.9999H8.86603L8.23603 15.2919H5.32403L4.69403 16.9999H1.29203L5.21203 7.21387ZM7.50803 12.8559L6.78003 10.6019L6.05203 12.8559H7.50803ZM16.7264 20.2199C16.2784 20.2199 15.821 20.1779 15.3544 20.0939C14.897 20.0099 14.4957 19.8932 14.1504 19.7439V17.7419C14.897 18.0592 15.7557 18.2179 16.7264 18.2179C17.7624 18.2179 18.2804 17.7979 18.2804 16.9579V16.5799C18.0564 16.7666 17.7624 16.9159 17.3984 17.0279C17.0437 17.1492 16.6704 17.2099 16.2784 17.2099C15.5597 17.2099 14.9297 17.0606 14.3884 16.7619C13.847 16.4632 13.427 16.0432 13.1284 15.5019C12.839 14.9606 12.6944 14.3399 12.6944 13.6399C12.6944 12.9306 12.839 12.3052 13.1284 11.7639C13.427 11.2226 13.8424 10.8072 14.3744 10.5179C14.9157 10.2192 15.5504 10.0699 16.2784 10.0699C16.6797 10.0699 17.067 10.1399 17.4404 10.2799C17.823 10.4199 18.1404 10.6066 18.3924 10.8399V10.2799H21.4304V16.4679C21.4304 17.6532 21.0477 18.5726 20.2824 19.2259C19.517 19.8886 18.3317 20.2199 16.7264 20.2199ZM17.1464 14.7739C17.389 14.7739 17.613 14.7179 17.8184 14.6059C18.0237 14.4939 18.1777 14.3399 18.2804 14.1439V13.1359C18.1777 12.9399 18.0237 12.7859 17.8184 12.6739C17.613 12.5619 17.389 12.5059 17.1464 12.5059C16.773 12.5059 16.479 12.5992 16.2644 12.7859C16.059 12.9726 15.9564 13.2526 15.9564 13.6259C15.9564 13.9992 16.059 14.2839 16.2644 14.4799C16.479 14.6759 16.773 14.7739 17.1464 14.7739Z" fill="#131313"/>
</svg>
