<svg width="24" height="24" viewBox="0 0 24 24" fill="none" xmlns="http://www.w3.org/2000/svg">
<path d="M12.1309 16.0001H10.9269L10.3249 13.8861H7.00687L6.40487 16.0001H5.20087L8.00087 6.66211H9.33087L12.1309 16.0001ZM10.0869 12.9061L8.65887 7.89411L7.24487 12.9061H10.0869ZM15.3339 18.7441C14.4006 18.7441 13.6492 18.4594 13.0799 17.8901L13.5419 17.1061C13.9899 17.6288 14.5779 17.8901 15.3059 17.8901C15.8006 17.8901 16.2066 17.7361 16.5239 17.4281C16.8412 17.1294 16.9999 16.6721 16.9999 16.0561V14.9221C16.8039 15.2768 16.5472 15.5614 16.2299 15.7761C15.9126 15.9814 15.5766 16.0841 15.2219 16.0841C14.4752 16.0841 13.8826 15.7714 13.4439 15.1461C13.0146 14.5114 12.7999 13.6574 12.7999 12.5841C12.7999 11.5201 13.0146 10.6708 13.4439 10.0361C13.8732 9.39211 14.4659 9.07011 15.2219 9.07011C15.9779 9.07011 16.5706 9.45278 16.9999 10.2181V9.23811H18.0079V15.9861C18.0079 16.9568 17.7559 17.6568 17.2519 18.0861C16.7572 18.5248 16.1179 18.7441 15.3339 18.7441ZM15.4739 15.1881C15.7819 15.1881 16.0806 15.0808 16.3699 14.8661C16.6592 14.6421 16.8692 14.3761 16.9999 14.0681V11.0721C16.8692 10.7641 16.6592 10.5028 16.3699 10.2881C16.0806 10.0734 15.7819 9.96611 15.4739 9.96611C14.9419 9.96611 14.5359 10.2134 14.2559 10.7081C13.9852 11.1934 13.8499 11.8188 13.8499 12.5841C13.8499 13.3494 13.9852 13.9748 14.2559 14.4601C14.5359 14.9454 14.9419 15.1881 15.4739 15.1881Z" fill="#131313"/>
</svg>
