<svg width="24" height="24" viewBox="0 0 24 24" fill="none" xmlns="http://www.w3.org/2000/svg">
<path d="M11.8675 16.0001H10.0895L9.79549 14.2081H5.51149L4.43349 16.0001H2.48749L8.21349 6.66211H10.2575L11.8675 16.0001ZM9.65549 12.7661L8.95549 8.31411L6.29549 12.7661H9.65549ZM15.6174 18.7441C14.1987 18.7441 13.1441 18.3568 12.4534 17.5821L13.3354 16.6021C13.7834 17.2274 14.5347 17.5401 15.5894 17.5401C16.6907 17.5401 17.3814 16.9101 17.6614 15.6501L17.8294 14.9221C17.2507 15.6408 16.5274 16.0001 15.6594 16.0001C14.9127 16.0001 14.2967 15.7714 13.8114 15.3141C13.3354 14.8474 13.0974 14.1521 13.0974 13.2281C13.0974 12.1268 13.4194 11.1608 14.0634 10.3301C14.7074 9.49011 15.5567 9.07011 16.6114 9.07011C17.0407 9.07011 17.4607 9.17744 17.8714 9.39211C18.2914 9.59744 18.6227 9.86811 18.8654 10.2041L19.0894 9.23811H20.5594L19.1314 15.6501C18.8887 16.7701 18.4501 17.5634 17.8154 18.0301C17.1807 18.5061 16.4481 18.7441 15.6174 18.7441ZM16.3174 14.6981C16.6441 14.6981 16.9614 14.6141 17.2694 14.4461C17.5867 14.2688 17.8574 14.0494 18.0814 13.7881L18.6274 11.3381C18.4501 11.0394 18.1981 10.8061 17.8714 10.6381C17.5447 10.4608 17.1807 10.3721 16.7794 10.3721C16.1541 10.3721 15.6361 10.6288 15.2254 11.1421C14.8241 11.6554 14.6234 12.2621 14.6234 12.9621C14.6234 13.4941 14.7774 13.9188 15.0854 14.2361C15.3934 14.5441 15.8041 14.6981 16.3174 14.6981Z" fill="#131313"/>
</svg>
