<svg width="24" height="24" viewBox="0 0 24 24" fill="none" xmlns="http://www.w3.org/2000/svg">
<path d="M5.44336 5.98535H8.85449L11.8486 16H8.91602L8.35547 13.8125H5.25879L4.70508 16H2.43555L5.44336 5.98535ZM7.97949 12.3154L7.19336 9.22559L6.87207 7.68066H6.73535L6.41406 9.22559L5.63477 12.3154H7.97949ZM14.1113 16.6152C13.6921 16.4694 13.3799 16.2917 13.1748 16.082C12.9697 15.877 12.8672 15.6582 12.8672 15.4258C12.8672 15.2617 12.915 15.1113 13.0107 14.9746C13.1064 14.8379 13.2318 14.7103 13.3867 14.5918C13.5417 14.4688 13.7171 14.3548 13.9131 14.25C14.109 14.1452 14.3073 14.0404 14.5078 13.9355C14.1387 13.8125 13.8333 13.6598 13.5918 13.4775C13.3503 13.2907 13.1589 13.0902 13.0176 12.876C12.8763 12.6572 12.776 12.4339 12.7168 12.2061C12.6621 11.9782 12.6348 11.7572 12.6348 11.543C12.6348 11.1146 12.7305 10.7227 12.9219 10.3672C13.1133 10.0072 13.3753 9.69727 13.708 9.4375C14.0452 9.17773 14.444 8.97721 14.9043 8.83594C15.3646 8.6901 15.8636 8.61719 16.4014 8.61719C16.7796 8.61719 17.151 8.65592 17.5156 8.7334C17.8848 8.80632 18.1992 8.92253 18.459 9.08203C18.5273 9.04557 18.6003 9.00911 18.6777 8.97266C18.7552 8.93164 18.8486 8.89518 18.958 8.86328C19.0674 8.83138 19.195 8.80632 19.3408 8.78809C19.4867 8.7653 19.6621 8.75391 19.8672 8.75391H20.8379L20.4824 10.3672H19.4297C19.4844 10.4857 19.5322 10.6133 19.5732 10.75C19.6143 10.8867 19.6348 11.0531 19.6348 11.249C19.6348 11.6592 19.5345 12.0374 19.334 12.3838C19.138 12.7256 18.8737 13.0218 18.541 13.2725C18.2083 13.5186 17.8232 13.7122 17.3857 13.8535C16.9482 13.9902 16.4902 14.0586 16.0117 14.0586H15.7656C15.7246 14.0814 15.6768 14.111 15.6221 14.1475C15.5719 14.1794 15.5241 14.2181 15.4785 14.2637C15.4375 14.3047 15.401 14.3525 15.3691 14.4072C15.3418 14.4619 15.3281 14.5212 15.3281 14.585C15.3281 14.7035 15.3805 14.8037 15.4854 14.8857C15.5902 14.9632 15.7428 15.002 15.9434 15.002H17.5293C17.8574 15.002 18.1878 15.0339 18.5205 15.0977C18.8577 15.1569 19.1631 15.2594 19.4365 15.4053C19.71 15.5465 19.931 15.7334 20.0996 15.9658C20.2728 16.1937 20.3594 16.4762 20.3594 16.8135C20.3594 17.1507 20.2637 17.4948 20.0723 17.8457C19.8809 18.2012 19.5915 18.5225 19.2041 18.8096C18.8167 19.1012 18.3291 19.3382 17.7412 19.5205C17.1533 19.7074 16.4606 19.8008 15.6631 19.8008C15.1982 19.8008 14.7653 19.7666 14.3643 19.6982C13.9678 19.6299 13.6237 19.5296 13.332 19.3975C13.0404 19.2653 12.8125 19.1035 12.6484 18.9121C12.4844 18.7207 12.4023 18.5042 12.4023 18.2627C12.4023 18.0713 12.4502 17.8981 12.5459 17.7432C12.6462 17.5928 12.776 17.4515 12.9355 17.3193C13.0951 17.1872 13.2773 17.0641 13.4824 16.9502C13.6875 16.8363 13.8971 16.7246 14.1113 16.6152ZM15.041 11.3037C15.041 11.4997 15.0729 11.6774 15.1367 11.8369C15.2005 11.9919 15.2848 12.1263 15.3896 12.2402C15.499 12.3496 15.6243 12.4339 15.7656 12.4932C15.9069 12.5524 16.0573 12.582 16.2168 12.582C16.3672 12.582 16.5085 12.5547 16.6406 12.5C16.7773 12.4453 16.8958 12.3656 16.9961 12.2607C17.0964 12.1559 17.1761 12.0283 17.2354 11.8779C17.2946 11.7275 17.3242 11.5589 17.3242 11.3721C17.3242 11.1761 17.2923 11.0007 17.2285 10.8457C17.1647 10.6862 17.0804 10.5518 16.9756 10.4424C16.8708 10.3285 16.7454 10.2419 16.5996 10.1826C16.4583 10.1234 16.3102 10.0938 16.1553 10.0938C16.0049 10.0938 15.8613 10.1211 15.7246 10.1758C15.5924 10.2305 15.474 10.3102 15.3691 10.415C15.2689 10.5199 15.1891 10.6475 15.1299 10.7979C15.0706 10.9482 15.041 11.1169 15.041 11.3037ZM15.3418 16.7656C15.2142 16.8659 15.1025 16.9707 15.0068 17.0801C14.9111 17.1895 14.8633 17.3171 14.8633 17.4629C14.8633 17.6771 14.9795 17.8503 15.2119 17.9824C15.4489 18.1191 15.7952 18.1875 16.251 18.1875C16.529 18.1875 16.7705 18.1624 16.9756 18.1123C17.1807 18.0622 17.3516 17.9961 17.4883 17.9141C17.625 17.832 17.7275 17.7386 17.7959 17.6338C17.8643 17.5335 17.8984 17.4333 17.8984 17.333C17.8984 17.1735 17.8141 17.0391 17.6455 16.9297C17.4814 16.8203 17.2285 16.7656 16.8867 16.7656H15.3418Z" fill="#131313"/>
</svg>
