<svg width="24" height="24" viewBox="0 0 24 24" fill="none" xmlns="http://www.w3.org/2000/svg">
<path d="M9.36931 14.9139H6.06531L5.26731 16.9999H3.19531L7.03131 7.12988H8.55731L12.4073 16.9999H10.2093L9.36931 14.9139ZM6.63931 13.2759H8.87931L8.12331 11.2319L7.78731 9.67788H7.71731L7.38131 11.2459L6.63931 13.2759ZM19.7947 16.7199C19.7947 17.8026 19.4867 18.6006 18.8707 19.1139C18.2547 19.6272 17.3821 19.8839 16.2527 19.8839C15.5247 19.8839 14.9367 19.8326 14.4887 19.7299C14.0501 19.6366 13.7094 19.5292 13.4667 19.4079C13.5881 19.0346 13.6767 18.7359 13.7327 18.5119C13.7981 18.2972 13.8447 18.1339 13.8727 18.0219C13.9007 17.9099 13.9194 17.8399 13.9287 17.8119C13.9381 17.7839 13.9427 17.7699 13.9427 17.7699C14.1667 17.8819 14.4374 17.9939 14.7547 18.1059C15.0721 18.2272 15.4594 18.2879 15.9167 18.2879C16.2994 18.2879 16.6167 18.2506 16.8687 18.1759C17.1207 18.1012 17.3214 17.9892 17.4707 17.8399C17.6201 17.6999 17.7227 17.5272 17.7787 17.3219C17.8441 17.1166 17.8767 16.8879 17.8767 16.6359V16.0899H17.7087C17.5221 16.3606 17.2654 16.5519 16.9387 16.6639C16.6121 16.7759 16.2061 16.8319 15.7207 16.8319C14.7221 16.8319 13.9707 16.5566 13.4667 16.0059C12.9721 15.4552 12.7247 14.5686 12.7247 13.3459C12.7247 12.0579 13.0514 11.0872 13.7047 10.4339C14.3674 9.78055 15.3474 9.45388 16.6447 9.45388C17.3261 9.45388 17.9327 9.50055 18.4647 9.59388C19.0061 9.67788 19.4494 9.77588 19.7947 9.88788V16.7199ZM16.1827 15.3059C16.6121 15.3059 16.9621 15.2266 17.2327 15.0679C17.5127 14.9092 17.7134 14.7132 17.8347 14.4799V11.3159C17.4894 11.1666 17.0507 11.0919 16.5187 11.0919C15.9494 11.0919 15.5107 11.2599 15.2027 11.5959C14.8947 11.9319 14.7407 12.4872 14.7407 13.2619C14.7407 13.9712 14.8714 14.4892 15.1327 14.8159C15.3941 15.1426 15.7441 15.3059 16.1827 15.3059Z" fill="#131313"/>
</svg>
