<svg width="24" height="24" viewBox="0 0 24 24" fill="none" xmlns="http://www.w3.org/2000/svg">
<path d="M10.091 14.7879H7.78102L7.20702 16.9999H5.45702L8.29902 7.12988H9.68502L12.541 16.9999H10.693L10.091 14.7879ZM8.15902 13.3319H9.78302L9.22302 11.0499L8.99902 9.50988H8.94302L8.70502 11.0639L8.15902 13.3319ZM17.9079 16.9999C17.9079 18.0172 17.6746 18.7639 17.2079 19.2399C16.7413 19.7252 16.0926 19.9679 15.2619 19.9679C14.6833 19.9679 14.2306 19.9212 13.9039 19.8279C13.5773 19.7439 13.3253 19.6506 13.1479 19.5479L13.4979 18.1339C13.7033 18.2179 13.9226 18.2972 14.1559 18.3719C14.3986 18.4466 14.6833 18.4839 15.0099 18.4839C15.4859 18.4839 15.8126 18.3532 15.9899 18.0919C16.1766 17.8399 16.2699 17.4526 16.2699 16.9299V16.5519H16.2279C16.0973 16.7386 15.9199 16.8786 15.6959 16.9719C15.4813 17.0652 15.2013 17.1119 14.8559 17.1119C14.1186 17.1119 13.5633 16.8366 13.1899 16.2859C12.8259 15.7259 12.6439 14.8439 12.6439 13.6399C12.6439 12.3426 12.8959 11.3859 13.3999 10.7699C13.9133 10.1539 14.6413 9.84588 15.5839 9.84588C16.0879 9.84588 16.5406 9.88788 16.9419 9.97188C17.3433 10.0466 17.6653 10.1399 17.9079 10.2519V16.9999ZM15.3179 15.6839C15.5699 15.6839 15.7659 15.6232 15.9059 15.5019C16.0553 15.3806 16.1673 15.2079 16.2419 14.9839V11.4839C16.1393 11.4372 16.0226 11.3999 15.8919 11.3719C15.7706 11.3439 15.6259 11.3299 15.4579 11.3299C15.1126 11.3299 14.8419 11.4979 14.6459 11.8339C14.4593 12.1699 14.3659 12.7486 14.3659 13.5699C14.3659 14.9792 14.6833 15.6839 15.3179 15.6839Z" fill="#131313"/>
</svg>
