<svg width="24" height="24" viewBox="0 0 24 24" fill="none" xmlns="http://www.w3.org/2000/svg">
<path d="M9.90712 14.2559H7.13512L6.35112 16.9999H5.31512L8.26912 7.0459H8.84312L11.7971 16.9999H10.7051L9.90712 14.2559ZM7.41512 13.3179H9.65512L8.80112 10.2939L8.53512 8.8239H8.50712L8.24112 10.3219L7.41512 13.3179ZM16.9479 17.3219C16.9479 18.2272 16.7472 18.8946 16.3459 19.3239C15.9446 19.7532 15.3612 19.9679 14.5959 19.9679C14.1292 19.9679 13.7466 19.9259 13.4479 19.8419C13.1492 19.7672 12.9066 19.6786 12.7199 19.5759L13.0139 18.7079C13.2006 18.7919 13.4059 18.8712 13.6299 18.9459C13.8539 19.0206 14.1292 19.0579 14.4559 19.0579C15.0252 19.0579 15.4126 18.8992 15.6179 18.5819C15.8326 18.2646 15.9399 17.7326 15.9399 16.9859V16.4679H15.8979C15.7486 16.6826 15.5572 16.8506 15.3239 16.9719C15.0906 17.0932 14.7919 17.1539 14.4279 17.1539C13.6719 17.1539 13.1166 16.8646 12.7619 16.2859C12.4072 15.6979 12.2299 14.7786 12.2299 13.5279C12.2299 12.3239 12.4586 11.4139 12.9159 10.7979C13.3826 10.1819 14.0686 9.8739 14.9739 9.8739C15.4126 9.8739 15.7906 9.9159 16.1079 9.9999C16.4252 10.0839 16.7052 10.1819 16.9479 10.2939V17.3219ZM15.9399 11.0079C15.6599 10.8586 15.3006 10.7839 14.8619 10.7839C14.3859 10.7839 14.0032 11.0032 13.7139 11.4419C13.4246 11.8712 13.2799 12.5619 13.2799 13.5139C13.2799 13.9059 13.3032 14.2699 13.3499 14.6059C13.3966 14.9326 13.4759 15.2219 13.5879 15.4739C13.6999 15.7166 13.8399 15.9079 14.0079 16.0479C14.1852 16.1786 14.3999 16.2439 14.6519 16.2439C15.0066 16.2439 15.2866 16.1506 15.4919 15.9639C15.6972 15.7772 15.8466 15.4972 15.9399 15.1239V11.0079Z" fill="#131313"/>
</svg>
