<svg width="24" height="24" viewBox="0 0 24 24" fill="none" xmlns="http://www.w3.org/2000/svg">
<path d="M3.08053 16.9999L6.76953 6.87793H7.84753L11.5225 16.9999H10.6055L9.52053 13.9899H5.10353L3.99053 16.9999H3.08053ZM5.35553 13.1289H9.24753L7.31553 7.76693L5.35553 13.1289ZM16.0318 19.3939C14.9772 19.3939 14.1418 19.2282 13.5258 18.8969C12.9145 18.5656 12.6088 18.0732 12.6088 17.4199C12.6088 17.1492 12.6672 16.9182 12.7838 16.7269C12.9005 16.5309 13.0405 16.3676 13.2038 16.2369C13.3718 16.1016 13.5258 15.9942 13.6658 15.9149C13.8105 15.8309 13.9062 15.7702 13.9528 15.7329C13.8688 15.6769 13.7732 15.6186 13.6658 15.5579C13.5632 15.4926 13.4745 15.4086 13.3998 15.3059C13.3252 15.2032 13.2878 15.0702 13.2878 14.9069C13.2878 14.6969 13.3858 14.5056 13.5818 14.3329C13.7825 14.1556 14.0742 14.0179 14.4568 13.9199C14.0602 13.7099 13.7452 13.4346 13.5118 13.0939C13.2785 12.7532 13.1618 12.3729 13.1618 11.9529C13.1618 11.4862 13.2762 11.0802 13.5048 10.7349C13.7335 10.3896 14.0695 10.1236 14.5128 9.93693C14.9562 9.7456 15.5045 9.64993 16.1578 9.64993C16.6152 9.64993 17.0048 9.70593 17.3268 9.81793C17.6488 9.92526 17.9475 10.0886 18.2228 10.3079C18.2835 10.2799 18.3908 10.2356 18.5448 10.1749C18.6988 10.1096 18.8692 10.0372 19.0558 9.95793C19.2425 9.8786 19.4152 9.80626 19.5738 9.74093C19.7325 9.6756 19.8468 9.62893 19.9168 9.60093L19.9098 10.5809L18.6358 10.8399C18.7198 11.0032 18.7875 11.1829 18.8388 11.3789C18.8902 11.5749 18.9158 11.7639 18.9158 11.9459C18.9158 12.3799 18.8108 12.7649 18.6008 13.1009C18.3955 13.4369 18.0805 13.7006 17.6558 13.8919C17.2312 14.0832 16.6945 14.1789 16.0458 14.1789C16.0038 14.1789 15.9572 14.1789 15.9058 14.1789C15.8592 14.1789 15.8148 14.1766 15.7728 14.1719C15.1522 14.1859 14.7252 14.2536 14.4918 14.3749C14.2632 14.4962 14.1488 14.6246 14.1488 14.7599C14.1488 14.9092 14.2538 15.0142 14.4638 15.0749C14.6738 15.1356 15.0518 15.1869 15.5978 15.2289C15.7938 15.2382 16.0248 15.2499 16.2908 15.2639C16.5615 15.2779 16.8648 15.2966 17.2008 15.3199C17.8868 15.3619 18.4282 15.5439 18.8248 15.8659C19.2215 16.1832 19.4198 16.6336 19.4198 17.2169C19.4198 17.8609 19.1422 18.3836 18.5868 18.7849C18.0315 19.1909 17.1798 19.3939 16.0318 19.3939ZM16.1998 18.7359C16.9232 18.7359 17.4948 18.6169 17.9148 18.3789C18.3348 18.1456 18.5448 17.7862 18.5448 17.3009C18.5448 16.9742 18.4258 16.7059 18.1878 16.4959C17.9545 16.2812 17.5928 16.1576 17.1028 16.1249L14.8628 15.9849C14.6995 15.9756 14.5105 16.0269 14.2958 16.1389C14.0812 16.2509 13.8922 16.4096 13.7288 16.6149C13.5702 16.8202 13.4908 17.0559 13.4908 17.3219C13.4908 17.7512 13.7125 18.0942 14.1558 18.3509C14.5992 18.6076 15.2805 18.7359 16.1998 18.7359ZM16.0738 13.5279C16.6712 13.5279 17.1518 13.3972 17.5158 13.1359C17.8845 12.8746 18.0688 12.4779 18.0688 11.9459C18.0688 11.3906 17.8845 10.9752 17.5158 10.6999C17.1518 10.4246 16.6712 10.2869 16.0738 10.2869C15.4625 10.2869 14.9702 10.4269 14.5968 10.7069C14.2235 10.9822 14.0368 11.3952 14.0368 11.9459C14.0368 12.4499 14.2142 12.8396 14.5688 13.1149C14.9235 13.3902 15.4252 13.5279 16.0738 13.5279Z" fill="#131313"/>
</svg>
