<svg width="24" height="24" viewBox="0 0 24 24" fill="none" xmlns="http://www.w3.org/2000/svg">
<path d="M10.7969 16.1367L9.96289 13.498H6.81836L6.01172 16.1367L4.86328 16L7.84375 6.83984H8.96484L11.9863 15.9453L10.7969 16.1367ZM8.39062 8.28906L7.11914 12.5273H9.68945L8.39062 8.28906ZM19.5059 10.4219L18.0156 10.3809C18.1615 10.6999 18.2344 11.0098 18.2344 11.3105C18.2344 12.0124 17.9974 12.5957 17.5234 13.0605C16.9857 13.5801 16.3203 13.8398 15.5273 13.8398C15.0716 13.8398 14.7663 13.7852 14.6113 13.6758C14.2467 13.9036 14.0645 14.1543 14.0645 14.4277C14.0645 14.6829 14.2422 14.847 14.5977 14.9199C14.7617 14.9564 15.2174 14.9746 15.9648 14.9746C16.9219 14.9746 17.5736 15.043 17.9199 15.1797C18.5397 15.4167 18.8496 15.9225 18.8496 16.6973C18.8496 17.4993 18.4303 18.1328 17.5918 18.5977C16.8717 18.9987 16.0833 19.1992 15.2266 19.1992H15.1855C14.5931 19.1992 14.0872 19.0762 13.668 18.8301C13.1667 18.5202 12.916 18.0918 12.916 17.5449C12.916 16.9342 13.2396 16.3281 13.8867 15.7266C13.6771 15.6536 13.4766 15.4941 13.2852 15.248C13.0938 14.9928 12.998 14.7604 12.998 14.5508C12.998 14.2956 13.112 14.054 13.3398 13.8262C13.7135 13.4525 13.9049 13.2611 13.9141 13.252C13.3398 12.7598 13.0436 12.1126 13.0254 11.3105C13.0254 10.6087 13.2943 10.0026 13.832 9.49219C14.3333 9.02734 14.9531 8.79948 15.6914 8.80859C16.1198 8.81771 16.5299 8.92253 16.9219 9.12305C17.2682 9.30534 17.5234 9.52409 17.6875 9.7793L19.5059 9.50586V10.4219ZM17.2637 11.2832C17.2637 10.8457 17.1042 10.4583 16.7852 10.1211C16.4753 9.8112 16.0924 9.65625 15.6367 9.65625C15.1719 9.65625 14.7936 9.82943 14.502 10.1758C14.2194 10.5221 14.0781 10.9186 14.0781 11.3652C14.0781 11.8118 14.2194 12.1992 14.502 12.5273C14.7845 12.8464 15.1445 13.0059 15.582 13.0059C16.0924 13.0059 16.5117 12.8372 16.8398 12.5C17.1224 12.1992 17.2637 11.7936 17.2637 11.2832ZM17.7695 16.7383C17.7695 16.1276 17.2363 15.8268 16.1699 15.8359C15.7507 15.8359 15.2904 15.8496 14.7891 15.877C14.5521 15.8861 14.3424 16.0547 14.1602 16.3828C13.9961 16.6745 13.9141 16.9434 13.9141 17.1895C13.9141 17.5723 14.1009 17.873 14.4746 18.0918C14.7845 18.2559 15.14 18.3379 15.541 18.3379C16.0697 18.3379 16.5573 18.2057 17.0039 17.9414C17.5143 17.6315 17.7695 17.2305 17.7695 16.7383Z" fill="#131313"/>
</svg>
