<svg width="24" height="24" viewBox="0 0 24 24" fill="none" xmlns="http://www.w3.org/2000/svg">
<path d="M8.84119 7.2002L12.3412 17.0002H10.9692L10.1432 14.6762H5.80319L4.97719 17.0002H3.60519L7.10519 7.2002H8.84119ZM7.95919 8.5862L6.25119 13.4162H9.69519L7.98719 8.5862H7.95919ZM15.1001 17.0002L13.7421 16.2162V14.9562L14.7361 14.3822L13.7421 13.8082V10.9382L15.3661 10.0002H19.8321V10.4762L18.5581 11.2182L19.4121 11.7222V13.6542L17.7881 14.5922H15.1001V15.7822H18.2081L19.8321 16.7202V18.9322L18.2081 19.8702H15.0861L13.4621 18.9322V18.0642L14.8201 17.2802V18.6802H18.4741V17.0002H15.1001ZM15.1001 11.1902V13.4022H18.0541V11.1902H15.1001Z" fill="#131313"/>
</svg>
