<svg width="24" height="24" viewBox="0 0 24 24" fill="none" xmlns="http://www.w3.org/2000/svg">
<path d="M7.69812 7.91388L4.15612 16.8179C4.13745 16.8739 4.10478 16.9206 4.05812 16.9579C4.01145 16.9859 3.96012 16.9999 3.90412 16.9999C3.81078 16.9999 3.74078 16.9766 3.69412 16.9299C3.64745 16.8832 3.61945 16.8272 3.61012 16.7619C3.60078 16.7246 3.60545 16.6779 3.62412 16.6219L7.39012 7.35388C7.41812 7.27921 7.45078 7.23255 7.48812 7.21388C7.53478 7.18588 7.59078 7.17188 7.65612 7.17188C7.73078 7.17188 7.79145 7.19055 7.83812 7.22788C7.88478 7.25588 7.91745 7.29788 7.93612 7.35388L11.7021 16.6219C11.7115 16.6499 11.7161 16.6872 11.7161 16.7339C11.7161 16.8179 11.6881 16.8832 11.6321 16.9299C11.5761 16.9766 11.5061 16.9999 11.4221 16.9999C11.3568 16.9999 11.2961 16.9859 11.2401 16.9579C11.1935 16.9206 11.1608 16.8739 11.1421 16.8179L7.48812 7.80188L7.69812 7.91388ZM5.10812 13.9619L5.30412 13.4019H9.84012L9.98012 13.9619H5.10812ZM16.3279 9.78988C16.7479 9.78988 17.1399 9.86455 17.5039 10.0139C17.8679 10.1632 18.1852 10.3592 18.4559 10.6019C18.7359 10.8446 18.9506 11.1059 19.0999 11.3859C19.2586 11.6659 19.3379 11.9412 19.3379 12.2119L19.1559 11.6939V10.2939C19.1559 10.2192 19.1792 10.1539 19.2259 10.0979C19.2819 10.0419 19.3519 10.0139 19.4359 10.0139C19.5199 10.0139 19.5852 10.0419 19.6319 10.0979C19.6879 10.1539 19.7159 10.2192 19.7159 10.2939V16.3139C19.7159 17.0326 19.5666 17.6532 19.2679 18.1759C18.9786 18.6986 18.5772 19.0999 18.0639 19.3799C17.5506 19.6599 16.9532 19.7999 16.2719 19.7999C15.8986 19.7999 15.5206 19.7486 15.1379 19.6459C14.7646 19.5526 14.4519 19.4312 14.1999 19.2819C13.9479 19.1326 13.8219 18.9739 13.8219 18.8059C13.8219 18.7312 13.8406 18.6706 13.8779 18.6239C13.9246 18.5772 13.9852 18.5539 14.0599 18.5539C14.1532 18.5539 14.2372 18.6052 14.3119 18.7079C14.3959 18.8106 14.5406 18.9039 14.7459 18.9879C14.8299 19.0159 14.9419 19.0532 15.0819 19.0999C15.2312 19.1466 15.4086 19.1839 15.6139 19.2119C15.8192 19.2492 16.0479 19.2679 16.2999 19.2679C17.1866 19.2679 17.8819 18.9926 18.3859 18.4419C18.8992 17.9006 19.1559 17.1912 19.1559 16.3139V14.9279L19.2959 14.9419C19.1839 15.3432 19.0206 15.6839 18.8059 15.9639C18.5912 16.2439 18.3439 16.4726 18.0639 16.6499C17.7932 16.8179 17.5039 16.9392 17.1959 17.0139C16.8972 17.0979 16.6079 17.1399 16.3279 17.1399C15.6839 17.1399 15.1052 16.9812 14.5919 16.6639C14.0879 16.3372 13.6866 15.8986 13.3879 15.3479C13.0892 14.7879 12.9399 14.1579 12.9399 13.4579C12.9399 12.7579 13.0892 12.1326 13.3879 11.5819C13.6866 11.0219 14.0879 10.5832 14.5919 10.2659C15.1052 9.94854 15.6839 9.78988 16.3279 9.78988ZM16.3559 10.3219C15.8146 10.3219 15.3246 10.4572 14.8859 10.7279C14.4566 10.9986 14.1159 11.3719 13.8639 11.8479C13.6212 12.3146 13.4999 12.8512 13.4999 13.4579C13.4999 14.0552 13.6212 14.5919 13.8639 15.0679C14.1159 15.5439 14.4566 15.9219 14.8859 16.2019C15.3246 16.4726 15.8146 16.6079 16.3559 16.6079C16.8972 16.6079 17.3826 16.4772 17.8119 16.2159C18.2412 15.9452 18.5819 15.5766 18.8339 15.1099C19.0859 14.6339 19.2119 14.0832 19.2119 13.4579C19.2119 12.8326 19.0859 12.2866 18.8339 11.8199C18.5819 11.3439 18.2412 10.9752 17.8119 10.7139C17.3826 10.4526 16.8972 10.3219 16.3559 10.3219Z" fill="#131313"/>
</svg>
