<svg width="24" height="24" viewBox="0 0 24 24" fill="none" xmlns="http://www.w3.org/2000/svg">
<path d="M7.71107 7.05957H8.77507L12.8351 16.9996H11.4911L10.3151 14.0876H6.14307L4.98107 16.9996H3.63707L7.71107 7.05957ZM10.0351 13.1076L8.24307 8.51557L6.39507 13.1076H10.0351ZM16.6726 17.0836C16.1779 17.0836 15.7206 16.9809 15.3006 16.7756C14.8899 16.5703 14.5353 16.2949 14.2366 15.9496C13.9379 15.6043 13.7046 15.2076 13.5366 14.7596C13.3779 14.3116 13.2986 13.8449 13.2986 13.3596C13.2986 12.8463 13.3779 12.3609 13.5366 11.9036C13.7046 11.4369 13.9379 11.0309 14.2366 10.6856C14.5353 10.3403 14.8899 10.0696 15.3006 9.87357C15.7206 9.66824 16.1826 9.56557 16.6866 9.56557C17.3026 9.56557 17.8346 9.7149 18.2826 10.0136C18.7306 10.3123 19.1086 10.6903 19.4166 11.1476V9.69157H20.5086V16.9156C20.5086 17.4383 20.4106 17.8956 20.2146 18.2876C20.0186 18.6889 19.7526 19.0249 19.4166 19.2956C19.0806 19.5663 18.6839 19.7716 18.2266 19.9116C17.7786 20.0516 17.2979 20.1216 16.7846 20.1216C15.9539 20.1216 15.2773 19.9769 14.7546 19.6876C14.2413 19.4076 13.8119 19.0156 13.4666 18.5116L14.1806 17.8816C14.4699 18.3109 14.8433 18.6329 15.3006 18.8476C15.7579 19.0623 16.2526 19.1696 16.7846 19.1696C17.1206 19.1696 17.4379 19.1229 17.7366 19.0296C18.0446 18.9363 18.3106 18.7963 18.5346 18.6096C18.7586 18.4229 18.9359 18.1896 19.0666 17.9096C19.2066 17.6296 19.2766 17.2983 19.2766 16.9156V15.6276C19.1366 15.8516 18.9686 16.0569 18.7726 16.2436C18.5859 16.4209 18.3806 16.5749 18.1566 16.7056C17.9326 16.8269 17.6946 16.9203 17.4426 16.9856C17.1906 17.0509 16.9339 17.0836 16.6726 17.0836ZM17.0506 16.0756C17.3119 16.0756 17.5639 16.0289 17.8066 15.9356C18.0493 15.8423 18.2733 15.7209 18.4786 15.5716C18.6839 15.4129 18.8566 15.2356 18.9966 15.0396C19.1366 14.8436 19.2299 14.6429 19.2766 14.4376V12.3376C19.1739 12.0856 19.0386 11.8569 18.8706 11.6516C18.7119 11.4463 18.5299 11.2689 18.3246 11.1196C18.1193 10.9609 17.8953 10.8396 17.6526 10.7556C17.4193 10.6716 17.1813 10.6296 16.9386 10.6296C16.5653 10.6296 16.2293 10.7089 15.9306 10.8676C15.6413 11.0263 15.3939 11.2363 15.1886 11.4976C14.9833 11.7589 14.8246 12.0576 14.7126 12.3936C14.6006 12.7203 14.5446 13.0516 14.5446 13.3876C14.5446 13.7516 14.6099 14.0969 14.7406 14.4236C14.8713 14.7503 15.0486 15.0349 15.2726 15.2776C15.4966 15.5203 15.7579 15.7163 16.0566 15.8656C16.3646 16.0056 16.6959 16.0756 17.0506 16.0756Z" fill="#131313"/>
</svg>
