<svg width="24" height="24" viewBox="0 0 24 24" fill="none" xmlns="http://www.w3.org/2000/svg">
<path d="M8.99159 7.05957H9.60759L11.4696 16.9996H10.7136L10.0976 13.7236H5.63159L3.64359 16.9996H2.87359L8.99159 7.05957ZM10.0416 13.1356L9.11759 7.92757L5.92559 13.1356H10.0416ZM14.6313 20.1216C13.8286 20.1216 13.2173 19.9676 12.7973 19.6596C12.3866 19.3609 12.0926 18.9549 11.9153 18.4416L12.4473 18.1196C12.6153 18.6143 12.9093 18.9736 13.3293 19.1976C13.7493 19.4309 14.2253 19.5476 14.7573 19.5476C15.1026 19.5476 15.4433 19.4963 15.7793 19.3936C16.1153 19.2909 16.4186 19.1369 16.6893 18.9316C16.9693 18.7356 17.2073 18.4883 17.4033 18.1896C17.6086 17.8909 17.7533 17.5409 17.8373 17.1396L18.1733 15.5436C17.9866 15.7769 17.7766 15.9916 17.5433 16.1876C17.31 16.3743 17.0673 16.5376 16.8153 16.6776C16.5633 16.8176 16.302 16.9249 16.0313 16.9996C15.7606 17.0743 15.4993 17.1116 15.2473 17.1116C14.846 17.1116 14.4866 17.0276 14.1693 16.8596C13.852 16.6916 13.5813 16.4676 13.3573 16.1876C13.1426 15.9076 12.9746 15.5856 12.8533 15.2216C12.7413 14.8576 12.6853 14.4749 12.6853 14.0736C12.6853 13.5136 12.7973 12.9676 13.0213 12.4356C13.2453 11.8943 13.544 11.4136 13.9173 10.9936C14.3 10.5736 14.7386 10.2376 15.2333 9.98557C15.728 9.72424 16.2506 9.59357 16.8013 9.59357C17.3986 9.59357 17.884 9.76157 18.2573 10.0976C18.64 10.4243 18.9386 10.8256 19.1533 11.3016L19.4893 9.71957H20.1193L18.5373 17.1396C18.4346 17.6343 18.2526 18.0683 17.9913 18.4416C17.7393 18.8149 17.436 19.1229 17.0813 19.3656C16.7266 19.6176 16.3393 19.8043 15.9193 19.9256C15.4993 20.0563 15.07 20.1216 14.6313 20.1216ZM15.5553 16.5096C15.8446 16.5096 16.1386 16.4536 16.4373 16.3416C16.7453 16.2203 17.03 16.0663 17.2913 15.8796C17.5526 15.6929 17.7813 15.4829 17.9773 15.2496C18.1733 15.0163 18.3133 14.7829 18.3973 14.5496L18.9013 12.1556C18.8546 11.8756 18.766 11.6189 18.6353 11.3856C18.514 11.1429 18.36 10.9376 18.1733 10.7696C17.9866 10.6016 17.772 10.4709 17.5293 10.3776C17.2866 10.2749 17.0346 10.2236 16.7733 10.2236C16.2973 10.2236 15.854 10.3403 15.4433 10.5736C15.042 10.8069 14.6873 11.1056 14.3793 11.4696C14.0806 11.8243 13.8426 12.2256 13.6653 12.6736C13.4973 13.1123 13.4133 13.5416 13.4133 13.9616C13.4133 14.3069 13.4646 14.6336 13.5673 14.9416C13.67 15.2496 13.8146 15.5203 14.0013 15.7536C14.188 15.9869 14.412 16.1736 14.6733 16.3136C14.9346 16.4443 15.2286 16.5096 15.5553 16.5096Z" fill="#131313"/>
</svg>
