<svg width="24" height="24" viewBox="0 0 24 24" fill="none" xmlns="http://www.w3.org/2000/svg">
<path d="M3.98599 16.9999L6.05799 5.54785H9.51599L11.574 16.9999H9.20799L8.85799 14.7039H6.70199L6.36599 16.9999H3.98599ZM7.07999 12.1979H8.47999L7.77999 7.57785L7.07999 12.1979ZM16.6328 16.0199C16.2781 16.2999 15.9515 16.5006 15.6528 16.6219C15.3635 16.7432 15.0461 16.8039 14.7008 16.8039C14.2341 16.8039 13.8095 16.7106 13.4268 16.5239C13.0441 16.3279 12.7128 16.0619 12.4328 15.7259C12.1621 15.3806 11.9475 14.9699 11.7888 14.4939C11.6395 14.0179 11.5648 13.4952 11.5648 12.9259C11.5648 12.3099 11.6488 11.7359 11.8168 11.2039C11.9941 10.6626 12.2321 10.1912 12.5308 9.78985C12.8388 9.37918 13.1935 9.05718 13.5948 8.82385C13.9961 8.59052 14.4255 8.47385 14.8828 8.47385C15.5641 8.47385 16.1475 8.75852 16.6328 9.32785V8.62785H18.6208V13.1359C18.6208 13.9666 18.6068 14.6712 18.5788 15.2499C18.5601 15.8286 18.5275 16.2859 18.4808 16.6219C18.3408 17.6112 17.9628 18.3672 17.3468 18.8899C16.7401 19.4219 15.9375 19.6879 14.9388 19.6879C14.5188 19.6879 14.1175 19.6412 13.7348 19.5479C13.3615 19.4546 13.0161 19.3192 12.6988 19.1419V17.4199C13.3801 17.7652 14.0615 17.9379 14.7428 17.9379C15.3588 17.9379 15.8255 17.8072 16.1428 17.5459C16.4695 17.2846 16.6328 16.9112 16.6328 16.4259V16.0199ZM14.2388 11.9459C14.2388 12.3286 14.3415 12.6366 14.5468 12.8699C14.7521 13.1032 15.0228 13.2199 15.3588 13.2199C15.5361 13.2199 15.6995 13.1872 15.8488 13.1219C16.0075 13.0472 16.1428 12.9492 16.2548 12.8279C16.3761 12.7066 16.4695 12.5666 16.5348 12.4079C16.6001 12.2399 16.6328 12.0626 16.6328 11.8759C16.6328 11.6986 16.6001 11.5306 16.5348 11.3719C16.4788 11.2132 16.3948 11.0779 16.2828 10.9659C16.1708 10.8446 16.0401 10.7512 15.8908 10.6859C15.7415 10.6206 15.5828 10.5879 15.4148 10.5879C15.0788 10.5879 14.7988 10.7139 14.5748 10.9659C14.3508 11.2179 14.2388 11.5446 14.2388 11.9459Z" fill="#131313"/>
</svg>
