<svg width="24" height="24" viewBox="0 0 24 24" fill="none" xmlns="http://www.w3.org/2000/svg">
<path d="M5.22278 12.6678H9.45979L9.70679 13.7318H4.82379L5.22278 12.6678ZM11.4168 15.5367C11.4295 15.6128 11.4611 15.6825 11.5118 15.7458C11.5625 15.8091 11.6448 15.8534 11.7588 15.8787L12.5188 16.1068L12.4238 16.9998H7.80679L7.92079 16.1068L9.21278 15.8597L7.69279 6.92975H8.35779L4.59579 15.8597L5.83079 16.1068L5.71679 16.9998H1.97379L2.08779 16.1068L2.92379 15.8787C3.12646 15.828 3.26579 15.7204 3.34179 15.5557L7.55979 6.09375H9.66879L11.4168 15.5367ZM15.1304 20.6667C14.6111 20.6667 14.1551 20.5401 13.7624 20.2868C13.3697 20.0461 13.0341 19.7231 12.7554 19.3178L13.1544 18.5198C13.6104 18.6845 14.0917 18.8175 14.5984 18.9188C15.1051 19.0201 15.5737 19.0707 16.0044 19.0707C16.6884 19.0707 17.1761 18.9504 17.4674 18.7097C17.7714 18.469 17.9677 18.0321 18.0564 17.3988L18.3794 14.8717L18.3984 14.3208L18.9684 9.70375L20.7164 8.77275L21.1154 9.11475L20.1844 16.5818C20.1084 17.1518 19.9121 17.6837 19.5954 18.1777C19.2787 18.6718 18.8797 19.1024 18.3984 19.4697C17.9171 19.8497 17.3914 20.1411 16.8214 20.3438C16.2514 20.559 15.6877 20.6667 15.1304 20.6667ZM15.9094 17.0947C15.2507 17.0947 14.6934 16.8351 14.2374 16.3158C13.7941 15.7964 13.5724 15.0428 13.5724 14.0548C13.5724 13.3581 13.6737 12.6995 13.8764 12.0788C14.0917 11.4581 14.3957 10.907 14.7884 10.4257C15.1811 9.94442 15.6371 9.56442 16.1564 9.28575C16.6757 9.00708 17.2521 8.86775 17.8854 8.86775C18.2907 8.86775 18.6771 8.91208 19.0444 9.00075C19.4244 9.07675 19.7601 9.17175 20.0514 9.28575L19.4814 10.4827C19.2281 10.2927 18.9747 10.147 18.7214 10.0457C18.4681 9.93175 18.1767 9.87475 17.8474 9.87475C17.4927 9.87475 17.1824 9.98242 16.9164 10.1978C16.6631 10.4131 16.4477 10.7044 16.2704 11.0717C16.1057 11.439 15.9854 11.8508 15.9094 12.3068C15.8334 12.7501 15.7954 13.1998 15.7954 13.6558C15.7954 14.2765 15.8714 14.7578 16.0234 15.0998C16.1881 15.4291 16.4097 15.5938 16.6884 15.5938C16.9671 15.5938 17.2647 15.4417 17.5814 15.1377C17.9107 14.821 18.2084 14.3714 18.4744 13.7887L18.7404 13.9218C18.5377 14.9605 18.1831 15.7521 17.6764 16.2968C17.1824 16.8288 16.5934 17.0947 15.9094 17.0947Z" fill="#131313"/>
</svg>
