<svg width="24" height="24" viewBox="0 0 24 24" fill="none" xmlns="http://www.w3.org/2000/svg">
<path d="M7.48347 12.3242V16.6222C7.48347 16.7715 7.45547 16.8742 7.39947 16.9302C7.3528 16.9769 7.2548 17.0002 7.10547 17.0002H6.36347V8.5302C6.36347 8.04487 6.46147 7.7042 6.65747 7.5082C6.8628 7.30287 7.20814 7.2002 7.69347 7.2002H9.70947C10.1948 7.2002 10.5355 7.30287 10.7315 7.5082C10.9368 7.7042 11.0395 8.04487 11.0395 8.5302V16.6222C11.0395 16.7715 11.0115 16.8742 10.9555 16.9302C10.9088 16.9769 10.8108 17.0002 10.6615 17.0002H9.91947V8.8102C9.91947 8.53953 9.88214 8.34353 9.80747 8.2222C9.74214 8.10087 9.58814 8.03087 9.34547 8.0122H8.05747C7.80547 8.03087 7.6468 8.10087 7.58147 8.2222C7.51614 8.34353 7.48347 8.53953 7.48347 8.8102V11.5122H9.35947V11.9462C9.35947 12.0955 9.33614 12.1982 9.28947 12.2542C9.25214 12.3009 9.1588 12.3242 9.00947 12.3242H7.48347ZM14.2393 17.0002C13.754 17.0002 13.4087 16.9022 13.2033 16.7062C13.0073 16.5009 12.9093 16.1555 12.9093 15.6702V11.2182C12.9093 10.7329 13.0073 10.3922 13.2033 10.1962C13.4087 9.99087 13.754 9.8882 14.2393 9.8882H15.5693C15.84 9.8882 16.0313 9.95819 16.1433 10.0982C16.2647 10.2289 16.3533 10.4295 16.4093 10.7002H14.6873C14.398 10.7002 14.216 10.7609 14.1413 10.8822C14.0667 11.0035 14.0293 11.2089 14.0293 11.4982V15.3902C14.0293 15.6795 14.0667 15.8849 14.1413 16.0062C14.216 16.1275 14.398 16.1882 14.6873 16.1882H15.8493V16.6222C15.8493 16.7715 15.826 16.8742 15.7793 16.9302C15.742 16.9769 15.6487 17.0002 15.4993 17.0002H14.2393ZM13.2593 19.8142C13.11 19.8142 13.012 19.7862 12.9653 19.7302C12.928 19.6835 12.9093 19.5855 12.9093 19.4362V19.0022H15.7513C15.8913 19.0022 16.0033 18.9929 16.0873 18.9742C16.1807 18.9555 16.2507 18.9182 16.2973 18.8622C16.344 18.8062 16.372 18.7269 16.3813 18.6242C16.4 18.5215 16.4093 18.3815 16.4093 18.2042V10.2662C16.4093 10.1169 16.4327 10.0189 16.4793 9.9722C16.5353 9.9162 16.638 9.8882 16.7873 9.8882H17.5293V18.4842C17.5293 18.9695 17.4267 19.3102 17.2213 19.5062C17.0253 19.7115 16.6847 19.8142 16.1993 19.8142H13.2593Z" fill="#131313"/>
</svg>
