<svg width="24" height="24" viewBox="0 0 24 24" fill="none" xmlns="http://www.w3.org/2000/svg">
<path d="M4.60947 13.0796H8.83747C9.08014 13.0796 9.2808 13.1169 9.43947 13.1916C9.59814 13.2569 9.7288 13.3549 9.83147 13.4856L10.0275 13.4436V13.9056V14.4236H4.86147C4.72147 14.4236 4.6188 14.3769 4.55347 14.2836C4.49747 14.1809 4.46947 14.0456 4.46947 13.8776C4.46947 13.7096 4.4928 13.5323 4.53947 13.3456L4.60947 13.0796ZM5.92547 16.9996C5.84147 17.0276 5.74347 17.0509 5.63147 17.0696C5.5288 17.0883 5.42614 17.0976 5.32347 17.0976C5.0808 17.0976 4.89414 17.0416 4.76347 16.9296C4.6328 16.8176 4.55347 16.6496 4.52547 16.4256C4.49747 16.2016 4.51147 15.9169 4.56747 15.5716C4.64214 15.0489 4.74014 14.5449 4.86147 14.0596C4.99214 13.5649 5.1368 13.0936 5.29547 12.6456C5.46347 12.1883 5.64547 11.7496 5.84147 11.3296C6.0468 10.9096 6.26614 10.5083 6.49947 10.1256C6.7328 9.7429 6.97547 9.3789 7.22747 9.03357C7.4888 8.6789 7.75947 8.34757 8.03947 8.03957C8.3288 7.72224 8.62747 7.42824 8.93547 7.15757C9.0568 7.12957 9.1688 7.10624 9.27147 7.08757C9.38347 7.0689 9.5048 7.05957 9.63547 7.05957C9.99947 7.05957 10.2841 7.1109 10.4895 7.21357C10.6948 7.3069 10.8535 7.45624 10.9655 7.66157C11.0775 7.8669 11.1755 8.1329 11.2595 8.45957C11.3808 8.87957 11.4695 9.3509 11.5255 9.87357C11.5815 10.3963 11.6048 10.9516 11.5955 11.5396C11.5861 12.1183 11.5441 12.7249 11.4695 13.3596C11.3948 13.9943 11.2921 14.6429 11.1615 15.3056C11.0961 15.6416 11.0541 15.9403 11.0355 16.2016C11.0168 16.4629 11.0168 16.7289 11.0355 16.9996C10.9421 17.0276 10.8255 17.0509 10.6855 17.0696C10.5455 17.0883 10.3775 17.0976 10.1815 17.0976C10.0041 17.0976 9.84547 17.0509 9.70547 16.9576C9.5748 16.8643 9.48614 16.7289 9.43947 16.5516C9.3928 16.3649 9.39747 16.1363 9.45347 15.8656C9.62147 15.2123 9.75214 14.5869 9.84547 13.9896C9.94814 13.3923 10.0181 12.8229 10.0555 12.2816C10.0928 11.7309 10.0975 11.2083 10.0695 10.7136C10.0508 10.2096 10.0041 9.73357 9.92947 9.28557C9.86414 8.83757 9.7708 8.41757 9.64947 8.02557L9.97147 8.37557L9.32747 8.29157L9.81747 8.06757C9.34147 8.59957 8.90747 9.1549 8.51547 9.73357C8.12347 10.3123 7.77347 10.9049 7.46547 11.5116C7.1668 12.1089 6.90547 12.7203 6.68147 13.3456C6.4668 13.9709 6.29414 14.5916 6.16347 15.2076C6.04214 15.8143 5.9628 16.4116 5.92547 16.9996ZM16.924 9.36957C17.2507 9.36957 17.5353 9.42557 17.778 9.53757C18.03 9.64957 18.2493 9.7989 18.436 9.98557C18.6227 10.1723 18.7767 10.3823 18.898 10.6156H19.29L18.94 11.7216C18.7627 11.3856 18.52 11.1429 18.212 10.9936C17.9133 10.8349 17.5727 10.7556 17.19 10.7556C16.8167 10.7556 16.476 10.8489 16.168 11.0356C15.86 11.2223 15.5893 11.5023 15.356 11.8756C15.132 12.2396 14.9407 12.6969 14.782 13.2476L14.726 13.4856C14.6513 13.7563 14.5953 14.0036 14.558 14.2276C14.53 14.4516 14.5207 14.6709 14.53 14.8856C14.614 14.9603 14.7073 15.0163 14.81 15.0536C14.9127 15.0909 15.034 15.1096 15.174 15.1096C15.5473 15.1096 15.93 15.0349 16.322 14.8856C16.7233 14.7363 17.1293 14.4656 17.54 14.0736C17.96 13.6816 18.3893 13.1216 18.828 12.3936L18.352 14.6476L17.876 14.6056C17.6147 15.0163 17.3113 15.3756 16.966 15.6836C16.63 15.9916 16.28 16.2343 15.916 16.4116C15.552 16.5796 15.1973 16.6636 14.852 16.6636C14.4693 16.6636 14.152 16.5749 13.9 16.3976C13.648 16.2203 13.452 15.9823 13.312 15.6836C13.172 15.3849 13.0927 15.0536 13.074 14.6896C13.0553 14.3163 13.0927 13.9429 13.186 13.5696L13.256 13.2476C13.4333 12.5569 13.648 11.9643 13.9 11.4696C14.1613 10.9749 14.4507 10.5736 14.768 10.2656C15.0853 9.95757 15.426 9.73357 15.79 9.59357C16.154 9.44424 16.532 9.36957 16.924 9.36957ZM19.444 9.48157C19.4907 9.4629 19.542 9.4489 19.598 9.43957C19.6633 9.43024 19.7287 9.42557 19.794 9.42557C20.0087 9.42557 20.186 9.48157 20.326 9.59357C20.4753 9.69624 20.5687 9.84557 20.606 10.0416C20.6527 10.2283 20.6293 10.4429 20.536 10.6856C20.312 11.2549 20.1253 11.8149 19.976 12.3656C19.8267 12.9069 19.6913 13.4389 19.57 13.9616C19.458 14.4843 19.3367 15.0023 19.206 15.5156C19.0847 16.0289 18.9307 16.5376 18.744 17.0416C18.52 17.6576 18.198 18.1756 17.778 18.5956C17.358 19.0156 16.8633 19.3236 16.294 19.5196C15.7247 19.7249 15.0947 19.8276 14.404 19.8276C14.068 19.8276 13.7833 19.7996 13.55 19.7436C13.326 19.6969 13.144 19.6269 13.004 19.5336C12.864 19.4496 12.752 19.3609 12.668 19.2676C12.5747 19.1463 12.5233 19.0109 12.514 18.8616C12.5047 18.7216 12.5187 18.5536 12.556 18.3576C12.584 18.2736 12.612 18.1943 12.64 18.1196C12.668 18.0449 12.7007 17.9796 12.738 17.9236H12.822C12.9807 18.0356 13.1533 18.1289 13.34 18.2036C13.5267 18.2876 13.746 18.3483 13.998 18.3856C14.2593 18.4229 14.558 18.4416 14.894 18.4416C15.1833 18.4416 15.4633 18.4089 15.734 18.3436C16.014 18.2876 16.28 18.1943 16.532 18.0636C16.672 17.8863 16.7933 17.7089 16.896 17.5316C16.9987 17.3636 17.092 17.1863 17.176 16.9996C17.2693 16.8129 17.358 16.6029 17.442 16.3696C17.6287 15.8283 17.7827 15.2823 17.904 14.7316C18.0347 14.1809 18.17 13.6069 18.31 13.0096C18.45 12.4029 18.6227 11.7636 18.828 11.0916C18.884 10.9236 18.9447 10.7509 19.01 10.5736C19.0753 10.3963 19.1407 10.2143 19.206 10.0276C19.2807 9.8409 19.36 9.6589 19.444 9.48157Z" fill="#131313"/>
</svg>
