<svg width="24" height="24" viewBox="0 0 24 24" fill="none" xmlns="http://www.w3.org/2000/svg">
<path d="M3.65601 12.6176H7.49201C7.79068 12.6176 8.03801 12.6736 8.23401 12.7856C8.43934 12.8883 8.58868 13.0189 8.68201 13.1776L8.92001 13.1496V14.1156V15.1376H3.92201C3.74468 15.1376 3.61401 15.0536 3.53001 14.8856C3.44601 14.7083 3.40401 14.4749 3.40401 14.1856C3.40401 13.8869 3.44134 13.5649 3.51601 13.2196L3.65601 12.6176ZM6.41401 16.9996C6.23668 17.0463 6.05001 17.0789 5.85401 17.0976C5.66734 17.1256 5.48068 17.1396 5.29401 17.1396C4.78068 17.1396 4.39801 17.0696 4.14601 16.9296C3.89401 16.7896 3.74001 16.5749 3.68401 16.2856C3.62801 15.9869 3.63734 15.6136 3.71201 15.1656C3.79601 14.6616 3.89868 14.1763 4.02001 13.7096C4.14134 13.2336 4.28134 12.7763 4.44001 12.3376C4.59868 11.8989 4.76668 11.4789 4.94401 11.0776C5.13068 10.6669 5.32668 10.2796 5.53201 9.91557C5.74668 9.55157 5.96601 9.20624 6.19001 8.87957C6.41401 8.5529 6.64268 8.24957 6.87601 7.96957C7.11868 7.68024 7.36134 7.4189 7.60401 7.18557C7.88401 7.1389 8.14068 7.10624 8.37401 7.08757C8.60734 7.0689 8.84534 7.05957 9.08801 7.05957C9.61068 7.05957 10.0307 7.1249 10.348 7.25557C10.6747 7.38624 10.9267 7.5869 11.104 7.85757C11.2813 8.1189 11.4073 8.4549 11.482 8.86557C11.5473 9.2389 11.5987 9.64957 11.636 10.0976C11.6733 10.5456 11.6873 11.0263 11.678 11.5396C11.678 12.0529 11.65 12.6083 11.594 13.2056C11.5473 13.7936 11.4727 14.4236 11.37 15.0956C11.3047 15.4969 11.2673 15.8329 11.258 16.1036C11.2487 16.3743 11.2673 16.6729 11.314 16.9996C11.0993 17.0463 10.894 17.0789 10.698 17.0976C10.5113 17.1256 10.3387 17.1396 10.18 17.1396C9.67601 17.1396 9.27468 17.0789 8.97601 16.9576C8.67734 16.8269 8.48601 16.6029 8.40201 16.2856C8.31801 15.9683 8.33668 15.5296 8.45801 14.9696C8.56068 14.4936 8.64468 14.0316 8.71001 13.5836C8.77534 13.1263 8.82201 12.6876 8.85001 12.2676C8.87801 11.8383 8.88734 11.4276 8.87801 11.0356C8.87801 10.6436 8.85934 10.2656 8.82201 9.90157C8.78468 9.52824 8.73801 9.17357 8.68201 8.83757L9.20001 9.84557L8.29001 9.66357L9.49401 8.73957C9.03668 9.29957 8.63534 9.8829 8.29001 10.4896C7.95401 11.0869 7.66468 11.6889 7.42201 12.2956C7.18868 12.8929 6.99734 13.4809 6.84801 14.0596C6.70801 14.6289 6.60068 15.1656 6.52601 15.6696C6.46068 16.1643 6.42334 16.6076 6.41401 16.9996ZM16.2055 9.13157C16.5415 9.13157 16.8261 9.19224 17.0595 9.31357C17.2928 9.4349 17.4841 9.6029 17.6335 9.81757C17.7828 10.0323 17.8901 10.2796 17.9555 10.5596H18.3335L17.9695 11.8336C17.8761 11.7309 17.7548 11.6563 17.6055 11.6096C17.4655 11.5536 17.2881 11.5256 17.0735 11.5256C16.9428 11.5256 16.8168 11.5536 16.6955 11.6096C16.5741 11.6656 16.4575 11.7823 16.3455 11.9596C16.2428 12.1276 16.1401 12.3936 16.0375 12.7576L16.0095 12.8556C15.9628 13.0329 15.9208 13.2056 15.8835 13.3736C15.8555 13.5323 15.8321 13.6816 15.8135 13.8216C15.8601 13.8403 15.9115 13.8543 15.9675 13.8636C16.0328 13.8729 16.0981 13.8776 16.1635 13.8776C16.3035 13.8776 16.4388 13.8636 16.5695 13.8356C16.7001 13.8076 16.8355 13.7609 16.9755 13.6956C17.1155 13.6209 17.2648 13.5323 17.4235 13.4296L17.2135 14.7596H16.8635C16.6675 15.1329 16.4201 15.4596 16.1215 15.7396C15.8321 16.0196 15.5195 16.2436 15.1835 16.4116C14.8568 16.5703 14.5348 16.6496 14.2175 16.6496C13.9468 16.6496 13.6995 16.5609 13.4755 16.3836C13.2515 16.1969 13.0648 15.9543 12.9155 15.6556C12.7661 15.3569 12.6681 15.0256 12.6215 14.6616C12.5841 14.2883 12.6075 13.9196 12.6915 13.5556L12.7755 13.2056C12.9435 12.5243 13.1348 11.9316 13.3495 11.4276C13.5735 10.9143 13.8255 10.4896 14.1055 10.1536C14.3855 9.80824 14.6981 9.55157 15.0435 9.38357C15.3981 9.21557 15.7855 9.13157 16.2055 9.13157ZM18.6415 9.29957C18.7535 9.27157 18.8701 9.2529 18.9915 9.24357C19.1221 9.2249 19.2481 9.21557 19.3695 9.21557C19.8455 9.21557 20.2188 9.31824 20.4895 9.52357C20.7601 9.71957 20.9235 9.9949 20.9795 10.3496C21.0355 10.6949 20.9748 11.1009 20.7975 11.5676C20.6481 11.9596 20.5128 12.3749 20.3915 12.8136C20.2795 13.2523 20.1675 13.7003 20.0555 14.1576C19.9528 14.6056 19.8408 15.0489 19.7195 15.4876C19.6075 15.9169 19.4815 16.3276 19.3415 16.7196C19.1081 17.3636 18.7535 17.9143 18.2775 18.3716C17.8108 18.8289 17.2508 19.1789 16.5975 19.4216C15.9535 19.6736 15.2535 19.7996 14.4975 19.7996C14.0215 19.7996 13.6201 19.7763 13.2935 19.7296C12.9761 19.6829 12.7195 19.6129 12.5235 19.5196C12.3275 19.4263 12.1641 19.3189 12.0335 19.1976C11.8561 19.0203 11.7535 18.8196 11.7255 18.5956C11.6881 18.3716 11.7161 18.1009 11.8095 17.7836C11.8561 17.6063 11.9308 17.4149 12.0335 17.2096C12.1268 17.0136 12.2388 16.8036 12.3695 16.5796H12.4535C12.6308 16.6729 12.8455 16.7616 13.0975 16.8456C13.3588 16.9203 13.6435 16.9809 13.9515 17.0276C14.2595 17.0743 14.5628 17.0976 14.8615 17.0976C15.0388 17.0976 15.2348 17.0883 15.4495 17.0696C15.6641 17.0509 15.8928 17.0229 16.1355 16.9856C16.2288 16.8363 16.3081 16.6869 16.3735 16.5376C16.4388 16.3789 16.5088 16.1876 16.5835 15.9636C16.6581 15.7303 16.7515 15.4316 16.8635 15.0676C16.9941 14.6476 17.1061 14.2323 17.1995 13.8216C17.2928 13.4109 17.3861 12.9909 17.4795 12.5616C17.5728 12.1323 17.6848 11.6889 17.8155 11.2316C17.8901 10.9703 17.9695 10.7276 18.0535 10.5036C18.1468 10.2703 18.2401 10.0556 18.3335 9.85957C18.4361 9.65424 18.5388 9.46757 18.6415 9.29957Z" fill="#131313"/>
</svg>
