<svg width="24" height="24" viewBox="0 0 24 24" fill="none" xmlns="http://www.w3.org/2000/svg">
<path d="M4.66546 13.1216H9.08946C9.30413 13.1216 9.48146 13.1543 9.62146 13.2196C9.77079 13.2756 9.89213 13.3596 9.98546 13.4716L10.1815 13.4436V13.8356V14.2976H4.90346C4.78213 14.2976 4.69346 14.2556 4.63746 14.1716C4.58146 14.0876 4.54879 13.9756 4.53946 13.8356C4.53946 13.6863 4.56279 13.5276 4.60946 13.3596L4.66546 13.1216ZM5.72946 16.9996C5.66413 17.0183 5.58479 17.0369 5.49146 17.0556C5.40746 17.0743 5.31879 17.0836 5.22546 17.0836C5.02013 17.0836 4.86146 17.0323 4.74946 16.9296C4.63746 16.8269 4.56746 16.6776 4.53946 16.4816C4.51146 16.2763 4.52079 16.0196 4.56746 15.7116C4.65146 15.1796 4.75413 14.6663 4.87546 14.1716C5.00613 13.6769 5.15546 13.2009 5.32346 12.7436C5.49146 12.2863 5.67346 11.8476 5.86946 11.4276C6.07479 10.9983 6.29413 10.5923 6.52746 10.2096C6.77013 9.81757 7.02213 9.44424 7.28346 9.08957C7.55413 8.72557 7.83413 8.3849 8.12346 8.06757C8.42213 7.7409 8.73479 7.4329 9.06146 7.14357C9.16413 7.11557 9.26213 7.0969 9.35546 7.08757C9.45813 7.0689 9.56546 7.05957 9.67746 7.05957C9.98546 7.05957 10.2281 7.10624 10.4055 7.19957C10.5828 7.28357 10.7228 7.4189 10.8255 7.60557C10.9281 7.7829 11.0168 8.0209 11.0915 8.31957C11.2408 8.75824 11.3481 9.2529 11.4135 9.80357C11.4881 10.3449 11.5208 10.9189 11.5115 11.5256C11.5115 12.1323 11.4741 12.7623 11.3995 13.4156C11.3248 14.0596 11.2221 14.7129 11.0915 15.3756C11.0261 15.7209 10.9795 16.0149 10.9515 16.2576C10.9328 16.5003 10.9328 16.7476 10.9515 16.9996C10.8675 17.0276 10.7695 17.0463 10.6575 17.0556C10.5455 17.0743 10.4101 17.0836 10.2515 17.0836C10.0928 17.0836 9.95279 17.0416 9.83146 16.9576C9.71013 16.8736 9.62613 16.7476 9.57946 16.5796C9.54213 16.4116 9.55146 16.2063 9.60746 15.9636C9.77546 15.2916 9.90613 14.6476 9.99946 14.0316C10.0928 13.4156 10.1535 12.8229 10.1815 12.2536C10.2188 11.6843 10.2188 11.1429 10.1815 10.6296C10.1535 10.1069 10.0975 9.62157 10.0135 9.17357C9.92946 8.71624 9.81279 8.29624 9.66346 7.91357L9.95746 8.20757L9.39746 8.13757L9.83146 7.94157C9.36479 8.43624 8.93079 8.96357 8.52946 9.52357C8.12813 10.0836 7.76413 10.6669 7.43746 11.2736C7.12013 11.8709 6.84013 12.4869 6.59746 13.1216C6.36413 13.7563 6.17279 14.4003 6.02346 15.0536C5.87413 15.6976 5.77613 16.3463 5.72946 16.9996ZM17.008 9.39757C17.3347 9.39757 17.624 9.45357 17.876 9.56557C18.1373 9.66824 18.3613 9.8129 18.548 9.99957C18.744 10.1863 18.9027 10.4009 19.024 10.6436H19.374L19.066 11.7076C18.87 11.3249 18.618 11.0449 18.31 10.8676C18.002 10.6903 17.6473 10.6016 17.246 10.6016C16.8447 10.6016 16.476 10.7043 16.14 10.9096C15.804 11.1056 15.51 11.4043 15.258 11.8056C15.006 12.2069 14.796 12.7156 14.628 13.3316L14.558 13.5556C14.4833 13.8543 14.432 14.1249 14.404 14.3676C14.376 14.6009 14.3667 14.8343 14.376 15.0676C14.4787 15.1703 14.5907 15.2449 14.712 15.2916C14.8427 15.3289 14.992 15.3476 15.16 15.3476C15.5427 15.3476 15.93 15.2683 16.322 15.1096C16.7233 14.9509 17.1387 14.6616 17.568 14.2416C17.9973 13.8216 18.4453 13.2243 18.912 12.4496L18.436 14.6056L18.016 14.5496C17.7453 14.9789 17.4373 15.3569 17.092 15.6836C16.756 16.0009 16.4013 16.2483 16.028 16.4256C15.664 16.5936 15.2953 16.6776 14.922 16.6776C14.53 16.6776 14.2033 16.5936 13.942 16.4256C13.69 16.2576 13.494 16.0289 13.354 15.7396C13.214 15.4503 13.1347 15.1236 13.116 14.7596C13.1067 14.3863 13.1487 14.0083 13.242 13.6256L13.312 13.3316C13.4987 12.6223 13.718 12.0156 13.97 11.5116C14.2313 11.0076 14.5253 10.6016 14.852 10.2936C15.1787 9.98557 15.524 9.76157 15.888 9.62157C16.252 9.47224 16.6253 9.39757 17.008 9.39757ZM19.57 9.52357C19.6167 9.5049 19.668 9.4909 19.724 9.48157C19.78 9.47224 19.836 9.46757 19.892 9.46757C20.0787 9.46757 20.2327 9.51424 20.354 9.60757C20.4753 9.7009 20.55 9.83157 20.578 9.99957C20.6153 10.1583 20.592 10.3449 20.508 10.5596C20.284 11.1103 20.0927 11.6656 19.934 12.2256C19.7847 12.7763 19.6493 13.3223 19.528 13.8636C19.4067 14.4049 19.276 14.9463 19.136 15.4876C19.0053 16.0196 18.842 16.5423 18.646 17.0556C18.4127 17.6903 18.0953 18.2129 17.694 18.6236C17.2927 19.0436 16.8167 19.3516 16.266 19.5476C15.7153 19.7436 15.104 19.8416 14.432 19.8416C14.1053 19.8416 13.8253 19.8136 13.592 19.7576C13.3587 19.7109 13.1673 19.6409 13.018 19.5476C12.878 19.4636 12.7613 19.3749 12.668 19.2816C12.5933 19.1696 12.5467 19.0483 12.528 18.9176C12.5187 18.7963 12.5327 18.6516 12.57 18.4836C12.5887 18.4089 12.612 18.3343 12.64 18.2596C12.668 18.1943 12.7007 18.1336 12.738 18.0776H12.822C12.9713 18.1989 13.1393 18.3016 13.326 18.3856C13.5127 18.4789 13.7273 18.5443 13.97 18.5816C14.222 18.6189 14.516 18.6376 14.852 18.6376C15.1787 18.6376 15.4867 18.6003 15.776 18.5256C16.0653 18.4509 16.3453 18.3389 16.616 18.1896C16.7467 18.0216 16.8633 17.8536 16.966 17.6856C17.0687 17.5176 17.162 17.3403 17.246 17.1536C17.3393 16.9669 17.428 16.7569 17.512 16.5236C17.708 15.9823 17.876 15.4223 18.016 14.8436C18.156 14.2649 18.296 13.6676 18.436 13.0516C18.5853 12.4263 18.7627 11.7776 18.968 11.1056C19.024 10.9376 19.08 10.7649 19.136 10.5876C19.2013 10.4103 19.2667 10.2329 19.332 10.0556C19.4067 9.8689 19.486 9.69157 19.57 9.52357Z" fill="#131313"/>
</svg>
