<svg width="24" height="24" viewBox="0 0 24 24" fill="none" xmlns="http://www.w3.org/2000/svg">
<path d="M6.19147 13.0802H8.31947C8.47814 13.0802 8.63214 13.0802 8.78147 13.0802C8.94014 13.0802 9.09414 13.0802 9.24347 13.0802L9.76147 12.9542L9.97147 13.9202L10.1955 14.9002H6.31747C6.28947 14.9002 6.26147 14.8955 6.23347 14.8862C6.2148 14.8675 6.19614 14.8489 6.17747 14.8302C6.16814 14.8022 6.16347 14.7742 6.16347 14.7462L6.19147 13.0802ZM6.54147 17.0002C6.2148 17.0002 5.88347 17.0002 5.54747 17.0002C5.2208 17.0002 4.89414 17.0002 4.56747 17.0002C4.5488 17.0002 4.52547 16.9955 4.49747 16.9862C4.4788 16.9769 4.4648 16.9582 4.45547 16.9302C4.44614 16.9022 4.44614 16.8649 4.45547 16.8182C4.4928 16.6502 4.55347 16.3749 4.63747 15.9922C4.72147 15.6095 4.81947 15.1615 4.93147 14.6482C5.0528 14.1349 5.1788 13.5842 5.30947 12.9962C5.44947 12.4082 5.5848 11.8202 5.71547 11.2322C5.85547 10.6349 5.98614 10.0702 6.10747 9.5382C6.2288 8.99687 6.33614 8.52553 6.42947 8.1242C6.5228 7.71353 6.5928 7.40553 6.63947 7.2002C7.22747 7.2002 7.7828 7.2002 8.30547 7.2002C8.82814 7.2002 9.3368 7.2002 9.83147 7.2002C9.8688 7.2002 9.8968 7.20953 9.91547 7.2282C9.94347 7.23753 9.96214 7.25153 9.97147 7.2702C9.99014 7.28887 9.99947 7.31687 9.99947 7.3542C10.1115 7.84887 10.2328 8.38087 10.3635 8.9502C10.4941 9.5102 10.6295 10.1075 10.7695 10.7422C10.9095 11.3675 11.0541 12.0255 11.2035 12.7162C11.3621 13.3975 11.5255 14.1115 11.6935 14.8582C11.7775 15.2035 11.8615 15.5535 11.9455 15.9082C12.0388 16.2629 12.1228 16.6269 12.1975 17.0002C11.8615 17.0002 11.5301 17.0002 11.2035 17.0002C10.8861 17.0002 10.5781 17.0002 10.2795 17.0002C10.2235 17.0002 10.1721 16.9909 10.1255 16.9722C10.0881 16.9535 10.0555 16.9115 10.0275 16.8462C9.99947 16.7715 9.9668 16.6595 9.92947 16.5102C9.73347 15.6329 9.5608 14.8582 9.41147 14.1862C9.26214 13.5049 9.13147 12.9075 9.01947 12.3942C8.9168 11.8715 8.82814 11.4049 8.75347 10.9942C8.6788 10.5742 8.61347 10.1822 8.55747 9.8182C8.5108 9.4542 8.4688 9.09487 8.43147 8.7402L8.87947 9.0902H7.75947L8.20747 8.7402C8.17014 9.09487 8.12347 9.4542 8.06747 9.8182C8.01147 10.1822 7.94147 10.5789 7.85747 11.0082C7.77347 11.4375 7.6708 11.9322 7.54947 12.4922C7.42814 13.0429 7.28347 13.6869 7.11547 14.4242C6.94747 15.1615 6.75614 16.0202 6.54147 17.0002ZM17.764 9.7622L18.184 9.0902C18.2213 9.0342 18.2447 8.98287 18.254 8.9362C18.2633 8.88953 18.268 8.82887 18.268 8.7542C18.268 8.51153 18.268 8.35753 18.268 8.2922C18.268 8.21753 18.268 8.1382 18.268 8.0542C18.5947 8.0542 18.9493 8.0542 19.332 8.0542C19.7147 8.0542 20.0693 8.0542 20.396 8.0542C20.4427 8.0542 20.48 8.0682 20.508 8.0962C20.536 8.1242 20.55 8.16153 20.55 8.2082V9.3702C20.55 9.46353 20.536 9.53353 20.508 9.5802C20.48 9.62687 20.4053 9.6642 20.284 9.6922C20.1627 9.71087 19.9667 9.73887 19.696 9.7762L19.024 9.8742V10.3502L17.764 9.7622ZM16.462 9.2862C17.1713 9.2862 17.7687 9.3842 18.254 9.5802C18.7393 9.7762 19.1033 10.0609 19.346 10.4342C19.598 10.7982 19.724 11.2415 19.724 11.7642V12.0582C19.724 12.5715 19.598 13.0149 19.346 13.3882C19.1033 13.7615 18.7393 14.0462 18.254 14.2422C17.7687 14.4382 17.1713 14.5362 16.462 14.5362C15.7527 14.5362 15.1553 14.4382 14.67 14.2422C14.1847 14.0462 13.816 13.7615 13.564 13.3882C13.3213 13.0149 13.2 12.5715 13.2 12.0582V11.7642C13.2 11.2415 13.3213 10.7982 13.564 10.4342C13.816 10.0609 14.1847 9.7762 14.67 9.5802C15.1553 9.3842 15.7527 9.2862 16.462 9.2862ZM16.462 10.8822C16.0607 10.8822 15.7527 10.9569 15.538 11.1062C15.3327 11.2462 15.23 11.4655 15.23 11.7642V12.0582C15.23 12.1795 15.2487 12.2915 15.286 12.3942C15.3233 12.4875 15.3747 12.5715 15.44 12.6462C15.5427 12.7395 15.678 12.8142 15.846 12.8702C16.0233 12.9169 16.2287 12.9402 16.462 12.9402C16.8727 12.9402 17.1807 12.8702 17.386 12.7302C17.5913 12.5809 17.694 12.3569 17.694 12.0582V11.7642C17.694 11.6335 17.6753 11.5215 17.638 11.4282C17.6007 11.3255 17.5447 11.2369 17.47 11.1622C17.3767 11.0689 17.246 10.9989 17.078 10.9522C16.91 10.9055 16.7047 10.8822 16.462 10.8822ZM15.076 14.0322H16C16 14.3775 16 14.6435 16 14.8302C16 15.0075 16 15.1615 16 15.2922C16 15.3855 16.014 15.4509 16.042 15.4882C16.0793 15.5162 16.1447 15.5302 16.238 15.5302H17.96C18.52 15.5302 18.9773 15.6282 19.332 15.8242C19.696 16.0109 19.9667 16.2722 20.144 16.6082C20.3213 16.9442 20.41 17.3315 20.41 17.7702V18.3302C20.41 18.6569 20.3587 18.9509 20.256 19.2122C20.1627 19.4829 20.0133 19.7115 19.808 19.8982C19.612 20.0942 19.36 20.2435 19.052 20.3462C18.744 20.4489 18.38 20.5002 17.96 20.5002H15.034C14.67 20.5002 14.3527 20.4675 14.082 20.4022C13.8113 20.3369 13.5827 20.2389 13.396 20.1082C13.2187 19.9775 13.0833 19.8095 12.99 19.6042C12.8967 19.4082 12.85 19.1749 12.85 18.9042V18.6522C12.85 18.3722 12.9107 18.1249 13.032 17.9102C13.1533 17.7049 13.3213 17.5322 13.536 17.3922C13.7507 17.2615 14.0027 17.1775 14.292 17.1402V16.5802L15.356 17.2242C15.244 17.2709 15.1553 17.3269 15.09 17.3922C15.034 17.4669 14.992 17.5462 14.964 17.6302C14.936 17.7235 14.922 17.8309 14.922 17.9522V18.4142C14.922 18.5729 14.9407 18.6942 14.978 18.7782C15.0247 18.8715 15.0947 18.9369 15.188 18.9742C15.2813 19.0115 15.4027 19.0302 15.552 19.0302H17.708C17.7827 19.0302 17.848 19.0255 17.904 19.0162C17.9693 19.0069 18.0253 18.9882 18.072 18.9602C18.1187 18.9415 18.156 18.9182 18.184 18.8902C18.24 18.8342 18.2773 18.7549 18.296 18.6522C18.324 18.5495 18.338 18.4375 18.338 18.3162V17.9102C18.338 17.6675 18.2913 17.4995 18.198 17.4062C18.1047 17.3222 17.9413 17.2802 17.708 17.2802H15.146C14.9407 17.2802 14.74 17.2195 14.544 17.0982C14.3573 16.9862 14.2033 16.8322 14.082 16.6362C13.9607 16.4402 13.9 16.2255 13.9 15.9922C13.9 15.6655 13.9933 15.3855 14.18 15.1522C14.376 14.9095 14.6747 14.7275 15.076 14.6062V14.0322Z" fill="#131313"/>
</svg>
