<svg width="24" height="24" viewBox="0 0 24 24" fill="none" xmlns="http://www.w3.org/2000/svg">
<path d="M4.51147 12.9816H8.34747C8.62747 12.9816 8.8608 13.0283 9.04747 13.1216C9.24347 13.2149 9.3928 13.3409 9.49547 13.4996L9.70547 13.4576V14.0456V14.6896H4.76347C4.6048 14.6896 4.48814 14.6243 4.41347 14.4936C4.34814 14.3629 4.31547 14.1903 4.31547 13.9756C4.3248 13.7609 4.35747 13.5369 4.41347 13.3036L4.51147 12.9816ZM6.28947 16.9996C6.1868 17.0369 6.0608 17.0649 5.91147 17.0836C5.77147 17.1116 5.6408 17.1256 5.51947 17.1256C5.20214 17.1256 4.95947 17.0603 4.79147 16.9296C4.6328 16.7896 4.5348 16.5843 4.49747 16.3136C4.46014 16.0429 4.4788 15.7069 4.55347 15.3056C4.62814 14.7923 4.72614 14.2976 4.84747 13.8216C4.97814 13.3456 5.1228 12.8883 5.28147 12.4496C5.44014 12.0016 5.61747 11.5723 5.81347 11.1616C6.00947 10.7509 6.2148 10.3589 6.42947 9.98557C6.65347 9.61224 6.8868 9.26224 7.12947 8.93557C7.37214 8.59957 7.62414 8.2869 7.88547 7.99757C8.1468 7.6989 8.41747 7.42357 8.69747 7.17157C8.83747 7.14357 8.97747 7.12024 9.11747 7.10157C9.25747 7.07357 9.4068 7.05957 9.56547 7.05957C10.0321 7.05957 10.3961 7.12024 10.6575 7.24157C10.9281 7.3629 11.1288 7.5449 11.2595 7.78757C11.3995 8.03024 11.5068 8.3429 11.5815 8.72557C11.6655 9.11757 11.7215 9.55157 11.7495 10.0276C11.7775 10.4943 11.7775 10.9983 11.7495 11.5396C11.7215 12.0716 11.6701 12.6409 11.5955 13.2476C11.5208 13.8543 11.4181 14.4936 11.2875 15.1656C11.2315 15.4829 11.1941 15.7909 11.1755 16.0896C11.1661 16.3883 11.1801 16.6916 11.2175 16.9996C11.0868 17.0369 10.9235 17.0649 10.7275 17.0836C10.5408 17.1116 10.3168 17.1256 10.0555 17.1256C9.8408 17.1256 9.64947 17.0743 9.48147 16.9716C9.3228 16.8596 9.2108 16.7009 9.14547 16.4956C9.08014 16.2809 9.0848 16.0149 9.15947 15.6976C9.31814 15.0629 9.4488 14.4656 9.55147 13.9056C9.65414 13.3456 9.7288 12.8136 9.77547 12.3096C9.82214 11.8056 9.84547 11.3249 9.84547 10.8676C9.84547 10.4103 9.8268 9.9669 9.78947 9.53757C9.75214 9.0989 9.69147 8.67424 9.60747 8.26357L10.0135 8.72557L9.18747 8.58557L9.80347 8.33357C9.31814 8.92157 8.88414 9.52357 8.50147 10.1396C8.12814 10.7556 7.80614 11.3716 7.53547 11.9876C7.27414 12.5943 7.05014 13.1963 6.86347 13.7936C6.68614 14.3909 6.5508 14.9603 6.45747 15.5016C6.36414 16.0336 6.30814 16.5329 6.28947 16.9996ZM16.742 9.29957C17.0593 9.29957 17.3393 9.36024 17.582 9.48157C17.8247 9.6029 18.0347 9.7569 18.212 9.94357C18.3893 10.1303 18.5293 10.3356 18.632 10.5596H19.094L18.702 11.7636C18.562 11.5303 18.3427 11.3576 18.044 11.2456C17.7547 11.1243 17.4373 11.0636 17.092 11.0636C16.7653 11.0636 16.4713 11.1429 16.21 11.3016C15.958 11.4603 15.7387 11.6889 15.552 11.9876C15.3747 12.2863 15.2253 12.6549 15.104 13.0936L15.048 13.3316C14.9827 13.5649 14.9313 13.7796 14.894 13.9756C14.8567 14.1623 14.8333 14.3443 14.824 14.5216C14.8893 14.5496 14.95 14.5729 15.006 14.5916C15.062 14.6009 15.1273 14.6056 15.202 14.6056C15.566 14.6056 15.9393 14.5449 16.322 14.4236C16.714 14.2929 17.106 14.0643 17.498 13.7376C17.8993 13.4016 18.2913 12.9209 18.674 12.2956L18.17 14.7176L17.596 14.7036C17.344 15.0863 17.05 15.4223 16.714 15.7116C16.378 16.0009 16.0373 16.2249 15.692 16.3836C15.3467 16.5423 15.0247 16.6216 14.726 16.6216C14.362 16.6216 14.054 16.5283 13.802 16.3416C13.55 16.1549 13.354 15.9029 13.214 15.5856C13.074 15.2683 12.99 14.9276 12.962 14.5636C12.9433 14.1903 12.976 13.8216 13.06 13.4576L13.158 13.0936C13.3167 12.4403 13.5173 11.8756 13.76 11.3996C14.012 10.9143 14.292 10.5176 14.6 10.2096C14.908 9.90157 15.244 9.6729 15.608 9.52357C15.972 9.37424 16.35 9.29957 16.742 9.29957ZM19.178 9.39757C19.234 9.3789 19.2947 9.3649 19.36 9.35557C19.4347 9.34624 19.514 9.34157 19.598 9.34157C19.878 9.34157 20.1113 9.41157 20.298 9.55157C20.4847 9.69157 20.606 9.8829 20.662 10.1256C20.7273 10.3683 20.704 10.6389 20.592 10.9376C20.3587 11.5349 20.172 12.0996 20.032 12.6316C19.892 13.1636 19.7707 13.6723 19.668 14.1576C19.5747 14.6429 19.472 15.1236 19.36 15.5996C19.248 16.0663 19.1033 16.5329 18.926 16.9996C18.7207 17.5969 18.3893 18.1056 17.932 18.5256C17.484 18.9456 16.952 19.2629 16.336 19.4776C15.7293 19.7016 15.0713 19.8136 14.362 19.8136C14.0073 19.8136 13.7133 19.7856 13.48 19.7296C13.256 19.6736 13.0787 19.5989 12.948 19.5056C12.8267 19.4216 12.7287 19.3329 12.654 19.2396C12.542 19.0903 12.4813 18.9223 12.472 18.7356C12.4627 18.5583 12.486 18.3436 12.542 18.0916C12.57 17.9983 12.598 17.9096 12.626 17.8256C12.6633 17.7509 12.7007 17.6763 12.738 17.6016H12.822C12.9807 17.6856 13.158 17.7603 13.354 17.8256C13.5593 17.9003 13.7927 17.9516 14.054 17.9796C14.3247 18.0169 14.628 18.0356 14.964 18.0356C15.1973 18.0356 15.4307 18.0169 15.664 17.9796C15.9067 17.9423 16.1353 17.8816 16.35 17.7976C16.4993 17.6203 16.63 17.4383 16.742 17.2516C16.854 17.0743 16.9567 16.8923 17.05 16.7056C17.1433 16.5096 17.2273 16.2949 17.302 16.0616C17.4793 15.5203 17.6147 14.9976 17.708 14.4936C17.8107 13.9896 17.9227 13.4623 18.044 12.9116C18.1653 12.3516 18.338 11.7309 18.562 11.0496C18.618 10.8816 18.6787 10.7089 18.744 10.5316C18.8093 10.3543 18.8747 10.1723 18.94 9.98557C19.0147 9.78957 19.094 9.59357 19.178 9.39757Z" fill="#131313"/>
</svg>
