<svg width="24" height="24" viewBox="0 0 24 24" fill="none" xmlns="http://www.w3.org/2000/svg">
<path d="M4.51147 12.9816H8.06747C8.34747 12.9816 8.59947 13.0143 8.82347 13.0796C9.04747 13.1356 9.2388 13.2289 9.39747 13.3596L9.87347 13.1496V13.8916V14.7596H5.28147C5.0668 14.7596 4.90347 14.7036 4.79147 14.5916C4.67947 14.4796 4.6048 14.3163 4.56747 14.1016C4.53014 13.8776 4.51147 13.6116 4.51147 13.3036V12.9816ZM6.94747 16.9996C6.79814 17.0369 6.6488 17.0649 6.49947 17.0836C6.35014 17.1116 6.19614 17.1256 6.03747 17.1256C5.81347 17.1256 5.6128 17.0976 5.43547 17.0416C5.25814 16.9856 5.11814 16.8969 5.01547 16.7756C4.92214 16.6449 4.87547 16.4769 4.87547 16.2716C4.86614 15.7116 4.88014 15.1656 4.91747 14.6336C4.9548 14.0923 5.0108 13.5696 5.08547 13.0656C5.16014 12.5523 5.24414 12.0623 5.33747 11.5956C5.44014 11.1196 5.5568 10.6716 5.68747 10.2516C5.81814 9.82224 5.95814 9.4209 6.10747 9.04757C6.26614 8.67424 6.42947 8.33357 6.59747 8.02557C6.76547 7.71757 6.9428 7.43757 7.12947 7.18557C7.26947 7.14824 7.42347 7.12024 7.59147 7.10157C7.75947 7.07357 7.92747 7.05957 8.09547 7.05957C8.59014 7.05957 8.9868 7.1249 9.28547 7.25557C9.58414 7.3769 9.83147 7.57757 10.0275 7.85757C10.2235 8.13757 10.4055 8.50157 10.5735 8.94957C10.7135 9.3229 10.8441 9.73824 10.9655 10.1956C11.0868 10.6436 11.1941 11.1289 11.2875 11.6516C11.3808 12.1743 11.4601 12.7296 11.5255 13.3176C11.6001 13.9056 11.6515 14.5263 11.6795 15.1796C11.6981 15.4689 11.7121 15.7676 11.7215 16.0756C11.7401 16.3743 11.7541 16.6823 11.7635 16.9996C11.6515 17.0369 11.5208 17.0649 11.3715 17.0836C11.2315 17.1116 11.0868 17.1256 10.9375 17.1256C10.6668 17.1256 10.4381 17.0883 10.2515 17.0136C10.0648 16.9389 9.9248 16.8129 9.83147 16.6356C9.73814 16.4583 9.68214 16.2156 9.66347 15.9076C9.6448 15.2823 9.61214 14.6849 9.56547 14.1156C9.52814 13.5369 9.47214 12.9863 9.39747 12.4636C9.3228 11.9409 9.23414 11.4369 9.13147 10.9516C9.0288 10.4569 8.90747 9.98557 8.76747 9.53757C8.62747 9.08024 8.45947 8.6369 8.26347 8.20757L8.79547 8.58557H7.94147L8.50147 8.20757C8.27747 8.6369 8.08147 9.08024 7.91347 9.53757C7.7548 9.98557 7.6148 10.4663 7.49347 10.9796C7.37214 11.4836 7.26947 12.0343 7.18547 12.6316C7.1108 13.2196 7.0548 13.8729 7.01747 14.5916C6.98014 15.3103 6.9568 16.1129 6.94747 16.9996ZM18.114 10.1536L18.464 8.90757C18.5107 8.7769 18.5387 8.66024 18.548 8.55757C18.5667 8.4549 18.576 8.33357 18.576 8.19357C18.576 8.0909 18.5713 7.99757 18.562 7.91357C18.562 7.82957 18.548 7.74557 18.52 7.66157C18.604 7.6429 18.6833 7.63357 18.758 7.63357C18.842 7.62424 18.926 7.61957 19.01 7.61957C19.43 7.61957 19.766 7.6849 20.018 7.81557C20.2793 7.9369 20.41 8.17024 20.41 8.51557V8.58557C20.41 8.71624 20.382 8.8469 20.326 8.97757C20.2793 9.0989 20.1907 9.22024 20.06 9.34157C19.9387 9.4629 19.7567 9.59824 19.514 9.74757L19.122 9.97157V10.3356L18.114 10.1536ZM16.714 9.29957C17.358 9.29024 17.9273 9.39757 18.422 9.62157C18.9167 9.84557 19.304 10.1629 19.584 10.5736C19.8733 10.9843 20.018 11.4603 20.018 12.0016V12.1276C20.018 12.6689 19.8687 13.1356 19.57 13.5276C19.2807 13.9196 18.884 14.2229 18.38 14.4376C17.8853 14.6523 17.3253 14.7596 16.7 14.7596C16.0653 14.7689 15.496 14.6663 14.992 14.4516C14.4973 14.2369 14.11 13.9336 13.83 13.5416C13.55 13.1496 13.41 12.6923 13.41 12.1696V12.0436C13.41 11.4836 13.5547 10.9983 13.844 10.5876C14.1333 10.1769 14.5253 9.85957 15.02 9.63557C15.524 9.41157 16.0887 9.29957 16.714 9.29957ZM16.84 10.9516C16.2987 10.9516 15.8833 11.0636 15.594 11.2876C15.314 11.5023 15.174 11.8336 15.174 12.2816V12.3936C15.174 12.5243 15.188 12.6503 15.216 12.7716C15.2533 12.8836 15.3 12.9909 15.356 13.0936C15.5613 13.1776 15.7713 13.2429 15.986 13.2896C16.2007 13.3363 16.4433 13.3596 16.714 13.3596C17.2553 13.3596 17.666 13.2523 17.946 13.0376C18.2353 12.8136 18.38 12.4729 18.38 12.0156V11.9176C18.38 11.7776 18.3613 11.6469 18.324 11.5256C18.2867 11.3949 18.2353 11.2736 18.17 11.1616C17.9833 11.0963 17.7827 11.0449 17.568 11.0076C17.3533 10.9703 17.1107 10.9516 16.84 10.9516ZM15.51 14.2696L16.546 14.5916C16.4527 14.7223 16.3873 14.8623 16.35 15.0116C16.322 15.1516 16.308 15.3103 16.308 15.4876C16.308 15.6183 16.35 15.7303 16.434 15.8236C16.518 15.9076 16.644 15.9589 16.812 15.9776L18.674 16.1036C19.0193 16.1316 19.3273 16.2203 19.598 16.3696C19.8687 16.5096 20.0833 16.7056 20.242 16.9576C20.4007 17.2003 20.48 17.4943 20.48 17.8396V18.0496C20.48 18.4229 20.3867 18.7636 20.2 19.0716C20.0133 19.3796 19.7333 19.6363 19.36 19.8416C18.996 20.0563 18.5433 20.2196 18.002 20.3316C17.47 20.4436 16.8447 20.4996 16.126 20.4996H15.986C15.4913 20.4996 15.0573 20.4529 14.684 20.3596C14.3107 20.2756 13.9933 20.1543 13.732 19.9956C13.48 19.8369 13.2887 19.6456 13.158 19.4216C13.0367 19.1976 12.976 18.9456 12.976 18.6656V18.4976C12.976 18.2176 13.0507 17.9609 13.2 17.7276C13.3493 17.5036 13.5593 17.3169 13.83 17.1676C14.1007 17.0276 14.4133 16.9483 14.768 16.9296V16.5516L15.72 17.1676C15.524 17.2609 15.3607 17.3636 15.23 17.4756C15.1087 17.5876 15.02 17.7089 14.964 17.8396C14.908 17.9796 14.88 18.1429 14.88 18.3296V18.4696C14.88 18.6283 14.9267 18.7636 15.02 18.8756C15.1133 18.9876 15.258 19.0716 15.454 19.1276C15.6593 19.1836 15.916 19.2116 16.224 19.2116H16.42C16.6813 19.2116 16.9287 19.2069 17.162 19.1976C17.4047 19.1883 17.6333 19.1696 17.848 19.1416C18.072 19.1229 18.2773 19.0996 18.464 19.0716C18.52 18.9783 18.5573 18.8803 18.576 18.7776C18.5947 18.6843 18.604 18.5863 18.604 18.4836V18.3436C18.604 18.1849 18.562 18.0589 18.478 17.9656C18.394 17.8723 18.2633 17.8209 18.086 17.8116L16.49 17.6996C16.098 17.6623 15.7527 17.5689 15.454 17.4196C15.1647 17.2796 14.9407 17.0929 14.782 16.8596C14.6327 16.6263 14.558 16.3696 14.558 16.0896C14.558 15.7816 14.6373 15.5063 14.796 15.2636C14.9547 15.0209 15.1927 14.8389 15.51 14.7176V14.2696Z" fill="#131313"/>
</svg>
