<svg width="24" height="24" viewBox="0 0 24 24" fill="none" xmlns="http://www.w3.org/2000/svg">
<path d="M4.45547 12.9396H7.80147C8.10014 12.9396 8.36614 12.9723 8.59947 13.0376C8.84214 13.1029 9.05215 13.2056 9.22948 13.3456L9.71947 13.1356V13.9476V14.8996H5.29548C5.06214 14.8996 4.8848 14.8389 4.76347 14.7176C4.64214 14.5963 4.55814 14.4143 4.51147 14.1716C4.47414 13.9289 4.45547 13.6349 4.45547 13.2896V12.9396ZM7.14347 16.9996C6.97547 17.0369 6.8028 17.0696 6.62547 17.0976C6.45747 17.1256 6.29414 17.1396 6.13547 17.1396C5.87414 17.1396 5.64547 17.1069 5.44947 17.0416C5.25347 16.9856 5.09947 16.8876 4.98747 16.7476C4.8848 16.6076 4.83347 16.4256 4.83347 16.2016C4.83347 15.6416 4.85214 15.0909 4.88947 14.5496C4.9268 14.0083 4.97814 13.4856 5.04347 12.9816C5.11814 12.4683 5.20214 11.9736 5.29548 11.4976C5.39815 11.0216 5.51014 10.5736 5.63147 10.1536C5.76214 9.73357 5.89747 9.34157 6.03747 8.97757C6.1868 8.60424 6.34081 8.2729 6.49948 7.98357C6.65814 7.6849 6.82614 7.42357 7.00347 7.19957C7.1528 7.1529 7.3208 7.12024 7.50747 7.10157C7.70347 7.07357 7.89014 7.05957 8.06747 7.05957C8.61814 7.05957 9.06148 7.12957 9.39748 7.26957C9.73348 7.40957 10.0041 7.63357 10.2095 7.94157C10.4241 8.24024 10.6155 8.63224 10.7835 9.11757C10.9048 9.47224 11.0121 9.85957 11.1055 10.2796C11.2081 10.6996 11.2968 11.1523 11.3715 11.6376C11.4461 12.1229 11.5115 12.6409 11.5675 13.1916C11.6235 13.7423 11.6701 14.3303 11.7075 14.9556C11.7261 15.2729 11.7448 15.6043 11.7635 15.9496C11.7821 16.2949 11.7961 16.6449 11.8055 16.9996C11.6748 17.0463 11.5301 17.0789 11.3715 17.0976C11.2128 17.1256 11.0495 17.1396 10.8815 17.1396C10.5735 17.1396 10.3168 17.0976 10.1115 17.0136C9.90614 16.9296 9.75215 16.7896 9.64948 16.5936C9.5468 16.3883 9.48615 16.1129 9.46747 15.7676C9.43948 15.1329 9.4068 14.5356 9.36947 13.9756C9.33214 13.4063 9.28081 12.8696 9.21548 12.3656C9.15947 11.8616 9.08948 11.3809 9.00548 10.9236C8.92147 10.4569 8.8188 10.0089 8.69747 9.57957C8.57614 9.15024 8.43147 8.72557 8.26347 8.30557L8.83747 8.72557H7.91347L8.51547 8.30557C8.31947 8.7349 8.1468 9.1689 7.99747 9.60757C7.85747 10.0463 7.73147 10.5129 7.61947 11.0076C7.5168 11.4929 7.42814 12.0296 7.35347 12.6176C7.28814 13.1963 7.2368 13.8449 7.19947 14.5636C7.17147 15.2823 7.1528 16.0943 7.14347 16.9996ZM18.1 10.1396L18.38 8.86557C18.408 8.74424 18.4267 8.6369 18.436 8.54357C18.4453 8.4409 18.45 8.3149 18.45 8.16557C18.45 8.0629 18.4453 7.9649 18.436 7.87157C18.4267 7.77824 18.408 7.6849 18.38 7.59157C18.4733 7.5729 18.562 7.56357 18.646 7.56357C18.7393 7.55424 18.8327 7.54957 18.926 7.54957C19.3833 7.54957 19.752 7.61957 20.032 7.75957C20.312 7.89024 20.452 8.1469 20.452 8.52957V8.59957C20.452 8.73957 20.424 8.8749 20.368 9.00557C20.3213 9.1269 20.2327 9.24824 20.102 9.36957C19.9713 9.4909 19.7847 9.6169 19.542 9.74757L19.164 9.94357V10.3216L18.1 10.1396ZM16.728 9.27157C17.372 9.26224 17.946 9.37424 18.45 9.60757C18.9633 9.83157 19.3647 10.1489 19.654 10.5596C19.9433 10.9703 20.088 11.4463 20.088 11.9876V12.1276C20.088 12.6689 19.9387 13.1356 19.64 13.5276C19.3413 13.9196 18.9353 14.2229 18.422 14.4376C17.918 14.6523 17.3487 14.7596 16.714 14.7596C16.07 14.7689 15.4913 14.6663 14.978 14.4516C14.474 14.2369 14.0773 13.9336 13.788 13.5416C13.4987 13.1496 13.354 12.6969 13.354 12.1836V12.0436C13.354 11.4743 13.5033 10.9843 13.802 10.5736C14.1007 10.1536 14.502 9.83157 15.006 9.60757C15.5193 9.38357 16.0933 9.27157 16.728 9.27157ZM16.868 11.0916C16.3547 11.0916 15.9673 11.1896 15.706 11.3856C15.4447 11.5816 15.314 11.8849 15.314 12.2956V12.4076C15.314 12.5103 15.3233 12.6083 15.342 12.7016C15.3607 12.7949 15.3887 12.8883 15.426 12.9816C15.6127 13.0563 15.8087 13.1169 16.014 13.1636C16.2193 13.2009 16.4527 13.2196 16.714 13.2196C17.2367 13.2196 17.624 13.1216 17.876 12.9256C18.1373 12.7296 18.268 12.4263 18.268 12.0156V11.9036C18.268 11.7916 18.2587 11.6843 18.24 11.5816C18.2213 11.4789 18.1933 11.3809 18.156 11.2876C17.9787 11.2223 17.7827 11.1756 17.568 11.1476C17.3627 11.1103 17.1293 11.0916 16.868 11.0916ZM15.454 14.2276L16.518 14.5916C16.4527 14.7223 16.406 14.8529 16.378 14.9836C16.3593 15.1049 16.35 15.2496 16.35 15.4176C16.35 15.5483 16.392 15.6603 16.476 15.7536C16.56 15.8376 16.6767 15.8889 16.826 15.9076L18.758 16.0476C19.094 16.0663 19.3973 16.1456 19.668 16.2856C19.9387 16.4256 20.1533 16.6216 20.312 16.8736C20.4707 17.1163 20.55 17.4149 20.55 17.7696V18.0076C20.55 18.4089 20.4473 18.7636 20.242 19.0716C20.046 19.3889 19.752 19.6503 19.36 19.8556C18.9773 20.0703 18.506 20.2289 17.946 20.3316C17.3953 20.4436 16.7653 20.4996 16.056 20.4996H15.93C15.4353 20.4996 15.0013 20.4576 14.628 20.3736C14.2547 20.2896 13.9373 20.1683 13.676 20.0096C13.424 19.8509 13.2327 19.6596 13.102 19.4356C12.9807 19.2116 12.92 18.9549 12.92 18.6656V18.4836C12.92 18.2129 12.99 17.9703 13.13 17.7556C13.27 17.5409 13.4707 17.3636 13.732 17.2236C13.9933 17.0929 14.3013 17.0183 14.656 16.9996V16.6356L15.664 17.2096C15.5053 17.3123 15.3793 17.4149 15.286 17.5176C15.1927 17.6203 15.1227 17.7323 15.076 17.8536C15.0387 17.9749 15.02 18.1196 15.02 18.2876V18.4416C15.02 18.5909 15.0573 18.7123 15.132 18.8056C15.216 18.9083 15.342 18.9829 15.51 19.0296C15.6873 19.0763 15.9113 19.0996 16.182 19.0996H16.364C16.6253 19.0996 16.868 19.0949 17.092 19.0856C17.3253 19.0856 17.5447 19.0763 17.75 19.0576C17.9647 19.0483 18.1607 19.0343 18.338 19.0156C18.394 18.9223 18.4313 18.8336 18.45 18.7496C18.4687 18.6656 18.478 18.5769 18.478 18.4836V18.3156C18.478 18.1943 18.4453 18.1009 18.38 18.0356C18.3147 17.9703 18.2213 17.9329 18.1 17.9236L16.462 17.7976C16.0513 17.7603 15.692 17.6669 15.384 17.5176C15.076 17.3683 14.838 17.1723 14.67 16.9296C14.502 16.6869 14.418 16.4163 14.418 16.1176C14.418 15.8003 14.502 15.5156 14.67 15.2636C14.8473 15.0116 15.1087 14.8249 15.454 14.7036V14.2276Z" fill="#131313"/>
</svg>
