<svg width="24" height="24" viewBox="0 0 24 24" fill="none" xmlns="http://www.w3.org/2000/svg">
<path d="M3.894 13.1216H8.836C9.05067 13.1216 9.228 13.1496 9.368 13.2056C9.51733 13.2523 9.63867 13.3316 9.732 13.4436H10.04V13.8496V14.2976H4.132C4.01067 14.2976 3.922 14.2556 3.866 14.1716C3.81 14.0876 3.77733 13.9756 3.768 13.8356C3.768 13.6863 3.78667 13.5276 3.824 13.3596L3.894 13.1216ZM4.916 17.0556C4.85067 17.0743 4.77133 17.0929 4.678 17.1116C4.594 17.1303 4.50533 17.1396 4.412 17.1396C4.216 17.1396 4.062 17.1023 3.95 17.0276C3.838 16.9623 3.76333 16.8549 3.726 16.7056C3.698 16.5563 3.70267 16.3743 3.74 16.1596C3.86133 15.5996 3.99667 15.0629 4.146 14.5496C4.30467 14.0269 4.47733 13.5276 4.664 13.0516C4.86 12.5663 5.07 12.0996 5.294 11.6516C5.52733 11.2036 5.77467 10.7789 6.036 10.3776C6.29733 9.9669 6.568 9.5749 6.848 9.20157C7.13733 8.8189 7.436 8.4549 7.744 8.10957C8.052 7.76424 8.36933 7.4329 8.696 7.11557C8.79867 7.0969 8.89667 7.0829 8.99 7.07357C9.09267 7.06424 9.2 7.05957 9.312 7.05957C9.61067 7.05957 9.84867 7.10624 10.026 7.19957C10.2033 7.28357 10.3387 7.4189 10.432 7.60557C10.5347 7.7829 10.6233 8.0209 10.698 8.31957C10.8287 8.7769 10.936 9.27624 11.02 9.81757C11.104 10.3496 11.16 10.9189 11.188 11.5256C11.216 12.1229 11.2113 12.7389 11.174 13.3736C11.146 14.0083 11.0713 14.6476 10.95 15.2916C10.8847 15.6743 10.8333 16.0056 10.796 16.2856C10.7587 16.5563 10.7353 16.8129 10.726 17.0556C10.642 17.0743 10.558 17.0929 10.474 17.1116C10.3993 17.1303 10.3107 17.1396 10.208 17.1396C10.0027 17.1396 9.83467 17.1069 9.704 17.0416C9.57333 16.9763 9.48467 16.8596 9.438 16.6916C9.40067 16.5143 9.41 16.2809 9.466 15.9916C9.606 15.3476 9.70867 14.7269 9.774 14.1296C9.84867 13.5323 9.88133 12.9629 9.872 12.4216C9.872 11.8709 9.844 11.3436 9.788 10.8396C9.732 10.3263 9.65267 9.83624 9.55 9.36957C9.45667 8.9029 9.34933 8.4549 9.228 8.02557L9.522 8.31957L8.962 8.24957L9.396 8.05357C8.92933 8.54824 8.49067 9.08024 8.08 9.64957C7.67867 10.2096 7.31 10.7929 6.974 11.3996C6.638 12.0063 6.33467 12.6316 6.064 13.2756C5.80267 13.9103 5.574 14.5449 5.378 15.1796C5.182 15.8143 5.028 16.4396 4.916 17.0556ZM16.8635 9.39757C17.1901 9.39757 17.4795 9.45357 17.7315 9.56557C17.9928 9.66824 18.2168 9.8129 18.4035 9.99957C18.5995 10.1863 18.7581 10.4009 18.8795 10.6436H19.2295L18.9215 11.7076C18.7255 11.3249 18.4735 11.0449 18.1655 10.8676C17.8575 10.6903 17.5028 10.6016 17.1015 10.6016C16.7001 10.6016 16.3315 10.7043 15.9955 10.9096C15.6595 11.1056 15.3655 11.4043 15.1135 11.8056C14.8615 12.2069 14.6515 12.7156 14.4835 13.3316L14.4135 13.5556C14.3388 13.8543 14.2875 14.1249 14.2595 14.3676C14.2315 14.6009 14.2221 14.8343 14.2315 15.0676C14.3341 15.1703 14.4461 15.2449 14.5675 15.2916C14.6981 15.3289 14.8475 15.3476 15.0155 15.3476C15.3981 15.3476 15.7855 15.2683 16.1775 15.1096C16.5788 14.9509 16.9941 14.6616 17.4235 14.2416C17.8528 13.8216 18.3008 13.2243 18.7675 12.4496L18.2915 14.6056L17.8715 14.5496C17.6008 14.9789 17.2928 15.3569 16.9475 15.6836C16.6115 16.0009 16.2568 16.2483 15.8835 16.4256C15.5195 16.5936 15.1508 16.6776 14.7775 16.6776C14.3855 16.6776 14.0588 16.5936 13.7975 16.4256C13.5455 16.2576 13.3495 16.0289 13.2095 15.7396C13.0695 15.4503 12.9901 15.1236 12.9715 14.7596C12.9621 14.3863 13.0041 14.0083 13.0975 13.6256L13.1675 13.3316C13.3541 12.6223 13.5735 12.0156 13.8255 11.5116C14.0868 11.0076 14.3808 10.6016 14.7075 10.2936C15.0341 9.98557 15.3795 9.76157 15.7435 9.62157C16.1075 9.47224 16.4808 9.39757 16.8635 9.39757ZM19.4255 9.52357C19.4721 9.5049 19.5235 9.4909 19.5795 9.48157C19.6355 9.47224 19.6915 9.46757 19.7475 9.46757C19.9341 9.46757 20.0881 9.51424 20.2095 9.60757C20.3308 9.7009 20.4055 9.83157 20.4335 9.99957C20.4708 10.1583 20.4475 10.3449 20.3635 10.5596C20.1395 11.1103 19.9481 11.6656 19.7895 12.2256C19.6401 12.7763 19.5048 13.3223 19.3835 13.8636C19.2621 14.4049 19.1315 14.9463 18.9915 15.4876C18.8608 16.0196 18.6975 16.5423 18.5015 17.0556C18.2681 17.6903 17.9508 18.2129 17.5495 18.6236C17.1481 19.0436 16.6721 19.3516 16.1215 19.5476C15.5708 19.7436 14.9595 19.8416 14.2875 19.8416C13.9608 19.8416 13.6808 19.8136 13.4475 19.7576C13.2141 19.7109 13.0228 19.6409 12.8735 19.5476C12.7335 19.4636 12.6168 19.3749 12.5235 19.2816C12.4488 19.1696 12.4021 19.0483 12.3835 18.9176C12.3741 18.7963 12.3881 18.6516 12.4255 18.4836C12.4441 18.4089 12.4675 18.3343 12.4955 18.2596C12.5235 18.1943 12.5561 18.1336 12.5935 18.0776H12.6775C12.8268 18.1989 12.9948 18.3016 13.1815 18.3856C13.3681 18.4789 13.5828 18.5443 13.8255 18.5816C14.0775 18.6189 14.3715 18.6376 14.7075 18.6376C15.0341 18.6376 15.3421 18.6003 15.6315 18.5256C15.9208 18.4509 16.2008 18.3389 16.4715 18.1896C16.6021 18.0216 16.7188 17.8536 16.8215 17.6856C16.9241 17.5176 17.0175 17.3403 17.1015 17.1536C17.1948 16.9669 17.2835 16.7569 17.3675 16.5236C17.5635 15.9823 17.7315 15.4223 17.8715 14.8436C18.0115 14.2649 18.1515 13.6676 18.2915 13.0516C18.4408 12.4263 18.6181 11.7776 18.8235 11.1056C18.8795 10.9376 18.9355 10.7649 18.9915 10.5876C19.0568 10.4103 19.1221 10.2329 19.1875 10.0556C19.2621 9.8689 19.3415 9.69157 19.4255 9.52357Z" fill="#131313"/>
</svg>
