<svg width="24" height="24" viewBox="0 0 24 24" fill="none" xmlns="http://www.w3.org/2000/svg">
<path d="M3.07259 17.0002L7.11859 7.2002H8.85459L12.8586 17.0002H11.2626L10.1286 14.1302H5.74659L4.59859 17.0002H3.07259ZM6.22259 12.9122H9.65259L7.94459 8.6002L6.22259 12.9122ZM16.8599 19.9962C16.3372 19.9962 15.8285 19.9355 15.3339 19.8142C14.8392 19.6929 14.3912 19.5202 13.9899 19.2962L14.5219 18.2042C14.9419 18.4189 15.3339 18.5729 15.6979 18.6662C16.0712 18.7689 16.4445 18.8202 16.8179 18.8202C17.4432 18.8202 17.9145 18.6755 18.2319 18.3862C18.5585 18.0969 18.7219 17.6722 18.7219 17.1122V16.3002C18.0965 16.7949 17.3825 17.0422 16.5799 17.0422C15.9265 17.0422 15.3245 16.8835 14.7739 16.5662C14.2325 16.2395 13.8032 15.8009 13.4859 15.2502C13.1685 14.6902 13.0099 14.0742 13.0099 13.4022C13.0099 12.7209 13.1685 12.1049 13.4859 11.5542C13.8125 10.9942 14.2465 10.5555 14.7879 10.2382C15.3385 9.91153 15.9545 9.7482 16.6359 9.7482C17.0185 9.7482 17.3872 9.81353 17.7419 9.9442C18.1059 10.0655 18.4372 10.2429 18.7359 10.4762V9.8742H20.1219V17.1122C20.1219 18.0362 19.8372 18.7455 19.2679 19.2402C18.7079 19.7442 17.9052 19.9962 16.8599 19.9962ZM16.7619 15.8382C17.1725 15.8382 17.5459 15.7682 17.8819 15.6282C18.2179 15.4789 18.4979 15.2689 18.7219 14.9982V11.8062C18.4979 11.5449 18.2132 11.3395 17.8679 11.1902C17.5319 11.0409 17.1632 10.9662 16.7619 10.9662C16.3139 10.9662 15.9079 11.0735 15.5439 11.2882C15.1892 11.5029 14.9045 11.7969 14.6899 12.1702C14.4845 12.5342 14.3819 12.9449 14.3819 13.4022C14.3819 13.8595 14.4845 14.2749 14.6899 14.6482C14.9045 15.0122 15.1892 15.3015 15.5439 15.5162C15.9079 15.7309 16.3139 15.8382 16.7619 15.8382Z" fill="#131313"/>
</svg>
