<svg width="24" height="24" viewBox="0 0 24 24" fill="none" xmlns="http://www.w3.org/2000/svg">
<path d="M3.56741 17.0002L7.44541 7.2002H8.73341L12.5554 17.0002H11.3934L10.2314 13.9202H5.86341L4.70141 17.0002H3.56741ZM6.19941 13.0662H9.90941L8.04741 8.1802L6.19941 13.0662ZM16.6242 20.0662C16.1668 20.0662 15.7048 20.0009 15.2382 19.8702C14.7808 19.7489 14.3562 19.5762 13.9642 19.3522L14.3982 18.5682C14.8182 18.7829 15.2008 18.9415 15.5462 19.0442C15.8915 19.1469 16.2368 19.1982 16.5822 19.1982C17.2075 19.1982 17.6788 19.0489 17.9962 18.7502C18.3228 18.4515 18.4862 18.0175 18.4862 17.4482V16.0762C18.2248 16.4029 17.9075 16.6549 17.5342 16.8322C17.1608 17.0002 16.7502 17.0842 16.3022 17.0842C15.7142 17.0842 15.1822 16.9302 14.7062 16.6222C14.2302 16.3049 13.8522 15.8849 13.5722 15.3622C13.2922 14.8302 13.1522 14.2375 13.1522 13.5842C13.1522 12.9309 13.2922 12.3429 13.5722 11.8202C13.8615 11.2882 14.2488 10.8682 14.7342 10.5602C15.2195 10.2429 15.7608 10.0842 16.3582 10.0842C16.7875 10.0842 17.1842 10.1682 17.5482 10.3362C17.9122 10.4949 18.2295 10.7329 18.5002 11.0502V10.1682H19.5082V17.4342C19.5082 18.2835 19.2608 18.9322 18.7662 19.3802C18.2715 19.8375 17.5575 20.0662 16.6242 20.0662ZM16.5542 16.2022C16.9555 16.2022 17.3242 16.1229 17.6602 15.9642C17.9962 15.7962 18.2715 15.5675 18.4862 15.2782V11.9042C18.2622 11.6149 17.9775 11.3909 17.6322 11.2322C17.2962 11.0642 16.9368 10.9802 16.5542 10.9802C16.0968 10.9802 15.6862 11.0922 15.3222 11.3162C14.9675 11.5402 14.6828 11.8482 14.4682 12.2402C14.2628 12.6322 14.1602 13.0802 14.1602 13.5842C14.1602 14.0789 14.2628 14.5269 14.4682 14.9282C14.6828 15.3202 14.9675 15.6329 15.3222 15.8662C15.6862 16.0902 16.0968 16.2022 16.5542 16.2022Z" fill="#131313"/>
</svg>
