<svg width="24" height="24" viewBox="0 0 24 24" fill="none" xmlns="http://www.w3.org/2000/svg">
<path d="M3.60568 17.0002L9.42968 7.2002H10.7037L12.4117 17.0002H11.3337L10.8297 13.9202H6.57368L4.79568 17.0002H3.60568ZM7.06368 13.0662H10.6897L9.87768 8.1662L7.06368 13.0662ZM16.0963 20.0662C15.6016 20.0662 15.0883 19.9729 14.5563 19.7862C14.0243 19.5995 13.5623 19.3522 13.1703 19.0442L13.7023 18.3022C14.4863 18.8809 15.2656 19.1702 16.0403 19.1702C16.5443 19.1702 16.9596 19.0349 17.2863 18.7642C17.613 18.5029 17.8276 18.1295 17.9303 17.6442L18.2103 16.3282C17.949 16.5709 17.655 16.7575 17.3283 16.8882C17.011 17.0189 16.6703 17.0842 16.3063 17.0842C15.7836 17.0842 15.3123 16.9489 14.8923 16.6782C14.4816 16.4075 14.1596 16.0435 13.9263 15.5862C13.693 15.1195 13.5763 14.5922 13.5763 14.0042C13.5763 13.4722 13.665 12.9729 13.8423 12.5062C14.029 12.0302 14.2856 11.6149 14.6123 11.2602C14.939 10.8962 15.3123 10.6115 15.7323 10.4062C16.1616 10.2009 16.619 10.0982 17.1043 10.0982C17.571 10.0982 17.991 10.1915 18.3643 10.3782C18.7376 10.5649 19.041 10.8355 19.2743 11.1902L19.4843 10.1682H20.4783L18.8963 17.7282C18.7376 18.4842 18.4156 19.0629 17.9303 19.4642C17.4543 19.8655 16.843 20.0662 16.0963 20.0662ZM16.6563 16.2162C16.9736 16.2162 17.277 16.1602 17.5663 16.0482C17.865 15.9269 18.1356 15.7542 18.3783 15.5302L19.1063 12.0022C18.9196 11.6942 18.6536 11.4515 18.3083 11.2742C17.9723 11.0875 17.613 10.9942 17.2303 10.9942C16.7356 10.9942 16.2876 11.1249 15.8863 11.3862C15.485 11.6475 15.163 11.9975 14.9203 12.4362C14.687 12.8749 14.5703 13.3695 14.5703 13.9202C14.5703 14.6015 14.7616 15.1569 15.1443 15.5862C15.5363 16.0062 16.0403 16.2162 16.6563 16.2162Z" fill="#131313"/>
</svg>
