<svg width="24" height="24" viewBox="0 0 24 24" fill="none" xmlns="http://www.w3.org/2000/svg">
<path d="M3.38934 15.9996C3.42667 15.9903 3.492 15.9203 3.58534 15.7896C3.67867 15.6496 3.8 15.4349 3.94934 15.1456C4.024 14.9963 4.14534 14.7489 4.31334 14.4036C4.49067 14.0583 4.69134 13.6569 4.91534 13.1996C5.14867 12.7423 5.38667 12.2663 5.62934 11.7716C5.88134 11.2769 6.11934 10.8056 6.34334 10.3576C6.57667 9.90028 6.77734 9.50361 6.94534 9.16761C7.12267 8.82228 7.24867 8.57961 7.32334 8.43961C7.482 8.14094 7.56134 7.92628 7.56134 7.79561C7.56134 7.66494 7.52867 7.59961 7.46334 7.59961H8.83534C8.78867 7.59961 8.76534 7.66494 8.76534 7.79561C8.77467 7.92628 8.84934 8.14094 8.98934 8.43961C9.05467 8.57961 9.17134 8.82228 9.33934 9.16761C9.50734 9.50361 9.70334 9.90028 9.92734 10.3576C10.1513 10.8056 10.3847 11.2769 10.6273 11.7716C10.8793 12.2663 11.1173 12.7423 11.3413 13.1996C11.5747 13.6569 11.7753 14.0583 11.9433 14.4036C12.1207 14.7489 12.2467 14.9963 12.3213 15.1456C12.48 15.4629 12.62 15.6869 12.7413 15.8176C12.872 15.9389 12.9653 15.9996 13.0213 15.9996H11.5653C11.6307 15.9996 11.6633 15.9249 11.6633 15.7756C11.6727 15.6169 11.598 15.3603 11.4393 15.0056C11.374 14.8469 11.2947 14.6743 11.2013 14.4876C11.108 14.2916 11.0427 14.1609 11.0053 14.0956C10.9493 13.9649 10.898 13.8716 10.8513 13.8156C10.8047 13.7596 10.7393 13.7223 10.6553 13.7036C10.5807 13.6849 10.464 13.6756 10.3053 13.6756H6.00734C5.83 13.6756 5.69934 13.6849 5.61534 13.7036C5.53134 13.7223 5.466 13.7596 5.41934 13.8156C5.382 13.8716 5.33534 13.9603 5.27934 14.0816C5.22334 14.1843 5.144 14.3476 5.04134 14.5716C4.948 14.7956 4.86867 14.9869 4.80334 15.1456C4.682 15.4536 4.626 15.6729 4.63534 15.8036C4.64467 15.9343 4.682 15.9996 4.74734 15.9996H3.38934ZM6.31534 13.1156H9.95534C10.226 13.1156 10.3753 13.0923 10.4033 13.0456C10.4313 12.9989 10.4127 12.8963 10.3473 12.7376C10.2447 12.5229 10.1047 12.2429 9.92734 11.8976C9.75 11.5429 9.55867 11.1556 9.35334 10.7356C9.148 10.3063 8.938 9.87694 8.72334 9.44761C8.518 9.01828 8.33134 8.62628 8.16334 8.27161H8.13534C7.96734 8.61694 7.776 9.00428 7.56134 9.43361C7.356 9.85361 7.15067 10.2736 6.94534 10.6936C6.74 11.1136 6.54867 11.5009 6.37134 11.8556C6.194 12.2009 6.04934 12.4809 5.93734 12.6956C5.86267 12.8449 5.83934 12.9523 5.86734 13.0176C5.89534 13.0829 6.04467 13.1156 6.31534 13.1156ZM17.1837 19.4156C16.465 19.4156 15.8724 19.3596 15.4057 19.2476C14.939 19.1449 14.575 19.0236 14.3137 18.8836C14.0524 18.7529 13.8657 18.6503 13.7537 18.5756L13.8937 17.8056V17.6796C14.043 17.8476 14.267 18.0203 14.5657 18.1976C14.8737 18.3843 15.2424 18.5383 15.6717 18.6596C16.1104 18.7903 16.5957 18.8556 17.1277 18.8556C17.837 18.8556 18.397 18.7389 18.8077 18.5056C19.2277 18.2816 19.5264 17.9503 19.7037 17.5116C19.881 17.0729 19.9697 16.5316 19.9697 15.8876V15.0756L19.9977 14.8236L19.9697 14.7956C19.867 14.9636 19.7037 15.1549 19.4797 15.3696C19.2557 15.5749 18.943 15.7569 18.5417 15.9156C18.1497 16.0649 17.6317 16.1396 16.9877 16.1396C16.101 16.1396 15.4104 15.9903 14.9157 15.6916C14.4304 15.3929 14.0897 14.9869 13.8937 14.4736C13.707 13.9603 13.6137 13.3816 13.6137 12.7376C13.6137 12.0843 13.721 11.5009 13.9357 10.9876C14.1504 10.4743 14.5004 10.0683 14.9857 9.76961C15.4804 9.46161 16.1477 9.30761 16.9877 9.30761C17.6224 9.30761 18.145 9.38694 18.5557 9.54561C18.9664 9.70428 19.2837 9.88161 19.5077 10.0776C19.7317 10.2736 19.8857 10.4323 19.9697 10.5536L19.9977 10.5396L19.9697 10.2736V9.44761H20.9777C20.9124 9.45694 20.847 9.52694 20.7817 9.65761C20.7257 9.78828 20.6977 10.0076 20.6977 10.3156V16.0976C20.6977 17.1709 20.4177 17.9923 19.8577 18.5616C19.307 19.1309 18.4157 19.4156 17.1837 19.4156ZM17.0857 15.5796C17.7204 15.5796 18.2477 15.4629 18.6677 15.2296C19.097 14.9963 19.419 14.6649 19.6337 14.2356C19.8577 13.8063 19.9697 13.3069 19.9697 12.7376C19.9697 12.1869 19.867 11.6969 19.6617 11.2676C19.4564 10.8289 19.139 10.4883 18.7097 10.2456C18.2897 9.99361 17.7484 9.86761 17.0857 9.86761C16.3764 9.86761 15.821 9.98894 15.4197 10.2316C15.0184 10.4743 14.7337 10.8103 14.5657 11.2396C14.407 11.6689 14.3277 12.1729 14.3277 12.7516C14.3277 13.3023 14.407 13.7923 14.5657 14.2216C14.7337 14.6416 15.0184 14.9729 15.4197 15.2156C15.821 15.4583 16.3764 15.5796 17.0857 15.5796Z" fill="#131313"/>
</svg>
