<svg width="24" height="24" viewBox="0 0 24 24" fill="none" xmlns="http://www.w3.org/2000/svg">
<path d="M3.7097 16.9997L8.2317 6.3877H8.3297L12.8517 16.9997H10.9337L7.7837 8.97769L8.9737 8.1797L5.3477 16.9997H3.7097ZM6.5657 13.2197H10.0237L10.5977 14.6337H6.0617L6.5657 13.2197ZM17.0447 19.9677C16.5594 19.9677 16.1394 19.907 15.7847 19.7857C15.4394 19.6737 15.136 19.529 14.8747 19.3517C14.6134 19.1744 14.366 18.983 14.1327 18.7777L15.0707 17.6857C15.3414 17.9377 15.626 18.1477 15.9247 18.3157C16.2327 18.4837 16.5967 18.5677 17.0167 18.5677C17.5954 18.5677 18.0574 18.4277 18.4027 18.1477C18.748 17.8677 18.9254 17.485 18.9347 16.9997V15.5297L19.0187 15.8237C18.86 16.197 18.5707 16.5144 18.1507 16.7757C17.74 17.0277 17.222 17.1537 16.5967 17.1537C16.0554 17.1537 15.556 17.0184 15.0987 16.7477C14.6414 16.4677 14.2727 16.0897 13.9927 15.6137C13.722 15.1377 13.5867 14.601 13.5867 14.0037C13.5867 13.3784 13.7314 12.8277 14.0207 12.3517C14.31 11.8664 14.688 11.4884 15.1547 11.2177C15.6307 10.9377 16.1347 10.7977 16.6667 10.7977C17.1894 10.7977 17.6514 10.891 18.0527 11.0777C18.4634 11.255 18.7667 11.4837 18.9627 11.7637L18.8927 11.9877L19.0607 11.0637H20.5307V17.0277C20.5307 17.5784 20.3814 18.073 20.0827 18.5117C19.784 18.9597 19.3734 19.3144 18.8507 19.5757C18.328 19.837 17.726 19.9677 17.0447 19.9677ZM15.1967 13.9477C15.1967 14.3117 15.2807 14.6384 15.4487 14.9277C15.6167 15.2077 15.8407 15.4317 16.1207 15.5997C16.4007 15.7584 16.7134 15.8377 17.0587 15.8377C17.5254 15.8377 17.9174 15.7304 18.2347 15.5157C18.5614 15.2917 18.7947 14.993 18.9347 14.6197V13.3177C18.8134 12.9537 18.5847 12.6597 18.2487 12.4357C17.9127 12.2117 17.516 12.0997 17.0587 12.0997C16.7134 12.0997 16.4007 12.179 16.1207 12.3377C15.8407 12.4964 15.6167 12.7157 15.4487 12.9957C15.2807 13.2664 15.1967 13.5837 15.1967 13.9477Z" fill="#131313"/>
</svg>
