<svg width="24" height="24" viewBox="0 0 24 24" fill="none" xmlns="http://www.w3.org/2000/svg">
<path d="M3.84122 16.9997L8.30722 6.42969H8.39122L12.8572 16.9997H11.1632L7.91522 8.72569L8.96522 8.03969L5.29722 16.9997H3.84122ZM6.54322 13.1917H10.1832L10.6872 14.4517H6.10922L6.54322 13.1917ZM17.0636 19.9117C16.6156 19.9117 16.2236 19.8557 15.8876 19.7437C15.5516 19.641 15.2482 19.501 14.9776 19.3237C14.7162 19.1464 14.4642 18.9504 14.2216 18.7357L15.0616 17.7697C15.3509 18.0497 15.6496 18.269 15.9576 18.4277C16.2749 18.5864 16.6342 18.6657 17.0356 18.6657C17.6702 18.6657 18.1602 18.5164 18.5056 18.2177C18.8509 17.919 19.0282 17.5177 19.0376 17.0137V15.4877L19.1356 15.7537C18.9676 16.1457 18.6689 16.477 18.2396 16.7477C17.8196 17.009 17.2969 17.1397 16.6716 17.1397C16.1302 17.1397 15.6356 17.0044 15.1876 16.7337C14.7396 16.463 14.3802 16.0944 14.1096 15.6277C13.8389 15.161 13.7036 14.6337 13.7036 14.0457C13.7036 13.439 13.8436 12.9024 14.1236 12.4357C14.4129 11.9597 14.7909 11.5864 15.2576 11.3157C15.7242 11.045 16.2236 10.9097 16.7556 10.9097C17.2782 10.9097 17.7449 11.0077 18.1556 11.2037C18.5756 11.3997 18.8836 11.6517 19.0796 11.9597L19.0096 12.1977L19.1496 11.1477H20.4516V17.0417C20.4516 17.5737 20.3116 18.0544 20.0316 18.4837C19.7516 18.9224 19.3596 19.2677 18.8556 19.5197C18.3516 19.781 17.7542 19.9117 17.0636 19.9117ZM15.1316 14.0037C15.1316 14.377 15.2156 14.713 15.3836 15.0117C15.5609 15.3104 15.7942 15.5484 16.0836 15.7257C16.3822 15.8937 16.7136 15.9777 17.0776 15.9777C17.5722 15.9777 17.9922 15.8517 18.3376 15.5997C18.6829 15.3384 18.9162 15.007 19.0376 14.6057V13.4017C18.9162 13.0004 18.6782 12.6784 18.3236 12.4357C17.9689 12.1837 17.5536 12.0577 17.0776 12.0577C16.7136 12.0577 16.3822 12.1417 16.0836 12.3097C15.7942 12.4777 15.5609 12.7064 15.3836 12.9957C15.2156 13.285 15.1316 13.621 15.1316 14.0037Z" fill="#131313"/>
</svg>
