<svg width="24" height="24" viewBox="0 0 24 24" fill="none" xmlns="http://www.w3.org/2000/svg">
<path d="M10.9701 17.1538L9.31806 13.6258L3.77406 14.5918L2.31806 17.1538H2.10806L5.93006 6.09381L8.14206 5.75781L12.6221 16.9718L10.9701 17.1538ZM7.03606 8.75381L4.86606 12.6318L9.15006 13.2898L7.03606 8.75381ZM17.6614 18.3018C18.1561 18.3018 18.4874 18.2225 18.6554 18.0638C18.8234 17.9145 18.9074 17.5971 18.9074 17.1118C18.9074 17.0558 18.9027 17.0045 18.8934 16.9578C18.8934 16.9018 18.8934 16.8411 18.8934 16.7758L18.8374 15.5018C18.4734 15.8191 18.0301 16.0805 17.5074 16.2858C16.9941 16.4818 16.4387 16.5798 15.8414 16.5798C15.0481 16.5798 14.4181 16.3745 13.9514 15.9638C13.4941 15.5438 13.2654 14.8718 13.2654 13.9478C13.2654 13.2198 13.4707 12.5571 13.8814 11.9598C14.2921 11.3531 14.8521 10.8305 15.5614 10.3918C16.2801 9.95314 17.0967 9.61714 18.0114 9.38381C18.9354 9.14114 19.9061 9.01981 20.9234 9.01981L20.6574 16.6078C20.6294 17.4478 20.5361 18.1058 20.3774 18.5818C20.2281 19.0671 20.0041 19.4078 19.7054 19.6038C19.4067 19.8091 19.0241 19.9118 18.5574 19.9118C18.4361 19.9118 18.3101 19.9025 18.1794 19.8838C18.0487 19.8745 17.9134 19.8605 17.7734 19.8418C17.1761 19.7578 16.5087 19.5571 15.7714 19.2398C15.0341 18.9318 14.2594 18.4138 13.4474 17.6858L13.5174 17.5738C13.7694 17.6671 14.0727 17.7558 14.4274 17.8398C14.7914 17.9331 15.1647 18.0125 15.5474 18.0778C15.9301 18.1431 16.2847 18.1945 16.6114 18.2318C16.9381 18.2691 17.1947 18.2925 17.3814 18.3018H17.6614ZM18.6134 10.0418C17.4934 10.4058 16.6721 10.9005 16.1494 11.5258C15.6267 12.1418 15.3654 12.8558 15.3654 13.6678C15.3654 14.2091 15.4727 14.5871 15.6874 14.8018C15.9021 15.0165 16.2147 15.1238 16.6254 15.1238C17.0081 15.1238 17.3721 15.0818 17.7174 14.9978C18.0627 14.9045 18.4221 14.7691 18.7954 14.5918L18.6134 10.0418Z" fill="#131313"/>
</svg>
