<svg width="24" height="24" viewBox="0 0 24 24" fill="none" xmlns="http://www.w3.org/2000/svg">
<path d="M9.11426 8.49609L5.32715 17H3.59082L8.37598 7.04688H9.46973L9.11426 8.49609ZM9.51758 17L8.65625 8.33887L8.7793 7.04688H9.81836L11.165 17H9.51758ZM10.1943 13.3018L9.94141 14.6963H5.43652L5.68262 13.3018H10.1943ZM17.2627 9.60352H18.6777L17.4199 17.0273C17.3424 17.6107 17.167 18.1234 16.8936 18.5654C16.6201 19.012 16.2578 19.3538 15.8066 19.5908C15.36 19.8324 14.8291 19.944 14.2139 19.9258C13.9495 19.9167 13.6875 19.8757 13.4277 19.8027C13.168 19.7298 12.9196 19.625 12.6826 19.4883C12.4456 19.3561 12.2383 19.1989 12.0605 19.0166L12.7373 17.9092C12.9242 18.1234 13.1429 18.292 13.3936 18.415C13.6442 18.5381 13.9131 18.6042 14.2002 18.6133C14.5329 18.627 14.8132 18.5677 15.041 18.4355C15.2734 18.3079 15.4535 18.1257 15.5811 17.8887C15.7132 17.6517 15.8044 17.3783 15.8545 17.0684L16.8457 11.1963L17.2627 9.60352ZM12.5391 13.6299L12.6074 13.0557C12.6576 12.641 12.7441 12.2194 12.8672 11.791C12.9902 11.3626 13.1634 10.9707 13.3867 10.6152C13.61 10.2552 13.8949 9.97038 14.2412 9.76074C14.5876 9.54655 15.0091 9.44857 15.5059 9.46679C15.9434 9.48046 16.2874 9.60352 16.5381 9.83594C16.7887 10.0638 16.971 10.3555 17.085 10.7109C17.2035 11.0664 17.2741 11.4401 17.2969 11.832C17.3197 12.224 17.3174 12.5885 17.29 12.9258L17.1875 13.7324C17.1283 14.0833 17.0326 14.4593 16.9004 14.8604C16.7728 15.2614 16.6019 15.6374 16.3877 15.9883C16.1735 16.3392 15.9069 16.624 15.5879 16.8428C15.2734 17.057 14.8975 17.1595 14.46 17.1504C13.9951 17.1367 13.626 17.0182 13.3525 16.7949C13.0791 16.5671 12.8763 16.2754 12.7441 15.9199C12.6165 15.5645 12.5391 15.1862 12.5117 14.7852C12.4889 14.3796 12.498 13.9945 12.5391 13.6299ZM14.166 13.0215L14.0977 13.6162C14.0794 13.8122 14.0658 14.0332 14.0566 14.2793C14.0475 14.5254 14.0635 14.7624 14.1045 14.9902C14.1455 15.2135 14.2344 15.4004 14.3711 15.5508C14.5124 15.6966 14.7243 15.7741 15.0068 15.7832C15.3122 15.7969 15.5765 15.7217 15.7998 15.5576C16.0231 15.389 16.2008 15.1771 16.333 14.9219C16.4697 14.6621 16.5677 14.4001 16.627 14.1357L16.8662 12.5293C16.8799 12.347 16.873 12.1602 16.8457 11.9688C16.8184 11.7728 16.7682 11.5905 16.6953 11.4219C16.6224 11.2487 16.513 11.1074 16.3672 10.998C16.2259 10.8887 16.0482 10.8294 15.834 10.8203C15.5286 10.8021 15.2734 10.8613 15.0684 10.998C14.8678 11.1302 14.7061 11.3102 14.583 11.5381C14.46 11.7614 14.3665 12.0052 14.3027 12.2695C14.2389 12.5339 14.1934 12.7845 14.166 13.0215Z" fill="#131313"/>
</svg>
