<svg width="24" height="24" viewBox="0 0 24 24" fill="none" xmlns="http://www.w3.org/2000/svg">
<path d="M9.25781 7.68945L4.87598 17H4.03516L8.84082 7.04688H9.41504L9.25781 7.68945ZM10.1533 17L8.96387 7.6416L9.03223 7.04688H9.55859L10.8984 17H10.1533ZM10.3174 13.4863L10.1807 14.2178H5.8125L5.94238 13.4863H10.3174ZM17.4268 9.60352H18.124L16.832 17.1777C16.7637 17.7064 16.6178 18.1826 16.3945 18.6064C16.1712 19.0348 15.8636 19.3698 15.4717 19.6113C15.0798 19.8574 14.5921 19.9714 14.0088 19.9531C13.7536 19.9395 13.5007 19.8916 13.25 19.8096C12.9993 19.7275 12.7669 19.609 12.5527 19.4541C12.3385 19.3037 12.154 19.1191 11.999 18.9004L12.4092 18.374C12.6006 18.6292 12.8285 18.8343 13.0928 18.9893C13.3571 19.1488 13.6579 19.2331 13.9951 19.2422C14.4281 19.2604 14.7881 19.1829 15.0752 19.0098C15.3669 18.8411 15.5924 18.5996 15.752 18.2852C15.916 17.9707 16.0254 17.6152 16.0801 17.2188L17.0918 11.2168L17.4268 9.60352ZM12.5254 13.6504L12.6143 12.9736C12.6735 12.5589 12.7624 12.1419 12.8809 11.7227C12.9993 11.3034 13.168 10.9206 13.3867 10.5742C13.6055 10.2233 13.8835 9.94759 14.2207 9.74707C14.5625 9.54199 14.9795 9.44857 15.4717 9.46679C15.8408 9.48046 16.1484 9.5716 16.3945 9.74022C16.6452 9.90429 16.8457 10.123 16.9961 10.3965C17.151 10.6699 17.2559 10.9707 17.3105 11.2988C17.3698 11.6224 17.3926 11.9414 17.3789 12.2559L17.0371 14.4707C16.9779 14.8125 16.873 15.1452 16.7227 15.4688C16.5768 15.7923 16.3923 16.084 16.1689 16.3438C15.9456 16.599 15.6813 16.8018 15.376 16.9521C15.0706 17.098 14.7288 17.1641 14.3506 17.1504C13.8857 17.1413 13.5212 17.0251 13.2568 16.8018C12.9925 16.5739 12.7988 16.2799 12.6758 15.9199C12.5573 15.5599 12.4935 15.1816 12.4844 14.7852C12.4753 14.3841 12.4889 14.0059 12.5254 13.6504ZM13.3662 12.96L13.291 13.6641C13.2591 13.9284 13.2386 14.2178 13.2295 14.5322C13.2249 14.8467 13.2546 15.1452 13.3184 15.4277C13.3867 15.7103 13.5143 15.945 13.7012 16.1318C13.8926 16.3141 14.1729 16.4098 14.542 16.4189C14.8838 16.4326 15.2028 16.3597 15.499 16.2002C15.7952 16.0361 16.0459 15.8197 16.251 15.5508C16.4561 15.2773 16.6042 14.9811 16.6953 14.6621L17.1055 12.1123C17.1146 11.8708 17.0872 11.6406 17.0234 11.4219C16.9596 11.1986 16.8617 10.9958 16.7295 10.8135C16.6019 10.6312 16.4401 10.4831 16.2441 10.3691C16.0527 10.2552 15.8317 10.196 15.5811 10.1914C15.1891 10.1686 14.861 10.2415 14.5967 10.4102C14.3324 10.5742 14.1182 10.7952 13.9541 11.0732C13.79 11.3467 13.6602 11.6497 13.5645 11.9824C13.4733 12.3105 13.4072 12.6364 13.3662 12.96Z" fill="#131313"/>
</svg>
