<svg width="24" height="24" viewBox="0 0 24 24" fill="none" xmlns="http://www.w3.org/2000/svg">
<path d="M2.68848 17V15.9473L3.41309 15.8447L6.70801 7.04688H8.38281L11.6367 15.8447L12.3613 15.9473V17H9.19629V15.9473L9.90723 15.8174L9.38086 14.252H5.67578L5.13574 15.8174L5.85352 15.9473V17H2.68848ZM6.12695 12.9326H8.93652L7.64453 9.24804L7.55566 8.98145H7.51465L7.41895 9.26171L6.12695 12.9326ZM16.3125 19.9873C15.9479 19.9873 15.5423 19.9372 15.0957 19.8369C14.6536 19.7412 14.264 19.6068 13.9268 19.4336L14.2822 18.1758C14.5739 18.3079 14.8952 18.415 15.2461 18.4971C15.597 18.5791 15.9297 18.6201 16.2441 18.6201C16.8092 18.6201 17.2217 18.4629 17.4814 18.1484C17.7458 17.8385 17.8779 17.3988 17.8779 16.8291V16.248C17.6501 16.5397 17.3789 16.763 17.0645 16.918C16.75 17.0684 16.39 17.1436 15.9844 17.1436C15.3828 17.1436 14.8633 16.9932 14.4258 16.6924C13.9928 16.3916 13.6602 15.9701 13.4277 15.4277C13.1999 14.8854 13.0859 14.2565 13.0859 13.541V13.3975C13.0859 12.609 13.1999 11.9209 13.4277 11.333C13.6602 10.7451 13.9906 10.2871 14.4189 9.95897C14.8519 9.63085 15.3669 9.46679 15.9639 9.46679C16.415 9.46679 16.807 9.56022 17.1396 9.74707C17.4723 9.92936 17.7549 10.1914 17.9873 10.5332L18.1172 9.60352H19.6006V16.8359C19.6006 17.4785 19.4707 18.0345 19.2109 18.5039C18.9512 18.9779 18.5752 19.3424 18.083 19.5977C17.5908 19.8574 17.0007 19.9873 16.3125 19.9873ZM16.4492 15.7832C16.7819 15.7832 17.0645 15.7126 17.2969 15.5713C17.5339 15.43 17.7275 15.2249 17.8779 14.9561V11.6611C17.7275 11.4014 17.5339 11.1986 17.2969 11.0527C17.0599 10.9023 16.7796 10.8271 16.4561 10.8271C16.0778 10.8271 15.7656 10.9365 15.5195 11.1553C15.278 11.3695 15.098 11.6702 14.9795 12.0576C14.8656 12.4404 14.8086 12.887 14.8086 13.3975V13.541C14.8086 14.2246 14.9385 14.7692 15.1982 15.1748C15.4626 15.5804 15.8796 15.7832 16.4492 15.7832ZM19.3682 10.9023L18.6436 9.60352H20.4893V10.6631L19.3682 10.9023Z" fill="#131313"/>
</svg>
