<svg width="24" height="24" viewBox="0 0 24 24" fill="none" xmlns="http://www.w3.org/2000/svg">
<path d="M2.20508 17H4.38574L8.09082 10.123C8.17285 9.97266 8.24121 9.82682 8.2959 9.68555C8.35514 9.53971 8.40983 9.39616 8.45996 9.25488H8.51465C8.51465 9.39616 8.51693 9.53743 8.52148 9.67871C8.52604 9.81999 8.54199 9.9681 8.56934 10.123L9.86816 17H12.4043L10.292 7.00586H7.74219L2.20508 17ZM4.8916 14.9424H10.2236L10.0117 13.2266H5.70508L4.8916 14.9424ZM12.7666 18.9893C13.0583 19.2718 13.457 19.5088 13.9629 19.7002C14.4688 19.8916 15.0452 19.9873 15.6924 19.9873C16.7497 19.9873 17.6862 19.6797 18.502 19.0645C19.3223 18.4492 19.835 17.5674 20.04 16.4189L21.209 9.78125H19.0215L18.8369 10.5742H18.8027C18.7116 10.2962 18.502 10.0729 18.1738 9.9043C17.8503 9.73112 17.4743 9.64453 17.0459 9.64453C16.1117 9.64453 15.2982 9.97266 14.6055 10.6289C13.9173 11.2806 13.4753 12.1647 13.2793 13.2812L13.2383 13.5C13.0423 14.612 13.1745 15.4961 13.6348 16.1523C14.0996 16.804 14.7969 17.1299 15.7266 17.1299C16.1686 17.1299 16.5674 17.0592 16.9229 16.918C17.2829 16.7721 17.5723 16.5625 17.791 16.2891L17.75 16.4941C17.6406 17.1185 17.4128 17.5788 17.0664 17.875C16.7201 18.1758 16.3145 18.3262 15.8496 18.3262C15.3984 18.3262 14.9928 18.251 14.6328 18.1006C14.2773 17.9502 14.0358 17.7998 13.9082 17.6494L12.7666 18.9893ZM15.5488 13.6299L15.6377 13.1514C15.7334 12.5999 15.9271 12.1602 16.2188 11.832C16.515 11.5039 16.891 11.3398 17.3467 11.3398C17.6657 11.3398 17.9209 11.4287 18.1123 11.6064C18.3083 11.7796 18.4313 12.0166 18.4814 12.3174L18.0918 14.5186C17.9596 14.7555 17.766 14.9674 17.5107 15.1543C17.2601 15.3411 16.9798 15.4346 16.6699 15.4346C16.1868 15.4346 15.8542 15.2728 15.6719 14.9492C15.4941 14.6211 15.4531 14.1813 15.5488 13.6299Z" fill="#131313"/>
</svg>
