<svg width="24" height="24" viewBox="0 0 24 24" fill="none" xmlns="http://www.w3.org/2000/svg">
<path d="M4.80941 12.8282H8.70141L8.81341 13.7942H4.68341L4.80941 12.8282ZM6.55941 7.74623L6.86741 8.06823L4.38941 15.7542C4.38941 15.8102 4.43608 15.8615 4.52941 15.9082C4.62275 15.9549 4.74408 15.9922 4.89341 16.0202C5.05208 16.0389 5.22941 16.0482 5.42541 16.0482H5.57941V17.0002H2.37341V16.0482H2.44341C2.68608 16.0482 2.88208 16.0015 3.03141 15.9082C3.19008 15.8055 3.31608 15.6002 3.40941 15.2922L6.09741 6.99023H8.46341L11.2214 15.4042C11.3054 15.6655 11.4221 15.8382 11.5714 15.9222C11.7301 16.0062 11.9261 16.0482 12.1594 16.0482H12.2294V17.0002H7.94541V16.0482H8.12741C8.32341 16.0482 8.49608 16.0435 8.64541 16.0342C8.80408 16.0155 8.93008 15.9969 9.02341 15.9782C9.11675 15.9502 9.16341 15.9222 9.16341 15.8942L6.55941 7.74623ZM21.6814 10.6582C21.2894 10.6022 20.9487 10.5695 20.6594 10.5602C20.37 10.5415 20.1134 10.5415 19.8894 10.5602C19.6747 10.5695 19.4787 10.6069 19.3014 10.6722L19.0354 10.7002C19.166 10.3829 19.3154 10.1122 19.4834 9.88823C19.6514 9.6549 19.838 9.46356 20.0434 9.31423C20.2581 9.1649 20.4961 9.06223 20.7574 9.00623C21.028 8.95023 21.336 8.9409 21.6814 8.97823V10.6582ZM16.8934 14.6202C16.2307 14.6202 15.652 14.5129 15.1574 14.2982C14.6627 14.0835 14.28 13.7802 14.0094 13.3882C13.7387 12.9962 13.6034 12.5295 13.6034 11.9882C13.6034 11.4469 13.7387 10.9755 14.0094 10.5742C14.2894 10.1729 14.6767 9.8649 15.1714 9.65023C15.666 9.42623 16.24 9.31423 16.8934 9.31423C17.5467 9.31423 18.1207 9.42623 18.6154 9.65023C19.11 9.8649 19.4927 10.1729 19.7634 10.5742C20.0434 10.9755 20.1834 11.4469 20.1834 11.9882C20.1834 12.5295 20.0434 12.9962 19.7634 13.3882C19.4927 13.7802 19.11 14.0835 18.6154 14.2982C18.1207 14.5129 17.5467 14.6202 16.8934 14.6202ZM16.8934 13.6822C17.2014 13.6822 17.4534 13.6262 17.6494 13.5142C17.8547 13.3929 18.004 13.2062 18.0974 12.9542C18.2 12.7022 18.2514 12.3849 18.2514 12.0022C18.2514 11.6102 18.2 11.2882 18.0974 11.0362C18.004 10.7749 17.8547 10.5835 17.6494 10.4622C17.4534 10.3409 17.2014 10.2802 16.8934 10.2802C16.5947 10.2802 16.3427 10.3409 16.1374 10.4622C15.9414 10.5835 15.792 10.7749 15.6894 11.0362C15.5867 11.2882 15.5354 11.6102 15.5354 12.0022C15.5354 12.3849 15.582 12.7022 15.6754 12.9542C15.778 13.2062 15.932 13.3929 16.1374 13.5142C16.3427 13.6262 16.5947 13.6822 16.8934 13.6822ZM15.9134 20.4302C15.2694 20.4302 14.714 20.3742 14.2474 20.2622C13.79 20.1502 13.4307 19.9729 13.1694 19.7302C12.9174 19.4875 12.7914 19.1702 12.7914 18.7782C12.7914 18.5075 12.8614 18.2695 13.0014 18.0642C13.1414 17.8682 13.356 17.6909 13.6454 17.5322C13.944 17.3735 14.3314 17.2195 14.8074 17.0702L15.2554 17.3642C15.0407 17.4949 14.868 17.6209 14.7374 17.7422C14.616 17.8729 14.532 18.0035 14.4854 18.1342C14.4387 18.2649 14.4154 18.4095 14.4154 18.5682C14.4154 18.7642 14.4714 18.9275 14.5834 19.0582C14.7047 19.1889 14.8914 19.2869 15.1434 19.3522C15.4047 19.4269 15.75 19.4642 16.1794 19.4642H17.5374C17.9947 19.4642 18.3727 19.4175 18.6714 19.3242C18.97 19.2309 19.194 19.0955 19.3434 18.9182C19.5021 18.7409 19.5814 18.5262 19.5814 18.2742C19.5814 18.0595 19.5114 17.8915 19.3714 17.7702C19.2314 17.6582 18.984 17.6022 18.6294 17.6022H14.8774L14.9334 17.4902C14.5694 17.4062 14.2614 17.2942 14.0094 17.1542C13.7574 17.0235 13.5707 16.8555 13.4494 16.6502C13.3374 16.4355 13.2814 16.1929 13.2814 15.9222C13.2814 15.6329 13.356 15.3715 13.5054 15.1382C13.6547 14.8955 13.8694 14.6762 14.1494 14.4802C14.4387 14.2842 14.784 14.1069 15.1854 13.9482L15.7454 14.2422C15.5494 14.3635 15.3814 14.4802 15.2414 14.5922C15.1107 14.7042 15.0127 14.8162 14.9474 14.9282C14.8914 15.0402 14.8634 15.1569 14.8634 15.2782C14.8634 15.4742 14.938 15.6189 15.0874 15.7122C15.2367 15.7962 15.47 15.8382 15.7874 15.8382H18.7694C19.32 15.8382 19.7821 15.9082 20.1554 16.0482C20.538 16.1882 20.8274 16.4029 21.0234 16.6922C21.2194 16.9815 21.3174 17.3502 21.3174 17.7982C21.3174 18.3862 21.154 18.8762 20.8274 19.2682C20.5101 19.6602 20.0714 19.9495 19.5114 20.1362C18.9514 20.3322 18.3167 20.4302 17.6074 20.4302H15.9134Z" fill="#131313"/>
</svg>
