<svg width="24" height="24" viewBox="0 0 24 24" fill="none" xmlns="http://www.w3.org/2000/svg">
<path d="M8.13672 7.34082L5.1084 17H4.71875L7.89062 7.04688H8.21875L8.13672 7.34082ZM11.0762 17L8.06152 7.34082L7.99316 7.04688H8.30078L11.4727 17H11.0762ZM10.2285 13.6777V14.0195H5.96973V13.6777H10.2285ZM17.0986 9.60352H17.4541V17.2939C17.4541 17.9229 17.363 18.4355 17.1807 18.832C16.9984 19.2285 16.734 19.5179 16.3877 19.7002C16.0413 19.887 15.6221 19.9805 15.1299 19.9805C14.8291 19.9805 14.5443 19.9326 14.2754 19.8369C14.0111 19.7412 13.7718 19.6068 13.5576 19.4336C13.3434 19.265 13.1589 19.0713 13.0039 18.8525L13.2363 18.6338C13.487 18.9528 13.765 19.1989 14.0703 19.3721C14.3802 19.5498 14.7266 19.6387 15.1094 19.6387C15.556 19.6387 15.9251 19.5589 16.2168 19.3994C16.513 19.2445 16.734 18.9938 16.8799 18.6475C17.0257 18.3011 17.0986 17.8477 17.0986 17.2871V11.2305V9.60352ZM12.6211 13.623V12.9668C12.6211 12.3379 12.6735 11.8024 12.7783 11.3604C12.8877 10.9183 13.0449 10.5583 13.25 10.2803C13.4551 9.99772 13.7035 9.79264 13.9951 9.66504C14.2913 9.53288 14.6263 9.46679 15 9.46679C15.3418 9.46679 15.6471 9.52148 15.916 9.63086C16.1895 9.74023 16.4242 9.89289 16.6201 10.0889C16.8206 10.2803 16.9847 10.5059 17.1123 10.7656C17.2445 11.0254 17.3447 11.3057 17.4131 11.6064V15.2295C17.3675 15.4756 17.2809 15.7148 17.1533 15.9473C17.0257 16.1751 16.8617 16.3802 16.6611 16.5625C16.4606 16.7448 16.2191 16.8883 15.9365 16.9932C15.6585 17.098 15.3418 17.1504 14.9863 17.1504C14.6126 17.1504 14.2799 17.082 13.9883 16.9453C13.6966 16.804 13.4482 16.5898 13.2432 16.3027C13.0426 16.0111 12.8877 15.6442 12.7783 15.2021C12.6735 14.7555 12.6211 14.2292 12.6211 13.623ZM12.9902 12.9668V13.623C12.9902 14.1608 13.0312 14.6302 13.1133 15.0312C13.1953 15.4277 13.3184 15.7581 13.4824 16.0225C13.651 16.2822 13.8607 16.4782 14.1113 16.6104C14.3665 16.738 14.665 16.8018 15.0068 16.8018C15.4398 16.8018 15.8044 16.722 16.1006 16.5625C16.4014 16.403 16.6406 16.1911 16.8184 15.9268C17.0007 15.6579 17.1283 15.3617 17.2012 15.0381V11.8867C17.1556 11.6816 17.0872 11.4606 16.9961 11.2236C16.9095 10.9867 16.7842 10.7611 16.6201 10.5469C16.4561 10.3281 16.2419 10.1504 15.9775 10.0137C15.7178 9.87694 15.3942 9.80859 15.0068 9.80859C14.665 9.80859 14.3665 9.87467 14.1113 10.0068C13.8607 10.1344 13.651 10.3281 13.4824 10.5879C13.3184 10.8477 13.1953 11.1758 13.1133 11.5723C13.0312 11.9688 12.9902 12.4336 12.9902 12.9668Z" fill="#131313"/>
</svg>
