<svg width="24" height="24" viewBox="0 0 24 24" fill="none" xmlns="http://www.w3.org/2000/svg">
<path d="M2.48438 17H4.0498L8.04199 9.64453C8.12402 9.49414 8.19694 9.34831 8.26074 9.20703C8.32454 9.0612 8.38379 8.91536 8.43848 8.76953H8.50684C8.51139 8.91536 8.51823 9.05892 8.52734 9.2002C8.54102 9.34147 8.56152 9.48958 8.58887 9.64453L9.96973 17H11.5967L9.55273 6.98535H8.02832L2.48438 17ZM4.71973 14.5391H10.1611L9.94922 13.2949H5.36914L4.71973 14.5391ZM12.0752 18.9551C12.3669 19.2513 12.7497 19.4951 13.2236 19.6865C13.7021 19.8825 14.2445 19.9805 14.8506 19.9805C15.835 19.9805 16.6895 19.7025 17.4141 19.1465C18.1387 18.5905 18.5921 17.793 18.7744 16.7539L19.998 9.80176H18.583L18.3779 10.7041H18.3369C18.2184 10.4124 17.9906 10.1663 17.6533 9.96582C17.3161 9.7653 16.9082 9.66504 16.4297 9.66504C15.5091 9.66504 14.7116 10.0046 14.0371 10.6836C13.3672 11.3581 12.9388 12.2262 12.752 13.2881L12.7109 13.5068C12.5195 14.5732 12.6403 15.446 13.0732 16.125C13.5107 16.7995 14.1898 17.1367 15.1104 17.1367C15.5934 17.1367 16.0241 17.0524 16.4023 16.8838C16.7806 16.7106 17.0973 16.4782 17.3525 16.1865L17.25 16.7676C17.1361 17.4056 16.8786 17.8932 16.4775 18.2305C16.0811 18.5677 15.5934 18.7363 15.0146 18.7363C14.5589 18.7363 14.1624 18.6497 13.8252 18.4766C13.488 18.3034 13.2419 18.112 13.0869 17.9023L12.0752 18.9551ZM14.2627 13.541L14.3174 13.2607C14.4359 12.5771 14.6842 12.0075 15.0625 11.5518C15.4408 11.096 15.9421 10.8682 16.5664 10.8682C16.9902 10.8682 17.3298 10.9844 17.585 11.2168C17.8402 11.4492 18.0042 11.7227 18.0771 12.0371L17.5918 14.7783C17.4141 15.0791 17.1566 15.348 16.8193 15.585C16.4821 15.8174 16.1038 15.9336 15.6846 15.9336C15.0511 15.9336 14.625 15.7057 14.4062 15.25C14.1921 14.7943 14.1442 14.2246 14.2627 13.541Z" fill="#131313"/>
</svg>
