<svg width="24" height="24" viewBox="0 0 24 24" fill="none" xmlns="http://www.w3.org/2000/svg">
<path d="M3.88488 15.0002V14.6922H4.94888L7.65088 7.42616H6.65688V7.11816H9.42888V7.42616H8.40688L11.1089 14.6922H12.1589V15.0002H9.65288V14.6922H10.6609L9.56888 11.7102H6.47488L5.36888 14.6922H6.39088V15.0002H3.88488ZM6.55888 11.4162H9.47088L8.02888 7.46816H8.00088L6.55888 11.4162ZM16.0061 17.5762C15.7168 17.5762 15.4041 17.5435 15.0681 17.4782C14.7415 17.4222 14.4008 17.3475 14.0461 17.2542L14.1161 16.9322C14.4988 17.0442 14.8441 17.1235 15.1521 17.1702C15.4695 17.2262 15.7588 17.2542 16.0201 17.2542C16.7481 17.2542 17.2895 17.0675 17.6441 16.6942C17.9988 16.3302 18.1761 15.8355 18.1761 15.2102V14.1322L18.4421 13.9642C18.1901 14.2815 17.8401 14.5429 17.3921 14.7482C16.9535 14.9442 16.5148 15.0422 16.0761 15.0422C15.5161 15.0422 15.0168 14.9209 14.5781 14.6782C14.1488 14.4355 13.8081 14.0995 13.5561 13.6702C13.3041 13.2409 13.1781 12.7462 13.1781 12.1862C13.1781 11.6262 13.2948 11.1362 13.5281 10.7162C13.7615 10.2869 14.0835 9.95549 14.4941 9.72216C14.9141 9.48883 15.3901 9.37216 15.9221 9.37216C16.3888 9.37216 16.8601 9.47483 17.3361 9.68016C17.8121 9.87616 18.1808 10.1282 18.4421 10.4362L18.1761 10.2682V9.49816H19.5201V9.80616H18.5821V15.1122C18.5821 15.6722 18.4748 16.1342 18.2601 16.4982C18.0548 16.8622 17.7608 17.1329 17.3781 17.3102C16.9955 17.4875 16.5381 17.5762 16.0061 17.5762ZM16.1041 14.7342C16.5148 14.7342 16.9441 14.6315 17.3921 14.4262C17.8401 14.2209 18.1901 13.9549 18.4421 13.6282L18.1761 14.0482V10.3802L18.4701 10.7302C18.1808 10.4222 17.7981 10.1702 17.3221 9.97416C16.8461 9.76883 16.3888 9.66616 15.9501 9.66616C15.4835 9.66616 15.0728 9.77816 14.7181 10.0022C14.3635 10.2169 14.0835 10.5155 13.8781 10.8982C13.6821 11.2809 13.5841 11.7289 13.5841 12.2422C13.5841 12.7369 13.6915 13.1709 13.9061 13.5442C14.1208 13.9175 14.4195 14.2115 14.8021 14.4262C15.1848 14.6315 15.6188 14.7342 16.1041 14.7342Z" fill="#131313"/>
</svg>
