<svg width="24" height="24" viewBox="0 0 24 24" fill="none" xmlns="http://www.w3.org/2000/svg">
<path d="M2.52341 17.0002V15.3342H3.48707L5.79007 9.24191H4.87541V7.55957H11.3761V9.24191H10.4451L12.7807 15.3342H13.7281V17.0002H8.92607V15.3342H9.97141L9.43241 13.6682H6.50874L5.96974 15.3342H6.88441V17.0002H2.52341ZM6.99874 12.1002H8.95874L8.06041 9.24191H7.96241L6.99874 12.1002ZM18.2274 20.1852C17.7047 20.1852 17.2038 20.1362 16.7247 20.0382C16.2565 19.9402 15.7828 19.815 15.3037 19.6625L15.6957 18.1762C16.1204 18.3069 16.4961 18.3994 16.8227 18.4539C17.1494 18.5192 17.4706 18.5519 17.7864 18.5519C18.3199 18.5519 18.7228 18.4158 18.9951 18.1435C19.2673 17.8822 19.4034 17.4956 19.4034 16.9839V16.2489L20.0241 15.9549C19.6647 16.3578 19.2999 16.6572 18.9297 16.8532C18.5595 17.0383 18.1022 17.1309 17.5577 17.1309C16.9153 17.1309 16.3599 16.9948 15.8917 16.7225C15.4235 16.4394 15.0642 16.0474 14.8137 15.5465C14.5633 15.0348 14.4381 14.4304 14.4381 13.7335C14.4381 13.0366 14.5633 12.4323 14.8137 11.9205C15.0642 11.4088 15.4181 11.0113 15.8754 10.7282C16.3436 10.4451 16.8989 10.3035 17.5414 10.3035C18.0641 10.3035 18.5214 10.4179 18.9134 10.6465C19.3163 10.8752 19.6266 11.142 19.8444 11.4469L19.5177 11.5775L19.5341 10.4669H22.6211V11.8879H21.8207V16.6572C21.8207 17.4412 21.6737 18.0945 21.3797 18.6172C21.0857 19.1399 20.6719 19.5319 20.1384 19.7932C19.6048 20.0545 18.9678 20.1852 18.2274 20.1852ZM18.3581 15.3995C18.6412 15.3995 18.9079 15.3451 19.1584 15.2362C19.4197 15.1164 19.6593 14.9476 19.8771 14.7299L19.4034 15.7262L19.3871 11.8389L19.7954 12.7862C19.5885 12.5466 19.3544 12.3615 19.0931 12.2309C18.8426 12.1002 18.5867 12.0349 18.3254 12.0349C18.0532 12.0349 17.8136 12.1002 17.6067 12.2309C17.3998 12.3506 17.2365 12.5412 17.1167 12.8025C16.9969 13.053 16.9371 13.3688 16.9371 13.7499C16.9371 14.0874 16.9969 14.3814 17.1167 14.6319C17.2474 14.8714 17.4162 15.062 17.6231 15.2035C17.8299 15.3342 18.0749 15.3995 18.3581 15.3995Z" fill="#131313"/>
</svg>
