<svg width="24" height="24" viewBox="0 0 24 24" fill="none" xmlns="http://www.w3.org/2000/svg">
<path d="M9.46566 6.83008L12.2797 16.0001H10.9917L10.3897 13.8721H7.01566L6.41366 16.0001H5.19566L7.99566 6.83008H9.46566ZM8.70966 7.92208L7.30966 12.8081H10.0957L8.70966 7.92208ZM15.5481 9.00008C15.9588 9.00008 16.3321 9.06075 16.6681 9.18208L18.8521 9.15408V10.2041L17.7041 10.1761C17.8628 10.5121 17.9421 10.8621 17.9421 11.2261V11.5341C17.9421 12.2154 17.7321 12.7661 17.3121 13.1861C16.8921 13.5968 16.3041 13.8021 15.5481 13.8021C15.0628 13.8021 14.6661 13.7554 14.3581 13.6621C14.1528 13.8301 14.0501 14.0214 14.0501 14.2361V14.3201C14.0501 14.4694 14.0968 14.5814 14.1901 14.6561C14.2835 14.7214 14.4655 14.7634 14.7361 14.7821L16.8221 14.9361C17.2515 14.9734 17.5968 15.1368 17.8581 15.4261C18.1288 15.7061 18.2641 16.0608 18.2641 16.4901V17.0081C18.2641 17.4094 18.1848 17.7361 18.0261 17.9881C17.8675 18.2401 17.5735 18.4314 17.1441 18.5621C16.7241 18.6928 16.1175 18.7581 15.3241 18.7581C15.0255 18.7581 14.6708 18.7254 14.2601 18.6601C13.8588 18.5948 13.4761 18.5108 13.1121 18.4081L13.1541 17.3021C14.0221 17.5914 14.7595 17.7361 15.3661 17.7361C15.8701 17.7361 16.2435 17.7034 16.4861 17.6381C16.7381 17.5821 16.9015 17.4934 16.9761 17.3721C17.0601 17.2508 17.1021 17.0688 17.1021 16.8261V16.7141C17.1021 16.4994 17.0415 16.3314 16.9201 16.2101C16.8081 16.0888 16.6448 16.0234 16.4301 16.0141L14.3301 15.8741C13.8821 15.8461 13.5415 15.7201 13.3081 15.4961C13.0748 15.2721 12.9581 14.9688 12.9581 14.5861V14.3061C12.9581 14.1008 13.0095 13.9001 13.1121 13.7041C13.2241 13.5081 13.3828 13.3354 13.5881 13.1861C13.4295 13.0088 13.3128 12.7848 13.2381 12.5141C13.1728 12.2341 13.1401 11.8934 13.1401 11.4921V11.1841C13.1401 10.5214 13.3455 9.99408 13.7561 9.60208C14.1668 9.20075 14.7641 9.00008 15.5481 9.00008ZM15.5481 9.99408C15.1561 9.99408 14.8528 10.0968 14.6381 10.3021C14.4328 10.4981 14.3301 10.7828 14.3301 11.1561V11.6181C14.3301 11.9634 14.3581 12.2201 14.4141 12.3881C14.4795 12.5468 14.5915 12.6588 14.7501 12.7241C14.9088 12.7801 15.1468 12.8081 15.4641 12.8081C15.8935 12.8081 16.2155 12.7054 16.4301 12.5001C16.6448 12.2948 16.7521 12.0008 16.7521 11.6181V11.1981C16.7521 10.8061 16.6961 10.4654 16.5841 10.1761C16.4721 10.1294 16.3181 10.0874 16.1221 10.0501C15.9355 10.0128 15.7441 9.99408 15.5481 9.99408Z" fill="#131313"/>
</svg>
