<svg width="24" height="24" viewBox="0 0 24 24" fill="none" xmlns="http://www.w3.org/2000/svg">
<path d="M9.35805 6.78027L12.928 17.0003H11.22L10.114 13.7383H6.89405L5.77405 17.0003H4.40205L7.98605 6.78027H9.35805ZM8.51805 8.79627L7.27205 12.6043H9.73605L8.51805 8.79627ZM16.1461 9.86027C16.4261 9.86027 16.6827 9.89294 16.9161 9.95827C17.1587 10.0236 17.4107 10.0563 17.6721 10.0563C18.0454 10.0563 18.4281 10.0376 18.8201 10.0003C19.2121 9.96294 19.6087 9.92094 20.0101 9.87427L19.7301 10.9383H18.5821C18.5261 10.9383 18.4654 10.9336 18.4001 10.9243C18.3347 10.915 18.2741 10.9056 18.2181 10.8963C18.3674 11.1016 18.4794 11.3163 18.5541 11.5403C18.6381 11.755 18.6801 11.9836 18.6801 12.2263C18.6801 12.7023 18.5681 13.127 18.3441 13.5003C18.1201 13.8643 17.8074 14.149 17.4061 14.3543C17.0047 14.5596 16.5381 14.6623 16.0061 14.6623C15.8007 14.6623 15.6187 14.723 15.4601 14.8443C15.3014 14.9656 15.2221 15.1383 15.2221 15.3623C15.2221 15.5116 15.2687 15.6236 15.3621 15.6983C15.4647 15.7636 15.5907 15.8056 15.7401 15.8243C15.8894 15.8336 16.0434 15.8383 16.2021 15.8383H17.2521C17.5134 15.8383 17.7794 15.8523 18.0501 15.8803C18.3301 15.9083 18.5821 15.9736 18.8061 16.0763C19.0301 16.179 19.2121 16.333 19.3521 16.5383C19.5014 16.7343 19.5761 17.005 19.5761 17.3503C19.5761 17.8543 19.4641 18.2883 19.2401 18.6523C19.0254 19.0163 18.7407 19.315 18.3861 19.5483C18.0314 19.7816 17.6347 19.9496 17.1961 20.0523C16.7574 20.1643 16.3187 20.2203 15.8801 20.2203C15.6094 20.2203 15.3201 20.1923 15.0121 20.1363C14.7134 20.0803 14.4287 19.987 14.1581 19.8563C13.8874 19.7256 13.6681 19.5483 13.5001 19.3243C13.3321 19.1003 13.2481 18.811 13.2481 18.4563C13.2481 18.083 13.3647 17.7516 13.5981 17.4623C13.8314 17.173 14.0974 16.9396 14.3961 16.7623V16.7203C14.2094 16.6363 14.0554 16.5056 13.9341 16.3283C13.8127 16.1416 13.7521 15.9456 13.7521 15.7403C13.7521 15.6283 13.7987 15.521 13.8921 15.4183C13.9947 15.3156 14.1207 15.1803 14.2701 15.0123C14.4194 14.835 14.5827 14.5923 14.7601 14.2843C14.4054 14.0696 14.1254 13.7896 13.9201 13.4443C13.7147 13.0896 13.6121 12.6976 13.6121 12.2683C13.6121 11.8016 13.7241 11.3863 13.9481 11.0223C14.1814 10.6583 14.4941 10.3736 14.8861 10.1683C15.2781 9.96294 15.6981 9.86027 16.1461 9.86027ZM16.1461 10.7843C15.9407 10.7843 15.7541 10.8543 15.5861 10.9943C15.4181 11.125 15.2874 11.3023 15.1941 11.5263C15.1007 11.7503 15.0541 12.0023 15.0541 12.2823C15.0541 12.5623 15.1007 12.8143 15.1941 13.0383C15.2874 13.2623 15.4134 13.4443 15.5721 13.5843C15.7401 13.715 15.9314 13.7803 16.1461 13.7803C16.4821 13.7803 16.7481 13.6403 16.9441 13.3603C17.1494 13.0803 17.2521 12.7256 17.2521 12.2963C17.2521 12.007 17.2007 11.7503 17.0981 11.5263C17.0047 11.3023 16.8741 11.125 16.7061 10.9943C16.5474 10.8543 16.3607 10.7843 16.1461 10.7843ZM15.3621 17.0143C15.1847 17.1263 15.0214 17.2943 14.8721 17.5183C14.7321 17.7423 14.6621 17.9663 14.6621 18.1903C14.6621 18.405 14.7414 18.587 14.9001 18.7363C15.0587 18.8856 15.2454 18.993 15.4601 19.0583C15.6841 19.1236 15.8941 19.1563 16.0901 19.1563C16.3234 19.1563 16.5661 19.133 16.8181 19.0863C17.0794 19.049 17.3174 18.9743 17.5321 18.8623C17.7561 18.7596 17.9334 18.615 18.0641 18.4283C18.2041 18.2416 18.2741 18.013 18.2741 17.7423C18.2741 17.509 18.1994 17.341 18.0501 17.2383C17.9007 17.1356 17.7141 17.0703 17.4901 17.0423C17.2754 17.0236 17.0701 17.0143 16.8741 17.0143H15.3621Z" fill="#131313"/>
</svg>
