<svg width="24" height="24" viewBox="0 0 24 24" fill="none" xmlns="http://www.w3.org/2000/svg">
<path d="M14.7655 6.83887C14.8253 6.83887 14.8701 6.85754 14.8999 6.89487C14.9298 6.9322 14.9485 6.98447 14.9559 7.05167C14.1794 7.05167 13.4999 7.4362 12.9175 8.20527C13.3058 8.34714 13.6829 8.45914 14.0487 8.54127C14.4519 8.0186 14.8215 7.75727 15.1575 7.75727C15.2322 7.75727 15.2957 7.77967 15.3479 7.82447C15.4002 7.8618 15.4375 7.92154 15.4599 8.00367C15.1687 8.00367 14.8663 8.209 14.5527 8.61967C14.605 8.62714 14.6834 8.63087 14.7879 8.63087C15.5271 8.63087 16.0461 8.4106 16.3447 7.97007C16.4717 7.79834 16.5351 7.65274 16.5351 7.53327C16.5351 7.19727 16.3858 7.02927 16.0871 7.02927C16.1543 6.92474 16.2626 6.87247 16.4119 6.87247C16.7031 6.87247 16.8935 7.01807 16.9831 7.30927C17.0055 7.39887 17.0167 7.48474 17.0167 7.56687C17.0167 7.81327 16.9122 8.05594 16.7031 8.29487C16.3373 8.69807 15.7735 8.89967 15.0119 8.89967C14.7879 8.89967 14.5863 8.88474 14.4071 8.85487C13.9069 9.6538 13.5037 10.7888 13.1975 12.2597C12.981 13.2826 12.8727 14.1413 12.8727 14.8357C12.8727 15.1344 12.8914 15.4032 12.9287 15.6421C13.3543 15.3136 13.7613 14.8992 14.1495 14.3989C14.5378 13.8986 14.8178 13.4805 14.9895 13.1445L15.2471 12.6405H15.5495C15.4898 12.7973 15.3591 13.0474 15.1575 13.3909C14.9634 13.7269 14.773 14.0256 14.5863 14.2869C14.4071 14.5408 14.1719 14.8245 13.8807 15.1381C13.5895 15.4517 13.2946 15.7168 12.9959 15.9333C13.093 16.217 13.2311 16.3589 13.4103 16.3589C13.3357 16.5082 13.2274 16.5829 13.0855 16.5829C12.8466 16.5829 12.6487 16.4709 12.4919 16.2469C11.9543 16.5232 11.4317 16.6613 10.9239 16.6613C10.1847 16.6613 9.54632 16.4672 9.00872 16.0789C8.22472 16.9749 7.28019 17.4229 6.17512 17.4229C5.07006 17.4229 4.26739 17.0309 3.76712 16.2469C3.49086 15.8064 3.35272 15.3322 3.35272 14.8245C3.35272 14.6154 3.37512 14.4026 3.41992 14.1861C3.57672 13.4618 3.93139 12.9466 4.48392 12.6405C4.77512 12.4762 5.09992 12.3941 5.45832 12.3941C6.22739 12.3941 6.74632 12.6928 7.01512 13.2901C7.12712 13.5365 7.18312 13.7904 7.18312 14.0517C7.18312 14.3056 7.13086 14.5632 7.02632 14.8245C6.77246 15.4517 6.35806 15.7653 5.78312 15.7653C5.69352 15.7653 5.61886 15.7466 5.55912 15.7093C5.49939 15.6645 5.45459 15.601 5.42472 15.5189C5.62632 15.5189 5.81672 15.4666 5.99592 15.3621C6.29459 15.1829 6.52979 14.8581 6.70152 14.3877C6.74632 14.2309 6.76872 14.104 6.76872 14.0069C6.76872 13.9024 6.76126 13.7866 6.74632 13.6597C6.73139 13.5253 6.68286 13.3722 6.60072 13.2005C6.51859 13.0288 6.37672 12.8906 6.17512 12.7861C5.97352 12.6816 5.73459 12.6293 5.45832 12.6293C4.74899 12.6293 4.22632 12.9429 3.89032 13.5701C3.69619 13.9285 3.59912 14.2682 3.59912 14.5893C3.59912 14.9104 3.63272 15.1978 3.69992 15.4517C3.89406 16.161 4.30099 16.6501 4.92072 16.9189C5.21192 17.0458 5.53299 17.1093 5.88392 17.1093C6.89192 17.1093 7.80285 16.6538 8.61672 15.7429C8.25832 15.3621 8.01192 14.9029 7.87752 14.3653C7.79539 14.0517 7.75432 13.7717 7.75432 13.5253C7.75432 12.7488 7.97832 12.1328 8.42632 11.6773C8.75486 11.3488 9.15432 11.1845 9.62472 11.1845C10.1026 11.1845 10.5319 11.3002 10.9127 11.5317C11.5773 9.98607 12.1149 8.9146 12.5255 8.31727C12.4733 8.30234 12.2791 8.2314 11.9431 8.10447C11.6146 7.97754 11.4055 7.89914 11.3159 7.86927L10.7783 7.69007C10.1511 7.481 9.59859 7.37647 9.12072 7.37647C8.15006 7.37647 7.43326 7.74234 6.97032 8.47407C6.70152 8.88474 6.56712 9.31034 6.56712 9.75087C6.56712 9.8778 6.58206 10.0085 6.61192 10.1429C6.69406 10.6282 6.91059 10.9194 7.26152 11.0165C7.32872 11.0389 7.39966 11.0501 7.47432 11.0501C7.42952 11.2144 7.30632 11.2965 7.10472 11.2965C6.64926 11.2965 6.32819 11.0538 6.14152 10.5685C6.05192 10.337 6.00712 10.0794 6.00712 9.79567C6.00712 9.51194 6.08179 9.1946 6.23112 8.84367C6.54472 8.08954 7.09726 7.57434 7.88872 7.29807C8.26206 7.17114 8.60926 7.10767 8.93032 7.10767C9.25886 7.10767 9.52765 7.12634 9.73672 7.16367C9.95325 7.19354 10.2109 7.257 10.5095 7.35407C10.8082 7.44367 11.0247 7.51087 11.1591 7.55567C11.301 7.60047 11.5698 7.70127 11.9655 7.85807C12.3687 8.0074 12.6002 8.09327 12.6599 8.11567C13.3021 7.26447 14.0039 6.83887 14.7655 6.83887ZM12.3575 16.0117C12.2306 15.713 12.1671 15.3509 12.1671 14.9253C12.1671 14.4922 12.0775 13.9957 11.8983 13.4357C11.7191 12.8682 11.4578 12.4053 11.1143 12.0469C10.4349 13.8389 9.80019 15.1082 9.21032 15.8549C9.67326 16.2208 10.2407 16.4037 10.9127 16.4037C11.3906 16.4037 11.8722 16.273 12.3575 16.0117ZM10.8007 11.7781C10.517 11.5765 10.1847 11.4757 9.80392 11.4757C9.43059 11.4757 9.09832 11.6176 8.80712 11.9013C8.38899 12.3269 8.17992 12.8832 8.17992 13.5701C8.17992 14.3317 8.39272 14.9701 8.81832 15.4853C9.29619 14.873 9.75539 14.0928 10.1959 13.1445C10.3527 12.7936 10.5543 12.3381 10.8007 11.7781ZM12.2567 13.5589C12.3762 12.6778 12.5853 11.8005 12.8839 10.9269C13.1826 10.0458 13.5223 9.32154 13.9031 8.75407C13.5895 8.6794 13.2125 8.56367 12.7719 8.40687C12.421 8.92954 12.0701 9.6202 11.7191 10.4789C11.6146 10.7477 11.4503 11.177 11.2263 11.7669C11.6893 12.1776 12.0327 12.7749 12.2567 13.5589ZM18.234 11.9125C18.4207 11.9125 18.514 12.0693 18.514 12.3829C18.514 12.6069 18.3908 13.2565 18.1444 14.3317C17.898 15.3994 17.6778 16.2842 17.4836 16.9861C17.2895 17.688 17.1066 18.2069 16.9348 18.5429C16.7631 18.8864 16.554 19.2298 16.3076 19.5733C16.0687 19.9168 15.8036 20.152 15.5124 20.2789C15.2212 20.4058 14.8852 20.4693 14.5044 20.4693C13.7951 20.4693 13.4404 20.1072 13.4404 19.3829C13.4404 18.9573 13.601 18.4981 13.922 18.0053C14.385 17.281 15.0047 16.8032 15.7812 16.5717C16.0575 16.4896 16.345 16.4485 16.6436 16.4485C16.6959 16.4485 16.722 16.5008 16.722 16.6053C16.722 16.7098 16.6959 16.7621 16.6436 16.7621C15.7626 16.7621 15.0234 17.1093 14.426 17.8037C13.9855 18.3264 13.7652 18.8304 13.7652 19.3157C13.7652 19.801 13.9519 20.081 14.3252 20.1557L14.5044 20.1669C15.1167 20.1669 15.602 19.913 15.9604 19.4053C16.3263 18.8901 16.6138 18.2405 16.8228 17.4565C17.0319 16.665 17.3007 15.4256 17.6292 13.7381H17.5396C16.7332 15.2538 16.0687 16.0117 15.546 16.0117C14.9562 16.0117 14.6612 15.5674 14.6612 14.6789C14.6612 14.1637 14.7956 13.6 15.0644 12.9877C15.4378 12.1589 15.9119 11.6176 16.4868 11.3637C16.6884 11.2816 16.89 11.2405 17.0916 11.2405C17.3007 11.2405 17.465 11.3002 17.5844 11.4197C17.7039 11.5392 17.7636 11.6736 17.7636 11.8229C17.7636 11.8901 17.7263 11.9237 17.6516 11.9237C17.5844 11.9162 17.5508 11.8789 17.5508 11.8117C17.5508 11.7445 17.5135 11.6848 17.4388 11.6325C17.3716 11.5728 17.2708 11.5429 17.1364 11.5429C16.666 11.5429 16.2404 11.9648 15.8596 12.8085C15.5012 13.5925 15.322 14.3354 15.322 15.0373C15.322 15.4704 15.4154 15.6869 15.602 15.6869C15.8484 15.6869 16.1695 15.3957 16.5652 14.8133C17.1626 13.9322 17.6292 13.0698 17.9652 12.2261C18.0548 12.017 18.1444 11.9125 18.234 11.9125Z" fill="#131313"/>
</svg>
