<svg width="24" height="24" viewBox="0 0 24 24" fill="none" xmlns="http://www.w3.org/2000/svg">
<path d="M11.9948 15.7203V16.0003H8.31281V15.7203H9.13881L8.20081 13.7743H5.37281L4.56081 15.7203H5.66681V16.0003H3.27281V15.7203H4.21081L7.41681 8.02034H7.76681L11.3228 15.7203H11.9948ZM5.49881 13.4803H8.06081L6.68881 10.6243L5.49881 13.4803ZM14.3969 14.6983C14.3969 14.9596 14.5649 15.109 14.9009 15.1463H17.3089C18.1396 15.1463 18.7182 15.3236 19.0449 15.6783C19.3716 16.033 19.4836 16.4716 19.3809 16.9943C19.2876 17.517 18.9702 17.9976 18.4289 18.4363C17.8876 18.875 17.1409 19.0943 16.1889 19.0943C14.4436 19.0943 13.3236 18.8376 12.8289 18.3243C12.6422 18.119 12.5629 17.8763 12.5909 17.5963C12.6189 17.3256 12.7216 17.1016 12.8989 16.9243C13.0762 16.7563 13.2769 16.6396 13.5009 16.5743C13.2022 16.3223 13.0529 16.0096 13.0529 15.6363C13.0529 15.263 13.1649 14.9316 13.3889 14.6423C13.6222 14.3436 13.8882 14.1056 14.1869 13.9283C13.1136 13.5363 12.5769 12.8316 12.5769 11.8143C12.5769 11.0583 12.9222 10.475 13.6129 10.0643C14.3129 9.64434 15.1016 9.43434 15.9789 9.43434C16.3989 9.43434 16.8189 9.49967 17.2389 9.63034C17.0242 9.34101 16.9169 8.99567 16.9169 8.59434C16.9169 8.19301 17.0522 7.86167 17.3229 7.60034C17.6029 7.32967 17.9482 7.19434 18.3589 7.19434C18.7789 7.19434 19.0916 7.30634 19.2969 7.53034C19.5116 7.74501 19.6189 7.98767 19.6189 8.25834C19.6189 8.52901 19.5349 8.75767 19.3669 8.94434C19.2082 9.13101 18.9936 9.22434 18.7229 9.22434C18.4616 9.22434 18.2516 9.13567 18.0929 8.95834C17.9342 8.78101 17.8549 8.60367 17.8549 8.42634C17.8549 8.23967 17.8876 8.08101 17.9529 7.95034C18.0276 7.81034 18.0649 7.73101 18.0649 7.71234C18.0369 7.56301 17.9436 7.52101 17.7849 7.58634C17.6262 7.65167 17.4862 7.78701 17.3649 7.99234C17.2529 8.18834 17.1969 8.41701 17.1969 8.67834C17.1969 9.19167 17.4256 9.60234 17.8829 9.91034C18.6856 10.3583 19.0869 10.979 19.0869 11.7723C19.0869 12.5656 18.7556 13.1676 18.0929 13.5783C17.4302 13.9796 16.6462 14.1803 15.7409 14.1803C15.3022 14.1803 14.9149 14.1336 14.5789 14.0403C14.4576 14.2456 14.3969 14.465 14.3969 14.6983ZM16.9869 11.7863C16.9869 10.9836 16.8936 10.4376 16.7069 10.1483C16.5202 9.85901 16.2402 9.71434 15.8669 9.71434C15.5029 9.71434 15.2369 9.86367 15.0689 10.1623C14.9009 10.4516 14.8169 10.9883 14.8169 11.7723C14.8169 12.5563 14.9056 13.107 15.0829 13.4243C15.2602 13.7416 15.5262 13.9003 15.8809 13.9003C16.2449 13.9003 16.5202 13.7463 16.7069 13.4383C16.8936 13.1303 16.9869 12.5796 16.9869 11.7863ZM17.2249 16.9663H14.8729C14.4249 16.9663 14.0469 16.887 13.7389 16.7283C13.6082 17.4003 13.7762 17.9136 14.2429 18.2683C14.7189 18.6323 15.3676 18.8143 16.1889 18.8143C17.0102 18.8143 17.6916 18.609 18.2329 18.1983C18.4849 18.0116 18.6249 17.825 18.6529 17.6383C18.6809 17.4516 18.5736 17.293 18.3309 17.1623C18.0882 17.0316 17.7196 16.9663 17.2249 16.9663Z" fill="#131313"/>
</svg>
