<svg width="24" height="24" viewBox="0 0 24 24" fill="none" xmlns="http://www.w3.org/2000/svg">
<path d="M4.14453 16.0002L6.80453 6.24219H8.82053L11.4805 16.0002H9.96853L9.21253 13.0182L9.99653 13.5362H5.65653L6.41253 13.0182L5.67053 16.0002H4.14453ZM6.42653 12.9342L5.92253 12.2622H9.71653L9.21253 12.9342L7.70053 6.92819L8.52653 7.57219H7.11253L7.92453 6.92819L6.42653 12.9342ZM15.017 18.5062C14.625 18.5062 14.2563 18.4829 13.911 18.4362C13.5656 18.3989 13.2576 18.3522 12.987 18.2962C12.7256 18.2495 12.5156 18.2029 12.357 18.1562C12.2076 18.1189 12.133 18.1002 12.133 18.1002L12.301 16.8682C12.8703 16.9615 13.4443 17.0455 14.023 17.1202C14.611 17.1949 15.1756 17.2322 15.717 17.2322C16.1743 17.2322 16.4823 17.1995 16.641 17.1342C16.7996 17.0689 16.879 16.9615 16.879 16.8122C16.879 16.7282 16.8556 16.6489 16.809 16.5742C16.7623 16.5089 16.6736 16.4342 16.543 16.3502C16.4216 16.2755 16.2303 16.1775 15.969 16.0562C15.7076 15.9442 15.3576 15.8042 14.919 15.6362C14.4243 15.4402 14.065 15.2955 13.841 15.2022C13.6263 15.1089 13.491 15.0435 13.435 15.0062C13.379 14.9689 13.351 14.9362 13.351 14.9082C13.351 14.8802 13.3743 14.8009 13.421 14.6702C13.477 14.5302 13.5423 14.3762 13.617 14.2082C13.6916 14.0309 13.7616 13.8582 13.827 13.6902C13.8923 13.5222 13.9483 13.3915 13.995 13.2982C13.3696 13.1489 12.8703 12.8409 12.497 12.3742C12.1236 11.9075 11.937 11.3289 11.937 10.6382C11.937 9.87286 12.0956 9.27552 12.413 8.84619C12.7303 8.41686 13.1456 8.10886 13.659 7.92219C14.1816 7.73552 14.7463 7.64219 15.353 7.64219C15.5396 7.64219 15.7683 7.64686 16.039 7.65619C16.3096 7.66552 16.585 7.67952 16.865 7.69819C17.145 7.71686 17.4063 7.73552 17.649 7.75419C17.901 7.77286 18.1016 7.78686 18.251 7.79619C18.4096 7.80552 18.489 7.81019 18.489 7.81019V8.70619L17.579 8.84619C17.579 8.84619 17.6163 8.93952 17.691 9.12619C17.7656 9.30352 17.8356 9.53219 17.901 9.81219C17.9756 10.0922 18.013 10.3675 18.013 10.6382C18.013 11.1702 17.887 11.6462 17.635 12.0662C17.3923 12.4862 17.0376 12.8175 16.571 13.0602C16.1043 13.3029 15.5396 13.4242 14.877 13.4242C14.8583 13.5269 14.835 13.6622 14.807 13.8302C14.779 13.9982 14.765 14.0962 14.765 14.1242C14.765 14.1522 14.8023 14.1849 14.877 14.2222C14.9516 14.2595 15.087 14.3155 15.283 14.3902C15.479 14.4555 15.745 14.5629 16.081 14.7122C16.641 14.9362 17.075 15.1555 17.383 15.3702C17.691 15.5849 17.9056 15.7949 18.027 16.0002C18.1483 16.2149 18.209 16.4342 18.209 16.6582C18.209 17.0502 18.0736 17.3815 17.803 17.6522C17.5323 17.9322 17.1543 18.1422 16.669 18.2822C16.193 18.4315 15.6423 18.5062 15.017 18.5062ZM14.975 12.2482C15.3856 12.2482 15.7123 12.2015 15.955 12.1082C16.1976 12.0055 16.3703 11.8329 16.473 11.5902C16.585 11.3382 16.641 10.9882 16.641 10.5402C16.641 10.0735 16.613 9.69552 16.557 9.40619C16.501 9.11686 16.445 8.95352 16.389 8.91619C16.361 8.89752 16.2863 8.88352 16.165 8.87419C16.0436 8.85552 15.9083 8.84619 15.759 8.84619C15.6096 8.83686 15.4743 8.83219 15.353 8.83219C15.2316 8.82286 15.157 8.81819 15.129 8.81819C14.6996 8.81819 14.3496 8.86486 14.079 8.95819C13.8176 9.04219 13.6263 9.21019 13.505 9.46219C13.393 9.70486 13.337 10.0735 13.337 10.5682C13.337 11.2215 13.4583 11.6649 13.701 11.8982C13.953 12.1315 14.3776 12.2482 14.975 12.2482Z" fill="#131313"/>
</svg>
