<svg width="24" height="24" viewBox="0 0 24 24" fill="none" xmlns="http://www.w3.org/2000/svg">
<path d="M4.48113 15.9995L7.12713 6.26953H8.77913L11.4251 15.9995H10.2211L9.47913 13.0875L10.0671 13.4235H5.86713L6.42713 13.0875L5.68513 15.9995H4.48113ZM6.45513 12.9335L6.06313 12.3875H9.84313L9.45113 12.9335L7.86913 6.78753L8.52713 7.30553H7.37913L8.03713 6.78753L6.45513 12.9335ZM14.8301 18.5055C14.4568 18.5055 14.1068 18.4868 13.7801 18.4495C13.4534 18.4122 13.1688 18.3655 12.9261 18.3095C12.6834 18.2628 12.4921 18.2208 12.3521 18.1835C12.2121 18.1462 12.1421 18.1275 12.1421 18.1275L12.2821 17.0775C12.8048 17.1708 13.3414 17.2502 13.8921 17.3155C14.4428 17.3902 14.9748 17.4275 15.4881 17.4275C16.0108 17.4275 16.3608 17.3855 16.5381 17.3015C16.7154 17.2175 16.8041 17.0868 16.8041 16.9095C16.8041 16.8068 16.7808 16.7135 16.7341 16.6295C16.6874 16.5455 16.6034 16.4568 16.4821 16.3635C16.3608 16.2795 16.1834 16.1815 15.9501 16.0695C15.7168 15.9575 15.4088 15.8222 15.0261 15.6635C14.4941 15.4395 14.1068 15.2808 13.8641 15.1875C13.6308 15.0848 13.4814 15.0195 13.4161 14.9915C13.3601 14.9542 13.3321 14.9215 13.3321 14.8935C13.3321 14.8842 13.3554 14.8235 13.4021 14.7115C13.4488 14.5902 13.5094 14.4455 13.5841 14.2775C13.6588 14.1095 13.7334 13.9368 13.8081 13.7595C13.8828 13.5728 13.9481 13.4142 14.0041 13.2835C13.3881 13.1622 12.8888 12.8635 12.5061 12.3875C12.1328 11.9115 11.9461 11.3328 11.9461 10.6515C11.9461 9.8862 12.0954 9.28886 12.3941 8.85953C12.6928 8.4302 13.0848 8.12686 13.5701 7.94953C14.0648 7.76286 14.5968 7.66953 15.1661 7.66953C15.3528 7.66953 15.5721 7.6742 15.8241 7.68353C16.0854 7.69286 16.3468 7.70686 16.6081 7.72553C16.8788 7.7442 17.1261 7.76286 17.3501 7.78153C17.5834 7.8002 17.7701 7.8142 17.9101 7.82353C18.0501 7.83286 18.1201 7.83753 18.1201 7.83753V8.57953L17.1961 8.71953C17.1961 8.7102 17.2334 8.8082 17.3081 9.01353C17.3921 9.20953 17.4714 9.45686 17.5461 9.75553C17.6301 10.0448 17.6721 10.3295 17.6721 10.6095C17.6721 11.1415 17.5554 11.6175 17.3221 12.0375C17.0888 12.4482 16.7528 12.7748 16.3141 13.0175C15.8754 13.2508 15.3481 13.3675 14.7321 13.3675C14.7041 13.5168 14.6714 13.6942 14.6341 13.8995C14.5968 14.0955 14.5781 14.2122 14.5781 14.2495C14.5781 14.2682 14.6061 14.2962 14.6621 14.3335C14.7274 14.3615 14.8488 14.4128 15.0261 14.4875C15.2128 14.5528 15.4834 14.6648 15.8381 14.8235C16.3794 15.0475 16.7948 15.2668 17.0841 15.4815C17.3734 15.6962 17.5741 15.9062 17.6861 16.1115C17.7981 16.3168 17.8541 16.5222 17.8541 16.7275C17.8541 17.1008 17.7234 17.4182 17.4621 17.6795C17.2101 17.9502 16.8554 18.1555 16.3981 18.2955C15.9501 18.4355 15.4274 18.5055 14.8301 18.5055ZM14.8021 12.3595C15.2221 12.3595 15.5581 12.3082 15.8101 12.2055C16.0714 12.1028 16.2581 11.9255 16.3701 11.6735C16.4914 11.4122 16.5521 11.0482 16.5521 10.5815C16.5521 10.0495 16.5194 9.62486 16.4541 9.30753C16.3888 8.98086 16.3281 8.80353 16.2721 8.77553C16.2534 8.75686 16.1741 8.74286 16.0341 8.73353C15.8941 8.71486 15.7401 8.70553 15.5721 8.70553C15.4041 8.6962 15.2548 8.69153 15.1241 8.69153C15.0028 8.6822 14.9421 8.67753 14.9421 8.67753C14.5034 8.67753 14.1441 8.72886 13.8641 8.83153C13.5934 8.9342 13.3928 9.12086 13.2621 9.39153C13.1408 9.6622 13.0801 10.0588 13.0801 10.5815C13.0801 11.2722 13.2108 11.7435 13.4721 11.9955C13.7428 12.2382 14.1861 12.3595 14.8021 12.3595Z" fill="#131313"/>
</svg>
