<svg width="24" height="24" viewBox="0 0 24 24" fill="none" xmlns="http://www.w3.org/2000/svg">
<path d="M11.3278 15.4181C11.4398 15.7634 11.5891 16.0061 11.7758 16.1461C11.9624 16.2861 12.2611 16.3748 12.6718 16.4121L12.6998 16.4681L12.6018 17.0421C12.4898 17.0421 12.2844 17.0328 11.9858 17.0141C11.6964 17.0048 11.4071 17.0001 11.1178 17.0001C10.6698 17.0001 10.2358 17.0188 9.81578 17.0561C9.40511 17.0934 9.14378 17.1214 9.03178 17.1401L8.98978 17.0421L9.04578 16.4961C9.52178 16.4588 9.84845 16.4028 10.0258 16.3281C10.2031 16.2534 10.2918 16.1321 10.2918 15.9641C10.2918 15.7774 10.2498 15.5534 10.1658 15.2921L9.70378 13.7661C9.47978 13.7568 8.99445 13.7521 8.24778 13.7521C7.79978 13.7521 7.29111 13.7894 6.72178 13.8641L6.20378 15.3201C6.11978 15.5721 6.07778 15.7541 6.07778 15.8661C6.07778 16.0714 6.14311 16.2208 6.27378 16.3141C6.40445 16.3981 6.61911 16.4401 6.91778 16.4401H7.71578L7.74378 16.4961L7.65978 17.0981C7.54778 17.0888 7.29111 17.0701 6.88978 17.0421C6.48845 17.0141 6.09645 17.0001 5.71378 17.0001C5.36845 17.0001 5.04645 17.0048 4.74778 17.0141C4.45845 17.0234 4.26711 17.0328 4.17378 17.0421L4.28578 16.3841C4.54711 16.3561 4.75711 16.2674 4.91578 16.1181C5.07445 15.9594 5.22845 15.6888 5.37778 15.3061L8.10778 8.15206L8.98978 7.91406H9.10178C9.15778 8.13806 9.29778 8.65606 9.52178 9.46806C9.75511 10.2801 10.0351 11.2414 10.3618 12.3521C10.6978 13.4628 11.0198 14.4848 11.3278 15.4181ZM8.20578 13.1781C8.53245 13.1781 8.96645 13.1548 9.50778 13.1081L8.40178 9.44006H8.30378L6.97378 13.1781H8.20578ZM15.7115 15.1801C15.4782 15.1801 15.2122 15.1474 14.9135 15.0821C14.6989 15.2034 14.5449 15.3154 14.4515 15.4181C14.3675 15.5114 14.3255 15.6094 14.3255 15.7121C14.3255 15.9268 14.4702 16.0761 14.7595 16.1601C15.0489 16.2441 15.5015 16.3234 16.1175 16.3981C16.7242 16.4728 17.2142 16.5521 17.5875 16.6361C17.9609 16.7108 18.2829 16.8508 18.5535 17.0561C18.8242 17.2614 18.9595 17.5461 18.9595 17.9101C18.9595 18.3208 18.7915 18.7174 18.4555 19.1001C18.1195 19.4828 17.6809 19.7908 17.1395 20.0241C16.5982 20.2668 16.0429 20.3881 15.4735 20.3881C14.8109 20.3881 14.2929 20.2248 13.9195 19.8981C13.5555 19.5714 13.3735 19.1141 13.3735 18.5261C13.4949 18.3581 13.6815 18.1574 13.9335 17.9241C14.1949 17.7001 14.4702 17.4808 14.7595 17.2661V17.1821C14.2649 17.0981 13.8869 16.9394 13.6255 16.7061C13.3642 16.4634 13.2335 16.1648 13.2335 15.8101C13.5882 15.4741 13.9802 15.1754 14.4095 14.9141V14.8581C14.0922 14.6901 13.8402 14.4428 13.6535 14.1161C13.4669 13.7894 13.3735 13.4301 13.3735 13.0381C13.3735 12.5901 13.4902 12.1701 13.7235 11.7781C13.9662 11.3861 14.2835 11.0781 14.6755 10.8541C15.0769 10.6208 15.5109 10.5041 15.9775 10.5041C16.1922 10.5041 16.4582 10.5321 16.7755 10.5881C17.0089 10.6348 17.2002 10.6581 17.3495 10.6581C17.7415 10.6114 18.3855 10.4714 19.2815 10.2381L19.3235 10.2941L19.1695 11.0781C18.7962 11.1341 18.3949 11.1761 17.9655 11.2041L17.9095 11.2741C18.2829 11.6848 18.4695 12.1608 18.4695 12.7021C18.4695 13.1501 18.3435 13.5654 18.0915 13.9481C17.8489 14.3308 17.5175 14.6341 17.0975 14.8581C16.6775 15.0728 16.2155 15.1801 15.7115 15.1801ZM16.0335 14.5641C16.4629 14.5641 16.7989 14.4288 17.0415 14.1581C17.2935 13.8874 17.4195 13.5141 17.4195 13.0381C17.4195 12.4968 17.2702 12.0581 16.9715 11.7221C16.6729 11.3861 16.2855 11.2181 15.8095 11.2181C15.3802 11.2181 15.0395 11.3581 14.7875 11.6381C14.5449 11.9181 14.4235 12.2961 14.4235 12.7721C14.4235 13.3041 14.5729 13.7381 14.8715 14.0741C15.1702 14.4008 15.5575 14.5641 16.0335 14.5641ZM15.9775 19.7021C16.3415 19.7021 16.6822 19.6368 16.9995 19.5061C17.3262 19.3848 17.5829 19.2121 17.7695 18.9881C17.9655 18.7734 18.0635 18.5448 18.0635 18.3021C18.0635 18.1154 17.9889 17.9661 17.8395 17.8541C17.6902 17.7421 17.4242 17.6441 17.0415 17.5601C16.6682 17.4761 16.1082 17.3874 15.3615 17.2941C15.1189 17.4528 14.9135 17.6628 14.7455 17.9241C14.5775 18.1854 14.4935 18.4281 14.4935 18.6521C14.4935 18.9694 14.6289 19.2214 14.8995 19.4081C15.1795 19.6041 15.5389 19.7021 15.9775 19.7021Z" fill="#131313"/>
</svg>
