<svg width="24" height="24" viewBox="0 0 24 24" fill="none" xmlns="http://www.w3.org/2000/svg">
<path d="M10.9435 17.0002L10.3975 14.3262H8.15755L7.62555 17.0002H6.64555L8.61955 7.36816H9.96355L11.9235 17.0002H10.9435ZM9.31955 8.65616H9.23555L8.29755 13.4582H10.2575L9.31955 8.65616ZM14.5304 19.7862C14.0077 19.7862 13.4571 19.7629 12.8784 19.7162V18.9462C13.6624 18.9742 14.1571 18.9882 14.3624 18.9882C14.8384 18.9882 15.1837 18.9135 15.3984 18.7642C15.6131 18.6242 15.7531 18.3769 15.8184 18.0222C15.8837 17.6675 15.9164 17.1029 15.9164 16.3282V16.0762H15.8464C15.7531 16.4122 15.5944 16.6595 15.3704 16.8182C15.1464 16.9769 14.8384 17.0562 14.4464 17.0562C13.9517 17.0562 13.5784 16.9535 13.3264 16.7482C13.0837 16.5429 12.9157 16.1882 12.8224 15.6842C12.7291 15.1709 12.6824 14.4102 12.6824 13.4022C12.6824 12.3849 12.7291 11.6242 12.8224 11.1202C12.9251 10.6069 13.0977 10.2522 13.3404 10.0562C13.5924 9.85083 13.9657 9.74816 14.4604 9.74816C14.8151 9.74816 15.1184 9.82749 15.3704 9.98616C15.6224 10.1355 15.7951 10.4202 15.8884 10.8402H15.9584L16.0144 9.86016H16.8404V15.9502C16.8404 16.9769 16.7891 17.7515 16.6864 18.2742C16.5837 18.7969 16.3691 19.1795 16.0424 19.4222C15.7251 19.6649 15.2211 19.7862 14.5304 19.7862ZM14.7684 16.2162C15.0671 16.2162 15.2957 16.1509 15.4544 16.0202C15.6224 15.8802 15.7391 15.6469 15.8044 15.3202C15.8791 14.9562 15.9164 14.3169 15.9164 13.4022C15.9164 12.5342 15.8884 11.9322 15.8324 11.5962C15.7671 11.2229 15.6504 10.9615 15.4824 10.8122C15.3144 10.6629 15.0764 10.5882 14.7684 10.5882C14.4137 10.5882 14.1571 10.6489 13.9984 10.7702C13.8491 10.8915 13.7464 11.1435 13.6904 11.5262C13.6344 11.8995 13.6064 12.5249 13.6064 13.4022C13.6064 14.2795 13.6344 14.9095 13.6904 15.2922C13.7464 15.6655 13.8491 15.9129 13.9984 16.0342C14.1571 16.1555 14.4137 16.2162 14.7684 16.2162Z" fill="#131313"/>
</svg>
