<svg width="24" height="24" viewBox="0 0 24 24" fill="none" xmlns="http://www.w3.org/2000/svg">
<path d="M11.3062 17.0002L10.6062 13.9622H7.96023L7.27423 17.0002H6.77023L9.01023 7.36816H9.58423L11.8242 17.0002H11.3062ZM9.31823 8.36216H9.24823L8.07223 13.4862H10.4942L9.31823 8.36216ZM14.4054 19.7442C13.892 19.7442 13.3694 19.7302 12.8374 19.7022V19.2402C13.3227 19.2775 13.8314 19.2962 14.3634 19.2962C14.9047 19.2962 15.3014 19.2029 15.5534 19.0162C15.8054 18.8389 15.9734 18.5355 16.0574 18.1062C16.1414 17.6862 16.1834 17.0282 16.1834 16.1322V16.0762H16.1274C16.034 16.4495 15.866 16.7155 15.6234 16.8742C15.3807 17.0329 15.0494 17.1122 14.6294 17.1122C14.088 17.1122 13.6867 17.0142 13.4254 16.8182C13.164 16.6129 12.982 16.2582 12.8794 15.7542C12.786 15.2502 12.7394 14.4755 12.7394 13.4302C12.7394 12.3849 12.786 11.6102 12.8794 11.1062C12.982 10.6022 13.164 10.2522 13.4254 10.0562C13.6867 9.85083 14.088 9.74816 14.6294 9.74816C15.0307 9.74816 15.362 9.82749 15.6234 9.98616C15.8847 10.1355 16.0714 10.4435 16.1834 10.9102H16.2394L16.2954 9.86016H16.6734V15.8522C16.6734 16.9069 16.6174 17.7002 16.5054 18.2322C16.4027 18.7642 16.1927 19.1469 15.8754 19.3802C15.558 19.6229 15.068 19.7442 14.4054 19.7442ZM14.7134 16.6642C15.0867 16.6642 15.3807 16.5755 15.5954 16.3982C15.81 16.2115 15.9594 15.9222 16.0434 15.5302C16.1367 15.0542 16.1834 14.3542 16.1834 13.4302C16.1834 12.4782 16.146 11.8109 16.0714 11.4282C15.978 10.9802 15.824 10.6629 15.6094 10.4762C15.3947 10.2895 15.096 10.1962 14.7134 10.1962C14.2654 10.1962 13.9387 10.2709 13.7334 10.4202C13.5374 10.5695 13.402 10.8635 13.3274 11.3022C13.262 11.7315 13.2294 12.4409 13.2294 13.4302C13.2294 14.4195 13.262 15.1335 13.3274 15.5722C13.402 16.0015 13.5374 16.2909 13.7334 16.4402C13.9387 16.5895 14.2654 16.6642 14.7134 16.6642Z" fill="#131313"/>
</svg>
