<svg width="24" height="24" viewBox="0 0 24 24" fill="none" xmlns="http://www.w3.org/2000/svg">
<path d="M2.75158 17.0002L8.71558 7.36816H9.45758L11.3196 17.0002H10.6336L10.0596 14.0042H5.32758L3.46558 17.0002H2.75158ZM5.69158 13.4022H9.94758L8.96758 8.20816H8.89758L5.69158 13.4022ZM15.2609 19.8842C14.9529 19.8842 14.6262 19.8795 14.2809 19.8702C13.9449 19.8609 13.6229 19.8469 13.3149 19.8282C13.0162 19.8189 12.7642 19.8002 12.5589 19.7722L12.6849 19.2122C12.9369 19.2309 13.2076 19.2449 13.4969 19.2542C13.7862 19.2729 14.0709 19.2869 14.3509 19.2962C14.6402 19.3055 14.9016 19.3102 15.1349 19.3102C15.7042 19.3102 16.1616 19.2635 16.5069 19.1702C16.8616 19.0769 17.1416 18.9275 17.3469 18.7222C17.5616 18.5262 17.7296 18.2695 17.8509 17.9522C17.9816 17.6349 18.0982 17.2569 18.2009 16.8182C18.2476 16.6689 18.2896 16.5055 18.3269 16.3282C18.3736 16.1415 18.4109 15.9922 18.4389 15.8802H18.3689C18.2009 16.2162 17.9956 16.4775 17.7529 16.6642C17.5196 16.8415 17.2396 16.9582 16.9129 17.0142C16.5862 17.0702 16.1989 17.0982 15.7509 17.0982C15.1816 17.0982 14.7196 17.0515 14.3649 16.9582C14.0196 16.8649 13.7676 16.6969 13.6089 16.4542C13.4502 16.2022 13.3709 15.8569 13.3709 15.4182C13.3709 15.1755 13.3896 14.8909 13.4269 14.5642C13.4736 14.2282 13.5436 13.8502 13.6369 13.4302C13.7956 12.6929 13.9589 12.0862 14.1269 11.6102C14.2949 11.1249 14.5002 10.7469 14.7429 10.4762C14.9856 10.2055 15.2936 10.0189 15.6669 9.91616C16.0402 9.80416 16.5069 9.74816 17.0669 9.74816C17.5242 9.74816 17.9162 9.78549 18.2429 9.86016C18.5696 9.92549 18.8309 10.0422 19.0269 10.2102C19.2322 10.3782 19.3676 10.6022 19.4329 10.8822H19.4889L19.7969 9.86016H20.3429L19.0269 16.0062C18.9056 16.5942 18.7796 17.1029 18.6489 17.5322C18.5182 17.9615 18.3642 18.3255 18.1869 18.6242C18.0096 18.9322 17.7902 19.1749 17.5289 19.3522C17.2769 19.5389 16.9642 19.6742 16.5909 19.7582C16.2176 19.8422 15.7742 19.8842 15.2609 19.8842ZM15.9609 16.5242C16.3716 16.5242 16.7122 16.4915 16.9829 16.4262C17.2536 16.3515 17.4822 16.2442 17.6689 16.1042C17.8556 15.9549 18.0282 15.7635 18.1869 15.5302C18.2989 15.3715 18.4016 15.1615 18.4949 14.9002C18.5976 14.6389 18.6909 14.3542 18.7749 14.0462C18.8682 13.7382 18.9429 13.4395 18.9989 13.1502C19.0642 12.8515 19.1109 12.5855 19.1389 12.3522C19.1762 12.1095 19.1949 11.9182 19.1949 11.7782C19.1949 11.2555 19.0409 10.8869 18.7329 10.6722C18.4249 10.4482 17.9209 10.3362 17.2209 10.3362C16.7262 10.3362 16.3202 10.3735 16.0029 10.4482C15.6856 10.5135 15.4242 10.6535 15.2189 10.8682C15.0229 11.0735 14.8549 11.3815 14.7149 11.7922C14.5749 12.2029 14.4302 12.7489 14.2809 13.4302C14.1969 13.8409 14.1269 14.2049 14.0709 14.5222C14.0242 14.8302 14.0009 15.0962 14.0009 15.3202C14.0009 15.6562 14.0662 15.9129 14.1969 16.0902C14.3276 16.2675 14.5329 16.3842 14.8129 16.4402C15.1022 16.4962 15.4849 16.5242 15.9609 16.5242Z" fill="#131313"/>
</svg>
