<svg width="24" height="24" viewBox="0 0 24 24" fill="none" xmlns="http://www.w3.org/2000/svg">
<path d="M2.96124 17.0002L5.63524 7.36816H10.1853L12.8593 17.0002H9.61124L9.26124 15.5582H6.47524L6.13924 17.0002H2.96124ZM7.00724 13.3182H8.71524L7.91724 10.0002H7.79124L7.00724 13.3182ZM16.503 19.8842C16.195 19.8842 15.873 19.8749 15.537 19.8562C15.201 19.8375 14.8836 19.8095 14.585 19.7722C14.2956 19.7442 14.0483 19.7115 13.843 19.6742V17.7842C14.0483 17.7842 14.249 17.7842 14.445 17.7842C14.6503 17.7842 14.8556 17.7842 15.061 17.7842C15.2663 17.7842 15.4716 17.7842 15.677 17.7842C16.097 17.7842 16.419 17.7749 16.643 17.7562C16.8763 17.7469 17.0396 17.7095 17.133 17.6442C17.2356 17.5789 17.2963 17.4715 17.315 17.3222C17.343 17.1822 17.357 16.9815 17.357 16.7202V16.0622H17.217C17.0583 16.2955 16.881 16.4729 16.685 16.5942C16.4983 16.7062 16.2976 16.7809 16.083 16.8182C15.8683 16.8555 15.6443 16.8742 15.411 16.8742C15.0283 16.8742 14.697 16.8182 14.417 16.7062C14.1463 16.5942 13.9176 16.4075 13.731 16.1462C13.5536 15.8755 13.423 15.5115 13.339 15.0542C13.255 14.5875 13.213 13.9995 13.213 13.2902C13.213 12.5809 13.255 11.9975 13.339 11.5402C13.423 11.0735 13.5536 10.7142 13.731 10.4622C13.9083 10.2009 14.1323 10.0189 14.403 9.91616C14.6736 9.80416 14.9956 9.74816 15.369 9.74816C15.621 9.74816 15.8636 9.77149 16.097 9.81816C16.3303 9.86483 16.545 9.95349 16.741 10.0842C16.937 10.2149 17.105 10.4062 17.245 10.6582H17.399L17.455 9.86016H20.353V16.2302C20.353 16.8275 20.3203 17.3502 20.255 17.7982C20.199 18.2555 20.0496 18.6382 19.807 18.9462C19.5643 19.2542 19.1816 19.4875 18.659 19.6462C18.1456 19.8049 17.427 19.8842 16.503 19.8842ZM16.783 14.5782C16.9696 14.5782 17.1003 14.5595 17.175 14.5222C17.2496 14.4849 17.2963 14.3869 17.315 14.2282C17.3336 14.1162 17.343 13.9902 17.343 13.8502C17.3523 13.7009 17.357 13.5235 17.357 13.3182C17.357 13.1222 17.357 12.9542 17.357 12.8142C17.357 12.6649 17.3476 12.5435 17.329 12.4502C17.3103 12.2635 17.259 12.1515 17.175 12.1142C17.1003 12.0769 16.9696 12.0582 16.783 12.0582C16.6336 12.0582 16.517 12.0675 16.433 12.0862C16.3583 12.1049 16.3023 12.1515 16.265 12.2262C16.237 12.3009 16.2183 12.4269 16.209 12.6042C16.1996 12.7722 16.195 13.0102 16.195 13.3182C16.195 13.6262 16.1996 13.8689 16.209 14.0462C16.2183 14.2142 16.237 14.3355 16.265 14.4102C16.3023 14.4849 16.3583 14.5315 16.433 14.5502C16.517 14.5689 16.6336 14.5782 16.783 14.5782Z" fill="#131313"/>
</svg>
