<svg width="24" height="24" viewBox="0 0 24 24" fill="none" xmlns="http://www.w3.org/2000/svg">
<path d="M3.57659 17.0002L7.46859 7.36816H8.21059L12.1026 17.0002H11.3886L10.1846 14.0042H5.48059L4.27659 17.0002H3.57659ZM5.71859 13.3882H9.94659L7.87459 8.20816H7.80459L5.71859 13.3882ZM16.5072 19.8842C16.2086 19.8842 15.9006 19.8795 15.5832 19.8702C15.2659 19.8609 14.9579 19.8469 14.6592 19.8282C14.3699 19.8189 14.1226 19.8002 13.9172 19.7722V19.2122C14.1786 19.2309 14.4539 19.2449 14.7432 19.2542C15.0419 19.2729 15.3312 19.2869 15.6112 19.2962C15.9006 19.3055 16.1619 19.3102 16.3952 19.3102C16.9646 19.3102 17.4172 19.2635 17.7532 19.1702C18.0892 19.0769 18.3412 18.9135 18.5092 18.6802C18.6866 18.4469 18.8032 18.1295 18.8592 17.7282C18.9152 17.3269 18.9432 16.8182 18.9432 16.2022V15.9782H18.8732C18.7612 16.2582 18.5932 16.4822 18.3692 16.6502C18.1546 16.8089 17.8839 16.9255 17.5572 17.0002C17.2306 17.0655 16.8479 17.0982 16.4092 17.0982C15.8212 17.0982 15.3452 17.0469 14.9812 16.9442C14.6266 16.8322 14.3512 16.6455 14.1552 16.3842C13.9592 16.1135 13.8239 15.7402 13.7492 15.2642C13.6746 14.7789 13.6372 14.1675 13.6372 13.4302C13.6372 12.6929 13.6746 12.0862 13.7492 11.6102C13.8239 11.1249 13.9592 10.7469 14.1552 10.4762C14.3512 10.2055 14.6312 10.0189 14.9952 9.91616C15.3592 9.80416 15.8306 9.74816 16.4092 9.74816C16.7639 9.74816 17.1092 9.77616 17.4452 9.83216C17.7812 9.88816 18.0799 10.0049 18.3412 10.1822C18.6026 10.3595 18.7986 10.6302 18.9292 10.9942H18.9992L19.0412 9.86016H19.5872V16.0062C19.5872 16.7342 19.5499 17.3455 19.4752 17.8402C19.4099 18.3442 19.2699 18.7455 19.0552 19.0442C18.8499 19.3429 18.5419 19.5575 18.1312 19.6882C17.7299 19.8189 17.1886 19.8842 16.5072 19.8842ZM16.6192 16.5242C17.2072 16.5242 17.6739 16.4449 18.0192 16.2862C18.3646 16.1182 18.5979 15.8475 18.7192 15.4742C18.8219 15.2035 18.8826 14.9002 18.9012 14.5642C18.9292 14.2282 18.9432 13.8502 18.9432 13.4302C18.9432 13.0102 18.9339 12.6415 18.9152 12.3242C18.8966 11.9975 18.8452 11.7129 18.7612 11.4702C18.6212 11.0502 18.3739 10.7562 18.0192 10.5882C17.6646 10.4202 17.1979 10.3362 16.6192 10.3362C16.1059 10.3362 15.6952 10.3735 15.3872 10.4482C15.0792 10.5135 14.8459 10.6535 14.6872 10.8682C14.5286 11.0735 14.4212 11.3815 14.3652 11.7922C14.3092 12.2029 14.2812 12.7489 14.2812 13.4302C14.2812 14.1115 14.3092 14.6575 14.3652 15.0682C14.4212 15.4789 14.5286 15.7915 14.6872 16.0062C14.8459 16.2115 15.0792 16.3515 15.3872 16.4262C15.6952 16.4915 16.1059 16.5242 16.6192 16.5242Z" fill="#131313"/>
</svg>
