<svg width="24" height="24" viewBox="0 0 24 24" fill="none" xmlns="http://www.w3.org/2000/svg">
<path d="M10.7867 17.0002L10.0587 14.5642H6.6427L5.9287 17.0002H4.4727L7.4127 7.36816H9.3307L12.2707 17.0002H10.7867ZM8.3787 8.83816H8.3087L6.9927 13.3322H9.6947L8.3787 8.83816ZM15.8095 19.8422C14.9415 19.8422 14.2182 19.7955 13.6395 19.7022V18.6382C14.4235 18.6755 15.0489 18.6942 15.5155 18.6942C16.1222 18.6942 16.5609 18.6335 16.8315 18.5122C17.1022 18.4002 17.2749 18.1902 17.3495 17.8822C17.4335 17.5835 17.4755 17.0935 17.4755 16.4122V16.1042H17.3915C17.2422 16.4495 17.0089 16.6969 16.6915 16.8462C16.3742 16.9862 15.9775 17.0562 15.5015 17.0562C14.9042 17.0562 14.4422 16.9535 14.1155 16.7482C13.7982 16.5335 13.5695 16.1695 13.4295 15.6562C13.2989 15.1335 13.2335 14.3915 13.2335 13.4302C13.2335 12.4595 13.3035 11.7129 13.4435 11.1902C13.5835 10.6582 13.8169 10.2849 14.1435 10.0702C14.4702 9.85549 14.9275 9.74816 15.5155 9.74816C15.9635 9.74816 16.3555 9.82283 16.6915 9.97216C17.0275 10.1215 17.2795 10.4015 17.4475 10.8122H17.5315L17.5875 9.86016H18.8335V16.0622C18.8335 17.0609 18.7682 17.8169 18.6375 18.3302C18.5069 18.8435 18.2269 19.2215 17.7975 19.4642C17.3682 19.7162 16.7055 19.8422 15.8095 19.8422ZM16.0475 15.8522C16.3929 15.8522 16.6589 15.8009 16.8455 15.6982C17.0415 15.5862 17.1862 15.4135 17.2795 15.1802C17.3542 14.9935 17.4055 14.7649 17.4335 14.4942C17.4615 14.2235 17.4755 13.8642 17.4755 13.4162C17.4755 12.9962 17.4615 12.6555 17.4335 12.3942C17.4149 12.1235 17.3682 11.8949 17.2935 11.7082C17.2002 11.4469 17.0555 11.2602 16.8595 11.1482C16.6635 11.0269 16.3929 10.9662 16.0475 10.9662C15.5902 10.9662 15.2635 11.0175 15.0675 11.1202C14.8809 11.2229 14.7549 11.4375 14.6895 11.7642C14.6335 12.0909 14.6055 12.6415 14.6055 13.4162C14.6055 14.1815 14.6382 14.7275 14.7035 15.0542C14.7689 15.3715 14.8949 15.5862 15.0815 15.6982C15.2775 15.8009 15.5995 15.8522 16.0475 15.8522Z" fill="#131313"/>
</svg>
