<svg width="24" height="24" viewBox="0 0 24 24" fill="none" xmlns="http://www.w3.org/2000/svg">
<path d="M10.0053 17.0002L9.61333 15.2642H7.03733L6.67333 17.0002H4.15333L6.56133 7.36816H10.1593L12.5673 17.0002H10.0053ZM8.36733 9.56616H8.26933L7.47133 13.3182H9.17933L8.36733 9.56616ZM15.9612 19.8702C15.5599 19.8702 15.1399 19.8515 14.7012 19.8142C14.2626 19.7769 13.9032 19.7349 13.6232 19.6882V18.0642L15.3452 18.0782C15.8679 18.0782 16.2272 18.0502 16.4232 17.9942C16.6192 17.9382 16.7406 17.8215 16.7872 17.6442C16.8432 17.4669 16.8712 17.1402 16.8712 16.6642V16.0902H16.7592C16.5912 16.4075 16.3719 16.6269 16.1012 16.7482C15.8306 16.8695 15.4992 16.9302 15.1072 16.9302C14.5939 16.9302 14.1926 16.8229 13.9032 16.6082C13.6139 16.3935 13.4039 16.0295 13.2732 15.5162C13.1426 14.9935 13.0772 14.2655 13.0772 13.3322C13.0772 12.3802 13.1426 11.6475 13.2732 11.1342C13.4132 10.6209 13.6232 10.2615 13.9032 10.0562C14.1926 9.85083 14.5892 9.74816 15.0932 9.74816C15.4852 9.74816 15.8259 9.81816 16.1152 9.95816C16.4046 10.0889 16.6286 10.3315 16.7872 10.6862H16.9272L16.9832 9.86016H19.2372V16.1882C19.2372 17.1495 19.1719 17.8729 19.0412 18.3582C18.9199 18.8435 18.6259 19.2169 18.1592 19.4782C17.7019 19.7395 16.9692 19.8702 15.9612 19.8702ZM16.1712 14.9982C16.3766 14.9982 16.5212 14.9749 16.6052 14.9282C16.6986 14.8722 16.7639 14.7602 16.8012 14.5922C16.8292 14.4709 16.8479 14.3029 16.8572 14.0882C16.8666 13.8642 16.8712 13.6169 16.8712 13.3462C16.8712 12.7395 16.8526 12.3522 16.8152 12.1842C16.7779 11.9882 16.7126 11.8575 16.6192 11.7922C16.5259 11.7269 16.3766 11.6942 16.1712 11.6942C15.9192 11.6942 15.7466 11.7222 15.6532 11.7782C15.5692 11.8342 15.5132 11.9695 15.4852 12.1842C15.4572 12.3895 15.4432 12.7769 15.4432 13.3462C15.4432 13.9155 15.4572 14.3075 15.4852 14.5222C15.5132 14.7275 15.5692 14.8582 15.6532 14.9142C15.7466 14.9702 15.9192 14.9982 16.1712 14.9982Z" fill="#131313"/>
</svg>
