<svg width="24" height="24" viewBox="0 0 24 24" fill="none" xmlns="http://www.w3.org/2000/svg">
<path d="M11.2089 17.0002L10.5509 14.0602H8.00289L7.34489 17.0002H6.72889L8.89889 7.36816H9.66889L11.8529 17.0002H11.2089ZM9.30489 8.43216H9.23489L8.11489 13.4722H10.4249L9.30489 8.43216ZM14.447 19.7582C14.0924 19.7582 13.5604 19.7395 12.851 19.7022V19.1562C13.355 19.1935 13.8637 19.2122 14.377 19.2122C14.8997 19.2122 15.2824 19.1235 15.525 18.9462C15.7677 18.7782 15.9264 18.4889 16.001 18.0782C16.085 17.6675 16.127 17.0329 16.127 16.1742V16.0762H16.057C15.9637 16.4402 15.8004 16.7015 15.567 16.8602C15.3337 17.0189 15.007 17.0982 14.587 17.0982C14.055 17.0982 13.6584 17.0002 13.397 16.8042C13.145 16.5989 12.9677 16.2442 12.865 15.7402C12.7717 15.2269 12.725 14.4522 12.725 13.4162C12.725 12.3802 12.7717 11.6102 12.865 11.1062C12.9677 10.6022 13.145 10.2522 13.397 10.0562C13.6584 9.85083 14.055 9.74816 14.587 9.74816C14.9884 9.74816 15.315 9.82749 15.567 9.98616C15.8284 10.1355 16.0104 10.4389 16.113 10.8962H16.183L16.239 9.86016H16.729V15.8802C16.729 16.9255 16.673 17.7142 16.561 18.2462C16.4584 18.7782 16.2437 19.1609 15.917 19.3942C15.5997 19.6369 15.1097 19.7582 14.447 19.7582ZM14.741 16.5522C15.0957 16.5522 15.371 16.4682 15.567 16.3002C15.7724 16.1229 15.9124 15.8475 15.987 15.4742C16.0804 15.0169 16.127 14.3309 16.127 13.4162C16.127 12.4922 16.0897 11.8435 16.015 11.4702C15.931 11.0502 15.7864 10.7515 15.581 10.5742C15.385 10.3875 15.105 10.2942 14.741 10.2942C14.3117 10.2942 13.999 10.3689 13.803 10.5182C13.6164 10.6582 13.4904 10.9382 13.425 11.3582C13.3597 11.7689 13.327 12.4549 13.327 13.4162C13.327 14.3775 13.3597 15.0682 13.425 15.4882C13.4904 15.9082 13.6164 16.1929 13.803 16.3422C13.999 16.4822 14.3117 16.5522 14.741 16.5522Z" fill="#131313"/>
</svg>
