<svg width="24" height="24" viewBox="0 0 24 24" fill="none" xmlns="http://www.w3.org/2000/svg">
<path d="M4.34473 17H3.5791L8.00195 7.22461H8.85645L13.2998 17H12.4453L10.9961 13.7188H6.61426L6.82617 13.1035H10.7295L8.38477 7.78516L4.34473 17ZM19.8418 10.6289C19.181 10.5195 18.5316 10.4648 17.8936 10.4648C15.9567 10.4648 14.9883 11.4287 14.9883 13.3564C14.9883 15.3298 15.8929 16.3164 17.7021 16.3164C18.3584 16.3164 19.0716 16.1934 19.8418 15.9473V10.6289ZM20.5596 17C20.5596 18.7318 19.5046 19.5977 17.3945 19.5977C16.5104 19.5977 15.7266 19.4837 15.043 19.2559V18.6406C15.7402 18.8685 16.5286 18.9824 17.4082 18.9824C19.0306 18.9824 19.8418 18.3216 19.8418 17V16.6582C19.0306 16.8861 18.3151 17 17.6953 17C15.4258 17 14.291 15.79 14.291 13.3701C14.291 11.0049 15.5101 9.82227 17.9482 9.82227C18.8734 9.82227 19.7438 9.92025 20.5596 10.1162V17Z" fill="#131313"/>
</svg>
