<svg width="24" height="24" viewBox="0 0 24 24" fill="none" xmlns="http://www.w3.org/2000/svg">
<path d="M5.455 17.3078C5.12833 17.3078 4.89967 17.2331 4.769 17.0838C4.64767 16.9438 4.587 16.7711 4.587 16.5658C4.587 16.5098 4.59167 16.4585 4.601 16.4118C4.61967 16.3651 4.63367 16.3231 4.643 16.2858C4.895 16.2858 5.12833 16.2485 5.343 16.1738C5.55767 16.0991 5.77233 15.9638 5.987 15.7678C6.211 15.5625 6.449 15.2685 6.701 14.8858C6.96233 14.4938 7.25633 13.9851 7.583 13.3598C7.919 12.7251 8.30633 11.9505 8.745 11.0358C9.193 10.1211 9.711 9.02917 10.299 7.75984H12.063C11.9977 8.99184 11.951 10.0651 11.923 10.9798C11.895 11.8851 11.881 12.6691 11.881 13.3318C11.881 14.0598 11.8997 14.6571 11.937 15.1238C11.9743 15.5811 12.0257 15.9405 12.091 16.2018C12.1563 16.4631 12.231 16.6685 12.315 16.8178C12.2777 16.9298 12.1983 17.0371 12.077 17.1398C11.9557 17.2425 11.7877 17.2938 11.573 17.2938C11.3583 17.2938 11.1903 17.2331 11.069 17.1118C10.9477 16.9998 10.859 16.8178 10.803 16.5658C10.7563 16.3045 10.7237 15.9591 10.705 15.5298C10.6957 15.1005 10.691 14.5731 10.691 13.9478C10.691 13.6678 10.6957 13.3178 10.705 12.8978C10.7237 12.4685 10.7423 12.0158 10.761 11.5398C10.7797 11.0638 10.7983 10.6065 10.817 10.1678C10.8357 9.71984 10.8543 9.32784 10.873 8.99184H10.803C10.579 9.50517 10.369 9.97184 10.173 10.3918C9.977 10.8025 9.78567 11.2038 9.599 11.5958C9.41233 11.9785 9.221 12.3798 9.025 12.7998C8.829 13.2105 8.61433 13.6771 8.381 14.1998C8.03567 14.8811 7.71833 15.4318 7.429 15.8518C7.149 16.2625 6.89233 16.5751 6.659 16.7898C6.42567 16.9951 6.211 17.1305 6.015 17.1958C5.819 17.2705 5.63233 17.3078 5.455 17.3078ZM7.443 14.6198L7.891 13.6538H11.097L11.069 14.6198H7.443ZM6.351 11.6238C6.099 11.6238 5.88433 11.5585 5.707 11.4278C5.52967 11.2971 5.39433 11.1105 5.301 10.8678C5.217 10.6158 5.189 10.3218 5.217 9.98584C5.245 9.66851 5.329 9.35584 5.469 9.04784C5.61833 8.73051 5.82367 8.44584 6.085 8.19384C6.35567 7.93251 6.67767 7.72717 7.051 7.57784C7.43367 7.41917 7.86767 7.33984 8.353 7.33984C8.53967 7.33984 8.79633 7.36317 9.123 7.40984C9.459 7.45651 9.81367 7.51251 10.187 7.57784C10.5697 7.63384 10.929 7.68051 11.265 7.71784C11.601 7.75517 11.867 7.76917 12.063 7.75984L10.859 8.68384L9.991 8.41784L9.907 8.26384C9.767 8.21717 9.56633 8.16584 9.305 8.10984C9.04367 8.04451 8.77767 8.01184 8.507 8.01184C8.10567 8.01184 7.765 8.10051 7.485 8.27784C7.205 8.45517 6.99033 8.68851 6.841 8.97784C6.69167 9.25784 6.603 9.55651 6.575 9.87384C6.55633 10.1631 6.57967 10.4431 6.645 10.7138C6.71033 10.9751 6.827 11.2225 6.995 11.4558C6.90167 11.5118 6.799 11.5538 6.687 11.5818C6.575 11.6098 6.463 11.6238 6.351 11.6238ZM14.9926 19.7718C14.6099 19.7718 14.2553 19.7391 13.9286 19.6738C13.6113 19.6178 13.3313 19.5245 13.0886 19.3938C12.8553 19.2725 12.6733 19.1185 12.5426 18.9318C12.4119 18.7451 12.3466 18.5258 12.3466 18.2738C12.3466 17.9845 12.4259 17.7465 12.5846 17.5598C12.7339 17.3731 12.9579 17.2798 13.2566 17.2798C13.4153 17.2798 13.5646 17.3078 13.7046 17.3638C13.8446 17.4198 13.9753 17.5178 14.0966 17.6578C14.0313 17.7045 13.9706 17.7698 13.9146 17.8538C13.8679 17.9471 13.8446 18.0591 13.8446 18.1898C13.8446 18.4511 13.9706 18.6378 14.2226 18.7498C14.4746 18.8711 14.8573 18.9318 15.3706 18.9318C15.7066 18.9318 16.0473 18.8805 16.3926 18.7778C16.7379 18.6751 17.0226 18.5118 17.2466 18.2878C17.4799 18.0638 17.5966 17.7698 17.5966 17.4058C17.5966 17.0978 17.4379 16.9065 17.1206 16.8318C16.8033 16.7571 16.2759 16.7198 15.5386 16.7198C15.1653 16.7198 14.8339 16.6871 14.5446 16.6218C14.2553 16.5565 14.0313 16.4491 13.8726 16.2998C13.7139 16.1505 13.6346 15.9498 13.6346 15.6978C13.6439 15.4551 13.7373 15.2031 13.9146 14.9418C14.0919 14.6711 14.3253 14.4471 14.6146 14.2698C14.2693 14.1111 13.9986 13.8918 13.8026 13.6118C13.6066 13.3225 13.5086 12.9631 13.5086 12.5338C13.5086 11.8805 13.6579 11.3391 13.9566 10.9098C14.2553 10.4711 14.6519 10.1398 15.1466 9.91584C15.6506 9.69184 16.1966 9.57984 16.7846 9.57984C17.0459 9.57984 17.2653 9.59851 17.4426 9.63584C17.6293 9.66384 17.7926 9.69651 17.9326 9.73384C18.0819 9.76184 18.2359 9.77584 18.3946 9.77584C18.8239 9.77584 19.1319 9.68251 19.3186 9.49584C19.5146 9.29984 19.6173 9.06651 19.6266 8.79584C19.6266 8.59051 19.5519 8.36651 19.4026 8.12384C19.5239 8.03984 19.6453 7.96984 19.7666 7.91384C19.8973 7.85784 20.0373 7.82984 20.1866 7.82984C20.3919 7.82984 20.5506 7.90451 20.6626 8.05384C20.7746 8.20317 20.8306 8.38517 20.8306 8.59984C20.8306 8.88917 20.7419 9.16451 20.5646 9.42584C20.3966 9.68717 20.1633 9.90651 19.8646 10.0838C19.5753 10.2611 19.2393 10.3778 18.8566 10.4338C18.9593 10.5831 19.0339 10.7558 19.0806 10.9518C19.1366 11.1385 19.1646 11.3485 19.1646 11.5818C19.1646 12.1885 19.0153 12.7111 18.7166 13.1498C18.4273 13.5885 18.0306 13.9245 17.5266 14.1578C17.0319 14.3818 16.4766 14.4938 15.8606 14.4938C15.7673 14.4938 15.6786 14.4938 15.5946 14.4938C15.5106 14.4845 15.4266 14.4751 15.3426 14.4658C15.2399 14.5311 15.1513 14.6151 15.0766 14.7178C15.0019 14.8111 14.9646 14.9325 14.9646 15.0818C14.9646 15.2965 15.0766 15.4271 15.3006 15.4738C15.5246 15.5205 15.8653 15.5438 16.3226 15.5438H17.0646C17.7273 15.5438 18.2033 15.6745 18.4926 15.9358C18.7913 16.1971 18.9406 16.5471 18.9406 16.9858C18.9406 17.4431 18.8193 17.8445 18.5766 18.1898C18.3433 18.5351 18.0306 18.8245 17.6386 19.0578C17.2559 19.2911 16.8313 19.4685 16.3646 19.5898C15.8979 19.7111 15.4406 19.7718 14.9926 19.7718ZM16.0986 13.7938C16.5279 13.7938 16.8686 13.6818 17.1206 13.4578C17.3726 13.2338 17.5546 12.9585 17.6666 12.6318C17.7879 12.2958 17.8486 11.9645 17.8486 11.6378C17.8486 11.2458 17.7413 10.9285 17.5266 10.6858C17.3213 10.4338 16.9993 10.3078 16.5606 10.3078C16.2433 10.3078 15.9726 10.3685 15.7486 10.4898C15.5246 10.6018 15.3426 10.7651 15.2026 10.9798C15.0626 11.1851 14.9599 11.4231 14.8946 11.6938C14.8293 11.9645 14.7966 12.2491 14.7966 12.5478C14.7966 12.9491 14.9133 13.2571 15.1466 13.4718C15.3799 13.6865 15.6973 13.7938 16.0986 13.7938Z" fill="#131313"/>
</svg>
