<svg width="24" height="24" viewBox="0 0 24 24" fill="none" xmlns="http://www.w3.org/2000/svg">
<path d="M4.92448 17.3495C4.57914 17.3495 4.31781 17.2608 4.14048 17.0835C3.97248 16.9062 3.88848 16.7102 3.88848 16.4955C3.88848 16.4208 3.89781 16.3508 3.91648 16.2855C3.93514 16.2202 3.95848 16.1595 3.98648 16.1035C4.35048 16.0848 4.70514 15.9588 5.05048 15.7255C5.39581 15.4828 5.73181 15.1608 6.05848 14.7595C6.38514 14.3488 6.69781 13.8775 6.99648 13.3455C7.30448 12.8042 7.60314 12.2255 7.89248 11.6095C8.18181 10.9935 8.46181 10.3588 8.73248 9.70552C9.01248 9.05219 9.28314 8.40352 9.54448 7.75952H12.4005C12.3911 8.95419 12.3865 10.0088 12.3865 10.9235C12.3958 11.8382 12.4145 12.6362 12.4425 13.3175C12.4518 13.8962 12.4751 14.3955 12.5125 14.8155C12.5591 15.2355 12.6198 15.5855 12.6945 15.8655C12.7691 16.1362 12.8671 16.3555 12.9885 16.5235C12.8765 16.7288 12.7038 16.9062 12.4705 17.0555C12.2371 17.2048 11.9478 17.2795 11.6025 17.2795C11.2945 17.2795 11.0331 17.2142 10.8185 17.0835C10.6038 16.9622 10.4311 16.7382 10.3005 16.4115C10.1791 16.0755 10.0858 15.6088 10.0205 15.0115C9.96448 14.4142 9.93648 13.6535 9.93648 12.7295C9.93648 12.5148 9.93648 12.2815 9.93648 12.0295C9.94581 11.7775 9.95514 11.5162 9.96448 11.2455C9.97381 10.9748 9.98314 10.6995 9.99248 10.4195C10.0018 10.1395 10.0158 9.86419 10.0345 9.59352H9.99248C9.82448 10.0788 9.65181 10.5315 9.47448 10.9515C9.30648 11.3715 9.13848 11.7682 8.97048 12.1415C8.81181 12.5148 8.65314 12.8742 8.49448 13.2195C8.33581 13.5555 8.17248 13.8868 8.00448 14.2135C7.68714 14.8202 7.38381 15.3288 7.09448 15.7395C6.80514 16.1408 6.52981 16.4628 6.26848 16.7055C6.01648 16.9388 5.77848 17.1022 5.55448 17.1955C5.33048 17.2982 5.12048 17.3495 4.92448 17.3495ZM7.10848 14.7315L7.58448 13.6535H10.9025L10.8465 14.7315H7.10848ZM5.91848 12.0575C5.54514 12.0575 5.22781 11.9782 4.96648 11.8195C4.71448 11.6608 4.52781 11.4462 4.40648 11.1755C4.28514 10.8955 4.22448 10.5875 4.22448 10.2515C4.23381 9.91552 4.30848 9.57952 4.44848 9.24352C4.58848 8.89819 4.79848 8.58552 5.07848 8.30552C5.35848 8.01619 5.71314 7.78752 6.14248 7.61952C6.57181 7.44219 7.08514 7.35352 7.68248 7.35352C8.05581 7.35352 8.43848 7.37219 8.83048 7.40952C9.23181 7.44685 9.63314 7.49819 10.0345 7.56352C10.4451 7.61952 10.8465 7.66619 11.2385 7.70352C11.6398 7.74085 12.0271 7.75952 12.4005 7.75952L10.8325 9.11752L9.26448 8.51552L9.18048 8.37552C9.05914 8.32885 8.92381 8.29152 8.77448 8.26352C8.62514 8.23552 8.47114 8.22152 8.31248 8.22152C7.98581 8.22152 7.69181 8.30085 7.43048 8.45952C7.16914 8.60885 6.95914 8.82352 6.80048 9.10352C6.65114 9.38352 6.56714 9.71019 6.54848 10.0835C6.52981 10.3542 6.54381 10.6155 6.59048 10.8675C6.63714 11.1102 6.73514 11.3808 6.88448 11.6795C6.74448 11.8195 6.58114 11.9175 6.39448 11.9735C6.21714 12.0295 6.05848 12.0575 5.91848 12.0575ZM15.673 19.7855C15.281 19.7855 14.8983 19.7668 14.525 19.7295C14.161 19.7015 13.8343 19.6362 13.545 19.5335C13.2556 19.4402 13.027 19.3048 12.859 19.1275C12.691 18.9502 12.607 18.7215 12.607 18.4415C12.6256 18.0868 12.761 17.8115 13.013 17.6155C13.2556 17.4195 13.5823 17.3215 13.993 17.3215C14.2823 17.3215 14.5296 17.3682 14.735 17.4615C14.9403 17.5642 15.1036 17.6902 15.225 17.8395C15.1223 17.9142 15.0523 17.9935 15.015 18.0775C14.987 18.1615 14.973 18.2548 14.973 18.3575C14.973 18.5815 15.071 18.7402 15.267 18.8335C15.463 18.9268 15.7476 18.9735 16.121 18.9735C16.3916 18.9735 16.6483 18.9315 16.891 18.8475C17.143 18.7635 17.3483 18.6282 17.507 18.4415C17.6656 18.2548 17.745 18.0168 17.745 17.7275C17.7636 17.4382 17.647 17.2608 17.395 17.1955C17.143 17.1302 16.7416 17.0975 16.191 17.0975C15.6496 17.0975 15.211 17.0555 14.875 16.9715C14.539 16.8875 14.2916 16.7615 14.133 16.5935C13.9836 16.4162 13.9043 16.1922 13.895 15.9215C13.9043 15.5762 14.0116 15.2682 14.217 14.9975C14.4316 14.7268 14.6836 14.4982 14.973 14.3115C14.609 14.1622 14.3243 13.9382 14.119 13.6395C13.923 13.3408 13.825 12.9675 13.825 12.5195C13.825 11.8662 13.993 11.3248 14.329 10.8955C14.665 10.4568 15.113 10.1302 15.673 9.91552C16.2423 9.69152 16.8583 9.57952 17.521 9.57952C17.8476 9.57952 18.1136 9.60285 18.319 9.64952C18.5336 9.68685 18.7203 9.72885 18.879 9.77552C19.0376 9.81285 19.2056 9.83152 19.383 9.83152C19.7283 9.83152 19.985 9.73352 20.153 9.53752C20.321 9.34152 20.4003 9.10819 20.391 8.83752C20.391 8.61352 20.3256 8.41752 20.195 8.24952C20.335 8.10952 20.489 8.00685 20.657 7.94152C20.825 7.86685 20.9976 7.82952 21.175 7.82952C21.4176 7.82952 21.6136 7.89952 21.763 8.03952C21.9123 8.17019 21.987 8.36152 21.987 8.61352C21.987 8.90285 21.903 9.18752 21.735 9.46752C21.567 9.74752 21.3336 9.98552 21.035 10.1815C20.7363 10.3775 20.3863 10.4988 19.985 10.5455C20.069 10.6855 20.1343 10.8395 20.181 11.0075C20.2276 11.1755 20.251 11.3622 20.251 11.5675C20.251 12.2022 20.0876 12.7482 19.761 13.2055C19.4343 13.6535 18.991 13.9942 18.431 14.2275C17.8803 14.4515 17.2596 14.5635 16.569 14.5635C16.4756 14.5635 16.373 14.5635 16.261 14.5635C16.1583 14.5542 16.051 14.5448 15.939 14.5355C15.8736 14.5915 15.8176 14.6522 15.771 14.7175C15.7336 14.7828 15.715 14.8622 15.715 14.9555C15.715 15.0955 15.8036 15.1842 15.981 15.2215C16.1676 15.2495 16.443 15.2635 16.807 15.2635H17.703C18.543 15.2635 19.1496 15.4082 19.523 15.6975C19.9056 15.9775 20.0923 16.3742 20.083 16.8875C20.0736 17.3728 19.9336 17.7975 19.663 18.1615C19.4016 18.5255 19.0516 18.8242 18.613 19.0575C18.1836 19.3002 17.7123 19.4822 17.199 19.6035C16.6856 19.7248 16.177 19.7855 15.673 19.7855ZM16.779 13.8355C17.087 13.8355 17.3343 13.7095 17.521 13.4575C17.7076 13.2055 17.8476 12.8975 17.941 12.5335C18.0343 12.1695 18.081 11.8102 18.081 11.4555C18.081 11.1475 18.025 10.8815 17.913 10.6575C17.801 10.4242 17.6003 10.3075 17.311 10.3075C17.0776 10.3075 16.877 10.3868 16.709 10.5455C16.541 10.6948 16.401 10.8955 16.289 11.1475C16.177 11.3995 16.093 11.6748 16.037 11.9735C15.9903 12.2628 15.9716 12.5428 15.981 12.8135C15.981 13.1122 16.0416 13.3595 16.163 13.5555C16.2843 13.7422 16.4896 13.8355 16.779 13.8355Z" fill="#131313"/>
</svg>
