<svg width="24" height="24" viewBox="0 0 24 24" fill="none" xmlns="http://www.w3.org/2000/svg">
<path d="M11.4987 14.5778C11.5734 15.5671 11.8207 16.1878 12.2407 16.4398C12.1101 16.7011 11.9047 16.9065 11.6247 17.0558C11.3541 17.2051 11.0321 17.2798 10.6587 17.2798C10.1547 17.2798 9.76273 17.1491 9.48273 16.8878C9.20273 16.6171 9.00206 16.2205 8.88073 15.6978C8.83406 15.4925 8.78273 15.1798 8.72673 14.7598H6.30473C5.96873 15.5718 5.68873 16.3185 5.46473 16.9998H3.50473L7.91473 7.75977H11.0507L11.4987 14.5778ZM8.46073 9.71977C7.89139 10.9798 7.38739 12.1278 6.94873 13.1638L6.73873 13.6538H8.67073L8.46073 9.71977ZM19.7012 15.0818C19.4865 16.1831 19.2205 17.0698 18.9032 17.7418C18.5859 18.4138 18.1332 18.9225 17.5452 19.2678C16.9572 19.6225 16.1732 19.7998 15.1932 19.7998C14.3625 19.7998 13.6439 19.6738 13.0372 19.4218C12.4305 19.1791 12.1272 18.7685 12.1272 18.1898C12.1272 17.7885 12.2765 17.4711 12.5752 17.2378C12.8645 17.0045 13.2192 16.8878 13.6392 16.8878C13.9379 16.8878 14.2132 16.9345 14.4652 17.0278C14.7265 17.1305 14.9365 17.2845 15.0952 17.4898C14.8805 17.7231 14.7732 17.9658 14.7732 18.2178C14.7732 18.3765 14.8152 18.5165 14.8992 18.6378C14.9925 18.7685 15.1279 18.8338 15.3052 18.8338C15.7159 18.8338 16.0612 18.5585 16.3412 18.0078C16.6212 17.4571 16.8685 16.5611 17.0832 15.3198C16.8312 15.5998 16.5045 15.8145 16.1032 15.9638C15.7112 16.1131 15.3005 16.1878 14.8712 16.1878C13.5552 16.1878 12.8972 15.4645 12.8972 14.0178C12.8972 13.2431 13.0745 12.5151 13.4292 11.8338C13.7839 11.1525 14.2879 10.6065 14.9412 10.1958C15.5945 9.7851 16.3459 9.57977 17.1952 9.57977C17.6992 9.57977 18.1285 9.6591 18.4832 9.81777L20.7512 9.59377L19.7012 15.0818ZM17.8392 10.6158C17.6805 10.4851 17.4799 10.4198 17.2372 10.4198C16.8359 10.4198 16.5139 10.6391 16.2712 11.0778C16.0285 11.5165 15.8559 12.0345 15.7532 12.6318C15.6505 13.2198 15.5992 13.7658 15.5992 14.2698C15.5992 14.5405 15.6319 14.7505 15.6972 14.8998C15.7719 15.0398 15.9119 15.1098 16.1172 15.1098C16.6959 15.1098 17.0925 14.5405 17.3072 13.4018L17.8392 10.6158Z" fill="#131313"/>
</svg>
