<svg width="24" height="24" viewBox="0 0 24 24" fill="none" xmlns="http://www.w3.org/2000/svg">
<path d="M10.41 15.5442H7.19001L6.75601 17.0002H4.40401L7.82001 7.2002H9.78001L13.196 17.0002H10.844L10.41 15.5442ZM9.86401 13.7522L8.80001 10.2242L7.73601 13.7522H9.86401ZM20.1817 10.0002V16.7062C20.1817 17.9009 19.8783 18.8015 19.2717 19.4082C18.6743 20.0242 17.783 20.3322 16.5977 20.3322C16.0283 20.3322 15.4963 20.2622 15.0017 20.1222C14.507 19.9915 14.073 19.8002 13.6997 19.5482L14.3577 18.2182C14.6843 18.3862 15.039 18.5215 15.4217 18.6242C15.8137 18.7269 16.173 18.7782 16.4997 18.7782C17.097 18.7782 17.5403 18.5822 17.8297 18.1902C18.119 17.8075 18.2637 17.2242 18.2637 16.4402V16.3422C17.8717 16.7902 17.2557 17.0142 16.4157 17.0142C15.4263 17.0142 14.661 16.7062 14.1197 16.0902C13.5877 15.4649 13.3217 14.5735 13.3217 13.4162C13.3217 12.2775 13.5783 11.4002 14.0917 10.7842C14.605 10.1682 15.3283 9.8602 16.2617 9.8602C17.223 9.8602 17.923 10.1869 18.3617 10.8402H18.3897L18.5157 10.0002H20.1817ZM18.1937 13.0802C18.1937 12.5015 18.077 12.0675 17.8437 11.7782C17.6103 11.4795 17.265 11.3302 16.8077 11.3302C16.313 11.3302 15.935 11.5122 15.6737 11.8762C15.4217 12.2309 15.2957 12.7582 15.2957 13.4582C15.2957 14.8209 15.795 15.5022 16.7937 15.5022C17.251 15.5022 17.5963 15.3669 17.8297 15.0962C18.0723 14.8255 18.1937 14.4335 18.1937 13.9202V13.0802Z" fill="#131313"/>
</svg>
