<svg width="24" height="24" viewBox="0 0 24 24" fill="none" xmlns="http://www.w3.org/2000/svg">
<path d="M10.6274 15.2082H7.11345L6.56745 17.0002H4.70545L8.07945 7.2002H9.66145L13.0354 17.0002H11.1734L10.6274 15.2082ZM10.1934 13.7942L8.87745 9.5102L7.54745 13.7942H10.1934ZM19.7933 10.0002V16.7342C19.7933 17.8915 19.504 18.7689 18.9253 19.3662C18.3466 19.9635 17.4973 20.2622 16.3773 20.2622C15.8546 20.2622 15.36 20.2015 14.8933 20.0802C14.4266 19.9589 14.0113 19.7815 13.6473 19.5482L14.1653 18.4562C14.5013 18.6242 14.856 18.7549 15.2293 18.8482C15.6026 18.9415 15.962 18.9882 16.3073 18.9882C17.6233 18.9882 18.2813 18.1622 18.2813 16.5102V16.1462C18.0946 16.4355 17.8286 16.6595 17.4833 16.8182C17.138 16.9769 16.7366 17.0562 16.2793 17.0562C15.318 17.0562 14.5713 16.7342 14.0393 16.0902C13.5073 15.4462 13.2413 14.5502 13.2413 13.4022C13.2413 12.2822 13.498 11.4142 14.0113 10.7982C14.534 10.1729 15.2573 9.8602 16.1813 9.8602C16.6573 9.8602 17.0773 9.95353 17.4413 10.1402C17.8053 10.3175 18.0946 10.5789 18.3093 10.9242H18.3373L18.4633 10.0002H19.7933ZM18.1973 13.0522C18.1973 12.4175 18.0526 11.9275 17.7633 11.5822C17.4833 11.2275 17.082 11.0502 16.5593 11.0502C16.0086 11.0502 15.5793 11.2555 15.2713 11.6662C14.9726 12.0769 14.8233 12.6649 14.8233 13.4302C14.8233 14.1955 14.9726 14.7882 15.2713 15.2082C15.57 15.6189 15.9946 15.8242 16.5453 15.8242C17.068 15.8242 17.474 15.6655 17.7633 15.3482C18.0526 15.0309 18.1973 14.5829 18.1973 14.0042V13.0522Z" fill="#131313"/>
</svg>
