<svg width="24" height="24" viewBox="0 0 24 24" fill="none" xmlns="http://www.w3.org/2000/svg">
<path d="M6.72298 6.67578H9.15898L12.617 15.9998H10.517L9.76098 13.8718H6.09298L5.37898 15.9998H3.30698L6.72298 6.67578ZM9.15898 12.1358L7.89898 8.56578L6.68098 12.1358H9.15898ZM15.9589 19.1778C15.1283 19.1778 14.3163 19.0705 13.5229 18.8558L13.9009 17.1198C14.7969 17.3811 15.5436 17.5118 16.1409 17.5118C16.6169 17.5118 16.9809 17.4371 17.2329 17.2878C17.4943 17.1385 17.6763 16.9051 17.7789 16.5878C17.8909 16.2705 17.9563 15.8365 17.9749 15.2858H17.9329C17.6716 15.5845 17.3683 15.8131 17.0229 15.9718C16.6776 16.1305 16.2996 16.2098 15.8889 16.2098C15.0676 16.2098 14.4236 15.9018 13.9569 15.2858C13.4996 14.6605 13.2709 13.7971 13.2709 12.6958C13.2709 11.3611 13.6116 10.3438 14.2929 9.64378C14.9836 8.94378 15.9683 8.59378 17.2469 8.59378C17.9843 8.59378 18.8616 8.70578 19.8789 8.92978C19.8976 10.8525 19.9069 12.2991 19.9069 13.2698C19.9069 14.1378 19.9023 14.7911 19.8929 15.2298C19.8743 16.5551 19.5383 17.5445 18.8849 18.1978C18.2409 18.8511 17.2656 19.1778 15.9589 19.1778ZM16.4069 14.4878C16.6963 14.4878 16.9716 14.3805 17.2329 14.1658C17.5036 13.9511 17.7416 13.6478 17.9469 13.2558L17.9329 10.4418C17.6249 10.3578 17.3263 10.3158 17.0369 10.3158C16.4489 10.3158 16.0009 10.5071 15.6929 10.8898C15.3943 11.2725 15.2449 11.8278 15.2449 12.5558C15.2449 13.1625 15.3429 13.6385 15.5389 13.9838C15.7443 14.3198 16.0336 14.4878 16.4069 14.4878Z" fill="#131313"/>
</svg>
