<svg width="24" height="24" viewBox="0 0 24 24" fill="none" xmlns="http://www.w3.org/2000/svg">
<path d="M9.12891 7.19727H10.0244L11.665 17H10.7422L10.2705 14.0947H6.08691L4.37793 17H3.37305L9.12891 7.19727ZM10.1406 13.2812L9.4707 8.91309C9.4388 8.66699 9.42285 8.43229 9.42285 8.20898H9.39551L9.33398 8.35938C9.30664 8.43229 9.24284 8.56445 9.14258 8.75586C9.04232 8.94271 8.17415 10.4512 6.53809 13.2812H10.1406ZM12.5059 18.9414C13.1712 19.3288 13.8115 19.5225 14.4268 19.5225C15.2015 19.5225 15.819 19.3037 16.2793 18.8662C16.7396 18.4333 17.0859 17.7132 17.3184 16.7061L17.667 15.1338H17.6396C17.2432 15.8265 16.8444 16.3392 16.4434 16.6719C16.0423 17.0046 15.5889 17.1709 15.083 17.1709C14.4541 17.1709 13.9642 16.9521 13.6133 16.5146C13.2624 16.0771 13.0869 15.4414 13.0869 14.6074C13.0869 13.737 13.2692 12.9349 13.6338 12.2012C14.0029 11.4629 14.5111 10.8841 15.1582 10.4648C15.8053 10.041 16.5186 9.8291 17.2979 9.8291C17.6123 9.8291 17.9906 9.85645 18.4326 9.91113C18.8747 9.96126 19.2529 10.0205 19.5674 10.0889L18.207 16.501C17.9108 17.8636 17.4528 18.8343 16.833 19.4131C16.2178 19.9964 15.377 20.2881 14.3105 20.2881C13.6178 20.2881 12.9616 20.1195 12.3418 19.7822L12.5059 18.9414ZM18.5762 10.7246C18.1751 10.6289 17.7148 10.5811 17.1953 10.5811C16.6029 10.5811 16.0583 10.752 15.5615 11.0938C15.0693 11.431 14.6797 11.9072 14.3926 12.5225C14.11 13.1331 13.9688 13.8008 13.9688 14.5254C13.9688 15.7878 14.3949 16.4189 15.2471 16.4189C15.6436 16.4189 16.04 16.2526 16.4365 15.9199C16.8376 15.5827 17.193 15.1224 17.5029 14.5391C17.8128 13.9512 18.0293 13.3724 18.1523 12.8027L18.5762 10.7246Z" fill="#131313"/>
</svg>
