<svg width="24" height="24" viewBox="0 0 24 24" fill="none" xmlns="http://www.w3.org/2000/svg">
<path d="M10.1338 17L9.77148 14.5391H5.93652L4.56934 17H2.64844L8.39062 7.19727H10.3115L11.8633 17H10.1338ZM9.08789 9.14551V8.90625L9.10156 8.66699H9.06738C8.97624 8.94043 8.86914 9.19108 8.74609 9.41895L6.64062 13.1719H9.59375L9.11523 9.48047C9.09701 9.39844 9.08789 9.28678 9.08789 9.14551ZM14.6387 20.2881C13.8867 20.2881 13.1644 20.1149 12.4717 19.7686L12.7656 18.374C13.4173 18.7979 14.0827 19.0098 14.7617 19.0098C15.4681 19.0098 16.0286 18.8161 16.4434 18.4287C16.8581 18.0413 17.1543 17.4193 17.332 16.5625L17.5098 15.708H17.4824C17.1406 16.2412 16.7943 16.6195 16.4434 16.8428C16.097 17.0615 15.7119 17.1709 15.2881 17.1709C14.6318 17.1709 14.1146 16.943 13.7363 16.4873C13.3626 16.027 13.1758 15.3776 13.1758 14.5391C13.1758 13.6732 13.3649 12.8734 13.7432 12.1396C14.126 11.4014 14.6478 10.8317 15.3086 10.4307C15.9694 10.0296 16.7191 9.8291 17.5576 9.8291C18.3005 9.8291 19.2233 9.93392 20.3262 10.1436L19.0205 16.3301C18.8109 17.319 18.526 18.0869 18.166 18.6338C17.806 19.1807 17.3366 19.5931 16.7578 19.8711C16.1836 20.1491 15.4772 20.2881 14.6387 20.2881ZM18.4668 11.1689C18.1842 11.1006 17.8379 11.0664 17.4277 11.0664C16.9538 11.0664 16.5163 11.2168 16.1152 11.5176C15.7142 11.8184 15.3997 12.2262 15.1719 12.7412C14.9486 13.2562 14.8369 13.8167 14.8369 14.4229C14.8369 14.8923 14.9281 15.25 15.1104 15.4961C15.2926 15.7422 15.541 15.8652 15.8555 15.8652C16.1745 15.8652 16.4775 15.7559 16.7646 15.5371C17.0518 15.3184 17.3138 14.9788 17.5508 14.5186C17.7878 14.0583 17.9587 13.5752 18.0635 13.0693L18.4668 11.1689Z" fill="#131313"/>
</svg>
