<svg width="24" height="24" viewBox="0 0 24 24" fill="none" xmlns="http://www.w3.org/2000/svg">
<path d="M5.25977 14.792C5.18229 14.9834 4.94303 15.4072 4.54199 16.0635C4.14551 16.7152 3.86979 17.0775 3.71484 17.1504C3.5599 17.2279 3.42318 17.2666 3.30469 17.2666C3.14062 17.2666 2.94238 17.1777 2.70996 17C2.4821 16.8177 2.36816 16.6309 2.36816 16.4395C2.36816 16.2617 2.9401 15.3024 4.08398 13.5615C4.70833 12.609 5.27799 11.6657 5.79297 10.7314C6.82747 8.84473 7.45866 7.7487 7.68652 7.44336C7.91895 7.13346 8.15592 6.97852 8.39746 6.97852C8.78483 6.97852 9.0651 7.07878 9.23828 7.2793C9.32487 7.3431 9.36816 7.49577 9.36816 7.7373C9.36816 7.91504 9.35221 8.05859 9.32031 8.16797C10.1543 10.7109 10.806 12.5111 11.2754 13.5684C11.7493 14.6211 12.2233 15.3844 12.6973 15.8584C12.9342 16.0954 13.0778 16.2549 13.1279 16.3369C13.1826 16.4189 13.21 16.5283 13.21 16.665C13.21 16.9157 13.1188 17.1253 12.9365 17.2939C12.7542 17.4671 12.5378 17.5537 12.2871 17.5537C11.9408 17.5537 11.5876 17.3532 11.2275 16.9521C10.8721 16.5511 10.5348 15.9997 10.2158 15.2979C9.90137 14.596 9.74414 14.2018 9.74414 14.1152C9.74414 14.097 9.73275 14.0879 9.70996 14.0879C9.46387 14.0879 8.91471 14.1745 8.0625 14.3477C7.21484 14.5208 6.53353 14.6895 6.01855 14.8535C5.88639 14.8945 5.77018 14.915 5.66992 14.915C5.49219 14.915 5.35547 14.874 5.25977 14.792ZM9.19727 12.7002C9.08789 12.4313 8.76432 11.4743 8.22656 9.8291C8.17643 9.67871 8.14225 9.58301 8.12402 9.54199L6.18262 13.2334C6.46973 13.1833 6.76367 13.1377 7.06445 13.0967C7.26497 13.0739 7.77539 12.9782 8.5957 12.8096C8.79622 12.7686 8.99674 12.7321 9.19727 12.7002ZM18.9453 14.9082C18.4395 15.4779 17.8493 15.9473 17.1748 16.3164C16.5049 16.681 15.9261 16.8633 15.4385 16.8633C14.9554 16.8633 14.5794 16.722 14.3105 16.4395C14.0462 16.1569 13.9141 15.7673 13.9141 15.2705C13.9141 14.5641 14.1807 13.778 14.7139 12.9121C15.2516 12.0462 15.9945 11.2943 16.9424 10.6562C17.8949 10.0137 18.7516 9.69238 19.5127 9.69238C19.932 9.69238 20.2943 9.80632 20.5996 10.0342C20.6725 10.0889 20.7363 10.1344 20.791 10.1709C20.9004 10.2484 21.0007 10.3919 21.0918 10.6016C21.1875 10.8066 21.2354 10.973 21.2354 11.1006C21.2354 11.1826 21.1488 11.4583 20.9756 11.9277C20.7979 12.4154 20.6725 12.8893 20.5996 13.3496C20.5312 13.8053 20.3923 14.9469 20.1826 16.7744C19.9958 18.3649 19.5514 19.527 18.8496 20.2607C18.1478 20.9945 17.3685 21.3613 16.5117 21.3613C15.6139 21.3613 14.7412 21.0583 13.8936 20.4521C13.0505 19.8506 12.6289 19.3538 12.6289 18.9619C12.6289 18.6156 12.7975 18.4424 13.1348 18.4424C13.2669 18.4424 13.5358 18.5745 13.9414 18.8389C14.9805 19.5225 15.8714 19.8643 16.6143 19.8643C17.1794 19.8643 17.6533 19.5088 18.0361 18.7979C18.4189 18.0915 18.722 16.7949 18.9453 14.9082ZM19.1094 11.1074C18.7721 11.1074 18.3301 11.3102 17.7832 11.7158C17.2363 12.1169 16.7305 12.6592 16.2656 13.3428C15.8008 14.0264 15.5684 14.5938 15.5684 15.0449C15.5684 15.2819 15.6549 15.4004 15.8281 15.4004C16.416 15.4004 16.9993 15.1634 17.5781 14.6895C18.1569 14.2109 18.624 13.6618 18.9795 13.042C19.3395 12.4222 19.5195 11.9528 19.5195 11.6338C19.5195 11.4743 19.4785 11.3467 19.3965 11.251C19.3145 11.1553 19.2188 11.1074 19.1094 11.1074Z" fill="#131313"/>
</svg>
