<svg width="24" height="24" viewBox="0 0 24 24" fill="none" xmlns="http://www.w3.org/2000/svg">
<path d="M11.2559 16.7539L10.2578 13.6094H7.5918L6.60742 16.7539H4.95312L7.60547 8.50977C7.7513 8.05404 7.80599 7.79883 7.76953 7.74414C7.74219 7.68034 7.68294 7.63932 7.5918 7.62109C7.39128 7.56641 7.24544 7.50716 7.1543 7.44336C7.06315 7.37044 7.01758 7.25195 7.01758 7.08789C7.01758 6.81445 7.19987 6.67773 7.56445 6.67773H9.73828L13.0742 16.7539H11.2559ZM9.875 12.4336L8.9043 9.38477L7.96094 12.4336H9.875ZM14.6055 13.1992C14.6055 13.9193 14.7513 14.4661 15.043 14.8398C15.3438 15.2044 15.6582 15.3867 15.9863 15.3867C16.3783 15.3867 16.7064 15.2272 16.9707 14.9082C17.235 14.5801 17.3672 14.0605 17.3672 13.3496V12.4746C17.3672 11.8639 17.2259 11.3991 16.9434 11.0801C16.6699 10.7611 16.3418 10.6016 15.959 10.6016C15.6126 10.6016 15.2982 10.8021 15.0156 11.2031C14.7422 11.6042 14.6055 12.2695 14.6055 13.1992ZM17.3809 16.0703C17.0072 16.3711 16.5332 16.5215 15.959 16.5215C14.9655 16.5215 14.209 16.1888 13.6895 15.5234C13.1699 14.8581 12.9102 14.0742 12.9102 13.1719C12.9102 12.0417 13.1699 11.1348 13.6895 10.4512C14.209 9.75846 14.9245 9.41211 15.8359 9.41211C16.5013 9.41211 17.0299 9.5944 17.4219 9.95898C17.5221 9.71289 17.7591 9.58984 18.1328 9.58984H19.1445C19.5456 9.58984 19.7461 9.73568 19.7461 10.0273C19.7461 10.1823 19.6686 10.2871 19.5137 10.3418C19.3678 10.3965 19.2448 10.4375 19.1445 10.4648C19.1354 10.474 19.1172 10.5104 19.0898 10.5742C19.0716 10.6289 19.0625 10.834 19.0625 11.1895V16.3301C19.0625 17.1686 18.8164 17.8385 18.3242 18.3398C17.832 18.8411 17.0618 19.0918 16.0137 19.0918C15.0111 19.0918 14.3001 18.9004 13.8809 18.5176C13.4616 18.1439 13.2383 17.6107 13.2109 16.918H14.9062C14.9245 17.3099 15.0293 17.5879 15.2207 17.752C15.4121 17.916 15.6992 17.998 16.082 17.998C16.4375 17.998 16.7428 17.8659 16.998 17.6016C17.2533 17.3372 17.3809 16.9134 17.3809 16.3301V16.0703Z" fill="#131313"/>
</svg>
