<svg width="24" height="24" viewBox="0 0 24 24" fill="none" xmlns="http://www.w3.org/2000/svg">
<path d="M2.83301 17.001L7.4541 7.66992H10.2158L11.5898 17.001H9.17676L8.95117 14.8477H6.10742L5.12305 17.001H2.83301ZM8.52051 9.68652H8.39746L6.81152 13.2207H8.8418L8.52051 9.68652ZM16.0605 9.61816C16.4388 9.61816 16.7692 9.68424 17.0518 9.8164C17.3343 9.944 17.5645 10.1195 17.7422 10.3428C17.9199 10.5615 18.043 10.8076 18.1113 11.0811H18.207L18.4463 9.72753H20.627L19.335 17.1172C19.2347 17.6869 19.0228 18.1608 18.6992 18.5391C18.3802 18.9173 17.9632 19.1999 17.4482 19.3867C16.9333 19.5736 16.3363 19.667 15.6572 19.667C14.9326 19.667 14.3333 19.5622 13.8594 19.3526C13.39 19.1475 13.0391 18.8763 12.8066 18.5391C12.5742 18.2018 12.458 17.8441 12.458 17.4658C12.458 17.4157 12.4603 17.3747 12.4648 17.3428C12.4694 17.3155 12.4717 17.2972 12.4717 17.2881H14.4951C14.4997 17.3063 14.502 17.3246 14.502 17.3428C14.5065 17.3656 14.5133 17.3861 14.5225 17.4043C14.5635 17.6003 14.6979 17.7666 14.9258 17.9033C15.1536 18.0401 15.4316 18.1084 15.7598 18.1084C16.0697 18.1084 16.3226 18.0537 16.5186 17.9444C16.7191 17.8395 16.8763 17.6846 16.9902 17.4795C17.1042 17.2744 17.1862 17.0215 17.2363 16.7207L17.3936 15.7637H17.2773C17.1908 15.9551 17.0563 16.1306 16.874 16.2901C16.6963 16.4496 16.4753 16.5772 16.2109 16.6729C15.9512 16.7686 15.6549 16.8164 15.3223 16.8164C14.8483 16.8164 14.4268 16.7071 14.0576 16.4883C13.693 16.265 13.4059 15.946 13.1963 15.5313C12.9912 15.112 12.8887 14.6084 12.8887 14.0205C12.8887 13.9203 12.8955 13.7722 12.9092 13.5762C12.9229 13.3802 12.9479 13.1979 12.9844 13.0293L13.0732 12.5508C13.2145 11.8718 13.4333 11.3158 13.7295 10.8828C14.0257 10.4499 14.3743 10.1309 14.7754 9.92577C15.181 9.7207 15.6094 9.61816 16.0605 9.61816ZM17.8721 12.6328C17.8721 12.3731 17.8219 12.1452 17.7217 11.9492C17.626 11.7533 17.4915 11.6006 17.3184 11.4912C17.1452 11.3773 16.9401 11.3203 16.7031 11.3203C16.457 11.3203 16.236 11.3841 16.04 11.5117C15.8486 11.6393 15.6868 11.8216 15.5547 12.0586C15.4225 12.2956 15.3268 12.5804 15.2676 12.9131L15.1924 13.3574C15.1742 13.4304 15.1582 13.5261 15.1445 13.6446C15.1354 13.763 15.1309 13.8679 15.1309 13.959C15.1309 14.3464 15.2266 14.6722 15.418 14.9365C15.6139 15.1963 15.9102 15.3262 16.3066 15.3262C16.5436 15.3262 16.7578 15.267 16.9492 15.1485C17.1452 15.0254 17.3092 14.8454 17.4414 14.6084C17.5781 14.3714 17.6761 14.0798 17.7354 13.7334L17.8105 13.2617C17.8333 13.1387 17.8493 13.0156 17.8584 12.8926C17.8675 12.7696 17.8721 12.683 17.8721 12.6328Z" fill="#131313"/>
</svg>
