<svg width="24" height="24" viewBox="0 0 24 24" fill="none" xmlns="http://www.w3.org/2000/svg">
<path d="M3.30469 17.001L8.14453 7.66992H9.94238L11.5078 17.001H9.86719L9.49121 14.4102H6.2168L4.93164 17.001H3.30469ZM8.81445 9.29003H8.71191L6.79102 13.2139H9.35449L8.81445 9.29003ZM16.2451 9.67968C16.637 9.67968 16.9766 9.74576 17.2637 9.87792C17.5553 10.0101 17.7923 10.1878 17.9746 10.4112C18.1615 10.6345 18.2913 10.8828 18.3643 11.1563H18.4531L18.6992 9.78906H20.21L18.9521 16.9668C18.8473 17.5638 18.6491 18.0606 18.3574 18.4571C18.0658 18.8535 17.6829 19.1498 17.209 19.3457C16.7396 19.5462 16.179 19.6465 15.5273 19.6465C14.9076 19.6465 14.3789 19.544 13.9414 19.3389C13.5085 19.1384 13.1781 18.8786 12.9502 18.5596C12.7269 18.2406 12.6152 17.9011 12.6152 17.541C12.6152 17.5137 12.6152 17.4886 12.6152 17.4658C12.6198 17.4476 12.6221 17.4339 12.6221 17.4248H14.0713C14.0713 17.4385 14.0713 17.4522 14.0713 17.4658C14.0758 17.4795 14.0804 17.4932 14.085 17.5069C14.0986 17.7438 14.2445 17.9603 14.5225 18.1563C14.805 18.3568 15.165 18.4571 15.6025 18.4571C15.9945 18.4571 16.3203 18.391 16.5801 18.2588C16.8398 18.1267 17.0426 17.9284 17.1885 17.6641C17.3343 17.3998 17.4414 17.0762 17.5098 16.6934L17.6738 15.7227H17.5781C17.4915 15.9278 17.3571 16.1169 17.1748 16.2901C16.9971 16.4632 16.7738 16.6022 16.5049 16.7071C16.236 16.8073 15.9261 16.8574 15.5752 16.8574C15.124 16.8574 14.7048 16.7481 14.3174 16.5293C13.9346 16.3106 13.6247 15.9961 13.3877 15.586C13.1553 15.1712 13.0391 14.6745 13.0391 14.0957C13.0391 13.9772 13.0459 13.8223 13.0596 13.6309C13.0778 13.4349 13.1029 13.2617 13.1348 13.1114L13.2715 12.4209C13.3991 11.7829 13.611 11.2611 13.9072 10.8555C14.2035 10.4499 14.5544 10.1537 14.96 9.96679C15.3701 9.77538 15.7985 9.67968 16.2451 9.67968ZM18.125 12.6328C18.125 12.2728 18.0566 11.9652 17.9199 11.71C17.7832 11.4502 17.5964 11.252 17.3594 11.1153C17.1224 10.9785 16.8467 10.9102 16.5322 10.9102C16.2223 10.9102 15.9466 10.9854 15.7051 11.1358C15.4635 11.2862 15.2607 11.5003 15.0967 11.7783C14.9372 12.0563 14.821 12.3845 14.748 12.7627L14.6523 13.2822C14.6341 13.3688 14.6159 13.485 14.5977 13.6309C14.584 13.7722 14.5771 13.8884 14.5771 13.9795C14.5771 14.5309 14.7184 14.9593 15.001 15.2647C15.2835 15.57 15.6755 15.7227 16.1768 15.7227C16.473 15.7227 16.7419 15.6475 16.9834 15.4971C17.2295 15.3467 17.4368 15.1325 17.6055 14.8545C17.7786 14.5765 17.8971 14.2461 17.9609 13.8633L18.0635 13.2754C18.0954 13.1068 18.1136 12.9678 18.1182 12.8584C18.1227 12.7445 18.125 12.6693 18.125 12.6328Z" fill="#131313"/>
</svg>
