<svg width="24" height="24" viewBox="0 0 24 24" fill="none" xmlns="http://www.w3.org/2000/svg">
<path d="M5.69043 17L6.29883 14.8604H9.18359L9.78516 17H12.1914L9.2041 7.66895H6.44238L3.43457 17H5.69043ZM7.80957 9.69238L8.78027 13.2266H6.71582L7.70703 9.69238H7.80957ZM16.293 18.1348C15.6299 18.1348 15.1445 17.8613 15.0283 17.4033H12.9434C13.0117 18.6201 14.0098 19.6729 16.252 19.6729C17.9131 19.6729 19.8203 19.0098 19.8203 16.9385V9.69921H17.6465V10.8066H17.5508C17.2705 10.1094 16.5117 9.61719 15.4932 9.61719C13.8594 9.61719 12.793 10.8066 12.793 13.0693V13.4248C12.793 15.7012 13.8662 16.8838 15.4932 16.8838C16.5322 16.8838 17.2705 16.3848 17.5371 15.7354H17.6328V16.7539C17.6328 17.6357 17.1611 18.1348 16.293 18.1348ZM16.3545 11.3193C17.1201 11.3193 17.6328 11.9482 17.6328 13.1104V13.5205C17.6328 14.6895 17.1338 15.3184 16.3545 15.3184C15.5615 15.3184 15.0557 14.6895 15.0557 13.5205V13.1104C15.0557 11.9346 15.5615 11.3193 16.3545 11.3193Z" fill="#131313"/>
</svg>
