<svg width="24" height="24" viewBox="0 0 24 24" fill="none" xmlns="http://www.w3.org/2000/svg">
<path d="M10.1133 16.999L9.8125 14.2783H6.51758L5.23926 16.999H3.7627L8.61621 7.13477H10.2021L11.5557 16.999H10.1133ZM9.14258 8.71387L7.06445 13.123H9.68262L9.19043 8.71387H9.14258ZM15.9033 19.7949C14.1875 19.7949 12.957 18.9062 12.957 17.6758C12.957 17.6142 12.957 17.5459 12.957 17.5322H14.3105V17.6074C14.3311 18.2431 15.0557 18.7148 16.0127 18.7148C17.168 18.7148 17.8652 18.0996 18.0908 16.8965L18.3164 15.584H18.2207C17.8926 16.4111 17.0107 16.958 15.9922 16.958C14.5088 16.958 13.4492 15.8369 13.4492 14.2578C13.4492 13.9502 13.4902 13.5469 13.5381 13.2666L13.6816 12.3779C13.9893 10.5527 15.1582 9.42481 16.7305 9.42481C17.9404 9.42481 18.7744 10.0058 19.0137 11.0244H19.1094L19.3623 9.54786H20.7295L19.4375 16.958C19.1094 18.8105 17.8857 19.7949 15.9033 19.7949ZM17.0107 10.6279C16.0264 10.6279 15.2744 11.3525 15.0557 12.5351L14.9326 13.2392C14.8916 13.4785 14.8643 13.7929 14.8643 13.957C14.8643 15.0508 15.5342 15.748 16.5869 15.748C17.5645 15.748 18.3574 14.9961 18.5557 13.8955L18.7129 13C18.7539 12.7607 18.7744 12.5556 18.7744 12.4052C18.7744 11.3525 18.0498 10.6279 17.0107 10.6279Z" fill="#131313"/>
</svg>
