<svg width="24" height="24" viewBox="0 0 24 24" fill="none" xmlns="http://www.w3.org/2000/svg">
<path d="M10.2637 16.999L9.9082 14.1689H6.46973L5.10254 16.999H3.84473L8.7666 7.13477H10.0518L11.4668 16.999H10.2637ZM9.17676 8.58399L6.96875 13.1367H9.78516L9.21094 8.58399H9.17676ZM15.9102 19.7812C14.2559 19.7812 13.0596 18.8857 13.0596 17.6484C13.0596 17.6142 13.0596 17.5322 13.0596 17.5254H14.208V17.6142C14.2217 18.2978 14.9873 18.8105 16.0059 18.8105C17.2295 18.8105 17.9541 18.1611 18.1934 16.8691L18.4121 15.625H18.3301C17.9951 16.4385 17.127 16.9717 16.1084 16.9717C14.6182 16.9717 13.5312 15.8095 13.5312 14.2031C13.5312 13.9023 13.5723 13.4648 13.6201 13.1914L13.7637 12.3574C14.0713 10.5732 15.2471 9.45899 16.8193 9.45899C18.0566 9.45899 18.8975 10.0469 19.1162 11.0791H19.1982L19.458 9.58204H20.6201L19.3281 16.9511C19 18.8105 17.8379 19.7812 15.9102 19.7812ZM16.9902 10.5185C15.9375 10.5185 15.1377 11.2978 14.9053 12.5556L14.7891 13.2051C14.748 13.4443 14.7139 13.7929 14.7139 13.9638C14.7139 15.167 15.4248 15.9121 16.5596 15.9121C17.5986 15.9121 18.4531 15.1123 18.665 13.9365L18.8154 13.0615C18.8564 12.8291 18.877 12.6035 18.877 12.4463C18.877 11.3115 18.1045 10.5185 16.9902 10.5185Z" fill="#131313"/>
</svg>
