<svg width="24" height="24" viewBox="0 0 24 24" fill="none" xmlns="http://www.w3.org/2000/svg">
<path d="M3.3252 17H5.49219L6.2373 14.6074H9.72363L10.4688 17H12.6357L9.19727 7.13574H6.77051L3.3252 17ZM7.95996 9.0498H8.00098L9.24512 13.0625H6.71582L7.95996 9.0498ZM16.6279 19.543C18.8291 19.543 20.2031 18.4287 20.2031 16.7949V9.67188H18.207V10.9229H18.166C17.7695 10.0684 16.9697 9.52148 15.9375 9.52148C14.085 9.52148 12.9365 10.9092 12.9365 13.2471V13.2539C12.9365 15.5303 14.0713 16.8975 15.9033 16.8975C16.9629 16.8975 17.7832 16.4121 18.166 15.6465H18.207V16.7676C18.207 17.5879 17.6602 18.1211 16.6279 18.1211C15.7939 18.1211 15.2607 17.8066 15.1035 17.4443L15.083 17.3965H13.1416L13.1484 17.458C13.3398 18.6338 14.6113 19.543 16.6279 19.543ZM16.5938 15.4346C15.5957 15.4346 14.9668 14.6211 14.9668 13.3018V13.2949C14.9668 11.9824 15.6025 11.1758 16.5938 11.1758C17.5645 11.1758 18.2139 11.9893 18.2139 13.2949V13.3018C18.2139 14.6143 17.5713 15.4346 16.5938 15.4346Z" fill="#131313"/>
</svg>
