<svg width="24" height="24" viewBox="0 0 24 24" fill="none" xmlns="http://www.w3.org/2000/svg">
<path d="M6.83984 16.999L8.80859 7.13477H9.86133V8.49512H9.49902L7.98828 16.999H6.83984ZM7.88574 14.5176L8.09082 13.5537H10.9209L11.1328 14.5176H7.88574ZM11.0371 16.999L9.52637 8.49512V7.13477H10.2168L12.1924 16.999H11.0371ZM15.4873 19.5967C15.0589 19.5967 14.6829 19.5237 14.3594 19.3779C14.0358 19.2321 13.7829 19.0202 13.6006 18.7422C13.4183 18.4642 13.3249 18.1315 13.3203 17.7441V17.5049H14.4072V17.7441C14.4118 18.0312 14.5098 18.25 14.7012 18.4004C14.8971 18.5508 15.1569 18.626 15.4805 18.626C15.8177 18.626 16.0752 18.5439 16.2529 18.3799C16.4352 18.2204 16.5264 17.9834 16.5264 17.6689V16.1377H16.4922C16.4193 16.3063 16.3145 16.4567 16.1777 16.5888C16.041 16.721 15.877 16.8258 15.6855 16.9033C15.4987 16.9762 15.2799 17.0127 15.0293 17.0127C14.6556 17.0127 14.3298 16.9261 14.0518 16.7529C13.7783 16.5752 13.5664 16.3314 13.416 16.0215C13.2656 15.707 13.1904 15.3447 13.1904 14.9345V11.626C13.1904 11.2112 13.2633 10.8467 13.4092 10.5322C13.5596 10.2178 13.7715 9.97396 14.0449 9.80079C14.3229 9.62761 14.651 9.54102 15.0293 9.54102C15.2663 9.54102 15.4805 9.5752 15.6719 9.64356C15.8633 9.71192 16.0273 9.81218 16.1641 9.94434C16.3008 10.0765 16.4102 10.2405 16.4922 10.4365H16.5264V9.62305H17.6201V17.8193C17.6201 18.1657 17.5335 18.471 17.3604 18.7353C17.1872 19.0042 16.9388 19.2138 16.6152 19.3642C16.2962 19.5192 15.9202 19.5967 15.4873 19.5967ZM15.4053 16.0488C15.6377 16.0488 15.8359 15.9987 16 15.8984C16.1686 15.7982 16.2985 15.6592 16.3896 15.4814C16.4808 15.2991 16.5264 15.0941 16.5264 14.8662V11.7353C16.5264 11.4892 16.4808 11.2728 16.3896 11.0859C16.2985 10.8991 16.1686 10.7555 16 10.6552C15.8359 10.555 15.64 10.5049 15.4121 10.5049C15.1888 10.5049 14.9951 10.555 14.8311 10.6552C14.667 10.7555 14.5394 10.8968 14.4482 11.0791C14.3571 11.2614 14.3115 11.4801 14.3115 11.7353V14.8662C14.3115 15.1032 14.3571 15.3105 14.4482 15.4883C14.5394 15.666 14.667 15.805 14.8311 15.9052C14.9951 16.001 15.1865 16.0488 15.4053 16.0488Z" fill="#131313"/>
</svg>
