<svg width="24" height="24" viewBox="0 0 24 24" fill="none" xmlns="http://www.w3.org/2000/svg">
<path d="M4.72656 17.1025C4.87012 17.1025 4.94531 17.041 5.00684 16.877L6.19629 13.7119H10.6191L11.8154 16.877C11.8701 17.0342 11.9521 17.1025 12.0889 17.1025C12.2529 17.1025 12.3623 17 12.3623 16.8496C12.3623 16.8086 12.3486 16.7471 12.3281 16.6787L8.73926 7.28613C8.6709 7.1084 8.5752 7.0332 8.41113 7.0332C8.24707 7.0332 8.14453 7.11523 8.07617 7.29297L4.49414 16.6787C4.4668 16.7607 4.45312 16.8086 4.45312 16.8564C4.45312 17 4.5625 17.1025 4.72656 17.1025ZM6.37402 13.2266L8.39062 7.83984H8.4248L10.4482 13.2266H6.37402ZM15.9717 19.5635C17.8242 19.5703 18.9727 18.5107 18.9727 16.918V10.0615C18.9727 9.89062 18.8564 9.78125 18.7061 9.78125C18.5557 9.78125 18.4395 9.89062 18.4395 10.0615V11.7432H18.4258C18.0977 10.6699 17.127 9.78125 15.7803 9.78125C14.0098 9.78125 12.7861 11.251 12.7861 13.4385C12.7861 15.6191 14.0029 17.0889 15.7734 17.0889C17.0996 17.0889 18.1113 16.2207 18.4258 15.1133H18.4395V16.9385C18.4395 18.2373 17.5029 19.1055 15.9922 19.0986C14.8369 19.0986 14.0986 18.5586 13.7432 17.8613C13.668 17.7314 13.5996 17.6768 13.4971 17.6768C13.3398 17.6768 13.2441 17.7725 13.2441 17.916C13.2441 17.998 13.2646 18.0732 13.3125 18.1553C13.668 18.9346 14.6045 19.5635 15.9717 19.5635ZM15.8555 16.6104C14.3447 16.6104 13.3193 15.3389 13.3193 13.4453C13.3193 11.5381 14.3447 10.2598 15.8555 10.2598C17.373 10.2598 18.4395 11.5586 18.4395 13.4385C18.4395 15.3115 17.3799 16.6104 15.8555 16.6104Z" fill="#131313"/>
</svg>
