<svg width="24" height="24" viewBox="0 0 24 24" fill="none" xmlns="http://www.w3.org/2000/svg">
<path d="M10.1816 16.999L9.78516 14.1758H5.82715L4.24121 16.999H2.92188L8.69824 7.13477H9.83984L11.3848 16.999H10.1816ZM8.88965 8.74805L6.41504 13.1299H9.64844L8.99902 8.74805H8.88965ZM15.3086 19.8222C13.5996 19.8222 12.4102 18.8447 12.3213 17.7236H13.5723C13.6748 18.3115 14.3242 18.8037 15.4043 18.8037C16.7236 18.8037 17.4277 18.1133 17.6533 17.1494L17.9746 15.7822H17.8652C17.332 16.5273 16.5664 16.8896 15.6367 16.8896C14.1396 16.8896 12.957 15.7002 12.957 13.9433C12.957 11.3183 14.5361 9.50001 16.6211 9.50001C17.6602 9.50001 18.6309 10.122 18.9248 10.9902H19.0342L19.3213 9.62989H20.4629L18.7949 17.3545C18.4736 18.8584 17.2227 19.8222 15.3086 19.8222ZM15.999 15.8506C17.4824 15.8506 18.6035 14.5449 18.6035 12.5967C18.6035 11.3457 17.8652 10.5595 16.71 10.5595C15.2471 10.5595 14.1875 11.8105 14.1875 13.7656C14.1875 15.0781 14.8848 15.8506 15.999 15.8506Z" fill="#131313"/>
</svg>
