<svg width="24" height="24" viewBox="0 0 24 24" fill="none" xmlns="http://www.w3.org/2000/svg">
<path d="M6.60645 16.999L8.58887 7.13477H9.38867V8.18751H9.11523L7.47461 16.999H6.60645ZM7.56348 14.3467L7.72754 13.6015H10.5098L10.6807 14.3467H7.56348ZM10.7764 16.999L9.14258 8.18751V7.13477H9.66211L11.6514 16.999H10.7764ZM14.8574 19.5967C14.4609 19.5967 14.1123 19.526 13.8115 19.3847C13.5107 19.248 13.2738 19.0475 13.1006 18.7832C12.932 18.5189 12.8454 18.2021 12.8408 17.833V17.5664H13.668V17.833C13.6771 18.152 13.7865 18.4004 13.9961 18.5781C14.2103 18.7604 14.4928 18.8515 14.8438 18.8515C15.2174 18.8515 15.5046 18.7513 15.7051 18.5508C15.9056 18.3548 16.0059 18.07 16.0059 17.6963V16.124H15.9717C15.8988 16.2926 15.7962 16.4453 15.6641 16.582C15.5319 16.7187 15.3701 16.8281 15.1787 16.9101C14.9873 16.9922 14.764 17.0332 14.5088 17.0332C14.1442 17.0332 13.8252 16.9489 13.5518 16.7802C13.2829 16.6071 13.0732 16.3701 12.9229 16.0693C12.777 15.764 12.7041 15.4062 12.7041 14.9961V11.5918C12.7041 11.1862 12.777 10.8307 12.9229 10.5254C13.0732 10.2155 13.2829 9.97624 13.5518 9.80762C13.8206 9.639 14.1396 9.55469 14.5088 9.55469C14.7549 9.55469 14.9736 9.59343 15.165 9.67091C15.3564 9.74382 15.5182 9.84864 15.6504 9.98536C15.7871 10.122 15.8942 10.2861 15.9717 10.4775H15.999V9.62989H16.833V17.8603C16.833 18.2021 16.751 18.5029 16.5869 18.7627C16.4274 19.0224 16.1973 19.2252 15.8965 19.3711C15.6003 19.5215 15.2539 19.5967 14.8574 19.5967ZM14.7686 16.2881C15.0101 16.2881 15.2243 16.2334 15.4111 16.124C15.598 16.0146 15.7438 15.8597 15.8486 15.6592C15.9535 15.4541 16.0059 15.2171 16.0059 14.9482V11.6806C16.0059 11.3935 15.9535 11.1474 15.8486 10.9424C15.7438 10.7327 15.598 10.5732 15.4111 10.4638C15.2288 10.3499 15.0169 10.2929 14.7754 10.2929C14.5339 10.2929 14.3197 10.3476 14.1328 10.457C13.9505 10.5664 13.807 10.7259 13.7021 10.9355C13.6019 11.1406 13.5518 11.389 13.5518 11.6806V14.9482C13.5518 15.2217 13.6019 15.4586 13.7021 15.6592C13.807 15.8597 13.9505 16.0146 14.1328 16.124C14.3197 16.2334 14.5316 16.2881 14.7686 16.2881Z" fill="#131313"/>
</svg>
