<svg width="24" height="24" viewBox="0 0 24 24" fill="none" xmlns="http://www.w3.org/2000/svg">
<path d="M8.94434 16.999L8.79395 14.832H5.56055L4.45312 16.999H1.8623L7.37891 7.13477H10.4209L11.5625 16.999H8.94434ZM8.31543 9.36329L6.44238 13.0273H8.71875L8.45216 9.36329H8.31543ZM15.9375 19.8633C13.7295 19.8633 12.2666 18.8789 12.3213 17.5049H14.6865C14.7139 17.9492 15.2334 18.25 16.0811 18.25C16.9834 18.25 17.4961 17.8398 17.6533 17.1152L17.9404 15.7959H17.8105C17.3457 16.4726 16.5664 16.8349 15.5957 16.8349C14.085 16.8349 13.0254 15.7138 13.0254 14.0322C13.0254 11.373 14.707 9.27442 16.7988 9.27442C17.8379 9.27442 18.6855 9.82813 18.9521 10.6894H19.082L19.3691 9.39063H21.7275L20.0391 17.2793C19.6973 18.8994 18.1797 19.8633 15.9375 19.8633ZM16.7305 15.1943C17.7354 15.1943 18.5762 14.0527 18.5762 12.6513C18.5762 11.7763 18.0908 11.209 17.332 11.209C16.3066 11.209 15.5 12.289 15.5 13.7314C15.5 14.6269 15.9854 15.1943 16.7305 15.1943Z" fill="#131313"/>
</svg>
