<svg width="24" height="24" viewBox="0 0 24 24" fill="none" xmlns="http://www.w3.org/2000/svg">
<g clip-path="url(#clip0_538_356)">
<mask id="mask0_538_356" style="mask-type:luminance" maskUnits="userSpaceOnUse" x="0" y="0" width="24" height="24">
<path d="M24 0H0V24H24V0Z" fill="white"/>
</mask>
<g mask="url(#mask0_538_356)">
<path d="M2 16.6548L6.15449 8H7.97323V9.65539H7.34671L4.12287 16.6548H2ZM4.03163 14.5496L4.65207 13.1761H10.0475L10.6557 14.5496H4.03163ZM10.6314 16.6548L7.40145 9.65539V8H8.59367L12.7482 16.6548H10.6314ZM17.7664 19C17.0243 19 16.3796 18.92 15.8321 18.76C15.2847 18.6001 14.8406 18.3742 14.5 18.0823C14.1634 17.7944 13.9424 17.4525 13.8369 17.0567L13.8187 17.0087H15.8138L15.8321 17.0446C15.9578 17.2566 16.1828 17.4246 16.5073 17.5485C16.8358 17.6724 17.2595 17.7345 17.7785 17.7345C18.5368 17.7345 19.1086 17.5925 19.4939 17.3086C19.8791 17.0246 20.0718 16.6188 20.0718 16.091V15.2213H20.0109C19.8406 15.4812 19.6156 15.7092 19.3357 15.9051C19.06 16.0971 18.7356 16.245 18.3625 16.349C17.9935 16.4529 17.5798 16.5069 17.1217 16.5108C16.408 16.5108 15.7834 16.3729 15.2482 16.0971C14.7129 15.8171 14.2972 15.4332 14.0012 14.9455C13.7092 14.4577 13.5632 13.8978 13.5632 13.2661V13.254C13.5632 12.6063 13.7113 12.0325 14.0073 11.5327C14.3033 11.0328 14.717 10.643 15.2482 10.3631C15.7834 10.0792 16.412 9.93729 17.1338 9.93729C17.5879 9.93729 18.0016 9.99527 18.3747 10.1112C18.7477 10.2272 19.0722 10.3871 19.3479 10.5911C19.6278 10.7909 19.8507 11.0249 20.017 11.2928H20.0656V10.0812H22V16.0311C22 16.6548 21.8337 17.1886 21.5012 17.6325C21.1686 18.0763 20.6861 18.4142 20.0535 18.6461C19.425 18.882 18.6626 19 17.7664 19ZM17.7907 15.1974C18.253 15.1974 18.6545 15.1174 18.9951 14.9574C19.3398 14.7935 19.6054 14.5676 19.7919 14.2797C19.9825 13.9918 20.0778 13.654 20.0778 13.2661V13.2481C20.0778 12.8642 19.9825 12.5263 19.7919 12.2344C19.6054 11.9425 19.3398 11.7166 18.9951 11.5567C18.6545 11.3968 18.253 11.3168 17.7907 11.3168C17.3285 11.3168 16.929 11.3968 16.5924 11.5567C16.2559 11.7126 15.9943 11.9345 15.8078 12.2224C15.6253 12.5104 15.5341 12.8522 15.5341 13.2481V13.2661C15.5341 13.6619 15.6253 14.0038 15.8078 14.2917C15.9943 14.5796 16.2559 14.8035 16.5924 14.9635C16.929 15.1194 17.3285 15.1974 17.7907 15.1974Z" fill="#131313"/>
</g>
</g>
<defs>
<clipPath id="clip0_538_356">
<rect width="24" height="24" fill="white"/>
</clipPath>
</defs>
</svg>
