<svg width="24" height="24" viewBox="0 0 24 24" fill="none" xmlns="http://www.w3.org/2000/svg">
<path d="M4.2334 17.0003C4.2972 16.7907 4.39746 16.4443 4.53418 15.9612C4.68001 15.4782 4.86686 14.79 5.09473 13.8968C5.32259 12.9944 5.60059 11.8506 5.92871 10.4651C6.26595 9.07975 6.65788 7.37532 7.10449 5.35188C7.15918 5.26074 7.23665 5.20149 7.33691 5.17415C7.43717 5.13769 7.53743 5.12858 7.6377 5.1468C7.73796 5.15592 7.81999 5.18782 7.88379 5.24251C7.95671 5.28808 7.98861 5.34277 7.97949 5.40657L10.6729 11.9554L12.0674 11.5315C12.1859 11.5315 12.2861 11.5635 12.3682 11.6273C12.4502 11.6911 12.4958 11.7685 12.5049 11.8597C12.514 11.9508 12.4821 12.0511 12.4092 12.1605C12.3363 12.2607 12.2087 12.3427 12.0264 12.4065C11.9535 12.4339 11.8577 12.4658 11.7393 12.5023C11.6208 12.5296 11.5023 12.5569 11.3838 12.5843C11.2653 12.6116 11.165 12.639 11.083 12.6663C11.001 12.6937 10.96 12.721 10.96 12.7483L12.4775 16.7952C12.4593 16.8408 12.4411 16.9 12.4229 16.973C12.4046 17.0368 12.3682 17.0869 12.3135 17.1233C12.2588 17.1689 12.1768 17.1826 12.0674 17.1644C11.958 17.1552 11.8031 17.0914 11.6025 16.973L10.0303 12.9534C9.83887 13.0081 9.60189 13.0628 9.31934 13.1175C9.03678 13.1631 8.74056 13.2132 8.43066 13.2679C8.12077 13.3135 7.80632 13.3727 7.4873 13.4456C7.17741 13.5094 6.8903 13.5914 6.62598 13.6917C6.36165 13.792 6.13835 13.915 5.95605 14.0608C5.77376 14.1976 5.66439 14.3662 5.62793 14.5667C5.6097 14.6943 5.57324 14.9039 5.51855 15.1956C5.47298 15.4873 5.42741 15.7789 5.38184 16.0706C5.32715 16.417 5.26335 16.7907 5.19043 17.1917C5.02637 17.3558 4.87598 17.4105 4.73926 17.3558C4.61165 17.3011 4.44303 17.1826 4.2334 17.0003ZM7.66504 6.85579L6.21582 12.9398C6.37077 12.8851 6.58496 12.8258 6.8584 12.762C7.13184 12.6982 7.42806 12.6299 7.74707 12.5569C8.06608 12.484 8.38509 12.4111 8.7041 12.3382C9.03223 12.2653 9.32845 12.1878 9.59277 12.1058L7.66504 6.85579ZM13.626 20.5413C14.3005 20.5049 14.8747 20.359 15.3486 20.1038C15.8226 19.8577 16.2145 19.5296 16.5244 19.1194C16.8343 18.7093 17.0667 18.2308 17.2217 17.6839C17.3766 17.137 17.4769 16.5446 17.5225 15.9065C17.5498 15.4964 17.5635 15.1364 17.5635 14.8265C17.5726 14.5075 17.568 14.2204 17.5498 13.9651C17.5407 13.7008 17.527 13.4502 17.5088 13.2132C17.4906 12.9762 17.4723 12.7301 17.4541 12.4749C17.4359 12.2197 17.4176 11.9463 17.3994 11.6546C17.3903 11.3538 17.3857 11.012 17.3857 10.6292C16.9482 11.9144 16.5381 12.9489 16.1553 13.7327C15.7725 14.5166 15.4124 15.109 15.0752 15.5101C14.7471 15.9111 14.4463 16.1526 14.1729 16.2347C13.9085 16.3167 13.6761 16.303 13.4756 16.1937C13.2751 16.0752 13.111 15.8883 12.9834 15.6331C12.8558 15.3688 12.7692 15.0999 12.7236 14.8265C12.7419 14.3707 12.8285 13.8694 12.9834 13.3226C13.1383 12.7666 13.3434 12.2243 13.5986 11.6956C13.8538 11.1579 14.1501 10.6611 14.4873 10.2054C14.8245 9.74055 15.1891 9.37141 15.5811 9.09798C15.973 8.82454 16.374 8.66959 16.7842 8.63313C17.2035 8.59667 17.6227 8.73795 18.042 9.05696C18.0511 9.04785 18.0602 9.14811 18.0693 9.35774C18.0876 9.56738 18.1058 9.84993 18.124 10.2054C18.1514 10.5608 18.1742 10.9756 18.1924 11.4495C18.2197 11.9144 18.2471 12.402 18.2744 12.9124C18.3018 13.4228 18.3245 13.9332 18.3428 14.4437C18.3701 14.9541 18.3975 15.428 18.4248 15.8655C18.4339 16.7132 18.3063 17.4925 18.042 18.2034C17.7777 18.9144 17.4222 19.5159 16.9756 20.0081C16.5381 20.5003 16.0322 20.8603 15.458 21.0882C14.8929 21.3161 14.3096 21.3707 13.708 21.2523C13.6807 21.2523 13.6351 21.234 13.5713 21.1976C13.5166 21.1611 13.471 21.111 13.4346 21.0472C13.4072 20.9834 13.4027 20.9059 13.4209 20.8148C13.4391 20.7327 13.5075 20.6416 13.626 20.5413ZM13.4482 14.8401C13.5485 15.1683 13.6807 15.3323 13.8447 15.3323C14.0088 15.3232 14.1911 15.2047 14.3916 14.9769C14.6012 14.7399 14.82 14.4209 15.0479 14.0198C15.2757 13.6188 15.5036 13.1813 15.7314 12.7073C15.9684 12.2243 16.1963 11.7366 16.415 11.2444C16.6338 10.7431 16.8389 10.2829 17.0303 9.86361C17.0303 9.75423 17.0029 9.65397 16.9482 9.56282C16.9027 9.46256 16.7933 9.43066 16.6201 9.46712C16.3376 9.5218 16.0596 9.66308 15.7861 9.89094C15.5218 10.1097 15.2712 10.3786 15.0342 10.6976C14.7972 11.0075 14.5785 11.3538 14.3779 11.7366C14.1865 12.1103 14.0225 12.4886 13.8857 12.8714C13.749 13.2451 13.6396 13.6051 13.5576 13.9515C13.4847 14.2978 13.4482 14.5941 13.4482 14.8401Z" fill="#131313"/>
</svg>
