<svg width="24" height="24" viewBox="0 0 24 24" fill="none" xmlns="http://www.w3.org/2000/svg">
<path d="M12.931 16.6217C12.9683 16.6217 12.9917 16.645 13.001 16.6917C13.0103 16.729 13.015 16.771 13.015 16.8177C13.015 16.939 12.987 16.9997 12.931 16.9997H8.745C8.67967 16.9997 8.647 16.939 8.647 16.8177C8.647 16.7524 8.65167 16.7057 8.661 16.6777C8.67967 16.6404 8.70767 16.6217 8.745 16.6217C9.109 16.6217 9.41233 16.5704 9.655 16.4677C9.907 16.3557 10.033 16.1737 10.033 15.9217C10.033 15.8004 10.005 15.665 9.949 15.5157L9.207 13.3737H5.455C5.21233 14.027 4.99767 14.6384 4.811 15.2077C4.73633 15.4317 4.699 15.6184 4.699 15.7677C4.699 16.337 5.15167 16.6217 6.057 16.6217C6.09433 16.6217 6.11767 16.645 6.127 16.6917C6.13633 16.729 6.141 16.771 6.141 16.8177C6.141 16.939 6.113 16.9997 6.057 16.9997H2.571C2.50567 16.9997 2.473 16.939 2.473 16.8177C2.473 16.687 2.50567 16.6217 2.571 16.6217C2.86033 16.6217 3.14033 16.5237 3.411 16.3277C3.691 16.1317 3.91967 15.8144 4.097 15.3757C4.14367 15.2637 4.867 13.3597 6.267 9.66366L7.359 6.76566L8.087 6.55566C8.18967 6.55566 8.255 6.60233 8.283 6.69566L8.843 8.30566C9.16033 9.21099 9.557 10.3637 10.033 11.7637C10.5183 13.1544 10.9477 14.3677 11.321 15.4037C11.5077 15.8797 11.727 16.2017 11.979 16.3697C12.2403 16.5377 12.5577 16.6217 12.931 16.6217ZM9.025 12.8417L7.387 8.10966C7.163 8.69766 6.58433 10.275 5.651 12.8417H9.025ZM20.5808 9.71966C20.8048 9.71966 20.9775 9.78966 21.0988 9.92966C21.2295 10.0604 21.2948 10.205 21.2948 10.3637C21.2948 10.5317 21.2388 10.6764 21.1268 10.7977C21.0241 10.919 20.8655 10.9797 20.6508 10.9797C20.5575 10.9797 20.4268 10.9424 20.2588 10.8677C20.0815 10.8024 19.9508 10.7697 19.8668 10.7697C19.7735 10.7697 19.6708 10.807 19.5588 10.8817C19.4468 10.9564 19.3441 11.0497 19.2508 11.1617C19.5681 11.5537 19.7268 12.0017 19.7268 12.5057C19.7268 12.8417 19.6428 13.1917 19.4748 13.5557C19.3068 13.9197 19.0175 14.2324 18.6068 14.4937C18.1961 14.755 17.6548 14.8857 16.9828 14.8857C16.6841 14.8857 16.3855 14.8484 16.0868 14.7737C15.9001 14.8484 15.7461 14.9324 15.6248 15.0257C15.5128 15.119 15.4568 15.1984 15.4568 15.2637C15.4568 15.3384 15.5175 15.4037 15.6388 15.4597C15.7695 15.5064 16.0168 15.5624 16.3808 15.6277C16.7728 15.693 17.2535 15.7864 17.8228 15.9077C18.4015 16.029 18.8635 16.141 19.2088 16.2437C19.6288 16.365 19.9695 16.5424 20.2308 16.7757C20.5015 17.009 20.6368 17.303 20.6368 17.6577C20.6368 18.1244 20.4408 18.5117 20.0488 18.8197C19.6661 19.1277 19.1855 19.347 18.6068 19.4777C18.0281 19.6177 17.4541 19.6877 16.8848 19.6877C16.1475 19.6877 15.5361 19.599 15.0508 19.4217C14.5655 19.2444 14.2108 19.025 13.9868 18.7637C13.7628 18.5024 13.6508 18.2457 13.6508 17.9937C13.6508 17.6857 13.8001 17.429 14.0988 17.2237C14.3975 17.0184 14.8735 16.7944 15.5268 16.5517C15.0975 16.4677 14.7755 16.351 14.5608 16.2017C14.3461 16.043 14.2388 15.8704 14.2388 15.6837C14.2388 15.497 14.3555 15.3197 14.5888 15.1517C14.8221 14.9837 15.1535 14.8017 15.5828 14.6057C15.1348 14.4097 14.7801 14.125 14.5188 13.7517C14.2668 13.3784 14.1408 12.963 14.1408 12.5057C14.1408 12.0577 14.2668 11.6517 14.5188 11.2877C14.7708 10.9237 15.1068 10.639 15.5268 10.4337C15.9468 10.2284 16.3995 10.1257 16.8848 10.1257C17.3048 10.1257 17.6968 10.1957 18.0608 10.3357C18.4248 10.4664 18.7375 10.653 18.9988 10.8957C19.1948 10.5784 19.4281 10.303 19.6988 10.0697C19.9788 9.83633 20.2728 9.71966 20.5808 9.71966ZM16.9408 14.4377C17.4635 14.4377 17.8555 14.237 18.1168 13.8357C18.3781 13.4344 18.5088 12.963 18.5088 12.4217C18.5088 11.927 18.3781 11.4977 18.1168 11.1337C17.8555 10.7604 17.4588 10.5737 16.9268 10.5737C16.3761 10.5737 15.9748 10.7744 15.7228 11.1757C15.4708 11.577 15.3448 12.025 15.3448 12.5197C15.3448 13.0424 15.4755 13.495 15.7368 13.8777C15.9981 14.251 16.3995 14.4377 16.9408 14.4377ZM19.5308 18.0077C19.5308 17.681 19.2368 17.4244 18.6488 17.2377C18.1261 17.0604 17.3095 16.8737 16.1988 16.6777C15.7975 16.855 15.4521 17.0557 15.1628 17.2797C14.8828 17.513 14.7428 17.751 14.7428 17.9937C14.7428 18.3764 14.9715 18.675 15.4288 18.8897C15.8955 19.1044 16.4788 19.2117 17.1788 19.2117C17.6828 19.2117 18.1121 19.1464 18.4668 19.0157C18.8215 18.8944 19.0875 18.7404 19.2648 18.5537C19.4421 18.367 19.5308 18.185 19.5308 18.0077Z" fill="#131313"/>
</svg>
