<svg width="24" height="24" viewBox="0 0 24 24" fill="none" xmlns="http://www.w3.org/2000/svg">
<path d="M7.79103 7.43848C7.87036 7.42448 7.96603 7.41515 8.07803 7.41048C8.1947 7.40115 8.29503 7.39648 8.37903 7.39648C8.45836 7.39648 8.55403 7.40115 8.66603 7.41048C8.7827 7.41515 8.86903 7.42448 8.92503 7.43848L12.145 16.9445C12.0704 16.9912 11.9817 17.0262 11.879 17.0495C11.781 17.0728 11.669 17.0845 11.543 17.0845C11.3844 17.0845 11.2607 17.0495 11.172 16.9795C11.088 16.9048 11.011 16.7672 10.941 16.5665L9.05103 10.8545C8.91103 10.4392 8.77803 10.0285 8.65203 9.62248C8.52603 9.21181 8.42103 8.85248 8.33703 8.54448H8.26703C8.19703 8.81048 8.11536 9.10215 8.02203 9.41948C7.93336 9.73215 7.86103 9.97715 7.80503 10.1545L5.55103 17.0145C5.49036 17.0285 5.42036 17.0378 5.34103 17.0425C5.2617 17.0518 5.18236 17.0565 5.10303 17.0565C5.00036 17.0565 4.9117 17.0495 4.83703 17.0355C4.76703 17.0215 4.69236 17.0052 4.61303 16.9865L4.58503 16.9445L7.79103 7.43848ZM7.37103 14.4945C7.34303 14.4945 7.24736 14.4945 7.08403 14.4945C6.9207 14.4898 6.75503 14.4875 6.58703 14.4875C6.4237 14.4828 6.3257 14.4805 6.29303 14.4805H5.91503L6.23703 13.6125H6.57303C6.6057 13.6125 6.69203 13.6125 6.83203 13.6125C6.97203 13.6078 7.1097 13.6055 7.24503 13.6055C7.38503 13.6008 7.46903 13.5985 7.49703 13.5985H9.13503C9.16303 13.5985 9.24703 13.6008 9.38703 13.6055C9.5317 13.6055 9.67636 13.6078 9.82103 13.6125C9.9657 13.6125 10.0544 13.6125 10.087 13.6125H10.423L10.717 14.4805H10.339C10.3064 14.4805 10.206 14.4828 10.038 14.4875C9.87003 14.4875 9.70203 14.4898 9.53403 14.4945C9.3707 14.4945 9.27503 14.4945 9.24703 14.4945H7.37103ZM18.9328 10.5465C18.7602 10.7145 18.6505 10.9362 18.6038 11.2115C18.5618 11.4822 18.5408 11.7692 18.5408 12.0725V16.5105C18.5408 16.9725 18.5198 17.3715 18.4778 17.7075C18.4358 18.0435 18.3682 18.3328 18.2748 18.5755C18.1815 18.8182 18.0602 19.0305 17.9108 19.2125C17.7242 19.4412 17.4512 19.6418 17.0918 19.8145C16.7325 19.9918 16.3008 20.0805 15.7968 20.0805C15.3722 20.0805 14.9568 20.0315 14.5508 19.9335C14.1448 19.8402 13.7948 19.7305 13.5008 19.6045C13.5102 19.4692 13.5405 19.3292 13.5918 19.1845C13.6432 19.0398 13.7062 18.9232 13.7808 18.8345C14.0702 18.9745 14.3992 19.0842 14.7678 19.1635C15.1365 19.2428 15.4468 19.2825 15.6988 19.2825C16.2588 19.2825 16.6742 19.1752 16.9448 18.9605C17.2202 18.7505 17.3998 18.4705 17.4838 18.1205C17.5725 17.7752 17.6168 17.4018 17.6168 17.0005V11.7225C17.6168 11.3585 17.6705 11.0225 17.7778 10.7145C17.8852 10.4065 18.1162 10.1825 18.4708 10.0425C18.5782 10.0892 18.6738 10.1615 18.7578 10.2595C18.8418 10.3575 18.9002 10.4532 18.9328 10.5465ZM13.1928 13.5845C13.1928 12.7398 13.3258 12.0515 13.5918 11.5195C13.8578 10.9875 14.1892 10.5978 14.5858 10.3505C14.9872 10.0985 15.3862 9.97248 15.7828 9.97248C16.1608 9.97248 16.4922 10.0262 16.7768 10.1335C17.0615 10.2362 17.3135 10.3715 17.5328 10.5395C17.7522 10.7075 17.9528 10.8872 18.1348 11.0785L18.0368 11.9605C17.8082 11.6572 17.5002 11.3935 17.1128 11.1695C16.7255 10.9408 16.3242 10.8265 15.9088 10.8265C15.6055 10.8265 15.3208 10.9198 15.0548 11.1065C14.7935 11.2932 14.5812 11.5895 14.4178 11.9955C14.2545 12.4015 14.1728 12.9312 14.1728 13.5845C14.1728 14.5365 14.3245 15.2202 14.6278 15.6355C14.9312 16.0508 15.2882 16.2585 15.6988 16.2585C16.1328 16.2585 16.5458 16.1208 16.9378 15.8455C17.3298 15.5655 17.6262 15.2365 17.8268 14.8585L17.9808 15.7125C17.8688 15.8898 17.6985 16.0882 17.4698 16.3075C17.2458 16.5268 16.9728 16.7158 16.6508 16.8745C16.3288 17.0332 15.9695 17.1125 15.5728 17.1125C15.0502 17.1125 14.6115 16.9678 14.2568 16.6785C13.9068 16.3845 13.6408 15.9738 13.4588 15.4465C13.2815 14.9145 13.1928 14.2938 13.1928 13.5845Z" fill="#131313"/>
</svg>
