<svg width="24" height="24" viewBox="0 0 24 24" fill="none" xmlns="http://www.w3.org/2000/svg">
<path d="M7.18164 14.8945L6.79883 16.0498C6.70312 16.3415 6.53678 16.5853 6.2998 16.7812C6.06283 16.9727 5.79622 17.0684 5.5 17.0684C5.42708 17.0684 5.36556 17.0479 5.31543 17.0068C5.26986 16.9704 5.24707 16.9157 5.24707 16.8428C5.24707 16.8154 5.25618 16.7744 5.27441 16.7197L5.93066 14.8398C5.96257 14.7441 5.99674 14.6712 6.0332 14.6211C6.06966 14.5664 6.11979 14.5277 6.18359 14.5049C6.25195 14.4821 6.3112 14.4684 6.36133 14.4639C6.41602 14.4593 6.50716 14.457 6.63477 14.457C6.73958 14.457 6.81706 14.4593 6.86719 14.4639C6.91732 14.4639 6.97428 14.4707 7.03809 14.4844C7.10645 14.498 7.1543 14.5231 7.18164 14.5596C7.20898 14.5915 7.22266 14.637 7.22266 14.6963C7.22266 14.7373 7.20898 14.8034 7.18164 14.8945ZM9.43066 7.49121L12.3428 15.9609C12.3747 16.1068 12.3906 16.1888 12.3906 16.207C12.3906 16.403 12.2767 16.5967 12.0488 16.7881C11.821 16.9749 11.6204 17.0684 11.4473 17.0684C11.2969 17.0684 11.1807 16.9521 11.0986 16.7197L8.25488 8.4209C8.20931 8.21582 8.18652 8.10645 8.18652 8.09277C8.18652 7.89225 8.31185 7.69401 8.5625 7.49805C8.81771 7.29753 9.01367 7.19727 9.15039 7.19727C9.22786 7.19727 9.28255 7.21777 9.31445 7.25879C9.35091 7.29525 9.38965 7.37272 9.43066 7.49121ZM9.30762 14.0469H6.53223C6.35905 14.0469 6.27246 13.9717 6.27246 13.8213C6.27246 13.7803 6.28158 13.7347 6.2998 13.6846L7.70117 9.49414C7.76497 9.31641 7.83789 9.22754 7.91992 9.22754C7.99284 9.22754 8.05664 9.27311 8.11133 9.36426C8.16602 9.45085 8.22526 9.59212 8.28906 9.78809C8.40755 10.1572 8.4668 10.4329 8.4668 10.6152C8.4668 10.7428 8.44401 10.8773 8.39844 11.0186L7.86523 12.6455C7.85612 12.6683 7.85156 12.7002 7.85156 12.7412C7.85156 12.8643 7.9222 12.9258 8.06348 12.9258H8.77441C9.00684 12.9258 9.16406 12.9372 9.24609 12.96C9.32812 12.9827 9.39421 13.0465 9.44434 13.1514C9.48991 13.2425 9.52637 13.361 9.55371 13.5068C9.58561 13.6481 9.60156 13.7529 9.60156 13.8213C9.60156 13.9717 9.50358 14.0469 9.30762 14.0469ZM13.4365 11.8594C13.5277 11.7819 13.653 11.6999 13.8125 11.6133C13.972 11.5221 14.0996 11.4766 14.1953 11.4766C14.3138 11.4766 14.373 11.5426 14.373 11.6748C14.373 11.7113 14.3639 11.807 14.3457 11.9619C14.332 12.1169 14.3252 12.2627 14.3252 12.3994C14.3252 12.6956 14.3639 12.9531 14.4414 13.1719C14.5234 13.3861 14.6169 13.5479 14.7217 13.6572C14.8311 13.7666 14.9678 13.8532 15.1318 13.917C15.2959 13.9762 15.4349 14.0127 15.5488 14.0264C15.6673 14.04 15.8018 14.0469 15.9521 14.0469C16.1709 14.0469 16.3555 14.0173 16.5059 13.958C16.6562 13.8942 16.7474 13.8623 16.7793 13.8623C16.8568 13.8623 16.8955 13.9102 16.8955 14.0059C16.8955 14.1882 16.7542 14.3887 16.4717 14.6074C16.1937 14.8216 15.8063 14.9287 15.3096 14.9287C15.0908 14.9287 14.8812 14.9082 14.6807 14.8672C14.4801 14.8262 14.2819 14.7555 14.0859 14.6553C13.89 14.5505 13.7214 14.4206 13.5801 14.2656C13.4388 14.1107 13.3249 13.9079 13.2383 13.6572C13.1517 13.4066 13.1084 13.1217 13.1084 12.8027C13.1084 12.3698 13.2178 12.0553 13.4365 11.8594ZM17.8115 11.5518C18.1305 11.5518 18.3356 11.6064 18.4268 11.7158C18.5407 11.8617 18.5977 12.0918 18.5977 12.4062C18.5977 12.9167 18.4541 13.3929 18.167 13.835C18.0531 14.0036 17.8867 14.1768 17.668 14.3545C17.4538 14.5322 17.2965 14.6211 17.1963 14.6211C17.1143 14.6211 17.0732 14.5801 17.0732 14.498C17.0732 14.4661 17.0983 14.4115 17.1484 14.334C17.1986 14.252 17.2533 14.1631 17.3125 14.0674C17.3717 13.9671 17.4264 13.819 17.4766 13.623C17.5267 13.4271 17.5518 13.2129 17.5518 12.9805C17.5518 12.8255 17.5267 12.625 17.4766 12.3789C17.4264 12.1328 17.3535 11.9391 17.2578 11.7979C17.2305 11.7568 17.2168 11.7249 17.2168 11.7021C17.2168 11.6748 17.2236 11.652 17.2373 11.6338C17.2555 11.6156 17.3102 11.5973 17.4014 11.5791C17.4971 11.5609 17.6338 11.5518 17.8115 11.5518ZM17.6338 20.623C17.8708 20.4635 18.0508 20.2585 18.1738 20.0078C18.2969 19.7572 18.3584 19.4997 18.3584 19.2354C18.3584 18.5928 18.1556 18.1416 17.75 17.8818C17.3444 17.6221 16.7314 17.4876 15.9111 17.4785C15.583 17.474 15.3369 17.4694 15.1729 17.4648C15.0133 17.4603 14.806 17.4443 14.5508 17.417C14.2956 17.3942 14.1042 17.3555 13.9766 17.3008C13.849 17.2507 13.7122 17.18 13.5664 17.0889C13.4251 17.0023 13.3249 16.8883 13.2656 16.7471C13.2109 16.6012 13.1836 16.4281 13.1836 16.2275C13.1836 15.8949 13.2907 15.6146 13.5049 15.3867C13.7191 15.1543 13.9036 15.0381 14.0586 15.0381C14.1406 15.0381 14.1816 15.0791 14.1816 15.1611C14.1816 15.193 14.1543 15.2751 14.0996 15.4072C14.0495 15.5394 14.0244 15.6602 14.0244 15.7695C14.0244 15.8652 14.0472 15.9473 14.0928 16.0156C14.1429 16.0794 14.2067 16.1318 14.2842 16.1729C14.3617 16.2093 14.4733 16.2367 14.6191 16.2549C14.7695 16.2731 14.9199 16.2868 15.0703 16.2959C15.2253 16.3005 15.4258 16.3027 15.6719 16.3027C15.9818 16.3027 16.2552 16.3096 16.4922 16.3232C16.7337 16.3324 16.9889 16.3574 17.2578 16.3984C17.5267 16.4395 17.7591 16.4964 17.9551 16.5693C18.1556 16.6377 18.3493 16.7334 18.5361 16.8564C18.7275 16.9795 18.8825 17.123 19.001 17.2871C19.1195 17.4557 19.2152 17.6631 19.2881 17.9092C19.361 18.1553 19.3975 18.431 19.3975 18.7363C19.3975 19.0371 19.3382 19.3219 19.2197 19.5908C19.1058 19.8643 18.96 20.0898 18.7822 20.2676C18.609 20.4499 18.4222 20.5957 18.2217 20.7051C18.0212 20.819 17.8343 20.8805 17.6611 20.8896C17.57 20.8896 17.5244 20.8532 17.5244 20.7803C17.5244 20.7347 17.5609 20.6823 17.6338 20.623ZM18.8232 11.1006C18.6318 11.1735 18.2786 11.21 17.7637 11.21C17.2122 11.21 16.8044 11.1576 16.54 11.0527C16.0661 10.8659 15.6468 10.7725 15.2822 10.7725C15.0863 10.7725 14.8333 10.8158 14.5234 10.9023C14.2135 10.9844 13.8968 11.1325 13.5732 11.3467C13.391 11.4743 13.2839 11.5381 13.252 11.5381C13.179 11.5381 13.1426 11.4971 13.1426 11.415C13.1426 11.3421 13.2018 11.2214 13.3203 11.0527C13.4935 10.7975 13.6895 10.5811 13.9082 10.4033C14.127 10.221 14.348 10.0889 14.5713 10.0068C14.7992 9.9248 15.0042 9.86784 15.1865 9.83594C15.3734 9.80404 15.5579 9.78809 15.7402 9.78809C16.2598 9.78809 16.7611 9.89062 17.2441 10.0957C17.513 10.2096 17.7523 10.2666 17.9619 10.2666H19.2607C19.4066 10.2666 19.4795 10.3167 19.4795 10.417C19.4795 10.5218 19.4066 10.6494 19.2607 10.7998C19.1149 10.9456 18.9691 11.0459 18.8232 11.1006ZM12.958 19.3789C12.958 18.9186 13.0833 18.5176 13.334 18.1758C13.5846 17.834 13.7988 17.6631 13.9766 17.6631C14.0632 17.6631 14.1064 17.7087 14.1064 17.7998C14.1064 17.8135 14.0837 17.9251 14.0381 18.1348C13.9971 18.3444 13.9766 18.5632 13.9766 18.791C13.9766 19.2148 14.1657 19.5452 14.5439 19.7822C14.9268 20.0238 15.4349 20.1445 16.0684 20.1445C16.3008 20.1445 16.5355 20.1195 16.7725 20.0693C17.0094 20.0192 17.1963 19.9691 17.333 19.9189C17.4743 19.8688 17.5472 19.8438 17.5518 19.8438C17.6338 19.8438 17.6748 19.8848 17.6748 19.9668C17.6748 20.0579 17.6224 20.165 17.5176 20.2881C17.4173 20.4157 17.2715 20.5433 17.0801 20.6709C16.8932 20.7985 16.6357 20.9056 16.3076 20.9922C15.984 21.0833 15.6286 21.1289 15.2412 21.1289C14.9951 21.1289 14.7445 21.0947 14.4893 21.0264C14.2386 20.9626 13.9948 20.8646 13.7578 20.7324C13.5208 20.6003 13.3271 20.4157 13.1768 20.1787C13.0309 19.9463 12.958 19.6797 12.958 19.3789Z" fill="#131313"/>
</svg>
