<svg width="24" height="24" viewBox="0 0 24 24" fill="none" xmlns="http://www.w3.org/2000/svg">
<path d="M2.55074 15.4649L3.26007 15.1102C3.33059 15.077 3.40111 15.0293 3.47163 14.9671C3.54215 14.9007 3.59815 14.8344 3.63963 14.768L7.5223 8.42755L8.5863 6.94043H9.94274L11.293 14.7991C11.3096 14.8738 11.3365 14.9443 11.3739 15.0107C11.4112 15.0729 11.4651 15.1185 11.5356 15.1476L12.2574 15.4649L12.1392 16H8.17563L8.29385 15.4649L9.33296 15.0418L8.98452 13.0258H5.91074L4.74096 15.0107L5.72407 15.4649L5.60585 16H2.43252L2.55074 15.4649ZM8.8103 12.0489L8.44941 10.0329L8.3623 9.13066H8.26274L6.5143 12.0489H8.8103ZM14.7608 19.0738C14.3418 19.0738 13.9809 19.051 13.6781 19.0053C13.3794 18.9597 13.1492 18.9203 12.9874 18.8871L13.1056 17.2382H13.367C13.479 17.2797 13.6179 17.3274 13.7839 17.3813C13.9498 17.4353 14.1261 17.485 14.3128 17.5307C14.5036 17.5763 14.6985 17.6136 14.8976 17.6427C15.0968 17.6759 15.2896 17.6924 15.4763 17.6924C15.6422 17.6924 15.7895 17.6862 15.9181 17.6738C16.0467 17.6613 16.1566 17.6427 16.2479 17.6178C16.3391 17.5929 16.4179 17.5597 16.4843 17.5182C16.5507 17.4809 16.6088 17.4373 16.6585 17.3876C16.7208 17.3212 16.7768 17.2154 16.8265 17.0702C16.8805 16.925 16.9302 16.7591 16.9759 16.5724C17.0215 16.3858 17.0651 16.1887 17.1065 15.9813C17.148 15.7698 17.1916 15.5644 17.2372 15.3653L17.3305 14.9671C17.1065 15.2036 16.8929 15.3902 16.6896 15.5271C16.4864 15.664 16.2935 15.7677 16.111 15.8382C15.9285 15.9087 15.7542 15.9544 15.5883 15.9751C15.4265 15.9917 15.2751 16 15.1341 16C14.7856 16 14.4787 15.9357 14.2132 15.8071C13.9477 15.6785 13.7237 15.5001 13.5412 15.272C13.3628 15.0439 13.2259 14.7763 13.1305 14.4693C13.0393 14.1582 12.9936 13.8264 12.9936 13.4738C12.9936 13.1212 13.031 12.7686 13.1056 12.416C13.1845 12.0634 13.2965 11.7274 13.4416 11.408C13.5868 11.0844 13.7652 10.7837 13.9768 10.5058C14.1883 10.2279 14.431 9.98725 14.7048 9.78399C14.9785 9.58073 15.2793 9.42103 15.607 9.30488C15.9388 9.18873 16.2935 9.13066 16.671 9.13066C16.8535 9.13066 17.0236 9.14932 17.1812 9.18666C17.3388 9.21984 17.484 9.26547 17.6168 9.32355C17.7536 9.38162 17.876 9.45006 17.9839 9.52888C18.0917 9.60769 18.1871 9.69066 18.2701 9.77777L18.6123 9.18043H20.6159C20.5288 9.41273 20.4458 9.64503 20.367 9.87732C20.2882 10.1055 20.2114 10.3378 20.1368 10.5742L19.1723 15.5707C19.1184 15.8486 19.0458 16.1016 18.9545 16.3298C18.8633 16.5579 18.7554 16.7674 18.631 16.9582C18.5065 17.1532 18.3655 17.3316 18.2079 17.4933C18.0544 17.6593 17.8864 17.8127 17.7039 17.9538C17.4799 18.1239 17.2538 18.2773 17.0256 18.4142C16.8016 18.5553 16.5694 18.6735 16.3288 18.7689C16.0923 18.8684 15.8434 18.9431 15.5821 18.9929C15.3249 19.0468 15.0511 19.0738 14.7608 19.0738ZM16.2665 14.8489C16.3744 14.8489 16.4822 14.8364 16.5901 14.8116C16.6979 14.7825 16.8016 14.7452 16.9012 14.6996C17.0049 14.6539 17.1003 14.6 17.1874 14.5378C17.2787 14.4714 17.3596 14.403 17.4301 14.3324L18.2328 10.4436C18.0668 10.373 17.8843 10.3129 17.6852 10.2631C17.4902 10.2133 17.2704 10.1884 17.0256 10.1884C16.7851 10.1884 16.5673 10.2382 16.3723 10.3378C16.1815 10.4373 16.0135 10.5701 15.8683 10.736C15.7273 10.8978 15.6049 11.0844 15.5012 11.296C15.4016 11.5076 15.3187 11.7274 15.2523 11.9556C15.1859 12.1837 15.1382 12.4119 15.1092 12.64C15.0843 12.8681 15.0719 13.0776 15.0719 13.2684C15.0719 13.4676 15.0885 13.6625 15.1216 13.8533C15.159 14.04 15.2212 14.208 15.3083 14.3573C15.3954 14.5067 15.5157 14.627 15.6692 14.7182C15.8268 14.8053 16.0259 14.8489 16.2665 14.8489Z" fill="#131313"/>
</svg>
