<svg width="24" height="24" viewBox="0 0 24 24" fill="none" xmlns="http://www.w3.org/2000/svg">
<path d="M4.65901 15.7074L5.19412 15.5518C5.27708 15.5269 5.34967 15.4813 5.41189 15.4149C5.47826 15.3444 5.52804 15.2677 5.56123 15.1847L8.03145 8.72603L8.78434 7.29492H9.02701L12.0759 15.1847C12.1091 15.2677 12.1568 15.3444 12.219 15.4149C12.2854 15.4813 12.36 15.5269 12.443 15.5518L12.9781 15.7074V15.9998H9.94789V15.7074L11.0306 15.502L9.99767 12.814H6.98612L6.02167 15.4771L7.07945 15.7074V15.9998H4.65901V15.7074ZM9.80478 12.3411L8.78434 9.71537L8.47323 8.87537H8.46701L7.17901 12.3411H9.80478ZM14.2355 15.9065C14.1318 15.8816 14.0198 15.8401 13.8995 15.782C13.7833 15.7239 13.6734 15.6493 13.5697 15.558C13.4701 15.4626 13.3851 15.3506 13.3146 15.222C13.2482 15.0893 13.215 14.9358 13.215 14.7616C13.215 14.5749 13.2524 14.4173 13.327 14.2887C13.4058 14.1559 13.5012 14.046 13.6132 13.9589C13.7294 13.8677 13.8538 13.7951 13.9866 13.7411C14.1235 13.6872 14.2479 13.6457 14.3599 13.6167C14.2023 13.5296 14.0592 13.4321 13.9306 13.3242C13.802 13.2122 13.69 13.0837 13.5946 12.9385C13.5033 12.7933 13.4307 12.6274 13.3768 12.4407C13.327 12.254 13.3021 12.0425 13.3021 11.806C13.3021 11.5447 13.3602 11.2937 13.4764 11.0531C13.5967 10.8084 13.7605 10.5948 13.9679 10.4122C14.1795 10.2256 14.4304 10.0762 14.7208 9.96425C15.0112 9.85225 15.3285 9.79625 15.6728 9.79625C15.8346 9.79625 16.0129 9.81285 16.2079 9.84603C16.407 9.87922 16.5937 9.9207 16.7679 9.97048H18.927L18.7839 10.7109L17.023 10.2878C17.1558 10.3998 17.2698 10.5201 17.3652 10.6487C17.4648 10.7773 17.5457 10.9079 17.6079 11.0407C17.6743 11.1734 17.722 11.3082 17.751 11.4451C17.7842 11.5779 17.8008 11.7065 17.8008 11.8309C17.8008 12.1254 17.751 12.3971 17.6515 12.646C17.5519 12.8908 17.4067 13.1044 17.2159 13.2869C17.0251 13.4653 16.7887 13.6063 16.5066 13.71C16.2287 13.8096 15.9092 13.8594 15.5484 13.8594C15.482 13.8594 15.4115 13.8594 15.3368 13.8594C15.2663 13.8552 15.1958 13.8511 15.1252 13.8469C15.0547 13.8386 14.9842 13.8282 14.9137 13.8158C14.8473 13.8034 14.783 13.7888 14.7208 13.7722C14.6461 13.7722 14.5694 13.7888 14.4906 13.822C14.4159 13.8511 14.3475 13.8925 14.2852 13.9465C14.223 14.0004 14.1732 14.0647 14.1359 14.1394C14.0986 14.2099 14.0799 14.2866 14.0799 14.3696C14.0799 14.4691 14.0944 14.5583 14.1235 14.6371C14.1567 14.7159 14.2002 14.7823 14.2541 14.8362C14.3081 14.8902 14.3703 14.9317 14.4408 14.9607C14.5155 14.9897 14.5922 15.0042 14.671 15.0042H16.631C17.0168 15.0042 17.3383 15.054 17.5955 15.1536C17.8568 15.249 18.0663 15.3755 18.2239 15.5331C18.3815 15.6866 18.4935 15.8588 18.5599 16.0496C18.6263 16.2404 18.6595 16.4271 18.6595 16.6096C18.6595 16.9497 18.5765 17.2608 18.4106 17.5429C18.2447 17.8291 18.0186 18.0739 17.7324 18.2771C17.4461 18.4845 17.1101 18.6442 16.7244 18.7562C16.3386 18.8724 15.9258 18.9305 15.4861 18.9305C15.1045 18.9305 14.7561 18.8973 14.4408 18.8309C14.1255 18.7645 13.8518 18.665 13.6195 18.5322C13.3913 18.4037 13.2129 18.2439 13.0844 18.0531C12.9599 17.8623 12.8977 17.6404 12.8977 17.3874C12.8977 17.1675 12.935 16.9767 13.0097 16.8149C13.0844 16.6531 13.1839 16.5121 13.3084 16.3918C13.4328 16.2757 13.5738 16.1782 13.7315 16.0994C13.8932 16.0247 14.0612 15.9604 14.2355 15.9065ZM15.623 13.5047C15.8138 13.5047 15.9777 13.4591 16.1146 13.3678C16.2556 13.2724 16.3697 13.1459 16.4568 12.9882C16.5481 12.8265 16.6144 12.6419 16.6559 12.4345C16.6974 12.2271 16.7181 12.0093 16.7181 11.7811C16.7181 11.5447 16.6912 11.329 16.6372 11.134C16.5833 10.9349 16.5066 10.7648 16.407 10.6238C16.3116 10.4786 16.1934 10.3666 16.0524 10.2878C15.9155 10.2048 15.7599 10.1634 15.5857 10.1634C15.3783 10.1634 15.202 10.2069 15.0568 10.294C14.9116 10.3811 14.7913 10.4994 14.6959 10.6487C14.6047 10.798 14.5362 10.9722 14.4906 11.1714C14.4491 11.3663 14.4284 11.5737 14.4284 11.7936C14.4284 12.0342 14.4553 12.2582 14.5092 12.4656C14.5632 12.673 14.6399 12.8534 14.7395 13.0069C14.8432 13.1604 14.9697 13.2828 15.119 13.374C15.2684 13.4611 15.4364 13.5047 15.623 13.5047ZM14.615 15.9189C14.5404 15.9397 14.4615 15.977 14.3786 16.0309C14.2998 16.089 14.2272 16.1657 14.1608 16.2611C14.0944 16.3565 14.0384 16.4727 13.9928 16.6096C13.9513 16.7506 13.9306 16.9124 13.9306 17.0949C13.9306 17.2733 13.9596 17.4309 14.0177 17.5678C14.0758 17.7047 14.1525 17.8229 14.2479 17.9225C14.3475 18.0262 14.4595 18.1112 14.5839 18.1776C14.7125 18.2481 14.8432 18.3041 14.9759 18.3456C15.1128 18.3912 15.2476 18.4223 15.3804 18.4389C15.5172 18.4597 15.6417 18.47 15.7537 18.47C15.9984 18.47 16.2411 18.441 16.4817 18.3829C16.7223 18.329 16.938 18.2419 17.1288 18.1216C17.3238 18.0013 17.4793 17.8478 17.5955 17.6611C17.7158 17.4745 17.7759 17.2525 17.7759 16.9954C17.7759 16.8709 17.7531 16.7444 17.7075 16.6158C17.6618 16.4872 17.5913 16.3711 17.4959 16.2674C17.4005 16.1678 17.2761 16.0848 17.1226 16.0185C16.9691 15.9521 16.7845 15.9189 16.5688 15.9189H14.615Z" fill="#131313"/>
</svg>
