<svg width="24" height="24" viewBox="0 0 24 24" fill="none" xmlns="http://www.w3.org/2000/svg">
<path d="M5.70252 10.8949L5.17752 14.6299C4.89252 13.9549 4.75752 13.1599 4.75752 12.2299C4.75752 10.8799 5.08752 9.79992 5.74752 9.00492C6.51252 8.07492 7.56252 7.60992 8.92752 7.60992C10.0825 7.60992 11.1025 7.95492 12.0175 8.64492L12.7825 7.39992C11.6575 6.57492 10.3825 6.16992 8.95752 6.16992C7.38252 6.16992 6.09252 6.63492 5.05752 7.57992C3.85752 8.67492 3.25752 10.1899 3.25752 12.0949C3.25752 13.3849 3.51252 14.5249 4.03752 15.4999C4.53252 16.4299 5.22252 17.1649 6.12252 17.7049L6.88752 12.2449H8.98752L9.16752 10.8949H5.70252ZM10.0075 8.92992L8.86752 16.9999H10.3675L11.5075 8.92992H10.0075ZM14.9832 22.4899C16.1532 22.4749 17.1732 22.1749 18.0582 21.5899C19.3032 20.7649 19.9182 19.5349 19.9182 17.8849C19.9182 17.0749 19.7832 16.2199 19.5132 15.3049C20.3382 14.6749 20.7432 13.8049 20.7432 12.7099C20.7432 11.7349 20.4132 10.9249 19.7382 10.2949C19.0632 9.66492 18.1932 9.34992 17.1282 9.34992C16.0182 9.34992 15.1032 9.69492 14.3832 10.3999C13.6482 11.1049 13.2882 11.9749 13.2882 12.9799C13.2882 14.1949 13.8132 15.1399 14.8632 15.8149L15.7032 14.6599C15.1182 14.2399 14.8182 13.6849 14.8182 12.9799C14.8182 12.3049 15.0432 11.7499 15.5082 11.3449C15.9732 10.9399 16.5132 10.7299 17.1282 10.7299C18.2832 10.7299 19.2132 11.5399 19.2132 12.7849C19.2132 13.6849 18.7032 14.4349 17.9082 14.7799C18.1032 15.3199 18.2532 15.9499 18.3582 16.6699C18.4032 16.9549 18.4182 17.2699 18.4182 17.6449C18.4182 18.2899 18.3282 18.7999 18.1632 19.1899C17.8632 19.9249 17.3532 20.4499 16.6182 20.7649L17.5182 14.3749H16.1232L14.9832 22.4899Z" fill="#131313"/>
</svg>
