<svg width="24" height="24" viewBox="0 0 24 24" fill="none" xmlns="http://www.w3.org/2000/svg">
<path d="M6.3031 16.0003L8.1231 7.32031H9.3691L11.1751 16.0003H10.1951L9.7751 13.9563L9.9571 14.1243H7.4931L7.6471 13.9563L7.2551 16.0003H6.3031ZM7.6751 13.4803L7.5771 13.3683H9.8871L9.7611 13.4803L8.8651 8.55231L8.8371 8.41231H8.6411L8.6131 8.55231L7.6751 13.4803ZM12.7981 18.4363L12.6721 17.6943H14.6041C14.8655 17.6943 15.0335 17.629 15.1081 17.4983C15.1921 17.377 15.2341 17.1716 15.2341 16.8823V10.1623H13.6801C13.4468 10.1623 13.2788 10.195 13.1761 10.2603C13.0828 10.3256 13.0268 10.4283 13.0081 10.5683C12.9895 10.699 12.9801 10.8856 12.9801 11.1283V14.3063C12.9801 14.5676 12.9941 14.7683 13.0221 14.9083C13.0501 15.039 13.1061 15.1323 13.1901 15.1883C13.2835 15.235 13.4235 15.2583 13.6101 15.2583H14.8281L14.7301 16.0003H13.1341C12.7888 16.0003 12.5415 15.949 12.3921 15.8463C12.2428 15.7436 12.1495 15.5663 12.1121 15.3143C12.0748 15.053 12.0561 14.6843 12.0561 14.2083V10.8063C12.0561 10.4423 12.0981 10.1623 12.1821 9.96631C12.2661 9.76098 12.4155 9.62098 12.6301 9.54631C12.8541 9.46231 13.1761 9.42031 13.5961 9.42031H16.1581V17.1063C16.1581 17.5636 16.0695 17.8996 15.8921 18.1143C15.7148 18.329 15.4021 18.4363 14.9541 18.4363H12.7981Z" fill="#131313"/>
</svg>
