<svg width="24" height="24" viewBox="0 0 24 24" fill="none" xmlns="http://www.w3.org/2000/svg">
<path d="M4.18948 16.0001C4.11482 16.0001 4.08682 15.9674 4.10548 15.9021L7.36748 6.90008C7.38615 6.85341 7.42348 6.83008 7.47948 6.83008H8.26348C8.31948 6.83008 8.35682 6.85341 8.37548 6.90008L11.6515 15.9021C11.6608 15.9301 11.6562 15.9534 11.6375 15.9721C11.6282 15.9908 11.6048 16.0001 11.5675 16.0001H10.9655C10.9095 16.0001 10.8722 15.9768 10.8535 15.9301L8.37548 9.00008C8.29148 8.74808 8.20748 8.50075 8.12348 8.25808C8.03948 8.00608 7.95082 7.75408 7.85748 7.50208H7.84348C7.75948 7.74475 7.67548 7.99208 7.59148 8.24408C7.50748 8.49608 7.41882 8.74808 7.32548 9.00008L4.87548 15.9301C4.85682 15.9768 4.81482 16.0001 4.74948 16.0001H4.18948ZM5.53348 13.6061L5.72948 12.9481H9.97148L10.1675 13.6061H5.53348ZM15.3978 18.7581C14.3245 18.7581 13.5591 18.6134 13.1018 18.3241C12.6445 18.0441 12.4158 17.6054 12.4158 17.0081C12.4158 16.5601 12.5185 16.1961 12.7238 15.9161C12.9385 15.6361 13.2605 15.4074 13.6898 15.2301L14.3618 15.4681C13.9511 15.5894 13.6525 15.7621 13.4658 15.9861C13.2791 16.2101 13.1858 16.5088 13.1858 16.8821C13.1858 17.3394 13.3538 17.6568 13.6898 17.8341C14.0258 18.0208 14.6045 18.1141 15.4258 18.1141C16.2845 18.1141 16.8771 18.0161 17.2038 17.8201C17.5305 17.6241 17.6938 17.2881 17.6938 16.8121C17.6938 16.4294 17.6005 16.1588 17.4138 16.0001C17.2365 15.8321 16.9331 15.7341 16.5038 15.7061L14.0958 15.5661C13.7411 15.5474 13.4565 15.4401 13.2418 15.2441C13.0365 15.0388 12.9338 14.7541 12.9338 14.3901C12.9338 14.1941 12.9665 14.0214 13.0318 13.8721C13.1065 13.7228 13.2138 13.5828 13.3538 13.4521C13.4938 13.3121 13.6665 13.1721 13.8718 13.0321L14.3758 13.3401C14.1331 13.4521 13.9465 13.5828 13.8158 13.7321C13.6945 13.8814 13.6338 14.0588 13.6338 14.2641C13.6338 14.4508 13.6945 14.6001 13.8158 14.7121C13.9465 14.8241 14.1845 14.8941 14.5298 14.9221L16.7278 15.0621C17.3065 15.0994 17.7311 15.2581 18.0018 15.5381C18.2818 15.8088 18.4218 16.2428 18.4218 16.8401C18.4218 17.5214 18.1885 18.0114 17.7218 18.3101C17.2551 18.6088 16.4805 18.7581 15.3978 18.7581ZM15.5098 13.6481C14.6791 13.6481 14.0585 13.4568 13.6478 13.0741C13.2371 12.6914 13.0318 12.1174 13.0318 11.3521C13.0318 10.5868 13.2371 10.0174 13.6478 9.64408C14.0678 9.26141 14.6978 9.07008 15.5378 9.07008C16.3591 9.07008 16.9751 9.26141 17.3858 9.64408C17.7965 10.0268 18.0018 10.6008 18.0018 11.3661C18.0018 12.1314 17.7965 12.7054 17.3858 13.0881C16.9751 13.4614 16.3498 13.6481 15.5098 13.6481ZM15.5098 12.9901C16.1258 12.9901 16.5691 12.8641 16.8398 12.6121C17.1198 12.3508 17.2598 11.9354 17.2598 11.3661C17.2598 10.7874 17.1198 10.3721 16.8398 10.1201C16.5598 9.85875 16.1165 9.72808 15.5098 9.72808C14.9031 9.72808 14.4598 9.85875 14.1798 10.1201C13.9091 10.3721 13.7738 10.7874 13.7738 11.3661C13.7738 11.9354 13.9091 12.3508 14.1798 12.6121C14.4598 12.8641 14.9031 12.9901 15.5098 12.9901ZM17.0358 9.61608L16.4058 9.39208C16.4525 9.00941 16.5038 8.65941 16.5598 8.34208C16.6251 8.01541 16.6905 7.74475 16.7558 7.53008C16.7745 7.45541 16.8165 7.41808 16.8818 7.41808H17.4138C17.4791 7.41808 17.5025 7.45075 17.4838 7.51608C17.3998 7.77741 17.3205 8.07608 17.2458 8.41208C17.1805 8.74808 17.1105 9.14941 17.0358 9.61608Z" fill="#131313"/>
</svg>
