<svg width="24" height="24" viewBox="0 0 24 24" fill="none" xmlns="http://www.w3.org/2000/svg">
<path d="M11.0004 15.9995L9.99242 13.3675H5.30242L4.29442 15.9995H3.62242L7.31842 6.35352H7.99042L11.6584 15.9995H11.0004ZM5.51242 12.8075H9.78242L7.65442 7.20752L5.51242 12.8075ZM18.7106 9.46152H19.3266V15.0475C19.3266 16.5782 19.0233 17.6608 18.4166 18.2955C17.8099 18.9395 16.9419 19.2615 15.8126 19.2615C14.6366 19.2615 13.7219 18.7715 13.0686 17.7915L13.5866 17.4695C14.1186 18.2628 14.8606 18.6595 15.8126 18.6595C16.7459 18.6595 17.4599 18.3888 17.9546 17.8475C18.4586 17.3062 18.7106 16.3775 18.7106 15.0615V14.5575C18.4399 15.0335 18.0479 15.4162 17.5346 15.7055C17.0306 15.9948 16.4799 16.1395 15.8826 16.1395C14.9493 16.1395 14.1513 15.8128 13.4886 15.1595C12.8353 14.4968 12.5086 13.6848 12.5086 12.7235C12.5086 11.7622 12.8353 10.9548 13.4886 10.3015C14.1513 9.64819 14.9493 9.32152 15.8826 9.32152C16.4893 9.32152 17.0399 9.46619 17.5346 9.75552C18.0386 10.0448 18.4306 10.4322 18.7106 10.9175V9.46152ZM15.9106 15.5375C16.6853 15.5375 17.3433 15.2762 17.8846 14.7535C18.4353 14.2308 18.7106 13.5728 18.7106 12.7795C18.7106 11.9488 18.4353 11.2675 17.8846 10.7355C17.3339 10.1942 16.6759 9.92352 15.9106 9.92352C15.1453 9.92352 14.4873 10.1942 13.9366 10.7355C13.3953 11.2768 13.1246 11.9395 13.1246 12.7235C13.1246 13.5075 13.3953 14.1748 13.9366 14.7255C14.4873 15.2668 15.1453 15.5375 15.9106 15.5375Z" fill="#131313"/>
</svg>
