<svg width="24" height="24" viewBox="0 0 24 24" fill="none" xmlns="http://www.w3.org/2000/svg">
<path d="M10.3155 15.9995L9.53145 13.6895H5.91945L5.14945 15.9995H3.07745L6.67545 6.35352H8.77545L12.3595 15.9995H10.3155ZM6.49345 11.9955H8.94345L7.71145 8.36952L6.49345 11.9955ZM18.0909 9.47552H19.9249V15.1035C19.9249 16.4942 19.5936 17.5395 18.9309 18.2395C18.2776 18.9395 17.3583 19.2895 16.1729 19.2895C15.4729 19.2895 14.8383 19.1075 14.2689 18.7435C13.6996 18.3888 13.2749 17.9082 12.9949 17.3015L14.5209 16.6435C14.6609 16.9422 14.8849 17.1848 15.1929 17.3715C15.5009 17.5582 15.8276 17.6515 16.1729 17.6515C17.4516 17.6515 18.0909 16.8675 18.0909 15.2995V15.2015C17.8669 15.5002 17.5589 15.7288 17.1669 15.8875C16.7749 16.0462 16.3829 16.1255 15.9909 16.1255C15.1136 16.1255 14.3576 15.8128 13.7229 15.1875C13.0976 14.5622 12.7849 13.7408 12.7849 12.7235C12.7849 11.7062 13.0976 10.8848 13.7229 10.2595C14.3576 9.63419 15.1136 9.32152 15.9909 9.32152C16.3923 9.32152 16.7843 9.40085 17.1669 9.55952C17.5589 9.71819 17.8669 9.94685 18.0909 10.2455V9.47552ZM16.3409 14.4175C16.7983 14.4175 17.1949 14.2588 17.5309 13.9415C17.8669 13.6148 18.0349 13.2088 18.0349 12.7235C18.0349 12.2382 17.8623 11.8368 17.5169 11.5195C17.1809 11.2022 16.7889 11.0435 16.3409 11.0435C15.8743 11.0435 15.4729 11.2068 15.1369 11.5335C14.8103 11.8508 14.6469 12.2475 14.6469 12.7235C14.6469 13.1995 14.8103 13.6008 15.1369 13.9275C15.4729 14.2542 15.8743 14.4175 16.3409 14.4175Z" fill="#131313"/>
</svg>
