<svg width="24" height="24" viewBox="0 0 24 24" fill="none" xmlns="http://www.w3.org/2000/svg">
<path d="M4.34737 16.0001C4.31003 16.0001 4.29603 15.9814 4.30537 15.9441L7.70737 6.87208C7.72603 6.84408 7.74937 6.83008 7.77737 6.83008H8.11337C8.1507 6.83008 8.17403 6.84408 8.18337 6.87208L11.5854 15.9441C11.5947 15.9628 11.5947 15.9768 11.5854 15.9861C11.576 15.9954 11.562 16.0001 11.5434 16.0001H11.3054C11.2774 16.0001 11.2587 15.9861 11.2494 15.9581L8.42137 8.44008C8.33737 8.22541 8.25803 8.00608 8.18337 7.78208C8.1087 7.55808 8.03403 7.33875 7.95937 7.12408H7.94537C7.86137 7.34808 7.78203 7.57675 7.70737 7.81008C7.6327 8.03408 7.55337 8.25808 7.46937 8.48208L4.64137 15.9581C4.63203 15.9861 4.6087 16.0001 4.57137 16.0001H4.34737ZM5.50937 13.3821L5.62137 13.0741H10.2414L10.3534 13.3821H5.50937ZM15.3496 18.7581C14.3043 18.7581 13.5623 18.6181 13.1236 18.3381C12.685 18.0674 12.4656 17.6334 12.4656 17.0361C12.4656 16.5321 12.5776 16.1401 12.8016 15.8601C13.035 15.5801 13.399 15.3561 13.8936 15.1881L14.2996 15.2721C13.777 15.4401 13.3943 15.6548 13.1516 15.9161C12.909 16.1681 12.7876 16.5321 12.7876 17.0081C12.7876 17.5308 12.9836 17.8994 13.3756 18.1141C13.7676 18.3381 14.4303 18.4501 15.3636 18.4501C16.3343 18.4501 17.0016 18.3288 17.3656 18.0861C17.7296 17.8528 17.9116 17.4654 17.9116 16.9241C17.9116 16.4388 17.795 16.0981 17.5616 15.9021C17.3283 15.6968 16.9363 15.5801 16.3856 15.5521L14.1456 15.3981C13.7443 15.3701 13.4503 15.2628 13.2636 15.0761C13.0863 14.8801 12.9976 14.6281 12.9976 14.3201C12.9976 14.1241 13.035 13.9514 13.1096 13.8021C13.1843 13.6528 13.2916 13.5174 13.4316 13.3961C13.5716 13.2654 13.735 13.1394 13.9216 13.0181L14.1876 13.1861C13.917 13.3354 13.7023 13.4988 13.5436 13.6761C13.385 13.8441 13.3056 14.0541 13.3056 14.3061C13.3056 14.5114 13.3756 14.6934 13.5156 14.8521C13.665 15.0014 13.959 15.0901 14.3976 15.1181L16.4836 15.2581C17.081 15.2954 17.5196 15.4354 17.7996 15.6781C18.089 15.9208 18.2336 16.3408 18.2336 16.9381C18.2336 17.5821 18.019 18.0441 17.5896 18.3241C17.1603 18.6134 16.4136 18.7581 15.3496 18.7581ZM15.4616 13.5081C14.6776 13.5081 14.0803 13.3261 13.6696 12.9621C13.2683 12.5888 13.0676 12.0428 13.0676 11.3241C13.0676 10.5961 13.2683 10.0501 13.6696 9.68608C14.0803 9.31275 14.6823 9.12608 15.4756 9.12608C16.2503 9.12608 16.843 9.31275 17.2536 9.68608C17.6643 10.0594 17.8696 10.6054 17.8696 11.3241C17.8696 12.0428 17.6643 12.5888 17.2536 12.9621C16.843 13.3261 16.2456 13.5081 15.4616 13.5081ZM15.4616 13.2001C16.1616 13.2001 16.6843 13.0461 17.0296 12.7381C17.375 12.4301 17.5476 11.9588 17.5476 11.3241C17.5476 10.6801 17.375 10.2041 17.0296 9.89608C16.6843 9.58808 16.1616 9.43408 15.4616 9.43408C14.7616 9.43408 14.239 9.58808 13.8936 9.89608C13.5576 10.2041 13.3896 10.6801 13.3896 11.3241C13.3896 11.9588 13.5576 12.4301 13.8936 12.7381C14.239 13.0461 14.7616 13.2001 15.4616 13.2001ZM16.8196 9.46208L16.5256 9.42008C16.5723 9.08408 16.6283 8.74341 16.6936 8.39808C16.7683 8.05275 16.843 7.76808 16.9176 7.54408C16.927 7.49741 16.9503 7.47408 16.9876 7.47408H17.1976C17.2443 7.47408 17.2583 7.49741 17.2396 7.54408C17.165 7.77741 17.0903 8.07141 17.0156 8.42608C16.941 8.77141 16.8756 9.11675 16.8196 9.46208Z" fill="#131313"/>
</svg>
