<svg width="24" height="24" viewBox="0 0 24 24" fill="none" xmlns="http://www.w3.org/2000/svg">
<path d="M4.17547 16.0001C4.0448 16.0001 3.99813 15.9348 4.03547 15.8041L7.00347 6.97008C7.0408 6.87675 7.1108 6.83008 7.21347 6.83008H9.35547C9.45813 6.83008 9.52347 6.87675 9.55147 6.97008L12.5475 15.8041C12.5661 15.8601 12.5615 15.9068 12.5335 15.9441C12.5148 15.9814 12.4728 16.0001 12.4075 16.0001H10.6015C10.4988 16.0001 10.4335 15.9534 10.4055 15.8601L8.79547 10.4421C8.70213 10.1248 8.61347 9.80741 8.52947 9.49008C8.44547 9.16341 8.36147 8.84141 8.27747 8.52408H8.24947C8.16547 8.84141 8.08147 9.16341 7.99747 9.49008C7.91347 9.80741 7.8248 10.1248 7.73147 10.4421L6.14947 15.8461C6.12147 15.9488 6.05613 16.0001 5.95347 16.0001H4.17547ZM6.33147 14.2221L6.66747 12.6261H9.81747L10.1815 14.2221H6.33147ZM16.1641 18.7581C15.0067 18.7581 14.1714 18.6134 13.6581 18.3241C13.1447 18.0441 12.8881 17.6194 12.8881 17.0501C12.8881 16.7141 12.9721 16.4061 13.1401 16.1261C13.3081 15.8461 13.5787 15.6081 13.9521 15.4121L15.4221 15.8461C15.2167 15.9301 15.0674 16.0374 14.9741 16.1681C14.8807 16.3081 14.8341 16.4621 14.8341 16.6301C14.8341 16.8821 14.9367 17.0548 15.1421 17.1481C15.3567 17.2508 15.7301 17.3021 16.2621 17.3021C16.8687 17.3114 17.2701 17.2648 17.4661 17.1621C17.6714 17.0688 17.7741 16.8914 17.7741 16.6301C17.7741 16.4528 17.7274 16.3174 17.6341 16.2241C17.5501 16.1401 17.4054 16.0934 17.2001 16.0841L14.6801 15.9301C14.2881 15.8928 13.9707 15.7621 13.7281 15.5381C13.4854 15.3141 13.3641 14.9968 13.3641 14.5861C13.3641 14.3808 13.3921 14.1894 13.4481 14.0121C13.5134 13.8348 13.6161 13.6714 13.7561 13.5221C13.9054 13.3634 14.0967 13.2141 14.3301 13.0741L15.4921 13.5361C15.3147 13.6014 15.1887 13.6808 15.1141 13.7741C15.0487 13.8674 15.0161 13.9654 15.0161 14.0681C15.0161 14.1801 15.0534 14.2594 15.1281 14.3061C15.2027 14.3528 15.3287 14.3854 15.5061 14.4041L17.7041 14.5441C18.4134 14.5908 18.9174 14.7868 19.2161 15.1321C19.5241 15.4681 19.6781 15.9581 19.6781 16.6021C19.6781 17.3581 19.3981 17.9041 18.8381 18.2401C18.2874 18.5854 17.3961 18.7581 16.1641 18.7581ZM16.3181 13.7601C15.3661 13.7601 14.6567 13.5641 14.1901 13.1721C13.7327 12.7708 13.5041 12.1641 13.5041 11.3521C13.5041 10.5214 13.7327 9.90541 14.1901 9.50408C14.6567 9.10275 15.3707 8.90208 16.3321 8.90208C17.2934 8.90208 17.9981 9.10275 18.4461 9.50408C18.9034 9.90541 19.1321 10.5261 19.1321 11.3661C19.1321 12.1781 18.9034 12.7801 18.4461 13.1721C17.9887 13.5641 17.2794 13.7601 16.3181 13.7601ZM16.3181 12.3181C16.6821 12.3181 16.9341 12.2434 17.0741 12.0941C17.2141 11.9448 17.2841 11.6928 17.2841 11.3381C17.2841 10.9834 17.2141 10.7314 17.0741 10.5821C16.9341 10.4234 16.6821 10.3441 16.3181 10.3441C15.9634 10.3441 15.7114 10.4234 15.5621 10.5821C15.4221 10.7314 15.3521 10.9834 15.3521 11.3381C15.3521 11.6928 15.4221 11.9448 15.5621 12.0941C15.7114 12.2434 15.9634 12.3181 16.3181 12.3181ZM18.2641 9.68608L16.9341 9.18208C16.9527 8.83675 16.9761 8.51941 17.0041 8.23008C17.0414 7.93141 17.0787 7.67008 17.1161 7.44608C17.1441 7.33408 17.2001 7.27808 17.2841 7.27808H18.5581C18.7074 7.27808 18.7587 7.34341 18.7121 7.47408C18.6001 7.80075 18.5067 8.14141 18.4321 8.49608C18.3667 8.85075 18.3107 9.24741 18.2641 9.68608Z" fill="#131313"/>
</svg>
