<svg width="24" height="24" viewBox="0 0 24 24" fill="none" xmlns="http://www.w3.org/2000/svg">
<path d="M4.79683 16.0001C4.77816 16.0001 4.76416 15.9954 4.75483 15.9861C4.73616 15.9674 4.73616 15.9441 4.75483 15.9161L9.40283 6.92808C9.43083 6.86275 9.46349 6.83008 9.50083 6.83008H10.1588C10.2055 6.83008 10.2382 6.85808 10.2568 6.91408L12.0768 15.9021C12.0862 15.9394 12.0815 15.9674 12.0628 15.9861C12.0442 15.9954 12.0208 16.0001 11.9928 16.0001H11.5168C11.4702 16.0001 11.4375 15.9721 11.4188 15.9161L10.0608 9.01408C10.0142 8.75275 9.96283 8.48675 9.90683 8.21608C9.86016 7.94541 9.81349 7.67475 9.76683 7.40408H9.75283C9.62216 7.67475 9.4915 7.94541 9.36083 8.21608C9.23016 8.48675 9.09483 8.75741 8.95483 9.02808L5.39883 15.9301C5.38949 15.9488 5.37549 15.9674 5.35683 15.9861C5.34749 15.9954 5.32416 16.0001 5.28683 16.0001H4.79683ZM6.47683 13.5501L6.72883 12.9901H10.9988L11.0828 13.5501H6.47683ZM16.7544 9.08408C17.2024 9.08408 17.627 9.13075 18.0284 9.22408C18.439 9.30808 18.887 9.38741 19.3724 9.46208L18.2664 16.3921C18.1824 16.9521 18.0237 17.4048 17.7904 17.7501C17.557 18.1048 17.2397 18.3614 16.8384 18.5201C16.437 18.6788 15.933 18.7581 15.3264 18.7581C14.8037 18.7581 14.3744 18.6881 14.0384 18.5481C13.7117 18.4081 13.483 18.1981 13.3524 17.9181C13.231 17.6474 13.2077 17.3161 13.2824 16.9241C13.2917 16.8681 13.3244 16.8401 13.3804 16.8401H13.8144C13.8797 16.8401 13.9077 16.8728 13.8984 16.9381C13.8424 17.3674 13.931 17.6848 14.1644 17.8901C14.3977 18.0954 14.813 18.1981 15.4104 18.1981C16.073 18.1981 16.5864 18.0674 16.9504 17.8061C17.3144 17.5448 17.5477 17.0781 17.6504 16.4061L18.0004 14.2641C17.515 14.6748 17.0437 15.0061 16.5864 15.2581C16.129 15.5008 15.653 15.6221 15.1584 15.6221C14.5144 15.6221 14.0524 15.4168 13.7724 15.0061C13.5017 14.5954 13.4317 13.9841 13.5624 13.1721L13.8284 11.4641C13.959 10.6334 14.2717 10.0314 14.7664 9.65808C15.2704 9.27541 15.933 9.08408 16.7544 9.08408ZM15.3264 15.0481C15.765 15.0481 16.2037 14.9221 16.6424 14.6701C17.081 14.4181 17.5664 14.0681 18.0984 13.6201L18.6864 9.92408C18.3784 9.84941 18.0517 9.78408 17.7064 9.72808C17.361 9.67208 17.039 9.64408 16.7404 9.64408C16.1244 9.64408 15.6157 9.78875 15.2144 10.0781C14.813 10.3674 14.5517 10.8714 14.4304 11.5901L14.1784 13.1441C14.0757 13.7974 14.1177 14.2781 14.3044 14.5861C14.5004 14.8941 14.841 15.0481 15.3264 15.0481Z" fill="#131313"/>
</svg>
