<svg width="24" height="24" viewBox="0 0 24 24" fill="none" xmlns="http://www.w3.org/2000/svg">
<path d="M10.7582 15.9995L10.2962 13.5215H6.15221L4.73821 15.9995H3.40821L8.95221 6.35352H10.2962L12.0882 15.9995H10.7582ZM6.79621 12.4015H10.1002L9.28821 8.03352L6.79621 12.4015ZM19.6202 9.46152H20.8382L19.7602 15.0055C19.2095 17.8428 17.7442 19.2615 15.3642 19.2615C14.7575 19.2615 14.2209 19.1075 13.7542 18.7995C13.2969 18.5008 12.9702 18.0715 12.7742 17.5115L13.9082 16.9655C14.0389 17.3295 14.2582 17.6095 14.5662 17.8055C14.8742 18.0108 15.2149 18.1135 15.5882 18.1135C16.3349 18.1135 16.9509 17.8755 17.4362 17.3995C17.9309 16.9235 18.2902 16.1535 18.5142 15.0895L18.5422 14.9635C18.2622 15.3275 17.8842 15.6168 17.4082 15.8315C16.9415 16.0368 16.4655 16.1395 15.9802 16.1395C15.0655 16.1395 14.3515 15.8222 13.8382 15.1875C13.3342 14.5528 13.1802 13.7315 13.3762 12.7235C13.5722 11.7155 14.0435 10.8988 14.7902 10.2735C15.5462 9.63885 16.3862 9.32152 17.3102 9.32152C17.8142 9.32152 18.2529 9.42419 18.6262 9.62952C19.0089 9.82552 19.2702 10.1102 19.4102 10.4835L19.6202 9.46152ZM16.3162 14.9915C16.9229 14.9915 17.4829 14.7815 17.9962 14.3615C18.5095 13.9415 18.8362 13.3908 18.9762 12.7095C19.1069 12.0375 18.9855 11.4962 18.6122 11.0855C18.2389 10.6748 17.7629 10.4695 17.1842 10.4695C16.5775 10.4695 16.0269 10.6795 15.5322 11.0995C15.0375 11.5195 14.7295 12.0562 14.6082 12.7095C14.4869 13.3535 14.5895 13.8948 14.9162 14.3335C15.2522 14.7722 15.7189 14.9915 16.3162 14.9915Z" fill="#131313"/>
</svg>
