<svg width="24" height="24" viewBox="0 0 24 24" fill="none" xmlns="http://www.w3.org/2000/svg">
<path d="M4.70091 17.0004L7.72491 7.90039H9.15291L12.1769 17.0004H10.8189L10.0629 14.6764H6.74491L5.98891 17.0004H4.70091ZM7.12291 13.4724H9.68491L8.41091 9.49639L7.12291 13.4724ZM16.336 20.1084C15.8507 20.1084 15.3793 20.0524 14.922 19.9404C14.474 19.8284 14.04 19.6557 13.62 19.4224L14.04 18.3584C14.7213 18.7411 15.4633 18.9324 16.266 18.9324C17.5913 18.9324 18.254 18.3491 18.254 17.1824V16.3424C17.582 16.7997 16.882 17.0284 16.154 17.0284C15.566 17.0284 15.0573 16.8884 14.628 16.6084C14.1987 16.3191 13.8627 15.9177 13.62 15.4044C13.3867 14.8911 13.27 14.2984 13.27 13.6264C13.27 12.9451 13.3867 12.3524 13.62 11.8484C13.8627 11.3351 14.1987 10.9384 14.628 10.6584C15.0573 10.3691 15.566 10.2244 16.154 10.2244C16.9473 10.2244 17.7127 10.4951 18.45 11.0364L18.576 10.3924H19.514V17.2944C19.514 18.1904 19.2433 18.8811 18.702 19.3664C18.17 19.8611 17.3813 20.1084 16.336 20.1084ZM16.42 15.8524C17.0547 15.8524 17.666 15.6564 18.254 15.2644V11.9884C17.666 11.5871 17.0547 11.3864 16.42 11.3864C15.8227 11.3864 15.3607 11.5917 15.034 12.0024C14.7167 12.4037 14.558 12.9451 14.558 13.6264C14.558 14.3077 14.7167 14.8491 15.034 15.2504C15.3607 15.6517 15.8227 15.8524 16.42 15.8524Z" fill="#131313"/>
</svg>
