<svg width="24" height="24" viewBox="0 0 24 24" fill="none" xmlns="http://www.w3.org/2000/svg">
<path d="M2.41837 17.0003L6.10037 6.78027H8.42437L12.2184 17.0003H10.8044L7.37437 7.67627L8.04637 8.01227H6.39437L7.10837 7.67627L3.79037 17.0003H2.41837ZM4.61637 13.9483L5.07837 12.7163H9.48837L9.95037 13.9483H4.61637ZM16.6424 19.9123C16.297 19.9123 15.947 19.8983 15.5924 19.8703C15.247 19.8423 14.9157 19.805 14.5984 19.7583V18.6243C14.9344 18.671 15.2844 18.7083 15.6484 18.7363C16.0217 18.7736 16.3717 18.7923 16.6984 18.7923C17.3797 18.7923 17.921 18.699 18.3224 18.5123C18.733 18.335 19.027 18.0503 19.2044 17.6583C19.391 17.2756 19.4844 16.781 19.4844 16.1743V14.7463L19.9324 13.6823C19.9044 14.4383 19.7457 15.0683 19.4564 15.5723C19.167 16.067 18.789 16.4403 18.3224 16.6923C17.865 16.935 17.3564 17.0563 16.7964 17.0563C16.2737 17.0563 15.793 16.9583 15.3544 16.7623C14.925 16.557 14.5517 16.277 14.2344 15.9223C13.9264 15.5676 13.6837 15.1616 13.5064 14.7043C13.3384 14.2376 13.2544 13.7476 13.2544 13.2343V12.9823C13.2544 12.4596 13.343 11.9743 13.5204 11.5263C13.6977 11.069 13.945 10.6723 14.2624 10.3363C14.5797 10.0003 14.9577 9.73894 15.3964 9.55227C15.8444 9.3656 16.3344 9.27227 16.8664 9.27227C17.4917 9.27227 18.0424 9.4076 18.5184 9.67827C18.9944 9.9396 19.3677 10.327 19.6384 10.8403C19.9184 11.3443 20.0724 11.965 20.1004 12.7023L19.7084 12.7163V9.52427H20.7724V16.1183C20.7724 17.0143 20.6324 17.7376 20.3524 18.2883C20.0817 18.8483 19.643 19.259 19.0364 19.5203C18.439 19.7816 17.641 19.9123 16.6424 19.9123ZM17.0484 15.8243C17.4964 15.8243 17.9024 15.7263 18.2664 15.5303C18.6397 15.3343 18.9337 15.0543 19.1484 14.6903C19.3724 14.317 19.4844 13.8736 19.4844 13.3603V12.7163C19.4844 12.2123 19.3677 11.7876 19.1344 11.4423C18.9104 11.097 18.6164 10.8356 18.2524 10.6583C17.8884 10.481 17.4917 10.3923 17.0624 10.3923C16.577 10.3923 16.1477 10.5043 15.7744 10.7283C15.401 10.9523 15.1117 11.2696 14.9064 11.6803C14.701 12.0816 14.5984 12.5576 14.5984 13.1083C14.5984 13.659 14.701 14.1396 14.9064 14.5503C15.121 14.961 15.4104 15.2783 15.7744 15.5023C16.1477 15.717 16.5724 15.8243 17.0484 15.8243Z" fill="#131313"/>
</svg>
