<svg width="24" height="24" viewBox="0 0 24 24" fill="none" xmlns="http://www.w3.org/2000/svg">
<path d="M2.81261 17.0003L6.74661 6.78027H7.83861L11.9126 17.0003H11.4506L7.46061 6.99027L7.82461 7.20027H6.73261L7.09661 6.99027L3.26061 17.0003H2.81261ZM4.46461 13.3603L4.61861 12.9403H10.0226L10.1906 13.3603H4.46461ZM16.7905 19.8563C16.4638 19.8563 16.1232 19.8376 15.7685 19.8003C15.4138 19.7723 15.0732 19.7303 14.7465 19.6743V19.2543C15.0825 19.3103 15.4325 19.3523 15.7965 19.3803C16.1698 19.4176 16.5198 19.4363 16.8465 19.4363C17.6212 19.4363 18.2278 19.3383 18.6665 19.1423C19.1145 18.9463 19.4318 18.6196 19.6185 18.1623C19.8052 17.7143 19.8985 17.103 19.8985 16.3283V14.7603L20.1785 13.7663C20.1785 14.3916 20.0432 14.9656 19.7725 15.4883C19.5112 16.011 19.1285 16.431 18.6245 16.7483C18.1298 17.0656 17.5325 17.2243 16.8325 17.2243C16.2725 17.2243 15.7732 17.117 15.3345 16.9023C14.9052 16.6876 14.5412 16.3983 14.2425 16.0343C13.9532 15.6703 13.7292 15.2596 13.5705 14.8023C13.4212 14.345 13.3465 13.8783 13.3465 13.4023V13.3183C13.3465 12.8703 13.4212 12.4223 13.5705 11.9743C13.7198 11.517 13.9392 11.1016 14.2285 10.7283C14.5178 10.355 14.8818 10.0563 15.3205 9.83227C15.7592 9.60827 16.2632 9.49627 16.8325 9.49627C17.5418 9.49627 18.1485 9.66427 18.6525 10.0003C19.1565 10.327 19.5392 10.7563 19.8005 11.2883C20.0712 11.811 20.2065 12.3663 20.2065 12.9543L19.9825 12.3803V9.72027H20.3465V16.3423C20.3465 17.2103 20.2298 17.901 19.9965 18.4143C19.7725 18.9276 19.3992 19.2963 18.8765 19.5203C18.3538 19.7443 17.6585 19.8563 16.7905 19.8563ZM16.8605 16.8043C17.4765 16.8043 18.0132 16.669 18.4705 16.3983C18.9278 16.1276 19.2825 15.759 19.5345 15.2923C19.7958 14.8256 19.9265 14.3076 19.9265 13.7383V12.9823C19.9265 12.441 19.8005 11.9416 19.5485 11.4843C19.3058 11.0176 18.9558 10.6396 18.4985 10.3503C18.0412 10.061 17.4952 9.91627 16.8605 9.91627C16.1885 9.91627 15.6238 10.0843 15.1665 10.4203C14.7185 10.7563 14.3778 11.1856 14.1445 11.7083C13.9112 12.231 13.7945 12.7816 13.7945 13.3603C13.7945 13.967 13.9158 14.5363 14.1585 15.0683C14.4012 15.591 14.7512 16.011 15.2085 16.3283C15.6658 16.6456 16.2165 16.8043 16.8605 16.8043Z" fill="#131313"/>
</svg>
