<svg width="24" height="24" viewBox="0 0 24 24" fill="none" xmlns="http://www.w3.org/2000/svg">
<path d="M3.99347 16.9998L9.22947 7.75977H9.64947L10.9375 16.9998H10.5175L9.78947 11.4558C9.72414 10.9331 9.6588 10.3918 9.59347 9.83177C9.52814 9.27177 9.45814 8.7351 9.38347 8.22177H9.31347C9.00547 8.77244 8.71147 9.30444 8.43147 9.81777C8.1608 10.3218 7.87614 10.8491 7.57747 11.3998L4.44147 16.9998H3.99347ZM6.20547 13.6678L6.31747 13.3038H10.2375L10.2235 13.6678H6.20547ZM15.244 20.2758C14.74 20.2758 14.2873 20.2011 13.886 20.0518C13.4847 19.9025 13.144 19.7158 12.864 19.4918L13.116 19.1838C13.396 19.4171 13.732 19.5945 14.124 19.7158C14.516 19.8465 14.908 19.9118 15.3 19.9118C15.804 19.9118 16.2567 19.8231 16.658 19.6458C17.0593 19.4685 17.3907 19.2025 17.652 18.8478C17.9133 18.5025 18.0907 18.0825 18.184 17.5878L18.52 15.8238H18.464C18.0907 16.1878 17.6707 16.4911 17.204 16.7338C16.7467 16.9671 16.28 17.0838 15.804 17.0838C15.0947 17.0838 14.5207 16.8691 14.082 16.4398C13.6433 16.0105 13.424 15.3851 13.424 14.5638C13.424 13.9851 13.5173 13.4298 13.704 12.8978C13.8907 12.3658 14.152 11.8945 14.488 11.4838C14.824 11.0638 15.2207 10.7371 15.678 10.5038C16.1353 10.2611 16.6347 10.1398 17.176 10.1398C17.68 10.1398 18.1233 10.2425 18.506 10.4478C18.8887 10.6531 19.1827 10.9238 19.388 11.2598H19.444L19.696 10.3078H20.032L18.548 17.7278C18.436 18.2878 18.226 18.7545 17.918 19.1278C17.61 19.5105 17.2273 19.7951 16.77 19.9818C16.3127 20.1778 15.804 20.2758 15.244 20.2758ZM15.832 16.7198C16.28 16.7198 16.7467 16.5891 17.232 16.3278C17.7173 16.0571 18.184 15.6838 18.632 15.2078L19.36 11.7918C19.052 11.3251 18.7113 10.9938 18.338 10.7978C17.9647 10.6018 17.568 10.5038 17.148 10.5038C16.672 10.5038 16.2287 10.6158 15.818 10.8398C15.4167 11.0638 15.0667 11.3671 14.768 11.7498C14.4693 12.1231 14.236 12.5478 14.068 13.0238C13.9 13.4998 13.816 13.9851 13.816 14.4798C13.816 15.2358 13.998 15.8005 14.362 16.1738C14.726 16.5378 15.216 16.7198 15.832 16.7198Z" fill="#131313"/>
</svg>
