<svg width="24" height="24" viewBox="0 0 24 24" fill="none" xmlns="http://www.w3.org/2000/svg">
<path d="M2.89087 17.0001L3.04487 16.2161L4.44487 16.1041H4.83687L6.22287 16.2161L6.08287 17.0001H2.89087ZM3.66087 17.0001L8.70087 7.7041H10.0449L11.4449 17.0001H9.65287L8.58887 8.9641H8.61687L8.11287 10.2521L4.61287 17.0001H3.66087ZM5.95687 13.9481L6.09687 13.1781H9.97487L9.94687 13.9481H5.95687ZM8.18287 17.0001L8.33687 16.2161L10.1009 16.1041H10.7869L12.4389 16.2161L12.2989 17.0001H8.18287ZM15.2719 20.3041C14.7026 20.3041 14.2079 20.2388 13.7879 20.1081C13.3679 19.9774 13.0459 19.7954 12.8219 19.5621C12.5886 19.3288 12.4719 19.0534 12.4719 18.7361C12.4719 18.4374 12.5699 18.1621 12.7659 17.9101C12.9619 17.6674 13.2466 17.4528 13.6199 17.2661C13.9932 17.0794 14.4319 16.9254 14.9359 16.8041L15.1319 16.9581C14.7306 17.1821 14.4272 17.4014 14.2219 17.6161C14.0259 17.8308 13.9279 18.0828 13.9279 18.3721C13.9279 18.7268 14.1006 19.0068 14.4459 19.2121C14.7912 19.4268 15.2532 19.5341 15.8319 19.5341C16.2706 19.5341 16.6579 19.4781 16.9939 19.3661C17.3299 19.2634 17.5912 19.1094 17.7779 18.9041C17.9646 18.6988 18.0579 18.4608 18.0579 18.1901C18.0579 18.0314 18.0159 17.8914 17.9319 17.7701C17.8479 17.6488 17.7079 17.5461 17.5119 17.4621C17.3159 17.3781 17.0499 17.3174 16.7139 17.2801L15.0199 17.1121C14.9639 17.1028 14.9032 17.0934 14.8379 17.0841C14.7819 17.0748 14.7212 17.0654 14.6559 17.0561L14.6699 16.8321C14.3059 16.7668 14.0352 16.6454 13.8579 16.4681C13.6806 16.2814 13.5919 16.0621 13.5919 15.8101C13.5919 15.4834 13.7179 15.2081 13.9699 14.9841C14.2312 14.7601 14.5859 14.5734 15.0339 14.4241L15.0619 14.0741L15.5099 14.2421C15.2952 14.4474 15.1552 14.6201 15.0899 14.7601C15.0339 14.8908 15.0059 15.0214 15.0059 15.1521C15.0059 15.2828 15.0572 15.4041 15.1599 15.5161C15.2719 15.6281 15.4632 15.6981 15.7339 15.7261L17.4139 15.9221C17.8806 15.9688 18.2679 16.0714 18.5759 16.2301C18.8839 16.3794 19.1079 16.5708 19.2479 16.8041C19.3972 17.0281 19.4719 17.2894 19.4719 17.5881C19.4719 18.0081 19.3599 18.3861 19.1359 18.7221C18.9212 19.0581 18.6179 19.3428 18.2259 19.5761C17.8339 19.8188 17.3859 20.0008 16.8819 20.1221C16.3779 20.2434 15.8412 20.3041 15.2719 20.3041ZM16.2799 14.6901C15.8132 14.6901 15.4119 14.6061 15.0759 14.4381C14.7399 14.2701 14.4786 14.0368 14.2919 13.7381C14.1146 13.4394 14.0259 13.0894 14.0259 12.6881C14.0259 12.3054 14.0959 11.9461 14.2359 11.6101C14.3852 11.2741 14.5906 10.9754 14.8519 10.7141C15.1132 10.4528 15.4166 10.2474 15.7619 10.0981C16.1166 9.94877 16.4992 9.8741 16.9099 9.8741C17.3206 9.8741 17.6706 9.94877 17.9599 10.0981C18.2492 10.2381 18.4732 10.4341 18.6319 10.6861C18.7906 10.9381 18.8792 11.2274 18.8979 11.5541L18.9959 11.5401C19.0612 11.0734 19.1546 10.7048 19.2759 10.4341C19.4066 10.1634 19.5652 9.96743 19.7519 9.8461C19.9386 9.72477 20.1532 9.6641 20.3959 9.6641C20.5079 9.6641 20.6012 9.67343 20.6759 9.6921C20.7599 9.71077 20.8252 9.73877 20.8719 9.7761C20.9092 9.82277 20.9372 9.8881 20.9559 9.9721C20.9839 10.0468 20.9979 10.1308 20.9979 10.2241C20.9979 10.5881 20.8626 10.8681 20.5919 11.0641C20.3306 11.2508 19.9012 11.3861 19.3039 11.4701L19.6119 10.8961C19.5746 11.0641 19.5326 11.2228 19.4859 11.3721C19.4486 11.5214 19.4066 11.6708 19.3599 11.8201C19.3226 11.9694 19.2759 12.1328 19.2199 12.3101C19.1359 12.6461 19.0146 12.9588 18.8559 13.2481C18.7066 13.5374 18.5106 13.7894 18.2679 14.0041C18.0346 14.2188 17.7546 14.3868 17.4279 14.5081C17.1012 14.6294 16.7186 14.6901 16.2799 14.6901ZM16.5739 14.0881C16.7419 14.0881 16.8959 14.0461 17.0359 13.9621C17.1852 13.8781 17.3112 13.7521 17.4139 13.5841C17.5259 13.4068 17.6099 13.1828 17.6659 12.9121C17.7219 12.6414 17.7499 12.3194 17.7499 11.9461C17.7499 11.4888 17.6612 11.1294 17.4839 10.8681C17.3066 10.6068 17.0779 10.4761 16.7979 10.4761C16.6019 10.4761 16.4292 10.5274 16.2799 10.6301C16.1306 10.7328 16.0046 10.8774 15.9019 11.0641C15.7992 11.2414 15.7199 11.4561 15.6639 11.7081C15.6172 11.9508 15.5939 12.2261 15.5939 12.5341C15.5939 12.8328 15.6266 13.0988 15.6919 13.3321C15.7666 13.5654 15.8739 13.7521 16.0139 13.8921C16.1632 14.0228 16.3499 14.0881 16.5739 14.0881Z" fill="#131313"/>
</svg>
