<svg width="24" height="24" viewBox="0 0 24 24" fill="none" xmlns="http://www.w3.org/2000/svg">
<path d="M2.53487 17.0004V16.0904L3.99087 15.9924H4.28487L5.69887 16.0904V17.0004H2.53487ZM3.24887 17.0004L6.45487 7.77441H8.30287L11.5509 17.0004H9.00287L6.51087 9.34241H6.55287L6.27287 10.7844L4.27087 17.0004H3.24887ZM4.80287 14.3824V13.5004H9.22687V14.3824H4.80287ZM7.54687 17.0004V16.1184L9.22687 16.0064H10.3749L12.1529 16.1184V17.0004H7.54687ZM15.7497 20.2204C15.0403 20.2204 14.4523 20.1504 13.9857 20.0104C13.5283 19.8704 13.1877 19.6744 12.9637 19.4224C12.7397 19.1797 12.6277 18.9044 12.6277 18.5964C12.6277 18.3164 12.7117 18.0737 12.8797 17.8684C13.0477 17.6724 13.2903 17.5091 13.6077 17.3784C13.9343 17.2571 14.3217 17.1684 14.7697 17.1124L14.9097 17.1964C14.807 17.2804 14.7137 17.3737 14.6297 17.4764C14.555 17.5884 14.4943 17.7051 14.4477 17.8264C14.401 17.9571 14.3777 18.1017 14.3777 18.2604C14.3777 18.4751 14.4383 18.6617 14.5597 18.8204C14.6903 18.9884 14.8817 19.1191 15.1337 19.2124C15.395 19.3057 15.731 19.3524 16.1417 19.3524C16.6083 19.3524 17.0003 19.3011 17.3177 19.1984C17.635 19.1051 17.873 18.9744 18.0317 18.8064C18.1903 18.6384 18.2697 18.4471 18.2697 18.2324C18.2697 17.9804 18.1857 17.7797 18.0177 17.6304C17.859 17.4811 17.5883 17.4064 17.2057 17.4064H15.3857C15.1803 17.4064 14.9937 17.4017 14.8257 17.3924C14.6577 17.3831 14.499 17.3691 14.3497 17.3504V16.9584C13.9297 16.8931 13.5983 16.7671 13.3557 16.5804C13.113 16.3937 12.9917 16.1231 12.9917 15.7684C12.9917 15.4231 13.1177 15.1337 13.3697 14.9004C13.631 14.6671 13.9857 14.4804 14.4337 14.3404V13.9064L15.1057 14.0324C14.975 14.1631 14.877 14.2844 14.8117 14.3964C14.7557 14.5084 14.7277 14.6531 14.7277 14.8304C14.7277 15.0357 14.7977 15.1944 14.9377 15.3064C15.087 15.4091 15.325 15.4604 15.6517 15.4604H17.3317C18.0037 15.4604 18.545 15.5491 18.9557 15.7264C19.3663 15.8944 19.6603 16.1277 19.8377 16.4264C20.0243 16.7157 20.1177 17.0564 20.1177 17.4484C20.1177 17.8497 20.0057 18.2184 19.7817 18.5544C19.567 18.8904 19.259 19.1844 18.8577 19.4364C18.4657 19.6884 18.0037 19.8797 17.4717 20.0104C16.949 20.1504 16.375 20.2204 15.7497 20.2204ZM16.0157 14.4244C15.353 14.4244 14.7883 14.3311 14.3217 14.1444C13.8643 13.9577 13.5143 13.6964 13.2717 13.3604C13.029 13.0151 12.9077 12.6091 12.9077 12.1424C12.9077 11.6851 13.029 11.2837 13.2717 10.9384C13.5143 10.5837 13.8643 10.3084 14.3217 10.1124C14.779 9.90708 15.3343 9.80441 15.9877 9.80441C16.4637 9.80441 16.8697 9.85574 17.2057 9.95841C17.551 10.0611 17.831 10.2011 18.0457 10.3784C18.2697 10.5557 18.4423 10.7564 18.5637 10.9804L18.7737 11.0084C18.8763 11.1484 18.9557 11.3117 19.0117 11.4984C19.0677 11.6757 19.0957 11.8811 19.0957 12.1144C19.0957 12.5717 18.9743 12.9731 18.7317 13.3184C18.4983 13.6637 18.153 13.9344 17.6957 14.1304C17.2383 14.3264 16.6783 14.4244 16.0157 14.4244ZM16.0157 13.6824C16.2397 13.6824 16.4217 13.6217 16.5617 13.5004C16.7017 13.3791 16.8043 13.2017 16.8697 12.9684C16.9443 12.7351 16.9817 12.4457 16.9817 12.1004C16.9817 11.7644 16.9443 11.4844 16.8697 11.2604C16.8043 11.0271 16.7017 10.8497 16.5617 10.7284C16.4217 10.6071 16.2443 10.5464 16.0297 10.5464C15.815 10.5464 15.633 10.6071 15.4837 10.7284C15.3437 10.8497 15.2363 11.0271 15.1617 11.2604C15.0963 11.4937 15.0637 11.7784 15.0637 12.1144C15.0637 12.4504 15.0963 12.7351 15.1617 12.9684C15.2363 13.2017 15.3437 13.3791 15.4837 13.5004C15.6237 13.6217 15.801 13.6824 16.0157 13.6824ZM18.1857 11.3164V10.8264H18.5637L19.7957 9.70641L20.3557 9.77641V11.3164H18.1857Z" fill="#131313"/>
</svg>
