<svg width="24" height="24" viewBox="0 0 24 24" fill="none" xmlns="http://www.w3.org/2000/svg">
<path d="M7.55452 8.13245L6.14052 12.3045H8.95452L7.55452 8.13245ZM3.29852 16.0005V15.4265L4.47452 15.2445L7.45652 6.56445H8.33852L11.3205 15.3005L12.3705 15.4265V16.0005H8.56252V15.4265L9.93452 15.2585L9.16452 12.9625H5.91652L5.13252 15.2445L6.50452 15.4265V16.0005H3.29852ZM15.8434 13.2005C16.2914 13.2005 16.6414 13.0325 16.8934 12.6965C17.1454 12.3605 17.2714 11.9358 17.2714 11.4225C17.2714 10.9278 17.1501 10.5265 16.9074 10.2185C16.6741 9.90112 16.3381 9.74245 15.8994 9.74245C15.4607 9.74245 15.1154 9.90578 14.8634 10.2325C14.6114 10.5498 14.4854 10.9652 14.4854 11.4785C14.4854 11.9918 14.6021 12.4072 14.8354 12.7245C15.0781 13.0418 15.4141 13.2005 15.8434 13.2005ZM15.8714 13.7605C15.5074 13.7605 15.1621 13.7092 14.8354 13.6065C14.6021 13.9052 14.4854 14.2038 14.4854 14.5025C14.4854 14.6892 14.5367 14.8385 14.6394 14.9505C14.7514 15.0625 14.9707 15.1185 15.2974 15.1185H17.1314C17.9061 15.1185 18.4754 15.2772 18.8394 15.5945C19.2034 15.9118 19.3854 16.3552 19.3854 16.9245C19.3854 17.3258 19.2547 17.7132 18.9934 18.0865C18.7414 18.4598 18.3587 18.7632 17.8454 18.9965C17.3321 19.2298 16.6927 19.3465 15.9274 19.3465C14.9101 19.3465 14.1727 19.1878 13.7154 18.8705C13.2581 18.5532 13.0294 18.1472 13.0294 17.6525C13.0294 17.3538 13.1274 17.0738 13.3234 16.8125C13.5287 16.5605 13.8881 16.3085 14.4014 16.0565C13.7854 15.8885 13.4774 15.5338 13.4774 14.9925C13.4774 14.7685 13.5474 14.5352 13.6874 14.2925C13.8367 14.0498 14.0841 13.7652 14.4294 13.4385C14.0934 13.2518 13.8274 12.9952 13.6314 12.6685C13.4447 12.3418 13.3514 11.9405 13.3514 11.4645C13.3514 10.7272 13.5894 10.1625 14.0654 9.77045C14.5507 9.36912 15.1574 9.16845 15.8854 9.16845C16.6227 9.16845 17.2154 9.35045 17.6634 9.71445L19.2454 9.16845L19.4554 9.30845V10.1905H18.0834C18.2981 10.5358 18.4054 10.9605 18.4054 11.4645C18.4054 12.2018 18.1627 12.7712 17.6774 13.1725C17.2014 13.5645 16.5994 13.7605 15.8714 13.7605ZM14.1774 17.4285C14.1774 17.8858 14.3407 18.2125 14.6674 18.4085C14.9941 18.6045 15.4327 18.7025 15.9834 18.7025C16.7487 18.7025 17.3321 18.5625 17.7334 18.2825C18.1347 18.0118 18.3354 17.6805 18.3354 17.2885C18.3354 16.9805 18.2281 16.7192 18.0134 16.5045C17.7987 16.2992 17.4394 16.1965 16.9354 16.1965H15.2974C15.2041 16.1965 15.1061 16.1918 15.0034 16.1825C14.9101 16.1825 14.8167 16.1778 14.7234 16.1685C14.5274 16.3738 14.3874 16.5745 14.3034 16.7705C14.2194 16.9758 14.1774 17.1952 14.1774 17.4285Z" fill="#131313"/>
</svg>
