<svg width="24" height="24" viewBox="0 0 24 24" fill="none" xmlns="http://www.w3.org/2000/svg">
<path d="M4.16147 16.9997L6.96147 7.88574H9.64947L12.4495 16.9997H10.0835L8.97747 12.4777C8.8748 12.0297 8.75814 11.549 8.62747 11.0357C8.50614 10.5224 8.38947 10.0324 8.27747 9.56574H8.22147C8.12814 10.0324 8.0208 10.5224 7.89947 11.0357C7.78747 11.549 7.67547 12.0297 7.56347 12.4777L6.45747 16.9997H4.16147ZM6.09347 14.9417V13.2197H10.4895V14.9417H6.09347ZM16.322 19.9257C15.734 19.9257 15.202 19.865 14.726 19.7437C14.25 19.6224 13.872 19.431 13.592 19.1697C13.312 18.9177 13.172 18.5817 13.172 18.1617C13.172 17.8724 13.2607 17.6157 13.438 17.3917C13.6247 17.1677 13.8907 16.967 14.236 16.7897V16.7337C14.0493 16.6124 13.886 16.4584 13.746 16.2717C13.606 16.0757 13.536 15.833 13.536 15.5437C13.536 15.3104 13.6153 15.077 13.774 14.8437C13.9327 14.6104 14.1333 14.4097 14.376 14.2417V14.1857C14.124 14.0084 13.9047 13.7657 13.718 13.4577C13.5313 13.1497 13.438 12.795 13.438 12.3937C13.438 11.8244 13.578 11.353 13.858 10.9797C14.1473 10.6064 14.5207 10.3264 14.978 10.1397C15.4447 9.95307 15.944 9.85974 16.476 9.85974C16.9147 9.85974 17.302 9.91574 17.638 10.0277H20.466V11.6517H19.136C19.2013 11.745 19.2573 11.8664 19.304 12.0157C19.36 12.1557 19.388 12.305 19.388 12.4637C19.388 13.005 19.2573 13.4484 18.996 13.7937C18.744 14.139 18.3987 14.3957 17.96 14.5637C17.5213 14.7224 17.0267 14.8017 16.476 14.8017C16.3453 14.8017 16.2007 14.7924 16.042 14.7737C15.8927 14.755 15.7293 14.7224 15.552 14.6757C15.4587 14.7504 15.3887 14.8204 15.342 14.8857C15.3047 14.9417 15.286 15.0257 15.286 15.1377C15.286 15.2964 15.3747 15.413 15.552 15.4877C15.7387 15.5624 16.0327 15.5997 16.434 15.5997H17.666C18.5807 15.5997 19.2853 15.7397 19.78 16.0197C20.284 16.2997 20.536 16.757 20.536 17.3917C20.536 17.8864 20.3633 18.3204 20.018 18.6937C19.6727 19.0764 19.1827 19.375 18.548 19.5897C17.9227 19.8137 17.1807 19.9257 16.322 19.9257ZM16.476 13.4577C16.6533 13.4577 16.812 13.4204 16.952 13.3457C17.092 13.2617 17.204 13.1404 17.288 12.9817C17.3813 12.823 17.428 12.627 17.428 12.3937C17.428 12.1604 17.3813 11.969 17.288 11.8197C17.204 11.661 17.092 11.5444 16.952 11.4697C16.812 11.3857 16.6533 11.3437 16.476 11.3437C16.308 11.3437 16.1493 11.3857 16 11.4697C15.86 11.5444 15.748 11.661 15.664 11.8197C15.58 11.969 15.538 12.1604 15.538 12.3937C15.538 12.627 15.58 12.823 15.664 12.9817C15.748 13.1404 15.86 13.2617 16 13.3457C16.1493 13.4204 16.308 13.4577 16.476 13.4577ZM16.658 18.5257C17.0033 18.5257 17.3067 18.493 17.568 18.4277C17.8293 18.3717 18.0347 18.283 18.184 18.1617C18.3333 18.0497 18.408 17.9237 18.408 17.7837C18.408 17.5784 18.31 17.4477 18.114 17.3917C17.918 17.3357 17.6333 17.3077 17.26 17.3077H16.462C16.2007 17.3077 15.9907 17.2984 15.832 17.2797C15.6733 17.2704 15.5333 17.247 15.412 17.2097C15.2627 17.3124 15.1507 17.4057 15.076 17.4897C15.0107 17.583 14.978 17.6904 14.978 17.8117C14.978 18.0544 15.132 18.2317 15.44 18.3437C15.748 18.465 16.154 18.5257 16.658 18.5257Z" fill="#131313"/>
</svg>
