<svg width="24" height="24" viewBox="0 0 24 24" fill="none" xmlns="http://www.w3.org/2000/svg">
<path d="M7.08344 8.94409L5.92144 12.5141H8.21744L7.08344 8.94409ZM3.14944 16.0001V15.2441L4.28344 15.0761L7.12544 6.78809H8.56744L11.4374 15.1741L12.2914 15.2721V16.0001H7.96544V15.2721L9.04344 15.1321L8.46944 13.3261H5.65544L5.09544 15.0761L6.15944 15.2441V16.0001H3.14944ZM15.805 12.8641C16.1317 12.8641 16.3743 12.7194 16.533 12.4301C16.701 12.1408 16.785 11.7488 16.785 11.2541C16.785 10.7594 16.701 10.3768 16.533 10.1061C16.3743 9.82609 16.141 9.68609 15.833 9.68609C15.5157 9.68609 15.2777 9.82609 15.119 10.1061C14.9603 10.3861 14.881 10.7734 14.881 11.2681C14.881 11.7628 14.9557 12.1548 15.105 12.4441C15.2543 12.7241 15.4877 12.8641 15.805 12.8641ZM13.943 17.1621C13.943 17.5728 14.097 17.8714 14.405 18.0581C14.713 18.2541 15.1843 18.3521 15.819 18.3521C16.519 18.3521 17.0463 18.2494 17.401 18.0441C17.7557 17.8388 17.933 17.5821 17.933 17.2741C17.933 17.0688 17.8583 16.8821 17.709 16.7141C17.5597 16.5554 17.2937 16.4761 16.911 16.4761H15.441C14.9277 16.4761 14.503 16.4341 14.167 16.3501C14.0923 16.4808 14.0363 16.6068 13.999 16.7281C13.9617 16.8494 13.943 16.9941 13.943 17.1621ZM15.819 13.5221C15.3337 13.5221 14.909 13.4661 14.545 13.3541C14.433 13.5501 14.377 13.7648 14.377 13.9981C14.377 14.1568 14.4377 14.2874 14.559 14.3901C14.6803 14.4834 14.8903 14.5301 15.189 14.5301H16.827C17.5363 14.5301 18.101 14.6188 18.521 14.7961C18.941 14.9641 19.2397 15.2021 19.417 15.5101C19.6037 15.8088 19.697 16.1634 19.697 16.5741C19.697 17.0408 19.543 17.4701 19.235 17.8621C18.927 18.2634 18.465 18.5808 17.849 18.8141C17.2423 19.0568 16.491 19.1781 15.595 19.1781C14.8203 19.1781 14.2137 19.0988 13.775 18.9401C13.3363 18.7908 13.0283 18.5901 12.851 18.3381C12.6737 18.0861 12.585 17.8201 12.585 17.5401C12.585 16.9428 12.9723 16.4621 13.747 16.0981C13.4577 15.9768 13.2477 15.8181 13.117 15.6221C12.9957 15.4261 12.935 15.2114 12.935 14.9781C12.935 14.6514 13.0283 14.3434 13.215 14.0541C13.411 13.7554 13.6817 13.4568 14.027 13.1581C13.6443 12.9621 13.3597 12.7008 13.173 12.3741C12.9863 12.0474 12.893 11.6834 12.893 11.2821C12.893 10.6288 13.131 10.0874 13.607 9.65809C14.0923 9.22876 14.8297 9.01409 15.819 9.01409C16.323 9.01409 16.7617 9.07009 17.135 9.18209C17.5083 9.29409 17.8117 9.45276 18.045 9.65809L19.613 8.98609L19.837 9.12609V10.2041H18.507C18.675 10.5121 18.759 10.8714 18.759 11.2821C18.759 11.9074 18.5163 12.4394 18.031 12.8781C17.555 13.3074 16.8177 13.5221 15.819 13.5221Z" fill="#131313"/>
</svg>
