<svg width="24" height="24" viewBox="0 0 24 24" fill="none" xmlns="http://www.w3.org/2000/svg">
<path d="M3.93747 17.0004L9.10347 7.77441H9.74747L10.9935 17.0004H10.3775L9.71947 11.5264C9.65414 11.0131 9.5888 10.4857 9.52347 9.94441C9.46747 9.39374 9.4068 8.86641 9.34147 8.36241H9.27147C8.98214 8.89441 8.70214 9.41241 8.43147 9.91641C8.17014 10.4204 7.8948 10.9431 7.60547 11.4844L4.58147 17.0004H3.93747ZM6.14947 13.7944L6.28947 13.3044H10.2515L10.1955 13.7944H6.14947ZM15.258 20.2064C14.7447 20.2064 14.2827 20.1317 13.872 19.9824C13.4613 19.8331 13.1113 19.6417 12.822 19.4084L13.144 18.9744C13.424 19.2077 13.7553 19.3851 14.138 19.5064C14.53 19.6371 14.9173 19.7024 15.3 19.7024C15.7853 19.7024 16.2193 19.6184 16.602 19.4504C16.9847 19.2917 17.302 19.0491 17.554 18.7224C17.8153 18.3957 17.9927 17.9897 18.086 17.5044L18.408 15.8384H18.352C17.9973 16.1837 17.5913 16.4731 17.134 16.7064C16.686 16.9304 16.2287 17.0424 15.762 17.0424C15.0527 17.0424 14.4787 16.8277 14.04 16.3984C13.6013 15.9597 13.382 15.3344 13.382 14.5224C13.382 13.9344 13.4753 13.3744 13.662 12.8424C13.8487 12.3104 14.11 11.8391 14.446 11.4284C14.7913 11.0177 15.188 10.6957 15.636 10.4624C16.0933 10.2291 16.588 10.1124 17.12 10.1124C17.6147 10.1124 18.0487 10.2151 18.422 10.4204C18.8047 10.6164 19.094 10.8777 19.29 11.2044H19.346L19.612 10.2804H20.088L18.618 17.6304C18.506 18.2091 18.2913 18.6897 17.974 19.0724C17.6567 19.4551 17.2647 19.7397 16.798 19.9264C16.3407 20.1131 15.8273 20.2064 15.258 20.2064ZM15.86 16.5384C16.2893 16.5384 16.7327 16.4124 17.19 16.1604C17.6567 15.9084 18.1 15.5584 18.52 15.1104L19.22 11.8344C18.9307 11.3957 18.6087 11.0831 18.254 10.8964C17.9087 10.7097 17.5353 10.6164 17.134 10.6164C16.686 10.6164 16.2707 10.7237 15.888 10.9384C15.5053 11.1437 15.1693 11.4284 14.88 11.7924C14.5907 12.1471 14.3667 12.5531 14.208 13.0104C14.0493 13.4677 13.97 13.9344 13.97 14.4104C13.97 15.1291 14.138 15.6657 14.474 16.0204C14.8193 16.3657 15.2813 16.5384 15.86 16.5384Z" fill="#131313"/>
</svg>
