<svg width="24" height="24" viewBox="0 0 24 24" fill="none" xmlns="http://www.w3.org/2000/svg">
<path d="M2.9322 17.0001L3.1142 16.0901L4.4302 15.9781H5.0042L6.3062 16.0901L6.1382 17.0001H2.9322ZM3.6602 17.0001L8.5182 7.83008H10.3942L11.8642 17.0001H9.4282L8.3782 9.28608H8.3922L7.9302 10.6161L4.6822 17.0001H3.6602ZM5.8302 14.4101L6.0122 13.5281H9.8762L9.9462 14.4101H5.8302ZM7.9722 17.0001L8.1542 16.0901L10.0582 15.9781H10.9542L12.7602 16.0901L12.5922 17.0001H7.9722ZM15.84 20.2621C15.1867 20.2621 14.622 20.1968 14.146 20.0661C13.6793 19.9448 13.32 19.7721 13.068 19.5481C12.816 19.3241 12.69 19.0534 12.69 18.7361C12.69 18.4654 12.788 18.2181 12.984 17.9941C13.18 17.7794 13.46 17.5928 13.824 17.4341C14.1973 17.2848 14.636 17.1681 15.14 17.0841L15.35 17.2521C15.126 17.3921 14.944 17.5508 14.804 17.7281C14.6733 17.9054 14.608 18.1154 14.608 18.3581C14.608 18.6661 14.7807 18.9134 15.126 19.1001C15.4713 19.2868 15.9287 19.3801 16.498 19.3801C16.918 19.3801 17.268 19.3334 17.548 19.2401C17.8373 19.1561 18.0613 19.0348 18.22 18.8761C18.3787 18.7174 18.458 18.5354 18.458 18.3301C18.458 18.1994 18.416 18.0828 18.332 17.9801C18.2573 17.8774 18.1407 17.7981 17.982 17.7421C17.8327 17.6861 17.6367 17.6488 17.394 17.6301L15.294 17.4341C15.238 17.4248 15.182 17.4154 15.126 17.4061C15.07 17.4061 15.0093 17.4014 14.944 17.3921L14.986 17.1261C14.566 17.0794 14.2487 16.9581 14.034 16.7621C13.8287 16.5568 13.726 16.3001 13.726 15.9921C13.726 15.6001 13.8707 15.2781 14.16 15.0261C14.4587 14.7741 14.874 14.5688 15.406 14.4101L15.462 14.0741L15.924 14.2561C15.7653 14.4241 15.6627 14.5641 15.616 14.6761C15.5693 14.7788 15.546 14.8908 15.546 15.0121C15.546 15.1428 15.5973 15.2594 15.7 15.3621C15.8027 15.4554 15.9893 15.5114 16.26 15.5301L18.206 15.7121C18.7287 15.7494 19.1533 15.8521 19.48 16.0201C19.816 16.1881 20.0633 16.4028 20.222 16.6641C20.3807 16.9161 20.46 17.2101 20.46 17.5461C20.46 17.9661 20.3387 18.3441 20.096 18.6801C19.8627 19.0161 19.5313 19.3008 19.102 19.5341C18.682 19.7768 18.192 19.9588 17.632 20.0801C17.072 20.2014 16.4747 20.2621 15.84 20.2621ZM16.764 14.7461C16.2413 14.7461 15.7933 14.6528 15.42 14.4661C15.0467 14.2794 14.7573 14.0274 14.552 13.7101C14.356 13.3928 14.258 13.0381 14.258 12.6461C14.258 12.2634 14.3373 11.8994 14.496 11.5541C14.664 11.2088 14.888 10.9054 15.168 10.6441C15.4573 10.3734 15.7933 10.1634 16.176 10.0141C16.5587 9.85541 16.9787 9.77608 17.436 9.77608C17.9307 9.77608 18.3367 9.86008 18.654 10.0281C18.9807 10.1961 19.228 10.4154 19.396 10.6861C19.5733 10.9474 19.6667 11.2368 19.676 11.5541L19.732 11.5401C19.7973 11.0454 19.8953 10.6441 20.026 10.3361C20.166 10.0281 20.3387 9.80875 20.544 9.67808C20.7587 9.53808 21.0153 9.46808 21.314 9.46808C21.454 9.46808 21.5707 9.48208 21.664 9.51008C21.7667 9.53808 21.846 9.57541 21.902 9.62208C21.9393 9.66875 21.9673 9.73875 21.986 9.83208C22.0047 9.92541 22.014 10.0234 22.014 10.1261C22.014 10.5554 21.8647 10.8821 21.566 11.1061C21.2767 11.3301 20.796 11.4794 20.124 11.5541L20.46 10.9381C20.4227 11.1154 20.3853 11.2788 20.348 11.4281C20.3107 11.5681 20.2687 11.7128 20.222 11.8621C20.1847 12.0021 20.138 12.1608 20.082 12.3381C19.998 12.6741 19.8767 12.9914 19.718 13.2901C19.5593 13.5794 19.3493 13.8314 19.088 14.0461C18.836 14.2608 18.5187 14.4334 18.136 14.5641C17.7533 14.6854 17.296 14.7461 16.764 14.7461ZM17.212 14.0321C17.3147 14.0321 17.4173 14.0041 17.52 13.9481C17.632 13.8828 17.73 13.7801 17.814 13.6401C17.9073 13.5001 17.9773 13.3041 18.024 13.0521C18.08 12.7908 18.108 12.4688 18.108 12.0861C18.108 11.5821 18.0333 11.1901 17.884 10.9101C17.7347 10.6208 17.534 10.4761 17.282 10.4761C17.142 10.4761 17.0113 10.5228 16.89 10.6161C16.778 10.7094 16.68 10.8401 16.596 11.0081C16.5213 11.1668 16.4607 11.3628 16.414 11.5961C16.3767 11.8294 16.358 12.0908 16.358 12.3801C16.358 12.6508 16.386 12.9121 16.442 13.1641C16.498 13.4161 16.5867 13.6261 16.708 13.7941C16.8387 13.9528 17.0067 14.0321 17.212 14.0321Z" fill="#131313"/>
</svg>
