<svg width="24" height="24" viewBox="0 0 24 24" fill="none" xmlns="http://www.w3.org/2000/svg">
<path d="M3.50347 17.0001L8.19347 7.87207H10.4755L11.4275 17.0001H9.41147L9.17347 12.0581C9.14547 11.6008 9.12214 11.1528 9.10347 10.7141C9.0848 10.2661 9.06614 9.80874 9.04747 9.34207H8.99147C8.79547 9.79007 8.60414 10.2381 8.41747 10.6861C8.2308 11.1341 8.0348 11.5868 7.82947 12.0441L5.61747 17.0001H3.50347ZM5.78547 14.7041L6.13547 13.2621H10.3075L9.98547 14.7041H5.78547ZM15.398 19.7441C14.7727 19.7441 14.2267 19.6554 13.76 19.4781C13.2933 19.3101 12.8873 19.0954 12.542 18.8341L13.368 17.5041C13.6293 17.7281 13.9373 17.9054 14.292 18.0361C14.6467 18.1668 15.0013 18.2321 15.356 18.2321C15.636 18.2321 15.9067 18.1994 16.168 18.1341C16.4387 18.0688 16.672 17.9428 16.868 17.7561C17.0733 17.5694 17.2273 17.2988 17.33 16.9441L17.624 15.8941H17.568C17.288 16.1461 16.9567 16.3608 16.574 16.5381C16.2007 16.7061 15.8227 16.7901 15.44 16.7901C14.7027 16.7901 14.124 16.5568 13.704 16.0901C13.284 15.6141 13.074 14.9841 13.074 14.2001C13.074 13.5748 13.172 13.0008 13.368 12.4781C13.5733 11.9461 13.844 11.4888 14.18 11.1061C14.5253 10.7234 14.9127 10.4248 15.342 10.2101C15.7807 9.9954 16.238 9.88807 16.714 9.88807C17.1713 9.88807 17.5633 9.97207 17.89 10.1401C18.226 10.2988 18.4733 10.5181 18.632 10.7981H18.688L19.01 10.0561H20.522L19.15 16.8741C19.01 17.5928 18.7533 18.1621 18.38 18.5821C18.0067 19.0021 17.5587 19.3008 17.036 19.4781C16.5227 19.6554 15.9767 19.7441 15.398 19.7441ZM16.112 15.2221C16.392 15.2221 16.6673 15.1521 16.938 15.0121C17.218 14.8628 17.484 14.6528 17.736 14.3821L18.212 12.1421C18.0533 11.8994 17.8713 11.7268 17.666 11.6241C17.47 11.5121 17.2553 11.4561 17.022 11.4561C16.7887 11.4561 16.5553 11.5121 16.322 11.6241C16.0887 11.7361 15.874 11.9041 15.678 12.1281C15.4913 12.3428 15.342 12.5994 15.23 12.8981C15.118 13.1968 15.062 13.5328 15.062 13.9061C15.062 14.3634 15.1507 14.6994 15.328 14.9141C15.5053 15.1194 15.7667 15.2221 16.112 15.2221Z" fill="#131313"/>
</svg>
