<svg width="24" height="24" viewBox="0 0 24 24" fill="none" xmlns="http://www.w3.org/2000/svg">
<path d="M1.48119 17.0002L6.08019 5.4502H7.78119L12.3872 17.0002H10.4132L9.27919 13.9902H4.58919L3.44819 17.0002H1.48119ZM5.21219 12.3802H8.65619L6.92719 7.9142L5.21219 12.3802ZM17.449 20.8502C16.5063 20.8502 15.7106 20.6729 15.062 20.3182C14.418 19.9635 13.9466 19.4455 13.648 18.7642L15.076 18.0782C15.2813 18.4655 15.5986 18.7735 16.028 19.0022C16.4573 19.2355 16.931 19.3522 17.449 19.3522C17.9063 19.3522 18.31 19.2612 18.66 19.0792C19.01 18.8972 19.2853 18.6382 19.486 18.3022C19.6866 17.9709 19.787 17.5789 19.787 17.1262V15.8522C19.479 16.2815 19.0916 16.6175 18.625 16.8602C18.163 17.1029 17.6566 17.2242 17.106 17.2242C16.4526 17.2242 15.8576 17.0609 15.321 16.7342C14.7843 16.4075 14.3573 15.9572 14.04 15.3832C13.7226 14.8092 13.564 14.1535 13.564 13.4162C13.564 12.6835 13.718 12.0325 14.026 11.4632C14.3386 10.8892 14.7633 10.4365 15.3 10.1052C15.8413 9.77387 16.4573 9.6082 17.148 9.6082C17.6986 9.6082 18.205 9.72487 18.667 9.9582C19.1336 10.1915 19.507 10.5159 19.787 10.9312V9.8322H21.53V17.1962C21.53 17.9335 21.376 18.5752 21.068 19.1212C20.7646 19.6719 20.3096 20.0965 19.703 20.3952C19.0963 20.6985 18.345 20.8502 17.449 20.8502ZM17.603 15.7332C18.0416 15.7332 18.429 15.6352 18.765 15.4392C19.101 15.2385 19.3646 14.9655 19.556 14.6202C19.7473 14.2702 19.843 13.8712 19.843 13.4232C19.843 12.9752 19.745 12.5762 19.549 12.2262C19.3576 11.8715 19.094 11.5962 18.758 11.4002C18.4266 11.1995 18.0463 11.0992 17.617 11.0992C17.1876 11.0992 16.805 11.1995 16.469 11.4002C16.133 11.5962 15.8693 11.8715 15.678 12.2262C15.4866 12.5762 15.391 12.9752 15.391 13.4232C15.391 13.8712 15.4843 14.2702 15.671 14.6202C15.8623 14.9655 16.1236 15.2385 16.455 15.4392C16.791 15.6352 17.1736 15.7332 17.603 15.7332Z" fill="#131313"/>
</svg>
