<svg width="24" height="24" viewBox="0 0 24 24" fill="none" xmlns="http://www.w3.org/2000/svg">
<path d="M1.92789 17.0002L6.47789 5.4502H7.46489L12.0079 17.0002H10.8599L9.45289 13.3182H4.48989L3.06889 17.0002H1.92789ZM4.84689 12.3802H9.08889L6.96789 6.8502L4.84689 12.3802ZM17.4346 20.8502C16.5293 20.8502 15.764 20.6729 15.1386 20.3182C14.5133 19.9635 14.049 19.4455 13.7456 18.7642L14.6066 18.3652C14.826 18.8599 15.19 19.2519 15.6986 19.5412C16.2073 19.8352 16.786 19.9822 17.4346 19.9822C17.9806 19.9822 18.4683 19.8725 18.8976 19.6532C19.3316 19.4385 19.6723 19.1259 19.9196 18.7152C20.1716 18.3045 20.2976 17.8122 20.2976 17.2382V15.4882C19.999 16.0295 19.5883 16.4542 19.0656 16.7622C18.5476 17.0702 17.969 17.2242 17.3296 17.2242C16.6623 17.2242 16.058 17.0609 15.5166 16.7342C14.98 16.4075 14.553 15.9572 14.2356 15.3832C13.923 14.8092 13.7666 14.1535 13.7666 13.4162C13.7666 12.6835 13.923 12.0325 14.2356 11.4632C14.5483 10.8892 14.973 10.4365 15.5096 10.1052C16.051 9.77387 16.6646 9.6082 17.3506 9.6082C17.9853 9.6082 18.5616 9.75987 19.0796 10.0632C19.6023 10.3665 20.0083 10.7865 20.2976 11.3232V9.8322H21.3196V17.1962C21.3196 17.9895 21.1633 18.6569 20.8506 19.1982C20.538 19.7442 20.09 20.1549 19.5066 20.4302C18.928 20.7102 18.2373 20.8502 17.4346 20.8502ZM17.5746 16.3352C18.116 16.3352 18.5943 16.2115 19.0096 15.9642C19.425 15.7122 19.7516 15.3669 19.9896 14.9282C20.2276 14.4849 20.3466 13.9832 20.3466 13.4232C20.3466 12.8539 20.2276 12.3499 19.9896 11.9112C19.7516 11.4679 19.425 11.1225 19.0096 10.8752C18.5943 10.6232 18.1183 10.4972 17.5816 10.4972C17.045 10.4972 16.569 10.6232 16.1536 10.8752C15.7383 11.1225 15.4116 11.4679 15.1736 11.9112C14.9356 12.3499 14.8166 12.8539 14.8166 13.4232C14.8166 13.9832 14.9333 14.4849 15.1666 14.9282C15.4046 15.3669 15.7313 15.7122 16.1466 15.9642C16.5666 16.2115 17.0426 16.3352 17.5746 16.3352Z" fill="#131313"/>
</svg>
