<svg width="24" height="24" viewBox="0 0 24 24" fill="none" xmlns="http://www.w3.org/2000/svg">
<path d="M3.75302 16.0004V15.7204L4.59302 15.3704L8.16302 6.69043H8.65302L12.209 15.3564L13.091 15.7204V16.0004H9.82902V15.7204L11.033 15.3564L9.94102 12.6264H6.48302L5.40502 15.3704L6.60902 15.7204V16.0004H3.75302ZM6.74902 11.9684H9.67502L8.20502 8.30043L6.74902 11.9684ZM16.7432 13.9564C16.3885 13.9564 16.0618 13.8957 15.7632 13.7744C15.5112 13.8677 15.3385 13.9797 15.2452 14.1104C15.1518 14.2411 15.1052 14.3904 15.1052 14.5584C15.1052 14.8291 15.1938 15.0297 15.3712 15.1604C15.5578 15.2817 15.8518 15.3424 16.2532 15.3424H17.8912C18.5165 15.3424 18.9832 15.4871 19.2912 15.7764C19.6085 16.0564 19.7672 16.4624 19.7672 16.9944C19.7672 17.3864 19.6318 17.7597 19.3612 18.1144C19.0998 18.4784 18.7265 18.7771 18.2412 19.0104C17.7652 19.2437 17.2005 19.3604 16.5472 19.3604C15.6885 19.3604 15.0725 19.1971 14.6992 18.8704C14.3258 18.5531 14.1392 18.1611 14.1392 17.6944C14.1392 17.3584 14.2185 17.0597 14.3772 16.7984L15.3012 16.1264V16.0844C14.9745 16.0097 14.7225 15.8744 14.5452 15.6784C14.3678 15.4731 14.2792 15.2304 14.2792 14.9504C14.2792 14.6051 14.3912 14.3251 14.6152 14.1104L15.3992 13.6764V13.5924C15.0818 13.3964 14.8298 13.1397 14.6432 12.8224C14.4658 12.5051 14.3772 12.1504 14.3772 11.7584C14.3772 11.3384 14.4798 10.9651 14.6852 10.6384C14.8905 10.3024 15.1705 10.0411 15.5252 9.85443C15.8798 9.65843 16.2858 9.56043 16.7432 9.56043C16.9392 9.56043 17.1492 9.58376 17.3732 9.63043C17.6065 9.6771 17.8072 9.73776 17.9752 9.81243L20.0052 9.70043V10.3864L18.6472 10.2884L18.6052 10.3304C18.7545 10.4984 18.8758 10.7131 18.9692 10.9744C19.0625 11.2357 19.1092 11.4971 19.1092 11.7584C19.1092 12.1784 19.0065 12.5564 18.8012 12.8924C18.5958 13.2191 18.3158 13.4804 17.9612 13.6764C17.6065 13.8631 17.2005 13.9564 16.7432 13.9564ZM16.8832 13.5084C17.2658 13.5084 17.5692 13.3497 17.7932 13.0324C18.0172 12.7057 18.1292 12.2951 18.1292 11.8004C18.1292 11.2311 17.9845 10.7877 17.6952 10.4704C17.4152 10.1531 17.0652 9.99443 16.6452 9.99443C16.2345 9.99443 15.9125 10.1624 15.6792 10.4984C15.4552 10.8251 15.3432 11.2311 15.3432 11.7164C15.3432 12.2671 15.4878 12.7057 15.7772 13.0324C16.0665 13.3497 16.4352 13.5084 16.8832 13.5084ZM14.9932 17.5404C14.9932 17.9604 15.1612 18.3057 15.4972 18.5764C15.8332 18.8564 16.2438 18.9964 16.7292 18.9964C17.1585 18.9964 17.5365 18.9124 17.8632 18.7444C18.1898 18.5857 18.4465 18.3711 18.6332 18.1004C18.8198 17.8391 18.9132 17.5591 18.9132 17.2604C18.9132 16.8311 18.8012 16.5371 18.5772 16.3784C18.3532 16.2197 17.9518 16.1404 17.3732 16.1404H15.8892C15.8145 16.1404 15.7445 16.1357 15.6792 16.1264C15.4178 16.2851 15.2358 16.4764 15.1332 16.7004C15.0398 16.9337 14.9932 17.2137 14.9932 17.5404Z" fill="#131313"/>
</svg>
