<svg width="24" height="24" viewBox="0 0 24 24" fill="none" xmlns="http://www.w3.org/2000/svg">
<path d="M3.5948 16.0004V15.6504L4.3368 15.4824L7.9068 6.69043H8.2008L11.7568 15.4684L12.5968 15.6504V16.0004H9.6148V15.6504L10.8048 15.4684L9.6288 12.5004H6.0868L4.9528 15.4684L6.1988 15.6504V16.0004H3.5948ZM6.2828 12.0104H9.4328L7.8368 7.96443L6.2828 12.0104ZM16.0192 13.8864C15.7392 13.8864 15.4732 13.8397 15.2212 13.7464C14.9132 13.8771 14.6985 14.0171 14.5772 14.1664C14.4558 14.3157 14.3952 14.4884 14.3952 14.6844C14.3952 15.0017 14.5072 15.2304 14.7312 15.3704C14.9552 15.5104 15.3005 15.5804 15.7672 15.5804H17.3492C17.8998 15.5804 18.3198 15.7111 18.6092 15.9724C18.9078 16.2337 19.0572 16.5931 19.0572 17.0504C19.0572 17.4331 18.9265 17.8017 18.6652 18.1564C18.4038 18.5111 18.0398 18.8004 17.5732 19.0244C17.1065 19.2484 16.5558 19.3604 15.9212 19.3604C15.1092 19.3604 14.5258 19.1971 14.1712 18.8704C13.8165 18.5531 13.6392 18.1611 13.6392 17.6944C13.6392 17.3491 13.7092 17.0504 13.8492 16.7984L14.7032 16.0844V16.0564C14.0965 15.8791 13.7932 15.5104 13.7932 14.9504C13.7932 14.6424 13.8958 14.3857 14.1012 14.1804L14.9272 13.6904V13.6204C14.5912 13.4431 14.3252 13.1911 14.1292 12.8644C13.9332 12.5284 13.8352 12.1504 13.8352 11.7304C13.8352 11.3197 13.9285 10.9511 14.1152 10.6244C14.3112 10.2977 14.5725 10.0411 14.8992 9.85443C15.2258 9.65843 15.5992 9.56043 16.0192 9.56043C16.2245 9.56043 16.4485 9.58843 16.6912 9.64443C16.9338 9.6911 17.1252 9.7471 17.2652 9.81243L19.1692 9.70043V10.2744L17.7552 10.1764L17.7272 10.2044C17.8765 10.3631 17.9885 10.5871 18.0632 10.8764C18.1472 11.1564 18.1892 11.4411 18.1892 11.7304C18.1892 12.1411 18.0958 12.5097 17.9092 12.8364C17.7225 13.1631 17.4658 13.4197 17.1392 13.6064C16.8125 13.7931 16.4392 13.8864 16.0192 13.8864ZM16.1592 13.6064C16.5605 13.6064 16.8778 13.4477 17.1112 13.1304C17.3538 12.8037 17.4752 12.3464 17.4752 11.7584C17.4752 11.1144 17.3258 10.6337 17.0272 10.3164C16.7285 9.98976 16.3598 9.82643 15.9212 9.82643C15.4918 9.82643 15.1558 9.99443 14.9132 10.3304C14.6705 10.6571 14.5492 11.1097 14.5492 11.6884C14.5492 12.3324 14.6985 12.8131 14.9972 13.1304C15.3052 13.4477 15.6925 13.6064 16.1592 13.6064ZM14.2832 17.5404C14.2832 17.9697 14.4605 18.3291 14.8152 18.6184C15.1792 18.9077 15.6225 19.0524 16.1452 19.0524C16.5932 19.0524 16.9898 18.9684 17.3352 18.8004C17.6805 18.6417 17.9512 18.4271 18.1472 18.1564C18.3432 17.8951 18.4412 17.6151 18.4412 17.3164C18.4412 16.8684 18.3245 16.5604 18.0912 16.3924C17.8672 16.2244 17.4612 16.1404 16.8732 16.1404H15.4032C15.2632 16.1404 15.1278 16.1311 14.9972 16.1124C14.7265 16.2711 14.5398 16.4624 14.4372 16.6864C14.3345 16.9197 14.2832 17.2044 14.2832 17.5404Z" fill="#131313"/>
</svg>
