<svg width="24" height="24" viewBox="0 0 24 24" fill="none" xmlns="http://www.w3.org/2000/svg">
<path d="M2.57066 16.0004V15.7764L3.39666 15.2864L7.10666 6.69043H8.71666L12.3847 15.2864L13.3507 15.7764V16.0004H8.31066V15.7764L9.51466 15.2584L8.61866 13.1024H5.35666L4.46066 15.2584L5.60866 15.7764V16.0004H2.57066ZM5.67866 12.3324H8.29666L6.99466 9.21043L5.67866 12.3324ZM18.0898 16.1404C17.3058 16.1404 16.5824 15.9817 15.9198 15.6644C15.2571 15.3377 14.7251 14.8804 14.3238 14.2924C13.9318 13.6951 13.7358 12.9951 13.7358 12.1924C13.7358 11.5484 13.8618 10.9697 14.1138 10.4564C14.3751 9.9431 14.7298 9.50443 15.1778 9.14043C15.6351 8.7671 16.1578 8.4871 16.7458 8.30043C17.3338 8.10443 17.9591 8.00643 18.6218 8.00643C19.2378 8.00643 19.7511 8.06243 20.1618 8.17443C20.5818 8.28643 20.9644 8.42176 21.3098 8.58043L21.4778 10.7504H21.2258L20.0498 9.02843C19.8538 8.91643 19.6671 8.84176 19.4898 8.80443C19.3124 8.75776 19.0978 8.73443 18.8458 8.73443C18.0338 8.73443 17.4271 9.05643 17.0258 9.70043C16.6244 10.3444 16.4238 11.1891 16.4238 12.2344C16.4238 12.8411 16.4984 13.3824 16.6478 13.8584C16.7971 14.3344 17.0304 14.7124 17.3478 14.9924C17.6744 15.2631 18.0991 15.3984 18.6218 15.3984C18.6778 15.3984 18.7384 15.3937 18.8038 15.3844V13.1724L17.7398 12.5844V12.3744H22.3318V12.5844L21.3938 13.1724V15.1464C21.1884 15.3424 20.9084 15.5151 20.5538 15.6644C20.1991 15.8137 19.8071 15.9304 19.3778 16.0144C18.9578 16.0984 18.5284 16.1404 18.0898 16.1404Z" fill="#131313"/>
</svg>
