<svg width="24" height="24" viewBox="0 0 24 24" fill="none" xmlns="http://www.w3.org/2000/svg">
<path d="M4.02847 17.0003L6.56947 6.82227H10.0415L12.5825 17.0003H10.2445L9.49547 13.7103L10.7345 14.6343H6.20547L6.27547 12.8703H10.2585L9.48847 13.6823L8.83047 10.3713L8.37547 8.29227H8.23547L7.78047 10.3713L6.36647 17.0003H4.02847ZM16.742 20.2063C15.93 20.2063 15.237 20.1176 14.663 19.9403C14.0937 19.763 13.6573 19.5086 13.354 19.1773C13.0553 18.8506 12.906 18.461 12.906 18.0083C12.906 17.7143 12.9853 17.4646 13.144 17.2593C13.3073 17.0586 13.5267 16.907 13.802 16.8043C14.0773 16.697 14.3853 16.648 14.726 16.6573L15.013 16.6223C14.9477 16.6783 14.8917 16.7413 14.845 16.8113C14.7983 16.8766 14.761 16.9536 14.733 17.0423C14.7097 17.131 14.698 17.229 14.698 17.3363C14.698 17.607 14.7727 17.8286 14.922 18.0013C15.076 18.1786 15.3 18.3093 15.594 18.3933C15.888 18.4773 16.252 18.5193 16.686 18.5193C17.2553 18.5193 17.6917 18.454 17.995 18.3233C18.2983 18.1973 18.4477 17.999 18.443 17.7283C18.443 17.523 18.3637 17.376 18.205 17.2873C18.051 17.1986 17.7687 17.131 17.358 17.0843L15.545 16.8603C14.9197 16.781 14.4483 16.662 14.131 16.5033C13.8183 16.34 13.6083 16.158 13.501 15.9573C13.3983 15.752 13.347 15.5513 13.347 15.3553C13.347 15.0846 13.4287 14.856 13.592 14.6693C13.7553 14.478 13.956 14.324 14.194 14.2073C14.4367 14.0906 14.6723 14.0066 14.901 13.9553C15.1343 13.904 15.3187 13.8853 15.454 13.8993C15.3233 13.9646 15.2043 14.0416 15.097 14.1303C14.9943 14.219 14.943 14.366 14.943 14.5713C14.943 14.73 15.006 14.849 15.132 14.9283C15.258 15.003 15.5147 15.066 15.902 15.1173L17.862 15.3623C18.576 15.451 19.1197 15.598 19.493 15.8033C19.871 16.0086 20.1277 16.2606 20.263 16.5593C20.403 16.858 20.473 17.1916 20.473 17.5603C20.473 17.9896 20.368 18.3676 20.158 18.6943C19.9527 19.0256 19.6727 19.3033 19.318 19.5273C18.9633 19.7513 18.562 19.9193 18.114 20.0313C17.6707 20.148 17.2133 20.2063 16.742 20.2063ZM16.784 14.3123C15.748 14.3123 14.9453 14.0836 14.376 13.6263C13.8067 13.1643 13.522 12.5413 13.522 11.7573C13.522 10.978 13.8067 10.3596 14.376 9.90227C14.95 9.44494 15.7573 9.22094 16.798 9.23027C17.4793 9.23494 18.0603 9.34227 18.541 9.55227C19.0263 9.7576 19.3973 10.0516 19.654 10.4343C19.9153 10.8123 20.046 11.265 20.046 11.7923C20.046 12.567 19.7613 13.1806 19.192 13.6333C18.6227 14.086 17.82 14.3123 16.784 14.3123ZM16.791 12.8423C17.1923 12.8423 17.491 12.7583 17.687 12.5903C17.883 12.4223 17.981 12.154 17.981 11.7853C17.981 11.412 17.8807 11.139 17.68 10.9663C17.484 10.789 17.183 10.7003 16.777 10.7003C16.4083 10.7003 16.1167 10.7843 15.902 10.9523C15.6873 11.1203 15.58 11.3863 15.58 11.7503C15.58 12.1283 15.6873 12.406 15.902 12.5833C16.1213 12.756 16.4177 12.8423 16.791 12.8423ZM17.673 9.44727L17.575 9.37727C17.617 8.84994 17.736 8.4486 17.932 8.17327C18.128 7.89327 18.3683 7.70194 18.653 7.59927C18.9423 7.4966 19.2387 7.44527 19.542 7.44527C19.6353 7.44527 19.7333 7.44994 19.836 7.45927C19.9433 7.4686 20.025 7.48494 20.081 7.50827V9.37027C19.8663 9.31894 19.6517 9.2816 19.437 9.25827C19.227 9.23494 19.0473 9.22327 18.898 9.22327C18.828 9.22327 18.723 9.22327 18.583 9.22327C18.4477 9.2186 18.2983 9.2326 18.135 9.26527C17.9763 9.29327 17.8223 9.35394 17.673 9.44727Z" fill="#131313"/>
</svg>
