<svg width="24" height="24" viewBox="0 0 24 24" fill="none" xmlns="http://www.w3.org/2000/svg">
<path d="M12.5392 16.8554C12.4365 16.8554 12.3681 16.7756 12.3338 16.6159L11.9916 14.785C11.9688 14.6367 11.9232 14.4085 11.8547 14.1005C11.7977 13.7925 11.7235 13.456 11.6323 13.091C11.484 13.1366 11.2958 13.2222 11.0676 13.3476C10.8509 13.4617 10.5144 13.6499 10.0581 13.9123C9.6588 14.129 9.3508 14.3002 9.13406 14.4256C8.91732 14.5397 8.7348 14.6481 8.5865 14.7507C8.43821 14.842 8.25569 14.9561 8.03895 15.093C7.98191 15.2641 7.91917 15.4694 7.85072 15.709C7.78228 15.9485 7.71383 16.1767 7.64539 16.3934C7.57695 16.5873 7.48569 16.6843 7.37161 16.6843C7.2005 16.6843 7.11495 16.5588 7.11495 16.3079C7.11495 16.2736 7.12065 16.2394 7.13206 16.2052C7.13206 16.171 7.13776 16.1367 7.14917 16.1025L7.40583 15.3325C7.3488 15.2413 7.32028 15.1671 7.32028 15.1101C7.32028 15.053 7.33739 15.0074 7.37161 14.9732V14.9561C7.37161 14.8078 7.46858 14.6709 7.6625 14.5454C7.73095 14.3971 7.79369 14.2602 7.85072 14.1347C7.83932 14.1347 7.85643 14.0606 7.90206 13.9123C7.94769 13.7526 8.04465 13.4446 8.19295 12.9883L8.70628 11.4825C8.79754 11.2202 8.90591 10.8779 9.03139 10.4559C9.15687 10.0338 9.31658 9.52611 9.5105 8.93293L9.54472 8.88159L9.98961 7.80359C10.0124 7.68952 10.0524 7.54122 10.1094 7.3587C10.1778 7.16478 10.252 6.94233 10.3318 6.69137C10.3432 6.63433 10.3546 6.5773 10.3661 6.52026C10.3889 6.46322 10.406 6.41189 10.4174 6.36626C10.4744 6.16093 10.5486 6.02974 10.6398 5.9727C10.6855 5.94989 10.7254 5.93848 10.7596 5.93848C10.8737 5.93848 10.9649 6.01833 11.0334 6.17804C11.1132 6.32633 11.1475 6.45182 11.1361 6.55448C11.2045 6.81685 11.2729 7.13626 11.3414 7.5127C11.4098 7.87774 11.484 8.29411 11.5638 8.76182L11.5809 8.81315C11.638 8.96145 11.6836 9.14396 11.7178 9.3607C11.7521 9.57745 11.7863 9.82841 11.8205 10.1136L12.0429 12.1841L12.2825 12.0814C12.3053 12.07 12.3395 12.0643 12.3852 12.0643C12.5221 12.0643 12.5905 12.1955 12.5905 12.4579C12.5905 12.5719 12.5677 12.6575 12.5221 12.7145C12.4764 12.7716 12.4422 12.8115 12.4194 12.8343L12.1285 12.9712C12.1399 13.0168 12.157 13.0967 12.1798 13.2107C12.2141 13.3248 12.254 13.4788 12.2996 13.6727L12.5049 14.5112C12.562 14.7279 12.619 14.9903 12.6761 15.2983C12.7331 15.5949 12.7901 15.9314 12.8472 16.3079C12.87 16.4562 12.8472 16.5816 12.7787 16.6843C12.7103 16.7984 12.6304 16.8554 12.5392 16.8554ZM8.39828 14.1176C8.40969 14.1062 8.51235 14.0492 8.70628 13.9465C8.91161 13.8324 9.15687 13.6956 9.44206 13.5359C9.73865 13.3762 10.0352 13.2164 10.3318 13.0567C10.6284 12.897 10.8851 12.7602 11.1018 12.6461C11.33 12.5206 11.4669 12.4464 11.5125 12.4236C11.5125 12.3666 11.5068 12.2982 11.4954 12.2183C11.4954 12.1384 11.4897 12.0415 11.4783 11.9274C11.4555 11.665 11.4212 11.4027 11.3756 11.1403C11.3414 10.8665 11.3015 10.5984 11.2558 10.3361L11.0676 9.08693C11.0334 8.82456 10.9478 8.37396 10.8109 7.73515L10.7083 7.27315C10.6741 7.353 10.6284 7.46137 10.5714 7.59826C10.5258 7.73515 10.4687 7.90056 10.4003 8.09448L9.95539 9.25804C9.87554 9.509 9.77287 9.83982 9.64739 10.2505C9.52191 10.6612 9.36221 11.1631 9.16828 11.7563C8.94013 12.4636 8.77472 12.9826 8.67206 13.3134C8.56939 13.6328 8.50095 13.8439 8.46672 13.9465C8.4325 14.0378 8.40969 14.0948 8.39828 14.1176ZM13.1923 23.1694C12.4623 23.1694 12.0972 22.6447 12.0972 21.5952C12.0972 20.945 12.3254 20.2377 12.7817 19.4734C12.9756 19.154 13.1866 18.846 13.4148 18.5494C13.6429 18.2528 13.8996 17.9733 14.1848 17.711L16.0328 15.9314C16.0442 15.6919 16.0499 15.4979 16.0499 15.3496C16.0613 15.1899 16.067 15.0702 16.067 14.9903C15.9301 15.15 15.662 15.3268 15.2628 15.5207C14.8179 15.7375 14.4129 15.8459 14.0479 15.8459C13.7969 15.8459 13.5973 15.7546 13.449 15.5721C13.3121 15.3782 13.2437 15.15 13.2437 14.8876C13.2437 14.4998 13.3406 14.1062 13.5346 13.707C13.7399 13.3077 14.0251 12.897 14.3901 12.475C15.1088 11.6308 15.8274 11.2087 16.5461 11.2087C16.7172 11.2087 16.8028 11.3 16.8028 11.4825C16.8028 11.665 16.7172 11.7563 16.5461 11.7563C15.9643 11.7563 15.4168 12.0187 14.9034 12.5434C14.4471 13.0111 14.0935 13.5929 13.8426 14.2887C13.7969 14.3914 13.7741 14.5055 13.7741 14.631C13.7741 15.053 13.9452 15.2641 14.2874 15.2641C14.3787 15.2641 14.4643 15.247 14.5441 15.2127C15.6506 14.8705 16.3351 13.9693 16.5974 12.5092C16.6317 12.3495 16.7286 12.2696 16.8883 12.2696C17.0366 12.2696 17.1108 12.3324 17.1108 12.4579C17.1108 12.4807 17.1051 12.5092 17.0937 12.5434C17.0937 12.5662 17.088 12.5947 17.0766 12.629C17.0423 12.743 17.0024 12.9142 16.9568 13.1423C16.9226 13.3704 16.8883 13.61 16.8541 13.861C16.8199 14.1119 16.7914 14.3401 16.7686 14.5454C16.7457 14.7393 16.7343 14.8705 16.7343 14.939C16.7343 15.0759 16.7914 15.1443 16.9054 15.1443C16.9739 15.1443 17.0309 15.1215 17.0766 15.0759C17.1792 15.0188 17.3446 14.9104 17.5728 14.7507C17.6868 14.6709 17.7838 14.631 17.8637 14.631C17.9549 14.631 18.0006 14.6994 18.0006 14.8363C18.0006 14.9618 17.9435 15.0473 17.8294 15.093C17.6697 15.1728 17.4872 15.2869 17.2819 15.4352C17.088 15.5721 16.8769 15.7375 16.6488 15.9314C16.5917 16.5246 16.5347 17.0379 16.4777 17.4714C16.432 17.9049 16.3807 18.2699 16.3237 18.5665C16.1183 19.7415 15.7932 20.7282 15.3483 21.5267C14.7551 22.6219 14.0365 23.1694 13.1923 23.1694ZM13.0554 22.6219C14.5612 22.6219 15.508 20.8537 15.8959 17.3174C15.8959 17.2832 15.8959 17.249 15.8959 17.2147C15.9073 17.1805 15.913 17.152 15.913 17.1292C15.913 16.9124 15.8617 16.8041 15.759 16.8041C15.6791 16.8041 15.5708 16.8725 15.4339 17.0094C15.3198 17.1235 15.2 17.2319 15.0746 17.3345C14.9605 17.4372 14.8065 17.5798 14.6126 17.7623C14.0536 18.287 13.5745 18.8859 13.1752 19.559C12.6847 20.3347 12.4394 21.0191 12.4394 21.6123C12.4394 22.2853 12.6448 22.6219 13.0554 22.6219Z" fill="#131313"/>
</svg>
