<svg width="24" height="24" viewBox="0 0 24 24" fill="none" xmlns="http://www.w3.org/2000/svg">
<path d="M9.04004 12.917H6.96191L7.13281 12.2881H8.83496L9.04004 12.917ZM7.68652 9.14355L6.08008 13.9424C5.9388 14.348 5.87044 14.6533 5.875 14.8584C5.87956 15.0589 5.91146 15.1911 5.9707 15.2549C6.02995 15.3187 6.10742 15.3643 6.20312 15.3916C6.29883 15.4189 6.4082 15.4417 6.53125 15.46C6.6543 15.4782 6.77962 15.5192 6.90723 15.583V16H3.93359V15.583C4.0293 15.5283 4.12956 15.485 4.23438 15.4531C4.33919 15.4212 4.43945 15.3848 4.53516 15.3438C4.75846 15.2435 4.90202 15.0931 4.96582 14.8926L7.27637 8.03613L7.68652 9.14355ZM7.51562 7.33887C7.26953 7.25228 7.10319 7.16569 7.0166 7.0791C7.02572 6.9834 7.03711 6.89453 7.05078 6.8125C7.06901 6.72591 7.08496 6.6416 7.09863 6.55957C7.11686 6.47298 7.13509 6.40234 7.15332 6.34766C8.01921 6.16536 8.52051 6.07422 8.65723 6.07422C8.75293 6.15169 8.8418 6.29525 8.92383 6.50488L11.9248 14.7832C12.0251 15.0566 12.1755 15.2435 12.376 15.3438C12.4671 15.3893 12.5628 15.4281 12.6631 15.46C12.7679 15.4873 12.8773 15.5283 12.9912 15.583V16H9.29297V15.583C9.39779 15.5329 9.50716 15.4987 9.62109 15.4805C9.73503 15.4577 9.83984 15.4349 9.93555 15.4121C10.1452 15.362 10.25 15.2594 10.25 15.1045C10.25 14.9678 10.1406 14.5986 9.92188 13.9971C9.70312 13.3955 9.50944 12.86 9.34082 12.3906C8.87142 11.0736 8.41113 9.75651 7.95996 8.43945L7.51562 7.33887ZM15.1855 13.8125C15.0625 14.0495 15.001 14.2979 15.001 14.5576C15.001 14.5758 15.0648 14.585 15.1924 14.585C15.3245 14.5804 15.4954 14.5804 15.7051 14.585C15.9193 14.585 16.1608 14.5918 16.4297 14.6055C16.7031 14.6146 16.9811 14.6396 17.2637 14.6807C17.5462 14.7171 17.8219 14.7741 18.0908 14.8516C18.3643 14.929 18.6081 15.0339 18.8223 15.166C19.2917 15.4622 19.5264 15.8656 19.5264 16.376C19.5264 16.9593 19.2643 17.4538 18.7402 17.8594C18.1979 18.2786 17.4915 18.5065 16.6211 18.543V18.0918C17.168 18.0553 17.6123 17.9004 17.9541 17.627C18.2686 17.3717 18.4258 17.0641 18.4258 16.7041C18.4258 16.3441 18.248 16.0615 17.8926 15.8564C17.5417 15.6514 17.0768 15.5488 16.498 15.5488C15.9193 15.5488 15.4521 15.5693 15.0967 15.6104C14.7868 15.7243 14.609 15.9772 14.5635 16.3691C14.5498 16.4876 14.543 16.6221 14.543 16.7725C14.543 16.9274 14.5794 17.0801 14.6523 17.2305C14.7298 17.3854 14.8346 17.5221 14.9668 17.6406C15.2402 17.8913 15.5798 18.0394 15.9854 18.085V18.543C15.1969 18.4974 14.5658 18.2878 14.0918 17.9141C13.6589 17.5723 13.4424 17.1667 13.4424 16.6973C13.4424 16.1686 13.668 15.7539 14.1191 15.4531C14.2422 15.3757 14.363 15.3164 14.4814 15.2754V15.2412C14.249 15.182 14.0736 14.9906 13.9551 14.667C13.9141 14.5531 13.8936 14.4414 13.8936 14.332C13.8936 14.2181 13.9118 14.127 13.9482 14.0586C13.9847 13.9857 14.0326 13.9173 14.0918 13.8535C14.2012 13.7487 14.347 13.637 14.5293 13.5186L15.1855 13.8125ZM15.0898 11.3516C15.0898 12.377 15.3678 12.9535 15.9238 13.0811V13.5527C15.5273 13.5254 15.14 13.4023 14.7617 13.1836C13.9779 12.737 13.5859 12.1081 13.5859 11.2969C13.5859 10.7181 13.8024 10.2305 14.2354 9.83398C14.6637 9.44206 15.2266 9.21419 15.9238 9.15039V9.62207C15.3678 9.74967 15.0898 10.3262 15.0898 11.3516ZM18.9316 9.75879C18.7311 9.75879 18.5807 9.71322 18.4805 9.62207C18.3802 9.52637 18.3301 9.43294 18.3301 9.3418C18.3301 9.24609 18.3643 9.10482 18.4326 8.91797C18.1546 8.93164 17.9906 9.14583 17.9404 9.56055C18.2686 9.82031 18.485 10.0459 18.5898 10.2373C18.763 10.5472 18.8496 10.8799 18.8496 11.2354C18.8496 11.5863 18.7926 11.8939 18.6787 12.1582C18.5648 12.4225 18.403 12.6527 18.1934 12.8486C17.7604 13.2542 17.193 13.4889 16.4912 13.5527V13.0879C17.07 12.9603 17.3594 12.3815 17.3594 11.3516C17.3594 10.3216 17.07 9.74284 16.4912 9.61523V9.14355C16.8193 9.16634 17.1406 9.23014 17.4551 9.33496C17.5781 8.7015 17.9723 8.38477 18.6377 8.38477C18.8929 8.38477 19.0843 8.4349 19.2119 8.53516C19.4261 8.70833 19.5332 8.89062 19.5332 9.08203C19.5332 9.27344 19.4831 9.43522 19.3828 9.56738C19.2826 9.69499 19.1322 9.75879 18.9316 9.75879Z" fill="#131313"/>
</svg>
