<svg width="24" height="24" viewBox="0 0 24 24" fill="none" xmlns="http://www.w3.org/2000/svg">
<path d="M6.53027 7.7627L5.5459 7.46191C5.57324 7.27051 5.59147 7.09961 5.60059 6.94922C5.6097 6.79427 5.62793 6.65755 5.65527 6.53906C6.05176 6.36133 6.71029 6.21549 7.63086 6.10156C7.77669 6.08333 7.9043 6.07422 8.01367 6.07422C8.1276 6.21094 8.20964 6.34082 8.25977 6.46387L11.4248 14.4346C11.5615 14.7855 11.7188 15.0452 11.8965 15.2139C12.0788 15.3779 12.3066 15.4714 12.5801 15.4941V16H8.21191V15.5693C8.32585 15.501 8.44206 15.4508 8.56055 15.4189C8.68359 15.3825 8.79525 15.3483 8.89551 15.3164C9.11426 15.2526 9.22363 15.1387 9.22363 14.9746C9.22363 14.8835 9.18034 14.7262 9.09375 14.5029L6.53027 7.7627ZM6.64648 9.875L5.1084 14.2773C5.03548 14.4824 4.99902 14.6533 4.99902 14.79C4.99902 14.9268 5.03776 15.0339 5.11523 15.1113C5.19271 15.1842 5.28841 15.2435 5.40234 15.2891C5.52083 15.3301 5.64616 15.3665 5.77832 15.3984C5.91048 15.4303 6.03353 15.4759 6.14746 15.5352V16H2.87305V15.5352C2.96419 15.4759 3.06217 15.4281 3.16699 15.3916C3.27637 15.3551 3.38574 15.3073 3.49512 15.248C3.75033 15.0977 3.94173 14.8493 4.06934 14.5029L6.19531 8.66504L6.64648 9.875ZM7.87695 13.0879H6.19531L6.4209 12.3633H7.60352L7.87695 13.0879ZM13.5371 15.8359C13.0768 15.6901 12.8467 15.4395 12.8467 15.084C12.8467 14.7057 13.1156 14.3275 13.6533 13.9492L14.4326 14.1953C14.2549 14.332 14.166 14.5827 14.166 14.9473C16.0846 14.9473 17.404 15.0977 18.124 15.3984C18.4886 15.5488 18.7415 15.7425 18.8828 15.9795C19.0241 16.2119 19.0947 16.4899 19.0947 16.8135C19.0947 17.137 19.0127 17.4333 18.8486 17.7021C18.6891 17.971 18.4727 18.2035 18.1992 18.3994C17.6296 18.8096 16.93 19.0329 16.1006 19.0693V18.4062C16.7523 18.3789 17.1715 18.1374 17.3584 17.6816C17.4131 17.5495 17.4404 17.4082 17.4404 17.2578C17.4404 16.9844 17.3014 16.7588 17.0234 16.5811C16.7454 16.4033 16.4014 16.3145 15.9912 16.3145C15.3532 16.3145 14.8906 16.335 14.6035 16.376C14.5352 16.5446 14.501 16.7314 14.501 16.9365V17.3398C14.501 17.6361 14.5716 17.8753 14.7129 18.0576C14.8542 18.2399 15.1139 18.3516 15.4922 18.3926V19.0625C14.4212 19.0033 13.708 18.5908 13.3525 17.8252C13.2295 17.5609 13.168 17.2396 13.168 16.8613C13.168 16.4831 13.291 16.1413 13.5371 15.8359ZM18.1924 8.58301C17.9007 8.58301 17.7549 8.7653 17.7549 9.12988C17.7549 9.31217 17.7777 9.43066 17.8232 9.48535C17.8734 9.54004 17.9235 9.58789 17.9736 9.62891C18.0283 9.66992 18.124 9.75651 18.2607 9.88867C18.5524 10.1758 18.6982 10.6543 18.6982 11.3242C18.6982 12.0579 18.443 12.6549 17.9326 13.1152C17.445 13.5573 16.8343 13.8011 16.1006 13.8467V13.1973C16.333 13.1198 16.4925 12.9329 16.5791 12.6367C16.6702 12.3405 16.7158 11.9235 16.7158 11.3857C16.7158 10.848 16.6702 10.4447 16.5791 10.1758C16.488 9.9069 16.3285 9.73828 16.1006 9.66992V8.99316C16.5016 9.00684 16.832 9.05924 17.0918 9.15039C17.0918 8.5306 17.3812 8.11589 17.96 7.90625C18.1423 7.83789 18.3451 7.80371 18.5684 7.80371C18.7962 7.80371 18.9899 7.83333 19.1494 7.89258C19.3135 7.94727 19.4479 8.02474 19.5527 8.125C19.7533 8.31185 19.8535 8.55111 19.8535 8.84277C19.8535 9.13444 19.7738 9.35319 19.6143 9.49902C19.4593 9.64486 19.2542 9.71777 18.999 9.71777C18.7438 9.71777 18.5365 9.64714 18.377 9.50586C18.222 9.36458 18.1445 9.18457 18.1445 8.96582C18.1445 8.88379 18.1559 8.81315 18.1787 8.75391C18.2061 8.6901 18.2197 8.64681 18.2197 8.62402C18.2197 8.59668 18.2106 8.58301 18.1924 8.58301ZM15.4922 13.8604C14.1296 13.8193 13.2887 13.3704 12.9697 12.5137C12.8558 12.2174 12.7988 11.8688 12.7988 11.4678C12.7988 11.0667 12.8626 10.7204 12.9902 10.4287C13.1224 10.1325 13.307 9.88411 13.5439 9.68359C14.0133 9.27799 14.6628 9.04785 15.4922 8.99316V9.66992C15.2233 9.71549 15.0365 9.86816 14.9316 10.1279C14.8314 10.3786 14.7812 10.791 14.7812 11.3652C14.7812 11.9395 14.8337 12.377 14.9385 12.6777C15.0433 12.9785 15.2279 13.1585 15.4922 13.2178V13.8604Z" fill="#131313"/>
</svg>
