<svg width="24" height="24" viewBox="0 0 24 24" fill="none" xmlns="http://www.w3.org/2000/svg">
<path d="M10.4114 16.0002L10.1174 14.6842H8.43744L8.80144 13.0042H9.65544L8.14344 6.2002H9.83744L12.1054 16.0002H10.4114ZM5.72144 16.0002L7.54144 7.8102H7.76544L8.46544 11.1002L7.38744 16.0002H5.72144ZM12.7045 18.6322L13.0825 17.1342H15.8125C16.0085 17.1342 16.1672 17.0922 16.2885 17.0082C16.4098 16.9242 16.4985 16.8309 16.5545 16.7282C16.6105 16.6255 16.6385 16.5509 16.6385 16.5042V15.7202C16.5732 15.7389 16.4985 15.7669 16.4145 15.8042C16.3305 15.8322 16.2372 15.8602 16.1345 15.8882C16.0412 15.9069 15.9338 15.9162 15.8125 15.9162V14.4182C15.9992 14.4182 16.1485 14.3855 16.2605 14.3202C16.3818 14.2549 16.4752 14.1709 16.5405 14.0682C16.6058 13.9562 16.6385 13.8535 16.6385 13.7602V10.2462C16.6385 10.1529 16.6058 10.0595 16.5405 9.9662C16.4752 9.86353 16.3818 9.77953 16.2605 9.7142C16.1392 9.63953 15.9898 9.6022 15.8125 9.6022V8.0902C15.9245 8.0902 16.0272 8.09953 16.1205 8.1182C16.2232 8.13687 16.3165 8.16487 16.4005 8.2022C16.4938 8.2302 16.5732 8.2582 16.6385 8.2862V8.0902H18.1925V16.5042C18.1925 16.6722 18.1412 16.8729 18.0385 17.1062C17.9452 17.3489 17.8005 17.5869 17.6045 17.8202C17.4178 18.0535 17.1798 18.2449 16.8905 18.3942C16.6012 18.5529 16.2652 18.6322 15.8825 18.6322H12.7045ZM15.2105 15.9162C14.8092 15.9162 14.4592 15.8369 14.1605 15.6782C13.8618 15.5195 13.6145 15.3282 13.4185 15.1042C13.2318 14.8709 13.0918 14.6375 12.9985 14.4042C12.9052 14.1615 12.8585 13.9562 12.8585 13.7882V10.1762C12.8585 9.99887 12.9052 9.79353 12.9985 9.5602C13.0918 9.32687 13.2318 9.0982 13.4185 8.8742C13.6145 8.6502 13.8618 8.46353 14.1605 8.3142C14.4592 8.16487 14.8092 8.0902 15.2105 8.0902V9.6022C15.0145 9.6022 14.8558 9.6442 14.7345 9.7282C14.6132 9.80287 14.5198 9.89153 14.4545 9.9942C14.3985 10.0875 14.3705 10.1622 14.3705 10.2182V13.7742C14.3705 13.8582 14.3985 13.9515 14.4545 14.0542C14.5198 14.1475 14.6132 14.2315 14.7345 14.3062C14.8558 14.3715 15.0145 14.4042 15.2105 14.4042V15.9162Z" fill="#131313"/>
</svg>
