<svg width="24" height="24" viewBox="0 0 24 24" fill="none" xmlns="http://www.w3.org/2000/svg">
<path d="M6.46606 16.0004H3.45606V15.5244C3.70806 15.5244 3.9134 15.4871 4.07206 15.4124C4.23073 15.3284 4.38006 15.1697 4.52006 14.9364C4.66006 14.6937 4.82806 14.3297 5.02406 13.8444L8.02006 6.73242H8.87406L12.0941 14.2504C12.2994 14.7077 12.5001 15.0344 12.6961 15.2304C12.8921 15.4264 13.1674 15.5244 13.5221 15.5244V16.0004H9.53206V15.5244C9.66273 15.5244 9.79806 15.5151 9.93806 15.4964C10.0874 15.4777 10.2087 15.4357 10.3021 15.3704C10.4047 15.2957 10.4561 15.1791 10.4561 15.0204C10.4561 14.9177 10.4327 14.7917 10.3861 14.6424C10.3487 14.4837 10.2881 14.3017 10.2041 14.0964L9.65806 12.8224L9.56006 12.5144L8.04806 8.58042H8.00606L6.42406 12.5144L6.31206 12.8224L5.69606 14.3064C5.65873 14.4184 5.6214 14.5351 5.58406 14.6564C5.54673 14.7777 5.52806 14.9037 5.52806 15.0344C5.52806 15.2397 5.60273 15.3751 5.75206 15.4404C5.9014 15.4964 6.1394 15.5244 6.46606 15.5244V16.0004ZM9.89606 12.9764H6.08806L6.31206 12.3604H9.67206L9.89606 12.9764ZM16.3016 19.2904C15.6856 19.2904 15.2003 19.2204 14.8456 19.0804C14.4909 18.9404 14.2389 18.7537 14.0896 18.5204C13.9496 18.2871 13.8796 18.0397 13.8796 17.7784C13.8796 17.5264 13.9729 17.2791 14.1596 17.0364C14.3463 16.8031 14.6216 16.5184 14.9856 16.1824V16.0144L15.4756 16.1404C15.3356 16.3737 15.2329 16.5837 15.1676 16.7704C15.1023 16.9664 15.0696 17.1484 15.0696 17.3164C15.0696 17.6897 15.2376 17.9697 15.5736 18.1564C15.9096 18.3524 16.4369 18.4504 17.1556 18.4504C17.6969 18.4504 18.1263 18.3851 18.4436 18.2544C18.7703 18.1331 19.0036 17.9791 19.1436 17.7924C19.2836 17.6057 19.3536 17.4191 19.3536 17.2324C19.3536 16.9897 19.2789 16.8031 19.1296 16.6724C18.9803 16.5511 18.7889 16.4624 18.5556 16.4064C18.3316 16.3504 18.0843 16.3131 17.8136 16.2944C17.5523 16.2851 17.2956 16.2804 17.0436 16.2804C16.6329 16.2711 16.3156 16.2664 16.0916 16.2664C15.8676 16.2664 15.7043 16.2617 15.6016 16.2524C15.4989 16.2524 15.4103 16.2524 15.3356 16.2524L15.0976 16.1684C14.9763 16.1311 14.8409 16.0657 14.6916 15.9724C14.5516 15.8791 14.4256 15.7577 14.3136 15.6084C14.2109 15.4591 14.1596 15.2864 14.1596 15.0904C14.1596 14.8757 14.2109 14.6751 14.3136 14.4884C14.4163 14.3017 14.5563 14.1244 14.7336 13.9564C14.9109 13.7791 15.1069 13.6064 15.3216 13.4384V13.2704L15.7976 13.5364C15.7416 13.6111 15.6809 13.7044 15.6156 13.8164C15.5503 13.9284 15.4989 14.0451 15.4616 14.1664C15.4243 14.2877 15.4056 14.3951 15.4056 14.4884C15.4056 14.6191 15.4476 14.7217 15.5316 14.7964C15.6249 14.8711 15.7929 14.9271 16.0356 14.9644C16.2783 14.9924 16.6376 15.0111 17.1136 15.0204C17.7669 15.0204 18.3316 15.0577 18.8076 15.1324C19.2836 15.1977 19.6523 15.3517 19.9136 15.5944C20.1749 15.8277 20.3056 16.2057 20.3056 16.7284C20.3056 17.2044 20.1796 17.6057 19.9276 17.9324C19.6849 18.2591 19.3629 18.5204 18.9616 18.7164C18.5696 18.9217 18.1356 19.0664 17.6596 19.1504C17.1929 19.2437 16.7403 19.2904 16.3016 19.2904ZM16.9736 13.8444C16.7216 13.8444 16.4836 13.8211 16.2596 13.7744C16.0449 13.7277 15.8349 13.6671 15.6296 13.5924L15.4196 13.4384C15.2049 13.3171 15.0089 13.1771 14.8316 13.0184C14.6636 12.8504 14.5236 12.6451 14.4116 12.4024C14.3089 12.1597 14.2576 11.8611 14.2576 11.5064C14.2576 11.0211 14.3743 10.6104 14.6076 10.2744C14.8503 9.92909 15.1723 9.66775 15.5736 9.49042C15.9749 9.31309 16.4229 9.22442 16.9176 9.22442C17.1883 9.22442 17.4589 9.24775 17.7296 9.29442C18.0003 9.34109 18.2569 9.41109 18.4996 9.50442C18.7423 9.59775 18.9476 9.70975 19.1156 9.84042V10.2884C19.2089 10.4284 19.3069 10.6104 19.4096 10.8344C19.5216 11.0584 19.5776 11.3477 19.5776 11.7024C19.5776 12.1691 19.4609 12.5657 19.2276 12.8924C19.0036 13.2097 18.6956 13.4477 18.3036 13.6064C17.9116 13.7651 17.4683 13.8444 16.9736 13.8444ZM16.9876 13.2984C17.3143 13.2984 17.5849 13.1817 17.7996 12.9484C18.0143 12.7057 18.1216 12.2624 18.1216 11.6184C18.1216 11.0397 18.0096 10.5917 17.7856 10.2744C17.5616 9.94775 17.2443 9.78442 16.8336 9.78442C16.4976 9.78442 16.2223 9.91975 16.0076 10.1904C15.7929 10.4517 15.6856 10.8717 15.6856 11.4504C15.6856 12.0571 15.7976 12.5191 16.0216 12.8364C16.2549 13.1444 16.5769 13.2984 16.9876 13.2984ZM20.4316 9.46242V10.2604L18.9056 10.2324L18.4296 9.54642L20.4316 9.46242Z" fill="#131313"/>
</svg>
