<svg width="24" height="24" viewBox="0 0 24 24" fill="none" xmlns="http://www.w3.org/2000/svg">
<path d="M6.15795 16.0001H3.17595L3.27395 15.5241C3.52595 15.5241 3.74062 15.4868 3.91795 15.4121C4.09529 15.3281 4.28195 15.1694 4.47795 14.9361C4.68329 14.6934 4.93995 14.3294 5.24795 13.8441L10.064 6.74609H10.876L11.996 14.2501C12.08 14.7074 12.2013 15.0341 12.36 15.2301C12.528 15.4261 12.8033 15.5241 13.186 15.5241L13.102 16.0001H9.15395L9.26595 15.5241C9.46195 15.5241 9.63929 15.5101 9.79795 15.4821C9.95662 15.4448 10.0826 15.3701 10.176 15.2581C10.2786 15.1368 10.33 14.9548 10.33 14.7121C10.33 14.6001 10.3253 14.4928 10.316 14.3901C10.316 14.2781 10.3113 14.1801 10.302 14.0961L10.148 12.8221L10.12 12.5141L9.67195 8.48209H9.62995L6.96995 12.5141L6.80195 12.8221L5.82195 14.3061C5.72862 14.4368 5.64462 14.5768 5.56995 14.7261C5.49529 14.8754 5.45795 15.0154 5.45795 15.1461C5.45795 15.2954 5.51395 15.3981 5.62595 15.4541C5.74729 15.5008 5.96195 15.5241 6.26995 15.5241L6.15795 16.0001ZM10.316 12.9761H6.52195L6.88595 12.3601H10.26L10.316 12.9761ZM16.0233 19.1781C15.3233 19.1781 14.7586 19.1034 14.3293 18.9541C13.8999 18.8048 13.5966 18.5994 13.4192 18.3381C13.2326 18.0768 13.1392 17.7828 13.1392 17.4561C13.1392 17.1761 13.2186 16.9241 13.3772 16.7001C13.5359 16.4854 13.7506 16.2988 14.0213 16.1401C14.2919 15.9908 14.5999 15.8788 14.9453 15.8041L15.2953 15.9721C15.0713 16.1028 14.8613 16.2708 14.6653 16.4761C14.4786 16.6908 14.3853 16.9708 14.3853 17.3161C14.3853 17.5494 14.4459 17.7641 14.5673 17.9601C14.6886 18.1561 14.8799 18.3148 15.1413 18.4361C15.4026 18.5574 15.7433 18.6181 16.1633 18.6181C16.7886 18.6181 17.2506 18.5154 17.5493 18.3101C17.8573 18.1141 18.0113 17.8621 18.0113 17.5541C18.0113 17.3021 17.9133 17.0874 17.7173 16.9101C17.5213 16.7421 17.2646 16.5974 16.9473 16.4761C16.6299 16.3641 16.2846 16.2614 15.9113 16.1681C15.5473 16.0841 15.1833 16.0094 14.8193 15.9441V15.7621C14.6886 15.6874 14.5673 15.5801 14.4552 15.4401C14.3433 15.2908 14.2873 15.1134 14.2873 14.9081C14.2873 14.6001 14.4039 14.3434 14.6373 14.1381C14.8706 13.9234 15.1366 13.7694 15.4353 13.6761V13.5921C15.2486 13.5081 15.0526 13.3961 14.8473 13.2561C14.6513 13.1068 14.4879 12.9108 14.3573 12.6681C14.2266 12.4161 14.1613 12.0941 14.1613 11.7021C14.1613 11.2354 14.2779 10.8201 14.5113 10.4561C14.7446 10.0921 15.0713 9.80742 15.4913 9.60209C15.9113 9.39676 16.3966 9.29409 16.9473 9.29409C17.2553 9.29409 17.5166 9.31276 17.7313 9.35009C17.9459 9.38742 18.1373 9.43876 18.3053 9.50409C18.4826 9.56009 18.6599 9.62542 18.8373 9.70009V10.1621C18.9399 10.2834 19.0426 10.4608 19.1453 10.6941C19.2573 10.9274 19.3133 11.2074 19.3133 11.5341C19.3133 11.9354 19.2059 12.3041 18.9913 12.6401C18.7766 12.9761 18.4593 13.2514 18.0393 13.4661C17.6193 13.6714 17.1059 13.7881 16.4993 13.8161C16.1913 13.8348 15.9673 13.9188 15.8273 14.0681C15.6873 14.2174 15.6173 14.3668 15.6173 14.5161C15.6173 14.6561 15.7059 14.7681 15.8833 14.8521C16.0606 14.9268 16.2893 14.9968 16.5693 15.0621C16.8493 15.1274 17.1433 15.2021 17.4513 15.2861C17.7686 15.3701 18.0626 15.4821 18.3333 15.6221C18.6133 15.7528 18.8419 15.9301 19.0193 16.1541C19.1966 16.3781 19.2853 16.6674 19.2853 17.0221C19.2853 17.6381 19.0099 18.1514 18.4593 18.5621C17.9179 18.9728 17.1059 19.1781 16.0233 19.1781ZM16.5693 13.3261C16.8866 13.3261 17.1386 13.2328 17.3253 13.0461C17.5213 12.8594 17.6613 12.6168 17.7453 12.3181C17.8293 12.0101 17.8713 11.6834 17.8713 11.3381C17.8713 10.8621 17.7873 10.4794 17.6193 10.1901C17.4513 9.90076 17.1993 9.75609 16.8633 9.75609C16.4806 9.75609 16.1726 9.92409 15.9393 10.2601C15.7059 10.5961 15.5892 11.0628 15.5892 11.6601C15.5892 12.2014 15.6593 12.6168 15.7993 12.9061C15.9486 13.1861 16.2053 13.3261 16.5693 13.3261ZM20.1113 9.46209L20.0273 10.2741L18.6413 10.0781L17.9833 9.46209H20.1113Z" fill="#131313"/>
</svg>
