<svg width="24" height="24" viewBox="0 0 24 24" fill="none" xmlns="http://www.w3.org/2000/svg">
<path d="M6.20351 16.0001H3.27751L3.37551 15.5801C3.63684 15.5801 3.85617 15.5381 4.03351 15.4541C4.21084 15.3701 4.40684 15.2021 4.62151 14.9501C4.83617 14.6888 5.11617 14.2921 5.46151 13.7601L10.3055 6.74609H10.8935L11.9995 14.3341C12.0928 14.7914 12.2142 15.1134 12.3635 15.3001C12.5128 15.4868 12.7975 15.5801 13.2175 15.5801L13.1335 16.0001H9.39551L9.47951 15.5801C9.71284 15.5801 9.90884 15.5614 10.0675 15.5241C10.2355 15.4868 10.3662 15.4121 10.4595 15.3001C10.5528 15.1881 10.5995 15.0154 10.5995 14.7821C10.5995 14.6701 10.5948 14.5674 10.5855 14.4741C10.5855 14.3714 10.5808 14.2781 10.5715 14.1941L10.4175 12.7941L10.3895 12.5141L9.91351 8.32809H9.87151L7.07151 12.5141L6.90351 12.7941L5.83951 14.4181C5.74617 14.5488 5.66217 14.6794 5.58751 14.8101C5.52217 14.9408 5.48951 15.0714 5.48951 15.2021C5.48951 15.3514 5.54551 15.4541 5.65751 15.5101C5.77884 15.5568 5.99351 15.5801 6.30151 15.5801L6.20351 16.0001ZM10.5715 12.9341H6.65151L6.98751 12.3741H10.5155L10.5715 12.9341ZM16.0161 19.1501C15.3254 19.1501 14.7654 19.0754 14.3361 18.9261C13.9161 18.7861 13.6128 18.5808 13.4261 18.3101C13.2394 18.0488 13.1461 17.7454 13.1461 17.4001C13.1461 17.1108 13.2348 16.8588 13.4121 16.6441C13.5801 16.4294 13.7994 16.2474 14.0701 16.0981C14.3408 15.9581 14.6208 15.8508 14.9101 15.7761L15.2181 15.9161C14.9848 16.0561 14.7608 16.2241 14.5461 16.4201C14.3408 16.6161 14.2381 16.9101 14.2381 17.3021C14.2381 17.5541 14.3034 17.7828 14.4341 17.9881C14.5741 18.1934 14.7794 18.3568 15.0501 18.4781C15.3301 18.5994 15.6848 18.6601 16.1141 18.6601C16.7954 18.6601 17.2948 18.5621 17.6121 18.3661C17.9294 18.1701 18.0881 17.9041 18.0881 17.5681C18.0881 17.3161 17.9854 17.0968 17.7801 16.9101C17.5748 16.7328 17.3041 16.5788 16.9681 16.4481C16.6414 16.3268 16.2868 16.2194 15.9041 16.1261C15.5308 16.0328 15.1714 15.9534 14.8261 15.8881V15.7481C14.7048 15.6734 14.5928 15.5708 14.4901 15.4401C14.3874 15.3001 14.3361 15.1274 14.3361 14.9221C14.3361 14.6141 14.4434 14.3574 14.6581 14.1521C14.8821 13.9468 15.1341 13.7881 15.4141 13.6761V13.5921C15.2274 13.5081 15.0361 13.3914 14.8401 13.2421C14.6534 13.0928 14.4994 12.8968 14.3781 12.6541C14.2568 12.4021 14.1961 12.0848 14.1961 11.7021C14.1961 11.2354 14.3128 10.8201 14.5461 10.4561C14.7794 10.0921 15.0968 9.80742 15.4981 9.60209C15.8994 9.39676 16.3521 9.29409 16.8561 9.29409C17.1828 9.29409 17.4441 9.31276 17.6401 9.35009C17.8361 9.38742 18.0088 9.43409 18.1581 9.49009C18.3074 9.54609 18.4708 9.60676 18.6481 9.67209V10.0781C18.7601 10.2088 18.8721 10.4048 18.9841 10.6661C19.0961 10.9181 19.1521 11.2074 19.1521 11.5341C19.1521 11.9354 19.0448 12.3041 18.8301 12.6401C18.6154 12.9761 18.2981 13.2514 17.8781 13.4661C17.4581 13.6714 16.9448 13.7881 16.3381 13.8161C16.0301 13.8254 15.8014 13.9094 15.6521 14.0681C15.5121 14.2268 15.4421 14.3901 15.4421 14.5581C15.4421 14.6981 15.5308 14.8101 15.7081 14.8941C15.8854 14.9781 16.1094 15.0528 16.3801 15.1181C16.6601 15.1834 16.9541 15.2581 17.2621 15.3421C17.5794 15.4168 17.8734 15.5241 18.1441 15.6641C18.4241 15.7948 18.6528 15.9674 18.8301 16.1821C19.0074 16.4061 19.0961 16.6908 19.0961 17.0361C19.0961 17.6428 18.8348 18.1468 18.3121 18.5481C17.7988 18.9494 17.0334 19.1501 16.0161 19.1501ZM16.4921 13.3821C16.8188 13.3821 17.0848 13.2934 17.2901 13.1161C17.4954 12.9294 17.6494 12.6821 17.7521 12.3741C17.8548 12.0661 17.9061 11.7161 17.9061 11.3241C17.9061 10.8761 17.8174 10.4981 17.6401 10.1901C17.4628 9.87276 17.1921 9.71409 16.8281 9.71409C16.4268 9.71409 16.0954 9.88209 15.8341 10.2181C15.5728 10.5541 15.4421 11.0114 15.4421 11.5901C15.4421 12.1594 15.5168 12.6028 15.6661 12.9201C15.8248 13.2281 16.1001 13.3821 16.4921 13.3821ZM19.9501 9.46209L19.8661 10.1761L18.4521 10.0081L17.8781 9.46209H19.9501Z" fill="#131313"/>
</svg>
