<svg width="24" height="24" viewBox="0 0 24 24" fill="none" xmlns="http://www.w3.org/2000/svg">
<path d="M9.66474 13.0942L8.36274 8.1102H7.91474L6.59874 13.0942H9.66474ZM6.37474 13.9902L5.59074 17.0002H4.62474L7.18674 7.2002H9.07674L11.6387 17.0002H10.6727L9.87474 13.9902H6.37474ZM14.449 19.3242H15.919C16.227 19.3242 16.4464 19.2449 16.577 19.0862C16.7077 18.9275 16.773 18.6755 16.773 18.3302V16.1322L15.233 17.0002H14.533C13.9824 17.0002 13.5624 16.8555 13.273 16.5662C12.993 16.2769 12.853 15.8615 12.853 15.3202V11.5402C12.853 11.0082 12.993 10.5975 13.273 10.3082C13.5624 10.0095 13.9824 9.8602 14.533 9.8602L17.753 10.1682V18.3302C17.753 19.5902 17.109 20.2202 15.821 20.2202H14.449L13.049 19.8422L13.301 18.9882L14.449 19.3242ZM14.995 16.1042L16.773 15.0962V10.9522L14.561 10.7702C14.0757 10.7702 13.833 11.0222 13.833 11.5262V15.3482C13.833 15.8522 14.0757 16.1042 14.561 16.1042H14.995Z" fill="#131313"/>
</svg>
