<svg width="24" height="24" viewBox="0 0 24 24" fill="none" xmlns="http://www.w3.org/2000/svg">
<path d="M5.16992 16C5.65299 14.2865 6.21354 12.6732 6.85156 11.1602C7.4987 9.64714 8.20508 8.33464 8.9707 7.22266H10.1055C10.4609 8.34375 10.666 9.66536 10.7207 11.1875C10.7754 12.7005 10.6934 14.3047 10.4746 16H9.18945C9.38997 14.3594 9.49479 12.8646 9.50391 11.5156C9.51302 10.1576 9.41732 9.00911 9.2168 8.07031L9.61328 8.15234C9.04818 9.10026 8.49674 10.2441 7.95898 11.584C7.42122 12.9238 6.92904 14.3958 6.48242 16H5.16992ZM10.2695 12.6094L10.0781 13.5938H6.57812L6.76953 12.6094H10.2695ZM13.4551 18.6797C13.1725 18.6797 12.8763 18.6569 12.5664 18.6113C12.2565 18.5749 11.9557 18.5202 11.6641 18.4473L11.9102 17.5723C12.3659 17.6543 12.849 17.6953 13.3594 17.6953C13.8516 17.6953 14.207 17.6087 14.4258 17.4355C14.6536 17.2624 14.804 16.9935 14.877 16.6289L15.9844 11.0508L16.0938 10.9414L16.4766 9.875H17.502L17.2969 10.75L16.1348 16.5332C15.9798 17.2988 15.6699 17.8457 15.2051 18.1738C14.7493 18.5111 14.166 18.6797 13.4551 18.6797ZM13.7969 16.1094C13.1771 16.1094 12.7122 15.9225 12.4023 15.5488C12.1016 15.166 11.9512 14.6283 11.9512 13.9355C11.9512 13.2884 12.0605 12.6413 12.2793 11.9941C12.5072 11.347 12.8444 10.8138 13.291 10.3945C13.7467 9.97526 14.2845 9.76562 14.9043 9.76562C15.4512 9.76562 15.8796 9.92513 16.1895 10.2441C16.4993 10.5632 16.6862 11.0553 16.75 11.7207L16.1484 11.8848C16.0938 11.4928 15.9707 11.2057 15.7793 11.0234C15.597 10.832 15.3555 10.7363 15.0547 10.7363C14.6445 10.7363 14.2982 10.9141 14.0156 11.2695C13.7422 11.625 13.5417 12.0534 13.4141 12.5547C13.2865 13.056 13.2227 13.5208 13.2227 13.9492C13.2227 14.2227 13.2546 14.446 13.3184 14.6191C13.3822 14.7923 13.4733 14.9199 13.5918 15.002C13.7194 15.0749 13.8789 15.1113 14.0703 15.1113C14.3802 15.1113 14.681 15.0065 14.9727 14.7969C15.2643 14.5872 15.515 14.2865 15.7246 13.8945L16.2168 14.209C15.8704 14.8743 15.4967 15.3574 15.0957 15.6582C14.7038 15.959 14.2708 16.1094 13.7969 16.1094Z" fill="#131313"/>
</svg>
