<svg width="24" height="24" viewBox="0 0 24 24" fill="none" xmlns="http://www.w3.org/2000/svg">
<path d="M9.33153 12.5701H6.05553L4.85153 16.0001H3.82953L7.09153 6.7041H8.29553L11.5575 16.0001H10.5355L9.33153 12.5701ZM9.02353 11.6741L7.69353 7.8661L6.36353 11.6741H9.02353ZM19.034 9.1821V15.4681C19.034 16.1028 18.8753 16.6908 18.558 17.2321C18.2406 17.7734 17.8113 18.1981 17.27 18.5061C16.7286 18.8234 16.1406 18.9821 15.506 18.9821C14.9553 18.9821 14.4373 18.8654 13.952 18.6321C13.476 18.3988 13.0746 18.0768 12.748 17.6661L13.602 17.1621C13.8353 17.4328 14.1153 17.6428 14.442 17.7921C14.778 17.9508 15.1326 18.0301 15.506 18.0301C15.9726 18.0301 16.402 17.9134 16.794 17.6801C17.186 17.4561 17.494 17.1481 17.718 16.7561C17.9513 16.3641 18.068 15.9348 18.068 15.4681V14.6841C17.424 15.5894 16.5653 16.0421 15.492 16.0421C14.8666 16.0421 14.2833 15.8741 13.742 15.5381C13.2006 15.2021 12.7713 14.7588 12.454 14.2081C12.1366 13.6481 11.978 13.0554 11.978 12.4301C11.978 11.8048 12.1366 11.2308 12.454 10.7081C12.7713 10.1854 13.196 9.7701 13.728 9.4621C14.2693 9.1541 14.8573 9.0001 15.492 9.0001C16.1453 9.0001 16.6866 9.1401 17.116 9.4201C17.5453 9.69077 17.8626 9.98477 18.068 10.3021V9.1821H19.034ZM15.492 15.0901C15.9586 15.0901 16.388 14.9781 16.78 14.7541C17.172 14.5208 17.48 14.2081 17.704 13.8161C17.9373 13.4241 18.054 12.9948 18.054 12.5281C18.054 12.0614 17.9373 11.6321 17.704 11.2401C17.48 10.8481 17.172 10.5401 16.78 10.3161C16.388 10.0828 15.9586 9.9661 15.492 9.9661C15.0253 9.9661 14.596 10.0828 14.204 10.3161C13.812 10.5401 13.4993 10.8481 13.266 11.2401C13.0326 11.6321 12.916 12.0614 12.916 12.5281C12.916 12.9948 13.0326 13.4241 13.266 13.8161C13.4993 14.2081 13.812 14.5208 14.204 14.7541C14.596 14.9781 15.0253 15.0901 15.492 15.0901Z" fill="#131313"/>
</svg>
