<svg width="24" height="24" viewBox="0 0 24 24" fill="none" xmlns="http://www.w3.org/2000/svg">
<path d="M13.0525 17.0002H9.65045V16.4823H9.69245C10.2245 16.4823 10.4905 16.2723 10.4905 15.8523C10.4905 15.703 10.4391 15.4836 10.3365 15.1943L9.86045 13.9202L6.34645 14.0042H6.38845C6.27645 14.3122 6.11778 14.7975 5.91245 15.4602C5.82845 15.7402 5.71645 16.0483 5.57645 16.3843L6.65445 16.3282V17.0002H3.84045V16.4823H3.88245C4.09712 16.4916 4.26978 16.4496 4.40045 16.3563C4.54045 16.2536 4.65245 16.1182 4.73645 15.9502C4.82045 15.7822 4.92312 15.5255 5.04445 15.1803C5.05378 15.143 5.10512 14.9983 5.19845 14.7463L8.09645 6.90625H8.60045L11.7365 14.8582C11.9885 15.5302 12.1098 16.039 12.1005 16.3843L13.0525 16.3282V17.0002ZM8.65645 10.7142L8.11045 9.20225L7.60645 10.5743C7.27978 11.4703 6.95312 12.3942 6.62645 13.3462H9.63645L8.65645 10.7142ZM19.0581 10.4762C18.7781 10.5415 18.5681 10.7795 18.4281 11.1902C18.6428 11.3955 18.8108 11.6336 18.9321 11.9043C19.0628 12.1656 19.1281 12.4409 19.1281 12.7302C19.1281 13.2062 18.9975 13.6402 18.7361 14.0322C18.4748 14.4242 18.1248 14.7323 17.6861 14.9563C17.2568 15.1709 16.7995 15.2782 16.3141 15.2782C16.1555 15.2782 16.0061 15.2642 15.8661 15.2362C15.6981 15.2176 15.5581 15.2083 15.4461 15.2083C15.1755 15.2083 14.9515 15.2642 14.7741 15.3763C14.5968 15.479 14.5081 15.6095 14.5081 15.7682C14.5081 15.9735 14.6575 16.1135 14.9561 16.1882C15.2641 16.2535 15.7821 16.3002 16.5101 16.3282C17.5928 16.3842 18.4095 16.5616 18.9601 16.8603C19.5108 17.159 19.7861 17.6489 19.7861 18.3302C19.7861 18.7875 19.6275 19.1796 19.3101 19.5063C18.9928 19.8423 18.5821 20.0942 18.0781 20.2622C17.5835 20.4395 17.0655 20.5282 16.5241 20.5282C15.4041 20.5282 14.5735 20.3555 14.0321 20.0103C13.4908 19.665 13.2201 19.2402 13.2201 18.7362C13.2201 18.4002 13.3228 18.097 13.5281 17.8263C13.7335 17.5649 13.9808 17.3643 14.2701 17.2243C13.7661 17.0096 13.5141 16.6689 13.5141 16.2022C13.5141 15.9129 13.6168 15.6423 13.8221 15.3903C14.0368 15.129 14.3121 14.9515 14.6481 14.8582C14.2935 14.6622 14.0135 14.401 13.8081 14.0743C13.6028 13.7383 13.5001 13.365 13.5001 12.9543C13.5001 12.4503 13.6355 12.0022 13.9061 11.6102C14.1768 11.2089 14.5268 10.9009 14.9561 10.6862C15.3948 10.4622 15.8475 10.3503 16.3141 10.3503C16.8928 10.3503 17.4295 10.4996 17.9241 10.7983C18.0641 10.4436 18.2788 10.1543 18.5681 9.93025C18.8668 9.69692 19.1841 9.58025 19.5201 9.58025C19.7535 9.58025 19.9355 9.64558 20.0661 9.77625C20.2061 9.90692 20.2761 10.0842 20.2761 10.3082C20.2761 10.4389 20.2248 10.5742 20.1221 10.7142C20.0195 10.8449 19.8748 10.9102 19.6881 10.9102C19.5295 10.9102 19.3941 10.8683 19.2821 10.7843C19.1795 10.7003 19.1048 10.5975 19.0581 10.4762ZM16.3561 14.6482C16.8041 14.6482 17.1401 14.4989 17.3641 14.2002C17.5975 13.9015 17.7141 13.5003 17.7141 12.9963C17.7141 12.4176 17.5881 11.9369 17.3361 11.5542C17.0935 11.1622 16.7435 10.9662 16.2861 10.9662C15.8475 10.9662 15.5021 11.125 15.2501 11.4423C15.0075 11.7503 14.8861 12.1609 14.8861 12.6742C14.8861 13.2809 15.0121 13.7615 15.2641 14.1163C15.5255 14.471 15.8895 14.6482 16.3561 14.6482ZM15.0681 17.4062C14.6108 17.7235 14.3821 18.1156 14.3821 18.5823C14.3821 18.9743 14.5735 19.287 14.9561 19.5203C15.3388 19.7536 15.8568 19.8703 16.5101 19.8703C17.2195 19.8703 17.7795 19.7443 18.1901 19.4923C18.6008 19.2496 18.8061 18.951 18.8061 18.5963C18.8061 18.1856 18.6055 17.9056 18.2041 17.7563C17.8028 17.6163 17.1961 17.5322 16.3841 17.5042C15.8615 17.4855 15.4228 17.4529 15.0681 17.4062Z" fill="#131313"/>
</svg>
