<svg width="24" height="24" viewBox="0 0 24 24" fill="none" xmlns="http://www.w3.org/2000/svg">
<path d="M11.1565 14.5782C11.2311 14.7649 11.3105 14.9982 11.3945 15.2782C11.4785 15.5489 11.5298 15.7775 11.5485 15.9642C11.8565 15.9362 12.1271 15.9222 12.3605 15.9222V17.0002H8.59445V16.0762C9.04245 16.0762 9.26645 15.8895 9.26645 15.5162C9.26645 15.3295 9.21512 15.1055 9.11245 14.8442L8.83245 14.0742L5.79445 14.1302L5.57045 14.7882C5.54245 14.8629 5.47712 15.0309 5.37445 15.2922C5.28112 15.5535 5.19712 15.7635 5.12245 15.9222C5.42112 15.8942 5.75245 15.8802 6.11645 15.8802V17.0002H3.12045V16.0342C3.36312 16.0342 3.56379 15.9642 3.72245 15.8242C3.89045 15.6842 4.02112 15.5162 4.11445 15.3202C4.20779 15.1149 4.32445 14.8209 4.46445 14.4382L7.19445 6.94824H8.17445L11.1565 14.5782ZM7.29245 9.41224C7.14312 10.0842 6.97045 10.7002 6.77445 11.2602L6.14445 13.0802H8.48245L7.83845 11.3302C7.56779 10.5649 7.39045 9.92557 7.30645 9.41224H7.29245ZM19.402 9.28624C19.7007 9.28624 19.9293 9.36091 20.088 9.51024C20.256 9.65024 20.34 9.84624 20.34 10.0982C20.34 10.2942 20.2747 10.4762 20.144 10.6442C20.0133 10.8029 19.808 10.8822 19.528 10.8822C19.388 10.8822 19.2433 10.8355 19.094 10.7422C18.954 10.6395 18.8747 10.5182 18.856 10.3782C18.7347 10.4155 18.6133 10.5275 18.492 10.7142C18.38 10.8915 18.3147 11.0549 18.296 11.2042C18.5573 11.4095 18.7533 11.6569 18.884 11.9462C19.024 12.2262 19.094 12.5295 19.094 12.8562C19.094 13.3322 18.9493 13.7615 18.66 14.1442C18.38 14.5269 18.002 14.8302 17.526 15.0542C17.0593 15.2689 16.56 15.3762 16.028 15.3762L15.65 15.3622C15.4633 15.3435 15.3233 15.3342 15.23 15.3342C15.0247 15.3342 14.8567 15.3715 14.726 15.4462C14.5953 15.5115 14.53 15.6002 14.53 15.7122C14.53 15.8709 14.6513 15.9829 14.894 16.0482C15.1367 16.1042 15.5893 16.1509 16.252 16.1882C17.3813 16.2535 18.2353 16.4355 18.814 16.7342C19.402 17.0235 19.696 17.5135 19.696 18.2042C19.696 18.6615 19.5093 19.0582 19.136 19.3942C18.7627 19.7395 18.282 20.0009 17.694 20.1782C17.106 20.3555 16.504 20.4442 15.888 20.4442C14.8053 20.4442 14.0213 20.2855 13.536 19.9682C13.0507 19.6602 12.808 19.2635 12.808 18.7782C12.808 18.4889 12.906 18.2135 13.102 17.9522C13.3073 17.6909 13.6387 17.4809 14.096 17.3222C13.7413 17.2289 13.4847 17.0842 13.326 16.8882C13.1673 16.6922 13.088 16.4635 13.088 16.2022C13.088 15.9409 13.1953 15.6795 13.41 15.4182C13.6247 15.1569 13.956 14.9609 14.404 14.8302C14.0027 14.6809 13.6807 14.4429 13.438 14.1162C13.2047 13.7802 13.088 13.3882 13.088 12.9402C13.088 12.4642 13.228 12.0349 13.508 11.6522C13.7973 11.2695 14.1707 10.9709 14.628 10.7562C15.0947 10.5415 15.58 10.4342 16.084 10.4342C16.3547 10.4342 16.6393 10.4669 16.938 10.5322C17.2367 10.5975 17.4887 10.6955 17.694 10.8262C17.862 10.3875 18.0907 10.0235 18.38 9.73424C18.6693 9.43557 19.01 9.28624 19.402 9.28624ZM16.07 11.2882C15.7247 11.2882 15.4493 11.4375 15.244 11.7362C15.0387 12.0255 14.936 12.3755 14.936 12.7862C14.936 13.2715 15.0387 13.6822 15.244 14.0182C15.4493 14.3542 15.7293 14.5222 16.084 14.5222C16.4293 14.5222 16.7 14.3775 16.896 14.0882C17.1013 13.7989 17.204 13.4629 17.204 13.0802C17.204 12.5949 17.106 12.1749 16.91 11.8202C16.714 11.4655 16.434 11.2882 16.07 11.2882ZM14.908 17.6162C14.768 17.7189 14.6607 17.8495 14.586 18.0082C14.5113 18.1669 14.474 18.3302 14.474 18.4982C14.474 18.8249 14.6373 19.0862 14.964 19.2822C15.2907 19.4782 15.7293 19.5762 16.28 19.5762C16.6813 19.5762 17.0267 19.5249 17.316 19.4222C17.6053 19.3195 17.8247 19.1889 17.974 19.0302C18.1327 18.8809 18.212 18.7222 18.212 18.5542C18.212 18.2929 18.0533 18.0922 17.736 17.9522C17.4187 17.8215 16.9333 17.7422 16.28 17.7142L15.86 17.6862C15.3933 17.6675 15.076 17.6442 14.908 17.6162Z" fill="#131313"/>
</svg>
