<svg width="24" height="24" viewBox="0 0 24 24" fill="none" xmlns="http://www.w3.org/2000/svg">
<path d="M5.85352 13.3955L5.56641 14.4756L6.21582 14.5986V16H2.49023V14.5986L3.1875 14.4961L6.1543 6.04688H8.75195L11.7256 14.4961L12.4229 14.5986V16H8.7041V14.5986L9.35352 14.4756L9.05273 13.3955H5.85352ZM7.56934 8.69921L7.45996 8.35058H7.41895L7.30273 8.7334L6.35938 11.7139H8.54004L7.56934 8.69921ZM20.4688 8.60352V10.0186L19.6279 10.1963V15.7061C19.6279 16.3577 19.4798 16.932 19.1836 17.4287C18.8828 17.9209 18.4567 18.3037 17.9053 18.5771C17.3584 18.8506 16.709 18.9873 15.957 18.9873C15.5697 18.9873 15.1276 18.9395 14.6309 18.8438C14.1341 18.748 13.6966 18.609 13.3184 18.4268L13.7012 16.7725C14.0612 16.9137 14.4235 17.0208 14.7881 17.0938C15.1572 17.1712 15.4922 17.21 15.793 17.21C16.2852 17.21 16.6452 17.0732 16.873 16.7998C17.1055 16.5309 17.2217 16.1618 17.2217 15.6924V15.3438C17.0166 15.599 16.7773 15.7972 16.5039 15.9385C16.235 16.0752 15.9251 16.1436 15.5742 16.1436C14.9727 16.1436 14.4577 15.9909 14.0293 15.6855C13.6009 15.3802 13.2728 14.9518 13.0449 14.4004C12.8216 13.8444 12.71 13.1973 12.71 12.459V12.3154C12.71 11.5407 12.8216 10.8662 13.0449 10.292C13.2682 9.71777 13.5872 9.27116 14.002 8.95215C14.4212 8.62858 14.9202 8.46679 15.499 8.46679C15.9274 8.46679 16.292 8.56022 16.5928 8.74707C16.8936 8.93392 17.151 9.19596 17.3652 9.5332L17.5156 8.60352H20.4688ZM17.2217 13.9014V10.8047C17.0212 10.472 16.7067 10.3057 16.2783 10.3057C15.9958 10.3057 15.7679 10.3877 15.5947 10.5518C15.4261 10.7204 15.3031 10.9551 15.2256 11.2559C15.1481 11.5566 15.1094 11.9098 15.1094 12.3154V12.459C15.1094 13.0469 15.1937 13.5026 15.3623 13.8262C15.5309 14.1452 15.8363 14.3047 16.2783 14.3047C16.4788 14.3047 16.6611 14.2728 16.8252 14.209C16.9893 14.1406 17.1214 14.0381 17.2217 13.9014Z" fill="#131313"/>
</svg>
