<svg width="24" height="24" viewBox="0 0 24 24" fill="none" xmlns="http://www.w3.org/2000/svg">
<path d="M5.90234 13.0947L5.06836 15.3438L5.94336 15.4053V16H3.48926V15.4053L4.2207 15.3574L7.75488 6.04688H8.53418L12.041 15.3574L12.7725 15.4053V16H10.3184V15.4053L11.1934 15.3438L10.3662 13.0947H5.90234ZM8.30176 7.48926L8.16504 7.08594H8.12402L7.98047 7.48926L6.16895 12.377H10.0996L8.30176 7.48926ZM20.5654 8.60352V9.19824L19.6152 9.29395V15.9043C19.6152 16.5332 19.5013 17.0801 19.2734 17.5449C19.041 18.0052 18.7061 18.3607 18.2686 18.6113C17.8311 18.862 17.307 18.9873 16.6963 18.9873C16.3363 18.9873 15.9557 18.944 15.5547 18.8574C15.1536 18.7708 14.8027 18.6546 14.502 18.5088L14.7207 17.8252C15.0124 17.9665 15.32 18.0758 15.6436 18.1533C15.9717 18.2308 16.318 18.2695 16.6826 18.2695C17.3844 18.2695 17.9108 18.0599 18.2617 17.6406C18.6172 17.2259 18.7949 16.6471 18.7949 15.9043V15.002C18.5488 15.362 18.2321 15.6423 17.8447 15.8428C17.4619 16.0433 17.0153 16.1436 16.5049 16.1436C15.9124 16.1436 15.4043 15.9932 14.9805 15.6924C14.5566 15.3916 14.2308 14.9701 14.0029 14.4277C13.7751 13.8809 13.6611 13.2406 13.6611 12.5068V12.3633C13.6611 11.5794 13.7751 10.8936 14.0029 10.3057C14.2308 9.72233 14.5566 9.27116 14.9805 8.95215C15.4089 8.62858 15.9215 8.46679 16.5186 8.46679C17.0472 8.46679 17.5052 8.58073 17.8926 8.80859C18.2799 9.03646 18.5944 9.35547 18.8359 9.76562L18.9248 8.60352H20.5654ZM18.7949 14.0586V10.6748C18.6217 10.2419 18.3665 9.8841 18.0293 9.60155C17.6921 9.31444 17.2386 9.1709 16.6689 9.1709C16.1904 9.1709 15.7894 9.30534 15.4658 9.57421C15.1423 9.84765 14.8984 10.2236 14.7344 10.7021C14.5703 11.1807 14.4883 11.7344 14.4883 12.3633V12.5068C14.4883 13.4001 14.6683 14.1133 15.0283 14.6465C15.3929 15.1751 15.9352 15.4395 16.6553 15.4395C17.193 15.4395 17.6374 15.3164 17.9883 15.0703C18.3438 14.8242 18.6126 14.487 18.7949 14.0586Z" fill="#131313"/>
</svg>
