<svg width="24" height="24" viewBox="0 0 24 24" fill="none" xmlns="http://www.w3.org/2000/svg">
<path d="M11.2591 17.4904C11.0911 17.4904 10.9511 17.4204 10.8391 17.2804C10.7364 17.1497 10.6851 16.9817 10.6851 16.7764C10.6851 16.6364 10.7178 16.5244 10.7831 16.4404C10.6618 16.1977 10.5498 15.9457 10.4471 15.6844C10.3538 15.4231 10.2558 15.1617 10.1531 14.9004C10.0971 14.7604 10.0411 14.6204 9.98509 14.4804C9.92909 14.3404 9.87309 14.2004 9.81709 14.0604V14.1444C9.74243 14.1444 9.66309 14.1537 9.57909 14.1724C9.49509 14.1817 9.40176 14.1911 9.29909 14.2004C9.23376 14.2097 9.16843 14.2144 9.10309 14.2144C9.04709 14.2144 8.98176 14.2144 8.90709 14.2144C8.75776 14.2144 8.60376 14.2097 8.44509 14.2004C8.28643 14.1911 8.13243 14.1864 7.98309 14.1864C7.91776 14.1864 7.85243 14.1911 7.78709 14.2004C7.73109 14.2004 7.67976 14.2051 7.63309 14.2144C7.48376 14.2237 7.32043 14.2564 7.14309 14.3124C6.97509 14.3591 6.78376 14.3824 6.56909 14.3824C6.44776 14.3824 6.33109 14.3824 6.21909 14.3824C6.11643 14.3731 6.01376 14.3637 5.91109 14.3544C5.88309 14.4291 5.85509 14.5037 5.82709 14.5784C5.79909 14.6531 5.77109 14.7277 5.74309 14.8024C5.51909 15.3904 5.34176 15.8571 5.21109 16.2024C5.08043 16.5384 4.97776 16.7904 4.90309 16.9584C4.82843 17.1171 4.76309 17.2197 4.70709 17.2664L4.09109 16.5104C4.10043 16.5011 4.13309 16.4311 4.18909 16.3004C4.24509 16.1604 4.31043 15.9924 4.38509 15.7964C4.45976 15.5911 4.53443 15.3904 4.60909 15.1944C4.68376 14.9984 4.74909 14.8304 4.80509 14.6904C4.86109 14.5411 4.89376 14.4617 4.90309 14.4524C5.17376 13.7337 5.41176 13.0057 5.61709 12.2684C5.83176 11.5217 6.07443 10.7797 6.34509 10.0424C6.61576 9.30508 6.97976 8.59574 7.43709 7.91441L7.64709 8.08241L8.55709 7.81641C8.63176 8.10574 8.73443 8.39508 8.86509 8.68441C8.99576 8.97374 9.12643 9.28174 9.25709 9.60841C9.41576 9.98174 9.53709 10.3551 9.62109 10.7284C9.71443 11.1017 9.82643 11.4611 9.95709 11.8064C10.1158 12.2357 10.2884 12.6744 10.4751 13.1224C10.6618 13.5704 10.8438 14.0277 11.0211 14.4944C11.1238 14.7651 11.2264 15.0311 11.3291 15.2924C11.4411 15.5537 11.5624 15.8151 11.6931 16.0764C11.8331 16.3471 11.9264 16.5711 11.9731 16.7484C12.0198 16.9164 11.9731 17.0657 11.8331 17.1964C11.6278 17.3924 11.4364 17.4904 11.2591 17.4904ZM6.21909 13.4024C6.28443 13.3837 6.34509 13.3697 6.40109 13.3604C6.45709 13.3511 6.51309 13.3464 6.56909 13.3464C6.69976 13.3464 6.83976 13.3511 6.98909 13.3604C7.14776 13.3604 7.32043 13.3464 7.50709 13.3184C7.58176 13.3091 7.65643 13.3044 7.73109 13.3044C7.81509 13.2951 7.89909 13.2904 7.98309 13.2904C8.14176 13.2904 8.30043 13.2951 8.45909 13.3044C8.61776 13.3137 8.76709 13.3184 8.90709 13.3184H9.20109C9.24776 13.3091 9.29443 13.3044 9.34109 13.3044C9.39709 13.2951 9.44843 13.2857 9.49509 13.2764C9.42976 13.0991 9.36443 12.9217 9.29909 12.7444C9.23376 12.5671 9.16376 12.3897 9.08909 12.2124C8.94909 11.8391 8.83243 11.4704 8.73909 11.1064C8.65509 10.7331 8.54309 10.3784 8.40309 10.0424C8.32843 9.86508 8.24443 9.68774 8.15109 9.51041C8.06709 9.32374 7.98776 9.12774 7.91309 8.92241C7.51176 9.60374 7.18976 10.3271 6.94709 11.0924C6.71376 11.8484 6.47109 12.6184 6.21909 13.4024ZM13.5103 20.0104C13.4543 20.0104 13.4029 20.0057 13.3563 19.9964C13.3096 19.9964 13.2536 19.9917 13.1883 19.9824C12.6843 19.9264 12.2689 19.7164 11.9422 19.3524C11.6062 18.9977 11.4382 18.5684 11.4382 18.0644H12.2082C12.2082 18.2511 12.3156 18.4191 12.5302 18.5684C12.7356 18.7271 12.9876 18.8251 13.2863 18.8624C13.3143 18.8717 13.3469 18.8764 13.3843 18.8764C13.4309 18.8764 13.4729 18.8764 13.5103 18.8764C13.7249 18.8764 13.9443 18.8577 14.1683 18.8204C14.3923 18.7831 14.5929 18.7504 14.7703 18.7224C15.4236 18.6384 15.9229 18.5031 16.2683 18.3164C16.6136 18.1297 16.8749 17.9057 17.0523 17.6444C17.2389 17.3924 17.4069 17.1311 17.5563 16.8604C17.7896 16.4497 17.9716 15.9737 18.1023 15.4324C18.2423 14.8817 18.3496 14.3171 18.4243 13.7384C18.5083 13.1504 18.5736 12.6044 18.6203 12.1004C18.6203 12.0537 18.6203 12.0024 18.6203 11.9464C18.6296 11.8811 18.6343 11.8157 18.6343 11.7504C18.6343 11.6477 18.6296 11.5497 18.6203 11.4564C18.6203 11.3631 18.6156 11.2697 18.6063 11.1764C18.5223 11.4191 18.3869 11.6757 18.2003 11.9464C17.8923 12.3851 17.5749 12.8284 17.2483 13.2764C16.9216 13.7244 16.5716 14.1491 16.1983 14.5504C15.9929 14.7744 15.7783 14.9891 15.5543 15.1944C15.3396 15.3904 15.1436 15.6051 14.9663 15.8384C14.9569 15.8571 14.9056 15.9271 14.8123 16.0484C14.7189 16.1604 14.6023 16.2864 14.4623 16.4264C14.3316 16.5664 14.1916 16.6924 14.0423 16.8044C13.9023 16.9071 13.7763 16.9584 13.6643 16.9584C13.5803 16.9584 13.5103 16.9304 13.4543 16.8744C13.3049 16.7251 13.2303 16.3751 13.2303 15.8244C13.2303 15.5537 13.2443 15.2877 13.2723 15.0264C13.3003 14.7651 13.3236 14.5691 13.3423 14.4384C13.3983 14.0837 13.4683 13.6824 13.5523 13.2344C13.6363 12.7864 13.7529 12.3384 13.9023 11.8904C14.0516 11.4331 14.2429 11.0177 14.4763 10.6444C14.7096 10.2711 15.0036 9.98641 15.3583 9.79041C15.4236 9.75308 15.4983 9.73441 15.5823 9.73441C15.7316 9.73441 15.9043 9.77174 16.1003 9.84641C16.2963 9.92108 16.4783 10.0051 16.6463 10.0984C16.8236 10.1824 16.9496 10.2431 17.0243 10.2804C17.1456 10.3457 17.2949 10.4157 17.4723 10.4904C17.6589 10.5651 17.7989 10.6677 17.8923 10.7984C17.9296 10.6864 17.9483 10.4997 17.9483 10.2384V10.0564C17.9483 9.85108 18.0136 9.69708 18.1443 9.59441C18.2843 9.48241 18.4383 9.42174 18.6063 9.41241C18.7836 9.39374 18.9376 9.43108 19.0683 9.52441C19.2083 9.61774 19.2783 9.76708 19.2783 9.97241C19.2783 10.2057 19.2969 10.4717 19.3343 10.7704C19.3716 11.0691 19.3903 11.3957 19.3903 11.7504C19.3903 11.8251 19.3903 11.9044 19.3903 11.9884C19.3903 12.0724 19.3856 12.1424 19.3763 12.1984C19.3203 12.7677 19.2456 13.3651 19.1523 13.9904C19.0589 14.6157 18.9423 15.2177 18.8023 15.7964C18.6623 16.3657 18.4849 16.8511 18.2703 17.2524C18.1583 17.4671 18.0276 17.7051 17.8783 17.9664C17.7289 18.2371 17.5329 18.4984 17.2903 18.7504C17.0476 19.0117 16.7303 19.2404 16.3383 19.4364C15.9556 19.6324 15.4656 19.7677 14.8683 19.8424C14.6629 19.8704 14.4389 19.9031 14.1963 19.9404C13.9629 19.9871 13.7343 20.0104 13.5103 20.0104ZM15.7223 10.7704H15.7083C15.7083 10.7797 15.7129 10.7797 15.7223 10.7704ZM15.7083 10.7844C15.7083 10.7844 15.7036 10.7844 15.6943 10.7844C15.7036 10.7844 15.7083 10.7844 15.7083 10.7844ZM15.6943 10.7984C15.6943 10.7891 15.6896 10.7891 15.6803 10.7984H15.6943ZM14.0003 15.5724C14.0656 15.5071 14.1263 15.4417 14.1823 15.3764C14.2476 15.3017 14.3083 15.2271 14.3643 15.1524C14.6536 14.7697 14.9009 14.4851 15.1063 14.2984C15.3116 14.1024 15.4889 13.9251 15.6383 13.7664C16.0489 13.3277 16.4083 12.8984 16.7163 12.4784C17.0336 12.0584 17.3229 11.6617 17.5843 11.2884C17.6589 11.1764 17.7196 11.0924 17.7663 11.0364C17.8129 10.9711 17.8503 10.9057 17.8783 10.8404L17.3323 11.4844C17.3883 11.5497 17.3603 11.5684 17.2483 11.5404C17.1363 11.5124 16.9449 11.4284 16.6743 11.2884C16.6463 11.2697 16.5623 11.2277 16.4223 11.1624C16.2916 11.0877 16.1469 11.0224 15.9883 10.9664C15.8296 10.9011 15.6943 10.8684 15.5823 10.8684H15.5963C15.6149 10.8497 15.6289 10.8357 15.6383 10.8264C15.6476 10.8171 15.6523 10.8124 15.6523 10.8124C15.3723 10.9804 15.1389 11.2137 14.9523 11.5124C14.7656 11.8111 14.6069 12.2077 14.4763 12.7024C14.3456 13.1971 14.2196 13.8317 14.0983 14.6064C14.0703 14.7557 14.0469 14.9144 14.0283 15.0824C14.0189 15.2504 14.0096 15.4137 14.0003 15.5724Z" fill="#131313"/>
</svg>
