<svg width="24" height="24" viewBox="0 0 24 24" fill="none" xmlns="http://www.w3.org/2000/svg">
<path d="M7.68323 7.1377H9.41923L12.7092 15.9997H10.5252C10.3106 15.2717 10.1332 14.6884 9.99323 14.2497H7.08123C6.81057 15.0524 6.62857 15.6357 6.53523 15.9997H4.39323L7.68323 7.1377ZM8.57923 10.0217C8.30857 10.7497 8.01923 11.5664 7.71123 12.4717H9.39123C9.19523 11.8744 8.92457 11.0577 8.57923 10.0217ZM17.6097 15.1737C17.1897 15.8364 16.6017 16.1677 15.8457 16.1677C14.9217 16.1677 14.2077 15.841 13.7037 15.1877C13.2837 14.6464 13.0737 13.951 13.0737 13.1017C13.0737 11.8324 13.4423 10.8664 14.1797 10.2037C14.721 9.71837 15.3463 9.4757 16.0557 9.4757C16.6623 9.4757 17.1757 9.62037 17.5957 9.9097C17.857 10.0964 17.9877 10.241 17.9877 10.3437L18.1277 9.6437H19.7377V15.3137C19.7377 16.3404 19.4717 17.1524 18.9397 17.7497C18.389 18.3657 17.6097 18.6737 16.6017 18.6737C15.491 18.6737 14.5763 18.319 13.8577 17.6097L14.3617 16.5737C14.9217 16.9284 15.561 17.1057 16.2797 17.1057C16.7557 17.1057 17.0963 16.9517 17.3017 16.6437C17.507 16.345 17.6097 15.8504 17.6097 15.1597V15.1737ZM17.6097 11.9957C17.5817 11.7064 17.4603 11.459 17.2457 11.2537C17.0403 11.039 16.8023 10.9317 16.5317 10.9317C16.121 10.9317 15.799 11.0997 15.5657 11.4357C15.3323 11.7624 15.2157 12.2197 15.2157 12.8077C15.2157 14.0677 15.5843 14.6977 16.3217 14.6977C16.695 14.6977 17.003 14.5577 17.2457 14.2777C17.4977 13.9884 17.6237 13.6337 17.6237 13.2137C17.6237 13.1577 17.619 13.1064 17.6097 13.0597V11.9957Z" fill="#131313"/>
</svg>
