<svg width="24" height="24" viewBox="0 0 24 24" fill="none" xmlns="http://www.w3.org/2000/svg">
<path d="M8.60155 7.1377H9.18955L12.2975 15.9997H11.9195L11.1215 13.7457H6.65555L5.85755 15.9997H5.47955L8.60155 7.1377ZM8.88155 7.3897L6.76755 13.4377H11.0235L8.88155 7.3897ZM18.336 10.2877L18.448 9.6437H18.728V15.6637C18.728 17.6704 17.86 18.6737 16.124 18.6737C15.4054 18.6737 14.6914 18.4077 13.982 17.8757L14.206 17.5957C14.822 18.109 15.466 18.3657 16.138 18.3657C17.6127 18.3657 18.35 17.465 18.35 15.6637V15.4117C17.7154 15.9157 17.0387 16.1677 16.32 16.1677C15.4147 16.1677 14.696 15.813 14.164 15.1037C13.6974 14.497 13.464 13.7364 13.464 12.8217C13.464 11.767 13.7767 10.927 14.402 10.3017C14.9434 9.75103 15.6247 9.4757 16.446 9.4757C16.81 9.4757 17.1227 9.5317 17.384 9.6437C17.6547 9.7557 17.972 9.97037 18.336 10.2877ZM18.35 14.9637V10.7777C17.7434 10.115 17.0854 9.7837 16.376 9.7837C15.5734 9.7837 14.934 10.1057 14.458 10.7497C14.0474 11.3097 13.842 12.0097 13.842 12.8497C13.842 13.811 14.108 14.567 14.64 15.1177C15.1067 15.6124 15.6947 15.8597 16.404 15.8597C17.132 15.8597 17.7807 15.561 18.35 14.9637Z" fill="#131313"/>
</svg>
