<svg width="24" height="24" viewBox="0 0 24 24" fill="none" xmlns="http://www.w3.org/2000/svg">
<path d="M17.1136 7.81037C17.1323 7.82904 17.1416 7.85704 17.1416 7.89437C17.1416 7.92237 17.1183 7.96438 17.0716 8.02038C16.7636 8.35638 16.4883 8.7437 16.2456 9.18237C16.003 9.6117 15.793 10.0831 15.6156 10.5964C15.4476 11.1097 15.317 11.6511 15.2236 12.2204C15.1303 12.7897 15.0836 13.3731 15.0836 13.9704C15.0836 14.4184 15.1396 14.7684 15.2516 15.0204C15.3636 15.2631 15.555 15.3844 15.8256 15.3844C16.1896 15.3844 16.5443 15.1231 16.8896 14.6004C16.9176 14.5817 16.9456 14.5817 16.9736 14.6004C17.0016 14.6191 17.0063 14.6471 16.9876 14.6844C16.8943 14.8431 16.7823 15.0017 16.6516 15.1604C16.5303 15.3097 16.3996 15.4497 16.2596 15.5804C16.1196 15.7017 15.9796 15.8044 15.8396 15.8884C15.709 15.9631 15.5876 16.0004 15.4756 16.0004C15.1676 16.0004 14.9296 15.8464 14.7616 15.5384C14.603 15.2211 14.5236 14.8197 14.5236 14.3344C14.5236 13.5877 14.6076 12.8271 14.7756 12.0524C14.337 12.0524 13.903 12.0571 13.4736 12.0664C13.0536 12.0757 12.6383 12.0897 12.2276 12.1084C11.9196 12.4351 11.621 12.7431 11.3316 13.0324C11.0516 13.3217 10.7763 13.5877 10.5056 13.8304C9.75895 14.5117 8.98895 15.0437 8.19562 15.4264C7.41162 15.8091 6.54828 16.0004 5.60562 16.0004C5.12962 16.0004 4.74228 15.8884 4.44362 15.6644C4.15428 15.4311 3.95362 15.1417 3.84162 14.7964C3.73895 14.4511 3.72962 14.0731 3.81362 13.6624C3.90695 13.2424 4.10762 12.8504 4.41562 12.4864C4.44362 12.4677 4.47628 12.4724 4.51362 12.5004C4.55095 12.5191 4.56495 12.5611 4.55562 12.6264C4.33162 12.8691 4.19628 13.1491 4.14962 13.4664C4.11228 13.7837 4.16362 14.0871 4.30362 14.3764C4.44362 14.6657 4.68162 14.9084 5.01762 15.1044C5.35362 15.3004 5.79228 15.3984 6.33362 15.3984C7.04295 15.3984 7.75695 15.2304 8.47562 14.8944C9.20362 14.5584 9.88962 14.0871 10.5336 13.4804C10.739 13.2937 10.949 13.0884 11.1636 12.8644C11.3876 12.6311 11.621 12.3837 11.8636 12.1224C11.2196 12.1691 10.641 12.2251 10.1276 12.2904C10.081 12.2811 10.0716 12.2577 10.0996 12.2204C10.1276 12.1831 10.1696 12.1457 10.2256 12.1084C10.291 12.0617 10.361 12.0244 10.4356 11.9964C10.5196 11.9591 10.599 11.9357 10.6736 11.9264C10.7856 11.9171 10.9676 11.9124 11.2196 11.9124C11.481 11.9031 11.775 11.8937 12.1016 11.8844C12.6336 11.3244 13.2263 10.7224 13.8796 10.0784C14.5423 9.43437 15.3076 8.7717 16.1756 8.09037C15.5503 7.88504 14.9016 7.71704 14.2296 7.58637C13.567 7.44637 12.9276 7.37637 12.3116 7.37637C11.6116 7.37637 11.0283 7.5817 10.5616 7.99237C10.1043 8.3937 9.81962 9.00971 9.70762 9.84037C9.68895 9.88704 9.66095 9.9057 9.62362 9.89637C9.59562 9.88704 9.57695 9.85905 9.56762 9.81238C9.67962 8.89771 10.0203 8.1977 10.5896 7.71237C11.159 7.22704 11.8963 6.98438 12.8016 6.98438C13.1843 6.98438 13.5716 7.01237 13.9636 7.06837C14.3556 7.11504 14.7383 7.18037 15.1116 7.26437C15.485 7.33904 15.8396 7.4277 16.1756 7.53038C16.521 7.62371 16.8336 7.71704 17.1136 7.81037ZM14.8176 11.8704C14.9763 11.1891 15.1956 10.5264 15.4756 9.88237C15.7556 9.22904 16.0916 8.63637 16.4836 8.10437C15.6623 8.76704 14.925 9.42037 14.2716 10.0644C13.6183 10.6991 13.0116 11.3057 12.4516 11.8844C12.8996 11.8751 13.343 11.8704 13.7816 11.8704C14.2203 11.8704 14.5656 11.8704 14.8176 11.8704ZM20.1669 12.2204C20.1949 12.2017 20.2229 12.2064 20.2509 12.2344C20.2789 12.2531 20.2836 12.2811 20.2649 12.3184C20.1903 12.4304 20.0969 12.5331 19.9849 12.6264C19.8729 12.7104 19.7329 12.7477 19.5649 12.7384C19.6489 12.8784 19.6909 13.0604 19.6909 13.2844C19.6909 13.4991 19.6583 13.6951 19.5929 13.8724C19.5276 14.0497 19.4529 14.2177 19.3689 14.3764C19.2849 14.5351 19.1963 14.6844 19.1029 14.8244C19.0189 14.9644 18.9489 15.1091 18.8929 15.2584C18.8463 15.4077 18.8229 15.5617 18.8229 15.7204C18.8323 15.8697 18.8883 16.0377 18.9909 16.2244C19.0749 16.3831 19.1496 16.5231 19.2149 16.6444C19.2896 16.7751 19.3503 16.8964 19.3969 17.0084C19.4529 17.1297 19.4903 17.2511 19.5089 17.3724C19.5369 17.4937 19.5509 17.6244 19.5509 17.7644C19.5509 17.9884 19.5043 18.1984 19.4109 18.3944C19.3176 18.5997 19.1823 18.7771 19.0049 18.9264C18.8276 19.0851 18.6129 19.2064 18.3609 19.2904C18.1089 19.3837 17.8243 19.4304 17.5069 19.4304C17.1803 19.4304 16.8863 19.3837 16.6249 19.2904C16.3636 19.1971 16.1443 19.0711 15.9669 18.9124C15.7803 18.7631 15.6403 18.5857 15.5469 18.3804C15.4536 18.1844 15.4069 17.9791 15.4069 17.7644C15.4069 17.4844 15.5096 17.2371 15.7149 17.0224C15.9109 16.8171 16.1956 16.6631 16.5689 16.5604C16.6156 16.5604 16.6483 16.5744 16.6669 16.6024C16.6763 16.6397 16.6669 16.6724 16.6389 16.7004C16.4429 16.7751 16.2843 16.8871 16.1629 17.0364C16.0416 17.1857 15.9809 17.3864 15.9809 17.6384C15.9809 18.1144 16.1443 18.4971 16.4709 18.7864C16.7976 19.0757 17.2269 19.2204 17.7589 19.2204C18.2069 19.2204 18.5383 19.1037 18.7529 18.8704C18.9676 18.6464 19.0749 18.3524 19.0749 17.9884C19.0749 17.7737 19.0423 17.5824 18.9769 17.4144C18.9116 17.2464 18.8136 17.0551 18.6829 16.8404C18.5056 16.5417 18.4263 16.2571 18.4449 15.9864C18.4729 15.7064 18.5709 15.4171 18.7389 15.1184C18.7576 15.0811 18.7763 15.0484 18.7949 15.0204C18.8229 14.9831 18.8463 14.9411 18.8649 14.8944C18.7623 15.0064 18.6409 15.1044 18.5009 15.1884C18.3703 15.2724 18.2583 15.3144 18.1649 15.3144C17.7076 15.3144 17.4789 15.0157 17.4789 14.4184C17.4789 14.2224 17.5163 14.0077 17.5909 13.7744C17.6656 13.5411 17.7683 13.3264 17.8989 13.1304C18.0389 12.9251 18.1976 12.7571 18.3749 12.6264C18.5616 12.4957 18.7669 12.4304 18.9909 12.4304C19.3176 12.4304 19.5696 12.4211 19.7469 12.4024C19.9243 12.3744 20.0643 12.3137 20.1669 12.2204ZM19.0469 14.5584C19.1029 14.4277 19.1496 14.2924 19.1869 14.1524C19.2243 14.0124 19.2429 13.8724 19.2429 13.7324C19.2429 13.4617 19.1963 13.2517 19.1029 13.1024C19.0189 12.9437 18.8789 12.8644 18.6829 12.8644C18.4589 12.8644 18.2676 12.9764 18.1089 13.2004C17.9596 13.4244 17.8849 13.7417 17.8849 14.1524C17.8849 14.4231 17.9269 14.6191 18.0109 14.7404C18.1043 14.8617 18.2396 14.9224 18.4169 14.9224C18.5196 14.9224 18.6316 14.8897 18.7529 14.8244C18.8743 14.7591 18.9723 14.6704 19.0469 14.5584Z" fill="#131313"/>
</svg>
