<svg width="24" height="24" viewBox="0 0 24 24" fill="none" xmlns="http://www.w3.org/2000/svg">
<path d="M9.77105 14.9997L9.46306 13.3897H7.43305L7.12505 14.9997H5.15105L7.16705 6.0957H9.71506L11.7871 14.9997H9.77105ZM7.71305 11.9337H9.16906L8.44105 8.1677L7.71305 11.9337ZM15.4186 8.0697H17.3366V15.3077C17.3366 16.3437 16.7486 16.8617 15.5726 16.8617H12.6046V15.4337H15.0126C15.2646 15.4337 15.3906 15.317 15.3906 15.0837V14.0197C15.2506 14.477 14.882 14.7057 14.2846 14.7057H13.9486C12.8566 14.7057 12.3106 14.1877 12.3106 13.1517V9.6237C12.3106 8.5877 12.8566 8.0697 13.9486 8.0697H14.2846C14.91 8.0697 15.288 8.33103 15.4186 8.8537V8.0697ZM14.6486 13.2357H14.9706C15.2506 13.2357 15.3906 13.0864 15.3906 12.7877V9.9877C15.3906 9.68903 15.2506 9.5397 14.9706 9.5397H14.6486C14.3966 9.5397 14.2706 9.65637 14.2706 9.8897V12.8857C14.2706 13.119 14.3966 13.2357 14.6486 13.2357Z" fill="#131313"/>
</svg>
