<svg width="24" height="24" viewBox="0 0 24 24" fill="none" xmlns="http://www.w3.org/2000/svg">
<path d="M9.38867 6.52539C9.75326 7.7832 10.9017 10.488 12.834 14.6396C13.0938 15.027 13.2236 15.3551 13.2236 15.624C13.2236 15.6878 13.2008 15.7448 13.1553 15.7949C13.1143 15.8451 12.9548 15.9111 12.6768 15.9932C12.4033 16.0752 12.2233 16.1344 12.1367 16.1709C12.0684 16.0889 12.0342 16.0091 12.0342 15.9316C12.0342 15.8633 12.0433 15.7858 12.0615 15.6992L12.0957 15.5967C12.0957 15.4463 12.0205 15.1364 11.8701 14.667C11.7243 14.1976 11.4714 13.6006 11.1113 12.876C11.0749 12.8577 11.0361 12.8076 10.9951 12.7256C10.9587 12.639 10.863 12.5957 10.708 12.5957C10.6214 12.5957 10.5371 12.639 10.4551 12.7256C10.4414 12.6891 10.3457 12.6549 10.168 12.623L9.96289 12.5684H9.75781C9.29297 12.5684 8.9694 12.5957 8.78711 12.6504C8.60938 12.7005 8.51595 12.7256 8.50684 12.7256C8.44303 12.7256 8.3929 12.6914 8.35645 12.623C8.07389 12.7005 7.86426 12.7301 7.72754 12.7119C7.59538 12.6937 7.46322 12.6846 7.33105 12.6846C7.03027 12.6846 6.75 12.721 6.49023 12.7939C6.23503 12.8623 6.06868 12.8988 5.99121 12.9033C5.91829 12.9033 5.84766 12.9603 5.7793 13.0742L5.68359 13.0059C5.21875 13.9674 4.8724 14.724 4.64453 15.2754C4.61719 15.6172 4.54427 15.9066 4.42578 16.1436C4.31185 16.3851 4.20703 16.5059 4.11133 16.5059H4.09766C3.94271 16.4421 3.62598 16.3669 3.14746 16.2803C3.07454 16.2666 3.03809 16.2256 3.03809 16.1572C3.03809 16.0068 3.11784 15.8678 3.27734 15.7402C3.43685 15.6081 3.52799 15.5078 3.55078 15.4395C3.70117 15.1569 3.83789 14.9609 3.96094 14.8516C4.125 14.6556 4.33008 14.3343 4.57617 13.8877C4.82682 13.4365 5.0319 13.1335 5.19141 12.9785C5.19596 12.778 5.41243 12.3473 5.84082 11.6865C6.27376 11.0257 6.64746 10.4059 6.96191 9.82715C7.27637 9.24837 7.45182 8.9362 7.48828 8.89062C8.12174 7.98372 8.43848 7.36621 8.43848 7.03809V7.01074C8.54329 7.01074 8.5957 6.98796 8.5957 6.94238V6.87402C8.5957 6.7054 8.70736 6.52311 8.93066 6.32715L9.02637 6.36816C9.14486 6.21777 9.23828 6.14258 9.30664 6.14258C9.38867 6.14258 9.42969 6.2041 9.42969 6.32715C9.42969 6.40007 9.41602 6.46615 9.38867 6.52539ZM9.72363 12.1377C9.85124 12.1012 9.9834 12.083 10.1201 12.083C10.4346 12.0238 10.5918 11.9349 10.5918 11.8164C10.5918 11.8073 10.3275 11.1328 9.79883 9.79297C9.27018 8.45312 8.92383 7.7832 8.75977 7.7832C8.64583 7.7832 8.42253 8.09993 8.08984 8.7334C7.76172 9.36686 7.39258 10.0186 6.98242 10.6885C6.57227 11.3538 6.36719 11.7617 6.36719 11.9121C6.36719 12.0169 6.43555 12.0876 6.57227 12.124C6.70898 12.1605 6.78874 12.1787 6.81152 12.1787L6.94141 12.165C7.01888 12.165 7.1237 12.1764 7.25586 12.1992C7.38802 12.222 7.47917 12.2334 7.5293 12.2334C7.63867 12.2334 7.81641 12.2152 8.0625 12.1787C8.31315 12.1423 8.47038 12.124 8.53418 12.124C8.59798 12.124 8.67546 12.1331 8.7666 12.1514C8.85775 12.1696 8.91699 12.1787 8.94434 12.1787C9.00814 12.1787 9.05371 12.1468 9.08105 12.083C9.19499 12.1195 9.29753 12.1377 9.38867 12.1377L9.60059 12.124C9.65072 12.124 9.69173 12.1286 9.72363 12.1377ZM19.7109 9.29395C19.6061 9.78613 19.5537 10.5928 19.5537 11.7139C19.5537 12.0785 19.5742 12.6504 19.6152 13.4297C19.6562 14.209 19.6768 14.8971 19.6768 15.4941C19.6768 16.6335 19.5651 17.5426 19.3418 18.2217C19.1185 18.9053 18.9362 19.2471 18.7949 19.2471L18.7539 19.2334C18.6354 19.5706 18.3392 19.7962 17.8652 19.9102C17.3913 20.0286 17.0449 20.0879 16.8262 20.0879C16.7305 20.0879 16.5938 20.0742 16.416 20.0469C16.2383 20.0195 16.1084 20.0059 16.0264 20.0059C15.9307 20.0059 15.8646 20.0104 15.8281 20.0195C15.7643 20.0833 15.696 20.1152 15.623 20.1152C15.5684 20.1152 15.5251 20.0924 15.4932 20.0469C15.4521 20.1016 15.3815 20.1289 15.2812 20.1289L15.1582 20.1152C15.1445 20.1152 15.1126 20.1221 15.0625 20.1357C15.0169 20.1494 14.9873 20.1562 14.9736 20.1562C14.9281 20.1562 14.8711 20.1266 14.8027 20.0674C14.7389 20.0127 14.707 19.917 14.707 19.7803C14.707 19.7028 14.7139 19.6071 14.7275 19.4932C14.7458 19.3792 14.7549 19.3018 14.7549 19.2607V19.1104C14.7549 19.0557 14.7868 18.9896 14.8506 18.9121H14.9053C15.001 18.9121 15.1514 18.9736 15.3564 19.0967C15.8441 19.3838 16.3431 19.5273 16.8535 19.5273C17.25 19.5273 17.5622 19.4476 17.79 19.2881C18.0726 19.2744 18.223 19.181 18.2412 19.0078C18.3187 18.9759 18.4531 18.7435 18.6445 18.3105C18.8405 17.8822 18.9385 17.2236 18.9385 16.335V16.1367C18.8701 16.0182 18.7493 15.959 18.5762 15.959C18.485 15.959 18.3734 15.9727 18.2412 16C18.109 16.0273 17.986 16.041 17.8721 16.041C17.6761 16.041 17.3867 16.0182 17.0039 15.9727C16.6257 15.9225 16.3271 15.8678 16.1084 15.8086C15.8942 15.7493 15.6299 15.6263 15.3154 15.4395C15.0055 15.2526 14.7845 15.0635 14.6523 14.8721C14.5202 14.6807 14.4131 14.4574 14.3311 14.2021C14.249 13.9469 14.208 13.6826 14.208 13.4092C14.208 12.8851 14.3493 12.3952 14.6318 11.9395C14.9189 11.4792 15.3314 11.0827 15.8691 10.75C15.9147 10.7363 15.9557 10.6999 15.9922 10.6406C16.0833 10.4857 16.4365 10.3398 17.0518 10.2031L17.8584 9.99121H17.8721C17.9313 9.99121 18.207 9.89779 18.6992 9.71094L18.7949 9.82715C18.8268 9.75423 18.8428 9.59928 18.8428 9.3623V9.05469H18.9658C19.3851 9.05469 19.6335 9.13444 19.7109 9.29395ZM18.3916 15.0225C18.4053 15.0771 18.4531 15.1045 18.5352 15.1045C18.7949 15.1045 18.9248 14.806 18.9248 14.209L18.8086 11.0713L18.8428 10.8457C18.8428 10.5312 18.6263 10.374 18.1934 10.374C17.8698 10.374 17.4824 10.4333 17.0312 10.5518C16.5846 10.6702 16.1813 10.9004 15.8213 11.2422C15.4613 11.5794 15.2174 11.9076 15.0898 12.2266C14.9668 12.5456 14.9053 12.86 14.9053 13.1699C14.9053 13.5801 15.0397 13.9447 15.3086 14.2637C15.5775 14.5827 15.9079 14.8333 16.2998 15.0156C16.6917 15.1979 17.2591 15.2891 18.002 15.2891C18.0521 15.2891 18.1045 15.2799 18.1592 15.2617C18.2139 15.2435 18.2913 15.1637 18.3916 15.0225Z" fill="#131313"/>
</svg>
