<svg width="24" height="24" viewBox="0 0 24 24" fill="none" xmlns="http://www.w3.org/2000/svg">
<path d="M6.43418 16.9999C6.38751 16.9999 6.28018 16.9906 6.11218 16.9719C5.94418 16.9532 5.74351 16.9299 5.51018 16.9019C5.27685 16.8646 5.03885 16.8272 4.79618 16.7899C4.55351 16.7526 4.32485 16.7152 4.11018 16.6779C3.89551 16.6312 3.71818 16.5892 3.57818 16.5519C3.57818 16.4772 3.59685 16.4026 3.63418 16.3279C3.67151 16.2532 3.70885 16.2019 3.74618 16.1739H3.85818C3.97951 16.1739 4.10085 16.1319 4.22218 16.0479C4.34351 15.9639 4.46485 15.8286 4.58618 15.6419C4.70751 15.4552 4.82885 15.2079 4.95018 14.8999C5.08085 14.5826 5.21151 14.1906 5.34218 13.7239L6.96618 7.91392C7.04085 7.82992 7.15751 7.73659 7.31618 7.63392C7.48418 7.52192 7.66618 7.41459 7.86218 7.31192C8.05818 7.19992 8.24485 7.10659 8.42218 7.03192C8.59951 6.95725 8.73485 6.91992 8.82818 6.91992C8.94951 6.91992 9.10818 6.96192 9.30418 7.04592C9.50018 7.12992 9.70085 7.23259 9.90618 7.35392C10.1115 7.47525 10.2748 7.59659 10.3962 7.71792L12.2862 15.7959C12.3048 15.8986 12.3328 15.9826 12.3702 16.0479C12.4168 16.1039 12.5055 16.1412 12.6362 16.1599L13.4762 16.2159C13.5042 16.2439 13.5275 16.2719 13.5462 16.2999C13.5742 16.3279 13.5928 16.4072 13.6022 16.5379C13.5368 16.6032 13.4435 16.6732 13.3222 16.7479C13.2008 16.8132 13.0748 16.8739 12.9442 16.9299C12.8135 16.9766 12.6922 16.9999 12.5802 16.9999C12.4962 16.9999 12.3515 16.9859 12.1462 16.9579C11.9502 16.9299 11.7262 16.8972 11.4742 16.8599C11.2222 16.8132 10.9702 16.7666 10.7182 16.7199C10.4662 16.6732 10.2422 16.6266 10.0462 16.5799C9.85018 16.5332 9.71018 16.4959 9.62618 16.4679C9.62618 16.3932 9.64485 16.3232 9.68218 16.2579C9.72885 16.1926 9.75685 16.1506 9.76618 16.1319H10.2002C10.3588 16.1319 10.4848 16.1226 10.5782 16.1039C10.6808 16.0852 10.7462 16.0246 10.7742 15.9219C10.8022 15.8099 10.7882 15.6232 10.7322 15.3619L10.2142 12.9959H6.63018L6.07018 15.0259C6.01418 15.2219 5.94418 15.3946 5.86018 15.5439C5.78551 15.6932 5.70618 15.8099 5.62218 15.8939C5.53818 15.9779 5.44485 16.0339 5.34218 16.0619L7.35818 16.2159C7.36751 16.2439 7.38618 16.2859 7.41418 16.3419C7.44218 16.3979 7.45618 16.4679 7.45618 16.5519C7.37218 16.6266 7.26951 16.7012 7.14818 16.7759C7.02685 16.8412 6.90085 16.8972 6.77018 16.9439C6.63951 16.9812 6.52751 16.9999 6.43418 16.9999ZM6.82618 12.2399C7.28351 12.2399 7.71751 12.2306 8.12818 12.2119C8.54818 12.1932 8.92151 12.1746 9.24818 12.1559C9.57485 12.1279 9.82218 12.0999 9.99018 12.0719L9.15018 8.34792C8.95418 8.20792 8.75351 8.09592 8.54818 8.01192C8.35218 7.92792 8.16085 7.87192 7.97418 7.84392L6.82618 12.2399ZM16.7154 19.7999C16.5661 19.7999 16.3794 19.7579 16.1554 19.6739C15.9314 19.5992 15.6934 19.4919 15.4414 19.3519C15.1988 19.2212 14.9701 19.0719 14.7554 18.9039C14.5408 18.7359 14.3634 18.5726 14.2234 18.4139C14.0928 18.2552 14.0274 18.1059 14.0274 17.9659C14.0274 17.8259 14.1021 17.6626 14.2514 17.4759C14.4101 17.2892 14.6014 17.1026 14.8254 16.9159C15.0588 16.7292 15.2781 16.5706 15.4834 16.4399C15.4368 16.3746 15.3854 16.2952 15.3294 16.2019C15.2828 16.0992 15.2594 16.0106 15.2594 15.9359C15.2594 15.8426 15.3108 15.7259 15.4134 15.5859C15.5161 15.4459 15.6374 15.3059 15.7774 15.1659C15.9174 15.0166 16.0341 14.9092 16.1274 14.8439L16.5754 14.9419L16.4354 15.7399C16.5101 15.7492 16.6734 15.7726 16.9254 15.8099C17.1868 15.8379 17.4854 15.8752 17.8214 15.9219C18.1668 15.9592 18.5074 16.0106 18.8434 16.0759C19.1888 16.1319 19.4874 16.1926 19.7394 16.2579C20.0008 16.3232 20.1734 16.3979 20.2574 16.4819C20.3041 16.6032 20.3368 16.7386 20.3554 16.8879C20.3834 17.0279 20.3974 17.1632 20.3974 17.2939C20.3974 17.5739 20.3741 17.8632 20.3274 18.1619C20.2808 18.4606 20.2201 18.7079 20.1454 18.9039C20.0334 18.9786 19.8608 19.0672 19.6274 19.1699C19.3941 19.2726 19.1188 19.3706 18.8014 19.4639C18.4841 19.5666 18.1434 19.6459 17.7794 19.7019C17.4154 19.7672 17.0608 19.7999 16.7154 19.7999ZM17.0514 18.8339C17.2288 18.8339 17.4528 18.8199 17.7234 18.7919C18.0034 18.7639 18.2741 18.7266 18.5354 18.6799C18.8061 18.6332 19.0114 18.5819 19.1514 18.5259C19.1794 18.4512 19.1981 18.3252 19.2074 18.1479C19.2261 17.9799 19.2354 17.8446 19.2354 17.7419C19.2354 17.6206 19.2261 17.5039 19.2074 17.3919C19.1888 17.2799 19.1654 17.2006 19.1374 17.1539C19.1188 17.1352 19.0161 17.1072 18.8294 17.0699C18.6428 17.0326 18.4188 16.9952 18.1574 16.9579C17.8961 16.9112 17.6301 16.8692 17.3594 16.8319C17.0888 16.7946 16.8508 16.7619 16.6454 16.7339C16.4401 16.7059 16.3094 16.6872 16.2534 16.6779C16.1321 16.8086 15.9968 16.9486 15.8474 17.0979C15.7074 17.2472 15.5908 17.3826 15.4974 17.5039C15.4041 17.6252 15.3574 17.7139 15.3574 17.7699C15.3574 17.8352 15.4228 17.9286 15.5534 18.0499C15.6934 18.1712 15.8568 18.2879 16.0434 18.3999C16.2394 18.5212 16.4261 18.6239 16.6034 18.7079C16.7901 18.7919 16.9394 18.8339 17.0514 18.8339ZM16.4774 15.1939C16.2161 15.0912 15.9828 14.9979 15.7774 14.9139C15.5721 14.8206 15.3994 14.7366 15.2594 14.6619C15.1194 14.5872 15.0028 14.5172 14.9094 14.4519C14.8161 14.3866 14.7508 14.3259 14.7134 14.2699C14.6294 14.1579 14.5548 13.9946 14.4894 13.7799C14.4241 13.5559 14.3914 13.2992 14.3914 13.0099C14.3914 12.5619 14.4288 12.1606 14.5034 11.8059C14.5781 11.4512 14.6481 11.1712 14.7134 10.9659C14.8068 10.9099 14.9561 10.8306 15.1614 10.7279C15.3761 10.6159 15.6141 10.5039 15.8754 10.3919C16.1461 10.2799 16.4168 10.1866 16.6874 10.1119C16.9674 10.0372 17.2148 9.99992 17.4294 9.99992C17.5414 9.99992 17.6861 10.0232 17.8634 10.0699C18.0408 10.1166 18.1668 10.1539 18.2414 10.1819C18.5028 10.1446 18.7688 10.0746 19.0394 9.97192C19.3194 9.85992 19.5808 9.74325 19.8234 9.62192C20.0754 9.50059 20.2714 9.40725 20.4114 9.34192L20.6354 9.49592C20.6354 9.66392 20.6168 9.83659 20.5794 10.0139C20.5514 10.1912 20.5188 10.3312 20.4814 10.4339C20.2854 10.4992 20.0614 10.5506 19.8094 10.5879C19.5574 10.6252 19.3008 10.6532 19.0394 10.6719V10.7419C19.1234 10.7886 19.2121 10.8539 19.3054 10.9379C19.4081 11.0126 19.5014 11.1152 19.5854 11.2459C19.6508 11.3952 19.7021 11.5772 19.7394 11.7919C19.7861 12.0066 19.8094 12.2072 19.8094 12.3939C19.8094 12.7672 19.7721 13.1312 19.6974 13.4859C19.6321 13.8312 19.5574 14.1159 19.4734 14.3399C19.3521 14.4426 19.1468 14.5592 18.8574 14.6899C18.5774 14.8206 18.2321 14.9372 17.8214 15.0399C17.4108 15.1332 16.9628 15.1846 16.4774 15.1939ZM17.1914 14.4239C17.2941 14.4239 17.4248 14.4052 17.5834 14.3679C17.7514 14.3306 17.9101 14.2839 18.0594 14.2279C18.2088 14.1719 18.3114 14.1299 18.3674 14.1019C18.4328 13.9806 18.4841 13.7986 18.5214 13.5559C18.5681 13.3039 18.5914 13.0472 18.5914 12.7859C18.5914 12.4686 18.5774 12.1839 18.5494 11.9319C18.5214 11.6706 18.4794 11.5026 18.4234 11.4279C18.3861 11.3719 18.2881 11.3019 18.1294 11.2179C17.9708 11.1339 17.8028 11.0592 17.6254 10.9939C17.4481 10.9286 17.3128 10.8959 17.2194 10.8959C17.0981 10.8959 16.9441 10.9192 16.7574 10.9659C16.5708 11.0032 16.3841 11.0546 16.1974 11.1199C16.0201 11.1759 15.8848 11.2319 15.7914 11.2879C15.7448 11.4092 15.7028 11.5772 15.6654 11.7919C15.6281 11.9972 15.6094 12.2119 15.6094 12.4359C15.6094 12.6786 15.6188 12.9026 15.6374 13.1079C15.6654 13.3132 15.6981 13.4812 15.7354 13.6119C15.7728 13.7426 15.8054 13.8312 15.8334 13.8779C15.8894 13.9339 16.0014 14.0086 16.1694 14.1019C16.3468 14.1859 16.5334 14.2606 16.7294 14.3259C16.9254 14.3912 17.0794 14.4239 17.1914 14.4239Z" fill="#131313"/>
</svg>
