<svg width="24" height="24" viewBox="0 0 24 24" fill="none" xmlns="http://www.w3.org/2000/svg">
<path d="M5.46167 16.9999C5.39634 16.9999 5.24701 16.9859 5.01367 16.9579C4.78967 16.9206 4.52367 16.8786 4.21567 16.8319C3.91701 16.7759 3.62767 16.7199 3.34767 16.6639C3.07701 16.6079 2.86234 16.5566 2.70367 16.5099C2.73167 16.4259 2.76901 16.3466 2.81567 16.2719C2.85301 16.1879 2.89034 16.1272 2.92767 16.0899L3.15167 16.0759C3.24501 16.0666 3.34767 16.0386 3.45967 15.9919C3.57167 15.9452 3.70234 15.8472 3.85167 15.6979C4.00101 15.5486 4.17367 15.3106 4.36967 14.9839C4.57501 14.6479 4.81301 14.1952 5.08367 13.6259L7.77167 7.95592C7.86501 7.87192 8.00501 7.77392 8.19167 7.66192C8.38767 7.54059 8.59301 7.42392 8.80767 7.31192C9.03167 7.19992 9.23701 7.10659 9.42367 7.03192C9.61967 6.95725 9.76434 6.91992 9.85767 6.91992C9.97901 6.91992 10.1377 6.96192 10.3337 7.04592C10.539 7.12059 10.7397 7.22325 10.9357 7.35392C11.141 7.47525 11.3043 7.60125 11.4257 7.73192L11.7477 15.6699C11.757 15.8099 11.7757 15.9032 11.8037 15.9499C11.841 15.9872 11.9157 16.0106 12.0277 16.0199L12.8677 16.1179C12.8957 16.1552 12.9143 16.2066 12.9237 16.2719C12.933 16.3279 12.9283 16.4072 12.9097 16.5099C12.8163 16.5846 12.695 16.6639 12.5457 16.7479C12.3963 16.8226 12.2423 16.8832 12.0837 16.9299C11.9343 16.9766 11.8037 16.9999 11.6917 16.9999C11.6263 16.9999 11.4957 16.9859 11.2997 16.9579C11.1037 16.9299 10.8797 16.8972 10.6277 16.8599C10.3757 16.8132 10.119 16.7666 9.85767 16.7199C9.60567 16.6732 9.37701 16.6312 9.17167 16.5939C8.97567 16.5472 8.84034 16.5099 8.76567 16.4819C8.79367 16.3792 8.82634 16.2952 8.86367 16.2299C8.91034 16.1552 8.95234 16.0992 8.98967 16.0619L9.33967 16.0479C9.48901 16.0386 9.61501 16.0106 9.71767 15.9639C9.82967 15.9172 9.91367 15.8332 9.96967 15.7119C10.0257 15.5906 10.049 15.4039 10.0397 15.1519L9.98367 13.0239H6.51167L5.58767 14.9979C5.43834 15.3246 5.27967 15.5672 5.11167 15.7259C4.94367 15.8846 4.82701 15.9732 4.76167 15.9919L6.65167 16.1459C6.67967 16.1832 6.69834 16.2392 6.70767 16.3139C6.71701 16.3792 6.71234 16.4492 6.69367 16.5239C6.61901 16.5986 6.50234 16.6732 6.34367 16.7479C6.19434 16.8226 6.03567 16.8832 5.86767 16.9299C5.70901 16.9766 5.57367 16.9999 5.46167 16.9999ZM6.90367 12.1139C7.38901 12.1139 7.82767 12.1092 8.21967 12.0999C8.61167 12.0906 8.95701 12.0766 9.25567 12.0579C9.55434 12.0392 9.79234 12.0159 9.96967 11.9879L9.87167 8.54392C9.72234 8.41325 9.55434 8.30592 9.36767 8.22192C9.18101 8.13792 8.98501 8.08659 8.77967 8.06792L6.90367 12.1139ZM16.1209 19.7999C15.9903 19.7999 15.8129 19.7859 15.5889 19.7579C15.3649 19.7392 15.1223 19.7112 14.8609 19.6739C14.5996 19.6459 14.3476 19.6039 14.1049 19.5479C13.8623 19.5012 13.6569 19.4499 13.4889 19.3939C13.1903 19.1792 12.9756 18.9552 12.8449 18.7219C12.7049 18.4979 12.6256 18.3206 12.6069 18.1899C12.6256 18.1246 12.7236 18.0406 12.9009 17.9379C13.0783 17.8352 13.2976 17.7232 13.5589 17.6019C13.8296 17.4899 14.1143 17.3686 14.4129 17.2379C14.7209 17.1072 15.0149 16.9766 15.2949 16.8459C15.0896 16.7619 14.8796 16.6639 14.6649 16.5519C14.4503 16.4399 14.2636 16.3279 14.1049 16.2159C13.9463 16.0946 13.8576 16.0059 13.8389 15.9499C13.8389 15.6139 13.8716 15.2406 13.9369 14.8299C14.0023 14.4192 14.0863 14.0086 14.1889 13.5979C14.2916 13.1872 14.3943 12.8092 14.4969 12.4639C14.6089 12.1186 14.7069 11.8339 14.7909 11.6099C14.8749 11.3859 14.9309 11.2552 14.9589 11.2179C15.0149 11.1432 15.1176 11.0406 15.2669 10.9099C15.4256 10.7792 15.6029 10.6439 15.7989 10.5039C15.9949 10.3639 16.1769 10.2472 16.3449 10.1539C16.5223 10.0512 16.6529 9.99992 16.7369 9.99992C16.9143 9.99992 17.1289 10.0419 17.3809 10.1259C17.6329 10.2006 17.8989 10.3032 18.1789 10.4339C18.4589 10.5552 18.7343 10.6906 19.0049 10.8399L19.1449 9.99992C19.2289 9.99992 19.3456 10.0046 19.4949 10.0139C19.6536 10.0139 19.8123 10.0326 19.9709 10.0699C20.1296 10.1072 20.2603 10.1632 20.3629 10.2379C20.4749 10.3126 20.5309 10.4199 20.5309 10.5599C20.5309 10.5786 20.5309 10.6066 20.5309 10.6439C20.5309 10.6719 20.5263 10.6999 20.5169 10.7279L19.3129 15.8239C19.2289 16.1786 19.1029 16.5426 18.9349 16.9159C18.7669 17.2892 18.5663 17.6486 18.3329 17.9939C18.1089 18.3392 17.8663 18.6472 17.6049 18.9179C17.3529 19.1886 17.0963 19.4032 16.8349 19.5619C16.5829 19.7206 16.3449 19.7999 16.1209 19.7999ZM16.5549 18.8759C16.7416 18.6612 16.9283 18.3486 17.1149 17.9379C17.3109 17.5366 17.5069 17.0139 17.7029 16.3699L18.5149 13.7379C18.5896 13.5139 18.6549 13.3132 18.7109 13.1359C18.7763 12.9586 18.8276 12.8419 18.8649 12.7859L18.7949 12.7439C18.5989 13.1359 18.3703 13.5699 18.1089 14.0459C17.8569 14.5219 17.5956 14.9792 17.3249 15.4179C17.0636 15.8472 16.8116 16.2112 16.5689 16.5099C16.4476 16.6686 16.2843 16.8319 16.0789 16.9999C15.8736 17.1679 15.6543 17.3312 15.4209 17.4899C15.1969 17.6486 14.9823 17.7932 14.7769 17.9239C14.5809 18.0639 14.4129 18.1806 14.2729 18.2739C14.4036 18.3579 14.6043 18.4419 14.8749 18.5259C15.1549 18.6192 15.4489 18.6986 15.7569 18.7639C16.0649 18.8292 16.3309 18.8666 16.5549 18.8759ZM16.1349 15.7399C16.1816 15.7399 16.2656 15.6652 16.3869 15.5159C16.5176 15.3572 16.6669 15.1519 16.8349 14.8999C17.0123 14.6479 17.1943 14.3726 17.3809 14.0739C17.5769 13.7659 17.7683 13.4579 17.9549 13.1499C18.1416 12.8419 18.3096 12.5526 18.4589 12.2819C18.6083 12.0112 18.7249 11.7919 18.8089 11.6239C18.3423 11.4839 17.9223 11.3766 17.5489 11.3019C17.1756 11.2272 16.8256 11.1852 16.4989 11.1759C16.4056 11.2879 16.3029 11.4839 16.1909 11.7639C16.0883 12.0346 15.9903 12.3472 15.8969 12.7019C15.8036 13.0566 15.7196 13.4159 15.6449 13.7799C15.5703 14.1346 15.5096 14.4519 15.4629 14.7319C15.4163 15.0026 15.3929 15.1939 15.3929 15.3059C15.4863 15.4086 15.6123 15.5066 15.7709 15.5999C15.9389 15.6932 16.0603 15.7399 16.1349 15.7399Z" fill="#131313"/>
</svg>
