<svg width="24" height="24" viewBox="0 0 24 24" fill="none" xmlns="http://www.w3.org/2000/svg">
<path d="M5.02965 16.9999C4.96432 16.9999 4.83832 16.9859 4.65165 16.9579C4.46498 16.9299 4.25032 16.8972 4.00765 16.8599C3.76498 16.8226 3.52698 16.7806 3.29365 16.7339C3.06032 16.6779 2.86898 16.6266 2.71965 16.5799C2.73832 16.5146 2.77098 16.4539 2.81765 16.3979C2.85498 16.3326 2.89232 16.2906 2.92965 16.2719H3.09765C3.19098 16.2719 3.29365 16.2392 3.40565 16.1739C3.52698 16.1086 3.65765 16.0012 3.79765 15.8519C3.94698 15.6932 4.10565 15.4739 4.27365 15.1939C4.44165 14.9139 4.62832 14.5592 4.83365 14.1299L7.82965 7.81592C7.93232 7.73192 8.05832 7.63859 8.20765 7.53592C8.36632 7.43325 8.53432 7.33525 8.71165 7.24192C8.88898 7.14859 9.05232 7.07392 9.20165 7.01792C9.35098 6.95259 9.46298 6.91992 9.53765 6.91992C9.64965 6.91992 9.78498 6.96192 9.94365 7.04592C10.1116 7.12059 10.275 7.21392 10.4336 7.32592C10.6016 7.43792 10.7276 7.54992 10.8116 7.66192L11.2036 15.8799C11.2223 16.0106 11.2456 16.0992 11.2736 16.1459C11.3016 16.1926 11.3763 16.2206 11.4976 16.2299L12.2676 16.2999C12.2863 16.3279 12.3003 16.3699 12.3096 16.4259C12.319 16.4819 12.319 16.5332 12.3096 16.5799C12.2256 16.6452 12.1183 16.7106 11.9876 16.7759C11.8663 16.8412 11.745 16.8972 11.6236 16.9439C11.5023 16.9812 11.395 16.9999 11.3016 16.9999C11.227 16.9999 11.1103 16.9906 10.9516 16.9719C10.8023 16.9439 10.6296 16.9112 10.4336 16.8739C10.2376 16.8366 10.0416 16.7992 9.84565 16.7619C9.65898 16.7246 9.48632 16.6872 9.32765 16.6499C9.16898 16.6126 9.05232 16.5799 8.97765 16.5519C8.98698 16.4866 9.01032 16.4259 9.04765 16.3699C9.08498 16.3139 9.11765 16.2719 9.14565 16.2439H9.45365C9.61232 16.2439 9.74298 16.2346 9.84565 16.2159C9.95765 16.1879 10.037 16.1226 10.0836 16.0199C10.1396 15.9172 10.163 15.7446 10.1536 15.5019L10.0416 12.9819H6.24765L5.25365 15.1239C5.09498 15.4692 4.93165 15.7212 4.76365 15.8799C4.60498 16.0386 4.48832 16.1319 4.41365 16.1599L6.06565 16.2999C6.09365 16.3279 6.11232 16.3699 6.12165 16.4259C6.13098 16.4726 6.12632 16.5286 6.10765 16.5939C6.02365 16.6592 5.91165 16.7246 5.77165 16.7899C5.64098 16.8459 5.51032 16.8972 5.37965 16.9439C5.24898 16.9812 5.13232 16.9999 5.02965 16.9999ZM6.55565 12.3099C7.07832 12.3006 7.55432 12.2912 7.98365 12.2819C8.42232 12.2726 8.81432 12.2586 9.15965 12.2399C9.50498 12.2212 9.79432 12.2026 10.0276 12.1839L9.85965 8.20792C9.70098 8.08659 9.51898 7.97925 9.31365 7.88592C9.11765 7.79259 8.91232 7.73659 8.69765 7.71792L6.55565 12.3099ZM15.5148 19.7999C15.4121 19.7999 15.2534 19.7859 15.0388 19.7579C14.8241 19.7392 14.5861 19.7066 14.3248 19.6599C14.0634 19.6132 13.8114 19.5619 13.5688 19.5059C13.3261 19.4499 13.1208 19.3892 12.9528 19.3239C12.7194 19.1466 12.5514 18.9552 12.4488 18.7499C12.3368 18.5539 12.2714 18.3999 12.2528 18.2879C12.2714 18.2226 12.3601 18.1386 12.5188 18.0359C12.6774 17.9426 12.8781 17.8306 13.1208 17.6999C13.3634 17.5786 13.6201 17.4479 13.8908 17.3079C14.1708 17.1679 14.4414 17.0232 14.7028 16.8739C14.5161 16.7899 14.3341 16.6919 14.1568 16.5799C13.9888 16.4586 13.8441 16.3419 13.7228 16.2299C13.6108 16.1086 13.5408 16.0152 13.5128 15.9499C13.5128 15.6046 13.5454 15.2219 13.6108 14.8019C13.6854 14.3819 13.7741 13.9619 13.8768 13.5419C13.9888 13.1219 14.0961 12.7346 14.1988 12.3799C14.3108 12.0252 14.4088 11.7312 14.4928 11.4979C14.5861 11.2646 14.6514 11.1292 14.6888 11.0919C14.7448 11.0172 14.8334 10.9239 14.9548 10.8119C15.0761 10.6906 15.2114 10.5692 15.3608 10.4479C15.5101 10.3172 15.6501 10.2099 15.7808 10.1259C15.9114 10.0419 16.0141 9.99992 16.0888 9.99992C16.2474 9.99992 16.4574 10.0419 16.7188 10.1259C16.9801 10.2006 17.2554 10.3032 17.5448 10.4339C17.8434 10.5646 18.1281 10.7092 18.3988 10.8679L18.5668 9.99992C18.6414 9.99992 18.7301 10.0092 18.8328 10.0279C18.9448 10.0372 19.0521 10.0606 19.1548 10.0979C19.2574 10.1259 19.3414 10.1772 19.4068 10.2519C19.4721 10.3172 19.5048 10.4106 19.5048 10.5319C19.5048 10.5412 19.5001 10.5739 19.4908 10.6299C19.4908 10.6766 19.4814 10.7372 19.4628 10.8119L18.2308 16.0759C18.1468 16.4119 18.0348 16.7526 17.8948 17.0979C17.7548 17.4526 17.5914 17.7886 17.4048 18.1059C17.2181 18.4232 17.0174 18.7079 16.8028 18.9599C16.5974 19.2212 16.3828 19.4266 16.1588 19.5759C15.9348 19.7252 15.7201 19.7999 15.5148 19.7999ZM15.9908 19.0299C16.1961 18.7779 16.3968 18.4279 16.5928 17.9799C16.7888 17.5412 16.9708 17.0186 17.1388 16.4119L17.8808 13.7379C17.9461 13.5139 18.0068 13.3132 18.0628 13.1359C18.1281 12.9492 18.1794 12.8326 18.2168 12.7859L18.1468 12.7439C17.9134 13.1732 17.6661 13.6259 17.4048 14.1019C17.1528 14.5779 16.8914 15.0306 16.6208 15.4599C16.3594 15.8892 16.0934 16.2719 15.8228 16.6079C15.7108 16.7479 15.5474 16.9019 15.3328 17.0699C15.1274 17.2379 14.9034 17.4012 14.6608 17.5599C14.4274 17.7279 14.2081 17.8819 14.0028 18.0219C13.7974 18.1712 13.6388 18.2832 13.5268 18.3579C13.6574 18.4419 13.8674 18.5352 14.1568 18.6379C14.4554 18.7406 14.7728 18.8292 15.1088 18.9039C15.4448 18.9879 15.7388 19.0299 15.9908 19.0299ZM15.3748 16.0199C15.4028 16.0199 15.4868 15.9359 15.6268 15.7679C15.7668 15.5906 15.9301 15.3619 16.1168 15.0819C16.3128 14.8019 16.5181 14.4939 16.7328 14.1579C16.9568 13.8126 17.1714 13.4719 17.3768 13.1359C17.5821 12.7906 17.7688 12.4732 17.9368 12.1839C18.1048 11.8852 18.2261 11.6519 18.3008 11.4839C17.8901 11.3346 17.4701 11.2179 17.0408 11.1339C16.6114 11.0406 16.2054 10.9799 15.8228 10.9519C15.7108 11.0732 15.5988 11.2879 15.4868 11.5959C15.3748 11.8946 15.2628 12.2399 15.1508 12.6319C15.0481 13.0146 14.9548 13.4066 14.8708 13.8079C14.7868 14.1999 14.7214 14.5452 14.6748 14.8439C14.6281 15.1426 14.6048 15.3479 14.6048 15.4599C14.6794 15.5906 14.8054 15.7166 14.9828 15.8379C15.1694 15.9592 15.3001 16.0199 15.3748 16.0199Z" fill="#131313"/>
</svg>
