<svg width="24" height="24" viewBox="0 0 24 24" fill="none" xmlns="http://www.w3.org/2000/svg">
<path d="M4.63873 17.1122C4.41473 17.1122 4.2374 17.0749 4.10673 17.0002L8.68473 7.98421C8.9834 7.40554 9.3054 7.11621 9.65073 7.11621C9.76273 7.11621 9.87473 7.14421 9.98673 7.20021L11.6667 15.8102C11.6947 15.9502 11.7087 16.0762 11.7087 16.1882C11.7087 16.4869 11.6247 16.7109 11.4567 16.8602C11.2887 17.0095 11.0554 17.0842 10.7567 17.0842L10.2107 14.2702H6.66873L5.59073 16.3982C5.46007 16.6502 5.32007 16.8322 5.17073 16.9442C5.0214 17.0562 4.84407 17.1122 4.63873 17.1122ZM10.0287 13.2342L9.28673 8.86621L7.17273 13.2342H10.0287ZM19.603 10.5602C19.3417 10.8869 19.1363 11.2415 18.987 11.6242C18.847 11.9975 18.735 12.4642 18.651 13.0242L18.161 16.1322C18.0023 17.1215 17.5963 17.9055 16.943 18.4842C16.2897 19.0629 15.4823 19.3522 14.521 19.3522C13.877 19.3522 13.289 19.2309 12.757 18.9882C12.225 18.7549 11.959 18.4422 11.959 18.0502C11.959 17.8729 12.0057 17.7142 12.099 17.5742C12.2017 17.4342 12.3463 17.3362 12.533 17.2802C12.729 17.6069 12.9997 17.8729 13.345 18.0782C13.6997 18.2929 14.0963 18.4002 14.535 18.4002C15.151 18.4002 15.6877 18.1949 16.145 17.7842C16.6117 17.3735 16.901 16.8135 17.013 16.1042L17.125 15.3902C16.8357 15.7822 16.509 16.0855 16.145 16.3002C15.781 16.5055 15.3517 16.6082 14.857 16.6082C14.129 16.6082 13.541 16.3702 13.093 15.8942C12.645 15.4182 12.421 14.7975 12.421 14.0322C12.421 13.2482 12.589 12.5249 12.925 11.8622C13.261 11.1995 13.723 10.6722 14.311 10.2802C14.9083 9.88821 15.585 9.69221 16.341 9.69221C16.621 9.69221 16.8777 9.71554 17.111 9.76221C17.3537 9.80888 17.643 9.87888 17.979 9.97221C18.3057 10.0655 18.581 10.1355 18.805 10.1822C19.0383 10.2289 19.2857 10.2522 19.547 10.2522L19.603 10.5602ZM17.489 12.9122C17.5637 12.4455 17.6337 12.0769 17.699 11.8062C17.7737 11.5262 17.8857 11.2555 18.035 10.9942C17.923 10.9755 17.8017 10.9475 17.671 10.9102C17.5497 10.8729 17.4563 10.8449 17.391 10.8262C17.195 10.7609 17.0223 10.7095 16.873 10.6722C16.7237 10.6349 16.551 10.6162 16.355 10.6162C15.7857 10.6162 15.291 10.7702 14.871 11.0782C14.451 11.3862 14.129 11.7969 13.905 12.3102C13.6903 12.8235 13.583 13.3835 13.583 13.9902C13.583 14.5409 13.7137 14.9609 13.975 15.2502C14.2457 15.5395 14.6283 15.6842 15.123 15.6842C15.7297 15.6842 16.2383 15.4695 16.649 15.0402C17.0597 14.6109 17.3257 13.9949 17.447 13.1922L17.489 12.9122Z" fill="#131313"/>
</svg>
