<svg width="24" height="24" viewBox="0 0 24 24" fill="none" xmlns="http://www.w3.org/2000/svg">
<path d="M3.86161 17.0002L5.63961 8.6422L7.38961 7.2002H11.9116L13.0456 8.6422L11.2676 17.0002H9.29361L9.90961 14.1162H6.45161L5.83561 17.0002H3.86161ZM4.69461 16.2932H5.35961L5.95461 13.4792H10.7006L10.1056 16.2932H10.7706L12.3316 8.9362L11.4496 7.8162H7.60661L6.25561 8.9362L4.69461 16.2932ZM6.87161 12.1422H10.3296L10.8686 9.6082L10.5326 9.1812H7.92861L7.41061 9.6082L6.87161 12.1422ZM6.09461 12.8142L6.85061 9.2442L7.78161 8.4812H10.9946L11.5966 9.2442L10.8406 12.8142H6.09461ZM12.8294 19.8002L13.2494 17.8262H17.1834L17.8694 17.2592L17.9534 16.8602L17.7854 17.0002H14.5164L13.3824 15.5582L14.3764 10.8822L16.1194 9.4402H20.0604L21.2014 10.8822L19.6054 18.3582L17.8624 19.8002H12.8294ZM13.6204 19.1632H17.5614L19.0804 17.8822L20.4944 11.2462L19.5704 10.0702H16.3224L14.9574 11.1972L14.1244 15.1522L15.0484 16.3352H17.7644L18.9614 15.3482L18.4924 17.5322L17.3444 18.4982H13.7604L13.6204 19.1632ZM15.5104 15.6702L14.8524 14.8442L15.5664 11.5052L16.4974 10.7352H19.1154L19.7664 11.5472L19.1364 14.5152L17.7224 15.6702H15.5104ZM15.9024 15.0192H17.6454L18.4924 14.3192L19.0174 11.8412L18.6744 11.4142H16.6654L16.1474 11.8412L15.5664 14.5922L15.9024 15.0192Z" fill="#131313"/>
</svg>
