<svg width="24" height="24" viewBox="0 0 24 24" fill="none" xmlns="http://www.w3.org/2000/svg">
<path d="M4.63866 16.6582C4.45637 16.6582 4.31965 16.6992 4.22851 16.7812C4.14647 16.8542 4.08723 16.9499 4.05077 17.0684C3.9414 17.041 3.81379 17.0365 3.66796 17.0547C3.53124 17.0729 3.38996 17.0911 3.24413 17.1094C3.10741 17.1276 2.97069 17.1367 2.83397 17.1367C2.70637 17.1458 2.597 17.123 2.50585 17.0684C2.46028 17.041 2.42382 17.0046 2.39647 16.959C2.36913 16.9043 2.33723 16.8542 2.30077 16.8086C2.26431 16.7539 2.22785 16.7038 2.1914 16.6582C2.14582 16.6126 2.11848 16.5671 2.10937 16.5215C2.09114 16.4668 2.10481 16.3893 2.15038 16.2891C2.19595 16.1797 2.23697 16.1022 2.27343 16.0566C2.30989 16.0293 2.3509 16.0065 2.39647 15.9883C2.45116 15.9701 2.50129 15.9427 2.54687 15.9062C2.67447 15.806 2.76561 15.6829 2.8203 15.5371C2.8841 15.3822 2.93879 15.2591 2.98437 15.168C3.04817 15.1224 3.12108 15.0768 3.20311 15.0312C3.29426 14.9766 3.33072 14.9082 3.31249 14.8262C3.23046 14.7806 3.13476 14.7624 3.02538 14.7715C2.91601 14.7715 2.80663 14.7669 2.69726 14.7578C2.51496 14.7578 2.33267 14.7441 2.15038 14.7168C1.96809 14.6895 1.80403 14.6667 1.65819 14.6484C1.42121 14.6029 1.21614 14.4935 1.04296 14.3203C0.860671 14.1471 0.783197 13.9284 0.810541 13.6641C0.874343 13.6367 0.94726 13.623 1.02929 13.623C1.1022 13.623 1.18423 13.6276 1.27538 13.6367C1.35741 13.6458 1.444 13.6549 1.53515 13.6641C1.61718 13.6641 1.69465 13.6504 1.76757 13.623C1.8496 13.6777 1.92707 13.7051 1.99999 13.7051C2.06379 13.7051 2.12759 13.6914 2.1914 13.6641C2.24608 13.6367 2.30077 13.6094 2.35546 13.582C2.41015 13.5456 2.46028 13.5228 2.50585 13.5137C2.55142 13.5046 2.59244 13.5046 2.6289 13.5137C2.66535 13.5228 2.70637 13.5273 2.75194 13.5273C2.82486 13.5273 2.89778 13.5182 2.97069 13.5C3.04361 13.4727 3.1302 13.4499 3.23046 13.4316C3.36718 13.4134 3.50845 13.4043 3.65429 13.4043C3.80012 13.3952 3.92317 13.3678 4.02343 13.3223C4.08723 13.2949 4.16015 13.2493 4.24218 13.1855C4.32421 13.1126 4.38345 13.0488 4.41991 12.9941C4.43814 12.9486 4.4427 12.9076 4.43358 12.8711C4.43358 12.8255 4.4427 12.7799 4.46093 12.7344C4.5065 12.5794 4.58397 12.4427 4.69335 12.3242C4.81184 12.2057 4.90754 12.0736 4.98046 11.9277C5.0078 11.8548 5.02603 11.8001 5.03515 11.7637C5.05338 11.7272 5.06705 11.6953 5.07616 11.668C5.08528 11.6406 5.09439 11.6087 5.10351 11.5723C5.12173 11.5358 5.15364 11.4811 5.19921 11.4082C5.28124 11.2806 5.36327 11.1576 5.4453 11.0391C5.53645 10.9206 5.64127 10.8066 5.75976 10.6973C5.75976 10.6426 5.76887 10.597 5.7871 10.5605C5.80533 10.515 5.82356 10.4694 5.84179 10.4238C6.08788 10.3236 6.2884 10.1914 6.44335 10.0273C6.5983 9.86328 6.75325 9.69009 6.90819 9.5078C6.89908 9.41666 6.91731 9.35286 6.96288 9.31641C7.00845 9.27083 7.03124 9.20247 7.03124 9.11133C7.03124 9.06576 7.01301 9.01562 6.97655 8.96094C6.94921 8.89714 6.93554 8.83333 6.93554 8.76953C6.93554 8.69661 6.96288 8.6237 7.01757 8.55078C7.08137 8.46875 7.13606 8.39583 7.18163 8.33203C7.25455 8.25911 7.30923 8.1862 7.34569 8.11328C7.39127 8.04036 7.43684 7.97201 7.48241 7.9082C7.55533 7.82616 7.62825 7.75326 7.70116 7.68945C7.78319 7.62565 7.86067 7.54818 7.93358 7.45703C7.97004 7.40234 7.99739 7.3431 8.01561 7.2793C8.04296 7.20638 8.08397 7.15169 8.13866 7.11523C8.22069 7.06055 8.33463 7.02865 8.48046 7.01953C8.62629 7.01042 8.77213 7.0013 8.91796 6.99219C9.09114 6.98307 9.27798 6.96484 9.47851 6.9375C9.68814 6.90104 9.89322 6.86458 10.0938 6.82812C10.3034 6.79167 10.5039 6.75977 10.6953 6.73242C10.8958 6.69596 11.0781 6.67318 11.2422 6.66406C11.4062 6.64583 11.5612 6.64128 11.707 6.65039C11.862 6.65951 11.985 6.64582 12.0762 6.60938C12.2038 6.71875 12.3314 6.82812 12.459 6.9375C12.5957 7.03776 12.7233 7.14714 12.8418 7.26562C12.8783 7.44792 12.9102 7.61654 12.9375 7.77148C12.9648 7.92643 12.9694 8.08138 12.9512 8.23633C12.9329 8.30924 12.901 8.3776 12.8555 8.44141C12.819 8.50521 12.8053 8.57812 12.8145 8.66016C12.8145 8.79688 12.8555 8.93358 12.9375 9.0703C13.0195 9.19791 13.0788 9.33918 13.1152 9.49413C13.1243 9.56705 13.1107 9.63996 13.0742 9.71288C13.0469 9.77668 13.0286 9.84504 13.0195 9.91796C13.0104 9.99089 13.015 10.0729 13.0332 10.1641C13.0514 10.2461 13.0697 10.3327 13.0879 10.4238C13.0879 10.5332 13.0833 10.6426 13.0742 10.752C13.0651 10.8613 13.0697 10.9753 13.0879 11.0938C13.1061 11.2122 13.1289 11.3353 13.1562 11.4629C13.1836 11.5814 13.1927 11.7044 13.1836 11.832C13.1654 11.9596 13.138 12.0781 13.1016 12.1875C13.0742 12.2969 13.0605 12.4108 13.0605 12.5293C13.0514 12.6934 13.0605 12.8529 13.0879 13.0078C13.1152 13.1536 13.1061 13.304 13.0605 13.459C13.1335 13.5501 13.1699 13.6413 13.1699 13.7324C13.179 13.8236 13.1745 13.9147 13.1562 14.0059C13.138 14.097 13.1198 14.1927 13.1016 14.293C13.0833 14.3841 13.0924 14.4798 13.1289 14.5801C13.1471 14.6439 13.1836 14.7031 13.2383 14.7578C13.293 14.8034 13.3294 14.8626 13.3477 14.9355C13.375 15.0267 13.3887 15.1406 13.3887 15.2773C13.3978 15.4049 13.4023 15.528 13.4023 15.6465C13.4115 15.9382 13.3841 16.1979 13.3203 16.4258C13.2656 16.6536 13.2337 16.8997 13.2246 17.1641C13.2246 17.2826 13.2201 17.4147 13.2109 17.5605C13.2109 17.7064 13.1882 17.8203 13.1426 17.9023C13.097 17.957 13.0241 18.0117 12.9238 18.0664C12.8236 18.1302 12.737 18.1667 12.6641 18.1758C12.5273 18.1849 12.3678 18.1484 12.1855 18.0664C12.0124 17.9844 11.8802 17.8978 11.7891 17.8066C11.707 17.7155 11.6296 17.6152 11.5566 17.5059C11.4928 17.3965 11.4245 17.2826 11.3516 17.1641C11.2878 17.0456 11.2194 16.9362 11.1465 16.8359C11.0736 16.7266 10.9915 16.6354 10.9004 16.5625C10.8548 16.5352 10.8047 16.5078 10.75 16.4805C10.6953 16.4531 10.6543 16.4212 10.627 16.3848C10.5723 16.2936 10.5404 16.1934 10.5312 16.084C10.5312 15.9655 10.5358 15.847 10.5449 15.7285C10.5632 15.6009 10.5768 15.4779 10.5859 15.3594C10.6042 15.2409 10.5996 15.1361 10.5723 15.0449C10.5449 14.9538 10.5085 14.8854 10.4629 14.8398C10.4173 14.7852 10.3581 14.7487 10.2852 14.7305C10.2214 14.7031 10.1439 14.6895 10.0527 14.6895C9.97069 14.6803 9.87043 14.6712 9.75194 14.6621C9.32356 14.6348 8.8815 14.6074 8.42577 14.5801C7.97004 14.5527 7.5052 14.5436 7.03124 14.5527C6.93098 14.5527 6.85806 14.5573 6.81249 14.5664C6.76692 14.5755 6.7259 14.5846 6.68944 14.5938C6.65298 14.5938 6.61653 14.5983 6.58007 14.6074C6.54361 14.6165 6.48437 14.6211 6.40233 14.6211C6.22004 14.6302 6.05598 14.6439 5.91015 14.6621C5.76431 14.6712 5.63671 14.7168 5.52733 14.7988C5.46353 14.8444 5.39517 14.9355 5.32226 15.0723C5.24934 15.209 5.19465 15.3138 5.15819 15.3867C5.11262 15.4961 5.0716 15.61 5.03515 15.7285C5.0078 15.847 4.9759 15.9655 4.93944 16.084C4.9121 16.1934 4.87564 16.2982 4.83007 16.3984C4.7845 16.4987 4.72069 16.5853 4.63866 16.6582ZM8.11132 13.0488C8.42121 13.0397 8.71744 13.0352 8.99999 13.0352C9.29166 13.026 9.56509 13.0124 9.8203 12.9941C9.85676 12.9759 9.88866 12.9622 9.91601 12.9531C9.95247 12.944 10.0072 12.9486 10.0801 12.9668C10.0801 12.9212 10.1029 12.8984 10.1484 12.8984C10.194 12.8893 10.2305 12.8757 10.2578 12.8574C10.2943 12.7936 10.3125 12.7435 10.3125 12.707C10.3125 12.6615 10.3034 12.625 10.2852 12.5977C10.276 12.5612 10.2578 12.5247 10.2305 12.4883C10.2122 12.4427 10.2031 12.3835 10.2031 12.3105C10.2031 12.2376 10.2122 12.1647 10.2305 12.0918C10.2578 12.0098 10.276 11.9277 10.2852 11.8457C10.2943 11.7819 10.2852 11.7135 10.2578 11.6406C10.2396 11.5677 10.235 11.4948 10.2441 11.4219C10.2533 11.3581 10.2806 11.3034 10.3262 11.2578C10.3717 11.2031 10.3945 11.1439 10.3945 11.0801C10.3945 11.0436 10.3854 11.0026 10.3672 10.957C10.3581 10.9115 10.349 10.8659 10.3398 10.8203C10.3307 10.7565 10.3262 10.6927 10.3262 10.6289C10.3353 10.5651 10.3307 10.5104 10.3125 10.4648C10.2943 10.3919 10.2487 10.3236 10.1758 10.2598C10.1029 10.196 10.0573 10.1276 10.0391 10.0547C10.0117 9.96354 10.0072 9.86328 10.0254 9.75391C10.0527 9.63542 10.0664 9.52148 10.0664 9.41211C10.0573 9.25716 10.0436 9.11589 10.0254 8.98828C10.0072 8.86068 9.96158 8.73306 9.88866 8.60546C9.7884 8.55077 9.71093 8.53255 9.65624 8.55078C9.61067 8.5599 9.56965 8.59179 9.53319 8.64647C9.50585 8.69205 9.47851 8.74673 9.45116 8.81054C9.43293 8.87435 9.39647 8.92904 9.34179 8.97461C9.09569 9.19336 8.90429 9.41667 8.76757 9.64453C8.63085 9.86328 8.46223 10.1048 8.26171 10.3691C8.17968 10.4694 8.09309 10.5697 8.00194 10.6699C7.91991 10.7702 7.84244 10.8796 7.76952 10.998C7.70572 11.1165 7.65559 11.2396 7.61913 11.3672C7.58267 11.4948 7.57356 11.6361 7.59179 11.791C7.54621 11.8639 7.5052 11.9186 7.46874 11.9551C7.4414 11.9824 7.4095 12.0098 7.37304 12.0371C7.33658 12.0645 7.29556 12.0964 7.24999 12.1328C7.21353 12.1693 7.16796 12.2194 7.11327 12.2832C7.01301 12.4108 6.90364 12.543 6.78515 12.6797C6.66666 12.8073 6.58918 12.9486 6.55272 13.1035C6.71679 13.1491 6.85806 13.1719 6.97655 13.1719C7.09504 13.1719 7.20897 13.1673 7.31835 13.1582C7.43684 13.14 7.55533 13.1217 7.67382 13.1035C7.80142 13.0762 7.94726 13.0579 8.11132 13.0488ZM22.2891 9.87695C22.2708 9.9681 22.2389 10.0456 22.1934 10.1094C22.1569 10.1732 22.1159 10.2415 22.0703 10.3145C21.9062 10.3509 21.7513 10.4238 21.6055 10.5332C21.4688 10.6335 21.3092 10.6927 21.127 10.7109C21.0905 10.7109 21.054 10.7064 21.0176 10.6973C20.9902 10.679 20.9583 10.6699 20.9219 10.6699C20.8125 10.6608 20.6895 10.6654 20.5527 10.6836C20.4251 10.7018 20.2975 10.7201 20.1699 10.7383C19.9967 10.7565 19.8509 10.7975 19.7324 10.8613C19.6139 10.9251 19.4772 10.9753 19.3223 11.0117C18.9668 11.1029 18.6478 11.235 18.3652 11.4082C18.0918 11.5723 17.8776 11.8001 17.7227 12.0918C17.6497 12.2285 17.5723 12.388 17.4902 12.5703C17.4173 12.7435 17.3079 12.8848 17.1621 12.9941C17.2077 13.0944 17.2214 13.1855 17.2031 13.2676C17.194 13.3496 17.1712 13.4271 17.1348 13.5C17.1074 13.5638 17.071 13.6322 17.0254 13.7051C16.9889 13.7689 16.9616 13.8327 16.9434 13.8965C16.9251 13.9329 16.916 13.974 16.916 14.0195C16.9251 14.0651 16.9251 14.1107 16.916 14.1562C16.8704 14.4479 16.8887 14.7214 16.9707 14.9766C17.0527 15.2227 17.2077 15.3958 17.4355 15.4961C17.5814 15.569 17.7227 15.61 17.8594 15.6191C17.9961 15.6283 18.1647 15.6237 18.3652 15.6055C18.5749 15.5872 18.8027 15.5736 19.0488 15.5645C19.2949 15.5553 19.4863 15.5007 19.623 15.4004C19.696 15.3457 19.7507 15.2728 19.7871 15.1816C19.8236 15.0905 19.8783 14.9993 19.9512 14.9082C20.0241 14.8079 20.0833 14.6895 20.1289 14.5527C20.1745 14.4069 20.1927 14.2747 20.1836 14.1562C20.1745 14.0924 20.1289 14.0286 20.0469 13.9648C19.974 13.901 19.9102 13.86 19.8555 13.8418C19.7917 13.8145 19.7233 13.8008 19.6504 13.8008C19.5866 13.7917 19.5228 13.7826 19.459 13.7734C19.4043 13.7552 19.3542 13.7324 19.3086 13.7051C19.2721 13.6777 19.2539 13.6276 19.2539 13.5547C19.2539 13.4635 19.3132 13.3997 19.4316 13.3633C19.5592 13.3177 19.7096 13.2904 19.8828 13.2812C20.056 13.263 20.2337 13.2539 20.416 13.2539C20.6074 13.2539 20.7578 13.2448 20.8672 13.2266C21.0039 13.1992 21.1452 13.14 21.291 13.0488C21.446 12.9577 21.6009 12.9167 21.7559 12.9258C21.847 12.9258 21.9154 12.9303 21.9609 12.9395C22.0065 12.9486 22.043 12.9622 22.0703 12.9805C22.0977 12.9987 22.1204 13.026 22.1387 13.0625C22.166 13.0898 22.1934 13.1263 22.2207 13.1719C22.2754 13.3724 22.2845 13.5547 22.248 13.7188C22.2116 13.8737 22.1569 14.0286 22.084 14.1836C22.0566 14.2656 22.0384 14.3522 22.0293 14.4434C22.0293 14.5254 22.0202 14.6029 22.002 14.6758C21.9837 14.7487 21.9427 14.8262 21.8789 14.9082C21.8242 14.9902 21.7695 15.0814 21.7148 15.1816C21.6693 15.2819 21.6283 15.3867 21.5918 15.4961C21.5645 15.6055 21.528 15.7103 21.4824 15.8105C21.4642 15.8379 21.4414 15.8652 21.4141 15.8926C21.3958 15.9108 21.3776 15.9382 21.3594 15.9746C21.3138 16.0749 21.2865 16.1751 21.2773 16.2754C21.2682 16.3665 21.2454 16.4486 21.209 16.5215C21.1543 16.6947 21.0677 16.8451 20.9492 16.9727C20.8398 17.1003 20.7441 17.2279 20.6621 17.3555C20.5983 17.3737 20.5391 17.3828 20.4844 17.3828C20.4297 17.3919 20.3796 17.401 20.334 17.4102C20.2884 17.4284 20.2611 17.4147 20.252 17.3691C20.252 17.3236 20.2337 17.2917 20.1973 17.2734C20.097 17.3464 19.9831 17.4238 19.8555 17.5059C19.737 17.5879 19.6003 17.6016 19.4453 17.5469C19.4271 17.4466 19.4316 17.3555 19.459 17.2734C19.4863 17.2005 19.5182 17.1276 19.5547 17.0547C19.6003 16.9909 19.6458 16.9271 19.6914 16.8633C19.737 16.7995 19.7689 16.7266 19.7871 16.6445C19.6595 16.6628 19.5365 16.7174 19.418 16.8086C19.2995 16.8997 19.1719 16.9681 19.0352 17.0137C18.9896 17.0319 18.9349 17.0319 18.8711 17.0137C18.8164 17.0046 18.7572 17.0091 18.6934 17.0273C18.4655 17.0638 18.2148 17.1185 17.9414 17.1914C17.668 17.2643 17.4219 17.278 17.2031 17.2324C17.1484 17.2233 17.1029 17.2005 17.0664 17.1641C17.0391 17.1367 17.0026 17.1094 16.957 17.082C16.8568 17.0273 16.7428 16.9909 16.6152 16.9727C16.4876 16.9544 16.3737 16.9271 16.2734 16.8906C16.1003 16.8359 15.959 16.7493 15.8496 16.6309C15.7402 16.5033 15.6354 16.3939 15.5352 16.3027C15.526 16.2298 15.4987 16.166 15.4531 16.1113C15.4076 16.0475 15.3529 15.9928 15.2891 15.9473C15.2344 15.8926 15.1797 15.8424 15.125 15.7969C15.0703 15.7422 15.0293 15.6829 15.002 15.6191C14.9746 15.5462 14.9564 15.4642 14.9473 15.373C14.9473 15.2819 14.9336 15.1908 14.9062 15.0996C14.8698 14.9538 14.8288 14.8262 14.7832 14.7168C14.7467 14.5983 14.7148 14.4844 14.6875 14.375C14.6693 14.2565 14.6602 14.1335 14.6602 14.0059C14.6602 13.8783 14.6829 13.7324 14.7285 13.5684C14.7832 13.4134 14.847 13.2493 14.9199 13.0762C14.9928 12.903 15.0612 12.7435 15.125 12.5977C15.2344 12.3698 15.3711 12.1328 15.5352 11.8867C15.6354 11.7409 15.7311 11.6178 15.8223 11.5176C15.9134 11.4082 16.0091 11.2988 16.1094 11.1895C16.2734 10.998 16.4876 10.8203 16.752 10.6562C17.0254 10.4831 17.2897 10.3327 17.5449 10.2051C17.7637 10.1048 18.0098 10.0046 18.2832 9.90429C18.5658 9.80403 18.862 9.74478 19.1719 9.72655C19.4453 9.69921 19.7142 9.71289 19.9785 9.76758C20.2428 9.82227 20.5072 9.85872 20.7715 9.87695C20.9264 9.88607 21.0951 9.89517 21.2773 9.90429C21.4596 9.90429 21.6283 9.88607 21.7832 9.84961C21.8288 9.84049 21.8743 9.83138 21.9199 9.82227C21.9655 9.80404 22.0065 9.79036 22.043 9.78125C22.0885 9.77214 22.1296 9.77669 22.166 9.79492C22.2116 9.80404 22.2526 9.83138 22.2891 9.87695Z" fill="#131313"/>
</svg>
