<svg width="24" height="24" viewBox="0 0 24 24" fill="none" xmlns="http://www.w3.org/2000/svg">
<path d="M10.7295 17L10.415 14.9629H6.83301L5.65723 17H3.80469L9.88867 6.84863H10.5244L12.582 17H10.7295ZM9.64941 9.89062L7.5918 13.6299H10.2168L9.64941 9.89062ZM19.8555 10.9502C19.9557 11.1781 20.0059 11.4515 20.0059 11.7705C20.0059 12.4814 19.8509 13.0967 19.541 13.6162C19.2357 14.1357 18.7298 14.5573 18.0234 14.8809C17.3171 15.2044 16.9297 15.4232 16.8613 15.5371C17.1712 15.4779 17.4128 15.4482 17.5859 15.4482C18.0964 15.4482 18.5316 15.6055 18.8916 15.9199C19.2516 16.2298 19.4316 16.6263 19.4316 17.1094C19.4316 17.9935 19.1195 18.6748 18.4951 19.1533C17.8753 19.6318 16.9753 19.8711 15.7949 19.8711C15.3529 19.8711 14.8675 19.7845 14.3389 19.6113C13.8148 19.4382 13.3864 19.224 13.0537 18.9688L13.7988 17.6768C14.4505 18.1416 15.1273 18.374 15.8291 18.374C17.096 18.374 17.7295 18.0322 17.7295 17.3486C17.7295 17.2028 17.6634 17.082 17.5312 16.9863C17.4036 16.8906 17.2077 16.8177 16.9434 16.7676L15.6377 16.5352C15.1501 16.3848 14.9062 16.1022 14.9062 15.6875C14.9062 15.446 15.1068 15.2021 15.5078 14.9561C15.0156 14.8148 14.6123 14.5505 14.2979 14.1631C13.988 13.7712 13.833 13.3359 13.833 12.8574C13.833 11.873 14.1589 11.0755 14.8105 10.4648C15.4622 9.84961 16.2985 9.54199 17.3193 9.54199C17.9482 9.54199 18.4792 9.67643 18.9121 9.94531L19.5547 9.24805L20.5596 10.2461L19.8555 10.9502ZM15.5693 12.707C15.5693 13.0716 15.6514 13.3701 15.8154 13.6025C15.9795 13.835 16.2051 13.9512 16.4922 13.9512C16.9935 13.9512 17.4082 13.7529 17.7363 13.3564C18.0645 12.9554 18.2285 12.4701 18.2285 11.9004C18.2285 11.2578 17.8936 10.9365 17.2236 10.9365C16.7178 10.9365 16.3145 11.1029 16.0137 11.4355C15.7174 11.7637 15.5693 12.1875 15.5693 12.707Z" fill="#131313"/>
</svg>
