<svg width="24" height="24" viewBox="0 0 24 24" fill="none" xmlns="http://www.w3.org/2000/svg">
<path d="M11.4795 17.0002H10.6465L9.87653 14.2702H6.04053L5.27053 17.0002H4.43753L7.24453 7.2002H8.67253L11.4795 17.0002ZM7.85353 7.8512L6.19453 13.6192H9.72253L8.06353 7.8512H7.85353ZM17.12 19.9472C16.6487 19.9472 16.2403 19.8795 15.895 19.7442C15.5497 19.6135 15.2627 19.4362 15.034 19.2122C14.8053 18.9929 14.635 18.7502 14.523 18.4842C14.4157 18.2182 14.362 17.9545 14.362 17.6932H15.132C15.132 17.8145 15.1647 17.9639 15.23 18.1412C15.2953 18.3185 15.4027 18.4935 15.552 18.6662C15.706 18.8435 15.9113 18.9905 16.168 19.1072C16.4247 19.2239 16.7443 19.2822 17.127 19.2822C17.6357 19.2822 18.051 19.1585 18.373 18.9112C18.695 18.6685 18.933 18.3442 19.087 17.9382C19.2457 17.5369 19.325 17.0959 19.325 16.6152V11.5402L19.346 10.0002H20.095V16.4682C20.095 16.8929 20.0507 17.2849 19.962 17.6442C19.878 18.0082 19.7543 18.3325 19.591 18.6172C19.4277 18.9019 19.2247 19.1422 18.982 19.3382C18.744 19.5389 18.4687 19.6905 18.156 19.7932C17.8433 19.8959 17.498 19.9472 17.12 19.9472ZM17.057 17.1542C16.707 17.1542 16.3593 17.0842 16.014 16.9442C15.6733 16.7995 15.363 16.5779 15.083 16.2792C14.803 15.9805 14.5767 15.6002 14.404 15.1382C14.236 14.6715 14.152 14.1209 14.152 13.4862C14.152 12.6369 14.292 11.9439 14.572 11.4072C14.852 10.8705 15.209 10.4762 15.643 10.2242C16.077 9.9722 16.525 9.8462 16.987 9.8462C17.4117 9.8462 17.7943 9.9302 18.135 10.0982C18.4757 10.2615 18.7673 10.4785 19.01 10.7492C19.2527 11.0199 19.437 11.3185 19.563 11.6452C19.6937 11.9719 19.759 12.2985 19.759 12.6252L19.381 12.7372C19.3343 12.4665 19.2527 12.2005 19.136 11.9392C19.0193 11.6779 18.8677 11.4399 18.681 11.2252C18.4943 11.0105 18.275 10.8402 18.023 10.7142C17.7757 10.5882 17.4933 10.5252 17.176 10.5252C16.784 10.5252 16.4153 10.6255 16.07 10.8262C15.7293 11.0269 15.4517 11.3442 15.237 11.7782C15.027 12.2075 14.922 12.7769 14.922 13.4862C14.922 14.1815 15.0317 14.7509 15.251 15.1942C15.475 15.6329 15.762 15.9572 16.112 16.1672C16.4667 16.3725 16.84 16.4752 17.232 16.4752C17.5447 16.4752 17.8247 16.4075 18.072 16.2722C18.324 16.1322 18.5387 15.9479 18.716 15.7192C18.898 15.4905 19.045 15.2362 19.157 14.9562C19.269 14.6715 19.3413 14.3845 19.374 14.0952L19.766 14.2142C19.766 14.5549 19.7053 14.9002 19.584 15.2502C19.4627 15.5955 19.2853 15.9129 19.052 16.2022C18.8187 16.4869 18.534 16.7179 18.198 16.8952C17.8667 17.0679 17.4863 17.1542 17.057 17.1542Z" fill="#131313"/>
</svg>
