<svg width="24" height="24" viewBox="0 0 24 24" fill="none" xmlns="http://www.w3.org/2000/svg">
<path d="M11.6895 17.0002H10.2545L9.62453 14.5222H6.29253L5.66253 17.0002H4.22753L6.80353 7.2002H9.11353L11.6895 17.0002ZM7.86753 8.2642L6.51653 13.4582H9.40053L8.04953 8.2642H7.86753ZM17.043 19.9682C16.5763 19.9682 16.1587 19.9052 15.79 19.7792C15.4213 19.6579 15.104 19.4875 14.838 19.2682C14.5767 19.0489 14.376 18.7969 14.236 18.5122C14.1007 18.2322 14.033 17.9359 14.033 17.6232H15.419C15.419 17.7305 15.447 17.8542 15.503 17.9942C15.5637 18.1389 15.6593 18.2789 15.79 18.4142C15.9207 18.5495 16.091 18.6615 16.301 18.7502C16.511 18.8389 16.7677 18.8832 17.071 18.8832C17.4723 18.8832 17.8083 18.7875 18.079 18.5962C18.3497 18.4049 18.5527 18.1389 18.688 17.7982C18.828 17.4575 18.898 17.0655 18.898 16.6222V11.4772L18.961 10.0002H20.284V16.5172C20.284 16.9605 20.2327 17.3619 20.13 17.7212C20.032 18.0852 19.8873 18.4072 19.696 18.6872C19.5093 18.9672 19.283 19.2029 19.017 19.3942C18.751 19.5855 18.4523 19.7279 18.121 19.8212C17.7897 19.9192 17.4303 19.9682 17.043 19.9682ZM16.784 17.1542C16.4153 17.1542 16.0537 17.0819 15.699 16.9372C15.349 16.7925 15.0317 16.5709 14.747 16.2722C14.4623 15.9689 14.2337 15.5862 14.061 15.1242C13.893 14.6622 13.809 14.1162 13.809 13.4862C13.809 12.6462 13.949 11.9579 14.229 11.4212C14.509 10.8799 14.8707 10.4832 15.314 10.2312C15.7573 9.97453 16.224 9.8462 16.714 9.8462C17.1527 9.8462 17.5423 9.93253 17.883 10.1052C18.2283 10.2779 18.52 10.5042 18.758 10.7842C19.0007 11.0595 19.1827 11.3582 19.304 11.6802C19.43 12.0022 19.493 12.3125 19.493 12.6112L18.968 12.8002C18.9213 12.5715 18.8467 12.3499 18.744 12.1352C18.646 11.9159 18.5177 11.7175 18.359 11.5402C18.2003 11.3629 18.016 11.2229 17.806 11.1202C17.596 11.0129 17.3603 10.9592 17.099 10.9592C16.7537 10.9592 16.4363 11.0502 16.147 11.2322C15.8577 11.4095 15.6267 11.6849 15.454 12.0582C15.2813 12.4269 15.195 12.9029 15.195 13.4862C15.195 14.0602 15.2837 14.5362 15.461 14.9142C15.643 15.2922 15.881 15.5745 16.175 15.7612C16.4737 15.9479 16.798 16.0412 17.148 16.0412C17.4047 16.0412 17.638 15.9852 17.848 15.8732C18.0627 15.7565 18.247 15.6025 18.401 15.4112C18.555 15.2199 18.6787 15.0052 18.772 14.7672C18.8653 14.5292 18.9237 14.2842 18.947 14.0322L19.514 14.2212C19.514 14.5292 19.4533 14.8559 19.332 15.2012C19.2107 15.5419 19.0333 15.8615 18.8 16.1602C18.5667 16.4542 18.282 16.6945 17.946 16.8812C17.61 17.0632 17.2227 17.1542 16.784 17.1542Z" fill="#131313"/>
</svg>
