<svg width="24" height="24" viewBox="0 0 24 24" fill="none" xmlns="http://www.w3.org/2000/svg">
<path d="M2.10742 17V16.0225H3.33789L6.94043 6.71191H8.56055L12.2178 16.0225H13.3662V17H8.94336V16.0225H10.4678L9.51758 13.5547H5.56641L4.6709 16.0225H6.39355V17H2.10742ZM5.8877 12.6865H9.17578L7.4873 8.05176L5.8877 12.6865ZM16.5244 20.6572C15.54 20.6572 14.8132 20.4202 14.3438 19.9463C14.0885 19.6911 13.9609 19.3812 13.9609 19.0166C13.9609 18.6794 14.068 18.4173 14.2822 18.2305C14.501 18.0436 14.7767 17.9502 15.1094 17.9502C15.278 17.9502 15.4329 17.9912 15.5742 18.0732C15.7155 18.1553 15.8271 18.2692 15.9092 18.415C15.9912 18.5609 16.0322 18.7249 16.0322 18.9072C16.0322 19.0804 15.9707 19.2559 15.8477 19.4336C15.7292 19.6159 15.5993 19.7344 15.458 19.7891C15.7451 19.8893 16.0254 19.9395 16.2988 19.9395C17.0007 19.9395 17.5293 19.6706 17.8848 19.1328C18.2448 18.5951 18.4248 17.8317 18.4248 16.8428V15.626C18.3245 15.9176 18.1673 16.182 17.9531 16.4189C17.7435 16.6559 17.4928 16.8428 17.2012 16.9795C16.9141 17.1162 16.6087 17.1846 16.2852 17.1846C15.9069 17.1846 15.5537 17.1162 15.2256 16.9795C14.8975 16.8382 14.6172 16.6423 14.3848 16.3916C14.1523 16.1501 13.9541 15.8675 13.79 15.5439C13.6305 15.2204 13.512 14.8717 13.4346 14.498C13.3571 14.1198 13.3184 13.7415 13.3184 13.3633C13.3184 12.8665 13.3822 12.3903 13.5098 11.9346C13.6374 11.4743 13.8242 11.0596 14.0703 10.6904C14.321 10.3122 14.6423 10.0137 15.0342 9.79492C15.4261 9.57617 15.8568 9.4668 16.3262 9.4668C16.6042 9.4668 16.8867 9.5306 17.1738 9.6582C17.4655 9.78125 17.723 9.95671 17.9463 10.1846C18.1696 10.4124 18.3291 10.6768 18.4248 10.9775L18.5957 9.66504H20.8789V10.4785H19.8945V16.6514C19.8945 17.54 19.735 18.3057 19.416 18.9482C19.2383 19.3037 19.0195 19.6045 18.7598 19.8506C18.5046 20.0967 18.1901 20.2904 17.8164 20.4316C17.4245 20.582 16.9938 20.6572 16.5244 20.6572ZM16.5791 16.3164C16.971 16.3164 17.3151 16.1797 17.6113 15.9062C17.9121 15.6328 18.1331 15.2796 18.2744 14.8467C18.4066 14.4229 18.4727 13.974 18.4727 13.5C18.4727 12.8848 18.3952 12.3424 18.2402 11.873C18.0853 11.3991 17.8665 11.0322 17.584 10.7725C17.3014 10.5081 16.9756 10.376 16.6064 10.376C16.2464 10.376 15.9251 10.5127 15.6426 10.7861C15.36 11.055 15.1504 11.4082 15.0137 11.8457C14.8815 12.2786 14.8154 12.7412 14.8154 13.2334C14.8154 14.0446 14.943 14.7419 15.1982 15.3252C15.335 15.6351 15.5218 15.8789 15.7588 16.0566C15.9958 16.2298 16.2692 16.3164 16.5791 16.3164Z" fill="#131313"/>
</svg>
