<svg width="24" height="24" viewBox="0 0 24 24" fill="none" xmlns="http://www.w3.org/2000/svg">
<path d="M11.2916 17.0836C11.1983 16.5796 11.0956 16.0616 10.9836 15.5296C10.8716 14.9883 10.7596 14.4423 10.6476 13.8916C10.5356 13.3316 10.419 12.7716 10.2976 12.2116C10.223 11.8569 10.1483 11.5023 10.0736 11.1476C9.99895 10.7836 9.92428 10.4289 9.84962 10.0836C9.78428 9.72888 9.71895 9.37889 9.65362 9.03356C9.58828 8.68823 9.52295 8.34755 9.45762 8.01155L8.77162 7.17155L10.2836 7.14355C10.3303 7.43288 10.3863 7.75955 10.4516 8.12355C10.5263 8.48755 10.601 8.88422 10.6756 9.31355C10.7596 9.73355 10.8483 10.1723 10.9416 10.6296C11.035 11.0776 11.1283 11.5349 11.2216 12.0016C11.3523 12.6176 11.483 13.2289 11.6136 13.8356C11.7536 14.4423 11.8843 15.0163 12.0056 15.5576C12.1363 16.0989 12.253 16.5843 12.3556 17.0136L11.2916 17.0836ZM7.66562 14.7456V13.7796L11.2496 13.8496V14.6336L7.66562 14.7456ZM7.66562 16.9296L6.68562 16.9156C6.78828 16.5049 6.89562 16.0336 7.00762 15.5016C7.12895 14.9696 7.25495 14.4049 7.38562 13.8076C7.51628 13.2009 7.64695 12.5943 7.77762 11.9876C7.91762 11.3716 8.04828 10.7696 8.16962 10.1816C8.29095 9.59355 8.40295 9.04288 8.50562 8.52955C8.60828 8.00688 8.69695 7.55422 8.77162 7.17155L10.2836 7.14355L9.54162 8.09555C9.44828 8.51555 9.35028 8.94955 9.24762 9.39755C9.15428 9.84555 9.05628 10.2983 8.95362 10.7556C8.86028 11.2036 8.76695 11.6563 8.67362 12.1136C8.56162 12.6736 8.44495 13.2289 8.32361 13.7796C8.21162 14.3303 8.09962 14.8716 7.98762 15.4036C7.88495 15.9263 7.77762 16.4349 7.66562 16.9296ZM15.5451 19.3236C15.1998 19.3236 14.9011 19.2676 14.6491 19.1556C14.4064 19.0529 14.2198 18.9036 14.0891 18.7076C13.9584 18.5209 13.8931 18.3016 13.8931 18.0496C13.8931 18.0029 13.8931 17.9609 13.8931 17.9236C13.8931 17.8863 13.8978 17.8489 13.9071 17.8116L14.6771 17.6856C14.6678 17.7136 14.6584 17.7416 14.6491 17.7696C14.6491 17.7976 14.6491 17.8256 14.6491 17.8536C14.6491 17.9936 14.6911 18.1103 14.7751 18.2036C14.8591 18.3063 14.9758 18.3856 15.1251 18.4416C15.2744 18.4976 15.4424 18.5256 15.6291 18.5256C15.8344 18.5256 16.0258 18.4883 16.2031 18.4136C16.3898 18.3483 16.5438 18.2083 16.6651 17.9936C16.7864 17.7789 16.8471 17.4569 16.8471 17.0276C16.8471 16.8036 16.8471 16.5049 16.8471 16.1316C16.8564 15.7583 16.8611 15.3196 16.8611 14.8156C16.8704 14.3116 16.8751 13.7516 16.8751 13.1356C16.8751 12.8369 16.8751 12.5523 16.8751 12.2816C16.8844 12.0016 16.8938 11.7263 16.9031 11.4556C16.9124 11.1849 16.9264 10.9143 16.9451 10.6436C16.9638 10.3729 16.9918 10.0836 17.0291 9.77555H17.9531C17.9344 9.97155 17.9111 10.2049 17.8831 10.4756C17.8644 10.7463 17.8458 11.0309 17.8271 11.3296C17.8084 11.6283 17.7898 11.9316 17.7711 12.2396C17.7618 12.5476 17.7571 12.8369 17.7571 13.1076C17.7571 13.6396 17.7571 14.1109 17.7571 14.5216C17.7571 14.9229 17.7571 15.2729 17.7571 15.5716C17.7664 15.8609 17.7711 16.1083 17.7711 16.3136C17.7711 16.5096 17.7711 16.6729 17.7711 16.8036C17.7711 17.2516 17.7198 17.6343 17.6171 17.9516C17.5144 18.2783 17.3651 18.5396 17.1691 18.7356C16.9824 18.9409 16.7491 19.0903 16.4691 19.1836C16.1984 19.2769 15.8904 19.3236 15.5451 19.3236ZM15.4471 17.1396C15.0271 17.1396 14.6911 16.9949 14.4391 16.7056C14.1871 16.4069 13.9958 16.0383 13.8651 15.5996C13.7718 15.2543 13.7018 14.8856 13.6551 14.4936C13.6178 14.1016 13.5991 13.7143 13.5991 13.3316C13.5991 13.0796 13.6084 12.8323 13.6271 12.5896C13.6458 12.3376 13.6784 12.0949 13.7251 11.8616C13.7718 11.6189 13.8278 11.3903 13.8931 11.1756C14.0424 10.7276 14.2524 10.3636 14.5231 10.0836C14.8031 9.80355 15.1718 9.66355 15.6291 9.66355C16.0304 9.66355 16.3571 9.78488 16.6091 10.0276C16.8611 10.2703 17.0431 10.6716 17.1551 11.2316C17.2764 11.7916 17.3371 12.5476 17.3371 13.4996L16.8751 12.9116C16.8751 12.4356 16.8331 12.0156 16.7491 11.6516C16.6744 11.2783 16.5531 10.9843 16.3851 10.7696C16.2171 10.5549 16.0071 10.4476 15.7551 10.4476C15.4938 10.4476 15.2838 10.5363 15.1251 10.7136C14.9664 10.8816 14.8404 11.1056 14.7471 11.3856C14.6538 11.6656 14.5884 11.9783 14.5511 12.3236C14.5231 12.6596 14.5091 12.9909 14.5091 13.3176C14.5091 13.5323 14.5138 13.7516 14.5231 13.9756C14.5324 14.1903 14.5464 14.4049 14.5651 14.6196C14.5931 14.8343 14.6258 15.0396 14.6631 15.2356C14.7098 15.4409 14.7704 15.6276 14.8451 15.7956C14.9291 15.9636 15.0318 16.0989 15.1531 16.2016C15.2744 16.2949 15.4144 16.3416 15.5731 16.3416C15.8064 16.3416 16.0211 16.2483 16.2171 16.0616C16.4131 15.8656 16.5718 15.5949 16.6931 15.2496C16.8144 14.8949 16.8751 14.4796 16.8751 14.0036L17.3371 13.4996C17.3371 13.7049 17.3324 13.9616 17.3231 14.2696C17.3138 14.5683 17.2811 14.8856 17.2251 15.2216C17.1691 15.5483 17.0758 15.8563 16.9451 16.1456C16.8144 16.4349 16.6278 16.6729 16.3851 16.8596C16.1424 17.0463 15.8298 17.1396 15.4471 17.1396Z" fill="#131313"/>
</svg>
