<svg width="24" height="24" viewBox="0 0 24 24" fill="none" xmlns="http://www.w3.org/2000/svg">
<path d="M10.8006 17.0699C10.726 16.5659 10.6466 16.0386 10.5626 15.4879C10.488 14.9372 10.4086 14.3819 10.3246 13.8219C10.2406 13.2619 10.152 12.7066 10.0586 12.1559C9.98397 11.7639 9.91397 11.3812 9.84864 11.0079C9.79264 10.6252 9.73664 10.2612 9.68064 9.91588C9.63397 9.57055 9.58264 9.23921 9.52664 8.92188C9.47997 8.60455 9.43331 8.31055 9.38664 8.03988L8.44864 7.21388L10.6326 7.12988C10.6886 7.49388 10.7493 7.87188 10.8146 8.26388C10.8893 8.64655 10.9593 9.04321 11.0246 9.45388C11.0993 9.85521 11.174 10.2659 11.2486 10.6859C11.3326 11.1059 11.412 11.5212 11.4866 11.9319C11.608 12.5572 11.7293 13.1732 11.8506 13.7799C11.972 14.3772 12.0886 14.9512 12.2006 15.5019C12.322 16.0432 12.434 16.5426 12.5366 16.9999L10.8006 17.0699ZM7.94464 15.1379V13.7659L11.0246 13.8219V15.0399L7.94464 15.1379ZM8.19664 16.9159L6.54464 16.9019C6.63797 16.4632 6.73597 15.9826 6.83864 15.4599C6.95064 14.9372 7.06264 14.3866 7.17464 13.8079C7.29597 13.2199 7.41731 12.6226 7.53864 12.0159C7.65064 11.4559 7.75797 10.9006 7.86064 10.3499C7.97264 9.79921 8.07531 9.25788 8.16864 8.72588C8.27131 8.19388 8.36464 7.68988 8.44864 7.21388L10.6326 7.12988L9.63864 8.15188C9.57331 8.48788 9.50331 8.86588 9.42864 9.28588C9.35397 9.70588 9.27931 10.1539 9.20464 10.6299C9.12997 11.0966 9.04597 11.5866 8.95264 12.0999C8.85931 12.6412 8.77064 13.1919 8.68664 13.7519C8.60264 14.3026 8.51864 14.8439 8.43464 15.3759C8.35997 15.9079 8.28064 16.4212 8.19664 16.9159ZM15.4481 19.3239C15.0561 19.3239 14.7154 19.2679 14.4261 19.1559C14.1461 19.0532 13.9314 18.8992 13.7821 18.6939C13.6328 18.4979 13.5581 18.2646 13.5581 17.9939C13.5581 17.9472 13.5581 17.9052 13.5581 17.8679C13.5581 17.8306 13.5581 17.7932 13.5581 17.7559L14.8321 17.5739C14.8228 17.6112 14.8181 17.6439 14.8181 17.6719C14.8181 17.6999 14.8181 17.7279 14.8181 17.7559C14.8181 17.8679 14.8461 17.9566 14.9021 18.0219C14.9581 18.0966 15.0421 18.1526 15.1541 18.1899C15.2661 18.2366 15.3968 18.2599 15.5461 18.2599C15.7421 18.2599 15.9008 18.2179 16.0221 18.1339C16.1528 18.0592 16.2554 17.9332 16.3301 17.7559C16.4048 17.5786 16.4421 17.3546 16.4421 17.0839C16.4421 16.8506 16.4421 16.5426 16.4421 16.1599C16.4421 15.7679 16.4421 15.3199 16.4421 14.8159C16.4421 14.3026 16.4421 13.7379 16.4421 13.1219C16.4421 12.7486 16.4468 12.4079 16.4561 12.0999C16.4748 11.7826 16.4981 11.4932 16.5261 11.2319C16.5634 10.9706 16.6008 10.7232 16.6381 10.4899C16.6754 10.2472 16.7174 10.0092 16.7641 9.77588H18.0941C18.0661 10.0559 18.0381 10.3312 18.0101 10.6019C17.9914 10.8632 17.9728 11.1246 17.9541 11.3859C17.9448 11.6379 17.9354 11.9086 17.9261 12.1979C17.9168 12.4779 17.9121 12.7812 17.9121 13.1079C17.9121 13.5652 17.9121 13.9619 17.9121 14.2979C17.9121 14.6339 17.9121 14.9372 17.9121 15.2079C17.9214 15.4692 17.9261 15.7259 17.9261 15.9779C17.9261 16.2206 17.9261 16.4819 17.9261 16.7619C17.9261 17.1352 17.8841 17.4759 17.8001 17.7839C17.7161 18.1012 17.5808 18.3719 17.3941 18.5959C17.2074 18.8292 16.9554 19.0066 16.6381 19.1279C16.3208 19.2586 15.9241 19.3239 15.4481 19.3239ZM15.2661 17.1399C14.8461 17.1399 14.5101 17.0092 14.2581 16.7479C14.0061 16.4866 13.8148 16.1506 13.6841 15.7399C13.5721 15.3946 13.4928 15.0119 13.4461 14.5919C13.3994 14.1719 13.3761 13.7519 13.3761 13.3319C13.3761 13.0706 13.3854 12.8139 13.4041 12.5619C13.4228 12.3099 13.4554 12.0626 13.5021 11.8199C13.5488 11.5772 13.6094 11.3532 13.6841 11.1479C13.8334 10.7092 14.0528 10.3546 14.3421 10.0839C14.6314 9.80388 15.0094 9.66388 15.4761 9.66388C15.8494 9.66388 16.1528 9.78988 16.3861 10.0419C16.6194 10.2846 16.7921 10.6859 16.9041 11.2459C17.0161 11.8059 17.0721 12.5572 17.0721 13.4999L16.4421 13.1919C16.4421 12.7346 16.4234 12.3286 16.3861 11.9739C16.3488 11.6099 16.2741 11.3252 16.1621 11.1199C16.0501 10.9052 15.8914 10.7979 15.6861 10.7979C15.5088 10.7979 15.3688 10.8772 15.2661 11.0359C15.1634 11.1946 15.0841 11.4046 15.0281 11.6659C14.9721 11.8992 14.9348 12.1606 14.9161 12.4499C14.8974 12.7299 14.8881 13.0192 14.8881 13.3179C14.8881 13.5139 14.8881 13.7099 14.8881 13.9059C14.8974 14.1019 14.9068 14.2932 14.9161 14.4799C14.9254 14.6572 14.9441 14.8252 14.9721 14.9839C15.0001 15.1799 15.0374 15.3526 15.0841 15.5019C15.1401 15.6512 15.2054 15.7679 15.2801 15.8519C15.3641 15.9359 15.4668 15.9779 15.5881 15.9779C15.7748 15.9779 15.9288 15.8799 16.0501 15.6839C16.1808 15.4879 16.2788 15.2172 16.3441 14.8719C16.4094 14.5172 16.4421 14.1112 16.4421 13.6539L17.0721 13.4999C17.0721 13.6772 17.0628 13.9152 17.0441 14.2139C17.0254 14.5126 16.9834 14.8299 16.9181 15.1659C16.8528 15.4926 16.7548 15.8099 16.6241 16.1179C16.4934 16.4166 16.3161 16.6639 16.0921 16.8599C15.8681 17.0466 15.5928 17.1399 15.2661 17.1399Z" fill="#131313"/>
</svg>
