<svg width="24" height="24" viewBox="0 0 24 24" fill="none" xmlns="http://www.w3.org/2000/svg">
<path d="M2.40137 16.4189L3.44727 16.125L6.76953 6.88281C6.9974 6.76432 7.41667 6.65495 8.02734 6.55469L11.4385 16.125L12.5322 16.3574L12.5801 16.4531L12.4844 17H9.20996L9.18262 16.9385L9.24414 16.4189L10.126 16.125L9.14844 13.3564H5.2793L4.34961 16.125L5.2793 16.3574L5.32715 16.4531L5.23145 17H2.37402L2.33301 16.9385L2.40137 16.4189ZM8.86133 12.5498L7.16602 7.99707L5.55957 12.5498H8.86133ZM16.1074 14.6963C15.6973 14.9287 15.4922 15.1543 15.4922 15.373C15.4922 15.6191 15.5492 15.79 15.6631 15.8857C15.8727 16.0635 16.251 16.182 16.7979 16.2412C17.3447 16.2959 17.8324 16.362 18.2607 16.4395C18.6891 16.5124 19.0423 16.6172 19.3203 16.7539C19.8672 17.0273 20.1406 17.5173 20.1406 18.2236C20.1406 18.9391 19.8239 19.5202 19.1904 19.9668C18.5433 20.4316 17.7093 20.6641 16.6885 20.6641C15.6813 20.6641 14.8724 20.4271 14.2617 19.9531C13.7376 19.5475 13.4756 19.0895 13.4756 18.5791C13.4756 18.2282 13.5941 17.9639 13.8311 17.7861L14.2275 17.4307C14.3916 17.2894 14.5921 17.1299 14.8291 16.9521C14.4326 16.7288 14.2344 16.3757 14.2344 15.8926C14.2344 15.6055 14.3506 15.3685 14.583 15.1816C14.6924 15.0905 14.8291 14.9993 14.9932 14.9082L15.54 14.5732C14.7653 14.3044 14.2572 13.8509 14.0156 13.2129C13.9336 12.9987 13.8926 12.7184 13.8926 12.3721C13.8926 12.0257 13.9814 11.6839 14.1592 11.3467C14.3369 11.0094 14.5693 10.7246 14.8564 10.4922C15.4489 10.0182 16.1462 9.78125 16.9482 9.78125L18.8076 9.85645C19.4411 9.85645 19.9219 9.79036 20.25 9.6582C20.373 9.82682 20.4346 9.98861 20.4346 10.1436C20.4346 10.3669 20.4095 10.5423 20.3594 10.6699C20.2637 10.7337 20.1429 10.7656 19.9971 10.7656C19.8558 10.7656 19.7396 10.752 19.6484 10.7246C19.5573 10.6973 19.4684 10.6654 19.3818 10.6289C19.1585 10.5241 18.9831 10.4626 18.8555 10.4443L18.8076 10.5469C19.1449 10.8066 19.3636 11.2031 19.4639 11.7363C19.4958 11.8867 19.5117 12.0895 19.5117 12.3447C19.5117 12.5954 19.432 12.8757 19.2725 13.1855C19.113 13.4954 18.8988 13.7643 18.6299 13.9922C18.0557 14.4844 17.3812 14.7305 16.6064 14.7305C16.4788 14.7305 16.3125 14.7191 16.1074 14.6963ZM16.7979 13.9922C17.0257 13.9922 17.2331 13.9603 17.4199 13.8965C17.6068 13.8281 17.7708 13.7301 17.9121 13.6025C18.2266 13.32 18.3838 12.9463 18.3838 12.4814C18.3838 11.9072 18.2015 11.4333 17.8369 11.0596C17.4906 10.7087 17.0736 10.5332 16.5859 10.5332C16.1165 10.5332 15.7314 10.6882 15.4307 10.998C15.139 11.2988 14.9932 11.6794 14.9932 12.1396C14.9932 12.6911 15.1709 13.14 15.5264 13.4863C15.8727 13.8236 16.2965 13.9922 16.7979 13.9922ZM14.5967 18.3672C14.5967 18.5404 14.6423 18.7227 14.7334 18.9141C14.8291 19.1055 14.9704 19.2786 15.1572 19.4336C15.5628 19.7754 16.1211 19.9463 16.832 19.9463C17.5749 19.9463 18.124 19.7799 18.4795 19.4473C18.7757 19.1738 18.9238 18.8001 18.9238 18.3262C18.9238 18.0299 18.762 17.8203 18.4385 17.6973C18.1423 17.5788 17.6934 17.4876 17.0918 17.4238C16.1348 17.3145 15.5241 17.221 15.2598 17.1436C14.8177 17.4489 14.5967 17.8568 14.5967 18.3672Z" fill="#131313"/>
</svg>
