<svg width="24" height="24" viewBox="0 0 24 24" fill="none" xmlns="http://www.w3.org/2000/svg">
<path d="M11.9172 16.6645C11.9265 16.6832 11.9312 16.7112 11.9312 16.7485C11.9312 16.8325 11.9032 16.9025 11.8472 16.9585C11.8005 17.0145 11.7352 17.0425 11.6512 17.0425C11.5298 17.0425 11.4412 16.9818 11.3852 16.8605L10.0132 13.2345H5.11316L3.65716 16.8745C3.61049 16.9865 3.52182 17.0425 3.39116 17.0425C3.31649 17.0425 3.25116 17.0145 3.19516 16.9585C3.14849 16.9025 3.12516 16.8372 3.12516 16.7625C3.12516 16.7158 3.12982 16.6832 3.13916 16.6645L7.43716 5.85648C7.49316 5.71648 7.56782 5.64648 7.66116 5.64648C7.74516 5.64648 7.81516 5.72115 7.87116 5.87048L11.9172 16.6645ZM7.57716 7.04648L5.33716 12.6745H9.80316L7.67516 7.04648L7.63316 6.83648L7.57716 7.04648ZM20.2055 10.0985C20.2708 10.1172 20.3222 10.1545 20.3595 10.2105C20.4062 10.2572 20.4295 10.3225 20.4295 10.4065C20.4295 10.4812 20.4062 10.5465 20.3595 10.6025C20.3222 10.6492 20.2708 10.6725 20.2055 10.6725L20.0935 10.6445C20.0842 10.6352 20.0142 10.6305 19.8835 10.6305C19.7062 10.6398 19.5335 10.6865 19.3655 10.7705C19.1975 10.8452 19.0575 10.9478 18.9455 11.0785C19.2535 11.5358 19.4075 12.0538 19.4075 12.6325C19.4075 13.1272 19.2908 13.5752 19.0575 13.9765C18.8242 14.3778 18.4975 14.6998 18.0775 14.9425C17.6668 15.1852 17.2048 15.3205 16.6915 15.3485H16.7055C16.3975 15.3485 16.1315 15.4325 15.9075 15.6005C15.6835 15.7685 15.5715 15.9505 15.5715 16.1465C15.5715 16.3145 15.6695 16.4592 15.8655 16.5805C16.0708 16.7018 16.3695 16.7905 16.7615 16.8465C17.4895 16.9492 18.0495 17.0658 18.4415 17.1965C18.8428 17.3272 19.1322 17.5092 19.3095 17.7425C19.4962 17.9852 19.5895 18.3165 19.5895 18.7365C19.5895 19.2032 19.4495 19.6092 19.1695 19.9545C18.8988 20.3092 18.5255 20.5752 18.0495 20.7525C17.5735 20.9392 17.0368 21.0325 16.4395 21.0325C15.7955 21.0325 15.1982 20.8785 14.6475 20.5705C14.0968 20.2718 13.6722 19.8612 13.3735 19.3385C13.3455 19.3012 13.3315 19.2545 13.3315 19.1985C13.3315 19.1238 13.3595 19.0585 13.4155 19.0025C13.4715 18.9465 13.5368 18.9185 13.6115 18.9185C13.6582 18.9185 13.7048 18.9325 13.7515 18.9605C13.7982 18.9885 13.8308 19.0212 13.8495 19.0585C14.0828 19.4785 14.4282 19.8192 14.8855 20.0805C15.3522 20.3418 15.8702 20.4725 16.4395 20.4725C17.1768 20.4725 17.7928 20.3138 18.2875 19.9965C18.7822 19.6885 19.0295 19.2685 19.0295 18.7365C19.0295 18.4565 18.9502 18.2325 18.7915 18.0645C18.6422 17.9058 18.4135 17.7798 18.1055 17.6865C17.7975 17.5932 17.3495 17.4998 16.7615 17.4065C16.1548 17.3132 15.6975 17.1592 15.3895 16.9445C15.0908 16.7205 14.9415 16.4545 14.9415 16.1465C14.9415 15.9505 14.9882 15.7732 15.0815 15.6145C15.1842 15.4465 15.3335 15.3112 15.5295 15.2085C14.9508 15.0218 14.4842 14.6998 14.1295 14.2425C13.7748 13.7758 13.5975 13.2392 13.5975 12.6325C13.5975 12.1098 13.7235 11.6385 13.9755 11.2185C14.2275 10.7985 14.5728 10.4672 15.0115 10.2245C15.4595 9.98181 15.9588 9.86048 16.5095 9.86048C16.9202 9.86048 17.3028 9.93048 17.6575 10.0705C18.0122 10.2105 18.3202 10.4065 18.5815 10.6585C18.7495 10.4718 18.9455 10.3272 19.1695 10.2245C19.4028 10.1125 19.6408 10.0565 19.8835 10.0565C19.9955 10.0565 20.1028 10.0705 20.2055 10.0985ZM16.5095 14.7885C16.9482 14.7885 17.3448 14.6952 17.6995 14.5085C18.0542 14.3218 18.3342 14.0652 18.5395 13.7385C18.7448 13.4025 18.8475 13.0338 18.8475 12.6325C18.8475 12.2218 18.7448 11.8485 18.5395 11.5125C18.3342 11.1672 18.0542 10.9012 17.6995 10.7145C17.3448 10.5185 16.9482 10.4205 16.5095 10.4205C16.0708 10.4205 15.6695 10.5185 15.3055 10.7145C14.9508 10.9012 14.6708 11.1672 14.4655 11.5125C14.2602 11.8485 14.1575 12.2218 14.1575 12.6325C14.1575 13.0338 14.2602 13.4025 14.4655 13.7385C14.6708 14.0652 14.9508 14.3218 15.3055 14.5085C15.6695 14.6952 16.0708 14.7885 16.5095 14.7885Z" fill="#131313"/>
</svg>
