<svg width="24" height="24" viewBox="0 0 24 24" fill="none" xmlns="http://www.w3.org/2000/svg">
<path d="M12.3841 16.1315C12.4214 16.1968 12.4401 16.2668 12.4401 16.3415C12.4401 16.5468 12.3701 16.7242 12.2301 16.8735C12.0994 17.0135 11.9314 17.0835 11.7261 17.0835C11.5861 17.0835 11.4554 17.0462 11.3341 16.9715C11.2127 16.8875 11.1241 16.7802 11.0681 16.6495L9.90607 13.6255H5.49607L4.32007 16.6635C4.2734 16.7848 4.1894 16.8875 4.06807 16.9715C3.94674 17.0462 3.8114 17.0835 3.66207 17.0835C3.46607 17.0835 3.29807 17.0135 3.15807 16.8735C3.0274 16.7335 2.96207 16.5655 2.96207 16.3695C2.96207 16.2855 2.98074 16.2108 3.01807 16.1455L7.12007 6.06552C7.1854 5.91619 7.2694 5.80419 7.37207 5.72952C7.48407 5.64552 7.59607 5.60352 7.70807 5.60352C7.83874 5.60352 7.96007 5.64552 8.07207 5.72952C8.1934 5.80419 8.28207 5.92085 8.33807 6.07952L12.3841 16.1315ZM7.61007 8.12352L5.98607 12.3235H9.41607L7.80607 8.12352L7.72207 7.77352L7.61007 8.12352ZM21.0343 9.83152C21.193 9.86885 21.3237 9.95285 21.4263 10.0835C21.5383 10.2048 21.5943 10.3495 21.5943 10.5175C21.5943 10.6948 21.5383 10.8442 21.4263 10.9655C21.3143 11.0868 21.165 11.1475 20.9783 11.1475C20.913 11.1475 20.8383 11.1335 20.7543 11.1055C20.717 11.0962 20.6283 11.0915 20.4883 11.0915C20.3203 11.1102 20.1943 11.1475 20.1103 11.2035C20.353 11.6422 20.4743 12.1228 20.4743 12.6455C20.4743 13.2055 20.3343 13.7095 20.0543 14.1575C19.7837 14.6055 19.4057 14.9602 18.9203 15.2215C18.4443 15.4828 17.9077 15.6182 17.3103 15.6275C17.1517 15.6275 17.0117 15.6742 16.8903 15.7675C16.769 15.8515 16.7083 15.9495 16.7083 16.0615C16.7083 16.1735 16.7783 16.2715 16.9183 16.3555C17.0677 16.4395 17.2777 16.5002 17.5483 16.5375C18.323 16.6308 18.939 16.7615 19.3963 16.9295C19.863 17.0975 20.199 17.3122 20.4043 17.5735C20.619 17.8442 20.7263 18.1848 20.7263 18.5955C20.7263 19.0715 20.577 19.4915 20.2783 19.8555C19.9797 20.2288 19.569 20.5182 19.0463 20.7235C18.533 20.9288 17.9637 21.0315 17.3383 21.0315C16.573 21.0315 15.8823 20.8915 15.2663 20.6115C14.6597 20.3408 14.1837 19.9302 13.8383 19.3795C13.773 19.2675 13.7403 19.1415 13.7403 19.0015C13.7403 18.8055 13.8057 18.6468 13.9363 18.5255C14.0763 18.4135 14.2443 18.3575 14.4403 18.3575C14.6643 18.3575 14.837 18.4462 14.9583 18.6235C15.1637 18.9222 15.4997 19.1742 15.9663 19.3795C16.433 19.5848 16.909 19.6875 17.3943 19.6875C17.973 19.6875 18.4583 19.5942 18.8503 19.4075C19.2423 19.2302 19.4383 18.9782 19.4383 18.6515C19.4383 18.3808 19.2983 18.1848 19.0183 18.0635C18.7477 17.9422 18.2623 17.8302 17.5623 17.7275C16.7223 17.5875 16.125 17.4055 15.7703 17.1815C15.425 16.9575 15.2523 16.6402 15.2523 16.2295C15.2523 15.8655 15.467 15.5808 15.8963 15.3755C15.3177 15.1422 14.8557 14.7828 14.5103 14.2975C14.1743 13.8122 14.0063 13.2615 14.0063 12.6455C14.0063 12.0762 14.1463 11.5628 14.4263 11.1055C14.7157 10.6482 15.1077 10.2888 15.6023 10.0275C16.097 9.75685 16.6477 9.62152 17.2543 9.62152C18.029 9.62152 18.7057 9.83619 19.2843 10.2655C19.6857 9.93885 20.1383 9.77552 20.6423 9.77552C20.7357 9.77552 20.8663 9.79419 21.0343 9.83152ZM17.2543 14.2695C17.777 14.2695 18.211 14.1155 18.5563 13.8075C18.9017 13.4902 19.0743 13.1028 19.0743 12.6455C19.0743 12.1788 18.9017 11.7868 18.5563 11.4695C18.211 11.1428 17.777 10.9795 17.2543 10.9795C16.7223 10.9795 16.279 11.1428 15.9243 11.4695C15.579 11.7868 15.4063 12.1788 15.4063 12.6455C15.4063 13.1028 15.579 13.4902 15.9243 13.8075C16.279 14.1155 16.7223 14.2695 17.2543 14.2695Z" fill="#131313"/>
</svg>
