<svg width="24" height="24" viewBox="0 0 24 24" fill="none" xmlns="http://www.w3.org/2000/svg">
<path d="M2.80611 17.1122C2.35811 17.1122 1.99878 16.9722 1.72811 16.6922C1.45744 16.4122 1.32211 16.0155 1.32211 15.5022C1.32211 15.3622 1.33611 15.2269 1.36411 15.0962C1.37344 15.0215 1.38744 14.9515 1.40611 14.8862H2.45611C2.44678 14.9329 2.43744 14.9795 2.42811 15.0262C2.41878 15.0729 2.40944 15.1242 2.40011 15.1802C2.40011 15.2269 2.40011 15.2829 2.40011 15.3482C2.40011 15.5629 2.44678 15.7309 2.54011 15.8522C2.63344 15.9735 2.76878 16.0342 2.94611 16.0342C3.30078 16.0342 3.67878 15.8242 4.08011 15.4042C4.48144 14.9749 4.93411 14.3355 5.43811 13.4862H4.17811L4.59811 12.4082H6.05411L6.44611 11.6942C6.78211 11.0782 7.10878 10.4949 7.42611 9.94421C7.75278 9.39354 8.09344 8.90821 8.44811 8.48821C8.81211 8.06821 9.20411 7.73688 9.62411 7.49421C10.0441 7.24221 10.5201 7.11621 11.0521 7.11621C11.4814 7.11621 11.8408 7.17688 12.1301 7.29821C12.4288 7.41021 12.6201 7.50354 12.7041 7.57821C12.2374 8.72621 11.7801 9.86954 11.3321 11.0082C10.8841 12.1375 10.4268 13.2715 9.96011 14.4102C9.88544 14.5875 9.83411 14.7462 9.80611 14.8862C9.78744 15.0169 9.77811 15.1382 9.77811 15.2502C9.77811 15.5022 9.84811 15.6982 9.98811 15.8382C10.1281 15.9689 10.3241 16.0342 10.5761 16.0342C10.7908 16.0342 11.0288 15.9689 11.2901 15.8382C11.5514 15.6982 11.8268 15.5069 12.1161 15.2642C12.4054 15.0122 12.7041 14.7135 13.0121 14.3682C13.3201 14.0135 13.6328 13.6215 13.9501 13.1922L14.7061 13.9062C14.3608 14.3635 14.0108 14.7882 13.6561 15.1802C13.3108 15.5722 12.9561 15.9129 12.5921 16.2022C12.2281 16.4822 11.8501 16.7062 11.4581 16.8742C11.0754 17.0329 10.6788 17.1122 10.2681 17.1122C9.80144 17.1122 9.42811 16.9722 9.14811 16.6922C8.86811 16.4029 8.72811 15.9829 8.72811 15.4322C8.72811 15.1242 8.77011 14.8069 8.85411 14.4802C8.94744 14.1535 9.05478 13.8222 9.17611 13.4862H6.68411C6.30144 14.1862 5.94211 14.7695 5.60611 15.2362C5.27011 15.7029 4.94811 16.0762 4.64011 16.3562C4.33211 16.6269 4.02878 16.8229 3.73011 16.9442C3.43144 17.0562 3.12344 17.1122 2.80611 17.1122ZM7.41211 12.4082H9.58211L11.2341 8.30621C11.1688 8.27821 11.0848 8.25488 10.9821 8.23621C10.8888 8.20821 10.7768 8.19421 10.6461 8.19421C10.4128 8.19421 10.1748 8.28288 9.93211 8.46021C9.69878 8.62821 9.46078 8.87088 9.21811 9.18821C8.98478 9.49621 8.74211 9.86954 8.49011 10.3082C8.23811 10.7469 7.98144 11.2369 7.72011 11.7782L7.41211 12.4082ZM14.2858 17.1122C13.8751 17.1122 13.5391 16.9909 13.2778 16.7482C13.0258 16.5055 12.8998 16.1649 12.8998 15.7262C12.8998 15.3902 12.9698 15.0355 13.1098 14.6622C13.2591 14.2795 13.4551 13.9062 13.6978 13.5422C13.9404 13.1689 14.2204 12.8142 14.5378 12.4782C14.8644 12.1422 15.2004 11.8482 15.5458 11.5962C15.9004 11.3442 16.2598 11.1435 16.6238 10.9942C16.9878 10.8449 17.3331 10.7702 17.6598 10.7702C18.0144 10.7702 18.3131 10.8542 18.5558 11.0222C18.8078 11.1902 19.0178 11.3955 19.1858 11.6382L18.2198 12.1562C18.1451 12.0629 18.0518 11.9882 17.9398 11.9322C17.8371 11.8669 17.6971 11.8342 17.5198 11.8342C17.3144 11.8342 17.0858 11.8995 16.8338 12.0302C16.5818 12.1515 16.3251 12.3195 16.0638 12.5342C15.8118 12.7395 15.5644 12.9775 15.3218 13.2482C15.0791 13.5095 14.8598 13.7755 14.6638 14.0462C14.4771 14.3169 14.3278 14.5829 14.2158 14.8442C14.1038 15.0962 14.0478 15.3155 14.0478 15.5022C14.0478 15.6609 14.0851 15.7915 14.1598 15.8942C14.2344 15.9875 14.3558 16.0342 14.5238 16.0342C14.7291 16.0342 14.9811 15.9315 15.2798 15.7262C15.5784 15.5209 15.8911 15.2502 16.2178 14.9142C16.5444 14.5782 16.8664 14.2002 17.1838 13.7802C17.5011 13.3509 17.7858 12.9122 18.0378 12.4642L19.0318 12.9262L17.5478 16.6362C17.9211 16.4869 18.3084 16.3095 18.7098 16.1042C19.1204 15.8895 19.5218 15.6422 19.9138 15.3622C20.3058 15.0729 20.6884 14.7509 21.0618 14.3962C21.4351 14.0322 21.7851 13.6309 22.1118 13.1922L22.8678 13.9062C22.4758 14.4289 22.0604 14.8955 21.6218 15.3062C21.1831 15.7169 20.7211 16.0809 20.2358 16.3982C19.7598 16.7155 19.2558 16.9955 18.7238 17.2382C18.2011 17.4809 17.6458 17.7002 17.0578 17.8962C16.6004 18.9975 16.0824 19.8095 15.5038 20.3322C14.9251 20.8549 14.2998 21.1162 13.6278 21.1162C13.2078 21.1162 12.8858 21.0089 12.6618 20.7942C12.4378 20.5889 12.3258 20.3042 12.3258 19.9402C12.3258 19.5202 12.4331 19.1749 12.6478 18.9042C12.8624 18.6429 13.1471 18.4142 13.5018 18.2182C13.8564 18.0222 14.2671 17.8449 14.7338 17.6862C15.2004 17.5275 15.6858 17.3455 16.1898 17.1402L16.7918 15.6142C16.3718 16.1089 15.9518 16.4822 15.5318 16.7342C15.1211 16.9862 14.7058 17.1122 14.2858 17.1122ZM13.8938 20.1502C14.1738 20.1502 14.4724 19.9962 14.7898 19.6882C15.1164 19.3802 15.4291 18.8902 15.7278 18.2182C15.5038 18.3209 15.2611 18.4142 14.9998 18.4982C14.7478 18.5915 14.5098 18.6895 14.2858 18.7922C13.9591 18.9509 13.7351 19.1049 13.6138 19.2542C13.5018 19.4129 13.4458 19.5855 13.4458 19.7722C13.4458 19.8842 13.4878 19.9729 13.5718 20.0382C13.6558 20.1129 13.7631 20.1502 13.8938 20.1502Z" fill="#131313"/>
</svg>
