<svg width="24" height="24" viewBox="0 0 24 24" fill="none" xmlns="http://www.w3.org/2000/svg">
<path d="M11.4835 16.0002V12.6122H5.58947V16.0002H4.66547V11.1702L7.81547 6.2002H9.04747L12.4075 11.1982V16.0002H11.4835ZM11.4555 11.4362L8.55747 7.1382H8.31947L5.60347 11.4222V11.6882H11.4555V11.4362ZM18.6908 19.1082H15.4848L14.2948 18.1282L14.8828 17.4142L15.8068 18.1842H18.3828L19.2648 17.5402V15.4822L18.5508 16.0002H14.8968L13.5248 14.8662V10.4282L14.8968 9.3222H18.5508L19.2648 9.8402V9.3082H20.1888V18.0022L18.6908 19.1082ZM19.2648 10.8902L18.3828 10.2462H15.2188L14.4628 10.8762V14.4322L15.2188 15.0622H18.3828L19.2648 14.4182V10.8902Z" fill="#131313"/>
</svg>
