<svg width="24" height="24" viewBox="0 0 24 24" fill="none" xmlns="http://www.w3.org/2000/svg">
<path d="M10.8129 16.9999C10.7849 16.6079 10.7522 16.2206 10.7149 15.8379C10.6869 15.4459 10.6542 15.0679 10.6169 14.7039H6.68291C6.46824 15.0679 6.25358 15.4412 6.03891 15.8239C5.83358 16.1972 5.62358 16.5892 5.40891 16.9999H3.51891C4.08824 16.0106 4.62958 15.0772 5.14291 14.1999C5.66558 13.3226 6.16958 12.4872 6.65491 11.6939C7.14958 10.9006 7.63491 10.1446 8.11091 9.42585C8.59624 8.69785 9.08158 7.98852 9.56691 7.29785H11.2049C11.5036 8.68852 11.7602 10.2099 11.9749 11.8619C12.1896 13.5046 12.3949 15.2172 12.5909 16.9999H10.8129ZM10.0009 9.14585C9.64624 9.69652 9.24958 10.3172 8.81091 11.0079C8.38158 11.6892 7.92424 12.4546 7.43891 13.3039H10.4769C10.4209 12.6412 10.3509 11.9646 10.2669 11.2739C10.1922 10.5739 10.1036 9.86452 10.0009 9.14585ZM15.6884 18.2039C16.3791 18.2039 16.8971 18.0452 17.2424 17.7279C17.5971 17.4106 17.8351 16.9766 17.9564 16.4259L17.9984 16.2299C17.8117 16.3232 17.5877 16.4119 17.3264 16.4959C17.0651 16.5706 16.7897 16.6079 16.5004 16.6079C15.6791 16.6079 15.0677 16.3886 14.6664 15.9499C14.2744 15.5019 14.0784 14.9092 14.0784 14.1719C14.0784 13.4999 14.1951 12.8792 14.4284 12.3099C14.6617 11.7406 14.9884 11.2506 15.4084 10.8399C15.8377 10.4199 16.3511 10.0932 16.9484 9.85985C17.5457 9.62652 18.2084 9.50985 18.9364 9.50985C19.2911 9.50985 19.6691 9.55185 20.0704 9.63585C20.4811 9.71052 20.8497 9.83652 21.1764 10.0139L19.6924 16.2299C19.5617 16.7806 19.3937 17.2659 19.1884 17.6859C18.9924 18.1152 18.7311 18.4699 18.4044 18.7499C18.0777 19.0392 17.6717 19.2586 17.1864 19.4079C16.7104 19.5572 16.1317 19.6319 15.4504 19.6319C14.9557 19.6319 14.5077 19.5759 14.1064 19.4639C13.7144 19.3612 13.3691 19.2306 13.0704 19.0719L13.6724 17.6999C13.9244 17.8492 14.2137 17.9706 14.5404 18.0639C14.8764 18.1572 15.2591 18.2039 15.6884 18.2039ZM16.9204 15.2359C17.1724 15.2359 17.4291 15.1892 17.6904 15.0959C17.9611 15.0026 18.1851 14.8859 18.3624 14.7459L19.2584 11.0079C19.0437 10.9612 18.8337 10.9379 18.6284 10.9379C18.1991 10.9379 17.8071 11.0172 17.4524 11.1759C17.1071 11.3346 16.8084 11.5492 16.5564 11.8199C16.3044 12.0906 16.1084 12.4079 15.9684 12.7719C15.8284 13.1266 15.7584 13.5092 15.7584 13.9199C15.7584 14.3306 15.8471 14.6526 16.0244 14.8859C16.2017 15.1192 16.5004 15.2359 16.9204 15.2359Z" fill="#131313"/>
</svg>
