<svg width="24" height="24" viewBox="0 0 24 24" fill="none" xmlns="http://www.w3.org/2000/svg">
<path d="M11.7869 16.9999C11.6096 16.5239 11.4416 16.0666 11.2829 15.6279C11.1243 15.1892 10.9703 14.7599 10.8209 14.3399H6.10293C5.94426 14.7599 5.7856 15.1892 5.62693 15.6279C5.46826 16.0666 5.30493 16.5239 5.13693 16.9999H4.14293C4.51626 15.9919 4.86626 15.0539 5.19293 14.1859C5.5196 13.3086 5.83693 12.4826 6.14493 11.7079C6.46226 10.9239 6.77493 10.1726 7.08293 9.45385C7.39093 8.73518 7.7176 8.01652 8.06293 7.29785H8.90293C9.24826 8.01652 9.57493 8.73518 9.88293 9.45385C10.1909 10.1726 10.4989 10.9239 10.8069 11.7079C11.1243 12.4826 11.4463 13.3086 11.7729 14.1859C12.0996 15.0539 12.4543 15.9919 12.8369 16.9999H11.7869ZM8.45493 8.38985C8.10026 9.19252 7.75493 10.0092 7.41893 10.8399C7.09226 11.6706 6.7516 12.5666 6.39693 13.5279H10.5269C10.1723 12.5666 9.82693 11.6706 9.49093 10.8399C9.15493 10.0092 8.8096 9.19252 8.45493 8.38985ZM18.8937 16.1599C18.8377 16.2066 18.7537 16.2626 18.6417 16.3279C18.5297 16.3839 18.3897 16.4446 18.2217 16.5099C18.063 16.5752 17.8763 16.6312 17.6617 16.6779C17.4563 16.7152 17.223 16.7339 16.9617 16.7339C16.5417 16.7339 16.1357 16.6686 15.7437 16.5379C15.3517 16.4072 15.0063 16.2019 14.7077 15.9219C14.4183 15.6419 14.185 15.2826 14.0077 14.8439C13.8303 14.3959 13.7417 13.8546 13.7417 13.2199C13.7417 12.7066 13.821 12.2306 13.9797 11.7919C14.1383 11.3532 14.3623 10.9752 14.6517 10.6579C14.9503 10.3312 15.3097 10.0792 15.7297 9.90185C16.159 9.71518 16.6397 9.62185 17.1717 9.62185C17.8437 9.62185 18.3803 9.66852 18.7817 9.76185C19.1923 9.84585 19.5283 9.92985 19.7897 10.0139V16.6219C19.7897 17.7046 19.5097 18.4746 18.9497 18.9319C18.3897 19.3986 17.545 19.6319 16.4157 19.6319C15.949 19.6319 15.5243 19.5946 15.1417 19.5199C14.7683 19.4546 14.4463 19.3752 14.1757 19.2819L14.3577 18.4559C14.5817 18.5586 14.885 18.6472 15.2677 18.7219C15.6597 18.7966 16.0517 18.8339 16.4437 18.8339C17.3023 18.8339 17.923 18.6659 18.3057 18.3299C18.6977 18.0032 18.8937 17.4386 18.8937 16.6359V16.1599ZM18.8797 10.6439C18.721 10.5972 18.5157 10.5552 18.2637 10.5179C18.0117 10.4712 17.6523 10.4479 17.1857 10.4479C16.7937 10.4479 16.4437 10.5179 16.1357 10.6579C15.837 10.7886 15.5803 10.9799 15.3657 11.2319C15.151 11.4746 14.9877 11.7686 14.8757 12.1139C14.7637 12.4499 14.7077 12.8232 14.7077 13.2339C14.7077 13.7099 14.773 14.1206 14.9037 14.4659C15.0343 14.8019 15.2023 15.0772 15.4077 15.2919C15.6223 15.5066 15.865 15.6652 16.1357 15.7679C16.4063 15.8612 16.6817 15.9079 16.9617 15.9079C17.3723 15.9079 17.7457 15.8472 18.0817 15.7259C18.427 15.6046 18.693 15.4646 18.8797 15.3059V10.6439Z" fill="#131313"/>
</svg>
