<svg width="24" height="24" viewBox="0 0 24 24" fill="none" xmlns="http://www.w3.org/2000/svg">
<path d="M12.735 17.0002H10.019L9.69699 16.6642L10.789 16.3562L10.355 14.3822L10.019 13.7382L6.54699 14.1722L6.32299 14.9282L6.11299 16.3562L6.98099 16.6642V17.1122L4.16699 16.9022V16.4542L5.02099 16.2442L7.62499 7.11621L9.15099 7.34021L11.881 16.2442L12.637 16.4542L12.735 17.0002ZM9.69699 12.7722L8.50699 8.41821L8.29699 8.53021L6.86899 13.0802V13.3182L9.69699 12.7722ZM14.404 12.2682L15.454 13.7102L17.47 14.0462L18.338 12.3942L17.82 11.1062L15.832 10.7982L14.866 11.2462L14.404 12.2682ZM14.768 14.3822L14.488 15.9502L17.4 16.1042L18.366 16.2022L19.01 18.1622L14.054 19.4082L13.312 17.6582L14.292 17.8822L14.362 18.6522L17.904 17.4482L17.694 17.0142L13.774 16.5522L13.396 15.5722L13.984 13.7382L13.466 13.1082L13.508 11.5402L14.908 10.0982L17.218 10.0562L17.484 10.2662L19.304 9.07621L19.458 9.73421L18.156 10.7422L18.478 10.9802L19.416 12.1422L18.366 14.8162L15.286 14.7742L14.768 14.3822Z" fill="#131313"/>
</svg>
