<svg width="24" height="24" viewBox="0 0 24 24" fill="none" xmlns="http://www.w3.org/2000/svg">
<path d="M7.40116 7.2002H9.59916L13.1552 17.0002H11.1042L10.5162 15.3762H6.48416L5.89616 17.0002H3.84516L7.40116 7.2002ZM7.19116 13.4442H9.80916L8.49316 9.8532L7.19116 13.4442ZM18.9415 10.0002H20.8735V17.0982C20.8735 17.6162 20.7685 18.0829 20.5585 18.4982C20.3485 18.9182 20.0615 19.2775 19.6975 19.5762C19.3382 19.8749 18.9229 20.1035 18.4515 20.2622C17.9849 20.4209 17.4902 20.5002 16.9675 20.5002C16.4729 20.5002 15.9992 20.4022 15.5465 20.2062C15.0939 20.0149 14.6925 19.7489 14.3425 19.4082C13.9925 19.0675 13.7195 18.6755 13.5235 18.2322L15.2875 17.4272C15.3855 17.6605 15.5185 17.8612 15.6865 18.0292C15.8592 18.1972 16.0552 18.3255 16.2745 18.4142C16.4985 18.5075 16.7295 18.5542 16.9675 18.5542C17.2242 18.5542 17.4692 18.5239 17.7025 18.4632C17.9405 18.4025 18.1529 18.3115 18.3395 18.1902C18.5262 18.0689 18.6732 17.9172 18.7805 17.7352C18.8879 17.5532 18.9415 17.3409 18.9415 17.0982V16.2862C18.7269 16.5522 18.4655 16.7692 18.1575 16.9372C17.8542 17.1005 17.5019 17.1822 17.1005 17.1822C16.5965 17.1822 16.1229 17.0865 15.6795 16.8952C15.2409 16.7039 14.8535 16.4402 14.5175 16.1042C14.1815 15.7635 13.9179 15.3715 13.7265 14.9282C13.5352 14.4849 13.4395 14.0089 13.4395 13.5002C13.4395 12.9915 13.5352 12.5155 13.7265 12.0722C13.9179 11.6289 14.1815 11.2392 14.5175 10.9032C14.8535 10.5625 15.2409 10.2965 15.6795 10.1052C16.1229 9.91387 16.5965 9.8182 17.1005 9.8182C17.5019 9.8182 17.8542 9.9022 18.1575 10.0702C18.4655 10.2335 18.7269 10.4482 18.9415 10.7142V10.0002ZM17.1285 15.3272C17.4459 15.3272 17.7329 15.2455 17.9895 15.0822C18.2462 14.9142 18.4469 14.6925 18.5915 14.4172C18.7409 14.1419 18.8155 13.8362 18.8155 13.5002C18.8155 13.1642 18.7409 12.8585 18.5915 12.5832C18.4469 12.3032 18.2462 12.0815 17.9895 11.9182C17.7329 11.7549 17.4459 11.6732 17.1285 11.6732C16.8159 11.6732 16.5289 11.7549 16.2675 11.9182C16.0109 12.0815 15.8055 12.3032 15.6515 12.5832C15.4975 12.8585 15.4205 13.1642 15.4205 13.5002C15.4205 13.8362 15.4975 14.1442 15.6515 14.4242C15.8055 14.6995 16.0109 14.9189 16.2675 15.0822C16.5289 15.2455 16.8159 15.3272 17.1285 15.3272Z" fill="#131313"/>
</svg>
