<svg width="24" height="24" viewBox="0 0 24 24" fill="none" xmlns="http://www.w3.org/2000/svg">
<path d="M8.98284 7.2002H9.97684L12.1748 17.0002H11.3698L10.8658 14.7882H5.96584L4.85284 17.0002H4.04784L8.98284 7.2002ZM6.35084 14.0322H10.6978L9.36084 8.0612L6.35084 14.0322ZM19.5298 10.0002H20.2858L19.2708 17.2942C19.2101 17.7282 19.0561 18.1365 18.8088 18.5192C18.5661 18.9065 18.2604 19.2472 17.8918 19.5412C17.5278 19.8399 17.1288 20.0732 16.6948 20.2412C16.2654 20.4139 15.8338 20.5002 15.3998 20.5002C14.9144 20.5002 14.4618 20.3859 14.0418 20.1572C13.6218 19.9332 13.2741 19.6322 12.9988 19.2542C12.7234 18.8762 12.5554 18.4632 12.4947 18.0152L13.2298 17.6932C13.2624 18.0712 13.3884 18.4142 13.6078 18.7222C13.8271 19.0349 14.1048 19.2822 14.4408 19.4642C14.7768 19.6462 15.1314 19.7372 15.5048 19.7372C15.8408 19.7372 16.1768 19.6719 16.5128 19.5412C16.8488 19.4105 17.1591 19.2309 17.4438 19.0022C17.7284 18.7782 17.9664 18.5192 18.1578 18.2252C18.3491 17.9312 18.4681 17.6209 18.5148 17.2942L18.7528 15.5792C18.4354 16.0552 18.0364 16.4425 17.5558 16.7412C17.0751 17.0352 16.5431 17.1822 15.9598 17.1822C15.4744 17.1822 15.0311 17.0865 14.6298 16.8952C14.2284 16.7039 13.8901 16.4402 13.6148 16.1042C13.3394 15.7635 13.1411 15.3715 13.0198 14.9282C12.8984 14.4849 12.8728 14.0089 12.9428 13.5002C13.0128 12.9915 13.1714 12.5155 13.4188 12.0722C13.6661 11.6242 13.9741 11.2322 14.3428 10.8962C14.7161 10.5555 15.1291 10.2895 15.5818 10.0982C16.0391 9.90687 16.5104 9.8112 16.9958 9.8112C17.5791 9.8112 18.0691 9.9582 18.4658 10.2522C18.8624 10.5415 19.1541 10.9289 19.3408 11.4142L19.5298 10.0002ZM16.0718 16.4402C16.5898 16.4402 17.0564 16.3049 17.4718 16.0342C17.8871 15.7635 18.2278 15.4042 18.4938 14.9562C18.7644 14.5082 18.9348 14.0229 19.0048 13.5002C19.0794 12.9635 19.0444 12.4735 18.8998 12.0302C18.7598 11.5822 18.5194 11.2229 18.1788 10.9522C17.8381 10.6815 17.4111 10.5462 16.8978 10.5462C16.3798 10.5462 15.8921 10.6792 15.4348 10.9452C14.9821 11.2112 14.5994 11.5682 14.2868 12.0162C13.9788 12.4642 13.7874 12.9589 13.7128 13.5002C13.6381 14.0462 13.6941 14.5409 13.8808 14.9842C14.0674 15.4275 14.3521 15.7822 14.7348 16.0482C15.1221 16.3095 15.5678 16.4402 16.0718 16.4402Z" fill="#131313"/>
</svg>
