<svg width="24" height="24" viewBox="0 0 24 24" fill="none" xmlns="http://www.w3.org/2000/svg">
<path d="M9.0992 7.2002H9.9252L12.1232 17.0002H11.4862L10.9682 14.7112H5.9492L4.8012 17.0002H4.1572L9.0992 7.2002ZM6.2572 14.1092H10.8352L9.4212 7.8302L6.2572 14.1092ZM19.5727 10.0002H20.1747L19.1457 17.3222C19.0897 17.7422 18.9404 18.1412 18.6977 18.5192C18.4551 18.9019 18.1541 19.2425 17.7947 19.5412C17.4354 19.8399 17.0434 20.0732 16.6187 20.2412C16.1987 20.4139 15.7741 20.5002 15.3447 20.5002C14.8594 20.5002 14.4067 20.3835 13.9867 20.1502C13.5714 19.9215 13.2284 19.6159 12.9577 19.2332C12.6871 18.8552 12.5237 18.4399 12.4677 17.9872L13.0557 17.7282C13.0837 18.1249 13.2121 18.4865 13.4407 18.8132C13.6741 19.1445 13.9657 19.4082 14.3157 19.6042C14.6657 19.8002 15.0391 19.8982 15.4357 19.8982C15.7811 19.8982 16.1264 19.8259 16.4717 19.6812C16.8217 19.5412 17.1437 19.3499 17.4377 19.1072C17.7364 18.8692 17.9837 18.5962 18.1797 18.2882C18.3757 17.9802 18.4971 17.6582 18.5437 17.3222L18.8027 15.4882C18.4807 15.9922 18.0677 16.4005 17.5637 16.7132C17.0644 17.0259 16.5114 17.1822 15.9047 17.1822C15.4194 17.1822 14.9761 17.0865 14.5747 16.8952C14.1781 16.7039 13.8421 16.4402 13.5667 16.1042C13.2914 15.7635 13.0931 15.3715 12.9717 14.9282C12.8551 14.4849 12.8317 14.0089 12.9017 13.5002C12.9717 12.9869 13.1281 12.5085 13.3707 12.0652C13.6181 11.6172 13.9261 11.2252 14.2947 10.8892C14.6681 10.5485 15.0811 10.2825 15.5337 10.0912C15.9864 9.89987 16.4554 9.8042 16.9407 9.8042C17.5474 9.8042 18.0561 9.96053 18.4667 10.2732C18.8774 10.5859 19.1761 10.9965 19.3627 11.5052L19.5727 10.0002ZM15.9887 16.5872C16.5347 16.5872 17.0247 16.4449 17.4587 16.1602C17.8927 15.8709 18.2474 15.4929 18.5227 15.0262C18.8027 14.5549 18.9801 14.0462 19.0547 13.5002C19.1341 12.9402 19.0991 12.4245 18.9497 11.9532C18.8051 11.4819 18.5554 11.1062 18.2007 10.8262C17.8461 10.5415 17.4004 10.3992 16.8637 10.3992C16.3177 10.3992 15.8044 10.5392 15.3237 10.8192C14.8431 11.0945 14.4394 11.4679 14.1127 11.9392C13.7907 12.4105 13.5901 12.9309 13.5107 13.5002C13.4314 14.0742 13.4897 14.5945 13.6857 15.0612C13.8864 15.5279 14.1874 15.8989 14.5887 16.1742C14.9901 16.4495 15.4567 16.5872 15.9887 16.5872Z" fill="#131313"/>
</svg>
