<svg width="24" height="24" viewBox="0 0 24 24" fill="none" xmlns="http://www.w3.org/2000/svg">
<path d="M10.5051 16.9995L9.45513 14.4935H4.70913L3.65913 16.9995H2.27313L6.41713 7.22754H7.74713L11.8911 16.9995H10.5051ZM5.21313 13.2615V13.3315H8.95113V13.2615L7.10313 8.79554H7.07513L5.21313 13.2615ZM18.5728 9.85954H19.6928V16.6915C19.6928 17.8675 19.4082 18.7728 18.8388 19.4075C18.2695 20.0422 17.4435 20.3595 16.3608 20.3595C15.2875 20.3595 14.3075 20.1215 13.4208 19.6455V18.3855H13.4908C14.2842 18.8988 15.2128 19.1555 16.2768 19.1555C17.7048 19.1555 18.4188 18.3948 18.4188 16.8735V15.9635H18.3768C17.7328 16.6542 16.9628 16.9995 16.0668 16.9995C15.1708 16.9995 14.3728 16.6822 13.6728 16.0475C12.9822 15.4035 12.6368 14.5075 12.6368 13.3595C12.6368 12.2115 12.9822 11.3202 13.6728 10.6855C14.3728 10.0415 15.1708 9.71954 16.0668 9.71954C16.9628 9.71954 17.7328 10.0648 18.3768 10.7555H18.4188L18.5728 9.85954ZM18.4188 14.8015V11.9175C17.7468 11.2268 17.0468 10.8815 16.3188 10.8815C15.6002 10.8815 15.0168 11.0962 14.5688 11.5255C14.1302 11.9455 13.9108 12.5568 13.9108 13.3595C13.9108 14.1622 14.1302 14.7782 14.5688 15.2075C15.0168 15.6275 15.6002 15.8375 16.3188 15.8375C17.0468 15.8375 17.7468 15.4922 18.4188 14.8015Z" fill="#131313"/>
</svg>
