<svg width="24" height="24" viewBox="0 0 24 24" fill="none" xmlns="http://www.w3.org/2000/svg">
<path d="M7.84277 7.92871L4.54785 17H3.20117L6.99512 7.04688H7.86328L7.84277 7.92871ZM10.6045 17L7.30273 7.92871L7.28223 7.04688H8.15039L11.958 17H10.6045ZM10.4336 13.3154V14.3955H4.8418V13.3154H10.4336ZM17.8916 9.60352H19.04V16.8428C19.04 17.4945 18.9079 18.0505 18.6436 18.5107C18.3792 18.971 18.0101 19.3197 17.5361 19.5566C17.0667 19.7982 16.5244 19.9189 15.9092 19.9189C15.654 19.9189 15.3532 19.8779 15.0068 19.7959C14.665 19.7184 14.3278 19.584 13.9951 19.3926C13.667 19.2057 13.3913 18.9528 13.168 18.6338L13.8311 17.8818C14.141 18.2555 14.4645 18.5153 14.8018 18.6611C15.1436 18.807 15.4808 18.8799 15.8135 18.8799C16.4105 18.8799 16.8867 18.7113 17.2422 18.374C17.5977 18.0413 17.7754 17.5514 17.7754 16.9043V11.2305L17.8916 9.60352ZM12.7988 13.3838V13.2402C12.7988 12.4883 12.9173 11.8298 13.1543 11.2646C13.3913 10.695 13.7262 10.2529 14.1592 9.93848C14.5967 9.62402 15.1162 9.46679 15.7178 9.46679C16.1826 9.46679 16.5882 9.54882 16.9346 9.71288C17.2855 9.87239 17.5817 10.1071 17.8232 10.417C18.0693 10.7223 18.263 11.0915 18.4043 11.5244C18.5456 11.9574 18.6436 12.4473 18.6982 12.9941V13.623C18.6299 14.3431 18.4795 14.9674 18.2471 15.4961C18.0146 16.0202 17.6888 16.4258 17.2695 16.7129C16.8503 16.9954 16.3285 17.1367 15.7041 17.1367C15.1117 17.1367 14.5967 16.9749 14.1592 16.6514C13.7262 16.3232 13.3913 15.8766 13.1543 15.3115C12.9173 14.7464 12.7988 14.1038 12.7988 13.3838ZM14.0635 13.2402V13.3838C14.0635 13.8714 14.1296 14.3203 14.2617 14.7305C14.3984 15.1361 14.6104 15.4596 14.8975 15.7012C15.1846 15.9427 15.556 16.0635 16.0117 16.0635C16.431 16.0635 16.7773 15.9746 17.0508 15.7969C17.3242 15.6191 17.5407 15.3844 17.7002 15.0928C17.8643 14.8011 17.9919 14.4844 18.083 14.1426V12.4951C18.0329 12.2445 17.9554 12.0029 17.8506 11.7705C17.7503 11.5335 17.6182 11.3239 17.4541 11.1416C17.2946 10.9548 17.0964 10.8066 16.8594 10.6973C16.6224 10.5879 16.3444 10.5332 16.0254 10.5332C15.5651 10.5332 15.1891 10.6562 14.8975 10.9023C14.6104 11.1484 14.3984 11.4766 14.2617 11.8867C14.1296 12.2969 14.0635 12.748 14.0635 13.2402Z" fill="#131313"/>
</svg>
