<svg width="24" height="24" viewBox="0 0 24 24" fill="none" xmlns="http://www.w3.org/2000/svg">
<path d="M12.1952 15.9501C12.2698 16.2021 12.3072 16.5661 12.3072 17.0421C11.9338 17.0141 11.2012 17.0001 10.1092 17.0001C8.82118 17.0001 7.99985 17.0141 7.64518 17.0421C7.64518 16.6128 7.68251 16.2488 7.75718 15.9501C7.96251 15.9034 8.11185 15.8381 8.20518 15.7541C8.29851 15.6701 8.34518 15.5628 8.34518 15.4321C8.34518 15.3014 8.29385 15.1194 8.19118 14.8861L8.09318 14.6761C6.87051 14.6761 5.81118 14.7228 4.91518 14.8161L4.88718 14.8721C4.84051 14.9934 4.81718 15.1148 4.81718 15.2361C4.81718 15.4134 4.86385 15.5674 4.95718 15.6981C5.05985 15.8288 5.21385 15.9128 5.41918 15.9501C5.49385 16.2674 5.53118 16.6314 5.53118 17.0421C5.21385 17.0141 4.66785 17.0001 3.89318 17.0001C3.27718 17.0001 2.82918 17.0141 2.54918 17.0421C2.54918 16.6034 2.59585 16.2394 2.68918 15.9501C2.91318 15.9034 3.09518 15.7914 3.23518 15.6141C3.38451 15.4274 3.57585 15.0681 3.80918 14.5361L6.77718 7.53615C6.94518 7.49882 7.11318 7.47548 7.28118 7.46615C7.45851 7.45682 7.64518 7.45215 7.84118 7.45215L10.9492 14.2701C11.1732 14.7554 11.3505 15.1148 11.4812 15.3481C11.6118 15.5721 11.7238 15.7261 11.8172 15.8101C11.9198 15.8848 12.0458 15.9314 12.1952 15.9501ZM7.70118 13.7661L7.16918 12.5761C6.86118 11.8948 6.62318 11.2508 6.45518 10.6441C6.28718 11.2508 6.06318 11.8948 5.78318 12.5761L5.32118 13.7661H7.70118ZM17.5543 17.0981C16.677 17.0981 15.907 16.9441 15.2443 16.6361C14.591 16.3281 14.087 15.8988 13.7323 15.3481C13.387 14.7974 13.2143 14.1721 13.2143 13.4721C13.2143 12.6788 13.4103 12.0161 13.8023 11.4841C14.1943 10.9428 14.717 10.5461 15.3703 10.2941C16.033 10.0421 16.7703 9.91615 17.5823 9.91615C18.077 9.91615 18.5903 9.97215 19.1223 10.0841C19.6637 10.1961 20.0883 10.3268 20.3963 10.4761C20.3123 10.9521 20.2703 11.4888 20.2703 12.0861C20.1117 12.1701 19.939 12.2214 19.7523 12.2401C19.5657 12.2588 19.393 12.2681 19.2343 12.2681C19.085 12.2681 18.9917 12.2681 18.9543 12.2681C18.917 11.8481 18.7723 11.5308 18.5203 11.3161C18.2777 11.0921 17.9277 10.9801 17.4703 10.9801C16.985 10.9801 16.6303 11.1948 16.4063 11.6241C16.1823 12.0534 16.0703 12.5808 16.0703 13.2061C16.0703 14.0741 16.2197 14.7648 16.5183 15.2781C16.8263 15.7821 17.2417 16.0341 17.7643 16.0341C17.9043 16.0341 18.0163 16.0248 18.1003 16.0061C18.175 15.9874 18.231 15.9361 18.2683 15.8521C18.315 15.7588 18.3383 15.5954 18.3383 15.3621V15.1241C18.3383 14.9281 18.2777 14.7881 18.1563 14.7041C18.0443 14.6108 17.8297 14.5548 17.5123 14.5361C17.4657 14.2748 17.4423 13.9294 17.4423 13.5001C17.7783 13.5281 18.3477 13.5421 19.1503 13.5421C19.981 13.5421 20.583 13.5328 20.9563 13.5141C20.9563 13.9154 20.933 14.2561 20.8863 14.5361C20.6997 14.5548 20.5783 14.5968 20.5223 14.6621C20.4757 14.7274 20.4523 14.8348 20.4523 14.9841V15.2081C20.4523 15.4508 20.4663 15.6328 20.4943 15.7541C20.5223 15.8661 20.5783 16.0341 20.6623 16.2581C20.2703 16.5101 19.799 16.7154 19.2483 16.8741C18.707 17.0234 18.1423 17.0981 17.5543 17.0981Z" fill="#131313"/>
</svg>
