<svg width="24" height="24" viewBox="0 0 24 24" fill="none" xmlns="http://www.w3.org/2000/svg">
<g clip-path="url(#clip0_267_13373)">
<path d="M14.6695 16.0199C14.6695 16.2252 14.6415 16.3932 14.5855 16.5239C14.5295 16.6452 14.4548 16.7432 14.3615 16.8179C14.2682 16.8832 14.1608 16.9299 14.0395 16.9579C13.9275 16.9859 13.8108 16.9999 13.6895 16.9999H9.30752C9.20485 16.9999 9.10219 16.9906 8.99953 16.9719C8.89685 16.9439 8.80352 16.9019 8.71952 16.8459C8.64485 16.7806 8.58419 16.6966 8.53753 16.5939C8.49086 16.4819 8.46752 16.3372 8.46752 16.1599V12.8139H4.21152C4.08085 13.2992 3.98285 13.8172 3.91752 14.3679C3.85218 14.9186 3.81952 15.5159 3.81952 16.1599C3.81952 16.5146 3.74018 16.7432 3.58152 16.8459C3.43218 16.9486 3.25485 16.9999 3.04952 16.9999H2.55952V16.1599C2.55952 14.9466 2.66218 13.8779 2.86752 12.9539C3.08218 12.0206 3.36685 11.2132 3.72152 10.5319C4.08552 9.84125 4.50552 9.26725 4.98152 8.80992C5.45752 8.35259 5.96152 7.98392 6.49352 7.70392C7.02552 7.42392 7.56685 7.22325 8.11753 7.10192C8.67753 6.98059 9.21418 6.91992 9.72752 6.91992C10.0448 6.91992 10.2502 6.99925 10.3435 7.15792C10.4368 7.31659 10.4835 7.48925 10.4835 7.67592V8.03992H9.72752V16.0199H14.6695ZM8.46752 8.17992C7.64618 8.36659 6.89485 8.75392 6.21352 9.34192C5.53218 9.92059 4.98152 10.7279 4.56152 11.7639H8.46752V8.17992ZM19.0977 10.4199H17.8517C17.5157 10.4199 17.2263 10.4479 16.9837 10.5039C16.7503 10.5506 16.5543 10.6486 16.3957 10.7979C16.237 10.9379 16.1203 11.1339 16.0457 11.3859C15.971 11.6379 15.9337 11.9646 15.9337 12.3659V15.9499C16.1577 15.9499 16.405 15.9032 16.6757 15.8099C16.9557 15.7072 17.2357 15.5579 17.5157 15.3619C17.805 15.1566 18.085 14.9046 18.3557 14.6059C18.6357 14.2979 18.8783 13.9386 19.0837 13.5279C19.2983 13.1079 19.471 12.6319 19.6017 12.0999C19.7323 11.5679 19.7977 10.9752 19.7977 10.3219V9.43992H20.3017C21.0017 9.43992 21.3517 9.86459 21.3517 10.7139C21.3517 10.9659 21.3237 11.2086 21.2677 11.4419C21.2117 11.6752 21.1417 11.8992 21.0577 12.1139V16.0199H25.5517C25.5517 16.2252 25.5237 16.3932 25.4677 16.5239C25.4117 16.6452 25.337 16.7432 25.2437 16.8179C25.1503 16.8832 25.043 16.9299 24.9217 16.9579C24.8097 16.9859 24.693 16.9999 24.5717 16.9999H21.0437C21.025 17.8586 20.9363 18.5679 20.7777 19.1279C20.6283 19.6879 20.4043 20.1312 20.1057 20.4579C19.807 20.7846 19.4243 21.0132 18.9577 21.1439C18.5003 21.2746 17.9543 21.3399 17.3197 21.3399C17.021 21.3399 16.8157 21.2652 16.7037 21.1159C16.5917 20.9666 16.5357 20.7192 16.5357 20.3739V20.2199H17.3197C17.7583 20.2199 18.1317 20.1826 18.4397 20.1079C18.757 20.0426 19.0137 19.8839 19.2097 19.6319C19.415 19.3892 19.5643 19.0252 19.6577 18.5399C19.751 18.0639 19.7977 17.4106 19.7977 16.5799V14.2279C19.5457 14.6666 19.2657 15.0632 18.9577 15.4179C18.6497 15.7632 18.3277 16.0572 17.9917 16.2999C17.6557 16.5426 17.3103 16.7339 16.9557 16.8739C16.6103 17.0046 16.2697 17.0699 15.9337 17.0699C15.691 17.0699 15.4857 17.0372 15.3177 16.9719C15.159 16.9066 15.0283 16.8179 14.9257 16.7059C14.8323 16.5939 14.767 16.4632 14.7297 16.3139C14.6923 16.1552 14.6737 15.9872 14.6737 15.8099V12.3659C14.6737 11.8432 14.7297 11.3906 14.8417 11.0079C14.9537 10.6159 15.1357 10.2939 15.3877 10.0419C15.6397 9.78992 15.9663 9.60325 16.3677 9.48192C16.7783 9.36059 17.273 9.29992 17.8517 9.29992C18.253 9.29992 18.561 9.37459 18.7757 9.52392C18.9903 9.67325 19.0977 9.92525 19.0977 10.2799V10.4199Z" fill="#131313"/>
</g>
<defs>
<clipPath id="clip0_267_13373">
<rect width="24" height="24" fill="white"/>
</clipPath>
</defs>
</svg>
