<svg width="24" height="24" viewBox="0 0 24 24" fill="none" xmlns="http://www.w3.org/2000/svg">
<path d="M3.69159 18.2088C2.56176 18.2088 1.99685 17.7372 1.99685 16.7941C1.99685 15.9688 2.49299 14.9422 3.48527 13.7141C4.5365 12.4271 5.72527 11.6215 7.05159 11.2972C7.15966 11.2776 7.26281 11.2629 7.36106 11.253C7.45931 11.2334 7.55264 11.2236 7.64106 11.2236C8.19124 11.2236 8.46632 11.4102 8.46632 11.7836C8.46632 12.0193 8.4172 12.1372 8.31896 12.1372L8.26001 12.0488C8.25018 12.0292 8.24036 12.0144 8.23053 12.0046C8.22071 11.985 8.20597 11.9653 8.18632 11.9457L8.08317 11.7983C7.91615 11.5723 7.70001 11.4593 7.43474 11.4593C6.43264 11.4593 5.21439 12.2699 3.78001 13.8909C3.01369 14.7555 2.63053 15.6692 2.63053 16.632C2.63053 17.6243 3.10702 18.0713 4.06001 17.973C4.86562 17.8846 5.8186 17.4965 6.91895 16.8088C8.01931 16.1211 9.28667 15.1534 10.7211 13.9057L11.8853 12.8888C11.0404 12.9478 9.76808 13.0804 8.06843 13.2867C7.91124 13.2867 7.83264 13.1983 7.83264 13.0215C7.83264 12.7267 7.95545 12.5793 8.20106 12.5793C8.74141 12.4222 9.18352 12.3436 9.52738 12.3436H9.54211C9.54211 12.3632 9.48808 12.4025 9.38001 12.4615C9.24246 12.54 9.19334 12.5793 9.23264 12.5793C9.6551 12.5793 10.1021 12.5793 10.5737 12.5793C11.0551 12.5695 11.566 12.5597 12.1063 12.5499C12.126 12.54 12.1849 12.5351 12.2832 12.5351L14.6411 10.472C15.0832 10.079 15.4565 9.74004 15.7611 9.45513C16.0754 9.16039 16.326 8.91477 16.5126 8.71828C16.5912 8.63969 16.6502 8.60039 16.6895 8.60039C16.719 8.60039 16.7337 8.62004 16.7337 8.65934C16.7337 8.71828 16.7042 8.77723 16.6453 8.83618C16.4586 9.02284 16.2425 9.2439 15.9969 9.49934C15.7611 9.74495 15.4909 10.02 15.1863 10.3246C14.8818 10.6292 14.5526 10.9632 14.199 11.3267C13.8453 11.6902 13.4621 12.0832 13.0495 12.5057H13.3147C13.3639 12.5057 13.413 12.5057 13.4621 12.5057C13.5211 12.5057 13.5849 12.5007 13.6537 12.4909H14.2579C14.5428 11.9407 14.8719 11.42 15.2453 10.9288L16.6011 9.14565C16.827 8.85091 17.0628 8.58074 17.3084 8.33512C17.5639 8.08951 17.8193 7.85863 18.0747 7.64249C18.173 7.54425 18.2712 7.49512 18.3695 7.49512C18.4186 7.49512 18.4432 7.50986 18.4432 7.53934C18.4432 7.57863 18.4088 7.62776 18.34 7.6867C17.9667 8.00109 17.5491 8.44811 17.0874 9.02776C16.6256 9.59758 16.1197 10.3099 15.5695 11.1646C15.4123 11.4102 15.2698 11.6411 15.1421 11.8572C15.0242 12.0734 14.9211 12.2797 14.8326 12.4762C14.9014 12.4664 14.9653 12.4615 15.0242 12.4615C15.093 12.4615 15.1519 12.4615 15.2011 12.4615H15.4958C15.7119 12.4615 15.82 12.4958 15.82 12.5646C15.82 12.6236 15.7316 12.6629 15.5547 12.6825C15.5351 12.6825 15.5105 12.6825 15.4811 12.6825C15.4614 12.6727 15.4418 12.6678 15.4221 12.6678C15.2256 12.6678 14.9702 12.7415 14.6558 12.8888C14.1646 14.0088 13.919 14.9078 13.919 15.5857C13.919 15.8018 13.9386 15.9492 13.9779 16.0278C14.0074 16.0671 14.0516 16.0867 14.1105 16.0867C14.199 16.0867 14.3709 16.0032 14.6263 15.8362C14.9407 15.6102 15.1176 15.4923 15.1569 15.4825C15.2944 15.4039 15.4467 15.3204 15.6137 15.232C15.7807 15.1436 15.9674 15.0551 16.1737 14.9667C16.2326 14.9471 16.2621 14.9618 16.2621 15.0109V15.0404C16.2621 15.0699 16.2228 15.0993 16.1442 15.1288C15.8691 15.2271 15.5007 15.4334 15.039 15.7478C14.5183 16.1211 14.1351 16.465 13.8895 16.7793C13.8502 16.8383 13.7765 16.8678 13.6684 16.8678C13.5407 16.8678 13.413 16.8186 13.2853 16.7204C13.1576 16.6222 13.0888 16.5141 13.079 16.3962C13.079 16.3471 13.074 16.3029 13.0642 16.2636C13.0642 16.2243 13.0642 16.185 13.0642 16.1457C13.0642 15.3106 13.413 14.1857 14.1105 12.7709C13.8354 12.7807 13.5554 12.8151 13.2705 12.8741C12.9856 12.9232 12.6909 12.9871 12.3863 13.0657L11.0453 14.2741C10.4853 14.7751 9.92036 15.2369 9.35053 15.6593C8.79053 16.0818 8.22071 16.465 7.64106 16.8088C6.08878 17.7422 4.77229 18.2088 3.69159 18.2088ZM15.5588 20.8615C15.0479 20.8615 14.6156 20.665 14.2619 20.272C13.9082 19.8692 13.7314 19.4074 13.7314 18.8867C13.7314 18.4937 13.8346 18.1302 14.0409 17.7962C14.6598 17.4818 15.4654 17.0937 16.4577 16.632C17.4598 16.18 18.6633 15.6593 20.0682 15.0699C20.1075 14.9225 20.1518 14.7457 20.2009 14.5393C20.25 14.3232 20.304 14.0727 20.363 13.7878L18.624 14.893C18.2114 15.1583 17.8577 15.3548 17.563 15.4825C17.2781 15.6102 17.057 15.6741 16.8998 15.6741C16.5363 15.6741 16.3546 15.4874 16.3546 15.1141C16.3546 14.9471 16.389 14.7948 16.4577 14.6572C16.6837 14.1169 17.3125 13.5127 18.344 12.8446C19.4247 12.1471 20.304 11.7983 20.9819 11.7983C21.2865 11.7983 21.4388 11.8425 21.4388 11.9309C21.4388 12.0193 21.2865 12.1422 20.9819 12.2993C20.8935 12.26 20.7658 12.2404 20.5988 12.2404C20.0781 12.2404 19.3658 12.5646 18.4619 13.213C17.5384 13.8909 17.0767 14.4558 17.0767 14.9078C17.0767 15.0551 17.1504 15.1288 17.2977 15.1288C17.396 15.1288 17.504 15.0993 17.6219 15.0404C17.9658 14.8734 18.3735 14.6523 18.8451 14.3772C19.3167 14.0923 19.8521 13.7436 20.4514 13.3309C20.4907 13.0853 20.6184 12.9085 20.8346 12.8004C20.8739 12.7807 20.9475 12.7562 21.0556 12.7267C21.1735 12.6972 21.3258 12.6629 21.5125 12.6236L21.2177 13.5667C21.1195 13.9007 21.0016 14.2839 20.864 14.7162C20.9426 14.6965 21.0212 14.672 21.0998 14.6425C21.1882 14.613 21.2816 14.5836 21.3798 14.5541C21.4682 14.5246 21.5616 14.4951 21.6598 14.4657C21.7581 14.4362 21.8563 14.4116 21.9546 14.392C21.9644 14.392 21.9742 14.392 21.984 14.392C21.9939 14.3822 22.0037 14.3772 22.0135 14.3772C22.0626 14.3772 22.1118 14.3969 22.1609 14.4362C22.21 14.4755 22.2346 14.505 22.2346 14.5246L22.1904 14.5688C21.2865 14.7751 20.7658 15.0944 20.6282 15.5267C20.4121 16.2439 20.1567 16.8972 19.8619 17.4867C19.577 18.086 19.2528 18.6165 18.8893 19.0783C17.9363 20.2671 16.8261 20.8615 15.5588 20.8615ZM15.3967 20.5815C16.5265 20.5815 17.5384 19.9723 18.4325 18.7541C18.7763 18.2825 19.076 17.7716 19.3314 17.2215C19.5868 16.6713 19.7981 16.0818 19.9651 15.453C19.523 15.6495 19.0907 15.8411 18.6682 16.0278C18.2458 16.2144 17.8135 16.4011 17.3714 16.5878C16.4086 17.0397 15.6226 17.5702 15.0135 18.1793C14.6205 18.5723 14.424 18.98 14.424 19.4025C14.424 19.7071 14.5272 19.9772 14.7335 20.213C14.93 20.4586 15.1511 20.5815 15.3967 20.5815Z" fill="#131313"/>
</svg>
