<svg width="24" height="24" viewBox="0 0 24 24" fill="none" xmlns="http://www.w3.org/2000/svg">
<path d="M8.43625 12.6276C8.03724 12.5751 7.64349 12.5488 7.25499 12.5488C6.8665 12.5488 6.47275 12.4911 6.07375 12.3756C5.82175 13.0056 5.57499 13.6408 5.33349 14.2813C5.10249 14.9113 4.89774 15.5571 4.71924 16.2186C4.62474 16.2396 4.53549 16.2501 4.45149 16.2501C4.37799 16.2396 4.29924 16.2238 4.21524 16.2028C4.13124 16.1713 4.04724 16.1503 3.96324 16.1398C3.88974 16.1293 3.81099 16.1188 3.72699 16.1083C3.59049 16.0873 3.50649 16.0611 3.47499 16.0296C3.45399 15.9876 3.45399 15.8983 3.47499 15.7618C3.55899 15.3208 3.66399 14.8956 3.78999 14.4861C3.92649 14.0766 4.06824 13.6671 4.21524 13.2576C4.45674 12.5541 4.70349 11.8558 4.95549 11.1628C5.20749 10.4593 5.46475 9.76105 5.72725 9.06805C5.89525 8.63755 6.0685 8.21755 6.24699 7.80805C6.4255 7.38805 6.604 6.96805 6.7825 6.54805C6.835 6.41155 6.89275 6.2803 6.95574 6.1543C7.02924 6.0178 7.0975 5.8813 7.1605 5.7448C7.213 5.6398 7.2655 5.5768 7.318 5.5558C7.381 5.5243 7.47025 5.5348 7.58575 5.5873C7.83775 5.6923 8.095 5.7658 8.3575 5.8078C8.62 5.8498 8.88775 5.87605 9.16075 5.88655C9.54925 5.88655 9.8275 6.06505 9.9955 6.42205C10.1635 6.78955 10.2843 7.1518 10.3578 7.5088C10.4418 7.8658 10.51 8.2228 10.5625 8.5798C10.615 8.9368 10.6833 9.29905 10.7673 9.66655C10.8828 10.1916 10.9615 10.7166 11.0035 11.2416C11.0455 11.7666 11.098 12.2968 11.161 12.8323C11.2135 13.2103 11.2608 13.5883 11.3028 13.9663C11.3553 14.3443 11.4078 14.7223 11.4603 15.1003C11.4918 15.3208 11.5128 15.5413 11.5233 15.7618C11.5443 15.9718 11.518 16.1818 11.4445 16.3919C11.392 16.5494 11.3343 16.6386 11.2713 16.6596C11.2188 16.6911 11.119 16.6806 10.972 16.6281C10.7935 16.5756 10.615 16.5284 10.4365 16.4864C10.2685 16.4549 10.0953 16.4181 9.91675 16.3761C9.86425 16.3656 9.817 16.3551 9.775 16.3446C9.7435 16.3446 9.70149 16.3394 9.649 16.3289C9.376 16.2764 9.18175 16.1923 9.06625 16.0768C8.96125 15.9613 8.8825 15.7671 8.83 15.4941C8.788 15.2526 8.75125 15.0058 8.71975 14.7538C8.68825 14.5018 8.6515 14.2551 8.6095 14.0136C8.578 13.7826 8.54649 13.5568 8.515 13.3363C8.494 13.1053 8.46775 12.8691 8.43625 12.6276ZM7.74325 8.1073C7.44925 8.7058 7.18675 9.3148 6.95574 9.9343C6.72474 10.5538 6.49374 11.1786 6.26274 11.8086C6.63025 11.8296 6.982 11.8453 7.318 11.8558C7.654 11.8558 8.0005 11.8611 8.3575 11.8716C8.305 11.2311 8.22625 10.6011 8.12124 9.98155C8.01625 9.36205 7.89025 8.7373 7.74325 8.1073ZM21.6549 12.8953C21.8649 12.9058 21.9332 13.0161 21.8597 13.2261C21.8492 13.2576 21.8229 13.3048 21.7809 13.3678C21.7599 13.3993 21.7074 13.4833 21.6234 13.6198C21.5499 13.7563 21.4659 13.9033 21.3714 14.0608C21.2769 14.2183 21.1877 14.3653 21.1037 14.5018C21.0302 14.6383 20.9829 14.7171 20.9619 14.7381C20.5524 15.2526 20.1167 15.7093 19.6547 16.1083C19.1927 16.4969 18.7464 16.7909 18.3159 16.9904C18.2844 17.0849 18.2529 17.1794 18.2214 17.2739C18.2004 17.3684 18.1794 17.4629 18.1584 17.5574C18.0219 18.1034 17.8854 18.6441 17.7489 19.1796C17.6229 19.7256 17.4864 20.2664 17.3394 20.8019C17.2554 21.0749 17.1662 21.3426 17.0717 21.6051C16.9772 21.8781 16.8722 22.1459 16.7567 22.4084C16.5677 22.8179 16.2474 23.1119 15.7959 23.2904C15.6384 23.3429 15.4809 23.3744 15.3234 23.3849C15.1764 23.4059 15.0189 23.3901 14.8509 23.3376C14.7144 23.2956 14.5779 23.2589 14.4414 23.2274C14.3154 23.2064 14.1789 23.1801 14.0319 23.1486C13.7904 23.0961 13.5699 22.9649 13.3704 22.7549C13.1814 22.5554 13.0607 22.3349 13.0082 22.0934C12.9242 21.7049 12.9137 21.3269 12.9767 20.9594C13.0292 20.5919 13.1342 20.2296 13.2917 19.8726C13.4912 19.4421 13.7274 19.0379 14.0004 18.6599C14.2734 18.2924 14.5674 17.9301 14.8824 17.5731C15.0819 17.3526 15.2867 17.1426 15.4967 16.9431C15.7067 16.7436 15.9219 16.5441 16.1424 16.3446C16.2789 16.2291 16.3682 16.0768 16.4102 15.8878C16.4627 15.7093 16.5152 15.5361 16.5677 15.3681C16.6202 15.1896 16.6727 15.0111 16.7252 14.8326C16.7462 14.7696 16.7619 14.7066 16.7724 14.6436C16.7934 14.5806 16.8144 14.5176 16.8354 14.4546C16.8249 14.4441 16.8144 14.4388 16.8039 14.4388C16.7934 14.4388 16.7829 14.4336 16.7724 14.4231C16.6464 14.5386 16.5152 14.6541 16.3787 14.7696C16.2422 14.8851 16.1162 15.0111 16.0007 15.1476C15.7592 15.3996 15.5072 15.6463 15.2447 15.8878C14.9927 16.1188 14.7249 16.3394 14.4414 16.5494C14.3994 16.5809 14.3574 16.6124 14.3154 16.6439C14.2734 16.6754 14.2262 16.7069 14.1737 16.7384C13.9322 16.9064 13.6802 16.9379 13.4177 16.8329C13.2707 16.7804 13.1237 16.7384 12.9767 16.7069C12.8192 16.6754 12.6617 16.6491 12.5042 16.6281C12.3362 16.6071 12.2102 16.5494 12.1262 16.4549C12.0422 16.3709 11.9739 16.2554 11.9214 16.1083C11.8164 15.7933 11.8059 15.4626 11.8899 15.1161C11.9634 14.7696 12.0527 14.4283 12.1577 14.0923C12.2522 13.7458 12.3887 13.4151 12.5672 13.1001C12.7142 12.8271 12.8612 12.5541 13.0082 12.2811C13.1552 12.0081 13.3074 11.7351 13.4649 11.4621C13.6329 11.1891 13.8324 10.9528 14.0634 10.7533C14.2734 10.5643 14.5044 10.4593 14.7564 10.4383C15.0189 10.4068 15.2814 10.4173 15.5439 10.4698C15.6804 10.4908 15.8117 10.5171 15.9377 10.5486C16.0742 10.5696 16.2054 10.5906 16.3314 10.6116C16.6989 10.6746 16.9929 10.8268 17.2134 11.0683C17.3079 11.1733 17.4024 11.2783 17.4969 11.3833C17.5914 11.4778 17.6912 11.5776 17.7962 11.6826C17.8487 11.6616 17.9064 11.6248 17.9694 11.5723C18.0429 11.5093 18.1427 11.4936 18.2687 11.5251C18.4367 11.5671 18.6047 11.6038 18.7727 11.6353C18.9407 11.6668 19.1087 11.6983 19.2767 11.7298C19.3712 11.7508 19.4394 11.7823 19.4814 11.8243C19.5234 11.8558 19.5392 11.9188 19.5287 12.0133C19.5287 12.1078 19.5182 12.2076 19.4972 12.3126C19.4762 12.4071 19.4552 12.5016 19.4342 12.5961L18.7884 15.0846C18.9039 15.0006 19.0194 14.9008 19.1349 14.7853C19.2399 14.6908 19.3502 14.5806 19.4657 14.4546C19.5917 14.3286 19.7229 14.1921 19.8594 14.0451C19.9644 13.9191 20.0694 13.7721 20.1744 13.6041C20.2899 13.4256 20.4054 13.2156 20.5209 12.9741C20.5734 12.8586 20.6154 12.8008 20.6469 12.8008C20.6889 12.7903 20.7834 12.7956 20.9304 12.8166C21.0459 12.8376 21.1614 12.8533 21.2769 12.8638C21.4029 12.8638 21.5289 12.8743 21.6549 12.8953ZM16.6937 12.6433C16.7882 12.5593 16.8144 12.4543 16.7724 12.3283C16.7094 12.0658 16.5992 11.8401 16.4417 11.6511C16.2947 11.4621 16.1214 11.2888 15.9219 11.1313C15.7014 11.2783 15.5439 11.4726 15.4494 11.7141C15.3969 11.8506 15.3444 11.9871 15.2919 12.1236C15.2499 12.2496 15.2027 12.3808 15.1502 12.5173L14.2052 14.7381C14.1842 14.7906 14.1632 14.8431 14.1422 14.8956C14.1317 14.9376 14.1159 14.9848 14.0949 15.0373C14.1159 15.0478 14.1369 15.0636 14.1579 15.0846C14.2104 15.0426 14.2577 15.0058 14.2997 14.9743C14.3417 14.9428 14.3837 14.9061 14.4257 14.8641C14.4677 14.8221 14.5044 14.7801 14.5359 14.7381C14.5674 14.6961 14.6042 14.6541 14.6462 14.6121C14.9927 14.2761 15.3339 13.9506 15.6699 13.6356C16.0164 13.3101 16.3577 12.9793 16.6937 12.6433ZM15.7487 18.5969C15.7277 18.5864 15.7119 18.5759 15.7014 18.5653C15.7014 18.5653 15.6909 18.5601 15.6699 18.5496C15.6594 18.5706 15.6489 18.5916 15.6384 18.6126C15.6384 18.6441 15.6279 18.6704 15.6069 18.6914C15.5229 18.8069 15.4442 18.9119 15.3707 19.0064C15.3077 19.1114 15.2342 19.2164 15.1502 19.3214C14.7197 19.8149 14.4414 20.3871 14.3154 21.0381C14.2629 21.2796 14.2524 21.5159 14.2839 21.7469C14.3154 21.9779 14.4099 22.2089 14.5674 22.4399C14.8509 22.1984 15.0242 21.9254 15.0872 21.6209C15.2027 21.1379 15.3129 20.6549 15.4179 20.1719C15.5229 19.6889 15.6332 19.2059 15.7487 18.7229V18.5969Z" fill="#131313"/>
</svg>
