<svg width="24" height="24" viewBox="0 0 24 24" fill="none" xmlns="http://www.w3.org/2000/svg">
<path d="M2.56662 16.9998L8.11063 7.75977H9.95863L11.2046 16.9998H9.74863L9.42663 14.4938H5.66063L4.20463 16.9998H2.56662ZM6.37463 13.2758H9.30063L8.76863 9.15977L6.37463 13.2758ZM15.2278 20.0098C14.8264 20.0098 14.4438 19.9538 14.0798 19.8418C13.7158 19.7391 13.3938 19.5851 13.1138 19.3798C12.8431 19.1838 12.6191 18.9411 12.4418 18.6518C12.2738 18.3625 12.1664 18.0358 12.1198 17.6718L13.6178 17.3078C13.6924 17.7931 13.8558 18.1711 14.1078 18.4418C14.3691 18.7218 14.7891 18.8618 15.3678 18.8618C15.6851 18.8618 15.9838 18.8011 16.2638 18.6798C16.5438 18.5585 16.7911 18.3531 17.0058 18.0638C17.2204 17.7838 17.3838 17.3825 17.4958 16.8598L17.8878 15.0818L18.0558 14.9698C17.9158 15.5391 17.6264 15.9918 17.1878 16.3278C16.7491 16.6638 16.2311 16.8318 15.6338 16.8318C15.1111 16.8318 14.6444 16.7058 14.2338 16.4538C13.8231 16.2018 13.4964 15.8518 13.2538 15.4038C13.0204 14.9558 12.9038 14.4518 12.9038 13.8918C12.9038 13.3131 12.9878 12.7811 13.1558 12.2958C13.3331 11.8105 13.5758 11.3858 13.8838 11.0218C14.2011 10.6485 14.5744 10.3638 15.0038 10.1678C15.4331 9.96244 15.9044 9.85977 16.4178 9.85977C16.8564 9.85977 17.2484 9.94844 17.5938 10.1258C17.9391 10.2938 18.2144 10.5458 18.4198 10.8818C18.6344 11.2085 18.7464 11.6098 18.7558 12.0858L18.5318 12.2678L19.0498 9.99977H20.5478L18.9378 16.8878C18.7698 17.6438 18.5084 18.2458 18.1538 18.6938C17.8084 19.1511 17.3884 19.4825 16.8938 19.6878C16.3991 19.9025 15.8438 20.0098 15.2278 20.0098ZM16.1518 15.6418C16.5531 15.6418 16.9078 15.5205 17.2158 15.2778C17.5331 15.0258 17.7851 14.6898 17.9718 14.2698C18.1584 13.8498 18.2518 13.3831 18.2518 12.8698C18.2518 12.4965 18.1864 12.1791 18.0558 11.9178C17.9251 11.6471 17.7338 11.4371 17.4818 11.2878C17.2391 11.1385 16.9544 11.0638 16.6278 11.0638C16.1798 11.0638 15.7878 11.1851 15.4518 11.4278C15.1251 11.6611 14.8684 11.9831 14.6818 12.3938C14.4951 12.8045 14.4018 13.2711 14.4018 13.7938C14.4018 14.3351 14.5511 14.7785 14.8498 15.1238C15.1578 15.4691 15.5918 15.6418 16.1518 15.6418Z" fill="#131313"/>
</svg>
