<svg width="24" height="24" viewBox="0 0 24 24" fill="none" xmlns="http://www.w3.org/2000/svg">
<path d="M12.4996 16.9998H12.0796L10.8056 13.8638H6.21357L4.92557 16.9998H4.51957L8.28557 7.75977H8.73357L12.4996 16.9998ZM6.35357 13.4998H10.6516L8.50957 8.16577L6.35357 13.4998ZM19.5794 8.71177L19.6914 9.06177C19.6821 9.06177 19.6727 9.06177 19.6634 9.06177C19.6541 9.06177 19.6447 9.06177 19.6354 9.06177C19.1781 9.06177 18.8281 9.1971 18.5854 9.46777C18.3427 9.73844 18.2214 10.1025 18.2214 10.5598L17.9414 10.4338C17.9414 10.0885 18.0067 9.78977 18.1374 9.53777C18.2774 9.27644 18.4641 9.07577 18.6974 8.93577C18.9401 8.78644 19.2201 8.71177 19.5374 8.71177C19.5561 8.71177 19.5654 8.71177 19.5654 8.71177C19.5654 8.71177 19.5701 8.71177 19.5794 8.71177ZM17.3114 16.4118C18.0207 16.4118 18.5761 16.5565 18.9774 16.8458C19.3881 17.1258 19.5934 17.5038 19.5934 17.9798C19.5934 18.3811 19.4534 18.7311 19.1734 19.0298C18.9027 19.3378 18.5247 19.5758 18.0394 19.7438C17.5541 19.9211 16.9941 20.0098 16.3594 20.0098C15.3421 20.0098 14.5487 19.8325 13.9794 19.4778C13.4101 19.1325 13.1254 18.6845 13.1254 18.1338C13.1254 17.7231 13.2794 17.3731 13.5874 17.0838C13.8954 16.7945 14.3154 16.6218 14.8474 16.5658L14.8194 16.6218C14.5301 16.5471 14.2687 16.4118 14.0354 16.2158C13.8021 16.0198 13.6854 15.7445 13.6854 15.3898C13.6854 14.9978 13.8347 14.6851 14.1334 14.4518C14.4321 14.2185 14.8054 14.0971 15.2534 14.0878L15.9674 14.2418H15.5754C15.1554 14.2511 14.7961 14.3491 14.4974 14.5358C14.2081 14.7131 14.0634 14.9791 14.0634 15.3338C14.0634 15.6978 14.2034 15.9685 14.4834 16.1458C14.7727 16.3231 15.1181 16.4118 15.5194 16.4118H17.3114ZM16.3874 19.6738C16.9381 19.6738 17.4234 19.6038 17.8434 19.4638C18.2727 19.3238 18.6087 19.1278 18.8514 18.8758C19.0941 18.6238 19.2154 18.3391 19.2154 18.0218C19.2154 17.6391 19.0381 17.3311 18.6834 17.0978C18.3381 16.8645 17.8574 16.7478 17.2414 16.7478H15.3794C14.8381 16.7478 14.3901 16.8691 14.0354 17.1118C13.6807 17.3638 13.5034 17.6858 13.5034 18.0778C13.5034 18.5538 13.7601 18.9365 14.2734 19.2258C14.7867 19.5245 15.4914 19.6738 16.3874 19.6738ZM16.2754 9.85977C16.8261 9.85977 17.3067 9.9531 17.7174 10.1398C18.1374 10.3265 18.4641 10.5878 18.6974 10.9238C18.9307 11.2505 19.0474 11.6378 19.0474 12.0858C19.0474 12.5338 18.9307 12.9258 18.6974 13.2618C18.4641 13.5978 18.1374 13.8591 17.7174 14.0458C17.3067 14.2325 16.8261 14.3258 16.2754 14.3258C15.4261 14.3258 14.7494 14.1205 14.2454 13.7098C13.7414 13.2991 13.4894 12.7578 13.4894 12.0858C13.4894 11.6378 13.6014 11.2505 13.8254 10.9238C14.0587 10.5878 14.3854 10.3265 14.8054 10.1398C15.2347 9.9531 15.7247 9.85977 16.2754 9.85977ZM16.2754 10.1958C15.5661 10.1958 14.9874 10.3685 14.5394 10.7138C14.1007 11.0591 13.8814 11.5165 13.8814 12.0858C13.8814 12.6551 14.1007 13.1171 14.5394 13.4718C14.9874 13.8171 15.5661 13.9898 16.2754 13.9898C16.9847 13.9898 17.5541 13.8171 17.9834 13.4718C18.4221 13.1171 18.6414 12.6551 18.6414 12.0858C18.6414 11.5165 18.4221 11.0591 17.9834 10.7138C17.5541 10.3685 16.9847 10.1958 16.2754 10.1958Z" fill="#131313"/>
</svg>
