<svg width="24" height="24" viewBox="0 0 24 24" fill="none" xmlns="http://www.w3.org/2000/svg">
<path d="M3.29037 17L6.59437 6.24805H8.69437L11.9284 17H10.1784L8.24637 10.308C8.19037 10.1213 8.12503 9.88338 8.05037 9.59405C7.98503 9.29538 7.91037 8.98738 7.82637 8.67005C7.7517 8.34338 7.67703 8.03538 7.60237 7.74605C7.53703 7.44738 7.48103 7.20472 7.43437 7.01805H7.79837C7.7517 7.20472 7.69103 7.44738 7.61637 7.74605C7.5417 8.04472 7.46237 8.36205 7.37837 8.69805C7.29437 9.02472 7.21037 9.33738 7.12637 9.63605C7.0517 9.93472 6.98637 10.182 6.93037 10.378L4.99837 17H3.29037ZM5.27837 14.634V13.332H9.80037V14.634H5.27837ZM17.04 11.848C17.04 11.4747 16.9793 11.1667 16.858 10.924C16.7367 10.6813 16.5733 10.4993 16.368 10.378C16.1627 10.2567 15.9387 10.196 15.696 10.196C15.4533 10.196 15.2293 10.2567 15.024 10.378C14.828 10.4993 14.6647 10.6813 14.534 10.924C14.4127 11.1667 14.352 11.4793 14.352 11.862C14.352 12.2167 14.4127 12.5153 14.534 12.758C14.6647 13.0007 14.8327 13.1827 15.038 13.304C15.2433 13.416 15.4673 13.472 15.71 13.472C15.9527 13.472 16.172 13.416 16.368 13.304C16.5733 13.1827 16.7367 13.0007 16.858 12.758C16.9793 12.5153 17.04 12.212 17.04 11.848ZM18.692 11.862C18.692 12.4593 18.5613 12.9773 18.3 13.416C18.0387 13.8453 17.6793 14.1813 17.222 14.424C16.774 14.6573 16.27 14.774 15.71 14.774C15.1407 14.774 14.6273 14.6573 14.17 14.424C13.722 14.1813 13.3673 13.8453 13.106 13.416C12.8447 12.9773 12.714 12.464 12.714 11.876C12.714 11.26 12.84 10.7327 13.092 10.294C13.3533 9.84605 13.7127 9.50538 14.17 9.27205C14.6273 9.02938 15.1407 8.90805 15.71 8.90805C16.2607 8.90805 16.76 9.03405 17.208 9.28605C17.656 9.53805 18.0153 9.88338 18.286 10.322C18.5567 10.7607 18.692 11.274 18.692 11.862ZM19.504 8.90805V10.196L17.138 10.112L15.71 9.04805L19.504 8.90805ZM14.394 16.314L15.01 16.846C14.6553 17.0233 14.3847 17.2193 14.198 17.434C14.0207 17.658 13.932 17.882 13.932 18.106C13.932 18.414 14.086 18.6567 14.394 18.834C14.702 19.0207 15.1313 19.114 15.682 19.114C16.298 19.114 16.7973 19.002 17.18 18.778C17.5627 18.5633 17.754 18.274 17.754 17.91C17.754 17.63 17.6233 17.4153 17.362 17.266C17.11 17.126 16.7647 17.0607 16.326 17.07L14.828 17.098C14.3893 17.1073 14.0207 17.0373 13.722 16.888C13.4233 16.7387 13.1947 16.5427 13.036 16.3C12.8867 16.0573 12.812 15.796 12.812 15.516C12.812 15.152 12.9427 14.7973 13.204 14.452C13.4747 14.1067 13.8853 13.8593 14.436 13.71L14.674 14.55C14.4967 14.6247 14.3613 14.7227 14.268 14.844C14.184 14.9653 14.142 15.0773 14.142 15.18C14.142 15.3667 14.2167 15.5113 14.366 15.614C14.5247 15.7073 14.744 15.7493 15.024 15.74L16.522 15.712C17.446 15.6933 18.1507 15.8847 18.636 16.286C19.1307 16.6873 19.378 17.1867 19.378 17.784C19.378 18.2413 19.2287 18.6707 18.93 19.072C18.6407 19.4827 18.2067 19.8093 17.628 20.052C17.0493 20.2947 16.3307 20.416 15.472 20.416C14.912 20.416 14.3987 20.3413 13.932 20.192C13.4653 20.0427 13.092 19.8233 12.812 19.534C12.532 19.2447 12.392 18.8947 12.392 18.484C12.392 18.0827 12.56 17.6907 12.896 17.308C13.232 16.9347 13.7313 16.6033 14.394 16.314Z" fill="#131313"/>
</svg>
