<svg width="24" height="24" viewBox="0 0 24 24" fill="none" xmlns="http://www.w3.org/2000/svg">
<path d="M7.18214 17.0279C7.09814 17.0279 6.96747 17.0232 6.79014 17.0139C6.62214 17.0046 6.45414 16.9906 6.28614 16.9719L8.68014 7.43788C8.70814 7.26055 8.89481 7.17188 9.24014 7.17188C9.36147 7.17188 9.48281 7.17654 9.60414 7.18587C9.72547 7.1952 9.82814 7.20455 9.91214 7.21388L12.3061 16.7619C12.3248 16.8459 12.2968 16.9112 12.2221 16.9579C12.1475 17.0046 11.9655 17.0279 11.6761 17.0279C11.5828 17.0279 11.4661 17.0232 11.3261 17.0139C11.1861 17.0139 11.0228 17.0092 10.8361 16.9999L9.71614 11.8759C9.66947 11.6052 9.61814 11.3159 9.56214 11.0079C9.50614 10.6999 9.45481 10.3919 9.40814 10.0839C9.37081 9.76654 9.34281 9.4772 9.32414 9.21587C9.29614 9.4772 9.25881 9.76654 9.21214 10.0839C9.16547 10.3919 9.11881 10.6999 9.07214 11.0079C9.02547 11.3159 8.96947 11.6052 8.90414 11.8759L7.84014 16.7479C7.82147 16.8412 7.77947 16.9112 7.71414 16.9579C7.64881 17.0046 7.47147 17.0279 7.18214 17.0279ZM7.82614 14.6899V13.4019H11.0461V14.6899H7.82614ZM14.8055 19.7439C14.1801 19.7439 13.7041 19.6646 13.3775 19.5059C13.0508 19.3472 12.8315 19.1466 12.7195 18.9039C12.6075 18.6612 12.5515 18.4232 12.5515 18.1899C12.5515 17.8539 12.6448 17.5459 12.8315 17.2659C13.0181 16.9952 13.2608 16.7572 13.5595 16.5519C13.8581 16.3466 14.1848 16.1926 14.5395 16.0899L15.0155 16.5099C14.8475 16.5752 14.6841 16.6779 14.5255 16.8179C14.3761 16.9579 14.2548 17.1119 14.1615 17.2799C14.0775 17.4572 14.0355 17.6392 14.0355 17.8259C14.0355 17.9566 14.0588 18.0686 14.1055 18.1619C14.1615 18.2552 14.2548 18.3252 14.3855 18.3719C14.5255 18.4186 14.7168 18.4419 14.9595 18.4419C15.3515 18.4419 15.6268 18.3346 15.7855 18.1199C15.9441 17.9146 16.0235 17.7139 16.0235 17.5179C16.0235 17.3499 15.9861 17.2099 15.9115 17.0979C15.8461 16.9952 15.6968 16.9159 15.4635 16.8599C15.2395 16.7946 14.8941 16.7479 14.4275 16.7199C14.0821 16.6919 13.7835 16.6452 13.5315 16.5799C13.2795 16.5052 13.0835 16.4026 12.9435 16.2719C12.8035 16.1412 12.7381 15.9826 12.7475 15.7959C12.7568 15.6372 12.8035 15.4786 12.8875 15.3199C12.9715 15.1612 13.0975 14.9932 13.2655 14.8159C13.4428 14.6386 13.6621 14.4566 13.9235 14.2699L14.7775 14.5499C14.7588 14.5592 14.7075 14.6059 14.6235 14.6899C14.5395 14.7739 14.4601 14.8719 14.3855 14.9839C14.3108 15.0866 14.2735 15.1846 14.2735 15.2779C14.2735 15.3992 14.4041 15.4739 14.6655 15.5019C14.9268 15.5206 15.2488 15.5579 15.6315 15.6139C16.0235 15.6792 16.3548 15.7772 16.6255 15.9079C16.8961 16.0292 17.1061 16.2019 17.2555 16.4259C17.4048 16.6499 17.4795 16.9486 17.4795 17.3219C17.4795 17.7606 17.3861 18.1619 17.1995 18.5259C17.0221 18.8992 16.7375 19.1932 16.3455 19.4079C15.9535 19.6319 15.4401 19.7439 14.8055 19.7439ZM14.9735 14.8439C14.4228 14.8439 13.9888 14.7412 13.6715 14.5359C13.3541 14.3212 13.1255 14.0366 12.9855 13.6819C12.8548 13.3179 12.7895 12.9072 12.7895 12.4499C12.7895 11.8059 12.8828 11.2972 13.0695 10.9239C13.2655 10.5412 13.5408 10.2706 13.8955 10.1119C14.2501 9.94388 14.6655 9.85987 15.1415 9.85987C15.2628 9.85987 15.3935 9.87388 15.5335 9.90188C15.6828 9.92988 15.8228 9.97187 15.9535 10.0279L16.2195 10.6579C16.5275 10.7979 16.7748 11.0172 16.9615 11.3159C17.1481 11.6146 17.2415 12.0112 17.2415 12.5059C17.2415 13.0099 17.1621 13.4346 17.0035 13.7799C16.8541 14.1252 16.6115 14.3912 16.2755 14.5779C15.9488 14.7552 15.5148 14.8439 14.9735 14.8439ZM15.0435 13.7799C15.2115 13.7799 15.3515 13.7332 15.4635 13.6399C15.5755 13.5372 15.6595 13.3646 15.7155 13.1219C15.7715 12.8792 15.7995 12.5526 15.7995 12.1419C15.7995 11.6752 15.7435 11.3486 15.6315 11.1619C15.5195 10.9752 15.3375 10.8819 15.0855 10.8819C14.9361 10.8819 14.8008 10.9286 14.6795 11.0219C14.5581 11.1152 14.4648 11.2692 14.3995 11.4839C14.3341 11.6986 14.3015 12.0019 14.3015 12.3939C14.3015 12.7206 14.3201 12.9866 14.3575 13.1919C14.4041 13.3972 14.4788 13.5466 14.5815 13.6399C14.6935 13.7332 14.8475 13.7799 15.0435 13.7799ZM17.1995 11.2039C17.0595 11.2039 16.8821 11.1759 16.6675 11.1199C16.4621 11.0546 16.2521 10.9799 16.0375 10.8959C15.8228 10.8119 15.6455 10.7372 15.5055 10.6719C15.3748 10.6066 15.3095 10.5739 15.3095 10.5739L15.3235 9.98588H17.5075C17.5541 10.0606 17.5915 10.1539 17.6195 10.2659C17.6475 10.3779 17.6615 10.5132 17.6615 10.6719C17.6615 10.8679 17.6195 11.0079 17.5355 11.0919C17.4515 11.1666 17.3395 11.2039 17.1995 11.2039Z" fill="#131313"/>
</svg>
