<svg width="24" height="24" viewBox="0 0 24 24" fill="none" xmlns="http://www.w3.org/2000/svg">
<path d="M10.9131 16L10.2021 13.9082H6.69531L5.98438 16H4.4668L7.76172 7.04492H9.17676L12.4307 16H10.9131ZM8.44531 8.8291L7.12598 12.6572H9.77832L8.47949 8.8291H8.44531ZM13.0186 13.0605C13.0186 11.985 13.251 11.126 13.7158 10.4834C14.1807 9.84082 14.8141 9.51953 15.6162 9.51953C16.4183 9.51953 17.0312 9.84993 17.4551 10.5107L17.6055 9.64258H18.8496V16.3008C18.8496 17.1621 18.5853 17.8252 18.0566 18.29C17.5326 18.7549 16.7806 18.9873 15.8008 18.9873C15.4727 18.9873 15.1217 18.9417 14.748 18.8506C14.3789 18.7594 14.0417 18.6364 13.7363 18.4814L14.0576 17.3057C14.5771 17.5791 15.1309 17.7158 15.7188 17.7158C16.3066 17.7158 16.7259 17.5996 16.9766 17.3672C17.2272 17.1393 17.3525 16.7839 17.3525 16.3008V15.6172C16.9196 16.1595 16.3431 16.4307 15.623 16.4307C14.8118 16.4307 14.1738 16.1367 13.709 15.5488C13.2441 14.9609 13.0117 14.1748 13.0117 13.1904L13.0186 13.0605ZM14.502 13.0605V13.1904C14.502 13.8239 14.6273 14.3184 14.8779 14.6738C15.1286 15.0293 15.5046 15.207 16.0059 15.207C16.6211 15.207 17.0677 14.9495 17.3457 14.4346V11.5156C17.054 11.0007 16.612 10.7432 16.0195 10.7432C15.5182 10.7432 15.14 10.9528 14.8848 11.3721C14.6296 11.7868 14.502 12.3496 14.502 13.0605Z" fill="#131313"/>
</svg>
