<svg width="24" height="24" viewBox="0 0 24 24" fill="none" xmlns="http://www.w3.org/2000/svg">
<path d="M14.2583 7.88819C14.2583 8.08708 14.216 8.30925 14.1313 8.55469C14.0509 8.7959 13.943 9.04557 13.8076 9.30371C13.6764 9.55762 13.522 9.81364 13.3442 10.0718C13.1707 10.3299 12.993 10.5733 12.811 10.8018C12.9211 10.9118 13.0205 11.0134 13.1094 11.1065C13.1982 11.1953 13.2617 11.2546 13.2998 11.2842C13.2406 11.3858 13.158 11.536 13.0522 11.7349C12.9507 11.9295 12.8407 12.1517 12.7222 12.4014C12.6079 12.6511 12.4894 12.9155 12.3667 13.1948C12.2482 13.4741 12.1403 13.7492 12.043 14.02C11.9456 14.2866 11.8652 14.5405 11.8018 14.7817C11.7425 15.0187 11.7129 15.2176 11.7129 15.3784C11.7129 15.59 11.7404 15.7868 11.7954 15.9688C11.8547 16.1507 11.9393 16.3094 12.0493 16.4448C12.1636 16.5845 12.3032 16.6987 12.4683 16.7876C12.6375 16.8807 12.8322 16.94 13.0522 16.9653L12.7412 17.3779C12.6904 17.3779 12.6121 17.3652 12.5063 17.3399C12.4006 17.3187 12.2821 17.2785 12.1509 17.2193C12.0197 17.1642 11.8822 17.0881 11.7383 16.9907C11.5944 16.8934 11.459 16.7686 11.332 16.6162C11.2051 16.4681 11.0929 16.2883 10.9956 16.0767C10.8983 15.8693 10.8306 15.6239 10.7925 15.3403C10.5894 15.5519 10.3693 15.7614 10.1323 15.9688C9.89958 16.1761 9.65837 16.3623 9.40869 16.5274C9.15902 16.6924 8.90511 16.8257 8.64697 16.9273C8.39307 17.0288 8.14551 17.0796 7.9043 17.0796C7.76465 17.0796 7.62077 17.0415 7.47266 16.9653C7.32878 16.8892 7.1849 16.7876 7.04102 16.6607C6.90137 16.5379 6.76595 16.3941 6.63477 16.229C6.50781 16.064 6.39355 15.8947 6.29199 15.7212C6.19466 15.5435 6.11426 15.3679 6.05078 15.1943C5.98307 15.0208 5.94287 14.86 5.93018 14.7119C5.93018 14.6569 5.93229 14.5913 5.93652 14.5151C5.93652 14.4347 5.93864 14.3522 5.94287 14.2676C5.9471 14.183 5.95345 14.1004 5.96191 14.02C5.96615 13.9396 5.97249 13.8677 5.98096 13.8042C6.04443 13.4276 6.146 13.0298 6.28564 12.6109C6.42529 12.1919 6.59456 11.7666 6.79346 11.335C6.99658 10.9033 7.2251 10.4738 7.479 10.0464C7.73291 9.61898 8.00798 9.21061 8.3042 8.82129C8.60042 8.43197 8.91357 8.07227 9.24365 7.74219C9.57373 7.40788 9.91227 7.12012 10.2593 6.87891C10.6105 6.63347 10.966 6.44092 11.3257 6.30127C11.6896 6.16162 12.0514 6.0918 12.4111 6.0918C12.5339 6.0918 12.665 6.12354 12.8047 6.18701C12.9443 6.25049 13.0819 6.33301 13.2173 6.43457C13.3569 6.53613 13.4881 6.65251 13.6108 6.78369C13.7378 6.91065 13.8478 7.04183 13.9409 7.17725C14.0382 7.30843 14.1144 7.4375 14.1694 7.56445C14.2287 7.68718 14.2583 7.79509 14.2583 7.88819ZM7.64404 15.9751C7.72445 15.9751 7.84082 15.9286 7.99316 15.8355C8.14974 15.7424 8.32959 15.6091 8.53271 15.4356C8.74007 15.2621 8.96436 15.0484 9.20557 14.7944C9.44678 14.5405 9.6901 14.2549 9.93555 13.9375C10.181 13.6159 10.4222 13.2647 10.6592 12.8838C10.9004 12.4987 11.1247 12.0882 11.332 11.6524L10.583 10.9033C10.6549 10.8272 10.7671 10.7256 10.9194 10.5986C11.0718 10.4717 11.241 10.3215 11.4272 10.148C11.6134 9.97445 11.8039 9.7819 11.9985 9.57031C12.1974 9.35449 12.3773 9.12386 12.5381 8.87842C12.7031 8.62875 12.8385 8.36849 12.9443 8.09766C13.0501 7.82259 13.103 7.53695 13.103 7.24072C13.103 7.07569 13.0692 6.95085 13.0015 6.86621C12.938 6.77735 12.8809 6.73291 12.8301 6.73291C12.5804 6.73291 12.3075 6.82389 12.0112 7.00586C11.7192 7.1836 11.4188 7.42692 11.1099 7.73584C10.8009 8.04053 10.4899 8.39811 10.1768 8.8086C9.86784 9.21908 9.5695 9.65707 9.28174 10.1226C8.99821 10.5881 8.73161 11.0663 8.48193 11.5571C8.23649 12.048 8.02279 12.5283 7.84082 12.9981C7.65885 13.4678 7.51497 13.9142 7.40918 14.3374C7.30339 14.7606 7.25049 15.133 7.25049 15.4546C7.25049 15.8016 7.38167 15.9751 7.64404 15.9751ZM18.9683 14.439C18.6043 14.8114 18.2383 15.1541 17.8701 15.4673C17.5062 15.7762 17.1444 16.0661 16.7847 16.3369C16.717 16.5316 16.6429 16.7284 16.5625 16.9273C16.4863 17.1304 16.4059 17.3335 16.3213 17.5366C16.1986 17.8159 16.0547 18.0825 15.8896 18.3364C15.7288 18.5946 15.5575 18.8316 15.3755 19.0474C15.1935 19.2674 15.0073 19.4642 14.8169 19.6377C14.6265 19.8154 14.4424 19.9657 14.2646 20.0884C14.0911 20.2111 13.9303 20.3063 13.7822 20.374C13.6299 20.4417 13.5008 20.4756 13.395 20.4756C13.3231 20.4756 13.2384 20.4439 13.1411 20.3804C13.0438 20.3169 12.9528 20.2365 12.8682 20.1392C12.7793 20.0461 12.7052 19.9424 12.646 19.8281C12.5825 19.7181 12.5508 19.6123 12.5508 19.5108C12.5508 19.2907 12.627 19.0749 12.7793 18.8633C12.9274 18.6517 13.1348 18.4338 13.4014 18.2095C13.6637 17.9852 13.9727 17.7482 14.3281 17.4985C14.6836 17.2531 15.0687 16.9865 15.4834 16.6987C15.5765 16.4575 15.6802 16.1719 15.7944 15.8418C15.9129 15.5075 16.0526 15.097 16.2134 14.6104C16.061 14.822 15.8833 15.0314 15.6802 15.2388C15.4771 15.4419 15.2676 15.6239 15.0518 15.7847C14.8359 15.9455 14.6201 16.0746 14.4043 16.1719C14.1927 16.2734 13.998 16.3242 13.8203 16.3242C13.7738 16.3242 13.7145 16.301 13.6426 16.2544C13.5664 16.2121 13.4924 16.155 13.4204 16.083C13.3442 16.0111 13.2808 15.9264 13.23 15.8291C13.175 15.7318 13.1475 15.6281 13.1475 15.5181C13.1475 15.3784 13.1813 15.2113 13.249 15.0166C13.3167 14.8177 13.4162 14.6082 13.5474 14.3882C13.6743 14.1681 13.8288 13.9439 14.0107 13.7153C14.1969 13.4868 14.4043 13.2731 14.6328 13.0742C14.8656 12.8711 15.1174 12.6913 15.3882 12.5347C15.6632 12.3739 15.9552 12.2512 16.2642 12.1665C16.3107 12.1665 16.3763 12.1856 16.4609 12.2236C16.5456 12.2575 16.6281 12.2977 16.7085 12.3443C16.7931 12.3866 16.8651 12.4289 16.9243 12.4712C16.9878 12.5135 17.0195 12.541 17.0195 12.5537C17.0195 12.5622 17.0132 12.5728 17.0005 12.5855C16.992 12.5897 16.9857 12.5918 16.9814 12.5918C16.8841 12.6511 16.7593 12.7336 16.6069 12.8394C16.4546 12.9452 16.2938 13.0658 16.1245 13.2012C15.9552 13.3324 15.786 13.4741 15.6167 13.6265C15.4474 13.7788 15.293 13.9312 15.1533 14.0835C15.0179 14.2316 14.9079 14.3755 14.8232 14.5151C14.7386 14.6506 14.6963 14.7733 14.6963 14.8833C14.6963 14.9214 14.7048 14.9553 14.7217 14.9849C14.7428 15.0103 14.7725 15.023 14.8105 15.023C14.9163 15.023 15.0348 14.987 15.166 14.9151C15.3014 14.8389 15.439 14.7415 15.5786 14.6231C15.7183 14.5046 15.8579 14.3734 15.9976 14.2295C16.1372 14.0814 16.2684 13.9375 16.3911 13.7979C16.5181 13.654 16.6302 13.5207 16.7275 13.398C16.8249 13.2752 16.901 13.1758 16.9561 13.0996C16.9645 13.0912 16.9709 13.0827 16.9751 13.0742C16.9836 13.0658 16.9941 13.0573 17.0068 13.0488C17.0407 13.0573 17.0851 13.0996 17.1401 13.1758C17.1994 13.252 17.2565 13.3408 17.3115 13.4424C17.3665 13.5397 17.4131 13.6371 17.4512 13.7344C17.4935 13.8317 17.5146 13.9015 17.5146 13.9439V13.9566C17.5146 13.9608 17.5104 13.9756 17.502 14.001C17.4554 14.1491 17.3962 14.3565 17.3242 14.6231C17.2523 14.8897 17.1613 15.1965 17.0513 15.5435C17.3221 15.3276 17.5929 15.1012 17.8638 14.8643C18.1388 14.6273 18.4118 14.3734 18.6826 14.1026L18.9683 14.439ZM13.2998 19.625C13.3844 19.625 13.5072 19.5594 13.668 19.4282C13.8245 19.3013 13.9917 19.1362 14.1694 18.9331C14.3472 18.7342 14.5207 18.5121 14.6899 18.2666C14.8634 18.0254 15.0073 17.7905 15.1216 17.562C14.8465 17.7609 14.5947 17.9471 14.3662 18.1206C14.1377 18.2984 13.943 18.4697 13.7822 18.6348C13.6172 18.7998 13.4902 18.9585 13.4014 19.1109C13.3083 19.2674 13.2617 19.4219 13.2617 19.5742C13.2617 19.6081 13.2744 19.625 13.2998 19.625Z" fill="#131313"/>
</svg>
