<svg width="24" height="24" viewBox="0 0 24 24" fill="none" xmlns="http://www.w3.org/2000/svg">
<path d="M8.738 7.29773C8.91533 7.81106 9.08333 8.33373 9.242 8.86573C9.41 9.3884 9.56867 9.91106 9.718 10.4337C9.86733 10.9657 10.0727 11.7217 10.334 12.7017C10.6047 13.6817 10.9313 14.881 11.314 16.2997C11.3513 16.5704 11.2813 16.729 11.104 16.7757C10.9173 16.8224 10.782 16.7477 10.698 16.5517L9.844 13.5277L7.016 13.5557L6.232 16.3977C6.176 16.6777 6.04533 16.7804 5.84 16.7057C5.62533 16.6497 5.55067 16.4677 5.616 16.1597L8.206 7.17173C8.24333 6.9384 8.32733 6.83106 8.458 6.84973C8.57 6.85906 8.66333 7.0084 8.738 7.29773ZM9.648 12.9257C9.48933 12.067 9.30733 11.2504 9.102 10.4757C8.906 9.69173 8.696 8.94506 8.472 8.23573L7.296 12.9117L9.648 12.9257ZM17.306 11.1897C17.334 10.9284 17.418 10.7884 17.558 10.7697C17.7073 10.7604 17.8007 10.8817 17.838 11.1337C17.8847 12.1137 17.8987 13.0237 17.88 13.8637C17.8613 14.7037 17.81 15.483 17.726 16.2017C17.5487 17.6297 16.998 18.4744 16.074 18.7357C15.1407 18.9877 14.3427 18.759 13.68 18.0497C13.5027 17.8257 13.47 17.6484 13.582 17.5177C13.694 17.387 13.848 17.415 14.044 17.6017C14.576 18.1804 15.2107 18.353 15.948 18.1197C16.6853 17.8864 17.082 17.0277 17.138 15.5437C16.8487 15.8144 16.5313 16.001 16.186 16.1037C15.8127 16.2064 15.416 16.2297 14.996 16.1737C14.5387 16.1177 14.1187 15.8984 13.736 15.5157C13.344 15.1144 13.1013 14.573 13.008 13.8917C12.9147 13.229 13.0173 12.5897 13.316 11.9737C13.6053 11.3577 13.9973 10.9517 14.492 10.7557C14.996 10.541 15.4813 10.4664 15.948 10.5317C16.4333 10.6064 16.886 10.8257 17.306 11.1897ZM17.012 12.0997C16.7787 11.6704 16.5453 11.395 16.312 11.2737C16.0787 11.1804 15.822 11.1244 15.542 11.1057C15.262 11.1057 14.968 11.1897 14.66 11.3577C14.352 11.5164 14.0907 11.829 13.876 12.2957C13.652 12.7624 13.5727 13.257 13.638 13.7797C13.7127 14.321 13.8853 14.727 14.156 14.9977C14.436 15.3057 14.7767 15.4877 15.178 15.5437C15.5513 15.5997 15.9153 15.5484 16.27 15.3897C16.606 15.2124 16.8347 14.993 16.956 14.7317C17.0867 14.4797 17.1753 14.083 17.222 13.5417C17.2593 13.0284 17.1893 12.5477 17.012 12.0997Z" fill="#131313"/>
</svg>
