<svg width="24" height="24" viewBox="0 0 24 24" fill="none" xmlns="http://www.w3.org/2000/svg">
<path d="M7.25105 11.9339H10.499L10.653 12.5499H6.99905L7.25105 11.9339ZM11.549 14.0619C11.5584 14.1272 11.5864 14.1879 11.633 14.2439C11.6797 14.2906 11.7357 14.3186 11.801 14.3279L12.347 14.4819L12.291 14.9999H9.39305L9.44905 14.4819L10.429 14.2859L9.19705 7.45386H9.60305L6.63505 14.2859L7.57305 14.4819L7.51705 14.9999H4.95505L5.01105 14.4819L5.59905 14.3279C5.75771 14.2906 5.86971 14.2019 5.93505 14.0619L9.09905 7.00586H10.191L11.549 14.0619ZM14.3063 17.7019C13.9609 17.7019 13.6529 17.6226 13.3823 17.4639C13.1209 17.3146 12.8923 17.1046 12.6963 16.8339L12.9203 16.4139C13.2469 16.5352 13.5736 16.6286 13.9003 16.6939C14.2269 16.7592 14.5536 16.7919 14.8803 16.7919C15.4123 16.7919 15.8043 16.6846 16.0563 16.4699C16.3083 16.2552 16.4716 15.9006 16.5463 15.4059L16.8263 13.2779V12.9559L17.2603 9.49786L18.1423 9.00786L18.3523 9.17586L17.6383 14.9019C17.5823 15.2939 17.4609 15.6579 17.2743 15.9939C17.0876 16.3392 16.8449 16.6379 16.5463 16.8899C16.2476 17.1419 15.9069 17.3379 15.5243 17.4779C15.1416 17.6272 14.7356 17.7019 14.3063 17.7019ZM14.8943 15.0559C14.4369 15.0559 14.0449 14.8786 13.7183 14.5239C13.4009 14.1599 13.2423 13.5999 13.2423 12.8439C13.2423 12.3119 13.3169 11.8219 13.4663 11.3739C13.6249 10.9166 13.8396 10.5152 14.1103 10.1699C14.3903 9.82453 14.7123 9.55853 15.0763 9.37186C15.4496 9.17586 15.8556 9.07786 16.2943 9.07786C16.5836 9.07786 16.8543 9.10586 17.1063 9.16186C17.3676 9.21786 17.6056 9.29253 17.8203 9.38586L17.5403 10.1139C17.3536 9.94586 17.1483 9.82919 16.9243 9.76386C16.7003 9.68919 16.4669 9.65186 16.2243 9.65186C15.9163 9.65186 15.6456 9.74053 15.4123 9.91786C15.1883 10.0859 15.0016 10.3146 14.8523 10.6039C14.7029 10.8932 14.5909 11.2106 14.5163 11.5559C14.4416 11.9012 14.4043 12.2466 14.4043 12.5919C14.4043 13.0959 14.4836 13.4972 14.6423 13.7959C14.8009 14.0852 15.0203 14.2299 15.3003 14.2299C15.5709 14.2299 15.8556 14.0852 16.1543 13.7959C16.4529 13.4972 16.6956 13.1099 16.8823 12.6339L17.0503 12.7319C16.8823 13.5066 16.6069 14.0899 16.2243 14.4819C15.8416 14.8646 15.3983 15.0559 14.8943 15.0559Z" fill="#131313"/>
</svg>
