<svg width="24" height="24" viewBox="0 0 24 24" fill="none" xmlns="http://www.w3.org/2000/svg">
<path d="M6.39071 11.7382H9.45671L9.65271 12.6062H6.06871L6.39071 11.7382ZM11.0807 13.8522C11.09 13.8989 11.1087 13.9455 11.1367 13.9922C11.174 14.0389 11.2394 14.0762 11.3327 14.1042L11.9067 14.2722L11.8227 15.0002H8.18271L8.26671 14.2722L9.20471 14.1042L8.15471 7.6362H8.67271L5.99871 14.1042L6.89471 14.2722L6.81071 15.0002H3.95471L4.03871 14.2722L4.68271 14.1042C4.82271 14.0669 4.92071 13.9875 4.97671 13.8662L8.04271 6.9502H9.83471L11.0807 13.8522ZM13.8138 17.7022C13.4124 17.7022 13.0578 17.6042 12.7498 17.4082C12.4511 17.2122 12.1944 16.9555 11.9798 16.6382L12.3158 15.9802C12.6611 16.0922 13.0298 16.1855 13.4218 16.2602C13.8138 16.3442 14.1684 16.3862 14.4858 16.3862C14.9804 16.3862 15.3258 16.3069 15.5218 16.1482C15.7271 15.9989 15.8578 15.6955 15.9138 15.2382L16.1378 13.5162L16.1518 13.0542L16.5718 9.6802L18.0558 8.9102L18.3918 9.1902L17.7198 14.5942C17.6638 15.0235 17.5051 15.4249 17.2438 15.7982C16.9918 16.1809 16.6744 16.5122 16.2918 16.7922C15.9091 17.0815 15.4984 17.3055 15.0598 17.4642C14.6304 17.6229 14.2151 17.7022 13.8138 17.7022ZM14.3738 15.0702C13.8698 15.0702 13.4498 14.8742 13.1138 14.4822C12.7778 14.0902 12.6098 13.5395 12.6098 12.8302C12.6098 12.3262 12.6891 11.8455 12.8478 11.3882C13.0064 10.9215 13.2304 10.5109 13.5198 10.1562C13.8184 9.7922 14.1638 9.50753 14.5558 9.3022C14.9478 9.08753 15.3818 8.9802 15.8578 8.9802C16.1564 8.9802 16.4504 9.01287 16.7398 9.0782C17.0291 9.1342 17.2811 9.19953 17.4958 9.2742L16.9918 10.2402C16.8144 10.1095 16.6371 10.0022 16.4598 9.9182C16.2918 9.8342 16.0864 9.7922 15.8438 9.7922C15.6104 9.7922 15.4051 9.87153 15.2278 10.0302C15.0598 10.1795 14.9198 10.3849 14.8078 10.6462C14.6958 10.9075 14.6118 11.2015 14.5558 11.5282C14.5091 11.8455 14.4858 12.1722 14.4858 12.5082C14.4858 12.9375 14.5324 13.2689 14.6258 13.5022C14.7284 13.7262 14.8638 13.8382 15.0318 13.8382C15.2091 13.8382 15.4004 13.7402 15.6058 13.5442C15.8111 13.3389 16.0164 13.0355 16.2218 12.6342L16.4318 12.7322C16.2918 13.4975 16.0398 14.0809 15.6758 14.4822C15.3118 14.8742 14.8778 15.0702 14.3738 15.0702Z" fill="#131313"/>
</svg>
