<svg width="24" height="24" viewBox="0 0 24 24" fill="none" xmlns="http://www.w3.org/2000/svg">
<path d="M8.25977 6.48633L11.6299 16.6924H10.6523L9.57227 13.3223H5.72363L4.61621 16.6924H3.69336L7.07031 6.48633H8.25977ZM9.36035 12.5771L8.5127 9.91797C8.20736 8.99284 7.9362 8.09049 7.69922 7.21094H7.56934C7.32324 8.1224 7.05892 9.02018 6.77637 9.9043L5.93555 12.5771H9.36035ZM19.2793 8.83789L19.2109 9.6377C18.8372 9.6377 18.5342 9.68783 18.3018 9.78809C18.1149 9.87012 17.9235 10.0068 17.7275 10.1982C18.2197 10.5947 18.4658 11.1393 18.4658 11.832C18.4658 12.584 18.1924 13.1742 17.6455 13.6025C17.1852 13.9626 16.6042 14.1426 15.9023 14.1426C15.4831 14.1426 15.0957 14.0697 14.7402 13.9238C14.2754 14.1836 14.043 14.4616 14.043 14.7578C14.043 15.0085 14.1432 15.1794 14.3438 15.2705C14.5397 15.3571 14.9339 15.43 15.5264 15.4893L16.9004 15.626C17.8483 15.7262 18.5046 15.9382 18.8691 16.2617C19.1426 16.5033 19.2793 16.8428 19.2793 17.2803C19.2793 17.8955 18.9694 18.3809 18.3496 18.7363C17.7663 19.0645 16.9847 19.2285 16.0049 19.2285C14.9613 19.2285 14.1637 19.0508 13.6123 18.6953C13.1429 18.39 12.9082 17.9935 12.9082 17.5059C12.9082 17.1549 13.0518 16.8405 13.3389 16.5625C13.585 16.321 13.9176 16.1318 14.3369 15.9951C13.626 15.8402 13.2705 15.4984 13.2705 14.9697C13.2705 14.5094 13.5941 14.0583 14.2412 13.6162C13.6533 13.1924 13.3594 12.6022 13.3594 11.8457C13.3594 11.1074 13.6419 10.5173 14.207 10.0752C14.6764 9.70605 15.2461 9.52148 15.916 9.52148C16.4401 9.52148 16.889 9.62858 17.2627 9.84277C17.5316 9.46452 17.8346 9.19792 18.1719 9.04297C18.4727 8.90625 18.8418 8.83789 19.2793 8.83789ZM15.916 10.1367C15.3919 10.1367 14.9658 10.3053 14.6377 10.6426C14.3369 10.9525 14.1865 11.3535 14.1865 11.8457C14.1865 12.3971 14.3757 12.8301 14.7539 13.1445C15.0638 13.3997 15.4489 13.5273 15.9092 13.5273C16.4378 13.5273 16.8639 13.361 17.1875 13.0283C17.4883 12.723 17.6387 12.3288 17.6387 11.8457C17.6387 11.2806 17.4473 10.8408 17.0645 10.5264C16.7546 10.2666 16.3717 10.1367 15.916 10.1367ZM15.0752 16.1592C14.1637 16.4098 13.708 16.8223 13.708 17.3965C13.708 17.8203 13.9518 18.1393 14.4395 18.3535C14.8405 18.5267 15.3714 18.6133 16.0322 18.6133C16.8617 18.6133 17.4974 18.4788 17.9395 18.21C18.2995 17.9867 18.4795 17.7064 18.4795 17.3691C18.4795 17.0592 18.3473 16.8268 18.083 16.6719C17.8096 16.5124 17.3447 16.3984 16.6885 16.3301L15.0752 16.1592Z" fill="#131313"/>
</svg>
