<svg width="24" height="24" viewBox="0 0 24 24" fill="none" xmlns="http://www.w3.org/2000/svg">
<path d="M4.93359 15.543C4.93359 15.5195 4.93359 15.4902 4.93359 15.4551C4.94531 15.4199 4.95117 15.4023 4.95117 15.4023C5.12695 15.0625 5.30859 14.7344 5.49609 14.418C5.69531 14.1016 5.89453 13.791 6.09375 13.4863C6.30469 13.1699 6.50391 12.8535 6.69141 12.5371C6.89062 12.209 7.07227 11.8809 7.23633 11.5527C7.18945 11.4473 7.07227 11.3535 6.88477 11.2715C6.69727 11.1895 6.46875 11.1016 6.19922 11.0078C5.94141 10.9141 5.66602 10.8086 5.37305 10.6914C5.08008 10.5625 4.81055 10.416 4.56445 10.252C4.31836 10.0762 4.11328 9.87695 3.94922 9.6543C3.78516 9.41992 3.70312 9.15039 3.70312 8.8457C3.70312 8.5293 3.80859 8.25391 4.01953 8.01953C4.23047 7.77344 4.48828 7.57422 4.79297 7.42188C5.09766 7.25781 5.41992 7.13477 5.75977 7.05273C6.09961 6.9707 6.39258 6.92969 6.63867 6.92969C7.1543 6.92969 7.60547 7.01758 7.99219 7.19336C8.39062 7.36914 8.80078 7.59766 9.22266 7.87891C9.36328 7.77344 9.48047 7.65625 9.57422 7.52734C9.67969 7.39844 9.77344 7.25781 9.85547 7.10547C9.89062 7.02344 9.9668 6.87695 10.084 6.66602C10.2129 6.44336 10.3359 6.20898 10.4531 5.96289C10.582 5.7168 10.7051 5.48828 10.8223 5.27734C10.9512 5.05469 11.0332 4.89648 11.0684 4.80273C11.1621 4.73242 11.2383 4.69141 11.2969 4.67969C11.3555 4.65625 11.4375 4.64453 11.543 4.64453C11.5547 4.64453 11.5781 4.64453 11.6133 4.64453C11.6602 4.64453 11.6895 4.64453 11.7012 4.64453C11.8184 5.13672 11.9062 5.64062 11.9648 6.15625C12.0234 6.67188 12.0645 7.1875 12.0879 7.70312C12.123 8.21875 12.1523 8.73438 12.1758 9.25C12.1992 9.76562 12.2402 10.2812 12.2988 10.7969C12.334 10.7969 12.3984 10.8027 12.4922 10.8145C12.5859 10.8145 12.6562 10.8145 12.7031 10.8145C12.8672 10.8145 13.0312 10.7969 13.1953 10.7617C13.3594 10.7266 13.5234 10.6914 13.6875 10.6562C13.8516 10.6094 14.0156 10.5684 14.1797 10.5332C14.3555 10.498 14.5312 10.4805 14.707 10.4805H14.7598C14.7715 10.4922 14.7949 10.5156 14.8301 10.5508C14.8652 10.5859 14.8945 10.6094 14.918 10.6211C14.8477 10.75 14.7305 10.8555 14.5664 10.9375C14.4141 11.0078 14.2383 11.0664 14.0391 11.1133C13.8516 11.1602 13.6523 11.207 13.4414 11.2539C13.2305 11.2891 13.043 11.3359 12.8789 11.3945C12.7148 11.4414 12.5742 11.5 12.457 11.5703C12.3516 11.6406 12.2988 11.7402 12.2988 11.8691C12.2988 12.1035 12.3105 12.3379 12.334 12.5723C12.3691 12.8066 12.4043 13.0469 12.4395 13.293C12.4863 13.5273 12.5273 13.7676 12.5625 14.0137C12.5977 14.248 12.6152 14.4883 12.6152 14.7344C12.6152 14.793 12.6094 14.875 12.5977 14.9805C12.5977 15.0859 12.5859 15.1914 12.5625 15.2969C12.5508 15.4023 12.5156 15.4961 12.457 15.5781C12.4102 15.6602 12.334 15.7012 12.2285 15.7012C12.1113 15.7012 12.0059 15.6133 11.9121 15.4375C11.8184 15.2617 11.7422 15.0391 11.6836 14.7695C11.625 14.5 11.5723 14.207 11.5254 13.8906C11.4902 13.5625 11.4551 13.252 11.4199 12.959C11.3965 12.6543 11.3672 12.3906 11.332 12.168C11.2969 11.9336 11.2617 11.7812 11.2266 11.7109C11.1328 11.6992 10.957 11.6875 10.6992 11.6758C10.4531 11.6641 10.1895 11.6523 9.9082 11.6406C9.63867 11.6172 9.38086 11.5996 9.13477 11.5879C8.88867 11.5645 8.71875 11.5527 8.625 11.5527H8.44922C8.21484 11.5527 7.99219 11.6641 7.78125 11.8867C7.58203 12.0977 7.39453 12.373 7.21875 12.7129C7.05469 13.041 6.89062 13.3984 6.72656 13.7852C6.5625 14.1602 6.4043 14.5176 6.25195 14.8574C6.09961 15.1855 5.94141 15.4609 5.77734 15.6836C5.61328 15.9062 5.4375 16.0176 5.25 16.0176C5.12109 16.0176 5.0332 15.9707 4.98633 15.877C4.95117 15.7715 4.93359 15.6602 4.93359 15.543ZM8.4668 10.7969C8.56055 10.8555 8.67188 10.9023 8.80078 10.9375C8.94141 10.9609 9.08203 10.9727 9.22266 10.9727C9.36328 10.9727 9.49219 10.9727 9.60938 10.9727C9.73828 10.9727 9.84961 10.9727 9.94336 10.9727C9.99023 10.9727 10.0488 10.9727 10.1191 10.9727C10.1895 10.9609 10.2598 10.9551 10.3301 10.9551C10.4004 10.9551 10.459 10.9551 10.5059 10.9551C10.5645 10.9434 10.5996 10.9375 10.6113 10.9375L10.7695 10.7969C10.793 10.7734 10.752 10.668 10.6465 10.4805C10.541 10.293 10.4062 10.0996 10.2422 9.90039C10.0898 9.68945 9.9375 9.50195 9.78516 9.33789C9.63281 9.16211 9.52734 9.07422 9.46875 9.07422C9.45703 9.07422 9.44531 9.08008 9.43359 9.0918C9.42188 9.10352 9.4043 9.10938 9.38086 9.10938C9.20508 9.36719 9.04102 9.63672 8.88867 9.91797C8.73633 10.1992 8.5957 10.4922 8.4668 10.7969ZM4.47656 8.82812C4.47656 9.13281 4.58203 9.40234 4.79297 9.63672C5.00391 9.85938 5.26172 10.0469 5.56641 10.1992C5.87109 10.3516 6.19336 10.4629 6.5332 10.5332C6.87305 10.6035 7.17188 10.6387 7.42969 10.6387C7.59375 10.6387 7.76367 10.5566 7.93945 10.3926C8.11523 10.2168 8.27344 10.0176 8.41406 9.79492C8.56641 9.57227 8.68945 9.34375 8.7832 9.10938C8.88867 8.875 8.94141 8.69336 8.94141 8.56445C8.94141 8.42383 8.84766 8.29492 8.66016 8.17773C8.47266 8.04883 8.25 7.9375 7.99219 7.84375C7.74609 7.75 7.5 7.67969 7.25391 7.63281C7.00781 7.57422 6.82617 7.54492 6.70898 7.54492C6.5332 7.54492 6.31641 7.57422 6.05859 7.63281C5.8125 7.67969 5.56641 7.75586 5.32031 7.86133C5.08594 7.9668 4.88672 8.10156 4.72266 8.26562C4.55859 8.41797 4.47656 8.60547 4.47656 8.82812ZM9.99609 8.24805C9.99609 8.40039 10.0547 8.58789 10.1719 8.81055C10.2891 9.0332 10.4297 9.25 10.5938 9.46094C10.7578 9.67188 10.9277 9.85352 11.1035 10.0059C11.291 10.1582 11.4551 10.2344 11.5957 10.2344C11.5957 10.1758 11.5898 10.0879 11.5781 9.9707C11.5781 9.85352 11.5723 9.72461 11.5605 9.58398C11.5605 9.44336 11.5547 9.31445 11.543 9.19727C11.543 9.08008 11.543 8.99219 11.543 8.93359C11.5195 8.76953 11.4902 8.55273 11.4551 8.2832C11.4316 8.01367 11.4023 7.75 11.3672 7.49219C11.3438 7.23438 11.3145 7.00586 11.2793 6.80664C11.2559 6.60742 11.2383 6.50195 11.2266 6.49023L11.0684 6.19141C11.0566 6.20312 11.0273 6.22656 10.9805 6.26172C10.9453 6.29688 10.9219 6.32031 10.9102 6.33203C10.875 6.40234 10.8164 6.51953 10.7344 6.68359C10.6523 6.83594 10.5586 7 10.4531 7.17578C10.3594 7.35156 10.2715 7.52148 10.1895 7.68555C10.1074 7.84961 10.0488 7.96094 10.0137 8.01953C10.0137 8.04297 10.0078 8.08398 9.99609 8.14258C9.99609 8.20117 9.99609 8.23633 9.99609 8.24805ZM14.7422 18.9883C14.7422 18.8594 14.748 18.7188 14.7598 18.5664C14.7598 18.4141 14.7773 18.2617 14.8125 18.1094C14.8359 17.957 14.877 17.8164 14.9355 17.6875C14.9941 17.5586 15.0879 17.4531 15.2168 17.3711C15.2168 17.4648 15.2227 17.6289 15.2344 17.8633C15.2461 18.0977 15.2578 18.3438 15.2695 18.6016C15.293 18.8594 15.3105 19.1055 15.3223 19.3398C15.334 19.5859 15.3457 19.75 15.3574 19.832C15.3809 20.0781 15.4395 20.3301 15.5332 20.5879C15.6387 20.8574 15.75 21.1211 15.8672 21.3789C15.9961 21.6484 16.125 21.9004 16.2539 22.1348C16.3828 22.3809 16.4941 22.5859 16.5879 22.75C16.6699 22.8789 16.7871 22.9668 16.9395 23.0137C17.0918 23.0605 17.2383 23.084 17.3789 23.084C17.6367 23.084 17.8652 22.9785 18.0645 22.7676C18.2754 22.5684 18.457 22.3105 18.6094 21.9941C18.7617 21.6777 18.8965 21.3262 19.0137 20.9395C19.1309 20.5527 19.2246 20.1719 19.2949 19.7969C19.3652 19.4336 19.418 19.0996 19.4531 18.7949C19.4883 18.502 19.5059 18.2852 19.5059 18.1445C19.5059 18.1328 19.5059 18.0684 19.5059 17.9512C19.5059 17.834 19.5059 17.6934 19.5059 17.5293C19.5176 17.377 19.5234 17.2188 19.5234 17.0547C19.5234 16.9023 19.5234 16.7793 19.5234 16.6855C19.5234 16.1348 19.5117 15.584 19.4883 15.0332C19.4766 14.4707 19.3828 13.9258 19.207 13.3984C19.1953 13.3984 19.1777 13.3984 19.1543 13.3984C19.1426 13.3867 19.1367 13.3809 19.1367 13.3809C19.0547 13.3809 18.9199 13.4629 18.7324 13.627C18.5449 13.791 18.3223 13.9727 18.0645 14.1719C17.8066 14.3594 17.5312 14.5352 17.2383 14.6992C16.9453 14.8516 16.6465 14.9277 16.3418 14.9277C16.1426 14.9277 15.9844 14.8867 15.8672 14.8047C15.7617 14.7227 15.6797 14.6172 15.6211 14.4883C15.5742 14.3594 15.5449 14.2188 15.5332 14.0664C15.5215 13.9023 15.5156 13.7441 15.5156 13.5918C15.5156 13.2285 15.5977 12.8418 15.7617 12.4316C15.9258 12.0098 16.1426 11.6172 16.4121 11.2539C16.6816 10.8906 16.998 10.5918 17.3613 10.3574C17.7246 10.123 18.1055 10.0059 18.5039 10.0059C18.6562 10.0059 18.791 10.0352 18.9082 10.0938C19.0254 10.1523 19.1484 10.1816 19.2773 10.1816C19.3477 10.1816 19.4004 10.1641 19.4355 10.1289C19.4824 10.0938 19.5234 10.0586 19.5586 10.0234C19.6055 9.97656 19.6523 9.93555 19.6992 9.90039C19.7461 9.86523 19.8047 9.84766 19.875 9.84766C20.0859 9.84766 20.2031 9.89453 20.2266 9.98828C20.2617 10.082 20.2793 10.2285 20.2793 10.4277C20.2793 11.1426 20.2676 11.8516 20.2441 12.5547C20.2207 13.2461 20.1973 13.9434 20.1738 14.6465C20.1504 15.3379 20.1328 16.0352 20.1211 16.7383C20.1094 17.4531 20.1152 18.1797 20.1387 18.918C20.0918 19.1055 20.0332 19.3574 19.9629 19.6738C19.9043 19.9902 19.8223 20.3242 19.7168 20.6758C19.623 21.0273 19.5059 21.3789 19.3652 21.7305C19.2246 22.082 19.0605 22.4043 18.873 22.6973C18.6973 22.9902 18.4863 23.2246 18.2402 23.4004C18.0059 23.5879 17.7422 23.6816 17.4492 23.6816C17.168 23.6816 16.9043 23.5938 16.6582 23.418C16.4121 23.2539 16.1836 23.0371 15.9727 22.7676C15.7734 22.498 15.5977 22.1934 15.4453 21.8535C15.293 21.5137 15.1641 21.168 15.0586 20.8164C14.9531 20.4766 14.877 20.1426 14.8301 19.8145C14.7715 19.498 14.7422 19.2227 14.7422 18.9883ZM16.1309 13.7148C16.1309 13.9258 16.1543 14.0605 16.2012 14.1191C16.2598 14.166 16.3945 14.1895 16.6055 14.1895C16.8516 14.1895 17.1211 14.1074 17.4141 13.9434C17.7188 13.7793 18.0059 13.5742 18.2754 13.3281C18.5449 13.082 18.7676 12.8184 18.9434 12.5371C19.1309 12.2441 19.2246 11.9746 19.2246 11.7285C19.2246 11.4355 19.1836 11.2012 19.1016 11.0254C19.0195 10.8496 18.8203 10.7617 18.5039 10.7617C18.1875 10.7617 17.8828 10.8613 17.5898 11.0605C17.2969 11.248 17.0391 11.4941 16.8164 11.7988C16.6055 12.0918 16.4355 12.4141 16.3066 12.7656C16.1895 13.1055 16.1309 13.4219 16.1309 13.7148Z" fill="#131313"/>
</svg>
